tick,type,numerator,denominator,clocks_per_click,notated_32nd_notes_per_beat,time,meta,track,data,tempo,control,value,channel,program,key,note,velocity
0,time_signature,4,4,96,8,0,1,0,,,,,,,,,
0,program_change,,,,,0,0,7,,,,,0,40,,,
0,control_change,,,,,0,0,7,,,7,100,0,,,,
0,control_change,,,,,0,0,7,,,91,65,0,,,,
0,key_signature,,,,,0,1,7,,,,,,,Dm,,
0,end_of_track,,,,,0,1,7,,,,,,,,,
0,track_name,,,,,0,1,8,,,,,,,,,
0,control_change,,,,,0,0,8,,,0,0,0,,,,
0,program_change,,,,,0,0,8,,,,,0,40,,,
0,control_change,,,,,0,0,8,,,7,100,0,,,,
0,control_change,,,,,0,0,8,,,91,65,0,,,,
0,key_signature,,,,,0,1,8,,,,,,,Dm,,
0,track_name,,,,,0,1,9,,,,,,,,,
0,control_change,,,,,0,0,9,,,0,0,1,,,,
0,program_change,,,,,0,0,9,,,,,1,40,,,
0,control_change,,,,,0,0,9,,,7,100,1,,,,
0,control_change,,,,,0,0,9,,,10,55,1,,,,
0,control_change,,,,,0,0,9,,,91,67,1,,,,
0,key_signature,,,,,0,1,9,,,,,,,Dm,,
0,note_on,,,,,0,0,16,,,,,7,,,52,100
0,key_signature,,,,,0,1,16,,,,,,,Dm,,
0,control_change,,,,,0,0,16,,,91,60,7,,,,
0,control_change,,,,,0,0,7,,,0,0,0,,,,
0,control_change,,,,,0,0,16,,,7,55,7,,,,
0,track_name,,,,,0,1,7,,,,,,,,,
0,key_signature,,,,,0,1,6,,,,,,,Dm,,
0,key_signature,,,,,0,1,3,,,,,,,Dm,,
0,end_of_track,,,,,0,1,3,,,,,,,,,
0,track_name,,,,,0,1,4,,,,,,,,,
0,control_change,,,,,0,0,4,,,0,0,0,,,,
0,program_change,,,,,0,0,4,,,,,0,40,,,
0,control_change,,,,,0,0,4,,,7,100,0,,,,
0,control_change,,,,,0,0,4,,,91,65,0,,,,
0,key_signature,,,,,0,1,4,,,,,,,Dm,,
0,end_of_track,,,,,0,1,4,,,,,,,,,
0,track_name,,,,,0,1,5,,,,,,,,,
0,control_change,,,,,0,0,5,,,0,0,0,,,,
0,program_change,,,,,0,0,5,,,,,0,40,,,
0,control_change,,,,,0,0,5,,,7,100,0,,,,
0,control_change,,,,,0,0,5,,,91,65,0,,,,
0,key_signature,,,,,0,1,5,,,,,,,Dm,,
0,end_of_track,,,,,0,1,5,,,,,,,,,
0,track_name,,,,,0,1,6,,,,,,,,,
0,control_change,,,,,0,0,6,,,0,0,0,,,,
0,program_change,,,,,0,0,6,,,,,0,40,,,
0,control_change,,,,,0,0,6,,,7,100,0,,,,
0,control_change,,,,,0,0,6,,,91,65,0,,,,
0,end_of_track,,,,,0,1,6,,,,,,,,,
0,program_change,,,,,0,0,3,,,,,0,40,,,
0,program_change,,,,,0,0,16,,,,,7,6,,,
0,track_name,,,,,0,1,16,,,,,,,,,
0,note_on,,,,,0,0,14,,,,,6,,,40,70
0,key_signature,,,,,0,1,14,,,,,,,Dm,,
0,control_change,,,,,0,0,14,,,91,63,6,,,,
0,control_change,,,,,0,0,14,,,10,86,6,,,,
0,control_change,,,,,0,0,14,,,7,85,6,,,,
0,program_change,,,,,0,0,14,,,,,6,48,,,
0,control_change,,,,,0,0,14,,,0,0,6,,,,
0,track_name,,,,,0,1,14,,,,,,,,,
0,track_name,,,,,0,1,12,,,,,,,,,
0,control_change,,,,,0,0,12,,,0,0,4,,,,
0,program_change,,,,,0,0,12,,,,,4,48,,,
0,control_change,,,,,0,0,12,,,7,95,4,,,,
0,control_change,,,,,0,0,12,,,91,66,4,,,,
0,key_signature,,,,,0,1,12,,,,,,,Dm,,
0,note_on,,,,,0,0,12,,,,,4,,,71,70
0,note_on,,,,,0,0,13,,,,,5,,,52,70
0,key_signature,,,,,0,1,13,,,,,,,Dm,,
0,control_change,,,,,0,0,13,,,91,64,5,,,,
0,control_change,,,,,0,0,13,,,10,75,5,,,,
0,control_change,,,,,0,0,13,,,7,90,5,,,,
0,program_change,,,,,0,0,13,,,,,5,48,,,
0,track_name,,,,,0,1,15,,,,,,,,,
0,control_change,,,,,0,0,16,,,0,0,7,,,,
0,control_change,,,,,0,0,15,,,0,0,7,,,,
0,control_change,,,,,0,0,15,,,7,55,7,,,,
0,track_name,,,,,0,1,10,,,,,,,,,
0,control_change,,,,,0,0,10,,,0,0,2,,,,
0,program_change,,,,,0,0,10,,,,,2,48,,,
0,control_change,,,,,0,0,10,,,7,100,2,,,,
0,control_change,,,,,0,0,10,,,10,53,2,,,,
0,control_change,,,,,0,0,10,,,91,65,2,,,,
0,key_signature,,,,,0,1,10,,,,,,,Dm,,
0,note_on,,,,,0,0,10,,,,,2,,,80,70
0,track_name,,,,,0,1,11,,,,,,,,,
0,control_change,,,,,0,0,11,,,0,0,3,,,,
0,program_change,,,,,0,0,11,,,,,3,48,,,
0,control_change,,,,,0,0,11,,,7,100,3,,,,
0,control_change,,,,,0,0,11,,,10,42,3,,,,
0,control_change,,,,,0,0,11,,,91,63,3,,,,
0,key_signature,,,,,0,1,11,,,,,,,Dm,,
0,note_on,,,,,0,0,11,,,,,3,,,74,70
0,control_change,,,,,0,0,13,,,0,0,5,,,,
0,note_on,,,,,0,0,15,,,,,7,,,68,100
0,note_on,,,,,0,0,15,,,,,7,,,59,100
0,key_signature,,,,,0,1,15,,,,,,,Dm,,
0,control_change,,,,,0,0,15,,,91,60,7,,,,
0,program_change,,,,,0,0,15,,,,,7,6,,,
0,control_change,,,,,0,0,3,,,91,65,0,,,,
0,track_name,,,,,0,1,13,,,,,,,,,
0,control_change,,,,,0,0,3,,,0,0,0,,,,
0,set_tempo,,,,,0,1,0,,1875000,,,,,,,
0,sequencer_specific,,,,,0,1,0,"(0, 0, 119, 14, 1)",,,,,,,,
0,sequencer_specific,,,,,0,1,0,"(0, 0, 65)",,,,,,,,
0,track_name,,,,,0,1,1,,,,,,,,,
0,control_change,,,,,0,0,3,,,7,100,0,,,,
0,track_name,,,,,0,1,2,,,,,,,,,
0,end_of_track,,,,,0,1,2,,,,,,,,,
0,track_name,,,,,0,1,3,,,,,,,,,
0,end_of_track,,,,,0,1,1,,,,,,,,,
128,note_off,,,,,0,0,15,,,,,7,,,68,100
128,note_off,,,,,128,0,15,,,,,7,,,59,100
128,note_off,,,,,128,0,11,,,,,3,,,74,100
128,note_off,,,,,128,0,12,,,,,4,,,71,100
128,note_off,,,,,128,0,10,,,,,2,,,80,100
128,note_off,,,,,128,0,16,,,,,7,,,52,100
128,note_off,,,,,128,0,14,,,,,6,,,40,100
128,note_off,,,,,128,0,13,,,,,5,,,52,100
192,note_on,,,,,64,0,13,,,,,5,,,52,70
192,note_on,,,,,64,0,11,,,,,3,,,74,70
192,note_on,,,,,64,0,15,,,,,7,,,59,100
192,note_on,,,,,0,0,15,,,,,7,,,68,100
192,note_on,,,,,64,0,16,,,,,7,,,52,100
192,note_on,,,,,64,0,10,,,,,2,,,80,70
192,note_on,,,,,64,0,14,,,,,6,,,40,70
192,note_on,,,,,64,0,12,,,,,4,,,71,70
320,note_off,,,,,128,0,11,,,,,3,,,74,100
320,note_off,,,,,128,0,13,,,,,5,,,52,100
320,note_off,,,,,128,0,15,,,,,7,,,59,100
320,note_off,,,,,0,0,15,,,,,7,,,68,100
320,note_off,,,,,128,0,14,,,,,6,,,40,100
320,note_off,,,,,128,0,12,,,,,4,,,71,100
320,note_off,,,,,128,0,16,,,,,7,,,52,100
320,note_off,,,,,128,0,10,,,,,2,,,80,100
384,note_on,,,,,64,0,14,,,,,6,,,40,70
384,note_on,,,,,64,0,11,,,,,3,,,74,70
384,note_on,,,,,0,0,15,,,,,7,,,68,100
384,note_on,,,,,64,0,16,,,,,7,,,52,100
384,note_on,,,,,64,0,12,,,,,4,,,71,70
384,note_on,,,,,64,0,15,,,,,7,,,59,100
384,note_on,,,,,64,0,10,,,,,2,,,80,70
384,note_on,,,,,64,0,13,,,,,5,,,52,70
512,note_off,,,,,128,0,11,,,,,3,,,74,100
512,note_off,,,,,128,0,16,,,,,7,,,52,100
512,note_off,,,,,128,0,14,,,,,6,,,40,100
512,note_off,,,,,128,0,10,,,,,2,,,80,100
512,note_off,,,,,128,0,12,,,,,4,,,71,100
512,note_off,,,,,128,0,13,,,,,5,,,52,100
512,note_off,,,,,128,0,15,,,,,7,,,59,100
512,note_off,,,,,0,0,15,,,,,7,,,68,100
576,note_on,,,,,64,0,14,,,,,6,,,40,70
576,note_on,,,,,0,0,15,,,,,7,,,68,100
576,note_on,,,,,64,0,11,,,,,3,,,74,70
576,note_on,,,,,64,0,12,,,,,4,,,64,70
576,note_on,,,,,64,0,16,,,,,7,,,52,100
576,note_on,,,,,64,0,15,,,,,7,,,59,100
576,note_on,,,,,64,0,13,,,,,5,,,52,70
576,note_on,,,,,64,0,10,,,,,2,,,80,70
704,note_off,,,,,128,0,15,,,,,7,,,59,100
704,note_off,,,,,0,0,15,,,,,7,,,68,100
704,note_off,,,,,128,0,11,,,,,3,,,74,100
704,note_off,,,,,128,0,14,,,,,6,,,40,100
704,note_off,,,,,128,0,13,,,,,5,,,52,100
704,note_off,,,,,128,0,16,,,,,7,,,52,100
704,note_off,,,,,128,0,10,,,,,2,,,80,100
704,note_off,,,,,128,0,12,,,,,4,,,64,100
768,note_on,,,,,64,0,11,,,,,3,,,73,70
768,note_on,,,,,64,0,16,,,,,7,,,45,100
768,note_on,,,,,64,0,10,,,,,2,,,79,70
768,note_on,,,,,64,0,13,,,,,5,,,45,70
768,note_on,,,,,64,0,14,,,,,6,,,33,70
768,note_on,,,,,64,0,12,,,,,4,,,64,70
788,note_on,,,,,84,0,15,,,,,7,,,57,100
812,note_on,,,,,24,0,15,,,,,7,,,61,100
836,note_on,,,,,24,0,15,,,,,7,,,64,100
860,note_on,,,,,24,0,15,,,,,7,,,67,100
1280,note_off,,,,,512,0,12,,,,,4,,,64,100
1280,note_off,,,,,512,0,11,,,,,3,,,73,100
1280,note_off,,,,,512,0,10,,,,,2,,,79,100
1280,note_off,,,,,512,0,16,,,,,7,,,45,100
1280,note_off,,,,,512,0,14,,,,,6,,,33,100
1280,note_off,,,,,512,0,13,,,,,5,,,45,100
1300,note_off,,,,,440,0,15,,,,,7,,,57,100
1324,note_off,,,,,24,0,15,,,,,7,,,61,100
1348,note_off,,,,,24,0,15,,,,,7,,,64,100
1372,note_off,,,,,24,0,15,,,,,7,,,67,100
1536,note_on,,,,,0,0,15,,,,,7,,,60,100
1536,note_on,,,,,256,0,10,,,,,2,,,78,70
1536,note_on,,,,,164,0,15,,,,,7,,,57,100
1536,note_on,,,,,256,0,11,,,,,3,,,72,70
1536,note_on,,,,,256,0,14,,,,,6,,,38,70
1536,note_on,,,,,256,0,13,,,,,5,,,50,70
1536,note_on,,,,,256,0,16,,,,,7,,,50,100
1536,note_on,,,,,256,0,12,,,,,4,,,62,70
1536,note_on,,,,,0,0,15,,,,,7,,,66,100
1664,note_off,,,,,128,0,14,,,,,6,,,38,100
1664,note_off,,,,,128,0,10,,,,,2,,,78,100
1664,note_off,,,,,128,0,15,,,,,7,,,57,100
1664,note_off,,,,,128,0,12,,,,,4,,,62,100
1664,note_off,,,,,128,0,16,,,,,7,,,50,100
1664,note_off,,,,,0,0,15,,,,,7,,,60,100
1664,note_off,,,,,0,0,15,,,,,7,,,66,100
1664,note_off,,,,,128,0,13,,,,,5,,,50,100
1664,note_off,,,,,128,0,11,,,,,3,,,72,100
1728,note_on,,,,,64,0,15,,,,,7,,,57,100
1728,note_on,,,,,64,0,12,,,,,4,,,69,69
1728,note_on,,,,,64,0,11,,,,,3,,,72,69
1728,note_on,,,,,0,0,15,,,,,7,,,60,100
1728,note_on,,,,,0,0,15,,,,,7,,,66,100
1728,note_on,,,,,64,0,13,,,,,5,,,50,69
1728,note_on,,,,,64,0,16,,,,,7,,,50,100
1728,note_on,,,,,64,0,10,,,,,2,,,78,69
1728,note_on,,,,,64,0,14,,,,,6,,,38,69
1856,note_off,,,,,128,0,14,,,,,6,,,38,100
1856,note_off,,,,,128,0,10,,,,,2,,,78,100
1856,note_off,,,,,128,0,11,,,,,3,,,72,100
1856,note_off,,,,,0,0,15,,,,,7,,,66,100
1856,note_off,,,,,128,0,15,,,,,7,,,57,100
1856,note_off,,,,,0,0,15,,,,,7,,,60,100
1856,note_off,,,,,128,0,16,,,,,7,,,50,100
1856,note_off,,,,,128,0,12,,,,,4,,,69,100
1856,note_off,,,,,128,0,13,,,,,5,,,50,100
1920,note_on,,,,,64,0,10,,,,,2,,,78,67
1920,note_on,,,,,64,0,15,,,,,7,,,57,100
1920,note_on,,,,,64,0,12,,,,,4,,,69,67
1920,note_on,,,,,64,0,11,,,,,3,,,72,67
1920,note_on,,,,,64,0,16,,,,,7,,,50,100
1920,note_on,,,,,0,0,15,,,,,7,,,66,100
1920,note_on,,,,,0,0,15,,,,,7,,,60,100
1920,note_on,,,,,64,0,14,,,,,6,,,38,67
1920,note_on,,,,,64,0,13,,,,,5,,,50,67
2048,note_off,,,,,128,0,12,,,,,4,,,69,100
2048,note_off,,,,,128,0,13,,,,,5,,,50,100
2048,note_off,,,,,128,0,16,,,,,7,,,50,100
2048,note_off,,,,,128,0,14,,,,,6,,,38,100
2048,note_off,,,,,128,0,15,,,,,7,,,57,100
2048,note_off,,,,,0,0,15,,,,,7,,,60,100
2048,note_off,,,,,0,0,15,,,,,7,,,66,100
2048,note_off,,,,,128,0,10,,,,,2,,,78,100
2048,note_off,,,,,128,0,11,,,,,3,,,72,100
2112,note_on,,,,,64,0,10,,,,,2,,,78,65
2112,note_on,,,,,64,0,15,,,,,7,,,57,100
2112,note_on,,,,,0,0,15,,,,,7,,,60,100
2112,note_on,,,,,0,0,15,,,,,7,,,66,100
2112,note_on,,,,,64,0,11,,,,,3,,,72,65
2112,note_on,,,,,64,0,13,,,,,5,,,50,65
2112,note_on,,,,,64,0,12,,,,,4,,,62,65
2112,note_on,,,,,64,0,14,,,,,6,,,38,65
2112,note_on,,,,,64,0,16,,,,,7,,,50,100
2240,note_off,,,,,0,0,15,,,,,7,,,66,100
2240,note_off,,,,,0,0,15,,,,,7,,,60,100
2240,note_off,,,,,128,0,15,,,,,7,,,57,100
2240,note_off,,,,,128,0,13,,,,,5,,,50,100
2240,note_off,,,,,128,0,12,,,,,4,,,62,100
2240,note_off,,,,,128,0,14,,,,,6,,,38,100
2240,note_off,,,,,128,0,10,,,,,2,,,78,100
2240,note_off,,,,,128,0,16,,,,,7,,,50,100
2240,note_off,,,,,128,0,11,,,,,3,,,72,100
2304,note_on,,,,,64,0,10,,,,,2,,,77,63
2304,note_on,,,,,64,0,14,,,,,6,,,43,63
2304,note_on,,,,,64,0,12,,,,,4,,,62,63
2304,note_on,,,,,64,0,16,,,,,7,,,43,100
2304,note_on,,,,,64,0,13,,,,,5,,,43,63
2304,note_on,,,,,64,0,11,,,,,3,,,71,63
2324,note_on,,,,,84,0,15,,,,,7,,,55,100
2348,note_on,,,,,24,0,15,,,,,7,,,59,100
2372,note_on,,,,,24,0,15,,,,,7,,,62,100
2396,note_on,,,,,24,0,15,,,,,7,,,65,100
2816,note_off,,,,,512,0,10,,,,,2,,,77,100
2816,note_off,,,,,512,0,14,,,,,6,,,43,100
2816,note_off,,,,,512,0,12,,,,,4,,,62,100
2816,note_off,,,,,512,0,13,,,,,5,,,43,100
2816,note_off,,,,,512,0,16,,,,,7,,,43,100
2816,note_off,,,,,512,0,11,,,,,3,,,71,100
2836,note_off,,,,,440,0,15,,,,,7,,,55,100
2860,note_off,,,,,24,0,15,,,,,7,,,59,100
2884,note_off,,,,,24,0,15,,,,,7,,,62,100
2908,note_off,,,,,24,0,15,,,,,7,,,65,100
3072,note_on,,,,,256,0,16,,,,,7,,,43,100
3072,note_on,,,,,256,0,12,,,,,4,,,67,60
3072,note_on,,,,,256,0,10,,,,,2,,,75,60
3072,note_on,,,,,256,0,14,,,,,6,,,43,60
3072,note_on,,,,,256,0,11,,,,,3,,,70,60
3072,set_tempo,,,,,3072,1,0,,1935483,,,,,,,
3072,note_on,,,,,0,0,15,,,,,7,,,58,100
3072,note_on,,,,,164,0,15,,,,,7,,,63,100
3072,note_on,,,,,256,0,13,,,,,5,,,43,60
3200,note_off,,,,,128,0,11,,,,,3,,,70,100
3200,note_off,,,,,128,0,10,,,,,2,,,75,100
3200,note_off,,,,,128,0,13,,,,,5,,,43,100
3200,note_off,,,,,128,0,15,,,,,7,,,63,100
3200,note_off,,,,,128,0,16,,,,,7,,,43,100
3200,note_off,,,,,128,0,12,,,,,4,,,67,100
3200,note_off,,,,,0,0,15,,,,,7,,,58,100
3200,note_off,,,,,128,0,14,,,,,6,,,43,100
3264,set_tempo,,,,,192,1,0,,1935483,,,,,,,
3264,note_on,,,,,0,0,15,,,,,7,,,58,100
3264,note_on,,,,,64,0,15,,,,,7,,,63,100
3264,note_on,,,,,64,0,16,,,,,7,,,43,100
3264,note_on,,,,,64,0,10,,,,,2,,,75,61
3264,note_on,,,,,64,0,13,,,,,5,,,43,61
3264,note_on,,,,,64,0,11,,,,,3,,,70,61
3264,note_on,,,,,64,0,14,,,,,6,,,43,61
3264,note_on,,,,,64,0,12,,,,,4,,,67,61
3392,note_off,,,,,128,0,10,,,,,2,,,75,100
3392,note_off,,,,,128,0,16,,,,,7,,,43,100
3392,note_off,,,,,128,0,12,,,,,4,,,67,100
3392,note_off,,,,,0,0,15,,,,,7,,,58,100
3392,note_off,,,,,128,0,15,,,,,7,,,63,100
3392,note_off,,,,,128,0,14,,,,,6,,,43,100
3392,note_off,,,,,128,0,11,,,,,3,,,70,100
3392,note_off,,,,,128,0,13,,,,,5,,,43,100
3456,note_on,,,,,64,0,12,,,,,4,,,63,63
3456,note_on,,,,,64,0,16,,,,,7,,,48,100
3456,note_on,,,,,64,0,14,,,,,6,,,36,63
3456,note_on,,,,,0,0,15,,,,,7,,,67,100
3456,set_tempo,,,,,192,1,0,,2000000,,,,,,,
3456,note_on,,,,,64,0,10,,,,,2,,,75,63
3456,note_on,,,,,64,0,13,,,,,5,,,48,63
3456,note_on,,,,,64,0,11,,,,,3,,,79,63
3456,note_on,,,,,64,0,15,,,,,7,,,63,100
3584,note_off,,,,,128,0,16,,,,,7,,,48,100
3584,note_off,,,,,128,0,13,,,,,5,,,48,100
3584,set_tempo,,,,,128,1,0,,2068965,,,,,,,
3584,note_off,,,,,0,0,15,,,,,7,,,67,100
3584,note_off,,,,,128,0,15,,,,,7,,,63,100
3584,note_off,,,,,128,0,12,,,,,4,,,63,100
3584,note_off,,,,,128,0,14,,,,,6,,,36,100
3584,note_off,,,,,128,0,11,,,,,3,,,79,100
3584,note_off,,,,,128,0,10,,,,,2,,,75,100
3648,note_on,,,,,64,0,10,,,,,2,,,75,65
3648,note_on,,,,,0,0,15,,,,,7,,,67,100
3648,note_on,,,,,64,0,15,,,,,7,,,63,100
3648,note_on,,,,,64,0,11,,,,,3,,,79,65
3648,note_on,,,,,64,0,14,,,,,6,,,36,65
3648,note_on,,,,,64,0,13,,,,,5,,,48,65
3648,note_on,,,,,64,0,16,,,,,7,,,48,100
3648,note_on,,,,,64,0,12,,,,,4,,,63,65
3712,set_tempo,,,,,128,1,0,,2142857,,,,,,,
3776,note_off,,,,,128,0,14,,,,,6,,,36,100
3776,note_off,,,,,128,0,11,,,,,3,,,79,100
3776,note_off,,,,,128,0,16,,,,,7,,,48,100
3776,note_off,,,,,128,0,12,,,,,4,,,63,100
3776,note_off,,,,,0,0,15,,,,,7,,,67,100
3776,note_off,,,,,128,0,10,,,,,2,,,75,100
3776,note_off,,,,,128,0,13,,,,,5,,,48,100
3776,note_off,,,,,128,0,15,,,,,7,,,63,100
3840,note_on,,,,,64,0,13,,,,,5,,,45,67
3840,note_on,,,,,64,0,14,,,,,6,,,33,67
3840,note_on,,,,,64,0,10,,,,,2,,,73,67
3840,note_on,,,,,64,0,12,,,,,4,,,64,67
3840,set_tempo,,,,,128,1,0,,2222222,,,,,,,
3840,note_on,,,,,64,0,16,,,,,7,,,45,100
3840,note_on,,,,,64,0,11,,,,,3,,,79,67
3860,note_on,,,,,84,0,15,,,,,7,,,57,100
3884,note_on,,,,,24,0,15,,,,,7,,,61,100
3908,note_on,,,,,24,0,15,,,,,7,,,64,100
3932,note_on,,,,,24,0,15,,,,,7,,,67,100
4352,note_off,,,,,512,0,11,,,,,3,,,79,100
4352,note_off,,,,,512,0,10,,,,,2,,,73,100
4352,note_off,,,,,512,0,12,,,,,4,,,64,100
4352,note_off,,,,,512,0,14,,,,,6,,,33,100
4352,note_off,,,,,512,0,16,,,,,7,,,45,100
4352,note_off,,,,,512,0,13,,,,,5,,,45,100
4372,note_off,,,,,440,0,15,,,,,7,,,57,100
4396,note_off,,,,,24,0,15,,,,,7,,,61,100
4420,note_off,,,,,24,0,15,,,,,7,,,64,100
4444,note_off,,,,,24,0,15,,,,,7,,,67,100
4608,set_tempo,,,,,768,1,0,,500000,,,,,,,
4800,note_on,,,,,448,0,16,,,,,7,,,50,100
4800,note_on,,,,,448,0,14,,,,,6,,,38,100
4800,note_on,,,,,448,0,13,,,,,5,,,50,100
4864,note_off,,,,,64,0,13,,,,,5,,,50,100
4864,note_off,,,,,64,0,16,,,,,7,,,50,100
4864,note_off,,,,,64,0,14,,,,,6,,,38,100
4896,note_on,,,,,32,0,16,,,,,7,,,52,100
4896,note_on,,,,,32,0,13,,,,,5,,,52,100
4896,note_on,,,,,32,0,14,,,,,6,,,40,100
4960,note_off,,,,,64,0,16,,,,,7,,,52,100
4960,note_off,,,,,64,0,13,,,,,5,,,52,100
4960,note_off,,,,,64,0,14,,,,,6,,,40,100
4992,note_on,,,,,32,0,16,,,,,7,,,53,100
4992,note_on,,,,,32,0,13,,,,,5,,,53,100
4992,note_on,,,,,32,0,14,,,,,6,,,41,100
5120,note_off,,,,,128,0,16,,,,,7,,,53,100
5120,note_off,,,,,128,0,13,,,,,5,,,53,100
5120,note_off,,,,,128,0,14,,,,,6,,,41,100
5184,note_on,,,,,64,0,13,,,,,5,,,53,100
5184,note_on,,,,,64,0,16,,,,,7,,,53,100
5184,note_on,,,,,64,0,14,,,,,6,,,41,100
5312,note_off,,,,,128,0,14,,,,,6,,,41,100
5312,note_off,,,,,128,0,16,,,,,7,,,53,100
5312,note_off,,,,,128,0,13,,,,,5,,,53,100
5376,note_on,,,,,64,0,16,,,,,7,,,52,100
5376,note_on,,,,,64,0,14,,,,,6,,,40,100
5376,note_on,,,,,64,0,13,,,,,5,,,52,100
5504,note_off,,,,,128,0,13,,,,,5,,,52,100
5504,note_off,,,,,128,0,16,,,,,7,,,52,100
5504,note_off,,,,,128,0,14,,,,,6,,,40,100
5568,note_on,,,,,64,0,13,,,,,5,,,52,100
5568,note_on,,,,,64,0,16,,,,,7,,,52,100
5568,note_on,,,,,64,0,14,,,,,6,,,40,100
5632,note_off,,,,,64,0,13,,,,,5,,,52,100
5632,note_off,,,,,64,0,14,,,,,6,,,40,100
5632,note_off,,,,,64,0,16,,,,,7,,,52,100
5664,note_on,,,,,32,0,14,,,,,6,,,41,100
5664,note_on,,,,,32,0,13,,,,,5,,,53,100
5664,note_on,,,,,32,0,16,,,,,7,,,53,100
5728,note_off,,,,,64,0,16,,,,,7,,,53,100
5728,note_off,,,,,64,0,14,,,,,6,,,41,100
5728,note_off,,,,,64,0,13,,,,,5,,,53,100
5760,note_on,,,,,32,0,13,,,,,5,,,55,100
5760,note_on,,,,,32,0,16,,,,,7,,,55,100
5760,note_on,,,,,32,0,14,,,,,6,,,43,100
5888,note_off,,,,,128,0,14,,,,,6,,,43,100
5888,note_off,,,,,128,0,13,,,,,5,,,55,100
5888,note_off,,,,,128,0,16,,,,,7,,,55,100
5952,note_on,,,,,64,0,16,,,,,7,,,52,100
5952,note_on,,,,,64,0,13,,,,,5,,,52,100
5952,note_on,,,,,64,0,14,,,,,6,,,40,100
6080,note_off,,,,,128,0,16,,,,,7,,,52,100
6080,note_off,,,,,128,0,13,,,,,5,,,52,100
6080,note_off,,,,,128,0,14,,,,,6,,,40,100
6144,note_on,,,,,64,0,14,,,,,6,,,41,100
6144,note_on,,,,,64,0,13,,,,,5,,,53,100
6144,note_on,,,,,64,0,16,,,,,7,,,53,100
6272,note_off,,,,,128,0,13,,,,,5,,,53,100
6272,note_off,,,,,128,0,16,,,,,7,,,53,100
6272,note_off,,,,,128,0,14,,,,,6,,,41,100
6336,note_on,,,,,64,0,13,,,,,5,,,50,100
6336,note_on,,,,,64,0,14,,,,,6,,,38,100
6336,note_on,,,,,64,0,16,,,,,7,,,50,100
6464,note_off,,,,,128,0,14,,,,,6,,,38,100
6464,note_off,,,,,128,0,13,,,,,5,,,50,100
6464,note_off,,,,,128,0,16,,,,,7,,,50,100
6528,note_on,,,,,64,0,16,,,,,7,,,62,100
6528,note_on,,,,,64,0,13,,,,,5,,,62,100
6528,note_on,,,,,64,0,14,,,,,6,,,50,100
6528,note_on,,,,,2084,0,15,,,,,7,,,65,100
6784,note_off,,,,,256,0,15,,,,,7,,,65,100
6784,note_off,,,,,256,0,16,,,,,7,,,62,100
6784,note_off,,,,,256,0,13,,,,,5,,,62,100
6784,note_off,,,,,256,0,14,,,,,6,,,50,100
6912,note_on,,,,,0,0,15,,,,,7,,,65,100
6912,note_on,,,,,128,0,15,,,,,7,,,62,100
6912,note_on,,,,,128,0,14,,,,,6,,,43,100
6912,note_on,,,,,128,0,16,,,,,7,,,55,100
6912,note_on,,,,,128,0,13,,,,,5,,,55,100
7168,note_off,,,,,256,0,16,,,,,7,,,55,100
7168,note_off,,,,,256,0,15,,,,,7,,,62,100
7168,note_off,,,,,256,0,13,,,,,5,,,55,100
7168,note_off,,,,,256,0,14,,,,,6,,,43,100
7168,note_off,,,,,0,0,15,,,,,7,,,65,100
7296,note_on,,,,,128,0,16,,,,,7,,,60,100
7296,note_on,,,,,0,0,15,,,,,7,,,70,100
7296,note_on,,,,,128,0,14,,,,,6,,,48,100
7296,note_on,,,,,128,0,15,,,,,7,,,67,100
7296,note_on,,,,,128,0,13,,,,,5,,,60,100
7552,note_off,,,,,256,0,16,,,,,7,,,60,100
7552,note_off,,,,,256,0,15,,,,,7,,,67,100
7552,note_off,,,,,0,0,15,,,,,7,,,70,100
7552,note_off,,,,,256,0,14,,,,,6,,,48,100
7552,note_off,,,,,256,0,13,,,,,5,,,60,100
7680,note_on,,,,,128,0,15,,,,,7,,,60,100
7680,note_on,,,,,0,0,15,,,,,7,,,64,100
7680,note_on,,,,,128,0,14,,,,,6,,,41,100
7680,note_on,,,,,128,0,16,,,,,7,,,53,100
7680,note_on,,,,,128,0,13,,,,,5,,,53,100
7936,note_off,,,,,0,0,15,,,,,7,,,64,100
7936,note_off,,,,,256,0,15,,,,,7,,,60,100
7936,note_off,,,,,256,0,16,,,,,7,,,53,100
7936,note_off,,,,,256,0,14,,,,,6,,,41,100
7936,note_off,,,,,256,0,13,,,,,5,,,53,100
8064,note_on,,,,,0,0,15,,,,,7,,,69,100
8064,note_on,,,,,128,0,15,,,,,7,,,65,100
8064,note_on,,,,,128,0,14,,,,,6,,,46,100
8064,note_on,,,,,128,0,16,,,,,7,,,58,100
8064,note_on,,,,,128,0,13,,,,,5,,,58,100
8320,note_off,,,,,256,0,13,,,,,5,,,58,100
8320,note_off,,,,,256,0,15,,,,,7,,,65,100
8320,note_off,,,,,0,0,15,,,,,7,,,69,100
8320,note_off,,,,,256,0,16,,,,,7,,,58,100
8320,note_off,,,,,256,0,14,,,,,6,,,46,100
8448,note_on,,,,,128,0,16,,,,,7,,,52,100
8448,note_on,,,,,128,0,13,,,,,5,,,52,100
8448,note_on,,,,,128,0,14,,,,,6,,,40,100
8448,note_on,,,,,0,0,15,,,,,7,,,62,100
8448,note_on,,,,,128,0,15,,,,,7,,,58,100
8704,note_off,,,,,256,0,15,,,,,7,,,58,100
8704,note_off,,,,,0,0,15,,,,,7,,,62,100
8704,note_off,,,,,256,0,16,,,,,7,,,52,100
8704,note_off,,,,,256,0,13,,,,,5,,,52,100
8704,note_off,,,,,256,0,14,,,,,6,,,40,100
8832,note_on,,,,,128,0,16,,,,,7,,,57,100
8832,note_on,,,,,128,0,13,,,,,5,,,57,100
8832,note_on,,,,,128,0,15,,,,,7,,,64,100
8832,note_on,,,,,0,0,15,,,,,7,,,67,100
8832,note_on,,,,,128,0,14,,,,,6,,,45,100
9088,note_off,,,,,0,0,15,,,,,7,,,67,100
9088,note_off,,,,,256,0,16,,,,,7,,,57,100
9088,note_off,,,,,256,0,15,,,,,7,,,64,100
9088,note_off,,,,,256,0,14,,,,,6,,,45,100
9088,note_off,,,,,256,0,13,,,,,5,,,57,100
9216,note_on,,,,,128,0,13,,,,,5,,,50,100
9216,note_on,,,,,128,0,14,,,,,6,,,38,100
9216,note_on,,,,,128,0,15,,,,,7,,,57,100
9216,note_on,,,,,0,0,15,,,,,7,,,60,100
9216,note_on,,,,,128,0,16,,,,,7,,,50,100
9472,note_off,,,,,256,0,14,,,,,6,,,38,100
9472,note_off,,,,,256,0,13,,,,,5,,,50,100
9472,note_off,,,,,256,0,15,,,,,7,,,57,100
9472,note_off,,,,,0,0,15,,,,,7,,,60,100
9472,note_off,,,,,256,0,16,,,,,7,,,50,100
9600,note_on,,,,,128,0,13,,,,,5,,,55,100
9600,note_on,,,,,128,0,14,,,,,6,,,43,100
9600,note_on,,,,,0,0,15,,,,,7,,,62,100
9600,note_on,,,,,128,0,16,,,,,7,,,55,100
9600,note_on,,,,,128,0,15,,,,,7,,,58,100
9856,note_off,,,,,256,0,15,,,,,7,,,58,100
9856,note_off,,,,,0,0,15,,,,,7,,,62,100
9984,note_off,,,,,384,0,14,,,,,6,,,43,100
9984,note_on,,,,,128,0,15,,,,,7,,,61,100
9984,note_off,,,,,384,0,16,,,,,7,,,55,100
9984,note_off,,,,,384,0,13,,,,,5,,,55,100
9984,note_on,,,,,0,0,15,,,,,7,,,57,100
10112,note_off,,,,,128,0,15,,,,,7,,,61,100
10112,note_off,,,,,0,0,15,,,,,7,,,57,100
10176,note_on,,,,,192,0,16,,,,,7,,,53,100
10176,note_on,,,,,192,0,14,,,,,6,,,41,100
10176,note_on,,,,,192,0,13,,,,,5,,,53,100
10176,note_on,,,,,0,0,15,,,,,7,,,57,100
10176,note_on,,,,,64,0,15,,,,,7,,,62,100
10304,note_off,,,,,128,0,14,,,,,6,,,41,100
10304,note_off,,,,,128,0,13,,,,,5,,,53,100
10304,note_off,,,,,128,0,16,,,,,7,,,53,100
10304,note_off,,,,,0,0,15,,,,,7,,,57,100
10304,note_off,,,,,128,0,15,,,,,7,,,62,100
10368,note_on,,,,,64,0,13,,,,,5,,,52,100
10368,note_on,,,,,64,0,16,,,,,7,,,52,100
10368,note_on,,,,,0,0,15,,,,,7,,,62,100
10368,note_on,,,,,64,0,14,,,,,6,,,40,100
10368,note_on,,,,,64,0,15,,,,,7,,,58,100
10496,note_off,,,,,128,0,15,,,,,7,,,58,100
10496,note_off,,,,,0,0,15,,,,,7,,,62,100
10560,note_on,,,,,64,0,15,,,,,7,,,55,100
10560,note_on,,,,,0,0,15,,,,,7,,,61,100
10624,note_off,,,,,256,0,14,,,,,6,,,40,100
10624,note_off,,,,,256,0,16,,,,,7,,,52,100
10624,note_off,,,,,256,0,13,,,,,5,,,52,100
10688,note_off,,,,,128,0,15,,,,,7,,,55,100
10688,note_off,,,,,0,0,15,,,,,7,,,61,100
10752,note_on,,,,,0,0,15,,,,,7,,,53,100
10752,note_on,,,,,64,0,15,,,,,7,,,62,100
10752,note_on,,,,,128,0,14,,,,,6,,,38,100
10752,note_on,,,,,128,0,13,,,,,5,,,50,100
10752,note_on,,,,,128,0,16,,,,,7,,,50,100
10944,note_on,,,,,6592,0,12,,,,,4,,,57,100
11008,note_off,,,,,256,0,14,,,,,6,,,38,100
11008,note_off,,,,,256,0,16,,,,,7,,,50,100
11008,note_off,,,,,256,0,15,,,,,7,,,62,100
11008,note_off,,,,,64,0,12,,,,,4,,,57,100
11008,note_off,,,,,0,0,15,,,,,7,,,53,100
11008,note_off,,,,,256,0,13,,,,,5,,,50,100
11040,note_on,,,,,32,0,12,,,,,4,,,59,100
11104,note_off,,,,,64,0,12,,,,,4,,,59,100
11136,note_on,,,,,32,0,12,,,,,4,,,60,100
11136,note_on,,,,,128,0,16,,,,,7,,,57,100
11136,note_on,,,,,128,0,13,,,,,5,,,57,100
11136,note_on,,,,,128,0,14,,,,,6,,,45,100
11136,note_on,,,,,128,0,15,,,,,7,,,60,100
11136,note_on,,,,,0,0,15,,,,,7,,,64,100
11264,note_off,,,,,128,0,12,,,,,4,,,60,100
11328,note_on,,,,,64,0,12,,,,,4,,,60,100
11392,note_off,,,,,0,0,15,,,,,7,,,64,100
11392,note_off,,,,,256,0,15,,,,,7,,,60,100
11456,note_off,,,,,128,0,12,,,,,4,,,60,100
11520,note_on,,,,,0,0,15,,,,,7,,,62,100
11520,note_on,,,,,128,0,15,,,,,7,,,59,100
11520,note_on,,,,,64,0,12,,,,,4,,,59,100
11648,note_off,,,,,512,0,13,,,,,5,,,57,100
11648,note_off,,,,,128,0,12,,,,,4,,,59,100
11648,note_off,,,,,512,0,14,,,,,6,,,45,100
11648,note_off,,,,,512,0,16,,,,,7,,,57,100
11712,note_on,,,,,64,0,12,,,,,4,,,59,100
11776,note_off,,,,,0,0,15,,,,,7,,,62,100
11776,note_off,,,,,64,0,12,,,,,4,,,59,100
11776,note_off,,,,,256,0,15,,,,,7,,,59,100
11808,note_on,,,,,32,0,12,,,,,4,,,60,100
11872,note_off,,,,,64,0,12,,,,,4,,,60,100
11904,note_on,,,,,256,0,14,,,,,6,,,44,100
11904,note_on,,,,,256,0,13,,,,,5,,,56,100
11904,note_on,,,,,0,0,15,,,,,7,,,62,100
11904,note_on,,,,,128,0,15,,,,,7,,,59,100
11904,note_on,,,,,256,0,16,,,,,7,,,56,100
11904,note_on,,,,,32,0,12,,,,,4,,,62,100
12032,note_off,,,,,128,0,12,,,,,4,,,62,100
12096,note_on,,,,,64,0,12,,,,,4,,,59,100
12160,note_off,,,,,256,0,15,,,,,7,,,59,100
12160,note_off,,,,,256,0,14,,,,,6,,,44,100
12160,note_off,,,,,0,0,15,,,,,7,,,62,100
12160,note_off,,,,,256,0,13,,,,,5,,,56,100
12160,note_off,,,,,256,0,16,,,,,7,,,56,100
12224,note_off,,,,,128,0,12,,,,,4,,,59,100
12288,note_on,,,,,128,0,14,,,,,6,,,45,100
12288,note_on,,,,,128,0,15,,,,,7,,,60,100
12288,note_on,,,,,0,0,15,,,,,7,,,64,100
12288,note_on,,,,,128,0,13,,,,,5,,,57,100
12288,note_on,,,,,64,0,12,,,,,4,,,60,100
12288,note_on,,,,,128,0,16,,,,,7,,,57,100
12416,note_off,,,,,128,0,12,,,,,4,,,60,100
12480,note_on,,,,,64,0,12,,,,,4,,,57,100
12544,note_off,,,,,256,0,15,,,,,7,,,60,100
12544,note_off,,,,,256,0,13,,,,,5,,,57,100
12544,note_off,,,,,256,0,16,,,,,7,,,57,100
12544,note_off,,,,,256,0,14,,,,,6,,,45,100
12544,note_off,,,,,0,0,15,,,,,7,,,64,100
12608,note_off,,,,,128,0,12,,,,,4,,,57,100
12672,note_on,,,,,128,0,14,,,,,6,,,48,100
12672,note_on,,,,,128,0,13,,,,,5,,,60,100
12672,note_on,,,,,64,0,12,,,,,4,,,69,100
12672,note_on,,,,,128,0,15,,,,,7,,,69,100
12672,note_on,,,,,128,0,16,,,,,7,,,60,100
12672,note_on,,,,,0,0,15,,,,,7,,,64,100
12800,note_off,,,,,0,0,15,,,,,7,,,64,100
12800,note_off,,,,,128,0,14,,,,,6,,,48,100
12800,note_off,,,,,128,0,13,,,,,5,,,60,100
12800,note_off,,,,,128,0,15,,,,,7,,,69,100
12800,note_off,,,,,128,0,16,,,,,7,,,60,100
12864,note_on,,,,,64,0,13,,,,,5,,,60,100
12864,note_on,,,,,64,0,16,,,,,7,,,60,100
12864,note_on,,,,,0,0,15,,,,,7,,,64,100
12864,note_on,,,,,64,0,14,,,,,6,,,48,100
12864,note_on,,,,,64,0,15,,,,,7,,,69,100
12928,note_off,,,,,256,0,12,,,,,4,,,69,100
12992,note_off,,,,,128,0,13,,,,,5,,,60,100
12992,note_off,,,,,0,0,15,,,,,7,,,64,100
12992,note_off,,,,,128,0,15,,,,,7,,,69,100
12992,note_off,,,,,128,0,16,,,,,7,,,60,100
12992,note_off,,,,,128,0,14,,,,,6,,,48,100
13056,note_on,,,,,128,0,12,,,,,4,,,62,100
13056,note_on,,,,,0,0,15,,,,,7,,,65,100
13056,note_on,,,,,64,0,16,,,,,7,,,60,100
13056,note_on,,,,,64,0,15,,,,,7,,,62,100
13056,note_on,,,,,64,0,13,,,,,5,,,60,100
13056,note_on,,,,,64,0,14,,,,,6,,,48,100
13184,note_off,,,,,0,0,15,,,,,7,,,65,100
13184,note_off,,,,,128,0,14,,,,,6,,,48,100
13184,note_off,,,,,128,0,13,,,,,5,,,60,100
13184,note_off,,,,,128,0,15,,,,,7,,,62,100
13184,note_off,,,,,128,0,16,,,,,7,,,60,100
13248,note_on,,,,,64,0,13,,,,,5,,,58,100
13248,note_on,,,,,0,0,15,,,,,7,,,65,100
13248,note_on,,,,,64,0,14,,,,,6,,,46,100
13248,note_on,,,,,64,0,15,,,,,7,,,62,100
13248,note_on,,,,,64,0,16,,,,,7,,,58,100
13312,note_off,,,,,64,0,16,,,,,7,,,58,100
13312,note_off,,,,,256,0,12,,,,,4,,,62,100
13312,note_off,,,,,64,0,13,,,,,5,,,58,100
13312,note_off,,,,,64,0,14,,,,,6,,,46,100
13344,note_on,,,,,32,0,14,,,,,6,,,45,100
13344,note_on,,,,,32,0,16,,,,,7,,,57,100
13344,note_on,,,,,32,0,13,,,,,5,,,57,100
13376,note_off,,,,,0,0,15,,,,,7,,,65,100
13376,note_off,,,,,128,0,15,,,,,7,,,62,100
13408,note_off,,,,,64,0,16,,,,,7,,,57,100
13408,note_off,,,,,64,0,13,,,,,5,,,57,100
13408,note_off,,,,,64,0,14,,,,,6,,,45,100
13440,note_on,,,,,128,0,12,,,,,4,,,67,100
13440,note_on,,,,,0,0,15,,,,,7,,,65,100
13440,note_on,,,,,64,0,15,,,,,7,,,62,100
13440,note_on,,,,,32,0,13,,,,,5,,,58,100
13440,note_on,,,,,32,0,14,,,,,6,,,46,100
13440,note_on,,,,,32,0,16,,,,,7,,,58,100
13568,note_off,,,,,128,0,16,,,,,7,,,58,100
13568,note_off,,,,,128,0,13,,,,,5,,,58,100
13568,note_off,,,,,0,0,15,,,,,7,,,65,100
13568,note_off,,,,,128,0,15,,,,,7,,,62,100
13568,note_off,,,,,128,0,14,,,,,6,,,46,100
13632,note_on,,,,,64,0,13,,,,,5,,,58,100
13632,note_on,,,,,64,0,16,,,,,7,,,58,100
13632,note_on,,,,,0,0,15,,,,,7,,,65,100
13632,note_on,,,,,64,0,15,,,,,7,,,62,100
13632,note_on,,,,,64,0,14,,,,,6,,,46,100
13696,note_off,,,,,256,0,12,,,,,4,,,67,100
13760,note_off,,,,,128,0,16,,,,,7,,,58,100
13760,note_off,,,,,128,0,13,,,,,5,,,58,100
13760,note_off,,,,,0,0,15,,,,,7,,,65,100
13760,note_off,,,,,128,0,15,,,,,7,,,62,100
13760,note_off,,,,,128,0,14,,,,,6,,,46,100
13824,note_on,,,,,128,0,12,,,,,4,,,60,100
13824,note_on,,,,,64,0,13,,,,,5,,,58,100
13824,note_on,,,,,0,0,15,,,,,7,,,62,100
13824,note_on,,,,,64,0,14,,,,,6,,,46,100
13824,note_on,,,,,64,0,16,,,,,7,,,58,100
13824,note_on,,,,,64,0,15,,,,,7,,,65,100
13952,note_off,,,,,128,0,14,,,,,6,,,46,100
13952,note_off,,,,,128,0,13,,,,,5,,,58,100
13952,note_off,,,,,0,0,15,,,,,7,,,62,100
13952,note_off,,,,,128,0,15,,,,,7,,,65,100
13952,note_off,,,,,128,0,16,,,,,7,,,58,100
14016,note_on,,,,,64,0,13,,,,,5,,,52,100
14016,note_on,,,,,0,0,15,,,,,7,,,60,100
14016,note_on,,,,,64,0,15,,,,,7,,,55,100
14016,note_on,,,,,64,0,14,,,,,6,,,40,100
14016,note_on,,,,,64,0,16,,,,,7,,,52,100
14080,note_off,,,,,256,0,12,,,,,4,,,60,100
14144,note_off,,,,,128,0,16,,,,,7,,,52,100
14144,note_off,,,,,0,0,15,,,,,7,,,60,100
14144,note_off,,,,,128,0,15,,,,,7,,,55,100
14144,note_off,,,,,128,0,13,,,,,5,,,52,100
14144,note_off,,,,,128,0,14,,,,,6,,,40,100
14208,note_on,,,,,64,0,13,,,,,5,,,57,100
14208,note_on,,,,,64,0,16,,,,,7,,,57,100
14208,note_on,,,,,64,0,15,,,,,7,,,64,100
14208,note_on,,,,,64,0,14,,,,,6,,,45,100
14208,note_on,,,,,0,0,15,,,,,7,,,60,100
14208,note_on,,,,,128,0,12,,,,,4,,,65,100
14336,note_off,,,,,128,0,15,,,,,7,,,64,100
14336,note_off,,,,,0,0,15,,,,,7,,,60,100
14336,note_off,,,,,128,0,13,,,,,5,,,57,100
14336,note_off,,,,,128,0,14,,,,,6,,,45,100
14336,note_off,,,,,128,0,16,,,,,7,,,57,100
14400,note_on,,,,,64,0,15,,,,,7,,,64,100
14400,note_on,,,,,64,0,16,,,,,7,,,57,100
14400,note_on,,,,,64,0,14,,,,,6,,,45,100
14400,note_on,,,,,0,0,15,,,,,7,,,60,100
14400,note_on,,,,,64,0,13,,,,,5,,,57,100
14464,note_off,,,,,256,0,12,,,,,4,,,65,100
14528,note_off,,,,,128,0,13,,,,,5,,,57,100
14528,note_off,,,,,128,0,16,,,,,7,,,57,100
14528,note_off,,,,,128,0,15,,,,,7,,,64,100
14528,note_off,,,,,0,0,15,,,,,7,,,60,100
14528,note_off,,,,,128,0,14,,,,,6,,,45,100
14592,note_on,,,,,0,0,15,,,,,7,,,62,100
14592,note_on,,,,,64,0,14,,,,,6,,,45,100
14592,note_on,,,,,64,0,16,,,,,7,,,57,100
14592,note_on,,,,,128,0,12,,,,,4,,,59,100
14592,note_on,,,,,64,0,13,,,,,5,,,57,100
14592,note_on,,,,,64,0,15,,,,,7,,,59,100
14720,note_off,,,,,0,0,15,,,,,7,,,62,100
14720,note_off,,,,,128,0,14,,,,,6,,,45,100
14720,note_off,,,,,128,0,15,,,,,7,,,59,100
14720,note_off,,,,,128,0,13,,,,,5,,,57,100
14720,note_off,,,,,128,0,16,,,,,7,,,57,100
14784,note_on,,,,,64,0,15,,,,,7,,,59,100
14784,note_on,,,,,64,0,14,,,,,6,,,43,100
14784,note_on,,,,,64,0,13,,,,,5,,,55,100
14784,note_on,,,,,0,0,15,,,,,7,,,62,100
14784,note_on,,,,,64,0,16,,,,,7,,,55,100
14848,note_off,,,,,64,0,13,,,,,5,,,55,100
14848,note_off,,,,,64,0,14,,,,,6,,,43,100
14848,note_off,,,,,256,0,12,,,,,4,,,59,100
14848,note_off,,,,,64,0,16,,,,,7,,,55,100
14880,note_on,,,,,32,0,14,,,,,6,,,41,100
14880,note_on,,,,,32,0,13,,,,,5,,,53,100
14880,note_on,,,,,32,0,16,,,,,7,,,53,100
14912,note_off,,,,,0,0,15,,,,,7,,,62,100
14912,note_off,,,,,128,0,15,,,,,7,,,59,100
14944,note_off,,,,,64,0,16,,,,,7,,,53,100
14944,note_off,,,,,64,0,13,,,,,5,,,53,100
14944,note_off,,,,,64,0,14,,,,,6,,,41,100
14976,note_on,,,,,128,0,12,,,,,4,,,64,100
14976,note_on,,,,,64,0,15,,,,,7,,,59,100
14976,note_on,,,,,0,0,15,,,,,7,,,62,100
14976,note_on,,,,,32,0,16,,,,,7,,,55,100
14976,note_on,,,,,32,0,14,,,,,6,,,43,100
14976,note_on,,,,,32,0,13,,,,,5,,,55,100
15104,note_off,,,,,0,0,15,,,,,7,,,62,100
15104,note_off,,,,,128,0,14,,,,,6,,,43,100
15104,note_off,,,,,128,0,15,,,,,7,,,59,100
15104,note_off,,,,,128,0,16,,,,,7,,,55,100
15104,note_off,,,,,128,0,13,,,,,5,,,55,100
15168,note_on,,,,,64,0,16,,,,,7,,,55,100
15168,note_on,,,,,64,0,15,,,,,7,,,59,100
15168,note_on,,,,,64,0,13,,,,,5,,,55,100
15168,note_on,,,,,0,0,15,,,,,7,,,62,100
15168,note_on,,,,,64,0,14,,,,,6,,,43,100
15232,note_off,,,,,256,0,12,,,,,4,,,64,100
15296,note_off,,,,,128,0,15,,,,,7,,,59,100
15296,note_off,,,,,128,0,13,,,,,5,,,55,100
15296,note_off,,,,,128,0,14,,,,,6,,,43,100
15296,note_off,,,,,0,0,15,,,,,7,,,62,100
15296,note_off,,,,,128,0,16,,,,,7,,,55,100
15360,note_on,,,,,128,0,12,,,,,4,,,57,100
15360,note_on,,,,,64,0,16,,,,,7,,,55,100
15360,note_on,,,,,0,0,15,,,,,7,,,60,100
15360,note_on,,,,,64,0,15,,,,,7,,,57,100
15360,note_on,,,,,64,0,14,,,,,6,,,43,100
15360,note_on,,,,,64,0,13,,,,,5,,,55,100
15488,note_off,,,,,128,0,16,,,,,7,,,55,100
15488,note_off,,,,,128,0,13,,,,,5,,,55,100
15488,note_off,,,,,0,0,15,,,,,7,,,60,100
15488,note_off,,,,,128,0,14,,,,,6,,,43,100
15488,note_off,,,,,128,0,15,,,,,7,,,57,100
15552,note_on,,,,,64,0,13,,,,,5,,,48,100
15552,note_on,,,,,64,0,15,,,,,7,,,60,100
15552,note_on,,,,,0,0,15,,,,,7,,,55,100
15552,note_on,,,,,64,0,16,,,,,7,,,48,100
15552,note_on,,,,,64,0,14,,,,,6,,,36,100
15616,note_off,,,,,256,0,12,,,,,4,,,57,100
15680,note_off,,,,,128,0,13,,,,,5,,,48,100
15680,note_off,,,,,128,0,14,,,,,6,,,36,100
15680,note_off,,,,,128,0,16,,,,,7,,,48,100
15680,note_off,,,,,128,0,15,,,,,7,,,60,100
15680,note_off,,,,,0,0,15,,,,,7,,,55,100
15744,note_on,,,,,64,0,15,,,,,7,,,57,100
15744,note_on,,,,,64,0,13,,,,,5,,,53,100
15744,note_on,,,,,128,0,12,,,,,4,,,62,100
15744,note_on,,,,,0,0,15,,,,,7,,,62,100
15744,note_on,,,,,64,0,16,,,,,7,,,53,100
15744,note_on,,,,,64,0,14,,,,,6,,,41,100
15872,note_off,,,,,0,0,15,,,,,7,,,62,100
15872,note_off,,,,,128,0,15,,,,,7,,,57,100
15872,note_off,,,,,128,0,16,,,,,7,,,53,100
15872,note_off,,,,,128,0,13,,,,,5,,,53,100
15872,note_off,,,,,128,0,14,,,,,6,,,41,100
15936,note_on,,,,,64,0,16,,,,,7,,,53,100
15936,note_on,,,,,0,0,15,,,,,7,,,62,100
15936,note_on,,,,,64,0,13,,,,,5,,,53,100
15936,note_on,,,,,64,0,15,,,,,7,,,57,100
15936,note_on,,,,,64,0,14,,,,,6,,,41,100
16064,note_off,,,,,128,0,15,,,,,7,,,57,100
16064,note_off,,,,,0,0,15,,,,,7,,,62,100
16064,note_off,,,,,128,0,13,,,,,5,,,53,100
16064,note_off,,,,,128,0,16,,,,,7,,,53,100
16064,note_off,,,,,128,0,14,,,,,6,,,41,100
16128,note_on,,,,,64,0,13,,,,,5,,,52,100
16128,note_off,,,,,384,0,12,,,,,4,,,62,100
16128,note_on,,,,,64,0,16,,,,,7,,,52,100
16128,note_on,,,,,0,0,15,,,,,7,,,62,100
16128,note_on,,,,,64,0,15,,,,,7,,,59,100
16128,note_on,,,,,64,0,14,,,,,6,,,40,100
16256,note_off,,,,,128,0,15,,,,,7,,,59,100
16256,note_off,,,,,0,0,15,,,,,7,,,62,100
16256,note_off,,,,,128,0,13,,,,,5,,,52,100
16256,note_off,,,,,128,0,16,,,,,7,,,52,100
16256,note_off,,,,,128,0,14,,,,,6,,,40,100
16320,note_on,,,,,192,0,12,,,,,4,,,60,100
16320,note_on,,,,,64,0,15,,,,,7,,,60,100
16320,note_on,,,,,64,0,16,,,,,7,,,57,100
16320,note_on,,,,,64,0,14,,,,,6,,,45,100
16320,note_on,,,,,0,0,15,,,,,7,,,64,100
16320,note_on,,,,,64,0,13,,,,,5,,,57,100
16448,note_off,,,,,128,0,12,,,,,4,,,60,100
16448,note_off,,,,,128,0,15,,,,,7,,,60,100
16448,note_off,,,,,0,0,15,,,,,7,,,64,100
16512,note_on,,,,,64,0,12,,,,,4,,,58,100
16512,note_on,,,,,64,0,15,,,,,7,,,58,100
16512,note_on,,,,,0,0,15,,,,,7,,,62,100
16576,note_off,,,,,256,0,13,,,,,5,,,57,100
16576,note_off,,,,,256,0,14,,,,,6,,,45,100
16576,note_off,,,,,256,0,16,,,,,7,,,57,100
16640,note_off,,,,,128,0,15,,,,,7,,,58,100
16640,note_off,,,,,0,0,15,,,,,7,,,62,100
16704,note_on,,,,,128,0,14,,,,,6,,,43,100
16704,note_on,,,,,128,0,13,,,,,5,,,55,100
16704,note_on,,,,,128,0,16,,,,,7,,,55,100
16704,note_on,,,,,0,0,15,,,,,7,,,62,100
16704,note_on,,,,,64,0,15,,,,,7,,,58,100
16768,note_off,,,,,256,0,12,,,,,4,,,58,100
16832,note_off,,,,,0,0,15,,,,,7,,,62,100
16832,note_off,,,,,128,0,16,,,,,7,,,55,100
16832,note_off,,,,,128,0,13,,,,,5,,,55,100
16832,note_off,,,,,128,0,14,,,,,6,,,43,100
16832,note_off,,,,,128,0,15,,,,,7,,,58,100
16896,note_on,,,,,128,0,12,,,,,4,,,57,100
16896,note_on,,,,,64,0,13,,,,,5,,,53,100
16896,note_on,,,,,64,0,15,,,,,7,,,62,100
16896,note_on,,,,,64,0,16,,,,,7,,,53,100
16896,note_on,,,,,0,0,15,,,,,7,,,57,100
16896,note_on,,,,,64,0,14,,,,,6,,,41,100
17088,note_on,,,,,12736,0,11,,,,,3,,,62,100
17152,note_off,,,,,64,0,11,,,,,3,,,62,100
17152,note_off,,,,,256,0,13,,,,,5,,,53,100
17152,note_off,,,,,256,0,14,,,,,6,,,41,100
17152,note_off,,,,,0,0,15,,,,,7,,,57,100
17152,note_off,,,,,256,0,15,,,,,7,,,62,100
17152,note_off,,,,,256,0,12,,,,,4,,,57,100
17152,note_off,,,,,256,0,16,,,,,7,,,53,100
17184,note_on,,,,,32,0,11,,,,,3,,,64,100
17248,note_off,,,,,64,0,11,,,,,3,,,64,100
17280,note_on,,,,,128,0,12,,,,,4,,,62,100
17280,note_on,,,,,32,0,11,,,,,3,,,65,100
17408,note_off,,,,,128,0,11,,,,,3,,,65,100
17472,note_on,,,,,320,0,16,,,,,7,,,50,100
17472,note_on,,,,,0,0,15,,,,,7,,,69,100
17472,note_on,,,,,320,0,15,,,,,7,,,65,100
17472,note_on,,,,,320,0,14,,,,,6,,,38,100
17472,note_on,,,,,64,0,11,,,,,3,,,65,100
17472,note_on,,,,,320,0,13,,,,,5,,,50,100
17600,note_off,,,,,128,0,13,,,,,5,,,50,100
17600,note_off,,,,,0,0,15,,,,,7,,,69,100
17600,note_off,,,,,128,0,11,,,,,3,,,65,100
17600,note_off,,,,,128,0,16,,,,,7,,,50,100
17600,note_off,,,,,128,0,15,,,,,7,,,65,100
17600,note_off,,,,,128,0,14,,,,,6,,,38,100
17664,note_on,,,,,64,0,16,,,,,7,,,55,100
17664,note_on,,,,,64,0,14,,,,,6,,,43,100
17664,note_on,,,,,64,0,11,,,,,3,,,64,100
17664,note_on,,,,,64,0,13,,,,,5,,,55,100
17664,note_on,,,,,64,0,15,,,,,7,,,64,100
17664,note_on,,,,,0,0,15,,,,,7,,,62,100
17792,note_off,,,,,128,0,16,,,,,7,,,55,100
17792,note_off,,,,,0,0,15,,,,,7,,,62,100
17792,note_off,,,,,512,0,12,,,,,4,,,62,100
17792,note_off,,,,,128,0,14,,,,,6,,,43,100
17792,note_off,,,,,128,0,13,,,,,5,,,55,100
17792,note_off,,,,,128,0,11,,,,,3,,,64,100
17792,note_off,,,,,128,0,15,,,,,7,,,64,100
17856,note_on,,,,,0,0,15,,,,,7,,,67,100
17856,note_on,,,,,64,0,14,,,,,6,,,40,100
17856,note_on,,,,,64,0,11,,,,,3,,,64,100
17856,note_on,,,,,64,0,16,,,,,7,,,52,100
17856,note_on,,,,,64,0,13,,,,,5,,,52,100
17856,note_on,,,,,64,0,15,,,,,7,,,58,100
17920,note_off,,,,,64,0,11,,,,,3,,,64,100
17952,note_on,,,,,32,0,11,,,,,3,,,65,100
17984,note_off,,,,,128,0,15,,,,,7,,,58,100
17984,note_off,,,,,0,0,15,,,,,7,,,67,100
17984,note_off,,,,,128,0,16,,,,,7,,,52,100
17984,note_off,,,,,128,0,13,,,,,5,,,52,100
17984,note_off,,,,,128,0,14,,,,,6,,,40,100
18016,note_off,,,,,64,0,11,,,,,3,,,65,100
18048,note_on,,,,,32,0,11,,,,,3,,,67,100
18048,note_on,,,,,64,0,16,,,,,7,,,57,100
18048,note_on,,,,,256,0,12,,,,,4,,,61,100
18048,note_on,,,,,64,0,13,,,,,5,,,57,100
18048,note_on,,,,,64,0,14,,,,,6,,,45,100
18048,note_on,,,,,0,0,15,,,,,7,,,67,100
18048,note_on,,,,,64,0,15,,,,,7,,,61,100
18176,note_off,,,,,128,0,14,,,,,6,,,45,100
18176,note_off,,,,,128,0,16,,,,,7,,,57,100
18176,note_off,,,,,128,0,13,,,,,5,,,57,100
18176,note_off,,,,,128,0,15,,,,,7,,,61,100
18176,note_off,,,,,0,0,15,,,,,7,,,67,100
18176,note_off,,,,,128,0,11,,,,,3,,,67,100
18240,note_on,,,,,64,0,13,,,,,5,,,45,100
18240,note_on,,,,,64,0,11,,,,,3,,,64,100
18240,note_on,,,,,0,0,15,,,,,7,,,61,100
18240,note_on,,,,,64,0,15,,,,,7,,,64,100
18240,note_on,,,,,64,0,14,,,,,6,,,33,100
18240,note_on,,,,,64,0,16,,,,,7,,,45,100
18304,note_off,,,,,256,0,12,,,,,4,,,61,100
18368,note_off,,,,,128,0,13,,,,,5,,,45,100
18368,note_off,,,,,128,0,11,,,,,3,,,64,100
18368,note_off,,,,,0,0,15,,,,,7,,,61,100
18368,note_off,,,,,128,0,15,,,,,7,,,64,100
18368,note_off,,,,,128,0,14,,,,,6,,,33,100
18368,note_off,,,,,128,0,16,,,,,7,,,45,100
18432,note_on,,,,,64,0,15,,,,,7,,,65,100
18432,note_on,,,,,0,0,15,,,,,7,,,62,100
18432,note_on,,,,,64,0,16,,,,,7,,,50,100
18432,note_on,,,,,64,0,14,,,,,6,,,38,100
18432,note_on,,,,,64,0,11,,,,,3,,,65,100
18432,note_on,,,,,128,0,12,,,,,4,,,62,100
18432,note_on,,,,,64,0,13,,,,,5,,,50,100
18560,note_off,,,,,128,0,11,,,,,3,,,65,100
18560,note_off,,,,,128,0,16,,,,,7,,,50,100
18560,note_off,,,,,128,0,13,,,,,5,,,50,100
18560,note_off,,,,,128,0,14,,,,,6,,,38,100
18560,note_off,,,,,0,0,15,,,,,7,,,62,100
18560,note_off,,,,,128,0,15,,,,,7,,,65,100
18624,note_on,,,,,64,0,14,,,,,6,,,45,100
18624,note_on,,,,,64,0,16,,,,,7,,,57,100
18624,note_on,,,,,64,0,11,,,,,3,,,62,100
18624,note_on,,,,,64,0,15,,,,,7,,,62,100
18624,note_on,,,,,64,0,13,,,,,5,,,57,100
18688,note_off,,,,,64,0,13,,,,,5,,,57,100
18688,note_off,,,,,64,0,14,,,,,6,,,45,100
18688,note_off,,,,,64,0,16,,,,,7,,,57,100
18688,note_off,,,,,256,0,12,,,,,4,,,62,100
18720,note_on,,,,,32,0,13,,,,,5,,,55,100
18720,note_on,,,,,32,0,16,,,,,7,,,55,100
18720,note_on,,,,,32,0,14,,,,,6,,,43,100
18752,note_off,,,,,128,0,15,,,,,7,,,62,100
18752,note_off,,,,,128,0,11,,,,,3,,,62,100
18784,note_off,,,,,64,0,16,,,,,7,,,55,100
18784,note_off,,,,,64,0,14,,,,,6,,,43,100
18784,note_off,,,,,64,0,13,,,,,5,,,55,100
18816,note_on,,,,,64,0,15,,,,,7,,,65,100
18816,note_on,,,,,32,0,13,,,,,5,,,53,100
18816,note_on,,,,,32,0,14,,,,,6,,,41,100
18816,note_on,,,,,32,0,16,,,,,7,,,53,100
18816,note_on,,,,,64,0,11,,,,,3,,,74,100
18816,note_on,,,,,128,0,12,,,,,4,,,65,100
18880,note_off,,,,,64,0,13,,,,,5,,,53,100
18880,note_off,,,,,64,0,14,,,,,6,,,41,100
18880,note_off,,,,,64,0,16,,,,,7,,,53,100
18912,note_on,,,,,32,0,16,,,,,7,,,52,100
18912,note_on,,,,,32,0,13,,,,,5,,,52,100
18912,note_on,,,,,32,0,14,,,,,6,,,40,100
18944,note_off,,,,,128,0,12,,,,,4,,,65,100
18944,note_off,,,,,128,0,15,,,,,7,,,65,100
18976,note_off,,,,,64,0,13,,,,,5,,,52,100
18976,note_off,,,,,64,0,14,,,,,6,,,40,100
18976,note_off,,,,,64,0,16,,,,,7,,,52,100
19008,note_on,,,,,32,0,14,,,,,6,,,38,100
19008,note_on,,,,,32,0,16,,,,,7,,,50,100
19008,note_on,,,,,32,0,13,,,,,5,,,50,100
19008,note_on,,,,,64,0,12,,,,,4,,,65,100
19008,note_on,,,,,64,0,15,,,,,7,,,65,100
19072,note_off,,,,,64,0,14,,,,,6,,,38,100
19072,note_off,,,,,256,0,11,,,,,3,,,74,100
19072,note_off,,,,,64,0,16,,,,,7,,,50,100
19072,note_off,,,,,64,0,13,,,,,5,,,50,100
19104,note_on,,,,,32,0,14,,,,,6,,,36,100
19104,note_on,,,,,32,0,16,,,,,7,,,48,100
19104,note_on,,,,,32,0,13,,,,,5,,,48,100
19136,note_off,,,,,128,0,12,,,,,4,,,65,100
19136,note_off,,,,,128,0,15,,,,,7,,,65,100
19168,note_off,,,,,64,0,16,,,,,7,,,48,100
19168,note_off,,,,,64,0,13,,,,,5,,,48,100
19168,note_off,,,,,64,0,14,,,,,6,,,36,100
19200,note_on,,,,,32,0,13,,,,,5,,,46,100
19200,note_on,,,,,32,0,14,,,,,6,,,34,100
19200,note_on,,,,,32,0,16,,,,,7,,,46,100
19200,note_on,,,,,64,0,15,,,,,7,,,67,100
19200,note_on,,,,,0,0,15,,,,,7,,,65,100
19200,note_on,,,,,64,0,12,,,,,4,,,65,100
19200,note_on,,,,,128,0,11,,,,,3,,,67,100
19328,note_off,,,,,128,0,13,,,,,5,,,46,100
19328,note_off,,,,,128,0,16,,,,,7,,,46,100
19328,note_off,,,,,128,0,14,,,,,6,,,34,100
19328,note_off,,,,,128,0,15,,,,,7,,,67,100
19328,note_off,,,,,0,0,15,,,,,7,,,65,100
19328,note_off,,,,,128,0,12,,,,,4,,,65,100
19392,note_on,,,,,64,0,14,,,,,6,,,43,100
19392,note_on,,,,,64,0,16,,,,,7,,,55,100
19392,note_on,,,,,64,0,13,,,,,5,,,55,100
19392,note_on,,,,,64,0,15,,,,,7,,,64,100
19392,note_on,,,,,64,0,12,,,,,4,,,64,100
19456,note_off,,,,,64,0,15,,,,,7,,,64,100
19456,note_off,,,,,64,0,12,,,,,4,,,64,100
19456,note_off,,,,,64,0,13,,,,,5,,,55,100
19456,note_off,,,,,64,0,14,,,,,6,,,43,100
19456,note_off,,,,,64,0,16,,,,,7,,,55,100
19456,note_off,,,,,256,0,11,,,,,3,,,67,100
19488,note_on,,,,,32,0,12,,,,,4,,,62,100
19488,note_on,,,,,32,0,16,,,,,7,,,53,100
19488,note_on,,,,,32,0,14,,,,,6,,,41,100
19488,note_on,,,,,32,0,13,,,,,5,,,53,100
19488,note_on,,,,,32,0,15,,,,,7,,,62,100
19552,note_off,,,,,64,0,12,,,,,4,,,62,100
19552,note_off,,,,,64,0,14,,,,,6,,,41,100
19552,note_off,,,,,64,0,13,,,,,5,,,53,100
19552,note_off,,,,,64,0,15,,,,,7,,,62,100
19552,note_off,,,,,64,0,16,,,,,7,,,53,100
19584,note_on,,,,,128,0,11,,,,,3,,,72,100
19584,note_on,,,,,32,0,12,,,,,4,,,64,100
19584,note_on,,,,,32,0,16,,,,,7,,,52,100
19584,note_on,,,,,32,0,13,,,,,5,,,52,100
19584,note_on,,,,,32,0,15,,,,,7,,,64,100
19584,note_on,,,,,32,0,14,,,,,6,,,40,100
19648,note_off,,,,,64,0,14,,,,,6,,,40,100
19648,note_off,,,,,64,0,13,,,,,5,,,52,100
19648,note_off,,,,,64,0,16,,,,,7,,,52,100
19680,note_on,,,,,32,0,14,,,,,6,,,38,100
19680,note_on,,,,,32,0,13,,,,,5,,,50,100
19680,note_on,,,,,32,0,16,,,,,7,,,50,100
19712,note_off,,,,,128,0,12,,,,,4,,,64,100
19712,note_off,,,,,128,0,15,,,,,7,,,64,100
19744,note_off,,,,,64,0,16,,,,,7,,,50,100
19744,note_off,,,,,64,0,14,,,,,6,,,38,100
19744,note_off,,,,,64,0,13,,,,,5,,,50,100
19776,note_on,,,,,64,0,15,,,,,7,,,64,100
19776,note_on,,,,,32,0,14,,,,,6,,,36,100
19776,note_on,,,,,64,0,12,,,,,4,,,64,100
19776,note_on,,,,,32,0,16,,,,,7,,,48,100
19776,note_on,,,,,32,0,13,,,,,5,,,48,100
19840,note_off,,,,,256,0,11,,,,,3,,,72,100
19840,note_off,,,,,64,0,16,,,,,7,,,48,100
19840,note_off,,,,,64,0,13,,,,,5,,,48,100
19840,note_off,,,,,64,0,14,,,,,6,,,36,100
19872,note_on,,,,,32,0,13,,,,,5,,,46,100
19872,note_on,,,,,32,0,16,,,,,7,,,46,100
19872,note_on,,,,,32,0,14,,,,,6,,,34,100
19904,note_off,,,,,128,0,15,,,,,7,,,64,100
19904,note_off,,,,,128,0,12,,,,,4,,,64,100
19936,note_off,,,,,64,0,14,,,,,6,,,34,100
19936,note_off,,,,,64,0,13,,,,,5,,,46,100
19936,note_off,,,,,64,0,16,,,,,7,,,46,100
19968,note_on,,,,,32,0,16,,,,,7,,,45,100
19968,note_on,,,,,32,0,13,,,,,5,,,45,100
19968,note_on,,,,,64,0,12,,,,,4,,,64,100
19968,note_on,,,,,32,0,14,,,,,6,,,33,100
19968,note_on,,,,,128,0,11,,,,,3,,,65,100
19968,note_on,,,,,64,0,15,,,,,7,,,65,100
19968,note_on,,,,,0,0,15,,,,,7,,,64,100
20096,note_off,,,,,128,0,15,,,,,7,,,65,100
20096,note_off,,,,,0,0,15,,,,,7,,,64,100
20096,note_off,,,,,128,0,14,,,,,6,,,33,100
20096,note_off,,,,,128,0,16,,,,,7,,,45,100
20096,note_off,,,,,128,0,13,,,,,5,,,45,100
20096,note_off,,,,,128,0,12,,,,,4,,,64,100
20160,note_on,,,,,64,0,12,,,,,4,,,57,100
20160,note_on,,,,,64,0,15,,,,,7,,,57,100
20160,note_on,,,,,64,0,14,,,,,6,,,41,100
20160,note_on,,,,,64,0,13,,,,,5,,,53,100
20160,note_on,,,,,64,0,16,,,,,7,,,53,100
20224,note_off,,,,,256,0,11,,,,,3,,,65,100
20224,note_off,,,,,64,0,13,,,,,5,,,53,100
20224,note_off,,,,,64,0,16,,,,,7,,,53,100
20224,note_off,,,,,64,0,14,,,,,6,,,41,100
20256,note_on,,,,,32,0,16,,,,,7,,,52,100
20256,note_on,,,,,32,0,14,,,,,6,,,40,100
20256,note_on,,,,,32,0,13,,,,,5,,,52,100
20288,note_off,,,,,128,0,15,,,,,7,,,57,100
20288,note_off,,,,,128,0,12,,,,,4,,,57,100
20320,note_off,,,,,64,0,14,,,,,6,,,40,100
20320,note_off,,,,,64,0,16,,,,,7,,,52,100
20320,note_off,,,,,64,0,13,,,,,5,,,52,100
20352,note_on,,,,,32,0,16,,,,,7,,,50,100
20352,note_on,,,,,32,0,13,,,,,5,,,50,100
20352,note_on,,,,,64,0,15,,,,,7,,,62,100
20352,note_on,,,,,64,0,12,,,,,4,,,62,100
20352,note_on,,,,,128,0,11,,,,,3,,,70,100
20352,note_on,,,,,32,0,14,,,,,6,,,38,100
20416,note_off,,,,,64,0,13,,,,,5,,,50,100
20416,note_off,,,,,64,0,16,,,,,7,,,50,100
20416,note_off,,,,,64,0,14,,,,,6,,,38,100
20448,note_on,,,,,32,0,14,,,,,6,,,36,100
20448,note_on,,,,,32,0,13,,,,,5,,,48,100
20448,note_on,,,,,32,0,16,,,,,7,,,48,100
20480,note_off,,,,,128,0,15,,,,,7,,,62,100
20480,note_off,,,,,128,0,12,,,,,4,,,62,100
20512,note_off,,,,,64,0,16,,,,,7,,,48,100
20512,note_off,,,,,64,0,13,,,,,5,,,48,100
20512,note_off,,,,,64,0,14,,,,,6,,,36,100
20544,note_on,,,,,64,0,15,,,,,7,,,62,100
20544,note_on,,,,,64,0,12,,,,,4,,,62,100
20544,note_on,,,,,32,0,14,,,,,6,,,34,100
20544,note_on,,,,,32,0,13,,,,,5,,,46,100
20544,note_on,,,,,32,0,16,,,,,7,,,46,100
20608,note_off,,,,,256,0,11,,,,,3,,,70,100
20608,note_off,,,,,64,0,13,,,,,5,,,46,100
20608,note_off,,,,,64,0,14,,,,,6,,,34,100
20608,note_off,,,,,64,0,16,,,,,7,,,46,100
20640,note_on,,,,,32,0,16,,,,,7,,,45,100
20640,note_on,,,,,32,0,14,,,,,6,,,33,100
20640,note_on,,,,,32,0,13,,,,,5,,,45,100
20672,note_off,,,,,128,0,15,,,,,7,,,62,100
20672,note_off,,,,,128,0,12,,,,,4,,,62,100
20704,note_off,,,,,64,0,14,,,,,6,,,33,100
20704,note_off,,,,,64,0,16,,,,,7,,,45,100
20704,note_off,,,,,64,0,13,,,,,5,,,45,100
20736,note_on,,,,,32,0,13,,,,,5,,,43,100
20736,note_on,,,,,64,0,15,,,,,7,,,64,100
20736,note_on,,,,,0,0,15,,,,,7,,,62,100
20736,note_on,,,,,32,0,16,,,,,7,,,43,100
20736,note_on,,,,,128,0,11,,,,,3,,,64,100
20736,note_on,,,,,32,0,14,,,,,6,,,31,100
20736,note_on,,,,,64,0,12,,,,,4,,,62,100
20864,note_off,,,,,128,0,13,,,,,5,,,43,100
20864,note_off,,,,,128,0,15,,,,,7,,,64,100
20864,note_off,,,,,0,0,15,,,,,7,,,62,100
20864,note_off,,,,,128,0,12,,,,,4,,,62,100
20864,note_off,,,,,128,0,16,,,,,7,,,43,100
20864,note_off,,,,,128,0,14,,,,,6,,,31,100
20928,note_on,,,,,64,0,13,,,,,5,,,52,100
20928,note_on,,,,,64,0,14,,,,,6,,,40,100
20928,note_on,,,,,64,0,16,,,,,7,,,52,100
20928,note_on,,,,,64,0,12,,,,,4,,,60,100
20928,note_on,,,,,64,0,15,,,,,7,,,60,100
20992,note_off,,,,,64,0,13,,,,,5,,,52,100
20992,note_off,,,,,64,0,14,,,,,6,,,40,100
20992,note_off,,,,,256,0,11,,,,,3,,,64,100
20992,note_off,,,,,64,0,16,,,,,7,,,52,100
20992,note_off,,,,,64,0,12,,,,,4,,,60,100
20992,note_off,,,,,64,0,15,,,,,7,,,60,100
21024,note_on,,,,,32,0,14,,,,,6,,,38,100
21024,note_on,,,,,32,0,16,,,,,7,,,50,100
21024,note_on,,,,,32,0,12,,,,,4,,,58,100
21024,note_on,,,,,32,0,13,,,,,5,,,50,100
21024,note_on,,,,,32,0,15,,,,,7,,,58,100
21088,note_off,,,,,64,0,15,,,,,7,,,58,100
21088,note_off,,,,,64,0,12,,,,,4,,,58,100
21088,note_off,,,,,64,0,16,,,,,7,,,50,100
21088,note_off,,,,,64,0,14,,,,,6,,,38,100
21088,note_off,,,,,64,0,13,,,,,5,,,50,100
21120,note_on,,,,,32,0,12,,,,,4,,,60,100
21120,note_on,,,,,32,0,16,,,,,7,,,48,100
21120,note_on,,,,,32,0,15,,,,,7,,,60,100
21120,note_on,,,,,128,0,11,,,,,3,,,69,100
21120,note_on,,,,,32,0,14,,,,,6,,,36,100
21120,note_on,,,,,32,0,13,,,,,5,,,48,100
21184,note_off,,,,,64,0,14,,,,,6,,,36,100
21184,note_off,,,,,64,0,16,,,,,7,,,48,100
21184,note_off,,,,,64,0,13,,,,,5,,,48,100
21216,note_on,,,,,32,0,16,,,,,7,,,46,100
21216,note_on,,,,,32,0,13,,,,,5,,,46,100
21216,note_on,,,,,32,0,14,,,,,6,,,34,100
21248,note_off,,,,,128,0,15,,,,,7,,,60,100
21248,note_off,,,,,128,0,12,,,,,4,,,60,100
21280,note_off,,,,,64,0,13,,,,,5,,,46,100
21280,note_off,,,,,64,0,16,,,,,7,,,46,100
21280,note_off,,,,,64,0,14,,,,,6,,,34,100
21312,note_on,,,,,32,0,14,,,,,6,,,33,100
21312,note_on,,,,,64,0,12,,,,,4,,,60,100
21312,note_on,,,,,32,0,13,,,,,5,,,45,100
21312,note_on,,,,,64,0,15,,,,,7,,,60,100
21312,note_on,,,,,32,0,16,,,,,7,,,45,100
21376,note_off,,,,,64,0,13,,,,,5,,,45,100
21376,note_off,,,,,64,0,16,,,,,7,,,45,100
21376,note_off,,,,,64,0,14,,,,,6,,,33,100
21376,note_off,,,,,256,0,11,,,,,3,,,69,100
21408,note_on,,,,,32,0,14,,,,,6,,,31,100
21408,note_on,,,,,32,0,16,,,,,7,,,43,100
21408,note_on,,,,,32,0,13,,,,,5,,,43,100
21440,note_off,,,,,128,0,12,,,,,4,,,60,100
21440,note_off,,,,,128,0,15,,,,,7,,,60,100
21472,note_off,,,,,64,0,13,,,,,5,,,43,100
21472,note_off,,,,,64,0,16,,,,,7,,,43,100
21472,note_off,,,,,64,0,14,,,,,6,,,31,100
21504,note_on,,,,,32,0,13,,,,,5,,,41,100
21504,note_on,,,,,32,0,14,,,,,6,,,41,100
21504,note_on,,,,,64,0,15,,,,,7,,,60,100
21504,note_on,,,,,32,0,16,,,,,7,,,41,100
21504,note_on,,,,,128,0,11,,,,,3,,,62,100
21504,note_on,,,,,64,0,12,,,,,4,,,60,100
21504,note_on,,,,,0,0,15,,,,,7,,,62,100
21632,note_off,,,,,128,0,14,,,,,6,,,41,100
21632,note_off,,,,,0,0,15,,,,,7,,,62,100
21632,note_off,,,,,128,0,13,,,,,5,,,41,100
21632,note_off,,,,,128,0,15,,,,,7,,,60,100
21632,note_off,,,,,128,0,16,,,,,7,,,41,100
21632,note_off,,,,,128,0,12,,,,,4,,,60,100
21696,note_on,,,,,64,0,14,,,,,6,,,41,100
21696,note_on,,,,,0,0,15,,,,,7,,,62,100
21696,note_on,,,,,64,0,15,,,,,7,,,69,100
21696,note_on,,,,,64,0,13,,,,,5,,,53,100
21696,note_on,,,,,64,0,16,,,,,7,,,53,100
21696,note_on,,,,,64,0,12,,,,,4,,,53,100
21760,note_off,,,,,256,0,11,,,,,3,,,62,100
21824,note_off,,,,,0,0,15,,,,,7,,,62,100
21824,note_off,,,,,128,0,14,,,,,6,,,41,100
21824,note_off,,,,,128,0,15,,,,,7,,,69,100
21824,note_off,,,,,128,0,13,,,,,5,,,53,100
21824,note_off,,,,,128,0,16,,,,,7,,,53,100
21824,note_off,,,,,128,0,12,,,,,4,,,53,100
21888,note_on,,,,,64,0,15,,,,,7,,,62,100
21888,note_on,,,,,128,0,11,,,,,3,,,67,100
21888,note_on,,,,,64,0,16,,,,,7,,,55,100
21888,note_on,,,,,64,0,13,,,,,5,,,55,100
21888,note_on,,,,,64,0,12,,,,,4,,,58,100
21888,note_on,,,,,0,0,15,,,,,7,,,70,100
21888,note_on,,,,,64,0,14,,,,,6,,,43,100
22016,note_off,,,,,128,0,12,,,,,4,,,58,100
22016,note_off,,,,,128,0,16,,,,,7,,,55,100
22016,note_off,,,,,0,0,15,,,,,7,,,70,100
22016,note_off,,,,,128,0,15,,,,,7,,,62,100
22016,note_off,,,,,128,0,13,,,,,5,,,55,100
22016,note_off,,,,,128,0,14,,,,,6,,,43,100
22080,note_on,,,,,64,0,12,,,,,4,,,58,100
22080,note_on,,,,,64,0,14,,,,,6,,,43,100
22080,note_on,,,,,0,0,15,,,,,7,,,62,100
22080,note_on,,,,,64,0,13,,,,,5,,,55,100
22080,note_on,,,,,64,0,16,,,,,7,,,55,100
22080,note_on,,,,,64,0,15,,,,,7,,,58,100
22208,note_off,,,,,128,0,14,,,,,6,,,43,100
22208,note_off,,,,,128,0,16,,,,,7,,,55,100
22208,note_off,,,,,128,0,12,,,,,4,,,58,100
22208,note_off,,,,,0,0,15,,,,,7,,,62,100
22208,note_off,,,,,128,0,15,,,,,7,,,58,100
22208,note_off,,,,,128,0,13,,,,,5,,,55,100
22272,note_on,,,,,64,0,13,,,,,5,,,49,100
22272,note_on,,,,,64,0,14,,,,,6,,,37,100
22272,note_off,,,,,384,0,11,,,,,3,,,67,100
22272,note_on,,,,,64,0,12,,,,,4,,,57,100
22272,note_on,,,,,64,0,16,,,,,7,,,49,100
22272,note_on,,,,,64,0,15,,,,,7,,,69,100
22272,note_on,,,,,0,0,15,,,,,7,,,67,100
22400,note_off,,,,,128,0,15,,,,,7,,,67,100
22400,note_off,,,,,128,0,12,,,,,4,,,57,100
22400,note_off,,,,,128,0,13,,,,,5,,,49,100
22400,note_off,,,,,128,0,14,,,,,6,,,37,100
22400,note_off,,,,,128,0,16,,,,,7,,,49,100
22464,note_on,,,,,64,0,15,,,,,7,,,65,100
22464,note_on,,,,,64,0,12,,,,,4,,,62,100
22464,note_on,,,,,64,0,16,,,,,7,,,50,100
22464,note_on,,,,,192,0,11,,,,,3,,,65,100
22464,note_on,,,,,64,0,13,,,,,5,,,50,100
22464,note_on,,,,,64,0,14,,,,,6,,,38,100
22528,note_off,,,,,64,0,15,,,,,7,,,69,100
22592,note_off,,,,,128,0,14,,,,,6,,,38,100
22592,note_off,,,,,128,0,13,,,,,5,,,50,100
22592,note_off,,,,,128,0,16,,,,,7,,,50,100
22592,note_off,,,,,128,0,11,,,,,3,,,65,100
22592,note_off,,,,,64,0,15,,,,,7,,,65,100
22656,note_on,,,,,64,0,11,,,,,3,,,64,100
22656,note_on,,,,,64,0,13,,,,,5,,,57,100
22656,note_on,,,,,64,0,14,,,,,6,,,45,100
22656,note_on,,,,,0,0,15,,,,,7,,,62,100
22656,note_on,,,,,64,0,15,,,,,7,,,64,100
22656,note_on,,,,,64,0,16,,,,,7,,,57,100
22720,note_off,,,,,256,0,12,,,,,4,,,62,100
22784,note_off,,,,,128,0,14,,,,,6,,,45,100
22784,note_off,,,,,128,0,13,,,,,5,,,57,100
22784,note_off,,,,,128,0,15,,,,,7,,,62,100
22784,note_off,,,,,128,0,16,,,,,7,,,57,100
22848,note_on,,,,,64,0,13,,,,,5,,,45,100
22848,note_on,,,,,64,0,14,,,,,6,,,33,100
22848,note_on,,,,,64,0,16,,,,,7,,,45,100
22848,note_on,,,,,64,0,15,,,,,7,,,61,100
22848,note_on,,,,,128,0,12,,,,,4,,,61,100
22912,note_off,,,,,64,0,15,,,,,7,,,64,100
22912,note_off,,,,,256,0,11,,,,,3,,,64,100
22976,note_off,,,,,64,0,15,,,,,7,,,61,100
22976,note_off,,,,,128,0,14,,,,,6,,,33,100
22976,note_off,,,,,128,0,12,,,,,4,,,61,100
22976,note_off,,,,,128,0,16,,,,,7,,,45,100
22976,note_off,,,,,128,0,13,,,,,5,,,45,100
23040,note_on,,,,,64,0,15,,,,,7,,,62,100
23040,note_on,,,,,64,0,16,,,,,7,,,50,100
23040,note_on,,,,,64,0,13,,,,,5,,,50,100
23040,note_on,,,,,0,0,15,,,,,7,,,65,100
23040,note_on,,,,,128,0,11,,,,,3,,,62,100
23040,note_on,,,,,64,0,14,,,,,6,,,38,100
23040,note_on,,,,,64,0,12,,,,,4,,,62,100
23232,note_on,,,,,18880,0,10,,,,,2,,,69,100
23296,note_off,,,,,256,0,14,,,,,6,,,38,100
23296,note_off,,,,,256,0,13,,,,,5,,,50,100
23296,note_off,,,,,64,0,10,,,,,2,,,69,100
23296,note_off,,,,,256,0,16,,,,,7,,,50,100
23296,note_off,,,,,0,0,15,,,,,7,,,65,100
23296,note_off,,,,,256,0,12,,,,,4,,,62,100
23296,note_off,,,,,256,0,11,,,,,3,,,62,100
23296,note_off,,,,,256,0,15,,,,,7,,,62,100
23328,note_on,,,,,32,0,10,,,,,2,,,71,100
23392,note_off,,,,,64,0,10,,,,,2,,,71,100
23424,note_on,,,,,128,0,11,,,,,3,,,69,100
23424,note_on,,,,,32,0,10,,,,,2,,,72,100
23424,note_on,,,,,128,0,12,,,,,4,,,64,100
23552,note_off,,,,,128,0,10,,,,,2,,,72,100
23616,note_on,,,,,320,0,15,,,,,7,,,69,100
23616,note_on,,,,,0,0,15,,,,,7,,,64,100
23616,note_on,,,,,320,0,14,,,,,6,,,36,100
23616,note_on,,,,,320,0,16,,,,,7,,,48,100
23616,note_on,,,,,320,0,13,,,,,5,,,48,100
23616,note_on,,,,,64,0,10,,,,,2,,,72,100
23680,note_off,,,,,256,0,12,,,,,4,,,64,100
23744,note_off,,,,,128,0,14,,,,,6,,,36,100
23744,note_off,,,,,128,0,16,,,,,7,,,48,100
23744,note_off,,,,,0,0,15,,,,,7,,,64,100
23744,note_off,,,,,128,0,15,,,,,7,,,69,100
23744,note_off,,,,,128,0,10,,,,,2,,,72,100
23744,note_off,,,,,128,0,13,,,,,5,,,48,100
23808,note_on,,,,,64,0,16,,,,,7,,,50,100
23808,note_on,,,,,64,0,13,,,,,5,,,50,100
23808,note_on,,,,,0,0,15,,,,,7,,,71,100
23808,note_on,,,,,128,0,12,,,,,4,,,65,100
23808,note_on,,,,,64,0,15,,,,,7,,,69,100
23808,note_on,,,,,64,0,14,,,,,6,,,38,100
23808,note_on,,,,,64,0,10,,,,,2,,,71,100
23936,note_off,,,,,0,0,15,,,,,7,,,71,100
23936,note_off,,,,,128,0,13,,,,,5,,,50,100
23936,note_off,,,,,128,0,16,,,,,7,,,50,100
23936,note_off,,,,,128,0,15,,,,,7,,,69,100
23936,note_off,,,,,128,0,10,,,,,2,,,71,100
23936,note_off,,,,,512,0,11,,,,,3,,,69,100
23936,note_off,,,,,128,0,14,,,,,6,,,38,100
24000,note_on,,,,,64,0,14,,,,,6,,,35,100
24000,note_on,,,,,0,0,15,,,,,7,,,65,100
24000,note_on,,,,,64,0,16,,,,,7,,,47,100
24000,note_on,,,,,64,0,15,,,,,7,,,62,100
24000,note_on,,,,,64,0,13,,,,,5,,,47,100
24000,note_on,,,,,64,0,10,,,,,2,,,71,100
24064,note_off,,,,,64,0,10,,,,,2,,,71,100
24064,note_off,,,,,256,0,12,,,,,4,,,65,100
24096,note_on,,,,,32,0,10,,,,,2,,,72,100
24128,note_off,,,,,0,0,15,,,,,7,,,65,100
24128,note_off,,,,,128,0,14,,,,,6,,,35,100
24128,note_off,,,,,128,0,13,,,,,5,,,47,100
24128,note_off,,,,,128,0,16,,,,,7,,,47,100
24128,note_off,,,,,128,0,15,,,,,7,,,62,100
24160,note_off,,,,,64,0,10,,,,,2,,,72,100
24192,note_on,,,,,64,0,13,,,,,5,,,52,100
24192,note_on,,,,,64,0,14,,,,,6,,,40,100
24192,note_on,,,,,128,0,12,,,,,4,,,64,100
24192,note_on,,,,,32,0,10,,,,,2,,,74,100
24192,note_on,,,,,256,0,11,,,,,3,,,68,100
24192,note_on,,,,,64,0,16,,,,,7,,,52,100
24192,note_on,,,,,0,0,15,,,,,7,,,74,100
24192,note_on,,,,,64,0,15,,,,,7,,,68,100
24320,note_off,,,,,0,0,15,,,,,7,,,74,100
24320,note_off,,,,,128,0,13,,,,,5,,,52,100
24320,note_off,,,,,128,0,16,,,,,7,,,52,100
24320,note_off,,,,,128,0,14,,,,,6,,,40,100
24320,note_off,,,,,128,0,15,,,,,7,,,68,100
24320,note_off,,,,,128,0,10,,,,,2,,,74,100
24384,note_on,,,,,64,0,13,,,,,5,,,40,100
24384,note_on,,,,,64,0,16,,,,,7,,,40,100
24384,note_on,,,,,64,0,14,,,,,6,,,40,100
24384,note_on,,,,,64,0,10,,,,,2,,,71,100
24384,note_on,,,,,0,0,15,,,,,7,,,68,100
24384,note_on,,,,,64,0,15,,,,,7,,,59,100
24448,note_off,,,,,256,0,12,,,,,4,,,64,100
24448,note_off,,,,,256,0,11,,,,,3,,,68,100
24512,note_off,,,,,128,0,10,,,,,2,,,71,100
24512,note_off,,,,,128,0,16,,,,,7,,,40,100
24512,note_off,,,,,128,0,15,,,,,7,,,59,100
24512,note_off,,,,,128,0,13,,,,,5,,,40,100
24512,note_off,,,,,128,0,14,,,,,6,,,40,100
24512,note_off,,,,,0,0,15,,,,,7,,,68,100
24576,note_on,,,,,64,0,15,,,,,7,,,60,100
24576,note_on,,,,,0,0,15,,,,,7,,,69,100
24576,note_on,,,,,64,0,14,,,,,6,,,33,100
24576,note_on,,,,,64,0,10,,,,,2,,,72,100
24576,note_on,,,,,128,0,11,,,,,3,,,69,100
24576,note_on,,,,,64,0,16,,,,,7,,,45,100
24576,note_on,,,,,64,0,13,,,,,5,,,45,100
24576,note_on,,,,,128,0,12,,,,,4,,,64,100
24704,note_off,,,,,128,0,12,,,,,4,,,64,100
24704,note_off,,,,,128,0,10,,,,,2,,,72,100
24768,note_on,,,,,64,0,12,,,,,4,,,76,100
24768,note_on,,,,,64,0,10,,,,,2,,,69,100
24832,note_off,,,,,64,0,12,,,,,4,,,76,100
24832,note_off,,,,,256,0,11,,,,,3,,,69,100
24864,note_on,,,,,32,0,12,,,,,4,,,74,100
24896,note_off,,,,,128,0,10,,,,,2,,,69,100
24928,note_off,,,,,64,0,12,,,,,4,,,74,100
24960,note_off,,,,,384,0,16,,,,,7,,,45,100
24960,note_on,,,,,64,0,10,,,,,2,,,81,100
24960,note_off,,,,,384,0,15,,,,,7,,,60,100
24960,note_off,,,,,0,0,15,,,,,7,,,69,100
24960,note_off,,,,,384,0,14,,,,,6,,,33,100
24960,note_off,,,,,384,0,13,,,,,5,,,45,100
24960,note_on,,,,,32,0,12,,,,,4,,,72,100
24960,note_on,,,,,128,0,11,,,,,3,,,72,100
25024,note_off,,,,,64,0,12,,,,,4,,,72,100
25056,note_on,,,,,32,0,12,,,,,4,,,70,100
25088,note_off,,,,,128,0,11,,,,,3,,,72,100
25120,note_off,,,,,64,0,12,,,,,4,,,70,100
25152,note_on,,,,,32,0,12,,,,,4,,,69,100
25152,note_on,,,,,64,0,11,,,,,3,,,72,100
25216,note_off,,,,,64,0,12,,,,,4,,,69,100
25216,note_off,,,,,256,0,10,,,,,2,,,81,100
25248,note_on,,,,,32,0,12,,,,,4,,,67,100
25280,note_off,,,,,128,0,11,,,,,3,,,72,100
25312,note_off,,,,,64,0,12,,,,,4,,,67,100
25344,note_on,,,,,64,0,11,,,,,3,,,72,100
25344,note_on,,,,,128,0,10,,,,,2,,,74,100
25344,note_on,,,,,32,0,12,,,,,4,,,65,100
25472,note_off,,,,,128,0,12,,,,,4,,,65,100
25472,note_off,,,,,128,0,11,,,,,3,,,72,100
25536,note_on,,,,,576,0,15,,,,,7,,,74,100
25536,note_on,,,,,0,0,15,,,,,7,,,77,100
25536,note_on,,,,,576,0,14,,,,,6,,,46,100
25536,note_on,,,,,576,0,16,,,,,7,,,58,100
25536,note_on,,,,,576,0,13,,,,,5,,,58,100
25536,note_on,,,,,64,0,11,,,,,3,,,70,100
25536,note_on,,,,,64,0,12,,,,,4,,,74,100
25600,note_off,,,,,64,0,11,,,,,3,,,70,100
25600,note_off,,,,,64,0,12,,,,,4,,,74,100
25600,note_off,,,,,256,0,10,,,,,2,,,74,100
25632,note_on,,,,,32,0,12,,,,,4,,,72,100
25632,note_on,,,,,32,0,11,,,,,3,,,69,100
25664,note_off,,,,,128,0,16,,,,,7,,,58,100
25664,note_off,,,,,128,0,14,,,,,6,,,46,100
25664,note_off,,,,,0,0,15,,,,,7,,,77,100
25664,note_off,,,,,128,0,15,,,,,7,,,74,100
25664,note_off,,,,,128,0,13,,,,,5,,,58,100
25696,note_off,,,,,64,0,12,,,,,4,,,72,100
25696,note_off,,,,,64,0,11,,,,,3,,,69,100
25728,note_on,,,,,64,0,16,,,,,7,,,55,100
25728,note_on,,,,,32,0,12,,,,,4,,,70,100
25728,note_on,,,,,64,0,13,,,,,5,,,55,100
25728,note_on,,,,,32,0,11,,,,,3,,,70,100
25728,note_on,,,,,64,0,14,,,,,6,,,43,100
25728,note_on,,,,,0,0,15,,,,,7,,,74,100
25728,note_on,,,,,64,0,15,,,,,7,,,70,100
25728,note_on,,,,,128,0,10,,,,,2,,,79,100
25792,note_off,,,,,64,0,12,,,,,4,,,70,100
25824,note_on,,,,,32,0,12,,,,,4,,,69,100
25856,note_off,,,,,128,0,13,,,,,5,,,55,100
25856,note_off,,,,,128,0,14,,,,,6,,,43,100
25856,note_off,,,,,128,0,16,,,,,7,,,55,100
25856,note_off,,,,,128,0,11,,,,,3,,,70,100
25856,note_off,,,,,128,0,15,,,,,7,,,70,100
25856,note_off,,,,,0,0,15,,,,,7,,,74,100
25888,note_off,,,,,64,0,12,,,,,4,,,69,100
25920,note_on,,,,,64,0,15,,,,,7,,,67,100
25920,note_on,,,,,0,0,15,,,,,7,,,70,100
25920,note_on,,,,,64,0,16,,,,,7,,,52,100
25920,note_on,,,,,32,0,12,,,,,4,,,67,100
25920,note_on,,,,,64,0,11,,,,,3,,,70,100
25920,note_on,,,,,64,0,14,,,,,6,,,40,100
25920,note_on,,,,,64,0,13,,,,,5,,,52,100
25984,note_off,,,,,256,0,10,,,,,2,,,79,100
25984,note_off,,,,,64,0,12,,,,,4,,,67,100
26016,note_on,,,,,32,0,12,,,,,4,,,65,100
26048,note_off,,,,,128,0,11,,,,,3,,,70,100
26048,note_off,,,,,128,0,15,,,,,7,,,67,100
26048,note_off,,,,,128,0,14,,,,,6,,,40,100
26048,note_off,,,,,0,0,15,,,,,7,,,70,100
26048,note_off,,,,,128,0,16,,,,,7,,,52,100
26048,note_off,,,,,128,0,13,,,,,5,,,52,100
26080,note_off,,,,,64,0,12,,,,,4,,,65,100
26112,note_on,,,,,64,0,11,,,,,3,,,70,100
26112,note_on,,,,,128,0,10,,,,,2,,,72,100
26112,note_on,,,,,32,0,12,,,,,4,,,64,100
26240,note_off,,,,,128,0,11,,,,,3,,,70,100
26240,note_off,,,,,128,0,12,,,,,4,,,64,100
26304,note_on,,,,,0,0,15,,,,,7,,,76,100
26304,note_on,,,,,256,0,13,,,,,5,,,57,100
26304,note_on,,,,,256,0,14,,,,,6,,,45,100
26304,note_on,,,,,64,0,11,,,,,3,,,64,100
26304,note_on,,,,,256,0,15,,,,,7,,,72,100
26304,note_on,,,,,256,0,16,,,,,7,,,57,100
26304,note_on,,,,,64,0,12,,,,,4,,,72,100
26368,note_off,,,,,64,0,12,,,,,4,,,72,100
26368,note_off,,,,,256,0,10,,,,,2,,,72,100
26400,note_on,,,,,32,0,12,,,,,4,,,70,100
26432,note_off,,,,,128,0,14,,,,,6,,,45,100
26432,note_off,,,,,128,0,13,,,,,5,,,57,100
26432,note_off,,,,,128,0,11,,,,,3,,,64,100
26432,note_off,,,,,128,0,16,,,,,7,,,57,100
26432,note_off,,,,,128,0,15,,,,,7,,,72,100
26432,note_off,,,,,0,0,15,,,,,7,,,76,100
26464,note_off,,,,,64,0,12,,,,,4,,,70,100
26496,note_on,,,,,64,0,13,,,,,5,,,53,100
26496,note_on,,,,,64,0,15,,,,,7,,,69,100
26496,note_on,,,,,0,0,15,,,,,7,,,72,100
26496,note_on,,,,,64,0,14,,,,,6,,,41,100
26496,note_on,,,,,64,0,11,,,,,3,,,69,100
26496,note_on,,,,,32,0,12,,,,,4,,,69,100
26496,note_on,,,,,128,0,10,,,,,2,,,77,100
26496,note_on,,,,,64,0,16,,,,,7,,,53,100
26560,note_off,,,,,64,0,12,,,,,4,,,69,100
26592,note_on,,,,,32,0,12,,,,,4,,,67,100
26624,note_off,,,,,128,0,11,,,,,3,,,69,100
26624,note_off,,,,,0,0,15,,,,,7,,,72,100
26624,note_off,,,,,128,0,13,,,,,5,,,53,100
26624,note_off,,,,,128,0,16,,,,,7,,,53,100
26624,note_off,,,,,128,0,14,,,,,6,,,41,100
26624,note_off,,,,,128,0,15,,,,,7,,,69,100
26656,note_off,,,,,64,0,12,,,,,4,,,67,100
26688,note_on,,,,,0,0,15,,,,,7,,,69,100
26688,note_on,,,,,64,0,16,,,,,7,,,50,100
26688,note_on,,,,,64,0,14,,,,,6,,,38,100
26688,note_on,,,,,32,0,12,,,,,4,,,65,100
26688,note_on,,,,,64,0,11,,,,,3,,,69,100
26688,note_on,,,,,64,0,13,,,,,5,,,50,100
26688,note_on,,,,,64,0,15,,,,,7,,,65,100
26752,note_off,,,,,256,0,10,,,,,2,,,77,100
26752,note_off,,,,,64,0,12,,,,,4,,,65,100
26784,note_on,,,,,32,0,12,,,,,4,,,64,100
26816,note_off,,,,,128,0,13,,,,,5,,,50,100
26816,note_off,,,,,128,0,15,,,,,7,,,65,100
26816,note_off,,,,,0,0,15,,,,,7,,,69,100
26816,note_off,,,,,128,0,11,,,,,3,,,69,100
26816,note_off,,,,,128,0,16,,,,,7,,,50,100
26816,note_off,,,,,128,0,14,,,,,6,,,38,100
26848,note_off,,,,,64,0,12,,,,,4,,,64,100
26880,note_on,,,,,64,0,11,,,,,3,,,69,100
26880,note_on,,,,,128,0,10,,,,,2,,,71,100
26880,note_on,,,,,32,0,12,,,,,4,,,62,100
27008,note_off,,,,,128,0,12,,,,,4,,,62,100
27008,note_off,,,,,128,0,11,,,,,3,,,69,100
27072,note_on,,,,,256,0,14,,,,,6,,,43,100
27072,note_on,,,,,256,0,13,,,,,5,,,55,100
27072,note_on,,,,,256,0,16,,,,,7,,,55,100
27072,note_on,,,,,64,0,12,,,,,4,,,71,100
27072,note_on,,,,,64,0,11,,,,,3,,,67,100
27072,note_on,,,,,256,0,15,,,,,7,,,71,100
27072,note_on,,,,,0,0,15,,,,,7,,,74,100
27136,note_off,,,,,64,0,12,,,,,4,,,71,100
27136,note_off,,,,,256,0,10,,,,,2,,,71,100
27136,note_off,,,,,64,0,11,,,,,3,,,67,100
27168,note_on,,,,,32,0,11,,,,,3,,,65,100
27168,note_on,,,,,32,0,12,,,,,4,,,69,100
27200,note_off,,,,,128,0,13,,,,,5,,,55,100
27200,note_off,,,,,128,0,14,,,,,6,,,43,100
27200,note_off,,,,,128,0,16,,,,,7,,,55,100
27200,note_off,,,,,0,0,15,,,,,7,,,74,100
27200,note_off,,,,,128,0,15,,,,,7,,,71,100
27232,note_off,,,,,64,0,12,,,,,4,,,69,100
27232,note_off,,,,,64,0,11,,,,,3,,,65,100
27264,note_on,,,,,64,0,14,,,,,6,,,40,100
27264,note_on,,,,,0,0,15,,,,,7,,,71,100
27264,note_on,,,,,64,0,16,,,,,7,,,52,100
27264,note_on,,,,,64,0,13,,,,,5,,,52,100
27264,note_on,,,,,64,0,15,,,,,7,,,67,100
27264,note_on,,,,,32,0,12,,,,,4,,,67,100
27264,note_on,,,,,128,0,10,,,,,2,,,76,100
27264,note_on,,,,,32,0,11,,,,,3,,,67,100
27328,note_off,,,,,64,0,12,,,,,4,,,67,100
27360,note_on,,,,,32,0,12,,,,,4,,,65,100
27392,note_off,,,,,128,0,11,,,,,3,,,67,100
27392,note_off,,,,,128,0,14,,,,,6,,,40,100
27392,note_off,,,,,0,0,15,,,,,7,,,71,100
27392,note_off,,,,,128,0,16,,,,,7,,,52,100
27392,note_off,,,,,128,0,13,,,,,5,,,52,100
27392,note_off,,,,,128,0,15,,,,,7,,,67,100
27424,note_off,,,,,64,0,12,,,,,4,,,65,100
27456,note_on,,,,,64,0,14,,,,,6,,,36,100
27456,note_on,,,,,0,0,15,,,,,7,,,67,100
27456,note_on,,,,,64,0,15,,,,,7,,,64,100
27456,note_on,,,,,64,0,11,,,,,3,,,67,100
27456,note_on,,,,,64,0,16,,,,,7,,,48,100
27456,note_on,,,,,64,0,13,,,,,5,,,48,100
27456,note_on,,,,,32,0,12,,,,,4,,,64,100
27520,note_off,,,,,256,0,10,,,,,2,,,76,100
27520,note_off,,,,,64,0,12,,,,,4,,,64,100
27552,note_on,,,,,32,0,12,,,,,4,,,62,100
27584,note_off,,,,,128,0,11,,,,,3,,,67,100
27584,note_off,,,,,128,0,14,,,,,6,,,36,100
27584,note_off,,,,,0,0,15,,,,,7,,,67,100
27584,note_off,,,,,128,0,15,,,,,7,,,64,100
27584,note_off,,,,,128,0,16,,,,,7,,,48,100
27584,note_off,,,,,128,0,13,,,,,5,,,48,100
27616,note_off,,,,,64,0,12,,,,,4,,,62,100
27648,note_on,,,,,64,0,13,,,,,5,,,53,100
27648,note_on,,,,,64,0,14,,,,,6,,,41,100
27648,note_on,,,,,128,0,10,,,,,2,,,69,100
27648,note_on,,,,,0,0,15,,,,,7,,,67,100
27648,note_on,,,,,64,0,15,,,,,7,,,69,100
27648,note_on,,,,,64,0,16,,,,,7,,,53,100
27648,note_on,,,,,64,0,11,,,,,3,,,67,100
27648,note_on,,,,,32,0,12,,,,,4,,,60,100
27776,note_off,,,,,128,0,11,,,,,3,,,67,100
27840,note_on,,,,,64,0,11,,,,,3,,,60,100
27904,note_off,,,,,256,0,15,,,,,7,,,67,100
27904,note_off,,,,,256,0,10,,,,,2,,,69,100
27904,note_off,,,,,256,0,12,,,,,4,,,60,100
27968,note_off,,,,,128,0,11,,,,,3,,,60,100
28032,note_off,,,,,384,0,13,,,,,5,,,53,100
28032,note_off,,,,,384,0,14,,,,,6,,,41,100
28032,note_on,,,,,64,0,11,,,,,3,,,65,100
28032,note_off,,,,,384,0,16,,,,,7,,,53,100
28032,note_on,,,,,128,0,12,,,,,4,,,57,100
28032,note_on,,,,,128,0,10,,,,,2,,,74,100
28032,note_on,,,,,128,0,15,,,,,7,,,65,100
28160,note_off,,,,,128,0,11,,,,,3,,,65,100
28160,note_off,,,,,128,0,15,,,,,7,,,69,100
28224,note_on,,,,,64,0,11,,,,,3,,,65,100
28224,note_on,,,,,192,0,16,,,,,7,,,53,100
28224,note_on,,,,,192,0,14,,,,,6,,,41,100
28224,note_on,,,,,192,0,13,,,,,5,,,53,100
28288,note_off,,,,,256,0,12,,,,,4,,,57,100
28288,note_off,,,,,128,0,15,,,,,7,,,65,100
28352,note_off,,,,,128,0,13,,,,,5,,,53,100
28352,note_off,,,,,128,0,16,,,,,7,,,53,100
28352,note_off,,,,,128,0,14,,,,,6,,,41,100
28352,note_off,,,,,128,0,11,,,,,3,,,65,100
28416,note_on,,,,,64,0,16,,,,,7,,,44,100
28416,note_on,,,,,128,0,12,,,,,4,,,59,100
28416,note_off,,,,,384,0,10,,,,,2,,,74,100
28416,note_on,,,,,64,0,13,,,,,5,,,44,100
28416,note_on,,,,,64,0,11,,,,,3,,,64,100
28416,note_on,,,,,128,0,15,,,,,7,,,64,100
28416,note_on,,,,,64,0,14,,,,,6,,,32,100
28416,note_on,,,,,0,0,15,,,,,7,,,62,100
28544,note_off,,,,,128,0,11,,,,,3,,,64,100
28544,note_off,,,,,128,0,12,,,,,4,,,59,100
28544,note_off,,,,,128,0,14,,,,,6,,,32,100
28544,note_off,,,,,128,0,13,,,,,5,,,44,100
28544,note_off,,,,,128,0,16,,,,,7,,,44,100
28544,note_off,,,,,128,0,15,,,,,7,,,62,100
28608,note_on,,,,,192,0,10,,,,,2,,,72,100
28608,note_on,,,,,64,0,15,,,,,7,,,60,100
28608,note_on,,,,,64,0,12,,,,,4,,,64,100
28608,note_on,,,,,64,0,11,,,,,3,,,69,100
28608,note_on,,,,,64,0,14,,,,,6,,,33,100
28608,note_on,,,,,64,0,16,,,,,7,,,45,100
28608,note_on,,,,,64,0,13,,,,,5,,,45,100
28672,note_off,,,,,64,0,15,,,,,7,,,64,100
28736,note_off,,,,,128,0,10,,,,,2,,,72,100
28736,note_off,,,,,128,0,14,,,,,6,,,33,100
28736,note_off,,,,,128,0,16,,,,,7,,,45,100
28736,note_off,,,,,64,0,15,,,,,7,,,60,100
28736,note_off,,,,,128,0,13,,,,,5,,,45,100
28736,note_off,,,,,128,0,12,,,,,4,,,64,100
28800,note_on,,,,,0,0,15,,,,,7,,,57,100
28800,note_on,,,,,64,0,15,,,,,7,,,59,100
28800,note_on,,,,,64,0,12,,,,,4,,,64,100
28800,note_on,,,,,64,0,13,,,,,5,,,52,100
28800,note_on,,,,,64,0,10,,,,,2,,,71,100
28800,note_on,,,,,64,0,16,,,,,7,,,52,100
28800,note_on,,,,,64,0,14,,,,,6,,,40,100
28864,note_off,,,,,256,0,11,,,,,3,,,69,100
28928,note_off,,,,,128,0,16,,,,,7,,,52,100
28928,note_off,,,,,128,0,15,,,,,7,,,57,100
28928,note_off,,,,,128,0,12,,,,,4,,,64,100
28928,note_off,,,,,128,0,13,,,,,5,,,52,100
28928,note_off,,,,,128,0,14,,,,,6,,,40,100
28992,note_on,,,,,128,0,11,,,,,3,,,68,100
28992,note_on,,,,,64,0,13,,,,,5,,,40,100
28992,note_on,,,,,64,0,16,,,,,7,,,40,100
28992,note_on,,,,,64,0,14,,,,,6,,,40,100
28992,note_on,,,,,64,0,15,,,,,7,,,56,100
28992,note_on,,,,,64,0,12,,,,,4,,,64,100
29056,note_off,,,,,256,0,10,,,,,2,,,71,100
29056,note_off,,,,,64,0,15,,,,,7,,,59,100
29120,note_off,,,,,128,0,16,,,,,7,,,40,100
29120,note_off,,,,,64,0,15,,,,,7,,,56,100
29120,note_off,,,,,128,0,11,,,,,3,,,68,100
29120,note_off,,,,,128,0,13,,,,,5,,,40,100
29120,note_off,,,,,128,0,14,,,,,6,,,40,100
29120,note_off,,,,,128,0,12,,,,,4,,,64,100
29184,note_on,,,,,128,0,10,,,,,2,,,69,100
29184,note_on,,,,,64,0,14,,,,,6,,,33,100
29184,note_on,,,,,0,0,15,,,,,7,,,57,100
29184,note_on,,,,,64,0,13,,,,,5,,,45,100
29184,note_on,,,,,64,0,12,,,,,4,,,64,100
29184,note_on,,,,,64,0,16,,,,,7,,,45,100
29184,note_on,,,,,64,0,15,,,,,7,,,60,100
29184,note_on,,,,,64,0,11,,,,,3,,,69,100
29312,note_off,,,,,128,0,11,,,,,3,,,69,100
29376,note_on,,,,,64,0,11,,,,,3,,,81,100
29440,note_off,,,,,256,0,10,,,,,2,,,69,100
29440,note_off,,,,,256,0,15,,,,,7,,,60,100
29440,note_off,,,,,0,0,15,,,,,7,,,57,100
29440,note_off,,,,,256,0,16,,,,,7,,,45,100
29440,note_off,,,,,256,0,14,,,,,6,,,33,100
29440,note_off,,,,,256,0,12,,,,,4,,,64,100
29440,note_off,,,,,64,0,11,,,,,3,,,81,100
29440,note_off,,,,,256,0,13,,,,,5,,,45,100
29472,note_on,,,,,32,0,11,,,,,3,,,79,100
29536,note_off,,,,,64,0,11,,,,,3,,,79,100
29568,note_on,,,,,128,0,10,,,,,2,,,81,100
29568,note_on,,,,,128,0,13,,,,,5,,,62,100
29568,note_on,,,,,128,0,16,,,,,7,,,62,100
29568,note_on,,,,,128,0,12,,,,,4,,,65,100
29568,note_on,,,,,128,0,15,,,,,7,,,65,100
29568,note_on,,,,,32,0,11,,,,,3,,,77,100
29568,note_on,,,,,128,0,14,,,,,6,,,50,100
29632,note_off,,,,,64,0,11,,,,,3,,,77,100
29664,note_on,,,,,32,0,11,,,,,3,,,76,100
29696,note_off,,,,,128,0,12,,,,,4,,,65,100
29728,note_off,,,,,64,0,11,,,,,3,,,76,100
29760,note_on,,,,,32,0,11,,,,,3,,,74,100
29760,note_on,,,,,64,0,12,,,,,4,,,65,100
29824,note_off,,,,,256,0,10,,,,,2,,,81,100
29824,note_off,,,,,256,0,15,,,,,7,,,65,100
29824,note_off,,,,,256,0,14,,,,,6,,,50,100
29824,note_off,,,,,256,0,16,,,,,7,,,62,100
29824,note_off,,,,,64,0,11,,,,,3,,,74,100
29824,note_off,,,,,256,0,13,,,,,5,,,62,100
29856,note_on,,,,,32,0,11,,,,,3,,,72,100
29888,note_off,,,,,128,0,12,,,,,4,,,65,100
29920,note_off,,,,,64,0,11,,,,,3,,,72,100
29952,note_on,,,,,64,0,12,,,,,4,,,65,100
29952,note_on,,,,,128,0,16,,,,,7,,,55,100
29952,note_on,,,,,128,0,14,,,,,6,,,43,100
29952,note_on,,,,,128,0,13,,,,,5,,,55,100
29952,note_on,,,,,32,0,11,,,,,3,,,70,100
29952,note_on,,,,,0,0,15,,,,,7,,,65,100
29952,note_on,,,,,128,0,15,,,,,7,,,62,100
30080,note_off,,,,,128,0,11,,,,,3,,,70,100
30080,note_off,,,,,128,0,12,,,,,4,,,65,100
30144,note_on,,,,,64,0,11,,,,,3,,,79,100
30144,note_on,,,,,320,0,10,,,,,2,,,82,100
30144,note_on,,,,,64,0,12,,,,,4,,,64,100
30208,note_off,,,,,256,0,14,,,,,6,,,43,100
30208,note_off,,,,,0,0,15,,,,,7,,,65,100
30208,note_off,,,,,256,0,13,,,,,5,,,55,100
30208,note_off,,,,,256,0,16,,,,,7,,,55,100
30208,note_off,,,,,64,0,11,,,,,3,,,79,100
30208,note_off,,,,,256,0,15,,,,,7,,,62,100
30208,note_off,,,,,64,0,12,,,,,4,,,64,100
30240,note_on,,,,,32,0,11,,,,,3,,,77,100
30240,note_on,,,,,32,0,12,,,,,4,,,62,100
30272,note_off,,,,,128,0,10,,,,,2,,,82,100
30304,note_off,,,,,64,0,11,,,,,3,,,77,100
30304,note_off,,,,,64,0,12,,,,,4,,,62,100
30336,note_on,,,,,128,0,14,,,,,6,,,48,100
30336,note_on,,,,,32,0,11,,,,,3,,,76,100
30336,note_on,,,,,128,0,16,,,,,7,,,60,100
30336,note_on,,,,,128,0,13,,,,,5,,,60,100
30336,note_on,,,,,0,0,15,,,,,7,,,70,100
30336,note_on,,,,,128,0,15,,,,,7,,,67,100
30336,note_on,,,,,32,0,12,,,,,4,,,64,100
30336,note_on,,,,,64,0,10,,,,,2,,,79,100
30400,note_off,,,,,64,0,11,,,,,3,,,76,100
30432,note_on,,,,,32,0,11,,,,,3,,,74,100
30464,note_off,,,,,128,0,10,,,,,2,,,79,100
30464,note_off,,,,,128,0,12,,,,,4,,,64,100
30496,note_off,,,,,64,0,11,,,,,3,,,74,100
30528,note_on,,,,,32,0,11,,,,,3,,,72,100
30528,note_on,,,,,64,0,10,,,,,2,,,76,100
30528,note_on,,,,,64,0,12,,,,,4,,,64,100
30592,note_off,,,,,256,0,13,,,,,5,,,60,100
30592,note_off,,,,,256,0,16,,,,,7,,,60,100
30592,note_off,,,,,256,0,14,,,,,6,,,48,100
30592,note_off,,,,,0,0,15,,,,,7,,,70,100
30592,note_off,,,,,256,0,15,,,,,7,,,67,100
30592,note_off,,,,,64,0,11,,,,,3,,,72,100
30624,note_on,,,,,32,0,11,,,,,3,,,70,100
30656,note_off,,,,,128,0,12,,,,,4,,,64,100
30656,note_off,,,,,128,0,10,,,,,2,,,76,100
30688,note_off,,,,,64,0,11,,,,,3,,,70,100
30720,note_on,,,,,128,0,15,,,,,7,,,60,100
30720,note_on,,,,,128,0,13,,,,,5,,,53,100
30720,note_on,,,,,128,0,14,,,,,6,,,41,100
30720,note_on,,,,,32,0,11,,,,,3,,,69,100
30720,note_on,,,,,0,0,15,,,,,7,,,64,100
30720,note_on,,,,,64,0,12,,,,,4,,,64,100
30720,note_on,,,,,128,0,16,,,,,7,,,53,100
30848,note_off,,,,,128,0,12,,,,,4,,,64,100
30848,note_off,,,,,128,0,11,,,,,3,,,69,100
30912,note_on,,,,,256,0,10,,,,,2,,,81,100
30912,note_on,,,,,64,0,11,,,,,3,,,77,100
30912,note_on,,,,,64,0,12,,,,,4,,,57,100
30976,note_off,,,,,256,0,15,,,,,7,,,60,100
30976,note_off,,,,,0,0,15,,,,,7,,,64,100
30976,note_off,,,,,256,0,16,,,,,7,,,53,100
30976,note_off,,,,,256,0,13,,,,,5,,,53,100
30976,note_off,,,,,64,0,11,,,,,3,,,77,100
30976,note_off,,,,,256,0,14,,,,,6,,,41,100
31008,note_on,,,,,32,0,11,,,,,3,,,76,100
31040,note_off,,,,,128,0,10,,,,,2,,,81,100
31040,note_off,,,,,128,0,12,,,,,4,,,57,100
31072,note_off,,,,,64,0,11,,,,,3,,,76,100
31104,note_on,,,,,128,0,13,,,,,5,,,58,100
31104,note_on,,,,,64,0,10,,,,,2,,,77,100
31104,note_on,,,,,128,0,15,,,,,7,,,65,100
31104,note_on,,,,,0,0,15,,,,,7,,,69,100
31104,note_on,,,,,64,0,12,,,,,4,,,62,100
31104,note_on,,,,,32,0,11,,,,,3,,,74,100
31104,note_on,,,,,128,0,16,,,,,7,,,58,100
31104,note_on,,,,,128,0,14,,,,,6,,,46,100
31168,note_off,,,,,64,0,11,,,,,3,,,74,100
31200,note_on,,,,,32,0,11,,,,,3,,,72,100
31232,note_off,,,,,128,0,12,,,,,4,,,62,100
31232,note_off,,,,,128,0,10,,,,,2,,,77,100
31264,note_off,,,,,64,0,11,,,,,3,,,72,100
31296,note_on,,,,,32,0,11,,,,,3,,,70,100
31296,note_on,,,,,64,0,12,,,,,4,,,62,100
31296,note_on,,,,,64,0,10,,,,,2,,,74,100
31360,note_off,,,,,256,0,16,,,,,7,,,58,100
31360,note_off,,,,,256,0,13,,,,,5,,,58,100
31360,note_off,,,,,256,0,14,,,,,6,,,46,100
31360,note_off,,,,,0,0,15,,,,,7,,,69,100
31360,note_off,,,,,256,0,15,,,,,7,,,65,100
31360,note_off,,,,,64,0,11,,,,,3,,,70,100
31392,note_on,,,,,32,0,11,,,,,3,,,69,100
31424,note_off,,,,,128,0,10,,,,,2,,,74,100
31424,note_off,,,,,128,0,12,,,,,4,,,62,100
31456,note_off,,,,,64,0,11,,,,,3,,,69,100
31488,note_on,,,,,0,0,15,,,,,7,,,58,100
31488,note_on,,,,,128,0,15,,,,,7,,,62,100
31488,note_on,,,,,32,0,11,,,,,3,,,67,100
31488,note_on,,,,,128,0,13,,,,,5,,,52,100
31488,note_on,,,,,64,0,12,,,,,4,,,62,100
31488,note_on,,,,,128,0,14,,,,,6,,,40,100
31488,note_on,,,,,128,0,16,,,,,7,,,52,100
31616,note_off,,,,,128,0,12,,,,,4,,,62,100
31616,note_off,,,,,128,0,11,,,,,3,,,67,100
31680,note_on,,,,,256,0,10,,,,,2,,,79,100
31680,note_on,,,,,64,0,11,,,,,3,,,76,100
31680,note_on,,,,,64,0,12,,,,,4,,,60,100
31744,note_off,,,,,256,0,16,,,,,7,,,52,100
31744,note_off,,,,,256,0,13,,,,,5,,,52,100
31744,note_off,,,,,64,0,12,,,,,4,,,60,100
31744,note_off,,,,,256,0,15,,,,,7,,,62,100
31744,note_off,,,,,0,0,15,,,,,7,,,58,100
31744,note_off,,,,,64,0,11,,,,,3,,,76,100
31744,note_off,,,,,256,0,14,,,,,6,,,40,100
31776,note_on,,,,,32,0,11,,,,,3,,,74,100
31776,note_on,,,,,32,0,12,,,,,4,,,58,100
31808,note_off,,,,,128,0,10,,,,,2,,,79,100
31840,note_off,,,,,64,0,11,,,,,3,,,74,100
31840,note_off,,,,,64,0,12,,,,,4,,,58,100
31872,note_on,,,,,64,0,10,,,,,2,,,76,100
31872,note_on,,,,,128,0,14,,,,,6,,,45,100
31872,note_on,,,,,32,0,12,,,,,4,,,60,100
31872,note_on,,,,,32,0,11,,,,,3,,,72,100
31872,note_on,,,,,128,0,15,,,,,7,,,64,100
31872,note_on,,,,,0,0,15,,,,,7,,,67,100
31872,note_on,,,,,128,0,16,,,,,7,,,57,100
31872,note_on,,,,,128,0,13,,,,,5,,,57,100
31936,note_off,,,,,64,0,11,,,,,3,,,72,100
31968,note_on,,,,,32,0,11,,,,,3,,,70,100
32000,note_off,,,,,128,0,10,,,,,2,,,76,100
32000,note_off,,,,,128,0,12,,,,,4,,,60,100
32032,note_off,,,,,64,0,11,,,,,3,,,70,100
32064,note_on,,,,,64,0,12,,,,,4,,,60,100
32064,note_on,,,,,64,0,10,,,,,2,,,72,100
32064,note_on,,,,,32,0,11,,,,,3,,,69,100
32128,note_off,,,,,0,0,15,,,,,7,,,67,100
32128,note_off,,,,,256,0,15,,,,,7,,,64,100
32128,note_off,,,,,64,0,11,,,,,3,,,69,100
32128,note_off,,,,,256,0,16,,,,,7,,,57,100
32128,note_off,,,,,256,0,13,,,,,5,,,57,100
32128,note_off,,,,,256,0,14,,,,,6,,,45,100
32160,note_on,,,,,32,0,11,,,,,3,,,67,100
32192,note_off,,,,,128,0,12,,,,,4,,,60,100
32192,note_off,,,,,128,0,10,,,,,2,,,72,100
32224,note_off,,,,,64,0,11,,,,,3,,,67,100
32256,note_on,,,,,128,0,16,,,,,7,,,50,100
32256,note_on,,,,,128,0,14,,,,,6,,,38,100
32256,note_on,,,,,64,0,12,,,,,4,,,60,100
32256,note_on,,,,,128,0,15,,,,,7,,,57,100
32256,note_on,,,,,32,0,11,,,,,3,,,65,100
32256,note_on,,,,,128,0,13,,,,,5,,,50,100
32256,note_on,,,,,0,0,15,,,,,7,,,60,100
32384,note_off,,,,,128,0,11,,,,,3,,,65,100
32384,note_off,,,,,128,0,12,,,,,4,,,60,100
32448,note_on,,,,,256,0,10,,,,,2,,,77,100
32448,note_on,,,,,64,0,11,,,,,3,,,74,100
32448,note_on,,,,,64,0,12,,,,,4,,,53,100
32512,note_off,,,,,64,0,11,,,,,3,,,74,100
32512,note_off,,,,,256,0,14,,,,,6,,,38,100
32512,note_off,,,,,256,0,15,,,,,7,,,57,100
32512,note_off,,,,,0,0,15,,,,,7,,,60,100
32512,note_off,,,,,256,0,16,,,,,7,,,50,100
32512,note_off,,,,,256,0,13,,,,,5,,,50,100
32544,note_on,,,,,32,0,11,,,,,3,,,72,100
32576,note_off,,,,,128,0,10,,,,,2,,,77,100
32576,note_off,,,,,128,0,12,,,,,4,,,53,100
32608,note_off,,,,,64,0,11,,,,,3,,,72,100
32640,note_on,,,,,0,0,15,,,,,7,,,65,100
32640,note_on,,,,,128,0,13,,,,,5,,,55,100
32640,note_on,,,,,64,0,12,,,,,4,,,58,100
32640,note_on,,,,,64,0,10,,,,,2,,,74,100
32640,note_on,,,,,128,0,15,,,,,7,,,62,100
32640,note_on,,,,,32,0,11,,,,,3,,,70,100
32640,note_on,,,,,128,0,16,,,,,7,,,55,100
32640,note_on,,,,,128,0,14,,,,,6,,,43,100
32704,note_off,,,,,64,0,11,,,,,3,,,70,100
32736,note_on,,,,,32,0,11,,,,,3,,,69,100
32768,note_off,,,,,128,0,12,,,,,4,,,58,100
32768,note_off,,,,,128,0,10,,,,,2,,,74,100
32800,note_off,,,,,64,0,11,,,,,3,,,69,100
32832,note_on,,,,,64,0,12,,,,,4,,,58,100
32832,note_on,,,,,32,0,11,,,,,3,,,67,100
32832,note_on,,,,,64,0,10,,,,,2,,,70,100
32896,note_off,,,,,0,0,15,,,,,7,,,65,100
32896,note_off,,,,,64,0,11,,,,,3,,,67,100
32896,note_off,,,,,256,0,13,,,,,5,,,55,100
32896,note_off,,,,,256,0,15,,,,,7,,,62,100
32896,note_off,,,,,256,0,14,,,,,6,,,43,100
32896,note_off,,,,,256,0,16,,,,,7,,,55,100
32928,note_on,,,,,32,0,11,,,,,3,,,65,100
32960,note_off,,,,,128,0,12,,,,,4,,,58,100
32960,note_off,,,,,128,0,10,,,,,2,,,70,100
32992,note_off,,,,,64,0,11,,,,,3,,,65,100
33024,note_on,,,,,128,0,16,,,,,7,,,49,100
33024,note_on,,,,,0,0,15,,,,,7,,,70,100
33024,note_on,,,,,128,0,15,,,,,7,,,64,100
33024,note_on,,,,,32,0,11,,,,,3,,,64,100
33024,note_on,,,,,128,0,14,,,,,6,,,37,100
33024,note_on,,,,,128,0,13,,,,,5,,,49,100
33024,note_on,,,,,64,0,12,,,,,4,,,58,100
33152,note_off,,,,,128,0,12,,,,,4,,,58,100
33152,note_off,,,,,128,0,15,,,,,7,,,70,100
33216,note_on,,,,,64,0,12,,,,,4,,,57,100
33216,note_on,,,,,64,0,15,,,,,7,,,69,100
33216,note_on,,,,,256,0,10,,,,,2,,,81,100
33280,note_off,,,,,64,0,15,,,,,7,,,64,100
33280,note_off,,,,,256,0,13,,,,,5,,,49,100
33280,note_off,,,,,256,0,11,,,,,3,,,64,100
33280,note_off,,,,,256,0,14,,,,,6,,,37,100
33280,note_off,,,,,256,0,16,,,,,7,,,49,100
33344,note_off,,,,,128,0,10,,,,,2,,,81,100
33344,note_off,,,,,64,0,15,,,,,7,,,69,100
33344,note_off,,,,,128,0,12,,,,,4,,,57,100
33408,note_on,,,,,128,0,13,,,,,5,,,50,100
33408,note_on,,,,,128,0,16,,,,,7,,,50,100
33408,note_on,,,,,64,0,10,,,,,2,,,74,100
33408,note_on,,,,,0,0,15,,,,,7,,,69,100
33408,note_on,,,,,64,0,15,,,,,7,,,65,100
33408,note_on,,,,,128,0,14,,,,,6,,,38,100
33408,note_on,,,,,128,0,11,,,,,3,,,65,100
33600,note_on,,,,,256,0,12,,,,,4,,,57,100
33664,note_off,,,,,256,0,13,,,,,5,,,50,100
33664,note_off,,,,,256,0,15,,,,,7,,,65,100
33664,note_off,,,,,0,0,15,,,,,7,,,69,100
33664,note_off,,,,,256,0,14,,,,,6,,,38,100
33664,note_off,,,,,256,0,11,,,,,3,,,65,100
33664,note_off,,,,,256,0,16,,,,,7,,,50,100
33728,note_off,,,,,128,0,12,,,,,4,,,57,100
33792,note_on,,,,,128,0,15,,,,,7,,,74,100
33792,note_on,,,,,0,0,15,,,,,7,,,64,100
33792,note_on,,,,,128,0,13,,,,,5,,,57,100
33792,note_on,,,,,64,0,12,,,,,4,,,57,100
33792,note_on,,,,,128,0,14,,,,,6,,,45,100
33792,note_on,,,,,128,0,16,,,,,7,,,57,100
33792,note_on,,,,,128,0,11,,,,,3,,,64,100
34048,note_off,,,,,0,0,15,,,,,7,,,64,100
34048,note_off,,,,,256,0,16,,,,,7,,,57,100
34048,note_off,,,,,256,0,14,,,,,6,,,45,100
34048,note_off,,,,,256,0,13,,,,,5,,,57,100
34048,note_off,,,,,256,0,15,,,,,7,,,74,100
34048,note_off,,,,,256,0,12,,,,,4,,,57,100
34176,note_on,,,,,128,0,15,,,,,7,,,73,100
34176,note_on,,,,,128,0,14,,,,,6,,,33,100
34176,note_on,,,,,128,0,13,,,,,5,,,45,100
34176,note_on,,,,,128,0,12,,,,,4,,,57,100
34176,note_on,,,,,0,0,10,,,,,2,,,73,100
34176,note_on,,,,,0,0,15,,,,,7,,,64,100
34176,note_on,,,,,128,0,16,,,,,7,,,45,100
34176,note_off,,,,,768,0,10,,,,,2,,,74,100
34304,note_off,,,,,512,0,11,,,,,3,,,64,100
34432,note_off,,,,,256,0,13,,,,,5,,,45,100
34432,note_off,,,,,256,0,14,,,,,6,,,33,100
34432,note_off,,,,,256,0,16,,,,,7,,,45,100
34432,note_off,,,,,256,0,12,,,,,4,,,57,100
34432,note_off,,,,,0,0,15,,,,,7,,,64,100
34432,note_off,,,,,256,0,15,,,,,7,,,73,100
34432,note_off,,,,,256,0,10,,,,,2,,,73,100
34560,note_on,,,,,0,0,15,,,,,7,,,65,100
34560,note_on,,,,,128,0,15,,,,,7,,,74,100
34560,note_on,,,,,256,0,11,,,,,3,,,65,100
34560,note_on,,,,,128,0,16,,,,,7,,,50,100
34560,note_on,,,,,128,0,14,,,,,6,,,38,100
34560,note_on,,,,,0,0,15,,,,,7,,,69,100
34560,note_on,,,,,128,0,13,,,,,5,,,50,100
34560,note_on,,,,,34560,0,8,,,,,0,,,74,100
34560,note_on,,,,,128,0,10,,,,,2,,,74,100
34560,note_on,,,,,128,0,12,,,,,4,,,57,100
34688,note_off,,,,,128,0,8,,,,,0,,,74,100
34752,note_on,,,,,64,0,8,,,,,0,,,74,100
34816,note_off,,,,,256,0,11,,,,,3,,,65,100
34816,note_off,,,,,256,0,13,,,,,5,,,50,100
34816,note_off,,,,,256,0,14,,,,,6,,,38,100
34816,note_off,,,,,256,0,10,,,,,2,,,74,100
34816,note_off,,,,,64,0,8,,,,,0,,,74,100
34816,note_off,,,,,256,0,16,,,,,7,,,50,100
34816,note_off,,,,,256,0,12,,,,,4,,,57,100
34816,note_off,,,,,256,0,15,,,,,7,,,74,100
34816,note_off,,,,,0,0,15,,,,,7,,,65,100
34816,note_off,,,,,0,0,15,,,,,7,,,69,100
34848,note_on,,,,,32,0,8,,,,,0,,,76,100
34912,note_off,,,,,64,0,8,,,,,0,,,76,100
34944,program_change,,,,,128,0,13,,,,,5,43,,,
34944,note_on,,,,,34944,0,9,,,,,1,,,74,100
34944,note_on,,,,,32,0,8,,,,,0,,,77,100
35072,note_off,,,,,128,0,8,,,,,0,,,77,100
35136,note_on,,,,,192,0,13,,,,,5,,,50,100
35136,note_on,,,,,64,0,8,,,,,0,,,77,100
35264,note_off,,,,,128,0,13,,,,,5,,,50,100
35264,note_off,,,,,128,0,8,,,,,0,,,77,100
35328,note_on,,,,,64,0,8,,,,,0,,,76,100
35328,note_on,,,,,64,0,13,,,,,5,,,55,100
35456,note_off,,,,,128,0,8,,,,,0,,,76,100
35456,note_off,,,,,128,0,13,,,,,5,,,55,100
35520,note_on,,,,,64,0,8,,,,,0,,,76,100
35520,note_on,,,,,64,0,13,,,,,5,,,52,100
35584,note_off,,,,,640,0,9,,,,,1,,,74,100
35584,note_off,,,,,64,0,8,,,,,0,,,76,100
35616,note_on,,,,,32,0,8,,,,,0,,,77,100
35648,note_off,,,,,128,0,13,,,,,5,,,52,100
35680,note_off,,,,,64,0,8,,,,,0,,,77,100
35712,note_on,,,,,128,0,9,,,,,1,,,73,100
35712,note_on,,,,,64,0,13,,,,,5,,,57,100
35712,note_on,,,,,32,0,8,,,,,0,,,79,100
35840,note_off,,,,,128,0,8,,,,,0,,,79,100
35840,note_off,,,,,128,0,13,,,,,5,,,57,100
35904,note_on,,,,,64,0,13,,,,,5,,,45,100
35904,note_on,,,,,64,0,8,,,,,0,,,76,100
35968,note_off,,,,,256,0,9,,,,,1,,,73,100
36032,note_off,,,,,128,0,8,,,,,0,,,76,100
36032,note_off,,,,,128,0,13,,,,,5,,,45,100
36096,note_on,,,,,64,0,8,,,,,0,,,77,100
36096,note_on,,,,,1280,0,14,,,,,6,,,38,100
36096,note_on,,,,,1280,0,16,,,,,7,,,50,100
36096,note_on,,,,,64,0,13,,,,,5,,,50,100
36096,note_on,,,,,1280,0,15,,,,,7,,,65,100
36096,note_on,,,,,128,0,9,,,,,1,,,74,100
36096,note_on,,,,,0,0,15,,,,,7,,,69,100
36224,note_off,,,,,128,0,8,,,,,0,,,77,100
36224,note_off,,,,,128,0,9,,,,,1,,,74,100
36224,note_off,,,,,128,0,13,,,,,5,,,50,100
36288,note_on,,,,,64,0,9,,,,,1,,,77,100
36288,note_on,,,,,64,0,8,,,,,0,,,74,100
36288,note_on,,,,,64,0,13,,,,,5,,,62,100
36352,note_off,,,,,256,0,15,,,,,7,,,65,100
36352,note_off,,,,,0,0,15,,,,,7,,,69,100
36352,note_off,,,,,256,0,14,,,,,6,,,38,100
36352,note_off,,,,,256,0,16,,,,,7,,,50,100
36352,note_off,,,,,64,0,9,,,,,1,,,77,100
36352,note_off,,,,,64,0,13,,,,,5,,,62,100
36384,note_on,,,,,32,0,9,,,,,1,,,76,100
36384,note_on,,,,,32,0,13,,,,,5,,,60,100
36416,note_off,,,,,128,0,8,,,,,0,,,74,100
36448,note_off,,,,,64,0,9,,,,,1,,,76,100
36448,note_off,,,,,64,0,13,,,,,5,,,60,100
36480,note_on,,,,,32,0,9,,,,,1,,,74,100
36480,note_on,,,,,32,0,13,,,,,5,,,58,100
36544,note_off,,,,,64,0,9,,,,,1,,,74,100
36544,note_off,,,,,64,0,13,,,,,5,,,58,100
36576,note_on,,,,,32,0,9,,,,,1,,,72,100
36576,note_on,,,,,32,0,13,,,,,5,,,57,100
36640,note_off,,,,,64,0,9,,,,,1,,,72,100
36640,note_off,,,,,64,0,13,,,,,5,,,57,100
36672,note_on,,,,,256,0,8,,,,,0,,,82,100
36672,note_on,,,,,32,0,13,,,,,5,,,55,100
36672,note_on,,,,,32,0,9,,,,,1,,,70,100
36672,note_on,,,,,320,0,16,,,,,7,,,55,100
36672,note_on,,,,,320,0,14,,,,,6,,,43,100
36672,note_on,,,,,0,0,15,,,,,7,,,70,100
36672,note_on,,,,,320,0,15,,,,,7,,,74,100
36736,note_off,,,,,64,0,13,,,,,5,,,55,100
36736,note_off,,,,,64,0,9,,,,,1,,,70,100
36768,note_on,,,,,32,0,13,,,,,5,,,53,100
36768,note_on,,,,,32,0,9,,,,,1,,,69,100
36800,note_off,,,,,128,0,14,,,,,6,,,43,100
36800,note_off,,,,,128,0,15,,,,,7,,,74,100
36800,note_off,,,,,0,0,15,,,,,7,,,70,100
36800,note_off,,,,,128,0,16,,,,,7,,,55,100
36800,note_off,,,,,128,0,8,,,,,0,,,82,100
36832,note_off,,,,,64,0,13,,,,,5,,,53,100
36832,note_off,,,,,64,0,9,,,,,1,,,69,100
36864,note_on,,,,,64,0,16,,,,,7,,,48,100
36864,note_on,,,,,0,0,15,,,,,7,,,70,100
36864,note_on,,,,,32,0,13,,,,,5,,,52,100
36864,note_on,,,,,32,0,9,,,,,1,,,67,100
36864,note_on,,,,,64,0,8,,,,,0,,,82,100
36864,note_on,,,,,64,0,15,,,,,7,,,67,100
36864,note_on,,,,,64,0,14,,,,,6,,,36,100
36992,note_off,,,,,128,0,9,,,,,1,,,67,100
36992,note_off,,,,,128,0,13,,,,,5,,,52,100
36992,note_off,,,,,128,0,8,,,,,0,,,82,100
37056,note_on,,,,,64,0,13,,,,,5,,,60,99
37056,note_on,,,,,64,0,9,,,,,1,,,76,99
37056,note_on,,,,,64,0,8,,,,,0,,,76,99
37120,note_off,,,,,256,0,16,,,,,7,,,48,100
37120,note_off,,,,,256,0,15,,,,,7,,,67,100
37120,note_off,,,,,0,0,15,,,,,7,,,70,100
37120,note_off,,,,,64,0,13,,,,,5,,,60,100
37120,note_off,,,,,256,0,14,,,,,6,,,36,100
37120,note_off,,,,,64,0,9,,,,,1,,,76,100
37152,note_on,,,,,32,0,13,,,,,5,,,58,99
37152,note_on,,,,,32,0,9,,,,,1,,,74,99
37184,note_off,,,,,128,0,8,,,,,0,,,76,100
37216,note_off,,,,,64,0,13,,,,,5,,,58,100
37216,note_off,,,,,64,0,9,,,,,1,,,74,100
37248,note_on,,,,,32,0,13,,,,,5,,,57,99
37248,note_on,,,,,32,0,9,,,,,1,,,72,99
37312,note_off,,,,,64,0,9,,,,,1,,,72,100
37312,note_off,,,,,64,0,13,,,,,5,,,57,100
37344,note_on,,,,,32,0,9,,,,,1,,,70,98
37344,note_on,,,,,32,0,13,,,,,5,,,55,98
37408,note_off,,,,,64,0,9,,,,,1,,,70,100
37408,note_off,,,,,64,0,13,,,,,5,,,55,100
37440,note_on,,,,,32,0,9,,,,,1,,,69,98
37440,note_on,,,,,32,0,13,,,,,5,,,53,98
37440,note_on,,,,,320,0,15,,,,,7,,,72,100
37440,note_on,,,,,320,0,14,,,,,6,,,41,98
37440,note_on,,,,,256,0,8,,,,,0,,,81,98
37440,note_on,,,,,320,0,16,,,,,7,,,53,98
37440,note_on,,,,,0,0,15,,,,,7,,,69,100
37504,note_off,,,,,64,0,9,,,,,1,,,69,100
37504,note_off,,,,,64,0,13,,,,,5,,,53,100
37536,note_on,,,,,32,0,9,,,,,1,,,67,98
37536,note_on,,,,,32,0,13,,,,,5,,,52,98
37568,note_off,,,,,128,0,14,,,,,6,,,41,100
37568,note_off,,,,,0,0,15,,,,,7,,,69,100
37568,note_off,,,,,128,0,15,,,,,7,,,72,100
37568,note_off,,,,,128,0,8,,,,,0,,,81,100
37568,note_off,,,,,128,0,16,,,,,7,,,53,100
37600,note_off,,,,,64,0,9,,,,,1,,,67,100
37600,note_off,,,,,64,0,13,,,,,5,,,52,100
37632,note_on,,,,,32,0,13,,,,,5,,,50,98
37632,note_on,,,,,64,0,14,,,,,6,,,34,98
37632,note_on,,,,,64,0,8,,,,,0,,,81,98
37632,note_on,,,,,64,0,15,,,,,7,,,65,100
37632,note_on,,,,,0,0,15,,,,,7,,,69,100
37632,note_on,,,,,64,0,16,,,,,7,,,46,98
37632,note_on,,,,,32,0,9,,,,,1,,,65,98
37760,note_off,,,,,128,0,13,,,,,5,,,50,100
37760,note_off,,,,,128,0,8,,,,,0,,,81,100
37760,note_off,,,,,128,0,9,,,,,1,,,65,100
37824,note_on,,,,,64,0,13,,,,,5,,,58,97
37824,note_on,,,,,64,0,8,,,,,0,,,74,97
37824,note_on,,,,,64,0,9,,,,,1,,,74,97
37888,note_off,,,,,256,0,14,,,,,6,,,34,100
37888,note_off,,,,,64,0,9,,,,,1,,,74,100
37888,note_off,,,,,64,0,13,,,,,5,,,58,100
37888,note_off,,,,,256,0,15,,,,,7,,,65,100
37888,note_off,,,,,256,0,16,,,,,7,,,46,100
37888,note_off,,,,,0,0,15,,,,,7,,,69,100
37920,note_on,,,,,32,0,13,,,,,5,,,57,97
37920,note_on,,,,,32,0,9,,,,,1,,,72,97
37952,note_off,,,,,128,0,8,,,,,0,,,74,100
37984,note_off,,,,,64,0,9,,,,,1,,,72,100
37984,note_off,,,,,64,0,13,,,,,5,,,57,100
38016,note_on,,,,,32,0,9,,,,,1,,,70,96
38016,note_on,,,,,32,0,13,,,,,5,,,55,96
38080,note_off,,,,,64,0,9,,,,,1,,,70,100
38080,note_off,,,,,64,0,13,,,,,5,,,55,100
38112,note_on,,,,,32,0,9,,,,,1,,,69,96
38112,note_on,,,,,32,0,13,,,,,5,,,53,96
38176,note_off,,,,,64,0,13,,,,,5,,,53,100
38176,note_off,,,,,64,0,9,,,,,1,,,69,100
38208,note_on,,,,,32,0,9,,,,,1,,,67,96
38208,note_on,,,,,32,0,13,,,,,5,,,52,96
38208,note_on,,,,,320,0,16,,,,,7,,,52,96
38208,note_on,,,,,320,0,15,,,,,7,,,70,100
38208,note_on,,,,,256,0,8,,,,,0,,,79,96
38208,note_on,,,,,320,0,14,,,,,6,,,40,96
38208,note_on,,,,,0,0,15,,,,,7,,,67,100
38272,note_off,,,,,64,0,9,,,,,1,,,67,100
38272,note_off,,,,,64,0,13,,,,,5,,,52,100
38304,note_on,,,,,32,0,9,,,,,1,,,65,96
38304,note_on,,,,,32,0,13,,,,,5,,,50,96
38336,note_off,,,,,128,0,8,,,,,0,,,79,100
38336,note_off,,,,,128,0,14,,,,,6,,,40,100
38336,note_off,,,,,128,0,16,,,,,7,,,52,100
38336,note_off,,,,,128,0,15,,,,,7,,,70,100
38336,note_off,,,,,0,0,15,,,,,7,,,67,100
38368,note_off,,,,,64,0,13,,,,,5,,,50,100
38368,note_off,,,,,64,0,9,,,,,1,,,65,100
38400,note_on,,,,,64,0,16,,,,,7,,,45,95
38400,note_on,,,,,0,0,15,,,,,7,,,67,100
38400,note_on,,,,,32,0,13,,,,,5,,,48,95
38400,note_on,,,,,64,0,8,,,,,0,,,79,95
38400,note_on,,,,,64,0,14,,,,,6,,,33,95
38400,note_on,,,,,32,0,9,,,,,1,,,64,95
38400,note_on,,,,,64,0,15,,,,,7,,,64,100
38528,note_off,,,,,128,0,13,,,,,5,,,48,100
38528,note_off,,,,,128,0,8,,,,,0,,,79,100
38528,note_off,,,,,128,0,9,,,,,1,,,64,100
38592,note_on,,,,,64,0,13,,,,,5,,,57,95
38592,note_on,,,,,64,0,8,,,,,0,,,72,95
38592,note_on,,,,,64,0,9,,,,,1,,,72,95
38656,note_off,,,,,64,0,13,,,,,5,,,57,100
38656,note_off,,,,,64,0,9,,,,,1,,,72,100
38656,note_off,,,,,256,0,14,,,,,6,,,33,100
38656,note_off,,,,,256,0,16,,,,,7,,,45,100
38656,note_off,,,,,256,0,15,,,,,7,,,64,100
38656,note_off,,,,,0,0,15,,,,,7,,,67,100
38688,note_on,,,,,32,0,9,,,,,1,,,70,94
38688,note_on,,,,,32,0,13,,,,,5,,,55,94
38720,note_off,,,,,128,0,8,,,,,0,,,72,100
38752,note_off,,,,,64,0,13,,,,,5,,,55,100
38752,note_off,,,,,64,0,9,,,,,1,,,70,100
38784,note_on,,,,,32,0,9,,,,,1,,,69,94
38784,note_on,,,,,32,0,13,,,,,5,,,53,94
38848,note_off,,,,,64,0,9,,,,,1,,,69,100
38848,note_off,,,,,64,0,13,,,,,5,,,53,100
38880,note_on,,,,,32,0,13,,,,,5,,,52,94
38880,note_on,,,,,32,0,9,,,,,1,,,67,94
38944,note_off,,,,,64,0,9,,,,,1,,,67,100
38944,note_off,,,,,64,0,13,,,,,5,,,52,100
38976,note_on,,,,,320,0,16,,,,,7,,,50,93
38976,note_on,,,,,320,0,14,,,,,6,,,38,93
38976,note_on,,,,,32,0,13,,,,,5,,,50,93
38976,note_on,,,,,32,0,9,,,,,1,,,65,93
38976,note_on,,,,,256,0,8,,,,,0,,,77,93
38976,note_on,,,,,0,0,15,,,,,7,,,65,100
38976,note_on,,,,,320,0,15,,,,,7,,,69,100
39040,note_off,,,,,64,0,13,,,,,5,,,50,100
39040,note_off,,,,,64,0,9,,,,,1,,,65,100
39072,note_on,,,,,32,0,13,,,,,5,,,48,93
39072,note_on,,,,,32,0,9,,,,,1,,,64,93
39104,note_off,,,,,128,0,14,,,,,6,,,38,100
39104,note_off,,,,,0,0,15,,,,,7,,,65,100
39104,note_off,,,,,128,0,15,,,,,7,,,69,100
39104,note_off,,,,,128,0,8,,,,,0,,,77,100
39104,note_off,,,,,128,0,16,,,,,7,,,50,100
39136,note_off,,,,,64,0,9,,,,,1,,,64,100
39136,note_off,,,,,64,0,13,,,,,5,,,48,100
39168,note_on,,,,,0,0,15,,,,,7,,,65,100
39168,note_on,,,,,64,0,15,,,,,7,,,62,100
39168,note_on,,,,,32,0,9,,,,,1,,,62,93
39168,note_on,,,,,32,0,13,,,,,5,,,46,93
39168,note_on,,,,,64,0,14,,,,,6,,,43,93
39168,note_on,,,,,64,0,16,,,,,7,,,43,100
39168,note_on,,,,,64,0,8,,,,,0,,,77,93
39296,note_off,,,,,128,0,8,,,,,0,,,77,100
39296,note_off,,,,,128,0,13,,,,,5,,,46,100
39296,note_off,,,,,128,0,9,,,,,1,,,62,100
39360,note_on,,,,,64,0,9,,,,,1,,,70,92
39360,note_on,,,,,64,0,8,,,,,0,,,70,92
39360,note_on,,,,,64,0,13,,,,,5,,,55,92
39424,note_off,,,,,256,0,15,,,,,7,,,62,100
39424,note_off,,,,,64,0,9,,,,,1,,,70,100
39424,note_off,,,,,64,0,13,,,,,5,,,55,100
39424,note_off,,,,,256,0,16,,,,,7,,,43,100
39424,note_off,,,,,256,0,14,,,,,6,,,43,100
39424,note_off,,,,,0,0,15,,,,,7,,,65,100
39456,note_on,,,,,32,0,9,,,,,1,,,69,92
39456,note_on,,,,,32,0,13,,,,,5,,,53,92
39488,note_off,,,,,128,0,8,,,,,0,,,70,100
39520,note_off,,,,,64,0,9,,,,,1,,,69,100
39520,note_off,,,,,64,0,13,,,,,5,,,53,100
39552,note_on,,,,,32,0,9,,,,,1,,,67,92
39552,note_on,,,,,32,0,13,,,,,5,,,52,92
39616,note_off,,,,,64,0,9,,,,,1,,,67,100
39616,note_off,,,,,64,0,13,,,,,5,,,52,100
39648,note_on,,,,,32,0,9,,,,,1,,,65,91
39648,note_on,,,,,32,0,13,,,,,5,,,50,91
39712,note_off,,,,,64,0,13,,,,,5,,,50,100
39712,note_off,,,,,64,0,9,,,,,1,,,65,100
39744,note_on,,,,,320,0,16,,,,,7,,,48,91
39744,note_on,,,,,32,0,13,,,,,5,,,48,91
39744,note_on,,,,,320,0,14,,,,,6,,,36,91
39744,note_on,,,,,32,0,9,,,,,1,,,64,91
39744,note_on,,,,,256,0,8,,,,,0,,,76,91
39744,note_on,,,,,0,0,15,,,,,7,,,64,100
39744,note_on,,,,,320,0,15,,,,,7,,,67,100
39808,note_off,,,,,64,0,13,,,,,5,,,48,100
39808,note_off,,,,,64,0,9,,,,,1,,,64,100
39840,note_on,,,,,32,0,9,,,,,1,,,62,91
39840,note_on,,,,,32,0,13,,,,,5,,,46,91
39872,note_off,,,,,128,0,8,,,,,0,,,76,100
39872,note_off,,,,,128,0,15,,,,,7,,,67,100
39872,note_off,,,,,128,0,14,,,,,6,,,36,100
39872,note_off,,,,,128,0,16,,,,,7,,,48,100
39872,note_off,,,,,0,0,15,,,,,7,,,64,100
39904,note_off,,,,,64,0,9,,,,,1,,,62,100
39904,note_off,,,,,64,0,13,,,,,5,,,46,100
39936,note_on,,,,,0,0,15,,,,,7,,,64,100
39936,note_on,,,,,32,0,9,,,,,1,,,60,91
39936,note_on,,,,,64,0,14,,,,,6,,,41,91
39936,note_on,,,,,64,0,16,,,,,7,,,41,100
39936,note_on,,,,,32,0,13,,,,,5,,,45,91
39936,note_on,,,,,64,0,8,,,,,0,,,76,91
39936,note_on,,,,,64,0,15,,,,,7,,,60,100
40064,note_off,,,,,128,0,9,,,,,1,,,60,100
40064,note_off,,,,,128,0,8,,,,,0,,,76,100
40064,note_off,,,,,128,0,13,,,,,5,,,45,100
40128,note_on,,,,,64,0,9,,,,,1,,,69,90
40128,note_on,,,,,64,0,13,,,,,5,,,53,90
40128,note_on,,,,,64,0,8,,,,,0,,,69,90
40192,note_off,,,,,64,0,13,,,,,5,,,53,100
40192,note_off,,,,,256,0,16,,,,,7,,,41,100
40192,note_off,,,,,0,0,15,,,,,7,,,64,100
40192,note_off,,,,,64,0,9,,,,,1,,,69,100
40192,note_off,,,,,256,0,14,,,,,6,,,41,100
40192,note_off,,,,,256,0,15,,,,,7,,,60,100
40224,note_on,,,,,32,0,13,,,,,5,,,52,90
40224,note_on,,,,,32,0,9,,,,,1,,,67,90
40256,note_off,,,,,128,0,8,,,,,0,,,69,100
40288,note_off,,,,,64,0,13,,,,,5,,,52,100
40288,note_off,,,,,64,0,9,,,,,1,,,67,100
40320,note_on,,,,,32,0,13,,,,,5,,,50,90
40320,note_on,,,,,64,0,8,,,,,0,,,74,90
40320,note_on,,,,,32,0,9,,,,,1,,,65,90
40384,note_off,,,,,64,0,13,,,,,5,,,50,100
40384,note_off,,,,,64,0,9,,,,,1,,,65,100
40416,note_on,,,,,32,0,13,,,,,5,,,48,90
40416,note_on,,,,,32,0,9,,,,,1,,,64,90
40448,note_off,,,,,128,0,8,,,,,0,,,74,100
40480,note_off,,,,,64,0,13,,,,,5,,,48,100
40480,note_off,,,,,64,0,9,,,,,1,,,64,100
40512,note_on,,,,,64,0,8,,,,,0,,,74,90
40512,note_on,,,,,320,0,15,,,,,7,,,60,100
40512,note_on,,,,,320,0,14,,,,,6,,,41,90
40512,note_on,,,,,0,0,15,,,,,7,,,69,100
40512,note_on,,,,,32,0,9,,,,,1,,,62,90
40512,note_on,,,,,32,0,13,,,,,5,,,47,90
40512,note_on,,,,,320,0,16,,,,,7,,,53,90
40576,note_off,,,,,64,0,9,,,,,1,,,62,100
40576,note_off,,,,,64,0,13,,,,,5,,,47,100
40608,note_on,,,,,32,0,9,,,,,1,,,60,90
40608,note_on,,,,,32,0,13,,,,,5,,,45,90
40640,note_off,,,,,0,0,15,,,,,7,,,69,100
40640,note_off,,,,,128,0,15,,,,,7,,,60,100
40640,note_off,,,,,128,0,14,,,,,6,,,41,100
40640,note_off,,,,,128,0,8,,,,,0,,,74,100
40640,note_off,,,,,128,0,16,,,,,7,,,53,100
40672,note_off,,,,,64,0,13,,,,,5,,,45,100
40672,note_off,,,,,64,0,9,,,,,1,,,60,100
40704,note_on,,,,,64,0,16,,,,,7,,,44,90
40704,note_on,,,,,64,0,15,,,,,7,,,62,100
40704,note_on,,,,,64,0,14,,,,,6,,,32,90
40704,note_on,,,,,32,0,13,,,,,5,,,44,90
40704,note_on,,,,,64,0,8,,,,,0,,,74,90
40704,note_on,,,,,0,0,15,,,,,7,,,64,100
40704,note_on,,,,,32,0,9,,,,,1,,,59,90
40832,note_off,,,,,128,0,9,,,,,1,,,59,100
40832,note_off,,,,,128,0,8,,,,,0,,,74,100
40832,note_off,,,,,128,0,16,,,,,7,,,44,100
40832,note_off,,,,,128,0,14,,,,,6,,,32,100
40832,note_off,,,,,0,0,15,,,,,7,,,64,100
40832,note_off,,,,,128,0,15,,,,,7,,,62,100
40832,note_off,,,,,128,0,13,,,,,5,,,44,100
40896,note_on,,,,,64,0,14,,,,,6,,,32,90
40896,note_on,,,,,0,0,15,,,,,7,,,64,100
40896,note_on,,,,,64,0,8,,,,,0,,,76,90
40896,note_on,,,,,64,0,9,,,,,1,,,71,90
40896,note_on,,,,,64,0,13,,,,,5,,,44,90
40896,note_on,,,,,64,0,16,,,,,7,,,44,90
40896,note_on,,,,,64,0,15,,,,,7,,,62,100
40960,note_off,,,,,64,0,8,,,,,0,,,76,100
40992,note_on,,,,,32,0,8,,,,,0,,,77,90
41024,note_off,,,,,128,0,9,,,,,1,,,71,100
41024,note_off,,,,,128,0,15,,,,,7,,,62,100
41024,note_off,,,,,0,0,15,,,,,7,,,64,100
41024,note_off,,,,,128,0,13,,,,,5,,,44,100
41024,note_off,,,,,128,0,16,,,,,7,,,44,100
41024,note_off,,,,,128,0,14,,,,,6,,,32,100
41056,note_off,,,,,64,0,8,,,,,0,,,77,100
41088,note_on,,,,,64,0,14,,,,,6,,,32,90
41088,note_on,,,,,64,0,15,,,,,7,,,62,100
41088,note_on,,,,,0,0,15,,,,,7,,,64,100
41088,note_on,,,,,64,0,13,,,,,5,,,44,90
41088,note_on,,,,,64,0,9,,,,,1,,,71,90
41088,note_on,,,,,64,0,16,,,,,7,,,44,90
41088,note_on,,,,,32,0,8,,,,,0,,,76,90
41216,note_off,,,,,128,0,16,,,,,7,,,44,100
41216,note_off,,,,,0,0,15,,,,,7,,,64,100
41216,note_off,,,,,128,0,14,,,,,6,,,32,100
41216,note_off,,,,,128,0,9,,,,,1,,,71,100
41216,note_off,,,,,128,0,15,,,,,7,,,62,100
41216,note_off,,,,,128,0,13,,,,,5,,,44,100
41216,note_off,,,,,128,0,8,,,,,0,,,76,100
41280,note_on,,,,,64,0,14,,,,,6,,,32,90
41280,note_on,,,,,64,0,9,,,,,1,,,71,90
41280,note_on,,,,,64,0,15,,,,,7,,,62,100
41280,note_on,,,,,64,0,13,,,,,5,,,44,90
41280,note_on,,,,,0,0,15,,,,,7,,,64,100
41280,note_on,,,,,64,0,8,,,,,0,,,74,90
41280,note_on,,,,,64,0,16,,,,,7,,,44,90
41408,note_off,,,,,128,0,9,,,,,1,,,71,100
41408,note_off,,,,,128,0,15,,,,,7,,,62,100
41408,note_off,,,,,128,0,13,,,,,5,,,44,100
41408,note_off,,,,,0,0,15,,,,,7,,,64,100
41408,note_off,,,,,128,0,8,,,,,0,,,74,100
41408,note_off,,,,,128,0,14,,,,,6,,,32,100
41408,note_off,,,,,128,0,16,,,,,7,,,44,100
41472,note_on,,,,,64,0,15,,,,,7,,,60,100
41472,note_on,,,,,0,0,15,,,,,7,,,64,100
41472,note_on,,,,,64,0,14,,,,,6,,,33,90
41472,note_on,,,,,64,0,8,,,,,0,,,72,90
41472,note_on,,,,,64,0,16,,,,,7,,,45,90
41472,note_on,,,,,64,0,13,,,,,5,,,45,90
41472,note_on,,,,,64,0,9,,,,,1,,,64,90
41536,note_off,,,,,64,0,8,,,,,0,,,72,100
41568,note_on,,,,,32,0,8,,,,,0,,,76,92
41600,note_off,,,,,128,0,9,,,,,1,,,64,100
41632,note_off,,,,,64,0,8,,,,,0,,,76,100
41664,note_on,,,,,64,0,9,,,,,1,,,76,94
41664,note_on,,,,,32,0,8,,,,,0,,,81,94
41728,note_off,,,,,0,0,15,,,,,7,,,64,100
41728,note_off,,,,,256,0,14,,,,,6,,,33,100
41728,note_off,,,,,256,0,16,,,,,7,,,45,100
41728,note_off,,,,,256,0,13,,,,,5,,,45,100
41728,note_off,,,,,64,0,8,,,,,0,,,81,100
41728,note_off,,,,,256,0,15,,,,,7,,,60,100
41760,note_on,,,,,32,0,8,,,,,0,,,79,97
41792,note_off,,,,,128,0,9,,,,,1,,,76,100
41824,note_off,,,,,64,0,8,,,,,0,,,79,100
41856,note_on,,,,,64,0,9,,,,,1,,,72,99
41856,note_on,,,,,32,0,8,,,,,0,,,81,99
41920,note_off,,,,,64,0,8,,,,,0,,,81,100
41952,note_on,,,,,32,0,8,,,,,0,,,76,100
41984,note_off,,,,,128,0,9,,,,,1,,,72,100
42016,note_off,,,,,64,0,8,,,,,0,,,76,100
42048,note_on,,,,,32,0,8,,,,,0,,,77,100
42048,note_on,,,,,0,0,15,,,,,7,,,64,100
42048,note_on,,,,,320,0,14,,,,,6,,,33,100
42048,note_on,,,,,320,0,15,,,,,7,,,60,100
42048,note_on,,,,,320,0,16,,,,,7,,,45,100
42048,note_on,,,,,64,0,9,,,,,1,,,69,100
42112,note_off,,,,,64,0,8,,,,,0,,,77,100
42144,note_on,,,,,32,0,8,,,,,0,,,79,100
42176,note_off,,,,,0,0,15,,,,,7,,,64,100
42176,note_off,,,,,128,0,16,,,,,7,,,45,100
42176,note_off,,,,,128,0,14,,,,,6,,,33,100
42176,note_off,,,,,128,0,15,,,,,7,,,60,100
42176,note_off,,,,,128,0,9,,,,,1,,,69,100
42208,note_off,,,,,64,0,8,,,,,0,,,79,100
42240,note_on,,,,,64,0,16,,,,,7,,,50,100
42240,note_on,,,,,32,0,8,,,,,0,,,77,100
42240,note_on,,,,,64,0,15,,,,,7,,,69,100
42240,note_on,,,,,0,0,15,,,,,7,,,72,100
42240,note_on,,,,,64,0,14,,,,,6,,,38,100
42336,note_on,,,,,608,0,13,,,,,5,,,53,100
42400,note_off,,,,,64,0,13,,,,,5,,,53,100
42432,note_on,,,,,256,0,9,,,,,1,,,81,100
42432,note_on,,,,,32,0,13,,,,,5,,,62,100
42496,note_off,,,,,0,0,15,,,,,7,,,72,100
42496,note_off,,,,,256,0,15,,,,,7,,,69,100
42496,note_off,,,,,64,0,13,,,,,5,,,62,100
42496,note_off,,,,,256,0,14,,,,,6,,,38,100
42496,note_off,,,,,256,0,16,,,,,7,,,50,100
42528,note_on,,,,,32,0,13,,,,,5,,,60,100
42560,note_off,,,,,128,0,9,,,,,1,,,81,100
42592,note_off,,,,,64,0,13,,,,,5,,,60,100
42624,note_on,,,,,32,0,13,,,,,5,,,62,100
42624,note_on,,,,,64,0,9,,,,,1,,,77,100
42688,note_off,,,,,64,0,13,,,,,5,,,62,100
42720,note_on,,,,,32,0,13,,,,,5,,,57,100
42752,note_off,,,,,128,0,9,,,,,1,,,77,100
42784,note_off,,,,,64,0,13,,,,,5,,,57,100
42816,note_on,,,,,320,0,16,,,,,7,,,50,100
42816,note_on,,,,,64,0,9,,,,,1,,,74,100
42816,note_on,,,,,320,0,14,,,,,6,,,38,100
42816,note_on,,,,,0,0,15,,,,,7,,,69,100
42816,note_on,,,,,32,0,13,,,,,5,,,58,100
42816,note_on,,,,,320,0,15,,,,,7,,,72,100
42880,note_off,,,,,64,0,13,,,,,5,,,58,100
42912,note_on,,,,,32,0,13,,,,,5,,,60,100
42944,note_off,,,,,128,0,16,,,,,7,,,50,100
42944,note_off,,,,,128,0,15,,,,,7,,,72,100
42944,note_off,,,,,128,0,14,,,,,6,,,38,100
42944,note_off,,,,,128,0,9,,,,,1,,,74,100
42944,note_off,,,,,0,0,15,,,,,7,,,69,100
42976,note_off,,,,,64,0,13,,,,,5,,,60,100
43008,note_on,,,,,0,0,15,,,,,7,,,74,100
43008,note_on,,,,,64,0,15,,,,,7,,,65,100
43008,note_on,,,,,64,0,14,,,,,6,,,43,100
43008,note_on,,,,,64,0,16,,,,,7,,,55,100
43008,note_on,,,,,32,0,13,,,,,5,,,58,100
43072,note_off,,,,,832,0,8,,,,,0,,,77,100
43104,note_on,,,,,32,0,8,,,,,0,,,74,90
43168,note_off,,,,,64,0,8,,,,,0,,,74,100
43200,note_on,,,,,32,0,8,,,,,0,,,79,90
43200,note_on,,,,,256,0,9,,,,,1,,,74,90
43264,note_off,,,,,256,0,15,,,,,7,,,65,100
43264,note_off,,,,,0,0,15,,,,,7,,,74,100
43264,note_off,,,,,256,0,14,,,,,6,,,43,100
43264,note_off,,,,,256,0,16,,,,,7,,,55,100
43264,note_off,,,,,64,0,8,,,,,0,,,79,100
43296,note_on,,,,,32,0,8,,,,,0,,,77,90
43328,note_off,,,,,128,0,9,,,,,1,,,74,100
43360,note_off,,,,,64,0,8,,,,,0,,,77,100
43392,note_on,,,,,64,0,9,,,,,1,,,70,90
43392,note_on,,,,,32,0,8,,,,,0,,,79,90
43456,note_off,,,,,64,0,8,,,,,0,,,79,100
43488,note_on,,,,,32,0,8,,,,,0,,,74,91
43520,note_off,,,,,128,0,9,,,,,1,,,70,100
43552,note_off,,,,,64,0,8,,,,,0,,,74,100
43584,note_on,,,,,320,0,15,,,,,7,,,65,100
43584,note_on,,,,,0,0,15,,,,,7,,,74,100
43584,note_on,,,,,320,0,14,,,,,6,,,43,91
43584,note_on,,,,,32,0,8,,,,,0,,,76,91
43584,note_on,,,,,64,0,9,,,,,1,,,67,91
43584,note_on,,,,,320,0,16,,,,,7,,,55,91
43648,note_off,,,,,64,0,8,,,,,0,,,76,100
43680,note_on,,,,,32,0,8,,,,,0,,,77,91
43712,note_off,,,,,128,0,14,,,,,6,,,43,100
43712,note_off,,,,,128,0,15,,,,,7,,,65,100
43712,note_off,,,,,0,0,15,,,,,7,,,74,100
43712,note_off,,,,,128,0,16,,,,,7,,,55,100
43712,note_off,,,,,128,0,9,,,,,1,,,67,100
43744,note_off,,,,,64,0,8,,,,,0,,,77,100
43776,note_on,,,,,0,0,15,,,,,7,,,70,100
43776,note_on,,,,,64,0,16,,,,,7,,,48,92
43776,note_on,,,,,64,0,14,,,,,6,,,36,92
43776,note_off,,,,,768,0,13,,,,,5,,,58,100
43776,note_on,,,,,32,0,8,,,,,0,,,76,92
43776,note_on,,,,,64,0,15,,,,,7,,,67,100
43872,note_on,,,,,96,0,13,,,,,5,,,55,92
43936,note_off,,,,,64,0,13,,,,,5,,,55,100
43968,note_on,,,,,32,0,13,,,,,5,,,60,92
43968,note_on,,,,,256,0,9,,,,,1,,,79,92
44032,note_off,,,,,256,0,16,,,,,7,,,48,100
44032,note_off,,,,,256,0,14,,,,,6,,,36,100
44032,note_off,,,,,64,0,13,,,,,5,,,60,100
44032,note_off,,,,,0,0,15,,,,,7,,,70,100
44032,note_off,,,,,256,0,15,,,,,7,,,67,100
44064,note_on,,,,,32,0,13,,,,,5,,,58,93
44096,note_off,,,,,128,0,9,,,,,1,,,79,100
44128,note_off,,,,,64,0,13,,,,,5,,,58,100
44160,note_on,,,,,32,0,13,,,,,5,,,60,93
44160,note_on,,,,,64,0,9,,,,,1,,,76,93
44224,note_off,,,,,64,0,13,,,,,5,,,60,100
44256,note_on,,,,,32,0,13,,,,,5,,,55,93
44288,note_off,,,,,128,0,9,,,,,1,,,76,100
44320,note_off,,,,,64,0,13,,,,,5,,,55,100
44352,note_on,,,,,0,0,15,,,,,7,,,67,100
44352,note_on,,,,,320,0,14,,,,,6,,,36,93
44352,note_on,,,,,64,0,9,,,,,1,,,72,93
44352,note_on,,,,,32,0,13,,,,,5,,,57,93
44352,note_on,,,,,320,0,15,,,,,7,,,70,100
44352,note_on,,,,,320,0,16,,,,,7,,,48,93
44416,note_off,,,,,64,0,13,,,,,5,,,57,100
44448,note_on,,,,,32,0,13,,,,,5,,,58,94
44480,note_off,,,,,128,0,16,,,,,7,,,48,100
44480,note_off,,,,,0,0,15,,,,,7,,,67,100
44480,note_off,,,,,128,0,14,,,,,6,,,36,100
44480,note_off,,,,,128,0,15,,,,,7,,,70,100
44480,note_off,,,,,128,0,9,,,,,1,,,72,100
44512,note_off,,,,,64,0,13,,,,,5,,,58,100
44544,note_on,,,,,64,0,15,,,,,7,,,64,100
44544,note_on,,,,,32,0,13,,,,,5,,,57,94
44544,note_on,,,,,64,0,14,,,,,6,,,41,94
44544,note_on,,,,,64,0,16,,,,,7,,,53,94
44544,note_on,,,,,0,0,15,,,,,7,,,72,100
44608,note_off,,,,,832,0,8,,,,,0,,,76,100
44640,note_on,,,,,32,0,8,,,,,0,,,72,94
44704,note_off,,,,,64,0,8,,,,,0,,,72,100
44736,note_on,,,,,256,0,9,,,,,1,,,72,95
44736,note_on,,,,,32,0,8,,,,,0,,,77,95
44800,note_off,,,,,256,0,15,,,,,7,,,64,100
44800,note_off,,,,,64,0,8,,,,,0,,,77,100
44800,note_off,,,,,256,0,16,,,,,7,,,53,100
44800,note_off,,,,,0,0,15,,,,,7,,,72,100
44800,note_off,,,,,256,0,14,,,,,6,,,41,100
44832,note_on,,,,,32,0,8,,,,,0,,,76,95
44864,note_off,,,,,128,0,9,,,,,1,,,72,100
44896,note_off,,,,,64,0,8,,,,,0,,,76,100
44928,note_on,,,,,32,0,8,,,,,0,,,77,95
44928,note_on,,,,,64,0,9,,,,,1,,,69,95
44928,note_off,,,,,384,0,13,,,,,5,,,57,100
44992,note_off,,,,,64,0,8,,,,,0,,,77,100
45024,note_on,,,,,32,0,8,,,,,0,,,72,96
45056,note_off,,,,,128,0,9,,,,,1,,,69,100
45088,note_off,,,,,64,0,8,,,,,0,,,72,100
45120,note_on,,,,,192,0,13,,,,,5,,,57,96
45120,note_on,,,,,32,0,8,,,,,0,,,74,96
45120,note_on,,,,,64,0,9,,,,,1,,,65,96
45120,note_on,,,,,0,0,15,,,,,7,,,72,100
45120,note_on,,,,,320,0,15,,,,,7,,,64,100
45120,note_on,,,,,320,0,16,,,,,7,,,53,96
45120,note_on,,,,,320,0,14,,,,,6,,,41,96
45184,note_off,,,,,64,0,8,,,,,0,,,74,100
45216,note_on,,,,,32,0,8,,,,,0,,,76,96
45248,note_off,,,,,128,0,14,,,,,6,,,41,100
45248,note_off,,,,,0,0,15,,,,,7,,,72,100
45248,note_off,,,,,128,0,16,,,,,7,,,53,100
45248,note_off,,,,,128,0,9,,,,,1,,,65,100
45248,note_off,,,,,128,0,13,,,,,5,,,57,100
45248,note_off,,,,,128,0,15,,,,,7,,,64,100
45280,note_off,,,,,64,0,8,,,,,0,,,76,100
45312,note_on,,,,,64,0,14,,,,,6,,,32,96
45312,note_on,,,,,32,0,8,,,,,0,,,74,96
45312,note_on,,,,,64,0,15,,,,,7,,,62,100
45312,note_on,,,,,0,0,15,,,,,7,,,64,100
45312,note_on,,,,,64,0,16,,,,,7,,,44,96
45312,note_on,,,,,64,0,13,,,,,5,,,59,96
45440,note_off,,,,,128,0,8,,,,,0,,,74,100
45504,note_on,,,,,64,0,8,,,,,0,,,76,97
45504,note_on,,,,,256,0,9,,,,,1,,,77,97
45568,note_off,,,,,64,0,8,,,,,0,,,76,100
45600,note_on,,,,,32,0,8,,,,,0,,,77,97
45632,note_off,,,,,128,0,9,,,,,1,,,77,100
45664,note_off,,,,,64,0,8,,,,,0,,,77,100
45696,note_off,,,,,384,0,15,,,,,7,,,62,100
45696,note_on,,,,,64,0,9,,,,,1,,,74,98
45696,note_off,,,,,0,0,15,,,,,7,,,64,100
45696,note_off,,,,,384,0,16,,,,,7,,,44,100
45696,note_off,,,,,384,0,13,,,,,5,,,59,100
45696,note_on,,,,,32,0,8,,,,,0,,,76,98
45696,note_off,,,,,384,0,14,,,,,6,,,32,100
45824,note_off,,,,,128,0,8,,,,,0,,,76,100
45824,note_off,,,,,128,0,9,,,,,1,,,74,100
45888,note_on,,,,,192,0,14,,,,,6,,,32,98
45888,note_on,,,,,192,0,15,,,,,7,,,62,100
45888,note_on,,,,,192,0,13,,,,,5,,,56,98
45888,note_on,,,,,0,0,15,,,,,7,,,64,100
45888,note_on,,,,,64,0,8,,,,,0,,,74,98
45888,note_on,,,,,64,0,9,,,,,1,,,71,98
45888,note_on,,,,,192,0,16,,,,,7,,,44,98
46016,note_off,,,,,0,0,15,,,,,7,,,64,100
46016,note_off,,,,,128,0,13,,,,,5,,,56,100
46016,note_off,,,,,128,0,8,,,,,0,,,74,100
46016,note_off,,,,,128,0,15,,,,,7,,,62,100
46016,note_off,,,,,128,0,9,,,,,1,,,71,100
46016,note_off,,,,,128,0,16,,,,,7,,,44,100
46016,note_off,,,,,128,0,14,,,,,6,,,32,100
46080,note_on,,,,,64,0,8,,,,,0,,,72,99
46080,note_on,,,,,64,0,13,,,,,5,,,57,99
46080,note_on,,,,,64,0,16,,,,,7,,,45,99
46080,note_on,,,,,0,0,15,,,,,7,,,64,100
46080,note_on,,,,,64,0,15,,,,,7,,,60,100
46080,note_on,,,,,64,0,14,,,,,6,,,33,99
46080,note_on,,,,,64,0,9,,,,,1,,,64,99
46208,note_off,,,,,128,0,8,,,,,0,,,72,100
46208,note_off,,,,,128,0,13,,,,,5,,,57,100
46208,note_off,,,,,128,0,9,,,,,1,,,64,100
46272,note_on,,,,,64,0,13,,,,,5,,,57,99
46272,note_on,,,,,64,0,9,,,,,1,,,72,99
46272,note_on,,,,,64,0,8,,,,,0,,,69,99
46336,note_off,,,,,256,0,16,,,,,7,,,45,100
46336,note_off,,,,,64,0,9,,,,,1,,,72,100
46336,note_off,,,,,256,0,14,,,,,6,,,33,100
46336,note_off,,,,,0,0,15,,,,,7,,,64,100
46336,note_off,,,,,64,0,13,,,,,5,,,57,100
46336,note_off,,,,,256,0,15,,,,,7,,,60,100
46368,note_on,,,,,32,0,13,,,,,5,,,59,100
46368,note_on,,,,,32,0,9,,,,,1,,,74,100
46400,note_off,,,,,128,0,8,,,,,0,,,69,100
46432,note_off,,,,,64,0,13,,,,,5,,,59,100
46432,note_off,,,,,64,0,9,,,,,1,,,74,100
46464,note_on,,,,,32,0,13,,,,,5,,,60,100
46464,note_on,,,,,64,0,8,,,,,0,,,81,100
46464,note_on,,,,,32,0,9,,,,,1,,,76,100
46592,note_off,,,,,128,0,13,,,,,5,,,60,100
46592,note_off,,,,,128,0,9,,,,,1,,,76,100
46656,note_on,,,,,320,0,16,,,,,7,,,45,100
46656,note_on,,,,,64,0,9,,,,,1,,,76,100
46656,note_on,,,,,320,0,14,,,,,6,,,33,100
46656,note_on,,,,,0,0,15,,,,,7,,,64,100
46656,note_on,,,,,320,0,15,,,,,7,,,60,100
46656,note_on,,,,,64,0,13,,,,,5,,,60,100
46784,note_off,,,,,128,0,14,,,,,6,,,33,100
46784,note_off,,,,,128,0,16,,,,,7,,,45,100
46784,note_off,,,,,128,0,9,,,,,1,,,76,100
46784,note_off,,,,,128,0,13,,,,,5,,,60,100
46784,note_off,,,,,128,0,15,,,,,7,,,60,100
46784,note_off,,,,,0,0,15,,,,,7,,,64,100
46848,note_on,,,,,64,0,16,,,,,7,,,50,100
46848,note_on,,,,,64,0,14,,,,,6,,,38,100
46848,note_on,,,,,64,0,9,,,,,1,,,77,100
46848,note_on,,,,,0,0,15,,,,,7,,,69,100
46848,note_on,,,,,64,0,15,,,,,7,,,71,100
46848,note_on,,,,,64,0,13,,,,,5,,,59,100
46848,note_off,,,,,384,0,8,,,,,0,,,81,100
46976,note_off,,,,,128,0,15,,,,,7,,,69,100
46976,note_off,,,,,128,0,16,,,,,7,,,50,100
46976,note_off,,,,,128,0,9,,,,,1,,,77,100
46976,note_off,,,,,128,0,13,,,,,5,,,59,100
46976,note_off,,,,,128,0,14,,,,,6,,,38,100
47040,note_on,,,,,64,0,15,,,,,7,,,62,100
47040,note_on,,,,,64,0,9,,,,,1,,,74,100
47040,note_on,,,,,192,0,8,,,,,0,,,80,100
47040,note_on,,,,,64,0,14,,,,,6,,,35,100
47040,note_on,,,,,64,0,13,,,,,5,,,59,100
47040,note_on,,,,,64,0,16,,,,,7,,,47,100
47104,note_off,,,,,64,0,9,,,,,1,,,74,100
47104,note_off,,,,,64,0,15,,,,,7,,,71,100
47104,note_off,,,,,64,0,13,,,,,5,,,59,100
47136,note_on,,,,,32,0,9,,,,,1,,,72,100
47136,note_on,,,,,32,0,13,,,,,5,,,60,100
47168,note_off,,,,,128,0,8,,,,,0,,,80,100
47168,note_off,,,,,64,0,15,,,,,7,,,62,100
47168,note_off,,,,,128,0,14,,,,,6,,,35,100
47168,note_off,,,,,128,0,16,,,,,7,,,47,100
47200,note_off,,,,,64,0,9,,,,,1,,,72,100
47200,note_off,,,,,64,0,13,,,,,5,,,60,100
47232,note_on,,,,,32,0,13,,,,,5,,,62,100
47232,note_on,,,,,64,0,16,,,,,7,,,52,100
47232,note_on,,,,,64,0,15,,,,,7,,,68,100
47232,note_on,,,,,0,0,15,,,,,7,,,71,100
47232,note_on,,,,,32,0,9,,,,,1,,,71,100
47232,note_on,,,,,64,0,14,,,,,6,,,40,100
47232,note_on,,,,,64,0,8,,,,,0,,,80,100
47276,note_off,,,,,44,0,8,,,,,0,,,80,100
47280,note_on,,,,,4,0,8,,,,,0,,,81,100
47324,note_off,,,,,44,0,8,,,,,0,,,81,100
47328,note_on,,,,,4,0,8,,,,,0,,,80,100
47360,note_off,,,,,128,0,14,,,,,6,,,40,100
47360,note_off,,,,,128,0,16,,,,,7,,,52,100
47360,note_off,,,,,128,0,9,,,,,1,,,71,100
47360,note_off,,,,,0,0,15,,,,,7,,,71,100
47360,note_off,,,,,128,0,15,,,,,7,,,68,100
47360,note_off,,,,,128,0,13,,,,,5,,,62,100
47372,note_off,,,,,44,0,8,,,,,0,,,80,100
47376,note_on,,,,,4,0,8,,,,,0,,,81,100
47420,note_off,,,,,44,0,8,,,,,0,,,81,100
47424,note_on,,,,,0,0,15,,,,,7,,,68,100
47424,note_on,,,,,4,0,8,,,,,0,,,80,100
47424,note_on,,,,,64,0,9,,,,,1,,,72,100
47424,note_on,,,,,64,0,13,,,,,5,,,59,100
47424,note_on,,,,,64,0,14,,,,,6,,,40,100
47424,note_on,,,,,64,0,16,,,,,7,,,40,100
47424,note_on,,,,,64,0,15,,,,,7,,,59,100
47488,note_off,,,,,64,0,8,,,,,0,,,80,100
47520,note_on,,,,,32,0,8,,,,,0,,,78,100
47552,note_off,,,,,128,0,14,,,,,6,,,40,100
47552,note_off,,,,,128,0,13,,,,,5,,,59,100
47552,note_off,,,,,128,0,15,,,,,7,,,59,100
47552,note_off,,,,,128,0,9,,,,,1,,,72,100
47552,note_off,,,,,128,0,16,,,,,7,,,40,100
47552,note_off,,,,,0,0,15,,,,,7,,,68,100
47564,note_off,,,,,44,0,8,,,,,0,,,78,100
47568,note_on,,,,,4,0,8,,,,,0,,,80,100
47600,note_off,,,,,32,0,8,,,,,0,,,80,100
47616,note_on,,,,,64,0,15,,,,,7,,,69,100
47616,note_on,,,,,64,0,9,,,,,1,,,76,100
47616,note_on,,,,,64,0,14,,,,,6,,,33,100
47616,note_on,,,,,16,0,8,,,,,0,,,81,100
47616,note_on,,,,,64,0,16,,,,,7,,,45,100
47616,note_on,,,,,0,0,15,,,,,7,,,64,100
47616,note_on,,,,,0,0,15,,,,,7,,,60,100
47616,note_on,,,,,64,0,13,,,,,5,,,60,100
47744,note_off,,,,,0,0,15,,,,,7,,,64,100
47744,note_off,,,,,128,0,13,,,,,5,,,60,100
47744,note_off,,,,,128,0,9,,,,,1,,,76,100
47744,note_off,,,,,128,0,14,,,,,6,,,33,100
47744,note_off,,,,,128,0,16,,,,,7,,,45,100
47744,note_off,,,,,128,0,15,,,,,7,,,69,100
47744,note_off,,,,,0,0,15,,,,,7,,,60,100
47804,program_change,,,,,60,0,13,,,,,5,48,,,
47808,note_on,,,,,12992,0,11,,,,,3,,,72,100
47808,program_change,,,,,64,0,14,,,,,6,48,,,
47808,note_on,,,,,64,0,15,,,,,7,,,60,100
47808,note_on,,,,,4,0,13,,,,,5,,,45,100
47812,note_on,,,,,68,0,16,,,,,7,,,45,100
47812,note_on,,,,,4,0,14,,,,,6,,,33,100
47872,note_off,,,,,64,0,15,,,,,7,,,60,100
47872,note_off,,,,,64,0,11,,,,,3,,,72,100
47872,note_off,,,,,64,0,13,,,,,5,,,45,100
47872,note_off,,,,,256,0,8,,,,,0,,,81,100
47876,note_off,,,,,64,0,14,,,,,6,,,33,100
47876,note_off,,,,,64,0,16,,,,,7,,,45,100
47904,note_on,,,,,32,0,15,,,,,7,,,62,100
47904,note_on,,,,,32,0,11,,,,,3,,,74,100
47904,note_on,,,,,32,0,13,,,,,5,,,47,100
47908,note_on,,,,,32,0,14,,,,,6,,,35,100
47908,note_on,,,,,32,0,16,,,,,7,,,47,100
47968,note_off,,,,,64,0,13,,,,,5,,,47,100
47968,note_off,,,,,64,0,15,,,,,7,,,62,100
47968,note_off,,,,,64,0,11,,,,,3,,,74,100
47972,note_off,,,,,64,0,14,,,,,6,,,35,100
47972,note_off,,,,,64,0,16,,,,,7,,,47,100
48000,note_on,,,,,32,0,15,,,,,7,,,69,100
48000,note_on,,,,,0,0,15,,,,,7,,,64,100
48000,note_on,,,,,32,0,11,,,,,3,,,76,100
48000,note_on,,,,,13184,0,12,,,,,4,,,69,100
48000,note_on,,,,,32,0,13,,,,,5,,,48,100
48004,note_on,,,,,32,0,14,,,,,6,,,36,100
48004,note_on,,,,,32,0,16,,,,,7,,,48,100
48128,note_off,,,,,128,0,15,,,,,7,,,69,100
48128,note_off,,,,,0,0,15,,,,,7,,,64,100
48128,note_off,,,,,128,0,11,,,,,3,,,76,100
48128,note_off,,,,,128,0,13,,,,,5,,,48,100
48132,note_off,,,,,128,0,14,,,,,6,,,36,100
48132,note_off,,,,,128,0,16,,,,,7,,,48,100
48192,note_on,,,,,64,0,13,,,,,5,,,48,100
48192,note_on,,,,,64,0,11,,,,,3,,,76,100
48192,note_on,,,,,0,0,15,,,,,7,,,64,100
48192,note_on,,,,,64,0,15,,,,,7,,,69,100
48196,note_on,,,,,64,0,16,,,,,7,,,48,100
48196,note_on,,,,,64,0,14,,,,,6,,,36,100
48320,note_off,,,,,128,0,13,,,,,5,,,48,100
48320,note_off,,,,,128,0,11,,,,,3,,,76,100
48320,note_off,,,,,128,0,15,,,,,7,,,69,100
48320,note_off,,,,,0,0,15,,,,,7,,,64,100
48324,note_off,,,,,128,0,16,,,,,7,,,48,100
48324,note_off,,,,,128,0,14,,,,,6,,,36,100
48384,note_on,,,,,64,0,11,,,,,3,,,77,100
48384,note_on,,,,,64,0,13,,,,,5,,,47,100
48384,note_on,,,,,0,0,15,,,,,7,,,69,100
48384,note_on,,,,,64,0,15,,,,,7,,,65,100
48388,note_on,,,,,64,0,14,,,,,6,,,35,100
48388,note_on,,,,,64,0,16,,,,,7,,,47,100
48512,note_off,,,,,512,0,12,,,,,4,,,69,100
48512,note_off,,,,,128,0,15,,,,,7,,,65,100
48512,note_off,,,,,0,0,15,,,,,7,,,69,100
48512,note_off,,,,,128,0,11,,,,,3,,,77,100
48512,note_off,,,,,128,0,13,,,,,5,,,47,100
48516,note_off,,,,,128,0,14,,,,,6,,,35,100
48516,note_off,,,,,128,0,16,,,,,7,,,47,100
48576,note_on,,,,,64,0,15,,,,,7,,,62,100
48576,note_on,,,,,64,0,11,,,,,3,,,74,100
48576,note_on,,,,,64,0,13,,,,,5,,,47,100
48580,note_on,,,,,64,0,14,,,,,6,,,35,100
48580,note_on,,,,,64,0,16,,,,,7,,,47,100
48640,note_off,,,,,64,0,13,,,,,5,,,47,100
48640,note_off,,,,,64,0,11,,,,,3,,,74,100
48640,note_off,,,,,64,0,15,,,,,7,,,62,100
48644,note_off,,,,,64,0,14,,,,,6,,,35,100
48644,note_off,,,,,64,0,16,,,,,7,,,47,100
48672,note_on,,,,,32,0,11,,,,,3,,,72,100
48672,note_on,,,,,32,0,13,,,,,5,,,48,100
48672,note_on,,,,,32,0,15,,,,,7,,,64,100
48676,note_on,,,,,32,0,16,,,,,7,,,48,100
48676,note_on,,,,,32,0,14,,,,,6,,,36,100
48736,note_off,,,,,64,0,11,,,,,3,,,72,100
48736,note_off,,,,,64,0,13,,,,,5,,,48,100
48736,note_off,,,,,64,0,15,,,,,7,,,64,100
48740,note_off,,,,,64,0,14,,,,,6,,,36,100
48740,note_off,,,,,64,0,16,,,,,7,,,48,100
48768,note_on,,,,,32,0,15,,,,,7,,,71,100
48768,note_on,,,,,32,0,13,,,,,5,,,50,100
48768,note_on,,,,,0,0,15,,,,,7,,,68,100
48768,note_on,,,,,32,0,11,,,,,3,,,71,100
48768,note_on,,,,,256,0,12,,,,,4,,,68,100
48772,note_on,,,,,32,0,14,,,,,6,,,38,100
48772,note_on,,,,,32,0,16,,,,,7,,,50,100
48896,note_off,,,,,128,0,13,,,,,5,,,50,100
48896,note_off,,,,,128,0,15,,,,,7,,,71,100
48896,note_off,,,,,0,0,15,,,,,7,,,68,100
48896,note_off,,,,,128,0,11,,,,,3,,,71,100
48900,note_off,,,,,128,0,14,,,,,6,,,38,100
48900,note_off,,,,,128,0,16,,,,,7,,,50,100
48960,note_on,,,,,64,0,13,,,,,5,,,47,100
48960,note_on,,,,,0,0,15,,,,,7,,,62,100
48960,note_on,,,,,64,0,15,,,,,7,,,68,100
48960,note_on,,,,,64,0,11,,,,,3,,,74,100
48964,note_on,,,,,64,0,14,,,,,6,,,35,100
48964,note_on,,,,,64,0,16,,,,,7,,,47,100
49024,note_off,,,,,256,0,12,,,,,4,,,68,100
49088,note_off,,,,,128,0,15,,,,,7,,,68,100
49088,note_off,,,,,0,0,15,,,,,7,,,62,100
49088,note_off,,,,,128,0,13,,,,,5,,,47,100
49088,note_off,,,,,128,0,11,,,,,3,,,74,100
49092,note_off,,,,,128,0,16,,,,,7,,,47,100
49092,note_off,,,,,128,0,14,,,,,6,,,35,100
49152,note_on,,,,,0,0,15,,,,,7,,,69,100
49152,note_on,,,,,64,0,13,,,,,5,,,48,100
49152,note_on,,,,,128,0,12,,,,,4,,,69,100
49152,note_on,,,,,64,0,11,,,,,3,,,76,100
49152,note_on,,,,,64,0,15,,,,,7,,,64,100
49156,note_on,,,,,64,0,16,,,,,7,,,48,100
49156,note_on,,,,,64,0,14,,,,,6,,,36,100
49280,note_off,,,,,128,0,13,,,,,5,,,48,100
49280,note_off,,,,,128,0,15,,,,,7,,,64,100
49280,note_off,,,,,0,0,15,,,,,7,,,69,100
49280,note_off,,,,,128,0,11,,,,,3,,,76,100
49284,note_off,,,,,128,0,14,,,,,6,,,36,100
49284,note_off,,,,,128,0,16,,,,,7,,,48,100
49344,note_on,,,,,14528,0,10,,,,,2,,,76,100
49344,note_on,,,,,64,0,11,,,,,3,,,69,100
49344,note_on,,,,,64,0,15,,,,,7,,,60,100
49344,note_on,,,,,64,0,13,,,,,5,,,45,100
49344,note_on,,,,,0,0,15,,,,,7,,,64,100
49348,note_on,,,,,64,0,16,,,,,7,,,45,100
49348,note_on,,,,,64,0,14,,,,,6,,,33,100
49408,note_off,,,,,64,0,10,,,,,2,,,76,100
49408,note_off,,,,,64,0,11,,,,,3,,,69,100
49440,note_on,,,,,32,0,10,,,,,2,,,74,100
49440,note_on,,,,,32,0,11,,,,,3,,,71,100
49472,note_off,,,,,128,0,15,,,,,7,,,60,100
49472,note_off,,,,,0,0,15,,,,,7,,,64,100
49472,note_off,,,,,128,0,13,,,,,5,,,45,100
49476,note_off,,,,,128,0,16,,,,,7,,,45,100
49476,note_off,,,,,128,0,14,,,,,6,,,33,100
49504,note_off,,,,,64,0,11,,,,,3,,,71,100
49504,note_off,,,,,64,0,10,,,,,2,,,74,100
49536,note_on,,,,,64,0,15,,,,,7,,,64,100
49536,note_on,,,,,0,0,15,,,,,7,,,72,100
49536,note_on,,,,,64,0,13,,,,,5,,,57,100
49536,note_on,,,,,32,0,11,,,,,3,,,72,100
49536,note_on,,,,,32,0,10,,,,,2,,,72,100
49540,note_on,,,,,64,0,16,,,,,7,,,57,100
49540,note_on,,,,,64,0,14,,,,,6,,,45,100
49600,note_off,,,,,64,0,10,,,,,2,,,72,100
49632,note_on,,,,,32,0,10,,,,,2,,,71,100
49664,note_off,,,,,128,0,11,,,,,3,,,72,100
49696,note_off,,,,,64,0,10,,,,,2,,,71,100
49728,note_on,,,,,64,0,11,,,,,3,,,72,100
49728,note_on,,,,,32,0,10,,,,,2,,,69,100
49792,note_off,,,,,0,0,15,,,,,7,,,72,100
49792,note_off,,,,,64,0,10,,,,,2,,,69,100
49792,note_off,,,,,256,0,15,,,,,7,,,64,100
49792,note_off,,,,,256,0,13,,,,,5,,,57,100
49796,note_off,,,,,256,0,16,,,,,7,,,57,100
49796,note_off,,,,,256,0,14,,,,,6,,,45,100
49824,note_on,,,,,32,0,10,,,,,2,,,67,100
49856,note_off,,,,,128,0,11,,,,,3,,,72,100
49888,note_off,,,,,64,0,10,,,,,2,,,67,100
49920,note_on,,,,,32,0,10,,,,,2,,,65,100
49920,note_on,,,,,128,0,15,,,,,7,,,69,100
49920,note_on,,,,,128,0,13,,,,,5,,,50,100
49920,note_on,,,,,0,0,15,,,,,7,,,72,100
49920,note_on,,,,,64,0,11,,,,,3,,,72,100
49924,note_on,,,,,128,0,16,,,,,7,,,50,100
49924,note_on,,,,,128,0,14,,,,,6,,,38,100
50048,note_off,,,,,128,0,11,,,,,3,,,72,100
50048,note_off,,,,,128,0,10,,,,,2,,,65,100
50112,note_on,,,,,64,0,10,,,,,2,,,74,100
50112,note_on,,,,,64,0,11,,,,,3,,,71,100
50176,note_off,,,,,64,0,10,,,,,2,,,74,100
50176,note_off,,,,,0,0,15,,,,,7,,,72,100
50176,note_off,,,,,256,0,15,,,,,7,,,69,100
50176,note_off,,,,,64,0,11,,,,,3,,,71,100
50176,note_off,,,,,256,0,13,,,,,5,,,50,100
50180,note_off,,,,,256,0,14,,,,,6,,,38,100
50180,note_off,,,,,256,0,16,,,,,7,,,50,100
50188,note_off,,,,,1036,0,12,,,,,4,,,69,100
50208,note_on,,,,,32,0,10,,,,,2,,,72,100
50208,note_on,,,,,32,0,11,,,,,3,,,69,100
50272,note_off,,,,,64,0,10,,,,,2,,,72,100
50272,note_off,,,,,64,0,11,,,,,3,,,69,100
50304,note_on,,,,,32,0,11,,,,,3,,,71,100
50304,note_on,,,,,128,0,13,,,,,5,,,55,100
50304,note_on,,,,,128,0,15,,,,,7,,,65,100
50304,note_on,,,,,0,0,15,,,,,7,,,71,100
50304,note_on,,,,,32,0,10,,,,,2,,,71,100
50304,note_on,,,,,116,0,12,,,,,4,,,67,100
50308,note_on,,,,,128,0,14,,,,,6,,,43,100
50308,note_on,,,,,128,0,16,,,,,7,,,55,100
50368,note_off,,,,,64,0,10,,,,,2,,,71,100
50400,note_on,,,,,32,0,10,,,,,2,,,69,100
50432,note_off,,,,,128,0,11,,,,,3,,,71,100
50464,note_off,,,,,64,0,10,,,,,2,,,69,100
50496,note_on,,,,,32,0,10,,,,,2,,,67,100
50496,note_on,,,,,64,0,11,,,,,3,,,71,100
50560,note_off,,,,,64,0,10,,,,,2,,,67,100
50560,note_off,,,,,0,0,15,,,,,7,,,71,100
50560,note_off,,,,,256,0,15,,,,,7,,,65,100
50560,note_off,,,,,256,0,13,,,,,5,,,55,100
50564,note_off,,,,,256,0,14,,,,,6,,,43,100
50564,note_off,,,,,256,0,16,,,,,7,,,55,100
50592,note_on,,,,,32,0,10,,,,,2,,,65,100
50624,note_off,,,,,128,0,11,,,,,3,,,71,100
50656,note_off,,,,,64,0,10,,,,,2,,,65,100
50688,note_on,,,,,128,0,13,,,,,5,,,48,100
50688,note_on,,,,,32,0,10,,,,,2,,,64,100
50688,note_on,,,,,128,0,15,,,,,7,,,67,100
50688,note_on,,,,,64,0,11,,,,,3,,,71,100
50688,note_on,,,,,0,0,15,,,,,7,,,71,100
50692,note_on,,,,,128,0,16,,,,,7,,,48,100
50692,note_on,,,,,128,0,14,,,,,6,,,36,100
50816,note_off,,,,,128,0,11,,,,,3,,,71,100
50816,note_off,,,,,128,0,10,,,,,2,,,64,100
50880,note_on,,,,,64,0,11,,,,,3,,,64,100
50880,note_on,,,,,64,0,10,,,,,2,,,72,100
50944,note_off,,,,,64,0,10,,,,,2,,,72,100
50944,note_off,,,,,256,0,13,,,,,5,,,48,100
50944,note_off,,,,,256,0,15,,,,,7,,,67,100
50944,note_off,,,,,0,0,15,,,,,7,,,71,100
50948,note_off,,,,,256,0,14,,,,,6,,,36,100
50948,note_off,,,,,256,0,16,,,,,7,,,48,100
50976,note_on,,,,,32,0,10,,,,,2,,,71,100
50992,note_off,,,,,688,0,12,,,,,4,,,67,100
51008,note_off,,,,,128,0,11,,,,,3,,,64,100
51040,note_off,,,,,64,0,10,,,,,2,,,71,100
51072,note_on,,,,,64,0,11,,,,,3,,,69,100
51072,note_on,,,,,32,0,10,,,,,2,,,69,100
51072,note_on,,,,,128,0,15,,,,,7,,,69,100
51072,note_on,,,,,128,0,13,,,,,5,,,53,100
51072,note_on,,,,,80,0,12,,,,,4,,,65,100
51072,note_on,,,,,0,0,15,,,,,7,,,64,100
51076,note_on,,,,,128,0,16,,,,,7,,,53,100
51076,note_on,,,,,128,0,14,,,,,6,,,41,100
51136,note_off,,,,,64,0,10,,,,,2,,,69,100
51168,note_on,,,,,32,0,10,,,,,2,,,67,100
51200,note_off,,,,,128,0,11,,,,,3,,,69,100
51232,note_off,,,,,64,0,10,,,,,2,,,67,100
51264,note_on,,,,,32,0,10,,,,,2,,,65,100
51264,note_on,,,,,64,0,11,,,,,3,,,69,100
51328,note_off,,,,,256,0,15,,,,,7,,,69,100
51328,note_off,,,,,64,0,10,,,,,2,,,65,100
51328,note_off,,,,,256,0,13,,,,,5,,,53,100
51328,note_off,,,,,0,0,15,,,,,7,,,64,100
51332,note_off,,,,,256,0,14,,,,,6,,,41,100
51332,note_off,,,,,256,0,16,,,,,7,,,53,100
51360,note_on,,,,,32,0,10,,,,,2,,,64,100
51392,note_off,,,,,128,0,11,,,,,3,,,69,100
51424,note_off,,,,,64,0,10,,,,,2,,,64,100
51456,note_on,,,,,64,0,11,,,,,3,,,69,100
51456,note_on,,,,,32,0,10,,,,,2,,,62,100
51456,note_on,,,,,128,0,15,,,,,7,,,65,100
51456,note_on,,,,,128,0,13,,,,,5,,,47,100
51456,note_on,,,,,0,0,15,,,,,7,,,69,100
51460,note_on,,,,,128,0,16,,,,,7,,,47,100
51460,note_on,,,,,128,0,14,,,,,6,,,35,100
51584,note_off,,,,,128,0,11,,,,,3,,,69,100
51584,note_off,,,,,128,0,10,,,,,2,,,62,100
51648,note_on,,,,,64,0,11,,,,,3,,,67,100
51648,note_on,,,,,64,0,10,,,,,2,,,71,100
51712,note_off,,,,,256,0,13,,,,,5,,,47,100
51712,note_off,,,,,0,0,15,,,,,7,,,69,100
51712,note_off,,,,,256,0,15,,,,,7,,,65,100
51712,note_off,,,,,64,0,11,,,,,3,,,67,100
51712,note_off,,,,,64,0,10,,,,,2,,,71,100
51716,note_off,,,,,256,0,16,,,,,7,,,47,100
51716,note_off,,,,,256,0,14,,,,,6,,,35,100
51744,note_on,,,,,32,0,10,,,,,2,,,69,100
51744,note_on,,,,,32,0,11,,,,,3,,,65,100
51760,note_off,,,,,688,0,12,,,,,4,,,65,100
51808,note_off,,,,,64,0,10,,,,,2,,,69,100
51808,note_off,,,,,64,0,11,,,,,3,,,65,100
51840,note_on,,,,,128,0,15,,,,,7,,,67,100
51840,note_on,,,,,0,0,15,,,,,7,,,62,100
51840,note_on,,,,,32,0,10,,,,,2,,,67,100
51840,note_on,,,,,128,0,13,,,,,5,,,52,100
51840,note_on,,,,,80,0,12,,,,,4,,,64,100
51840,note_on,,,,,32,0,11,,,,,3,,,67,100
51844,note_on,,,,,128,0,14,,,,,6,,,40,100
51844,note_on,,,,,128,0,16,,,,,7,,,52,100
51904,note_off,,,,,64,0,10,,,,,2,,,67,100
51936,note_on,,,,,32,0,10,,,,,2,,,65,100
51968,note_off,,,,,128,0,11,,,,,3,,,67,100
52000,note_off,,,,,64,0,10,,,,,2,,,65,100
52032,note_on,,,,,32,0,10,,,,,2,,,64,100
52032,note_on,,,,,64,0,11,,,,,3,,,67,100
52096,note_off,,,,,0,0,15,,,,,7,,,62,100
52096,note_off,,,,,256,0,15,,,,,7,,,67,100
52096,note_off,,,,,256,0,13,,,,,5,,,52,100
52096,note_off,,,,,64,0,10,,,,,2,,,64,100
52100,note_off,,,,,256,0,16,,,,,7,,,52,100
52100,note_off,,,,,256,0,14,,,,,6,,,40,100
52128,note_on,,,,,32,0,10,,,,,2,,,62,100
52160,note_off,,,,,128,0,11,,,,,3,,,67,100
52192,note_off,,,,,64,0,10,,,,,2,,,62,100
52224,note_on,,,,,128,0,15,,,,,7,,,64,100
52224,note_on,,,,,32,0,10,,,,,2,,,60,100
52224,note_on,,,,,64,0,11,,,,,3,,,67,100
52224,note_on,,,,,128,0,13,,,,,5,,,45,100
52224,note_on,,,,,0,0,15,,,,,7,,,67,100
52228,note_on,,,,,128,0,16,,,,,7,,,45,100
52228,note_on,,,,,128,0,14,,,,,6,,,33,100
52352,note_off,,,,,128,0,10,,,,,2,,,60,100
52352,note_off,,,,,128,0,11,,,,,3,,,67,100
52416,note_on,,,,,64,0,11,,,,,3,,,60,100
52416,note_on,,,,,64,0,10,,,,,2,,,69,100
52480,note_off,,,,,256,0,15,,,,,7,,,64,100
52480,note_off,,,,,64,0,10,,,,,2,,,69,100
52480,note_off,,,,,0,0,15,,,,,7,,,67,100
52480,note_off,,,,,256,0,13,,,,,5,,,45,100
52484,note_off,,,,,256,0,16,,,,,7,,,45,100
52484,note_off,,,,,256,0,14,,,,,6,,,33,100
52512,note_on,,,,,32,0,10,,,,,2,,,67,100
52528,note_off,,,,,688,0,12,,,,,4,,,64,100
52544,note_off,,,,,128,0,11,,,,,3,,,60,100
52576,note_off,,,,,64,0,10,,,,,2,,,67,100
52608,note_on,,,,,32,0,10,,,,,2,,,65,100
52608,note_on,,,,,80,0,12,,,,,4,,,62,100
52608,note_on,,,,,128,0,13,,,,,5,,,50,100
52608,note_on,,,,,128,0,15,,,,,7,,,62,100
52608,note_on,,,,,64,0,11,,,,,3,,,65,100
52608,note_on,,,,,0,0,15,,,,,7,,,65,100
52612,note_on,,,,,128,0,14,,,,,6,,,38,100
52612,note_on,,,,,128,0,16,,,,,7,,,50,100
52672,note_off,,,,,64,0,10,,,,,2,,,65,100
52704,note_on,,,,,32,0,10,,,,,2,,,64,100
52736,note_off,,,,,128,0,11,,,,,3,,,65,100
52768,note_off,,,,,64,0,10,,,,,2,,,64,100
52800,note_on,,,,,64,0,11,,,,,3,,,65,100
52800,note_on,,,,,32,0,10,,,,,2,,,65,100
52864,note_off,,,,,256,0,12,,,,,4,,,62,100
52864,note_off,,,,,64,0,10,,,,,2,,,65,100
52864,note_off,,,,,256,0,15,,,,,7,,,62,100
52864,note_off,,,,,0,0,15,,,,,7,,,65,100
52896,note_on,,,,,32,0,10,,,,,2,,,62,100
52928,note_off,,,,,128,0,11,,,,,3,,,65,100
52960,note_off,,,,,64,0,10,,,,,2,,,62,100
52992,note_on,,,,,32,0,10,,,,,2,,,67,100
52992,note_on,,,,,0,0,15,,,,,7,,,67,100
52992,note_on,,,,,64,0,11,,,,,3,,,64,100
52992,note_on,,,,,128,0,12,,,,,4,,,64,100
52992,note_on,,,,,128,0,15,,,,,7,,,64,100
53120,note_off,,,,,128,0,10,,,,,2,,,67,100
53120,note_off,,,,,512,0,13,,,,,5,,,50,100
53124,note_off,,,,,512,0,14,,,,,6,,,38,100
53124,note_off,,,,,512,0,16,,,,,7,,,50,100
53184,note_on,,,,,64,0,10,,,,,2,,,69,100
53248,note_off,,,,,64,0,10,,,,,2,,,69,100
53248,note_off,,,,,256,0,15,,,,,7,,,64,100
53248,note_off,,,,,0,0,15,,,,,7,,,67,100
53248,note_off,,,,,256,0,12,,,,,4,,,64,100
53280,note_on,,,,,32,0,10,,,,,2,,,70,100
53344,note_off,,,,,64,0,10,,,,,2,,,70,100
53376,note_on,,,,,256,0,13,,,,,5,,,49,100
53376,note_on,,,,,128,0,15,,,,,7,,,67,100
53376,note_on,,,,,0,0,15,,,,,7,,,69,100
53376,note_on,,,,,128,0,12,,,,,4,,,57,100
53376,note_on,,,,,32,0,10,,,,,2,,,69,100
53376,note_off,,,,,384,0,11,,,,,3,,,64,100
53380,note_on,,,,,256,0,16,,,,,7,,,49,100
53380,note_on,,,,,256,0,14,,,,,6,,,37,100
53504,note_off,,,,,128,0,10,,,,,2,,,69,100
53568,note_on,,,,,192,0,11,,,,,3,,,64,100
53568,note_on,,,,,64,0,10,,,,,2,,,67,100
53632,note_off,,,,,256,0,15,,,,,7,,,67,100
53632,note_off,,,,,0,0,15,,,,,7,,,69,100
53632,note_off,,,,,256,0,12,,,,,4,,,57,100
53632,note_off,,,,,256,0,13,,,,,5,,,49,100
53636,note_off,,,,,256,0,16,,,,,7,,,49,100
53636,note_off,,,,,256,0,14,,,,,6,,,37,100
53696,note_off,,,,,128,0,11,,,,,3,,,64,100
53696,note_off,,,,,128,0,10,,,,,2,,,67,100
53760,note_on,,,,,64,0,11,,,,,3,,,57,100
53760,note_on,,,,,124,0,16,,,,,7,,,50,100
53760,note_on,,,,,128,0,12,,,,,4,,,57,100
53760,note_on,,,,,0,0,15,,,,,7,,,69,100
53760,note_on,,,,,124,0,14,,,,,6,,,38,100
53760,note_on,,,,,128,0,13,,,,,5,,,50,100
53760,note_on,,,,,128,0,15,,,,,7,,,65,100
53760,note_on,,,,,64,0,10,,,,,2,,,65,100
53888,note_off,,,,,128,0,10,,,,,2,,,65,100
53888,note_off,,,,,128,0,12,,,,,4,,,57,100
53952,note_on,,,,,64,0,12,,,,,4,,,62,100
53952,note_on,,,,,64,0,10,,,,,2,,,62,100
54016,note_off,,,,,256,0,13,,,,,5,,,50,100
54016,note_off,,,,,256,0,11,,,,,3,,,57,100
54016,note_off,,,,,256,0,16,,,,,7,,,50,100
54016,note_off,,,,,64,0,12,,,,,4,,,62,100
54016,note_off,,,,,256,0,14,,,,,6,,,38,100
54016,note_off,,,,,256,0,15,,,,,7,,,65,100
54016,note_off,,,,,0,0,15,,,,,7,,,69,100
54048,note_on,,,,,32,0,12,,,,,4,,,64,100
54080,note_off,,,,,128,0,10,,,,,2,,,62,100
54112,note_off,,,,,64,0,12,,,,,4,,,64,100
54144,note_on,,,,,64,0,10,,,,,2,,,74,100
54144,note_on,,,,,32,0,12,,,,,4,,,65,100
54272,note_off,,,,,128,0,12,,,,,4,,,65,100
54336,note_on,,,,,320,0,15,,,,,7,,,65,100
54336,note_on,,,,,0,0,15,,,,,7,,,69,100
54336,note_on,,,,,64,0,12,,,,,4,,,65,100
54336,note_on,,,,,320,0,13,,,,,5,,,50,100
54336,note_on,,,,,320,0,14,,,,,6,,,38,100
54336,note_on,,,,,320,0,11,,,,,3,,,65,100
54336,note_on,,,,,320,0,16,,,,,7,,,50,100
54464,note_off,,,,,128,0,13,,,,,5,,,50,100
54464,note_off,,,,,128,0,12,,,,,4,,,65,100
54464,note_off,,,,,128,0,11,,,,,3,,,65,100
54464,note_off,,,,,0,0,15,,,,,7,,,69,100
54464,note_off,,,,,128,0,15,,,,,7,,,65,100
54464,note_off,,,,,128,0,16,,,,,7,,,50,100
54464,note_off,,,,,128,0,14,,,,,6,,,38,100
54528,note_on,,,,,64,0,12,,,,,4,,,64,100
54528,note_on,,,,,0,0,15,,,,,7,,,64,100
54528,note_on,,,,,64,0,14,,,,,6,,,43,100
54528,note_on,,,,,64,0,15,,,,,7,,,62,100
54528,note_on,,,,,64,0,16,,,,,7,,,55,100
54528,note_on,,,,,64,0,11,,,,,3,,,67,100
54528,note_on,,,,,64,0,13,,,,,5,,,55,100
54656,note_off,,,,,512,0,10,,,,,2,,,74,100
54656,note_off,,,,,128,0,14,,,,,6,,,43,100
54656,note_off,,,,,128,0,13,,,,,5,,,55,100
54656,note_off,,,,,128,0,15,,,,,7,,,62,100
54656,note_off,,,,,0,0,15,,,,,7,,,64,100
54656,note_off,,,,,128,0,16,,,,,7,,,55,100
54656,note_off,,,,,128,0,12,,,,,4,,,64,100
54720,note_on,,,,,64,0,14,,,,,6,,,40,100
54720,note_on,,,,,64,0,12,,,,,4,,,64,100
54720,note_on,,,,,64,0,13,,,,,5,,,52,100
54720,note_on,,,,,0,0,15,,,,,7,,,67,100
54720,note_on,,,,,64,0,15,,,,,7,,,58,100
54720,note_on,,,,,64,0,16,,,,,7,,,52,100
54784,note_off,,,,,64,0,12,,,,,4,,,64,100
54784,note_off,,,,,256,0,11,,,,,3,,,67,100
54816,note_on,,,,,32,0,12,,,,,4,,,65,100
54848,note_off,,,,,128,0,14,,,,,6,,,40,100
54848,note_off,,,,,128,0,16,,,,,7,,,52,100
54848,note_off,,,,,128,0,13,,,,,5,,,52,100
54848,note_off,,,,,128,0,15,,,,,7,,,58,100
54848,note_off,,,,,0,0,15,,,,,7,,,67,100
54880,note_off,,,,,64,0,12,,,,,4,,,65,100
54912,note_on,,,,,256,0,10,,,,,2,,,73,100
54912,note_on,,,,,64,0,16,,,,,7,,,57,100
54912,note_on,,,,,32,0,12,,,,,4,,,67,100
54912,note_on,,,,,64,0,13,,,,,5,,,57,100
54912,note_on,,,,,64,0,15,,,,,7,,,64,100
54912,note_on,,,,,64,0,14,,,,,6,,,45,100
54912,note_on,,,,,0,0,15,,,,,7,,,73,100
54912,note_on,,,,,128,0,11,,,,,3,,,64,100
55040,note_off,,,,,128,0,13,,,,,5,,,57,100
55040,note_off,,,,,128,0,12,,,,,4,,,67,100
55040,note_off,,,,,128,0,16,,,,,7,,,57,100
55040,note_off,,,,,128,0,15,,,,,7,,,64,100
55040,note_off,,,,,0,0,15,,,,,7,,,73,100
55040,note_off,,,,,128,0,11,,,,,3,,,64,100
55040,note_off,,,,,128,0,14,,,,,6,,,45,100
55104,note_on,,,,,64,0,12,,,,,4,,,64,100
55104,note_on,,,,,64,0,11,,,,,3,,,67,100
55104,note_on,,,,,64,0,14,,,,,6,,,33,100
55104,note_on,,,,,0,0,15,,,,,7,,,64,100
55104,note_on,,,,,64,0,13,,,,,5,,,45,100
55104,note_on,,,,,64,0,15,,,,,7,,,61,100
55104,note_on,,,,,64,0,16,,,,,7,,,45,100
55168,note_off,,,,,256,0,10,,,,,2,,,73,100
55232,note_off,,,,,0,0,15,,,,,7,,,64,100
55232,note_off,,,,,128,0,15,,,,,7,,,61,100
55232,note_off,,,,,128,0,14,,,,,6,,,33,100
55232,note_off,,,,,128,0,12,,,,,4,,,64,100
55232,note_off,,,,,128,0,13,,,,,5,,,45,100
55232,note_off,,,,,128,0,16,,,,,7,,,45,100
55232,note_off,,,,,128,0,11,,,,,3,,,67,100
55296,note_on,,,,,64,0,13,,,,,5,,,50,100
55296,note_on,,,,,128,0,10,,,,,2,,,74,100
55296,note_on,,,,,64,0,16,,,,,7,,,50,100
55296,note_on,,,,,64,0,14,,,,,6,,,38,100
55296,note_on,,,,,0,0,15,,,,,7,,,62,100
55296,note_on,,,,,64,0,11,,,,,3,,,69,100
55296,note_on,,,,,64,0,15,,,,,7,,,65,100
55296,note_on,,,,,64,0,12,,,,,4,,,65,100
55424,note_off,,,,,128,0,13,,,,,5,,,50,100
55424,note_off,,,,,128,0,16,,,,,7,,,50,100
55424,note_off,,,,,128,0,14,,,,,6,,,38,100
55424,note_off,,,,,128,0,12,,,,,4,,,65,100
55424,note_off,,,,,0,0,15,,,,,7,,,62,100
55424,note_off,,,,,128,0,15,,,,,7,,,65,100
55424,note_off,,,,,128,0,10,,,,,2,,,74,100
55488,note_on,,,,,64,0,16,,,,,7,,,50,100
55488,note_on,,,,,64,0,10,,,,,2,,,81,100
55488,note_on,,,,,64,0,14,,,,,6,,,38,100
55488,note_on,,,,,64,0,13,,,,,5,,,50,100
55488,note_on,,,,,64,0,12,,,,,4,,,62,100
55488,note_on,,,,,64,0,15,,,,,7,,,62,100
55552,note_off,,,,,64,0,16,,,,,7,,,50,100
55552,note_off,,,,,64,0,14,,,,,6,,,38,100
55552,note_off,,,,,256,0,11,,,,,3,,,69,100
55552,note_off,,,,,64,0,13,,,,,5,,,50,100
55584,note_on,,,,,32,0,16,,,,,7,,,52,100
55584,note_on,,,,,32,0,13,,,,,5,,,52,100
55584,note_on,,,,,32,0,14,,,,,6,,,40,100
55616,note_off,,,,,128,0,12,,,,,4,,,62,100
55616,note_off,,,,,128,0,15,,,,,7,,,62,100
55616,note_off,,,,,128,0,10,,,,,2,,,81,100
55648,note_off,,,,,64,0,13,,,,,5,,,52,100
55648,note_off,,,,,64,0,16,,,,,7,,,52,100
55648,note_off,,,,,64,0,14,,,,,6,,,40,100
55680,note_on,,,,,64,0,10,,,,,2,,,77,100
55680,note_on,,,,,64,0,15,,,,,7,,,74,100
55680,note_on,,,,,64,0,12,,,,,4,,,74,100
55680,note_on,,,,,32,0,16,,,,,7,,,53,100
55680,note_on,,,,,32,0,14,,,,,6,,,41,100
55680,note_on,,,,,32,0,13,,,,,5,,,53,100
55744,note_off,,,,,64,0,16,,,,,7,,,53,100
55744,note_off,,,,,64,0,13,,,,,5,,,53,100
55744,note_off,,,,,64,0,14,,,,,6,,,41,100
55776,note_on,,,,,32,0,13,,,,,5,,,55,100
55776,note_on,,,,,32,0,16,,,,,7,,,55,100
55776,note_on,,,,,32,0,14,,,,,6,,,43,100
55808,note_off,,,,,128,0,15,,,,,7,,,74,100
55808,note_off,,,,,128,0,12,,,,,4,,,74,100
55840,note_off,,,,,64,0,13,,,,,5,,,55,100
55840,note_off,,,,,64,0,16,,,,,7,,,55,100
55840,note_off,,,,,64,0,14,,,,,6,,,43,100
55872,note_on,,,,,32,0,13,,,,,5,,,57,100
55872,note_on,,,,,320,0,11,,,,,3,,,81,100
55872,note_on,,,,,32,0,16,,,,,7,,,57,100
55872,note_on,,,,,64,0,15,,,,,7,,,74,100
55872,note_on,,,,,32,0,14,,,,,6,,,45,100
55872,note_on,,,,,64,0,12,,,,,4,,,74,100
55936,note_off,,,,,64,0,16,,,,,7,,,57,100
55936,note_off,,,,,64,0,13,,,,,5,,,57,100
55936,note_off,,,,,64,0,14,,,,,6,,,45,100
55968,note_on,,,,,32,0,13,,,,,5,,,58,100
55968,note_on,,,,,32,0,16,,,,,7,,,58,100
55968,note_on,,,,,32,0,14,,,,,6,,,46,100
56000,note_off,,,,,128,0,15,,,,,7,,,74,100
56000,note_off,,,,,128,0,12,,,,,4,,,74,100
56000,note_off,,,,,128,0,11,,,,,3,,,81,100
56032,note_off,,,,,64,0,14,,,,,6,,,46,100
56032,note_off,,,,,64,0,13,,,,,5,,,58,100
56032,note_off,,,,,64,0,16,,,,,7,,,58,100
56064,note_on,,,,,0,0,15,,,,,7,,,74,100
56064,note_on,,,,,64,0,12,,,,,4,,,74,100
56064,note_on,,,,,0,0,15,,,,,7,,,67,100
56064,note_on,,,,,64,0,15,,,,,7,,,65,100
56064,note_on,,,,,32,0,16,,,,,7,,,60,100
56064,note_on,,,,,32,0,13,,,,,5,,,60,100
56064,note_on,,,,,64,0,11,,,,,3,,,79,100
56064,note_on,,,,,32,0,14,,,,,6,,,48,100
56192,note_off,,,,,128,0,14,,,,,6,,,48,100
56192,note_off,,,,,0,0,15,,,,,7,,,67,100
56192,note_off,,,,,128,0,15,,,,,7,,,65,100
56192,note_off,,,,,128,0,16,,,,,7,,,60,100
56192,note_off,,,,,128,0,12,,,,,4,,,74,100
56192,note_off,,,,,128,0,13,,,,,5,,,60,100
56192,note_off,,,,,0,0,15,,,,,7,,,74,100
56256,note_on,,,,,64,0,13,,,,,5,,,48,100
56256,note_on,,,,,64,0,15,,,,,7,,,72,100
56256,note_on,,,,,64,0,14,,,,,6,,,36,100
56256,note_on,,,,,64,0,16,,,,,7,,,48,100
56256,note_on,,,,,64,0,12,,,,,4,,,72,100
56320,note_off,,,,,64,0,13,,,,,5,,,48,100
56320,note_off,,,,,64,0,15,,,,,7,,,72,100
56320,note_off,,,,,64,0,16,,,,,7,,,48,100
56320,note_off,,,,,64,0,12,,,,,4,,,72,100
56320,note_off,,,,,64,0,14,,,,,6,,,36,100
56352,note_on,,,,,32,0,16,,,,,7,,,50,100
56352,note_on,,,,,32,0,14,,,,,6,,,38,100
56352,note_on,,,,,32,0,12,,,,,4,,,70,100
56352,note_on,,,,,32,0,15,,,,,7,,,70,100
56352,note_on,,,,,32,0,13,,,,,5,,,50,100
56368,note_off,,,,,688,0,10,,,,,2,,,77,100
56416,note_off,,,,,64,0,15,,,,,7,,,70,100
56416,note_off,,,,,64,0,16,,,,,7,,,50,100
56416,note_off,,,,,64,0,13,,,,,5,,,50,100
56416,note_off,,,,,64,0,14,,,,,6,,,38,100
56416,note_off,,,,,64,0,12,,,,,4,,,70,100
56448,note_on,,,,,32,0,14,,,,,6,,,40,100
56448,note_on,,,,,32,0,12,,,,,4,,,72,100
56448,note_on,,,,,32,0,13,,,,,5,,,52,100
56448,note_on,,,,,32,0,15,,,,,7,,,72,100
56448,note_on,,,,,32,0,16,,,,,7,,,52,100
56448,note_on,,,,,80,0,10,,,,,2,,,76,100
56512,note_off,,,,,64,0,14,,,,,6,,,40,100
56512,note_off,,,,,64,0,13,,,,,5,,,52,100
56512,note_off,,,,,64,0,16,,,,,7,,,52,100
56544,note_on,,,,,32,0,14,,,,,6,,,41,100
56544,note_on,,,,,32,0,13,,,,,5,,,53,100
56544,note_on,,,,,32,0,16,,,,,7,,,53,100
56576,note_off,,,,,128,0,15,,,,,7,,,72,100
56576,note_off,,,,,128,0,12,,,,,4,,,72,100
56608,note_off,,,,,64,0,16,,,,,7,,,53,100
56608,note_off,,,,,64,0,14,,,,,6,,,41,100
56608,note_off,,,,,64,0,13,,,,,5,,,53,100
56640,note_on,,,,,32,0,16,,,,,7,,,55,100
56640,note_on,,,,,32,0,14,,,,,6,,,43,100
56640,note_on,,,,,64,0,12,,,,,4,,,72,100
56640,note_on,,,,,64,0,15,,,,,7,,,72,100
56640,note_on,,,,,32,0,13,,,,,5,,,55,100
56704,note_off,,,,,64,0,13,,,,,5,,,55,100
56704,note_off,,,,,64,0,16,,,,,7,,,55,100
56704,note_off,,,,,64,0,14,,,,,6,,,43,100
56736,note_on,,,,,32,0,16,,,,,7,,,57,100
56736,note_on,,,,,32,0,13,,,,,5,,,57,100
56736,note_on,,,,,32,0,14,,,,,6,,,45,100
56752,note_off,,,,,688,0,11,,,,,3,,,79,100
56768,note_off,,,,,128,0,12,,,,,4,,,72,100
56768,note_off,,,,,128,0,15,,,,,7,,,72,100
56800,note_off,,,,,64,0,16,,,,,7,,,57,100
56800,note_off,,,,,64,0,14,,,,,6,,,45,100
56800,note_off,,,,,64,0,13,,,,,5,,,57,100
56832,note_on,,,,,0,0,15,,,,,7,,,72,100
56832,note_on,,,,,0,0,15,,,,,7,,,65,100
56832,note_on,,,,,64,0,15,,,,,7,,,64,100
56832,note_on,,,,,80,0,11,,,,,3,,,77,100
56832,note_on,,,,,32,0,14,,,,,6,,,46,100
56832,note_on,,,,,32,0,13,,,,,5,,,58,100
56832,note_on,,,,,64,0,12,,,,,4,,,72,100
56832,note_on,,,,,32,0,16,,,,,7,,,58,100
56960,note_off,,,,,128,0,14,,,,,6,,,46,100
56960,note_off,,,,,128,0,12,,,,,4,,,72,100
56960,note_off,,,,,128,0,15,,,,,7,,,64,100
56960,note_off,,,,,0,0,15,,,,,7,,,65,100
56960,note_off,,,,,0,0,15,,,,,7,,,72,100
56960,note_off,,,,,128,0,16,,,,,7,,,58,100
56960,note_off,,,,,128,0,13,,,,,5,,,58,100
57024,note_on,,,,,64,0,14,,,,,6,,,34,100
57024,note_on,,,,,64,0,16,,,,,7,,,46,100
57024,note_on,,,,,64,0,15,,,,,7,,,65,100
57024,note_on,,,,,64,0,13,,,,,5,,,46,100
57024,note_on,,,,,64,0,12,,,,,4,,,65,100
57088,note_off,,,,,64,0,14,,,,,6,,,34,100
57088,note_off,,,,,64,0,16,,,,,7,,,46,100
57088,note_off,,,,,64,0,13,,,,,5,,,46,100
57120,note_on,,,,,32,0,14,,,,,6,,,36,100
57120,note_on,,,,,32,0,16,,,,,7,,,48,100
57120,note_on,,,,,32,0,13,,,,,5,,,48,100
57136,note_off,,,,,688,0,10,,,,,2,,,76,100
57152,note_off,,,,,128,0,15,,,,,7,,,65,100
57152,note_off,,,,,128,0,12,,,,,4,,,65,100
57184,note_off,,,,,64,0,14,,,,,6,,,36,100
57184,note_off,,,,,64,0,16,,,,,7,,,48,100
57184,note_off,,,,,64,0,13,,,,,5,,,48,100
57216,note_on,,,,,32,0,16,,,,,7,,,50,100
57216,note_on,,,,,64,0,12,,,,,4,,,70,100
57216,note_on,,,,,80,0,10,,,,,2,,,74,100
57216,note_on,,,,,64,0,15,,,,,7,,,70,100
57216,note_on,,,,,32,0,13,,,,,5,,,50,100
57216,note_on,,,,,32,0,14,,,,,6,,,38,100
57280,note_off,,,,,64,0,16,,,,,7,,,50,100
57280,note_off,,,,,64,0,13,,,,,5,,,50,100
57280,note_off,,,,,64,0,14,,,,,6,,,38,100
57312,note_on,,,,,32,0,13,,,,,5,,,52,100
57312,note_on,,,,,32,0,14,,,,,6,,,40,100
57312,note_on,,,,,32,0,16,,,,,7,,,52,100
57344,note_off,,,,,128,0,15,,,,,7,,,70,100
57344,note_off,,,,,128,0,12,,,,,4,,,70,100
57376,note_off,,,,,64,0,16,,,,,7,,,52,100
57376,note_off,,,,,64,0,13,,,,,5,,,52,100
57376,note_off,,,,,64,0,14,,,,,6,,,40,100
57408,note_on,,,,,32,0,16,,,,,7,,,53,100
57408,note_on,,,,,32,0,14,,,,,6,,,41,100
57408,note_on,,,,,32,0,13,,,,,5,,,53,100
57408,note_on,,,,,64,0,12,,,,,4,,,70,100
57408,note_on,,,,,64,0,15,,,,,7,,,70,100
57472,note_off,,,,,64,0,16,,,,,7,,,53,100
57472,note_off,,,,,64,0,13,,,,,5,,,53,100
57472,note_off,,,,,64,0,14,,,,,6,,,41,100
57504,note_on,,,,,32,0,16,,,,,7,,,55,100
57504,note_on,,,,,32,0,13,,,,,5,,,55,100
57504,note_on,,,,,32,0,14,,,,,6,,,43,100
57520,note_off,,,,,688,0,11,,,,,3,,,77,100
57536,note_off,,,,,128,0,12,,,,,4,,,70,100
57536,note_off,,,,,128,0,15,,,,,7,,,70,100
57568,note_off,,,,,64,0,14,,,,,6,,,43,100
57568,note_off,,,,,64,0,16,,,,,7,,,55,100
57568,note_off,,,,,64,0,13,,,,,5,,,55,100
57600,note_on,,,,,32,0,16,,,,,7,,,57,100
57600,note_on,,,,,80,0,11,,,,,3,,,76,100
57600,note_on,,,,,0,0,15,,,,,7,,,64,100
57600,note_on,,,,,0,0,15,,,,,7,,,70,100
57600,note_on,,,,,64,0,12,,,,,4,,,70,100
57600,note_on,,,,,32,0,13,,,,,5,,,57,100
57600,note_on,,,,,64,0,15,,,,,7,,,62,100
57600,note_on,,,,,32,0,14,,,,,6,,,45,100
57728,note_off,,,,,128,0,14,,,,,6,,,45,100
57728,note_off,,,,,128,0,15,,,,,7,,,62,100
57728,note_off,,,,,0,0,15,,,,,7,,,64,100
57728,note_off,,,,,0,0,15,,,,,7,,,70,100
57728,note_off,,,,,128,0,12,,,,,4,,,70,100
57728,note_off,,,,,128,0,16,,,,,7,,,57,100
57728,note_off,,,,,128,0,13,,,,,5,,,57,100
57792,note_on,,,,,64,0,13,,,,,5,,,45,100
57792,note_on,,,,,64,0,12,,,,,4,,,69,100
57792,note_on,,,,,64,0,15,,,,,7,,,69,100
57792,note_on,,,,,64,0,16,,,,,7,,,45,100
57792,note_on,,,,,64,0,14,,,,,6,,,33,100
57856,note_off,,,,,64,0,14,,,,,6,,,33,100
57856,note_off,,,,,64,0,13,,,,,5,,,45,100
57856,note_off,,,,,64,0,12,,,,,4,,,69,100
57856,note_off,,,,,64,0,15,,,,,7,,,69,100
57856,note_off,,,,,64,0,16,,,,,7,,,45,100
57888,note_on,,,,,32,0,14,,,,,6,,,34,100
57888,note_on,,,,,32,0,12,,,,,4,,,67,100
57888,note_on,,,,,32,0,15,,,,,7,,,67,100
57888,note_on,,,,,32,0,16,,,,,7,,,46,100
57888,note_on,,,,,32,0,13,,,,,5,,,46,100
57904,note_off,,,,,688,0,10,,,,,2,,,74,100
57952,note_off,,,,,64,0,16,,,,,7,,,46,100
57952,note_off,,,,,64,0,14,,,,,6,,,34,100
57952,note_off,,,,,64,0,12,,,,,4,,,67,100
57952,note_off,,,,,64,0,15,,,,,7,,,67,100
57952,note_off,,,,,64,0,13,,,,,5,,,46,100
57984,note_on,,,,,32,0,13,,,,,5,,,48,100
57984,note_on,,,,,32,0,16,,,,,7,,,48,100
57984,note_on,,,,,32,0,12,,,,,4,,,69,100
57984,note_on,,,,,32,0,15,,,,,7,,,69,100
57984,note_on,,,,,32,0,14,,,,,6,,,36,100
57984,note_on,,,,,80,0,10,,,,,2,,,72,100
58048,note_off,,,,,64,0,13,,,,,5,,,48,100
58048,note_off,,,,,64,0,16,,,,,7,,,48,100
58048,note_off,,,,,64,0,14,,,,,6,,,36,100
58080,note_on,,,,,32,0,13,,,,,5,,,50,100
58080,note_on,,,,,32,0,16,,,,,7,,,50,100
58080,note_on,,,,,32,0,14,,,,,6,,,38,100
58112,note_off,,,,,128,0,15,,,,,7,,,69,100
58112,note_off,,,,,128,0,12,,,,,4,,,69,100
58144,note_off,,,,,64,0,13,,,,,5,,,50,100
58144,note_off,,,,,64,0,16,,,,,7,,,50,100
58144,note_off,,,,,64,0,14,,,,,6,,,38,100
58176,note_on,,,,,64,0,15,,,,,7,,,69,100
58176,note_on,,,,,32,0,13,,,,,5,,,52,100
58176,note_on,,,,,32,0,16,,,,,7,,,52,100
58176,note_on,,,,,32,0,14,,,,,6,,,40,100
58176,note_on,,,,,64,0,12,,,,,4,,,69,100
58240,note_off,,,,,64,0,14,,,,,6,,,40,100
58240,note_off,,,,,64,0,13,,,,,5,,,52,100
58240,note_off,,,,,64,0,16,,,,,7,,,52,100
58272,note_on,,,,,32,0,16,,,,,7,,,53,100
58272,note_on,,,,,32,0,14,,,,,6,,,41,100
58272,note_on,,,,,32,0,13,,,,,5,,,53,100
58288,note_off,,,,,688,0,11,,,,,3,,,76,100
58304,note_off,,,,,128,0,15,,,,,7,,,69,100
58304,note_off,,,,,128,0,12,,,,,4,,,69,100
58336,note_off,,,,,64,0,16,,,,,7,,,53,100
58336,note_off,,,,,64,0,13,,,,,5,,,53,100
58336,note_off,,,,,64,0,14,,,,,6,,,41,100
58368,note_on,,,,,0,0,15,,,,,7,,,62,100
58368,note_on,,,,,80,0,11,,,,,3,,,74,100
58368,note_on,,,,,64,0,12,,,,,4,,,69,100
58368,note_on,,,,,32,0,13,,,,,5,,,55,100
58368,note_on,,,,,64,0,15,,,,,7,,,60,100
58368,note_on,,,,,32,0,14,,,,,6,,,43,100
58368,note_on,,,,,32,0,16,,,,,7,,,55,100
58368,note_on,,,,,0,0,15,,,,,7,,,69,100
58496,note_off,,,,,128,0,14,,,,,6,,,43,100
58496,note_off,,,,,0,0,15,,,,,7,,,62,100
58496,note_off,,,,,0,0,15,,,,,7,,,69,100
58496,note_off,,,,,128,0,16,,,,,7,,,55,100
58496,note_off,,,,,128,0,12,,,,,4,,,69,100
58496,note_off,,,,,128,0,15,,,,,7,,,60,100
58496,note_off,,,,,128,0,13,,,,,5,,,55,100
58560,note_on,,,,,64,0,12,,,,,4,,,62,100
58560,note_on,,,,,64,0,14,,,,,6,,,31,100
58560,note_on,,,,,64,0,16,,,,,7,,,43,100
58560,note_on,,,,,64,0,15,,,,,7,,,62,100
58560,note_on,,,,,64,0,13,,,,,5,,,43,100
58624,note_off,,,,,64,0,16,,,,,7,,,43,100
58624,note_off,,,,,64,0,14,,,,,6,,,31,100
58624,note_off,,,,,64,0,13,,,,,5,,,43,100
58656,note_on,,,,,32,0,13,,,,,5,,,45,100
58656,note_on,,,,,32,0,16,,,,,7,,,45,100
58656,note_on,,,,,32,0,14,,,,,6,,,33,100
58672,note_off,,,,,688,0,10,,,,,2,,,72,100
58688,note_off,,,,,128,0,15,,,,,7,,,62,100
58688,note_off,,,,,128,0,12,,,,,4,,,62,100
58720,note_off,,,,,64,0,16,,,,,7,,,45,100
58720,note_off,,,,,64,0,14,,,,,6,,,33,100
58720,note_off,,,,,64,0,13,,,,,5,,,45,100
58752,note_on,,,,,32,0,16,,,,,7,,,47,100
58752,note_on,,,,,64,0,15,,,,,7,,,67,100
58752,note_on,,,,,64,0,12,,,,,4,,,67,100
58752,note_on,,,,,80,0,10,,,,,2,,,71,100
58752,note_on,,,,,32,0,14,,,,,6,,,35,100
58752,note_on,,,,,32,0,13,,,,,5,,,47,100
58816,note_off,,,,,64,0,16,,,,,7,,,47,100
58816,note_off,,,,,64,0,13,,,,,5,,,47,100
58816,note_off,,,,,64,0,14,,,,,6,,,35,100
58848,note_on,,,,,32,0,13,,,,,5,,,48,100
58848,note_on,,,,,32,0,14,,,,,6,,,36,100
58848,note_on,,,,,32,0,16,,,,,7,,,48,100
58880,note_off,,,,,128,0,15,,,,,7,,,67,100
58880,note_off,,,,,128,0,12,,,,,4,,,67,100
58912,note_off,,,,,64,0,16,,,,,7,,,48,100
58912,note_off,,,,,64,0,14,,,,,6,,,36,100
58912,note_off,,,,,64,0,13,,,,,5,,,48,100
58944,note_on,,,,,32,0,13,,,,,5,,,50,100
58944,note_on,,,,,64,0,12,,,,,4,,,67,100
58944,note_on,,,,,64,0,15,,,,,7,,,67,100
58944,note_on,,,,,32,0,14,,,,,6,,,38,100
58944,note_on,,,,,32,0,16,,,,,7,,,50,100
59008,note_off,,,,,64,0,13,,,,,5,,,50,100
59008,note_off,,,,,64,0,16,,,,,7,,,50,100
59008,note_off,,,,,64,0,14,,,,,6,,,38,100
59040,note_on,,,,,32,0,16,,,,,7,,,52,100
59040,note_on,,,,,32,0,14,,,,,6,,,40,100
59040,note_on,,,,,32,0,13,,,,,5,,,52,100
59056,note_off,,,,,688,0,11,,,,,3,,,74,100
59072,note_off,,,,,128,0,15,,,,,7,,,67,100
59072,note_off,,,,,128,0,12,,,,,4,,,67,100
59104,note_off,,,,,64,0,13,,,,,5,,,52,100
59104,note_off,,,,,64,0,16,,,,,7,,,52,100
59104,note_off,,,,,64,0,14,,,,,6,,,40,100
59136,note_on,,,,,32,0,14,,,,,6,,,41,100
59136,note_on,,,,,0,0,15,,,,,7,,,60,100
59136,note_on,,,,,64,0,12,,,,,4,,,67,100
59136,note_on,,,,,32,0,16,,,,,7,,,53,100
59136,note_on,,,,,0,0,15,,,,,7,,,67,100
59136,note_on,,,,,64,0,15,,,,,7,,,58,100
59136,note_on,,,,,32,0,13,,,,,5,,,53,100
59136,note_on,,,,,80,0,11,,,,,3,,,72,100
59264,note_off,,,,,128,0,12,,,,,4,,,67,100
59264,note_off,,,,,128,0,16,,,,,7,,,53,100
59264,note_off,,,,,0,0,15,,,,,7,,,67,100
59264,note_off,,,,,0,0,15,,,,,7,,,60,100
59264,note_off,,,,,128,0,15,,,,,7,,,58,100
59264,note_off,,,,,128,0,14,,,,,6,,,41,100
59264,note_off,,,,,128,0,13,,,,,5,,,53,100
59328,note_on,,,,,64,0,14,,,,,6,,,41,100
59328,note_on,,,,,64,0,16,,,,,7,,,41,100
59328,note_on,,,,,64,0,13,,,,,5,,,41,100
59328,note_on,,,,,64,0,15,,,,,7,,,60,100
59328,note_on,,,,,64,0,12,,,,,4,,,60,100
59392,note_off,,,,,64,0,13,,,,,5,,,41,100
59392,note_off,,,,,64,0,14,,,,,6,,,41,100
59392,note_off,,,,,64,0,16,,,,,7,,,41,100
59424,note_on,,,,,32,0,16,,,,,7,,,43,100
59424,note_on,,,,,32,0,13,,,,,5,,,43,100
59424,note_on,,,,,32,0,14,,,,,6,,,31,100
59440,note_off,,,,,688,0,10,,,,,2,,,71,100
59456,note_off,,,,,128,0,12,,,,,4,,,60,100
59456,note_off,,,,,128,0,15,,,,,7,,,60,100
59488,note_off,,,,,64,0,13,,,,,5,,,43,100
59488,note_off,,,,,64,0,14,,,,,6,,,31,100
59488,note_off,,,,,64,0,16,,,,,7,,,43,100
59520,note_on,,,,,32,0,16,,,,,7,,,45,100
59520,note_on,,,,,80,0,10,,,,,2,,,69,100
59520,note_on,,,,,32,0,13,,,,,5,,,45,100
59520,note_on,,,,,32,0,14,,,,,6,,,33,100
59584,note_off,,,,,64,0,14,,,,,6,,,33,100
59584,note_off,,,,,64,0,13,,,,,5,,,45,100
59584,note_off,,,,,64,0,16,,,,,7,,,45,100
59616,note_on,,,,,32,0,16,,,,,7,,,47,100
59616,note_on,,,,,32,0,14,,,,,6,,,35,100
59616,note_on,,,,,32,0,13,,,,,5,,,47,100
59680,note_off,,,,,64,0,13,,,,,5,,,47,100
59680,note_off,,,,,64,0,14,,,,,6,,,35,100
59680,note_off,,,,,64,0,16,,,,,7,,,47,100
59712,note_on,,,,,32,0,13,,,,,5,,,48,100
59712,note_on,,,,,32,0,16,,,,,7,,,48,100
59712,note_on,,,,,256,0,15,,,,,7,,,69,100
59712,note_on,,,,,32,0,14,,,,,6,,,36,100
59712,note_on,,,,,256,0,12,,,,,4,,,69,100
59776,note_off,,,,,64,0,13,,,,,5,,,48,100
59776,note_off,,,,,64,0,16,,,,,7,,,48,100
59776,note_off,,,,,64,0,14,,,,,6,,,36,100
59808,note_on,,,,,32,0,13,,,,,5,,,50,100
59808,note_on,,,,,32,0,16,,,,,7,,,50,100
59808,note_on,,,,,32,0,14,,,,,6,,,38,100
59824,note_off,,,,,688,0,11,,,,,3,,,72,100
59840,note_off,,,,,128,0,12,,,,,4,,,69,100
59840,note_off,,,,,128,0,15,,,,,7,,,69,100
59872,note_off,,,,,64,0,14,,,,,6,,,38,100
59872,note_off,,,,,64,0,16,,,,,7,,,50,100
59872,note_off,,,,,64,0,13,,,,,5,,,50,100
59904,note_on,,,,,0,0,15,,,,,7,,,69,100
59904,note_on,,,,,32,0,13,,,,,5,,,52,100
59904,note_on,,,,,32,0,14,,,,,6,,,40,100
59904,note_on,,,,,64,0,12,,,,,4,,,64,100
59904,note_on,,,,,80,0,11,,,,,3,,,71,100
59904,note_on,,,,,64,0,15,,,,,7,,,71,100
59904,note_on,,,,,32,0,16,,,,,7,,,52,100
60032,note_off,,,,,128,0,15,,,,,7,,,69,100
60032,note_off,,,,,128,0,13,,,,,5,,,52,100
60032,note_off,,,,,128,0,16,,,,,7,,,52,100
60032,note_off,,,,,128,0,14,,,,,6,,,40,100
60096,note_on,,,,,64,0,14,,,,,6,,,38,100
60096,note_on,,,,,64,0,13,,,,,5,,,50,100
60096,note_on,,,,,64,0,16,,,,,7,,,50,100
60096,note_on,,,,,64,0,15,,,,,7,,,68,100
60160,note_off,,,,,64,0,15,,,,,7,,,71,100
60160,note_off,,,,,256,0,12,,,,,4,,,64,100
60208,note_off,,,,,688,0,10,,,,,2,,,69,100
60224,note_off,,,,,128,0,16,,,,,7,,,50,100
60224,note_off,,,,,64,0,15,,,,,7,,,68,100
60224,note_off,,,,,128,0,14,,,,,6,,,38,100
60224,note_off,,,,,128,0,13,,,,,5,,,50,100
60288,note_on,,,,,0,0,15,,,,,7,,,71,100
60288,note_on,,,,,128,0,12,,,,,4,,,64,100
60288,note_on,,,,,64,0,15,,,,,7,,,68,100
60288,note_on,,,,,64,0,14,,,,,6,,,40,100
60288,note_on,,,,,80,0,10,,,,,2,,,68,100
60288,note_on,,,,,64,0,13,,,,,5,,,52,100
60288,note_on,,,,,64,0,16,,,,,7,,,52,100
60416,note_off,,,,,128,0,13,,,,,5,,,52,100
60416,note_off,,,,,128,0,15,,,,,7,,,68,100
60416,note_off,,,,,0,0,15,,,,,7,,,71,100
60416,note_off,,,,,128,0,14,,,,,6,,,40,100
60416,note_off,,,,,128,0,16,,,,,7,,,52,100
60480,note_on,,,,,64,0,16,,,,,7,,,40,100
60480,note_on,,,,,64,0,14,,,,,6,,,40,100
60480,note_on,,,,,0,0,15,,,,,7,,,68,100
60480,note_on,,,,,64,0,15,,,,,7,,,59,100
60480,note_on,,,,,64,0,13,,,,,5,,,40,100
60544,note_off,,,,,256,0,10,,,,,2,,,68,100
60544,note_off,,,,,256,0,12,,,,,4,,,64,100
60592,note_off,,,,,688,0,11,,,,,3,,,71,100
60608,note_off,,,,,128,0,16,,,,,7,,,40,100
60608,note_off,,,,,0,0,15,,,,,7,,,68,100
60608,note_off,,,,,128,0,15,,,,,7,,,59,100
60608,note_off,,,,,128,0,14,,,,,6,,,40,100
60608,note_off,,,,,128,0,13,,,,,5,,,40,100
60672,note_on,,,,,0,0,15,,,,,7,,,60,100
60672,note_on,,,,,64,0,15,,,,,7,,,69,100
60672,note_on,,,,,80,0,11,,,,,3,,,69,100
60672,note_on,,,,,64,0,16,,,,,7,,,45,100
60672,note_on,,,,,64,0,14,,,,,6,,,33,100
60672,note_on,,,,,128,0,10,,,,,2,,,69,100
60672,note_on,,,,,64,0,13,,,,,5,,,45,100
60672,note_on,,,,,128,0,12,,,,,4,,,64,100
60800,note_off,,,,,0,0,15,,,,,7,,,60,100
60800,note_off,,,,,128,0,13,,,,,5,,,45,100
60800,note_off,,,,,128,0,10,,,,,2,,,69,100
60800,note_off,,,,,128,0,11,,,,,3,,,69,100
60800,note_off,,,,,128,0,15,,,,,7,,,69,100
60800,note_off,,,,,128,0,16,,,,,7,,,45,100
60800,note_off,,,,,128,0,14,,,,,6,,,33,100
60864,note_on,,,,,64,0,10,,,,,2,,,81,100
60864,note_on,,,,,64,0,13,,,,,5,,,57,100
60864,note_on,,,,,64,0,15,,,,,7,,,64,100
60864,note_on,,,,,64,0,14,,,,,6,,,45,100
60864,note_on,,,,,64,0,11,,,,,3,,,84,100
60864,note_on,,,,,64,0,16,,,,,7,,,57,100
60864,note_on,,,,,0,0,15,,,,,7,,,72,100
60928,note_off,,,,,64,0,11,,,,,3,,,84,100
60928,note_off,,,,,64,0,10,,,,,2,,,81,100
60928,note_off,,,,,256,0,12,,,,,4,,,64,100
60960,note_on,,,,,32,0,10,,,,,2,,,83,100
60960,note_on,,,,,32,0,11,,,,,3,,,83,100
60992,note_off,,,,,0,0,15,,,,,7,,,72,100
60992,note_off,,,,,128,0,15,,,,,7,,,64,100
60992,note_off,,,,,128,0,16,,,,,7,,,57,100
60992,note_off,,,,,128,0,14,,,,,6,,,45,100
60992,note_off,,,,,128,0,13,,,,,5,,,57,100
61024,note_off,,,,,64,0,10,,,,,2,,,83,100
61024,note_off,,,,,64,0,11,,,,,3,,,83,100
61056,note_on,,,,,128,0,12,,,,,4,,,65,100
61056,note_on,,,,,64,0,16,,,,,7,,,53,100
61056,note_on,,,,,64,0,15,,,,,7,,,72,100
61056,note_on,,,,,64,0,14,,,,,6,,,41,100
61056,note_on,,,,,32,0,10,,,,,2,,,84,100
61056,note_on,,,,,32,0,11,,,,,3,,,81,100
61056,note_on,,,,,64,0,13,,,,,5,,,53,100
61056,note_on,,,,,0,0,15,,,,,7,,,69,100
61120,note_off,,,,,64,0,11,,,,,3,,,81,100
61152,note_on,,,,,32,0,11,,,,,3,,,79,100
61184,note_off,,,,,128,0,14,,,,,6,,,41,100
61184,note_off,,,,,128,0,15,,,,,7,,,72,100
61184,note_off,,,,,128,0,13,,,,,5,,,53,100
61184,note_off,,,,,0,0,15,,,,,7,,,69,100
61184,note_off,,,,,128,0,10,,,,,2,,,84,100
61184,note_off,,,,,128,0,16,,,,,7,,,53,100
61216,note_off,,,,,64,0,11,,,,,3,,,79,100
61248,note_on,,,,,64,0,16,,,,,7,,,50,100
61248,note_on,,,,,64,0,14,,,,,6,,,38,100
61248,note_on,,,,,32,0,11,,,,,3,,,77,100
61248,note_on,,,,,64,0,13,,,,,5,,,50,100
61248,note_on,,,,,0,0,15,,,,,7,,,69,100
61248,note_on,,,,,64,0,15,,,,,7,,,65,100
61248,note_on,,,,,64,0,10,,,,,2,,,84,100
61312,note_off,,,,,64,0,11,,,,,3,,,77,100
61312,note_off,,,,,256,0,12,,,,,4,,,65,100
61344,note_on,,,,,32,0,11,,,,,3,,,76,100
61376,note_off,,,,,128,0,13,,,,,5,,,50,100
61376,note_off,,,,,128,0,14,,,,,6,,,38,100
61376,note_off,,,,,128,0,16,,,,,7,,,50,100
61376,note_off,,,,,128,0,15,,,,,7,,,65,100
61376,note_off,,,,,0,0,15,,,,,7,,,69,100
61376,note_off,,,,,128,0,10,,,,,2,,,84,100
61408,note_off,,,,,64,0,11,,,,,3,,,76,100
61440,note_on,,,,,64,0,15,,,,,7,,,74,100
61440,note_on,,,,,0,0,15,,,,,7,,,71,100
61440,note_on,,,,,64,0,10,,,,,2,,,83,100
61440,note_on,,,,,64,0,14,,,,,6,,,43,100
61440,note_on,,,,,32,0,11,,,,,3,,,74,100
61440,note_on,,,,,128,0,12,,,,,4,,,59,100
61440,note_on,,,,,64,0,13,,,,,5,,,55,100
61440,note_on,,,,,64,0,16,,,,,7,,,55,100
61568,note_off,,,,,128,0,10,,,,,2,,,83,100
61568,note_off,,,,,128,0,11,,,,,3,,,74,100
61632,note_on,,,,,64,0,10,,,,,2,,,83,100
61632,note_on,,,,,64,0,11,,,,,3,,,86,100
61696,note_off,,,,,64,0,10,,,,,2,,,83,100
61696,note_off,,,,,256,0,13,,,,,5,,,55,100
61696,note_off,,,,,64,0,11,,,,,3,,,86,100
61696,note_off,,,,,256,0,14,,,,,6,,,43,100
61696,note_off,,,,,0,0,15,,,,,7,,,71,100
61696,note_off,,,,,256,0,16,,,,,7,,,55,100
61696,note_off,,,,,256,0,12,,,,,4,,,59,100
61696,note_off,,,,,256,0,15,,,,,7,,,74,100
61728,note_on,,,,,32,0,11,,,,,3,,,84,100
61728,note_on,,,,,32,0,10,,,,,2,,,84,100
61792,note_off,,,,,64,0,10,,,,,2,,,84,100
61792,note_off,,,,,64,0,11,,,,,3,,,84,100
61824,note_on,,,,,32,0,11,,,,,3,,,83,100
61824,note_on,,,,,32,0,10,,,,,2,,,86,100
61824,note_on,,,,,128,0,12,,,,,4,,,64,100
61888,note_off,,,,,64,0,11,,,,,3,,,83,100
61920,note_on,,,,,32,0,11,,,,,3,,,81,100
61952,note_off,,,,,128,0,10,,,,,2,,,86,100
61984,note_off,,,,,64,0,11,,,,,3,,,81,100
62016,note_on,,,,,64,0,10,,,,,2,,,83,100
62016,note_on,,,,,320,0,13,,,,,5,,,55,100
62016,note_on,,,,,0,0,15,,,,,7,,,71,100
62016,note_on,,,,,320,0,15,,,,,7,,,74,100
62016,note_on,,,,,320,0,16,,,,,7,,,55,100
62016,note_on,,,,,32,0,11,,,,,3,,,79,100
62016,note_on,,,,,320,0,14,,,,,6,,,43,100
62080,note_off,,,,,256,0,12,,,,,4,,,64,100
62080,note_off,,,,,64,0,11,,,,,3,,,79,100
62112,note_on,,,,,32,0,11,,,,,3,,,77,100
62144,note_off,,,,,128,0,16,,,,,7,,,55,100
62144,note_off,,,,,128,0,14,,,,,6,,,43,100
62144,note_off,,,,,128,0,15,,,,,7,,,74,100
62144,note_off,,,,,0,0,15,,,,,7,,,71,100
62144,note_off,,,,,128,0,13,,,,,5,,,55,100
62144,note_off,,,,,128,0,10,,,,,2,,,83,100
62176,note_off,,,,,64,0,11,,,,,3,,,77,100
62208,note_on,,,,,32,0,11,,,,,3,,,76,101
62208,note_on,,,,,64,0,15,,,,,7,,,76,100
62208,note_on,,,,,64,0,16,,,,,7,,,57,101
62208,note_on,,,,,0,0,15,,,,,7,,,73,100
62208,note_on,,,,,64,0,10,,,,,2,,,85,101
62208,note_on,,,,,64,0,13,,,,,5,,,57,101
62208,note_on,,,,,128,0,12,,,,,4,,,57,101
62208,note_on,,,,,64,0,14,,,,,6,,,45,101
62272,note_off,,,,,64,0,16,,,,,7,,,57,100
62272,note_off,,,,,64,0,13,,,,,5,,,57,100
62272,note_off,,,,,64,0,14,,,,,6,,,45,100
62304,note_on,,,,,32,0,14,,,,,6,,,43,102
62304,note_on,,,,,32,0,16,,,,,7,,,55,102
62304,note_on,,,,,32,0,13,,,,,5,,,55,102
62336,note_off,,,,,128,0,11,,,,,3,,,76,100
62336,note_off,,,,,128,0,10,,,,,2,,,85,100
62336,note_off,,,,,128,0,12,,,,,4,,,57,100
62368,note_off,,,,,64,0,14,,,,,6,,,43,100
62368,note_off,,,,,64,0,13,,,,,5,,,55,100
62368,note_off,,,,,64,0,16,,,,,7,,,55,100
62400,note_on,,,,,64,0,10,,,,,2,,,81,103
62400,note_on,,,,,32,0,16,,,,,7,,,53,103
62400,note_on,,,,,64,0,11,,,,,3,,,81,103
62400,note_on,,,,,32,0,13,,,,,5,,,53,103
62400,note_on,,,,,32,0,14,,,,,6,,,41,103
62400,note_on,,,,,64,0,12,,,,,4,,,62,103
62464,note_off,,,,,64,0,12,,,,,4,,,62,100
62464,note_off,,,,,256,0,15,,,,,7,,,76,100
62464,note_off,,,,,64,0,11,,,,,3,,,81,100
62464,note_off,,,,,64,0,14,,,,,6,,,41,100
62464,note_off,,,,,0,0,15,,,,,7,,,73,100
62464,note_off,,,,,64,0,13,,,,,5,,,53,100
62464,note_off,,,,,64,0,16,,,,,7,,,53,100
62496,note_on,,,,,32,0,16,,,,,7,,,52,104
62496,note_on,,,,,32,0,14,,,,,6,,,40,104
62496,note_on,,,,,32,0,13,,,,,5,,,52,104
62496,note_on,,,,,32,0,11,,,,,3,,,79,104
62496,note_on,,,,,32,0,12,,,,,4,,,64,104
62528,note_off,,,,,128,0,10,,,,,2,,,81,100
62560,note_off,,,,,64,0,16,,,,,7,,,52,100
62560,note_off,,,,,64,0,12,,,,,4,,,64,100
62560,note_off,,,,,64,0,14,,,,,6,,,40,100
62560,note_off,,,,,64,0,13,,,,,5,,,52,100
62560,note_off,,,,,64,0,11,,,,,3,,,79,100
62592,note_on,,,,,32,0,16,,,,,7,,,50,104
62592,note_on,,,,,32,0,13,,,,,5,,,50,104
62592,note_on,,,,,64,0,10,,,,,2,,,86,104
62592,note_on,,,,,32,0,11,,,,,3,,,77,104
62592,note_on,,,,,128,0,15,,,,,7,,,65,100
62592,note_on,,,,,32,0,12,,,,,4,,,65,104
62592,note_on,,,,,32,0,14,,,,,6,,,38,104
62592,note_on,,,,,0,0,15,,,,,7,,,69,100
62656,note_off,,,,,64,0,11,,,,,3,,,77,100
62688,note_on,,,,,32,0,11,,,,,3,,,76,105
62720,note_off,,,,,128,0,13,,,,,5,,,50,100
62720,note_off,,,,,128,0,12,,,,,4,,,65,100
62720,note_off,,,,,128,0,14,,,,,6,,,38,100
62720,note_off,,,,,0,0,15,,,,,7,,,69,100
62720,note_off,,,,,128,0,15,,,,,7,,,65,100
62720,note_off,,,,,128,0,16,,,,,7,,,50,100
62752,note_off,,,,,64,0,11,,,,,3,,,76,100
62784,note_on,,,,,32,0,11,,,,,3,,,74,106
62784,note_on,,,,,64,0,12,,,,,4,,,65,106
62784,note_on,,,,,64,0,14,,,,,6,,,40,106
62784,note_on,,,,,64,0,13,,,,,5,,,52,106
62784,note_on,,,,,64,0,16,,,,,7,,,52,106
62784,note_on,,,,,64,0,15,,,,,7,,,67,100
62784,note_on,,,,,0,0,15,,,,,7,,,71,100
62848,note_off,,,,,64,0,11,,,,,3,,,74,100
62880,note_on,,,,,32,0,11,,,,,3,,,72,107
62912,note_off,,,,,128,0,13,,,,,5,,,52,100
62912,note_off,,,,,128,0,16,,,,,7,,,52,100
62912,note_off,,,,,128,0,15,,,,,7,,,67,100
62912,note_off,,,,,0,0,15,,,,,7,,,71,100
62912,note_off,,,,,128,0,12,,,,,4,,,65,100
62912,note_off,,,,,128,0,14,,,,,6,,,40,100
62944,note_off,,,,,64,0,11,,,,,3,,,72,100
62976,note_on,,,,,64,0,12,,,,,4,,,64,108
62976,note_on,,,,,32,0,11,,,,,3,,,70,108
62976,note_on,,,,,0,0,15,,,,,7,,,64,100
62976,note_on,,,,,64,0,16,,,,,7,,,55,108
62976,note_on,,,,,64,0,13,,,,,5,,,55,108
62976,note_on,,,,,64,0,15,,,,,7,,,62,100
62976,note_on,,,,,64,0,14,,,,,6,,,43,108
63040,note_off,,,,,64,0,11,,,,,3,,,70,100
63072,note_on,,,,,32,0,11,,,,,3,,,69,109
63104,note_off,,,,,128,0,14,,,,,6,,,43,100
63104,note_off,,,,,128,0,13,,,,,5,,,55,100
63104,note_off,,,,,128,0,16,,,,,7,,,55,100
63104,note_off,,,,,128,0,12,,,,,4,,,64,100
63104,note_off,,,,,512,0,10,,,,,2,,,86,100
63104,note_off,,,,,128,0,15,,,,,7,,,62,100
63104,note_off,,,,,0,0,15,,,,,7,,,64,100
63136,note_off,,,,,64,0,11,,,,,3,,,69,100
63168,note_on,,,,,64,0,14,,,,,6,,,40,109
63168,note_on,,,,,64,0,15,,,,,7,,,67,100
63168,note_on,,,,,32,0,11,,,,,3,,,67,109
63168,note_on,,,,,0,0,15,,,,,7,,,70,100
63168,note_on,,,,,64,0,16,,,,,7,,,52,109
63168,note_on,,,,,64,0,13,,,,,5,,,52,109
63168,note_on,,,,,64,0,12,,,,,4,,,64,109
63232,note_off,,,,,64,0,11,,,,,3,,,67,100
63232,note_off,,,,,64,0,12,,,,,4,,,64,100
63264,note_on,,,,,32,0,11,,,,,3,,,65,110
63264,note_on,,,,,32,0,12,,,,,4,,,65,110
63296,note_off,,,,,128,0,16,,,,,7,,,52,100
63296,note_off,,,,,128,0,13,,,,,5,,,52,100
63296,note_off,,,,,128,0,14,,,,,6,,,40,100
63296,note_off,,,,,128,0,15,,,,,7,,,67,100
63296,note_off,,,,,0,0,15,,,,,7,,,70,100
63328,note_off,,,,,64,0,11,,,,,3,,,65,100
63328,note_off,,,,,64,0,12,,,,,4,,,65,100
63360,note_on,,,,,64,0,13,,,,,5,,,57,111
63360,note_on,,,,,64,0,14,,,,,6,,,45,111
63360,note_on,,,,,256,0,10,,,,,2,,,85,111
63360,note_on,,,,,64,0,16,,,,,7,,,57,111
63360,note_on,,,,,32,0,11,,,,,3,,,64,111
63360,note_on,,,,,0,0,15,,,,,7,,,73,100
63360,note_on,,,,,64,0,15,,,,,7,,,64,100
63360,note_on,,,,,32,0,12,,,,,4,,,67,111
63404,note_off,,,,,44,0,11,,,,,3,,,64,100
63408,note_on,,,,,4,0,11,,,,,3,,,65,112
63452,note_off,,,,,44,0,11,,,,,3,,,65,100
63456,note_on,,,,,4,0,11,,,,,3,,,64,112
63488,note_off,,,,,128,0,13,,,,,5,,,57,100
63488,note_off,,,,,128,0,16,,,,,7,,,57,100
63488,note_off,,,,,128,0,14,,,,,6,,,45,100
63488,note_off,,,,,128,0,12,,,,,4,,,67,100
63488,note_off,,,,,0,0,15,,,,,7,,,73,100
63488,note_off,,,,,128,0,15,,,,,7,,,64,100
63500,note_off,,,,,44,0,11,,,,,3,,,64,100
63504,note_on,,,,,4,0,11,,,,,3,,,65,112
63548,note_off,,,,,44,0,11,,,,,3,,,65,100
63552,note_on,,,,,64,0,16,,,,,7,,,45,113
63552,note_on,,,,,0,0,15,,,,,7,,,64,100
63552,note_on,,,,,64,0,15,,,,,7,,,61,100
63552,note_on,,,,,64,0,14,,,,,6,,,33,113
63552,note_on,,,,,4,0,11,,,,,3,,,64,113
63552,note_on,,,,,64,0,12,,,,,4,,,64,113
63552,note_on,,,,,64,0,13,,,,,5,,,45,113
63616,note_off,,,,,256,0,10,,,,,2,,,85,100
63680,note_off,,,,,128,0,12,,,,,4,,,64,100
63680,note_off,,,,,128,0,16,,,,,7,,,45,100
63680,note_off,,,,,128,0,11,,,,,3,,,64,100
63680,note_off,,,,,128,0,15,,,,,7,,,61,100
63680,note_off,,,,,0,0,15,,,,,7,,,64,100
63680,note_off,,,,,128,0,13,,,,,5,,,45,100
63680,note_off,,,,,128,0,14,,,,,6,,,33,100
63744,note_on,,,,,128,0,10,,,,,2,,,86,114
63744,note_on,,,,,64,0,13,,,,,5,,,50,114
63744,note_on,,,,,64,0,14,,,,,6,,,38,114
63744,note_on,,,,,0,0,15,,,,,7,,,62,100
63744,note_on,,,,,64,0,15,,,,,7,,,65,100
63744,note_on,,,,,64,0,11,,,,,3,,,62,114
63744,note_on,,,,,64,0,16,,,,,7,,,50,114
63744,note_on,,,,,64,0,12,,,,,4,,,65,114
63872,note_off,,,,,0,0,15,,,,,7,,,62,100
63872,note_off,,,,,128,0,15,,,,,7,,,65,100
63872,note_off,,,,,128,0,13,,,,,5,,,50,100
63872,note_off,,,,,128,0,16,,,,,7,,,50,100
63872,note_off,,,,,128,0,14,,,,,6,,,38,100
63936,note_on,,,,,64,0,16,,,,,7,,,58,100
63936,note_on,,,,,64,0,13,,,,,5,,,58,100
63936,note_on,,,,,64,0,14,,,,,6,,,46,100
64000,note_off,,,,,256,0,12,,,,,4,,,65,100
64000,note_off,,,,,256,0,11,,,,,3,,,62,100
64000,note_off,,,,,256,0,10,,,,,2,,,86,100
64000,note_off,,,,,64,0,13,,,,,5,,,58,100
64000,note_off,,,,,64,0,14,,,,,6,,,46,100
64000,note_off,,,,,64,0,16,,,,,7,,,58,100
64032,note_on,,,,,32,0,16,,,,,7,,,57,100
64032,note_on,,,,,32,0,13,,,,,5,,,57,100
64032,note_on,,,,,32,0,14,,,,,6,,,45,100
64096,note_off,,,,,64,0,13,,,,,5,,,57,100
64096,note_off,,,,,64,0,16,,,,,7,,,57,100
64096,note_off,,,,,64,0,14,,,,,6,,,45,100
64128,note_on,,,,,32,0,14,,,,,6,,,43,100
64128,note_on,,,,,256,0,15,,,,,7,,,65,100
64128,note_on,,,,,0,0,15,,,,,7,,,69,100
64128,note_on,,,,,32,0,13,,,,,5,,,55,100
64128,note_on,,,,,128,0,12,,,,,4,,,70,100
64128,note_on,,,,,32,0,16,,,,,7,,,55,100
64192,note_off,,,,,64,0,13,,,,,5,,,55,100
64192,note_off,,,,,64,0,16,,,,,7,,,55,100
64192,note_off,,,,,64,0,14,,,,,6,,,43,100
64224,note_on,,,,,32,0,13,,,,,5,,,53,100
64224,note_on,,,,,32,0,14,,,,,6,,,41,100
64224,note_on,,,,,32,0,16,,,,,7,,,53,100
64288,note_off,,,,,64,0,14,,,,,6,,,41,100
64288,note_off,,,,,64,0,16,,,,,7,,,53,100
64288,note_off,,,,,64,0,13,,,,,5,,,53,100
64320,note_on,,,,,32,0,14,,,,,6,,,40,100
64320,note_on,,,,,32,0,16,,,,,7,,,52,100
64320,note_on,,,,,32,0,13,,,,,5,,,52,100
64384,note_off,,,,,64,0,14,,,,,6,,,40,100
64384,note_off,,,,,64,0,13,,,,,5,,,52,100
64384,note_off,,,,,256,0,15,,,,,7,,,65,100
64384,note_off,,,,,0,0,15,,,,,7,,,69,100
64384,note_off,,,,,64,0,16,,,,,7,,,52,100
64384,note_off,,,,,256,0,12,,,,,4,,,70,100
64416,note_on,,,,,32,0,16,,,,,7,,,50,100
64416,note_on,,,,,32,0,13,,,,,5,,,50,100
64416,note_on,,,,,32,0,14,,,,,6,,,38,100
64480,note_off,,,,,64,0,16,,,,,7,,,50,100
64480,note_off,,,,,64,0,13,,,,,5,,,50,100
64480,note_off,,,,,64,0,14,,,,,6,,,38,100
64512,note_on,,,,,32,0,14,,,,,6,,,36,100
64512,note_on,,,,,128,0,15,,,,,7,,,67,100
64512,note_on,,,,,0,0,15,,,,,7,,,58,100
64512,note_on,,,,,32,0,13,,,,,5,,,48,100
64512,note_on,,,,,128,0,12,,,,,4,,,64,100
64512,note_on,,,,,32,0,16,,,,,7,,,48,100
64640,note_off,,,,,128,0,14,,,,,6,,,36,100
64640,note_off,,,,,128,0,13,,,,,5,,,48,100
64640,note_off,,,,,128,0,16,,,,,7,,,48,100
64704,note_on,,,,,64,0,13,,,,,5,,,57,100
64704,note_on,,,,,64,0,14,,,,,6,,,45,100
64704,note_on,,,,,64,0,16,,,,,7,,,57,100
64768,note_off,,,,,256,0,12,,,,,4,,,64,100
64768,note_off,,,,,64,0,16,,,,,7,,,57,100
64768,note_off,,,,,0,0,15,,,,,7,,,58,100
64768,note_off,,,,,256,0,15,,,,,7,,,67,100
64768,note_off,,,,,64,0,13,,,,,5,,,57,100
64768,note_off,,,,,64,0,14,,,,,6,,,45,100
64800,note_on,,,,,32,0,13,,,,,5,,,55,100
64800,note_on,,,,,32,0,14,,,,,6,,,43,100
64800,note_on,,,,,32,0,16,,,,,7,,,55,100
64864,note_off,,,,,64,0,13,,,,,5,,,55,100
64864,note_off,,,,,64,0,16,,,,,7,,,55,100
64864,note_off,,,,,64,0,14,,,,,6,,,43,100
64896,note_on,,,,,32,0,14,,,,,6,,,41,100
64896,note_on,,,,,32,0,16,,,,,7,,,53,100
64896,note_on,,,,,128,0,15,,,,,7,,,64,100
64896,note_on,,,,,0,0,15,,,,,7,,,67,100
64896,note_on,,,,,32,0,13,,,,,5,,,53,100
64896,note_on,,,,,128,0,12,,,,,4,,,69,100
64960,note_off,,,,,64,0,16,,,,,7,,,53,100
64960,note_off,,,,,64,0,13,,,,,5,,,53,100
64960,note_off,,,,,64,0,14,,,,,6,,,41,100
64992,note_on,,,,,32,0,16,,,,,7,,,52,100
64992,note_on,,,,,32,0,14,,,,,6,,,40,100
64992,note_on,,,,,32,0,13,,,,,5,,,52,100
65056,note_off,,,,,64,0,13,,,,,5,,,52,100
65056,note_off,,,,,64,0,14,,,,,6,,,40,100
65056,note_off,,,,,64,0,16,,,,,7,,,52,100
65088,note_on,,,,,32,0,13,,,,,5,,,50,100
65088,note_on,,,,,32,0,14,,,,,6,,,38,100
65088,note_on,,,,,32,0,16,,,,,7,,,50,100
65152,note_off,,,,,64,0,14,,,,,6,,,38,100
65152,note_off,,,,,256,0,15,,,,,7,,,64,100
65152,note_off,,,,,256,0,12,,,,,4,,,69,100
65152,note_off,,,,,64,0,13,,,,,5,,,50,100
65152,note_off,,,,,64,0,16,,,,,7,,,50,100
65152,note_off,,,,,0,0,15,,,,,7,,,67,100
65184,note_on,,,,,32,0,14,,,,,6,,,36,100
65184,note_on,,,,,32,0,13,,,,,5,,,48,100
65184,note_on,,,,,32,0,16,,,,,7,,,48,100
65248,note_off,,,,,64,0,16,,,,,7,,,48,100
65248,note_off,,,,,64,0,13,,,,,5,,,48,100
65248,note_off,,,,,64,0,14,,,,,6,,,36,100
65280,note_on,,,,,32,0,13,,,,,5,,,46,100
65280,note_on,,,,,32,0,16,,,,,7,,,46,100
65280,note_on,,,,,32,0,14,,,,,6,,,34,100
65280,note_on,,,,,128,0,12,,,,,4,,,62,100
65280,note_on,,,,,128,0,15,,,,,7,,,62,100
65280,note_on,,,,,0,0,15,,,,,7,,,65,100
65472,note_on,,,,,1472,0,11,,,,,3,,,67,100
65536,note_off,,,,,256,0,16,,,,,7,,,46,100
65536,note_off,,,,,256,0,15,,,,,7,,,62,100
65536,note_off,,,,,0,0,15,,,,,7,,,65,100
65536,note_off,,,,,256,0,12,,,,,4,,,62,100
65536,note_off,,,,,256,0,14,,,,,6,,,34,100
65536,note_off,,,,,64,0,11,,,,,3,,,67,100
65536,note_off,,,,,256,0,13,,,,,5,,,46,100
65568,note_on,,,,,32,0,11,,,,,3,,,69,100
65632,note_off,,,,,64,0,11,,,,,3,,,69,100
65664,note_on,,,,,128,0,12,,,,,4,,,67,100
65664,note_on,,,,,32,0,11,,,,,3,,,70,100
65792,note_off,,,,,128,0,11,,,,,3,,,70,100
65856,note_on,,,,,320,0,14,,,,,6,,,34,100
65856,note_on,,,,,320,0,16,,,,,7,,,46,100
65856,note_on,,,,,320,0,13,,,,,5,,,46,100
65856,note_on,,,,,64,0,11,,,,,3,,,70,100
65856,note_on,,,,,0,0,15,,,,,7,,,65,100
65856,note_on,,,,,320,0,15,,,,,7,,,62,100
65984,note_off,,,,,128,0,15,,,,,7,,,62,100
65984,note_off,,,,,0,0,15,,,,,7,,,65,100
65984,note_off,,,,,128,0,11,,,,,3,,,70,100
65984,note_off,,,,,128,0,16,,,,,7,,,46,100
65984,note_off,,,,,128,0,14,,,,,6,,,34,100
65984,note_off,,,,,128,0,13,,,,,5,,,46,100
66048,note_on,,,,,64,0,16,,,,,7,,,48,100
66048,note_on,,,,,64,0,11,,,,,3,,,69,100
66048,note_on,,,,,64,0,14,,,,,6,,,36,100
66048,note_on,,,,,0,0,15,,,,,7,,,67,100
66048,note_on,,,,,64,0,13,,,,,5,,,48,100
66048,note_on,,,,,64,0,15,,,,,7,,,69,100
66176,note_off,,,,,512,0,12,,,,,4,,,67,100
66176,note_off,,,,,128,0,16,,,,,7,,,48,100
66176,note_off,,,,,128,0,15,,,,,7,,,67,100
66176,note_off,,,,,128,0,14,,,,,6,,,36,100
66176,note_off,,,,,128,0,11,,,,,3,,,69,100
66176,note_off,,,,,128,0,13,,,,,5,,,48,100
66240,note_on,,,,,64,0,14,,,,,6,,,33,100
66240,note_on,,,,,64,0,13,,,,,5,,,45,100
66240,note_on,,,,,64,0,16,,,,,7,,,45,100
66240,note_on,,,,,64,0,12,,,,,4,,,66,100
66240,note_on,,,,,64,0,15,,,,,7,,,66,100
66240,note_on,,,,,64,0,11,,,,,3,,,69,100
66240,note_on,,,,,2240,0,10,,,,,2,,,81,100
66304,note_off,,,,,64,0,15,,,,,7,,,69,100
66304,note_off,,,,,64,0,12,,,,,4,,,66,100
66304,note_off,,,,,64,0,11,,,,,3,,,69,100
66304,note_off,,,,,64,0,10,,,,,2,,,81,100
66336,note_on,,,,,32,0,12,,,,,4,,,64,100
66336,note_on,,,,,32,0,11,,,,,3,,,70,100
66336,note_on,,,,,32,0,10,,,,,2,,,79,100
66368,note_off,,,,,128,0,14,,,,,6,,,33,100
66368,note_off,,,,,128,0,16,,,,,7,,,45,100
66368,note_off,,,,,64,0,15,,,,,7,,,66,100
66368,note_off,,,,,128,0,13,,,,,5,,,45,100
66400,note_off,,,,,64,0,10,,,,,2,,,79,100
66400,note_off,,,,,64,0,11,,,,,3,,,70,100
66400,note_off,,,,,64,0,12,,,,,4,,,64,100
66432,note_on,,,,,64,0,15,,,,,7,,,66,100
66432,note_on,,,,,64,0,14,,,,,6,,,38,100
66432,note_on,,,,,64,0,13,,,,,5,,,50,100
66432,note_on,,,,,0,0,15,,,,,7,,,69,100
66432,note_on,,,,,32,0,12,,,,,4,,,66,100
66432,note_on,,,,,32,0,11,,,,,3,,,72,100
66432,note_on,,,,,64,0,16,,,,,7,,,50,100
66432,note_on,,,,,32,0,10,,,,,2,,,78,100
66496,note_off,,,,,64,0,10,,,,,2,,,78,100
66528,note_on,,,,,32,0,10,,,,,2,,,76,100
66560,note_off,,,,,128,0,14,,,,,6,,,38,100
66560,note_off,,,,,128,0,12,,,,,4,,,66,100
66560,note_off,,,,,128,0,11,,,,,3,,,72,100
66560,note_off,,,,,128,0,13,,,,,5,,,50,100
66560,note_off,,,,,0,0,15,,,,,7,,,69,100
66560,note_off,,,,,128,0,16,,,,,7,,,50,100
66560,note_off,,,,,128,0,15,,,,,7,,,66,100
66592,note_off,,,,,64,0,10,,,,,2,,,76,100
66624,note_on,,,,,32,0,10,,,,,2,,,74,100
66624,note_on,,,,,64,0,15,,,,,7,,,57,100
66624,note_on,,,,,64,0,12,,,,,4,,,66,100
66624,note_on,,,,,64,0,13,,,,,5,,,38,100
66624,note_on,,,,,64,0,11,,,,,3,,,69,100
66624,note_on,,,,,64,0,16,,,,,7,,,38,100
66624,note_on,,,,,64,0,14,,,,,6,,,38,100
66624,note_on,,,,,0,0,15,,,,,7,,,66,100
66688,note_off,,,,,64,0,10,,,,,2,,,74,100
66720,note_on,,,,,32,0,10,,,,,2,,,72,100
66752,note_off,,,,,128,0,14,,,,,6,,,38,100
66752,note_off,,,,,128,0,11,,,,,3,,,69,100
66752,note_off,,,,,128,0,12,,,,,4,,,66,100
66752,note_off,,,,,0,0,15,,,,,7,,,66,100
66752,note_off,,,,,128,0,15,,,,,7,,,57,100
66752,note_off,,,,,128,0,16,,,,,7,,,38,100
66752,note_off,,,,,128,0,13,,,,,5,,,38,100
66784,note_off,,,,,64,0,10,,,,,2,,,72,100
66816,note_on,,,,,64,0,14,,,,,6,,,43,100
66816,note_on,,,,,64,0,11,,,,,3,,,70,100
66816,note_on,,,,,32,0,10,,,,,2,,,70,100
66816,note_on,,,,,64,0,12,,,,,4,,,67,100
66816,note_on,,,,,64,0,15,,,,,7,,,58,100
66816,note_on,,,,,0,0,15,,,,,7,,,62,100
66816,note_on,,,,,64,0,16,,,,,7,,,43,100
66816,note_on,,,,,64,0,13,,,,,5,,,43,100
66944,note_off,,,,,128,0,11,,,,,3,,,70,100
66944,note_off,,,,,128,0,16,,,,,7,,,43,100
66944,note_off,,,,,128,0,15,,,,,7,,,58,100
66944,note_off,,,,,0,0,15,,,,,7,,,62,100
66944,note_off,,,,,128,0,13,,,,,5,,,43,100
66944,note_off,,,,,128,0,12,,,,,4,,,67,100
66944,note_off,,,,,128,0,14,,,,,6,,,43,100
67008,note_on,,,,,64,0,16,,,,,7,,,55,100
67008,note_on,,,,,64,0,11,,,,,3,,,67,100
67008,note_on,,,,,64,0,13,,,,,5,,,55,100
67008,note_on,,,,,64,0,12,,,,,4,,,62,100
67008,note_on,,,,,0,0,15,,,,,7,,,70,100
67008,note_on,,,,,64,0,14,,,,,6,,,43,100
67008,note_on,,,,,64,0,15,,,,,7,,,62,100
67072,note_off,,,,,64,0,12,,,,,4,,,62,100
67072,note_off,,,,,256,0,10,,,,,2,,,70,100
67104,note_on,,,,,32,0,12,,,,,4,,,64,100
67136,note_off,,,,,128,0,13,,,,,5,,,55,100
67136,note_off,,,,,128,0,14,,,,,6,,,43,100
67136,note_off,,,,,128,0,16,,,,,7,,,55,100
67136,note_off,,,,,128,0,11,,,,,3,,,67,100
67136,note_off,,,,,128,0,15,,,,,7,,,62,100
67136,note_off,,,,,0,0,15,,,,,7,,,70,100
67168,note_off,,,,,64,0,12,,,,,4,,,64,100
67200,note_on,,,,,64,0,14,,,,,6,,,41,100
67200,note_on,,,,,128,0,10,,,,,2,,,74,100
67200,note_on,,,,,64,0,16,,,,,7,,,53,100
67200,note_on,,,,,64,0,15,,,,,7,,,62,100
67200,note_on,,,,,32,0,12,,,,,4,,,65,100
67200,note_on,,,,,0,0,15,,,,,7,,,69,100
67200,note_on,,,,,64,0,13,,,,,5,,,53,100
67328,note_off,,,,,0,0,15,,,,,7,,,69,100
67328,note_off,,,,,128,0,12,,,,,4,,,65,100
67328,note_off,,,,,128,0,15,,,,,7,,,62,100
67328,note_off,,,,,128,0,14,,,,,6,,,41,100
67328,note_off,,,,,128,0,13,,,,,5,,,53,100
67328,note_off,,,,,128,0,16,,,,,7,,,53,100
67392,note_on,,,,,64,0,14,,,,,6,,,38,100
67392,note_on,,,,,64,0,16,,,,,7,,,50,100
67392,note_on,,,,,64,0,12,,,,,4,,,65,100
67392,note_on,,,,,64,0,13,,,,,5,,,50,100
67392,note_on,,,,,64,0,15,,,,,7,,,65,100
67392,note_on,,,,,0,0,15,,,,,7,,,69,100
67520,note_off,,,,,0,0,15,,,,,7,,,69,100
67520,note_off,,,,,128,0,14,,,,,6,,,38,100
67520,note_off,,,,,128,0,16,,,,,7,,,50,100
67520,note_off,,,,,128,0,13,,,,,5,,,50,100
67520,note_off,,,,,128,0,12,,,,,4,,,65,100
67520,note_off,,,,,128,0,15,,,,,7,,,65,100
67584,note_on,,,,,64,0,16,,,,,7,,,55,100
67584,note_on,,,,,64,0,15,,,,,7,,,62,100
67584,note_on,,,,,64,0,13,,,,,5,,,55,100
67584,note_on,,,,,64,0,14,,,,,6,,,43,100
67584,note_on,,,,,0,0,15,,,,,7,,,64,100
67584,note_on,,,,,0,0,15,,,,,7,,,67,100
67584,note_on,,,,,64,0,12,,,,,4,,,64,100
67712,note_off,,,,,0,0,15,,,,,7,,,64,100
67712,note_off,,,,,0,0,15,,,,,7,,,67,100
67712,note_off,,,,,128,0,15,,,,,7,,,62,100
67712,note_off,,,,,128,0,12,,,,,4,,,64,100
67712,note_off,,,,,512,0,10,,,,,2,,,74,100
67712,note_off,,,,,128,0,14,,,,,6,,,43,100
67712,note_off,,,,,128,0,13,,,,,5,,,55,100
67712,note_off,,,,,128,0,16,,,,,7,,,55,100
67776,note_on,,,,,64,0,12,,,,,4,,,64,100
67776,note_on,,,,,64,0,14,,,,,6,,,40,100
67776,note_on,,,,,64,0,13,,,,,5,,,52,100
67776,note_on,,,,,0,0,15,,,,,7,,,70,100
67776,note_on,,,,,64,0,16,,,,,7,,,52,100
67776,note_on,,,,,64,0,10,,,,,2,,,73,100
67776,note_on,,,,,640,0,11,,,,,3,,,76,100
67776,note_on,,,,,64,0,15,,,,,7,,,67,100
67840,note_off,,,,,64,0,12,,,,,4,,,64,100
67840,note_off,,,,,64,0,11,,,,,3,,,76,100
67840,note_off,,,,,64,0,10,,,,,2,,,73,100
67872,note_on,,,,,32,0,12,,,,,4,,,65,100
67872,note_on,,,,,32,0,10,,,,,2,,,71,100
67872,note_on,,,,,32,0,11,,,,,3,,,74,100
67904,note_off,,,,,128,0,13,,,,,5,,,52,100
67904,note_off,,,,,128,0,15,,,,,7,,,67,100
67904,note_off,,,,,0,0,15,,,,,7,,,70,100
67904,note_off,,,,,128,0,16,,,,,7,,,52,100
67904,note_off,,,,,128,0,14,,,,,6,,,40,100
67936,note_off,,,,,64,0,11,,,,,3,,,74,100
67936,note_off,,,,,64,0,12,,,,,4,,,65,100
67936,note_off,,,,,64,0,10,,,,,2,,,71,100
67968,note_on,,,,,64,0,16,,,,,7,,,57,100
67968,note_on,,,,,32,0,10,,,,,2,,,73,100
67968,note_on,,,,,64,0,13,,,,,5,,,57,100
67968,note_on,,,,,64,0,15,,,,,7,,,64,100
67968,note_on,,,,,0,0,15,,,,,7,,,73,100
67968,note_on,,,,,32,0,12,,,,,4,,,67,100
67968,note_on,,,,,32,0,11,,,,,3,,,73,100
67968,note_on,,,,,64,0,14,,,,,6,,,45,100
68032,note_off,,,,,64,0,11,,,,,3,,,73,100
68064,note_on,,,,,32,0,11,,,,,3,,,71,100
68096,note_off,,,,,0,0,15,,,,,7,,,73,100
68096,note_off,,,,,128,0,16,,,,,7,,,57,100
68096,note_off,,,,,128,0,15,,,,,7,,,64,100
68096,note_off,,,,,128,0,14,,,,,6,,,45,100
68096,note_off,,,,,128,0,10,,,,,2,,,73,100
68096,note_off,,,,,128,0,13,,,,,5,,,57,100
68096,note_off,,,,,128,0,12,,,,,4,,,67,100
68128,note_off,,,,,64,0,11,,,,,3,,,71,100
68160,note_on,,,,,64,0,13,,,,,5,,,45,100
68160,note_on,,,,,64,0,14,,,,,6,,,33,100
68160,note_on,,,,,64,0,15,,,,,7,,,61,100
68160,note_on,,,,,64,0,10,,,,,2,,,73,100
68160,note_on,,,,,0,0,15,,,,,7,,,64,100
68160,note_on,,,,,64,0,12,,,,,4,,,64,100
68160,note_on,,,,,32,0,11,,,,,3,,,69,100
68160,note_on,,,,,64,0,16,,,,,7,,,45,100
68224,note_off,,,,,64,0,11,,,,,3,,,69,100
68256,note_on,,,,,32,0,11,,,,,3,,,67,100
68288,note_off,,,,,128,0,14,,,,,6,,,33,100
68288,note_off,,,,,128,0,13,,,,,5,,,45,100
68288,note_off,,,,,128,0,10,,,,,2,,,73,100
68288,note_off,,,,,128,0,12,,,,,4,,,64,100
68288,note_off,,,,,128,0,16,,,,,7,,,45,100
68288,note_off,,,,,128,0,15,,,,,7,,,61,100
68288,note_off,,,,,0,0,15,,,,,7,,,64,100
68320,note_off,,,,,64,0,11,,,,,3,,,67,100
68352,note_on,,,,,64,0,12,,,,,4,,,65,100
68352,note_on,,,,,64,0,16,,,,,7,,,50,100
68352,note_on,,,,,64,0,10,,,,,2,,,74,100
68352,note_on,,,,,64,0,15,,,,,7,,,62,100
68352,note_on,,,,,64,0,14,,,,,6,,,38,100
68352,note_on,,,,,0,0,15,,,,,7,,,65,100
68352,note_on,,,,,64,0,13,,,,,5,,,50,100
68352,note_on,,,,,32,0,11,,,,,3,,,65,100
68480,note_off,,,,,128,0,15,,,,,7,,,62,100
68480,note_off,,,,,0,0,15,,,,,7,,,65,100
68480,note_off,,,,,128,0,16,,,,,7,,,50,100
68480,note_off,,,,,128,0,13,,,,,5,,,50,100
68480,note_off,,,,,128,0,14,,,,,6,,,38,100
68480,note_off,,,,,128,0,10,,,,,2,,,74,100
68480,note_off,,,,,128,0,11,,,,,3,,,65,100
68544,note_on,,,,,64,0,10,,,,,2,,,77,100
68544,note_on,,,,,64,0,14,,,,,6,,,46,100
68544,note_on,,,,,64,0,16,,,,,7,,,58,100
68544,note_on,,,,,64,0,11,,,,,3,,,74,100
68544,note_on,,,,,64,0,13,,,,,5,,,58,100
68608,note_off,,,,,64,0,13,,,,,5,,,58,100
68608,note_off,,,,,64,0,11,,,,,3,,,74,100
68608,note_off,,,,,64,0,14,,,,,6,,,46,100
68608,note_off,,,,,256,0,12,,,,,4,,,65,100
68608,note_off,,,,,64,0,16,,,,,7,,,58,100
68640,note_on,,,,,32,0,16,,,,,7,,,57,100
68640,note_on,,,,,32,0,11,,,,,3,,,72,100
68640,note_on,,,,,32,0,13,,,,,5,,,57,100
68640,note_on,,,,,32,0,14,,,,,6,,,45,100
68672,note_off,,,,,128,0,10,,,,,2,,,77,100
68704,note_off,,,,,64,0,16,,,,,7,,,57,100
68704,note_off,,,,,64,0,13,,,,,5,,,57,100
68704,note_off,,,,,64,0,11,,,,,3,,,72,100
68704,note_off,,,,,64,0,14,,,,,6,,,45,100
68736,note_on,,,,,32,0,14,,,,,6,,,43,100
68736,note_on,,,,,64,0,10,,,,,2,,,79,100
68736,note_on,,,,,32,0,16,,,,,7,,,55,100
68736,note_on,,,,,32,0,11,,,,,3,,,70,100
68736,note_on,,,,,0,0,15,,,,,7,,,70,100
68736,note_on,,,,,256,0,15,,,,,7,,,67,100
68736,note_on,,,,,32,0,13,,,,,5,,,55,100
68736,note_on,,,,,128,0,12,,,,,4,,,70,100
68800,note_off,,,,,64,0,14,,,,,6,,,43,100
68800,note_off,,,,,64,0,13,,,,,5,,,55,100
68800,note_off,,,,,64,0,11,,,,,3,,,70,100
68800,note_off,,,,,64,0,16,,,,,7,,,55,100
68832,note_on,,,,,32,0,13,,,,,5,,,53,100
68832,note_on,,,,,32,0,11,,,,,3,,,69,100
68832,note_on,,,,,32,0,14,,,,,6,,,41,100
68832,note_on,,,,,32,0,16,,,,,7,,,53,100
68864,note_off,,,,,128,0,10,,,,,2,,,79,100
68896,note_off,,,,,64,0,16,,,,,7,,,53,100
68896,note_off,,,,,64,0,11,,,,,3,,,69,100
68896,note_off,,,,,64,0,13,,,,,5,,,53,100
68896,note_off,,,,,64,0,14,,,,,6,,,41,100
68928,note_on,,,,,32,0,11,,,,,3,,,67,100
68928,note_on,,,,,32,0,16,,,,,7,,,52,100
68928,note_on,,,,,32,0,13,,,,,5,,,52,100
68928,note_on,,,,,64,0,10,,,,,2,,,79,100
68928,note_on,,,,,32,0,14,,,,,6,,,40,100
68992,note_off,,,,,64,0,11,,,,,3,,,67,100
68992,note_off,,,,,256,0,12,,,,,4,,,70,100
68992,note_off,,,,,64,0,16,,,,,7,,,52,100
68992,note_off,,,,,64,0,13,,,,,5,,,52,100
68992,note_off,,,,,256,0,15,,,,,7,,,67,100
68992,note_off,,,,,0,0,15,,,,,7,,,70,100
68992,note_off,,,,,64,0,14,,,,,6,,,40,100
69024,note_on,,,,,32,0,16,,,,,7,,,50,100
69024,note_on,,,,,32,0,11,,,,,3,,,70,100
69024,note_on,,,,,32,0,13,,,,,5,,,50,100
69024,note_on,,,,,32,0,14,,,,,6,,,38,100
69056,note_off,,,,,128,0,10,,,,,2,,,79,100
69088,note_off,,,,,64,0,13,,,,,5,,,50,100
69088,note_off,,,,,64,0,11,,,,,3,,,70,100
69088,note_off,,,,,64,0,16,,,,,7,,,50,100
69088,note_off,,,,,64,0,14,,,,,6,,,38,100
69120,note_on,,,,,32,0,14,,,,,6,,,36,100
69120,note_on,,,,,32,0,16,,,,,7,,,48,100
69120,note_on,,,,,0,0,15,,,,,7,,,69,100
69120,note_on,,,,,128,0,15,,,,,7,,,67,100
69120,note_on,,,,,32,0,13,,,,,5,,,48,100
69120,note_on,,,,,32,0,11,,,,,3,,,69,100
69120,note_on,,,,,64,0,10,,,,,2,,,79,100
69120,note_on,,,,,128,0,12,,,,,4,,,64,100
69248,note_off,,,,,128,0,13,,,,,5,,,48,100
69248,note_off,,,,,128,0,14,,,,,6,,,36,100
69248,note_off,,,,,128,0,10,,,,,2,,,79,100
69248,note_off,,,,,128,0,11,,,,,3,,,69,100
69248,note_off,,,,,128,0,16,,,,,7,,,48,100
69312,note_on,,,,,64,0,10,,,,,2,,,72,100
69312,note_on,,,,,64,0,14,,,,,6,,,45,100
69312,note_on,,,,,64,0,11,,,,,3,,,72,100
69312,note_on,,,,,64,0,13,,,,,5,,,57,100
69312,note_on,,,,,64,0,16,,,,,7,,,57,100
69376,note_off,,,,,256,0,12,,,,,4,,,64,100
69376,note_off,,,,,64,0,16,,,,,7,,,57,100
69376,note_off,,,,,64,0,13,,,,,5,,,57,100
69376,note_off,,,,,64,0,11,,,,,3,,,72,100
69376,note_off,,,,,256,0,15,,,,,7,,,67,100
69376,note_off,,,,,0,0,15,,,,,7,,,69,100
69376,note_off,,,,,64,0,14,,,,,6,,,45,100
69408,note_on,,,,,32,0,13,,,,,5,,,55,100
69408,note_on,,,,,32,0,11,,,,,3,,,70,100
69408,note_on,,,,,32,0,14,,,,,6,,,43,100
69408,note_on,,,,,32,0,16,,,,,7,,,55,100
69440,note_off,,,,,128,0,10,,,,,2,,,72,100
69472,note_off,,,,,64,0,13,,,,,5,,,55,100
69472,note_off,,,,,64,0,14,,,,,6,,,43,100
69472,note_off,,,,,64,0,16,,,,,7,,,55,100
69472,note_off,,,,,64,0,11,,,,,3,,,70,100
69504,note_on,,,,,32,0,11,,,,,3,,,69,100
69504,note_on,,,,,32,0,16,,,,,7,,,53,100
69504,note_on,,,,,128,0,15,,,,,7,,,65,100
69504,note_on,,,,,32,0,14,,,,,6,,,41,100
69504,note_on,,,,,64,0,10,,,,,2,,,77,100
69504,note_on,,,,,128,0,12,,,,,4,,,69,100
69504,note_on,,,,,0,0,15,,,,,7,,,69,100
69504,note_on,,,,,32,0,13,,,,,5,,,53,100
69568,note_off,,,,,64,0,14,,,,,6,,,41,100
69568,note_off,,,,,64,0,16,,,,,7,,,53,100
69568,note_off,,,,,64,0,11,,,,,3,,,69,100
69568,note_off,,,,,64,0,13,,,,,5,,,53,100
69600,note_on,,,,,32,0,11,,,,,3,,,67,100
69600,note_on,,,,,32,0,13,,,,,5,,,52,100
69600,note_on,,,,,32,0,16,,,,,7,,,52,100
69600,note_on,,,,,32,0,14,,,,,6,,,40,100
69632,note_off,,,,,128,0,10,,,,,2,,,77,100
69664,note_off,,,,,64,0,14,,,,,6,,,40,100
69664,note_off,,,,,64,0,13,,,,,5,,,52,100
69664,note_off,,,,,64,0,16,,,,,7,,,52,100
69664,note_off,,,,,64,0,11,,,,,3,,,67,100
69696,note_on,,,,,32,0,16,,,,,7,,,50,100
69696,note_on,,,,,64,0,10,,,,,2,,,77,100
69696,note_on,,,,,32,0,13,,,,,5,,,50,100
69696,note_on,,,,,32,0,11,,,,,3,,,65,100
69696,note_on,,,,,32,0,14,,,,,6,,,38,100
69760,note_off,,,,,64,0,11,,,,,3,,,65,100
69760,note_off,,,,,64,0,14,,,,,6,,,38,100
69760,note_off,,,,,256,0,12,,,,,4,,,69,100
69760,note_off,,,,,64,0,16,,,,,7,,,50,100
69760,note_off,,,,,256,0,15,,,,,7,,,65,100
69760,note_off,,,,,0,0,15,,,,,7,,,69,100
69760,note_off,,,,,64,0,13,,,,,5,,,50,100
69792,note_on,,,,,32,0,16,,,,,7,,,48,100
69792,note_on,,,,,32,0,13,,,,,5,,,48,100
69792,note_on,,,,,32,0,11,,,,,3,,,69,100
69792,note_on,,,,,32,0,14,,,,,6,,,36,100
69824,note_off,,,,,128,0,10,,,,,2,,,77,100
69856,note_off,,,,,64,0,14,,,,,6,,,36,100
69856,note_off,,,,,64,0,13,,,,,5,,,48,100
69856,note_off,,,,,64,0,11,,,,,3,,,69,100
69856,note_off,,,,,64,0,16,,,,,7,,,48,100
69888,note_on,,,,,32,0,13,,,,,5,,,46,100
69888,note_on,,,,,0,0,15,,,,,7,,,67,100
69888,note_on,,,,,128,0,12,,,,,4,,,62,100
69888,note_on,,,,,32,0,11,,,,,3,,,67,100
69888,note_on,,,,,32,0,14,,,,,6,,,34,100
69888,note_on,,,,,128,0,15,,,,,7,,,65,100
69888,note_on,,,,,32,0,16,,,,,7,,,46,100
69888,note_on,,,,,64,0,10,,,,,2,,,77,100
70016,note_off,,,,,128,0,14,,,,,6,,,34,100
70016,note_off,,,,,128,0,16,,,,,7,,,46,100
70016,note_off,,,,,128,0,10,,,,,2,,,77,100
70016,note_off,,,,,128,0,13,,,,,5,,,46,100
70016,note_off,,,,,128,0,11,,,,,3,,,67,100
70080,note_on,,,,,64,0,16,,,,,7,,,55,100
70080,note_on,,,,,64,0,13,,,,,5,,,55,100
70080,note_on,,,,,64,0,10,,,,,2,,,76,100
70080,note_on,,,,,64,0,11,,,,,3,,,70,100
70080,note_on,,,,,64,0,14,,,,,6,,,43,100
70144,note_off,,,,,0,0,15,,,,,7,,,67,100
70144,note_off,,,,,256,0,15,,,,,7,,,65,100
70144,note_off,,,,,64,0,13,,,,,5,,,55,100
70144,note_off,,,,,256,0,12,,,,,4,,,62,100
70144,note_off,,,,,64,0,14,,,,,6,,,43,100
70144,note_off,,,,,64,0,16,,,,,7,,,55,100
70144,note_off,,,,,64,0,10,,,,,2,,,76,100
70144,note_off,,,,,64,0,11,,,,,3,,,70,100
70176,note_on,,,,,32,0,14,,,,,6,,,41,100
70176,note_on,,,,,32,0,13,,,,,5,,,53,100
70176,note_on,,,,,32,0,10,,,,,2,,,74,100
70176,note_on,,,,,32,0,11,,,,,3,,,69,100
70176,note_on,,,,,32,0,16,,,,,7,,,53,100
70240,note_off,,,,,64,0,16,,,,,7,,,53,100
70240,note_off,,,,,64,0,10,,,,,2,,,74,100
70240,note_off,,,,,64,0,11,,,,,3,,,69,100
70240,note_off,,,,,64,0,14,,,,,6,,,41,100
70240,note_off,,,,,64,0,13,,,,,5,,,53,100
70272,note_on,,,,,0,0,15,,,,,7,,,67,100
70272,note_on,,,,,128,0,15,,,,,7,,,64,100
70272,note_on,,,,,32,0,11,,,,,3,,,67,100
70272,note_on,,,,,32,0,14,,,,,6,,,40,100
70272,note_on,,,,,32,0,16,,,,,7,,,52,100
70272,note_on,,,,,32,0,13,,,,,5,,,52,100
70272,note_on,,,,,32,0,10,,,,,2,,,76,100
70272,note_on,,,,,128,0,12,,,,,4,,,67,100
70336,note_off,,,,,64,0,13,,,,,5,,,52,100
70336,note_off,,,,,64,0,11,,,,,3,,,67,100
70336,note_off,,,,,64,0,16,,,,,7,,,52,100
70336,note_off,,,,,64,0,14,,,,,6,,,40,100
70368,note_on,,,,,32,0,13,,,,,5,,,50,100
70368,note_on,,,,,32,0,14,,,,,6,,,38,100
70368,note_on,,,,,32,0,11,,,,,3,,,65,100
70368,note_on,,,,,32,0,16,,,,,7,,,50,100
70400,note_off,,,,,128,0,10,,,,,2,,,76,100
70432,note_off,,,,,64,0,16,,,,,7,,,50,100
70432,note_off,,,,,64,0,11,,,,,3,,,65,100
70432,note_off,,,,,64,0,13,,,,,5,,,50,100
70432,note_off,,,,,64,0,14,,,,,6,,,38,100
70464,note_on,,,,,32,0,16,,,,,7,,,48,100
70464,note_on,,,,,32,0,13,,,,,5,,,48,100
70464,note_on,,,,,64,0,10,,,,,2,,,76,100
70464,note_on,,,,,32,0,11,,,,,3,,,64,100
70464,note_on,,,,,32,0,14,,,,,6,,,36,100
70528,note_off,,,,,64,0,13,,,,,5,,,48,100
70528,note_off,,,,,64,0,16,,,,,7,,,48,100
70528,note_off,,,,,64,0,11,,,,,3,,,64,100
70528,note_off,,,,,64,0,14,,,,,6,,,36,100
70528,note_off,,,,,256,0,15,,,,,7,,,64,100
70528,note_off,,,,,0,0,15,,,,,7,,,67,100
70560,note_on,,,,,32,0,14,,,,,6,,,34,100
70560,note_on,,,,,32,0,13,,,,,5,,,46,100
70560,note_on,,,,,32,0,16,,,,,7,,,46,100
70560,note_on,,,,,32,0,11,,,,,3,,,62,100
70592,note_off,,,,,128,0,10,,,,,2,,,76,100
70624,note_off,,,,,64,0,16,,,,,7,,,46,100
70624,note_off,,,,,64,0,14,,,,,6,,,34,100
70624,note_off,,,,,64,0,11,,,,,3,,,62,100
70624,note_off,,,,,64,0,13,,,,,5,,,46,100
70656,note_on,,,,,128,0,15,,,,,7,,,61,100
70656,note_on,,,,,0,0,15,,,,,7,,,67,100
70656,note_on,,,,,32,0,13,,,,,5,,,45,100
70656,note_on,,,,,32,0,16,,,,,7,,,45,100
70656,note_on,,,,,32,0,14,,,,,6,,,33,100
70656,note_on,,,,,32,0,11,,,,,3,,,73,100
70656,note_on,,,,,64,0,10,,,,,2,,,76,100
70784,note_off,,,,,128,0,13,,,,,5,,,45,100
70784,note_off,,,,,128,0,16,,,,,7,,,45,100
70784,note_off,,,,,128,0,11,,,,,3,,,73,100
70784,note_off,,,,,512,0,12,,,,,4,,,67,100
70784,note_off,,,,,128,0,15,,,,,7,,,61,100
70784,note_off,,,,,128,0,14,,,,,6,,,33,100
70784,note_off,,,,,0,0,15,,,,,7,,,67,100
70784,note_off,,,,,128,0,10,,,,,2,,,76,100
70848,note_on,,,,,64,0,12,,,,,4,,,65,100
70848,note_on,,,,,64,0,13,,,,,5,,,50,100
70848,note_on,,,,,64,0,10,,,,,2,,,74,100
70848,note_on,,,,,64,0,14,,,,,6,,,38,100
70848,note_on,,,,,64,0,11,,,,,3,,,69,100
70848,note_on,,,,,0,0,15,,,,,7,,,69,100
70848,note_on,,,,,64,0,15,,,,,7,,,65,100
70848,note_on,,,,,64,0,16,,,,,7,,,50,100
70976,note_off,,,,,128,0,14,,,,,6,,,38,100
70976,note_off,,,,,128,0,13,,,,,5,,,50,100
70976,note_off,,,,,128,0,12,,,,,4,,,65,100
70976,note_off,,,,,128,0,11,,,,,3,,,69,100
70976,note_off,,,,,128,0,15,,,,,7,,,65,100
70976,note_off,,,,,128,0,16,,,,,7,,,50,100
70976,note_off,,,,,0,0,15,,,,,7,,,69,100
71040,note_on,,,,,64,0,11,,,,,3,,,69,100
71040,note_on,,,,,0,0,15,,,,,7,,,62,100
71040,note_on,,,,,64,0,15,,,,,7,,,64,100
71040,note_on,,,,,64,0,13,,,,,5,,,57,100
71040,note_on,,,,,64,0,12,,,,,4,,,64,100
71040,note_on,,,,,64,0,14,,,,,6,,,45,100
71040,note_on,,,,,64,0,16,,,,,7,,,57,100
71104,note_off,,,,,256,0,10,,,,,2,,,74,100
71168,note_off,,,,,128,0,16,,,,,7,,,57,100
71168,note_off,,,,,128,0,13,,,,,5,,,57,100
71168,note_off,,,,,128,0,14,,,,,6,,,45,100
71168,note_off,,,,,128,0,15,,,,,7,,,62,100
71232,note_on,,,,,64,0,13,,,,,5,,,45,100
71232,note_on,,,,,128,0,10,,,,,2,,,72,100
71232,note_on,,,,,64,0,14,,,,,6,,,33,100
71232,note_on,,,,,64,0,15,,,,,7,,,61,100
71232,note_on,,,,,64,0,16,,,,,7,,,45,100
71232,note_off,,,,,192,0,11,,,,,3,,,69,100
71296,note_off,,,,,256,0,12,,,,,4,,,64,100
71296,note_off,,,,,64,0,15,,,,,7,,,64,100
71328,note_on,,,,,96,0,11,,,,,3,,,67,100
71360,note_off,,,,,128,0,14,,,,,6,,,33,100
71360,note_off,,,,,128,0,13,,,,,5,,,45,100
71360,note_off,,,,,128,0,16,,,,,7,,,45,100
71360,note_off,,,,,64,0,15,,,,,7,,,61,100
71392,note_off,,,,,64,0,11,,,,,3,,,67,100
71424,note_on,,,,,64,0,15,,,,,7,,,62,100
71424,note_on,,,,,0,0,15,,,,,7,,,66,100
71424,note_on,,,,,128,0,12,,,,,4,,,62,100
71424,note_on,,,,,64,0,14,,,,,6,,,38,100
71424,note_on,,,,,64,0,16,,,,,7,,,50,100
71424,note_on,,,,,32,0,11,,,,,3,,,66,100
71424,note_on,,,,,64,0,13,,,,,5,,,50,100
71488,note_off,,,,,256,0,10,,,,,2,,,72,100
71552,note_off,,,,,128,0,14,,,,,6,,,38,100
71552,note_off,,,,,128,0,16,,,,,7,,,50,100
71552,note_off,,,,,128,0,11,,,,,3,,,66,100
71552,note_off,,,,,128,0,15,,,,,7,,,62,100
71552,note_off,,,,,128,0,13,,,,,5,,,50,100
71552,note_off,,,,,0,0,15,,,,,7,,,66,100
71616,note_on,,,,,64,0,16,,,,,7,,,43,100
71616,note_on,,,,,64,0,11,,,,,3,,,67,100
71616,note_on,,,,,0,0,15,,,,,7,,,62,100
71616,note_on,,,,,64,0,15,,,,,7,,,58,100
71616,note_on,,,,,64,0,13,,,,,5,,,43,100
71616,note_on,,,,,64,0,14,,,,,6,,,31,100
71616,note_on,,,,,128,0,10,,,,,2,,,70,100
71680,note_off,,,,,256,0,12,,,,,4,,,62,100
71744,note_off,,,,,128,0,16,,,,,7,,,43,100
71744,note_off,,,,,128,0,10,,,,,2,,,70,100
71744,note_off,,,,,128,0,14,,,,,6,,,31,100
71744,note_off,,,,,128,0,15,,,,,7,,,58,100
71744,note_off,,,,,128,0,13,,,,,5,,,43,100
71744,note_off,,,,,0,0,15,,,,,7,,,62,100
71808,note_on,,,,,64,0,14,,,,,6,,,38,100
71808,note_on,,,,,0,0,15,,,,,7,,,67,100
71808,note_on,,,,,64,0,15,,,,,7,,,69,100
71808,note_on,,,,,64,0,10,,,,,2,,,69,100
71808,note_on,,,,,64,0,16,,,,,7,,,50,100
71808,note_on,,,,,128,0,12,,,,,4,,,62,100
71808,note_on,,,,,64,0,13,,,,,5,,,50,100
71872,note_off,,,,,256,0,11,,,,,3,,,67,100
71936,note_off,,,,,128,0,15,,,,,7,,,67,100
71936,note_off,,,,,128,0,14,,,,,6,,,38,100
71936,note_off,,,,,128,0,13,,,,,5,,,50,100
71936,note_off,,,,,128,0,16,,,,,7,,,50,100
72000,note_on,,,,,64,0,15,,,,,7,,,66,100
72000,note_on,,,,,128,0,11,,,,,3,,,66,100
72000,note_on,,,,,64,0,14,,,,,6,,,38,100
72000,note_on,,,,,64,0,13,,,,,5,,,38,100
72000,note_on,,,,,64,0,16,,,,,7,,,38,100
72064,note_off,,,,,256,0,10,,,,,2,,,69,100
72064,note_off,,,,,256,0,12,,,,,4,,,62,100
72064,note_off,,,,,64,0,15,,,,,7,,,69,100
72128,note_off,,,,,128,0,16,,,,,7,,,38,100
72128,note_off,,,,,128,0,11,,,,,3,,,66,100
72128,note_off,,,,,64,0,15,,,,,7,,,66,100
72128,note_off,,,,,128,0,14,,,,,6,,,38,100
72128,note_off,,,,,128,0,13,,,,,5,,,38,100
72192,note_on,,,,,0,0,15,,,,,7,,,58,100
72192,note_on,,,,,64,0,14,,,,,6,,,31,100
72192,note_on,,,,,0,0,15,,,,,7,,,62,100
72192,note_on,,,,,64,0,15,,,,,7,,,67,100
72192,note_on,,,,,64,0,13,,,,,5,,,43,100
72192,note_on,,,,,128,0,12,,,,,4,,,62,100
72192,note_on,,,,,64,0,16,,,,,7,,,43,100
72192,note_on,,,,,64,0,11,,,,,3,,,67,100
72192,note_on,,,,,128,0,10,,,,,2,,,67,100
72384,note_on,,,,,24512,0,8,,,,,0,,,79,100
72448,note_off,,,,,0,0,15,,,,,7,,,62,100
72448,note_off,,,,,256,0,15,,,,,7,,,67,100
72448,note_off,,,,,0,0,15,,,,,7,,,58,100
72448,note_off,,,,,256,0,10,,,,,2,,,67,100
72448,note_off,,,,,256,0,13,,,,,5,,,43,100
72448,note_off,,,,,256,0,14,,,,,6,,,31,100
72448,note_off,,,,,256,0,11,,,,,3,,,67,100
72448,note_off,,,,,256,0,12,,,,,4,,,62,100
72448,note_off,,,,,256,0,16,,,,,7,,,43,100
72448,note_off,,,,,64,0,8,,,,,0,,,79,100
72480,note_on,,,,,32,0,8,,,,,0,,,81,100
72544,note_off,,,,,64,0,8,,,,,0,,,81,100
72576,note_on,,,,,32,0,8,,,,,0,,,82,100
72576,note_on,,,,,24832,0,9,,,,,1,,,79,100
72704,note_off,,,,,128,0,8,,,,,0,,,82,100
72768,note_on,,,,,320,0,14,,,,,6,,,43,100
72768,note_on,,,,,320,0,16,,,,,7,,,55,100
72768,note_on,,,,,0,0,15,,,,,7,,,62,100
72768,note_on,,,,,320,0,15,,,,,7,,,58,100
72768,note_on,,,,,320,0,13,,,,,5,,,55,100
72768,note_on,,,,,64,0,8,,,,,0,,,82,100
72896,note_off,,,,,128,0,13,,,,,5,,,55,100
72896,note_off,,,,,128,0,16,,,,,7,,,55,100
72896,note_off,,,,,128,0,8,,,,,0,,,82,100
72896,note_off,,,,,0,0,15,,,,,7,,,62,100
72896,note_off,,,,,128,0,15,,,,,7,,,58,100
72896,note_off,,,,,128,0,14,,,,,6,,,43,100
72960,note_on,,,,,0,0,15,,,,,7,,,67,100
72960,note_on,,,,,64,0,15,,,,,7,,,69,100
72960,note_on,,,,,64,0,8,,,,,0,,,81,100
72960,note_on,,,,,64,0,13,,,,,5,,,60,100
72960,note_on,,,,,64,0,14,,,,,6,,,48,100
72960,note_on,,,,,64,0,16,,,,,7,,,60,100
73088,note_off,,,,,128,0,8,,,,,0,,,81,100
73088,note_off,,,,,128,0,15,,,,,7,,,67,100
73088,note_off,,,,,512,0,9,,,,,1,,,79,100
73088,note_off,,,,,128,0,14,,,,,6,,,48,100
73088,note_off,,,,,128,0,13,,,,,5,,,60,100
73088,note_off,,,,,128,0,16,,,,,7,,,60,100
73152,note_on,,,,,64,0,8,,,,,0,,,81,100
73152,note_on,,,,,64,0,15,,,,,7,,,66,100
73152,note_on,,,,,64,0,14,,,,,6,,,45,100
73152,note_on,,,,,64,0,16,,,,,7,,,57,100
73152,note_on,,,,,64,0,13,,,,,5,,,55,100
73216,note_off,,,,,64,0,8,,,,,0,,,81,100
73216,note_off,,,,,64,0,15,,,,,7,,,69,100
73248,note_on,,,,,32,0,8,,,,,0,,,82,100
73280,note_off,,,,,128,0,14,,,,,6,,,45,100
73280,note_off,,,,,128,0,13,,,,,5,,,55,100
73280,note_off,,,,,128,0,16,,,,,7,,,57,100
73280,note_off,,,,,64,0,15,,,,,7,,,66,100
73312,note_off,,,,,64,0,8,,,,,0,,,82,100
73344,note_on,,,,,256,0,9,,,,,1,,,78,100
73344,note_on,,,,,0,0,15,,,,,7,,,69,100
73344,note_on,,,,,64,0,16,,,,,7,,,62,100
73344,note_on,,,,,64,0,13,,,,,5,,,62,100
73344,note_on,,,,,64,0,14,,,,,6,,,50,100
73344,note_on,,,,,32,0,8,,,,,0,,,84,100
73344,note_on,,,,,64,0,15,,,,,7,,,66,100
73472,note_off,,,,,128,0,16,,,,,7,,,62,100
73472,note_off,,,,,128,0,15,,,,,7,,,66,100
73472,note_off,,,,,0,0,15,,,,,7,,,69,100
73472,note_off,,,,,128,0,13,,,,,5,,,62,100
73472,note_off,,,,,128,0,14,,,,,6,,,50,100
73472,note_off,,,,,128,0,8,,,,,0,,,84,100
73536,note_on,,,,,64,0,8,,,,,0,,,81,100
73536,note_on,,,,,64,0,16,,,,,7,,,50,100
73536,note_on,,,,,64,0,15,,,,,7,,,57,100
73536,note_on,,,,,0,0,15,,,,,7,,,66,100
73536,note_on,,,,,64,0,14,,,,,6,,,38,100
73536,note_on,,,,,64,0,13,,,,,5,,,50,100
73600,note_off,,,,,256,0,9,,,,,1,,,78,100
73664,note_off,,,,,0,0,15,,,,,7,,,66,100
73664,note_off,,,,,128,0,15,,,,,7,,,57,100
73664,note_off,,,,,128,0,13,,,,,5,,,50,100
73664,note_off,,,,,128,0,8,,,,,0,,,81,100
73664,note_off,,,,,128,0,16,,,,,7,,,50,100
73664,note_off,,,,,128,0,14,,,,,6,,,38,100
73728,note_on,,,,,64,0,13,,,,,5,,,55,100
73728,note_on,,,,,64,0,14,,,,,6,,,43,100
73728,note_on,,,,,64,0,15,,,,,7,,,67,100
73728,note_on,,,,,0,0,15,,,,,7,,,58,100
73728,note_on,,,,,64,0,16,,,,,7,,,55,100
73728,note_on,,,,,64,0,8,,,,,0,,,82,100
73728,note_on,,,,,128,0,9,,,,,1,,,79,100
73856,note_off,,,,,128,0,13,,,,,5,,,55,100
73916,program_change,,,,,60,0,13,,,,,5,43,,,
73920,note_on,,,,,4,0,13,,,,,5,,,62,100
73984,note_off,,,,,256,0,9,,,,,1,,,79,100
73984,note_off,,,,,64,0,13,,,,,5,,,62,100
73984,note_off,,,,,256,0,16,,,,,7,,,55,100
73984,note_off,,,,,256,0,15,,,,,7,,,67,100
73984,note_off,,,,,0,0,15,,,,,7,,,58,100
73984,note_off,,,,,256,0,8,,,,,0,,,82,100
73984,note_off,,,,,256,0,14,,,,,6,,,43,100
74016,note_on,,,,,32,0,13,,,,,5,,,64,100
74080,note_off,,,,,64,0,13,,,,,5,,,64,100
74112,note_on,,,,,128,0,8,,,,,0,,,86,100
74112,note_on,,,,,32,0,13,,,,,5,,,65,100
74240,note_off,,,,,128,0,13,,,,,5,,,65,100
74304,note_on,,,,,0,0,15,,,,,7,,,65,100
74304,note_on,,,,,320,0,15,,,,,7,,,69,100
74304,note_on,,,,,320,0,14,,,,,6,,,38,100
74304,note_on,,,,,320,0,16,,,,,7,,,50,100
74304,note_on,,,,,64,0,13,,,,,5,,,65,100
74432,note_off,,,,,128,0,14,,,,,6,,,38,100
74432,note_off,,,,,128,0,16,,,,,7,,,50,100
74432,note_off,,,,,128,0,13,,,,,5,,,65,100
74432,note_off,,,,,128,0,15,,,,,7,,,69,100
74432,note_off,,,,,0,0,15,,,,,7,,,65,100
74496,note_on,,,,,64,0,15,,,,,7,,,64,100
74496,note_on,,,,,0,0,15,,,,,7,,,62,100
74496,note_on,,,,,64,0,13,,,,,5,,,64,100
74496,note_on,,,,,64,0,14,,,,,6,,,43,100
74496,note_on,,,,,64,0,16,,,,,7,,,55,100
74624,note_off,,,,,512,0,8,,,,,0,,,86,100
74624,note_off,,,,,128,0,15,,,,,7,,,62,100
74624,note_off,,,,,128,0,14,,,,,6,,,43,100
74624,note_off,,,,,128,0,16,,,,,7,,,55,100
74624,note_off,,,,,128,0,13,,,,,5,,,64,100
74688,note_on,,,,,64,0,13,,,,,5,,,64,100
74688,note_on,,,,,64,0,15,,,,,7,,,61,100
74688,note_on,,,,,64,0,14,,,,,6,,,40,100
74688,note_on,,,,,64,0,16,,,,,7,,,52,100
74752,note_off,,,,,64,0,15,,,,,7,,,64,100
74752,note_off,,,,,64,0,13,,,,,5,,,64,100
74784,note_on,,,,,32,0,13,,,,,5,,,65,100
74816,note_off,,,,,64,0,15,,,,,7,,,61,100
74816,note_off,,,,,128,0,16,,,,,7,,,52,100
74816,note_off,,,,,128,0,14,,,,,6,,,40,100
74848,note_off,,,,,64,0,13,,,,,5,,,65,100
74880,note_on,,,,,0,0,15,,,,,7,,,73,100
74880,note_on,,,,,64,0,15,,,,,7,,,64,100
74880,note_on,,,,,64,0,16,,,,,7,,,57,100
74880,note_on,,,,,32,0,13,,,,,5,,,67,100
74880,note_on,,,,,256,0,8,,,,,0,,,85,100
74880,note_on,,,,,64,0,14,,,,,6,,,45,100
75008,note_off,,,,,128,0,15,,,,,7,,,64,100
75008,note_off,,,,,128,0,16,,,,,7,,,57,100
75008,note_off,,,,,128,0,13,,,,,5,,,67,100
75008,note_off,,,,,0,0,15,,,,,7,,,73,100
75008,note_off,,,,,128,0,14,,,,,6,,,45,100
75072,note_on,,,,,64,0,13,,,,,5,,,64,100
75072,note_on,,,,,64,0,16,,,,,7,,,45,100
75072,note_on,,,,,0,0,15,,,,,7,,,64,100
75072,note_on,,,,,64,0,14,,,,,6,,,33,100
75072,note_on,,,,,64,0,15,,,,,7,,,61,100
75136,note_off,,,,,256,0,8,,,,,0,,,85,100
75200,note_off,,,,,128,0,14,,,,,6,,,33,100
75200,note_off,,,,,128,0,16,,,,,7,,,45,100
75200,note_off,,,,,0,0,15,,,,,7,,,64,100
75200,note_off,,,,,128,0,15,,,,,7,,,61,100
75200,note_off,,,,,128,0,13,,,,,5,,,64,100
75264,note_on,,,,,64,0,16,,,,,7,,,50,100
75264,note_on,,,,,64,0,15,,,,,7,,,62,100
75264,note_on,,,,,64,0,14,,,,,6,,,38,100
75264,note_on,,,,,64,0,13,,,,,5,,,65,100
75264,note_on,,,,,128,0,8,,,,,0,,,86,100
75308,note_on,,,,,44,0,15,,,,,7,,,65,100
75332,note_on,,,,,24,0,15,,,,,7,,,69,100
75356,note_on,,,,,24,0,15,,,,,7,,,74,100
75392,note_off,,,,,128,0,13,,,,,5,,,65,100
75456,note_on,,,,,64,0,13,,,,,5,,,50,100
75520,note_off,,,,,256,0,8,,,,,0,,,86,100
75520,note_off,,,,,164,0,15,,,,,7,,,62,100
75520,note_off,,,,,256,0,16,,,,,7,,,50,100
75520,note_off,,,,,256,0,14,,,,,6,,,38,100
75520,note_off,,,,,64,0,13,,,,,5,,,50,100
75552,note_on,,,,,32,0,13,,,,,5,,,52,100
75564,note_off,,,,,44,0,15,,,,,7,,,65,100
75588,note_off,,,,,24,0,15,,,,,7,,,69,100
75612,note_off,,,,,24,0,15,,,,,7,,,74,100
75616,note_off,,,,,64,0,13,,,,,5,,,52,100
75648,note_on,,,,,32,0,13,,,,,5,,,53,100
75648,note_on,,,,,128,0,8,,,,,0,,,81,100
75648,note_on,,,,,1664,0,9,,,,,1,,,77,100
75712,note_off,,,,,64,0,13,,,,,5,,,53,100
75744,note_on,,,,,32,0,13,,,,,5,,,55,100
75808,note_off,,,,,64,0,13,,,,,5,,,55,100
75840,note_on,,,,,32,0,13,,,,,5,,,57,100
75904,note_off,,,,,64,0,13,,,,,5,,,57,100
75904,note_off,,,,,256,0,8,,,,,0,,,81,100
75936,note_on,,,,,32,0,13,,,,,5,,,59,100
76000,note_off,,,,,64,0,13,,,,,5,,,59,100
76032,note_on,,,,,128,0,8,,,,,0,,,79,100
76032,note_on,,,,,32,0,13,,,,,5,,,60,100
76032,note_off,,,,,384,0,9,,,,,1,,,77,100
76160,note_off,,,,,128,0,13,,,,,5,,,60,100
76224,note_on,,,,,64,0,13,,,,,5,,,48,100
76224,note_on,,,,,192,0,9,,,,,1,,,76,100
76288,note_off,,,,,64,0,13,,,,,5,,,48,100
76320,note_on,,,,,32,0,13,,,,,5,,,50,100
76352,note_off,,,,,128,0,9,,,,,1,,,76,100
76384,note_off,,,,,64,0,13,,,,,5,,,50,100
76416,note_off,,,,,384,0,8,,,,,0,,,79,100
76416,note_on,,,,,64,0,9,,,,,1,,,76,100
76416,note_on,,,,,32,0,13,,,,,5,,,52,100
76480,note_off,,,,,64,0,13,,,,,5,,,52,100
76512,note_on,,,,,32,0,13,,,,,5,,,53,100
76576,note_off,,,,,64,0,13,,,,,5,,,53,100
76608,note_on,,,,,192,0,8,,,,,0,,,79,100
76608,note_on,,,,,32,0,13,,,,,5,,,55,100
76672,note_off,,,,,64,0,13,,,,,5,,,55,100
76704,note_on,,,,,32,0,13,,,,,5,,,57,100
76736,note_off,,,,,128,0,8,,,,,0,,,79,100
76768,note_off,,,,,64,0,13,,,,,5,,,57,100
76800,note_on,,,,,32,0,13,,,,,5,,,58,100
76800,note_on,,,,,64,0,8,,,,,0,,,77,100
76928,note_off,,,,,128,0,13,,,,,5,,,58,100
76928,note_off,,,,,512,0,9,,,,,1,,,76,100
76992,note_on,,,,,64,0,13,,,,,5,,,46,100
76992,note_on,,,,,64,0,9,,,,,1,,,74,100
77056,note_off,,,,,64,0,13,,,,,5,,,46,100
77088,note_on,,,,,32,0,13,,,,,5,,,48,100
77120,note_off,,,,,128,0,9,,,,,1,,,74,100
77152,note_off,,,,,64,0,13,,,,,5,,,48,100
77184,note_on,,,,,64,0,9,,,,,1,,,74,100
77184,note_on,,,,,32,0,13,,,,,5,,,50,100
77184,note_off,,,,,384,0,8,,,,,0,,,77,100
77248,note_off,,,,,64,0,13,,,,,5,,,50,100
77280,note_on,,,,,32,0,13,,,,,5,,,52,100
77344,note_off,,,,,64,0,13,,,,,5,,,52,100
77376,note_on,,,,,32,0,13,,,,,5,,,53,100
77376,note_on,,,,,192,0,8,,,,,0,,,77,100
77440,note_off,,,,,256,0,9,,,,,1,,,74,100
77440,note_off,,,,,64,0,13,,,,,5,,,53,100
77472,note_on,,,,,32,0,13,,,,,5,,,55,100
77504,note_off,,,,,128,0,8,,,,,0,,,77,100
77536,note_off,,,,,64,0,13,,,,,5,,,55,100
77568,note_on,,,,,64,0,8,,,,,0,,,76,100
77568,note_on,,,,,128,0,9,,,,,1,,,67,100
77568,note_on,,,,,32,0,13,,,,,5,,,48,100
77696,note_off,,,,,128,0,13,,,,,5,,,48,100
77760,note_on,,,,,64,0,13,,,,,5,,,60,100
77824,note_off,,,,,256,0,9,,,,,1,,,67,100
77824,note_off,,,,,64,0,13,,,,,5,,,60,100
77824,note_off,,,,,256,0,8,,,,,0,,,76,100
77856,note_on,,,,,32,0,13,,,,,5,,,58,100
77920,note_off,,,,,64,0,13,,,,,5,,,58,100
77952,note_on,,,,,128,0,8,,,,,0,,,77,100
77952,note_on,,,,,32,0,13,,,,,5,,,57,100
78080,note_off,,,,,128,0,13,,,,,5,,,57,100
78144,note_on,,,,,320,0,9,,,,,1,,,72,100
78144,note_on,,,,,64,0,13,,,,,5,,,57,100
78272,note_off,,,,,128,0,9,,,,,1,,,72,100
78272,note_off,,,,,128,0,13,,,,,5,,,57,100
78336,note_on,,,,,64,0,9,,,,,1,,,70,100
78336,note_on,,,,,64,0,13,,,,,5,,,55,100
78464,note_off,,,,,128,0,9,,,,,1,,,70,100
78464,note_off,,,,,128,0,13,,,,,5,,,55,100
78528,note_on,,,,,64,0,9,,,,,1,,,72,100
78528,note_on,,,,,64,0,13,,,,,5,,,57,100
78592,note_off,,,,,64,0,9,,,,,1,,,72,100
78592,note_off,,,,,64,0,13,,,,,5,,,57,100
78624,note_on,,,,,32,0,13,,,,,5,,,58,100
78624,note_on,,,,,32,0,9,,,,,1,,,74,100
78640,note_off,,,,,688,0,8,,,,,0,,,77,100
78688,note_off,,,,,64,0,13,,,,,5,,,58,100
78688,note_off,,,,,64,0,9,,,,,1,,,74,100
78720,note_on,,,,,32,0,13,,,,,5,,,60,100
78720,note_on,,,,,80,0,8,,,,,0,,,76,100
78720,note_on,,,,,32,0,9,,,,,1,,,67,100
78848,note_off,,,,,128,0,13,,,,,5,,,60,100
78848,note_off,,,,,128,0,9,,,,,1,,,67,100
78912,note_on,,,,,64,0,9,,,,,1,,,72,100
78912,note_on,,,,,64,0,13,,,,,5,,,58,100
78976,note_off,,,,,256,0,8,,,,,0,,,76,100
79040,note_off,,,,,128,0,13,,,,,5,,,58,100
79040,note_off,,,,,128,0,9,,,,,1,,,72,100
79104,note_on,,,,,64,0,9,,,,,1,,,69,100
79104,note_on,,,,,64,0,13,,,,,5,,,57,100
79104,note_on,,,,,128,0,8,,,,,0,,,77,100
79232,note_off,,,,,128,0,9,,,,,1,,,69,100
79232,note_off,,,,,128,0,13,,,,,5,,,57,100
79232,note_off,,,,,128,0,8,,,,,0,,,77,100
79296,note_on,,,,,64,0,9,,,,,1,,,65,100
79296,note_on,,,,,64,0,13,,,,,5,,,53,100
79296,note_on,,,,,64,0,8,,,,,0,,,72,100
79360,note_off,,,,,64,0,8,,,,,0,,,72,100
79392,note_on,,,,,32,0,8,,,,,0,,,74,100
79424,note_off,,,,,128,0,13,,,,,5,,,53,100
79424,note_off,,,,,128,0,9,,,,,1,,,65,100
79456,note_off,,,,,64,0,8,,,,,0,,,74,100
79488,note_on,,,,,64,0,13,,,,,5,,,60,100
79488,note_on,,,,,32,0,8,,,,,0,,,76,100
79616,note_off,,,,,128,0,8,,,,,0,,,76,100
79680,note_on,,,,,64,0,8,,,,,0,,,76,100
79808,note_off,,,,,128,0,8,,,,,0,,,76,100
79872,note_on,,,,,64,0,8,,,,,0,,,74,100
80000,note_off,,,,,128,0,8,,,,,0,,,74,100
80064,note_on,,,,,64,0,8,,,,,0,,,74,100
80128,note_off,,,,,64,0,8,,,,,0,,,74,100
80160,note_on,,,,,32,0,8,,,,,0,,,76,100
80176,note_off,,,,,688,0,13,,,,,5,,,60,100
80224,note_off,,,,,64,0,8,,,,,0,,,76,100
80256,note_on,,,,,80,0,13,,,,,5,,,59,100
80256,note_on,,,,,32,0,8,,,,,0,,,77,100
80384,note_off,,,,,128,0,8,,,,,0,,,77,100
80448,note_on,,,,,64,0,8,,,,,0,,,74,100
80512,note_off,,,,,256,0,13,,,,,5,,,59,100
80576,note_off,,,,,128,0,8,,,,,0,,,74,100
80640,note_on,,,,,64,0,8,,,,,0,,,76,100
80640,note_on,,,,,128,0,13,,,,,5,,,60,100
80768,note_off,,,,,128,0,8,,,,,0,,,76,100
80768,note_off,,,,,128,0,13,,,,,5,,,60,100
80832,note_on,,,,,64,0,13,,,,,5,,,48,100
80832,note_on,,,,,1408,0,9,,,,,1,,,72,100
80832,note_on,,,,,64,0,8,,,,,0,,,72,100
80896,note_off,,,,,64,0,13,,,,,5,,,48,100
80928,note_on,,,,,32,0,13,,,,,5,,,50,100
80960,note_off,,,,,128,0,8,,,,,0,,,72,100
80960,note_off,,,,,128,0,9,,,,,1,,,72,100
80992,note_off,,,,,64,0,13,,,,,5,,,50,100
81024,note_on,,,,,32,0,13,,,,,5,,,52,100
81024,note_on,,,,,64,0,9,,,,,1,,,70,100
81088,note_off,,,,,64,0,9,,,,,1,,,70,100
81120,note_on,,,,,32,0,9,,,,,1,,,69,100
81152,note_off,,,,,128,0,13,,,,,5,,,52,100
81184,note_off,,,,,64,0,9,,,,,1,,,69,100
81216,note_on,,,,,64,0,13,,,,,5,,,48,100
81216,note_on,,,,,32,0,9,,,,,1,,,70,100
81280,note_off,,,,,64,0,9,,,,,1,,,70,100
81312,note_on,,,,,32,0,9,,,,,1,,,72,100
81344,note_off,,,,,128,0,13,,,,,5,,,48,100
81376,note_off,,,,,64,0,9,,,,,1,,,72,100
81408,note_on,,,,,32,0,9,,,,,1,,,69,100
81408,note_on,,,,,64,0,13,,,,,5,,,41,100
81536,note_off,,,,,128,0,13,,,,,5,,,41,100
81600,note_on,,,,,640,0,8,,,,,0,,,77,100
81600,note_on,,,,,64,0,13,,,,,5,,,53,100
81664,note_off,,,,,64,0,13,,,,,5,,,53,100
81696,note_on,,,,,32,0,13,,,,,5,,,55,100
81728,note_off,,,,,128,0,8,,,,,0,,,77,100
81760,note_off,,,,,64,0,13,,,,,5,,,55,100
81792,note_on,,,,,32,0,13,,,,,5,,,57,100
81792,note_on,,,,,64,0,8,,,,,0,,,75,100
81792,note_off,,,,,384,0,9,,,,,1,,,69,100
81856,note_off,,,,,64,0,8,,,,,0,,,75,100
81888,note_on,,,,,32,0,8,,,,,0,,,74,100
81920,note_off,,,,,128,0,13,,,,,5,,,57,100
81952,note_off,,,,,64,0,8,,,,,0,,,74,100
81984,note_on,,,,,64,0,13,,,,,5,,,53,100
81984,note_on,,,,,192,0,9,,,,,1,,,72,100
81984,note_on,,,,,32,0,8,,,,,0,,,75,100
82048,note_off,,,,,64,0,8,,,,,0,,,75,100
82080,note_on,,,,,32,0,8,,,,,0,,,77,100
82112,note_off,,,,,128,0,9,,,,,1,,,72,100
82112,note_off,,,,,128,0,13,,,,,5,,,53,100
82144,note_off,,,,,64,0,8,,,,,0,,,77,100
82176,note_on,,,,,64,0,9,,,,,1,,,70,100
82176,note_on,,,,,64,0,13,,,,,5,,,58,100
82176,note_on,,,,,32,0,8,,,,,0,,,74,100
82240,note_off,,,,,64,0,9,,,,,1,,,70,100
82272,note_on,,,,,32,0,9,,,,,1,,,72,100
82304,note_off,,,,,128,0,13,,,,,5,,,58,100
82336,note_off,,,,,64,0,9,,,,,1,,,72,100
82368,note_on,,,,,64,0,13,,,,,5,,,46,100
82368,note_on,,,,,32,0,9,,,,,1,,,74,100
82432,note_off,,,,,64,0,9,,,,,1,,,74,100
82464,note_on,,,,,32,0,9,,,,,1,,,76,100
82496,note_off,,,,,128,0,13,,,,,5,,,46,100
82528,note_off,,,,,64,0,9,,,,,1,,,76,100
82560,note_on,,,,,32,0,9,,,,,1,,,77,100
82560,note_off,,,,,384,0,8,,,,,0,,,74,100
82624,note_off,,,,,64,0,9,,,,,1,,,77,100
82656,note_on,,,,,32,0,9,,,,,1,,,79,100
82720,note_off,,,,,64,0,9,,,,,1,,,79,100
82752,note_on,,,,,256,0,13,,,,,5,,,50,100
82752,note_on,,,,,32,0,9,,,,,1,,,81,100
82752,note_on,,,,,192,0,8,,,,,0,,,74,100
82816,note_off,,,,,64,0,9,,,,,1,,,81,100
82848,note_on,,,,,32,0,9,,,,,1,,,82,100
82880,note_off,,,,,128,0,13,,,,,5,,,50,100
82880,note_off,,,,,128,0,8,,,,,0,,,74,100
82912,note_off,,,,,64,0,9,,,,,1,,,82,100
82944,note_on,,,,,64,0,13,,,,,5,,,55,100
82944,note_on,,,,,64,0,8,,,,,0,,,70,100
82944,note_on,,,,,32,0,9,,,,,1,,,74,100
83008,note_off,,,,,64,0,8,,,,,0,,,70,100
83040,note_on,,,,,32,0,8,,,,,0,,,72,100
83072,note_off,,,,,128,0,13,,,,,5,,,55,100
83104,note_off,,,,,64,0,8,,,,,0,,,72,100
83136,note_on,,,,,64,0,13,,,,,5,,,43,100
83136,note_on,,,,,32,0,8,,,,,0,,,74,100
83200,note_off,,,,,64,0,8,,,,,0,,,74,100
83232,note_on,,,,,32,0,8,,,,,0,,,76,100
83264,note_off,,,,,128,0,13,,,,,5,,,43,100
83296,note_off,,,,,64,0,8,,,,,0,,,76,100
83328,note_off,,,,,384,0,9,,,,,1,,,74,100
83328,note_on,,,,,32,0,8,,,,,0,,,77,100
83392,note_off,,,,,64,0,8,,,,,0,,,77,100
83424,note_on,,,,,32,0,8,,,,,0,,,79,100
83488,note_off,,,,,64,0,8,,,,,0,,,79,100
83520,note_on,,,,,192,0,9,,,,,1,,,70,100
83520,note_on,,,,,256,0,13,,,,,5,,,43,100
83520,note_on,,,,,32,0,8,,,,,0,,,81,100
83584,note_off,,,,,64,0,8,,,,,0,,,81,100
83616,note_on,,,,,32,0,8,,,,,0,,,82,100
83648,note_off,,,,,128,0,9,,,,,1,,,70,100
83648,note_off,,,,,128,0,13,,,,,5,,,43,100
83680,note_off,,,,,64,0,8,,,,,0,,,82,100
83712,note_on,,,,,64,0,9,,,,,1,,,64,100
83712,note_on,,,,,64,0,13,,,,,5,,,45,100
83712,note_on,,,,,32,0,8,,,,,0,,,73,100
83776,note_off,,,,,64,0,13,,,,,5,,,45,100
83808,note_on,,,,,32,0,13,,,,,5,,,47,101
83840,note_off,,,,,128,0,9,,,,,1,,,64,100
83840,note_off,,,,,128,0,8,,,,,0,,,73,100
83872,note_off,,,,,64,0,13,,,,,5,,,47,100
83904,note_on,,,,,32,0,13,,,,,5,,,49,103
83904,note_on,,,,,64,0,8,,,,,0,,,81,103
83904,note_on,,,,,64,0,9,,,,,1,,,76,103
83968,note_off,,,,,64,0,13,,,,,5,,,49,100
84000,note_on,,,,,32,0,13,,,,,5,,,50,105
84032,note_off,,,,,128,0,9,,,,,1,,,76,100
84032,note_off,,,,,128,0,8,,,,,0,,,81,100
84064,note_off,,,,,64,0,13,,,,,5,,,50,100
84096,note_on,,,,,64,0,9,,,,,1,,,76,107
84096,note_on,,,,,32,0,13,,,,,5,,,52,107
84096,note_on,,,,,64,0,8,,,,,0,,,81,107
84160,note_off,,,,,64,0,13,,,,,5,,,52,100
84192,note_on,,,,,32,0,13,,,,,5,,,53,109
84224,note_off,,,,,128,0,8,,,,,0,,,81,100
84224,note_off,,,,,128,0,9,,,,,1,,,76,100
84256,note_off,,,,,64,0,13,,,,,5,,,53,100
84288,note_on,,,,,64,0,8,,,,,0,,,81,111
84288,note_on,,,,,64,0,9,,,,,1,,,73,111
84288,note_on,,,,,32,0,13,,,,,5,,,55,111
84352,note_off,,,,,64,0,13,,,,,5,,,55,100
84384,note_on,,,,,32,0,13,,,,,5,,,57,113
84416,note_off,,,,,128,0,8,,,,,0,,,81,100
84416,note_off,,,,,128,0,9,,,,,1,,,73,100
84448,note_off,,,,,64,0,13,,,,,5,,,57,100
84476,program_change,,,,,28,0,13,,,,,5,48,,,
84480,note_on,,,,,8960,0,14,,,,,6,,,41,114
84480,note_on,,,,,64,0,8,,,,,0,,,77,114
84480,note_on,,,,,0,0,15,,,,,7,,,69,100
84480,note_on,,,,,8868,0,15,,,,,7,,,60,100
84480,note_on,,,,,8960,0,16,,,,,7,,,53,114
84480,note_on,,,,,64,0,9,,,,,1,,,69,114
84480,note_on,,,,,4,0,13,,,,,5,,,53,114
84672,note_on,,,,,12224,0,12,,,,,4,,,69,100
84672,note_on,,,,,12224,0,10,,,,,2,,,77,100
84672,note_on,,,,,12224,0,11,,,,,3,,,74,100
84736,note_off,,,,,256,0,9,,,,,1,,,69,100
84736,note_off,,,,,64,0,10,,,,,2,,,77,100
84736,note_off,,,,,256,0,16,,,,,7,,,53,100
84736,note_off,,,,,256,0,13,,,,,5,,,53,100
84736,note_off,,,,,64,0,12,,,,,4,,,69,100
84736,note_off,,,,,256,0,14,,,,,6,,,41,100
84736,note_off,,,,,256,0,15,,,,,7,,,60,100
84736,note_off,,,,,64,0,11,,,,,3,,,74,100
84736,note_off,,,,,0,0,15,,,,,7,,,69,100
84736,note_off,,,,,256,0,8,,,,,0,,,77,100
84736,end_of_track,,,,,0,1,9,,,,,,,,,
84768,note_on,,,,,32,0,10,,,,,2,,,79,100
84768,note_on,,,,,32,0,12,,,,,4,,,67,100
84768,note_on,,,,,32,0,11,,,,,3,,,76,100
84832,note_off,,,,,64,0,10,,,,,2,,,79,100
84832,note_off,,,,,64,0,11,,,,,3,,,76,100
84832,note_off,,,,,64,0,12,,,,,4,,,67,100
84864,note_on,,,,,32,0,12,,,,,4,,,65,100
84864,note_on,,,,,128,0,14,,,,,6,,,50,100
84864,note_on,,,,,32,0,10,,,,,2,,,81,100
84864,note_on,,,,,128,0,13,,,,,5,,,62,100
84864,note_on,,,,,128,0,16,,,,,7,,,62,100
84864,note_on,,,,,0,0,15,,,,,7,,,69,100
84864,note_on,,,,,128,0,15,,,,,7,,,65,100
84864,note_on,,,,,32,0,11,,,,,3,,,77,100
84928,note_off,,,,,64,0,12,,,,,4,,,65,100
84960,note_on,,,,,32,0,12,,,,,4,,,64,100
84992,note_off,,,,,128,0,10,,,,,2,,,81,100
84992,note_off,,,,,128,0,11,,,,,3,,,77,100
85024,note_off,,,,,64,0,12,,,,,4,,,64,100
85056,note_on,,,,,64,0,11,,,,,3,,,77,100
85056,note_on,,,,,32,0,12,,,,,4,,,62,100
85056,note_on,,,,,64,0,10,,,,,2,,,81,100
85120,note_off,,,,,64,0,12,,,,,4,,,62,100
85120,note_off,,,,,0,0,15,,,,,7,,,69,100
85120,note_off,,,,,256,0,15,,,,,7,,,65,100
85152,note_on,,,,,32,0,12,,,,,4,,,65,100
85184,note_off,,,,,128,0,11,,,,,3,,,77,100
85184,note_off,,,,,128,0,10,,,,,2,,,81,100
85216,note_off,,,,,64,0,12,,,,,4,,,65,100
85248,note_on,,,,,32,0,12,,,,,4,,,58,100
85248,note_on,,,,,128,0,15,,,,,7,,,64,100
85248,note_on,,,,,64,0,10,,,,,2,,,79,100
85248,note_on,,,,,0,0,15,,,,,7,,,67,100
85248,note_on,,,,,64,0,11,,,,,3,,,76,100
85376,note_off,,,,,512,0,16,,,,,7,,,62,100
85376,note_off,,,,,128,0,11,,,,,3,,,76,100
85376,note_off,,,,,512,0,14,,,,,6,,,50,100
85376,note_off,,,,,512,0,13,,,,,5,,,62,100
85376,note_off,,,,,128,0,12,,,,,4,,,58,100
85376,note_off,,,,,128,0,10,,,,,2,,,79,100
85440,note_on,,,,,64,0,11,,,,,3,,,76,100
85440,note_on,,,,,64,0,12,,,,,4,,,70,100
85440,note_on,,,,,64,0,10,,,,,2,,,79,100
85504,note_off,,,,,64,0,10,,,,,2,,,79,100
85504,note_off,,,,,64,0,12,,,,,4,,,70,100
85504,note_off,,,,,256,0,15,,,,,7,,,64,100
85504,note_off,,,,,64,0,11,,,,,3,,,76,100
85504,note_off,,,,,0,0,15,,,,,7,,,67,100
85536,note_on,,,,,32,0,10,,,,,2,,,81,100
85536,note_on,,,,,32,0,12,,,,,4,,,69,100
85536,note_on,,,,,32,0,11,,,,,3,,,77,100
85600,note_off,,,,,64,0,12,,,,,4,,,69,100
85600,note_off,,,,,64,0,10,,,,,2,,,81,100
85600,note_off,,,,,64,0,11,,,,,3,,,77,100
85632,note_on,,,,,256,0,13,,,,,5,,,61,100
85632,note_on,,,,,32,0,10,,,,,2,,,82,100
85632,note_on,,,,,256,0,16,,,,,7,,,61,100
85632,note_on,,,,,32,0,12,,,,,4,,,67,100
85632,note_on,,,,,32,0,11,,,,,3,,,79,100
85632,note_on,,,,,0,0,15,,,,,7,,,70,100
85632,note_on,,,,,256,0,14,,,,,6,,,49,100
85632,note_on,,,,,128,0,15,,,,,7,,,67,100
85696,note_off,,,,,64,0,12,,,,,4,,,67,100
85728,note_on,,,,,32,0,12,,,,,4,,,64,100
85760,note_off,,,,,128,0,10,,,,,2,,,82,100
85760,note_off,,,,,128,0,11,,,,,3,,,79,100
85792,note_off,,,,,64,0,12,,,,,4,,,64,100
85824,note_on,,,,,32,0,12,,,,,4,,,65,100
85824,note_on,,,,,64,0,10,,,,,2,,,82,100
85824,note_on,,,,,64,0,11,,,,,3,,,76,100
85888,note_off,,,,,256,0,15,,,,,7,,,67,100
85888,note_off,,,,,0,0,15,,,,,7,,,70,100
85888,note_off,,,,,256,0,13,,,,,5,,,61,100
85888,note_off,,,,,256,0,14,,,,,6,,,49,100
85888,note_off,,,,,64,0,12,,,,,4,,,65,100
85888,note_off,,,,,256,0,16,,,,,7,,,61,100
85920,note_on,,,,,32,0,12,,,,,4,,,67,100
85952,note_off,,,,,128,0,11,,,,,3,,,76,100
85952,note_off,,,,,128,0,10,,,,,2,,,82,100
85984,note_off,,,,,64,0,12,,,,,4,,,67,100
86016,note_on,,,,,64,0,10,,,,,2,,,81,100
86016,note_on,,,,,128,0,16,,,,,7,,,62,100
86016,note_on,,,,,64,0,11,,,,,3,,,77,100
86016,note_on,,,,,128,0,14,,,,,6,,,50,100
86016,note_on,,,,,32,0,12,,,,,4,,,62,100
86016,note_on,,,,,0,0,15,,,,,7,,,69,100
86016,note_on,,,,,128,0,13,,,,,5,,,62,100
86016,note_on,,,,,128,0,15,,,,,7,,,65,100
86144,note_off,,,,,128,0,11,,,,,3,,,77,100
86144,note_off,,,,,128,0,10,,,,,2,,,81,100
86208,note_on,,,,,64,0,11,,,,,3,,,74,100
86208,note_on,,,,,64,0,10,,,,,2,,,81,100
86272,note_off,,,,,0,0,15,,,,,7,,,69,100
86272,note_off,,,,,256,0,14,,,,,6,,,50,100
86272,note_off,,,,,256,0,15,,,,,7,,,65,100
86272,note_off,,,,,256,0,16,,,,,7,,,62,100
86272,note_off,,,,,256,0,12,,,,,4,,,62,100
86272,note_off,,,,,256,0,13,,,,,5,,,62,100
86272,note_off,,,,,64,0,10,,,,,2,,,81,100
86304,note_on,,,,,32,0,10,,,,,2,,,83,100
86336,note_off,,,,,128,0,11,,,,,3,,,74,100
86368,note_off,,,,,64,0,10,,,,,2,,,83,100
86400,note_on,,,,,128,0,13,,,,,5,,,60,100
86400,note_on,,,,,0,0,15,,,,,7,,,64,100
86400,note_on,,,,,32,0,10,,,,,2,,,84,100
86400,note_on,,,,,128,0,14,,,,,6,,,48,100
86400,note_on,,,,,128,0,15,,,,,7,,,69,100
86400,note_on,,,,,64,0,11,,,,,3,,,81,100
86400,note_on,,,,,128,0,16,,,,,7,,,60,100
86528,note_off,,,,,128,0,10,,,,,2,,,84,100
86528,note_off,,,,,128,0,14,,,,,6,,,48,100
86528,note_off,,,,,0,0,15,,,,,7,,,64,100
86528,note_off,,,,,128,0,15,,,,,7,,,69,100
86528,note_off,,,,,128,0,13,,,,,5,,,60,100
86528,note_off,,,,,128,0,16,,,,,7,,,60,100
86592,note_on,,,,,64,0,15,,,,,7,,,69,100
86592,note_on,,,,,64,0,10,,,,,2,,,84,100
86592,note_on,,,,,320,0,12,,,,,4,,,65,100
86592,note_on,,,,,0,0,15,,,,,7,,,65,100
86592,note_on,,,,,64,0,13,,,,,5,,,62,100
86592,note_on,,,,,64,0,16,,,,,7,,,62,100
86592,note_on,,,,,64,0,14,,,,,6,,,50,100
86720,note_off,,,,,128,0,13,,,,,5,,,62,100
86720,note_off,,,,,128,0,15,,,,,7,,,69,100
86720,note_off,,,,,128,0,12,,,,,4,,,65,100
86720,note_off,,,,,128,0,16,,,,,7,,,62,100
86720,note_off,,,,,128,0,10,,,,,2,,,84,100
86720,note_off,,,,,0,0,15,,,,,7,,,65,100
86720,note_off,,,,,128,0,14,,,,,6,,,50,100
86784,note_on,,,,,0,0,15,,,,,7,,,71,100
86784,note_on,,,,,64,0,12,,,,,4,,,64,100
86784,note_on,,,,,64,0,13,,,,,5,,,64,100
86784,note_on,,,,,64,0,15,,,,,7,,,69,100
86784,note_on,,,,,64,0,16,,,,,7,,,64,100
86784,note_on,,,,,64,0,10,,,,,2,,,83,100
86784,note_on,,,,,64,0,14,,,,,6,,,52,100
86912,note_off,,,,,128,0,10,,,,,2,,,83,100
86912,note_off,,,,,512,0,11,,,,,3,,,81,100
86976,note_on,,,,,64,0,10,,,,,2,,,83,100
87040,note_off,,,,,0,0,15,,,,,7,,,71,100
87040,note_off,,,,,256,0,14,,,,,6,,,52,100
87040,note_off,,,,,256,0,13,,,,,5,,,64,100
87040,note_off,,,,,256,0,15,,,,,7,,,69,100
87040,note_off,,,,,64,0,10,,,,,2,,,83,100
87040,note_off,,,,,256,0,16,,,,,7,,,64,100
87072,note_on,,,,,32,0,10,,,,,2,,,84,100
87136,note_off,,,,,64,0,10,,,,,2,,,84,100
87168,note_on,,,,,0,0,15,,,,,7,,,68,100
87168,note_on,,,,,128,0,15,,,,,7,,,59,100
87168,note_on,,,,,128,0,13,,,,,5,,,52,100
87168,note_on,,,,,256,0,11,,,,,3,,,80,100
87168,note_on,,,,,128,0,16,,,,,7,,,52,100
87168,note_on,,,,,32,0,10,,,,,2,,,86,100
87168,note_on,,,,,128,0,14,,,,,6,,,40,100
87296,note_off,,,,,128,0,10,,,,,2,,,86,100
87296,note_off,,,,,512,0,12,,,,,4,,,64,100
87360,note_on,,,,,64,0,10,,,,,2,,,83,100
87424,note_off,,,,,0,0,15,,,,,7,,,68,100
87424,note_off,,,,,256,0,15,,,,,7,,,59,100
87424,note_off,,,,,256,0,11,,,,,3,,,80,100
87424,note_off,,,,,256,0,14,,,,,6,,,40,100
87424,note_off,,,,,256,0,16,,,,,7,,,52,100
87424,note_off,,,,,256,0,13,,,,,5,,,52,100
87488,note_off,,,,,128,0,10,,,,,2,,,83,100
87552,note_on,,,,,128,0,13,,,,,5,,,45,90
87552,note_on,,,,,128,0,11,,,,,3,,,81,100
87552,note_on,,,,,256,0,12,,,,,4,,,64,100
87552,note_on,,,,,0,0,15,,,,,7,,,61,100
87552,note_on,,,,,128,0,14,,,,,6,,,33,90
87552,note_on,,,,,128,0,15,,,,,7,,,69,100
87552,note_on,,,,,64,0,10,,,,,2,,,85,100
87552,note_on,,,,,128,0,16,,,,,7,,,45,100
87680,note_off,,,,,128,0,11,,,,,3,,,81,100
87680,note_off,,,,,128,0,10,,,,,2,,,85,100
87744,note_on,,,,,64,0,11,,,,,3,,,73,100
87744,note_on,,,,,64,0,10,,,,,2,,,76,100
87808,note_off,,,,,64,0,11,,,,,3,,,73,100
87808,note_off,,,,,256,0,12,,,,,4,,,64,100
87808,note_off,,,,,0,0,15,,,,,7,,,61,100
87808,note_off,,,,,256,0,16,,,,,7,,,45,100
87808,note_off,,,,,64,0,10,,,,,2,,,76,100
87808,note_off,,,,,256,0,15,,,,,7,,,69,100
87840,note_on,,,,,32,0,11,,,,,3,,,71,100
87840,note_on,,,,,32,0,10,,,,,2,,,74,100
87904,note_off,,,,,64,0,11,,,,,3,,,71,100
87904,note_off,,,,,64,0,10,,,,,2,,,74,100
87936,note_on,,,,,32,0,10,,,,,2,,,73,100
87936,note_on,,,,,32,0,11,,,,,3,,,69,100
88000,note_off,,,,,64,0,10,,,,,2,,,73,100
88000,note_off,,,,,64,0,11,,,,,3,,,69,100
88032,note_on,,,,,32,0,10,,,,,2,,,71,100
88032,note_on,,,,,32,0,11,,,,,3,,,71,100
88096,note_off,,,,,64,0,11,,,,,3,,,71,100
88096,note_off,,,,,64,0,10,,,,,2,,,71,100
88128,note_on,,,,,32,0,11,,,,,3,,,73,100
88128,note_on,,,,,32,0,10,,,,,2,,,69,100
88192,note_off,,,,,64,0,11,,,,,3,,,73,100
88192,note_off,,,,,64,0,10,,,,,2,,,69,100
88224,note_on,,,,,32,0,11,,,,,3,,,69,100
88224,note_on,,,,,32,0,10,,,,,2,,,76,100
88288,note_off,,,,,64,0,11,,,,,3,,,69,100
88288,note_off,,,,,64,0,10,,,,,2,,,76,100
88320,note_on,,,,,32,0,11,,,,,3,,,74,100
88320,note_on,,,,,32,0,10,,,,,2,,,77,100
88448,note_off,,,,,128,0,10,,,,,2,,,77,100
88512,note_on,,,,,704,0,12,,,,,4,,,65,100
88512,note_on,,,,,64,0,10,,,,,2,,,81,100
88576,note_off,,,,,64,0,12,,,,,4,,,65,100
88576,note_off,,,,,64,0,10,,,,,2,,,81,100
88576,note_off,,,,,256,0,11,,,,,3,,,74,100
88608,note_on,,,,,32,0,12,,,,,4,,,64,100
88608,note_on,,,,,32,0,10,,,,,2,,,79,100
88672,note_off,,,,,64,0,12,,,,,4,,,64,100
88672,note_off,,,,,64,0,10,,,,,2,,,79,100
88704,note_on,,,,,32,0,12,,,,,4,,,62,100
88704,note_on,,,,,32,0,10,,,,,2,,,77,100
88768,note_off,,,,,64,0,12,,,,,4,,,62,100
88768,note_off,,,,,64,0,10,,,,,2,,,77,100
88800,note_on,,,,,32,0,10,,,,,2,,,76,100
88800,note_on,,,,,32,0,12,,,,,4,,,64,100
88864,note_off,,,,,64,0,10,,,,,2,,,76,100
88864,note_off,,,,,64,0,12,,,,,4,,,64,100
88896,note_on,,,,,32,0,12,,,,,4,,,65,100
88896,note_on,,,,,32,0,10,,,,,2,,,74,100
88960,note_off,,,,,64,0,12,,,,,4,,,65,100
88960,note_off,,,,,64,0,10,,,,,2,,,74,100
88992,note_on,,,,,32,0,12,,,,,4,,,62,100
88992,note_on,,,,,32,0,10,,,,,2,,,77,100
89056,note_off,,,,,64,0,12,,,,,4,,,62,100
89056,note_off,,,,,64,0,10,,,,,2,,,77,100
89088,note_on,,,,,32,0,12,,,,,4,,,69,100
89088,note_on,,,,,32,0,10,,,,,2,,,76,100
89216,note_off,,,,,128,0,10,,,,,2,,,76,100
89280,note_on,,,,,704,0,11,,,,,3,,,73,70
89280,note_on,,,,,64,0,10,,,,,2,,,76,70
89344,note_off,,,,,256,0,12,,,,,4,,,69,100
89344,note_off,,,,,64,0,11,,,,,3,,,73,100
89344,note_off,,,,,64,0,10,,,,,2,,,76,100
89376,note_on,,,,,32,0,10,,,,,2,,,74,70
89376,note_on,,,,,32,0,11,,,,,3,,,71,70
89440,note_off,,,,,64,0,10,,,,,2,,,74,100
89440,note_off,,,,,64,0,11,,,,,3,,,71,100
89472,note_on,,,,,32,0,10,,,,,2,,,73,70
89472,note_on,,,,,32,0,11,,,,,3,,,69,70
89536,note_off,,,,,64,0,10,,,,,2,,,73,100
89536,note_off,,,,,64,0,11,,,,,3,,,69,100
89568,note_on,,,,,32,0,10,,,,,2,,,71,70
89568,note_on,,,,,32,0,11,,,,,3,,,71,70
89632,note_off,,,,,64,0,10,,,,,2,,,71,100
89632,note_off,,,,,64,0,11,,,,,3,,,71,100
89664,note_on,,,,,32,0,10,,,,,2,,,69,70
89664,note_on,,,,,32,0,11,,,,,3,,,73,70
89728,note_off,,,,,64,0,10,,,,,2,,,69,100
89728,note_off,,,,,64,0,11,,,,,3,,,73,100
89760,note_on,,,,,32,0,11,,,,,3,,,69,70
89760,note_on,,,,,32,0,10,,,,,2,,,76,70
89824,note_off,,,,,64,0,10,,,,,2,,,76,100
89824,note_off,,,,,64,0,11,,,,,3,,,69,100
89856,note_on,,,,,32,0,10,,,,,2,,,77,70
89856,note_on,,,,,32,0,11,,,,,3,,,74,70
89984,note_off,,,,,128,0,10,,,,,2,,,77,100
90048,note_on,,,,,64,0,10,,,,,2,,,81,70
90048,note_on,,,,,704,0,12,,,,,4,,,65,70
90112,note_off,,,,,64,0,10,,,,,2,,,81,100
90112,note_off,,,,,64,0,12,,,,,4,,,65,100
90112,note_off,,,,,256,0,11,,,,,3,,,74,100
90144,note_on,,,,,32,0,10,,,,,2,,,79,70
90144,note_on,,,,,32,0,12,,,,,4,,,64,70
90208,note_off,,,,,64,0,12,,,,,4,,,64,100
90208,note_off,,,,,64,0,10,,,,,2,,,79,100
90240,note_on,,,,,32,0,12,,,,,4,,,62,70
90240,note_on,,,,,32,0,10,,,,,2,,,77,70
90304,note_off,,,,,64,0,12,,,,,4,,,62,100
90304,note_off,,,,,64,0,10,,,,,2,,,77,100
90336,note_on,,,,,32,0,12,,,,,4,,,64,70
90336,note_on,,,,,32,0,10,,,,,2,,,76,70
90400,note_off,,,,,64,0,12,,,,,4,,,64,100
90400,note_off,,,,,64,0,10,,,,,2,,,76,100
90432,note_on,,,,,32,0,10,,,,,2,,,74,70
90432,note_on,,,,,32,0,12,,,,,4,,,65,70
90496,note_off,,,,,64,0,12,,,,,4,,,65,100
90496,note_off,,,,,64,0,10,,,,,2,,,74,100
90528,note_on,,,,,32,0,12,,,,,4,,,62,70
90528,note_on,,,,,32,0,10,,,,,2,,,77,70
90592,note_off,,,,,64,0,10,,,,,2,,,77,100
90592,note_off,,,,,64,0,12,,,,,4,,,62,100
90624,note_on,,,,,32,0,12,,,,,4,,,69,70
90624,note_on,,,,,32,0,10,,,,,2,,,76,70
90752,note_off,,,,,128,0,10,,,,,2,,,76,100
90816,note_on,,,,,64,0,10,,,,,2,,,69,100
90880,note_off,,,,,64,0,10,,,,,2,,,69,100
90880,note_off,,,,,256,0,12,,,,,4,,,69,100
90912,note_on,,,,,32,0,10,,,,,2,,,71,100
90976,note_off,,,,,64,0,10,,,,,2,,,71,100
91008,note_on,,,,,128,0,12,,,,,4,,,67,100
91008,note_on,,,,,32,0,10,,,,,2,,,73,100
91136,note_off,,,,,128,0,10,,,,,2,,,73,100
91200,note_on,,,,,64,0,10,,,,,2,,,69,100
91264,note_off,,,,,256,0,12,,,,,4,,,67,100
91328,note_off,,,,,128,0,10,,,,,2,,,69,100
91392,note_on,,,,,64,0,10,,,,,2,,,74,100
91392,note_on,,,,,128,0,12,,,,,4,,,65,100
91520,note_off,,,,,128,0,10,,,,,2,,,74,100
91584,note_on,,,,,64,0,10,,,,,2,,,74,100
91648,note_off,,,,,64,0,10,,,,,2,,,74,100
91648,note_off,,,,,256,0,12,,,,,4,,,65,100
91680,note_on,,,,,32,0,10,,,,,2,,,76,100
91744,note_off,,,,,64,0,10,,,,,2,,,76,100
91776,note_on,,,,,32,0,10,,,,,2,,,77,100
91776,note_on,,,,,128,0,12,,,,,4,,,62,100
91904,note_off,,,,,128,0,10,,,,,2,,,77,100
91968,note_on,,,,,64,0,10,,,,,2,,,74,100
92032,note_off,,,,,256,0,12,,,,,4,,,62,100
92096,note_off,,,,,128,0,10,,,,,2,,,74,100
92160,note_on,,,,,64,0,10,,,,,2,,,73,100
92160,note_on,,,,,128,0,12,,,,,4,,,69,100
92288,note_off,,,,,128,0,10,,,,,2,,,73,100
92352,note_on,,,,,2240,0,11,,,,,3,,,69,100
92352,note_on,,,,,64,0,10,,,,,2,,,73,100
92416,note_off,,,,,64,0,11,,,,,3,,,69,100
92416,note_off,,,,,64,0,10,,,,,2,,,73,100
92416,note_off,,,,,256,0,12,,,,,4,,,69,100
92448,note_on,,,,,32,0,11,,,,,3,,,71,100
92448,note_on,,,,,32,0,10,,,,,2,,,74,100
92512,note_off,,,,,64,0,11,,,,,3,,,71,100
92512,note_off,,,,,64,0,10,,,,,2,,,74,100
92544,note_on,,,,,32,0,11,,,,,3,,,73,100
92544,note_on,,,,,128,0,12,,,,,4,,,67,100
92544,note_on,,,,,32,0,10,,,,,2,,,76,100
92672,note_off,,,,,128,0,11,,,,,3,,,73,100
92672,note_off,,,,,128,0,10,,,,,2,,,76,100
92736,note_on,,,,,64,0,11,,,,,3,,,69,100
92736,note_on,,,,,64,0,10,,,,,2,,,73,100
92800,note_off,,,,,256,0,12,,,,,4,,,67,100
92864,note_off,,,,,128,0,10,,,,,2,,,73,100
92864,note_off,,,,,128,0,11,,,,,3,,,69,100
92928,note_on,,,,,64,0,10,,,,,2,,,77,100
92928,note_on,,,,,64,0,11,,,,,3,,,74,100
92928,note_on,,,,,128,0,12,,,,,4,,,65,100
93056,note_off,,,,,128,0,10,,,,,2,,,77,100
93056,note_off,,,,,128,0,11,,,,,3,,,74,100
93120,note_on,,,,,64,0,10,,,,,2,,,77,100
93120,note_on,,,,,64,0,11,,,,,3,,,74,100
93184,note_off,,,,,256,0,12,,,,,4,,,65,100
93184,note_off,,,,,64,0,10,,,,,2,,,77,100
93184,note_off,,,,,64,0,11,,,,,3,,,74,100
93216,note_on,,,,,32,0,10,,,,,2,,,79,100
93216,note_on,,,,,32,0,11,,,,,3,,,76,100
93280,note_off,,,,,64,0,10,,,,,2,,,79,100
93280,note_off,,,,,64,0,11,,,,,3,,,76,100
93312,note_on,,,,,32,0,10,,,,,2,,,81,100
93312,note_on,,,,,128,0,12,,,,,4,,,62,100
93312,note_on,,,,,32,0,11,,,,,3,,,77,100
93440,note_off,,,,,128,0,11,,,,,3,,,77,100
93440,note_off,,,,,128,0,10,,,,,2,,,81,100
93504,note_on,,,,,64,0,10,,,,,2,,,77,100
93504,note_on,,,,,64,0,11,,,,,3,,,74,100
93568,note_off,,,,,256,0,12,,,,,4,,,62,100
93632,note_off,,,,,128,0,10,,,,,2,,,77,100
93632,note_off,,,,,128,0,11,,,,,3,,,74,100
93696,note_on,,,,,64,0,11,,,,,3,,,73,100
93696,note_on,,,,,128,0,12,,,,,4,,,69,100
93696,note_on,,,,,64,0,10,,,,,2,,,76,100
93760,note_off,,,,,64,0,11,,,,,3,,,73,100
93760,note_off,,,,,64,0,10,,,,,2,,,76,100
93792,note_on,,,,,32,0,10,,,,,2,,,74,100
93792,note_on,,,,,32,0,11,,,,,3,,,71,100
93856,note_off,,,,,64,0,10,,,,,2,,,74,100
93856,note_off,,,,,64,0,11,,,,,3,,,71,100
93888,note_on,,,,,32,0,10,,,,,2,,,76,100
93888,note_on,,,,,32,0,11,,,,,3,,,73,100
93952,note_off,,,,,64,0,11,,,,,3,,,73,100
93952,note_off,,,,,256,0,12,,,,,4,,,69,100
93952,note_off,,,,,64,0,10,,,,,2,,,76,100
93984,note_on,,,,,32,0,10,,,,,2,,,77,100
93984,note_on,,,,,32,0,11,,,,,3,,,74,100
94048,note_off,,,,,64,0,11,,,,,3,,,74,100
94048,note_off,,,,,64,0,10,,,,,2,,,77,100
94080,note_on,,,,,32,0,10,,,,,2,,,76,100
94080,note_on,,,,,128,0,12,,,,,4,,,69,100
94080,note_on,,,,,32,0,11,,,,,3,,,73,100
94144,note_off,,,,,64,0,10,,,,,2,,,76,100
94144,note_off,,,,,64,0,11,,,,,3,,,73,100
94176,note_on,,,,,32,0,11,,,,,3,,,76,100
94176,note_on,,,,,32,0,10,,,,,2,,,79,100
94208,note_off,,,,,128,0,12,,,,,4,,,69,100
94240,note_off,,,,,64,0,10,,,,,2,,,79,100
94240,note_off,,,,,64,0,11,,,,,3,,,76,100
94272,note_on,,,,,32,0,10,,,,,2,,,77,100
94272,note_on,,,,,64,0,12,,,,,4,,,69,100
94272,note_on,,,,,32,0,11,,,,,3,,,74,100
94336,note_off,,,,,64,0,10,,,,,2,,,77,100
94336,note_off,,,,,64,0,11,,,,,3,,,74,100
94368,note_on,,,,,32,0,11,,,,,3,,,73,100
94368,note_on,,,,,32,0,10,,,,,2,,,76,100
94400,note_off,,,,,128,0,12,,,,,4,,,69,100
94432,note_off,,,,,64,0,10,,,,,2,,,76,100
94432,note_off,,,,,64,0,11,,,,,3,,,73,100
94464,note_on,,,,,32,0,10,,,,,2,,,77,100
94464,note_on,,,,,64,0,12,,,,,4,,,69,100
94464,note_on,,,,,32,0,11,,,,,3,,,74,100
94528,note_off,,,,,64,0,10,,,,,2,,,77,100
94528,note_off,,,,,64,0,11,,,,,3,,,74,100
94560,note_on,,,,,32,0,10,,,,,2,,,76,100
94560,note_on,,,,,32,0,11,,,,,3,,,73,100
94592,note_off,,,,,128,0,12,,,,,4,,,69,100
94624,note_off,,,,,64,0,10,,,,,2,,,76,100
94624,note_off,,,,,64,0,11,,,,,3,,,73,100
94656,note_on,,,,,32,0,10,,,,,2,,,77,100
94656,note_on,,,,,64,0,12,,,,,4,,,62,100
94656,note_on,,,,,32,0,11,,,,,3,,,74,100
94720,note_off,,,,,64,0,10,,,,,2,,,77,100
94720,note_off,,,,,64,0,11,,,,,3,,,74,100
94752,note_on,,,,,32,0,11,,,,,3,,,76,100
94752,note_on,,,,,32,0,10,,,,,2,,,79,100
94784,note_off,,,,,128,0,12,,,,,4,,,62,100
94816,note_off,,,,,64,0,10,,,,,2,,,79,100
94816,note_off,,,,,64,0,11,,,,,3,,,76,100
94848,note_on,,,,,32,0,10,,,,,2,,,77,100
94848,note_on,,,,,32,0,11,,,,,3,,,74,100
94912,note_off,,,,,64,0,10,,,,,2,,,77,100
94912,note_off,,,,,64,0,11,,,,,3,,,74,100
94944,note_on,,,,,32,0,11,,,,,3,,,77,70
94944,note_on,,,,,32,0,10,,,,,2,,,81,70
95008,note_off,,,,,64,0,11,,,,,3,,,77,100
95008,note_off,,,,,64,0,10,,,,,2,,,81,100
95040,note_on,,,,,32,0,11,,,,,3,,,76,70
95040,note_on,,,,,32,0,10,,,,,2,,,79,70
95104,note_off,,,,,64,0,11,,,,,3,,,76,100
95104,note_off,,,,,64,0,10,,,,,2,,,79,100
95136,note_on,,,,,32,0,11,,,,,3,,,74,70
95136,note_on,,,,,32,0,10,,,,,2,,,77,70
95200,note_off,,,,,64,0,10,,,,,2,,,77,100
95200,note_off,,,,,64,0,11,,,,,3,,,74,100
95232,note_on,,,,,32,0,11,,,,,3,,,73,70
95232,note_on,,,,,32,0,10,,,,,2,,,76,70
95296,note_off,,,,,64,0,10,,,,,2,,,76,100
95296,note_off,,,,,64,0,11,,,,,3,,,73,100
95328,note_on,,,,,32,0,11,,,,,3,,,71,70
95328,note_on,,,,,32,0,10,,,,,2,,,74,70
95392,note_off,,,,,64,0,10,,,,,2,,,74,100
95392,note_off,,,,,64,0,11,,,,,3,,,71,100
95424,note_on,,,,,32,0,11,,,,,3,,,73,70
95424,note_on,,,,,32,0,10,,,,,2,,,76,70
95488,note_off,,,,,64,0,10,,,,,2,,,76,100
95488,note_off,,,,,64,0,11,,,,,3,,,73,100
95520,note_on,,,,,32,0,11,,,,,3,,,74,70
95520,note_on,,,,,32,0,10,,,,,2,,,77,70
95584,note_off,,,,,64,0,11,,,,,3,,,74,100
95584,note_off,,,,,64,0,10,,,,,2,,,77,100
95616,note_on,,,,,32,0,11,,,,,3,,,73,70
95616,note_on,,,,,832,0,12,,,,,4,,,69,70
95616,note_on,,,,,32,0,10,,,,,2,,,76,70
95680,note_off,,,,,64,0,11,,,,,3,,,73,100
95680,note_off,,,,,64,0,10,,,,,2,,,76,100
95712,note_on,,,,,32,0,10,,,,,2,,,79,70
95712,note_on,,,,,32,0,11,,,,,3,,,76,70
95744,note_off,,,,,128,0,12,,,,,4,,,69,100
95776,note_off,,,,,64,0,11,,,,,3,,,76,100
95776,note_off,,,,,64,0,10,,,,,2,,,79,100
95808,note_on,,,,,32,0,11,,,,,3,,,74,70
95808,note_on,,,,,64,0,12,,,,,4,,,69,70
95808,note_on,,,,,32,0,10,,,,,2,,,77,70
95872,note_off,,,,,64,0,10,,,,,2,,,77,100
95872,note_off,,,,,64,0,11,,,,,3,,,74,100
95904,note_on,,,,,32,0,10,,,,,2,,,76,70
95904,note_on,,,,,32,0,11,,,,,3,,,73,70
95936,note_off,,,,,128,0,12,,,,,4,,,69,100
95968,note_off,,,,,64,0,10,,,,,2,,,76,100
95968,note_off,,,,,64,0,11,,,,,3,,,73,100
96000,note_on,,,,,64,0,12,,,,,4,,,69,70
96000,note_on,,,,,32,0,11,,,,,3,,,74,70
96000,note_on,,,,,32,0,10,,,,,2,,,77,70
96064,note_off,,,,,64,0,11,,,,,3,,,74,100
96064,note_off,,,,,64,0,10,,,,,2,,,77,100
96096,note_on,,,,,32,0,11,,,,,3,,,73,70
96096,note_on,,,,,32,0,10,,,,,2,,,76,70
96128,note_off,,,,,128,0,12,,,,,4,,,69,100
96160,note_off,,,,,64,0,10,,,,,2,,,76,100
96160,note_off,,,,,64,0,11,,,,,3,,,73,100
96192,note_on,,,,,32,0,11,,,,,3,,,74,70
96192,note_on,,,,,32,0,10,,,,,2,,,77,70
96192,note_on,,,,,64,0,12,,,,,4,,,62,70
96256,note_off,,,,,64,0,10,,,,,2,,,77,100
96256,note_off,,,,,64,0,11,,,,,3,,,74,100
96288,note_on,,,,,32,0,10,,,,,2,,,79,70
96288,note_on,,,,,32,0,11,,,,,3,,,76,70
96320,note_off,,,,,128,0,12,,,,,4,,,62,100
96352,note_off,,,,,64,0,10,,,,,2,,,79,100
96352,note_off,,,,,64,0,11,,,,,3,,,76,100
96384,note_on,,,,,32,0,11,,,,,3,,,74,70
96384,note_on,,,,,32,0,10,,,,,2,,,77,70
96448,note_off,,,,,64,0,10,,,,,2,,,77,100
96448,note_off,,,,,64,0,11,,,,,3,,,74,100
96480,note_on,,,,,32,0,10,,,,,2,,,81,77
96480,note_on,,,,,32,0,11,,,,,3,,,77,77
96544,note_off,,,,,64,0,10,,,,,2,,,81,100
96544,note_off,,,,,64,0,11,,,,,3,,,77,100
96576,note_on,,,,,32,0,11,,,,,3,,,76,84
96576,note_on,,,,,32,0,10,,,,,2,,,79,84
96640,note_off,,,,,64,0,11,,,,,3,,,76,100
96640,note_off,,,,,64,0,10,,,,,2,,,79,100
96672,note_on,,,,,32,0,11,,,,,3,,,74,92
96672,note_on,,,,,32,0,10,,,,,2,,,77,92
96736,note_off,,,,,64,0,10,,,,,2,,,77,100
96736,note_off,,,,,64,0,11,,,,,3,,,74,100
96768,note_on,,,,,32,0,11,,,,,3,,,73,99
96768,note_on,,,,,32,0,10,,,,,2,,,76,99
96832,note_off,,,,,64,0,11,,,,,3,,,73,100
96832,note_off,,,,,64,0,10,,,,,2,,,76,100
96864,note_on,,,,,32,0,10,,,,,2,,,74,100
96864,note_on,,,,,32,0,11,,,,,3,,,71,100
96928,note_off,,,,,64,0,10,,,,,2,,,74,100
96928,note_off,,,,,64,0,11,,,,,3,,,71,100
96960,note_on,,,,,32,0,10,,,,,2,,,76,100
96960,note_on,,,,,32,0,11,,,,,3,,,73,100
97024,note_off,,,,,64,0,10,,,,,2,,,76,100
97024,note_off,,,,,64,0,11,,,,,3,,,73,100
97056,note_on,,,,,32,0,10,,,,,2,,,77,100
97056,note_on,,,,,32,0,11,,,,,3,,,74,100
97120,note_off,,,,,64,0,10,,,,,2,,,77,100
97120,note_off,,,,,64,0,11,,,,,3,,,74,100
97152,note_on,,,,,32,0,10,,,,,2,,,76,100
97152,note_on,,,,,32,0,11,,,,,3,,,73,100
97152,note_on,,,,,832,0,12,,,,,4,,,69,100
97216,note_off,,,,,64,0,10,,,,,2,,,76,100
97216,note_off,,,,,64,0,11,,,,,3,,,73,100
97248,note_on,,,,,32,0,11,,,,,3,,,76,100
97248,note_on,,,,,32,0,10,,,,,2,,,79,100
97280,note_off,,,,,128,0,12,,,,,4,,,69,100
97312,note_off,,,,,64,0,11,,,,,3,,,76,100
97312,note_off,,,,,64,0,10,,,,,2,,,79,100
97344,note_on,,,,,32,0,11,,,,,3,,,74,100
97344,note_on,,,,,32,0,10,,,,,2,,,77,100
97344,note_on,,,,,64,0,12,,,,,4,,,69,100
97408,note_off,,,,,64,0,11,,,,,3,,,74,100
97408,note_off,,,,,64,0,10,,,,,2,,,77,100
97440,note_on,,,,,32,0,11,,,,,3,,,73,100
97440,note_on,,,,,32,0,10,,,,,2,,,76,100
97472,note_off,,,,,128,0,12,,,,,4,,,69,100
97504,note_off,,,,,64,0,11,,,,,3,,,73,100
97504,note_off,,,,,64,0,10,,,,,2,,,76,100
97536,note_on,,,,,32,0,10,,,,,2,,,77,100
97536,note_on,,,,,64,0,12,,,,,4,,,69,100
97536,note_on,,,,,32,0,11,,,,,3,,,74,100
97600,note_off,,,,,64,0,10,,,,,2,,,77,100
97600,note_off,,,,,64,0,11,,,,,3,,,74,100
97632,note_on,,,,,32,0,11,,,,,3,,,73,100
97632,note_on,,,,,32,0,10,,,,,2,,,76,100
97664,note_off,,,,,128,0,12,,,,,4,,,69,100
97696,note_off,,,,,64,0,10,,,,,2,,,76,100
97696,note_off,,,,,64,0,11,,,,,3,,,73,100
97728,note_on,,,,,32,0,10,,,,,2,,,77,100
97728,note_on,,,,,32,0,11,,,,,3,,,74,100
97728,note_on,,,,,64,0,12,,,,,4,,,62,100
97792,note_off,,,,,64,0,10,,,,,2,,,77,100
97792,note_off,,,,,64,0,11,,,,,3,,,74,100
97824,note_on,,,,,32,0,10,,,,,2,,,79,100
97824,note_on,,,,,32,0,11,,,,,3,,,76,100
97856,note_off,,,,,128,0,12,,,,,4,,,62,100
97888,note_off,,,,,64,0,10,,,,,2,,,79,100
97888,note_off,,,,,64,0,11,,,,,3,,,76,100
97920,note_on,,,,,32,0,10,,,,,2,,,77,100
97920,note_on,,,,,32,0,11,,,,,3,,,74,100
97984,note_off,,,,,64,0,10,,,,,2,,,77,100
97984,note_off,,,,,64,0,11,,,,,3,,,74,100
98016,note_on,,,,,32,0,11,,,,,3,,,77,100
98016,note_on,,,,,32,0,10,,,,,2,,,81,100
98080,note_off,,,,,64,0,11,,,,,3,,,77,100
98080,note_off,,,,,64,0,10,,,,,2,,,81,100
98112,note_on,,,,,32,0,11,,,,,3,,,76,100
98112,note_on,,,,,32,0,10,,,,,2,,,79,100
98176,note_off,,,,,64,0,10,,,,,2,,,79,100
98176,note_off,,,,,64,0,11,,,,,3,,,76,100
98208,note_on,,,,,32,0,10,,,,,2,,,77,100
98208,note_on,,,,,32,0,11,,,,,3,,,74,100
98272,note_off,,,,,64,0,10,,,,,2,,,77,100
98272,note_off,,,,,64,0,11,,,,,3,,,74,100
98304,note_on,,,,,32,0,11,,,,,3,,,73,100
98304,note_on,,,,,32,0,10,,,,,2,,,76,100
98432,note_off,,,,,128,0,11,,,,,3,,,73,100
98496,note_on,,,,,64,0,11,,,,,3,,,76,100
98560,note_off,,,,,256,0,10,,,,,2,,,76,100
98560,note_off,,,,,64,0,11,,,,,3,,,76,100
98592,note_on,,,,,32,0,11,,,,,3,,,74,100
98656,note_off,,,,,64,0,11,,,,,3,,,74,100
98688,note_on,,,,,32,0,11,,,,,3,,,73,100
98688,note_on,,,,,832,0,12,,,,,4,,,69,100
98688,note_on,,,,,128,0,10,,,,,2,,,81,100
98752,note_off,,,,,64,0,11,,,,,3,,,73,100
98784,note_on,,,,,32,0,11,,,,,3,,,71,100
98816,note_off,,,,,128,0,12,,,,,4,,,69,100
98848,note_off,,,,,64,0,11,,,,,3,,,71,100
98880,note_on,,,,,32,0,11,,,,,3,,,69,100
98880,note_on,,,,,64,0,12,,,,,4,,,69,100
98944,note_off,,,,,256,0,10,,,,,2,,,81,100
98944,note_off,,,,,64,0,11,,,,,3,,,69,100
98976,note_on,,,,,32,0,11,,,,,3,,,67,100
99008,note_off,,,,,128,0,12,,,,,4,,,69,100
99040,note_off,,,,,64,0,11,,,,,3,,,67,100
99072,note_on,,,,,128,0,10,,,,,2,,,74,100
99072,note_on,,,,,64,0,12,,,,,4,,,69,100
99072,note_on,,,,,32,0,11,,,,,3,,,65,100
99200,note_off,,,,,128,0,12,,,,,4,,,69,100
99200,note_off,,,,,128,0,11,,,,,3,,,65,100
99264,note_on,,,,,64,0,12,,,,,4,,,70,100
99264,note_on,,,,,64,0,11,,,,,3,,,74,100
99296,note_off,,,,,32,0,12,,,,,4,,,70,100
99328,note_off,,,,,64,0,11,,,,,3,,,74,100
99328,note_off,,,,,256,0,10,,,,,2,,,74,100
99360,note_on,,,,,64,0,12,,,,,4,,,69,100
99360,note_on,,,,,32,0,11,,,,,3,,,72,100
99392,note_off,,,,,32,0,12,,,,,4,,,69,100
99424,note_off,,,,,64,0,11,,,,,3,,,72,100
99456,note_on,,,,,128,0,10,,,,,2,,,79,100
99456,note_on,,,,,64,0,12,,,,,4,,,70,100
99456,note_on,,,,,32,0,11,,,,,3,,,70,100
99520,note_off,,,,,64,0,11,,,,,3,,,70,100
99552,note_on,,,,,32,0,11,,,,,3,,,69,100
99584,note_off,,,,,128,0,12,,,,,4,,,70,100
99616,note_off,,,,,64,0,11,,,,,3,,,69,100
99648,note_on,,,,,32,0,11,,,,,3,,,67,100
99648,note_on,,,,,64,0,12,,,,,4,,,70,100
99712,note_off,,,,,256,0,10,,,,,2,,,79,100
99712,note_off,,,,,64,0,11,,,,,3,,,67,100
99744,note_on,,,,,32,0,11,,,,,3,,,65,100
99776,note_off,,,,,128,0,12,,,,,4,,,70,100
99808,note_off,,,,,64,0,11,,,,,3,,,65,100
99840,note_on,,,,,128,0,10,,,,,2,,,72,100
99840,note_on,,,,,64,0,12,,,,,4,,,70,100
99840,note_on,,,,,32,0,11,,,,,3,,,64,100
99968,note_off,,,,,128,0,12,,,,,4,,,70,100
99968,note_off,,,,,128,0,11,,,,,3,,,64,100
100032,note_on,,,,,64,0,12,,,,,4,,,64,100
100032,note_on,,,,,64,0,11,,,,,3,,,72,100
100096,note_off,,,,,256,0,10,,,,,2,,,72,100
100096,note_off,,,,,64,0,11,,,,,3,,,72,100
100128,note_on,,,,,32,0,11,,,,,3,,,70,100
100160,note_off,,,,,128,0,12,,,,,4,,,64,100
100192,note_off,,,,,64,0,11,,,,,3,,,70,100
100224,note_on,,,,,32,0,11,,,,,3,,,69,100
100224,note_on,,,,,128,0,10,,,,,2,,,77,100
100224,note_on,,,,,64,0,12,,,,,4,,,69,100
100288,note_off,,,,,64,0,11,,,,,3,,,69,100
100320,note_on,,,,,32,0,11,,,,,3,,,67,100
100352,note_off,,,,,128,0,12,,,,,4,,,69,100
100384,note_off,,,,,64,0,11,,,,,3,,,67,100
100416,note_on,,,,,64,0,12,,,,,4,,,69,100
100416,note_on,,,,,32,0,11,,,,,3,,,65,100
100480,note_off,,,,,64,0,11,,,,,3,,,65,100
100480,note_off,,,,,256,0,10,,,,,2,,,77,100
100512,note_on,,,,,32,0,11,,,,,3,,,64,100
100544,note_off,,,,,128,0,12,,,,,4,,,69,100
100576,note_off,,,,,64,0,11,,,,,3,,,64,100
100608,note_on,,,,,32,0,11,,,,,3,,,62,100
100608,note_on,,,,,128,0,10,,,,,2,,,70,100
100608,note_on,,,,,64,0,12,,,,,4,,,69,100
100736,note_off,,,,,128,0,12,,,,,4,,,69,100
100736,note_off,,,,,128,0,11,,,,,3,,,62,100
100800,note_on,,,,,64,0,12,,,,,4,,,67,100
100800,note_on,,,,,64,0,11,,,,,3,,,70,100
100864,note_off,,,,,64,0,11,,,,,3,,,70,100
100864,note_off,,,,,256,0,10,,,,,2,,,70,100
100864,note_off,,,,,64,0,12,,,,,4,,,67,100
100896,note_on,,,,,32,0,11,,,,,3,,,69,100
100896,note_on,,,,,32,0,12,,,,,4,,,65,100
100960,note_off,,,,,64,0,11,,,,,3,,,69,100
100960,note_off,,,,,64,0,12,,,,,4,,,65,100
100992,note_on,,,,,32,0,11,,,,,3,,,67,100
100992,note_on,,,,,128,0,10,,,,,2,,,76,100
100992,note_on,,,,,32,0,12,,,,,4,,,67,100
101056,note_off,,,,,64,0,11,,,,,3,,,67,100
101088,note_on,,,,,32,0,11,,,,,3,,,65,100
101152,note_off,,,,,64,0,11,,,,,3,,,65,100
101184,note_on,,,,,32,0,11,,,,,3,,,64,100
101184,note_off,,,,,192,0,12,,,,,4,,,67,100
101248,note_off,,,,,256,0,10,,,,,2,,,76,100
101248,note_off,,,,,64,0,11,,,,,3,,,64,100
101280,note_on,,,,,96,0,12,,,,,4,,,65,100
101280,note_on,,,,,32,0,11,,,,,3,,,62,100
101344,note_off,,,,,64,0,12,,,,,4,,,65,100
101344,note_off,,,,,64,0,11,,,,,3,,,62,100
101376,note_on,,,,,32,0,12,,,,,4,,,64,100
101376,note_on,,,,,32,0,11,,,,,3,,,61,100
101376,note_on,,,,,128,0,10,,,,,2,,,69,100
101504,note_off,,,,,128,0,12,,,,,4,,,64,100
101568,note_on,,,,,64,0,12,,,,,4,,,57,100
101632,note_off,,,,,64,0,12,,,,,4,,,57,100
101632,note_off,,,,,256,0,11,,,,,3,,,61,100
101632,note_off,,,,,256,0,10,,,,,2,,,69,100
101664,note_on,,,,,32,0,12,,,,,4,,,59,100
101728,note_off,,,,,64,0,12,,,,,4,,,59,100
101760,note_on,,,,,128,0,10,,,,,2,,,81,100
101760,note_on,,,,,32,0,12,,,,,4,,,61,100
101824,note_off,,,,,64,0,12,,,,,4,,,61,100
101856,note_on,,,,,32,0,12,,,,,4,,,62,100
101888,note_off,,,,,128,0,10,,,,,2,,,81,100
101920,note_off,,,,,64,0,12,,,,,4,,,62,100
101952,note_on,,,,,32,0,12,,,,,4,,,64,100
101952,note_on,,,,,64,0,10,,,,,2,,,81,100
102016,note_off,,,,,64,0,12,,,,,4,,,64,100
102048,note_on,,,,,32,0,12,,,,,4,,,65,100
102080,note_off,,,,,128,0,10,,,,,2,,,81,100
102112,note_off,,,,,64,0,12,,,,,4,,,65,100
102144,note_on,,,,,512,0,11,,,,,3,,,82,100
102144,note_on,,,,,64,0,10,,,,,2,,,81,100
102144,note_on,,,,,32,0,12,,,,,4,,,67,100
102272,note_off,,,,,128,0,12,,,,,4,,,67,100
102272,note_off,,,,,128,0,10,,,,,2,,,81,100
102336,note_on,,,,,64,0,10,,,,,2,,,79,100
102336,note_on,,,,,64,0,12,,,,,4,,,55,100
102400,note_off,,,,,64,0,10,,,,,2,,,79,100
102400,note_off,,,,,64,0,12,,,,,4,,,55,100
102432,note_on,,,,,32,0,10,,,,,2,,,77,100
102432,note_on,,,,,32,0,12,,,,,4,,,57,100
102496,note_off,,,,,64,0,12,,,,,4,,,57,100
102496,note_off,,,,,64,0,10,,,,,2,,,77,100
102528,note_on,,,,,32,0,12,,,,,4,,,58,100
102528,note_on,,,,,32,0,10,,,,,2,,,79,100
102592,note_off,,,,,64,0,12,,,,,4,,,58,100
102624,note_on,,,,,32,0,12,,,,,4,,,60,100
102656,note_off,,,,,128,0,10,,,,,2,,,79,100
102688,note_off,,,,,64,0,12,,,,,4,,,60,100
102720,note_on,,,,,32,0,12,,,,,4,,,62,100
102720,note_on,,,,,64,0,10,,,,,2,,,79,100
102784,note_off,,,,,64,0,12,,,,,4,,,62,100
102784,note_off,,,,,640,0,11,,,,,3,,,82,100
102816,note_on,,,,,32,0,12,,,,,4,,,64,100
102848,note_off,,,,,128,0,10,,,,,2,,,79,100
102880,note_off,,,,,64,0,12,,,,,4,,,64,100
102912,note_on,,,,,64,0,10,,,,,2,,,79,100
102912,note_on,,,,,32,0,12,,,,,4,,,65,100
102912,note_on,,,,,128,0,11,,,,,3,,,81,100
103040,note_off,,,,,128,0,10,,,,,2,,,79,100
103040,note_off,,,,,128,0,12,,,,,4,,,65,100
103104,note_on,,,,,64,0,10,,,,,2,,,72,100
103104,note_on,,,,,64,0,12,,,,,4,,,53,100
103168,note_off,,,,,64,0,12,,,,,4,,,53,100
103200,note_on,,,,,32,0,12,,,,,4,,,55,100
103232,note_off,,,,,128,0,10,,,,,2,,,72,100
103264,note_off,,,,,64,0,12,,,,,4,,,55,100
103296,note_on,,,,,32,0,12,,,,,4,,,57,100
103296,note_on,,,,,64,0,10,,,,,2,,,77,100
103360,note_off,,,,,64,0,12,,,,,4,,,57,100
103392,note_on,,,,,32,0,12,,,,,4,,,58,100
103424,note_off,,,,,128,0,10,,,,,2,,,77,100
103456,note_off,,,,,64,0,12,,,,,4,,,58,100
103488,note_on,,,,,64,0,10,,,,,2,,,77,100
103488,note_on,,,,,32,0,12,,,,,4,,,60,100
103552,note_off,,,,,64,0,12,,,,,4,,,60,100
103552,note_off,,,,,640,0,11,,,,,3,,,81,100
103584,note_on,,,,,32,0,12,,,,,4,,,62,100
103616,note_off,,,,,128,0,10,,,,,2,,,77,100
103648,note_off,,,,,64,0,12,,,,,4,,,62,100
103680,note_on,,,,,128,0,11,,,,,3,,,79,100
103680,note_on,,,,,64,0,10,,,,,2,,,77,100
103680,note_on,,,,,32,0,12,,,,,4,,,64,100
103808,note_off,,,,,128,0,10,,,,,2,,,77,100
103808,note_off,,,,,128,0,12,,,,,4,,,64,100
103872,note_on,,,,,64,0,12,,,,,4,,,52,100
103872,note_on,,,,,64,0,10,,,,,2,,,76,100
103936,note_off,,,,,64,0,12,,,,,4,,,52,100
103936,note_off,,,,,64,0,10,,,,,2,,,76,100
103968,note_on,,,,,32,0,10,,,,,2,,,74,100
103968,note_on,,,,,32,0,12,,,,,4,,,53,100
104032,note_off,,,,,64,0,12,,,,,4,,,53,100
104032,note_off,,,,,64,0,10,,,,,2,,,74,100
104064,note_on,,,,,32,0,12,,,,,4,,,55,100
104064,note_on,,,,,32,0,10,,,,,2,,,76,100
104128,note_off,,,,,64,0,12,,,,,4,,,55,100
104160,note_on,,,,,32,0,12,,,,,4,,,57,100
104192,note_off,,,,,128,0,10,,,,,2,,,76,100
104224,note_off,,,,,64,0,12,,,,,4,,,57,100
104256,note_on,,,,,64,0,10,,,,,2,,,76,100
104256,note_on,,,,,32,0,12,,,,,4,,,59,100
104320,note_off,,,,,640,0,11,,,,,3,,,79,100
104320,note_off,,,,,64,0,12,,,,,4,,,59,100
104352,note_on,,,,,32,0,12,,,,,4,,,61,100
104384,note_off,,,,,128,0,10,,,,,2,,,76,100
104416,note_off,,,,,64,0,12,,,,,4,,,61,100
104448,note_on,,,,,64,0,10,,,,,2,,,76,100
104448,note_on,,,,,128,0,11,,,,,3,,,77,100
104448,note_on,,,,,32,0,12,,,,,4,,,62,100
104576,note_off,,,,,128,0,12,,,,,4,,,62,100
104576,note_off,,,,,128,0,11,,,,,3,,,77,100
104576,note_off,,,,,128,0,10,,,,,2,,,76,100
104640,note_on,,,,,64,0,11,,,,,3,,,65,100
104640,note_on,,,,,64,0,10,,,,,2,,,69,100
104640,note_on,,,,,64,0,12,,,,,4,,,62,100
104704,note_off,,,,,64,0,12,,,,,4,,,62,100
104704,note_off,,,,,64,0,11,,,,,3,,,65,100
104736,note_on,,,,,32,0,12,,,,,4,,,64,100
104736,note_on,,,,,32,0,11,,,,,3,,,67,100
104768,note_off,,,,,128,0,10,,,,,2,,,69,100
104800,note_off,,,,,64,0,12,,,,,4,,,64,100
104800,note_off,,,,,64,0,11,,,,,3,,,67,100
104832,note_on,,,,,32,0,11,,,,,3,,,69,100
104832,note_on,,,,,64,0,10,,,,,2,,,74,100
104832,note_on,,,,,32,0,12,,,,,4,,,65,100
104960,note_off,,,,,128,0,11,,,,,3,,,69,100
104960,note_off,,,,,128,0,12,,,,,4,,,65,100
105024,note_on,,,,,64,0,12,,,,,4,,,65,100
105024,note_on,,,,,64,0,11,,,,,3,,,69,100
105152,note_off,,,,,128,0,11,,,,,3,,,69,100
105152,note_off,,,,,128,0,12,,,,,4,,,65,100
105216,note_on,,,,,64,0,11,,,,,3,,,69,100
105216,note_on,,,,,64,0,12,,,,,4,,,64,100
105344,note_off,,,,,128,0,12,,,,,4,,,64,100
105344,note_off,,,,,128,0,11,,,,,3,,,69,100
105408,note_on,,,,,64,0,11,,,,,3,,,67,100
105408,note_on,,,,,64,0,12,,,,,4,,,64,100
105472,note_off,,,,,64,0,12,,,,,4,,,64,100
105472,note_off,,,,,64,0,11,,,,,3,,,67,100
105472,note_off,,,,,640,0,10,,,,,2,,,74,100
105504,note_on,,,,,32,0,12,,,,,4,,,65,100
105504,note_on,,,,,32,0,11,,,,,3,,,65,100
105568,note_off,,,,,64,0,11,,,,,3,,,65,100
105568,note_off,,,,,64,0,12,,,,,4,,,65,100
105600,note_on,,,,,32,0,12,,,,,4,,,67,100
105600,note_on,,,,,128,0,10,,,,,2,,,73,100
105600,note_on,,,,,32,0,11,,,,,3,,,64,100
105728,note_off,,,,,128,0,12,,,,,4,,,67,100
105792,note_on,,,,,64,0,12,,,,,4,,,67,100
105856,note_off,,,,,256,0,10,,,,,2,,,73,100
105856,note_off,,,,,256,0,11,,,,,3,,,64,100
105860,note_off,,,,,18308,0,14,,,,,6,,,33,64
105860,note_off,,,,,18308,0,13,,,,,5,,,45,64
105920,note_off,,,,,128,0,12,,,,,4,,,67,100
105984,note_on,,,,,64,0,12,,,,,4,,,66,100
105984,note_on,,,,,124,0,13,,,,,5,,,50,100
105984,note_on,,,,,128,0,10,,,,,2,,,74,100
105984,set_tempo,,,,,101376,1,0,,500000,,,,,,,
105984,note_on,,,,,124,0,14,,,,,6,,,38,100
105984,note_on,,,,,128,0,11,,,,,3,,,62,100
105984,note_on,,,,,18176,0,15,,,,,7,,,66,100
105984,note_on,,,,,0,0,15,,,,,7,,,69,100
105984,note_on,,,,,18176,0,16,,,,,7,,,50,100
106060,set_tempo,,,,,76,1,0,,504201,,,,,,,
106112,note_off,,,,,128,0,11,,,,,3,,,62,100
106112,note_off,,,,,128,0,12,,,,,4,,,66,100
106136,set_tempo,,,,,76,1,0,,508474,,,,,,,
106176,note_on,,,,,64,0,11,,,,,3,,,69,100
106176,note_on,,,,,64,0,12,,,,,4,,,66,100
106212,set_tempo,,,,,76,1,0,,512820,,,,,,,
106240,note_off,,,,,64,0,11,,,,,3,,,69,100
106240,note_off,,,,,0,0,15,,,,,7,,,69,100
106240,note_off,,,,,256,0,16,,,,,7,,,50,100
106240,note_off,,,,,256,0,15,,,,,7,,,66,100
106240,note_off,,,,,64,0,12,,,,,4,,,66,100
106272,note_on,,,,,32,0,11,,,,,3,,,70,100
106272,note_on,,,,,32,0,12,,,,,4,,,67,100
106288,set_tempo,,,,,76,1,0,,517241,,,,,,,
106336,note_off,,,,,64,0,12,,,,,4,,,67,100
106336,note_off,,,,,64,0,11,,,,,3,,,70,100
106368,note_on,,,,,32,0,11,,,,,3,,,72,100
106368,note_on,,,,,128,0,16,,,,,7,,,50,100
106368,set_tempo,,,,,80,1,0,,521739,,,,,,,
106368,note_on,,,,,128,0,15,,,,,7,,,69,100
106368,note_on,,,,,0,0,15,,,,,7,,,72,100
106368,note_on,,,,,32,0,12,,,,,4,,,69,100
106444,set_tempo,,,,,76,1,0,,526315,,,,,,,
106496,note_off,,,,,128,0,11,,,,,3,,,72,100
106520,set_tempo,,,,,76,1,0,,530973,,,,,,,
106560,note_on,,,,,64,0,11,,,,,3,,,72,100
106596,set_tempo,,,,,76,1,0,,535714,,,,,,,
106624,note_off,,,,,256,0,15,,,,,7,,,69,100
106624,note_off,,,,,256,0,16,,,,,7,,,50,100
106624,note_off,,,,,0,0,15,,,,,7,,,72,100
106672,set_tempo,,,,,76,1,0,,540540,,,,,,,
106688,note_off,,,,,128,0,11,,,,,3,,,72,100
106752,note_on,,,,,0,0,15,,,,,7,,,69,100
106752,note_off,,,,,384,0,12,,,,,4,,,69,100
106752,set_tempo,,,,,80,1,0,,545454,,,,,,,
106752,note_on,,,,,128,0,15,,,,,7,,,70,100
106752,note_on,,,,,128,0,16,,,,,7,,,50,100
106752,note_on,,,,,64,0,11,,,,,3,,,70,100
106828,set_tempo,,,,,76,1,0,,550458,,,,,,,
106904,set_tempo,,,,,76,1,0,,555555,,,,,,,
106944,note_on,,,,,192,0,12,,,,,4,,,67,100
106980,set_tempo,,,,,76,1,0,,560747,,,,,,,
107008,note_off,,,,,64,0,12,,,,,4,,,67,100
107008,note_off,,,,,0,0,15,,,,,7,,,69,100
107008,note_off,,,,,256,0,16,,,,,7,,,50,100
107008,note_off,,,,,256,0,15,,,,,7,,,70,100
107040,note_on,,,,,32,0,12,,,,,4,,,66,100
107056,set_tempo,,,,,76,1,0,,566037,,,,,,,
107104,note_off,,,,,64,0,12,,,,,4,,,66,100
107136,note_on,,,,,32,0,12,,,,,4,,,67,100
107136,note_on,,,,,0,0,15,,,,,7,,,70,100
107136,note_on,,,,,128,0,15,,,,,7,,,67,100
107136,note_on,,,,,128,0,16,,,,,7,,,50,100
107136,set_tempo,,,,,80,1,0,,571428,,,,,,,
107212,set_tempo,,,,,76,1,0,,576923,,,,,,,
107264,note_off,,,,,512,0,11,,,,,3,,,70,100
107288,set_tempo,,,,,76,1,0,,582524,,,,,,,
107364,set_tempo,,,,,76,1,0,,588235,,,,,,,
107392,note_off,,,,,0,0,15,,,,,7,,,70,100
107392,note_off,,,,,256,0,16,,,,,7,,,50,100
107392,note_off,,,,,256,0,15,,,,,7,,,67,100
107440,set_tempo,,,,,76,1,0,,594059,,,,,,,
107520,note_on,,,,,128,0,16,,,,,7,,,50,100
107520,set_tempo,,,,,80,1,0,,600000,,,,,,,
107520,note_on,,,,,0,0,15,,,,,7,,,67,100
107520,note_on,,,,,256,0,11,,,,,3,,,69,100
107520,note_on,,,,,128,0,15,,,,,7,,,69,100
107568,set_tempo,,,,,48,1,0,,606060,,,,,,,
107620,set_tempo,,,,,52,1,0,,612244,,,,,,,
107648,note_off,,,,,512,0,12,,,,,4,,,67,100
107672,set_tempo,,,,,52,1,0,,618556,,,,,,,
107724,set_tempo,,,,,52,1,0,,625000,,,,,,,
107776,set_tempo,,,,,52,1,0,,631578,,,,,,,
107776,note_off,,,,,256,0,15,,,,,7,,,67,100
107776,note_off,,,,,256,0,16,,,,,7,,,50,100
107824,set_tempo,,,,,48,1,0,,638297,,,,,,,
107876,set_tempo,,,,,52,1,0,,645161,,,,,,,
107904,note_on,,,,,128,0,16,,,,,7,,,50,100
107904,note_on,,,,,256,0,12,,,,,4,,,66,100
107904,note_on,,,,,128,0,15,,,,,7,,,66,100
107928,set_tempo,,,,,52,1,0,,652173,,,,,,,
107980,set_tempo,,,,,52,1,0,,659340,,,,,,,
108032,note_off,,,,,128,0,12,,,,,4,,,66,100
108032,set_tempo,,,,,52,1,0,,666666,,,,,,,
108032,note_off,,,,,128,0,15,,,,,7,,,69,100
108080,set_tempo,,,,,48,1,0,,674157,,,,,,,
108096,note_on,,,,,64,0,12,,,,,4,,,64,100
108132,set_tempo,,,,,52,1,0,,681818,,,,,,,
108160,note_off,,,,,128,0,15,,,,,7,,,66,100
108160,note_off,,,,,256,0,16,,,,,7,,,50,100
108184,set_tempo,,,,,52,1,0,,689655,,,,,,,
108224,note_off,,,,,128,0,12,,,,,4,,,64,100
108236,set_tempo,,,,,52,1,0,,697674,,,,,,,
108288,note_on,,,,,128,0,15,,,,,7,,,69,100
108288,note_on,,,,,0,0,15,,,,,7,,,66,100
108288,note_on,,,,,128,0,16,,,,,7,,,50,100
108288,note_on,,,,,64,0,12,,,,,4,,,66,100
108288,set_tempo,,,,,52,1,0,,705882,,,,,,,
108336,set_tempo,,,,,48,1,0,,714285,,,,,,,
108388,set_tempo,,,,,52,1,0,,722891,,,,,,,
108440,set_tempo,,,,,52,1,0,,731707,,,,,,,
108492,set_tempo,,,,,52,1,0,,740740,,,,,,,
108544,set_tempo,,,,,52,1,0,,750000,,,,,,,
108544,note_off,,,,,256,0,15,,,,,7,,,66,100
108544,note_off,,,,,256,0,12,,,,,4,,,66,100
108544,note_off,,,,,256,0,16,,,,,7,,,50,100
108592,set_tempo,,,,,48,1,0,,759493,,,,,,,
108644,set_tempo,,,,,52,1,0,,769230,,,,,,,
108672,note_on,,,,,128,0,12,,,,,4,,,65,100
108672,note_on,,,,,128,0,16,,,,,7,,,50,100
108672,note_on,,,,,128,0,15,,,,,7,,,65,100
108696,set_tempo,,,,,52,1,0,,779220,,,,,,,
108748,set_tempo,,,,,52,1,0,,789473,,,,,,,
108800,note_off,,,,,128,0,15,,,,,7,,,69,100
108800,set_tempo,,,,,52,1,0,,800000,,,,,,,
108848,set_tempo,,,,,48,1,0,,810810,,,,,,,
108900,set_tempo,,,,,52,1,0,,821917,,,,,,,
108928,note_off,,,,,256,0,12,,,,,4,,,65,100
108928,note_off,,,,,128,0,15,,,,,7,,,65,100
108928,note_off,,,,,256,0,16,,,,,7,,,50,100
108932,note_off,,,,,2948,0,13,,,,,5,,,50,64
108932,note_off,,,,,2948,0,14,,,,,6,,,38,64
108932,note_off,,,,,1412,0,11,,,,,3,,,69,100
108952,set_tempo,,,,,52,1,0,,833333,,,,,,,
109004,set_tempo,,,,,52,1,0,,845070,,,,,,,
109056,note_on,,,,,124,0,14,,,,,6,,,32,100
109056,note_on,,,,,124,0,13,,,,,5,,,44,100
109056,set_tempo,,,,,52,1,0,,857142,,,,,,,
109056,note_on,,,,,128,0,12,,,,,4,,,64,100
109056,note_on,,,,,124,0,11,,,,,3,,,71,100
109056,note_on,,,,,128,0,16,,,,,7,,,44,100
109076,note_on,,,,,148,0,15,,,,,7,,,59,100
109100,note_on,,,,,24,0,15,,,,,7,,,62,100
109124,note_on,,,,,24,0,15,,,,,7,,,64,100
109132,set_tempo,,,,,76,1,0,,869565,,,,,,,
109148,note_on,,,,,24,0,15,,,,,7,,,68,100
109208,set_tempo,,,,,76,1,0,,882352,,,,,,,
109284,set_tempo,,,,,76,1,0,,895522,,,,,,,
109360,set_tempo,,,,,76,1,0,,909090,,,,,,,
109440,set_tempo,,,,,80,1,0,,923076,,,,,,,
109516,set_tempo,,,,,76,1,0,,937500,,,,,,,
109568,note_off,,,,,512,0,16,,,,,7,,,44,100
109588,note_off,,,,,440,0,15,,,,,7,,,59,100
109592,set_tempo,,,,,76,1,0,,952380,,,,,,,
109612,note_off,,,,,24,0,15,,,,,7,,,62,100
109636,note_off,,,,,24,0,15,,,,,7,,,64,100
109660,note_off,,,,,24,0,15,,,,,7,,,68,100
109668,set_tempo,,,,,76,1,0,,967741,,,,,,,
109696,note_off,,,,,640,0,13,,,,,5,,,44,100
109696,note_off,,,,,640,0,11,,,,,3,,,71,100
109696,note_off,,,,,640,0,14,,,,,6,,,32,100
109696,note_off,,,,,3712,0,10,,,,,2,,,74,64
109744,set_tempo,,,,,76,1,0,,983606,,,,,,,
109824,set_tempo,,,,,80,1,0,,1000000,,,,,,,
109824,note_on,,,,,128,0,14,,,,,6,,,33,100
109824,note_on,,,,,128,0,13,,,,,5,,,45,100
109824,note_on,,,,,128,0,11,,,,,3,,,69,100
109824,note_on,,,,,256,0,16,,,,,7,,,45,100
109824,note_on,,,,,128,0,10,,,,,2,,,73,100
109852,note_on,,,,,192,0,15,,,,,7,,,57,100
109860,set_tempo,,,,,36,1,0,,1016949,,,,,,,
109884,note_on,,,,,32,0,15,,,,,7,,,61,100
109900,set_tempo,,,,,40,1,0,,1034482,,,,,,,
109916,note_on,,,,,32,0,15,,,,,7,,,64,100
109936,set_tempo,,,,,36,1,0,,1052631,,,,,,,
109948,note_on,,,,,32,0,15,,,,,7,,,69,100
109976,set_tempo,,,,,40,1,0,,1071428,,,,,,,
110016,set_tempo,,,,,40,1,0,,1090909,,,,,,,
110052,set_tempo,,,,,36,1,0,,1111111,,,,,,,
110084,note_off,,,,,1028,0,12,,,,,4,,,64,100
110092,set_tempo,,,,,40,1,0,,1132075,,,,,,,
110128,set_tempo,,,,,36,1,0,,1153846,,,,,,,
110168,set_tempo,,,,,40,1,0,,1176470,,,,,,,
110208,set_tempo,,,,,40,1,0,,1200000,,,,,,,
110244,set_tempo,,,,,36,1,0,,1224489,,,,,,,
110284,set_tempo,,,,,40,1,0,,1250000,,,,,,,
110320,set_tempo,,,,,36,1,0,,1276595,,,,,,,
110336,note_off,,,,,512,0,16,,,,,7,,,45,100
110360,set_tempo,,,,,40,1,0,,1304347,,,,,,,
110364,note_off,,,,,416,0,15,,,,,7,,,57,100
110396,note_off,,,,,32,0,15,,,,,7,,,61,100
110400,set_tempo,,,,,40,1,0,,1333333,,,,,,,
110428,note_off,,,,,32,0,15,,,,,7,,,64,100
110436,set_tempo,,,,,36,1,0,,1363636,,,,,,,
110460,note_off,,,,,32,0,15,,,,,7,,,69,100
110464,note_off,,,,,640,0,14,,,,,6,,,33,100
110464,note_off,,,,,640,0,11,,,,,3,,,69,100
110464,note_off,,,,,640,0,10,,,,,2,,,73,100
110464,note_off,,,,,640,0,13,,,,,5,,,45,100
110476,set_tempo,,,,,40,1,0,,1395348,,,,,,,
110512,set_tempo,,,,,36,1,0,,1428571,,,,,,,
110552,end_of_track,,,,,0,1,0,,,,,,,,,
110552,set_tempo,,,,,40,1,0,,1463414,,,,,,,
110592,note_on,,,,,128,0,14,,,,,6,,,38,100
110592,note_on,,,,,128,0,11,,,,,3,,,69,100
110592,note_on,,,,,128,0,10,,,,,2,,,74,100
110592,note_on,,,,,128,0,13,,,,,5,,,38,100
110592,note_on,,,,,508,0,12,,,,,4,,,65,100
110592,note_on,,,,,256,0,16,,,,,7,,,38,100
110620,note_on,,,,,160,0,15,,,,,7,,,53,100
110652,note_on,,,,,32,0,15,,,,,7,,,57,100
110684,note_on,,,,,32,0,15,,,,,7,,,62,100
111620,note_off,,,,,1028,0,11,,,,,3,,,69,100
111620,end_of_track,,,,,0,1,11,,,,,,,,,
111620,end_of_track,,,,,0,1,12,,,,,,,,,
111620,note_off,,,,,1028,0,12,,,,,4,,,65,100
111620,note_off,,,,,1028,0,16,,,,,7,,,38,100
111620,end_of_track,,,,,0,1,10,,,,,,,,,
111620,end_of_track,,,,,0,1,13,,,,,,,,,
111620,note_off,,,,,1028,0,14,,,,,6,,,38,100
111620,end_of_track,,,,,0,1,14,,,,,,,,,
111620,note_off,,,,,1028,0,10,,,,,2,,,74,100
111620,note_off,,,,,1028,0,13,,,,,5,,,38,100
111620,end_of_track,,,,,0,1,16,,,,,,,,,
111648,note_off,,,,,964,0,15,,,,,7,,,53,100
111680,note_off,,,,,32,0,15,,,,,7,,,57,100
111712,note_off,,,,,32,0,15,,,,,7,,,62,100
111712,end_of_track,,,,,0,1,15,,,,,,,,,
113280,end_of_track,,,,,0,1,8,,,,,,,,,
113280,program_change,,,,,28544,0,8,,,,,0,40,,,
