tick,type,numerator,denominator,clocks_per_click,notated_32nd_notes_per_beat,time,meta,track,data,tempo,control,value,channel,program,key,note,velocity
0,time_signature,4,4,96,8,0,1,0,,,,,,,,,
0,control_change,,,,,0,0,15,,,7,55,7,,,,
0,program_change,,,,,0,0,15,,,,,7,6,,,
0,control_change,,,,,0,0,15,,,0,0,7,,,,
0,track_name,,,,,0,1,15,,,,,,,,,
0,track_name,,,,,0,1,8,,,,,,,,,
0,control_change,,,,,0,0,8,,,0,0,1,,,,
0,control_change,,,,,0,0,15,,,91,65,7,,,,
0,program_change,,,,,0,0,8,,,,,1,48,,,
0,control_change,,,,,0,0,8,,,10,54,1,,,,
0,control_change,,,,,0,0,8,,,91,65,1,,,,
0,key_signature,,,,,0,1,8,,,,,,,Bm,,
0,control_change,,,,,0,0,11,,,0,0,4,,,,
0,key_signature,,,,,0,1,14,,,,,,,Bm,,
0,control_change,,,,,0,0,14,,,91,65,7,,,,
0,control_change,,,,,0,0,8,,,7,100,1,,,,
0,control_change,,,,,0,0,14,,,7,55,7,,,,
0,key_signature,,,,,0,1,15,,,,,,,Bm,,
0,control_change,,,,,0,0,7,,,91,62,0,,,,
0,end_of_track,,,,,0,1,5,,,,,,,,,
0,track_name,,,,,0,1,6,,,,,,,,,
0,control_change,,,,,0,0,6,,,0,0,0,,,,
0,program_change,,,,,0,0,6,,,,,0,48,,,
0,control_change,,,,,0,0,6,,,7,100,0,,,,
0,control_change,,,,,0,0,6,,,10,67,0,,,,
0,key_signature,,,,,0,1,7,,,,,,,Bm,,
0,control_change,,,,,0,0,6,,,91,62,0,,,,
0,end_of_track,,,,,0,1,6,,,,,,,,,
0,track_name,,,,,0,1,7,,,,,,,,,
0,control_change,,,,,0,0,7,,,0,0,0,,,,
0,program_change,,,,,0,0,7,,,,,0,48,,,
0,control_change,,,,,0,0,7,,,7,100,0,,,,
0,control_change,,,,,0,0,7,,,10,67,0,,,,
0,key_signature,,,,,0,1,6,,,,,,,Bm,,
0,program_change,,,,,0,0,14,,,,,7,6,,,
0,control_change,,,,,0,0,14,,,0,0,7,,,,
0,track_name,,,,,0,1,14,,,,,,,,,
0,control_change,,,,,0,0,10,,,91,63,3,,,,
0,key_signature,,,,,0,1,10,,,,,,,Bm,,
0,key_signature,,,,,0,1,12,,,,,,,Bm,,
0,control_change,,,,,0,0,12,,,91,62,5,,,,
0,control_change,,,,,0,0,12,,,10,77,5,,,,
0,control_change,,,,,0,0,12,,,7,90,5,,,,
0,control_change,,,,,0,0,10,,,10,51,3,,,,
0,program_change,,,,,0,0,12,,,,,5,48,,,
0,track_name,,,,,0,1,12,,,,,,,,,
0,program_change,,,,,0,0,11,,,,,4,41,,,
0,key_signature,,,,,0,1,11,,,,,,,Bm,,
0,control_change,,,,,0,0,11,,,91,65,4,,,,
0,control_change,,,,,0,0,11,,,7,95,4,,,,
0,program_change,,,,,0,0,11,,,,,4,48,,,
0,control_change,,,,,0,0,12,,,0,0,5,,,,
0,control_change,,,,,0,0,10,,,7,100,3,,,,
0,program_change,,,,,0,0,10,,,,,3,48,,,
0,control_change,,,,,0,0,10,,,0,0,3,,,,
0,track_name,,,,,0,1,9,,,,,,,,,
0,control_change,,,,,0,0,9,,,0,0,2,,,,
0,program_change,,,,,0,0,9,,,,,2,48,,,
0,control_change,,,,,0,0,9,,,7,100,2,,,,
0,control_change,,,,,0,0,9,,,10,41,2,,,,
0,control_change,,,,,0,0,9,,,91,66,2,,,,
0,key_signature,,,,,0,1,9,,,,,,,Bm,,
0,key_signature,,,,,0,1,13,,,,,,,Bm,,
0,control_change,,,,,0,0,13,,,91,63,6,,,,
0,control_change,,,,,0,0,13,,,10,91,6,,,,
0,control_change,,,,,0,0,13,,,7,85,6,,,,
0,program_change,,,,,0,0,13,,,,,6,48,,,
0,control_change,,,,,0,0,13,,,0,0,6,,,,
0,track_name,,,,,0,1,13,,,,,,,,,
0,track_name,,,,,0,1,10,,,,,,,,,
0,key_signature,,,,,0,1,5,,,,,,,Bm,,
0,control_change,,,,,0,0,5,,,91,62,0,,,,
0,track_name,,,,,0,1,11,,,,,,,,,
0,control_change,,,,,0,0,5,,,7,100,0,,,,
0,track_name,,,,,0,1,3,,,,,,,,,
0,end_of_track,,,,,0,1,2,,,,,,,,,
0,track_name,,,,,0,1,2,,,,,,,,,
0,end_of_track,,,,,0,1,1,,,,,,,,,
0,track_name,,,,,0,1,1,,,,,,,,,
0,sequencer_specific,,,,,0,1,0,"(0, 0, 65)",,,,,,,,
0,sequencer_specific,,,,,0,1,0,"(0, 0, 119, 14, 1)",,,,,,,,
0,set_tempo,,,,,0,1,0,,500000,,,,,,,
0,control_change,,,,,0,0,5,,,10,67,0,,,,
0,control_change,,,,,0,0,3,,,0,0,0,,,,
0,control_change,,,,,0,0,3,,,10,67,0,,,,
0,control_change,,,,,0,0,3,,,91,62,0,,,,
0,program_change,,,,,0,0,3,,,,,0,48,,,
0,control_change,,,,,0,0,3,,,7,100,0,,,,
0,end_of_track,,,,,0,1,3,,,,,,,,,
0,control_change,,,,,0,0,4,,,91,62,0,,,,
0,control_change,,,,,0,0,4,,,10,67,0,,,,
0,control_change,,,,,0,0,4,,,7,100,0,,,,
0,key_signature,,,,,0,1,3,,,,,,,Bm,,
0,program_change,,,,,0,0,4,,,,,0,48,,,
0,control_change,,,,,0,0,4,,,0,0,0,,,,
0,key_signature,,,,,0,1,4,,,,,,,Bm,,
0,end_of_track,,,,,0,1,4,,,,,,,,,
0,control_change,,,,,0,0,5,,,0,0,0,,,,
0,program_change,,,,,0,0,5,,,,,0,48,,,
0,track_name,,,,,0,1,5,,,,,,,,,
0,track_name,,,,,0,1,4,,,,,,,,,
4,program_change,,,,,4,0,7,,,,,0,40,,,
4,note_on,,,,,4,0,11,,,,,4,,,59,100
8,note_on,,,,,4,0,7,,,,,0,,,78,100
260,note_off,,,,,256,0,11,,,,,4,,,59,100
264,note_off,,,,,256,0,7,,,,,0,,,78,100
384,program_change,,,,,384,0,8,,,,,1,40,,,
576,note_on,,,,,312,0,7,,,,,0,,,78,100
704,note_off,,,,,128,0,7,,,,,0,,,78,100
768,note_on,,,,,384,0,8,,,,,1,,,78,100
768,note_on,,,,,508,0,11,,,,,4,,,59,100
768,note_on,,,,,64,0,7,,,,,0,,,78,100
896,note_off,,,,,128,0,7,,,,,0,,,78,100
960,note_on,,,,,64,0,7,,,,,0,,,78,100
1024,note_off,,,,,256,0,11,,,,,4,,,59,100
1024,note_off,,,,,256,0,8,,,,,1,,,78,100
1088,note_off,,,,,128,0,7,,,,,0,,,78,100
1152,note_on,,,,,64,0,7,,,,,0,,,78,100
1280,note_off,,,,,128,0,7,,,,,0,,,78,100
1344,note_on,,,,,64,0,7,,,,,0,,,78,100
1344,note_on,,,,,320,0,8,,,,,1,,,78,100
1472,note_off,,,,,128,0,8,,,,,1,,,78,100
1472,note_off,,,,,128,0,7,,,,,0,,,78,100
1536,note_on,,,,,64,0,7,,,,,0,,,83,100
1536,note_on,,,,,512,0,11,,,,,4,,,59,100
1536,note_on,,,,,64,0,8,,,,,1,,,74,100
1664,note_off,,,,,128,0,8,,,,,1,,,74,100
1664,note_off,,,,,128,0,7,,,,,0,,,83,100
1728,note_on,,,,,64,0,7,,,,,0,,,78,100
1728,note_on,,,,,64,0,8,,,,,1,,,71,100
1792,note_off,,,,,256,0,11,,,,,4,,,59,100
1856,note_off,,,,,128,0,7,,,,,0,,,78,100
1856,note_off,,,,,128,0,8,,,,,1,,,71,100
1920,note_on,,,,,64,0,7,,,,,0,,,78,100
2048,note_off,,,,,128,0,7,,,,,0,,,78,100
2112,note_on,,,,,64,0,7,,,,,0,,,78,100
2112,note_on,,,,,256,0,8,,,,,1,,,78,100
2240,note_off,,,,,128,0,8,,,,,1,,,78,100
2240,note_off,,,,,128,0,7,,,,,0,,,78,100
2304,note_on,,,,,512,0,11,,,,,4,,,59,100
2304,note_on,,,,,64,0,7,,,,,0,,,83,100
2304,note_on,,,,,64,0,8,,,,,1,,,74,100
2432,note_off,,,,,128,0,7,,,,,0,,,83,100
2432,note_off,,,,,128,0,8,,,,,1,,,74,100
2496,note_on,,,,,64,0,7,,,,,0,,,78,100
2496,note_on,,,,,64,0,8,,,,,1,,,71,100
2560,note_off,,,,,256,0,11,,,,,4,,,59,100
2624,note_off,,,,,128,0,8,,,,,1,,,71,100
2624,note_off,,,,,128,0,7,,,,,0,,,78,100
2688,note_on,,,,,64,0,7,,,,,0,,,78,100
2816,note_off,,,,,128,0,7,,,,,0,,,78,100
2880,note_on,,,,,256,0,8,,,,,1,,,78,100
2880,note_on,,,,,64,0,7,,,,,0,,,78,100
3008,note_off,,,,,128,0,8,,,,,1,,,78,100
3008,note_off,,,,,128,0,7,,,,,0,,,78,100
3072,note_on,,,,,64,0,8,,,,,1,,,74,100
3072,note_on,,,,,512,0,11,,,,,4,,,59,100
3072,note_on,,,,,64,0,7,,,,,0,,,78,100
3116,note_off,,,,,44,0,8,,,,,1,,,74,100
3116,note_off,,,,,44,0,7,,,,,0,,,78,100
3120,note_on,,,,,4,0,8,,,,,1,,,76,100
3120,note_on,,,,,4,0,7,,,,,0,,,79,100
3164,note_off,,,,,44,0,7,,,,,0,,,79,100
3164,note_off,,,,,44,0,8,,,,,1,,,76,100
3168,note_on,,,,,4,0,8,,,,,1,,,74,100
3168,note_on,,,,,4,0,7,,,,,0,,,78,100
3232,note_off,,,,,64,0,7,,,,,0,,,78,100
3232,note_off,,,,,64,0,8,,,,,1,,,74,100
3264,note_on,,,,,32,0,7,,,,,0,,,74,100
3264,note_on,,,,,32,0,8,,,,,1,,,71,100
3328,note_off,,,,,256,0,11,,,,,4,,,59,100
3328,note_off,,,,,64,0,8,,,,,1,,,71,100
3328,note_off,,,,,64,0,7,,,,,0,,,74,100
3360,note_on,,,,,32,0,8,,,,,1,,,73,100
3360,note_on,,,,,32,0,7,,,,,0,,,76,100
3424,note_off,,,,,64,0,8,,,,,1,,,73,100
3424,note_off,,,,,64,0,7,,,,,0,,,76,100
3456,note_on,,,,,32,0,7,,,,,0,,,78,100
3456,note_on,,,,,32,0,8,,,,,1,,,74,100
3456,note_on,,,,,128,0,11,,,,,4,,,59,100
3584,note_off,,,,,128,0,8,,,,,1,,,74,100
3584,note_off,,,,,128,0,7,,,,,0,,,78,100
3648,note_on,,,,,64,0,7,,,,,0,,,78,100
3648,note_on,,,,,64,0,8,,,,,1,,,74,100
3712,note_off,,,,,256,0,11,,,,,4,,,59,100
3776,note_off,,,,,128,0,8,,,,,1,,,74,100
3776,note_off,,,,,128,0,7,,,,,0,,,78,100
3840,note_on,,,,,128,0,11,,,,,4,,,59,100
3840,note_on,,,,,64,0,8,,,,,1,,,74,100
3840,note_on,,,,,64,0,7,,,,,0,,,78,100
3884,note_off,,,,,44,0,8,,,,,1,,,74,100
3884,note_off,,,,,44,0,7,,,,,0,,,78,100
3888,note_on,,,,,4,0,8,,,,,1,,,76,100
3888,note_on,,,,,4,0,7,,,,,0,,,79,100
3932,note_off,,,,,44,0,8,,,,,1,,,76,100
3932,note_off,,,,,44,0,7,,,,,0,,,79,100
3936,note_on,,,,,4,0,7,,,,,0,,,78,100
3936,note_on,,,,,4,0,8,,,,,1,,,74,100
4000,note_off,,,,,64,0,8,,,,,1,,,74,100
4000,note_off,,,,,64,0,7,,,,,0,,,78,100
4032,note_on,,,,,32,0,7,,,,,0,,,74,100
4032,note_on,,,,,32,0,8,,,,,1,,,71,100
4096,note_off,,,,,64,0,7,,,,,0,,,74,100
4096,note_off,,,,,256,0,11,,,,,4,,,59,100
4096,note_off,,,,,64,0,8,,,,,1,,,71,100
4128,note_on,,,,,32,0,8,,,,,1,,,73,100
4128,note_on,,,,,32,0,7,,,,,0,,,76,100
4192,note_off,,,,,64,0,7,,,,,0,,,76,100
4192,note_off,,,,,64,0,8,,,,,1,,,73,100
4224,note_on,,,,,32,0,8,,,,,1,,,74,100
4224,note_on,,,,,32,0,7,,,,,0,,,78,100
4224,note_on,,,,,128,0,11,,,,,4,,,59,100
4352,note_off,,,,,128,0,7,,,,,0,,,78,100
4352,note_off,,,,,128,0,8,,,,,1,,,74,100
4416,note_on,,,,,64,0,7,,,,,0,,,78,100
4416,note_on,,,,,64,0,8,,,,,1,,,74,100
4480,note_off,,,,,256,0,11,,,,,4,,,59,100
4544,note_off,,,,,128,0,7,,,,,0,,,78,100
4544,note_off,,,,,128,0,8,,,,,1,,,74,100
4608,note_on,,,,,64,0,7,,,,,0,,,78,100
4608,note_on,,,,,128,0,11,,,,,4,,,59,100
4608,note_on,,,,,64,0,8,,,,,1,,,74,100
4652,note_off,,,,,44,0,8,,,,,1,,,74,100
4652,note_off,,,,,44,0,7,,,,,0,,,78,100
4656,note_on,,,,,4,0,8,,,,,1,,,76,100
4656,note_on,,,,,4,0,7,,,,,0,,,79,100
4700,note_off,,,,,44,0,8,,,,,1,,,76,100
4700,note_off,,,,,44,0,7,,,,,0,,,79,100
4704,note_on,,,,,4,0,8,,,,,1,,,74,100
4704,note_on,,,,,4,0,7,,,,,0,,,78,100
4768,note_off,,,,,64,0,8,,,,,1,,,74,100
4768,note_off,,,,,64,0,7,,,,,0,,,78,100
4800,note_on,,,,,32,0,7,,,,,0,,,78,100
4800,note_on,,,,,32,0,8,,,,,1,,,74,100
4864,note_off,,,,,256,0,11,,,,,4,,,59,100
4928,note_off,,,,,128,0,7,,,,,0,,,78,100
4928,note_off,,,,,128,0,8,,,,,1,,,74,100
4992,note_on,,,,,64,0,7,,,,,0,,,78,100
4992,note_on,,,,,64,0,8,,,,,1,,,74,100
5120,note_off,,,,,128,0,8,,,,,1,,,74,100
5120,note_off,,,,,128,0,7,,,,,0,,,78,100
5184,note_on,,,,,320,0,11,,,,,4,,,59,100
5184,note_on,,,,,64,0,8,,,,,1,,,73,100
5184,note_on,,,,,64,0,7,,,,,0,,,76,100
5248,note_off,,,,,64,0,7,,,,,0,,,76,100
5248,note_off,,,,,64,0,8,,,,,1,,,73,100
5280,note_on,,,,,32,0,7,,,,,0,,,74,100
5280,note_on,,,,,32,0,8,,,,,1,,,71,100
5312,note_off,,,,,128,0,11,,,,,4,,,59,100
5344,note_off,,,,,64,0,7,,,,,0,,,74,100
5344,note_off,,,,,64,0,8,,,,,1,,,71,100
5376,note_on,,,,,32,0,7,,,,,0,,,73,100
5376,note_on,,,,,32,0,8,,,,,1,,,70,100
5376,note_on,,,,,64,0,11,,,,,4,,,66,100
5504,note_off,,,,,128,0,8,,,,,1,,,70,100
5504,note_off,,,,,128,0,11,,,,,4,,,66,100
5504,note_off,,,,,128,0,7,,,,,0,,,73,100
5568,note_on,,,,,64,0,7,,,,,0,,,66,100
5568,note_on,,,,,64,0,8,,,,,1,,,71,100
5568,note_on,,,,,64,0,11,,,,,4,,,68,100
5696,note_off,,,,,128,0,7,,,,,0,,,66,100
5696,note_off,,,,,128,0,8,,,,,1,,,71,100
5696,note_off,,,,,128,0,11,,,,,4,,,68,100
5760,note_on,,,,,64,0,11,,,,,4,,,70,100
5760,note_on,,,,,64,0,8,,,,,1,,,73,100
5888,note_off,,,,,128,0,11,,,,,4,,,70,100
5888,note_off,,,,,128,0,8,,,,,1,,,73,100
5952,note_on,,,,,64,0,11,,,,,4,,,66,100
5952,note_on,,,,,64,0,8,,,,,1,,,70,100
6080,note_off,,,,,128,0,11,,,,,4,,,66,100
6080,note_off,,,,,128,0,8,,,,,1,,,70,100
6140,program_change,,,,,60,0,11,,,,,4,48,,,
6140,program_change,,,,,60,0,8,,,,,1,48,,,
6140,program_change,,,,,444,0,7,,,,,0,48,,,
6144,note_on,,,,,6144,0,9,,,,,2,,,78,100
6144,note_on,,,,,6144,0,14,,,,,7,,,66,100
6144,note_on,,,,,0,0,14,,,,,7,,,62,100
6144,note_on,,,,,4,0,8,,,,,1,,,74,100
6144,note_on,,,,,6144,0,10,,,,,3,,,74,100
6144,note_on,,,,,6144,0,13,,,,,6,,,35,100
6144,note_on,,,,,6144,0,12,,,,,5,,,47,100
6144,note_on,,,,,6144,0,15,,,,,7,,,47,100
6144,note_on,,,,,4,0,7,,,,,0,,,78,100
6144,note_on,,,,,4,0,11,,,,,4,,,66,100
6144,note_on,,,,,0,0,11,,,,,4,,,71,100
6400,note_off,,,,,256,0,13,,,,,6,,,35,100
6400,note_off,,,,,256,0,9,,,,,2,,,78,100
6400,note_off,,,,,256,0,10,,,,,3,,,74,100
6400,note_off,,,,,256,0,15,,,,,7,,,47,100
6400,note_off,,,,,256,0,8,,,,,1,,,74,100
6400,note_off,,,,,256,0,12,,,,,5,,,47,100
6400,note_off,,,,,256,0,7,,,,,0,,,78,100
6400,note_off,,,,,0,0,11,,,,,4,,,71,100
6400,note_off,,,,,256,0,14,,,,,7,,,66,100
6400,note_off,,,,,0,0,14,,,,,7,,,62,100
6400,note_off,,,,,256,0,11,,,,,4,,,66,100
6720,note_on,,,,,0,0,14,,,,,7,,,74,100
6720,note_on,,,,,320,0,13,,,,,6,,,47,100
6720,note_on,,,,,320,0,12,,,,,5,,,59,100
6720,note_on,,,,,320,0,15,,,,,7,,,59,100
6720,note_on,,,,,320,0,10,,,,,3,,,71,100
6720,note_on,,,,,320,0,8,,,,,1,,,74,100
6720,note_on,,,,,0,0,11,,,,,4,,,71,100
6720,note_on,,,,,320,0,7,,,,,0,,,78,100
6720,note_on,,,,,320,0,9,,,,,2,,,78,100
6720,note_on,,,,,320,0,11,,,,,4,,,62,100
6720,note_on,,,,,320,0,14,,,,,7,,,66,100
6848,note_off,,,,,0,0,14,,,,,7,,,74,100
6848,note_off,,,,,0,0,11,,,,,4,,,71,100
6848,note_off,,,,,128,0,9,,,,,2,,,78,100
6848,note_off,,,,,128,0,14,,,,,7,,,66,100
6848,note_off,,,,,128,0,13,,,,,6,,,47,100
6848,note_off,,,,,128,0,15,,,,,7,,,59,100
6848,note_off,,,,,128,0,10,,,,,3,,,71,100
6848,note_off,,,,,128,0,7,,,,,0,,,78,100
6848,note_off,,,,,128,0,11,,,,,4,,,62,100
6848,note_off,,,,,128,0,12,,,,,5,,,59,100
6848,note_off,,,,,128,0,8,,,,,1,,,74,100
6912,note_on,,,,,64,0,13,,,,,6,,,35,100
6912,note_on,,,,,64,0,10,,,,,3,,,78,100
6912,note_on,,,,,64,0,12,,,,,5,,,47,100
6912,note_on,,,,,64,0,9,,,,,2,,,74,100
6912,note_on,,,,,64,0,11,,,,,4,,,59,100
6912,note_on,,,,,64,0,14,,,,,7,,,62,100
6912,note_on,,,,,0,0,11,,,,,4,,,71,100
6912,note_on,,,,,64,0,7,,,,,0,,,78,100
6912,note_on,,,,,64,0,8,,,,,1,,,74,100
6912,note_on,,,,,64,0,15,,,,,7,,,47,100
6912,note_on,,,,,0,0,14,,,,,7,,,66,100
6976,note_off,,,,,64,0,8,,,,,1,,,74,100
7004,note_off,,,,,92,0,10,,,,,3,,,78,100
7008,note_on,,,,,32,0,8,,,,,1,,,71,100
7008,note_on,,,,,4,0,10,,,,,3,,,76,100
7040,note_off,,,,,128,0,11,,,,,4,,,59,100
7040,note_off,,,,,0,0,11,,,,,4,,,71,100
7040,note_off,,,,,128,0,12,,,,,5,,,47,100
7040,note_off,,,,,128,0,15,,,,,7,,,47,100
7040,note_off,,,,,128,0,9,,,,,2,,,74,100
7040,note_off,,,,,128,0,14,,,,,7,,,62,100
7040,note_off,,,,,128,0,7,,,,,0,,,78,100
7040,note_off,,,,,128,0,13,,,,,6,,,35,100
7040,note_off,,,,,0,0,14,,,,,7,,,66,100
7072,note_off,,,,,64,0,8,,,,,1,,,71,100
7072,note_off,,,,,64,0,10,,,,,3,,,76,100
7104,note_on,,,,,64,0,15,,,,,7,,,59,100
7104,note_on,,,,,32,0,8,,,,,1,,,74,100
7104,note_on,,,,,64,0,12,,,,,5,,,59,100
7104,note_on,,,,,0,0,14,,,,,7,,,66,100
7104,note_on,,,,,64,0,14,,,,,7,,,74,100
7104,note_on,,,,,64,0,13,,,,,6,,,47,100
7104,note_on,,,,,64,0,9,,,,,2,,,71,100
7104,note_on,,,,,32,0,10,,,,,3,,,78,100
7104,note_on,,,,,64,0,11,,,,,4,,,62,100
7104,note_on,,,,,0,0,11,,,,,4,,,66,100
7104,note_on,,,,,64,0,7,,,,,0,,,78,100
7168,note_off,,,,,64,0,8,,,,,1,,,74,100
7200,note_on,,,,,32,0,8,,,,,1,,,78,100
7232,note_off,,,,,128,0,9,,,,,2,,,71,100
7232,note_off,,,,,128,0,15,,,,,7,,,59,100
7232,note_off,,,,,128,0,12,,,,,5,,,59,100
7232,note_off,,,,,128,0,7,,,,,0,,,78,100
7232,note_off,,,,,128,0,10,,,,,3,,,78,100
7232,note_off,,,,,128,0,13,,,,,6,,,47,100
7232,note_off,,,,,128,0,14,,,,,7,,,74,100
7232,note_off,,,,,0,0,11,,,,,4,,,66,100
7232,note_off,,,,,128,0,11,,,,,4,,,62,100
7232,note_off,,,,,0,0,14,,,,,7,,,66,100
7264,note_off,,,,,64,0,8,,,,,1,,,78,100
7296,note_on,,,,,64,0,15,,,,,7,,,58,100
7296,note_on,,,,,32,0,8,,,,,1,,,78,100
7296,note_on,,,,,0,0,14,,,,,7,,,73,100
7296,note_on,,,,,64,0,12,,,,,5,,,58,100
7296,note_on,,,,,64,0,14,,,,,7,,,66,100
7296,note_on,,,,,64,0,7,,,,,0,,,78,100
7296,note_on,,,,,64,0,11,,,,,4,,,61,100
7296,note_on,,,,,64,0,13,,,,,6,,,46,100
7388,note_off,,,,,92,0,8,,,,,1,,,78,100
7392,note_on,,,,,160,0,10,,,,,3,,,70,100
7392,note_on,,,,,4,0,8,,,,,1,,,76,100
7424,note_off,,,,,128,0,13,,,,,6,,,46,100
7424,note_off,,,,,128,0,7,,,,,0,,,78,100
7424,note_off,,,,,0,0,14,,,,,7,,,73,100
7424,note_off,,,,,128,0,15,,,,,7,,,58,100
7424,note_off,,,,,128,0,14,,,,,7,,,66,100
7424,note_off,,,,,128,0,11,,,,,4,,,61,100
7424,note_off,,,,,128,0,12,,,,,5,,,58,100
7456,note_off,,,,,64,0,8,,,,,1,,,76,100
7456,note_off,,,,,64,0,10,,,,,3,,,70,100
7488,note_on,,,,,64,0,13,,,,,6,,,42,100
7488,note_on,,,,,64,0,12,,,,,5,,,54,100
7488,note_on,,,,,32,0,8,,,,,1,,,78,100
7488,note_on,,,,,64,0,15,,,,,7,,,54,100
7488,note_on,,,,,0,0,11,,,,,4,,,70,100
7488,note_on,,,,,256,0,9,,,,,2,,,78,100
7488,note_on,,,,,0,0,14,,,,,7,,,73,100
7488,note_on,,,,,64,0,14,,,,,7,,,69,100
7488,note_on,,,,,64,0,11,,,,,4,,,58,100
7488,note_on,,,,,32,0,10,,,,,3,,,73,100
7488,note_on,,,,,64,0,7,,,,,0,,,78,100
7552,note_off,,,,,64,0,10,,,,,3,,,73,100
7584,note_on,,,,,32,0,10,,,,,3,,,78,100
7616,note_off,,,,,128,0,8,,,,,1,,,78,100
7616,note_off,,,,,128,0,12,,,,,5,,,54,100
7616,note_off,,,,,128,0,13,,,,,6,,,42,100
7616,note_off,,,,,128,0,11,,,,,4,,,58,100
7616,note_off,,,,,0,0,11,,,,,4,,,70,100
7616,note_off,,,,,128,0,15,,,,,7,,,54,100
7616,note_off,,,,,128,0,14,,,,,7,,,69,100
7616,note_off,,,,,0,0,14,,,,,7,,,73,100
7616,note_off,,,,,128,0,7,,,,,0,,,78,100
7616,note_off,,,,,128,0,9,,,,,2,,,78,100
7648,note_off,,,,,64,0,10,,,,,3,,,78,100
7680,note_on,,,,,32,0,10,,,,,3,,,78,100
7680,note_on,,,,,64,0,9,,,,,2,,,74,100
7680,note_on,,,,,64,0,7,,,,,0,,,83,100
7680,note_on,,,,,64,0,11,,,,,4,,,71,100
7772,note_off,,,,,92,0,10,,,,,3,,,78,100
7776,note_on,,,,,160,0,8,,,,,1,,,71,100
7776,note_on,,,,,4,0,10,,,,,3,,,76,100
7808,note_off,,,,,128,0,7,,,,,0,,,83,100
7808,note_off,,,,,128,0,9,,,,,2,,,74,100
7808,note_off,,,,,128,0,11,,,,,4,,,71,100
7840,note_off,,,,,64,0,8,,,,,1,,,71,100
7840,note_off,,,,,64,0,10,,,,,3,,,76,100
7872,note_on,,,,,256,0,13,,,,,6,,,47,100
7872,note_on,,,,,0,0,14,,,,,7,,,66,100
7872,note_on,,,,,32,0,8,,,,,1,,,74,100
7872,note_on,,,,,256,0,12,,,,,5,,,59,100
7872,note_on,,,,,64,0,9,,,,,2,,,71,100
7872,note_on,,,,,64,0,7,,,,,0,,,78,100
7872,note_on,,,,,256,0,14,,,,,7,,,74,100
7872,note_on,,,,,32,0,10,,,,,3,,,78,100
7872,note_on,,,,,64,0,11,,,,,4,,,62,100
7872,note_on,,,,,0,0,11,,,,,4,,,66,100
7872,note_on,,,,,256,0,15,,,,,7,,,59,100
7936,note_off,,,,,64,0,8,,,,,1,,,74,100
7968,note_on,,,,,32,0,8,,,,,1,,,78,100
8000,note_off,,,,,128,0,14,,,,,7,,,74,100
8000,note_off,,,,,128,0,7,,,,,0,,,78,100
8000,note_off,,,,,0,0,11,,,,,4,,,66,100
8000,note_off,,,,,128,0,11,,,,,4,,,62,100
8000,note_off,,,,,0,0,14,,,,,7,,,66,100
8000,note_off,,,,,128,0,13,,,,,6,,,47,100
8000,note_off,,,,,128,0,12,,,,,5,,,59,100
8000,note_off,,,,,128,0,10,,,,,3,,,78,100
8000,note_off,,,,,128,0,9,,,,,2,,,71,100
8000,note_off,,,,,128,0,15,,,,,7,,,59,100
8032,note_off,,,,,64,0,8,,,,,1,,,78,100
8064,note_on,,,,,64,0,15,,,,,7,,,58,100
8064,note_on,,,,,64,0,14,,,,,7,,,66,100
8064,note_on,,,,,0,0,14,,,,,7,,,73,100
8064,note_on,,,,,64,0,7,,,,,0,,,78,100
8064,note_on,,,,,32,0,8,,,,,1,,,78,100
8064,note_on,,,,,64,0,12,,,,,5,,,58,100
8064,note_on,,,,,64,0,11,,,,,4,,,61,100
8064,note_on,,,,,64,0,13,,,,,6,,,46,100
8156,note_off,,,,,92,0,8,,,,,1,,,78,100
8160,note_on,,,,,4,0,8,,,,,1,,,76,100
8160,note_on,,,,,160,0,10,,,,,3,,,70,100
8192,note_off,,,,,128,0,12,,,,,5,,,58,100
8192,note_off,,,,,0,0,14,,,,,7,,,73,100
8192,note_off,,,,,128,0,13,,,,,6,,,46,100
8192,note_off,,,,,128,0,15,,,,,7,,,58,100
8192,note_off,,,,,128,0,11,,,,,4,,,61,100
8192,note_off,,,,,128,0,14,,,,,7,,,66,100
8192,note_off,,,,,128,0,7,,,,,0,,,78,100
8224,note_off,,,,,64,0,8,,,,,1,,,76,100
8224,note_off,,,,,64,0,10,,,,,3,,,70,100
8256,note_on,,,,,64,0,12,,,,,5,,,54,100
8256,note_on,,,,,32,0,10,,,,,3,,,73,100
8256,note_on,,,,,0,0,11,,,,,4,,,70,100
8256,note_on,,,,,256,0,9,,,,,2,,,78,100
8256,note_on,,,,,64,0,11,,,,,4,,,58,100
8256,note_on,,,,,32,0,8,,,,,1,,,78,100
8256,note_on,,,,,64,0,13,,,,,6,,,42,100
8256,note_on,,,,,64,0,7,,,,,0,,,78,100
8256,note_on,,,,,64,0,15,,,,,7,,,54,100
8256,note_on,,,,,64,0,14,,,,,7,,,69,100
8256,note_on,,,,,0,0,14,,,,,7,,,73,100
8320,note_off,,,,,64,0,10,,,,,3,,,73,100
8352,note_on,,,,,32,0,10,,,,,3,,,78,100
8384,note_off,,,,,128,0,13,,,,,6,,,42,100
8384,note_off,,,,,128,0,12,,,,,5,,,54,100
8384,note_off,,,,,0,0,14,,,,,7,,,73,100
8384,note_off,,,,,128,0,9,,,,,2,,,78,100
8384,note_off,,,,,128,0,14,,,,,7,,,69,100
8384,note_off,,,,,128,0,11,,,,,4,,,58,100
8384,note_off,,,,,0,0,11,,,,,4,,,70,100
8384,note_off,,,,,128,0,7,,,,,0,,,78,100
8384,note_off,,,,,128,0,15,,,,,7,,,54,100
8384,note_off,,,,,128,0,8,,,,,1,,,78,100
8416,note_off,,,,,64,0,10,,,,,3,,,78,100
8448,note_on,,,,,64,0,11,,,,,4,,,71,100
8448,note_on,,,,,64,0,9,,,,,2,,,74,100
8448,note_on,,,,,32,0,10,,,,,3,,,78,100
8448,note_on,,,,,64,0,7,,,,,0,,,83,100
8540,note_off,,,,,92,0,10,,,,,3,,,78,100
8544,note_on,,,,,4,0,10,,,,,3,,,76,100
8544,note_on,,,,,160,0,8,,,,,1,,,71,100
8576,note_off,,,,,128,0,9,,,,,2,,,74,100
8576,note_off,,,,,128,0,7,,,,,0,,,83,100
8576,note_off,,,,,128,0,11,,,,,4,,,71,100
8608,note_off,,,,,64,0,8,,,,,1,,,71,100
8608,note_off,,,,,64,0,10,,,,,3,,,76,100
8640,note_on,,,,,256,0,14,,,,,7,,,74,100
8640,note_on,,,,,64,0,7,,,,,0,,,78,100
8640,note_on,,,,,64,0,9,,,,,2,,,71,100
8640,note_on,,,,,0,0,11,,,,,4,,,66,100
8640,note_on,,,,,256,0,15,,,,,7,,,59,100
8640,note_on,,,,,32,0,8,,,,,1,,,74,100
8640,note_on,,,,,256,0,12,,,,,5,,,59,100
8640,note_on,,,,,0,0,14,,,,,7,,,66,100
8640,note_on,,,,,256,0,13,,,,,6,,,47,100
8640,note_on,,,,,32,0,10,,,,,3,,,78,100
8640,note_on,,,,,64,0,11,,,,,4,,,62,100
8704,note_off,,,,,64,0,8,,,,,1,,,74,100
8736,note_on,,,,,32,0,8,,,,,1,,,78,100
8768,note_off,,,,,128,0,9,,,,,2,,,71,100
8768,note_off,,,,,0,0,14,,,,,7,,,66,100
8768,note_off,,,,,128,0,13,,,,,6,,,47,100
8768,note_off,,,,,128,0,12,,,,,5,,,59,100
8768,note_off,,,,,128,0,14,,,,,7,,,74,100
8768,note_off,,,,,128,0,7,,,,,0,,,78,100
8768,note_off,,,,,128,0,15,,,,,7,,,59,100
8768,note_off,,,,,0,0,11,,,,,4,,,66,100
8768,note_off,,,,,128,0,11,,,,,4,,,62,100
8768,note_off,,,,,128,0,10,,,,,3,,,78,100
8800,note_off,,,,,64,0,8,,,,,1,,,78,100
8832,note_on,,,,,64,0,7,,,,,0,,,78,100
8832,note_on,,,,,64,0,15,,,,,7,,,58,100
8832,note_on,,,,,64,0,12,,,,,5,,,58,100
8832,note_on,,,,,32,0,8,,,,,1,,,78,100
8832,note_on,,,,,0,0,14,,,,,7,,,73,100
8832,note_on,,,,,64,0,14,,,,,7,,,66,100
8832,note_on,,,,,64,0,11,,,,,4,,,61,100
8832,note_on,,,,,64,0,13,,,,,6,,,46,100
8924,note_off,,,,,92,0,8,,,,,1,,,78,100
8928,note_on,,,,,160,0,10,,,,,3,,,70,100
8928,note_on,,,,,4,0,8,,,,,1,,,76,100
8960,note_off,,,,,128,0,13,,,,,6,,,46,100
8960,note_off,,,,,128,0,15,,,,,7,,,58,100
8960,note_off,,,,,128,0,11,,,,,4,,,61,100
8960,note_off,,,,,128,0,12,,,,,5,,,58,100
8960,note_off,,,,,128,0,7,,,,,0,,,78,100
8960,note_off,,,,,0,0,14,,,,,7,,,73,100
8960,note_off,,,,,128,0,14,,,,,7,,,66,100
8992,note_off,,,,,64,0,10,,,,,3,,,70,100
8992,note_off,,,,,64,0,8,,,,,1,,,76,100
9024,note_on,,,,,64,0,15,,,,,7,,,54,100
9024,note_on,,,,,32,0,10,,,,,3,,,73,100
9024,note_on,,,,,64,0,11,,,,,4,,,58,100
9024,note_on,,,,,0,0,11,,,,,4,,,70,100
9024,note_on,,,,,64,0,12,,,,,5,,,54,100
9024,note_on,,,,,0,0,14,,,,,7,,,73,100
9024,note_on,,,,,64,0,14,,,,,7,,,69,100
9024,note_on,,,,,64,0,7,,,,,0,,,78,100
9024,note_on,,,,,32,0,8,,,,,1,,,78,100
9024,note_on,,,,,256,0,9,,,,,2,,,78,100
9024,note_on,,,,,64,0,13,,,,,6,,,42,100
9088,note_off,,,,,64,0,10,,,,,3,,,73,100
9120,note_on,,,,,32,0,10,,,,,3,,,78,100
9152,note_off,,,,,128,0,13,,,,,6,,,42,100
9152,note_off,,,,,128,0,11,,,,,4,,,58,100
9152,note_off,,,,,0,0,11,,,,,4,,,70,100
9152,note_off,,,,,128,0,15,,,,,7,,,54,100
9152,note_off,,,,,128,0,7,,,,,0,,,78,100
9152,note_off,,,,,128,0,12,,,,,5,,,54,100
9152,note_off,,,,,128,0,14,,,,,7,,,69,100
9152,note_off,,,,,0,0,14,,,,,7,,,73,100
9152,note_off,,,,,128,0,8,,,,,1,,,78,100
9152,note_off,,,,,128,0,9,,,,,2,,,78,100
9184,note_off,,,,,64,0,10,,,,,3,,,78,100
9216,set_tempo,,,,,9216,1,0,,500000,,,,,,,
9216,note_on,,,,,64,0,12,,,,,5,,,47,100
9216,note_on,,,,,64,0,13,,,,,6,,,35,100
9216,note_on,,,,,64,0,7,,,,,0,,,78,100
9216,note_on,,,,,0,0,14,,,,,7,,,66,100
9216,note_on,,,,,64,0,14,,,,,7,,,74,100
9216,note_on,,,,,0,0,11,,,,,4,,,71,100
9216,note_on,,,,,64,0,9,,,,,2,,,74,100
9216,note_on,,,,,32,0,10,,,,,3,,,78,100
9216,note_on,,,,,64,0,15,,,,,7,,,47,100
9216,note_on,,,,,64,0,11,,,,,4,,,54,100
9260,note_off,,,,,44,0,7,,,,,0,,,78,100
9260,note_off,,,,,44,0,9,,,,,2,,,74,100
9264,note_on,,,,,4,0,7,,,,,0,,,79,100
9264,note_on,,,,,4,0,9,,,,,2,,,76,100
9308,note_off,,,,,44,0,9,,,,,2,,,76,100
9308,note_off,,,,,92,0,10,,,,,3,,,78,100
9308,note_off,,,,,44,0,7,,,,,0,,,79,100
9312,note_on,,,,,4,0,7,,,,,0,,,78,100
9312,note_on,,,,,4,0,9,,,,,2,,,74,100
9312,note_on,,,,,4,0,10,,,,,3,,,76,100
9344,note_off,,,,,0,0,11,,,,,4,,,71,100
9344,note_off,,,,,128,0,11,,,,,4,,,54,100
9376,note_off,,,,,64,0,7,,,,,0,,,78,100
9376,note_off,,,,,64,0,10,,,,,3,,,76,100
9376,note_off,,,,,64,0,9,,,,,2,,,74,100
9408,note_on,,,,,32,0,10,,,,,3,,,78,100
9408,note_on,,,,,32,0,7,,,,,0,,,74,100
9408,note_on,,,,,32,0,9,,,,,2,,,71,100
9408,note_on,,,,,256,0,8,,,,,1,,,78,100
9408,note_on,,,,,64,0,11,,,,,4,,,62,100
9408,note_on,,,,,0,0,11,,,,,4,,,66,100
9472,note_off,,,,,64,0,9,,,,,2,,,71,100
9472,note_off,,,,,256,0,15,,,,,7,,,47,100
9472,note_off,,,,,256,0,13,,,,,6,,,35,100
9472,note_off,,,,,0,0,14,,,,,7,,,66,100
9472,note_off,,,,,256,0,14,,,,,7,,,74,100
9472,note_off,,,,,256,0,12,,,,,5,,,47,100
9472,note_off,,,,,64,0,7,,,,,0,,,74,100
9504,note_on,,,,,32,0,7,,,,,0,,,76,100
9504,note_on,,,,,32,0,9,,,,,2,,,73,100
9536,note_off,,,,,128,0,8,,,,,1,,,78,100
9536,note_off,,,,,128,0,10,,,,,3,,,78,100
9536,note_off,,,,,0,0,11,,,,,4,,,66,100
9536,note_off,,,,,128,0,11,,,,,4,,,62,100
9568,note_off,,,,,64,0,9,,,,,2,,,73,100
9568,note_off,,,,,64,0,7,,,,,0,,,76,100
9600,note_on,,,,,64,0,8,,,,,1,,,83,100
9600,note_on,,,,,32,0,9,,,,,2,,,74,100
9600,note_on,,,,,64,0,11,,,,,4,,,59,100
9600,note_on,,,,,0,0,11,,,,,4,,,62,100
9600,note_on,,,,,32,0,7,,,,,0,,,78,100
9728,note_off,,,,,128,0,7,,,,,0,,,78,100
9728,note_off,,,,,128,0,9,,,,,2,,,74,100
9728,note_off,,,,,128,0,11,,,,,4,,,62,100
9792,note_on,,,,,64,0,9,,,,,2,,,74,100
9792,note_on,,,,,64,0,11,,,,,4,,,59,100
9792,note_on,,,,,256,0,10,,,,,3,,,78,100
9792,note_on,,,,,64,0,7,,,,,0,,,78,100
9856,note_off,,,,,256,0,8,,,,,1,,,83,100
9856,note_off,,,,,64,0,11,,,,,4,,,59,100
9920,note_off,,,,,128,0,7,,,,,0,,,78,100
9920,note_off,,,,,64,0,11,,,,,4,,,59,100
9920,note_off,,,,,128,0,10,,,,,3,,,78,100
9920,note_off,,,,,128,0,9,,,,,2,,,74,100
9984,note_on,,,,,512,0,13,,,,,6,,,35,100
9984,note_on,,,,,0,0,14,,,,,7,,,66,100
9984,note_on,,,,,512,0,14,,,,,7,,,62,100
9984,note_on,,,,,64,0,10,,,,,3,,,83,100
9984,note_on,,,,,64,0,9,,,,,2,,,74,100
9984,note_on,,,,,512,0,12,,,,,5,,,47,100
9984,note_on,,,,,64,0,7,,,,,0,,,78,100
9984,note_on,,,,,512,0,15,,,,,7,,,47,100
10028,note_off,,,,,44,0,9,,,,,2,,,74,100
10028,note_off,,,,,44,0,7,,,,,0,,,78,100
10032,note_on,,,,,4,0,7,,,,,0,,,79,100
10032,note_on,,,,,4,0,9,,,,,2,,,76,100
10076,note_off,,,,,44,0,9,,,,,2,,,76,100
10076,note_off,,,,,44,0,7,,,,,0,,,79,100
10080,note_on,,,,,4,0,7,,,,,0,,,78,100
10080,note_on,,,,,4,0,9,,,,,2,,,74,100
10144,note_off,,,,,64,0,7,,,,,0,,,78,100
10144,note_off,,,,,64,0,9,,,,,2,,,74,100
10176,note_on,,,,,32,0,9,,,,,2,,,71,100
10176,note_on,,,,,32,0,7,,,,,0,,,74,100
10176,note_on,,,,,0,0,11,,,,,4,,,66,100
10176,note_on,,,,,256,0,11,,,,,4,,,62,100
10176,note_on,,,,,320,0,8,,,,,1,,,78,100
10240,note_off,,,,,256,0,14,,,,,7,,,62,100
10240,note_off,,,,,0,0,14,,,,,7,,,66,100
10240,note_off,,,,,256,0,13,,,,,6,,,35,100
10240,note_off,,,,,256,0,15,,,,,7,,,47,100
10240,note_off,,,,,64,0,9,,,,,2,,,71,100
10240,note_off,,,,,256,0,12,,,,,5,,,47,100
10240,note_off,,,,,256,0,10,,,,,3,,,83,100
10240,note_off,,,,,64,0,7,,,,,0,,,74,100
10272,note_on,,,,,32,0,7,,,,,0,,,76,100
10272,note_on,,,,,32,0,9,,,,,2,,,73,100
10304,note_off,,,,,0,0,11,,,,,4,,,66,100
10304,note_off,,,,,128,0,11,,,,,4,,,62,100
10304,note_off,,,,,128,0,8,,,,,1,,,78,100
10336,note_off,,,,,64,0,7,,,,,0,,,76,100
10336,note_off,,,,,64,0,9,,,,,2,,,73,100
10368,note_on,,,,,32,0,7,,,,,0,,,78,100
10368,note_on,,,,,32,0,9,,,,,2,,,74,100
10368,note_on,,,,,0,0,11,,,,,4,,,62,100
10368,note_on,,,,,64,0,11,,,,,4,,,59,100
10368,note_on,,,,,64,0,8,,,,,1,,,83,100
10496,note_off,,,,,128,0,9,,,,,2,,,74,100
10496,note_off,,,,,128,0,7,,,,,0,,,78,100
10496,note_off,,,,,128,0,11,,,,,4,,,62,100
10560,note_on,,,,,64,0,11,,,,,4,,,59,100
10560,note_on,,,,,64,0,9,,,,,2,,,74,100
10560,note_on,,,,,320,0,10,,,,,3,,,78,100
10560,note_on,,,,,64,0,7,,,,,0,,,78,100
10624,note_off,,,,,64,0,11,,,,,4,,,59,100
10624,note_off,,,,,256,0,8,,,,,1,,,83,100
10688,note_off,,,,,128,0,7,,,,,0,,,78,100
10688,note_off,,,,,128,0,9,,,,,2,,,74,100
10688,note_off,,,,,128,0,10,,,,,3,,,78,100
10688,note_off,,,,,64,0,11,,,,,4,,,59,100
10752,note_on,,,,,64,0,10,,,,,3,,,83,100
10752,note_on,,,,,0,0,14,,,,,7,,,66,100
10752,note_on,,,,,512,0,12,,,,,5,,,47,100
10752,note_on,,,,,512,0,13,,,,,6,,,35,100
10752,note_on,,,,,64,0,7,,,,,0,,,78,100
10752,note_on,,,,,512,0,15,,,,,7,,,47,100
10752,note_on,,,,,64,0,9,,,,,2,,,74,100
10752,note_on,,,,,512,0,14,,,,,7,,,62,100
10796,note_off,,,,,44,0,7,,,,,0,,,78,100
10796,note_off,,,,,44,0,9,,,,,2,,,74,100
10800,note_on,,,,,4,0,7,,,,,0,,,79,100
10800,note_on,,,,,4,0,9,,,,,2,,,76,100
10844,note_off,,,,,44,0,7,,,,,0,,,79,100
10844,note_off,,,,,44,0,9,,,,,2,,,76,100
10848,note_on,,,,,4,0,9,,,,,2,,,74,100
10848,note_on,,,,,4,0,7,,,,,0,,,78,100
10912,note_off,,,,,64,0,7,,,,,0,,,78,100
10912,note_off,,,,,64,0,9,,,,,2,,,74,100
10944,note_on,,,,,0,0,11,,,,,4,,,66,100
10944,note_on,,,,,32,0,7,,,,,0,,,78,100
10944,note_on,,,,,320,0,8,,,,,1,,,78,100
10944,note_on,,,,,256,0,11,,,,,4,,,62,100
10944,note_on,,,,,32,0,9,,,,,2,,,74,100
11008,note_off,,,,,256,0,14,,,,,7,,,62,100
11008,note_off,,,,,256,0,10,,,,,3,,,83,100
11008,note_off,,,,,256,0,13,,,,,6,,,35,100
11008,note_off,,,,,0,0,14,,,,,7,,,66,100
11008,note_off,,,,,256,0,15,,,,,7,,,47,100
11008,note_off,,,,,256,0,12,,,,,5,,,47,100
11072,note_off,,,,,128,0,9,,,,,2,,,74,100
11072,note_off,,,,,128,0,8,,,,,1,,,78,100
11072,note_off,,,,,128,0,7,,,,,0,,,78,100
11072,note_off,,,,,0,0,11,,,,,4,,,66,100
11072,note_off,,,,,128,0,11,,,,,4,,,62,100
11136,note_on,,,,,64,0,9,,,,,2,,,74,100
11136,note_on,,,,,0,0,11,,,,,4,,,62,100
11136,note_on,,,,,64,0,11,,,,,4,,,59,100
11136,note_on,,,,,64,0,7,,,,,0,,,78,100
11136,note_on,,,,,64,0,8,,,,,1,,,83,100
11200,note_off,,,,,64,0,8,,,,,1,,,83,100
11232,note_on,,,,,224,0,10,,,,,3,,,71,100
11232,note_on,,,,,32,0,8,,,,,1,,,74,100
11264,note_off,,,,,128,0,7,,,,,0,,,78,100
11264,note_off,,,,,128,0,9,,,,,2,,,74,100
11264,note_off,,,,,0,0,11,,,,,4,,,62,100
11264,note_off,,,,,128,0,11,,,,,4,,,59,100
11296,note_off,,,,,64,0,8,,,,,1,,,74,100
11296,note_off,,,,,64,0,10,,,,,3,,,71,100
11328,note_on,,,,,320,0,15,,,,,7,,,47,100
11328,note_on,,,,,0,0,11,,,,,4,,,62,100
11328,note_on,,,,,64,0,7,,,,,0,,,76,100
11328,note_on,,,,,320,0,12,,,,,5,,,47,100
11328,note_on,,,,,0,0,14,,,,,7,,,66,100
11328,note_on,,,,,320,0,14,,,,,7,,,62,100
11328,note_on,,,,,64,0,11,,,,,4,,,59,100
11328,note_on,,,,,320,0,13,,,,,6,,,35,100
11328,note_on,,,,,32,0,8,,,,,1,,,76,100
11328,note_on,,,,,64,0,9,,,,,2,,,73,100
11328,note_on,,,,,32,0,10,,,,,3,,,73,100
11392,note_off,,,,,64,0,9,,,,,2,,,73,100
11392,note_off,,,,,64,0,7,,,,,0,,,76,100
11392,note_off,,,,,64,0,10,,,,,3,,,73,100
11392,note_off,,,,,64,0,8,,,,,1,,,76,100
11424,note_on,,,,,32,0,8,,,,,1,,,78,100
11424,note_on,,,,,32,0,9,,,,,2,,,71,100
11424,note_on,,,,,32,0,10,,,,,3,,,74,100
11424,note_on,,,,,32,0,7,,,,,0,,,74,100
11456,note_off,,,,,128,0,11,,,,,4,,,59,100
11456,note_off,,,,,128,0,13,,,,,6,,,35,100
11456,note_off,,,,,128,0,14,,,,,7,,,62,100
11456,note_off,,,,,0,0,11,,,,,4,,,62,100
11456,note_off,,,,,128,0,12,,,,,5,,,47,100
11456,note_off,,,,,128,0,15,,,,,7,,,47,100
11456,note_off,,,,,0,0,14,,,,,7,,,66,100
11488,note_off,,,,,64,0,10,,,,,3,,,74,100
11488,note_off,,,,,64,0,9,,,,,2,,,71,100
11488,note_off,,,,,64,0,7,,,,,0,,,74,100
11488,note_off,,,,,64,0,8,,,,,1,,,78,100
11520,note_on,,,,,0,0,11,,,,,4,,,66,100
11520,note_on,,,,,0,0,14,,,,,7,,,70,100
11520,note_on,,,,,64,0,14,,,,,7,,,73,100
11520,note_on,,,,,32,0,7,,,,,0,,,73,100
11520,note_on,,,,,64,0,12,,,,,5,,,54,100
11520,note_on,,,,,64,0,11,,,,,4,,,61,100
11520,note_on,,,,,64,0,15,,,,,7,,,54,100
11520,note_on,,,,,32,0,10,,,,,3,,,70,100
11520,note_on,,,,,32,0,8,,,,,1,,,73,100
11520,note_on,,,,,64,0,13,,,,,6,,,42,100
11520,note_on,,,,,32,0,9,,,,,2,,,70,100
11648,note_off,,,,,128,0,13,,,,,6,,,42,100
11648,note_off,,,,,128,0,7,,,,,0,,,73,100
11648,note_off,,,,,128,0,12,,,,,5,,,54,100
11648,note_off,,,,,128,0,8,,,,,1,,,73,100
11648,note_off,,,,,128,0,15,,,,,7,,,54,100
11648,note_off,,,,,0,0,14,,,,,7,,,70,100
11648,note_off,,,,,128,0,14,,,,,7,,,73,100
11712,note_on,,,,,64,0,15,,,,,7,,,56,100
11712,note_on,,,,,0,0,14,,,,,7,,,71,100
11712,note_on,,,,,64,0,14,,,,,7,,,74,100
11712,note_on,,,,,64,0,13,,,,,6,,,44,100
11712,note_on,,,,,64,0,12,,,,,5,,,56,100
11712,note_on,,,,,64,0,8,,,,,1,,,66,100
11712,note_on,,,,,64,0,7,,,,,0,,,66,100
11776,note_off,,,,,0,0,11,,,,,4,,,66,100
11776,note_off,,,,,256,0,9,,,,,2,,,70,100
11776,note_off,,,,,256,0,11,,,,,4,,,61,100
11776,note_off,,,,,256,0,10,,,,,3,,,70,100
11840,note_off,,,,,128,0,14,,,,,7,,,74,100
11840,note_off,,,,,0,0,14,,,,,7,,,71,100
11840,note_off,,,,,128,0,12,,,,,5,,,56,100
11840,note_off,,,,,128,0,7,,,,,0,,,66,100
11840,note_off,,,,,128,0,15,,,,,7,,,56,100
11840,note_off,,,,,128,0,8,,,,,1,,,66,100
11840,note_off,,,,,128,0,13,,,,,6,,,44,100
11904,note_on,,,,,0,0,14,,,,,7,,,73,100
11904,note_on,,,,,64,0,14,,,,,7,,,76,100
11904,note_on,,,,,64,0,12,,,,,5,,,58,100
11904,program_change,,,,,128,0,9,,,,,2,40,,,
11904,note_on,,,,,64,0,13,,,,,6,,,46,100
11904,note_on,,,,,64,0,15,,,,,7,,,58,100
12000,note_on,,,,,96,0,9,,,,,2,,,73,100
12032,note_off,,,,,0,0,14,,,,,7,,,73,100
12032,note_off,,,,,128,0,14,,,,,7,,,76,100
12032,note_off,,,,,128,0,12,,,,,5,,,58,100
12032,note_off,,,,,128,0,13,,,,,6,,,46,100
12032,note_off,,,,,128,0,15,,,,,7,,,58,100
12064,note_off,,,,,64,0,9,,,,,2,,,73,100
12096,note_on,,,,,32,0,9,,,,,2,,,74,100
12096,note_on,,,,,64,0,15,,,,,7,,,54,100
12096,note_on,,,,,64,0,13,,,,,6,,,42,100
12096,note_on,,,,,64,0,14,,,,,7,,,70,100
12096,note_on,,,,,0,0,14,,,,,7,,,76,100
12096,note_on,,,,,64,0,12,,,,,5,,,54,100
12160,note_off,,,,,64,0,9,,,,,2,,,74,100
12192,note_on,,,,,32,0,9,,,,,2,,,76,100
12224,note_off,,,,,128,0,12,,,,,5,,,54,100
12224,note_off,,,,,128,0,13,,,,,6,,,42,100
12224,note_off,,,,,0,0,14,,,,,7,,,76,100
12224,note_off,,,,,128,0,15,,,,,7,,,54,100
12224,note_off,,,,,128,0,14,,,,,7,,,70,100
12256,note_off,,,,,64,0,9,,,,,2,,,76,100
12288,note_on,,,,,64,0,12,,,,,5,,,47,100
12288,note_on,,,,,32,0,9,,,,,2,,,74,100
12288,note_on,,,,,64,0,13,,,,,6,,,35,100
12288,note_on,,,,,64,0,14,,,,,7,,,66,100
12288,note_on,,,,,0,0,14,,,,,7,,,74,100
12288,note_on,,,,,64,0,15,,,,,7,,,47,100
12380,note_off,,,,,92,0,9,,,,,2,,,74,100
12384,note_on,,,,,4,0,9,,,,,2,,,73,100
12416,note_off,,,,,128,0,12,,,,,5,,,47,100
12476,note_off,,,,,92,0,9,,,,,2,,,73,100
12480,note_on,,,,,4,0,9,,,,,2,,,71,100
12480,note_on,,,,,64,0,12,,,,,5,,,59,85
12544,note_off,,,,,256,0,15,,,,,7,,,47,100
12544,note_off,,,,,64,0,9,,,,,2,,,71,100
12544,note_off,,,,,256,0,13,,,,,6,,,35,100
12544,note_off,,,,,256,0,14,,,,,7,,,66,100
12544,note_off,,,,,0,0,14,,,,,7,,,74,100
12576,note_on,,,,,32,0,9,,,,,2,,,74,100
12608,note_off,,,,,128,0,12,,,,,5,,,59,100
12640,note_off,,,,,64,0,9,,,,,2,,,74,100
12672,note_on,,,,,32,0,9,,,,,2,,,78,100
12672,note_on,,,,,64,0,12,,,,,5,,,58,85
12736,note_off,,,,,64,0,9,,,,,2,,,78,100
12768,note_on,,,,,32,0,9,,,,,2,,,73,100
12800,note_off,,,,,128,0,12,,,,,5,,,58,100
12832,note_off,,,,,64,0,9,,,,,2,,,73,100
12864,note_on,,,,,32,0,9,,,,,2,,,74,100
12864,note_on,,,,,320,0,13,,,,,6,,,42,85
12864,note_on,,,,,320,0,14,,,,,7,,,76,100
12864,note_on,,,,,320,0,15,,,,,7,,,54,100
12864,note_on,,,,,64,0,12,,,,,5,,,54,85
12864,note_on,,,,,0,0,14,,,,,7,,,70,100
12928,note_off,,,,,64,0,9,,,,,2,,,74,100
12960,note_on,,,,,32,0,9,,,,,2,,,76,100
12992,note_off,,,,,0,0,14,,,,,7,,,70,100
12992,note_off,,,,,128,0,13,,,,,6,,,42,100
12992,note_off,,,,,128,0,14,,,,,7,,,76,100
12992,note_off,,,,,128,0,15,,,,,7,,,54,100
12992,note_off,,,,,128,0,12,,,,,5,,,54,100
13024,note_off,,,,,64,0,9,,,,,2,,,76,100
13056,note_on,,,,,64,0,13,,,,,6,,,35,85
13056,note_on,,,,,64,0,14,,,,,7,,,66,100
13056,note_on,,,,,64,0,15,,,,,7,,,47,100
13056,note_on,,,,,32,0,9,,,,,2,,,74,100
13056,note_on,,,,,0,0,14,,,,,7,,,74,100
13056,note_on,,,,,64,0,12,,,,,5,,,47,85
13148,note_off,,,,,92,0,9,,,,,2,,,74,100
13152,note_on,,,,,4,0,9,,,,,2,,,73,90
13184,note_off,,,,,128,0,12,,,,,5,,,47,100
13244,note_off,,,,,92,0,9,,,,,2,,,73,100
13248,note_on,,,,,64,0,12,,,,,5,,,59,85
13248,note_on,,,,,4,0,9,,,,,2,,,71,90
13312,note_off,,,,,64,0,9,,,,,2,,,71,100
13312,note_off,,,,,256,0,13,,,,,6,,,35,100
13312,note_off,,,,,256,0,15,,,,,7,,,47,100
13312,note_off,,,,,0,0,14,,,,,7,,,74,100
13312,note_off,,,,,256,0,14,,,,,7,,,66,100
13344,note_on,,,,,32,0,9,,,,,2,,,74,90
13376,note_off,,,,,128,0,12,,,,,5,,,59,100
13408,note_off,,,,,64,0,9,,,,,2,,,74,100
13440,note_on,,,,,32,0,9,,,,,2,,,78,90
13440,note_on,,,,,64,0,12,,,,,5,,,58,85
13504,note_off,,,,,64,0,9,,,,,2,,,78,100
13536,note_on,,,,,32,0,9,,,,,2,,,73,90
13568,note_off,,,,,128,0,12,,,,,5,,,58,100
13600,note_off,,,,,64,0,9,,,,,2,,,73,100
13632,note_on,,,,,320,0,14,,,,,7,,,70,100
13632,note_on,,,,,0,0,14,,,,,7,,,76,100
13632,note_on,,,,,320,0,13,,,,,6,,,42,85
13632,note_on,,,,,64,0,12,,,,,5,,,54,85
13632,note_on,,,,,32,0,9,,,,,2,,,74,90
13632,note_on,,,,,320,0,15,,,,,7,,,54,100
13696,note_off,,,,,64,0,9,,,,,2,,,74,100
13728,note_on,,,,,32,0,9,,,,,2,,,76,90
13760,note_off,,,,,128,0,15,,,,,7,,,54,100
13760,note_off,,,,,0,0,14,,,,,7,,,76,100
13760,note_off,,,,,128,0,14,,,,,7,,,70,100
13760,note_off,,,,,128,0,12,,,,,5,,,54,100
13760,note_off,,,,,128,0,13,,,,,6,,,42,100
13792,note_off,,,,,64,0,9,,,,,2,,,76,100
13824,note_on,,,,,32,0,9,,,,,2,,,74,90
13824,note_on,,,,,0,0,14,,,,,7,,,74,100
13824,note_on,,,,,64,0,12,,,,,5,,,47,85
13824,note_on,,,,,64,0,13,,,,,6,,,35,85
13824,note_on,,,,,64,0,14,,,,,7,,,66,100
13824,note_on,,,,,64,0,15,,,,,7,,,47,100
13916,note_off,,,,,92,0,9,,,,,2,,,74,100
13920,note_on,,,,,4,0,9,,,,,2,,,73,105
13952,note_off,,,,,128,0,12,,,,,5,,,47,100
14012,note_off,,,,,92,0,9,,,,,2,,,73,100
14016,note_on,,,,,64,0,12,,,,,5,,,59,85
14016,note_on,,,,,4,0,9,,,,,2,,,71,105
14080,note_off,,,,,64,0,9,,,,,2,,,71,100
14080,note_off,,,,,256,0,15,,,,,7,,,47,100
14080,note_off,,,,,256,0,13,,,,,6,,,35,100
14080,note_off,,,,,0,0,14,,,,,7,,,74,100
14080,note_off,,,,,256,0,14,,,,,7,,,66,100
14112,note_on,,,,,32,0,9,,,,,2,,,74,104
14144,note_off,,,,,128,0,12,,,,,5,,,59,100
14176,note_off,,,,,64,0,9,,,,,2,,,74,100
14208,note_on,,,,,32,0,9,,,,,2,,,78,103
14208,note_on,,,,,64,0,12,,,,,5,,,58,85
14272,note_off,,,,,64,0,9,,,,,2,,,78,100
14304,note_on,,,,,32,0,9,,,,,2,,,73,103
14336,note_off,,,,,128,0,12,,,,,5,,,58,100
14368,note_off,,,,,64,0,9,,,,,2,,,73,100
14400,note_on,,,,,320,0,15,,,,,7,,,54,100
14400,note_on,,,,,64,0,12,,,,,5,,,54,85
14400,note_on,,,,,32,0,9,,,,,2,,,74,102
14400,note_on,,,,,320,0,13,,,,,6,,,42,85
14400,note_on,,,,,0,0,14,,,,,7,,,76,100
14400,note_on,,,,,320,0,14,,,,,7,,,70,100
14464,note_off,,,,,64,0,9,,,,,2,,,74,100
14496,note_on,,,,,32,0,9,,,,,2,,,76,101
14528,note_off,,,,,128,0,13,,,,,6,,,42,100
14528,note_off,,,,,0,0,14,,,,,7,,,76,100
14528,note_off,,,,,128,0,14,,,,,7,,,70,100
14528,note_off,,,,,128,0,12,,,,,5,,,54,100
14528,note_off,,,,,128,0,15,,,,,7,,,54,100
14560,note_off,,,,,64,0,9,,,,,2,,,76,100
14592,note_on,,,,,32,0,9,,,,,2,,,74,101
14592,note_on,,,,,64,0,14,,,,,7,,,66,100
14592,note_on,,,,,64,0,13,,,,,6,,,35,85
14592,note_on,,,,,64,0,12,,,,,5,,,47,85
14592,note_on,,,,,64,0,15,,,,,7,,,47,100
14592,note_on,,,,,0,0,14,,,,,7,,,74,100
14656,note_off,,,,,64,0,9,,,,,2,,,74,100
14688,note_on,,,,,32,0,9,,,,,2,,,71,100
14720,note_off,,,,,128,0,12,,,,,5,,,47,100
14752,note_off,,,,,64,0,9,,,,,2,,,71,100
14784,note_on,,,,,64,0,12,,,,,5,,,59,85
14784,note_on,,,,,32,0,9,,,,,2,,,74,100
14848,note_off,,,,,256,0,13,,,,,6,,,35,100
14848,note_off,,,,,64,0,9,,,,,2,,,74,100
14848,note_off,,,,,0,0,14,,,,,7,,,74,100
14848,note_off,,,,,256,0,15,,,,,7,,,47,100
14848,note_off,,,,,256,0,14,,,,,7,,,66,100
14880,note_on,,,,,32,0,9,,,,,2,,,78,100
14912,note_off,,,,,128,0,12,,,,,5,,,59,100
14944,note_off,,,,,64,0,9,,,,,2,,,78,100
14976,note_on,,,,,32,0,9,,,,,2,,,83,100
14976,note_on,,,,,64,0,12,,,,,5,,,62,85
15040,note_off,,,,,64,0,9,,,,,2,,,83,100
15072,note_on,,,,,32,0,9,,,,,2,,,71,100
15104,note_off,,,,,128,0,12,,,,,5,,,62,100
15136,note_off,,,,,64,0,9,,,,,2,,,71,100
15168,note_on,,,,,64,0,12,,,,,5,,,59,85
15168,note_on,,,,,32,0,9,,,,,2,,,74,100
15232,note_off,,,,,64,0,9,,,,,2,,,74,100
15264,note_on,,,,,32,0,9,,,,,2,,,78,100
15296,note_off,,,,,128,0,12,,,,,5,,,59,100
15328,note_off,,,,,64,0,9,,,,,2,,,78,100
15360,note_on,,,,,512,0,14,,,,,7,,,62,100
15360,note_on,,,,,32,0,9,,,,,2,,,83,100
15360,note_on,,,,,512,0,15,,,,,7,,,47,100
15360,note_on,,,,,0,0,14,,,,,7,,,66,100
15360,note_on,,,,,64,0,12,,,,,5,,,47,85
15360,note_on,,,,,512,0,13,,,,,6,,,35,85
15424,note_off,,,,,64,0,9,,,,,2,,,83,100
15456,note_on,,,,,32,0,9,,,,,2,,,71,100
15488,note_off,,,,,128,0,12,,,,,5,,,47,100
15520,note_off,,,,,64,0,9,,,,,2,,,71,100
15552,note_on,,,,,64,0,12,,,,,5,,,59,85
15552,note_on,,,,,32,0,9,,,,,2,,,74,100
15616,note_off,,,,,0,0,14,,,,,7,,,66,100
15616,note_off,,,,,256,0,14,,,,,7,,,62,100
15616,note_off,,,,,64,0,9,,,,,2,,,74,100
15616,note_off,,,,,256,0,15,,,,,7,,,47,100
15616,note_off,,,,,256,0,13,,,,,6,,,35,100
15648,note_on,,,,,32,0,9,,,,,2,,,78,100
15680,note_off,,,,,128,0,12,,,,,5,,,59,100
15712,note_off,,,,,64,0,9,,,,,2,,,78,100
15744,note_on,,,,,32,0,9,,,,,2,,,83,100
15744,note_on,,,,,64,0,12,,,,,5,,,62,85
15808,note_off,,,,,64,0,9,,,,,2,,,83,100
15840,note_on,,,,,32,0,9,,,,,2,,,71,100
15872,note_off,,,,,128,0,12,,,,,5,,,62,100
15904,note_off,,,,,64,0,9,,,,,2,,,71,100
15936,note_on,,,,,32,0,9,,,,,2,,,74,100
15936,note_on,,,,,64,0,12,,,,,5,,,59,85
16000,note_off,,,,,64,0,9,,,,,2,,,74,100
16032,note_on,,,,,32,0,9,,,,,2,,,78,100
16064,note_off,,,,,128,0,12,,,,,5,,,59,100
16096,note_off,,,,,64,0,9,,,,,2,,,78,100
16128,note_on,,,,,64,0,12,,,,,5,,,47,85
16128,note_on,,,,,512,0,14,,,,,7,,,62,100
16128,note_on,,,,,512,0,13,,,,,6,,,35,85
16128,note_on,,,,,32,0,9,,,,,2,,,83,100
16128,note_on,,,,,0,0,14,,,,,7,,,66,100
16128,note_on,,,,,512,0,15,,,,,7,,,47,100
16192,note_off,,,,,64,0,9,,,,,2,,,83,100
16224,note_on,,,,,32,0,9,,,,,2,,,78,100
16288,note_off,,,,,64,0,9,,,,,2,,,78,100
16320,note_on,,,,,32,0,9,,,,,2,,,74,100
16384,note_off,,,,,256,0,15,,,,,7,,,47,100
16384,note_off,,,,,0,0,14,,,,,7,,,66,100
16384,note_off,,,,,64,0,9,,,,,2,,,74,100
16384,note_off,,,,,256,0,12,,,,,5,,,47,100
16384,note_off,,,,,256,0,13,,,,,6,,,35,100
16384,note_off,,,,,256,0,14,,,,,7,,,62,100
16416,note_on,,,,,32,0,9,,,,,2,,,78,100
16480,note_off,,,,,64,0,9,,,,,2,,,78,100
16512,note_on,,,,,32,0,9,,,,,2,,,71,100
16576,note_off,,,,,64,0,9,,,,,2,,,71,100
16608,note_on,,,,,32,0,9,,,,,2,,,74,100
16672,note_off,,,,,64,0,9,,,,,2,,,74,100
16704,note_on,,,,,32,0,9,,,,,2,,,71,100
16768,note_off,,,,,64,0,9,,,,,2,,,71,100
16800,note_on,,,,,32,0,9,,,,,2,,,74,100
16864,note_off,,,,,64,0,9,,,,,2,,,74,100
16896,note_on,,,,,512,0,13,,,,,6,,,35,85
16896,note_on,,,,,0,0,14,,,,,7,,,66,100
16896,note_on,,,,,512,0,12,,,,,5,,,47,85
16896,note_on,,,,,512,0,15,,,,,7,,,47,100
16896,note_on,,,,,32,0,9,,,,,2,,,66,100
16896,note_on,,,,,512,0,14,,,,,7,,,62,100
16960,note_off,,,,,64,0,9,,,,,2,,,66,100
16992,note_on,,,,,32,0,9,,,,,2,,,71,100
17056,note_off,,,,,64,0,9,,,,,2,,,71,100
17088,note_on,,,,,32,0,9,,,,,2,,,66,100
17152,note_off,,,,,256,0,13,,,,,6,,,35,100
17152,note_off,,,,,0,0,14,,,,,7,,,66,100
17152,note_off,,,,,256,0,14,,,,,7,,,62,100
17152,note_off,,,,,256,0,12,,,,,5,,,47,100
17152,note_off,,,,,64,0,9,,,,,2,,,66,100
17152,note_off,,,,,256,0,15,,,,,7,,,47,100
17184,note_on,,,,,32,0,9,,,,,2,,,71,100
17248,note_off,,,,,64,0,9,,,,,2,,,71,100
17280,note_on,,,,,32,0,9,,,,,2,,,62,100
17344,note_off,,,,,64,0,9,,,,,2,,,62,100
17376,note_on,,,,,32,0,9,,,,,2,,,66,100
17440,note_off,,,,,64,0,9,,,,,2,,,66,100
17472,note_on,,,,,32,0,9,,,,,2,,,62,100
17536,note_off,,,,,64,0,9,,,,,2,,,62,100
17568,note_on,,,,,32,0,9,,,,,2,,,66,100
17632,note_off,,,,,64,0,9,,,,,2,,,66,100
17664,note_on,,,,,512,0,14,,,,,7,,,66,100
17664,note_on,,,,,0,0,14,,,,,7,,,62,100
17664,note_on,,,,,5888,0,10,,,,,3,,,78,100
17664,note_on,,,,,0,0,11,,,,,4,,,71,100
17664,note_on,,,,,5888,0,11,,,,,4,,,66,100
17664,note_on,,,,,512,0,12,,,,,5,,,47,100
17664,note_on,,,,,512,0,13,,,,,6,,,35,100
17664,note_on,,,,,512,0,15,,,,,7,,,47,100
17664,note_on,,,,,5824,0,8,,,,,1,,,78,100
17664,note_on,,,,,32,0,9,,,,,2,,,59,100
17664,note_on,,,,,5824,0,7,,,,,0,,,74,100
17920,note_off,,,,,256,0,10,,,,,3,,,78,100
17920,note_off,,,,,256,0,9,,,,,2,,,59,100
17920,note_off,,,,,256,0,15,,,,,7,,,47,100
17920,note_off,,,,,0,0,11,,,,,4,,,71,100
17920,note_off,,,,,256,0,12,,,,,5,,,47,100
17920,note_off,,,,,256,0,7,,,,,0,,,74,100
17920,note_off,,,,,256,0,8,,,,,1,,,78,100
17920,note_off,,,,,256,0,11,,,,,4,,,66,100
17920,note_off,,,,,0,0,14,,,,,7,,,62,100
17920,note_off,,,,,256,0,13,,,,,6,,,35,100
17920,note_off,,,,,256,0,14,,,,,7,,,66,100
18048,program_change,,,,,128,0,9,,,,,2,48,,,
18240,note_on,,,,,320,0,13,,,,,6,,,47,100
18240,note_on,,,,,320,0,10,,,,,3,,,78,100
18240,note_on,,,,,320,0,12,,,,,5,,,59,100
18240,note_on,,,,,320,0,8,,,,,1,,,78,100
18240,note_on,,,,,320,0,15,,,,,7,,,59,100
18240,note_on,,,,,320,0,14,,,,,7,,,66,100
18240,note_on,,,,,192,0,9,,,,,2,,,71,100
18240,note_on,,,,,0,0,11,,,,,4,,,71,100
18240,note_on,,,,,320,0,7,,,,,0,,,74,100
18240,note_on,,,,,320,0,11,,,,,4,,,62,100
18240,note_on,,,,,0,0,14,,,,,7,,,74,100
18368,note_off,,,,,128,0,10,,,,,3,,,78,100
18368,note_off,,,,,128,0,13,,,,,6,,,47,100
18368,note_off,,,,,128,0,9,,,,,2,,,71,100
18368,note_off,,,,,128,0,12,,,,,5,,,59,100
18368,note_off,,,,,128,0,14,,,,,7,,,66,100
18368,note_off,,,,,128,0,8,,,,,1,,,78,100
18368,note_off,,,,,0,0,14,,,,,7,,,74,100
18368,note_off,,,,,128,0,11,,,,,4,,,62,100
18368,note_off,,,,,128,0,7,,,,,0,,,74,100
18368,note_off,,,,,0,0,11,,,,,4,,,71,100
18368,note_off,,,,,128,0,15,,,,,7,,,59,100
18432,note_on,,,,,64,0,9,,,,,2,,,78,100
18432,note_on,,,,,64,0,11,,,,,4,,,59,100
18432,note_on,,,,,64,0,10,,,,,3,,,74,100
18432,note_on,,,,,64,0,12,,,,,5,,,47,100
18432,note_on,,,,,64,0,14,,,,,7,,,62,100
18432,note_on,,,,,64,0,15,,,,,7,,,47,100
18432,note_on,,,,,64,0,7,,,,,0,,,74,100
18432,note_on,,,,,0,0,14,,,,,7,,,66,100
18432,note_on,,,,,64,0,13,,,,,6,,,35,100
18432,note_on,,,,,0,0,11,,,,,4,,,71,100
18432,note_on,,,,,64,0,8,,,,,1,,,78,100
18496,note_off,,,,,64,0,7,,,,,0,,,74,100
18524,note_off,,,,,92,0,9,,,,,2,,,78,100
18528,note_on,,,,,32,0,7,,,,,0,,,71,100
18528,note_on,,,,,4,0,9,,,,,2,,,76,100
18560,note_off,,,,,128,0,11,,,,,4,,,59,100
18560,note_off,,,,,128,0,8,,,,,1,,,78,100
18560,note_off,,,,,128,0,15,,,,,7,,,47,100
18560,note_off,,,,,0,0,11,,,,,4,,,71,100
18560,note_off,,,,,128,0,12,,,,,5,,,47,100
18560,note_off,,,,,128,0,14,,,,,7,,,62,100
18560,note_off,,,,,128,0,13,,,,,6,,,35,100
18560,note_off,,,,,128,0,10,,,,,3,,,74,100
18560,note_off,,,,,0,0,14,,,,,7,,,66,100
18592,note_off,,,,,64,0,9,,,,,2,,,76,100
18592,note_off,,,,,64,0,7,,,,,0,,,71,100
18624,note_on,,,,,64,0,14,,,,,7,,,74,100
18624,note_on,,,,,0,0,14,,,,,7,,,66,100
18624,note_on,,,,,64,0,8,,,,,1,,,78,100
18624,note_on,,,,,64,0,12,,,,,5,,,59,100
18624,note_on,,,,,64,0,10,,,,,3,,,71,100
18624,note_on,,,,,32,0,7,,,,,0,,,74,100
18624,note_on,,,,,0,0,11,,,,,4,,,66,100
18624,note_on,,,,,64,0,15,,,,,7,,,59,100
18624,note_on,,,,,64,0,11,,,,,4,,,62,100
18624,note_on,,,,,64,0,13,,,,,6,,,47,100
18624,note_on,,,,,32,0,9,,,,,2,,,78,100
18688,note_off,,,,,64,0,7,,,,,0,,,74,100
18720,note_on,,,,,32,0,7,,,,,0,,,78,100
18752,note_off,,,,,128,0,10,,,,,3,,,71,100
18752,note_off,,,,,128,0,13,,,,,6,,,47,100
18752,note_off,,,,,128,0,14,,,,,7,,,74,100
18752,note_off,,,,,0,0,14,,,,,7,,,66,100
18752,note_off,,,,,128,0,15,,,,,7,,,59,100
18752,note_off,,,,,128,0,9,,,,,2,,,78,100
18752,note_off,,,,,128,0,8,,,,,1,,,78,100
18752,note_off,,,,,128,0,12,,,,,5,,,59,100
18752,note_off,,,,,128,0,11,,,,,4,,,62,100
18752,note_off,,,,,0,0,11,,,,,4,,,66,100
18784,note_off,,,,,64,0,7,,,,,0,,,78,100
18816,note_on,,,,,64,0,8,,,,,1,,,78,100
18816,note_on,,,,,0,0,14,,,,,7,,,73,100
18816,note_on,,,,,64,0,12,,,,,5,,,58,100
18816,note_on,,,,,64,0,15,,,,,7,,,58,100
18816,note_on,,,,,64,0,13,,,,,6,,,46,100
18816,note_on,,,,,64,0,14,,,,,7,,,66,100
18816,note_on,,,,,64,0,11,,,,,4,,,61,100
18816,note_on,,,,,32,0,7,,,,,0,,,78,100
18908,note_off,,,,,92,0,7,,,,,0,,,78,100
18912,note_on,,,,,4,0,7,,,,,0,,,76,100
18912,note_on,,,,,160,0,9,,,,,2,,,70,100
18944,note_off,,,,,128,0,14,,,,,7,,,66,100
18944,note_off,,,,,128,0,15,,,,,7,,,58,100
18944,note_off,,,,,128,0,8,,,,,1,,,78,100
18944,note_off,,,,,0,0,14,,,,,7,,,73,100
18944,note_off,,,,,128,0,11,,,,,4,,,61,100
18944,note_off,,,,,128,0,13,,,,,6,,,46,100
18944,note_off,,,,,128,0,12,,,,,5,,,58,100
18976,note_off,,,,,64,0,7,,,,,0,,,76,100
18976,note_off,,,,,64,0,9,,,,,2,,,70,100
19008,note_on,,,,,32,0,7,,,,,0,,,78,100
19008,note_on,,,,,64,0,11,,,,,4,,,58,100
19008,note_on,,,,,64,0,8,,,,,1,,,78,100
19008,note_on,,,,,0,0,11,,,,,4,,,70,100
19008,note_on,,,,,32,0,9,,,,,2,,,73,100
19008,note_on,,,,,64,0,13,,,,,6,,,42,100
19008,note_on,,,,,64,0,12,,,,,5,,,54,100
19008,note_on,,,,,256,0,10,,,,,3,,,78,100
19008,note_on,,,,,0,0,14,,,,,7,,,73,100
19008,note_on,,,,,64,0,14,,,,,7,,,69,100
19008,note_on,,,,,64,0,15,,,,,7,,,54,100
19072,note_off,,,,,64,0,9,,,,,2,,,73,100
19104,note_on,,,,,32,0,9,,,,,2,,,78,100
19136,note_off,,,,,128,0,14,,,,,7,,,69,100
19136,note_off,,,,,128,0,12,,,,,5,,,54,100
19136,note_off,,,,,128,0,10,,,,,3,,,78,100
19136,note_off,,,,,128,0,15,,,,,7,,,54,100
19136,note_off,,,,,128,0,7,,,,,0,,,78,100
19136,note_off,,,,,128,0,8,,,,,1,,,78,100
19136,note_off,,,,,128,0,11,,,,,4,,,58,100
19136,note_off,,,,,0,0,11,,,,,4,,,70,100
19136,note_off,,,,,0,0,14,,,,,7,,,73,100
19136,note_off,,,,,128,0,13,,,,,6,,,42,100
19168,note_off,,,,,64,0,9,,,,,2,,,78,100
19200,note_on,,,,,64,0,8,,,,,1,,,83,100
19200,note_on,,,,,64,0,11,,,,,4,,,71,100
19200,note_on,,,,,64,0,10,,,,,3,,,74,100
19200,note_on,,,,,32,0,9,,,,,2,,,78,100
19292,note_off,,,,,92,0,9,,,,,2,,,78,100
19296,note_on,,,,,160,0,7,,,,,0,,,71,100
19296,note_on,,,,,4,0,9,,,,,2,,,76,100
19328,note_off,,,,,128,0,8,,,,,1,,,83,100
19328,note_off,,,,,128,0,11,,,,,4,,,71,100
19328,note_off,,,,,128,0,10,,,,,3,,,74,100
19360,note_off,,,,,64,0,9,,,,,2,,,76,100
19360,note_off,,,,,64,0,7,,,,,0,,,71,100
19392,note_on,,,,,256,0,14,,,,,7,,,74,100
19392,note_on,,,,,64,0,10,,,,,3,,,71,100
19392,note_on,,,,,256,0,15,,,,,7,,,59,100
19392,note_on,,,,,64,0,8,,,,,1,,,78,100
19392,note_on,,,,,64,0,11,,,,,4,,,62,100
19392,note_on,,,,,0,0,11,,,,,4,,,66,100
19392,note_on,,,,,256,0,13,,,,,6,,,47,100
19392,note_on,,,,,256,0,12,,,,,5,,,59,100
19392,note_on,,,,,0,0,14,,,,,7,,,66,100
19392,note_on,,,,,32,0,7,,,,,0,,,74,100
19392,note_on,,,,,32,0,9,,,,,2,,,78,100
19456,note_off,,,,,64,0,7,,,,,0,,,74,100
19488,note_on,,,,,32,0,7,,,,,0,,,78,100
19520,note_off,,,,,128,0,10,,,,,3,,,71,100
19520,note_off,,,,,128,0,15,,,,,7,,,59,100
19520,note_off,,,,,128,0,14,,,,,7,,,74,100
19520,note_off,,,,,0,0,14,,,,,7,,,66,100
19520,note_off,,,,,128,0,8,,,,,1,,,78,100
19520,note_off,,,,,128,0,11,,,,,4,,,62,100
19520,note_off,,,,,0,0,11,,,,,4,,,66,100
19520,note_off,,,,,128,0,12,,,,,5,,,59,100
19520,note_off,,,,,128,0,9,,,,,2,,,78,100
19520,note_off,,,,,128,0,13,,,,,6,,,47,100
19552,note_off,,,,,64,0,7,,,,,0,,,78,100
19584,note_on,,,,,64,0,13,,,,,6,,,46,100
19584,note_on,,,,,0,0,14,,,,,7,,,73,100
19584,note_on,,,,,64,0,14,,,,,7,,,66,100
19584,note_on,,,,,64,0,8,,,,,1,,,78,100
19584,note_on,,,,,64,0,11,,,,,4,,,61,100
19584,note_on,,,,,64,0,12,,,,,5,,,58,100
19584,note_on,,,,,64,0,15,,,,,7,,,58,100
19584,note_on,,,,,32,0,7,,,,,0,,,78,100
19676,note_off,,,,,92,0,7,,,,,0,,,78,100
19680,note_on,,,,,160,0,9,,,,,2,,,70,100
19680,note_on,,,,,4,0,7,,,,,0,,,76,100
19712,note_off,,,,,0,0,14,,,,,7,,,73,100
19712,note_off,,,,,128,0,12,,,,,5,,,58,100
19712,note_off,,,,,128,0,14,,,,,7,,,66,100
19712,note_off,,,,,128,0,13,,,,,6,,,46,100
19712,note_off,,,,,128,0,15,,,,,7,,,58,100
19712,note_off,,,,,128,0,11,,,,,4,,,61,100
19712,note_off,,,,,128,0,8,,,,,1,,,78,100
19744,note_off,,,,,64,0,9,,,,,2,,,70,100
19744,note_off,,,,,64,0,7,,,,,0,,,76,100
19776,note_on,,,,,64,0,12,,,,,5,,,54,100
19776,note_on,,,,,64,0,14,,,,,7,,,69,100
19776,note_on,,,,,0,0,11,,,,,4,,,70,100
19776,note_on,,,,,32,0,7,,,,,0,,,78,100
19776,note_on,,,,,64,0,11,,,,,4,,,58,100
19776,note_on,,,,,64,0,15,,,,,7,,,54,100
19776,note_on,,,,,64,0,8,,,,,1,,,78,100
19776,note_on,,,,,256,0,10,,,,,3,,,78,100
19776,note_on,,,,,64,0,13,,,,,6,,,42,100
19776,note_on,,,,,0,0,14,,,,,7,,,73,100
19776,note_on,,,,,32,0,9,,,,,2,,,73,100
19840,note_off,,,,,64,0,9,,,,,2,,,73,100
19872,note_on,,,,,32,0,9,,,,,2,,,78,100
19904,note_off,,,,,0,0,11,,,,,4,,,70,100
19904,note_off,,,,,128,0,7,,,,,0,,,78,100
19904,note_off,,,,,128,0,15,,,,,7,,,54,100
19904,note_off,,,,,128,0,8,,,,,1,,,78,100
19904,note_off,,,,,128,0,13,,,,,6,,,42,100
19904,note_off,,,,,128,0,10,,,,,3,,,78,100
19904,note_off,,,,,0,0,14,,,,,7,,,73,100
19904,note_off,,,,,128,0,11,,,,,4,,,58,100
19904,note_off,,,,,128,0,14,,,,,7,,,69,100
19904,note_off,,,,,128,0,12,,,,,5,,,54,100
19936,note_off,,,,,64,0,9,,,,,2,,,78,100
19968,note_on,,,,,64,0,8,,,,,1,,,83,100
19968,note_on,,,,,32,0,9,,,,,2,,,78,100
19968,note_on,,,,,64,0,10,,,,,3,,,74,100
19968,note_on,,,,,64,0,11,,,,,4,,,71,100
20060,note_off,,,,,92,0,9,,,,,2,,,78,100
20064,note_on,,,,,160,0,7,,,,,0,,,71,100
20064,note_on,,,,,4,0,9,,,,,2,,,76,100
20096,note_off,,,,,128,0,8,,,,,1,,,83,100
20096,note_off,,,,,128,0,10,,,,,3,,,74,100
20096,note_off,,,,,128,0,11,,,,,4,,,71,100
20128,note_off,,,,,64,0,9,,,,,2,,,76,100
20128,note_off,,,,,64,0,7,,,,,0,,,71,100
20160,note_on,,,,,256,0,12,,,,,5,,,59,100
20160,note_on,,,,,64,0,10,,,,,3,,,71,100
20160,note_on,,,,,256,0,14,,,,,7,,,74,100
20160,note_on,,,,,0,0,14,,,,,7,,,66,100
20160,note_on,,,,,256,0,15,,,,,7,,,59,100
20160,note_on,,,,,0,0,11,,,,,4,,,66,100
20160,note_on,,,,,64,0,8,,,,,1,,,78,100
20160,note_on,,,,,32,0,7,,,,,0,,,74,100
20160,note_on,,,,,32,0,9,,,,,2,,,78,100
20160,note_on,,,,,256,0,13,,,,,6,,,47,100
20160,note_on,,,,,64,0,11,,,,,4,,,62,100
20224,note_off,,,,,64,0,7,,,,,0,,,74,100
20256,note_on,,,,,32,0,7,,,,,0,,,78,100
20288,note_off,,,,,128,0,11,,,,,4,,,62,100
20288,note_off,,,,,0,0,11,,,,,4,,,66,100
20288,note_off,,,,,128,0,15,,,,,7,,,59,100
20288,note_off,,,,,128,0,14,,,,,7,,,74,100
20288,note_off,,,,,128,0,9,,,,,2,,,78,100
20288,note_off,,,,,128,0,10,,,,,3,,,71,100
20288,note_off,,,,,128,0,8,,,,,1,,,78,100
20288,note_off,,,,,0,0,14,,,,,7,,,66,100
20288,note_off,,,,,128,0,12,,,,,5,,,59,100
20288,note_off,,,,,128,0,13,,,,,6,,,47,100
20320,note_off,,,,,64,0,7,,,,,0,,,78,100
20352,note_on,,,,,0,0,14,,,,,7,,,73,100
20352,note_on,,,,,64,0,8,,,,,1,,,78,100
20352,note_on,,,,,64,0,14,,,,,7,,,66,100
20352,note_on,,,,,64,0,15,,,,,7,,,58,100
20352,note_on,,,,,64,0,13,,,,,6,,,46,100
20352,note_on,,,,,64,0,12,,,,,5,,,58,100
20352,note_on,,,,,64,0,11,,,,,4,,,61,100
20352,note_on,,,,,32,0,7,,,,,0,,,78,100
20444,note_off,,,,,92,0,7,,,,,0,,,78,100
20448,note_on,,,,,160,0,9,,,,,2,,,70,100
20448,note_on,,,,,4,0,7,,,,,0,,,76,100
20480,note_off,,,,,128,0,12,,,,,5,,,58,100
20480,note_off,,,,,0,0,14,,,,,7,,,73,100
20480,note_off,,,,,128,0,14,,,,,7,,,66,100
20480,note_off,,,,,128,0,11,,,,,4,,,61,100
20480,note_off,,,,,128,0,8,,,,,1,,,78,100
20480,note_off,,,,,128,0,13,,,,,6,,,46,100
20480,note_off,,,,,128,0,15,,,,,7,,,58,100
20512,note_off,,,,,64,0,7,,,,,0,,,76,100
20512,note_off,,,,,64,0,9,,,,,2,,,70,100
20544,note_on,,,,,32,0,9,,,,,2,,,73,100
20544,note_on,,,,,64,0,12,,,,,5,,,54,100
20544,note_on,,,,,32,0,7,,,,,0,,,78,100
20544,note_on,,,,,64,0,8,,,,,1,,,78,100
20544,note_on,,,,,0,0,11,,,,,4,,,70,100
20544,note_on,,,,,0,0,14,,,,,7,,,73,100
20544,note_on,,,,,64,0,14,,,,,7,,,69,100
20544,note_on,,,,,64,0,15,,,,,7,,,54,100
20544,note_on,,,,,64,0,13,,,,,6,,,42,100
20544,note_on,,,,,64,0,11,,,,,4,,,58,100
20544,note_on,,,,,256,0,10,,,,,3,,,78,100
20608,note_off,,,,,64,0,9,,,,,2,,,73,100
20640,note_on,,,,,32,0,9,,,,,2,,,78,100
20672,note_off,,,,,128,0,7,,,,,0,,,78,100
20672,note_off,,,,,128,0,15,,,,,7,,,54,100
20672,note_off,,,,,128,0,14,,,,,7,,,69,100
20672,note_off,,,,,0,0,14,,,,,7,,,73,100
20672,note_off,,,,,128,0,8,,,,,1,,,78,100
20672,note_off,,,,,128,0,12,,,,,5,,,54,100
20672,note_off,,,,,128,0,13,,,,,6,,,42,100
20672,note_off,,,,,0,0,11,,,,,4,,,70,100
20672,note_off,,,,,128,0,11,,,,,4,,,58,100
20672,note_off,,,,,128,0,10,,,,,3,,,78,100
20704,note_off,,,,,64,0,9,,,,,2,,,78,100
20736,note_on,,,,,64,0,13,,,,,6,,,35,100
20736,note_on,,,,,64,0,12,,,,,5,,,47,100
20736,note_on,,,,,64,0,8,,,,,1,,,78,100
20736,note_on,,,,,64,0,15,,,,,7,,,47,100
20736,note_on,,,,,64,0,10,,,,,3,,,74,100
20736,note_on,,,,,0,0,11,,,,,4,,,71,100
20736,note_on,,,,,64,0,14,,,,,7,,,74,100
20736,note_on,,,,,32,0,9,,,,,2,,,78,100
20736,note_on,,,,,0,0,14,,,,,7,,,66,100
20736,note_on,,,,,64,0,11,,,,,4,,,54,100
20780,note_off,,,,,44,0,8,,,,,1,,,78,100
20780,note_off,,,,,44,0,10,,,,,3,,,74,100
20784,note_on,,,,,4,0,8,,,,,1,,,79,100
20784,note_on,,,,,4,0,10,,,,,3,,,76,100
20828,note_off,,,,,44,0,10,,,,,3,,,76,100
20828,note_off,,,,,92,0,9,,,,,2,,,78,100
20828,note_off,,,,,44,0,8,,,,,1,,,79,100
20832,note_on,,,,,4,0,10,,,,,3,,,74,100
20832,note_on,,,,,4,0,9,,,,,2,,,76,100
20832,note_on,,,,,4,0,8,,,,,1,,,78,100
20864,note_off,,,,,128,0,11,,,,,4,,,54,100
20864,note_off,,,,,0,0,11,,,,,4,,,71,100
20896,note_off,,,,,64,0,9,,,,,2,,,76,100
20896,note_off,,,,,64,0,10,,,,,3,,,74,100
20896,note_off,,,,,64,0,8,,,,,1,,,78,100
20928,note_on,,,,,32,0,8,,,,,1,,,74,100
20928,note_on,,,,,32,0,9,,,,,2,,,78,100
20928,note_on,,,,,256,0,7,,,,,0,,,78,100
20928,note_on,,,,,32,0,10,,,,,3,,,71,100
20928,note_on,,,,,64,0,11,,,,,4,,,62,100
20928,note_on,,,,,0,0,11,,,,,4,,,66,100
20992,note_off,,,,,256,0,12,,,,,5,,,47,100
20992,note_off,,,,,0,0,14,,,,,7,,,66,100
20992,note_off,,,,,256,0,14,,,,,7,,,74,100
20992,note_off,,,,,256,0,15,,,,,7,,,47,100
20992,note_off,,,,,64,0,8,,,,,1,,,74,100
20992,note_off,,,,,64,0,10,,,,,3,,,71,100
20992,note_off,,,,,256,0,13,,,,,6,,,35,100
21024,note_on,,,,,32,0,8,,,,,1,,,76,100
21024,note_on,,,,,32,0,10,,,,,3,,,73,100
21056,note_off,,,,,128,0,7,,,,,0,,,78,100
21056,note_off,,,,,128,0,11,,,,,4,,,62,100
21056,note_off,,,,,0,0,11,,,,,4,,,66,100
21056,note_off,,,,,128,0,9,,,,,2,,,78,100
21088,note_off,,,,,64,0,10,,,,,3,,,73,100
21088,note_off,,,,,64,0,8,,,,,1,,,76,100
21120,note_on,,,,,32,0,10,,,,,3,,,74,100
21120,note_on,,,,,64,0,7,,,,,0,,,83,100
21120,note_on,,,,,64,0,11,,,,,4,,,59,100
21120,note_on,,,,,0,0,11,,,,,4,,,62,100
21120,note_on,,,,,32,0,8,,,,,1,,,78,100
21248,note_off,,,,,128,0,8,,,,,1,,,78,100
21248,note_off,,,,,128,0,11,,,,,4,,,62,100
21248,note_off,,,,,128,0,10,,,,,3,,,74,100
21312,note_on,,,,,256,0,9,,,,,2,,,78,100
21312,note_on,,,,,64,0,8,,,,,1,,,78,100
21312,note_on,,,,,64,0,10,,,,,3,,,74,100
21312,note_on,,,,,64,0,11,,,,,4,,,59,100
21376,note_off,,,,,64,0,11,,,,,4,,,59,100
21376,note_off,,,,,256,0,7,,,,,0,,,83,100
21440,note_off,,,,,64,0,11,,,,,4,,,59,100
21440,note_off,,,,,128,0,8,,,,,1,,,78,100
21440,note_off,,,,,128,0,9,,,,,2,,,78,100
21440,note_off,,,,,128,0,10,,,,,3,,,74,100
21504,note_on,,,,,64,0,8,,,,,1,,,78,100
21504,note_on,,,,,64,0,10,,,,,3,,,74,100
21504,note_on,,,,,512,0,15,,,,,7,,,47,100
21504,note_on,,,,,64,0,9,,,,,2,,,83,100
21504,note_on,,,,,512,0,14,,,,,7,,,62,100
21504,note_on,,,,,0,0,14,,,,,7,,,66,100
21504,note_on,,,,,512,0,12,,,,,5,,,47,100
21504,note_on,,,,,512,0,13,,,,,6,,,35,100
21548,note_off,,,,,44,0,10,,,,,3,,,74,100
21548,note_off,,,,,44,0,8,,,,,1,,,78,100
21552,note_on,,,,,4,0,8,,,,,1,,,79,100
21552,note_on,,,,,4,0,10,,,,,3,,,76,100
21596,note_off,,,,,44,0,8,,,,,1,,,79,100
21596,note_off,,,,,44,0,10,,,,,3,,,76,100
21600,note_on,,,,,4,0,10,,,,,3,,,74,100
21600,note_on,,,,,4,0,8,,,,,1,,,78,100
21664,note_off,,,,,64,0,8,,,,,1,,,78,100
21664,note_off,,,,,64,0,10,,,,,3,,,74,100
21696,note_on,,,,,32,0,8,,,,,1,,,74,100
21696,note_on,,,,,32,0,10,,,,,3,,,71,100
21696,note_on,,,,,256,0,11,,,,,4,,,62,100
21696,note_on,,,,,320,0,7,,,,,0,,,78,100
21696,note_on,,,,,0,0,11,,,,,4,,,66,100
21760,note_off,,,,,256,0,14,,,,,7,,,62,100
21760,note_off,,,,,256,0,15,,,,,7,,,47,100
21760,note_off,,,,,0,0,14,,,,,7,,,66,100
21760,note_off,,,,,256,0,12,,,,,5,,,47,100
21760,note_off,,,,,256,0,9,,,,,2,,,83,100
21760,note_off,,,,,256,0,13,,,,,6,,,35,100
21760,note_off,,,,,64,0,8,,,,,1,,,74,100
21760,note_off,,,,,64,0,10,,,,,3,,,71,100
21792,note_on,,,,,32,0,10,,,,,3,,,73,100
21792,note_on,,,,,32,0,8,,,,,1,,,76,100
21824,note_off,,,,,128,0,7,,,,,0,,,78,100
21824,note_off,,,,,0,0,11,,,,,4,,,66,100
21824,note_off,,,,,128,0,11,,,,,4,,,62,100
21856,note_off,,,,,64,0,8,,,,,1,,,76,100
21856,note_off,,,,,64,0,10,,,,,3,,,73,100
21888,note_on,,,,,32,0,8,,,,,1,,,78,100
21888,note_on,,,,,32,0,10,,,,,3,,,74,100
21888,note_on,,,,,64,0,11,,,,,4,,,59,100
21888,note_on,,,,,0,0,11,,,,,4,,,62,100
21888,note_on,,,,,64,0,7,,,,,0,,,83,100
22016,note_off,,,,,128,0,11,,,,,4,,,62,100
22016,note_off,,,,,128,0,10,,,,,3,,,74,100
22016,note_off,,,,,128,0,8,,,,,1,,,78,100
22080,note_on,,,,,320,0,9,,,,,2,,,78,100
22080,note_on,,,,,64,0,10,,,,,3,,,74,100
22080,note_on,,,,,64,0,8,,,,,1,,,78,100
22080,note_on,,,,,64,0,11,,,,,4,,,59,100
22144,note_off,,,,,64,0,11,,,,,4,,,59,100
22144,note_off,,,,,256,0,7,,,,,0,,,83,100
22208,note_off,,,,,128,0,8,,,,,1,,,78,100
22208,note_off,,,,,64,0,11,,,,,4,,,59,100
22208,note_off,,,,,128,0,9,,,,,2,,,78,100
22208,note_off,,,,,128,0,10,,,,,3,,,74,100
22272,note_on,,,,,512,0,14,,,,,7,,,62,100
22272,note_on,,,,,0,0,14,,,,,7,,,66,100
22272,note_on,,,,,512,0,13,,,,,6,,,35,100
22272,note_on,,,,,64,0,8,,,,,1,,,78,100
22272,note_on,,,,,512,0,15,,,,,7,,,47,100
22272,note_on,,,,,64,0,9,,,,,2,,,83,100
22272,note_on,,,,,512,0,12,,,,,5,,,47,100
22272,note_on,,,,,64,0,10,,,,,3,,,74,100
22316,note_off,,,,,44,0,8,,,,,1,,,78,100
22316,note_off,,,,,44,0,10,,,,,3,,,74,100
22320,note_on,,,,,4,0,10,,,,,3,,,76,100
22320,note_on,,,,,4,0,8,,,,,1,,,79,100
22364,note_off,,,,,44,0,10,,,,,3,,,76,100
22364,note_off,,,,,44,0,8,,,,,1,,,79,100
22368,note_on,,,,,4,0,10,,,,,3,,,74,100
22368,note_on,,,,,4,0,8,,,,,1,,,78,100
22432,note_off,,,,,64,0,8,,,,,1,,,78,100
22432,note_off,,,,,64,0,10,,,,,3,,,74,100
22464,note_on,,,,,32,0,10,,,,,3,,,74,100
22464,note_on,,,,,320,0,7,,,,,0,,,78,100
22464,note_on,,,,,32,0,8,,,,,1,,,78,100
22464,note_on,,,,,0,0,11,,,,,4,,,66,100
22464,note_on,,,,,256,0,11,,,,,4,,,62,100
22528,note_off,,,,,256,0,9,,,,,2,,,83,100
22528,note_off,,,,,0,0,14,,,,,7,,,66,100
22528,note_off,,,,,256,0,14,,,,,7,,,62,100
22528,note_off,,,,,256,0,15,,,,,7,,,47,100
22528,note_off,,,,,256,0,12,,,,,5,,,47,100
22528,note_off,,,,,256,0,13,,,,,6,,,35,100
22592,note_off,,,,,128,0,10,,,,,3,,,74,100
22592,note_off,,,,,0,0,11,,,,,4,,,66,100
22592,note_off,,,,,128,0,11,,,,,4,,,62,100
22592,note_off,,,,,128,0,7,,,,,0,,,78,100
22592,note_off,,,,,128,0,8,,,,,1,,,78,100
22656,note_on,,,,,64,0,8,,,,,1,,,78,100
22656,note_on,,,,,64,0,11,,,,,4,,,59,100
22656,note_on,,,,,0,0,11,,,,,4,,,62,100
22656,note_on,,,,,64,0,7,,,,,0,,,83,100
22656,note_on,,,,,64,0,10,,,,,3,,,74,100
22720,note_off,,,,,64,0,7,,,,,0,,,83,100
22752,note_on,,,,,224,0,9,,,,,2,,,71,100
22752,note_on,,,,,32,0,7,,,,,0,,,74,100
22784,note_off,,,,,128,0,8,,,,,1,,,78,100
22784,note_off,,,,,128,0,11,,,,,4,,,59,100
22784,note_off,,,,,0,0,11,,,,,4,,,62,100
22784,note_off,,,,,128,0,10,,,,,3,,,74,100
22816,note_off,,,,,64,0,9,,,,,2,,,71,100
22816,note_off,,,,,64,0,7,,,,,0,,,74,100
22848,note_on,,,,,32,0,9,,,,,2,,,73,100
22848,note_on,,,,,320,0,15,,,,,7,,,47,100
22848,note_on,,,,,64,0,11,,,,,4,,,59,100
22848,note_on,,,,,320,0,12,,,,,5,,,47,100
22848,note_on,,,,,320,0,13,,,,,6,,,35,100
22848,note_on,,,,,0,0,11,,,,,4,,,62,100
22848,note_on,,,,,32,0,7,,,,,0,,,76,100
22848,note_on,,,,,0,0,14,,,,,7,,,66,100
22848,note_on,,,,,320,0,14,,,,,7,,,62,100
22848,note_on,,,,,64,0,8,,,,,1,,,76,100
22848,note_on,,,,,64,0,10,,,,,3,,,73,100
22912,note_off,,,,,64,0,9,,,,,2,,,73,100
22912,note_off,,,,,64,0,8,,,,,1,,,76,100
22912,note_off,,,,,64,0,7,,,,,0,,,76,100
22912,note_off,,,,,64,0,10,,,,,3,,,73,100
22944,note_on,,,,,32,0,8,,,,,1,,,74,100
22944,note_on,,,,,32,0,9,,,,,2,,,74,100
22944,note_on,,,,,32,0,7,,,,,0,,,78,100
22944,note_on,,,,,32,0,10,,,,,3,,,71,100
22976,note_off,,,,,0,0,14,,,,,7,,,66,100
22976,note_off,,,,,128,0,12,,,,,5,,,47,100
22976,note_off,,,,,128,0,13,,,,,6,,,35,100
22976,note_off,,,,,128,0,15,,,,,7,,,47,100
22976,note_off,,,,,128,0,11,,,,,4,,,59,100
22976,note_off,,,,,128,0,14,,,,,7,,,62,100
22976,note_off,,,,,0,0,11,,,,,4,,,62,100
23008,note_off,,,,,64,0,10,,,,,3,,,71,100
23008,note_off,,,,,64,0,7,,,,,0,,,78,100
23008,note_off,,,,,64,0,9,,,,,2,,,74,100
23008,note_off,,,,,64,0,8,,,,,1,,,74,100
23040,note_on,,,,,64,0,15,,,,,7,,,54,100
23040,note_on,,,,,64,0,13,,,,,6,,,42,100
23040,note_on,,,,,0,0,11,,,,,4,,,66,100
23040,note_on,,,,,64,0,11,,,,,4,,,61,100
23040,note_on,,,,,64,0,12,,,,,5,,,54,100
23040,note_on,,,,,32,0,8,,,,,1,,,73,100
23040,note_on,,,,,0,0,14,,,,,7,,,70,100
23040,note_on,,,,,64,0,14,,,,,7,,,73,100
23040,note_on,,,,,32,0,7,,,,,0,,,73,100
23040,note_on,,,,,32,0,10,,,,,3,,,70,100
23040,note_on,,,,,32,0,9,,,,,2,,,70,100
23168,note_off,,,,,128,0,7,,,,,0,,,73,100
23168,note_off,,,,,128,0,13,,,,,6,,,42,100
23168,note_off,,,,,128,0,14,,,,,7,,,73,100
23168,note_off,,,,,128,0,12,,,,,5,,,54,100
23168,note_off,,,,,128,0,8,,,,,1,,,73,100
23168,note_off,,,,,128,0,15,,,,,7,,,54,100
23168,note_off,,,,,0,0,14,,,,,7,,,70,100
23232,note_on,,,,,64,0,14,,,,,7,,,74,100
23232,note_on,,,,,64,0,15,,,,,7,,,56,100
23232,note_on,,,,,0,0,14,,,,,7,,,71,100
23232,note_on,,,,,64,0,12,,,,,5,,,56,100
23232,note_on,,,,,64,0,8,,,,,1,,,66,100
23232,note_on,,,,,64,0,13,,,,,6,,,44,100
23232,note_on,,,,,64,0,7,,,,,0,,,66,100
23296,note_off,,,,,256,0,11,,,,,4,,,61,100
23296,note_off,,,,,256,0,9,,,,,2,,,70,100
23296,note_off,,,,,0,0,11,,,,,4,,,66,100
23296,note_off,,,,,256,0,10,,,,,3,,,70,100
23360,note_off,,,,,0,0,14,,,,,7,,,71,100
23360,note_off,,,,,128,0,13,,,,,6,,,44,100
23360,note_off,,,,,128,0,15,,,,,7,,,56,100
23360,note_off,,,,,128,0,14,,,,,7,,,74,100
23360,note_off,,,,,128,0,7,,,,,0,,,66,100
23360,note_off,,,,,128,0,12,,,,,5,,,56,100
23360,note_off,,,,,128,0,8,,,,,1,,,66,100
23424,note_on,,,,,64,0,14,,,,,7,,,76,100
23424,note_on,,,,,64,0,13,,,,,6,,,46,100
23424,note_on,,,,,64,0,12,,,,,5,,,58,100
23424,note_on,,,,,0,0,14,,,,,7,,,73,100
23424,program_change,,,,,128,0,10,,,,,3,40,,,
23424,note_on,,,,,64,0,15,,,,,7,,,58,100
23520,note_on,,,,,96,0,10,,,,,3,,,73,100
23552,note_off,,,,,128,0,15,,,,,7,,,58,100
23552,note_off,,,,,128,0,13,,,,,6,,,46,100
23552,note_off,,,,,0,0,14,,,,,7,,,73,100
23552,note_off,,,,,128,0,14,,,,,7,,,76,100
23552,note_off,,,,,128,0,12,,,,,5,,,58,100
23584,note_off,,,,,64,0,10,,,,,3,,,73,100
23616,note_on,,,,,0,0,14,,,,,7,,,76,100
23616,note_on,,,,,64,0,14,,,,,7,,,70,100
23616,note_on,,,,,64,0,12,,,,,5,,,54,100
23616,note_on,,,,,64,0,13,,,,,6,,,42,100
23616,note_on,,,,,32,0,10,,,,,3,,,74,100
23616,note_on,,,,,64,0,15,,,,,7,,,54,100
23680,note_off,,,,,64,0,10,,,,,3,,,74,100
23712,note_on,,,,,32,0,10,,,,,3,,,76,100
23744,note_off,,,,,128,0,14,,,,,7,,,70,100
23744,note_off,,,,,128,0,13,,,,,6,,,42,100
23744,note_off,,,,,128,0,15,,,,,7,,,54,100
23744,note_off,,,,,128,0,12,,,,,5,,,54,100
23744,note_off,,,,,0,0,14,,,,,7,,,76,100
23776,note_off,,,,,64,0,10,,,,,3,,,76,100
23808,note_on,,,,,64,0,15,,,,,7,,,47,100
23808,note_on,,,,,64,0,12,,,,,5,,,47,100
23808,note_on,,,,,32,0,10,,,,,3,,,74,100
23808,note_on,,,,,64,0,14,,,,,7,,,66,100
23808,note_on,,,,,0,0,14,,,,,7,,,74,100
23808,note_on,,,,,64,0,13,,,,,6,,,35,100
23900,note_off,,,,,92,0,10,,,,,3,,,74,100
23904,note_on,,,,,4,0,10,,,,,3,,,73,100
23936,note_off,,,,,128,0,12,,,,,5,,,47,100
23996,note_off,,,,,92,0,10,,,,,3,,,73,100
24000,note_on,,,,,64,0,12,,,,,5,,,59,85
24000,note_on,,,,,4,0,10,,,,,3,,,71,100
24064,note_off,,,,,64,0,10,,,,,3,,,71,100
24064,note_off,,,,,256,0,15,,,,,7,,,47,100
24064,note_off,,,,,0,0,14,,,,,7,,,74,100
24064,note_off,,,,,256,0,14,,,,,7,,,66,100
24064,note_off,,,,,256,0,13,,,,,6,,,35,100
24096,note_on,,,,,32,0,10,,,,,3,,,74,100
24128,note_off,,,,,128,0,12,,,,,5,,,59,100
24160,note_off,,,,,64,0,10,,,,,3,,,74,100
24192,note_on,,,,,64,0,12,,,,,5,,,58,85
24192,note_on,,,,,32,0,10,,,,,3,,,78,100
24256,note_off,,,,,64,0,10,,,,,3,,,78,100
24288,note_on,,,,,32,0,10,,,,,3,,,73,100
24320,note_off,,,,,128,0,12,,,,,5,,,58,100
24352,note_off,,,,,64,0,10,,,,,3,,,73,100
24384,note_on,,,,,32,0,10,,,,,3,,,74,100
24384,note_on,,,,,64,0,12,,,,,5,,,54,85
24384,note_on,,,,,0,0,14,,,,,7,,,70,100
24384,note_on,,,,,320,0,15,,,,,7,,,54,100
24384,note_on,,,,,320,0,13,,,,,6,,,42,85
24384,note_on,,,,,320,0,14,,,,,7,,,76,100
24448,note_off,,,,,64,0,10,,,,,3,,,74,100
24480,note_on,,,,,32,0,10,,,,,3,,,76,100
24512,note_off,,,,,128,0,15,,,,,7,,,54,100
24512,note_off,,,,,128,0,13,,,,,6,,,42,100
24512,note_off,,,,,0,0,14,,,,,7,,,70,100
24512,note_off,,,,,128,0,14,,,,,7,,,76,100
24512,note_off,,,,,128,0,12,,,,,5,,,54,100
24544,note_off,,,,,64,0,10,,,,,3,,,76,100
24576,note_on,,,,,64,0,13,,,,,6,,,35,85
24576,note_on,,,,,64,0,12,,,,,5,,,47,85
24576,note_on,,,,,64,0,14,,,,,7,,,66,100
24576,note_on,,,,,0,0,14,,,,,7,,,74,100
24576,note_on,,,,,64,0,15,,,,,7,,,47,100
24576,note_on,,,,,32,0,10,,,,,3,,,74,100
24668,note_off,,,,,92,0,10,,,,,3,,,74,100
24672,note_on,,,,,4,0,10,,,,,3,,,73,90
24704,note_off,,,,,128,0,12,,,,,5,,,47,100
24764,note_off,,,,,92,0,10,,,,,3,,,73,100
24768,note_on,,,,,4,0,10,,,,,3,,,71,90
24768,note_on,,,,,64,0,12,,,,,5,,,59,85
24832,note_off,,,,,256,0,14,,,,,7,,,66,100
24832,note_off,,,,,0,0,14,,,,,7,,,74,100
24832,note_off,,,,,64,0,10,,,,,3,,,71,100
24832,note_off,,,,,256,0,15,,,,,7,,,47,100
24832,note_off,,,,,256,0,13,,,,,6,,,35,100
24864,note_on,,,,,32,0,10,,,,,3,,,74,90
24896,note_off,,,,,128,0,12,,,,,5,,,59,100
24928,note_off,,,,,64,0,10,,,,,3,,,74,100
24960,note_on,,,,,64,0,12,,,,,5,,,58,85
24960,note_on,,,,,32,0,10,,,,,3,,,78,90
25024,note_off,,,,,64,0,10,,,,,3,,,78,100
25056,note_on,,,,,32,0,10,,,,,3,,,73,90
25088,note_off,,,,,128,0,12,,,,,5,,,58,100
25120,note_off,,,,,64,0,10,,,,,3,,,73,100
25152,note_on,,,,,320,0,14,,,,,7,,,70,100
25152,note_on,,,,,320,0,13,,,,,6,,,42,85
25152,note_on,,,,,64,0,12,,,,,5,,,54,85
25152,note_on,,,,,320,0,15,,,,,7,,,54,100
25152,note_on,,,,,0,0,14,,,,,7,,,76,100
25152,note_on,,,,,32,0,10,,,,,3,,,74,90
25216,note_off,,,,,64,0,10,,,,,3,,,74,100
25248,note_on,,,,,32,0,10,,,,,3,,,76,90
25280,note_off,,,,,128,0,14,,,,,7,,,70,100
25280,note_off,,,,,128,0,12,,,,,5,,,54,100
25280,note_off,,,,,128,0,13,,,,,6,,,42,100
25280,note_off,,,,,128,0,15,,,,,7,,,54,100
25280,note_off,,,,,0,0,14,,,,,7,,,76,100
25312,note_off,,,,,64,0,10,,,,,3,,,76,100
25344,note_on,,,,,64,0,12,,,,,5,,,47,85
25344,note_on,,,,,0,0,14,,,,,7,,,74,100
25344,note_on,,,,,64,0,15,,,,,7,,,47,100
25344,note_on,,,,,32,0,10,,,,,3,,,74,90
25344,note_on,,,,,64,0,13,,,,,6,,,35,85
25344,note_on,,,,,64,0,14,,,,,7,,,66,100
25436,note_off,,,,,92,0,10,,,,,3,,,74,100
25440,note_on,,,,,4,0,10,,,,,3,,,73,105
25472,note_off,,,,,128,0,12,,,,,5,,,47,100
25532,note_off,,,,,92,0,10,,,,,3,,,73,100
25536,note_on,,,,,4,0,10,,,,,3,,,71,105
25536,note_on,,,,,64,0,12,,,,,5,,,59,85
25600,note_off,,,,,256,0,13,,,,,6,,,35,100
25600,note_off,,,,,0,0,14,,,,,7,,,74,100
25600,note_off,,,,,256,0,15,,,,,7,,,47,100
25600,note_off,,,,,256,0,14,,,,,7,,,66,100
25600,note_off,,,,,64,0,10,,,,,3,,,71,100
25632,note_on,,,,,32,0,10,,,,,3,,,74,104
25664,note_off,,,,,128,0,12,,,,,5,,,59,100
25696,note_off,,,,,64,0,10,,,,,3,,,74,100
25728,note_on,,,,,32,0,10,,,,,3,,,78,103
25728,note_on,,,,,64,0,12,,,,,5,,,58,85
25792,note_off,,,,,64,0,10,,,,,3,,,78,100
25824,note_on,,,,,32,0,10,,,,,3,,,73,103
25856,note_off,,,,,128,0,12,,,,,5,,,58,100
25888,note_off,,,,,64,0,10,,,,,3,,,73,100
25920,note_on,,,,,320,0,14,,,,,7,,,70,100
25920,note_on,,,,,64,0,12,,,,,5,,,54,85
25920,note_on,,,,,32,0,10,,,,,3,,,74,102
25920,note_on,,,,,320,0,13,,,,,6,,,42,85
25920,note_on,,,,,320,0,15,,,,,7,,,54,100
25920,note_on,,,,,0,0,14,,,,,7,,,76,100
25984,note_off,,,,,64,0,10,,,,,3,,,74,100
26016,note_on,,,,,32,0,10,,,,,3,,,76,101
26048,note_off,,,,,128,0,14,,,,,7,,,70,100
26048,note_off,,,,,128,0,13,,,,,6,,,42,100
26048,note_off,,,,,128,0,12,,,,,5,,,54,100
26048,note_off,,,,,0,0,14,,,,,7,,,76,100
26048,note_off,,,,,128,0,15,,,,,7,,,54,100
26080,note_off,,,,,64,0,10,,,,,3,,,76,100
26112,note_on,,,,,64,0,12,,,,,5,,,47,85
26112,note_on,,,,,32,0,10,,,,,3,,,74,101
26112,note_on,,,,,0,0,14,,,,,7,,,74,100
26112,note_on,,,,,64,0,14,,,,,7,,,66,100
26112,note_on,,,,,64,0,15,,,,,7,,,47,100
26112,note_on,,,,,64,0,13,,,,,6,,,35,85
26176,note_off,,,,,64,0,10,,,,,3,,,74,100
26208,note_on,,,,,32,0,10,,,,,3,,,71,100
26240,note_off,,,,,128,0,12,,,,,5,,,47,100
26272,note_off,,,,,64,0,10,,,,,3,,,71,100
26304,note_on,,,,,64,0,12,,,,,5,,,59,85
26304,note_on,,,,,32,0,10,,,,,3,,,74,100
26368,note_off,,,,,256,0,13,,,,,6,,,35,100
26368,note_off,,,,,0,0,14,,,,,7,,,74,100
26368,note_off,,,,,256,0,14,,,,,7,,,66,100
26368,note_off,,,,,64,0,10,,,,,3,,,74,100
26368,note_off,,,,,256,0,15,,,,,7,,,47,100
26400,note_on,,,,,32,0,10,,,,,3,,,78,100
26432,note_off,,,,,128,0,12,,,,,5,,,59,100
26464,note_off,,,,,64,0,10,,,,,3,,,78,100
26496,note_on,,,,,32,0,10,,,,,3,,,83,100
26496,note_on,,,,,64,0,12,,,,,5,,,62,85
26560,note_off,,,,,64,0,10,,,,,3,,,83,100
26592,note_on,,,,,32,0,10,,,,,3,,,71,90
26624,note_off,,,,,128,0,12,,,,,5,,,62,100
26656,note_off,,,,,64,0,10,,,,,3,,,71,100
26688,note_on,,,,,32,0,10,,,,,3,,,74,90
26688,note_on,,,,,64,0,12,,,,,5,,,59,85
26752,note_off,,,,,64,0,10,,,,,3,,,74,100
26784,note_on,,,,,32,0,10,,,,,3,,,78,90
26816,note_off,,,,,128,0,12,,,,,5,,,59,100
26848,note_off,,,,,64,0,10,,,,,3,,,78,100
26880,note_on,,,,,32,0,10,,,,,3,,,83,90
26880,note_on,,,,,512,0,14,,,,,7,,,62,100
26880,note_on,,,,,512,0,15,,,,,7,,,47,100
26880,note_on,,,,,512,0,13,,,,,6,,,35,85
26880,note_on,,,,,0,0,14,,,,,7,,,66,100
26880,note_on,,,,,64,0,12,,,,,5,,,47,85
26944,note_off,,,,,64,0,10,,,,,3,,,83,100
26976,note_on,,,,,32,0,10,,,,,3,,,71,100
27008,note_off,,,,,128,0,12,,,,,5,,,47,100
27040,note_off,,,,,64,0,10,,,,,3,,,71,100
27072,note_on,,,,,64,0,12,,,,,5,,,59,85
27072,note_on,,,,,32,0,10,,,,,3,,,74,100
27136,note_off,,,,,64,0,10,,,,,3,,,74,100
27136,note_off,,,,,256,0,14,,,,,7,,,62,100
27136,note_off,,,,,256,0,13,,,,,6,,,35,100
27136,note_off,,,,,256,0,15,,,,,7,,,47,100
27136,note_off,,,,,0,0,14,,,,,7,,,66,100
27168,note_on,,,,,32,0,10,,,,,3,,,78,100
27200,note_off,,,,,128,0,12,,,,,5,,,59,100
27232,note_off,,,,,64,0,10,,,,,3,,,78,100
27264,note_on,,,,,64,0,12,,,,,5,,,62,85
27264,note_on,,,,,32,0,10,,,,,3,,,83,100
27356,note_off,,,,,92,0,10,,,,,3,,,83,100
27360,note_on,,,,,4,0,10,,,,,3,,,81,100
27392,note_off,,,,,128,0,12,,,,,5,,,62,100
27452,note_off,,,,,92,0,10,,,,,3,,,81,100
27456,note_on,,,,,4,0,10,,,,,3,,,79,100
27456,note_on,,,,,64,0,12,,,,,5,,,59,85
27520,note_off,,,,,64,0,10,,,,,3,,,79,100
27552,note_on,,,,,32,0,10,,,,,3,,,78,100
27584,note_off,,,,,128,0,12,,,,,5,,,59,100
27616,note_off,,,,,64,0,10,,,,,3,,,78,100
27648,note_on,,,,,32,0,10,,,,,3,,,79,100
27648,note_on,,,,,512,0,13,,,,,6,,,40,85
27648,note_on,,,,,64,0,12,,,,,5,,,52,85
27648,note_on,,,,,0,0,14,,,,,7,,,71,100
27648,note_on,,,,,512,0,14,,,,,7,,,67,100
27648,note_on,,,,,512,0,15,,,,,7,,,52,100
27712,note_off,,,,,64,0,10,,,,,3,,,79,100
27744,note_on,,,,,32,0,10,,,,,3,,,76,99
27776,note_off,,,,,128,0,12,,,,,5,,,52,100
27808,note_off,,,,,64,0,10,,,,,3,,,76,100
27840,note_on,,,,,64,0,12,,,,,5,,,64,85
27840,note_on,,,,,32,0,10,,,,,3,,,74,97
27904,note_off,,,,,256,0,15,,,,,7,,,52,100
27904,note_off,,,,,64,0,10,,,,,3,,,74,100
27904,note_off,,,,,256,0,14,,,,,7,,,67,100
27904,note_off,,,,,0,0,14,,,,,7,,,71,100
27904,note_off,,,,,256,0,13,,,,,6,,,40,100
27936,note_on,,,,,32,0,10,,,,,3,,,76,95
27968,note_off,,,,,128,0,12,,,,,5,,,64,100
28000,note_off,,,,,64,0,10,,,,,3,,,76,100
28032,note_on,,,,,32,0,10,,,,,3,,,81,93
28032,note_on,,,,,64,0,12,,,,,5,,,61,85
28124,note_off,,,,,92,0,10,,,,,3,,,81,100
28128,note_on,,,,,4,0,10,,,,,3,,,79,91
28160,note_off,,,,,128,0,12,,,,,5,,,61,100
28220,note_off,,,,,92,0,10,,,,,3,,,79,100
28224,note_on,,,,,320,0,13,,,,,6,,,45,85
28224,note_on,,,,,64,0,12,,,,,5,,,57,85
28224,note_on,,,,,4,0,10,,,,,3,,,78,90
28224,note_on,,,,,0,0,14,,,,,7,,,73,100
28224,note_on,,,,,320,0,14,,,,,7,,,76,100
28224,note_on,,,,,320,0,15,,,,,7,,,57,100
28288,note_off,,,,,64,0,10,,,,,3,,,78,100
28320,note_on,,,,,32,0,10,,,,,3,,,76,91
28352,note_off,,,,,128,0,13,,,,,6,,,45,100
28352,note_off,,,,,128,0,12,,,,,5,,,57,100
28352,note_off,,,,,128,0,15,,,,,7,,,57,100
28352,note_off,,,,,128,0,14,,,,,7,,,76,100
28352,note_off,,,,,0,0,14,,,,,7,,,73,100
28384,note_off,,,,,64,0,10,,,,,3,,,76,100
28416,note_on,,,,,0,0,14,,,,,7,,,73,100
28416,note_on,,,,,64,0,13,,,,,6,,,38,85
28416,note_on,,,,,64,0,15,,,,,7,,,50,100
28416,note_on,,,,,64,0,14,,,,,7,,,69,100
28416,note_on,,,,,64,0,12,,,,,5,,,50,85
28416,note_on,,,,,32,0,10,,,,,3,,,78,93
28480,note_off,,,,,64,0,10,,,,,3,,,78,100
28512,note_on,,,,,32,0,10,,,,,3,,,74,95
28544,note_off,,,,,128,0,12,,,,,5,,,50,100
28576,note_off,,,,,64,0,10,,,,,3,,,74,100
28608,note_on,,,,,64,0,12,,,,,5,,,62,85
28608,note_on,,,,,32,0,10,,,,,3,,,73,97
28672,note_off,,,,,256,0,15,,,,,7,,,50,100
28672,note_off,,,,,256,0,13,,,,,6,,,38,100
28672,note_off,,,,,0,0,14,,,,,7,,,73,100
28672,note_off,,,,,256,0,14,,,,,7,,,69,100
28672,note_off,,,,,64,0,10,,,,,3,,,73,100
28704,note_on,,,,,32,0,10,,,,,3,,,74,99
28736,note_off,,,,,128,0,12,,,,,5,,,62,100
28768,note_off,,,,,64,0,10,,,,,3,,,74,100
28800,note_on,,,,,32,0,10,,,,,3,,,79,100
28800,note_on,,,,,64,0,12,,,,,5,,,59,85
28892,note_off,,,,,92,0,10,,,,,3,,,79,100
28896,note_on,,,,,4,0,10,,,,,3,,,78,101
28928,note_off,,,,,128,0,12,,,,,5,,,59,100
28988,note_off,,,,,92,0,10,,,,,3,,,78,100
28992,note_on,,,,,320,0,15,,,,,7,,,55,100
28992,note_on,,,,,320,0,13,,,,,6,,,43,85
28992,note_on,,,,,64,0,12,,,,,5,,,55,85
28992,note_on,,,,,0,0,14,,,,,7,,,74,100
28992,note_on,,,,,320,0,14,,,,,7,,,71,100
28992,note_on,,,,,4,0,10,,,,,3,,,76,102
29084,note_off,,,,,92,0,10,,,,,3,,,76,100
29088,note_on,,,,,4,0,10,,,,,3,,,74,103
29120,note_off,,,,,128,0,12,,,,,5,,,55,100
29120,note_off,,,,,0,0,14,,,,,7,,,74,100
29120,note_off,,,,,128,0,14,,,,,7,,,71,100
29120,note_off,,,,,128,0,15,,,,,7,,,55,100
29120,note_off,,,,,128,0,13,,,,,6,,,43,100
29152,note_off,,,,,64,0,10,,,,,3,,,74,100
29184,note_on,,,,,32,0,10,,,,,3,,,76,104
29184,note_on,,,,,64,0,15,,,,,7,,,49,100
29184,note_on,,,,,0,0,14,,,,,7,,,71,100
29184,note_on,,,,,64,0,12,,,,,5,,,49,85
29184,note_on,,,,,64,0,14,,,,,7,,,67,100
29184,note_on,,,,,64,0,13,,,,,6,,,37,85
29248,note_off,,,,,64,0,10,,,,,3,,,76,100
29280,note_on,,,,,32,0,10,,,,,3,,,73,105
29312,note_off,,,,,128,0,12,,,,,5,,,49,100
29344,note_off,,,,,64,0,10,,,,,3,,,73,100
29376,note_on,,,,,64,0,12,,,,,5,,,61,87
29376,note_on,,,,,32,0,10,,,,,3,,,71,106
29440,note_off,,,,,0,0,14,,,,,7,,,71,100
29440,note_off,,,,,256,0,14,,,,,7,,,67,100
29440,note_off,,,,,256,0,13,,,,,6,,,37,100
29440,note_off,,,,,64,0,10,,,,,3,,,71,100
29440,note_off,,,,,256,0,15,,,,,7,,,49,100
29472,note_on,,,,,32,0,10,,,,,3,,,73,108
29504,note_off,,,,,128,0,12,,,,,5,,,61,100
29536,note_off,,,,,64,0,10,,,,,3,,,73,100
29568,note_on,,,,,32,0,10,,,,,3,,,78,109
29568,note_on,,,,,64,0,12,,,,,5,,,58,90
29660,note_off,,,,,92,0,10,,,,,3,,,78,100
29664,note_on,,,,,4,0,10,,,,,3,,,76,110
29696,note_off,,,,,128,0,12,,,,,5,,,58,100
29728,note_off,,,,,64,0,10,,,,,3,,,76,100
29760,note_on,,,,,320,0,15,,,,,7,,,54,100
29760,note_on,,,,,32,0,10,,,,,3,,,74,111
29760,note_on,,,,,320,0,13,,,,,6,,,42,100
29760,note_on,,,,,320,0,14,,,,,7,,,73,100
29760,note_on,,,,,0,0,14,,,,,7,,,70,100
29760,note_on,,,,,64,0,12,,,,,5,,,54,93
29824,note_off,,,,,64,0,10,,,,,3,,,74,100
29856,note_on,,,,,32,0,10,,,,,3,,,73,112
29888,note_off,,,,,128,0,15,,,,,7,,,54,100
29888,note_off,,,,,128,0,13,,,,,6,,,42,100
29888,note_off,,,,,0,0,14,,,,,7,,,70,100
29888,note_off,,,,,128,0,14,,,,,7,,,73,100
29888,note_off,,,,,128,0,12,,,,,5,,,54,100
29920,note_off,,,,,64,0,10,,,,,3,,,73,100
29952,note_on,,,,,64,0,12,,,,,5,,,59,96
29952,note_on,,,,,32,0,10,,,,,3,,,74,100
29952,note_on,,,,,64,0,13,,,,,6,,,47,100
29952,note_on,,,,,64,0,15,,,,,7,,,59,100
29952,note_on,,,,,64,0,14,,,,,7,,,66,100
29952,note_on,,,,,0,0,14,,,,,7,,,74,100
29952,note_on,,,,,6592,0,7,,,,,0,,,83,100
30000,note_off,,,,,48,0,10,,,,,3,,,74,100
30000,program_change,,,,,0,0,10,,,,,3,48,,,
30004,note_on,,,,,4,0,10,,,,,3,,,74,100
30016,note_off,,,,,64,0,7,,,,,0,,,83,100
30048,note_on,,,,,32,0,7,,,,,0,,,78,100
30080,note_off,,,,,128,0,15,,,,,7,,,59,100
30080,note_off,,,,,128,0,12,,,,,5,,,59,100
30080,note_off,,,,,128,0,13,,,,,6,,,47,100
30080,note_off,,,,,128,0,14,,,,,7,,,66,100
30080,note_off,,,,,0,0,14,,,,,7,,,74,100
30112,note_off,,,,,64,0,7,,,,,0,,,78,100
30144,note_on,,,,,64,0,12,,,,,5,,,47,99
30144,note_on,,,,,0,0,14,,,,,7,,,66,100
30144,note_on,,,,,64,0,13,,,,,6,,,35,100
30144,note_on,,,,,6848,0,11,,,,,4,,,66,100
30144,note_on,,,,,32,0,7,,,,,0,,,74,100
30144,note_on,,,,,64,0,14,,,,,7,,,62,100
30144,note_on,,,,,64,0,15,,,,,7,,,47,100
30208,note_off,,,,,64,0,7,,,,,0,,,74,100
30240,note_on,,,,,32,0,7,,,,,0,,,83,100
30272,note_off,,,,,128,0,15,,,,,7,,,47,100
30272,note_off,,,,,128,0,14,,,,,7,,,62,100
30272,note_off,,,,,0,0,14,,,,,7,,,66,100
30272,note_off,,,,,128,0,13,,,,,6,,,35,100
30272,note_off,,,,,128,0,11,,,,,4,,,66,100
30272,note_off,,,,,128,0,12,,,,,5,,,47,100
30304,note_off,,,,,64,0,7,,,,,0,,,83,100
30336,note_on,,,,,32,0,7,,,,,0,,,83,100
30336,note_on,,,,,64,0,11,,,,,4,,,62,100
30336,note_on,,,,,7040,0,9,,,,,2,,,78,100
30400,note_off,,,,,64,0,7,,,,,0,,,83,100
30432,note_on,,,,,32,0,7,,,,,0,,,78,100
30464,note_off,,,,,128,0,11,,,,,4,,,62,100
30528,note_on,,,,,64,0,11,,,,,4,,,62,100
30528,note_on,,,,,0,0,11,,,,,4,,,59,100
30528,note_on,,,,,96,0,7,,,,,0,,,74,100
30528,note_on,,,,,256,0,12,,,,,5,,,59,100
30528,note_on,,,,,256,0,14,,,,,7,,,66,100
30528,note_on,,,,,0,0,14,,,,,7,,,74,100
30528,note_on,,,,,256,0,13,,,,,6,,,47,100
30528,note_on,,,,,256,0,15,,,,,7,,,59,100
30592,note_off,,,,,0,0,7,,,,,0,,,74,100
30592,note_off,,,,,64,0,7,,,,,0,,,78,100
30592,note_off,,,,,256,0,9,,,,,2,,,78,100
30624,note_on,,,,,32,0,7,,,,,0,,,83,100
30656,note_off,,,,,128,0,12,,,,,5,,,59,100
30656,note_off,,,,,128,0,15,,,,,7,,,59,100
30656,note_off,,,,,128,0,11,,,,,4,,,62,100
30656,note_off,,,,,0,0,11,,,,,4,,,59,100
30656,note_off,,,,,128,0,13,,,,,6,,,47,100
30656,note_off,,,,,128,0,14,,,,,7,,,66,100
30656,note_off,,,,,0,0,14,,,,,7,,,74,100
30688,note_off,,,,,64,0,7,,,,,0,,,83,100
30720,note_on,,,,,64,0,12,,,,,5,,,52,100
30720,note_on,,,,,0,0,14,,,,,7,,,74,100
30720,note_on,,,,,64,0,13,,,,,6,,,40,100
30720,note_on,,,,,64,0,14,,,,,7,,,71,100
30720,note_on,,,,,128,0,9,,,,,2,,,79,100
30720,note_on,,,,,32,0,7,,,,,0,,,83,100
30720,note_on,,,,,64,0,15,,,,,7,,,52,100
30720,note_on,,,,,7360,0,8,,,,,1,,,76,100
30720,note_on,,,,,64,0,11,,,,,4,,,67,100
30784,note_off,,,,,64,0,8,,,,,1,,,76,100
30816,note_on,,,,,32,0,8,,,,,1,,,71,100
30848,note_off,,,,,128,0,11,,,,,4,,,67,100
30848,note_off,,,,,128,0,7,,,,,0,,,83,100
30880,note_off,,,,,64,0,8,,,,,1,,,71,100
30912,note_on,,,,,32,0,8,,,,,1,,,67,100
30912,note_on,,,,,64,0,7,,,,,0,,,76,100
30912,note_on,,,,,64,0,11,,,,,4,,,64,100
30912,note_on,,,,,0,0,11,,,,,4,,,71,100
30976,note_off,,,,,256,0,15,,,,,7,,,52,100
30976,note_off,,,,,256,0,14,,,,,7,,,71,100
30976,note_off,,,,,256,0,12,,,,,5,,,52,100
30976,note_off,,,,,0,0,14,,,,,7,,,74,100
30976,note_off,,,,,256,0,13,,,,,6,,,40,100
30976,note_off,,,,,64,0,8,,,,,1,,,67,100
31008,note_on,,,,,32,0,8,,,,,1,,,76,100
31040,note_off,,,,,128,0,7,,,,,0,,,76,100
31040,note_off,,,,,128,0,11,,,,,4,,,64,100
31040,note_off,,,,,0,0,11,,,,,4,,,71,100
31072,note_off,,,,,64,0,8,,,,,1,,,76,100
31104,note_on,,,,,64,0,7,,,,,0,,,79,100
31104,note_on,,,,,64,0,11,,,,,4,,,67,100
31104,note_on,,,,,32,0,8,,,,,1,,,76,100
31168,note_off,,,,,64,0,8,,,,,1,,,76,100
31200,note_on,,,,,32,0,8,,,,,1,,,71,100
31232,note_off,,,,,128,0,11,,,,,4,,,67,100
31232,note_off,,,,,128,0,7,,,,,0,,,79,100
31264,note_off,,,,,64,0,8,,,,,1,,,71,100
31284,note_off,,,,,1280,0,10,,,,,3,,,74,64
31296,note_on,,,,,0,0,14,,,,,7,,,74,100
31296,note_on,,,,,320,0,15,,,,,7,,,52,100
31296,note_on,,,,,320,0,14,,,,,7,,,71,100
31296,note_on,,,,,320,0,12,,,,,5,,,52,100
31296,note_on,,,,,64,0,7,,,,,0,,,83,100
31296,note_on,,,,,32,0,8,,,,,1,,,67,100
31296,note_on,,,,,64,0,11,,,,,4,,,64,100
31296,note_on,,,,,320,0,13,,,,,6,,,40,100
31360,note_off,,,,,64,0,8,,,,,1,,,67,100
31392,note_on,,,,,32,0,8,,,,,1,,,76,100
31424,note_off,,,,,128,0,13,,,,,6,,,40,100
31424,note_off,,,,,128,0,7,,,,,0,,,83,100
31424,note_off,,,,,128,0,11,,,,,4,,,64,100
31424,note_off,,,,,128,0,12,,,,,5,,,52,100
31424,note_off,,,,,128,0,15,,,,,7,,,52,100
31424,note_off,,,,,0,0,14,,,,,7,,,74,100
31424,note_off,,,,,128,0,14,,,,,7,,,71,100
31456,note_off,,,,,64,0,8,,,,,1,,,76,100
31488,note_on,,,,,64,0,11,,,,,4,,,61,100
31488,note_on,,,,,64,0,13,,,,,6,,,45,100
31488,note_on,,,,,64,0,15,,,,,7,,,57,100
31488,note_on,,,,,64,0,14,,,,,7,,,76,100
31488,note_on,,,,,0,0,14,,,,,7,,,67,100
31488,note_on,,,,,204,0,10,,,,,3,,,73,100
31488,note_on,,,,,64,0,7,,,,,0,,,81,100
31488,note_on,,,,,32,0,8,,,,,1,,,76,100
31488,note_on,,,,,64,0,12,,,,,5,,,57,100
31552,note_off,,,,,64,0,7,,,,,0,,,81,100
31584,note_on,,,,,32,0,7,,,,,0,,,76,100
31616,note_off,,,,,0,0,14,,,,,7,,,67,100
31616,note_off,,,,,128,0,15,,,,,7,,,57,100
31616,note_off,,,,,128,0,11,,,,,4,,,61,100
31616,note_off,,,,,128,0,13,,,,,6,,,45,100
31616,note_off,,,,,128,0,12,,,,,5,,,57,100
31616,note_off,,,,,128,0,8,,,,,1,,,76,100
31616,note_off,,,,,128,0,14,,,,,7,,,76,100
31648,note_off,,,,,64,0,7,,,,,0,,,76,100
31680,note_on,,,,,0,0,14,,,,,7,,,67,100
31680,note_on,,,,,32,0,7,,,,,0,,,73,100
31680,note_on,,,,,64,0,14,,,,,7,,,64,100
31680,note_on,,,,,64,0,13,,,,,6,,,33,100
31680,note_on,,,,,64,0,15,,,,,7,,,45,100
31680,note_on,,,,,64,0,12,,,,,5,,,45,100
31680,note_on,,,,,64,0,11,,,,,4,,,57,100
31680,note_on,,,,,0,0,11,,,,,4,,,64,100
31680,note_on,,,,,64,0,8,,,,,1,,,69,100
31744,note_off,,,,,64,0,7,,,,,0,,,73,100
31748,note_off,,,,,1028,0,9,,,,,2,,,79,100
31776,note_on,,,,,32,0,7,,,,,0,,,81,100
31808,note_off,,,,,0,0,11,,,,,4,,,64,100
31808,note_off,,,,,128,0,12,,,,,5,,,45,100
31808,note_off,,,,,128,0,13,,,,,6,,,33,100
31808,note_off,,,,,128,0,8,,,,,1,,,69,100
31808,note_off,,,,,128,0,14,,,,,7,,,64,100
31808,note_off,,,,,128,0,11,,,,,4,,,57,100
31808,note_off,,,,,128,0,15,,,,,7,,,45,100
31808,note_off,,,,,0,0,14,,,,,7,,,67,100
31840,note_off,,,,,64,0,7,,,,,0,,,81,100
31872,note_on,,,,,64,0,11,,,,,4,,,61,100
31872,note_on,,,,,64,0,8,,,,,1,,,73,100
31872,note_on,,,,,32,0,7,,,,,0,,,81,100
31936,note_off,,,,,64,0,7,,,,,0,,,81,100
31968,note_on,,,,,32,0,7,,,,,0,,,76,100
32000,note_off,,,,,128,0,8,,,,,1,,,73,100
32000,note_off,,,,,128,0,11,,,,,4,,,61,100
32032,note_off,,,,,64,0,7,,,,,0,,,76,100
32064,note_on,,,,,0,0,14,,,,,7,,,76,100
32064,note_on,,,,,256,0,14,,,,,7,,,67,100
32064,note_on,,,,,256,0,15,,,,,7,,,57,100
32064,note_on,,,,,64,0,8,,,,,1,,,76,100
32064,note_on,,,,,64,0,11,,,,,4,,,61,100
32064,note_on,,,,,256,0,12,,,,,5,,,57,100
32064,note_on,,,,,0,0,11,,,,,4,,,57,100
32064,note_on,,,,,256,0,13,,,,,6,,,45,100
32064,note_on,,,,,32,0,7,,,,,0,,,73,100
32128,note_off,,,,,64,0,7,,,,,0,,,73,100
32160,note_on,,,,,32,0,7,,,,,0,,,81,100
32192,note_off,,,,,128,0,13,,,,,6,,,45,100
32192,note_off,,,,,0,0,11,,,,,4,,,57,100
32192,note_off,,,,,128,0,12,,,,,5,,,57,100
32192,note_off,,,,,0,0,14,,,,,7,,,76,100
32192,note_off,,,,,128,0,14,,,,,7,,,67,100
32192,note_off,,,,,128,0,15,,,,,7,,,57,100
32192,note_off,,,,,128,0,11,,,,,4,,,61,100
32192,note_off,,,,,128,0,8,,,,,1,,,76,100
32224,note_off,,,,,64,0,7,,,,,0,,,81,100
32256,note_on,,,,,64,0,15,,,,,7,,,50,100
32256,note_on,,,,,508,0,9,,,,,2,,,78,100
32256,note_on,,,,,64,0,11,,,,,4,,,66,100
32256,note_on,,,,,64,0,12,,,,,5,,,50,100
32256,note_on,,,,,32,0,7,,,,,0,,,81,100
32256,note_on,,,,,64,0,14,,,,,7,,,69,100
32256,note_on,,,,,64,0,8,,,,,1,,,74,100
32256,note_on,,,,,0,0,14,,,,,7,,,73,100
32256,note_on,,,,,64,0,13,,,,,6,,,38,100
32320,note_off,,,,,64,0,8,,,,,1,,,74,100
32352,note_on,,,,,32,0,8,,,,,1,,,69,100
32384,note_off,,,,,128,0,7,,,,,0,,,81,100
32384,note_off,,,,,128,0,11,,,,,4,,,66,100
32416,note_off,,,,,64,0,8,,,,,1,,,69,100
32448,note_on,,,,,0,0,11,,,,,4,,,69,100
32448,note_on,,,,,64,0,7,,,,,0,,,74,100
32448,note_on,,,,,32,0,8,,,,,1,,,66,100
32448,note_on,,,,,64,0,11,,,,,4,,,62,100
32512,note_off,,,,,256,0,12,,,,,5,,,50,100
32512,note_off,,,,,256,0,15,,,,,7,,,50,100
32512,note_off,,,,,256,0,13,,,,,6,,,38,100
32512,note_off,,,,,64,0,8,,,,,1,,,66,100
32512,note_off,,,,,256,0,14,,,,,7,,,69,100
32512,note_off,,,,,0,0,14,,,,,7,,,73,100
32544,note_on,,,,,32,0,8,,,,,1,,,74,100
32576,note_off,,,,,128,0,7,,,,,0,,,74,100
32576,note_off,,,,,0,0,11,,,,,4,,,69,100
32576,note_off,,,,,128,0,11,,,,,4,,,62,100
32608,note_off,,,,,64,0,8,,,,,1,,,74,100
32640,note_on,,,,,64,0,7,,,,,0,,,78,100
32640,note_on,,,,,64,0,11,,,,,4,,,66,100
32640,note_on,,,,,32,0,8,,,,,1,,,74,100
32704,note_off,,,,,64,0,8,,,,,1,,,74,100
32736,note_on,,,,,32,0,8,,,,,1,,,69,100
32768,note_off,,,,,128,0,7,,,,,0,,,78,100
32768,note_off,,,,,128,0,11,,,,,4,,,66,100
32800,note_off,,,,,64,0,8,,,,,1,,,69,100
32832,note_on,,,,,32,0,8,,,,,1,,,66,100
32832,note_on,,,,,320,0,12,,,,,5,,,50,100
32832,note_on,,,,,320,0,13,,,,,6,,,38,100
32832,note_on,,,,,64,0,7,,,,,0,,,81,100
32832,note_on,,,,,0,0,14,,,,,7,,,73,100
32832,note_on,,,,,320,0,14,,,,,7,,,69,100
32832,note_on,,,,,64,0,11,,,,,4,,,62,100
32832,note_on,,,,,320,0,15,,,,,7,,,50,100
32868,note_off,,,,,1380,0,10,,,,,3,,,73,100
32896,note_off,,,,,64,0,8,,,,,1,,,66,100
32928,note_on,,,,,32,0,8,,,,,1,,,74,100
32960,note_off,,,,,128,0,11,,,,,4,,,62,100
32960,note_off,,,,,128,0,15,,,,,7,,,50,100
32960,note_off,,,,,128,0,7,,,,,0,,,81,100
32960,note_off,,,,,0,0,14,,,,,7,,,73,100
32960,note_off,,,,,128,0,14,,,,,7,,,69,100
32960,note_off,,,,,128,0,12,,,,,5,,,50,100
32960,note_off,,,,,128,0,13,,,,,6,,,38,100
32992,note_off,,,,,64,0,8,,,,,1,,,74,100
33024,note_on,,,,,64,0,12,,,,,5,,,55,100
33024,note_on,,,,,64,0,14,,,,,7,,,66,100
33024,note_on,,,,,0,0,14,,,,,7,,,74,100
33024,note_on,,,,,32,0,8,,,,,1,,,74,100
33024,note_on,,,,,64,0,15,,,,,7,,,55,100
33024,note_on,,,,,64,0,13,,,,,6,,,43,100
33024,note_on,,,,,156,0,10,,,,,3,,,71,100
33024,note_on,,,,,64,0,7,,,,,0,,,79,100
33024,note_on,,,,,64,0,11,,,,,4,,,59,100
33088,note_off,,,,,64,0,7,,,,,0,,,79,100
33120,note_on,,,,,32,0,7,,,,,0,,,74,100
33152,note_off,,,,,128,0,13,,,,,6,,,43,100
33152,note_off,,,,,128,0,14,,,,,7,,,66,100
33152,note_off,,,,,0,0,14,,,,,7,,,74,100
33152,note_off,,,,,128,0,11,,,,,4,,,59,100
33152,note_off,,,,,128,0,12,,,,,5,,,55,100
33152,note_off,,,,,128,0,15,,,,,7,,,55,100
33152,note_off,,,,,128,0,8,,,,,1,,,74,100
33184,note_off,,,,,64,0,7,,,,,0,,,74,100
33216,note_on,,,,,64,0,15,,,,,7,,,43,100
33216,note_on,,,,,32,0,7,,,,,0,,,71,100
33216,note_on,,,,,64,0,8,,,,,1,,,67,100
33216,note_on,,,,,0,0,14,,,,,7,,,66,100
33216,note_on,,,,,64,0,12,,,,,5,,,43,100
33216,note_on,,,,,64,0,13,,,,,6,,,43,100
33216,note_on,,,,,64,0,11,,,,,4,,,55,100
33216,note_on,,,,,64,0,14,,,,,7,,,62,100
33216,note_on,,,,,0,0,11,,,,,4,,,62,100
33280,note_off,,,,,64,0,7,,,,,0,,,71,100
33284,note_off,,,,,1028,0,9,,,,,2,,,78,100
33312,note_on,,,,,32,0,7,,,,,0,,,79,100
33344,note_off,,,,,128,0,12,,,,,5,,,43,100
33344,note_off,,,,,128,0,8,,,,,1,,,67,100
33344,note_off,,,,,128,0,13,,,,,6,,,43,100
33344,note_off,,,,,128,0,14,,,,,7,,,62,100
33344,note_off,,,,,0,0,14,,,,,7,,,66,100
33344,note_off,,,,,128,0,11,,,,,4,,,55,100
33344,note_off,,,,,0,0,11,,,,,4,,,62,100
33344,note_off,,,,,128,0,15,,,,,7,,,43,100
33376,note_off,,,,,64,0,7,,,,,0,,,79,100
33408,note_on,,,,,64,0,8,,,,,1,,,71,100
33408,note_on,,,,,64,0,11,,,,,4,,,59,100
33408,note_on,,,,,32,0,7,,,,,0,,,79,100
33472,note_off,,,,,64,0,7,,,,,0,,,79,100
33504,note_on,,,,,32,0,7,,,,,0,,,74,100
33536,note_off,,,,,128,0,11,,,,,4,,,59,100
33536,note_off,,,,,128,0,8,,,,,1,,,71,100
33568,note_off,,,,,64,0,7,,,,,0,,,74,100
33600,note_on,,,,,256,0,15,,,,,7,,,55,100
33600,note_on,,,,,256,0,12,,,,,5,,,55,100
33600,note_on,,,,,256,0,14,,,,,7,,,66,100
33600,note_on,,,,,256,0,13,,,,,6,,,43,100
33600,note_on,,,,,32,0,7,,,,,0,,,71,100
33600,note_on,,,,,64,0,11,,,,,4,,,59,100
33600,note_on,,,,,0,0,11,,,,,4,,,55,100
33600,note_on,,,,,64,0,8,,,,,1,,,74,100
33600,note_on,,,,,0,0,14,,,,,7,,,74,100
33664,note_off,,,,,64,0,7,,,,,0,,,71,100
33696,note_on,,,,,32,0,7,,,,,0,,,79,100
33728,note_off,,,,,128,0,8,,,,,1,,,74,100
33728,note_off,,,,,0,0,14,,,,,7,,,74,100
33728,note_off,,,,,128,0,14,,,,,7,,,66,100
33728,note_off,,,,,128,0,11,,,,,4,,,59,100
33728,note_off,,,,,0,0,11,,,,,4,,,55,100
33728,note_off,,,,,128,0,12,,,,,5,,,55,100
33728,note_off,,,,,128,0,13,,,,,6,,,43,100
33728,note_off,,,,,128,0,15,,,,,7,,,55,100
33760,note_off,,,,,64,0,7,,,,,0,,,79,100
33792,note_on,,,,,508,0,9,,,,,2,,,76,100
33792,note_on,,,,,32,0,7,,,,,0,,,79,100
33792,note_on,,,,,64,0,12,,,,,5,,,49,100
33792,note_on,,,,,64,0,13,,,,,6,,,37,100
33792,note_on,,,,,64,0,14,,,,,7,,,67,100
33792,note_on,,,,,0,0,14,,,,,7,,,71,100
33792,note_on,,,,,64,0,8,,,,,1,,,73,100
33792,note_on,,,,,64,0,11,,,,,4,,,64,100
33792,note_on,,,,,64,0,15,,,,,7,,,49,100
33856,note_off,,,,,64,0,8,,,,,1,,,73,100
33888,note_on,,,,,32,0,8,,,,,1,,,67,100
33920,note_off,,,,,128,0,7,,,,,0,,,79,100
33920,note_off,,,,,128,0,11,,,,,4,,,64,100
33952,note_off,,,,,64,0,8,,,,,1,,,67,100
33984,note_on,,,,,32,0,8,,,,,1,,,64,100
33984,note_on,,,,,64,0,11,,,,,4,,,61,100
33984,note_on,,,,,0,0,11,,,,,4,,,67,100
33984,note_on,,,,,64,0,7,,,,,0,,,73,100
34048,note_off,,,,,0,0,14,,,,,7,,,71,100
34048,note_off,,,,,256,0,15,,,,,7,,,49,100
34048,note_off,,,,,256,0,12,,,,,5,,,49,100
34048,note_off,,,,,256,0,14,,,,,7,,,67,100
34048,note_off,,,,,64,0,8,,,,,1,,,64,100
34048,note_off,,,,,256,0,13,,,,,6,,,37,100
34080,note_on,,,,,32,0,8,,,,,1,,,73,100
34112,note_off,,,,,128,0,7,,,,,0,,,73,100
34112,note_off,,,,,128,0,11,,,,,4,,,61,100
34112,note_off,,,,,0,0,11,,,,,4,,,67,100
34144,note_off,,,,,64,0,8,,,,,1,,,73,100
34176,note_on,,,,,32,0,8,,,,,1,,,73,100
34176,note_on,,,,,64,0,7,,,,,0,,,76,100
34176,note_on,,,,,64,0,11,,,,,4,,,64,100
34240,note_off,,,,,64,0,8,,,,,1,,,73,100
34272,note_on,,,,,32,0,8,,,,,1,,,67,100
34304,note_off,,,,,128,0,11,,,,,4,,,64,100
34304,note_off,,,,,128,0,7,,,,,0,,,76,100
34336,note_off,,,,,64,0,8,,,,,1,,,67,100
34368,note_on,,,,,0,0,14,,,,,7,,,71,100
34368,note_on,,,,,32,0,8,,,,,1,,,64,100
34368,note_on,,,,,320,0,14,,,,,7,,,67,100
34368,note_on,,,,,320,0,12,,,,,5,,,49,100
34368,note_on,,,,,320,0,15,,,,,7,,,49,100
34368,note_on,,,,,64,0,7,,,,,0,,,79,100
34368,note_on,,,,,320,0,13,,,,,6,,,37,100
34368,note_on,,,,,64,0,11,,,,,4,,,61,100
34404,note_off,,,,,1380,0,10,,,,,3,,,71,100
34432,note_off,,,,,64,0,8,,,,,1,,,64,100
34464,note_on,,,,,32,0,8,,,,,1,,,73,100
34496,note_off,,,,,128,0,14,,,,,7,,,67,100
34496,note_off,,,,,0,0,14,,,,,7,,,71,100
34496,note_off,,,,,128,0,12,,,,,5,,,49,100
34496,note_off,,,,,128,0,15,,,,,7,,,49,100
34496,note_off,,,,,128,0,11,,,,,4,,,61,100
34496,note_off,,,,,128,0,13,,,,,6,,,37,100
34496,note_off,,,,,128,0,7,,,,,0,,,79,100
34528,note_off,,,,,64,0,8,,,,,1,,,73,100
34560,note_on,,,,,0,0,14,,,,,7,,,70,100
34560,note_on,,,,,64,0,11,,,,,4,,,58,100
34560,note_on,,,,,64,0,13,,,,,6,,,42,100
34560,note_on,,,,,64,0,12,,,,,5,,,54,100
34560,note_on,,,,,64,0,7,,,,,0,,,78,100
34560,note_on,,,,,156,0,10,,,,,3,,,70,100
34560,note_on,,,,,64,0,15,,,,,7,,,54,100
34560,note_on,,,,,64,0,14,,,,,7,,,76,100
34560,note_on,,,,,32,0,8,,,,,1,,,73,100
34624,note_off,,,,,64,0,7,,,,,0,,,78,100
34656,note_on,,,,,32,0,7,,,,,0,,,73,100
34688,note_off,,,,,128,0,15,,,,,7,,,54,100
34688,note_off,,,,,128,0,14,,,,,7,,,76,100
34688,note_off,,,,,0,0,14,,,,,7,,,70,100
34688,note_off,,,,,128,0,13,,,,,6,,,42,100
34688,note_off,,,,,128,0,11,,,,,4,,,58,100
34688,note_off,,,,,128,0,12,,,,,5,,,54,100
34688,note_off,,,,,128,0,8,,,,,1,,,73,100
34720,note_off,,,,,64,0,7,,,,,0,,,73,100
34752,note_on,,,,,32,0,7,,,,,0,,,70,100
34752,note_on,,,,,64,0,8,,,,,1,,,66,100
34752,note_on,,,,,64,0,15,,,,,7,,,42,100
34752,note_on,,,,,0,0,11,,,,,4,,,61,100
34752,note_on,,,,,64,0,11,,,,,4,,,54,100
34752,note_on,,,,,64,0,12,,,,,5,,,42,100
34752,note_on,,,,,64,0,14,,,,,7,,,70,100
34752,note_on,,,,,0,0,14,,,,,7,,,64,100
34752,note_on,,,,,64,0,13,,,,,6,,,42,100
34816,note_off,,,,,64,0,7,,,,,0,,,70,100
34820,note_off,,,,,1028,0,9,,,,,2,,,76,100
34848,note_on,,,,,32,0,7,,,,,0,,,78,100
34880,note_off,,,,,128,0,15,,,,,7,,,42,100
34880,note_off,,,,,0,0,14,,,,,7,,,64,100
34880,note_off,,,,,0,0,11,,,,,4,,,61,100
34880,note_off,,,,,128,0,14,,,,,7,,,70,100
34880,note_off,,,,,128,0,8,,,,,1,,,66,100
34880,note_off,,,,,128,0,12,,,,,5,,,42,100
34880,note_off,,,,,128,0,13,,,,,6,,,42,100
34880,note_off,,,,,128,0,11,,,,,4,,,54,100
34912,note_off,,,,,64,0,7,,,,,0,,,78,100
34944,note_on,,,,,32,0,7,,,,,0,,,78,100
34944,note_on,,,,,64,0,11,,,,,4,,,58,100
34944,note_on,,,,,64,0,8,,,,,1,,,70,100
35008,note_off,,,,,64,0,7,,,,,0,,,78,100
35040,note_on,,,,,32,0,7,,,,,0,,,73,100
35072,note_off,,,,,128,0,11,,,,,4,,,58,100
35072,note_off,,,,,128,0,8,,,,,1,,,70,100
35104,note_off,,,,,64,0,7,,,,,0,,,73,100
35136,note_on,,,,,32,0,7,,,,,0,,,70,100
35136,note_on,,,,,256,0,14,,,,,7,,,76,100
35136,note_on,,,,,256,0,15,,,,,7,,,54,100
35136,note_on,,,,,64,0,8,,,,,1,,,73,100
35136,note_on,,,,,256,0,12,,,,,5,,,54,100
35136,note_on,,,,,256,0,13,,,,,6,,,42,100
35136,note_on,,,,,0,0,14,,,,,7,,,70,100
35136,note_on,,,,,0,0,11,,,,,4,,,54,100
35136,note_on,,,,,64,0,11,,,,,4,,,61,100
35200,note_off,,,,,64,0,7,,,,,0,,,70,100
35232,note_on,,,,,32,0,7,,,,,0,,,78,100
35248,note_off,,,,,688,0,10,,,,,3,,,70,100
35264,note_off,,,,,128,0,14,,,,,7,,,76,100
35264,note_off,,,,,0,0,14,,,,,7,,,70,100
35264,note_off,,,,,128,0,13,,,,,6,,,42,100
35264,note_off,,,,,128,0,12,,,,,5,,,54,100
35264,note_off,,,,,128,0,8,,,,,1,,,73,100
35264,note_off,,,,,128,0,15,,,,,7,,,54,100
35264,note_off,,,,,128,0,11,,,,,4,,,61,100
35264,note_off,,,,,0,0,11,,,,,4,,,54,100
35296,note_off,,,,,64,0,7,,,,,0,,,78,100
35328,note_on,,,,,508,0,9,,,,,2,,,74,100
35328,note_on,,,,,32,0,7,,,,,0,,,78,100
35328,note_on,,,,,80,0,10,,,,,3,,,71,100
35328,note_on,,,,,64,0,11,,,,,4,,,59,100
35328,note_on,,,,,64,0,8,,,,,1,,,74,100
35328,note_on,,,,,0,0,11,,,,,4,,,66,100
35328,note_on,,,,,64,0,13,,,,,6,,,35,100
35328,note_on,,,,,64,0,15,,,,,7,,,47,100
35328,note_on,,,,,0,0,14,,,,,7,,,74,100
35328,note_on,,,,,64,0,12,,,,,5,,,47,100
35328,note_on,,,,,64,0,14,,,,,7,,,66,100
35456,note_off,,,,,128,0,7,,,,,0,,,78,100
35456,note_off,,,,,0,0,14,,,,,7,,,74,100
35456,note_off,,,,,128,0,10,,,,,3,,,71,100
35456,note_off,,,,,128,0,14,,,,,7,,,66,100
35456,note_off,,,,,128,0,12,,,,,5,,,47,100
35456,note_off,,,,,128,0,11,,,,,4,,,59,100
35456,note_off,,,,,128,0,13,,,,,6,,,35,100
35456,note_off,,,,,128,0,8,,,,,1,,,74,100
35456,note_off,,,,,128,0,15,,,,,7,,,47,100
35456,note_off,,,,,0,0,11,,,,,4,,,66,100
35520,note_on,,,,,64,0,8,,,,,1,,,71,100
35520,note_on,,,,,64,0,14,,,,,7,,,74,100
35520,note_on,,,,,64,0,15,,,,,7,,,59,100
35520,note_on,,,,,64,0,13,,,,,6,,,47,100
35520,note_on,,,,,0,0,11,,,,,4,,,66,100
35520,note_on,,,,,64,0,10,,,,,3,,,74,100
35520,note_on,,,,,64,0,12,,,,,5,,,59,100
35520,note_on,,,,,64,0,7,,,,,0,,,71,100
35520,note_on,,,,,64,0,11,,,,,4,,,62,100
35584,note_off,,,,,64,0,15,,,,,7,,,59,100
35584,note_off,,,,,256,0,9,,,,,2,,,74,100
35584,note_off,,,,,64,0,11,,,,,4,,,62,100
35584,note_off,,,,,64,0,14,,,,,7,,,74,100
35584,note_off,,,,,64,0,12,,,,,5,,,59,100
35584,note_off,,,,,0,0,11,,,,,4,,,66,100
35584,note_off,,,,,64,0,10,,,,,3,,,74,100
35584,note_off,,,,,64,0,13,,,,,6,,,47,100
35616,note_on,,,,,32,0,13,,,,,6,,,49,100
35616,note_on,,,,,32,0,11,,,,,4,,,64,100
35616,note_on,,,,,32,0,14,,,,,7,,,76,100
35616,note_on,,,,,32,0,15,,,,,7,,,61,100
35616,note_on,,,,,32,0,12,,,,,5,,,61,100
35616,note_on,,,,,32,0,10,,,,,3,,,73,100
35648,note_off,,,,,128,0,7,,,,,0,,,71,100
35648,note_off,,,,,128,0,8,,,,,1,,,71,100
35680,note_off,,,,,64,0,14,,,,,7,,,76,100
35680,note_off,,,,,64,0,15,,,,,7,,,61,100
35680,note_off,,,,,64,0,12,,,,,5,,,61,100
35680,note_off,,,,,64,0,13,,,,,6,,,49,100
35680,note_off,,,,,64,0,10,,,,,3,,,73,100
35680,note_off,,,,,64,0,11,,,,,4,,,64,100
35712,note_on,,,,,32,0,14,,,,,7,,,78,100
35712,note_on,,,,,0,0,11,,,,,4,,,62,100
35712,note_on,,,,,32,0,10,,,,,3,,,71,100
35712,note_on,,,,,32,0,11,,,,,4,,,66,100
35712,note_on,,,,,32,0,12,,,,,5,,,62,100
35712,note_on,,,,,32,0,13,,,,,6,,,50,100
35712,note_on,,,,,32,0,15,,,,,7,,,62,100
35808,note_on,,,,,224,0,9,,,,,2,,,78,100
35840,note_off,,,,,0,0,11,,,,,4,,,62,100
35840,note_off,,,,,128,0,10,,,,,3,,,71,100
35840,note_off,,,,,128,0,12,,,,,5,,,62,100
35840,note_off,,,,,128,0,15,,,,,7,,,62,100
35840,note_off,,,,,128,0,13,,,,,6,,,50,100
35840,note_off,,,,,128,0,11,,,,,4,,,66,100
35840,note_off,,,,,128,0,14,,,,,7,,,78,100
35872,note_off,,,,,64,0,9,,,,,2,,,78,100
35904,note_on,,,,,32,0,9,,,,,2,,,78,100
35904,note_on,,,,,64,0,10,,,,,3,,,74,100
35904,note_on,,,,,64,0,11,,,,,4,,,62,100
35904,note_on,,,,,64,0,13,,,,,6,,,47,100
35904,note_on,,,,,0,0,11,,,,,4,,,66,100
35904,note_on,,,,,256,0,7,,,,,0,,,83,100
35904,note_on,,,,,64,0,12,,,,,5,,,59,100
35904,note_on,,,,,64,0,14,,,,,7,,,74,100
35904,note_on,,,,,64,0,15,,,,,7,,,59,100
35968,note_off,,,,,64,0,9,,,,,2,,,78,100
36000,note_on,,,,,32,0,9,,,,,2,,,78,100
36032,note_off,,,,,128,0,10,,,,,3,,,74,100
36032,note_off,,,,,128,0,12,,,,,5,,,59,100
36032,note_off,,,,,128,0,14,,,,,7,,,74,100
36032,note_off,,,,,128,0,15,,,,,7,,,59,100
36032,note_off,,,,,0,0,11,,,,,4,,,66,100
36032,note_off,,,,,128,0,7,,,,,0,,,83,100
36032,note_off,,,,,128,0,13,,,,,6,,,47,100
36032,note_off,,,,,128,0,11,,,,,4,,,62,100
36064,note_off,,,,,64,0,9,,,,,2,,,78,100
36096,note_on,,,,,64,0,13,,,,,6,,,42,100
36096,note_on,,,,,64,0,12,,,,,5,,,54,100
36096,note_on,,,,,64,0,10,,,,,3,,,73,100
36096,note_on,,,,,0,0,11,,,,,4,,,66,100
36096,note_on,,,,,0,0,14,,,,,7,,,73,100
36096,note_on,,,,,64,0,14,,,,,7,,,70,100
36096,note_on,,,,,64,0,15,,,,,7,,,54,100
36096,note_on,,,,,64,0,11,,,,,4,,,58,100
36096,note_on,,,,,64,0,7,,,,,0,,,82,100
36096,note_on,,,,,32,0,9,,,,,2,,,78,100
36160,note_off,,,,,64,0,9,,,,,2,,,78,100
36192,note_on,,,,,32,0,9,,,,,2,,,78,100
36224,note_off,,,,,128,0,13,,,,,6,,,42,100
36224,note_off,,,,,128,0,12,,,,,5,,,54,100
36224,note_off,,,,,128,0,15,,,,,7,,,54,100
36224,note_off,,,,,128,0,7,,,,,0,,,82,100
36224,note_off,,,,,0,0,11,,,,,4,,,66,100
36224,note_off,,,,,0,0,14,,,,,7,,,73,100
36224,note_off,,,,,128,0,14,,,,,7,,,70,100
36224,note_off,,,,,128,0,11,,,,,4,,,58,100
36256,note_off,,,,,64,0,9,,,,,2,,,78,100
36288,note_on,,,,,64,0,7,,,,,0,,,78,100
36288,note_on,,,,,64,0,12,,,,,5,,,54,100
36288,note_on,,,,,64,0,11,,,,,4,,,66,100
36288,note_on,,,,,0,0,11,,,,,4,,,61,100
36288,note_on,,,,,64,0,15,,,,,7,,,54,100
36288,note_on,,,,,32,0,9,,,,,2,,,78,100
36288,note_on,,,,,64,0,13,,,,,6,,,42,100
36288,note_on,,,,,64,0,14,,,,,7,,,70,100
36288,note_on,,,,,0,0,14,,,,,7,,,73,100
36288,note_on,,,,,640,0,8,,,,,1,,,82,100
36352,note_off,,,,,256,0,10,,,,,3,,,73,100
36352,note_off,,,,,64,0,9,,,,,2,,,78,100
36384,note_on,,,,,32,0,9,,,,,2,,,78,100
36416,note_off,,,,,128,0,13,,,,,6,,,42,100
36416,note_off,,,,,128,0,12,,,,,5,,,54,100
36416,note_off,,,,,0,0,14,,,,,7,,,73,100
36416,note_off,,,,,128,0,7,,,,,0,,,78,100
36416,note_off,,,,,128,0,8,,,,,1,,,82,100
36416,note_off,,,,,128,0,11,,,,,4,,,66,100
36416,note_off,,,,,0,0,11,,,,,4,,,61,100
36416,note_off,,,,,128,0,14,,,,,7,,,70,100
36416,note_off,,,,,128,0,15,,,,,7,,,54,100
36448,note_off,,,,,64,0,9,,,,,2,,,78,100
36480,note_on,,,,,0,0,14,,,,,7,,,69,100
36480,note_on,,,,,64,0,12,,,,,5,,,50,100
36480,note_on,,,,,64,0,11,,,,,4,,,66,100
36480,note_on,,,,,64,0,14,,,,,7,,,66,100
36480,note_on,,,,,32,0,9,,,,,2,,,78,100
36480,note_on,,,,,64,0,8,,,,,1,,,83,100
36480,note_on,,,,,64,0,13,,,,,6,,,38,100
36480,note_on,,,,,64,0,15,,,,,7,,,50,100
36544,note_off,,,,,64,0,9,,,,,2,,,78,100
36576,note_on,,,,,32,0,9,,,,,2,,,78,100
36576,note_on,,,,,96,0,11,,,,,4,,,59,100
36608,note_off,,,,,128,0,15,,,,,7,,,50,100
36608,note_off,,,,,128,0,12,,,,,5,,,50,100
36608,note_off,,,,,128,0,8,,,,,1,,,83,100
36608,note_off,,,,,128,0,13,,,,,6,,,38,100
36608,note_off,,,,,128,0,14,,,,,7,,,66,100
36608,note_off,,,,,32,0,11,,,,,4,,,66,100
36608,note_off,,,,,0,0,14,,,,,7,,,69,100
36640,note_off,,,,,32,0,11,,,,,4,,,59,100
36640,note_off,,,,,64,0,9,,,,,2,,,78,100
36672,note_on,,,,,64,0,14,,,,,7,,,62,100
36672,note_on,,,,,320,0,10,,,,,3,,,74,100
36672,note_on,,,,,64,0,8,,,,,1,,,71,100
36672,note_on,,,,,32,0,11,,,,,4,,,62,100
36672,note_on,,,,,32,0,9,,,,,2,,,78,100
36672,note_on,,,,,64,0,13,,,,,6,,,35,100
36672,note_on,,,,,64,0,12,,,,,5,,,47,100
36672,note_on,,,,,0,0,14,,,,,7,,,66,100
36672,note_on,,,,,256,0,7,,,,,0,,,83,100
36672,note_on,,,,,64,0,15,,,,,7,,,47,100
36736,note_off,,,,,64,0,9,,,,,2,,,78,100
36768,note_on,,,,,96,0,11,,,,,4,,,66,100
36768,note_on,,,,,32,0,9,,,,,2,,,78,100
36800,note_off,,,,,32,0,11,,,,,4,,,62,100
36800,note_off,,,,,128,0,13,,,,,6,,,35,100
36800,note_off,,,,,128,0,12,,,,,5,,,47,100
36800,note_off,,,,,128,0,15,,,,,7,,,47,100
36800,note_off,,,,,128,0,10,,,,,3,,,74,100
36800,note_off,,,,,128,0,14,,,,,7,,,62,100
36800,note_off,,,,,0,0,14,,,,,7,,,66,100
36800,note_off,,,,,128,0,8,,,,,1,,,71,100
36800,note_off,,,,,128,0,7,,,,,0,,,83,100
36832,note_off,,,,,32,0,11,,,,,4,,,66,100
36832,note_off,,,,,64,0,9,,,,,2,,,78,100
36864,note_on,,,,,32,0,11,,,,,4,,,66,100
36864,note_on,,,,,64,0,10,,,,,3,,,73,100
36864,note_on,,,,,64,0,7,,,,,0,,,82,100
36864,note_on,,,,,32,0,9,,,,,2,,,78,100
36928,note_off,,,,,64,0,9,,,,,2,,,78,100
36960,note_on,,,,,32,0,9,,,,,2,,,78,100
36992,note_off,,,,,128,0,11,,,,,4,,,66,100
36992,note_off,,,,,128,0,7,,,,,0,,,82,100
37024,note_off,,,,,64,0,9,,,,,2,,,78,100
37056,note_on,,,,,256,0,8,,,,,1,,,82,100
37056,note_on,,,,,32,0,9,,,,,2,,,78,100
37056,note_on,,,,,256,0,12,,,,,5,,,54,100
37056,note_on,,,,,64,0,11,,,,,4,,,61,100
37056,note_on,,,,,256,0,15,,,,,7,,,54,100
37056,note_on,,,,,64,0,7,,,,,0,,,78,100
37056,note_on,,,,,256,0,14,,,,,7,,,70,100
37056,note_on,,,,,0,0,14,,,,,7,,,73,100
37056,note_on,,,,,256,0,13,,,,,6,,,42,100
37120,note_off,,,,,256,0,10,,,,,3,,,73,100
37120,note_off,,,,,64,0,9,,,,,2,,,78,100
37152,note_on,,,,,32,0,9,,,,,2,,,78,100
37184,note_off,,,,,128,0,15,,,,,7,,,54,100
37184,note_off,,,,,128,0,8,,,,,1,,,82,100
37184,note_off,,,,,128,0,7,,,,,0,,,78,100
37184,note_off,,,,,128,0,11,,,,,4,,,61,100
37184,note_off,,,,,0,0,14,,,,,7,,,73,100
37184,note_off,,,,,128,0,14,,,,,7,,,70,100
37184,note_off,,,,,128,0,12,,,,,5,,,54,100
37184,note_off,,,,,128,0,13,,,,,6,,,42,100
37216,note_off,,,,,64,0,9,,,,,2,,,78,100
37248,note_on,,,,,64,0,14,,,,,7,,,66,100
37248,note_on,,,,,0,0,14,,,,,7,,,69,100
37248,note_on,,,,,64,0,8,,,,,1,,,83,100
37248,note_on,,,,,64,0,11,,,,,4,,,66,100
37248,note_on,,,,,64,0,15,,,,,7,,,50,100
37248,note_on,,,,,64,0,12,,,,,5,,,50,100
37248,note_on,,,,,32,0,9,,,,,2,,,78,100
37248,note_on,,,,,64,0,13,,,,,6,,,38,100
37312,note_off,,,,,64,0,9,,,,,2,,,78,100
37344,note_on,,,,,32,0,9,,,,,2,,,78,100
37344,note_on,,,,,96,0,11,,,,,4,,,59,100
37376,note_off,,,,,128,0,13,,,,,6,,,38,100
37376,note_off,,,,,32,0,11,,,,,4,,,66,100
37376,note_off,,,,,128,0,12,,,,,5,,,50,100
37376,note_off,,,,,128,0,8,,,,,1,,,83,100
37376,note_off,,,,,0,0,14,,,,,7,,,69,100
37376,note_off,,,,,128,0,14,,,,,7,,,66,100
37376,note_off,,,,,128,0,15,,,,,7,,,50,100
37408,note_off,,,,,64,0,9,,,,,2,,,78,100
37408,note_off,,,,,32,0,11,,,,,4,,,59,100
37440,note_on,,,,,64,0,15,,,,,7,,,47,100
37440,note_on,,,,,64,0,13,,,,,6,,,35,100
37440,note_on,,,,,32,0,11,,,,,4,,,62,100
37440,note_on,,,,,64,0,8,,,,,1,,,71,100
37440,note_on,,,,,32,0,9,,,,,2,,,78,100
37440,note_on,,,,,64,0,12,,,,,5,,,47,100
37440,note_on,,,,,256,0,7,,,,,0,,,83,100
37440,note_on,,,,,64,0,14,,,,,7,,,62,100
37440,note_on,,,,,0,0,14,,,,,7,,,66,100
37440,note_on,,,,,320,0,10,,,,,3,,,74,100
37504,note_off,,,,,64,0,9,,,,,2,,,78,100
37536,note_on,,,,,32,0,9,,,,,2,,,78,100
37536,note_on,,,,,96,0,11,,,,,4,,,66,100
37568,note_off,,,,,128,0,7,,,,,0,,,83,100
37568,note_off,,,,,128,0,13,,,,,6,,,35,100
37568,note_off,,,,,32,0,11,,,,,4,,,62,100
37568,note_off,,,,,128,0,14,,,,,7,,,62,100
37568,note_off,,,,,128,0,10,,,,,3,,,74,100
37568,note_off,,,,,128,0,8,,,,,1,,,71,100
37568,note_off,,,,,128,0,12,,,,,5,,,47,100
37568,note_off,,,,,0,0,14,,,,,7,,,66,100
37568,note_off,,,,,128,0,15,,,,,7,,,47,100
37600,note_off,,,,,32,0,11,,,,,4,,,66,100
37600,note_off,,,,,64,0,9,,,,,2,,,78,100
37632,note_on,,,,,32,0,11,,,,,4,,,66,100
37632,note_on,,,,,32,0,9,,,,,2,,,78,100
37632,note_on,,,,,64,0,10,,,,,3,,,73,100
37632,note_on,,,,,64,0,7,,,,,0,,,82,100
37696,note_off,,,,,64,0,9,,,,,2,,,78,100
37728,note_on,,,,,32,0,9,,,,,2,,,78,100
37760,note_off,,,,,128,0,11,,,,,4,,,66,100
37760,note_off,,,,,128,0,7,,,,,0,,,82,100
37792,note_off,,,,,64,0,9,,,,,2,,,78,100
37824,note_on,,,,,32,0,9,,,,,2,,,78,100
37824,note_on,,,,,256,0,12,,,,,5,,,54,100
37824,note_on,,,,,64,0,7,,,,,0,,,78,100
37824,note_on,,,,,256,0,8,,,,,1,,,82,100
37824,note_on,,,,,256,0,13,,,,,6,,,42,100
37824,note_on,,,,,256,0,15,,,,,7,,,54,100
37824,note_on,,,,,256,0,14,,,,,7,,,70,100
37824,note_on,,,,,64,0,11,,,,,4,,,61,100
37824,note_on,,,,,0,0,14,,,,,7,,,73,100
37888,note_off,,,,,256,0,10,,,,,3,,,73,100
37888,note_off,,,,,64,0,9,,,,,2,,,78,100
37920,note_on,,,,,32,0,9,,,,,2,,,78,100
37952,note_off,,,,,128,0,11,,,,,4,,,61,100
37952,note_off,,,,,128,0,7,,,,,0,,,78,100
37952,note_off,,,,,128,0,14,,,,,7,,,70,100
37952,note_off,,,,,128,0,15,,,,,7,,,54,100
37952,note_off,,,,,128,0,13,,,,,6,,,42,100
37952,note_off,,,,,128,0,12,,,,,5,,,54,100
37952,note_off,,,,,0,0,14,,,,,7,,,73,100
37952,note_off,,,,,128,0,8,,,,,1,,,82,100
37984,note_off,,,,,64,0,9,,,,,2,,,78,100
38016,note_on,,,,,64,0,15,,,,,7,,,50,100
38016,note_on,,,,,32,0,9,,,,,2,,,78,100
38016,note_on,,,,,64,0,13,,,,,6,,,38,100
38016,note_on,,,,,0,0,14,,,,,7,,,69,100
38016,note_on,,,,,64,0,14,,,,,7,,,66,100
38016,note_on,,,,,64,0,12,,,,,5,,,50,100
38016,note_on,,,,,64,0,8,,,,,1,,,83,100
38016,note_on,,,,,64,0,11,,,,,4,,,62,100
38080,note_off,,,,,64,0,9,,,,,2,,,78,100
38080,note_off,,,,,64,0,8,,,,,1,,,83,100
38112,note_on,,,,,96,0,11,,,,,4,,,59,100
38112,note_on,,,,,32,0,9,,,,,2,,,78,100
38112,note_on,,,,,160,0,7,,,,,0,,,78,100
38112,note_on,,,,,224,0,10,,,,,3,,,78,100
38112,note_on,,,,,32,0,8,,,,,1,,,78,100
38144,note_off,,,,,128,0,13,,,,,6,,,38,100
38144,note_off,,,,,0,0,14,,,,,7,,,69,100
38144,note_off,,,,,32,0,11,,,,,4,,,62,100
38144,note_off,,,,,128,0,14,,,,,7,,,66,100
38144,note_off,,,,,128,0,15,,,,,7,,,50,100
38144,note_off,,,,,128,0,12,,,,,5,,,50,100
38176,note_off,,,,,64,0,7,,,,,0,,,78,100
38176,note_off,,,,,64,0,9,,,,,2,,,78,100
38176,note_off,,,,,64,0,8,,,,,1,,,78,100
38176,note_off,,,,,64,0,10,,,,,3,,,78,100
38176,note_off,,,,,32,0,11,,,,,4,,,59,100
38208,note_on,,,,,64,0,12,,,,,5,,,47,100
38208,note_on,,,,,0,0,14,,,,,7,,,66,100
38208,note_on,,,,,64,0,14,,,,,7,,,62,100
38208,note_on,,,,,32,0,11,,,,,4,,,62,100
38208,note_on,,,,,64,0,15,,,,,7,,,47,100
38208,note_on,,,,,0,0,11,,,,,4,,,66,100
38208,note_on,,,,,32,0,7,,,,,0,,,78,100
38208,note_on,,,,,32,0,9,,,,,2,,,78,100
38208,note_on,,,,,32,0,8,,,,,1,,,78,100
38208,note_on,,,,,64,0,13,,,,,6,,,35,100
38208,note_on,,,,,32,0,10,,,,,3,,,78,100
38272,note_off,,,,,64,0,9,,,,,2,,,78,100
38272,note_off,,,,,64,0,10,,,,,3,,,78,100
38272,note_off,,,,,64,0,11,,,,,4,,,62,100
38272,note_off,,,,,64,0,8,,,,,1,,,78,100
38272,note_off,,,,,64,0,7,,,,,0,,,78,100
38304,note_on,,,,,32,0,7,,,,,0,,,78,100
38304,note_on,,,,,32,0,9,,,,,2,,,78,100
38304,note_on,,,,,32,0,10,,,,,3,,,78,100
38304,note_on,,,,,32,0,8,,,,,1,,,78,100
38304,note_on,,,,,32,0,11,,,,,4,,,66,100
38336,note_off,,,,,128,0,13,,,,,6,,,35,100
38336,note_off,,,,,0,0,14,,,,,7,,,66,100
38336,note_off,,,,,128,0,12,,,,,5,,,47,100
38336,note_off,,,,,128,0,14,,,,,7,,,62,100
38336,note_off,,,,,32,0,11,,,,,4,,,66,100
38336,note_off,,,,,128,0,15,,,,,7,,,47,100
38368,note_off,,,,,64,0,9,,,,,2,,,78,100
38368,note_off,,,,,32,0,11,,,,,4,,,66,100
38368,note_off,,,,,64,0,7,,,,,0,,,78,100
38368,note_off,,,,,64,0,8,,,,,1,,,78,100
38368,note_off,,,,,64,0,10,,,,,3,,,78,100
38400,note_on,,,,,32,0,10,,,,,3,,,83,100
38400,note_on,,,,,32,0,8,,,,,1,,,83,100
38400,note_on,,,,,32,0,9,,,,,2,,,83,100
38400,note_on,,,,,32,0,7,,,,,0,,,83,100
38400,note_on,,,,,32,0,11,,,,,4,,,62,100
38464,note_off,,,,,64,0,8,,,,,1,,,83,100
38464,note_off,,,,,64,0,7,,,,,0,,,83,100
38464,note_off,,,,,64,0,10,,,,,3,,,83,100
38464,note_off,,,,,64,0,9,,,,,2,,,83,100
38496,note_on,,,,,32,0,7,,,,,0,,,78,100
38496,note_on,,,,,32,0,10,,,,,3,,,78,100
38496,note_on,,,,,32,0,8,,,,,1,,,78,100
38496,note_on,,,,,32,0,9,,,,,2,,,78,100
38528,note_off,,,,,128,0,11,,,,,4,,,62,100
38560,note_off,,,,,64,0,7,,,,,0,,,78,100
38560,note_off,,,,,64,0,10,,,,,3,,,78,100
38560,note_off,,,,,64,0,9,,,,,2,,,78,100
38560,note_off,,,,,64,0,8,,,,,1,,,78,100
38592,note_on,,,,,64,0,11,,,,,4,,,59,100
38592,note_on,,,,,256,0,15,,,,,7,,,59,100
38592,note_on,,,,,256,0,13,,,,,6,,,47,100
38592,note_on,,,,,32,0,7,,,,,0,,,78,100
38592,note_on,,,,,32,0,9,,,,,2,,,78,100
38592,note_on,,,,,32,0,10,,,,,3,,,78,100
38592,note_on,,,,,32,0,8,,,,,1,,,78,100
38592,note_on,,,,,0,0,14,,,,,7,,,74,100
38592,note_on,,,,,256,0,12,,,,,5,,,59,100
38592,note_on,,,,,256,0,14,,,,,7,,,66,100
38656,note_off,,,,,64,0,8,,,,,1,,,78,100
38656,note_off,,,,,64,0,7,,,,,0,,,78,100
38656,note_off,,,,,64,0,9,,,,,2,,,78,100
38656,note_off,,,,,64,0,10,,,,,3,,,78,100
38688,note_on,,,,,32,0,8,,,,,1,,,78,100
38688,note_on,,,,,32,0,10,,,,,3,,,78,100
38688,note_on,,,,,32,0,9,,,,,2,,,78,100
38688,note_on,,,,,32,0,7,,,,,0,,,78,100
38720,note_off,,,,,128,0,12,,,,,5,,,59,100
38720,note_off,,,,,128,0,11,,,,,4,,,59,100
38720,note_off,,,,,128,0,15,,,,,7,,,59,100
38720,note_off,,,,,0,0,14,,,,,7,,,74,100
38720,note_off,,,,,128,0,14,,,,,7,,,66,100
38720,note_off,,,,,128,0,13,,,,,6,,,47,100
38752,note_off,,,,,64,0,8,,,,,1,,,78,100
38752,note_off,,,,,64,0,9,,,,,2,,,78,100
38752,note_off,,,,,64,0,10,,,,,3,,,78,100
38752,note_off,,,,,64,0,7,,,,,0,,,78,100
38784,note_on,,,,,64,0,13,,,,,6,,,35,100
38784,note_on,,,,,32,0,9,,,,,2,,,83,100
38784,note_on,,,,,0,0,14,,,,,7,,,66,100
38784,note_on,,,,,64,0,14,,,,,7,,,62,100
38784,note_on,,,,,64,0,15,,,,,7,,,47,100
38784,note_on,,,,,32,0,10,,,,,3,,,83,100
38784,note_on,,,,,32,0,7,,,,,0,,,83,100
38784,note_on,,,,,32,0,8,,,,,1,,,83,100
38784,note_on,,,,,64,0,12,,,,,5,,,47,100
38848,note_off,,,,,64,0,7,,,,,0,,,83,100
38848,note_off,,,,,64,0,8,,,,,1,,,83,100
38848,note_off,,,,,64,0,9,,,,,2,,,83,100
38848,note_off,,,,,64,0,10,,,,,3,,,83,100
38880,note_on,,,,,32,0,8,,,,,1,,,78,100
38880,note_on,,,,,32,0,9,,,,,2,,,78,100
38880,note_on,,,,,32,0,7,,,,,0,,,78,100
38880,note_on,,,,,32,0,10,,,,,3,,,78,100
38944,note_off,,,,,64,0,8,,,,,1,,,78,100
38944,note_off,,,,,64,0,7,,,,,0,,,78,100
38944,note_off,,,,,64,0,10,,,,,3,,,78,100
38944,note_off,,,,,64,0,9,,,,,2,,,78,100
38976,note_on,,,,,32,0,9,,,,,2,,,78,100
38976,note_on,,,,,256,0,11,,,,,4,,,66,100
38976,note_on,,,,,32,0,7,,,,,0,,,78,100
38976,note_on,,,,,32,0,8,,,,,1,,,78,100
38976,note_on,,,,,32,0,10,,,,,3,,,78,100
39040,note_off,,,,,256,0,13,,,,,6,,,35,100
39040,note_off,,,,,64,0,8,,,,,1,,,78,100
39040,note_off,,,,,256,0,14,,,,,7,,,62,100
39040,note_off,,,,,0,0,14,,,,,7,,,66,100
39040,note_off,,,,,64,0,9,,,,,2,,,78,100
39040,note_off,,,,,64,0,7,,,,,0,,,78,100
39040,note_off,,,,,64,0,10,,,,,3,,,78,100
39040,note_off,,,,,256,0,12,,,,,5,,,47,100
39040,note_off,,,,,256,0,15,,,,,7,,,47,100
39072,note_on,,,,,32,0,7,,,,,0,,,78,100
39072,note_on,,,,,32,0,8,,,,,1,,,78,100
39072,note_on,,,,,32,0,10,,,,,3,,,78,100
39072,note_on,,,,,32,0,9,,,,,2,,,78,100
39104,note_off,,,,,128,0,11,,,,,4,,,66,100
39136,note_off,,,,,64,0,8,,,,,1,,,78,100
39136,note_off,,,,,64,0,10,,,,,3,,,78,100
39136,note_off,,,,,64,0,9,,,,,2,,,78,100
39136,note_off,,,,,64,0,7,,,,,0,,,78,100
39168,note_on,,,,,32,0,9,,,,,2,,,83,100
39168,note_on,,,,,32,0,10,,,,,3,,,83,100
39168,note_on,,,,,32,0,8,,,,,1,,,83,100
39168,note_on,,,,,32,0,7,,,,,0,,,83,100
39168,note_on,,,,,64,0,11,,,,,4,,,62,100
39232,note_off,,,,,64,0,9,,,,,2,,,83,100
39232,note_off,,,,,64,0,10,,,,,3,,,83,100
39232,note_off,,,,,64,0,8,,,,,1,,,83,100
39232,note_off,,,,,64,0,7,,,,,0,,,83,100
39264,note_on,,,,,32,0,8,,,,,1,,,78,100
39264,note_on,,,,,32,0,7,,,,,0,,,78,100
39264,note_on,,,,,32,0,10,,,,,3,,,78,100
39264,note_on,,,,,32,0,9,,,,,2,,,78,100
39296,note_off,,,,,128,0,11,,,,,4,,,62,100
39328,note_off,,,,,64,0,8,,,,,1,,,78,100
39328,note_off,,,,,64,0,10,,,,,3,,,78,100
39328,note_off,,,,,64,0,9,,,,,2,,,78,100
39328,note_off,,,,,64,0,7,,,,,0,,,78,100
39360,note_on,,,,,320,0,12,,,,,5,,,59,100
39360,note_on,,,,,64,0,11,,,,,4,,,59,100
39360,note_on,,,,,320,0,15,,,,,7,,,59,100
39360,note_on,,,,,320,0,14,,,,,7,,,66,100
39360,note_on,,,,,32,0,7,,,,,0,,,78,100
39360,note_on,,,,,32,0,9,,,,,2,,,78,100
39360,note_on,,,,,32,0,10,,,,,3,,,78,100
39360,note_on,,,,,0,0,14,,,,,7,,,74,100
39360,note_on,,,,,32,0,8,,,,,1,,,78,100
39360,note_on,,,,,320,0,13,,,,,6,,,47,100
39424,note_off,,,,,64,0,7,,,,,0,,,78,100
39424,note_off,,,,,64,0,8,,,,,1,,,78,100
39424,note_off,,,,,64,0,10,,,,,3,,,78,100
39424,note_off,,,,,64,0,9,,,,,2,,,78,100
39456,note_on,,,,,32,0,10,,,,,3,,,78,100
39456,note_on,,,,,32,0,7,,,,,0,,,78,100
39456,note_on,,,,,32,0,9,,,,,2,,,78,100
39456,note_on,,,,,32,0,8,,,,,1,,,78,100
39488,note_off,,,,,0,0,14,,,,,7,,,74,100
39488,note_off,,,,,128,0,14,,,,,7,,,66,100
39488,note_off,,,,,128,0,13,,,,,6,,,47,100
39488,note_off,,,,,128,0,12,,,,,5,,,59,100
39488,note_off,,,,,128,0,15,,,,,7,,,59,100
39488,note_off,,,,,128,0,11,,,,,4,,,59,100
39520,note_off,,,,,64,0,8,,,,,1,,,78,100
39520,note_off,,,,,64,0,10,,,,,3,,,78,100
39520,note_off,,,,,64,0,9,,,,,2,,,78,100
39520,note_off,,,,,64,0,7,,,,,0,,,78,100
39552,note_on,,,,,64,0,14,,,,,7,,,62,100
39552,note_on,,,,,0,0,14,,,,,7,,,66,100
39552,note_on,,,,,64,0,12,,,,,5,,,47,100
39552,note_on,,,,,32,0,7,,,,,0,,,83,100
39552,note_on,,,,,32,0,9,,,,,2,,,83,100
39552,note_on,,,,,32,0,10,,,,,3,,,83,100
39552,note_on,,,,,64,0,13,,,,,6,,,35,100
39552,note_on,,,,,64,0,15,,,,,7,,,47,100
39552,note_on,,,,,32,0,8,,,,,1,,,83,100
39616,note_off,,,,,64,0,7,,,,,0,,,83,100
39616,note_off,,,,,64,0,10,,,,,3,,,83,100
39616,note_off,,,,,64,0,8,,,,,1,,,83,100
39616,note_off,,,,,64,0,9,,,,,2,,,83,100
39648,note_on,,,,,32,0,9,,,,,2,,,78,100
39648,note_on,,,,,32,0,8,,,,,1,,,78,100
39648,note_on,,,,,32,0,10,,,,,3,,,78,100
39648,note_on,,,,,32,0,7,,,,,0,,,78,100
39712,note_off,,,,,64,0,9,,,,,2,,,78,100
39712,note_off,,,,,64,0,10,,,,,3,,,78,100
39712,note_off,,,,,64,0,8,,,,,1,,,78,100
39712,note_off,,,,,64,0,7,,,,,0,,,78,100
39744,note_on,,,,,32,0,10,,,,,3,,,78,100
39744,note_on,,,,,0,0,11,,,,,4,,,66,100
39744,note_on,,,,,256,0,11,,,,,4,,,62,100
39744,note_on,,,,,32,0,7,,,,,0,,,78,100
39744,note_on,,,,,32,0,8,,,,,1,,,78,100
39744,note_on,,,,,32,0,9,,,,,2,,,78,100
39808,note_off,,,,,0,0,14,,,,,7,,,66,100
39808,note_off,,,,,64,0,10,,,,,3,,,78,100
39808,note_off,,,,,256,0,13,,,,,6,,,35,100
39808,note_off,,,,,256,0,12,,,,,5,,,47,100
39808,note_off,,,,,256,0,14,,,,,7,,,62,100
39808,note_off,,,,,256,0,15,,,,,7,,,47,100
39808,note_off,,,,,64,0,9,,,,,2,,,78,100
39808,note_off,,,,,64,0,7,,,,,0,,,78,100
39808,note_off,,,,,64,0,8,,,,,1,,,78,100
39840,note_on,,,,,32,0,8,,,,,1,,,78,100
39840,note_on,,,,,32,0,10,,,,,3,,,78,100
39840,note_on,,,,,32,0,9,,,,,2,,,78,100
39840,note_on,,,,,32,0,7,,,,,0,,,78,100
39872,note_off,,,,,0,0,11,,,,,4,,,66,100
39872,note_off,,,,,128,0,11,,,,,4,,,62,100
39904,note_off,,,,,64,0,9,,,,,2,,,78,100
39904,note_off,,,,,64,0,8,,,,,1,,,78,100
39904,note_off,,,,,64,0,10,,,,,3,,,78,100
39904,note_off,,,,,64,0,7,,,,,0,,,78,100
39936,note_on,,,,,0,0,11,,,,,4,,,66,100
39936,note_on,,,,,64,0,11,,,,,4,,,62,100
39936,note_on,,,,,32,0,8,,,,,1,,,83,100
39936,note_on,,,,,32,0,7,,,,,0,,,83,100
39936,note_on,,,,,32,0,9,,,,,2,,,83,100
39936,note_on,,,,,32,0,10,,,,,3,,,83,100
40064,note_off,,,,,128,0,8,,,,,1,,,83,100
40064,note_off,,,,,128,0,7,,,,,0,,,83,100
40064,note_off,,,,,128,0,10,,,,,3,,,83,100
40064,note_off,,,,,128,0,9,,,,,2,,,83,100
40128,note_on,,,,,64,0,9,,,,,2,,,81,100
40128,note_on,,,,,320,0,14,,,,,7,,,74,100
40128,note_on,,,,,0,0,14,,,,,7,,,66,100
40128,note_on,,,,,64,0,10,,,,,3,,,81,100
40128,note_on,,,,,320,0,15,,,,,7,,,59,100
40128,note_on,,,,,320,0,12,,,,,5,,,59,100
40128,note_on,,,,,64,0,7,,,,,0,,,81,100
40128,note_on,,,,,320,0,13,,,,,6,,,47,100
40128,note_on,,,,,64,0,8,,,,,1,,,81,100
40192,note_off,,,,,64,0,7,,,,,0,,,81,100
40192,note_off,,,,,64,0,10,,,,,3,,,81,100
40192,note_off,,,,,256,0,11,,,,,4,,,62,100
40192,note_off,,,,,0,0,11,,,,,4,,,66,100
40192,note_off,,,,,64,0,8,,,,,1,,,81,100
40192,note_off,,,,,64,0,9,,,,,2,,,81,100
40224,note_on,,,,,32,0,7,,,,,0,,,79,100
40224,note_on,,,,,32,0,10,,,,,3,,,79,100
40224,note_on,,,,,32,0,8,,,,,1,,,79,100
40224,note_on,,,,,32,0,9,,,,,2,,,79,100
40256,note_off,,,,,128,0,14,,,,,7,,,74,100
40256,note_off,,,,,128,0,12,,,,,5,,,59,100
40256,note_off,,,,,128,0,13,,,,,6,,,47,100
40256,note_off,,,,,128,0,15,,,,,7,,,59,100
40256,note_off,,,,,0,0,14,,,,,7,,,66,100
40288,note_off,,,,,64,0,9,,,,,2,,,79,100
40288,note_off,,,,,64,0,8,,,,,1,,,79,100
40288,note_off,,,,,64,0,10,,,,,3,,,79,100
40288,note_off,,,,,64,0,7,,,,,0,,,79,100
40320,note_on,,,,,32,0,9,,,,,2,,,78,100
40320,note_on,,,,,32,0,7,,,,,0,,,78,100
40320,note_on,,,,,128,0,11,,,,,4,,,61,100
40320,note_on,,,,,0,0,11,,,,,4,,,66,100
40320,note_on,,,,,32,0,10,,,,,3,,,78,100
40320,note_on,,,,,64,0,13,,,,,6,,,46,100
40320,note_on,,,,,64,0,14,,,,,7,,,66,100
40320,note_on,,,,,64,0,15,,,,,7,,,58,100
40320,note_on,,,,,64,0,12,,,,,5,,,58,100
40320,note_on,,,,,32,0,8,,,,,1,,,78,100
40320,note_on,,,,,0,0,14,,,,,7,,,73,100
40448,note_off,,,,,128,0,7,,,,,0,,,78,100
40448,note_off,,,,,128,0,12,,,,,5,,,58,100
40448,note_off,,,,,128,0,9,,,,,2,,,78,100
40448,note_off,,,,,128,0,13,,,,,6,,,46,100
40448,note_off,,,,,0,0,14,,,,,7,,,73,100
40448,note_off,,,,,128,0,10,,,,,3,,,78,100
40448,note_off,,,,,128,0,8,,,,,1,,,78,100
40448,note_off,,,,,128,0,15,,,,,7,,,58,100
40448,note_off,,,,,128,0,14,,,,,7,,,66,100
40512,note_on,,,,,64,0,9,,,,,2,,,76,100
40512,note_on,,,,,64,0,12,,,,,5,,,54,100
40512,note_on,,,,,64,0,15,,,,,7,,,54,100
40512,note_on,,,,,64,0,8,,,,,1,,,76,100
40512,note_on,,,,,64,0,14,,,,,7,,,68,100
40512,note_on,,,,,0,0,14,,,,,7,,,71,100
40512,note_on,,,,,64,0,7,,,,,0,,,76,100
40512,note_on,,,,,64,0,10,,,,,3,,,76,100
40512,note_on,,,,,64,0,13,,,,,6,,,42,100
40576,note_off,,,,,0,0,11,,,,,4,,,66,100
40576,note_off,,,,,256,0,11,,,,,4,,,61,100
40640,note_off,,,,,128,0,9,,,,,2,,,76,100
40640,note_off,,,,,128,0,10,,,,,3,,,76,100
40640,note_off,,,,,128,0,15,,,,,7,,,54,100
40640,note_off,,,,,0,0,14,,,,,7,,,71,100
40640,note_off,,,,,128,0,12,,,,,5,,,54,100
40640,note_off,,,,,128,0,7,,,,,0,,,76,100
40640,note_off,,,,,128,0,13,,,,,6,,,42,100
40640,note_off,,,,,128,0,8,,,,,1,,,76,100
40640,note_off,,,,,128,0,14,,,,,7,,,68,100
40704,note_on,,,,,64,0,7,,,,,0,,,74,100
40704,note_on,,,,,64,0,8,,,,,1,,,74,100
40704,note_on,,,,,64,0,14,,,,,7,,,66,100
40704,note_on,,,,,0,0,14,,,,,7,,,62,100
40704,note_on,,,,,0,0,11,,,,,4,,,66,100
40704,note_on,,,,,128,0,11,,,,,4,,,62,100
40704,note_on,,,,,64,0,10,,,,,3,,,74,100
40704,note_on,,,,,64,0,13,,,,,6,,,35,100
40704,note_on,,,,,64,0,9,,,,,2,,,74,100
40704,note_on,,,,,64,0,15,,,,,7,,,47,100
40704,note_on,,,,,64,0,12,,,,,5,,,47,100
40832,note_off,,,,,0,0,14,,,,,7,,,62,100
40832,note_off,,,,,128,0,10,,,,,3,,,74,100
40832,note_off,,,,,128,0,14,,,,,7,,,66,100
40832,note_off,,,,,128,0,11,,,,,4,,,62,100
40832,note_off,,,,,0,0,11,,,,,4,,,66,100
40832,note_off,,,,,128,0,9,,,,,2,,,74,100
40832,note_off,,,,,128,0,15,,,,,7,,,47,100
40832,note_off,,,,,128,0,13,,,,,6,,,35,100
40832,note_off,,,,,128,0,12,,,,,5,,,47,100
40896,note_on,,,,,64,0,9,,,,,2,,,71,100
40896,note_on,,,,,64,0,12,,,,,5,,,52,100
40896,note_on,,,,,64,0,11,,,,,4,,,67,100
40896,note_on,,,,,64,0,13,,,,,6,,,40,100
40896,note_on,,,,,64,0,14,,,,,7,,,68,100
40896,note_on,,,,,0,0,14,,,,,7,,,71,100
40896,note_on,,,,,64,0,15,,,,,7,,,52,100
40896,note_on,,,,,64,0,10,,,,,3,,,71,100
40960,note_off,,,,,256,0,8,,,,,1,,,74,100
40960,note_off,,,,,256,0,7,,,,,0,,,74,100
41024,note_off,,,,,128,0,14,,,,,7,,,68,100
41024,note_off,,,,,0,0,14,,,,,7,,,71,100
41024,note_off,,,,,128,0,13,,,,,6,,,40,100
41024,note_off,,,,,128,0,15,,,,,7,,,52,100
41024,note_off,,,,,128,0,11,,,,,4,,,67,100
41024,note_off,,,,,128,0,12,,,,,5,,,52,100
41088,note_on,,,,,0,0,14,,,,,7,,,73,100
41088,note_on,,,,,64,0,13,,,,,6,,,42,100
41088,note_on,,,,,0,0,11,,,,,4,,,66,100
41088,note_on,,,,,64,0,11,,,,,4,,,61,100
41088,note_on,,,,,128,0,8,,,,,1,,,73,100
41088,note_on,,,,,64,0,14,,,,,7,,,71,100
41088,note_on,,,,,64,0,15,,,,,7,,,54,100
41088,note_on,,,,,64,0,12,,,,,5,,,54,100
41088,note_on,,,,,128,0,7,,,,,0,,,73,100
41152,note_off,,,,,256,0,9,,,,,2,,,71,100
41152,note_off,,,,,256,0,10,,,,,3,,,71,100
41216,note_off,,,,,0,0,14,,,,,7,,,73,100
41216,note_off,,,,,128,0,15,,,,,7,,,54,100
41216,note_off,,,,,128,0,14,,,,,7,,,71,100
41216,note_off,,,,,128,0,11,,,,,4,,,61,100
41216,note_off,,,,,128,0,13,,,,,6,,,42,100
41216,note_off,,,,,128,0,12,,,,,5,,,54,100
41216,note_off,,,,,0,0,11,,,,,4,,,66,100
41280,note_on,,,,,64,0,13,,,,,6,,,42,100
41280,note_on,,,,,0,0,14,,,,,7,,,70,100
41280,note_on,,,,,64,0,15,,,,,7,,,42,100
41280,note_on,,,,,64,0,12,,,,,5,,,42,100
41280,note_on,,,,,128,0,9,,,,,2,,,70,100
41280,note_on,,,,,64,0,11,,,,,4,,,66,100
41280,note_on,,,,,128,0,10,,,,,3,,,70,100
41280,note_on,,,,,64,0,14,,,,,7,,,61,100
41344,note_off,,,,,256,0,7,,,,,0,,,73,100
41344,note_off,,,,,256,0,8,,,,,1,,,73,100
41408,note_off,,,,,128,0,15,,,,,7,,,42,100
41408,note_off,,,,,128,0,12,,,,,5,,,42,100
41408,note_off,,,,,128,0,9,,,,,2,,,70,100
41408,note_off,,,,,128,0,10,,,,,3,,,70,100
41408,note_off,,,,,128,0,14,,,,,7,,,61,100
41408,note_off,,,,,128,0,11,,,,,4,,,66,100
41408,note_off,,,,,0,0,14,,,,,7,,,70,100
41408,note_off,,,,,128,0,13,,,,,6,,,42,100
41472,note_on,,,,,0,0,11,,,,,4,,,66,100
41472,note_on,,,,,128,0,7,,,,,0,,,71,100
41472,note_on,,,,,64,0,15,,,,,7,,,47,100
41472,note_on,,,,,64,0,11,,,,,4,,,62,100
41472,note_on,,,,,64,0,10,,,,,3,,,71,100
41472,note_on,,,,,64,0,9,,,,,2,,,71,100
41472,note_on,,,,,64,0,13,,,,,6,,,35,100
41472,note_on,,,,,64,0,12,,,,,5,,,47,100
41472,note_on,,,,,128,0,8,,,,,1,,,71,100
41500,note_on,,,,,92,0,14,,,,,7,,,62,100
41532,note_on,,,,,32,0,14,,,,,7,,,66,100
41564,program_change,,,,,92,0,7,,,,,0,40,,,
41564,note_on,,,,,32,0,14,,,,,7,,,71,100
41568,note_on,,,,,4,0,7,,,,,0,,,74,100
41660,note_off,,,,,92,0,7,,,,,0,,,74,100
41664,note_on,,,,,4,0,7,,,,,0,,,73,100
41728,note_off,,,,,256,0,13,,,,,6,,,35,100
41728,note_off,,,,,256,0,11,,,,,4,,,62,100
41728,note_off,,,,,0,0,11,,,,,4,,,66,100
41728,note_off,,,,,256,0,9,,,,,2,,,71,100
41728,note_off,,,,,256,0,15,,,,,7,,,47,100
41728,note_off,,,,,256,0,12,,,,,5,,,47,100
41728,note_off,,,,,64,0,7,,,,,0,,,71,100
41728,note_off,,,,,0,0,7,,,,,0,,,73,100
41728,note_off,,,,,256,0,10,,,,,3,,,71,100
41728,note_off,,,,,256,0,8,,,,,1,,,71,100
41756,note_off,,,,,192,0,14,,,,,7,,,62,100
41760,note_on,,,,,32,0,7,,,,,0,,,71,100
41788,note_off,,,,,32,0,14,,,,,7,,,66,100
41820,note_off,,,,,32,0,14,,,,,7,,,71,100
41824,note_off,,,,,64,0,7,,,,,0,,,71,100
41856,note_on,,,,,32,0,7,,,,,0,,,78,100
41920,note_off,,,,,64,0,7,,,,,0,,,78,100
41952,note_on,,,,,32,0,7,,,,,0,,,74,100
42016,note_off,,,,,64,0,7,,,,,0,,,74,100
42048,note_on,,,,,32,0,7,,,,,0,,,73,100
42112,note_off,,,,,64,0,7,,,,,0,,,73,100
42144,note_on,,,,,32,0,7,,,,,0,,,71,100
42208,note_off,,,,,64,0,7,,,,,0,,,71,100
42240,note_on,,,,,420,0,14,,,,,7,,,62,100
42240,note_on,,,,,512,0,15,,,,,7,,,47,100
42240,note_on,,,,,32,0,7,,,,,0,,,66,100
42240,note_on,,,,,512,0,12,,,,,5,,,47,100
42240,note_on,,,,,512,0,13,,,,,6,,,35,100
42240,note_on,,,,,0,0,14,,,,,7,,,66,100
42332,note_off,,,,,92,0,7,,,,,0,,,66,100
42336,note_on,,,,,4,0,7,,,,,0,,,74,100
42400,note_off,,,,,64,0,7,,,,,0,,,74,100
42432,note_on,,,,,32,0,7,,,,,0,,,73,100
42496,note_off,,,,,256,0,13,,,,,6,,,35,100
42496,note_off,,,,,256,0,15,,,,,7,,,47,100
42496,note_off,,,,,64,0,7,,,,,0,,,73,100
42496,note_off,,,,,256,0,12,,,,,5,,,47,100
42496,note_off,,,,,0,0,14,,,,,7,,,66,100
42496,note_off,,,,,256,0,14,,,,,7,,,62,100
42528,note_on,,,,,32,0,7,,,,,0,,,71,100
42592,note_off,,,,,64,0,7,,,,,0,,,71,100
42624,note_on,,,,,32,0,7,,,,,0,,,78,100
42688,note_off,,,,,64,0,7,,,,,0,,,78,100
42720,note_on,,,,,32,0,7,,,,,0,,,74,100
42784,note_off,,,,,64,0,7,,,,,0,,,74,100
42816,note_on,,,,,32,0,7,,,,,0,,,73,100
42880,note_off,,,,,64,0,7,,,,,0,,,73,100
42912,note_on,,,,,32,0,7,,,,,0,,,71,100
42976,note_off,,,,,64,0,7,,,,,0,,,71,100
43008,note_on,,,,,512,0,14,,,,,7,,,62,100
43008,note_on,,,,,0,0,14,,,,,7,,,66,100
43008,note_on,,,,,32,0,7,,,,,0,,,66,100
43008,note_on,,,,,512,0,13,,,,,6,,,35,85
43008,note_on,,,,,512,0,15,,,,,7,,,47,100
43008,note_on,,,,,512,0,12,,,,,5,,,47,85
43100,note_off,,,,,92,0,7,,,,,0,,,66,100
43104,note_on,,,,,4,0,7,,,,,0,,,74,100
43196,note_off,,,,,92,0,7,,,,,0,,,74,100
43200,note_on,,,,,4,0,7,,,,,0,,,73,100
43264,note_off,,,,,256,0,12,,,,,5,,,47,100
43264,note_off,,,,,0,0,14,,,,,7,,,66,100
43264,note_off,,,,,256,0,14,,,,,7,,,62,100
43264,note_off,,,,,256,0,13,,,,,6,,,35,100
43264,note_off,,,,,256,0,15,,,,,7,,,47,100
43292,note_off,,,,,92,0,7,,,,,0,,,73,100
43296,note_on,,,,,4,0,7,,,,,0,,,71,100
43388,note_off,,,,,92,0,7,,,,,0,,,71,100
43392,note_on,,,,,4,0,7,,,,,0,,,78,100
43484,note_off,,,,,92,0,7,,,,,0,,,78,100
43488,note_on,,,,,4,0,7,,,,,0,,,74,100
43580,note_off,,,,,92,0,7,,,,,0,,,74,100
43584,note_on,,,,,4,0,7,,,,,0,,,73,100
43676,note_off,,,,,92,0,7,,,,,0,,,73,100
43680,note_on,,,,,4,0,7,,,,,0,,,71,100
43772,note_off,,,,,92,0,7,,,,,0,,,71,100
43776,note_on,,,,,512,0,12,,,,,5,,,47,85
43776,note_on,,,,,512,0,14,,,,,7,,,62,100
43776,note_on,,,,,0,0,14,,,,,7,,,66,100
43776,note_on,,,,,4,0,7,,,,,0,,,83,100
43776,note_on,,,,,512,0,13,,,,,6,,,35,85
43776,note_on,,,,,512,0,15,,,,,7,,,47,100
43868,note_off,,,,,92,0,7,,,,,0,,,83,100
43872,note_on,,,,,4,0,7,,,,,0,,,74,100
43964,note_off,,,,,92,0,7,,,,,0,,,74,100
43968,note_on,,,,,4,0,7,,,,,0,,,73,100
44032,note_off,,,,,64,0,7,,,,,0,,,73,100
44032,note_off,,,,,256,0,13,,,,,6,,,35,100
44032,note_off,,,,,0,0,14,,,,,7,,,66,100
44032,note_off,,,,,256,0,12,,,,,5,,,47,100
44032,note_off,,,,,256,0,15,,,,,7,,,47,100
44032,note_off,,,,,256,0,14,,,,,7,,,62,100
44064,note_on,,,,,32,0,7,,,,,0,,,71,100
44128,note_off,,,,,64,0,7,,,,,0,,,71,100
44160,note_on,,,,,32,0,7,,,,,0,,,78,100
44224,note_off,,,,,64,0,7,,,,,0,,,78,100
44256,note_on,,,,,32,0,7,,,,,0,,,74,100
44320,note_off,,,,,64,0,7,,,,,0,,,74,100
44352,note_on,,,,,32,0,7,,,,,0,,,73,100
44416,note_off,,,,,64,0,7,,,,,0,,,73,100
44448,note_on,,,,,32,0,7,,,,,0,,,71,100
44512,note_off,,,,,64,0,7,,,,,0,,,71,100
44544,note_on,,,,,512,0,14,,,,,7,,,62,100
44544,note_on,,,,,32,0,7,,,,,0,,,83,100
44544,note_on,,,,,512,0,13,,,,,6,,,35,85
44544,note_on,,,,,512,0,12,,,,,5,,,47,85
44544,note_on,,,,,0,0,14,,,,,7,,,66,100
44544,note_on,,,,,512,0,15,,,,,7,,,47,100
44636,note_off,,,,,92,0,7,,,,,0,,,83,100
44640,note_on,,,,,4,0,7,,,,,0,,,74,100
44732,note_off,,,,,92,0,7,,,,,0,,,74,100
44736,note_on,,,,,4,0,7,,,,,0,,,73,100
44800,note_off,,,,,256,0,13,,,,,6,,,35,100
44800,note_off,,,,,256,0,14,,,,,7,,,62,100
44800,note_off,,,,,64,0,7,,,,,0,,,73,100
44800,note_off,,,,,256,0,15,,,,,7,,,47,100
44800,note_off,,,,,256,0,12,,,,,5,,,47,100
44800,note_off,,,,,0,0,14,,,,,7,,,66,100
44832,note_on,,,,,32,0,7,,,,,0,,,71,100
44896,note_off,,,,,64,0,7,,,,,0,,,71,100
44928,note_on,,,,,32,0,7,,,,,0,,,78,100
44992,note_off,,,,,64,0,7,,,,,0,,,78,100
45024,note_on,,,,,32,0,7,,,,,0,,,74,100
45088,note_off,,,,,64,0,7,,,,,0,,,74,100
45120,note_on,,,,,32,0,7,,,,,0,,,73,100
45184,note_off,,,,,64,0,7,,,,,0,,,73,100
45216,note_on,,,,,32,0,7,,,,,0,,,71,100
45280,note_off,,,,,64,0,7,,,,,0,,,71,100
45312,note_on,,,,,512,0,12,,,,,5,,,47,85
45312,note_on,,,,,32,0,7,,,,,0,,,83,100
45312,note_on,,,,,512,0,15,,,,,7,,,47,100
45312,note_on,,,,,512,0,14,,,,,7,,,62,100
45312,note_on,,,,,0,0,14,,,,,7,,,66,100
45312,note_on,,,,,512,0,13,,,,,6,,,35,85
45440,note_off,,,,,128,0,7,,,,,0,,,83,100
45504,note_on,,,,,64,0,7,,,,,0,,,71,100
45568,note_off,,,,,256,0,13,,,,,6,,,35,100
45568,note_off,,,,,0,0,14,,,,,7,,,66,100
45568,note_off,,,,,256,0,15,,,,,7,,,47,100
45568,note_off,,,,,256,0,12,,,,,5,,,47,100
45568,note_off,,,,,256,0,14,,,,,7,,,62,100
45632,note_off,,,,,128,0,7,,,,,0,,,71,100
45792,note_on,,,,,160,0,7,,,,,0,,,78,100
45856,note_off,,,,,64,0,7,,,,,0,,,78,100
45888,note_on,,,,,32,0,7,,,,,0,,,74,100
45952,note_off,,,,,64,0,7,,,,,0,,,74,100
45984,note_on,,,,,32,0,7,,,,,0,,,71,100
46048,note_off,,,,,64,0,7,,,,,0,,,71,100
46080,note_on,,,,,512,0,14,,,,,7,,,62,100
46080,note_on,,,,,512,0,12,,,,,5,,,47,85
46080,note_on,,,,,512,0,13,,,,,6,,,35,85
46080,note_on,,,,,32,0,7,,,,,0,,,83,100
46080,note_on,,,,,512,0,15,,,,,7,,,47,100
46080,note_on,,,,,0,0,14,,,,,7,,,66,100
46144,note_off,,,,,64,0,7,,,,,0,,,83,100
46176,note_on,,,,,32,0,7,,,,,0,,,78,100
46208,note_off,,,,,0,0,14,,,,,7,,,66,100
46208,note_off,,,,,128,0,15,,,,,7,,,47,100
46208,note_off,,,,,128,0,12,,,,,5,,,47,100
46208,note_off,,,,,128,0,13,,,,,6,,,35,100
46208,note_off,,,,,128,0,14,,,,,7,,,62,100
46240,note_off,,,,,64,0,7,,,,,0,,,78,100
46272,note_on,,,,,64,0,14,,,,,7,,,64,100
46272,note_on,,,,,64,0,12,,,,,5,,,49,85
46272,note_on,,,,,64,0,13,,,,,6,,,37,85
46272,note_on,,,,,32,0,7,,,,,0,,,74,100
46272,note_on,,,,,64,0,15,,,,,7,,,49,100
46336,note_off,,,,,64,0,7,,,,,0,,,74,100
46368,note_on,,,,,32,0,7,,,,,0,,,71,100
46400,note_off,,,,,128,0,15,,,,,7,,,49,100
46400,note_off,,,,,128,0,12,,,,,5,,,49,100
46400,note_off,,,,,128,0,13,,,,,6,,,37,100
46400,note_off,,,,,128,0,14,,,,,7,,,64,100
46432,note_off,,,,,64,0,7,,,,,0,,,71,100
46464,note_on,,,,,32,0,7,,,,,0,,,83,100
46464,note_on,,,,,64,0,12,,,,,5,,,50,85
46464,note_on,,,,,64,0,15,,,,,7,,,50,100
46464,note_on,,,,,64,0,13,,,,,6,,,38,85
46464,note_on,,,,,64,0,14,,,,,7,,,66,100
46556,note_off,,,,,92,0,7,,,,,0,,,83,100
46560,note_on,,,,,4,0,7,,,,,0,,,81,100
46592,note_off,,,,,128,0,12,,,,,5,,,50,100
46592,note_off,,,,,128,0,13,,,,,6,,,38,100
46592,note_off,,,,,128,0,14,,,,,7,,,66,100
46592,note_off,,,,,128,0,15,,,,,7,,,50,100
46652,note_off,,,,,92,0,7,,,,,0,,,81,100
46656,note_on,,,,,64,0,12,,,,,5,,,47,85
46656,note_on,,,,,4,0,7,,,,,0,,,79,100
46656,note_on,,,,,64,0,13,,,,,6,,,35,85
46656,note_on,,,,,64,0,15,,,,,7,,,47,100
46656,note_on,,,,,0,0,14,,,,,7,,,62,100
46656,note_on,,,,,64,0,14,,,,,7,,,66,100
46720,note_off,,,,,64,0,7,,,,,0,,,79,100
46752,note_on,,,,,32,0,7,,,,,0,,,78,100
46784,note_off,,,,,128,0,15,,,,,7,,,47,100
46784,note_off,,,,,128,0,13,,,,,6,,,35,100
46784,note_off,,,,,128,0,12,,,,,5,,,47,100
46784,note_off,,,,,128,0,14,,,,,7,,,66,100
46784,note_off,,,,,0,0,14,,,,,7,,,62,100
46816,note_off,,,,,64,0,7,,,,,0,,,78,100
46848,note_on,,,,,64,0,12,,,,,5,,,52,85
46848,note_on,,,,,32,0,7,,,,,0,,,79,100
46848,note_on,,,,,64,0,15,,,,,7,,,52,100
46848,note_on,,,,,0,0,14,,,,,7,,,67,100
46848,note_on,,,,,64,0,14,,,,,7,,,71,100
46848,note_on,,,,,64,0,13,,,,,6,,,40,85
46912,note_off,,,,,64,0,7,,,,,0,,,79,100
46944,note_on,,,,,32,0,7,,,,,0,,,83,100
47008,note_off,,,,,64,0,7,,,,,0,,,83,100
47040,note_on,,,,,32,0,7,,,,,0,,,81,100
47104,note_off,,,,,256,0,12,,,,,5,,,52,100
47104,note_off,,,,,0,0,14,,,,,7,,,67,100
47104,note_off,,,,,256,0,14,,,,,7,,,71,100
47104,note_off,,,,,256,0,13,,,,,6,,,40,100
47104,note_off,,,,,256,0,15,,,,,7,,,52,100
47104,note_off,,,,,64,0,7,,,,,0,,,81,100
47136,note_on,,,,,32,0,7,,,,,0,,,83,100
47200,note_off,,,,,64,0,7,,,,,0,,,83,100
47232,note_on,,,,,32,0,7,,,,,0,,,79,100
47296,note_off,,,,,64,0,7,,,,,0,,,79,100
47328,note_on,,,,,32,0,7,,,,,0,,,81,100
47392,note_off,,,,,64,0,7,,,,,0,,,81,100
47424,note_on,,,,,32,0,7,,,,,0,,,78,100
47488,note_off,,,,,64,0,7,,,,,0,,,78,100
47520,note_on,,,,,32,0,7,,,,,0,,,79,100
47584,note_off,,,,,64,0,7,,,,,0,,,79,100
47612,program_change,,,,,508,0,12,,,,,5,43,,,
47616,note_on,,,,,32,0,7,,,,,0,,,76,100
47616,note_on,,,,,512,0,15,,,,,7,,,55,100
47616,note_on,,,,,4,0,12,,,,,5,,,55,85
47616,note_on,,,,,512,0,14,,,,,7,,,74,100
47616,note_on,,,,,0,0,14,,,,,7,,,71,100
47616,note_on,,,,,512,0,13,,,,,6,,,43,85
47680,note_off,,,,,64,0,12,,,,,5,,,55,100
47680,note_off,,,,,64,0,7,,,,,0,,,76,100
47712,note_on,,,,,32,0,7,,,,,0,,,79,100
47712,note_on,,,,,32,0,12,,,,,5,,,59,85
47776,note_off,,,,,64,0,12,,,,,5,,,59,100
47776,note_off,,,,,64,0,7,,,,,0,,,79,100
47808,note_on,,,,,32,0,12,,,,,5,,,57,85
47808,note_on,,,,,32,0,7,,,,,0,,,78,100
47872,note_off,,,,,256,0,13,,,,,6,,,43,100
47872,note_off,,,,,256,0,14,,,,,7,,,74,100
47872,note_off,,,,,64,0,7,,,,,0,,,78,100
47872,note_off,,,,,256,0,15,,,,,7,,,55,100
47872,note_off,,,,,64,0,12,,,,,5,,,57,100
47872,note_off,,,,,0,0,14,,,,,7,,,71,100
47904,note_on,,,,,32,0,7,,,,,0,,,79,100
47904,note_on,,,,,32,0,12,,,,,5,,,59,85
47968,note_off,,,,,64,0,12,,,,,5,,,59,100
47968,note_off,,,,,64,0,7,,,,,0,,,79,100
48000,note_on,,,,,32,0,7,,,,,0,,,76,100
48000,note_on,,,,,32,0,12,,,,,5,,,55,85
48064,note_off,,,,,64,0,12,,,,,5,,,55,100
48064,note_off,,,,,64,0,7,,,,,0,,,76,100
48096,note_on,,,,,32,0,12,,,,,5,,,57,85
48096,note_on,,,,,32,0,7,,,,,0,,,78,100
48160,note_off,,,,,64,0,12,,,,,5,,,57,100
48160,note_off,,,,,64,0,7,,,,,0,,,78,100
48192,note_on,,,,,32,0,7,,,,,0,,,74,100
48192,note_on,,,,,32,0,12,,,,,5,,,54,85
48256,note_off,,,,,64,0,7,,,,,0,,,74,100
48256,note_off,,,,,64,0,12,,,,,5,,,54,100
48288,note_on,,,,,32,0,12,,,,,5,,,55,85
48288,note_on,,,,,32,0,7,,,,,0,,,76,100
48352,note_off,,,,,64,0,12,,,,,5,,,55,100
48352,note_off,,,,,64,0,7,,,,,0,,,76,100
48384,note_on,,,,,512,0,14,,,,,7,,,67,100
48384,note_on,,,,,512,0,13,,,,,6,,,40,85
48384,note_on,,,,,32,0,12,,,,,5,,,52,85
48384,note_on,,,,,0,0,14,,,,,7,,,71,100
48384,note_on,,,,,512,0,15,,,,,7,,,52,100
48384,note_on,,,,,32,0,7,,,,,0,,,73,100
48448,note_off,,,,,64,0,12,,,,,5,,,52,100
48448,note_off,,,,,64,0,7,,,,,0,,,73,100
48480,note_on,,,,,32,0,12,,,,,5,,,55,85
48480,note_on,,,,,32,0,7,,,,,0,,,76,100
48544,note_off,,,,,64,0,12,,,,,5,,,55,100
48544,note_off,,,,,64,0,7,,,,,0,,,76,100
48576,note_on,,,,,32,0,12,,,,,5,,,54,85
48576,note_on,,,,,32,0,7,,,,,0,,,74,100
48640,note_off,,,,,256,0,14,,,,,7,,,67,100
48640,note_off,,,,,64,0,12,,,,,5,,,54,100
48640,note_off,,,,,256,0,13,,,,,6,,,40,100
48640,note_off,,,,,64,0,7,,,,,0,,,74,100
48640,note_off,,,,,256,0,15,,,,,7,,,52,100
48640,note_off,,,,,0,0,14,,,,,7,,,71,100
48672,note_on,,,,,32,0,7,,,,,0,,,76,100
48672,note_on,,,,,32,0,12,,,,,5,,,55,85
48736,note_off,,,,,64,0,12,,,,,5,,,55,100
48736,note_off,,,,,64,0,7,,,,,0,,,76,100
48768,note_on,,,,,32,0,12,,,,,5,,,52,85
48768,note_on,,,,,32,0,7,,,,,0,,,73,100
48832,note_off,,,,,64,0,12,,,,,5,,,52,100
48832,note_off,,,,,64,0,7,,,,,0,,,73,100
48864,note_on,,,,,32,0,7,,,,,0,,,74,100
48864,note_on,,,,,32,0,12,,,,,5,,,54,85
48928,note_off,,,,,64,0,12,,,,,5,,,54,100
48928,note_off,,,,,64,0,7,,,,,0,,,74,100
48960,note_on,,,,,32,0,12,,,,,5,,,50,85
48960,note_on,,,,,32,0,7,,,,,0,,,71,100
49024,note_off,,,,,64,0,12,,,,,5,,,50,100
49024,note_off,,,,,64,0,7,,,,,0,,,71,100
49056,note_on,,,,,32,0,12,,,,,5,,,52,85
49056,note_on,,,,,32,0,7,,,,,0,,,73,100
49120,note_off,,,,,64,0,7,,,,,0,,,73,100
49120,note_off,,,,,64,0,12,,,,,5,,,52,100
49152,note_on,,,,,512,0,13,,,,,6,,,33,85
49152,note_on,,,,,0,0,14,,,,,7,,,64,100
49152,note_on,,,,,32,0,7,,,,,0,,,69,100
49152,note_on,,,,,512,0,14,,,,,7,,,61,100
49152,note_on,,,,,32,0,12,,,,,5,,,49,85
49152,note_on,,,,,512,0,15,,,,,7,,,45,100
49216,note_off,,,,,64,0,7,,,,,0,,,69,100
49248,note_on,,,,,32,0,7,,,,,0,,,73,100
49280,note_off,,,,,128,0,12,,,,,5,,,49,100
49312,note_off,,,,,64,0,7,,,,,0,,,73,100
49344,note_on,,,,,32,0,7,,,,,0,,,76,100
49344,note_on,,,,,64,0,12,,,,,5,,,45,85
49408,note_off,,,,,256,0,15,,,,,7,,,45,100
49408,note_off,,,,,64,0,7,,,,,0,,,76,100
49408,note_off,,,,,256,0,14,,,,,7,,,61,100
49408,note_off,,,,,0,0,14,,,,,7,,,64,100
49408,note_off,,,,,256,0,13,,,,,6,,,33,100
49440,note_on,,,,,32,0,7,,,,,0,,,73,100
49472,note_off,,,,,128,0,12,,,,,5,,,45,100
49504,note_off,,,,,64,0,7,,,,,0,,,73,100
49536,note_on,,,,,0,0,14,,,,,7,,,57,100
49536,note_on,,,,,128,0,14,,,,,7,,,61,100
49536,note_on,,,,,64,0,12,,,,,5,,,43,85
49536,note_on,,,,,32,0,7,,,,,0,,,69,100
49536,note_on,,,,,128,0,13,,,,,6,,,43,85
49536,note_on,,,,,128,0,15,,,,,7,,,43,100
49600,note_off,,,,,64,0,7,,,,,0,,,69,100
49632,note_on,,,,,32,0,7,,,,,0,,,73,100
49696,note_off,,,,,64,0,7,,,,,0,,,73,100
49728,note_on,,,,,32,0,7,,,,,0,,,71,100
49792,note_off,,,,,256,0,15,,,,,7,,,43,100
49792,note_off,,,,,256,0,12,,,,,5,,,43,100
49792,note_off,,,,,64,0,7,,,,,0,,,71,100
49792,note_off,,,,,256,0,14,,,,,7,,,61,100
49792,note_off,,,,,0,0,14,,,,,7,,,57,100
49792,note_off,,,,,256,0,13,,,,,6,,,43,100
49824,note_on,,,,,32,0,7,,,,,0,,,69,100
49888,note_off,,,,,64,0,7,,,,,0,,,69,100
49920,note_on,,,,,0,0,14,,,,,7,,,57,100
49920,note_on,,,,,128,0,12,,,,,5,,,42,85
49920,note_on,,,,,32,0,7,,,,,0,,,74,100
49920,note_on,,,,,128,0,13,,,,,6,,,42,85
49920,note_on,,,,,128,0,14,,,,,7,,,62,100
49920,program_change,,,,,8192,0,10,,,,,3,40,,,
49920,note_on,,,,,128,0,15,,,,,7,,,42,100
49984,note_off,,,,,64,0,7,,,,,0,,,74,100
50016,note_on,,,,,32,0,7,,,,,0,,,66,100
50080,note_off,,,,,64,0,7,,,,,0,,,66,100
50112,note_on,,,,,192,0,10,,,,,3,,,74,100
50112,note_on,,,,,32,0,7,,,,,0,,,64,100
50176,note_off,,,,,256,0,14,,,,,7,,,62,100
50176,note_off,,,,,256,0,12,,,,,5,,,42,100
50176,note_off,,,,,256,0,13,,,,,6,,,42,100
50176,note_off,,,,,0,0,14,,,,,7,,,57,100
50176,note_off,,,,,64,0,7,,,,,0,,,64,100
50176,note_off,,,,,256,0,15,,,,,7,,,42,100
50208,note_on,,,,,32,0,7,,,,,0,,,66,100
50240,note_off,,,,,128,0,10,,,,,3,,,74,100
50272,note_off,,,,,64,0,7,,,,,0,,,66,100
50304,note_on,,,,,32,0,7,,,,,0,,,74,100
50304,note_on,,,,,64,0,10,,,,,3,,,69,100
50396,note_off,,,,,92,0,7,,,,,0,,,74,100
50400,note_on,,,,,4,0,7,,,,,0,,,73,100
50432,note_off,,,,,128,0,10,,,,,3,,,69,100
50464,note_off,,,,,64,0,7,,,,,0,,,73,100
50496,note_on,,,,,320,0,12,,,,,5,,,42,85
50496,note_on,,,,,320,0,15,,,,,7,,,42,100
50496,note_on,,,,,320,0,14,,,,,7,,,57,100
50496,note_on,,,,,0,0,14,,,,,7,,,62,100
50496,note_on,,,,,32,0,7,,,,,0,,,71,100
50496,note_on,,,,,320,0,13,,,,,6,,,42,85
50496,note_on,,,,,64,0,10,,,,,3,,,66,100
50560,note_off,,,,,64,0,7,,,,,0,,,71,100
50592,note_on,,,,,32,0,7,,,,,0,,,69,100
50624,note_off,,,,,128,0,15,,,,,7,,,42,100
50624,note_off,,,,,128,0,12,,,,,5,,,42,100
50624,note_off,,,,,128,0,13,,,,,6,,,42,100
50624,note_off,,,,,128,0,10,,,,,3,,,66,100
50624,note_off,,,,,0,0,14,,,,,7,,,62,100
50624,note_off,,,,,128,0,14,,,,,7,,,57,100
50656,note_off,,,,,64,0,7,,,,,0,,,69,100
50688,note_on,,,,,64,0,15,,,,,7,,,43,100
50688,note_on,,,,,64,0,14,,,,,7,,,59,100
50688,note_on,,,,,64,0,12,,,,,5,,,43,85
50688,note_on,,,,,64,0,13,,,,,6,,,43,85
50688,note_on,,,,,0,0,14,,,,,7,,,62,100
50688,note_on,,,,,32,0,7,,,,,0,,,71,100
50752,note_off,,,,,64,0,12,,,,,5,,,43,100
50752,note_off,,,,,64,0,7,,,,,0,,,71,100
50784,note_on,,,,,32,0,7,,,,,0,,,67,100
50784,note_on,,,,,32,0,12,,,,,5,,,59,85
50848,note_off,,,,,64,0,12,,,,,5,,,59,100
50848,note_off,,,,,64,0,7,,,,,0,,,67,100
50880,note_on,,,,,32,0,12,,,,,5,,,57,85
50880,note_on,,,,,256,0,10,,,,,3,,,74,100
50880,note_on,,,,,32,0,7,,,,,0,,,66,100
50944,note_off,,,,,64,0,7,,,,,0,,,66,100
50944,note_off,,,,,256,0,14,,,,,7,,,59,100
50944,note_off,,,,,0,0,14,,,,,7,,,62,100
50944,note_off,,,,,256,0,15,,,,,7,,,43,100
50944,note_off,,,,,64,0,12,,,,,5,,,57,100
50944,note_off,,,,,256,0,13,,,,,6,,,43,100
50976,note_on,,,,,32,0,7,,,,,0,,,67,100
50976,note_on,,,,,32,0,12,,,,,5,,,59,85
51008,note_off,,,,,128,0,10,,,,,3,,,74,100
51040,note_off,,,,,64,0,7,,,,,0,,,67,100
51040,note_off,,,,,64,0,12,,,,,5,,,59,100
51072,note_on,,,,,32,0,7,,,,,0,,,76,100
51072,note_on,,,,,64,0,10,,,,,3,,,71,100
51072,note_on,,,,,32,0,12,,,,,5,,,55,85
51164,note_off,,,,,92,0,7,,,,,0,,,76,100
51168,note_on,,,,,4,0,7,,,,,0,,,74,100
51200,note_off,,,,,128,0,12,,,,,5,,,55,100
51200,note_off,,,,,128,0,10,,,,,3,,,71,100
51260,note_off,,,,,92,0,7,,,,,0,,,74,100
51264,note_on,,,,,64,0,12,,,,,5,,,43,85
51264,note_on,,,,,64,0,10,,,,,3,,,67,100
51264,note_on,,,,,320,0,15,,,,,7,,,43,100
51264,note_on,,,,,320,0,14,,,,,7,,,59,100
51264,note_on,,,,,4,0,7,,,,,0,,,73,100
51264,note_on,,,,,0,0,14,,,,,7,,,64,100
51264,note_on,,,,,320,0,13,,,,,6,,,43,85
51328,note_off,,,,,64,0,7,,,,,0,,,73,100
51360,note_on,,,,,32,0,7,,,,,0,,,71,100
51392,note_off,,,,,128,0,12,,,,,5,,,43,100
51392,note_off,,,,,128,0,14,,,,,7,,,59,100
51392,note_off,,,,,128,0,15,,,,,7,,,43,100
51392,note_off,,,,,128,0,10,,,,,3,,,67,100
51392,note_off,,,,,0,0,14,,,,,7,,,64,100
51392,note_off,,,,,128,0,13,,,,,6,,,43,100
51424,note_off,,,,,64,0,7,,,,,0,,,71,100
51456,note_on,,,,,32,0,7,,,,,0,,,73,100
51456,note_on,,,,,64,0,14,,,,,7,,,61,100
51456,note_on,,,,,0,0,14,,,,,7,,,64,100
51456,note_on,,,,,64,0,12,,,,,5,,,45,85
51456,note_on,,,,,64,0,15,,,,,7,,,45,100
51456,note_on,,,,,64,0,13,,,,,6,,,45,85
51520,note_off,,,,,64,0,12,,,,,5,,,45,100
51520,note_off,,,,,64,0,7,,,,,0,,,73,100
51552,note_on,,,,,32,0,12,,,,,5,,,61,85
51552,note_on,,,,,32,0,7,,,,,0,,,69,100
51616,note_off,,,,,64,0,7,,,,,0,,,69,100
51616,note_off,,,,,64,0,12,,,,,5,,,61,100
51648,note_on,,,,,32,0,7,,,,,0,,,67,100
51648,note_on,,,,,32,0,12,,,,,5,,,59,85
51648,note_on,,,,,256,0,10,,,,,3,,,76,100
51712,note_off,,,,,256,0,14,,,,,7,,,61,100
51712,note_off,,,,,0,0,14,,,,,7,,,64,100
51712,note_off,,,,,64,0,7,,,,,0,,,67,100
51712,note_off,,,,,64,0,12,,,,,5,,,59,100
51712,note_off,,,,,256,0,15,,,,,7,,,45,100
51712,note_off,,,,,256,0,13,,,,,6,,,45,100
51744,note_on,,,,,32,0,12,,,,,5,,,61,85
51744,note_on,,,,,32,0,7,,,,,0,,,69,100
51776,note_off,,,,,128,0,10,,,,,3,,,76,100
51808,note_off,,,,,64,0,7,,,,,0,,,69,100
51808,note_off,,,,,64,0,12,,,,,5,,,61,100
51840,note_on,,,,,32,0,12,,,,,5,,,57,85
51840,note_on,,,,,64,0,10,,,,,3,,,73,100
51840,note_on,,,,,32,0,7,,,,,0,,,78,100
51932,note_off,,,,,92,0,7,,,,,0,,,78,100
51936,note_on,,,,,4,0,7,,,,,0,,,76,100
51968,note_off,,,,,128,0,12,,,,,5,,,57,100
51968,note_off,,,,,128,0,10,,,,,3,,,73,100
52028,note_off,,,,,92,0,7,,,,,0,,,76,100
52032,note_on,,,,,4,0,7,,,,,0,,,74,100
52032,note_on,,,,,320,0,14,,,,,7,,,61,100
52032,note_on,,,,,320,0,15,,,,,7,,,45,100
52032,note_on,,,,,64,0,10,,,,,3,,,69,100
52032,note_on,,,,,320,0,13,,,,,6,,,33,85
52032,note_on,,,,,64,0,12,,,,,5,,,45,85
52032,note_on,,,,,0,0,14,,,,,7,,,66,100
52096,note_off,,,,,64,0,7,,,,,0,,,74,100
52128,note_on,,,,,32,0,7,,,,,0,,,73,100
52160,note_off,,,,,0,0,14,,,,,7,,,66,100
52160,note_off,,,,,128,0,13,,,,,6,,,33,100
52160,note_off,,,,,128,0,12,,,,,5,,,45,100
52160,note_off,,,,,128,0,14,,,,,7,,,61,100
52160,note_off,,,,,128,0,15,,,,,7,,,45,100
52160,note_off,,,,,128,0,10,,,,,3,,,69,100
52192,note_off,,,,,64,0,7,,,,,0,,,73,100
52224,note_on,,,,,32,0,7,,,,,0,,,74,100
52224,note_on,,,,,64,0,13,,,,,6,,,35,85
52224,note_on,,,,,64,0,15,,,,,7,,,47,100
52224,note_on,,,,,64,0,14,,,,,7,,,62,100
52224,note_on,,,,,0,0,14,,,,,7,,,66,100
52224,note_on,,,,,64,0,12,,,,,5,,,47,85
52288,note_off,,,,,64,0,7,,,,,0,,,74,100
52288,note_off,,,,,64,0,12,,,,,5,,,47,100
52320,note_on,,,,,32,0,7,,,,,0,,,71,100
52320,note_on,,,,,32,0,12,,,,,5,,,62,85
52384,note_off,,,,,64,0,12,,,,,5,,,62,100
52384,note_off,,,,,64,0,7,,,,,0,,,71,100
52416,note_on,,,,,32,0,7,,,,,0,,,69,100
52416,note_on,,,,,256,0,10,,,,,3,,,78,100
52416,note_on,,,,,32,0,12,,,,,5,,,61,85
52480,note_off,,,,,64,0,12,,,,,5,,,61,100
52480,note_off,,,,,256,0,15,,,,,7,,,47,100
52480,note_off,,,,,64,0,7,,,,,0,,,69,100
52480,note_off,,,,,256,0,14,,,,,7,,,62,100
52480,note_off,,,,,256,0,13,,,,,6,,,35,100
52480,note_off,,,,,0,0,14,,,,,7,,,66,100
52512,note_on,,,,,32,0,12,,,,,5,,,62,85
52512,note_on,,,,,32,0,7,,,,,0,,,71,100
52544,note_off,,,,,128,0,10,,,,,3,,,78,100
52576,note_off,,,,,64,0,12,,,,,5,,,62,100
52576,note_off,,,,,64,0,7,,,,,0,,,71,100
52608,note_on,,,,,32,0,12,,,,,5,,,59,85
52608,note_on,,,,,32,0,7,,,,,0,,,79,100
52608,note_on,,,,,64,0,10,,,,,3,,,74,100
52700,note_off,,,,,92,0,7,,,,,0,,,79,100
52704,note_on,,,,,4,0,7,,,,,0,,,78,100
52736,note_off,,,,,128,0,12,,,,,5,,,59,100
52736,note_off,,,,,128,0,10,,,,,3,,,74,100
52796,note_off,,,,,92,0,7,,,,,0,,,78,100
52800,note_on,,,,,320,0,15,,,,,7,,,47,100
52800,note_on,,,,,0,0,14,,,,,7,,,62,100
52800,note_on,,,,,320,0,14,,,,,7,,,67,100
52800,note_on,,,,,4,0,7,,,,,0,,,76,100
52800,note_on,,,,,64,0,12,,,,,5,,,47,85
52800,note_on,,,,,64,0,10,,,,,3,,,71,100
52800,note_on,,,,,320,0,13,,,,,6,,,35,85
52864,note_off,,,,,64,0,7,,,,,0,,,76,100
52896,note_on,,,,,32,0,7,,,,,0,,,74,100
52928,note_off,,,,,128,0,10,,,,,3,,,71,100
52928,note_off,,,,,128,0,13,,,,,6,,,35,100
52928,note_off,,,,,0,0,14,,,,,7,,,62,100
52928,note_off,,,,,128,0,14,,,,,7,,,67,100
52928,note_off,,,,,128,0,12,,,,,5,,,47,100
52928,note_off,,,,,128,0,15,,,,,7,,,47,100
52960,note_off,,,,,64,0,7,,,,,0,,,74,100
52992,note_on,,,,,64,0,15,,,,,7,,,49,100
52992,note_on,,,,,32,0,7,,,,,0,,,76,100
52992,note_on,,,,,0,0,14,,,,,7,,,67,100
52992,note_on,,,,,64,0,14,,,,,7,,,64,100
52992,note_on,,,,,64,0,12,,,,,5,,,49,85
52992,note_on,,,,,64,0,13,,,,,6,,,37,85
53056,note_off,,,,,64,0,12,,,,,5,,,49,100
53056,note_off,,,,,64,0,7,,,,,0,,,76,100
53088,note_on,,,,,32,0,12,,,,,5,,,64,85
53088,note_on,,,,,32,0,7,,,,,0,,,73,100
53152,note_off,,,,,64,0,7,,,,,0,,,73,100
53152,note_off,,,,,64,0,12,,,,,5,,,64,100
53184,note_on,,,,,32,0,7,,,,,0,,,71,100
53184,note_on,,,,,32,0,12,,,,,5,,,62,85
53184,note_on,,,,,256,0,10,,,,,3,,,79,100
53248,note_off,,,,,64,0,7,,,,,0,,,71,100
53248,note_off,,,,,256,0,14,,,,,7,,,64,100
53248,note_off,,,,,256,0,13,,,,,6,,,37,100
53248,note_off,,,,,64,0,12,,,,,5,,,62,100
53248,note_off,,,,,256,0,15,,,,,7,,,49,100
53248,note_off,,,,,0,0,14,,,,,7,,,67,100
53280,note_on,,,,,32,0,12,,,,,5,,,64,85
53280,note_on,,,,,32,0,7,,,,,0,,,73,100
53312,note_off,,,,,128,0,10,,,,,3,,,79,100
53344,note_off,,,,,64,0,7,,,,,0,,,73,100
53344,note_off,,,,,64,0,12,,,,,5,,,64,100
53376,note_on,,,,,32,0,12,,,,,5,,,61,85
53376,note_on,,,,,32,0,7,,,,,0,,,81,100
53376,note_on,,,,,64,0,10,,,,,3,,,76,100
53468,note_off,,,,,92,0,7,,,,,0,,,81,100
53472,note_on,,,,,4,0,7,,,,,0,,,79,100
53504,note_off,,,,,128,0,12,,,,,5,,,61,100
53504,note_off,,,,,128,0,10,,,,,3,,,76,100
53564,note_off,,,,,92,0,7,,,,,0,,,79,100
53568,note_on,,,,,64,0,12,,,,,5,,,49,85
53568,note_on,,,,,320,0,15,,,,,7,,,49,100
53568,note_on,,,,,320,0,13,,,,,6,,,37,85
53568,note_on,,,,,4,0,7,,,,,0,,,78,100
53568,note_on,,,,,320,0,14,,,,,7,,,64,100
53568,note_on,,,,,0,0,14,,,,,7,,,69,100
53568,note_on,,,,,64,0,10,,,,,3,,,73,100
53632,note_off,,,,,64,0,7,,,,,0,,,78,100
53664,note_on,,,,,32,0,7,,,,,0,,,76,100
53696,note_off,,,,,128,0,13,,,,,6,,,37,100
53696,note_off,,,,,0,0,14,,,,,7,,,69,100
53696,note_off,,,,,128,0,10,,,,,3,,,73,100
53696,note_off,,,,,128,0,12,,,,,5,,,49,100
53696,note_off,,,,,128,0,15,,,,,7,,,49,100
53696,note_off,,,,,128,0,14,,,,,7,,,64,100
53728,note_off,,,,,64,0,7,,,,,0,,,76,100
53760,note_on,,,,,32,0,7,,,,,0,,,78,100
53760,note_on,,,,,64,0,14,,,,,7,,,66,100
53760,note_on,,,,,0,0,14,,,,,7,,,69,100
53760,note_on,,,,,64,0,15,,,,,7,,,50,100
53760,note_on,,,,,64,0,12,,,,,5,,,50,85
53760,note_on,,,,,64,0,13,,,,,6,,,38,85
53824,note_off,,,,,64,0,7,,,,,0,,,78,100
53824,note_off,,,,,64,0,12,,,,,5,,,50,100
53856,note_on,,,,,32,0,7,,,,,0,,,74,100
53856,note_on,,,,,32,0,12,,,,,5,,,57,85
53920,note_off,,,,,64,0,7,,,,,0,,,74,100
53920,note_off,,,,,64,0,12,,,,,5,,,57,100
53952,note_on,,,,,32,0,7,,,,,0,,,73,100
53952,note_on,,,,,32,0,12,,,,,5,,,55,85
53952,note_on,,,,,256,0,10,,,,,3,,,81,100
54016,note_off,,,,,64,0,12,,,,,5,,,55,100
54016,note_off,,,,,0,0,14,,,,,7,,,69,100
54016,note_off,,,,,256,0,14,,,,,7,,,66,100
54016,note_off,,,,,256,0,15,,,,,7,,,50,100
54016,note_off,,,,,256,0,13,,,,,6,,,38,100
54016,note_off,,,,,64,0,7,,,,,0,,,73,100
54048,note_on,,,,,32,0,12,,,,,5,,,57,85
54048,note_on,,,,,32,0,7,,,,,0,,,74,100
54080,note_off,,,,,128,0,10,,,,,3,,,81,100
54112,note_off,,,,,64,0,12,,,,,5,,,57,100
54112,note_off,,,,,64,0,7,,,,,0,,,74,100
54144,note_on,,,,,32,0,12,,,,,5,,,54,85
54144,note_on,,,,,64,0,10,,,,,3,,,81,100
54144,note_on,,,,,32,0,7,,,,,0,,,86,100
54236,note_off,,,,,92,0,7,,,,,0,,,86,100
54240,note_on,,,,,4,0,7,,,,,0,,,85,100
54272,note_off,,,,,128,0,10,,,,,3,,,81,100
54272,note_off,,,,,128,0,12,,,,,5,,,54,100
54332,note_off,,,,,92,0,7,,,,,0,,,85,100
54336,note_on,,,,,4,0,7,,,,,0,,,83,100
54336,note_on,,,,,320,0,15,,,,,7,,,42,100
54336,note_on,,,,,64,0,12,,,,,5,,,42,85
54336,note_on,,,,,320,0,13,,,,,6,,,42,85
54336,note_on,,,,,0,0,14,,,,,7,,,57,100
54336,note_on,,,,,320,0,14,,,,,7,,,62,100
54336,note_on,,,,,64,0,10,,,,,3,,,74,100
54400,note_off,,,,,64,0,7,,,,,0,,,83,100
54432,note_on,,,,,32,0,7,,,,,0,,,81,100
54464,note_off,,,,,128,0,12,,,,,5,,,42,100
54464,note_off,,,,,128,0,13,,,,,6,,,42,100
54464,note_off,,,,,128,0,14,,,,,7,,,62,100
54464,note_off,,,,,128,0,15,,,,,7,,,42,100
54464,note_off,,,,,128,0,10,,,,,3,,,74,100
54464,note_off,,,,,0,0,14,,,,,7,,,57,100
54496,note_off,,,,,64,0,7,,,,,0,,,81,100
54528,note_on,,,,,64,0,13,,,,,6,,,43,85
54528,note_on,,,,,64,0,15,,,,,7,,,43,100
54528,note_on,,,,,32,0,7,,,,,0,,,83,100
54528,note_on,,,,,0,0,14,,,,,7,,,62,100
54528,note_on,,,,,64,0,14,,,,,7,,,59,100
54528,note_on,,,,,64,0,12,,,,,5,,,43,85
54592,note_off,,,,,64,0,12,,,,,5,,,43,100
54592,note_off,,,,,64,0,7,,,,,0,,,83,100
54624,note_on,,,,,32,0,7,,,,,0,,,79,100
54624,note_on,,,,,32,0,12,,,,,5,,,59,85
54688,note_off,,,,,64,0,7,,,,,0,,,79,100
54688,note_off,,,,,64,0,12,,,,,5,,,59,100
54720,note_on,,,,,32,0,7,,,,,0,,,78,100
54720,note_on,,,,,256,0,10,,,,,3,,,83,100
54720,note_on,,,,,32,0,12,,,,,5,,,57,85
54784,note_off,,,,,64,0,12,,,,,5,,,57,100
54784,note_off,,,,,0,0,14,,,,,7,,,62,100
54784,note_off,,,,,256,0,14,,,,,7,,,59,100
54784,note_off,,,,,256,0,13,,,,,6,,,43,100
54784,note_off,,,,,64,0,7,,,,,0,,,78,100
54784,note_off,,,,,256,0,15,,,,,7,,,43,100
54816,note_on,,,,,32,0,7,,,,,0,,,79,100
54816,note_on,,,,,32,0,12,,,,,5,,,59,85
54848,note_off,,,,,128,0,10,,,,,3,,,83,100
54880,note_off,,,,,64,0,7,,,,,0,,,79,100
54880,note_off,,,,,64,0,12,,,,,5,,,59,100
54912,note_on,,,,,32,0,12,,,,,5,,,56,85
54912,note_on,,,,,64,0,10,,,,,3,,,83,100
54912,note_on,,,,,32,0,7,,,,,0,,,88,100
55004,note_off,,,,,92,0,7,,,,,0,,,88,100
55008,note_on,,,,,4,0,7,,,,,0,,,86,100
55040,note_off,,,,,128,0,10,,,,,3,,,83,100
55040,note_off,,,,,128,0,12,,,,,5,,,56,100
55100,note_off,,,,,92,0,7,,,,,0,,,86,100
55104,note_on,,,,,64,0,12,,,,,5,,,44,85
55104,note_on,,,,,320,0,13,,,,,6,,,44,85
55104,note_on,,,,,320,0,15,,,,,7,,,44,100
55104,note_on,,,,,64,0,10,,,,,3,,,76,100
55104,note_on,,,,,0,0,14,,,,,7,,,62,100
55104,note_on,,,,,4,0,7,,,,,0,,,85,100
55104,note_on,,,,,320,0,14,,,,,7,,,64,100
55168,note_off,,,,,64,0,7,,,,,0,,,85,100
55200,note_on,,,,,32,0,7,,,,,0,,,83,100
55232,note_off,,,,,128,0,14,,,,,7,,,64,100
55232,note_off,,,,,128,0,15,,,,,7,,,44,100
55232,note_off,,,,,128,0,13,,,,,6,,,44,100
55232,note_off,,,,,128,0,12,,,,,5,,,44,100
55232,note_off,,,,,0,0,14,,,,,7,,,62,100
55232,note_off,,,,,128,0,10,,,,,3,,,76,100
55264,note_off,,,,,64,0,7,,,,,0,,,83,100
55292,program_change,,,,,60,0,10,,,,,3,48,,,
55292,program_change,,,,,28,0,7,,,,,0,48,,,
55292,program_change,,,,,60,0,12,,,,,5,48,,,
55296,note_on,,,,,4,0,12,,,,,5,,,45,100
55296,note_on,,,,,4,0,10,,,,,3,,,73,100
55296,note_on,,,,,13568,0,8,,,,,1,,,76,100
55296,note_on,,,,,64,0,13,,,,,6,,,45,100
55296,note_on,,,,,13568,0,9,,,,,2,,,81,100
55296,note_on,,,,,0,0,11,,,,,4,,,64,100
55296,note_on,,,,,13568,0,11,,,,,4,,,73,100
55296,note_on,,,,,64,0,14,,,,,7,,,61,100
55296,note_on,,,,,0,0,14,,,,,7,,,64,100
55296,note_on,,,,,4,0,7,,,,,0,,,85,100
55296,note_on,,,,,64,0,15,,,,,7,,,45,100
55424,note_off,,,,,128,0,7,,,,,0,,,85,100
55424,note_off,,,,,128,0,14,,,,,7,,,61,100
55424,note_off,,,,,128,0,13,,,,,6,,,45,100
55424,note_off,,,,,0,0,14,,,,,7,,,64,100
55424,note_off,,,,,128,0,15,,,,,7,,,45,100
55424,note_off,,,,,128,0,12,,,,,5,,,45,100
55488,note_on,,,,,64,0,13,,,,,6,,,45,100
55488,note_on,,,,,64,0,12,,,,,5,,,57,100
55488,note_on,,,,,64,0,7,,,,,0,,,81,100
55488,note_on,,,,,64,0,14,,,,,7,,,73,100
55488,note_on,,,,,64,0,15,,,,,7,,,57,100
55552,note_off,,,,,64,0,14,,,,,7,,,73,100
55552,note_off,,,,,64,0,12,,,,,5,,,57,100
55552,note_off,,,,,256,0,11,,,,,4,,,73,100
55552,note_off,,,,,256,0,8,,,,,1,,,76,100
55552,note_off,,,,,256,0,10,,,,,3,,,73,100
55552,note_off,,,,,256,0,9,,,,,2,,,81,100
55552,note_off,,,,,64,0,13,,,,,6,,,45,100
55552,note_off,,,,,64,0,15,,,,,7,,,57,100
55552,note_off,,,,,0,0,11,,,,,4,,,64,100
55584,note_on,,,,,32,0,15,,,,,7,,,59,100
55584,note_on,,,,,32,0,12,,,,,5,,,59,100
55584,note_on,,,,,32,0,14,,,,,7,,,74,100
55584,note_on,,,,,32,0,13,,,,,6,,,47,100
55616,note_off,,,,,128,0,7,,,,,0,,,81,100
55648,note_off,,,,,64,0,15,,,,,7,,,59,100
55648,note_off,,,,,64,0,12,,,,,5,,,59,100
55648,note_off,,,,,64,0,14,,,,,7,,,74,100
55648,note_off,,,,,64,0,13,,,,,6,,,47,100
55680,note_on,,,,,32,0,12,,,,,5,,,61,100
55680,note_on,,,,,0,0,14,,,,,7,,,76,100
55680,note_on,,,,,32,0,15,,,,,7,,,61,100
55680,note_on,,,,,32,0,13,,,,,6,,,49,100
55680,note_on,,,,,32,0,14,,,,,7,,,73,100
55808,note_off,,,,,128,0,13,,,,,6,,,49,100
55808,note_off,,,,,0,0,14,,,,,7,,,76,100
55808,note_off,,,,,128,0,14,,,,,7,,,73,100
55808,note_off,,,,,128,0,12,,,,,5,,,61,100
55808,note_off,,,,,128,0,15,,,,,7,,,61,100
55872,note_on,,,,,64,0,13,,,,,6,,,45,100
55872,note_on,,,,,320,0,10,,,,,3,,,73,100
55872,note_on,,,,,320,0,11,,,,,4,,,69,100
55872,note_on,,,,,256,0,7,,,,,0,,,81,100
55872,note_on,,,,,64,0,12,,,,,5,,,57,100
55872,note_on,,,,,64,0,14,,,,,7,,,69,100
55872,note_on,,,,,320,0,8,,,,,1,,,76,100
55872,note_on,,,,,0,0,14,,,,,7,,,73,100
55872,note_on,,,,,64,0,15,,,,,7,,,57,100
55872,note_on,,,,,320,0,9,,,,,2,,,81,100
56000,note_off,,,,,128,0,10,,,,,3,,,73,100
56000,note_off,,,,,128,0,14,,,,,7,,,69,100
56000,note_off,,,,,0,0,14,,,,,7,,,73,100
56000,note_off,,,,,128,0,8,,,,,1,,,76,100
56000,note_off,,,,,128,0,13,,,,,6,,,45,100
56000,note_off,,,,,128,0,15,,,,,7,,,57,100
56000,note_off,,,,,128,0,12,,,,,5,,,57,100
56000,note_off,,,,,128,0,9,,,,,2,,,81,100
56000,note_off,,,,,128,0,7,,,,,0,,,81,100
56000,note_off,,,,,128,0,11,,,,,4,,,69,100
56064,note_on,,,,,64,0,15,,,,,7,,,50,100
56064,note_on,,,,,0,0,11,,,,,4,,,74,100
56064,note_on,,,,,64,0,14,,,,,7,,,69,100
56064,note_on,,,,,64,0,8,,,,,1,,,78,100
56064,note_on,,,,,64,0,9,,,,,2,,,81,100
56064,note_on,,,,,64,0,12,,,,,5,,,50,100
56064,note_on,,,,,64,0,13,,,,,6,,,38,100
56064,note_on,,,,,64,0,7,,,,,0,,,78,100
56064,note_on,,,,,64,0,10,,,,,3,,,74,100
56064,note_on,,,,,0,0,14,,,,,7,,,66,100
56064,note_on,,,,,64,0,11,,,,,4,,,69,100
56128,note_off,,,,,64,0,8,,,,,1,,,78,100
56160,note_on,,,,,32,0,8,,,,,1,,,74,100
56192,note_off,,,,,128,0,11,,,,,4,,,69,100
56192,note_off,,,,,128,0,7,,,,,0,,,78,100
56192,note_off,,,,,128,0,13,,,,,6,,,38,100
56192,note_off,,,,,128,0,14,,,,,7,,,69,100
56192,note_off,,,,,128,0,12,,,,,5,,,50,100
56192,note_off,,,,,128,0,9,,,,,2,,,81,100
56192,note_off,,,,,128,0,15,,,,,7,,,50,100
56192,note_off,,,,,0,0,14,,,,,7,,,66,100
56192,note_off,,,,,0,0,11,,,,,4,,,74,100
56256,note_on,,,,,96,0,8,,,,,1,,,78,100
56256,note_on,,,,,64,0,15,,,,,7,,,62,100
56256,note_on,,,,,64,0,9,,,,,2,,,81,100
56256,note_on,,,,,64,0,7,,,,,0,,,74,100
56256,note_on,,,,,64,0,12,,,,,5,,,62,100
56256,note_on,,,,,64,0,14,,,,,7,,,78,100
56256,note_on,,,,,0,0,14,,,,,7,,,69,100
56256,note_on,,,,,0,0,11,,,,,4,,,69,100
56256,note_on,,,,,64,0,11,,,,,4,,,66,100
56256,note_on,,,,,64,0,13,,,,,6,,,50,100
56320,note_off,,,,,256,0,10,,,,,3,,,74,100
56320,note_off,,,,,64,0,8,,,,,1,,,74,100
56320,note_off,,,,,0,0,8,,,,,1,,,78,100
56352,note_on,,,,,32,0,8,,,,,1,,,81,100
56384,note_off,,,,,128,0,7,,,,,0,,,74,100
56384,note_off,,,,,128,0,14,,,,,7,,,78,100
56384,note_off,,,,,0,0,14,,,,,7,,,69,100
56384,note_off,,,,,128,0,9,,,,,2,,,81,100
56384,note_off,,,,,128,0,13,,,,,6,,,50,100
56384,note_off,,,,,128,0,12,,,,,5,,,62,100
56384,note_off,,,,,128,0,11,,,,,4,,,66,100
56384,note_off,,,,,0,0,11,,,,,4,,,69,100
56384,note_off,,,,,128,0,15,,,,,7,,,62,100
56416,note_off,,,,,64,0,8,,,,,1,,,81,100
56448,note_on,,,,,0,0,14,,,,,7,,,76,100
56448,note_on,,,,,64,0,14,,,,,7,,,69,100
56448,note_on,,,,,64,0,9,,,,,2,,,81,100
56448,note_on,,,,,64,0,12,,,,,5,,,61,100
56448,note_on,,,,,32,0,8,,,,,1,,,81,100
56448,note_on,,,,,64,0,15,,,,,7,,,61,100
56448,note_on,,,,,64,0,11,,,,,4,,,64,100
56448,note_on,,,,,64,0,13,,,,,6,,,49,100
56540,note_off,,,,,92,0,8,,,,,1,,,81,100
56544,note_on,,,,,224,0,10,,,,,3,,,73,100
56544,note_on,,,,,4,0,8,,,,,1,,,79,100
56576,note_off,,,,,128,0,9,,,,,2,,,81,100
56576,note_off,,,,,128,0,14,,,,,7,,,69,100
56576,note_off,,,,,0,0,14,,,,,7,,,76,100
56576,note_off,,,,,128,0,11,,,,,4,,,64,100
56576,note_off,,,,,128,0,12,,,,,5,,,61,100
56576,note_off,,,,,128,0,15,,,,,7,,,61,100
56576,note_off,,,,,128,0,13,,,,,6,,,49,100
56608,note_off,,,,,64,0,8,,,,,1,,,79,100
56608,note_off,,,,,64,0,10,,,,,3,,,73,100
56640,note_on,,,,,64,0,13,,,,,6,,,45,100
56640,note_on,,,,,256,0,7,,,,,0,,,81,100
56640,note_on,,,,,0,0,11,,,,,4,,,73,100
56640,note_on,,,,,64,0,11,,,,,4,,,61,100
56640,note_on,,,,,64,0,12,,,,,5,,,57,100
56640,note_on,,,,,64,0,9,,,,,2,,,81,100
56640,note_on,,,,,32,0,8,,,,,1,,,81,100
56640,note_on,,,,,64,0,15,,,,,7,,,57,100
56640,note_on,,,,,0,0,14,,,,,7,,,73,100
56640,note_on,,,,,64,0,14,,,,,7,,,64,100
56640,note_on,,,,,32,0,10,,,,,3,,,76,100
56704,note_off,,,,,64,0,10,,,,,3,,,76,100
56736,note_on,,,,,32,0,10,,,,,3,,,81,100
56768,note_off,,,,,128,0,8,,,,,1,,,81,100
56768,note_off,,,,,128,0,15,,,,,7,,,57,100
56768,note_off,,,,,128,0,9,,,,,2,,,81,100
56768,note_off,,,,,128,0,11,,,,,4,,,61,100
56768,note_off,,,,,0,0,11,,,,,4,,,73,100
56768,note_off,,,,,128,0,12,,,,,5,,,57,100
56768,note_off,,,,,128,0,13,,,,,6,,,45,100
56768,note_off,,,,,128,0,14,,,,,7,,,64,100
56768,note_off,,,,,0,0,14,,,,,7,,,73,100
56768,note_off,,,,,128,0,7,,,,,0,,,81,100
56800,note_off,,,,,64,0,10,,,,,3,,,81,100
56832,note_on,,,,,32,0,10,,,,,3,,,81,100
56832,note_on,,,,,64,0,9,,,,,2,,,86,100
56832,note_on,,,,,64,0,11,,,,,4,,,74,100
56832,note_on,,,,,64,0,7,,,,,0,,,78,100
56924,note_off,,,,,92,0,10,,,,,3,,,81,100
56928,note_on,,,,,4,0,10,,,,,3,,,79,100
56928,note_on,,,,,160,0,8,,,,,1,,,74,100
56960,note_off,,,,,128,0,11,,,,,4,,,74,100
56960,note_off,,,,,128,0,7,,,,,0,,,78,100
56960,note_off,,,,,128,0,9,,,,,2,,,86,100
56992,note_off,,,,,64,0,10,,,,,3,,,79,100
56992,note_off,,,,,64,0,8,,,,,1,,,74,100
57024,note_on,,,,,256,0,13,,,,,6,,,50,100
57024,note_on,,,,,64,0,7,,,,,0,,,74,100
57024,note_on,,,,,32,0,10,,,,,3,,,81,100
57024,note_on,,,,,256,0,15,,,,,7,,,62,100
57024,note_on,,,,,256,0,14,,,,,7,,,78,100
57024,note_on,,,,,0,0,14,,,,,7,,,69,100
57024,note_on,,,,,64,0,9,,,,,2,,,81,100
57024,note_on,,,,,256,0,12,,,,,5,,,62,100
57024,note_on,,,,,64,0,11,,,,,4,,,66,100
57024,note_on,,,,,0,0,11,,,,,4,,,69,100
57024,note_on,,,,,32,0,8,,,,,1,,,78,100
57088,note_off,,,,,64,0,8,,,,,1,,,78,100
57088,note_off,,,,,64,0,10,,,,,3,,,81,100
57120,note_on,,,,,32,0,8,,,,,1,,,81,100
57152,note_off,,,,,128,0,7,,,,,0,,,74,100
57152,note_off,,,,,128,0,11,,,,,4,,,66,100
57152,note_off,,,,,128,0,9,,,,,2,,,81,100
57152,note_off,,,,,128,0,14,,,,,7,,,78,100
57152,note_off,,,,,128,0,12,,,,,5,,,62,100
57152,note_off,,,,,0,0,14,,,,,7,,,69,100
57152,note_off,,,,,128,0,13,,,,,6,,,50,100
57152,note_off,,,,,128,0,15,,,,,7,,,62,100
57152,note_off,,,,,0,0,11,,,,,4,,,69,100
57184,note_off,,,,,64,0,8,,,,,1,,,81,100
57216,note_on,,,,,32,0,8,,,,,1,,,81,100
57216,note_on,,,,,64,0,9,,,,,2,,,81,100
57216,note_on,,,,,64,0,13,,,,,6,,,49,100
57216,note_on,,,,,64,0,15,,,,,7,,,61,100
57216,note_on,,,,,64,0,12,,,,,5,,,61,100
57216,note_on,,,,,64,0,14,,,,,7,,,69,100
57216,note_on,,,,,0,0,14,,,,,7,,,76,100
57216,note_on,,,,,64,0,11,,,,,4,,,64,100
57308,note_off,,,,,92,0,8,,,,,1,,,81,100
57312,note_on,,,,,4,0,8,,,,,1,,,79,100
57312,note_on,,,,,224,0,10,,,,,3,,,73,100
57344,note_off,,,,,128,0,15,,,,,7,,,61,100
57344,note_off,,,,,128,0,12,,,,,5,,,61,100
57344,note_off,,,,,128,0,13,,,,,6,,,49,100
57344,note_off,,,,,128,0,14,,,,,7,,,69,100
57344,note_off,,,,,0,0,14,,,,,7,,,76,100
57344,note_off,,,,,128,0,9,,,,,2,,,81,100
57344,note_off,,,,,128,0,11,,,,,4,,,64,100
57376,note_off,,,,,64,0,8,,,,,1,,,79,100
57376,note_off,,,,,64,0,10,,,,,3,,,73,100
57408,note_on,,,,,64,0,11,,,,,4,,,61,100
57408,note_on,,,,,0,0,14,,,,,7,,,73,100
57408,note_on,,,,,32,0,8,,,,,1,,,81,100
57408,note_on,,,,,64,0,15,,,,,7,,,57,100
57408,note_on,,,,,64,0,13,,,,,6,,,45,100
57408,note_on,,,,,64,0,14,,,,,7,,,64,100
57408,note_on,,,,,64,0,12,,,,,5,,,57,100
57408,note_on,,,,,0,0,11,,,,,4,,,73,100
57408,note_on,,,,,64,0,9,,,,,2,,,81,100
57408,note_on,,,,,256,0,7,,,,,0,,,81,100
57408,note_on,,,,,32,0,10,,,,,3,,,76,100
57472,note_off,,,,,64,0,10,,,,,3,,,76,100
57504,note_on,,,,,32,0,10,,,,,3,,,81,100
57536,note_off,,,,,128,0,13,,,,,6,,,45,100
57536,note_off,,,,,128,0,7,,,,,0,,,81,100
57536,note_off,,,,,128,0,8,,,,,1,,,81,100
57536,note_off,,,,,128,0,12,,,,,5,,,57,100
57536,note_off,,,,,128,0,15,,,,,7,,,57,100
57536,note_off,,,,,128,0,11,,,,,4,,,61,100
57536,note_off,,,,,0,0,11,,,,,4,,,73,100
57536,note_off,,,,,128,0,14,,,,,7,,,64,100
57536,note_off,,,,,0,0,14,,,,,7,,,73,100
57536,note_off,,,,,128,0,9,,,,,2,,,81,100
57568,note_off,,,,,64,0,10,,,,,3,,,81,100
57600,note_on,,,,,64,0,11,,,,,4,,,74,100
57600,note_on,,,,,64,0,9,,,,,2,,,86,100
57600,note_on,,,,,64,0,7,,,,,0,,,78,100
57600,note_on,,,,,32,0,10,,,,,3,,,81,100
57692,note_off,,,,,92,0,10,,,,,3,,,81,100
57696,note_on,,,,,160,0,8,,,,,1,,,74,100
57696,note_on,,,,,4,0,10,,,,,3,,,79,100
57728,note_off,,,,,128,0,9,,,,,2,,,86,100
57728,note_off,,,,,128,0,11,,,,,4,,,74,100
57728,note_off,,,,,128,0,7,,,,,0,,,78,100
57760,note_off,,,,,64,0,10,,,,,3,,,79,100
57760,note_off,,,,,64,0,8,,,,,1,,,74,100
57792,note_on,,,,,0,0,11,,,,,4,,,69,100
57792,note_on,,,,,64,0,7,,,,,0,,,74,100
57792,note_on,,,,,32,0,8,,,,,1,,,78,100
57792,note_on,,,,,64,0,11,,,,,4,,,66,100
57792,note_on,,,,,256,0,12,,,,,5,,,62,100
57792,note_on,,,,,32,0,10,,,,,3,,,81,100
57792,note_on,,,,,0,0,14,,,,,7,,,69,100
57792,note_on,,,,,256,0,13,,,,,6,,,50,100
57792,note_on,,,,,256,0,14,,,,,7,,,78,100
57792,note_on,,,,,64,0,9,,,,,2,,,81,100
57792,note_on,,,,,256,0,15,,,,,7,,,62,100
57856,note_off,,,,,64,0,10,,,,,3,,,81,100
57856,note_off,,,,,64,0,8,,,,,1,,,78,100
57888,note_on,,,,,32,0,8,,,,,1,,,81,100
57920,note_off,,,,,128,0,15,,,,,7,,,62,100
57920,note_off,,,,,0,0,11,,,,,4,,,69,100
57920,note_off,,,,,128,0,11,,,,,4,,,66,100
57920,note_off,,,,,0,0,14,,,,,7,,,69,100
57920,note_off,,,,,128,0,14,,,,,7,,,78,100
57920,note_off,,,,,128,0,7,,,,,0,,,74,100
57920,note_off,,,,,128,0,9,,,,,2,,,81,100
57920,note_off,,,,,128,0,13,,,,,6,,,50,100
57920,note_off,,,,,128,0,12,,,,,5,,,62,100
57952,note_off,,,,,64,0,8,,,,,1,,,81,100
57984,note_on,,,,,64,0,14,,,,,7,,,69,100
57984,note_on,,,,,64,0,9,,,,,2,,,81,100
57984,note_on,,,,,64,0,12,,,,,5,,,61,100
57984,note_on,,,,,64,0,11,,,,,4,,,64,100
57984,note_on,,,,,64,0,13,,,,,6,,,49,100
57984,note_on,,,,,32,0,8,,,,,1,,,81,100
57984,note_on,,,,,64,0,15,,,,,7,,,61,100
57984,note_on,,,,,0,0,14,,,,,7,,,76,100
58076,note_off,,,,,92,0,8,,,,,1,,,81,100
58080,note_on,,,,,4,0,8,,,,,1,,,79,100
58080,note_on,,,,,224,0,10,,,,,3,,,73,100
58112,note_off,,,,,128,0,14,,,,,7,,,69,100
58112,note_off,,,,,128,0,12,,,,,5,,,61,100
58112,note_off,,,,,128,0,15,,,,,7,,,61,100
58112,note_off,,,,,128,0,13,,,,,6,,,49,100
58112,note_off,,,,,128,0,11,,,,,4,,,64,100
58112,note_off,,,,,0,0,14,,,,,7,,,76,100
58112,note_off,,,,,128,0,9,,,,,2,,,81,100
58144,note_off,,,,,64,0,10,,,,,3,,,73,100
58144,note_off,,,,,64,0,8,,,,,1,,,79,100
58176,note_on,,,,,32,0,8,,,,,1,,,81,100
58176,note_on,,,,,0,0,11,,,,,4,,,73,100
58176,note_on,,,,,64,0,11,,,,,4,,,61,100
58176,note_on,,,,,256,0,7,,,,,0,,,81,100
58176,note_on,,,,,64,0,12,,,,,5,,,57,100
58176,note_on,,,,,32,0,10,,,,,3,,,76,100
58176,note_on,,,,,64,0,14,,,,,7,,,64,100
58176,note_on,,,,,64,0,9,,,,,2,,,81,100
58176,note_on,,,,,0,0,14,,,,,7,,,73,100
58176,note_on,,,,,64,0,15,,,,,7,,,57,100
58176,note_on,,,,,64,0,13,,,,,6,,,45,100
58240,note_off,,,,,64,0,10,,,,,3,,,76,100
58272,note_on,,,,,32,0,10,,,,,3,,,81,100
58304,note_off,,,,,0,0,11,,,,,4,,,73,100
58304,note_off,,,,,128,0,9,,,,,2,,,81,100
58304,note_off,,,,,128,0,11,,,,,4,,,61,100
58304,note_off,,,,,128,0,8,,,,,1,,,81,100
58304,note_off,,,,,0,0,14,,,,,7,,,73,100
58304,note_off,,,,,128,0,14,,,,,7,,,64,100
58304,note_off,,,,,128,0,7,,,,,0,,,81,100
58304,note_off,,,,,128,0,15,,,,,7,,,57,100
58304,note_off,,,,,128,0,13,,,,,6,,,45,100
58304,note_off,,,,,128,0,12,,,,,5,,,57,100
58336,note_off,,,,,64,0,10,,,,,3,,,81,100
58368,note_on,,,,,64,0,7,,,,,0,,,78,100
58368,note_on,,,,,64,0,11,,,,,4,,,57,100
58368,note_on,,,,,32,0,10,,,,,3,,,81,100
58368,note_on,,,,,64,0,13,,,,,6,,,38,100
58368,note_on,,,,,64,0,15,,,,,7,,,50,100
58368,note_on,,,,,64,0,14,,,,,7,,,66,100
58368,note_on,,,,,0,0,14,,,,,7,,,69,100
58368,note_on,,,,,0,0,11,,,,,4,,,74,100
58368,note_on,,,,,64,0,9,,,,,2,,,81,100
58368,note_on,,,,,64,0,12,,,,,5,,,50,100
58412,note_off,,,,,44,0,7,,,,,0,,,78,100
58412,note_off,,,,,44,0,9,,,,,2,,,81,100
58416,note_on,,,,,4,0,9,,,,,2,,,83,100
58416,note_on,,,,,4,0,7,,,,,0,,,79,100
58460,note_off,,,,,44,0,9,,,,,2,,,83,100
58460,note_off,,,,,44,0,7,,,,,0,,,79,100
58460,note_off,,,,,92,0,10,,,,,3,,,81,100
58464,note_on,,,,,4,0,10,,,,,3,,,79,100
58464,note_on,,,,,4,0,7,,,,,0,,,78,100
58464,note_on,,,,,4,0,9,,,,,2,,,81,100
58496,note_off,,,,,0,0,11,,,,,4,,,74,100
58496,note_off,,,,,128,0,11,,,,,4,,,57,100
58528,note_off,,,,,64,0,7,,,,,0,,,78,100
58528,note_off,,,,,64,0,9,,,,,2,,,81,100
58528,note_off,,,,,64,0,10,,,,,3,,,79,100
58560,note_on,,,,,256,0,8,,,,,1,,,81,100
58560,note_on,,,,,32,0,7,,,,,0,,,74,100
58560,note_on,,,,,32,0,9,,,,,2,,,78,100
58560,note_on,,,,,64,0,11,,,,,4,,,66,100
58560,note_on,,,,,0,0,11,,,,,4,,,69,100
58560,note_on,,,,,32,0,10,,,,,3,,,81,100
58624,note_off,,,,,256,0,12,,,,,5,,,50,100
58624,note_off,,,,,64,0,9,,,,,2,,,78,100
58624,note_off,,,,,0,0,14,,,,,7,,,69,100
58624,note_off,,,,,64,0,7,,,,,0,,,74,100
58624,note_off,,,,,256,0,15,,,,,7,,,50,100
58624,note_off,,,,,256,0,13,,,,,6,,,38,100
58624,note_off,,,,,256,0,14,,,,,7,,,66,100
58656,note_on,,,,,32,0,9,,,,,2,,,79,100
58656,note_on,,,,,32,0,7,,,,,0,,,76,100
58688,note_off,,,,,128,0,10,,,,,3,,,81,100
58688,note_off,,,,,128,0,8,,,,,1,,,81,100
58688,note_off,,,,,128,0,11,,,,,4,,,66,100
58688,note_off,,,,,0,0,11,,,,,4,,,69,100
58720,note_off,,,,,64,0,9,,,,,2,,,79,100
58720,note_off,,,,,64,0,7,,,,,0,,,76,100
58752,note_on,,,,,64,0,8,,,,,1,,,86,100
58752,note_on,,,,,64,0,11,,,,,4,,,62,100
58752,note_on,,,,,0,0,11,,,,,4,,,66,100
58752,note_on,,,,,32,0,9,,,,,2,,,81,100
58752,note_on,,,,,32,0,7,,,,,0,,,78,100
58880,note_off,,,,,128,0,11,,,,,4,,,66,100
58880,note_off,,,,,128,0,9,,,,,2,,,81,100
58880,note_off,,,,,128,0,7,,,,,0,,,78,100
58944,note_on,,,,,256,0,10,,,,,3,,,81,100
58944,note_on,,,,,64,0,7,,,,,0,,,78,100
58944,note_on,,,,,64,0,9,,,,,2,,,81,100
58944,note_on,,,,,64,0,11,,,,,4,,,62,100
59008,note_off,,,,,64,0,11,,,,,4,,,62,100
59008,note_off,,,,,256,0,8,,,,,1,,,86,100
59072,note_off,,,,,128,0,10,,,,,3,,,81,100
59072,note_off,,,,,64,0,11,,,,,4,,,62,100
59072,note_off,,,,,128,0,9,,,,,2,,,81,100
59072,note_off,,,,,128,0,7,,,,,0,,,78,100
59136,note_on,,,,,512,0,12,,,,,5,,,50,100
59136,note_on,,,,,64,0,10,,,,,3,,,86,100
59136,note_on,,,,,64,0,7,,,,,0,,,78,100
59136,note_on,,,,,0,0,14,,,,,7,,,69,100
59136,note_on,,,,,512,0,14,,,,,7,,,66,100
59136,note_on,,,,,512,0,15,,,,,7,,,50,100
59136,note_on,,,,,64,0,9,,,,,2,,,81,100
59136,note_on,,,,,512,0,13,,,,,6,,,38,100
59180,note_off,,,,,44,0,7,,,,,0,,,78,100
59180,note_off,,,,,44,0,9,,,,,2,,,81,100
59184,note_on,,,,,4,0,9,,,,,2,,,83,100
59184,note_on,,,,,4,0,7,,,,,0,,,79,100
59228,note_off,,,,,44,0,7,,,,,0,,,79,100
59228,note_off,,,,,44,0,9,,,,,2,,,83,100
59232,note_on,,,,,4,0,7,,,,,0,,,78,100
59232,note_on,,,,,4,0,9,,,,,2,,,81,100
59296,note_off,,,,,64,0,7,,,,,0,,,78,100
59296,note_off,,,,,64,0,9,,,,,2,,,81,100
59328,note_on,,,,,0,0,11,,,,,4,,,69,100
59328,note_on,,,,,256,0,11,,,,,4,,,66,100
59328,note_on,,,,,32,0,7,,,,,0,,,74,100
59328,note_on,,,,,320,0,8,,,,,1,,,81,100
59328,note_on,,,,,32,0,9,,,,,2,,,78,100
59392,note_off,,,,,256,0,15,,,,,7,,,50,100
59392,note_off,,,,,64,0,9,,,,,2,,,78,100
59392,note_off,,,,,0,0,14,,,,,7,,,69,100
59392,note_off,,,,,256,0,12,,,,,5,,,50,100
59392,note_off,,,,,256,0,13,,,,,6,,,38,100
59392,note_off,,,,,256,0,10,,,,,3,,,86,100
59392,note_off,,,,,64,0,7,,,,,0,,,74,100
59392,note_off,,,,,256,0,14,,,,,7,,,66,100
59424,note_on,,,,,32,0,7,,,,,0,,,76,100
59424,note_on,,,,,32,0,9,,,,,2,,,79,100
59456,note_off,,,,,0,0,11,,,,,4,,,69,100
59456,note_off,,,,,128,0,8,,,,,1,,,81,100
59456,note_off,,,,,128,0,11,,,,,4,,,66,100
59488,note_off,,,,,64,0,7,,,,,0,,,76,100
59488,note_off,,,,,64,0,9,,,,,2,,,79,100
59520,note_on,,,,,64,0,11,,,,,4,,,62,100
59520,note_on,,,,,32,0,7,,,,,0,,,78,100
59520,note_on,,,,,0,0,11,,,,,4,,,66,100
59520,note_on,,,,,64,0,8,,,,,1,,,86,100
59520,note_on,,,,,32,0,9,,,,,2,,,81,100
59648,note_off,,,,,128,0,7,,,,,0,,,78,100
59648,note_off,,,,,128,0,9,,,,,2,,,81,100
59648,note_off,,,,,128,0,11,,,,,4,,,66,100
59712,note_on,,,,,64,0,9,,,,,2,,,81,100
59712,note_on,,,,,64,0,7,,,,,0,,,78,100
59712,note_on,,,,,320,0,10,,,,,3,,,81,100
59712,note_on,,,,,64,0,11,,,,,4,,,62,100
59776,note_off,,,,,256,0,8,,,,,1,,,86,100
59776,note_off,,,,,64,0,11,,,,,4,,,62,100
59840,note_off,,,,,128,0,9,,,,,2,,,81,100
59840,note_off,,,,,128,0,7,,,,,0,,,78,100
59840,note_off,,,,,128,0,10,,,,,3,,,81,100
59840,note_off,,,,,64,0,11,,,,,4,,,62,100
59904,note_on,,,,,512,0,12,,,,,5,,,50,100
59904,note_on,,,,,512,0,15,,,,,7,,,50,100
59904,note_on,,,,,64,0,9,,,,,2,,,81,100
59904,note_on,,,,,512,0,14,,,,,7,,,66,100
59904,note_on,,,,,0,0,14,,,,,7,,,69,100
59904,note_on,,,,,512,0,13,,,,,6,,,38,100
59904,note_on,,,,,64,0,10,,,,,3,,,86,100
59904,note_on,,,,,64,0,7,,,,,0,,,78,100
59948,note_off,,,,,44,0,9,,,,,2,,,81,100
59948,note_off,,,,,44,0,7,,,,,0,,,78,100
59952,note_on,,,,,4,0,7,,,,,0,,,79,100
59952,note_on,,,,,4,0,9,,,,,2,,,83,100
59996,note_off,,,,,44,0,9,,,,,2,,,83,100
59996,note_off,,,,,44,0,7,,,,,0,,,79,100
60000,note_on,,,,,4,0,7,,,,,0,,,78,100
60000,note_on,,,,,4,0,9,,,,,2,,,81,100
60064,note_off,,,,,64,0,7,,,,,0,,,78,100
60064,note_off,,,,,64,0,9,,,,,2,,,81,100
60096,note_on,,,,,256,0,11,,,,,4,,,66,100
60096,note_on,,,,,0,0,11,,,,,4,,,69,100
60096,note_on,,,,,32,0,7,,,,,0,,,78,100
60096,note_on,,,,,320,0,8,,,,,1,,,81,100
60096,note_on,,,,,32,0,9,,,,,2,,,81,100
60160,note_off,,,,,256,0,10,,,,,3,,,86,100
60160,note_off,,,,,256,0,13,,,,,6,,,38,100
60160,note_off,,,,,0,0,14,,,,,7,,,69,100
60160,note_off,,,,,256,0,15,,,,,7,,,50,100
60160,note_off,,,,,256,0,12,,,,,5,,,50,100
60160,note_off,,,,,256,0,14,,,,,7,,,66,100
60224,note_off,,,,,128,0,8,,,,,1,,,81,100
60224,note_off,,,,,128,0,11,,,,,4,,,66,100
60224,note_off,,,,,128,0,7,,,,,0,,,78,100
60224,note_off,,,,,0,0,11,,,,,4,,,69,100
60224,note_off,,,,,128,0,9,,,,,2,,,81,100
60288,note_on,,,,,64,0,9,,,,,2,,,81,100
60288,note_on,,,,,64,0,11,,,,,4,,,62,100
60288,note_on,,,,,64,0,7,,,,,0,,,78,100
60288,note_on,,,,,0,0,11,,,,,4,,,66,100
60288,note_on,,,,,64,0,8,,,,,1,,,86,100
60352,note_off,,,,,64,0,8,,,,,1,,,86,100
60384,note_on,,,,,32,0,8,,,,,1,,,78,100
60384,note_on,,,,,224,0,10,,,,,3,,,74,100
60416,note_off,,,,,128,0,9,,,,,2,,,81,100
60416,note_off,,,,,0,0,11,,,,,4,,,66,100
60416,note_off,,,,,128,0,7,,,,,0,,,78,100
60416,note_off,,,,,128,0,11,,,,,4,,,62,100
60448,note_off,,,,,64,0,8,,,,,1,,,78,100
60448,note_off,,,,,64,0,10,,,,,3,,,74,100
60480,note_on,,,,,0,0,11,,,,,4,,,66,100
60480,note_on,,,,,64,0,11,,,,,4,,,62,100
60480,note_on,,,,,64,0,9,,,,,2,,,79,100
60480,note_on,,,,,320,0,13,,,,,6,,,38,100
60480,note_on,,,,,320,0,15,,,,,7,,,50,100
60480,note_on,,,,,32,0,10,,,,,3,,,76,100
60480,note_on,,,,,64,0,7,,,,,0,,,76,100
60480,note_on,,,,,32,0,8,,,,,1,,,79,100
60480,note_on,,,,,0,0,14,,,,,7,,,69,100
60480,note_on,,,,,320,0,14,,,,,7,,,66,100
60480,note_on,,,,,320,0,12,,,,,5,,,50,100
60544,note_off,,,,,64,0,10,,,,,3,,,76,100
60544,note_off,,,,,64,0,8,,,,,1,,,79,100
60544,note_off,,,,,64,0,7,,,,,0,,,76,100
60544,note_off,,,,,64,0,9,,,,,2,,,79,100
60576,note_on,,,,,32,0,9,,,,,2,,,78,100
60576,note_on,,,,,32,0,8,,,,,1,,,81,100
60576,note_on,,,,,32,0,7,,,,,0,,,74,100
60576,note_on,,,,,32,0,10,,,,,3,,,79,100
60608,note_off,,,,,128,0,14,,,,,7,,,66,100
60608,note_off,,,,,0,0,14,,,,,7,,,69,100
60608,note_off,,,,,128,0,15,,,,,7,,,50,100
60608,note_off,,,,,128,0,13,,,,,6,,,38,100
60608,note_off,,,,,0,0,11,,,,,4,,,66,100
60608,note_off,,,,,128,0,11,,,,,4,,,62,100
60608,note_off,,,,,128,0,12,,,,,5,,,50,100
60640,note_off,,,,,64,0,7,,,,,0,,,74,100
60640,note_off,,,,,64,0,10,,,,,3,,,79,100
60640,note_off,,,,,64,0,9,,,,,2,,,78,100
60640,note_off,,,,,64,0,8,,,,,1,,,81,100
60672,note_on,,,,,32,0,10,,,,,3,,,73,100
60672,note_on,,,,,32,0,9,,,,,2,,,76,100
60672,note_on,,,,,32,0,7,,,,,0,,,73,100
60672,note_on,,,,,64,0,15,,,,,7,,,57,100
60672,note_on,,,,,0,0,11,,,,,4,,,69,100
60672,note_on,,,,,64,0,14,,,,,7,,,69,100
60672,note_on,,,,,0,0,14,,,,,7,,,73,100
60672,note_on,,,,,64,0,13,,,,,6,,,45,100
60672,note_on,,,,,64,0,11,,,,,4,,,64,100
60672,note_on,,,,,64,0,12,,,,,5,,,57,100
60672,note_on,,,,,32,0,8,,,,,1,,,76,100
60800,note_off,,,,,128,0,14,,,,,7,,,69,100
60800,note_off,,,,,0,0,14,,,,,7,,,73,100
60800,note_off,,,,,128,0,12,,,,,5,,,57,100
60800,note_off,,,,,128,0,8,,,,,1,,,76,100
60800,note_off,,,,,128,0,15,,,,,7,,,57,100
60800,note_off,,,,,128,0,9,,,,,2,,,76,100
60800,note_off,,,,,128,0,13,,,,,6,,,45,100
60864,note_on,,,,,64,0,14,,,,,7,,,74,100
60864,note_on,,,,,64,0,9,,,,,2,,,69,100
60864,note_on,,,,,64,0,13,,,,,6,,,47,96
60864,note_on,,,,,64,0,15,,,,,7,,,59,100
60864,note_on,,,,,64,0,12,,,,,5,,,59,98
60928,note_off,,,,,256,0,10,,,,,3,,,73,100
60928,note_off,,,,,0,0,11,,,,,4,,,69,100
60928,note_off,,,,,256,0,7,,,,,0,,,73,100
60928,note_off,,,,,256,0,11,,,,,4,,,64,100
60992,note_off,,,,,128,0,14,,,,,7,,,74,100
60992,note_off,,,,,128,0,12,,,,,5,,,59,100
60992,note_off,,,,,128,0,15,,,,,7,,,59,100
60992,note_off,,,,,128,0,9,,,,,2,,,69,100
60992,note_off,,,,,128,0,13,,,,,6,,,47,100
61056,note_on,,,,,64,0,15,,,,,7,,,57,100
61056,note_on,,,,,64,0,14,,,,,7,,,73,100
61056,note_on,,,,,64,0,13,,,,,6,,,45,91
61056,note_on,,,,,64,0,12,,,,,5,,,57,95
61056,program_change,,,,,256,0,8,,,,,1,40,,,
61152,note_on,,,,,96,0,8,,,,,1,,,73,90
61184,note_off,,,,,128,0,13,,,,,6,,,45,100
61184,note_off,,,,,128,0,14,,,,,7,,,73,100
61184,note_off,,,,,128,0,12,,,,,5,,,57,100
61184,note_off,,,,,128,0,15,,,,,7,,,57,100
61216,note_off,,,,,64,0,8,,,,,1,,,73,100
61248,note_on,,,,,64,0,13,,,,,6,,,43,86
61248,note_on,,,,,64,0,14,,,,,7,,,67,100
61248,note_on,,,,,32,0,8,,,,,1,,,74,90
61248,note_on,,,,,64,0,12,,,,,5,,,55,92
61248,note_on,,,,,0,0,14,,,,,7,,,71,100
61248,note_on,,,,,64,0,15,,,,,7,,,55,100
61312,note_off,,,,,64,0,8,,,,,1,,,74,100
61344,note_on,,,,,32,0,8,,,,,1,,,76,91
61376,note_off,,,,,128,0,15,,,,,7,,,55,100
61376,note_off,,,,,128,0,12,,,,,5,,,55,100
61376,note_off,,,,,128,0,13,,,,,6,,,43,100
61376,note_off,,,,,0,0,14,,,,,7,,,71,100
61376,note_off,,,,,128,0,14,,,,,7,,,67,100
61408,note_off,,,,,64,0,8,,,,,1,,,76,100
61440,note_on,,,,,64,0,15,,,,,7,,,54,100
61440,note_on,,,,,64,0,12,,,,,5,,,54,89
61440,note_on,,,,,0,0,14,,,,,7,,,74,100
61440,note_on,,,,,32,0,8,,,,,1,,,74,92
61440,note_on,,,,,64,0,13,,,,,6,,,42,89
61440,note_on,,,,,64,0,14,,,,,7,,,69,100
61504,note_off,,,,,64,0,8,,,,,1,,,74,100
61536,note_on,,,,,32,0,8,,,,,1,,,76,92
61568,note_off,,,,,128,0,14,,,,,7,,,69,100
61568,note_off,,,,,0,0,14,,,,,7,,,74,100
61568,note_off,,,,,128,0,12,,,,,5,,,54,100
61568,note_off,,,,,128,0,15,,,,,7,,,54,100
61568,note_off,,,,,128,0,13,,,,,6,,,42,100
61600,note_off,,,,,64,0,8,,,,,1,,,76,100
61632,note_on,,,,,32,0,8,,,,,1,,,78,93
61632,note_on,,,,,64,0,12,,,,,5,,,50,86
61632,note_on,,,,,64,0,15,,,,,7,,,50,100
61632,note_on,,,,,64,0,13,,,,,6,,,38,86
61632,note_on,,,,,0,0,14,,,,,7,,,69,100
61632,note_on,,,,,64,0,14,,,,,7,,,66,100
61696,note_off,,,,,64,0,8,,,,,1,,,78,100
61728,note_on,,,,,32,0,8,,,,,1,,,79,94
61760,note_off,,,,,128,0,15,,,,,7,,,50,100
61760,note_off,,,,,0,0,14,,,,,7,,,69,100
61760,note_off,,,,,128,0,14,,,,,7,,,66,100
61760,note_off,,,,,128,0,13,,,,,6,,,38,100
61760,note_off,,,,,128,0,12,,,,,5,,,50,100
61792,note_off,,,,,64,0,8,,,,,1,,,79,100
61824,note_on,,,,,32,0,8,,,,,1,,,81,94
61888,note_off,,,,,64,0,8,,,,,1,,,81,100
61920,note_on,,,,,32,0,8,,,,,1,,,72,95
61984,note_off,,,,,64,0,8,,,,,1,,,72,100
62016,note_on,,,,,0,0,14,,,,,7,,,76,100
62016,note_on,,,,,32,0,8,,,,,1,,,71,96
62016,note_on,,,,,256,0,13,,,,,6,,,45,85
62016,note_on,,,,,256,0,14,,,,,7,,,72,100
62016,note_on,,,,,256,0,15,,,,,7,,,57,100
62016,note_on,,,,,256,0,12,,,,,5,,,57,85
62080,note_off,,,,,64,0,8,,,,,1,,,71,100
62112,note_on,,,,,32,0,8,,,,,1,,,72,97
62144,note_off,,,,,128,0,13,,,,,6,,,45,100
62144,note_off,,,,,0,0,14,,,,,7,,,76,100
62144,note_off,,,,,128,0,14,,,,,7,,,72,100
62144,note_off,,,,,128,0,15,,,,,7,,,57,100
62144,note_off,,,,,128,0,12,,,,,5,,,57,100
62176,note_off,,,,,64,0,8,,,,,1,,,72,100
62208,note_on,,,,,64,0,15,,,,,7,,,54,100
62208,note_on,,,,,64,0,14,,,,,7,,,72,100
62208,note_on,,,,,0,0,14,,,,,7,,,74,100
62208,note_on,,,,,64,0,13,,,,,6,,,42,85
62208,note_on,,,,,32,0,8,,,,,1,,,81,97
62208,note_on,,,,,64,0,12,,,,,5,,,54,85
62272,note_off,,,,,64,0,8,,,,,1,,,81,100
62304,note_on,,,,,32,0,8,,,,,1,,,72,98
62336,note_off,,,,,128,0,15,,,,,7,,,54,100
62336,note_off,,,,,128,0,14,,,,,7,,,72,100
62336,note_off,,,,,0,0,14,,,,,7,,,74,100
62336,note_off,,,,,128,0,13,,,,,6,,,42,100
62336,note_off,,,,,128,0,12,,,,,5,,,54,100
62368,note_off,,,,,64,0,8,,,,,1,,,72,100
62400,note_on,,,,,64,0,14,,,,,7,,,69,100
62400,note_on,,,,,0,0,14,,,,,7,,,72,100
62400,note_on,,,,,64,0,12,,,,,5,,,50,85
62400,note_on,,,,,32,0,8,,,,,1,,,71,99
62400,note_on,,,,,64,0,13,,,,,6,,,38,85
62400,note_on,,,,,64,0,15,,,,,7,,,50,100
62464,note_off,,,,,64,0,8,,,,,1,,,71,100
62496,note_on,,,,,32,0,8,,,,,1,,,72,99
62528,note_off,,,,,128,0,15,,,,,7,,,50,100
62528,note_off,,,,,128,0,12,,,,,5,,,50,100
62528,note_off,,,,,0,0,14,,,,,7,,,72,100
62528,note_off,,,,,128,0,13,,,,,6,,,38,100
62528,note_off,,,,,128,0,14,,,,,7,,,69,100
62560,note_off,,,,,64,0,8,,,,,1,,,72,100
62592,note_on,,,,,32,0,8,,,,,1,,,81,100
62656,note_off,,,,,64,0,8,,,,,1,,,81,100
62688,note_on,,,,,32,0,8,,,,,1,,,72,100
62752,note_off,,,,,64,0,8,,,,,1,,,72,100
62784,note_on,,,,,32,0,8,,,,,1,,,71,100
62784,note_on,,,,,256,0,13,,,,,6,,,42,85
62784,note_on,,,,,0,0,14,,,,,7,,,72,100
62784,note_on,,,,,256,0,15,,,,,7,,,54,100
62784,note_on,,,,,256,0,14,,,,,7,,,69,100
62784,note_on,,,,,256,0,12,,,,,5,,,54,85
62848,note_off,,,,,64,0,8,,,,,1,,,71,100
62880,note_on,,,,,32,0,8,,,,,1,,,69,100
62912,note_off,,,,,128,0,14,,,,,7,,,69,100
62912,note_off,,,,,0,0,14,,,,,7,,,72,100
62912,note_off,,,,,128,0,13,,,,,6,,,42,100
62912,note_off,,,,,128,0,15,,,,,7,,,54,100
62912,note_off,,,,,128,0,12,,,,,5,,,54,100
62944,note_off,,,,,64,0,8,,,,,1,,,69,100
62976,note_on,,,,,64,0,12,,,,,5,,,55,85
62976,note_on,,,,,64,0,14,,,,,7,,,74,100
62976,note_on,,,,,0,0,14,,,,,7,,,71,100
62976,note_on,,,,,64,0,13,,,,,6,,,43,85
62976,note_on,,,,,64,0,15,,,,,7,,,55,100
62976,note_on,,,,,32,0,8,,,,,1,,,71,100
63104,note_off,,,,,128,0,15,,,,,7,,,55,100
63104,note_off,,,,,128,0,13,,,,,6,,,43,100
63104,note_off,,,,,128,0,14,,,,,7,,,74,100
63104,note_off,,,,,128,0,12,,,,,5,,,55,100
63104,note_off,,,,,128,0,8,,,,,1,,,71,100
63104,note_off,,,,,0,0,14,,,,,7,,,71,100
63168,note_on,,,,,64,0,13,,,,,6,,,45,85
63168,note_on,,,,,64,0,14,,,,,7,,,73,100
63168,note_on,,,,,64,0,8,,,,,1,,,55,100
63168,note_on,,,,,64,0,15,,,,,7,,,57,100
63168,note_on,,,,,64,0,12,,,,,5,,,57,85
63296,note_off,,,,,128,0,8,,,,,1,,,55,100
63296,note_off,,,,,128,0,14,,,,,7,,,73,100
63296,note_off,,,,,128,0,13,,,,,6,,,45,100
63296,note_off,,,,,128,0,15,,,,,7,,,57,100
63296,note_off,,,,,128,0,12,,,,,5,,,57,100
63360,note_on,,,,,64,0,15,,,,,7,,,59,100
63360,note_on,,,,,64,0,13,,,,,6,,,47,85
63360,note_on,,,,,64,0,14,,,,,7,,,74,100
63360,note_on,,,,,64,0,12,,,,,5,,,59,85
63456,note_on,,,,,160,0,8,,,,,1,,,71,90
63488,note_off,,,,,128,0,12,,,,,5,,,59,100
63488,note_off,,,,,128,0,14,,,,,7,,,74,100
63488,note_off,,,,,128,0,15,,,,,7,,,59,100
63488,note_off,,,,,128,0,13,,,,,6,,,47,100
63520,note_off,,,,,64,0,8,,,,,1,,,71,100
63552,note_on,,,,,64,0,12,,,,,5,,,57,85
63552,note_on,,,,,64,0,13,,,,,6,,,45,85
63552,note_on,,,,,32,0,8,,,,,1,,,73,91
63552,note_on,,,,,64,0,15,,,,,7,,,57,100
63552,note_on,,,,,0,0,14,,,,,7,,,73,100
63552,note_on,,,,,64,0,14,,,,,7,,,76,100
63616,note_off,,,,,64,0,8,,,,,1,,,73,100
63648,note_on,,,,,32,0,8,,,,,1,,,74,92
63680,note_off,,,,,128,0,14,,,,,7,,,76,100
63680,note_off,,,,,128,0,13,,,,,6,,,45,100
63680,note_off,,,,,128,0,15,,,,,7,,,57,100
63680,note_off,,,,,0,0,14,,,,,7,,,73,100
63680,note_off,,,,,128,0,12,,,,,5,,,57,100
63712,note_off,,,,,64,0,8,,,,,1,,,74,100
63744,note_on,,,,,0,0,14,,,,,7,,,71,100
63744,note_on,,,,,64,0,14,,,,,7,,,76,100
63744,note_on,,,,,32,0,8,,,,,1,,,76,93
63744,note_on,,,,,64,0,12,,,,,5,,,56,85
63744,note_on,,,,,64,0,13,,,,,6,,,44,85
63744,note_on,,,,,64,0,15,,,,,7,,,56,100
63808,note_off,,,,,64,0,8,,,,,1,,,76,100
63840,note_on,,,,,32,0,8,,,,,1,,,78,94
63872,note_off,,,,,128,0,12,,,,,5,,,56,100
63872,note_off,,,,,128,0,15,,,,,7,,,56,100
63872,note_off,,,,,128,0,14,,,,,7,,,76,100
63872,note_off,,,,,128,0,13,,,,,6,,,44,100
63872,note_off,,,,,0,0,14,,,,,7,,,71,100
63904,note_off,,,,,64,0,8,,,,,1,,,78,100
63936,note_on,,,,,64,0,13,,,,,6,,,40,85
63936,note_on,,,,,32,0,8,,,,,1,,,80,95
63936,note_on,,,,,64,0,15,,,,,7,,,52,100
63936,note_on,,,,,0,0,14,,,,,7,,,71,100
63936,note_on,,,,,64,0,12,,,,,5,,,52,85
63936,note_on,,,,,64,0,14,,,,,7,,,68,100
64000,note_off,,,,,64,0,8,,,,,1,,,80,100
64032,note_on,,,,,32,0,8,,,,,1,,,81,96
64064,note_off,,,,,128,0,14,,,,,7,,,68,100
64064,note_off,,,,,128,0,13,,,,,6,,,40,100
64064,note_off,,,,,128,0,15,,,,,7,,,52,100
64064,note_off,,,,,128,0,12,,,,,5,,,52,100
64064,note_off,,,,,0,0,14,,,,,7,,,71,100
64096,note_off,,,,,64,0,8,,,,,1,,,81,100
64128,note_on,,,,,32,0,8,,,,,1,,,83,97
64192,note_off,,,,,64,0,8,,,,,1,,,83,100
64224,note_on,,,,,32,0,8,,,,,1,,,74,98
64288,note_off,,,,,64,0,8,,,,,1,,,74,100
64320,note_on,,,,,32,0,8,,,,,1,,,73,99
64320,note_on,,,,,256,0,14,,,,,7,,,66,100
64320,note_on,,,,,0,0,14,,,,,7,,,74,100
64320,note_on,,,,,256,0,15,,,,,7,,,59,100
64320,note_on,,,,,256,0,12,,,,,5,,,59,85
64320,note_on,,,,,256,0,13,,,,,6,,,47,85
64384,note_off,,,,,64,0,8,,,,,1,,,73,100
64416,note_on,,,,,32,0,8,,,,,1,,,74,100
64448,note_off,,,,,128,0,13,,,,,6,,,47,100
64448,note_off,,,,,128,0,14,,,,,7,,,66,100
64448,note_off,,,,,0,0,14,,,,,7,,,74,100
64448,note_off,,,,,128,0,15,,,,,7,,,59,100
64448,note_off,,,,,128,0,12,,,,,5,,,59,100
64480,note_off,,,,,64,0,8,,,,,1,,,74,100
64512,note_on,,,,,64,0,12,,,,,5,,,56,85
64512,note_on,,,,,64,0,13,,,,,6,,,44,85
64512,note_on,,,,,32,0,8,,,,,1,,,83,101
64512,note_on,,,,,64,0,14,,,,,7,,,74,100
64512,note_on,,,,,0,0,14,,,,,7,,,64,100
64512,note_on,,,,,64,0,15,,,,,7,,,56,100
64576,note_off,,,,,64,0,8,,,,,1,,,83,100
64608,note_on,,,,,32,0,8,,,,,1,,,74,102
64640,note_off,,,,,128,0,14,,,,,7,,,74,100
64640,note_off,,,,,0,0,14,,,,,7,,,64,100
64640,note_off,,,,,128,0,13,,,,,6,,,44,100
64640,note_off,,,,,128,0,15,,,,,7,,,56,100
64640,note_off,,,,,128,0,12,,,,,5,,,56,100
64672,note_off,,,,,64,0,8,,,,,1,,,74,100
64704,note_on,,,,,64,0,13,,,,,6,,,40,85
64704,note_on,,,,,32,0,8,,,,,1,,,73,103
64704,note_on,,,,,64,0,15,,,,,7,,,52,100
64704,note_on,,,,,0,0,14,,,,,7,,,74,100
64704,note_on,,,,,64,0,14,,,,,7,,,68,100
64704,note_on,,,,,64,0,12,,,,,5,,,52,85
64768,note_off,,,,,64,0,8,,,,,1,,,73,100
64800,note_on,,,,,32,0,8,,,,,1,,,74,104
64832,note_off,,,,,128,0,12,,,,,5,,,52,100
64832,note_off,,,,,128,0,14,,,,,7,,,68,100
64832,note_off,,,,,128,0,15,,,,,7,,,52,100
64832,note_off,,,,,0,0,14,,,,,7,,,74,100
64832,note_off,,,,,128,0,13,,,,,6,,,40,100
64864,note_off,,,,,64,0,8,,,,,1,,,74,100
64896,note_on,,,,,32,0,8,,,,,1,,,83,105
64960,note_off,,,,,64,0,8,,,,,1,,,83,100
64992,note_on,,,,,32,0,8,,,,,1,,,74,105
65056,note_off,,,,,64,0,8,,,,,1,,,74,100
65088,note_on,,,,,32,0,8,,,,,1,,,73,105
65088,note_on,,,,,256,0,15,,,,,7,,,56,100
65088,note_on,,,,,0,0,14,,,,,7,,,74,100
65088,note_on,,,,,256,0,14,,,,,7,,,64,100
65088,note_on,,,,,256,0,12,,,,,5,,,56,85
65088,note_on,,,,,256,0,13,,,,,6,,,44,85
65152,note_off,,,,,64,0,8,,,,,1,,,73,100
65184,note_on,,,,,32,0,8,,,,,1,,,71,105
65216,note_off,,,,,128,0,14,,,,,7,,,64,100
65216,note_off,,,,,128,0,12,,,,,5,,,56,100
65216,note_off,,,,,128,0,15,,,,,7,,,56,100
65216,note_off,,,,,0,0,14,,,,,7,,,74,100
65216,note_off,,,,,128,0,13,,,,,6,,,44,100
65248,note_off,,,,,64,0,8,,,,,1,,,71,100
65280,note_on,,,,,64,0,14,,,,,7,,,64,100
65280,note_on,,,,,0,0,14,,,,,7,,,73,100
65280,note_on,,,,,64,0,12,,,,,5,,,57,85
65280,note_on,,,,,64,0,15,,,,,7,,,57,100
65280,note_on,,,,,64,0,13,,,,,6,,,45,85
65280,note_on,,,,,32,0,8,,,,,1,,,73,105
65408,note_off,,,,,128,0,13,,,,,6,,,45,100
65408,note_off,,,,,128,0,8,,,,,1,,,73,100
65408,note_off,,,,,128,0,15,,,,,7,,,57,100
65408,note_off,,,,,128,0,14,,,,,7,,,64,100
65408,note_off,,,,,0,0,14,,,,,7,,,73,100
65408,note_off,,,,,128,0,12,,,,,5,,,57,100
65472,note_on,,,,,64,0,13,,,,,6,,,33,85
65472,note_on,,,,,64,0,14,,,,,7,,,61,100
65472,note_on,,,,,0,0,14,,,,,7,,,64,100
65472,note_on,,,,,64,0,8,,,,,1,,,57,105
65472,note_on,,,,,64,0,15,,,,,7,,,45,100
65472,note_on,,,,,64,0,12,,,,,5,,,45,85
65600,note_off,,,,,128,0,12,,,,,5,,,45,100
65600,note_off,,,,,128,0,13,,,,,6,,,33,100
65600,note_off,,,,,128,0,14,,,,,7,,,61,100
65600,note_off,,,,,0,0,14,,,,,7,,,64,100
65600,note_off,,,,,128,0,8,,,,,1,,,57,100
65600,note_off,,,,,128,0,15,,,,,7,,,45,100
65664,note_on,,,,,64,0,12,,,,,5,,,45,85
65664,note_on,,,,,64,0,13,,,,,6,,,33,85
65664,note_on,,,,,64,0,15,,,,,7,,,45,100
65664,note_on,,,,,64,0,14,,,,,7,,,61,100
65664,note_on,,,,,0,0,14,,,,,7,,,64,100
65760,note_on,,,,,160,0,8,,,,,1,,,73,105
65792,note_off,,,,,128,0,14,,,,,7,,,61,100
65792,note_off,,,,,0,0,14,,,,,7,,,64,100
65792,note_off,,,,,128,0,13,,,,,6,,,33,100
65792,note_off,,,,,128,0,12,,,,,5,,,45,100
65792,note_off,,,,,128,0,15,,,,,7,,,45,100
65824,note_off,,,,,64,0,8,,,,,1,,,73,100
65856,note_on,,,,,64,0,14,,,,,7,,,64,100
65856,note_on,,,,,0,0,14,,,,,7,,,73,100
65856,note_on,,,,,64,0,13,,,,,6,,,45,85
65856,note_on,,,,,32,0,8,,,,,1,,,74,105
65856,note_on,,,,,64,0,12,,,,,5,,,57,85
65856,note_on,,,,,64,0,15,,,,,7,,,57,100
65920,note_off,,,,,64,0,8,,,,,1,,,74,100
65952,note_on,,,,,32,0,8,,,,,1,,,76,104
65984,note_off,,,,,128,0,14,,,,,7,,,64,100
65984,note_off,,,,,0,0,14,,,,,7,,,73,100
65984,note_off,,,,,128,0,15,,,,,7,,,57,100
65984,note_off,,,,,128,0,12,,,,,5,,,57,100
65984,note_off,,,,,128,0,13,,,,,6,,,45,100
66016,note_off,,,,,64,0,8,,,,,1,,,76,100
66048,note_on,,,,,64,0,14,,,,,7,,,66,100
66048,note_on,,,,,0,0,14,,,,,7,,,73,100
66048,note_on,,,,,64,0,13,,,,,6,,,45,85
66048,note_on,,,,,32,0,8,,,,,1,,,78,104
66048,note_on,,,,,64,0,15,,,,,7,,,57,100
66048,note_on,,,,,64,0,12,,,,,5,,,57,85
66140,note_off,,,,,92,0,8,,,,,1,,,78,100
66144,note_on,,,,,4,0,8,,,,,1,,,79,103
66176,note_off,,,,,128,0,15,,,,,7,,,57,100
66176,note_off,,,,,128,0,13,,,,,6,,,45,100
66176,note_off,,,,,128,0,12,,,,,5,,,57,100
66176,note_off,,,,,128,0,14,,,,,7,,,66,100
66176,note_off,,,,,0,0,14,,,,,7,,,73,100
66236,note_off,,,,,92,0,8,,,,,1,,,79,100
66240,note_on,,,,,64,0,13,,,,,6,,,33,85
66240,note_on,,,,,64,0,15,,,,,7,,,45,100
66240,note_on,,,,,4,0,8,,,,,1,,,78,102
66240,note_on,,,,,64,0,12,,,,,5,,,45,85
66240,note_on,,,,,0,0,14,,,,,7,,,66,100
66240,note_on,,,,,64,0,14,,,,,7,,,61,100
66304,note_off,,,,,64,0,8,,,,,1,,,78,100
66336,note_on,,,,,32,0,8,,,,,1,,,79,102
66368,note_off,,,,,0,0,14,,,,,7,,,66,100
66368,note_off,,,,,128,0,12,,,,,5,,,45,100
66368,note_off,,,,,128,0,15,,,,,7,,,45,100
66368,note_off,,,,,128,0,13,,,,,6,,,33,100
66368,note_off,,,,,128,0,14,,,,,7,,,61,100
66400,note_off,,,,,64,0,8,,,,,1,,,79,100
66432,note_on,,,,,32,0,8,,,,,1,,,78,101
66496,note_off,,,,,64,0,8,,,,,1,,,78,100
66528,note_on,,,,,32,0,8,,,,,1,,,79,100
66592,note_off,,,,,64,0,8,,,,,1,,,79,100
66624,note_on,,,,,32,0,8,,,,,1,,,78,100
66624,note_on,,,,,256,0,13,,,,,6,,,45,85
66624,note_on,,,,,0,0,14,,,,,7,,,66,100
66624,note_on,,,,,256,0,12,,,,,5,,,57,85
66624,note_on,,,,,256,0,14,,,,,7,,,73,100
66624,note_on,,,,,256,0,15,,,,,7,,,57,100
66688,note_off,,,,,64,0,8,,,,,1,,,78,100
66720,note_on,,,,,32,0,8,,,,,1,,,76,99
66752,note_off,,,,,0,0,14,,,,,7,,,66,100
66752,note_off,,,,,128,0,15,,,,,7,,,57,100
66752,note_off,,,,,128,0,12,,,,,5,,,57,100
66752,note_off,,,,,128,0,13,,,,,6,,,45,100
66752,note_off,,,,,128,0,14,,,,,7,,,73,100
66784,note_off,,,,,64,0,8,,,,,1,,,76,100
66816,note_on,,,,,32,0,8,,,,,1,,,74,98
66816,note_on,,,,,64,0,12,,,,,5,,,59,85
66816,note_on,,,,,64,0,15,,,,,7,,,59,100
66816,note_on,,,,,0,0,14,,,,,7,,,74,100
66816,note_on,,,,,64,0,13,,,,,6,,,47,85
66816,note_on,,,,,64,0,14,,,,,7,,,66,100
66880,note_off,,,,,64,0,8,,,,,1,,,74,100
66912,note_on,,,,,32,0,8,,,,,1,,,73,98
66944,note_off,,,,,128,0,14,,,,,7,,,66,100
66944,note_off,,,,,0,0,14,,,,,7,,,74,100
66944,note_off,,,,,128,0,12,,,,,5,,,59,100
66944,note_off,,,,,128,0,13,,,,,6,,,47,100
66944,note_off,,,,,128,0,15,,,,,7,,,59,100
66976,note_off,,,,,64,0,8,,,,,1,,,73,100
67008,note_on,,,,,64,0,13,,,,,6,,,35,85
67008,note_on,,,,,64,0,12,,,,,5,,,47,85
67008,note_on,,,,,64,0,15,,,,,7,,,47,100
67008,note_on,,,,,32,0,8,,,,,1,,,74,97
67008,note_on,,,,,64,0,14,,,,,7,,,62,100
67008,note_on,,,,,0,0,14,,,,,7,,,66,100
67072,note_off,,,,,64,0,8,,,,,1,,,74,100
67104,note_on,,,,,32,0,8,,,,,1,,,73,96
67136,note_off,,,,,128,0,12,,,,,5,,,47,100
67136,note_off,,,,,0,0,14,,,,,7,,,66,100
67136,note_off,,,,,128,0,15,,,,,7,,,47,100
67136,note_off,,,,,128,0,13,,,,,6,,,35,100
67136,note_off,,,,,128,0,14,,,,,7,,,62,100
67168,note_off,,,,,64,0,8,,,,,1,,,73,100
67200,note_on,,,,,32,0,8,,,,,1,,,71,96
67264,note_off,,,,,64,0,8,,,,,1,,,71,100
67296,note_on,,,,,32,0,8,,,,,1,,,74,110
67360,note_off,,,,,64,0,8,,,,,1,,,74,100
67392,note_on,,,,,32,0,8,,,,,1,,,76,110
67456,note_off,,,,,64,0,8,,,,,1,,,76,100
67488,note_on,,,,,32,0,8,,,,,1,,,78,109
67552,note_off,,,,,64,0,8,,,,,1,,,78,100
67584,note_on,,,,,32,0,8,,,,,1,,,79,109
67584,note_on,,,,,448,0,13,,,,,6,,,47,85
67584,note_on,,,,,448,0,12,,,,,5,,,59,85
67584,note_on,,,,,448,0,15,,,,,7,,,59,100
67584,note_on,,,,,448,0,14,,,,,7,,,67,100
67584,note_on,,,,,0,0,14,,,,,7,,,74,100
67676,note_off,,,,,92,0,8,,,,,1,,,79,100
67680,note_on,,,,,4,0,8,,,,,1,,,81,108
67712,note_off,,,,,0,0,14,,,,,7,,,74,100
67712,note_off,,,,,128,0,13,,,,,6,,,47,100
67712,note_off,,,,,128,0,12,,,,,5,,,59,100
67712,note_off,,,,,128,0,15,,,,,7,,,59,100
67712,note_off,,,,,128,0,14,,,,,7,,,67,100
67772,note_off,,,,,92,0,8,,,,,1,,,81,100
67776,note_on,,,,,4,0,8,,,,,1,,,79,107
67776,note_on,,,,,64,0,12,,,,,5,,,47,85
67776,note_on,,,,,64,0,13,,,,,6,,,35,85
67776,note_on,,,,,64,0,14,,,,,7,,,62,100
67776,note_on,,,,,64,0,15,,,,,7,,,47,100
67776,note_on,,,,,0,0,14,,,,,7,,,67,100
67840,note_off,,,,,64,0,8,,,,,1,,,79,100
67872,note_on,,,,,32,0,8,,,,,1,,,81,107
67904,note_off,,,,,128,0,15,,,,,7,,,47,100
67904,note_off,,,,,128,0,13,,,,,6,,,35,100
67904,note_off,,,,,128,0,14,,,,,7,,,62,100
67904,note_off,,,,,128,0,12,,,,,5,,,47,100
67904,note_off,,,,,0,0,14,,,,,7,,,67,100
67936,note_off,,,,,64,0,8,,,,,1,,,81,100
67968,note_on,,,,,32,0,8,,,,,1,,,79,106
68032,note_off,,,,,64,0,8,,,,,1,,,79,100
68064,note_on,,,,,32,0,8,,,,,1,,,81,105
68128,note_off,,,,,64,0,8,,,,,1,,,81,100
68160,note_on,,,,,0,0,14,,,,,7,,,74,100
68160,note_on,,,,,256,0,14,,,,,7,,,67,100
68160,note_on,,,,,256,0,15,,,,,7,,,59,100
68160,note_on,,,,,256,0,13,,,,,6,,,47,85
68160,note_on,,,,,32,0,8,,,,,1,,,79,105
68160,note_on,,,,,256,0,12,,,,,5,,,59,85
68224,note_off,,,,,64,0,8,,,,,1,,,79,100
68256,note_on,,,,,32,0,8,,,,,1,,,78,104
68288,note_off,,,,,0,0,14,,,,,7,,,74,100
68288,note_off,,,,,128,0,14,,,,,7,,,67,100
68288,note_off,,,,,128,0,15,,,,,7,,,59,100
68288,note_off,,,,,128,0,12,,,,,5,,,59,100
68288,note_off,,,,,128,0,13,,,,,6,,,47,100
68320,note_off,,,,,64,0,8,,,,,1,,,78,100
68352,note_on,,,,,64,0,13,,,,,6,,,49,85
68352,note_on,,,,,0,0,14,,,,,7,,,76,100
68352,note_on,,,,,64,0,14,,,,,7,,,67,100
68352,note_on,,,,,64,0,15,,,,,7,,,61,100
68352,note_on,,,,,64,0,12,,,,,5,,,61,85
68352,note_on,,,,,32,0,8,,,,,1,,,76,103
68416,note_off,,,,,64,0,8,,,,,1,,,76,100
68448,note_on,,,,,32,0,8,,,,,1,,,74,103
68480,note_off,,,,,128,0,15,,,,,7,,,61,100
68480,note_off,,,,,128,0,12,,,,,5,,,61,100
68480,note_off,,,,,128,0,13,,,,,6,,,49,100
68480,note_off,,,,,0,0,14,,,,,7,,,76,100
68480,note_off,,,,,128,0,14,,,,,7,,,67,100
68512,note_off,,,,,64,0,8,,,,,1,,,74,100
68544,note_on,,,,,64,0,12,,,,,5,,,49,85
68544,note_on,,,,,64,0,15,,,,,7,,,49,100
68544,note_on,,,,,0,0,14,,,,,7,,,67,100
68544,note_on,,,,,64,0,14,,,,,7,,,64,100
68544,note_on,,,,,64,0,13,,,,,6,,,37,85
68544,note_on,,,,,32,0,8,,,,,1,,,76,102
68608,note_off,,,,,64,0,8,,,,,1,,,76,100
68640,note_on,,,,,32,0,8,,,,,1,,,74,101
68672,note_off,,,,,128,0,12,,,,,5,,,49,100
68672,note_off,,,,,128,0,14,,,,,7,,,64,100
68672,note_off,,,,,128,0,13,,,,,6,,,37,100
68672,note_off,,,,,128,0,15,,,,,7,,,49,100
68672,note_off,,,,,0,0,14,,,,,7,,,67,100
68704,note_off,,,,,64,0,8,,,,,1,,,74,100
68736,note_on,,,,,32,0,8,,,,,1,,,73,101
68800,note_off,,,,,64,0,8,,,,,1,,,73,100
68832,note_on,,,,,32,0,8,,,,,1,,,76,115
68896,note_off,,,,,64,0,8,,,,,1,,,76,100
68928,note_on,,,,,32,0,8,,,,,1,,,78,115
68992,note_off,,,,,64,0,8,,,,,1,,,78,100
69024,note_on,,,,,32,0,8,,,,,1,,,79,114
69088,note_off,,,,,64,0,8,,,,,1,,,79,100
69120,note_on,,,,,448,0,15,,,,,7,,,61,100
69120,note_on,,,,,448,0,13,,,,,6,,,49,85
69120,note_on,,,,,32,0,8,,,,,1,,,81,114
69120,note_on,,,,,0,0,14,,,,,7,,,76,100
69120,note_on,,,,,448,0,12,,,,,5,,,61,85
69120,note_on,,,,,448,0,14,,,,,7,,,69,100
69212,note_off,,,,,92,0,8,,,,,1,,,81,100
69216,note_on,,,,,4,0,8,,,,,1,,,83,113
69248,note_off,,,,,128,0,13,,,,,6,,,49,100
69248,note_off,,,,,128,0,12,,,,,5,,,61,100
69248,note_off,,,,,128,0,15,,,,,7,,,61,100
69248,note_off,,,,,128,0,14,,,,,7,,,69,100
69248,note_off,,,,,0,0,14,,,,,7,,,76,100
69308,note_off,,,,,92,0,8,,,,,1,,,83,100
69312,note_on,,,,,64,0,14,,,,,7,,,64,100
69312,note_on,,,,,64,0,12,,,,,5,,,49,85
69312,note_on,,,,,64,0,15,,,,,7,,,49,100
69312,note_on,,,,,4,0,8,,,,,1,,,81,112
69312,note_on,,,,,0,0,14,,,,,7,,,69,100
69312,note_on,,,,,64,0,13,,,,,6,,,37,85
69376,note_off,,,,,64,0,8,,,,,1,,,81,100
69408,note_on,,,,,32,0,8,,,,,1,,,83,112
69440,note_off,,,,,128,0,15,,,,,7,,,49,100
69440,note_off,,,,,0,0,14,,,,,7,,,69,100
69440,note_off,,,,,128,0,14,,,,,7,,,64,100
69440,note_off,,,,,128,0,13,,,,,6,,,37,100
69440,note_off,,,,,128,0,12,,,,,5,,,49,100
69472,note_off,,,,,64,0,8,,,,,1,,,83,100
69504,note_on,,,,,32,0,8,,,,,1,,,81,111
69568,note_off,,,,,64,0,8,,,,,1,,,81,100
69600,note_on,,,,,32,0,8,,,,,1,,,83,110
69664,note_off,,,,,64,0,8,,,,,1,,,83,100
69696,note_on,,,,,256,0,12,,,,,5,,,61,85
69696,note_on,,,,,256,0,14,,,,,7,,,76,100
69696,note_on,,,,,0,0,14,,,,,7,,,69,100
69696,note_on,,,,,256,0,13,,,,,6,,,49,85
69696,note_on,,,,,32,0,8,,,,,1,,,81,110
69696,note_on,,,,,256,0,15,,,,,7,,,61,100
69760,note_off,,,,,64,0,8,,,,,1,,,81,100
69792,note_on,,,,,32,0,8,,,,,1,,,79,109
69824,note_off,,,,,128,0,13,,,,,6,,,49,100
69824,note_off,,,,,128,0,15,,,,,7,,,61,100
69824,note_off,,,,,128,0,14,,,,,7,,,76,100
69824,note_off,,,,,0,0,14,,,,,7,,,69,100
69824,note_off,,,,,128,0,12,,,,,5,,,61,100
69856,note_off,,,,,64,0,8,,,,,1,,,79,100
69888,note_on,,,,,64,0,13,,,,,6,,,50,85
69888,note_on,,,,,32,0,8,,,,,1,,,78,108
69888,note_on,,,,,64,0,12,,,,,5,,,62,85
69888,note_on,,,,,64,0,14,,,,,7,,,69,100
69888,note_on,,,,,0,0,14,,,,,7,,,78,100
69888,note_on,,,,,64,0,15,,,,,7,,,62,100
69952,note_off,,,,,64,0,8,,,,,1,,,78,100
69984,note_on,,,,,32,0,8,,,,,1,,,76,108
70016,note_off,,,,,128,0,12,,,,,5,,,62,100
70016,note_off,,,,,128,0,15,,,,,7,,,62,100
70016,note_off,,,,,128,0,13,,,,,6,,,50,100
70016,note_off,,,,,128,0,14,,,,,7,,,69,100
70016,note_off,,,,,0,0,14,,,,,7,,,78,100
70048,note_off,,,,,64,0,8,,,,,1,,,76,100
70080,note_on,,,,,32,0,8,,,,,1,,,78,107
70080,note_on,,,,,64,0,15,,,,,7,,,50,100
70080,note_on,,,,,64,0,14,,,,,7,,,66,100
70080,note_on,,,,,0,0,14,,,,,7,,,69,100
70080,note_on,,,,,64,0,12,,,,,5,,,50,85
70080,note_on,,,,,64,0,13,,,,,6,,,38,85
70144,note_off,,,,,64,0,8,,,,,1,,,78,100
70176,note_on,,,,,32,0,8,,,,,1,,,76,106
70208,note_off,,,,,128,0,15,,,,,7,,,50,100
70208,note_off,,,,,128,0,12,,,,,5,,,50,100
70208,note_off,,,,,128,0,13,,,,,6,,,38,100
70208,note_off,,,,,128,0,14,,,,,7,,,66,100
70208,note_off,,,,,0,0,14,,,,,7,,,69,100
70240,note_off,,,,,64,0,8,,,,,1,,,76,100
70272,note_on,,,,,32,0,8,,,,,1,,,74,106
70336,note_off,,,,,64,0,8,,,,,1,,,74,100
70368,note_on,,,,,32,0,8,,,,,1,,,81,115
70432,note_off,,,,,64,0,8,,,,,1,,,81,100
70464,note_on,,,,,32,0,8,,,,,1,,,83,114
70528,note_off,,,,,64,0,8,,,,,1,,,83,100
70560,note_on,,,,,32,0,8,,,,,1,,,85,112
70624,note_off,,,,,64,0,8,,,,,1,,,85,100
70652,program_change,,,,,9660,0,9,,,,,2,40,,,
70656,note_on,,,,,9728,0,11,,,,,4,,,62,85
70656,note_on,,,,,4,0,9,,,,,2,,,78,100
70656,note_on,,,,,32,0,8,,,,,1,,,86,111
70720,note_off,,,,,64,0,8,,,,,1,,,86,100
70720,note_off,,,,,64,0,9,,,,,2,,,78,100
70752,note_on,,,,,32,0,9,,,,,2,,,76,100
70752,note_on,,,,,32,0,8,,,,,1,,,85,109
70784,note_off,,,,,128,0,11,,,,,4,,,62,100
70816,note_off,,,,,64,0,8,,,,,1,,,85,100
70816,note_off,,,,,64,0,9,,,,,2,,,76,100
70848,note_on,,,,,64,0,11,,,,,4,,,62,85
70848,note_on,,,,,32,0,8,,,,,1,,,86,107
70848,note_on,,,,,32,0,9,,,,,2,,,78,100
70912,note_off,,,,,64,0,8,,,,,1,,,86,100
70912,note_off,,,,,64,0,9,,,,,2,,,78,100
70944,note_on,,,,,32,0,8,,,,,1,,,85,106
70944,note_on,,,,,32,0,9,,,,,2,,,76,100
70976,note_off,,,,,128,0,11,,,,,4,,,62,100
71008,note_off,,,,,64,0,8,,,,,1,,,85,100
71008,note_off,,,,,64,0,9,,,,,2,,,76,100
71040,note_on,,,,,32,0,9,,,,,2,,,74,100
71040,note_on,,,,,32,0,8,,,,,1,,,83,100
71040,note_on,,,,,64,0,11,,,,,4,,,64,85
71104,note_off,,,,,64,0,8,,,,,1,,,83,100
71104,note_off,,,,,64,0,9,,,,,2,,,74,100
71136,note_on,,,,,32,0,9,,,,,2,,,78,100
71136,note_on,,,,,32,0,8,,,,,1,,,86,100
71168,note_off,,,,,128,0,11,,,,,4,,,64,100
71200,note_off,,,,,64,0,9,,,,,2,,,78,100
71200,note_off,,,,,64,0,8,,,,,1,,,86,100
71232,note_on,,,,,32,0,9,,,,,2,,,76,100
71232,note_on,,,,,64,0,11,,,,,4,,,64,85
71232,note_on,,,,,32,0,8,,,,,1,,,85,100
71296,note_off,,,,,64,0,9,,,,,2,,,76,100
71296,note_off,,,,,64,0,8,,,,,1,,,85,100
71328,note_on,,,,,32,0,8,,,,,1,,,83,100
71328,note_on,,,,,32,0,9,,,,,2,,,74,100
71360,note_off,,,,,128,0,11,,,,,4,,,64,100
71392,note_off,,,,,64,0,9,,,,,2,,,74,100
71392,note_off,,,,,64,0,8,,,,,1,,,83,100
71424,note_on,,,,,64,0,11,,,,,4,,,66,85
71424,note_on,,,,,32,0,9,,,,,2,,,73,100
71424,note_on,,,,,32,0,8,,,,,1,,,82,100
71516,note_off,,,,,92,0,9,,,,,2,,,73,100
71516,note_off,,,,,92,0,8,,,,,1,,,82,100
71520,note_on,,,,,4,0,9,,,,,2,,,74,100
71520,note_on,,,,,4,0,8,,,,,1,,,83,100
71552,note_off,,,,,128,0,11,,,,,4,,,66,100
71612,note_off,,,,,92,0,8,,,,,1,,,83,100
71612,note_off,,,,,92,0,9,,,,,2,,,74,100
71616,note_on,,,,,64,0,11,,,,,4,,,66,85
71616,note_on,,,,,4,0,8,,,,,1,,,85,100
71616,note_on,,,,,4,0,9,,,,,2,,,76,100
71680,note_off,,,,,64,0,9,,,,,2,,,76,100
71680,note_off,,,,,64,0,8,,,,,1,,,85,100
71712,note_on,,,,,32,0,8,,,,,1,,,83,100
71712,note_on,,,,,32,0,9,,,,,2,,,74,100
71744,note_off,,,,,128,0,11,,,,,4,,,66,100
71776,note_off,,,,,64,0,9,,,,,2,,,74,100
71776,note_off,,,,,64,0,8,,,,,1,,,83,100
71808,note_on,,,,,32,0,8,,,,,1,,,82,100
71808,note_on,,,,,32,0,9,,,,,2,,,73,100
71808,note_on,,,,,64,0,11,,,,,4,,,66,85
71872,note_off,,,,,64,0,9,,,,,2,,,73,100
71872,note_off,,,,,64,0,8,,,,,1,,,82,100
71904,note_on,,,,,32,0,8,,,,,1,,,85,100
71904,note_on,,,,,32,0,9,,,,,2,,,76,100
71936,note_off,,,,,128,0,11,,,,,4,,,66,100
71968,note_off,,,,,64,0,8,,,,,1,,,85,100
71968,note_off,,,,,64,0,9,,,,,2,,,76,100
72000,note_on,,,,,32,0,8,,,,,1,,,83,100
72000,note_on,,,,,32,0,9,,,,,2,,,74,100
72000,note_on,,,,,64,0,11,,,,,4,,,66,85
72064,note_off,,,,,64,0,9,,,,,2,,,74,100
72064,note_off,,,,,64,0,8,,,,,1,,,83,100
72096,note_on,,,,,32,0,9,,,,,2,,,73,100
72096,note_on,,,,,32,0,8,,,,,1,,,82,100
72128,note_off,,,,,128,0,11,,,,,4,,,66,100
72160,note_off,,,,,64,0,9,,,,,2,,,73,100
72160,note_off,,,,,64,0,8,,,,,1,,,82,100
72192,note_on,,,,,32,0,9,,,,,2,,,74,70
72192,note_on,,,,,32,0,8,,,,,1,,,83,70
72192,note_on,,,,,64,0,11,,,,,4,,,66,60
72284,note_off,,,,,92,0,9,,,,,2,,,74,100
72284,note_off,,,,,92,0,8,,,,,1,,,83,100
72288,note_on,,,,,4,0,9,,,,,2,,,76,70
72288,note_on,,,,,4,0,8,,,,,1,,,85,70
72320,note_off,,,,,128,0,11,,,,,4,,,66,100
72380,note_off,,,,,92,0,9,,,,,2,,,76,100
72380,note_off,,,,,92,0,8,,,,,1,,,85,100
72384,note_on,,,,,4,0,9,,,,,2,,,78,70
72384,note_on,,,,,4,0,8,,,,,1,,,86,70
72384,note_on,,,,,64,0,11,,,,,4,,,66,60
72448,note_off,,,,,64,0,8,,,,,1,,,86,100
72448,note_off,,,,,64,0,9,,,,,2,,,78,100
72480,note_on,,,,,32,0,8,,,,,1,,,85,70
72480,note_on,,,,,32,0,9,,,,,2,,,76,70
72512,note_off,,,,,128,0,11,,,,,4,,,66,100
72544,note_off,,,,,64,0,8,,,,,1,,,85,100
72544,note_off,,,,,64,0,9,,,,,2,,,76,100
72576,note_on,,,,,32,0,9,,,,,2,,,74,70
72576,note_on,,,,,64,0,11,,,,,4,,,66,60
72576,note_on,,,,,32,0,8,,,,,1,,,83,70
72640,note_off,,,,,64,0,9,,,,,2,,,74,100
72640,note_off,,,,,64,0,8,,,,,1,,,83,100
72672,note_on,,,,,32,0,9,,,,,2,,,78,70
72672,note_on,,,,,32,0,8,,,,,1,,,86,70
72704,note_off,,,,,128,0,11,,,,,4,,,66,100
72736,note_off,,,,,64,0,9,,,,,2,,,78,100
72736,note_off,,,,,64,0,8,,,,,1,,,86,100
72768,note_on,,,,,64,0,11,,,,,4,,,66,60
72768,note_on,,,,,32,0,9,,,,,2,,,76,70
72768,note_on,,,,,32,0,8,,,,,1,,,85,70
72832,note_off,,,,,64,0,8,,,,,1,,,85,100
72832,note_off,,,,,64,0,9,,,,,2,,,76,100
72864,note_on,,,,,32,0,8,,,,,1,,,83,70
72864,note_on,,,,,32,0,9,,,,,2,,,74,70
72896,note_off,,,,,128,0,11,,,,,4,,,66,100
72928,note_off,,,,,64,0,9,,,,,2,,,74,100
72928,note_off,,,,,64,0,8,,,,,1,,,83,100
72960,note_on,,,,,32,0,8,,,,,1,,,82,70
72960,note_on,,,,,32,0,9,,,,,2,,,73,70
72960,note_on,,,,,64,0,11,,,,,4,,,66,60
73052,note_off,,,,,92,0,8,,,,,1,,,82,100
73052,note_off,,,,,92,0,9,,,,,2,,,73,100
73056,note_on,,,,,4,0,8,,,,,1,,,83,70
73056,note_on,,,,,4,0,9,,,,,2,,,74,70
73088,note_off,,,,,128,0,11,,,,,4,,,66,100
73148,note_off,,,,,92,0,9,,,,,2,,,74,100
73148,note_off,,,,,92,0,8,,,,,1,,,83,100
73152,note_on,,,,,4,0,8,,,,,1,,,85,70
73152,note_on,,,,,64,0,11,,,,,4,,,66,60
73152,note_on,,,,,4,0,9,,,,,2,,,76,70
73216,note_off,,,,,64,0,8,,,,,1,,,85,100
73216,note_off,,,,,64,0,9,,,,,2,,,76,100
73248,note_on,,,,,32,0,9,,,,,2,,,74,70
73248,note_on,,,,,32,0,8,,,,,1,,,83,70
73280,note_off,,,,,128,0,11,,,,,4,,,66,100
73312,note_off,,,,,64,0,9,,,,,2,,,74,100
73312,note_off,,,,,64,0,8,,,,,1,,,83,100
73344,note_on,,,,,32,0,9,,,,,2,,,73,70
73344,note_on,,,,,32,0,8,,,,,1,,,82,70
73344,note_on,,,,,64,0,11,,,,,4,,,66,60
73408,note_off,,,,,64,0,8,,,,,1,,,82,100
73436,note_off,,,,,92,0,9,,,,,2,,,73,100
73440,note_on,,,,,32,0,8,,,,,1,,,85,70
73440,note_on,,,,,4,0,9,,,,,2,,,76,70
73472,note_off,,,,,128,0,11,,,,,4,,,66,100
73504,note_off,,,,,64,0,8,,,,,1,,,85,100
73532,note_off,,,,,92,0,9,,,,,2,,,76,100
73536,note_on,,,,,64,0,11,,,,,4,,,66,60
73536,note_on,,,,,32,0,8,,,,,1,,,83,70
73536,note_on,,,,,4,0,9,,,,,2,,,74,70
73600,note_off,,,,,64,0,9,,,,,2,,,74,100
73600,note_off,,,,,64,0,8,,,,,1,,,83,100
73632,note_on,,,,,32,0,8,,,,,1,,,82,70
73632,note_on,,,,,32,0,9,,,,,2,,,73,70
73664,note_off,,,,,128,0,11,,,,,4,,,66,100
73696,note_off,,,,,64,0,8,,,,,1,,,82,100
73696,note_off,,,,,64,0,9,,,,,2,,,73,100
73728,note_on,,,,,32,0,8,,,,,1,,,83,100
73728,note_on,,,,,32,0,9,,,,,2,,,74,100
73728,note_on,,,,,64,0,11,,,,,4,,,66,100
73820,note_off,,,,,92,0,9,,,,,2,,,74,100
73820,note_off,,,,,92,0,8,,,,,1,,,83,100
73824,note_on,,,,,4,0,9,,,,,2,,,76,100
73824,note_on,,,,,4,0,8,,,,,1,,,85,100
73856,note_off,,,,,128,0,11,,,,,4,,,66,100
73916,note_off,,,,,92,0,9,,,,,2,,,76,100
73916,note_off,,,,,92,0,8,,,,,1,,,85,100
73920,note_on,,,,,4,0,9,,,,,2,,,78,100
73920,note_on,,,,,64,0,11,,,,,4,,,66,100
73920,note_on,,,,,4,0,8,,,,,1,,,86,100
73984,note_off,,,,,64,0,9,,,,,2,,,78,100
73984,note_off,,,,,64,0,8,,,,,1,,,86,100
74016,note_on,,,,,32,0,9,,,,,2,,,76,100
74016,note_on,,,,,32,0,8,,,,,1,,,85,100
74048,note_off,,,,,128,0,11,,,,,4,,,66,100
74080,note_off,,,,,64,0,9,,,,,2,,,76,100
74080,note_off,,,,,64,0,8,,,,,1,,,85,100
74112,note_on,,,,,64,0,11,,,,,4,,,66,100
74112,note_on,,,,,32,0,9,,,,,2,,,74,100
74112,note_on,,,,,32,0,8,,,,,1,,,83,100
74204,note_off,,,,,92,0,9,,,,,2,,,74,100
74204,note_off,,,,,92,0,8,,,,,1,,,83,100
74208,note_on,,,,,4,0,8,,,,,1,,,86,100
74208,note_on,,,,,4,0,9,,,,,2,,,78,100
74240,note_off,,,,,128,0,11,,,,,4,,,66,100
74300,note_off,,,,,92,0,8,,,,,1,,,86,100
74300,note_off,,,,,92,0,9,,,,,2,,,78,100
74304,note_on,,,,,4,0,8,,,,,1,,,85,100
74304,note_on,,,,,64,0,11,,,,,4,,,66,100
74304,note_on,,,,,4,0,9,,,,,2,,,76,100
74368,note_off,,,,,64,0,9,,,,,2,,,76,100
74368,note_off,,,,,64,0,8,,,,,1,,,85,100
74400,note_on,,,,,32,0,9,,,,,2,,,74,100
74400,note_on,,,,,32,0,8,,,,,1,,,83,100
74432,note_off,,,,,128,0,11,,,,,4,,,66,100
74464,note_off,,,,,64,0,9,,,,,2,,,74,100
74464,note_off,,,,,64,0,8,,,,,1,,,83,100
74496,note_on,,,,,64,0,11,,,,,4,,,66,100
74496,note_on,,,,,32,0,9,,,,,2,,,73,100
74496,note_on,,,,,32,0,8,,,,,1,,,82,100
74624,note_off,,,,,128,0,8,,,,,1,,,82,100
74688,note_on,,,,,4480,0,15,,,,,7,,,54,100
74688,note_on,,,,,4480,0,14,,,,,7,,,70,100
74688,note_on,,,,,4480,0,12,,,,,5,,,54,85
74688,note_on,,,,,0,0,14,,,,,7,,,73,100
74688,note_on,,,,,64,0,8,,,,,1,,,78,100
74688,note_on,,,,,4480,0,13,,,,,6,,,42,85
74752,note_off,,,,,64,0,13,,,,,6,,,42,100
74752,note_off,,,,,0,0,14,,,,,7,,,73,100
74752,note_off,,,,,64,0,15,,,,,7,,,54,100
74752,note_off,,,,,256,0,11,,,,,4,,,66,100
74752,note_off,,,,,64,0,14,,,,,7,,,70,100
74752,note_off,,,,,64,0,12,,,,,5,,,54,100
74752,note_off,,,,,256,0,9,,,,,2,,,73,100
74784,note_on,,,,,32,0,15,,,,,7,,,52,100
74784,note_on,,,,,0,0,14,,,,,7,,,71,100
74784,note_on,,,,,32,0,14,,,,,7,,,68,100
74784,note_on,,,,,32,0,13,,,,,6,,,40,85
74784,note_on,,,,,32,0,12,,,,,5,,,52,85
74816,note_off,,,,,128,0,8,,,,,1,,,78,100
74848,note_off,,,,,64,0,14,,,,,7,,,68,100
74848,note_off,,,,,0,0,14,,,,,7,,,71,100
74848,note_off,,,,,64,0,12,,,,,5,,,52,100
74848,note_off,,,,,64,0,13,,,,,6,,,40,100
74848,note_off,,,,,64,0,15,,,,,7,,,52,100
74880,note_on,,,,,32,0,12,,,,,5,,,50,85
74880,note_on,,,,,0,0,14,,,,,7,,,71,100
74880,note_on,,,,,32,0,15,,,,,7,,,50,100
74880,note_on,,,,,32,0,14,,,,,7,,,66,100
74880,note_on,,,,,32,0,13,,,,,6,,,38,85
74976,note_on,,,,,160,0,8,,,,,1,,,78,100
75008,note_off,,,,,128,0,14,,,,,7,,,66,100
75008,note_off,,,,,128,0,15,,,,,7,,,50,100
75008,note_off,,,,,128,0,13,,,,,6,,,38,100
75008,note_off,,,,,0,0,14,,,,,7,,,71,100
75008,note_off,,,,,128,0,12,,,,,5,,,50,100
75040,note_off,,,,,64,0,8,,,,,1,,,78,100
75072,note_on,,,,,64,0,12,,,,,5,,,47,85
75072,note_on,,,,,64,0,15,,,,,7,,,47,100
75072,note_on,,,,,32,0,8,,,,,1,,,83,100
75072,note_on,,,,,64,0,13,,,,,6,,,35,85
75072,note_on,,,,,0,0,14,,,,,7,,,66,100
75072,note_on,,,,,64,0,14,,,,,7,,,62,100
75136,note_off,,,,,64,0,8,,,,,1,,,83,100
75168,note_on,,,,,32,0,8,,,,,1,,,81,100
75200,note_off,,,,,128,0,14,,,,,7,,,62,100
75200,note_off,,,,,128,0,12,,,,,5,,,47,100
75200,note_off,,,,,128,0,15,,,,,7,,,47,100
75200,note_off,,,,,128,0,13,,,,,6,,,35,100
75200,note_off,,,,,0,0,14,,,,,7,,,66,100
75232,note_off,,,,,64,0,8,,,,,1,,,81,100
75264,note_on,,,,,64,0,12,,,,,5,,,52,85
75264,note_on,,,,,64,0,15,,,,,7,,,52,100
75264,note_on,,,,,64,0,14,,,,,7,,,71,100
75264,note_on,,,,,0,0,14,,,,,7,,,74,100
75264,note_on,,,,,64,0,13,,,,,6,,,40,85
75264,note_on,,,,,32,0,8,,,,,1,,,79,100
75356,note_off,,,,,92,0,8,,,,,1,,,79,100
75360,note_on,,,,,4,0,8,,,,,1,,,76,100
75392,note_off,,,,,128,0,12,,,,,5,,,52,100
75452,note_off,,,,,92,0,8,,,,,1,,,76,100
75456,note_on,,,,,64,0,12,,,,,5,,,55,85
75456,note_on,,,,,4,0,8,,,,,1,,,78,100
75520,note_off,,,,,64,0,8,,,,,1,,,78,100
75520,note_off,,,,,256,0,13,,,,,6,,,40,100
75520,note_off,,,,,0,0,14,,,,,7,,,74,100
75520,note_off,,,,,256,0,14,,,,,7,,,71,100
75520,note_off,,,,,256,0,15,,,,,7,,,52,100
75552,note_on,,,,,32,0,8,,,,,1,,,74,100
75584,note_off,,,,,128,0,12,,,,,5,,,55,100
75616,note_off,,,,,64,0,8,,,,,1,,,74,100
75648,note_on,,,,,64,0,12,,,,,5,,,57,85
75648,note_on,,,,,32,0,8,,,,,1,,,73,100
75712,note_off,,,,,64,0,8,,,,,1,,,73,100
75744,note_on,,,,,32,0,8,,,,,1,,,76,100
75776,note_off,,,,,128,0,12,,,,,5,,,57,100
75808,note_off,,,,,64,0,8,,,,,1,,,76,100
75840,note_on,,,,,32,0,8,,,,,1,,,81,100
75840,note_on,,,,,64,0,12,,,,,5,,,49,85
75840,note_on,,,,,320,0,13,,,,,6,,,37,85
75840,note_on,,,,,320,0,15,,,,,7,,,49,100
75840,note_on,,,,,0,0,14,,,,,7,,,69,100
75840,note_on,,,,,320,0,14,,,,,7,,,67,100
75904,note_off,,,,,64,0,8,,,,,1,,,81,100
75936,note_on,,,,,32,0,8,,,,,1,,,76,100
75968,note_off,,,,,128,0,14,,,,,7,,,67,100
75968,note_off,,,,,0,0,14,,,,,7,,,69,100
75968,note_off,,,,,128,0,13,,,,,6,,,37,100
75968,note_off,,,,,128,0,15,,,,,7,,,49,100
75968,note_off,,,,,128,0,12,,,,,5,,,49,100
76000,note_off,,,,,64,0,8,,,,,1,,,76,100
76032,note_on,,,,,64,0,13,,,,,6,,,38,85
76032,note_on,,,,,32,0,8,,,,,1,,,78,100
76032,note_on,,,,,64,0,15,,,,,7,,,50,100
76032,note_on,,,,,0,0,14,,,,,7,,,69,100
76032,note_on,,,,,64,0,14,,,,,7,,,66,100
76032,note_on,,,,,64,0,12,,,,,5,,,50,85
76124,note_off,,,,,92,0,8,,,,,1,,,78,100
76128,note_on,,,,,4,0,8,,,,,1,,,74,100
76160,note_off,,,,,128,0,12,,,,,5,,,50,100
76220,note_off,,,,,92,0,8,,,,,1,,,74,100
76224,note_on,,,,,4,0,8,,,,,1,,,76,100
76224,note_on,,,,,64,0,12,,,,,5,,,54,85
76288,note_off,,,,,256,0,13,,,,,6,,,38,100
76288,note_off,,,,,64,0,8,,,,,1,,,76,100
76288,note_off,,,,,256,0,15,,,,,7,,,50,100
76288,note_off,,,,,0,0,14,,,,,7,,,69,100
76288,note_off,,,,,256,0,14,,,,,7,,,66,100
76320,note_on,,,,,32,0,8,,,,,1,,,73,100
76352,note_off,,,,,128,0,12,,,,,5,,,54,100
76384,note_off,,,,,64,0,8,,,,,1,,,73,100
76416,note_on,,,,,32,0,8,,,,,1,,,71,100
76416,note_on,,,,,64,0,12,,,,,5,,,55,85
76480,note_off,,,,,64,0,8,,,,,1,,,71,100
76512,note_on,,,,,32,0,8,,,,,1,,,74,100
76544,note_off,,,,,128,0,12,,,,,5,,,55,100
76576,note_off,,,,,64,0,8,,,,,1,,,74,100
76608,note_on,,,,,320,0,15,,,,,7,,,47,100
76608,note_on,,,,,64,0,12,,,,,5,,,47,85
76608,note_on,,,,,32,0,8,,,,,1,,,79,100
76608,note_on,,,,,320,0,14,,,,,7,,,66,100
76608,note_on,,,,,320,0,13,,,,,6,,,35,85
76608,note_on,,,,,0,0,14,,,,,7,,,67,100
76672,note_off,,,,,64,0,8,,,,,1,,,79,100
76704,note_on,,,,,32,0,8,,,,,1,,,78,100
76736,note_off,,,,,128,0,14,,,,,7,,,66,100
76736,note_off,,,,,128,0,13,,,,,6,,,35,100
76736,note_off,,,,,128,0,15,,,,,7,,,47,100
76736,note_off,,,,,128,0,12,,,,,5,,,47,100
76736,note_off,,,,,0,0,14,,,,,7,,,67,100
76768,note_off,,,,,64,0,8,,,,,1,,,78,100
76800,note_on,,,,,64,0,14,,,,,7,,,64,100
76800,note_on,,,,,64,0,13,,,,,6,,,37,85
76800,note_on,,,,,64,0,15,,,,,7,,,49,100
76800,note_on,,,,,32,0,8,,,,,1,,,76,100
76800,note_on,,,,,64,0,12,,,,,5,,,49,85
76800,note_on,,,,,0,0,14,,,,,7,,,67,100
76892,note_off,,,,,92,0,8,,,,,1,,,76,100
76896,note_on,,,,,4,0,8,,,,,1,,,73,100
76928,note_off,,,,,128,0,12,,,,,5,,,49,100
76988,note_off,,,,,92,0,8,,,,,1,,,73,100
76992,note_on,,,,,4,0,8,,,,,1,,,74,100
76992,note_on,,,,,64,0,12,,,,,5,,,52,85
77056,note_off,,,,,64,0,8,,,,,1,,,74,100
77056,note_off,,,,,256,0,13,,,,,6,,,37,100
77056,note_off,,,,,0,0,14,,,,,7,,,67,100
77056,note_off,,,,,256,0,14,,,,,7,,,64,100
77056,note_off,,,,,256,0,15,,,,,7,,,49,100
77088,note_on,,,,,32,0,8,,,,,1,,,71,100
77120,note_off,,,,,128,0,12,,,,,5,,,52,100
77152,note_off,,,,,64,0,8,,,,,1,,,71,100
77184,note_on,,,,,32,0,8,,,,,1,,,66,100
77184,note_on,,,,,64,0,12,,,,,5,,,54,85
77276,note_off,,,,,92,0,8,,,,,1,,,66,100
77280,note_on,,,,,4,0,8,,,,,1,,,70,100
77312,note_off,,,,,128,0,12,,,,,5,,,54,100
77372,note_off,,,,,92,0,8,,,,,1,,,70,100
77376,note_on,,,,,320,0,14,,,,,7,,,62,100
77376,note_on,,,,,64,0,12,,,,,5,,,46,85
77376,note_on,,,,,4,0,8,,,,,1,,,76,100
77376,note_on,,,,,320,0,15,,,,,7,,,46,100
77376,note_on,,,,,0,0,14,,,,,7,,,64,100
77376,note_on,,,,,320,0,13,,,,,6,,,34,85
77440,note_off,,,,,64,0,8,,,,,1,,,76,100
77472,note_on,,,,,32,0,8,,,,,1,,,78,100
77504,note_off,,,,,128,0,15,,,,,7,,,46,100
77504,note_off,,,,,0,0,14,,,,,7,,,64,100
77504,note_off,,,,,128,0,14,,,,,7,,,62,100
77504,note_off,,,,,128,0,12,,,,,5,,,46,100
77504,note_off,,,,,128,0,13,,,,,6,,,34,100
77536,note_off,,,,,64,0,8,,,,,1,,,78,100
77568,note_on,,,,,64,0,14,,,,,7,,,62,100
77568,note_on,,,,,0,0,14,,,,,7,,,66,100
77568,note_on,,,,,64,0,12,,,,,5,,,47,85
77568,note_on,,,,,64,0,15,,,,,7,,,47,100
77568,note_on,,,,,64,0,13,,,,,6,,,35,85
77568,note_on,,,,,32,0,8,,,,,1,,,74,100
77660,note_off,,,,,92,0,8,,,,,1,,,74,100
77664,note_on,,,,,4,0,8,,,,,1,,,71,100
77696,note_off,,,,,128,0,12,,,,,5,,,47,100
77756,note_off,,,,,92,0,8,,,,,1,,,71,100
77760,note_on,,,,,64,0,12,,,,,5,,,59,85
77760,note_on,,,,,4,0,8,,,,,1,,,73,100
77824,note_off,,,,,64,0,8,,,,,1,,,73,100
77824,note_off,,,,,0,0,14,,,,,7,,,66,100
77824,note_off,,,,,256,0,14,,,,,7,,,62,100
77824,note_off,,,,,256,0,15,,,,,7,,,47,100
77824,note_off,,,,,256,0,13,,,,,6,,,35,100
77856,note_on,,,,,32,0,8,,,,,1,,,74,100
77888,note_off,,,,,128,0,12,,,,,5,,,59,100
77920,note_off,,,,,64,0,8,,,,,1,,,74,100
77952,note_on,,,,,32,0,8,,,,,1,,,65,100
77952,note_on,,,,,64,0,12,,,,,5,,,56,85
78044,note_off,,,,,92,0,8,,,,,1,,,65,100
78048,note_on,,,,,4,0,8,,,,,1,,,74,100
78080,note_off,,,,,128,0,12,,,,,5,,,56,100
78140,note_off,,,,,92,0,8,,,,,1,,,74,100
78144,note_on,,,,,320,0,15,,,,,7,,,53,100
78144,note_on,,,,,4,0,8,,,,,1,,,73,100
78144,note_on,,,,,320,0,13,,,,,6,,,41,85
78144,note_on,,,,,64,0,12,,,,,5,,,53,85
78144,note_on,,,,,320,0,14,,,,,7,,,71,100
78144,note_on,,,,,0,0,14,,,,,7,,,74,100
78208,note_off,,,,,64,0,8,,,,,1,,,73,100
78240,note_on,,,,,32,0,8,,,,,1,,,71,100
78272,note_off,,,,,128,0,13,,,,,6,,,41,100
78272,note_off,,,,,0,0,14,,,,,7,,,74,100
78272,note_off,,,,,128,0,15,,,,,7,,,53,100
78272,note_off,,,,,128,0,12,,,,,5,,,53,100
78272,note_off,,,,,128,0,14,,,,,7,,,71,100
78304,note_off,,,,,64,0,8,,,,,1,,,71,100
78336,note_on,,,,,64,0,14,,,,,7,,,69,100
78336,note_on,,,,,64,0,13,,,,,6,,,42,85
78336,note_on,,,,,0,0,14,,,,,7,,,73,100
78336,note_on,,,,,32,0,8,,,,,1,,,69,100
78336,note_on,,,,,64,0,12,,,,,5,,,54,85
78336,note_on,,,,,64,0,15,,,,,7,,,54,100
78428,note_off,,,,,92,0,8,,,,,1,,,69,100
78432,note_on,,,,,4,0,8,,,,,1,,,68,100
78464,note_off,,,,,128,0,12,,,,,5,,,54,100
78524,note_off,,,,,92,0,8,,,,,1,,,68,100
78528,note_on,,,,,4,0,8,,,,,1,,,66,100
78528,note_on,,,,,64,0,12,,,,,5,,,57,85
78592,note_off,,,,,64,0,8,,,,,1,,,66,100
78592,note_off,,,,,256,0,15,,,,,7,,,54,100
78592,note_off,,,,,256,0,13,,,,,6,,,42,100
78592,note_off,,,,,256,0,14,,,,,7,,,69,100
78592,note_off,,,,,0,0,14,,,,,7,,,73,100
78624,note_on,,,,,32,0,8,,,,,1,,,78,100
78656,note_off,,,,,128,0,12,,,,,5,,,57,100
78688,note_off,,,,,64,0,8,,,,,1,,,78,100
78720,note_on,,,,,64,0,12,,,,,5,,,59,85
78720,note_on,,,,,32,0,8,,,,,1,,,74,100
78812,note_off,,,,,92,0,8,,,,,1,,,74,100
78816,note_on,,,,,4,0,8,,,,,1,,,73,100
78848,note_off,,,,,128,0,12,,,,,5,,,59,100
78908,note_off,,,,,92,0,8,,,,,1,,,73,100
78912,note_on,,,,,4,0,8,,,,,1,,,71,100
78912,note_on,,,,,64,0,12,,,,,5,,,47,85
78912,note_on,,,,,0,0,14,,,,,7,,,66,100
78912,note_on,,,,,320,0,14,,,,,7,,,68,100
78912,note_on,,,,,320,0,13,,,,,6,,,35,85
78912,note_on,,,,,320,0,15,,,,,7,,,47,100
78976,note_off,,,,,64,0,8,,,,,1,,,71,100
79008,note_on,,,,,32,0,8,,,,,1,,,80,100
79040,note_off,,,,,128,0,13,,,,,6,,,35,100
79040,note_off,,,,,0,0,14,,,,,7,,,66,100
79040,note_off,,,,,128,0,14,,,,,7,,,68,100
79040,note_off,,,,,128,0,12,,,,,5,,,47,100
79040,note_off,,,,,128,0,15,,,,,7,,,47,100
79072,note_off,,,,,64,0,8,,,,,1,,,80,100
79104,note_on,,,,,64,0,13,,,,,6,,,37,85
79104,note_on,,,,,0,0,14,,,,,7,,,68,100
79104,note_on,,,,,64,0,14,,,,,7,,,65,100
79104,note_on,,,,,32,0,8,,,,,1,,,77,100
79104,note_on,,,,,64,0,12,,,,,5,,,49,85
79104,note_on,,,,,64,0,15,,,,,7,,,49,100
79196,note_off,,,,,92,0,8,,,,,1,,,77,100
79200,note_on,,,,,4,0,8,,,,,1,,,75,100
79292,note_off,,,,,92,0,8,,,,,1,,,75,100
79296,note_on,,,,,4,0,8,,,,,1,,,73,100
79360,note_off,,,,,64,0,8,,,,,1,,,73,100
79392,note_on,,,,,32,0,8,,,,,1,,,71,100
79456,note_off,,,,,64,0,8,,,,,1,,,71,100
79488,note_on,,,,,32,0,8,,,,,1,,,69,100
79580,note_off,,,,,92,0,8,,,,,1,,,69,100
79584,note_on,,,,,4,0,8,,,,,1,,,68,100
79616,note_off,,,,,512,0,15,,,,,7,,,49,100
79616,note_off,,,,,512,0,13,,,,,6,,,37,100
79616,note_off,,,,,512,0,12,,,,,5,,,49,100
79616,note_off,,,,,512,0,14,,,,,7,,,65,100
79616,note_off,,,,,0,0,14,,,,,7,,,68,100
79676,note_off,,,,,92,0,8,,,,,1,,,68,100
79680,note_on,,,,,4,0,8,,,,,1,,,66,100
79744,note_off,,,,,64,0,8,,,,,1,,,66,100
79776,note_on,,,,,32,0,8,,,,,1,,,65,100
79840,note_off,,,,,64,0,8,,,,,1,,,65,100
79872,note_on,,,,,32,0,8,,,,,1,,,66,100
79872,note_on,,,,,256,0,14,,,,,7,,,61,100
79872,note_on,,,,,0,0,14,,,,,7,,,57,100
79872,note_on,,,,,256,0,13,,,,,6,,,42,85
79872,note_on,,,,,256,0,12,,,,,5,,,54,85
79872,note_on,,,,,256,0,15,,,,,7,,,54,100
79936,note_off,,,,,64,0,8,,,,,1,,,66,100
79968,note_on,,,,,32,0,8,,,,,1,,,57,100
80000,note_off,,,,,128,0,15,,,,,7,,,54,100
80000,note_off,,,,,0,0,14,,,,,7,,,57,100
80000,note_off,,,,,128,0,14,,,,,7,,,61,100
80000,note_off,,,,,128,0,12,,,,,5,,,54,100
80000,note_off,,,,,128,0,13,,,,,6,,,42,100
80032,note_off,,,,,64,0,8,,,,,1,,,57,100
80064,note_on,,,,,64,0,15,,,,,7,,,57,100
80064,note_on,,,,,64,0,14,,,,,7,,,64,100
80064,note_on,,,,,0,0,14,,,,,7,,,61,100
80064,note_on,,,,,64,0,12,,,,,5,,,57,85
80064,note_on,,,,,64,0,13,,,,,6,,,45,85
80064,note_on,,,,,32,0,8,,,,,1,,,66,100
80128,note_off,,,,,64,0,8,,,,,1,,,66,100
80160,note_on,,,,,32,0,8,,,,,1,,,57,100
80192,note_off,,,,,128,0,14,,,,,7,,,64,100
80192,note_off,,,,,0,0,14,,,,,7,,,61,100
80192,note_off,,,,,128,0,12,,,,,5,,,57,100
80192,note_off,,,,,128,0,15,,,,,7,,,57,100
80192,note_off,,,,,128,0,13,,,,,6,,,45,100
80224,note_off,,,,,64,0,8,,,,,1,,,57,100
80256,note_on,,,,,64,0,13,,,,,6,,,47,85
80256,note_on,,,,,32,0,8,,,,,1,,,59,100
80256,note_on,,,,,0,0,14,,,,,7,,,66,100
80256,note_on,,,,,64,0,14,,,,,7,,,68,100
80256,note_on,,,,,64,0,15,,,,,7,,,59,100
80256,note_on,,,,,64,0,12,,,,,5,,,59,85
80320,note_off,,,,,64,0,8,,,,,1,,,59,100
80352,note_on,,,,,32,0,8,,,,,1,,,66,100
80384,note_off,,,,,128,0,12,,,,,5,,,59,100
80384,note_off,,,,,0,0,14,,,,,7,,,66,100
80384,note_off,,,,,128,0,14,,,,,7,,,68,100
80384,note_off,,,,,128,0,13,,,,,6,,,47,100
80384,note_off,,,,,128,0,15,,,,,7,,,59,100
80416,note_off,,,,,64,0,8,,,,,1,,,66,100
80448,note_on,,,,,64,0,14,,,,,7,,,65,100
80448,note_on,,,,,0,0,14,,,,,7,,,68,100
80448,note_on,,,,,32,0,8,,,,,1,,,61,100
80448,note_on,,,,,64,0,13,,,,,6,,,49,85
80448,note_on,,,,,64,0,12,,,,,5,,,61,85
80448,note_on,,,,,64,0,15,,,,,7,,,61,100
80512,note_off,,,,,64,0,8,,,,,1,,,61,100
80544,note_on,,,,,32,0,8,,,,,1,,,65,100
80576,note_off,,,,,128,0,13,,,,,6,,,49,100
80576,note_off,,,,,128,0,12,,,,,5,,,61,100
80576,note_off,,,,,128,0,15,,,,,7,,,61,100
80576,note_off,,,,,0,0,14,,,,,7,,,68,100
80576,note_off,,,,,128,0,14,,,,,7,,,65,100
80608,note_off,,,,,64,0,8,,,,,1,,,65,100
80640,note_on,,,,,19712,0,7,,,,,0,,,78,85
80640,program_change,,,,,5888,0,9,,,,,2,48,,,
80640,note_on,,,,,64,0,15,,,,,7,,,54,100
80640,note_on,,,,,64,0,14,,,,,7,,,69,100
80640,note_on,,,,,64,0,12,,,,,5,,,54,85
80640,note_on,,,,,64,0,13,,,,,6,,,42,85
80640,note_on,,,,,0,0,14,,,,,7,,,66,100
80640,note_on,,,,,32,0,8,,,,,1,,,66,100
80736,note_on,,,,,96,0,9,,,,,2,,,69,85
80768,note_off,,,,,128,0,12,,,,,5,,,54,100
80768,note_off,,,,,128,0,14,,,,,7,,,69,100
80768,note_off,,,,,0,0,14,,,,,7,,,66,100
80768,note_off,,,,,128,0,13,,,,,6,,,42,100
80768,note_off,,,,,128,0,15,,,,,7,,,54,100
80800,note_off,,,,,64,0,9,,,,,2,,,69,100
80832,note_on,,,,,64,0,13,,,,,6,,,33,85
80832,note_on,,,,,6080,0,11,,,,,4,,,61,85
80832,note_on,,,,,64,0,15,,,,,7,,,45,100
80832,note_on,,,,,64,0,12,,,,,5,,,45,85
80832,note_on,,,,,0,0,11,,,,,4,,,66,85
80832,note_on,,,,,0,0,14,,,,,7,,,61,100
80832,note_on,,,,,64,0,14,,,,,7,,,66,100
80832,note_on,,,,,32,0,9,,,,,2,,,73,85
80896,note_off,,,,,64,0,9,,,,,2,,,73,100
80896,note_off,,,,,256,0,8,,,,,1,,,66,100
80928,note_on,,,,,32,0,9,,,,,2,,,78,85
80960,note_off,,,,,128,0,14,,,,,7,,,66,100
80960,note_off,,,,,128,0,15,,,,,7,,,45,100
80960,note_off,,,,,0,0,14,,,,,7,,,61,100
80960,note_off,,,,,128,0,13,,,,,6,,,33,100
80960,note_off,,,,,0,0,11,,,,,4,,,66,100
80960,note_off,,,,,128,0,11,,,,,4,,,61,100
80960,note_off,,,,,128,0,12,,,,,5,,,45,100
80992,note_off,,,,,64,0,9,,,,,2,,,78,100
81024,note_on,,,,,64,0,14,,,,,7,,,66,100
81024,note_on,,,,,0,0,14,,,,,7,,,61,100
81024,note_on,,,,,64,0,12,,,,,5,,,45,85
81024,note_on,,,,,64,0,13,,,,,6,,,33,85
81024,program_change,,,,,128,0,8,,,,,1,48,,,
81024,note_on,,,,,64,0,15,,,,,7,,,45,100
81024,note_on,,,,,32,0,9,,,,,2,,,78,85
81024,note_on,,,,,0,0,11,,,,,4,,,61,85
81024,note_on,,,,,64,0,11,,,,,4,,,57,85
81116,note_off,,,,,92,0,9,,,,,2,,,78,100
81120,note_on,,,,,4,0,9,,,,,2,,,76,86
81120,note_on,,,,,20192,0,10,,,,,3,,,69,86
81152,note_off,,,,,128,0,15,,,,,7,,,45,100
81152,note_off,,,,,128,0,13,,,,,6,,,33,100
81152,note_off,,,,,128,0,12,,,,,5,,,45,100
81152,note_off,,,,,128,0,14,,,,,7,,,66,100
81152,note_off,,,,,128,0,11,,,,,4,,,57,100
81152,note_off,,,,,0,0,11,,,,,4,,,61,100
81152,note_off,,,,,0,0,14,,,,,7,,,61,100
81184,note_off,,,,,64,0,9,,,,,2,,,76,100
81184,note_off,,,,,64,0,10,,,,,3,,,69,100
81216,note_on,,,,,64,0,13,,,,,6,,,33,86
81216,note_on,,,,,32,0,9,,,,,2,,,78,86
81216,note_on,,,,,64,0,15,,,,,7,,,45,100
81216,note_on,,,,,0,0,14,,,,,7,,,61,100
81216,note_on,,,,,0,0,11,,,,,4,,,57,86
81216,note_on,,,,,64,0,11,,,,,4,,,54,86
81216,note_on,,,,,192,0,8,,,,,1,,,73,86
81216,note_on,,,,,32,0,10,,,,,3,,,73,86
81216,note_on,,,,,64,0,12,,,,,5,,,45,86
81216,note_on,,,,,64,0,14,,,,,7,,,66,100
81280,note_off,,,,,64,0,10,,,,,3,,,73,100
81312,note_on,,,,,32,0,10,,,,,3,,,78,86
81344,note_off,,,,,128,0,13,,,,,6,,,33,100
81344,note_off,,,,,0,0,14,,,,,7,,,61,100
81344,note_off,,,,,128,0,11,,,,,4,,,54,100
81344,note_off,,,,,0,0,11,,,,,4,,,57,100
81344,note_off,,,,,128,0,15,,,,,7,,,45,100
81344,note_off,,,,,128,0,9,,,,,2,,,78,100
81344,note_off,,,,,128,0,8,,,,,1,,,73,100
81344,note_off,,,,,128,0,12,,,,,5,,,45,100
81344,note_off,,,,,128,0,14,,,,,7,,,66,100
81376,note_off,,,,,64,0,10,,,,,3,,,78,100
81408,note_on,,,,,64,0,8,,,,,1,,,75,86
81408,note_on,,,,,64,0,14,,,,,7,,,66,100
81408,note_on,,,,,0,0,14,,,,,7,,,63,100
81408,note_on,,,,,64,0,15,,,,,7,,,47,100
81408,note_on,,,,,32,0,10,,,,,3,,,75,86
81408,note_on,,,,,64,0,12,,,,,5,,,47,86
81408,note_on,,,,,64,0,13,,,,,6,,,35,86
81504,note_on,,,,,160,0,9,,,,,2,,,71,87
81536,note_off,,,,,128,0,10,,,,,3,,,75,100
81536,note_off,,,,,128,0,15,,,,,7,,,47,100
81536,note_off,,,,,128,0,14,,,,,7,,,66,100
81536,note_off,,,,,128,0,13,,,,,6,,,35,100
81536,note_off,,,,,128,0,12,,,,,5,,,47,100
81536,note_off,,,,,0,0,14,,,,,7,,,63,100
81568,note_off,,,,,64,0,9,,,,,2,,,71,100
81600,note_on,,,,,64,0,14,,,,,7,,,66,100
81600,note_on,,,,,64,0,10,,,,,3,,,71,87
81600,note_on,,,,,64,0,15,,,,,7,,,47,100
81600,note_on,,,,,256,0,11,,,,,4,,,63,87
81600,note_on,,,,,64,0,12,,,,,5,,,47,87
81600,note_on,,,,,0,0,11,,,,,4,,,66,87
81600,note_on,,,,,0,0,14,,,,,7,,,63,100
81600,note_on,,,,,64,0,13,,,,,6,,,35,87
81600,note_on,,,,,32,0,9,,,,,2,,,75,87
81664,note_off,,,,,64,0,9,,,,,2,,,75,100
81696,note_on,,,,,32,0,9,,,,,2,,,78,87
81728,note_off,,,,,128,0,12,,,,,5,,,47,100
81728,note_off,,,,,128,0,14,,,,,7,,,66,100
81728,note_off,,,,,128,0,11,,,,,4,,,63,100
81728,note_off,,,,,128,0,10,,,,,3,,,71,100
81728,note_off,,,,,128,0,13,,,,,6,,,35,100
81728,note_off,,,,,128,0,15,,,,,7,,,47,100
81728,note_off,,,,,0,0,14,,,,,7,,,63,100
81728,note_off,,,,,0,0,11,,,,,4,,,66,100
81760,note_off,,,,,64,0,9,,,,,2,,,78,100
81792,note_on,,,,,64,0,13,,,,,6,,,35,87
81792,note_on,,,,,0,0,14,,,,,7,,,63,100
81792,note_on,,,,,64,0,14,,,,,7,,,66,100
81792,note_on,,,,,32,0,9,,,,,2,,,78,87
81792,note_on,,,,,64,0,15,,,,,7,,,47,100
81792,note_on,,,,,0,0,11,,,,,4,,,63,87
81792,note_on,,,,,64,0,11,,,,,4,,,59,87
81792,note_on,,,,,64,0,12,,,,,5,,,47,87
81884,note_off,,,,,92,0,9,,,,,2,,,78,100
81888,note_on,,,,,160,0,10,,,,,3,,,71,88
81888,note_on,,,,,4,0,9,,,,,2,,,76,88
81920,note_off,,,,,128,0,11,,,,,4,,,59,100
81920,note_off,,,,,0,0,11,,,,,4,,,63,100
81920,note_off,,,,,128,0,13,,,,,6,,,35,100
81920,note_off,,,,,128,0,12,,,,,5,,,47,100
81920,note_off,,,,,0,0,14,,,,,7,,,63,100
81920,note_off,,,,,128,0,14,,,,,7,,,66,100
81920,note_off,,,,,128,0,15,,,,,7,,,47,100
81952,note_off,,,,,64,0,10,,,,,3,,,71,100
81952,note_off,,,,,64,0,9,,,,,2,,,76,100
81984,note_on,,,,,32,0,9,,,,,2,,,78,88
81984,note_on,,,,,32,0,10,,,,,3,,,75,88
81984,note_on,,,,,64,0,12,,,,,5,,,47,88
81984,note_on,,,,,64,0,15,,,,,7,,,47,100
81984,note_on,,,,,64,0,11,,,,,4,,,54,88
81984,note_on,,,,,0,0,11,,,,,4,,,59,88
81984,note_on,,,,,64,0,13,,,,,6,,,35,88
81984,note_on,,,,,0,0,14,,,,,7,,,63,100
81984,note_on,,,,,64,0,14,,,,,7,,,66,100
82020,note_off,,,,,1380,0,7,,,,,0,,,78,64
82048,note_off,,,,,64,0,10,,,,,3,,,75,100
82080,note_on,,,,,32,0,10,,,,,3,,,78,88
82112,note_off,,,,,0,0,11,,,,,4,,,59,100
82112,note_off,,,,,128,0,13,,,,,6,,,35,100
82112,note_off,,,,,128,0,14,,,,,7,,,66,100
82112,note_off,,,,,0,0,14,,,,,7,,,63,100
82112,note_off,,,,,128,0,11,,,,,4,,,54,100
82112,note_off,,,,,128,0,12,,,,,5,,,47,100
82112,note_off,,,,,128,0,15,,,,,7,,,47,100
82112,note_off,,,,,128,0,9,,,,,2,,,78,100
82144,note_off,,,,,64,0,10,,,,,3,,,78,100
82176,note_on,,,,,32,0,10,,,,,3,,,75,89
82176,note_on,,,,,64,0,13,,,,,6,,,36,89
82176,note_on,,,,,64,0,14,,,,,7,,,68,100
82176,note_on,,,,,156,0,7,,,,,0,,,80,89
82176,note_on,,,,,64,0,12,,,,,5,,,48,89
82176,note_on,,,,,0,0,14,,,,,7,,,63,100
82176,note_on,,,,,64,0,15,,,,,7,,,48,100
82272,note_on,,,,,160,0,9,,,,,2,,,72,89
82304,note_off,,,,,0,0,14,,,,,7,,,63,100
82304,note_off,,,,,128,0,14,,,,,7,,,68,100
82304,note_off,,,,,128,0,15,,,,,7,,,48,100
82304,note_off,,,,,128,0,12,,,,,5,,,48,100
82304,note_off,,,,,128,0,10,,,,,3,,,75,100
82304,note_off,,,,,128,0,13,,,,,6,,,36,100
82336,note_off,,,,,64,0,9,,,,,2,,,72,100
82368,note_on,,,,,64,0,13,,,,,6,,,36,89
82368,note_on,,,,,64,0,14,,,,,7,,,68,100
82368,note_on,,,,,0,0,14,,,,,7,,,63,100
82368,note_on,,,,,0,0,11,,,,,4,,,68,89
82368,note_on,,,,,32,0,9,,,,,2,,,75,89
82368,note_on,,,,,256,0,11,,,,,4,,,63,89
82368,note_on,,,,,64,0,12,,,,,5,,,48,89
82368,note_on,,,,,64,0,10,,,,,3,,,72,89
82368,note_on,,,,,64,0,15,,,,,7,,,48,100
82432,note_off,,,,,64,0,9,,,,,2,,,75,100
82464,note_on,,,,,32,0,9,,,,,2,,,80,89
82496,note_off,,,,,128,0,15,,,,,7,,,48,100
82496,note_off,,,,,128,0,11,,,,,4,,,63,100
82496,note_off,,,,,0,0,11,,,,,4,,,68,100
82496,note_off,,,,,128,0,10,,,,,3,,,72,100
82496,note_off,,,,,128,0,12,,,,,5,,,48,100
82496,note_off,,,,,128,0,14,,,,,7,,,68,100
82496,note_off,,,,,0,0,14,,,,,7,,,63,100
82496,note_off,,,,,128,0,13,,,,,6,,,36,100
82528,note_off,,,,,64,0,9,,,,,2,,,80,100
82560,note_on,,,,,64,0,15,,,,,7,,,48,100
82560,note_on,,,,,32,0,9,,,,,2,,,80,90
82560,note_on,,,,,0,0,14,,,,,7,,,63,100
82560,note_on,,,,,0,0,11,,,,,4,,,63,90
82560,note_on,,,,,64,0,13,,,,,6,,,36,90
82560,note_on,,,,,64,0,14,,,,,7,,,68,100
82560,note_on,,,,,64,0,12,,,,,5,,,48,90
82560,note_on,,,,,64,0,11,,,,,4,,,60,90
82652,note_off,,,,,92,0,9,,,,,2,,,80,100
82656,note_on,,,,,160,0,10,,,,,3,,,72,90
82656,note_on,,,,,4,0,9,,,,,2,,,78,90
82688,note_off,,,,,0,0,11,,,,,4,,,63,100
82688,note_off,,,,,128,0,14,,,,,7,,,68,100
82688,note_off,,,,,128,0,12,,,,,5,,,48,100
82688,note_off,,,,,0,0,14,,,,,7,,,63,100
82688,note_off,,,,,128,0,15,,,,,7,,,48,100
82688,note_off,,,,,128,0,13,,,,,6,,,36,100
82688,note_off,,,,,128,0,11,,,,,4,,,60,100
82720,note_off,,,,,64,0,9,,,,,2,,,78,100
82720,note_off,,,,,64,0,10,,,,,3,,,72,100
82752,note_on,,,,,32,0,9,,,,,2,,,80,90
82752,note_on,,,,,64,0,14,,,,,7,,,68,100
82752,note_on,,,,,0,0,11,,,,,4,,,60,90
82752,note_on,,,,,32,0,10,,,,,3,,,75,90
82752,note_on,,,,,64,0,15,,,,,7,,,48,100
82752,note_on,,,,,64,0,13,,,,,6,,,36,90
82752,note_on,,,,,0,0,14,,,,,7,,,63,100
82752,note_on,,,,,64,0,12,,,,,5,,,48,90
82752,note_on,,,,,64,0,11,,,,,4,,,56,90
82788,note_off,,,,,1380,0,8,,,,,1,,,75,100
82816,note_off,,,,,64,0,10,,,,,3,,,75,100
82848,note_on,,,,,32,0,10,,,,,3,,,80,90
82880,note_off,,,,,128,0,13,,,,,6,,,36,100
82880,note_off,,,,,128,0,9,,,,,2,,,80,100
82880,note_off,,,,,128,0,15,,,,,7,,,48,100
82880,note_off,,,,,128,0,11,,,,,4,,,56,100
82880,note_off,,,,,128,0,14,,,,,7,,,68,100
82880,note_off,,,,,0,0,14,,,,,7,,,63,100
82880,note_off,,,,,0,0,11,,,,,4,,,60,100
82880,note_off,,,,,128,0,12,,,,,5,,,48,100
82912,note_off,,,,,64,0,10,,,,,3,,,80,100
82944,note_on,,,,,64,0,13,,,,,6,,,37,91
82944,note_on,,,,,64,0,12,,,,,5,,,49,91
82944,note_on,,,,,64,0,15,,,,,7,,,49,100
82944,note_on,,,,,64,0,14,,,,,7,,,68,100
82944,note_on,,,,,156,0,8,,,,,1,,,77,91
82944,note_on,,,,,32,0,10,,,,,3,,,77,91
82944,note_on,,,,,0,0,14,,,,,7,,,65,100
83040,note_on,,,,,160,0,9,,,,,2,,,73,91
83072,note_off,,,,,128,0,15,,,,,7,,,49,100
83072,note_off,,,,,0,0,14,,,,,7,,,65,100
83072,note_off,,,,,128,0,13,,,,,6,,,37,100
83072,note_off,,,,,128,0,10,,,,,3,,,77,100
83072,note_off,,,,,128,0,14,,,,,7,,,68,100
83072,note_off,,,,,128,0,12,,,,,5,,,49,100
83104,note_off,,,,,64,0,9,,,,,2,,,73,100
83136,note_on,,,,,64,0,12,,,,,5,,,49,91
83136,note_on,,,,,32,0,9,,,,,2,,,77,91
83136,note_on,,,,,64,0,15,,,,,7,,,49,100
83136,note_on,,,,,64,0,10,,,,,3,,,73,91
83136,note_on,,,,,256,0,11,,,,,4,,,65,91
83136,note_on,,,,,0,0,11,,,,,4,,,68,91
83136,note_on,,,,,64,0,13,,,,,6,,,37,91
83136,note_on,,,,,64,0,14,,,,,7,,,68,100
83136,note_on,,,,,0,0,14,,,,,7,,,65,100
83200,note_off,,,,,64,0,9,,,,,2,,,77,100
83232,note_on,,,,,32,0,9,,,,,2,,,80,92
83264,note_off,,,,,0,0,14,,,,,7,,,65,100
83264,note_off,,,,,128,0,12,,,,,5,,,49,100
83264,note_off,,,,,128,0,13,,,,,6,,,37,100
83264,note_off,,,,,128,0,10,,,,,3,,,73,100
83264,note_off,,,,,128,0,14,,,,,7,,,68,100
83264,note_off,,,,,0,0,11,,,,,4,,,68,100
83264,note_off,,,,,128,0,11,,,,,4,,,65,100
83264,note_off,,,,,128,0,15,,,,,7,,,49,100
83296,note_off,,,,,64,0,9,,,,,2,,,80,100
83328,note_on,,,,,64,0,13,,,,,6,,,37,92
83328,note_on,,,,,0,0,14,,,,,7,,,65,100
83328,note_on,,,,,64,0,15,,,,,7,,,49,100
83328,note_on,,,,,64,0,12,,,,,5,,,49,92
83328,note_on,,,,,64,0,11,,,,,4,,,61,92
83328,note_on,,,,,64,0,14,,,,,7,,,68,100
83328,note_on,,,,,0,0,11,,,,,4,,,65,92
83328,note_on,,,,,32,0,9,,,,,2,,,80,92
83420,note_off,,,,,92,0,9,,,,,2,,,80,100
83424,note_on,,,,,4,0,9,,,,,2,,,78,92
83424,note_on,,,,,160,0,10,,,,,3,,,73,92
83456,note_off,,,,,128,0,12,,,,,5,,,49,100
83456,note_off,,,,,128,0,11,,,,,4,,,61,100
83456,note_off,,,,,0,0,14,,,,,7,,,65,100
83456,note_off,,,,,128,0,14,,,,,7,,,68,100
83456,note_off,,,,,128,0,15,,,,,7,,,49,100
83456,note_off,,,,,0,0,11,,,,,4,,,65,100
83456,note_off,,,,,128,0,13,,,,,6,,,37,100
83488,note_off,,,,,64,0,9,,,,,2,,,78,100
83488,note_off,,,,,64,0,10,,,,,3,,,73,100
83520,note_on,,,,,64,0,12,,,,,5,,,49,92
83520,note_on,,,,,64,0,15,,,,,7,,,49,100
83520,note_on,,,,,0,0,11,,,,,4,,,61,92
83520,note_on,,,,,64,0,14,,,,,7,,,68,100
83520,note_on,,,,,0,0,14,,,,,7,,,65,100
83520,note_on,,,,,64,0,13,,,,,6,,,37,92
83520,note_on,,,,,64,0,11,,,,,4,,,56,92
83520,note_on,,,,,32,0,9,,,,,2,,,80,92
83520,note_on,,,,,32,0,10,,,,,3,,,77,92
83556,note_off,,,,,1380,0,7,,,,,0,,,80,64
83584,note_off,,,,,64,0,10,,,,,3,,,77,100
83616,note_on,,,,,32,0,10,,,,,3,,,80,93
83648,note_off,,,,,128,0,12,,,,,5,,,49,100
83648,note_off,,,,,0,0,11,,,,,4,,,61,100
83648,note_off,,,,,128,0,11,,,,,4,,,56,100
83648,note_off,,,,,128,0,13,,,,,6,,,37,100
83648,note_off,,,,,128,0,9,,,,,2,,,80,100
83648,note_off,,,,,128,0,14,,,,,7,,,68,100
83648,note_off,,,,,0,0,14,,,,,7,,,65,100
83648,note_off,,,,,128,0,15,,,,,7,,,49,100
83680,note_off,,,,,64,0,10,,,,,3,,,80,100
83712,note_on,,,,,64,0,13,,,,,6,,,37,93
83712,note_on,,,,,156,0,7,,,,,0,,,81,93
83712,note_on,,,,,32,0,10,,,,,3,,,77,93
83712,note_on,,,,,0,0,14,,,,,7,,,65,100
83712,note_on,,,,,64,0,14,,,,,7,,,69,100
83712,note_on,,,,,64,0,15,,,,,7,,,49,100
83712,note_on,,,,,64,0,12,,,,,5,,,49,93
83808,note_on,,,,,160,0,9,,,,,2,,,73,93
83840,note_off,,,,,128,0,10,,,,,3,,,77,100
83840,note_off,,,,,0,0,14,,,,,7,,,65,100
83840,note_off,,,,,128,0,14,,,,,7,,,69,100
83840,note_off,,,,,128,0,15,,,,,7,,,49,100
83840,note_off,,,,,128,0,12,,,,,5,,,49,100
83840,note_off,,,,,128,0,13,,,,,6,,,37,100
83872,note_off,,,,,64,0,9,,,,,2,,,73,100
83904,note_on,,,,,32,0,9,,,,,2,,,77,93
83904,note_on,,,,,256,0,11,,,,,4,,,65,93
83904,note_on,,,,,0,0,11,,,,,4,,,69,93
83904,note_on,,,,,64,0,10,,,,,3,,,73,93
83904,note_on,,,,,64,0,13,,,,,6,,,37,93
83904,note_on,,,,,0,0,14,,,,,7,,,65,100
83904,note_on,,,,,64,0,15,,,,,7,,,49,100
83904,note_on,,,,,64,0,14,,,,,7,,,69,100
83904,note_on,,,,,64,0,12,,,,,5,,,49,93
83968,note_off,,,,,64,0,9,,,,,2,,,77,100
84000,note_on,,,,,32,0,9,,,,,2,,,81,94
84032,note_off,,,,,0,0,14,,,,,7,,,65,100
84032,note_off,,,,,128,0,14,,,,,7,,,69,100
84032,note_off,,,,,0,0,11,,,,,4,,,69,100
84032,note_off,,,,,128,0,10,,,,,3,,,73,100
84032,note_off,,,,,128,0,15,,,,,7,,,49,100
84032,note_off,,,,,128,0,11,,,,,4,,,65,100
84032,note_off,,,,,128,0,12,,,,,5,,,49,100
84032,note_off,,,,,128,0,13,,,,,6,,,37,100
84064,note_off,,,,,64,0,9,,,,,2,,,81,100
84096,note_on,,,,,64,0,12,,,,,5,,,49,94
84096,note_on,,,,,64,0,11,,,,,4,,,61,94
84096,note_on,,,,,64,0,14,,,,,7,,,69,100
84096,note_on,,,,,64,0,15,,,,,7,,,49,100
84096,note_on,,,,,32,0,9,,,,,2,,,81,94
84096,note_on,,,,,0,0,11,,,,,4,,,65,94
84096,note_on,,,,,0,0,14,,,,,7,,,65,100
84096,note_on,,,,,64,0,13,,,,,6,,,37,94
84188,note_off,,,,,92,0,9,,,,,2,,,81,100
84192,note_on,,,,,4,0,9,,,,,2,,,80,94
84192,note_on,,,,,160,0,10,,,,,3,,,73,94
84224,note_off,,,,,0,0,14,,,,,7,,,65,100
84224,note_off,,,,,128,0,14,,,,,7,,,69,100
84224,note_off,,,,,0,0,11,,,,,4,,,65,100
84224,note_off,,,,,128,0,13,,,,,6,,,37,100
84224,note_off,,,,,128,0,15,,,,,7,,,49,100
84224,note_off,,,,,128,0,12,,,,,5,,,49,100
84224,note_off,,,,,128,0,11,,,,,4,,,61,100
84256,note_off,,,,,64,0,10,,,,,3,,,73,100
84256,note_off,,,,,64,0,9,,,,,2,,,80,100
84288,note_on,,,,,64,0,11,,,,,4,,,57,95
84288,note_on,,,,,64,0,13,,,,,6,,,37,95
84288,note_on,,,,,32,0,9,,,,,2,,,81,95
84288,note_on,,,,,0,0,14,,,,,7,,,65,100
84288,note_on,,,,,0,0,11,,,,,4,,,61,95
84288,note_on,,,,,64,0,15,,,,,7,,,49,100
84288,note_on,,,,,32,0,10,,,,,3,,,77,95
84288,note_on,,,,,64,0,14,,,,,7,,,69,100
84288,note_on,,,,,64,0,12,,,,,5,,,49,95
84324,note_off,,,,,1380,0,8,,,,,1,,,77,100
84352,note_off,,,,,64,0,10,,,,,3,,,77,100
84384,note_on,,,,,32,0,10,,,,,3,,,81,95
84416,note_off,,,,,0,0,14,,,,,7,,,65,100
84416,note_off,,,,,128,0,15,,,,,7,,,49,100
84416,note_off,,,,,128,0,13,,,,,6,,,37,100
84416,note_off,,,,,128,0,9,,,,,2,,,81,100
84416,note_off,,,,,0,0,11,,,,,4,,,61,100
84416,note_off,,,,,128,0,11,,,,,4,,,57,100
84416,note_off,,,,,128,0,14,,,,,7,,,69,100
84416,note_off,,,,,128,0,12,,,,,5,,,49,100
84448,note_off,,,,,64,0,10,,,,,3,,,81,100
84480,note_on,,,,,64,0,12,,,,,5,,,50,95
84480,note_on,,,,,64,0,15,,,,,7,,,50,100
84480,note_on,,,,,156,0,8,,,,,1,,,78,95
84480,note_on,,,,,64,0,14,,,,,7,,,69,100
84480,note_on,,,,,0,0,14,,,,,7,,,66,100
84480,note_on,,,,,64,0,13,,,,,6,,,38,95
84480,note_on,,,,,32,0,10,,,,,3,,,78,95
84576,note_on,,,,,160,0,9,,,,,2,,,74,95
84608,note_off,,,,,128,0,15,,,,,7,,,50,100
84608,note_off,,,,,128,0,12,,,,,5,,,50,100
84608,note_off,,,,,128,0,13,,,,,6,,,38,100
84608,note_off,,,,,128,0,14,,,,,7,,,69,100
84608,note_off,,,,,0,0,14,,,,,7,,,66,100
84608,note_off,,,,,128,0,10,,,,,3,,,78,100
84640,note_off,,,,,64,0,9,,,,,2,,,74,100
84672,note_on,,,,,64,0,12,,,,,5,,,50,96
84672,note_on,,,,,32,0,9,,,,,2,,,78,96
84672,note_on,,,,,64,0,13,,,,,6,,,38,96
84672,note_on,,,,,64,0,15,,,,,7,,,50,100
84672,note_on,,,,,0,0,11,,,,,4,,,69,96
84672,note_on,,,,,0,0,14,,,,,7,,,66,100
84672,note_on,,,,,64,0,14,,,,,7,,,69,100
84672,note_on,,,,,256,0,11,,,,,4,,,66,96
84672,note_on,,,,,64,0,10,,,,,3,,,74,96
84736,note_off,,,,,64,0,9,,,,,2,,,78,100
84768,note_on,,,,,32,0,9,,,,,2,,,81,96
84800,note_off,,,,,0,0,14,,,,,7,,,66,100
84800,note_off,,,,,0,0,11,,,,,4,,,69,100
84800,note_off,,,,,128,0,14,,,,,7,,,69,100
84800,note_off,,,,,128,0,13,,,,,6,,,38,100
84800,note_off,,,,,128,0,12,,,,,5,,,50,100
84800,note_off,,,,,128,0,15,,,,,7,,,50,100
84800,note_off,,,,,128,0,11,,,,,4,,,66,100
84800,note_off,,,,,128,0,10,,,,,3,,,74,100
84832,note_off,,,,,64,0,9,,,,,2,,,81,100
84864,note_on,,,,,64,0,11,,,,,4,,,62,96
84864,note_on,,,,,0,0,11,,,,,4,,,66,96
84864,note_on,,,,,64,0,12,,,,,5,,,50,96
84864,note_on,,,,,32,0,9,,,,,2,,,81,96
84864,note_on,,,,,64,0,15,,,,,7,,,50,100
84864,note_on,,,,,64,0,13,,,,,6,,,38,96
84864,note_on,,,,,64,0,14,,,,,7,,,69,100
84864,note_on,,,,,0,0,14,,,,,7,,,66,100
84956,note_off,,,,,92,0,9,,,,,2,,,81,100
84960,note_on,,,,,4,0,9,,,,,2,,,80,96
84960,note_on,,,,,160,0,10,,,,,3,,,74,96
84992,note_off,,,,,128,0,11,,,,,4,,,62,100
84992,note_off,,,,,128,0,13,,,,,6,,,38,100
84992,note_off,,,,,128,0,14,,,,,7,,,69,100
84992,note_off,,,,,128,0,12,,,,,5,,,50,100
84992,note_off,,,,,128,0,15,,,,,7,,,50,100
84992,note_off,,,,,0,0,14,,,,,7,,,66,100
84992,note_off,,,,,0,0,11,,,,,4,,,66,100
85024,note_off,,,,,64,0,9,,,,,2,,,80,100
85024,note_off,,,,,64,0,10,,,,,3,,,74,100
85056,note_on,,,,,32,0,9,,,,,2,,,81,97
85056,note_on,,,,,64,0,12,,,,,5,,,50,97
85056,note_on,,,,,32,0,10,,,,,3,,,78,97
85056,note_on,,,,,64,0,15,,,,,7,,,50,100
85056,note_on,,,,,64,0,13,,,,,6,,,38,97
85056,note_on,,,,,64,0,14,,,,,7,,,69,100
85056,note_on,,,,,64,0,11,,,,,4,,,57,97
85056,note_on,,,,,0,0,11,,,,,4,,,62,97
85056,note_on,,,,,0,0,14,,,,,7,,,66,100
85092,note_off,,,,,1380,0,7,,,,,0,,,81,64
85120,note_off,,,,,64,0,10,,,,,3,,,78,100
85152,note_on,,,,,32,0,10,,,,,3,,,81,97
85184,note_off,,,,,128,0,9,,,,,2,,,81,100
85184,note_off,,,,,128,0,15,,,,,7,,,50,100
85184,note_off,,,,,128,0,14,,,,,7,,,69,100
85184,note_off,,,,,0,0,14,,,,,7,,,66,100
85184,note_off,,,,,128,0,11,,,,,4,,,57,100
85184,note_off,,,,,0,0,11,,,,,4,,,62,100
85184,note_off,,,,,128,0,13,,,,,6,,,38,100
85184,note_off,,,,,128,0,12,,,,,5,,,50,100
85216,note_off,,,,,64,0,10,,,,,3,,,81,100
85248,note_on,,,,,64,0,15,,,,,7,,,50,100
85248,note_on,,,,,64,0,13,,,,,6,,,38,97
85248,note_on,,,,,64,0,14,,,,,7,,,66,100
85248,note_on,,,,,32,0,10,,,,,3,,,78,97
85248,note_on,,,,,0,0,14,,,,,7,,,71,100
85248,note_on,,,,,64,0,12,,,,,5,,,50,97
85248,note_on,,,,,156,0,7,,,,,0,,,83,97
85344,note_on,,,,,160,0,9,,,,,2,,,74,98
85376,note_off,,,,,128,0,15,,,,,7,,,50,100
85376,note_off,,,,,128,0,10,,,,,3,,,78,100
85376,note_off,,,,,128,0,14,,,,,7,,,66,100
85376,note_off,,,,,128,0,12,,,,,5,,,50,100
85376,note_off,,,,,128,0,13,,,,,6,,,38,100
85376,note_off,,,,,0,0,14,,,,,7,,,71,100
85408,note_off,,,,,64,0,9,,,,,2,,,74,100
85440,note_on,,,,,64,0,10,,,,,3,,,74,98
85440,note_on,,,,,0,0,11,,,,,4,,,71,98
85440,note_on,,,,,256,0,11,,,,,4,,,66,98
85440,note_on,,,,,0,0,14,,,,,7,,,71,100
85440,note_on,,,,,64,0,14,,,,,7,,,66,100
85440,note_on,,,,,64,0,12,,,,,5,,,50,98
85440,note_on,,,,,64,0,13,,,,,6,,,38,98
85440,note_on,,,,,64,0,15,,,,,7,,,50,100
85440,note_on,,,,,32,0,9,,,,,2,,,78,98
85504,note_off,,,,,64,0,9,,,,,2,,,78,100
85536,note_on,,,,,32,0,9,,,,,2,,,83,98
85568,note_off,,,,,0,0,11,,,,,4,,,71,100
85568,note_off,,,,,128,0,15,,,,,7,,,50,100
85568,note_off,,,,,128,0,13,,,,,6,,,38,100
85568,note_off,,,,,128,0,11,,,,,4,,,66,100
85568,note_off,,,,,128,0,10,,,,,3,,,74,100
85568,note_off,,,,,128,0,12,,,,,5,,,50,100
85568,note_off,,,,,0,0,14,,,,,7,,,71,100
85568,note_off,,,,,128,0,14,,,,,7,,,66,100
85600,note_off,,,,,64,0,9,,,,,2,,,83,100
85632,note_on,,,,,64,0,15,,,,,7,,,50,100
85632,note_on,,,,,0,0,11,,,,,4,,,66,98
85632,note_on,,,,,64,0,11,,,,,4,,,62,98
85632,note_on,,,,,64,0,12,,,,,5,,,50,98
85632,note_on,,,,,32,0,9,,,,,2,,,83,98
85632,note_on,,,,,64,0,13,,,,,6,,,38,98
85632,note_on,,,,,64,0,14,,,,,7,,,66,100
85632,note_on,,,,,0,0,14,,,,,7,,,71,100
85724,note_off,,,,,92,0,9,,,,,2,,,83,100
85728,note_on,,,,,160,0,10,,,,,3,,,74,99
85728,note_on,,,,,4,0,9,,,,,2,,,81,99
85760,note_off,,,,,128,0,14,,,,,7,,,66,100
85760,note_off,,,,,0,0,14,,,,,7,,,71,100
85760,note_off,,,,,128,0,12,,,,,5,,,50,100
85760,note_off,,,,,128,0,15,,,,,7,,,50,100
85760,note_off,,,,,0,0,11,,,,,4,,,66,100
85760,note_off,,,,,128,0,11,,,,,4,,,62,100
85760,note_off,,,,,128,0,13,,,,,6,,,38,100
85792,note_off,,,,,64,0,10,,,,,3,,,74,100
85792,note_off,,,,,64,0,9,,,,,2,,,81,100
85824,note_on,,,,,64,0,14,,,,,7,,,66,100
85824,note_on,,,,,0,0,14,,,,,7,,,71,100
85824,note_on,,,,,32,0,10,,,,,3,,,78,99
85824,note_on,,,,,64,0,13,,,,,6,,,38,99
85824,note_on,,,,,64,0,15,,,,,7,,,50,100
85824,note_on,,,,,32,0,9,,,,,2,,,83,99
85824,note_on,,,,,0,0,11,,,,,4,,,62,99
85824,note_on,,,,,64,0,11,,,,,4,,,59,99
85824,note_on,,,,,64,0,12,,,,,5,,,50,99
85860,note_off,,,,,1380,0,8,,,,,1,,,78,100
85888,note_off,,,,,64,0,10,,,,,3,,,78,100
85920,note_on,,,,,32,0,10,,,,,3,,,83,99
85952,note_off,,,,,128,0,14,,,,,7,,,66,100
85952,note_off,,,,,128,0,12,,,,,5,,,50,100
85952,note_off,,,,,128,0,9,,,,,2,,,83,100
85952,note_off,,,,,0,0,14,,,,,7,,,71,100
85952,note_off,,,,,128,0,15,,,,,7,,,50,100
85952,note_off,,,,,128,0,13,,,,,6,,,38,100
85952,note_off,,,,,128,0,11,,,,,4,,,59,100
85952,note_off,,,,,0,0,11,,,,,4,,,62,100
85984,note_off,,,,,64,0,10,,,,,3,,,83,100
86016,note_on,,,,,64,0,14,,,,,7,,,65,100
86016,note_on,,,,,0,0,14,,,,,7,,,68,100
86016,note_on,,,,,0,0,14,,,,,7,,,71,100
86016,note_on,,,,,64,0,13,,,,,6,,,37,99
86016,note_on,,,,,64,0,15,,,,,7,,,49,100
86016,note_on,,,,,64,0,12,,,,,5,,,49,99
86016,note_on,,,,,156,0,8,,,,,1,,,77,99
86016,note_on,,,,,32,0,10,,,,,3,,,77,99
86112,note_on,,,,,160,0,9,,,,,2,,,73,100
86144,note_off,,,,,0,0,14,,,,,7,,,71,100
86144,note_off,,,,,0,0,14,,,,,7,,,68,100
86144,note_off,,,,,128,0,10,,,,,3,,,77,100
86144,note_off,,,,,128,0,13,,,,,6,,,37,100
86144,note_off,,,,,128,0,15,,,,,7,,,49,100
86144,note_off,,,,,128,0,12,,,,,5,,,49,100
86144,note_off,,,,,128,0,14,,,,,7,,,65,100
86176,note_off,,,,,64,0,9,,,,,2,,,73,100
86208,note_on,,,,,64,0,12,,,,,5,,,49,100
86208,note_on,,,,,64,0,13,,,,,6,,,37,100
86208,note_on,,,,,64,0,10,,,,,3,,,73,100
86208,note_on,,,,,256,0,11,,,,,4,,,65,100
86208,note_on,,,,,64,0,15,,,,,7,,,49,100
86208,note_on,,,,,0,0,14,,,,,7,,,71,100
86208,note_on,,,,,0,0,14,,,,,7,,,68,100
86208,note_on,,,,,64,0,14,,,,,7,,,65,100
86208,note_on,,,,,32,0,9,,,,,2,,,77,100
86208,note_on,,,,,0,0,11,,,,,4,,,68,100
86272,note_off,,,,,64,0,9,,,,,2,,,77,100
86304,note_on,,,,,32,0,9,,,,,2,,,83,100
86336,note_off,,,,,128,0,11,,,,,4,,,65,100
86336,note_off,,,,,0,0,11,,,,,4,,,68,100
86336,note_off,,,,,128,0,15,,,,,7,,,49,100
86336,note_off,,,,,128,0,13,,,,,6,,,37,100
86336,note_off,,,,,0,0,14,,,,,7,,,71,100
86336,note_off,,,,,128,0,10,,,,,3,,,73,100
86336,note_off,,,,,128,0,12,,,,,5,,,49,100
86336,note_off,,,,,128,0,14,,,,,7,,,65,100
86336,note_off,,,,,0,0,14,,,,,7,,,68,100
86368,note_off,,,,,64,0,9,,,,,2,,,83,100
86400,note_on,,,,,32,0,9,,,,,2,,,83,100
86400,note_on,,,,,0,0,14,,,,,7,,,71,100
86400,note_on,,,,,64,0,13,,,,,6,,,37,100
86400,note_on,,,,,0,0,14,,,,,7,,,68,100
86400,note_on,,,,,64,0,15,,,,,7,,,49,100
86400,note_on,,,,,0,0,11,,,,,4,,,68,100
86400,note_on,,,,,64,0,11,,,,,4,,,65,100
86400,note_on,,,,,64,0,14,,,,,7,,,65,100
86400,note_on,,,,,64,0,12,,,,,5,,,49,100
86492,note_off,,,,,92,0,9,,,,,2,,,83,100
86496,note_on,,,,,4,0,9,,,,,2,,,81,100
86496,note_on,,,,,160,0,10,,,,,3,,,73,100
86528,note_off,,,,,0,0,11,,,,,4,,,68,100
86528,note_off,,,,,128,0,13,,,,,6,,,37,100
86528,note_off,,,,,128,0,12,,,,,5,,,49,100
86528,note_off,,,,,128,0,14,,,,,7,,,65,100
86528,note_off,,,,,0,0,14,,,,,7,,,68,100
86528,note_off,,,,,0,0,14,,,,,7,,,71,100
86528,note_off,,,,,128,0,11,,,,,4,,,65,100
86528,note_off,,,,,128,0,15,,,,,7,,,49,100
86560,note_off,,,,,64,0,10,,,,,3,,,73,100
86560,note_off,,,,,64,0,9,,,,,2,,,81,100
86592,note_on,,,,,64,0,13,,,,,6,,,37,100
86592,note_on,,,,,64,0,14,,,,,7,,,65,100
86592,note_on,,,,,0,0,14,,,,,7,,,68,100
86592,note_on,,,,,0,0,14,,,,,7,,,71,100
86592,note_on,,,,,0,0,11,,,,,4,,,65,100
86592,note_on,,,,,32,0,10,,,,,3,,,77,100
86592,note_on,,,,,64,0,15,,,,,7,,,49,100
86592,note_on,,,,,32,0,9,,,,,2,,,83,100
86592,note_on,,,,,64,0,12,,,,,5,,,49,100
86592,note_on,,,,,64,0,11,,,,,4,,,61,100
86628,note_off,,,,,1380,0,7,,,,,0,,,83,64
86656,note_off,,,,,64,0,9,,,,,2,,,83,100
86656,note_off,,,,,64,0,10,,,,,3,,,77,100
86688,note_on,,,,,32,0,10,,,,,3,,,83,100
86704,note_off,,,,,688,0,8,,,,,1,,,77,100
86720,note_off,,,,,0,0,11,,,,,4,,,65,100
86720,note_off,,,,,128,0,11,,,,,4,,,61,100
86720,note_off,,,,,0,0,14,,,,,7,,,71,100
86720,note_off,,,,,128,0,15,,,,,7,,,49,100
86720,note_off,,,,,128,0,14,,,,,7,,,65,100
86720,note_off,,,,,0,0,14,,,,,7,,,68,100
86720,note_off,,,,,128,0,13,,,,,6,,,37,100
86720,note_off,,,,,128,0,12,,,,,5,,,49,100
86752,note_off,,,,,64,0,10,,,,,3,,,83,100
86784,note_on,,,,,32,0,10,,,,,3,,,78,100
86784,note_on,,,,,64,0,14,,,,,7,,,69,100
86784,note_on,,,,,64,0,13,,,,,6,,,37,100
86784,note_on,,,,,0,0,14,,,,,7,,,66,100
86784,note_on,,,,,80,0,8,,,,,1,,,78,100
86784,note_on,,,,,156,0,7,,,,,0,,,81,100
86784,note_on,,,,,64,0,15,,,,,7,,,49,100
86784,note_on,,,,,64,0,12,,,,,5,,,49,100
86880,note_on,,,,,224,0,9,,,,,2,,,73,100
86912,note_off,,,,,128,0,12,,,,,5,,,49,100
86912,note_off,,,,,128,0,14,,,,,7,,,69,100
86912,note_off,,,,,128,0,13,,,,,6,,,37,100
86912,note_off,,,,,128,0,10,,,,,3,,,78,100
86912,note_off,,,,,128,0,15,,,,,7,,,49,100
86912,note_off,,,,,0,0,14,,,,,7,,,66,100
86944,note_off,,,,,64,0,9,,,,,2,,,73,100
86976,note_on,,,,,32,0,9,,,,,2,,,78,100
86976,note_on,,,,,64,0,12,,,,,5,,,49,100
86976,note_on,,,,,64,0,13,,,,,6,,,37,100
86976,note_on,,,,,0,0,14,,,,,7,,,66,100
86976,note_on,,,,,64,0,14,,,,,7,,,69,100
86976,note_on,,,,,64,0,15,,,,,7,,,49,100
86976,note_on,,,,,64,0,10,,,,,3,,,73,100
86976,note_on,,,,,256,0,11,,,,,4,,,66,100
86976,note_on,,,,,0,0,11,,,,,4,,,69,100
87040,note_off,,,,,64,0,9,,,,,2,,,78,100
87072,note_on,,,,,32,0,9,,,,,2,,,81,100
87104,note_off,,,,,128,0,13,,,,,6,,,37,100
87104,note_off,,,,,128,0,11,,,,,4,,,66,100
87104,note_off,,,,,128,0,14,,,,,7,,,69,100
87104,note_off,,,,,0,0,14,,,,,7,,,66,100
87104,note_off,,,,,128,0,15,,,,,7,,,49,100
87104,note_off,,,,,128,0,10,,,,,3,,,73,100
87104,note_off,,,,,128,0,12,,,,,5,,,49,100
87104,note_off,,,,,0,0,11,,,,,4,,,69,100
87136,note_off,,,,,64,0,9,,,,,2,,,81,100
87168,note_on,,,,,64,0,11,,,,,4,,,66,100
87168,note_on,,,,,64,0,14,,,,,7,,,69,100
87168,note_on,,,,,64,0,15,,,,,7,,,49,100
87168,note_on,,,,,0,0,11,,,,,4,,,69,100
87168,note_on,,,,,0,0,14,,,,,7,,,66,100
87168,note_on,,,,,64,0,12,,,,,5,,,49,100
87168,note_on,,,,,32,0,9,,,,,2,,,81,100
87168,note_on,,,,,64,0,13,,,,,6,,,37,100
87260,note_off,,,,,92,0,9,,,,,2,,,81,100
87264,note_on,,,,,160,0,10,,,,,3,,,73,100
87264,note_on,,,,,4,0,9,,,,,2,,,80,100
87296,note_off,,,,,128,0,12,,,,,5,,,49,100
87296,note_off,,,,,128,0,11,,,,,4,,,66,100
87296,note_off,,,,,0,0,11,,,,,4,,,69,100
87296,note_off,,,,,0,0,14,,,,,7,,,66,100
87296,note_off,,,,,128,0,14,,,,,7,,,69,100
87296,note_off,,,,,128,0,15,,,,,7,,,49,100
87296,note_off,,,,,128,0,13,,,,,6,,,37,100
87328,note_off,,,,,64,0,9,,,,,2,,,80,100
87328,note_off,,,,,64,0,10,,,,,3,,,73,100
87360,note_on,,,,,64,0,12,,,,,5,,,49,100
87360,note_on,,,,,64,0,14,,,,,7,,,69,100
87360,note_on,,,,,64,0,15,,,,,7,,,49,100
87360,note_on,,,,,0,0,14,,,,,7,,,66,100
87360,note_on,,,,,64,0,11,,,,,4,,,61,100
87360,note_on,,,,,0,0,11,,,,,4,,,66,100
87360,note_on,,,,,32,0,9,,,,,2,,,81,100
87360,note_on,,,,,32,0,10,,,,,3,,,78,100
87360,note_on,,,,,64,0,13,,,,,6,,,37,100
87424,note_off,,,,,64,0,9,,,,,2,,,81,100
87424,note_off,,,,,64,0,10,,,,,3,,,78,100
87456,note_on,,,,,32,0,10,,,,,3,,,81,100
87472,note_off,,,,,688,0,7,,,,,0,,,81,100
87488,note_off,,,,,128,0,12,,,,,5,,,49,100
87488,note_off,,,,,128,0,15,,,,,7,,,49,100
87488,note_off,,,,,0,0,14,,,,,7,,,66,100
87488,note_off,,,,,128,0,14,,,,,7,,,69,100
87488,note_off,,,,,128,0,13,,,,,6,,,37,100
87488,note_off,,,,,0,0,11,,,,,4,,,66,100
87488,note_off,,,,,128,0,11,,,,,4,,,61,100
87520,note_off,,,,,64,0,10,,,,,3,,,81,100
87552,note_on,,,,,0,0,14,,,,,7,,,66,100
87552,note_on,,,,,64,0,15,,,,,7,,,49,100
87552,note_on,,,,,64,0,14,,,,,7,,,68,100
87552,note_on,,,,,80,0,7,,,,,0,,,80,100
87552,note_on,,,,,64,0,12,,,,,5,,,49,100
87552,note_on,,,,,32,0,10,,,,,3,,,78,100
87552,note_on,,,,,64,0,13,,,,,6,,,37,100
87648,note_on,,,,,224,0,9,,,,,2,,,73,100
87680,note_off,,,,,128,0,13,,,,,6,,,37,100
87680,note_off,,,,,128,0,14,,,,,7,,,68,100
87680,note_off,,,,,0,0,14,,,,,7,,,66,100
87680,note_off,,,,,128,0,15,,,,,7,,,49,100
87680,note_off,,,,,128,0,10,,,,,3,,,78,100
87680,note_off,,,,,128,0,12,,,,,5,,,49,100
87712,note_off,,,,,64,0,9,,,,,2,,,73,100
87744,note_on,,,,,64,0,10,,,,,3,,,73,100
87744,note_on,,,,,32,0,9,,,,,2,,,78,100
87744,note_on,,,,,64,0,12,,,,,5,,,49,100
87744,note_on,,,,,256,0,11,,,,,4,,,61,100
87744,note_on,,,,,64,0,13,,,,,6,,,37,100
87744,note_on,,,,,64,0,15,,,,,7,,,49,100
87744,note_on,,,,,0,0,14,,,,,7,,,66,100
87744,note_on,,,,,64,0,14,,,,,7,,,68,100
87744,note_on,,,,,0,0,11,,,,,4,,,68,100
87808,note_off,,,,,64,0,9,,,,,2,,,78,100
87840,note_on,,,,,32,0,9,,,,,2,,,80,100
87872,note_off,,,,,128,0,15,,,,,7,,,49,100
87872,note_off,,,,,0,0,14,,,,,7,,,66,100
87872,note_off,,,,,128,0,13,,,,,6,,,37,100
87872,note_off,,,,,128,0,12,,,,,5,,,49,100
87872,note_off,,,,,0,0,11,,,,,4,,,68,100
87872,note_off,,,,,128,0,14,,,,,7,,,68,100
87872,note_off,,,,,128,0,11,,,,,4,,,61,100
87872,note_off,,,,,128,0,10,,,,,3,,,73,100
87904,note_off,,,,,64,0,9,,,,,2,,,80,100
87936,note_on,,,,,0,0,11,,,,,4,,,66,100
87936,note_on,,,,,64,0,12,,,,,5,,,49,100
87936,note_on,,,,,64,0,15,,,,,7,,,49,100
87936,note_on,,,,,64,0,13,,,,,6,,,37,100
87936,note_on,,,,,0,0,14,,,,,7,,,66,100
87936,note_on,,,,,64,0,14,,,,,7,,,68,100
87936,note_on,,,,,32,0,9,,,,,2,,,80,100
87936,note_on,,,,,64,0,11,,,,,4,,,61,100
88028,note_off,,,,,92,0,9,,,,,2,,,80,100
88032,note_on,,,,,4,0,9,,,,,2,,,78,100
88032,note_on,,,,,160,0,10,,,,,3,,,73,100
88064,note_off,,,,,0,0,14,,,,,7,,,66,100
88064,note_off,,,,,128,0,13,,,,,6,,,37,100
88064,note_off,,,,,128,0,14,,,,,7,,,68,100
88064,note_off,,,,,128,0,15,,,,,7,,,49,100
88064,note_off,,,,,0,0,11,,,,,4,,,66,100
88064,note_off,,,,,128,0,11,,,,,4,,,61,100
88064,note_off,,,,,128,0,12,,,,,5,,,49,100
88096,note_off,,,,,64,0,9,,,,,2,,,78,100
88096,note_off,,,,,64,0,10,,,,,3,,,73,100
88128,note_on,,,,,64,0,13,,,,,6,,,37,100
88128,note_on,,,,,0,0,14,,,,,7,,,66,100
88128,note_on,,,,,64,0,14,,,,,7,,,68,100
88128,note_on,,,,,32,0,9,,,,,2,,,80,100
88128,note_on,,,,,0,0,11,,,,,4,,,66,100
88128,note_on,,,,,32,0,10,,,,,3,,,78,100
88128,note_on,,,,,64,0,11,,,,,4,,,61,100
88128,note_on,,,,,64,0,15,,,,,7,,,49,100
88128,note_on,,,,,64,0,12,,,,,5,,,49,100
88164,note_off,,,,,1380,0,8,,,,,1,,,78,64
88192,note_off,,,,,64,0,10,,,,,3,,,78,100
88224,note_on,,,,,32,0,10,,,,,3,,,80,100
88256,note_off,,,,,128,0,15,,,,,7,,,49,100
88256,note_off,,,,,128,0,12,,,,,5,,,49,100
88256,note_off,,,,,0,0,14,,,,,7,,,66,100
88256,note_off,,,,,128,0,14,,,,,7,,,68,100
88256,note_off,,,,,0,0,11,,,,,4,,,66,100
88256,note_off,,,,,128,0,11,,,,,4,,,61,100
88256,note_off,,,,,128,0,9,,,,,2,,,80,100
88256,note_off,,,,,128,0,13,,,,,6,,,37,100
88288,note_off,,,,,64,0,10,,,,,3,,,80,100
88320,note_on,,,,,64,0,15,,,,,7,,,49,100
88320,note_on,,,,,0,0,14,,,,,7,,,68,100
88320,note_on,,,,,64,0,14,,,,,7,,,65,100
88320,note_on,,,,,32,0,10,,,,,3,,,77,100
88320,note_on,,,,,64,0,13,,,,,6,,,37,100
88320,note_on,,,,,156,0,8,,,,,1,,,77,100
88320,note_on,,,,,64,0,12,,,,,5,,,49,100
88416,note_on,,,,,160,0,9,,,,,2,,,73,100
88448,note_off,,,,,128,0,10,,,,,3,,,77,100
88448,note_off,,,,,128,0,13,,,,,6,,,37,100
88448,note_off,,,,,128,0,12,,,,,5,,,49,100
88448,note_off,,,,,0,0,14,,,,,7,,,68,100
88448,note_off,,,,,128,0,14,,,,,7,,,65,100
88448,note_off,,,,,128,0,15,,,,,7,,,49,100
88480,note_off,,,,,64,0,9,,,,,2,,,73,100
88512,note_on,,,,,64,0,13,,,,,6,,,37,100
88512,note_on,,,,,64,0,12,,,,,5,,,49,100
88512,note_on,,,,,64,0,10,,,,,3,,,73,100
88512,note_on,,,,,64,0,14,,,,,7,,,65,100
88512,note_on,,,,,256,0,11,,,,,4,,,61,100
88512,note_on,,,,,64,0,15,,,,,7,,,49,100
88512,note_on,,,,,32,0,9,,,,,2,,,77,100
88512,note_on,,,,,0,0,14,,,,,7,,,68,100
88512,note_on,,,,,0,0,11,,,,,4,,,66,100
88576,note_off,,,,,64,0,9,,,,,2,,,77,100
88608,note_on,,,,,32,0,9,,,,,2,,,80,100
88640,note_off,,,,,128,0,15,,,,,7,,,49,100
88640,note_off,,,,,0,0,11,,,,,4,,,66,100
88640,note_off,,,,,128,0,11,,,,,4,,,61,100
88640,note_off,,,,,128,0,14,,,,,7,,,65,100
88640,note_off,,,,,128,0,12,,,,,5,,,49,100
88640,note_off,,,,,128,0,13,,,,,6,,,37,100
88640,note_off,,,,,0,0,14,,,,,7,,,68,100
88640,note_off,,,,,128,0,10,,,,,3,,,73,100
88672,note_off,,,,,64,0,9,,,,,2,,,80,100
88704,note_on,,,,,64,0,13,,,,,6,,,37,100
88704,note_on,,,,,32,0,9,,,,,2,,,80,100
88704,note_on,,,,,64,0,12,,,,,5,,,49,100
88704,note_on,,,,,64,0,15,,,,,7,,,49,100
88704,note_on,,,,,64,0,11,,,,,4,,,61,100
88704,note_on,,,,,64,0,14,,,,,7,,,65,100
88704,note_on,,,,,0,0,14,,,,,7,,,68,100
88796,note_off,,,,,92,0,9,,,,,2,,,80,100
88800,note_on,,,,,4,0,9,,,,,2,,,78,100
88800,note_on,,,,,160,0,10,,,,,3,,,73,100
88832,note_off,,,,,128,0,15,,,,,7,,,49,100
88832,note_off,,,,,128,0,11,,,,,4,,,61,100
88832,note_off,,,,,0,0,14,,,,,7,,,68,100
88832,note_off,,,,,128,0,12,,,,,5,,,49,100
88832,note_off,,,,,128,0,14,,,,,7,,,65,100
88832,note_off,,,,,128,0,13,,,,,6,,,37,100
88864,note_off,,,,,64,0,10,,,,,3,,,73,100
88864,note_off,,,,,64,0,9,,,,,2,,,78,100
88896,note_on,,,,,64,0,12,,,,,5,,,49,100
88896,note_on,,,,,32,0,9,,,,,2,,,80,100
88896,note_on,,,,,64,0,14,,,,,7,,,65,100
88896,note_on,,,,,0,0,14,,,,,7,,,68,100
88896,note_on,,,,,64,0,11,,,,,4,,,61,100
88896,note_on,,,,,64,0,15,,,,,7,,,49,100
88896,note_on,,,,,64,0,13,,,,,6,,,37,100
88896,note_on,,,,,32,0,10,,,,,3,,,77,100
88932,note_off,,,,,1380,0,7,,,,,0,,,80,100
88960,note_off,,,,,64,0,10,,,,,3,,,77,100
88992,note_on,,,,,32,0,10,,,,,3,,,80,100
89008,note_off,,,,,688,0,8,,,,,1,,,77,100
89024,note_off,,,,,128,0,15,,,,,7,,,49,100
89024,note_off,,,,,128,0,11,,,,,4,,,61,100
89024,note_off,,,,,128,0,13,,,,,6,,,37,100
89024,note_off,,,,,0,0,14,,,,,7,,,68,100
89024,note_off,,,,,128,0,14,,,,,7,,,65,100
89024,note_off,,,,,128,0,9,,,,,2,,,80,100
89024,note_off,,,,,128,0,12,,,,,5,,,49,100
89056,note_off,,,,,64,0,10,,,,,3,,,80,100
89088,note_on,,,,,64,0,13,,,,,6,,,42,100
89088,note_on,,,,,64,0,9,,,,,2,,,81,100
89088,note_on,,,,,64,0,14,,,,,7,,,69,100
89088,note_on,,,,,0,0,14,,,,,7,,,61,100
89088,note_on,,,,,0,0,11,,,,,4,,,57,100
89088,note_on,,,,,32,0,10,,,,,3,,,78,100
89088,note_on,,,,,80,0,8,,,,,1,,,78,100
89088,note_on,,,,,156,0,7,,,,,0,,,78,100
89088,note_on,,,,,64,0,11,,,,,4,,,61,100
89088,note_on,,,,,64,0,12,,,,,5,,,42,100
89088,note_on,,,,,64,0,15,,,,,7,,,42,100
89180,program_change,,,,,92,0,7,,,,,0,40,,,
89184,note_on,,,,,4,0,7,,,,,0,,,73,100
89248,note_off,,,,,64,0,7,,,,,0,,,73,100
89280,note_on,,,,,32,0,7,,,,,0,,,69,100
89344,note_off,,,,,256,0,10,,,,,3,,,78,100
89344,note_off,,,,,64,0,7,,,,,0,,,78,100
89344,note_off,,,,,256,0,13,,,,,6,,,42,100
89344,note_off,,,,,256,0,11,,,,,4,,,61,100
89344,note_off,,,,,0,0,7,,,,,0,,,69,100
89344,note_off,,,,,256,0,14,,,,,7,,,69,100
89344,note_off,,,,,0,0,14,,,,,7,,,61,100
89344,note_off,,,,,256,0,8,,,,,1,,,78,100
89344,note_off,,,,,256,0,15,,,,,7,,,42,100
89344,note_off,,,,,256,0,9,,,,,2,,,81,100
89344,note_off,,,,,256,0,12,,,,,5,,,42,100
89344,note_off,,,,,0,0,11,,,,,4,,,57,100
89376,note_on,,,,,32,0,7,,,,,0,,,73,100
89440,note_off,,,,,64,0,7,,,,,0,,,73,100
89472,note_on,,,,,0,0,14,,,,,7,,,73,100
89472,note_on,,,,,32,0,7,,,,,0,,,78,100
89472,note_on,,,,,128,0,14,,,,,7,,,69,100
89472,note_on,,,,,128,0,13,,,,,6,,,42,85
89472,note_on,,,,,128,0,15,,,,,7,,,54,100
89472,note_on,,,,,128,0,12,,,,,5,,,54,85
89564,note_off,,,,,92,0,7,,,,,0,,,78,100
89568,note_on,,,,,4,0,7,,,,,0,,,81,100
89660,note_off,,,,,92,0,7,,,,,0,,,81,100
89664,note_on,,,,,4,0,7,,,,,0,,,80,100
89728,note_off,,,,,0,0,14,,,,,7,,,73,100
89728,note_off,,,,,64,0,7,,,,,0,,,80,100
89728,note_off,,,,,256,0,14,,,,,7,,,69,100
89760,note_on,,,,,32,0,7,,,,,0,,,78,100
89824,note_off,,,,,64,0,7,,,,,0,,,78,100
89856,note_on,,,,,128,0,14,,,,,7,,,68,100
89856,note_on,,,,,0,0,14,,,,,7,,,71,100
89856,note_on,,,,,32,0,7,,,,,0,,,80,100
89920,note_off,,,,,64,0,7,,,,,0,,,80,100
89952,note_on,,,,,32,0,7,,,,,0,,,77,100
89984,note_off,,,,,512,0,12,,,,,5,,,54,100
89984,note_off,,,,,512,0,13,,,,,6,,,42,100
89984,note_off,,,,,512,0,15,,,,,7,,,54,100
90016,note_off,,,,,64,0,7,,,,,0,,,77,100
90048,note_on,,,,,32,0,7,,,,,0,,,73,100
90112,note_off,,,,,64,0,7,,,,,0,,,73,100
90112,note_off,,,,,256,0,14,,,,,7,,,68,100
90112,note_off,,,,,0,0,14,,,,,7,,,71,100
90144,note_on,,,,,32,0,7,,,,,0,,,77,100
90208,note_off,,,,,64,0,7,,,,,0,,,77,100
90240,note_on,,,,,32,0,7,,,,,0,,,80,100
90240,note_on,,,,,128,0,14,,,,,7,,,68,100
90240,note_on,,,,,256,0,12,,,,,5,,,53,85
90240,note_on,,,,,0,0,14,,,,,7,,,71,100
90240,note_on,,,,,256,0,15,,,,,7,,,53,100
90240,note_on,,,,,256,0,13,,,,,6,,,41,85
90332,note_off,,,,,92,0,7,,,,,0,,,80,100
90336,note_on,,,,,4,0,7,,,,,0,,,83,100
90428,note_off,,,,,92,0,7,,,,,0,,,83,100
90432,note_on,,,,,4,0,7,,,,,0,,,81,100
90496,note_off,,,,,256,0,15,,,,,7,,,53,100
90496,note_off,,,,,256,0,13,,,,,6,,,41,100
90496,note_off,,,,,256,0,12,,,,,5,,,53,100
90496,note_off,,,,,0,0,14,,,,,7,,,71,100
90496,note_off,,,,,256,0,14,,,,,7,,,68,100
90496,note_off,,,,,64,0,7,,,,,0,,,81,100
90528,note_on,,,,,32,0,7,,,,,0,,,80,100
90592,note_off,,,,,64,0,7,,,,,0,,,80,100
90624,note_on,,,,,128,0,13,,,,,6,,,42,85
90624,note_on,,,,,128,0,15,,,,,7,,,54,100
90624,note_on,,,,,128,0,12,,,,,5,,,54,85
90624,note_on,,,,,32,0,7,,,,,0,,,81,100
90624,note_on,,,,,0,0,14,,,,,7,,,73,100
90624,note_on,,,,,128,0,14,,,,,7,,,69,100
90688,note_off,,,,,64,0,7,,,,,0,,,81,100
90720,note_on,,,,,32,0,7,,,,,0,,,78,100
90752,note_off,,,,,128,0,12,,,,,5,,,54,100
90784,note_off,,,,,64,0,7,,,,,0,,,78,100
90816,note_on,,,,,64,0,12,,,,,5,,,54,85
90816,note_on,,,,,32,0,7,,,,,0,,,80,100
90880,note_off,,,,,0,0,14,,,,,7,,,73,100
90880,note_off,,,,,64,0,7,,,,,0,,,80,100
90880,note_off,,,,,256,0,13,,,,,6,,,42,100
90880,note_off,,,,,256,0,14,,,,,7,,,69,100
90880,note_off,,,,,256,0,15,,,,,7,,,54,100
90912,note_on,,,,,32,0,7,,,,,0,,,81,100
90944,note_off,,,,,128,0,12,,,,,5,,,54,100
90976,note_off,,,,,64,0,7,,,,,0,,,81,100
91008,note_on,,,,,32,0,7,,,,,0,,,75,100
91008,note_on,,,,,64,0,12,,,,,5,,,59,85
91100,note_off,,,,,92,0,7,,,,,0,,,75,100
91104,note_on,,,,,4,0,7,,,,,0,,,81,100
91136,note_off,,,,,128,0,12,,,,,5,,,59,100
91196,note_off,,,,,92,0,7,,,,,0,,,81,100
91200,note_on,,,,,320,0,13,,,,,6,,,35,85
91200,note_on,,,,,4,0,7,,,,,0,,,83,100
91200,note_on,,,,,320,0,15,,,,,7,,,47,100
91200,note_on,,,,,64,0,12,,,,,5,,,47,85
91200,note_on,,,,,0,0,14,,,,,7,,,69,100
91200,note_on,,,,,320,0,14,,,,,7,,,63,100
91264,note_off,,,,,64,0,7,,,,,0,,,83,100
91296,note_on,,,,,32,0,7,,,,,0,,,81,100
91328,note_off,,,,,128,0,12,,,,,5,,,47,100
91328,note_off,,,,,128,0,14,,,,,7,,,63,100
91328,note_off,,,,,0,0,14,,,,,7,,,69,100
91328,note_off,,,,,128,0,15,,,,,7,,,47,100
91328,note_off,,,,,128,0,13,,,,,6,,,35,100
91360,note_off,,,,,64,0,7,,,,,0,,,81,100
91392,note_on,,,,,64,0,12,,,,,5,,,40,85
91392,note_on,,,,,64,0,14,,,,,7,,,59,100
91392,note_on,,,,,0,0,14,,,,,7,,,67,100
91392,note_on,,,,,64,0,15,,,,,7,,,40,100
91392,note_on,,,,,32,0,7,,,,,0,,,79,100
91392,note_on,,,,,64,0,13,,,,,6,,,40,85
91456,note_off,,,,,64,0,7,,,,,0,,,79,100
91488,note_on,,,,,32,0,7,,,,,0,,,76,100
91520,note_off,,,,,128,0,12,,,,,5,,,40,100
91552,note_off,,,,,64,0,7,,,,,0,,,76,100
91584,note_on,,,,,32,0,7,,,,,0,,,78,100
91584,note_on,,,,,64,0,12,,,,,5,,,52,85
91648,note_off,,,,,64,0,7,,,,,0,,,78,100
91648,note_off,,,,,256,0,15,,,,,7,,,40,100
91648,note_off,,,,,256,0,14,,,,,7,,,59,100
91648,note_off,,,,,256,0,13,,,,,6,,,40,100
91648,note_off,,,,,0,0,14,,,,,7,,,67,100
91680,note_on,,,,,32,0,7,,,,,0,,,79,100
91712,note_off,,,,,128,0,12,,,,,5,,,52,100
91744,note_off,,,,,64,0,7,,,,,0,,,79,100
91776,note_on,,,,,64,0,12,,,,,5,,,57,85
91776,note_on,,,,,32,0,7,,,,,0,,,73,100
91868,note_off,,,,,92,0,7,,,,,0,,,73,100
91872,note_on,,,,,4,0,7,,,,,0,,,79,100
91904,note_off,,,,,128,0,12,,,,,5,,,57,100
91964,note_off,,,,,92,0,7,,,,,0,,,79,100
91968,note_on,,,,,4,0,7,,,,,0,,,81,100
91968,note_on,,,,,0,0,14,,,,,7,,,67,100
91968,note_on,,,,,320,0,15,,,,,7,,,45,100
91968,note_on,,,,,320,0,14,,,,,7,,,64,100
91968,note_on,,,,,64,0,12,,,,,5,,,45,85
91968,note_on,,,,,320,0,13,,,,,6,,,33,85
92060,note_off,,,,,92,0,7,,,,,0,,,81,100
92064,note_on,,,,,4,0,7,,,,,0,,,79,100
92096,note_off,,,,,128,0,13,,,,,6,,,33,100
92096,note_off,,,,,128,0,12,,,,,5,,,45,100
92096,note_off,,,,,0,0,14,,,,,7,,,67,100
92096,note_off,,,,,128,0,14,,,,,7,,,64,100
92096,note_off,,,,,128,0,15,,,,,7,,,45,100
92156,note_off,,,,,92,0,7,,,,,0,,,79,100
92160,note_on,,,,,4,0,7,,,,,0,,,78,100
92160,note_on,,,,,0,0,14,,,,,7,,,62,100
92160,note_on,,,,,64,0,14,,,,,7,,,66,100
92160,note_on,,,,,64,0,13,,,,,6,,,38,85
92160,note_on,,,,,64,0,15,,,,,7,,,38,100
92160,note_on,,,,,64,0,12,,,,,5,,,38,85
92224,note_off,,,,,64,0,7,,,,,0,,,78,100
92256,note_on,,,,,32,0,7,,,,,0,,,74,100
92288,note_off,,,,,128,0,12,,,,,5,,,38,100
92320,note_off,,,,,64,0,7,,,,,0,,,74,100
92352,note_on,,,,,32,0,7,,,,,0,,,76,100
92352,note_on,,,,,64,0,12,,,,,5,,,50,85
92416,note_off,,,,,256,0,15,,,,,7,,,38,100
92416,note_off,,,,,0,0,14,,,,,7,,,62,100
92416,note_off,,,,,256,0,13,,,,,6,,,38,100
92416,note_off,,,,,256,0,14,,,,,7,,,66,100
92416,note_off,,,,,64,0,7,,,,,0,,,76,100
92448,note_on,,,,,32,0,7,,,,,0,,,78,100
92480,note_off,,,,,128,0,12,,,,,5,,,50,100
92512,note_off,,,,,64,0,7,,,,,0,,,78,100
92544,note_on,,,,,64,0,12,,,,,5,,,55,85
92544,note_on,,,,,32,0,7,,,,,0,,,71,100
92636,note_off,,,,,92,0,7,,,,,0,,,71,100
92640,note_on,,,,,4,0,7,,,,,0,,,78,100
92672,note_off,,,,,128,0,12,,,,,5,,,55,100
92732,note_off,,,,,92,0,7,,,,,0,,,78,100
92736,note_on,,,,,64,0,12,,,,,5,,,43,85
92736,note_on,,,,,320,0,13,,,,,6,,,43,85
92736,note_on,,,,,320,0,15,,,,,7,,,43,100
92736,note_on,,,,,320,0,14,,,,,7,,,62,100
92736,note_on,,,,,0,0,14,,,,,7,,,66,100
92736,note_on,,,,,4,0,7,,,,,0,,,79,100
92800,note_off,,,,,64,0,7,,,,,0,,,79,100
92832,note_on,,,,,32,0,7,,,,,0,,,78,100
92864,note_off,,,,,128,0,13,,,,,6,,,43,100
92864,note_off,,,,,128,0,15,,,,,7,,,43,100
92864,note_off,,,,,128,0,12,,,,,5,,,43,100
92864,note_off,,,,,128,0,14,,,,,7,,,62,100
92864,note_off,,,,,0,0,14,,,,,7,,,66,100
92896,note_off,,,,,64,0,7,,,,,0,,,78,100
92928,note_on,,,,,32,0,7,,,,,0,,,76,100
92928,note_on,,,,,0,0,14,,,,,7,,,64,100
92928,note_on,,,,,64,0,12,,,,,5,,,37,85
92928,note_on,,,,,64,0,15,,,,,7,,,37,100
92928,note_on,,,,,64,0,14,,,,,7,,,55,100
92928,note_on,,,,,64,0,13,,,,,6,,,37,85
92992,note_off,,,,,64,0,7,,,,,0,,,76,100
93024,note_on,,,,,32,0,7,,,,,0,,,73,100
93056,note_off,,,,,128,0,12,,,,,5,,,37,100
93088,note_off,,,,,64,0,7,,,,,0,,,73,100
93120,note_on,,,,,64,0,12,,,,,5,,,49,85
93120,note_on,,,,,32,0,7,,,,,0,,,74,100
93184,note_off,,,,,0,0,14,,,,,7,,,64,100
93184,note_off,,,,,256,0,13,,,,,6,,,37,100
93184,note_off,,,,,256,0,14,,,,,7,,,55,100
93184,note_off,,,,,256,0,15,,,,,7,,,37,100
93184,note_off,,,,,64,0,7,,,,,0,,,74,100
93216,note_on,,,,,32,0,7,,,,,0,,,76,100
93248,note_off,,,,,128,0,12,,,,,5,,,49,100
93280,note_off,,,,,64,0,7,,,,,0,,,76,100
93312,note_on,,,,,32,0,7,,,,,0,,,70,100
93312,note_on,,,,,64,0,12,,,,,5,,,54,85
93404,note_off,,,,,92,0,7,,,,,0,,,70,100
93408,note_on,,,,,4,0,7,,,,,0,,,76,100
93440,note_off,,,,,128,0,12,,,,,5,,,54,100
93500,note_off,,,,,92,0,7,,,,,0,,,76,100
93504,note_on,,,,,320,0,15,,,,,7,,,42,100
93504,note_on,,,,,64,0,12,,,,,5,,,42,85
93504,note_on,,,,,320,0,13,,,,,6,,,42,85
93504,note_on,,,,,0,0,14,,,,,7,,,64,100
93504,note_on,,,,,320,0,14,,,,,7,,,58,100
93504,note_on,,,,,4,0,7,,,,,0,,,78,100
93568,note_off,,,,,64,0,7,,,,,0,,,78,100
93600,note_on,,,,,32,0,7,,,,,0,,,76,100
93632,note_off,,,,,128,0,14,,,,,7,,,58,100
93632,note_off,,,,,128,0,12,,,,,5,,,42,100
93632,note_off,,,,,128,0,15,,,,,7,,,42,100
93632,note_off,,,,,128,0,13,,,,,6,,,42,100
93632,note_off,,,,,0,0,14,,,,,7,,,64,100
93664,note_off,,,,,64,0,7,,,,,0,,,76,100
93696,note_on,,,,,64,0,13,,,,,6,,,35,85
93696,note_on,,,,,64,0,14,,,,,7,,,66,100
93696,note_on,,,,,0,0,14,,,,,7,,,62,100
93696,note_on,,,,,32,0,7,,,,,0,,,74,100
93696,note_on,,,,,64,0,15,,,,,7,,,47,100
93696,note_on,,,,,64,0,12,,,,,5,,,47,85
93788,note_off,,,,,92,0,7,,,,,0,,,74,100
93792,note_on,,,,,4,0,7,,,,,0,,,71,100
93824,note_off,,,,,128,0,12,,,,,5,,,47,100
93856,note_off,,,,,64,0,7,,,,,0,,,71,100
93888,note_on,,,,,32,0,7,,,,,0,,,83,100
93888,note_on,,,,,64,0,12,,,,,5,,,62,85
93952,note_off,,,,,256,0,14,,,,,7,,,66,100
93952,note_off,,,,,256,0,13,,,,,6,,,35,100
93952,note_off,,,,,256,0,15,,,,,7,,,47,100
93952,note_off,,,,,0,0,14,,,,,7,,,62,100
93980,note_off,,,,,92,0,7,,,,,0,,,83,100
93984,note_on,,,,,4,0,7,,,,,0,,,74,100
94016,note_off,,,,,128,0,12,,,,,5,,,62,100
94048,note_off,,,,,64,0,7,,,,,0,,,74,100
94080,note_on,,,,,64,0,12,,,,,5,,,59,85
94080,note_on,,,,,32,0,7,,,,,0,,,80,100
94172,note_off,,,,,92,0,7,,,,,0,,,80,100
94176,note_on,,,,,4,0,7,,,,,0,,,74,100
94208,note_off,,,,,128,0,12,,,,,5,,,59,100
94240,note_off,,,,,64,0,7,,,,,0,,,74,100
94272,note_on,,,,,320,0,14,,,,,7,,,74,100
94272,note_on,,,,,32,0,7,,,,,0,,,76,100
94272,note_on,,,,,64,0,12,,,,,5,,,56,85
94272,note_on,,,,,320,0,13,,,,,6,,,44,85
94272,note_on,,,,,0,0,14,,,,,7,,,76,100
94272,note_on,,,,,320,0,15,,,,,7,,,56,100
94364,note_off,,,,,92,0,7,,,,,0,,,76,100
94368,note_on,,,,,4,0,7,,,,,0,,,71,100
94400,note_off,,,,,128,0,12,,,,,5,,,56,100
94400,note_off,,,,,0,0,14,,,,,7,,,76,100
94400,note_off,,,,,128,0,14,,,,,7,,,74,100
94400,note_off,,,,,128,0,13,,,,,6,,,44,100
94400,note_off,,,,,128,0,15,,,,,7,,,56,100
94432,note_off,,,,,64,0,7,,,,,0,,,71,100
94464,note_on,,,,,64,0,14,,,,,7,,,72,100
94464,note_on,,,,,64,0,12,,,,,5,,,57,85
94464,note_on,,,,,32,0,7,,,,,0,,,72,100
94464,note_on,,,,,0,0,14,,,,,7,,,76,100
94464,note_on,,,,,64,0,15,,,,,7,,,57,100
94464,note_on,,,,,64,0,13,,,,,6,,,45,85
94556,note_off,,,,,92,0,7,,,,,0,,,72,100
94560,note_on,,,,,4,0,7,,,,,0,,,69,100
94592,note_off,,,,,128,0,12,,,,,5,,,57,100
94624,note_off,,,,,64,0,7,,,,,0,,,69,100
94656,note_on,,,,,32,0,7,,,,,0,,,81,100
94656,note_on,,,,,64,0,12,,,,,5,,,60,85
94720,note_off,,,,,256,0,13,,,,,6,,,45,100
94720,note_off,,,,,256,0,15,,,,,7,,,57,100
94720,note_off,,,,,256,0,14,,,,,7,,,72,100
94720,note_off,,,,,0,0,14,,,,,7,,,76,100
94748,note_off,,,,,92,0,7,,,,,0,,,81,100
94752,note_on,,,,,4,0,7,,,,,0,,,72,100
94784,note_off,,,,,128,0,12,,,,,5,,,60,100
94816,note_off,,,,,64,0,7,,,,,0,,,72,100
94848,note_on,,,,,64,0,12,,,,,5,,,57,85
94848,note_on,,,,,32,0,7,,,,,0,,,78,100
94940,note_off,,,,,92,0,7,,,,,0,,,78,100
94944,note_on,,,,,4,0,7,,,,,0,,,72,100
94976,note_off,,,,,128,0,12,,,,,5,,,57,100
95008,note_off,,,,,64,0,7,,,,,0,,,72,100
95040,note_on,,,,,320,0,15,,,,,7,,,54,100
95040,note_on,,,,,64,0,12,,,,,5,,,54,85
95040,note_on,,,,,320,0,14,,,,,7,,,74,100
95040,note_on,,,,,32,0,7,,,,,0,,,74,100
95040,note_on,,,,,0,0,14,,,,,7,,,72,100
95040,note_on,,,,,320,0,13,,,,,6,,,42,85
95132,note_off,,,,,92,0,7,,,,,0,,,74,100
95136,note_on,,,,,4,0,7,,,,,0,,,69,100
95168,note_off,,,,,128,0,12,,,,,5,,,54,100
95168,note_off,,,,,128,0,13,,,,,6,,,42,100
95168,note_off,,,,,128,0,15,,,,,7,,,54,100
95168,note_off,,,,,0,0,14,,,,,7,,,72,100
95168,note_off,,,,,128,0,14,,,,,7,,,74,100
95200,note_off,,,,,64,0,7,,,,,0,,,69,100
95232,note_on,,,,,64,0,13,,,,,6,,,43,85
95232,note_on,,,,,64,0,12,,,,,5,,,55,85
95232,note_on,,,,,64,0,15,,,,,7,,,55,100
95232,note_on,,,,,0,0,14,,,,,7,,,74,100
95232,note_on,,,,,64,0,14,,,,,7,,,71,100
95232,note_on,,,,,32,0,7,,,,,0,,,71,100
95324,note_off,,,,,92,0,7,,,,,0,,,71,100
95328,note_on,,,,,4,0,7,,,,,0,,,67,100
95360,note_off,,,,,128,0,12,,,,,5,,,55,100
95392,note_off,,,,,64,0,7,,,,,0,,,67,100
95424,note_on,,,,,32,0,7,,,,,0,,,79,100
95424,note_on,,,,,64,0,12,,,,,5,,,59,85
95488,note_off,,,,,0,0,14,,,,,7,,,74,100
95488,note_off,,,,,256,0,14,,,,,7,,,71,100
95488,note_off,,,,,256,0,13,,,,,6,,,43,100
95488,note_off,,,,,256,0,15,,,,,7,,,55,100
95516,note_off,,,,,92,0,7,,,,,0,,,79,100
95520,note_on,,,,,4,0,7,,,,,0,,,71,100
95552,note_off,,,,,128,0,12,,,,,5,,,59,100
95584,note_off,,,,,64,0,7,,,,,0,,,71,100
95616,note_on,,,,,64,0,12,,,,,5,,,55,85
95616,note_on,,,,,32,0,7,,,,,0,,,76,100
95708,note_off,,,,,92,0,7,,,,,0,,,76,100
95712,note_on,,,,,4,0,7,,,,,0,,,71,100
95744,note_off,,,,,128,0,12,,,,,5,,,55,100
95776,note_off,,,,,64,0,7,,,,,0,,,71,100
95808,note_on,,,,,320,0,14,,,,,7,,,71,100
95808,note_on,,,,,32,0,7,,,,,0,,,72,100
95808,note_on,,,,,64,0,12,,,,,5,,,52,85
95808,note_on,,,,,320,0,15,,,,,7,,,52,100
95808,note_on,,,,,320,0,13,,,,,6,,,40,85
95808,note_on,,,,,0,0,14,,,,,7,,,72,100
95900,note_off,,,,,92,0,7,,,,,0,,,72,100
95904,note_on,,,,,4,0,7,,,,,0,,,67,100
95936,note_off,,,,,128,0,14,,,,,7,,,71,100
95936,note_off,,,,,0,0,14,,,,,7,,,72,100
95936,note_off,,,,,128,0,13,,,,,6,,,40,100
95936,note_off,,,,,128,0,12,,,,,5,,,52,100
95936,note_off,,,,,128,0,15,,,,,7,,,52,100
95968,note_off,,,,,64,0,7,,,,,0,,,67,100
96000,note_on,,,,,64,0,13,,,,,6,,,42,85
96000,note_on,,,,,64,0,12,,,,,5,,,54,85
96000,note_on,,,,,0,0,14,,,,,7,,,72,100
96000,note_on,,,,,64,0,15,,,,,7,,,54,100
96000,note_on,,,,,64,0,14,,,,,7,,,69,100
96000,note_on,,,,,32,0,7,,,,,0,,,69,100
96092,note_off,,,,,92,0,7,,,,,0,,,69,100
96096,note_on,,,,,4,0,7,,,,,0,,,66,100
96128,note_off,,,,,128,0,12,,,,,5,,,54,100
96160,note_off,,,,,64,0,7,,,,,0,,,66,100
96192,note_on,,,,,64,0,12,,,,,5,,,57,85
96192,note_on,,,,,32,0,7,,,,,0,,,78,100
96256,note_off,,,,,256,0,13,,,,,6,,,42,100
96256,note_off,,,,,256,0,14,,,,,7,,,69,100
96256,note_off,,,,,0,0,14,,,,,7,,,72,100
96256,note_off,,,,,256,0,15,,,,,7,,,54,100
96284,note_off,,,,,92,0,7,,,,,0,,,78,100
96288,note_on,,,,,4,0,7,,,,,0,,,69,100
96320,note_off,,,,,128,0,12,,,,,5,,,57,100
96352,note_off,,,,,64,0,7,,,,,0,,,69,100
96384,note_on,,,,,32,0,7,,,,,0,,,75,100
96384,note_on,,,,,64,0,12,,,,,5,,,54,85
96476,note_off,,,,,92,0,7,,,,,0,,,75,100
96480,note_on,,,,,4,0,7,,,,,0,,,69,100
96512,note_off,,,,,128,0,12,,,,,5,,,54,100
96544,note_off,,,,,64,0,7,,,,,0,,,69,100
96576,note_on,,,,,64,0,12,,,,,5,,,51,85
96576,note_on,,,,,32,0,7,,,,,0,,,71,100
96576,note_on,,,,,320,0,13,,,,,6,,,39,85
96576,note_on,,,,,0,0,14,,,,,7,,,69,100
96576,note_on,,,,,320,0,14,,,,,7,,,71,100
96576,note_on,,,,,320,0,15,,,,,7,,,51,100
96668,note_off,,,,,92,0,7,,,,,0,,,71,100
96672,note_on,,,,,4,0,7,,,,,0,,,66,100
96704,note_off,,,,,128,0,15,,,,,7,,,51,100
96704,note_off,,,,,128,0,14,,,,,7,,,71,100
96704,note_off,,,,,128,0,12,,,,,5,,,51,100
96704,note_off,,,,,0,0,14,,,,,7,,,69,100
96704,note_off,,,,,128,0,13,,,,,6,,,39,100
96736,note_off,,,,,64,0,7,,,,,0,,,66,100
96768,note_on,,,,,32,0,7,,,,,0,,,67,100
96768,note_on,,,,,64,0,15,,,,,7,,,52,100
96768,note_on,,,,,64,0,13,,,,,6,,,40,85
96768,note_on,,,,,64,0,12,,,,,5,,,52,85
96768,note_on,,,,,0,0,14,,,,,7,,,71,100
96768,note_on,,,,,64,0,14,,,,,7,,,67,100
96832,note_off,,,,,64,0,7,,,,,0,,,67,100
96864,note_on,,,,,32,0,7,,,,,0,,,64,100
96896,note_off,,,,,128,0,12,,,,,5,,,52,100
96928,note_off,,,,,64,0,7,,,,,0,,,64,100
96960,note_on,,,,,64,0,12,,,,,5,,,52,85
96960,note_on,,,,,32,0,7,,,,,0,,,66,100
97024,note_off,,,,,256,0,13,,,,,6,,,40,100
97024,note_off,,,,,0,0,14,,,,,7,,,71,100
97024,note_off,,,,,64,0,7,,,,,0,,,66,100
97024,note_off,,,,,256,0,14,,,,,7,,,67,100
97024,note_off,,,,,256,0,15,,,,,7,,,52,100
97056,note_on,,,,,32,0,7,,,,,0,,,67,100
97088,note_off,,,,,128,0,12,,,,,5,,,52,100
97120,note_off,,,,,64,0,7,,,,,0,,,67,100
97152,note_on,,,,,32,0,7,,,,,0,,,61,100
97152,note_on,,,,,64,0,12,,,,,5,,,57,85
97244,note_off,,,,,92,0,7,,,,,0,,,61,100
97248,note_on,,,,,4,0,7,,,,,0,,,67,100
97280,note_off,,,,,128,0,12,,,,,5,,,57,100
97340,note_off,,,,,92,0,7,,,,,0,,,67,100
97344,note_on,,,,,4,0,7,,,,,0,,,69,100
97344,note_on,,,,,320,0,15,,,,,7,,,45,100
97344,note_on,,,,,320,0,13,,,,,6,,,33,85
97344,note_on,,,,,320,0,14,,,,,7,,,64,100
97344,note_on,,,,,0,0,14,,,,,7,,,67,100
97344,note_on,,,,,64,0,12,,,,,5,,,45,85
97408,note_off,,,,,64,0,7,,,,,0,,,69,100
97440,note_on,,,,,32,0,7,,,,,0,,,67,100
97472,note_off,,,,,128,0,13,,,,,6,,,33,100
97472,note_off,,,,,128,0,15,,,,,7,,,45,100
97472,note_off,,,,,128,0,14,,,,,7,,,64,100
97472,note_off,,,,,0,0,14,,,,,7,,,67,100
97472,note_off,,,,,128,0,12,,,,,5,,,45,100
97504,note_off,,,,,64,0,7,,,,,0,,,67,100
97536,note_on,,,,,32,0,7,,,,,0,,,66,100
97536,note_on,,,,,64,0,15,,,,,7,,,38,100
97536,note_on,,,,,64,0,12,,,,,5,,,38,85
97536,note_on,,,,,64,0,13,,,,,6,,,38,85
97536,note_on,,,,,64,0,14,,,,,7,,,57,100
97536,note_on,,,,,0,0,14,,,,,7,,,66,100
97600,note_off,,,,,64,0,7,,,,,0,,,66,100
97632,note_on,,,,,32,0,7,,,,,0,,,62,100
97664,note_off,,,,,128,0,12,,,,,5,,,38,100
97696,note_off,,,,,64,0,7,,,,,0,,,62,100
97728,note_on,,,,,64,0,12,,,,,5,,,50,85
97728,note_on,,,,,32,0,7,,,,,0,,,64,100
97792,note_off,,,,,256,0,15,,,,,7,,,38,100
97792,note_off,,,,,64,0,7,,,,,0,,,64,100
97792,note_off,,,,,256,0,13,,,,,6,,,38,100
97792,note_off,,,,,0,0,14,,,,,7,,,66,100
97792,note_off,,,,,256,0,14,,,,,7,,,57,100
97824,note_on,,,,,32,0,7,,,,,0,,,66,100
97856,note_off,,,,,128,0,12,,,,,5,,,50,100
97888,note_off,,,,,64,0,7,,,,,0,,,66,100
97920,note_on,,,,,32,0,7,,,,,0,,,59,100
97920,note_on,,,,,64,0,12,,,,,5,,,55,85
98012,note_off,,,,,92,0,7,,,,,0,,,59,100
98016,note_on,,,,,4,0,7,,,,,0,,,66,100
98048,note_off,,,,,128,0,12,,,,,5,,,55,100
98108,note_off,,,,,92,0,7,,,,,0,,,66,100
98112,note_on,,,,,320,0,14,,,,,7,,,62,100
98112,note_on,,,,,0,0,14,,,,,7,,,66,100
98112,note_on,,,,,4,0,7,,,,,0,,,67,100
98112,note_on,,,,,320,0,13,,,,,6,,,43,85
98112,note_on,,,,,320,0,15,,,,,7,,,43,100
98112,note_on,,,,,64,0,12,,,,,5,,,43,85
98176,note_off,,,,,64,0,7,,,,,0,,,67,100
98208,note_on,,,,,32,0,7,,,,,0,,,66,100
98240,note_off,,,,,128,0,15,,,,,7,,,43,100
98240,note_off,,,,,128,0,14,,,,,7,,,62,100
98240,note_off,,,,,0,0,14,,,,,7,,,66,100
98240,note_off,,,,,128,0,13,,,,,6,,,43,100
98240,note_off,,,,,128,0,12,,,,,5,,,43,100
98272,note_off,,,,,64,0,7,,,,,0,,,66,100
98304,note_on,,,,,64,0,12,,,,,5,,,37,85
98304,note_on,,,,,32,0,7,,,,,0,,,64,100
98304,note_on,,,,,64,0,15,,,,,7,,,37,100
98304,note_on,,,,,64,0,14,,,,,7,,,55,100
98304,note_on,,,,,0,0,14,,,,,7,,,64,100
98304,note_on,,,,,64,0,13,,,,,6,,,37,85
98368,note_off,,,,,64,0,7,,,,,0,,,64,100
98400,note_on,,,,,32,0,7,,,,,0,,,61,100
98432,note_off,,,,,128,0,12,,,,,5,,,37,100
98464,note_off,,,,,64,0,7,,,,,0,,,61,100
98496,note_on,,,,,32,0,7,,,,,0,,,62,100
98496,note_on,,,,,64,0,12,,,,,5,,,49,85
98560,note_off,,,,,256,0,13,,,,,6,,,37,100
98560,note_off,,,,,256,0,15,,,,,7,,,37,100
98560,note_off,,,,,0,0,14,,,,,7,,,64,100
98560,note_off,,,,,256,0,14,,,,,7,,,55,100
98560,note_off,,,,,64,0,7,,,,,0,,,62,100
98592,note_on,,,,,32,0,7,,,,,0,,,64,100
98624,note_off,,,,,128,0,12,,,,,5,,,49,100
98656,note_off,,,,,64,0,7,,,,,0,,,64,100
98688,note_on,,,,,64,0,12,,,,,5,,,54,85
98688,note_on,,,,,32,0,7,,,,,0,,,58,100
98780,note_off,,,,,92,0,7,,,,,0,,,58,100
98784,note_on,,,,,4,0,7,,,,,0,,,64,100
98816,note_off,,,,,128,0,12,,,,,5,,,54,100
98876,note_off,,,,,92,0,7,,,,,0,,,64,100
98880,note_on,,,,,4,0,7,,,,,0,,,66,100
98880,note_on,,,,,320,0,13,,,,,6,,,34,85
98880,note_on,,,,,320,0,15,,,,,7,,,46,100
98880,note_on,,,,,64,0,12,,,,,5,,,46,85
98880,note_on,,,,,0,0,14,,,,,7,,,66,100
98880,note_on,,,,,320,0,14,,,,,7,,,64,100
98944,note_off,,,,,64,0,7,,,,,0,,,66,100
98976,note_on,,,,,32,0,7,,,,,0,,,64,100
99008,note_off,,,,,128,0,15,,,,,7,,,46,100
99008,note_off,,,,,128,0,12,,,,,5,,,46,100
99008,note_off,,,,,128,0,14,,,,,7,,,64,100
99008,note_off,,,,,0,0,14,,,,,7,,,66,100
99008,note_off,,,,,128,0,13,,,,,6,,,34,100
99040,note_off,,,,,64,0,7,,,,,0,,,64,100
99072,note_on,,,,,64,0,15,,,,,7,,,47,100
99072,note_on,,,,,64,0,12,,,,,5,,,47,85
99072,note_on,,,,,64,0,14,,,,,7,,,62,100
99072,note_on,,,,,32,0,7,,,,,0,,,62,100
99072,note_on,,,,,0,0,14,,,,,7,,,66,100
99072,note_on,,,,,64,0,13,,,,,6,,,35,85
99136,note_off,,,,,64,0,7,,,,,0,,,62,100
99168,note_on,,,,,32,0,7,,,,,0,,,59,100
99200,note_off,,,,,128,0,12,,,,,5,,,47,100
99232,note_off,,,,,64,0,7,,,,,0,,,59,100
99264,note_on,,,,,64,0,12,,,,,5,,,59,85
99264,note_on,,,,,32,0,7,,,,,0,,,62,100
99328,note_off,,,,,64,0,7,,,,,0,,,62,100
99328,note_off,,,,,64,0,12,,,,,5,,,59,100
99328,note_off,,,,,256,0,14,,,,,7,,,62,100
99328,note_off,,,,,256,0,15,,,,,7,,,47,100
99328,note_off,,,,,0,0,14,,,,,7,,,66,100
99328,note_off,,,,,256,0,13,,,,,6,,,35,100
99360,note_on,,,,,32,0,7,,,,,0,,,66,100
99360,note_on,,,,,32,0,12,,,,,5,,,61,85
99424,note_off,,,,,64,0,7,,,,,0,,,66,100
99424,note_off,,,,,64,0,12,,,,,5,,,61,100
99456,note_on,,,,,32,0,12,,,,,5,,,62,85
99456,note_on,,,,,32,0,7,,,,,0,,,71,100
99520,note_off,,,,,64,0,7,,,,,0,,,71,100
99552,note_on,,,,,32,0,7,,,,,0,,,69,100
99584,note_off,,,,,128,0,12,,,,,5,,,62,100
99616,note_off,,,,,64,0,7,,,,,0,,,69,100
99648,note_on,,,,,320,0,13,,,,,6,,,47,85
99648,note_on,,,,,32,0,7,,,,,0,,,67,100
99648,note_on,,,,,0,0,14,,,,,7,,,66,100
99648,note_on,,,,,320,0,15,,,,,7,,,59,100
99648,note_on,,,,,64,0,12,,,,,5,,,59,85
99648,note_on,,,,,320,0,14,,,,,7,,,74,100
99712,note_off,,,,,64,0,7,,,,,0,,,67,100
99744,note_on,,,,,32,0,7,,,,,0,,,66,100
99776,note_off,,,,,128,0,15,,,,,7,,,59,100
99776,note_off,,,,,0,0,14,,,,,7,,,66,100
99776,note_off,,,,,128,0,12,,,,,5,,,59,100
99776,note_off,,,,,128,0,13,,,,,6,,,47,100
99776,note_off,,,,,128,0,14,,,,,7,,,74,100
99808,note_off,,,,,64,0,7,,,,,0,,,66,100
99840,note_on,,,,,64,0,15,,,,,7,,,52,100
99840,note_on,,,,,64,0,13,,,,,6,,,40,85
99840,note_on,,,,,64,0,12,,,,,5,,,52,85
99840,note_on,,,,,32,0,7,,,,,0,,,67,100
99840,note_on,,,,,64,0,14,,,,,7,,,67,100
99840,note_on,,,,,0,0,14,,,,,7,,,71,100
99932,note_off,,,,,92,0,7,,,,,0,,,67,100
99936,note_on,,,,,4,0,7,,,,,0,,,64,100
99968,note_off,,,,,128,0,12,,,,,5,,,52,100
100028,note_off,,,,,92,0,7,,,,,0,,,64,100
100032,note_on,,,,,64,0,12,,,,,5,,,52,85
100032,note_on,,,,,4,0,7,,,,,0,,,67,100
100096,note_off,,,,,256,0,15,,,,,7,,,52,100
100096,note_off,,,,,64,0,12,,,,,5,,,52,100
100096,note_off,,,,,256,0,14,,,,,7,,,67,100
100096,note_off,,,,,64,0,7,,,,,0,,,67,100
100096,note_off,,,,,0,0,14,,,,,7,,,71,100
100096,note_off,,,,,256,0,13,,,,,6,,,40,100
100128,note_on,,,,,32,0,7,,,,,0,,,71,100
100128,note_on,,,,,32,0,12,,,,,5,,,54,85
100192,note_off,,,,,64,0,7,,,,,0,,,71,100
100192,note_off,,,,,64,0,12,,,,,5,,,54,100
100224,note_on,,,,,32,0,7,,,,,0,,,76,100
100224,note_on,,,,,32,0,12,,,,,5,,,55,85
100288,note_off,,,,,64,0,7,,,,,0,,,76,100
100320,note_on,,,,,32,0,7,,,,,0,,,74,100
100352,note_off,,,,,128,0,12,,,,,5,,,55,100
100384,note_off,,,,,64,0,7,,,,,0,,,74,100
100416,note_on,,,,,64,0,12,,,,,5,,,52,85
100416,note_on,,,,,32,0,7,,,,,0,,,73,100
100416,note_on,,,,,320,0,13,,,,,6,,,40,85
100416,note_on,,,,,320,0,14,,,,,7,,,67,100
100416,note_on,,,,,320,0,15,,,,,7,,,52,100
100416,note_on,,,,,0,0,14,,,,,7,,,71,100
100480,note_off,,,,,64,0,7,,,,,0,,,73,100
100512,note_on,,,,,32,0,7,,,,,0,,,71,100
100544,note_off,,,,,128,0,15,,,,,7,,,52,100
100544,note_off,,,,,128,0,13,,,,,6,,,40,100
100544,note_off,,,,,128,0,14,,,,,7,,,67,100
100544,note_off,,,,,0,0,14,,,,,7,,,71,100
100544,note_off,,,,,128,0,12,,,,,5,,,52,100
100576,note_off,,,,,64,0,7,,,,,0,,,71,100
100608,note_on,,,,,64,0,15,,,,,7,,,46,100
100608,note_on,,,,,64,0,14,,,,,7,,,64,100
100608,note_on,,,,,0,0,14,,,,,7,,,67,100
100608,note_on,,,,,64,0,12,,,,,5,,,46,85
100608,note_on,,,,,32,0,7,,,,,0,,,66,100
100608,note_on,,,,,64,0,13,,,,,6,,,34,85
100700,note_off,,,,,92,0,7,,,,,0,,,66,100
100704,note_on,,,,,4,0,7,,,,,0,,,70,100
100796,note_off,,,,,92,0,7,,,,,0,,,70,100
100800,note_on,,,,,4,0,7,,,,,0,,,76,100
100864,note_off,,,,,64,0,7,,,,,0,,,76,100
100864,note_off,,,,,0,0,14,,,,,7,,,67,100
100864,note_off,,,,,256,0,14,,,,,7,,,64,100
100896,note_on,,,,,32,0,7,,,,,0,,,79,100
100960,note_off,,,,,64,0,7,,,,,0,,,79,100
100992,note_on,,,,,128,0,14,,,,,7,,,64,100
100992,note_on,,,,,32,0,7,,,,,0,,,78,100
100992,note_off,,,,,384,0,13,,,,,6,,,34,100
100992,note_off,,,,,384,0,15,,,,,7,,,46,100
100992,note_off,,,,,384,0,12,,,,,5,,,46,100
100992,note_on,,,,,0,0,14,,,,,7,,,66,100
101056,note_off,,,,,64,0,7,,,,,0,,,78,100
101088,note_on,,,,,32,0,7,,,,,0,,,76,100
101120,note_off,,,,,128,0,14,,,,,7,,,64,100
101120,note_off,,,,,0,0,14,,,,,7,,,66,100
101152,note_off,,,,,64,0,7,,,,,0,,,76,100
101184,note_on,,,,,192,0,13,,,,,6,,,34,85
101184,note_on,,,,,192,0,12,,,,,5,,,46,85
101184,note_on,,,,,192,0,15,,,,,7,,,46,100
101184,note_on,,,,,64,0,14,,,,,7,,,61,100
101184,note_on,,,,,0,0,14,,,,,7,,,64,100
101184,note_on,,,,,32,0,7,,,,,0,,,74,100
101248,note_off,,,,,64,0,7,,,,,0,,,74,100
101280,note_on,,,,,32,0,7,,,,,0,,,73,100
101312,note_off,,,,,0,0,14,,,,,7,,,64,100
101312,note_off,,,,,128,0,14,,,,,7,,,61,100
101312,note_off,,,,,128,0,15,,,,,7,,,46,100
101312,note_off,,,,,128,0,12,,,,,5,,,46,100
101312,note_off,,,,,128,0,13,,,,,6,,,34,100
101344,note_off,,,,,64,0,7,,,,,0,,,73,100
101376,note_on,,,,,32,0,7,,,,,0,,,74,100
101376,note_on,,,,,64,0,12,,,,,5,,,47,85
101376,note_on,,,,,64,0,13,,,,,6,,,35,85
101376,note_on,,,,,64,0,14,,,,,7,,,66,100
101376,note_on,,,,,0,0,14,,,,,7,,,62,100
101376,note_on,,,,,64,0,15,,,,,7,,,47,100
101468,note_off,,,,,92,0,7,,,,,0,,,74,100
101472,note_on,,,,,4,0,7,,,,,0,,,71,100
101504,note_off,,,,,128,0,14,,,,,7,,,66,100
101504,note_off,,,,,0,0,14,,,,,7,,,62,100
101504,note_off,,,,,128,0,12,,,,,5,,,47,100
101504,note_off,,,,,128,0,15,,,,,7,,,47,100
101504,note_off,,,,,128,0,13,,,,,6,,,35,100
101564,note_off,,,,,92,0,7,,,,,0,,,71,100
101568,note_on,,,,,64,0,14,,,,,7,,,64,100
101568,note_on,,,,,64,0,12,,,,,5,,,49,85
101568,note_on,,,,,64,0,15,,,,,7,,,49,100
101568,note_on,,,,,4,0,7,,,,,0,,,74,100
101568,note_on,,,,,64,0,13,,,,,6,,,37,85
101632,note_off,,,,,64,0,7,,,,,0,,,74,100
101664,note_on,,,,,32,0,7,,,,,0,,,78,100
101696,note_off,,,,,128,0,12,,,,,5,,,49,100
101696,note_off,,,,,128,0,13,,,,,6,,,37,100
101696,note_off,,,,,128,0,14,,,,,7,,,64,100
101696,note_off,,,,,128,0,15,,,,,7,,,49,100
101728,note_off,,,,,64,0,7,,,,,0,,,78,100
101760,note_on,,,,,64,0,12,,,,,5,,,50,85
101760,note_on,,,,,32,0,7,,,,,0,,,83,100
101760,note_on,,,,,64,0,14,,,,,7,,,66,100
101760,note_on,,,,,64,0,13,,,,,6,,,38,85
101760,note_on,,,,,64,0,15,,,,,7,,,50,100
101824,note_off,,,,,64,0,7,,,,,0,,,83,100
101856,note_on,,,,,32,0,7,,,,,0,,,81,100
101888,note_off,,,,,128,0,12,,,,,5,,,50,100
101888,note_off,,,,,128,0,13,,,,,6,,,38,100
101888,note_off,,,,,128,0,14,,,,,7,,,66,100
101888,note_off,,,,,128,0,15,,,,,7,,,50,100
101920,note_off,,,,,64,0,7,,,,,0,,,81,100
101952,note_on,,,,,32,0,7,,,,,0,,,79,100
101952,note_on,,,,,64,0,13,,,,,6,,,35,85
101952,note_on,,,,,64,0,14,,,,,7,,,62,100
101952,note_on,,,,,64,0,15,,,,,7,,,47,100
101952,note_on,,,,,64,0,12,,,,,5,,,47,85
101952,note_on,,,,,0,0,14,,,,,7,,,66,100
102016,note_off,,,,,64,0,7,,,,,0,,,79,100
102048,note_on,,,,,32,0,7,,,,,0,,,78,100
102080,note_off,,,,,128,0,15,,,,,7,,,47,100
102080,note_off,,,,,0,0,14,,,,,7,,,66,100
102080,note_off,,,,,128,0,12,,,,,5,,,47,100
102080,note_off,,,,,128,0,13,,,,,6,,,35,100
102080,note_off,,,,,128,0,14,,,,,7,,,62,100
102112,note_off,,,,,64,0,7,,,,,0,,,78,100
102144,note_on,,,,,32,0,7,,,,,0,,,79,100
102144,note_on,,,,,0,0,14,,,,,7,,,71,100
102144,note_on,,,,,64,0,13,,,,,6,,,40,85
102144,note_on,,,,,64,0,12,,,,,5,,,52,85
102144,note_on,,,,,64,0,14,,,,,7,,,67,100
102144,note_on,,,,,64,0,15,,,,,7,,,52,100
102208,note_off,,,,,64,0,7,,,,,0,,,79,100
102240,note_on,,,,,32,0,7,,,,,0,,,76,100
102304,note_off,,,,,64,0,7,,,,,0,,,76,100
102336,note_on,,,,,32,0,7,,,,,0,,,71,100
102400,note_off,,,,,256,0,15,,,,,7,,,52,100
102400,note_off,,,,,256,0,13,,,,,6,,,40,100
102400,note_off,,,,,256,0,14,,,,,7,,,67,100
102400,note_off,,,,,0,0,14,,,,,7,,,71,100
102400,note_off,,,,,256,0,12,,,,,5,,,52,100
102400,note_off,,,,,64,0,7,,,,,0,,,71,100
102432,note_on,,,,,32,0,7,,,,,0,,,76,100
102496,note_off,,,,,64,0,7,,,,,0,,,76,100
102528,note_on,,,,,128,0,13,,,,,6,,,38,85
102528,note_on,,,,,0,0,14,,,,,7,,,68,100
102528,note_on,,,,,32,0,7,,,,,0,,,80,100
102528,note_on,,,,,128,0,14,,,,,7,,,64,100
102528,note_on,,,,,128,0,15,,,,,7,,,50,100
102528,note_on,,,,,128,0,12,,,,,5,,,50,85
102620,note_off,,,,,92,0,7,,,,,0,,,80,100
102624,note_on,,,,,4,0,7,,,,,0,,,81,100
102716,note_off,,,,,92,0,7,,,,,0,,,81,100
102720,note_on,,,,,4,0,7,,,,,0,,,78,100
102784,note_off,,,,,0,0,14,,,,,7,,,68,100
102784,note_off,,,,,256,0,14,,,,,7,,,64,100
102784,note_off,,,,,64,0,7,,,,,0,,,78,100
102784,note_off,,,,,256,0,13,,,,,6,,,38,100
102784,note_off,,,,,256,0,12,,,,,5,,,50,100
102784,note_off,,,,,256,0,15,,,,,7,,,50,100
102816,note_on,,,,,32,0,7,,,,,0,,,80,100
102880,note_off,,,,,64,0,7,,,,,0,,,80,100
102912,note_on,,,,,128,0,14,,,,,7,,,69,100
102912,note_on,,,,,0,0,14,,,,,7,,,64,100
102912,note_on,,,,,128,0,15,,,,,7,,,49,100
102912,note_on,,,,,32,0,7,,,,,0,,,81,100
102912,note_on,,,,,128,0,12,,,,,5,,,49,85
102912,note_on,,,,,128,0,13,,,,,6,,,37,85
102976,note_off,,,,,64,0,7,,,,,0,,,81,100
103008,note_on,,,,,32,0,7,,,,,0,,,76,100
103072,note_off,,,,,64,0,7,,,,,0,,,76,100
103104,note_on,,,,,32,0,7,,,,,0,,,73,100
103168,note_off,,,,,64,0,7,,,,,0,,,73,100
103168,note_off,,,,,256,0,14,,,,,7,,,69,100
103168,note_off,,,,,0,0,14,,,,,7,,,64,100
103168,note_off,,,,,256,0,13,,,,,6,,,37,100
103168,note_off,,,,,256,0,12,,,,,5,,,49,100
103168,note_off,,,,,256,0,15,,,,,7,,,49,100
103200,note_on,,,,,32,0,7,,,,,0,,,76,100
103264,note_off,,,,,64,0,7,,,,,0,,,76,100
103296,note_on,,,,,128,0,14,,,,,7,,,70,100
103296,note_on,,,,,32,0,7,,,,,0,,,82,100
103296,note_on,,,,,128,0,15,,,,,7,,,54,100
103296,note_on,,,,,0,0,14,,,,,7,,,73,100
103296,note_on,,,,,128,0,13,,,,,6,,,42,85
103296,note_on,,,,,128,0,12,,,,,5,,,54,85
103388,note_off,,,,,92,0,7,,,,,0,,,82,100
103392,note_on,,,,,4,0,7,,,,,0,,,83,100
103424,note_off,,,,,128,0,13,,,,,6,,,42,100
103424,note_off,,,,,128,0,14,,,,,7,,,70,100
103424,note_off,,,,,0,0,14,,,,,7,,,73,100
103424,note_off,,,,,128,0,15,,,,,7,,,54,100
103424,note_off,,,,,128,0,12,,,,,5,,,54,100
103484,note_off,,,,,92,0,7,,,,,0,,,83,100
103488,note_on,,,,,0,0,14,,,,,7,,,71,100
103488,note_on,,,,,64,0,14,,,,,7,,,68,100
103488,note_on,,,,,4,0,7,,,,,0,,,80,100
103488,note_on,,,,,64,0,13,,,,,6,,,40,85
103488,note_on,,,,,64,0,15,,,,,7,,,52,100
103488,note_on,,,,,64,0,12,,,,,5,,,52,85
103552,note_off,,,,,64,0,7,,,,,0,,,80,100
103584,note_on,,,,,32,0,7,,,,,0,,,82,100
103616,note_off,,,,,128,0,15,,,,,7,,,52,100
103616,note_off,,,,,128,0,12,,,,,5,,,52,100
103616,note_off,,,,,128,0,14,,,,,7,,,68,100
103616,note_off,,,,,0,0,14,,,,,7,,,71,100
103616,note_off,,,,,128,0,13,,,,,6,,,40,100
103648,note_off,,,,,64,0,7,,,,,0,,,82,100
103676,program_change,,,,,28,0,7,,,,,0,48,,,
103680,note_on,,,,,4,0,7,,,,,0,,,83,100
103680,note_on,,,,,64,0,12,,,,,5,,,50,85
103680,note_on,,,,,14336,0,9,,,,,2,,,74,100
103680,note_on,,,,,64,0,15,,,,,7,,,50,100
103680,note_on,,,,,0,0,14,,,,,7,,,66,100
103680,note_on,,,,,64,0,14,,,,,7,,,71,100
103680,note_on,,,,,64,0,13,,,,,6,,,38,85
103744,note_off,,,,,64,0,7,,,,,0,,,83,100
103776,note_on,,,,,32,0,7,,,,,0,,,78,100
103808,note_off,,,,,128,0,12,,,,,5,,,50,100
103808,note_off,,,,,128,0,15,,,,,7,,,50,100
103808,note_off,,,,,128,0,13,,,,,6,,,38,100
103808,note_off,,,,,0,0,14,,,,,7,,,66,100
103808,note_off,,,,,128,0,14,,,,,7,,,71,100
103840,note_off,,,,,64,0,7,,,,,0,,,78,100
103872,note_on,,,,,14528,0,11,,,,,4,,,66,100
103872,note_on,,,,,32,0,7,,,,,0,,,74,100
103872,note_on,,,,,64,0,12,,,,,5,,,47,85
103872,note_on,,,,,64,0,13,,,,,6,,,35,85
103872,note_on,,,,,0,0,14,,,,,7,,,62,100
103872,note_on,,,,,64,0,14,,,,,7,,,68,100
103872,note_on,,,,,64,0,15,,,,,7,,,47,100
103936,note_off,,,,,64,0,7,,,,,0,,,74,100
103968,note_on,,,,,32,0,7,,,,,0,,,83,100
104000,note_off,,,,,0,0,14,,,,,7,,,62,100
104000,note_off,,,,,128,0,15,,,,,7,,,47,100
104000,note_off,,,,,128,0,13,,,,,6,,,35,100
104000,note_off,,,,,128,0,11,,,,,4,,,66,100
104000,note_off,,,,,128,0,12,,,,,5,,,47,100
104000,note_off,,,,,128,0,14,,,,,7,,,68,100
104032,note_off,,,,,64,0,7,,,,,0,,,83,100
104064,note_on,,,,,64,0,11,,,,,4,,,62,100
104064,note_on,,,,,14720,0,8,,,,,1,,,78,100
104064,note_on,,,,,32,0,7,,,,,0,,,83,100
104128,note_off,,,,,64,0,7,,,,,0,,,83,100
104160,note_on,,,,,32,0,7,,,,,0,,,78,100
104192,note_off,,,,,128,0,11,,,,,4,,,62,100
104224,note_off,,,,,64,0,7,,,,,0,,,78,100
104256,note_on,,,,,64,0,11,,,,,4,,,62,100
104256,note_on,,,,,256,0,13,,,,,6,,,47,100
104256,note_on,,,,,256,0,12,,,,,5,,,59,100
104256,note_on,,,,,256,0,15,,,,,7,,,59,100
104256,note_on,,,,,0,0,14,,,,,7,,,74,100
104256,note_on,,,,,256,0,14,,,,,7,,,66,100
104256,note_on,,,,,32,0,7,,,,,0,,,74,100
104256,note_on,,,,,0,0,11,,,,,4,,,59,100
104320,note_off,,,,,256,0,8,,,,,1,,,78,100
104320,note_off,,,,,64,0,7,,,,,0,,,74,100
104352,note_on,,,,,32,0,7,,,,,0,,,83,100
104384,note_off,,,,,128,0,11,,,,,4,,,62,100
104384,note_off,,,,,128,0,15,,,,,7,,,59,100
104384,note_off,,,,,0,0,14,,,,,7,,,74,100
104384,note_off,,,,,128,0,12,,,,,5,,,59,100
104384,note_off,,,,,128,0,14,,,,,7,,,66,100
104384,note_off,,,,,128,0,13,,,,,6,,,47,100
104384,note_off,,,,,0,0,11,,,,,4,,,59,100
104416,note_off,,,,,64,0,7,,,,,0,,,83,100
104448,note_on,,,,,64,0,12,,,,,5,,,52,100
104448,note_on,,,,,64,0,13,,,,,6,,,40,100
104448,note_on,,,,,64,0,14,,,,,7,,,71,100
104448,note_on,,,,,64,0,15,,,,,7,,,52,100
104448,note_on,,,,,32,0,7,,,,,0,,,83,100
104448,note_on,,,,,0,0,14,,,,,7,,,74,100
104448,note_on,,,,,128,0,8,,,,,1,,,79,100
104448,note_on,,,,,15104,0,10,,,,,3,,,76,100
104448,note_on,,,,,64,0,11,,,,,4,,,67,100
104512,note_off,,,,,64,0,10,,,,,3,,,76,100
104544,note_on,,,,,32,0,10,,,,,3,,,71,100
104576,note_off,,,,,128,0,7,,,,,0,,,83,100
104576,note_off,,,,,128,0,11,,,,,4,,,67,100
104608,note_off,,,,,64,0,10,,,,,3,,,71,100
104640,note_on,,,,,32,0,10,,,,,3,,,67,100
104640,note_on,,,,,64,0,11,,,,,4,,,64,100
104640,note_on,,,,,0,0,11,,,,,4,,,71,100
104640,note_on,,,,,64,0,7,,,,,0,,,76,100
104704,note_off,,,,,0,0,14,,,,,7,,,74,100
104704,note_off,,,,,256,0,15,,,,,7,,,52,100
104704,note_off,,,,,64,0,10,,,,,3,,,67,100
104704,note_off,,,,,256,0,14,,,,,7,,,71,100
104704,note_off,,,,,256,0,12,,,,,5,,,52,100
104704,note_off,,,,,256,0,13,,,,,6,,,40,100
104736,note_on,,,,,32,0,10,,,,,3,,,76,100
104768,note_off,,,,,0,0,11,,,,,4,,,71,100
104768,note_off,,,,,128,0,11,,,,,4,,,64,100
104768,note_off,,,,,128,0,7,,,,,0,,,76,100
104800,note_off,,,,,64,0,10,,,,,3,,,76,100
104832,note_on,,,,,64,0,7,,,,,0,,,79,100
104832,note_on,,,,,32,0,10,,,,,3,,,76,100
104832,note_on,,,,,64,0,11,,,,,4,,,67,100
104896,note_off,,,,,64,0,10,,,,,3,,,76,100
104928,note_on,,,,,32,0,10,,,,,3,,,71,100
104960,note_off,,,,,128,0,7,,,,,0,,,79,100
104960,note_off,,,,,128,0,11,,,,,4,,,67,100
104992,note_off,,,,,64,0,10,,,,,3,,,71,100
105024,note_on,,,,,320,0,12,,,,,5,,,52,100
105024,note_on,,,,,320,0,13,,,,,6,,,40,100
105024,note_on,,,,,320,0,15,,,,,7,,,52,100
105024,note_on,,,,,64,0,7,,,,,0,,,83,100
105024,note_on,,,,,0,0,14,,,,,7,,,74,100
105024,note_on,,,,,64,0,11,,,,,4,,,64,100
105024,note_on,,,,,320,0,14,,,,,7,,,71,100
105024,note_on,,,,,32,0,10,,,,,3,,,67,100
105060,note_off,,,,,1380,0,9,,,,,2,,,74,100
105088,note_off,,,,,64,0,10,,,,,3,,,67,100
105120,note_on,,,,,32,0,10,,,,,3,,,76,100
105152,note_off,,,,,128,0,7,,,,,0,,,83,100
105152,note_off,,,,,128,0,14,,,,,7,,,71,100
105152,note_off,,,,,128,0,12,,,,,5,,,52,100
105152,note_off,,,,,128,0,13,,,,,6,,,40,100
105152,note_off,,,,,0,0,14,,,,,7,,,74,100
105152,note_off,,,,,128,0,11,,,,,4,,,64,100
105152,note_off,,,,,128,0,15,,,,,7,,,52,100
105184,note_off,,,,,64,0,10,,,,,3,,,76,100
105216,note_on,,,,,64,0,14,,,,,7,,,76,100
105216,note_on,,,,,64,0,13,,,,,6,,,45,100
105216,note_on,,,,,156,0,9,,,,,2,,,73,100
105216,note_on,,,,,64,0,15,,,,,7,,,57,100
105216,note_on,,,,,0,0,14,,,,,7,,,67,100
105216,note_on,,,,,64,0,7,,,,,0,,,81,100
105216,note_on,,,,,32,0,10,,,,,3,,,76,100
105216,note_on,,,,,64,0,11,,,,,4,,,61,100
105216,note_on,,,,,64,0,12,,,,,5,,,57,100
105280,note_off,,,,,64,0,7,,,,,0,,,81,100
105312,note_on,,,,,32,0,7,,,,,0,,,76,100
105344,note_off,,,,,128,0,12,,,,,5,,,57,100
105344,note_off,,,,,128,0,10,,,,,3,,,76,100
105344,note_off,,,,,0,0,14,,,,,7,,,67,100
105344,note_off,,,,,128,0,14,,,,,7,,,76,100
105344,note_off,,,,,128,0,15,,,,,7,,,57,100
105344,note_off,,,,,128,0,13,,,,,6,,,45,100
105344,note_off,,,,,128,0,11,,,,,4,,,61,100
105376,note_off,,,,,64,0,7,,,,,0,,,76,100
105408,note_on,,,,,64,0,10,,,,,3,,,69,100
105408,note_on,,,,,64,0,12,,,,,5,,,45,100
105408,note_on,,,,,0,0,14,,,,,7,,,67,100
105408,note_on,,,,,64,0,14,,,,,7,,,64,100
105408,note_on,,,,,64,0,13,,,,,6,,,33,100
105408,note_on,,,,,32,0,7,,,,,0,,,73,100
105408,note_on,,,,,64,0,11,,,,,4,,,57,100
105408,note_on,,,,,64,0,15,,,,,7,,,45,100
105408,note_on,,,,,0,0,11,,,,,4,,,64,100
105472,note_off,,,,,64,0,7,,,,,0,,,73,100
105504,note_on,,,,,32,0,7,,,,,0,,,81,100
105536,note_off,,,,,128,0,12,,,,,5,,,45,100
105536,note_off,,,,,128,0,15,,,,,7,,,45,100
105536,note_off,,,,,0,0,11,,,,,4,,,64,100
105536,note_off,,,,,128,0,11,,,,,4,,,57,100
105536,note_off,,,,,128,0,13,,,,,6,,,33,100
105536,note_off,,,,,128,0,14,,,,,7,,,64,100
105536,note_off,,,,,0,0,14,,,,,7,,,67,100
105536,note_off,,,,,128,0,10,,,,,3,,,69,100
105568,note_off,,,,,64,0,7,,,,,0,,,81,100
105600,note_on,,,,,64,0,11,,,,,4,,,61,100
105600,note_on,,,,,64,0,10,,,,,3,,,73,100
105600,note_on,,,,,32,0,7,,,,,0,,,81,100
105664,note_off,,,,,64,0,7,,,,,0,,,81,100
105696,note_on,,,,,32,0,7,,,,,0,,,76,100
105728,note_off,,,,,128,0,10,,,,,3,,,73,100
105728,note_off,,,,,128,0,11,,,,,4,,,61,100
105760,note_off,,,,,64,0,7,,,,,0,,,76,100
105792,note_on,,,,,0,0,14,,,,,7,,,76,100
105792,note_on,,,,,256,0,14,,,,,7,,,67,100
105792,note_on,,,,,64,0,10,,,,,3,,,76,100
105792,note_on,,,,,256,0,13,,,,,6,,,45,100
105792,note_on,,,,,256,0,15,,,,,7,,,57,100
105792,note_on,,,,,64,0,11,,,,,4,,,61,100
105792,note_on,,,,,32,0,7,,,,,0,,,73,100
105792,note_on,,,,,0,0,11,,,,,4,,,57,100
105792,note_on,,,,,256,0,12,,,,,5,,,57,100
105828,note_off,,,,,1380,0,8,,,,,1,,,79,100
105856,note_off,,,,,64,0,7,,,,,0,,,73,100
105888,note_on,,,,,32,0,7,,,,,0,,,81,100
105920,note_off,,,,,128,0,13,,,,,6,,,45,100
105920,note_off,,,,,128,0,12,,,,,5,,,57,100
105920,note_off,,,,,128,0,15,,,,,7,,,57,100
105920,note_off,,,,,0,0,11,,,,,4,,,57,100
105920,note_off,,,,,128,0,14,,,,,7,,,67,100
105920,note_off,,,,,0,0,14,,,,,7,,,76,100
105920,note_off,,,,,128,0,11,,,,,4,,,61,100
105920,note_off,,,,,128,0,10,,,,,3,,,76,100
105952,note_off,,,,,64,0,7,,,,,0,,,81,100
105984,note_on,,,,,64,0,10,,,,,3,,,74,100
105984,note_on,,,,,32,0,7,,,,,0,,,81,100
105984,note_on,,,,,0,0,14,,,,,7,,,73,100
105984,note_on,,,,,64,0,14,,,,,7,,,69,100
105984,note_on,,,,,64,0,11,,,,,4,,,66,100
105984,note_on,,,,,64,0,12,,,,,5,,,50,100
105984,note_on,,,,,156,0,8,,,,,1,,,78,100
105984,note_on,,,,,64,0,13,,,,,6,,,38,100
105984,note_on,,,,,64,0,15,,,,,7,,,50,100
106048,note_off,,,,,64,0,10,,,,,3,,,74,100
106080,note_on,,,,,32,0,10,,,,,3,,,69,100
106112,note_off,,,,,128,0,11,,,,,4,,,66,100
106112,note_off,,,,,128,0,7,,,,,0,,,81,100
106144,note_off,,,,,64,0,10,,,,,3,,,69,100
106176,note_on,,,,,0,0,11,,,,,4,,,69,100
106176,note_on,,,,,32,0,10,,,,,3,,,66,100
106176,note_on,,,,,64,0,11,,,,,4,,,62,100
106176,note_on,,,,,64,0,7,,,,,0,,,74,100
106240,note_off,,,,,64,0,10,,,,,3,,,66,100
106240,note_off,,,,,256,0,12,,,,,5,,,50,100
106240,note_off,,,,,256,0,13,,,,,6,,,38,100
106240,note_off,,,,,256,0,15,,,,,7,,,50,100
106240,note_off,,,,,0,0,14,,,,,7,,,73,100
106240,note_off,,,,,256,0,14,,,,,7,,,69,100
106272,note_on,,,,,32,0,10,,,,,3,,,74,100
106304,note_off,,,,,0,0,11,,,,,4,,,69,100
106304,note_off,,,,,128,0,7,,,,,0,,,74,100
106304,note_off,,,,,128,0,11,,,,,4,,,62,100
106336,note_off,,,,,64,0,10,,,,,3,,,74,100
106368,note_on,,,,,64,0,11,,,,,4,,,66,100
106368,note_on,,,,,32,0,10,,,,,3,,,74,100
106368,note_on,,,,,64,0,7,,,,,0,,,78,100
106432,note_off,,,,,64,0,10,,,,,3,,,74,100
106464,note_on,,,,,32,0,10,,,,,3,,,69,100
106496,note_off,,,,,128,0,11,,,,,4,,,66,100
106496,note_off,,,,,128,0,7,,,,,0,,,78,100
106528,note_off,,,,,64,0,10,,,,,3,,,69,100
106560,note_on,,,,,64,0,11,,,,,4,,,62,100
106560,note_on,,,,,320,0,12,,,,,5,,,50,100
106560,note_on,,,,,320,0,13,,,,,6,,,38,100
106560,note_on,,,,,320,0,15,,,,,7,,,50,100
106560,note_on,,,,,320,0,14,,,,,7,,,69,100
106560,note_on,,,,,64,0,7,,,,,0,,,81,100
106560,note_on,,,,,32,0,10,,,,,3,,,66,100
106560,note_on,,,,,0,0,14,,,,,7,,,73,100
106596,note_off,,,,,1380,0,9,,,,,2,,,73,100
106624,note_off,,,,,64,0,10,,,,,3,,,66,100
106656,note_on,,,,,32,0,10,,,,,3,,,74,100
106688,note_off,,,,,128,0,15,,,,,7,,,50,100
106688,note_off,,,,,128,0,13,,,,,6,,,38,100
106688,note_off,,,,,128,0,7,,,,,0,,,81,100
106688,note_off,,,,,128,0,12,,,,,5,,,50,100
106688,note_off,,,,,128,0,11,,,,,4,,,62,100
106688,note_off,,,,,0,0,14,,,,,7,,,73,100
106688,note_off,,,,,128,0,14,,,,,7,,,69,100
106720,note_off,,,,,64,0,10,,,,,3,,,74,100
106752,note_on,,,,,64,0,14,,,,,7,,,66,100
106752,note_on,,,,,64,0,13,,,,,6,,,43,100
106752,note_on,,,,,0,0,14,,,,,7,,,74,100
106752,note_on,,,,,156,0,9,,,,,2,,,71,100
106752,note_on,,,,,64,0,12,,,,,5,,,55,100
106752,note_on,,,,,64,0,7,,,,,0,,,79,100
106752,note_on,,,,,64,0,15,,,,,7,,,55,100
106752,note_on,,,,,32,0,10,,,,,3,,,74,100
106752,note_on,,,,,64,0,11,,,,,4,,,59,100
106816,note_off,,,,,64,0,7,,,,,0,,,79,100
106848,note_on,,,,,32,0,7,,,,,0,,,74,100
106880,note_off,,,,,128,0,11,,,,,4,,,59,100
106880,note_off,,,,,128,0,13,,,,,6,,,43,100
106880,note_off,,,,,128,0,12,,,,,5,,,55,100
106880,note_off,,,,,128,0,15,,,,,7,,,55,100
106880,note_off,,,,,0,0,14,,,,,7,,,74,100
106880,note_off,,,,,128,0,14,,,,,7,,,66,100
106880,note_off,,,,,128,0,10,,,,,3,,,74,100
106912,note_off,,,,,64,0,7,,,,,0,,,74,100
106944,note_on,,,,,64,0,14,,,,,7,,,62,100
106944,note_on,,,,,64,0,15,,,,,7,,,55,100
106944,note_on,,,,,64,0,12,,,,,5,,,43,100
106944,note_on,,,,,64,0,13,,,,,6,,,43,100
106944,note_on,,,,,0,0,14,,,,,7,,,66,100
106944,note_on,,,,,32,0,7,,,,,0,,,71,100
106944,note_on,,,,,64,0,10,,,,,3,,,67,100
106944,note_on,,,,,64,0,11,,,,,4,,,55,100
106944,note_on,,,,,0,0,11,,,,,4,,,62,100
107008,note_off,,,,,64,0,7,,,,,0,,,71,100
107040,note_on,,,,,32,0,7,,,,,0,,,79,100
107072,note_off,,,,,0,0,14,,,,,7,,,66,100
107072,note_off,,,,,128,0,15,,,,,7,,,55,100
107072,note_off,,,,,128,0,14,,,,,7,,,62,100
107072,note_off,,,,,128,0,12,,,,,5,,,43,100
107072,note_off,,,,,0,0,11,,,,,4,,,62,100
107072,note_off,,,,,128,0,11,,,,,4,,,55,100
107072,note_off,,,,,128,0,13,,,,,6,,,43,100
107072,note_off,,,,,128,0,10,,,,,3,,,67,100
107104,note_off,,,,,64,0,7,,,,,0,,,79,100
107136,note_on,,,,,64,0,11,,,,,4,,,59,100
107136,note_on,,,,,64,0,10,,,,,3,,,71,100
107136,note_on,,,,,32,0,7,,,,,0,,,79,100
107200,note_off,,,,,64,0,7,,,,,0,,,79,100
107232,note_on,,,,,32,0,7,,,,,0,,,74,100
107264,note_off,,,,,128,0,10,,,,,3,,,71,100
107264,note_off,,,,,128,0,11,,,,,4,,,59,100
107296,note_off,,,,,64,0,7,,,,,0,,,74,100
107328,note_on,,,,,64,0,10,,,,,3,,,74,100
107328,note_on,,,,,32,0,7,,,,,0,,,71,100
107328,note_on,,,,,256,0,13,,,,,6,,,43,100
107328,note_on,,,,,256,0,12,,,,,5,,,55,100
107328,note_on,,,,,256,0,15,,,,,7,,,55,100
107328,note_on,,,,,256,0,14,,,,,7,,,66,100
107328,note_on,,,,,0,0,14,,,,,7,,,74,100
107328,note_on,,,,,64,0,11,,,,,4,,,59,100
107328,note_on,,,,,0,0,11,,,,,4,,,55,100
107364,note_off,,,,,1380,0,8,,,,,1,,,78,100
107392,note_off,,,,,64,0,7,,,,,0,,,71,100
107424,note_on,,,,,32,0,7,,,,,0,,,79,100
107456,note_off,,,,,128,0,12,,,,,5,,,55,100
107456,note_off,,,,,128,0,13,,,,,6,,,43,100
107456,note_off,,,,,0,0,14,,,,,7,,,74,100
107456,note_off,,,,,128,0,14,,,,,7,,,66,100
107456,note_off,,,,,128,0,11,,,,,4,,,59,100
107456,note_off,,,,,128,0,15,,,,,7,,,55,100
107456,note_off,,,,,0,0,11,,,,,4,,,55,100
107456,note_off,,,,,128,0,10,,,,,3,,,74,100
107488,note_off,,,,,64,0,7,,,,,0,,,79,100
107520,note_on,,,,,64,0,11,,,,,4,,,64,100
107520,note_on,,,,,0,0,14,,,,,7,,,71,100
107520,note_on,,,,,64,0,15,,,,,7,,,49,100
107520,note_on,,,,,64,0,14,,,,,7,,,67,100
107520,note_on,,,,,32,0,7,,,,,0,,,79,100
107520,note_on,,,,,64,0,13,,,,,6,,,37,100
107520,note_on,,,,,64,0,12,,,,,5,,,49,100
107520,note_on,,,,,156,0,8,,,,,1,,,76,100
107520,note_on,,,,,64,0,10,,,,,3,,,73,100
107584,note_off,,,,,64,0,10,,,,,3,,,73,100
107616,note_on,,,,,32,0,10,,,,,3,,,67,100
107648,note_off,,,,,128,0,11,,,,,4,,,64,100
107648,note_off,,,,,128,0,7,,,,,0,,,79,100
107680,note_off,,,,,64,0,10,,,,,3,,,67,100
107712,note_on,,,,,64,0,7,,,,,0,,,73,100
107712,note_on,,,,,32,0,10,,,,,3,,,64,100
107712,note_on,,,,,0,0,11,,,,,4,,,67,100
107712,note_on,,,,,64,0,11,,,,,4,,,61,100
107776,note_off,,,,,64,0,10,,,,,3,,,64,100
107776,note_off,,,,,256,0,13,,,,,6,,,37,100
107776,note_off,,,,,0,0,14,,,,,7,,,71,100
107776,note_off,,,,,256,0,14,,,,,7,,,67,100
107776,note_off,,,,,256,0,15,,,,,7,,,49,100
107776,note_off,,,,,256,0,12,,,,,5,,,49,100
107808,note_on,,,,,32,0,10,,,,,3,,,73,100
107840,note_off,,,,,128,0,7,,,,,0,,,73,100
107840,note_off,,,,,128,0,11,,,,,4,,,61,100
107840,note_off,,,,,0,0,11,,,,,4,,,67,100
107872,note_off,,,,,64,0,10,,,,,3,,,73,100
107904,note_on,,,,,64,0,11,,,,,4,,,64,100
107904,note_on,,,,,64,0,7,,,,,0,,,76,100
107904,note_on,,,,,32,0,10,,,,,3,,,73,100
107968,note_off,,,,,64,0,10,,,,,3,,,73,100
108000,note_on,,,,,32,0,10,,,,,3,,,67,100
108032,note_off,,,,,128,0,11,,,,,4,,,64,100
108032,note_off,,,,,128,0,7,,,,,0,,,76,100
108064,note_off,,,,,64,0,10,,,,,3,,,67,100
108096,note_on,,,,,320,0,12,,,,,5,,,49,100
108096,note_on,,,,,320,0,14,,,,,7,,,67,100
108096,note_on,,,,,0,0,14,,,,,7,,,71,100
108096,note_on,,,,,64,0,11,,,,,4,,,61,100
108096,note_on,,,,,320,0,15,,,,,7,,,49,100
108096,note_on,,,,,64,0,7,,,,,0,,,79,100
108096,note_on,,,,,320,0,13,,,,,6,,,37,100
108096,note_on,,,,,32,0,10,,,,,3,,,64,100
108132,note_off,,,,,1380,0,9,,,,,2,,,71,100
108160,note_off,,,,,64,0,10,,,,,3,,,64,100
108192,note_on,,,,,32,0,10,,,,,3,,,73,100
108224,note_off,,,,,128,0,13,,,,,6,,,37,100
108224,note_off,,,,,128,0,7,,,,,0,,,79,100
108224,note_off,,,,,128,0,12,,,,,5,,,49,100
108224,note_off,,,,,128,0,14,,,,,7,,,67,100
108224,note_off,,,,,0,0,14,,,,,7,,,71,100
108224,note_off,,,,,128,0,15,,,,,7,,,49,100
108224,note_off,,,,,128,0,11,,,,,4,,,61,100
108256,note_off,,,,,64,0,10,,,,,3,,,73,100
108288,note_on,,,,,64,0,15,,,,,7,,,54,100
108288,note_on,,,,,64,0,12,,,,,5,,,54,100
108288,note_on,,,,,64,0,14,,,,,7,,,76,100
108288,note_on,,,,,64,0,13,,,,,6,,,42,100
108288,note_on,,,,,156,0,9,,,,,2,,,70,100
108288,note_on,,,,,64,0,11,,,,,4,,,58,100
108288,note_on,,,,,32,0,10,,,,,3,,,73,100
108288,note_on,,,,,64,0,7,,,,,0,,,78,100
108288,note_on,,,,,0,0,14,,,,,7,,,70,100
108352,note_off,,,,,64,0,7,,,,,0,,,78,100
108384,note_on,,,,,32,0,7,,,,,0,,,73,100
108416,note_off,,,,,128,0,14,,,,,7,,,76,100
108416,note_off,,,,,0,0,14,,,,,7,,,70,100
108416,note_off,,,,,128,0,15,,,,,7,,,54,100
108416,note_off,,,,,128,0,12,,,,,5,,,54,100
108416,note_off,,,,,128,0,10,,,,,3,,,73,100
108416,note_off,,,,,128,0,11,,,,,4,,,58,100
108416,note_off,,,,,128,0,13,,,,,6,,,42,100
108448,note_off,,,,,64,0,7,,,,,0,,,73,100
108480,note_on,,,,,64,0,11,,,,,4,,,54,100
108480,note_on,,,,,32,0,7,,,,,0,,,70,100
108480,note_on,,,,,64,0,15,,,,,7,,,54,100
108480,note_on,,,,,64,0,13,,,,,6,,,42,100
108480,note_on,,,,,0,0,14,,,,,7,,,64,100
108480,note_on,,,,,64,0,14,,,,,7,,,70,100
108480,note_on,,,,,64,0,10,,,,,3,,,66,100
108480,note_on,,,,,0,0,11,,,,,4,,,61,100
108480,note_on,,,,,64,0,12,,,,,5,,,42,100
108544,note_off,,,,,64,0,7,,,,,0,,,70,100
108576,note_on,,,,,32,0,7,,,,,0,,,78,100
108608,note_off,,,,,128,0,12,,,,,5,,,42,100
108608,note_off,,,,,128,0,10,,,,,3,,,66,100
108608,note_off,,,,,128,0,13,,,,,6,,,42,100
108608,note_off,,,,,128,0,15,,,,,7,,,54,100
108608,note_off,,,,,0,0,14,,,,,7,,,64,100
108608,note_off,,,,,128,0,14,,,,,7,,,70,100
108608,note_off,,,,,0,0,11,,,,,4,,,61,100
108608,note_off,,,,,128,0,11,,,,,4,,,54,100
108640,note_off,,,,,64,0,7,,,,,0,,,78,100
108672,note_on,,,,,32,0,7,,,,,0,,,78,100
108672,note_on,,,,,64,0,11,,,,,4,,,58,100
108672,note_on,,,,,64,0,10,,,,,3,,,70,100
108736,note_off,,,,,64,0,7,,,,,0,,,78,100
108768,note_on,,,,,32,0,7,,,,,0,,,73,100
108800,note_off,,,,,128,0,11,,,,,4,,,58,100
108800,note_off,,,,,128,0,10,,,,,3,,,70,100
108832,note_off,,,,,64,0,7,,,,,0,,,73,100
108864,note_on,,,,,256,0,13,,,,,6,,,42,100
108864,note_on,,,,,256,0,12,,,,,5,,,54,100
108864,note_on,,,,,64,0,11,,,,,4,,,61,100
108864,note_on,,,,,256,0,15,,,,,7,,,54,100
108864,note_on,,,,,256,0,14,,,,,7,,,70,100
108864,note_on,,,,,0,0,14,,,,,7,,,73,100
108864,note_on,,,,,0,0,11,,,,,4,,,54,100
108864,note_on,,,,,64,0,10,,,,,3,,,73,100
108864,note_on,,,,,32,0,7,,,,,0,,,70,100
108900,note_off,,,,,1380,0,8,,,,,1,,,76,100
108928,note_off,,,,,64,0,7,,,,,0,,,70,100
108960,note_on,,,,,32,0,7,,,,,0,,,78,100
108976,note_off,,,,,688,0,9,,,,,2,,,70,100
108992,note_off,,,,,128,0,15,,,,,7,,,54,100
108992,note_off,,,,,128,0,11,,,,,4,,,61,100
108992,note_off,,,,,128,0,13,,,,,6,,,42,100
108992,note_off,,,,,0,0,11,,,,,4,,,54,100
108992,note_off,,,,,128,0,10,,,,,3,,,73,100
108992,note_off,,,,,0,0,14,,,,,7,,,73,100
108992,note_off,,,,,128,0,14,,,,,7,,,70,100
108992,note_off,,,,,128,0,12,,,,,5,,,54,100
109024,note_off,,,,,64,0,7,,,,,0,,,78,100
109052,program_change,,,,,76,0,9,,,,,2,40,,,
109052,program_change,,,,,152,0,8,,,,,1,40,,,
109056,note_on,,,,,64,0,11,,,,,4,,,66,100
109056,note_on,,,,,0,0,11,,,,,4,,,59,100
109056,note_on,,,,,64,0,12,,,,,5,,,47,100
109056,note_on,,,,,4,0,9,,,,,2,,,71,100
109056,note_on,,,,,32,0,7,,,,,0,,,78,100
109056,note_on,,,,,4,0,8,,,,,1,,,74,100
109056,note_on,,,,,64,0,10,,,,,3,,,74,100
109056,note_on,,,,,64,0,15,,,,,7,,,47,100
109056,note_on,,,,,64,0,14,,,,,7,,,62,100
109056,note_on,,,,,0,0,14,,,,,7,,,66,100
109056,note_on,,,,,64,0,13,,,,,6,,,35,100
109120,note_off,,,,,64,0,8,,,,,1,,,74,100
109152,note_on,,,,,32,0,8,,,,,1,,,78,100
109184,note_off,,,,,0,0,14,,,,,7,,,66,100
109184,note_off,,,,,128,0,12,,,,,5,,,47,100
109184,note_off,,,,,128,0,14,,,,,7,,,62,100
109184,note_off,,,,,128,0,7,,,,,0,,,78,100
109184,note_off,,,,,128,0,15,,,,,7,,,47,100
109184,note_off,,,,,128,0,9,,,,,2,,,71,100
109184,note_off,,,,,128,0,13,,,,,6,,,35,100
109216,note_off,,,,,64,0,8,,,,,1,,,78,100
109248,note_on,,,,,64,0,15,,,,,7,,,47,100
109248,note_on,,,,,64,0,9,,,,,2,,,74,100
109248,note_on,,,,,32,0,8,,,,,1,,,78,100
109248,note_on,,,,,64,0,13,,,,,6,,,35,85
109248,note_on,,,,,64,0,12,,,,,5,,,47,85
109248,note_on,,,,,0,0,14,,,,,7,,,66,100
109248,note_on,,,,,64,0,14,,,,,7,,,62,100
109248,note_on,,,,,64,0,7,,,,,0,,,71,100
109312,note_off,,,,,256,0,10,,,,,3,,,74,100
109312,note_off,,,,,64,0,8,,,,,1,,,78,100
109312,note_off,,,,,256,0,11,,,,,4,,,66,100
109312,note_off,,,,,0,0,11,,,,,4,,,59,100
109344,note_on,,,,,32,0,8,,,,,1,,,78,100
109376,note_off,,,,,128,0,14,,,,,7,,,62,100
109376,note_off,,,,,128,0,15,,,,,7,,,47,100
109376,note_off,,,,,128,0,7,,,,,0,,,71,100
109376,note_off,,,,,128,0,12,,,,,5,,,47,100
109376,note_off,,,,,128,0,9,,,,,2,,,74,100
109376,note_off,,,,,0,0,14,,,,,7,,,66,100
109376,note_off,,,,,128,0,13,,,,,6,,,35,100
109408,note_off,,,,,64,0,8,,,,,1,,,78,100
109440,note_on,,,,,64,0,15,,,,,7,,,47,100
109440,note_on,,,,,64,0,12,,,,,5,,,47,85
109440,note_on,,,,,64,0,9,,,,,2,,,78,100
109440,note_on,,,,,32,0,8,,,,,1,,,83,100
109440,note_on,,,,,64,0,13,,,,,6,,,35,85
109440,note_on,,,,,64,0,14,,,,,7,,,62,100
109440,note_on,,,,,0,0,14,,,,,7,,,66,100
109504,note_off,,,,,64,0,8,,,,,1,,,83,100
109536,note_on,,,,,32,0,8,,,,,1,,,78,100
109568,note_off,,,,,128,0,13,,,,,6,,,35,100
109568,note_off,,,,,128,0,12,,,,,5,,,47,100
109568,note_off,,,,,128,0,15,,,,,7,,,47,100
109568,note_off,,,,,128,0,14,,,,,7,,,62,100
109568,note_off,,,,,0,0,14,,,,,7,,,66,100
109568,note_off,,,,,128,0,9,,,,,2,,,78,100
109600,note_off,,,,,64,0,8,,,,,1,,,78,100
109632,note_on,,,,,64,0,13,,,,,6,,,35,85
109632,note_on,,,,,32,0,8,,,,,1,,,78,100
109632,note_on,,,,,64,0,9,,,,,2,,,74,100
109632,note_on,,,,,64,0,15,,,,,7,,,47,100
109632,note_on,,,,,0,0,14,,,,,7,,,66,100
109632,note_on,,,,,64,0,14,,,,,7,,,62,100
109632,note_on,,,,,64,0,12,,,,,5,,,47,85
109696,note_off,,,,,64,0,8,,,,,1,,,78,100
109728,note_on,,,,,32,0,8,,,,,1,,,78,100
109760,note_off,,,,,128,0,9,,,,,2,,,74,100
109760,note_off,,,,,128,0,13,,,,,6,,,35,100
109760,note_off,,,,,128,0,14,,,,,7,,,62,100
109760,note_off,,,,,128,0,15,,,,,7,,,47,100
109760,note_off,,,,,0,0,14,,,,,7,,,66,100
109760,note_off,,,,,128,0,12,,,,,5,,,47,100
109792,note_off,,,,,64,0,8,,,,,1,,,78,100
109824,note_on,,,,,64,0,14,,,,,7,,,63,100
109824,note_on,,,,,64,0,12,,,,,5,,,47,85
109824,note_on,,,,,32,0,8,,,,,1,,,83,100
109824,note_on,,,,,64,0,9,,,,,2,,,78,100
109824,note_on,,,,,64,0,15,,,,,7,,,47,100
109824,note_on,,,,,0,0,14,,,,,7,,,66,100
109824,note_on,,,,,64,0,13,,,,,6,,,35,85
109888,note_off,,,,,64,0,8,,,,,1,,,83,100
109920,note_on,,,,,32,0,8,,,,,1,,,78,100
109952,note_off,,,,,128,0,9,,,,,2,,,78,100
109952,note_off,,,,,128,0,15,,,,,7,,,47,100
109952,note_off,,,,,128,0,14,,,,,7,,,63,100
109952,note_off,,,,,128,0,13,,,,,6,,,35,100
109952,note_off,,,,,0,0,14,,,,,7,,,66,100
109952,note_off,,,,,128,0,12,,,,,5,,,47,100
109984,note_off,,,,,64,0,8,,,,,1,,,78,100
110016,note_on,,,,,64,0,12,,,,,5,,,47,85
110016,note_on,,,,,32,0,8,,,,,1,,,78,100
110016,note_on,,,,,64,0,15,,,,,7,,,47,100
110016,note_on,,,,,64,0,13,,,,,6,,,35,85
110016,note_on,,,,,64,0,9,,,,,2,,,75,100
110016,note_on,,,,,64,0,14,,,,,7,,,63,100
110016,note_on,,,,,0,0,14,,,,,7,,,66,100
110080,note_off,,,,,64,0,8,,,,,1,,,78,100
110112,note_on,,,,,32,0,8,,,,,1,,,78,100
110144,note_off,,,,,128,0,13,,,,,6,,,35,100
110144,note_off,,,,,128,0,15,,,,,7,,,47,100
110144,note_off,,,,,128,0,9,,,,,2,,,75,100
110144,note_off,,,,,128,0,12,,,,,5,,,47,100
110144,note_off,,,,,128,0,14,,,,,7,,,63,100
110144,note_off,,,,,0,0,14,,,,,7,,,66,100
110176,note_off,,,,,64,0,8,,,,,1,,,78,100
110208,note_on,,,,,0,0,14,,,,,7,,,66,100
110208,note_on,,,,,64,0,14,,,,,7,,,63,100
110208,note_on,,,,,32,0,8,,,,,1,,,83,100
110208,note_on,,,,,64,0,12,,,,,5,,,47,85
110208,note_on,,,,,64,0,9,,,,,2,,,78,100
110208,note_on,,,,,64,0,13,,,,,6,,,35,85
110208,note_on,,,,,64,0,15,,,,,7,,,47,100
110272,note_off,,,,,64,0,8,,,,,1,,,83,100
110304,note_on,,,,,32,0,8,,,,,1,,,81,100
110336,note_off,,,,,128,0,14,,,,,7,,,63,100
110336,note_off,,,,,128,0,13,,,,,6,,,35,100
110336,note_off,,,,,0,0,14,,,,,7,,,66,100
110336,note_off,,,,,128,0,15,,,,,7,,,47,100
110336,note_off,,,,,128,0,9,,,,,2,,,78,100
110336,note_off,,,,,128,0,12,,,,,5,,,47,100
110368,note_off,,,,,64,0,8,,,,,1,,,81,100
110400,note_on,,,,,64,0,14,,,,,7,,,63,100
110400,note_on,,,,,64,0,15,,,,,7,,,47,100
110400,note_on,,,,,32,0,8,,,,,1,,,79,100
110400,note_on,,,,,64,0,13,,,,,6,,,35,85
110400,note_on,,,,,0,0,14,,,,,7,,,66,100
110400,note_on,,,,,64,0,9,,,,,2,,,75,100
110400,note_on,,,,,64,0,12,,,,,5,,,47,85
110464,note_off,,,,,64,0,8,,,,,1,,,79,100
110496,note_on,,,,,32,0,8,,,,,1,,,78,100
110528,note_off,,,,,128,0,15,,,,,7,,,47,100
110528,note_off,,,,,128,0,13,,,,,6,,,35,100
110528,note_off,,,,,128,0,12,,,,,5,,,47,100
110528,note_off,,,,,128,0,14,,,,,7,,,63,100
110528,note_off,,,,,0,0,14,,,,,7,,,66,100
110528,note_off,,,,,128,0,9,,,,,2,,,75,100
110560,note_off,,,,,64,0,8,,,,,1,,,78,100
110588,program_change,,,,,1276,0,10,,,,,3,40,,,
110592,note_on,,,,,64,0,15,,,,,7,,,52,100
110592,note_on,,,,,0,0,14,,,,,7,,,71,100
110592,note_on,,,,,64,0,14,,,,,7,,,67,100
110592,note_on,,,,,64,0,13,,,,,6,,,40,85
110592,note_on,,,,,64,0,9,,,,,2,,,71,100
110592,note_on,,,,,32,0,8,,,,,1,,,79,100
110592,note_on,,,,,4,0,10,,,,,3,,,64,100
110592,note_on,,,,,64,0,12,,,,,5,,,52,85
110656,note_off,,,,,64,0,9,,,,,2,,,71,100
110688,note_on,,,,,32,0,9,,,,,2,,,71,100
110720,note_off,,,,,128,0,14,,,,,7,,,67,100
110720,note_off,,,,,0,0,14,,,,,7,,,71,100
110720,note_off,,,,,128,0,10,,,,,3,,,64,100
110720,note_off,,,,,128,0,15,,,,,7,,,52,100
110720,note_off,,,,,128,0,13,,,,,6,,,40,100
110720,note_off,,,,,128,0,12,,,,,5,,,52,100
110752,note_off,,,,,64,0,9,,,,,2,,,71,100
110784,note_on,,,,,64,0,15,,,,,7,,,52,100
110784,note_on,,,,,0,0,14,,,,,7,,,71,100
110784,note_on,,,,,64,0,14,,,,,7,,,67,100
110784,note_on,,,,,64,0,12,,,,,5,,,52,85
110784,note_on,,,,,32,0,9,,,,,2,,,71,100
110784,note_on,,,,,64,0,10,,,,,3,,,67,100
110784,note_on,,,,,64,0,13,,,,,6,,,40,85
110848,note_off,,,,,256,0,8,,,,,1,,,79,100
110848,note_off,,,,,64,0,9,,,,,2,,,71,100
110880,note_on,,,,,32,0,9,,,,,2,,,71,100
110912,note_off,,,,,128,0,14,,,,,7,,,67,100
110912,note_off,,,,,0,0,14,,,,,7,,,71,100
110912,note_off,,,,,128,0,10,,,,,3,,,67,100
110912,note_off,,,,,128,0,13,,,,,6,,,40,100
110912,note_off,,,,,128,0,12,,,,,5,,,52,100
110912,note_off,,,,,128,0,15,,,,,7,,,52,100
110944,note_off,,,,,64,0,9,,,,,2,,,71,100
110976,note_on,,,,,64,0,14,,,,,7,,,67,100
110976,note_on,,,,,64,0,10,,,,,3,,,71,100
110976,note_on,,,,,64,0,13,,,,,6,,,40,85
110976,note_on,,,,,32,0,9,,,,,2,,,76,100
110976,note_on,,,,,64,0,12,,,,,5,,,52,85
110976,note_on,,,,,64,0,15,,,,,7,,,52,100
110976,note_on,,,,,0,0,14,,,,,7,,,71,100
111040,note_off,,,,,64,0,9,,,,,2,,,76,100
111072,note_on,,,,,32,0,9,,,,,2,,,71,100
111104,note_off,,,,,128,0,14,,,,,7,,,67,100
111104,note_off,,,,,0,0,14,,,,,7,,,71,100
111104,note_off,,,,,128,0,13,,,,,6,,,40,100
111104,note_off,,,,,128,0,10,,,,,3,,,71,100
111104,note_off,,,,,128,0,12,,,,,5,,,52,100
111104,note_off,,,,,128,0,15,,,,,7,,,52,100
111136,note_off,,,,,64,0,9,,,,,2,,,71,100
111168,note_on,,,,,64,0,14,,,,,7,,,67,100
111168,note_on,,,,,64,0,10,,,,,3,,,67,100
111168,note_on,,,,,0,0,14,,,,,7,,,71,100
111168,note_on,,,,,64,0,15,,,,,7,,,52,100
111168,note_on,,,,,64,0,12,,,,,5,,,52,85
111168,note_on,,,,,64,0,13,,,,,6,,,40,85
111168,note_on,,,,,32,0,9,,,,,2,,,71,100
111232,note_off,,,,,64,0,9,,,,,2,,,71,100
111264,note_on,,,,,32,0,9,,,,,2,,,71,100
111296,note_off,,,,,128,0,12,,,,,5,,,52,100
111296,note_off,,,,,128,0,14,,,,,7,,,67,100
111296,note_off,,,,,128,0,10,,,,,3,,,67,100
111296,note_off,,,,,0,0,14,,,,,7,,,71,100
111296,note_off,,,,,128,0,13,,,,,6,,,40,100
111296,note_off,,,,,128,0,15,,,,,7,,,52,100
111328,note_off,,,,,64,0,9,,,,,2,,,71,100
111360,note_on,,,,,64,0,12,,,,,5,,,52,85
111360,note_on,,,,,64,0,13,,,,,6,,,40,85
111360,note_on,,,,,64,0,10,,,,,3,,,71,100
111360,note_on,,,,,64,0,15,,,,,7,,,52,100
111360,note_on,,,,,0,0,14,,,,,7,,,71,100
111360,note_on,,,,,32,0,9,,,,,2,,,76,100
111360,note_on,,,,,64,0,14,,,,,7,,,68,100
111424,note_off,,,,,64,0,9,,,,,2,,,76,100
111456,note_on,,,,,32,0,9,,,,,2,,,71,100
111488,note_off,,,,,0,0,14,,,,,7,,,71,100
111488,note_off,,,,,128,0,10,,,,,3,,,71,100
111488,note_off,,,,,128,0,15,,,,,7,,,52,100
111488,note_off,,,,,128,0,12,,,,,5,,,52,100
111488,note_off,,,,,128,0,13,,,,,6,,,40,100
111488,note_off,,,,,128,0,14,,,,,7,,,68,100
111520,note_off,,,,,64,0,9,,,,,2,,,71,100
111552,note_on,,,,,64,0,10,,,,,3,,,68,100
111552,note_on,,,,,0,0,14,,,,,7,,,71,100
111552,note_on,,,,,32,0,9,,,,,2,,,71,100
111552,note_on,,,,,64,0,12,,,,,5,,,52,85
111552,note_on,,,,,64,0,15,,,,,7,,,52,100
111552,note_on,,,,,64,0,13,,,,,6,,,40,85
111552,note_on,,,,,64,0,14,,,,,7,,,68,100
111616,note_off,,,,,64,0,9,,,,,2,,,71,100
111648,note_on,,,,,32,0,9,,,,,2,,,71,100
111680,note_off,,,,,128,0,15,,,,,7,,,52,100
111680,note_off,,,,,128,0,10,,,,,3,,,68,100
111680,note_off,,,,,128,0,12,,,,,5,,,52,100
111680,note_off,,,,,128,0,13,,,,,6,,,40,100
111680,note_off,,,,,0,0,14,,,,,7,,,71,100
111680,note_off,,,,,128,0,14,,,,,7,,,68,100
111712,note_off,,,,,64,0,9,,,,,2,,,71,100
111744,note_on,,,,,0,0,14,,,,,7,,,71,100
111744,note_on,,,,,32,0,9,,,,,2,,,76,100
111744,note_on,,,,,64,0,10,,,,,3,,,71,100
111744,note_on,,,,,64,0,15,,,,,7,,,52,100
111744,note_on,,,,,64,0,14,,,,,7,,,68,100
111744,note_on,,,,,64,0,12,,,,,5,,,52,85
111744,note_on,,,,,64,0,13,,,,,6,,,40,85
111808,note_off,,,,,64,0,9,,,,,2,,,76,100
111840,note_on,,,,,32,0,9,,,,,2,,,74,100
111872,note_off,,,,,0,0,14,,,,,7,,,71,100
111872,note_off,,,,,128,0,15,,,,,7,,,52,100
111872,note_off,,,,,128,0,14,,,,,7,,,68,100
111872,note_off,,,,,128,0,12,,,,,5,,,52,100
111872,note_off,,,,,128,0,13,,,,,6,,,40,100
111872,note_off,,,,,128,0,10,,,,,3,,,71,100
111904,note_off,,,,,64,0,9,,,,,2,,,74,100
111936,note_on,,,,,64,0,15,,,,,7,,,52,100
111936,note_on,,,,,32,0,9,,,,,2,,,73,100
111936,note_on,,,,,64,0,14,,,,,7,,,68,100
111936,note_on,,,,,0,0,14,,,,,7,,,71,100
111936,note_on,,,,,64,0,12,,,,,5,,,52,85
111936,note_on,,,,,64,0,13,,,,,6,,,40,85
111936,note_on,,,,,64,0,10,,,,,3,,,68,100
112000,note_off,,,,,64,0,9,,,,,2,,,73,100
112032,note_on,,,,,32,0,9,,,,,2,,,71,100
112064,note_off,,,,,128,0,12,,,,,5,,,52,100
112064,note_off,,,,,128,0,15,,,,,7,,,52,100
112064,note_off,,,,,128,0,13,,,,,6,,,40,100
112064,note_off,,,,,0,0,14,,,,,7,,,71,100
112064,note_off,,,,,128,0,14,,,,,7,,,68,100
112064,note_off,,,,,128,0,10,,,,,3,,,68,100
112096,note_off,,,,,64,0,9,,,,,2,,,71,100
112124,program_change,,,,,60,0,12,,,,,5,43,,,
112128,note_on,,,,,0,0,14,,,,,7,,,64,100
112128,note_on,,,,,64,0,13,,,,,6,,,33,85
112128,note_on,,,,,64,0,15,,,,,7,,,45,100
112128,note_on,,,,,64,0,14,,,,,7,,,61,100
112128,note_on,,,,,4,0,12,,,,,5,,,57,85
112128,note_on,,,,,32,0,9,,,,,2,,,73,100
112128,note_on,,,,,64,0,10,,,,,3,,,64,100
112192,note_off,,,,,64,0,10,,,,,3,,,64,100
112224,note_on,,,,,32,0,10,,,,,3,,,64,100
112256,note_off,,,,,0,0,14,,,,,7,,,64,100
112256,note_off,,,,,128,0,13,,,,,6,,,33,100
112256,note_off,,,,,128,0,12,,,,,5,,,57,100
112256,note_off,,,,,128,0,15,,,,,7,,,45,100
112256,note_off,,,,,128,0,14,,,,,7,,,61,100
112288,note_off,,,,,64,0,10,,,,,3,,,64,100
112320,note_on,,,,,64,0,13,,,,,6,,,33,85
112320,note_on,,,,,64,0,12,,,,,5,,,61,85
112320,note_on,,,,,0,0,14,,,,,7,,,64,100
112320,note_on,,,,,64,0,14,,,,,7,,,61,100
112320,note_on,,,,,32,0,10,,,,,3,,,64,100
112320,note_on,,,,,64,0,15,,,,,7,,,45,100
112384,note_off,,,,,64,0,10,,,,,3,,,64,100
112384,note_off,,,,,256,0,9,,,,,2,,,73,100
112416,note_on,,,,,32,0,10,,,,,3,,,64,100
112448,note_off,,,,,128,0,12,,,,,5,,,61,100
112448,note_off,,,,,128,0,13,,,,,6,,,33,100
112448,note_off,,,,,128,0,15,,,,,7,,,45,100
112448,note_off,,,,,128,0,14,,,,,7,,,61,100
112448,note_off,,,,,0,0,14,,,,,7,,,64,100
112480,note_off,,,,,64,0,10,,,,,3,,,64,100
112512,note_on,,,,,0,0,14,,,,,7,,,64,100
112512,note_on,,,,,64,0,14,,,,,7,,,61,100
112512,note_on,,,,,32,0,10,,,,,3,,,69,100
112512,note_on,,,,,64,0,13,,,,,6,,,33,85
112512,note_on,,,,,64,0,12,,,,,5,,,64,85
112512,note_on,,,,,64,0,15,,,,,7,,,45,100
112576,note_off,,,,,64,0,10,,,,,3,,,69,100
112608,note_on,,,,,32,0,10,,,,,3,,,64,100
112640,note_off,,,,,128,0,12,,,,,5,,,64,100
112640,note_off,,,,,128,0,14,,,,,7,,,61,100
112640,note_off,,,,,0,0,14,,,,,7,,,64,100
112640,note_off,,,,,128,0,13,,,,,6,,,33,100
112640,note_off,,,,,128,0,15,,,,,7,,,45,100
112672,note_off,,,,,64,0,10,,,,,3,,,64,100
112704,note_on,,,,,64,0,14,,,,,7,,,61,100
112704,note_on,,,,,0,0,14,,,,,7,,,64,100
112704,note_on,,,,,64,0,15,,,,,7,,,45,100
112704,note_on,,,,,64,0,12,,,,,5,,,61,85
112704,note_on,,,,,32,0,10,,,,,3,,,64,100
112704,note_on,,,,,64,0,13,,,,,6,,,33,85
112768,note_off,,,,,64,0,10,,,,,3,,,64,100
112800,note_on,,,,,32,0,10,,,,,3,,,64,100
112832,note_off,,,,,0,0,14,,,,,7,,,64,100
112832,note_off,,,,,128,0,12,,,,,5,,,61,100
112832,note_off,,,,,128,0,13,,,,,6,,,33,100
112832,note_off,,,,,128,0,14,,,,,7,,,61,100
112832,note_off,,,,,128,0,15,,,,,7,,,45,100
112864,note_off,,,,,64,0,10,,,,,3,,,64,100
112896,note_on,,,,,64,0,14,,,,,7,,,61,100
112896,note_on,,,,,0,0,14,,,,,7,,,64,100
112896,note_on,,,,,64,0,13,,,,,6,,,33,85
112896,note_on,,,,,32,0,10,,,,,3,,,69,100
112896,note_on,,,,,64,0,12,,,,,5,,,64,85
112896,note_on,,,,,64,0,15,,,,,7,,,45,100
112960,note_off,,,,,64,0,10,,,,,3,,,69,100
112992,note_on,,,,,32,0,10,,,,,3,,,64,100
113024,note_off,,,,,0,0,14,,,,,7,,,64,100
113024,note_off,,,,,128,0,14,,,,,7,,,61,100
113024,note_off,,,,,128,0,13,,,,,6,,,33,100
113024,note_off,,,,,128,0,12,,,,,5,,,64,100
113024,note_off,,,,,128,0,15,,,,,7,,,45,100
113056,note_off,,,,,64,0,10,,,,,3,,,64,100
113088,note_on,,,,,64,0,13,,,,,6,,,33,85
113088,note_on,,,,,64,0,12,,,,,5,,,61,85
113088,note_on,,,,,64,0,15,,,,,7,,,45,100
113088,note_on,,,,,32,0,10,,,,,3,,,64,100
113088,note_on,,,,,64,0,14,,,,,7,,,61,100
113088,note_on,,,,,0,0,14,,,,,7,,,64,100
113152,note_off,,,,,64,0,10,,,,,3,,,64,100
113184,note_on,,,,,32,0,10,,,,,3,,,64,100
113216,note_off,,,,,128,0,13,,,,,6,,,33,100
113216,note_off,,,,,128,0,12,,,,,5,,,61,100
113216,note_off,,,,,128,0,14,,,,,7,,,61,100
113216,note_off,,,,,0,0,14,,,,,7,,,64,100
113216,note_off,,,,,128,0,15,,,,,7,,,45,100
113248,note_off,,,,,64,0,10,,,,,3,,,64,100
113280,note_on,,,,,64,0,14,,,,,7,,,61,100
113280,note_on,,,,,64,0,13,,,,,6,,,33,85
113280,note_on,,,,,32,0,10,,,,,3,,,69,100
113280,note_on,,,,,64,0,15,,,,,7,,,45,100
113280,note_on,,,,,0,0,14,,,,,7,,,64,100
113280,note_on,,,,,64,0,12,,,,,5,,,64,85
113344,note_off,,,,,64,0,10,,,,,3,,,69,100
113376,note_on,,,,,32,0,10,,,,,3,,,67,100
113408,note_off,,,,,128,0,14,,,,,7,,,61,100
113408,note_off,,,,,0,0,14,,,,,7,,,64,100
113408,note_off,,,,,128,0,15,,,,,7,,,45,100
113408,note_off,,,,,128,0,13,,,,,6,,,33,100
113408,note_off,,,,,128,0,12,,,,,5,,,64,100
113440,note_off,,,,,64,0,10,,,,,3,,,67,100
113472,note_on,,,,,0,0,14,,,,,7,,,64,100
113472,note_on,,,,,64,0,12,,,,,5,,,61,85
113472,note_on,,,,,64,0,13,,,,,6,,,33,85
113472,note_on,,,,,32,0,10,,,,,3,,,66,100
113472,note_on,,,,,64,0,14,,,,,7,,,61,100
113472,note_on,,,,,64,0,15,,,,,7,,,45,100
113536,note_off,,,,,64,0,10,,,,,3,,,66,100
113568,note_on,,,,,32,0,10,,,,,3,,,64,100
113600,note_off,,,,,128,0,12,,,,,5,,,61,100
113600,note_off,,,,,128,0,15,,,,,7,,,45,100
113600,note_off,,,,,128,0,14,,,,,7,,,61,100
113600,note_off,,,,,0,0,14,,,,,7,,,64,100
113600,note_off,,,,,128,0,13,,,,,6,,,33,100
113632,note_off,,,,,64,0,10,,,,,3,,,64,100
113664,note_on,,,,,64,0,14,,,,,7,,,69,100
113664,note_on,,,,,0,0,14,,,,,7,,,66,100
113664,note_on,,,,,64,0,12,,,,,5,,,57,85
113664,note_on,,,,,64,0,15,,,,,7,,,50,100
113664,note_on,,,,,64,0,13,,,,,6,,,38,85
113664,note_on,,,,,32,0,10,,,,,3,,,66,100
113728,note_off,,,,,64,0,12,,,,,5,,,57,100
113760,note_on,,,,,32,0,12,,,,,5,,,57,85
113792,note_off,,,,,128,0,13,,,,,6,,,38,100
113792,note_off,,,,,128,0,14,,,,,7,,,69,100
113792,note_off,,,,,128,0,15,,,,,7,,,50,100
113792,note_off,,,,,0,0,14,,,,,7,,,66,100
113792,note_off,,,,,128,0,10,,,,,3,,,66,100
113824,note_off,,,,,64,0,12,,,,,5,,,57,100
113856,note_on,,,,,64,0,14,,,,,7,,,69,100
113856,note_on,,,,,32,0,12,,,,,5,,,57,85
113856,note_on,,,,,64,0,15,,,,,7,,,50,100
113856,note_on,,,,,0,0,14,,,,,7,,,66,100
113856,note_on,,,,,64,0,13,,,,,6,,,38,85
113856,note_on,,,,,64,0,10,,,,,3,,,66,100
113920,note_off,,,,,64,0,12,,,,,5,,,57,100
113952,note_on,,,,,32,0,12,,,,,5,,,57,85
113984,note_off,,,,,128,0,10,,,,,3,,,66,100
113984,note_off,,,,,128,0,15,,,,,7,,,50,100
113984,note_off,,,,,128,0,14,,,,,7,,,69,100
113984,note_off,,,,,0,0,14,,,,,7,,,66,100
113984,note_off,,,,,128,0,13,,,,,6,,,38,100
114016,note_off,,,,,64,0,12,,,,,5,,,57,100
114048,note_on,,,,,64,0,14,,,,,7,,,69,100
114048,note_on,,,,,0,0,14,,,,,7,,,66,100
114048,note_on,,,,,64,0,13,,,,,6,,,38,85
114048,note_on,,,,,32,0,12,,,,,5,,,62,85
114048,note_on,,,,,64,0,10,,,,,3,,,69,100
114048,note_on,,,,,64,0,15,,,,,7,,,50,100
114112,note_off,,,,,64,0,12,,,,,5,,,62,100
114144,note_on,,,,,32,0,12,,,,,5,,,57,85
114176,note_off,,,,,128,0,13,,,,,6,,,38,100
114176,note_off,,,,,128,0,14,,,,,7,,,69,100
114176,note_off,,,,,128,0,15,,,,,7,,,50,100
114176,note_off,,,,,128,0,10,,,,,3,,,69,100
114176,note_off,,,,,0,0,14,,,,,7,,,66,100
114208,note_off,,,,,64,0,12,,,,,5,,,57,100
114240,note_on,,,,,64,0,10,,,,,3,,,74,100
114240,note_on,,,,,64,0,13,,,,,6,,,38,85
114240,note_on,,,,,64,0,15,,,,,7,,,50,100
114240,note_on,,,,,0,0,14,,,,,7,,,66,100
114240,note_on,,,,,64,0,14,,,,,7,,,69,100
114240,note_on,,,,,32,0,12,,,,,5,,,57,85
114304,note_off,,,,,64,0,12,,,,,5,,,57,100
114336,note_on,,,,,32,0,12,,,,,5,,,57,85
114368,note_off,,,,,128,0,14,,,,,7,,,69,100
114368,note_off,,,,,128,0,13,,,,,6,,,38,100
114368,note_off,,,,,0,0,14,,,,,7,,,66,100
114368,note_off,,,,,128,0,15,,,,,7,,,50,100
114368,note_off,,,,,128,0,10,,,,,3,,,74,100
114400,note_off,,,,,64,0,12,,,,,5,,,57,100
114432,note_on,,,,,64,0,15,,,,,7,,,50,100
114432,note_on,,,,,64,0,13,,,,,6,,,38,85
114432,note_on,,,,,64,0,10,,,,,3,,,69,100
114432,note_on,,,,,32,0,12,,,,,5,,,62,85
114432,note_on,,,,,64,0,14,,,,,7,,,69,100
114432,note_on,,,,,0,0,14,,,,,7,,,66,100
114496,note_off,,,,,64,0,12,,,,,5,,,62,100
114528,note_on,,,,,32,0,12,,,,,5,,,57,85
114560,note_off,,,,,128,0,13,,,,,6,,,38,100
114560,note_off,,,,,128,0,15,,,,,7,,,50,100
114560,note_off,,,,,128,0,10,,,,,3,,,69,100
114560,note_off,,,,,0,0,14,,,,,7,,,66,100
114560,note_off,,,,,128,0,14,,,,,7,,,69,100
114592,note_off,,,,,64,0,12,,,,,5,,,57,100
114624,note_on,,,,,64,0,13,,,,,6,,,38,85
114624,note_on,,,,,64,0,10,,,,,3,,,74,100
114624,note_on,,,,,64,0,15,,,,,7,,,50,100
114624,note_on,,,,,32,0,12,,,,,5,,,57,85
114624,note_on,,,,,0,0,14,,,,,7,,,66,100
114624,note_on,,,,,64,0,14,,,,,7,,,69,100
114688,note_off,,,,,64,0,12,,,,,5,,,57,100
114720,note_on,,,,,32,0,12,,,,,5,,,57,85
114752,note_off,,,,,128,0,10,,,,,3,,,74,100
114752,note_off,,,,,128,0,15,,,,,7,,,50,100
114752,note_off,,,,,0,0,14,,,,,7,,,66,100
114752,note_off,,,,,128,0,14,,,,,7,,,69,100
114752,note_off,,,,,128,0,13,,,,,6,,,38,100
114784,note_off,,,,,64,0,12,,,,,5,,,57,100
114816,note_on,,,,,64,0,10,,,,,3,,,69,100
114816,note_on,,,,,64,0,15,,,,,7,,,50,100
114816,note_on,,,,,0,0,14,,,,,7,,,66,100
114816,note_on,,,,,64,0,14,,,,,7,,,69,100
114816,note_on,,,,,64,0,13,,,,,6,,,38,85
114816,note_on,,,,,32,0,12,,,,,5,,,62,85
114880,note_off,,,,,64,0,12,,,,,5,,,62,100
114912,note_on,,,,,32,0,12,,,,,5,,,61,85
114944,note_off,,,,,128,0,14,,,,,7,,,69,100
114944,note_off,,,,,0,0,14,,,,,7,,,66,100
114944,note_off,,,,,128,0,13,,,,,6,,,38,100
114944,note_off,,,,,128,0,15,,,,,7,,,50,100
114944,note_off,,,,,128,0,10,,,,,3,,,69,100
114976,note_off,,,,,64,0,12,,,,,5,,,61,100
115008,note_on,,,,,64,0,15,,,,,7,,,50,100
115008,note_on,,,,,32,0,12,,,,,5,,,59,85
115008,note_on,,,,,64,0,13,,,,,6,,,38,85
115008,note_on,,,,,0,0,14,,,,,7,,,66,100
115008,note_on,,,,,64,0,14,,,,,7,,,69,100
115008,note_on,,,,,64,0,10,,,,,3,,,66,100
115072,note_off,,,,,64,0,12,,,,,5,,,59,100
115104,note_on,,,,,32,0,12,,,,,5,,,57,85
115136,note_off,,,,,0,0,14,,,,,7,,,66,100
115136,note_off,,,,,128,0,13,,,,,6,,,38,100
115136,note_off,,,,,128,0,10,,,,,3,,,66,100
115136,note_off,,,,,128,0,15,,,,,7,,,50,100
115136,note_off,,,,,128,0,14,,,,,7,,,69,100
115168,note_off,,,,,64,0,12,,,,,5,,,57,100
115200,note_on,,,,,32,0,12,,,,,5,,,59,85
115200,note_on,,,,,64,0,13,,,,,6,,,43,85
115200,note_on,,,,,64,0,14,,,,,7,,,74,100
115200,note_on,,,,,0,0,14,,,,,7,,,71,100
115200,note_on,,,,,2816,0,9,,,,,2,,,62,100
115200,note_on,,,,,64,0,10,,,,,3,,,62,100
115200,note_on,,,,,64,0,15,,,,,7,,,55,100
115264,note_off,,,,,64,0,12,,,,,5,,,59,100
115296,note_on,,,,,32,0,12,,,,,5,,,59,85
115328,note_off,,,,,128,0,13,,,,,6,,,43,100
115328,note_off,,,,,128,0,14,,,,,7,,,74,100
115328,note_off,,,,,0,0,14,,,,,7,,,71,100
115328,note_off,,,,,128,0,9,,,,,2,,,62,100
115328,note_off,,,,,128,0,15,,,,,7,,,55,100
115360,note_off,,,,,64,0,12,,,,,5,,,59,100
115392,note_on,,,,,64,0,14,,,,,7,,,74,100
115392,note_on,,,,,64,0,9,,,,,2,,,67,100
115392,note_on,,,,,64,0,13,,,,,6,,,43,85
115392,note_on,,,,,0,0,14,,,,,7,,,71,100
115392,note_on,,,,,32,0,12,,,,,5,,,59,85
115392,note_on,,,,,64,0,15,,,,,7,,,55,100
115456,note_off,,,,,64,0,12,,,,,5,,,59,100
115456,note_off,,,,,256,0,10,,,,,3,,,62,100
115488,note_on,,,,,32,0,12,,,,,5,,,59,85
115520,note_off,,,,,128,0,13,,,,,6,,,43,100
115520,note_off,,,,,0,0,14,,,,,7,,,71,100
115520,note_off,,,,,128,0,14,,,,,7,,,74,100
115520,note_off,,,,,128,0,15,,,,,7,,,55,100
115520,note_off,,,,,128,0,9,,,,,2,,,67,100
115552,note_off,,,,,64,0,12,,,,,5,,,59,100
115584,note_on,,,,,64,0,9,,,,,2,,,71,100
115584,note_on,,,,,64,0,15,,,,,7,,,55,100
115584,note_on,,,,,64,0,14,,,,,7,,,76,100
115584,note_on,,,,,0,0,14,,,,,7,,,71,100
115584,note_on,,,,,64,0,13,,,,,6,,,43,85
115584,note_on,,,,,32,0,12,,,,,5,,,64,85
115648,note_off,,,,,64,0,12,,,,,5,,,64,100
115680,note_on,,,,,32,0,12,,,,,5,,,59,85
115712,note_off,,,,,128,0,14,,,,,7,,,76,100
115712,note_off,,,,,0,0,14,,,,,7,,,71,100
115712,note_off,,,,,128,0,13,,,,,6,,,43,100
115712,note_off,,,,,128,0,9,,,,,2,,,71,100
115712,note_off,,,,,128,0,15,,,,,7,,,55,100
115744,note_off,,,,,64,0,12,,,,,5,,,59,100
115776,note_on,,,,,64,0,13,,,,,6,,,43,85
115776,note_on,,,,,32,0,12,,,,,5,,,59,85
115776,note_on,,,,,0,0,14,,,,,7,,,71,100
115776,note_on,,,,,64,0,9,,,,,2,,,76,100
115776,note_on,,,,,64,0,14,,,,,7,,,76,100
115776,note_on,,,,,64,0,15,,,,,7,,,55,100
115840,note_off,,,,,64,0,12,,,,,5,,,59,100
115872,note_on,,,,,32,0,12,,,,,5,,,59,85
115904,note_off,,,,,128,0,9,,,,,2,,,76,100
115904,note_off,,,,,128,0,15,,,,,7,,,55,100
115904,note_off,,,,,128,0,13,,,,,6,,,43,100
115904,note_off,,,,,128,0,14,,,,,7,,,76,100
115904,note_off,,,,,0,0,14,,,,,7,,,71,100
115936,note_off,,,,,64,0,12,,,,,5,,,59,100
115968,note_on,,,,,64,0,9,,,,,2,,,71,100
115968,note_on,,,,,32,0,12,,,,,5,,,64,85
115968,note_on,,,,,64,0,15,,,,,7,,,56,100
115968,note_on,,,,,64,0,13,,,,,6,,,44,85
115968,note_on,,,,,0,0,14,,,,,7,,,76,100
115968,note_on,,,,,64,0,14,,,,,7,,,74,100
116032,note_off,,,,,64,0,12,,,,,5,,,64,100
116064,note_on,,,,,32,0,12,,,,,5,,,59,85
116096,note_off,,,,,0,0,14,,,,,7,,,76,100
116096,note_off,,,,,128,0,15,,,,,7,,,56,100
116096,note_off,,,,,128,0,13,,,,,6,,,44,100
116096,note_off,,,,,128,0,9,,,,,2,,,71,100
116096,note_off,,,,,128,0,14,,,,,7,,,74,100
116128,note_off,,,,,64,0,12,,,,,5,,,59,100
116160,note_on,,,,,32,0,12,,,,,5,,,59,85
116160,note_on,,,,,0,0,14,,,,,7,,,76,100
116160,note_on,,,,,64,0,9,,,,,2,,,76,100
116160,note_on,,,,,64,0,15,,,,,7,,,56,100
116160,note_on,,,,,64,0,14,,,,,7,,,74,100
116160,note_on,,,,,64,0,13,,,,,6,,,44,85
116224,note_off,,,,,64,0,12,,,,,5,,,59,100
116256,note_on,,,,,32,0,12,,,,,5,,,59,85
116288,note_off,,,,,128,0,13,,,,,6,,,44,100
116288,note_off,,,,,128,0,14,,,,,7,,,74,100
116288,note_off,,,,,128,0,15,,,,,7,,,56,100
116288,note_off,,,,,128,0,9,,,,,2,,,76,100
116288,note_off,,,,,0,0,14,,,,,7,,,76,100
116320,note_off,,,,,64,0,12,,,,,5,,,59,100
116352,note_on,,,,,0,0,14,,,,,7,,,76,100
116352,note_on,,,,,64,0,9,,,,,2,,,71,100
116352,note_on,,,,,32,0,12,,,,,5,,,64,85
116352,note_on,,,,,64,0,13,,,,,6,,,44,85
116352,note_on,,,,,64,0,14,,,,,7,,,74,100
116352,note_on,,,,,64,0,15,,,,,7,,,56,100
116416,note_off,,,,,64,0,12,,,,,5,,,64,100
116448,note_on,,,,,32,0,12,,,,,5,,,62,85
116480,note_off,,,,,128,0,13,,,,,6,,,44,100
116480,note_off,,,,,128,0,15,,,,,7,,,56,100
116480,note_off,,,,,128,0,14,,,,,7,,,74,100
116480,note_off,,,,,0,0,14,,,,,7,,,76,100
116480,note_off,,,,,128,0,9,,,,,2,,,71,100
116512,note_off,,,,,64,0,12,,,,,5,,,62,100
116544,note_on,,,,,64,0,15,,,,,7,,,56,100
116544,note_on,,,,,64,0,13,,,,,6,,,44,85
116544,note_on,,,,,64,0,14,,,,,7,,,74,100
116544,note_on,,,,,64,0,9,,,,,2,,,68,100
116544,note_on,,,,,0,0,14,,,,,7,,,76,100
116544,note_on,,,,,32,0,12,,,,,5,,,61,85
116608,note_off,,,,,64,0,12,,,,,5,,,61,100
116640,note_on,,,,,32,0,12,,,,,5,,,59,85
116672,note_off,,,,,128,0,9,,,,,2,,,68,100
116672,note_off,,,,,128,0,15,,,,,7,,,56,100
116672,note_off,,,,,0,0,14,,,,,7,,,76,100
116672,note_off,,,,,128,0,13,,,,,6,,,44,100
116672,note_off,,,,,128,0,14,,,,,7,,,74,100
116704,note_off,,,,,64,0,12,,,,,5,,,59,100
116736,note_on,,,,,5888,0,8,,,,,1,,,64,100
116736,note_on,,,,,32,0,12,,,,,5,,,61,85
116736,note_on,,,,,64,0,14,,,,,7,,,73,100
116736,note_on,,,,,64,0,15,,,,,7,,,57,100
116736,note_on,,,,,0,0,14,,,,,7,,,76,100
116736,note_on,,,,,64,0,9,,,,,2,,,64,100
116736,note_on,,,,,64,0,13,,,,,6,,,45,85
116800,note_off,,,,,64,0,12,,,,,5,,,61,100
116832,note_on,,,,,32,0,12,,,,,5,,,61,85
116864,note_off,,,,,128,0,13,,,,,6,,,45,100
116864,note_off,,,,,128,0,15,,,,,7,,,57,100
116864,note_off,,,,,128,0,14,,,,,7,,,73,100
116864,note_off,,,,,0,0,14,,,,,7,,,76,100
116864,note_off,,,,,128,0,8,,,,,1,,,64,100
116896,note_off,,,,,64,0,12,,,,,5,,,61,100
116928,note_on,,,,,64,0,15,,,,,7,,,57,100
116928,note_on,,,,,64,0,14,,,,,7,,,73,100
116928,note_on,,,,,64,0,8,,,,,1,,,69,100
116928,note_on,,,,,32,0,12,,,,,5,,,61,85
116928,note_on,,,,,64,0,13,,,,,6,,,45,85
116928,note_on,,,,,0,0,14,,,,,7,,,76,100
116992,note_off,,,,,64,0,12,,,,,5,,,61,100
116992,note_off,,,,,256,0,9,,,,,2,,,64,100
117024,note_on,,,,,32,0,12,,,,,5,,,61,85
117056,note_off,,,,,0,0,14,,,,,7,,,76,100
117056,note_off,,,,,128,0,14,,,,,7,,,73,100
117056,note_off,,,,,128,0,8,,,,,1,,,69,100
117056,note_off,,,,,128,0,15,,,,,7,,,57,100
117056,note_off,,,,,128,0,13,,,,,6,,,45,100
117088,note_off,,,,,64,0,12,,,,,5,,,61,100
117120,note_on,,,,,0,0,14,,,,,7,,,78,100
117120,note_on,,,,,64,0,14,,,,,7,,,73,100
117120,note_on,,,,,64,0,8,,,,,1,,,73,100
117120,note_on,,,,,64,0,15,,,,,7,,,57,100
117120,note_on,,,,,32,0,12,,,,,5,,,66,85
117120,note_on,,,,,64,0,13,,,,,6,,,45,85
117184,note_off,,,,,64,0,12,,,,,5,,,66,100
117216,note_on,,,,,32,0,12,,,,,5,,,61,85
117248,note_off,,,,,128,0,15,,,,,7,,,57,100
117248,note_off,,,,,128,0,14,,,,,7,,,73,100
117248,note_off,,,,,128,0,13,,,,,6,,,45,100
117248,note_off,,,,,0,0,14,,,,,7,,,78,100
117248,note_off,,,,,128,0,8,,,,,1,,,73,100
117280,note_off,,,,,64,0,12,,,,,5,,,61,100
117312,note_on,,,,,64,0,8,,,,,1,,,78,100
117312,note_on,,,,,64,0,14,,,,,7,,,73,100
117312,note_on,,,,,0,0,14,,,,,7,,,78,100
117312,note_on,,,,,32,0,12,,,,,5,,,61,85
117312,note_on,,,,,64,0,13,,,,,6,,,45,85
117312,note_on,,,,,64,0,15,,,,,7,,,57,100
117376,note_off,,,,,64,0,12,,,,,5,,,61,100
117408,note_on,,,,,32,0,12,,,,,5,,,61,85
117440,note_off,,,,,0,0,14,,,,,7,,,78,100
117440,note_off,,,,,128,0,14,,,,,7,,,73,100
117440,note_off,,,,,128,0,13,,,,,6,,,45,100
117440,note_off,,,,,128,0,15,,,,,7,,,57,100
117440,note_off,,,,,128,0,8,,,,,1,,,78,100
117472,note_off,,,,,64,0,12,,,,,5,,,61,100
117504,note_on,,,,,64,0,13,,,,,6,,,46,85
117504,note_on,,,,,64,0,8,,,,,1,,,73,100
117504,note_on,,,,,64,0,15,,,,,7,,,58,100
117504,note_on,,,,,32,0,12,,,,,5,,,66,85
117504,note_on,,,,,0,0,14,,,,,7,,,78,100
117504,note_on,,,,,64,0,14,,,,,7,,,76,100
117568,note_off,,,,,64,0,12,,,,,5,,,66,100
117600,note_on,,,,,32,0,12,,,,,5,,,61,85
117632,note_off,,,,,128,0,13,,,,,6,,,46,100
117632,note_off,,,,,128,0,8,,,,,1,,,73,100
117632,note_off,,,,,0,0,14,,,,,7,,,78,100
117632,note_off,,,,,128,0,15,,,,,7,,,58,100
117632,note_off,,,,,128,0,14,,,,,7,,,76,100
117664,note_off,,,,,64,0,12,,,,,5,,,61,100
117696,note_on,,,,,0,0,14,,,,,7,,,78,100
117696,note_on,,,,,64,0,8,,,,,1,,,78,100
117696,note_on,,,,,32,0,12,,,,,5,,,61,85
117696,note_on,,,,,64,0,13,,,,,6,,,46,85
117696,note_on,,,,,64,0,14,,,,,7,,,76,100
117696,note_on,,,,,64,0,15,,,,,7,,,58,100
117760,note_off,,,,,64,0,12,,,,,5,,,61,100
117792,note_on,,,,,32,0,12,,,,,5,,,61,85
117824,note_off,,,,,128,0,8,,,,,1,,,78,100
117824,note_off,,,,,128,0,15,,,,,7,,,58,100
117824,note_off,,,,,128,0,14,,,,,7,,,76,100
117824,note_off,,,,,0,0,14,,,,,7,,,78,100
117824,note_off,,,,,128,0,13,,,,,6,,,46,100
117856,note_off,,,,,64,0,12,,,,,5,,,61,100
117888,note_on,,,,,0,0,14,,,,,7,,,78,100
117888,note_on,,,,,32,0,12,,,,,5,,,66,85
117888,note_on,,,,,64,0,13,,,,,6,,,46,85
117888,note_on,,,,,64,0,14,,,,,7,,,76,100
117888,note_on,,,,,64,0,8,,,,,1,,,73,100
117888,note_on,,,,,64,0,15,,,,,7,,,58,100
117952,note_off,,,,,64,0,12,,,,,5,,,66,100
117984,note_on,,,,,32,0,12,,,,,5,,,64,85
118016,note_off,,,,,128,0,8,,,,,1,,,73,100
118016,note_off,,,,,0,0,14,,,,,7,,,78,100
118016,note_off,,,,,128,0,14,,,,,7,,,76,100
118016,note_off,,,,,128,0,15,,,,,7,,,58,100
118016,note_off,,,,,128,0,13,,,,,6,,,46,100
118048,note_off,,,,,64,0,12,,,,,5,,,64,100
118080,note_on,,,,,0,0,14,,,,,7,,,78,100
118080,note_on,,,,,64,0,14,,,,,7,,,76,100
118080,note_on,,,,,32,0,12,,,,,5,,,62,85
118080,note_on,,,,,64,0,15,,,,,7,,,58,100
118080,note_on,,,,,64,0,13,,,,,6,,,46,85
118080,note_on,,,,,64,0,8,,,,,1,,,70,100
118144,note_off,,,,,64,0,12,,,,,5,,,62,100
118176,note_on,,,,,32,0,12,,,,,5,,,61,85
118208,note_off,,,,,128,0,8,,,,,1,,,70,100
118208,note_off,,,,,128,0,14,,,,,7,,,76,100
118208,note_off,,,,,128,0,13,,,,,6,,,46,100
118208,note_off,,,,,128,0,15,,,,,7,,,58,100
118208,note_off,,,,,0,0,14,,,,,7,,,78,100
118240,note_off,,,,,64,0,12,,,,,5,,,61,100
118272,note_on,,,,,64,0,13,,,,,6,,,47,85
118272,note_on,,,,,0,0,14,,,,,7,,,78,100
118272,note_on,,,,,32,0,12,,,,,5,,,62,85
118272,note_on,,,,,64,0,14,,,,,7,,,74,100
118272,note_on,,,,,64,0,8,,,,,1,,,66,100
118272,note_on,,,,,64,0,15,,,,,7,,,59,100
118336,note_off,,,,,64,0,8,,,,,1,,,66,100
118368,note_on,,,,,32,0,8,,,,,1,,,78,100
118400,note_off,,,,,0,0,14,,,,,7,,,78,100
118400,note_off,,,,,128,0,12,,,,,5,,,62,100
118400,note_off,,,,,128,0,14,,,,,7,,,74,100
118400,note_off,,,,,128,0,15,,,,,7,,,59,100
118400,note_off,,,,,128,0,13,,,,,6,,,47,100
118432,note_off,,,,,64,0,8,,,,,1,,,78,100
118464,note_on,,,,,0,0,14,,,,,7,,,74,100
118464,note_on,,,,,64,0,15,,,,,7,,,47,100
118464,note_on,,,,,32,0,8,,,,,1,,,78,100
118464,note_on,,,,,64,0,14,,,,,7,,,66,100
118464,note_on,,,,,64,0,12,,,,,5,,,59,85
118464,note_on,,,,,64,0,13,,,,,6,,,35,85
118528,note_off,,,,,64,0,8,,,,,1,,,78,100
118560,note_on,,,,,32,0,8,,,,,1,,,78,100
118592,note_off,,,,,0,0,14,,,,,7,,,74,100
118592,note_off,,,,,128,0,13,,,,,6,,,35,100
118592,note_off,,,,,128,0,14,,,,,7,,,66,100
118592,note_off,,,,,128,0,12,,,,,5,,,59,100
118592,note_off,,,,,128,0,15,,,,,7,,,47,100
118624,note_off,,,,,64,0,8,,,,,1,,,78,100
118652,program_change,,,,,60,0,12,,,,,5,48,,,
118656,note_on,,,,,32,0,8,,,,,1,,,83,100
118720,note_off,,,,,64,0,8,,,,,1,,,83,100
118752,note_on,,,,,32,0,8,,,,,1,,,78,100
118816,note_off,,,,,64,0,8,,,,,1,,,78,100
118848,note_on,,,,,32,0,8,,,,,1,,,78,100
118848,note_on,,,,,196,0,12,,,,,5,,,62,85
118848,note_on,,,,,256,0,13,,,,,6,,,50,85
118848,note_on,,,,,0,0,14,,,,,7,,,69,100
118848,note_on,,,,,256,0,14,,,,,7,,,66,100
118848,note_on,,,,,256,0,15,,,,,7,,,62,100
118912,note_off,,,,,64,0,8,,,,,1,,,78,100
118944,note_on,,,,,32,0,8,,,,,1,,,78,100
118976,note_off,,,,,128,0,13,,,,,6,,,50,100
118976,note_off,,,,,128,0,15,,,,,7,,,62,100
118976,note_off,,,,,128,0,14,,,,,7,,,66,100
118976,note_off,,,,,0,0,14,,,,,7,,,69,100
118976,note_off,,,,,128,0,12,,,,,5,,,62,100
119008,note_off,,,,,64,0,8,,,,,1,,,78,100
119040,note_on,,,,,32,0,8,,,,,1,,,79,100
119040,note_on,,,,,64,0,15,,,,,7,,,64,100
119040,note_on,,,,,0,0,14,,,,,7,,,71,100
119040,note_on,,,,,64,0,12,,,,,5,,,64,85
119040,note_on,,,,,64,0,14,,,,,7,,,67,100
119040,note_on,,,,,64,0,13,,,,,6,,,52,85
119104,note_off,,,,,64,0,8,,,,,1,,,79,100
119136,note_on,,,,,32,0,8,,,,,1,,,78,100
119168,note_off,,,,,128,0,15,,,,,7,,,64,100
119168,note_off,,,,,0,0,14,,,,,7,,,71,100
119168,note_off,,,,,128,0,14,,,,,7,,,67,100
119168,note_off,,,,,128,0,13,,,,,6,,,52,100
119168,note_off,,,,,128,0,12,,,,,5,,,64,100
119200,note_off,,,,,64,0,8,,,,,1,,,78,100
119232,note_on,,,,,32,0,8,,,,,1,,,78,100
119232,note_on,,,,,64,0,12,,,,,5,,,62,85
119232,note_on,,,,,64,0,13,,,,,6,,,50,85
119232,note_on,,,,,0,0,14,,,,,7,,,69,100
119232,note_on,,,,,64,0,14,,,,,7,,,66,100
119232,note_on,,,,,64,0,15,,,,,7,,,62,100
119296,note_off,,,,,64,0,8,,,,,1,,,78,100
119328,note_on,,,,,32,0,8,,,,,1,,,78,100
119360,note_off,,,,,128,0,12,,,,,5,,,62,100
119360,note_off,,,,,0,0,14,,,,,7,,,69,100
119360,note_off,,,,,128,0,14,,,,,7,,,66,100
119360,note_off,,,,,128,0,15,,,,,7,,,62,100
119360,note_off,,,,,128,0,13,,,,,6,,,50,100
119392,note_off,,,,,64,0,8,,,,,1,,,78,100
119424,note_on,,,,,32,0,8,,,,,1,,,83,100
119488,note_off,,,,,64,0,8,,,,,1,,,83,100
119520,note_on,,,,,32,0,8,,,,,1,,,78,100
119584,note_off,,,,,64,0,8,,,,,1,,,78,100
119616,note_on,,,,,256,0,15,,,,,7,,,62,100
119616,note_on,,,,,256,0,13,,,,,6,,,50,85
119616,note_on,,,,,256,0,14,,,,,7,,,66,100
119616,note_on,,,,,256,0,12,,,,,5,,,62,85
119616,note_on,,,,,0,0,14,,,,,7,,,69,100
119616,note_on,,,,,32,0,8,,,,,1,,,78,100
119680,note_off,,,,,64,0,8,,,,,1,,,78,100
119712,note_on,,,,,32,0,8,,,,,1,,,78,100
119744,note_off,,,,,128,0,13,,,,,6,,,50,100
119744,note_off,,,,,128,0,15,,,,,7,,,62,100
119744,note_off,,,,,0,0,14,,,,,7,,,69,100
119744,note_off,,,,,128,0,12,,,,,5,,,62,100
119744,note_off,,,,,128,0,14,,,,,7,,,66,100
119776,note_off,,,,,64,0,8,,,,,1,,,78,100
119808,note_on,,,,,64,0,12,,,,,5,,,64,85
119808,note_on,,,,,64,0,14,,,,,7,,,67,100
119808,note_on,,,,,32,0,8,,,,,1,,,79,100
119808,note_on,,,,,64,0,13,,,,,6,,,52,85
119808,note_on,,,,,0,0,14,,,,,7,,,71,100
119808,note_on,,,,,64,0,15,,,,,7,,,64,100
119872,note_off,,,,,64,0,8,,,,,1,,,79,100
119904,note_on,,,,,32,0,8,,,,,1,,,76,100
119936,note_off,,,,,128,0,12,,,,,5,,,64,100
119936,note_off,,,,,0,0,14,,,,,7,,,71,100
119936,note_off,,,,,128,0,15,,,,,7,,,64,100
119936,note_off,,,,,128,0,14,,,,,7,,,67,100
119936,note_off,,,,,128,0,13,,,,,6,,,52,100
119968,note_off,,,,,64,0,8,,,,,1,,,76,100
120000,note_on,,,,,64,0,15,,,,,7,,,61,100
120000,note_on,,,,,64,0,13,,,,,6,,,49,85
120000,note_on,,,,,32,0,8,,,,,1,,,76,100
120000,note_on,,,,,64,0,14,,,,,7,,,67,100
120000,note_on,,,,,0,0,14,,,,,7,,,71,100
120000,note_on,,,,,64,0,12,,,,,5,,,61,85
120064,note_off,,,,,64,0,8,,,,,1,,,76,100
120096,note_on,,,,,32,0,8,,,,,1,,,76,100
120128,note_off,,,,,128,0,13,,,,,6,,,49,100
120128,note_off,,,,,128,0,12,,,,,5,,,61,100
120128,note_off,,,,,0,0,14,,,,,7,,,71,100
120128,note_off,,,,,128,0,15,,,,,7,,,61,100
120128,note_off,,,,,128,0,14,,,,,7,,,67,100
120160,note_off,,,,,64,0,8,,,,,1,,,76,100
120192,note_on,,,,,32,0,8,,,,,1,,,81,100
120256,note_off,,,,,64,0,8,,,,,1,,,81,100
120288,note_on,,,,,32,0,8,,,,,1,,,76,100
120352,note_off,,,,,64,0,8,,,,,1,,,76,100
120384,note_on,,,,,256,0,12,,,,,5,,,61,85
120384,note_on,,,,,256,0,13,,,,,6,,,49,85
120384,note_on,,,,,256,0,15,,,,,7,,,61,100
120384,note_on,,,,,256,0,14,,,,,7,,,64,100
120384,note_on,,,,,0,0,14,,,,,7,,,69,100
120384,note_on,,,,,32,0,8,,,,,1,,,76,100
120448,note_off,,,,,64,0,8,,,,,1,,,76,100
120480,note_on,,,,,32,0,8,,,,,1,,,76,100
120512,note_off,,,,,128,0,12,,,,,5,,,61,100
120512,note_off,,,,,128,0,13,,,,,6,,,49,100
120512,note_off,,,,,128,0,14,,,,,7,,,64,100
120512,note_off,,,,,128,0,15,,,,,7,,,61,100
120512,note_off,,,,,0,0,14,,,,,7,,,69,100
120544,note_off,,,,,64,0,8,,,,,1,,,76,100
120576,note_on,,,,,64,0,12,,,,,5,,,62,85
120576,note_on,,,,,64,0,15,,,,,7,,,62,100
120576,note_on,,,,,64,0,14,,,,,7,,,69,100
120576,note_on,,,,,0,0,14,,,,,7,,,66,100
120576,note_on,,,,,64,0,13,,,,,6,,,50,85
120576,note_on,,,,,32,0,8,,,,,1,,,78,100
120640,note_off,,,,,64,0,8,,,,,1,,,78,100
120672,note_on,,,,,32,0,8,,,,,1,,,76,100
120704,note_off,,,,,128,0,12,,,,,5,,,62,100
120704,note_off,,,,,128,0,15,,,,,7,,,62,100
120704,note_off,,,,,128,0,14,,,,,7,,,69,100
120704,note_off,,,,,0,0,14,,,,,7,,,66,100
120704,note_off,,,,,128,0,13,,,,,6,,,50,100
120736,note_off,,,,,64,0,8,,,,,1,,,76,100
120768,note_on,,,,,64,0,14,,,,,7,,,64,100
120768,note_on,,,,,64,0,12,,,,,5,,,61,85
120768,note_on,,,,,64,0,13,,,,,6,,,49,85
120768,note_on,,,,,64,0,15,,,,,7,,,61,100
120768,note_on,,,,,32,0,8,,,,,1,,,76,100
120768,note_on,,,,,0,0,14,,,,,7,,,69,100
120832,note_off,,,,,64,0,8,,,,,1,,,76,100
120864,note_on,,,,,32,0,8,,,,,1,,,76,100
120896,note_off,,,,,128,0,12,,,,,5,,,61,100
120896,note_off,,,,,128,0,15,,,,,7,,,61,100
120896,note_off,,,,,128,0,14,,,,,7,,,64,100
120896,note_off,,,,,0,0,14,,,,,7,,,69,100
120896,note_off,,,,,128,0,13,,,,,6,,,49,100
120928,note_off,,,,,64,0,8,,,,,1,,,76,100
120960,note_on,,,,,32,0,8,,,,,1,,,81,100
121024,note_off,,,,,64,0,8,,,,,1,,,81,100
121056,note_on,,,,,32,0,8,,,,,1,,,76,100
121120,note_off,,,,,64,0,8,,,,,1,,,76,100
121152,note_on,,,,,256,0,13,,,,,6,,,49,85
121152,note_on,,,,,32,0,8,,,,,1,,,76,100
121152,note_on,,,,,0,0,14,,,,,7,,,69,100
121152,note_on,,,,,256,0,14,,,,,7,,,64,100
121152,note_on,,,,,256,0,12,,,,,5,,,61,85
121152,note_on,,,,,256,0,15,,,,,7,,,61,100
121216,note_off,,,,,64,0,8,,,,,1,,,76,100
121248,note_on,,,,,32,0,8,,,,,1,,,76,100
121280,note_off,,,,,0,0,14,,,,,7,,,69,100
121280,note_off,,,,,128,0,12,,,,,5,,,61,100
121280,note_off,,,,,128,0,14,,,,,7,,,64,100
121280,note_off,,,,,128,0,13,,,,,6,,,49,100
121280,note_off,,,,,128,0,15,,,,,7,,,61,100
121312,note_off,,,,,64,0,8,,,,,1,,,76,100
121344,note_on,,,,,32,0,8,,,,,1,,,78,100
121344,note_on,,,,,0,0,14,,,,,7,,,69,100
121344,note_on,,,,,64,0,14,,,,,7,,,66,100
121344,note_on,,,,,64,0,15,,,,,7,,,62,100
121344,note_on,,,,,64,0,13,,,,,6,,,50,85
121344,note_on,,,,,64,0,12,,,,,5,,,62,85
121408,note_off,,,,,64,0,8,,,,,1,,,78,100
121440,note_on,,,,,32,0,8,,,,,1,,,74,100
121472,note_off,,,,,128,0,13,,,,,6,,,50,100
121472,note_off,,,,,128,0,15,,,,,7,,,62,100
121472,note_off,,,,,128,0,14,,,,,7,,,66,100
121472,note_off,,,,,128,0,12,,,,,5,,,62,100
121472,note_off,,,,,0,0,14,,,,,7,,,69,100
121504,note_off,,,,,64,0,8,,,,,1,,,74,100
121536,note_on,,,,,0,0,14,,,,,7,,,69,100
121536,note_on,,,,,64,0,13,,,,,6,,,47,85
121536,note_on,,,,,32,0,8,,,,,1,,,74,100
121536,note_on,,,,,64,0,12,,,,,5,,,59,85
121536,note_on,,,,,64,0,14,,,,,7,,,66,100
121536,note_on,,,,,64,0,15,,,,,7,,,59,100
121600,note_off,,,,,64,0,8,,,,,1,,,74,100
121632,note_on,,,,,32,0,8,,,,,1,,,74,100
121664,note_off,,,,,128,0,14,,,,,7,,,66,100
121664,note_off,,,,,128,0,12,,,,,5,,,59,100
121664,note_off,,,,,128,0,15,,,,,7,,,59,100
121664,note_off,,,,,0,0,14,,,,,7,,,69,100
121664,note_off,,,,,128,0,13,,,,,6,,,47,100
121696,note_off,,,,,64,0,8,,,,,1,,,74,100
121728,note_on,,,,,32,0,8,,,,,1,,,79,100
121792,note_off,,,,,64,0,8,,,,,1,,,79,100
121824,note_on,,,,,32,0,8,,,,,1,,,74,100
121888,note_off,,,,,64,0,8,,,,,1,,,74,100
121920,note_on,,,,,32,0,8,,,,,1,,,74,100
121920,note_on,,,,,256,0,13,,,,,6,,,47,85
121920,note_on,,,,,256,0,12,,,,,5,,,59,85
121920,note_on,,,,,0,0,14,,,,,7,,,62,100
121920,note_on,,,,,256,0,14,,,,,7,,,67,100
121920,note_on,,,,,256,0,15,,,,,7,,,59,100
121984,note_off,,,,,64,0,8,,,,,1,,,74,100
122016,note_on,,,,,32,0,8,,,,,1,,,74,100
122048,note_off,,,,,0,0,14,,,,,7,,,62,100
122048,note_off,,,,,128,0,15,,,,,7,,,59,100
122048,note_off,,,,,128,0,14,,,,,7,,,67,100
122048,note_off,,,,,128,0,12,,,,,5,,,59,100
122048,note_off,,,,,128,0,13,,,,,6,,,47,100
122080,note_off,,,,,64,0,8,,,,,1,,,74,100
122112,note_on,,,,,0,0,14,,,,,7,,,67,100
122112,note_on,,,,,64,0,13,,,,,6,,,49,85
122112,note_on,,,,,64,0,15,,,,,7,,,61,100
122112,note_on,,,,,32,0,8,,,,,1,,,76,100
122112,note_on,,,,,64,0,14,,,,,7,,,64,100
122112,note_on,,,,,64,0,12,,,,,5,,,61,85
122176,note_off,,,,,64,0,8,,,,,1,,,76,100
122208,note_on,,,,,32,0,8,,,,,1,,,74,100
122240,note_off,,,,,0,0,14,,,,,7,,,67,100
122240,note_off,,,,,128,0,14,,,,,7,,,64,100
122240,note_off,,,,,128,0,12,,,,,5,,,61,100
122240,note_off,,,,,128,0,15,,,,,7,,,61,100
122240,note_off,,,,,128,0,13,,,,,6,,,49,100
122272,note_off,,,,,64,0,8,,,,,1,,,74,100
122304,note_on,,,,,32,0,8,,,,,1,,,74,100
122304,note_on,,,,,0,0,14,,,,,7,,,62,100
122304,note_on,,,,,64,0,15,,,,,7,,,59,100
122304,note_on,,,,,64,0,12,,,,,5,,,59,85
122304,note_on,,,,,64,0,14,,,,,7,,,67,100
122304,note_on,,,,,64,0,13,,,,,6,,,47,85
122368,note_off,,,,,64,0,8,,,,,1,,,74,100
122400,note_on,,,,,32,0,8,,,,,1,,,74,100
122432,note_off,,,,,128,0,13,,,,,6,,,47,100
122432,note_off,,,,,128,0,12,,,,,5,,,59,100
122432,note_off,,,,,128,0,15,,,,,7,,,59,100
122432,note_off,,,,,0,0,14,,,,,7,,,62,100
122432,note_off,,,,,128,0,14,,,,,7,,,67,100
122464,note_off,,,,,64,0,8,,,,,1,,,74,100
122496,note_on,,,,,32,0,8,,,,,1,,,79,100
122560,note_off,,,,,64,0,8,,,,,1,,,79,100
122592,note_on,,,,,32,0,8,,,,,1,,,74,100
122656,note_off,,,,,64,0,8,,,,,1,,,74,100
122688,note_on,,,,,32,0,8,,,,,1,,,74,100
122688,note_on,,,,,256,0,14,,,,,7,,,62,100
122688,note_on,,,,,0,0,14,,,,,7,,,67,100
122688,note_on,,,,,256,0,15,,,,,7,,,59,100
122688,note_on,,,,,256,0,12,,,,,5,,,59,85
122688,note_on,,,,,256,0,13,,,,,6,,,47,85
122752,note_off,,,,,64,0,8,,,,,1,,,74,100
122784,note_on,,,,,32,0,8,,,,,1,,,74,100
122816,note_off,,,,,128,0,15,,,,,7,,,59,100
122816,note_off,,,,,128,0,12,,,,,5,,,59,100
122816,note_off,,,,,0,0,14,,,,,7,,,67,100
122816,note_off,,,,,128,0,14,,,,,7,,,62,100
122816,note_off,,,,,128,0,13,,,,,6,,,47,100
122848,note_off,,,,,64,0,8,,,,,1,,,74,100
122880,note_on,,,,,64,0,13,,,,,6,,,49,85
122880,note_on,,,,,0,0,14,,,,,7,,,67,100
122880,note_on,,,,,64,0,14,,,,,7,,,64,100
122880,note_on,,,,,64,0,12,,,,,5,,,61,85
122880,note_on,,,,,32,0,8,,,,,1,,,76,100
122880,note_on,,,,,64,0,15,,,,,7,,,61,100
122944,note_off,,,,,64,0,8,,,,,1,,,76,100
122976,note_on,,,,,32,0,8,,,,,1,,,73,100
123008,note_off,,,,,128,0,13,,,,,6,,,49,100
123008,note_off,,,,,128,0,15,,,,,7,,,61,100
123008,note_off,,,,,128,0,12,,,,,5,,,61,100
123008,note_off,,,,,128,0,14,,,,,7,,,64,100
123008,note_off,,,,,0,0,14,,,,,7,,,67,100
123040,note_off,,,,,64,0,8,,,,,1,,,73,100
123072,note_on,,,,,32,0,8,,,,,1,,,73,100
123072,note_on,,,,,64,0,15,,,,,7,,,58,100
123072,note_on,,,,,64,0,13,,,,,6,,,46,85
123072,note_on,,,,,64,0,14,,,,,7,,,64,100
123072,note_on,,,,,0,0,14,,,,,7,,,67,100
123072,note_on,,,,,64,0,12,,,,,5,,,58,85
123136,note_off,,,,,64,0,8,,,,,1,,,73,100
123168,note_on,,,,,32,0,8,,,,,1,,,73,100
123200,note_off,,,,,0,0,14,,,,,7,,,67,100
123200,note_off,,,,,128,0,12,,,,,5,,,58,100
123200,note_off,,,,,128,0,13,,,,,6,,,46,100
123200,note_off,,,,,128,0,14,,,,,7,,,64,100
123200,note_off,,,,,128,0,15,,,,,7,,,58,100
123232,note_off,,,,,64,0,8,,,,,1,,,73,100
123264,note_on,,,,,32,0,8,,,,,1,,,78,100
123328,note_off,,,,,64,0,8,,,,,1,,,78,100
123360,note_on,,,,,32,0,8,,,,,1,,,73,100
123424,note_off,,,,,64,0,8,,,,,1,,,73,100
123456,note_on,,,,,256,0,15,,,,,7,,,58,100
123456,note_on,,,,,256,0,12,,,,,5,,,58,85
123456,note_on,,,,,32,0,8,,,,,1,,,73,100
123456,note_on,,,,,256,0,14,,,,,7,,,66,100
123456,note_on,,,,,0,0,14,,,,,7,,,61,100
123456,note_on,,,,,256,0,13,,,,,6,,,46,85
123520,note_off,,,,,64,0,8,,,,,1,,,73,100
123552,note_on,,,,,32,0,8,,,,,1,,,73,100
123584,note_off,,,,,128,0,13,,,,,6,,,46,100
123584,note_off,,,,,0,0,14,,,,,7,,,61,100
123584,note_off,,,,,128,0,14,,,,,7,,,66,100
123584,note_off,,,,,128,0,15,,,,,7,,,58,100
123584,note_off,,,,,128,0,12,,,,,5,,,58,100
123616,note_off,,,,,64,0,8,,,,,1,,,73,100
123648,note_on,,,,,0,0,14,,,,,7,,,66,100
123648,note_on,,,,,64,0,14,,,,,7,,,62,100
123648,note_on,,,,,64,0,15,,,,,7,,,59,100
123648,note_on,,,,,64,0,12,,,,,5,,,59,85
123648,note_on,,,,,32,0,8,,,,,1,,,74,100
123648,note_on,,,,,64,0,13,,,,,6,,,47,85
123712,note_off,,,,,64,0,8,,,,,1,,,74,100
123744,note_on,,,,,32,0,8,,,,,1,,,73,100
123776,note_off,,,,,128,0,15,,,,,7,,,59,100
123776,note_off,,,,,128,0,14,,,,,7,,,62,100
123776,note_off,,,,,0,0,14,,,,,7,,,66,100
123776,note_off,,,,,128,0,12,,,,,5,,,59,100
123776,note_off,,,,,128,0,13,,,,,6,,,47,100
123808,note_off,,,,,64,0,8,,,,,1,,,73,100
123840,note_on,,,,,64,0,15,,,,,7,,,58,100
123840,note_on,,,,,0,0,14,,,,,7,,,66,100
123840,note_on,,,,,64,0,14,,,,,7,,,61,100
123840,note_on,,,,,64,0,13,,,,,6,,,46,85
123840,note_on,,,,,32,0,8,,,,,1,,,73,100
123840,note_on,,,,,64,0,12,,,,,5,,,58,85
123904,note_off,,,,,64,0,8,,,,,1,,,73,100
123936,note_on,,,,,32,0,8,,,,,1,,,73,100
123968,note_off,,,,,128,0,13,,,,,6,,,46,100
123968,note_off,,,,,128,0,14,,,,,7,,,61,100
123968,note_off,,,,,0,0,14,,,,,7,,,66,100
123968,note_off,,,,,128,0,15,,,,,7,,,58,100
123968,note_off,,,,,128,0,12,,,,,5,,,58,100
124000,note_off,,,,,64,0,8,,,,,1,,,73,100
124032,note_on,,,,,32,0,8,,,,,1,,,78,100
124096,note_off,,,,,64,0,8,,,,,1,,,78,100
124128,note_on,,,,,32,0,8,,,,,1,,,73,100
124192,note_off,,,,,64,0,8,,,,,1,,,73,100
124224,note_on,,,,,256,0,13,,,,,6,,,46,85
124224,note_on,,,,,256,0,12,,,,,5,,,58,85
124224,note_on,,,,,32,0,8,,,,,1,,,73,100
124224,note_on,,,,,256,0,15,,,,,7,,,58,100
124224,note_on,,,,,256,0,14,,,,,7,,,70,100
124224,note_on,,,,,0,0,14,,,,,7,,,64,100
124288,note_off,,,,,64,0,8,,,,,1,,,73,100
124320,note_on,,,,,32,0,8,,,,,1,,,73,100
124352,note_off,,,,,0,0,14,,,,,7,,,64,100
124352,note_off,,,,,128,0,14,,,,,7,,,70,100
124352,note_off,,,,,128,0,15,,,,,7,,,58,100
124352,note_off,,,,,128,0,13,,,,,6,,,46,100
124352,note_off,,,,,128,0,12,,,,,5,,,58,100
124384,note_off,,,,,64,0,8,,,,,1,,,73,100
124416,note_on,,,,,64,0,14,,,,,7,,,66,100
124416,note_on,,,,,0,0,14,,,,,7,,,74,100
124416,note_on,,,,,32,0,8,,,,,1,,,74,100
124416,note_on,,,,,64,0,12,,,,,5,,,59,85
124416,note_on,,,,,64,0,13,,,,,6,,,47,85
124416,note_on,,,,,64,0,15,,,,,7,,,59,100
124512,note_on,,,,,9056,0,10,,,,,3,,,78,85
124544,note_off,,,,,128,0,14,,,,,7,,,66,100
124544,note_off,,,,,128,0,8,,,,,1,,,74,100
124544,note_off,,,,,128,0,12,,,,,5,,,59,100
124544,note_off,,,,,128,0,13,,,,,6,,,47,100
124544,note_off,,,,,0,0,14,,,,,7,,,74,100
124544,note_off,,,,,128,0,15,,,,,7,,,59,100
124576,note_off,,,,,64,0,10,,,,,3,,,78,100
124608,note_on,,,,,64,0,13,,,,,6,,,35,85
124608,note_on,,,,,0,0,14,,,,,7,,,66,100
124608,note_on,,,,,64,0,15,,,,,7,,,47,100
124608,note_on,,,,,64,0,14,,,,,7,,,62,100
124608,note_on,,,,,32,0,10,,,,,3,,,78,85
124608,note_on,,,,,64,0,8,,,,,1,,,71,100
124608,note_on,,,,,64,0,12,,,,,5,,,47,85
124672,note_off,,,,,64,0,10,,,,,3,,,78,100
124704,note_on,,,,,32,0,10,,,,,3,,,78,85
124736,note_off,,,,,128,0,8,,,,,1,,,71,100
124736,note_off,,,,,0,0,14,,,,,7,,,66,100
124736,note_off,,,,,128,0,14,,,,,7,,,62,100
124736,note_off,,,,,128,0,13,,,,,6,,,35,100
124736,note_off,,,,,128,0,12,,,,,5,,,47,100
124736,note_off,,,,,128,0,15,,,,,7,,,47,100
124768,note_off,,,,,64,0,10,,,,,3,,,78,100
124800,note_on,,,,,32,0,10,,,,,3,,,83,85
124864,note_off,,,,,64,0,10,,,,,3,,,83,100
124896,note_on,,,,,32,0,10,,,,,3,,,78,85
124960,note_off,,,,,64,0,10,,,,,3,,,78,100
124992,note_on,,,,,256,0,15,,,,,7,,,62,100
124992,note_on,,,,,32,0,10,,,,,3,,,78,85
124992,note_on,,,,,256,0,12,,,,,5,,,62,70
124992,note_on,,,,,256,0,13,,,,,6,,,50,70
124992,note_on,,,,,256,0,14,,,,,7,,,66,100
124992,note_on,,,,,0,0,14,,,,,7,,,69,100
125056,note_off,,,,,64,0,10,,,,,3,,,78,100
125088,note_on,,,,,32,0,10,,,,,3,,,78,85
125120,note_off,,,,,128,0,15,,,,,7,,,62,100
125120,note_off,,,,,128,0,13,,,,,6,,,50,100
125120,note_off,,,,,0,0,14,,,,,7,,,69,100
125120,note_off,,,,,128,0,12,,,,,5,,,62,100
125120,note_off,,,,,128,0,14,,,,,7,,,66,100
125152,note_off,,,,,64,0,10,,,,,3,,,78,100
125184,note_on,,,,,64,0,12,,,,,5,,,64,70
125184,note_on,,,,,64,0,13,,,,,6,,,52,70
125184,note_on,,,,,64,0,14,,,,,7,,,67,100
125184,note_on,,,,,32,0,10,,,,,3,,,79,85
125184,note_on,,,,,64,0,15,,,,,7,,,64,100
125184,note_on,,,,,0,0,14,,,,,7,,,71,100
125248,note_off,,,,,64,0,10,,,,,3,,,79,100
125280,note_on,,,,,32,0,10,,,,,3,,,78,85
125312,note_off,,,,,128,0,13,,,,,6,,,52,100
125312,note_off,,,,,128,0,12,,,,,5,,,64,100
125312,note_off,,,,,128,0,14,,,,,7,,,67,100
125312,note_off,,,,,0,0,14,,,,,7,,,71,100
125312,note_off,,,,,128,0,15,,,,,7,,,64,100
125344,note_off,,,,,64,0,10,,,,,3,,,78,100
125376,note_on,,,,,32,0,10,,,,,3,,,78,85
125376,note_on,,,,,64,0,13,,,,,6,,,50,70
125376,note_on,,,,,0,0,14,,,,,7,,,69,100
125376,note_on,,,,,64,0,12,,,,,5,,,62,70
125376,note_on,,,,,64,0,15,,,,,7,,,62,100
125376,note_on,,,,,64,0,14,,,,,7,,,66,100
125440,note_off,,,,,64,0,10,,,,,3,,,78,100
125472,note_on,,,,,32,0,10,,,,,3,,,78,85
125504,note_off,,,,,128,0,14,,,,,7,,,66,100
125504,note_off,,,,,0,0,14,,,,,7,,,69,100
125504,note_off,,,,,128,0,13,,,,,6,,,50,100
125504,note_off,,,,,128,0,15,,,,,7,,,62,100
125504,note_off,,,,,128,0,12,,,,,5,,,62,100
125536,note_off,,,,,64,0,10,,,,,3,,,78,100
125568,note_on,,,,,32,0,10,,,,,3,,,83,85
125632,note_off,,,,,64,0,10,,,,,3,,,83,100
125664,note_on,,,,,32,0,10,,,,,3,,,78,85
125728,note_off,,,,,64,0,10,,,,,3,,,78,100
125760,note_on,,,,,256,0,13,,,,,6,,,50,70
125760,note_on,,,,,256,0,15,,,,,7,,,62,100
125760,note_on,,,,,256,0,12,,,,,5,,,62,70
125760,note_on,,,,,0,0,14,,,,,7,,,69,100
125760,note_on,,,,,256,0,14,,,,,7,,,66,100
125760,note_on,,,,,32,0,10,,,,,3,,,78,85
125824,note_off,,,,,64,0,10,,,,,3,,,78,100
125856,note_on,,,,,32,0,10,,,,,3,,,78,85
125888,note_off,,,,,128,0,12,,,,,5,,,62,100
125888,note_off,,,,,128,0,15,,,,,7,,,62,100
125888,note_off,,,,,128,0,14,,,,,7,,,66,100
125888,note_off,,,,,0,0,14,,,,,7,,,69,100
125888,note_off,,,,,128,0,13,,,,,6,,,50,100
125920,note_off,,,,,64,0,10,,,,,3,,,78,100
125952,note_on,,,,,64,0,13,,,,,6,,,52,70
125952,note_on,,,,,64,0,12,,,,,5,,,64,70
125952,note_on,,,,,0,0,14,,,,,7,,,71,100
125952,note_on,,,,,64,0,14,,,,,7,,,67,100
125952,note_on,,,,,32,0,10,,,,,3,,,79,85
125952,note_on,,,,,64,0,15,,,,,7,,,64,100
126016,note_off,,,,,64,0,10,,,,,3,,,79,100
126048,note_on,,,,,32,0,10,,,,,3,,,76,85
126080,note_off,,,,,128,0,15,,,,,7,,,64,100
126080,note_off,,,,,0,0,14,,,,,7,,,71,100
126080,note_off,,,,,128,0,14,,,,,7,,,67,100
126080,note_off,,,,,128,0,12,,,,,5,,,64,100
126080,note_off,,,,,128,0,13,,,,,6,,,52,100
126112,note_off,,,,,64,0,10,,,,,3,,,76,100
126144,note_on,,,,,64,0,15,,,,,7,,,61,100
126144,note_on,,,,,64,0,14,,,,,7,,,67,100
126144,note_on,,,,,64,0,13,,,,,6,,,49,70
126144,note_on,,,,,32,0,10,,,,,3,,,76,85
126144,note_on,,,,,0,0,14,,,,,7,,,71,100
126144,note_on,,,,,64,0,12,,,,,5,,,61,70
126208,note_off,,,,,64,0,10,,,,,3,,,76,100
126240,note_on,,,,,32,0,10,,,,,3,,,76,85
126272,note_off,,,,,128,0,12,,,,,5,,,61,100
126272,note_off,,,,,0,0,14,,,,,7,,,71,100
126272,note_off,,,,,128,0,14,,,,,7,,,67,100
126272,note_off,,,,,128,0,13,,,,,6,,,49,100
126272,note_off,,,,,128,0,15,,,,,7,,,61,100
126304,note_off,,,,,64,0,10,,,,,3,,,76,100
126336,note_on,,,,,32,0,10,,,,,3,,,81,85
126400,note_off,,,,,64,0,10,,,,,3,,,81,100
126432,note_on,,,,,32,0,10,,,,,3,,,76,85
126496,note_off,,,,,64,0,10,,,,,3,,,76,100
126528,note_on,,,,,32,0,10,,,,,3,,,76,85
126528,note_on,,,,,0,0,14,,,,,7,,,69,100
126528,note_on,,,,,256,0,14,,,,,7,,,64,100
126528,note_on,,,,,256,0,13,,,,,6,,,49,70
126528,note_on,,,,,256,0,15,,,,,7,,,61,100
126528,note_on,,,,,256,0,12,,,,,5,,,61,70
126592,note_off,,,,,64,0,10,,,,,3,,,76,100
126624,note_on,,,,,32,0,10,,,,,3,,,76,85
126656,note_off,,,,,128,0,15,,,,,7,,,61,100
126656,note_off,,,,,128,0,13,,,,,6,,,49,100
126656,note_off,,,,,0,0,14,,,,,7,,,69,100
126656,note_off,,,,,128,0,14,,,,,7,,,64,100
126656,note_off,,,,,128,0,12,,,,,5,,,61,100
126688,note_off,,,,,64,0,10,,,,,3,,,76,100
126720,note_on,,,,,64,0,13,,,,,6,,,50,70
126720,note_on,,,,,64,0,12,,,,,5,,,62,70
126720,note_on,,,,,32,0,10,,,,,3,,,78,85
126720,note_on,,,,,64,0,15,,,,,7,,,62,100
126720,note_on,,,,,0,0,14,,,,,7,,,66,100
126720,note_on,,,,,64,0,14,,,,,7,,,69,100
126784,note_off,,,,,64,0,10,,,,,3,,,78,100
126816,note_on,,,,,32,0,10,,,,,3,,,76,85
126848,note_off,,,,,128,0,15,,,,,7,,,62,100
126848,note_off,,,,,128,0,13,,,,,6,,,50,100
126848,note_off,,,,,128,0,14,,,,,7,,,69,100
126848,note_off,,,,,0,0,14,,,,,7,,,66,100
126848,note_off,,,,,128,0,12,,,,,5,,,62,100
126880,note_off,,,,,64,0,10,,,,,3,,,76,100
126912,note_on,,,,,64,0,15,,,,,7,,,61,100
126912,note_on,,,,,64,0,12,,,,,5,,,61,70
126912,note_on,,,,,64,0,13,,,,,6,,,49,70
126912,note_on,,,,,32,0,10,,,,,3,,,76,85
126912,note_on,,,,,0,0,14,,,,,7,,,69,100
126912,note_on,,,,,64,0,14,,,,,7,,,64,100
126976,note_off,,,,,64,0,10,,,,,3,,,76,100
127008,note_on,,,,,32,0,10,,,,,3,,,76,85
127040,note_off,,,,,128,0,14,,,,,7,,,64,100
127040,note_off,,,,,128,0,12,,,,,5,,,61,100
127040,note_off,,,,,128,0,15,,,,,7,,,61,100
127040,note_off,,,,,0,0,14,,,,,7,,,69,100
127040,note_off,,,,,128,0,13,,,,,6,,,49,100
127072,note_off,,,,,64,0,10,,,,,3,,,76,100
127104,note_on,,,,,32,0,10,,,,,3,,,81,85
127168,note_off,,,,,64,0,10,,,,,3,,,81,100
127200,note_on,,,,,32,0,10,,,,,3,,,76,85
127264,note_off,,,,,64,0,10,,,,,3,,,76,100
127296,note_on,,,,,32,0,10,,,,,3,,,76,85
127296,note_on,,,,,256,0,15,,,,,7,,,61,100
127296,note_on,,,,,256,0,12,,,,,5,,,61,70
127296,note_on,,,,,0,0,14,,,,,7,,,69,100
127296,note_on,,,,,256,0,13,,,,,6,,,49,70
127296,note_on,,,,,256,0,14,,,,,7,,,64,100
127360,note_off,,,,,64,0,10,,,,,3,,,76,100
127392,note_on,,,,,32,0,10,,,,,3,,,76,85
127424,note_off,,,,,128,0,15,,,,,7,,,61,100
127424,note_off,,,,,128,0,13,,,,,6,,,49,100
127424,note_off,,,,,128,0,14,,,,,7,,,64,100
127424,note_off,,,,,0,0,14,,,,,7,,,69,100
127424,note_off,,,,,128,0,12,,,,,5,,,61,100
127456,note_off,,,,,64,0,10,,,,,3,,,76,100
127488,note_on,,,,,64,0,13,,,,,6,,,50,70
127488,note_on,,,,,0,0,14,,,,,7,,,69,100
127488,note_on,,,,,32,0,10,,,,,3,,,78,85
127488,note_on,,,,,64,0,12,,,,,5,,,62,70
127488,note_on,,,,,64,0,15,,,,,7,,,62,100
127488,note_on,,,,,64,0,14,,,,,7,,,66,100
127552,note_off,,,,,64,0,10,,,,,3,,,78,100
127584,note_on,,,,,32,0,10,,,,,3,,,74,85
127616,note_off,,,,,128,0,12,,,,,5,,,62,100
127616,note_off,,,,,128,0,13,,,,,6,,,50,100
127616,note_off,,,,,0,0,14,,,,,7,,,69,100
127616,note_off,,,,,128,0,15,,,,,7,,,62,100
127616,note_off,,,,,128,0,14,,,,,7,,,66,100
127648,note_off,,,,,64,0,10,,,,,3,,,74,100
127680,note_on,,,,,64,0,15,,,,,7,,,59,100
127680,note_on,,,,,64,0,14,,,,,7,,,66,100
127680,note_on,,,,,0,0,14,,,,,7,,,69,100
127680,note_on,,,,,64,0,12,,,,,5,,,59,70
127680,note_on,,,,,64,0,13,,,,,6,,,47,70
127680,note_on,,,,,32,0,10,,,,,3,,,74,85
127744,note_off,,,,,64,0,10,,,,,3,,,74,100
127776,note_on,,,,,32,0,10,,,,,3,,,74,85
127808,note_off,,,,,128,0,14,,,,,7,,,66,100
127808,note_off,,,,,0,0,14,,,,,7,,,69,100
127808,note_off,,,,,128,0,12,,,,,5,,,59,100
127808,note_off,,,,,128,0,13,,,,,6,,,47,100
127808,note_off,,,,,128,0,15,,,,,7,,,59,100
127840,note_off,,,,,64,0,10,,,,,3,,,74,100
127872,note_on,,,,,32,0,10,,,,,3,,,79,85
127936,note_off,,,,,64,0,10,,,,,3,,,79,100
127968,note_on,,,,,32,0,10,,,,,3,,,74,85
128032,note_off,,,,,64,0,10,,,,,3,,,74,100
128064,note_on,,,,,256,0,14,,,,,7,,,67,100
128064,note_on,,,,,0,0,14,,,,,7,,,62,100
128064,note_on,,,,,256,0,13,,,,,6,,,47,70
128064,note_on,,,,,256,0,12,,,,,5,,,59,70
128064,note_on,,,,,256,0,15,,,,,7,,,59,100
128064,note_on,,,,,32,0,10,,,,,3,,,74,85
128128,note_off,,,,,64,0,10,,,,,3,,,74,100
128160,note_on,,,,,32,0,10,,,,,3,,,74,85
128192,note_off,,,,,128,0,15,,,,,7,,,59,100
128192,note_off,,,,,128,0,14,,,,,7,,,67,100
128192,note_off,,,,,0,0,14,,,,,7,,,62,100
128192,note_off,,,,,128,0,12,,,,,5,,,59,100
128192,note_off,,,,,128,0,13,,,,,6,,,47,100
128224,note_off,,,,,64,0,10,,,,,3,,,74,100
128256,note_on,,,,,0,0,14,,,,,7,,,67,100
128256,note_on,,,,,64,0,14,,,,,7,,,64,100
128256,note_on,,,,,64,0,12,,,,,5,,,61,70
128256,note_on,,,,,64,0,15,,,,,7,,,61,100
128256,note_on,,,,,32,0,10,,,,,3,,,76,85
128256,note_on,,,,,64,0,13,,,,,6,,,49,70
128320,note_off,,,,,64,0,10,,,,,3,,,76,100
128352,note_on,,,,,32,0,10,,,,,3,,,74,85
128384,note_off,,,,,128,0,13,,,,,6,,,49,100
128384,note_off,,,,,128,0,15,,,,,7,,,61,100
128384,note_off,,,,,0,0,14,,,,,7,,,67,100
128384,note_off,,,,,128,0,12,,,,,5,,,61,100
128384,note_off,,,,,128,0,14,,,,,7,,,64,100
128416,note_off,,,,,64,0,10,,,,,3,,,74,100
128448,note_on,,,,,64,0,12,,,,,5,,,59,70
128448,note_on,,,,,64,0,15,,,,,7,,,59,100
128448,note_on,,,,,64,0,13,,,,,6,,,47,70
128448,note_on,,,,,32,0,10,,,,,3,,,74,85
128448,note_on,,,,,64,0,14,,,,,7,,,67,100
128448,note_on,,,,,0,0,14,,,,,7,,,62,100
128512,note_off,,,,,64,0,10,,,,,3,,,74,100
128544,note_on,,,,,32,0,10,,,,,3,,,74,85
128576,note_off,,,,,128,0,12,,,,,5,,,59,100
128576,note_off,,,,,128,0,13,,,,,6,,,47,100
128576,note_off,,,,,0,0,14,,,,,7,,,62,100
128576,note_off,,,,,128,0,14,,,,,7,,,67,100
128576,note_off,,,,,128,0,15,,,,,7,,,59,100
128608,note_off,,,,,64,0,10,,,,,3,,,74,100
128640,note_on,,,,,32,0,10,,,,,3,,,79,85
128704,note_off,,,,,64,0,10,,,,,3,,,79,100
128736,note_on,,,,,32,0,10,,,,,3,,,74,85
128800,note_off,,,,,64,0,10,,,,,3,,,74,100
128832,note_on,,,,,256,0,14,,,,,7,,,62,100
128832,note_on,,,,,256,0,15,,,,,7,,,59,100
128832,note_on,,,,,256,0,13,,,,,6,,,47,70
128832,note_on,,,,,0,0,14,,,,,7,,,67,100
128832,note_on,,,,,32,0,10,,,,,3,,,74,85
128832,note_on,,,,,256,0,12,,,,,5,,,59,70
128896,note_off,,,,,64,0,10,,,,,3,,,74,100
128928,note_on,,,,,32,0,10,,,,,3,,,74,85
128960,note_off,,,,,0,0,14,,,,,7,,,67,100
128960,note_off,,,,,128,0,15,,,,,7,,,59,100
128960,note_off,,,,,128,0,12,,,,,5,,,59,100
128960,note_off,,,,,128,0,14,,,,,7,,,62,100
128960,note_off,,,,,128,0,13,,,,,6,,,47,100
128992,note_off,,,,,64,0,10,,,,,3,,,74,100
129024,note_on,,,,,64,0,12,,,,,5,,,61,70
129024,note_on,,,,,64,0,13,,,,,6,,,49,70
129024,note_on,,,,,64,0,15,,,,,7,,,61,100
129024,note_on,,,,,0,0,14,,,,,7,,,67,100
129024,note_on,,,,,64,0,14,,,,,7,,,64,100
129024,note_on,,,,,32,0,10,,,,,3,,,76,85
129088,note_off,,,,,64,0,10,,,,,3,,,76,100
129120,note_on,,,,,32,0,10,,,,,3,,,73,85
129152,note_off,,,,,128,0,15,,,,,7,,,61,100
129152,note_off,,,,,128,0,13,,,,,6,,,49,100
129152,note_off,,,,,0,0,14,,,,,7,,,67,100
129152,note_off,,,,,128,0,14,,,,,7,,,64,100
129152,note_off,,,,,128,0,12,,,,,5,,,61,100
129184,note_off,,,,,64,0,10,,,,,3,,,73,100
129216,note_on,,,,,32,0,10,,,,,3,,,73,85
129216,note_on,,,,,64,0,12,,,,,5,,,58,70
129216,note_on,,,,,0,0,14,,,,,7,,,67,100
129216,note_on,,,,,64,0,14,,,,,7,,,64,100
129216,note_on,,,,,64,0,15,,,,,7,,,58,100
129216,note_on,,,,,64,0,13,,,,,6,,,46,70
129280,note_off,,,,,64,0,10,,,,,3,,,73,100
129312,note_on,,,,,32,0,10,,,,,3,,,73,85
129344,note_off,,,,,128,0,13,,,,,6,,,46,100
129344,note_off,,,,,128,0,14,,,,,7,,,64,100
129344,note_off,,,,,128,0,12,,,,,5,,,58,100
129344,note_off,,,,,0,0,14,,,,,7,,,67,100
129344,note_off,,,,,128,0,15,,,,,7,,,58,100
129376,note_off,,,,,64,0,10,,,,,3,,,73,100
129408,note_on,,,,,32,0,10,,,,,3,,,78,85
129472,note_off,,,,,64,0,10,,,,,3,,,78,100
129504,note_on,,,,,32,0,10,,,,,3,,,73,85
129568,note_off,,,,,64,0,10,,,,,3,,,73,100
129600,note_on,,,,,256,0,13,,,,,6,,,46,70
129600,note_on,,,,,256,0,12,,,,,5,,,58,70
129600,note_on,,,,,256,0,15,,,,,7,,,58,100
129600,note_on,,,,,0,0,14,,,,,7,,,61,100
129600,note_on,,,,,256,0,14,,,,,7,,,66,100
129600,note_on,,,,,32,0,10,,,,,3,,,73,85
129664,note_off,,,,,64,0,10,,,,,3,,,73,100
129696,note_on,,,,,32,0,10,,,,,3,,,73,85
129728,note_off,,,,,128,0,15,,,,,7,,,58,100
129728,note_off,,,,,128,0,13,,,,,6,,,46,100
129728,note_off,,,,,128,0,12,,,,,5,,,58,100
129728,note_off,,,,,0,0,14,,,,,7,,,61,100
129728,note_off,,,,,128,0,14,,,,,7,,,66,100
129760,note_off,,,,,64,0,10,,,,,3,,,73,100
129792,note_on,,,,,32,0,10,,,,,3,,,74,85
129792,note_on,,,,,64,0,13,,,,,6,,,47,70
129792,note_on,,,,,0,0,14,,,,,7,,,66,100
129792,note_on,,,,,64,0,15,,,,,7,,,59,100
129792,note_on,,,,,64,0,12,,,,,5,,,59,70
129792,note_on,,,,,64,0,14,,,,,7,,,62,100
129856,note_off,,,,,64,0,10,,,,,3,,,74,100
129888,note_on,,,,,32,0,10,,,,,3,,,73,85
129920,note_off,,,,,128,0,15,,,,,7,,,59,100
129920,note_off,,,,,128,0,13,,,,,6,,,47,100
129920,note_off,,,,,128,0,12,,,,,5,,,59,100
129920,note_off,,,,,128,0,14,,,,,7,,,62,100
129920,note_off,,,,,0,0,14,,,,,7,,,66,100
129952,note_off,,,,,64,0,10,,,,,3,,,73,100
129984,note_on,,,,,64,0,12,,,,,5,,,58,70
129984,note_on,,,,,64,0,13,,,,,6,,,46,70
129984,note_on,,,,,64,0,14,,,,,7,,,61,100
129984,note_on,,,,,0,0,14,,,,,7,,,66,100
129984,note_on,,,,,64,0,15,,,,,7,,,58,100
129984,note_on,,,,,32,0,10,,,,,3,,,73,85
130048,note_off,,,,,64,0,10,,,,,3,,,73,100
130080,note_on,,,,,32,0,10,,,,,3,,,73,85
130112,note_off,,,,,128,0,14,,,,,7,,,61,100
130112,note_off,,,,,0,0,14,,,,,7,,,66,100
130112,note_off,,,,,128,0,12,,,,,5,,,58,100
130112,note_off,,,,,128,0,15,,,,,7,,,58,100
130112,note_off,,,,,128,0,13,,,,,6,,,46,100
130144,note_off,,,,,64,0,10,,,,,3,,,73,100
130176,note_on,,,,,32,0,10,,,,,3,,,78,85
130240,note_off,,,,,64,0,10,,,,,3,,,78,100
130272,note_on,,,,,32,0,10,,,,,3,,,73,85
130336,note_off,,,,,64,0,10,,,,,3,,,73,100
130368,note_on,,,,,256,0,12,,,,,5,,,58,70
130368,note_on,,,,,0,0,14,,,,,7,,,64,100
130368,note_on,,,,,256,0,14,,,,,7,,,70,100
130368,note_on,,,,,256,0,13,,,,,6,,,46,70
130368,note_on,,,,,32,0,10,,,,,3,,,73,85
130368,note_on,,,,,256,0,15,,,,,7,,,58,100
130432,note_off,,,,,64,0,10,,,,,3,,,73,100
130464,note_on,,,,,32,0,10,,,,,3,,,73,85
130496,note_off,,,,,128,0,12,,,,,5,,,58,100
130496,note_off,,,,,0,0,14,,,,,7,,,64,100
130496,note_off,,,,,128,0,13,,,,,6,,,46,100
130496,note_off,,,,,128,0,14,,,,,7,,,70,100
130496,note_off,,,,,128,0,15,,,,,7,,,58,100
130528,note_off,,,,,64,0,10,,,,,3,,,73,100
130556,program_change,,,,,21180,0,7,,,,,0,40,,,
130560,note_on,,,,,64,0,15,,,,,7,,,59,100
130560,note_on,,,,,5824,0,8,,,,,1,,,74,85
130560,note_on,,,,,64,0,13,,,,,6,,,47,70
130560,note_on,,,,,32,0,10,,,,,3,,,74,85
130560,note_on,,,,,0,0,14,,,,,7,,,74,100
130560,note_on,,,,,4,0,7,,,,,0,,,74,100
130560,note_on,,,,,64,0,14,,,,,7,,,66,100
130560,note_on,,,,,64,0,12,,,,,5,,,59,70
130624,note_off,,,,,64,0,7,,,,,0,,,74,100
130656,note_on,,,,,32,0,7,,,,,0,,,83,100
130688,note_off,,,,,128,0,12,,,,,5,,,59,100
130688,note_off,,,,,128,0,15,,,,,7,,,59,100
130688,note_off,,,,,128,0,10,,,,,3,,,74,100
130688,note_off,,,,,128,0,8,,,,,1,,,74,100
130688,note_off,,,,,0,0,14,,,,,7,,,74,100
130688,note_off,,,,,128,0,13,,,,,6,,,47,100
130688,note_off,,,,,128,0,14,,,,,7,,,66,100
130720,note_off,,,,,64,0,7,,,,,0,,,83,100
130752,note_on,,,,,64,0,15,,,,,7,,,47,100
130752,note_on,,,,,32,0,7,,,,,0,,,83,100
130752,note_on,,,,,0,0,14,,,,,7,,,66,100
130752,note_on,,,,,64,0,14,,,,,7,,,62,100
130752,note_on,,,,,64,0,8,,,,,1,,,74,100
130752,note_on,,,,,64,0,13,,,,,6,,,35,70
130752,note_on,,,,,64,0,12,,,,,5,,,47,70
130752,note_on,,,,,64,0,10,,,,,3,,,71,85
130816,note_off,,,,,64,0,7,,,,,0,,,83,100
130848,note_on,,,,,32,0,7,,,,,0,,,83,100
130880,note_off,,,,,128,0,14,,,,,7,,,62,100
130880,note_off,,,,,128,0,12,,,,,5,,,47,100
130880,note_off,,,,,128,0,10,,,,,3,,,71,100
130880,note_off,,,,,0,0,14,,,,,7,,,66,100
130880,note_off,,,,,128,0,8,,,,,1,,,74,100
130880,note_off,,,,,128,0,15,,,,,7,,,47,100
130880,note_off,,,,,128,0,13,,,,,6,,,35,100
130912,note_off,,,,,64,0,7,,,,,0,,,83,100
130944,note_on,,,,,32,0,7,,,,,0,,,74,100
130944,note_on,,,,,64,0,10,,,,,3,,,71,100
130944,note_on,,,,,64,0,8,,,,,1,,,74,100
131008,note_off,,,,,64,0,7,,,,,0,,,74,100
131040,note_on,,,,,32,0,7,,,,,0,,,83,100
131072,note_off,,,,,128,0,10,,,,,3,,,71,100
131072,note_off,,,,,128,0,8,,,,,1,,,74,100
131104,note_off,,,,,64,0,7,,,,,0,,,83,100
131136,note_on,,,,,64,0,8,,,,,1,,,74,100
131136,note_on,,,,,64,0,10,,,,,3,,,71,100
131136,note_on,,,,,32,0,7,,,,,0,,,83,100
131200,note_off,,,,,64,0,7,,,,,0,,,83,100
131232,note_on,,,,,32,0,7,,,,,0,,,83,100
131264,note_off,,,,,128,0,10,,,,,3,,,71,100
131264,note_off,,,,,128,0,8,,,,,1,,,74,100
131296,note_off,,,,,64,0,7,,,,,0,,,83,100
131328,note_on,,,,,64,0,10,,,,,3,,,73,100
131328,note_on,,,,,64,0,8,,,,,1,,,76,100
131328,note_on,,,,,32,0,7,,,,,0,,,76,100
131392,note_off,,,,,64,0,7,,,,,0,,,76,100
131424,note_on,,,,,32,0,7,,,,,0,,,83,100
131456,note_off,,,,,128,0,8,,,,,1,,,76,100
131456,note_off,,,,,128,0,10,,,,,3,,,73,100
131488,note_off,,,,,64,0,7,,,,,0,,,83,100
131520,note_on,,,,,32,0,7,,,,,0,,,83,100
131520,note_on,,,,,64,0,8,,,,,1,,,76,100
131520,note_on,,,,,64,0,10,,,,,3,,,73,100
131584,note_off,,,,,64,0,7,,,,,0,,,83,100
131616,note_on,,,,,32,0,7,,,,,0,,,83,100
131648,note_off,,,,,128,0,8,,,,,1,,,76,100
131648,note_off,,,,,128,0,10,,,,,3,,,73,100
131680,note_off,,,,,64,0,7,,,,,0,,,83,100
131712,note_on,,,,,64,0,10,,,,,3,,,73,100
131712,note_on,,,,,64,0,8,,,,,1,,,76,100
131712,note_on,,,,,32,0,7,,,,,0,,,76,100
131776,note_off,,,,,64,0,7,,,,,0,,,76,100
131808,note_on,,,,,32,0,7,,,,,0,,,83,100
131840,note_off,,,,,128,0,8,,,,,1,,,76,100
131840,note_off,,,,,128,0,10,,,,,3,,,73,100
131872,note_off,,,,,64,0,7,,,,,0,,,83,100
131904,note_on,,,,,64,0,10,,,,,3,,,73,100
131904,note_on,,,,,32,0,7,,,,,0,,,83,100
131904,note_on,,,,,64,0,8,,,,,1,,,76,100
131968,note_off,,,,,64,0,7,,,,,0,,,83,100
132000,note_on,,,,,32,0,7,,,,,0,,,83,100
132032,note_off,,,,,128,0,10,,,,,3,,,73,100
132032,note_off,,,,,128,0,8,,,,,1,,,76,100
132064,note_off,,,,,64,0,7,,,,,0,,,83,100
132096,note_on,,,,,64,0,8,,,,,1,,,78,100
132096,note_on,,,,,32,0,7,,,,,0,,,78,100
132096,note_on,,,,,64,0,10,,,,,3,,,74,100
132160,note_off,,,,,64,0,7,,,,,0,,,78,100
132192,note_on,,,,,32,0,7,,,,,0,,,83,100
132224,note_off,,,,,128,0,10,,,,,3,,,74,100
132224,note_off,,,,,128,0,8,,,,,1,,,78,100
132256,note_off,,,,,64,0,7,,,,,0,,,83,100
132288,note_on,,,,,64,0,8,,,,,1,,,78,100
132288,note_on,,,,,64,0,10,,,,,3,,,74,100
132288,note_on,,,,,32,0,7,,,,,0,,,83,100
132352,note_off,,,,,64,0,7,,,,,0,,,83,100
132384,note_on,,,,,32,0,7,,,,,0,,,83,100
132416,note_off,,,,,128,0,10,,,,,3,,,74,100
132416,note_off,,,,,128,0,8,,,,,1,,,78,100
132448,note_off,,,,,64,0,7,,,,,0,,,83,100
132480,note_on,,,,,64,0,8,,,,,1,,,78,100
132480,note_on,,,,,32,0,7,,,,,0,,,78,100
132480,note_on,,,,,64,0,10,,,,,3,,,74,100
132544,note_off,,,,,64,0,7,,,,,0,,,78,100
132576,note_on,,,,,32,0,7,,,,,0,,,83,100
132608,note_off,,,,,128,0,10,,,,,3,,,74,100
132608,note_off,,,,,128,0,8,,,,,1,,,78,100
132640,note_off,,,,,64,0,7,,,,,0,,,83,100
132672,note_on,,,,,32,0,7,,,,,0,,,83,100
132672,note_on,,,,,64,0,10,,,,,3,,,74,100
132672,note_on,,,,,64,0,8,,,,,1,,,78,100
132736,note_off,,,,,64,0,7,,,,,0,,,83,100
132768,note_on,,,,,32,0,7,,,,,0,,,83,100
132800,note_off,,,,,128,0,10,,,,,3,,,74,100
132800,note_off,,,,,128,0,8,,,,,1,,,78,100
132832,note_off,,,,,64,0,7,,,,,0,,,83,100
132864,note_on,,,,,64,0,10,,,,,3,,,76,100
132864,note_on,,,,,64,0,8,,,,,1,,,79,100
132864,note_on,,,,,32,0,7,,,,,0,,,79,100
132928,note_off,,,,,64,0,7,,,,,0,,,79,100
132960,note_on,,,,,32,0,7,,,,,0,,,83,100
132992,note_off,,,,,128,0,8,,,,,1,,,79,100
132992,note_off,,,,,128,0,10,,,,,3,,,76,100
133024,note_off,,,,,64,0,7,,,,,0,,,83,100
133056,note_on,,,,,32,0,7,,,,,0,,,83,100
133056,note_on,,,,,64,0,8,,,,,1,,,79,100
133056,note_on,,,,,64,0,10,,,,,3,,,76,100
133120,note_off,,,,,64,0,7,,,,,0,,,83,100
133152,note_on,,,,,32,0,7,,,,,0,,,83,100
133184,note_off,,,,,128,0,8,,,,,1,,,79,100
133184,note_off,,,,,128,0,10,,,,,3,,,76,100
133216,note_off,,,,,64,0,7,,,,,0,,,83,100
133248,note_on,,,,,64,0,8,,,,,1,,,79,100
133248,note_on,,,,,32,0,7,,,,,0,,,79,100
133248,note_on,,,,,64,0,10,,,,,3,,,76,100
133312,note_off,,,,,64,0,7,,,,,0,,,79,100
133344,note_on,,,,,32,0,7,,,,,0,,,83,100
133376,note_off,,,,,128,0,8,,,,,1,,,79,100
133376,note_off,,,,,128,0,10,,,,,3,,,76,100
133408,note_off,,,,,64,0,7,,,,,0,,,83,100
133440,note_on,,,,,64,0,8,,,,,1,,,79,100
133440,note_on,,,,,32,0,7,,,,,0,,,83,100
133440,note_on,,,,,64,0,10,,,,,3,,,76,100
133504,note_off,,,,,64,0,7,,,,,0,,,83,100
133536,note_on,,,,,32,0,7,,,,,0,,,83,100
133568,note_off,,,,,128,0,10,,,,,3,,,76,100
133568,note_off,,,,,128,0,8,,,,,1,,,79,100
133600,note_off,,,,,64,0,7,,,,,0,,,83,100
133632,note_on,,,,,64,0,10,,,,,3,,,71,85
133632,note_on,,,,,32,0,7,,,,,0,,,74,85
133632,note_on,,,,,64,0,8,,,,,1,,,74,85
133696,note_off,,,,,64,0,7,,,,,0,,,74,100
133728,note_on,,,,,32,0,7,,,,,0,,,83,85
133760,note_off,,,,,128,0,10,,,,,3,,,71,100
133760,note_off,,,,,128,0,8,,,,,1,,,74,100
133792,note_off,,,,,64,0,7,,,,,0,,,83,100
133824,note_on,,,,,64,0,8,,,,,1,,,74,85
133824,note_on,,,,,64,0,10,,,,,3,,,71,85
133824,note_on,,,,,32,0,7,,,,,0,,,83,85
133888,note_off,,,,,64,0,7,,,,,0,,,83,100
133920,note_on,,,,,32,0,7,,,,,0,,,83,85
133952,note_off,,,,,128,0,8,,,,,1,,,74,100
133952,note_off,,,,,128,0,10,,,,,3,,,71,100
133984,note_off,,,,,64,0,7,,,,,0,,,83,100
134016,note_on,,,,,32,0,7,,,,,0,,,74,85
134016,note_on,,,,,64,0,8,,,,,1,,,74,85
134016,note_on,,,,,64,0,10,,,,,3,,,71,85
134080,note_off,,,,,64,0,7,,,,,0,,,74,100
134112,note_on,,,,,32,0,7,,,,,0,,,83,85
134144,note_off,,,,,128,0,8,,,,,1,,,74,100
134144,note_off,,,,,128,0,10,,,,,3,,,71,100
134176,note_off,,,,,64,0,7,,,,,0,,,83,100
134208,note_on,,,,,64,0,8,,,,,1,,,74,85
134208,note_on,,,,,64,0,10,,,,,3,,,71,85
134208,note_on,,,,,32,0,7,,,,,0,,,83,85
134272,note_off,,,,,64,0,7,,,,,0,,,83,100
134304,note_on,,,,,32,0,7,,,,,0,,,83,85
134336,note_off,,,,,128,0,8,,,,,1,,,74,100
134336,note_off,,,,,128,0,10,,,,,3,,,71,100
134368,note_off,,,,,64,0,7,,,,,0,,,83,100
134400,note_on,,,,,64,0,8,,,,,1,,,76,85
134400,note_on,,,,,64,0,10,,,,,3,,,73,85
134400,note_on,,,,,32,0,7,,,,,0,,,76,85
134464,note_off,,,,,64,0,7,,,,,0,,,76,100
134496,note_on,,,,,32,0,7,,,,,0,,,83,85
134528,note_off,,,,,128,0,10,,,,,3,,,73,100
134528,note_off,,,,,128,0,8,,,,,1,,,76,100
134560,note_off,,,,,64,0,7,,,,,0,,,83,100
134592,note_on,,,,,32,0,7,,,,,0,,,83,85
134592,note_on,,,,,64,0,8,,,,,1,,,76,85
134592,note_on,,,,,64,0,10,,,,,3,,,73,85
134656,note_off,,,,,64,0,7,,,,,0,,,83,100
134688,note_on,,,,,32,0,7,,,,,0,,,83,85
134720,note_off,,,,,128,0,10,,,,,3,,,73,100
134720,note_off,,,,,128,0,8,,,,,1,,,76,100
134752,note_off,,,,,64,0,7,,,,,0,,,83,100
134784,note_on,,,,,32,0,7,,,,,0,,,76,85
134784,note_on,,,,,64,0,10,,,,,3,,,73,85
134784,note_on,,,,,64,0,8,,,,,1,,,76,85
134848,note_off,,,,,64,0,7,,,,,0,,,76,100
134880,note_on,,,,,32,0,7,,,,,0,,,83,85
134912,note_off,,,,,128,0,10,,,,,3,,,73,100
134912,note_off,,,,,128,0,8,,,,,1,,,76,100
134944,note_off,,,,,64,0,7,,,,,0,,,83,100
134976,note_on,,,,,64,0,10,,,,,3,,,73,85
134976,note_on,,,,,32,0,7,,,,,0,,,83,85
134976,note_on,,,,,64,0,8,,,,,1,,,76,85
135040,note_off,,,,,64,0,7,,,,,0,,,83,100
135072,note_on,,,,,32,0,7,,,,,0,,,83,85
135104,note_off,,,,,128,0,10,,,,,3,,,73,100
135104,note_off,,,,,128,0,8,,,,,1,,,76,100
135136,note_off,,,,,64,0,7,,,,,0,,,83,100
135168,note_on,,,,,64,0,8,,,,,1,,,78,85
135168,note_on,,,,,64,0,10,,,,,3,,,74,85
135168,note_on,,,,,32,0,7,,,,,0,,,78,85
135232,note_off,,,,,64,0,7,,,,,0,,,78,100
135264,note_on,,,,,32,0,7,,,,,0,,,83,85
135296,note_off,,,,,128,0,10,,,,,3,,,74,100
135296,note_off,,,,,128,0,8,,,,,1,,,78,100
135328,note_off,,,,,64,0,7,,,,,0,,,83,100
135360,note_on,,,,,64,0,8,,,,,1,,,78,85
135360,note_on,,,,,32,0,7,,,,,0,,,83,85
135360,note_on,,,,,64,0,10,,,,,3,,,74,85
135424,note_off,,,,,64,0,7,,,,,0,,,83,100
135456,note_on,,,,,32,0,7,,,,,0,,,83,85
135488,note_off,,,,,128,0,10,,,,,3,,,74,100
135488,note_off,,,,,128,0,8,,,,,1,,,78,100
135520,note_off,,,,,64,0,7,,,,,0,,,83,100
135552,note_on,,,,,64,0,10,,,,,3,,,74,85
135552,note_on,,,,,32,0,7,,,,,0,,,78,85
135552,note_on,,,,,64,0,8,,,,,1,,,78,85
135616,note_off,,,,,64,0,7,,,,,0,,,78,100
135648,note_on,,,,,32,0,7,,,,,0,,,83,85
135680,note_off,,,,,128,0,8,,,,,1,,,78,100
135680,note_off,,,,,128,0,10,,,,,3,,,74,100
135712,note_off,,,,,64,0,7,,,,,0,,,83,100
135744,note_on,,,,,64,0,8,,,,,1,,,78,85
135744,note_on,,,,,64,0,10,,,,,3,,,74,85
135744,note_on,,,,,32,0,7,,,,,0,,,83,85
135808,note_off,,,,,64,0,7,,,,,0,,,83,100
135840,note_on,,,,,32,0,7,,,,,0,,,83,85
135872,note_off,,,,,128,0,10,,,,,3,,,74,100
135872,note_off,,,,,128,0,8,,,,,1,,,78,100
135904,note_off,,,,,64,0,7,,,,,0,,,83,100
135936,note_on,,,,,64,0,10,,,,,3,,,76,85
135936,note_on,,,,,32,0,7,,,,,0,,,79,85
135936,note_on,,,,,64,0,8,,,,,1,,,79,85
136000,note_off,,,,,64,0,7,,,,,0,,,79,100
136032,note_on,,,,,32,0,7,,,,,0,,,83,85
136064,note_off,,,,,128,0,10,,,,,3,,,76,100
136064,note_off,,,,,128,0,8,,,,,1,,,79,100
136096,note_off,,,,,64,0,7,,,,,0,,,83,100
136128,note_on,,,,,32,0,7,,,,,0,,,83,85
136128,note_on,,,,,64,0,10,,,,,3,,,76,85
136128,note_on,,,,,64,0,8,,,,,1,,,79,85
136192,note_off,,,,,64,0,7,,,,,0,,,83,100
136224,note_on,,,,,32,0,7,,,,,0,,,83,85
136256,note_off,,,,,128,0,10,,,,,3,,,76,100
136256,note_off,,,,,128,0,8,,,,,1,,,79,100
136288,note_off,,,,,64,0,7,,,,,0,,,83,100
136320,note_on,,,,,64,0,10,,,,,3,,,76,85
136320,note_on,,,,,32,0,7,,,,,0,,,79,85
136320,note_on,,,,,64,0,8,,,,,1,,,79,85
136384,note_off,,,,,64,0,7,,,,,0,,,79,100
136416,note_on,,,,,32,0,7,,,,,0,,,83,85
136448,note_off,,,,,128,0,10,,,,,3,,,76,100
136448,note_off,,,,,128,0,8,,,,,1,,,79,100
136480,note_off,,,,,64,0,7,,,,,0,,,83,100
136512,note_on,,,,,32,0,7,,,,,0,,,83,85
136512,note_on,,,,,64,0,8,,,,,1,,,79,85
136512,note_on,,,,,64,0,10,,,,,3,,,76,85
136576,note_off,,,,,64,0,7,,,,,0,,,83,100
136608,note_on,,,,,32,0,7,,,,,0,,,83,85
136640,note_off,,,,,128,0,10,,,,,3,,,76,100
136640,note_off,,,,,128,0,8,,,,,1,,,79,100
136672,note_off,,,,,64,0,7,,,,,0,,,83,100
136704,note_on,,,,,32,0,7,,,,,0,,,74,100
136704,note_on,,,,,64,0,10,,,,,3,,,71,100
136704,note_on,,,,,64,0,8,,,,,1,,,74,100
136768,note_off,,,,,64,0,7,,,,,0,,,74,100
136800,note_on,,,,,32,0,7,,,,,0,,,83,100
136832,note_off,,,,,128,0,8,,,,,1,,,74,100
136832,note_off,,,,,128,0,10,,,,,3,,,71,100
136864,note_off,,,,,64,0,7,,,,,0,,,83,100
136896,note_on,,,,,32,0,7,,,,,0,,,83,100
136896,note_on,,,,,64,0,8,,,,,1,,,74,100
136896,note_on,,,,,64,0,10,,,,,3,,,71,100
136960,note_off,,,,,64,0,7,,,,,0,,,83,100
136992,note_on,,,,,32,0,7,,,,,0,,,83,101
137024,note_off,,,,,128,0,10,,,,,3,,,71,100
137024,note_off,,,,,128,0,8,,,,,1,,,74,100
137056,note_off,,,,,64,0,7,,,,,0,,,83,100
137088,note_on,,,,,32,0,7,,,,,0,,,74,101
137088,note_on,,,,,64,0,8,,,,,1,,,74,101
137088,note_on,,,,,64,0,10,,,,,3,,,71,101
137152,note_off,,,,,64,0,7,,,,,0,,,74,100
137184,note_on,,,,,32,0,7,,,,,0,,,83,102
137216,note_off,,,,,128,0,10,,,,,3,,,71,100
137216,note_off,,,,,128,0,8,,,,,1,,,74,100
137248,note_off,,,,,64,0,7,,,,,0,,,83,100
137280,note_on,,,,,64,0,8,,,,,1,,,74,102
137280,note_on,,,,,64,0,10,,,,,3,,,71,102
137280,note_on,,,,,32,0,7,,,,,0,,,83,102
137344,note_off,,,,,64,0,7,,,,,0,,,83,100
137376,note_on,,,,,32,0,7,,,,,0,,,83,103
137408,note_off,,,,,128,0,8,,,,,1,,,74,100
137408,note_off,,,,,128,0,10,,,,,3,,,71,100
137440,note_off,,,,,64,0,7,,,,,0,,,83,100
137472,note_on,,,,,64,0,10,,,,,3,,,73,103
137472,note_on,,,,,64,0,8,,,,,1,,,76,103
137472,note_on,,,,,32,0,7,,,,,0,,,76,103
137536,note_off,,,,,64,0,7,,,,,0,,,76,100
137568,note_on,,,,,32,0,7,,,,,0,,,83,104
137600,note_off,,,,,128,0,8,,,,,1,,,76,100
137600,note_off,,,,,128,0,10,,,,,3,,,73,100
137632,note_off,,,,,64,0,7,,,,,0,,,83,100
137664,note_on,,,,,64,0,10,,,,,3,,,73,104
137664,note_on,,,,,64,0,8,,,,,1,,,76,104
137664,note_on,,,,,32,0,7,,,,,0,,,83,104
137728,note_off,,,,,64,0,7,,,,,0,,,83,100
137760,note_on,,,,,32,0,7,,,,,0,,,83,105
137792,note_off,,,,,128,0,8,,,,,1,,,76,100
137792,note_off,,,,,128,0,10,,,,,3,,,73,100
137824,note_off,,,,,64,0,7,,,,,0,,,83,100
137856,note_on,,,,,64,0,8,,,,,1,,,76,105
137856,note_on,,,,,32,0,7,,,,,0,,,76,105
137856,note_on,,,,,64,0,10,,,,,3,,,73,105
137920,note_off,,,,,64,0,7,,,,,0,,,76,100
137952,note_on,,,,,32,0,7,,,,,0,,,83,106
137984,note_off,,,,,128,0,8,,,,,1,,,76,100
137984,note_off,,,,,128,0,10,,,,,3,,,73,100
138016,note_off,,,,,64,0,7,,,,,0,,,83,100
138048,note_on,,,,,64,0,8,,,,,1,,,76,106
138048,note_on,,,,,32,0,7,,,,,0,,,83,106
138048,note_on,,,,,64,0,10,,,,,3,,,73,106
138112,note_off,,,,,64,0,7,,,,,0,,,83,100
138144,note_on,,,,,32,0,7,,,,,0,,,83,107
138176,note_off,,,,,128,0,10,,,,,3,,,73,100
138176,note_off,,,,,128,0,8,,,,,1,,,76,100
138208,note_off,,,,,64,0,7,,,,,0,,,83,100
138240,note_on,,,,,64,0,10,,,,,3,,,66,107
138240,note_on,,,,,64,0,8,,,,,1,,,73,107
138240,note_on,,,,,32,0,7,,,,,0,,,78,107
138304,note_off,,,,,64,0,7,,,,,0,,,78,100
138336,note_on,,,,,32,0,7,,,,,0,,,83,108
138368,note_off,,,,,128,0,10,,,,,3,,,66,100
138368,note_off,,,,,128,0,8,,,,,1,,,73,100
138400,note_off,,,,,64,0,7,,,,,0,,,83,100
138432,note_on,,,,,32,0,7,,,,,0,,,83,108
138432,note_on,,,,,64,0,10,,,,,3,,,66,108
138432,note_on,,,,,64,0,8,,,,,1,,,73,108
138496,note_off,,,,,64,0,7,,,,,0,,,83,100
138528,note_on,,,,,32,0,7,,,,,0,,,83,109
138560,note_off,,,,,128,0,10,,,,,3,,,66,100
138560,note_off,,,,,128,0,8,,,,,1,,,73,100
138592,note_off,,,,,64,0,7,,,,,0,,,83,100
138624,note_on,,,,,64,0,10,,,,,3,,,66,105
138624,note_on,,,,,32,0,7,,,,,0,,,78,105
138624,note_on,,,,,64,0,8,,,,,1,,,73,105
138688,note_off,,,,,64,0,7,,,,,0,,,78,100
138720,note_on,,,,,32,0,7,,,,,0,,,82,97
138752,note_off,,,,,128,0,10,,,,,3,,,66,100
138752,note_off,,,,,128,0,8,,,,,1,,,73,100
138784,note_off,,,,,64,0,7,,,,,0,,,82,100
138816,note_on,,,,,64,0,8,,,,,1,,,73,88
138816,note_on,,,,,64,0,10,,,,,3,,,66,88
138816,note_on,,,,,32,0,7,,,,,0,,,82,88
138880,note_off,,,,,64,0,7,,,,,0,,,82,100
138912,note_on,,,,,32,0,7,,,,,0,,,82,80
138944,note_off,,,,,128,0,10,,,,,3,,,66,100
138944,note_off,,,,,128,0,8,,,,,1,,,73,100
138976,note_off,,,,,64,0,7,,,,,0,,,82,100
139008,note_on,,,,,22016,0,9,,,,,2,,,62,71
139008,note_on,,,,,64,0,10,,,,,3,,,59,71
139008,note_on,,,,,64,0,8,,,,,1,,,74,71
139008,note_on,,,,,29696,0,11,,,,,4,,,59,60
139008,note_on,,,,,32,0,7,,,,,0,,,83,71
139008,note_on,,,,,0,0,11,,,,,4,,,62,60
139072,note_off,,,,,64,0,9,,,,,2,,,62,100
139104,note_on,,,,,32,0,9,,,,,2,,,71,70
139136,note_off,,,,,0,0,11,,,,,4,,,62,100
139136,note_off,,,,,128,0,11,,,,,4,,,59,100
139168,note_off,,,,,64,0,9,,,,,2,,,71,100
139200,note_on,,,,,32,0,9,,,,,2,,,71,70
139200,note_on,,,,,0,0,11,,,,,4,,,59,60
139200,note_on,,,,,64,0,11,,,,,4,,,62,60
139264,note_off,,,,,256,0,8,,,,,1,,,74,100
139264,note_off,,,,,64,0,9,,,,,2,,,71,100
139264,note_off,,,,,256,0,7,,,,,0,,,83,100
139264,note_off,,,,,256,0,10,,,,,3,,,59,100
139296,note_on,,,,,32,0,9,,,,,2,,,71,70
139328,note_off,,,,,128,0,11,,,,,4,,,62,100
139328,note_off,,,,,0,0,11,,,,,4,,,59,100
139360,note_off,,,,,64,0,9,,,,,2,,,71,100
139392,note_on,,,,,64,0,11,,,,,4,,,62,60
139392,note_on,,,,,0,0,11,,,,,4,,,59,60
139392,note_on,,,,,32,0,9,,,,,2,,,62,70
139456,note_off,,,,,64,0,9,,,,,2,,,62,100
139488,note_on,,,,,32,0,9,,,,,2,,,71,70
139520,note_off,,,,,128,0,11,,,,,4,,,62,100
139520,note_off,,,,,0,0,11,,,,,4,,,59,100
139552,note_off,,,,,64,0,9,,,,,2,,,71,100
139584,note_on,,,,,64,0,11,,,,,4,,,62,60
139584,note_on,,,,,0,0,11,,,,,4,,,59,60
139584,note_on,,,,,32,0,9,,,,,2,,,71,70
139648,note_off,,,,,64,0,9,,,,,2,,,71,100
139680,note_on,,,,,32,0,9,,,,,2,,,71,70
139712,note_off,,,,,128,0,11,,,,,4,,,62,100
139712,note_off,,,,,0,0,11,,,,,4,,,59,100
139744,note_off,,,,,64,0,9,,,,,2,,,71,100
139776,note_on,,,,,0,0,11,,,,,4,,,64,60
139776,note_on,,,,,32,0,9,,,,,2,,,64,70
139776,note_on,,,,,64,0,11,,,,,4,,,61,60
139840,note_off,,,,,64,0,9,,,,,2,,,64,100
139872,note_on,,,,,32,0,9,,,,,2,,,71,70
139904,note_off,,,,,0,0,11,,,,,4,,,64,100
139904,note_off,,,,,128,0,11,,,,,4,,,61,100
139936,note_off,,,,,64,0,9,,,,,2,,,71,100
139968,note_on,,,,,64,0,11,,,,,4,,,61,60
139968,note_on,,,,,32,0,9,,,,,2,,,71,70
139968,note_on,,,,,0,0,11,,,,,4,,,64,60
140032,note_off,,,,,64,0,9,,,,,2,,,71,100
140064,note_on,,,,,32,0,9,,,,,2,,,71,70
140096,note_off,,,,,128,0,11,,,,,4,,,61,100
140096,note_off,,,,,0,0,11,,,,,4,,,64,100
140128,note_off,,,,,64,0,9,,,,,2,,,71,100
140160,note_on,,,,,64,0,11,,,,,4,,,61,60
140160,note_on,,,,,0,0,11,,,,,4,,,64,60
140160,note_on,,,,,32,0,9,,,,,2,,,64,70
140224,note_off,,,,,64,0,9,,,,,2,,,64,100
140256,note_on,,,,,32,0,9,,,,,2,,,71,70
140288,note_off,,,,,0,0,11,,,,,4,,,64,100
140288,note_off,,,,,128,0,11,,,,,4,,,61,100
140320,note_off,,,,,64,0,9,,,,,2,,,71,100
140352,note_on,,,,,0,0,11,,,,,4,,,64,60
140352,note_on,,,,,64,0,11,,,,,4,,,61,60
140352,note_on,,,,,32,0,9,,,,,2,,,71,70
140416,note_off,,,,,64,0,9,,,,,2,,,71,100
140448,note_on,,,,,32,0,9,,,,,2,,,71,70
140480,note_off,,,,,128,0,11,,,,,4,,,61,100
140480,note_off,,,,,0,0,11,,,,,4,,,64,100
140512,note_off,,,,,64,0,9,,,,,2,,,71,100
140544,note_on,,,,,0,0,11,,,,,4,,,62,60
140544,note_on,,,,,32,0,9,,,,,2,,,66,70
140544,note_on,,,,,64,0,11,,,,,4,,,66,60
140608,note_off,,,,,64,0,9,,,,,2,,,66,100
140640,note_on,,,,,32,0,9,,,,,2,,,71,70
140672,note_off,,,,,0,0,11,,,,,4,,,62,100
140672,note_off,,,,,128,0,11,,,,,4,,,66,100
140704,note_off,,,,,64,0,9,,,,,2,,,71,100
140736,note_on,,,,,64,0,11,,,,,4,,,66,60
140736,note_on,,,,,0,0,11,,,,,4,,,62,60
140736,note_on,,,,,32,0,9,,,,,2,,,71,70
140800,note_off,,,,,64,0,9,,,,,2,,,71,100
140832,note_on,,,,,32,0,9,,,,,2,,,71,70
140864,note_off,,,,,128,0,11,,,,,4,,,66,100
140864,note_off,,,,,0,0,11,,,,,4,,,62,100
140896,note_off,,,,,64,0,9,,,,,2,,,71,100
140928,note_on,,,,,32,0,9,,,,,2,,,66,70
140928,note_on,,,,,64,0,11,,,,,4,,,66,60
140928,note_on,,,,,0,0,11,,,,,4,,,62,60
140992,note_off,,,,,64,0,9,,,,,2,,,66,100
141024,note_on,,,,,32,0,9,,,,,2,,,71,70
141056,note_off,,,,,0,0,11,,,,,4,,,62,100
141056,note_off,,,,,128,0,11,,,,,4,,,66,100
141088,note_off,,,,,64,0,9,,,,,2,,,71,100
141120,note_on,,,,,0,0,11,,,,,4,,,62,60
141120,note_on,,,,,64,0,11,,,,,4,,,66,60
141120,note_on,,,,,32,0,9,,,,,2,,,71,70
141184,note_off,,,,,64,0,9,,,,,2,,,71,100
141216,note_on,,,,,32,0,9,,,,,2,,,71,70
141248,note_off,,,,,0,0,11,,,,,4,,,62,100
141248,note_off,,,,,128,0,11,,,,,4,,,66,100
141280,note_off,,,,,64,0,9,,,,,2,,,71,100
141312,note_on,,,,,32,0,9,,,,,2,,,67,70
141312,note_on,,,,,64,0,11,,,,,4,,,67,60
141312,note_on,,,,,0,0,11,,,,,4,,,64,60
141376,note_off,,,,,64,0,9,,,,,2,,,67,100
141408,note_on,,,,,32,0,9,,,,,2,,,71,70
141440,note_off,,,,,128,0,11,,,,,4,,,67,100
141440,note_off,,,,,0,0,11,,,,,4,,,64,100
141472,note_off,,,,,64,0,9,,,,,2,,,71,100
141504,note_on,,,,,32,0,9,,,,,2,,,71,70
141504,note_on,,,,,64,0,11,,,,,4,,,67,60
141504,note_on,,,,,0,0,11,,,,,4,,,64,60
141568,note_off,,,,,64,0,9,,,,,2,,,71,100
141600,note_on,,,,,32,0,9,,,,,2,,,71,70
141632,note_off,,,,,128,0,11,,,,,4,,,67,100
141632,note_off,,,,,0,0,11,,,,,4,,,64,100
141664,note_off,,,,,64,0,9,,,,,2,,,71,100
141696,note_on,,,,,64,0,11,,,,,4,,,67,60
141696,note_on,,,,,0,0,11,,,,,4,,,64,60
141696,note_on,,,,,32,0,9,,,,,2,,,67,70
141760,note_off,,,,,64,0,9,,,,,2,,,67,100
141792,note_on,,,,,32,0,9,,,,,2,,,71,70
141824,note_off,,,,,128,0,11,,,,,4,,,67,100
141824,note_off,,,,,0,0,11,,,,,4,,,64,100
141856,note_off,,,,,64,0,9,,,,,2,,,71,100
141888,note_on,,,,,64,0,11,,,,,4,,,67,60
141888,note_on,,,,,0,0,11,,,,,4,,,64,60
141888,note_on,,,,,32,0,9,,,,,2,,,71,70
141952,note_off,,,,,64,0,9,,,,,2,,,71,100
141984,note_on,,,,,32,0,9,,,,,2,,,71,70
142016,note_off,,,,,128,0,11,,,,,4,,,67,100
142016,note_off,,,,,0,0,11,,,,,4,,,64,100
142048,note_off,,,,,64,0,9,,,,,2,,,71,100
142080,note_on,,,,,0,0,11,,,,,4,,,62,50
142080,note_on,,,,,64,0,11,,,,,4,,,59,50
142080,note_on,,,,,32,0,9,,,,,2,,,62,60
142144,note_off,,,,,64,0,9,,,,,2,,,62,100
142176,note_on,,,,,32,0,9,,,,,2,,,71,60
142208,note_off,,,,,128,0,11,,,,,4,,,59,100
142208,note_off,,,,,0,0,11,,,,,4,,,62,100
142240,note_off,,,,,64,0,9,,,,,2,,,71,100
142272,note_on,,,,,64,0,11,,,,,4,,,62,50
142272,note_on,,,,,32,0,9,,,,,2,,,71,60
142272,note_on,,,,,0,0,11,,,,,4,,,59,50
142336,note_off,,,,,64,0,9,,,,,2,,,71,100
142368,note_on,,,,,32,0,9,,,,,2,,,71,60
142400,note_off,,,,,128,0,11,,,,,4,,,62,100
142400,note_off,,,,,0,0,11,,,,,4,,,59,100
142432,note_off,,,,,64,0,9,,,,,2,,,71,100
142464,note_on,,,,,64,0,11,,,,,4,,,62,50
142464,note_on,,,,,0,0,11,,,,,4,,,59,50
142464,note_on,,,,,32,0,9,,,,,2,,,62,60
142528,note_off,,,,,64,0,9,,,,,2,,,62,100
142560,note_on,,,,,32,0,9,,,,,2,,,71,60
142592,note_off,,,,,128,0,11,,,,,4,,,62,100
142592,note_off,,,,,0,0,11,,,,,4,,,59,100
142624,note_off,,,,,64,0,9,,,,,2,,,71,100
142656,note_on,,,,,64,0,11,,,,,4,,,62,50
142656,note_on,,,,,32,0,9,,,,,2,,,71,60
142656,note_on,,,,,0,0,11,,,,,4,,,59,50
142720,note_off,,,,,64,0,9,,,,,2,,,71,100
142752,note_on,,,,,32,0,9,,,,,2,,,71,60
142784,note_off,,,,,0,0,11,,,,,4,,,59,100
142784,note_off,,,,,128,0,11,,,,,4,,,62,100
142816,note_off,,,,,64,0,9,,,,,2,,,71,100
142848,note_on,,,,,32,0,9,,,,,2,,,64,60
142848,note_on,,,,,0,0,11,,,,,4,,,64,50
142848,note_on,,,,,64,0,11,,,,,4,,,61,50
142912,note_off,,,,,64,0,9,,,,,2,,,64,100
142944,note_on,,,,,32,0,9,,,,,2,,,71,60
142976,note_off,,,,,0,0,11,,,,,4,,,64,100
142976,note_off,,,,,128,0,11,,,,,4,,,61,100
143008,note_off,,,,,64,0,9,,,,,2,,,71,100
143040,note_on,,,,,32,0,9,,,,,2,,,71,60
143040,note_on,,,,,0,0,11,,,,,4,,,64,50
143040,note_on,,,,,64,0,11,,,,,4,,,61,50
143104,note_off,,,,,64,0,9,,,,,2,,,71,100
143136,note_on,,,,,32,0,9,,,,,2,,,71,60
143168,note_off,,,,,0,0,11,,,,,4,,,64,100
143168,note_off,,,,,128,0,11,,,,,4,,,61,100
143200,note_off,,,,,64,0,9,,,,,2,,,71,100
143232,note_on,,,,,32,0,9,,,,,2,,,64,60
143232,note_on,,,,,64,0,11,,,,,4,,,61,50
143232,note_on,,,,,0,0,11,,,,,4,,,64,50
143296,note_off,,,,,64,0,9,,,,,2,,,64,100
143328,note_on,,,,,32,0,9,,,,,2,,,71,60
143360,note_off,,,,,128,0,11,,,,,4,,,61,100
143360,note_off,,,,,0,0,11,,,,,4,,,64,100
143392,note_off,,,,,64,0,9,,,,,2,,,71,100
143424,note_on,,,,,32,0,9,,,,,2,,,71,60
143424,note_on,,,,,64,0,11,,,,,4,,,61,50
143424,note_on,,,,,0,0,11,,,,,4,,,64,50
143488,note_off,,,,,64,0,9,,,,,2,,,71,100
143520,note_on,,,,,32,0,9,,,,,2,,,71,60
143552,note_off,,,,,0,0,11,,,,,4,,,64,100
143552,note_off,,,,,128,0,11,,,,,4,,,61,100
143584,note_off,,,,,64,0,9,,,,,2,,,71,100
143616,note_on,,,,,32,0,9,,,,,2,,,66,60
143616,note_on,,,,,0,0,11,,,,,4,,,62,50
143616,note_on,,,,,64,0,11,,,,,4,,,66,50
143680,note_off,,,,,64,0,9,,,,,2,,,66,100
143712,note_on,,,,,32,0,9,,,,,2,,,71,60
143744,note_off,,,,,0,0,11,,,,,4,,,62,100
143744,note_off,,,,,128,0,11,,,,,4,,,66,100
143776,note_off,,,,,64,0,9,,,,,2,,,71,100
143808,note_on,,,,,0,0,11,,,,,4,,,62,50
143808,note_on,,,,,64,0,11,,,,,4,,,66,50
143808,note_on,,,,,32,0,9,,,,,2,,,71,60
143872,note_off,,,,,64,0,9,,,,,2,,,71,100
143904,note_on,,,,,32,0,9,,,,,2,,,71,60
143936,note_off,,,,,0,0,11,,,,,4,,,62,100
143936,note_off,,,,,128,0,11,,,,,4,,,66,100
143968,note_off,,,,,64,0,9,,,,,2,,,71,100
144000,note_on,,,,,0,0,11,,,,,4,,,62,50
144000,note_on,,,,,64,0,11,,,,,4,,,66,50
144000,note_on,,,,,32,0,9,,,,,2,,,66,60
144064,note_off,,,,,64,0,9,,,,,2,,,66,100
144096,note_on,,,,,32,0,9,,,,,2,,,71,60
144128,note_off,,,,,128,0,11,,,,,4,,,66,100
144128,note_off,,,,,0,0,11,,,,,4,,,62,100
144160,note_off,,,,,64,0,9,,,,,2,,,71,100
144192,note_on,,,,,64,0,11,,,,,4,,,66,50
144192,note_on,,,,,0,0,11,,,,,4,,,62,50
144192,note_on,,,,,32,0,9,,,,,2,,,71,60
144256,note_off,,,,,64,0,9,,,,,2,,,71,100
144288,note_on,,,,,32,0,9,,,,,2,,,71,60
144320,note_off,,,,,0,0,11,,,,,4,,,62,100
144320,note_off,,,,,128,0,11,,,,,4,,,66,100
144352,note_off,,,,,64,0,9,,,,,2,,,71,100
144384,note_on,,,,,64,0,11,,,,,4,,,67,50
144384,note_on,,,,,32,0,9,,,,,2,,,67,60
144384,note_on,,,,,0,0,11,,,,,4,,,64,50
144448,note_off,,,,,64,0,9,,,,,2,,,67,100
144480,note_on,,,,,32,0,9,,,,,2,,,71,60
144512,note_off,,,,,128,0,11,,,,,4,,,67,100
144512,note_off,,,,,0,0,11,,,,,4,,,64,100
144544,note_off,,,,,64,0,9,,,,,2,,,71,100
144576,note_on,,,,,64,0,11,,,,,4,,,67,50
144576,note_on,,,,,0,0,11,,,,,4,,,64,50
144576,note_on,,,,,32,0,9,,,,,2,,,71,60
144640,note_off,,,,,64,0,9,,,,,2,,,71,100
144672,note_on,,,,,32,0,9,,,,,2,,,71,60
144704,note_off,,,,,128,0,11,,,,,4,,,67,100
144704,note_off,,,,,0,0,11,,,,,4,,,64,100
144736,note_off,,,,,64,0,9,,,,,2,,,71,100
144768,note_on,,,,,64,0,11,,,,,4,,,67,50
144768,note_on,,,,,0,0,11,,,,,4,,,64,50
144768,note_on,,,,,32,0,9,,,,,2,,,67,60
144832,note_off,,,,,64,0,9,,,,,2,,,67,100
144864,note_on,,,,,32,0,9,,,,,2,,,71,60
144896,note_off,,,,,128,0,11,,,,,4,,,67,100
144896,note_off,,,,,0,0,11,,,,,4,,,64,100
144928,note_off,,,,,64,0,9,,,,,2,,,71,100
144960,note_on,,,,,64,0,11,,,,,4,,,67,50
144960,note_on,,,,,0,0,11,,,,,4,,,64,50
144960,note_on,,,,,32,0,9,,,,,2,,,71,60
145024,note_off,,,,,64,0,9,,,,,2,,,71,100
145056,note_on,,,,,32,0,9,,,,,2,,,71,70
145088,note_off,,,,,0,0,11,,,,,4,,,64,100
145088,note_off,,,,,128,0,11,,,,,4,,,67,100
145120,note_off,,,,,64,0,9,,,,,2,,,71,100
145152,note_on,,,,,64,0,11,,,,,4,,,59,60
145152,note_on,,,,,0,0,11,,,,,4,,,62,60
145152,note_on,,,,,32,0,9,,,,,2,,,62,60
145216,note_off,,,,,64,0,9,,,,,2,,,62,100
145248,note_on,,,,,32,0,9,,,,,2,,,71,61
145280,note_off,,,,,128,0,11,,,,,4,,,59,100
145280,note_off,,,,,0,0,11,,,,,4,,,62,100
145312,note_off,,,,,64,0,9,,,,,2,,,71,100
145344,note_on,,,,,32,0,9,,,,,2,,,71,63
145344,note_on,,,,,64,0,11,,,,,4,,,62,63
145344,note_on,,,,,0,0,11,,,,,4,,,59,63
145408,note_off,,,,,64,0,9,,,,,2,,,71,100
145440,note_on,,,,,32,0,9,,,,,2,,,71,65
145472,note_off,,,,,128,0,11,,,,,4,,,62,100
145472,note_off,,,,,0,0,11,,,,,4,,,59,100
145504,note_off,,,,,64,0,9,,,,,2,,,71,100
145536,note_on,,,,,32,0,9,,,,,2,,,62,66
145536,note_on,,,,,64,0,11,,,,,4,,,62,66
145536,note_on,,,,,0,0,11,,,,,4,,,59,66
145600,note_off,,,,,64,0,9,,,,,2,,,62,100
145632,note_on,,,,,32,0,9,,,,,2,,,71,68
145664,note_off,,,,,0,0,11,,,,,4,,,59,100
145664,note_off,,,,,128,0,11,,,,,4,,,62,100
145696,note_off,,,,,64,0,9,,,,,2,,,71,100
145728,note_on,,,,,32,0,9,,,,,2,,,71,70
145728,note_on,,,,,64,0,11,,,,,4,,,62,70
145728,note_on,,,,,0,0,11,,,,,4,,,59,70
145792,note_off,,,,,64,0,9,,,,,2,,,71,100
145824,note_on,,,,,32,0,9,,,,,2,,,71,72
145856,note_off,,,,,128,0,11,,,,,4,,,62,100
145856,note_off,,,,,0,0,11,,,,,4,,,59,100
145888,note_off,,,,,64,0,9,,,,,2,,,71,100
145920,note_on,,,,,32,0,9,,,,,2,,,64,73
145920,note_on,,,,,64,0,11,,,,,4,,,61,73
145920,note_on,,,,,0,0,11,,,,,4,,,64,73
145984,note_off,,,,,64,0,9,,,,,2,,,64,100
146016,note_on,,,,,32,0,9,,,,,2,,,71,75
146048,note_off,,,,,0,0,11,,,,,4,,,64,100
146048,note_off,,,,,128,0,11,,,,,4,,,61,100
146080,note_off,,,,,64,0,9,,,,,2,,,71,100
146112,note_on,,,,,0,0,11,,,,,4,,,64,77
146112,note_on,,,,,64,0,11,,,,,4,,,61,77
146112,note_on,,,,,32,0,9,,,,,2,,,71,77
146176,note_off,,,,,64,0,9,,,,,2,,,71,100
146208,note_on,,,,,32,0,9,,,,,2,,,71,79
146240,note_off,,,,,128,0,11,,,,,4,,,61,100
146240,note_off,,,,,0,0,11,,,,,4,,,64,100
146272,note_off,,,,,64,0,9,,,,,2,,,71,100
146304,note_on,,,,,32,0,9,,,,,2,,,64,80
146304,note_on,,,,,0,0,11,,,,,4,,,64,80
146304,note_on,,,,,64,0,11,,,,,4,,,61,80
146368,note_off,,,,,64,0,9,,,,,2,,,64,100
146400,note_on,,,,,32,0,9,,,,,2,,,71,82
146432,note_off,,,,,0,0,11,,,,,4,,,64,100
146432,note_off,,,,,128,0,11,,,,,4,,,61,100
146464,note_off,,,,,64,0,9,,,,,2,,,71,100
146496,note_on,,,,,32,0,9,,,,,2,,,71,84
146496,note_on,,,,,64,0,11,,,,,4,,,61,84
146496,note_on,,,,,0,0,11,,,,,4,,,64,84
146560,note_off,,,,,64,0,9,,,,,2,,,71,100
146592,note_on,,,,,32,0,9,,,,,2,,,71,86
146624,note_off,,,,,128,0,11,,,,,4,,,61,100
146624,note_off,,,,,0,0,11,,,,,4,,,64,100
146656,note_off,,,,,64,0,9,,,,,2,,,71,100
146688,note_on,,,,,64,0,11,,,,,4,,,61,87
146688,note_on,,,,,0,0,11,,,,,4,,,54,87
146688,note_on,,,,,32,0,9,,,,,2,,,66,87
146752,note_off,,,,,64,0,9,,,,,2,,,66,100
146784,note_on,,,,,32,0,9,,,,,2,,,71,89
146816,note_off,,,,,128,0,11,,,,,4,,,61,100
146816,note_off,,,,,0,0,11,,,,,4,,,54,100
146848,note_off,,,,,64,0,9,,,,,2,,,71,100
146880,note_on,,,,,32,0,9,,,,,2,,,71,91
146880,note_on,,,,,0,0,11,,,,,4,,,54,91
146880,note_on,,,,,64,0,11,,,,,4,,,61,91
146944,note_off,,,,,64,0,9,,,,,2,,,71,100
146976,note_on,,,,,32,0,9,,,,,2,,,71,92
147008,note_off,,,,,0,0,11,,,,,4,,,54,100
147008,note_off,,,,,128,0,11,,,,,4,,,61,100
147040,note_off,,,,,64,0,9,,,,,2,,,71,100
147072,note_on,,,,,32,0,9,,,,,2,,,66,94
147072,note_on,,,,,0,0,11,,,,,4,,,54,94
147072,note_on,,,,,64,0,11,,,,,4,,,61,94
147136,note_off,,,,,64,0,9,,,,,2,,,66,100
147168,note_on,,,,,32,0,9,,,,,2,,,70,96
147200,note_off,,,,,0,0,11,,,,,4,,,54,100
147200,note_off,,,,,128,0,11,,,,,4,,,61,100
147232,note_off,,,,,64,0,9,,,,,2,,,70,100
147264,note_on,,,,,32,0,9,,,,,2,,,70,98
147264,note_on,,,,,64,0,11,,,,,4,,,61,98
147264,note_on,,,,,0,0,11,,,,,4,,,54,98
147328,note_off,,,,,64,0,9,,,,,2,,,70,100
147360,note_on,,,,,32,0,9,,,,,2,,,70,99
147392,note_off,,,,,128,0,11,,,,,4,,,61,100
147392,note_off,,,,,0,0,11,,,,,4,,,54,100
147424,note_off,,,,,64,0,9,,,,,2,,,70,100
147452,program_change,,,,,8188,0,8,,,,,1,48,,,
147452,program_change,,,,,8188,0,7,,,,,0,48,,,
147452,program_change,,,,,8188,0,10,,,,,3,48,,,
147452,program_change,,,,,28,0,9,,,,,2,48,,,
147456,note_on,,,,,4,0,10,,,,,3,,,74,115
147456,note_on,,,,,16576,0,12,,,,,5,,,47,115
147456,note_on,,,,,64,0,11,,,,,4,,,59,115
147456,note_on,,,,,4,0,9,,,,,2,,,59,115
147456,note_on,,,,,4,0,7,,,,,0,,,78,115
147456,note_on,,,,,16576,0,15,,,,,7,,,47,100
147456,note_on,,,,,0,0,14,,,,,7,,,62,100
147456,note_on,,,,,16576,0,13,,,,,6,,,35,115
147456,note_on,,,,,16576,0,14,,,,,7,,,66,100
147456,note_on,,,,,4,0,8,,,,,1,,,74,115
147456,note_on,,,,,0,0,11,,,,,4,,,62,115
147712,note_off,,,,,256,0,11,,,,,4,,,59,100
147712,note_off,,,,,0,0,11,,,,,4,,,62,100
147712,note_off,,,,,256,0,8,,,,,1,,,74,100
147712,note_off,,,,,256,0,15,,,,,7,,,47,100
147712,note_off,,,,,256,0,13,,,,,6,,,35,100
147712,note_off,,,,,256,0,10,,,,,3,,,74,100
147712,note_off,,,,,256,0,7,,,,,0,,,78,100
147712,note_off,,,,,256,0,12,,,,,5,,,47,100
147712,note_off,,,,,256,0,9,,,,,2,,,59,100
147712,note_off,,,,,0,0,14,,,,,7,,,62,100
147712,note_off,,,,,256,0,14,,,,,7,,,66,100
148032,note_on,,,,,320,0,13,,,,,6,,,47,110
148032,note_on,,,,,320,0,12,,,,,5,,,59,110
148032,note_on,,,,,320,0,15,,,,,7,,,59,100
148032,note_on,,,,,320,0,7,,,,,0,,,78,110
148032,note_on,,,,,0,0,11,,,,,4,,,71,110
148032,note_on,,,,,320,0,8,,,,,1,,,74,110
148032,note_on,,,,,320,0,10,,,,,3,,,71,110
148032,note_on,,,,,320,0,11,,,,,4,,,62,110
148032,note_on,,,,,0,0,14,,,,,7,,,74,100
148032,note_on,,,,,320,0,14,,,,,7,,,66,100
148032,note_on,,,,,320,0,9,,,,,2,,,78,110
148160,note_off,,,,,128,0,9,,,,,2,,,78,100
148160,note_off,,,,,0,0,11,,,,,4,,,71,100
148160,note_off,,,,,128,0,10,,,,,3,,,71,100
148160,note_off,,,,,128,0,11,,,,,4,,,62,100
148160,note_off,,,,,0,0,14,,,,,7,,,74,100
148160,note_off,,,,,128,0,14,,,,,7,,,66,100
148160,note_off,,,,,128,0,13,,,,,6,,,47,100
148160,note_off,,,,,128,0,8,,,,,1,,,74,100
148160,note_off,,,,,128,0,15,,,,,7,,,59,100
148160,note_off,,,,,128,0,12,,,,,5,,,59,100
148160,note_off,,,,,128,0,7,,,,,0,,,78,100
148224,note_on,,,,,64,0,8,,,,,1,,,74,108
148224,note_on,,,,,64,0,7,,,,,0,,,78,108
148224,note_on,,,,,0,0,11,,,,,4,,,71,108
148224,note_on,,,,,64,0,11,,,,,4,,,59,108
148224,note_on,,,,,64,0,10,,,,,3,,,78,108
148224,note_on,,,,,0,0,14,,,,,7,,,66,100
148224,note_on,,,,,64,0,12,,,,,5,,,47,108
148224,note_on,,,,,64,0,15,,,,,7,,,47,100
148224,note_on,,,,,64,0,9,,,,,2,,,74,108
148224,note_on,,,,,64,0,13,,,,,6,,,35,108
148224,note_on,,,,,64,0,14,,,,,7,,,62,100
148288,note_off,,,,,64,0,8,,,,,1,,,74,100
148316,note_off,,,,,92,0,10,,,,,3,,,78,100
148320,note_on,,,,,32,0,8,,,,,1,,,71,107
148320,note_on,,,,,4,0,10,,,,,3,,,76,107
148352,note_off,,,,,128,0,7,,,,,0,,,78,100
148352,note_off,,,,,128,0,9,,,,,2,,,74,100
148352,note_off,,,,,128,0,14,,,,,7,,,62,100
148352,note_off,,,,,0,0,14,,,,,7,,,66,100
148352,note_off,,,,,0,0,11,,,,,4,,,71,100
148352,note_off,,,,,128,0,12,,,,,5,,,47,100
148352,note_off,,,,,128,0,13,,,,,6,,,35,100
148352,note_off,,,,,128,0,15,,,,,7,,,47,100
148352,note_off,,,,,128,0,11,,,,,4,,,59,100
148384,note_off,,,,,64,0,8,,,,,1,,,71,100
148384,note_off,,,,,64,0,10,,,,,3,,,76,100
148416,note_on,,,,,32,0,10,,,,,3,,,78,106
148416,note_on,,,,,32,0,8,,,,,1,,,74,106
148416,note_on,,,,,64,0,12,,,,,5,,,59,106
148416,note_on,,,,,0,0,14,,,,,7,,,66,100
148416,note_on,,,,,64,0,14,,,,,7,,,74,100
148416,note_on,,,,,64,0,15,,,,,7,,,59,100
148416,note_on,,,,,64,0,11,,,,,4,,,62,106
148416,note_on,,,,,64,0,7,,,,,0,,,78,106
148416,note_on,,,,,0,0,11,,,,,4,,,66,106
148416,note_on,,,,,64,0,9,,,,,2,,,71,106
148416,note_on,,,,,64,0,13,,,,,6,,,47,106
148480,note_off,,,,,64,0,8,,,,,1,,,74,100
148512,note_on,,,,,32,0,8,,,,,1,,,78,105
148544,note_off,,,,,128,0,10,,,,,3,,,78,100
148544,note_off,,,,,128,0,15,,,,,7,,,59,100
148544,note_off,,,,,128,0,7,,,,,0,,,78,100
148544,note_off,,,,,128,0,12,,,,,5,,,59,100
148544,note_off,,,,,128,0,13,,,,,6,,,47,100
148544,note_off,,,,,0,0,11,,,,,4,,,66,100
148544,note_off,,,,,128,0,14,,,,,7,,,74,100
148544,note_off,,,,,128,0,11,,,,,4,,,62,100
148544,note_off,,,,,128,0,9,,,,,2,,,71,100
148544,note_off,,,,,0,0,14,,,,,7,,,66,100
148576,note_off,,,,,64,0,8,,,,,1,,,78,100
148608,note_on,,,,,64,0,15,,,,,7,,,58,100
148608,note_on,,,,,64,0,7,,,,,0,,,78,104
148608,note_on,,,,,64,0,12,,,,,5,,,58,104
148608,note_on,,,,,64,0,14,,,,,7,,,66,100
148608,note_on,,,,,64,0,13,,,,,6,,,46,104
148608,note_on,,,,,64,0,11,,,,,4,,,61,104
148608,note_on,,,,,0,0,14,,,,,7,,,73,100
148608,note_on,,,,,32,0,8,,,,,1,,,78,104
148700,note_off,,,,,92,0,8,,,,,1,,,78,100
148704,note_on,,,,,160,0,10,,,,,3,,,70,103
148704,note_on,,,,,4,0,8,,,,,1,,,76,103
148736,note_off,,,,,128,0,7,,,,,0,,,78,100
148736,note_off,,,,,128,0,12,,,,,5,,,58,100
148736,note_off,,,,,128,0,15,,,,,7,,,58,100
148736,note_off,,,,,0,0,14,,,,,7,,,73,100
148736,note_off,,,,,128,0,14,,,,,7,,,66,100
148736,note_off,,,,,128,0,11,,,,,4,,,61,100
148736,note_off,,,,,128,0,13,,,,,6,,,46,100
148768,note_off,,,,,64,0,10,,,,,3,,,70,100
148768,note_off,,,,,64,0,8,,,,,1,,,76,100
148800,note_on,,,,,0,0,14,,,,,7,,,73,100
148800,note_on,,,,,64,0,14,,,,,7,,,69,100
148800,note_on,,,,,64,0,7,,,,,0,,,78,102
148800,note_on,,,,,32,0,8,,,,,1,,,78,102
148800,note_on,,,,,0,0,11,,,,,4,,,70,102
148800,note_on,,,,,64,0,11,,,,,4,,,58,102
148800,note_on,,,,,256,0,9,,,,,2,,,78,102
148800,note_on,,,,,64,0,12,,,,,5,,,54,102
148800,note_on,,,,,32,0,10,,,,,3,,,73,102
148800,note_on,,,,,64,0,15,,,,,7,,,54,100
148800,note_on,,,,,64,0,13,,,,,6,,,42,102
148864,note_off,,,,,64,0,10,,,,,3,,,73,100
148896,note_on,,,,,32,0,10,,,,,3,,,78,101
148928,note_off,,,,,128,0,11,,,,,4,,,58,100
148928,note_off,,,,,0,0,11,,,,,4,,,70,100
148928,note_off,,,,,128,0,9,,,,,2,,,78,100
148928,note_off,,,,,128,0,8,,,,,1,,,78,100
148928,note_off,,,,,128,0,7,,,,,0,,,78,100
148928,note_off,,,,,128,0,14,,,,,7,,,69,100
148928,note_off,,,,,0,0,14,,,,,7,,,73,100
148928,note_off,,,,,128,0,12,,,,,5,,,54,100
148928,note_off,,,,,128,0,13,,,,,6,,,42,100
148928,note_off,,,,,128,0,15,,,,,7,,,54,100
148960,note_off,,,,,64,0,10,,,,,3,,,78,100
148992,note_on,,,,,32,0,10,,,,,3,,,78,101
148992,note_on,,,,,64,0,7,,,,,0,,,83,101
148992,note_on,,,,,64,0,9,,,,,2,,,74,101
148992,note_on,,,,,64,0,11,,,,,4,,,71,101
149084,note_off,,,,,92,0,10,,,,,3,,,78,100
149088,note_on,,,,,4,0,10,,,,,3,,,76,100
149088,note_on,,,,,160,0,8,,,,,1,,,71,100
149120,note_off,,,,,128,0,9,,,,,2,,,74,100
149120,note_off,,,,,128,0,7,,,,,0,,,83,100
149120,note_off,,,,,128,0,11,,,,,4,,,71,100
149152,note_off,,,,,64,0,10,,,,,3,,,76,100
149152,note_off,,,,,64,0,8,,,,,1,,,71,100
149184,note_on,,,,,256,0,12,,,,,5,,,59,100
149184,note_on,,,,,256,0,14,,,,,7,,,74,100
149184,note_on,,,,,32,0,10,,,,,3,,,78,100
149184,note_on,,,,,32,0,8,,,,,1,,,74,100
149184,note_on,,,,,64,0,7,,,,,0,,,78,100
149184,note_on,,,,,256,0,13,,,,,6,,,47,100
149184,note_on,,,,,64,0,9,,,,,2,,,71,100
149184,note_on,,,,,0,0,11,,,,,4,,,66,100
149184,note_on,,,,,64,0,11,,,,,4,,,62,100
149184,note_on,,,,,256,0,15,,,,,7,,,59,100
149184,note_on,,,,,0,0,14,,,,,7,,,66,100
149248,note_off,,,,,64,0,8,,,,,1,,,74,100
149280,note_on,,,,,32,0,8,,,,,1,,,78,100
149312,note_off,,,,,128,0,10,,,,,3,,,78,100
149312,note_off,,,,,128,0,7,,,,,0,,,78,100
149312,note_off,,,,,128,0,14,,,,,7,,,74,100
149312,note_off,,,,,128,0,13,,,,,6,,,47,100
149312,note_off,,,,,128,0,12,,,,,5,,,59,100
149312,note_off,,,,,128,0,15,,,,,7,,,59,100
149312,note_off,,,,,0,0,11,,,,,4,,,66,100
149312,note_off,,,,,128,0,11,,,,,4,,,62,100
149312,note_off,,,,,128,0,9,,,,,2,,,71,100
149312,note_off,,,,,0,0,14,,,,,7,,,66,100
149344,note_off,,,,,64,0,8,,,,,1,,,78,100
149376,note_on,,,,,64,0,7,,,,,0,,,78,100
149376,note_on,,,,,64,0,15,,,,,7,,,58,100
149376,note_on,,,,,64,0,14,,,,,7,,,66,100
149376,note_on,,,,,0,0,14,,,,,7,,,73,100
149376,note_on,,,,,32,0,8,,,,,1,,,78,100
149376,note_on,,,,,64,0,11,,,,,4,,,61,100
149376,note_on,,,,,64,0,13,,,,,6,,,46,100
149376,note_on,,,,,64,0,12,,,,,5,,,58,100
149468,note_off,,,,,92,0,8,,,,,1,,,78,100
149472,note_on,,,,,160,0,10,,,,,3,,,70,100
149472,note_on,,,,,4,0,8,,,,,1,,,76,100
149504,note_off,,,,,128,0,12,,,,,5,,,58,100
149504,note_off,,,,,128,0,15,,,,,7,,,58,100
149504,note_off,,,,,128,0,14,,,,,7,,,66,100
149504,note_off,,,,,128,0,13,,,,,6,,,46,100
149504,note_off,,,,,128,0,7,,,,,0,,,78,100
149504,note_off,,,,,128,0,11,,,,,4,,,61,100
149504,note_off,,,,,0,0,14,,,,,7,,,73,100
149536,note_off,,,,,64,0,8,,,,,1,,,76,100
149536,note_off,,,,,64,0,10,,,,,3,,,70,100
149568,note_on,,,,,0,0,11,,,,,4,,,70,100
149568,note_on,,,,,32,0,8,,,,,1,,,78,100
149568,note_on,,,,,64,0,12,,,,,5,,,54,100
149568,note_on,,,,,64,0,15,,,,,7,,,54,100
149568,note_on,,,,,64,0,13,,,,,6,,,42,100
149568,note_on,,,,,64,0,11,,,,,4,,,58,100
149568,note_on,,,,,32,0,10,,,,,3,,,73,100
149568,note_on,,,,,256,0,9,,,,,2,,,78,100
149568,note_on,,,,,0,0,14,,,,,7,,,73,100
149568,note_on,,,,,64,0,14,,,,,7,,,69,100
149568,note_on,,,,,64,0,7,,,,,0,,,78,100
149632,note_off,,,,,64,0,10,,,,,3,,,73,100
149664,note_on,,,,,32,0,10,,,,,3,,,78,100
149696,note_off,,,,,128,0,9,,,,,2,,,78,100
149696,note_off,,,,,128,0,11,,,,,4,,,58,100
149696,note_off,,,,,0,0,11,,,,,4,,,70,100
149696,note_off,,,,,128,0,7,,,,,0,,,78,100
149696,note_off,,,,,128,0,8,,,,,1,,,78,100
149696,note_off,,,,,128,0,12,,,,,5,,,54,100
149696,note_off,,,,,128,0,13,,,,,6,,,42,100
149696,note_off,,,,,128,0,15,,,,,7,,,54,100
149696,note_off,,,,,0,0,14,,,,,7,,,73,100
149696,note_off,,,,,128,0,14,,,,,7,,,69,100
149728,note_off,,,,,64,0,10,,,,,3,,,78,100
149760,note_on,,,,,32,0,10,,,,,3,,,78,100
149760,note_on,,,,,64,0,9,,,,,2,,,74,100
149760,note_on,,,,,64,0,11,,,,,4,,,71,100
149760,note_on,,,,,64,0,7,,,,,0,,,83,100
149852,note_off,,,,,92,0,10,,,,,3,,,78,100
149856,note_on,,,,,160,0,8,,,,,1,,,71,100
149856,note_on,,,,,4,0,10,,,,,3,,,76,100
149888,note_off,,,,,128,0,9,,,,,2,,,74,100
149888,note_off,,,,,128,0,7,,,,,0,,,83,100
149888,note_off,,,,,128,0,11,,,,,4,,,71,100
149920,note_off,,,,,64,0,8,,,,,1,,,71,100
149920,note_off,,,,,64,0,10,,,,,3,,,76,100
149952,note_on,,,,,64,0,11,,,,,4,,,62,100
149952,note_on,,,,,32,0,8,,,,,1,,,74,100
149952,note_on,,,,,256,0,14,,,,,7,,,74,100
149952,note_on,,,,,64,0,9,,,,,2,,,71,100
149952,note_on,,,,,256,0,15,,,,,7,,,59,100
149952,note_on,,,,,64,0,7,,,,,0,,,78,100
149952,note_on,,,,,0,0,14,,,,,7,,,66,100
149952,note_on,,,,,256,0,12,,,,,5,,,59,100
149952,note_on,,,,,0,0,11,,,,,4,,,66,100
149952,note_on,,,,,256,0,13,,,,,6,,,47,100
149952,note_on,,,,,32,0,10,,,,,3,,,78,100
150016,note_off,,,,,64,0,8,,,,,1,,,74,100
150048,note_on,,,,,32,0,8,,,,,1,,,78,100
150080,note_off,,,,,128,0,13,,,,,6,,,47,100
150080,note_off,,,,,128,0,15,,,,,7,,,59,100
150080,note_off,,,,,128,0,7,,,,,0,,,78,100
150080,note_off,,,,,128,0,9,,,,,2,,,71,100
150080,note_off,,,,,128,0,14,,,,,7,,,74,100
150080,note_off,,,,,128,0,11,,,,,4,,,62,100
150080,note_off,,,,,128,0,12,,,,,5,,,59,100
150080,note_off,,,,,0,0,14,,,,,7,,,66,100
150080,note_off,,,,,128,0,10,,,,,3,,,78,100
150080,note_off,,,,,0,0,11,,,,,4,,,66,100
150112,note_off,,,,,64,0,8,,,,,1,,,78,100
150144,note_on,,,,,64,0,14,,,,,7,,,66,100
150144,note_on,,,,,64,0,15,,,,,7,,,58,100
150144,note_on,,,,,64,0,12,,,,,5,,,58,100
150144,note_on,,,,,32,0,8,,,,,1,,,78,100
150144,note_on,,,,,64,0,11,,,,,4,,,61,100
150144,note_on,,,,,64,0,13,,,,,6,,,46,100
150144,note_on,,,,,64,0,7,,,,,0,,,78,100
150144,note_on,,,,,0,0,14,,,,,7,,,73,100
150236,note_off,,,,,92,0,8,,,,,1,,,78,100
150240,note_on,,,,,4,0,8,,,,,1,,,76,100
150240,note_on,,,,,160,0,10,,,,,3,,,70,100
150272,note_off,,,,,128,0,13,,,,,6,,,46,100
150272,note_off,,,,,128,0,7,,,,,0,,,78,100
150272,note_off,,,,,0,0,14,,,,,7,,,73,100
150272,note_off,,,,,128,0,14,,,,,7,,,66,100
150272,note_off,,,,,128,0,15,,,,,7,,,58,100
150272,note_off,,,,,128,0,12,,,,,5,,,58,100
150272,note_off,,,,,128,0,11,,,,,4,,,61,100
150304,note_off,,,,,64,0,8,,,,,1,,,76,100
150304,note_off,,,,,64,0,10,,,,,3,,,70,100
150336,note_on,,,,,64,0,13,,,,,6,,,42,100
150336,note_on,,,,,256,0,9,,,,,2,,,78,100
150336,note_on,,,,,64,0,7,,,,,0,,,78,100
150336,note_on,,,,,64,0,15,,,,,7,,,54,100
150336,note_on,,,,,32,0,8,,,,,1,,,78,100
150336,note_on,,,,,32,0,10,,,,,3,,,73,100
150336,note_on,,,,,64,0,12,,,,,5,,,54,100
150336,note_on,,,,,0,0,14,,,,,7,,,73,100
150336,note_on,,,,,64,0,14,,,,,7,,,69,100
150336,note_on,,,,,64,0,11,,,,,4,,,58,100
150336,note_on,,,,,0,0,11,,,,,4,,,70,100
150400,note_off,,,,,64,0,10,,,,,3,,,73,100
150432,note_on,,,,,32,0,10,,,,,3,,,78,100
150464,note_off,,,,,128,0,15,,,,,7,,,54,100
150464,note_off,,,,,128,0,8,,,,,1,,,78,100
150464,note_off,,,,,128,0,13,,,,,6,,,42,100
150464,note_off,,,,,128,0,9,,,,,2,,,78,100
150464,note_off,,,,,0,0,11,,,,,4,,,70,100
150464,note_off,,,,,128,0,11,,,,,4,,,58,100
150464,note_off,,,,,128,0,7,,,,,0,,,78,100
150464,note_off,,,,,128,0,12,,,,,5,,,54,100
150464,note_off,,,,,0,0,14,,,,,7,,,73,100
150464,note_off,,,,,128,0,14,,,,,7,,,69,100
150496,note_off,,,,,64,0,10,,,,,3,,,78,100
150528,note_on,,,,,64,0,7,,,,,0,,,83,100
150528,note_on,,,,,64,0,11,,,,,4,,,54,100
150528,note_on,,,,,0,0,14,,,,,7,,,66,100
150528,note_on,,,,,0,0,11,,,,,4,,,71,100
150528,note_on,,,,,64,0,13,,,,,6,,,35,100
150528,note_on,,,,,64,0,12,,,,,5,,,47,100
150528,note_on,,,,,64,0,14,,,,,7,,,62,100
150528,note_on,,,,,64,0,9,,,,,2,,,74,100
150528,note_on,,,,,32,0,10,,,,,3,,,78,100
150528,note_on,,,,,64,0,15,,,,,7,,,47,100
150592,note_off,,,,,64,0,7,,,,,0,,,83,100
150592,note_off,,,,,64,0,10,,,,,3,,,78,100
150592,note_off,,,,,64,0,9,,,,,2,,,74,100
150624,note_on,,,,,32,0,7,,,,,0,,,78,100
150624,note_on,,,,,160,0,8,,,,,1,,,78,100
150624,note_on,,,,,32,0,10,,,,,3,,,78,100
150624,note_on,,,,,32,0,9,,,,,2,,,78,100
150656,note_off,,,,,0,0,14,,,,,7,,,66,100
150656,note_off,,,,,128,0,14,,,,,7,,,62,100
150656,note_off,,,,,128,0,13,,,,,6,,,35,100
150656,note_off,,,,,128,0,15,,,,,7,,,47,100
150656,note_off,,,,,128,0,12,,,,,5,,,47,100
150688,note_off,,,,,64,0,8,,,,,1,,,78,100
150688,note_off,,,,,64,0,7,,,,,0,,,78,100
150688,note_off,,,,,64,0,9,,,,,2,,,78,100
150688,note_off,,,,,64,0,10,,,,,3,,,78,100
150720,note_on,,,,,32,0,7,,,,,0,,,78,100
150720,note_on,,,,,64,0,13,,,,,6,,,47,100
150720,note_on,,,,,32,0,9,,,,,2,,,78,100
150720,note_on,,,,,64,0,15,,,,,7,,,59,100
150720,note_on,,,,,32,0,8,,,,,1,,,78,100
150720,note_on,,,,,32,0,10,,,,,3,,,78,100
150720,note_on,,,,,64,0,14,,,,,7,,,74,100
150720,note_on,,,,,0,0,14,,,,,7,,,66,100
150720,note_on,,,,,64,0,12,,,,,5,,,59,100
150784,note_off,,,,,64,0,7,,,,,0,,,78,100
150784,note_off,,,,,64,0,9,,,,,2,,,78,100
150784,note_off,,,,,64,0,8,,,,,1,,,78,100
150784,note_off,,,,,64,0,10,,,,,3,,,78,100
150784,note_off,,,,,0,0,11,,,,,4,,,71,100
150784,note_off,,,,,256,0,11,,,,,4,,,54,100
150816,note_on,,,,,32,0,7,,,,,0,,,78,100
150816,note_on,,,,,32,0,10,,,,,3,,,78,100
150816,note_on,,,,,32,0,8,,,,,1,,,78,100
150816,note_on,,,,,32,0,9,,,,,2,,,78,100
150848,note_off,,,,,128,0,13,,,,,6,,,47,100
150848,note_off,,,,,128,0,15,,,,,7,,,59,100
150848,note_off,,,,,128,0,14,,,,,7,,,74,100
150848,note_off,,,,,0,0,14,,,,,7,,,66,100
150848,note_off,,,,,128,0,12,,,,,5,,,59,100
150880,note_off,,,,,64,0,8,,,,,1,,,78,100
150880,note_off,,,,,64,0,9,,,,,2,,,78,100
150880,note_off,,,,,64,0,7,,,,,0,,,78,100
150880,note_off,,,,,64,0,10,,,,,3,,,78,100
150912,note_on,,,,,32,0,9,,,,,2,,,83,100
150912,note_on,,,,,64,0,12,,,,,5,,,47,100
150912,note_on,,,,,0,0,14,,,,,7,,,66,100
150912,note_on,,,,,64,0,13,,,,,6,,,35,100
150912,note_on,,,,,32,0,8,,,,,1,,,83,100
150912,note_on,,,,,32,0,10,,,,,3,,,83,100
150912,note_on,,,,,32,0,7,,,,,0,,,83,100
150912,note_on,,,,,64,0,15,,,,,7,,,47,100
150912,note_on,,,,,64,0,14,,,,,7,,,62,100
150976,note_off,,,,,64,0,9,,,,,2,,,83,100
150976,note_off,,,,,64,0,8,,,,,1,,,83,100
150976,note_off,,,,,64,0,10,,,,,3,,,83,100
150976,note_off,,,,,64,0,7,,,,,0,,,83,100
151008,note_on,,,,,32,0,9,,,,,2,,,78,100
151008,note_on,,,,,32,0,10,,,,,3,,,78,100
151008,note_on,,,,,32,0,7,,,,,0,,,78,100
151008,note_on,,,,,32,0,8,,,,,1,,,78,100
151072,note_off,,,,,64,0,8,,,,,1,,,78,100
151072,note_off,,,,,64,0,10,,,,,3,,,78,100
151072,note_off,,,,,64,0,9,,,,,2,,,78,100
151072,note_off,,,,,64,0,7,,,,,0,,,78,100
151104,note_on,,,,,32,0,10,,,,,3,,,78,100
151104,note_on,,,,,32,0,9,,,,,2,,,78,100
151104,note_on,,,,,32,0,7,,,,,0,,,78,100
151104,note_on,,,,,320,0,11,,,,,4,,,66,100
151104,note_on,,,,,32,0,8,,,,,1,,,78,100
151168,note_off,,,,,256,0,12,,,,,5,,,47,100
151168,note_off,,,,,64,0,10,,,,,3,,,78,100
151168,note_off,,,,,64,0,7,,,,,0,,,78,100
151168,note_off,,,,,256,0,13,,,,,6,,,35,100
151168,note_off,,,,,256,0,15,,,,,7,,,47,100
151168,note_off,,,,,64,0,8,,,,,1,,,78,100
151168,note_off,,,,,64,0,9,,,,,2,,,78,100
151168,note_off,,,,,256,0,14,,,,,7,,,62,100
151168,note_off,,,,,0,0,14,,,,,7,,,66,100
151200,note_on,,,,,32,0,7,,,,,0,,,78,100
151200,note_on,,,,,32,0,9,,,,,2,,,78,100
151200,note_on,,,,,32,0,8,,,,,1,,,78,100
151200,note_on,,,,,32,0,10,,,,,3,,,78,100
151232,note_off,,,,,128,0,11,,,,,4,,,66,100
151264,note_off,,,,,64,0,7,,,,,0,,,78,100
151264,note_off,,,,,64,0,10,,,,,3,,,78,100
151264,note_off,,,,,64,0,8,,,,,1,,,78,100
151264,note_off,,,,,64,0,9,,,,,2,,,78,100
151296,note_on,,,,,32,0,7,,,,,0,,,83,100
151296,note_on,,,,,32,0,10,,,,,3,,,83,100
151296,note_on,,,,,64,0,11,,,,,4,,,62,100
151296,note_on,,,,,32,0,8,,,,,1,,,83,100
151296,note_on,,,,,32,0,9,,,,,2,,,83,100
151360,note_off,,,,,64,0,10,,,,,3,,,83,100
151360,note_off,,,,,64,0,8,,,,,1,,,83,100
151360,note_off,,,,,64,0,7,,,,,0,,,83,100
151360,note_off,,,,,64,0,9,,,,,2,,,83,100
151392,note_on,,,,,32,0,8,,,,,1,,,78,100
151392,note_on,,,,,32,0,7,,,,,0,,,78,100
151392,note_on,,,,,32,0,10,,,,,3,,,78,100
151392,note_on,,,,,32,0,9,,,,,2,,,78,100
151424,note_off,,,,,128,0,11,,,,,4,,,62,100
151456,note_off,,,,,64,0,10,,,,,3,,,78,100
151456,note_off,,,,,64,0,9,,,,,2,,,78,100
151456,note_off,,,,,64,0,7,,,,,0,,,78,100
151456,note_off,,,,,64,0,8,,,,,1,,,78,100
151488,note_on,,,,,320,0,15,,,,,7,,,59,100
151488,note_on,,,,,32,0,10,,,,,3,,,78,100
151488,note_on,,,,,64,0,11,,,,,4,,,59,100
151488,note_on,,,,,320,0,14,,,,,7,,,66,100
151488,note_on,,,,,0,0,14,,,,,7,,,74,100
151488,note_on,,,,,32,0,7,,,,,0,,,78,100
151488,note_on,,,,,320,0,12,,,,,5,,,59,100
151488,note_on,,,,,32,0,9,,,,,2,,,78,100
151488,note_on,,,,,32,0,8,,,,,1,,,78,100
151488,note_on,,,,,320,0,13,,,,,6,,,47,100
151552,note_off,,,,,64,0,7,,,,,0,,,78,100
151552,note_off,,,,,64,0,9,,,,,2,,,78,100
151552,note_off,,,,,64,0,10,,,,,3,,,78,100
151552,note_off,,,,,64,0,8,,,,,1,,,78,100
151584,note_on,,,,,32,0,8,,,,,1,,,78,100
151584,note_on,,,,,32,0,10,,,,,3,,,78,100
151584,note_on,,,,,32,0,7,,,,,0,,,78,100
151584,note_on,,,,,32,0,9,,,,,2,,,78,100
151616,note_off,,,,,128,0,15,,,,,7,,,59,100
151616,note_off,,,,,128,0,13,,,,,6,,,47,100
151616,note_off,,,,,0,0,14,,,,,7,,,74,100
151616,note_off,,,,,128,0,11,,,,,4,,,59,100
151616,note_off,,,,,128,0,14,,,,,7,,,66,100
151616,note_off,,,,,128,0,12,,,,,5,,,59,100
151648,note_off,,,,,64,0,10,,,,,3,,,78,100
151648,note_off,,,,,64,0,9,,,,,2,,,78,100
151648,note_off,,,,,64,0,7,,,,,0,,,78,100
151648,note_off,,,,,64,0,8,,,,,1,,,78,100
151680,note_on,,,,,64,0,14,,,,,7,,,62,100
151680,note_on,,,,,0,0,14,,,,,7,,,66,100
151680,note_on,,,,,32,0,8,,,,,1,,,83,100
151680,note_on,,,,,64,0,13,,,,,6,,,35,100
151680,note_on,,,,,64,0,15,,,,,7,,,47,100
151680,note_on,,,,,32,0,10,,,,,3,,,83,100
151680,note_on,,,,,32,0,7,,,,,0,,,83,100
151680,note_on,,,,,64,0,12,,,,,5,,,47,100
151680,note_on,,,,,32,0,9,,,,,2,,,83,100
151744,note_off,,,,,64,0,8,,,,,1,,,83,100
151744,note_off,,,,,64,0,9,,,,,2,,,83,100
151744,note_off,,,,,64,0,7,,,,,0,,,83,100
151744,note_off,,,,,64,0,10,,,,,3,,,83,100
151776,note_on,,,,,32,0,7,,,,,0,,,78,100
151776,note_on,,,,,32,0,10,,,,,3,,,78,100
151776,note_on,,,,,32,0,9,,,,,2,,,78,100
151776,note_on,,,,,32,0,8,,,,,1,,,78,100
151840,note_off,,,,,64,0,9,,,,,2,,,78,100
151840,note_off,,,,,64,0,7,,,,,0,,,78,100
151840,note_off,,,,,64,0,8,,,,,1,,,78,100
151840,note_off,,,,,64,0,10,,,,,3,,,78,100
151872,note_on,,,,,256,0,11,,,,,4,,,66,100
151872,note_on,,,,,32,0,10,,,,,3,,,78,100
151872,note_on,,,,,32,0,8,,,,,1,,,78,100
151872,note_on,,,,,32,0,9,,,,,2,,,78,100
151872,note_on,,,,,32,0,7,,,,,0,,,78,100
151936,note_off,,,,,64,0,10,,,,,3,,,78,100
151936,note_off,,,,,0,0,14,,,,,7,,,66,100
151936,note_off,,,,,256,0,12,,,,,5,,,47,100
151936,note_off,,,,,64,0,9,,,,,2,,,78,100
151936,note_off,,,,,256,0,13,,,,,6,,,35,100
151936,note_off,,,,,256,0,15,,,,,7,,,47,100
151936,note_off,,,,,64,0,7,,,,,0,,,78,100
151936,note_off,,,,,64,0,8,,,,,1,,,78,100
151936,note_off,,,,,256,0,14,,,,,7,,,62,100
151968,note_on,,,,,32,0,7,,,,,0,,,78,100
151968,note_on,,,,,32,0,8,,,,,1,,,78,100
151968,note_on,,,,,32,0,10,,,,,3,,,78,100
151968,note_on,,,,,32,0,9,,,,,2,,,78,100
152000,note_off,,,,,128,0,11,,,,,4,,,66,100
152032,note_off,,,,,64,0,9,,,,,2,,,78,100
152032,note_off,,,,,64,0,10,,,,,3,,,78,100
152032,note_off,,,,,64,0,7,,,,,0,,,78,100
152032,note_off,,,,,64,0,8,,,,,1,,,78,100
152064,note_on,,,,,32,0,7,,,,,0,,,83,100
152064,note_on,,,,,32,0,10,,,,,3,,,83,100
152064,note_on,,,,,64,0,11,,,,,4,,,62,100
152064,note_on,,,,,32,0,9,,,,,2,,,83,100
152064,note_on,,,,,32,0,8,,,,,1,,,83,100
152192,note_off,,,,,128,0,8,,,,,1,,,83,100
152192,note_off,,,,,128,0,9,,,,,2,,,83,100
152192,note_off,,,,,128,0,10,,,,,3,,,83,100
152192,note_off,,,,,128,0,11,,,,,4,,,62,100
152192,note_off,,,,,128,0,7,,,,,0,,,83,100
152256,note_on,,,,,320,0,12,,,,,5,,,59,100
152256,note_on,,,,,320,0,15,,,,,7,,,59,100
152256,note_on,,,,,64,0,11,,,,,4,,,59,100
152256,note_on,,,,,64,0,7,,,,,0,,,81,100
152256,note_on,,,,,0,0,14,,,,,7,,,74,100
152256,note_on,,,,,320,0,14,,,,,7,,,66,100
152256,note_on,,,,,64,0,9,,,,,2,,,81,100
152256,note_on,,,,,64,0,8,,,,,1,,,81,100
152256,note_on,,,,,64,0,10,,,,,3,,,81,100
152256,note_on,,,,,320,0,13,,,,,6,,,47,100
152320,note_off,,,,,64,0,9,,,,,2,,,81,100
152320,note_off,,,,,64,0,8,,,,,1,,,81,100
152320,note_off,,,,,64,0,7,,,,,0,,,81,100
152320,note_off,,,,,64,0,10,,,,,3,,,81,100
152352,note_on,,,,,32,0,10,,,,,3,,,79,100
152352,note_on,,,,,32,0,7,,,,,0,,,79,100
152352,note_on,,,,,32,0,9,,,,,2,,,79,100
152352,note_on,,,,,32,0,8,,,,,1,,,79,100
152384,note_off,,,,,128,0,13,,,,,6,,,47,100
152384,note_off,,,,,128,0,11,,,,,4,,,59,100
152384,note_off,,,,,128,0,15,,,,,7,,,59,100
152384,note_off,,,,,128,0,12,,,,,5,,,59,100
152384,note_off,,,,,0,0,14,,,,,7,,,74,100
152384,note_off,,,,,128,0,14,,,,,7,,,66,100
152416,note_off,,,,,64,0,7,,,,,0,,,79,100
152416,note_off,,,,,64,0,10,,,,,3,,,79,100
152416,note_off,,,,,64,0,9,,,,,2,,,79,100
152416,note_off,,,,,64,0,8,,,,,1,,,79,100
152448,note_on,,,,,64,0,12,,,,,5,,,58,100
152448,note_on,,,,,64,0,14,,,,,7,,,66,100
152448,note_on,,,,,32,0,7,,,,,0,,,78,100
152448,note_on,,,,,32,0,8,,,,,1,,,78,100
152448,note_on,,,,,0,0,14,,,,,7,,,73,100
152448,note_on,,,,,64,0,15,,,,,7,,,58,100
152448,note_on,,,,,32,0,9,,,,,2,,,78,100
152448,note_on,,,,,32,0,10,,,,,3,,,78,100
152448,note_on,,,,,64,0,13,,,,,6,,,46,100
152576,note_off,,,,,0,0,14,,,,,7,,,73,100
152576,note_off,,,,,128,0,14,,,,,7,,,66,100
152576,note_off,,,,,128,0,9,,,,,2,,,78,100
152576,note_off,,,,,128,0,10,,,,,3,,,78,100
152576,note_off,,,,,128,0,12,,,,,5,,,58,100
152576,note_off,,,,,128,0,15,,,,,7,,,58,100
152576,note_off,,,,,128,0,13,,,,,6,,,46,100
152576,note_off,,,,,128,0,8,,,,,1,,,78,100
152576,note_off,,,,,128,0,7,,,,,0,,,78,100
152640,note_on,,,,,64,0,13,,,,,6,,,42,100
152640,note_on,,,,,64,0,8,,,,,1,,,76,100
152640,note_on,,,,,64,0,14,,,,,7,,,70,100
152640,note_on,,,,,64,0,7,,,,,0,,,76,100
152640,note_on,,,,,0,0,14,,,,,7,,,64,100
152640,note_on,,,,,256,0,11,,,,,4,,,61,100
152640,note_on,,,,,64,0,12,,,,,5,,,54,100
152640,note_on,,,,,0,0,11,,,,,4,,,66,100
152640,note_on,,,,,64,0,15,,,,,7,,,54,100
152640,note_on,,,,,64,0,10,,,,,3,,,76,100
152640,note_on,,,,,64,0,9,,,,,2,,,76,100
152768,note_off,,,,,0,0,14,,,,,7,,,64,100
152768,note_off,,,,,128,0,14,,,,,7,,,70,100
152768,note_off,,,,,128,0,11,,,,,4,,,61,100
152768,note_off,,,,,0,0,11,,,,,4,,,66,100
152768,note_off,,,,,128,0,8,,,,,1,,,76,100
152768,note_off,,,,,128,0,10,,,,,3,,,76,100
152768,note_off,,,,,128,0,13,,,,,6,,,42,100
152768,note_off,,,,,128,0,12,,,,,5,,,54,100
152768,note_off,,,,,128,0,7,,,,,0,,,76,100
152768,note_off,,,,,128,0,9,,,,,2,,,76,100
152768,note_off,,,,,128,0,15,,,,,7,,,54,100
152832,note_on,,,,,64,0,9,,,,,2,,,74,100
152832,note_on,,,,,64,0,13,,,,,6,,,47,100
152832,note_on,,,,,64,0,14,,,,,7,,,74,100
152832,note_on,,,,,0,0,14,,,,,7,,,66,100
152832,note_on,,,,,64,0,7,,,,,0,,,74,100
152832,note_on,,,,,0,0,11,,,,,4,,,66,100
152832,note_on,,,,,64,0,11,,,,,4,,,62,100
152832,note_on,,,,,64,0,15,,,,,7,,,59,100
152832,note_on,,,,,64,0,12,,,,,5,,,59,100
152832,note_on,,,,,64,0,8,,,,,1,,,74,100
152832,note_on,,,,,64,0,10,,,,,3,,,74,100
152960,note_off,,,,,128,0,11,,,,,4,,,62,100
152960,note_off,,,,,0,0,11,,,,,4,,,66,100
152960,note_off,,,,,128,0,12,,,,,5,,,59,100
152960,note_off,,,,,128,0,15,,,,,7,,,59,100
152960,note_off,,,,,128,0,8,,,,,1,,,74,100
152960,note_off,,,,,128,0,10,,,,,3,,,74,100
152960,note_off,,,,,128,0,14,,,,,7,,,74,100
152960,note_off,,,,,0,0,14,,,,,7,,,66,100
152960,note_off,,,,,128,0,13,,,,,6,,,47,100
153024,note_on,,,,,64,0,14,,,,,7,,,71,100
153024,note_on,,,,,0,0,14,,,,,7,,,74,100
153024,note_on,,,,,64,0,11,,,,,4,,,67,100
153024,note_on,,,,,64,0,12,,,,,5,,,52,100
153024,note_on,,,,,64,0,10,,,,,3,,,71,100
153024,note_on,,,,,64,0,8,,,,,1,,,71,100
153024,note_on,,,,,64,0,13,,,,,6,,,40,100
153024,note_on,,,,,64,0,15,,,,,7,,,52,100
153088,note_off,,,,,256,0,7,,,,,0,,,74,100
153088,note_off,,,,,256,0,9,,,,,2,,,74,100
153152,note_off,,,,,128,0,13,,,,,6,,,40,100
153152,note_off,,,,,128,0,11,,,,,4,,,67,100
153152,note_off,,,,,128,0,12,,,,,5,,,52,100
153152,note_off,,,,,0,0,14,,,,,7,,,74,100
153152,note_off,,,,,128,0,15,,,,,7,,,52,100
153152,note_off,,,,,128,0,14,,,,,7,,,71,100
153216,note_on,,,,,64,0,14,,,,,7,,,71,100
153216,note_on,,,,,64,0,11,,,,,4,,,61,100
153216,note_on,,,,,0,0,11,,,,,4,,,66,100
153216,note_on,,,,,128,0,9,,,,,2,,,73,100
153216,note_on,,,,,128,0,7,,,,,0,,,73,100
153216,note_on,,,,,64,0,12,,,,,5,,,54,100
153216,note_on,,,,,64,0,13,,,,,6,,,42,100
153216,note_on,,,,,64,0,15,,,,,7,,,54,100
153216,note_on,,,,,0,0,14,,,,,7,,,73,100
153280,note_off,,,,,256,0,8,,,,,1,,,71,100
153280,note_off,,,,,256,0,10,,,,,3,,,71,100
153344,note_off,,,,,128,0,15,,,,,7,,,54,100
153344,note_off,,,,,128,0,12,,,,,5,,,54,100
153344,note_off,,,,,128,0,14,,,,,7,,,71,100
153344,note_off,,,,,0,0,14,,,,,7,,,73,100
153344,note_off,,,,,0,0,11,,,,,4,,,66,100
153344,note_off,,,,,128,0,11,,,,,4,,,61,100
153344,note_off,,,,,128,0,13,,,,,6,,,42,100
153408,note_on,,,,,64,0,14,,,,,7,,,61,100
153408,note_on,,,,,128,0,10,,,,,3,,,70,100
153408,note_on,,,,,64,0,15,,,,,7,,,42,100
153408,note_on,,,,,64,0,13,,,,,6,,,42,100
153408,note_on,,,,,64,0,12,,,,,5,,,42,100
153408,note_on,,,,,128,0,8,,,,,1,,,70,100
153408,note_on,,,,,0,0,14,,,,,7,,,70,100
153408,note_on,,,,,64,0,11,,,,,4,,,66,100
153472,note_off,,,,,256,0,9,,,,,2,,,73,100
153472,note_off,,,,,256,0,7,,,,,0,,,73,100
153536,note_off,,,,,128,0,11,,,,,4,,,66,100
153536,note_off,,,,,128,0,10,,,,,3,,,70,100
153536,note_off,,,,,128,0,8,,,,,1,,,70,100
153536,note_off,,,,,0,0,14,,,,,7,,,70,100
153536,note_off,,,,,128,0,14,,,,,7,,,61,100
153536,note_off,,,,,128,0,12,,,,,5,,,42,100
153536,note_off,,,,,128,0,15,,,,,7,,,42,100
153536,note_off,,,,,128,0,13,,,,,6,,,42,100
153600,note_on,,,,,128,0,9,,,,,2,,,71,100
153600,note_on,,,,,64,0,8,,,,,1,,,71,100
153600,note_on,,,,,64,0,10,,,,,3,,,71,100
153600,note_on,,,,,128,0,7,,,,,0,,,71,100
153600,note_on,,,,,0,0,14,,,,,7,,,66,100
153600,note_on,,,,,64,0,12,,,,,5,,,47,100
153600,note_on,,,,,64,0,13,,,,,6,,,35,100
153600,note_on,,,,,64,0,15,,,,,7,,,47,100
153600,note_on,,,,,64,0,11,,,,,4,,,62,100
153600,note_on,,,,,0,0,11,,,,,4,,,66,100
153600,note_on,,,,,0,0,14,,,,,7,,,62,100
153600,note_on,,,,,64,0,14,,,,,7,,,71,100
153664,note_off,,,,,64,0,9,,,,,2,,,71,100
153664,note_off,,,,,64,0,8,,,,,1,,,71,100
153664,note_off,,,,,64,0,7,,,,,0,,,71,100
153664,note_off,,,,,64,0,10,,,,,3,,,71,100
153696,note_on,,,,,32,0,7,,,,,0,,,66,100
153696,note_on,,,,,32,0,9,,,,,2,,,66,100
153696,note_on,,,,,32,0,8,,,,,1,,,66,100
153696,note_on,,,,,32,0,10,,,,,3,,,66,100
153728,note_off,,,,,128,0,14,,,,,7,,,71,100
153728,note_off,,,,,0,0,14,,,,,7,,,62,100
153728,note_off,,,,,0,0,14,,,,,7,,,66,100
153728,note_off,,,,,128,0,13,,,,,6,,,35,100
153728,note_off,,,,,128,0,15,,,,,7,,,47,100
153728,note_off,,,,,128,0,12,,,,,5,,,47,100
153760,note_off,,,,,64,0,9,,,,,2,,,66,100
153760,note_off,,,,,64,0,10,,,,,3,,,66,100
153760,note_off,,,,,64,0,7,,,,,0,,,66,100
153760,note_off,,,,,64,0,8,,,,,1,,,66,100
153792,note_on,,,,,32,0,10,,,,,3,,,66,101
153792,note_on,,,,,64,0,12,,,,,5,,,59,101
153792,note_on,,,,,32,0,7,,,,,0,,,66,101
153792,note_on,,,,,64,0,14,,,,,7,,,74,100
153792,note_on,,,,,0,0,14,,,,,7,,,66,100
153792,note_on,,,,,32,0,9,,,,,2,,,66,101
153792,note_on,,,,,64,0,13,,,,,6,,,47,101
153792,note_on,,,,,32,0,8,,,,,1,,,66,101
153792,note_on,,,,,64,0,15,,,,,7,,,59,100
153856,note_off,,,,,64,0,9,,,,,2,,,66,100
153856,note_off,,,,,64,0,10,,,,,3,,,66,100
153856,note_off,,,,,0,0,11,,,,,4,,,66,100
153856,note_off,,,,,256,0,11,,,,,4,,,62,100
153856,note_off,,,,,64,0,7,,,,,0,,,66,100
153856,note_off,,,,,64,0,8,,,,,1,,,66,100
153888,note_on,,,,,32,0,7,,,,,0,,,66,101
153888,note_on,,,,,32,0,9,,,,,2,,,66,101
153888,note_on,,,,,32,0,10,,,,,3,,,66,101
153888,note_on,,,,,32,0,8,,,,,1,,,66,101
153920,note_off,,,,,128,0,15,,,,,7,,,59,100
153920,note_off,,,,,128,0,12,,,,,5,,,59,100
153920,note_off,,,,,128,0,14,,,,,7,,,74,100
153920,note_off,,,,,0,0,14,,,,,7,,,66,100
153920,note_off,,,,,128,0,13,,,,,6,,,47,100
153952,note_off,,,,,64,0,7,,,,,0,,,66,100
153952,note_off,,,,,64,0,9,,,,,2,,,66,100
153952,note_off,,,,,64,0,8,,,,,1,,,66,100
153952,note_off,,,,,64,0,10,,,,,3,,,66,100
153984,note_on,,,,,64,0,15,,,,,7,,,47,100
153984,note_on,,,,,32,0,10,,,,,3,,,71,102
153984,note_on,,,,,64,0,13,,,,,6,,,35,102
153984,note_on,,,,,0,0,14,,,,,7,,,66,100
153984,note_on,,,,,64,0,12,,,,,5,,,47,102
153984,note_on,,,,,64,0,14,,,,,7,,,62,100
153984,note_on,,,,,32,0,8,,,,,1,,,71,102
153984,note_on,,,,,32,0,7,,,,,0,,,71,102
153984,note_on,,,,,32,0,9,,,,,2,,,71,102
154048,note_off,,,,,64,0,10,,,,,3,,,71,100
154048,note_off,,,,,64,0,8,,,,,1,,,71,100
154048,note_off,,,,,64,0,7,,,,,0,,,71,100
154048,note_off,,,,,64,0,9,,,,,2,,,71,100
154080,note_on,,,,,32,0,10,,,,,3,,,66,103
154080,note_on,,,,,32,0,9,,,,,2,,,66,103
154080,note_on,,,,,32,0,7,,,,,0,,,66,103
154080,note_on,,,,,32,0,8,,,,,1,,,66,103
154144,note_off,,,,,64,0,9,,,,,2,,,66,100
154144,note_off,,,,,64,0,7,,,,,0,,,66,100
154144,note_off,,,,,64,0,8,,,,,1,,,66,100
154144,note_off,,,,,64,0,10,,,,,3,,,66,100
154176,note_on,,,,,32,0,8,,,,,1,,,66,103
154176,note_on,,,,,32,0,7,,,,,0,,,66,103
154176,note_on,,,,,32,0,9,,,,,2,,,66,103
154176,note_on,,,,,320,0,11,,,,,4,,,66,103
154176,note_on,,,,,32,0,10,,,,,3,,,66,103
154240,note_off,,,,,64,0,9,,,,,2,,,66,100
154240,note_off,,,,,0,0,14,,,,,7,,,66,100
154240,note_off,,,,,256,0,12,,,,,5,,,47,100
154240,note_off,,,,,64,0,7,,,,,0,,,66,100
154240,note_off,,,,,256,0,15,,,,,7,,,47,100
154240,note_off,,,,,256,0,13,,,,,6,,,35,100
154240,note_off,,,,,64,0,10,,,,,3,,,66,100
154240,note_off,,,,,64,0,8,,,,,1,,,66,100
154240,note_off,,,,,256,0,14,,,,,7,,,62,100
154272,note_on,,,,,32,0,9,,,,,2,,,66,104
154272,note_on,,,,,32,0,8,,,,,1,,,66,104
154272,note_on,,,,,32,0,7,,,,,0,,,66,104
154272,note_on,,,,,32,0,10,,,,,3,,,66,104
154304,note_off,,,,,128,0,11,,,,,4,,,66,100
154336,note_off,,,,,64,0,8,,,,,1,,,66,100
154336,note_off,,,,,64,0,7,,,,,0,,,66,100
154336,note_off,,,,,64,0,9,,,,,2,,,66,100
154336,note_off,,,,,64,0,10,,,,,3,,,66,100
154368,note_on,,,,,32,0,10,,,,,3,,,71,104
154368,note_on,,,,,64,0,11,,,,,4,,,62,104
154368,note_on,,,,,32,0,9,,,,,2,,,71,104
154368,note_on,,,,,32,0,7,,,,,0,,,71,104
154368,note_on,,,,,32,0,8,,,,,1,,,71,104
154432,note_off,,,,,64,0,10,,,,,3,,,71,100
154432,note_off,,,,,64,0,9,,,,,2,,,71,100
154432,note_off,,,,,64,0,7,,,,,0,,,71,100
154432,note_off,,,,,64,0,8,,,,,1,,,71,100
154464,note_on,,,,,32,0,10,,,,,3,,,66,105
154464,note_on,,,,,32,0,9,,,,,2,,,66,105
154464,note_on,,,,,32,0,7,,,,,0,,,66,105
154464,note_on,,,,,32,0,8,,,,,1,,,66,105
154496,note_off,,,,,128,0,11,,,,,4,,,62,100
154528,note_off,,,,,64,0,9,,,,,2,,,66,100
154528,note_off,,,,,64,0,8,,,,,1,,,66,100
154528,note_off,,,,,64,0,10,,,,,3,,,66,100
154528,note_off,,,,,64,0,7,,,,,0,,,66,100
154560,note_on,,,,,320,0,15,,,,,7,,,59,100
154560,note_on,,,,,32,0,8,,,,,1,,,66,106
154560,note_on,,,,,64,0,11,,,,,4,,,59,106
154560,note_on,,,,,32,0,10,,,,,3,,,66,106
154560,note_on,,,,,32,0,9,,,,,2,,,66,106
154560,note_on,,,,,320,0,12,,,,,5,,,59,106
154560,note_on,,,,,320,0,13,,,,,6,,,47,106
154560,note_on,,,,,320,0,14,,,,,7,,,66,100
154560,note_on,,,,,0,0,14,,,,,7,,,74,100
154560,note_on,,,,,32,0,7,,,,,0,,,66,106
154624,note_off,,,,,64,0,8,,,,,1,,,66,100
154624,note_off,,,,,64,0,10,,,,,3,,,66,100
154624,note_off,,,,,64,0,9,,,,,2,,,66,100
154624,note_off,,,,,64,0,7,,,,,0,,,66,100
154656,note_on,,,,,32,0,7,,,,,0,,,66,106
154656,note_on,,,,,32,0,10,,,,,3,,,66,106
154656,note_on,,,,,32,0,9,,,,,2,,,66,106
154656,note_on,,,,,32,0,8,,,,,1,,,66,106
154688,note_off,,,,,128,0,15,,,,,7,,,59,100
154688,note_off,,,,,128,0,14,,,,,7,,,66,100
154688,note_off,,,,,0,0,14,,,,,7,,,74,100
154688,note_off,,,,,128,0,12,,,,,5,,,59,100
154688,note_off,,,,,128,0,13,,,,,6,,,47,100
154688,note_off,,,,,128,0,11,,,,,4,,,59,100
154720,note_off,,,,,64,0,7,,,,,0,,,66,100
154720,note_off,,,,,64,0,10,,,,,3,,,66,100
154720,note_off,,,,,64,0,9,,,,,2,,,66,100
154720,note_off,,,,,64,0,8,,,,,1,,,66,100
154752,note_on,,,,,32,0,8,,,,,1,,,71,107
154752,note_on,,,,,64,0,15,,,,,7,,,47,100
154752,note_on,,,,,32,0,7,,,,,0,,,71,107
154752,note_on,,,,,64,0,14,,,,,7,,,62,100
154752,note_on,,,,,0,0,14,,,,,7,,,66,100
154752,note_on,,,,,64,0,13,,,,,6,,,35,107
154752,note_on,,,,,32,0,9,,,,,2,,,71,107
154752,set_tempo,,,,,145536,1,0,,500000,,,,,,,
154752,note_on,,,,,64,0,12,,,,,5,,,47,107
154752,note_on,,,,,32,0,10,,,,,3,,,71,107
154800,set_tempo,,,,,48,1,0,,504201,,,,,,,
154816,note_off,,,,,64,0,9,,,,,2,,,71,100
154816,note_off,,,,,64,0,7,,,,,0,,,71,100
154816,note_off,,,,,64,0,8,,,,,1,,,71,100
154816,note_off,,,,,64,0,10,,,,,3,,,71,100
154848,note_on,,,,,32,0,10,,,,,3,,,66,108
154848,note_on,,,,,32,0,7,,,,,0,,,66,108
154848,note_on,,,,,32,0,9,,,,,2,,,66,108
154848,set_tempo,,,,,48,1,0,,508474,,,,,,,
154848,note_on,,,,,32,0,8,,,,,1,,,66,108
154896,set_tempo,,,,,48,1,0,,512820,,,,,,,
154912,note_off,,,,,64,0,9,,,,,2,,,66,100
154912,note_off,,,,,64,0,7,,,,,0,,,66,100
154912,note_off,,,,,64,0,10,,,,,3,,,66,100
154912,note_off,,,,,64,0,8,,,,,1,,,66,100
154944,note_on,,,,,32,0,9,,,,,2,,,66,108
154944,note_on,,,,,256,0,11,,,,,4,,,66,108
154944,note_on,,,,,32,0,8,,,,,1,,,66,108
154944,note_on,,,,,32,0,10,,,,,3,,,66,108
154944,note_on,,,,,32,0,7,,,,,0,,,66,108
154944,set_tempo,,,,,48,1,0,,517241,,,,,,,
154992,set_tempo,,,,,48,1,0,,521739,,,,,,,
155008,note_off,,,,,64,0,8,,,,,1,,,66,100
155008,note_off,,,,,256,0,13,,,,,6,,,35,100
155008,note_off,,,,,256,0,12,,,,,5,,,47,100
155008,note_off,,,,,64,0,7,,,,,0,,,66,100
155008,note_off,,,,,64,0,9,,,,,2,,,66,100
155008,note_off,,,,,256,0,14,,,,,7,,,62,100
155008,note_off,,,,,0,0,14,,,,,7,,,66,100
155008,note_off,,,,,64,0,10,,,,,3,,,66,100
155008,note_off,,,,,256,0,15,,,,,7,,,47,100
155040,set_tempo,,,,,48,1,0,,526315,,,,,,,
155040,note_on,,,,,32,0,7,,,,,0,,,66,109
155040,note_on,,,,,32,0,10,,,,,3,,,66,109
155040,note_on,,,,,32,0,8,,,,,1,,,66,109
155040,note_on,,,,,32,0,9,,,,,2,,,66,109
155072,note_off,,,,,128,0,11,,,,,4,,,66,100
155088,set_tempo,,,,,48,1,0,,530973,,,,,,,
155104,note_off,,,,,64,0,8,,,,,1,,,66,100
155104,note_off,,,,,64,0,10,,,,,3,,,66,100
155104,note_off,,,,,64,0,9,,,,,2,,,66,100
155104,note_off,,,,,64,0,7,,,,,0,,,66,100
155136,note_on,,,,,32,0,8,,,,,1,,,71,109
155136,set_tempo,,,,,48,1,0,,535714,,,,,,,
155136,note_on,,,,,32,0,7,,,,,0,,,71,109
155136,note_on,,,,,32,0,9,,,,,2,,,71,109
155136,note_on,,,,,64,0,11,,,,,4,,,62,109
155136,note_on,,,,,32,0,10,,,,,3,,,71,109
155184,set_tempo,,,,,48,1,0,,540540,,,,,,,
155232,set_tempo,,,,,48,1,0,,545454,,,,,,,
155264,note_off,,,,,128,0,11,,,,,4,,,62,100
155264,note_off,,,,,128,0,10,,,,,3,,,71,100
155264,note_off,,,,,128,0,9,,,,,2,,,71,100
155264,note_off,,,,,128,0,7,,,,,0,,,71,100
155264,note_off,,,,,128,0,8,,,,,1,,,71,100
155280,set_tempo,,,,,48,1,0,,550458,,,,,,,
155328,note_on,,,,,320,0,15,,,,,7,,,59,100
155328,note_on,,,,,64,0,10,,,,,3,,,69,111
155328,note_on,,,,,64,0,7,,,,,0,,,69,111
155328,note_on,,,,,320,0,12,,,,,5,,,59,111
155328,note_on,,,,,64,0,9,,,,,2,,,69,111
155328,note_on,,,,,320,0,14,,,,,7,,,66,100
155328,note_on,,,,,0,0,14,,,,,7,,,74,100
155328,note_on,,,,,64,0,8,,,,,1,,,69,111
155328,note_on,,,,,320,0,13,,,,,6,,,47,111
155328,note_on,,,,,64,0,11,,,,,4,,,59,111
155328,set_tempo,,,,,48,1,0,,555555,,,,,,,
155376,set_tempo,,,,,48,1,0,,560747,,,,,,,
155392,note_off,,,,,64,0,7,,,,,0,,,69,100
155392,note_off,,,,,64,0,9,,,,,2,,,69,100
155392,note_off,,,,,64,0,10,,,,,3,,,69,100
155392,note_off,,,,,64,0,8,,,,,1,,,69,100
155424,set_tempo,,,,,48,1,0,,566037,,,,,,,
155424,note_on,,,,,32,0,7,,,,,0,,,67,111
155424,note_on,,,,,32,0,8,,,,,1,,,67,111
155424,note_on,,,,,32,0,10,,,,,3,,,67,111
155424,note_on,,,,,32,0,9,,,,,2,,,67,111
155456,note_off,,,,,0,0,14,,,,,7,,,74,100
155456,note_off,,,,,128,0,14,,,,,7,,,66,100
155456,note_off,,,,,128,0,13,,,,,6,,,47,100
155456,note_off,,,,,128,0,11,,,,,4,,,59,100
155456,note_off,,,,,128,0,12,,,,,5,,,59,100
155456,note_off,,,,,128,0,15,,,,,7,,,59,100
155472,set_tempo,,,,,48,1,0,,571428,,,,,,,
155488,note_off,,,,,64,0,7,,,,,0,,,67,100
155488,note_off,,,,,64,0,8,,,,,1,,,67,100
155488,note_off,,,,,64,0,9,,,,,2,,,67,100
155488,note_off,,,,,64,0,10,,,,,3,,,67,100
155520,note_on,,,,,0,0,14,,,,,7,,,73,100
155520,note_on,,,,,64,0,15,,,,,7,,,58,100
155520,note_on,,,,,32,0,7,,,,,0,,,66,112
155520,note_on,,,,,32,0,8,,,,,1,,,66,112
155520,note_on,,,,,32,0,9,,,,,2,,,66,112
155520,note_on,,,,,32,0,10,,,,,3,,,66,112
155520,set_tempo,,,,,48,1,0,,576923,,,,,,,
155520,note_on,,,,,64,0,13,,,,,6,,,46,112
155520,note_on,,,,,64,0,14,,,,,7,,,66,100
155520,note_on,,,,,64,0,12,,,,,5,,,58,112
155568,set_tempo,,,,,48,1,0,,582524,,,,,,,
155616,set_tempo,,,,,48,1,0,,588235,,,,,,,
155648,note_off,,,,,128,0,15,,,,,7,,,58,100
155648,note_off,,,,,128,0,9,,,,,2,,,66,100
155648,note_off,,,,,128,0,13,,,,,6,,,46,100
155648,note_off,,,,,128,0,10,,,,,3,,,66,100
155648,note_off,,,,,128,0,14,,,,,7,,,66,100
155648,note_off,,,,,128,0,7,,,,,0,,,66,100
155648,note_off,,,,,0,0,14,,,,,7,,,73,100
155648,note_off,,,,,128,0,12,,,,,5,,,58,100
155648,note_off,,,,,128,0,8,,,,,1,,,66,100
155664,set_tempo,,,,,48,1,0,,594059,,,,,,,
155712,note_on,,,,,64,0,14,,,,,7,,,70,100
155712,note_on,,,,,64,0,12,,,,,5,,,54,113
155712,note_on,,,,,64,0,10,,,,,3,,,64,113
155712,note_on,,,,,256,0,11,,,,,4,,,61,113
155712,note_on,,,,,64,0,8,,,,,1,,,64,113
155712,set_tempo,,,,,48,1,0,,600000,,,,,,,
155712,note_on,,,,,64,0,9,,,,,2,,,64,113
155712,note_on,,,,,64,0,13,,,,,6,,,42,113
155712,note_on,,,,,0,0,14,,,,,7,,,64,100
155712,note_on,,,,,64,0,15,,,,,7,,,54,100
155712,note_on,,,,,0,0,11,,,,,4,,,66,113
155712,note_on,,,,,64,0,7,,,,,0,,,64,113
155760,set_tempo,,,,,48,1,0,,606060,,,,,,,
155808,set_tempo,,,,,48,1,0,,612244,,,,,,,
155840,note_off,,,,,128,0,13,,,,,6,,,42,100
155840,note_off,,,,,128,0,9,,,,,2,,,64,100
155840,note_off,,,,,128,0,11,,,,,4,,,61,100
155840,note_off,,,,,0,0,11,,,,,4,,,66,100
155840,note_off,,,,,0,0,14,,,,,7,,,64,100
155840,note_off,,,,,128,0,14,,,,,7,,,70,100
155840,note_off,,,,,128,0,7,,,,,0,,,64,100
155840,note_off,,,,,128,0,12,,,,,5,,,54,100
155840,note_off,,,,,128,0,8,,,,,1,,,64,100
155840,note_off,,,,,128,0,10,,,,,3,,,64,100
155840,note_off,,,,,128,0,15,,,,,7,,,54,100
155856,set_tempo,,,,,48,1,0,,618556,,,,,,,
155904,note_on,,,,,64,0,13,,,,,6,,,35,114
155904,note_on,,,,,64,0,12,,,,,5,,,47,114
155904,note_on,,,,,0,0,14,,,,,7,,,71,100
155904,set_tempo,,,,,48,1,0,,625000,,,,,,,
155904,note_on,,,,,64,0,14,,,,,7,,,62,100
155904,note_on,,,,,64,0,15,,,,,7,,,47,100
155904,note_on,,,,,64,0,9,,,,,2,,,62,114
155904,note_on,,,,,64,0,7,,,,,0,,,62,114
155904,note_on,,,,,64,0,11,,,,,4,,,62,114
155904,note_on,,,,,64,0,8,,,,,1,,,62,114
155904,note_on,,,,,64,0,10,,,,,3,,,62,114
155904,note_on,,,,,0,0,11,,,,,4,,,54,114
155952,set_tempo,,,,,48,1,0,,631578,,,,,,,
156000,set_tempo,,,,,48,1,0,,638297,,,,,,,
156032,note_off,,,,,128,0,8,,,,,1,,,62,100
156032,note_off,,,,,128,0,11,,,,,4,,,62,100
156032,note_off,,,,,128,0,14,,,,,7,,,62,100
156032,note_off,,,,,0,0,14,,,,,7,,,71,100
156032,note_off,,,,,128,0,12,,,,,5,,,47,100
156032,note_off,,,,,128,0,15,,,,,7,,,47,100
156032,note_off,,,,,128,0,10,,,,,3,,,62,100
156032,note_off,,,,,128,0,13,,,,,6,,,35,100
156032,note_off,,,,,0,0,11,,,,,4,,,54,100
156048,set_tempo,,,,,48,1,0,,645161,,,,,,,
156096,note_on,,,,,64,0,13,,,,,6,,,40,116
156096,note_on,,,,,64,0,8,,,,,1,,,59,116
156096,note_on,,,,,64,0,12,,,,,5,,,52,116
156096,note_on,,,,,64,0,10,,,,,3,,,59,116
156096,note_on,,,,,64,0,14,,,,,7,,,59,100
156096,note_on,,,,,0,0,14,,,,,7,,,62,100
156096,note_on,,,,,64,0,15,,,,,7,,,52,100
156096,set_tempo,,,,,48,1,0,,652173,,,,,,,
156096,note_on,,,,,64,0,11,,,,,4,,,52,116
156096,note_on,,,,,0,0,11,,,,,4,,,55,116
156144,set_tempo,,,,,48,1,0,,659340,,,,,,,
156160,note_off,,,,,256,0,9,,,,,2,,,62,100
156160,note_off,,,,,256,0,7,,,,,0,,,62,100
156192,set_tempo,,,,,48,1,0,,666666,,,,,,,
156224,note_off,,,,,128,0,12,,,,,5,,,52,100
156224,note_off,,,,,0,0,11,,,,,4,,,55,100
156224,note_off,,,,,128,0,13,,,,,6,,,40,100
156224,note_off,,,,,0,0,14,,,,,7,,,62,100
156224,note_off,,,,,128,0,14,,,,,7,,,59,100
156224,note_off,,,,,128,0,15,,,,,7,,,52,100
156224,note_off,,,,,128,0,11,,,,,4,,,52,100
156240,set_tempo,,,,,48,1,0,,674157,,,,,,,
156288,note_on,,,,,64,0,11,,,,,4,,,54,117
156288,note_on,,,,,64,0,12,,,,,5,,,54,117
156288,note_on,,,,,128,0,7,,,,,0,,,61,117
156288,note_on,,,,,128,0,9,,,,,2,,,61,117
156288,set_tempo,,,,,48,1,0,,681818,,,,,,,
156288,note_on,,,,,0,0,14,,,,,7,,,61,100
156288,note_on,,,,,64,0,15,,,,,7,,,54,100
156288,note_on,,,,,64,0,13,,,,,6,,,42,117
156288,note_on,,,,,64,0,14,,,,,7,,,59,100
156336,set_tempo,,,,,48,1,0,,689655,,,,,,,
156352,note_off,,,,,256,0,8,,,,,1,,,59,100
156352,note_off,,,,,256,0,10,,,,,3,,,59,100
156384,set_tempo,,,,,48,1,0,,697674,,,,,,,
156416,note_off,,,,,128,0,14,,,,,7,,,59,100
156416,note_off,,,,,128,0,11,,,,,4,,,54,100
156416,note_off,,,,,128,0,13,,,,,6,,,42,100
156416,note_off,,,,,0,0,14,,,,,7,,,61,100
156416,note_off,,,,,128,0,15,,,,,7,,,54,100
156416,note_off,,,,,128,0,12,,,,,5,,,54,100
156432,set_tempo,,,,,48,1,0,,705882,,,,,,,
156480,set_tempo,,,,,48,1,0,,714285,,,,,,,
156480,note_on,,,,,128,0,10,,,,,3,,,58,118
156480,note_on,,,,,64,0,14,,,,,7,,,57,100
156480,note_on,,,,,64,0,13,,,,,6,,,42,118
156480,note_on,,,,,128,0,8,,,,,1,,,58,118
156480,note_on,,,,,64,0,12,,,,,5,,,42,118
156480,note_on,,,,,64,0,15,,,,,7,,,42,100
156480,note_on,,,,,64,0,11,,,,,4,,,54,118
156480,note_on,,,,,0,0,14,,,,,7,,,61,100
156528,set_tempo,,,,,48,1,0,,722891,,,,,,,
156544,note_off,,,,,256,0,7,,,,,0,,,61,100
156544,note_off,,,,,256,0,9,,,,,2,,,61,100
156576,set_tempo,,,,,48,1,0,,731707,,,,,,,
156608,note_off,,,,,128,0,15,,,,,7,,,42,100
156608,note_off,,,,,128,0,10,,,,,3,,,58,100
156608,note_off,,,,,128,0,14,,,,,7,,,57,100
156608,note_off,,,,,128,0,13,,,,,6,,,42,100
156608,note_off,,,,,128,0,11,,,,,4,,,54,100
156608,note_off,,,,,128,0,8,,,,,1,,,58,100
156608,note_off,,,,,128,0,12,,,,,5,,,42,100
156608,note_off,,,,,0,0,14,,,,,7,,,61,100
156624,set_tempo,,,,,48,1,0,,740740,,,,,,,
156672,note_on,,,,,64,0,15,,,,,7,,,47,100
156672,end_of_track,,,,,0,1,0,,,,,,,,,
156672,note_on,,,,,128,0,7,,,,,0,,,59,119
156672,note_on,,,,,64,0,13,,,,,6,,,35,119
156672,set_tempo,,,,,48,1,0,,750000,,,,,,,
156672,note_on,,,,,64,0,8,,,,,1,,,59,119
156672,note_on,,,,,64,0,12,,,,,5,,,47,119
156672,note_on,,,,,64,0,11,,,,,4,,,50,119
156672,note_on,,,,,0,0,11,,,,,4,,,54,119
156672,note_on,,,,,64,0,10,,,,,3,,,59,119
156672,note_on,,,,,128,0,9,,,,,2,,,59,119
156700,note_on,,,,,92,0,14,,,,,7,,,59,100
156732,note_on,,,,,32,0,14,,,,,7,,,62,100
156764,note_on,,,,,32,0,14,,,,,7,,,66,100
156796,note_on,,,,,32,0,14,,,,,7,,,71,100
157700,note_off,,,,,1028,0,9,,,,,2,,,59,100
157700,note_off,,,,,1028,0,15,,,,,7,,,47,100
157700,end_of_track,,,,,0,1,10,,,,,,,,,
157700,note_off,,,,,1028,0,10,,,,,3,,,59,100
157700,note_off,,,,,1028,0,7,,,,,0,,,59,100
157700,end_of_track,,,,,0,1,15,,,,,,,,,
157700,note_off,,,,,1028,0,13,,,,,6,,,35,100
157700,note_off,,,,,1028,0,11,,,,,4,,,50,100
157700,note_off,,,,,0,0,11,,,,,4,,,54,100
157700,end_of_track,,,,,0,1,11,,,,,,,,,
157700,end_of_track,,,,,0,1,13,,,,,,,,,
157700,end_of_track,,,,,0,1,9,,,,,,,,,
157700,note_off,,,,,1028,0,8,,,,,1,,,59,100
157700,end_of_track,,,,,0,1,8,,,,,,,,,
157700,end_of_track,,,,,0,1,12,,,,,,,,,
157700,note_off,,,,,1028,0,12,,,,,5,,,47,100
157728,note_off,,,,,932,0,14,,,,,7,,,59,100
157760,note_off,,,,,32,0,14,,,,,7,,,62,100
157792,note_off,,,,,32,0,14,,,,,7,,,66,100
157824,end_of_track,,,,,0,1,14,,,,,,,,,
157824,note_off,,,,,32,0,14,,,,,7,,,71,100
159360,end_of_track,,,,,0,1,7,,,,,,,,,
159360,program_change,,,,,1660,0,7,,,,,0,40,,,
