tick,type,numerator,denominator,clocks_per_click,notated_32nd_notes_per_beat,time,meta,track,data,tempo,control,value,channel,program,key,note,velocity
0,time_signature,4,4,96,8,0,1,0,,,,,,,,,
0,end_of_track,,,,,0,1,5,,,,,,,,,
0,track_name,,,,,0,1,6,,,,,,,,,
0,control_change,,,,,0,0,6,,,0,0,0,,,,
0,program_change,,,,,0,0,6,,,,,0,40,,,
0,control_change,,,,,0,0,6,,,7,100,0,,,,
0,control_change,,,,,0,0,6,,,10,53,0,,,,
0,control_change,,,,,0,0,6,,,91,66,0,,,,
0,key_signature,,,,,0,1,6,,,,,,,F,,
0,end_of_track,,,,,0,1,6,,,,,,,,,
0,key_signature,,,,,0,1,5,,,,,,,F,,
0,track_name,,,,,0,1,7,,,,,,,,,
0,program_change,,,,,0,0,7,,,,,0,40,,,
0,control_change,,,,,0,0,7,,,7,100,0,,,,
0,control_change,,,,,0,0,7,,,10,53,0,,,,
0,control_change,,,,,0,0,7,,,91,66,0,,,,
0,key_signature,,,,,0,1,7,,,,,,,F,,
0,end_of_track,,,,,0,1,7,,,,,,,,,
0,track_name,,,,,0,1,8,,,,,,,,,
0,control_change,,,,,0,0,8,,,0,0,0,,,,
0,program_change,,,,,0,0,8,,,,,0,40,,,
0,control_change,,,,,0,0,7,,,0,0,0,,,,
0,control_change,,,,,0,0,5,,,91,66,0,,,,
0,control_change,,,,,0,0,5,,,10,53,0,,,,
0,control_change,,,,,0,0,5,,,7,100,0,,,,
0,track_name,,,,,0,1,2,,,,,,,,,
0,end_of_track,,,,,0,1,2,,,,,,,,,
0,track_name,,,,,0,1,3,,,,,,,,,
0,control_change,,,,,0,0,3,,,0,0,0,,,,
0,control_change,,,,,0,0,3,,,7,100,0,,,,
0,control_change,,,,,0,0,3,,,10,53,0,,,,
0,control_change,,,,,0,0,3,,,91,66,0,,,,
0,program_change,,,,,0,0,3,,,,,0,40,,,
0,key_signature,,,,,0,1,3,,,,,,,F,,
0,end_of_track,,,,,0,1,3,,,,,,,,,
0,track_name,,,,,0,1,4,,,,,,,,,
0,control_change,,,,,0,0,4,,,0,0,0,,,,
0,program_change,,,,,0,0,4,,,,,0,40,,,
0,control_change,,,,,0,0,4,,,7,100,0,,,,
0,control_change,,,,,0,0,4,,,10,53,0,,,,
0,control_change,,,,,0,0,4,,,91,66,0,,,,
0,key_signature,,,,,0,1,4,,,,,,,F,,
0,end_of_track,,,,,0,1,4,,,,,,,,,
0,track_name,,,,,0,1,5,,,,,,,,,
0,control_change,,,,,0,0,5,,,0,0,0,,,,
0,program_change,,,,,0,0,5,,,,,0,40,,,
0,control_change,,,,,0,0,8,,,7,100,0,,,,
0,control_change,,,,,0,0,8,,,10,53,0,,,,
0,control_change,,,,,0,0,8,,,91,66,0,,,,
0,key_signature,,,,,0,1,8,,,,,,,F,,
0,track_name,,,,,0,1,10,,,,,,,,,
0,control_change,,,,,0,0,10,,,0,0,2,,,,
0,program_change,,,,,0,0,10,,,,,2,48,,,
0,control_change,,,,,0,0,10,,,7,95,2,,,,
0,control_change,,,,,0,0,10,,,91,62,2,,,,
0,key_signature,,,,,0,1,10,,,,,,,F,,
0,note_on,,,,,0,0,10,,,,,2,,,55,60
0,track_name,,,,,0,1,11,,,,,,,,,
0,control_change,,,,,0,0,11,,,0,0,3,,,,
0,program_change,,,,,0,0,11,,,,,3,48,,,
0,control_change,,,,,0,0,11,,,7,82,3,,,,
0,control_change,,,,,0,0,11,,,10,81,3,,,,
0,control_change,,,,,0,0,11,,,91,61,3,,,,
0,key_signature,,,,,0,1,11,,,,,,,F,,
0,note_on,,,,,0,0,11,,,,,3,,,51,60
0,note_on,,,,,0,0,12,,,,,4,,,39,60
0,key_signature,,,,,0,1,12,,,,,,,F,,
0,control_change,,,,,0,0,12,,,91,65,4,,,,
0,control_change,,,,,0,0,12,,,10,91,4,,,,
0,control_change,,,,,0,0,12,,,7,77,4,,,,
0,program_change,,,,,0,0,12,,,,,4,48,,,
0,track_name,,,,,0,1,13,,,,,,,,,
0,end_of_track,,,,,0,1,1,,,,,,,,,
0,control_change,,,,,0,0,13,,,0,0,5,,,,
0,control_change,,,,,0,0,13,,,7,55,5,,,,
0,note_on,,,,,0,0,14,,,,,5,,,51,100
0,key_signature,,,,,0,1,14,,,,,,,F,,
0,control_change,,,,,0,0,14,,,91,63,5,,,,
0,control_change,,,,,0,0,14,,,7,55,5,,,,
0,program_change,,,,,0,0,14,,,,,5,6,,,
0,control_change,,,,,0,0,14,,,0,0,5,,,,
0,track_name,,,,,0,1,14,,,,,,,,,
0,track_name,,,,,0,1,9,,,,,,,,,
0,control_change,,,,,0,0,9,,,0,0,1,,,,
0,program_change,,,,,0,0,9,,,,,1,48,,,
0,control_change,,,,,0,0,9,,,7,100,1,,,,
0,control_change,,,,,0,0,9,,,10,45,1,,,,
0,control_change,,,,,0,0,9,,,91,61,1,,,,
0,key_signature,,,,,0,1,9,,,,,,,F,,
0,note_on,,,,,0,0,9,,,,,1,,,70,60
0,note_on,,,,,0,0,9,,,,,1,,,79,60
0,control_change,,,,,0,0,12,,,0,0,4,,,,
0,note_on,,,,,0,0,13,,,,,5,,,70,100
0,note_on,,,,,0,0,13,,,,,5,,,67,100
0,key_signature,,,,,0,1,13,,,,,,,F,,
0,control_change,,,,,0,0,13,,,91,63,5,,,,
0,program_change,,,,,0,0,13,,,,,5,6,,,
0,track_name,,,,,0,1,1,,,,,,,,,
0,track_name,,,,,0,1,12,,,,,,,,,
0,sequencer_specific,,,,,0,1,0,"(0, 0, 65)",,,,,,,,
0,set_tempo,,,,,0,1,0,,1463414,,,,,,,
0,sequencer_specific,,,,,0,1,0,"(0, 0, 119, 14, 1)",,,,,,,,
128,note_off,,,,,128,0,11,,,,,3,,,51,100
128,note_off,,,,,128,0,12,,,,,4,,,39,100
128,note_off,,,,,0,0,9,,,,,1,,,79,100
128,note_off,,,,,0,0,13,,,,,5,,,70,100
128,note_off,,,,,128,0,13,,,,,5,,,67,100
128,note_off,,,,,128,0,10,,,,,2,,,55,100
128,note_off,,,,,128,0,9,,,,,1,,,70,100
128,note_off,,,,,128,0,14,,,,,5,,,51,100
192,note_on,,,,,64,0,12,,,,,4,,,39,60
192,note_on,,,,,0,0,9,,,,,1,,,79,60
192,note_on,,,,,64,0,9,,,,,1,,,70,60
192,note_on,,,,,64,0,13,,,,,5,,,67,100
192,note_on,,,,,64,0,11,,,,,3,,,51,60
192,note_on,,,,,64,0,10,,,,,2,,,55,60
192,note_on,,,,,0,0,13,,,,,5,,,70,100
192,note_on,,,,,64,0,14,,,,,5,,,51,100
320,note_off,,,,,128,0,10,,,,,2,,,55,100
320,note_off,,,,,128,0,11,,,,,3,,,51,100
320,note_off,,,,,128,0,12,,,,,4,,,39,100
320,note_off,,,,,128,0,14,,,,,5,,,51,100
320,note_off,,,,,128,0,9,,,,,1,,,70,100
320,note_off,,,,,0,0,13,,,,,5,,,70,100
320,note_off,,,,,128,0,13,,,,,5,,,67,100
320,note_off,,,,,0,0,9,,,,,1,,,79,100
384,note_on,,,,,0,0,9,,,,,1,,,79,60
384,note_on,,,,,64,0,12,,,,,4,,,39,60
384,note_on,,,,,64,0,13,,,,,5,,,67,100
384,note_on,,,,,64,0,10,,,,,2,,,55,60
384,note_on,,,,,64,0,9,,,,,1,,,70,60
384,note_on,,,,,0,0,13,,,,,5,,,70,100
384,note_on,,,,,64,0,14,,,,,5,,,51,100
384,note_on,,,,,64,0,11,,,,,3,,,51,60
512,note_off,,,,,0,0,13,,,,,5,,,70,100
512,note_off,,,,,0,0,9,,,,,1,,,79,100
512,note_off,,,,,128,0,9,,,,,1,,,70,100
512,note_off,,,,,128,0,11,,,,,3,,,51,100
512,note_off,,,,,128,0,12,,,,,4,,,39,100
512,note_off,,,,,128,0,13,,,,,5,,,67,100
512,note_off,,,,,128,0,10,,,,,2,,,55,100
512,note_off,,,,,128,0,14,,,,,5,,,51,100
576,note_on,,,,,64,0,9,,,,,1,,,70,60
576,note_on,,,,,64,0,14,,,,,5,,,51,100
576,note_on,,,,,64,0,12,,,,,4,,,39,60
576,note_on,,,,,64,0,10,,,,,2,,,55,60
576,note_on,,,,,0,0,9,,,,,1,,,79,60
576,note_on,,,,,64,0,11,,,,,3,,,51,60
576,note_on,,,,,0,0,13,,,,,5,,,70,100
576,note_on,,,,,64,0,13,,,,,5,,,67,100
704,note_off,,,,,0,0,9,,,,,1,,,79,100
704,note_off,,,,,128,0,11,,,,,3,,,51,100
704,note_off,,,,,128,0,12,,,,,4,,,39,100
704,note_off,,,,,0,0,13,,,,,5,,,70,100
704,note_off,,,,,128,0,14,,,,,5,,,51,100
704,note_off,,,,,128,0,13,,,,,5,,,67,100
704,note_off,,,,,128,0,10,,,,,2,,,55,100
704,note_off,,,,,128,0,9,,,,,1,,,70,100
768,note_on,,,,,64,0,14,,,,,5,,,50,100
768,note_on,,,,,64,0,11,,,,,3,,,50,60
768,note_on,,,,,64,0,9,,,,,1,,,74,60
768,note_on,,,,,0,0,9,,,,,1,,,78,60
768,note_on,,,,,64,0,10,,,,,2,,,57,60
768,note_on,,,,,64,0,12,,,,,4,,,38,60
796,note_on,,,,,92,0,13,,,,,5,,,62,100
828,note_on,,,,,32,0,13,,,,,5,,,66,100
860,note_on,,,,,32,0,13,,,,,5,,,69,100
892,note_on,,,,,32,0,13,,,,,5,,,74,100
1280,note_off,,,,,512,0,11,,,,,3,,,50,100
1280,note_off,,,,,512,0,12,,,,,4,,,38,100
1280,note_off,,,,,512,0,14,,,,,5,,,50,100
1280,note_off,,,,,0,0,9,,,,,1,,,78,100
1280,note_off,,,,,512,0,10,,,,,2,,,57,100
1280,note_off,,,,,512,0,9,,,,,1,,,74,100
1308,note_off,,,,,416,0,13,,,,,5,,,62,100
1340,note_off,,,,,32,0,13,,,,,5,,,66,100
1372,note_off,,,,,32,0,13,,,,,5,,,69,100
1404,note_off,,,,,32,0,13,,,,,5,,,74,100
1536,note_on,,,,,0,0,13,,,,,5,,,66,100
1536,note_on,,,,,132,0,13,,,,,5,,,69,100
1536,note_on,,,,,256,0,9,,,,,1,,,69,60
1536,note_on,,,,,256,0,11,,,,,3,,,48,60
1536,note_on,,,,,256,0,10,,,,,2,,,62,60
1536,note_on,,,,,256,0,12,,,,,4,,,36,60
1536,note_on,,,,,256,0,14,,,,,5,,,48,100
1536,note_on,,,,,0,0,9,,,,,1,,,78,60
1664,note_off,,,,,128,0,12,,,,,4,,,36,100
1664,note_off,,,,,128,0,11,,,,,3,,,48,100
1664,note_off,,,,,128,0,9,,,,,1,,,69,100
1664,note_off,,,,,128,0,14,,,,,5,,,48,100
1664,note_off,,,,,128,0,10,,,,,2,,,62,100
1664,note_off,,,,,0,0,9,,,,,1,,,78,100
1664,note_off,,,,,128,0,13,,,,,5,,,69,100
1664,note_off,,,,,0,0,13,,,,,5,,,66,100
1728,note_on,,,,,64,0,13,,,,,5,,,69,100
1728,note_on,,,,,0,0,9,,,,,1,,,78,60
1728,note_on,,,,,64,0,9,,,,,1,,,69,60
1728,note_on,,,,,0,0,13,,,,,5,,,66,100
1728,note_on,,,,,64,0,10,,,,,2,,,62,60
1728,note_on,,,,,64,0,12,,,,,4,,,36,60
1728,note_on,,,,,64,0,14,,,,,5,,,48,100
1728,note_on,,,,,64,0,11,,,,,3,,,48,60
1856,note_off,,,,,0,0,13,,,,,5,,,66,100
1856,note_off,,,,,0,0,9,,,,,1,,,78,100
1856,note_off,,,,,128,0,9,,,,,1,,,69,100
1856,note_off,,,,,128,0,12,,,,,4,,,36,100
1856,note_off,,,,,128,0,11,,,,,3,,,48,100
1856,note_off,,,,,128,0,13,,,,,5,,,69,100
1856,note_off,,,,,128,0,14,,,,,5,,,48,100
1856,note_off,,,,,128,0,10,,,,,2,,,62,100
1920,note_on,,,,,64,0,11,,,,,3,,,48,60
1920,note_on,,,,,0,0,9,,,,,1,,,78,60
1920,note_on,,,,,64,0,10,,,,,2,,,62,60
1920,note_on,,,,,64,0,12,,,,,4,,,36,60
1920,note_on,,,,,0,0,13,,,,,5,,,66,100
1920,note_on,,,,,64,0,13,,,,,5,,,69,100
1920,note_on,,,,,64,0,14,,,,,5,,,48,100
1920,note_on,,,,,64,0,9,,,,,1,,,69,60
2048,note_off,,,,,128,0,14,,,,,5,,,48,100
2048,note_off,,,,,128,0,10,,,,,2,,,62,100
2048,note_off,,,,,0,0,13,,,,,5,,,66,100
2048,note_off,,,,,128,0,11,,,,,3,,,48,100
2048,note_off,,,,,128,0,13,,,,,5,,,69,100
2048,note_off,,,,,0,0,9,,,,,1,,,78,100
2048,note_off,,,,,128,0,9,,,,,1,,,69,100
2048,note_off,,,,,128,0,12,,,,,4,,,36,100
2112,note_on,,,,,64,0,14,,,,,5,,,48,100
2112,note_on,,,,,64,0,11,,,,,3,,,48,60
2112,note_on,,,,,64,0,10,,,,,2,,,62,60
2112,note_on,,,,,64,0,9,,,,,1,,,69,60
2112,note_on,,,,,64,0,12,,,,,4,,,36,60
2112,note_on,,,,,0,0,9,,,,,1,,,78,60
2112,note_on,,,,,0,0,13,,,,,5,,,66,100
2112,note_on,,,,,64,0,13,,,,,5,,,69,100
2240,note_off,,,,,128,0,10,,,,,2,,,62,100
2240,note_off,,,,,0,0,9,,,,,1,,,78,100
2240,note_off,,,,,128,0,9,,,,,1,,,69,100
2240,note_off,,,,,0,0,13,,,,,5,,,66,100
2240,note_off,,,,,128,0,14,,,,,5,,,48,100
2240,note_off,,,,,128,0,12,,,,,4,,,36,100
2240,note_off,,,,,128,0,13,,,,,5,,,69,100
2240,note_off,,,,,128,0,11,,,,,3,,,48,100
2304,note_on,,,,,64,0,14,,,,,5,,,46,100
2304,note_on,,,,,64,0,11,,,,,3,,,46,60
2304,note_on,,,,,0,0,9,,,,,1,,,79,60
2304,note_on,,,,,64,0,9,,,,,1,,,70,60
2304,note_on,,,,,64,0,12,,,,,4,,,34,60
2304,note_on,,,,,64,0,10,,,,,2,,,62,60
2332,note_on,,,,,92,0,13,,,,,5,,,58,100
2364,note_on,,,,,32,0,13,,,,,5,,,62,100
2396,note_on,,,,,32,0,13,,,,,5,,,67,100
2428,note_on,,,,,32,0,13,,,,,5,,,70,100
2816,note_off,,,,,512,0,11,,,,,3,,,46,100
2816,note_off,,,,,512,0,12,,,,,4,,,34,100
2816,note_off,,,,,512,0,9,,,,,1,,,70,100
2816,note_off,,,,,0,0,9,,,,,1,,,79,100
2816,note_off,,,,,512,0,10,,,,,2,,,62,100
2816,note_off,,,,,512,0,14,,,,,5,,,46,100
2844,note_off,,,,,416,0,13,,,,,5,,,58,100
2876,note_off,,,,,32,0,13,,,,,5,,,62,100
2908,note_off,,,,,32,0,13,,,,,5,,,67,100
2940,note_off,,,,,32,0,13,,,,,5,,,70,100
3072,note_on,,,,,0,0,10,,,,,2,,,70,60
3072,note_on,,,,,256,0,10,,,,,2,,,62,60
3072,note_on,,,,,256,0,12,,,,,4,,,34,60
3072,note_on,,,,,0,0,13,,,,,5,,,62,100
3072,note_on,,,,,132,0,13,,,,,5,,,67,100
3072,note_on,,,,,256,0,14,,,,,5,,,46,100
3072,note_on,,,,,0,0,9,,,,,1,,,79,60
3072,note_on,,,,,256,0,9,,,,,1,,,74,60
3072,note_on,,,,,256,0,11,,,,,3,,,46,60
3200,note_off,,,,,128,0,14,,,,,5,,,46,100
3200,note_off,,,,,128,0,11,,,,,3,,,46,100
3200,note_off,,,,,0,0,10,,,,,2,,,70,100
3200,note_off,,,,,0,0,13,,,,,5,,,62,100
3200,note_off,,,,,128,0,10,,,,,2,,,62,100
3200,note_off,,,,,0,0,9,,,,,1,,,79,100
3200,note_off,,,,,128,0,9,,,,,1,,,74,100
3200,note_off,,,,,128,0,13,,,,,5,,,67,100
3200,note_off,,,,,128,0,12,,,,,4,,,34,100
3264,note_on,,,,,64,0,14,,,,,5,,,46,100
3264,note_on,,,,,64,0,11,,,,,3,,,46,60
3264,note_on,,,,,64,0,12,,,,,4,,,34,60
3264,note_on,,,,,0,0,10,,,,,2,,,70,60
3264,note_on,,,,,64,0,10,,,,,2,,,62,60
3264,note_on,,,,,64,0,13,,,,,5,,,67,100
3264,note_on,,,,,0,0,13,,,,,5,,,62,100
3264,note_on,,,,,64,0,9,,,,,1,,,74,60
3264,note_on,,,,,0,0,9,,,,,1,,,79,60
3392,note_off,,,,,0,0,10,,,,,2,,,70,100
3392,note_off,,,,,128,0,10,,,,,2,,,62,100
3392,note_off,,,,,128,0,11,,,,,3,,,46,100
3392,note_off,,,,,0,0,13,,,,,5,,,62,100
3392,note_off,,,,,128,0,13,,,,,5,,,67,100
3392,note_off,,,,,128,0,12,,,,,4,,,34,100
3392,note_off,,,,,0,0,9,,,,,1,,,79,100
3392,note_off,,,,,128,0,9,,,,,1,,,74,100
3392,note_off,,,,,128,0,14,,,,,5,,,46,100
3456,note_on,,,,,64,0,14,,,,,5,,,46,100
3456,note_on,,,,,64,0,13,,,,,5,,,67,100
3456,note_on,,,,,64,0,9,,,,,1,,,74,60
3456,note_on,,,,,0,0,9,,,,,1,,,79,60
3456,note_on,,,,,64,0,11,,,,,3,,,46,60
3456,note_on,,,,,64,0,12,,,,,4,,,34,60
3456,note_on,,,,,64,0,10,,,,,2,,,62,60
3456,note_on,,,,,0,0,10,,,,,2,,,70,60
3456,note_on,,,,,0,0,13,,,,,5,,,62,100
3584,note_off,,,,,128,0,9,,,,,1,,,74,100
3584,note_off,,,,,0,0,9,,,,,1,,,79,100
3584,note_off,,,,,128,0,11,,,,,3,,,46,100
3584,note_off,,,,,128,0,10,,,,,2,,,62,100
3584,note_off,,,,,0,0,10,,,,,2,,,70,100
3584,note_off,,,,,128,0,12,,,,,4,,,34,100
3584,note_off,,,,,128,0,14,,,,,5,,,46,100
3584,note_off,,,,,128,0,13,,,,,5,,,67,100
3584,note_off,,,,,0,0,13,,,,,5,,,62,100
3648,note_on,,,,,0,0,9,,,,,1,,,79,60
3648,note_on,,,,,64,0,9,,,,,1,,,74,60
3648,note_on,,,,,64,0,14,,,,,5,,,46,100
3648,note_on,,,,,64,0,11,,,,,3,,,46,60
3648,note_on,,,,,0,0,13,,,,,5,,,62,100
3648,note_on,,,,,64,0,13,,,,,5,,,67,100
3648,note_on,,,,,64,0,12,,,,,4,,,34,60
3648,note_on,,,,,64,0,10,,,,,2,,,62,60
3648,note_on,,,,,0,0,10,,,,,2,,,70,60
3776,note_off,,,,,128,0,11,,,,,3,,,46,100
3776,note_off,,,,,128,0,14,,,,,5,,,46,100
3776,note_off,,,,,128,0,12,,,,,4,,,34,100
3776,note_off,,,,,0,0,13,,,,,5,,,62,100
3776,note_off,,,,,0,0,10,,,,,2,,,70,100
3776,note_off,,,,,128,0,13,,,,,5,,,67,100
3776,note_off,,,,,128,0,10,,,,,2,,,62,100
3776,note_off,,,,,128,0,9,,,,,1,,,74,100
3776,note_off,,,,,0,0,9,,,,,1,,,79,100
3840,note_on,,,,,64,0,11,,,,,3,,,45,60
3840,note_on,,,,,64,0,14,,,,,5,,,45,100
3840,note_on,,,,,64,0,9,,,,,1,,,73,60
3840,note_on,,,,,0,0,9,,,,,1,,,79,60
3840,note_on,,,,,0,0,13,,,,,5,,,67,100
3840,note_on,,,,,64,0,13,,,,,5,,,61,100
3840,note_on,,,,,64,0,10,,,,,2,,,64,60
3840,note_on,,,,,64,0,12,,,,,4,,,33,60
4096,note_off,,,,,0,0,13,,,,,5,,,67,100
4096,note_off,,,,,256,0,13,,,,,5,,,61,100
4096,note_off,,,,,256,0,9,,,,,1,,,79,100
4184,note_off,,,,,344,0,14,,,,,5,,,45,100
4184,note_off,,,,,344,0,11,,,,,3,,,45,100
4184,note_off,,,,,88,0,9,,,,,1,,,73,100
4184,note_off,,,,,344,0,10,,,,,2,,,64,100
4184,note_off,,,,,344,0,12,,,,,4,,,33,100
4224,note_on,,,,,40,0,12,,,,,4,,,38,60
4224,note_on,,,,,40,0,10,,,,,2,,,65,60
4224,note_on,,,,,40,0,11,,,,,3,,,50,60
4224,note_on,,,,,40,0,14,,,,,5,,,50,100
4224,note_on,,,,,0,0,13,,,,,5,,,69,100
4224,note_on,,,,,128,0,13,,,,,5,,,65,100
4224,note_on,,,,,40,0,9,,,,,1,,,69,60
4224,note_on,,,,,0,0,9,,,,,1,,,77,60
4480,note_off,,,,,0,0,13,,,,,5,,,69,100
4480,note_off,,,,,256,0,13,,,,,5,,,65,100
4480,note_off,,,,,256,0,9,,,,,1,,,77,100
4568,note_off,,,,,344,0,12,,,,,4,,,38,100
4568,note_off,,,,,344,0,14,,,,,5,,,50,100
4568,note_off,,,,,344,0,11,,,,,3,,,50,100
4608,note_on,,,,,40,0,12,,,,,4,,,34,60
4608,note_on,,,,,40,0,11,,,,,3,,,46,60
4608,note_on,,,,,40,0,14,,,,,5,,,46,100
4608,note_on,,,,,128,0,9,,,,,1,,,74,60
4608,note_on,,,,,0,0,13,,,,,5,,,69,100
4608,note_on,,,,,128,0,13,,,,,5,,,65,100
4864,note_off,,,,,0,0,13,,,,,5,,,69,100
4864,note_off,,,,,256,0,13,,,,,5,,,65,100
4912,note_off,,,,,304,0,9,,,,,1,,,69,100
4912,note_off,,,,,688,0,10,,,,,2,,,65,100
4992,note_on,,,,,128,0,13,,,,,5,,,67,100
4992,note_on,,,,,0,0,13,,,,,5,,,62,100
4992,note_on,,,,,80,0,9,,,,,1,,,67,60
4992,note_on,,,,,80,0,10,,,,,2,,,62,60
5248,note_off,,,,,256,0,13,,,,,5,,,67,100
5248,note_off,,,,,0,0,13,,,,,5,,,62,100
5296,note_off,,,,,304,0,9,,,,,1,,,74,100
5296,note_off,,,,,688,0,12,,,,,4,,,34,100
5296,note_off,,,,,688,0,14,,,,,5,,,46,100
5296,note_off,,,,,688,0,11,,,,,3,,,46,100
5336,note_off,,,,,344,0,10,,,,,2,,,62,100
5376,note_on,,,,,80,0,12,,,,,4,,,33,60
5376,note_on,,,,,40,0,10,,,,,2,,,64,60
5376,note_on,,,,,80,0,11,,,,,3,,,45,60
5376,note_on,,,,,128,0,13,,,,,5,,,61,100
5376,note_on,,,,,80,0,14,,,,,5,,,45,100
5376,note_on,,,,,80,0,9,,,,,1,,,73,60
5376,note_on,,,,,0,0,13,,,,,5,,,67,100
5632,note_off,,,,,256,0,13,,,,,5,,,61,100
5632,note_off,,,,,0,0,13,,,,,5,,,67,100
5680,note_off,,,,,304,0,9,,,,,1,,,67,100
5720,note_off,,,,,344,0,10,,,,,2,,,64,100
5720,note_off,,,,,344,0,14,,,,,5,,,45,100
5720,note_off,,,,,344,0,11,,,,,3,,,45,100
5720,note_off,,,,,344,0,12,,,,,4,,,33,100
5720,note_off,,,,,40,0,9,,,,,1,,,73,100
5760,note_on,,,,,0,0,9,,,,,1,,,74,60
5760,note_on,,,,,40,0,14,,,,,5,,,44,100
5760,set_tempo,,,,,5760,1,0,,1463414,,,,,,,
5760,note_on,,,,,40,0,9,,,,,1,,,65,60
5760,note_on,,,,,128,0,13,,,,,5,,,62,100
5760,note_on,,,,,40,0,11,,,,,3,,,44,60
5760,note_on,,,,,40,0,10,,,,,2,,,59,60
5760,note_on,,,,,0,0,13,,,,,5,,,65,100
5760,note_on,,,,,40,0,12,,,,,4,,,32,60
5832,set_tempo,,,,,72,1,0,,1500000,,,,,,,
5904,set_tempo,,,,,72,1,0,,1538461,,,,,,,
5976,set_tempo,,,,,72,1,0,,1578947,,,,,,,
6016,note_off,,,,,256,0,13,,,,,5,,,62,100
6016,note_off,,,,,0,0,13,,,,,5,,,65,100
6048,set_tempo,,,,,72,1,0,,1621621,,,,,,,
6104,note_off,,,,,344,0,14,,,,,5,,,44,100
6104,note_off,,,,,344,0,12,,,,,4,,,32,100
6104,note_off,,,,,344,0,10,,,,,2,,,59,100
6104,note_off,,,,,344,0,9,,,,,1,,,65,100
6104,note_off,,,,,344,0,11,,,,,3,,,44,100
6120,set_tempo,,,,,72,1,0,,1666666,,,,,,,
6144,note_on,,,,,40,0,14,,,,,5,,,45,100
6144,note_on,,,,,40,0,11,,,,,3,,,45,60
6144,note_on,,,,,128,0,13,,,,,5,,,57,100
6144,note_on,,,,,40,0,12,,,,,4,,,33,60
6144,note_on,,,,,40,0,10,,,,,2,,,57,60
6144,note_on,,,,,40,0,9,,,,,1,,,64,60
6192,set_tempo,,,,,72,1,0,,1714285,,,,,,,
6208,note_off,,,,,64,0,13,,,,,5,,,57,100
6240,note_on,,,,,32,0,13,,,,,5,,,62,100
6264,set_tempo,,,,,72,1,0,,1764705,,,,,,,
6304,note_off,,,,,64,0,13,,,,,5,,,62,100
6336,set_tempo,,,,,72,1,0,,1818181,,,,,,,
6336,note_on,,,,,32,0,13,,,,,5,,,64,100
6400,note_off,,,,,64,0,13,,,,,5,,,64,100
6408,set_tempo,,,,,72,1,0,,1875000,,,,,,,
6432,note_on,,,,,32,0,13,,,,,5,,,67,100
6448,note_off,,,,,304,0,9,,,,,1,,,74,100
6480,set_tempo,,,,,72,1,0,,1935483,,,,,,,
6496,note_off,,,,,64,0,13,,,,,5,,,67,100
6528,note_on,,,,,32,0,13,,,,,5,,,61,100
6528,note_on,,,,,80,0,9,,,,,1,,,73,60
6528,note_on,,,,,0,0,13,,,,,5,,,69,100
6552,set_tempo,,,,,72,1,0,,2000000,,,,,,,
6592,note_off,,,,,64,0,13,,,,,5,,,69,100
6624,note_on,,,,,32,0,13,,,,,5,,,64,100
6624,set_tempo,,,,,72,1,0,,2068965,,,,,,,
6688,note_off,,,,,64,0,13,,,,,5,,,64,100
6696,set_tempo,,,,,72,1,0,,2142857,,,,,,,
6720,note_on,,,,,32,0,13,,,,,5,,,69,100
6752,note_off,,,,,32,0,13,,,,,5,,,69,100
6768,set_tempo,,,,,72,1,0,,2222222,,,,,,,
6768,note_on,,,,,16,0,13,,,,,5,,,67,100
6784,note_off,,,,,16,0,13,,,,,5,,,61,100
6800,note_off,,,,,16,0,13,,,,,5,,,67,100
6816,note_on,,,,,16,0,13,,,,,5,,,69,100
6832,note_off,,,,,688,0,10,,,,,2,,,57,100
6832,note_off,,,,,688,0,14,,,,,5,,,45,100
6832,note_off,,,,,688,0,11,,,,,3,,,45,100
6832,note_off,,,,,304,0,9,,,,,1,,,64,100
6832,note_off,,,,,688,0,12,,,,,4,,,33,100
6840,set_tempo,,,,,72,1,0,,2307692,,,,,,,
6872,note_off,,,,,40,0,9,,,,,1,,,73,100
6880,note_off,,,,,64,0,13,,,,,5,,,69,100
6912,note_on,,,,,80,0,14,,,,,5,,,38,100
6912,note_on,,,,,80,0,11,,,,,3,,,38,60
6912,note_on,,,,,40,0,9,,,,,1,,,65,60
6912,note_on,,,,,80,0,10,,,,,2,,,57,60
6912,note_on,,,,,32,0,13,,,,,5,,,57,100
6912,note_on,,,,,0,0,9,,,,,1,,,74,60
6912,note_on,,,,,80,0,12,,,,,4,,,38,60
6912,set_tempo,,,,,72,1,0,,2400000,,,,,,,
7008,note_on,,,,,96,0,13,,,,,5,,,62,100
7104,note_on,,,,,96,0,13,,,,,5,,,65,100
7168,note_off,,,,,64,0,13,,,,,5,,,57,100
7200,note_on,,,,,32,0,13,,,,,5,,,69,100
7264,note_off,,,,,64,0,13,,,,,5,,,62,100
7296,note_on,,,,,32,0,13,,,,,5,,,74,100
7296,set_tempo,,,,,384,1,0,,1875000,,,,,,,
7360,note_off,,,,,64,0,13,,,,,5,,,65,100
7424,note_off,,,,,512,0,11,,,,,3,,,38,100
7424,note_off,,,,,512,0,10,,,,,2,,,57,100
7424,note_off,,,,,512,0,9,,,,,1,,,65,100
7424,note_off,,,,,512,0,14,,,,,5,,,38,100
7424,note_off,,,,,512,0,12,,,,,4,,,38,100
7424,note_off,,,,,0,0,9,,,,,1,,,74,100
7456,note_off,,,,,96,0,13,,,,,5,,,69,100
7552,note_off,,,,,96,0,13,,,,,5,,,74,100
7552,set_tempo,,,,,256,1,0,,3000000,,,,,,,
7676,program_change,,,,,252,0,11,,,,,3,42,,,
7680,note_on,,,,,0,0,8,,,,,0,,,77,85
7680,time_signature,3,4,96,8,128,1,0,,,,,,,,,
7680,set_tempo,,,,,0,1,0,,285714,,,,,,,
7680,note_on,,,,,4,0,11,,,,,3,,,53,85
7680,note_on,,,,,7680,0,8,,,,,0,,,72,85
7936,note_off,,,,,0,0,8,,,,,0,,,77,100
7936,note_off,,,,,256,0,8,,,,,0,,,72,100
7936,note_off,,,,,256,0,11,,,,,3,,,53,100
8064,note_on,,,,,128,0,11,,,,,3,,,48,85
8064,note_on,,,,,128,0,8,,,,,0,,,76,85
8064,note_on,,,,,0,0,8,,,,,0,,,79,85
8576,note_off,,,,,0,0,8,,,,,0,,,79,100
8576,note_off,,,,,512,0,11,,,,,3,,,48,100
8576,note_off,,,,,512,0,8,,,,,0,,,76,100
8832,note_on,,,,,0,0,8,,,,,0,,,77,85
8832,note_on,,,,,256,0,8,,,,,0,,,81,85
8832,note_on,,,,,256,0,11,,,,,3,,,53,85
9088,note_off,,,,,256,0,8,,,,,0,,,81,100
9088,note_off,,,,,0,0,8,,,,,0,,,77,100
9216,note_on,,,,,0,0,8,,,,,0,,,72,85
9216,note_on,,,,,128,0,8,,,,,0,,,79,85
9344,note_off,,,,,128,0,8,,,,,0,,,79,100
9408,note_on,,,,,64,0,8,,,,,0,,,81,85
9536,note_off,,,,,128,0,8,,,,,0,,,81,100
9600,note_off,,,,,768,0,11,,,,,3,,,53,100
9600,note_on,,,,,64,0,8,,,,,0,,,77,85
9728,note_off,,,,,128,0,8,,,,,0,,,72,100
9856,note_off,,,,,128,0,8,,,,,0,,,77,100
9984,note_on,,,,,384,0,11,,,,,3,,,50,85
9984,note_on,,,,,0,0,8,,,,,0,,,77,85
9984,note_on,,,,,128,0,8,,,,,0,,,82,85
10240,note_off,,,,,256,0,8,,,,,0,,,82,100
10368,note_on,,,,,128,0,8,,,,,0,,,81,85
10496,note_off,,,,,512,0,11,,,,,3,,,50,100
10496,note_off,,,,,128,0,8,,,,,0,,,77,100
10624,note_off,,,,,128,0,8,,,,,0,,,81,100
10752,note_on,,,,,0,0,8,,,,,0,,,79,85
10752,note_on,,,,,256,0,11,,,,,3,,,46,85
10752,note_on,,,,,128,0,8,,,,,0,,,82,85
11008,note_off,,,,,0,0,8,,,,,0,,,79,100
11008,note_off,,,,,256,0,8,,,,,0,,,82,100
11008,note_off,,,,,256,0,11,,,,,3,,,46,100
11136,note_on,,,,,128,0,8,,,,,0,,,79,85
11136,note_on,,,,,0,0,8,,,,,0,,,76,85
11136,note_on,,,,,128,0,11,,,,,3,,,48,85
11264,note_off,,,,,128,0,8,,,,,0,,,79,100
11328,note_on,,,,,64,0,8,,,,,0,,,77,85
11456,note_off,,,,,128,0,8,,,,,0,,,77,100
11520,note_on,,,,,64,0,8,,,,,0,,,76,85
11648,note_off,,,,,128,0,8,,,,,0,,,76,100
11712,note_on,,,,,64,0,8,,,,,0,,,77,85
11840,note_off,,,,,128,0,8,,,,,0,,,77,100
11904,note_on,,,,,0,0,8,,,,,0,,,79,85
11904,note_off,,,,,768,0,11,,,,,3,,,48,100
11904,note_off,,,,,64,0,8,,,,,0,,,76,100
12160,note_off,,,,,256,0,8,,,,,0,,,79,100
12288,note_on,,,,,384,0,11,,,,,3,,,53,85
12288,note_on,,,,,128,0,8,,,,,0,,,81,85
12288,note_on,,,,,0,0,8,,,,,0,,,72,85
12544,note_off,,,,,0,0,8,,,,,0,,,72,100
12544,note_off,,,,,256,0,8,,,,,0,,,81,100
12672,note_on,,,,,128,0,8,,,,,0,,,81,85
12672,note_on,,,,,0,0,8,,,,,0,,,77,85
13056,note_off,,,,,768,0,11,,,,,3,,,53,100
13184,note_off,,,,,512,0,8,,,,,0,,,81,100
13184,note_off,,,,,0,0,8,,,,,0,,,77,100
13440,note_on,,,,,384,0,11,,,,,3,,,53,85
13440,note_on,,,,,0,0,8,,,,,0,,,74,85
13440,note_on,,,,,256,0,8,,,,,0,,,71,85
13696,note_off,,,,,256,0,8,,,,,0,,,71,100
13696,note_off,,,,,256,0,11,,,,,3,,,53,100
13696,note_off,,,,,0,0,8,,,,,0,,,74,100
13824,note_on,,,,,128,0,11,,,,,3,,,52,85
13824,note_on,,,,,0,0,8,,,,,0,,,79,85
13824,note_on,,,,,128,0,8,,,,,0,,,72,85
14080,note_off,,,,,256,0,11,,,,,3,,,52,100
14080,note_off,,,,,256,0,8,,,,,0,,,79,100
14208,note_off,,,,,128,0,8,,,,,0,,,72,100
14208,note_on,,,,,0,0,8,,,,,0,,,72,85
14208,note_on,,,,,128,0,11,,,,,3,,,53,85
14400,note_on,,,,,192,0,8,,,,,0,,,77,85
14464,note_off,,,,,256,0,11,,,,,3,,,53,100
14528,note_off,,,,,128,0,8,,,,,0,,,77,100
14592,note_on,,,,,64,0,8,,,,,0,,,76,85
14592,note_on,,,,,128,0,11,,,,,3,,,55,85
14720,note_off,,,,,128,0,8,,,,,0,,,72,100
14848,note_off,,,,,256,0,11,,,,,3,,,55,100
14848,note_off,,,,,128,0,8,,,,,0,,,76,100
14976,note_on,,,,,128,0,11,,,,,3,,,43,85
14976,note_on,,,,,0,0,8,,,,,0,,,74,85
14976,note_on,,,,,128,0,8,,,,,0,,,71,85
15068,note_off,,,,,0,0,8,,,,,0,,,74,100
15068,note_off,,,,,92,0,8,,,,,0,,,71,100
15072,note_on,,,,,4,0,8,,,,,0,,,72,85
15072,note_on,,,,,0,0,8,,,,,0,,,76,85
15164,note_off,,,,,92,0,8,,,,,0,,,72,100
15164,note_off,,,,,0,0,8,,,,,0,,,76,100
15168,note_on,,,,,4,0,8,,,,,0,,,71,85
15168,note_on,,,,,0,0,8,,,,,0,,,74,85
15212,note_off,,,,,44,0,8,,,,,0,,,71,100
15212,note_off,,,,,0,0,8,,,,,0,,,74,100
15216,note_on,,,,,4,0,8,,,,,0,,,72,85
15216,note_on,,,,,0,0,8,,,,,0,,,76,85
15260,note_off,,,,,44,0,8,,,,,0,,,72,100
15260,note_off,,,,,0,0,8,,,,,0,,,76,100
15264,note_on,,,,,4,0,8,,,,,0,,,71,85
15264,note_on,,,,,0,0,8,,,,,0,,,74,85
15308,note_off,,,,,0,0,8,,,,,0,,,74,100
15308,note_off,,,,,44,0,8,,,,,0,,,71,100
15312,note_on,,,,,0,0,8,,,,,0,,,76,85
15312,note_on,,,,,4,0,8,,,,,0,,,72,85
15356,note_off,,,,,44,0,8,,,,,0,,,72,100
15356,note_off,,,,,0,0,8,,,,,0,,,76,100
15360,note_on,,,,,0,0,8,,,,,0,,,74,85
15360,note_on,,,,,4,0,8,,,,,0,,,71,85
15488,note_off,,,,,512,0,11,,,,,3,,,43,100
15616,note_off,,,,,0,0,8,,,,,0,,,74,100
15616,note_off,,,,,256,0,8,,,,,0,,,71,100
15744,note_on,,,,,128,0,8,,,,,0,,,72,85
15744,note_on,,,,,256,0,11,,,,,3,,,48,85
16512,note_off,,,,,768,0,11,,,,,3,,,48,100
16512,note_off,,,,,768,0,8,,,,,0,,,72,100
16892,program_change,,,,,380,0,11,,,,,3,48,,,
16896,note_on,,,,,4,0,11,,,,,3,,,53,85
16896,note_on,,,,,9472,0,10,,,,,2,,,69,85
16896,note_on,,,,,9344,0,13,,,,,5,,,72,100
16896,note_on,,,,,0,0,13,,,,,5,,,69,100
16896,note_on,,,,,9472,0,9,,,,,1,,,72,85
16896,note_on,,,,,0,0,9,,,,,1,,,77,85
16896,note_on,,,,,9472,0,14,,,,,5,,,53,100
16896,note_on,,,,,9472,0,12,,,,,4,,,41,85
17152,note_off,,,,,256,0,13,,,,,5,,,72,100
17152,note_off,,,,,0,0,13,,,,,5,,,69,100
17152,note_off,,,,,256,0,14,,,,,5,,,53,100
17152,note_off,,,,,256,0,9,,,,,1,,,72,100
17152,note_off,,,,,256,0,11,,,,,3,,,53,100
17152,note_off,,,,,256,0,10,,,,,2,,,69,100
17152,note_off,,,,,0,0,9,,,,,1,,,77,100
17152,note_off,,,,,256,0,12,,,,,4,,,41,100
17280,note_on,,,,,0,0,9,,,,,1,,,79,85
17280,note_on,,,,,128,0,9,,,,,1,,,76,85
17280,note_on,,,,,0,0,13,,,,,5,,,67,100
17280,note_on,,,,,128,0,13,,,,,5,,,64,100
17280,note_on,,,,,128,0,12,,,,,4,,,36,85
17280,note_on,,,,,128,0,14,,,,,5,,,48,100
17280,note_on,,,,,128,0,10,,,,,2,,,64,85
17280,note_on,,,,,128,0,11,,,,,3,,,48,85
17792,note_off,,,,,512,0,12,,,,,4,,,36,100
17792,note_off,,,,,0,0,9,,,,,1,,,79,100
17792,note_off,,,,,512,0,9,,,,,1,,,76,100
17792,note_off,,,,,512,0,11,,,,,3,,,48,100
17792,note_off,,,,,512,0,14,,,,,5,,,48,100
17792,note_off,,,,,512,0,13,,,,,5,,,64,100
17792,note_off,,,,,0,0,13,,,,,5,,,67,100
17792,note_off,,,,,512,0,10,,,,,2,,,64,100
18048,note_on,,,,,256,0,10,,,,,2,,,60,85
18048,note_on,,,,,256,0,13,,,,,5,,,69,100
18048,note_on,,,,,0,0,13,,,,,5,,,72,100
18048,note_on,,,,,256,0,14,,,,,5,,,53,100
18048,note_on,,,,,0,0,9,,,,,1,,,77,85
18048,note_on,,,,,256,0,11,,,,,3,,,53,85
18048,note_on,,,,,256,0,12,,,,,4,,,41,85
18048,note_on,,,,,256,0,9,,,,,1,,,81,85
18304,note_off,,,,,256,0,9,,,,,1,,,81,100
18304,note_off,,,,,0,0,9,,,,,1,,,77,100
18304,note_off,,,,,256,0,10,,,,,2,,,60,100
18432,note_on,,,,,128,0,10,,,,,2,,,69,85
18432,note_on,,,,,0,0,9,,,,,1,,,72,85
18432,note_on,,,,,128,0,9,,,,,1,,,79,85
18560,note_off,,,,,128,0,9,,,,,1,,,79,100
18624,note_on,,,,,64,0,9,,,,,1,,,81,85
18752,note_off,,,,,128,0,9,,,,,1,,,81,100
18816,note_on,,,,,64,0,9,,,,,1,,,77,85
18816,note_off,,,,,768,0,12,,,,,4,,,41,100
18816,note_off,,,,,768,0,11,,,,,3,,,53,100
18816,note_off,,,,,768,0,14,,,,,5,,,53,100
18816,note_off,,,,,768,0,13,,,,,5,,,69,100
18816,note_off,,,,,0,0,13,,,,,5,,,72,100
18944,note_off,,,,,128,0,9,,,,,1,,,72,100
18944,note_off,,,,,512,0,10,,,,,2,,,69,100
19072,note_off,,,,,128,0,9,,,,,1,,,77,100
19200,note_on,,,,,384,0,13,,,,,5,,,58,100
19200,note_on,,,,,0,0,9,,,,,1,,,77,85
19200,note_on,,,,,128,0,9,,,,,1,,,82,85
19200,note_on,,,,,384,0,14,,,,,5,,,50,100
19200,note_on,,,,,0,0,13,,,,,5,,,69,100
19200,note_on,,,,,384,0,11,,,,,3,,,50,85
19200,note_on,,,,,384,0,12,,,,,4,,,38,85
19200,note_on,,,,,256,0,10,,,,,2,,,65,85
19456,note_off,,,,,256,0,9,,,,,1,,,82,100
19584,note_on,,,,,128,0,9,,,,,1,,,81,85
19712,note_off,,,,,512,0,13,,,,,5,,,58,100
19712,note_off,,,,,128,0,9,,,,,1,,,77,100
19712,note_off,,,,,512,0,12,,,,,4,,,38,100
19712,note_off,,,,,512,0,14,,,,,5,,,50,100
19712,note_off,,,,,512,0,10,,,,,2,,,65,100
19712,note_off,,,,,512,0,11,,,,,3,,,50,100
19712,note_off,,,,,0,0,13,,,,,5,,,69,100
19840,note_off,,,,,128,0,9,,,,,1,,,81,100
19968,note_on,,,,,0,0,9,,,,,1,,,79,85
19968,note_on,,,,,256,0,11,,,,,3,,,46,85
19968,note_on,,,,,0,0,13,,,,,5,,,62,100
19968,note_on,,,,,256,0,12,,,,,4,,,34,85
19968,note_on,,,,,256,0,10,,,,,2,,,62,85
19968,note_on,,,,,256,0,13,,,,,5,,,65,100
19968,note_on,,,,,256,0,14,,,,,5,,,46,100
19968,note_on,,,,,128,0,9,,,,,1,,,82,85
20224,note_off,,,,,0,0,13,,,,,5,,,62,100
20224,note_off,,,,,256,0,13,,,,,5,,,65,100
20224,note_off,,,,,0,0,9,,,,,1,,,79,100
20224,note_off,,,,,256,0,9,,,,,1,,,82,100
20224,note_off,,,,,256,0,11,,,,,3,,,46,100
20224,note_off,,,,,256,0,12,,,,,4,,,34,100
20224,note_off,,,,,256,0,10,,,,,2,,,62,100
20224,note_off,,,,,256,0,14,,,,,5,,,46,100
20352,note_on,,,,,0,0,13,,,,,5,,,67,100
20352,note_on,,,,,128,0,14,,,,,5,,,48,100
20352,note_on,,,,,128,0,10,,,,,2,,,67,85
20352,note_on,,,,,128,0,11,,,,,3,,,48,85
20352,note_on,,,,,128,0,13,,,,,5,,,64,100
20352,note_on,,,,,128,0,12,,,,,4,,,36,85
20352,note_on,,,,,128,0,9,,,,,1,,,79,85
20352,note_on,,,,,0,0,9,,,,,1,,,76,85
20480,note_off,,,,,128,0,9,,,,,1,,,79,100
20544,note_on,,,,,64,0,9,,,,,1,,,77,85
20672,note_off,,,,,128,0,9,,,,,1,,,77,100
20736,note_on,,,,,64,0,9,,,,,1,,,76,85
20864,note_off,,,,,128,0,9,,,,,1,,,76,100
20928,note_on,,,,,64,0,9,,,,,1,,,77,85
21056,note_off,,,,,128,0,9,,,,,1,,,77,100
21120,note_off,,,,,768,0,12,,,,,4,,,36,100
21120,note_off,,,,,768,0,14,,,,,5,,,48,100
21120,note_off,,,,,768,0,11,,,,,3,,,48,100
21120,note_off,,,,,768,0,13,,,,,5,,,64,100
21120,note_off,,,,,0,0,13,,,,,5,,,67,100
21120,note_on,,,,,0,0,9,,,,,1,,,79,85
21120,note_off,,,,,64,0,9,,,,,1,,,76,100
21120,note_off,,,,,768,0,10,,,,,2,,,67,100
21376,note_off,,,,,256,0,9,,,,,1,,,79,100
21504,note_on,,,,,128,0,9,,,,,1,,,81,85
21504,note_on,,,,,0,0,9,,,,,1,,,72,85
21504,note_on,,,,,384,0,13,,,,,5,,,72,100
21504,note_on,,,,,384,0,12,,,,,4,,,41,85
21504,note_on,,,,,384,0,11,,,,,3,,,53,85
21504,note_on,,,,,0,0,13,,,,,5,,,69,100
21504,note_on,,,,,384,0,14,,,,,5,,,53,100
21504,note_on,,,,,384,0,10,,,,,2,,,65,85
21760,note_off,,,,,256,0,10,,,,,2,,,65,100
21760,note_off,,,,,256,0,9,,,,,1,,,81,100
21760,note_off,,,,,0,0,9,,,,,1,,,72,100
21888,note_on,,,,,128,0,10,,,,,2,,,60,85
21888,note_on,,,,,0,0,9,,,,,1,,,77,85
21888,note_on,,,,,128,0,9,,,,,1,,,81,85
22272,note_off,,,,,768,0,12,,,,,4,,,41,100
22272,note_off,,,,,768,0,13,,,,,5,,,72,100
22272,note_off,,,,,768,0,11,,,,,3,,,53,100
22272,note_off,,,,,768,0,14,,,,,5,,,53,100
22272,note_off,,,,,0,0,13,,,,,5,,,69,100
22400,note_off,,,,,512,0,10,,,,,2,,,60,100
22400,note_off,,,,,0,0,9,,,,,1,,,77,100
22400,note_off,,,,,512,0,9,,,,,1,,,81,100
22656,note_on,,,,,384,0,12,,,,,4,,,41,85
22656,note_on,,,,,256,0,10,,,,,2,,,67,85
22656,note_on,,,,,0,0,13,,,,,5,,,59,100
22656,note_on,,,,,384,0,11,,,,,3,,,53,85
22656,note_on,,,,,384,0,14,,,,,5,,,53,100
22656,note_on,,,,,256,0,9,,,,,1,,,71,85
22656,note_on,,,,,0,0,9,,,,,1,,,74,85
22656,note_on,,,,,384,0,13,,,,,5,,,62,100
22912,note_off,,,,,256,0,14,,,,,5,,,53,100
22912,note_off,,,,,256,0,10,,,,,2,,,67,100
22912,note_off,,,,,256,0,9,,,,,1,,,71,100
22912,note_off,,,,,256,0,12,,,,,4,,,41,100
22912,note_off,,,,,256,0,13,,,,,5,,,62,100
22912,note_off,,,,,256,0,11,,,,,3,,,53,100
22912,note_off,,,,,0,0,9,,,,,1,,,74,100
22912,note_off,,,,,0,0,13,,,,,5,,,59,100
23040,note_on,,,,,128,0,12,,,,,4,,,40,85
23040,note_on,,,,,128,0,9,,,,,1,,,72,85
23040,note_on,,,,,0,0,9,,,,,1,,,79,85
23040,note_on,,,,,128,0,10,,,,,2,,,60,85
23040,note_on,,,,,128,0,11,,,,,3,,,52,85
23040,note_on,,,,,0,0,13,,,,,5,,,55,100
23040,note_on,,,,,128,0,13,,,,,5,,,60,100
23040,note_on,,,,,128,0,14,,,,,5,,,52,100
23296,note_off,,,,,256,0,11,,,,,3,,,52,100
23296,note_off,,,,,256,0,14,,,,,5,,,52,100
23296,note_off,,,,,256,0,9,,,,,1,,,79,100
23296,note_off,,,,,256,0,10,,,,,2,,,60,100
23296,note_off,,,,,256,0,12,,,,,4,,,40,100
23296,note_off,,,,,0,0,13,,,,,5,,,55,100
23296,note_off,,,,,256,0,13,,,,,5,,,60,100
23424,note_on,,,,,128,0,12,,,,,4,,,41,85
23424,note_on,,,,,128,0,14,,,,,5,,,53,100
23424,note_on,,,,,128,0,10,,,,,2,,,69,85
23424,note_on,,,,,0,0,13,,,,,5,,,57,100
23424,note_off,,,,,128,0,9,,,,,1,,,72,100
23424,note_on,,,,,0,0,9,,,,,1,,,72,85
23424,note_on,,,,,128,0,13,,,,,5,,,60,100
23424,note_on,,,,,128,0,11,,,,,3,,,53,85
23616,note_on,,,,,192,0,9,,,,,1,,,77,85
23680,note_off,,,,,256,0,11,,,,,3,,,53,100
23680,note_off,,,,,256,0,14,,,,,5,,,53,100
23680,note_off,,,,,256,0,12,,,,,4,,,41,100
23680,note_off,,,,,256,0,10,,,,,2,,,69,100
23680,note_off,,,,,0,0,13,,,,,5,,,57,100
23680,note_off,,,,,256,0,13,,,,,5,,,60,100
23744,note_off,,,,,128,0,9,,,,,1,,,77,100
23808,note_on,,,,,128,0,14,,,,,5,,,55,100
23808,note_on,,,,,128,0,12,,,,,4,,,43,85
23808,note_on,,,,,128,0,10,,,,,2,,,67,85
23808,note_on,,,,,128,0,13,,,,,5,,,64,100
23808,note_on,,,,,0,0,13,,,,,5,,,60,100
23808,note_on,,,,,128,0,11,,,,,3,,,55,85
23808,note_on,,,,,64,0,9,,,,,1,,,76,85
23936,note_off,,,,,128,0,9,,,,,1,,,72,100
24064,note_off,,,,,256,0,12,,,,,4,,,43,100
24064,note_off,,,,,256,0,14,,,,,5,,,55,100
24064,note_off,,,,,128,0,9,,,,,1,,,76,100
24064,note_off,,,,,256,0,13,,,,,5,,,64,100
24064,note_off,,,,,0,0,13,,,,,5,,,60,100
24064,note_off,,,,,256,0,11,,,,,3,,,55,100
24192,note_on,,,,,128,0,11,,,,,3,,,43,85
24192,note_on,,,,,0,0,13,,,,,5,,,59,100
24192,note_on,,,,,0,0,9,,,,,1,,,74,85
24192,note_on,,,,,128,0,12,,,,,4,,,43,85
24192,note_on,,,,,128,0,14,,,,,5,,,43,100
24192,note_on,,,,,128,0,9,,,,,1,,,71,85
24192,note_on,,,,,128,0,13,,,,,5,,,62,100
24320,note_off,,,,,512,0,10,,,,,2,,,67,100
24576,note_on,,,,,256,0,10,,,,,2,,,67,85
24704,note_off,,,,,512,0,13,,,,,5,,,62,100
24704,note_off,,,,,512,0,14,,,,,5,,,43,100
24704,note_off,,,,,0,0,13,,,,,5,,,59,100
24704,note_off,,,,,0,0,9,,,,,1,,,74,100
24704,note_off,,,,,512,0,11,,,,,3,,,43,100
24704,note_off,,,,,512,0,12,,,,,4,,,43,100
24704,note_off,,,,,512,0,9,,,,,1,,,71,100
24832,note_off,,,,,256,0,10,,,,,2,,,67,100
24960,note_on,,,,,128,0,10,,,,,2,,,64,85
24960,note_on,,,,,256,0,14,,,,,5,,,48,100
24960,note_on,,,,,256,0,13,,,,,5,,,67,100
24960,note_on,,,,,256,0,9,,,,,1,,,72,85
24960,note_on,,,,,256,0,12,,,,,4,,,36,85
24960,note_on,,,,,0,0,13,,,,,5,,,60,100
24960,note_on,,,,,0,0,13,,,,,5,,,64,100
24960,note_on,,,,,256,0,11,,,,,3,,,48,85
24960,note_on,,,,,0,0,10,,,,,2,,,67,85
25472,note_off,,,,,0,0,13,,,,,5,,,60,100
25472,note_off,,,,,0,0,13,,,,,5,,,64,100
25472,note_off,,,,,512,0,13,,,,,5,,,67,100
25728,note_off,,,,,768,0,14,,,,,5,,,48,100
25728,note_off,,,,,0,0,10,,,,,2,,,67,100
25728,note_off,,,,,768,0,10,,,,,2,,,64,100
25728,note_off,,,,,768,0,9,,,,,1,,,72,100
25728,note_off,,,,,768,0,12,,,,,4,,,36,100
25728,note_off,,,,,768,0,11,,,,,3,,,48,100
26112,note_on,,,,,9600,0,8,,,,,0,,,81,85
26112,note_on,,,,,0,0,8,,,,,0,,,84,85
26368,note_off,,,,,256,0,8,,,,,0,,,81,100
26368,note_off,,,,,0,0,8,,,,,0,,,84,100
26496,note_on,,,,,128,0,8,,,,,0,,,81,85
26496,note_on,,,,,0,0,8,,,,,0,,,77,85
26624,note_off,,,,,0,0,8,,,,,0,,,77,100
26624,note_off,,,,,128,0,8,,,,,0,,,81,100
26688,note_on,,,,,0,0,8,,,,,0,,,79,85
26688,note_on,,,,,64,0,8,,,,,0,,,82,85
26816,note_off,,,,,0,0,8,,,,,0,,,79,100
26816,note_off,,,,,128,0,8,,,,,0,,,82,100
26880,note_on,,,,,0,0,8,,,,,0,,,84,85
26880,note_on,,,,,64,0,8,,,,,0,,,81,85
27136,note_off,,,,,256,0,8,,,,,0,,,81,100
27136,note_off,,,,,0,0,8,,,,,0,,,84,100
27264,note_on,,,,,1536,0,10,,,,,2,,,62,85
27264,note_on,,,,,1536,0,12,,,,,4,,,43,85
27264,note_on,,,,,0,0,13,,,,,5,,,69,100
27264,note_on,,,,,0,0,8,,,,,0,,,84,85
27264,note_on,,,,,1536,0,14,,,,,5,,,55,100
27264,note_on,,,,,0,0,9,,,,,1,,,84,85
27264,note_on,,,,,1536,0,11,,,,,3,,,55,85
27264,note_on,,,,,1792,0,13,,,,,5,,,60,100
27264,note_on,,,,,1536,0,9,,,,,1,,,81,85
27264,note_on,,,,,128,0,8,,,,,0,,,81,85
27520,note_off,,,,,256,0,14,,,,,5,,,55,100
27520,note_off,,,,,256,0,11,,,,,3,,,55,100
27520,note_off,,,,,256,0,13,,,,,5,,,60,100
27520,note_off,,,,,0,0,13,,,,,5,,,69,100
27520,note_off,,,,,256,0,12,,,,,4,,,43,100
27520,note_off,,,,,0,0,8,,,,,0,,,84,100
27520,note_off,,,,,256,0,9,,,,,1,,,81,100
27520,note_off,,,,,256,0,10,,,,,2,,,62,100
27520,note_off,,,,,256,0,8,,,,,0,,,81,100
27520,note_off,,,,,0,0,9,,,,,1,,,84,100
27648,note_on,,,,,128,0,11,,,,,3,,,43,85
27648,note_on,,,,,128,0,10,,,,,2,,,62,85
27648,note_on,,,,,128,0,12,,,,,4,,,43,85
27648,note_on,,,,,128,0,9,,,,,1,,,82,85
27648,note_on,,,,,128,0,14,,,,,5,,,43,100
27648,note_on,,,,,0,0,9,,,,,1,,,79,85
27648,note_on,,,,,128,0,13,,,,,5,,,67,100
27648,note_on,,,,,0,0,13,,,,,5,,,58,100
27648,note_on,,,,,0,0,8,,,,,0,,,82,85
27648,note_on,,,,,128,0,8,,,,,0,,,79,85
28032,note_off,,,,,384,0,10,,,,,2,,,62,100
28032,note_off,,,,,0,0,9,,,,,1,,,79,100
28032,note_off,,,,,384,0,9,,,,,1,,,82,100
28032,note_off,,,,,0,0,8,,,,,0,,,82,100
28032,note_off,,,,,384,0,8,,,,,0,,,79,100
28032,note_off,,,,,384,0,12,,,,,4,,,43,100
28032,note_off,,,,,384,0,11,,,,,3,,,43,100
28032,note_off,,,,,384,0,14,,,,,5,,,43,100
28160,note_off,,,,,0,0,13,,,,,5,,,58,100
28160,note_off,,,,,512,0,13,,,,,5,,,67,100
28416,note_on,,,,,384,0,8,,,,,0,,,79,85
28416,note_on,,,,,0,0,8,,,,,0,,,82,85
28672,note_off,,,,,0,0,8,,,,,0,,,82,100
28672,note_off,,,,,256,0,8,,,,,0,,,79,100
28800,note_on,,,,,128,0,8,,,,,0,,,79,85
28800,note_on,,,,,0,0,8,,,,,0,,,76,85
28928,note_off,,,,,128,0,8,,,,,0,,,79,100
28928,note_off,,,,,0,0,8,,,,,0,,,76,100
28992,note_on,,,,,0,0,8,,,,,0,,,77,85
28992,note_on,,,,,64,0,8,,,,,0,,,81,85
29120,note_off,,,,,0,0,8,,,,,0,,,77,100
29120,note_off,,,,,128,0,8,,,,,0,,,81,100
29184,note_on,,,,,0,0,8,,,,,0,,,82,85
29184,note_on,,,,,64,0,8,,,,,0,,,79,85
29440,note_off,,,,,0,0,8,,,,,0,,,82,100
29440,note_off,,,,,256,0,8,,,,,0,,,79,100
29568,note_on,,,,,1536,0,14,,,,,5,,,53,100
29568,note_on,,,,,0,0,13,,,,,5,,,67,100
29568,note_on,,,,,1536,0,11,,,,,3,,,53,85
29568,note_on,,,,,1536,0,10,,,,,2,,,60,85
29568,note_on,,,,,1408,0,13,,,,,5,,,58,100
29568,note_on,,,,,0,0,8,,,,,0,,,82,85
29568,note_on,,,,,128,0,8,,,,,0,,,79,85
29568,note_on,,,,,1536,0,12,,,,,4,,,41,85
29568,note_on,,,,,1536,0,9,,,,,1,,,79,85
29568,note_on,,,,,0,0,9,,,,,1,,,82,85
29824,note_off,,,,,256,0,14,,,,,5,,,53,100
29824,note_off,,,,,256,0,8,,,,,0,,,79,100
29824,note_off,,,,,0,0,13,,,,,5,,,67,100
29824,note_off,,,,,256,0,11,,,,,3,,,53,100
29824,note_off,,,,,256,0,13,,,,,5,,,58,100
29824,note_off,,,,,256,0,10,,,,,2,,,60,100
29824,note_off,,,,,256,0,9,,,,,1,,,79,100
29824,note_off,,,,,0,0,9,,,,,1,,,82,100
29824,note_off,,,,,256,0,12,,,,,4,,,41,100
29824,note_off,,,,,0,0,8,,,,,0,,,82,100
29952,note_on,,,,,128,0,8,,,,,0,,,81,85
29952,note_on,,,,,0,0,9,,,,,1,,,77,85
29952,note_on,,,,,128,0,12,,,,,4,,,41,85
29952,note_on,,,,,128,0,14,,,,,5,,,41,100
29952,note_on,,,,,128,0,13,,,,,5,,,57,100
29952,note_on,,,,,0,0,13,,,,,5,,,65,100
29952,note_on,,,,,128,0,10,,,,,2,,,60,85
29952,note_on,,,,,128,0,9,,,,,1,,,81,85
29952,note_on,,,,,128,0,11,,,,,3,,,41,85
29952,note_on,,,,,0,0,8,,,,,0,,,77,85
30336,note_off,,,,,384,0,8,,,,,0,,,81,100
30336,note_off,,,,,384,0,9,,,,,1,,,81,100
30336,note_off,,,,,0,0,9,,,,,1,,,77,100
30336,note_off,,,,,384,0,12,,,,,4,,,41,100
30336,note_off,,,,,384,0,11,,,,,3,,,41,100
30336,note_off,,,,,384,0,10,,,,,2,,,60,100
30336,note_off,,,,,384,0,14,,,,,5,,,41,100
30336,note_off,,,,,0,0,8,,,,,0,,,77,100
30464,note_off,,,,,512,0,13,,,,,5,,,57,100
30464,note_off,,,,,0,0,13,,,,,5,,,65,100
30720,note_on,,,,,384,0,8,,,,,0,,,77,85
30720,note_on,,,,,0,0,8,,,,,0,,,81,85
30976,note_off,,,,,0,0,8,,,,,0,,,81,100
30976,note_off,,,,,256,0,8,,,,,0,,,77,100
31104,note_on,,,,,128,0,8,,,,,0,,,77,85
31104,note_on,,,,,0,0,8,,,,,0,,,74,85
31232,note_off,,,,,128,0,8,,,,,0,,,77,100
31232,note_off,,,,,0,0,8,,,,,0,,,74,100
31296,note_on,,,,,64,0,8,,,,,0,,,79,85
31296,note_on,,,,,0,0,8,,,,,0,,,76,85
31424,note_off,,,,,0,0,8,,,,,0,,,76,100
31424,note_off,,,,,128,0,8,,,,,0,,,79,100
31488,note_on,,,,,0,0,8,,,,,0,,,81,85
31488,note_on,,,,,64,0,8,,,,,0,,,77,85
31744,note_off,,,,,0,0,8,,,,,0,,,81,100
31744,note_off,,,,,256,0,8,,,,,0,,,77,100
31872,note_on,,,,,0,0,8,,,,,0,,,81,85
31872,note_on,,,,,0,0,9,,,,,1,,,81,85
31872,note_on,,,,,1536,0,9,,,,,1,,,77,85
31872,note_on,,,,,128,0,8,,,,,0,,,77,85
31872,note_on,,,,,1536,0,14,,,,,5,,,60,100
31872,note_on,,,,,1536,0,12,,,,,4,,,48,85
31872,note_on,,,,,1536,0,10,,,,,2,,,60,85
31872,note_on,,,,,1408,0,13,,,,,5,,,69,100
31872,note_on,,,,,1536,0,11,,,,,3,,,60,85
31872,note_on,,,,,0,0,13,,,,,5,,,65,100
32128,note_off,,,,,0,0,9,,,,,1,,,81,100
32128,note_off,,,,,256,0,9,,,,,1,,,77,100
32128,note_off,,,,,256,0,10,,,,,2,,,60,100
32128,note_off,,,,,0,0,13,,,,,5,,,65,100
32128,note_off,,,,,256,0,11,,,,,3,,,60,100
32128,note_off,,,,,256,0,8,,,,,0,,,77,100
32128,note_off,,,,,0,0,8,,,,,0,,,81,100
32128,note_off,,,,,256,0,12,,,,,4,,,48,100
32128,note_off,,,,,256,0,13,,,,,5,,,69,100
32128,note_off,,,,,256,0,14,,,,,5,,,60,100
32256,note_on,,,,,0,0,13,,,,,5,,,64,100
32256,note_on,,,,,128,0,8,,,,,0,,,76,85
32256,note_on,,,,,0,0,8,,,,,0,,,79,85
32256,note_on,,,,,128,0,12,,,,,4,,,36,85
32256,note_on,,,,,128,0,10,,,,,2,,,60,85
32256,note_on,,,,,128,0,13,,,,,5,,,67,100
32256,note_on,,,,,0,0,9,,,,,1,,,76,85
32256,note_on,,,,,128,0,14,,,,,5,,,48,100
32256,note_on,,,,,128,0,11,,,,,3,,,48,85
32256,note_on,,,,,128,0,9,,,,,1,,,79,85
32640,note_off,,,,,384,0,14,,,,,5,,,48,100
32640,note_off,,,,,384,0,11,,,,,3,,,48,100
32640,note_off,,,,,384,0,12,,,,,4,,,36,100
32640,note_off,,,,,384,0,8,,,,,0,,,76,100
32640,note_off,,,,,0,0,8,,,,,0,,,79,100
32640,note_off,,,,,384,0,10,,,,,2,,,60,100
32640,note_off,,,,,0,0,9,,,,,1,,,76,100
32640,note_off,,,,,384,0,9,,,,,1,,,79,100
32768,note_off,,,,,512,0,13,,,,,5,,,67,100
32768,note_off,,,,,0,0,13,,,,,5,,,64,100
33024,note_on,,,,,0,0,8,,,,,0,,,79,85
33024,note_on,,,,,384,0,8,,,,,0,,,82,85
33280,note_off,,,,,256,0,8,,,,,0,,,82,100
33280,note_off,,,,,0,0,8,,,,,0,,,79,100
33408,note_on,,,,,128,0,8,,,,,0,,,79,85
33408,note_on,,,,,0,0,8,,,,,0,,,76,85
33536,note_off,,,,,128,0,8,,,,,0,,,79,100
33536,note_off,,,,,0,0,8,,,,,0,,,76,100
33600,note_on,,,,,64,0,8,,,,,0,,,81,85
33600,note_on,,,,,0,0,8,,,,,0,,,77,85
33728,note_off,,,,,128,0,8,,,,,0,,,81,100
33728,note_off,,,,,0,0,8,,,,,0,,,77,100
33792,note_on,,,,,64,0,8,,,,,0,,,79,85
33792,note_on,,,,,0,0,8,,,,,0,,,82,85
34048,note_off,,,,,0,0,8,,,,,0,,,82,100
34048,note_off,,,,,256,0,8,,,,,0,,,79,100
34176,note_on,,,,,1536,0,11,,,,,3,,,45,85
34176,note_on,,,,,0,0,9,,,,,1,,,79,85
34176,note_on,,,,,1536,0,12,,,,,4,,,33,85
34176,note_on,,,,,128,0,8,,,,,0,,,73,85
34176,note_on,,,,,0,0,13,,,,,5,,,61,100
34176,note_on,,,,,0,0,8,,,,,0,,,79,85
34176,note_on,,,,,1536,0,9,,,,,1,,,73,85
34176,note_on,,,,,1536,0,14,,,,,5,,,45,100
34176,note_on,,,,,1536,0,10,,,,,2,,,64,85
34176,note_on,,,,,1408,0,13,,,,,5,,,67,100
34432,note_off,,,,,256,0,10,,,,,2,,,64,100
34560,note_on,,,,,128,0,10,,,,,2,,,61,85
34688,note_off,,,,,512,0,8,,,,,0,,,73,100
34688,note_off,,,,,0,0,9,,,,,1,,,79,100
34688,note_off,,,,,512,0,11,,,,,3,,,45,100
34688,note_off,,,,,512,0,14,,,,,5,,,45,100
34688,note_off,,,,,512,0,9,,,,,1,,,73,100
34688,note_off,,,,,512,0,12,,,,,4,,,33,100
34688,note_off,,,,,0,0,8,,,,,0,,,79,100
34688,note_off,,,,,0,0,13,,,,,5,,,61,100
34688,note_off,,,,,512,0,13,,,,,5,,,67,100
34816,note_off,,,,,256,0,10,,,,,2,,,61,100
34944,note_on,,,,,128,0,10,,,,,2,,,57,85
34944,note_on,,,,,0,0,13,,,,,5,,,69,100
34944,note_on,,,,,256,0,13,,,,,5,,,65,100
34944,note_on,,,,,256,0,12,,,,,4,,,38,85
34944,note_on,,,,,256,0,9,,,,,1,,,77,85
34944,note_on,,,,,256,0,11,,,,,3,,,50,85
34944,note_on,,,,,256,0,14,,,,,5,,,50,100
34944,note_on,,,,,0,0,9,,,,,1,,,74,85
35200,note_off,,,,,0,0,9,,,,,1,,,74,100
35200,note_off,,,,,256,0,12,,,,,4,,,38,100
35200,note_off,,,,,256,0,14,,,,,5,,,50,100
35200,note_off,,,,,256,0,13,,,,,5,,,65,100
35200,note_off,,,,,0,0,13,,,,,5,,,69,100
35200,note_off,,,,,256,0,9,,,,,1,,,77,100
35200,note_off,,,,,256,0,10,,,,,2,,,57,100
35200,note_off,,,,,256,0,11,,,,,3,,,50,100
35328,note_on,,,,,128,0,10,,,,,2,,,69,85
35328,note_on,,,,,128,0,13,,,,,5,,,69,100
35328,note_on,,,,,0,0,13,,,,,5,,,67,100
35328,note_on,,,,,128,0,14,,,,,5,,,49,100
35328,note_on,,,,,128,0,12,,,,,4,,,37,85
35328,note_on,,,,,128,0,11,,,,,3,,,49,85
35328,note_on,,,,,0,0,9,,,,,1,,,76,85
35328,note_on,,,,,128,0,9,,,,,1,,,79,85
35584,note_off,,,,,256,0,10,,,,,2,,,69,100
35584,note_off,,,,,256,0,9,,,,,1,,,79,100
35584,note_off,,,,,0,0,9,,,,,1,,,76,100
35584,note_off,,,,,256,0,14,,,,,5,,,49,100
35584,note_off,,,,,256,0,12,,,,,4,,,37,100
35584,note_off,,,,,0,0,13,,,,,5,,,67,100
35584,note_off,,,,,256,0,13,,,,,5,,,69,100
35584,note_off,,,,,256,0,11,,,,,3,,,49,100
35712,note_on,,,,,128,0,12,,,,,4,,,38,85
35712,note_on,,,,,128,0,10,,,,,2,,,69,85
35712,note_on,,,,,128,0,14,,,,,5,,,50,100
35712,note_on,,,,,128,0,9,,,,,1,,,74,85
35712,note_on,,,,,0,0,9,,,,,1,,,77,85
35712,note_on,,,,,0,0,13,,,,,5,,,69,100
35712,note_on,,,,,128,0,11,,,,,3,,,50,85
35712,note_on,,,,,128,0,13,,,,,5,,,65,100
36224,note_off,,,,,512,0,13,,,,,5,,,65,100
36224,note_off,,,,,512,0,14,,,,,5,,,50,100
36224,note_off,,,,,512,0,12,,,,,4,,,38,100
36224,note_off,,,,,0,0,9,,,,,1,,,77,100
36224,note_off,,,,,512,0,9,,,,,1,,,74,100
36224,note_off,,,,,512,0,10,,,,,2,,,69,100
36224,note_off,,,,,0,0,13,,,,,5,,,69,100
36224,note_off,,,,,512,0,11,,,,,3,,,50,100
36480,note_on,,,,,0,0,13,,,,,5,,,64,100
36480,note_on,,,,,0,0,9,,,,,1,,,76,85
36480,note_on,,,,,256,0,9,,,,,1,,,73,85
36480,note_on,,,,,256,0,11,,,,,3,,,57,85
36480,note_on,,,,,256,0,12,,,,,4,,,45,85
36480,note_on,,,,,256,0,14,,,,,5,,,57,100
36480,note_on,,,,,256,0,13,,,,,5,,,73,100
36480,note_on,,,,,256,0,10,,,,,2,,,69,85
36992,note_off,,,,,512,0,10,,,,,2,,,69,100
36992,note_off,,,,,512,0,14,,,,,5,,,57,100
36992,note_off,,,,,0,0,13,,,,,5,,,64,100
36992,note_off,,,,,0,0,9,,,,,1,,,76,100
36992,note_off,,,,,512,0,9,,,,,1,,,73,100
36992,note_off,,,,,512,0,11,,,,,3,,,57,100
36992,note_off,,,,,512,0,12,,,,,4,,,45,100
36992,note_off,,,,,512,0,13,,,,,5,,,73,100
37244,program_change,,,,,252,0,11,,,,,3,42,,,
37248,note_on,,,,,4,0,11,,,,,3,,,50,85
37248,note_on,,,,,2560,0,8,,,,,0,,,77,85
37248,note_on,,,,,0,0,8,,,,,0,,,74,85
37504,note_off,,,,,0,0,8,,,,,0,,,74,100
37504,note_off,,,,,256,0,11,,,,,3,,,50,100
37504,note_off,,,,,256,0,8,,,,,0,,,77,100
37632,note_on,,,,,128,0,8,,,,,0,,,79,85
37632,note_on,,,,,0,0,8,,,,,0,,,76,85
37632,note_on,,,,,128,0,11,,,,,3,,,49,85
37888,note_off,,,,,256,0,8,,,,,0,,,79,100
37888,note_off,,,,,0,0,8,,,,,0,,,76,100
37888,note_off,,,,,256,0,11,,,,,3,,,49,100
38016,note_on,,,,,128,0,11,,,,,3,,,50,85
38016,note_on,,,,,0,0,8,,,,,0,,,77,85
38016,note_on,,,,,128,0,8,,,,,0,,,74,85
38528,note_off,,,,,0,0,8,,,,,0,,,77,100
38528,note_off,,,,,512,0,8,,,,,0,,,74,100
38528,note_off,,,,,512,0,11,,,,,3,,,50,100
38784,note_on,,,,,0,0,8,,,,,0,,,76,85
38784,note_on,,,,,256,0,11,,,,,3,,,57,85
38784,note_on,,,,,256,0,8,,,,,0,,,73,85
39168,program_change,,,,,384,0,11,,,,,3,48,,,
39296,note_off,,,,,512,0,8,,,,,0,,,73,100
39296,note_off,,,,,128,0,11,,,,,3,,,57,100
39296,note_off,,,,,0,0,8,,,,,0,,,76,100
39552,note_on,,,,,256,0,11,,,,,3,,,50,85
39552,note_on,,,,,0,0,9,,,,,1,,,74,85
39552,note_on,,,,,2560,0,10,,,,,2,,,65,85
39552,note_on,,,,,2560,0,12,,,,,4,,,38,85
39552,note_on,,,,,2560,0,9,,,,,1,,,81,85
39552,note_on,,,,,2560,0,14,,,,,5,,,50,100
39552,note_on,,,,,2560,0,13,,,,,5,,,69,100
39552,note_on,,,,,0,0,13,,,,,5,,,65,100
39808,note_off,,,,,256,0,12,,,,,4,,,38,100
39808,note_off,,,,,256,0,13,,,,,5,,,69,100
39808,note_off,,,,,0,0,13,,,,,5,,,65,100
39808,note_off,,,,,256,0,9,,,,,1,,,81,100
39808,note_off,,,,,256,0,10,,,,,2,,,65,100
39808,note_off,,,,,256,0,11,,,,,3,,,50,100
39808,note_off,,,,,256,0,14,,,,,5,,,50,100
39936,note_on,,,,,128,0,14,,,,,5,,,55,100
39936,note_on,,,,,128,0,9,,,,,1,,,79,85
39936,note_on,,,,,128,0,10,,,,,2,,,64,85
39936,note_on,,,,,128,0,12,,,,,4,,,43,85
39936,note_on,,,,,128,0,13,,,,,5,,,74,100
39936,note_on,,,,,0,0,13,,,,,5,,,64,100
39936,note_on,,,,,128,0,11,,,,,3,,,55,85
40064,note_off,,,,,0,0,9,,,,,1,,,79,100
40064,note_off,,,,,128,0,9,,,,,1,,,74,100
40128,note_on,,,,,64,0,9,,,,,1,,,77,85
40192,note_off,,,,,256,0,13,,,,,5,,,74,100
40192,note_off,,,,,256,0,14,,,,,5,,,55,100
40192,note_off,,,,,256,0,10,,,,,2,,,64,100
40192,note_off,,,,,0,0,13,,,,,5,,,64,100
40192,note_off,,,,,256,0,12,,,,,4,,,43,100
40192,note_off,,,,,256,0,11,,,,,3,,,55,100
40256,note_off,,,,,128,0,9,,,,,1,,,77,100
40320,note_on,,,,,128,0,14,,,,,5,,,57,100
40320,note_on,,,,,128,0,10,,,,,2,,,69,85
40320,note_on,,,,,128,0,11,,,,,3,,,57,85
40320,note_on,,,,,0,0,9,,,,,1,,,73,85
40320,note_on,,,,,0,0,13,,,,,5,,,73,100
40320,note_on,,,,,64,0,9,,,,,1,,,76,85
40320,note_on,,,,,128,0,12,,,,,4,,,45,85
40320,note_on,,,,,128,0,13,,,,,5,,,64,100
40412,note_off,,,,,92,0,9,,,,,1,,,76,100
40416,note_on,,,,,4,0,9,,,,,1,,,77,85
40508,note_off,,,,,92,0,9,,,,,1,,,77,100
40512,note_on,,,,,4,0,9,,,,,1,,,76,85
40556,note_off,,,,,44,0,9,,,,,1,,,76,100
40560,note_on,,,,,4,0,9,,,,,1,,,77,85
40576,note_off,,,,,256,0,14,,,,,5,,,57,100
40576,note_off,,,,,256,0,13,,,,,5,,,64,100
40576,note_off,,,,,0,0,13,,,,,5,,,73,100
40576,note_off,,,,,256,0,12,,,,,4,,,45,100
40576,note_off,,,,,256,0,11,,,,,3,,,57,100
40604,note_off,,,,,44,0,9,,,,,1,,,77,100
40608,note_on,,,,,4,0,9,,,,,1,,,76,85
40652,note_off,,,,,44,0,9,,,,,1,,,76,100
40656,note_on,,,,,4,0,9,,,,,1,,,77,85
40700,note_off,,,,,44,0,9,,,,,1,,,77,100
40704,note_on,,,,,128,0,14,,,,,5,,,45,100
40704,note_off,,,,,384,0,10,,,,,2,,,69,100
40704,note_on,,,,,0,0,13,,,,,5,,,64,100
40704,note_on,,,,,128,0,12,,,,,4,,,33,85
40704,note_on,,,,,4,0,9,,,,,1,,,76,85
40704,note_on,,,,,128,0,13,,,,,5,,,61,100
40704,note_on,,,,,128,0,11,,,,,3,,,45,85
40832,note_off,,,,,128,0,9,,,,,1,,,73,100
40896,note_on,,,,,192,0,10,,,,,2,,,67,85
40960,note_off,,,,,256,0,12,,,,,4,,,33,100
40960,note_off,,,,,256,0,14,,,,,5,,,45,100
40960,note_off,,,,,0,0,13,,,,,5,,,64,100
40960,note_off,,,,,128,0,9,,,,,1,,,76,100
40960,note_off,,,,,256,0,11,,,,,3,,,45,100
40960,note_off,,,,,256,0,13,,,,,5,,,61,100
41024,note_off,,,,,128,0,10,,,,,2,,,67,100
41088,note_on,,,,,128,0,9,,,,,1,,,74,85
41088,note_on,,,,,0,0,13,,,,,5,,,62,100
41088,note_on,,,,,128,0,12,,,,,4,,,38,85
41088,note_on,,,,,128,0,13,,,,,5,,,69,100
41088,note_on,,,,,0,0,13,,,,,5,,,65,100
41088,note_on,,,,,128,0,14,,,,,5,,,50,100
41088,note_on,,,,,128,0,11,,,,,3,,,50,85
41088,note_on,,,,,64,0,10,,,,,2,,,65,85
41600,note_off,,,,,0,0,13,,,,,5,,,65,100
41600,note_off,,,,,512,0,13,,,,,5,,,69,100
41600,note_off,,,,,512,0,14,,,,,5,,,50,100
41600,note_off,,,,,0,0,13,,,,,5,,,62,100
41600,note_off,,,,,512,0,11,,,,,3,,,50,100
41600,note_off,,,,,512,0,10,,,,,2,,,65,100
41600,note_off,,,,,512,0,9,,,,,1,,,74,100
41600,note_off,,,,,512,0,12,,,,,4,,,38,100
41852,program_change,,,,,252,0,11,,,,,3,42,,,
41856,note_on,,,,,4,0,11,,,,,3,,,50,85
41856,note_on,,,,,2560,0,8,,,,,0,,,81,85
41856,note_on,,,,,0,0,8,,,,,0,,,74,85
42112,note_off,,,,,256,0,11,,,,,3,,,50,100
42112,note_off,,,,,256,0,8,,,,,0,,,81,100
42240,note_on,,,,,128,0,11,,,,,3,,,55,85
42240,note_on,,,,,128,0,8,,,,,0,,,79,85
42368,note_off,,,,,128,0,8,,,,,0,,,74,100
42368,note_off,,,,,0,0,8,,,,,0,,,79,100
42432,note_on,,,,,64,0,8,,,,,0,,,77,85
42496,note_off,,,,,256,0,11,,,,,3,,,55,100
42560,note_off,,,,,128,0,8,,,,,0,,,77,100
42624,note_on,,,,,0,0,8,,,,,0,,,76,85
42624,note_on,,,,,64,0,8,,,,,0,,,73,85
42624,note_on,,,,,128,0,11,,,,,3,,,57,85
42716,note_off,,,,,92,0,8,,,,,0,,,73,100
42716,note_off,,,,,0,0,8,,,,,0,,,76,100
42720,note_on,,,,,0,0,8,,,,,0,,,77,85
42720,note_on,,,,,4,0,8,,,,,0,,,74,85
42812,note_off,,,,,0,0,8,,,,,0,,,77,100
42812,note_off,,,,,92,0,8,,,,,0,,,74,100
42816,note_on,,,,,0,0,8,,,,,0,,,76,85
42816,note_on,,,,,4,0,8,,,,,0,,,73,85
42860,note_off,,,,,44,0,8,,,,,0,,,73,100
42860,note_off,,,,,0,0,8,,,,,0,,,76,100
42864,note_on,,,,,0,0,8,,,,,0,,,77,85
42864,note_on,,,,,4,0,8,,,,,0,,,74,85
42880,note_off,,,,,256,0,11,,,,,3,,,57,100
42908,note_off,,,,,44,0,8,,,,,0,,,74,100
42908,note_off,,,,,0,0,8,,,,,0,,,77,100
42912,note_on,,,,,4,0,8,,,,,0,,,73,85
42912,note_on,,,,,0,0,8,,,,,0,,,76,85
42956,note_off,,,,,44,0,8,,,,,0,,,73,100
42956,note_off,,,,,0,0,8,,,,,0,,,76,100
42960,note_on,,,,,0,0,8,,,,,0,,,77,85
42960,note_on,,,,,4,0,8,,,,,0,,,74,85
43004,note_off,,,,,44,0,8,,,,,0,,,74,100
43004,note_off,,,,,0,0,8,,,,,0,,,77,100
43008,note_on,,,,,128,0,11,,,,,3,,,45,85
43008,note_on,,,,,4,0,8,,,,,0,,,73,85
43008,note_on,,,,,0,0,8,,,,,0,,,76,85
43264,note_off,,,,,256,0,11,,,,,3,,,45,100
43264,note_off,,,,,256,0,8,,,,,0,,,73,100
43264,note_off,,,,,0,0,8,,,,,0,,,76,100
43392,note_on,,,,,128,0,8,,,,,0,,,74,85
43392,note_on,,,,,128,0,11,,,,,3,,,50,85
44160,note_off,,,,,768,0,11,,,,,3,,,50,100
44160,note_off,,,,,768,0,8,,,,,0,,,74,100
44540,program_change,,,,,380,0,11,,,,,3,48,,,
44544,note_on,,,,,2944,0,13,,,,,5,,,72,100
44544,note_on,,,,,0,0,13,,,,,5,,,69,100
44544,note_on,,,,,4,0,11,,,,,3,,,53,85
44544,note_on,,,,,2944,0,14,,,,,5,,,53,100
44544,note_on,,,,,2944,0,10,,,,,2,,,69,85
44544,note_on,,,,,2944,0,9,,,,,1,,,72,85
44544,note_on,,,,,0,0,9,,,,,1,,,77,85
44544,note_on,,,,,2944,0,12,,,,,4,,,41,85
44800,note_off,,,,,256,0,12,,,,,4,,,41,100
44800,note_off,,,,,256,0,11,,,,,3,,,53,100
44800,note_off,,,,,0,0,13,,,,,5,,,69,100
44800,note_off,,,,,256,0,13,,,,,5,,,72,100
44800,note_off,,,,,256,0,9,,,,,1,,,72,100
44800,note_off,,,,,0,0,9,,,,,1,,,77,100
44800,note_off,,,,,256,0,10,,,,,2,,,69,100
44800,note_off,,,,,256,0,14,,,,,5,,,53,100
44928,note_on,,,,,0,0,13,,,,,5,,,67,100
44928,note_on,,,,,128,0,13,,,,,5,,,64,100
44928,note_on,,,,,128,0,10,,,,,2,,,64,85
44928,note_on,,,,,0,0,9,,,,,1,,,79,85
44928,note_on,,,,,128,0,12,,,,,4,,,36,85
44928,note_on,,,,,128,0,9,,,,,1,,,76,85
44928,note_on,,,,,128,0,14,,,,,5,,,48,100
44928,note_on,,,,,128,0,11,,,,,3,,,48,85
45440,note_off,,,,,0,0,9,,,,,1,,,79,100
45440,note_off,,,,,512,0,9,,,,,1,,,76,100
45440,note_off,,,,,512,0,12,,,,,4,,,36,100
45440,note_off,,,,,0,0,13,,,,,5,,,67,100
45440,note_off,,,,,512,0,11,,,,,3,,,48,100
45440,note_off,,,,,512,0,13,,,,,5,,,64,100
45440,note_off,,,,,512,0,14,,,,,5,,,48,100
45440,note_off,,,,,512,0,10,,,,,2,,,64,100
45696,note_on,,,,,256,0,11,,,,,3,,,53,85
45696,note_on,,,,,256,0,13,,,,,5,,,69,100
45696,note_on,,,,,256,0,10,,,,,2,,,60,85
45696,note_on,,,,,0,0,9,,,,,1,,,77,85
45696,note_on,,,,,256,0,12,,,,,4,,,41,85
45696,note_on,,,,,0,0,13,,,,,5,,,72,100
45696,note_on,,,,,256,0,14,,,,,5,,,53,100
45696,note_on,,,,,256,0,9,,,,,1,,,81,85
45952,note_off,,,,,256,0,10,,,,,2,,,60,100
45952,note_off,,,,,0,0,9,,,,,1,,,77,100
45952,note_off,,,,,256,0,9,,,,,1,,,81,100
46080,note_on,,,,,0,0,9,,,,,1,,,72,85
46080,note_on,,,,,128,0,9,,,,,1,,,79,85
46080,note_on,,,,,128,0,10,,,,,2,,,69,85
46208,note_off,,,,,128,0,9,,,,,1,,,79,100
46272,note_on,,,,,64,0,9,,,,,1,,,81,85
46400,note_off,,,,,128,0,9,,,,,1,,,81,100
46464,note_off,,,,,768,0,11,,,,,3,,,53,100
46464,note_off,,,,,768,0,14,,,,,5,,,53,100
46464,note_off,,,,,0,0,13,,,,,5,,,72,100
46464,note_off,,,,,768,0,13,,,,,5,,,69,100
46464,note_off,,,,,768,0,12,,,,,4,,,41,100
46464,note_on,,,,,64,0,9,,,,,1,,,77,85
46592,note_off,,,,,128,0,9,,,,,1,,,72,100
46592,note_off,,,,,512,0,10,,,,,2,,,69,100
46720,note_off,,,,,128,0,9,,,,,1,,,77,100
46848,note_on,,,,,384,0,14,,,,,5,,,50,100
46848,note_on,,,,,384,0,12,,,,,4,,,38,85
46848,note_on,,,,,256,0,10,,,,,2,,,65,85
46848,note_on,,,,,0,0,9,,,,,1,,,77,85
46848,note_on,,,,,128,0,9,,,,,1,,,82,85
46848,note_on,,,,,384,0,11,,,,,3,,,50,85
46848,note_on,,,,,384,0,13,,,,,5,,,58,100
46848,note_on,,,,,0,0,13,,,,,5,,,69,100
47104,note_off,,,,,256,0,9,,,,,1,,,82,100
47232,note_on,,,,,128,0,9,,,,,1,,,81,85
47360,note_off,,,,,512,0,12,,,,,4,,,38,100
47360,note_off,,,,,512,0,14,,,,,5,,,50,100
47360,note_off,,,,,512,0,13,,,,,5,,,58,100
47360,note_off,,,,,128,0,9,,,,,1,,,77,100
47360,note_off,,,,,512,0,10,,,,,2,,,65,100
47360,note_off,,,,,512,0,11,,,,,3,,,50,100
47360,note_off,,,,,0,0,13,,,,,5,,,69,100
47488,note_off,,,,,128,0,9,,,,,1,,,81,100
47616,note_on,,,,,256,0,12,,,,,4,,,34,85
47616,note_on,,,,,256,0,14,,,,,5,,,46,100
47616,note_on,,,,,256,0,11,,,,,3,,,46,85
47616,note_on,,,,,256,0,13,,,,,5,,,65,100
47616,note_on,,,,,0,0,13,,,,,5,,,62,100
47616,note_on,,,,,128,0,9,,,,,1,,,82,85
47616,note_on,,,,,0,0,9,,,,,1,,,79,85
47616,note_on,,,,,256,0,10,,,,,2,,,62,85
47872,note_off,,,,,256,0,14,,,,,5,,,46,100
47872,note_off,,,,,256,0,12,,,,,4,,,34,100
47872,note_off,,,,,0,0,9,,,,,1,,,79,100
47872,note_off,,,,,256,0,9,,,,,1,,,82,100
47872,note_off,,,,,0,0,13,,,,,5,,,62,100
47872,note_off,,,,,256,0,10,,,,,2,,,62,100
47872,note_off,,,,,256,0,13,,,,,5,,,65,100
47872,note_off,,,,,256,0,11,,,,,3,,,46,100
48000,note_on,,,,,128,0,12,,,,,4,,,36,85
48000,note_on,,,,,128,0,14,,,,,5,,,48,100
48000,note_on,,,,,128,0,9,,,,,1,,,79,85
48000,note_on,,,,,0,0,9,,,,,1,,,76,85
48000,note_on,,,,,128,0,11,,,,,3,,,48,85
48000,note_on,,,,,128,0,10,,,,,2,,,67,85
48000,note_on,,,,,128,0,13,,,,,5,,,64,100
48000,note_on,,,,,0,0,13,,,,,5,,,67,100
48128,note_off,,,,,128,0,9,,,,,1,,,79,100
48192,note_on,,,,,64,0,9,,,,,1,,,77,85
48320,note_off,,,,,128,0,9,,,,,1,,,77,100
48384,note_on,,,,,64,0,9,,,,,1,,,76,85
48512,note_off,,,,,128,0,9,,,,,1,,,76,100
48576,note_on,,,,,64,0,9,,,,,1,,,77,85
48704,note_off,,,,,128,0,9,,,,,1,,,77,100
48768,note_off,,,,,768,0,11,,,,,3,,,48,100
48768,note_off,,,,,768,0,12,,,,,4,,,36,100
48768,note_off,,,,,768,0,13,,,,,5,,,64,100
48768,note_on,,,,,0,0,9,,,,,1,,,79,85
48768,note_off,,,,,64,0,9,,,,,1,,,76,100
48768,note_off,,,,,0,0,13,,,,,5,,,67,100
48768,note_off,,,,,768,0,10,,,,,2,,,67,100
48768,note_off,,,,,768,0,14,,,,,5,,,48,100
49024,note_off,,,,,256,0,9,,,,,1,,,79,100
49148,program_change,,,,,380,0,11,,,,,3,42,,,
49152,note_on,,,,,0,0,8,,,,,0,,,72,85
49152,note_on,,,,,4992,0,8,,,,,0,,,81,85
49152,note_on,,,,,4,0,11,,,,,3,,,53,85
49408,note_off,,,,,0,0,8,,,,,0,,,72,100
49408,note_off,,,,,256,0,8,,,,,0,,,81,100
49536,note_on,,,,,128,0,8,,,,,0,,,81,85
49536,note_on,,,,,0,0,8,,,,,0,,,77,85
49920,note_off,,,,,768,0,11,,,,,3,,,53,100
50048,note_off,,,,,0,0,8,,,,,0,,,77,100
50048,note_off,,,,,512,0,8,,,,,0,,,81,100
50304,note_on,,,,,384,0,11,,,,,3,,,53,85
50304,note_on,,,,,256,0,8,,,,,0,,,71,85
50304,note_on,,,,,0,0,8,,,,,0,,,74,85
50560,note_off,,,,,256,0,11,,,,,3,,,53,100
50560,note_off,,,,,256,0,8,,,,,0,,,71,100
50560,note_off,,,,,0,0,8,,,,,0,,,74,100
50688,note_on,,,,,128,0,11,,,,,3,,,52,85
50688,note_on,,,,,128,0,8,,,,,0,,,72,85
50688,note_on,,,,,0,0,8,,,,,0,,,79,85
50944,note_off,,,,,256,0,8,,,,,0,,,79,100
50944,note_off,,,,,256,0,11,,,,,3,,,52,100
51072,note_on,,,,,128,0,11,,,,,3,,,53,85
51072,note_on,,,,,0,0,8,,,,,0,,,72,85
51072,note_off,,,,,128,0,8,,,,,0,,,72,100
51264,note_on,,,,,192,0,8,,,,,0,,,77,85
51328,note_off,,,,,256,0,11,,,,,3,,,53,100
51392,note_off,,,,,128,0,8,,,,,0,,,77,100
51456,note_on,,,,,128,0,11,,,,,3,,,55,85
51456,note_on,,,,,64,0,8,,,,,0,,,76,85
51584,note_off,,,,,128,0,8,,,,,0,,,72,100
51712,note_off,,,,,128,0,8,,,,,0,,,76,100
51712,note_off,,,,,256,0,11,,,,,3,,,55,100
51840,note_on,,,,,128,0,11,,,,,3,,,43,85
51840,note_on,,,,,0,0,8,,,,,0,,,74,85
51840,note_on,,,,,128,0,8,,,,,0,,,71,85
51932,note_off,,,,,0,0,8,,,,,0,,,74,100
51932,note_off,,,,,92,0,8,,,,,0,,,71,100
51936,note_on,,,,,4,0,8,,,,,0,,,72,85
51936,note_on,,,,,0,0,8,,,,,0,,,76,85
52028,note_off,,,,,92,0,8,,,,,0,,,72,100
52028,note_off,,,,,0,0,8,,,,,0,,,76,100
52032,note_on,,,,,0,0,8,,,,,0,,,74,85
52032,note_on,,,,,4,0,8,,,,,0,,,71,85
52076,note_off,,,,,44,0,8,,,,,0,,,71,100
52076,note_off,,,,,0,0,8,,,,,0,,,74,100
52080,note_on,,,,,4,0,8,,,,,0,,,72,85
52080,note_on,,,,,0,0,8,,,,,0,,,76,85
52124,note_off,,,,,0,0,8,,,,,0,,,76,100
52124,note_off,,,,,44,0,8,,,,,0,,,72,100
52128,note_on,,,,,0,0,8,,,,,0,,,74,85
52128,note_on,,,,,4,0,8,,,,,0,,,71,85
52172,note_off,,,,,44,0,8,,,,,0,,,71,100
52172,note_off,,,,,0,0,8,,,,,0,,,74,100
52176,note_on,,,,,0,0,8,,,,,0,,,76,85
52176,note_on,,,,,4,0,8,,,,,0,,,72,85
52220,note_off,,,,,0,0,8,,,,,0,,,76,100
52220,note_off,,,,,44,0,8,,,,,0,,,72,100
52224,note_on,,,,,4,0,8,,,,,0,,,71,85
52224,note_on,,,,,0,0,8,,,,,0,,,74,85
52352,note_off,,,,,512,0,11,,,,,3,,,43,100
52480,note_off,,,,,256,0,8,,,,,0,,,71,100
52480,note_off,,,,,0,0,8,,,,,0,,,74,100
52608,note_on,,,,,128,0,8,,,,,0,,,72,85
52608,note_on,,,,,256,0,11,,,,,3,,,48,85
53376,note_off,,,,,768,0,8,,,,,0,,,72,100
53376,note_off,,,,,768,0,11,,,,,3,,,48,100
53756,program_change,,,,,380,0,11,,,,,3,48,,,
53760,note_on,,,,,4992,0,14,,,,,5,,,53,100
53760,note_on,,,,,4992,0,10,,,,,2,,,65,85
53760,note_on,,,,,4992,0,13,,,,,5,,,72,100
53760,note_on,,,,,4,0,11,,,,,3,,,53,85
53760,note_on,,,,,0,0,9,,,,,1,,,72,85
53760,note_on,,,,,4736,0,9,,,,,1,,,81,85
53760,note_on,,,,,4992,0,12,,,,,4,,,41,85
53760,note_on,,,,,0,0,13,,,,,5,,,69,100
54016,note_off,,,,,256,0,10,,,,,2,,,65,100
54016,note_off,,,,,0,0,9,,,,,1,,,72,100
54016,note_off,,,,,256,0,9,,,,,1,,,81,100
54144,note_on,,,,,128,0,10,,,,,2,,,60,85
54144,note_on,,,,,0,0,9,,,,,1,,,77,85
54144,note_on,,,,,128,0,9,,,,,1,,,81,85
54528,note_off,,,,,768,0,11,,,,,3,,,53,100
54528,note_off,,,,,768,0,14,,,,,5,,,53,100
54528,note_off,,,,,768,0,13,,,,,5,,,72,100
54528,note_off,,,,,768,0,12,,,,,4,,,41,100
54528,note_off,,,,,0,0,13,,,,,5,,,69,100
54656,note_off,,,,,0,0,9,,,,,1,,,77,100
54656,note_off,,,,,512,0,9,,,,,1,,,81,100
54656,note_off,,,,,512,0,10,,,,,2,,,60,100
54912,note_on,,,,,384,0,13,,,,,5,,,62,100
54912,note_on,,,,,384,0,11,,,,,3,,,53,85
54912,note_on,,,,,384,0,14,,,,,5,,,53,100
54912,note_on,,,,,384,0,12,,,,,4,,,41,85
54912,note_on,,,,,256,0,10,,,,,2,,,67,85
54912,note_on,,,,,256,0,9,,,,,1,,,71,85
54912,note_on,,,,,0,0,13,,,,,5,,,59,100
54912,note_on,,,,,0,0,9,,,,,1,,,74,85
55168,note_off,,,,,256,0,10,,,,,2,,,67,100
55168,note_off,,,,,256,0,12,,,,,4,,,41,100
55168,note_off,,,,,256,0,13,,,,,5,,,62,100
55168,note_off,,,,,0,0,13,,,,,5,,,59,100
55168,note_off,,,,,256,0,9,,,,,1,,,71,100
55168,note_off,,,,,0,0,9,,,,,1,,,74,100
55168,note_off,,,,,256,0,11,,,,,3,,,53,100
55168,note_off,,,,,256,0,14,,,,,5,,,53,100
55296,note_on,,,,,128,0,14,,,,,5,,,52,100
55296,note_on,,,,,0,0,13,,,,,5,,,55,100
55296,note_on,,,,,128,0,12,,,,,4,,,40,85
55296,note_on,,,,,128,0,10,,,,,2,,,60,85
55296,note_on,,,,,0,0,9,,,,,1,,,79,85
55296,note_on,,,,,128,0,13,,,,,5,,,60,100
55296,note_on,,,,,128,0,11,,,,,3,,,52,85
55296,note_on,,,,,128,0,9,,,,,1,,,72,85
55552,note_off,,,,,256,0,12,,,,,4,,,40,100
55552,note_off,,,,,256,0,13,,,,,5,,,60,100
55552,note_off,,,,,0,0,13,,,,,5,,,55,100
55552,note_off,,,,,256,0,14,,,,,5,,,52,100
55552,note_off,,,,,256,0,10,,,,,2,,,60,100
55552,note_off,,,,,256,0,9,,,,,1,,,79,100
55552,note_off,,,,,256,0,11,,,,,3,,,52,100
55680,note_on,,,,,128,0,13,,,,,5,,,60,100
55680,note_on,,,,,128,0,12,,,,,4,,,41,85
55680,note_off,,,,,128,0,9,,,,,1,,,72,100
55680,note_on,,,,,0,0,9,,,,,1,,,72,85
55680,note_on,,,,,128,0,10,,,,,2,,,69,85
55680,note_on,,,,,128,0,14,,,,,5,,,53,100
55680,note_on,,,,,0,0,13,,,,,5,,,57,100
55680,note_on,,,,,128,0,11,,,,,3,,,53,85
55872,note_on,,,,,192,0,9,,,,,1,,,77,85
55936,note_off,,,,,256,0,10,,,,,2,,,69,100
55936,note_off,,,,,256,0,11,,,,,3,,,53,100
55936,note_off,,,,,256,0,14,,,,,5,,,53,100
55936,note_off,,,,,256,0,13,,,,,5,,,60,100
55936,note_off,,,,,0,0,13,,,,,5,,,57,100
55936,note_off,,,,,256,0,12,,,,,4,,,41,100
56000,note_off,,,,,128,0,9,,,,,1,,,77,100
56064,note_on,,,,,128,0,14,,,,,5,,,55,100
56064,note_on,,,,,128,0,10,,,,,2,,,67,85
56064,note_on,,,,,128,0,13,,,,,5,,,64,100
56064,note_on,,,,,0,0,13,,,,,5,,,60,100
56064,note_on,,,,,128,0,12,,,,,4,,,43,85
56064,note_on,,,,,128,0,11,,,,,3,,,55,85
56064,note_on,,,,,64,0,9,,,,,1,,,76,85
56192,note_off,,,,,128,0,9,,,,,1,,,72,100
56320,note_off,,,,,256,0,12,,,,,4,,,43,100
56320,note_off,,,,,256,0,14,,,,,5,,,55,100
56320,note_off,,,,,0,0,13,,,,,5,,,60,100
56320,note_off,,,,,256,0,13,,,,,5,,,64,100
56320,note_off,,,,,128,0,9,,,,,1,,,76,100
56320,note_off,,,,,256,0,11,,,,,3,,,55,100
56448,note_on,,,,,128,0,11,,,,,3,,,43,85
56448,note_on,,,,,128,0,14,,,,,5,,,43,100
56448,note_on,,,,,128,0,12,,,,,4,,,43,85
56448,note_on,,,,,0,0,13,,,,,5,,,59,100
56448,note_on,,,,,0,0,9,,,,,1,,,74,85
56448,note_on,,,,,128,0,13,,,,,5,,,62,100
56448,note_on,,,,,128,0,9,,,,,1,,,71,85
56540,note_off,,,,,92,0,9,,,,,1,,,71,100
56544,note_on,,,,,4,0,9,,,,,1,,,72,85
56576,note_off,,,,,512,0,10,,,,,2,,,67,100
56636,note_off,,,,,92,0,9,,,,,1,,,72,100
56640,note_on,,,,,4,0,9,,,,,1,,,71,85
56684,note_off,,,,,44,0,9,,,,,1,,,71,100
56688,note_on,,,,,4,0,9,,,,,1,,,72,85
56732,note_off,,,,,44,0,9,,,,,1,,,72,100
56736,note_on,,,,,4,0,9,,,,,1,,,71,85
56780,note_off,,,,,44,0,9,,,,,1,,,71,100
56784,note_on,,,,,4,0,9,,,,,1,,,72,85
56828,note_off,,,,,44,0,9,,,,,1,,,72,100
56832,note_on,,,,,256,0,10,,,,,2,,,67,85
56832,note_on,,,,,4,0,9,,,,,1,,,71,85
56960,note_off,,,,,128,0,9,,,,,1,,,74,100
56960,note_off,,,,,512,0,11,,,,,3,,,43,100
56960,note_off,,,,,0,0,13,,,,,5,,,59,100
56960,note_off,,,,,512,0,14,,,,,5,,,43,100
56960,note_off,,,,,512,0,13,,,,,5,,,62,100
56960,note_off,,,,,512,0,12,,,,,4,,,43,100
57088,note_off,,,,,128,0,9,,,,,1,,,71,100
57088,note_off,,,,,256,0,10,,,,,2,,,67,100
57216,note_on,,,,,0,0,13,,,,,5,,,60,100
57216,note_on,,,,,128,0,9,,,,,1,,,72,85
57216,note_on,,,,,0,0,10,,,,,2,,,67,85
57216,note_on,,,,,256,0,13,,,,,5,,,67,100
57216,note_on,,,,,256,0,12,,,,,4,,,36,85
57216,note_on,,,,,128,0,10,,,,,2,,,64,85
57216,note_on,,,,,0,0,13,,,,,5,,,64,100
57216,note_on,,,,,256,0,14,,,,,5,,,48,100
57216,note_on,,,,,256,0,11,,,,,3,,,48,85
57728,note_off,,,,,0,0,13,,,,,5,,,64,100
57728,note_off,,,,,0,0,13,,,,,5,,,60,100
57728,note_off,,,,,512,0,13,,,,,5,,,67,100
57984,note_off,,,,,768,0,14,,,,,5,,,48,100
57984,note_off,,,,,0,0,10,,,,,2,,,67,100
57984,note_off,,,,,768,0,11,,,,,3,,,48,100
57984,note_off,,,,,768,0,12,,,,,4,,,36,100
57984,note_off,,,,,768,0,9,,,,,1,,,72,100
57984,note_off,,,,,768,0,10,,,,,2,,,64,100
58364,program_change,,,,,380,0,11,,,,,3,42,,,
58368,note_on,,,,,4,0,11,,,,,3,,,57,85
58368,note_on,,,,,4992,0,8,,,,,0,,,65,85
58368,note_on,,,,,0,0,8,,,,,0,,,72,85
58624,note_off,,,,,256,0,8,,,,,0,,,65,100
58624,note_off,,,,,0,0,8,,,,,0,,,72,100
58752,note_on,,,,,128,0,8,,,,,0,,,77,85
58752,note_on,,,,,0,0,8,,,,,0,,,69,85
59008,note_off,,,,,256,0,8,,,,,0,,,69,100
59136,note_on,,,,,128,0,8,,,,,0,,,65,85
59136,note_off,,,,,768,0,11,,,,,3,,,57,100
59264,note_off,,,,,128,0,8,,,,,0,,,77,100
59392,note_off,,,,,128,0,8,,,,,0,,,65,100
59520,note_on,,,,,384,0,11,,,,,3,,,58,85
59520,note_on,,,,,128,0,8,,,,,0,,,74,85
59520,note_on,,,,,0,0,8,,,,,0,,,65,85
59648,note_off,,,,,128,0,8,,,,,0,,,74,100
59712,note_on,,,,,64,0,8,,,,,0,,,72,85
59840,note_off,,,,,128,0,8,,,,,0,,,72,100
59904,note_on,,,,,64,0,8,,,,,0,,,70,85
60032,note_off,,,,,128,0,8,,,,,0,,,70,100
60096,note_on,,,,,64,0,8,,,,,0,,,72,85
60224,note_off,,,,,128,0,8,,,,,0,,,72,100
60288,note_on,,,,,0,0,8,,,,,0,,,74,85
60288,note_off,,,,,64,0,8,,,,,0,,,65,100
60288,note_off,,,,,768,0,11,,,,,3,,,58,100
60544,note_off,,,,,256,0,8,,,,,0,,,74,100
60672,note_on,,,,,128,0,8,,,,,0,,,74,85
60672,note_on,,,,,0,0,8,,,,,0,,,67,85
60672,note_on,,,,,384,0,11,,,,,3,,,59,85
60928,note_off,,,,,0,0,8,,,,,0,,,67,100
60928,note_off,,,,,256,0,8,,,,,0,,,74,100
61056,note_on,,,,,128,0,8,,,,,0,,,79,85
61056,note_on,,,,,0,0,8,,,,,0,,,71,85
61312,note_off,,,,,256,0,8,,,,,0,,,71,100
61440,note_on,,,,,128,0,8,,,,,0,,,67,85
61440,note_off,,,,,768,0,11,,,,,3,,,59,100
61568,note_off,,,,,128,0,8,,,,,0,,,79,100
61696,note_off,,,,,128,0,8,,,,,0,,,67,100
61824,note_on,,,,,384,0,11,,,,,3,,,60,85
61824,note_on,,,,,0,0,8,,,,,0,,,67,85
61824,note_on,,,,,128,0,8,,,,,0,,,76,85
61952,note_off,,,,,128,0,8,,,,,0,,,76,100
62016,note_on,,,,,64,0,8,,,,,0,,,74,85
62144,note_off,,,,,128,0,8,,,,,0,,,74,100
62208,note_on,,,,,64,0,8,,,,,0,,,72,85
62336,note_off,,,,,128,0,8,,,,,0,,,72,100
62400,note_on,,,,,64,0,8,,,,,0,,,74,85
62528,note_off,,,,,128,0,8,,,,,0,,,74,100
62592,note_off,,,,,768,0,11,,,,,3,,,60,100
62592,note_off,,,,,64,0,8,,,,,0,,,67,100
62592,note_on,,,,,0,0,8,,,,,0,,,76,85
62848,note_off,,,,,256,0,8,,,,,0,,,76,100
62972,program_change,,,,,380,0,11,,,,,3,48,,,
62976,note_on,,,,,4992,0,12,,,,,4,,,45,85
62976,note_on,,,,,4992,0,14,,,,,5,,,57,100
62976,note_on,,,,,4992,0,10,,,,,2,,,69,85
62976,note_on,,,,,4,0,11,,,,,3,,,57,85
62976,note_on,,,,,0,0,13,,,,,5,,,65,100
62976,note_on,,,,,4992,0,9,,,,,1,,,77,85
62976,note_on,,,,,0,0,9,,,,,1,,,84,85
62976,note_on,,,,,5248,0,13,,,,,5,,,60,100
63232,note_off,,,,,0,0,9,,,,,1,,,84,100
63232,note_off,,,,,256,0,9,,,,,1,,,77,100
63232,note_off,,,,,256,0,13,,,,,5,,,60,100
63232,note_off,,,,,0,0,13,,,,,5,,,65,100
63360,note_on,,,,,128,0,13,,,,,5,,,60,100
63360,note_on,,,,,0,0,13,,,,,5,,,65,100
63360,note_on,,,,,0,0,9,,,,,1,,,77,85
63360,note_on,,,,,128,0,9,,,,,1,,,72,85
63616,note_off,,,,,256,0,9,,,,,1,,,77,100
63616,note_off,,,,,0,0,13,,,,,5,,,65,100
63616,note_off,,,,,256,0,13,,,,,5,,,60,100
63744,note_on,,,,,0,0,13,,,,,5,,,65,100
63744,note_off,,,,,768,0,10,,,,,2,,,69,100
63744,note_on,,,,,128,0,13,,,,,5,,,60,100
63744,note_off,,,,,768,0,12,,,,,4,,,45,100
63744,note_on,,,,,128,0,9,,,,,1,,,77,85
63744,note_off,,,,,768,0,14,,,,,5,,,57,100
63744,note_off,,,,,768,0,11,,,,,3,,,57,100
63872,note_off,,,,,128,0,9,,,,,1,,,72,100
64000,note_off,,,,,128,0,9,,,,,1,,,77,100
64000,note_off,,,,,0,0,13,,,,,5,,,65,100
64000,note_off,,,,,256,0,13,,,,,5,,,60,100
64128,note_on,,,,,384,0,11,,,,,3,,,58,85
64128,note_on,,,,,128,0,9,,,,,1,,,77,85
64128,note_on,,,,,0,0,9,,,,,1,,,74,85
64128,note_on,,,,,384,0,12,,,,,4,,,46,85
64128,note_on,,,,,128,0,13,,,,,5,,,65,100
64128,note_on,,,,,384,0,10,,,,,2,,,62,85
64128,note_on,,,,,0,0,13,,,,,5,,,62,100
64128,note_on,,,,,384,0,14,,,,,5,,,58,100
64316,note_off,,,,,188,0,9,,,,,1,,,77,100
64320,note_on,,,,,4,0,9,,,,,1,,,76,85
64384,note_off,,,,,256,0,13,,,,,5,,,65,100
64384,note_off,,,,,0,0,13,,,,,5,,,62,100
64448,note_off,,,,,128,0,9,,,,,1,,,76,100
64512,note_on,,,,,64,0,9,,,,,1,,,77,85
64512,note_on,,,,,0,0,13,,,,,5,,,65,100
64512,note_on,,,,,128,0,13,,,,,5,,,62,100
64700,note_off,,,,,188,0,9,,,,,1,,,77,100
64704,note_on,,,,,4,0,9,,,,,1,,,76,85
64768,note_off,,,,,0,0,13,,,,,5,,,65,100
64768,note_off,,,,,256,0,13,,,,,5,,,62,100
64832,note_off,,,,,128,0,9,,,,,1,,,76,100
64896,note_off,,,,,768,0,12,,,,,4,,,46,100
64896,note_off,,,,,768,0,14,,,,,5,,,58,100
64896,note_off,,,,,768,0,11,,,,,3,,,58,100
64896,note_on,,,,,128,0,13,,,,,5,,,62,100
64896,note_on,,,,,0,0,13,,,,,5,,,65,100
64896,note_off,,,,,768,0,10,,,,,2,,,62,100
64896,note_off,,,,,64,0,9,,,,,1,,,74,100
64896,note_on,,,,,0,0,9,,,,,1,,,77,85
65152,note_off,,,,,256,0,9,,,,,1,,,77,100
65152,note_off,,,,,0,0,13,,,,,5,,,65,100
65152,note_off,,,,,256,0,13,,,,,5,,,62,100
65280,note_on,,,,,384,0,12,,,,,4,,,47,85
65280,note_on,,,,,384,0,14,,,,,5,,,59,100
65280,note_on,,,,,0,0,13,,,,,5,,,62,100
65280,note_on,,,,,128,0,13,,,,,5,,,67,100
65280,note_on,,,,,384,0,10,,,,,2,,,71,85
65280,note_on,,,,,0,0,9,,,,,1,,,79,85
65280,note_on,,,,,128,0,9,,,,,1,,,86,85
65280,note_on,,,,,384,0,11,,,,,3,,,59,85
65536,note_off,,,,,256,0,9,,,,,1,,,86,100
65536,note_off,,,,,256,0,13,,,,,5,,,67,100
65536,note_off,,,,,0,0,13,,,,,5,,,62,100
65536,note_off,,,,,0,0,9,,,,,1,,,79,100
65664,note_on,,,,,128,0,9,,,,,1,,,79,85
65664,note_on,,,,,0,0,13,,,,,5,,,67,100
65664,note_on,,,,,0,0,9,,,,,1,,,74,85
65664,note_on,,,,,128,0,13,,,,,5,,,62,100
65920,note_off,,,,,256,0,9,,,,,1,,,79,100
65920,note_off,,,,,0,0,13,,,,,5,,,67,100
65920,note_off,,,,,256,0,13,,,,,5,,,62,100
66048,note_off,,,,,768,0,14,,,,,5,,,59,100
66048,note_off,,,,,768,0,11,,,,,3,,,59,100
66048,note_off,,,,,768,0,10,,,,,2,,,71,100
66048,note_on,,,,,128,0,9,,,,,1,,,79,85
66048,note_on,,,,,128,0,13,,,,,5,,,62,100
66048,note_on,,,,,0,0,13,,,,,5,,,67,100
66048,note_off,,,,,768,0,12,,,,,4,,,47,100
66176,note_off,,,,,128,0,9,,,,,1,,,74,100
66304,note_off,,,,,256,0,13,,,,,5,,,62,100
66304,note_off,,,,,0,0,13,,,,,5,,,67,100
66304,note_off,,,,,128,0,9,,,,,1,,,79,100
66432,note_on,,,,,384,0,12,,,,,4,,,48,85
66432,note_on,,,,,0,0,9,,,,,1,,,76,85
66432,note_on,,,,,128,0,9,,,,,1,,,79,85
66432,note_on,,,,,384,0,11,,,,,3,,,60,85
66432,note_on,,,,,384,0,14,,,,,5,,,60,100
66432,note_on,,,,,384,0,10,,,,,2,,,64,85
66460,note_on,,,,,156,0,13,,,,,5,,,60,100
66492,note_on,,,,,32,0,13,,,,,5,,,64,100
66524,note_on,,,,,32,0,13,,,,,5,,,67,100
66556,note_on,,,,,32,0,13,,,,,5,,,72,100
66620,note_off,,,,,188,0,9,,,,,1,,,79,100
66624,note_on,,,,,4,0,9,,,,,1,,,77,85
66752,note_off,,,,,128,0,9,,,,,1,,,77,100
66816,note_on,,,,,64,0,9,,,,,1,,,79,85
66972,note_off,,,,,416,0,13,,,,,5,,,60,100
67004,note_off,,,,,188,0,9,,,,,1,,,79,100
67004,note_off,,,,,32,0,13,,,,,5,,,64,100
67008,note_on,,,,,4,0,9,,,,,1,,,77,85
67036,note_off,,,,,32,0,13,,,,,5,,,67,100
67068,note_off,,,,,32,0,13,,,,,5,,,72,100
67136,note_off,,,,,128,0,9,,,,,1,,,77,100
67200,note_off,,,,,768,0,11,,,,,3,,,60,100
67200,note_off,,,,,768,0,12,,,,,4,,,48,100
67200,note_off,,,,,768,0,10,,,,,2,,,64,100
67200,note_off,,,,,768,0,14,,,,,5,,,60,100
67200,note_on,,,,,0,0,9,,,,,1,,,79,85
67200,note_off,,,,,64,0,9,,,,,1,,,76,100
67456,note_off,,,,,256,0,9,,,,,1,,,79,100
67580,program_change,,,,,380,0,11,,,,,3,42,,,
67584,note_on,,,,,4736,0,8,,,,,0,,,76,85
67584,note_on,,,,,4,0,11,,,,,3,,,60,85
67584,note_on,,,,,0,0,8,,,,,0,,,79,85
67840,note_off,,,,,256,0,8,,,,,0,,,76,100
67840,note_off,,,,,0,0,8,,,,,0,,,79,100
67968,note_on,,,,,0,0,8,,,,,0,,,80,85
67968,note_on,,,,,128,0,8,,,,,0,,,77,85
68096,note_off,,,,,512,0,11,,,,,3,,,60,100
68224,note_off,,,,,0,0,8,,,,,0,,,80,100
68224,note_off,,,,,256,0,8,,,,,0,,,77,100
68352,note_on,,,,,0,0,8,,,,,0,,,79,85
68352,note_on,,,,,128,0,8,,,,,0,,,76,85
68352,note_on,,,,,256,0,11,,,,,3,,,60,85
68608,note_off,,,,,256,0,11,,,,,3,,,60,100
68608,note_off,,,,,256,0,8,,,,,0,,,76,100
68608,note_off,,,,,0,0,8,,,,,0,,,79,100
68736,note_on,,,,,128,0,8,,,,,0,,,77,85
68736,note_on,,,,,0,0,8,,,,,0,,,80,85
68736,note_on,,,,,128,0,11,,,,,3,,,60,85
69248,note_off,,,,,0,0,8,,,,,0,,,80,100
69248,note_off,,,,,512,0,11,,,,,3,,,60,100
69248,note_off,,,,,512,0,8,,,,,0,,,77,100
69504,note_on,,,,,256,0,11,,,,,3,,,60,85
69504,note_on,,,,,256,0,8,,,,,0,,,76,85
69504,note_on,,,,,0,0,8,,,,,0,,,79,85
69760,note_off,,,,,256,0,11,,,,,3,,,60,100
69760,note_off,,,,,0,0,8,,,,,0,,,79,100
69760,note_off,,,,,256,0,8,,,,,0,,,76,100
69888,note_on,,,,,128,0,8,,,,,0,,,80,85
69888,note_on,,,,,0,0,8,,,,,0,,,77,85
69888,note_on,,,,,128,0,11,,,,,3,,,53,85
70144,note_off,,,,,256,0,8,,,,,0,,,80,100
70144,note_off,,,,,0,0,8,,,,,0,,,77,100
70144,note_off,,,,,256,0,11,,,,,3,,,53,100
70272,note_on,,,,,128,0,11,,,,,3,,,58,85
70272,note_on,,,,,128,0,8,,,,,0,,,73,85
70272,note_on,,,,,0,0,8,,,,,0,,,82,85
70400,note_off,,,,,128,0,8,,,,,0,,,82,100
70464,note_on,,,,,64,0,8,,,,,0,,,80,85
70592,note_off,,,,,128,0,8,,,,,0,,,80,100
70656,note_on,,,,,64,0,8,,,,,0,,,79,85
70784,note_off,,,,,512,0,11,,,,,3,,,58,100
70784,note_off,,,,,0,0,8,,,,,0,,,79,100
70784,note_off,,,,,128,0,8,,,,,0,,,73,100
70848,note_on,,,,,64,0,8,,,,,0,,,77,85
70976,note_off,,,,,128,0,8,,,,,0,,,77,100
71040,note_on,,,,,256,0,11,,,,,3,,,60,85
71040,note_on,,,,,0,0,8,,,,,0,,,67,85
71040,note_on,,,,,64,0,8,,,,,0,,,76,85
71168,note_off,,,,,128,0,8,,,,,0,,,76,100
71232,note_on,,,,,64,0,8,,,,,0,,,74,85
71360,note_off,,,,,128,0,8,,,,,0,,,74,100
71424,note_on,,,,,64,0,8,,,,,0,,,76,85
71552,note_off,,,,,512,0,11,,,,,3,,,60,100
71552,note_off,,,,,128,0,8,,,,,0,,,76,100
71616,note_on,,,,,64,0,8,,,,,0,,,74,85
71744,note_off,,,,,128,0,8,,,,,0,,,74,100
71808,note_on,,,,,256,0,11,,,,,3,,,48,85
71808,note_off,,,,,64,0,8,,,,,0,,,67,100
71808,note_on,,,,,0,0,8,,,,,0,,,72,85
72064,note_off,,,,,256,0,11,,,,,3,,,48,100
72064,note_off,,,,,256,0,8,,,,,0,,,72,100
72188,program_change,,,,,124,0,11,,,,,3,48,,,
72192,note_on,,,,,4736,0,9,,,,,1,,,77,85
72192,note_on,,,,,0,0,9,,,,,1,,,74,85
72192,note_on,,,,,4992,0,10,,,,,2,,,58,85
72192,note_on,,,,,4,0,11,,,,,3,,,58,85
72192,note_on,,,,,4992,0,14,,,,,5,,,58,100
72192,note_on,,,,,0,0,13,,,,,5,,,62,100
72192,note_on,,,,,4992,0,12,,,,,4,,,46,85
72192,note_on,,,,,5124,0,13,,,,,5,,,65,100
72448,note_off,,,,,256,0,9,,,,,1,,,77,100
72448,note_off,,,,,256,0,10,,,,,2,,,58,100
72448,note_off,,,,,0,0,9,,,,,1,,,74,100
72576,note_on,,,,,128,0,10,,,,,2,,,62,85
72576,note_on,,,,,128,0,9,,,,,1,,,79,85
72576,note_on,,,,,0,0,9,,,,,1,,,82,85
72960,note_off,,,,,768,0,12,,,,,4,,,46,100
72960,note_off,,,,,0,0,13,,,,,5,,,62,100
72960,note_off,,,,,768,0,11,,,,,3,,,58,100
72960,note_off,,,,,768,0,13,,,,,5,,,65,100
72960,note_off,,,,,768,0,14,,,,,5,,,58,100
73088,note_off,,,,,0,0,9,,,,,1,,,82,100
73088,note_off,,,,,512,0,9,,,,,1,,,79,100
73088,note_off,,,,,512,0,10,,,,,2,,,62,100
73344,note_on,,,,,256,0,9,,,,,1,,,76,85
73344,note_on,,,,,384,0,14,,,,,5,,,58,100
73344,note_on,,,,,384,0,11,,,,,3,,,58,85
73344,note_on,,,,,0,0,9,,,,,1,,,79,85
73344,note_on,,,,,384,0,12,,,,,4,,,46,85
73344,note_on,,,,,0,0,13,,,,,5,,,64,100
73344,note_on,,,,,256,0,10,,,,,2,,,67,85
73344,note_on,,,,,384,0,13,,,,,5,,,67,100
73600,note_off,,,,,256,0,13,,,,,5,,,67,100
73600,note_off,,,,,0,0,13,,,,,5,,,64,100
73600,note_off,,,,,256,0,14,,,,,5,,,58,100
73600,note_off,,,,,256,0,9,,,,,1,,,76,100
73600,note_off,,,,,0,0,9,,,,,1,,,79,100
73600,note_off,,,,,256,0,11,,,,,3,,,58,100
73600,note_off,,,,,256,0,12,,,,,4,,,46,100
73600,note_off,,,,,256,0,10,,,,,2,,,67,100
73728,note_on,,,,,128,0,14,,,,,5,,,57,100
73728,note_on,,,,,128,0,12,,,,,4,,,45,85
73728,note_on,,,,,128,0,10,,,,,2,,,65,85
73728,note_on,,,,,128,0,11,,,,,3,,,57,85
73728,note_on,,,,,128,0,9,,,,,1,,,77,85
73728,note_on,,,,,0,0,13,,,,,5,,,60,100
73728,note_on,,,,,128,0,13,,,,,5,,,65,100
73728,note_on,,,,,0,0,9,,,,,1,,,84,85
73984,note_off,,,,,256,0,11,,,,,3,,,57,100
73984,note_off,,,,,256,0,12,,,,,4,,,45,100
73984,note_off,,,,,0,0,13,,,,,5,,,60,100
73984,note_off,,,,,256,0,10,,,,,2,,,65,100
73984,note_off,,,,,256,0,14,,,,,5,,,57,100
73984,note_off,,,,,256,0,13,,,,,5,,,65,100
73984,note_off,,,,,256,0,9,,,,,1,,,84,100
74112,note_off,,,,,128,0,9,,,,,1,,,77,100
74112,note_on,,,,,0,0,9,,,,,1,,,77,85
74112,note_on,,,,,128,0,10,,,,,2,,,62,85
74112,note_on,,,,,128,0,14,,,,,5,,,58,100
74112,note_on,,,,,128,0,12,,,,,4,,,46,85
74112,note_on,,,,,128,0,11,,,,,3,,,58,85
74112,note_on,,,,,0,0,13,,,,,5,,,65,100
74112,note_on,,,,,128,0,13,,,,,5,,,62,100
74304,note_on,,,,,192,0,9,,,,,1,,,82,85
74368,note_off,,,,,256,0,14,,,,,5,,,58,100
74368,note_off,,,,,0,0,13,,,,,5,,,65,100
74368,note_off,,,,,256,0,12,,,,,4,,,46,100
74368,note_off,,,,,256,0,11,,,,,3,,,58,100
74368,note_off,,,,,256,0,13,,,,,5,,,62,100
74368,note_off,,,,,256,0,10,,,,,2,,,62,100
74432,note_off,,,,,128,0,9,,,,,1,,,82,100
74496,note_on,,,,,128,0,12,,,,,4,,,48,85
74496,note_on,,,,,128,0,13,,,,,5,,,69,100
74496,note_on,,,,,0,0,13,,,,,5,,,65,100
74496,note_on,,,,,128,0,10,,,,,2,,,60,85
74496,note_on,,,,,128,0,11,,,,,3,,,60,85
74496,note_on,,,,,64,0,9,,,,,1,,,81,85
74496,note_on,,,,,128,0,14,,,,,5,,,60,100
74624,note_off,,,,,128,0,9,,,,,1,,,77,100
74752,note_off,,,,,0,0,13,,,,,5,,,65,100
74752,note_off,,,,,256,0,11,,,,,3,,,60,100
74752,note_off,,,,,256,0,14,,,,,5,,,60,100
74752,note_off,,,,,256,0,12,,,,,4,,,48,100
74752,note_off,,,,,256,0,13,,,,,5,,,69,100
74752,note_off,,,,,128,0,9,,,,,1,,,81,100
74880,note_on,,,,,128,0,13,,,,,5,,,64,100
74880,note_on,,,,,0,0,9,,,,,1,,,79,85
74880,note_on,,,,,128,0,9,,,,,1,,,76,85
74880,note_on,,,,,128,0,14,,,,,5,,,48,100
74880,note_on,,,,,128,0,11,,,,,3,,,48,85
74880,note_on,,,,,0,0,13,,,,,5,,,67,100
74880,note_on,,,,,128,0,12,,,,,4,,,36,85
74972,note_off,,,,,0,0,9,,,,,1,,,79,100
74972,note_off,,,,,92,0,9,,,,,1,,,76,100
74976,note_on,,,,,4,0,9,,,,,1,,,77,85
74976,note_on,,,,,0,0,9,,,,,1,,,81,85
75008,note_off,,,,,512,0,10,,,,,2,,,60,100
75068,note_off,,,,,92,0,9,,,,,1,,,77,100
75068,note_off,,,,,0,0,9,,,,,1,,,81,100
75072,note_on,,,,,4,0,9,,,,,1,,,76,85
75072,note_on,,,,,0,0,9,,,,,1,,,79,85
75116,note_off,,,,,44,0,9,,,,,1,,,76,100
75116,note_off,,,,,0,0,9,,,,,1,,,79,100
75120,note_on,,,,,4,0,9,,,,,1,,,77,85
75120,note_on,,,,,0,0,9,,,,,1,,,81,85
75164,note_off,,,,,0,0,9,,,,,1,,,81,100
75164,note_off,,,,,44,0,9,,,,,1,,,77,100
75168,note_on,,,,,0,0,9,,,,,1,,,79,85
75168,note_on,,,,,4,0,9,,,,,1,,,76,85
75212,note_off,,,,,0,0,9,,,,,1,,,79,100
75212,note_off,,,,,44,0,9,,,,,1,,,76,100
75216,note_on,,,,,0,0,9,,,,,1,,,81,85
75216,note_on,,,,,4,0,9,,,,,1,,,77,85
75260,note_off,,,,,0,0,9,,,,,1,,,81,100
75260,note_off,,,,,44,0,9,,,,,1,,,77,100
75264,note_on,,,,,0,0,9,,,,,1,,,79,85
75264,note_on,,,,,256,0,10,,,,,2,,,60,85
75264,note_on,,,,,4,0,9,,,,,1,,,76,85
75392,note_off,,,,,512,0,13,,,,,5,,,64,100
75392,note_off,,,,,512,0,12,,,,,4,,,36,100
75392,note_off,,,,,512,0,11,,,,,3,,,48,100
75392,note_off,,,,,0,0,13,,,,,5,,,67,100
75392,note_off,,,,,512,0,14,,,,,5,,,48,100
75520,note_off,,,,,0,0,9,,,,,1,,,79,100
75520,note_off,,,,,256,0,9,,,,,1,,,76,100
75520,note_off,,,,,256,0,10,,,,,2,,,60,100
75648,note_on,,,,,128,0,10,,,,,2,,,57,85
75648,note_on,,,,,128,0,9,,,,,1,,,77,85
75648,note_on,,,,,256,0,11,,,,,3,,,53,85
75648,note_on,,,,,256,0,12,,,,,4,,,41,85
75648,note_on,,,,,256,0,14,,,,,5,,,53,100
75676,note_on,,,,,284,0,13,,,,,5,,,65,100
75708,note_on,,,,,32,0,13,,,,,5,,,69,100
75744,note_on,,,,,36,0,13,,,,,5,,,72,100
76416,note_off,,,,,768,0,14,,,,,5,,,53,100
76416,note_off,,,,,768,0,12,,,,,4,,,41,100
76416,note_off,,,,,768,0,9,,,,,1,,,77,100
76416,note_off,,,,,768,0,10,,,,,2,,,57,100
76416,note_off,,,,,768,0,11,,,,,3,,,53,100
76444,note_off,,,,,700,0,13,,,,,5,,,65,100
76476,note_off,,,,,32,0,13,,,,,5,,,69,100
76512,note_off,,,,,36,0,13,,,,,5,,,72,100
76796,program_change,,,,,380,0,11,,,,,3,42,,,
76800,note_on,,,,,0,0,8,,,,,0,,,79,70
76800,note_on,,,,,4736,0,8,,,,,0,,,76,70
76800,note_on,,,,,4,0,11,,,,,3,,,60,70
77056,note_off,,,,,256,0,8,,,,,0,,,76,100
77056,note_off,,,,,0,0,8,,,,,0,,,79,100
77184,note_on,,,,,0,0,8,,,,,0,,,80,70
77184,note_on,,,,,128,0,8,,,,,0,,,77,70
77312,note_off,,,,,512,0,11,,,,,3,,,60,100
77440,note_off,,,,,0,0,8,,,,,0,,,80,100
77440,note_off,,,,,256,0,8,,,,,0,,,77,100
77568,note_on,,,,,0,0,8,,,,,0,,,79,70
77568,note_on,,,,,256,0,11,,,,,3,,,60,70
77568,note_on,,,,,128,0,8,,,,,0,,,76,70
77824,note_off,,,,,256,0,8,,,,,0,,,76,100
77824,note_off,,,,,0,0,8,,,,,0,,,79,100
77824,note_off,,,,,256,0,11,,,,,3,,,60,100
77952,note_on,,,,,0,0,8,,,,,0,,,80,70
77952,note_on,,,,,128,0,11,,,,,3,,,60,70
77952,note_on,,,,,128,0,8,,,,,0,,,77,70
78464,note_off,,,,,512,0,11,,,,,3,,,60,100
78464,note_off,,,,,0,0,8,,,,,0,,,80,100
78464,note_off,,,,,512,0,8,,,,,0,,,77,100
78720,note_on,,,,,256,0,11,,,,,3,,,60,70
78720,note_on,,,,,256,0,8,,,,,0,,,76,70
78720,note_on,,,,,0,0,8,,,,,0,,,79,70
78976,note_off,,,,,256,0,8,,,,,0,,,76,100
78976,note_off,,,,,0,0,8,,,,,0,,,79,100
78976,note_off,,,,,256,0,11,,,,,3,,,60,100
79104,note_on,,,,,128,0,11,,,,,3,,,53,70
79104,note_on,,,,,0,0,8,,,,,0,,,77,70
79104,note_on,,,,,128,0,8,,,,,0,,,80,70
79360,note_off,,,,,256,0,11,,,,,3,,,53,100
79360,note_off,,,,,0,0,8,,,,,0,,,77,100
79360,note_off,,,,,256,0,8,,,,,0,,,80,100
79488,note_on,,,,,0,0,8,,,,,0,,,82,70
79488,note_on,,,,,128,0,8,,,,,0,,,73,70
79488,note_on,,,,,128,0,11,,,,,3,,,58,70
79616,note_off,,,,,128,0,8,,,,,0,,,82,100
79680,note_on,,,,,64,0,8,,,,,0,,,80,70
79808,note_off,,,,,128,0,8,,,,,0,,,80,100
79872,note_on,,,,,64,0,8,,,,,0,,,79,70
80000,note_off,,,,,128,0,8,,,,,0,,,73,100
80000,note_off,,,,,0,0,8,,,,,0,,,79,100
80000,note_off,,,,,512,0,11,,,,,3,,,58,100
80064,note_on,,,,,64,0,8,,,,,0,,,77,70
80192,note_off,,,,,128,0,8,,,,,0,,,77,100
80256,note_on,,,,,64,0,8,,,,,0,,,76,70
80256,note_on,,,,,0,0,8,,,,,0,,,67,70
80256,note_on,,,,,256,0,11,,,,,3,,,60,70
80384,note_off,,,,,128,0,8,,,,,0,,,76,100
80448,note_on,,,,,64,0,8,,,,,0,,,74,70
80576,note_off,,,,,128,0,8,,,,,0,,,74,100
80640,note_on,,,,,64,0,8,,,,,0,,,76,70
80768,note_off,,,,,128,0,8,,,,,0,,,76,100
80768,note_off,,,,,512,0,11,,,,,3,,,60,100
80832,note_on,,,,,64,0,8,,,,,0,,,74,70
80960,note_off,,,,,128,0,8,,,,,0,,,74,100
81024,note_off,,,,,64,0,8,,,,,0,,,67,100
81024,note_on,,,,,256,0,11,,,,,3,,,48,70
81024,note_on,,,,,0,0,8,,,,,0,,,72,70
81280,note_off,,,,,256,0,8,,,,,0,,,72,100
81280,note_off,,,,,256,0,11,,,,,3,,,48,100
81404,program_change,,,,,124,0,11,,,,,3,48,,,
81408,note_on,,,,,4896,0,13,,,,,5,,,65,100
81408,note_on,,,,,4992,0,14,,,,,5,,,58,100
81408,note_on,,,,,4992,0,9,,,,,1,,,77,70
81408,set_tempo,,,,,73728,1,0,,285714,,,,,,,
81408,note_on,,,,,0,0,9,,,,,1,,,74,70
81408,note_on,,,,,0,0,13,,,,,5,,,62,100
81408,note_on,,,,,4992,0,12,,,,,4,,,46,70
81408,note_on,,,,,4992,0,10,,,,,2,,,58,70
81408,note_on,,,,,4,0,11,,,,,3,,,58,70
81664,note_off,,,,,256,0,9,,,,,1,,,77,100
81664,note_off,,,,,256,0,10,,,,,2,,,58,100
81664,note_off,,,,,0,0,9,,,,,1,,,74,100
81752,set_tempo,,,,,344,1,0,,287081,,,,,,,
81792,note_on,,,,,128,0,9,,,,,1,,,79,70
81792,note_on,,,,,0,0,9,,,,,1,,,82,70
81792,note_on,,,,,128,0,10,,,,,2,,,62,70
82096,set_tempo,,,,,344,1,0,,288461,,,,,,,
82176,note_off,,,,,768,0,11,,,,,3,,,58,100
82176,note_off,,,,,768,0,12,,,,,4,,,46,100
82176,note_off,,,,,768,0,14,,,,,5,,,58,100
82176,note_off,,,,,768,0,13,,,,,5,,,65,100
82176,note_off,,,,,0,0,13,,,,,5,,,62,100
82304,note_off,,,,,512,0,9,,,,,1,,,79,100
82304,note_off,,,,,0,0,9,,,,,1,,,82,100
82304,note_off,,,,,512,0,10,,,,,2,,,62,100
82444,set_tempo,,,,,348,1,0,,289855,,,,,,,
82560,note_on,,,,,0,0,13,,,,,5,,,64,100
82560,note_on,,,,,384,0,13,,,,,5,,,67,100
82560,note_on,,,,,384,0,12,,,,,4,,,46,70
82560,note_on,,,,,256,0,10,,,,,2,,,67,70
82560,note_on,,,,,384,0,14,,,,,5,,,58,100
82560,note_on,,,,,0,0,9,,,,,1,,,79,70
82560,note_on,,,,,384,0,11,,,,,3,,,58,70
82560,note_on,,,,,256,0,9,,,,,1,,,76,70
82788,set_tempo,,,,,344,1,0,,291262,,,,,,,
82816,note_off,,,,,256,0,11,,,,,3,,,58,100
82816,note_off,,,,,256,0,9,,,,,1,,,76,100
82816,note_off,,,,,0,0,9,,,,,1,,,79,100
82816,note_off,,,,,256,0,10,,,,,2,,,67,100
82816,note_off,,,,,256,0,12,,,,,4,,,46,100
82816,note_off,,,,,0,0,13,,,,,5,,,64,100
82816,note_off,,,,,256,0,13,,,,,5,,,67,100
82816,note_off,,,,,256,0,14,,,,,5,,,58,100
82944,note_on,,,,,128,0,10,,,,,2,,,65,70
82944,note_on,,,,,128,0,11,,,,,3,,,57,70
82944,note_on,,,,,0,0,9,,,,,1,,,84,70
82944,note_on,,,,,0,0,13,,,,,5,,,60,100
82944,note_on,,,,,128,0,13,,,,,5,,,65,100
82944,note_on,,,,,128,0,12,,,,,4,,,45,70
82944,note_on,,,,,128,0,9,,,,,1,,,77,70
82944,note_on,,,,,128,0,14,,,,,5,,,57,100
83136,set_tempo,,,,,348,1,0,,292682,,,,,,,
83200,note_off,,,,,256,0,10,,,,,2,,,65,100
83200,note_off,,,,,256,0,12,,,,,4,,,45,100
83200,note_off,,,,,256,0,11,,,,,3,,,57,100
83200,note_off,,,,,256,0,9,,,,,1,,,84,100
83200,note_off,,,,,256,0,13,,,,,5,,,65,100
83200,note_off,,,,,0,0,13,,,,,5,,,60,100
83200,note_off,,,,,256,0,14,,,,,5,,,57,100
83328,note_on,,,,,128,0,12,,,,,4,,,46,70
83328,note_on,,,,,0,0,13,,,,,5,,,65,100
83328,note_on,,,,,0,0,9,,,,,1,,,77,70
83328,note_on,,,,,128,0,14,,,,,5,,,58,100
83328,note_on,,,,,128,0,11,,,,,3,,,58,70
83328,note_on,,,,,128,0,13,,,,,5,,,62,100
83328,note_on,,,,,128,0,10,,,,,2,,,62,70
83328,note_off,,,,,128,0,9,,,,,1,,,77,100
83480,set_tempo,,,,,344,1,0,,294117,,,,,,,
83520,note_on,,,,,192,0,9,,,,,1,,,82,70
83584,note_off,,,,,256,0,11,,,,,3,,,58,100
83584,note_off,,,,,256,0,13,,,,,5,,,62,100
83584,note_off,,,,,256,0,14,,,,,5,,,58,100
83584,note_off,,,,,256,0,10,,,,,2,,,62,100
83584,note_off,,,,,256,0,12,,,,,4,,,46,100
83584,note_off,,,,,0,0,13,,,,,5,,,65,100
83648,note_off,,,,,128,0,9,,,,,1,,,82,100
83712,note_on,,,,,128,0,13,,,,,5,,,69,100
83712,note_on,,,,,64,0,9,,,,,1,,,81,70
83712,note_on,,,,,128,0,14,,,,,5,,,60,100
83712,note_on,,,,,0,0,13,,,,,5,,,65,100
83712,note_on,,,,,128,0,11,,,,,3,,,60,70
83712,note_on,,,,,128,0,10,,,,,2,,,60,70
83712,note_on,,,,,128,0,12,,,,,4,,,48,70
83824,set_tempo,,,,,344,1,0,,295566,,,,,,,
83840,note_off,,,,,128,0,9,,,,,1,,,77,100
83968,note_off,,,,,256,0,11,,,,,3,,,60,100
83968,note_off,,,,,0,0,13,,,,,5,,,65,100
83968,note_off,,,,,128,0,9,,,,,1,,,81,100
83968,note_off,,,,,256,0,14,,,,,5,,,60,100
83968,note_off,,,,,256,0,12,,,,,4,,,48,100
83968,note_off,,,,,256,0,13,,,,,5,,,69,100
84096,note_on,,,,,128,0,9,,,,,1,,,76,70
84096,note_on,,,,,0,0,13,,,,,5,,,67,100
84096,note_on,,,,,128,0,11,,,,,3,,,48,70
84096,note_on,,,,,128,0,12,,,,,4,,,36,70
84096,note_on,,,,,128,0,14,,,,,5,,,48,100
84096,note_on,,,,,0,0,9,,,,,1,,,79,70
84096,note_on,,,,,128,0,13,,,,,5,,,64,100
84172,set_tempo,,,,,348,1,0,,297029,,,,,,,
84188,note_off,,,,,0,0,9,,,,,1,,,79,100
84188,note_off,,,,,92,0,9,,,,,1,,,76,100
84192,note_on,,,,,0,0,9,,,,,1,,,81,70
84192,note_on,,,,,4,0,9,,,,,1,,,77,70
84224,note_off,,,,,512,0,10,,,,,2,,,60,100
84284,note_off,,,,,0,0,9,,,,,1,,,81,100
84284,note_off,,,,,92,0,9,,,,,1,,,77,100
84288,note_on,,,,,0,0,9,,,,,1,,,79,70
84288,note_on,,,,,4,0,9,,,,,1,,,76,70
84332,note_off,,,,,0,0,9,,,,,1,,,79,100
84332,note_off,,,,,44,0,9,,,,,1,,,76,100
84336,note_on,,,,,0,0,9,,,,,1,,,81,70
84336,note_on,,,,,4,0,9,,,,,1,,,77,70
84380,note_off,,,,,0,0,9,,,,,1,,,81,100
84380,note_off,,,,,44,0,9,,,,,1,,,77,100
84384,note_on,,,,,0,0,9,,,,,1,,,79,70
84384,note_on,,,,,4,0,9,,,,,1,,,76,70
84428,note_off,,,,,0,0,9,,,,,1,,,79,100
84428,note_off,,,,,44,0,9,,,,,1,,,76,100
84432,note_on,,,,,0,0,9,,,,,1,,,81,70
84432,note_on,,,,,4,0,9,,,,,1,,,77,70
84476,note_off,,,,,44,0,9,,,,,1,,,77,100
84476,note_off,,,,,0,0,9,,,,,1,,,81,100
84480,note_on,,,,,4,0,9,,,,,1,,,76,70
84480,note_on,,,,,0,0,9,,,,,1,,,79,70
84480,note_on,,,,,256,0,10,,,,,2,,,60,70
84516,set_tempo,,,,,344,1,0,,298507,,,,,,,
84608,note_off,,,,,0,0,13,,,,,5,,,67,100
84608,note_off,,,,,512,0,14,,,,,5,,,48,100
84608,note_off,,,,,512,0,11,,,,,3,,,48,100
84608,note_off,,,,,512,0,13,,,,,5,,,64,100
84608,note_off,,,,,512,0,12,,,,,4,,,36,100
84736,note_off,,,,,256,0,10,,,,,2,,,60,100
84736,note_off,,,,,0,0,9,,,,,1,,,79,100
84736,note_off,,,,,256,0,9,,,,,1,,,76,100
84864,note_on,,,,,128,0,10,,,,,2,,,57,70
84864,note_on,,,,,256,0,11,,,,,3,,,53,70
84864,note_on,,,,,128,0,9,,,,,1,,,77,70
84864,note_on,,,,,256,0,12,,,,,4,,,41,70
84864,note_on,,,,,256,0,14,,,,,5,,,53,100
84864,set_tempo,,,,,348,1,0,,300000,,,,,,,
84892,note_on,,,,,284,0,13,,,,,5,,,65,100
84924,note_on,,,,,32,0,13,,,,,5,,,69,100
84960,note_on,,,,,36,0,13,,,,,5,,,72,100
85248,note_on,,,,,384,0,9,,,,,1,,,69,100
85632,note_on,,,,,0,0,13,,,,,5,,,69,100
85632,note_on,,,,,672,0,13,,,,,5,,,72,100
85632,note_on,,,,,0,0,10,,,,,2,,,65,100
85632,note_off,,,,,768,0,10,,,,,2,,,57,100
85632,note_on,,,,,0,0,11,,,,,3,,,53,100
85632,note_off,,,,,384,0,9,,,,,1,,,77,100
85632,note_on,,,,,0,0,14,,,,,5,,,53,100
85632,note_off,,,,,768,0,14,,,,,5,,,53,100
85632,note_off,,,,,768,0,12,,,,,4,,,41,100
85632,note_on,,,,,0,0,12,,,,,4,,,41,100
85632,note_off,,,,,768,0,11,,,,,3,,,53,100
85632,note_on,,,,,0,0,9,,,,,1,,,72,100
85660,note_off,,,,,28,0,13,,,,,5,,,65,100
85692,note_off,,,,,32,0,13,,,,,5,,,69,100
85728,note_off,,,,,36,0,13,,,,,5,,,72,100
85760,note_off,,,,,0,0,13,,,,,5,,,69,100
85760,note_off,,,,,32,0,13,,,,,5,,,72,100
85804,note_off,,,,,172,0,12,,,,,4,,,41,100
85804,note_off,,,,,172,0,14,,,,,5,,,53,100
85804,note_off,,,,,172,0,11,,,,,3,,,53,100
85824,note_on,,,,,20,0,11,,,,,3,,,52,100
85824,note_on,,,,,0,0,13,,,,,5,,,70,100
85824,note_on,,,,,20,0,14,,,,,5,,,52,100
85824,note_on,,,,,64,0,13,,,,,5,,,67,100
85824,note_on,,,,,20,0,12,,,,,4,,,40,100
85888,note_off,,,,,256,0,9,,,,,1,,,72,100
85952,note_off,,,,,128,0,13,,,,,5,,,67,100
85952,note_off,,,,,0,0,13,,,,,5,,,70,100
85996,note_off,,,,,172,0,12,,,,,4,,,40,100
85996,note_off,,,,,172,0,14,,,,,5,,,52,100
85996,note_off,,,,,172,0,11,,,,,3,,,52,100
86016,note_on,,,,,20,0,11,,,,,3,,,50,100
86016,note_on,,,,,20,0,14,,,,,5,,,50,100
86016,note_on,,,,,64,0,13,,,,,5,,,58,100
86016,note_on,,,,,0,0,13,,,,,5,,,69,100
86016,note_on,,,,,128,0,9,,,,,1,,,70,100
86016,note_on,,,,,20,0,12,,,,,4,,,38,100
86272,note_off,,,,,256,0,13,,,,,5,,,58,100
86272,note_off,,,,,0,0,13,,,,,5,,,69,100
86284,note_off,,,,,268,0,9,,,,,1,,,69,100
86320,note_off,,,,,688,0,10,,,,,2,,,65,100
86360,note_off,,,,,344,0,11,,,,,3,,,50,100
86360,note_off,,,,,344,0,12,,,,,4,,,38,100
86360,note_off,,,,,344,0,14,,,,,5,,,50,100
86400,note_on,,,,,40,0,12,,,,,4,,,40,100
86400,note_on,,,,,80,0,10,,,,,2,,,60,100
86400,note_on,,,,,40,0,14,,,,,5,,,52,100
86400,note_on,,,,,128,0,13,,,,,5,,,67,100
86400,note_on,,,,,0,0,13,,,,,5,,,58,100
86400,note_on,,,,,40,0,11,,,,,3,,,52,100
86400,note_on,,,,,116,0,9,,,,,1,,,67,100
86656,note_off,,,,,256,0,13,,,,,5,,,67,100
86656,note_off,,,,,0,0,13,,,,,5,,,58,100
86704,note_off,,,,,304,0,9,,,,,1,,,70,100
86744,note_off,,,,,344,0,14,,,,,5,,,52,100
86744,note_off,,,,,344,0,11,,,,,3,,,52,100
86744,note_off,,,,,344,0,12,,,,,4,,,40,100
86784,note_on,,,,,128,0,13,,,,,5,,,57,100
86784,note_on,,,,,80,0,9,,,,,1,,,69,100
86784,note_on,,,,,40,0,11,,,,,3,,,53,100
86784,note_on,,,,,40,0,14,,,,,5,,,53,100
86784,note_on,,,,,0,0,13,,,,,5,,,67,100
86784,note_on,,,,,40,0,12,,,,,4,,,41,100
86784,set_tempo,,,,,1920,1,0,,285714,,,,,,,
86880,set_tempo,,,,,96,1,0,,287081,,,,,,,
86976,set_tempo,,,,,96,1,0,,288461,,,,,,,
87040,note_off,,,,,0,0,13,,,,,5,,,67,100
87040,note_off,,,,,256,0,13,,,,,5,,,57,100
87072,set_tempo,,,,,96,1,0,,289855,,,,,,,
87088,note_off,,,,,304,0,9,,,,,1,,,67,100
87088,note_off,,,,,688,0,10,,,,,2,,,60,100
87128,note_off,,,,,344,0,12,,,,,4,,,41,100
87128,note_off,,,,,344,0,11,,,,,3,,,53,100
87128,note_off,,,,,344,0,14,,,,,5,,,53,100
87168,note_on,,,,,80,0,9,,,,,1,,,65,100
87168,note_on,,,,,80,0,10,,,,,2,,,62,100
87168,note_on,,,,,40,0,11,,,,,3,,,46,100
87168,note_on,,,,,40,0,12,,,,,4,,,34,100
87168,note_on,,,,,128,0,13,,,,,5,,,65,100
87168,note_on,,,,,0,0,13,,,,,5,,,69,100
87168,note_on,,,,,40,0,14,,,,,5,,,46,100
87168,set_tempo,,,,,96,1,0,,291262,,,,,,,
87264,set_tempo,,,,,96,1,0,,292682,,,,,,,
87360,set_tempo,,,,,96,1,0,,294117,,,,,,,
87424,note_off,,,,,0,0,13,,,,,5,,,69,100
87424,note_off,,,,,256,0,13,,,,,5,,,65,100
87456,set_tempo,,,,,96,1,0,,295566,,,,,,,
87472,note_off,,,,,304,0,9,,,,,1,,,69,100
87512,note_off,,,,,344,0,12,,,,,4,,,34,100
87512,note_off,,,,,344,0,10,,,,,2,,,62,100
87512,note_off,,,,,344,0,11,,,,,3,,,46,100
87512,note_off,,,,,344,0,14,,,,,5,,,46,100
87552,set_tempo,,,,,96,1,0,,297029,,,,,,,
87552,note_on,,,,,40,0,11,,,,,3,,,48,100
87552,note_on,,,,,0,0,13,,,,,5,,,67,100
87552,note_on,,,,,40,0,14,,,,,5,,,48,100
87552,note_on,,,,,40,0,12,,,,,4,,,36,100
87552,note_on,,,,,128,0,13,,,,,5,,,65,100
87552,note_on,,,,,80,0,9,,,,,1,,,67,100
87552,note_on,,,,,40,0,10,,,,,2,,,55,100
87648,set_tempo,,,,,96,1,0,,298507,,,,,,,
87744,set_tempo,,,,,96,1,0,,300000,,,,,,,
87840,set_tempo,,,,,96,1,0,,301507,,,,,,,
87856,note_off,,,,,304,0,9,,,,,1,,,65,100
87896,note_off,,,,,344,0,10,,,,,2,,,55,100
87936,note_on,,,,,80,0,9,,,,,1,,,64,100
87936,set_tempo,,,,,96,1,0,,303030,,,,,,,
87936,note_on,,,,,40,0,10,,,,,2,,,60,100
88032,set_tempo,,,,,96,1,0,,304568,,,,,,,
88064,note_off,,,,,512,0,13,,,,,5,,,65,100
88064,note_off,,,,,0,0,13,,,,,5,,,67,100
88128,set_tempo,,,,,96,1,0,,306122,,,,,,,
88224,set_tempo,,,,,96,1,0,,307692,,,,,,,
88240,note_off,,,,,304,0,9,,,,,1,,,67,100
88240,note_off,,,,,688,0,14,,,,,5,,,48,100
88240,note_off,,,,,688,0,11,,,,,3,,,48,100
88240,note_off,,,,,688,0,12,,,,,4,,,36,100
88280,note_off,,,,,40,0,9,,,,,1,,,64,100
88280,note_off,,,,,344,0,10,,,,,2,,,60,100
88320,note_on,,,,,40,0,9,,,,,1,,,65,100
88320,note_on,,,,,80,0,12,,,,,4,,,41,100
88320,note_on,,,,,80,0,14,,,,,5,,,41,100
88320,note_on,,,,,80,0,11,,,,,3,,,41,100
88320,note_on,,,,,256,0,13,,,,,5,,,65,100
88320,note_on,,,,,0,0,13,,,,,5,,,69,100
88320,set_tempo,,,,,96,1,0,,309278,,,,,,,
88320,note_on,,,,,40,0,10,,,,,2,,,57,100
88416,set_tempo,,,,,96,1,0,,310880,,,,,,,
88512,set_tempo,,,,,96,1,0,,312500,,,,,,,
88608,set_tempo,,,,,96,1,0,,314136,,,,,,,
88664,note_off,,,,,344,0,9,,,,,1,,,65,100
88704,note_on,,,,,40,0,9,,,,,1,,,77,100
88704,set_tempo,,,,,96,1,0,,333333,,,,,,,
88780,set_tempo,,,,,76,1,0,,335195,,,,,,,
88832,note_off,,,,,0,0,13,,,,,5,,,69,100
88832,note_off,,,,,512,0,13,,,,,5,,,65,100
88856,set_tempo,,,,,76,1,0,,337078,,,,,,,
88932,set_tempo,,,,,76,1,0,,338983,,,,,,,
89008,note_off,,,,,688,0,10,,,,,2,,,57,100
89008,set_tempo,,,,,76,1,0,,340909,,,,,,,
89008,note_off,,,,,688,0,12,,,,,4,,,41,100
89008,note_off,,,,,688,0,14,,,,,5,,,41,100
89008,note_off,,,,,688,0,11,,,,,3,,,41,100
89088,set_tempo,,,,,80,1,0,,342857,,,,,,,
89088,note_on,,,,,80,0,12,,,,,4,,,41,100
89088,note_on,,,,,80,0,14,,,,,5,,,53,100
89088,note_on,,,,,384,0,9,,,,,1,,,69,100
89088,note_on,,,,,80,0,11,,,,,3,,,53,100
89088,note_on,,,,,0,0,13,,,,,5,,,69,100
89088,note_on,,,,,80,0,10,,,,,2,,,60,100
89088,note_on,,,,,256,0,13,,,,,5,,,72,100
89164,set_tempo,,,,,76,1,0,,344827,,,,,,,
89240,set_tempo,,,,,76,1,0,,346820,,,,,,,
89316,set_tempo,,,,,76,1,0,,348837,,,,,,,
89344,note_off,,,,,256,0,13,,,,,5,,,72,100
89344,note_off,,,,,0,0,13,,,,,5,,,69,100
89392,set_tempo,,,,,76,1,0,,350877,,,,,,,
89432,note_off,,,,,344,0,10,,,,,2,,,60,100
89432,note_off,,,,,344,0,9,,,,,1,,,69,100
89432,note_off,,,,,344,0,11,,,,,3,,,53,100
89432,note_off,,,,,344,0,12,,,,,4,,,41,100
89432,note_off,,,,,344,0,14,,,,,5,,,53,100
89472,note_on,,,,,40,0,10,,,,,2,,,62,100
89472,note_on,,,,,128,0,13,,,,,5,,,77,100
89472,note_on,,,,,40,0,11,,,,,3,,,58,100
89472,set_tempo,,,,,80,1,0,,352941,,,,,,,
89472,note_on,,,,,40,0,12,,,,,4,,,46,100
89472,note_on,,,,,40,0,9,,,,,1,,,67,100
89472,note_on,,,,,40,0,14,,,,,5,,,58,100
89472,note_on,,,,,0,0,13,,,,,5,,,67,100
89548,set_tempo,,,,,76,1,0,,355029,,,,,,,
89624,set_tempo,,,,,76,1,0,,357142,,,,,,,
89700,set_tempo,,,,,76,1,0,,359281,,,,,,,
89728,note_off,,,,,256,0,13,,,,,5,,,77,100
89728,note_off,,,,,0,0,13,,,,,5,,,67,100
89740,note_off,,,,,268,0,9,,,,,1,,,77,100
89776,set_tempo,,,,,76,1,0,,361445,,,,,,,
89816,note_off,,,,,344,0,11,,,,,3,,,58,100
89816,note_off,,,,,344,0,10,,,,,2,,,62,100
89816,note_off,,,,,344,0,14,,,,,5,,,58,100
89816,note_off,,,,,344,0,12,,,,,4,,,46,100
89856,set_tempo,,,,,80,1,0,,375000,,,,,,,
89856,note_on,,,,,40,0,10,,,,,2,,,60,100
89856,note_on,,,,,0,0,13,,,,,5,,,67,100
89856,note_on,,,,,128,0,13,,,,,5,,,76,100
89856,note_on,,,,,40,0,14,,,,,5,,,60,100
89856,note_on,,,,,116,0,9,,,,,1,,,76,100
89856,note_on,,,,,40,0,11,,,,,3,,,60,100
89856,note_on,,,,,40,0,12,,,,,4,,,48,100
89872,set_tempo,,,,,16,1,0,,377358,,,,,,,
89892,set_tempo,,,,,20,1,0,,379746,,,,,,,
89912,set_tempo,,,,,20,1,0,,382165,,,,,,,
89932,set_tempo,,,,,20,1,0,,384615,,,,,,,
89952,set_tempo,,,,,20,1,0,,387096,,,,,,,
89968,set_tempo,,,,,16,1,0,,389610,,,,,,,
89988,set_tempo,,,,,20,1,0,,392156,,,,,,,
90008,set_tempo,,,,,20,1,0,,394736,,,,,,,
90028,set_tempo,,,,,20,1,0,,397350,,,,,,,
90048,set_tempo,,,,,20,1,0,,400000,,,,,,,
90064,set_tempo,,,,,16,1,0,,402684,,,,,,,
90084,set_tempo,,,,,20,1,0,,405405,,,,,,,
90104,set_tempo,,,,,20,1,0,,408163,,,,,,,
90112,note_off,,,,,0,0,13,,,,,5,,,67,100
90112,note_off,,,,,256,0,13,,,,,5,,,76,100
90124,set_tempo,,,,,20,1,0,,410958,,,,,,,
90144,set_tempo,,,,,20,1,0,,413793,,,,,,,
90160,note_off,,,,,304,0,9,,,,,1,,,67,100
90160,set_tempo,,,,,16,1,0,,416666,,,,,,,
90180,set_tempo,,,,,20,1,0,,419580,,,,,,,
90200,note_off,,,,,344,0,12,,,,,4,,,48,100
90200,set_tempo,,,,,20,1,0,,422535,,,,,,,
90200,note_off,,,,,344,0,14,,,,,5,,,60,100
90200,note_off,,,,,344,0,11,,,,,3,,,60,100
90220,set_tempo,,,,,20,1,0,,425531,,,,,,,
90240,note_on,,,,,80,0,9,,,,,1,,,72,100
90240,note_on,,,,,40,0,12,,,,,4,,,36,100
90240,note_on,,,,,128,0,13,,,,,5,,,64,100
90240,note_on,,,,,0,0,13,,,,,5,,,67,100
90240,note_on,,,,,40,0,14,,,,,5,,,48,100
90240,note_on,,,,,40,0,11,,,,,3,,,48,100
90240,set_tempo,,,,,20,1,0,,428571,,,,,,,
90256,set_tempo,,,,,16,1,0,,431654,,,,,,,
90276,set_tempo,,,,,20,1,0,,434782,,,,,,,
90296,set_tempo,,,,,20,1,0,,437956,,,,,,,
90316,set_tempo,,,,,20,1,0,,441176,,,,,,,
90336,set_tempo,,,,,20,1,0,,444444,,,,,,,
90352,set_tempo,,,,,16,1,0,,447761,,,,,,,
90372,set_tempo,,,,,20,1,0,,451127,,,,,,,
90392,set_tempo,,,,,20,1,0,,454545,,,,,,,
90412,set_tempo,,,,,20,1,0,,458015,,,,,,,
90432,set_tempo,,,,,20,1,0,,461538,,,,,,,
90448,set_tempo,,,,,16,1,0,,465116,,,,,,,
90468,set_tempo,,,,,20,1,0,,468750,,,,,,,
90488,set_tempo,,,,,20,1,0,,472440,,,,,,,
90496,note_off,,,,,0,0,13,,,,,5,,,67,100
90496,note_off,,,,,256,0,13,,,,,5,,,64,100
90508,set_tempo,,,,,20,1,0,,476190,,,,,,,
90528,set_tempo,,,,,20,1,0,,480000,,,,,,,
90544,set_tempo,,,,,16,1,0,,483870,,,,,,,
90544,note_off,,,,,304,0,9,,,,,1,,,76,100
90544,note_off,,,,,688,0,10,,,,,2,,,60,100
90564,set_tempo,,,,,20,1,0,,487804,,,,,,,
90584,note_off,,,,,40,0,9,,,,,1,,,72,100
90584,note_off,,,,,344,0,11,,,,,3,,,48,100
90584,note_off,,,,,344,0,14,,,,,5,,,48,100
90584,note_off,,,,,344,0,12,,,,,4,,,36,100
90584,set_tempo,,,,,20,1,0,,491803,,,,,,,
90604,set_tempo,,,,,20,1,0,,495867,,,,,,,
90624,note_on,,,,,40,0,12,,,,,4,,,41,100
90624,note_on,,,,,40,0,11,,,,,3,,,41,100
90624,note_on,,,,,40,0,14,,,,,5,,,41,100
90624,end_of_track,,,,,0,1,0,,,,,,,,,
90624,set_tempo,,,,,20,1,0,,857142,,,,,,,
90624,note_on,,,,,80,0,10,,,,,2,,,60,100
90624,note_on,,,,,0,0,9,,,,,1,,,77,100
90624,note_on,,,,,40,0,9,,,,,1,,,69,100
90652,note_on,,,,,156,0,13,,,,,5,,,65,100
90684,note_on,,,,,32,0,13,,,,,5,,,69,100
90716,note_on,,,,,32,0,13,,,,,5,,,72,100
90748,note_on,,,,,32,0,13,,,,,5,,,77,100
91420,note_off,,,,,672,0,13,,,,,5,,,65,100
91452,note_off,,,,,32,0,13,,,,,5,,,69,100
91484,note_off,,,,,32,0,13,,,,,5,,,72,100
91516,end_of_track,,,,,0,1,13,,,,,,,,,
91516,note_off,,,,,32,0,13,,,,,5,,,77,100
91660,end_of_track,,,,,0,1,12,,,,,,,,,
91660,note_off,,,,,1036,0,10,,,,,2,,,60,100
91660,note_off,,,,,1036,0,9,,,,,1,,,69,100
91660,note_off,,,,,0,0,9,,,,,1,,,77,100
91660,end_of_track,,,,,0,1,9,,,,,,,,,
91660,note_off,,,,,1036,0,14,,,,,5,,,41,100
91660,end_of_track,,,,,0,1,10,,,,,,,,,
91660,end_of_track,,,,,0,1,11,,,,,,,,,
91660,note_off,,,,,1036,0,11,,,,,3,,,41,100
91660,note_off,,,,,1036,0,12,,,,,4,,,41,100
91660,end_of_track,,,,,0,1,14,,,,,,,,,
93696,end_of_track,,,,,0,1,8,,,,,,,,,
93696,program_change,,,,,12416,0,8,,,,,0,40,,,
