tick,type,numerator,denominator,clocks_per_click,notated_32nd_notes_per_beat,time,meta,track,data,tempo,control,value,channel,program,key,note,velocity
0,time_signature,3,4,96,8,0,1,0,,,,,,,,,
0,end_of_track,,,,,0,1,4,,,,,,,,,
0,key_signature,,,,,0,1,4,,,,,,,E,,
0,control_change,,,,,0,0,4,,,91,64,0,,,,
0,control_change,,,,,0,0,4,,,10,64,0,,,,
0,control_change,,,,,0,0,4,,,7,100,0,,,,
0,program_change,,,,,0,0,4,,,,,0,40,,,
0,control_change,,,,,0,0,4,,,0,0,0,,,,
0,track_name,,,,,0,1,4,,,,,,,,,
0,end_of_track,,,,,0,1,3,,,,,,,,,
0,key_signature,,,,,0,1,3,,,,,,,E,,
0,program_change,,,,,0,0,3,,,,,0,40,,,
0,control_change,,,,,0,0,3,,,91,64,0,,,,
0,control_change,,,,,0,0,3,,,10,64,0,,,,
0,control_change,,,,,0,0,3,,,7,100,0,,,,
0,control_change,,,,,0,0,3,,,0,0,0,,,,
0,track_name,,,,,0,1,3,,,,,,,,,
0,end_of_track,,,,,0,1,2,,,,,,,,,
0,track_name,,,,,0,1,2,,,,,,,,,
0,end_of_track,,,,,0,1,1,,,,,,,,,
0,track_name,,,,,0,1,1,,,,,,,,,
0,control_change,,,,,0,0,9,,,91,66,2,,,,
0,key_signature,,,,,0,1,9,,,,,,,E,,
0,note_on,,,,,0,0,9,,,,,2,,,80,100
0,control_change,,,,,0,0,8,,,0,0,1,,,,
0,track_name,,,,,0,1,10,,,,,,,,,
0,control_change,,,,,0,0,10,,,0,0,3,,,,
0,program_change,,,,,0,0,10,,,,,3,48,,,
0,control_change,,,,,0,0,10,,,7,95,3,,,,
0,control_change,,,,,0,0,10,,,91,64,3,,,,
0,track_name,,,,,0,1,5,,,,,,,,,
0,control_change,,,,,0,0,5,,,0,0,0,,,,
0,program_change,,,,,0,0,5,,,,,0,40,,,
0,control_change,,,,,0,0,5,,,7,100,0,,,,
0,program_change,,,,,0,0,8,,,,,1,48,,,
0,control_change,,,,,0,0,8,,,7,100,1,,,,
0,control_change,,,,,0,0,8,,,10,53,1,,,,
0,control_change,,,,,0,0,8,,,91,66,1,,,,
0,key_signature,,,,,0,1,8,,,,,,,E,,
0,note_on,,,,,0,0,8,,,,,1,,,76,100
0,track_name,,,,,0,1,9,,,,,,,,,
0,control_change,,,,,0,0,9,,,0,0,2,,,,
0,program_change,,,,,0,0,9,,,,,2,48,,,
0,control_change,,,,,0,0,9,,,7,95,2,,,,
0,control_change,,,,,0,0,9,,,10,39,2,,,,
0,key_signature,,,,,0,1,7,,,,,,,E,,
0,control_change,,,,,0,0,7,,,91,64,0,,,,
0,control_change,,,,,0,0,7,,,10,64,0,,,,
0,key_signature,,,,,0,1,10,,,,,,,E,,
0,control_change,,,,,0,0,7,,,7,100,0,,,,
0,control_change,,,,,0,0,7,,,0,0,0,,,,
0,track_name,,,,,0,1,7,,,,,,,,,
0,end_of_track,,,,,0,1,6,,,,,,,,,
0,key_signature,,,,,0,1,6,,,,,,,E,,
0,control_change,,,,,0,0,6,,,91,64,0,,,,
0,control_change,,,,,0,0,6,,,10,64,0,,,,
0,control_change,,,,,0,0,6,,,7,100,0,,,,
0,program_change,,,,,0,0,6,,,,,0,40,,,
0,control_change,,,,,0,0,6,,,0,0,0,,,,
0,track_name,,,,,0,1,6,,,,,,,,,
0,end_of_track,,,,,0,1,5,,,,,,,,,
0,key_signature,,,,,0,1,5,,,,,,,E,,
0,control_change,,,,,0,0,5,,,91,64,0,,,,
0,control_change,,,,,0,0,5,,,10,64,0,,,,
0,program_change,,,,,0,0,7,,,,,0,40,,,
0,note_on,,,,,0,0,10,,,,,3,,,71,100
0,track_name,,,,,0,1,8,,,,,,,,,
0,control_change,,,,,0,0,13,,,7,55,6,,,,
0,control_change,,,,,0,0,12,,,0,0,5,,,,
0,program_change,,,,,0,0,12,,,,,5,48,,,
0,control_change,,,,,0,0,12,,,7,77,5,,,,
0,control_change,,,,,0,0,12,,,10,89,5,,,,
0,control_change,,,,,0,0,12,,,91,66,5,,,,
0,key_signature,,,,,0,1,12,,,,,,,E,,
0,note_on,,,,,0,0,12,,,,,5,,,40,100
0,control_change,,,,,0,0,14,,,91,60,6,,,,
0,control_change,,,,,0,0,14,,,7,55,6,,,,
0,program_change,,,,,0,0,14,,,,,6,6,,,
0,control_change,,,,,0,0,14,,,0,0,6,,,,
0,track_name,,,,,0,1,13,,,,,,,,,
0,control_change,,,,,0,0,13,,,0,0,6,,,,
0,program_change,,,,,0,0,13,,,,,6,6,,,
0,track_name,,,,,0,1,14,,,,,,,,,
0,control_change,,,,,0,0,13,,,91,60,6,,,,
0,key_signature,,,,,0,1,13,,,,,,,E,,
0,note_on,,,,,0,0,13,,,,,6,,,59,100
0,note_on,,,,,0,0,13,,,,,6,,,68,100
0,track_name,,,,,0,1,12,,,,,,,,,
0,key_signature,,,,,0,1,14,,,,,,,E,,
0,note_on,,,,,0,0,14,,,,,6,,,52,100
0,sequencer_specific,,,,,0,1,0,"(0, 0, 65)",,,,,,,,
0,key_signature,,,,,0,1,11,,,,,,,E,,
0,sequencer_specific,,,,,0,1,0,"(0, 0, 119, 14, 1)",,,,,,,,
0,track_name,,,,,0,1,11,,,,,,,,,
0,control_change,,,,,0,0,11,,,0,0,4,,,,
0,program_change,,,,,0,0,11,,,,,4,48,,,
0,control_change,,,,,0,0,11,,,7,82,4,,,,
0,control_change,,,,,0,0,11,,,10,78,4,,,,
0,control_change,,,,,0,0,11,,,91,65,4,,,,
0,set_tempo,,,,,0,1,0,,428571,,,,,,,
0,note_on,,,,,0,0,11,,,,,4,,,52,100
128,note_off,,,,,128,0,8,,,,,1,,,76,100
192,note_on,,,,,64,0,8,,,,,1,,,80,100
200,note_off,,,,,0,0,13,,,,,6,,,68,100
200,note_off,,,,,200,0,13,,,,,6,,,59,100
200,note_off,,,,,200,0,10,,,,,3,,,71,100
200,note_off,,,,,200,0,11,,,,,4,,,52,100
200,note_off,,,,,200,0,12,,,,,5,,,40,100
200,note_off,,,,,200,0,14,,,,,6,,,52,100
256,note_off,,,,,256,0,9,,,,,2,,,80,100
320,note_off,,,,,128,0,8,,,,,1,,,80,100
384,note_on,,,,,64,0,8,,,,,1,,,76,100
384,note_on,,,,,0,0,13,,,,,6,,,71,100
384,note_on,,,,,184,0,10,,,,,3,,,68,100
384,note_on,,,,,184,0,14,,,,,6,,,64,100
384,note_on,,,,,184,0,11,,,,,4,,,64,100
384,note_on,,,,,184,0,13,,,,,6,,,68,100
384,note_on,,,,,184,0,12,,,,,5,,,52,100
512,note_off,,,,,128,0,8,,,,,1,,,76,100
576,note_on,,,,,64,0,8,,,,,1,,,71,100
576,note_on,,,,,320,0,9,,,,,2,,,80,100
584,note_off,,,,,200,0,14,,,,,6,,,64,100
584,note_off,,,,,0,0,13,,,,,6,,,71,100
584,note_off,,,,,200,0,10,,,,,3,,,68,100
584,note_off,,,,,200,0,12,,,,,5,,,52,100
584,note_off,,,,,200,0,13,,,,,6,,,68,100
584,note_off,,,,,200,0,11,,,,,4,,,64,100
704,note_off,,,,,128,0,9,,,,,2,,,80,100
704,note_off,,,,,128,0,8,,,,,1,,,71,100
768,note_on,,,,,64,0,9,,,,,2,,,76,100
768,note_on,,,,,64,0,8,,,,,1,,,68,100
896,note_off,,,,,128,0,9,,,,,2,,,76,100
896,note_off,,,,,128,0,8,,,,,1,,,68,100
960,note_on,,,,,64,0,9,,,,,2,,,71,100
960,note_on,,,,,64,0,8,,,,,1,,,64,100
1088,note_off,,,,,128,0,8,,,,,1,,,64,100
1088,note_off,,,,,128,0,9,,,,,2,,,71,100
1152,set_tempo,,,,,1152,1,0,,428571,,,,,,,
1152,note_on,,,,,568,0,14,,,,,6,,,52,100
1152,note_on,,,,,64,0,8,,,,,1,,,76,100
1152,note_on,,,,,568,0,13,,,,,6,,,59,100
1152,note_on,,,,,64,0,9,,,,,2,,,71,100
1152,note_on,,,,,568,0,11,,,,,4,,,52,100
1152,note_on,,,,,568,0,12,,,,,5,,,40,100
1152,note_on,,,,,568,0,10,,,,,3,,,68,100
1152,note_on,,,,,0,0,13,,,,,6,,,68,100
1352,note_off,,,,,200,0,11,,,,,4,,,52,100
1352,note_off,,,,,200,0,10,,,,,3,,,68,100
1352,note_off,,,,,200,0,12,,,,,5,,,40,100
1352,note_off,,,,,200,0,14,,,,,6,,,52,100
1352,note_off,,,,,200,0,8,,,,,1,,,76,100
1352,note_off,,,,,0,0,13,,,,,6,,,68,100
1352,note_off,,,,,200,0,9,,,,,2,,,71,100
1352,note_off,,,,,200,0,13,,,,,6,,,59,100
1536,note_on,,,,,184,0,10,,,,,3,,,71,100
1536,note_on,,,,,184,0,8,,,,,1,,,80,100
1536,note_on,,,,,0,0,13,,,,,6,,,71,100
1536,note_on,,,,,184,0,12,,,,,5,,,52,100
1536,note_on,,,,,184,0,11,,,,,4,,,64,100
1536,note_on,,,,,184,0,9,,,,,2,,,76,100
1536,note_on,,,,,184,0,13,,,,,6,,,68,100
1536,note_on,,,,,184,0,14,,,,,6,,,64,100
1736,note_off,,,,,200,0,13,,,,,6,,,68,100
1736,note_off,,,,,200,0,8,,,,,1,,,80,100
1736,note_off,,,,,0,0,13,,,,,6,,,71,100
1736,note_off,,,,,200,0,9,,,,,2,,,76,100
1736,note_off,,,,,200,0,12,,,,,5,,,52,100
1736,note_off,,,,,200,0,10,,,,,3,,,71,100
1736,note_off,,,,,200,0,11,,,,,4,,,64,100
1736,note_off,,,,,200,0,14,,,,,6,,,64,100
2304,note_on,,,,,568,0,14,,,,,6,,,47,100
2304,note_on,,,,,568,0,8,,,,,1,,,78,100
2304,note_on,,,,,0,0,13,,,,,6,,,63,100
2304,note_on,,,,,568,0,13,,,,,6,,,66,100
2304,note_on,,,,,568,0,12,,,,,5,,,35,100
2304,note_on,,,,,568,0,10,,,,,3,,,71,100
2304,note_on,,,,,568,0,11,,,,,4,,,47,100
2304,note_on,,,,,568,0,9,,,,,2,,,75,100
2432,note_off,,,,,128,0,8,,,,,1,,,78,100
2496,note_on,,,,,64,0,8,,,,,1,,,83,100
2504,note_off,,,,,200,0,12,,,,,5,,,35,100
2504,note_off,,,,,0,0,13,,,,,6,,,63,100
2504,note_off,,,,,200,0,10,,,,,3,,,71,100
2504,note_off,,,,,200,0,14,,,,,6,,,47,100
2504,note_off,,,,,200,0,11,,,,,4,,,47,100
2504,note_off,,,,,200,0,13,,,,,6,,,66,100
2560,note_off,,,,,256,0,9,,,,,2,,,75,100
2624,note_off,,,,,128,0,8,,,,,1,,,83,100
2688,note_on,,,,,184,0,10,,,,,3,,,75,100
2688,note_on,,,,,184,0,12,,,,,5,,,47,100
2688,note_on,,,,,184,0,11,,,,,4,,,59,100
2688,note_on,,,,,184,0,14,,,,,6,,,59,100
2688,note_on,,,,,0,0,13,,,,,6,,,66,100
2688,note_on,,,,,184,0,13,,,,,6,,,75,100
2688,note_on,,,,,64,0,8,,,,,1,,,78,100
2816,note_off,,,,,128,0,8,,,,,1,,,78,100
2880,note_on,,,,,64,0,8,,,,,1,,,75,100
2880,note_on,,,,,320,0,9,,,,,2,,,78,100
2888,note_off,,,,,0,0,13,,,,,6,,,66,100
2888,note_off,,,,,200,0,13,,,,,6,,,75,100
2888,note_off,,,,,200,0,10,,,,,3,,,75,100
2888,note_off,,,,,200,0,14,,,,,6,,,59,100
2888,note_off,,,,,200,0,11,,,,,4,,,59,100
2888,note_off,,,,,200,0,12,,,,,5,,,47,100
3008,note_off,,,,,128,0,8,,,,,1,,,75,100
3008,note_off,,,,,128,0,9,,,,,2,,,78,100
3072,note_on,,,,,64,0,9,,,,,2,,,75,100
3072,note_on,,,,,64,0,8,,,,,1,,,71,100
3200,note_off,,,,,128,0,9,,,,,2,,,75,100
3200,note_off,,,,,128,0,8,,,,,1,,,71,100
3264,note_on,,,,,64,0,9,,,,,2,,,71,100
3264,note_on,,,,,64,0,8,,,,,1,,,66,100
3392,note_off,,,,,128,0,9,,,,,2,,,71,100
3392,note_off,,,,,128,0,8,,,,,1,,,66,100
3456,note_on,,,,,64,0,8,,,,,1,,,78,100
3456,note_on,,,,,568,0,12,,,,,5,,,35,100
3456,note_on,,,,,568,0,13,,,,,6,,,66,100
3456,note_on,,,,,0,0,13,,,,,6,,,63,100
3456,note_on,,,,,568,0,10,,,,,3,,,71,100
3456,note_on,,,,,64,0,9,,,,,2,,,75,100
3456,note_on,,,,,568,0,11,,,,,4,,,47,100
3456,note_on,,,,,568,0,14,,,,,6,,,47,100
3656,note_off,,,,,200,0,12,,,,,5,,,35,100
3656,note_off,,,,,200,0,10,,,,,3,,,71,100
3656,note_off,,,,,200,0,11,,,,,4,,,47,100
3656,note_off,,,,,0,0,13,,,,,6,,,63,100
3656,note_off,,,,,200,0,13,,,,,6,,,66,100
3656,note_off,,,,,200,0,9,,,,,2,,,75,100
3656,note_off,,,,,200,0,14,,,,,6,,,47,100
3656,note_off,,,,,200,0,8,,,,,1,,,78,100
3840,note_on,,,,,0,0,13,,,,,6,,,66,100
3840,note_on,,,,,184,0,11,,,,,4,,,59,100
3840,note_on,,,,,184,0,8,,,,,1,,,83,100
3840,note_on,,,,,184,0,12,,,,,5,,,47,100
3840,note_on,,,,,184,0,13,,,,,6,,,75,100
3840,note_on,,,,,184,0,10,,,,,3,,,75,100
3840,note_on,,,,,184,0,9,,,,,2,,,78,100
3840,note_on,,,,,184,0,14,,,,,6,,,59,100
4040,note_off,,,,,200,0,10,,,,,3,,,75,100
4040,note_off,,,,,200,0,12,,,,,5,,,47,100
4040,note_off,,,,,200,0,13,,,,,6,,,75,100
4040,note_off,,,,,200,0,9,,,,,2,,,78,100
4040,note_off,,,,,200,0,11,,,,,4,,,59,100
4040,note_off,,,,,200,0,14,,,,,6,,,59,100
4040,note_off,,,,,0,0,13,,,,,6,,,66,100
4040,note_off,,,,,200,0,8,,,,,1,,,83,100
4608,note_on,,,,,0,0,13,,,,,6,,,68,100
4608,note_on,,,,,568,0,9,,,,,2,,,76,100
4608,note_on,,,,,568,0,11,,,,,4,,,52,100
4608,note_on,,,,,568,0,14,,,,,6,,,52,100
4608,note_on,,,,,568,0,10,,,,,3,,,71,100
4608,note_on,,,,,568,0,13,,,,,6,,,59,100
4608,note_on,,,,,568,0,8,,,,,1,,,80,100
4608,note_on,,,,,568,0,12,,,,,5,,,40,100
4736,note_off,,,,,128,0,8,,,,,1,,,80,100
4800,note_on,,,,,64,0,8,,,,,1,,,83,100
4864,note_off,,,,,256,0,14,,,,,6,,,52,100
4864,note_off,,,,,256,0,12,,,,,5,,,40,100
4864,note_off,,,,,256,0,11,,,,,4,,,52,100
4864,note_off,,,,,0,0,13,,,,,6,,,68,100
4864,note_off,,,,,256,0,13,,,,,6,,,59,100
4864,note_off,,,,,256,0,9,,,,,2,,,76,100
4864,note_off,,,,,256,0,10,,,,,3,,,71,100
4928,note_off,,,,,128,0,8,,,,,1,,,83,100
4992,note_on,,,,,128,0,12,,,,,5,,,52,99
4992,note_on,,,,,0,0,13,,,,,6,,,71,100
4992,note_on,,,,,128,0,13,,,,,6,,,68,100
4992,note_on,,,,,128,0,10,,,,,3,,,71,99
4992,note_on,,,,,64,0,8,,,,,1,,,81,99
4992,note_on,,,,,128,0,11,,,,,4,,,64,99
4992,note_on,,,,,128,0,14,,,,,6,,,64,100
5120,note_off,,,,,128,0,8,,,,,1,,,81,100
5184,note_on,,,,,320,0,9,,,,,2,,,83,98
5184,note_on,,,,,64,0,8,,,,,1,,,80,98
5248,note_off,,,,,0,0,13,,,,,6,,,71,100
5248,note_off,,,,,256,0,13,,,,,6,,,68,100
5248,note_off,,,,,256,0,10,,,,,3,,,71,100
5248,note_off,,,,,256,0,11,,,,,4,,,64,100
5248,note_off,,,,,256,0,14,,,,,6,,,64,100
5248,note_off,,,,,256,0,12,,,,,5,,,52,100
5312,note_off,,,,,128,0,8,,,,,1,,,80,100
5312,note_off,,,,,128,0,9,,,,,2,,,83,100
5376,note_on,,,,,128,0,14,,,,,6,,,45,100
5376,note_on,,,,,128,0,12,,,,,5,,,33,96
5376,note_on,,,,,128,0,11,,,,,4,,,45,96
5376,note_on,,,,,64,0,8,,,,,1,,,78,96
5376,note_on,,,,,64,0,9,,,,,2,,,81,96
5376,note_on,,,,,128,0,13,,,,,6,,,66,100
5376,note_on,,,,,128,0,10,,,,,3,,,73,96
5376,note_on,,,,,0,0,13,,,,,6,,,64,100
5504,note_off,,,,,128,0,8,,,,,1,,,78,100
5504,note_off,,,,,128,0,9,,,,,2,,,81,100
5568,note_on,,,,,64,0,9,,,,,2,,,80,95
5568,note_on,,,,,64,0,8,,,,,1,,,76,95
5632,note_off,,,,,256,0,13,,,,,6,,,66,100
5632,note_off,,,,,256,0,14,,,,,6,,,45,100
5632,note_off,,,,,256,0,12,,,,,5,,,33,100
5632,note_off,,,,,256,0,11,,,,,4,,,45,100
5632,note_off,,,,,0,0,13,,,,,6,,,64,100
5632,note_off,,,,,256,0,10,,,,,3,,,73,100
5696,note_off,,,,,128,0,8,,,,,1,,,76,100
5696,note_off,,,,,128,0,9,,,,,2,,,80,100
5760,note_on,,,,,0,0,13,,,,,6,,,66,100
5760,note_on,,,,,64,0,9,,,,,2,,,78,93
5760,note_on,,,,,128,0,10,,,,,3,,,66,93
5760,note_on,,,,,128,0,12,,,,,5,,,35,93
5760,note_on,,,,,128,0,14,,,,,6,,,47,100
5760,note_on,,,,,64,0,8,,,,,1,,,75,93
5760,note_on,,,,,128,0,11,,,,,4,,,47,93
5760,note_on,,,,,128,0,13,,,,,6,,,63,100
5888,note_off,,,,,128,0,8,,,,,1,,,75,100
5888,note_off,,,,,128,0,9,,,,,2,,,78,100
5952,note_on,,,,,64,0,8,,,,,1,,,71,92
5952,note_on,,,,,64,0,9,,,,,2,,,71,92
6016,note_off,,,,,256,0,14,,,,,6,,,47,100
6016,note_off,,,,,0,0,13,,,,,6,,,66,100
6016,note_off,,,,,256,0,13,,,,,6,,,63,100
6016,note_off,,,,,256,0,12,,,,,5,,,35,100
6016,note_off,,,,,256,0,11,,,,,4,,,47,100
6080,note_off,,,,,128,0,8,,,,,1,,,71,100
6080,note_off,,,,,128,0,9,,,,,2,,,71,100
6144,note_on,,,,,64,0,8,,,,,1,,,59,90
6144,note_on,,,,,128,0,12,,,,,5,,,47,90
6144,note_on,,,,,128,0,11,,,,,4,,,59,90
6144,note_on,,,,,128,0,13,,,,,6,,,75,100
6144,note_on,,,,,64,0,9,,,,,2,,,59,90
6144,note_on,,,,,128,0,14,,,,,6,,,59,100
6144,note_on,,,,,0,0,13,,,,,6,,,66,100
6272,note_off,,,,,128,0,11,,,,,4,,,59,100
6272,note_off,,,,,0,0,13,,,,,6,,,66,100
6272,note_off,,,,,512,0,10,,,,,3,,,66,100
6272,note_off,,,,,128,0,13,,,,,6,,,75,100
6272,note_off,,,,,128,0,14,,,,,6,,,59,100
6272,note_off,,,,,128,0,12,,,,,5,,,47,100
6336,note_on,,,,,64,0,11,,,,,4,,,59,89
6336,note_on,,,,,64,0,12,,,,,5,,,47,89
6336,note_on,,,,,0,0,13,,,,,6,,,66,100
6336,note_on,,,,,64,0,13,,,,,6,,,75,100
6336,note_on,,,,,64,0,14,,,,,6,,,59,100
6400,note_off,,,,,256,0,9,,,,,2,,,59,100
6400,note_off,,,,,256,0,8,,,,,1,,,59,100
6464,note_off,,,,,128,0,12,,,,,5,,,47,100
6464,note_off,,,,,128,0,14,,,,,6,,,59,100
6464,note_off,,,,,128,0,11,,,,,4,,,59,100
6464,note_off,,,,,128,0,13,,,,,6,,,75,100
6464,note_off,,,,,0,0,13,,,,,6,,,66,100
6528,note_on,,,,,64,0,14,,,,,6,,,57,100
6528,note_on,,,,,64,0,12,,,,,5,,,45,87
6528,note_on,,,,,64,0,11,,,,,4,,,57,87
6528,note_on,,,,,64,0,13,,,,,6,,,73,100
6528,note_on,,,,,0,0,13,,,,,6,,,64,100
6656,note_off,,,,,128,0,12,,,,,5,,,45,100
6656,note_off,,,,,128,0,13,,,,,6,,,73,100
6656,note_off,,,,,0,0,13,,,,,6,,,64,100
6656,note_off,,,,,128,0,14,,,,,6,,,57,100
6656,note_off,,,,,128,0,11,,,,,4,,,57,100
6720,note_on,,,,,64,0,13,,,,,6,,,73,100
6720,note_on,,,,,0,0,13,,,,,6,,,64,100
6720,note_on,,,,,64,0,11,,,,,4,,,57,86
6720,note_on,,,,,64,0,14,,,,,6,,,57,100
6720,note_on,,,,,64,0,12,,,,,5,,,45,86
6848,note_off,,,,,0,0,13,,,,,6,,,64,100
6848,note_off,,,,,128,0,14,,,,,6,,,57,100
6848,note_off,,,,,128,0,13,,,,,6,,,73,100
6848,note_off,,,,,128,0,12,,,,,5,,,45,100
6848,note_off,,,,,128,0,11,,,,,4,,,57,100
6912,note_on,,,,,64,0,13,,,,,6,,,71,100
6912,note_on,,,,,0,0,13,,,,,6,,,64,100
6912,note_on,,,,,512,0,8,,,,,1,,,76,84
6912,note_on,,,,,64,0,14,,,,,6,,,56,100
6912,note_on,,,,,64,0,11,,,,,4,,,56,84
6912,note_on,,,,,64,0,12,,,,,5,,,44,84
7040,note_off,,,,,128,0,8,,,,,1,,,76,100
7104,note_on,,,,,64,0,8,,,,,1,,,76,82
7168,note_off,,,,,256,0,13,,,,,6,,,71,100
7168,note_off,,,,,0,0,13,,,,,6,,,64,100
7168,note_off,,,,,256,0,11,,,,,4,,,56,100
7168,note_off,,,,,256,0,12,,,,,5,,,44,100
7168,note_off,,,,,256,0,14,,,,,6,,,56,100
7232,note_off,,,,,128,0,8,,,,,1,,,76,100
7296,note_on,,,,,128,0,13,,,,,6,,,64,100
7296,note_on,,,,,0,0,13,,,,,6,,,59,100
7296,note_on,,,,,64,0,8,,,,,1,,,71,81
7296,note_on,,,,,128,0,14,,,,,6,,,44,100
7296,note_on,,,,,128,0,11,,,,,4,,,44,81
7296,note_on,,,,,896,0,9,,,,,2,,,76,81
7296,note_on,,,,,128,0,12,,,,,5,,,44,81
7424,note_off,,,,,128,0,9,,,,,2,,,76,100
7424,note_off,,,,,128,0,8,,,,,1,,,71,100
7488,note_on,,,,,64,0,9,,,,,2,,,76,80
7488,note_on,,,,,64,0,8,,,,,1,,,71,80
7552,note_off,,,,,0,0,13,,,,,6,,,59,100
7552,note_off,,,,,256,0,14,,,,,6,,,44,100
7552,note_off,,,,,256,0,12,,,,,5,,,44,100
7552,note_off,,,,,256,0,11,,,,,4,,,44,100
7552,note_off,,,,,256,0,13,,,,,6,,,64,100
7616,note_off,,,,,128,0,8,,,,,1,,,71,100
7616,note_off,,,,,128,0,9,,,,,2,,,76,100
7680,note_on,,,,,64,0,9,,,,,2,,,71,80
7680,note_on,,,,,128,0,12,,,,,5,,,44,80
7680,note_on,,,,,64,0,8,,,,,1,,,68,80
7680,note_on,,,,,1408,0,10,,,,,3,,,64,80
7680,note_on,,,,,128,0,13,,,,,6,,,64,100
7680,note_on,,,,,0,0,13,,,,,6,,,59,100
7680,note_on,,,,,128,0,14,,,,,6,,,44,100
7680,note_on,,,,,128,0,11,,,,,4,,,44,80
7808,note_off,,,,,128,0,8,,,,,1,,,68,100
7808,note_off,,,,,128,0,10,,,,,3,,,64,100
7808,note_off,,,,,128,0,9,,,,,2,,,71,100
7872,note_on,,,,,64,0,10,,,,,3,,,64,81
7872,note_on,,,,,64,0,8,,,,,1,,,68,81
7872,note_on,,,,,64,0,9,,,,,2,,,71,81
7936,note_off,,,,,0,0,13,,,,,6,,,59,100
7936,note_off,,,,,256,0,13,,,,,6,,,64,100
7936,note_off,,,,,256,0,14,,,,,6,,,44,100
7936,note_off,,,,,256,0,11,,,,,4,,,44,100
7936,note_off,,,,,256,0,12,,,,,5,,,44,100
8000,note_off,,,,,128,0,8,,,,,1,,,68,100
8000,note_off,,,,,128,0,9,,,,,2,,,71,100
8000,note_off,,,,,128,0,10,,,,,3,,,64,100
8064,note_on,,,,,128,0,14,,,,,6,,,45,100
8064,note_on,,,,,128,0,12,,,,,5,,,33,81
8064,note_on,,,,,0,0,13,,,,,6,,,61,100
8064,note_on,,,,,64,0,8,,,,,1,,,76,81
8064,note_on,,,,,128,0,11,,,,,4,,,45,81
8064,note_on,,,,,128,0,13,,,,,6,,,64,100
8064,note_on,,,,,64,0,9,,,,,2,,,69,81
8064,note_on,,,,,64,0,10,,,,,3,,,61,81
8192,note_off,,,,,128,0,8,,,,,1,,,76,100
8192,note_off,,,,,128,0,9,,,,,2,,,69,100
8192,note_off,,,,,128,0,10,,,,,3,,,61,100
8256,note_on,,,,,64,0,10,,,,,3,,,61,82
8256,note_on,,,,,64,0,8,,,,,1,,,76,82
8256,note_on,,,,,64,0,9,,,,,2,,,69,82
8320,note_off,,,,,0,0,13,,,,,6,,,61,100
8320,note_off,,,,,256,0,13,,,,,6,,,64,100
8320,note_off,,,,,256,0,11,,,,,4,,,45,100
8320,note_off,,,,,256,0,12,,,,,5,,,33,100
8320,note_off,,,,,256,0,14,,,,,6,,,45,100
8384,note_off,,,,,128,0,10,,,,,3,,,61,100
8384,note_off,,,,,128,0,8,,,,,1,,,76,100
8384,note_off,,,,,128,0,9,,,,,2,,,69,100
8448,note_on,,,,,128,0,13,,,,,6,,,64,100
8448,note_on,,,,,0,0,13,,,,,6,,,61,100
8448,note_on,,,,,64,0,8,,,,,1,,,73,82
8448,note_on,,,,,128,0,12,,,,,5,,,33,82
8448,note_on,,,,,128,0,14,,,,,6,,,45,100
8448,note_on,,,,,64,0,9,,,,,2,,,76,82
8448,note_on,,,,,128,0,11,,,,,4,,,45,82
8448,note_on,,,,,64,0,10,,,,,3,,,57,82
8576,note_off,,,,,128,0,9,,,,,2,,,76,100
8576,note_off,,,,,128,0,10,,,,,3,,,57,100
8576,note_off,,,,,128,0,8,,,,,1,,,73,100
8640,note_on,,,,,64,0,10,,,,,3,,,57,83
8640,note_on,,,,,64,0,9,,,,,2,,,76,83
8640,note_on,,,,,64,0,8,,,,,1,,,73,83
8704,note_off,,,,,256,0,11,,,,,4,,,45,100
8704,note_off,,,,,256,0,12,,,,,5,,,33,100
8704,note_off,,,,,0,0,13,,,,,6,,,61,100
8704,note_off,,,,,256,0,13,,,,,6,,,64,100
8704,note_off,,,,,256,0,14,,,,,6,,,45,100
8768,note_off,,,,,128,0,8,,,,,1,,,73,100
8768,note_off,,,,,128,0,9,,,,,2,,,76,100
8768,note_off,,,,,128,0,10,,,,,3,,,57,100
8832,note_on,,,,,128,0,14,,,,,6,,,45,100
8832,note_on,,,,,128,0,11,,,,,4,,,45,83
8832,note_on,,,,,64,0,10,,,,,3,,,64,83
8832,note_on,,,,,64,0,8,,,,,1,,,69,83
8832,note_on,,,,,0,0,13,,,,,6,,,61,100
8832,note_on,,,,,128,0,13,,,,,6,,,64,100
8832,note_on,,,,,64,0,9,,,,,2,,,73,83
8832,note_on,,,,,128,0,12,,,,,5,,,33,83
8960,note_off,,,,,128,0,8,,,,,1,,,69,100
8960,note_off,,,,,128,0,9,,,,,2,,,73,100
8960,note_off,,,,,128,0,10,,,,,3,,,64,100
9024,note_on,,,,,64,0,8,,,,,1,,,69,84
9024,note_on,,,,,64,0,10,,,,,3,,,64,84
9024,note_on,,,,,64,0,9,,,,,2,,,73,84
9088,note_off,,,,,256,0,14,,,,,6,,,45,100
9088,note_off,,,,,0,0,13,,,,,6,,,61,100
9088,note_off,,,,,256,0,13,,,,,6,,,64,100
9088,note_off,,,,,256,0,11,,,,,4,,,45,100
9088,note_off,,,,,256,0,12,,,,,5,,,33,100
9152,note_off,,,,,128,0,8,,,,,1,,,69,100
9152,note_off,,,,,128,0,9,,,,,2,,,73,100
9152,note_off,,,,,128,0,10,,,,,3,,,64,100
9216,note_on,,,,,64,0,10,,,,,3,,,61,84
9216,note_on,,,,,128,0,12,,,,,5,,,34,84
9216,note_on,,,,,128,0,11,,,,,4,,,46,84
9216,note_on,,,,,0,0,13,,,,,6,,,61,100
9216,note_on,,,,,128,0,14,,,,,6,,,46,100
9216,note_on,,,,,64,0,9,,,,,2,,,70,84
9216,note_on,,,,,64,0,8,,,,,1,,,78,84
9216,note_on,,,,,128,0,13,,,,,6,,,66,100
9344,note_off,,,,,128,0,9,,,,,2,,,70,100
9344,note_off,,,,,128,0,8,,,,,1,,,78,100
9344,note_off,,,,,128,0,10,,,,,3,,,61,100
9408,note_on,,,,,64,0,10,,,,,3,,,61,85
9408,note_on,,,,,64,0,9,,,,,2,,,70,85
9408,note_on,,,,,64,0,8,,,,,1,,,78,85
9472,note_off,,,,,256,0,11,,,,,4,,,46,100
9472,note_off,,,,,256,0,14,,,,,6,,,46,100
9472,note_off,,,,,256,0,12,,,,,5,,,34,100
9472,note_off,,,,,0,0,13,,,,,6,,,61,100
9472,note_off,,,,,256,0,13,,,,,6,,,66,100
9536,note_off,,,,,128,0,9,,,,,2,,,70,100
9536,note_off,,,,,128,0,8,,,,,1,,,78,100
9536,note_off,,,,,128,0,10,,,,,3,,,61,100
9600,note_on,,,,,64,0,10,,,,,3,,,58,85
9600,note_on,,,,,128,0,12,,,,,5,,,34,85
9600,note_on,,,,,64,0,9,,,,,2,,,78,85
9600,note_on,,,,,0,0,13,,,,,6,,,61,100
9600,note_on,,,,,128,0,14,,,,,6,,,46,100
9600,note_on,,,,,128,0,13,,,,,6,,,66,100
9600,note_on,,,,,64,0,8,,,,,1,,,73,85
9600,note_on,,,,,128,0,11,,,,,4,,,46,85
9728,note_off,,,,,128,0,10,,,,,3,,,58,100
9728,note_off,,,,,128,0,9,,,,,2,,,78,100
9728,note_off,,,,,128,0,8,,,,,1,,,73,100
9792,note_on,,,,,64,0,8,,,,,1,,,73,86
9792,note_on,,,,,64,0,10,,,,,3,,,58,86
9792,note_on,,,,,64,0,9,,,,,2,,,78,86
9856,note_off,,,,,256,0,12,,,,,5,,,34,100
9856,note_off,,,,,256,0,11,,,,,4,,,46,100
9856,note_off,,,,,256,0,14,,,,,6,,,46,100
9856,note_off,,,,,256,0,13,,,,,6,,,66,100
9856,note_off,,,,,0,0,13,,,,,6,,,61,100
9920,note_off,,,,,128,0,8,,,,,1,,,73,100
9920,note_off,,,,,128,0,10,,,,,3,,,58,100
9920,note_off,,,,,128,0,9,,,,,2,,,78,100
9984,note_on,,,,,64,0,9,,,,,2,,,73,86
9984,note_on,,,,,64,0,8,,,,,1,,,70,86
9984,note_on,,,,,64,0,10,,,,,3,,,66,86
9984,note_on,,,,,0,0,13,,,,,6,,,66,100
9984,note_on,,,,,128,0,12,,,,,5,,,34,86
9984,note_on,,,,,128,0,14,,,,,6,,,46,100
9984,note_on,,,,,128,0,11,,,,,4,,,46,86
9984,note_on,,,,,128,0,13,,,,,6,,,61,100
10112,note_off,,,,,128,0,10,,,,,3,,,66,100
10112,note_off,,,,,128,0,8,,,,,1,,,70,100
10112,note_off,,,,,128,0,9,,,,,2,,,73,100
10176,note_on,,,,,64,0,10,,,,,3,,,66,87
10176,note_on,,,,,64,0,8,,,,,1,,,70,87
10176,note_on,,,,,64,0,9,,,,,2,,,73,87
10240,note_off,,,,,0,0,13,,,,,6,,,66,100
10240,note_off,,,,,256,0,14,,,,,6,,,46,100
10240,note_off,,,,,256,0,11,,,,,4,,,46,100
10240,note_off,,,,,256,0,13,,,,,6,,,61,100
10240,note_off,,,,,256,0,12,,,,,5,,,34,100
10304,note_off,,,,,128,0,9,,,,,2,,,73,100
10304,note_off,,,,,128,0,8,,,,,1,,,70,100
10304,note_off,,,,,128,0,10,,,,,3,,,66,100
10368,note_on,,,,,64,0,10,,,,,3,,,63,87
10368,note_on,,,,,128,0,13,,,,,6,,,63,100
10368,note_on,,,,,0,0,13,,,,,6,,,66,100
10368,note_on,,,,,64,0,9,,,,,2,,,71,87
10368,note_on,,,,,64,0,8,,,,,1,,,78,87
10368,note_on,,,,,128,0,14,,,,,6,,,47,100
10368,note_on,,,,,128,0,12,,,,,5,,,35,87
10368,note_on,,,,,128,0,11,,,,,4,,,47,87
10496,note_off,,,,,128,0,10,,,,,3,,,63,100
10496,note_off,,,,,128,0,9,,,,,2,,,71,100
10496,note_off,,,,,128,0,8,,,,,1,,,78,100
10560,note_on,,,,,64,0,8,,,,,1,,,78,88
10560,note_on,,,,,64,0,10,,,,,3,,,63,88
10560,note_on,,,,,64,0,9,,,,,2,,,71,88
10624,note_off,,,,,256,0,11,,,,,4,,,47,100
10624,note_off,,,,,256,0,13,,,,,6,,,63,100
10624,note_off,,,,,0,0,13,,,,,6,,,66,100
10624,note_off,,,,,256,0,12,,,,,5,,,35,100
10624,note_off,,,,,256,0,14,,,,,6,,,47,100
10688,note_off,,,,,128,0,9,,,,,2,,,71,100
10688,note_off,,,,,128,0,8,,,,,1,,,78,100
10688,note_off,,,,,128,0,10,,,,,3,,,63,100
10752,note_on,,,,,128,0,14,,,,,6,,,47,100
10752,note_on,,,,,64,0,10,,,,,3,,,59,88
10752,note_on,,,,,128,0,13,,,,,6,,,63,100
10752,note_on,,,,,64,0,9,,,,,2,,,78,88
10752,note_on,,,,,128,0,12,,,,,5,,,35,88
10752,note_on,,,,,128,0,11,,,,,4,,,47,88
10752,note_on,,,,,64,0,8,,,,,1,,,75,88
10752,note_on,,,,,0,0,13,,,,,6,,,66,100
10880,note_off,,,,,128,0,8,,,,,1,,,75,100
10880,note_off,,,,,128,0,10,,,,,3,,,59,100
10880,note_off,,,,,128,0,9,,,,,2,,,78,100
10944,note_on,,,,,64,0,8,,,,,1,,,75,89
10944,note_on,,,,,64,0,9,,,,,2,,,78,89
10944,note_on,,,,,64,0,10,,,,,3,,,59,89
11008,note_off,,,,,256,0,12,,,,,5,,,35,100
11008,note_off,,,,,256,0,13,,,,,6,,,63,100
11008,note_off,,,,,0,0,13,,,,,6,,,66,100
11008,note_off,,,,,256,0,11,,,,,4,,,47,100
11008,note_off,,,,,256,0,14,,,,,6,,,47,100
11072,note_off,,,,,128,0,10,,,,,3,,,59,100
11072,note_off,,,,,128,0,8,,,,,1,,,75,100
11072,note_off,,,,,128,0,9,,,,,2,,,78,100
11136,note_on,,,,,64,0,8,,,,,1,,,71,89
11136,note_on,,,,,128,0,14,,,,,6,,,47,100
11136,note_on,,,,,128,0,11,,,,,4,,,47,89
11136,note_on,,,,,64,0,9,,,,,2,,,75,89
11136,note_on,,,,,128,0,12,,,,,5,,,35,89
11136,note_on,,,,,64,0,10,,,,,3,,,66,89
11136,note_on,,,,,128,0,13,,,,,6,,,63,100
11136,note_on,,,,,0,0,13,,,,,6,,,66,100
11264,note_off,,,,,128,0,8,,,,,1,,,71,100
11264,note_off,,,,,128,0,9,,,,,2,,,75,100
11264,note_off,,,,,128,0,10,,,,,3,,,66,100
11328,note_on,,,,,64,0,9,,,,,2,,,75,90
11328,note_on,,,,,64,0,8,,,,,1,,,71,90
11328,note_on,,,,,64,0,10,,,,,3,,,66,90
11392,note_off,,,,,256,0,13,,,,,6,,,63,100
11392,note_off,,,,,256,0,12,,,,,5,,,35,100
11392,note_off,,,,,256,0,11,,,,,4,,,47,100
11392,note_off,,,,,256,0,14,,,,,6,,,47,100
11392,note_off,,,,,0,0,13,,,,,6,,,66,100
11456,note_off,,,,,128,0,9,,,,,2,,,75,100
11456,note_off,,,,,128,0,8,,,,,1,,,71,100
11456,note_off,,,,,128,0,10,,,,,3,,,66,100
11520,note_on,,,,,128,0,13,,,,,6,,,68,100
11520,note_on,,,,,0,0,13,,,,,6,,,63,100
11520,note_on,,,,,128,0,14,,,,,6,,,48,100
11520,note_on,,,,,64,0,8,,,,,1,,,80,91
11520,note_on,,,,,64,0,10,,,,,3,,,63,91
11520,note_on,,,,,64,0,9,,,,,2,,,72,91
11520,note_on,,,,,128,0,12,,,,,5,,,36,91
11520,note_on,,,,,128,0,11,,,,,4,,,48,91
11648,note_off,,,,,128,0,8,,,,,1,,,80,100
11648,note_off,,,,,128,0,10,,,,,3,,,63,100
11648,note_off,,,,,128,0,9,,,,,2,,,72,100
11712,note_on,,,,,64,0,8,,,,,1,,,80,91
11712,note_on,,,,,64,0,9,,,,,2,,,72,91
11712,note_on,,,,,64,0,10,,,,,3,,,63,91
11776,note_off,,,,,256,0,13,,,,,6,,,68,100
11776,note_off,,,,,256,0,12,,,,,5,,,36,100
11776,note_off,,,,,256,0,11,,,,,4,,,48,100
11776,note_off,,,,,256,0,14,,,,,6,,,48,100
11776,note_off,,,,,0,0,13,,,,,6,,,63,100
11840,note_off,,,,,128,0,9,,,,,2,,,72,100
11840,note_off,,,,,128,0,8,,,,,1,,,80,100
11840,note_off,,,,,128,0,10,,,,,3,,,63,100
11904,note_on,,,,,128,0,13,,,,,6,,,68,100
11904,note_on,,,,,128,0,11,,,,,4,,,48,92
11904,note_on,,,,,128,0,12,,,,,5,,,36,92
11904,note_on,,,,,64,0,9,,,,,2,,,80,92
11904,note_on,,,,,64,0,10,,,,,3,,,60,92
11904,note_on,,,,,128,0,14,,,,,6,,,48,100
11904,note_on,,,,,64,0,8,,,,,1,,,75,92
11904,note_on,,,,,0,0,13,,,,,6,,,63,100
12032,note_off,,,,,128,0,8,,,,,1,,,75,100
12032,note_off,,,,,128,0,10,,,,,3,,,60,100
12032,note_off,,,,,128,0,9,,,,,2,,,80,100
12096,note_on,,,,,64,0,9,,,,,2,,,80,92
12096,note_on,,,,,64,0,8,,,,,1,,,75,92
12096,note_on,,,,,64,0,10,,,,,3,,,60,92
12160,note_off,,,,,0,0,13,,,,,6,,,63,100
12160,note_off,,,,,256,0,12,,,,,5,,,36,100
12160,note_off,,,,,256,0,14,,,,,6,,,48,100
12160,note_off,,,,,256,0,11,,,,,4,,,48,100
12160,note_off,,,,,256,0,13,,,,,6,,,68,100
12224,note_off,,,,,128,0,8,,,,,1,,,75,100
12224,note_off,,,,,128,0,10,,,,,3,,,60,100
12224,note_off,,,,,128,0,9,,,,,2,,,80,100
12288,note_on,,,,,64,0,8,,,,,1,,,72,93
12288,note_on,,,,,128,0,11,,,,,4,,,48,93
12288,note_on,,,,,64,0,10,,,,,3,,,68,93
12288,note_on,,,,,128,0,14,,,,,6,,,48,100
12288,note_on,,,,,128,0,12,,,,,5,,,36,93
12288,note_on,,,,,64,0,9,,,,,2,,,75,93
12288,note_on,,,,,0,0,13,,,,,6,,,63,100
12288,note_on,,,,,128,0,13,,,,,6,,,68,100
12416,note_off,,,,,128,0,10,,,,,3,,,68,100
12416,note_off,,,,,128,0,8,,,,,1,,,72,100
12416,note_off,,,,,128,0,9,,,,,2,,,75,100
12480,note_on,,,,,64,0,10,,,,,3,,,68,93
12480,note_on,,,,,64,0,8,,,,,1,,,72,93
12480,note_on,,,,,64,0,9,,,,,2,,,75,93
12544,note_off,,,,,0,0,13,,,,,6,,,63,100
12544,note_off,,,,,256,0,13,,,,,6,,,68,100
12544,note_off,,,,,256,0,12,,,,,5,,,36,100
12544,note_off,,,,,256,0,14,,,,,6,,,48,100
12544,note_off,,,,,256,0,11,,,,,4,,,48,100
12608,note_off,,,,,128,0,9,,,,,2,,,75,100
12608,note_off,,,,,128,0,8,,,,,1,,,72,100
12608,note_off,,,,,128,0,10,,,,,3,,,68,100
12672,note_on,,,,,128,0,14,,,,,6,,,49,100
12672,note_on,,,,,64,0,9,,,,,2,,,73,94
12672,note_on,,,,,128,0,12,,,,,5,,,37,94
12672,note_on,,,,,64,0,8,,,,,1,,,80,94
12672,note_on,,,,,128,0,11,,,,,4,,,49,94
12672,note_on,,,,,64,0,10,,,,,3,,,64,94
12672,note_on,,,,,128,0,13,,,,,6,,,64,100
12672,note_on,,,,,0,0,13,,,,,6,,,68,100
12800,note_off,,,,,128,0,9,,,,,2,,,73,100
12800,note_off,,,,,128,0,10,,,,,3,,,64,100
12800,note_off,,,,,128,0,8,,,,,1,,,80,100
12864,note_on,,,,,64,0,8,,,,,1,,,80,94
12864,note_on,,,,,64,0,10,,,,,3,,,64,94
12864,note_on,,,,,64,0,9,,,,,2,,,73,94
12928,note_off,,,,,256,0,11,,,,,4,,,49,100
12928,note_off,,,,,256,0,12,,,,,5,,,37,100
12928,note_off,,,,,256,0,14,,,,,6,,,49,100
12928,note_off,,,,,256,0,13,,,,,6,,,64,100
12928,note_off,,,,,0,0,13,,,,,6,,,68,100
12992,note_off,,,,,128,0,10,,,,,3,,,64,100
12992,note_off,,,,,128,0,8,,,,,1,,,80,100
12992,note_off,,,,,128,0,9,,,,,2,,,73,100
13056,note_on,,,,,64,0,9,,,,,2,,,80,95
13056,note_on,,,,,0,0,13,,,,,6,,,68,100
13056,note_on,,,,,128,0,11,,,,,4,,,49,95
13056,note_on,,,,,128,0,12,,,,,5,,,37,95
13056,note_on,,,,,128,0,13,,,,,6,,,64,100
13056,note_on,,,,,128,0,14,,,,,6,,,49,100
13056,note_on,,,,,64,0,8,,,,,1,,,76,95
13056,note_on,,,,,64,0,10,,,,,3,,,61,95
13184,note_off,,,,,128,0,10,,,,,3,,,61,100
13184,note_off,,,,,128,0,9,,,,,2,,,80,100
13184,note_off,,,,,128,0,8,,,,,1,,,76,100
13248,note_on,,,,,64,0,8,,,,,1,,,76,95
13248,note_on,,,,,64,0,10,,,,,3,,,61,95
13248,note_on,,,,,64,0,9,,,,,2,,,80,95
13312,note_off,,,,,256,0,11,,,,,4,,,49,100
13312,note_off,,,,,256,0,13,,,,,6,,,64,100
13312,note_off,,,,,0,0,13,,,,,6,,,68,100
13312,note_off,,,,,256,0,12,,,,,5,,,37,100
13312,note_off,,,,,256,0,14,,,,,6,,,49,100
13376,note_off,,,,,128,0,8,,,,,1,,,76,100
13376,note_off,,,,,128,0,9,,,,,2,,,80,100
13376,note_off,,,,,128,0,10,,,,,3,,,61,100
13440,note_on,,,,,128,0,14,,,,,6,,,49,100
13440,note_on,,,,,64,0,9,,,,,2,,,76,96
13440,note_on,,,,,128,0,13,,,,,6,,,64,100
13440,note_on,,,,,0,0,13,,,,,6,,,68,100
13440,note_on,,,,,128,0,12,,,,,5,,,37,96
13440,note_on,,,,,64,0,10,,,,,3,,,68,96
13440,note_on,,,,,128,0,11,,,,,4,,,49,96
13440,note_on,,,,,64,0,8,,,,,1,,,73,96
13568,note_off,,,,,128,0,10,,,,,3,,,68,100
13568,note_off,,,,,128,0,8,,,,,1,,,73,100
13568,note_off,,,,,128,0,9,,,,,2,,,76,100
13632,note_on,,,,,64,0,10,,,,,3,,,68,96
13632,note_on,,,,,64,0,9,,,,,2,,,76,96
13632,note_on,,,,,64,0,8,,,,,1,,,73,96
13696,note_off,,,,,256,0,13,,,,,6,,,64,100
13696,note_off,,,,,256,0,11,,,,,4,,,49,100
13696,note_off,,,,,0,0,13,,,,,6,,,68,100
13696,note_off,,,,,256,0,14,,,,,6,,,49,100
13696,note_off,,,,,256,0,12,,,,,5,,,37,100
13760,note_off,,,,,128,0,9,,,,,2,,,76,100
13760,note_off,,,,,128,0,10,,,,,3,,,68,100
13760,note_off,,,,,128,0,8,,,,,1,,,73,100
13824,note_on,,,,,64,0,8,,,,,1,,,81,97
13824,note_on,,,,,128,0,14,,,,,6,,,49,100
13824,note_on,,,,,128,0,12,,,,,5,,,37,97
13824,note_on,,,,,64,0,9,,,,,2,,,73,97
13824,note_on,,,,,64,0,10,,,,,3,,,64,97
13824,note_on,,,,,128,0,11,,,,,4,,,49,97
13824,note_on,,,,,128,0,13,,,,,6,,,64,100
13824,note_on,,,,,0,0,13,,,,,6,,,69,100
13952,note_off,,,,,128,0,9,,,,,2,,,73,100
13952,note_off,,,,,128,0,10,,,,,3,,,64,100
13952,note_off,,,,,128,0,8,,,,,1,,,81,100
14016,note_on,,,,,64,0,9,,,,,2,,,73,97
14016,note_on,,,,,64,0,8,,,,,1,,,81,97
14016,note_on,,,,,64,0,10,,,,,3,,,64,97
14080,note_off,,,,,256,0,12,,,,,5,,,37,100
14080,note_off,,,,,0,0,13,,,,,6,,,69,100
14080,note_off,,,,,256,0,11,,,,,4,,,49,100
14080,note_off,,,,,256,0,13,,,,,6,,,64,100
14080,note_off,,,,,256,0,14,,,,,6,,,49,100
14144,note_off,,,,,128,0,8,,,,,1,,,81,100
14144,note_off,,,,,128,0,10,,,,,3,,,64,100
14144,note_off,,,,,128,0,9,,,,,2,,,73,100
14208,note_on,,,,,128,0,13,,,,,6,,,64,100
14208,note_on,,,,,0,0,13,,,,,6,,,69,100
14208,note_on,,,,,64,0,10,,,,,3,,,61,98
14208,note_on,,,,,64,0,9,,,,,2,,,81,98
14208,note_on,,,,,128,0,14,,,,,6,,,49,100
14208,note_on,,,,,64,0,8,,,,,1,,,76,98
14208,note_on,,,,,128,0,12,,,,,5,,,37,98
14208,note_on,,,,,128,0,11,,,,,4,,,49,98
14336,note_off,,,,,128,0,8,,,,,1,,,76,100
14336,note_off,,,,,128,0,9,,,,,2,,,81,100
14336,note_off,,,,,128,0,10,,,,,3,,,61,100
14400,note_on,,,,,64,0,9,,,,,2,,,81,98
14400,note_on,,,,,64,0,10,,,,,3,,,61,98
14400,note_on,,,,,64,0,8,,,,,1,,,76,98
14464,note_off,,,,,256,0,14,,,,,6,,,49,100
14464,note_off,,,,,256,0,11,,,,,4,,,49,100
14464,note_off,,,,,256,0,13,,,,,6,,,64,100
14464,note_off,,,,,0,0,13,,,,,6,,,69,100
14464,note_off,,,,,256,0,12,,,,,5,,,37,100
14528,note_off,,,,,128,0,8,,,,,1,,,76,100
14528,note_off,,,,,128,0,10,,,,,3,,,61,100
14528,note_off,,,,,128,0,9,,,,,2,,,81,100
14592,note_on,,,,,128,0,12,,,,,5,,,37,99
14592,note_on,,,,,64,0,9,,,,,2,,,76,99
14592,note_on,,,,,128,0,13,,,,,6,,,64,100
14592,note_on,,,,,64,0,10,,,,,3,,,69,99
14592,note_on,,,,,64,0,8,,,,,1,,,73,99
14592,note_on,,,,,0,0,13,,,,,6,,,69,100
14592,note_on,,,,,128,0,14,,,,,6,,,49,100
14592,note_on,,,,,128,0,11,,,,,4,,,49,99
14720,note_off,,,,,128,0,8,,,,,1,,,73,100
14720,note_off,,,,,128,0,9,,,,,2,,,76,100
14720,note_off,,,,,128,0,10,,,,,3,,,69,100
14784,note_on,,,,,64,0,8,,,,,1,,,73,99
14784,note_on,,,,,64,0,10,,,,,3,,,69,99
14784,note_on,,,,,64,0,9,,,,,2,,,76,99
14848,note_off,,,,,0,0,13,,,,,6,,,69,100
14848,note_off,,,,,256,0,12,,,,,5,,,37,100
14848,note_off,,,,,256,0,14,,,,,6,,,49,100
14848,note_off,,,,,256,0,11,,,,,4,,,49,100
14848,note_off,,,,,256,0,13,,,,,6,,,64,100
14912,note_off,,,,,128,0,9,,,,,2,,,76,100
14912,note_off,,,,,128,0,10,,,,,3,,,69,100
14912,note_off,,,,,128,0,8,,,,,1,,,73,100
14976,note_on,,,,,64,0,8,,,,,1,,,81,100
14976,note_on,,,,,64,0,9,,,,,2,,,75,100
14976,note_on,,,,,128,0,12,,,,,5,,,39,100
14976,note_on,,,,,128,0,14,,,,,6,,,51,100
14976,note_on,,,,,128,0,11,,,,,4,,,51,100
14976,note_on,,,,,0,0,13,,,,,6,,,66,100
14976,note_on,,,,,64,0,10,,,,,3,,,66,100
14976,note_on,,,,,128,0,13,,,,,6,,,69,100
15104,note_off,,,,,128,0,10,,,,,3,,,66,100
15104,note_off,,,,,128,0,8,,,,,1,,,81,100
15104,note_off,,,,,128,0,9,,,,,2,,,75,100
15168,note_on,,,,,64,0,10,,,,,3,,,66,101
15168,note_on,,,,,64,0,9,,,,,2,,,75,101
15168,note_on,,,,,64,0,8,,,,,1,,,81,101
15232,note_off,,,,,256,0,14,,,,,6,,,51,100
15232,note_off,,,,,256,0,11,,,,,4,,,51,100
15232,note_off,,,,,256,0,12,,,,,5,,,39,100
15232,note_off,,,,,0,0,13,,,,,6,,,66,100
15232,note_off,,,,,256,0,13,,,,,6,,,69,100
15296,note_off,,,,,128,0,8,,,,,1,,,81,100
15296,note_off,,,,,128,0,9,,,,,2,,,75,100
15296,note_off,,,,,128,0,10,,,,,3,,,66,100
15360,note_on,,,,,128,0,12,,,,,5,,,39,101
15360,note_on,,,,,128,0,11,,,,,4,,,51,101
15360,note_on,,,,,128,0,13,,,,,6,,,69,100
15360,note_on,,,,,64,0,9,,,,,2,,,81,101
15360,note_on,,,,,64,0,10,,,,,3,,,63,101
15360,note_on,,,,,128,0,14,,,,,6,,,51,100
15360,note_on,,,,,64,0,8,,,,,1,,,78,101
15360,note_on,,,,,0,0,13,,,,,6,,,66,100
15488,note_off,,,,,128,0,9,,,,,2,,,81,100
15488,note_off,,,,,128,0,8,,,,,1,,,78,100
15488,note_off,,,,,128,0,10,,,,,3,,,63,100
15552,note_on,,,,,64,0,8,,,,,1,,,78,102
15552,note_on,,,,,64,0,9,,,,,2,,,81,102
15552,note_on,,,,,64,0,10,,,,,3,,,63,102
15616,note_off,,,,,256,0,11,,,,,4,,,51,100
15616,note_off,,,,,256,0,14,,,,,6,,,51,100
15616,note_off,,,,,0,0,13,,,,,6,,,66,100
15616,note_off,,,,,256,0,13,,,,,6,,,69,100
15616,note_off,,,,,256,0,12,,,,,5,,,39,100
15680,note_off,,,,,128,0,9,,,,,2,,,81,100
15680,note_off,,,,,128,0,10,,,,,3,,,63,100
15680,note_off,,,,,128,0,8,,,,,1,,,78,100
15744,note_on,,,,,64,0,8,,,,,1,,,75,102
15744,note_on,,,,,128,0,12,,,,,5,,,39,102
15744,note_on,,,,,64,0,10,,,,,3,,,69,102
15744,note_on,,,,,128,0,13,,,,,6,,,69,100
15744,note_on,,,,,0,0,13,,,,,6,,,66,100
15744,note_on,,,,,128,0,11,,,,,4,,,51,102
15744,note_on,,,,,64,0,9,,,,,2,,,78,102
15744,note_on,,,,,128,0,14,,,,,6,,,51,100
15872,note_off,,,,,128,0,10,,,,,3,,,69,100
15872,note_off,,,,,128,0,9,,,,,2,,,78,100
15872,note_off,,,,,128,0,8,,,,,1,,,75,100
15936,note_on,,,,,64,0,10,,,,,3,,,69,103
15936,note_on,,,,,64,0,9,,,,,2,,,78,103
15936,note_on,,,,,64,0,8,,,,,1,,,75,103
16000,note_off,,,,,256,0,12,,,,,5,,,39,100
16000,note_off,,,,,256,0,14,,,,,6,,,51,100
16000,note_off,,,,,256,0,11,,,,,4,,,51,100
16000,note_off,,,,,256,0,13,,,,,6,,,69,100
16000,note_off,,,,,0,0,13,,,,,6,,,66,100
16064,note_off,,,,,128,0,10,,,,,3,,,69,100
16064,note_off,,,,,128,0,8,,,,,1,,,75,100
16064,note_off,,,,,128,0,9,,,,,2,,,78,100
16128,note_on,,,,,64,0,10,,,,,3,,,66,103
16128,note_on,,,,,128,0,11,,,,,4,,,51,103
16128,note_on,,,,,128,0,13,,,,,6,,,71,100
16128,note_on,,,,,128,0,14,,,,,6,,,51,100
16128,note_on,,,,,128,0,12,,,,,5,,,39,103
16128,note_on,,,,,64,0,9,,,,,2,,,75,103
16128,note_on,,,,,64,0,8,,,,,1,,,83,103
16128,note_on,,,,,0,0,13,,,,,6,,,66,100
16256,note_off,,,,,128,0,10,,,,,3,,,66,100
16256,note_off,,,,,128,0,8,,,,,1,,,83,100
16256,note_off,,,,,128,0,9,,,,,2,,,75,100
16320,note_on,,,,,64,0,9,,,,,2,,,75,104
16320,note_on,,,,,64,0,10,,,,,3,,,66,104
16320,note_on,,,,,64,0,8,,,,,1,,,83,104
16384,note_off,,,,,256,0,12,,,,,5,,,39,100
16384,note_off,,,,,256,0,11,,,,,4,,,51,100
16384,note_off,,,,,256,0,13,,,,,6,,,71,100
16384,note_off,,,,,0,0,13,,,,,6,,,66,100
16384,note_off,,,,,256,0,14,,,,,6,,,51,100
16448,note_off,,,,,128,0,8,,,,,1,,,83,100
16448,note_off,,,,,128,0,9,,,,,2,,,75,100
16448,note_off,,,,,128,0,10,,,,,3,,,66,100
16512,note_on,,,,,128,0,11,,,,,4,,,51,104
16512,note_on,,,,,64,0,8,,,,,1,,,78,104
16512,note_on,,,,,64,0,9,,,,,2,,,83,104
16512,note_on,,,,,128,0,14,,,,,6,,,51,100
16512,note_on,,,,,0,0,13,,,,,6,,,66,100
16512,note_on,,,,,128,0,13,,,,,6,,,71,100
16512,note_on,,,,,128,0,12,,,,,5,,,39,104
16512,note_on,,,,,64,0,10,,,,,3,,,63,104
16640,note_off,,,,,128,0,10,,,,,3,,,63,100
16640,note_off,,,,,128,0,9,,,,,2,,,83,100
16640,note_off,,,,,128,0,8,,,,,1,,,78,100
16704,note_on,,,,,64,0,10,,,,,3,,,63,105
16704,note_on,,,,,64,0,8,,,,,1,,,78,105
16704,note_on,,,,,64,0,9,,,,,2,,,83,105
16768,note_off,,,,,256,0,11,,,,,4,,,51,100
16768,note_off,,,,,256,0,12,,,,,5,,,39,100
16768,note_off,,,,,0,0,13,,,,,6,,,66,100
16768,note_off,,,,,256,0,13,,,,,6,,,71,100
16768,note_off,,,,,256,0,14,,,,,6,,,51,100
16832,note_off,,,,,128,0,8,,,,,1,,,78,100
16832,note_off,,,,,128,0,9,,,,,2,,,83,100
16832,note_off,,,,,128,0,10,,,,,3,,,63,100
16896,note_on,,,,,64,0,10,,,,,3,,,71,105
16896,note_on,,,,,128,0,14,,,,,6,,,51,100
16896,note_on,,,,,128,0,12,,,,,5,,,39,105
16896,note_on,,,,,128,0,13,,,,,6,,,71,100
16896,note_on,,,,,0,0,13,,,,,6,,,66,100
16896,note_on,,,,,64,0,8,,,,,1,,,75,105
16896,note_on,,,,,64,0,9,,,,,2,,,78,105
16896,note_on,,,,,128,0,11,,,,,4,,,51,105
17024,note_off,,,,,128,0,9,,,,,2,,,78,100
17024,note_off,,,,,128,0,10,,,,,3,,,71,100
17024,note_off,,,,,128,0,8,,,,,1,,,75,100
17088,note_on,,,,,64,0,10,,,,,3,,,71,106
17088,note_on,,,,,64,0,8,,,,,1,,,75,106
17088,note_on,,,,,64,0,9,,,,,2,,,78,106
17152,note_off,,,,,256,0,12,,,,,5,,,39,100
17152,note_off,,,,,256,0,13,,,,,6,,,71,100
17152,note_off,,,,,0,0,13,,,,,6,,,66,100
17152,note_off,,,,,256,0,11,,,,,4,,,51,100
17152,note_off,,,,,256,0,14,,,,,6,,,51,100
17216,note_off,,,,,128,0,8,,,,,1,,,75,100
17216,note_off,,,,,128,0,10,,,,,3,,,71,100
17216,note_off,,,,,128,0,9,,,,,2,,,78,100
17280,note_on,,,,,64,0,9,,,,,2,,,76,106
17280,note_on,,,,,64,0,8,,,,,1,,,83,106
17280,note_on,,,,,128,0,14,,,,,6,,,52,100
17280,note_on,,,,,128,0,13,,,,,6,,,68,100
17280,note_on,,,,,0,0,13,,,,,6,,,71,100
17280,note_on,,,,,128,0,12,,,,,5,,,40,106
17280,note_on,,,,,64,0,10,,,,,3,,,68,106
17280,note_on,,,,,128,0,11,,,,,4,,,52,106
17408,note_off,,,,,128,0,10,,,,,3,,,68,100
17408,note_off,,,,,128,0,9,,,,,2,,,76,100
17408,note_off,,,,,128,0,8,,,,,1,,,83,100
17472,note_on,,,,,64,0,10,,,,,3,,,68,107
17472,note_on,,,,,64,0,9,,,,,2,,,76,107
17472,note_on,,,,,64,0,8,,,,,1,,,83,107
17536,note_off,,,,,256,0,13,,,,,6,,,68,100
17536,note_off,,,,,256,0,14,,,,,6,,,52,100
17536,note_off,,,,,0,0,13,,,,,6,,,71,100
17536,note_off,,,,,256,0,12,,,,,5,,,40,100
17536,note_off,,,,,256,0,11,,,,,4,,,52,100
17600,note_off,,,,,128,0,9,,,,,2,,,76,100
17600,note_off,,,,,128,0,10,,,,,3,,,68,100
17600,note_off,,,,,128,0,8,,,,,1,,,83,100
17664,note_on,,,,,64,0,8,,,,,1,,,80,107
17664,note_on,,,,,128,0,14,,,,,6,,,52,100
17664,note_on,,,,,128,0,11,,,,,4,,,52,107
17664,note_on,,,,,64,0,9,,,,,2,,,83,107
17664,note_on,,,,,64,0,10,,,,,3,,,64,107
17664,note_on,,,,,128,0,13,,,,,6,,,68,100
17664,note_on,,,,,128,0,12,,,,,5,,,40,107
17664,note_on,,,,,0,0,13,,,,,6,,,71,100
17792,note_off,,,,,128,0,9,,,,,2,,,83,100
17792,note_off,,,,,128,0,8,,,,,1,,,80,100
17792,note_off,,,,,128,0,10,,,,,3,,,64,100
17856,note_on,,,,,64,0,8,,,,,1,,,80,108
17856,note_on,,,,,64,0,9,,,,,2,,,83,108
17856,note_on,,,,,64,0,10,,,,,3,,,64,108
17920,note_off,,,,,256,0,14,,,,,6,,,52,100
17920,note_off,,,,,0,0,13,,,,,6,,,71,100
17920,note_off,,,,,256,0,12,,,,,5,,,40,100
17920,note_off,,,,,256,0,11,,,,,4,,,52,100
17920,note_off,,,,,256,0,13,,,,,6,,,68,100
17984,note_off,,,,,128,0,10,,,,,3,,,64,100
17984,note_off,,,,,128,0,9,,,,,2,,,83,100
17984,note_off,,,,,128,0,8,,,,,1,,,80,100
18048,note_on,,,,,128,0,12,,,,,5,,,40,108
18048,note_on,,,,,128,0,11,,,,,4,,,52,108
18048,note_on,,,,,128,0,13,,,,,6,,,68,100
18048,note_on,,,,,64,0,10,,,,,3,,,71,108
18048,note_on,,,,,0,0,13,,,,,6,,,71,100
18048,note_on,,,,,64,0,9,,,,,2,,,80,108
18048,note_on,,,,,64,0,8,,,,,1,,,76,108
18048,note_on,,,,,128,0,14,,,,,6,,,52,100
18176,note_off,,,,,128,0,8,,,,,1,,,76,100
18176,note_off,,,,,128,0,10,,,,,3,,,71,100
18176,note_off,,,,,128,0,9,,,,,2,,,80,100
18240,note_on,,,,,64,0,8,,,,,1,,,76,109
18240,note_on,,,,,64,0,10,,,,,3,,,71,109
18240,note_on,,,,,64,0,9,,,,,2,,,80,109
18304,note_off,,,,,256,0,11,,,,,4,,,52,100
18304,note_off,,,,,0,0,13,,,,,6,,,71,100
18304,note_off,,,,,256,0,13,,,,,6,,,68,100
18304,note_off,,,,,256,0,14,,,,,6,,,52,100
18304,note_off,,,,,256,0,12,,,,,5,,,40,100
18368,note_off,,,,,128,0,9,,,,,2,,,80,100
18368,note_off,,,,,128,0,10,,,,,3,,,71,100
18368,note_off,,,,,128,0,8,,,,,1,,,76,100
18432,note_on,,,,,128,0,13,,,,,6,,,75,100
18432,note_on,,,,,128,0,12,,,,,5,,,42,109
18432,note_on,,,,,128,0,14,,,,,6,,,54,100
18432,note_on,,,,,128,0,11,,,,,4,,,54,109
18432,note_on,,,,,64,0,10,,,,,3,,,63,109
18432,note_on,,,,,64,0,9,,,,,2,,,78,109
18432,note_on,,,,,0,0,13,,,,,6,,,69,100
18432,note_on,,,,,64,0,8,,,,,1,,,81,109
18560,note_off,,,,,128,0,11,,,,,4,,,54,100
18560,note_off,,,,,128,0,12,,,,,5,,,42,100
18560,note_off,,,,,0,0,13,,,,,6,,,69,100
18560,note_off,,,,,128,0,13,,,,,6,,,75,100
18560,note_off,,,,,128,0,14,,,,,6,,,54,100
18624,note_on,,,,,0,0,13,,,,,6,,,69,100
18624,note_on,,,,,64,0,13,,,,,6,,,75,100
18624,note_on,,,,,64,0,11,,,,,4,,,54,105
18624,note_on,,,,,64,0,14,,,,,6,,,54,100
18624,note_on,,,,,64,0,12,,,,,5,,,42,105
18688,note_off,,,,,256,0,10,,,,,3,,,63,100
18688,note_off,,,,,256,0,8,,,,,1,,,81,100
18688,note_off,,,,,256,0,9,,,,,2,,,78,100
18752,note_off,,,,,128,0,11,,,,,4,,,54,100
18752,note_off,,,,,128,0,14,,,,,6,,,54,100
18752,note_off,,,,,128,0,12,,,,,5,,,42,100
18752,note_off,,,,,128,0,13,,,,,6,,,75,100
18752,note_off,,,,,0,0,13,,,,,6,,,69,100
18816,note_on,,,,,64,0,14,,,,,6,,,51,100
18816,note_on,,,,,64,0,11,,,,,4,,,51,103
18816,note_on,,,,,64,0,12,,,,,5,,,39,103
18816,note_on,,,,,64,0,13,,,,,6,,,66,100
18816,note_on,,,,,0,0,13,,,,,6,,,69,100
18944,note_off,,,,,128,0,11,,,,,4,,,51,100
18944,note_off,,,,,0,0,13,,,,,6,,,69,100
18944,note_off,,,,,128,0,13,,,,,6,,,66,100
18944,note_off,,,,,128,0,12,,,,,5,,,39,100
18944,note_off,,,,,128,0,14,,,,,6,,,51,100
19008,note_on,,,,,0,0,13,,,,,6,,,69,100
19008,note_on,,,,,64,0,14,,,,,6,,,51,100
19008,note_on,,,,,64,0,11,,,,,4,,,51,101
19008,note_on,,,,,64,0,12,,,,,5,,,39,101
19008,note_on,,,,,64,0,13,,,,,6,,,66,100
19136,note_off,,,,,128,0,13,,,,,6,,,66,100
19136,note_off,,,,,0,0,13,,,,,6,,,69,100
19136,note_off,,,,,128,0,11,,,,,4,,,51,100
19136,note_off,,,,,128,0,12,,,,,5,,,39,100
19136,note_off,,,,,128,0,14,,,,,6,,,51,100
19200,note_on,,,,,64,0,11,,,,,4,,,47,98
19200,note_on,,,,,0,0,13,,,,,6,,,69,100
19200,note_on,,,,,64,0,12,,,,,5,,,35,98
19200,note_on,,,,,64,0,13,,,,,6,,,66,100
19200,note_on,,,,,64,0,14,,,,,6,,,47,100
19328,note_off,,,,,128,0,13,,,,,6,,,66,100
19328,note_off,,,,,128,0,11,,,,,4,,,47,100
19328,note_off,,,,,128,0,14,,,,,6,,,47,100
19328,note_off,,,,,128,0,12,,,,,5,,,35,100
19328,note_off,,,,,0,0,13,,,,,6,,,69,100
19392,note_on,,,,,64,0,14,,,,,6,,,47,100
19392,note_on,,,,,64,0,13,,,,,6,,,66,100
19392,note_on,,,,,64,0,11,,,,,4,,,47,96
19392,note_on,,,,,64,0,12,,,,,5,,,35,96
19392,note_on,,,,,0,0,13,,,,,6,,,69,100
19520,note_off,,,,,128,0,13,,,,,6,,,66,100
19520,note_off,,,,,128,0,14,,,,,6,,,47,100
19520,note_off,,,,,0,0,13,,,,,6,,,69,100
19520,note_off,,,,,128,0,11,,,,,4,,,47,100
19520,note_off,,,,,128,0,12,,,,,5,,,35,100
19584,note_on,,,,,64,0,12,,,,,5,,,42,105
19584,note_on,,,,,64,0,13,,,,,6,,,75,100
19584,note_on,,,,,64,0,14,,,,,6,,,54,100
19584,note_on,,,,,0,0,13,,,,,6,,,69,100
19584,note_on,,,,,896,0,10,,,,,3,,,75,105
19584,note_on,,,,,64,0,11,,,,,4,,,54,105
19584,note_on,,,,,896,0,9,,,,,2,,,78,105
19584,note_on,,,,,896,0,8,,,,,1,,,81,105
19712,note_off,,,,,0,0,13,,,,,6,,,69,100
19712,note_off,,,,,128,0,13,,,,,6,,,75,100
19712,note_off,,,,,128,0,11,,,,,4,,,54,100
19712,note_off,,,,,128,0,12,,,,,5,,,42,100
19712,note_off,,,,,128,0,14,,,,,6,,,54,100
19776,note_on,,,,,64,0,11,,,,,4,,,54,105
19776,note_on,,,,,64,0,13,,,,,6,,,75,100
19776,note_on,,,,,64,0,14,,,,,6,,,54,100
19776,note_on,,,,,64,0,12,,,,,5,,,42,105
19776,note_on,,,,,0,0,13,,,,,6,,,69,100
19840,note_off,,,,,256,0,8,,,,,1,,,81,100
19840,note_off,,,,,256,0,10,,,,,3,,,75,100
19840,note_off,,,,,256,0,9,,,,,2,,,78,100
19904,note_off,,,,,0,0,13,,,,,6,,,69,100
19904,note_off,,,,,128,0,14,,,,,6,,,54,100
19904,note_off,,,,,128,0,13,,,,,6,,,75,100
19904,note_off,,,,,128,0,12,,,,,5,,,42,100
19904,note_off,,,,,128,0,11,,,,,4,,,54,100
19968,note_on,,,,,64,0,13,,,,,6,,,66,100
19968,note_on,,,,,64,0,14,,,,,6,,,51,100
19968,note_on,,,,,0,0,13,,,,,6,,,69,100
19968,note_on,,,,,64,0,11,,,,,4,,,51,103
19968,note_on,,,,,64,0,12,,,,,5,,,39,103
20096,note_off,,,,,128,0,12,,,,,5,,,39,100
20096,note_off,,,,,128,0,13,,,,,6,,,66,100
20096,note_off,,,,,128,0,11,,,,,4,,,51,100
20096,note_off,,,,,128,0,14,,,,,6,,,51,100
20096,note_off,,,,,0,0,13,,,,,6,,,69,100
20160,note_on,,,,,64,0,12,,,,,5,,,39,101
20160,note_on,,,,,64,0,14,,,,,6,,,51,100
20160,note_on,,,,,64,0,11,,,,,4,,,51,101
20160,note_on,,,,,0,0,13,,,,,6,,,69,100
20160,note_on,,,,,64,0,13,,,,,6,,,66,100
20288,note_off,,,,,128,0,14,,,,,6,,,51,100
20288,note_off,,,,,128,0,13,,,,,6,,,66,100
20288,note_off,,,,,0,0,13,,,,,6,,,69,100
20288,note_off,,,,,128,0,12,,,,,5,,,39,100
20288,note_off,,,,,128,0,11,,,,,4,,,51,100
20352,note_on,,,,,64,0,11,,,,,4,,,47,98
20352,note_on,,,,,64,0,12,,,,,5,,,35,98
20352,note_on,,,,,64,0,14,,,,,6,,,47,100
20352,note_on,,,,,64,0,13,,,,,6,,,66,100
20352,note_on,,,,,0,0,13,,,,,6,,,69,100
20480,note_off,,,,,0,0,13,,,,,6,,,69,100
20480,note_off,,,,,128,0,11,,,,,4,,,47,100
20480,note_off,,,,,128,0,12,,,,,5,,,35,100
20480,note_off,,,,,128,0,14,,,,,6,,,47,100
20480,note_off,,,,,128,0,13,,,,,6,,,66,100
20544,note_on,,,,,0,0,13,,,,,6,,,69,100
20544,note_on,,,,,64,0,12,,,,,5,,,35,96
20544,note_on,,,,,64,0,13,,,,,6,,,66,100
20544,note_on,,,,,64,0,11,,,,,4,,,47,96
20544,note_on,,,,,64,0,14,,,,,6,,,47,100
20672,note_off,,,,,128,0,12,,,,,5,,,35,100
20672,note_off,,,,,128,0,14,,,,,6,,,47,100
20672,note_off,,,,,128,0,11,,,,,4,,,47,100
20672,note_off,,,,,128,0,13,,,,,6,,,66,100
20672,note_off,,,,,0,0,13,,,,,6,,,69,100
20736,note_on,,,,,896,0,8,,,,,1,,,81,100
20736,note_on,,,,,896,0,9,,,,,2,,,78,100
20736,note_on,,,,,896,0,10,,,,,3,,,75,100
20736,note_on,,,,,0,0,13,,,,,6,,,69,100
20736,note_on,,,,,64,0,13,,,,,6,,,75,100
20736,note_on,,,,,64,0,12,,,,,5,,,42,100
20736,note_on,,,,,64,0,11,,,,,4,,,54,100
20736,note_on,,,,,64,0,14,,,,,6,,,54,100
20864,note_off,,,,,128,0,12,,,,,5,,,42,100
20864,note_off,,,,,128,0,14,,,,,6,,,54,100
20864,note_off,,,,,128,0,11,,,,,4,,,54,100
20864,note_off,,,,,128,0,13,,,,,6,,,75,100
20864,note_off,,,,,0,0,13,,,,,6,,,69,100
20928,note_on,,,,,64,0,11,,,,,4,,,54,100
20928,note_on,,,,,64,0,14,,,,,6,,,54,100
20928,note_on,,,,,64,0,13,,,,,6,,,75,100
20928,note_on,,,,,64,0,12,,,,,5,,,42,100
20928,note_on,,,,,0,0,13,,,,,6,,,69,100
20992,note_off,,,,,256,0,9,,,,,2,,,78,100
20992,note_off,,,,,256,0,8,,,,,1,,,81,100
20992,note_off,,,,,256,0,10,,,,,3,,,75,100
21056,note_off,,,,,128,0,14,,,,,6,,,54,100
21056,note_off,,,,,128,0,13,,,,,6,,,75,100
21056,note_off,,,,,0,0,13,,,,,6,,,69,100
21056,note_off,,,,,128,0,12,,,,,5,,,42,100
21056,note_off,,,,,128,0,11,,,,,4,,,54,100
21120,note_on,,,,,64,0,13,,,,,6,,,66,100
21120,note_on,,,,,0,0,13,,,,,6,,,69,100
21120,note_on,,,,,64,0,11,,,,,4,,,51,98
21120,note_on,,,,,64,0,14,,,,,6,,,51,100
21120,note_on,,,,,64,0,12,,,,,5,,,39,98
21248,note_off,,,,,128,0,14,,,,,6,,,51,100
21248,note_off,,,,,128,0,11,,,,,4,,,51,100
21248,note_off,,,,,0,0,13,,,,,6,,,69,100
21248,note_off,,,,,128,0,13,,,,,6,,,66,100
21248,note_off,,,,,128,0,12,,,,,5,,,39,100
21312,note_on,,,,,64,0,13,,,,,6,,,66,100
21312,note_on,,,,,0,0,13,,,,,6,,,69,100
21312,note_on,,,,,64,0,14,,,,,6,,,51,100
21312,note_on,,,,,64,0,11,,,,,4,,,51,96
21312,note_on,,,,,64,0,12,,,,,5,,,39,96
21440,note_off,,,,,128,0,14,,,,,6,,,51,100
21440,note_off,,,,,128,0,13,,,,,6,,,66,100
21440,note_off,,,,,128,0,11,,,,,4,,,51,100
21440,note_off,,,,,128,0,12,,,,,5,,,39,100
21440,note_off,,,,,0,0,13,,,,,6,,,69,100
21504,note_on,,,,,0,0,13,,,,,6,,,69,100
21504,note_on,,,,,64,0,13,,,,,6,,,66,100
21504,note_on,,,,,64,0,14,,,,,6,,,47,100
21504,note_on,,,,,64,0,11,,,,,4,,,47,93
21504,note_on,,,,,64,0,12,,,,,5,,,35,93
21632,note_off,,,,,0,0,13,,,,,6,,,69,100
21632,note_off,,,,,128,0,12,,,,,5,,,35,100
21632,note_off,,,,,128,0,14,,,,,6,,,47,100
21632,note_off,,,,,128,0,11,,,,,4,,,47,100
21632,note_off,,,,,128,0,13,,,,,6,,,66,100
21696,note_on,,,,,64,0,12,,,,,5,,,35,91
21696,note_on,,,,,64,0,14,,,,,6,,,47,100
21696,note_on,,,,,64,0,11,,,,,4,,,47,91
21696,note_on,,,,,64,0,13,,,,,6,,,66,100
21696,note_on,,,,,0,0,13,,,,,6,,,69,100
21824,note_off,,,,,128,0,13,,,,,6,,,66,100
21824,note_off,,,,,128,0,12,,,,,5,,,35,100
21824,note_off,,,,,128,0,11,,,,,4,,,47,100
21824,note_off,,,,,128,0,14,,,,,6,,,47,100
21824,note_off,,,,,0,0,13,,,,,6,,,69,100
21888,note_on,,,,,896,0,8,,,,,1,,,80,90
21888,note_on,,,,,0,0,13,,,,,6,,,71,100
21888,note_on,,,,,64,0,11,,,,,4,,,52,90
21888,note_on,,,,,896,0,10,,,,,3,,,71,90
21888,note_on,,,,,64,0,13,,,,,6,,,68,100
21888,note_on,,,,,64,0,12,,,,,5,,,40,90
21888,note_on,,,,,896,0,9,,,,,2,,,80,90
21888,note_on,,,,,64,0,14,,,,,6,,,52,100
22272,note_off,,,,,384,0,13,,,,,6,,,68,100
22272,note_off,,,,,384,0,11,,,,,4,,,52,100
22272,note_off,,,,,384,0,14,,,,,6,,,52,100
22272,note_off,,,,,384,0,9,,,,,2,,,80,100
22272,note_off,,,,,384,0,12,,,,,5,,,40,100
22272,note_off,,,,,384,0,8,,,,,1,,,80,100
22272,note_off,,,,,0,0,13,,,,,6,,,71,100
22272,note_off,,,,,384,0,10,,,,,3,,,71,100
22464,note_on,,,,,192,0,11,,,,,4,,,54,97
22464,note_on,,,,,192,0,9,,,,,2,,,81,97
22464,note_on,,,,,192,0,10,,,,,3,,,69,97
22464,note_on,,,,,192,0,8,,,,,1,,,78,97
22464,note_on,,,,,192,0,12,,,,,5,,,42,97
22464,note_on,,,,,192,0,13,,,,,6,,,69,100
22464,note_on,,,,,0,0,13,,,,,6,,,73,100
22464,note_on,,,,,192,0,14,,,,,6,,,54,100
22592,note_off,,,,,128,0,12,,,,,5,,,42,100
22592,note_off,,,,,128,0,13,,,,,6,,,69,100
22592,note_off,,,,,0,0,13,,,,,6,,,73,100
22592,note_off,,,,,128,0,8,,,,,1,,,78,100
22592,note_off,,,,,128,0,9,,,,,2,,,81,100
22592,note_off,,,,,128,0,14,,,,,6,,,54,100
22592,note_off,,,,,128,0,10,,,,,3,,,69,100
22592,note_off,,,,,128,0,11,,,,,4,,,54,100
22656,note_on,,,,,64,0,9,,,,,2,,,83,99
22656,note_on,,,,,64,0,11,,,,,4,,,56,99
22656,note_on,,,,,64,0,10,,,,,3,,,68,99
22656,note_on,,,,,64,0,12,,,,,5,,,44,99
22656,note_on,,,,,64,0,13,,,,,6,,,64,100
22656,note_on,,,,,64,0,14,,,,,6,,,56,100
22656,note_on,,,,,64,0,8,,,,,1,,,76,99
22656,note_on,,,,,0,0,13,,,,,6,,,71,100
22656,note_on,,,,,0,0,13,,,,,6,,,76,100
22912,note_off,,,,,256,0,10,,,,,3,,,68,100
22912,note_off,,,,,256,0,8,,,,,1,,,76,100
22912,note_off,,,,,256,0,13,,,,,6,,,64,100
22912,note_off,,,,,256,0,9,,,,,2,,,83,100
22912,note_off,,,,,256,0,12,,,,,5,,,44,100
22912,note_off,,,,,0,0,13,,,,,6,,,71,100
22912,note_off,,,,,0,0,13,,,,,6,,,76,100
22912,note_off,,,,,256,0,14,,,,,6,,,56,100
22912,note_off,,,,,256,0,11,,,,,4,,,56,100
23040,note_on,,,,,128,0,9,,,,,2,,,81,100
23040,note_on,,,,,128,0,11,,,,,4,,,57,100
23040,note_on,,,,,128,0,13,,,,,6,,,66,100
23040,note_on,,,,,128,0,12,,,,,5,,,45,100
23040,note_on,,,,,128,0,10,,,,,3,,,66,100
23040,note_on,,,,,128,0,14,,,,,6,,,57,100
23040,note_on,,,,,128,0,8,,,,,1,,,76,100
23040,note_on,,,,,0,0,13,,,,,6,,,76,100
23168,note_off,,,,,128,0,9,,,,,2,,,81,100
23232,note_on,,,,,64,0,9,,,,,2,,,80,100
23296,note_off,,,,,256,0,13,,,,,6,,,66,100
23296,note_off,,,,,0,0,13,,,,,6,,,76,100
23296,note_off,,,,,256,0,12,,,,,5,,,45,100
23296,note_off,,,,,256,0,14,,,,,6,,,57,100
23296,note_off,,,,,256,0,8,,,,,1,,,76,100
23296,note_off,,,,,256,0,11,,,,,4,,,57,100
23360,note_off,,,,,128,0,9,,,,,2,,,80,100
23424,note_on,,,,,128,0,12,,,,,5,,,47,100
23424,note_on,,,,,128,0,8,,,,,1,,,71,100
23424,note_on,,,,,128,0,13,,,,,6,,,71,100
23424,note_on,,,,,0,0,13,,,,,6,,,66,100
23424,note_on,,,,,0,0,13,,,,,6,,,75,100
23424,note_on,,,,,64,0,9,,,,,2,,,80,100
23424,note_on,,,,,128,0,14,,,,,6,,,59,100
23424,note_on,,,,,128,0,11,,,,,4,,,59,100
23516,note_off,,,,,92,0,9,,,,,2,,,80,100
23520,note_on,,,,,4,0,9,,,,,2,,,78,100
23552,note_off,,,,,512,0,10,,,,,3,,,66,100
23612,note_off,,,,,92,0,9,,,,,2,,,78,100
23616,note_on,,,,,4,0,9,,,,,2,,,80,100
23676,note_off,,,,,60,0,9,,,,,2,,,80,100
23680,note_off,,,,,256,0,12,,,,,5,,,47,100
23680,note_off,,,,,0,0,13,,,,,6,,,75,100
23680,note_off,,,,,0,0,13,,,,,6,,,66,100
23680,note_off,,,,,256,0,13,,,,,6,,,71,100
23680,note_off,,,,,256,0,14,,,,,6,,,59,100
23680,note_off,,,,,256,0,11,,,,,4,,,59,100
23680,note_off,,,,,256,0,8,,,,,1,,,71,100
23680,note_on,,,,,4,0,9,,,,,2,,,78,100
23740,note_off,,,,,60,0,9,,,,,2,,,78,100
23744,note_on,,,,,4,0,9,,,,,2,,,80,100
23804,note_off,,,,,60,0,9,,,,,2,,,80,100
23808,note_on,,,,,0,0,13,,,,,6,,,75,100
23808,note_on,,,,,128,0,14,,,,,6,,,47,100
23808,note_on,,,,,256,0,10,,,,,3,,,71,100
23808,note_on,,,,,128,0,8,,,,,1,,,75,100
23808,note_on,,,,,128,0,13,,,,,6,,,71,100
23808,note_on,,,,,4,0,9,,,,,2,,,78,100
23808,note_on,,,,,128,0,12,,,,,5,,,35,100
23808,note_on,,,,,0,0,13,,,,,6,,,66,100
23808,note_on,,,,,128,0,11,,,,,4,,,47,100
23936,note_off,,,,,128,0,9,,,,,2,,,78,100
24000,note_on,,,,,64,0,9,,,,,2,,,76,100
24064,note_off,,,,,256,0,11,,,,,4,,,47,100
24064,note_off,,,,,256,0,13,,,,,6,,,71,100
24064,note_off,,,,,0,0,13,,,,,6,,,75,100
24064,note_off,,,,,256,0,8,,,,,1,,,75,100
24064,note_off,,,,,256,0,10,,,,,3,,,71,100
24064,note_off,,,,,256,0,14,,,,,6,,,47,100
24064,note_off,,,,,256,0,12,,,,,5,,,35,100
24064,note_off,,,,,0,0,13,,,,,6,,,66,100
24128,note_off,,,,,128,0,9,,,,,2,,,76,100
24192,note_on,,,,,128,0,8,,,,,1,,,76,100
24192,note_on,,,,,128,0,10,,,,,3,,,68,100
24192,note_on,,,,,128,0,12,,,,,5,,,40,100
24192,note_on,,,,,128,0,13,,,,,6,,,76,100
24192,note_on,,,,,0,0,13,,,,,6,,,71,100
24192,note_on,,,,,0,0,13,,,,,6,,,68,100
24192,note_on,,,,,64,0,9,,,,,2,,,76,100
24192,note_on,,,,,24192,0,7,,,,,0,,,76,90
24192,note_on,,,,,128,0,11,,,,,4,,,52,100
24192,note_on,,,,,128,0,14,,,,,6,,,52,100
24256,note_off,,,,,64,0,7,,,,,0,,,76,100
24288,note_on,,,,,32,0,7,,,,,0,,,75,89
24352,note_off,,,,,64,0,7,,,,,0,,,75,100
24384,note_on,,,,,32,0,7,,,,,0,,,76,87
24448,note_off,,,,,64,0,7,,,,,0,,,76,100
24448,note_off,,,,,256,0,13,,,,,6,,,76,100
24448,note_off,,,,,256,0,14,,,,,6,,,52,100
24448,note_off,,,,,0,0,13,,,,,6,,,68,100
24448,note_off,,,,,256,0,11,,,,,4,,,52,100
24448,note_off,,,,,256,0,9,,,,,2,,,76,100
24448,note_off,,,,,256,0,12,,,,,5,,,40,100
24448,note_off,,,,,0,0,13,,,,,6,,,71,100
24448,note_off,,,,,256,0,10,,,,,3,,,68,100
24448,note_off,,,,,256,0,8,,,,,1,,,76,100
24480,note_on,,,,,32,0,7,,,,,0,,,78,86
24544,note_off,,,,,64,0,7,,,,,0,,,78,100
24576,note_on,,,,,32,0,7,,,,,0,,,76,85
24576,note_on,,,,,128,0,10,,,,,3,,,64,70
24640,note_off,,,,,64,0,7,,,,,0,,,76,100
24672,note_on,,,,,32,0,7,,,,,0,,,71,85
24736,note_off,,,,,64,0,7,,,,,0,,,71,100
24768,note_on,,,,,320,0,8,,,,,1,,,83,70
24768,note_on,,,,,320,0,9,,,,,2,,,80,70
24768,note_on,,,,,32,0,7,,,,,0,,,71,85
24832,note_off,,,,,256,0,10,,,,,3,,,64,100
24832,note_off,,,,,64,0,7,,,,,0,,,71,100
24864,note_on,,,,,32,0,7,,,,,0,,,76,86
24896,note_off,,,,,128,0,9,,,,,2,,,80,100
24896,note_off,,,,,128,0,8,,,,,1,,,83,100
24928,note_off,,,,,64,0,7,,,,,0,,,76,100
24960,note_on,,,,,64,0,9,,,,,2,,,76,70
24960,note_on,,,,,128,0,10,,,,,3,,,64,70
24960,note_on,,,,,64,0,8,,,,,1,,,80,70
24960,note_on,,,,,32,0,7,,,,,0,,,76,86
25024,note_off,,,,,64,0,7,,,,,0,,,76,100
25056,note_on,,,,,32,0,7,,,,,0,,,71,87
25088,note_off,,,,,128,0,8,,,,,1,,,80,100
25088,note_off,,,,,128,0,9,,,,,2,,,76,100
25120,note_off,,,,,64,0,7,,,,,0,,,71,100
25152,note_on,,,,,32,0,7,,,,,0,,,71,87
25152,note_on,,,,,64,0,8,,,,,1,,,76,70
25152,note_on,,,,,64,0,9,,,,,2,,,71,70
25216,note_off,,,,,64,0,7,,,,,0,,,71,100
25216,note_off,,,,,256,0,10,,,,,3,,,64,100
25248,note_on,,,,,32,0,7,,,,,0,,,76,88
25280,note_off,,,,,128,0,8,,,,,1,,,76,100
25280,note_off,,,,,128,0,9,,,,,2,,,71,100
25312,note_off,,,,,64,0,7,,,,,0,,,76,100
25344,note_on,,,,,64,0,8,,,,,1,,,71,70
25344,note_on,,,,,32,0,7,,,,,0,,,78,88
25344,note_on,,,,,64,0,9,,,,,2,,,71,70
25344,note_on,,,,,128,0,10,,,,,3,,,63,70
25436,note_off,,,,,92,0,7,,,,,0,,,78,100
25440,note_on,,,,,4,0,7,,,,,0,,,76,89
25532,note_off,,,,,92,0,7,,,,,0,,,76,100
25536,note_on,,,,,4,0,7,,,,,0,,,78,89
25600,note_off,,,,,64,0,7,,,,,0,,,78,100
25600,note_off,,,,,256,0,10,,,,,3,,,63,100
25600,note_off,,,,,256,0,8,,,,,1,,,71,100
25600,note_off,,,,,256,0,9,,,,,2,,,71,100
25632,note_on,,,,,32,0,7,,,,,0,,,80,90
25696,note_off,,,,,64,0,7,,,,,0,,,80,100
25728,note_on,,,,,32,0,7,,,,,0,,,78,90
25728,note_on,,,,,128,0,10,,,,,3,,,63,70
25792,note_off,,,,,64,0,7,,,,,0,,,78,100
25824,note_on,,,,,32,0,7,,,,,0,,,71,91
25888,note_off,,,,,64,0,7,,,,,0,,,71,100
25920,note_on,,,,,32,0,7,,,,,0,,,71,91
25920,note_on,,,,,320,0,9,,,,,2,,,78,70
25920,note_on,,,,,320,0,8,,,,,1,,,81,70
25984,note_off,,,,,64,0,7,,,,,0,,,71,100
25984,note_off,,,,,256,0,10,,,,,3,,,63,100
26016,note_on,,,,,32,0,7,,,,,0,,,78,92
26048,note_off,,,,,128,0,9,,,,,2,,,78,100
26048,note_off,,,,,128,0,8,,,,,1,,,81,100
26080,note_off,,,,,64,0,7,,,,,0,,,78,100
26112,note_on,,,,,64,0,9,,,,,2,,,75,70
26112,note_on,,,,,32,0,7,,,,,0,,,78,92
26112,note_on,,,,,64,0,8,,,,,1,,,78,70
26112,note_on,,,,,128,0,10,,,,,3,,,63,70
26176,note_off,,,,,64,0,7,,,,,0,,,78,100
26208,note_on,,,,,32,0,7,,,,,0,,,71,92
26240,note_off,,,,,128,0,9,,,,,2,,,75,100
26240,note_off,,,,,128,0,8,,,,,1,,,78,100
26272,note_off,,,,,64,0,7,,,,,0,,,71,100
26304,note_on,,,,,64,0,8,,,,,1,,,75,70
26304,note_on,,,,,64,0,9,,,,,2,,,71,70
26304,note_on,,,,,32,0,7,,,,,0,,,71,93
26368,note_off,,,,,256,0,10,,,,,3,,,63,100
26368,note_off,,,,,64,0,7,,,,,0,,,71,100
26400,note_on,,,,,32,0,7,,,,,0,,,78,93
26432,note_off,,,,,128,0,8,,,,,1,,,75,100
26432,note_off,,,,,128,0,9,,,,,2,,,71,100
26464,note_off,,,,,64,0,7,,,,,0,,,78,100
26496,note_on,,,,,32,0,7,,,,,0,,,80,94
26496,note_on,,,,,64,0,9,,,,,2,,,71,70
26496,note_on,,,,,64,0,8,,,,,1,,,71,70
26496,note_on,,,,,128,0,10,,,,,3,,,64,70
26588,note_off,,,,,92,0,7,,,,,0,,,80,100
26592,note_on,,,,,4,0,7,,,,,0,,,78,94
26684,note_off,,,,,92,0,7,,,,,0,,,78,100
26688,note_on,,,,,4,0,7,,,,,0,,,80,95
26752,note_off,,,,,64,0,7,,,,,0,,,80,100
26752,note_off,,,,,256,0,8,,,,,1,,,71,100
26752,note_off,,,,,256,0,10,,,,,3,,,64,100
26752,note_off,,,,,256,0,9,,,,,2,,,71,100
26784,note_on,,,,,32,0,7,,,,,0,,,81,95
26848,note_off,,,,,64,0,7,,,,,0,,,81,100
26880,note_on,,,,,32,0,7,,,,,0,,,80,96
26880,note_on,,,,,128,0,10,,,,,3,,,64,70
26944,note_off,,,,,64,0,7,,,,,0,,,80,100
26976,note_on,,,,,32,0,7,,,,,0,,,71,96
27040,note_off,,,,,64,0,7,,,,,0,,,71,100
27072,note_on,,,,,320,0,8,,,,,1,,,83,70
27072,note_on,,,,,32,0,7,,,,,0,,,71,97
27072,note_on,,,,,320,0,9,,,,,2,,,80,70
27136,note_off,,,,,64,0,7,,,,,0,,,71,100
27136,note_off,,,,,256,0,10,,,,,3,,,64,100
27168,note_on,,,,,32,0,7,,,,,0,,,80,97
27200,note_off,,,,,128,0,8,,,,,1,,,83,100
27200,note_off,,,,,128,0,9,,,,,2,,,80,100
27232,note_off,,,,,64,0,7,,,,,0,,,80,100
27264,note_on,,,,,32,0,7,,,,,0,,,80,98
27264,note_on,,,,,64,0,9,,,,,2,,,76,70
27264,note_on,,,,,64,0,8,,,,,1,,,80,70
27264,note_on,,,,,128,0,10,,,,,3,,,64,70
27328,note_off,,,,,64,0,7,,,,,0,,,80,100
27360,note_on,,,,,32,0,7,,,,,0,,,71,98
27392,note_off,,,,,128,0,8,,,,,1,,,80,100
27392,note_off,,,,,128,0,9,,,,,2,,,76,100
27424,note_off,,,,,64,0,7,,,,,0,,,71,100
27456,note_on,,,,,64,0,9,,,,,2,,,71,70
27456,note_on,,,,,64,0,8,,,,,1,,,76,70
27456,note_on,,,,,32,0,7,,,,,0,,,71,99
27520,note_off,,,,,64,0,7,,,,,0,,,71,100
27520,note_off,,,,,256,0,10,,,,,3,,,64,100
27552,note_on,,,,,32,0,7,,,,,0,,,80,99
27584,note_off,,,,,128,0,8,,,,,1,,,76,100
27584,note_off,,,,,128,0,9,,,,,2,,,71,100
27616,note_off,,,,,64,0,7,,,,,0,,,80,100
27648,note_on,,,,,64,0,9,,,,,2,,,71,70
27648,note_on,,,,,128,0,10,,,,,3,,,63,70
27648,note_on,,,,,64,0,8,,,,,1,,,71,70
27648,note_on,,,,,32,0,7,,,,,0,,,81,100
27740,note_off,,,,,92,0,7,,,,,0,,,81,100
27744,note_on,,,,,4,0,7,,,,,0,,,80,100
27836,note_off,,,,,92,0,7,,,,,0,,,80,100
27840,note_on,,,,,4,0,7,,,,,0,,,81,99
27904,note_off,,,,,256,0,8,,,,,1,,,71,100
27904,note_off,,,,,256,0,9,,,,,2,,,71,100
27904,note_off,,,,,64,0,7,,,,,0,,,81,100
27904,note_off,,,,,256,0,10,,,,,3,,,63,100
27936,note_on,,,,,32,0,7,,,,,0,,,83,98
28000,note_off,,,,,64,0,7,,,,,0,,,83,100
28032,note_on,,,,,32,0,7,,,,,0,,,81,98
28032,note_on,,,,,128,0,10,,,,,3,,,63,70
28096,note_off,,,,,64,0,7,,,,,0,,,81,100
28128,note_on,,,,,32,0,7,,,,,0,,,71,97
28192,note_off,,,,,64,0,7,,,,,0,,,71,100
28224,note_on,,,,,320,0,9,,,,,2,,,78,70
28224,note_on,,,,,320,0,8,,,,,1,,,81,70
28224,note_on,,,,,32,0,7,,,,,0,,,71,96
28288,note_off,,,,,64,0,7,,,,,0,,,71,100
28288,note_off,,,,,256,0,10,,,,,3,,,63,100
28320,note_on,,,,,32,0,7,,,,,0,,,81,96
28352,note_off,,,,,128,0,9,,,,,2,,,78,100
28352,note_off,,,,,128,0,8,,,,,1,,,81,100
28384,note_off,,,,,64,0,7,,,,,0,,,81,100
28416,note_on,,,,,64,0,8,,,,,1,,,78,70
28416,note_on,,,,,64,0,9,,,,,2,,,75,70
28416,note_on,,,,,32,0,7,,,,,0,,,81,95
28416,note_on,,,,,128,0,10,,,,,3,,,63,70
28480,note_off,,,,,64,0,7,,,,,0,,,81,100
28512,note_on,,,,,32,0,7,,,,,0,,,71,95
28544,note_off,,,,,128,0,9,,,,,2,,,75,100
28544,note_off,,,,,128,0,8,,,,,1,,,78,100
28576,note_off,,,,,64,0,7,,,,,0,,,71,100
28608,note_on,,,,,32,0,7,,,,,0,,,71,94
28608,note_on,,,,,64,0,9,,,,,2,,,71,70
28608,note_on,,,,,64,0,8,,,,,1,,,75,70
28672,note_off,,,,,64,0,7,,,,,0,,,71,100
28672,note_off,,,,,256,0,10,,,,,3,,,63,100
28704,note_on,,,,,32,0,7,,,,,0,,,81,94
28736,note_off,,,,,128,0,8,,,,,1,,,75,100
28736,note_off,,,,,128,0,9,,,,,2,,,71,100
28768,note_off,,,,,64,0,7,,,,,0,,,81,100
28800,note_on,,,,,64,0,8,,,,,1,,,71,70
28800,note_on,,,,,64,0,9,,,,,2,,,71,70
28800,note_on,,,,,128,0,10,,,,,3,,,64,70
28800,note_on,,,,,32,0,7,,,,,0,,,80,93
28892,note_off,,,,,92,0,7,,,,,0,,,80,100
28896,note_on,,,,,4,0,7,,,,,0,,,78,92
28988,note_off,,,,,92,0,7,,,,,0,,,78,100
28992,note_on,,,,,4,0,7,,,,,0,,,80,92
29056,note_off,,,,,256,0,8,,,,,1,,,71,100
29056,note_off,,,,,64,0,7,,,,,0,,,80,100
29056,note_off,,,,,256,0,10,,,,,3,,,64,100
29056,note_off,,,,,256,0,9,,,,,2,,,71,100
29088,note_on,,,,,32,0,7,,,,,0,,,81,91
29152,note_off,,,,,64,0,7,,,,,0,,,81,100
29184,note_on,,,,,32,0,7,,,,,0,,,80,90
29184,note_on,,,,,128,0,10,,,,,3,,,64,70
29248,note_off,,,,,64,0,7,,,,,0,,,80,100
29280,note_on,,,,,32,0,7,,,,,0,,,71,90
29344,note_off,,,,,64,0,7,,,,,0,,,71,100
29376,note_on,,,,,32,0,7,,,,,0,,,71,89
29376,note_on,,,,,320,0,8,,,,,1,,,83,70
29376,note_on,,,,,320,0,9,,,,,2,,,80,70
29440,note_off,,,,,256,0,10,,,,,3,,,64,100
29440,note_off,,,,,64,0,7,,,,,0,,,71,100
29472,note_on,,,,,32,0,7,,,,,0,,,80,88
29504,note_off,,,,,128,0,8,,,,,1,,,83,100
29504,note_off,,,,,128,0,9,,,,,2,,,80,100
29536,note_off,,,,,64,0,7,,,,,0,,,80,100
29568,note_on,,,,,128,0,10,,,,,3,,,64,70
29568,note_on,,,,,64,0,8,,,,,1,,,80,70
29568,note_on,,,,,64,0,9,,,,,2,,,76,70
29568,note_on,,,,,32,0,7,,,,,0,,,80,88
29632,note_off,,,,,64,0,7,,,,,0,,,80,100
29664,note_on,,,,,32,0,7,,,,,0,,,71,87
29696,note_off,,,,,128,0,8,,,,,1,,,80,100
29696,note_off,,,,,128,0,9,,,,,2,,,76,100
29728,note_off,,,,,64,0,7,,,,,0,,,71,100
29760,note_on,,,,,64,0,9,,,,,2,,,71,70
29760,note_on,,,,,64,0,8,,,,,1,,,76,70
29760,note_on,,,,,32,0,7,,,,,0,,,71,86
29824,note_off,,,,,256,0,10,,,,,3,,,64,100
29824,note_off,,,,,64,0,7,,,,,0,,,71,100
29856,note_on,,,,,32,0,7,,,,,0,,,80,86
29888,note_off,,,,,128,0,9,,,,,2,,,71,100
29888,note_off,,,,,128,0,8,,,,,1,,,76,100
29920,note_off,,,,,64,0,7,,,,,0,,,80,100
29952,note_on,,,,,128,0,10,,,,,3,,,63,70
29952,note_on,,,,,64,0,9,,,,,2,,,71,70
29952,note_on,,,,,64,0,8,,,,,1,,,71,70
29952,note_on,,,,,32,0,7,,,,,0,,,78,92
30208,note_off,,,,,256,0,9,,,,,2,,,71,100
30208,note_off,,,,,256,0,7,,,,,0,,,78,100
30208,note_off,,,,,256,0,10,,,,,3,,,63,100
30208,note_off,,,,,256,0,8,,,,,1,,,71,100
30336,note_on,,,,,128,0,7,,,,,0,,,71,92
30336,note_on,,,,,128,0,10,,,,,3,,,63,70
30528,note_on,,,,,320,0,8,,,,,1,,,81,70
30528,note_on,,,,,320,0,9,,,,,2,,,78,70
30592,note_off,,,,,256,0,10,,,,,3,,,63,100
30592,note_off,,,,,256,0,7,,,,,0,,,71,100
30656,note_off,,,,,128,0,8,,,,,1,,,81,100
30656,note_off,,,,,128,0,9,,,,,2,,,78,100
30720,note_on,,,,,64,0,9,,,,,2,,,75,70
30720,note_on,,,,,128,0,10,,,,,3,,,63,70
30720,note_on,,,,,64,0,8,,,,,1,,,78,70
30848,note_off,,,,,128,0,9,,,,,2,,,75,100
30848,note_off,,,,,128,0,8,,,,,1,,,78,100
30912,note_on,,,,,64,0,9,,,,,2,,,71,70
30912,note_on,,,,,64,0,8,,,,,1,,,75,70
30976,note_off,,,,,256,0,10,,,,,3,,,63,100
31040,note_off,,,,,128,0,9,,,,,2,,,71,100
31040,note_off,,,,,128,0,8,,,,,1,,,75,100
31104,note_on,,,,,128,0,10,,,,,3,,,64,70
31104,note_on,,,,,64,0,8,,,,,1,,,80,70
31104,note_on,,,,,64,0,9,,,,,2,,,71,70
31104,note_on,,,,,512,0,7,,,,,0,,,83,85
31168,note_off,,,,,64,0,7,,,,,0,,,83,100
31200,note_on,,,,,32,0,7,,,,,0,,,80,86
31264,note_off,,,,,64,0,7,,,,,0,,,80,100
31296,note_on,,,,,32,0,7,,,,,0,,,78,88
31360,note_off,,,,,256,0,9,,,,,2,,,71,100
31360,note_off,,,,,64,0,7,,,,,0,,,78,100
31360,note_off,,,,,256,0,10,,,,,3,,,64,100
31360,note_off,,,,,256,0,8,,,,,1,,,80,100
31392,note_on,,,,,32,0,7,,,,,0,,,76,89
31456,note_off,,,,,64,0,7,,,,,0,,,76,100
31488,note_on,,,,,128,0,10,,,,,3,,,64,70
31488,note_on,,,,,128,0,8,,,,,1,,,80,70
31488,note_on,,,,,32,0,7,,,,,0,,,83,91
31552,note_off,,,,,64,0,7,,,,,0,,,83,100
31584,note_on,,,,,32,0,7,,,,,0,,,80,93
31648,note_off,,,,,64,0,7,,,,,0,,,80,100
31680,note_on,,,,,320,0,9,,,,,2,,,71,70
31680,note_on,,,,,32,0,7,,,,,0,,,78,94
31744,note_off,,,,,256,0,10,,,,,3,,,64,100
31744,note_off,,,,,64,0,7,,,,,0,,,78,100
31744,note_off,,,,,256,0,8,,,,,1,,,80,100
31776,note_on,,,,,32,0,7,,,,,0,,,76,96
31808,note_off,,,,,128,0,9,,,,,2,,,71,100
31840,note_off,,,,,64,0,7,,,,,0,,,76,100
31872,note_on,,,,,128,0,10,,,,,3,,,64,70
31872,note_on,,,,,128,0,8,,,,,1,,,80,70
31872,note_on,,,,,64,0,9,,,,,2,,,76,70
31872,note_on,,,,,32,0,7,,,,,0,,,83,98
31936,note_off,,,,,64,0,7,,,,,0,,,83,100
31968,note_on,,,,,32,0,7,,,,,0,,,80,99
32000,note_off,,,,,128,0,9,,,,,2,,,76,100
32032,note_off,,,,,64,0,7,,,,,0,,,80,100
32064,note_on,,,,,64,0,9,,,,,2,,,80,70
32064,note_on,,,,,32,0,7,,,,,0,,,78,101
32128,note_off,,,,,256,0,10,,,,,3,,,64,100
32128,note_off,,,,,64,0,7,,,,,0,,,78,100
32128,note_off,,,,,256,0,8,,,,,1,,,80,100
32160,note_on,,,,,32,0,7,,,,,0,,,76,103
32192,note_off,,,,,128,0,9,,,,,2,,,80,100
32224,note_off,,,,,64,0,7,,,,,0,,,76,100
32256,note_on,,,,,128,0,8,,,,,1,,,81,70
32256,note_on,,,,,32,0,7,,,,,0,,,85,104
32256,note_on,,,,,128,0,10,,,,,3,,,69,70
32256,note_on,,,,,64,0,9,,,,,2,,,76,70
32512,note_off,,,,,256,0,10,,,,,3,,,69,100
32512,note_off,,,,,256,0,7,,,,,0,,,85,100
32512,note_off,,,,,256,0,9,,,,,2,,,76,100
32512,note_off,,,,,256,0,8,,,,,1,,,81,100
32640,note_on,,,,,128,0,10,,,,,3,,,73,70
32640,note_on,,,,,128,0,8,,,,,1,,,81,70
32736,note_on,,,,,224,0,7,,,,,0,,,85,100
32800,note_off,,,,,64,0,7,,,,,0,,,85,100
32832,note_on,,,,,32,0,7,,,,,0,,,83,99
32832,note_on,,,,,320,0,9,,,,,2,,,73,70
32896,note_off,,,,,256,0,10,,,,,3,,,73,100
32896,note_off,,,,,256,0,8,,,,,1,,,81,100
32896,note_off,,,,,64,0,7,,,,,0,,,83,100
32928,note_on,,,,,32,0,7,,,,,0,,,85,97
32960,note_off,,,,,128,0,9,,,,,2,,,73,100
32992,note_off,,,,,64,0,7,,,,,0,,,85,100
33024,note_on,,,,,128,0,8,,,,,1,,,81,70
33024,note_on,,,,,64,0,9,,,,,2,,,76,70
33024,note_on,,,,,32,0,7,,,,,0,,,81,96
33024,note_on,,,,,128,0,10,,,,,3,,,73,70
33088,note_off,,,,,64,0,7,,,,,0,,,81,100
33120,note_on,,,,,32,0,7,,,,,0,,,80,94
33152,note_off,,,,,128,0,9,,,,,2,,,76,100
33184,note_off,,,,,64,0,7,,,,,0,,,80,100
33216,note_on,,,,,32,0,7,,,,,0,,,78,92
33216,note_on,,,,,64,0,9,,,,,2,,,81,70
33280,note_off,,,,,256,0,10,,,,,3,,,73,100
33280,note_off,,,,,64,0,7,,,,,0,,,78,100
33280,note_off,,,,,256,0,8,,,,,1,,,81,100
33312,note_on,,,,,32,0,7,,,,,0,,,76,91
33344,note_off,,,,,128,0,9,,,,,2,,,81,100
33376,note_off,,,,,64,0,7,,,,,0,,,76,100
33408,note_on,,,,,64,0,9,,,,,2,,,78,70
33408,note_on,,,,,128,0,8,,,,,1,,,81,70
33408,note_on,,,,,128,0,10,,,,,3,,,71,70
33408,note_on,,,,,32,0,7,,,,,0,,,75,85
33500,note_off,,,,,92,0,7,,,,,0,,,75,100
33504,note_on,,,,,4,0,7,,,,,0,,,76,86
33596,note_off,,,,,92,0,7,,,,,0,,,76,100
33600,note_on,,,,,4,0,7,,,,,0,,,78,88
33664,note_off,,,,,256,0,10,,,,,3,,,71,100
33664,note_off,,,,,256,0,9,,,,,2,,,78,100
33664,note_off,,,,,256,0,8,,,,,1,,,81,100
33664,note_off,,,,,64,0,7,,,,,0,,,78,100
33696,note_on,,,,,32,0,7,,,,,0,,,76,89
33760,note_off,,,,,64,0,7,,,,,0,,,76,100
33792,note_on,,,,,32,0,7,,,,,0,,,75,91
33792,note_on,,,,,128,0,8,,,,,1,,,81,70
33792,note_on,,,,,128,0,10,,,,,3,,,71,70
33856,note_off,,,,,64,0,7,,,,,0,,,75,100
33888,note_on,,,,,32,0,7,,,,,0,,,76,93
33952,note_off,,,,,64,0,7,,,,,0,,,76,100
33984,note_on,,,,,32,0,7,,,,,0,,,78,94
33984,note_on,,,,,320,0,9,,,,,2,,,75,70
34048,note_off,,,,,256,0,8,,,,,1,,,81,100
34048,note_off,,,,,256,0,10,,,,,3,,,71,100
34048,note_off,,,,,64,0,7,,,,,0,,,78,100
34080,note_on,,,,,32,0,7,,,,,0,,,76,96
34112,note_off,,,,,128,0,9,,,,,2,,,75,100
34144,note_off,,,,,64,0,7,,,,,0,,,76,100
34176,note_on,,,,,128,0,10,,,,,3,,,71,70
34176,note_on,,,,,64,0,9,,,,,2,,,78,70
34176,note_on,,,,,32,0,7,,,,,0,,,75,98
34176,note_on,,,,,128,0,8,,,,,1,,,81,70
34240,note_off,,,,,64,0,7,,,,,0,,,75,100
34272,note_on,,,,,32,0,7,,,,,0,,,76,99
34304,note_off,,,,,128,0,9,,,,,2,,,78,100
34336,note_off,,,,,64,0,7,,,,,0,,,76,100
34368,note_on,,,,,32,0,7,,,,,0,,,78,101
34368,note_on,,,,,64,0,9,,,,,2,,,81,70
34432,note_off,,,,,64,0,7,,,,,0,,,78,100
34432,note_off,,,,,256,0,8,,,,,1,,,81,100
34432,note_off,,,,,256,0,10,,,,,3,,,71,100
34464,note_on,,,,,32,0,7,,,,,0,,,75,103
34496,note_off,,,,,128,0,9,,,,,2,,,81,100
34528,note_off,,,,,64,0,7,,,,,0,,,75,100
34560,note_on,,,,,128,0,8,,,,,1,,,80,70
34560,note_on,,,,,32,0,7,,,,,0,,,83,104
34560,note_on,,,,,64,0,9,,,,,2,,,75,70
34560,note_on,,,,,128,0,10,,,,,3,,,71,70
34816,note_off,,,,,256,0,9,,,,,2,,,75,100
34816,note_off,,,,,256,0,10,,,,,3,,,71,100
34816,note_off,,,,,256,0,7,,,,,0,,,83,100
34816,note_off,,,,,256,0,8,,,,,1,,,80,100
34944,note_on,,,,,128,0,10,,,,,3,,,71,70
34944,note_on,,,,,128,0,8,,,,,1,,,80,70
35040,note_on,,,,,224,0,7,,,,,0,,,83,100
35104,note_off,,,,,64,0,7,,,,,0,,,83,100
35136,note_on,,,,,320,0,9,,,,,2,,,71,70
35136,note_on,,,,,32,0,7,,,,,0,,,81,99
35200,note_off,,,,,64,0,7,,,,,0,,,81,100
35200,note_off,,,,,256,0,10,,,,,3,,,71,100
35200,note_off,,,,,256,0,8,,,,,1,,,80,100
35232,note_on,,,,,32,0,7,,,,,0,,,83,97
35264,note_off,,,,,128,0,9,,,,,2,,,71,100
35296,note_off,,,,,64,0,7,,,,,0,,,83,100
35328,note_on,,,,,64,0,9,,,,,2,,,75,70
35328,note_on,,,,,32,0,7,,,,,0,,,80,96
35328,note_on,,,,,128,0,10,,,,,3,,,71,70
35328,note_on,,,,,128,0,8,,,,,1,,,80,70
35392,note_off,,,,,64,0,7,,,,,0,,,80,100
35424,note_on,,,,,32,0,7,,,,,0,,,78,94
35456,note_off,,,,,128,0,9,,,,,2,,,75,100
35488,note_off,,,,,64,0,7,,,,,0,,,78,100
35520,note_on,,,,,32,0,7,,,,,0,,,76,92
35520,note_on,,,,,64,0,9,,,,,2,,,80,70
35584,note_off,,,,,256,0,8,,,,,1,,,80,100
35584,note_off,,,,,256,0,10,,,,,3,,,71,100
35584,note_off,,,,,64,0,7,,,,,0,,,76,100
35616,note_on,,,,,32,0,7,,,,,0,,,75,91
35648,note_off,,,,,128,0,9,,,,,2,,,80,100
35680,note_off,,,,,64,0,7,,,,,0,,,75,100
35712,note_on,,,,,64,0,9,,,,,2,,,76,70
35712,note_on,,,,,128,0,10,,,,,3,,,69,70
35712,note_on,,,,,128,0,8,,,,,1,,,80,70
35712,note_on,,,,,32,0,7,,,,,0,,,73,85
35804,note_off,,,,,92,0,7,,,,,0,,,73,100
35808,note_on,,,,,4,0,7,,,,,0,,,75,86
35900,note_off,,,,,92,0,7,,,,,0,,,75,100
35904,note_on,,,,,4,0,7,,,,,0,,,76,87
35968,note_off,,,,,64,0,7,,,,,0,,,76,100
35968,note_off,,,,,256,0,8,,,,,1,,,80,100
35968,note_off,,,,,256,0,10,,,,,3,,,69,100
35968,note_off,,,,,256,0,9,,,,,2,,,76,100
36000,note_on,,,,,32,0,7,,,,,0,,,75,88
36064,note_off,,,,,64,0,7,,,,,0,,,75,100
36096,note_on,,,,,32,0,7,,,,,0,,,73,89
36096,note_on,,,,,128,0,8,,,,,1,,,80,70
36096,note_on,,,,,128,0,10,,,,,3,,,69,70
36160,note_off,,,,,64,0,7,,,,,0,,,73,100
36192,note_on,,,,,32,0,7,,,,,0,,,75,91
36256,note_off,,,,,64,0,7,,,,,0,,,75,100
36288,note_on,,,,,32,0,7,,,,,0,,,76,92
36288,note_on,,,,,320,0,9,,,,,2,,,73,70
36352,note_off,,,,,256,0,10,,,,,3,,,69,100
36352,note_off,,,,,256,0,8,,,,,1,,,80,100
36352,note_off,,,,,64,0,7,,,,,0,,,76,100
36384,note_on,,,,,32,0,7,,,,,0,,,75,93
36416,note_off,,,,,128,0,9,,,,,2,,,73,100
36448,note_off,,,,,64,0,7,,,,,0,,,75,100
36480,note_on,,,,,64,0,9,,,,,2,,,76,70
36480,note_on,,,,,128,0,8,,,,,1,,,80,70
36480,note_on,,,,,32,0,7,,,,,0,,,73,94
36480,note_on,,,,,128,0,10,,,,,3,,,69,70
36544,note_off,,,,,64,0,7,,,,,0,,,73,100
36576,note_on,,,,,32,0,7,,,,,0,,,75,96
36608,note_off,,,,,128,0,9,,,,,2,,,76,100
36640,note_off,,,,,64,0,7,,,,,0,,,75,100
36672,note_on,,,,,32,0,7,,,,,0,,,76,97
36672,note_on,,,,,64,0,9,,,,,2,,,80,70
36736,note_off,,,,,256,0,10,,,,,3,,,69,100
36736,note_off,,,,,64,0,7,,,,,0,,,76,100
36736,note_off,,,,,256,0,8,,,,,1,,,80,100
36768,note_on,,,,,32,0,7,,,,,0,,,73,98
36800,note_off,,,,,128,0,9,,,,,2,,,80,100
36832,note_off,,,,,64,0,7,,,,,0,,,73,100
36864,note_on,,,,,128,0,10,,,,,3,,,69,70
36864,note_on,,,,,64,0,9,,,,,2,,,73,70
36864,note_on,,,,,32,0,7,,,,,0,,,81,99
36864,note_on,,,,,128,0,8,,,,,1,,,78,70
37120,note_off,,,,,256,0,9,,,,,2,,,73,100
37120,note_off,,,,,256,0,7,,,,,0,,,81,100
37120,note_off,,,,,256,0,10,,,,,3,,,69,100
37120,note_off,,,,,256,0,8,,,,,1,,,78,100
37248,note_on,,,,,128,0,10,,,,,3,,,69,70
37248,note_on,,,,,128,0,8,,,,,1,,,78,70
37344,note_on,,,,,224,0,7,,,,,0,,,81,95
37408,note_off,,,,,64,0,7,,,,,0,,,81,100
37440,note_on,,,,,320,0,9,,,,,2,,,69,70
37440,note_on,,,,,32,0,7,,,,,0,,,80,94
37504,note_off,,,,,256,0,8,,,,,1,,,78,100
37504,note_off,,,,,64,0,7,,,,,0,,,80,100
37504,note_off,,,,,256,0,10,,,,,3,,,69,100
37536,note_on,,,,,32,0,7,,,,,0,,,81,92
37568,note_off,,,,,128,0,9,,,,,2,,,69,100
37600,note_off,,,,,64,0,7,,,,,0,,,81,100
37632,note_on,,,,,32,0,7,,,,,0,,,78,91
37632,note_on,,,,,128,0,8,,,,,1,,,78,70
37632,note_on,,,,,64,0,9,,,,,2,,,73,70
37632,note_on,,,,,128,0,10,,,,,3,,,69,70
37696,note_off,,,,,64,0,7,,,,,0,,,78,100
37728,note_on,,,,,32,0,7,,,,,0,,,76,89
37760,note_off,,,,,128,0,9,,,,,2,,,73,100
37792,note_off,,,,,64,0,7,,,,,0,,,76,100
37824,note_on,,,,,32,0,7,,,,,0,,,75,87
37824,note_on,,,,,64,0,9,,,,,2,,,78,70
37888,note_off,,,,,64,0,7,,,,,0,,,75,100
37888,note_off,,,,,256,0,8,,,,,1,,,78,100
37888,note_off,,,,,256,0,10,,,,,3,,,69,100
37920,note_on,,,,,32,0,7,,,,,0,,,73,86
37952,note_off,,,,,128,0,9,,,,,2,,,78,100
37984,note_off,,,,,64,0,7,,,,,0,,,73,100
38016,note_on,,,,,128,0,8,,,,,1,,,78,70
38016,note_on,,,,,128,0,10,,,,,3,,,68,70
38016,note_on,,,,,64,0,9,,,,,2,,,75,70
38016,note_on,,,,,32,0,7,,,,,0,,,71,85
38108,note_off,,,,,92,0,7,,,,,0,,,71,100
38112,note_on,,,,,4,0,7,,,,,0,,,73,85
38204,note_off,,,,,92,0,7,,,,,0,,,73,100
38208,note_on,,,,,4,0,7,,,,,0,,,75,86
38272,note_off,,,,,256,0,8,,,,,1,,,78,100
38272,note_off,,,,,256,0,10,,,,,3,,,68,100
38272,note_off,,,,,256,0,9,,,,,2,,,75,100
38272,note_off,,,,,64,0,7,,,,,0,,,75,100
38304,note_on,,,,,32,0,7,,,,,0,,,73,87
38368,note_off,,,,,64,0,7,,,,,0,,,73,100
38400,note_on,,,,,32,0,7,,,,,0,,,71,88
38400,note_on,,,,,128,0,8,,,,,1,,,78,70
38400,note_on,,,,,128,0,10,,,,,3,,,68,70
38464,note_off,,,,,64,0,7,,,,,0,,,71,100
38496,note_on,,,,,32,0,7,,,,,0,,,73,89
38560,note_off,,,,,64,0,7,,,,,0,,,73,100
38592,note_on,,,,,32,0,7,,,,,0,,,75,90
38592,note_on,,,,,320,0,9,,,,,2,,,71,70
38656,note_off,,,,,256,0,10,,,,,3,,,68,100
38656,note_off,,,,,64,0,7,,,,,0,,,75,100
38656,note_off,,,,,256,0,8,,,,,1,,,78,100
38688,note_on,,,,,32,0,7,,,,,0,,,73,91
38720,note_off,,,,,128,0,9,,,,,2,,,71,100
38752,note_off,,,,,64,0,7,,,,,0,,,73,100
38784,note_on,,,,,32,0,7,,,,,0,,,71,92
38784,note_on,,,,,128,0,8,,,,,1,,,78,70
38784,note_on,,,,,128,0,10,,,,,3,,,68,70
38784,note_on,,,,,64,0,9,,,,,2,,,75,70
38848,note_off,,,,,64,0,7,,,,,0,,,71,100
38880,note_on,,,,,32,0,7,,,,,0,,,75,93
38912,note_off,,,,,128,0,9,,,,,2,,,75,100
38944,note_off,,,,,64,0,7,,,,,0,,,75,100
38976,note_on,,,,,32,0,7,,,,,0,,,73,94
38976,note_on,,,,,64,0,9,,,,,2,,,78,70
39040,note_off,,,,,256,0,10,,,,,3,,,68,100
39040,note_off,,,,,64,0,7,,,,,0,,,73,100
39040,note_off,,,,,256,0,8,,,,,1,,,78,100
39072,note_on,,,,,32,0,7,,,,,0,,,71,94
39104,note_off,,,,,128,0,9,,,,,2,,,78,100
39136,note_off,,,,,64,0,7,,,,,0,,,71,100
39168,note_on,,,,,32,0,7,,,,,0,,,76,102
39168,note_on,,,,,64,0,9,,,,,2,,,71,70
39168,note_on,,,,,128,0,10,,,,,3,,,68,70
39168,note_on,,,,,128,0,8,,,,,1,,,76,70
39260,note_off,,,,,92,0,7,,,,,0,,,76,100
39264,note_on,,,,,4,0,7,,,,,0,,,80,101
39356,note_off,,,,,92,0,7,,,,,0,,,80,100
39360,note_on,,,,,4,0,7,,,,,0,,,78,100
39424,note_off,,,,,256,0,8,,,,,1,,,76,100
39424,note_off,,,,,64,0,7,,,,,0,,,78,100
39424,note_off,,,,,256,0,10,,,,,3,,,68,100
39424,note_off,,,,,256,0,9,,,,,2,,,71,100
39456,note_on,,,,,32,0,7,,,,,0,,,80,99
39520,note_off,,,,,64,0,7,,,,,0,,,80,100
39552,note_on,,,,,128,0,10,,,,,3,,,68,70
39552,note_on,,,,,32,0,7,,,,,0,,,76,98
39552,note_on,,,,,128,0,8,,,,,1,,,76,70
39616,note_off,,,,,64,0,7,,,,,0,,,76,100
39648,note_on,,,,,32,0,7,,,,,0,,,78,97
39712,note_off,,,,,64,0,7,,,,,0,,,78,100
39744,note_on,,,,,32,0,7,,,,,0,,,75,95
39744,note_on,,,,,320,0,9,,,,,2,,,68,70
39808,note_off,,,,,256,0,8,,,,,1,,,76,100
39808,note_off,,,,,64,0,7,,,,,0,,,75,100
39808,note_off,,,,,256,0,10,,,,,3,,,68,100
39840,note_on,,,,,32,0,7,,,,,0,,,76,96
39872,note_off,,,,,128,0,9,,,,,2,,,68,100
39904,note_off,,,,,64,0,7,,,,,0,,,76,100
39936,note_on,,,,,32,0,7,,,,,0,,,73,97
39936,note_on,,,,,128,0,10,,,,,3,,,68,70
39936,note_on,,,,,128,0,8,,,,,1,,,76,70
39936,note_on,,,,,64,0,9,,,,,2,,,71,70
40000,note_off,,,,,64,0,7,,,,,0,,,73,100
40032,note_on,,,,,32,0,7,,,,,0,,,75,99
40064,note_off,,,,,128,0,9,,,,,2,,,71,100
40096,note_off,,,,,64,0,7,,,,,0,,,75,100
40128,note_on,,,,,32,0,7,,,,,0,,,71,100
40128,note_on,,,,,64,0,9,,,,,2,,,76,70
40192,note_off,,,,,256,0,10,,,,,3,,,68,100
40192,note_off,,,,,64,0,7,,,,,0,,,71,100
40192,note_off,,,,,256,0,8,,,,,1,,,76,100
40224,note_on,,,,,32,0,7,,,,,0,,,73,101
40256,note_off,,,,,128,0,9,,,,,2,,,76,100
40288,note_off,,,,,64,0,7,,,,,0,,,73,100
40320,note_on,,,,,128,0,8,,,,,1,,,76,70
40320,note_on,,,,,128,0,10,,,,,3,,,58,70
40320,note_on,,,,,64,0,9,,,,,2,,,73,70
40320,note_on,,,,,32,0,7,,,,,0,,,66,105
40508,note_off,,,,,188,0,7,,,,,0,,,66,100
40512,note_on,,,,,4,0,7,,,,,0,,,70,104
40576,note_off,,,,,256,0,10,,,,,3,,,58,100
40576,note_off,,,,,256,0,8,,,,,1,,,76,100
40576,note_off,,,,,256,0,9,,,,,2,,,73,100
40700,note_off,,,,,188,0,7,,,,,0,,,70,100
40704,note_on,,,,,128,0,9,,,,,2,,,73,70
40704,note_on,,,,,128,0,10,,,,,3,,,58,70
40704,note_on,,,,,4,0,7,,,,,0,,,76,102
40704,note_on,,,,,128,0,8,,,,,1,,,76,70
40892,note_off,,,,,188,0,7,,,,,0,,,76,100
40896,note_on,,,,,4,0,7,,,,,0,,,80,100
40960,note_off,,,,,256,0,8,,,,,1,,,76,100
40960,note_off,,,,,256,0,9,,,,,2,,,73,100
40960,note_off,,,,,256,0,10,,,,,3,,,58,100
41024,note_off,,,,,128,0,7,,,,,0,,,80,100
41088,note_on,,,,,128,0,9,,,,,2,,,73,70
41088,note_on,,,,,128,0,10,,,,,3,,,58,70
41088,note_on,,,,,128,0,8,,,,,1,,,76,70
41088,note_on,,,,,64,0,7,,,,,0,,,76,98
41276,note_off,,,,,188,0,7,,,,,0,,,76,100
41280,note_on,,,,,4,0,7,,,,,0,,,70,96
41344,note_off,,,,,256,0,9,,,,,2,,,73,100
41344,note_off,,,,,256,0,8,,,,,1,,,76,100
41344,note_off,,,,,256,0,10,,,,,3,,,58,100
41408,note_off,,,,,128,0,7,,,,,0,,,70,100
41472,note_on,,,,,128,0,10,,,,,3,,,58,70
41472,note_on,,,,,64,0,7,,,,,0,,,66,100
41472,note_on,,,,,128,0,8,,,,,1,,,76,70
41472,note_on,,,,,128,0,9,,,,,2,,,73,70
41660,note_off,,,,,188,0,7,,,,,0,,,66,100
41664,note_on,,,,,4,0,7,,,,,0,,,70,100
41728,note_off,,,,,256,0,10,,,,,3,,,58,100
41728,note_off,,,,,256,0,9,,,,,2,,,73,100
41728,note_off,,,,,256,0,8,,,,,1,,,76,100
41852,note_off,,,,,188,0,7,,,,,0,,,70,100
41856,note_on,,,,,128,0,9,,,,,2,,,73,70
41856,note_on,,,,,4,0,7,,,,,0,,,76,99
41856,note_on,,,,,128,0,8,,,,,1,,,76,70
41856,note_on,,,,,128,0,10,,,,,3,,,58,70
42044,note_off,,,,,188,0,7,,,,,0,,,76,100
42048,note_on,,,,,4,0,7,,,,,0,,,80,98
42112,note_off,,,,,256,0,10,,,,,3,,,58,100
42112,note_off,,,,,256,0,9,,,,,2,,,73,100
42112,note_off,,,,,256,0,8,,,,,1,,,76,100
42176,note_off,,,,,128,0,7,,,,,0,,,80,100
42240,note_on,,,,,64,0,7,,,,,0,,,76,97
42240,note_on,,,,,128,0,8,,,,,1,,,76,70
42240,note_on,,,,,128,0,9,,,,,2,,,73,70
42240,note_on,,,,,128,0,10,,,,,3,,,58,70
42428,note_off,,,,,188,0,7,,,,,0,,,76,100
42432,note_on,,,,,4,0,7,,,,,0,,,70,96
42496,note_off,,,,,256,0,9,,,,,2,,,73,100
42496,note_off,,,,,256,0,10,,,,,3,,,58,100
42496,note_off,,,,,256,0,8,,,,,1,,,76,100
42560,note_off,,,,,128,0,7,,,,,0,,,70,100
42624,note_on,,,,,128,0,8,,,,,1,,,76,70
42624,note_on,,,,,128,0,9,,,,,2,,,73,70
42624,note_on,,,,,64,0,7,,,,,0,,,66,95
42624,note_on,,,,,128,0,10,,,,,3,,,58,70
42812,note_off,,,,,188,0,7,,,,,0,,,66,100
42816,note_on,,,,,4,0,7,,,,,0,,,70,95
42880,note_off,,,,,256,0,8,,,,,1,,,76,100
42880,note_off,,,,,256,0,9,,,,,2,,,73,100
42880,note_off,,,,,256,0,10,,,,,3,,,58,100
43004,note_off,,,,,188,0,7,,,,,0,,,70,100
43008,note_on,,,,,128,0,9,,,,,2,,,73,70
43008,note_on,,,,,128,0,8,,,,,1,,,76,70
43008,note_on,,,,,128,0,10,,,,,3,,,58,70
43008,note_on,,,,,4,0,7,,,,,0,,,76,94
43196,note_off,,,,,188,0,7,,,,,0,,,76,100
43200,note_on,,,,,4,0,7,,,,,0,,,80,93
43264,note_off,,,,,256,0,10,,,,,3,,,58,100
43264,note_off,,,,,256,0,8,,,,,1,,,76,100
43264,note_off,,,,,256,0,9,,,,,2,,,73,100
43328,note_off,,,,,128,0,7,,,,,0,,,80,100
43392,note_on,,,,,128,0,8,,,,,1,,,76,70
43392,note_on,,,,,128,0,9,,,,,2,,,73,70
43392,note_on,,,,,128,0,10,,,,,3,,,58,70
43392,note_on,,,,,64,0,7,,,,,0,,,78,92
43580,note_off,,,,,188,0,7,,,,,0,,,78,100
43584,note_on,,,,,4,0,7,,,,,0,,,73,91
43648,note_off,,,,,256,0,9,,,,,2,,,73,100
43648,note_off,,,,,256,0,8,,,,,1,,,76,100
43648,note_off,,,,,256,0,10,,,,,3,,,58,100
43712,note_off,,,,,128,0,7,,,,,0,,,73,100
43776,note_on,,,,,64,0,7,,,,,0,,,75,90
43776,note_on,,,,,128,0,10,,,,,3,,,59,70
43776,note_on,,,,,128,0,8,,,,,1,,,75,70
43776,note_on,,,,,128,0,9,,,,,2,,,66,70
43964,note_off,,,,,188,0,7,,,,,0,,,75,100
43968,note_on,,,,,4,0,7,,,,,0,,,71,91
44032,note_off,,,,,256,0,9,,,,,2,,,66,100
44032,note_off,,,,,256,0,10,,,,,3,,,59,100
44032,note_off,,,,,256,0,8,,,,,1,,,75,100
44096,note_off,,,,,128,0,7,,,,,0,,,71,100
44160,note_on,,,,,64,0,7,,,,,0,,,78,93
44348,note_off,,,,,188,0,7,,,,,0,,,78,100
44352,note_on,,,,,4,0,7,,,,,0,,,75,94
44480,note_off,,,,,128,0,7,,,,,0,,,75,100
44544,note_on,,,,,64,0,7,,,,,0,,,80,96
44732,note_off,,,,,188,0,7,,,,,0,,,80,100
44736,note_on,,,,,4,0,7,,,,,0,,,76,98
44864,note_off,,,,,128,0,7,,,,,0,,,76,100
44928,note_on,,,,,896,0,8,,,,,1,,,73,70
44928,note_on,,,,,64,0,7,,,,,0,,,82,99
44928,note_on,,,,,896,0,10,,,,,3,,,66,70
44928,note_on,,,,,896,0,9,,,,,2,,,70,70
45312,note_off,,,,,384,0,10,,,,,3,,,66,100
45312,note_off,,,,,384,0,7,,,,,0,,,82,100
45504,note_on,,,,,192,0,7,,,,,0,,,78,95
45504,note_on,,,,,192,0,10,,,,,3,,,64,70
45616,note_off,,,,,688,0,8,,,,,1,,,73,100
45616,note_off,,,,,688,0,9,,,,,2,,,70,100
45632,note_off,,,,,128,0,10,,,,,3,,,64,100
45632,note_off,,,,,128,0,7,,,,,0,,,78,100
45696,note_on,,,,,80,0,8,,,,,1,,,71,70
45696,note_on,,,,,64,0,7,,,,,0,,,83,96
45696,note_on,,,,,64,0,10,,,,,3,,,63,70
45696,note_on,,,,,80,0,9,,,,,2,,,66,70
45824,note_off,,,,,128,0,7,,,,,0,,,83,100
45888,note_on,,,,,64,0,7,,,,,0,,,78,97
45952,note_off,,,,,256,0,9,,,,,2,,,66,100
45952,note_off,,,,,256,0,10,,,,,3,,,63,100
46016,note_off,,,,,128,0,7,,,,,0,,,78,100
46080,note_on,,,,,128,0,9,,,,,2,,,68,74
46080,note_on,,,,,128,0,10,,,,,3,,,64,74
46080,note_on,,,,,64,0,7,,,,,0,,,76,98
46208,note_off,,,,,128,0,7,,,,,0,,,76,100
46272,note_on,,,,,64,0,7,,,,,0,,,75,100
46336,note_off,,,,,256,0,9,,,,,2,,,68,100
46336,note_off,,,,,256,0,10,,,,,3,,,64,100
46384,note_off,,,,,688,0,8,,,,,1,,,71,100
46400,note_off,,,,,128,0,7,,,,,0,,,75,100
46464,note_on,,,,,80,0,8,,,,,1,,,70,78
46464,note_on,,,,,128,0,10,,,,,3,,,66,78
46464,note_on,,,,,128,0,9,,,,,2,,,73,78
46464,note_on,,,,,64,0,7,,,,,0,,,66,96
46464,note_on,,,,,0,0,7,,,,,0,,,75,101
46556,note_off,,,,,92,0,7,,,,,0,,,75,100
46560,note_on,,,,,4,0,7,,,,,0,,,73,102
46652,note_off,,,,,92,0,7,,,,,0,,,73,100
46656,note_on,,,,,4,0,7,,,,,0,,,75,102
46716,note_off,,,,,60,0,7,,,,,0,,,75,100
46720,note_off,,,,,256,0,10,,,,,3,,,66,100
46720,note_on,,,,,4,0,7,,,,,0,,,73,103
46768,note_off,,,,,48,0,7,,,,,0,,,66,100
46780,note_off,,,,,12,0,7,,,,,0,,,73,100
46784,note_on,,,,,4,0,7,,,,,0,,,75,103
46844,note_off,,,,,60,0,7,,,,,0,,,75,100
46848,note_on,,,,,128,0,10,,,,,3,,,66,82
46848,note_off,,,,,384,0,9,,,,,2,,,73,100
46848,note_off,,,,,384,0,8,,,,,1,,,70,100
46848,note_on,,,,,4,0,7,,,,,0,,,73,104
46976,note_off,,,,,128,0,7,,,,,0,,,73,100
47040,note_on,,,,,192,0,9,,,,,2,,,78,84
47040,note_on,,,,,192,0,8,,,,,1,,,70,84
47040,note_on,,,,,64,0,7,,,,,0,,,71,105
47104,note_off,,,,,256,0,10,,,,,3,,,66,100
47168,note_off,,,,,128,0,9,,,,,2,,,78,100
47168,note_off,,,,,128,0,7,,,,,0,,,71,100
47168,note_off,,,,,128,0,8,,,,,1,,,70,100
47232,note_on,,,,,22784,0,14,,,,,6,,,47,100
47232,note_on,,,,,22784,0,12,,,,,5,,,35,100
47232,note_on,,,,,0,0,13,,,,,6,,,63,100
47232,note_on,,,,,64,0,7,,,,,0,,,71,106
47232,note_on,,,,,22784,0,13,,,,,6,,,66,100
47232,note_on,,,,,22784,0,11,,,,,4,,,47,100
47232,note_on,,,,,128,0,10,,,,,3,,,66,100
47232,note_on,,,,,64,0,9,,,,,2,,,75,99
47232,note_on,,,,,64,0,8,,,,,1,,,71,99
47360,note_off,,,,,128,0,8,,,,,1,,,71,100
47424,note_on,,,,,64,0,8,,,,,1,,,75,100
47432,note_off,,,,,200,0,13,,,,,6,,,66,100
47432,note_off,,,,,200,0,10,,,,,3,,,66,100
47432,note_off,,,,,0,0,13,,,,,6,,,63,100
47432,note_off,,,,,200,0,12,,,,,5,,,35,100
47432,note_off,,,,,200,0,11,,,,,4,,,47,100
47432,note_off,,,,,200,0,14,,,,,6,,,47,100
47488,note_off,,,,,256,0,9,,,,,2,,,75,100
47488,note_off,,,,,256,0,7,,,,,0,,,71,100
47552,note_off,,,,,128,0,8,,,,,1,,,75,100
47616,note_on,,,,,64,0,8,,,,,1,,,71,100
47616,note_on,,,,,184,0,14,,,,,6,,,59,100
47616,note_on,,,,,0,0,13,,,,,6,,,66,100
47616,note_on,,,,,184,0,10,,,,,3,,,63,100
47616,note_on,,,,,184,0,11,,,,,4,,,59,100
47616,note_on,,,,,184,0,12,,,,,5,,,47,100
47616,note_on,,,,,184,0,13,,,,,6,,,75,100
47744,note_off,,,,,128,0,8,,,,,1,,,71,100
47808,note_on,,,,,64,0,8,,,,,1,,,66,100
47808,note_on,,,,,320,0,9,,,,,2,,,75,100
47816,note_off,,,,,200,0,11,,,,,4,,,59,100
47816,note_off,,,,,0,0,13,,,,,6,,,66,100
47816,note_off,,,,,200,0,14,,,,,6,,,59,100
47816,note_off,,,,,200,0,13,,,,,6,,,75,100
47816,note_off,,,,,200,0,10,,,,,3,,,63,100
47816,note_off,,,,,200,0,12,,,,,5,,,47,100
47936,note_off,,,,,128,0,8,,,,,1,,,66,100
47936,note_off,,,,,128,0,9,,,,,2,,,75,100
48000,note_on,,,,,64,0,8,,,,,1,,,63,100
48000,note_on,,,,,64,0,9,,,,,2,,,71,100
48128,note_off,,,,,128,0,8,,,,,1,,,63,100
48128,note_off,,,,,128,0,9,,,,,2,,,71,100
48192,note_on,,,,,64,0,9,,,,,2,,,66,100
48192,note_on,,,,,64,0,8,,,,,1,,,59,100
48320,note_off,,,,,128,0,9,,,,,2,,,66,100
48320,note_off,,,,,128,0,8,,,,,1,,,59,100
48384,note_on,,,,,568,0,13,,,,,6,,,66,100
48384,note_on,,,,,0,0,13,,,,,6,,,63,100
48384,note_on,,,,,568,0,12,,,,,5,,,35,100
48384,note_on,,,,,568,0,11,,,,,4,,,47,100
48384,note_on,,,,,64,0,9,,,,,2,,,66,100
48384,note_on,,,,,568,0,14,,,,,6,,,47,100
48384,note_on,,,,,64,0,8,,,,,1,,,71,100
48384,note_on,,,,,568,0,10,,,,,3,,,63,100
48584,note_off,,,,,200,0,14,,,,,6,,,47,100
48584,note_off,,,,,200,0,13,,,,,6,,,66,100
48584,note_off,,,,,200,0,12,,,,,5,,,35,100
48584,note_off,,,,,0,0,13,,,,,6,,,63,100
48584,note_off,,,,,200,0,11,,,,,4,,,47,100
48584,note_off,,,,,200,0,10,,,,,3,,,63,100
48584,note_off,,,,,200,0,9,,,,,2,,,66,100
48584,note_off,,,,,200,0,8,,,,,1,,,71,100
48768,note_on,,,,,0,0,13,,,,,6,,,66,100
48768,note_on,,,,,184,0,13,,,,,6,,,75,100
48768,note_on,,,,,184,0,8,,,,,1,,,75,100
48768,note_on,,,,,184,0,10,,,,,3,,,66,100
48768,note_on,,,,,184,0,14,,,,,6,,,59,100
48768,note_on,,,,,184,0,12,,,,,5,,,47,100
48768,note_on,,,,,184,0,9,,,,,2,,,71,100
48768,note_on,,,,,184,0,11,,,,,4,,,59,100
48968,note_off,,,,,200,0,14,,,,,6,,,59,100
48968,note_off,,,,,200,0,12,,,,,5,,,47,100
48968,note_off,,,,,200,0,9,,,,,2,,,71,100
48968,note_off,,,,,200,0,8,,,,,1,,,75,100
48968,note_off,,,,,0,0,13,,,,,6,,,66,100
48968,note_off,,,,,200,0,10,,,,,3,,,66,100
48968,note_off,,,,,200,0,13,,,,,6,,,75,100
48968,note_off,,,,,200,0,11,,,,,4,,,59,100
49536,note_on,,,,,568,0,10,,,,,3,,,66,100
49536,note_on,,,,,568,0,9,,,,,2,,,70,100
49536,note_on,,,,,568,0,13,,,,,6,,,61,100
49536,note_on,,,,,568,0,8,,,,,1,,,73,100
49536,note_on,,,,,568,0,14,,,,,6,,,42,100
49536,note_on,,,,,568,0,11,,,,,4,,,42,100
49536,note_on,,,,,0,0,13,,,,,6,,,58,100
49536,note_on,,,,,568,0,12,,,,,5,,,42,100
49664,note_off,,,,,128,0,8,,,,,1,,,73,100
49728,note_on,,,,,64,0,8,,,,,1,,,78,100
49736,note_off,,,,,200,0,13,,,,,6,,,61,100
49736,note_off,,,,,0,0,13,,,,,6,,,58,100
49736,note_off,,,,,200,0,11,,,,,4,,,42,100
49736,note_off,,,,,200,0,10,,,,,3,,,66,100
49736,note_off,,,,,200,0,14,,,,,6,,,42,100
49736,note_off,,,,,200,0,12,,,,,5,,,42,100
49792,note_off,,,,,256,0,9,,,,,2,,,70,100
49856,note_off,,,,,128,0,8,,,,,1,,,78,100
49920,note_on,,,,,184,0,13,,,,,6,,,70,100
49920,note_on,,,,,64,0,8,,,,,1,,,73,100
49920,note_on,,,,,184,0,11,,,,,4,,,54,100
49920,note_on,,,,,184,0,14,,,,,6,,,54,100
49920,note_on,,,,,184,0,10,,,,,3,,,70,100
49920,note_on,,,,,184,0,12,,,,,5,,,42,100
49920,note_on,,,,,0,0,13,,,,,6,,,61,100
50048,note_off,,,,,128,0,8,,,,,1,,,73,100
50112,note_on,,,,,320,0,9,,,,,2,,,73,100
50112,note_on,,,,,64,0,8,,,,,1,,,70,100
50120,note_off,,,,,200,0,13,,,,,6,,,70,100
50120,note_off,,,,,0,0,13,,,,,6,,,61,100
50120,note_off,,,,,200,0,10,,,,,3,,,70,100
50120,note_off,,,,,200,0,11,,,,,4,,,54,100
50120,note_off,,,,,200,0,14,,,,,6,,,54,100
50120,note_off,,,,,200,0,12,,,,,5,,,42,100
50240,note_off,,,,,128,0,9,,,,,2,,,73,100
50240,note_off,,,,,128,0,8,,,,,1,,,70,100
50304,note_on,,,,,64,0,8,,,,,1,,,66,100
50304,note_on,,,,,64,0,9,,,,,2,,,70,100
50432,note_off,,,,,128,0,9,,,,,2,,,70,100
50432,note_off,,,,,128,0,8,,,,,1,,,66,100
50496,note_on,,,,,64,0,9,,,,,2,,,66,100
50496,note_on,,,,,64,0,8,,,,,1,,,61,100
50624,note_off,,,,,128,0,9,,,,,2,,,66,100
50624,note_off,,,,,128,0,8,,,,,1,,,61,100
50688,note_on,,,,,568,0,10,,,,,3,,,66,100
50688,note_on,,,,,568,0,11,,,,,4,,,42,100
50688,note_on,,,,,0,0,13,,,,,6,,,58,100
50688,note_on,,,,,568,0,12,,,,,5,,,42,100
50688,note_on,,,,,64,0,9,,,,,2,,,70,100
50688,note_on,,,,,568,0,13,,,,,6,,,61,100
50688,note_on,,,,,568,0,14,,,,,6,,,42,100
50688,note_on,,,,,64,0,8,,,,,1,,,73,100
50888,note_off,,,,,200,0,14,,,,,6,,,42,100
50888,note_off,,,,,0,0,13,,,,,6,,,58,100
50888,note_off,,,,,200,0,13,,,,,6,,,61,100
50888,note_off,,,,,200,0,8,,,,,1,,,73,100
50888,note_off,,,,,200,0,12,,,,,5,,,42,100
50888,note_off,,,,,200,0,10,,,,,3,,,66,100
50888,note_off,,,,,200,0,11,,,,,4,,,42,100
50888,note_off,,,,,200,0,9,,,,,2,,,70,100
51072,note_on,,,,,184,0,9,,,,,2,,,73,100
51072,note_on,,,,,184,0,12,,,,,5,,,42,100
51072,note_on,,,,,184,0,11,,,,,4,,,54,100
51072,note_on,,,,,184,0,8,,,,,1,,,78,100
51072,note_on,,,,,184,0,10,,,,,3,,,70,100
51072,note_on,,,,,184,0,14,,,,,6,,,54,100
51072,note_on,,,,,0,0,13,,,,,6,,,61,100
51072,note_on,,,,,184,0,13,,,,,6,,,70,100
51272,note_off,,,,,200,0,8,,,,,1,,,78,100
51272,note_off,,,,,200,0,10,,,,,3,,,70,100
51272,note_off,,,,,0,0,13,,,,,6,,,61,100
51272,note_off,,,,,200,0,14,,,,,6,,,54,100
51272,note_off,,,,,200,0,13,,,,,6,,,70,100
51272,note_off,,,,,200,0,9,,,,,2,,,73,100
51272,note_off,,,,,200,0,12,,,,,5,,,42,100
51272,note_off,,,,,200,0,11,,,,,4,,,54,100
51840,note_on,,,,,568,0,12,,,,,5,,,35,100
51840,note_on,,,,,0,0,13,,,,,6,,,66,100
51840,note_on,,,,,568,0,13,,,,,6,,,63,100
51840,note_on,,,,,568,0,9,,,,,2,,,71,100
51840,note_on,,,,,568,0,11,,,,,4,,,47,100
51840,note_on,,,,,568,0,8,,,,,1,,,75,100
51840,note_on,,,,,568,0,10,,,,,3,,,66,100
51840,note_on,,,,,568,0,14,,,,,6,,,47,100
51968,note_off,,,,,128,0,10,,,,,3,,,66,100
51968,note_off,,,,,128,0,8,,,,,1,,,75,100
52032,note_on,,,,,64,0,10,,,,,3,,,75,100
52032,note_on,,,,,64,0,8,,,,,1,,,83,100
52096,note_off,,,,,256,0,9,,,,,2,,,71,100
52096,note_off,,,,,256,0,12,,,,,5,,,35,100
52096,note_off,,,,,256,0,11,,,,,4,,,47,100
52096,note_off,,,,,256,0,13,,,,,6,,,63,100
52096,note_off,,,,,0,0,13,,,,,6,,,66,100
52096,note_off,,,,,256,0,14,,,,,6,,,47,100
52160,note_off,,,,,128,0,10,,,,,3,,,75,100
52160,note_off,,,,,128,0,8,,,,,1,,,83,100
52224,note_on,,,,,64,0,8,,,,,1,,,78,99
52224,note_on,,,,,0,0,13,,,,,6,,,66,100
52224,note_on,,,,,128,0,11,,,,,4,,,51,99
52224,note_on,,,,,128,0,12,,,,,5,,,39,99
52224,note_on,,,,,64,0,10,,,,,3,,,71,99
52224,note_on,,,,,128,0,13,,,,,6,,,71,100
52224,note_on,,,,,128,0,14,,,,,6,,,51,100
52352,note_off,,,,,128,0,8,,,,,1,,,78,100
52352,note_off,,,,,128,0,10,,,,,3,,,71,100
52416,note_on,,,,,64,0,8,,,,,1,,,75,99
52416,note_on,,,,,320,0,9,,,,,2,,,83,99
52416,note_on,,,,,64,0,10,,,,,3,,,66,99
52480,note_off,,,,,256,0,13,,,,,6,,,71,100
52480,note_off,,,,,0,0,13,,,,,6,,,66,100
52480,note_off,,,,,256,0,11,,,,,4,,,51,100
52480,note_off,,,,,256,0,14,,,,,6,,,51,100
52480,note_off,,,,,256,0,12,,,,,5,,,39,100
52544,note_off,,,,,128,0,8,,,,,1,,,75,100
52544,note_off,,,,,128,0,9,,,,,2,,,83,100
52544,note_off,,,,,128,0,10,,,,,3,,,66,100
52608,note_on,,,,,128,0,12,,,,,5,,,39,98
52608,note_on,,,,,64,0,10,,,,,3,,,63,98
52608,note_on,,,,,128,0,11,,,,,4,,,51,98
52608,note_on,,,,,128,0,13,,,,,6,,,71,100
52608,note_on,,,,,0,0,13,,,,,6,,,66,100
52608,note_on,,,,,64,0,9,,,,,2,,,78,98
52608,note_on,,,,,128,0,14,,,,,6,,,51,100
52608,note_on,,,,,64,0,8,,,,,1,,,71,98
52736,note_off,,,,,128,0,9,,,,,2,,,78,100
52736,note_off,,,,,128,0,10,,,,,3,,,63,100
52800,note_on,,,,,64,0,9,,,,,2,,,75,97
52800,note_on,,,,,64,0,10,,,,,3,,,59,97
52864,note_off,,,,,256,0,13,,,,,6,,,71,100
52864,note_off,,,,,0,0,13,,,,,6,,,66,100
52864,note_off,,,,,256,0,11,,,,,4,,,51,100
52864,note_off,,,,,256,0,14,,,,,6,,,51,100
52864,note_off,,,,,256,0,8,,,,,1,,,71,100
52864,note_off,,,,,256,0,12,,,,,5,,,39,100
52928,note_off,,,,,128,0,9,,,,,2,,,75,100
52928,note_off,,,,,128,0,10,,,,,3,,,59,100
52992,note_on,,,,,128,0,12,,,,,5,,,39,97
52992,note_on,,,,,0,0,13,,,,,6,,,71,100
52992,note_on,,,,,128,0,14,,,,,6,,,51,100
52992,note_on,,,,,64,0,10,,,,,3,,,66,97
52992,note_on,,,,,64,0,9,,,,,2,,,71,97
52992,note_on,,,,,128,0,13,,,,,6,,,69,100
52992,note_on,,,,,128,0,11,,,,,4,,,51,97
53120,note_off,,,,,128,0,10,,,,,3,,,66,100
53184,note_on,,,,,320,0,8,,,,,1,,,81,96
53184,note_on,,,,,64,0,10,,,,,3,,,66,96
53248,note_off,,,,,256,0,13,,,,,6,,,69,100
53248,note_off,,,,,256,0,12,,,,,5,,,39,100
53248,note_off,,,,,0,0,13,,,,,6,,,71,100
53248,note_off,,,,,256,0,14,,,,,6,,,51,100
53248,note_off,,,,,256,0,9,,,,,2,,,71,100
53248,note_off,,,,,256,0,11,,,,,4,,,51,100
53312,note_off,,,,,128,0,8,,,,,1,,,81,100
53312,note_off,,,,,128,0,10,,,,,3,,,66,100
53376,note_on,,,,,64,0,10,,,,,3,,,71,96
53376,note_on,,,,,128,0,14,,,,,6,,,51,100
53376,note_on,,,,,64,0,8,,,,,1,,,78,96
53376,note_on,,,,,128,0,11,,,,,4,,,51,96
53376,note_on,,,,,0,0,13,,,,,6,,,71,100
53376,note_on,,,,,128,0,13,,,,,6,,,69,100
53376,note_on,,,,,128,0,12,,,,,5,,,39,96
53504,note_off,,,,,128,0,10,,,,,3,,,71,100
53504,note_off,,,,,128,0,8,,,,,1,,,78,100
53568,note_on,,,,,64,0,10,,,,,3,,,66,95
53568,note_on,,,,,64,0,8,,,,,1,,,75,95
53568,note_on,,,,,320,0,9,,,,,2,,,83,95
53632,note_off,,,,,256,0,11,,,,,4,,,51,100
53632,note_off,,,,,256,0,12,,,,,5,,,39,100
53632,note_off,,,,,256,0,13,,,,,6,,,69,100
53632,note_off,,,,,0,0,13,,,,,6,,,71,100
53632,note_off,,,,,256,0,14,,,,,6,,,51,100
53696,note_off,,,,,128,0,9,,,,,2,,,83,100
53696,note_off,,,,,128,0,8,,,,,1,,,75,100
53696,note_off,,,,,128,0,10,,,,,3,,,66,100
53760,note_on,,,,,128,0,14,,,,,6,,,51,100
53760,note_on,,,,,128,0,11,,,,,4,,,51,94
53760,note_on,,,,,128,0,12,,,,,5,,,39,94
53760,note_on,,,,,64,0,10,,,,,3,,,63,94
53760,note_on,,,,,128,0,13,,,,,6,,,69,100
53760,note_on,,,,,0,0,13,,,,,6,,,71,100
53760,note_on,,,,,64,0,8,,,,,1,,,71,94
53760,note_on,,,,,64,0,9,,,,,2,,,78,94
53888,note_off,,,,,128,0,10,,,,,3,,,63,100
53888,note_off,,,,,128,0,9,,,,,2,,,78,100
53888,note_off,,,,,128,0,8,,,,,1,,,71,100
53952,note_on,,,,,64,0,10,,,,,3,,,66,94
53952,note_on,,,,,64,0,9,,,,,2,,,75,94
53952,note_on,,,,,64,0,8,,,,,1,,,81,94
54016,note_off,,,,,256,0,12,,,,,5,,,39,100
54016,note_off,,,,,256,0,13,,,,,6,,,69,100
54016,note_off,,,,,256,0,11,,,,,4,,,51,100
54016,note_off,,,,,0,0,13,,,,,6,,,71,100
54016,note_off,,,,,256,0,14,,,,,6,,,51,100
54080,note_off,,,,,128,0,8,,,,,1,,,81,100
54080,note_off,,,,,128,0,10,,,,,3,,,66,100
54080,note_off,,,,,128,0,9,,,,,2,,,75,100
54144,note_on,,,,,128,0,14,,,,,6,,,52,100
54144,note_on,,,,,128,0,13,,,,,6,,,68,100
54144,note_on,,,,,128,0,12,,,,,5,,,40,93
54144,note_on,,,,,64,0,8,,,,,1,,,80,93
54144,note_on,,,,,64,0,10,,,,,3,,,64,93
54144,note_on,,,,,64,0,9,,,,,2,,,71,93
54144,note_on,,,,,128,0,11,,,,,4,,,52,93
54144,note_on,,,,,0,0,13,,,,,6,,,71,100
54272,note_off,,,,,128,0,9,,,,,2,,,71,100
54272,note_off,,,,,128,0,10,,,,,3,,,64,100
54336,note_on,,,,,64,0,9,,,,,2,,,76,92
54336,note_on,,,,,64,0,10,,,,,3,,,68,92
54400,note_off,,,,,256,0,12,,,,,5,,,40,100
54400,note_off,,,,,256,0,11,,,,,4,,,52,100
54400,note_off,,,,,256,0,14,,,,,6,,,52,100
54400,note_off,,,,,256,0,8,,,,,1,,,80,100
54400,note_off,,,,,256,0,13,,,,,6,,,68,100
54400,note_off,,,,,0,0,13,,,,,6,,,71,100
54464,note_off,,,,,128,0,10,,,,,3,,,68,100
54464,note_off,,,,,128,0,9,,,,,2,,,76,100
54528,note_on,,,,,128,0,12,,,,,5,,,32,92
54528,note_on,,,,,128,0,14,,,,,6,,,44,100
54528,note_on,,,,,64,0,10,,,,,3,,,64,92
54528,note_on,,,,,128,0,11,,,,,4,,,44,92
54528,note_on,,,,,64,0,9,,,,,2,,,71,92
54528,note_on,,,,,0,0,13,,,,,6,,,59,100
54528,note_on,,,,,128,0,13,,,,,6,,,64,100
54656,note_off,,,,,128,0,10,,,,,3,,,64,100
54656,note_off,,,,,128,0,9,,,,,2,,,71,100
54720,note_on,,,,,320,0,8,,,,,1,,,76,91
54720,note_on,,,,,64,0,9,,,,,2,,,68,91
54720,note_on,,,,,64,0,10,,,,,3,,,59,91
54784,note_off,,,,,0,0,13,,,,,6,,,59,100
54784,note_off,,,,,256,0,11,,,,,4,,,44,100
54784,note_off,,,,,256,0,12,,,,,5,,,32,100
54784,note_off,,,,,256,0,14,,,,,6,,,44,100
54784,note_off,,,,,256,0,13,,,,,6,,,64,100
54848,note_off,,,,,128,0,8,,,,,1,,,76,100
54848,note_off,,,,,128,0,9,,,,,2,,,68,100
54848,note_off,,,,,128,0,10,,,,,3,,,59,100
54912,note_on,,,,,128,0,11,,,,,4,,,44,91
54912,note_on,,,,,128,0,14,,,,,6,,,44,100
54912,note_on,,,,,64,0,8,,,,,1,,,71,91
54912,note_on,,,,,64,0,10,,,,,3,,,56,91
54912,note_on,,,,,128,0,12,,,,,5,,,32,91
54912,note_on,,,,,128,0,13,,,,,6,,,64,100
54912,note_on,,,,,64,0,9,,,,,2,,,64,91
54912,note_on,,,,,0,0,13,,,,,6,,,59,100
55040,note_off,,,,,128,0,10,,,,,3,,,56,100
55040,note_off,,,,,128,0,8,,,,,1,,,71,100
55104,note_on,,,,,64,0,10,,,,,3,,,52,90
55104,note_on,,,,,64,0,8,,,,,1,,,68,90
55168,note_off,,,,,256,0,13,,,,,6,,,64,100
55168,note_off,,,,,256,0,11,,,,,4,,,44,100
55168,note_off,,,,,256,0,9,,,,,2,,,64,100
55168,note_off,,,,,256,0,14,,,,,6,,,44,100
55168,note_off,,,,,256,0,12,,,,,5,,,32,100
55168,note_off,,,,,0,0,13,,,,,6,,,59,100
55232,note_off,,,,,128,0,10,,,,,3,,,52,100
55232,note_off,,,,,128,0,8,,,,,1,,,68,100
55296,note_on,,,,,64,0,10,,,,,3,,,59,89
55296,note_on,,,,,0,0,13,,,,,6,,,64,100
55296,note_on,,,,,128,0,14,,,,,6,,,44,100
55296,note_on,,,,,128,0,12,,,,,5,,,32,89
55296,note_on,,,,,64,0,8,,,,,1,,,64,89
55296,note_on,,,,,128,0,11,,,,,4,,,44,89
55296,note_on,,,,,128,0,13,,,,,6,,,62,100
55424,note_off,,,,,128,0,10,,,,,3,,,59,100
55488,note_on,,,,,320,0,9,,,,,2,,,74,89
55488,note_on,,,,,64,0,10,,,,,3,,,59,89
55552,note_off,,,,,256,0,14,,,,,6,,,44,100
55552,note_off,,,,,256,0,12,,,,,5,,,32,100
55552,note_off,,,,,256,0,11,,,,,4,,,44,100
55552,note_off,,,,,256,0,8,,,,,1,,,64,100
55552,note_off,,,,,0,0,13,,,,,6,,,64,100
55552,note_off,,,,,256,0,13,,,,,6,,,62,100
55616,note_off,,,,,128,0,9,,,,,2,,,74,100
55616,note_off,,,,,128,0,10,,,,,3,,,59,100
55680,note_on,,,,,128,0,13,,,,,6,,,62,100
55680,note_on,,,,,0,0,13,,,,,6,,,64,100
55680,note_on,,,,,64,0,9,,,,,2,,,71,88
55680,note_on,,,,,128,0,14,,,,,6,,,44,100
55680,note_on,,,,,64,0,10,,,,,3,,,64,88
55680,note_on,,,,,128,0,12,,,,,5,,,32,88
55680,note_on,,,,,128,0,11,,,,,4,,,44,88
55808,note_off,,,,,128,0,9,,,,,2,,,71,100
55808,note_off,,,,,128,0,10,,,,,3,,,64,100
55872,note_on,,,,,64,0,10,,,,,3,,,59,87
55872,note_on,,,,,64,0,9,,,,,2,,,68,87
55872,note_on,,,,,320,0,8,,,,,1,,,74,87
55936,note_off,,,,,256,0,14,,,,,6,,,44,100
55936,note_off,,,,,0,0,13,,,,,6,,,64,100
55936,note_off,,,,,256,0,11,,,,,4,,,44,100
55936,note_off,,,,,256,0,12,,,,,5,,,32,100
55936,note_off,,,,,256,0,13,,,,,6,,,62,100
56000,note_off,,,,,128,0,10,,,,,3,,,59,100
56000,note_off,,,,,128,0,8,,,,,1,,,74,100
56000,note_off,,,,,128,0,9,,,,,2,,,68,100
56064,note_on,,,,,128,0,13,,,,,6,,,62,100
56064,note_on,,,,,0,0,13,,,,,6,,,64,100
56064,note_on,,,,,128,0,11,,,,,4,,,44,87
56064,note_on,,,,,128,0,14,,,,,6,,,44,100
56064,note_on,,,,,64,0,10,,,,,3,,,56,87
56064,note_on,,,,,128,0,12,,,,,5,,,32,87
56064,note_on,,,,,64,0,8,,,,,1,,,71,87
56064,note_on,,,,,64,0,9,,,,,2,,,64,87
56192,note_off,,,,,128,0,10,,,,,3,,,56,100
56192,note_off,,,,,128,0,9,,,,,2,,,64,100
56192,note_off,,,,,128,0,8,,,,,1,,,71,100
56256,note_on,,,,,64,0,10,,,,,3,,,59,86
56256,note_on,,,,,64,0,9,,,,,2,,,74,86
56256,note_on,,,,,64,0,8,,,,,1,,,68,86
56320,note_off,,,,,256,0,13,,,,,6,,,62,100
56320,note_off,,,,,0,0,13,,,,,6,,,64,100
56320,note_off,,,,,256,0,11,,,,,4,,,44,100
56320,note_off,,,,,256,0,14,,,,,6,,,44,100
56320,note_off,,,,,256,0,12,,,,,5,,,32,100
56384,note_off,,,,,128,0,10,,,,,3,,,59,100
56384,note_off,,,,,128,0,9,,,,,2,,,74,100
56384,note_off,,,,,128,0,8,,,,,1,,,68,100
56448,note_on,,,,,128,0,12,,,,,5,,,33,86
56448,note_on,,,,,128,0,13,,,,,6,,,61,100
56448,note_on,,,,,0,0,13,,,,,6,,,64,100
56448,note_on,,,,,128,0,14,,,,,6,,,45,100
56448,note_on,,,,,128,0,11,,,,,4,,,45,86
56448,note_on,,,,,64,0,10,,,,,3,,,57,86
56448,note_on,,,,,64,0,9,,,,,2,,,73,86
56448,note_on,,,,,64,0,8,,,,,1,,,64,86
56576,note_off,,,,,128,0,10,,,,,3,,,57,100
56576,note_off,,,,,128,0,8,,,,,1,,,64,100
56640,note_on,,,,,64,0,10,,,,,3,,,73,100
56640,note_on,,,,,64,0,8,,,,,1,,,81,100
56704,note_off,,,,,256,0,11,,,,,4,,,45,100
56704,note_off,,,,,0,0,13,,,,,6,,,64,100
56704,note_off,,,,,256,0,14,,,,,6,,,45,100
56704,note_off,,,,,256,0,9,,,,,2,,,73,100
56704,note_off,,,,,256,0,12,,,,,5,,,33,100
56704,note_off,,,,,256,0,13,,,,,6,,,61,100
56768,note_off,,,,,128,0,10,,,,,3,,,73,100
56768,note_off,,,,,128,0,8,,,,,1,,,81,100
56832,note_on,,,,,0,0,13,,,,,6,,,64,100
56832,note_on,,,,,128,0,13,,,,,6,,,69,100
56832,note_on,,,,,64,0,10,,,,,3,,,69,100
56832,note_on,,,,,128,0,11,,,,,4,,,49,100
56832,note_on,,,,,64,0,8,,,,,1,,,76,100
56832,note_on,,,,,128,0,12,,,,,5,,,37,100
56832,note_on,,,,,128,0,14,,,,,6,,,49,100
56960,note_off,,,,,128,0,8,,,,,1,,,76,100
56960,note_off,,,,,128,0,10,,,,,3,,,69,100
57024,note_on,,,,,64,0,8,,,,,1,,,73,99
57024,note_on,,,,,320,0,9,,,,,2,,,81,99
57024,note_on,,,,,64,0,10,,,,,3,,,64,99
57088,note_off,,,,,256,0,12,,,,,5,,,37,100
57088,note_off,,,,,256,0,11,,,,,4,,,49,100
57088,note_off,,,,,256,0,13,,,,,6,,,69,100
57088,note_off,,,,,256,0,14,,,,,6,,,49,100
57088,note_off,,,,,0,0,13,,,,,6,,,64,100
57152,note_off,,,,,128,0,8,,,,,1,,,73,100
57152,note_off,,,,,128,0,10,,,,,3,,,64,100
57152,note_off,,,,,128,0,9,,,,,2,,,81,100
57216,note_on,,,,,0,0,13,,,,,6,,,64,100
57216,note_on,,,,,128,0,12,,,,,5,,,37,98
57216,note_on,,,,,128,0,14,,,,,6,,,49,100
57216,note_on,,,,,64,0,9,,,,,2,,,76,98
57216,note_on,,,,,64,0,10,,,,,3,,,61,98
57216,note_on,,,,,128,0,13,,,,,6,,,69,100
57216,note_on,,,,,64,0,8,,,,,1,,,69,98
57216,note_on,,,,,128,0,11,,,,,4,,,49,98
57344,note_off,,,,,128,0,10,,,,,3,,,61,100
57344,note_off,,,,,128,0,9,,,,,2,,,76,100
57408,note_on,,,,,64,0,9,,,,,2,,,73,97
57408,note_on,,,,,64,0,10,,,,,3,,,57,97
57472,note_off,,,,,256,0,12,,,,,5,,,37,100
57472,note_off,,,,,256,0,8,,,,,1,,,69,100
57472,note_off,,,,,256,0,14,,,,,6,,,49,100
57472,note_off,,,,,256,0,11,,,,,4,,,49,100
57472,note_off,,,,,0,0,13,,,,,6,,,64,100
57472,note_off,,,,,256,0,13,,,,,6,,,69,100
57536,note_off,,,,,128,0,9,,,,,2,,,73,100
57536,note_off,,,,,128,0,10,,,,,3,,,57,100
57600,note_on,,,,,128,0,14,,,,,6,,,49,100
57600,note_on,,,,,64,0,9,,,,,2,,,69,96
57600,note_on,,,,,0,0,13,,,,,6,,,69,100
57600,note_on,,,,,128,0,11,,,,,4,,,49,96
57600,note_on,,,,,128,0,12,,,,,5,,,37,96
57600,note_on,,,,,64,0,10,,,,,3,,,64,96
57600,note_on,,,,,128,0,13,,,,,6,,,67,100
57728,note_off,,,,,128,0,10,,,,,3,,,64,100
57792,note_on,,,,,64,0,10,,,,,3,,,64,95
57792,note_on,,,,,320,0,8,,,,,1,,,79,95
57856,note_off,,,,,256,0,12,,,,,5,,,37,100
57856,note_off,,,,,256,0,11,,,,,4,,,49,100
57856,note_off,,,,,256,0,14,,,,,6,,,49,100
57856,note_off,,,,,0,0,13,,,,,6,,,69,100
57856,note_off,,,,,256,0,13,,,,,6,,,67,100
57856,note_off,,,,,256,0,9,,,,,2,,,69,100
57920,note_off,,,,,128,0,8,,,,,1,,,79,100
57920,note_off,,,,,128,0,10,,,,,3,,,64,100
57984,note_on,,,,,128,0,12,,,,,5,,,37,94
57984,note_on,,,,,64,0,8,,,,,1,,,76,94
57984,note_on,,,,,64,0,10,,,,,3,,,69,94
57984,note_on,,,,,128,0,13,,,,,6,,,67,100
57984,note_on,,,,,128,0,11,,,,,4,,,49,94
57984,note_on,,,,,0,0,13,,,,,6,,,69,100
57984,note_on,,,,,128,0,14,,,,,6,,,49,100
58112,note_off,,,,,128,0,8,,,,,1,,,76,100
58112,note_off,,,,,128,0,10,,,,,3,,,69,100
58176,note_on,,,,,64,0,8,,,,,1,,,73,93
58176,note_on,,,,,320,0,9,,,,,2,,,79,93
58176,note_on,,,,,64,0,10,,,,,3,,,64,93
58240,note_off,,,,,256,0,14,,,,,6,,,49,100
58240,note_off,,,,,256,0,11,,,,,4,,,49,100
58240,note_off,,,,,256,0,13,,,,,6,,,67,100
58240,note_off,,,,,256,0,12,,,,,5,,,37,100
58240,note_off,,,,,0,0,13,,,,,6,,,69,100
58304,note_off,,,,,128,0,10,,,,,3,,,64,100
58304,note_off,,,,,128,0,8,,,,,1,,,73,100
58304,note_off,,,,,128,0,9,,,,,2,,,79,100
58368,note_on,,,,,64,0,10,,,,,3,,,61,92
58368,note_on,,,,,128,0,13,,,,,6,,,67,100
58368,note_on,,,,,64,0,9,,,,,2,,,76,92
58368,note_on,,,,,128,0,12,,,,,5,,,37,92
58368,note_on,,,,,128,0,11,,,,,4,,,49,92
58368,note_on,,,,,0,0,13,,,,,6,,,69,100
58368,note_on,,,,,128,0,14,,,,,6,,,49,100
58368,note_on,,,,,64,0,8,,,,,1,,,69,92
58496,note_off,,,,,128,0,9,,,,,2,,,76,100
58496,note_off,,,,,128,0,8,,,,,1,,,69,100
58496,note_off,,,,,128,0,10,,,,,3,,,61,100
58560,note_on,,,,,64,0,8,,,,,1,,,79,91
58560,note_on,,,,,64,0,10,,,,,3,,,64,91
58560,note_on,,,,,64,0,9,,,,,2,,,73,91
58624,note_off,,,,,0,0,13,,,,,6,,,69,100
58624,note_off,,,,,256,0,13,,,,,6,,,67,100
58624,note_off,,,,,256,0,11,,,,,4,,,49,100
58624,note_off,,,,,256,0,12,,,,,5,,,37,100
58624,note_off,,,,,256,0,14,,,,,6,,,49,100
58688,note_off,,,,,128,0,9,,,,,2,,,73,100
58688,note_off,,,,,128,0,10,,,,,3,,,64,100
58688,note_off,,,,,128,0,8,,,,,1,,,79,100
58752,note_on,,,,,128,0,12,,,,,5,,,38,91
58752,note_on,,,,,128,0,11,,,,,4,,,50,91
58752,note_on,,,,,64,0,9,,,,,2,,,69,91
58752,note_on,,,,,128,0,14,,,,,6,,,50,100
58752,note_on,,,,,128,0,13,,,,,6,,,66,100
58752,note_on,,,,,0,0,13,,,,,6,,,69,100
58752,note_on,,,,,64,0,10,,,,,3,,,62,91
58752,note_on,,,,,64,0,8,,,,,1,,,78,91
58880,note_off,,,,,128,0,10,,,,,3,,,62,100
58880,note_off,,,,,128,0,8,,,,,1,,,78,100
58944,note_on,,,,,64,0,10,,,,,3,,,66,95
58944,note_on,,,,,64,0,8,,,,,1,,,74,95
59008,note_off,,,,,256,0,11,,,,,4,,,50,100
59008,note_off,,,,,256,0,12,,,,,5,,,38,100
59008,note_off,,,,,256,0,9,,,,,2,,,69,100
59008,note_off,,,,,0,0,13,,,,,6,,,69,100
59008,note_off,,,,,256,0,13,,,,,6,,,66,100
59008,note_off,,,,,256,0,14,,,,,6,,,50,100
59072,note_off,,,,,128,0,10,,,,,3,,,66,100
59072,note_off,,,,,128,0,8,,,,,1,,,74,100
59136,note_on,,,,,0,0,13,,,,,6,,,66,100
59136,note_on,,,,,128,0,14,,,,,6,,,51,100
59136,note_on,,,,,128,0,11,,,,,4,,,51,95
59136,note_on,,,,,64,0,8,,,,,1,,,78,95
59136,note_on,,,,,128,0,12,,,,,5,,,39,95
59136,note_on,,,,,64,0,10,,,,,3,,,71,95
59136,note_on,,,,,128,0,13,,,,,6,,,71,100
59264,note_off,,,,,128,0,8,,,,,1,,,78,100
59264,note_off,,,,,128,0,10,,,,,3,,,71,100
59328,note_on,,,,,320,0,9,,,,,2,,,83,94
59328,note_on,,,,,64,0,8,,,,,1,,,75,94
59328,note_on,,,,,64,0,10,,,,,3,,,66,94
59392,note_off,,,,,256,0,14,,,,,6,,,51,100
59392,note_off,,,,,0,0,13,,,,,6,,,66,100
59392,note_off,,,,,256,0,13,,,,,6,,,71,100
59392,note_off,,,,,256,0,12,,,,,5,,,39,100
59392,note_off,,,,,256,0,11,,,,,4,,,51,100
59456,note_off,,,,,128,0,8,,,,,1,,,75,100
59456,note_off,,,,,128,0,10,,,,,3,,,66,100
59456,note_off,,,,,128,0,9,,,,,2,,,83,100
59520,note_on,,,,,0,0,13,,,,,6,,,71,100
59520,note_on,,,,,128,0,13,,,,,6,,,66,100
59520,note_on,,,,,64,0,10,,,,,3,,,63,93
59520,note_on,,,,,128,0,12,,,,,5,,,39,93
59520,note_on,,,,,64,0,9,,,,,2,,,78,93
59520,note_on,,,,,64,0,8,,,,,1,,,71,93
59520,note_on,,,,,128,0,14,,,,,6,,,51,100
59520,note_on,,,,,128,0,11,,,,,4,,,51,93
59648,note_off,,,,,128,0,10,,,,,3,,,63,100
59648,note_off,,,,,128,0,9,,,,,2,,,78,100
59712,note_on,,,,,64,0,9,,,,,2,,,75,92
59712,note_on,,,,,64,0,10,,,,,3,,,59,92
59776,note_off,,,,,256,0,11,,,,,4,,,51,100
59776,note_off,,,,,256,0,12,,,,,5,,,39,100
59776,note_off,,,,,256,0,8,,,,,1,,,71,100
59776,note_off,,,,,256,0,13,,,,,6,,,66,100
59776,note_off,,,,,0,0,13,,,,,6,,,71,100
59776,note_off,,,,,256,0,14,,,,,6,,,51,100
59840,note_off,,,,,128,0,9,,,,,2,,,75,100
59840,note_off,,,,,128,0,10,,,,,3,,,59,100
59904,note_on,,,,,64,0,10,,,,,3,,,66,91
59904,note_on,,,,,64,0,9,,,,,2,,,71,91
59904,note_on,,,,,128,0,11,,,,,4,,,51,91
59904,note_on,,,,,128,0,13,,,,,6,,,71,100
59904,note_on,,,,,0,0,13,,,,,6,,,69,100
59904,note_on,,,,,128,0,12,,,,,5,,,39,91
59904,note_on,,,,,128,0,14,,,,,6,,,51,100
60032,note_off,,,,,128,0,10,,,,,3,,,66,100
60096,note_on,,,,,64,0,10,,,,,3,,,66,90
60096,note_on,,,,,320,0,8,,,,,1,,,81,90
60160,note_off,,,,,256,0,11,,,,,4,,,51,100
60160,note_off,,,,,0,0,13,,,,,6,,,69,100
60160,note_off,,,,,256,0,13,,,,,6,,,71,100
60160,note_off,,,,,256,0,9,,,,,2,,,71,100
60160,note_off,,,,,256,0,12,,,,,5,,,39,100
60160,note_off,,,,,256,0,14,,,,,6,,,51,100
60224,note_off,,,,,128,0,10,,,,,3,,,66,100
60224,note_off,,,,,128,0,8,,,,,1,,,81,100
60288,note_on,,,,,64,0,10,,,,,3,,,71,89
60288,note_on,,,,,128,0,11,,,,,4,,,51,89
60288,note_on,,,,,0,0,13,,,,,6,,,69,100
60288,note_on,,,,,64,0,8,,,,,1,,,78,89
60288,note_on,,,,,128,0,12,,,,,5,,,39,89
60288,note_on,,,,,128,0,14,,,,,6,,,51,100
60288,note_on,,,,,128,0,13,,,,,6,,,71,100
60416,note_off,,,,,128,0,10,,,,,3,,,71,100
60416,note_off,,,,,128,0,8,,,,,1,,,78,100
60480,note_on,,,,,64,0,10,,,,,3,,,66,88
60480,note_on,,,,,64,0,8,,,,,1,,,75,88
60480,note_on,,,,,320,0,9,,,,,2,,,81,88
60544,note_off,,,,,256,0,12,,,,,5,,,39,100
60544,note_off,,,,,0,0,13,,,,,6,,,69,100
60544,note_off,,,,,256,0,13,,,,,6,,,71,100
60544,note_off,,,,,256,0,14,,,,,6,,,51,100
60544,note_off,,,,,256,0,11,,,,,4,,,51,100
60608,note_off,,,,,128,0,9,,,,,2,,,81,100
60608,note_off,,,,,128,0,10,,,,,3,,,66,100
60608,note_off,,,,,128,0,8,,,,,1,,,75,100
60672,note_on,,,,,64,0,9,,,,,2,,,78,87
60672,note_on,,,,,128,0,12,,,,,5,,,39,87
60672,note_on,,,,,128,0,13,,,,,6,,,71,100
60672,note_on,,,,,128,0,11,,,,,4,,,51,87
60672,note_on,,,,,64,0,10,,,,,3,,,63,87
60672,note_on,,,,,64,0,8,,,,,1,,,71,87
60672,note_on,,,,,128,0,14,,,,,6,,,51,100
60672,note_on,,,,,0,0,13,,,,,6,,,69,100
60800,note_off,,,,,128,0,10,,,,,3,,,63,100
60800,note_off,,,,,128,0,8,,,,,1,,,71,100
60800,note_off,,,,,128,0,9,,,,,2,,,78,100
60864,note_on,,,,,64,0,9,,,,,2,,,75,86
60864,note_on,,,,,64,0,8,,,,,1,,,81,86
60864,note_on,,,,,64,0,10,,,,,3,,,66,86
60928,note_off,,,,,256,0,13,,,,,6,,,71,100
60928,note_off,,,,,256,0,11,,,,,4,,,51,100
60928,note_off,,,,,256,0,12,,,,,5,,,39,100
60928,note_off,,,,,0,0,13,,,,,6,,,69,100
60928,note_off,,,,,256,0,14,,,,,6,,,51,100
60992,note_off,,,,,128,0,8,,,,,1,,,81,100
60992,note_off,,,,,128,0,9,,,,,2,,,75,100
60992,note_off,,,,,128,0,10,,,,,3,,,66,100
61056,note_on,,,,,128,0,11,,,,,4,,,52,86
61056,note_on,,,,,128,0,12,,,,,5,,,40,86
61056,note_on,,,,,64,0,8,,,,,1,,,80,86
61056,note_on,,,,,128,0,14,,,,,6,,,52,100
61056,note_on,,,,,64,0,9,,,,,2,,,71,86
61056,note_on,,,,,128,0,13,,,,,6,,,68,100
61056,note_on,,,,,64,0,10,,,,,3,,,64,86
61056,note_on,,,,,0,0,13,,,,,6,,,71,100
61184,note_off,,,,,128,0,8,,,,,1,,,80,100
61248,note_on,,,,,64,0,8,,,,,1,,,80,80
61312,note_off,,,,,256,0,11,,,,,4,,,52,100
61312,note_off,,,,,256,0,10,,,,,3,,,64,100
61312,note_off,,,,,256,0,14,,,,,6,,,52,100
61312,note_off,,,,,256,0,12,,,,,5,,,40,100
61312,note_off,,,,,0,0,13,,,,,6,,,71,100
61312,note_off,,,,,256,0,9,,,,,2,,,71,100
61312,note_off,,,,,256,0,13,,,,,6,,,68,100
61376,note_off,,,,,128,0,8,,,,,1,,,80,100
61440,note_on,,,,,128,0,13,,,,,6,,,68,100
61440,note_on,,,,,128,0,12,,,,,5,,,40,80
61440,note_on,,,,,0,0,13,,,,,6,,,71,100
61440,note_on,,,,,64,0,8,,,,,1,,,76,80
61440,note_on,,,,,128,0,9,,,,,2,,,80,80
61440,note_on,,,,,128,0,14,,,,,6,,,52,100
61440,note_on,,,,,128,0,11,,,,,4,,,52,80
61568,note_off,,,,,128,0,8,,,,,1,,,76,100
61568,note_off,,,,,128,0,9,,,,,2,,,80,100
61632,note_on,,,,,64,0,8,,,,,1,,,76,81
61632,note_on,,,,,64,0,9,,,,,2,,,80,81
61696,note_off,,,,,256,0,13,,,,,6,,,68,100
61696,note_off,,,,,256,0,14,,,,,6,,,52,100
61696,note_off,,,,,256,0,12,,,,,5,,,40,100
61696,note_off,,,,,256,0,11,,,,,4,,,52,100
61696,note_off,,,,,0,0,13,,,,,6,,,71,100
61760,note_off,,,,,128,0,8,,,,,1,,,76,100
61760,note_off,,,,,128,0,9,,,,,2,,,80,100
61824,note_on,,,,,128,0,11,,,,,4,,,52,82
61824,note_on,,,,,64,0,8,,,,,1,,,71,82
61824,note_on,,,,,512,0,10,,,,,3,,,68,82
61824,note_on,,,,,64,0,9,,,,,2,,,76,82
61824,note_on,,,,,128,0,13,,,,,6,,,68,100
61824,note_on,,,,,0,0,13,,,,,6,,,71,100
61824,note_on,,,,,128,0,12,,,,,5,,,40,82
61824,note_on,,,,,128,0,14,,,,,6,,,52,100
61952,note_off,,,,,128,0,9,,,,,2,,,76,100
61952,note_off,,,,,128,0,8,,,,,1,,,71,100
61952,note_off,,,,,128,0,10,,,,,3,,,68,100
62016,note_on,,,,,64,0,9,,,,,2,,,76,83
62016,note_on,,,,,64,0,8,,,,,1,,,71,83
62016,note_on,,,,,64,0,10,,,,,3,,,68,83
62080,note_off,,,,,256,0,14,,,,,6,,,52,100
62080,note_off,,,,,0,0,13,,,,,6,,,71,100
62080,note_off,,,,,256,0,13,,,,,6,,,68,100
62080,note_off,,,,,256,0,12,,,,,5,,,40,100
62080,note_off,,,,,256,0,11,,,,,4,,,52,100
62144,note_off,,,,,128,0,8,,,,,1,,,71,100
62144,note_off,,,,,128,0,9,,,,,2,,,76,100
62144,note_off,,,,,128,0,10,,,,,3,,,68,100
62208,note_on,,,,,128,0,11,,,,,4,,,52,84
62208,note_on,,,,,64,0,10,,,,,3,,,64,84
62208,note_on,,,,,128,0,12,,,,,5,,,40,84
62208,note_on,,,,,128,0,13,,,,,6,,,68,100
62208,note_on,,,,,0,0,13,,,,,6,,,71,100
62208,note_on,,,,,128,0,14,,,,,6,,,52,100
62208,note_on,,,,,64,0,8,,,,,1,,,80,84
62208,note_on,,,,,64,0,9,,,,,2,,,71,84
62336,note_off,,,,,128,0,8,,,,,1,,,80,100
62336,note_off,,,,,128,0,10,,,,,3,,,64,100
62336,note_off,,,,,128,0,9,,,,,2,,,71,100
62400,note_on,,,,,64,0,10,,,,,3,,,64,85
62400,note_on,,,,,64,0,8,,,,,1,,,80,85
62400,note_on,,,,,64,0,9,,,,,2,,,71,85
62464,note_off,,,,,256,0,14,,,,,6,,,52,100
62464,note_off,,,,,256,0,11,,,,,4,,,52,100
62464,note_off,,,,,256,0,12,,,,,5,,,40,100
62464,note_off,,,,,256,0,13,,,,,6,,,68,100
62464,note_off,,,,,0,0,13,,,,,6,,,71,100
62528,note_off,,,,,128,0,10,,,,,3,,,64,100
62528,note_off,,,,,128,0,9,,,,,2,,,71,100
62528,note_off,,,,,128,0,8,,,,,1,,,80,100
62592,note_on,,,,,128,0,13,,,,,6,,,68,100
62592,note_on,,,,,0,0,13,,,,,6,,,71,100
62592,note_on,,,,,64,0,8,,,,,1,,,76,86
62592,note_on,,,,,128,0,11,,,,,4,,,52,86
62592,note_on,,,,,128,0,12,,,,,5,,,40,86
62592,note_on,,,,,128,0,14,,,,,6,,,52,100
62592,note_on,,,,,64,0,10,,,,,3,,,59,86
62592,note_on,,,,,64,0,9,,,,,2,,,80,86
62720,note_off,,,,,128,0,9,,,,,2,,,80,100
62720,note_off,,,,,128,0,8,,,,,1,,,76,100
62720,note_off,,,,,128,0,10,,,,,3,,,59,100
62784,note_on,,,,,64,0,8,,,,,1,,,76,86
62784,note_on,,,,,64,0,10,,,,,3,,,59,86
62784,note_on,,,,,64,0,9,,,,,2,,,80,86
62848,note_off,,,,,256,0,14,,,,,6,,,52,100
62848,note_off,,,,,256,0,12,,,,,5,,,40,100
62848,note_off,,,,,256,0,11,,,,,4,,,52,100
62848,note_off,,,,,0,0,13,,,,,6,,,71,100
62848,note_off,,,,,256,0,13,,,,,6,,,68,100
62912,note_off,,,,,128,0,9,,,,,2,,,80,100
62912,note_off,,,,,128,0,8,,,,,1,,,76,100
62912,note_off,,,,,128,0,10,,,,,3,,,59,100
62976,note_on,,,,,64,0,8,,,,,1,,,71,87
62976,note_on,,,,,0,0,13,,,,,6,,,71,100
62976,note_on,,,,,128,0,13,,,,,6,,,68,100
62976,note_on,,,,,128,0,11,,,,,4,,,52,87
62976,note_on,,,,,64,0,10,,,,,3,,,68,87
62976,note_on,,,,,64,0,9,,,,,2,,,76,87
62976,note_on,,,,,128,0,12,,,,,5,,,40,87
62976,note_on,,,,,128,0,14,,,,,6,,,52,100
63104,note_off,,,,,128,0,10,,,,,3,,,68,100
63104,note_off,,,,,128,0,9,,,,,2,,,76,100
63104,note_off,,,,,128,0,8,,,,,1,,,71,100
63168,note_on,,,,,64,0,8,,,,,1,,,71,88
63168,note_on,,,,,64,0,9,,,,,2,,,76,88
63168,note_on,,,,,64,0,10,,,,,3,,,68,88
63232,note_off,,,,,256,0,12,,,,,5,,,40,100
63232,note_off,,,,,256,0,13,,,,,6,,,68,100
63232,note_off,,,,,256,0,11,,,,,4,,,52,100
63232,note_off,,,,,256,0,14,,,,,6,,,52,100
63232,note_off,,,,,0,0,13,,,,,6,,,71,100
63296,note_off,,,,,128,0,10,,,,,3,,,68,100
63296,note_off,,,,,128,0,9,,,,,2,,,76,100
63296,note_off,,,,,128,0,8,,,,,1,,,71,100
63360,note_on,,,,,128,0,13,,,,,6,,,73,100
63360,note_on,,,,,128,0,11,,,,,4,,,53,89
63360,note_on,,,,,0,0,13,,,,,6,,,68,100
63360,note_on,,,,,128,0,12,,,,,5,,,41,89
63360,note_on,,,,,64,0,9,,,,,2,,,73,89
63360,note_on,,,,,128,0,14,,,,,6,,,53,100
63360,note_on,,,,,64,0,10,,,,,3,,,65,89
63360,note_on,,,,,64,0,8,,,,,1,,,80,89
63488,note_off,,,,,128,0,10,,,,,3,,,65,100
63488,note_off,,,,,128,0,9,,,,,2,,,73,100
63488,note_off,,,,,128,0,8,,,,,1,,,80,100
63552,note_on,,,,,64,0,9,,,,,2,,,73,90
63552,note_on,,,,,64,0,10,,,,,3,,,65,90
63552,note_on,,,,,64,0,8,,,,,1,,,80,90
63616,note_off,,,,,256,0,14,,,,,6,,,53,100
63616,note_off,,,,,256,0,12,,,,,5,,,41,100
63616,note_off,,,,,0,0,13,,,,,6,,,68,100
63616,note_off,,,,,256,0,13,,,,,6,,,73,100
63616,note_off,,,,,256,0,11,,,,,4,,,53,100
63680,note_off,,,,,128,0,10,,,,,3,,,65,100
63680,note_off,,,,,128,0,8,,,,,1,,,80,100
63680,note_off,,,,,128,0,9,,,,,2,,,73,100
63744,note_on,,,,,128,0,14,,,,,6,,,53,100
63744,note_on,,,,,128,0,12,,,,,5,,,41,91
63744,note_on,,,,,128,0,13,,,,,6,,,73,100
63744,note_on,,,,,128,0,11,,,,,4,,,53,91
63744,note_on,,,,,64,0,8,,,,,1,,,77,91
63744,note_on,,,,,64,0,9,,,,,2,,,80,91
63744,note_on,,,,,0,0,13,,,,,6,,,68,100
63744,note_on,,,,,64,0,10,,,,,3,,,61,91
63872,note_off,,,,,128,0,10,,,,,3,,,61,100
63872,note_off,,,,,128,0,8,,,,,1,,,77,100
63872,note_off,,,,,128,0,9,,,,,2,,,80,100
63936,note_on,,,,,64,0,10,,,,,3,,,61,92
63936,note_on,,,,,64,0,8,,,,,1,,,77,92
63936,note_on,,,,,64,0,9,,,,,2,,,80,92
64000,note_off,,,,,256,0,12,,,,,5,,,41,100
64000,note_off,,,,,256,0,11,,,,,4,,,53,100
64000,note_off,,,,,0,0,13,,,,,6,,,68,100
64000,note_off,,,,,256,0,14,,,,,6,,,53,100
64000,note_off,,,,,256,0,13,,,,,6,,,73,100
64064,note_off,,,,,128,0,10,,,,,3,,,61,100
64064,note_off,,,,,128,0,8,,,,,1,,,77,100
64064,note_off,,,,,128,0,9,,,,,2,,,80,100
64128,note_on,,,,,128,0,14,,,,,6,,,53,100
64128,note_on,,,,,0,0,13,,,,,6,,,68,100
64128,note_on,,,,,64,0,9,,,,,2,,,77,92
64128,note_on,,,,,64,0,8,,,,,1,,,73,92
64128,note_on,,,,,128,0,13,,,,,6,,,73,100
64128,note_on,,,,,128,0,12,,,,,5,,,41,92
64128,note_on,,,,,128,0,11,,,,,4,,,53,92
64128,note_on,,,,,64,0,10,,,,,3,,,68,92
64256,note_off,,,,,128,0,10,,,,,3,,,68,100
64256,note_off,,,,,128,0,8,,,,,1,,,73,100
64256,note_off,,,,,128,0,9,,,,,2,,,77,100
64320,note_on,,,,,64,0,8,,,,,1,,,73,93
64320,note_on,,,,,64,0,9,,,,,2,,,77,93
64320,note_on,,,,,64,0,10,,,,,3,,,68,93
64384,note_off,,,,,256,0,13,,,,,6,,,73,100
64384,note_off,,,,,256,0,12,,,,,5,,,41,100
64384,note_off,,,,,256,0,14,,,,,6,,,53,100
64384,note_off,,,,,256,0,11,,,,,4,,,53,100
64384,note_off,,,,,0,0,13,,,,,6,,,68,100
64448,note_off,,,,,128,0,8,,,,,1,,,73,100
64448,note_off,,,,,128,0,9,,,,,2,,,77,100
64448,note_off,,,,,128,0,10,,,,,3,,,68,100
64512,note_on,,,,,128,0,13,,,,,6,,,73,100
64512,note_on,,,,,0,0,13,,,,,6,,,68,100
64512,note_on,,,,,128,0,12,,,,,5,,,41,94
64512,note_on,,,,,64,0,10,,,,,3,,,65,94
64512,note_on,,,,,64,0,9,,,,,2,,,73,94
64512,note_on,,,,,128,0,11,,,,,4,,,53,94
64512,note_on,,,,,128,0,14,,,,,6,,,53,100
64512,note_on,,,,,64,0,8,,,,,1,,,80,94
64640,note_off,,,,,128,0,10,,,,,3,,,65,100
64640,note_off,,,,,128,0,8,,,,,1,,,80,100
64640,note_off,,,,,128,0,9,,,,,2,,,73,100
64704,note_on,,,,,64,0,9,,,,,2,,,73,95
64704,note_on,,,,,64,0,8,,,,,1,,,80,95
64704,note_on,,,,,64,0,10,,,,,3,,,65,95
64768,note_off,,,,,0,0,13,,,,,6,,,68,100
64768,note_off,,,,,256,0,11,,,,,4,,,53,100
64768,note_off,,,,,256,0,13,,,,,6,,,73,100
64768,note_off,,,,,256,0,14,,,,,6,,,53,100
64768,note_off,,,,,256,0,12,,,,,5,,,41,100
64832,note_off,,,,,128,0,8,,,,,1,,,80,100
64832,note_off,,,,,128,0,9,,,,,2,,,73,100
64832,note_off,,,,,128,0,10,,,,,3,,,65,100
64896,note_on,,,,,64,0,10,,,,,3,,,61,96
64896,note_on,,,,,128,0,11,,,,,4,,,53,96
64896,note_on,,,,,0,0,13,,,,,6,,,68,100
64896,note_on,,,,,64,0,9,,,,,2,,,80,96
64896,note_on,,,,,128,0,13,,,,,6,,,73,100
64896,note_on,,,,,128,0,14,,,,,6,,,53,100
64896,note_on,,,,,64,0,8,,,,,1,,,77,96
64896,note_on,,,,,128,0,12,,,,,5,,,41,96
65024,note_off,,,,,128,0,10,,,,,3,,,61,100
65024,note_off,,,,,128,0,8,,,,,1,,,77,100
65024,note_off,,,,,128,0,9,,,,,2,,,80,100
65088,note_on,,,,,64,0,8,,,,,1,,,77,97
65088,note_on,,,,,64,0,10,,,,,3,,,61,97
65088,note_on,,,,,64,0,9,,,,,2,,,80,97
65152,note_off,,,,,256,0,13,,,,,6,,,73,100
65152,note_off,,,,,256,0,12,,,,,5,,,41,100
65152,note_off,,,,,256,0,11,,,,,4,,,53,100
65152,note_off,,,,,256,0,14,,,,,6,,,53,100
65152,note_off,,,,,0,0,13,,,,,6,,,68,100
65216,note_off,,,,,128,0,10,,,,,3,,,61,100
65216,note_off,,,,,128,0,9,,,,,2,,,80,100
65216,note_off,,,,,128,0,8,,,,,1,,,77,100
65280,note_on,,,,,64,0,9,,,,,2,,,77,98
65280,note_on,,,,,0,0,13,,,,,6,,,68,100
65280,note_on,,,,,64,0,8,,,,,1,,,73,98
65280,note_on,,,,,128,0,13,,,,,6,,,73,100
65280,note_on,,,,,64,0,10,,,,,3,,,68,98
65280,note_on,,,,,128,0,12,,,,,5,,,41,98
65280,note_on,,,,,128,0,14,,,,,6,,,53,100
65280,note_on,,,,,128,0,11,,,,,4,,,53,98
65408,note_off,,,,,128,0,8,,,,,1,,,73,100
65408,note_off,,,,,128,0,9,,,,,2,,,77,100
65408,note_off,,,,,128,0,10,,,,,3,,,68,100
65472,note_on,,,,,64,0,9,,,,,2,,,77,98
65472,note_on,,,,,64,0,10,,,,,3,,,68,98
65472,note_on,,,,,64,0,8,,,,,1,,,73,98
65536,note_off,,,,,256,0,11,,,,,4,,,53,100
65536,note_off,,,,,0,0,13,,,,,6,,,68,100
65536,note_off,,,,,256,0,12,,,,,5,,,41,100
65536,note_off,,,,,256,0,13,,,,,6,,,73,100
65536,note_off,,,,,256,0,14,,,,,6,,,53,100
65600,note_off,,,,,128,0,8,,,,,1,,,73,100
65600,note_off,,,,,128,0,9,,,,,2,,,77,100
65600,note_off,,,,,128,0,10,,,,,3,,,68,100
65664,note_on,,,,,64,0,8,,,,,1,,,69,99
65664,note_on,,,,,128,0,14,,,,,6,,,54,100
65664,note_on,,,,,0,0,13,,,,,6,,,73,100
65664,note_on,,,,,128,0,11,,,,,4,,,54,99
65664,note_on,,,,,64,0,10,,,,,3,,,66,99
65664,note_on,,,,,128,0,13,,,,,6,,,69,100
65664,note_on,,,,,64,0,9,,,,,2,,,73,99
65664,note_on,,,,,128,0,12,,,,,5,,,42,99
65792,note_off,,,,,128,0,10,,,,,3,,,66,100
65792,note_off,,,,,128,0,8,,,,,1,,,69,100
65792,note_off,,,,,128,0,9,,,,,2,,,73,100
65856,note_on,,,,,64,0,9,,,,,2,,,73,100
65856,note_on,,,,,64,0,8,,,,,1,,,69,100
65856,note_on,,,,,64,0,10,,,,,3,,,66,100
65920,note_off,,,,,0,0,13,,,,,6,,,73,100
65920,note_off,,,,,256,0,14,,,,,6,,,54,100
65920,note_off,,,,,256,0,11,,,,,4,,,54,100
65920,note_off,,,,,256,0,12,,,,,5,,,42,100
65920,note_off,,,,,256,0,13,,,,,6,,,69,100
65984,note_off,,,,,128,0,10,,,,,3,,,66,100
65984,note_off,,,,,128,0,9,,,,,2,,,73,100
65984,note_off,,,,,128,0,8,,,,,1,,,69,100
66048,note_on,,,,,128,0,13,,,,,6,,,69,100
66048,note_on,,,,,0,0,13,,,,,6,,,73,100
66048,note_on,,,,,64,0,8,,,,,1,,,73,101
66048,note_on,,,,,64,0,10,,,,,3,,,66,101
66048,note_on,,,,,64,0,9,,,,,2,,,69,101
66048,note_on,,,,,128,0,14,,,,,6,,,54,100
66048,note_on,,,,,128,0,11,,,,,4,,,54,101
66048,note_on,,,,,128,0,12,,,,,5,,,42,101
66176,note_off,,,,,128,0,10,,,,,3,,,66,100
66176,note_off,,,,,128,0,8,,,,,1,,,73,100
66176,note_off,,,,,128,0,9,,,,,2,,,69,100
66240,note_on,,,,,64,0,10,,,,,3,,,66,102
66240,note_on,,,,,64,0,8,,,,,1,,,73,102
66240,note_on,,,,,64,0,9,,,,,2,,,69,102
66304,note_off,,,,,256,0,12,,,,,5,,,42,100
66304,note_off,,,,,256,0,11,,,,,4,,,54,100
66304,note_off,,,,,256,0,13,,,,,6,,,69,100
66304,note_off,,,,,0,0,13,,,,,6,,,73,100
66304,note_off,,,,,256,0,14,,,,,6,,,54,100
66368,note_off,,,,,128,0,9,,,,,2,,,69,100
66368,note_off,,,,,128,0,8,,,,,1,,,73,100
66368,note_off,,,,,128,0,10,,,,,3,,,66,100
66432,note_on,,,,,128,0,14,,,,,6,,,54,100
66432,note_on,,,,,64,0,9,,,,,2,,,73,103
66432,note_on,,,,,128,0,11,,,,,4,,,54,103
66432,note_on,,,,,128,0,13,,,,,6,,,69,100
66432,note_on,,,,,0,0,13,,,,,6,,,73,100
66432,note_on,,,,,64,0,10,,,,,3,,,69,103
66432,note_on,,,,,64,0,8,,,,,1,,,78,103
66432,note_on,,,,,128,0,12,,,,,5,,,42,103
66560,note_off,,,,,128,0,10,,,,,3,,,69,100
66560,note_off,,,,,128,0,9,,,,,2,,,73,100
66560,note_off,,,,,128,0,8,,,,,1,,,78,100
66624,note_on,,,,,64,0,8,,,,,1,,,78,104
66624,note_on,,,,,64,0,9,,,,,2,,,73,104
66624,note_on,,,,,64,0,10,,,,,3,,,69,104
66688,note_off,,,,,256,0,12,,,,,5,,,42,100
66688,note_off,,,,,256,0,11,,,,,4,,,54,100
66688,note_off,,,,,256,0,14,,,,,6,,,54,100
66688,note_off,,,,,0,0,13,,,,,6,,,73,100
66688,note_off,,,,,256,0,13,,,,,6,,,69,100
66752,note_off,,,,,128,0,8,,,,,1,,,78,100
66752,note_off,,,,,128,0,10,,,,,3,,,69,100
66752,note_off,,,,,128,0,9,,,,,2,,,73,100
66816,note_on,,,,,64,0,8,,,,,1,,,81,105
66816,note_on,,,,,128,0,14,,,,,6,,,54,100
66816,note_on,,,,,128,0,12,,,,,5,,,42,105
66816,note_on,,,,,64,0,10,,,,,3,,,73,105
66816,note_on,,,,,64,0,9,,,,,2,,,78,105
66816,note_on,,,,,128,0,13,,,,,6,,,69,100
66816,note_on,,,,,128,0,11,,,,,4,,,54,105
66816,note_on,,,,,0,0,13,,,,,6,,,73,100
66944,note_off,,,,,128,0,10,,,,,3,,,73,100
66944,note_off,,,,,128,0,8,,,,,1,,,81,100
66944,note_off,,,,,128,0,9,,,,,2,,,78,100
67008,note_on,,,,,64,0,10,,,,,3,,,73,104
67008,note_on,,,,,64,0,9,,,,,2,,,78,104
67008,note_on,,,,,64,0,8,,,,,1,,,81,104
67072,note_off,,,,,256,0,13,,,,,6,,,69,100
67072,note_off,,,,,256,0,14,,,,,6,,,54,100
67072,note_off,,,,,0,0,13,,,,,6,,,73,100
67072,note_off,,,,,256,0,12,,,,,5,,,42,100
67072,note_off,,,,,256,0,11,,,,,4,,,54,100
67136,note_off,,,,,128,0,10,,,,,3,,,73,100
67136,note_off,,,,,128,0,9,,,,,2,,,78,100
67136,note_off,,,,,128,0,8,,,,,1,,,81,100
67200,note_on,,,,,128,0,12,,,,,5,,,42,102
67200,note_on,,,,,64,0,10,,,,,3,,,69,102
67200,note_on,,,,,0,0,13,,,,,6,,,73,100
67200,note_on,,,,,128,0,13,,,,,6,,,69,100
67200,note_on,,,,,128,0,14,,,,,6,,,54,100
67200,note_on,,,,,64,0,9,,,,,2,,,73,102
67200,note_on,,,,,64,0,8,,,,,1,,,78,102
67200,note_on,,,,,128,0,11,,,,,4,,,54,102
67328,note_off,,,,,128,0,8,,,,,1,,,78,100
67328,note_off,,,,,128,0,10,,,,,3,,,69,100
67328,note_off,,,,,128,0,9,,,,,2,,,73,100
67392,note_on,,,,,64,0,8,,,,,1,,,78,100
67392,note_on,,,,,64,0,9,,,,,2,,,73,100
67392,note_on,,,,,64,0,10,,,,,3,,,69,100
67456,note_off,,,,,256,0,14,,,,,6,,,54,100
67456,note_off,,,,,256,0,11,,,,,4,,,54,100
67456,note_off,,,,,256,0,13,,,,,6,,,69,100
67456,note_off,,,,,0,0,13,,,,,6,,,73,100
67456,note_off,,,,,256,0,12,,,,,5,,,42,100
67520,note_off,,,,,128,0,10,,,,,3,,,69,100
67520,note_off,,,,,128,0,8,,,,,1,,,78,100
67520,note_off,,,,,128,0,9,,,,,2,,,73,100
67584,note_on,,,,,64,0,8,,,,,1,,,73,98
67584,note_on,,,,,64,0,9,,,,,2,,,78,98
67584,note_on,,,,,128,0,14,,,,,6,,,54,100
67584,note_on,,,,,128,0,11,,,,,4,,,54,98
67584,note_on,,,,,128,0,13,,,,,6,,,69,100
67584,note_on,,,,,64,0,10,,,,,3,,,69,98
67584,note_on,,,,,0,0,13,,,,,6,,,73,100
67584,note_on,,,,,128,0,12,,,,,5,,,42,98
67712,note_off,,,,,128,0,9,,,,,2,,,78,100
67712,note_off,,,,,128,0,8,,,,,1,,,73,100
67712,note_off,,,,,128,0,10,,,,,3,,,69,100
67776,note_on,,,,,64,0,9,,,,,2,,,78,96
67776,note_on,,,,,64,0,10,,,,,3,,,69,96
67776,note_on,,,,,64,0,8,,,,,1,,,73,96
67840,note_off,,,,,256,0,12,,,,,5,,,42,100
67840,note_off,,,,,0,0,13,,,,,6,,,73,100
67840,note_off,,,,,256,0,13,,,,,6,,,69,100
67840,note_off,,,,,256,0,11,,,,,4,,,54,100
67840,note_off,,,,,256,0,14,,,,,6,,,54,100
67904,note_off,,,,,128,0,9,,,,,2,,,78,100
67904,note_off,,,,,128,0,8,,,,,1,,,73,100
67904,note_off,,,,,128,0,10,,,,,3,,,69,100
67968,note_on,,,,,128,0,13,,,,,6,,,74,100
67968,note_on,,,,,0,0,13,,,,,6,,,69,100
67968,note_on,,,,,128,0,12,,,,,5,,,42,95
67968,note_on,,,,,64,0,9,,,,,2,,,69,95
67968,note_on,,,,,128,0,14,,,,,6,,,54,100
67968,note_on,,,,,64,0,8,,,,,1,,,74,95
67968,note_on,,,,,128,0,11,,,,,4,,,54,95
67968,note_on,,,,,64,0,10,,,,,3,,,66,95
68096,note_off,,,,,128,0,8,,,,,1,,,74,100
68096,note_off,,,,,128,0,10,,,,,3,,,66,100
68096,note_off,,,,,128,0,9,,,,,2,,,69,100
68160,note_on,,,,,64,0,8,,,,,1,,,74,96
68160,note_on,,,,,64,0,10,,,,,3,,,66,96
68160,note_on,,,,,64,0,9,,,,,2,,,69,96
68224,note_off,,,,,256,0,12,,,,,5,,,42,100
68224,note_off,,,,,256,0,14,,,,,6,,,54,100
68224,note_off,,,,,0,0,13,,,,,6,,,69,100
68224,note_off,,,,,256,0,13,,,,,6,,,74,100
68224,note_off,,,,,256,0,11,,,,,4,,,54,100
68288,note_off,,,,,128,0,8,,,,,1,,,74,100
68288,note_off,,,,,128,0,10,,,,,3,,,66,100
68288,note_off,,,,,128,0,9,,,,,2,,,69,100
68352,note_on,,,,,64,0,10,,,,,3,,,69,97
68352,note_on,,,,,0,0,13,,,,,6,,,69,100
68352,note_on,,,,,64,0,8,,,,,1,,,78,97
68352,note_on,,,,,64,0,9,,,,,2,,,74,97
68352,note_on,,,,,128,0,11,,,,,4,,,54,97
68352,note_on,,,,,128,0,13,,,,,6,,,74,100
68352,note_on,,,,,128,0,12,,,,,5,,,42,97
68352,note_on,,,,,128,0,14,,,,,6,,,54,100
68480,note_off,,,,,128,0,9,,,,,2,,,74,100
68480,note_off,,,,,128,0,8,,,,,1,,,78,100
68480,note_off,,,,,128,0,10,,,,,3,,,69,100
68544,note_on,,,,,64,0,9,,,,,2,,,74,98
68544,note_on,,,,,64,0,8,,,,,1,,,78,98
68544,note_on,,,,,64,0,10,,,,,3,,,69,98
68608,note_off,,,,,256,0,12,,,,,5,,,42,100
68608,note_off,,,,,256,0,11,,,,,4,,,54,100
68608,note_off,,,,,0,0,13,,,,,6,,,69,100
68608,note_off,,,,,256,0,13,,,,,6,,,74,100
68608,note_off,,,,,256,0,14,,,,,6,,,54,100
68672,note_off,,,,,128,0,8,,,,,1,,,78,100
68672,note_off,,,,,128,0,10,,,,,3,,,69,100
68672,note_off,,,,,128,0,9,,,,,2,,,74,100
68736,note_on,,,,,64,0,10,,,,,3,,,74,99
68736,note_on,,,,,128,0,12,,,,,5,,,42,99
68736,note_on,,,,,64,0,9,,,,,2,,,78,99
68736,note_on,,,,,128,0,14,,,,,6,,,54,100
68736,note_on,,,,,128,0,13,,,,,6,,,74,100
68736,note_on,,,,,0,0,13,,,,,6,,,69,100
68736,note_on,,,,,64,0,8,,,,,1,,,81,99
68736,note_on,,,,,128,0,11,,,,,4,,,54,99
68864,note_off,,,,,128,0,10,,,,,3,,,74,100
68864,note_off,,,,,128,0,8,,,,,1,,,81,100
68864,note_off,,,,,128,0,9,,,,,2,,,78,100
68928,note_on,,,,,64,0,9,,,,,2,,,78,100
68928,note_on,,,,,64,0,8,,,,,1,,,81,100
68928,note_on,,,,,64,0,10,,,,,3,,,74,100
68992,note_off,,,,,256,0,14,,,,,6,,,54,100
68992,note_off,,,,,256,0,13,,,,,6,,,74,100
68992,note_off,,,,,0,0,13,,,,,6,,,69,100
68992,note_off,,,,,256,0,12,,,,,5,,,42,100
68992,note_off,,,,,256,0,11,,,,,4,,,54,100
69056,note_off,,,,,128,0,10,,,,,3,,,74,100
69056,note_off,,,,,128,0,8,,,,,1,,,81,100
69056,note_off,,,,,128,0,9,,,,,2,,,78,100
69120,note_on,,,,,0,0,13,,,,,6,,,69,100
69120,note_on,,,,,64,0,9,,,,,2,,,69,101
69120,note_on,,,,,64,0,10,,,,,3,,,66,101
69120,note_on,,,,,128,0,14,,,,,6,,,54,100
69120,note_on,,,,,64,0,8,,,,,1,,,74,101
69120,note_on,,,,,128,0,12,,,,,5,,,42,101
69120,note_on,,,,,128,0,13,,,,,6,,,74,100
69120,note_on,,,,,128,0,11,,,,,4,,,54,101
69248,note_off,,,,,128,0,10,,,,,3,,,66,100
69248,note_off,,,,,128,0,9,,,,,2,,,69,100
69248,note_off,,,,,128,0,8,,,,,1,,,74,100
69312,note_on,,,,,64,0,8,,,,,1,,,74,102
69312,note_on,,,,,64,0,10,,,,,3,,,66,102
69312,note_on,,,,,64,0,9,,,,,2,,,69,102
69376,note_off,,,,,0,0,13,,,,,6,,,69,100
69376,note_off,,,,,256,0,11,,,,,4,,,54,100
69376,note_off,,,,,256,0,13,,,,,6,,,74,100
69376,note_off,,,,,256,0,12,,,,,5,,,42,100
69376,note_off,,,,,256,0,14,,,,,6,,,54,100
69440,note_off,,,,,128,0,8,,,,,1,,,74,100
69440,note_off,,,,,128,0,9,,,,,2,,,69,100
69440,note_off,,,,,128,0,10,,,,,3,,,66,100
69504,note_on,,,,,128,0,13,,,,,6,,,74,100
69504,note_on,,,,,0,0,13,,,,,6,,,69,100
69504,note_on,,,,,64,0,8,,,,,1,,,78,103
69504,note_on,,,,,128,0,12,,,,,5,,,42,103
69504,note_on,,,,,128,0,14,,,,,6,,,54,100
69504,note_on,,,,,64,0,10,,,,,3,,,69,103
69504,note_on,,,,,64,0,9,,,,,2,,,74,103
69504,note_on,,,,,128,0,11,,,,,4,,,54,103
69632,note_off,,,,,128,0,8,,,,,1,,,78,100
69632,note_off,,,,,128,0,10,,,,,3,,,69,100
69632,note_off,,,,,128,0,9,,,,,2,,,74,100
69696,note_on,,,,,64,0,10,,,,,3,,,69,104
69696,note_on,,,,,64,0,8,,,,,1,,,78,104
69696,note_on,,,,,64,0,9,,,,,2,,,74,104
69760,note_off,,,,,256,0,13,,,,,6,,,74,100
69760,note_off,,,,,256,0,14,,,,,6,,,54,100
69760,note_off,,,,,0,0,13,,,,,6,,,69,100
69760,note_off,,,,,256,0,11,,,,,4,,,54,100
69760,note_off,,,,,256,0,12,,,,,5,,,42,100
69824,note_off,,,,,128,0,10,,,,,3,,,69,100
69824,note_off,,,,,128,0,8,,,,,1,,,78,100
69824,note_off,,,,,128,0,9,,,,,2,,,74,100
69888,note_on,,,,,128,0,14,,,,,6,,,54,100
69888,note_on,,,,,64,0,10,,,,,3,,,74,105
69888,note_on,,,,,128,0,12,,,,,5,,,42,105
69888,note_on,,,,,64,0,9,,,,,2,,,78,105
69888,note_on,,,,,128,0,13,,,,,6,,,74,100
69888,note_on,,,,,64,0,8,,,,,1,,,81,105
69888,note_on,,,,,128,0,11,,,,,4,,,54,105
69888,note_on,,,,,0,0,13,,,,,6,,,69,100
70016,note_off,,,,,128,0,8,,,,,1,,,81,100
70016,note_off,,,,,128,0,9,,,,,2,,,78,100
70016,note_off,,,,,128,0,10,,,,,3,,,74,100
70080,note_on,,,,,64,0,8,,,,,1,,,81,106
70080,note_on,,,,,64,0,10,,,,,3,,,74,106
70080,note_on,,,,,64,0,9,,,,,2,,,78,106
70144,note_off,,,,,256,0,11,,,,,4,,,54,100
70144,note_off,,,,,256,0,14,,,,,6,,,54,100
70144,note_off,,,,,256,0,12,,,,,5,,,42,100
70144,note_off,,,,,0,0,13,,,,,6,,,69,100
70144,note_off,,,,,256,0,13,,,,,6,,,74,100
70208,note_off,,,,,128,0,8,,,,,1,,,81,100
70208,note_off,,,,,128,0,10,,,,,3,,,74,100
70208,note_off,,,,,128,0,9,,,,,2,,,78,100
70272,note_on,,,,,64,0,8,,,,,1,,,80,107
70272,note_on,,,,,128,0,11,,,,,4,,,48,107
70272,note_on,,,,,128,0,14,,,,,6,,,48,100
70272,note_on,,,,,0,0,13,,,,,6,,,72,100
70272,note_on,,,,,128,0,13,,,,,6,,,63,100
70272,note_on,,,,,64,0,10,,,,,3,,,68,107
70272,note_on,,,,,128,0,12,,,,,5,,,36,107
70272,note_on,,,,,64,0,9,,,,,2,,,75,107
70272,note_on,,,,,0,0,13,,,,,6,,,68,100
70656,note_off,,,,,384,0,8,,,,,1,,,80,100
70784,note_off,,,,,0,0,13,,,,,6,,,68,100
70784,note_off,,,,,512,0,14,,,,,6,,,48,100
70784,note_off,,,,,0,0,13,,,,,6,,,72,100
70784,note_off,,,,,512,0,13,,,,,6,,,63,100
70784,note_off,,,,,512,0,12,,,,,5,,,36,100
70784,note_off,,,,,512,0,11,,,,,4,,,48,100
70848,note_on,,,,,192,0,8,,,,,1,,,78,115
70960,note_off,,,,,688,0,9,,,,,2,,,75,100
70960,note_off,,,,,688,0,10,,,,,3,,,68,100
70976,note_off,,,,,128,0,8,,,,,1,,,78,100
71040,note_on,,,,,256,0,13,,,,,6,,,64,100
71040,note_on,,,,,80,0,9,,,,,2,,,73,113
71040,note_on,,,,,64,0,8,,,,,1,,,76,113
71040,note_on,,,,,80,0,10,,,,,3,,,68,113
71040,note_on,,,,,256,0,11,,,,,4,,,49,113
71040,note_on,,,,,256,0,14,,,,,6,,,49,100
71040,note_on,,,,,0,0,13,,,,,6,,,68,100
71040,note_on,,,,,256,0,12,,,,,5,,,37,113
71168,note_off,,,,,128,0,8,,,,,1,,,76,100
71232,note_on,,,,,64,0,8,,,,,1,,,75,110
71296,note_off,,,,,256,0,11,,,,,4,,,49,100
71296,note_off,,,,,0,0,13,,,,,6,,,68,100
71296,note_off,,,,,256,0,13,,,,,6,,,64,100
71296,note_off,,,,,256,0,10,,,,,3,,,68,100
71296,note_off,,,,,256,0,14,,,,,6,,,49,100
71296,note_off,,,,,256,0,12,,,,,5,,,37,100
71360,note_off,,,,,128,0,8,,,,,1,,,75,100
71424,note_on,,,,,0,0,13,,,,,6,,,73,100
71424,note_on,,,,,128,0,13,,,,,6,,,64,100
71424,note_on,,,,,64,0,8,,,,,1,,,76,107
71424,note_on,,,,,128,0,12,,,,,5,,,42,107
71424,note_on,,,,,128,0,14,,,,,6,,,54,100
71424,note_on,,,,,128,0,11,,,,,4,,,54,107
71424,note_on,,,,,128,0,10,,,,,3,,,69,107
71552,note_off,,,,,128,0,8,,,,,1,,,76,100
71616,note_on,,,,,64,0,8,,,,,1,,,78,104
71680,note_off,,,,,256,0,14,,,,,6,,,54,100
71680,note_off,,,,,256,0,11,,,,,4,,,54,100
71680,note_off,,,,,256,0,12,,,,,5,,,42,100
71680,note_off,,,,,256,0,13,,,,,6,,,64,100
71680,note_off,,,,,0,0,13,,,,,6,,,73,100
71680,note_off,,,,,256,0,10,,,,,3,,,69,100
71728,note_off,,,,,688,0,9,,,,,2,,,73,100
71744,note_off,,,,,128,0,8,,,,,1,,,78,100
71808,note_on,,,,,80,0,9,,,,,2,,,73,102
71808,note_on,,,,,128,0,11,,,,,4,,,56,102
71808,note_on,,,,,128,0,13,,,,,6,,,63,100
71808,note_on,,,,,64,0,8,,,,,1,,,76,102
71808,note_on,,,,,128,0,14,,,,,6,,,56,100
71808,note_on,,,,,128,0,12,,,,,5,,,44,102
71808,note_on,,,,,128,0,10,,,,,3,,,60,102
71808,note_on,,,,,0,0,13,,,,,6,,,72,100
71900,note_off,,,,,92,0,8,,,,,1,,,76,100
71900,note_off,,,,,92,0,9,,,,,2,,,73,100
71904,note_on,,,,,4,0,9,,,,,2,,,72,100
71904,note_on,,,,,4,0,8,,,,,1,,,75,100
71948,note_off,,,,,44,0,8,,,,,1,,,75,100
71952,note_on,,,,,4,0,8,,,,,1,,,76,100
71996,note_off,,,,,92,0,9,,,,,2,,,72,100
71996,note_off,,,,,44,0,8,,,,,1,,,76,100
72000,note_on,,,,,4,0,8,,,,,1,,,75,99
72000,note_on,,,,,4,0,9,,,,,2,,,73,100
72044,note_off,,,,,44,0,8,,,,,1,,,75,100
72048,note_on,,,,,4,0,8,,,,,1,,,76,98
72060,note_off,,,,,60,0,9,,,,,2,,,73,100
72064,note_off,,,,,256,0,13,,,,,6,,,63,100
72064,note_off,,,,,0,0,13,,,,,6,,,72,100
72064,note_off,,,,,256,0,14,,,,,6,,,56,100
72064,note_off,,,,,256,0,11,,,,,4,,,56,100
72064,note_off,,,,,256,0,10,,,,,3,,,60,100
72064,note_on,,,,,4,0,9,,,,,2,,,72,100
72064,note_off,,,,,256,0,12,,,,,5,,,44,100
72092,note_off,,,,,44,0,8,,,,,1,,,76,100
72096,note_on,,,,,4,0,8,,,,,1,,,75,97
72124,note_off,,,,,60,0,9,,,,,2,,,72,100
72128,note_on,,,,,4,0,9,,,,,2,,,73,100
72140,note_off,,,,,44,0,8,,,,,1,,,75,100
72144,note_on,,,,,4,0,8,,,,,1,,,76,97
72188,note_off,,,,,44,0,8,,,,,1,,,76,100
72188,note_off,,,,,60,0,9,,,,,2,,,73,100
72192,note_on,,,,,128,0,10,,,,,3,,,68,96
72192,note_on,,,,,128,0,12,,,,,5,,,44,96
72192,note_on,,,,,128,0,14,,,,,6,,,44,100
72192,note_on,,,,,4,0,8,,,,,1,,,75,96
72192,note_on,,,,,128,0,13,,,,,6,,,63,100
72192,note_on,,,,,128,0,11,,,,,4,,,44,96
72192,note_on,,,,,0,0,13,,,,,6,,,72,100
72192,note_on,,,,,4,0,9,,,,,2,,,72,96
72320,note_off,,,,,128,0,9,,,,,2,,,72,100
72320,note_off,,,,,128,0,8,,,,,1,,,75,100
72384,note_on,,,,,64,0,8,,,,,1,,,73,93
72384,note_on,,,,,64,0,9,,,,,2,,,73,93
72448,note_off,,,,,0,0,13,,,,,6,,,72,100
72448,note_off,,,,,256,0,13,,,,,6,,,63,100
72448,note_off,,,,,256,0,11,,,,,4,,,44,100
72448,note_off,,,,,256,0,12,,,,,5,,,44,100
72448,note_off,,,,,256,0,14,,,,,6,,,44,100
72448,note_off,,,,,256,0,10,,,,,3,,,68,100
72512,note_off,,,,,128,0,8,,,,,1,,,73,100
72512,note_off,,,,,128,0,9,,,,,2,,,73,100
72576,note_on,,,,,64,0,9,,,,,2,,,73,91
72576,note_on,,,,,64,0,8,,,,,1,,,73,91
72576,note_on,,,,,128,0,10,,,,,3,,,64,91
72576,note_on,,,,,128,0,12,,,,,5,,,37,91
72576,note_on,,,,,0,0,13,,,,,6,,,68,100
72576,note_on,,,,,0,0,13,,,,,6,,,73,100
72576,note_on,,,,,128,0,13,,,,,6,,,64,100
72576,note_on,,,,,25088,0,7,,,,,0,,,73,100
72576,note_on,,,,,128,0,14,,,,,6,,,49,100
72576,note_on,,,,,128,0,11,,,,,4,,,49,91
72640,note_off,,,,,64,0,7,,,,,0,,,73,100
72672,note_on,,,,,32,0,7,,,,,0,,,68,100
72736,note_off,,,,,64,0,7,,,,,0,,,68,100
72768,note_on,,,,,32,0,7,,,,,0,,,73,100
72832,note_off,,,,,256,0,10,,,,,3,,,64,100
72832,note_off,,,,,256,0,12,,,,,5,,,37,100
72832,note_off,,,,,64,0,7,,,,,0,,,73,100
72832,note_off,,,,,256,0,14,,,,,6,,,49,100
72832,note_off,,,,,256,0,11,,,,,4,,,49,100
72832,note_off,,,,,256,0,9,,,,,2,,,73,100
72832,note_off,,,,,256,0,13,,,,,6,,,64,100
72832,note_off,,,,,0,0,13,,,,,6,,,73,100
72832,note_off,,,,,0,0,13,,,,,6,,,68,100
72832,note_off,,,,,256,0,8,,,,,1,,,73,100
72864,note_on,,,,,32,0,7,,,,,0,,,76,99
72928,note_off,,,,,64,0,7,,,,,0,,,76,100
72960,note_on,,,,,32,0,7,,,,,0,,,73,99
73024,note_off,,,,,64,0,7,,,,,0,,,73,100
73056,note_on,,,,,32,0,7,,,,,0,,,68,98
73120,note_off,,,,,64,0,7,,,,,0,,,68,100
73152,note_on,,,,,32,0,7,,,,,0,,,73,98
73216,note_off,,,,,64,0,7,,,,,0,,,73,100
73248,note_on,,,,,32,0,7,,,,,0,,,76,97
73312,note_off,,,,,64,0,7,,,,,0,,,76,100
73344,note_on,,,,,32,0,7,,,,,0,,,73,97
73408,note_off,,,,,64,0,7,,,,,0,,,73,100
73440,note_on,,,,,32,0,7,,,,,0,,,68,96
73504,note_off,,,,,64,0,7,,,,,0,,,68,100
73536,note_on,,,,,32,0,7,,,,,0,,,73,96
73600,note_off,,,,,64,0,7,,,,,0,,,73,100
73632,note_on,,,,,32,0,7,,,,,0,,,76,95
73696,note_off,,,,,64,0,7,,,,,0,,,76,100
73728,note_on,,,,,896,0,10,,,,,3,,,61,100
73728,note_on,,,,,32,0,7,,,,,0,,,73,95
73792,note_off,,,,,64,0,7,,,,,0,,,73,100
73824,note_on,,,,,32,0,7,,,,,0,,,68,94
73888,note_off,,,,,64,0,7,,,,,0,,,68,100
73920,note_on,,,,,32,0,7,,,,,0,,,73,94
73920,note_on,,,,,1088,0,8,,,,,1,,,80,70
73984,note_off,,,,,256,0,10,,,,,3,,,61,100
73984,note_off,,,,,64,0,7,,,,,0,,,73,100
74016,note_on,,,,,32,0,7,,,,,0,,,76,94
74048,note_off,,,,,128,0,8,,,,,1,,,80,100
74080,note_off,,,,,64,0,7,,,,,0,,,76,100
74112,note_on,,,,,32,0,7,,,,,0,,,73,94
74112,note_on,,,,,64,0,8,,,,,1,,,76,70
74176,note_off,,,,,64,0,7,,,,,0,,,73,100
74208,note_on,,,,,32,0,7,,,,,0,,,68,94
74240,note_off,,,,,128,0,8,,,,,1,,,76,100
74272,note_off,,,,,64,0,7,,,,,0,,,68,100
74304,note_on,,,,,1472,0,9,,,,,2,,,80,70
74304,note_on,,,,,32,0,7,,,,,0,,,73,94
74304,note_on,,,,,64,0,8,,,,,1,,,73,70
74368,note_off,,,,,64,0,7,,,,,0,,,73,100
74400,note_on,,,,,32,0,7,,,,,0,,,76,94
74432,note_off,,,,,128,0,8,,,,,1,,,73,100
74432,note_off,,,,,128,0,9,,,,,2,,,80,100
74464,note_off,,,,,64,0,7,,,,,0,,,76,100
74496,note_on,,,,,64,0,9,,,,,2,,,76,70
74496,note_on,,,,,64,0,8,,,,,1,,,80,70
74496,note_on,,,,,32,0,7,,,,,0,,,73,94
74560,note_off,,,,,64,0,7,,,,,0,,,73,100
74592,note_on,,,,,32,0,7,,,,,0,,,68,94
74624,note_off,,,,,128,0,9,,,,,2,,,76,100
74656,note_off,,,,,64,0,7,,,,,0,,,68,100
74688,note_on,,,,,64,0,9,,,,,2,,,73,70
74688,note_on,,,,,32,0,7,,,,,0,,,73,94
74752,note_off,,,,,64,0,7,,,,,0,,,73,100
74752,note_off,,,,,256,0,8,,,,,1,,,80,100
74784,note_on,,,,,32,0,7,,,,,0,,,76,94
74816,note_off,,,,,128,0,9,,,,,2,,,73,100
74848,note_off,,,,,64,0,7,,,,,0,,,76,100
74880,note_on,,,,,896,0,10,,,,,3,,,61,100
74880,note_on,,,,,64,0,9,,,,,2,,,80,70
74880,note_on,,,,,32,0,7,,,,,0,,,73,94
74944,note_off,,,,,64,0,7,,,,,0,,,73,100
74976,note_on,,,,,32,0,7,,,,,0,,,68,94
75040,note_off,,,,,64,0,7,,,,,0,,,68,100
75072,note_on,,,,,320,0,8,,,,,1,,,80,70
75072,note_on,,,,,32,0,7,,,,,0,,,73,94
75136,note_off,,,,,256,0,10,,,,,3,,,61,100
75136,note_off,,,,,64,0,7,,,,,0,,,73,100
75136,note_off,,,,,256,0,9,,,,,2,,,80,100
75168,note_on,,,,,32,0,7,,,,,0,,,76,94
75200,note_off,,,,,128,0,8,,,,,1,,,80,100
75232,note_off,,,,,64,0,7,,,,,0,,,76,100
75264,note_on,,,,,32,0,7,,,,,0,,,73,94
75264,note_on,,,,,64,0,8,,,,,1,,,76,70
75328,note_off,,,,,64,0,7,,,,,0,,,73,100
75360,note_on,,,,,32,0,7,,,,,0,,,68,94
75392,note_off,,,,,128,0,8,,,,,1,,,76,100
75424,note_off,,,,,64,0,7,,,,,0,,,68,100
75456,note_on,,,,,32,0,7,,,,,0,,,73,94
75456,note_on,,,,,64,0,8,,,,,1,,,73,70
75456,note_on,,,,,320,0,9,,,,,2,,,80,70
75520,note_off,,,,,64,0,7,,,,,0,,,73,100
75552,note_on,,,,,32,0,7,,,,,0,,,76,94
75584,note_off,,,,,128,0,9,,,,,2,,,80,100
75584,note_off,,,,,128,0,8,,,,,1,,,73,100
75616,note_off,,,,,64,0,7,,,,,0,,,76,100
75648,note_on,,,,,32,0,7,,,,,0,,,73,94
75648,note_on,,,,,64,0,9,,,,,2,,,76,70
75648,note_on,,,,,64,0,8,,,,,1,,,80,70
75712,note_off,,,,,64,0,7,,,,,0,,,73,100
75744,note_on,,,,,32,0,7,,,,,0,,,68,94
75776,note_off,,,,,128,0,9,,,,,2,,,76,100
75808,note_off,,,,,64,0,7,,,,,0,,,68,100
75840,note_on,,,,,32,0,7,,,,,0,,,73,94
75840,note_on,,,,,64,0,9,,,,,2,,,73,70
75904,note_off,,,,,64,0,7,,,,,0,,,73,100
75904,note_off,,,,,256,0,8,,,,,1,,,80,100
75936,note_on,,,,,32,0,7,,,,,0,,,76,94
75968,note_off,,,,,128,0,9,,,,,2,,,73,100
76000,note_off,,,,,64,0,7,,,,,0,,,76,100
76032,note_on,,,,,32,0,7,,,,,0,,,72,94
76032,note_on,,,,,896,0,10,,,,,3,,,56,100
76032,note_on,,,,,64,0,9,,,,,2,,,80,70
76096,note_off,,,,,64,0,7,,,,,0,,,72,100
76128,note_on,,,,,32,0,7,,,,,0,,,68,94
76192,note_off,,,,,64,0,7,,,,,0,,,68,100
76224,note_on,,,,,32,0,7,,,,,0,,,72,94
76224,note_on,,,,,320,0,8,,,,,1,,,80,70
76288,note_off,,,,,256,0,10,,,,,3,,,56,100
76288,note_off,,,,,64,0,7,,,,,0,,,72,100
76288,note_off,,,,,256,0,9,,,,,2,,,80,100
76320,note_on,,,,,32,0,7,,,,,0,,,80,94
76352,note_off,,,,,128,0,8,,,,,1,,,80,100
76384,note_off,,,,,64,0,7,,,,,0,,,80,100
76416,note_on,,,,,32,0,7,,,,,0,,,72,94
76416,note_on,,,,,64,0,8,,,,,1,,,75,70
76480,note_off,,,,,64,0,7,,,,,0,,,72,100
76512,note_on,,,,,32,0,7,,,,,0,,,68,94
76544,note_off,,,,,128,0,8,,,,,1,,,75,100
76576,note_off,,,,,64,0,7,,,,,0,,,68,100
76608,note_on,,,,,64,0,8,,,,,1,,,72,70
76608,note_on,,,,,320,0,9,,,,,2,,,80,70
76608,note_on,,,,,32,0,7,,,,,0,,,72,94
76672,note_off,,,,,64,0,7,,,,,0,,,72,100
76704,note_on,,,,,32,0,7,,,,,0,,,80,94
76736,note_off,,,,,128,0,8,,,,,1,,,72,100
76736,note_off,,,,,128,0,9,,,,,2,,,80,100
76768,note_off,,,,,64,0,7,,,,,0,,,80,100
76800,note_on,,,,,32,0,7,,,,,0,,,72,94
76800,note_on,,,,,64,0,8,,,,,1,,,80,70
76800,note_on,,,,,64,0,9,,,,,2,,,75,70
76864,note_off,,,,,64,0,7,,,,,0,,,72,100
76896,note_on,,,,,32,0,7,,,,,0,,,68,94
76928,note_off,,,,,128,0,9,,,,,2,,,75,100
76960,note_off,,,,,64,0,7,,,,,0,,,68,100
76992,note_on,,,,,64,0,9,,,,,2,,,72,70
76992,note_on,,,,,32,0,7,,,,,0,,,72,94
77056,note_off,,,,,256,0,8,,,,,1,,,80,100
77056,note_off,,,,,64,0,7,,,,,0,,,72,100
77088,note_on,,,,,32,0,7,,,,,0,,,80,94
77120,note_off,,,,,128,0,9,,,,,2,,,72,100
77152,note_off,,,,,64,0,7,,,,,0,,,80,100
77184,note_on,,,,,896,0,10,,,,,3,,,56,100
77184,note_on,,,,,64,0,9,,,,,2,,,80,70
77184,note_on,,,,,32,0,7,,,,,0,,,72,94
77248,note_off,,,,,64,0,7,,,,,0,,,72,100
77280,note_on,,,,,32,0,7,,,,,0,,,68,94
77344,note_off,,,,,64,0,7,,,,,0,,,68,100
77376,note_on,,,,,32,0,7,,,,,0,,,72,94
77376,note_on,,,,,320,0,8,,,,,1,,,80,70
77440,note_off,,,,,64,0,7,,,,,0,,,72,100
77440,note_off,,,,,256,0,9,,,,,2,,,80,100
77440,note_off,,,,,256,0,10,,,,,3,,,56,100
77472,note_on,,,,,32,0,7,,,,,0,,,80,94
77504,note_off,,,,,128,0,8,,,,,1,,,80,100
77536,note_off,,,,,64,0,7,,,,,0,,,80,100
77568,note_on,,,,,64,0,8,,,,,1,,,75,70
77568,note_on,,,,,32,0,7,,,,,0,,,72,94
77632,note_off,,,,,64,0,7,,,,,0,,,72,100
77664,note_on,,,,,32,0,7,,,,,0,,,68,94
77696,note_off,,,,,128,0,8,,,,,1,,,75,100
77728,note_off,,,,,64,0,7,,,,,0,,,68,100
77760,note_on,,,,,32,0,7,,,,,0,,,72,94
77760,note_on,,,,,320,0,9,,,,,2,,,80,70
77760,note_on,,,,,64,0,8,,,,,1,,,72,70
77824,note_off,,,,,64,0,7,,,,,0,,,72,100
77856,note_on,,,,,32,0,7,,,,,0,,,80,94
77888,note_off,,,,,128,0,8,,,,,1,,,72,100
77888,note_off,,,,,128,0,9,,,,,2,,,80,100
77920,note_off,,,,,64,0,7,,,,,0,,,80,100
77952,note_on,,,,,32,0,7,,,,,0,,,72,94
77952,note_on,,,,,64,0,8,,,,,1,,,80,70
77952,note_on,,,,,64,0,9,,,,,2,,,75,70
78016,note_off,,,,,64,0,7,,,,,0,,,72,100
78048,note_on,,,,,32,0,7,,,,,0,,,68,94
78080,note_off,,,,,128,0,9,,,,,2,,,75,100
78112,note_off,,,,,64,0,7,,,,,0,,,68,100
78144,note_on,,,,,32,0,7,,,,,0,,,72,94
78144,note_on,,,,,64,0,9,,,,,2,,,72,70
78208,note_off,,,,,256,0,8,,,,,1,,,80,100
78208,note_off,,,,,64,0,7,,,,,0,,,72,100
78240,note_on,,,,,32,0,7,,,,,0,,,80,94
78272,note_off,,,,,128,0,9,,,,,2,,,72,100
78304,note_off,,,,,64,0,7,,,,,0,,,80,100
78336,note_on,,,,,32,0,7,,,,,0,,,73,94
78336,note_on,,,,,896,0,10,,,,,3,,,61,100
78336,note_on,,,,,64,0,9,,,,,2,,,80,70
78400,note_off,,,,,64,0,7,,,,,0,,,73,100
78432,note_on,,,,,32,0,7,,,,,0,,,68,94
78496,note_off,,,,,64,0,7,,,,,0,,,68,100
78528,note_on,,,,,320,0,8,,,,,1,,,80,70
78528,note_on,,,,,32,0,7,,,,,0,,,73,94
78592,note_off,,,,,256,0,10,,,,,3,,,61,100
78592,note_off,,,,,256,0,9,,,,,2,,,80,100
78592,note_off,,,,,64,0,7,,,,,0,,,73,100
78624,note_on,,,,,32,0,7,,,,,0,,,76,94
78656,note_off,,,,,128,0,8,,,,,1,,,80,100
78688,note_off,,,,,64,0,7,,,,,0,,,76,100
78720,note_on,,,,,64,0,8,,,,,1,,,76,70
78720,note_on,,,,,32,0,7,,,,,0,,,73,94
78784,note_off,,,,,64,0,7,,,,,0,,,73,100
78816,note_on,,,,,32,0,7,,,,,0,,,68,94
78848,note_off,,,,,128,0,8,,,,,1,,,76,100
78880,note_off,,,,,64,0,7,,,,,0,,,68,100
78912,note_on,,,,,320,0,9,,,,,2,,,80,70
78912,note_on,,,,,32,0,7,,,,,0,,,73,94
78912,note_on,,,,,64,0,8,,,,,1,,,73,70
78976,note_off,,,,,64,0,7,,,,,0,,,73,100
79008,note_on,,,,,32,0,7,,,,,0,,,76,94
79040,note_off,,,,,128,0,9,,,,,2,,,80,100
79040,note_off,,,,,128,0,8,,,,,1,,,73,100
79072,note_off,,,,,64,0,7,,,,,0,,,76,100
79104,note_on,,,,,32,0,7,,,,,0,,,73,94
79104,note_on,,,,,64,0,9,,,,,2,,,76,70
79104,note_on,,,,,64,0,8,,,,,1,,,80,70
79168,note_off,,,,,64,0,7,,,,,0,,,73,100
79200,note_on,,,,,32,0,7,,,,,0,,,68,94
79232,note_off,,,,,128,0,9,,,,,2,,,76,100
79264,note_off,,,,,64,0,7,,,,,0,,,68,100
79296,note_on,,,,,32,0,7,,,,,0,,,73,94
79296,note_on,,,,,64,0,9,,,,,2,,,73,70
79360,note_off,,,,,256,0,8,,,,,1,,,80,100
79360,note_off,,,,,64,0,7,,,,,0,,,73,100
79392,note_on,,,,,32,0,7,,,,,0,,,76,94
79424,note_off,,,,,128,0,9,,,,,2,,,73,100
79456,note_off,,,,,64,0,7,,,,,0,,,76,100
79488,note_on,,,,,64,0,9,,,,,2,,,80,70
79488,note_on,,,,,32,0,7,,,,,0,,,73,94
79488,note_on,,,,,896,0,10,,,,,3,,,61,100
79552,note_off,,,,,64,0,7,,,,,0,,,73,100
79584,note_on,,,,,32,0,7,,,,,0,,,68,94
79648,note_off,,,,,64,0,7,,,,,0,,,68,100
79680,note_on,,,,,32,0,7,,,,,0,,,73,94
79680,note_on,,,,,320,0,8,,,,,1,,,80,70
79744,note_off,,,,,64,0,7,,,,,0,,,73,100
79744,note_off,,,,,256,0,10,,,,,3,,,61,100
79744,note_off,,,,,256,0,9,,,,,2,,,80,100
79776,note_on,,,,,32,0,7,,,,,0,,,76,94
79808,note_off,,,,,128,0,8,,,,,1,,,80,100
79840,note_off,,,,,64,0,7,,,,,0,,,76,100
79872,note_on,,,,,32,0,7,,,,,0,,,73,94
79872,note_on,,,,,64,0,8,,,,,1,,,76,70
79936,note_off,,,,,64,0,7,,,,,0,,,73,100
79968,note_on,,,,,32,0,7,,,,,0,,,68,94
80000,note_off,,,,,128,0,8,,,,,1,,,76,100
80032,note_off,,,,,64,0,7,,,,,0,,,68,100
80064,note_on,,,,,32,0,7,,,,,0,,,73,94
80064,note_on,,,,,320,0,9,,,,,2,,,80,70
80064,note_on,,,,,64,0,8,,,,,1,,,73,70
80128,note_off,,,,,64,0,7,,,,,0,,,73,100
80160,note_on,,,,,32,0,7,,,,,0,,,76,94
80192,note_off,,,,,128,0,9,,,,,2,,,80,100
80192,note_off,,,,,128,0,8,,,,,1,,,73,100
80224,note_off,,,,,64,0,7,,,,,0,,,76,100
80256,note_on,,,,,64,0,8,,,,,1,,,80,70
80256,note_on,,,,,32,0,7,,,,,0,,,73,94
80256,note_on,,,,,64,0,9,,,,,2,,,76,70
80320,note_off,,,,,64,0,7,,,,,0,,,73,100
80352,note_on,,,,,32,0,7,,,,,0,,,68,94
80384,note_off,,,,,128,0,9,,,,,2,,,76,100
80416,note_off,,,,,64,0,7,,,,,0,,,68,100
80448,note_on,,,,,32,0,7,,,,,0,,,73,94
80448,note_on,,,,,64,0,9,,,,,2,,,73,70
80512,note_off,,,,,256,0,8,,,,,1,,,80,100
80512,note_off,,,,,64,0,7,,,,,0,,,73,100
80544,note_on,,,,,32,0,7,,,,,0,,,76,94
80576,note_off,,,,,128,0,9,,,,,2,,,73,100
80608,note_off,,,,,64,0,7,,,,,0,,,76,100
80640,note_on,,,,,64,0,9,,,,,2,,,81,70
80640,note_on,,,,,896,0,10,,,,,3,,,66,100
80640,note_on,,,,,32,0,7,,,,,0,,,73,94
80704,note_off,,,,,64,0,7,,,,,0,,,73,100
80736,note_on,,,,,32,0,7,,,,,0,,,66,94
80800,note_off,,,,,64,0,7,,,,,0,,,66,100
80832,note_on,,,,,32,0,7,,,,,0,,,73,94
80832,note_on,,,,,320,0,8,,,,,1,,,81,70
80896,note_off,,,,,64,0,7,,,,,0,,,73,100
80896,note_off,,,,,256,0,9,,,,,2,,,81,100
80896,note_off,,,,,256,0,10,,,,,3,,,66,100
80928,note_on,,,,,32,0,7,,,,,0,,,81,94
80960,note_off,,,,,128,0,8,,,,,1,,,81,100
80992,note_off,,,,,64,0,7,,,,,0,,,81,100
81024,note_on,,,,,64,0,8,,,,,1,,,78,70
81024,note_on,,,,,32,0,7,,,,,0,,,73,94
81088,note_off,,,,,64,0,7,,,,,0,,,73,100
81120,note_on,,,,,32,0,7,,,,,0,,,66,94
81152,note_off,,,,,128,0,8,,,,,1,,,78,100
81184,note_off,,,,,64,0,7,,,,,0,,,66,100
81216,note_on,,,,,320,0,9,,,,,2,,,81,70
81216,note_on,,,,,64,0,8,,,,,1,,,73,70
81216,note_on,,,,,32,0,7,,,,,0,,,73,94
81280,note_off,,,,,64,0,7,,,,,0,,,73,100
81312,note_on,,,,,32,0,7,,,,,0,,,81,94
81344,note_off,,,,,128,0,8,,,,,1,,,73,100
81344,note_off,,,,,128,0,9,,,,,2,,,81,100
81376,note_off,,,,,64,0,7,,,,,0,,,81,100
81408,note_on,,,,,64,0,9,,,,,2,,,78,70
81408,note_on,,,,,64,0,8,,,,,1,,,81,70
81408,note_on,,,,,32,0,7,,,,,0,,,73,94
81472,note_off,,,,,64,0,7,,,,,0,,,73,100
81504,note_on,,,,,32,0,7,,,,,0,,,66,94
81536,note_off,,,,,128,0,9,,,,,2,,,78,100
81568,note_off,,,,,64,0,7,,,,,0,,,66,100
81600,note_on,,,,,64,0,9,,,,,2,,,73,70
81600,note_on,,,,,32,0,7,,,,,0,,,73,94
81664,note_off,,,,,64,0,7,,,,,0,,,73,100
81664,note_off,,,,,256,0,8,,,,,1,,,81,100
81696,note_on,,,,,32,0,7,,,,,0,,,81,94
81728,note_off,,,,,128,0,9,,,,,2,,,73,100
81760,note_off,,,,,64,0,7,,,,,0,,,81,100
81792,note_on,,,,,896,0,10,,,,,3,,,66,100
81792,note_on,,,,,32,0,7,,,,,0,,,73,94
81792,note_on,,,,,64,0,9,,,,,2,,,81,70
81856,note_off,,,,,64,0,7,,,,,0,,,73,100
81888,note_on,,,,,32,0,7,,,,,0,,,66,94
81952,note_off,,,,,64,0,7,,,,,0,,,66,100
81984,note_on,,,,,32,0,7,,,,,0,,,73,94
81984,note_on,,,,,320,0,8,,,,,1,,,81,70
82048,note_off,,,,,64,0,7,,,,,0,,,73,100
82048,note_off,,,,,256,0,10,,,,,3,,,66,100
82048,note_off,,,,,256,0,9,,,,,2,,,81,100
82080,note_on,,,,,32,0,7,,,,,0,,,81,94
82112,note_off,,,,,128,0,8,,,,,1,,,81,100
82144,note_off,,,,,64,0,7,,,,,0,,,81,100
82176,note_on,,,,,64,0,8,,,,,1,,,78,70
82176,note_on,,,,,32,0,7,,,,,0,,,73,94
82240,note_off,,,,,64,0,7,,,,,0,,,73,100
82272,note_on,,,,,32,0,7,,,,,0,,,66,94
82304,note_off,,,,,128,0,8,,,,,1,,,78,100
82336,note_off,,,,,64,0,7,,,,,0,,,66,100
82368,note_on,,,,,64,0,8,,,,,1,,,73,70
82368,note_on,,,,,32,0,7,,,,,0,,,73,94
82368,note_on,,,,,320,0,9,,,,,2,,,81,70
82432,note_off,,,,,64,0,7,,,,,0,,,73,100
82464,note_on,,,,,32,0,7,,,,,0,,,81,94
82496,note_off,,,,,128,0,8,,,,,1,,,73,100
82496,note_off,,,,,128,0,9,,,,,2,,,81,100
82528,note_off,,,,,64,0,7,,,,,0,,,81,100
82560,note_on,,,,,32,0,7,,,,,0,,,73,94
82560,note_on,,,,,64,0,8,,,,,1,,,81,70
82560,note_on,,,,,64,0,9,,,,,2,,,78,70
82624,note_off,,,,,64,0,7,,,,,0,,,73,100
82656,note_on,,,,,32,0,7,,,,,0,,,66,94
82688,note_off,,,,,128,0,9,,,,,2,,,78,100
82720,note_off,,,,,64,0,7,,,,,0,,,66,100
82752,note_on,,,,,64,0,9,,,,,2,,,73,70
82752,note_on,,,,,32,0,7,,,,,0,,,73,94
82816,note_off,,,,,256,0,8,,,,,1,,,81,100
82816,note_off,,,,,64,0,7,,,,,0,,,73,100
82848,note_on,,,,,32,0,7,,,,,0,,,81,94
82880,note_off,,,,,128,0,9,,,,,2,,,73,100
82912,note_off,,,,,64,0,7,,,,,0,,,81,100
82944,note_on,,,,,32,0,7,,,,,0,,,71,94
82944,note_on,,,,,896,0,10,,,,,3,,,59,100
82944,note_on,,,,,64,0,9,,,,,2,,,81,70
83008,note_off,,,,,64,0,7,,,,,0,,,71,100
83040,note_on,,,,,32,0,7,,,,,0,,,66,94
83104,note_off,,,,,64,0,7,,,,,0,,,66,100
83136,note_on,,,,,32,0,7,,,,,0,,,71,94
83136,note_on,,,,,320,0,8,,,,,1,,,81,70
83200,note_off,,,,,256,0,9,,,,,2,,,81,100
83200,note_off,,,,,256,0,10,,,,,3,,,59,100
83200,note_off,,,,,64,0,7,,,,,0,,,71,100
83232,note_on,,,,,32,0,7,,,,,0,,,81,94
83264,note_off,,,,,128,0,8,,,,,1,,,81,100
83296,note_off,,,,,64,0,7,,,,,0,,,81,100
83328,note_on,,,,,64,0,8,,,,,1,,,78,70
83328,note_on,,,,,32,0,7,,,,,0,,,71,94
83392,note_off,,,,,64,0,7,,,,,0,,,71,100
83424,note_on,,,,,32,0,7,,,,,0,,,66,94
83456,note_off,,,,,128,0,8,,,,,1,,,78,100
83488,note_off,,,,,64,0,7,,,,,0,,,66,100
83520,note_on,,,,,320,0,9,,,,,2,,,81,70
83520,note_on,,,,,32,0,7,,,,,0,,,71,94
83520,note_on,,,,,64,0,8,,,,,1,,,75,70
83584,note_off,,,,,64,0,7,,,,,0,,,71,100
83616,note_on,,,,,32,0,7,,,,,0,,,81,94
83648,note_off,,,,,128,0,9,,,,,2,,,81,100
83648,note_off,,,,,128,0,8,,,,,1,,,75,100
83680,note_off,,,,,64,0,7,,,,,0,,,81,100
83712,note_on,,,,,64,0,8,,,,,1,,,81,70
83712,note_on,,,,,64,0,9,,,,,2,,,78,70
83712,note_on,,,,,32,0,7,,,,,0,,,71,94
83776,note_off,,,,,64,0,7,,,,,0,,,71,100
83808,note_on,,,,,32,0,7,,,,,0,,,66,94
83840,note_off,,,,,128,0,9,,,,,2,,,78,100
83872,note_off,,,,,64,0,7,,,,,0,,,66,100
83904,note_on,,,,,32,0,7,,,,,0,,,71,94
83904,note_on,,,,,64,0,9,,,,,2,,,75,70
83968,note_off,,,,,64,0,7,,,,,0,,,71,100
83968,note_off,,,,,256,0,8,,,,,1,,,81,100
84000,note_on,,,,,32,0,7,,,,,0,,,81,94
84032,note_off,,,,,128,0,9,,,,,2,,,75,100
84064,note_off,,,,,64,0,7,,,,,0,,,81,100
84096,note_on,,,,,896,0,10,,,,,3,,,59,100
84096,note_on,,,,,32,0,7,,,,,0,,,71,94
84096,note_on,,,,,64,0,9,,,,,2,,,81,70
84160,note_off,,,,,64,0,7,,,,,0,,,71,100
84192,note_on,,,,,32,0,7,,,,,0,,,66,94
84256,note_off,,,,,64,0,7,,,,,0,,,66,100
84288,note_on,,,,,32,0,7,,,,,0,,,71,94
84288,note_on,,,,,320,0,8,,,,,1,,,81,70
84352,note_off,,,,,64,0,7,,,,,0,,,71,100
84352,note_off,,,,,256,0,10,,,,,3,,,59,100
84352,note_off,,,,,256,0,9,,,,,2,,,81,100
84384,note_on,,,,,32,0,7,,,,,0,,,81,94
84416,note_off,,,,,128,0,8,,,,,1,,,81,100
84448,note_off,,,,,64,0,7,,,,,0,,,81,100
84480,note_on,,,,,64,0,8,,,,,1,,,78,70
84480,note_on,,,,,32,0,7,,,,,0,,,71,94
84544,note_off,,,,,64,0,7,,,,,0,,,71,100
84576,note_on,,,,,32,0,7,,,,,0,,,66,94
84608,note_off,,,,,128,0,8,,,,,1,,,78,100
84640,note_off,,,,,64,0,7,,,,,0,,,66,100
84672,note_on,,,,,320,0,9,,,,,2,,,81,70
84672,note_on,,,,,32,0,7,,,,,0,,,71,94
84672,note_on,,,,,64,0,8,,,,,1,,,75,70
84736,note_off,,,,,64,0,7,,,,,0,,,71,100
84768,note_on,,,,,32,0,7,,,,,0,,,81,94
84800,note_off,,,,,128,0,8,,,,,1,,,75,100
84800,note_off,,,,,128,0,9,,,,,2,,,81,100
84832,note_off,,,,,64,0,7,,,,,0,,,81,100
84864,note_on,,,,,64,0,9,,,,,2,,,78,70
84864,note_on,,,,,64,0,8,,,,,1,,,81,70
84864,note_on,,,,,32,0,7,,,,,0,,,71,94
84928,note_off,,,,,64,0,7,,,,,0,,,71,100
84960,note_on,,,,,32,0,7,,,,,0,,,66,94
84992,note_off,,,,,128,0,9,,,,,2,,,78,100
85024,note_off,,,,,64,0,7,,,,,0,,,66,100
85056,note_on,,,,,64,0,9,,,,,2,,,75,70
85056,note_on,,,,,32,0,7,,,,,0,,,71,94
85120,note_off,,,,,64,0,7,,,,,0,,,71,100
85120,note_off,,,,,256,0,8,,,,,1,,,81,100
85152,note_on,,,,,32,0,7,,,,,0,,,81,94
85184,note_off,,,,,128,0,9,,,,,2,,,75,100
85216,note_off,,,,,64,0,7,,,,,0,,,81,100
85248,note_on,,,,,32,0,7,,,,,0,,,71,94
85248,note_on,,,,,896,0,10,,,,,3,,,64,100
85248,note_on,,,,,64,0,9,,,,,2,,,80,70
85312,note_off,,,,,64,0,7,,,,,0,,,71,100
85344,note_on,,,,,32,0,7,,,,,0,,,64,94
85408,note_off,,,,,64,0,7,,,,,0,,,64,100
85440,note_on,,,,,320,0,8,,,,,1,,,80,70
85440,note_on,,,,,32,0,7,,,,,0,,,71,94
85504,note_off,,,,,256,0,9,,,,,2,,,80,100
85504,note_off,,,,,256,0,10,,,,,3,,,64,100
85504,note_off,,,,,64,0,7,,,,,0,,,71,100
85536,note_on,,,,,32,0,7,,,,,0,,,80,94
85568,note_off,,,,,128,0,8,,,,,1,,,80,100
85600,note_off,,,,,64,0,7,,,,,0,,,80,100
85632,note_on,,,,,64,0,8,,,,,1,,,76,70
85632,note_on,,,,,32,0,7,,,,,0,,,71,94
85696,note_off,,,,,64,0,7,,,,,0,,,71,100
85728,note_on,,,,,32,0,7,,,,,0,,,64,94
85760,note_off,,,,,128,0,8,,,,,1,,,76,100
85792,note_off,,,,,64,0,7,,,,,0,,,64,100
85824,note_on,,,,,320,0,9,,,,,2,,,80,70
85824,note_on,,,,,64,0,8,,,,,1,,,71,70
85824,note_on,,,,,32,0,7,,,,,0,,,71,94
85888,note_off,,,,,64,0,7,,,,,0,,,71,100
85920,note_on,,,,,32,0,7,,,,,0,,,80,94
85952,note_off,,,,,128,0,9,,,,,2,,,80,100
85952,note_off,,,,,128,0,8,,,,,1,,,71,100
85984,note_off,,,,,64,0,7,,,,,0,,,80,100
86016,note_on,,,,,64,0,8,,,,,1,,,80,70
86016,note_on,,,,,32,0,7,,,,,0,,,71,94
86016,note_on,,,,,64,0,9,,,,,2,,,76,70
86080,note_off,,,,,64,0,7,,,,,0,,,71,100
86112,note_on,,,,,32,0,7,,,,,0,,,64,94
86144,note_off,,,,,128,0,9,,,,,2,,,76,100
86176,note_off,,,,,64,0,7,,,,,0,,,64,100
86208,note_on,,,,,64,0,9,,,,,2,,,71,70
86208,note_on,,,,,32,0,7,,,,,0,,,71,94
86272,note_off,,,,,64,0,7,,,,,0,,,71,100
86272,note_off,,,,,256,0,8,,,,,1,,,80,100
86304,note_on,,,,,32,0,7,,,,,0,,,80,94
86336,note_off,,,,,128,0,9,,,,,2,,,71,100
86368,note_off,,,,,64,0,7,,,,,0,,,80,100
86400,note_on,,,,,64,0,9,,,,,2,,,80,70
86400,note_on,,,,,32,0,7,,,,,0,,,71,94
86400,note_on,,,,,896,0,10,,,,,3,,,64,100
86464,note_off,,,,,64,0,7,,,,,0,,,71,100
86496,note_on,,,,,32,0,7,,,,,0,,,64,94
86560,note_off,,,,,64,0,7,,,,,0,,,64,100
86592,note_on,,,,,32,0,7,,,,,0,,,71,94
86592,note_on,,,,,320,0,8,,,,,1,,,80,70
86656,note_off,,,,,256,0,9,,,,,2,,,80,100
86656,note_off,,,,,256,0,10,,,,,3,,,64,100
86656,note_off,,,,,64,0,7,,,,,0,,,71,100
86688,note_on,,,,,32,0,7,,,,,0,,,80,94
86720,note_off,,,,,128,0,8,,,,,1,,,80,100
86752,note_off,,,,,64,0,7,,,,,0,,,80,100
86784,note_on,,,,,64,0,8,,,,,1,,,76,70
86784,note_on,,,,,32,0,7,,,,,0,,,71,94
86848,note_off,,,,,64,0,7,,,,,0,,,71,100
86880,note_on,,,,,32,0,7,,,,,0,,,64,94
86912,note_off,,,,,128,0,8,,,,,1,,,76,100
86944,note_off,,,,,64,0,7,,,,,0,,,64,100
86976,note_on,,,,,64,0,8,,,,,1,,,71,70
86976,note_on,,,,,320,0,9,,,,,2,,,80,70
86976,note_on,,,,,32,0,7,,,,,0,,,71,94
87040,note_off,,,,,64,0,7,,,,,0,,,71,100
87072,note_on,,,,,32,0,7,,,,,0,,,80,94
87104,note_off,,,,,128,0,8,,,,,1,,,71,100
87104,note_off,,,,,128,0,9,,,,,2,,,80,100
87136,note_off,,,,,64,0,7,,,,,0,,,80,100
87168,note_on,,,,,64,0,8,,,,,1,,,80,70
87168,note_on,,,,,32,0,7,,,,,0,,,71,94
87168,note_on,,,,,64,0,9,,,,,2,,,76,70
87232,note_off,,,,,64,0,7,,,,,0,,,71,100
87264,note_on,,,,,32,0,7,,,,,0,,,64,94
87296,note_off,,,,,128,0,9,,,,,2,,,76,100
87328,note_off,,,,,64,0,7,,,,,0,,,64,100
87360,note_on,,,,,64,0,9,,,,,2,,,71,70
87360,note_on,,,,,32,0,7,,,,,0,,,71,94
87424,note_off,,,,,256,0,8,,,,,1,,,80,100
87424,note_off,,,,,64,0,7,,,,,0,,,71,100
87456,note_on,,,,,32,0,7,,,,,0,,,80,94
87488,note_off,,,,,128,0,9,,,,,2,,,71,100
87520,note_off,,,,,64,0,7,,,,,0,,,80,100
87552,note_on,,,,,32,0,7,,,,,0,,,73,92
87552,note_on,,,,,64,0,9,,,,,2,,,82,70
87552,note_on,,,,,896,0,10,,,,,3,,,66,100
87616,note_off,,,,,64,0,7,,,,,0,,,73,100
87648,note_on,,,,,32,0,7,,,,,0,,,64,92
87712,note_off,,,,,64,0,7,,,,,0,,,64,100
87744,note_on,,,,,320,0,8,,,,,1,,,82,70
87744,note_on,,,,,32,0,7,,,,,0,,,73,92
87808,note_off,,,,,64,0,7,,,,,0,,,73,100
87808,note_off,,,,,256,0,9,,,,,2,,,82,100
87808,note_off,,,,,256,0,10,,,,,3,,,66,100
87840,note_on,,,,,32,0,7,,,,,0,,,82,93
87872,note_off,,,,,128,0,8,,,,,1,,,82,100
87904,note_off,,,,,64,0,7,,,,,0,,,82,100
87936,note_on,,,,,64,0,8,,,,,1,,,78,70
87936,note_on,,,,,32,0,7,,,,,0,,,73,93
88000,note_off,,,,,64,0,7,,,,,0,,,73,100
88032,note_on,,,,,32,0,7,,,,,0,,,64,93
88064,note_off,,,,,128,0,8,,,,,1,,,78,100
88096,note_off,,,,,64,0,7,,,,,0,,,64,100
88128,note_on,,,,,64,0,8,,,,,1,,,73,70
88128,note_on,,,,,320,0,9,,,,,2,,,82,70
88128,note_on,,,,,32,0,7,,,,,0,,,73,94
88192,note_off,,,,,64,0,7,,,,,0,,,73,100
88224,note_on,,,,,32,0,7,,,,,0,,,82,94
88256,note_off,,,,,128,0,8,,,,,1,,,73,100
88256,note_off,,,,,128,0,9,,,,,2,,,82,100
88288,note_off,,,,,64,0,7,,,,,0,,,82,100
88320,note_on,,,,,64,0,8,,,,,1,,,82,70
88320,note_on,,,,,64,0,9,,,,,2,,,78,70
88320,note_on,,,,,32,0,7,,,,,0,,,73,94
88384,note_off,,,,,64,0,7,,,,,0,,,73,100
88416,note_on,,,,,32,0,7,,,,,0,,,64,95
88448,note_off,,,,,128,0,9,,,,,2,,,78,100
88480,note_off,,,,,64,0,7,,,,,0,,,64,100
88512,note_on,,,,,64,0,9,,,,,2,,,73,70
88512,note_on,,,,,32,0,7,,,,,0,,,73,95
88576,note_off,,,,,256,0,8,,,,,1,,,82,100
88576,note_off,,,,,64,0,7,,,,,0,,,73,100
88608,note_on,,,,,32,0,7,,,,,0,,,82,95
88640,note_off,,,,,128,0,9,,,,,2,,,73,100
88672,note_off,,,,,64,0,7,,,,,0,,,82,100
88704,note_on,,,,,32,0,7,,,,,0,,,75,96
88704,note_on,,,,,64,0,9,,,,,2,,,83,70
88704,note_on,,,,,896,0,10,,,,,3,,,59,100
88768,note_off,,,,,64,0,7,,,,,0,,,75,100
88800,note_on,,,,,32,0,7,,,,,0,,,66,96
88864,note_off,,,,,64,0,7,,,,,0,,,66,100
88896,note_on,,,,,32,0,7,,,,,0,,,75,96
88896,note_on,,,,,320,0,8,,,,,1,,,83,70
88960,note_off,,,,,256,0,10,,,,,3,,,59,100
88960,note_off,,,,,256,0,9,,,,,2,,,83,100
88960,note_off,,,,,64,0,7,,,,,0,,,75,100
88992,note_on,,,,,32,0,7,,,,,0,,,83,97
89024,note_off,,,,,128,0,8,,,,,1,,,83,100
89056,note_off,,,,,64,0,7,,,,,0,,,83,100
89088,note_on,,,,,64,0,8,,,,,1,,,78,70
89088,note_on,,,,,32,0,7,,,,,0,,,75,97
89152,note_off,,,,,64,0,7,,,,,0,,,75,100
89184,note_on,,,,,32,0,7,,,,,0,,,66,97
89216,note_off,,,,,128,0,8,,,,,1,,,78,100
89248,note_off,,,,,64,0,7,,,,,0,,,66,100
89280,note_on,,,,,320,0,9,,,,,2,,,83,70
89280,note_on,,,,,64,0,8,,,,,1,,,75,70
89280,note_on,,,,,32,0,7,,,,,0,,,75,98
89344,note_off,,,,,64,0,7,,,,,0,,,75,100
89376,note_on,,,,,32,0,7,,,,,0,,,83,98
89408,note_off,,,,,128,0,8,,,,,1,,,75,100
89408,note_off,,,,,128,0,9,,,,,2,,,83,100
89440,note_off,,,,,64,0,7,,,,,0,,,83,100
89472,note_on,,,,,64,0,8,,,,,1,,,83,70
89472,note_on,,,,,32,0,7,,,,,0,,,75,98
89472,note_on,,,,,64,0,9,,,,,2,,,78,70
89536,note_off,,,,,64,0,7,,,,,0,,,75,100
89568,note_on,,,,,32,0,7,,,,,0,,,66,99
89600,note_off,,,,,128,0,9,,,,,2,,,78,100
89632,note_off,,,,,64,0,7,,,,,0,,,66,100
89664,note_on,,,,,64,0,9,,,,,2,,,75,70
89664,note_on,,,,,32,0,7,,,,,0,,,75,99
89728,note_off,,,,,256,0,8,,,,,1,,,83,100
89728,note_off,,,,,64,0,7,,,,,0,,,75,100
89760,note_on,,,,,32,0,7,,,,,0,,,83,99
89792,note_off,,,,,128,0,9,,,,,2,,,75,100
89824,note_off,,,,,64,0,7,,,,,0,,,83,100
89856,note_on,,,,,32,0,7,,,,,0,,,73,100
89856,note_on,,,,,64,0,9,,,,,2,,,83,70
89856,note_on,,,,,896,0,10,,,,,3,,,66,100
89920,note_off,,,,,64,0,7,,,,,0,,,73,100
89952,note_on,,,,,32,0,7,,,,,0,,,66,100
90016,note_off,,,,,64,0,7,,,,,0,,,66,100
90048,note_on,,,,,32,0,7,,,,,0,,,73,100
90048,note_on,,,,,320,0,8,,,,,1,,,83,70
90112,note_off,,,,,64,0,7,,,,,0,,,73,100
90112,note_off,,,,,256,0,9,,,,,2,,,83,100
90112,note_off,,,,,256,0,10,,,,,3,,,66,100
90144,note_on,,,,,32,0,7,,,,,0,,,83,101
90176,note_off,,,,,128,0,8,,,,,1,,,83,100
90208,note_off,,,,,64,0,7,,,,,0,,,83,100
90240,note_on,,,,,32,0,7,,,,,0,,,73,101
90240,note_on,,,,,64,0,8,,,,,1,,,78,70
90304,note_off,,,,,64,0,7,,,,,0,,,73,100
90336,note_on,,,,,32,0,7,,,,,0,,,66,102
90368,note_off,,,,,128,0,8,,,,,1,,,78,100
90400,note_off,,,,,64,0,7,,,,,0,,,66,100
90432,note_on,,,,,32,0,7,,,,,0,,,73,102
90432,note_on,,,,,64,0,8,,,,,1,,,73,70
90432,note_on,,,,,320,0,9,,,,,2,,,83,70
90496,note_off,,,,,64,0,7,,,,,0,,,73,100
90528,note_on,,,,,32,0,7,,,,,0,,,83,102
90560,note_off,,,,,128,0,8,,,,,1,,,73,100
90560,note_off,,,,,128,0,9,,,,,2,,,83,100
90592,note_off,,,,,64,0,7,,,,,0,,,83,100
90624,note_on,,,,,64,0,8,,,,,1,,,83,70
90624,note_on,,,,,32,0,7,,,,,0,,,73,103
90624,note_on,,,,,64,0,9,,,,,2,,,78,70
90688,note_off,,,,,64,0,7,,,,,0,,,73,100
90720,note_on,,,,,32,0,7,,,,,0,,,66,103
90752,note_off,,,,,128,0,9,,,,,2,,,78,100
90784,note_off,,,,,64,0,7,,,,,0,,,66,100
90816,note_on,,,,,64,0,9,,,,,2,,,73,70
90816,note_on,,,,,32,0,7,,,,,0,,,73,103
90880,note_off,,,,,64,0,7,,,,,0,,,73,100
90880,note_off,,,,,256,0,8,,,,,1,,,83,100
90912,note_on,,,,,32,0,7,,,,,0,,,83,104
90944,note_off,,,,,128,0,9,,,,,2,,,73,100
90976,note_off,,,,,64,0,7,,,,,0,,,83,100
91008,note_on,,,,,64,0,9,,,,,2,,,82,70
91008,note_on,,,,,896,0,10,,,,,3,,,66,100
91008,note_on,,,,,32,0,7,,,,,0,,,73,104
91072,note_off,,,,,64,0,7,,,,,0,,,73,100
91104,note_on,,,,,32,0,7,,,,,0,,,66,104
91168,note_off,,,,,64,0,7,,,,,0,,,66,100
91200,note_on,,,,,32,0,7,,,,,0,,,73,105
91200,note_on,,,,,320,0,8,,,,,1,,,82,70
91264,note_off,,,,,256,0,9,,,,,2,,,82,100
91264,note_off,,,,,256,0,10,,,,,3,,,66,100
91264,note_off,,,,,64,0,7,,,,,0,,,73,100
91296,note_on,,,,,32,0,7,,,,,0,,,82,105
91328,note_off,,,,,128,0,8,,,,,1,,,82,100
91360,note_off,,,,,64,0,7,,,,,0,,,82,100
91392,note_on,,,,,32,0,7,,,,,0,,,73,105
91392,note_on,,,,,64,0,8,,,,,1,,,78,70
91456,note_off,,,,,64,0,7,,,,,0,,,73,100
91488,note_on,,,,,32,0,7,,,,,0,,,66,106
91520,note_off,,,,,128,0,8,,,,,1,,,78,100
91552,note_off,,,,,64,0,7,,,,,0,,,66,100
91584,note_on,,,,,32,0,7,,,,,0,,,73,106
91584,note_on,,,,,64,0,8,,,,,1,,,73,70
91584,note_on,,,,,320,0,9,,,,,2,,,82,70
91648,note_off,,,,,64,0,7,,,,,0,,,73,100
91680,note_on,,,,,32,0,7,,,,,0,,,82,106
91712,note_off,,,,,128,0,9,,,,,2,,,82,100
91712,note_off,,,,,128,0,8,,,,,1,,,73,100
91744,note_off,,,,,64,0,7,,,,,0,,,82,100
91776,note_on,,,,,32,0,7,,,,,0,,,73,107
91776,note_on,,,,,64,0,9,,,,,2,,,78,70
91776,note_on,,,,,64,0,8,,,,,1,,,82,70
91840,note_off,,,,,64,0,7,,,,,0,,,73,100
91872,note_on,,,,,32,0,7,,,,,0,,,66,107
91904,note_off,,,,,128,0,9,,,,,2,,,78,100
91936,note_off,,,,,64,0,7,,,,,0,,,66,100
91968,note_on,,,,,64,0,9,,,,,2,,,73,70
91968,note_on,,,,,32,0,7,,,,,0,,,73,107
92032,note_off,,,,,256,0,8,,,,,1,,,82,100
92032,note_off,,,,,64,0,7,,,,,0,,,73,100
92064,note_on,,,,,32,0,7,,,,,0,,,82,108
92096,note_off,,,,,128,0,9,,,,,2,,,73,100
92128,note_off,,,,,64,0,7,,,,,0,,,82,100
92160,note_on,,,,,19328,0,14,,,,,6,,,47,100
92160,note_on,,,,,32,0,7,,,,,0,,,59,108
92160,note_on,,,,,896,0,10,,,,,3,,,66,100
92160,note_on,,,,,0,0,7,,,,,0,,,66,108
92160,note_on,,,,,19328,0,11,,,,,4,,,47,100
92160,note_on,,,,,0,0,13,,,,,6,,,66,100
92160,note_on,,,,,19328,0,13,,,,,6,,,63,100
92160,note_on,,,,,64,0,9,,,,,2,,,71,100
92160,note_on,,,,,128,0,8,,,,,1,,,83,100
92160,note_on,,,,,19328,0,12,,,,,5,,,35,100
92252,note_off,,,,,0,0,7,,,,,0,,,66,100
92252,note_off,,,,,92,0,7,,,,,0,,,59,100
92256,note_on,,,,,0,0,7,,,,,0,,,75,108
92256,note_on,,,,,4,0,7,,,,,0,,,83,108
92288,note_off,,,,,128,0,10,,,,,3,,,66,100
92288,note_off,,,,,128,0,9,,,,,2,,,71,100
92352,note_on,,,,,64,0,9,,,,,2,,,83,100
92352,note_on,,,,,64,0,10,,,,,3,,,75,100
92416,note_off,,,,,256,0,12,,,,,5,,,35,100
92416,note_off,,,,,256,0,8,,,,,1,,,83,100
92416,note_off,,,,,256,0,14,,,,,6,,,47,100
92416,note_off,,,,,0,0,13,,,,,6,,,66,100
92416,note_off,,,,,256,0,13,,,,,6,,,63,100
92416,note_off,,,,,256,0,11,,,,,4,,,47,100
92480,note_off,,,,,128,0,10,,,,,3,,,75,100
92480,note_off,,,,,128,0,9,,,,,2,,,83,100
92512,note_off,,,,,256,0,7,,,,,0,,,83,100
92512,note_off,,,,,0,0,7,,,,,0,,,75,100
92544,note_on,,,,,128,0,11,,,,,4,,,51,100
92544,note_on,,,,,64,0,10,,,,,3,,,71,100
92544,note_on,,,,,64,0,9,,,,,2,,,78,100
92544,note_on,,,,,0,0,13,,,,,6,,,66,100
92544,note_on,,,,,128,0,13,,,,,6,,,71,100
92544,note_on,,,,,128,0,14,,,,,6,,,51,100
92544,note_on,,,,,128,0,12,,,,,5,,,39,100
92672,note_off,,,,,128,0,10,,,,,3,,,71,100
92672,note_off,,,,,128,0,9,,,,,2,,,78,100
92736,note_on,,,,,320,0,8,,,,,1,,,83,100
92736,note_on,,,,,64,0,9,,,,,2,,,75,100
92736,note_on,,,,,64,0,10,,,,,3,,,66,100
92800,note_off,,,,,256,0,12,,,,,5,,,39,100
92800,note_off,,,,,256,0,11,,,,,4,,,51,100
92800,note_off,,,,,256,0,14,,,,,6,,,51,100
92800,note_off,,,,,256,0,13,,,,,6,,,71,100
92800,note_off,,,,,0,0,13,,,,,6,,,66,100
92864,note_off,,,,,128,0,9,,,,,2,,,75,100
92864,note_off,,,,,128,0,10,,,,,3,,,66,100
92864,note_off,,,,,128,0,8,,,,,1,,,83,100
92928,note_on,,,,,128,0,12,,,,,5,,,39,100
92928,note_on,,,,,128,0,11,,,,,4,,,51,100
92928,note_on,,,,,128,0,13,,,,,6,,,71,100
92928,note_on,,,,,0,0,13,,,,,6,,,66,100
92928,note_on,,,,,64,0,9,,,,,2,,,71,100
92928,note_on,,,,,128,0,14,,,,,6,,,51,100
92928,note_on,,,,,64,0,8,,,,,1,,,78,100
92928,note_on,,,,,64,0,10,,,,,3,,,63,100
93056,note_off,,,,,128,0,8,,,,,1,,,78,100
93056,note_off,,,,,128,0,10,,,,,3,,,63,100
93120,note_on,,,,,64,0,8,,,,,1,,,75,100
93120,note_on,,,,,64,0,10,,,,,3,,,59,100
93184,note_off,,,,,256,0,9,,,,,2,,,71,100
93184,note_off,,,,,256,0,12,,,,,5,,,39,100
93184,note_off,,,,,256,0,14,,,,,6,,,51,100
93184,note_off,,,,,256,0,13,,,,,6,,,71,100
93184,note_off,,,,,0,0,13,,,,,6,,,66,100
93184,note_off,,,,,256,0,11,,,,,4,,,51,100
93248,note_off,,,,,128,0,10,,,,,3,,,59,100
93248,note_off,,,,,128,0,8,,,,,1,,,75,100
93312,note_on,,,,,128,0,11,,,,,4,,,51,100
93312,note_on,,,,,64,0,8,,,,,1,,,71,100
93312,note_on,,,,,64,0,10,,,,,3,,,66,100
93312,note_on,,,,,128,0,12,,,,,5,,,39,100
93312,note_on,,,,,0,0,13,,,,,6,,,66,100
93312,note_on,,,,,128,0,14,,,,,6,,,51,100
93312,note_on,,,,,128,0,13,,,,,6,,,71,100
93440,note_off,,,,,128,0,10,,,,,3,,,66,100
93504,note_on,,,,,320,0,9,,,,,2,,,83,100
93504,note_on,,,,,64,0,10,,,,,3,,,75,100
93568,note_off,,,,,0,0,13,,,,,6,,,66,100
93568,note_off,,,,,256,0,14,,,,,6,,,51,100
93568,note_off,,,,,256,0,8,,,,,1,,,71,100
93568,note_off,,,,,256,0,11,,,,,4,,,51,100
93568,note_off,,,,,256,0,12,,,,,5,,,39,100
93568,note_off,,,,,256,0,13,,,,,6,,,71,100
93632,note_off,,,,,128,0,10,,,,,3,,,75,100
93632,note_off,,,,,128,0,9,,,,,2,,,83,100
93696,note_on,,,,,128,0,13,,,,,6,,,71,100
93696,note_on,,,,,128,0,12,,,,,5,,,39,99
93696,note_on,,,,,0,0,13,,,,,6,,,66,100
93696,note_on,,,,,64,0,9,,,,,2,,,78,99
93696,note_on,,,,,64,0,10,,,,,3,,,71,99
93696,note_on,,,,,128,0,14,,,,,6,,,51,100
93696,note_on,,,,,128,0,11,,,,,4,,,51,99
93824,note_off,,,,,128,0,10,,,,,3,,,71,100
93824,note_off,,,,,128,0,9,,,,,2,,,78,100
93888,note_on,,,,,64,0,9,,,,,2,,,75,98
93888,note_on,,,,,320,0,8,,,,,1,,,83,98
93888,note_on,,,,,64,0,10,,,,,3,,,66,98
93952,note_off,,,,,256,0,14,,,,,6,,,51,100
93952,note_off,,,,,256,0,12,,,,,5,,,39,100
93952,note_off,,,,,256,0,11,,,,,4,,,51,100
93952,note_off,,,,,256,0,13,,,,,6,,,71,100
93952,note_off,,,,,0,0,13,,,,,6,,,66,100
94016,note_off,,,,,128,0,8,,,,,1,,,83,100
94016,note_off,,,,,128,0,9,,,,,2,,,75,100
94016,note_off,,,,,128,0,10,,,,,3,,,66,100
94080,note_on,,,,,128,0,11,,,,,4,,,51,97
94080,note_on,,,,,64,0,10,,,,,3,,,63,97
94080,note_on,,,,,128,0,13,,,,,6,,,71,100
94080,note_on,,,,,64,0,8,,,,,1,,,78,97
94080,note_on,,,,,128,0,12,,,,,5,,,39,97
94080,note_on,,,,,64,0,9,,,,,2,,,71,97
94080,note_on,,,,,0,0,13,,,,,6,,,66,100
94080,note_on,,,,,128,0,14,,,,,6,,,51,100
94208,note_off,,,,,128,0,8,,,,,1,,,78,100
94208,note_off,,,,,128,0,10,,,,,3,,,63,100
94272,note_on,,,,,64,0,8,,,,,1,,,75,96
94272,note_on,,,,,64,0,10,,,,,3,,,59,96
94336,note_off,,,,,0,0,13,,,,,6,,,66,100
94336,note_off,,,,,256,0,14,,,,,6,,,51,100
94336,note_off,,,,,256,0,13,,,,,6,,,71,100
94336,note_off,,,,,256,0,9,,,,,2,,,71,100
94336,note_off,,,,,256,0,12,,,,,5,,,39,100
94336,note_off,,,,,256,0,11,,,,,4,,,51,100
94400,note_off,,,,,128,0,10,,,,,3,,,59,100
94400,note_off,,,,,128,0,8,,,,,1,,,75,100
94464,note_on,,,,,128,0,14,,,,,6,,,51,100
94464,note_on,,,,,64,0,8,,,,,1,,,71,96
94464,note_on,,,,,64,0,10,,,,,3,,,66,96
94464,note_on,,,,,128,0,11,,,,,4,,,51,96
94464,note_on,,,,,128,0,12,,,,,5,,,39,96
94464,note_on,,,,,0,0,13,,,,,6,,,71,100
94464,note_on,,,,,128,0,13,,,,,6,,,69,100
94592,note_off,,,,,128,0,10,,,,,3,,,66,100
94656,note_on,,,,,64,0,10,,,,,3,,,75,95
94656,note_on,,,,,320,0,9,,,,,2,,,81,95
94720,note_off,,,,,256,0,12,,,,,5,,,39,100
94720,note_off,,,,,256,0,14,,,,,6,,,51,100
94720,note_off,,,,,0,0,13,,,,,6,,,71,100
94720,note_off,,,,,256,0,13,,,,,6,,,69,100
94720,note_off,,,,,256,0,8,,,,,1,,,71,100
94720,note_off,,,,,256,0,11,,,,,4,,,51,100
94784,note_off,,,,,128,0,10,,,,,3,,,75,100
94784,note_off,,,,,128,0,9,,,,,2,,,81,100
94848,note_on,,,,,128,0,14,,,,,6,,,51,100
94848,note_on,,,,,128,0,11,,,,,4,,,51,94
94848,note_on,,,,,64,0,10,,,,,3,,,71,94
94848,note_on,,,,,64,0,9,,,,,2,,,78,94
94848,note_on,,,,,0,0,13,,,,,6,,,71,100
94848,note_on,,,,,128,0,13,,,,,6,,,69,100
94848,note_on,,,,,128,0,12,,,,,5,,,39,94
94976,note_off,,,,,128,0,9,,,,,2,,,78,100
94976,note_off,,,,,128,0,10,,,,,3,,,71,100
95040,note_on,,,,,320,0,8,,,,,1,,,81,93
95040,note_on,,,,,64,0,9,,,,,2,,,75,93
95040,note_on,,,,,64,0,10,,,,,3,,,66,93
95104,note_off,,,,,256,0,12,,,,,5,,,39,100
95104,note_off,,,,,0,0,13,,,,,6,,,71,100
95104,note_off,,,,,256,0,13,,,,,6,,,69,100
95104,note_off,,,,,256,0,14,,,,,6,,,51,100
95104,note_off,,,,,256,0,11,,,,,4,,,51,100
95168,note_off,,,,,128,0,9,,,,,2,,,75,100
95168,note_off,,,,,128,0,10,,,,,3,,,66,100
95168,note_off,,,,,128,0,8,,,,,1,,,81,100
95232,note_on,,,,,128,0,14,,,,,6,,,51,100
95232,note_on,,,,,64,0,10,,,,,3,,,63,92
95232,note_on,,,,,64,0,9,,,,,2,,,71,92
95232,note_on,,,,,64,0,8,,,,,1,,,78,92
95232,note_on,,,,,128,0,12,,,,,5,,,39,92
95232,note_on,,,,,128,0,11,,,,,4,,,51,92
95232,note_on,,,,,128,0,13,,,,,6,,,69,100
95232,note_on,,,,,0,0,13,,,,,6,,,71,100
95360,note_off,,,,,128,0,8,,,,,1,,,78,100
95360,note_off,,,,,128,0,10,,,,,3,,,63,100
95424,note_on,,,,,64,0,10,,,,,3,,,59,91
95424,note_on,,,,,64,0,8,,,,,1,,,75,91
95488,note_off,,,,,256,0,12,,,,,5,,,39,100
95488,note_off,,,,,256,0,9,,,,,2,,,71,100
95488,note_off,,,,,256,0,14,,,,,6,,,51,100
95488,note_off,,,,,0,0,13,,,,,6,,,71,100
95488,note_off,,,,,256,0,13,,,,,6,,,69,100
95488,note_off,,,,,256,0,11,,,,,4,,,51,100
95552,note_off,,,,,128,0,10,,,,,3,,,59,100
95552,note_off,,,,,128,0,8,,,,,1,,,75,100
95616,note_on,,,,,64,0,10,,,,,3,,,66,91
95616,note_on,,,,,128,0,11,,,,,4,,,51,91
95616,note_on,,,,,128,0,14,,,,,6,,,51,100
95616,note_on,,,,,128,0,12,,,,,5,,,39,91
95616,note_on,,,,,128,0,13,,,,,6,,,69,100
95616,note_on,,,,,0,0,13,,,,,6,,,71,100
95616,note_on,,,,,64,0,8,,,,,1,,,71,91
95744,note_off,,,,,128,0,10,,,,,3,,,66,100
95808,note_on,,,,,64,0,10,,,,,3,,,75,90
95808,note_on,,,,,320,0,9,,,,,2,,,81,90
95872,note_off,,,,,256,0,12,,,,,5,,,39,100
95872,note_off,,,,,256,0,13,,,,,6,,,69,100
95872,note_off,,,,,256,0,8,,,,,1,,,71,100
95872,note_off,,,,,256,0,14,,,,,6,,,51,100
95872,note_off,,,,,0,0,13,,,,,6,,,71,100
95872,note_off,,,,,256,0,11,,,,,4,,,51,100
95936,note_off,,,,,128,0,10,,,,,3,,,75,100
95936,note_off,,,,,128,0,9,,,,,2,,,81,100
96000,note_on,,,,,128,0,11,,,,,4,,,51,89
96000,note_on,,,,,64,0,10,,,,,3,,,71,89
96000,note_on,,,,,128,0,13,,,,,6,,,69,100
96000,note_on,,,,,128,0,12,,,,,5,,,39,89
96000,note_on,,,,,0,0,13,,,,,6,,,71,100
96000,note_on,,,,,128,0,14,,,,,6,,,51,100
96000,note_on,,,,,64,0,9,,,,,2,,,78,89
96128,note_off,,,,,128,0,9,,,,,2,,,78,100
96128,note_off,,,,,128,0,10,,,,,3,,,71,100
96192,note_on,,,,,64,0,10,,,,,3,,,66,88
96192,note_on,,,,,64,0,9,,,,,2,,,75,88
96192,note_on,,,,,320,0,8,,,,,1,,,81,88
96256,note_off,,,,,0,0,13,,,,,6,,,71,100
96256,note_off,,,,,256,0,13,,,,,6,,,69,100
96256,note_off,,,,,256,0,14,,,,,6,,,51,100
96256,note_off,,,,,256,0,11,,,,,4,,,51,100
96256,note_off,,,,,256,0,12,,,,,5,,,39,100
96320,note_off,,,,,128,0,9,,,,,2,,,75,100
96320,note_off,,,,,128,0,10,,,,,3,,,66,100
96320,note_off,,,,,128,0,8,,,,,1,,,81,100
96384,note_on,,,,,64,0,8,,,,,1,,,78,87
96384,note_on,,,,,128,0,14,,,,,6,,,51,100
96384,note_on,,,,,64,0,10,,,,,3,,,63,87
96384,note_on,,,,,128,0,13,,,,,6,,,69,100
96384,note_on,,,,,0,0,13,,,,,6,,,71,100
96384,note_on,,,,,128,0,11,,,,,4,,,51,87
96384,note_on,,,,,64,0,9,,,,,2,,,71,87
96384,note_on,,,,,128,0,12,,,,,5,,,39,87
96512,note_off,,,,,128,0,9,,,,,2,,,71,100
96512,note_off,,,,,128,0,8,,,,,1,,,78,100
96512,note_off,,,,,128,0,10,,,,,3,,,63,100
96576,note_on,,,,,64,0,9,,,,,2,,,81,86
96576,note_on,,,,,64,0,8,,,,,1,,,75,86
96576,note_on,,,,,64,0,10,,,,,3,,,59,86
96640,note_off,,,,,256,0,11,,,,,4,,,51,100
96640,note_off,,,,,256,0,13,,,,,6,,,69,100
96640,note_off,,,,,0,0,13,,,,,6,,,71,100
96640,note_off,,,,,256,0,12,,,,,5,,,39,100
96640,note_off,,,,,256,0,14,,,,,6,,,51,100
96704,note_off,,,,,128,0,9,,,,,2,,,81,100
96704,note_off,,,,,128,0,10,,,,,3,,,59,100
96704,note_off,,,,,128,0,8,,,,,1,,,75,100
96768,note_on,,,,,64,0,9,,,,,2,,,80,86
96768,note_on,,,,,128,0,11,,,,,4,,,52,86
96768,note_on,,,,,128,0,14,,,,,6,,,52,100
96768,note_on,,,,,64,0,8,,,,,1,,,71,86
96768,note_on,,,,,4256,0,7,,,,,0,,,71,96
96768,note_on,,,,,128,0,12,,,,,5,,,40,86
96768,note_on,,,,,64,0,10,,,,,3,,,64,86
96768,note_on,,,,,0,0,13,,,,,6,,,71,100
96768,note_on,,,,,128,0,13,,,,,6,,,68,100
96956,note_off,,,,,188,0,7,,,,,0,,,71,100
96960,note_on,,,,,4,0,7,,,,,0,,,76,99
97024,note_off,,,,,256,0,11,,,,,4,,,52,100
97024,note_off,,,,,256,0,9,,,,,2,,,80,100
97024,note_off,,,,,256,0,12,,,,,5,,,40,100
97024,note_off,,,,,0,0,13,,,,,6,,,71,100
97024,note_off,,,,,256,0,14,,,,,6,,,52,100
97024,note_off,,,,,256,0,8,,,,,1,,,71,100
97024,note_off,,,,,256,0,13,,,,,6,,,68,100
97024,note_off,,,,,256,0,10,,,,,3,,,64,100
97088,note_off,,,,,128,0,7,,,,,0,,,76,100
97152,note_on,,,,,128,0,10,,,,,3,,,68,70
97152,note_on,,,,,128,0,9,,,,,2,,,71,70
97152,note_on,,,,,64,0,7,,,,,0,,,76,97
97152,note_on,,,,,128,0,8,,,,,1,,,76,70
97340,note_off,,,,,188,0,7,,,,,0,,,76,100
97344,note_on,,,,,4,0,7,,,,,0,,,80,96
97408,note_off,,,,,256,0,10,,,,,3,,,68,100
97408,note_off,,,,,256,0,9,,,,,2,,,71,100
97408,note_off,,,,,256,0,8,,,,,1,,,76,100
97472,note_off,,,,,128,0,7,,,,,0,,,80,100
97536,note_on,,,,,128,0,9,,,,,2,,,71,70
97536,note_on,,,,,64,0,7,,,,,0,,,80,94
97536,note_on,,,,,128,0,8,,,,,1,,,76,70
97536,note_on,,,,,128,0,10,,,,,3,,,68,70
97724,note_off,,,,,188,0,7,,,,,0,,,80,100
97728,note_on,,,,,4,0,7,,,,,0,,,83,92
97792,note_off,,,,,256,0,9,,,,,2,,,71,100
97792,note_off,,,,,256,0,8,,,,,1,,,76,100
97792,note_off,,,,,256,0,10,,,,,3,,,68,100
97856,note_off,,,,,128,0,7,,,,,0,,,83,100
97920,note_on,,,,,128,0,9,,,,,2,,,71,70
97920,note_on,,,,,128,0,10,,,,,3,,,68,70
97920,note_on,,,,,128,0,8,,,,,1,,,76,70
97920,note_on,,,,,64,0,7,,,,,0,,,83,90
98108,note_off,,,,,188,0,7,,,,,0,,,83,100
98112,note_on,,,,,4,0,7,,,,,0,,,76,91
98176,note_off,,,,,256,0,10,,,,,3,,,68,100
98176,note_off,,,,,256,0,9,,,,,2,,,71,100
98176,note_off,,,,,256,0,8,,,,,1,,,76,100
98240,note_off,,,,,128,0,7,,,,,0,,,76,100
98304,note_on,,,,,128,0,9,,,,,2,,,71,70
98304,note_on,,,,,64,0,7,,,,,0,,,76,93
98304,note_on,,,,,128,0,8,,,,,1,,,76,70
98304,note_on,,,,,128,0,10,,,,,3,,,68,70
98492,note_off,,,,,188,0,7,,,,,0,,,76,100
98496,note_on,,,,,4,0,7,,,,,0,,,74,94
98560,note_off,,,,,256,0,10,,,,,3,,,68,100
98560,note_off,,,,,256,0,8,,,,,1,,,76,100
98560,note_off,,,,,256,0,9,,,,,2,,,71,100
98624,note_off,,,,,128,0,7,,,,,0,,,74,100
98688,note_on,,,,,128,0,9,,,,,2,,,71,70
98688,note_on,,,,,128,0,10,,,,,3,,,68,70
98688,note_on,,,,,128,0,8,,,,,1,,,76,70
98688,note_on,,,,,64,0,7,,,,,0,,,74,96
98876,note_off,,,,,188,0,7,,,,,0,,,74,100
98880,note_on,,,,,4,0,7,,,,,0,,,73,98
98944,note_off,,,,,256,0,9,,,,,2,,,71,100
98944,note_off,,,,,256,0,8,,,,,1,,,76,100
98944,note_off,,,,,256,0,10,,,,,3,,,68,100
99008,note_off,,,,,128,0,7,,,,,0,,,73,100
99072,note_on,,,,,128,0,10,,,,,3,,,69,70
99072,note_on,,,,,128,0,9,,,,,2,,,73,70
99072,note_on,,,,,64,0,7,,,,,0,,,73,100
99072,note_on,,,,,128,0,8,,,,,1,,,76,70
99260,note_off,,,,,188,0,7,,,,,0,,,73,100
99264,note_on,,,,,4,0,7,,,,,0,,,76,99
99328,note_off,,,,,256,0,10,,,,,3,,,69,100
99328,note_off,,,,,256,0,8,,,,,1,,,76,100
99328,note_off,,,,,256,0,9,,,,,2,,,73,100
99392,note_off,,,,,128,0,7,,,,,0,,,76,100
99456,note_on,,,,,128,0,10,,,,,3,,,69,70
99456,note_on,,,,,128,0,9,,,,,2,,,73,70
99456,note_on,,,,,64,0,7,,,,,0,,,76,97
99456,note_on,,,,,128,0,8,,,,,1,,,76,70
99644,note_off,,,,,188,0,7,,,,,0,,,76,100
99648,note_on,,,,,4,0,7,,,,,0,,,81,96
99712,note_off,,,,,256,0,10,,,,,3,,,69,100
99712,note_off,,,,,256,0,9,,,,,2,,,73,100
99712,note_off,,,,,256,0,8,,,,,1,,,76,100
99776,note_off,,,,,128,0,7,,,,,0,,,81,100
99840,note_on,,,,,128,0,8,,,,,1,,,76,70
99840,note_on,,,,,64,0,7,,,,,0,,,81,94
99840,note_on,,,,,128,0,9,,,,,2,,,73,70
99840,note_on,,,,,128,0,10,,,,,3,,,69,70
100028,note_off,,,,,188,0,7,,,,,0,,,81,100
100032,note_on,,,,,4,0,7,,,,,0,,,85,92
100096,note_off,,,,,256,0,9,,,,,2,,,73,100
100096,note_off,,,,,256,0,10,,,,,3,,,69,100
100096,note_off,,,,,256,0,8,,,,,1,,,76,100
100160,note_off,,,,,128,0,7,,,,,0,,,85,100
100224,note_on,,,,,128,0,10,,,,,3,,,70,70
100224,note_on,,,,,64,0,7,,,,,0,,,85,90
100224,note_on,,,,,128,0,9,,,,,2,,,73,70
100224,note_on,,,,,128,0,8,,,,,1,,,78,70
100412,note_off,,,,,188,0,7,,,,,0,,,85,100
100416,note_on,,,,,4,0,7,,,,,0,,,78,91
100480,note_off,,,,,256,0,9,,,,,2,,,73,100
100480,note_off,,,,,256,0,8,,,,,1,,,78,100
100480,note_off,,,,,256,0,10,,,,,3,,,70,100
100544,note_off,,,,,128,0,7,,,,,0,,,78,100
100608,note_on,,,,,64,0,7,,,,,0,,,78,93
100608,note_on,,,,,128,0,9,,,,,2,,,73,70
100608,note_on,,,,,128,0,8,,,,,1,,,78,70
100608,note_on,,,,,128,0,10,,,,,3,,,70,70
100796,note_off,,,,,188,0,7,,,,,0,,,78,100
100800,note_on,,,,,4,0,7,,,,,0,,,76,94
100864,note_off,,,,,256,0,10,,,,,3,,,70,100
100864,note_off,,,,,256,0,8,,,,,1,,,78,100
100864,note_off,,,,,256,0,9,,,,,2,,,73,100
100928,note_off,,,,,128,0,7,,,,,0,,,76,100
100992,note_on,,,,,128,0,8,,,,,1,,,78,70
100992,note_on,,,,,128,0,10,,,,,3,,,70,70
100992,note_on,,,,,128,0,9,,,,,2,,,73,70
100992,note_on,,,,,64,0,7,,,,,0,,,76,96
101180,note_off,,,,,188,0,7,,,,,0,,,76,100
101184,note_on,,,,,4,0,7,,,,,0,,,75,98
101248,note_off,,,,,256,0,10,,,,,3,,,70,100
101248,note_off,,,,,256,0,8,,,,,1,,,78,100
101248,note_off,,,,,256,0,9,,,,,2,,,73,100
101312,note_off,,,,,128,0,7,,,,,0,,,75,100
101376,note_on,,,,,64,0,7,,,,,0,,,75,99
101376,note_on,,,,,128,0,9,,,,,2,,,75,70
101376,note_on,,,,,128,0,10,,,,,3,,,71,70
101376,note_on,,,,,128,0,8,,,,,1,,,78,70
101504,note_off,,,,,128,0,7,,,,,0,,,75,100
101568,note_on,,,,,64,0,7,,,,,0,,,71,100
101632,note_off,,,,,256,0,8,,,,,1,,,78,100
101632,note_off,,,,,256,0,10,,,,,3,,,71,100
101632,note_off,,,,,256,0,9,,,,,2,,,75,100
101660,note_off,,,,,92,0,7,,,,,0,,,71,100
101664,note_on,,,,,4,0,7,,,,,0,,,73,100
101756,note_off,,,,,92,0,7,,,,,0,,,73,100
101760,note_on,,,,,4,0,7,,,,,0,,,75,100
101760,note_on,,,,,128,0,9,,,,,2,,,75,70
101760,note_on,,,,,128,0,8,,,,,1,,,78,70
101760,note_on,,,,,128,0,10,,,,,3,,,59,70
101948,note_off,,,,,188,0,7,,,,,0,,,75,100
101952,note_on,,,,,4,0,7,,,,,0,,,76,100
102016,note_off,,,,,256,0,8,,,,,1,,,78,100
102016,note_off,,,,,256,0,10,,,,,3,,,59,100
102016,note_off,,,,,256,0,9,,,,,2,,,75,100
102140,note_off,,,,,188,0,7,,,,,0,,,76,100
102144,note_on,,,,,128,0,9,,,,,2,,,75,70
102144,note_on,,,,,128,0,10,,,,,3,,,59,70
102144,note_on,,,,,4,0,7,,,,,0,,,78,100
102144,note_on,,,,,128,0,8,,,,,1,,,78,70
102332,note_off,,,,,188,0,7,,,,,0,,,78,100
102336,note_on,,,,,4,0,7,,,,,0,,,80,100
102400,note_off,,,,,256,0,9,,,,,2,,,75,100
102400,note_off,,,,,256,0,10,,,,,3,,,59,100
102400,note_off,,,,,256,0,8,,,,,1,,,78,100
102464,note_off,,,,,128,0,7,,,,,0,,,80,100
102528,note_on,,,,,64,0,7,,,,,0,,,81,100
102528,note_on,,,,,128,0,10,,,,,3,,,59,70
102528,note_on,,,,,128,0,8,,,,,1,,,78,70
102528,note_on,,,,,128,0,9,,,,,2,,,75,70
102656,note_off,,,,,128,0,7,,,,,0,,,81,100
102720,note_on,,,,,64,0,7,,,,,0,,,71,95
102784,note_off,,,,,256,0,10,,,,,3,,,59,100
102784,note_off,,,,,256,0,8,,,,,1,,,78,100
102784,note_off,,,,,256,0,9,,,,,2,,,75,100
102812,note_off,,,,,92,0,7,,,,,0,,,71,100
102816,note_on,,,,,4,0,7,,,,,0,,,73,95
102908,note_off,,,,,92,0,7,,,,,0,,,73,100
102912,note_on,,,,,128,0,10,,,,,3,,,59,70
102912,note_on,,,,,4,0,7,,,,,0,,,75,95
102912,note_on,,,,,128,0,8,,,,,1,,,78,70
102912,note_on,,,,,128,0,9,,,,,2,,,75,70
103100,note_off,,,,,188,0,7,,,,,0,,,75,100
103104,note_on,,,,,4,0,7,,,,,0,,,76,94
103168,note_off,,,,,256,0,10,,,,,3,,,59,100
103168,note_off,,,,,256,0,8,,,,,1,,,78,100
103168,note_off,,,,,256,0,9,,,,,2,,,75,100
103292,note_off,,,,,188,0,7,,,,,0,,,76,100
103296,note_on,,,,,128,0,9,,,,,2,,,75,70
103296,note_on,,,,,128,0,10,,,,,3,,,59,70
103296,note_on,,,,,128,0,8,,,,,1,,,78,70
103296,note_on,,,,,4,0,7,,,,,0,,,78,93
103484,note_off,,,,,188,0,7,,,,,0,,,78,100
103488,note_on,,,,,4,0,7,,,,,0,,,80,92
103552,note_off,,,,,256,0,8,,,,,1,,,78,100
103552,note_off,,,,,256,0,10,,,,,3,,,59,100
103552,note_off,,,,,256,0,9,,,,,2,,,75,100
103616,note_off,,,,,128,0,7,,,,,0,,,80,100
103680,note_on,,,,,64,0,7,,,,,0,,,81,91
103680,note_on,,,,,128,0,8,,,,,1,,,78,70
103680,note_on,,,,,128,0,9,,,,,2,,,75,70
103680,note_on,,,,,128,0,10,,,,,3,,,59,70
103808,note_off,,,,,128,0,7,,,,,0,,,81,100
103872,note_on,,,,,64,0,7,,,,,0,,,75,100
103936,note_off,,,,,256,0,8,,,,,1,,,78,100
103936,note_off,,,,,256,0,10,,,,,3,,,59,100
103936,note_off,,,,,256,0,9,,,,,2,,,75,100
103964,note_off,,,,,92,0,7,,,,,0,,,75,100
103968,note_on,,,,,4,0,7,,,,,0,,,76,100
104032,note_off,,,,,64,0,7,,,,,0,,,76,100
104064,note_on,,,,,32,0,7,,,,,0,,,78,100
104064,note_on,,,,,128,0,8,,,,,1,,,78,70
104064,note_on,,,,,128,0,10,,,,,3,,,59,70
104064,note_on,,,,,128,0,9,,,,,2,,,75,70
104192,note_off,,,,,128,0,7,,,,,0,,,78,100
104256,note_on,,,,,64,0,7,,,,,0,,,78,99
104320,note_off,,,,,256,0,10,,,,,3,,,59,100
104320,note_off,,,,,256,0,8,,,,,1,,,78,100
104320,note_off,,,,,256,0,9,,,,,2,,,75,100
104384,note_off,,,,,128,0,7,,,,,0,,,78,100
104448,note_on,,,,,128,0,10,,,,,3,,,59,70
104448,note_on,,,,,128,0,8,,,,,1,,,78,70
104448,note_on,,,,,64,0,7,,,,,0,,,75,98
104448,note_on,,,,,128,0,9,,,,,2,,,75,70
104576,note_off,,,,,128,0,7,,,,,0,,,75,100
104640,note_on,,,,,64,0,7,,,,,0,,,78,97
104704,note_off,,,,,256,0,9,,,,,2,,,75,100
104704,note_off,,,,,256,0,8,,,,,1,,,78,100
104704,note_off,,,,,256,0,10,,,,,3,,,59,100
104768,note_off,,,,,128,0,7,,,,,0,,,78,100
104832,note_on,,,,,128,0,9,,,,,2,,,75,70
104832,note_on,,,,,128,0,10,,,,,3,,,59,70
104832,note_on,,,,,64,0,7,,,,,0,,,71,96
104832,note_on,,,,,128,0,8,,,,,1,,,78,70
104960,note_off,,,,,128,0,7,,,,,0,,,71,100
105024,note_on,,,,,64,0,7,,,,,0,,,75,95
105088,note_off,,,,,256,0,9,,,,,2,,,75,100
105088,note_off,,,,,256,0,10,,,,,3,,,59,100
105088,note_off,,,,,256,0,8,,,,,1,,,78,100
105116,note_off,,,,,92,0,7,,,,,0,,,75,100
105120,note_on,,,,,4,0,7,,,,,0,,,76,95
105184,note_off,,,,,64,0,7,,,,,0,,,76,100
105216,note_on,,,,,128,0,10,,,,,3,,,59,70
105216,note_on,,,,,32,0,7,,,,,0,,,78,94
105216,note_on,,,,,128,0,9,,,,,2,,,75,70
105216,note_on,,,,,128,0,8,,,,,1,,,78,70
105344,note_off,,,,,128,0,7,,,,,0,,,78,100
105408,note_on,,,,,64,0,7,,,,,0,,,78,93
105472,note_off,,,,,256,0,10,,,,,3,,,59,100
105472,note_off,,,,,256,0,9,,,,,2,,,75,100
105472,note_off,,,,,256,0,8,,,,,1,,,78,100
105536,note_off,,,,,128,0,7,,,,,0,,,78,100
105600,note_on,,,,,64,0,7,,,,,0,,,75,92
105600,note_on,,,,,128,0,10,,,,,3,,,59,70
105600,note_on,,,,,128,0,9,,,,,2,,,75,70
105600,note_on,,,,,128,0,8,,,,,1,,,78,70
105728,note_off,,,,,128,0,7,,,,,0,,,75,100
105792,note_on,,,,,64,0,7,,,,,0,,,78,91
105856,note_off,,,,,256,0,8,,,,,1,,,78,100
105856,note_off,,,,,256,0,10,,,,,3,,,59,100
105856,note_off,,,,,256,0,9,,,,,2,,,75,100
105920,note_off,,,,,128,0,7,,,,,0,,,78,100
105984,note_on,,,,,128,0,9,,,,,2,,,75,70
105984,note_on,,,,,64,0,7,,,,,0,,,69,90
105984,note_on,,,,,128,0,10,,,,,3,,,59,70
105984,note_on,,,,,128,0,8,,,,,1,,,78,70
106112,note_off,,,,,128,0,7,,,,,0,,,69,100
106176,note_on,,,,,64,0,7,,,,,0,,,75,91
106240,note_off,,,,,256,0,10,,,,,3,,,59,100
106240,note_off,,,,,256,0,8,,,,,1,,,78,100
106240,note_off,,,,,256,0,9,,,,,2,,,75,100
106268,note_off,,,,,92,0,7,,,,,0,,,75,100
106272,note_on,,,,,4,0,7,,,,,0,,,76,92
106336,note_off,,,,,64,0,7,,,,,0,,,76,100
106368,note_on,,,,,128,0,10,,,,,3,,,59,70
106368,note_on,,,,,128,0,9,,,,,2,,,75,70
106368,note_on,,,,,128,0,8,,,,,1,,,78,70
106368,note_on,,,,,32,0,7,,,,,0,,,78,93
106496,note_off,,,,,128,0,7,,,,,0,,,78,100
106560,note_on,,,,,64,0,7,,,,,0,,,78,94
106624,note_off,,,,,256,0,9,,,,,2,,,75,100
106624,note_off,,,,,256,0,8,,,,,1,,,78,100
106624,note_off,,,,,256,0,10,,,,,3,,,59,100
106688,note_off,,,,,128,0,7,,,,,0,,,78,100
106752,note_on,,,,,128,0,9,,,,,2,,,75,70
106752,note_on,,,,,128,0,10,,,,,3,,,59,70
106752,note_on,,,,,64,0,7,,,,,0,,,75,96
106752,note_on,,,,,128,0,8,,,,,1,,,78,70
106880,note_off,,,,,128,0,7,,,,,0,,,75,100
106944,note_on,,,,,64,0,7,,,,,0,,,78,98
107008,note_off,,,,,256,0,8,,,,,1,,,78,100
107008,note_off,,,,,256,0,9,,,,,2,,,75,100
107008,note_off,,,,,256,0,10,,,,,3,,,59,100
107072,note_off,,,,,128,0,7,,,,,0,,,78,100
107136,note_on,,,,,64,0,7,,,,,0,,,79,99
107136,note_on,,,,,128,0,9,,,,,2,,,76,70
107136,note_on,,,,,128,0,8,,,,,1,,,79,70
107136,note_on,,,,,128,0,10,,,,,3,,,59,70
107264,note_off,,,,,128,0,7,,,,,0,,,79,100
107328,note_on,,,,,64,0,7,,,,,0,,,76,100
107392,note_off,,,,,256,0,10,,,,,3,,,59,100
107392,note_off,,,,,256,0,9,,,,,2,,,76,100
107392,note_off,,,,,256,0,8,,,,,1,,,79,100
107420,note_off,,,,,92,0,7,,,,,0,,,76,100
107424,note_on,,,,,4,0,7,,,,,0,,,78,100
107488,note_off,,,,,64,0,7,,,,,0,,,78,100
107520,note_on,,,,,128,0,10,,,,,3,,,59,70
107520,note_on,,,,,128,0,8,,,,,1,,,79,70
107520,note_on,,,,,128,0,9,,,,,2,,,76,70
107520,note_on,,,,,32,0,7,,,,,0,,,79,100
107648,note_off,,,,,128,0,7,,,,,0,,,79,100
107712,note_on,,,,,64,0,7,,,,,0,,,79,100
107776,note_off,,,,,256,0,10,,,,,3,,,59,100
107776,note_off,,,,,256,0,8,,,,,1,,,79,100
107776,note_off,,,,,256,0,9,,,,,2,,,76,100
107840,note_off,,,,,128,0,7,,,,,0,,,79,100
107904,note_on,,,,,128,0,8,,,,,1,,,79,70
107904,note_on,,,,,128,0,10,,,,,3,,,59,70
107904,note_on,,,,,64,0,7,,,,,0,,,76,100
107904,note_on,,,,,128,0,9,,,,,2,,,76,70
108032,note_off,,,,,128,0,7,,,,,0,,,76,100
108096,note_on,,,,,64,0,7,,,,,0,,,79,100
108160,note_off,,,,,256,0,8,,,,,1,,,79,100
108160,note_off,,,,,256,0,9,,,,,2,,,76,100
108160,note_off,,,,,256,0,10,,,,,3,,,59,100
108224,note_off,,,,,128,0,7,,,,,0,,,79,100
108288,note_on,,,,,128,0,9,,,,,2,,,76,70
108288,note_on,,,,,128,0,10,,,,,3,,,61,70
108288,note_on,,,,,128,0,8,,,,,1,,,79,70
108288,note_on,,,,,64,0,7,,,,,0,,,70,100
108416,note_off,,,,,128,0,7,,,,,0,,,70,100
108480,note_on,,,,,64,0,7,,,,,0,,,76,100
108544,note_off,,,,,256,0,9,,,,,2,,,76,100
108544,note_off,,,,,256,0,10,,,,,3,,,61,100
108544,note_off,,,,,256,0,8,,,,,1,,,79,100
108572,note_off,,,,,92,0,7,,,,,0,,,76,100
108576,note_on,,,,,4,0,7,,,,,0,,,78,100
108640,note_off,,,,,64,0,7,,,,,0,,,78,100
108672,note_on,,,,,128,0,9,,,,,2,,,76,70
108672,note_on,,,,,32,0,7,,,,,0,,,79,100
108672,note_on,,,,,128,0,8,,,,,1,,,79,70
108672,note_on,,,,,128,0,10,,,,,3,,,61,70
108800,note_off,,,,,128,0,7,,,,,0,,,79,100
108864,note_on,,,,,64,0,7,,,,,0,,,79,100
108928,note_off,,,,,256,0,9,,,,,2,,,76,100
108928,note_off,,,,,256,0,10,,,,,3,,,61,100
108928,note_off,,,,,256,0,8,,,,,1,,,79,100
108992,note_off,,,,,128,0,7,,,,,0,,,79,100
109056,note_on,,,,,64,0,7,,,,,0,,,71,100
109056,note_on,,,,,128,0,8,,,,,1,,,79,70
109056,note_on,,,,,128,0,9,,,,,2,,,76,70
109056,note_on,,,,,128,0,10,,,,,3,,,61,70
109184,note_off,,,,,128,0,7,,,,,0,,,71,100
109248,note_on,,,,,64,0,7,,,,,0,,,76,100
109312,note_off,,,,,256,0,9,,,,,2,,,76,100
109312,note_off,,,,,256,0,10,,,,,3,,,61,100
109312,note_off,,,,,256,0,8,,,,,1,,,79,100
109376,note_off,,,,,128,0,7,,,,,0,,,76,100
109440,note_on,,,,,128,0,9,,,,,2,,,76,70
109440,note_on,,,,,128,0,8,,,,,1,,,79,70
109440,note_on,,,,,64,0,7,,,,,0,,,70,100
109440,note_on,,,,,128,0,10,,,,,3,,,61,70
109568,note_off,,,,,128,0,7,,,,,0,,,70,100
109632,note_on,,,,,64,0,7,,,,,0,,,76,101
109696,note_off,,,,,256,0,9,,,,,2,,,76,100
109696,note_off,,,,,256,0,8,,,,,1,,,79,100
109696,note_off,,,,,256,0,10,,,,,3,,,61,100
109724,note_off,,,,,92,0,7,,,,,0,,,76,100
109728,note_on,,,,,4,0,7,,,,,0,,,78,101
109792,note_off,,,,,64,0,7,,,,,0,,,78,100
109824,note_on,,,,,32,0,7,,,,,0,,,79,102
109824,note_on,,,,,128,0,8,,,,,1,,,79,70
109824,note_on,,,,,128,0,9,,,,,2,,,76,70
109824,note_on,,,,,128,0,10,,,,,3,,,61,70
109952,note_off,,,,,128,0,7,,,,,0,,,79,100
110016,note_on,,,,,64,0,7,,,,,0,,,79,103
110080,note_off,,,,,256,0,10,,,,,3,,,61,100
110080,note_off,,,,,256,0,8,,,,,1,,,79,100
110080,note_off,,,,,256,0,9,,,,,2,,,76,100
110144,note_off,,,,,128,0,7,,,,,0,,,79,100
110208,note_on,,,,,128,0,8,,,,,1,,,79,70
110208,note_on,,,,,64,0,7,,,,,0,,,71,104
110208,note_on,,,,,128,0,9,,,,,2,,,76,70
110208,note_on,,,,,128,0,10,,,,,3,,,61,70
110336,note_off,,,,,128,0,7,,,,,0,,,71,100
110400,note_on,,,,,64,0,7,,,,,0,,,76,105
110464,note_off,,,,,256,0,9,,,,,2,,,76,100
110464,note_off,,,,,256,0,10,,,,,3,,,61,100
110464,note_off,,,,,256,0,8,,,,,1,,,79,100
110528,note_off,,,,,128,0,7,,,,,0,,,76,100
110592,note_on,,,,,128,0,9,,,,,2,,,75,70
110592,note_on,,,,,128,0,10,,,,,3,,,63,70
110592,note_on,,,,,64,0,7,,,,,0,,,83,108
110592,note_on,,,,,128,0,8,,,,,1,,,78,70
110592,set_tempo,,,,,109440,1,0,,428571,,,,,,,
110784,note_off,,,,,192,0,7,,,,,0,,,83,100
110848,note_off,,,,,256,0,9,,,,,2,,,75,100
110848,note_off,,,,,256,0,10,,,,,3,,,63,100
110848,note_off,,,,,256,0,8,,,,,1,,,78,100
110880,note_on,,,,,96,0,7,,,,,0,,,78,107
110944,note_off,,,,,64,0,7,,,,,0,,,78,100
110976,note_on,,,,,128,0,10,,,,,3,,,64,70
110976,note_on,,,,,32,0,7,,,,,0,,,80,106
110976,note_on,,,,,128,0,8,,,,,1,,,76,70
110976,set_tempo,,,,,384,1,0,,431654,,,,,,,
110976,note_on,,,,,128,0,9,,,,,2,,,71,70
111168,note_off,,,,,192,0,10,,,,,3,,,64,100
111168,note_off,,,,,192,0,7,,,,,0,,,80,100
111232,note_off,,,,,256,0,9,,,,,2,,,71,100
111264,note_on,,,,,96,0,10,,,,,3,,,66,72
111264,note_on,,,,,96,0,7,,,,,0,,,75,104
111328,note_off,,,,,64,0,10,,,,,3,,,66,100
111328,note_off,,,,,64,0,7,,,,,0,,,75,100
111360,note_on,,,,,32,0,10,,,,,3,,,68,73
111360,set_tempo,,,,,384,1,0,,434782,,,,,,,
111360,note_on,,,,,128,0,9,,,,,2,,,71,73
111360,note_on,,,,,32,0,7,,,,,0,,,76,103
111552,note_off,,,,,192,0,7,,,,,0,,,76,100
111616,note_off,,,,,256,0,10,,,,,3,,,68,100
111616,note_off,,,,,256,0,9,,,,,2,,,71,100
111648,note_on,,,,,96,0,7,,,,,0,,,78,101
111712,note_off,,,,,64,0,7,,,,,0,,,78,100
111744,note_on,,,,,128,0,10,,,,,3,,,69,76
111744,set_tempo,,,,,384,1,0,,434782,,,,,,,
111744,note_on,,,,,128,0,9,,,,,2,,,73,76
111744,note_on,,,,,32,0,7,,,,,0,,,69,101
111936,note_off,,,,,192,0,7,,,,,0,,,69,100
112000,note_off,,,,,256,0,10,,,,,3,,,69,100
112000,note_off,,,,,256,0,9,,,,,2,,,73,100
112004,note_off,,,,,1028,0,8,,,,,1,,,76,100
112032,note_on,,,,,96,0,7,,,,,0,,,81,100
112096,note_off,,,,,64,0,7,,,,,0,,,81,100
112128,note_on,,,,,128,0,10,,,,,3,,,71,79
112128,note_on,,,,,32,0,7,,,,,0,,,80,100
112128,note_on,,,,,0,0,7,,,,,0,,,71,100
112128,set_tempo,,,,,384,1,0,,441176,,,,,,,
112128,note_on,,,,,128,0,9,,,,,2,,,71,79
112128,note_on,,,,,124,0,8,,,,,1,,,76,79
112220,note_off,,,,,92,0,7,,,,,0,,,80,100
112220,note_off,,,,,92,0,8,,,,,1,,,76,100
112224,note_on,,,,,4,0,8,,,,,1,,,75,80
112224,note_on,,,,,4,0,7,,,,,0,,,78,100
112268,note_off,,,,,44,0,7,,,,,0,,,78,100
112272,set_tempo,,,,,144,1,0,,444444,,,,,,,
112272,note_on,,,,,4,0,7,,,,,0,,,80,100
112316,note_off,,,,,92,0,8,,,,,1,,,75,100
112316,note_off,,,,,44,0,7,,,,,0,,,80,100
112320,note_on,,,,,4,0,8,,,,,1,,,76,82
112320,note_on,,,,,4,0,7,,,,,0,,,78,100
112364,note_off,,,,,44,0,7,,,,,0,,,78,100
112368,note_on,,,,,4,0,7,,,,,0,,,80,100
112380,note_off,,,,,60,0,8,,,,,1,,,76,100
112384,note_on,,,,,4,0,8,,,,,1,,,75,82
112384,note_off,,,,,256,0,10,,,,,3,,,71,100
112412,note_off,,,,,44,0,7,,,,,0,,,80,100
112416,set_tempo,,,,,144,1,0,,447761,,,,,,,
112416,note_on,,,,,4,0,7,,,,,0,,,78,100
112444,note_off,,,,,60,0,8,,,,,1,,,75,100
112448,note_on,,,,,4,0,8,,,,,1,,,76,82
112460,note_off,,,,,44,0,7,,,,,0,,,78,100
112464,note_on,,,,,4,0,7,,,,,0,,,80,100
112472,note_off,,,,,8,0,7,,,,,0,,,71,100
112508,note_off,,,,,36,0,7,,,,,0,,,80,100
112508,note_off,,,,,60,0,8,,,,,1,,,76,100
112512,note_on,,,,,128,0,10,,,,,3,,,59,83
112512,note_on,,,,,4,0,8,,,,,1,,,75,83
112512,note_on,,,,,4,0,7,,,,,0,,,78,100
112512,note_off,,,,,384,0,9,,,,,2,,,71,100
112560,set_tempo,,,,,144,1,0,,451127,,,,,,,
112640,note_off,,,,,128,0,8,,,,,1,,,75,100
112640,note_off,,,,,128,0,7,,,,,0,,,78,100
112704,note_on,,,,,192,0,9,,,,,2,,,71,84
112704,note_on,,,,,64,0,7,,,,,0,,,76,100
112704,note_on,,,,,64,0,8,,,,,1,,,75,84
112768,note_off,,,,,256,0,10,,,,,3,,,59,100
112832,note_off,,,,,128,0,8,,,,,1,,,75,99
112832,set_tempo,,,,,272,1,0,,545454,,,,,,,
112832,note_off,,,,,128,0,9,,,,,2,,,71,100
112832,note_off,,,,,128,0,7,,,,,0,,,76,100
112896,note_on,,,,,64,0,8,,,,,1,,,76,99
112896,note_on,,,,,15872,0,12,,,,,5,,,40,100
112896,note_on,,,,,15872,0,11,,,,,4,,,52,100
112896,note_on,,,,,64,0,7,,,,,0,,,76,100
112896,note_on,,,,,64,0,9,,,,,2,,,68,99
112896,set_tempo,,,,,64,1,0,,428571,,,,,,,
112896,note_on,,,,,15872,0,14,,,,,6,,,52,100
112896,note_on,,,,,128,0,10,,,,,3,,,64,99
112896,note_on,,,,,0,0,13,,,,,6,,,71,100
112896,note_on,,,,,15872,0,13,,,,,6,,,68,100
113024,note_off,,,,,128,0,7,,,,,0,,,76,100
113024,note_off,,,,,128,0,8,,,,,1,,,76,100
113088,note_on,,,,,64,0,8,,,,,1,,,80,100
113152,note_off,,,,,256,0,13,,,,,6,,,68,100
113152,note_off,,,,,256,0,12,,,,,5,,,40,100
113152,note_off,,,,,256,0,11,,,,,4,,,52,100
113152,note_off,,,,,0,0,13,,,,,6,,,71,100
113152,note_off,,,,,256,0,9,,,,,2,,,68,100
113152,note_off,,,,,256,0,14,,,,,6,,,52,100
113152,note_off,,,,,256,0,10,,,,,3,,,64,100
113216,note_off,,,,,128,0,8,,,,,1,,,80,100
113280,note_on,,,,,128,0,12,,,,,5,,,40,98
113280,note_on,,,,,0,0,13,,,,,6,,,71,100
113280,note_on,,,,,128,0,11,,,,,4,,,52,98
113280,note_on,,,,,64,0,8,,,,,1,,,76,98
113280,note_on,,,,,128,0,10,,,,,3,,,68,98
113280,note_on,,,,,128,0,14,,,,,6,,,52,100
113280,note_on,,,,,128,0,13,,,,,6,,,68,100
113408,note_off,,,,,128,0,8,,,,,1,,,76,100
113472,note_on,,,,,64,0,8,,,,,1,,,71,95
113536,note_off,,,,,256,0,11,,,,,4,,,52,100
113536,note_off,,,,,256,0,14,,,,,6,,,52,100
113536,note_off,,,,,256,0,10,,,,,3,,,68,100
113536,note_off,,,,,256,0,12,,,,,5,,,40,100
113536,note_off,,,,,0,0,13,,,,,6,,,71,100
113536,note_off,,,,,256,0,13,,,,,6,,,68,100
113600,note_off,,,,,128,0,8,,,,,1,,,71,100
113664,note_on,,,,,128,0,10,,,,,3,,,64,93
113664,note_on,,,,,128,0,12,,,,,5,,,40,93
113664,note_on,,,,,128,0,14,,,,,6,,,52,100
113664,note_on,,,,,0,0,13,,,,,6,,,71,100
113664,note_on,,,,,128,0,13,,,,,6,,,68,100
113664,note_on,,,,,64,0,8,,,,,1,,,68,93
113664,note_on,,,,,128,0,11,,,,,4,,,52,93
113792,note_off,,,,,128,0,8,,,,,1,,,68,100
113856,note_on,,,,,64,0,8,,,,,1,,,64,90
113920,note_off,,,,,256,0,12,,,,,5,,,40,100
113920,note_off,,,,,256,0,10,,,,,3,,,64,100
113920,note_off,,,,,256,0,11,,,,,4,,,52,100
113920,note_off,,,,,256,0,14,,,,,6,,,52,100
113920,note_off,,,,,256,0,13,,,,,6,,,68,100
113920,note_off,,,,,0,0,13,,,,,6,,,71,100
113984,note_off,,,,,128,0,8,,,,,1,,,64,100
114048,note_on,,,,,896,0,9,,,,,2,,,76,95
114048,note_on,,,,,64,0,8,,,,,1,,,80,95
114048,note_on,,,,,128,0,14,,,,,6,,,52,100
114048,note_on,,,,,128,0,13,,,,,6,,,68,100
114048,note_on,,,,,0,0,13,,,,,6,,,71,100
114048,note_on,,,,,128,0,10,,,,,3,,,59,95
114048,note_on,,,,,128,0,11,,,,,4,,,52,95
114048,note_on,,,,,128,0,12,,,,,5,,,40,95
114176,note_off,,,,,128,0,8,,,,,1,,,80,100
114176,note_off,,,,,128,0,9,,,,,2,,,76,100
114240,note_on,,,,,64,0,9,,,,,2,,,80,94
114240,note_on,,,,,64,0,8,,,,,1,,,83,94
114304,note_off,,,,,256,0,11,,,,,4,,,52,100
114304,note_off,,,,,256,0,12,,,,,5,,,40,100
114304,note_off,,,,,256,0,13,,,,,6,,,68,100
114304,note_off,,,,,256,0,10,,,,,3,,,59,100
114304,note_off,,,,,256,0,14,,,,,6,,,52,100
114304,note_off,,,,,0,0,13,,,,,6,,,71,100
114368,note_off,,,,,128,0,8,,,,,1,,,83,100
114368,note_off,,,,,128,0,9,,,,,2,,,80,100
114432,note_on,,,,,128,0,12,,,,,5,,,40,92
114432,note_on,,,,,128,0,14,,,,,6,,,52,100
114432,note_on,,,,,128,0,11,,,,,4,,,52,92
114432,note_on,,,,,64,0,8,,,,,1,,,80,92
114432,note_on,,,,,128,0,10,,,,,3,,,59,92
114432,note_on,,,,,128,0,13,,,,,6,,,68,100
114432,note_on,,,,,0,0,13,,,,,6,,,71,100
114432,note_on,,,,,64,0,9,,,,,2,,,76,92
114560,note_off,,,,,128,0,9,,,,,2,,,76,100
114560,note_off,,,,,128,0,8,,,,,1,,,80,100
114624,note_on,,,,,64,0,9,,,,,2,,,71,90
114624,note_on,,,,,64,0,8,,,,,1,,,76,90
114688,note_off,,,,,256,0,13,,,,,6,,,68,100
114688,note_off,,,,,0,0,13,,,,,6,,,71,100
114688,note_off,,,,,256,0,12,,,,,5,,,40,100
114688,note_off,,,,,256,0,10,,,,,3,,,59,100
114688,note_off,,,,,256,0,11,,,,,4,,,52,100
114688,note_off,,,,,256,0,14,,,,,6,,,52,100
114752,note_off,,,,,128,0,9,,,,,2,,,71,100
114752,note_off,,,,,128,0,8,,,,,1,,,76,100
114816,note_on,,,,,128,0,13,,,,,6,,,68,100
114816,note_on,,,,,64,0,9,,,,,2,,,68,90
114816,note_on,,,,,128,0,12,,,,,5,,,40,90
114816,note_on,,,,,0,0,13,,,,,6,,,71,100
114816,note_on,,,,,64,0,8,,,,,1,,,71,90
114816,note_on,,,,,128,0,10,,,,,3,,,59,90
114816,note_on,,,,,128,0,11,,,,,4,,,52,90
114816,note_on,,,,,128,0,14,,,,,6,,,52,100
114944,note_off,,,,,128,0,9,,,,,2,,,68,100
114944,note_off,,,,,128,0,8,,,,,1,,,71,100
115008,note_on,,,,,64,0,9,,,,,2,,,64,91
115008,note_on,,,,,64,0,8,,,,,1,,,68,91
115072,note_off,,,,,0,0,13,,,,,6,,,71,100
115072,note_off,,,,,256,0,14,,,,,6,,,52,100
115072,note_off,,,,,256,0,13,,,,,6,,,68,100
115072,note_off,,,,,256,0,11,,,,,4,,,52,100
115072,note_off,,,,,256,0,10,,,,,3,,,59,100
115072,note_off,,,,,256,0,12,,,,,5,,,40,100
115136,note_off,,,,,128,0,8,,,,,1,,,68,100
115136,note_off,,,,,128,0,9,,,,,2,,,64,100
115200,note_on,,,,,128,0,12,,,,,5,,,40,100
115200,note_on,,,,,128,0,10,,,,,3,,,59,100
115200,note_on,,,,,64,0,8,,,,,1,,,76,100
115200,note_on,,,,,128,0,13,,,,,6,,,68,100
115200,note_on,,,,,128,0,11,,,,,4,,,52,100
115200,note_on,,,,,64,0,9,,,,,2,,,80,100
115200,note_on,,,,,128,0,14,,,,,6,,,52,100
115200,note_on,,,,,0,0,13,,,,,6,,,71,100
115328,note_off,,,,,128,0,8,,,,,1,,,76,100
115328,note_off,,,,,128,0,9,,,,,2,,,80,100
115392,note_on,,,,,64,0,8,,,,,1,,,80,99
115392,note_on,,,,,64,0,9,,,,,2,,,83,99
115456,note_off,,,,,256,0,12,,,,,5,,,40,100
115456,note_off,,,,,256,0,10,,,,,3,,,59,100
115456,note_off,,,,,256,0,14,,,,,6,,,52,100
115456,note_off,,,,,256,0,13,,,,,6,,,68,100
115456,note_off,,,,,256,0,11,,,,,4,,,52,100
115456,note_off,,,,,0,0,13,,,,,6,,,71,100
115520,note_off,,,,,128,0,8,,,,,1,,,80,100
115520,note_off,,,,,128,0,9,,,,,2,,,83,100
115584,note_on,,,,,128,0,12,,,,,5,,,40,97
115584,note_on,,,,,64,0,8,,,,,1,,,76,97
115584,note_on,,,,,128,0,10,,,,,3,,,59,97
115584,note_on,,,,,64,0,9,,,,,2,,,80,97
115584,note_on,,,,,128,0,11,,,,,4,,,52,97
115584,note_on,,,,,128,0,14,,,,,6,,,52,100
115584,note_on,,,,,0,0,13,,,,,6,,,71,100
115584,note_on,,,,,128,0,13,,,,,6,,,68,100
115712,note_off,,,,,128,0,9,,,,,2,,,80,100
115712,note_off,,,,,128,0,8,,,,,1,,,76,100
115776,note_on,,,,,64,0,9,,,,,2,,,76,95
115776,note_on,,,,,64,0,8,,,,,1,,,71,95
115840,note_off,,,,,0,0,13,,,,,6,,,71,100
115840,note_off,,,,,256,0,13,,,,,6,,,68,100
115840,note_off,,,,,256,0,12,,,,,5,,,40,100
115840,note_off,,,,,256,0,10,,,,,3,,,59,100
115840,note_off,,,,,256,0,14,,,,,6,,,52,100
115840,note_off,,,,,256,0,11,,,,,4,,,52,100
115904,note_off,,,,,128,0,9,,,,,2,,,76,100
115904,note_off,,,,,128,0,8,,,,,1,,,71,100
115968,note_on,,,,,128,0,10,,,,,3,,,59,95
115968,note_on,,,,,64,0,8,,,,,1,,,68,95
115968,note_on,,,,,128,0,12,,,,,5,,,40,95
115968,note_on,,,,,128,0,13,,,,,6,,,68,100
115968,note_on,,,,,128,0,14,,,,,6,,,52,100
115968,note_on,,,,,128,0,11,,,,,4,,,52,95
115968,note_on,,,,,64,0,9,,,,,2,,,71,95
115968,note_on,,,,,0,0,13,,,,,6,,,71,100
116096,note_off,,,,,128,0,9,,,,,2,,,71,100
116096,note_off,,,,,128,0,8,,,,,1,,,68,100
116160,note_on,,,,,64,0,8,,,,,1,,,64,96
116160,note_on,,,,,64,0,9,,,,,2,,,68,96
116224,note_off,,,,,256,0,14,,,,,6,,,52,100
116224,note_off,,,,,256,0,13,,,,,6,,,68,100
116224,note_off,,,,,0,0,13,,,,,6,,,71,100
116224,note_off,,,,,256,0,10,,,,,3,,,59,100
116224,note_off,,,,,256,0,12,,,,,5,,,40,100
116224,note_off,,,,,256,0,11,,,,,4,,,52,100
116288,note_off,,,,,128,0,8,,,,,1,,,64,100
116288,note_off,,,,,128,0,9,,,,,2,,,68,100
116352,note_on,,,,,64,0,9,,,,,2,,,76,105
116352,note_on,,,,,128,0,11,,,,,4,,,52,105
116352,note_on,,,,,128,0,10,,,,,3,,,59,105
116352,note_on,,,,,128,0,12,,,,,5,,,40,105
116352,note_on,,,,,128,0,13,,,,,6,,,68,100
116352,note_on,,,,,64,0,8,,,,,1,,,80,105
116352,note_on,,,,,128,0,14,,,,,6,,,52,100
116352,note_on,,,,,0,0,13,,,,,6,,,71,100
116480,note_off,,,,,128,0,9,,,,,2,,,76,100
116480,note_off,,,,,128,0,8,,,,,1,,,80,100
116544,note_on,,,,,64,0,8,,,,,1,,,83,104
116544,note_on,,,,,64,0,9,,,,,2,,,80,104
116608,note_off,,,,,0,0,13,,,,,6,,,71,100
116608,note_off,,,,,256,0,13,,,,,6,,,68,100
116608,note_off,,,,,256,0,14,,,,,6,,,52,100
116608,note_off,,,,,256,0,12,,,,,5,,,40,100
116608,note_off,,,,,256,0,10,,,,,3,,,59,100
116608,note_off,,,,,256,0,11,,,,,4,,,52,100
116672,note_off,,,,,128,0,8,,,,,1,,,83,100
116672,note_off,,,,,128,0,9,,,,,2,,,80,100
116736,note_on,,,,,128,0,12,,,,,5,,,40,102
116736,note_on,,,,,64,0,8,,,,,1,,,80,102
116736,note_on,,,,,64,0,9,,,,,2,,,76,102
116736,note_on,,,,,0,0,13,,,,,6,,,71,100
116736,note_on,,,,,128,0,11,,,,,4,,,52,102
116736,note_on,,,,,128,0,13,,,,,6,,,68,100
116736,note_on,,,,,128,0,14,,,,,6,,,52,100
116736,note_on,,,,,128,0,10,,,,,3,,,59,102
116864,note_off,,,,,128,0,9,,,,,2,,,76,100
116864,note_off,,,,,128,0,8,,,,,1,,,80,100
116928,note_on,,,,,64,0,8,,,,,1,,,76,101
116928,note_on,,,,,64,0,9,,,,,2,,,71,101
116992,note_off,,,,,256,0,10,,,,,3,,,59,100
116992,note_off,,,,,256,0,11,,,,,4,,,52,100
116992,note_off,,,,,256,0,14,,,,,6,,,52,100
116992,note_off,,,,,256,0,12,,,,,5,,,40,100
116992,note_off,,,,,0,0,13,,,,,6,,,71,100
116992,note_off,,,,,256,0,13,,,,,6,,,68,100
117056,note_off,,,,,128,0,8,,,,,1,,,76,100
117056,note_off,,,,,128,0,9,,,,,2,,,71,100
117120,note_on,,,,,128,0,11,,,,,4,,,52,99
117120,note_on,,,,,64,0,8,,,,,1,,,71,99
117120,note_on,,,,,128,0,14,,,,,6,,,52,100
117120,note_on,,,,,128,0,12,,,,,5,,,40,99
117120,note_on,,,,,128,0,13,,,,,6,,,68,100
117120,note_on,,,,,64,0,9,,,,,2,,,68,99
117120,note_on,,,,,0,0,13,,,,,6,,,71,100
117120,note_on,,,,,128,0,10,,,,,3,,,59,99
117248,note_off,,,,,128,0,8,,,,,1,,,71,100
117248,note_off,,,,,128,0,9,,,,,2,,,68,100
117312,note_on,,,,,64,0,9,,,,,2,,,71,97
117312,note_on,,,,,64,0,8,,,,,1,,,68,97
117376,note_off,,,,,0,0,13,,,,,6,,,71,100
117376,note_off,,,,,256,0,14,,,,,6,,,52,100
117376,note_off,,,,,256,0,10,,,,,3,,,59,100
117376,note_off,,,,,256,0,13,,,,,6,,,68,100
117376,note_off,,,,,256,0,11,,,,,4,,,52,100
117376,note_off,,,,,256,0,12,,,,,5,,,40,100
117440,note_off,,,,,128,0,8,,,,,1,,,68,100
117440,note_off,,,,,128,0,9,,,,,2,,,71,100
117504,note_on,,,,,128,0,10,,,,,3,,,59,96
117504,note_on,,,,,64,0,8,,,,,1,,,64,96
117504,note_on,,,,,4480,0,7,,,,,0,,,64,96
117504,note_on,,,,,0,0,13,,,,,6,,,71,100
117504,note_on,,,,,128,0,13,,,,,6,,,68,100
117504,note_on,,,,,64,0,9,,,,,2,,,68,96
117504,note_on,,,,,128,0,14,,,,,6,,,52,100
117504,note_on,,,,,128,0,11,,,,,4,,,52,96
117504,note_on,,,,,128,0,12,,,,,5,,,40,96
117632,note_off,,,,,128,0,7,,,,,0,,,64,100
117696,note_on,,,,,64,0,7,,,,,0,,,66,100
117760,note_off,,,,,0,0,13,,,,,6,,,71,100
117760,note_off,,,,,256,0,14,,,,,6,,,52,100
117760,note_off,,,,,256,0,13,,,,,6,,,68,100
117760,note_off,,,,,256,0,11,,,,,4,,,52,100
117760,note_off,,,,,256,0,12,,,,,5,,,40,100
117760,note_off,,,,,256,0,8,,,,,1,,,64,100
117760,note_off,,,,,256,0,9,,,,,2,,,68,100
117760,note_off,,,,,64,0,7,,,,,0,,,66,100
117760,note_off,,,,,256,0,10,,,,,3,,,59,100
117792,note_on,,,,,32,0,7,,,,,0,,,68,100
117856,note_off,,,,,64,0,7,,,,,0,,,68,100
117888,note_on,,,,,32,0,7,,,,,0,,,69,100
117952,note_off,,,,,64,0,7,,,,,0,,,69,100
117984,note_on,,,,,32,0,7,,,,,0,,,71,100
118048,note_off,,,,,64,0,7,,,,,0,,,71,100
118080,note_on,,,,,32,0,7,,,,,0,,,73,100
118144,note_off,,,,,64,0,7,,,,,0,,,73,100
118176,note_on,,,,,32,0,7,,,,,0,,,75,100
118240,note_off,,,,,64,0,7,,,,,0,,,75,100
118272,note_on,,,,,32,0,7,,,,,0,,,76,100
118400,note_off,,,,,128,0,7,,,,,0,,,76,100
118464,note_on,,,,,64,0,7,,,,,0,,,71,100
118592,note_off,,,,,128,0,7,,,,,0,,,71,100
118656,note_on,,,,,896,0,12,,,,,5,,,33,85
118656,note_on,,,,,64,0,7,,,,,0,,,73,100
118656,note_on,,,,,896,0,13,,,,,6,,,61,100
118656,note_on,,,,,0,0,13,,,,,6,,,64,100
118656,note_on,,,,,896,0,11,,,,,4,,,45,85
118656,note_on,,,,,896,0,14,,,,,6,,,45,100
118720,note_off,,,,,64,0,7,,,,,0,,,73,100
118752,note_on,,,,,32,0,7,,,,,0,,,69,100
118816,note_off,,,,,64,0,7,,,,,0,,,69,100
118848,note_on,,,,,32,0,7,,,,,0,,,71,100
118912,note_off,,,,,256,0,11,,,,,4,,,45,100
118912,note_off,,,,,256,0,13,,,,,6,,,61,100
118912,note_off,,,,,64,0,7,,,,,0,,,71,100
118912,note_off,,,,,256,0,12,,,,,5,,,33,100
118912,note_off,,,,,0,0,13,,,,,6,,,64,100
118912,note_off,,,,,256,0,14,,,,,6,,,45,100
118944,note_on,,,,,32,0,7,,,,,0,,,73,100
119008,note_off,,,,,64,0,7,,,,,0,,,73,100
119040,note_on,,,,,32,0,7,,,,,0,,,75,100
119104,note_off,,,,,64,0,7,,,,,0,,,75,100
119136,note_on,,,,,32,0,7,,,,,0,,,76,100
119200,note_off,,,,,64,0,7,,,,,0,,,76,100
119232,note_on,,,,,32,0,7,,,,,0,,,78,100
119296,note_off,,,,,64,0,7,,,,,0,,,78,100
119328,note_on,,,,,32,0,7,,,,,0,,,80,100
119392,note_off,,,,,64,0,7,,,,,0,,,80,100
119424,note_on,,,,,32,0,7,,,,,0,,,81,100
119552,note_off,,,,,128,0,7,,,,,0,,,81,100
119616,note_on,,,,,64,0,7,,,,,0,,,73,100
119744,note_off,,,,,128,0,7,,,,,0,,,73,100
119808,note_on,,,,,64,0,7,,,,,0,,,75,100
119808,note_on,,,,,896,0,12,,,,,5,,,35,85
119808,note_on,,,,,896,0,13,,,,,6,,,63,100
119808,note_on,,,,,0,0,13,,,,,6,,,66,100
119808,note_on,,,,,896,0,11,,,,,4,,,47,85
119808,note_on,,,,,896,0,14,,,,,6,,,47,100
119872,note_off,,,,,64,0,7,,,,,0,,,75,100
119904,note_on,,,,,32,0,7,,,,,0,,,71,100
119968,note_off,,,,,64,0,7,,,,,0,,,71,100
120000,note_on,,,,,32,0,7,,,,,0,,,73,100
120064,note_off,,,,,256,0,11,,,,,4,,,47,100
120064,note_off,,,,,64,0,7,,,,,0,,,73,100
120064,note_off,,,,,256,0,13,,,,,6,,,63,100
120064,note_off,,,,,0,0,13,,,,,6,,,66,100
120064,note_off,,,,,256,0,12,,,,,5,,,35,100
120064,note_off,,,,,256,0,14,,,,,6,,,47,100
120096,note_on,,,,,32,0,7,,,,,0,,,75,100
120160,note_off,,,,,64,0,7,,,,,0,,,75,100
120192,note_on,,,,,32,0,7,,,,,0,,,76,100
120256,note_off,,,,,64,0,7,,,,,0,,,76,100
120288,note_on,,,,,32,0,7,,,,,0,,,78,100
120352,note_off,,,,,64,0,7,,,,,0,,,78,100
120384,note_on,,,,,32,0,7,,,,,0,,,80,100
120448,note_off,,,,,64,0,7,,,,,0,,,80,100
120480,note_on,,,,,32,0,7,,,,,0,,,81,100
120544,note_off,,,,,64,0,7,,,,,0,,,81,100
120576,note_on,,,,,32,0,7,,,,,0,,,83,100
120704,note_off,,,,,128,0,7,,,,,0,,,83,100
120768,note_on,,,,,64,0,7,,,,,0,,,78,100
120896,note_off,,,,,128,0,7,,,,,0,,,78,100
120960,note_on,,,,,64,0,7,,,,,0,,,80,100
120960,note_on,,,,,0,0,13,,,,,6,,,71,100
120960,note_on,,,,,3200,0,10,,,,,3,,,76,85
120960,note_on,,,,,896,0,14,,,,,6,,,52,100
120960,note_on,,,,,896,0,12,,,,,5,,,40,85
120960,note_on,,,,,896,0,13,,,,,6,,,68,100
120960,note_on,,,,,896,0,11,,,,,4,,,52,85
120960,note_on,,,,,3200,0,9,,,,,2,,,80,85
120960,note_on,,,,,3200,0,8,,,,,1,,,83,85
121024,note_off,,,,,64,0,7,,,,,0,,,80,100
121056,note_on,,,,,32,0,7,,,,,0,,,83,100
121120,note_off,,,,,64,0,7,,,,,0,,,83,100
121152,note_on,,,,,32,0,7,,,,,0,,,80,100
121216,note_off,,,,,256,0,12,,,,,5,,,40,100
121216,note_off,,,,,256,0,8,,,,,1,,,83,100
121216,note_off,,,,,64,0,7,,,,,0,,,80,100
121216,note_off,,,,,256,0,10,,,,,3,,,76,100
121216,note_off,,,,,256,0,13,,,,,6,,,68,100
121216,note_off,,,,,0,0,13,,,,,6,,,71,100
121216,note_off,,,,,256,0,14,,,,,6,,,52,100
121216,note_off,,,,,256,0,9,,,,,2,,,80,100
121216,note_off,,,,,256,0,11,,,,,4,,,52,100
121248,note_on,,,,,32,0,7,,,,,0,,,83,100
121312,note_off,,,,,64,0,7,,,,,0,,,83,100
121344,note_on,,,,,32,0,7,,,,,0,,,76,100
121408,note_off,,,,,64,0,7,,,,,0,,,76,100
121440,note_on,,,,,32,0,7,,,,,0,,,83,100
121504,note_off,,,,,64,0,7,,,,,0,,,83,100
121536,note_on,,,,,32,0,7,,,,,0,,,80,100
121600,note_off,,,,,64,0,7,,,,,0,,,80,100
121632,note_on,,,,,32,0,7,,,,,0,,,83,100
121696,note_off,,,,,64,0,7,,,,,0,,,83,100
121728,note_on,,,,,32,0,7,,,,,0,,,76,100
121792,note_off,,,,,64,0,7,,,,,0,,,76,100
121824,note_on,,,,,32,0,7,,,,,0,,,83,100
121888,note_off,,,,,64,0,7,,,,,0,,,83,100
121920,note_on,,,,,32,0,7,,,,,0,,,80,100
121984,note_off,,,,,64,0,7,,,,,0,,,80,100
122016,note_on,,,,,32,0,7,,,,,0,,,83,100
122080,note_off,,,,,64,0,7,,,,,0,,,83,100
122112,note_on,,,,,896,0,10,,,,,3,,,75,85
122112,note_on,,,,,896,0,9,,,,,2,,,78,85
122112,note_on,,,,,896,0,12,,,,,5,,,35,85
122112,note_on,,,,,32,0,7,,,,,0,,,75,100
122112,note_on,,,,,896,0,13,,,,,6,,,63,100
122112,note_on,,,,,0,0,13,,,,,6,,,66,100
122112,note_on,,,,,896,0,14,,,,,6,,,47,100
122112,note_on,,,,,896,0,11,,,,,4,,,47,85
122112,note_on,,,,,896,0,8,,,,,1,,,83,85
122176,note_off,,,,,64,0,7,,,,,0,,,75,100
122208,note_on,,,,,32,0,7,,,,,0,,,83,100
122272,note_off,,,,,64,0,7,,,,,0,,,83,100
122304,note_on,,,,,32,0,7,,,,,0,,,78,100
122368,note_off,,,,,256,0,14,,,,,6,,,47,100
122368,note_off,,,,,0,0,13,,,,,6,,,66,100
122368,note_off,,,,,64,0,7,,,,,0,,,78,100
122368,note_off,,,,,256,0,8,,,,,1,,,83,100
122368,note_off,,,,,256,0,9,,,,,2,,,78,100
122368,note_off,,,,,256,0,13,,,,,6,,,63,100
122368,note_off,,,,,256,0,12,,,,,5,,,35,100
122368,note_off,,,,,256,0,11,,,,,4,,,47,100
122368,note_off,,,,,256,0,10,,,,,3,,,75,100
122400,note_on,,,,,32,0,7,,,,,0,,,83,100
122464,note_off,,,,,64,0,7,,,,,0,,,83,100
122496,note_on,,,,,32,0,7,,,,,0,,,75,100
122560,note_off,,,,,64,0,7,,,,,0,,,75,100
122592,note_on,,,,,32,0,7,,,,,0,,,83,100
122656,note_off,,,,,64,0,7,,,,,0,,,83,100
122688,note_on,,,,,32,0,7,,,,,0,,,78,100
122752,note_off,,,,,64,0,7,,,,,0,,,78,100
122784,note_on,,,,,32,0,7,,,,,0,,,83,100
122848,note_off,,,,,64,0,7,,,,,0,,,83,100
122880,note_on,,,,,32,0,7,,,,,0,,,75,100
122944,note_off,,,,,64,0,7,,,,,0,,,75,100
122976,note_on,,,,,32,0,7,,,,,0,,,83,100
123040,note_off,,,,,64,0,7,,,,,0,,,83,100
123072,note_on,,,,,32,0,7,,,,,0,,,78,100
123136,note_off,,,,,64,0,7,,,,,0,,,78,100
123168,note_on,,,,,32,0,7,,,,,0,,,83,100
123232,note_off,,,,,64,0,7,,,,,0,,,83,100
123264,note_on,,,,,896,0,11,,,,,4,,,52,75
123264,note_on,,,,,896,0,8,,,,,1,,,83,75
123264,note_on,,,,,896,0,9,,,,,2,,,80,75
123264,note_on,,,,,896,0,13,,,,,6,,,68,100
123264,note_on,,,,,0,0,13,,,,,6,,,71,100
123264,note_on,,,,,896,0,12,,,,,5,,,40,75
123264,note_on,,,,,896,0,10,,,,,3,,,76,75
123264,note_on,,,,,896,0,14,,,,,6,,,52,100
123264,note_on,,,,,32,0,7,,,,,0,,,76,90
123328,note_off,,,,,64,0,7,,,,,0,,,76,100
123360,note_on,,,,,32,0,7,,,,,0,,,83,90
123424,note_off,,,,,64,0,7,,,,,0,,,83,100
123456,note_on,,,,,32,0,7,,,,,0,,,80,90
123520,note_off,,,,,256,0,10,,,,,3,,,76,100
123520,note_off,,,,,256,0,8,,,,,1,,,83,100
123520,note_off,,,,,256,0,9,,,,,2,,,80,100
123520,note_off,,,,,256,0,13,,,,,6,,,68,100
123520,note_off,,,,,256,0,11,,,,,4,,,52,100
123520,note_off,,,,,256,0,12,,,,,5,,,40,100
123520,note_off,,,,,256,0,14,,,,,6,,,52,100
123520,note_off,,,,,0,0,13,,,,,6,,,71,100
123520,note_off,,,,,64,0,7,,,,,0,,,80,100
123552,note_on,,,,,32,0,7,,,,,0,,,83,90
123616,note_off,,,,,64,0,7,,,,,0,,,83,100
123648,note_on,,,,,32,0,7,,,,,0,,,76,90
123712,note_off,,,,,64,0,7,,,,,0,,,76,100
123744,note_on,,,,,32,0,7,,,,,0,,,83,90
123808,note_off,,,,,64,0,7,,,,,0,,,83,100
123840,note_on,,,,,32,0,7,,,,,0,,,80,90
123904,note_off,,,,,64,0,7,,,,,0,,,80,100
123936,note_on,,,,,32,0,7,,,,,0,,,83,90
124000,note_off,,,,,64,0,7,,,,,0,,,83,100
124032,note_on,,,,,32,0,7,,,,,0,,,76,90
124096,note_off,,,,,64,0,7,,,,,0,,,76,100
124128,note_on,,,,,32,0,7,,,,,0,,,83,90
124192,note_off,,,,,64,0,7,,,,,0,,,83,100
124224,note_on,,,,,32,0,7,,,,,0,,,80,90
124288,note_off,,,,,64,0,7,,,,,0,,,80,100
124320,note_on,,,,,32,0,7,,,,,0,,,83,90
124384,note_off,,,,,64,0,7,,,,,0,,,83,100
124416,note_on,,,,,896,0,11,,,,,4,,,47,75
124416,note_on,,,,,896,0,14,,,,,6,,,47,100
124416,note_on,,,,,896,0,9,,,,,2,,,78,75
124416,note_on,,,,,896,0,12,,,,,5,,,35,75
124416,note_on,,,,,32,0,7,,,,,0,,,75,90
124416,note_on,,,,,896,0,10,,,,,3,,,75,75
124416,note_on,,,,,0,0,13,,,,,6,,,66,100
124416,note_on,,,,,896,0,13,,,,,6,,,63,100
124416,note_on,,,,,896,0,8,,,,,1,,,83,75
124480,note_off,,,,,64,0,7,,,,,0,,,75,100
124512,note_on,,,,,32,0,7,,,,,0,,,83,90
124576,note_off,,,,,64,0,7,,,,,0,,,83,100
124608,note_on,,,,,32,0,7,,,,,0,,,78,90
124672,note_off,,,,,256,0,10,,,,,3,,,75,100
124672,note_off,,,,,256,0,12,,,,,5,,,35,100
124672,note_off,,,,,0,0,13,,,,,6,,,66,100
124672,note_off,,,,,256,0,13,,,,,6,,,63,100
124672,note_off,,,,,256,0,9,,,,,2,,,78,100
124672,note_off,,,,,256,0,8,,,,,1,,,83,100
124672,note_off,,,,,256,0,11,,,,,4,,,47,100
124672,note_off,,,,,64,0,7,,,,,0,,,78,100
124672,note_off,,,,,256,0,14,,,,,6,,,47,100
124704,note_on,,,,,32,0,7,,,,,0,,,83,90
124768,note_off,,,,,64,0,7,,,,,0,,,83,100
124800,note_on,,,,,32,0,7,,,,,0,,,75,90
124864,note_off,,,,,64,0,7,,,,,0,,,75,100
124896,note_on,,,,,32,0,7,,,,,0,,,83,90
124960,note_off,,,,,64,0,7,,,,,0,,,83,100
124992,note_on,,,,,32,0,7,,,,,0,,,78,90
125056,note_off,,,,,64,0,7,,,,,0,,,78,100
125088,note_on,,,,,32,0,7,,,,,0,,,83,90
125152,note_off,,,,,64,0,7,,,,,0,,,83,100
125184,note_on,,,,,32,0,7,,,,,0,,,75,90
125248,note_off,,,,,64,0,7,,,,,0,,,75,100
125280,note_on,,,,,32,0,7,,,,,0,,,83,90
125344,note_off,,,,,64,0,7,,,,,0,,,83,100
125376,note_on,,,,,32,0,7,,,,,0,,,78,90
125440,note_off,,,,,64,0,7,,,,,0,,,78,100
125472,note_on,,,,,32,0,7,,,,,0,,,83,90
125536,note_off,,,,,64,0,7,,,,,0,,,83,100
125568,note_on,,,,,32,0,7,,,,,0,,,73,100
125568,note_on,,,,,896,0,10,,,,,3,,,68,85
125568,note_on,,,,,896,0,13,,,,,6,,,68,100
125568,note_on,,,,,896,0,12,,,,,5,,,37,85
125568,note_on,,,,,896,0,9,,,,,2,,,76,85
125568,note_on,,,,,896,0,11,,,,,4,,,49,85
125568,note_on,,,,,896,0,14,,,,,6,,,49,100
125568,note_on,,,,,0,0,13,,,,,6,,,71,100
125568,note_on,,,,,896,0,8,,,,,1,,,83,85
125632,note_off,,,,,64,0,7,,,,,0,,,73,100
125664,note_on,,,,,32,0,7,,,,,0,,,83,100
125728,note_off,,,,,64,0,7,,,,,0,,,83,100
125760,note_on,,,,,32,0,7,,,,,0,,,76,100
125824,note_off,,,,,256,0,12,,,,,5,,,37,100
125824,note_off,,,,,256,0,10,,,,,3,,,68,100
125824,note_off,,,,,64,0,7,,,,,0,,,76,100
125824,note_off,,,,,256,0,8,,,,,1,,,83,100
125824,note_off,,,,,0,0,13,,,,,6,,,71,100
125824,note_off,,,,,256,0,11,,,,,4,,,49,100
125824,note_off,,,,,256,0,14,,,,,6,,,49,100
125824,note_off,,,,,256,0,13,,,,,6,,,68,100
125824,note_off,,,,,256,0,9,,,,,2,,,76,100
125856,note_on,,,,,32,0,7,,,,,0,,,83,100
125920,note_off,,,,,64,0,7,,,,,0,,,83,100
125952,note_on,,,,,32,0,7,,,,,0,,,73,100
126016,note_off,,,,,64,0,7,,,,,0,,,73,100
126048,note_on,,,,,32,0,7,,,,,0,,,83,100
126112,note_off,,,,,64,0,7,,,,,0,,,83,100
126144,note_on,,,,,32,0,7,,,,,0,,,76,100
126208,note_off,,,,,64,0,7,,,,,0,,,76,100
126240,note_on,,,,,32,0,7,,,,,0,,,83,100
126304,note_off,,,,,64,0,7,,,,,0,,,83,100
126336,note_on,,,,,32,0,7,,,,,0,,,73,100
126400,note_off,,,,,64,0,7,,,,,0,,,73,100
126432,note_on,,,,,32,0,7,,,,,0,,,83,100
126496,note_off,,,,,64,0,7,,,,,0,,,83,100
126528,note_on,,,,,32,0,7,,,,,0,,,76,100
126592,note_off,,,,,64,0,7,,,,,0,,,76,100
126624,note_on,,,,,32,0,7,,,,,0,,,83,100
126688,note_off,,,,,64,0,7,,,,,0,,,83,100
126720,note_on,,,,,896,0,13,,,,,6,,,64,100
126720,note_on,,,,,896,0,9,,,,,2,,,76,85
126720,note_on,,,,,896,0,10,,,,,3,,,69,85
126720,note_on,,,,,896,0,14,,,,,6,,,49,100
126720,note_on,,,,,896,0,11,,,,,4,,,49,85
126720,note_on,,,,,896,0,8,,,,,1,,,81,85
126720,note_on,,,,,32,0,7,,,,,0,,,73,100
126720,note_on,,,,,896,0,12,,,,,5,,,37,85
126720,note_on,,,,,0,0,13,,,,,6,,,69,100
126784,note_off,,,,,64,0,7,,,,,0,,,73,100
126816,note_on,,,,,32,0,7,,,,,0,,,81,100
126880,note_off,,,,,64,0,7,,,,,0,,,81,100
126912,note_on,,,,,32,0,7,,,,,0,,,76,100
126976,note_off,,,,,256,0,11,,,,,4,,,49,100
126976,note_off,,,,,256,0,12,,,,,5,,,37,100
126976,note_off,,,,,256,0,14,,,,,6,,,49,100
126976,note_off,,,,,256,0,8,,,,,1,,,81,100
126976,note_off,,,,,256,0,13,,,,,6,,,64,100
126976,note_off,,,,,256,0,9,,,,,2,,,76,100
126976,note_off,,,,,0,0,13,,,,,6,,,69,100
126976,note_off,,,,,256,0,10,,,,,3,,,69,100
126976,note_off,,,,,64,0,7,,,,,0,,,76,100
127008,note_on,,,,,32,0,7,,,,,0,,,81,100
127072,note_off,,,,,64,0,7,,,,,0,,,81,100
127104,note_on,,,,,32,0,7,,,,,0,,,73,100
127168,note_off,,,,,64,0,7,,,,,0,,,73,100
127200,note_on,,,,,32,0,7,,,,,0,,,81,100
127264,note_off,,,,,64,0,7,,,,,0,,,81,100
127296,note_on,,,,,32,0,7,,,,,0,,,76,100
127360,note_off,,,,,64,0,7,,,,,0,,,76,100
127392,note_on,,,,,32,0,7,,,,,0,,,81,100
127456,note_off,,,,,64,0,7,,,,,0,,,81,100
127488,note_on,,,,,32,0,7,,,,,0,,,73,100
127552,note_off,,,,,64,0,7,,,,,0,,,73,100
127584,note_on,,,,,32,0,7,,,,,0,,,81,100
127648,note_off,,,,,64,0,7,,,,,0,,,81,100
127680,note_on,,,,,32,0,7,,,,,0,,,76,100
127744,note_off,,,,,64,0,7,,,,,0,,,76,100
127776,note_on,,,,,32,0,7,,,,,0,,,81,100
127840,note_off,,,,,64,0,7,,,,,0,,,81,100
127872,note_on,,,,,32,0,7,,,,,0,,,59,100
127872,note_on,,,,,896,0,9,,,,,2,,,78,100
127872,note_on,,,,,896,0,11,,,,,4,,,54,100
127872,note_on,,,,,896,0,10,,,,,3,,,63,100
127872,note_on,,,,,0,0,13,,,,,6,,,69,100
127872,note_on,,,,,896,0,8,,,,,1,,,81,100
127872,note_on,,,,,896,0,14,,,,,6,,,54,100
127872,note_on,,,,,896,0,13,,,,,6,,,75,100
127872,note_on,,,,,0,0,7,,,,,0,,,66,100
127872,note_on,,,,,896,0,12,,,,,5,,,42,100
127916,note_off,,,,,0,0,7,,,,,0,,,66,100
127916,note_off,,,,,44,0,7,,,,,0,,,59,100
127920,note_on,,,,,0,0,7,,,,,0,,,75,100
127920,note_on,,,,,4,0,7,,,,,0,,,81,100
128000,note_off,,,,,128,0,14,,,,,6,,,54,100
128000,note_off,,,,,128,0,12,,,,,5,,,42,100
128000,note_off,,,,,128,0,13,,,,,6,,,75,100
128000,note_off,,,,,0,0,13,,,,,6,,,69,100
128000,note_off,,,,,128,0,11,,,,,4,,,54,100
128064,note_on,,,,,64,0,14,,,,,6,,,54,100
128064,note_on,,,,,0,0,13,,,,,6,,,69,100
128064,note_on,,,,,64,0,13,,,,,6,,,75,100
128064,note_on,,,,,64,0,11,,,,,4,,,54,100
128064,note_on,,,,,64,0,12,,,,,5,,,42,100
128128,note_off,,,,,256,0,9,,,,,2,,,78,100
128128,note_off,,,,,256,0,8,,,,,1,,,81,100
128128,note_off,,,,,256,0,10,,,,,3,,,63,100
128176,note_off,,,,,0,0,7,,,,,0,,,75,100
128176,note_off,,,,,256,0,7,,,,,0,,,81,100
128192,note_off,,,,,128,0,11,,,,,4,,,54,100
128192,note_off,,,,,128,0,13,,,,,6,,,75,100
128192,note_off,,,,,0,0,13,,,,,6,,,69,100
128192,note_off,,,,,128,0,12,,,,,5,,,42,100
128192,note_off,,,,,128,0,14,,,,,6,,,54,100
128256,note_on,,,,,0,0,13,,,,,6,,,69,100
128256,note_on,,,,,64,0,14,,,,,6,,,51,100
128256,note_on,,,,,64,0,11,,,,,4,,,51,100
128256,note_on,,,,,64,0,12,,,,,5,,,39,100
128256,note_on,,,,,64,0,13,,,,,6,,,66,100
128384,note_off,,,,,0,0,13,,,,,6,,,69,100
128384,note_off,,,,,128,0,14,,,,,6,,,51,100
128384,note_off,,,,,128,0,11,,,,,4,,,51,100
128384,note_off,,,,,128,0,12,,,,,5,,,39,100
128384,note_off,,,,,128,0,13,,,,,6,,,66,100
128448,note_on,,,,,64,0,13,,,,,6,,,66,100
128448,note_on,,,,,64,0,11,,,,,4,,,51,100
128448,note_on,,,,,0,0,13,,,,,6,,,69,100
128448,note_on,,,,,64,0,12,,,,,5,,,39,100
128448,note_on,,,,,64,0,14,,,,,6,,,51,100
128576,note_off,,,,,128,0,13,,,,,6,,,66,100
128576,note_off,,,,,128,0,14,,,,,6,,,51,100
128576,note_off,,,,,0,0,13,,,,,6,,,69,100
128576,note_off,,,,,128,0,12,,,,,5,,,39,100
128576,note_off,,,,,128,0,11,,,,,4,,,51,100
128640,note_on,,,,,64,0,12,,,,,5,,,35,100
128640,note_on,,,,,64,0,14,,,,,6,,,47,100
128640,note_on,,,,,64,0,13,,,,,6,,,66,100
128640,note_on,,,,,0,0,13,,,,,6,,,69,100
128640,note_on,,,,,64,0,11,,,,,4,,,47,100
128768,note_off,,,,,128,0,11,,,,,4,,,47,100
128768,note_off,,,,,128,0,13,,,,,6,,,66,100
128768,note_off,,,,,128,0,12,,,,,5,,,35,100
128768,note_off,,,,,128,0,14,,,,,6,,,47,100
128768,note_off,,,,,0,0,13,,,,,6,,,69,100
128832,note_on,,,,,64,0,11,,,,,4,,,47,100
128832,note_on,,,,,64,0,13,,,,,6,,,66,100
128832,note_on,,,,,64,0,12,,,,,5,,,35,100
128832,note_on,,,,,0,0,13,,,,,6,,,69,100
128832,note_on,,,,,64,0,14,,,,,6,,,47,100
128960,note_off,,,,,128,0,14,,,,,6,,,47,100
128960,note_off,,,,,0,0,13,,,,,6,,,69,100
128960,note_off,,,,,128,0,11,,,,,4,,,47,100
128960,note_off,,,,,128,0,12,,,,,5,,,35,100
128960,note_off,,,,,128,0,13,,,,,6,,,66,100
129024,note_on,,,,,64,0,13,,,,,6,,,75,100
129024,note_on,,,,,0,0,13,,,,,6,,,69,100
129024,note_on,,,,,0,0,7,,,,,0,,,66,100
129024,note_on,,,,,848,0,7,,,,,0,,,59,100
129024,note_on,,,,,64,0,12,,,,,5,,,42,100
129024,note_on,,,,,896,0,8,,,,,1,,,81,100
129024,note_on,,,,,896,0,9,,,,,2,,,78,100
129024,note_on,,,,,896,0,10,,,,,3,,,63,100
129024,note_on,,,,,64,0,11,,,,,4,,,54,100
129024,note_on,,,,,64,0,14,,,,,6,,,54,100
129068,note_off,,,,,44,0,7,,,,,0,,,59,100
129068,note_off,,,,,0,0,7,,,,,0,,,66,100
129072,note_on,,,,,4,0,7,,,,,0,,,81,100
129072,note_on,,,,,0,0,7,,,,,0,,,75,100
129152,note_off,,,,,128,0,13,,,,,6,,,75,100
129152,note_off,,,,,128,0,14,,,,,6,,,54,100
129152,note_off,,,,,128,0,12,,,,,5,,,42,100
129152,note_off,,,,,128,0,11,,,,,4,,,54,100
129152,note_off,,,,,0,0,13,,,,,6,,,69,100
129216,note_on,,,,,64,0,12,,,,,5,,,42,100
129216,note_on,,,,,64,0,14,,,,,6,,,54,100
129216,note_on,,,,,64,0,11,,,,,4,,,54,100
129216,note_on,,,,,0,0,13,,,,,6,,,69,100
129216,note_on,,,,,64,0,13,,,,,6,,,75,100
129280,note_off,,,,,256,0,9,,,,,2,,,78,100
129280,note_off,,,,,256,0,8,,,,,1,,,81,100
129280,note_off,,,,,256,0,10,,,,,3,,,63,100
129328,note_off,,,,,0,0,7,,,,,0,,,75,100
129328,note_off,,,,,256,0,7,,,,,0,,,81,100
129344,note_off,,,,,128,0,14,,,,,6,,,54,100
129344,note_off,,,,,128,0,13,,,,,6,,,75,100
129344,note_off,,,,,0,0,13,,,,,6,,,69,100
129344,note_off,,,,,128,0,12,,,,,5,,,42,100
129344,note_off,,,,,128,0,11,,,,,4,,,54,100
129408,note_on,,,,,64,0,13,,,,,6,,,66,100
129408,note_on,,,,,0,0,13,,,,,6,,,69,100
129408,note_on,,,,,64,0,14,,,,,6,,,51,100
129408,note_on,,,,,64,0,11,,,,,4,,,51,100
129408,note_on,,,,,64,0,12,,,,,5,,,39,100
129536,note_off,,,,,128,0,13,,,,,6,,,66,100
129536,note_off,,,,,128,0,11,,,,,4,,,51,100
129536,note_off,,,,,128,0,12,,,,,5,,,39,100
129536,note_off,,,,,0,0,13,,,,,6,,,69,100
129536,note_off,,,,,128,0,14,,,,,6,,,51,100
129600,note_on,,,,,64,0,12,,,,,5,,,39,100
129600,note_on,,,,,64,0,13,,,,,6,,,66,100
129600,note_on,,,,,0,0,13,,,,,6,,,69,100
129600,note_on,,,,,64,0,11,,,,,4,,,51,100
129600,note_on,,,,,64,0,14,,,,,6,,,51,100
129728,note_off,,,,,128,0,12,,,,,5,,,39,100
129728,note_off,,,,,128,0,14,,,,,6,,,51,100
129728,note_off,,,,,128,0,11,,,,,4,,,51,100
129728,note_off,,,,,128,0,13,,,,,6,,,66,100
129728,note_off,,,,,0,0,13,,,,,6,,,69,100
129792,note_on,,,,,64,0,14,,,,,6,,,47,100
129792,note_on,,,,,64,0,13,,,,,6,,,66,100
129792,note_on,,,,,64,0,11,,,,,4,,,47,100
129792,note_on,,,,,64,0,12,,,,,5,,,35,100
129792,note_on,,,,,0,0,13,,,,,6,,,69,100
129920,note_off,,,,,128,0,12,,,,,5,,,35,100
129920,note_off,,,,,128,0,11,,,,,4,,,47,100
129920,note_off,,,,,128,0,14,,,,,6,,,47,100
129920,note_off,,,,,128,0,13,,,,,6,,,66,100
129920,note_off,,,,,0,0,13,,,,,6,,,69,100
129984,note_on,,,,,64,0,13,,,,,6,,,66,100
129984,note_on,,,,,0,0,13,,,,,6,,,69,100
129984,note_on,,,,,64,0,14,,,,,6,,,47,100
129984,note_on,,,,,64,0,12,,,,,5,,,35,100
129984,note_on,,,,,64,0,11,,,,,4,,,47,100
130112,note_off,,,,,0,0,13,,,,,6,,,69,100
130112,note_off,,,,,128,0,13,,,,,6,,,66,100
130112,note_off,,,,,128,0,14,,,,,6,,,47,100
130112,note_off,,,,,128,0,12,,,,,5,,,35,100
130112,note_off,,,,,128,0,11,,,,,4,,,47,100
130176,note_on,,,,,848,0,7,,,,,0,,,59,100
130176,note_on,,,,,0,0,7,,,,,0,,,66,100
130176,note_on,,,,,896,0,9,,,,,2,,,78,100
130176,note_on,,,,,896,0,8,,,,,1,,,81,100
130176,note_on,,,,,64,0,12,,,,,5,,,42,100
130176,note_on,,,,,896,0,10,,,,,3,,,75,100
130176,note_on,,,,,64,0,13,,,,,6,,,75,100
130176,note_on,,,,,0,0,13,,,,,6,,,69,100
130176,note_on,,,,,64,0,11,,,,,4,,,54,100
130176,note_on,,,,,64,0,14,,,,,6,,,54,100
130220,note_off,,,,,0,0,7,,,,,0,,,66,100
130220,note_off,,,,,44,0,7,,,,,0,,,59,100
130224,note_on,,,,,0,0,7,,,,,0,,,75,100
130224,note_on,,,,,4,0,7,,,,,0,,,81,100
130304,note_off,,,,,128,0,12,,,,,5,,,42,100
130304,note_off,,,,,0,0,13,,,,,6,,,69,100
130304,note_off,,,,,128,0,14,,,,,6,,,54,100
130304,note_off,,,,,128,0,11,,,,,4,,,54,100
130304,note_off,,,,,128,0,13,,,,,6,,,75,100
130368,note_on,,,,,64,0,12,,,,,5,,,42,100
130368,note_on,,,,,64,0,13,,,,,6,,,75,100
130368,note_on,,,,,64,0,14,,,,,6,,,54,100
130368,note_on,,,,,0,0,13,,,,,6,,,69,100
130368,note_on,,,,,64,0,11,,,,,4,,,54,100
130432,note_off,,,,,256,0,10,,,,,3,,,75,100
130432,note_off,,,,,256,0,9,,,,,2,,,78,100
130432,note_off,,,,,256,0,8,,,,,1,,,81,100
130480,note_off,,,,,0,0,7,,,,,0,,,75,100
130480,note_off,,,,,256,0,7,,,,,0,,,81,100
130496,note_off,,,,,0,0,13,,,,,6,,,69,100
130496,note_off,,,,,128,0,14,,,,,6,,,54,100
130496,note_off,,,,,128,0,13,,,,,6,,,75,100
130496,note_off,,,,,128,0,11,,,,,4,,,54,100
130496,note_off,,,,,128,0,12,,,,,5,,,42,100
130560,note_on,,,,,64,0,13,,,,,6,,,66,100
130560,note_on,,,,,0,0,13,,,,,6,,,69,100
130560,note_on,,,,,64,0,11,,,,,4,,,51,100
130560,note_on,,,,,64,0,12,,,,,5,,,39,100
130560,note_on,,,,,64,0,14,,,,,6,,,51,100
130688,note_off,,,,,128,0,13,,,,,6,,,66,100
130688,note_off,,,,,0,0,13,,,,,6,,,69,100
130688,note_off,,,,,128,0,12,,,,,5,,,39,100
130688,note_off,,,,,128,0,14,,,,,6,,,51,100
130688,note_off,,,,,128,0,11,,,,,4,,,51,100
130752,note_on,,,,,64,0,11,,,,,4,,,51,100
130752,note_on,,,,,64,0,12,,,,,5,,,39,100
130752,note_on,,,,,64,0,14,,,,,6,,,51,100
130752,note_on,,,,,64,0,13,,,,,6,,,66,100
130752,note_on,,,,,0,0,13,,,,,6,,,69,100
130880,note_off,,,,,128,0,11,,,,,4,,,51,100
130880,note_off,,,,,0,0,13,,,,,6,,,69,100
130880,note_off,,,,,128,0,13,,,,,6,,,66,100
130880,note_off,,,,,128,0,12,,,,,5,,,39,100
130880,note_off,,,,,128,0,14,,,,,6,,,51,100
130944,note_on,,,,,0,0,13,,,,,6,,,69,100
130944,note_on,,,,,64,0,12,,,,,5,,,35,100
130944,note_on,,,,,64,0,14,,,,,6,,,47,100
130944,note_on,,,,,64,0,13,,,,,6,,,66,100
130944,note_on,,,,,64,0,11,,,,,4,,,47,100
131072,note_off,,,,,128,0,12,,,,,5,,,35,100
131072,note_off,,,,,128,0,14,,,,,6,,,47,100
131072,note_off,,,,,128,0,13,,,,,6,,,66,100
131072,note_off,,,,,128,0,11,,,,,4,,,47,100
131072,note_off,,,,,0,0,13,,,,,6,,,69,100
131136,note_on,,,,,64,0,14,,,,,6,,,47,100
131136,note_on,,,,,64,0,13,,,,,6,,,66,100
131136,note_on,,,,,0,0,13,,,,,6,,,69,100
131136,note_on,,,,,64,0,12,,,,,5,,,35,100
131136,note_on,,,,,64,0,11,,,,,4,,,47,100
131264,note_off,,,,,128,0,14,,,,,6,,,47,100
131264,note_off,,,,,128,0,12,,,,,5,,,35,100
131264,note_off,,,,,128,0,11,,,,,4,,,47,100
131264,note_off,,,,,128,0,13,,,,,6,,,66,100
131264,note_off,,,,,0,0,13,,,,,6,,,69,100
131328,note_on,,,,,848,0,7,,,,,0,,,64,100
131328,note_on,,,,,64,0,12,,,,,5,,,40,100
131328,note_on,,,,,896,0,8,,,,,1,,,80,100
131328,note_on,,,,,64,0,13,,,,,6,,,68,100
131328,note_on,,,,,64,0,11,,,,,4,,,52,100
131328,note_on,,,,,896,0,10,,,,,3,,,71,100
131328,note_on,,,,,0,0,13,,,,,6,,,71,100
131328,note_on,,,,,64,0,14,,,,,6,,,52,100
131328,note_on,,,,,896,0,9,,,,,2,,,80,100
131328,note_on,,,,,0,0,7,,,,,0,,,71,100
131360,note_off,,,,,32,0,7,,,,,0,,,64,100
131376,note_on,,,,,16,0,7,,,,,0,,,80,100
131708,note_off,,,,,332,0,7,,,,,0,,,80,100
131712,note_off,,,,,384,0,13,,,,,6,,,68,100
131712,note_off,,,,,0,0,13,,,,,6,,,71,100
131712,note_off,,,,,384,0,8,,,,,1,,,80,100
131712,note_off,,,,,384,0,11,,,,,4,,,52,100
131712,note_off,,,,,384,0,14,,,,,6,,,52,100
131712,note_off,,,,,384,0,12,,,,,5,,,40,100
131712,note_off,,,,,384,0,10,,,,,3,,,71,100
131712,note_off,,,,,384,0,9,,,,,2,,,80,100
131840,note_off,,,,,132,0,7,,,,,0,,,71,64
131904,note_on,,,,,0,0,13,,,,,6,,,73,100
131904,note_on,,,,,192,0,12,,,,,5,,,42,100
131904,note_on,,,,,192,0,9,,,,,2,,,81,100
131904,note_on,,,,,192,0,13,,,,,6,,,69,100
131904,note_on,,,,,192,0,11,,,,,4,,,54,100
131904,note_on,,,,,192,0,10,,,,,3,,,69,100
131904,note_on,,,,,192,0,14,,,,,6,,,54,100
131904,note_on,,,,,192,0,8,,,,,1,,,78,100
132032,note_off,,,,,0,0,13,,,,,6,,,73,100
132032,note_off,,,,,128,0,14,,,,,6,,,54,100
132032,note_off,,,,,128,0,13,,,,,6,,,69,100
132032,note_off,,,,,128,0,10,,,,,3,,,69,100
132032,note_off,,,,,128,0,11,,,,,4,,,54,100
132032,note_off,,,,,128,0,8,,,,,1,,,78,100
132032,note_off,,,,,128,0,12,,,,,5,,,42,100
132032,note_off,,,,,128,0,9,,,,,2,,,81,100
132096,note_on,,,,,64,0,13,,,,,6,,,64,100
132096,note_on,,,,,64,0,8,,,,,1,,,76,100
132096,note_on,,,,,64,0,10,,,,,3,,,68,100
132096,note_on,,,,,64,0,11,,,,,4,,,56,100
132096,note_on,,,,,64,0,9,,,,,2,,,83,100
132096,note_on,,,,,0,0,13,,,,,6,,,71,100
132096,note_on,,,,,64,0,14,,,,,6,,,56,100
132096,note_on,,,,,0,0,13,,,,,6,,,76,100
132096,note_on,,,,,64,0,12,,,,,5,,,44,100
132352,note_off,,,,,256,0,9,,,,,2,,,83,100
132352,note_off,,,,,256,0,12,,,,,5,,,44,100
132352,note_off,,,,,256,0,14,,,,,6,,,56,100
132352,note_off,,,,,256,0,10,,,,,3,,,68,100
132352,note_off,,,,,0,0,13,,,,,6,,,76,100
132352,note_off,,,,,0,0,13,,,,,6,,,71,100
132352,note_off,,,,,256,0,8,,,,,1,,,76,100
132352,note_off,,,,,256,0,11,,,,,4,,,56,100
132352,note_off,,,,,256,0,13,,,,,6,,,64,100
132480,note_on,,,,,128,0,11,,,,,4,,,57,100
132480,note_on,,,,,128,0,13,,,,,6,,,66,100
132480,note_on,,,,,0,0,13,,,,,6,,,76,100
132480,note_on,,,,,128,0,14,,,,,6,,,57,100
132480,note_on,,,,,128,0,12,,,,,5,,,45,100
132480,note_on,,,,,128,0,9,,,,,2,,,81,100
132480,note_on,,,,,128,0,8,,,,,1,,,76,100
132480,note_on,,,,,128,0,10,,,,,3,,,66,100
132608,note_off,,,,,128,0,9,,,,,2,,,81,100
132672,note_on,,,,,64,0,9,,,,,2,,,80,100
132736,note_off,,,,,0,0,13,,,,,6,,,76,100
132736,note_off,,,,,256,0,11,,,,,4,,,57,100
132736,note_off,,,,,256,0,14,,,,,6,,,57,100
132736,note_off,,,,,256,0,12,,,,,5,,,45,100
132736,note_off,,,,,256,0,8,,,,,1,,,76,100
132736,note_off,,,,,256,0,13,,,,,6,,,66,100
132800,note_off,,,,,128,0,9,,,,,2,,,80,100
132864,note_on,,,,,128,0,8,,,,,1,,,71,100
132864,note_on,,,,,64,0,9,,,,,2,,,80,100
132864,note_on,,,,,128,0,11,,,,,4,,,59,100
132864,note_on,,,,,128,0,12,,,,,5,,,47,100
132864,note_on,,,,,128,0,14,,,,,6,,,59,100
132864,note_on,,,,,128,0,13,,,,,6,,,71,100
132864,note_on,,,,,0,0,13,,,,,6,,,66,100
132864,note_on,,,,,0,0,13,,,,,6,,,75,100
132956,note_off,,,,,92,0,9,,,,,2,,,80,100
132960,note_on,,,,,4,0,9,,,,,2,,,78,100
132992,note_off,,,,,512,0,10,,,,,3,,,66,100
133052,note_off,,,,,92,0,9,,,,,2,,,78,100
133056,note_on,,,,,4,0,9,,,,,2,,,80,100
133116,note_off,,,,,60,0,9,,,,,2,,,80,100
133120,note_off,,,,,256,0,11,,,,,4,,,59,100
133120,note_on,,,,,4,0,9,,,,,2,,,78,100
133120,note_off,,,,,256,0,12,,,,,5,,,47,100
133120,note_off,,,,,0,0,13,,,,,6,,,66,100
133120,note_off,,,,,256,0,13,,,,,6,,,71,100
133120,note_off,,,,,256,0,14,,,,,6,,,59,100
133120,note_off,,,,,256,0,8,,,,,1,,,71,100
133120,note_off,,,,,0,0,13,,,,,6,,,75,100
133180,note_off,,,,,60,0,9,,,,,2,,,78,100
133184,note_on,,,,,4,0,9,,,,,2,,,80,100
133244,note_off,,,,,60,0,9,,,,,2,,,80,100
133248,note_on,,,,,0,0,13,,,,,6,,,66,100
133248,note_on,,,,,128,0,12,,,,,5,,,35,100
133248,note_on,,,,,128,0,11,,,,,4,,,47,100
133248,note_on,,,,,128,0,8,,,,,1,,,75,100
133248,note_on,,,,,4,0,9,,,,,2,,,78,100
133248,note_on,,,,,128,0,13,,,,,6,,,71,100
133248,note_on,,,,,256,0,10,,,,,3,,,71,100
133248,note_on,,,,,128,0,14,,,,,6,,,47,100
133248,note_on,,,,,0,0,13,,,,,6,,,75,100
133376,note_off,,,,,128,0,9,,,,,2,,,78,100
133440,note_on,,,,,64,0,9,,,,,2,,,76,96
133504,note_off,,,,,256,0,10,,,,,3,,,71,100
133504,note_off,,,,,256,0,14,,,,,6,,,47,100
133504,note_off,,,,,0,0,13,,,,,6,,,75,100
133504,note_off,,,,,256,0,13,,,,,6,,,71,100
133504,note_off,,,,,256,0,11,,,,,4,,,47,100
133504,note_off,,,,,256,0,12,,,,,5,,,35,100
133504,note_off,,,,,256,0,8,,,,,1,,,75,100
133504,note_off,,,,,0,0,13,,,,,6,,,66,100
133568,note_off,,,,,128,0,9,,,,,2,,,76,100
133632,note_on,,,,,64,0,9,,,,,2,,,76,91
133632,note_on,,,,,0,0,13,,,,,6,,,68,100
133632,note_on,,,,,128,0,8,,,,,1,,,76,91
133632,note_on,,,,,128,0,14,,,,,6,,,52,91
133632,note_on,,,,,0,0,13,,,,,6,,,71,100
133632,note_on,,,,,128,0,11,,,,,4,,,52,91
133632,note_on,,,,,128,0,13,,,,,6,,,76,100
133632,note_on,,,,,128,0,12,,,,,5,,,40,91
133632,note_on,,,,,128,0,10,,,,,3,,,68,91
133760,note_off,,,,,128,0,12,,,,,5,,,40,100
133760,note_off,,,,,0,0,13,,,,,6,,,68,100
133760,note_off,,,,,0,0,13,,,,,6,,,71,100
133760,note_off,,,,,128,0,13,,,,,6,,,76,100
133760,note_off,,,,,128,0,8,,,,,1,,,76,100
133760,note_off,,,,,128,0,14,,,,,6,,,52,100
133760,note_off,,,,,128,0,11,,,,,4,,,52,100
133824,note_on,,,,,0,0,13,,,,,6,,,68,100
133824,note_on,,,,,64,0,14,,,,,6,,,52,90
133824,note_on,,,,,64,0,8,,,,,1,,,76,90
133824,note_on,,,,,64,0,11,,,,,4,,,52,90
133824,note_on,,,,,64,0,12,,,,,5,,,40,90
133824,note_on,,,,,64,0,13,,,,,6,,,71,100
133888,note_off,,,,,256,0,10,,,,,3,,,68,100
133888,note_off,,,,,256,0,9,,,,,2,,,76,100
133952,note_off,,,,,128,0,13,,,,,6,,,71,100
133952,note_off,,,,,0,0,13,,,,,6,,,68,100
133952,note_off,,,,,128,0,11,,,,,4,,,52,100
133952,note_off,,,,,128,0,14,,,,,6,,,52,100
133952,note_off,,,,,128,0,8,,,,,1,,,76,100
133952,note_off,,,,,128,0,12,,,,,5,,,40,100
134016,note_on,,,,,64,0,12,,,,,5,,,40,92
134016,note_on,,,,,64,0,8,,,,,1,,,71,92
134016,note_on,,,,,64,0,11,,,,,4,,,52,92
134016,note_on,,,,,0,0,13,,,,,6,,,68,100
134016,note_on,,,,,64,0,13,,,,,6,,,71,100
134016,note_on,,,,,128,0,9,,,,,2,,,76,92
134016,note_on,,,,,64,0,14,,,,,6,,,52,92
134144,note_off,,,,,128,0,14,,,,,6,,,52,100
134144,note_off,,,,,128,0,8,,,,,1,,,71,100
134144,note_off,,,,,128,0,12,,,,,5,,,40,100
134144,note_off,,,,,128,0,11,,,,,4,,,52,100
134144,note_off,,,,,128,0,9,,,,,2,,,76,100
134144,note_off,,,,,0,0,13,,,,,6,,,68,100
134144,note_off,,,,,128,0,13,,,,,6,,,71,100
134208,note_on,,,,,64,0,12,,,,,5,,,40,94
134208,note_on,,,,,0,0,13,,,,,6,,,68,100
134208,note_on,,,,,64,0,13,,,,,6,,,71,100
134208,note_on,,,,,64,0,8,,,,,1,,,71,94
134208,note_on,,,,,64,0,14,,,,,6,,,52,94
134208,note_on,,,,,64,0,11,,,,,4,,,52,94
134208,note_on,,,,,64,0,9,,,,,2,,,76,94
134336,note_off,,,,,128,0,9,,,,,2,,,76,100
134336,note_off,,,,,128,0,11,,,,,4,,,52,100
134336,note_off,,,,,128,0,12,,,,,5,,,40,100
134336,note_off,,,,,128,0,14,,,,,6,,,52,100
134336,note_off,,,,,128,0,13,,,,,6,,,71,100
134336,note_off,,,,,0,0,13,,,,,6,,,68,100
134336,note_off,,,,,128,0,8,,,,,1,,,71,100
134400,note_on,,,,,64,0,11,,,,,4,,,52,96
134400,note_on,,,,,64,0,9,,,,,2,,,71,96
134400,note_on,,,,,64,0,14,,,,,6,,,52,96
134400,note_on,,,,,64,0,12,,,,,5,,,40,96
134400,note_on,,,,,0,0,13,,,,,6,,,68,100
134400,note_on,,,,,64,0,13,,,,,6,,,71,100
134400,note_on,,,,,64,0,8,,,,,1,,,68,96
134400,note_on,,,,,512,0,10,,,,,3,,,64,96
134528,note_off,,,,,0,0,13,,,,,6,,,68,100
134528,note_off,,,,,128,0,13,,,,,6,,,71,100
134528,note_off,,,,,128,0,10,,,,,3,,,64,100
134528,note_off,,,,,128,0,9,,,,,2,,,71,100
134528,note_off,,,,,128,0,11,,,,,4,,,52,100
134528,note_off,,,,,128,0,8,,,,,1,,,68,100
134528,note_off,,,,,128,0,12,,,,,5,,,40,100
134528,note_off,,,,,128,0,14,,,,,6,,,52,100
134592,note_on,,,,,64,0,12,,,,,5,,,40,99
134592,note_on,,,,,64,0,8,,,,,1,,,68,99
134592,note_on,,,,,64,0,13,,,,,6,,,71,100
134592,note_on,,,,,64,0,10,,,,,3,,,64,99
134592,note_on,,,,,0,0,13,,,,,6,,,68,100
134592,note_on,,,,,64,0,11,,,,,4,,,52,99
134592,note_on,,,,,64,0,9,,,,,2,,,71,99
134592,note_on,,,,,64,0,14,,,,,6,,,52,99
134720,note_off,,,,,128,0,10,,,,,3,,,64,100
134720,note_off,,,,,128,0,11,,,,,4,,,52,100
134720,note_off,,,,,128,0,8,,,,,1,,,68,100
134720,note_off,,,,,128,0,12,,,,,5,,,40,100
134720,note_off,,,,,128,0,14,,,,,6,,,52,100
134720,note_off,,,,,0,0,13,,,,,6,,,68,100
134720,note_off,,,,,128,0,13,,,,,6,,,71,100
134720,note_off,,,,,128,0,9,,,,,2,,,71,100
134784,note_on,,,,,64,0,9,,,,,2,,,71,101
134784,note_on,,,,,0,0,13,,,,,6,,,68,100
134784,note_on,,,,,64,0,8,,,,,1,,,80,101
134784,note_on,,,,,64,0,13,,,,,6,,,76,100
134784,note_on,,,,,64,0,11,,,,,4,,,52,101
134784,note_on,,,,,64,0,10,,,,,3,,,64,101
134784,note_on,,,,,64,0,14,,,,,6,,,52,101
134784,note_on,,,,,64,0,12,,,,,5,,,40,101
134912,note_off,,,,,0,0,13,,,,,6,,,68,100
134912,note_off,,,,,128,0,13,,,,,6,,,76,100
134912,note_off,,,,,128,0,8,,,,,1,,,80,100
134912,note_off,,,,,128,0,11,,,,,4,,,52,100
134912,note_off,,,,,128,0,12,,,,,5,,,40,100
134912,note_off,,,,,128,0,10,,,,,3,,,64,100
134912,note_off,,,,,128,0,9,,,,,2,,,71,100
134912,note_off,,,,,128,0,14,,,,,6,,,52,100
134976,note_on,,,,,0,0,13,,,,,6,,,68,100
134976,note_on,,,,,64,0,13,,,,,6,,,76,100
134976,note_on,,,,,64,0,12,,,,,5,,,40,103
134976,note_on,,,,,64,0,11,,,,,4,,,52,103
134976,note_on,,,,,64,0,8,,,,,1,,,80,103
134976,note_on,,,,,64,0,10,,,,,3,,,64,103
134976,note_on,,,,,64,0,9,,,,,2,,,71,103
134976,note_on,,,,,64,0,14,,,,,6,,,52,103
135104,note_off,,,,,128,0,11,,,,,4,,,52,100
135104,note_off,,,,,128,0,10,,,,,3,,,64,100
135104,note_off,,,,,128,0,12,,,,,5,,,40,100
135104,note_off,,,,,128,0,14,,,,,6,,,52,100
135104,note_off,,,,,0,0,13,,,,,6,,,68,100
135104,note_off,,,,,128,0,8,,,,,1,,,80,100
135104,note_off,,,,,128,0,9,,,,,2,,,71,100
135104,note_off,,,,,128,0,13,,,,,6,,,76,100
135168,note_on,,,,,64,0,11,,,,,4,,,52,105
135168,note_on,,,,,64,0,14,,,,,6,,,52,105
135168,note_on,,,,,64,0,13,,,,,6,,,76,100
135168,note_on,,,,,64,0,12,,,,,5,,,40,105
135168,note_on,,,,,0,0,13,,,,,6,,,68,100
135168,note_on,,,,,64,0,9,,,,,2,,,80,105
135168,note_on,,,,,64,0,10,,,,,3,,,59,105
135168,note_on,,,,,64,0,8,,,,,1,,,76,105
135296,note_off,,,,,128,0,9,,,,,2,,,80,100
135296,note_off,,,,,128,0,14,,,,,6,,,52,100
135296,note_off,,,,,128,0,12,,,,,5,,,40,100
135296,note_off,,,,,128,0,8,,,,,1,,,76,100
135296,note_off,,,,,128,0,13,,,,,6,,,76,100
135296,note_off,,,,,0,0,13,,,,,6,,,68,100
135296,note_off,,,,,128,0,11,,,,,4,,,52,100
135296,note_off,,,,,128,0,10,,,,,3,,,59,100
135360,note_on,,,,,64,0,13,,,,,6,,,76,100
135360,note_on,,,,,0,0,13,,,,,6,,,68,100
135360,note_on,,,,,64,0,12,,,,,5,,,40,108
135360,note_on,,,,,64,0,9,,,,,2,,,80,108
135360,note_on,,,,,64,0,10,,,,,3,,,59,108
135360,note_on,,,,,64,0,8,,,,,1,,,76,108
135360,note_on,,,,,64,0,14,,,,,6,,,52,108
135360,note_on,,,,,64,0,11,,,,,4,,,52,108
135488,note_off,,,,,128,0,12,,,,,5,,,40,100
135488,note_off,,,,,0,0,13,,,,,6,,,68,100
135488,note_off,,,,,128,0,10,,,,,3,,,59,100
135488,note_off,,,,,128,0,9,,,,,2,,,80,100
135488,note_off,,,,,128,0,13,,,,,6,,,76,100
135488,note_off,,,,,128,0,8,,,,,1,,,76,100
135488,note_off,,,,,128,0,11,,,,,4,,,52,100
135488,note_off,,,,,128,0,14,,,,,6,,,52,100
135552,note_on,,,,,64,0,13,,,,,6,,,76,100
135552,note_on,,,,,0,0,13,,,,,6,,,68,100
135552,note_on,,,,,64,0,12,,,,,5,,,40,110
135552,note_on,,,,,64,0,8,,,,,1,,,71,110
135552,note_on,,,,,64,0,11,,,,,4,,,52,110
135552,note_on,,,,,64,0,10,,,,,3,,,68,110
135552,note_on,,,,,64,0,14,,,,,6,,,52,110
135552,note_on,,,,,64,0,9,,,,,2,,,76,110
135680,note_off,,,,,128,0,9,,,,,2,,,76,100
135680,note_off,,,,,128,0,11,,,,,4,,,52,100
135680,note_off,,,,,128,0,14,,,,,6,,,52,100
135680,note_off,,,,,128,0,13,,,,,6,,,76,100
135680,note_off,,,,,128,0,12,,,,,5,,,40,100
135680,note_off,,,,,128,0,8,,,,,1,,,71,100
135680,note_off,,,,,0,0,13,,,,,6,,,68,100
135680,note_off,,,,,128,0,10,,,,,3,,,68,100
135744,note_on,,,,,64,0,14,,,,,6,,,52,112
135744,note_on,,,,,64,0,12,,,,,5,,,40,112
135744,note_on,,,,,64,0,8,,,,,1,,,71,112
135744,note_on,,,,,64,0,13,,,,,6,,,76,100
135744,note_on,,,,,64,0,11,,,,,4,,,52,112
135744,note_on,,,,,64,0,9,,,,,2,,,76,112
135744,note_on,,,,,0,0,13,,,,,6,,,68,100
135744,note_on,,,,,64,0,10,,,,,3,,,68,112
135872,note_off,,,,,128,0,10,,,,,3,,,68,100
135872,note_off,,,,,128,0,9,,,,,2,,,76,100
135872,note_off,,,,,128,0,11,,,,,4,,,52,100
135872,note_off,,,,,0,0,13,,,,,6,,,68,100
135872,note_off,,,,,128,0,12,,,,,5,,,40,100
135872,note_off,,,,,128,0,13,,,,,6,,,76,100
135872,note_off,,,,,128,0,14,,,,,6,,,52,100
135872,note_off,,,,,128,0,8,,,,,1,,,71,100
135936,note_on,,,,,64,0,14,,,,,6,,,52,114
135936,note_on,,,,,64,0,10,,,,,3,,,68,114
135936,note_on,,,,,64,0,11,,,,,4,,,52,114
135936,note_on,,,,,64,0,13,,,,,6,,,71,100
135936,note_on,,,,,64,0,8,,,,,1,,,83,114
135936,note_on,,,,,64,0,9,,,,,2,,,76,114
135936,note_on,,,,,64,0,12,,,,,5,,,40,114
135936,note_on,,,,,0,0,13,,,,,6,,,76,100
136064,note_off,,,,,0,0,13,,,,,6,,,76,100
136064,note_off,,,,,128,0,13,,,,,6,,,71,100
136064,note_off,,,,,128,0,8,,,,,1,,,83,100
136064,note_off,,,,,128,0,11,,,,,4,,,52,100
136064,note_off,,,,,128,0,14,,,,,6,,,52,100
136064,note_off,,,,,128,0,12,,,,,5,,,40,100
136064,note_off,,,,,128,0,10,,,,,3,,,68,100
136064,note_off,,,,,128,0,9,,,,,2,,,76,100
136128,note_on,,,,,64,0,10,,,,,3,,,68,115
136128,note_on,,,,,64,0,8,,,,,1,,,83,115
136128,note_on,,,,,64,0,12,,,,,5,,,40,115
136128,note_on,,,,,0,0,13,,,,,6,,,76,100
136128,note_on,,,,,64,0,14,,,,,6,,,52,115
136128,note_on,,,,,64,0,11,,,,,4,,,52,115
136128,note_on,,,,,64,0,13,,,,,6,,,71,100
136128,note_on,,,,,64,0,9,,,,,2,,,76,115
136256,note_off,,,,,128,0,11,,,,,4,,,52,100
136256,note_off,,,,,128,0,13,,,,,6,,,71,100
136256,note_off,,,,,128,0,14,,,,,6,,,52,100
136256,note_off,,,,,128,0,10,,,,,3,,,68,100
136256,note_off,,,,,128,0,12,,,,,5,,,40,100
136256,note_off,,,,,0,0,13,,,,,6,,,76,100
136256,note_off,,,,,128,0,8,,,,,1,,,83,100
136256,note_off,,,,,128,0,9,,,,,2,,,76,100
136320,note_on,,,,,64,0,12,,,,,5,,,40,115
136320,note_on,,,,,64,0,13,,,,,6,,,71,100
136320,note_on,,,,,64,0,10,,,,,3,,,64,115
136320,note_on,,,,,64,0,9,,,,,2,,,83,115
136320,note_on,,,,,64,0,11,,,,,4,,,52,115
136320,note_on,,,,,64,0,14,,,,,6,,,52,115
136320,note_on,,,,,64,0,8,,,,,1,,,80,115
136320,note_on,,,,,0,0,13,,,,,6,,,76,100
136448,note_off,,,,,128,0,10,,,,,3,,,64,100
136448,note_off,,,,,128,0,13,,,,,6,,,71,100
136448,note_off,,,,,128,0,14,,,,,6,,,52,100
136448,note_off,,,,,128,0,12,,,,,5,,,40,100
136448,note_off,,,,,128,0,9,,,,,2,,,83,100
136448,note_off,,,,,128,0,11,,,,,4,,,52,100
136448,note_off,,,,,0,0,13,,,,,6,,,76,100
136448,note_off,,,,,128,0,8,,,,,1,,,80,100
136512,note_on,,,,,64,0,14,,,,,6,,,52,114
136512,note_on,,,,,64,0,12,,,,,5,,,40,114
136512,note_on,,,,,64,0,10,,,,,3,,,64,114
136512,note_on,,,,,64,0,8,,,,,1,,,80,114
136512,note_on,,,,,64,0,9,,,,,2,,,83,114
136512,note_on,,,,,64,0,11,,,,,4,,,52,114
136512,note_on,,,,,0,0,13,,,,,6,,,76,100
136512,note_on,,,,,64,0,13,,,,,6,,,71,100
136640,note_off,,,,,128,0,8,,,,,1,,,80,100
136640,note_off,,,,,0,0,13,,,,,6,,,76,100
136640,note_off,,,,,128,0,13,,,,,6,,,71,100
136640,note_off,,,,,128,0,12,,,,,5,,,40,100
136640,note_off,,,,,128,0,14,,,,,6,,,52,100
136640,note_off,,,,,128,0,11,,,,,4,,,52,100
136640,note_off,,,,,128,0,9,,,,,2,,,83,100
136640,note_off,,,,,128,0,10,,,,,3,,,64,100
136704,note_on,,,,,64,0,11,,,,,4,,,52,113
136704,note_on,,,,,64,0,9,,,,,2,,,80,113
136704,note_on,,,,,64,0,12,,,,,5,,,40,113
136704,note_on,,,,,64,0,14,,,,,6,,,52,113
136704,note_on,,,,,64,0,8,,,,,1,,,76,113
136704,note_on,,,,,64,0,10,,,,,3,,,71,113
136704,note_on,,,,,0,0,13,,,,,6,,,76,100
136704,note_on,,,,,64,0,13,,,,,6,,,71,100
136832,note_off,,,,,128,0,11,,,,,4,,,52,100
136832,note_off,,,,,128,0,9,,,,,2,,,80,100
136832,note_off,,,,,0,0,13,,,,,6,,,76,100
136832,note_off,,,,,128,0,13,,,,,6,,,71,100
136832,note_off,,,,,128,0,8,,,,,1,,,76,100
136832,note_off,,,,,128,0,10,,,,,3,,,71,100
136832,note_off,,,,,128,0,14,,,,,6,,,52,100
136832,note_off,,,,,128,0,12,,,,,5,,,40,100
136896,note_on,,,,,64,0,10,,,,,3,,,71,112
136896,note_on,,,,,64,0,14,,,,,6,,,52,112
136896,note_on,,,,,64,0,13,,,,,6,,,71,100
136896,note_on,,,,,0,0,13,,,,,6,,,76,100
136896,note_on,,,,,64,0,9,,,,,2,,,80,112
136896,note_on,,,,,64,0,12,,,,,5,,,40,112
136896,note_on,,,,,64,0,11,,,,,4,,,52,112
136896,note_on,,,,,64,0,8,,,,,1,,,76,112
137024,note_off,,,,,128,0,14,,,,,6,,,52,100
137024,note_off,,,,,128,0,10,,,,,3,,,71,100
137024,note_off,,,,,0,0,13,,,,,6,,,76,100
137024,note_off,,,,,128,0,12,,,,,5,,,40,100
137024,note_off,,,,,128,0,13,,,,,6,,,71,100
137024,note_off,,,,,128,0,8,,,,,1,,,76,100
137024,note_off,,,,,128,0,11,,,,,4,,,52,100
137024,note_off,,,,,128,0,9,,,,,2,,,80,100
137088,note_on,,,,,64,0,9,,,,,2,,,76,111
137088,note_on,,,,,64,0,13,,,,,6,,,76,100
137088,note_on,,,,,64,0,12,,,,,5,,,40,111
137088,note_on,,,,,0,0,13,,,,,6,,,68,100
137088,note_on,,,,,64,0,8,,,,,1,,,80,111
137088,note_on,,,,,64,0,11,,,,,4,,,52,111
137088,note_on,,,,,64,0,10,,,,,3,,,71,111
137088,note_on,,,,,64,0,14,,,,,6,,,52,111
137216,note_off,,,,,128,0,13,,,,,6,,,76,100
137216,note_off,,,,,0,0,13,,,,,6,,,68,100
137216,note_off,,,,,128,0,14,,,,,6,,,52,100
137216,note_off,,,,,128,0,12,,,,,5,,,40,100
137216,note_off,,,,,128,0,11,,,,,4,,,52,100
137216,note_off,,,,,128,0,10,,,,,3,,,71,100
137216,note_off,,,,,128,0,8,,,,,1,,,80,100
137216,note_off,,,,,128,0,9,,,,,2,,,76,100
137280,note_on,,,,,64,0,9,,,,,2,,,76,109
137280,note_on,,,,,0,0,13,,,,,6,,,68,100
137280,note_on,,,,,64,0,13,,,,,6,,,76,100
137280,note_on,,,,,64,0,14,,,,,6,,,52,109
137280,note_on,,,,,64,0,8,,,,,1,,,80,109
137280,note_on,,,,,64,0,12,,,,,5,,,40,109
137280,note_on,,,,,64,0,11,,,,,4,,,52,109
137280,note_on,,,,,64,0,10,,,,,3,,,71,109
137408,note_off,,,,,128,0,14,,,,,6,,,52,100
137408,note_off,,,,,128,0,9,,,,,2,,,76,100
137408,note_off,,,,,128,0,10,,,,,3,,,71,100
137408,note_off,,,,,128,0,8,,,,,1,,,80,100
137408,note_off,,,,,0,0,13,,,,,6,,,68,100
137408,note_off,,,,,128,0,13,,,,,6,,,76,100
137408,note_off,,,,,128,0,11,,,,,4,,,52,100
137408,note_off,,,,,128,0,12,,,,,5,,,40,100
137472,note_on,,,,,64,0,12,,,,,5,,,40,108
137472,note_on,,,,,64,0,8,,,,,1,,,76,108
137472,note_on,,,,,64,0,14,,,,,6,,,52,108
137472,note_on,,,,,0,0,13,,,,,6,,,68,100
137472,note_on,,,,,64,0,13,,,,,6,,,76,100
137472,note_on,,,,,64,0,11,,,,,4,,,52,108
137472,note_on,,,,,64,0,9,,,,,2,,,80,108
137472,note_on,,,,,64,0,10,,,,,3,,,71,108
137600,note_off,,,,,128,0,12,,,,,5,,,40,100
137600,note_off,,,,,128,0,9,,,,,2,,,80,100
137600,note_off,,,,,128,0,14,,,,,6,,,52,100
137600,note_off,,,,,128,0,10,,,,,3,,,71,100
137600,note_off,,,,,128,0,8,,,,,1,,,76,100
137600,note_off,,,,,128,0,13,,,,,6,,,76,100
137600,note_off,,,,,0,0,13,,,,,6,,,68,100
137600,note_off,,,,,128,0,11,,,,,4,,,52,100
137664,note_on,,,,,64,0,9,,,,,2,,,80,107
137664,note_on,,,,,64,0,10,,,,,3,,,71,107
137664,note_on,,,,,64,0,11,,,,,4,,,52,107
137664,note_on,,,,,0,0,13,,,,,6,,,68,100
137664,note_on,,,,,64,0,13,,,,,6,,,76,100
137664,note_on,,,,,64,0,12,,,,,5,,,40,107
137664,note_on,,,,,64,0,8,,,,,1,,,76,107
137664,note_on,,,,,64,0,14,,,,,6,,,52,107
137792,note_off,,,,,128,0,12,,,,,5,,,40,100
137792,note_off,,,,,128,0,11,,,,,4,,,52,100
137792,note_off,,,,,0,0,13,,,,,6,,,68,100
137792,note_off,,,,,128,0,13,,,,,6,,,76,100
137792,note_off,,,,,128,0,10,,,,,3,,,71,100
137792,note_off,,,,,128,0,9,,,,,2,,,80,100
137792,note_off,,,,,128,0,8,,,,,1,,,76,100
137792,note_off,,,,,128,0,14,,,,,6,,,52,100
137856,note_on,,,,,64,0,10,,,,,3,,,68,106
137856,note_on,,,,,64,0,8,,,,,1,,,71,106
137856,note_on,,,,,64,0,12,,,,,5,,,40,106
137856,note_on,,,,,64,0,11,,,,,4,,,52,106
137856,note_on,,,,,64,0,14,,,,,6,,,52,106
137856,note_on,,,,,64,0,13,,,,,6,,,76,100
137856,note_on,,,,,64,0,9,,,,,2,,,76,106
137856,note_on,,,,,0,0,13,,,,,6,,,68,100
137984,note_off,,,,,128,0,14,,,,,6,,,52,100
137984,note_off,,,,,128,0,8,,,,,1,,,71,100
137984,note_off,,,,,128,0,12,,,,,5,,,40,100
137984,note_off,,,,,128,0,11,,,,,4,,,52,100
137984,note_off,,,,,128,0,13,,,,,6,,,76,100
137984,note_off,,,,,0,0,13,,,,,6,,,68,100
137984,note_off,,,,,128,0,10,,,,,3,,,68,100
137984,note_off,,,,,128,0,9,,,,,2,,,76,100
138048,note_on,,,,,64,0,10,,,,,3,,,68,104
138048,note_on,,,,,0,0,13,,,,,6,,,68,100
138048,note_on,,,,,64,0,13,,,,,6,,,76,100
138048,note_on,,,,,64,0,9,,,,,2,,,76,104
138048,note_on,,,,,64,0,12,,,,,5,,,40,104
138048,note_on,,,,,64,0,14,,,,,6,,,52,104
138048,note_on,,,,,64,0,8,,,,,1,,,71,104
138048,note_on,,,,,64,0,11,,,,,4,,,52,104
138176,note_off,,,,,128,0,14,,,,,6,,,52,100
138176,note_off,,,,,128,0,10,,,,,3,,,68,100
138176,note_off,,,,,128,0,9,,,,,2,,,76,100
138176,note_off,,,,,128,0,11,,,,,4,,,52,100
138176,note_off,,,,,128,0,8,,,,,1,,,71,100
138176,note_off,,,,,128,0,13,,,,,6,,,76,100
138176,note_off,,,,,0,0,13,,,,,6,,,68,100
138176,note_off,,,,,128,0,12,,,,,5,,,40,100
138240,note_on,,,,,64,0,8,,,,,1,,,76,103
138240,note_on,,,,,64,0,14,,,,,6,,,52,103
138240,note_on,,,,,64,0,13,,,,,6,,,71,100
138240,note_on,,,,,0,0,13,,,,,6,,,68,100
138240,note_on,,,,,64,0,10,,,,,3,,,68,103
138240,note_on,,,,,64,0,12,,,,,5,,,40,103
138240,note_on,,,,,64,0,11,,,,,4,,,52,103
138240,note_on,,,,,64,0,9,,,,,2,,,71,103
138368,note_off,,,,,128,0,13,,,,,6,,,71,100
138368,note_off,,,,,128,0,8,,,,,1,,,76,100
138368,note_off,,,,,128,0,12,,,,,5,,,40,100
138368,note_off,,,,,128,0,11,,,,,4,,,52,100
138368,note_off,,,,,128,0,10,,,,,3,,,68,100
138368,note_off,,,,,128,0,14,,,,,6,,,52,100
138368,note_off,,,,,0,0,13,,,,,6,,,68,100
138368,note_off,,,,,128,0,9,,,,,2,,,71,100
138432,note_on,,,,,64,0,12,,,,,5,,,40,102
138432,note_on,,,,,64,0,11,,,,,4,,,52,102
138432,note_on,,,,,64,0,10,,,,,3,,,68,102
138432,note_on,,,,,0,0,13,,,,,6,,,68,100
138432,note_on,,,,,64,0,9,,,,,2,,,71,102
138432,note_on,,,,,64,0,8,,,,,1,,,76,102
138432,note_on,,,,,64,0,13,,,,,6,,,71,100
138432,note_on,,,,,64,0,14,,,,,6,,,52,102
138560,note_off,,,,,128,0,13,,,,,6,,,71,100
138560,note_off,,,,,0,0,13,,,,,6,,,68,100
138560,note_off,,,,,128,0,12,,,,,5,,,40,100
138560,note_off,,,,,128,0,8,,,,,1,,,76,100
138560,note_off,,,,,128,0,11,,,,,4,,,52,100
138560,note_off,,,,,128,0,9,,,,,2,,,71,100
138560,note_off,,,,,128,0,10,,,,,3,,,68,100
138560,note_off,,,,,128,0,14,,,,,6,,,52,100
138624,note_on,,,,,64,0,12,,,,,5,,,40,101
138624,note_on,,,,,64,0,11,,,,,4,,,52,101
138624,note_on,,,,,64,0,9,,,,,2,,,76,101
138624,note_on,,,,,64,0,14,,,,,6,,,52,101
138624,note_on,,,,,64,0,8,,,,,1,,,71,101
138624,note_on,,,,,0,0,13,,,,,6,,,68,100
138624,note_on,,,,,64,0,10,,,,,3,,,68,101
138624,note_on,,,,,64,0,13,,,,,6,,,71,100
138752,note_off,,,,,128,0,11,,,,,4,,,52,100
138752,note_off,,,,,0,0,13,,,,,6,,,68,100
138752,note_off,,,,,128,0,12,,,,,5,,,40,100
138752,note_off,,,,,128,0,13,,,,,6,,,71,100
138752,note_off,,,,,128,0,8,,,,,1,,,71,100
138752,note_off,,,,,128,0,14,,,,,6,,,52,100
138752,note_off,,,,,128,0,10,,,,,3,,,68,100
138752,note_off,,,,,128,0,9,,,,,2,,,76,100
138816,note_on,,,,,64,0,14,,,,,6,,,52,99
138816,note_on,,,,,64,0,9,,,,,2,,,76,99
138816,note_on,,,,,0,0,13,,,,,6,,,68,100
138816,note_on,,,,,64,0,12,,,,,5,,,40,99
138816,note_on,,,,,64,0,10,,,,,3,,,68,99
138816,note_on,,,,,64,0,13,,,,,6,,,71,100
138816,note_on,,,,,64,0,11,,,,,4,,,52,99
138816,note_on,,,,,64,0,8,,,,,1,,,71,99
138944,note_off,,,,,128,0,12,,,,,5,,,40,100
138944,note_off,,,,,128,0,10,,,,,3,,,68,100
138944,note_off,,,,,128,0,8,,,,,1,,,71,100
138944,note_off,,,,,128,0,13,,,,,6,,,71,100
138944,note_off,,,,,128,0,14,,,,,6,,,52,100
138944,note_off,,,,,0,0,13,,,,,6,,,68,100
138944,note_off,,,,,128,0,11,,,,,4,,,52,100
138944,note_off,,,,,128,0,9,,,,,2,,,76,100
139008,note_on,,,,,64,0,11,,,,,4,,,52,98
139008,note_on,,,,,64,0,8,,,,,1,,,68,98
139008,note_on,,,,,64,0,9,,,,,2,,,71,98
139008,note_on,,,,,64,0,10,,,,,3,,,64,98
139008,note_on,,,,,0,0,13,,,,,6,,,68,100
139008,note_on,,,,,64,0,13,,,,,6,,,71,100
139008,note_on,,,,,64,0,12,,,,,5,,,40,98
139008,note_on,,,,,64,0,14,,,,,6,,,52,98
139136,note_off,,,,,128,0,14,,,,,6,,,52,100
139136,note_off,,,,,128,0,8,,,,,1,,,68,100
139136,note_off,,,,,128,0,9,,,,,2,,,71,100
139136,note_off,,,,,128,0,11,,,,,4,,,52,100
139136,note_off,,,,,128,0,10,,,,,3,,,64,100
139136,note_off,,,,,128,0,13,,,,,6,,,71,100
139136,note_off,,,,,128,0,12,,,,,5,,,40,100
139136,note_off,,,,,0,0,13,,,,,6,,,68,100
139200,note_on,,,,,64,0,13,,,,,6,,,71,100
139200,note_on,,,,,0,0,13,,,,,6,,,68,100
139200,note_on,,,,,64,0,14,,,,,6,,,52,97
139200,note_on,,,,,64,0,8,,,,,1,,,68,97
139200,note_on,,,,,64,0,10,,,,,3,,,64,97
139200,note_on,,,,,64,0,12,,,,,5,,,40,97
139200,note_on,,,,,64,0,11,,,,,4,,,52,97
139200,note_on,,,,,64,0,9,,,,,2,,,71,97
139328,note_off,,,,,128,0,14,,,,,6,,,52,100
139328,note_off,,,,,128,0,12,,,,,5,,,40,100
139328,note_off,,,,,128,0,11,,,,,4,,,52,100
139328,note_off,,,,,128,0,13,,,,,6,,,71,100
139328,note_off,,,,,128,0,9,,,,,2,,,71,100
139328,note_off,,,,,0,0,13,,,,,6,,,68,100
139328,note_off,,,,,128,0,8,,,,,1,,,68,100
139328,note_off,,,,,128,0,10,,,,,3,,,64,100
139392,note_on,,,,,64,0,14,,,,,6,,,52,96
139392,note_on,,,,,64,0,13,,,,,6,,,68,100
139392,set_tempo,,,,,26496,1,0,,428571,,,,,,,
139392,note_on,,,,,64,0,11,,,,,4,,,52,96
139392,note_on,,,,,64,0,8,,,,,1,,,64,96
139392,note_on,,,,,0,0,13,,,,,6,,,71,100
139392,note_on,,,,,64,0,9,,,,,2,,,68,96
139392,note_on,,,,,64,0,10,,,,,3,,,59,96
139392,note_on,,,,,64,0,12,,,,,5,,,40,96
139648,note_off,,,,,256,0,9,,,,,2,,,68,100
139648,note_off,,,,,0,0,13,,,,,6,,,71,100
139648,note_off,,,,,256,0,14,,,,,6,,,52,100
139648,note_off,,,,,256,0,12,,,,,5,,,40,100
139648,note_off,,,,,256,0,8,,,,,1,,,64,100
139648,note_off,,,,,256,0,11,,,,,4,,,52,100
139648,note_off,,,,,256,0,10,,,,,3,,,59,100
139648,note_off,,,,,256,0,13,,,,,6,,,68,100
139736,set_tempo,,,,,344,1,0,,431654,,,,,,,
139776,note_on,,,,,128,0,10,,,,,3,,,59,100
139776,note_on,,,,,128,0,14,,,,,6,,,52,100
139776,note_on,,,,,128,0,9,,,,,2,,,76,100
139776,note_on,,,,,0,0,13,,,,,6,,,71,100
139776,note_on,,,,,128,0,8,,,,,1,,,80,100
139776,note_on,,,,,128,0,13,,,,,6,,,68,100
139776,note_on,,,,,128,0,11,,,,,4,,,52,100
139776,note_on,,,,,128,0,12,,,,,5,,,40,100
140032,note_off,,,,,256,0,8,,,,,1,,,80,100
140032,note_off,,,,,256,0,10,,,,,3,,,59,100
140032,note_off,,,,,256,0,9,,,,,2,,,76,100
140032,note_off,,,,,256,0,11,,,,,4,,,52,100
140032,note_off,,,,,256,0,14,,,,,6,,,52,100
140032,note_off,,,,,0,0,13,,,,,6,,,71,100
140032,note_off,,,,,256,0,13,,,,,6,,,68,100
140032,note_off,,,,,256,0,12,,,,,5,,,40,100
140080,set_tempo,,,,,344,1,0,,434782,,,,,,,
140428,set_tempo,,,,,348,1,0,,437956,,,,,,,
140448,note_on,,,,,416,0,12,,,,,5,,,40,100
140448,note_on,,,,,416,0,14,,,,,6,,,52,100
140448,note_on,,,,,416,0,8,,,,,1,,,80,100
140448,note_on,,,,,416,0,11,,,,,4,,,52,100
140448,note_on,,,,,0,0,13,,,,,6,,,71,100
140448,note_on,,,,,416,0,9,,,,,2,,,76,100
140448,note_on,,,,,416,0,10,,,,,3,,,59,100
140448,note_on,,,,,416,0,13,,,,,6,,,68,100
140512,note_off,,,,,64,0,14,,,,,6,,,52,100
140512,note_off,,,,,64,0,8,,,,,1,,,80,100
140512,note_off,,,,,64,0,9,,,,,2,,,76,100
140512,note_off,,,,,64,0,10,,,,,3,,,59,100
140512,note_off,,,,,64,0,13,,,,,6,,,68,100
140512,note_off,,,,,64,0,12,,,,,5,,,40,100
140512,note_off,,,,,0,0,13,,,,,6,,,71,100
140512,note_off,,,,,64,0,11,,,,,4,,,52,100
140544,note_on,,,,,32,0,14,,,,,6,,,57,100
140544,note_on,,,,,0,0,13,,,,,6,,,66,100
140544,note_on,,,,,32,0,8,,,,,1,,,78,100
140544,note_on,,,,,32,0,12,,,,,5,,,45,100
140544,note_on,,,,,32,0,13,,,,,6,,,64,100
140544,note_on,,,,,32,0,9,,,,,2,,,76,100
140544,note_on,,,,,32,0,10,,,,,3,,,61,100
140544,note_on,,,,,32,0,11,,,,,4,,,57,100
140772,set_tempo,,,,,344,1,0,,441176,,,,,,,
140800,note_off,,,,,256,0,10,,,,,3,,,61,100
140800,note_off,,,,,256,0,12,,,,,5,,,45,100
140800,note_off,,,,,256,0,11,,,,,4,,,57,100
140800,note_off,,,,,256,0,9,,,,,2,,,76,100
140800,note_off,,,,,256,0,14,,,,,6,,,57,100
140800,note_off,,,,,256,0,8,,,,,1,,,78,100
140800,note_off,,,,,0,0,13,,,,,6,,,66,100
140800,note_off,,,,,256,0,13,,,,,6,,,64,100
140928,note_on,,,,,128,0,13,,,,,6,,,63,100
140928,note_on,,,,,128,0,9,,,,,2,,,75,100
140928,note_on,,,,,0,0,13,,,,,6,,,66,100
140928,note_on,,,,,128,0,8,,,,,1,,,78,100
140928,note_on,,,,,128,0,14,,,,,6,,,59,100
140928,note_on,,,,,128,0,10,,,,,3,,,59,100
140928,note_on,,,,,128,0,11,,,,,4,,,59,100
140928,note_on,,,,,128,0,12,,,,,5,,,47,100
141120,set_tempo,,,,,348,1,0,,444444,,,,,,,
141184,note_off,,,,,256,0,12,,,,,5,,,47,100
141184,note_off,,,,,256,0,9,,,,,2,,,75,100
141184,note_off,,,,,256,0,10,,,,,3,,,59,100
141184,note_off,,,,,256,0,8,,,,,1,,,78,100
141184,note_off,,,,,256,0,11,,,,,4,,,59,100
141184,note_off,,,,,0,0,13,,,,,6,,,66,100
141184,note_off,,,,,256,0,14,,,,,6,,,59,100
141184,note_off,,,,,256,0,13,,,,,6,,,63,100
141464,set_tempo,,,,,344,1,0,,447761,,,,,,,
141600,note_on,,,,,416,0,14,,,,,6,,,47,100
141600,note_on,,,,,416,0,8,,,,,1,,,78,100
141600,note_on,,,,,0,0,13,,,,,6,,,66,100
141600,note_on,,,,,416,0,11,,,,,4,,,47,100
141600,note_on,,,,,416,0,9,,,,,2,,,75,100
141600,note_on,,,,,416,0,13,,,,,6,,,63,100
141600,note_on,,,,,416,0,12,,,,,5,,,35,100
141600,note_on,,,,,416,0,10,,,,,3,,,59,100
141664,note_off,,,,,64,0,12,,,,,5,,,35,100
141664,note_off,,,,,64,0,11,,,,,4,,,47,100
141664,note_off,,,,,64,0,14,,,,,6,,,47,100
141664,note_off,,,,,64,0,10,,,,,3,,,59,100
141664,note_off,,,,,0,0,13,,,,,6,,,66,100
141664,note_off,,,,,64,0,9,,,,,2,,,75,100
141664,note_off,,,,,64,0,8,,,,,1,,,78,100
141664,note_off,,,,,64,0,13,,,,,6,,,63,100
141696,note_on,,,,,32,0,10,,,,,3,,,59,100
141696,note_on,,,,,32,0,14,,,,,6,,,52,100
141696,note_on,,,,,32,0,9,,,,,2,,,76,100
141696,note_on,,,,,32,0,8,,,,,1,,,80,100
141696,note_on,,,,,0,0,13,,,,,6,,,71,100
141696,note_on,,,,,32,0,13,,,,,6,,,68,100
141696,note_on,,,,,32,0,12,,,,,5,,,40,100
141696,note_on,,,,,32,0,11,,,,,4,,,52,100
141808,set_tempo,,,,,344,1,0,,451127,,,,,,,
141952,note_off,,,,,256,0,11,,,,,4,,,52,100
141952,note_off,,,,,256,0,14,,,,,6,,,52,100
141952,note_off,,,,,256,0,8,,,,,1,,,80,100
141952,note_off,,,,,256,0,12,,,,,5,,,40,100
141952,note_off,,,,,256,0,13,,,,,6,,,68,100
141952,note_off,,,,,256,0,10,,,,,3,,,59,100
141952,note_off,,,,,256,0,9,,,,,2,,,76,100
141952,note_off,,,,,0,0,13,,,,,6,,,71,100
142080,note_on,,,,,128,0,11,,,,,4,,,40,70
142080,note_on,,,,,128,0,14,,,,,6,,,40,100
142080,note_on,,,,,0,0,13,,,,,6,,,68,100
142080,note_on,,,,,128,0,13,,,,,6,,,59,100
142080,note_on,,,,,128,0,10,,,,,3,,,59,70
142080,note_on,,,,,128,0,12,,,,,5,,,28,70
142080,note_on,,,,,128,0,9,,,,,2,,,64,70
142080,note_on,,,,,128,0,8,,,,,1,,,68,70
142156,set_tempo,,,,,348,1,0,,454545,,,,,,,
142336,note_off,,,,,256,0,11,,,,,4,,,40,100
142336,note_off,,,,,256,0,9,,,,,2,,,64,100
142336,note_off,,,,,256,0,8,,,,,1,,,68,100
142336,note_off,,,,,256,0,14,,,,,6,,,40,100
142336,note_off,,,,,256,0,12,,,,,5,,,28,100
142336,note_off,,,,,256,0,10,,,,,3,,,59,100
142336,note_off,,,,,256,0,13,,,,,6,,,59,100
142336,note_off,,,,,0,0,13,,,,,6,,,68,100
142500,set_tempo,,,,,344,1,0,,458015,,,,,,,
142752,note_on,,,,,416,0,13,,,,,6,,,59,100
142752,note_on,,,,,416,0,12,,,,,5,,,28,70
142752,note_on,,,,,416,0,9,,,,,2,,,64,70
142752,note_on,,,,,416,0,10,,,,,3,,,59,70
142752,note_on,,,,,416,0,11,,,,,4,,,40,70
142752,note_on,,,,,416,0,14,,,,,6,,,40,100
142752,note_on,,,,,416,0,8,,,,,1,,,68,70
142752,note_on,,,,,0,0,13,,,,,6,,,68,100
142816,note_off,,,,,64,0,13,,,,,6,,,59,100
142816,note_off,,,,,64,0,9,,,,,2,,,64,100
142816,note_off,,,,,64,0,11,,,,,4,,,40,100
142816,note_off,,,,,64,0,8,,,,,1,,,68,100
142816,note_off,,,,,0,0,13,,,,,6,,,68,100
142816,note_off,,,,,64,0,14,,,,,6,,,40,100
142816,note_off,,,,,64,0,10,,,,,3,,,59,100
142816,note_off,,,,,64,0,12,,,,,5,,,28,100
142848,note_on,,,,,32,0,8,,,,,1,,,66,70
142848,set_tempo,,,,,348,1,0,,461538,,,,,,,
142848,note_on,,,,,32,0,11,,,,,4,,,45,70
142848,note_on,,,,,32,0,10,,,,,3,,,61,70
142848,note_on,,,,,32,0,12,,,,,5,,,33,70
142848,note_on,,,,,32,0,14,,,,,6,,,45,100
142848,note_on,,,,,0,0,13,,,,,6,,,66,100
142848,note_on,,,,,32,0,13,,,,,6,,,64,100
142848,note_on,,,,,32,0,9,,,,,2,,,64,70
142868,set_tempo,,,,,20,1,0,,476190,,,,,,,
142896,set_tempo,,,,,28,1,0,,480000,,,,,,,
142924,set_tempo,,,,,28,1,0,,483870,,,,,,,
142948,set_tempo,,,,,24,1,0,,487804,,,,,,,
142976,set_tempo,,,,,28,1,0,,491803,,,,,,,
143004,set_tempo,,,,,28,1,0,,495867,,,,,,,
143032,set_tempo,,,,,28,1,0,,500000,,,,,,,
143056,set_tempo,,,,,24,1,0,,504201,,,,,,,
143084,set_tempo,,,,,28,1,0,,508474,,,,,,,
143104,note_off,,,,,256,0,12,,,,,5,,,33,100
143104,note_off,,,,,256,0,11,,,,,4,,,45,100
143104,note_off,,,,,256,0,14,,,,,6,,,45,100
143104,note_off,,,,,256,0,9,,,,,2,,,64,100
143104,note_off,,,,,256,0,10,,,,,3,,,61,100
143104,note_off,,,,,256,0,13,,,,,6,,,64,100
143104,note_off,,,,,0,0,13,,,,,6,,,66,100
143104,note_off,,,,,256,0,8,,,,,1,,,66,100
143112,set_tempo,,,,,28,1,0,,512820,,,,,,,
143136,set_tempo,,,,,24,1,0,,517241,,,,,,,
143164,set_tempo,,,,,28,1,0,,521739,,,,,,,
143192,set_tempo,,,,,28,1,0,,526315,,,,,,,
143220,set_tempo,,,,,28,1,0,,530973,,,,,,,
143232,note_on,,,,,0,0,13,,,,,6,,,66,100
143232,note_on,,,,,128,0,13,,,,,6,,,63,100
143232,note_on,,,,,128,0,8,,,,,1,,,66,70
143232,note_on,,,,,128,0,14,,,,,6,,,47,100
143232,note_on,,,,,128,0,12,,,,,5,,,35,70
143232,note_on,,,,,128,0,11,,,,,4,,,47,70
143232,note_on,,,,,128,0,10,,,,,3,,,59,70
143232,note_on,,,,,128,0,9,,,,,2,,,63,70
143244,set_tempo,,,,,24,1,0,,535714,,,,,,,
143272,set_tempo,,,,,28,1,0,,540540,,,,,,,
143300,set_tempo,,,,,28,1,0,,545454,,,,,,,
143328,set_tempo,,,,,28,1,0,,550458,,,,,,,
143352,set_tempo,,,,,24,1,0,,555555,,,,,,,
143380,set_tempo,,,,,28,1,0,,560747,,,,,,,
143408,set_tempo,,,,,28,1,0,,566037,,,,,,,
143432,set_tempo,,,,,24,1,0,,571428,,,,,,,
143460,set_tempo,,,,,28,1,0,,576923,,,,,,,
143488,note_off,,,,,256,0,9,,,,,2,,,63,100
143488,note_off,,,,,256,0,10,,,,,3,,,59,100
143488,note_off,,,,,0,0,13,,,,,6,,,66,100
143488,note_off,,,,,256,0,11,,,,,4,,,47,100
143488,note_off,,,,,256,0,14,,,,,6,,,47,100
143488,note_off,,,,,256,0,13,,,,,6,,,63,100
143488,note_off,,,,,256,0,8,,,,,1,,,66,100
143488,set_tempo,,,,,28,1,0,,582524,,,,,,,
143488,note_off,,,,,256,0,12,,,,,5,,,35,100
143516,set_tempo,,,,,28,1,0,,588235,,,,,,,
143540,set_tempo,,,,,24,1,0,,594059,,,,,,,
143568,set_tempo,,,,,28,1,0,,600000,,,,,,,
143596,set_tempo,,,,,28,1,0,,606060,,,,,,,
143620,set_tempo,,,,,24,1,0,,612244,,,,,,,
143648,set_tempo,,,,,28,1,0,,618556,,,,,,,
143676,set_tempo,,,,,28,1,0,,625000,,,,,,,
143704,set_tempo,,,,,28,1,0,,631578,,,,,,,
143728,set_tempo,,,,,24,1,0,,638297,,,,,,,
143756,set_tempo,,,,,28,1,0,,645161,,,,,,,
143784,set_tempo,,,,,28,1,0,,652173,,,,,,,
143808,set_tempo,,,,,24,1,0,,659340,,,,,,,
143836,set_tempo,,,,,28,1,0,,666666,,,,,,,
143864,set_tempo,,,,,28,1,0,,674157,,,,,,,
143892,set_tempo,,,,,28,1,0,,681818,,,,,,,
143904,note_on,,,,,416,0,10,,,,,3,,,59,70
143904,note_on,,,,,416,0,13,,,,,6,,,63,100
143904,note_on,,,,,416,0,9,,,,,2,,,63,70
143904,set_tempo,,,,,12,1,0,,674157,,,,,,,
143904,note_on,,,,,416,0,8,,,,,1,,,66,70
143904,note_on,,,,,416,0,14,,,,,6,,,47,100
143904,note_on,,,,,416,0,12,,,,,5,,,35,70
143904,note_on,,,,,416,0,11,,,,,4,,,47,70
143904,note_on,,,,,0,0,13,,,,,6,,,66,100
143908,set_tempo,,,,,4,1,0,,681818,,,,,,,
143912,set_tempo,,,,,4,1,0,,689655,,,,,,,
143916,set_tempo,,,,,4,1,0,,697674,,,,,,,
143920,set_tempo,,,,,4,1,0,,714285,,,,,,,
143924,set_tempo,,,,,4,1,0,,722891,,,,,,,
143928,set_tempo,,,,,4,1,0,,731707,,,,,,,
143932,set_tempo,,,,,4,1,0,,740740,,,,,,,
143936,set_tempo,,,,,4,1,0,,759493,,,,,,,
143940,set_tempo,,,,,4,1,0,,769230,,,,,,,
143944,set_tempo,,,,,4,1,0,,779220,,,,,,,
143948,set_tempo,,,,,4,1,0,,789473,,,,,,,
143952,set_tempo,,,,,4,1,0,,810810,,,,,,,
143956,set_tempo,,,,,4,1,0,,821917,,,,,,,
143960,set_tempo,,,,,4,1,0,,833333,,,,,,,
143964,set_tempo,,,,,4,1,0,,845070,,,,,,,
143968,note_off,,,,,0,0,13,,,,,6,,,66,100
143968,note_off,,,,,64,0,14,,,,,6,,,47,100
143968,note_off,,,,,64,0,10,,,,,3,,,59,100
143968,note_off,,,,,64,0,13,,,,,6,,,63,100
143968,note_off,,,,,64,0,11,,,,,4,,,47,100
143968,set_tempo,,,,,4,1,0,,869565,,,,,,,
143968,note_off,,,,,64,0,9,,,,,2,,,63,100
143968,note_off,,,,,64,0,8,,,,,1,,,66,100
143968,note_off,,,,,64,0,12,,,,,5,,,35,100
143972,set_tempo,,,,,4,1,0,,882352,,,,,,,
143976,set_tempo,,,,,4,1,0,,895522,,,,,,,
143980,set_tempo,,,,,4,1,0,,909090,,,,,,,
143984,set_tempo,,,,,4,1,0,,937500,,,,,,,
143988,set_tempo,,,,,4,1,0,,952380,,,,,,,
143992,set_tempo,,,,,4,1,0,,967741,,,,,,,
143996,set_tempo,,,,,4,1,0,,983606,,,,,,,
144000,note_on,,,,,32,0,10,,,,,3,,,59,70
144000,note_on,,,,,32,0,12,,,,,5,,,40,70
144000,end_of_track,,,,,0,1,0,,,,,,,,,
144000,note_on,,,,,32,0,11,,,,,4,,,40,70
144000,note_on,,,,,32,0,8,,,,,1,,,64,70
144000,note_on,,,,,32,0,9,,,,,2,,,64,70
144000,set_tempo,,,,,4,1,0,,1000000,,,,,,,
144000,note_on,,,,,32,0,14,,,,,6,,,40,100
144044,note_on,,,,,76,0,13,,,,,6,,,56,100
144092,note_on,,,,,48,0,13,,,,,6,,,59,100
144124,note_on,,,,,32,0,13,,,,,6,,,64,100
144768,end_of_track,,,,,0,1,14,,,,,,,,,
144768,end_of_track,,,,,0,1,10,,,,,,,,,
144768,note_off,,,,,768,0,8,,,,,1,,,64,100
144768,end_of_track,,,,,0,1,8,,,,,,,,,
144768,note_off,,,,,768,0,14,,,,,6,,,40,100
144768,note_off,,,,,768,0,9,,,,,2,,,64,100
144768,end_of_track,,,,,0,1,9,,,,,,,,,
144768,note_off,,,,,768,0,10,,,,,3,,,59,100
144768,note_off,,,,,768,0,11,,,,,4,,,40,100
144768,end_of_track,,,,,0,1,11,,,,,,,,,
144768,note_off,,,,,768,0,12,,,,,5,,,40,100
144768,end_of_track,,,,,0,1,12,,,,,,,,,
144812,note_off,,,,,688,0,13,,,,,6,,,56,100
144860,note_off,,,,,48,0,13,,,,,6,,,59,100
144892,note_off,,,,,32,0,13,,,,,6,,,64,100
144892,end_of_track,,,,,0,1,13,,,,,,,,,
146304,program_change,,,,,14464,0,7,,,,,0,40,,,
146304,end_of_track,,,,,0,1,7,,,,,,,,,
