tick,type,numerator,denominator,clocks_per_click,notated_32nd_notes_per_beat,time,meta,track,data,tempo,control,value,channel,program,key,note,velocity
0,time_signature,3,4,96,8,0,1,0,,,,,,,,,
0,track_name,,,,,0,1,14,,,,,,,,,
0,control_change,,,,,0,0,14,,,0,0,5,,,,
0,program_change,,,,,0,0,14,,,,,5,6,,,
0,control_change,,,,,0,0,14,,,7,55,5,,,,
0,control_change,,,,,0,0,14,,,91,60,5,,,,
0,key_signature,,,,,0,1,14,,,,,,,G,,
0,note_on,,,,,0,0,14,,,,,5,,,52,100
0,note_on,,,,,0,0,9,,,,,1,,,79,60
0,key_signature,,,,,0,1,8,,,,,,,G,,
0,control_change,,,,,0,0,8,,,91,62,0,,,,
0,control_change,,,,,0,0,8,,,10,51,0,,,,
0,control_change,,,,,0,0,8,,,7,100,0,,,,
0,program_change,,,,,0,0,8,,,,,0,40,,,
0,control_change,,,,,0,0,8,,,0,0,0,,,,
0,track_name,,,,,0,1,8,,,,,,,,,
0,end_of_track,,,,,0,1,7,,,,,,,,,
0,key_signature,,,,,0,1,7,,,,,,,G,,
0,control_change,,,,,0,0,7,,,91,62,0,,,,
0,control_change,,,,,0,0,7,,,10,51,0,,,,
0,control_change,,,,,0,0,12,,,91,63,4,,,,
0,program_change,,,,,0,0,7,,,,,0,40,,,
0,control_change,,,,,0,0,7,,,0,0,0,,,,
0,track_name,,,,,0,1,7,,,,,,,,,
0,note_on,,,,,0,0,9,,,,,1,,,76,60
0,key_signature,,,,,0,1,9,,,,,,,G,,
0,control_change,,,,,0,0,9,,,91,67,1,,,,
0,control_change,,,,,0,0,9,,,10,34,1,,,,
0,control_change,,,,,0,0,12,,,10,97,4,,,,
0,control_change,,,,,0,0,12,,,7,77,4,,,,
0,program_change,,,,,0,0,12,,,,,4,48,,,
0,track_name,,,,,0,1,10,,,,,,,,,
0,control_change,,,,,0,0,10,,,0,0,2,,,,
0,program_change,,,,,0,0,10,,,,,2,48,,,
0,control_change,,,,,0,0,10,,,7,95,2,,,,
0,control_change,,,,,0,0,10,,,91,63,2,,,,
0,key_signature,,,,,0,1,10,,,,,,,G,,
0,note_on,,,,,0,0,10,,,,,2,,,71,60
0,note_on,,,,,0,0,12,,,,,4,,,40,60
0,end_of_track,,,,,0,1,6,,,,,,,,,
0,track_name,,,,,0,1,9,,,,,,,,,
0,control_change,,,,,0,0,13,,,0,0,5,,,,
0,program_change,,,,,0,0,13,,,,,5,6,,,
0,control_change,,,,,0,0,13,,,7,55,5,,,,
0,control_change,,,,,0,0,12,,,0,0,4,,,,
0,control_change,,,,,0,0,13,,,91,60,5,,,,
0,key_signature,,,,,0,1,13,,,,,,,G,,
0,note_on,,,,,0,0,13,,,,,5,,,71,100
0,note_on,,,,,0,0,13,,,,,5,,,67,100
0,control_change,,,,,0,0,9,,,0,0,1,,,,
0,program_change,,,,,0,0,9,,,,,1,48,,,
0,control_change,,,,,0,0,9,,,7,100,1,,,,
0,track_name,,,,,0,1,13,,,,,,,,,
0,key_signature,,,,,0,1,6,,,,,,,G,,
0,control_change,,,,,0,0,7,,,7,100,0,,,,
0,control_change,,,,,0,0,6,,,10,51,0,,,,
0,control_change,,,,,0,0,3,,,91,62,0,,,,
0,control_change,,,,,0,0,3,,,10,51,0,,,,
0,control_change,,,,,0,0,3,,,7,100,0,,,,
0,control_change,,,,,0,0,3,,,0,0,0,,,,
0,track_name,,,,,0,1,3,,,,,,,,,
0,end_of_track,,,,,0,1,2,,,,,,,,,
0,control_change,,,,,0,0,6,,,91,62,0,,,,
0,end_of_track,,,,,0,1,1,,,,,,,,,
0,track_name,,,,,0,1,1,,,,,,,,,
0,track_name,,,,,0,1,12,,,,,,,,,
0,track_name,,,,,0,1,11,,,,,,,,,
0,control_change,,,,,0,0,11,,,0,0,3,,,,
0,program_change,,,,,0,0,11,,,,,3,48,,,
0,control_change,,,,,0,0,11,,,7,82,3,,,,
0,control_change,,,,,0,0,11,,,10,84,3,,,,
0,control_change,,,,,0,0,11,,,91,63,3,,,,
0,key_signature,,,,,0,1,11,,,,,,,G,,
0,note_on,,,,,0,0,11,,,,,3,,,52,60
0,set_tempo,,,,,0,1,0,,1200000,,,,,,,
0,sequencer_specific,,,,,0,1,0,"(0, 0, 119, 14, 1)",,,,,,,,
0,sequencer_specific,,,,,0,1,0,"(0, 0, 65)",,,,,,,,
0,program_change,,,,,0,0,3,,,,,0,40,,,
0,key_signature,,,,,0,1,3,,,,,,,G,,
0,track_name,,,,,0,1,2,,,,,,,,,
0,track_name,,,,,0,1,4,,,,,,,,,
0,control_change,,,,,0,0,6,,,7,100,0,,,,
0,program_change,,,,,0,0,6,,,,,0,40,,,
0,control_change,,,,,0,0,6,,,0,0,0,,,,
0,track_name,,,,,0,1,6,,,,,,,,,
0,end_of_track,,,,,0,1,5,,,,,,,,,
0,key_signature,,,,,0,1,5,,,,,,,G,,
0,end_of_track,,,,,0,1,3,,,,,,,,,
0,control_change,,,,,0,0,5,,,10,51,0,,,,
0,control_change,,,,,0,0,5,,,7,100,0,,,,
0,program_change,,,,,0,0,5,,,,,0,40,,,
0,control_change,,,,,0,0,5,,,0,0,0,,,,
0,track_name,,,,,0,1,5,,,,,,,,,
0,end_of_track,,,,,0,1,4,,,,,,,,,
0,control_change,,,,,0,0,5,,,91,62,0,,,,
0,key_signature,,,,,0,1,12,,,,,,,G,,
0,control_change,,,,,0,0,4,,,0,0,0,,,,
0,program_change,,,,,0,0,4,,,,,0,40,,,
0,key_signature,,,,,0,1,4,,,,,,,G,,
0,control_change,,,,,0,0,4,,,91,62,0,,,,
0,control_change,,,,,0,0,4,,,10,51,0,,,,
0,control_change,,,,,0,0,4,,,7,100,0,,,,
256,note_off,,,,,256,0,14,,,,,5,,,52,100
256,note_off,,,,,0,0,9,,,,,1,,,79,100
256,note_off,,,,,256,0,9,,,,,1,,,76,100
256,note_off,,,,,256,0,10,,,,,2,,,71,100
256,note_off,,,,,256,0,13,,,,,5,,,71,100
256,note_off,,,,,0,0,13,,,,,5,,,67,100
256,note_off,,,,,256,0,12,,,,,4,,,40,100
256,note_off,,,,,256,0,11,,,,,3,,,52,100
384,note_on,,,,,128,0,11,,,,,3,,,52,60
384,note_on,,,,,128,0,12,,,,,4,,,40,60
384,note_on,,,,,128,0,14,,,,,5,,,52,100
384,note_on,,,,,128,0,9,,,,,1,,,76,60
384,note_on,,,,,0,0,9,,,,,1,,,79,60
384,note_on,,,,,0,0,13,,,,,5,,,67,100
384,note_on,,,,,128,0,13,,,,,5,,,71,100
384,note_on,,,,,128,0,10,,,,,2,,,71,60
640,note_off,,,,,256,0,9,,,,,1,,,76,100
640,note_off,,,,,0,0,9,,,,,1,,,79,100
640,note_off,,,,,256,0,12,,,,,4,,,40,100
640,note_off,,,,,256,0,14,,,,,5,,,52,100
640,note_off,,,,,256,0,13,,,,,5,,,71,100
640,note_off,,,,,0,0,13,,,,,5,,,67,100
640,note_off,,,,,256,0,11,,,,,3,,,52,100
640,note_off,,,,,256,0,10,,,,,2,,,71,100
768,note_on,,,,,128,0,10,,,,,2,,,71,60
768,note_on,,,,,128,0,9,,,,,1,,,76,60
768,note_on,,,,,128,0,14,,,,,5,,,52,100
768,note_on,,,,,128,0,11,,,,,3,,,52,60
768,note_on,,,,,0,0,9,,,,,1,,,79,60
768,note_on,,,,,0,0,13,,,,,5,,,67,100
768,note_on,,,,,128,0,13,,,,,5,,,71,100
768,note_on,,,,,128,0,12,,,,,4,,,40,60
1024,note_off,,,,,0,0,13,,,,,5,,,67,100
1024,note_off,,,,,256,0,9,,,,,1,,,76,100
1024,note_off,,,,,256,0,12,,,,,4,,,40,100
1024,note_off,,,,,256,0,11,,,,,3,,,52,100
1024,note_off,,,,,256,0,14,,,,,5,,,52,100
1024,note_off,,,,,256,0,10,,,,,2,,,71,100
1024,note_off,,,,,0,0,9,,,,,1,,,79,100
1024,note_off,,,,,256,0,13,,,,,5,,,71,100
1152,note_on,,,,,128,0,13,,,,,5,,,71,100
1152,note_on,,,,,128,0,14,,,,,5,,,52,100
1152,note_on,,,,,0,0,13,,,,,5,,,67,100
1152,note_on,,,,,128,0,10,,,,,2,,,71,60
1152,note_on,,,,,0,0,9,,,,,1,,,76,60
1152,note_on,,,,,128,0,12,,,,,4,,,40,60
1152,note_on,,,,,1152,0,8,,,,,0,,,76,70
1152,note_on,,,,,128,0,11,,,,,3,,,52,60
1152,note_on,,,,,128,0,9,,,,,1,,,79,60
1244,note_off,,,,,92,0,8,,,,,0,,,76,100
1248,note_on,,,,,4,0,8,,,,,0,,,71,70
1340,note_off,,,,,92,0,8,,,,,0,,,71,100
1344,note_on,,,,,4,0,8,,,,,0,,,69,70
1408,note_off,,,,,256,0,14,,,,,5,,,52,100
1408,note_off,,,,,256,0,13,,,,,5,,,71,100
1408,note_off,,,,,0,0,13,,,,,5,,,67,100
1408,note_off,,,,,256,0,11,,,,,3,,,52,100
1408,note_off,,,,,256,0,10,,,,,2,,,71,100
1408,note_off,,,,,0,0,9,,,,,1,,,76,100
1408,note_off,,,,,256,0,9,,,,,1,,,79,100
1408,note_off,,,,,256,0,12,,,,,4,,,40,100
1436,note_off,,,,,92,0,8,,,,,0,,,69,100
1440,note_on,,,,,4,0,8,,,,,0,,,71,70
1504,note_off,,,,,64,0,8,,,,,0,,,71,100
1536,note_on,,,,,32,0,8,,,,,0,,,79,70
1628,note_off,,,,,92,0,8,,,,,0,,,79,100
1632,note_on,,,,,4,0,8,,,,,0,,,76,70
1724,note_off,,,,,92,0,8,,,,,0,,,76,100
1728,note_on,,,,,4,0,8,,,,,0,,,75,70
1820,note_off,,,,,92,0,8,,,,,0,,,75,100
1824,note_on,,,,,4,0,8,,,,,0,,,76,70
1888,note_off,,,,,64,0,8,,,,,0,,,76,100
1920,note_on,,,,,32,0,8,,,,,0,,,83,70
2012,note_off,,,,,92,0,8,,,,,0,,,83,100
2016,note_on,,,,,4,0,8,,,,,0,,,79,70
2108,note_off,,,,,92,0,8,,,,,0,,,79,100
2112,note_on,,,,,4,0,8,,,,,0,,,78,70
2204,note_off,,,,,92,0,8,,,,,0,,,78,100
2208,note_on,,,,,4,0,8,,,,,0,,,76,70
2272,note_off,,,,,64,0,8,,,,,0,,,76,100
2304,note_on,,,,,0,0,9,,,,,1,,,78,60
2304,note_on,,,,,896,0,11,,,,,3,,,47,60
2304,note_on,,,,,896,0,9,,,,,1,,,75,60
2304,note_on,,,,,896,0,13,,,,,5,,,63,100
2304,note_on,,,,,896,0,10,,,,,2,,,71,60
2304,note_on,,,,,896,0,14,,,,,5,,,47,100
2304,note_on,,,,,32,0,8,,,,,0,,,75,70
2304,note_on,,,,,0,0,13,,,,,5,,,66,100
2304,note_on,,,,,896,0,12,,,,,4,,,35,60
2560,note_off,,,,,256,0,9,,,,,1,,,75,100
2560,note_off,,,,,0,0,9,,,,,1,,,78,100
2560,note_off,,,,,256,0,12,,,,,4,,,35,100
2560,note_off,,,,,256,0,11,,,,,3,,,47,100
2560,note_off,,,,,256,0,10,,,,,2,,,71,100
2560,note_off,,,,,0,0,13,,,,,5,,,66,100
2560,note_off,,,,,256,0,13,,,,,5,,,63,100
2560,note_off,,,,,256,0,8,,,,,0,,,75,100
2560,note_off,,,,,256,0,14,,,,,5,,,47,100
2688,note_on,,,,,128,0,12,,,,,4,,,35,60
2688,note_on,,,,,0,0,9,,,,,1,,,78,60
2688,note_on,,,,,128,0,9,,,,,1,,,75,60
2688,note_on,,,,,128,0,10,,,,,2,,,71,60
2688,note_on,,,,,0,0,13,,,,,5,,,66,100
2688,note_on,,,,,128,0,13,,,,,5,,,63,100
2688,note_on,,,,,128,0,14,,,,,5,,,47,100
2688,note_on,,,,,128,0,11,,,,,3,,,47,60
2944,note_off,,,,,256,0,11,,,,,3,,,47,100
2944,note_off,,,,,0,0,13,,,,,5,,,66,100
2944,note_off,,,,,256,0,13,,,,,5,,,63,100
2944,note_off,,,,,256,0,9,,,,,1,,,75,100
2944,note_off,,,,,0,0,9,,,,,1,,,78,100
2944,note_off,,,,,256,0,10,,,,,2,,,71,100
2944,note_off,,,,,256,0,14,,,,,5,,,47,100
2944,note_off,,,,,256,0,12,,,,,4,,,35,100
3072,note_on,,,,,0,0,9,,,,,1,,,78,60
3072,note_on,,,,,128,0,13,,,,,5,,,63,100
3072,note_on,,,,,0,0,13,,,,,5,,,66,100
3072,note_on,,,,,128,0,9,,,,,1,,,75,60
3072,note_on,,,,,128,0,12,,,,,4,,,35,60
3072,note_on,,,,,128,0,10,,,,,2,,,71,60
3072,note_on,,,,,128,0,11,,,,,3,,,47,60
3072,note_on,,,,,128,0,14,,,,,5,,,47,100
3328,note_off,,,,,256,0,11,,,,,3,,,47,100
3328,note_off,,,,,256,0,13,,,,,5,,,63,100
3328,note_off,,,,,0,0,13,,,,,5,,,66,100
3328,note_off,,,,,256,0,14,,,,,5,,,47,100
3328,note_off,,,,,0,0,9,,,,,1,,,78,100
3328,note_off,,,,,256,0,10,,,,,2,,,71,100
3328,note_off,,,,,256,0,12,,,,,4,,,35,100
3328,note_off,,,,,256,0,9,,,,,1,,,75,100
3456,note_on,,,,,128,0,14,,,,,5,,,47,100
3456,note_on,,,,,0,0,13,,,,,5,,,69,100
3456,note_on,,,,,0,0,13,,,,,5,,,66,100
3456,note_on,,,,,128,0,9,,,,,1,,,75,60
3456,note_on,,,,,128,0,12,,,,,4,,,35,60
3456,note_on,,,,,0,0,9,,,,,1,,,81,60
3456,note_on,,,,,128,0,11,,,,,3,,,47,60
3456,note_on,,,,,896,0,8,,,,,0,,,75,70
3456,note_on,,,,,0,0,10,,,,,2,,,71,60
3456,note_on,,,,,128,0,10,,,,,2,,,66,60
3456,note_on,,,,,128,0,13,,,,,5,,,63,100
3548,note_off,,,,,92,0,8,,,,,0,,,75,100
3552,note_on,,,,,4,0,8,,,,,0,,,71,70
3644,note_off,,,,,92,0,8,,,,,0,,,71,100
3648,note_on,,,,,4,0,8,,,,,0,,,69,70
3712,note_off,,,,,0,0,9,,,,,1,,,81,100
3712,note_off,,,,,256,0,9,,,,,1,,,75,100
3712,note_off,,,,,256,0,12,,,,,4,,,35,100
3712,note_off,,,,,256,0,10,,,,,2,,,66,100
3712,note_off,,,,,256,0,11,,,,,3,,,47,100
3712,note_off,,,,,256,0,13,,,,,5,,,63,100
3712,note_off,,,,,0,0,13,,,,,5,,,66,100
3712,note_off,,,,,0,0,13,,,,,5,,,69,100
3712,note_off,,,,,256,0,14,,,,,5,,,47,100
3712,note_off,,,,,0,0,10,,,,,2,,,71,100
3740,note_off,,,,,92,0,8,,,,,0,,,69,100
3744,note_on,,,,,4,0,8,,,,,0,,,71,70
3808,note_off,,,,,64,0,8,,,,,0,,,71,100
3840,note_on,,,,,32,0,8,,,,,0,,,78,70
3932,note_off,,,,,92,0,8,,,,,0,,,78,100
3936,note_on,,,,,4,0,8,,,,,0,,,71,70
4028,note_off,,,,,92,0,8,,,,,0,,,71,100
4032,note_on,,,,,4,0,8,,,,,0,,,69,70
4124,note_off,,,,,92,0,8,,,,,0,,,69,100
4128,note_on,,,,,4,0,8,,,,,0,,,71,70
4192,note_off,,,,,64,0,8,,,,,0,,,71,100
4224,note_on,,,,,32,0,8,,,,,0,,,81,70
4316,note_off,,,,,92,0,8,,,,,0,,,81,100
4320,note_on,,,,,4,0,8,,,,,0,,,71,70
4412,note_off,,,,,92,0,8,,,,,0,,,71,100
4416,note_on,,,,,4,0,8,,,,,0,,,69,70
4508,note_off,,,,,92,0,8,,,,,0,,,69,100
4512,note_on,,,,,4,0,8,,,,,0,,,71,70
4576,note_off,,,,,64,0,8,,,,,0,,,71,100
4608,note_on,,,,,896,0,11,,,,,3,,,52,60
4608,note_on,,,,,896,0,14,,,,,5,,,52,100
4608,note_on,,,,,896,0,9,,,,,1,,,76,60
4608,note_on,,,,,896,0,12,,,,,4,,,40,60
4608,note_on,,,,,32,0,8,,,,,0,,,76,70
4608,note_on,,,,,0,0,13,,,,,5,,,67,100
4608,note_on,,,,,896,0,13,,,,,5,,,71,100
4608,note_on,,,,,0,0,10,,,,,2,,,71,60
4608,note_on,,,,,896,0,10,,,,,2,,,67,60
4608,note_on,,,,,0,0,9,,,,,1,,,79,60
4864,note_off,,,,,256,0,13,,,,,5,,,71,100
4864,note_off,,,,,0,0,13,,,,,5,,,67,100
4864,note_off,,,,,256,0,14,,,,,5,,,52,100
4864,note_off,,,,,256,0,9,,,,,1,,,76,100
4864,note_off,,,,,0,0,9,,,,,1,,,79,100
4864,note_off,,,,,0,0,10,,,,,2,,,71,100
4864,note_off,,,,,256,0,10,,,,,2,,,67,100
4864,note_off,,,,,256,0,8,,,,,0,,,76,100
4864,note_off,,,,,256,0,11,,,,,3,,,52,100
4864,note_off,,,,,256,0,12,,,,,4,,,40,100
4992,note_on,,,,,0,0,13,,,,,5,,,71,100
4992,note_on,,,,,128,0,11,,,,,3,,,52,60
4992,note_on,,,,,0,0,10,,,,,2,,,71,60
4992,note_on,,,,,128,0,10,,,,,2,,,59,60
4992,note_on,,,,,128,0,13,,,,,5,,,67,100
4992,note_on,,,,,128,0,12,,,,,4,,,40,60
4992,note_on,,,,,128,0,14,,,,,5,,,52,100
4992,note_on,,,,,128,0,9,,,,,1,,,76,60
4992,note_on,,,,,0,0,9,,,,,1,,,79,60
5248,note_off,,,,,0,0,10,,,,,2,,,71,100
5248,note_off,,,,,256,0,12,,,,,4,,,40,100
5248,note_off,,,,,256,0,11,,,,,3,,,52,100
5248,note_off,,,,,0,0,13,,,,,5,,,71,100
5248,note_off,,,,,256,0,13,,,,,5,,,67,100
5248,note_off,,,,,256,0,14,,,,,5,,,52,100
5248,note_off,,,,,256,0,9,,,,,1,,,76,100
5248,note_off,,,,,0,0,9,,,,,1,,,79,100
5248,note_off,,,,,256,0,10,,,,,2,,,59,100
5376,note_on,,,,,128,0,14,,,,,5,,,52,100
5376,note_on,,,,,128,0,11,,,,,3,,,52,60
5376,note_on,,,,,0,0,10,,,,,2,,,71,60
5376,note_on,,,,,128,0,10,,,,,2,,,59,60
5376,note_on,,,,,0,0,13,,,,,5,,,71,100
5376,note_on,,,,,0,0,9,,,,,1,,,79,60
5376,note_on,,,,,128,0,9,,,,,1,,,76,60
5376,note_on,,,,,128,0,13,,,,,5,,,67,100
5376,note_on,,,,,128,0,12,,,,,4,,,40,60
5632,note_off,,,,,0,0,9,,,,,1,,,79,100
5632,note_off,,,,,256,0,10,,,,,2,,,59,100
5632,note_off,,,,,0,0,10,,,,,2,,,71,100
5632,note_off,,,,,0,0,13,,,,,5,,,71,100
5632,note_off,,,,,256,0,11,,,,,3,,,52,100
5632,note_off,,,,,256,0,14,,,,,5,,,52,100
5632,note_off,,,,,256,0,12,,,,,4,,,40,100
5632,note_off,,,,,256,0,13,,,,,5,,,67,100
5632,note_off,,,,,256,0,9,,,,,1,,,76,100
5760,note_on,,,,,128,0,13,,,,,5,,,67,100
5760,note_on,,,,,128,0,11,,,,,3,,,52,60
5760,note_on,,,,,0,0,9,,,,,1,,,76,60
5760,note_on,,,,,128,0,14,,,,,5,,,52,100
5760,note_on,,,,,128,0,9,,,,,1,,,79,60
5760,note_on,,,,,0,0,10,,,,,2,,,59,60
5760,note_on,,,,,128,0,10,,,,,2,,,71,60
5760,note_on,,,,,896,0,8,,,,,0,,,76,70
5760,note_on,,,,,0,0,13,,,,,5,,,71,100
5760,note_on,,,,,128,0,12,,,,,4,,,40,60
5852,note_off,,,,,92,0,8,,,,,0,,,76,100
5856,note_on,,,,,4,0,8,,,,,0,,,79,70
5948,note_off,,,,,92,0,8,,,,,0,,,79,100
5952,note_on,,,,,4,0,8,,,,,0,,,78,70
6016,note_off,,,,,0,0,9,,,,,1,,,76,100
6016,note_off,,,,,256,0,12,,,,,4,,,40,100
6016,note_off,,,,,256,0,11,,,,,3,,,52,100
6016,note_off,,,,,256,0,9,,,,,1,,,79,100
6016,note_off,,,,,256,0,10,,,,,2,,,71,100
6016,note_off,,,,,0,0,10,,,,,2,,,59,100
6016,note_off,,,,,0,0,13,,,,,5,,,71,100
6016,note_off,,,,,256,0,13,,,,,5,,,67,100
6016,note_off,,,,,256,0,14,,,,,5,,,52,100
6044,note_off,,,,,92,0,8,,,,,0,,,78,100
6048,note_on,,,,,4,0,8,,,,,0,,,76,70
6112,note_off,,,,,64,0,8,,,,,0,,,76,100
6144,note_on,,,,,32,0,8,,,,,0,,,83,70
6236,note_off,,,,,92,0,8,,,,,0,,,83,100
6240,note_on,,,,,4,0,8,,,,,0,,,79,70
6332,note_off,,,,,92,0,8,,,,,0,,,79,100
6336,note_on,,,,,4,0,8,,,,,0,,,78,70
6428,note_off,,,,,92,0,8,,,,,0,,,78,100
6432,note_on,,,,,4,0,8,,,,,0,,,76,70
6496,note_off,,,,,64,0,8,,,,,0,,,76,100
6528,note_on,,,,,32,0,8,,,,,0,,,83,70
6620,note_off,,,,,92,0,8,,,,,0,,,83,100
6624,note_on,,,,,4,0,8,,,,,0,,,80,70
6716,note_off,,,,,92,0,8,,,,,0,,,80,100
6720,note_on,,,,,4,0,8,,,,,0,,,78,70
6812,note_off,,,,,92,0,8,,,,,0,,,78,100
6816,note_on,,,,,4,0,8,,,,,0,,,76,70
6880,note_off,,,,,64,0,8,,,,,0,,,76,100
6912,note_on,,,,,0,0,10,,,,,2,,,71,60
6912,note_on,,,,,896,0,14,,,,,5,,,56,100
6912,note_on,,,,,896,0,10,,,,,2,,,68,60
6912,note_on,,,,,896,0,12,,,,,4,,,44,60
6912,note_on,,,,,896,0,9,,,,,1,,,76,60
6912,note_on,,,,,0,0,9,,,,,1,,,74,60
6912,note_on,,,,,896,0,13,,,,,5,,,74,100
6912,note_on,,,,,0,0,13,,,,,5,,,76,100
6912,note_on,,,,,32,0,8,,,,,0,,,74,70
6912,note_on,,,,,896,0,11,,,,,3,,,56,60
7168,note_off,,,,,256,0,13,,,,,5,,,74,100
7168,note_off,,,,,0,0,9,,,,,1,,,74,100
7168,note_off,,,,,256,0,9,,,,,1,,,76,100
7168,note_off,,,,,256,0,11,,,,,3,,,56,100
7168,note_off,,,,,256,0,10,,,,,2,,,68,100
7168,note_off,,,,,256,0,14,,,,,5,,,56,100
7168,note_off,,,,,0,0,13,,,,,5,,,76,100
7168,note_off,,,,,256,0,12,,,,,4,,,44,100
7168,note_off,,,,,0,0,10,,,,,2,,,71,100
7168,note_off,,,,,256,0,8,,,,,0,,,74,100
7296,note_on,,,,,0,0,13,,,,,5,,,76,100
7296,note_on,,,,,128,0,13,,,,,5,,,74,100
7296,note_on,,,,,128,0,14,,,,,5,,,56,100
7296,note_on,,,,,128,0,10,,,,,2,,,68,60
7296,note_on,,,,,0,0,10,,,,,2,,,71,60
7296,note_on,,,,,128,0,11,,,,,3,,,56,60
7296,note_on,,,,,128,0,12,,,,,4,,,44,60
7296,note_on,,,,,0,0,9,,,,,1,,,74,60
7296,note_on,,,,,128,0,9,,,,,1,,,76,60
7552,note_off,,,,,256,0,13,,,,,5,,,74,100
7552,note_off,,,,,0,0,9,,,,,1,,,74,100
7552,note_off,,,,,256,0,9,,,,,1,,,76,100
7552,note_off,,,,,256,0,12,,,,,4,,,44,100
7552,note_off,,,,,0,0,10,,,,,2,,,71,100
7552,note_off,,,,,256,0,10,,,,,2,,,68,100
7552,note_off,,,,,256,0,11,,,,,3,,,56,100
7552,note_off,,,,,0,0,13,,,,,5,,,76,100
7552,note_off,,,,,256,0,14,,,,,5,,,56,100
7680,note_on,,,,,128,0,13,,,,,5,,,74,100
7680,note_on,,,,,0,0,13,,,,,5,,,76,100
7680,note_on,,,,,0,0,9,,,,,1,,,74,60
7680,note_on,,,,,128,0,14,,,,,5,,,56,100
7680,note_on,,,,,128,0,9,,,,,1,,,76,60
7680,note_on,,,,,128,0,12,,,,,4,,,44,60
7680,note_on,,,,,128,0,11,,,,,3,,,56,60
7680,note_on,,,,,128,0,10,,,,,2,,,68,60
7680,note_on,,,,,0,0,10,,,,,2,,,71,60
7936,note_off,,,,,256,0,14,,,,,5,,,56,100
7936,note_off,,,,,256,0,13,,,,,5,,,74,100
7936,note_off,,,,,0,0,13,,,,,5,,,76,100
7936,note_off,,,,,0,0,10,,,,,2,,,71,100
7936,note_off,,,,,256,0,10,,,,,2,,,68,100
7936,note_off,,,,,0,0,9,,,,,1,,,74,100
7936,note_off,,,,,256,0,12,,,,,4,,,44,100
7936,note_off,,,,,256,0,9,,,,,1,,,76,100
7936,note_off,,,,,256,0,11,,,,,3,,,56,100
8064,note_on,,,,,128,0,11,,,,,3,,,56,60
8064,note_on,,,,,0,0,9,,,,,1,,,76,60
8064,note_on,,,,,128,0,13,,,,,5,,,74,100
8064,note_on,,,,,128,0,14,,,,,5,,,56,100
8064,note_on,,,,,0,0,13,,,,,5,,,76,100
8064,note_on,,,,,128,0,10,,,,,2,,,68,60
8064,note_on,,,,,0,0,10,,,,,2,,,71,60
8064,note_on,,,,,128,0,12,,,,,4,,,44,60
8064,note_on,,,,,128,0,9,,,,,1,,,74,60
8064,note_on,,,,,896,0,8,,,,,0,,,74,70
8156,note_off,,,,,92,0,8,,,,,0,,,74,100
8160,note_on,,,,,4,0,8,,,,,0,,,73,70
8252,note_off,,,,,92,0,8,,,,,0,,,73,100
8256,note_on,,,,,4,0,8,,,,,0,,,74,70
8320,note_off,,,,,256,0,12,,,,,4,,,44,100
8320,note_off,,,,,256,0,10,,,,,2,,,68,100
8320,note_off,,,,,0,0,13,,,,,5,,,76,100
8320,note_off,,,,,256,0,13,,,,,5,,,74,100
8320,note_off,,,,,0,0,10,,,,,2,,,71,100
8320,note_off,,,,,256,0,14,,,,,5,,,56,100
8320,note_off,,,,,256,0,11,,,,,3,,,56,100
8320,note_off,,,,,256,0,9,,,,,1,,,74,100
8320,note_off,,,,,0,0,9,,,,,1,,,76,100
8348,note_off,,,,,92,0,8,,,,,0,,,74,100
8352,note_on,,,,,4,0,8,,,,,0,,,83,70
8416,note_off,,,,,64,0,8,,,,,0,,,83,100
8448,note_on,,,,,32,0,8,,,,,0,,,80,70
8540,note_off,,,,,92,0,8,,,,,0,,,80,100
8544,note_on,,,,,4,0,8,,,,,0,,,74,70
8636,note_off,,,,,92,0,8,,,,,0,,,74,100
8640,note_on,,,,,4,0,8,,,,,0,,,73,70
8732,note_off,,,,,92,0,8,,,,,0,,,73,100
8736,note_on,,,,,4,0,8,,,,,0,,,74,70
8800,note_off,,,,,64,0,8,,,,,0,,,74,100
8832,note_on,,,,,32,0,8,,,,,0,,,83,70
8924,note_off,,,,,92,0,8,,,,,0,,,83,100
8928,note_on,,,,,4,0,8,,,,,0,,,74,70
9020,note_off,,,,,92,0,8,,,,,0,,,74,100
9024,note_on,,,,,4,0,8,,,,,0,,,72,70
9116,note_off,,,,,92,0,8,,,,,0,,,72,100
9120,note_on,,,,,4,0,8,,,,,0,,,71,70
9184,note_off,,,,,64,0,8,,,,,0,,,71,100
9216,note_on,,,,,896,0,11,,,,,3,,,57,60
9216,note_on,,,,,32,0,8,,,,,0,,,72,70
9216,note_on,,,,,896,0,12,,,,,4,,,45,60
9216,note_on,,,,,0,0,9,,,,,1,,,72,60
9216,note_on,,,,,896,0,9,,,,,1,,,76,60
9216,note_on,,,,,896,0,13,,,,,5,,,72,100
9216,note_on,,,,,0,0,10,,,,,2,,,64,60
9216,note_on,,,,,896,0,10,,,,,2,,,69,60
9216,note_on,,,,,0,0,13,,,,,5,,,76,100
9216,note_on,,,,,896,0,14,,,,,5,,,57,100
9472,note_off,,,,,256,0,11,,,,,3,,,57,100
9472,note_off,,,,,256,0,12,,,,,4,,,45,100
9472,note_off,,,,,256,0,8,,,,,0,,,72,100
9472,note_off,,,,,0,0,10,,,,,2,,,64,100
9472,note_off,,,,,256,0,10,,,,,2,,,69,100
9472,note_off,,,,,0,0,9,,,,,1,,,72,100
9472,note_off,,,,,256,0,9,,,,,1,,,76,100
9472,note_off,,,,,0,0,13,,,,,5,,,76,100
9472,note_off,,,,,256,0,14,,,,,5,,,57,100
9472,note_off,,,,,256,0,13,,,,,5,,,72,100
9600,note_on,,,,,0,0,13,,,,,5,,,76,100
9600,note_on,,,,,128,0,13,,,,,5,,,72,100
9600,note_on,,,,,128,0,12,,,,,4,,,45,60
9600,note_on,,,,,128,0,9,,,,,1,,,76,60
9600,note_on,,,,,0,0,9,,,,,1,,,72,60
9600,note_on,,,,,128,0,11,,,,,3,,,57,60
9600,note_on,,,,,128,0,14,,,,,5,,,57,100
9600,note_on,,,,,128,0,10,,,,,2,,,69,60
9600,note_on,,,,,0,0,10,,,,,2,,,64,60
9856,note_off,,,,,0,0,13,,,,,5,,,76,100
9856,note_off,,,,,256,0,10,,,,,2,,,69,100
9856,note_off,,,,,256,0,12,,,,,4,,,45,100
9856,note_off,,,,,256,0,11,,,,,3,,,57,100
9856,note_off,,,,,256,0,9,,,,,1,,,76,100
9856,note_off,,,,,256,0,13,,,,,5,,,72,100
9856,note_off,,,,,0,0,10,,,,,2,,,64,100
9856,note_off,,,,,256,0,14,,,,,5,,,57,100
9856,note_off,,,,,0,0,9,,,,,1,,,72,100
9984,note_on,,,,,128,0,14,,,,,5,,,57,100
9984,note_on,,,,,0,0,13,,,,,5,,,76,100
9984,note_on,,,,,128,0,12,,,,,4,,,45,60
9984,note_on,,,,,128,0,13,,,,,5,,,72,100
9984,note_on,,,,,0,0,10,,,,,2,,,64,60
9984,note_on,,,,,128,0,10,,,,,2,,,69,60
9984,note_on,,,,,128,0,9,,,,,1,,,76,60
9984,note_on,,,,,0,0,9,,,,,1,,,72,60
9984,note_on,,,,,128,0,11,,,,,3,,,57,60
10240,note_off,,,,,256,0,12,,,,,4,,,45,100
10240,note_off,,,,,256,0,11,,,,,3,,,57,100
10240,note_off,,,,,0,0,13,,,,,5,,,76,100
10240,note_off,,,,,256,0,10,,,,,2,,,69,100
10240,note_off,,,,,0,0,10,,,,,2,,,64,100
10240,note_off,,,,,256,0,13,,,,,5,,,72,100
10240,note_off,,,,,256,0,14,,,,,5,,,57,100
10240,note_off,,,,,0,0,9,,,,,1,,,72,100
10240,note_off,,,,,256,0,9,,,,,1,,,76,100
10368,note_on,,,,,128,0,12,,,,,4,,,45,60
10368,note_on,,,,,128,0,13,,,,,5,,,72,100
10368,note_on,,,,,0,0,13,,,,,5,,,76,100
10368,note_on,,,,,0,0,9,,,,,1,,,72,60
10368,note_on,,,,,896,0,8,,,,,0,,,72,70
10368,note_on,,,,,128,0,11,,,,,3,,,57,60
10368,note_on,,,,,128,0,9,,,,,1,,,76,60
10368,note_on,,,,,128,0,10,,,,,2,,,69,60
10368,note_on,,,,,0,0,10,,,,,2,,,64,60
10368,note_on,,,,,128,0,14,,,,,5,,,57,100
10460,note_off,,,,,92,0,8,,,,,0,,,72,100
10464,note_on,,,,,4,0,8,,,,,0,,,76,70
10556,note_off,,,,,92,0,8,,,,,0,,,76,100
10560,note_on,,,,,4,0,8,,,,,0,,,72,70
10624,note_off,,,,,256,0,13,,,,,5,,,72,100
10624,note_off,,,,,256,0,12,,,,,4,,,45,100
10624,note_off,,,,,256,0,11,,,,,3,,,57,100
10624,note_off,,,,,256,0,9,,,,,1,,,76,100
10624,note_off,,,,,0,0,9,,,,,1,,,72,100
10624,note_off,,,,,0,0,13,,,,,5,,,76,100
10624,note_off,,,,,256,0,10,,,,,2,,,69,100
10624,note_off,,,,,256,0,14,,,,,5,,,57,100
10624,note_off,,,,,0,0,10,,,,,2,,,64,100
10652,note_off,,,,,92,0,8,,,,,0,,,72,100
10656,note_on,,,,,4,0,8,,,,,0,,,71,70
10748,note_off,,,,,92,0,8,,,,,0,,,71,100
10752,note_on,,,,,4,0,8,,,,,0,,,69,70
10844,note_off,,,,,92,0,8,,,,,0,,,69,100
10848,note_on,,,,,4,0,8,,,,,0,,,64,70
10940,note_off,,,,,92,0,8,,,,,0,,,64,100
10944,note_on,,,,,4,0,8,,,,,0,,,69,70
11036,note_off,,,,,92,0,8,,,,,0,,,69,100
11040,note_on,,,,,4,0,8,,,,,0,,,72,70
11104,note_off,,,,,64,0,8,,,,,0,,,72,100
11136,note_on,,,,,32,0,8,,,,,0,,,76,70
11228,note_off,,,,,92,0,8,,,,,0,,,76,100
11232,note_on,,,,,4,0,8,,,,,0,,,69,70
11324,note_off,,,,,92,0,8,,,,,0,,,69,100
11328,note_on,,,,,4,0,8,,,,,0,,,72,70
11420,note_off,,,,,92,0,8,,,,,0,,,72,100
11424,note_on,,,,,4,0,8,,,,,0,,,76,70
11488,note_off,,,,,64,0,8,,,,,0,,,76,100
11520,note_on,,,,,896,0,9,,,,,1,,,82,60
11520,note_on,,,,,0,0,9,,,,,1,,,76,60
11520,note_on,,,,,0,0,13,,,,,5,,,73,100
11520,note_on,,,,,896,0,13,,,,,5,,,64,100
11520,note_on,,,,,896,0,10,,,,,2,,,66,60
11520,note_on,,,,,32,0,8,,,,,0,,,82,70
11520,note_on,,,,,896,0,11,,,,,3,,,54,60
11520,note_on,,,,,0,0,10,,,,,2,,,73,60
11520,note_on,,,,,896,0,14,,,,,5,,,54,100
11520,note_on,,,,,896,0,12,,,,,4,,,42,60
11776,note_off,,,,,256,0,8,,,,,0,,,82,100
11776,note_off,,,,,256,0,12,,,,,4,,,42,100
11776,note_off,,,,,256,0,10,,,,,2,,,66,100
11776,note_off,,,,,256,0,9,,,,,1,,,82,100
11776,note_off,,,,,0,0,9,,,,,1,,,76,100
11776,note_off,,,,,256,0,14,,,,,5,,,54,100
11776,note_off,,,,,256,0,11,,,,,3,,,54,100
11776,note_off,,,,,256,0,13,,,,,5,,,64,100
11776,note_off,,,,,0,0,13,,,,,5,,,73,100
11776,note_off,,,,,0,0,10,,,,,2,,,73,100
11904,note_on,,,,,128,0,11,,,,,3,,,54,60
11904,note_on,,,,,128,0,10,,,,,2,,,66,60
11904,note_on,,,,,0,0,13,,,,,5,,,73,100
11904,note_on,,,,,0,0,9,,,,,1,,,76,60
11904,note_on,,,,,128,0,13,,,,,5,,,64,100
11904,note_on,,,,,128,0,9,,,,,1,,,82,60
11904,note_on,,,,,128,0,14,,,,,5,,,54,100
11904,note_on,,,,,128,0,12,,,,,4,,,42,60
11904,note_on,,,,,0,0,10,,,,,2,,,73,60
12160,note_off,,,,,0,0,10,,,,,2,,,73,100
12160,note_off,,,,,256,0,10,,,,,2,,,66,100
12160,note_off,,,,,0,0,9,,,,,1,,,76,100
12160,note_off,,,,,256,0,9,,,,,1,,,82,100
12160,note_off,,,,,256,0,13,,,,,5,,,64,100
12160,note_off,,,,,0,0,13,,,,,5,,,73,100
12160,note_off,,,,,256,0,12,,,,,4,,,42,100
12160,note_off,,,,,256,0,14,,,,,5,,,54,100
12160,note_off,,,,,256,0,11,,,,,3,,,54,100
12288,note_on,,,,,128,0,11,,,,,3,,,54,60
12288,note_on,,,,,0,0,13,,,,,5,,,73,100
12288,note_on,,,,,128,0,13,,,,,5,,,64,100
12288,note_on,,,,,128,0,10,,,,,2,,,66,60
12288,note_on,,,,,128,0,9,,,,,1,,,82,60
12288,note_on,,,,,128,0,12,,,,,4,,,42,60
12288,note_on,,,,,128,0,14,,,,,5,,,54,100
12288,note_on,,,,,0,0,10,,,,,2,,,73,60
12288,note_on,,,,,0,0,9,,,,,1,,,76,60
12544,note_off,,,,,256,0,9,,,,,1,,,82,100
12544,note_off,,,,,0,0,9,,,,,1,,,76,100
12544,note_off,,,,,256,0,11,,,,,3,,,54,100
12544,note_off,,,,,0,0,13,,,,,5,,,73,100
12544,note_off,,,,,256,0,13,,,,,5,,,64,100
12544,note_off,,,,,256,0,14,,,,,5,,,54,100
12544,note_off,,,,,256,0,12,,,,,4,,,42,100
12544,note_off,,,,,256,0,10,,,,,2,,,66,100
12544,note_off,,,,,0,0,10,,,,,2,,,73,100
12672,note_on,,,,,128,0,11,,,,,3,,,47,60
12672,note_on,,,,,0,0,10,,,,,2,,,66,60
12672,note_on,,,,,128,0,10,,,,,2,,,71,60
12672,note_on,,,,,128,0,14,,,,,5,,,47,100
12672,note_on,,,,,0,0,13,,,,,5,,,66,100
12672,note_on,,,,,128,0,12,,,,,4,,,35,60
12672,note_on,,,,,0,0,9,,,,,1,,,83,60
12672,note_on,,,,,128,0,9,,,,,1,,,74,60
12672,note_on,,,,,896,0,8,,,,,0,,,83,70
12672,note_on,,,,,128,0,13,,,,,5,,,74,100
12764,note_off,,,,,92,0,8,,,,,0,,,83,100
12768,note_on,,,,,4,0,8,,,,,0,,,78,70
12860,note_off,,,,,92,0,8,,,,,0,,,78,100
12864,note_on,,,,,4,0,8,,,,,0,,,74,70
12928,note_off,,,,,256,0,9,,,,,1,,,74,100
12928,note_off,,,,,256,0,13,,,,,5,,,74,100
12928,note_off,,,,,0,0,13,,,,,5,,,66,100
12928,note_off,,,,,256,0,14,,,,,5,,,47,100
12928,note_off,,,,,256,0,11,,,,,3,,,47,100
12928,note_off,,,,,0,0,10,,,,,2,,,66,100
12928,note_off,,,,,256,0,10,,,,,2,,,71,100
12928,note_off,,,,,0,0,9,,,,,1,,,83,100
12928,note_off,,,,,256,0,12,,,,,4,,,35,100
12956,note_off,,,,,92,0,8,,,,,0,,,74,100
12960,note_on,,,,,4,0,8,,,,,0,,,73,70
13052,note_off,,,,,92,0,8,,,,,0,,,73,100
13056,note_on,,,,,4,0,8,,,,,0,,,71,70
13148,note_off,,,,,92,0,8,,,,,0,,,71,100
13152,note_on,,,,,4,0,8,,,,,0,,,74,70
13244,note_off,,,,,92,0,8,,,,,0,,,74,100
13248,note_on,,,,,4,0,8,,,,,0,,,73,70
13340,note_off,,,,,92,0,8,,,,,0,,,73,100
13344,note_on,,,,,4,0,8,,,,,0,,,71,70
13408,note_off,,,,,64,0,8,,,,,0,,,71,100
13440,note_on,,,,,32,0,8,,,,,0,,,78,70
13532,note_off,,,,,92,0,8,,,,,0,,,78,100
13536,note_on,,,,,4,0,8,,,,,0,,,74,70
13628,note_off,,,,,92,0,8,,,,,0,,,74,100
13632,note_on,,,,,4,0,8,,,,,0,,,73,70
13724,note_off,,,,,92,0,8,,,,,0,,,73,100
13728,note_on,,,,,4,0,8,,,,,0,,,71,70
13792,note_off,,,,,64,0,8,,,,,0,,,71,100
13824,note_on,,,,,896,0,9,,,,,1,,,73,60
13824,note_on,,,,,0,0,9,,,,,1,,,83,60
13824,note_on,,,,,896,0,14,,,,,5,,,52,100
13824,note_on,,,,,896,0,13,,,,,5,,,71,100
13824,note_on,,,,,896,0,12,,,,,4,,,40,60
13824,note_on,,,,,896,0,11,,,,,3,,,52,60
13824,note_on,,,,,0,0,13,,,,,5,,,73,100
13824,note_on,,,,,32,0,8,,,,,0,,,83,70
13824,note_on,,,,,896,0,10,,,,,2,,,67,60
13916,note_off,,,,,92,0,8,,,,,0,,,83,100
13920,note_on,,,,,4,0,8,,,,,0,,,79,70
14012,note_off,,,,,92,0,8,,,,,0,,,79,100
14016,note_on,,,,,4,0,8,,,,,0,,,78,70
14080,note_off,,,,,256,0,11,,,,,3,,,52,100
14080,note_off,,,,,256,0,14,,,,,5,,,52,100
14080,note_off,,,,,256,0,10,,,,,2,,,67,100
14080,note_off,,,,,256,0,9,,,,,1,,,73,100
14080,note_off,,,,,0,0,9,,,,,1,,,83,100
14080,note_off,,,,,0,0,13,,,,,5,,,73,100
14080,note_off,,,,,256,0,12,,,,,4,,,40,100
14080,note_off,,,,,256,0,13,,,,,5,,,71,100
14108,note_off,,,,,92,0,8,,,,,0,,,78,100
14112,note_on,,,,,4,0,8,,,,,0,,,76,70
14176,note_off,,,,,64,0,8,,,,,0,,,76,100
14208,note_on,,,,,32,0,8,,,,,0,,,83,70
14300,note_off,,,,,92,0,8,,,,,0,,,83,100
14304,note_on,,,,,4,0,8,,,,,0,,,79,70
14396,note_off,,,,,92,0,8,,,,,0,,,79,100
14400,note_on,,,,,4,0,8,,,,,0,,,78,70
14492,note_off,,,,,92,0,8,,,,,0,,,78,100
14496,note_on,,,,,4,0,8,,,,,0,,,76,70
14560,note_off,,,,,64,0,8,,,,,0,,,76,100
14592,note_on,,,,,32,0,8,,,,,0,,,83,70
14684,note_off,,,,,92,0,8,,,,,0,,,83,100
14688,note_on,,,,,4,0,8,,,,,0,,,79,70
14780,note_off,,,,,92,0,8,,,,,0,,,79,100
14784,note_on,,,,,4,0,8,,,,,0,,,78,70
14876,note_off,,,,,92,0,8,,,,,0,,,78,100
14880,note_on,,,,,4,0,8,,,,,0,,,76,70
14944,note_off,,,,,64,0,8,,,,,0,,,76,100
14976,note_on,,,,,896,0,9,,,,,1,,,73,60
14976,note_on,,,,,896,0,14,,,,,5,,,54,100
14976,note_on,,,,,896,0,11,,,,,3,,,54,60
14976,note_on,,,,,32,0,8,,,,,0,,,82,70
14976,note_on,,,,,896,0,10,,,,,2,,,66,60
14976,note_on,,,,,0,0,13,,,,,5,,,73,100
14976,note_on,,,,,896,0,13,,,,,5,,,70,100
14976,note_on,,,,,0,0,9,,,,,1,,,82,60
14976,note_on,,,,,896,0,12,,,,,4,,,42,60
15068,note_off,,,,,92,0,8,,,,,0,,,82,100
15072,note_on,,,,,4,0,8,,,,,0,,,78,70
15164,note_off,,,,,92,0,8,,,,,0,,,78,100
15168,note_on,,,,,4,0,8,,,,,0,,,76,70
15232,note_off,,,,,0,0,9,,,,,1,,,82,100
15232,note_off,,,,,256,0,10,,,,,2,,,66,100
15232,note_off,,,,,256,0,12,,,,,4,,,42,100
15232,note_off,,,,,0,0,13,,,,,5,,,73,100
15232,note_off,,,,,256,0,13,,,,,5,,,70,100
15232,note_off,,,,,256,0,9,,,,,1,,,73,100
15232,note_off,,,,,256,0,11,,,,,3,,,54,100
15232,note_off,,,,,256,0,14,,,,,5,,,54,100
15260,note_off,,,,,92,0,8,,,,,0,,,76,100
15264,note_on,,,,,4,0,8,,,,,0,,,73,70
15356,note_off,,,,,92,0,8,,,,,0,,,73,100
15360,note_on,,,,,4,0,8,,,,,0,,,70,70
15452,note_off,,,,,92,0,8,,,,,0,,,70,100
15456,note_on,,,,,4,0,8,,,,,0,,,66,70
15548,note_off,,,,,92,0,8,,,,,0,,,66,100
15552,note_on,,,,,4,0,8,,,,,0,,,64,70
15644,note_off,,,,,92,0,8,,,,,0,,,64,100
15648,note_on,,,,,4,0,8,,,,,0,,,66,70
15712,note_off,,,,,64,0,8,,,,,0,,,66,100
15744,note_on,,,,,32,0,8,,,,,0,,,70,70
15836,note_off,,,,,92,0,8,,,,,0,,,70,100
15840,note_on,,,,,4,0,8,,,,,0,,,73,70
15932,note_off,,,,,92,0,8,,,,,0,,,73,100
15936,note_on,,,,,4,0,8,,,,,0,,,76,70
16028,note_off,,,,,92,0,8,,,,,0,,,76,100
16032,note_on,,,,,4,0,8,,,,,0,,,82,70
16096,note_off,,,,,64,0,8,,,,,0,,,82,100
16128,note_on,,,,,896,0,9,,,,,1,,,83,60
16128,note_on,,,,,0,0,9,,,,,1,,,74,60
16128,note_on,,,,,896,0,11,,,,,3,,,47,60
16128,note_on,,,,,896,0,10,,,,,2,,,66,60
16128,note_on,,,,,896,0,13,,,,,5,,,71,100
16128,note_on,,,,,0,0,13,,,,,5,,,62,100
16128,note_on,,,,,32,0,8,,,,,0,,,83,70
16128,note_on,,,,,896,0,12,,,,,4,,,35,60
16128,note_on,,,,,0,0,13,,,,,5,,,66,100
16128,note_on,,,,,896,0,14,,,,,5,,,47,100
16384,note_off,,,,,256,0,10,,,,,2,,,66,100
16384,note_off,,,,,256,0,14,,,,,5,,,47,100
16384,note_off,,,,,256,0,13,,,,,5,,,71,100
16384,note_off,,,,,0,0,13,,,,,5,,,62,100
16384,note_off,,,,,256,0,12,,,,,4,,,35,100
16384,note_off,,,,,256,0,8,,,,,0,,,83,100
16384,note_off,,,,,256,0,11,,,,,3,,,47,100
16384,note_off,,,,,256,0,9,,,,,1,,,83,100
16384,note_off,,,,,0,0,13,,,,,5,,,66,100
16384,note_off,,,,,0,0,9,,,,,1,,,74,100
16512,note_on,,,,,128,0,13,,,,,5,,,62,100
16512,note_on,,,,,0,0,13,,,,,5,,,66,100
16512,note_on,,,,,128,0,10,,,,,2,,,66,60
16512,note_on,,,,,128,0,9,,,,,1,,,83,60
16512,note_on,,,,,0,0,9,,,,,1,,,74,60
16512,note_on,,,,,128,0,12,,,,,4,,,35,60
16512,note_on,,,,,128,0,14,,,,,5,,,47,100
16512,note_on,,,,,128,0,11,,,,,3,,,47,60
16768,note_off,,,,,256,0,13,,,,,5,,,62,100
16768,note_off,,,,,0,0,13,,,,,5,,,66,100
16768,note_off,,,,,256,0,9,,,,,1,,,83,100
16768,note_off,,,,,256,0,12,,,,,4,,,35,100
16768,note_off,,,,,256,0,10,,,,,2,,,66,100
16768,note_off,,,,,256,0,11,,,,,3,,,47,100
16768,note_off,,,,,256,0,14,,,,,5,,,47,100
16768,note_off,,,,,0,0,9,,,,,1,,,74,100
16896,note_on,,,,,128,0,13,,,,,5,,,62,100
16896,note_on,,,,,128,0,12,,,,,4,,,35,60
16896,note_on,,,,,128,0,11,,,,,3,,,47,60
16896,note_on,,,,,128,0,14,,,,,5,,,47,100
16896,note_on,,,,,0,0,9,,,,,1,,,74,60
16896,note_on,,,,,0,0,13,,,,,5,,,66,100
16896,note_on,,,,,128,0,10,,,,,2,,,66,60
16896,note_on,,,,,128,0,9,,,,,1,,,83,60
17152,note_off,,,,,256,0,10,,,,,2,,,66,100
17152,note_off,,,,,256,0,14,,,,,5,,,47,100
17152,note_off,,,,,0,0,13,,,,,5,,,66,100
17152,note_off,,,,,256,0,12,,,,,4,,,35,100
17152,note_off,,,,,256,0,13,,,,,5,,,62,100
17152,note_off,,,,,256,0,11,,,,,3,,,47,100
17152,note_off,,,,,256,0,9,,,,,1,,,83,100
17152,note_off,,,,,0,0,9,,,,,1,,,74,100
17280,note_on,,,,,128,0,10,,,,,2,,,59,60
17280,note_on,,,,,0,0,10,,,,,2,,,66,60
17280,note_on,,,,,128,0,14,,,,,5,,,47,100
17280,note_on,,,,,0,0,9,,,,,1,,,75,60
17280,note_on,,,,,128,0,12,,,,,4,,,35,60
17280,note_on,,,,,128,0,11,,,,,3,,,47,60
17280,note_on,,,,,128,0,13,,,,,5,,,69,100
17280,note_on,,,,,128,0,9,,,,,1,,,81,60
17372,note_off,,,,,92,0,13,,,,,5,,,69,100
17376,note_on,,,,,4,0,13,,,,,5,,,66,100
17468,note_off,,,,,92,0,13,,,,,5,,,66,100
17472,note_on,,,,,4,0,13,,,,,5,,,63,100
17536,note_off,,,,,0,0,9,,,,,1,,,75,100
17536,note_off,,,,,256,0,14,,,,,5,,,47,100
17536,note_off,,,,,256,0,9,,,,,1,,,81,100
17536,note_off,,,,,256,0,10,,,,,2,,,59,100
17536,note_off,,,,,256,0,12,,,,,4,,,35,100
17536,note_off,,,,,256,0,11,,,,,3,,,47,100
17536,note_off,,,,,0,0,10,,,,,2,,,66,100
17564,note_off,,,,,92,0,13,,,,,5,,,63,100
17568,note_on,,,,,4,0,13,,,,,5,,,59,100
17660,note_off,,,,,92,0,13,,,,,5,,,59,100
17664,note_on,,,,,4,0,13,,,,,5,,,57,100
17664,note_on,,,,,128,0,10,,,,,2,,,59,60
17664,note_on,,,,,128,0,14,,,,,5,,,47,100
17664,note_on,,,,,128,0,11,,,,,3,,,47,60
17664,note_on,,,,,0,0,10,,,,,2,,,66,60
17664,note_on,,,,,0,0,9,,,,,1,,,75,60
17664,note_on,,,,,128,0,9,,,,,1,,,81,60
17664,note_on,,,,,128,0,12,,,,,4,,,35,60
17756,note_off,,,,,92,0,13,,,,,5,,,57,100
17760,note_on,,,,,4,0,13,,,,,5,,,59,100
17852,note_off,,,,,92,0,13,,,,,5,,,59,100
17856,note_on,,,,,4,0,13,,,,,5,,,63,100
17920,note_off,,,,,256,0,14,,,,,5,,,47,100
17920,note_off,,,,,256,0,9,,,,,1,,,81,100
17920,note_off,,,,,0,0,9,,,,,1,,,75,100
17920,note_off,,,,,256,0,12,,,,,4,,,35,100
17920,note_off,,,,,256,0,10,,,,,2,,,59,100
17920,note_off,,,,,0,0,10,,,,,2,,,66,100
17920,note_off,,,,,256,0,11,,,,,3,,,47,100
17948,note_off,,,,,92,0,13,,,,,5,,,63,100
17952,note_on,,,,,4,0,13,,,,,5,,,66,100
18044,note_off,,,,,92,0,13,,,,,5,,,66,100
18048,note_on,,,,,4,0,13,,,,,5,,,69,100
18048,note_on,,,,,0,0,9,,,,,1,,,75,60
18048,note_on,,,,,128,0,12,,,,,4,,,35,60
18048,note_on,,,,,128,0,9,,,,,1,,,81,60
18048,note_on,,,,,128,0,11,,,,,3,,,47,60
18048,note_on,,,,,128,0,14,,,,,5,,,47,100
18048,note_on,,,,,128,0,10,,,,,2,,,59,60
18048,note_on,,,,,0,0,10,,,,,2,,,66,60
18140,note_off,,,,,92,0,13,,,,,5,,,69,100
18144,note_on,,,,,4,0,13,,,,,5,,,72,100
18236,note_off,,,,,92,0,13,,,,,5,,,72,100
18240,note_on,,,,,4,0,13,,,,,5,,,71,100
18304,note_off,,,,,256,0,9,,,,,1,,,81,100
18304,note_off,,,,,256,0,12,,,,,4,,,35,100
18304,note_off,,,,,256,0,10,,,,,2,,,59,100
18304,note_off,,,,,0,0,10,,,,,2,,,66,100
18304,note_off,,,,,0,0,9,,,,,1,,,75,100
18304,note_off,,,,,256,0,14,,,,,5,,,47,100
18304,note_off,,,,,256,0,11,,,,,3,,,47,100
18332,note_off,,,,,92,0,13,,,,,5,,,71,100
18336,note_on,,,,,4,0,13,,,,,5,,,69,100
18428,note_off,,,,,92,0,13,,,,,5,,,69,100
18432,note_on,,,,,0,0,9,,,,,1,,,74,60
18432,note_on,,,,,128,0,14,,,,,5,,,52,100
18432,note_on,,,,,128,0,12,,,,,4,,,40,60
18432,note_on,,,,,0,0,13,,,,,5,,,62,100
18432,note_on,,,,,128,0,11,,,,,3,,,52,60
18432,note_on,,,,,128,0,9,,,,,1,,,80,60
18432,note_on,,,,,4,0,13,,,,,5,,,68,100
18432,note_on,,,,,2048,0,8,,,,,0,,,80,70
18432,note_on,,,,,128,0,10,,,,,2,,,59,60
18432,note_on,,,,,0,0,10,,,,,2,,,64,60
18524,note_off,,,,,92,0,8,,,,,0,,,80,100
18528,note_on,,,,,4,0,8,,,,,0,,,74,70
18592,note_off,,,,,64,0,8,,,,,0,,,74,100
18624,note_on,,,,,32,0,8,,,,,0,,,74,70
18688,note_off,,,,,256,0,12,,,,,4,,,40,100
18688,note_off,,,,,0,0,13,,,,,5,,,62,100
18688,note_off,,,,,256,0,14,,,,,5,,,52,100
18688,note_off,,,,,256,0,13,,,,,5,,,68,100
18688,note_off,,,,,256,0,11,,,,,3,,,52,100
18688,note_off,,,,,256,0,10,,,,,2,,,59,100
18688,note_off,,,,,0,0,9,,,,,1,,,74,100
18688,note_off,,,,,256,0,9,,,,,1,,,80,100
18688,note_off,,,,,0,0,10,,,,,2,,,64,100
18716,note_off,,,,,92,0,8,,,,,0,,,74,100
18720,note_on,,,,,4,0,8,,,,,0,,,83,70
18784,note_off,,,,,64,0,8,,,,,0,,,83,100
18816,note_on,,,,,32,0,8,,,,,0,,,83,70
18908,note_off,,,,,92,0,8,,,,,0,,,83,100
18912,note_on,,,,,4,0,8,,,,,0,,,74,70
18976,note_off,,,,,64,0,8,,,,,0,,,74,100
19008,note_on,,,,,32,0,8,,,,,0,,,74,70
19100,note_off,,,,,92,0,8,,,,,0,,,74,100
19104,note_on,,,,,4,0,8,,,,,0,,,80,70
19168,note_off,,,,,64,0,8,,,,,0,,,80,100
19200,note_on,,,,,32,0,8,,,,,0,,,80,70
19292,note_off,,,,,92,0,8,,,,,0,,,80,100
19296,note_on,,,,,4,0,8,,,,,0,,,83,70
19360,note_off,,,,,64,0,8,,,,,0,,,83,100
19392,note_on,,,,,32,0,8,,,,,0,,,81,70
19484,note_off,,,,,92,0,8,,,,,0,,,81,100
19488,note_on,,,,,4,0,8,,,,,0,,,80,70
19552,note_off,,,,,64,0,8,,,,,0,,,80,100
19584,note_on,,,,,896,0,14,,,,,5,,,45,100
19584,note_on,,,,,896,0,10,,,,,2,,,64,60
19584,note_on,,,,,0,0,9,,,,,1,,,72,60
19584,note_on,,,,,0,0,13,,,,,5,,,64,100
19584,note_on,,,,,896,0,13,,,,,5,,,60,100
19584,note_on,,,,,896,0,11,,,,,3,,,45,60
19584,note_on,,,,,32,0,8,,,,,0,,,81,70
19584,note_on,,,,,0,0,10,,,,,2,,,57,60
19584,note_on,,,,,896,0,9,,,,,1,,,81,60
19584,note_on,,,,,896,0,12,,,,,4,,,33,60
19840,note_off,,,,,0,0,13,,,,,5,,,64,100
19840,note_off,,,,,256,0,13,,,,,5,,,60,100
19840,note_off,,,,,256,0,12,,,,,4,,,33,100
19840,note_off,,,,,256,0,11,,,,,3,,,45,100
19840,note_off,,,,,256,0,14,,,,,5,,,45,100
19840,note_off,,,,,0,0,10,,,,,2,,,57,100
19840,note_off,,,,,256,0,10,,,,,2,,,64,100
19840,note_off,,,,,256,0,8,,,,,0,,,81,100
19840,note_off,,,,,0,0,9,,,,,1,,,72,100
19840,note_off,,,,,256,0,9,,,,,1,,,81,100
19968,note_on,,,,,128,0,11,,,,,3,,,45,60
19968,note_on,,,,,0,0,10,,,,,2,,,57,60
19968,note_on,,,,,0,0,13,,,,,5,,,64,100
19968,note_on,,,,,128,0,13,,,,,5,,,60,100
19968,note_on,,,,,0,0,9,,,,,1,,,72,60
19968,note_on,,,,,128,0,9,,,,,1,,,81,60
19968,note_on,,,,,128,0,12,,,,,4,,,33,60
19968,note_on,,,,,128,0,10,,,,,2,,,64,60
19968,note_on,,,,,128,0,14,,,,,5,,,45,100
20224,note_off,,,,,256,0,10,,,,,2,,,64,100
20224,note_off,,,,,0,0,10,,,,,2,,,57,100
20224,note_off,,,,,256,0,9,,,,,1,,,81,100
20224,note_off,,,,,256,0,11,,,,,3,,,45,100
20224,note_off,,,,,256,0,13,,,,,5,,,60,100
20224,note_off,,,,,0,0,13,,,,,5,,,64,100
20224,note_off,,,,,256,0,14,,,,,5,,,45,100
20224,note_off,,,,,0,0,9,,,,,1,,,72,100
20224,note_off,,,,,256,0,12,,,,,4,,,33,100
20352,note_on,,,,,128,0,12,,,,,4,,,33,60
20352,note_on,,,,,128,0,11,,,,,3,,,45,60
20352,note_on,,,,,0,0,13,,,,,5,,,64,100
20352,note_on,,,,,128,0,9,,,,,1,,,81,60
20352,note_on,,,,,0,0,9,,,,,1,,,72,60
20352,note_on,,,,,128,0,13,,,,,5,,,60,100
20352,note_on,,,,,128,0,14,,,,,5,,,45,100
20352,note_on,,,,,0,0,10,,,,,2,,,57,60
20352,note_on,,,,,128,0,10,,,,,2,,,64,60
20608,note_off,,,,,0,0,10,,,,,2,,,57,100
20608,note_off,,,,,256,0,11,,,,,3,,,45,100
20608,note_off,,,,,256,0,10,,,,,2,,,64,100
20608,note_off,,,,,0,0,9,,,,,1,,,72,100
20608,note_off,,,,,256,0,13,,,,,5,,,60,100
20608,note_off,,,,,256,0,12,,,,,4,,,33,100
20608,note_off,,,,,0,0,13,,,,,5,,,64,100
20608,note_off,,,,,256,0,9,,,,,1,,,81,100
20608,note_off,,,,,256,0,14,,,,,5,,,45,100
20736,note_on,,,,,128,0,13,,,,,5,,,67,100
20736,note_on,,,,,0,0,9,,,,,1,,,73,60
20736,note_on,,,,,128,0,9,,,,,1,,,79,60
20736,note_on,,,,,128,0,11,,,,,3,,,45,60
20736,note_on,,,,,128,0,12,,,,,4,,,33,60
20736,note_on,,,,,128,0,14,,,,,5,,,45,100
20736,note_on,,,,,0,0,10,,,,,2,,,57,60
20736,note_on,,,,,128,0,10,,,,,2,,,64,60
20828,note_off,,,,,92,0,13,,,,,5,,,67,100
20832,note_on,,,,,4,0,13,,,,,5,,,64,100
20924,note_off,,,,,92,0,13,,,,,5,,,64,100
20928,note_on,,,,,4,0,13,,,,,5,,,61,100
20992,note_off,,,,,256,0,14,,,,,5,,,45,100
20992,note_off,,,,,256,0,11,,,,,3,,,45,100
20992,note_off,,,,,0,0,9,,,,,1,,,73,100
20992,note_off,,,,,256,0,9,,,,,1,,,79,100
20992,note_off,,,,,256,0,12,,,,,4,,,33,100
20992,note_off,,,,,0,0,10,,,,,2,,,57,100
20992,note_off,,,,,256,0,10,,,,,2,,,64,100
21020,note_off,,,,,92,0,13,,,,,5,,,61,100
21024,note_on,,,,,4,0,13,,,,,5,,,57,100
21116,note_off,,,,,92,0,13,,,,,5,,,57,100
21120,note_on,,,,,0,0,9,,,,,1,,,73,60
21120,note_on,,,,,128,0,9,,,,,1,,,79,60
21120,note_on,,,,,128,0,14,,,,,5,,,45,100
21120,note_on,,,,,128,0,12,,,,,4,,,33,60
21120,note_on,,,,,4,0,13,,,,,5,,,55,100
21120,note_on,,,,,128,0,10,,,,,2,,,64,60
21120,note_on,,,,,128,0,11,,,,,3,,,45,60
21120,note_on,,,,,0,0,10,,,,,2,,,57,60
21212,note_off,,,,,92,0,13,,,,,5,,,55,100
21216,note_on,,,,,4,0,13,,,,,5,,,57,100
21308,note_off,,,,,92,0,13,,,,,5,,,57,100
21312,note_on,,,,,4,0,13,,,,,5,,,61,100
21376,note_off,,,,,0,0,9,,,,,1,,,73,100
21376,note_off,,,,,256,0,14,,,,,5,,,45,100
21376,note_off,,,,,256,0,11,,,,,3,,,45,100
21376,note_off,,,,,0,0,10,,,,,2,,,57,100
21376,note_off,,,,,256,0,10,,,,,2,,,64,100
21376,note_off,,,,,256,0,9,,,,,1,,,79,100
21376,note_off,,,,,256,0,12,,,,,4,,,33,100
21404,note_off,,,,,92,0,13,,,,,5,,,61,100
21408,note_on,,,,,4,0,13,,,,,5,,,64,100
21500,note_off,,,,,92,0,13,,,,,5,,,64,100
21504,note_on,,,,,128,0,14,,,,,5,,,45,100
21504,note_on,,,,,128,0,12,,,,,4,,,33,60
21504,note_on,,,,,4,0,13,,,,,5,,,67,100
21504,note_on,,,,,128,0,10,,,,,2,,,64,60
21504,note_on,,,,,0,0,9,,,,,1,,,73,60
21504,note_on,,,,,128,0,9,,,,,1,,,79,60
21504,note_on,,,,,128,0,11,,,,,3,,,45,60
21504,note_on,,,,,0,0,10,,,,,2,,,57,60
21596,note_off,,,,,92,0,13,,,,,5,,,67,100
21600,note_on,,,,,4,0,13,,,,,5,,,71,100
21692,note_off,,,,,92,0,13,,,,,5,,,71,100
21696,note_on,,,,,4,0,13,,,,,5,,,69,100
21760,note_off,,,,,256,0,11,,,,,3,,,45,100
21760,note_off,,,,,256,0,12,,,,,4,,,33,100
21760,note_off,,,,,0,0,9,,,,,1,,,73,100
21760,note_off,,,,,256,0,14,,,,,5,,,45,100
21760,note_off,,,,,256,0,10,,,,,2,,,64,100
21760,note_off,,,,,0,0,10,,,,,2,,,57,100
21760,note_off,,,,,256,0,9,,,,,1,,,79,100
21788,note_off,,,,,92,0,13,,,,,5,,,69,100
21792,note_on,,,,,4,0,13,,,,,5,,,67,100
21884,note_off,,,,,92,0,13,,,,,5,,,67,100
21888,note_on,,,,,2048,0,8,,,,,0,,,78,70
21888,note_on,,,,,128,0,12,,,,,4,,,38,60
21888,note_on,,,,,4,0,13,,,,,5,,,62,100
21888,note_on,,,,,128,0,11,,,,,3,,,50,60
21888,note_on,,,,,0,0,10,,,,,2,,,57,60
21888,note_on,,,,,0,0,13,,,,,5,,,66,100
21888,note_on,,,,,128,0,10,,,,,2,,,62,60
21888,note_on,,,,,128,0,9,,,,,1,,,78,60
21888,note_on,,,,,0,0,9,,,,,1,,,74,60
21888,note_on,,,,,128,0,14,,,,,5,,,50,100
21980,note_off,,,,,92,0,8,,,,,0,,,78,100
21984,note_on,,,,,4,0,8,,,,,0,,,74,70
22048,note_off,,,,,64,0,8,,,,,0,,,74,100
22080,note_on,,,,,32,0,8,,,,,0,,,74,70
22144,note_off,,,,,256,0,10,,,,,2,,,62,100
22144,note_off,,,,,256,0,12,,,,,4,,,38,100
22144,note_off,,,,,0,0,9,,,,,1,,,74,100
22144,note_off,,,,,0,0,13,,,,,5,,,66,100
22144,note_off,,,,,256,0,13,,,,,5,,,62,100
22144,note_off,,,,,0,0,10,,,,,2,,,57,100
22144,note_off,,,,,256,0,11,,,,,3,,,50,100
22144,note_off,,,,,256,0,9,,,,,1,,,78,100
22144,note_off,,,,,256,0,14,,,,,5,,,50,100
22172,note_off,,,,,92,0,8,,,,,0,,,74,100
22176,note_on,,,,,4,0,8,,,,,0,,,81,70
22240,note_off,,,,,64,0,8,,,,,0,,,81,100
22272,note_on,,,,,32,0,8,,,,,0,,,81,70
22272,note_on,,,,,128,0,14,,,,,5,,,50,100
22272,note_on,,,,,128,0,12,,,,,4,,,38,60
22272,note_on,,,,,128,0,13,,,,,5,,,66,100
22272,note_on,,,,,0,0,13,,,,,5,,,69,100
22272,note_on,,,,,128,0,11,,,,,3,,,50,60
22364,note_off,,,,,92,0,8,,,,,0,,,81,100
22368,note_on,,,,,4,0,8,,,,,0,,,74,70
22432,note_off,,,,,64,0,8,,,,,0,,,74,100
22464,note_on,,,,,32,0,8,,,,,0,,,74,70
22528,note_off,,,,,256,0,14,,,,,5,,,50,100
22528,note_off,,,,,256,0,12,,,,,4,,,38,100
22528,note_off,,,,,256,0,13,,,,,5,,,66,100
22528,note_off,,,,,0,0,13,,,,,5,,,69,100
22528,note_off,,,,,256,0,11,,,,,3,,,50,100
22556,note_off,,,,,92,0,8,,,,,0,,,74,100
22560,note_on,,,,,4,0,8,,,,,0,,,78,70
22624,note_off,,,,,64,0,8,,,,,0,,,78,100
22656,note_on,,,,,128,0,12,,,,,4,,,38,60
22656,note_on,,,,,128,0,14,,,,,5,,,50,100
22656,note_on,,,,,32,0,8,,,,,0,,,78,70
22656,note_on,,,,,128,0,11,,,,,3,,,50,60
22656,note_on,,,,,0,0,13,,,,,5,,,69,100
22656,note_on,,,,,128,0,13,,,,,5,,,66,100
22748,note_off,,,,,92,0,8,,,,,0,,,78,100
22752,note_on,,,,,4,0,8,,,,,0,,,81,70
22816,note_off,,,,,64,0,8,,,,,0,,,81,100
22848,note_on,,,,,32,0,8,,,,,0,,,79,70
22912,note_off,,,,,256,0,13,,,,,5,,,66,100
22912,note_off,,,,,256,0,14,,,,,5,,,50,100
22912,note_off,,,,,256,0,11,,,,,3,,,50,100
22912,note_off,,,,,0,0,13,,,,,5,,,69,100
22912,note_off,,,,,256,0,12,,,,,4,,,38,100
22940,note_off,,,,,92,0,8,,,,,0,,,79,100
22944,note_on,,,,,4,0,8,,,,,0,,,78,70
23008,note_off,,,,,64,0,8,,,,,0,,,78,100
23040,note_on,,,,,0,0,13,,,,,5,,,71,100
23040,note_on,,,,,128,0,11,,,,,3,,,51,60
23040,note_on,,,,,128,0,13,,,,,5,,,66,100
23040,note_on,,,,,128,0,12,,,,,4,,,39,60
23040,note_on,,,,,32,0,8,,,,,0,,,83,70
23040,note_on,,,,,128,0,14,,,,,5,,,51,100
23132,note_off,,,,,92,0,8,,,,,0,,,83,100
23136,note_on,,,,,4,0,8,,,,,0,,,75,70
23200,note_off,,,,,64,0,8,,,,,0,,,75,100
23232,note_on,,,,,32,0,8,,,,,0,,,75,70
23296,note_off,,,,,256,0,13,,,,,5,,,66,100
23296,note_off,,,,,0,0,13,,,,,5,,,71,100
23296,note_off,,,,,256,0,11,,,,,3,,,51,100
23296,note_off,,,,,256,0,12,,,,,4,,,39,100
23296,note_off,,,,,256,0,14,,,,,5,,,51,100
23324,note_off,,,,,92,0,8,,,,,0,,,75,100
23328,note_on,,,,,4,0,8,,,,,0,,,78,70
23392,note_off,,,,,64,0,8,,,,,0,,,78,100
23424,note_on,,,,,128,0,14,,,,,5,,,51,100
23424,note_on,,,,,128,0,13,,,,,5,,,66,100
23424,note_on,,,,,0,0,13,,,,,5,,,71,100
23424,note_on,,,,,32,0,8,,,,,0,,,78,70
23424,note_on,,,,,128,0,12,,,,,4,,,39,60
23424,note_on,,,,,128,0,11,,,,,3,,,51,60
23516,note_off,,,,,92,0,8,,,,,0,,,78,100
23520,note_on,,,,,4,0,8,,,,,0,,,71,70
23584,note_off,,,,,64,0,8,,,,,0,,,71,100
23616,note_on,,,,,32,0,8,,,,,0,,,71,70
23680,note_off,,,,,256,0,11,,,,,3,,,51,100
23680,note_off,,,,,256,0,14,,,,,5,,,51,100
23680,note_off,,,,,0,0,13,,,,,5,,,71,100
23680,note_off,,,,,256,0,13,,,,,5,,,66,100
23680,note_off,,,,,256,0,12,,,,,4,,,39,100
23708,note_off,,,,,92,0,8,,,,,0,,,71,100
23712,note_on,,,,,4,0,8,,,,,0,,,78,70
23776,note_off,,,,,64,0,8,,,,,0,,,78,100
23808,note_on,,,,,128,0,12,,,,,4,,,39,60
23808,note_on,,,,,32,0,8,,,,,0,,,78,70
23808,note_on,,,,,128,0,13,,,,,5,,,69,100
23808,note_on,,,,,0,0,13,,,,,5,,,71,100
23808,note_on,,,,,128,0,14,,,,,5,,,51,100
23808,note_on,,,,,128,0,11,,,,,3,,,51,60
23900,note_off,,,,,92,0,8,,,,,0,,,78,100
23904,note_on,,,,,4,0,8,,,,,0,,,81,70
23968,note_off,,,,,64,0,8,,,,,0,,,81,100
24000,note_on,,,,,32,0,8,,,,,0,,,81,70
24064,note_off,,,,,256,0,12,,,,,4,,,39,100
24064,note_off,,,,,256,0,13,,,,,5,,,69,100
24064,note_off,,,,,0,0,13,,,,,5,,,71,100
24064,note_off,,,,,256,0,14,,,,,5,,,51,100
24064,note_off,,,,,256,0,11,,,,,3,,,51,100
24092,note_off,,,,,92,0,8,,,,,0,,,81,100
24096,note_on,,,,,4,0,8,,,,,0,,,78,70
24160,note_off,,,,,64,0,8,,,,,0,,,78,100
24192,note_on,,,,,128,0,12,,,,,4,,,40,60
24192,note_on,,,,,128,0,13,,,,,5,,,67,100
24192,note_on,,,,,32,0,8,,,,,0,,,79,70
24192,note_on,,,,,0,0,13,,,,,5,,,71,100
24192,note_on,,,,,128,0,14,,,,,5,,,52,100
24192,note_on,,,,,128,0,11,,,,,3,,,52,60
24284,note_off,,,,,92,0,8,,,,,0,,,79,100
24288,note_on,,,,,4,0,8,,,,,0,,,76,70
24352,note_off,,,,,64,0,8,,,,,0,,,76,100
24384,note_on,,,,,32,0,8,,,,,0,,,76,70
24448,note_off,,,,,256,0,12,,,,,4,,,40,100
24448,note_off,,,,,0,0,13,,,,,5,,,71,100
24448,note_off,,,,,256,0,13,,,,,5,,,67,100
24448,note_off,,,,,256,0,11,,,,,3,,,52,100
24448,note_off,,,,,256,0,14,,,,,5,,,52,100
24476,note_off,,,,,92,0,8,,,,,0,,,76,100
24480,note_on,,,,,4,0,8,,,,,0,,,77,70
24544,note_off,,,,,64,0,8,,,,,0,,,77,100
24576,note_on,,,,,32,0,8,,,,,0,,,77,70
24668,note_off,,,,,92,0,8,,,,,0,,,77,100
24672,note_on,,,,,4,0,8,,,,,0,,,80,70
24736,note_off,,,,,64,0,8,,,,,0,,,80,100
24768,note_on,,,,,32,0,8,,,,,0,,,80,70
24860,note_off,,,,,92,0,8,,,,,0,,,80,100
24864,note_on,,,,,4,0,8,,,,,0,,,81,70
24928,note_off,,,,,64,0,8,,,,,0,,,81,100
24960,note_on,,,,,32,0,8,,,,,0,,,81,70
25052,note_off,,,,,92,0,8,,,,,0,,,81,100
25056,note_on,,,,,4,0,8,,,,,0,,,82,70
25120,note_off,,,,,64,0,8,,,,,0,,,82,100
25152,note_on,,,,,32,0,8,,,,,0,,,82,70
25244,note_off,,,,,92,0,8,,,,,0,,,82,100
25248,note_on,,,,,4,0,8,,,,,0,,,83,70
25312,note_off,,,,,64,0,8,,,,,0,,,83,100
25344,note_on,,,,,896,0,13,,,,,5,,,66,100
25344,note_on,,,,,0,0,13,,,,,5,,,71,100
25344,note_on,,,,,32,0,8,,,,,0,,,83,70
25344,note_on,,,,,896,0,14,,,,,5,,,51,100
25344,note_on,,,,,896,0,12,,,,,4,,,39,60
25344,note_on,,,,,896,0,11,,,,,3,,,51,60
25600,note_off,,,,,256,0,13,,,,,5,,,66,100
25600,note_off,,,,,256,0,12,,,,,4,,,39,100
25600,note_off,,,,,256,0,14,,,,,5,,,51,100
25600,note_off,,,,,256,0,11,,,,,3,,,51,100
25600,note_off,,,,,0,0,13,,,,,5,,,71,100
25728,note_on,,,,,128,0,14,,,,,5,,,51,100
25728,note_on,,,,,128,0,11,,,,,3,,,51,60
25728,note_on,,,,,0,0,13,,,,,5,,,71,100
25728,note_on,,,,,128,0,13,,,,,5,,,66,100
25728,note_off,,,,,384,0,8,,,,,0,,,83,100
25728,note_on,,,,,128,0,12,,,,,4,,,39,60
25824,note_on,,,,,96,0,8,,,,,0,,,71,70
25916,note_off,,,,,92,0,8,,,,,0,,,71,100
25920,note_on,,,,,4,0,8,,,,,0,,,69,70
25984,note_off,,,,,256,0,13,,,,,5,,,66,100
25984,note_off,,,,,0,0,13,,,,,5,,,71,100
25984,note_off,,,,,256,0,11,,,,,3,,,51,100
25984,note_off,,,,,256,0,12,,,,,4,,,39,100
25984,note_off,,,,,256,0,14,,,,,5,,,51,100
26012,note_off,,,,,92,0,8,,,,,0,,,69,100
26016,note_on,,,,,4,0,8,,,,,0,,,71,70
26080,note_off,,,,,64,0,8,,,,,0,,,71,100
26112,note_on,,,,,128,0,14,,,,,5,,,51,100
26112,note_on,,,,,128,0,11,,,,,3,,,51,60
26112,note_on,,,,,128,0,12,,,,,4,,,39,60
26112,note_on,,,,,32,0,8,,,,,0,,,81,70
26112,note_on,,,,,128,0,13,,,,,5,,,69,100
26112,note_on,,,,,0,0,13,,,,,5,,,71,100
26204,note_off,,,,,92,0,8,,,,,0,,,81,100
26208,note_on,,,,,4,0,8,,,,,0,,,71,70
26300,note_off,,,,,92,0,8,,,,,0,,,71,100
26304,note_on,,,,,4,0,8,,,,,0,,,69,70
26368,note_off,,,,,256,0,14,,,,,5,,,51,100
26368,note_off,,,,,0,0,13,,,,,5,,,71,100
26368,note_off,,,,,256,0,12,,,,,4,,,39,100
26368,note_off,,,,,256,0,13,,,,,5,,,69,100
26368,note_off,,,,,256,0,11,,,,,3,,,51,100
26396,note_off,,,,,92,0,8,,,,,0,,,69,100
26400,note_on,,,,,4,0,8,,,,,0,,,71,70
26464,note_off,,,,,64,0,8,,,,,0,,,71,100
26496,note_on,,,,,128,0,13,,,,,5,,,71,100
26496,note_on,,,,,128,0,11,,,,,3,,,52,60
26496,note_on,,,,,128,0,14,,,,,5,,,52,100
26496,note_on,,,,,128,0,12,,,,,4,,,40,60
26496,note_on,,,,,0,0,13,,,,,5,,,67,100
26496,note_on,,,,,32,0,8,,,,,0,,,79,70
26624,note_off,,,,,128,0,12,,,,,4,,,40,100
26624,note_off,,,,,0,0,13,,,,,5,,,67,100
26624,note_off,,,,,128,0,13,,,,,5,,,71,100
26624,note_off,,,,,128,0,14,,,,,5,,,52,100
26624,note_off,,,,,128,0,11,,,,,3,,,52,100
26624,note_off,,,,,128,0,8,,,,,0,,,79,100
26688,note_on,,,,,64,0,14,,,,,5,,,57,100
26688,note_on,,,,,64,0,11,,,,,3,,,57,60
26688,note_on,,,,,64,0,8,,,,,0,,,78,70
26688,note_on,,,,,0,0,13,,,,,5,,,72,100
26688,note_on,,,,,64,0,13,,,,,5,,,64,100
26688,note_on,,,,,64,0,12,,,,,4,,,45,60
26752,note_off,,,,,64,0,8,,,,,0,,,78,100
26784,note_on,,,,,32,0,8,,,,,0,,,76,70
26816,note_off,,,,,128,0,12,,,,,4,,,45,100
26816,note_off,,,,,0,0,13,,,,,5,,,72,100
26816,note_off,,,,,128,0,13,,,,,5,,,64,100
26816,note_off,,,,,128,0,11,,,,,3,,,57,100
26816,note_off,,,,,128,0,14,,,,,5,,,57,100
26848,note_off,,,,,64,0,8,,,,,0,,,76,100
26880,note_on,,,,,64,0,12,,,,,4,,,47,60
26880,note_on,,,,,0,0,13,,,,,5,,,66,100
26880,note_on,,,,,64,0,13,,,,,5,,,75,100
26880,note_on,,,,,64,0,14,,,,,5,,,59,100
26880,note_on,,,,,64,0,11,,,,,3,,,59,60
26880,note_on,,,,,32,0,8,,,,,0,,,76,70
26972,note_off,,,,,92,0,8,,,,,0,,,76,100
26976,note_on,,,,,4,0,8,,,,,0,,,75,70
27020,note_off,,,,,44,0,8,,,,,0,,,75,100
27024,note_on,,,,,4,0,8,,,,,0,,,76,70
27068,note_off,,,,,44,0,8,,,,,0,,,76,100
27072,note_on,,,,,4,0,8,,,,,0,,,75,70
27092,note_off,,,,,20,0,8,,,,,0,,,75,100
27096,note_on,,,,,4,0,8,,,,,0,,,76,70
27116,note_off,,,,,20,0,8,,,,,0,,,76,100
27120,note_on,,,,,4,0,8,,,,,0,,,75,70
27136,note_off,,,,,256,0,11,,,,,3,,,59,100
27136,note_off,,,,,256,0,14,,,,,5,,,59,100
27136,note_off,,,,,256,0,13,,,,,5,,,75,100
27136,note_off,,,,,0,0,13,,,,,5,,,66,100
27136,note_off,,,,,256,0,12,,,,,4,,,47,100
27140,note_off,,,,,20,0,8,,,,,0,,,75,100
27144,note_on,,,,,4,0,8,,,,,0,,,76,70
27164,note_off,,,,,20,0,8,,,,,0,,,76,100
27168,note_on,,,,,4,0,8,,,,,0,,,75,70
27188,note_off,,,,,20,0,8,,,,,0,,,75,100
27192,note_on,,,,,4,0,8,,,,,0,,,76,70
27212,note_off,,,,,20,0,8,,,,,0,,,76,100
27216,note_on,,,,,4,0,8,,,,,0,,,75,70
27236,note_off,,,,,20,0,8,,,,,0,,,75,100
27240,note_on,,,,,4,0,8,,,,,0,,,76,70
27260,note_off,,,,,20,0,8,,,,,0,,,76,100
27264,note_on,,,,,0,0,13,,,,,5,,,66,100
27264,note_on,,,,,128,0,13,,,,,5,,,63,100
27264,note_on,,,,,128,0,12,,,,,4,,,35,60
27264,note_on,,,,,128,0,11,,,,,3,,,47,60
27264,note_on,,,,,4,0,8,,,,,0,,,75,70
27264,note_on,,,,,128,0,14,,,,,5,,,47,100
27452,note_off,,,,,188,0,8,,,,,0,,,75,100
27456,note_on,,,,,4,0,8,,,,,0,,,76,70
27520,note_off,,,,,256,0,12,,,,,4,,,35,100
27520,note_off,,,,,256,0,13,,,,,5,,,63,100
27520,note_off,,,,,0,0,13,,,,,5,,,66,100
27520,note_off,,,,,256,0,11,,,,,3,,,47,100
27520,note_off,,,,,256,0,14,,,,,5,,,47,100
27584,note_off,,,,,128,0,8,,,,,0,,,76,100
27648,note_on,,,,,0,0,13,,,,,5,,,71,100
27648,note_on,,,,,128,0,13,,,,,5,,,67,100
27648,note_on,,,,,128,0,11,,,,,3,,,52,60
27648,note_on,,,,,64,0,8,,,,,0,,,76,70
27648,note_on,,,,,128,0,14,,,,,5,,,52,100
27648,note_on,,,,,5504,0,9,,,,,1,,,79,60
27648,note_on,,,,,5504,0,10,,,,,2,,,71,60
27648,note_on,,,,,128,0,12,,,,,4,,,40,60
27648,note_on,,,,,0,0,9,,,,,1,,,76,60
27904,note_off,,,,,256,0,9,,,,,1,,,79,100
27904,note_off,,,,,0,0,9,,,,,1,,,76,100
27904,note_off,,,,,256,0,10,,,,,2,,,71,100
27904,note_off,,,,,256,0,12,,,,,4,,,40,100
27904,note_off,,,,,0,0,13,,,,,5,,,71,100
27904,note_off,,,,,256,0,13,,,,,5,,,67,100
27904,note_off,,,,,256,0,8,,,,,0,,,76,100
27904,note_off,,,,,256,0,14,,,,,5,,,52,100
27904,note_off,,,,,256,0,11,,,,,3,,,52,100
28032,note_on,,,,,128,0,10,,,,,2,,,71,60
28032,note_on,,,,,128,0,12,,,,,4,,,40,60
28032,note_on,,,,,128,0,14,,,,,5,,,52,100
28032,note_on,,,,,128,0,13,,,,,5,,,67,100
28032,note_on,,,,,128,0,11,,,,,3,,,52,60
28032,note_on,,,,,0,0,13,,,,,5,,,71,100
28032,note_on,,,,,0,0,9,,,,,1,,,76,60
28032,note_on,,,,,128,0,9,,,,,1,,,79,60
28288,note_off,,,,,256,0,9,,,,,1,,,79,100
28288,note_off,,,,,0,0,13,,,,,5,,,71,100
28288,note_off,,,,,256,0,14,,,,,5,,,52,100
28288,note_off,,,,,0,0,9,,,,,1,,,76,100
28288,note_off,,,,,256,0,13,,,,,5,,,67,100
28288,note_off,,,,,256,0,12,,,,,4,,,40,100
28288,note_off,,,,,256,0,11,,,,,3,,,52,100
28288,note_off,,,,,256,0,10,,,,,2,,,71,100
28416,note_on,,,,,128,0,13,,,,,5,,,67,100
28416,note_on,,,,,0,0,13,,,,,5,,,71,100
28416,note_on,,,,,128,0,10,,,,,2,,,71,60
28416,note_on,,,,,128,0,9,,,,,1,,,79,60
28416,note_on,,,,,0,0,9,,,,,1,,,76,60
28416,note_on,,,,,128,0,11,,,,,3,,,52,60
28416,note_on,,,,,128,0,14,,,,,5,,,52,100
28416,note_on,,,,,128,0,12,,,,,4,,,40,60
28672,note_off,,,,,256,0,9,,,,,1,,,79,100
28672,note_off,,,,,0,0,9,,,,,1,,,76,100
28672,note_off,,,,,256,0,11,,,,,3,,,52,100
28672,note_off,,,,,256,0,14,,,,,5,,,52,100
28672,note_off,,,,,256,0,12,,,,,4,,,40,100
28672,note_off,,,,,256,0,13,,,,,5,,,67,100
28672,note_off,,,,,0,0,13,,,,,5,,,71,100
28672,note_off,,,,,256,0,10,,,,,2,,,71,100
28800,note_on,,,,,128,0,14,,,,,5,,,52,100
28800,note_on,,,,,128,0,13,,,,,5,,,68,100
28800,note_on,,,,,0,0,13,,,,,5,,,64,100
28800,note_on,,,,,896,0,8,,,,,0,,,80,70
28800,note_on,,,,,128,0,12,,,,,4,,,40,60
28800,note_on,,,,,128,0,9,,,,,1,,,80,60
28800,note_on,,,,,0,0,9,,,,,1,,,74,60
28800,note_on,,,,,128,0,11,,,,,3,,,52,60
28800,note_on,,,,,128,0,10,,,,,2,,,64,60
28800,note_on,,,,,0,0,10,,,,,2,,,71,60
28844,note_on,,,,,44,0,13,,,,,5,,,71,100
28868,note_on,,,,,24,0,13,,,,,5,,,74,100
28928,note_off,,,,,128,0,8,,,,,0,,,80,100
28992,note_on,,,,,64,0,8,,,,,0,,,83,70
29056,note_off,,,,,256,0,9,,,,,1,,,80,100
29056,note_off,,,,,256,0,10,,,,,2,,,64,100
29056,note_off,,,,,0,0,9,,,,,1,,,74,100
29056,note_off,,,,,0,0,10,,,,,2,,,71,100
29120,note_off,,,,,128,0,8,,,,,0,,,83,100
29184,note_on,,,,,64,0,8,,,,,0,,,83,70
29276,note_off,,,,,92,0,8,,,,,0,,,83,100
29280,note_on,,,,,4,0,8,,,,,0,,,81,70
29372,note_off,,,,,92,0,8,,,,,0,,,81,100
29376,note_on,,,,,4,0,8,,,,,0,,,80,70
29468,note_off,,,,,92,0,8,,,,,0,,,80,100
29472,note_on,,,,,4,0,8,,,,,0,,,78,70
29564,note_off,,,,,92,0,8,,,,,0,,,78,100
29568,note_off,,,,,0,0,13,,,,,5,,,64,100
29568,note_off,,,,,700,0,13,,,,,5,,,68,100
29568,note_on,,,,,4,0,8,,,,,0,,,76,70
29612,note_off,,,,,44,0,13,,,,,5,,,71,100
29636,note_off,,,,,24,0,13,,,,,5,,,74,100
29660,note_off,,,,,92,0,8,,,,,0,,,76,100
29664,note_on,,,,,4,0,8,,,,,0,,,74,70
29756,note_off,,,,,92,0,8,,,,,0,,,74,100
29760,note_on,,,,,4,0,8,,,,,0,,,72,70
29836,note_off,,,,,1036,0,11,,,,,3,,,52,100
29836,note_off,,,,,1036,0,14,,,,,5,,,52,100
29836,note_off,,,,,1036,0,12,,,,,4,,,40,100
29852,note_off,,,,,92,0,8,,,,,0,,,72,100
29856,note_on,,,,,4,0,8,,,,,0,,,71,70
29920,note_off,,,,,64,0,8,,,,,0,,,71,100
29952,note_on,,,,,116,0,12,,,,,4,,,33,60
29952,note_on,,,,,116,0,11,,,,,3,,,45,60
29952,note_on,,,,,316,0,13,,,,,5,,,57,100
29952,note_on,,,,,116,0,14,,,,,5,,,45,100
29952,note_on,,,,,32,0,8,,,,,0,,,72,70
29972,note_on,,,,,20,0,13,,,,,5,,,60,100
29996,note_on,,,,,24,0,13,,,,,5,,,64,100
30020,note_on,,,,,24,0,13,,,,,5,,,69,100
30080,note_off,,,,,128,0,8,,,,,0,,,72,100
30144,note_on,,,,,64,0,8,,,,,0,,,76,70
30272,note_off,,,,,128,0,8,,,,,0,,,76,100
30336,note_on,,,,,64,0,8,,,,,0,,,76,70
30428,note_off,,,,,92,0,8,,,,,0,,,76,100
30432,note_on,,,,,4,0,8,,,,,0,,,74,70
30524,note_off,,,,,92,0,8,,,,,0,,,74,100
30528,note_on,,,,,4,0,8,,,,,0,,,72,70
30620,note_off,,,,,92,0,8,,,,,0,,,72,100
30624,note_on,,,,,4,0,8,,,,,0,,,71,70
30716,note_off,,,,,92,0,8,,,,,0,,,71,100
30720,note_off,,,,,700,0,13,,,,,5,,,57,100
30720,note_on,,,,,4,0,8,,,,,0,,,69,70
30740,note_off,,,,,20,0,13,,,,,5,,,60,100
30764,note_off,,,,,24,0,13,,,,,5,,,64,100
30788,note_off,,,,,24,0,13,,,,,5,,,69,100
30812,note_off,,,,,92,0,8,,,,,0,,,69,100
30816,note_on,,,,,4,0,8,,,,,0,,,67,70
30908,note_off,,,,,92,0,8,,,,,0,,,67,100
30912,note_on,,,,,4,0,8,,,,,0,,,66,70
30988,note_off,,,,,1036,0,11,,,,,3,,,45,100
30988,note_off,,,,,1036,0,14,,,,,5,,,45,100
30988,note_off,,,,,1036,0,12,,,,,4,,,33,100
31004,note_off,,,,,92,0,8,,,,,0,,,66,100
31008,note_on,,,,,4,0,8,,,,,0,,,64,70
31072,note_off,,,,,64,0,8,,,,,0,,,64,100
31104,note_on,,,,,116,0,14,,,,,5,,,47,100
31104,note_on,,,,,116,0,11,,,,,3,,,47,60
31104,note_on,,,,,316,0,13,,,,,5,,,63,100
31104,note_on,,,,,0,0,13,,,,,5,,,69,100
31104,note_on,,,,,116,0,12,,,,,4,,,35,60
31104,note_on,,,,,32,0,8,,,,,0,,,75,70
31196,note_off,,,,,92,0,8,,,,,0,,,75,100
31200,note_on,,,,,4,0,8,,,,,0,,,71,70
31292,note_off,,,,,92,0,8,,,,,0,,,71,100
31296,note_on,,,,,4,0,8,,,,,0,,,69,70
31360,note_off,,,,,256,0,12,,,,,4,,,35,100
31360,note_off,,,,,256,0,14,,,,,5,,,47,100
31360,note_off,,,,,256,0,11,,,,,3,,,47,100
31360,note_off,,,,,0,0,13,,,,,5,,,69,100
31360,note_off,,,,,256,0,13,,,,,5,,,63,100
31388,note_off,,,,,92,0,8,,,,,0,,,69,100
31392,note_on,,,,,4,0,8,,,,,0,,,71,70
31456,note_off,,,,,64,0,8,,,,,0,,,71,100
31488,note_on,,,,,128,0,13,,,,,5,,,63,100
31488,note_on,,,,,0,0,13,,,,,5,,,69,100
31488,note_on,,,,,128,0,14,,,,,5,,,47,100
31488,note_on,,,,,128,0,11,,,,,3,,,47,60
31488,note_on,,,,,32,0,8,,,,,0,,,78,70
31488,note_on,,,,,128,0,12,,,,,4,,,35,60
31580,note_off,,,,,92,0,8,,,,,0,,,78,100
31584,note_on,,,,,4,0,8,,,,,0,,,71,70
31676,note_off,,,,,92,0,8,,,,,0,,,71,100
31680,note_on,,,,,4,0,8,,,,,0,,,69,70
31744,note_off,,,,,256,0,11,,,,,3,,,47,100
31744,note_off,,,,,256,0,12,,,,,4,,,35,100
31744,note_off,,,,,256,0,14,,,,,5,,,47,100
31744,note_off,,,,,256,0,13,,,,,5,,,63,100
31744,note_off,,,,,0,0,13,,,,,5,,,69,100
31772,note_off,,,,,92,0,8,,,,,0,,,69,100
31776,note_on,,,,,4,0,8,,,,,0,,,71,70
31840,note_off,,,,,64,0,8,,,,,0,,,71,100
31872,note_on,,,,,128,0,13,,,,,5,,,63,100
31872,note_on,,,,,0,0,13,,,,,5,,,69,100
31872,note_on,,,,,32,0,8,,,,,0,,,81,70
31872,note_on,,,,,128,0,11,,,,,3,,,47,60
31872,note_on,,,,,128,0,12,,,,,4,,,35,60
31872,note_on,,,,,128,0,14,,,,,5,,,47,100
31964,note_off,,,,,92,0,8,,,,,0,,,81,100
31968,note_on,,,,,4,0,8,,,,,0,,,71,70
32060,note_off,,,,,92,0,8,,,,,0,,,71,100
32064,note_on,,,,,4,0,8,,,,,0,,,69,70
32128,note_off,,,,,256,0,13,,,,,5,,,63,100
32128,note_off,,,,,0,0,13,,,,,5,,,69,100
32128,note_off,,,,,256,0,14,,,,,5,,,47,100
32128,note_off,,,,,256,0,12,,,,,4,,,35,100
32128,note_off,,,,,256,0,11,,,,,3,,,47,100
32156,note_off,,,,,92,0,8,,,,,0,,,69,100
32160,note_on,,,,,4,0,8,,,,,0,,,71,70
32224,note_off,,,,,64,0,8,,,,,0,,,71,100
32256,note_on,,,,,128,0,13,,,,,5,,,71,100
32256,note_on,,,,,0,0,13,,,,,5,,,67,100
32256,note_on,,,,,128,0,14,,,,,5,,,52,100
32256,note_on,,,,,32,0,8,,,,,0,,,79,70
32256,note_on,,,,,128,0,11,,,,,3,,,52,60
32256,note_on,,,,,128,0,12,,,,,4,,,40,60
32384,note_off,,,,,128,0,12,,,,,4,,,40,100
32384,note_off,,,,,128,0,8,,,,,0,,,79,100
32384,note_off,,,,,128,0,11,,,,,3,,,52,100
32384,note_off,,,,,128,0,14,,,,,5,,,52,100
32384,note_off,,,,,0,0,13,,,,,5,,,67,100
32384,note_off,,,,,128,0,13,,,,,5,,,71,100
32448,note_on,,,,,64,0,8,,,,,0,,,78,70
32448,note_on,,,,,64,0,11,,,,,3,,,57,60
32448,note_on,,,,,64,0,13,,,,,5,,,64,100
32448,note_on,,,,,0,0,13,,,,,5,,,72,100
32448,note_on,,,,,64,0,12,,,,,4,,,45,60
32448,note_on,,,,,64,0,14,,,,,5,,,57,100
32512,note_off,,,,,64,0,8,,,,,0,,,78,100
32544,note_on,,,,,32,0,8,,,,,0,,,76,70
32576,note_off,,,,,128,0,12,,,,,4,,,45,100
32576,note_off,,,,,128,0,14,,,,,5,,,57,100
32576,note_off,,,,,128,0,13,,,,,5,,,64,100
32576,note_off,,,,,0,0,13,,,,,5,,,72,100
32576,note_off,,,,,128,0,11,,,,,3,,,57,100
32608,note_off,,,,,64,0,8,,,,,0,,,76,100
32640,note_on,,,,,64,0,11,,,,,3,,,59,60
32640,note_on,,,,,64,0,12,,,,,4,,,47,60
32640,note_on,,,,,32,0,8,,,,,0,,,76,70
32640,note_on,,,,,64,0,14,,,,,5,,,59,100
32640,note_on,,,,,0,0,13,,,,,5,,,66,100
32640,note_on,,,,,64,0,13,,,,,5,,,75,100
32732,note_off,,,,,92,0,8,,,,,0,,,76,100
32736,note_on,,,,,4,0,8,,,,,0,,,75,70
32780,note_off,,,,,44,0,8,,,,,0,,,75,100
32784,note_on,,,,,4,0,8,,,,,0,,,76,70
32828,note_off,,,,,44,0,8,,,,,0,,,76,100
32832,note_on,,,,,4,0,8,,,,,0,,,75,70
32852,note_off,,,,,20,0,8,,,,,0,,,75,100
32856,note_on,,,,,4,0,8,,,,,0,,,76,70
32876,note_off,,,,,20,0,8,,,,,0,,,76,100
32880,note_on,,,,,4,0,8,,,,,0,,,75,70
32896,note_off,,,,,256,0,11,,,,,3,,,59,100
32896,note_off,,,,,256,0,14,,,,,5,,,59,100
32896,note_off,,,,,256,0,12,,,,,4,,,47,100
32896,note_off,,,,,0,0,13,,,,,5,,,66,100
32896,note_off,,,,,256,0,13,,,,,5,,,75,100
32900,note_off,,,,,20,0,8,,,,,0,,,75,100
32904,note_on,,,,,4,0,8,,,,,0,,,76,70
32924,note_off,,,,,20,0,8,,,,,0,,,76,100
32928,note_on,,,,,4,0,8,,,,,0,,,75,70
32948,note_off,,,,,20,0,8,,,,,0,,,75,100
32952,note_on,,,,,4,0,8,,,,,0,,,76,70
32972,note_off,,,,,20,0,8,,,,,0,,,76,100
32976,note_on,,,,,4,0,8,,,,,0,,,75,70
32996,note_off,,,,,20,0,8,,,,,0,,,75,100
33000,note_on,,,,,4,0,8,,,,,0,,,76,70
33020,note_off,,,,,20,0,8,,,,,0,,,76,100
33024,note_on,,,,,4,0,8,,,,,0,,,75,70
33024,note_on,,,,,128,0,11,,,,,3,,,47,60
33024,note_on,,,,,0,0,13,,,,,5,,,66,100
33024,note_on,,,,,128,0,12,,,,,4,,,35,60
33024,note_on,,,,,128,0,13,,,,,5,,,63,100
33024,note_on,,,,,128,0,14,,,,,5,,,47,100
33212,note_off,,,,,188,0,8,,,,,0,,,75,100
33216,note_on,,,,,4,0,8,,,,,0,,,76,70
33280,note_off,,,,,0,0,13,,,,,5,,,66,100
33280,note_off,,,,,256,0,12,,,,,4,,,35,100
33280,note_off,,,,,256,0,14,,,,,5,,,47,100
33280,note_off,,,,,256,0,13,,,,,5,,,63,100
33280,note_off,,,,,256,0,11,,,,,3,,,47,100
33344,note_off,,,,,128,0,8,,,,,0,,,76,100
33408,note_on,,,,,128,0,14,,,,,5,,,52,100
33408,note_on,,,,,128,0,13,,,,,5,,,67,100
33408,note_on,,,,,0,0,13,,,,,5,,,71,100
33408,note_on,,,,,128,0,11,,,,,3,,,52,60
33408,note_on,,,,,128,0,12,,,,,4,,,40,60
33408,note_on,,,,,64,0,8,,,,,0,,,76,70
33664,end_of_track,,,,,0,1,8,,,,,,,,,
33664,note_off,,,,,256,0,12,,,,,4,,,40,100
33664,note_off,,,,,256,0,11,,,,,3,,,52,100
33664,note_off,,,,,256,0,13,,,,,5,,,67,100
33664,note_off,,,,,256,0,14,,,,,5,,,52,100
33664,note_off,,,,,256,0,8,,,,,0,,,76,100
33664,note_off,,,,,0,0,13,,,,,5,,,71,100
33792,set_tempo,,,,,33792,1,0,,1200000,,,,,,,
33792,note_on,,,,,128,0,13,,,,,5,,,67,100
33792,note_on,,,,,4736,0,9,,,,,1,,,79,60
33792,note_on,,,,,0,0,13,,,,,5,,,71,100
33792,note_on,,,,,128,0,12,,,,,4,,,40,60
33792,note_on,,,,,128,0,14,,,,,5,,,52,100
33792,note_on,,,,,4736,0,10,,,,,2,,,67,60
33792,note_on,,,,,0,0,10,,,,,2,,,71,60
33792,note_on,,,,,0,0,9,,,,,1,,,76,60
33792,note_on,,,,,128,0,11,,,,,3,,,52,60
33944,set_tempo,,,,,152,1,0,,1224489,,,,,,,
34048,note_off,,,,,256,0,12,,,,,4,,,40,100
34048,note_off,,,,,256,0,10,,,,,2,,,67,100
34048,note_off,,,,,0,0,10,,,,,2,,,71,100
34048,note_off,,,,,256,0,11,,,,,3,,,52,100
34048,note_off,,,,,256,0,14,,,,,5,,,52,100
34048,note_off,,,,,0,0,9,,,,,1,,,76,100
34048,note_off,,,,,256,0,9,,,,,1,,,79,100
34048,note_off,,,,,256,0,13,,,,,5,,,67,100
34048,note_off,,,,,0,0,13,,,,,5,,,71,100
34096,set_tempo,,,,,152,1,0,,1250000,,,,,,,
34176,note_on,,,,,0,0,10,,,,,2,,,71,60
34176,note_on,,,,,128,0,10,,,,,2,,,67,60
34176,note_on,,,,,128,0,11,,,,,3,,,52,60
34176,note_on,,,,,128,0,12,,,,,4,,,40,60
34176,note_on,,,,,0,0,13,,,,,5,,,71,100
34176,note_on,,,,,128,0,13,,,,,5,,,67,100
34176,note_on,,,,,0,0,9,,,,,1,,,76,60
34176,note_on,,,,,128,0,14,,,,,5,,,52,100
34176,note_on,,,,,128,0,9,,,,,1,,,79,60
34252,set_tempo,,,,,156,1,0,,1276595,,,,,,,
34404,set_tempo,,,,,152,1,0,,1276595,,,,,,,
34432,note_off,,,,,256,0,9,,,,,1,,,79,100
34432,note_off,,,,,0,0,9,,,,,1,,,76,100
34432,note_off,,,,,0,0,10,,,,,2,,,71,100
34432,note_off,,,,,256,0,12,,,,,4,,,40,100
34432,note_off,,,,,256,0,10,,,,,2,,,67,100
34432,note_off,,,,,256,0,14,,,,,5,,,52,100
34432,note_off,,,,,0,0,13,,,,,5,,,71,100
34432,note_off,,,,,256,0,11,,,,,3,,,52,100
34432,note_off,,,,,256,0,13,,,,,5,,,67,100
34560,note_on,,,,,128,0,10,,,,,2,,,69,60
34560,note_on,,,,,128,0,12,,,,,4,,,45,60
34560,note_on,,,,,128,0,11,,,,,3,,,57,60
34560,note_on,,,,,128,0,9,,,,,1,,,78,60
34560,note_on,,,,,0,0,9,,,,,1,,,76,60
34560,set_tempo,,,,,156,1,0,,1363636,,,,,,,
34560,note_on,,,,,0,0,10,,,,,2,,,72,60
34560,note_on,,,,,128,0,14,,,,,5,,,57,100
34560,note_on,,,,,128,0,13,,,,,5,,,64,100
34560,note_on,,,,,0,0,13,,,,,5,,,66,100
34712,set_tempo,,,,,152,1,0,,1333333,,,,,,,
34816,note_off,,,,,0,0,13,,,,,5,,,66,100
34816,note_off,,,,,256,0,12,,,,,4,,,45,100
34816,note_off,,,,,256,0,11,,,,,3,,,57,100
34816,note_off,,,,,256,0,13,,,,,5,,,64,100
34816,note_off,,,,,256,0,10,,,,,2,,,69,100
34816,note_off,,,,,0,0,10,,,,,2,,,72,100
34816,note_off,,,,,256,0,9,,,,,1,,,78,100
34816,note_off,,,,,0,0,9,,,,,1,,,76,100
34816,note_off,,,,,256,0,14,,,,,5,,,57,100
34864,set_tempo,,,,,152,1,0,,1363636,,,,,,,
34944,note_on,,,,,128,0,12,,,,,4,,,47,60
34944,note_on,,,,,128,0,10,,,,,2,,,66,60
34944,note_on,,,,,0,0,10,,,,,2,,,71,60
34944,note_on,,,,,128,0,14,,,,,5,,,59,100
34944,note_on,,,,,128,0,13,,,,,5,,,63,100
34944,note_on,,,,,0,0,13,,,,,5,,,66,100
34944,set_tempo,,,,,80,1,0,,1395348,,,,,,,
34944,note_on,,,,,0,0,9,,,,,1,,,75,60
34944,note_on,,,,,128,0,11,,,,,3,,,59,60
34944,note_on,,,,,128,0,9,,,,,1,,,78,60
35040,set_tempo,,,,,96,1,0,,1428571,,,,,,,
35136,set_tempo,,,,,96,1,0,,1428571,,,,,,,
35200,note_off,,,,,0,0,13,,,,,5,,,66,100
35200,note_off,,,,,256,0,10,,,,,2,,,66,100
35200,note_off,,,,,0,0,10,,,,,2,,,71,100
35200,note_off,,,,,0,0,9,,,,,1,,,75,100
35200,note_off,,,,,256,0,12,,,,,4,,,47,100
35200,note_off,,,,,256,0,11,,,,,3,,,59,100
35200,note_off,,,,,256,0,9,,,,,1,,,78,100
35200,note_off,,,,,256,0,14,,,,,5,,,59,100
35200,note_off,,,,,256,0,13,,,,,5,,,63,100
35232,set_tempo,,,,,96,1,0,,1463414,,,,,,,
35328,note_on,,,,,0,0,9,,,,,1,,,75,60
35328,note_on,,,,,128,0,10,,,,,2,,,71,60
35328,note_on,,,,,0,0,13,,,,,5,,,66,100
35328,note_on,,,,,128,0,13,,,,,5,,,63,100
35328,note_on,,,,,128,0,9,,,,,1,,,78,60
35328,note_on,,,,,128,0,12,,,,,4,,,35,60
35328,set_tempo,,,,,96,1,0,,1500000,,,,,,,
35328,note_on,,,,,128,0,11,,,,,3,,,47,60
35328,note_on,,,,,128,0,14,,,,,5,,,47,100
35520,set_tempo,,,,,192,1,0,,2400000,,,,,,,
35584,note_off,,,,,0,0,9,,,,,1,,,75,100
35584,note_off,,,,,256,0,11,,,,,3,,,47,100
35584,note_off,,,,,256,0,14,,,,,5,,,47,100
35584,note_off,,,,,256,0,9,,,,,1,,,78,100
35584,note_off,,,,,256,0,12,,,,,4,,,35,100
35584,note_off,,,,,256,0,13,,,,,5,,,63,100
35584,note_off,,,,,256,0,10,,,,,2,,,71,100
35584,note_off,,,,,0,0,13,,,,,5,,,66,100
35708,set_tempo,,,,,188,1,0,,1363636,,,,,,,
35712,note_on,,,,,128,0,12,,,,,4,,,40,60
35712,note_on,,,,,0,0,10,,,,,2,,,71,60
35712,note_on,,,,,128,0,10,,,,,2,,,67,60
35712,end_of_track,,,,,0,1,0,,,,,,,,,
35712,note_on,,,,,128,0,11,,,,,3,,,52,60
35712,note_on,,,,,128,0,9,,,,,1,,,76,60
35712,note_on,,,,,128,0,14,,,,,5,,,52,100
35712,set_tempo,,,,,4,1,0,,1621621,,,,,,,
35732,note_on,,,,,148,0,13,,,,,5,,,64,100
35756,note_on,,,,,24,0,13,,,,,5,,,67,100
35780,note_on,,,,,24,0,13,,,,,5,,,71,100
35804,note_on,,,,,24,0,13,,,,,5,,,76,100
36480,note_off,,,,,0,0,10,,,,,2,,,71,100
36480,end_of_track,,,,,0,1,10,,,,,,,,,
36480,end_of_track,,,,,0,1,12,,,,,,,,,
36480,note_off,,,,,768,0,12,,,,,4,,,40,100
36480,note_off,,,,,768,0,9,,,,,1,,,76,100
36480,note_off,,,,,768,0,14,,,,,5,,,52,100
36480,end_of_track,,,,,0,1,11,,,,,,,,,
36480,note_off,,,,,768,0,11,,,,,3,,,52,100
36480,note_off,,,,,768,0,10,,,,,2,,,67,100
36480,end_of_track,,,,,0,1,14,,,,,,,,,
36500,note_off,,,,,696,0,13,,,,,5,,,64,100
36524,note_off,,,,,24,0,13,,,,,5,,,67,100
36548,note_off,,,,,24,0,13,,,,,5,,,71,100
36572,note_off,,,,,24,0,13,,,,,5,,,76,100
36572,end_of_track,,,,,0,1,13,,,,,,,,,
37248,program_change,,,,,768,0,9,,,,,1,48,,,
37248,end_of_track,,,,,0,1,9,,,,,,,,,
