tick,type,numerator,denominator,clocks_per_click,notated_32nd_notes_per_beat,time,meta,track,data,tempo,control,value,channel,program,key,note,velocity
0,time_signature,3,4,96,8,0,1,0,,,,,,,,,
0,track_name,,,,,0,1,12,,,,,,,,,
0,control_change,,,,,0,0,12,,,0,0,5,,,,
0,program_change,,,,,0,0,12,,,,,5,48,,,
0,control_change,,,,,0,0,12,,,7,77,5,,,,
0,control_change,,,,,0,0,12,,,10,89,5,,,,
0,control_change,,,,,0,0,12,,,91,66,5,,,,
0,key_signature,,,,,0,1,12,,,,,,,D,,
0,note_on,,,,,0,0,12,,,,,5,,,38,70
0,control_change,,,,,0,0,8,,,0,0,1,,,,
0,track_name,,,,,0,1,13,,,,,,,,,
0,control_change,,,,,0,0,13,,,0,0,6,,,,
0,program_change,,,,,0,0,13,,,,,6,6,,,
0,control_change,,,,,0,0,13,,,7,55,6,,,,
0,control_change,,,,,0,0,13,,,91,62,6,,,,
0,key_signature,,,,,0,1,13,,,,,,,D,,
0,note_on,,,,,0,0,13,,,,,6,,,69,100
0,note_on,,,,,0,0,13,,,,,6,,,66,100
0,track_name,,,,,0,1,14,,,,,,,,,
0,control_change,,,,,0,0,14,,,0,0,6,,,,
0,program_change,,,,,0,0,14,,,,,6,6,,,
0,control_change,,,,,0,0,14,,,7,55,6,,,,
0,control_change,,,,,0,0,14,,,91,62,6,,,,
0,key_signature,,,,,0,1,14,,,,,,,D,,
0,note_on,,,,,0,0,14,,,,,6,,,50,100
0,key_signature,,,,,0,1,7,,,,,,,D,,
0,note_on,,,,,0,0,11,,,,,4,,,50,70
0,control_change,,,,,0,0,7,,,91,63,0,,,,
0,key_signature,,,,,0,1,11,,,,,,,D,,
0,control_change,,,,,0,0,11,,,10,73,4,,,,
0,program_change,,,,,0,0,8,,,,,1,48,,,
0,control_change,,,,,0,0,8,,,7,100,1,,,,
0,control_change,,,,,0,0,8,,,10,42,1,,,,
0,control_change,,,,,0,0,8,,,91,64,1,,,,
0,key_signature,,,,,0,1,8,,,,,,,D,,
0,note_on,,,,,0,0,8,,,,,1,,,78,70
0,track_name,,,,,0,1,9,,,,,,,,,
0,control_change,,,,,0,0,9,,,0,0,2,,,,
0,program_change,,,,,0,0,9,,,,,2,48,,,
0,control_change,,,,,0,0,9,,,7,100,2,,,,
0,control_change,,,,,0,0,9,,,10,47,2,,,,
0,control_change,,,,,0,0,9,,,91,67,2,,,,
0,key_signature,,,,,0,1,9,,,,,,,D,,
0,note_on,,,,,0,0,9,,,,,2,,,74,70
0,track_name,,,,,0,1,10,,,,,,,,,
0,control_change,,,,,0,0,10,,,0,0,3,,,,
0,program_change,,,,,0,0,10,,,,,3,48,,,
0,control_change,,,,,0,0,10,,,7,95,3,,,,
0,control_change,,,,,0,0,10,,,91,67,3,,,,
0,key_signature,,,,,0,1,10,,,,,,,D,,
0,note_on,,,,,0,0,10,,,,,3,,,69,70
0,track_name,,,,,0,1,11,,,,,,,,,
0,control_change,,,,,0,0,11,,,0,0,4,,,,
0,program_change,,,,,0,0,11,,,,,4,48,,,
0,control_change,,,,,0,0,11,,,7,82,4,,,,
0,control_change,,,,,0,0,11,,,91,65,4,,,,
0,control_change,,,,,0,0,7,,,10,57,0,,,,
0,track_name,,,,,0,1,8,,,,,,,,,
0,program_change,,,,,0,0,7,,,,,0,40,,,
0,program_change,,,,,0,0,6,,,,,0,40,,,
0,control_change,,,,,0,0,6,,,7,100,0,,,,
0,control_change,,,,,0,0,6,,,10,57,0,,,,
0,control_change,,,,,0,0,6,,,91,63,0,,,,
0,key_signature,,,,,0,1,6,,,,,,,D,,
0,track_name,,,,,0,1,7,,,,,,,,,
0,control_change,,,,,0,0,7,,,7,100,0,,,,
0,track_name,,,,,0,1,4,,,,,,,,,
0,key_signature,,,,,0,1,3,,,,,,,D,,
0,program_change,,,,,0,0,3,,,,,0,40,,,
0,control_change,,,,,0,0,3,,,91,63,0,,,,
0,control_change,,,,,0,0,3,,,10,57,0,,,,
0,control_change,,,,,0,0,3,,,7,100,0,,,,
0,control_change,,,,,0,0,3,,,0,0,0,,,,
0,end_of_track,,,,,0,1,3,,,,,,,,,
0,track_name,,,,,0,1,3,,,,,,,,,
0,control_change,,,,,0,0,4,,,0,0,0,,,,
0,control_change,,,,,0,0,4,,,7,100,0,,,,
0,control_change,,,,,0,0,6,,,0,0,0,,,,
0,track_name,,,,,0,1,6,,,,,,,,,
0,end_of_track,,,,,0,1,5,,,,,,,,,
0,key_signature,,,,,0,1,5,,,,,,,D,,
0,control_change,,,,,0,0,5,,,91,63,0,,,,
0,control_change,,,,,0,0,5,,,10,57,0,,,,
0,program_change,,,,,0,0,4,,,,,0,40,,,
0,control_change,,,,,0,0,5,,,7,100,0,,,,
0,control_change,,,,,0,0,5,,,0,0,0,,,,
0,track_name,,,,,0,1,5,,,,,,,,,
0,end_of_track,,,,,0,1,4,,,,,,,,,
0,key_signature,,,,,0,1,4,,,,,,,D,,
0,control_change,,,,,0,0,4,,,91,63,0,,,,
0,control_change,,,,,0,0,4,,,10,57,0,,,,
0,program_change,,,,,0,0,5,,,,,0,40,,,
0,end_of_track,,,,,0,1,2,,,,,,,,,
0,end_of_track,,,,,0,1,6,,,,,,,,,
0,end_of_track,,,,,0,1,1,,,,,,,,,
0,sequencer_specific,,,,,0,1,0,"(0, 0, 65)",,,,,,,,
0,control_change,,,,,0,0,7,,,0,0,0,,,,
0,track_name,,,,,0,1,2,,,,,,,,,
0,set_tempo,,,,,0,1,0,,1578947,,,,,,,
0,sequencer_specific,,,,,0,1,0,"(0, 0, 119, 14, 1)",,,,,,,,
0,track_name,,,,,0,1,1,,,,,,,,,
128,note_off,,,,,128,0,8,,,,,1,,,78,100
128,note_off,,,,,128,0,14,,,,,6,,,50,100
128,note_off,,,,,128,0,11,,,,,4,,,50,100
128,note_off,,,,,128,0,10,,,,,3,,,69,100
128,note_off,,,,,128,0,13,,,,,6,,,69,100
128,note_off,,,,,128,0,9,,,,,2,,,74,100
128,note_off,,,,,128,0,12,,,,,5,,,38,100
128,note_off,,,,,0,0,13,,,,,6,,,66,100
192,note_on,,,,,64,0,9,,,,,2,,,74,70
192,note_on,,,,,64,0,11,,,,,4,,,50,70
192,note_on,,,,,64,0,10,,,,,3,,,69,70
192,note_on,,,,,64,0,13,,,,,6,,,69,100
192,note_on,,,,,64,0,14,,,,,6,,,50,100
192,note_on,,,,,64,0,12,,,,,5,,,38,70
192,note_on,,,,,64,0,8,,,,,1,,,78,70
192,note_on,,,,,0,0,13,,,,,6,,,66,100
320,note_off,,,,,128,0,13,,,,,6,,,69,100
320,note_off,,,,,0,0,13,,,,,6,,,66,100
320,note_off,,,,,128,0,12,,,,,5,,,38,100
320,note_off,,,,,128,0,8,,,,,1,,,78,100
320,note_off,,,,,128,0,10,,,,,3,,,69,100
320,note_off,,,,,128,0,9,,,,,2,,,74,100
320,note_off,,,,,128,0,14,,,,,6,,,50,100
320,note_off,,,,,128,0,11,,,,,4,,,50,100
384,note_on,,,,,64,0,8,,,,,1,,,78,70
384,note_on,,,,,64,0,13,,,,,6,,,69,100
384,note_on,,,,,0,0,13,,,,,6,,,66,100
384,note_on,,,,,64,0,14,,,,,6,,,50,100
384,note_on,,,,,64,0,12,,,,,5,,,38,70
384,note_on,,,,,64,0,11,,,,,4,,,50,70
384,note_on,,,,,64,0,10,,,,,3,,,69,70
384,note_on,,,,,64,0,9,,,,,2,,,74,70
512,note_off,,,,,128,0,12,,,,,5,,,38,100
512,note_off,,,,,128,0,11,,,,,4,,,50,100
512,note_off,,,,,128,0,8,,,,,1,,,78,100
512,note_off,,,,,128,0,10,,,,,3,,,69,100
512,note_off,,,,,128,0,9,,,,,2,,,74,100
512,note_off,,,,,128,0,13,,,,,6,,,69,100
512,note_off,,,,,0,0,13,,,,,6,,,66,100
512,note_off,,,,,128,0,14,,,,,6,,,50,100
576,note_on,,,,,0,0,13,,,,,6,,,66,100
576,note_on,,,,,64,0,9,,,,,2,,,74,70
576,note_on,,,,,64,0,11,,,,,4,,,50,70
576,note_on,,,,,64,0,12,,,,,5,,,38,70
576,note_on,,,,,64,0,10,,,,,3,,,69,70
576,note_on,,,,,64,0,14,,,,,6,,,50,100
576,note_on,,,,,64,0,8,,,,,1,,,78,70
576,note_on,,,,,64,0,13,,,,,6,,,69,100
704,note_off,,,,,128,0,8,,,,,1,,,78,100
704,note_off,,,,,128,0,12,,,,,5,,,38,100
704,note_off,,,,,128,0,10,,,,,3,,,69,100
704,note_off,,,,,0,0,13,,,,,6,,,66,100
704,note_off,,,,,128,0,14,,,,,6,,,50,100
704,note_off,,,,,128,0,11,,,,,4,,,50,100
704,note_off,,,,,128,0,9,,,,,2,,,74,100
704,note_off,,,,,128,0,13,,,,,6,,,69,100
768,note_on,,,,,64,0,12,,,,,5,,,38,70
768,note_on,,,,,64,0,10,,,,,3,,,66,70
768,note_on,,,,,0,0,13,,,,,6,,,66,100
768,note_on,,,,,64,0,9,,,,,2,,,74,70
768,note_on,,,,,64,0,14,,,,,6,,,50,100
768,note_on,,,,,64,0,11,,,,,4,,,50,70
768,note_on,,,,,64,0,13,,,,,6,,,69,100
768,note_on,,,,,64,0,8,,,,,1,,,78,70
896,note_off,,,,,128,0,8,,,,,1,,,78,100
896,note_off,,,,,128,0,11,,,,,4,,,50,100
896,note_off,,,,,0,0,13,,,,,6,,,66,100
896,note_off,,,,,128,0,13,,,,,6,,,69,100
896,note_off,,,,,128,0,14,,,,,6,,,50,100
896,note_off,,,,,128,0,12,,,,,5,,,38,100
896,note_off,,,,,128,0,10,,,,,3,,,66,100
896,note_off,,,,,128,0,9,,,,,2,,,74,100
960,note_on,,,,,64,0,14,,,,,6,,,50,100
960,note_on,,,,,64,0,9,,,,,2,,,74,70
960,note_on,,,,,64,0,11,,,,,4,,,50,70
960,note_on,,,,,0,0,13,,,,,6,,,66,100
960,note_on,,,,,64,0,12,,,,,5,,,38,70
960,note_on,,,,,64,0,8,,,,,1,,,78,70
960,note_on,,,,,64,0,13,,,,,6,,,69,100
960,note_on,,,,,64,0,10,,,,,3,,,66,70
1088,note_off,,,,,0,0,13,,,,,6,,,66,100
1088,note_off,,,,,128,0,12,,,,,5,,,38,100
1088,note_off,,,,,128,0,8,,,,,1,,,78,100
1088,note_off,,,,,128,0,10,,,,,3,,,66,100
1088,note_off,,,,,128,0,13,,,,,6,,,69,100
1088,note_off,,,,,128,0,11,,,,,4,,,50,100
1088,note_off,,,,,128,0,9,,,,,2,,,74,100
1088,note_off,,,,,128,0,14,,,,,6,,,50,100
1152,note_on,,,,,64,0,12,,,,,5,,,40,70
1152,note_on,,,,,64,0,10,,,,,3,,,59,70
1152,note_on,,,,,0,0,13,,,,,6,,,74,100
1152,note_on,,,,,64,0,9,,,,,2,,,74,70
1152,note_on,,,,,64,0,14,,,,,6,,,52,100
1152,note_on,,,,,64,0,13,,,,,6,,,71,100
1152,note_on,,,,,64,0,8,,,,,1,,,79,70
1152,note_on,,,,,64,0,11,,,,,4,,,52,70
1280,note_off,,,,,128,0,14,,,,,6,,,52,100
1280,note_off,,,,,0,0,13,,,,,6,,,74,100
1280,note_off,,,,,128,0,11,,,,,4,,,52,100
1280,note_off,,,,,128,0,9,,,,,2,,,74,100
1280,note_off,,,,,128,0,13,,,,,6,,,71,100
1280,note_off,,,,,128,0,10,,,,,3,,,59,100
1280,note_off,,,,,128,0,8,,,,,1,,,79,100
1280,note_off,,,,,128,0,12,,,,,5,,,40,100
1344,note_on,,,,,64,0,11,,,,,4,,,52,70
1344,note_on,,,,,64,0,9,,,,,2,,,74,70
1344,note_on,,,,,64,0,10,,,,,3,,,64,70
1344,note_on,,,,,64,0,8,,,,,1,,,79,70
1344,note_on,,,,,64,0,13,,,,,6,,,71,100
1344,note_on,,,,,64,0,12,,,,,5,,,40,70
1344,note_on,,,,,0,0,13,,,,,6,,,74,100
1344,note_on,,,,,64,0,14,,,,,6,,,52,100
1472,note_off,,,,,128,0,14,,,,,6,,,52,100
1472,note_off,,,,,128,0,10,,,,,3,,,64,100
1472,note_off,,,,,128,0,11,,,,,4,,,52,100
1472,note_off,,,,,128,0,9,,,,,2,,,74,100
1472,note_off,,,,,128,0,12,,,,,5,,,40,100
1472,note_off,,,,,128,0,8,,,,,1,,,79,100
1472,note_off,,,,,128,0,13,,,,,6,,,71,100
1472,note_off,,,,,0,0,13,,,,,6,,,74,100
1536,note_on,,,,,64,0,9,,,,,2,,,73,70
1536,note_on,,,,,64,0,12,,,,,5,,,33,70
1536,note_on,,,,,64,0,14,,,,,6,,,45,100
1536,note_on,,,,,64,0,13,,,,,6,,,64,100
1536,note_on,,,,,64,0,8,,,,,1,,,79,70
1536,note_on,,,,,64,0,11,,,,,4,,,45,70
1536,note_on,,,,,64,0,10,,,,,3,,,64,70
1536,note_on,,,,,0,0,13,,,,,6,,,67,100
1664,note_off,,,,,128,0,12,,,,,5,,,33,100
1664,note_off,,,,,128,0,11,,,,,4,,,45,100
1664,note_off,,,,,128,0,13,,,,,6,,,64,100
1664,note_off,,,,,128,0,10,,,,,3,,,64,100
1664,note_off,,,,,128,0,14,,,,,6,,,45,100
1664,note_off,,,,,128,0,8,,,,,1,,,79,100
1664,note_off,,,,,0,0,13,,,,,6,,,67,100
1664,note_off,,,,,128,0,9,,,,,2,,,73,100
1728,note_on,,,,,0,0,13,,,,,6,,,67,100
1728,note_on,,,,,64,0,8,,,,,1,,,79,70
1728,note_on,,,,,64,0,13,,,,,6,,,64,100
1728,note_on,,,,,64,0,11,,,,,4,,,45,70
1728,note_on,,,,,64,0,12,,,,,5,,,33,70
1728,note_on,,,,,64,0,10,,,,,3,,,64,70
1728,note_on,,,,,64,0,14,,,,,6,,,45,100
1728,note_on,,,,,64,0,9,,,,,2,,,73,70
1856,note_off,,,,,128,0,9,,,,,2,,,73,100
1856,note_off,,,,,128,0,13,,,,,6,,,64,100
1856,note_off,,,,,128,0,11,,,,,4,,,45,100
1856,note_off,,,,,128,0,10,,,,,3,,,64,100
1856,note_off,,,,,128,0,14,,,,,6,,,45,100
1856,note_off,,,,,128,0,12,,,,,5,,,33,100
1856,note_off,,,,,0,0,13,,,,,6,,,67,100
1856,note_off,,,,,128,0,8,,,,,1,,,79,100
1920,note_on,,,,,64,0,9,,,,,2,,,73,70
1920,note_on,,,,,64,0,8,,,,,1,,,79,70
1920,note_on,,,,,64,0,11,,,,,4,,,45,70
1920,note_on,,,,,64,0,10,,,,,3,,,64,70
1920,note_on,,,,,64,0,12,,,,,5,,,33,70
1920,note_on,,,,,0,0,13,,,,,6,,,67,100
1920,note_on,,,,,64,0,14,,,,,6,,,45,100
1920,note_on,,,,,64,0,13,,,,,6,,,64,100
2048,note_off,,,,,128,0,13,,,,,6,,,64,100
2048,note_off,,,,,128,0,14,,,,,6,,,45,100
2048,note_off,,,,,128,0,9,,,,,2,,,73,100
2048,note_off,,,,,128,0,8,,,,,1,,,79,100
2048,note_off,,,,,128,0,11,,,,,4,,,45,100
2048,note_off,,,,,0,0,13,,,,,6,,,67,100
2048,note_off,,,,,128,0,12,,,,,5,,,33,100
2048,note_off,,,,,128,0,10,,,,,3,,,64,100
2112,note_on,,,,,64,0,10,,,,,3,,,69,70
2112,note_on,,,,,64,0,11,,,,,4,,,45,70
2112,note_on,,,,,0,0,13,,,,,6,,,67,100
2112,note_on,,,,,64,0,9,,,,,2,,,73,70
2112,note_on,,,,,64,0,13,,,,,6,,,64,100
2112,note_on,,,,,64,0,14,,,,,6,,,45,100
2112,note_on,,,,,64,0,8,,,,,1,,,79,70
2112,note_on,,,,,64,0,12,,,,,5,,,33,70
2240,note_off,,,,,128,0,12,,,,,5,,,33,100
2240,note_off,,,,,128,0,11,,,,,4,,,45,100
2240,note_off,,,,,128,0,14,,,,,6,,,45,100
2240,note_off,,,,,0,0,13,,,,,6,,,67,100
2240,note_off,,,,,128,0,13,,,,,6,,,64,100
2240,note_off,,,,,128,0,9,,,,,2,,,73,100
2240,note_off,,,,,128,0,10,,,,,3,,,69,100
2240,note_off,,,,,128,0,8,,,,,1,,,79,100
2304,note_on,,,,,64,0,12,,,,,5,,,38,70
2304,note_on,,,,,64,0,8,,,,,1,,,79,70
2304,note_on,,,,,64,0,13,,,,,6,,,67,100
2304,note_on,,,,,64,0,9,,,,,2,,,74,70
2304,note_on,,,,,0,0,13,,,,,6,,,69,100
2304,note_on,,,,,64,0,10,,,,,3,,,69,70
2304,note_on,,,,,64,0,14,,,,,6,,,50,100
2304,note_on,,,,,64,0,11,,,,,4,,,50,70
2432,note_off,,,,,128,0,13,,,,,6,,,67,100
2432,note_off,,,,,128,0,10,,,,,3,,,69,100
2432,note_off,,,,,128,0,12,,,,,5,,,38,100
2432,note_off,,,,,0,0,13,,,,,6,,,69,100
2432,note_off,,,,,128,0,9,,,,,2,,,74,100
2432,note_off,,,,,128,0,11,,,,,4,,,50,100
2432,note_off,,,,,128,0,14,,,,,6,,,50,100
2432,note_off,,,,,128,0,8,,,,,1,,,79,100
2496,note_on,,,,,64,0,14,,,,,6,,,50,100
2496,note_on,,,,,64,0,11,,,,,4,,,50,70
2496,note_on,,,,,64,0,10,,,,,3,,,69,70
2496,note_on,,,,,0,0,13,,,,,6,,,69,100
2496,note_on,,,,,64,0,12,,,,,5,,,38,70
2496,note_on,,,,,64,0,13,,,,,6,,,67,100
2496,note_on,,,,,64,0,8,,,,,1,,,79,70
2496,note_on,,,,,64,0,9,,,,,2,,,74,70
2624,note_off,,,,,128,0,8,,,,,1,,,79,100
2624,note_off,,,,,128,0,12,,,,,5,,,38,100
2624,note_off,,,,,0,0,13,,,,,6,,,69,100
2624,note_off,,,,,128,0,11,,,,,4,,,50,100
2624,note_off,,,,,128,0,14,,,,,6,,,50,100
2624,note_off,,,,,128,0,9,,,,,2,,,74,100
2624,note_off,,,,,128,0,10,,,,,3,,,69,100
2624,note_off,,,,,128,0,13,,,,,6,,,67,100
2688,note_on,,,,,64,0,14,,,,,6,,,50,100
2688,note_on,,,,,0,0,13,,,,,6,,,69,100
2688,note_on,,,,,64,0,13,,,,,6,,,66,100
2688,note_on,,,,,64,0,10,,,,,3,,,69,70
2688,note_on,,,,,64,0,12,,,,,5,,,38,70
2688,note_on,,,,,64,0,9,,,,,2,,,74,70
2688,note_on,,,,,64,0,11,,,,,4,,,50,70
2688,note_on,,,,,64,0,8,,,,,1,,,78,70
2816,note_off,,,,,128,0,12,,,,,5,,,38,100
2816,note_off,,,,,128,0,8,,,,,1,,,78,100
2816,note_off,,,,,128,0,10,,,,,3,,,69,100
2816,note_off,,,,,128,0,9,,,,,2,,,74,100
2816,note_off,,,,,0,0,13,,,,,6,,,69,100
2816,note_off,,,,,128,0,13,,,,,6,,,66,100
2816,note_off,,,,,128,0,14,,,,,6,,,50,100
2816,note_off,,,,,128,0,11,,,,,4,,,50,100
2880,note_on,,,,,64,0,10,,,,,3,,,69,70
2880,note_on,,,,,64,0,8,,,,,1,,,78,70
2880,note_on,,,,,64,0,12,,,,,5,,,38,70
2880,note_on,,,,,64,0,11,,,,,4,,,50,70
2880,note_on,,,,,64,0,13,,,,,6,,,66,100
2880,note_on,,,,,64,0,14,,,,,6,,,50,100
2880,note_on,,,,,0,0,13,,,,,6,,,69,100
2880,note_on,,,,,64,0,9,,,,,2,,,74,70
3008,note_off,,,,,128,0,14,,,,,6,,,50,100
3008,note_off,,,,,128,0,10,,,,,3,,,69,100
3008,note_off,,,,,0,0,13,,,,,6,,,69,100
3008,note_off,,,,,128,0,13,,,,,6,,,66,100
3008,note_off,,,,,128,0,12,,,,,5,,,38,100
3008,note_off,,,,,128,0,9,,,,,2,,,74,100
3008,note_off,,,,,128,0,8,,,,,1,,,78,100
3008,note_off,,,,,128,0,11,,,,,4,,,50,100
3072,note_on,,,,,64,0,10,,,,,3,,,69,70
3072,note_on,,,,,64,0,13,,,,,6,,,77,100
3072,note_on,,,,,0,0,13,,,,,6,,,69,100
3072,note_on,,,,,64,0,8,,,,,1,,,77,70
3072,note_on,,,,,64,0,11,,,,,4,,,62,70
3072,note_on,,,,,64,0,9,,,,,2,,,74,70
3072,note_on,,,,,64,0,12,,,,,5,,,50,70
3072,note_on,,,,,64,0,14,,,,,6,,,62,100
3200,note_off,,,,,128,0,8,,,,,1,,,77,100
3200,note_off,,,,,128,0,10,,,,,3,,,69,100
3200,note_off,,,,,128,0,12,,,,,5,,,50,100
3200,note_off,,,,,0,0,13,,,,,6,,,69,100
3200,note_off,,,,,128,0,13,,,,,6,,,77,100
3200,note_off,,,,,128,0,9,,,,,2,,,74,100
3200,note_off,,,,,128,0,11,,,,,4,,,62,100
3200,note_off,,,,,128,0,14,,,,,6,,,62,100
3264,note_on,,,,,64,0,9,,,,,2,,,74,70
3264,note_on,,,,,64,0,14,,,,,6,,,62,100
3264,note_on,,,,,64,0,8,,,,,1,,,77,70
3264,note_on,,,,,64,0,10,,,,,3,,,69,70
3264,note_on,,,,,64,0,11,,,,,4,,,62,70
3264,note_on,,,,,0,0,13,,,,,6,,,69,100
3264,note_on,,,,,64,0,13,,,,,6,,,77,100
3264,note_on,,,,,64,0,12,,,,,5,,,50,70
3392,note_off,,,,,128,0,13,,,,,6,,,77,100
3392,note_off,,,,,128,0,14,,,,,6,,,62,100
3392,note_off,,,,,128,0,8,,,,,1,,,77,100
3392,note_off,,,,,0,0,13,,,,,6,,,69,100
3392,note_off,,,,,128,0,10,,,,,3,,,69,100
3392,note_off,,,,,128,0,11,,,,,4,,,62,100
3392,note_off,,,,,128,0,12,,,,,5,,,50,100
3392,note_off,,,,,128,0,9,,,,,2,,,74,100
3456,note_on,,,,,64,0,9,,,,,2,,,74,70
3456,note_on,,,,,64,0,13,,,,,6,,,74,100
3456,note_on,,,,,0,0,13,,,,,6,,,77,100
3456,note_on,,,,,64,0,14,,,,,6,,,56,100
3456,note_on,,,,,64,0,10,,,,,3,,,71,70
3456,note_on,,,,,64,0,12,,,,,5,,,44,70
3456,note_on,,,,,64,0,11,,,,,4,,,56,70
3456,note_on,,,,,64,0,8,,,,,1,,,77,70
3584,note_off,,,,,128,0,8,,,,,1,,,77,100
3584,note_off,,,,,128,0,11,,,,,4,,,56,100
3584,note_off,,,,,128,0,9,,,,,2,,,74,100
3584,note_off,,,,,0,0,13,,,,,6,,,77,100
3584,note_off,,,,,128,0,12,,,,,5,,,44,100
3584,note_off,,,,,128,0,10,,,,,3,,,71,100
3584,note_off,,,,,128,0,14,,,,,6,,,56,100
3584,note_off,,,,,128,0,13,,,,,6,,,74,100
3648,note_on,,,,,64,0,13,,,,,6,,,74,100
3648,note_on,,,,,64,0,14,,,,,6,,,56,100
3648,note_on,,,,,64,0,8,,,,,1,,,77,70
3648,note_on,,,,,0,0,13,,,,,6,,,77,100
3648,note_on,,,,,64,0,9,,,,,2,,,74,70
3648,note_on,,,,,64,0,12,,,,,5,,,44,70
3648,note_on,,,,,64,0,10,,,,,3,,,71,70
3648,note_on,,,,,64,0,11,,,,,4,,,56,70
3776,note_off,,,,,128,0,11,,,,,4,,,56,100
3776,note_off,,,,,0,0,13,,,,,6,,,77,100
3776,note_off,,,,,128,0,9,,,,,2,,,74,100
3776,note_off,,,,,128,0,13,,,,,6,,,74,100
3776,note_off,,,,,128,0,14,,,,,6,,,56,100
3776,note_off,,,,,128,0,12,,,,,5,,,44,100
3776,note_off,,,,,128,0,8,,,,,1,,,77,100
3776,note_off,,,,,128,0,10,,,,,3,,,71,100
3840,note_on,,,,,64,0,14,,,,,6,,,57,100
3840,note_on,,,,,64,0,9,,,,,2,,,74,70
3840,note_on,,,,,64,0,11,,,,,4,,,57,70
3840,note_on,,,,,64,0,12,,,,,5,,,45,70
3840,note_on,,,,,64,0,8,,,,,1,,,76,70
3840,note_on,,,,,64,0,13,,,,,6,,,74,100
3840,note_on,,,,,0,0,13,,,,,6,,,76,100
3840,note_on,,,,,64,0,10,,,,,3,,,69,70
3968,note_off,,,,,128,0,12,,,,,5,,,45,100
3968,note_off,,,,,128,0,10,,,,,3,,,69,100
3968,note_off,,,,,0,0,13,,,,,6,,,76,100
3968,note_off,,,,,128,0,9,,,,,2,,,74,100
3968,note_off,,,,,128,0,13,,,,,6,,,74,100
3968,note_off,,,,,128,0,8,,,,,1,,,76,100
3968,note_off,,,,,128,0,11,,,,,4,,,57,100
3968,note_off,,,,,128,0,14,,,,,6,,,57,100
4032,note_on,,,,,0,0,13,,,,,6,,,76,100
4032,note_on,,,,,64,0,8,,,,,1,,,76,70
4032,note_on,,,,,64,0,14,,,,,6,,,57,100
4032,note_on,,,,,64,0,12,,,,,5,,,45,70
4032,note_on,,,,,64,0,13,,,,,6,,,74,100
4032,note_on,,,,,64,0,9,,,,,2,,,74,70
4032,note_on,,,,,64,0,11,,,,,4,,,57,70
4032,note_on,,,,,64,0,10,,,,,3,,,69,70
4160,note_off,,,,,0,0,13,,,,,6,,,76,100
4160,note_off,,,,,128,0,8,,,,,1,,,76,100
4160,note_off,,,,,128,0,10,,,,,3,,,69,100
4160,note_off,,,,,128,0,14,,,,,6,,,57,100
4160,note_off,,,,,128,0,13,,,,,6,,,74,100
4160,note_off,,,,,128,0,11,,,,,4,,,57,100
4160,note_off,,,,,128,0,12,,,,,5,,,45,100
4160,note_off,,,,,128,0,9,,,,,2,,,74,100
4224,note_on,,,,,64,0,12,,,,,5,,,33,70
4224,note_on,,,,,0,0,13,,,,,6,,,73,100
4224,note_on,,,,,64,0,13,,,,,6,,,64,100
4224,note_on,,,,,64,0,10,,,,,3,,,69,70
4224,note_on,,,,,64,0,9,,,,,2,,,73,70
4224,note_on,,,,,64,0,11,,,,,4,,,45,70
4224,note_on,,,,,64,0,14,,,,,6,,,45,100
4224,note_on,,,,,64,0,8,,,,,1,,,76,70
4352,note_off,,,,,128,0,10,,,,,3,,,69,100
4352,note_off,,,,,0,0,13,,,,,6,,,73,100
4352,note_off,,,,,128,0,14,,,,,6,,,45,100
4352,note_off,,,,,128,0,9,,,,,2,,,73,100
4352,note_off,,,,,128,0,8,,,,,1,,,76,100
4352,note_off,,,,,128,0,13,,,,,6,,,64,100
4352,note_off,,,,,128,0,12,,,,,5,,,33,100
4352,note_off,,,,,128,0,11,,,,,4,,,45,100
4416,note_on,,,,,64,0,10,,,,,3,,,69,70
4416,note_on,,,,,64,0,9,,,,,2,,,73,70
4416,note_on,,,,,64,0,11,,,,,4,,,45,70
4416,note_on,,,,,64,0,14,,,,,6,,,45,100
4416,note_on,,,,,64,0,8,,,,,1,,,76,70
4416,note_on,,,,,64,0,13,,,,,6,,,64,100
4416,note_on,,,,,0,0,13,,,,,6,,,73,100
4416,note_on,,,,,64,0,12,,,,,5,,,33,70
4544,note_off,,,,,128,0,9,,,,,2,,,73,100
4544,note_off,,,,,128,0,8,,,,,1,,,76,100
4544,note_off,,,,,128,0,10,,,,,3,,,69,100
4544,note_off,,,,,0,0,13,,,,,6,,,73,100
4544,note_off,,,,,128,0,13,,,,,6,,,64,100
4544,note_off,,,,,128,0,12,,,,,5,,,33,100
4544,note_off,,,,,128,0,11,,,,,4,,,45,100
4544,note_off,,,,,128,0,14,,,,,6,,,45,100
4608,note_on,,,,,4608,0,7,,,,,0,,,74,85
4608,note_on,,,,,64,0,12,,,,,5,,,38,70
4608,note_on,,,,,64,0,11,,,,,4,,,50,70
4608,note_on,,,,,0,0,13,,,,,6,,,66,100
4608,note_on,,,,,64,0,13,,,,,6,,,69,100
4608,note_on,,,,,64,0,9,,,,,2,,,74,60
4608,note_on,,,,,64,0,8,,,,,1,,,78,60
4608,note_on,,,,,64,0,14,,,,,6,,,50,100
4608,note_on,,,,,64,0,10,,,,,3,,,69,60
4672,note_off,,,,,64,0,7,,,,,0,,,74,100
4704,note_on,,,,,32,0,7,,,,,0,,,78,85
4736,note_off,,,,,128,0,8,,,,,1,,,78,100
4736,note_off,,,,,128,0,9,,,,,2,,,74,100
4736,note_off,,,,,128,0,10,,,,,3,,,69,100
4748,note_off,,,,,44,0,7,,,,,0,,,78,100
4752,note_on,,,,,4,0,7,,,,,0,,,76,85
4784,note_off,,,,,32,0,7,,,,,0,,,76,100
4800,note_on,,,,,16,0,7,,,,,0,,,78,85
4800,note_on,,,,,64,0,8,,,,,1,,,78,60
4800,note_on,,,,,64,0,9,,,,,2,,,74,60
4800,note_on,,,,,64,0,10,,,,,3,,,62,60
4864,note_off,,,,,256,0,12,,,,,5,,,38,100
4864,note_off,,,,,256,0,11,,,,,4,,,50,100
4864,note_off,,,,,0,0,13,,,,,6,,,66,100
4864,note_off,,,,,256,0,13,,,,,6,,,69,100
4864,note_off,,,,,64,0,7,,,,,0,,,78,100
4864,note_off,,,,,256,0,14,,,,,6,,,50,100
4896,note_on,,,,,32,0,7,,,,,0,,,74,85
4928,note_off,,,,,128,0,10,,,,,3,,,62,100
4928,note_off,,,,,128,0,9,,,,,2,,,74,100
4928,note_off,,,,,128,0,8,,,,,1,,,78,100
4960,note_off,,,,,64,0,7,,,,,0,,,74,100
4992,note_on,,,,,64,0,10,,,,,3,,,62,60
4992,note_on,,,,,32,0,7,,,,,0,,,74,85
4992,note_on,,,,,64,0,8,,,,,1,,,78,60
4992,note_on,,,,,64,0,9,,,,,2,,,74,60
5056,note_off,,,,,64,0,7,,,,,0,,,74,100
5088,note_on,,,,,32,0,7,,,,,0,,,78,85
5120,note_off,,,,,128,0,8,,,,,1,,,78,100
5120,note_off,,,,,128,0,10,,,,,3,,,62,100
5120,note_off,,,,,128,0,9,,,,,2,,,74,100
5132,note_off,,,,,44,0,7,,,,,0,,,78,100
5136,note_on,,,,,4,0,7,,,,,0,,,76,85
5168,note_off,,,,,32,0,7,,,,,0,,,76,100
5184,note_on,,,,,16,0,7,,,,,0,,,78,85
5184,note_on,,,,,64,0,10,,,,,3,,,62,60
5184,note_on,,,,,64,0,8,,,,,1,,,78,60
5184,note_on,,,,,64,0,9,,,,,2,,,74,60
5248,note_off,,,,,64,0,7,,,,,0,,,78,100
5280,note_on,,,,,32,0,7,,,,,0,,,69,85
5312,note_off,,,,,128,0,8,,,,,1,,,78,100
5312,note_off,,,,,128,0,9,,,,,2,,,74,100
5312,note_off,,,,,128,0,10,,,,,3,,,62,100
5344,note_off,,,,,64,0,7,,,,,0,,,69,100
5376,note_on,,,,,64,0,10,,,,,3,,,62,60
5376,note_on,,,,,64,0,8,,,,,1,,,78,60
5376,note_on,,,,,32,0,7,,,,,0,,,69,85
5376,note_on,,,,,64,0,9,,,,,2,,,74,60
5440,note_off,,,,,64,0,7,,,,,0,,,69,100
5472,note_on,,,,,32,0,7,,,,,0,,,78,85
5504,note_off,,,,,128,0,9,,,,,2,,,74,100
5504,note_off,,,,,128,0,8,,,,,1,,,78,100
5504,note_off,,,,,128,0,10,,,,,3,,,62,100
5536,note_off,,,,,64,0,7,,,,,0,,,78,100
5568,note_on,,,,,32,0,7,,,,,0,,,78,85
5568,note_on,,,,,64,0,8,,,,,1,,,78,60
5568,note_on,,,,,64,0,10,,,,,3,,,62,60
5568,note_on,,,,,64,0,9,,,,,2,,,74,60
5588,note_off,,,,,20,0,7,,,,,0,,,78,100
5592,note_on,,,,,4,0,7,,,,,0,,,79,85
5612,note_off,,,,,20,0,7,,,,,0,,,79,100
5616,note_on,,,,,4,0,7,,,,,0,,,78,85
5636,note_off,,,,,20,0,7,,,,,0,,,78,100
5640,note_on,,,,,4,0,7,,,,,0,,,79,85
5660,note_off,,,,,20,0,7,,,,,0,,,79,100
5664,note_on,,,,,4,0,7,,,,,0,,,76,85
5696,note_off,,,,,128,0,10,,,,,3,,,62,100
5696,note_off,,,,,128,0,8,,,,,1,,,78,100
5696,note_off,,,,,128,0,9,,,,,2,,,74,100
5708,note_off,,,,,44,0,7,,,,,0,,,76,100
5712,note_on,,,,,4,0,7,,,,,0,,,74,85
5744,note_off,,,,,32,0,7,,,,,0,,,74,100
5760,note_on,,,,,64,0,10,,,,,3,,,57,60
5760,note_on,,,,,64,0,8,,,,,1,,,79,60
5760,note_on,,,,,64,0,9,,,,,2,,,74,60
5760,note_on,,,,,16,0,7,,,,,0,,,76,85
5824,note_off,,,,,64,0,7,,,,,0,,,76,100
5856,note_on,,,,,32,0,7,,,,,0,,,79,85
5888,note_off,,,,,128,0,10,,,,,3,,,57,100
5888,note_off,,,,,128,0,8,,,,,1,,,79,100
5888,note_off,,,,,128,0,9,,,,,2,,,74,100
5900,note_off,,,,,44,0,7,,,,,0,,,79,100
5904,note_on,,,,,4,0,7,,,,,0,,,78,85
5936,note_off,,,,,32,0,7,,,,,0,,,78,100
5952,note_on,,,,,64,0,9,,,,,2,,,74,60
5952,note_on,,,,,64,0,10,,,,,3,,,57,60
5952,note_on,,,,,16,0,7,,,,,0,,,79,85
5952,note_on,,,,,64,0,8,,,,,1,,,79,60
6016,note_off,,,,,64,0,7,,,,,0,,,79,100
6048,note_on,,,,,32,0,7,,,,,0,,,76,85
6080,note_off,,,,,128,0,9,,,,,2,,,74,100
6080,note_off,,,,,128,0,8,,,,,1,,,79,100
6080,note_off,,,,,128,0,10,,,,,3,,,57,100
6112,note_off,,,,,64,0,7,,,,,0,,,76,100
6144,note_on,,,,,64,0,10,,,,,3,,,57,60
6144,note_on,,,,,64,0,9,,,,,2,,,73,60
6144,note_on,,,,,32,0,7,,,,,0,,,76,85
6144,note_on,,,,,64,0,8,,,,,1,,,79,60
6208,note_off,,,,,64,0,7,,,,,0,,,76,100
6240,note_on,,,,,32,0,7,,,,,0,,,79,85
6272,note_off,,,,,128,0,8,,,,,1,,,79,100
6272,note_off,,,,,128,0,9,,,,,2,,,73,100
6272,note_off,,,,,128,0,10,,,,,3,,,57,100
6284,note_off,,,,,44,0,7,,,,,0,,,79,100
6288,note_on,,,,,4,0,7,,,,,0,,,78,85
6320,note_off,,,,,32,0,7,,,,,0,,,78,100
6336,note_on,,,,,16,0,7,,,,,0,,,79,85
6336,note_on,,,,,64,0,9,,,,,2,,,73,60
6336,note_on,,,,,64,0,10,,,,,3,,,57,60
6336,note_on,,,,,64,0,8,,,,,1,,,79,60
6400,note_off,,,,,64,0,7,,,,,0,,,79,100
6432,note_on,,,,,32,0,7,,,,,0,,,69,85
6464,note_off,,,,,128,0,10,,,,,3,,,57,100
6464,note_off,,,,,128,0,8,,,,,1,,,79,100
6464,note_off,,,,,128,0,9,,,,,2,,,73,100
6496,note_off,,,,,64,0,7,,,,,0,,,69,100
6528,note_on,,,,,64,0,9,,,,,2,,,73,60
6528,note_on,,,,,32,0,7,,,,,0,,,69,85
6528,note_on,,,,,64,0,10,,,,,3,,,57,60
6528,note_on,,,,,64,0,8,,,,,1,,,79,60
6592,note_off,,,,,64,0,7,,,,,0,,,69,100
6624,note_on,,,,,32,0,7,,,,,0,,,79,85
6656,note_off,,,,,128,0,10,,,,,3,,,57,100
6656,note_off,,,,,128,0,8,,,,,1,,,79,100
6656,note_off,,,,,128,0,9,,,,,2,,,73,100
6688,note_off,,,,,64,0,7,,,,,0,,,79,100
6720,note_on,,,,,32,0,7,,,,,0,,,79,85
6720,note_on,,,,,64,0,10,,,,,3,,,57,60
6720,note_on,,,,,64,0,8,,,,,1,,,79,60
6720,note_on,,,,,64,0,9,,,,,2,,,73,60
6740,note_off,,,,,20,0,7,,,,,0,,,79,100
6744,note_on,,,,,4,0,7,,,,,0,,,81,85
6764,note_off,,,,,20,0,7,,,,,0,,,81,100
6768,note_on,,,,,4,0,7,,,,,0,,,79,85
6788,note_off,,,,,20,0,7,,,,,0,,,79,100
6792,note_on,,,,,4,0,7,,,,,0,,,81,85
6812,note_off,,,,,20,0,7,,,,,0,,,81,100
6816,note_on,,,,,4,0,7,,,,,0,,,78,85
6848,note_off,,,,,128,0,10,,,,,3,,,57,100
6848,note_off,,,,,128,0,8,,,,,1,,,79,100
6848,note_off,,,,,128,0,9,,,,,2,,,73,100
6860,note_off,,,,,44,0,7,,,,,0,,,78,100
6864,note_on,,,,,4,0,7,,,,,0,,,76,85
6896,note_off,,,,,32,0,7,,,,,0,,,76,100
6912,note_on,,,,,64,0,9,,,,,2,,,74,60
6912,note_on,,,,,64,0,10,,,,,3,,,62,60
6912,note_on,,,,,64,0,8,,,,,1,,,78,60
6912,note_on,,,,,2048,0,11,,,,,4,,,50,60
6912,note_on,,,,,2048,0,14,,,,,6,,,50,100
6912,note_on,,,,,0,0,13,,,,,6,,,69,100
6912,note_on,,,,,16,0,7,,,,,0,,,78,85
6912,note_on,,,,,2048,0,13,,,,,6,,,66,100
6912,note_on,,,,,2048,0,12,,,,,5,,,38,60
6912,set_tempo,,,,,6912,1,0,,1578947,,,,,,,
7040,note_off,,,,,128,0,11,,,,,4,,,50,100
7040,note_off,,,,,128,0,14,,,,,6,,,50,100
7040,note_off,,,,,0,0,13,,,,,6,,,69,100
7040,note_off,,,,,128,0,7,,,,,0,,,78,100
7040,note_off,,,,,128,0,8,,,,,1,,,78,100
7040,note_off,,,,,128,0,13,,,,,6,,,66,100
7040,note_off,,,,,128,0,9,,,,,2,,,74,100
7040,note_off,,,,,128,0,12,,,,,5,,,38,100
7040,note_off,,,,,128,0,10,,,,,3,,,62,100
7104,note_on,,,,,64,0,14,,,,,6,,,50,100
7104,note_on,,,,,0,0,13,,,,,6,,,69,100
7104,note_on,,,,,64,0,13,,,,,6,,,66,100
7104,note_on,,,,,64,0,9,,,,,2,,,74,60
7104,note_on,,,,,64,0,12,,,,,5,,,38,60
7104,note_on,,,,,64,0,10,,,,,3,,,69,60
7104,note_on,,,,,64,0,8,,,,,1,,,78,60
7104,note_on,,,,,64,0,11,,,,,4,,,50,60
7232,note_off,,,,,128,0,11,,,,,4,,,50,100
7232,note_off,,,,,128,0,14,,,,,6,,,50,100
7232,note_off,,,,,128,0,9,,,,,2,,,74,100
7232,note_off,,,,,128,0,13,,,,,6,,,66,100
7232,note_off,,,,,128,0,12,,,,,5,,,38,100
7232,note_off,,,,,128,0,10,,,,,3,,,69,100
7232,note_off,,,,,128,0,8,,,,,1,,,78,100
7232,note_off,,,,,0,0,13,,,,,6,,,69,100
7296,note_on,,,,,64,0,10,,,,,3,,,69,60
7296,note_on,,,,,64,0,9,,,,,2,,,74,60
7296,note_on,,,,,0,0,13,,,,,6,,,69,100
7296,note_on,,,,,64,0,8,,,,,1,,,78,60
7296,note_on,,,,,64,0,13,,,,,6,,,66,100
7296,note_on,,,,,64,0,14,,,,,6,,,50,100
7296,note_on,,,,,64,0,12,,,,,5,,,38,60
7296,note_on,,,,,64,0,11,,,,,4,,,50,60
7424,note_off,,,,,128,0,14,,,,,6,,,50,100
7424,note_off,,,,,128,0,12,,,,,5,,,38,100
7424,note_off,,,,,128,0,11,,,,,4,,,50,100
7424,note_off,,,,,0,0,13,,,,,6,,,69,100
7424,note_off,,,,,128,0,9,,,,,2,,,74,100
7424,note_off,,,,,128,0,13,,,,,6,,,66,100
7424,note_off,,,,,128,0,8,,,,,1,,,78,100
7424,note_off,,,,,128,0,10,,,,,3,,,69,100
7488,note_on,,,,,0,0,13,,,,,6,,,69,100
7488,note_on,,,,,64,0,14,,,,,6,,,50,100
7488,note_on,,,,,64,0,13,,,,,6,,,66,100
7488,note_on,,,,,64,0,11,,,,,4,,,50,60
7488,note_on,,,,,64,0,9,,,,,2,,,74,60
7488,note_on,,,,,64,0,10,,,,,3,,,69,60
7488,note_on,,,,,64,0,8,,,,,1,,,78,60
7488,note_on,,,,,64,0,12,,,,,5,,,38,60
7616,note_off,,,,,128,0,9,,,,,2,,,74,100
7616,note_off,,,,,128,0,14,,,,,6,,,50,100
7616,note_off,,,,,0,0,13,,,,,6,,,69,100
7616,note_off,,,,,128,0,8,,,,,1,,,78,100
7616,note_off,,,,,128,0,10,,,,,3,,,69,100
7616,note_off,,,,,128,0,13,,,,,6,,,66,100
7616,note_off,,,,,128,0,12,,,,,5,,,38,100
7616,note_off,,,,,128,0,11,,,,,4,,,50,100
7680,note_on,,,,,64,0,10,,,,,3,,,69,60
7680,note_on,,,,,64,0,14,,,,,6,,,62,100
7680,note_on,,,,,64,0,9,,,,,2,,,74,60
7680,note_on,,,,,64,0,11,,,,,4,,,62,60
7680,note_on,,,,,0,0,13,,,,,6,,,69,100
7680,note_on,,,,,64,0,8,,,,,1,,,77,60
7680,note_on,,,,,64,0,13,,,,,6,,,77,100
7680,note_on,,,,,64,0,12,,,,,5,,,50,60
7808,note_off,,,,,128,0,14,,,,,6,,,62,100
7808,note_off,,,,,128,0,11,,,,,4,,,62,100
7808,note_off,,,,,128,0,10,,,,,3,,,69,100
7808,note_off,,,,,128,0,12,,,,,5,,,50,100
7808,note_off,,,,,128,0,9,,,,,2,,,74,100
7808,note_off,,,,,128,0,8,,,,,1,,,77,100
7808,note_off,,,,,128,0,13,,,,,6,,,77,100
7808,note_off,,,,,0,0,13,,,,,6,,,69,100
7872,note_on,,,,,64,0,11,,,,,4,,,62,60
7872,note_on,,,,,64,0,9,,,,,2,,,74,60
7872,note_on,,,,,64,0,10,,,,,3,,,69,60
7872,note_on,,,,,64,0,14,,,,,6,,,62,100
7872,note_on,,,,,0,0,13,,,,,6,,,69,100
7872,note_on,,,,,64,0,13,,,,,6,,,77,100
7872,note_on,,,,,64,0,12,,,,,5,,,50,60
7872,note_on,,,,,64,0,8,,,,,1,,,77,60
8000,note_off,,,,,128,0,8,,,,,1,,,77,100
8000,note_off,,,,,128,0,11,,,,,4,,,62,100
8000,note_off,,,,,128,0,10,,,,,3,,,69,100
8000,note_off,,,,,0,0,13,,,,,6,,,69,100
8000,note_off,,,,,128,0,12,,,,,5,,,50,100
8000,note_off,,,,,128,0,9,,,,,2,,,74,100
8000,note_off,,,,,128,0,14,,,,,6,,,62,100
8000,note_off,,,,,128,0,13,,,,,6,,,77,100
8064,note_on,,,,,64,0,14,,,,,6,,,56,100
8064,note_on,,,,,0,0,13,,,,,6,,,77,100
8064,note_on,,,,,64,0,13,,,,,6,,,74,100
8064,note_on,,,,,64,0,9,,,,,2,,,74,60
8064,note_on,,,,,64,0,12,,,,,5,,,44,60
8064,note_on,,,,,64,0,10,,,,,3,,,71,60
8064,note_on,,,,,64,0,11,,,,,4,,,56,60
8064,note_on,,,,,64,0,8,,,,,1,,,77,60
8192,note_off,,,,,128,0,8,,,,,1,,,77,100
8192,note_off,,,,,128,0,10,,,,,3,,,71,100
8192,note_off,,,,,0,0,13,,,,,6,,,77,100
8192,note_off,,,,,128,0,13,,,,,6,,,74,100
8192,note_off,,,,,128,0,14,,,,,6,,,56,100
8192,note_off,,,,,128,0,12,,,,,5,,,44,100
8192,note_off,,,,,128,0,9,,,,,2,,,74,100
8192,note_off,,,,,128,0,11,,,,,4,,,56,100
8256,note_on,,,,,64,0,14,,,,,6,,,56,100
8256,note_on,,,,,64,0,13,,,,,6,,,74,100
8256,note_on,,,,,0,0,13,,,,,6,,,77,100
8256,note_on,,,,,64,0,9,,,,,2,,,74,60
8256,note_on,,,,,64,0,8,,,,,1,,,77,60
8256,note_on,,,,,64,0,11,,,,,4,,,56,60
8256,note_on,,,,,64,0,10,,,,,3,,,71,60
8256,note_on,,,,,64,0,12,,,,,5,,,44,60
8384,note_off,,,,,128,0,9,,,,,2,,,74,100
8384,note_off,,,,,0,0,13,,,,,6,,,77,100
8384,note_off,,,,,128,0,8,,,,,1,,,77,100
8384,note_off,,,,,128,0,11,,,,,4,,,56,100
8384,note_off,,,,,128,0,10,,,,,3,,,71,100
8384,note_off,,,,,128,0,13,,,,,6,,,74,100
8384,note_off,,,,,128,0,12,,,,,5,,,44,100
8384,note_off,,,,,128,0,14,,,,,6,,,56,100
8448,note_on,,,,,64,0,12,,,,,5,,,45,60
8448,note_on,,,,,64,0,8,,,,,1,,,76,60
8448,note_on,,,,,64,0,9,,,,,2,,,74,60
8448,note_on,,,,,0,0,13,,,,,6,,,76,100
8448,note_on,,,,,64,0,13,,,,,6,,,74,100
8448,note_on,,,,,64,0,11,,,,,4,,,57,60
8448,note_on,,,,,64,0,10,,,,,3,,,69,60
8448,note_on,,,,,64,0,14,,,,,6,,,57,100
8576,note_off,,,,,128,0,12,,,,,5,,,45,100
8576,note_off,,,,,128,0,11,,,,,4,,,57,100
8576,note_off,,,,,128,0,8,,,,,1,,,76,100
8576,note_off,,,,,128,0,14,,,,,6,,,57,100
8576,note_off,,,,,128,0,10,,,,,3,,,69,100
8576,note_off,,,,,0,0,13,,,,,6,,,76,100
8576,note_off,,,,,128,0,9,,,,,2,,,74,100
8576,note_off,,,,,128,0,13,,,,,6,,,74,100
8640,note_on,,,,,64,0,8,,,,,1,,,76,60
8640,note_on,,,,,64,0,10,,,,,3,,,69,60
8640,note_on,,,,,64,0,12,,,,,5,,,45,60
8640,note_on,,,,,64,0,11,,,,,4,,,57,60
8640,note_on,,,,,64,0,14,,,,,6,,,57,100
8640,note_on,,,,,64,0,13,,,,,6,,,74,100
8640,note_on,,,,,64,0,9,,,,,2,,,74,60
8640,note_on,,,,,0,0,13,,,,,6,,,76,100
8768,note_off,,,,,0,0,13,,,,,6,,,76,100
8768,note_off,,,,,128,0,12,,,,,5,,,45,100
8768,note_off,,,,,128,0,9,,,,,2,,,74,100
8768,note_off,,,,,128,0,10,,,,,3,,,69,100
8768,note_off,,,,,128,0,14,,,,,6,,,57,100
8768,note_off,,,,,128,0,8,,,,,1,,,76,100
8768,note_off,,,,,128,0,11,,,,,4,,,57,100
8768,note_off,,,,,128,0,13,,,,,6,,,74,100
8832,note_on,,,,,64,0,9,,,,,2,,,73,60
8832,note_on,,,,,64,0,8,,,,,1,,,76,60
8832,note_on,,,,,64,0,11,,,,,4,,,45,60
8832,note_on,,,,,64,0,12,,,,,5,,,33,60
8832,note_on,,,,,0,0,13,,,,,6,,,73,100
8832,note_on,,,,,64,0,13,,,,,6,,,64,100
8832,note_on,,,,,64,0,10,,,,,3,,,69,60
8832,note_on,,,,,64,0,14,,,,,6,,,45,100
8960,note_off,,,,,128,0,14,,,,,6,,,45,100
8960,note_off,,,,,128,0,8,,,,,1,,,76,100
8960,note_off,,,,,128,0,9,,,,,2,,,73,100
8960,note_off,,,,,128,0,13,,,,,6,,,64,100
8960,note_off,,,,,128,0,12,,,,,5,,,33,100
8960,note_off,,,,,0,0,13,,,,,6,,,73,100
8960,note_off,,,,,128,0,10,,,,,3,,,69,100
8960,note_off,,,,,128,0,11,,,,,4,,,45,100
9024,note_on,,,,,64,0,11,,,,,4,,,45,60
9024,note_on,,,,,64,0,10,,,,,3,,,69,60
9024,note_on,,,,,64,0,14,,,,,6,,,45,100
9024,note_on,,,,,64,0,13,,,,,6,,,64,100
9024,note_on,,,,,0,0,13,,,,,6,,,73,100
9024,note_on,,,,,64,0,12,,,,,5,,,33,60
9024,note_on,,,,,64,0,9,,,,,2,,,73,60
9024,note_on,,,,,64,0,8,,,,,1,,,76,60
9152,note_off,,,,,128,0,9,,,,,2,,,73,100
9152,note_off,,,,,128,0,12,,,,,5,,,33,100
9152,note_off,,,,,128,0,8,,,,,1,,,76,100
9152,note_off,,,,,128,0,14,,,,,6,,,45,100
9152,note_off,,,,,128,0,13,,,,,6,,,64,100
9152,note_off,,,,,128,0,11,,,,,4,,,45,100
9152,note_off,,,,,128,0,10,,,,,3,,,69,100
9152,note_off,,,,,0,0,13,,,,,6,,,73,100
9216,note_on,,,,,2176,0,7,,,,,0,,,74,85
9216,note_on,,,,,64,0,12,,,,,5,,,38,60
9216,note_on,,,,,0,0,13,,,,,6,,,66,100
9216,note_on,,,,,64,0,13,,,,,6,,,69,100
9216,note_on,,,,,64,0,8,,,,,1,,,78,60
9216,note_on,,,,,64,0,11,,,,,4,,,50,60
9216,note_on,,,,,64,0,14,,,,,6,,,50,100
9216,note_on,,,,,64,0,9,,,,,2,,,74,60
9216,note_on,,,,,64,0,10,,,,,3,,,62,60
9280,note_off,,,,,64,0,7,,,,,0,,,74,100
9312,note_on,,,,,32,0,7,,,,,0,,,78,85
9344,note_off,,,,,128,0,9,,,,,2,,,74,100
9344,note_off,,,,,128,0,10,,,,,3,,,62,100
9344,note_off,,,,,128,0,8,,,,,1,,,78,100
9356,note_off,,,,,44,0,7,,,,,0,,,78,100
9360,note_on,,,,,4,0,7,,,,,0,,,76,85
9392,note_off,,,,,32,0,7,,,,,0,,,76,100
9408,note_on,,,,,64,0,8,,,,,1,,,78,60
9408,note_on,,,,,64,0,10,,,,,3,,,62,60
9408,note_on,,,,,16,0,7,,,,,0,,,78,85
9408,note_on,,,,,64,0,9,,,,,2,,,74,60
9472,note_off,,,,,64,0,7,,,,,0,,,78,100
9472,note_off,,,,,256,0,12,,,,,5,,,38,100
9472,note_off,,,,,0,0,13,,,,,6,,,66,100
9472,note_off,,,,,256,0,13,,,,,6,,,69,100
9472,note_off,,,,,256,0,14,,,,,6,,,50,100
9472,note_off,,,,,256,0,11,,,,,4,,,50,100
9504,note_on,,,,,32,0,7,,,,,0,,,74,85
9536,note_off,,,,,128,0,9,,,,,2,,,74,100
9536,note_off,,,,,128,0,8,,,,,1,,,78,100
9536,note_off,,,,,128,0,10,,,,,3,,,62,100
9568,note_off,,,,,64,0,7,,,,,0,,,74,100
9600,note_on,,,,,64,0,10,,,,,3,,,62,60
9600,note_on,,,,,64,0,9,,,,,2,,,74,60
9600,note_on,,,,,32,0,7,,,,,0,,,74,85
9600,note_on,,,,,64,0,8,,,,,1,,,78,60
9664,note_off,,,,,64,0,7,,,,,0,,,74,100
9696,note_on,,,,,32,0,7,,,,,0,,,78,85
9728,note_off,,,,,128,0,9,,,,,2,,,74,100
9728,note_off,,,,,128,0,10,,,,,3,,,62,100
9728,note_off,,,,,128,0,8,,,,,1,,,78,100
9740,note_off,,,,,44,0,7,,,,,0,,,78,100
9744,note_on,,,,,4,0,7,,,,,0,,,76,85
9776,note_off,,,,,32,0,7,,,,,0,,,76,100
9792,note_on,,,,,64,0,9,,,,,2,,,74,60
9792,note_on,,,,,64,0,10,,,,,3,,,62,60
9792,note_on,,,,,16,0,7,,,,,0,,,78,85
9792,note_on,,,,,64,0,8,,,,,1,,,78,60
9856,note_off,,,,,64,0,7,,,,,0,,,78,100
9888,note_on,,,,,32,0,7,,,,,0,,,69,85
9920,note_off,,,,,128,0,10,,,,,3,,,62,100
9920,note_off,,,,,128,0,8,,,,,1,,,78,100
9920,note_off,,,,,128,0,9,,,,,2,,,74,100
9952,note_off,,,,,64,0,7,,,,,0,,,69,100
9984,note_on,,,,,64,0,9,,,,,2,,,74,60
9984,note_on,,,,,32,0,7,,,,,0,,,69,85
9984,note_on,,,,,64,0,8,,,,,1,,,78,60
9984,note_on,,,,,64,0,10,,,,,3,,,62,60
10048,note_off,,,,,64,0,7,,,,,0,,,69,100
10080,note_on,,,,,32,0,7,,,,,0,,,78,85
10112,note_off,,,,,128,0,9,,,,,2,,,74,100
10112,note_off,,,,,128,0,10,,,,,3,,,62,100
10112,note_off,,,,,128,0,8,,,,,1,,,78,100
10144,note_off,,,,,64,0,7,,,,,0,,,78,100
10176,note_on,,,,,64,0,8,,,,,1,,,78,60
10176,note_on,,,,,64,0,10,,,,,3,,,62,60
10176,note_on,,,,,64,0,9,,,,,2,,,74,60
10176,note_on,,,,,32,0,7,,,,,0,,,78,85
10196,note_off,,,,,20,0,7,,,,,0,,,78,100
10200,note_on,,,,,4,0,7,,,,,0,,,79,85
10220,note_off,,,,,20,0,7,,,,,0,,,79,100
10224,note_on,,,,,4,0,7,,,,,0,,,78,85
10244,note_off,,,,,20,0,7,,,,,0,,,78,100
10248,note_on,,,,,4,0,7,,,,,0,,,79,85
10268,note_off,,,,,20,0,7,,,,,0,,,79,100
10272,note_on,,,,,4,0,7,,,,,0,,,76,85
10304,note_off,,,,,128,0,9,,,,,2,,,74,100
10304,note_off,,,,,128,0,10,,,,,3,,,62,100
10304,note_off,,,,,128,0,8,,,,,1,,,78,100
10316,note_off,,,,,44,0,7,,,,,0,,,76,100
10320,note_on,,,,,4,0,7,,,,,0,,,74,85
10352,note_off,,,,,32,0,7,,,,,0,,,74,100
10368,note_on,,,,,64,0,8,,,,,1,,,79,60
10368,note_on,,,,,64,0,9,,,,,2,,,74,60
10368,note_on,,,,,16,0,7,,,,,0,,,76,85
10368,note_on,,,,,64,0,10,,,,,3,,,57,60
10432,note_off,,,,,64,0,7,,,,,0,,,76,100
10464,note_on,,,,,32,0,7,,,,,0,,,79,85
10496,note_off,,,,,128,0,10,,,,,3,,,57,100
10496,note_off,,,,,128,0,8,,,,,1,,,79,100
10496,note_off,,,,,128,0,9,,,,,2,,,74,100
10508,note_off,,,,,44,0,7,,,,,0,,,79,100
10512,note_on,,,,,4,0,7,,,,,0,,,78,85
10544,note_off,,,,,32,0,7,,,,,0,,,78,100
10560,note_on,,,,,16,0,7,,,,,0,,,79,85
10560,note_on,,,,,64,0,10,,,,,3,,,57,60
10560,note_on,,,,,64,0,9,,,,,2,,,74,60
10560,note_on,,,,,64,0,8,,,,,1,,,79,60
10624,note_off,,,,,64,0,7,,,,,0,,,79,100
10656,note_on,,,,,32,0,7,,,,,0,,,76,85
10688,note_off,,,,,128,0,8,,,,,1,,,79,100
10688,note_off,,,,,128,0,9,,,,,2,,,74,100
10688,note_off,,,,,128,0,10,,,,,3,,,57,100
10720,note_off,,,,,64,0,7,,,,,0,,,76,100
10752,note_on,,,,,64,0,10,,,,,3,,,57,60
10752,note_on,,,,,64,0,8,,,,,1,,,79,60
10752,note_on,,,,,64,0,9,,,,,2,,,73,60
10752,note_on,,,,,32,0,7,,,,,0,,,76,85
10816,note_off,,,,,64,0,7,,,,,0,,,76,100
10848,note_on,,,,,32,0,7,,,,,0,,,79,85
10880,note_off,,,,,128,0,10,,,,,3,,,57,100
10880,note_off,,,,,128,0,8,,,,,1,,,79,100
10880,note_off,,,,,128,0,9,,,,,2,,,73,100
10892,note_off,,,,,44,0,7,,,,,0,,,79,100
10896,note_on,,,,,4,0,7,,,,,0,,,78,85
10928,note_off,,,,,32,0,7,,,,,0,,,78,100
10944,note_on,,,,,64,0,10,,,,,3,,,57,60
10944,note_on,,,,,64,0,8,,,,,1,,,79,60
10944,note_on,,,,,16,0,7,,,,,0,,,79,85
10944,note_on,,,,,64,0,9,,,,,2,,,73,60
11008,note_off,,,,,64,0,7,,,,,0,,,79,100
11040,note_on,,,,,32,0,7,,,,,0,,,69,85
11072,note_off,,,,,128,0,8,,,,,1,,,79,100
11072,note_off,,,,,128,0,10,,,,,3,,,57,100
11072,note_off,,,,,128,0,9,,,,,2,,,73,100
11104,note_off,,,,,64,0,7,,,,,0,,,69,100
11136,note_on,,,,,64,0,9,,,,,2,,,73,60
11136,note_on,,,,,64,0,8,,,,,1,,,79,60
11136,note_on,,,,,64,0,10,,,,,3,,,57,60
11136,note_on,,,,,32,0,7,,,,,0,,,69,85
11200,note_off,,,,,64,0,7,,,,,0,,,69,100
11232,note_on,,,,,32,0,7,,,,,0,,,79,85
11264,note_off,,,,,128,0,9,,,,,2,,,73,100
11264,note_off,,,,,128,0,8,,,,,1,,,79,100
11264,note_off,,,,,128,0,10,,,,,3,,,57,100
11296,note_off,,,,,64,0,7,,,,,0,,,79,100
11328,note_on,,,,,64,0,8,,,,,1,,,79,60
11328,note_on,,,,,32,0,7,,,,,0,,,79,85
11328,note_on,,,,,64,0,10,,,,,3,,,57,60
11328,note_on,,,,,64,0,9,,,,,2,,,73,60
11348,note_off,,,,,20,0,7,,,,,0,,,79,100
11352,note_on,,,,,4,0,7,,,,,0,,,81,85
11372,note_off,,,,,20,0,7,,,,,0,,,81,100
11376,note_on,,,,,4,0,7,,,,,0,,,79,85
11396,note_off,,,,,20,0,7,,,,,0,,,79,100
11400,note_on,,,,,4,0,7,,,,,0,,,81,85
11420,note_off,,,,,20,0,7,,,,,0,,,81,100
11424,note_on,,,,,4,0,7,,,,,0,,,78,85
11456,note_off,,,,,128,0,8,,,,,1,,,79,100
11456,note_off,,,,,128,0,9,,,,,2,,,73,100
11456,note_off,,,,,128,0,10,,,,,3,,,57,100
11468,note_off,,,,,44,0,7,,,,,0,,,78,100
11472,note_on,,,,,4,0,7,,,,,0,,,76,85
11504,note_off,,,,,32,0,7,,,,,0,,,76,100
11520,note_on,,,,,64,0,10,,,,,3,,,62,60
11520,note_on,,,,,64,0,8,,,,,1,,,78,60
11520,note_on,,,,,64,0,9,,,,,2,,,69,60
11520,note_on,,,,,16,0,7,,,,,0,,,78,85
11584,note_off,,,,,64,0,7,,,,,0,,,78,100
11616,note_on,,,,,32,0,7,,,,,0,,,81,85
11648,note_off,,,,,128,0,10,,,,,3,,,62,100
11648,note_off,,,,,128,0,8,,,,,1,,,78,100
11648,note_off,,,,,128,0,9,,,,,2,,,69,100
11660,note_off,,,,,44,0,7,,,,,0,,,81,100
11664,note_on,,,,,4,0,7,,,,,0,,,79,85
11696,note_off,,,,,32,0,7,,,,,0,,,79,100
11712,note_on,,,,,64,0,8,,,,,1,,,78,60
11712,note_on,,,,,64,0,9,,,,,2,,,69,60
11712,note_on,,,,,64,0,10,,,,,3,,,62,60
11712,note_on,,,,,16,0,7,,,,,0,,,81,85
11776,note_off,,,,,64,0,7,,,,,0,,,81,100
11808,note_on,,,,,32,0,7,,,,,0,,,74,85
11840,note_off,,,,,128,0,10,,,,,3,,,62,100
11840,note_off,,,,,128,0,8,,,,,1,,,78,100
11840,note_off,,,,,128,0,9,,,,,2,,,69,100
11872,note_off,,,,,64,0,7,,,,,0,,,74,100
11904,note_on,,,,,64,0,10,,,,,3,,,62,60
11904,note_on,,,,,32,0,7,,,,,0,,,74,85
11904,note_on,,,,,64,0,9,,,,,2,,,69,60
11904,note_on,,,,,64,0,8,,,,,1,,,78,60
11968,note_off,,,,,64,0,7,,,,,0,,,74,100
12000,note_on,,,,,32,0,7,,,,,0,,,78,85
12032,note_off,,,,,128,0,8,,,,,1,,,78,100
12032,note_off,,,,,128,0,10,,,,,3,,,62,100
12032,note_off,,,,,128,0,9,,,,,2,,,69,100
12044,note_off,,,,,44,0,7,,,,,0,,,78,100
12048,note_on,,,,,4,0,7,,,,,0,,,76,85
12080,note_off,,,,,32,0,7,,,,,0,,,76,100
12096,note_on,,,,,16,0,7,,,,,0,,,78,85
12096,note_on,,,,,64,0,8,,,,,1,,,78,60
12096,note_on,,,,,64,0,10,,,,,3,,,62,60
12096,note_on,,,,,64,0,9,,,,,2,,,71,60
12160,note_off,,,,,64,0,7,,,,,0,,,78,100
12192,note_on,,,,,32,0,7,,,,,0,,,71,85
12224,note_off,,,,,128,0,10,,,,,3,,,62,100
12224,note_off,,,,,128,0,9,,,,,2,,,71,100
12224,note_off,,,,,128,0,8,,,,,1,,,78,100
12256,note_off,,,,,64,0,7,,,,,0,,,71,100
12288,note_on,,,,,64,0,10,,,,,3,,,62,60
12288,note_on,,,,,64,0,8,,,,,1,,,78,60
12288,note_on,,,,,32,0,7,,,,,0,,,71,85
12288,note_on,,,,,64,0,9,,,,,2,,,71,60
12352,note_off,,,,,64,0,7,,,,,0,,,71,100
12384,note_on,,,,,32,0,7,,,,,0,,,74,85
12416,note_off,,,,,128,0,10,,,,,3,,,62,100
12416,note_off,,,,,128,0,9,,,,,2,,,71,100
12416,note_off,,,,,128,0,8,,,,,1,,,78,100
12428,note_off,,,,,44,0,7,,,,,0,,,74,100
12432,note_on,,,,,4,0,7,,,,,0,,,73,85
12464,note_off,,,,,32,0,7,,,,,0,,,73,100
12480,note_on,,,,,64,0,10,,,,,3,,,62,60
12480,note_on,,,,,64,0,8,,,,,1,,,78,60
12480,note_on,,,,,16,0,7,,,,,0,,,74,85
12480,note_on,,,,,64,0,9,,,,,2,,,71,60
12544,note_off,,,,,64,0,7,,,,,0,,,74,100
12576,note_on,,,,,32,0,7,,,,,0,,,64,85
12608,note_off,,,,,128,0,10,,,,,3,,,62,100
12608,note_off,,,,,128,0,8,,,,,1,,,78,100
12608,note_off,,,,,128,0,9,,,,,2,,,71,100
12640,note_off,,,,,64,0,7,,,,,0,,,64,100
12672,note_on,,,,,32,0,7,,,,,0,,,64,85
12672,note_on,,,,,64,0,10,,,,,3,,,56,60
12672,note_on,,,,,64,0,9,,,,,2,,,71,60
12672,note_on,,,,,64,0,8,,,,,1,,,76,60
12764,note_off,,,,,92,0,7,,,,,0,,,64,100
12768,note_on,,,,,4,0,7,,,,,0,,,71,85
12800,note_off,,,,,128,0,8,,,,,1,,,76,100
12800,note_off,,,,,128,0,9,,,,,2,,,71,100
12800,note_off,,,,,128,0,10,,,,,3,,,56,100
12832,note_off,,,,,64,0,7,,,,,0,,,71,100
12864,note_on,,,,,64,0,9,,,,,2,,,71,60
12864,note_on,,,,,64,0,8,,,,,1,,,76,60
12864,note_on,,,,,32,0,7,,,,,0,,,71,85
12864,note_on,,,,,64,0,10,,,,,3,,,56,60
12956,note_off,,,,,92,0,7,,,,,0,,,71,100
12960,note_on,,,,,4,0,7,,,,,0,,,76,85
12992,note_off,,,,,128,0,9,,,,,2,,,71,100
12992,note_off,,,,,128,0,8,,,,,1,,,76,100
12992,note_off,,,,,128,0,10,,,,,3,,,56,100
13024,note_off,,,,,64,0,7,,,,,0,,,76,100
13056,note_on,,,,,64,0,9,,,,,2,,,71,60
13056,note_on,,,,,32,0,7,,,,,0,,,76,85
13056,note_on,,,,,64,0,8,,,,,1,,,76,60
13056,note_on,,,,,64,0,10,,,,,3,,,56,60
13148,note_off,,,,,92,0,7,,,,,0,,,76,100
13152,note_on,,,,,4,0,7,,,,,0,,,68,85
13184,note_off,,,,,128,0,9,,,,,2,,,71,100
13184,note_off,,,,,128,0,10,,,,,3,,,56,100
13184,note_off,,,,,128,0,8,,,,,1,,,76,100
13216,note_off,,,,,64,0,7,,,,,0,,,68,100
13248,note_on,,,,,64,0,8,,,,,1,,,76,60
13248,note_on,,,,,32,0,7,,,,,0,,,68,85
13248,note_on,,,,,64,0,9,,,,,2,,,71,60
13248,note_on,,,,,64,0,10,,,,,3,,,56,60
13340,note_off,,,,,92,0,7,,,,,0,,,68,100
13344,note_on,,,,,4,0,7,,,,,0,,,71,85
13376,note_off,,,,,128,0,10,,,,,3,,,56,100
13376,note_off,,,,,128,0,8,,,,,1,,,76,100
13376,note_off,,,,,128,0,9,,,,,2,,,71,100
13408,note_off,,,,,64,0,7,,,,,0,,,71,100
13440,note_on,,,,,32,0,7,,,,,0,,,71,85
13440,note_on,,,,,64,0,9,,,,,2,,,71,60
13440,note_on,,,,,64,0,8,,,,,1,,,76,60
13440,note_on,,,,,64,0,10,,,,,3,,,56,60
13532,note_off,,,,,92,0,7,,,,,0,,,71,100
13536,note_on,,,,,4,0,7,,,,,0,,,64,85
13568,note_off,,,,,128,0,10,,,,,3,,,56,100
13568,note_off,,,,,128,0,8,,,,,1,,,76,100
13568,note_off,,,,,128,0,9,,,,,2,,,71,100
13600,note_off,,,,,64,0,7,,,,,0,,,64,100
13632,note_on,,,,,32,0,7,,,,,0,,,64,85
13632,note_on,,,,,64,0,9,,,,,2,,,71,60
13632,note_on,,,,,64,0,8,,,,,1,,,76,60
13632,note_on,,,,,64,0,10,,,,,3,,,56,60
13724,note_off,,,,,92,0,7,,,,,0,,,64,100
13728,note_on,,,,,4,0,7,,,,,0,,,74,85
13760,note_off,,,,,128,0,10,,,,,3,,,56,100
13760,note_off,,,,,128,0,9,,,,,2,,,71,100
13760,note_off,,,,,128,0,8,,,,,1,,,76,100
13792,note_off,,,,,64,0,7,,,,,0,,,74,100
13824,note_on,,,,,64,0,8,,,,,1,,,76,60
13824,note_on,,,,,64,0,9,,,,,2,,,71,60
13824,note_on,,,,,32,0,7,,,,,0,,,74,85
13824,note_on,,,,,64,0,10,,,,,3,,,57,60
13916,note_off,,,,,92,0,7,,,,,0,,,74,100
13920,note_on,,,,,4,0,7,,,,,0,,,73,85
13952,note_off,,,,,128,0,10,,,,,3,,,57,100
13952,note_off,,,,,128,0,9,,,,,2,,,71,100
13952,note_off,,,,,128,0,8,,,,,1,,,76,100
13984,note_off,,,,,64,0,7,,,,,0,,,73,100
14016,note_on,,,,,64,0,9,,,,,2,,,69,60
14016,note_on,,,,,64,0,8,,,,,1,,,76,60
14016,note_on,,,,,32,0,7,,,,,0,,,73,85
14016,note_on,,,,,64,0,10,,,,,3,,,57,60
14108,note_off,,,,,92,0,7,,,,,0,,,73,100
14112,note_on,,,,,4,0,7,,,,,0,,,76,85
14144,note_off,,,,,128,0,8,,,,,1,,,76,100
14144,note_off,,,,,128,0,10,,,,,3,,,57,100
14144,note_off,,,,,128,0,9,,,,,2,,,69,100
14176,note_off,,,,,64,0,7,,,,,0,,,76,100
14208,note_on,,,,,32,0,7,,,,,0,,,76,85
14208,note_on,,,,,64,0,9,,,,,2,,,73,60
14208,note_on,,,,,64,0,10,,,,,3,,,57,60
14208,note_on,,,,,64,0,8,,,,,1,,,76,60
14300,note_off,,,,,92,0,7,,,,,0,,,76,100
14304,note_on,,,,,4,0,7,,,,,0,,,69,85
14336,note_off,,,,,128,0,9,,,,,2,,,73,100
14336,note_off,,,,,128,0,8,,,,,1,,,76,100
14336,note_off,,,,,128,0,10,,,,,3,,,57,100
14368,note_off,,,,,64,0,7,,,,,0,,,69,100
14400,note_on,,,,,64,0,8,,,,,1,,,76,60
14400,note_on,,,,,64,0,9,,,,,2,,,73,60
14400,note_on,,,,,32,0,7,,,,,0,,,69,85
14400,note_on,,,,,64,0,10,,,,,3,,,57,60
14492,note_off,,,,,92,0,7,,,,,0,,,69,100
14496,note_on,,,,,4,0,7,,,,,0,,,76,85
14528,note_off,,,,,128,0,10,,,,,3,,,57,100
14528,note_off,,,,,128,0,8,,,,,1,,,76,100
14528,note_off,,,,,128,0,9,,,,,2,,,73,100
14560,note_off,,,,,64,0,7,,,,,0,,,76,100
14592,note_on,,,,,32,0,7,,,,,0,,,78,85
14592,note_on,,,,,64,0,10,,,,,3,,,62,60
14592,note_on,,,,,64,0,9,,,,,2,,,69,60
14592,note_on,,,,,64,0,8,,,,,1,,,74,60
14684,note_off,,,,,92,0,7,,,,,0,,,78,100
14688,note_on,,,,,4,0,7,,,,,0,,,69,85
14720,note_off,,,,,128,0,10,,,,,3,,,62,100
14720,note_off,,,,,128,0,9,,,,,2,,,69,100
14720,note_off,,,,,128,0,8,,,,,1,,,74,100
14752,note_off,,,,,64,0,7,,,,,0,,,69,100
14784,note_on,,,,,64,0,9,,,,,2,,,69,60
14784,note_on,,,,,64,0,8,,,,,1,,,74,60
14784,note_on,,,,,32,0,7,,,,,0,,,69,85
14784,note_on,,,,,64,0,10,,,,,3,,,62,60
14876,note_off,,,,,92,0,7,,,,,0,,,69,100
14880,note_on,,,,,4,0,7,,,,,0,,,78,85
14912,note_off,,,,,128,0,8,,,,,1,,,74,100
14912,note_off,,,,,128,0,10,,,,,3,,,62,100
14912,note_off,,,,,128,0,9,,,,,2,,,69,100
14944,note_off,,,,,64,0,7,,,,,0,,,78,100
14976,note_on,,,,,64,0,8,,,,,1,,,74,60
14976,note_on,,,,,32,0,7,,,,,0,,,76,85
14976,note_on,,,,,64,0,10,,,,,3,,,56,60
14976,note_on,,,,,64,0,9,,,,,2,,,71,60
15104,note_off,,,,,128,0,10,,,,,3,,,56,100
15104,note_off,,,,,128,0,8,,,,,1,,,74,100
15104,note_off,,,,,128,0,9,,,,,2,,,71,100
15116,note_off,,,,,140,0,7,,,,,0,,,76,100
15120,note_on,,,,,4,0,7,,,,,0,,,78,85
15152,note_off,,,,,32,0,7,,,,,0,,,78,100
15168,note_on,,,,,16,0,7,,,,,0,,,76,85
15168,note_on,,,,,64,0,10,,,,,3,,,56,60
15168,note_on,,,,,64,0,8,,,,,1,,,74,60
15168,note_on,,,,,64,0,9,,,,,2,,,71,60
15296,note_off,,,,,128,0,8,,,,,1,,,74,100
15296,note_off,,,,,128,0,9,,,,,2,,,71,100
15296,note_off,,,,,128,0,10,,,,,3,,,56,100
15308,note_off,,,,,140,0,7,,,,,0,,,76,100
15312,note_on,,,,,4,0,7,,,,,0,,,78,85
15344,note_off,,,,,32,0,7,,,,,0,,,78,100
15360,note_on,,,,,64,0,9,,,,,2,,,69,60
15360,note_on,,,,,16,0,7,,,,,0,,,76,85
15360,note_on,,,,,64,0,8,,,,,1,,,73,60
15360,note_on,,,,,64,0,10,,,,,3,,,57,60
15424,note_off,,,,,64,0,7,,,,,0,,,76,100
15456,note_on,,,,,32,0,7,,,,,0,,,78,85
15488,note_off,,,,,128,0,8,,,,,1,,,73,100
15488,note_off,,,,,128,0,10,,,,,3,,,57,100
15488,note_off,,,,,128,0,9,,,,,2,,,69,100
15500,note_off,,,,,44,0,7,,,,,0,,,78,100
15504,note_on,,,,,4,0,7,,,,,0,,,76,85
15548,note_off,,,,,44,0,7,,,,,0,,,76,100
15552,note_on,,,,,64,0,10,,,,,3,,,62,60
15552,note_on,,,,,64,0,8,,,,,1,,,73,60
15552,note_on,,,,,64,0,9,,,,,2,,,69,60
15552,note_on,,,,,4,0,7,,,,,0,,,74,85
15644,note_off,,,,,92,0,7,,,,,0,,,74,100
15648,note_on,,,,,4,0,7,,,,,0,,,73,85
15680,note_off,,,,,128,0,10,,,,,3,,,62,100
15680,note_off,,,,,128,0,9,,,,,2,,,69,100
15680,note_off,,,,,128,0,8,,,,,1,,,73,100
15712,note_off,,,,,64,0,7,,,,,0,,,73,100
15744,note_on,,,,,64,0,10,,,,,3,,,64,60
15744,note_on,,,,,64,0,8,,,,,1,,,71,60
15744,note_on,,,,,0,0,7,,,,,0,,,64,85
15744,note_on,,,,,64,0,9,,,,,2,,,69,60
15744,note_on,,,,,32,0,7,,,,,0,,,71,85
15788,note_off,,,,,44,0,7,,,,,0,,,71,100
15792,note_on,,,,,4,0,7,,,,,0,,,73,85
15836,note_off,,,,,44,0,7,,,,,0,,,73,100
15840,note_on,,,,,4,0,7,,,,,0,,,71,85
15860,note_off,,,,,20,0,7,,,,,0,,,71,100
15864,note_on,,,,,4,0,7,,,,,0,,,73,85
15872,note_off,,,,,128,0,8,,,,,1,,,71,100
15872,note_off,,,,,128,0,9,,,,,2,,,69,100
15872,note_off,,,,,128,0,10,,,,,3,,,64,100
15884,note_off,,,,,20,0,7,,,,,0,,,73,100
15888,note_on,,,,,4,0,7,,,,,0,,,71,85
15908,note_off,,,,,20,0,7,,,,,0,,,71,100
15912,note_on,,,,,4,0,7,,,,,0,,,73,85
15932,note_off,,,,,20,0,7,,,,,0,,,73,100
15936,note_on,,,,,64,0,10,,,,,3,,,64,60
15936,note_on,,,,,4,0,7,,,,,0,,,71,85
15936,note_on,,,,,64,0,9,,,,,2,,,68,60
15936,note_on,,,,,64,0,8,,,,,1,,,71,60
16000,note_off,,,,,64,0,7,,,,,0,,,64,100
16000,note_off,,,,,0,0,7,,,,,0,,,71,100
16032,note_on,,,,,32,0,7,,,,,0,,,69,85
16064,note_off,,,,,128,0,9,,,,,2,,,68,100
16064,note_off,,,,,128,0,10,,,,,3,,,64,100
16064,note_off,,,,,128,0,8,,,,,1,,,71,100
16096,note_off,,,,,64,0,7,,,,,0,,,69,100
16128,note_on,,,,,32,0,7,,,,,0,,,69,85
16128,note_on,,,,,64,0,9,,,,,2,,,69,60
16128,note_on,,,,,64,0,10,,,,,3,,,57,60
16128,note_on,,,,,64,0,8,,,,,1,,,73,60
16256,note_off,,,,,128,0,10,,,,,3,,,57,100
16256,note_off,,,,,128,0,8,,,,,1,,,73,100
16256,note_off,,,,,128,0,9,,,,,2,,,69,100
16320,note_on,,,,,64,0,10,,,,,3,,,57,60
16320,note_on,,,,,64,0,9,,,,,2,,,73,60
16320,note_on,,,,,64,0,8,,,,,1,,,76,60
16384,note_off,,,,,256,0,7,,,,,0,,,69,100
16448,note_off,,,,,128,0,9,,,,,2,,,73,100
16448,note_off,,,,,128,0,10,,,,,3,,,57,100
16448,note_off,,,,,128,0,8,,,,,1,,,76,100
16512,note_on,,,,,64,0,9,,,,,2,,,73,60
16512,note_on,,,,,64,0,10,,,,,3,,,57,60
16512,note_on,,,,,64,0,8,,,,,1,,,76,60
16608,note_on,,,,,224,0,7,,,,,0,,,81,95
16640,note_off,,,,,128,0,9,,,,,2,,,73,100
16640,note_off,,,,,128,0,8,,,,,1,,,76,100
16640,note_off,,,,,128,0,10,,,,,3,,,57,100
16672,note_off,,,,,64,0,7,,,,,0,,,81,100
16704,note_on,,,,,64,0,8,,,,,1,,,76,60
16704,note_on,,,,,32,0,7,,,,,0,,,81,92
16704,note_on,,,,,64,0,10,,,,,3,,,57,60
16704,note_on,,,,,64,0,9,,,,,2,,,73,60
16768,note_off,,,,,64,0,7,,,,,0,,,81,100
16800,note_on,,,,,32,0,7,,,,,0,,,81,89
16832,note_off,,,,,128,0,8,,,,,1,,,76,100
16832,note_off,,,,,128,0,9,,,,,2,,,73,100
16832,note_off,,,,,128,0,10,,,,,3,,,57,100
16864,note_off,,,,,64,0,7,,,,,0,,,81,100
16896,note_on,,,,,64,0,10,,,,,3,,,57,60
16896,note_on,,,,,64,0,8,,,,,1,,,76,60
16896,note_on,,,,,64,0,9,,,,,2,,,73,60
16896,note_on,,,,,32,0,7,,,,,0,,,81,86
16960,note_off,,,,,64,0,7,,,,,0,,,81,100
16992,note_on,,,,,32,0,7,,,,,0,,,83,85
17024,note_off,,,,,128,0,10,,,,,3,,,57,100
17024,note_off,,,,,128,0,9,,,,,2,,,73,100
17024,note_off,,,,,128,0,8,,,,,1,,,76,100
17036,note_off,,,,,44,0,7,,,,,0,,,83,100
17040,note_on,,,,,4,0,7,,,,,0,,,81,85
17072,note_off,,,,,32,0,7,,,,,0,,,81,100
17088,note_on,,,,,64,0,8,,,,,1,,,76,60
17088,note_on,,,,,64,0,10,,,,,3,,,57,60
17088,note_on,,,,,16,0,7,,,,,0,,,83,85
17088,note_on,,,,,64,0,9,,,,,2,,,73,60
17132,note_off,,,,,44,0,7,,,,,0,,,83,100
17136,note_on,,,,,4,0,7,,,,,0,,,81,85
17168,note_off,,,,,32,0,7,,,,,0,,,81,100
17184,note_on,,,,,16,0,7,,,,,0,,,79,85
17216,note_off,,,,,128,0,9,,,,,2,,,73,100
17216,note_off,,,,,128,0,10,,,,,3,,,57,100
17216,note_off,,,,,128,0,8,,,,,1,,,76,100
17228,note_off,,,,,44,0,7,,,,,0,,,79,100
17232,note_on,,,,,4,0,7,,,,,0,,,78,85
17264,note_off,,,,,32,0,7,,,,,0,,,78,100
17280,note_on,,,,,16,0,7,,,,,0,,,79,85
17280,note_on,,,,,64,0,10,,,,,3,,,57,60
17280,note_on,,,,,64,0,9,,,,,2,,,73,60
17280,note_on,,,,,64,0,8,,,,,1,,,76,60
17324,note_off,,,,,44,0,7,,,,,0,,,79,100
17328,note_on,,,,,4,0,7,,,,,0,,,78,85
17372,note_off,,,,,44,0,7,,,,,0,,,78,100
17376,note_on,,,,,4,0,7,,,,,0,,,76,86
17408,note_off,,,,,128,0,8,,,,,1,,,76,100
17408,note_off,,,,,128,0,9,,,,,2,,,73,100
17408,note_off,,,,,128,0,10,,,,,3,,,57,100
17420,note_off,,,,,44,0,7,,,,,0,,,76,100
17424,note_on,,,,,4,0,7,,,,,0,,,78,86
17456,note_off,,,,,32,0,7,,,,,0,,,78,100
17472,note_on,,,,,64,0,8,,,,,1,,,76,60
17472,note_on,,,,,16,0,7,,,,,0,,,79,87
17472,note_on,,,,,64,0,10,,,,,3,,,57,60
17472,note_on,,,,,64,0,9,,,,,2,,,73,60
17516,note_off,,,,,44,0,7,,,,,0,,,79,100
17520,note_on,,,,,4,0,7,,,,,0,,,78,88
17564,note_off,,,,,44,0,7,,,,,0,,,78,100
17568,note_on,,,,,4,0,7,,,,,0,,,76,88
17600,note_off,,,,,128,0,10,,,,,3,,,57,100
17600,note_off,,,,,128,0,8,,,,,1,,,76,100
17600,note_off,,,,,128,0,9,,,,,2,,,73,100
17612,note_off,,,,,44,0,7,,,,,0,,,76,100
17616,note_on,,,,,4,0,7,,,,,0,,,78,89
17648,note_off,,,,,32,0,7,,,,,0,,,78,100
17664,note_on,,,,,64,0,10,,,,,3,,,57,60
17664,note_on,,,,,64,0,8,,,,,1,,,76,60
17664,note_on,,,,,16,0,7,,,,,0,,,79,89
17664,note_on,,,,,64,0,9,,,,,2,,,73,60
17708,note_off,,,,,44,0,7,,,,,0,,,79,100
17712,note_on,,,,,4,0,7,,,,,0,,,78,90
17756,note_off,,,,,44,0,7,,,,,0,,,78,100
17760,note_on,,,,,4,0,7,,,,,0,,,76,91
17792,note_off,,,,,128,0,9,,,,,2,,,73,100
17792,note_off,,,,,128,0,8,,,,,1,,,76,100
17792,note_off,,,,,128,0,10,,,,,3,,,57,100
17804,note_off,,,,,44,0,7,,,,,0,,,76,100
17808,note_on,,,,,4,0,7,,,,,0,,,78,91
17840,note_off,,,,,32,0,7,,,,,0,,,78,100
17856,note_on,,,,,16,0,7,,,,,0,,,79,92
17856,note_on,,,,,64,0,10,,,,,3,,,57,60
17856,note_on,,,,,64,0,8,,,,,1,,,76,60
17856,note_on,,,,,64,0,9,,,,,2,,,73,60
17900,note_off,,,,,44,0,7,,,,,0,,,79,100
17904,note_on,,,,,4,0,7,,,,,0,,,78,93
17948,note_off,,,,,44,0,7,,,,,0,,,78,100
17952,note_on,,,,,4,0,7,,,,,0,,,76,93
17984,note_off,,,,,128,0,9,,,,,2,,,73,100
17984,note_off,,,,,128,0,8,,,,,1,,,76,100
17984,note_off,,,,,128,0,10,,,,,3,,,57,100
17996,note_off,,,,,44,0,7,,,,,0,,,76,100
18000,note_on,,,,,4,0,7,,,,,0,,,78,94
18032,note_off,,,,,32,0,7,,,,,0,,,78,100
18048,note_on,,,,,64,0,9,,,,,2,,,73,60
18048,note_on,,,,,64,0,10,,,,,3,,,57,60
18048,note_on,,,,,64,0,8,,,,,1,,,76,60
18048,note_on,,,,,16,0,7,,,,,0,,,79,94
18112,note_off,,,,,64,0,7,,,,,0,,,79,100
18144,note_on,,,,,32,0,7,,,,,0,,,81,95
18176,note_off,,,,,128,0,10,,,,,3,,,57,100
18176,note_off,,,,,128,0,8,,,,,1,,,76,100
18176,note_off,,,,,128,0,9,,,,,2,,,73,100
18188,note_off,,,,,44,0,7,,,,,0,,,81,100
18192,note_on,,,,,4,0,7,,,,,0,,,79,94
18224,note_off,,,,,32,0,7,,,,,0,,,79,100
18240,note_on,,,,,64,0,9,,,,,2,,,73,60
18240,note_on,,,,,64,0,8,,,,,1,,,76,60
18240,note_on,,,,,64,0,10,,,,,3,,,57,60
18240,note_on,,,,,16,0,7,,,,,0,,,81,93
18284,note_off,,,,,44,0,7,,,,,0,,,81,100
18288,note_on,,,,,4,0,7,,,,,0,,,79,91
18320,note_off,,,,,32,0,7,,,,,0,,,79,100
18336,note_on,,,,,16,0,7,,,,,0,,,78,90
18368,note_off,,,,,128,0,8,,,,,1,,,76,100
18368,note_off,,,,,128,0,9,,,,,2,,,73,100
18368,note_off,,,,,128,0,10,,,,,3,,,57,100
18380,note_off,,,,,44,0,7,,,,,0,,,78,100
18384,note_on,,,,,4,0,7,,,,,0,,,76,88
18416,note_off,,,,,32,0,7,,,,,0,,,76,100
18432,note_on,,,,,64,0,10,,,,,3,,,62,60
18432,note_on,,,,,16,0,7,,,,,0,,,78,87
18432,note_on,,,,,64,0,8,,,,,1,,,78,60
18432,note_on,,,,,64,0,9,,,,,2,,,69,60
18476,note_off,,,,,44,0,7,,,,,0,,,78,100
18480,note_on,,,,,4,0,7,,,,,0,,,76,85
18512,note_off,,,,,32,0,7,,,,,0,,,76,100
18528,note_on,,,,,16,0,7,,,,,0,,,78,84
18560,note_off,,,,,128,0,8,,,,,1,,,78,100
18560,note_off,,,,,128,0,10,,,,,3,,,62,100
18560,note_off,,,,,128,0,9,,,,,2,,,69,100
18572,note_off,,,,,44,0,7,,,,,0,,,78,100
18576,note_on,,,,,4,0,7,,,,,0,,,76,82
18608,note_off,,,,,32,0,7,,,,,0,,,76,100
18624,note_on,,,,,64,0,9,,,,,2,,,69,60
18624,note_on,,,,,16,0,7,,,,,0,,,74,81
18624,note_on,,,,,64,0,8,,,,,1,,,78,60
18624,note_on,,,,,64,0,10,,,,,3,,,62,60
18752,note_off,,,,,128,0,10,,,,,3,,,62,100
18752,note_off,,,,,128,0,9,,,,,2,,,69,100
18752,note_off,,,,,128,0,8,,,,,1,,,78,100
18752,note_off,,,,,128,0,7,,,,,0,,,74,100
18816,note_on,,,,,64,0,9,,,,,2,,,71,60
18816,note_on,,,,,64,0,8,,,,,1,,,74,60
18816,note_on,,,,,64,0,10,,,,,3,,,62,60
18912,note_on,,,,,160,0,7,,,,,0,,,78,95
18944,note_off,,,,,128,0,8,,,,,1,,,74,100
18944,note_off,,,,,128,0,9,,,,,2,,,71,100
18944,note_off,,,,,128,0,10,,,,,3,,,62,100
18976,note_off,,,,,64,0,7,,,,,0,,,78,100
19008,note_on,,,,,64,0,9,,,,,2,,,71,60
19008,note_on,,,,,64,0,8,,,,,1,,,74,60
19008,note_on,,,,,64,0,10,,,,,3,,,62,60
19008,note_on,,,,,32,0,7,,,,,0,,,78,92
19072,note_off,,,,,64,0,7,,,,,0,,,78,100
19104,note_on,,,,,32,0,7,,,,,0,,,78,89
19136,note_off,,,,,128,0,8,,,,,1,,,74,100
19136,note_off,,,,,128,0,10,,,,,3,,,62,100
19136,note_off,,,,,128,0,9,,,,,2,,,71,100
19168,note_off,,,,,64,0,7,,,,,0,,,78,100
19200,note_on,,,,,64,0,8,,,,,1,,,74,60
19200,note_on,,,,,32,0,7,,,,,0,,,78,86
19200,note_on,,,,,64,0,9,,,,,2,,,71,60
19200,note_on,,,,,64,0,10,,,,,3,,,62,60
19264,note_off,,,,,64,0,7,,,,,0,,,78,100
19296,note_on,,,,,32,0,7,,,,,0,,,79,85
19328,note_off,,,,,128,0,10,,,,,3,,,62,100
19328,note_off,,,,,128,0,9,,,,,2,,,71,100
19328,note_off,,,,,128,0,8,,,,,1,,,74,100
19340,note_off,,,,,44,0,7,,,,,0,,,79,100
19344,note_on,,,,,4,0,7,,,,,0,,,78,85
19376,note_off,,,,,32,0,7,,,,,0,,,78,100
19392,note_on,,,,,16,0,7,,,,,0,,,79,85
19392,note_on,,,,,64,0,8,,,,,1,,,74,60
19392,note_on,,,,,64,0,9,,,,,2,,,71,60
19392,note_on,,,,,64,0,10,,,,,3,,,62,60
19436,note_off,,,,,44,0,7,,,,,0,,,79,100
19440,note_on,,,,,4,0,7,,,,,0,,,78,85
19472,note_off,,,,,32,0,7,,,,,0,,,78,100
19488,note_on,,,,,16,0,7,,,,,0,,,76,85
19520,note_off,,,,,128,0,10,,,,,3,,,62,100
19520,note_off,,,,,128,0,9,,,,,2,,,71,100
19520,note_off,,,,,128,0,8,,,,,1,,,74,100
19532,note_off,,,,,44,0,7,,,,,0,,,76,100
19536,note_on,,,,,4,0,7,,,,,0,,,74,85
19568,note_off,,,,,32,0,7,,,,,0,,,74,100
19584,note_on,,,,,16,0,7,,,,,0,,,76,85
19584,note_on,,,,,64,0,9,,,,,2,,,66,60
19584,note_on,,,,,64,0,8,,,,,1,,,73,60
19584,note_on,,,,,64,0,10,,,,,3,,,58,60
19628,note_off,,,,,44,0,7,,,,,0,,,76,100
19632,note_on,,,,,4,0,7,,,,,0,,,74,85
19676,note_off,,,,,44,0,7,,,,,0,,,74,100
19680,note_on,,,,,4,0,7,,,,,0,,,73,86
19712,note_off,,,,,128,0,8,,,,,1,,,73,100
19712,note_off,,,,,128,0,9,,,,,2,,,66,100
19712,note_off,,,,,128,0,10,,,,,3,,,58,100
19724,note_off,,,,,44,0,7,,,,,0,,,73,100
19728,note_on,,,,,4,0,7,,,,,0,,,74,86
19760,note_off,,,,,32,0,7,,,,,0,,,74,100
19776,note_on,,,,,64,0,10,,,,,3,,,58,60
19776,note_on,,,,,64,0,8,,,,,1,,,73,60
19776,note_on,,,,,64,0,9,,,,,2,,,66,60
19776,note_on,,,,,16,0,7,,,,,0,,,76,87
19820,note_off,,,,,44,0,7,,,,,0,,,76,100
19824,note_on,,,,,4,0,7,,,,,0,,,74,88
19868,note_off,,,,,44,0,7,,,,,0,,,74,100
19872,note_on,,,,,4,0,7,,,,,0,,,73,88
19904,note_off,,,,,128,0,8,,,,,1,,,73,100
19904,note_off,,,,,128,0,9,,,,,2,,,66,100
19904,note_off,,,,,128,0,10,,,,,3,,,58,100
19916,note_off,,,,,44,0,7,,,,,0,,,73,100
19920,note_on,,,,,4,0,7,,,,,0,,,74,89
19952,note_off,,,,,32,0,7,,,,,0,,,74,100
19968,note_on,,,,,16,0,7,,,,,0,,,76,89
19968,note_on,,,,,64,0,8,,,,,1,,,73,60
19968,note_on,,,,,64,0,9,,,,,2,,,66,60
19968,note_on,,,,,64,0,10,,,,,3,,,58,60
20012,note_off,,,,,44,0,7,,,,,0,,,76,100
20016,note_on,,,,,4,0,7,,,,,0,,,74,90
20060,note_off,,,,,44,0,7,,,,,0,,,74,100
20064,note_on,,,,,4,0,7,,,,,0,,,73,91
20096,note_off,,,,,128,0,9,,,,,2,,,66,100
20096,note_off,,,,,128,0,8,,,,,1,,,73,100
20096,note_off,,,,,128,0,10,,,,,3,,,58,100
20108,note_off,,,,,44,0,7,,,,,0,,,73,100
20112,note_on,,,,,4,0,7,,,,,0,,,74,91
20144,note_off,,,,,32,0,7,,,,,0,,,74,100
20160,note_on,,,,,16,0,7,,,,,0,,,76,92
20160,note_on,,,,,64,0,9,,,,,2,,,66,60
20160,note_on,,,,,64,0,8,,,,,1,,,73,60
20160,note_on,,,,,64,0,10,,,,,3,,,58,60
20204,note_off,,,,,44,0,7,,,,,0,,,76,100
20208,note_on,,,,,4,0,7,,,,,0,,,74,93
20252,note_off,,,,,44,0,7,,,,,0,,,74,100
20256,note_on,,,,,4,0,7,,,,,0,,,73,93
20288,note_off,,,,,128,0,10,,,,,3,,,58,100
20288,note_off,,,,,128,0,9,,,,,2,,,66,100
20288,note_off,,,,,128,0,8,,,,,1,,,73,100
20300,note_off,,,,,44,0,7,,,,,0,,,73,100
20304,note_on,,,,,4,0,7,,,,,0,,,74,94
20336,note_off,,,,,32,0,7,,,,,0,,,74,100
20352,note_on,,,,,64,0,9,,,,,2,,,66,60
20352,note_on,,,,,16,0,7,,,,,0,,,76,94
20352,note_on,,,,,64,0,10,,,,,3,,,58,60
20352,note_on,,,,,64,0,8,,,,,1,,,73,60
20416,note_off,,,,,64,0,7,,,,,0,,,76,100
20448,note_on,,,,,32,0,7,,,,,0,,,78,95
20480,note_off,,,,,128,0,10,,,,,3,,,58,100
20480,note_off,,,,,128,0,9,,,,,2,,,66,100
20480,note_off,,,,,128,0,8,,,,,1,,,73,100
20492,note_off,,,,,44,0,7,,,,,0,,,78,100
20496,note_on,,,,,4,0,7,,,,,0,,,76,93
20528,note_off,,,,,32,0,7,,,,,0,,,76,100
20544,note_on,,,,,64,0,10,,,,,3,,,58,60
20544,note_on,,,,,16,0,7,,,,,0,,,78,91
20544,note_on,,,,,64,0,8,,,,,1,,,73,60
20544,note_on,,,,,64,0,9,,,,,2,,,66,60
20588,note_off,,,,,44,0,7,,,,,0,,,78,100
20592,note_on,,,,,4,0,7,,,,,0,,,76,88
20624,note_off,,,,,32,0,7,,,,,0,,,76,100
20640,note_on,,,,,16,0,7,,,,,0,,,74,86
20672,note_off,,,,,128,0,9,,,,,2,,,66,100
20672,note_off,,,,,128,0,10,,,,,3,,,58,100
20672,note_off,,,,,128,0,8,,,,,1,,,73,100
20684,note_off,,,,,44,0,7,,,,,0,,,74,100
20688,note_on,,,,,4,0,7,,,,,0,,,73,83
20720,note_off,,,,,32,0,7,,,,,0,,,73,100
20736,note_on,,,,,16,0,7,,,,,0,,,74,81
20736,note_on,,,,,64,0,8,,,,,1,,,74,60
20736,note_on,,,,,64,0,9,,,,,2,,,66,60
20736,note_on,,,,,64,0,10,,,,,3,,,59,60
20800,note_off,,,,,64,0,7,,,,,0,,,74,100
20832,note_on,,,,,32,0,7,,,,,0,,,71,85
20864,note_off,,,,,128,0,8,,,,,1,,,74,100
20864,note_off,,,,,128,0,9,,,,,2,,,66,100
20864,note_off,,,,,128,0,10,,,,,3,,,59,100
20876,note_off,,,,,44,0,7,,,,,0,,,71,100
20880,note_on,,,,,4,0,7,,,,,0,,,73,85
20912,note_off,,,,,32,0,7,,,,,0,,,73,100
20928,note_on,,,,,64,0,9,,,,,2,,,66,60
20928,note_on,,,,,16,0,7,,,,,0,,,74,85
20928,note_on,,,,,64,0,8,,,,,1,,,74,60
20928,note_on,,,,,64,0,10,,,,,3,,,59,60
20972,note_off,,,,,44,0,7,,,,,0,,,74,100
20976,note_on,,,,,4,0,7,,,,,0,,,76,85
21008,note_off,,,,,32,0,7,,,,,0,,,76,100
21024,note_on,,,,,16,0,7,,,,,0,,,78,85
21056,note_off,,,,,128,0,8,,,,,1,,,74,100
21056,note_off,,,,,128,0,10,,,,,3,,,59,100
21056,note_off,,,,,128,0,9,,,,,2,,,66,100
21068,note_off,,,,,44,0,7,,,,,0,,,78,100
21072,note_on,,,,,4,0,7,,,,,0,,,76,85
21104,note_off,,,,,32,0,7,,,,,0,,,76,100
21120,note_on,,,,,64,0,9,,,,,2,,,66,60
21120,note_on,,,,,64,0,8,,,,,1,,,74,60
21120,note_on,,,,,64,0,10,,,,,3,,,59,60
21120,note_on,,,,,16,0,7,,,,,0,,,74,85
21184,note_off,,,,,64,0,7,,,,,0,,,74,100
21216,note_on,,,,,32,0,7,,,,,0,,,71,85
21248,note_off,,,,,128,0,8,,,,,1,,,74,100
21248,note_off,,,,,128,0,10,,,,,3,,,59,100
21248,note_off,,,,,128,0,9,,,,,2,,,66,100
21280,note_off,,,,,64,0,7,,,,,0,,,71,100
21312,note_on,,,,,64,0,9,,,,,2,,,66,60
21312,note_on,,,,,32,0,7,,,,,0,,,74,85
21312,note_on,,,,,64,0,10,,,,,3,,,59,60
21312,note_on,,,,,64,0,8,,,,,1,,,74,60
21376,note_off,,,,,64,0,7,,,,,0,,,74,100
21408,note_on,,,,,32,0,7,,,,,0,,,78,85
21440,note_off,,,,,128,0,9,,,,,2,,,66,100
21440,note_off,,,,,128,0,10,,,,,3,,,59,100
21440,note_off,,,,,128,0,8,,,,,1,,,74,100
21472,note_off,,,,,64,0,7,,,,,0,,,78,100
21504,note_on,,,,,64,0,10,,,,,3,,,58,60
21504,note_on,,,,,64,0,9,,,,,2,,,66,60
21504,note_on,,,,,64,0,8,,,,,1,,,73,60
21504,note_on,,,,,32,0,7,,,,,0,,,73,85
21568,note_off,,,,,64,0,7,,,,,0,,,73,100
21600,note_on,,,,,32,0,7,,,,,0,,,74,85
21632,note_off,,,,,128,0,9,,,,,2,,,66,100
21632,note_off,,,,,128,0,10,,,,,3,,,58,100
21632,note_off,,,,,128,0,8,,,,,1,,,73,100
21644,note_off,,,,,44,0,7,,,,,0,,,74,100
21648,note_on,,,,,4,0,7,,,,,0,,,76,85
21680,note_off,,,,,32,0,7,,,,,0,,,76,100
21696,note_on,,,,,64,0,8,,,,,1,,,73,60
21696,note_on,,,,,16,0,7,,,,,0,,,78,85
21696,note_on,,,,,64,0,9,,,,,2,,,66,60
21696,note_on,,,,,64,0,10,,,,,3,,,58,60
21740,note_off,,,,,44,0,7,,,,,0,,,78,100
21744,note_on,,,,,4,0,7,,,,,0,,,76,85
21776,note_off,,,,,32,0,7,,,,,0,,,76,100
21792,note_on,,,,,16,0,7,,,,,0,,,74,85
21824,note_off,,,,,128,0,10,,,,,3,,,58,100
21824,note_off,,,,,128,0,9,,,,,2,,,66,100
21824,note_off,,,,,128,0,8,,,,,1,,,73,100
21836,note_off,,,,,44,0,7,,,,,0,,,74,100
21840,note_on,,,,,4,0,7,,,,,0,,,73,85
21872,note_off,,,,,32,0,7,,,,,0,,,73,100
21888,note_on,,,,,64,0,8,,,,,1,,,74,60
21888,note_on,,,,,64,0,9,,,,,2,,,66,60
21888,note_on,,,,,64,0,10,,,,,3,,,59,60
21888,note_on,,,,,16,0,7,,,,,0,,,74,85
21952,note_off,,,,,64,0,7,,,,,0,,,74,100
21984,note_on,,,,,32,0,7,,,,,0,,,71,85
22016,note_off,,,,,128,0,10,,,,,3,,,59,100
22016,note_off,,,,,128,0,8,,,,,1,,,74,100
22016,note_off,,,,,128,0,9,,,,,2,,,66,100
22028,note_off,,,,,44,0,7,,,,,0,,,71,100
22032,note_on,,,,,4,0,7,,,,,0,,,73,85
22064,note_off,,,,,32,0,7,,,,,0,,,73,100
22080,note_on,,,,,16,0,7,,,,,0,,,74,85
22080,note_on,,,,,64,0,9,,,,,2,,,71,60
22080,note_on,,,,,64,0,8,,,,,1,,,74,60
22080,note_on,,,,,64,0,10,,,,,3,,,59,60
22124,note_off,,,,,44,0,7,,,,,0,,,74,100
22128,note_on,,,,,4,0,7,,,,,0,,,76,85
22160,note_off,,,,,32,0,7,,,,,0,,,76,100
22176,note_on,,,,,16,0,7,,,,,0,,,78,85
22208,note_off,,,,,128,0,9,,,,,2,,,71,100
22208,note_off,,,,,128,0,10,,,,,3,,,59,100
22208,note_off,,,,,128,0,8,,,,,1,,,74,100
22220,note_off,,,,,44,0,7,,,,,0,,,78,100
22224,note_on,,,,,4,0,7,,,,,0,,,76,85
22256,note_off,,,,,32,0,7,,,,,0,,,76,100
22272,note_on,,,,,64,0,9,,,,,2,,,71,60
22272,note_on,,,,,64,0,8,,,,,1,,,74,60
22272,note_on,,,,,64,0,10,,,,,3,,,59,60
22272,note_on,,,,,16,0,7,,,,,0,,,74,85
22336,note_off,,,,,64,0,7,,,,,0,,,74,100
22368,note_on,,,,,32,0,7,,,,,0,,,78,85
22400,note_off,,,,,128,0,9,,,,,2,,,71,100
22400,note_off,,,,,128,0,8,,,,,1,,,74,100
22400,note_off,,,,,128,0,10,,,,,3,,,59,100
22432,note_off,,,,,64,0,7,,,,,0,,,78,100
22464,note_on,,,,,32,0,7,,,,,0,,,83,85
22464,note_on,,,,,64,0,10,,,,,3,,,59,60
22464,note_on,,,,,64,0,9,,,,,2,,,71,60
22464,note_on,,,,,64,0,8,,,,,1,,,74,60
22528,note_off,,,,,64,0,7,,,,,0,,,83,100
22560,note_on,,,,,32,0,7,,,,,0,,,74,85
22592,note_off,,,,,128,0,9,,,,,2,,,71,100
22592,note_off,,,,,128,0,10,,,,,3,,,59,100
22592,note_off,,,,,128,0,8,,,,,1,,,74,100
22624,note_off,,,,,64,0,7,,,,,0,,,74,100
22656,note_on,,,,,64,0,10,,,,,3,,,66,60
22656,note_on,,,,,64,0,9,,,,,2,,,71,60
22656,note_on,,,,,0,0,7,,,,,0,,,66,85
22656,note_on,,,,,32,0,7,,,,,0,,,73,85
22656,note_on,,,,,64,0,8,,,,,1,,,73,60
22700,note_off,,,,,44,0,7,,,,,0,,,73,100
22704,note_on,,,,,4,0,7,,,,,0,,,74,85
22748,note_off,,,,,44,0,7,,,,,0,,,74,100
22752,note_on,,,,,4,0,7,,,,,0,,,73,85
22772,note_off,,,,,20,0,7,,,,,0,,,73,100
22776,note_on,,,,,4,0,7,,,,,0,,,74,85
22784,note_off,,,,,128,0,8,,,,,1,,,73,100
22784,note_off,,,,,128,0,9,,,,,2,,,71,100
22784,note_off,,,,,128,0,10,,,,,3,,,66,100
22796,note_off,,,,,20,0,7,,,,,0,,,74,100
22800,note_on,,,,,4,0,7,,,,,0,,,73,85
22820,note_off,,,,,20,0,7,,,,,0,,,73,100
22824,note_on,,,,,4,0,7,,,,,0,,,74,85
22844,note_off,,,,,20,0,7,,,,,0,,,74,100
22848,note_on,,,,,64,0,10,,,,,3,,,66,60
22848,note_on,,,,,64,0,8,,,,,1,,,73,60
22848,note_on,,,,,64,0,9,,,,,2,,,70,60
22848,note_on,,,,,4,0,7,,,,,0,,,73,85
22912,note_off,,,,,64,0,7,,,,,0,,,66,100
22912,note_off,,,,,0,0,7,,,,,0,,,73,100
22944,note_on,,,,,32,0,7,,,,,0,,,71,85
22976,note_off,,,,,128,0,8,,,,,1,,,73,100
22976,note_off,,,,,128,0,10,,,,,3,,,66,100
22976,note_off,,,,,128,0,9,,,,,2,,,70,100
23008,note_off,,,,,64,0,7,,,,,0,,,71,100
23040,note_on,,,,,64,0,10,,,,,3,,,59,60
23040,note_on,,,,,64,0,8,,,,,1,,,74,60
23040,note_on,,,,,64,0,9,,,,,2,,,71,60
23040,note_on,,,,,32,0,7,,,,,0,,,71,85
23132,note_off,,,,,92,0,7,,,,,0,,,71,100
23136,note_on,,,,,4,0,7,,,,,0,,,74,85
23228,note_off,,,,,92,0,7,,,,,0,,,74,100
23232,note_on,,,,,4,0,7,,,,,0,,,73,85
23296,note_off,,,,,256,0,10,,,,,3,,,59,100
23296,note_off,,,,,256,0,8,,,,,1,,,74,100
23296,note_off,,,,,256,0,9,,,,,2,,,71,100
23324,note_off,,,,,92,0,7,,,,,0,,,73,100
23328,note_on,,,,,4,0,7,,,,,0,,,71,85
23392,note_off,,,,,64,0,7,,,,,0,,,71,100
23424,note_on,,,,,32,0,7,,,,,0,,,78,95
23516,note_off,,,,,92,0,7,,,,,0,,,78,100
23520,note_on,,,,,4,0,7,,,,,0,,,75,91
23612,note_off,,,,,92,0,7,,,,,0,,,75,100
23616,note_on,,,,,4,0,7,,,,,0,,,73,86
23708,note_off,,,,,92,0,7,,,,,0,,,73,100
23712,note_on,,,,,4,0,7,,,,,0,,,71,81
23776,note_off,,,,,64,0,7,,,,,0,,,71,100
23808,note_on,,,,,32,0,7,,,,,0,,,83,95
23900,note_off,,,,,92,0,7,,,,,0,,,83,100
23904,note_on,,,,,4,0,7,,,,,0,,,75,91
23996,note_off,,,,,92,0,7,,,,,0,,,75,100
24000,note_on,,,,,4,0,7,,,,,0,,,73,86
24092,note_off,,,,,92,0,7,,,,,0,,,73,100
24096,note_on,,,,,4,0,7,,,,,0,,,71,81
24160,note_off,,,,,64,0,7,,,,,0,,,71,100
24192,note_on,,,,,896,0,10,,,,,3,,,64,60
24192,note_on,,,,,896,0,8,,,,,1,,,76,60
24192,note_on,,,,,32,0,7,,,,,0,,,79,85
24192,note_on,,,,,896,0,9,,,,,2,,,71,60
24236,note_off,,,,,44,0,7,,,,,0,,,79,100
24240,note_on,,,,,4,0,7,,,,,0,,,78,85
24284,note_off,,,,,44,0,7,,,,,0,,,78,100
24288,note_on,,,,,4,0,7,,,,,0,,,76,86
24320,note_off,,,,,128,0,8,,,,,1,,,76,100
24320,note_off,,,,,128,0,9,,,,,2,,,71,100
24320,note_off,,,,,128,0,10,,,,,3,,,64,100
24332,note_off,,,,,44,0,7,,,,,0,,,76,100
24336,note_on,,,,,4,0,7,,,,,0,,,78,86
24368,note_off,,,,,32,0,7,,,,,0,,,78,100
24384,note_on,,,,,64,0,8,,,,,1,,,76,60
24384,note_on,,,,,16,0,7,,,,,0,,,79,87
24384,note_on,,,,,64,0,10,,,,,3,,,64,60
24384,note_on,,,,,64,0,9,,,,,2,,,71,60
24428,note_off,,,,,44,0,7,,,,,0,,,79,100
24432,note_on,,,,,4,0,7,,,,,0,,,78,88
24476,note_off,,,,,44,0,7,,,,,0,,,78,100
24480,note_on,,,,,4,0,7,,,,,0,,,76,88
24512,note_off,,,,,128,0,10,,,,,3,,,64,100
24512,note_off,,,,,128,0,9,,,,,2,,,71,100
24512,note_off,,,,,128,0,8,,,,,1,,,76,100
24524,note_off,,,,,44,0,7,,,,,0,,,76,100
24528,note_on,,,,,4,0,7,,,,,0,,,78,89
24560,note_off,,,,,32,0,7,,,,,0,,,78,100
24576,note_on,,,,,64,0,10,,,,,3,,,57,60
24576,note_on,,,,,64,0,8,,,,,1,,,76,60
24576,note_on,,,,,64,0,9,,,,,2,,,73,60
24576,note_on,,,,,16,0,7,,,,,0,,,79,89
24620,note_off,,,,,44,0,7,,,,,0,,,79,100
24624,note_on,,,,,4,0,7,,,,,0,,,78,90
24668,note_off,,,,,44,0,7,,,,,0,,,78,100
24672,note_on,,,,,4,0,7,,,,,0,,,76,91
24704,note_off,,,,,128,0,8,,,,,1,,,76,100
24704,note_off,,,,,128,0,9,,,,,2,,,73,100
24704,note_off,,,,,128,0,10,,,,,3,,,57,100
24716,note_off,,,,,44,0,7,,,,,0,,,76,100
24720,note_on,,,,,4,0,7,,,,,0,,,78,91
24752,note_off,,,,,32,0,7,,,,,0,,,78,100
24768,note_on,,,,,16,0,7,,,,,0,,,79,92
24768,note_on,,,,,64,0,8,,,,,1,,,76,60
24768,note_on,,,,,64,0,9,,,,,2,,,73,60
24768,note_on,,,,,64,0,10,,,,,3,,,57,60
24812,note_off,,,,,44,0,7,,,,,0,,,79,100
24816,note_on,,,,,4,0,7,,,,,0,,,78,93
24860,note_off,,,,,44,0,7,,,,,0,,,78,100
24864,note_on,,,,,4,0,7,,,,,0,,,76,93
24896,note_off,,,,,128,0,9,,,,,2,,,73,100
24896,note_off,,,,,128,0,8,,,,,1,,,76,100
24896,note_off,,,,,128,0,10,,,,,3,,,57,100
24908,note_off,,,,,44,0,7,,,,,0,,,76,100
24912,note_on,,,,,4,0,7,,,,,0,,,78,94
24944,note_off,,,,,32,0,7,,,,,0,,,78,100
24960,note_on,,,,,64,0,8,,,,,1,,,76,60
24960,note_on,,,,,64,0,9,,,,,2,,,73,60
24960,note_on,,,,,16,0,7,,,,,0,,,79,94
24960,note_on,,,,,64,0,10,,,,,3,,,57,60
25024,note_off,,,,,64,0,7,,,,,0,,,79,100
25056,note_on,,,,,32,0,7,,,,,0,,,81,95
25088,note_off,,,,,128,0,8,,,,,1,,,76,100
25088,note_off,,,,,128,0,9,,,,,2,,,73,100
25088,note_off,,,,,128,0,10,,,,,3,,,57,100
25100,note_off,,,,,44,0,7,,,,,0,,,81,100
25104,note_on,,,,,4,0,7,,,,,0,,,79,93
25136,note_off,,,,,32,0,7,,,,,0,,,79,100
25152,note_on,,,,,16,0,7,,,,,0,,,81,91
25152,note_on,,,,,64,0,8,,,,,1,,,76,60
25152,note_on,,,,,64,0,9,,,,,2,,,73,60
25152,note_on,,,,,64,0,10,,,,,3,,,57,60
25196,note_off,,,,,44,0,7,,,,,0,,,81,100
25200,note_on,,,,,4,0,7,,,,,0,,,79,88
25232,note_off,,,,,32,0,7,,,,,0,,,79,100
25248,note_on,,,,,16,0,7,,,,,0,,,78,86
25280,note_off,,,,,128,0,9,,,,,2,,,73,100
25280,note_off,,,,,128,0,8,,,,,1,,,76,100
25280,note_off,,,,,128,0,10,,,,,3,,,57,100
25292,note_off,,,,,44,0,7,,,,,0,,,78,100
25296,note_on,,,,,4,0,7,,,,,0,,,76,83
25328,note_off,,,,,32,0,7,,,,,0,,,76,100
25344,note_on,,,,,16,0,7,,,,,0,,,78,81
25344,note_on,,,,,64,0,8,,,,,1,,,74,60
25344,note_on,,,,,64,0,9,,,,,2,,,69,60
25344,note_on,,,,,64,0,10,,,,,3,,,62,60
25408,note_off,,,,,64,0,7,,,,,0,,,78,100
25440,note_on,,,,,32,0,7,,,,,0,,,79,85
25472,note_off,,,,,128,0,9,,,,,2,,,69,100
25472,note_off,,,,,128,0,10,,,,,3,,,62,100
25472,note_off,,,,,32,0,7,,,,,0,,,79,100
25472,note_off,,,,,128,0,8,,,,,1,,,74,100
25488,note_on,,,,,16,0,7,,,,,0,,,78,85
25520,note_off,,,,,32,0,7,,,,,0,,,78,100
25536,note_on,,,,,64,0,9,,,,,2,,,69,60
25536,note_on,,,,,64,0,8,,,,,1,,,74,60
25536,note_on,,,,,64,0,10,,,,,3,,,62,60
25536,note_on,,,,,16,0,7,,,,,0,,,79,85
25600,note_off,,,,,64,0,7,,,,,0,,,79,100
25632,note_on,,,,,32,0,7,,,,,0,,,81,85
25664,note_off,,,,,128,0,10,,,,,3,,,62,100
25664,note_off,,,,,128,0,8,,,,,1,,,74,100
25664,note_off,,,,,128,0,9,,,,,2,,,69,100
25696,note_off,,,,,64,0,7,,,,,0,,,81,100
25728,note_on,,,,,64,0,9,,,,,2,,,71,60
25728,note_on,,,,,64,0,10,,,,,3,,,55,60
25728,note_on,,,,,64,0,8,,,,,1,,,76,60
25728,note_on,,,,,32,0,7,,,,,0,,,83,85
25792,note_off,,,,,64,0,7,,,,,0,,,83,100
25824,note_on,,,,,32,0,7,,,,,0,,,76,85
25856,note_off,,,,,128,0,8,,,,,1,,,76,100
25856,note_off,,,,,128,0,10,,,,,3,,,55,100
25856,note_off,,,,,128,0,9,,,,,2,,,71,100
25888,note_off,,,,,64,0,7,,,,,0,,,76,100
25920,note_on,,,,,32,0,7,,,,,0,,,76,85
25920,note_on,,,,,64,0,9,,,,,2,,,71,60
25920,note_on,,,,,64,0,10,,,,,3,,,55,60
25920,note_on,,,,,64,0,8,,,,,1,,,76,60
25984,note_off,,,,,64,0,7,,,,,0,,,76,100
26016,note_on,,,,,32,0,7,,,,,0,,,79,85
26048,note_off,,,,,128,0,9,,,,,2,,,71,100
26048,note_off,,,,,128,0,10,,,,,3,,,55,100
26048,note_off,,,,,128,0,8,,,,,1,,,76,100
26060,note_off,,,,,44,0,7,,,,,0,,,79,100
26064,note_on,,,,,4,0,7,,,,,0,,,78,85
26096,note_off,,,,,32,0,7,,,,,0,,,78,100
26112,note_on,,,,,64,0,8,,,,,1,,,76,60
26112,note_on,,,,,64,0,9,,,,,2,,,71,60
26112,note_on,,,,,64,0,10,,,,,3,,,55,60
26112,note_on,,,,,16,0,7,,,,,0,,,79,85
26176,note_off,,,,,64,0,7,,,,,0,,,79,100
26208,note_on,,,,,32,0,7,,,,,0,,,76,85
26240,note_off,,,,,128,0,9,,,,,2,,,71,100
26240,note_off,,,,,128,0,8,,,,,1,,,76,100
26240,note_off,,,,,128,0,10,,,,,3,,,55,100
26272,note_off,,,,,64,0,7,,,,,0,,,76,100
26304,note_on,,,,,64,0,10,,,,,3,,,55,60
26304,note_on,,,,,64,0,8,,,,,1,,,76,60
26304,note_on,,,,,32,0,7,,,,,0,,,76,85
26304,note_on,,,,,64,0,9,,,,,2,,,71,60
26368,note_off,,,,,64,0,7,,,,,0,,,76,100
26400,note_on,,,,,32,0,7,,,,,0,,,74,85
26432,note_off,,,,,128,0,9,,,,,2,,,71,100
26432,note_off,,,,,128,0,8,,,,,1,,,76,100
26432,note_off,,,,,128,0,10,,,,,3,,,55,100
26464,note_off,,,,,64,0,7,,,,,0,,,74,100
26496,note_on,,,,,64,0,10,,,,,3,,,57,60
26496,note_on,,,,,64,0,9,,,,,2,,,69,60
26496,note_on,,,,,32,0,7,,,,,0,,,73,85
26496,note_on,,,,,64,0,8,,,,,1,,,76,60
26560,note_off,,,,,64,0,7,,,,,0,,,73,100
26592,note_on,,,,,32,0,7,,,,,0,,,69,85
26624,note_off,,,,,128,0,10,,,,,3,,,57,100
26624,note_off,,,,,128,0,8,,,,,1,,,76,100
26624,note_off,,,,,128,0,9,,,,,2,,,69,100
26656,note_off,,,,,64,0,7,,,,,0,,,69,100
26688,note_on,,,,,64,0,9,,,,,2,,,73,60
26688,note_on,,,,,32,0,7,,,,,0,,,69,85
26688,note_on,,,,,64,0,10,,,,,3,,,57,60
26688,note_on,,,,,64,0,8,,,,,1,,,76,60
26752,note_off,,,,,64,0,7,,,,,0,,,69,100
26784,note_on,,,,,32,0,7,,,,,0,,,69,85
26816,note_off,,,,,128,0,9,,,,,2,,,73,100
26816,note_off,,,,,128,0,10,,,,,3,,,57,100
26816,note_off,,,,,128,0,8,,,,,1,,,76,100
26848,note_off,,,,,64,0,7,,,,,0,,,69,100
26880,note_on,,,,,64,0,8,,,,,1,,,74,60
26880,note_on,,,,,64,0,10,,,,,3,,,56,60
26880,note_on,,,,,64,0,9,,,,,2,,,71,60
26880,note_on,,,,,32,0,7,,,,,0,,,77,85
26944,note_off,,,,,64,0,7,,,,,0,,,77,100
26976,note_on,,,,,32,0,7,,,,,0,,,74,85
27008,note_off,,,,,128,0,9,,,,,2,,,71,100
27008,note_off,,,,,128,0,8,,,,,1,,,74,100
27008,note_off,,,,,128,0,10,,,,,3,,,56,100
27020,note_off,,,,,44,0,7,,,,,0,,,74,100
27024,note_on,,,,,4,0,7,,,,,0,,,76,85
27056,note_off,,,,,32,0,7,,,,,0,,,76,100
27072,note_on,,,,,16,0,7,,,,,0,,,77,85
27072,note_on,,,,,64,0,9,,,,,2,,,71,60
27072,note_on,,,,,64,0,8,,,,,1,,,74,60
27072,note_on,,,,,64,0,10,,,,,3,,,56,60
27136,note_off,,,,,64,0,7,,,,,0,,,77,100
27168,note_on,,,,,32,0,7,,,,,0,,,77,85
27200,note_off,,,,,128,0,10,,,,,3,,,56,100
27200,note_off,,,,,128,0,9,,,,,2,,,71,100
27200,note_off,,,,,128,0,8,,,,,1,,,74,100
27232,note_off,,,,,64,0,7,,,,,0,,,77,100
27264,note_on,,,,,64,0,8,,,,,1,,,74,60
27264,note_on,,,,,64,0,10,,,,,3,,,56,60
27264,note_on,,,,,64,0,9,,,,,2,,,71,60
27264,note_on,,,,,32,0,7,,,,,0,,,77,85
27284,note_off,,,,,20,0,7,,,,,0,,,77,100
27288,note_on,,,,,4,0,7,,,,,0,,,79,85
27308,note_off,,,,,20,0,7,,,,,0,,,79,100
27312,note_on,,,,,4,0,7,,,,,0,,,77,85
27332,note_off,,,,,20,0,7,,,,,0,,,77,100
27336,note_on,,,,,4,0,7,,,,,0,,,79,85
27356,note_off,,,,,20,0,7,,,,,0,,,79,100
27360,note_on,,,,,4,0,7,,,,,0,,,74,85
27392,note_off,,,,,128,0,10,,,,,3,,,56,100
27392,note_off,,,,,128,0,8,,,,,1,,,74,100
27392,note_off,,,,,128,0,9,,,,,2,,,71,100
27404,note_off,,,,,44,0,7,,,,,0,,,74,100
27408,note_on,,,,,4,0,7,,,,,0,,,76,85
27440,note_off,,,,,32,0,7,,,,,0,,,76,100
27456,note_on,,,,,64,0,9,,,,,2,,,71,60
27456,note_on,,,,,64,0,10,,,,,3,,,56,60
27456,note_on,,,,,16,0,7,,,,,0,,,77,85
27456,note_on,,,,,64,0,8,,,,,1,,,74,60
27520,note_off,,,,,64,0,7,,,,,0,,,77,100
27552,note_on,,,,,32,0,7,,,,,0,,,77,85
27584,note_off,,,,,128,0,9,,,,,2,,,71,100
27584,note_off,,,,,128,0,10,,,,,3,,,56,100
27584,note_off,,,,,128,0,8,,,,,1,,,74,100
27616,note_off,,,,,64,0,7,,,,,0,,,77,100
27648,note_on,,,,,64,0,10,,,,,3,,,57,60
27648,note_on,,,,,64,0,9,,,,,2,,,69,60
27648,note_on,,,,,32,0,7,,,,,0,,,77,85
27648,note_on,,,,,64,0,8,,,,,1,,,74,60
27668,note_off,,,,,20,0,7,,,,,0,,,77,100
27672,note_on,,,,,4,0,7,,,,,0,,,79,85
27692,note_off,,,,,20,0,7,,,,,0,,,79,100
27696,note_on,,,,,4,0,7,,,,,0,,,77,85
27716,note_off,,,,,20,0,7,,,,,0,,,77,100
27720,note_on,,,,,4,0,7,,,,,0,,,79,85
27740,note_off,,,,,20,0,7,,,,,0,,,79,100
27744,note_on,,,,,4,0,7,,,,,0,,,76,85
27776,note_off,,,,,128,0,9,,,,,2,,,69,100
27776,note_off,,,,,128,0,8,,,,,1,,,74,100
27776,note_off,,,,,128,0,10,,,,,3,,,57,100
27808,note_off,,,,,64,0,7,,,,,0,,,76,100
27840,note_on,,,,,32,0,7,,,,,0,,,76,85
27840,note_on,,,,,64,0,10,,,,,3,,,57,60
27840,note_on,,,,,64,0,9,,,,,2,,,69,60
27840,note_on,,,,,64,0,8,,,,,1,,,73,60
27904,note_off,,,,,64,0,7,,,,,0,,,76,100
27936,note_on,,,,,32,0,7,,,,,0,,,69,85
27968,note_off,,,,,128,0,10,,,,,3,,,57,100
27968,note_off,,,,,128,0,8,,,,,1,,,73,100
27968,note_off,,,,,128,0,9,,,,,2,,,69,100
28000,note_off,,,,,64,0,7,,,,,0,,,69,100
28032,note_on,,,,,64,0,10,,,,,3,,,56,60
28032,note_on,,,,,64,0,9,,,,,2,,,71,60
28032,note_on,,,,,64,0,8,,,,,1,,,74,60
28032,note_on,,,,,32,0,7,,,,,0,,,77,70
28096,note_off,,,,,64,0,7,,,,,0,,,77,100
28128,note_on,,,,,32,0,7,,,,,0,,,74,70
28160,note_off,,,,,128,0,8,,,,,1,,,74,100
28160,note_off,,,,,128,0,10,,,,,3,,,56,100
28160,note_off,,,,,128,0,9,,,,,2,,,71,100
28172,note_off,,,,,44,0,7,,,,,0,,,74,100
28176,note_on,,,,,4,0,7,,,,,0,,,76,70
28208,note_off,,,,,32,0,7,,,,,0,,,76,100
28224,note_on,,,,,16,0,7,,,,,0,,,77,70
28224,note_on,,,,,64,0,9,,,,,2,,,71,60
28224,note_on,,,,,64,0,8,,,,,1,,,74,60
28224,note_on,,,,,64,0,10,,,,,3,,,56,60
28288,note_off,,,,,64,0,7,,,,,0,,,77,100
28320,note_on,,,,,32,0,7,,,,,0,,,77,70
28352,note_off,,,,,128,0,8,,,,,1,,,74,100
28352,note_off,,,,,128,0,9,,,,,2,,,71,100
28352,note_off,,,,,128,0,10,,,,,3,,,56,100
28384,note_off,,,,,64,0,7,,,,,0,,,77,100
28416,note_on,,,,,64,0,9,,,,,2,,,71,60
28416,note_on,,,,,32,0,7,,,,,0,,,77,70
28416,note_on,,,,,64,0,8,,,,,1,,,74,60
28416,note_on,,,,,64,0,10,,,,,3,,,56,60
28436,note_off,,,,,20,0,7,,,,,0,,,77,100
28440,note_on,,,,,4,0,7,,,,,0,,,79,70
28460,note_off,,,,,20,0,7,,,,,0,,,79,100
28464,note_on,,,,,4,0,7,,,,,0,,,77,70
28484,note_off,,,,,20,0,7,,,,,0,,,77,100
28488,note_on,,,,,4,0,7,,,,,0,,,79,70
28508,note_off,,,,,20,0,7,,,,,0,,,79,100
28512,note_on,,,,,4,0,7,,,,,0,,,74,70
28544,note_off,,,,,128,0,10,,,,,3,,,56,100
28544,note_off,,,,,128,0,9,,,,,2,,,71,100
28544,note_off,,,,,128,0,8,,,,,1,,,74,100
28556,note_off,,,,,44,0,7,,,,,0,,,74,100
28560,note_on,,,,,4,0,7,,,,,0,,,76,70
28592,note_off,,,,,32,0,7,,,,,0,,,76,100
28608,note_on,,,,,64,0,9,,,,,2,,,71,60
28608,note_on,,,,,16,0,7,,,,,0,,,77,70
28608,note_on,,,,,64,0,8,,,,,1,,,74,60
28608,note_on,,,,,64,0,10,,,,,3,,,56,60
28672,note_off,,,,,64,0,7,,,,,0,,,77,100
28704,note_on,,,,,32,0,7,,,,,0,,,77,70
28736,note_off,,,,,128,0,9,,,,,2,,,71,100
28736,note_off,,,,,128,0,8,,,,,1,,,74,100
28736,note_off,,,,,128,0,10,,,,,3,,,56,100
28768,note_off,,,,,64,0,7,,,,,0,,,77,100
28800,note_on,,,,,64,0,9,,,,,2,,,69,60
28800,note_on,,,,,32,0,7,,,,,0,,,77,70
28800,note_on,,,,,64,0,10,,,,,3,,,57,60
28800,note_on,,,,,64,0,8,,,,,1,,,74,60
28820,note_off,,,,,20,0,7,,,,,0,,,77,100
28824,note_on,,,,,4,0,7,,,,,0,,,79,70
28844,note_off,,,,,20,0,7,,,,,0,,,79,100
28848,note_on,,,,,4,0,7,,,,,0,,,77,70
28868,note_off,,,,,20,0,7,,,,,0,,,77,100
28872,note_on,,,,,4,0,7,,,,,0,,,79,70
28892,note_off,,,,,20,0,7,,,,,0,,,79,100
28896,note_on,,,,,4,0,7,,,,,0,,,76,70
28928,note_off,,,,,128,0,8,,,,,1,,,74,100
28928,note_off,,,,,128,0,10,,,,,3,,,57,100
28928,note_off,,,,,128,0,9,,,,,2,,,69,100
28960,note_off,,,,,64,0,7,,,,,0,,,76,100
28992,note_on,,,,,64,0,8,,,,,1,,,73,60
28992,note_on,,,,,32,0,7,,,,,0,,,76,70
28992,note_on,,,,,64,0,10,,,,,3,,,57,60
28992,note_on,,,,,64,0,9,,,,,2,,,69,60
29056,note_off,,,,,64,0,7,,,,,0,,,76,100
29088,note_on,,,,,32,0,7,,,,,0,,,69,70
29120,note_off,,,,,128,0,10,,,,,3,,,57,100
29120,note_off,,,,,128,0,9,,,,,2,,,69,100
29120,note_off,,,,,128,0,8,,,,,1,,,73,100
29152,note_off,,,,,64,0,7,,,,,0,,,69,100
29184,note_on,,,,,64,0,10,,,,,3,,,57,60
29184,note_on,,,,,32,0,7,,,,,0,,,79,70
29184,note_on,,,,,64,0,9,,,,,2,,,73,60
29184,note_on,,,,,64,0,8,,,,,1,,,76,60
29228,note_off,,,,,44,0,7,,,,,0,,,79,100
29232,note_on,,,,,4,0,7,,,,,0,,,78,71
29276,note_off,,,,,44,0,7,,,,,0,,,78,100
29280,note_on,,,,,4,0,7,,,,,0,,,79,73
29312,note_off,,,,,128,0,8,,,,,1,,,76,100
29312,note_off,,,,,128,0,10,,,,,3,,,57,100
29312,note_off,,,,,128,0,9,,,,,2,,,73,100
29324,note_off,,,,,44,0,7,,,,,0,,,79,100
29328,note_on,,,,,4,0,7,,,,,0,,,81,75
29360,note_off,,,,,32,0,7,,,,,0,,,81,100
29376,note_on,,,,,16,0,7,,,,,0,,,79,77
29376,note_on,,,,,64,0,10,,,,,3,,,57,60
29376,note_on,,,,,64,0,8,,,,,1,,,76,60
29376,note_on,,,,,64,0,9,,,,,2,,,73,60
29420,note_off,,,,,44,0,7,,,,,0,,,79,100
29424,note_on,,,,,4,0,7,,,,,0,,,78,79
29468,note_off,,,,,44,0,7,,,,,0,,,78,100
29472,note_on,,,,,4,0,7,,,,,0,,,79,81
29504,note_off,,,,,128,0,9,,,,,2,,,73,100
29504,note_off,,,,,128,0,8,,,,,1,,,76,100
29504,note_off,,,,,128,0,10,,,,,3,,,57,100
29516,note_off,,,,,44,0,7,,,,,0,,,79,100
29520,note_on,,,,,4,0,7,,,,,0,,,81,82
29552,note_off,,,,,32,0,7,,,,,0,,,81,100
29568,note_on,,,,,64,0,10,,,,,3,,,57,60
29568,note_on,,,,,64,0,9,,,,,2,,,73,60
29568,note_on,,,,,64,0,8,,,,,1,,,76,60
29568,note_on,,,,,16,0,7,,,,,0,,,79,84
29632,note_off,,,,,64,0,7,,,,,0,,,79,100
29664,note_on,,,,,32,0,7,,,,,0,,,81,85
29696,note_off,,,,,128,0,9,,,,,2,,,73,100
29696,note_off,,,,,128,0,10,,,,,3,,,57,100
29696,note_off,,,,,128,0,8,,,,,1,,,76,100
29708,note_off,,,,,44,0,7,,,,,0,,,81,100
29712,note_on,,,,,4,0,7,,,,,0,,,79,85
29744,note_off,,,,,32,0,7,,,,,0,,,79,100
29760,note_on,,,,,64,0,8,,,,,1,,,76,60
29760,note_on,,,,,64,0,9,,,,,2,,,73,60
29760,note_on,,,,,64,0,10,,,,,3,,,57,60
29760,note_on,,,,,16,0,7,,,,,0,,,81,85
29804,note_off,,,,,44,0,7,,,,,0,,,81,100
29808,note_on,,,,,4,0,7,,,,,0,,,79,85
29840,note_off,,,,,32,0,7,,,,,0,,,79,100
29856,note_on,,,,,16,0,7,,,,,0,,,78,85
29888,note_off,,,,,128,0,8,,,,,1,,,76,100
29888,note_off,,,,,128,0,10,,,,,3,,,57,100
29888,note_off,,,,,128,0,9,,,,,2,,,73,100
29900,note_off,,,,,44,0,7,,,,,0,,,78,100
29904,note_on,,,,,4,0,7,,,,,0,,,76,85
29936,note_off,,,,,32,0,7,,,,,0,,,76,100
29952,note_on,,,,,64,0,9,,,,,2,,,69,60
29952,note_on,,,,,64,0,8,,,,,1,,,74,60
29952,note_on,,,,,64,0,10,,,,,3,,,62,60
29952,note_on,,,,,16,0,7,,,,,0,,,78,85
29996,note_off,,,,,44,0,7,,,,,0,,,78,100
30000,note_on,,,,,4,0,7,,,,,0,,,79,85
30044,note_off,,,,,44,0,7,,,,,0,,,79,100
30048,note_on,,,,,4,0,7,,,,,0,,,81,85
30080,note_off,,,,,128,0,9,,,,,2,,,69,100
30080,note_off,,,,,32,0,7,,,,,0,,,81,100
30080,note_off,,,,,128,0,10,,,,,3,,,62,100
30080,note_off,,,,,128,0,8,,,,,1,,,74,100
30096,note_on,,,,,16,0,7,,,,,0,,,79,85
30128,note_off,,,,,32,0,7,,,,,0,,,79,100
30144,note_on,,,,,64,0,9,,,,,2,,,69,60
30144,note_on,,,,,64,0,8,,,,,1,,,74,60
30144,note_on,,,,,64,0,10,,,,,3,,,62,60
30144,note_on,,,,,16,0,7,,,,,0,,,78,85
30176,note_off,,,,,32,0,7,,,,,0,,,78,100
30192,note_on,,,,,16,0,7,,,,,0,,,76,85
30224,note_off,,,,,32,0,7,,,,,0,,,76,100
30240,note_on,,,,,16,0,7,,,,,0,,,74,85
30272,note_off,,,,,128,0,8,,,,,1,,,74,100
30272,note_off,,,,,128,0,10,,,,,3,,,62,100
30272,note_off,,,,,128,0,9,,,,,2,,,69,100
30272,note_off,,,,,32,0,7,,,,,0,,,74,100
30288,note_on,,,,,16,0,7,,,,,0,,,73,85
30320,note_off,,,,,32,0,7,,,,,0,,,73,100
30336,note_on,,,,,16,0,7,,,,,0,,,74,85
30336,note_on,,,,,64,0,10,,,,,3,,,57,60
30336,note_on,,,,,64,0,9,,,,,2,,,66,60
30336,note_on,,,,,64,0,8,,,,,1,,,74,60
30400,note_off,,,,,64,0,7,,,,,0,,,74,100
30432,note_on,,,,,32,0,7,,,,,0,,,66,86
30464,note_off,,,,,128,0,10,,,,,3,,,57,100
30464,note_off,,,,,128,0,9,,,,,2,,,66,100
30464,note_off,,,,,128,0,8,,,,,1,,,74,100
30496,note_off,,,,,64,0,7,,,,,0,,,66,100
30528,note_on,,,,,64,0,9,,,,,2,,,66,60
30528,note_on,,,,,64,0,10,,,,,3,,,57,60
30528,note_on,,,,,64,0,8,,,,,1,,,74,60
30528,note_on,,,,,32,0,7,,,,,0,,,74,87
30592,note_off,,,,,64,0,7,,,,,0,,,74,100
30624,note_on,,,,,32,0,7,,,,,0,,,66,88
30656,note_off,,,,,128,0,9,,,,,2,,,66,100
30656,note_off,,,,,128,0,10,,,,,3,,,57,100
30656,note_off,,,,,128,0,8,,,,,1,,,74,100
30688,note_off,,,,,64,0,7,,,,,0,,,66,100
30720,note_on,,,,,64,0,9,,,,,2,,,64,60
30720,note_on,,,,,32,0,7,,,,,0,,,64,89
30720,note_on,,,,,64,0,10,,,,,3,,,57,60
30720,note_on,,,,,64,0,8,,,,,1,,,74,60
30784,note_off,,,,,64,0,7,,,,,0,,,64,100
30816,note_on,,,,,32,0,7,,,,,0,,,74,91
30848,note_off,,,,,128,0,9,,,,,2,,,64,100
30848,note_off,,,,,128,0,8,,,,,1,,,74,100
30848,note_off,,,,,128,0,10,,,,,3,,,57,100
30880,note_off,,,,,64,0,7,,,,,0,,,74,100
30912,note_on,,,,,64,0,9,,,,,2,,,64,60
30912,note_on,,,,,32,0,7,,,,,0,,,64,92
30912,note_on,,,,,64,0,8,,,,,1,,,73,60
30912,note_on,,,,,64,0,10,,,,,3,,,57,60
30976,note_off,,,,,64,0,7,,,,,0,,,64,100
31008,note_on,,,,,32,0,7,,,,,0,,,73,93
31040,note_off,,,,,128,0,10,,,,,3,,,57,100
31040,note_off,,,,,128,0,9,,,,,2,,,64,100
31040,note_off,,,,,128,0,8,,,,,1,,,73,100
31072,note_off,,,,,64,0,7,,,,,0,,,73,100
31104,note_on,,,,,64,0,10,,,,,3,,,62,60
31104,note_on,,,,,64,0,8,,,,,1,,,74,60
31104,note_on,,,,,32,0,7,,,,,0,,,74,94
31104,note_on,,,,,64,0,9,,,,,2,,,66,60
31148,note_off,,,,,44,0,7,,,,,0,,,74,100
31152,note_on,,,,,4,0,7,,,,,0,,,73,85
31196,note_off,,,,,44,0,7,,,,,0,,,73,100
31200,note_on,,,,,4,0,7,,,,,0,,,74,85
31232,note_off,,,,,32,0,7,,,,,0,,,74,100
31232,note_off,,,,,128,0,9,,,,,2,,,66,100
31232,note_off,,,,,128,0,8,,,,,1,,,74,100
31232,note_off,,,,,128,0,10,,,,,3,,,62,100
31248,note_on,,,,,16,0,7,,,,,0,,,74,85
31280,note_off,,,,,32,0,7,,,,,0,,,74,100
31296,note_on,,,,,16,0,7,,,,,0,,,74,86
31296,note_on,,,,,64,0,9,,,,,2,,,74,60
31296,note_on,,,,,64,0,8,,,,,1,,,78,60
31296,note_on,,,,,64,0,10,,,,,3,,,74,60
31340,note_off,,,,,44,0,7,,,,,0,,,74,100
31344,note_on,,,,,4,0,7,,,,,0,,,73,86
31388,note_off,,,,,44,0,7,,,,,0,,,73,100
31392,note_on,,,,,4,0,7,,,,,0,,,74,87
31424,note_off,,,,,128,0,8,,,,,1,,,78,100
31424,note_off,,,,,128,0,9,,,,,2,,,74,100
31424,note_off,,,,,32,0,7,,,,,0,,,74,100
31424,note_off,,,,,128,0,10,,,,,3,,,74,100
31440,note_on,,,,,16,0,7,,,,,0,,,74,87
31472,note_off,,,,,32,0,7,,,,,0,,,74,100
31488,note_on,,,,,64,0,9,,,,,2,,,74,60
31488,note_on,,,,,64,0,10,,,,,3,,,73,60
31488,note_on,,,,,16,0,7,,,,,0,,,74,88
31488,note_on,,,,,64,0,8,,,,,1,,,78,60
31532,note_off,,,,,44,0,7,,,,,0,,,74,100
31536,note_on,,,,,4,0,7,,,,,0,,,73,88
31580,note_off,,,,,44,0,7,,,,,0,,,73,100
31584,note_on,,,,,4,0,7,,,,,0,,,74,89
31616,note_off,,,,,128,0,9,,,,,2,,,74,100
31616,note_off,,,,,32,0,7,,,,,0,,,74,100
31616,note_off,,,,,128,0,8,,,,,1,,,78,100
31616,note_off,,,,,128,0,10,,,,,3,,,73,100
31632,note_on,,,,,16,0,7,,,,,0,,,74,89
31664,note_off,,,,,32,0,7,,,,,0,,,74,100
31680,note_on,,,,,64,0,8,,,,,1,,,78,60
31680,note_on,,,,,16,0,7,,,,,0,,,74,89
31680,note_on,,,,,64,0,10,,,,,3,,,73,60
31680,note_on,,,,,64,0,9,,,,,2,,,74,60
31724,note_off,,,,,44,0,7,,,,,0,,,74,100
31728,note_on,,,,,4,0,7,,,,,0,,,73,90
31772,note_off,,,,,44,0,7,,,,,0,,,73,100
31776,note_on,,,,,4,0,7,,,,,0,,,74,90
31808,note_off,,,,,128,0,10,,,,,3,,,73,100
31808,note_off,,,,,128,0,8,,,,,1,,,78,100
31808,note_off,,,,,128,0,9,,,,,2,,,74,100
31808,note_off,,,,,32,0,7,,,,,0,,,74,100
31824,note_on,,,,,16,0,7,,,,,0,,,74,91
31856,note_off,,,,,32,0,7,,,,,0,,,74,100
31872,note_on,,,,,64,0,8,,,,,1,,,78,60
31872,note_on,,,,,64,0,10,,,,,3,,,71,60
31872,note_on,,,,,64,0,9,,,,,2,,,74,60
31872,note_on,,,,,16,0,7,,,,,0,,,74,91
31916,note_off,,,,,44,0,7,,,,,0,,,74,100
31920,note_on,,,,,4,0,7,,,,,0,,,73,92
31964,note_off,,,,,44,0,7,,,,,0,,,73,100
31968,note_on,,,,,4,0,7,,,,,0,,,74,92
32000,note_off,,,,,128,0,10,,,,,3,,,71,100
32000,note_off,,,,,32,0,7,,,,,0,,,74,100
32000,note_off,,,,,128,0,8,,,,,1,,,78,100
32000,note_off,,,,,128,0,9,,,,,2,,,74,100
32016,note_on,,,,,16,0,7,,,,,0,,,76,93
32048,note_off,,,,,32,0,7,,,,,0,,,76,100
32064,note_on,,,,,64,0,8,,,,,1,,,78,60
32064,note_on,,,,,64,0,9,,,,,2,,,74,60
32064,note_on,,,,,16,0,7,,,,,0,,,78,93
32064,note_on,,,,,64,0,10,,,,,3,,,71,60
32096,note_off,,,,,32,0,7,,,,,0,,,78,100
32112,note_on,,,,,16,0,7,,,,,0,,,79,94
32144,note_off,,,,,32,0,7,,,,,0,,,79,100
32160,note_on,,,,,16,0,7,,,,,0,,,81,94
32192,note_off,,,,,128,0,10,,,,,3,,,71,100
32192,note_off,,,,,128,0,9,,,,,2,,,74,100
32192,note_off,,,,,128,0,8,,,,,1,,,78,100
32192,note_off,,,,,32,0,7,,,,,0,,,81,100
32208,note_on,,,,,16,0,7,,,,,0,,,83,94
32240,note_off,,,,,32,0,7,,,,,0,,,83,100
32256,note_on,,,,,64,0,9,,,,,2,,,74,60
32256,note_on,,,,,16,0,7,,,,,0,,,74,85
32256,note_on,,,,,64,0,10,,,,,3,,,69,60
32256,note_on,,,,,64,0,8,,,,,1,,,78,60
32300,note_off,,,,,44,0,7,,,,,0,,,74,100
32304,note_on,,,,,4,0,7,,,,,0,,,73,85
32348,note_off,,,,,44,0,7,,,,,0,,,73,100
32352,note_on,,,,,4,0,7,,,,,0,,,74,85
32384,note_off,,,,,128,0,8,,,,,1,,,78,100
32384,note_off,,,,,32,0,7,,,,,0,,,74,100
32384,note_off,,,,,128,0,10,,,,,3,,,69,100
32384,note_off,,,,,128,0,9,,,,,2,,,74,100
32400,note_on,,,,,16,0,7,,,,,0,,,74,86
32432,note_off,,,,,32,0,7,,,,,0,,,74,100
32448,note_on,,,,,16,0,7,,,,,0,,,74,86
32448,note_on,,,,,64,0,10,,,,,3,,,69,60
32448,note_on,,,,,64,0,9,,,,,2,,,74,60
32448,note_on,,,,,64,0,8,,,,,1,,,78,60
32492,note_off,,,,,44,0,7,,,,,0,,,74,100
32496,note_on,,,,,4,0,7,,,,,0,,,73,87
32540,note_off,,,,,44,0,7,,,,,0,,,73,100
32544,note_on,,,,,4,0,7,,,,,0,,,74,87
32576,note_off,,,,,128,0,9,,,,,2,,,74,100
32576,note_off,,,,,32,0,7,,,,,0,,,74,100
32576,note_off,,,,,128,0,10,,,,,3,,,69,100
32576,note_off,,,,,128,0,8,,,,,1,,,78,100
32592,note_on,,,,,16,0,7,,,,,0,,,74,88
32624,note_off,,,,,32,0,7,,,,,0,,,74,100
32640,note_on,,,,,64,0,9,,,,,2,,,74,60
32640,note_on,,,,,64,0,10,,,,,3,,,67,60
32640,note_on,,,,,64,0,8,,,,,1,,,78,60
32640,note_on,,,,,16,0,7,,,,,0,,,74,88
32684,note_off,,,,,44,0,7,,,,,0,,,74,100
32688,note_on,,,,,4,0,7,,,,,0,,,73,88
32732,note_off,,,,,44,0,7,,,,,0,,,73,100
32736,note_on,,,,,4,0,7,,,,,0,,,74,89
32768,note_off,,,,,128,0,8,,,,,1,,,78,100
32768,note_off,,,,,128,0,9,,,,,2,,,74,100
32768,note_off,,,,,128,0,10,,,,,3,,,67,100
32768,note_off,,,,,32,0,7,,,,,0,,,74,100
32784,note_on,,,,,16,0,7,,,,,0,,,74,89
32816,note_off,,,,,32,0,7,,,,,0,,,74,100
32832,note_on,,,,,64,0,9,,,,,2,,,74,60
32832,note_on,,,,,16,0,7,,,,,0,,,74,90
32832,note_on,,,,,64,0,8,,,,,1,,,78,60
32832,note_on,,,,,64,0,10,,,,,3,,,67,60
32876,note_off,,,,,44,0,7,,,,,0,,,74,100
32880,note_on,,,,,4,0,7,,,,,0,,,73,90
32924,note_off,,,,,44,0,7,,,,,0,,,73,100
32928,note_on,,,,,4,0,7,,,,,0,,,74,91
32960,note_off,,,,,128,0,9,,,,,2,,,74,100
32960,note_off,,,,,128,0,8,,,,,1,,,78,100
32960,note_off,,,,,128,0,10,,,,,3,,,67,100
32960,note_off,,,,,32,0,7,,,,,0,,,74,100
32976,note_on,,,,,16,0,7,,,,,0,,,74,91
33008,note_off,,,,,32,0,7,,,,,0,,,74,100
33024,note_on,,,,,64,0,8,,,,,1,,,78,60
33024,note_on,,,,,64,0,9,,,,,2,,,74,60
33024,note_on,,,,,64,0,10,,,,,3,,,66,60
33024,note_on,,,,,16,0,7,,,,,0,,,74,91
33068,note_off,,,,,44,0,7,,,,,0,,,74,100
33072,note_on,,,,,4,0,7,,,,,0,,,73,92
33116,note_off,,,,,44,0,7,,,,,0,,,73,100
33120,note_on,,,,,4,0,7,,,,,0,,,74,92
33152,note_off,,,,,128,0,8,,,,,1,,,78,100
33152,note_off,,,,,32,0,7,,,,,0,,,74,100
33152,note_off,,,,,128,0,9,,,,,2,,,74,100
33152,note_off,,,,,128,0,10,,,,,3,,,66,100
33168,note_on,,,,,16,0,7,,,,,0,,,76,93
33200,note_off,,,,,32,0,7,,,,,0,,,76,100
33216,note_on,,,,,64,0,10,,,,,3,,,66,60
33216,note_on,,,,,16,0,7,,,,,0,,,78,93
33216,note_on,,,,,64,0,9,,,,,2,,,74,60
33216,note_on,,,,,64,0,8,,,,,1,,,78,60
33248,note_off,,,,,32,0,7,,,,,0,,,78,100
33264,note_on,,,,,16,0,7,,,,,0,,,79,94
33296,note_off,,,,,32,0,7,,,,,0,,,79,100
33312,note_on,,,,,16,0,7,,,,,0,,,81,94
33344,note_off,,,,,128,0,8,,,,,1,,,78,100
33344,note_off,,,,,32,0,7,,,,,0,,,81,100
33344,note_off,,,,,128,0,10,,,,,3,,,66,100
33344,note_off,,,,,128,0,9,,,,,2,,,74,100
33360,note_on,,,,,16,0,7,,,,,0,,,83,94
33392,note_off,,,,,32,0,7,,,,,0,,,83,100
33408,note_on,,,,,64,0,8,,,,,1,,,76,60
33408,note_on,,,,,16,0,7,,,,,0,,,74,85
33408,note_on,,,,,64,0,9,,,,,2,,,74,60
33408,note_on,,,,,64,0,10,,,,,3,,,67,60
33452,note_off,,,,,44,0,7,,,,,0,,,74,100
33456,note_on,,,,,4,0,7,,,,,0,,,73,85
33500,note_off,,,,,44,0,7,,,,,0,,,73,100
33504,note_on,,,,,4,0,7,,,,,0,,,74,86
33536,note_off,,,,,128,0,10,,,,,3,,,67,100
33536,note_off,,,,,128,0,8,,,,,1,,,76,100
33536,note_off,,,,,128,0,9,,,,,2,,,74,100
33536,note_off,,,,,32,0,7,,,,,0,,,74,100
33552,note_on,,,,,16,0,7,,,,,0,,,83,86
33584,note_off,,,,,32,0,7,,,,,0,,,83,100
33600,note_on,,,,,64,0,9,,,,,2,,,74,60
33600,note_on,,,,,16,0,7,,,,,0,,,74,87
33600,note_on,,,,,64,0,8,,,,,1,,,76,60
33600,note_on,,,,,64,0,10,,,,,3,,,67,60
33644,note_off,,,,,44,0,7,,,,,0,,,74,100
33648,note_on,,,,,4,0,7,,,,,0,,,73,88
33692,note_off,,,,,44,0,7,,,,,0,,,73,100
33696,note_on,,,,,4,0,7,,,,,0,,,74,88
33728,note_off,,,,,128,0,9,,,,,2,,,74,100
33728,note_off,,,,,32,0,7,,,,,0,,,74,100
33728,note_off,,,,,128,0,8,,,,,1,,,76,100
33728,note_off,,,,,128,0,10,,,,,3,,,67,100
33744,note_on,,,,,16,0,7,,,,,0,,,83,89
33776,note_off,,,,,32,0,7,,,,,0,,,83,100
33792,note_on,,,,,64,0,9,,,,,2,,,74,60
33792,note_on,,,,,16,0,7,,,,,0,,,74,89
33792,note_on,,,,,64,0,8,,,,,1,,,76,60
33792,note_on,,,,,64,0,10,,,,,3,,,69,60
33836,note_off,,,,,44,0,7,,,,,0,,,74,100
33840,note_on,,,,,4,0,7,,,,,0,,,73,90
33884,note_off,,,,,44,0,7,,,,,0,,,73,100
33888,note_on,,,,,4,0,7,,,,,0,,,74,91
33920,note_off,,,,,32,0,7,,,,,0,,,74,100
33920,note_off,,,,,128,0,8,,,,,1,,,76,100
33920,note_off,,,,,128,0,9,,,,,2,,,74,100
33920,note_off,,,,,128,0,10,,,,,3,,,69,100
33936,note_on,,,,,16,0,7,,,,,0,,,81,91
33968,note_off,,,,,32,0,7,,,,,0,,,81,100
33984,note_on,,,,,64,0,8,,,,,1,,,76,60
33984,note_on,,,,,64,0,9,,,,,2,,,74,60
33984,note_on,,,,,64,0,10,,,,,3,,,69,60
33984,note_on,,,,,16,0,7,,,,,0,,,74,92
34028,note_off,,,,,44,0,7,,,,,0,,,74,100
34032,note_on,,,,,4,0,7,,,,,0,,,73,93
34076,note_off,,,,,44,0,7,,,,,0,,,73,100
34080,note_on,,,,,4,0,7,,,,,0,,,74,93
34112,note_off,,,,,128,0,9,,,,,2,,,74,100
34112,note_off,,,,,32,0,7,,,,,0,,,74,100
34112,note_off,,,,,128,0,8,,,,,1,,,76,100
34112,note_off,,,,,128,0,10,,,,,3,,,69,100
34128,note_on,,,,,16,0,7,,,,,0,,,81,94
34160,note_off,,,,,32,0,7,,,,,0,,,81,100
34176,note_on,,,,,64,0,8,,,,,1,,,76,60
34176,note_on,,,,,64,0,10,,,,,3,,,57,60
34176,note_on,,,,,64,0,9,,,,,2,,,74,60
34176,note_on,,,,,16,0,7,,,,,0,,,74,94
34220,note_off,,,,,44,0,7,,,,,0,,,74,100
34224,note_on,,,,,4,0,7,,,,,0,,,73,95
34268,note_off,,,,,44,0,7,,,,,0,,,73,100
34272,note_on,,,,,4,0,7,,,,,0,,,74,96
34304,note_off,,,,,128,0,8,,,,,1,,,76,100
34304,note_off,,,,,32,0,7,,,,,0,,,74,100
34304,note_off,,,,,128,0,9,,,,,2,,,74,100
34304,note_off,,,,,128,0,10,,,,,3,,,57,100
34320,note_on,,,,,16,0,7,,,,,0,,,81,96
34352,note_off,,,,,32,0,7,,,,,0,,,81,100
34368,note_on,,,,,64,0,9,,,,,2,,,73,60
34368,note_on,,,,,64,0,10,,,,,3,,,57,60
34368,note_on,,,,,64,0,8,,,,,1,,,76,60
34368,note_on,,,,,16,0,7,,,,,0,,,73,97
34412,note_off,,,,,44,0,7,,,,,0,,,73,100
34416,note_on,,,,,4,0,7,,,,,0,,,74,98
34460,note_off,,,,,44,0,7,,,,,0,,,74,100
34464,note_on,,,,,4,0,7,,,,,0,,,76,98
34496,note_off,,,,,128,0,10,,,,,3,,,57,100
34496,note_off,,,,,32,0,7,,,,,0,,,76,100
34496,note_off,,,,,128,0,9,,,,,2,,,73,100
34496,note_off,,,,,128,0,8,,,,,1,,,76,100
34512,note_on,,,,,16,0,7,,,,,0,,,73,99
34544,note_off,,,,,32,0,7,,,,,0,,,73,100
34560,note_on,,,,,25088,0,14,,,,,6,,,50,100
34560,note_on,,,,,64,0,9,,,,,2,,,74,60
34560,note_on,,,,,64,0,8,,,,,1,,,78,60
34560,note_on,,,,,25088,0,12,,,,,5,,,38,60
34560,note_on,,,,,25088,0,11,,,,,4,,,50,60
34560,note_on,,,,,25088,0,13,,,,,6,,,69,100
34560,note_on,,,,,0,0,13,,,,,6,,,66,100
34560,note_on,,,,,16,0,7,,,,,0,,,74,99
34560,note_on,,,,,64,0,10,,,,,3,,,69,60
34688,note_off,,,,,128,0,11,,,,,4,,,50,100
34688,note_off,,,,,128,0,13,,,,,6,,,69,100
34688,note_off,,,,,0,0,13,,,,,6,,,66,100
34688,note_off,,,,,128,0,9,,,,,2,,,74,100
34688,note_off,,,,,128,0,14,,,,,6,,,50,100
34688,note_off,,,,,128,0,7,,,,,0,,,74,100
34688,note_off,,,,,128,0,10,,,,,3,,,69,100
34688,note_off,,,,,128,0,12,,,,,5,,,38,100
34688,note_off,,,,,128,0,8,,,,,1,,,78,100
34752,note_on,,,,,64,0,10,,,,,3,,,69,85
34752,note_on,,,,,0,0,13,,,,,6,,,66,100
34752,note_on,,,,,64,0,13,,,,,6,,,69,100
34752,note_on,,,,,64,0,11,,,,,4,,,50,85
34752,note_on,,,,,64,0,8,,,,,1,,,78,85
34752,note_on,,,,,64,0,9,,,,,2,,,74,85
34752,note_on,,,,,64,0,12,,,,,5,,,38,85
34752,note_on,,,,,64,0,14,,,,,6,,,50,100
34880,note_off,,,,,0,0,13,,,,,6,,,66,100
34880,note_off,,,,,128,0,8,,,,,1,,,78,100
34880,note_off,,,,,128,0,10,,,,,3,,,69,100
34880,note_off,,,,,128,0,9,,,,,2,,,74,100
34880,note_off,,,,,128,0,12,,,,,5,,,38,100
34880,note_off,,,,,128,0,13,,,,,6,,,69,100
34880,note_off,,,,,128,0,11,,,,,4,,,50,100
34880,note_off,,,,,128,0,14,,,,,6,,,50,100
34944,note_on,,,,,64,0,13,,,,,6,,,69,100
34944,note_on,,,,,0,0,13,,,,,6,,,66,100
34944,note_on,,,,,64,0,12,,,,,5,,,38,85
34944,note_on,,,,,64,0,8,,,,,1,,,78,85
34944,note_on,,,,,64,0,9,,,,,2,,,74,85
34944,note_on,,,,,64,0,10,,,,,3,,,69,85
34944,note_on,,,,,64,0,11,,,,,4,,,50,85
34944,note_on,,,,,64,0,14,,,,,6,,,50,100
35072,note_off,,,,,128,0,11,,,,,4,,,50,100
35072,note_off,,,,,0,0,13,,,,,6,,,66,100
35072,note_off,,,,,128,0,8,,,,,1,,,78,100
35072,note_off,,,,,128,0,13,,,,,6,,,69,100
35072,note_off,,,,,128,0,9,,,,,2,,,74,100
35072,note_off,,,,,128,0,12,,,,,5,,,38,100
35072,note_off,,,,,128,0,10,,,,,3,,,69,100
35072,note_off,,,,,128,0,14,,,,,6,,,50,100
35136,note_on,,,,,64,0,13,,,,,6,,,69,100
35136,note_on,,,,,0,0,13,,,,,6,,,66,100
35136,note_on,,,,,64,0,10,,,,,3,,,69,85
35136,note_on,,,,,64,0,12,,,,,5,,,38,85
35136,note_on,,,,,64,0,8,,,,,1,,,78,85
35136,note_on,,,,,64,0,11,,,,,4,,,50,85
35136,note_on,,,,,64,0,9,,,,,2,,,74,85
35136,note_on,,,,,64,0,14,,,,,6,,,50,100
35264,note_off,,,,,128,0,9,,,,,2,,,74,100
35264,note_off,,,,,128,0,13,,,,,6,,,69,100
35264,note_off,,,,,0,0,13,,,,,6,,,66,100
35264,note_off,,,,,128,0,8,,,,,1,,,78,100
35264,note_off,,,,,128,0,10,,,,,3,,,69,100
35264,note_off,,,,,128,0,12,,,,,5,,,38,100
35264,note_off,,,,,128,0,11,,,,,4,,,50,100
35264,note_off,,,,,128,0,14,,,,,6,,,50,100
35328,note_on,,,,,64,0,10,,,,,3,,,66,85
35328,note_on,,,,,64,0,11,,,,,4,,,50,85
35328,note_on,,,,,0,0,13,,,,,6,,,66,100
35328,note_on,,,,,64,0,13,,,,,6,,,69,100
35328,note_on,,,,,64,0,9,,,,,2,,,74,85
35328,note_on,,,,,64,0,14,,,,,6,,,50,100
35328,note_on,,,,,64,0,12,,,,,5,,,38,85
35328,note_on,,,,,64,0,8,,,,,1,,,78,85
35456,note_off,,,,,128,0,9,,,,,2,,,74,100
35456,note_off,,,,,0,0,13,,,,,6,,,66,100
35456,note_off,,,,,128,0,12,,,,,5,,,38,100
35456,note_off,,,,,128,0,13,,,,,6,,,69,100
35456,note_off,,,,,128,0,8,,,,,1,,,78,100
35456,note_off,,,,,128,0,10,,,,,3,,,66,100
35456,note_off,,,,,128,0,14,,,,,6,,,50,100
35456,note_off,,,,,128,0,11,,,,,4,,,50,100
35520,note_on,,,,,64,0,14,,,,,6,,,50,100
35520,note_on,,,,,64,0,13,,,,,6,,,69,100
35520,note_on,,,,,0,0,13,,,,,6,,,66,100
35520,note_on,,,,,64,0,10,,,,,3,,,66,85
35520,note_on,,,,,64,0,9,,,,,2,,,74,85
35520,note_on,,,,,64,0,12,,,,,5,,,38,85
35520,note_on,,,,,64,0,8,,,,,1,,,78,85
35520,note_on,,,,,64,0,11,,,,,4,,,50,85
35648,note_off,,,,,0,0,13,,,,,6,,,66,100
35648,note_off,,,,,128,0,10,,,,,3,,,66,100
35648,note_off,,,,,128,0,9,,,,,2,,,74,100
35648,note_off,,,,,128,0,11,,,,,4,,,50,100
35648,note_off,,,,,128,0,14,,,,,6,,,50,100
35648,note_off,,,,,128,0,12,,,,,5,,,38,100
35648,note_off,,,,,128,0,8,,,,,1,,,78,100
35648,note_off,,,,,128,0,13,,,,,6,,,69,100
35712,note_on,,,,,64,0,14,,,,,6,,,52,100
35712,note_on,,,,,0,0,13,,,,,6,,,74,100
35712,note_on,,,,,64,0,12,,,,,5,,,40,85
35712,note_on,,,,,64,0,10,,,,,3,,,59,85
35712,note_on,,,,,64,0,9,,,,,2,,,74,85
35712,note_on,,,,,64,0,11,,,,,4,,,52,85
35712,note_on,,,,,64,0,8,,,,,1,,,79,85
35712,note_on,,,,,64,0,13,,,,,6,,,71,100
35840,note_off,,,,,128,0,8,,,,,1,,,79,100
35840,note_off,,,,,128,0,9,,,,,2,,,74,100
35840,note_off,,,,,128,0,12,,,,,5,,,40,100
35840,note_off,,,,,128,0,11,,,,,4,,,52,100
35840,note_off,,,,,128,0,10,,,,,3,,,59,100
35840,note_off,,,,,128,0,14,,,,,6,,,52,100
35840,note_off,,,,,128,0,13,,,,,6,,,71,100
35840,note_off,,,,,0,0,13,,,,,6,,,74,100
35904,note_on,,,,,64,0,12,,,,,5,,,40,85
35904,note_on,,,,,64,0,14,,,,,6,,,52,100
35904,note_on,,,,,64,0,9,,,,,2,,,74,85
35904,note_on,,,,,64,0,10,,,,,3,,,64,85
35904,note_on,,,,,64,0,13,,,,,6,,,71,100
35904,note_on,,,,,0,0,13,,,,,6,,,74,100
35904,note_on,,,,,64,0,11,,,,,4,,,52,85
35904,note_on,,,,,64,0,8,,,,,1,,,79,85
36032,note_off,,,,,128,0,10,,,,,3,,,64,100
36032,note_off,,,,,128,0,13,,,,,6,,,71,100
36032,note_off,,,,,128,0,9,,,,,2,,,74,100
36032,note_off,,,,,0,0,13,,,,,6,,,74,100
36032,note_off,,,,,128,0,11,,,,,4,,,52,100
36032,note_off,,,,,128,0,8,,,,,1,,,79,100
36032,note_off,,,,,128,0,12,,,,,5,,,40,100
36032,note_off,,,,,128,0,14,,,,,6,,,52,100
36096,note_on,,,,,0,0,13,,,,,6,,,67,100
36096,note_on,,,,,64,0,9,,,,,2,,,73,85
36096,note_on,,,,,64,0,14,,,,,6,,,45,100
36096,note_on,,,,,64,0,11,,,,,4,,,45,85
36096,note_on,,,,,64,0,12,,,,,5,,,33,85
36096,note_on,,,,,64,0,10,,,,,3,,,64,85
36096,note_on,,,,,64,0,13,,,,,6,,,64,100
36096,note_on,,,,,64,0,8,,,,,1,,,79,85
36224,note_off,,,,,128,0,8,,,,,1,,,79,100
36224,note_off,,,,,0,0,13,,,,,6,,,67,100
36224,note_off,,,,,128,0,13,,,,,6,,,64,100
36224,note_off,,,,,128,0,11,,,,,4,,,45,100
36224,note_off,,,,,128,0,12,,,,,5,,,33,100
36224,note_off,,,,,128,0,9,,,,,2,,,73,100
36224,note_off,,,,,128,0,10,,,,,3,,,64,100
36224,note_off,,,,,128,0,14,,,,,6,,,45,100
36288,note_on,,,,,64,0,12,,,,,5,,,33,85
36288,note_on,,,,,64,0,10,,,,,3,,,64,85
36288,note_on,,,,,0,0,13,,,,,6,,,67,100
36288,note_on,,,,,64,0,11,,,,,4,,,45,85
36288,note_on,,,,,64,0,9,,,,,2,,,73,85
36288,note_on,,,,,64,0,8,,,,,1,,,79,85
36288,note_on,,,,,64,0,13,,,,,6,,,64,100
36288,note_on,,,,,64,0,14,,,,,6,,,45,100
36416,note_off,,,,,0,0,13,,,,,6,,,67,100
36416,note_off,,,,,128,0,8,,,,,1,,,79,100
36416,note_off,,,,,128,0,14,,,,,6,,,45,100
36416,note_off,,,,,128,0,13,,,,,6,,,64,100
36416,note_off,,,,,128,0,10,,,,,3,,,64,100
36416,note_off,,,,,128,0,9,,,,,2,,,73,100
36416,note_off,,,,,128,0,11,,,,,4,,,45,100
36416,note_off,,,,,128,0,12,,,,,5,,,33,100
36480,note_on,,,,,64,0,10,,,,,3,,,64,85
36480,note_on,,,,,64,0,8,,,,,1,,,79,85
36480,note_on,,,,,64,0,9,,,,,2,,,73,85
36480,note_on,,,,,0,0,13,,,,,6,,,67,100
36480,note_on,,,,,64,0,11,,,,,4,,,45,85
36480,note_on,,,,,64,0,13,,,,,6,,,64,100
36480,note_on,,,,,64,0,12,,,,,5,,,33,85
36480,note_on,,,,,64,0,14,,,,,6,,,45,100
36608,note_off,,,,,128,0,14,,,,,6,,,45,100
36608,note_off,,,,,128,0,9,,,,,2,,,73,100
36608,note_off,,,,,128,0,13,,,,,6,,,64,100
36608,note_off,,,,,0,0,13,,,,,6,,,67,100
36608,note_off,,,,,128,0,12,,,,,5,,,33,100
36608,note_off,,,,,128,0,10,,,,,3,,,64,100
36608,note_off,,,,,128,0,8,,,,,1,,,79,100
36608,note_off,,,,,128,0,11,,,,,4,,,45,100
36672,note_on,,,,,64,0,14,,,,,6,,,45,100
36672,note_on,,,,,64,0,8,,,,,1,,,79,85
36672,note_on,,,,,64,0,12,,,,,5,,,33,85
36672,note_on,,,,,64,0,13,,,,,6,,,64,100
36672,note_on,,,,,0,0,13,,,,,6,,,67,100
36672,note_on,,,,,64,0,11,,,,,4,,,45,85
36672,note_on,,,,,64,0,10,,,,,3,,,69,85
36672,note_on,,,,,64,0,9,,,,,2,,,73,85
36800,note_off,,,,,128,0,14,,,,,6,,,45,100
36800,note_off,,,,,128,0,10,,,,,3,,,69,100
36800,note_off,,,,,128,0,11,,,,,4,,,45,100
36800,note_off,,,,,128,0,12,,,,,5,,,33,100
36800,note_off,,,,,0,0,13,,,,,6,,,67,100
36800,note_off,,,,,128,0,13,,,,,6,,,64,100
36800,note_off,,,,,128,0,8,,,,,1,,,79,100
36800,note_off,,,,,128,0,9,,,,,2,,,73,100
36864,note_on,,,,,64,0,9,,,,,2,,,74,85
36864,note_on,,,,,0,0,13,,,,,6,,,69,100
36864,note_on,,,,,64,0,11,,,,,4,,,50,85
36864,note_on,,,,,64,0,8,,,,,1,,,79,85
36864,note_on,,,,,64,0,12,,,,,5,,,38,85
36864,note_on,,,,,64,0,14,,,,,6,,,50,100
36864,note_on,,,,,64,0,13,,,,,6,,,67,100
36864,note_on,,,,,64,0,10,,,,,3,,,69,85
36992,note_off,,,,,128,0,12,,,,,5,,,38,100
36992,note_off,,,,,128,0,10,,,,,3,,,69,100
36992,note_off,,,,,128,0,9,,,,,2,,,74,100
36992,note_off,,,,,128,0,14,,,,,6,,,50,100
36992,note_off,,,,,128,0,11,,,,,4,,,50,100
36992,note_off,,,,,128,0,8,,,,,1,,,79,100
36992,note_off,,,,,0,0,13,,,,,6,,,69,100
36992,note_off,,,,,128,0,13,,,,,6,,,67,100
37056,note_on,,,,,64,0,10,,,,,3,,,69,85
37056,note_on,,,,,64,0,13,,,,,6,,,67,100
37056,note_on,,,,,64,0,11,,,,,4,,,50,85
37056,note_on,,,,,64,0,12,,,,,5,,,38,85
37056,note_on,,,,,64,0,14,,,,,6,,,50,100
37056,note_on,,,,,64,0,8,,,,,1,,,79,85
37056,note_on,,,,,64,0,9,,,,,2,,,74,85
37056,note_on,,,,,0,0,13,,,,,6,,,69,100
37184,note_off,,,,,128,0,14,,,,,6,,,50,100
37184,note_off,,,,,128,0,9,,,,,2,,,74,100
37184,note_off,,,,,128,0,8,,,,,1,,,79,100
37184,note_off,,,,,0,0,13,,,,,6,,,69,100
37184,note_off,,,,,128,0,13,,,,,6,,,67,100
37184,note_off,,,,,128,0,11,,,,,4,,,50,100
37184,note_off,,,,,128,0,12,,,,,5,,,38,100
37184,note_off,,,,,128,0,10,,,,,3,,,69,100
37248,note_on,,,,,0,0,13,,,,,6,,,69,100
37248,note_on,,,,,64,0,13,,,,,6,,,66,100
37248,note_on,,,,,64,0,8,,,,,1,,,78,85
37248,note_on,,,,,64,0,9,,,,,2,,,74,85
37248,note_on,,,,,64,0,14,,,,,6,,,50,100
37248,note_on,,,,,64,0,10,,,,,3,,,69,85
37248,note_on,,,,,64,0,12,,,,,5,,,38,85
37248,note_on,,,,,64,0,11,,,,,4,,,50,85
37376,note_off,,,,,128,0,8,,,,,1,,,78,100
37376,note_off,,,,,0,0,13,,,,,6,,,69,100
37376,note_off,,,,,128,0,13,,,,,6,,,66,100
37376,note_off,,,,,128,0,9,,,,,2,,,74,100
37376,note_off,,,,,128,0,14,,,,,6,,,50,100
37376,note_off,,,,,128,0,10,,,,,3,,,69,100
37376,note_off,,,,,128,0,11,,,,,4,,,50,100
37376,note_off,,,,,128,0,12,,,,,5,,,38,100
37440,note_on,,,,,64,0,11,,,,,4,,,50,85
37440,note_on,,,,,64,0,12,,,,,5,,,38,85
37440,note_on,,,,,64,0,10,,,,,3,,,69,85
37440,note_on,,,,,64,0,13,,,,,6,,,66,100
37440,note_on,,,,,64,0,9,,,,,2,,,74,85
37440,note_on,,,,,64,0,14,,,,,6,,,50,100
37440,note_on,,,,,64,0,8,,,,,1,,,78,85
37440,note_on,,,,,0,0,13,,,,,6,,,69,100
37568,note_off,,,,,0,0,13,,,,,6,,,69,100
37568,note_off,,,,,128,0,14,,,,,6,,,50,100
37568,note_off,,,,,128,0,12,,,,,5,,,38,100
37568,note_off,,,,,128,0,11,,,,,4,,,50,100
37568,note_off,,,,,128,0,13,,,,,6,,,66,100
37568,note_off,,,,,128,0,8,,,,,1,,,78,100
37568,note_off,,,,,128,0,9,,,,,2,,,74,100
37568,note_off,,,,,128,0,10,,,,,3,,,69,100
37632,note_on,,,,,64,0,12,,,,,5,,,50,85
37632,note_on,,,,,64,0,14,,,,,6,,,62,100
37632,note_on,,,,,0,0,13,,,,,6,,,69,100
37632,note_on,,,,,64,0,11,,,,,4,,,62,85
37632,note_on,,,,,64,0,9,,,,,2,,,74,85
37632,note_on,,,,,64,0,10,,,,,3,,,69,85
37632,note_on,,,,,64,0,8,,,,,1,,,78,85
37632,note_on,,,,,64,0,13,,,,,6,,,78,100
37760,note_off,,,,,128,0,13,,,,,6,,,78,100
37760,note_off,,,,,128,0,12,,,,,5,,,50,100
37760,note_off,,,,,128,0,9,,,,,2,,,74,100
37760,note_off,,,,,128,0,8,,,,,1,,,78,100
37760,note_off,,,,,128,0,14,,,,,6,,,62,100
37760,note_off,,,,,128,0,10,,,,,3,,,69,100
37760,note_off,,,,,0,0,13,,,,,6,,,69,100
37760,note_off,,,,,128,0,11,,,,,4,,,62,100
37824,note_on,,,,,64,0,12,,,,,5,,,50,85
37824,note_on,,,,,64,0,10,,,,,3,,,69,85
37824,note_on,,,,,64,0,13,,,,,6,,,78,100
37824,note_on,,,,,64,0,9,,,,,2,,,74,85
37824,note_on,,,,,64,0,8,,,,,1,,,78,85
37824,note_on,,,,,0,0,13,,,,,6,,,69,100
37824,note_on,,,,,64,0,11,,,,,4,,,62,85
37824,note_on,,,,,64,0,14,,,,,6,,,62,100
37952,note_off,,,,,128,0,14,,,,,6,,,62,100
37952,note_off,,,,,128,0,8,,,,,1,,,78,100
37952,note_off,,,,,128,0,10,,,,,3,,,69,100
37952,note_off,,,,,128,0,12,,,,,5,,,50,100
37952,note_off,,,,,128,0,11,,,,,4,,,62,100
37952,note_off,,,,,128,0,9,,,,,2,,,74,100
37952,note_off,,,,,0,0,13,,,,,6,,,69,100
37952,note_off,,,,,128,0,13,,,,,6,,,78,100
38016,set_tempo,,,,,31104,1,0,,1578947,,,,,,,
38016,note_on,,,,,64,0,9,,,,,2,,,74,85
38016,note_on,,,,,64,0,12,,,,,5,,,43,85
38016,note_on,,,,,64,0,10,,,,,3,,,71,85
38016,note_on,,,,,64,0,8,,,,,1,,,76,85
38016,note_on,,,,,64,0,14,,,,,6,,,55,100
38016,note_on,,,,,64,0,11,,,,,4,,,55,85
38016,note_on,,,,,0,0,13,,,,,6,,,74,100
38016,note_on,,,,,64,0,13,,,,,6,,,76,100
38128,set_tempo,,,,,112,1,0,,1621621,,,,,,,
38144,note_off,,,,,128,0,8,,,,,1,,,76,100
38144,note_off,,,,,128,0,9,,,,,2,,,74,100
38144,note_off,,,,,128,0,14,,,,,6,,,55,100
38144,note_off,,,,,128,0,13,,,,,6,,,76,100
38144,note_off,,,,,128,0,10,,,,,3,,,71,100
38144,note_off,,,,,0,0,13,,,,,6,,,74,100
38144,note_off,,,,,128,0,12,,,,,5,,,43,100
38144,note_off,,,,,128,0,11,,,,,4,,,55,100
38208,note_on,,,,,64,0,13,,,,,6,,,76,100
38208,note_on,,,,,0,0,13,,,,,6,,,74,100
38208,note_on,,,,,64,0,9,,,,,2,,,74,85
38208,note_on,,,,,64,0,11,,,,,4,,,55,85
38208,note_on,,,,,64,0,12,,,,,5,,,43,85
38208,note_on,,,,,64,0,14,,,,,6,,,55,100
38208,note_on,,,,,64,0,8,,,,,1,,,76,85
38208,note_on,,,,,64,0,10,,,,,3,,,71,85
38244,set_tempo,,,,,116,1,0,,1666666,,,,,,,
38336,note_off,,,,,128,0,9,,,,,2,,,74,100
38336,note_off,,,,,128,0,11,,,,,4,,,55,100
38336,note_off,,,,,128,0,12,,,,,5,,,43,100
38336,note_off,,,,,128,0,10,,,,,3,,,71,100
38336,note_off,,,,,128,0,14,,,,,6,,,55,100
38336,note_off,,,,,128,0,13,,,,,6,,,76,100
38336,note_off,,,,,128,0,8,,,,,1,,,76,100
38336,note_off,,,,,0,0,13,,,,,6,,,74,100
38360,set_tempo,,,,,116,1,0,,1714285,,,,,,,
38400,note_on,,,,,64,0,8,,,,,1,,,76,85
38400,note_on,,,,,64,0,10,,,,,3,,,69,85
38400,note_on,,,,,64,0,9,,,,,2,,,73,85
38400,note_on,,,,,64,0,11,,,,,4,,,57,85
38400,note_on,,,,,64,0,12,,,,,5,,,45,85
38400,note_on,,,,,64,0,14,,,,,6,,,57,100
38400,note_on,,,,,64,0,13,,,,,6,,,73,100
38400,note_on,,,,,0,0,13,,,,,6,,,76,100
38476,set_tempo,,,,,116,1,0,,1764705,,,,,,,
38528,note_off,,,,,128,0,9,,,,,2,,,73,100
38528,note_off,,,,,128,0,8,,,,,1,,,76,100
38528,note_off,,,,,0,0,13,,,,,6,,,76,100
38528,note_off,,,,,128,0,14,,,,,6,,,57,100
38528,note_off,,,,,128,0,11,,,,,4,,,57,100
38528,note_off,,,,,128,0,12,,,,,5,,,45,100
38528,note_off,,,,,128,0,10,,,,,3,,,69,100
38528,note_off,,,,,128,0,13,,,,,6,,,73,100
38592,note_on,,,,,64,0,10,,,,,3,,,69,85
38592,note_on,,,,,64,0,8,,,,,1,,,76,85
38592,note_on,,,,,64,0,12,,,,,5,,,45,85
38592,set_tempo,,,,,116,1,0,,1818181,,,,,,,
38592,note_on,,,,,64,0,14,,,,,6,,,57,100
38592,note_on,,,,,0,0,13,,,,,6,,,76,100
38592,note_on,,,,,64,0,13,,,,,6,,,73,100
38592,note_on,,,,,64,0,9,,,,,2,,,73,85
38592,note_on,,,,,64,0,11,,,,,4,,,57,85
38704,set_tempo,,,,,112,1,0,,1875000,,,,,,,
38720,note_off,,,,,128,0,12,,,,,5,,,45,100
38720,note_off,,,,,128,0,10,,,,,3,,,69,100
38720,note_off,,,,,128,0,9,,,,,2,,,73,100
38720,note_off,,,,,128,0,11,,,,,4,,,57,100
38720,note_off,,,,,0,0,13,,,,,6,,,76,100
38720,note_off,,,,,128,0,8,,,,,1,,,76,100
38720,note_off,,,,,128,0,13,,,,,6,,,73,100
38720,note_off,,,,,128,0,14,,,,,6,,,57,100
38784,note_on,,,,,0,0,13,,,,,6,,,73,100
38784,note_on,,,,,64,0,13,,,,,6,,,64,100
38784,note_on,,,,,64,0,12,,,,,5,,,33,85
38784,note_on,,,,,64,0,11,,,,,4,,,45,85
38784,note_on,,,,,64,0,9,,,,,2,,,73,85
38784,note_on,,,,,64,0,8,,,,,1,,,76,85
38784,note_on,,,,,64,0,14,,,,,6,,,45,100
38784,note_on,,,,,64,0,10,,,,,3,,,69,85
38820,set_tempo,,,,,116,1,0,,1935483,,,,,,,
38912,note_off,,,,,128,0,14,,,,,6,,,45,100
38912,note_off,,,,,128,0,8,,,,,1,,,76,100
38912,note_off,,,,,128,0,13,,,,,6,,,64,100
38912,note_off,,,,,128,0,11,,,,,4,,,45,100
38912,note_off,,,,,0,0,13,,,,,6,,,73,100
38912,note_off,,,,,128,0,12,,,,,5,,,33,100
38912,note_off,,,,,128,0,10,,,,,3,,,69,100
38912,note_off,,,,,128,0,9,,,,,2,,,73,100
38936,set_tempo,,,,,116,1,0,,2000000,,,,,,,
38976,note_on,,,,,64,0,12,,,,,5,,,33,85
38976,note_on,,,,,0,0,13,,,,,6,,,73,100
38976,note_on,,,,,64,0,13,,,,,6,,,64,100
38976,note_on,,,,,64,0,11,,,,,4,,,45,85
38976,note_on,,,,,64,0,8,,,,,1,,,76,85
38976,note_on,,,,,64,0,14,,,,,6,,,45,100
38976,note_on,,,,,64,0,10,,,,,3,,,69,85
38976,note_on,,,,,64,0,9,,,,,2,,,73,85
39052,set_tempo,,,,,116,1,0,,2068965,,,,,,,
39104,note_off,,,,,128,0,9,,,,,2,,,73,100
39104,note_off,,,,,128,0,8,,,,,1,,,76,100
39104,note_off,,,,,128,0,11,,,,,4,,,45,100
39104,note_off,,,,,128,0,10,,,,,3,,,69,100
39104,note_off,,,,,128,0,13,,,,,6,,,64,100
39104,note_off,,,,,0,0,13,,,,,6,,,73,100
39104,note_off,,,,,128,0,12,,,,,5,,,33,100
39104,note_off,,,,,128,0,14,,,,,6,,,45,100
39168,set_tempo,,,,,116,1,0,,1578947,,,,,,,
39168,end_of_track,,,,,0,1,0,,,,,,,,,
39168,note_on,,,,,64,0,9,,,,,2,,,74,85
39168,note_on,,,,,64,0,8,,,,,1,,,74,85
39168,note_on,,,,,64,0,12,,,,,5,,,38,85
39168,note_on,,,,,64,0,14,,,,,6,,,50,100
39168,note_on,,,,,64,0,11,,,,,4,,,50,85
39168,note_on,,,,,64,0,10,,,,,3,,,69,85
39196,note_on,,,,,92,0,13,,,,,6,,,62,100
39228,note_on,,,,,32,0,13,,,,,6,,,66,100
39260,note_on,,,,,32,0,13,,,,,6,,,69,100
39336,note_on,,,,,76,0,13,,,,,6,,,74,100
39936,note_off,,,,,768,0,11,,,,,4,,,50,100
39936,end_of_track,,,,,0,1,8,,,,,,,,,
39936,note_off,,,,,768,0,12,,,,,5,,,38,100
39936,end_of_track,,,,,0,1,12,,,,,,,,,
39936,end_of_track,,,,,0,1,10,,,,,,,,,
39936,note_off,,,,,768,0,10,,,,,3,,,69,100
39936,end_of_track,,,,,0,1,9,,,,,,,,,
39936,note_off,,,,,768,0,9,,,,,2,,,74,100
39936,note_off,,,,,768,0,14,,,,,6,,,50,100
39936,end_of_track,,,,,0,1,14,,,,,,,,,
39936,note_off,,,,,768,0,8,,,,,1,,,74,100
39936,end_of_track,,,,,0,1,11,,,,,,,,,
39964,note_off,,,,,628,0,13,,,,,6,,,62,100
39996,note_off,,,,,32,0,13,,,,,6,,,66,100
40028,note_off,,,,,32,0,13,,,,,6,,,69,100
40104,note_off,,,,,76,0,13,,,,,6,,,74,100
40104,end_of_track,,,,,0,1,13,,,,,,,,,
40704,program_change,,,,,6016,0,7,,,,,0,40,,,
40704,end_of_track,,,,,0,1,7,,,,,,,,,
