tick,type,numerator,denominator,clocks_per_click,notated_32nd_notes_per_beat,time,meta,track,data,tempo,control,value,channel,program,note,velocity
0,time_signature,2,4,96,8,0,1,0,,,,,,,,
0,end_of_track,,,,,0,1,6,,,,,,,,
0,track_name,,,,,0,1,7,,,,,,,,
0,control_change,,,,,0,0,7,,,0,0,0,,,
0,program_change,,,,,0,0,7,,,,,0,40,,
0,control_change,,,,,0,0,7,,,7,100,0,,,
0,control_change,,,,,0,0,7,,,10,59,0,,,
0,control_change,,,,,0,0,7,,,91,63,0,,,
0,end_of_track,,,,,0,1,7,,,,,,,,
0,track_name,,,,,0,1,8,,,,,,,,
0,control_change,,,,,0,0,8,,,0,0,0,,,
0,program_change,,,,,0,0,8,,,,,0,40,,
0,control_change,,,,,0,0,8,,,7,100,0,,,
0,control_change,,,,,0,0,8,,,10,59,0,,,
0,control_change,,,,,0,0,8,,,91,63,0,,,
0,note_on,,,,,0,0,14,,,,,5,,45,100
0,control_change,,,,,0,0,6,,,91,63,0,,,
0,control_change,,,,,0,0,6,,,10,59,0,,,
0,control_change,,,,,0,0,6,,,7,100,0,,,
0,program_change,,,,,0,0,6,,,,,0,40,,
0,track_name,,,,,0,1,4,,,,,,,,
0,control_change,,,,,0,0,4,,,0,0,0,,,
0,program_change,,,,,0,0,4,,,,,0,40,,
0,control_change,,,,,0,0,4,,,7,100,0,,,
0,control_change,,,,,0,0,4,,,10,59,0,,,
0,control_change,,,,,0,0,4,,,91,63,0,,,
0,end_of_track,,,,,0,1,4,,,,,,,,
0,control_change,,,,,0,0,14,,,91,60,5,,,
0,track_name,,,,,0,1,5,,,,,,,,
0,program_change,,,,,0,0,5,,,,,0,40,,
0,control_change,,,,,0,0,5,,,7,100,0,,,
0,control_change,,,,,0,0,5,,,10,59,0,,,
0,control_change,,,,,0,0,5,,,91,63,0,,,
0,end_of_track,,,,,0,1,5,,,,,,,,
0,track_name,,,,,0,1,6,,,,,,,,
0,control_change,,,,,0,0,6,,,0,0,0,,,
0,control_change,,,,,0,0,5,,,0,0,0,,,
0,end_of_track,,,,,0,1,3,,,,,,,,
0,control_change,,,,,0,0,14,,,10,73,5,,,
0,program_change,,,,,0,0,14,,,,,5,6,,
0,control_change,,,,,0,0,11,,,10,84,3,,,
0,control_change,,,,,0,0,11,,,7,82,3,,,
0,program_change,,,,,0,0,11,,,,,3,48,,
0,control_change,,,,,0,0,11,,,0,0,3,,,
0,track_name,,,,,0,1,11,,,,,,,,
0,note_on,,,,,0,0,10,,,,,2,,60,100
0,control_change,,,,,0,0,10,,,91,66,2,,,
0,control_change,,,,,0,0,10,,,7,95,2,,,
0,program_change,,,,,0,0,10,,,,,2,48,,
0,control_change,,,,,0,0,10,,,0,0,2,,,
0,track_name,,,,,0,1,10,,,,,,,,
0,control_change,,,,,0,0,9,,,91,67,1,,,
0,control_change,,,,,0,0,9,,,10,45,1,,,
0,control_change,,,,,0,0,9,,,7,100,1,,,
0,program_change,,,,,0,0,9,,,,,1,48,,
0,control_change,,,,,0,0,11,,,91,66,3,,,
0,note_on,,,,,0,0,11,,,,,3,,45,100
0,track_name,,,,,0,1,12,,,,,,,,
0,control_change,,,,,0,0,12,,,0,0,4,,,
0,control_change,,,,,0,0,14,,,0,0,5,,,
0,track_name,,,,,0,1,14,,,,,,,,
0,note_on,,,,,0,0,13,,,,,5,,64,100
0,note_on,,,,,0,0,13,,,,,5,,60,100
0,control_change,,,,,0,0,13,,,91,60,5,,,
0,control_change,,,,,0,0,13,,,10,73,5,,,
0,control_change,,,,,0,0,13,,,7,55,5,,,
0,control_change,,,,,0,0,14,,,7,55,5,,,
0,program_change,,,,,0,0,13,,,,,5,6,,
0,track_name,,,,,0,1,13,,,,,,,,
0,control_change,,,,,0,0,9,,,0,0,1,,,
0,note_on,,,,,0,0,12,,,,,4,,33,100
0,control_change,,,,,0,0,12,,,91,61,4,,,
0,control_change,,,,,0,0,12,,,10,97,4,,,
0,control_change,,,,,0,0,12,,,7,77,4,,,
0,program_change,,,,,0,0,12,,,,,4,48,,
0,control_change,,,,,0,0,13,,,0,0,5,,,
0,program_change,,,,,0,0,3,,,,,0,40,,
0,track_name,,,,,0,1,9,,,,,,,,
0,control_change,,,,,0,0,3,,,10,59,0,,,
0,control_change,,,,,0,0,3,,,91,63,0,,,
0,set_tempo,,,,,0,1,0,,500000,,,,,,
0,sequencer_specific,,,,,0,1,0,"(0, 0, 119, 14, 1)",,,,,,,
0,track_name,,,,,0,1,1,,,,,,,,
0,end_of_track,,,,,0,1,1,,,,,,,,
0,sequencer_specific,,,,,0,1,0,"(0, 0, 65)",,,,,,,
0,end_of_track,,,,,0,1,2,,,,,,,,
0,track_name,,,,,0,1,3,,,,,,,,
0,control_change,,,,,0,0,3,,,0,0,0,,,
0,control_change,,,,,0,0,3,,,7,100,0,,,
0,track_name,,,,,0,1,2,,,,,,,,
192,note_on,,,,,192,0,9,,,,,1,,76,100
256,note_off,,,,,256,0,14,,,,,5,,45,100
256,note_off,,,,,256,0,13,,,,,5,,60,100
256,note_off,,,,,0,0,13,,,,,5,,64,100
256,note_off,,,,,256,0,11,,,,,3,,45,100
256,note_off,,,,,256,0,10,,,,,2,,60,100
256,note_off,,,,,256,0,12,,,,,4,,33,100
320,note_off,,,,,128,0,9,,,,,1,,76,100
384,note_on,,,,,64,0,9,,,,,1,,81,100
512,note_off,,,,,128,0,9,,,,,1,,81,100
576,note_on,,,,,320,0,12,,,,,4,,44,100
576,note_on,,,,,320,0,10,,,,,2,,64,100
576,note_on,,,,,320,0,11,,,,,3,,44,100
576,note_on,,,,,0,0,13,,,,,5,,59,100
576,note_on,,,,,320,0,13,,,,,5,,64,100
576,note_on,,,,,64,0,9,,,,,1,,83,100
576,note_on,,,,,320,0,14,,,,,5,,44,100
704,note_off,,,,,128,0,14,,,,,5,,44,100
704,note_off,,,,,128,0,12,,,,,4,,44,100
704,note_off,,,,,128,0,11,,,,,3,,44,100
704,note_off,,,,,0,0,13,,,,,5,,59,100
704,note_off,,,,,128,0,9,,,,,1,,83,100
704,note_off,,,,,128,0,13,,,,,5,,64,100
704,note_off,,,,,128,0,10,,,,,2,,64,100
768,note_on,,,,,64,0,14,,,,,5,,45,100
768,note_on,,,,,64,0,10,,,,,2,,64,100
768,note_on,,,,,64,0,11,,,,,3,,45,100
768,note_on,,,,,64,0,9,,,,,1,,84,100
768,note_on,,,,,64,0,13,,,,,5,,60,100
768,note_on,,,,,64,0,12,,,,,4,,33,100
768,note_on,,,,,0,0,13,,,,,5,,64,100
896,note_off,,,,,128,0,14,,,,,5,,45,100
896,note_off,,,,,0,0,13,,,,,5,,64,100
896,note_off,,,,,128,0,13,,,,,5,,60,100
896,note_off,,,,,128,0,12,,,,,4,,33,100
896,note_off,,,,,128,0,10,,,,,2,,64,100
896,note_off,,,,,128,0,9,,,,,1,,84,100
896,note_off,,,,,128,0,11,,,,,3,,45,100
960,note_on,,,,,64,0,14,,,,,5,,50,100
960,note_on,,,,,0,0,13,,,,,5,,69,100
960,note_on,,,,,64,0,11,,,,,3,,50,100
960,note_on,,,,,64,0,12,,,,,4,,38,100
960,note_on,,,,,64,0,13,,,,,5,,60,100
1088,note_off,,,,,128,0,11,,,,,3,,50,100
1088,note_off,,,,,128,0,12,,,,,4,,38,100
1088,note_off,,,,,0,0,13,,,,,5,,69,100
1088,note_off,,,,,128,0,13,,,,,5,,60,100
1088,note_off,,,,,128,0,14,,,,,5,,50,100
1152,note_on,,,,,64,0,14,,,,,5,,52,100
1152,note_on,,,,,64,0,11,,,,,3,,52,100
1152,note_on,,,,,64,0,13,,,,,5,,68,100
1152,note_on,,,,,0,0,13,,,,,5,,71,100
1152,note_on,,,,,256,0,9,,,,,1,,83,100
1152,note_on,,,,,64,0,12,,,,,4,,40,100
1152,note_on,,,,,256,0,10,,,,,2,,68,100
1280,note_off,,,,,128,0,10,,,,,2,,68,100
1280,note_off,,,,,128,0,9,,,,,1,,83,100
1280,note_off,,,,,0,0,13,,,,,5,,71,100
1280,note_off,,,,,128,0,13,,,,,5,,68,100
1280,note_off,,,,,128,0,12,,,,,4,,40,100
1280,note_off,,,,,128,0,14,,,,,5,,52,100
1280,note_off,,,,,128,0,11,,,,,3,,52,100
1344,note_on,,,,,0,0,13,,,,,5,,68,100
1344,note_on,,,,,64,0,11,,,,,3,,40,100
1344,note_on,,,,,64,0,12,,,,,4,,40,100
1344,note_on,,,,,64,0,14,,,,,5,,40,100
1344,note_on,,,,,64,0,13,,,,,5,,59,100
1472,note_off,,,,,128,0,14,,,,,5,,40,100
1472,note_off,,,,,128,0,11,,,,,3,,40,100
1472,note_off,,,,,128,0,13,,,,,5,,59,100
1472,note_off,,,,,0,0,13,,,,,5,,68,100
1472,note_off,,,,,128,0,12,,,,,4,,40,100
1536,note_on,,,,,64,0,14,,,,,5,,57,100
1536,note_on,,,,,0,0,13,,,,,5,,60,100
1536,note_on,,,,,256,0,10,,,,,2,,64,100
1536,note_on,,,,,256,0,9,,,,,1,,81,100
1536,note_on,,,,,64,0,12,,,,,4,,45,100
1536,note_on,,,,,64,0,11,,,,,3,,57,100
1536,note_on,,,,,64,0,13,,,,,5,,69,100
1664,note_off,,,,,128,0,13,,,,,5,,69,100
1664,note_off,,,,,0,0,13,,,,,5,,60,100
1664,note_off,,,,,128,0,11,,,,,3,,57,100
1664,note_off,,,,,128,0,10,,,,,2,,64,100
1664,note_off,,,,,128,0,12,,,,,4,,45,100
1664,note_off,,,,,128,0,14,,,,,5,,57,100
1728,note_on,,,,,64,0,13,,,,,5,,62,100
1728,note_on,,,,,64,0,11,,,,,3,,59,100
1728,note_on,,,,,64,0,12,,,,,4,,47,100
1728,note_on,,,,,64,0,10,,,,,2,,62,100
1728,note_on,,,,,64,0,14,,,,,5,,59,100
1792,note_off,,,,,256,0,9,,,,,1,,81,100
1856,note_off,,,,,128,0,14,,,,,5,,59,100
1856,note_off,,,,,128,0,12,,,,,4,,47,100
1856,note_off,,,,,128,0,13,,,,,5,,62,100
1856,note_off,,,,,128,0,11,,,,,3,,59,100
1856,note_off,,,,,128,0,10,,,,,2,,62,100
1920,note_on,,,,,64,0,10,,,,,2,,64,100
1920,note_on,,,,,64,0,11,,,,,3,,60,100
1920,note_on,,,,,64,0,13,,,,,5,,64,100
1920,note_on,,,,,64,0,12,,,,,4,,48,100
1920,note_on,,,,,64,0,14,,,,,5,,60,100
2048,note_off,,,,,128,0,10,,,,,2,,64,100
2048,note_off,,,,,128,0,12,,,,,4,,48,100
2048,note_off,,,,,128,0,13,,,,,5,,64,100
2048,note_off,,,,,128,0,11,,,,,3,,60,100
2048,note_off,,,,,128,0,14,,,,,5,,60,100
2112,note_on,,,,,64,0,13,,,,,5,,60,100
2112,note_on,,,,,64,0,14,,,,,5,,57,100
2112,note_on,,,,,64,0,12,,,,,4,,45,100
2112,note_on,,,,,320,0,9,,,,,1,,81,100
2112,note_on,,,,,64,0,11,,,,,3,,57,100
2112,note_on,,,,,64,0,10,,,,,2,,60,100
2112,note_on,,,,,0,0,13,,,,,5,,64,100
2240,note_off,,,,,128,0,11,,,,,3,,57,100
2240,note_off,,,,,128,0,12,,,,,4,,45,100
2240,note_off,,,,,0,0,13,,,,,5,,64,100
2240,note_off,,,,,128,0,9,,,,,1,,81,100
2240,note_off,,,,,128,0,13,,,,,5,,60,100
2240,note_off,,,,,128,0,10,,,,,2,,60,100
2240,note_off,,,,,128,0,14,,,,,5,,57,100
2304,note_on,,,,,0,0,13,,,,,5,,62,100
2304,note_on,,,,,64,0,13,,,,,5,,67,100
2304,note_on,,,,,64,0,12,,,,,4,,47,100
2304,note_on,,,,,64,0,14,,,,,5,,59,100
2304,note_on,,,,,64,0,10,,,,,2,,62,100
2304,note_on,,,,,64,0,11,,,,,3,,59,100
2304,note_on,,,,,64,0,9,,,,,1,,79,100
2432,note_off,,,,,128,0,9,,,,,1,,79,100
2496,note_on,,,,,64,0,9,,,,,1,,77,98
2560,note_off,,,,,256,0,12,,,,,4,,47,100
2560,note_off,,,,,256,0,10,,,,,2,,62,100
2560,note_off,,,,,256,0,13,,,,,5,,67,100
2560,note_off,,,,,0,0,13,,,,,5,,62,100
2560,note_off,,,,,256,0,14,,,,,5,,59,100
2560,note_off,,,,,256,0,11,,,,,3,,59,100
2624,note_off,,,,,128,0,9,,,,,1,,77,100
2688,note_on,,,,,64,0,9,,,,,1,,76,96
2688,note_on,,,,,128,0,12,,,,,4,,44,96
2688,note_on,,,,,0,0,13,,,,,5,,62,100
2688,note_on,,,,,128,0,13,,,,,5,,64,100
2688,note_on,,,,,128,0,10,,,,,2,,71,96
2688,note_on,,,,,128,0,11,,,,,3,,56,96
2688,note_on,,,,,128,0,14,,,,,5,,56,100
2816,note_off,,,,,128,0,9,,,,,1,,76,100
2880,note_on,,,,,64,0,9,,,,,1,,74,94
2944,note_off,,,,,256,0,11,,,,,3,,56,100
2944,note_off,,,,,256,0,10,,,,,2,,71,100
2944,note_off,,,,,256,0,12,,,,,4,,44,100
2944,note_off,,,,,256,0,14,,,,,5,,56,100
2944,note_off,,,,,256,0,13,,,,,5,,64,100
2944,note_off,,,,,0,0,13,,,,,5,,62,100
3008,note_off,,,,,128,0,9,,,,,1,,74,100
3072,note_on,,,,,128,0,14,,,,,5,,57,100
3072,note_on,,,,,64,0,9,,,,,1,,72,92
3072,note_on,,,,,128,0,10,,,,,2,,64,92
3072,note_on,,,,,128,0,13,,,,,5,,60,100
3072,note_on,,,,,0,0,13,,,,,5,,64,100
3072,note_on,,,,,128,0,12,,,,,4,,45,92
3072,note_on,,,,,128,0,11,,,,,3,,57,92
3200,note_off,,,,,128,0,9,,,,,1,,72,100
3264,note_on,,,,,64,0,9,,,,,1,,71,90
3328,note_off,,,,,256,0,13,,,,,5,,60,100
3328,note_off,,,,,256,0,10,,,,,2,,64,100
3328,note_off,,,,,256,0,12,,,,,4,,45,100
3328,note_off,,,,,256,0,14,,,,,5,,57,100
3328,note_off,,,,,0,0,13,,,,,5,,64,100
3328,note_off,,,,,256,0,11,,,,,3,,57,100
3392,note_off,,,,,128,0,9,,,,,1,,71,100
3456,note_on,,,,,64,0,9,,,,,1,,69,88
3584,note_off,,,,,128,0,9,,,,,1,,69,100
3648,note_on,,,,,64,0,9,,,,,1,,71,86
3648,note_on,,,,,320,0,14,,,,,5,,52,100
3648,note_on,,,,,320,0,13,,,,,5,,59,100
3648,note_on,,,,,320,0,12,,,,,4,,40,86
3648,note_on,,,,,320,0,10,,,,,2,,68,86
3648,note_on,,,,,320,0,11,,,,,3,,52,86
3648,note_on,,,,,0,0,13,,,,,5,,68,100
3776,note_off,,,,,128,0,12,,,,,4,,40,100
3776,note_off,,,,,128,0,9,,,,,1,,71,100
3776,note_off,,,,,128,0,11,,,,,3,,52,100
3776,note_off,,,,,0,0,13,,,,,5,,68,100
3776,note_off,,,,,128,0,13,,,,,5,,59,100
3776,note_off,,,,,128,0,14,,,,,5,,52,100
3776,note_off,,,,,128,0,10,,,,,2,,68,100
3840,note_on,,,,,64,0,12,,,,,4,,45,84
3840,note_on,,,,,64,0,13,,,,,5,,64,100
3840,note_on,,,,,0,0,13,,,,,5,,72,100
3840,note_on,,,,,64,0,14,,,,,5,,57,100
3840,note_on,,,,,64,0,11,,,,,3,,57,84
3840,note_on,,,,,64,0,10,,,,,2,,64,84
3840,set_tempo,,,,,3840,1,0,,500000,,,,,,
3840,note_on,,,,,64,0,9,,,,,1,,72,84
3968,note_off,,,,,128,0,10,,,,,2,,64,100
3968,note_off,,,,,128,0,11,,,,,3,,57,100
3968,note_off,,,,,128,0,12,,,,,4,,45,100
3968,note_off,,,,,0,0,13,,,,,5,,72,100
3968,note_off,,,,,128,0,14,,,,,5,,57,100
3968,note_off,,,,,128,0,9,,,,,1,,72,100
3968,note_off,,,,,128,0,13,,,,,5,,64,100
4224,note_on,,,,,256,0,12,,,,,4,,41,80
4224,note_on,,,,,256,0,13,,,,,5,,62,100
4224,note_on,,,,,256,0,10,,,,,2,,69,80
4224,note_on,,,,,0,0,13,,,,,5,,69,100
4224,note_on,,,,,256,0,11,,,,,3,,53,80
4224,note_on,,,,,256,0,9,,,,,1,,74,80
4224,note_on,,,,,256,0,14,,,,,5,,53,100
4352,note_off,,,,,128,0,13,,,,,5,,62,100
4352,note_off,,,,,0,0,13,,,,,5,,69,100
4352,note_off,,,,,128,0,11,,,,,3,,53,100
4352,note_off,,,,,128,0,10,,,,,2,,69,100
4352,note_off,,,,,128,0,14,,,,,5,,53,100
4352,note_off,,,,,128,0,9,,,,,1,,74,100
4352,note_off,,,,,128,0,12,,,,,4,,41,100
4608,note_on,,,,,256,0,14,,,,,5,,52,100
4608,note_on,,,,,256,0,9,,,,,1,,76,76
4608,note_on,,,,,256,0,10,,,,,2,,68,76
4608,note_on,,,,,256,0,13,,,,,5,,71,100
4608,note_on,,,,,0,0,13,,,,,5,,68,100
4608,note_on,,,,,256,0,12,,,,,4,,40,76
4608,note_on,,,,,256,0,11,,,,,3,,52,76
4736,note_off,,,,,128,0,13,,,,,5,,71,100
4736,note_off,,,,,0,0,13,,,,,5,,68,100
4736,note_off,,,,,128,0,12,,,,,4,,40,100
4736,note_off,,,,,128,0,11,,,,,3,,52,100
4736,note_off,,,,,128,0,14,,,,,5,,52,100
4736,note_off,,,,,128,0,10,,,,,2,,68,100
4800,note_on,,,,,64,0,13,,,,,5,,69,100
4800,note_on,,,,,64,0,11,,,,,3,,54,70
4800,note_on,,,,,64,0,14,,,,,5,,54,100
4800,note_on,,,,,64,0,12,,,,,4,,42,70
4800,note_on,,,,,64,0,10,,,,,2,,69,70
4864,note_off,,,,,256,0,9,,,,,1,,76,100
4928,note_off,,,,,128,0,14,,,,,5,,54,100
4928,note_off,,,,,128,0,12,,,,,4,,42,100
4928,note_off,,,,,128,0,11,,,,,3,,54,100
4928,note_off,,,,,128,0,10,,,,,2,,69,100
4928,note_off,,,,,128,0,13,,,,,5,,69,100
4992,note_on,,,,,64,0,13,,,,,5,,71,100
4992,note_on,,,,,64,0,14,,,,,5,,56,100
4992,note_on,,,,,64,0,11,,,,,3,,56,70
4992,note_on,,,,,64,0,12,,,,,4,,44,70
4992,note_on,,,,,64,0,10,,,,,2,,71,70
5120,note_off,,,,,128,0,13,,,,,5,,71,100
5120,note_off,,,,,128,0,12,,,,,4,,44,100
5120,note_off,,,,,128,0,11,,,,,3,,56,100
5120,note_off,,,,,128,0,10,,,,,2,,71,100
5120,note_off,,,,,128,0,14,,,,,5,,56,100
5184,note_on,,,,,64,0,11,,,,,3,,52,70
5184,note_on,,,,,64,0,10,,,,,2,,68,70
5184,note_on,,,,,64,0,12,,,,,4,,40,70
5184,note_on,,,,,0,0,13,,,,,5,,71,100
5184,note_on,,,,,64,0,13,,,,,5,,68,100
5184,note_on,,,,,64,0,14,,,,,5,,52,100
5312,note_off,,,,,128,0,12,,,,,4,,40,100
5312,note_off,,,,,128,0,14,,,,,5,,52,100
5312,note_off,,,,,128,0,10,,,,,2,,68,100
5312,note_off,,,,,128,0,13,,,,,5,,68,100
5312,note_off,,,,,0,0,13,,,,,5,,71,100
5312,note_off,,,,,128,0,11,,,,,3,,52,100
5376,note_on,,,,,64,0,14,,,,,5,,57,100
5376,note_on,,,,,64,0,11,,,,,3,,57,70
5376,note_on,,,,,64,0,12,,,,,4,,45,70
5376,note_on,,,,,64,0,10,,,,,2,,64,70
5376,note_on,,,,,64,0,13,,,,,5,,69,100
5376,note_on,,,,,0,0,13,,,,,5,,72,100
5568,note_on,,,,,704,0,9,,,,,1,,76,70
5632,note_off,,,,,256,0,12,,,,,4,,45,100
5632,note_off,,,,,256,0,14,,,,,5,,57,100
5632,note_off,,,,,256,0,13,,,,,5,,69,100
5632,note_off,,,,,256,0,11,,,,,3,,57,100
5632,note_off,,,,,256,0,10,,,,,2,,64,100
5632,note_off,,,,,0,0,13,,,,,5,,72,100
5696,note_off,,,,,128,0,9,,,,,1,,76,100
5760,note_on,,,,,64,0,9,,,,,1,,81,70
5888,note_off,,,,,128,0,9,,,,,1,,81,100
5952,note_on,,,,,320,0,14,,,,,5,,56,100
5952,note_on,,,,,320,0,11,,,,,3,,56,70
5952,note_on,,,,,64,0,9,,,,,1,,83,70
5952,note_on,,,,,0,0,13,,,,,5,,59,100
5952,note_on,,,,,320,0,13,,,,,5,,64,100
5952,note_on,,,,,320,0,12,,,,,4,,44,70
5952,note_on,,,,,320,0,10,,,,,2,,64,70
6080,note_off,,,,,128,0,11,,,,,3,,56,100
6080,note_off,,,,,0,0,13,,,,,5,,59,100
6080,note_off,,,,,128,0,13,,,,,5,,64,100
6080,note_off,,,,,128,0,12,,,,,4,,44,100
6080,note_off,,,,,128,0,9,,,,,1,,83,100
6080,note_off,,,,,128,0,14,,,,,5,,56,100
6080,note_off,,,,,128,0,10,,,,,2,,64,100
6144,note_on,,,,,64,0,10,,,,,2,,64,70
6144,note_on,,,,,64,0,11,,,,,3,,57,70
6144,note_on,,,,,64,0,12,,,,,4,,45,70
6144,note_on,,,,,64,0,14,,,,,5,,57,100
6144,note_on,,,,,0,0,13,,,,,5,,64,100
6144,note_on,,,,,64,0,13,,,,,5,,60,100
6144,note_on,,,,,64,0,9,,,,,1,,84,70
6272,note_off,,,,,128,0,10,,,,,2,,64,100
6272,note_off,,,,,0,0,13,,,,,5,,64,100
6272,note_off,,,,,128,0,11,,,,,3,,57,100
6272,note_off,,,,,128,0,13,,,,,5,,60,100
6272,note_off,,,,,128,0,14,,,,,5,,57,100
6272,note_off,,,,,128,0,12,,,,,4,,45,100
6272,note_off,,,,,128,0,9,,,,,1,,84,100
6336,note_on,,,,,64,0,14,,,,,5,,50,100
6336,note_on,,,,,64,0,12,,,,,4,,38,70
6336,note_on,,,,,64,0,11,,,,,3,,50,70
6336,note_on,,,,,64,0,13,,,,,5,,60,100
6336,note_on,,,,,0,0,13,,,,,5,,69,100
6464,note_off,,,,,128,0,14,,,,,5,,50,100
6464,note_off,,,,,0,0,13,,,,,5,,69,100
6464,note_off,,,,,128,0,12,,,,,4,,38,100
6464,note_off,,,,,128,0,11,,,,,3,,50,100
6464,note_off,,,,,128,0,13,,,,,5,,60,100
6528,note_on,,,,,64,0,14,,,,,5,,52,100
6528,note_on,,,,,256,0,9,,,,,1,,83,70
6528,note_on,,,,,64,0,12,,,,,4,,40,70
6528,note_on,,,,,64,0,13,,,,,5,,68,100
6528,note_on,,,,,256,0,10,,,,,2,,68,70
6528,note_on,,,,,0,0,13,,,,,5,,71,100
6528,note_on,,,,,64,0,11,,,,,3,,52,70
6656,note_off,,,,,0,0,13,,,,,5,,71,100
6656,note_off,,,,,128,0,13,,,,,5,,68,100
6656,note_off,,,,,128,0,12,,,,,4,,40,100
6656,note_off,,,,,128,0,9,,,,,1,,83,100
6656,note_off,,,,,128,0,10,,,,,2,,68,100
6656,note_off,,,,,128,0,14,,,,,5,,52,100
6656,note_off,,,,,128,0,11,,,,,3,,52,100
6720,note_on,,,,,64,0,12,,,,,4,,40,70
6720,note_on,,,,,64,0,14,,,,,5,,40,100
6720,note_on,,,,,0,0,13,,,,,5,,68,100
6720,note_on,,,,,64,0,13,,,,,5,,59,100
6720,note_on,,,,,64,0,11,,,,,3,,40,70
6848,note_off,,,,,128,0,12,,,,,4,,40,100
6848,note_off,,,,,128,0,13,,,,,5,,59,100
6848,note_off,,,,,128,0,14,,,,,5,,40,100
6848,note_off,,,,,128,0,11,,,,,3,,40,100
6848,note_off,,,,,0,0,13,,,,,5,,68,100
6912,note_on,,,,,64,0,13,,,,,5,,69,100
6912,note_on,,,,,64,0,12,,,,,4,,45,70
6912,note_on,,,,,64,0,14,,,,,5,,57,100
6912,note_on,,,,,256,0,9,,,,,1,,81,70
6912,note_on,,,,,64,0,11,,,,,3,,57,70
6912,note_on,,,,,0,0,13,,,,,5,,60,100
6912,note_on,,,,,256,0,10,,,,,2,,64,70
7040,note_off,,,,,128,0,14,,,,,5,,57,100
7040,note_off,,,,,128,0,10,,,,,2,,64,100
7040,note_off,,,,,128,0,11,,,,,3,,57,100
7040,note_off,,,,,128,0,12,,,,,4,,45,100
7040,note_off,,,,,0,0,13,,,,,5,,60,100
7040,note_off,,,,,128,0,13,,,,,5,,69,100
7104,note_on,,,,,64,0,10,,,,,2,,62,70
7104,note_on,,,,,64,0,13,,,,,5,,62,100
7104,note_on,,,,,64,0,12,,,,,4,,47,70
7104,note_on,,,,,64,0,14,,,,,5,,59,100
7104,note_on,,,,,64,0,11,,,,,3,,59,70
7168,note_off,,,,,256,0,9,,,,,1,,81,100
7232,note_off,,,,,128,0,12,,,,,4,,47,100
7232,note_off,,,,,128,0,14,,,,,5,,59,100
7232,note_off,,,,,128,0,10,,,,,2,,62,100
7232,note_off,,,,,128,0,13,,,,,5,,62,100
7232,note_off,,,,,128,0,11,,,,,3,,59,100
7296,note_on,,,,,64,0,14,,,,,5,,60,100
7296,note_on,,,,,64,0,10,,,,,2,,64,70
7296,note_on,,,,,64,0,13,,,,,5,,64,100
7296,note_on,,,,,64,0,11,,,,,3,,60,70
7296,note_on,,,,,64,0,12,,,,,4,,48,70
7424,note_off,,,,,128,0,11,,,,,3,,60,100
7424,note_off,,,,,128,0,12,,,,,4,,48,100
7424,note_off,,,,,128,0,14,,,,,5,,60,100
7424,note_off,,,,,128,0,10,,,,,2,,64,100
7424,note_off,,,,,128,0,13,,,,,5,,64,100
7488,note_on,,,,,64,0,10,,,,,2,,60,70
7488,note_on,,,,,320,0,9,,,,,1,,81,70
7488,note_on,,,,,64,0,14,,,,,5,,57,100
7488,note_on,,,,,64,0,13,,,,,5,,60,100
7488,note_on,,,,,0,0,13,,,,,5,,64,100
7488,note_on,,,,,64,0,12,,,,,4,,45,70
7488,note_on,,,,,64,0,11,,,,,3,,57,70
7616,note_off,,,,,128,0,13,,,,,5,,60,100
7616,note_off,,,,,0,0,13,,,,,5,,64,100
7616,note_off,,,,,128,0,14,,,,,5,,57,100
7616,note_off,,,,,128,0,12,,,,,4,,45,100
7616,note_off,,,,,128,0,9,,,,,1,,81,100
7616,note_off,,,,,128,0,10,,,,,2,,60,100
7616,note_off,,,,,128,0,11,,,,,3,,57,100
7680,note_on,,,,,64,0,9,,,,,1,,79,70
7680,note_on,,,,,64,0,10,,,,,2,,62,70
7680,note_on,,,,,64,0,12,,,,,4,,47,70
7680,note_on,,,,,0,0,13,,,,,5,,62,100
7680,note_on,,,,,64,0,13,,,,,5,,67,100
7680,note_on,,,,,64,0,11,,,,,3,,59,70
7680,note_on,,,,,64,0,14,,,,,5,,59,100
7808,note_off,,,,,128,0,9,,,,,1,,79,100
7872,note_on,,,,,64,0,9,,,,,1,,77,70
7936,note_off,,,,,0,0,13,,,,,5,,62,100
7936,note_off,,,,,256,0,10,,,,,2,,62,100
7936,note_off,,,,,256,0,12,,,,,4,,47,100
7936,note_off,,,,,256,0,11,,,,,3,,59,100
7936,note_off,,,,,256,0,13,,,,,5,,67,100
7936,note_off,,,,,256,0,14,,,,,5,,59,100
8000,note_off,,,,,128,0,9,,,,,1,,77,100
8064,note_on,,,,,128,0,11,,,,,3,,56,70
8064,note_on,,,,,64,0,9,,,,,1,,76,70
8064,note_on,,,,,128,0,13,,,,,5,,64,100
8064,note_on,,,,,0,0,13,,,,,5,,62,100
8064,note_on,,,,,128,0,14,,,,,5,,56,100
8064,note_on,,,,,128,0,10,,,,,2,,71,70
8064,note_on,,,,,128,0,12,,,,,4,,44,70
8192,note_off,,,,,128,0,9,,,,,1,,76,100
8256,note_on,,,,,64,0,9,,,,,1,,74,70
8320,note_off,,,,,256,0,10,,,,,2,,71,100
8320,note_off,,,,,256,0,14,,,,,5,,56,100
8320,note_off,,,,,256,0,11,,,,,3,,56,100
8320,note_off,,,,,0,0,13,,,,,5,,62,100
8320,note_off,,,,,256,0,13,,,,,5,,64,100
8320,note_off,,,,,256,0,12,,,,,4,,44,100
8384,note_off,,,,,128,0,9,,,,,1,,74,100
8448,note_on,,,,,0,0,13,,,,,5,,64,100
8448,note_on,,,,,128,0,13,,,,,5,,60,100
8448,note_on,,,,,128,0,12,,,,,4,,45,70
8448,note_on,,,,,128,0,14,,,,,5,,57,100
8448,note_on,,,,,64,0,9,,,,,1,,72,70
8448,note_on,,,,,128,0,10,,,,,2,,64,70
8448,note_on,,,,,128,0,11,,,,,3,,57,70
8576,note_off,,,,,128,0,9,,,,,1,,72,100
8640,note_on,,,,,64,0,9,,,,,1,,71,70
8704,note_off,,,,,256,0,14,,,,,5,,57,100
8704,note_off,,,,,0,0,13,,,,,5,,64,100
8704,note_off,,,,,256,0,11,,,,,3,,57,100
8704,note_off,,,,,256,0,13,,,,,5,,60,100
8704,note_off,,,,,256,0,12,,,,,4,,45,100
8704,note_off,,,,,256,0,10,,,,,2,,64,100
8768,note_off,,,,,128,0,9,,,,,1,,71,100
8832,note_on,,,,,64,0,9,,,,,1,,69,70
8960,note_off,,,,,128,0,9,,,,,1,,69,100
9024,note_on,,,,,320,0,14,,,,,5,,52,100
9024,note_on,,,,,320,0,11,,,,,3,,52,70
9024,note_on,,,,,320,0,10,,,,,2,,68,70
9024,note_on,,,,,320,0,12,,,,,4,,40,70
9024,note_on,,,,,0,0,13,,,,,5,,68,100
9024,note_on,,,,,320,0,13,,,,,5,,59,100
9024,note_on,,,,,64,0,9,,,,,1,,71,70
9152,note_off,,,,,128,0,9,,,,,1,,71,100
9152,note_off,,,,,128,0,12,,,,,4,,40,100
9152,note_off,,,,,128,0,10,,,,,2,,68,100
9152,note_off,,,,,128,0,13,,,,,5,,59,100
9152,note_off,,,,,0,0,13,,,,,5,,68,100
9152,note_off,,,,,128,0,14,,,,,5,,52,100
9152,note_off,,,,,128,0,11,,,,,3,,52,100
9216,note_on,,,,,64,0,9,,,,,1,,72,70
9216,note_on,,,,,64,0,13,,,,,5,,64,100
9216,note_on,,,,,64,0,12,,,,,4,,45,70
9216,note_on,,,,,0,0,13,,,,,5,,72,100
9216,note_on,,,,,64,0,14,,,,,5,,57,100
9216,note_on,,,,,64,0,11,,,,,3,,57,70
9216,note_on,,,,,64,0,10,,,,,2,,64,70
9344,note_off,,,,,128,0,11,,,,,3,,57,100
9344,note_off,,,,,128,0,10,,,,,2,,64,100
9344,note_off,,,,,128,0,14,,,,,5,,57,100
9344,note_off,,,,,0,0,13,,,,,5,,72,100
9344,note_off,,,,,128,0,9,,,,,1,,72,100
9344,note_off,,,,,128,0,12,,,,,4,,45,100
9344,note_off,,,,,128,0,13,,,,,5,,64,100
9600,note_on,,,,,0,0,13,,,,,5,,69,100
9600,note_on,,,,,256,0,11,,,,,3,,53,70
9600,note_on,,,,,256,0,12,,,,,4,,41,70
9600,note_on,,,,,256,0,13,,,,,5,,62,100
9600,note_on,,,,,256,0,14,,,,,5,,53,100
9600,note_on,,,,,256,0,9,,,,,1,,74,70
9600,note_on,,,,,256,0,10,,,,,2,,69,70
9728,note_off,,,,,128,0,10,,,,,2,,69,100
9728,note_off,,,,,0,0,13,,,,,5,,69,100
9728,note_off,,,,,128,0,9,,,,,1,,74,100
9728,note_off,,,,,128,0,12,,,,,4,,41,100
9728,note_off,,,,,128,0,14,,,,,5,,53,100
9728,note_off,,,,,128,0,11,,,,,3,,53,100
9728,note_off,,,,,128,0,13,,,,,5,,62,100
9984,note_on,,,,,0,0,13,,,,,5,,68,100
9984,note_on,,,,,256,0,9,,,,,1,,76,70
9984,note_on,,,,,256,0,13,,,,,5,,71,100
9984,note_on,,,,,256,0,10,,,,,2,,68,85
9984,note_on,,,,,256,0,14,,,,,5,,52,100
9984,note_on,,,,,256,0,12,,,,,4,,40,85
9984,note_on,,,,,256,0,11,,,,,3,,52,85
10112,note_off,,,,,128,0,14,,,,,5,,52,100
10112,note_off,,,,,128,0,10,,,,,2,,68,100
10112,note_off,,,,,128,0,11,,,,,3,,52,100
10112,note_off,,,,,128,0,12,,,,,4,,40,100
10112,note_off,,,,,128,0,13,,,,,5,,71,100
10112,note_off,,,,,0,0,13,,,,,5,,68,100
10176,note_on,,,,,64,0,14,,,,,5,,54,100
10176,note_on,,,,,64,0,10,,,,,2,,69,85
10176,note_on,,,,,64,0,11,,,,,3,,54,85
10176,note_on,,,,,64,0,12,,,,,4,,42,85
10176,note_on,,,,,64,0,13,,,,,5,,69,100
10240,note_off,,,,,256,0,9,,,,,1,,76,100
10304,note_off,,,,,128,0,13,,,,,5,,69,100
10304,note_off,,,,,128,0,12,,,,,4,,42,100
10304,note_off,,,,,128,0,10,,,,,2,,69,100
10304,note_off,,,,,128,0,11,,,,,3,,54,100
10304,note_off,,,,,128,0,14,,,,,5,,54,100
10368,note_on,,,,,64,0,14,,,,,5,,56,100
10368,note_on,,,,,64,0,12,,,,,4,,44,85
10368,note_on,,,,,64,0,13,,,,,5,,71,100
10368,note_on,,,,,64,0,10,,,,,2,,71,85
10368,note_on,,,,,64,0,11,,,,,3,,56,85
10496,note_off,,,,,128,0,13,,,,,5,,71,100
10496,note_off,,,,,128,0,10,,,,,2,,71,100
10496,note_off,,,,,128,0,14,,,,,5,,56,100
10496,note_off,,,,,128,0,11,,,,,3,,56,100
10496,note_off,,,,,128,0,12,,,,,4,,44,100
10560,note_on,,,,,64,0,13,,,,,5,,68,100
10560,note_on,,,,,64,0,10,,,,,2,,68,85
10560,note_on,,,,,64,0,14,,,,,5,,52,100
10560,note_on,,,,,0,0,13,,,,,5,,71,100
10560,note_on,,,,,64,0,11,,,,,3,,52,85
10560,note_on,,,,,64,0,12,,,,,4,,40,85
10560,note_on,,,,,320,0,9,,,,,1,,76,85
10688,note_off,,,,,128,0,10,,,,,2,,68,100
10688,note_off,,,,,128,0,9,,,,,1,,76,100
10688,note_off,,,,,128,0,11,,,,,3,,52,100
10688,note_off,,,,,128,0,14,,,,,5,,52,100
10688,note_off,,,,,128,0,13,,,,,5,,68,100
10688,note_off,,,,,128,0,12,,,,,4,,40,100
10688,note_off,,,,,0,0,13,,,,,5,,71,100
10752,note_on,,,,,64,0,9,,,,,1,,84,85
10752,note_on,,,,,64,0,13,,,,,5,,69,100
10752,note_on,,,,,0,0,13,,,,,5,,72,100
10752,note_on,,,,,64,0,14,,,,,5,,57,100
10752,note_on,,,,,64,0,11,,,,,3,,57,85
10752,note_on,,,,,64,0,12,,,,,4,,45,85
10752,note_on,,,,,64,0,10,,,,,2,,64,85
10880,note_off,,,,,128,0,12,,,,,4,,45,100
10880,note_off,,,,,128,0,9,,,,,1,,84,100
10880,note_off,,,,,128,0,11,,,,,3,,57,100
10880,note_off,,,,,128,0,14,,,,,5,,57,100
10880,note_off,,,,,0,0,13,,,,,5,,72,100
10880,note_off,,,,,128,0,13,,,,,5,,69,100
10944,note_on,,,,,0,0,13,,,,,5,,64,100
10944,note_on,,,,,64,0,12,,,,,4,,33,85
10944,note_on,,,,,64,0,14,,,,,5,,45,100
10944,note_on,,,,,64,0,13,,,,,5,,72,100
10944,note_on,,,,,64,0,11,,,,,3,,45,85
10944,note_on,,,,,64,0,9,,,,,1,,84,85
11008,note_off,,,,,256,0,10,,,,,2,,64,100
11072,note_off,,,,,128,0,11,,,,,3,,45,100
11072,note_off,,,,,128,0,14,,,,,5,,45,100
11072,note_off,,,,,128,0,9,,,,,1,,84,100
11072,note_off,,,,,128,0,12,,,,,4,,33,100
11072,note_off,,,,,0,0,13,,,,,5,,64,100
11072,note_off,,,,,128,0,13,,,,,5,,72,100
11136,note_on,,,,,64,0,9,,,,,1,,84,85
11264,note_off,,,,,128,0,9,,,,,1,,84,100
11328,note_on,,,,,256,0,14,,,,,5,,57,100
11328,note_on,,,,,320,0,10,,,,,2,,69,85
11328,note_on,,,,,256,0,13,,,,,5,,64,100
11328,note_on,,,,,256,0,11,,,,,3,,57,85
11328,note_on,,,,,64,0,9,,,,,1,,84,85
11328,note_on,,,,,0,0,13,,,,,5,,72,100
11328,note_on,,,,,256,0,12,,,,,4,,45,85
11456,note_off,,,,,128,0,13,,,,,5,,64,100
11456,note_off,,,,,0,0,13,,,,,5,,72,100
11456,note_off,,,,,128,0,10,,,,,2,,69,100
11456,note_off,,,,,128,0,14,,,,,5,,57,100
11456,note_off,,,,,128,0,9,,,,,1,,84,100
11456,note_off,,,,,128,0,11,,,,,3,,57,100
11456,note_off,,,,,128,0,12,,,,,4,,45,100
11520,note_on,,,,,64,0,12,,,,,4,,50,85
11520,note_on,,,,,0,0,13,,,,,5,,72,100
11520,note_on,,,,,64,0,9,,,,,1,,84,85
11520,note_on,,,,,64,0,11,,,,,3,,62,85
11520,note_on,,,,,64,0,14,,,,,5,,62,100
11520,note_on,,,,,64,0,13,,,,,5,,69,100
11520,note_on,,,,,64,0,10,,,,,2,,69,85
11584,note_off,,,,,64,0,9,,,,,1,,84,100
11616,note_on,,,,,32,0,9,,,,,1,,74,85
11648,note_off,,,,,128,0,10,,,,,2,,69,100
11648,note_off,,,,,128,0,13,,,,,5,,69,100
11648,note_off,,,,,128,0,12,,,,,4,,50,100
11648,note_off,,,,,128,0,14,,,,,5,,62,100
11648,note_off,,,,,128,0,11,,,,,3,,62,100
11648,note_off,,,,,0,0,13,,,,,5,,72,100
11680,note_off,,,,,64,0,9,,,,,1,,74,100
11712,note_on,,,,,64,0,12,,,,,4,,50,85
11712,note_on,,,,,64,0,13,,,,,5,,69,100
11712,note_on,,,,,64,0,14,,,,,5,,62,100
11712,note_on,,,,,0,0,13,,,,,5,,72,100
11712,note_on,,,,,32,0,9,,,,,1,,74,85
11712,note_on,,,,,64,0,10,,,,,2,,69,85
11712,note_on,,,,,64,0,11,,,,,3,,62,85
11776,note_off,,,,,64,0,9,,,,,1,,74,100
11808,note_on,,,,,32,0,9,,,,,1,,84,85
11840,note_off,,,,,128,0,10,,,,,2,,69,100
11840,note_off,,,,,128,0,11,,,,,3,,62,100
11840,note_off,,,,,128,0,13,,,,,5,,69,100
11840,note_off,,,,,0,0,13,,,,,5,,72,100
11840,note_off,,,,,128,0,12,,,,,4,,50,100
11840,note_off,,,,,128,0,14,,,,,5,,62,100
11872,note_off,,,,,64,0,9,,,,,1,,84,100
11904,note_on,,,,,64,0,11,,,,,3,,62,85
11904,note_on,,,,,64,0,14,,,,,5,,62,100
11904,note_on,,,,,64,0,10,,,,,2,,65,85
11904,note_on,,,,,64,0,12,,,,,4,,50,85
11904,note_on,,,,,0,0,13,,,,,5,,72,100
11904,note_on,,,,,64,0,13,,,,,5,,69,100
11904,note_on,,,,,32,0,9,,,,,1,,84,85
11968,note_off,,,,,64,0,9,,,,,1,,84,100
12000,note_on,,,,,32,0,9,,,,,1,,74,85
12032,note_off,,,,,128,0,13,,,,,5,,69,100
12032,note_off,,,,,128,0,12,,,,,4,,50,100
12032,note_off,,,,,128,0,11,,,,,3,,62,100
12032,note_off,,,,,0,0,13,,,,,5,,72,100
12032,note_off,,,,,128,0,14,,,,,5,,62,100
12032,note_off,,,,,128,0,10,,,,,2,,65,100
12064,note_off,,,,,64,0,9,,,,,1,,74,100
12096,note_on,,,,,64,0,10,,,,,2,,65,85
12096,note_on,,,,,64,0,13,,,,,5,,69,100
12096,note_on,,,,,32,0,9,,,,,1,,74,85
12096,note_on,,,,,64,0,14,,,,,5,,62,100
12096,note_on,,,,,0,0,13,,,,,5,,72,100
12096,note_on,,,,,64,0,12,,,,,4,,50,85
12096,note_on,,,,,64,0,11,,,,,3,,62,85
12160,note_off,,,,,64,0,9,,,,,1,,74,100
12192,note_on,,,,,32,0,9,,,,,1,,84,85
12224,note_off,,,,,128,0,13,,,,,5,,69,100
12224,note_off,,,,,0,0,13,,,,,5,,72,100
12224,note_off,,,,,128,0,12,,,,,4,,50,100
12224,note_off,,,,,128,0,10,,,,,2,,65,100
12224,note_off,,,,,128,0,11,,,,,3,,62,100
12224,note_off,,,,,128,0,14,,,,,5,,62,100
12256,note_off,,,,,64,0,9,,,,,1,,84,100
12288,note_on,,,,,64,0,10,,,,,2,,65,85
12288,note_on,,,,,64,0,11,,,,,3,,55,85
12288,note_on,,,,,0,0,13,,,,,5,,65,100
12288,note_on,,,,,64,0,13,,,,,5,,71,100
12288,note_on,,,,,32,0,9,,,,,1,,83,85
12288,note_on,,,,,64,0,14,,,,,5,,55,100
12288,note_on,,,,,64,0,12,,,,,4,,43,85
12352,note_off,,,,,64,0,10,,,,,2,,65,100
12384,note_on,,,,,32,0,10,,,,,2,,55,85
12416,note_off,,,,,128,0,13,,,,,5,,71,100
12416,note_off,,,,,0,0,13,,,,,5,,65,100
12416,note_off,,,,,128,0,14,,,,,5,,55,100
12416,note_off,,,,,128,0,12,,,,,4,,43,100
12416,note_off,,,,,128,0,11,,,,,3,,55,100
12416,note_off,,,,,128,0,9,,,,,1,,83,100
12448,note_off,,,,,64,0,10,,,,,2,,55,100
12480,note_on,,,,,64,0,11,,,,,3,,43,85
12480,note_on,,,,,64,0,9,,,,,1,,83,85
12480,note_on,,,,,64,0,14,,,,,5,,43,100
12480,note_on,,,,,0,0,13,,,,,5,,65,100
12480,note_on,,,,,64,0,13,,,,,5,,62,100
12480,note_on,,,,,32,0,10,,,,,2,,55,85
12480,note_on,,,,,64,0,12,,,,,4,,43,85
12544,note_off,,,,,64,0,10,,,,,2,,55,100
12576,note_on,,,,,32,0,10,,,,,2,,65,85
12608,note_off,,,,,128,0,9,,,,,1,,83,100
12608,note_off,,,,,128,0,13,,,,,5,,62,100
12608,note_off,,,,,0,0,13,,,,,5,,65,100
12608,note_off,,,,,128,0,12,,,,,4,,43,100
12608,note_off,,,,,128,0,14,,,,,5,,43,100
12608,note_off,,,,,128,0,11,,,,,3,,43,100
12640,note_off,,,,,64,0,10,,,,,2,,65,100
12672,note_on,,,,,64,0,9,,,,,1,,83,85
12672,note_on,,,,,32,0,10,,,,,2,,65,85
12736,note_off,,,,,64,0,10,,,,,2,,65,100
12768,note_on,,,,,32,0,10,,,,,2,,55,85
12800,note_off,,,,,128,0,9,,,,,1,,83,100
12832,note_off,,,,,64,0,10,,,,,2,,55,100
12864,note_on,,,,,256,0,13,,,,,5,,62,100
12864,note_on,,,,,0,0,13,,,,,5,,71,100
12864,note_on,,,,,256,0,14,,,,,5,,55,100
12864,note_on,,,,,32,0,10,,,,,2,,55,85
12864,note_on,,,,,256,0,12,,,,,4,,43,85
12864,note_on,,,,,256,0,11,,,,,3,,55,85
12864,note_on,,,,,64,0,9,,,,,1,,83,85
12928,note_off,,,,,64,0,10,,,,,2,,55,100
12960,note_on,,,,,32,0,10,,,,,2,,65,85
12992,note_off,,,,,128,0,13,,,,,5,,62,100
12992,note_off,,,,,128,0,11,,,,,3,,55,100
12992,note_off,,,,,128,0,12,,,,,4,,43,100
12992,note_off,,,,,0,0,13,,,,,5,,71,100
12992,note_off,,,,,128,0,14,,,,,5,,55,100
12992,note_off,,,,,128,0,9,,,,,1,,83,100
13024,note_off,,,,,64,0,10,,,,,2,,65,100
13056,note_on,,,,,32,0,10,,,,,2,,64,85
13056,note_on,,,,,64,0,11,,,,,3,,60,85
13056,note_on,,,,,0,0,13,,,,,5,,71,100
13056,note_on,,,,,64,0,13,,,,,5,,67,100
13056,note_on,,,,,64,0,9,,,,,1,,83,85
13056,note_on,,,,,64,0,12,,,,,4,,48,85
13056,note_on,,,,,64,0,14,,,,,5,,60,100
13120,note_off,,,,,64,0,9,,,,,1,,83,100
13152,note_on,,,,,32,0,9,,,,,1,,72,85
13184,note_off,,,,,128,0,10,,,,,2,,64,100
13184,note_off,,,,,128,0,11,,,,,3,,60,100
13184,note_off,,,,,128,0,13,,,,,5,,67,100
13184,note_off,,,,,0,0,13,,,,,5,,71,100
13184,note_off,,,,,128,0,12,,,,,4,,48,100
13184,note_off,,,,,128,0,14,,,,,5,,60,100
13216,note_off,,,,,64,0,9,,,,,1,,72,100
13248,note_on,,,,,64,0,13,,,,,5,,67,100
13248,note_on,,,,,64,0,11,,,,,3,,60,85
13248,note_on,,,,,64,0,10,,,,,2,,64,85
13248,note_on,,,,,64,0,12,,,,,4,,48,85
13248,note_on,,,,,32,0,9,,,,,1,,72,85
13248,note_on,,,,,0,0,13,,,,,5,,71,100
13248,note_on,,,,,64,0,14,,,,,5,,60,100
13312,note_off,,,,,64,0,9,,,,,1,,72,100
13344,note_on,,,,,32,0,9,,,,,1,,83,85
13376,note_off,,,,,128,0,10,,,,,2,,64,100
13376,note_off,,,,,128,0,12,,,,,4,,48,100
13376,note_off,,,,,128,0,13,,,,,5,,67,100
13376,note_off,,,,,0,0,13,,,,,5,,71,100
13376,note_off,,,,,128,0,14,,,,,5,,60,100
13376,note_off,,,,,128,0,11,,,,,3,,60,100
13408,note_off,,,,,64,0,9,,,,,1,,83,100
13440,note_on,,,,,64,0,14,,,,,5,,60,100
13440,note_on,,,,,64,0,10,,,,,2,,64,85
13440,note_on,,,,,64,0,13,,,,,5,,67,100
13440,note_on,,,,,0,0,13,,,,,5,,71,100
13440,note_on,,,,,32,0,9,,,,,1,,83,85
13440,note_on,,,,,64,0,12,,,,,4,,48,85
13440,note_on,,,,,64,0,11,,,,,3,,60,85
13504,note_off,,,,,64,0,9,,,,,1,,83,100
13536,note_on,,,,,32,0,9,,,,,1,,72,85
13568,note_off,,,,,128,0,13,,,,,5,,67,100
13568,note_off,,,,,128,0,14,,,,,5,,60,100
13568,note_off,,,,,128,0,11,,,,,3,,60,100
13568,note_off,,,,,128,0,12,,,,,4,,48,100
13568,note_off,,,,,0,0,13,,,,,5,,71,100
13568,note_off,,,,,128,0,10,,,,,2,,64,100
13600,note_off,,,,,64,0,9,,,,,1,,72,100
13632,note_on,,,,,64,0,10,,,,,2,,64,85
13632,note_on,,,,,32,0,9,,,,,1,,72,85
13632,note_on,,,,,64,0,14,,,,,5,,60,100
13632,note_on,,,,,64,0,12,,,,,4,,48,85
13632,note_on,,,,,64,0,13,,,,,5,,67,100
13632,note_on,,,,,64,0,11,,,,,3,,60,85
13632,note_on,,,,,0,0,13,,,,,5,,71,100
13696,note_off,,,,,64,0,9,,,,,1,,72,100
13728,note_on,,,,,32,0,9,,,,,1,,83,85
13760,note_off,,,,,128,0,11,,,,,3,,60,100
13760,note_off,,,,,128,0,13,,,,,5,,67,100
13760,note_off,,,,,128,0,14,,,,,5,,60,100
13760,note_off,,,,,0,0,13,,,,,5,,71,100
13760,note_off,,,,,128,0,10,,,,,2,,64,100
13760,note_off,,,,,128,0,12,,,,,4,,48,100
13792,note_off,,,,,64,0,9,,,,,1,,83,100
13824,note_on,,,,,64,0,11,,,,,3,,53,85
13824,note_on,,,,,32,0,9,,,,,1,,81,85
13824,note_on,,,,,64,0,13,,,,,5,,69,100
13824,note_on,,,,,64,0,10,,,,,2,,64,85
13824,note_on,,,,,64,0,14,,,,,5,,53,100
13824,note_on,,,,,64,0,12,,,,,4,,41,85
13824,note_on,,,,,0,0,13,,,,,5,,64,100
13888,note_off,,,,,64,0,10,,,,,2,,64,100
13920,note_on,,,,,32,0,10,,,,,2,,53,85
13952,note_off,,,,,128,0,12,,,,,4,,41,100
13952,note_off,,,,,128,0,9,,,,,1,,81,100
13952,note_off,,,,,128,0,13,,,,,5,,69,100
13952,note_off,,,,,0,0,13,,,,,5,,64,100
13952,note_off,,,,,128,0,11,,,,,3,,53,100
13952,note_off,,,,,128,0,14,,,,,5,,53,100
13984,note_off,,,,,64,0,10,,,,,2,,53,100
14016,note_on,,,,,32,0,10,,,,,2,,53,85
14016,note_on,,,,,64,0,12,,,,,4,,41,85
14016,note_on,,,,,64,0,9,,,,,1,,81,85
14016,note_on,,,,,64,0,13,,,,,5,,60,100
14016,note_on,,,,,0,0,13,,,,,5,,64,100
14016,note_on,,,,,64,0,11,,,,,3,,41,85
14016,note_on,,,,,64,0,14,,,,,5,,41,100
14080,note_off,,,,,64,0,10,,,,,2,,53,100
14112,note_on,,,,,32,0,10,,,,,2,,64,85
14144,note_off,,,,,128,0,9,,,,,1,,81,100
14144,note_off,,,,,128,0,11,,,,,3,,41,100
14144,note_off,,,,,128,0,14,,,,,5,,41,100
14144,note_off,,,,,128,0,12,,,,,4,,41,100
14144,note_off,,,,,0,0,13,,,,,5,,64,100
14144,note_off,,,,,128,0,13,,,,,5,,60,100
14176,note_off,,,,,64,0,10,,,,,2,,64,100
14208,note_on,,,,,32,0,10,,,,,2,,62,85
14208,note_on,,,,,64,0,9,,,,,1,,81,85
14272,note_off,,,,,64,0,10,,,,,2,,62,100
14304,note_on,,,,,32,0,10,,,,,2,,53,85
14336,note_off,,,,,128,0,9,,,,,1,,81,100
14368,note_off,,,,,64,0,10,,,,,2,,53,100
14400,note_on,,,,,32,0,10,,,,,2,,53,85
14400,note_on,,,,,0,0,13,,,,,5,,69,100
14400,note_on,,,,,256,0,14,,,,,5,,53,100
14400,note_on,,,,,256,0,11,,,,,3,,53,85
14400,note_on,,,,,64,0,9,,,,,1,,81,85
14400,note_on,,,,,256,0,13,,,,,5,,62,100
14400,note_on,,,,,256,0,12,,,,,4,,41,85
14464,note_off,,,,,64,0,10,,,,,2,,53,100
14496,note_on,,,,,32,0,10,,,,,2,,69,85
14528,note_off,,,,,128,0,11,,,,,3,,53,100
14528,note_off,,,,,0,0,13,,,,,5,,69,100
14528,note_off,,,,,128,0,13,,,,,5,,62,100
14528,note_off,,,,,128,0,14,,,,,5,,53,100
14528,note_off,,,,,128,0,9,,,,,1,,81,100
14528,note_off,,,,,128,0,12,,,,,4,,41,100
14560,note_off,,,,,64,0,10,,,,,2,,69,100
14592,note_on,,,,,64,0,13,,,,,5,,64,100
14592,note_on,,,,,64,0,12,,,,,4,,40,85
14592,note_on,,,,,64,0,11,,,,,3,,52,85
14592,note_on,,,,,64,0,9,,,,,1,,80,85
14592,note_on,,,,,64,0,14,,,,,5,,52,100
14592,note_on,,,,,32,0,10,,,,,2,,71,85
14592,note_on,,,,,0,0,13,,,,,5,,68,100
14720,note_off,,,,,0,0,13,,,,,5,,68,100
14720,note_off,,,,,128,0,13,,,,,5,,64,100
14720,note_off,,,,,128,0,14,,,,,5,,52,100
14720,note_off,,,,,128,0,9,,,,,1,,80,100
14720,note_off,,,,,128,0,11,,,,,3,,52,100
14720,note_off,,,,,128,0,12,,,,,4,,40,100
14720,note_off,,,,,128,0,10,,,,,2,,71,100
14784,note_on,,,,,64,0,13,,,,,5,,64,100
14784,note_on,,,,,0,0,13,,,,,5,,68,100
14784,note_on,,,,,64,0,11,,,,,3,,52,85
14784,note_on,,,,,64,0,9,,,,,1,,78,85
14784,note_on,,,,,64,0,12,,,,,4,,40,85
14784,note_on,,,,,64,0,14,,,,,5,,52,100
14784,note_on,,,,,64,0,10,,,,,2,,69,85
14848,note_off,,,,,64,0,9,,,,,1,,78,100
14848,note_off,,,,,64,0,10,,,,,2,,69,100
14880,note_on,,,,,32,0,10,,,,,2,,71,85
14880,note_on,,,,,32,0,9,,,,,1,,80,85
14912,note_off,,,,,128,0,12,,,,,4,,40,100
14912,note_off,,,,,128,0,14,,,,,5,,52,100
14912,note_off,,,,,128,0,13,,,,,5,,64,100
14912,note_off,,,,,0,0,13,,,,,5,,68,100
14912,note_off,,,,,128,0,11,,,,,3,,52,100
14944,note_off,,,,,64,0,10,,,,,2,,71,100
14944,note_off,,,,,64,0,9,,,,,1,,80,100
14976,note_on,,,,,0,0,13,,,,,5,,64,100
14976,note_on,,,,,64,0,13,,,,,5,,69,100
14976,note_on,,,,,64,0,11,,,,,3,,45,85
14976,note_on,,,,,64,0,12,,,,,4,,33,85
14976,note_on,,,,,32,0,10,,,,,2,,72,85
14976,note_on,,,,,64,0,14,,,,,5,,45,100
14976,note_on,,,,,32,0,9,,,,,1,,81,85
14976,note_on,,,,,0,0,13,,,,,5,,60,100
15104,note_off,,,,,128,0,11,,,,,3,,45,100
15104,note_off,,,,,128,0,12,,,,,4,,33,100
15104,note_off,,,,,128,0,10,,,,,2,,72,100
15104,note_off,,,,,128,0,9,,,,,1,,81,100
15104,note_off,,,,,128,0,13,,,,,5,,69,100
15104,note_off,,,,,0,0,13,,,,,5,,64,100
15104,note_off,,,,,128,0,14,,,,,5,,45,100
15104,note_off,,,,,0,0,13,,,,,5,,60,100
15168,note_on,,,,,64,0,9,,,,,1,,83,85
15168,note_on,,,,,64,0,11,,,,,3,,45,85
15168,note_on,,,,,64,0,10,,,,,2,,74,85
15168,note_on,,,,,64,0,12,,,,,4,,33,85
15168,note_on,,,,,64,0,14,,,,,5,,45,100
15168,note_on,,,,,64,0,13,,,,,5,,69,100
15168,note_on,,,,,0,0,13,,,,,5,,64,100
15168,note_on,,,,,0,0,13,,,,,5,,60,100
15232,note_off,,,,,64,0,10,,,,,2,,74,100
15232,note_off,,,,,64,0,9,,,,,1,,83,100
15264,note_on,,,,,32,0,9,,,,,1,,81,85
15264,note_on,,,,,32,0,10,,,,,2,,72,85
15296,note_off,,,,,128,0,14,,,,,5,,45,100
15296,note_off,,,,,128,0,12,,,,,4,,33,100
15296,note_off,,,,,128,0,11,,,,,3,,45,100
15296,note_off,,,,,0,0,13,,,,,5,,60,100
15296,note_off,,,,,0,0,13,,,,,5,,64,100
15296,note_off,,,,,128,0,13,,,,,5,,69,100
15328,note_off,,,,,64,0,9,,,,,1,,81,100
15328,note_off,,,,,64,0,10,,,,,2,,72,100
15360,note_on,,,,,32,0,9,,,,,1,,80,85
15360,note_on,,,,,32,0,10,,,,,2,,71,85
15360,note_on,,,,,64,0,12,,,,,4,,40,85
15360,note_on,,,,,0,0,13,,,,,5,,71,100
15360,note_on,,,,,64,0,11,,,,,3,,52,85
15360,note_on,,,,,0,0,13,,,,,5,,68,100
15360,note_on,,,,,64,0,13,,,,,5,,64,100
15360,note_on,,,,,64,0,14,,,,,5,,52,100
15488,note_off,,,,,128,0,9,,,,,1,,80,100
15488,note_off,,,,,0,0,13,,,,,5,,71,100
15488,note_off,,,,,0,0,13,,,,,5,,68,100
15488,note_off,,,,,128,0,12,,,,,4,,40,100
15488,note_off,,,,,128,0,13,,,,,5,,64,100
15488,note_off,,,,,128,0,11,,,,,3,,52,100
15488,note_off,,,,,128,0,14,,,,,5,,52,100
15488,note_off,,,,,128,0,10,,,,,2,,71,100
15552,note_on,,,,,64,0,9,,,,,1,,78,85
15552,note_on,,,,,0,0,13,,,,,5,,71,100
15552,note_on,,,,,0,0,13,,,,,5,,68,100
15552,note_on,,,,,64,0,13,,,,,5,,64,100
15552,note_on,,,,,64,0,12,,,,,4,,40,85
15552,note_on,,,,,64,0,11,,,,,3,,52,85
15552,note_on,,,,,64,0,14,,,,,5,,52,100
15552,note_on,,,,,64,0,10,,,,,2,,69,85
15616,note_off,,,,,64,0,9,,,,,1,,78,100
15616,note_off,,,,,64,0,10,,,,,2,,69,100
15648,note_on,,,,,32,0,9,,,,,1,,80,85
15648,note_on,,,,,32,0,10,,,,,2,,71,85
15680,note_off,,,,,128,0,14,,,,,5,,52,100
15680,note_off,,,,,0,0,13,,,,,5,,71,100
15680,note_off,,,,,128,0,11,,,,,3,,52,100
15680,note_off,,,,,128,0,12,,,,,4,,40,100
15680,note_off,,,,,128,0,13,,,,,5,,64,100
15680,note_off,,,,,0,0,13,,,,,5,,68,100
15712,note_off,,,,,64,0,9,,,,,1,,80,100
15712,note_off,,,,,64,0,10,,,,,2,,71,100
15744,note_on,,,,,64,0,14,,,,,5,,45,100
15744,note_on,,,,,0,0,13,,,,,5,,60,100
15744,note_on,,,,,0,0,13,,,,,5,,64,100
15744,note_on,,,,,32,0,10,,,,,2,,72,85
15744,note_on,,,,,64,0,13,,,,,5,,69,100
15744,note_on,,,,,64,0,11,,,,,3,,45,85
15744,note_on,,,,,32,0,9,,,,,1,,81,85
15744,note_on,,,,,64,0,12,,,,,4,,33,85
15872,note_off,,,,,128,0,11,,,,,3,,45,100
15872,note_off,,,,,128,0,13,,,,,5,,69,100
15872,note_off,,,,,0,0,13,,,,,5,,64,100
15872,note_off,,,,,128,0,10,,,,,2,,72,100
15872,note_off,,,,,128,0,9,,,,,1,,81,100
15872,note_off,,,,,128,0,14,,,,,5,,45,100
15872,note_off,,,,,0,0,13,,,,,5,,60,100
15872,note_off,,,,,128,0,12,,,,,4,,33,100
15936,note_on,,,,,0,0,13,,,,,5,,64,100
15936,note_on,,,,,64,0,11,,,,,3,,45,85
15936,note_on,,,,,64,0,10,,,,,2,,74,85
15936,note_on,,,,,64,0,14,,,,,5,,45,100
15936,note_on,,,,,64,0,9,,,,,1,,83,85
15936,note_on,,,,,64,0,13,,,,,5,,69,100
15936,note_on,,,,,0,0,13,,,,,5,,60,100
15936,note_on,,,,,64,0,12,,,,,4,,33,85
16000,note_off,,,,,64,0,9,,,,,1,,83,100
16000,note_off,,,,,64,0,10,,,,,2,,74,100
16032,note_on,,,,,32,0,9,,,,,1,,81,85
16032,note_on,,,,,32,0,10,,,,,2,,72,85
16064,note_off,,,,,128,0,12,,,,,4,,33,100
16064,note_off,,,,,0,0,13,,,,,5,,60,100
16064,note_off,,,,,0,0,13,,,,,5,,64,100
16064,note_off,,,,,128,0,14,,,,,5,,45,100
16064,note_off,,,,,128,0,13,,,,,5,,69,100
16064,note_off,,,,,128,0,11,,,,,3,,45,100
16096,note_off,,,,,64,0,9,,,,,1,,81,100
16096,note_off,,,,,64,0,10,,,,,2,,72,100
16128,note_on,,,,,0,0,13,,,,,5,,71,100
16128,note_on,,,,,64,0,13,,,,,5,,64,100
16128,note_on,,,,,0,0,13,,,,,5,,68,100
16128,note_on,,,,,64,0,14,,,,,5,,52,100
16128,note_on,,,,,32,0,9,,,,,1,,80,85
16128,note_on,,,,,64,0,12,,,,,4,,40,85
16128,note_on,,,,,64,0,11,,,,,3,,52,85
16128,note_on,,,,,32,0,10,,,,,2,,71,85
16256,note_off,,,,,128,0,13,,,,,5,,71,100
16256,note_off,,,,,128,0,9,,,,,1,,80,100
16256,note_off,,,,,128,0,10,,,,,2,,71,100
16320,note_on,,,,,64,0,9,,,,,1,,78,85
16320,note_on,,,,,64,0,10,,,,,2,,72,85
16320,note_on,,,,,64,0,13,,,,,5,,72,100
16384,note_off,,,,,256,0,11,,,,,3,,52,100
16384,note_off,,,,,256,0,14,,,,,5,,52,100
16384,note_off,,,,,64,0,13,,,,,5,,64,100
16384,note_off,,,,,0,0,13,,,,,5,,68,100
16384,note_off,,,,,64,0,9,,,,,1,,78,100
16384,note_off,,,,,256,0,12,,,,,4,,40,100
16416,note_on,,,,,32,0,9,,,,,1,,76,85
16448,note_off,,,,,128,0,10,,,,,2,,72,100
16448,note_off,,,,,64,0,13,,,,,5,,72,100
16480,note_off,,,,,64,0,9,,,,,1,,76,100
16512,note_on,,,,,0,0,13,,,,,5,,65,100
16512,note_on,,,,,64,0,10,,,,,2,,69,85
16512,note_on,,,,,128,0,14,,,,,5,,50,100
16512,note_on,,,,,32,0,9,,,,,1,,77,85
16512,note_on,,,,,128,0,11,,,,,3,,50,85
16512,note_on,,,,,64,0,13,,,,,5,,69,100
16512,note_on,,,,,128,0,12,,,,,4,,38,85
16640,note_off,,,,,128,0,13,,,,,5,,69,100
16640,note_off,,,,,128,0,9,,,,,1,,77,100
16640,note_off,,,,,128,0,10,,,,,2,,69,100
16704,note_on,,,,,64,0,10,,,,,2,,71,85
16704,note_on,,,,,64,0,9,,,,,1,,76,85
16704,note_on,,,,,64,0,13,,,,,5,,71,100
16768,note_off,,,,,64,0,9,,,,,1,,76,100
16768,note_off,,,,,256,0,14,,,,,5,,50,100
16768,note_off,,,,,64,0,13,,,,,5,,65,100
16768,note_off,,,,,256,0,11,,,,,3,,50,100
16768,note_off,,,,,256,0,12,,,,,4,,38,100
16800,note_on,,,,,32,0,9,,,,,1,,74,85
16832,note_off,,,,,64,0,13,,,,,5,,71,100
16832,note_off,,,,,128,0,10,,,,,2,,71,100
16864,note_off,,,,,64,0,9,,,,,1,,74,100
16896,note_on,,,,,0,0,13,,,,,5,,60,100
16896,note_on,,,,,64,0,13,,,,,5,,69,100
16896,note_on,,,,,64,0,10,,,,,2,,72,85
16896,note_on,,,,,0,0,13,,,,,5,,64,100
16896,note_on,,,,,32,0,9,,,,,1,,76,85
16896,note_on,,,,,128,0,14,,,,,5,,45,100
16896,note_on,,,,,128,0,12,,,,,4,,33,85
16896,note_on,,,,,128,0,11,,,,,3,,45,85
17024,note_off,,,,,0,0,13,,,,,5,,60,100
17024,note_off,,,,,128,0,13,,,,,5,,69,100
17024,note_off,,,,,128,0,11,,,,,3,,45,100
17024,note_off,,,,,128,0,14,,,,,5,,45,100
17024,note_off,,,,,0,0,13,,,,,5,,64,100
17024,note_off,,,,,128,0,12,,,,,4,,33,100
17088,note_on,,,,,64,0,14,,,,,5,,47,100
17088,note_on,,,,,64,0,12,,,,,4,,35,85
17088,note_on,,,,,64,0,11,,,,,3,,47,85
17088,note_on,,,,,64,0,13,,,,,5,,62,100
17216,note_off,,,,,128,0,11,,,,,3,,47,100
17216,note_off,,,,,128,0,12,,,,,4,,35,100
17216,note_off,,,,,128,0,14,,,,,5,,47,100
17216,note_off,,,,,128,0,13,,,,,5,,62,100
17280,note_on,,,,,64,0,12,,,,,4,,36,85
17280,note_off,,,,,384,0,9,,,,,1,,76,100
17280,note_on,,,,,64,0,13,,,,,5,,64,100
17280,note_on,,,,,64,0,14,,,,,5,,48,100
17280,note_off,,,,,384,0,10,,,,,2,,72,100
17280,note_on,,,,,64,0,11,,,,,3,,48,85
17408,note_off,,,,,128,0,13,,,,,5,,64,100
17408,note_off,,,,,128,0,14,,,,,5,,48,100
17408,note_off,,,,,128,0,11,,,,,3,,48,100
17408,note_off,,,,,128,0,12,,,,,4,,36,100
17472,note_on,,,,,192,0,10,,,,,2,,74,85
17472,note_on,,,,,64,0,14,,,,,5,,44,100
17472,note_on,,,,,64,0,13,,,,,5,,62,100
17472,note_on,,,,,192,0,9,,,,,1,,77,85
17472,note_on,,,,,64,0,11,,,,,3,,44,85
17472,note_on,,,,,0,0,13,,,,,5,,65,100
17472,note_on,,,,,64,0,12,,,,,4,,44,85
17600,note_off,,,,,128,0,9,,,,,1,,77,100
17600,note_off,,,,,128,0,14,,,,,5,,44,100
17600,note_off,,,,,128,0,13,,,,,5,,62,100
17600,note_off,,,,,0,0,13,,,,,5,,65,100
17600,note_off,,,,,128,0,11,,,,,3,,44,100
17600,note_off,,,,,128,0,12,,,,,4,,44,100
17600,note_off,,,,,128,0,10,,,,,2,,74,100
17664,note_on,,,,,64,0,11,,,,,3,,45,85
17664,note_on,,,,,64,0,14,,,,,5,,45,100
17664,note_on,,,,,64,0,10,,,,,2,,72,85
17664,note_on,,,,,64,0,12,,,,,4,,33,85
17664,note_on,,,,,0,0,13,,,,,5,,64,100
17664,note_on,,,,,64,0,13,,,,,5,,60,100
17664,note_on,,,,,64,0,9,,,,,1,,76,85
17792,note_off,,,,,128,0,14,,,,,5,,45,100
17792,note_off,,,,,128,0,11,,,,,3,,45,100
17792,note_off,,,,,0,0,13,,,,,5,,64,100
17792,note_off,,,,,128,0,13,,,,,5,,60,100
17792,note_off,,,,,128,0,12,,,,,4,,33,100
17856,note_on,,,,,64,0,14,,,,,5,,47,100
17856,note_on,,,,,64,0,13,,,,,5,,62,100
17856,note_on,,,,,64,0,11,,,,,3,,47,85
17856,note_on,,,,,64,0,12,,,,,4,,35,85
17984,note_off,,,,,128,0,12,,,,,4,,35,100
17984,note_off,,,,,128,0,11,,,,,3,,47,100
17984,note_off,,,,,128,0,14,,,,,5,,47,100
17984,note_off,,,,,128,0,13,,,,,5,,62,100
18048,note_on,,,,,64,0,12,,,,,4,,36,85
18048,note_on,,,,,64,0,11,,,,,3,,48,85
18048,note_on,,,,,64,0,14,,,,,5,,48,100
18048,note_off,,,,,384,0,10,,,,,2,,72,100
18048,note_on,,,,,64,0,13,,,,,5,,64,100
18048,note_off,,,,,384,0,9,,,,,1,,76,100
18176,note_off,,,,,128,0,14,,,,,5,,48,100
18176,note_off,,,,,128,0,11,,,,,3,,48,100
18176,note_off,,,,,128,0,13,,,,,5,,64,100
18176,note_off,,,,,128,0,12,,,,,4,,36,100
18240,note_on,,,,,192,0,9,,,,,1,,77,85
18240,note_on,,,,,64,0,14,,,,,5,,44,100
18240,note_on,,,,,192,0,10,,,,,2,,74,85
18240,note_on,,,,,64,0,13,,,,,5,,62,100
18240,note_on,,,,,0,0,13,,,,,5,,65,100
18240,note_on,,,,,64,0,11,,,,,3,,44,85
18240,note_on,,,,,64,0,12,,,,,4,,44,85
18368,note_off,,,,,128,0,10,,,,,2,,74,100
18368,note_off,,,,,0,0,13,,,,,5,,65,100
18368,note_off,,,,,128,0,13,,,,,5,,62,100
18368,note_off,,,,,128,0,9,,,,,1,,77,100
18368,note_off,,,,,128,0,12,,,,,4,,44,100
18368,note_off,,,,,128,0,14,,,,,5,,44,100
18368,note_off,,,,,128,0,11,,,,,3,,44,100
18432,note_on,,,,,64,0,9,,,,,1,,76,85
18432,note_on,,,,,0,0,13,,,,,5,,64,100
18432,note_on,,,,,64,0,13,,,,,5,,60,100
18432,note_on,,,,,64,0,10,,,,,2,,72,85
18432,note_on,,,,,64,0,11,,,,,3,,45,85
18432,note_on,,,,,64,0,12,,,,,4,,45,85
18432,note_on,,,,,64,0,14,,,,,5,,45,100
18560,note_off,,,,,128,0,10,,,,,2,,72,100
18560,note_off,,,,,128,0,9,,,,,1,,76,100
18624,note_on,,,,,64,0,10,,,,,2,,71,85
18624,note_on,,,,,64,0,9,,,,,1,,74,85
18688,note_off,,,,,256,0,13,,,,,5,,60,100
18688,note_off,,,,,0,0,13,,,,,5,,64,100
18688,note_off,,,,,256,0,11,,,,,3,,45,100
18688,note_off,,,,,256,0,12,,,,,4,,45,100
18688,note_off,,,,,256,0,14,,,,,5,,45,100
18688,note_off,,,,,64,0,10,,,,,2,,71,100
18688,note_off,,,,,64,0,9,,,,,1,,74,100
18720,note_on,,,,,32,0,10,,,,,2,,72,85
18720,note_on,,,,,32,0,9,,,,,1,,76,85
18784,note_off,,,,,64,0,9,,,,,1,,76,100
18784,note_off,,,,,64,0,10,,,,,2,,72,100
18816,note_on,,,,,128,0,11,,,,,3,,44,85
18816,note_on,,,,,128,0,13,,,,,5,,62,100
18816,note_on,,,,,32,0,10,,,,,2,,74,85
18816,note_on,,,,,128,0,12,,,,,4,,44,85
18816,note_on,,,,,0,0,13,,,,,5,,65,100
18816,note_on,,,,,32,0,9,,,,,1,,77,85
18816,note_on,,,,,128,0,14,,,,,5,,44,100
18944,note_off,,,,,128,0,10,,,,,2,,74,100
18944,note_off,,,,,128,0,9,,,,,1,,77,100
19008,note_on,,,,,64,0,9,,,,,1,,77,85
19008,note_on,,,,,64,0,10,,,,,2,,74,85
19072,note_off,,,,,256,0,12,,,,,4,,44,100
19072,note_off,,,,,0,0,13,,,,,5,,65,100
19072,note_off,,,,,256,0,13,,,,,5,,62,100
19072,note_off,,,,,256,0,11,,,,,3,,44,100
19072,note_off,,,,,256,0,14,,,,,5,,44,100
19136,note_off,,,,,128,0,9,,,,,1,,77,100
19136,note_off,,,,,128,0,10,,,,,2,,74,100
19200,note_on,,,,,64,0,9,,,,,1,,76,85
19200,note_on,,,,,128,0,14,,,,,5,,45,100
19200,note_on,,,,,64,0,10,,,,,2,,72,85
19200,note_on,,,,,0,0,13,,,,,5,,64,100
19200,note_on,,,,,128,0,13,,,,,5,,60,100
19200,note_on,,,,,128,0,12,,,,,4,,45,85
19200,note_on,,,,,128,0,11,,,,,3,,45,85
19328,note_off,,,,,128,0,10,,,,,2,,72,100
19328,note_off,,,,,128,0,9,,,,,1,,76,100
19392,note_on,,,,,64,0,9,,,,,1,,74,85
19392,note_on,,,,,64,0,10,,,,,2,,71,85
19456,note_off,,,,,256,0,12,,,,,4,,45,100
19456,note_off,,,,,256,0,11,,,,,3,,45,100
19456,note_off,,,,,64,0,9,,,,,1,,74,100
19456,note_off,,,,,64,0,10,,,,,2,,71,100
19456,note_off,,,,,256,0,14,,,,,5,,45,100
19456,note_off,,,,,256,0,13,,,,,5,,60,100
19456,note_off,,,,,0,0,13,,,,,5,,64,100
19488,note_on,,,,,32,0,10,,,,,2,,72,85
19488,note_on,,,,,32,0,9,,,,,1,,76,85
19552,note_off,,,,,64,0,9,,,,,1,,76,100
19552,note_off,,,,,64,0,10,,,,,2,,72,100
19584,note_on,,,,,128,0,13,,,,,5,,62,100
19584,note_on,,,,,32,0,9,,,,,1,,77,85
19584,note_on,,,,,0,0,13,,,,,5,,65,100
19584,note_on,,,,,128,0,14,,,,,5,,44,100
19584,note_on,,,,,128,0,11,,,,,3,,44,85
19584,note_on,,,,,128,0,12,,,,,4,,44,85
19584,note_on,,,,,32,0,10,,,,,2,,74,85
19712,note_off,,,,,128,0,9,,,,,1,,77,100
19712,note_off,,,,,128,0,10,,,,,2,,74,100
19776,note_on,,,,,64,0,10,,,,,2,,74,85
19776,note_on,,,,,64,0,9,,,,,1,,77,85
19840,note_off,,,,,256,0,11,,,,,3,,44,100
19840,note_off,,,,,256,0,13,,,,,5,,62,100
19840,note_off,,,,,256,0,12,,,,,4,,44,100
19840,note_off,,,,,256,0,14,,,,,5,,44,100
19840,note_off,,,,,0,0,13,,,,,5,,65,100
19904,note_off,,,,,128,0,10,,,,,2,,74,100
19904,note_off,,,,,128,0,9,,,,,1,,77,100
19968,note_on,,,,,128,0,14,,,,,5,,45,100
19968,note_on,,,,,64,0,9,,,,,1,,76,85
19968,note_on,,,,,64,0,10,,,,,2,,72,85
19968,note_on,,,,,0,0,13,,,,,5,,64,100
19968,note_on,,,,,128,0,12,,,,,4,,33,85
19968,note_on,,,,,128,0,11,,,,,3,,45,85
19968,note_on,,,,,128,0,13,,,,,5,,60,100
20096,note_off,,,,,128,0,9,,,,,1,,76,100
20160,note_on,,,,,64,0,9,,,,,1,,78,85
20224,note_off,,,,,0,0,13,,,,,5,,64,100
20224,note_off,,,,,256,0,13,,,,,5,,60,100
20224,note_off,,,,,256,0,14,,,,,5,,45,100
20224,note_off,,,,,256,0,12,,,,,4,,33,100
20224,note_off,,,,,64,0,9,,,,,1,,78,100
20224,note_off,,,,,256,0,10,,,,,2,,72,100
20224,note_off,,,,,256,0,11,,,,,3,,45,100
20256,note_on,,,,,32,0,9,,,,,1,,80,85
20320,note_off,,,,,64,0,9,,,,,1,,80,100
20352,note_on,,,,,32,0,9,,,,,1,,81,85
20480,note_off,,,,,128,0,9,,,,,1,,81,100
20544,note_on,,,,,64,0,9,,,,,1,,81,85
20608,note_off,,,,,64,0,9,,,,,1,,81,100
20640,note_on,,,,,32,0,9,,,,,1,,83,85
20704,note_off,,,,,64,0,9,,,,,1,,83,100
20736,note_on,,,,,32,0,9,,,,,1,,84,85
20736,note_on,,,,,512,0,14,,,,,5,,45,100
20736,note_on,,,,,512,0,12,,,,,4,,33,85
20736,note_on,,,,,512,0,13,,,,,5,,69,100
20736,note_on,,,,,512,0,10,,,,,2,,64,85
20736,note_on,,,,,0,0,13,,,,,5,,60,100
20736,note_on,,,,,512,0,11,,,,,3,,45,85
20736,note_on,,,,,0,0,13,,,,,5,,64,100
20864,note_off,,,,,128,0,9,,,,,1,,84,100
20928,note_on,,,,,64,0,9,,,,,1,,84,85
20992,note_off,,,,,0,0,13,,,,,5,,60,100
20992,note_off,,,,,256,0,10,,,,,2,,64,100
20992,note_off,,,,,0,0,13,,,,,5,,64,100
20992,note_off,,,,,256,0,12,,,,,4,,33,100
20992,note_off,,,,,256,0,14,,,,,5,,45,100
20992,note_off,,,,,64,0,9,,,,,1,,84,100
20992,note_off,,,,,256,0,13,,,,,5,,69,100
20992,note_off,,,,,256,0,11,,,,,3,,45,100
21024,note_on,,,,,32,0,9,,,,,1,,86,85
21088,note_off,,,,,64,0,9,,,,,1,,86,100
21120,note_on,,,,,32,0,9,,,,,1,,88,85
21312,note_on,,,,,320,0,12,,,,,4,,35,85
21312,note_on,,,,,320,0,13,,,,,5,,64,100
21312,note_on,,,,,0,0,13,,,,,5,,62,100
21312,note_on,,,,,320,0,10,,,,,2,,62,85
21312,note_on,,,,,320,0,14,,,,,5,,47,100
21312,note_on,,,,,320,0,11,,,,,3,,45,85
21376,note_off,,,,,256,0,9,,,,,1,,88,100
21440,note_off,,,,,128,0,10,,,,,2,,62,100
21440,note_off,,,,,128,0,11,,,,,3,,45,100
21440,note_off,,,,,128,0,13,,,,,5,,64,100
21440,note_off,,,,,0,0,13,,,,,5,,62,100
21440,note_off,,,,,128,0,14,,,,,5,,47,100
21440,note_off,,,,,128,0,12,,,,,4,,35,100
21504,note_on,,,,,64,0,13,,,,,5,,60,100
21504,note_on,,,,,64,0,10,,,,,2,,64,85
21504,note_on,,,,,0,0,13,,,,,5,,67,100
21504,note_on,,,,,64,0,11,,,,,3,,48,85
21504,note_on,,,,,0,0,13,,,,,5,,64,100
21504,note_on,,,,,64,0,14,,,,,5,,48,100
21504,note_on,,,,,64,0,12,,,,,4,,36,85
21632,note_off,,,,,128,0,14,,,,,5,,48,100
21632,note_off,,,,,128,0,12,,,,,4,,36,100
21632,note_off,,,,,128,0,11,,,,,3,,48,100
21632,note_off,,,,,128,0,10,,,,,2,,64,100
21632,note_off,,,,,0,0,13,,,,,5,,64,100
21632,note_off,,,,,0,0,13,,,,,5,,67,100
21632,note_off,,,,,128,0,13,,,,,5,,60,100
21696,note_on,,,,,64,0,12,,,,,4,,38,85
21696,note_on,,,,,64,0,13,,,,,5,,69,100
21696,note_on,,,,,0,0,13,,,,,5,,65,100
21696,note_on,,,,,320,0,9,,,,,1,,81,85
21696,note_on,,,,,64,0,11,,,,,3,,50,85
21696,note_on,,,,,64,0,14,,,,,5,,50,100
21696,note_on,,,,,64,0,10,,,,,2,,62,85
21760,note_off,,,,,64,0,10,,,,,2,,62,100
21792,note_on,,,,,32,0,10,,,,,2,,60,85
21824,note_off,,,,,128,0,11,,,,,3,,50,100
21824,note_off,,,,,128,0,12,,,,,4,,38,100
21824,note_off,,,,,0,0,13,,,,,5,,65,100
21824,note_off,,,,,128,0,9,,,,,1,,81,100
21824,note_off,,,,,128,0,14,,,,,5,,50,100
21824,note_off,,,,,128,0,13,,,,,5,,69,100
21856,note_off,,,,,64,0,10,,,,,2,,60,100
21888,note_on,,,,,64,0,13,,,,,5,,69,100
21888,note_on,,,,,0,0,13,,,,,5,,71,100
21888,note_on,,,,,32,0,10,,,,,2,,59,85
21888,note_on,,,,,64,0,12,,,,,4,,40,85
21888,note_on,,,,,64,0,11,,,,,3,,52,85
21888,note_on,,,,,64,0,9,,,,,1,,76,85
21888,note_on,,,,,64,0,14,,,,,5,,52,100
22016,note_off,,,,,0,0,13,,,,,5,,71,100
22016,note_off,,,,,128,0,10,,,,,2,,59,100
22016,note_off,,,,,128,0,9,,,,,1,,76,100
22016,note_off,,,,,128,0,12,,,,,4,,40,100
22016,note_off,,,,,128,0,13,,,,,5,,69,100
22016,note_off,,,,,128,0,14,,,,,5,,52,100
22016,note_off,,,,,128,0,11,,,,,3,,52,100
22080,note_on,,,,,64,0,10,,,,,2,,59,85
22080,note_on,,,,,64,0,9,,,,,1,,80,85
22080,note_on,,,,,64,0,11,,,,,3,,40,85
22080,note_on,,,,,0,0,13,,,,,5,,68,100
22080,note_on,,,,,64,0,12,,,,,4,,40,85
22080,note_on,,,,,64,0,13,,,,,5,,59,100
22080,note_on,,,,,64,0,14,,,,,5,,40,100
22208,note_off,,,,,128,0,13,,,,,5,,59,100
22208,note_off,,,,,0,0,13,,,,,5,,68,100
22208,note_off,,,,,128,0,12,,,,,4,,40,100
22208,note_off,,,,,128,0,11,,,,,3,,40,100
22208,note_off,,,,,128,0,10,,,,,2,,59,100
22208,note_off,,,,,128,0,14,,,,,5,,40,100
22208,note_off,,,,,128,0,9,,,,,1,,80,100
22272,note_on,,,,,64,0,11,,,,,3,,57,85
22272,note_on,,,,,64,0,12,,,,,4,,45,85
22272,note_on,,,,,64,0,9,,,,,1,,81,85
22272,note_on,,,,,64,0,14,,,,,5,,57,100
22272,note_on,,,,,64,0,10,,,,,2,,60,85
22272,note_on,,,,,0,0,13,,,,,5,,69,100
22272,note_on,,,,,64,0,13,,,,,5,,60,100
22400,note_off,,,,,0,0,13,,,,,5,,69,100
22400,note_off,,,,,128,0,14,,,,,5,,57,100
22400,note_off,,,,,128,0,11,,,,,3,,57,100
22400,note_off,,,,,128,0,13,,,,,5,,60,100
22400,note_off,,,,,128,0,12,,,,,4,,45,100
22464,note_on,,,,,64,0,14,,,,,5,,59,100
22464,note_on,,,,,64,0,12,,,,,4,,47,85
22464,note_on,,,,,64,0,13,,,,,5,,71,100
22464,note_on,,,,,64,0,11,,,,,3,,59,85
22464,note_on,,,,,22464,0,8,,,,,0,,76,100
22528,note_off,,,,,256,0,9,,,,,1,,81,100
22528,note_off,,,,,256,0,10,,,,,2,,60,100
22592,note_off,,,,,128,0,8,,,,,0,,76,100
22592,note_off,,,,,128,0,14,,,,,5,,59,100
22592,note_off,,,,,128,0,11,,,,,3,,59,100
22592,note_off,,,,,128,0,12,,,,,4,,47,100
22592,note_off,,,,,128,0,13,,,,,5,,71,100
22656,note_on,,,,,64,0,14,,,,,5,,60,100
22656,note_on,,,,,64,0,8,,,,,0,,81,100
22656,note_on,,,,,64,0,11,,,,,3,,60,85
22656,note_on,,,,,64,0,12,,,,,4,,48,85
22656,note_on,,,,,64,0,13,,,,,5,,72,100
22720,note_off,,,,,64,0,8,,,,,0,,81,100
22752,note_on,,,,,32,0,8,,,,,0,,84,100
22784,note_off,,,,,128,0,11,,,,,3,,60,100
22784,note_off,,,,,128,0,13,,,,,5,,72,100
22784,note_off,,,,,128,0,14,,,,,5,,60,100
22784,note_off,,,,,128,0,12,,,,,4,,48,100
22816,note_off,,,,,64,0,8,,,,,0,,84,100
22848,note_on,,,,,64,0,13,,,,,5,,71,100
22848,note_on,,,,,64,0,14,,,,,5,,56,100
22848,note_on,,,,,64,0,12,,,,,4,,44,85
22848,note_on,,,,,32,0,8,,,,,0,,83,100
22848,note_on,,,,,64,0,11,,,,,3,,56,85
22848,note_on,,,,,0,0,13,,,,,5,,68,100
22912,note_off,,,,,64,0,8,,,,,0,,83,100
22944,note_on,,,,,32,0,8,,,,,0,,86,100
22976,note_off,,,,,128,0,12,,,,,4,,44,100
22976,note_off,,,,,128,0,11,,,,,3,,56,100
22976,note_off,,,,,128,0,13,,,,,5,,71,100
22976,note_off,,,,,0,0,13,,,,,5,,68,100
22976,note_off,,,,,128,0,14,,,,,5,,56,100
23008,note_off,,,,,64,0,8,,,,,0,,86,100
23040,note_on,,,,,32,0,8,,,,,0,,84,100
23040,note_on,,,,,64,0,11,,,,,3,,57,85
23040,note_on,,,,,64,0,13,,,,,5,,64,100
23040,note_on,,,,,0,0,13,,,,,5,,72,100
23040,note_on,,,,,64,0,14,,,,,5,,57,100
23040,note_on,,,,,64,0,12,,,,,4,,45,85
23168,note_off,,,,,128,0,13,,,,,5,,64,100
23168,note_off,,,,,0,0,13,,,,,5,,72,100
23168,note_off,,,,,128,0,8,,,,,0,,84,100
23168,note_off,,,,,128,0,14,,,,,5,,57,100
23168,note_off,,,,,128,0,11,,,,,3,,57,100
23168,note_off,,,,,128,0,12,,,,,4,,45,100
23232,note_on,,,,,64,0,12,,,,,4,,50,85
23232,note_on,,,,,0,0,13,,,,,5,,72,100
23232,note_on,,,,,64,0,14,,,,,5,,62,100
23232,note_on,,,,,64,0,11,,,,,3,,62,85
23232,note_on,,,,,64,0,13,,,,,5,,69,100
23360,note_off,,,,,0,0,13,,,,,5,,72,100
23360,note_off,,,,,128,0,13,,,,,5,,69,100
23360,note_off,,,,,128,0,12,,,,,4,,50,100
23360,note_off,,,,,128,0,11,,,,,3,,62,100
23360,note_off,,,,,128,0,14,,,,,5,,62,100
23424,note_on,,,,,64,0,13,,,,,5,,69,100
23424,note_on,,,,,64,0,11,,,,,3,,64,85
23424,note_on,,,,,256,0,8,,,,,0,,83,100
23424,note_on,,,,,0,0,13,,,,,5,,71,100
23424,note_on,,,,,64,0,14,,,,,5,,64,100
23424,note_on,,,,,64,0,12,,,,,4,,52,85
23552,note_off,,,,,128,0,8,,,,,0,,83,100
23552,note_off,,,,,128,0,11,,,,,3,,64,100
23552,note_off,,,,,128,0,12,,,,,4,,52,100
23552,note_off,,,,,128,0,14,,,,,5,,64,100
23552,note_off,,,,,128,0,13,,,,,5,,69,100
23552,note_off,,,,,0,0,13,,,,,5,,71,100
23616,note_on,,,,,64,0,11,,,,,3,,52,85
23616,note_on,,,,,64,0,14,,,,,5,,52,100
23616,note_on,,,,,64,0,13,,,,,5,,68,100
23616,note_on,,,,,0,0,13,,,,,5,,71,100
23616,note_on,,,,,64,0,12,,,,,4,,40,85
23744,note_off,,,,,128,0,14,,,,,5,,52,100
23744,note_off,,,,,128,0,11,,,,,3,,52,100
23744,note_off,,,,,128,0,13,,,,,5,,68,100
23744,note_off,,,,,128,0,12,,,,,4,,40,100
23744,note_off,,,,,0,0,13,,,,,5,,71,100
23808,note_on,,,,,0,0,13,,,,,5,,72,100
23808,note_on,,,,,0,0,13,,,,,5,,64,100
23808,note_on,,,,,64,0,13,,,,,5,,69,100
23808,note_on,,,,,64,0,14,,,,,5,,57,100
23808,note_on,,,,,256,0,8,,,,,0,,81,100
23808,note_on,,,,,64,0,11,,,,,3,,57,85
23808,note_on,,,,,64,0,12,,,,,4,,45,85
23936,note_off,,,,,128,0,13,,,,,5,,69,100
23936,note_off,,,,,0,0,13,,,,,5,,64,100
23936,note_off,,,,,0,0,13,,,,,5,,72,100
23936,note_off,,,,,128,0,11,,,,,3,,57,100
23936,note_off,,,,,128,0,14,,,,,5,,57,100
23936,note_off,,,,,128,0,12,,,,,4,,45,100
24000,note_on,,,,,64,0,14,,,,,5,,59,100
24000,note_on,,,,,64,0,12,,,,,4,,47,85
24000,note_on,,,,,64,0,11,,,,,3,,59,85
24000,note_on,,,,,64,0,13,,,,,5,,62,100
24064,note_off,,,,,256,0,8,,,,,0,,81,100
24128,note_off,,,,,128,0,14,,,,,5,,59,100
24128,note_off,,,,,128,0,11,,,,,3,,59,100
24128,note_off,,,,,128,0,12,,,,,4,,47,100
24128,note_off,,,,,128,0,13,,,,,5,,62,100
24192,note_on,,,,,64,0,12,,,,,4,,48,85
24192,note_on,,,,,64,0,13,,,,,5,,64,100
24192,note_on,,,,,64,0,11,,,,,3,,60,85
24192,note_on,,,,,64,0,14,,,,,5,,60,100
24320,note_off,,,,,128,0,12,,,,,4,,48,100
24320,note_off,,,,,128,0,11,,,,,3,,60,100
24320,note_off,,,,,128,0,14,,,,,5,,60,100
24320,note_off,,,,,128,0,13,,,,,5,,64,100
24384,note_on,,,,,64,0,13,,,,,5,,60,100
24384,note_on,,,,,0,0,13,,,,,5,,64,100
24384,note_on,,,,,64,0,12,,,,,4,,45,85
24384,note_on,,,,,64,0,14,,,,,5,,57,100
24384,note_on,,,,,64,0,11,,,,,3,,57,85
24384,note_on,,,,,320,0,8,,,,,0,,81,100
24512,note_off,,,,,128,0,12,,,,,4,,45,100
24512,note_off,,,,,128,0,8,,,,,0,,81,100
24512,note_off,,,,,0,0,13,,,,,5,,64,100
24512,note_off,,,,,128,0,14,,,,,5,,57,100
24512,note_off,,,,,128,0,13,,,,,5,,60,100
24512,note_off,,,,,128,0,11,,,,,3,,57,100
24576,note_on,,,,,64,0,14,,,,,5,,59,100
24576,note_on,,,,,64,0,12,,,,,4,,47,85
24576,note_on,,,,,64,0,11,,,,,3,,59,85
24576,note_on,,,,,64,0,8,,,,,0,,79,100
24576,note_on,,,,,0,0,13,,,,,5,,65,100
24576,note_on,,,,,64,0,13,,,,,5,,62,100
24640,note_off,,,,,64,0,8,,,,,0,,79,100
24672,note_on,,,,,32,0,8,,,,,0,,81,100
24736,note_off,,,,,64,0,8,,,,,0,,81,100
24768,note_on,,,,,32,0,8,,,,,0,,77,100
24832,note_off,,,,,256,0,12,,,,,4,,47,100
24832,note_off,,,,,0,0,13,,,,,5,,65,100
24832,note_off,,,,,256,0,13,,,,,5,,62,100
24832,note_off,,,,,256,0,11,,,,,3,,59,100
24832,note_off,,,,,64,0,8,,,,,0,,77,100
24832,note_off,,,,,256,0,14,,,,,5,,59,100
24864,note_on,,,,,32,0,8,,,,,0,,79,100
24928,note_off,,,,,64,0,8,,,,,0,,79,100
24960,note_on,,,,,128,0,11,,,,,3,,56,85
24960,note_on,,,,,32,0,8,,,,,0,,76,100
24960,note_on,,,,,128,0,13,,,,,5,,62,100
24960,note_on,,,,,0,0,13,,,,,5,,64,100
24960,note_on,,,,,128,0,14,,,,,5,,56,100
24960,note_on,,,,,128,0,12,,,,,4,,44,85
25024,note_off,,,,,64,0,8,,,,,0,,76,100
25056,note_on,,,,,32,0,8,,,,,0,,77,100
25120,note_off,,,,,64,0,8,,,,,0,,77,100
25152,note_on,,,,,32,0,8,,,,,0,,74,100
25216,note_off,,,,,64,0,8,,,,,0,,74,100
25216,note_off,,,,,256,0,11,,,,,3,,56,100
25216,note_off,,,,,256,0,12,,,,,4,,44,100
25216,note_off,,,,,256,0,13,,,,,5,,62,100
25216,note_off,,,,,0,0,13,,,,,5,,64,100
25216,note_off,,,,,256,0,14,,,,,5,,56,100
25248,note_on,,,,,32,0,8,,,,,0,,76,100
25312,note_off,,,,,64,0,8,,,,,0,,76,100
25344,note_on,,,,,128,0,12,,,,,4,,45,85
25344,note_on,,,,,128,0,11,,,,,3,,57,85
25344,note_on,,,,,128,0,13,,,,,5,,60,100
25344,note_on,,,,,0,0,13,,,,,5,,64,100
25344,note_on,,,,,128,0,14,,,,,5,,57,100
25344,note_on,,,,,32,0,8,,,,,0,,72,100
25408,note_off,,,,,64,0,8,,,,,0,,72,100
25440,note_on,,,,,32,0,8,,,,,0,,74,100
25472,note_off,,,,,128,0,14,,,,,5,,57,100
25472,note_off,,,,,128,0,12,,,,,4,,45,100
25472,note_off,,,,,0,0,13,,,,,5,,64,100
25472,note_off,,,,,128,0,11,,,,,3,,57,100
25472,note_off,,,,,128,0,13,,,,,5,,60,100
25504,note_off,,,,,64,0,8,,,,,0,,74,100
25536,note_on,,,,,64,0,11,,,,,3,,59,85
25536,note_on,,,,,64,0,13,,,,,5,,62,100
25536,note_on,,,,,32,0,8,,,,,0,,71,100
25536,note_on,,,,,64,0,14,,,,,5,,59,100
25536,note_on,,,,,64,0,12,,,,,4,,47,85
25600,note_off,,,,,64,0,8,,,,,0,,71,100
25632,note_on,,,,,32,0,8,,,,,0,,72,100
25664,note_off,,,,,128,0,11,,,,,3,,59,100
25664,note_off,,,,,128,0,14,,,,,5,,59,100
25664,note_off,,,,,128,0,13,,,,,5,,62,100
25664,note_off,,,,,128,0,12,,,,,4,,47,100
25696,note_off,,,,,64,0,8,,,,,0,,72,100
25728,note_on,,,,,64,0,11,,,,,3,,60,85
25728,note_on,,,,,64,0,13,,,,,5,,64,100
25728,note_on,,,,,64,0,14,,,,,5,,60,100
25728,note_on,,,,,64,0,12,,,,,4,,48,85
25728,note_on,,,,,32,0,8,,,,,0,,69,100
25856,note_off,,,,,128,0,13,,,,,5,,64,100
25856,note_off,,,,,128,0,11,,,,,3,,60,100
25856,note_off,,,,,128,0,8,,,,,0,,69,100
25856,note_off,,,,,128,0,12,,,,,4,,48,100
25856,note_off,,,,,128,0,14,,,,,5,,60,100
25920,note_on,,,,,64,0,12,,,,,4,,45,70
25920,note_on,,,,,0,0,13,,,,,5,,64,100
25920,note_on,,,,,64,0,13,,,,,5,,60,100
25920,note_on,,,,,64,0,11,,,,,3,,57,70
25920,note_on,,,,,64,0,14,,,,,5,,57,100
25920,note_on,,,,,64,0,8,,,,,0,,81,85
26048,note_off,,,,,0,0,13,,,,,5,,64,100
26048,note_off,,,,,128,0,13,,,,,5,,60,100
26048,note_off,,,,,128,0,11,,,,,3,,57,100
26048,note_off,,,,,128,0,12,,,,,4,,45,100
26048,note_off,,,,,128,0,14,,,,,5,,57,100
26048,note_off,,,,,128,0,8,,,,,0,,81,100
26112,note_on,,,,,0,0,13,,,,,5,,65,100
26112,note_on,,,,,64,0,14,,,,,5,,59,100
26112,note_on,,,,,64,0,11,,,,,3,,59,70
26112,note_on,,,,,64,0,8,,,,,0,,79,85
26112,note_on,,,,,64,0,12,,,,,4,,47,70
26112,note_on,,,,,64,0,13,,,,,5,,62,100
26176,note_off,,,,,64,0,8,,,,,0,,79,100
26208,note_on,,,,,32,0,8,,,,,0,,81,85
26272,note_off,,,,,64,0,8,,,,,0,,81,100
26304,note_on,,,,,32,0,8,,,,,0,,77,85
26368,note_off,,,,,256,0,14,,,,,5,,59,100
26368,note_off,,,,,0,0,13,,,,,5,,65,100
26368,note_off,,,,,256,0,13,,,,,5,,62,100
26368,note_off,,,,,256,0,12,,,,,4,,47,100
26368,note_off,,,,,256,0,11,,,,,3,,59,100
26368,note_off,,,,,64,0,8,,,,,0,,77,100
26400,note_on,,,,,32,0,8,,,,,0,,79,85
26464,note_off,,,,,64,0,8,,,,,0,,79,100
26496,note_on,,,,,128,0,14,,,,,5,,56,100
26496,note_on,,,,,32,0,8,,,,,0,,76,85
26496,note_on,,,,,128,0,11,,,,,3,,56,70
26496,note_on,,,,,128,0,12,,,,,4,,44,70
26496,note_on,,,,,128,0,13,,,,,5,,62,100
26496,note_on,,,,,0,0,13,,,,,5,,64,100
26560,note_off,,,,,64,0,8,,,,,0,,76,100
26592,note_on,,,,,32,0,8,,,,,0,,77,85
26656,note_off,,,,,64,0,8,,,,,0,,77,100
26688,note_on,,,,,32,0,8,,,,,0,,74,85
26752,note_off,,,,,256,0,12,,,,,4,,44,100
26752,note_off,,,,,64,0,8,,,,,0,,74,100
26752,note_off,,,,,256,0,13,,,,,5,,62,100
26752,note_off,,,,,256,0,11,,,,,3,,56,100
26752,note_off,,,,,256,0,14,,,,,5,,56,100
26752,note_off,,,,,0,0,13,,,,,5,,64,100
26784,note_on,,,,,32,0,8,,,,,0,,76,85
26848,note_off,,,,,64,0,8,,,,,0,,76,100
26880,note_on,,,,,32,0,8,,,,,0,,72,85
26880,note_on,,,,,0,0,13,,,,,5,,64,100
26880,note_on,,,,,128,0,13,,,,,5,,60,100
26880,note_on,,,,,128,0,11,,,,,3,,57,70
26880,note_on,,,,,128,0,14,,,,,5,,57,100
26880,note_on,,,,,128,0,12,,,,,4,,45,70
26944,note_off,,,,,64,0,8,,,,,0,,72,100
26976,note_on,,,,,32,0,8,,,,,0,,74,85
27008,note_off,,,,,128,0,13,,,,,5,,60,100
27008,note_off,,,,,128,0,14,,,,,5,,57,100
27008,note_off,,,,,128,0,12,,,,,4,,45,100
27008,note_off,,,,,0,0,13,,,,,5,,64,100
27008,note_off,,,,,128,0,11,,,,,3,,57,100
27040,note_off,,,,,64,0,8,,,,,0,,74,100
27072,note_on,,,,,64,0,13,,,,,5,,62,100
27072,note_on,,,,,64,0,12,,,,,4,,47,70
27072,note_on,,,,,32,0,8,,,,,0,,71,85
27072,note_on,,,,,64,0,11,,,,,3,,59,70
27072,note_on,,,,,64,0,14,,,,,5,,59,100
27136,note_off,,,,,64,0,8,,,,,0,,71,100
27168,note_on,,,,,32,0,8,,,,,0,,72,85
27200,note_off,,,,,128,0,11,,,,,3,,59,100
27200,note_off,,,,,128,0,14,,,,,5,,59,100
27200,note_off,,,,,128,0,13,,,,,5,,62,100
27200,note_off,,,,,128,0,12,,,,,4,,47,100
27232,note_off,,,,,64,0,8,,,,,0,,72,100
27264,note_on,,,,,64,0,12,,,,,4,,48,70
27264,note_on,,,,,32,0,8,,,,,0,,69,85
27264,note_on,,,,,64,0,14,,,,,5,,60,100
27264,note_on,,,,,64,0,11,,,,,3,,60,70
27264,note_on,,,,,64,0,13,,,,,5,,64,100
27392,note_off,,,,,128,0,13,,,,,5,,64,100
27392,note_off,,,,,128,0,8,,,,,0,,69,100
27392,note_off,,,,,128,0,14,,,,,5,,60,100
27392,note_off,,,,,128,0,11,,,,,3,,60,100
27392,note_off,,,,,128,0,12,,,,,4,,48,100
27456,note_on,,,,,64,0,11,,,,,3,,57,85
27456,note_on,,,,,64,0,13,,,,,5,,60,100
27456,note_on,,,,,64,0,8,,,,,0,,76,100
27456,note_on,,,,,64,0,14,,,,,5,,57,100
27456,note_on,,,,,0,0,13,,,,,5,,64,100
27456,note_on,,,,,64,0,12,,,,,4,,45,85
27584,note_off,,,,,128,0,8,,,,,0,,76,100
27584,note_off,,,,,128,0,11,,,,,3,,57,100
27584,note_off,,,,,128,0,12,,,,,4,,45,100
27584,note_off,,,,,0,0,13,,,,,5,,64,100
27584,note_off,,,,,128,0,13,,,,,5,,60,100
27584,note_off,,,,,128,0,14,,,,,5,,57,100
27648,note_on,,,,,64,0,11,,,,,3,,52,85
27648,note_on,,,,,0,0,13,,,,,5,,67,100
27648,note_on,,,,,64,0,12,,,,,4,,40,85
27648,note_on,,,,,64,0,13,,,,,5,,59,100
27648,note_on,,,,,64,0,8,,,,,0,,76,100
27648,note_on,,,,,64,0,14,,,,,5,,52,100
27712,note_off,,,,,64,0,8,,,,,0,,76,100
27744,note_on,,,,,32,0,8,,,,,0,,79,100
27808,note_off,,,,,64,0,8,,,,,0,,79,100
27840,note_on,,,,,32,0,8,,,,,0,,77,100
27904,note_off,,,,,256,0,12,,,,,4,,40,100
27904,note_off,,,,,256,0,14,,,,,5,,52,100
27904,note_off,,,,,64,0,8,,,,,0,,77,100
27904,note_off,,,,,256,0,13,,,,,5,,59,100
27904,note_off,,,,,256,0,11,,,,,3,,52,100
27904,note_off,,,,,0,0,13,,,,,5,,67,100
27936,note_on,,,,,32,0,8,,,,,0,,79,100
28000,note_off,,,,,64,0,8,,,,,0,,79,100
28032,note_on,,,,,32,0,8,,,,,0,,76,100
28096,note_off,,,,,64,0,8,,,,,0,,76,100
28128,note_on,,,,,32,0,8,,,,,0,,79,100
28192,note_off,,,,,64,0,8,,,,,0,,79,100
28224,note_on,,,,,32,0,8,,,,,0,,77,100
28288,note_off,,,,,64,0,8,,,,,0,,77,100
28320,note_on,,,,,32,0,8,,,,,0,,76,100
28384,note_off,,,,,64,0,8,,,,,0,,76,100
28416,note_on,,,,,512,0,13,,,,,5,,64,100
28416,note_on,,,,,512,0,11,,,,,3,,61,85
28416,note_on,,,,,512,0,14,,,,,5,,61,100
28416,note_on,,,,,0,0,13,,,,,5,,69,100
28416,note_on,,,,,32,0,8,,,,,0,,81,100
28416,note_on,,,,,512,0,12,,,,,4,,49,85
28508,note_off,,,,,92,0,8,,,,,0,,81,100
28512,note_on,,,,,4,0,8,,,,,0,,79,100
28544,note_off,,,,,0,0,13,,,,,5,,69,100
28544,note_off,,,,,128,0,14,,,,,5,,61,100
28544,note_off,,,,,128,0,11,,,,,3,,61,100
28544,note_off,,,,,128,0,12,,,,,4,,49,100
28544,note_off,,,,,128,0,13,,,,,5,,64,100
28604,note_off,,,,,92,0,8,,,,,0,,79,100
28608,note_on,,,,,64,0,13,,,,,5,,61,100
28608,note_on,,,,,64,0,12,,,,,4,,45,85
28608,note_on,,,,,64,0,11,,,,,3,,57,85
28608,note_on,,,,,0,0,13,,,,,5,,64,100
28608,note_on,,,,,4,0,8,,,,,0,,77,100
28608,note_on,,,,,64,0,14,,,,,5,,57,100
28700,note_off,,,,,92,0,8,,,,,0,,77,100
28704,note_on,,,,,4,0,8,,,,,0,,76,100
28736,note_off,,,,,128,0,12,,,,,4,,45,100
28736,note_off,,,,,0,0,13,,,,,5,,64,100
28736,note_off,,,,,128,0,11,,,,,3,,57,100
28736,note_off,,,,,128,0,13,,,,,5,,61,100
28736,note_off,,,,,128,0,14,,,,,5,,57,100
28768,note_off,,,,,64,0,8,,,,,0,,76,100
28800,note_on,,,,,64,0,14,,,,,5,,61,100
28800,note_on,,,,,0,0,13,,,,,5,,64,100
28800,note_on,,,,,64,0,13,,,,,5,,69,100
28800,note_on,,,,,32,0,8,,,,,0,,81,100
28800,note_on,,,,,64,0,12,,,,,4,,49,85
28800,note_on,,,,,64,0,11,,,,,3,,61,85
28892,note_off,,,,,92,0,8,,,,,0,,81,100
28896,note_on,,,,,4,0,8,,,,,0,,79,100
28928,note_off,,,,,128,0,14,,,,,5,,61,100
28928,note_off,,,,,128,0,11,,,,,3,,61,100
28928,note_off,,,,,128,0,13,,,,,5,,69,100
28928,note_off,,,,,0,0,13,,,,,5,,64,100
28928,note_off,,,,,128,0,12,,,,,4,,49,100
28988,note_off,,,,,92,0,8,,,,,0,,79,100
28992,note_on,,,,,64,0,13,,,,,5,,61,100
28992,note_on,,,,,0,0,13,,,,,5,,64,100
28992,note_on,,,,,64,0,14,,,,,5,,57,100
28992,note_on,,,,,4,0,8,,,,,0,,77,100
28992,note_on,,,,,64,0,11,,,,,3,,57,85
28992,note_on,,,,,64,0,12,,,,,4,,45,85
29084,note_off,,,,,92,0,8,,,,,0,,77,100
29088,note_on,,,,,4,0,8,,,,,0,,76,100
29120,note_off,,,,,128,0,12,,,,,4,,45,100
29120,note_off,,,,,128,0,14,,,,,5,,57,100
29120,note_off,,,,,128,0,11,,,,,3,,57,100
29120,note_off,,,,,128,0,13,,,,,5,,61,100
29120,note_off,,,,,0,0,13,,,,,5,,64,100
29152,note_off,,,,,64,0,8,,,,,0,,76,100
29184,note_on,,,,,64,0,13,,,,,5,,65,100
29184,note_on,,,,,0,0,13,,,,,5,,69,100
29184,note_on,,,,,32,0,8,,,,,0,,77,100
29184,note_on,,,,,64,0,14,,,,,5,,62,100
29184,note_on,,,,,64,0,12,,,,,4,,50,85
29184,note_on,,,,,64,0,11,,,,,3,,62,85
29248,note_off,,,,,64,0,8,,,,,0,,77,100
29280,note_on,,,,,32,0,8,,,,,0,,74,100
29312,note_off,,,,,128,0,14,,,,,5,,62,100
29312,note_off,,,,,128,0,11,,,,,3,,62,100
29312,note_off,,,,,128,0,12,,,,,4,,50,100
29312,note_off,,,,,0,0,13,,,,,5,,69,100
29312,note_off,,,,,128,0,13,,,,,5,,65,100
29344,note_off,,,,,64,0,8,,,,,0,,74,100
29376,note_on,,,,,64,0,12,,,,,4,,38,85
29376,note_on,,,,,64,0,14,,,,,5,,50,100
29376,note_on,,,,,0,0,13,,,,,5,,65,100
29376,note_on,,,,,64,0,13,,,,,5,,57,100
29376,note_on,,,,,32,0,8,,,,,0,,73,100
29376,note_on,,,,,64,0,11,,,,,3,,50,85
29440,note_off,,,,,64,0,8,,,,,0,,73,100
29472,note_on,,,,,32,0,8,,,,,0,,74,100
29504,note_off,,,,,128,0,11,,,,,3,,50,100
29504,note_off,,,,,0,0,13,,,,,5,,65,100
29504,note_off,,,,,128,0,13,,,,,5,,57,100
29504,note_off,,,,,128,0,14,,,,,5,,50,100
29504,note_off,,,,,128,0,12,,,,,4,,38,100
29536,note_off,,,,,64,0,8,,,,,0,,74,100
29568,note_on,,,,,32,0,8,,,,,0,,77,99
29632,note_off,,,,,64,0,8,,,,,0,,77,100
29664,note_on,,,,,32,0,8,,,,,0,,74,99
29728,note_off,,,,,64,0,8,,,,,0,,74,100
29760,note_on,,,,,32,0,8,,,,,0,,73,99
29824,note_off,,,,,64,0,8,,,,,0,,73,100
29856,note_on,,,,,32,0,8,,,,,0,,74,98
29920,note_off,,,,,64,0,8,,,,,0,,74,100
29952,note_on,,,,,0,0,13,,,,,5,,67,100
29952,note_on,,,,,448,0,13,,,,,5,,62,100
29952,note_on,,,,,448,0,14,,,,,5,,59,100
29952,note_on,,,,,448,0,12,,,,,4,,47,85
29952,note_on,,,,,32,0,8,,,,,0,,79,98
29952,note_on,,,,,448,0,11,,,,,3,,59,85
30044,note_off,,,,,92,0,8,,,,,0,,79,100
30048,note_on,,,,,4,0,8,,,,,0,,77,98
30080,note_off,,,,,128,0,11,,,,,3,,59,100
30080,note_off,,,,,128,0,12,,,,,4,,47,100
30080,note_off,,,,,128,0,14,,,,,5,,59,100
30080,note_off,,,,,0,0,13,,,,,5,,67,100
30080,note_off,,,,,128,0,13,,,,,5,,62,100
30140,note_off,,,,,92,0,8,,,,,0,,77,100
30144,note_on,,,,,64,0,11,,,,,3,,55,85
30144,note_on,,,,,4,0,8,,,,,0,,76,97
30144,note_on,,,,,64,0,13,,,,,5,,59,100
30144,note_on,,,,,64,0,14,,,,,5,,55,100
30144,note_on,,,,,0,0,13,,,,,5,,62,100
30144,note_on,,,,,64,0,12,,,,,4,,43,85
30236,note_off,,,,,92,0,8,,,,,0,,76,100
30240,note_on,,,,,4,0,8,,,,,0,,74,97
30272,note_off,,,,,128,0,13,,,,,5,,59,100
30272,note_off,,,,,0,0,13,,,,,5,,62,100
30272,note_off,,,,,128,0,14,,,,,5,,55,100
30272,note_off,,,,,128,0,12,,,,,4,,43,100
30272,note_off,,,,,128,0,11,,,,,3,,55,100
30304,note_off,,,,,64,0,8,,,,,0,,74,100
30336,note_on,,,,,64,0,14,,,,,5,,59,100
30336,note_on,,,,,32,0,8,,,,,0,,79,97
30336,note_on,,,,,0,0,13,,,,,5,,67,100
30336,note_on,,,,,64,0,11,,,,,3,,59,85
30336,note_on,,,,,64,0,12,,,,,4,,47,85
30336,note_on,,,,,64,0,13,,,,,5,,62,100
30428,note_off,,,,,92,0,8,,,,,0,,79,100
30432,note_on,,,,,4,0,8,,,,,0,,77,96
30464,note_off,,,,,128,0,12,,,,,4,,47,100
30464,note_off,,,,,128,0,14,,,,,5,,59,100
30464,note_off,,,,,128,0,11,,,,,3,,59,100
30464,note_off,,,,,128,0,13,,,,,5,,62,100
30464,note_off,,,,,0,0,13,,,,,5,,67,100
30524,note_off,,,,,92,0,8,,,,,0,,77,100
30528,note_on,,,,,0,0,13,,,,,5,,62,100
30528,note_on,,,,,64,0,13,,,,,5,,59,100
30528,note_on,,,,,64,0,11,,,,,3,,55,85
30528,note_on,,,,,4,0,8,,,,,0,,76,96
30528,note_on,,,,,64,0,12,,,,,4,,43,85
30528,note_on,,,,,64,0,14,,,,,5,,55,100
30620,note_off,,,,,92,0,8,,,,,0,,76,100
30624,note_on,,,,,4,0,8,,,,,0,,74,96
30656,note_off,,,,,128,0,13,,,,,5,,59,100
30656,note_off,,,,,128,0,12,,,,,4,,43,100
30656,note_off,,,,,128,0,14,,,,,5,,55,100
30656,note_off,,,,,128,0,11,,,,,3,,55,100
30656,note_off,,,,,0,0,13,,,,,5,,62,100
30688,note_off,,,,,64,0,8,,,,,0,,74,100
30720,note_on,,,,,64,0,14,,,,,5,,60,100
30720,note_on,,,,,64,0,13,,,,,5,,64,100
30720,note_on,,,,,64,0,12,,,,,4,,48,85
30720,note_on,,,,,64,0,11,,,,,3,,60,85
30720,note_on,,,,,32,0,8,,,,,0,,76,96
30720,note_on,,,,,0,0,13,,,,,5,,67,100
30784,note_off,,,,,64,0,8,,,,,0,,76,100
30816,note_on,,,,,32,0,8,,,,,0,,72,95
30848,note_off,,,,,128,0,14,,,,,5,,60,100
30848,note_off,,,,,128,0,11,,,,,3,,60,100
30848,note_off,,,,,128,0,12,,,,,4,,48,100
30848,note_off,,,,,128,0,13,,,,,5,,64,100
30848,note_off,,,,,0,0,13,,,,,5,,67,100
30880,note_off,,,,,64,0,8,,,,,0,,72,100
30912,note_on,,,,,64,0,14,,,,,5,,48,100
30912,note_on,,,,,64,0,12,,,,,4,,36,85
30912,note_on,,,,,64,0,13,,,,,5,,55,100
30912,note_on,,,,,32,0,8,,,,,0,,71,95
30912,note_on,,,,,0,0,13,,,,,5,,64,100
30912,note_on,,,,,64,0,11,,,,,3,,48,85
30976,note_off,,,,,64,0,8,,,,,0,,71,100
31008,note_on,,,,,32,0,8,,,,,0,,72,95
31040,note_off,,,,,0,0,13,,,,,5,,64,100
31040,note_off,,,,,128,0,13,,,,,5,,55,100
31040,note_off,,,,,128,0,12,,,,,4,,36,100
31040,note_off,,,,,128,0,14,,,,,5,,48,100
31040,note_off,,,,,128,0,11,,,,,3,,48,100
31072,note_off,,,,,64,0,8,,,,,0,,72,100
31104,note_on,,,,,32,0,8,,,,,0,,76,94
31168,note_off,,,,,64,0,8,,,,,0,,76,100
31200,note_on,,,,,32,0,8,,,,,0,,72,94
31264,note_off,,,,,64,0,8,,,,,0,,72,100
31296,note_on,,,,,32,0,8,,,,,0,,71,94
31360,note_off,,,,,64,0,8,,,,,0,,71,100
31392,note_on,,,,,32,0,8,,,,,0,,72,93
31456,note_off,,,,,64,0,8,,,,,0,,72,100
31488,note_on,,,,,448,0,13,,,,,5,,60,100
31488,note_on,,,,,448,0,14,,,,,5,,57,100
31488,note_on,,,,,448,0,12,,,,,4,,45,85
31488,note_on,,,,,448,0,11,,,,,3,,57,85
31488,note_on,,,,,0,0,13,,,,,5,,65,100
31488,note_on,,,,,32,0,8,,,,,0,,77,93
31580,note_off,,,,,92,0,8,,,,,0,,77,100
31584,note_on,,,,,4,0,8,,,,,0,,76,93
31616,note_off,,,,,128,0,12,,,,,4,,45,100
31616,note_off,,,,,0,0,13,,,,,5,,65,100
31616,note_off,,,,,128,0,13,,,,,5,,60,100
31616,note_off,,,,,128,0,14,,,,,5,,57,100
31616,note_off,,,,,128,0,11,,,,,3,,57,100
31676,note_off,,,,,92,0,8,,,,,0,,76,100
31680,note_on,,,,,0,0,13,,,,,5,,60,100
31680,note_on,,,,,64,0,13,,,,,5,,57,100
31680,note_on,,,,,64,0,14,,,,,5,,53,100
31680,note_on,,,,,4,0,8,,,,,0,,74,92
31680,note_on,,,,,64,0,11,,,,,3,,53,85
31680,note_on,,,,,64,0,12,,,,,4,,41,85
31772,note_off,,,,,92,0,8,,,,,0,,74,100
31776,note_on,,,,,4,0,8,,,,,0,,72,92
31808,note_off,,,,,128,0,14,,,,,5,,53,100
31808,note_off,,,,,128,0,12,,,,,4,,41,100
31808,note_off,,,,,0,0,13,,,,,5,,60,100
31808,note_off,,,,,128,0,11,,,,,3,,53,100
31808,note_off,,,,,128,0,13,,,,,5,,57,100
31840,note_off,,,,,64,0,8,,,,,0,,72,100
31872,note_on,,,,,64,0,12,,,,,4,,45,85
31872,note_on,,,,,32,0,8,,,,,0,,77,92
31872,note_on,,,,,64,0,14,,,,,5,,57,100
31872,note_on,,,,,0,0,13,,,,,5,,65,100
31872,note_on,,,,,64,0,13,,,,,5,,60,100
31872,note_on,,,,,64,0,11,,,,,3,,57,85
31964,note_off,,,,,92,0,8,,,,,0,,77,100
31968,note_on,,,,,4,0,8,,,,,0,,76,91
32000,note_off,,,,,128,0,12,,,,,4,,45,100
32000,note_off,,,,,128,0,13,,,,,5,,60,100
32000,note_off,,,,,128,0,14,,,,,5,,57,100
32000,note_off,,,,,0,0,13,,,,,5,,65,100
32000,note_off,,,,,128,0,11,,,,,3,,57,100
32060,note_off,,,,,92,0,8,,,,,0,,76,100
32064,note_on,,,,,0,0,13,,,,,5,,60,100
32064,note_on,,,,,64,0,13,,,,,5,,57,100
32064,note_on,,,,,64,0,11,,,,,3,,53,85
32064,note_on,,,,,64,0,12,,,,,4,,41,85
32064,note_on,,,,,4,0,8,,,,,0,,74,91
32064,note_on,,,,,64,0,14,,,,,5,,53,100
32156,note_off,,,,,92,0,8,,,,,0,,74,100
32160,note_on,,,,,4,0,8,,,,,0,,72,91
32192,note_off,,,,,128,0,11,,,,,3,,53,100
32192,note_off,,,,,128,0,12,,,,,4,,41,100
32192,note_off,,,,,0,0,13,,,,,5,,60,100
32192,note_off,,,,,128,0,13,,,,,5,,57,100
32192,note_off,,,,,128,0,14,,,,,5,,53,100
32224,note_off,,,,,64,0,8,,,,,0,,72,100
32256,note_on,,,,,64,0,12,,,,,4,,47,85
32256,note_on,,,,,32,0,8,,,,,0,,74,91
32256,note_on,,,,,64,0,11,,,,,3,,59,85
32256,note_on,,,,,64,0,14,,,,,5,,59,100
32256,note_on,,,,,64,0,13,,,,,5,,62,100
32256,note_on,,,,,0,0,13,,,,,5,,65,100
32320,note_off,,,,,64,0,8,,,,,0,,74,100
32352,note_on,,,,,32,0,8,,,,,0,,71,90
32384,note_off,,,,,128,0,11,,,,,3,,59,100
32384,note_off,,,,,128,0,13,,,,,5,,62,100
32384,note_off,,,,,0,0,13,,,,,5,,65,100
32384,note_off,,,,,128,0,14,,,,,5,,59,100
32384,note_off,,,,,128,0,12,,,,,4,,47,100
32416,note_off,,,,,64,0,8,,,,,0,,71,100
32448,note_on,,,,,64,0,13,,,,,5,,53,100
32448,note_on,,,,,64,0,12,,,,,4,,35,85
32448,note_on,,,,,32,0,8,,,,,0,,69,90
32448,note_on,,,,,0,0,13,,,,,5,,62,100
32448,note_on,,,,,64,0,14,,,,,5,,47,100
32448,note_on,,,,,64,0,11,,,,,3,,47,85
32512,note_off,,,,,64,0,8,,,,,0,,69,100
32544,note_on,,,,,32,0,8,,,,,0,,71,90
32576,note_off,,,,,0,0,13,,,,,5,,62,100
32576,note_off,,,,,128,0,12,,,,,4,,35,100
32576,note_off,,,,,128,0,14,,,,,5,,47,100
32576,note_off,,,,,128,0,13,,,,,5,,53,100
32576,note_off,,,,,128,0,11,,,,,3,,47,100
32608,note_off,,,,,64,0,8,,,,,0,,71,100
32640,note_on,,,,,32,0,8,,,,,0,,74,89
32704,note_off,,,,,64,0,8,,,,,0,,74,100
32736,note_on,,,,,32,0,8,,,,,0,,71,89
32800,note_off,,,,,64,0,8,,,,,0,,71,100
32832,note_on,,,,,32,0,8,,,,,0,,69,89
32896,note_off,,,,,64,0,8,,,,,0,,69,100
32928,note_on,,,,,32,0,8,,,,,0,,71,88
32992,note_off,,,,,64,0,8,,,,,0,,71,100
33024,note_on,,,,,32,0,8,,,,,0,,76,88
33024,note_on,,,,,448,0,14,,,,,5,,56,100
33024,note_on,,,,,0,0,13,,,,,5,,71,100
33024,note_on,,,,,448,0,13,,,,,5,,68,100
33024,note_on,,,,,448,0,12,,,,,4,,44,85
33024,note_on,,,,,448,0,11,,,,,3,,56,85
33116,note_off,,,,,92,0,8,,,,,0,,76,100
33120,note_on,,,,,4,0,8,,,,,0,,74,88
33152,note_off,,,,,128,0,14,,,,,5,,56,100
33152,note_off,,,,,128,0,11,,,,,3,,56,100
33152,note_off,,,,,128,0,12,,,,,4,,44,100
33152,note_off,,,,,128,0,13,,,,,5,,68,100
33152,note_off,,,,,0,0,13,,,,,5,,71,100
33212,note_off,,,,,92,0,8,,,,,0,,74,100
33216,note_on,,,,,64,0,13,,,,,5,,64,100
33216,note_on,,,,,0,0,13,,,,,5,,68,100
33216,note_on,,,,,64,0,14,,,,,5,,52,100
33216,note_on,,,,,64,0,12,,,,,4,,40,85
33216,note_on,,,,,64,0,11,,,,,3,,52,85
33216,note_on,,,,,4,0,8,,,,,0,,72,87
33308,note_off,,,,,92,0,8,,,,,0,,72,100
33312,note_on,,,,,4,0,8,,,,,0,,71,87
33344,note_off,,,,,0,0,13,,,,,5,,68,100
33344,note_off,,,,,128,0,14,,,,,5,,52,100
33344,note_off,,,,,128,0,13,,,,,5,,64,100
33344,note_off,,,,,128,0,11,,,,,3,,52,100
33344,note_off,,,,,128,0,12,,,,,4,,40,100
33376,note_off,,,,,64,0,8,,,,,0,,71,100
33408,note_on,,,,,64,0,13,,,,,5,,68,100
33408,note_on,,,,,0,0,13,,,,,5,,71,100
33408,note_on,,,,,32,0,8,,,,,0,,76,87
33408,note_on,,,,,64,0,14,,,,,5,,56,100
33408,note_on,,,,,64,0,12,,,,,4,,44,85
33408,note_on,,,,,64,0,11,,,,,3,,56,85
33500,note_off,,,,,92,0,8,,,,,0,,76,100
33504,note_on,,,,,4,0,8,,,,,0,,74,86
33536,note_off,,,,,128,0,12,,,,,4,,44,100
33536,note_off,,,,,128,0,13,,,,,5,,68,100
33536,note_off,,,,,128,0,11,,,,,3,,56,100
33536,note_off,,,,,128,0,14,,,,,5,,56,100
33536,note_off,,,,,0,0,13,,,,,5,,71,100
33596,note_off,,,,,92,0,8,,,,,0,,74,100
33600,note_on,,,,,64,0,12,,,,,4,,40,85
33600,note_on,,,,,4,0,8,,,,,0,,72,86
33600,note_on,,,,,64,0,14,,,,,5,,52,100
33600,note_on,,,,,64,0,11,,,,,3,,52,85
33600,note_on,,,,,0,0,13,,,,,5,,68,100
33600,note_on,,,,,64,0,13,,,,,5,,64,100
33692,note_off,,,,,92,0,8,,,,,0,,72,100
33696,note_on,,,,,4,0,8,,,,,0,,71,86
33728,note_off,,,,,0,0,13,,,,,5,,68,100
33728,note_off,,,,,128,0,12,,,,,4,,40,100
33728,note_off,,,,,128,0,11,,,,,3,,52,100
33728,note_off,,,,,128,0,14,,,,,5,,52,100
33728,note_off,,,,,128,0,13,,,,,5,,64,100
33760,note_off,,,,,64,0,8,,,,,0,,71,100
33792,note_on,,,,,64,0,12,,,,,4,,45,85
33792,note_on,,,,,64,0,11,,,,,3,,57,85
33792,note_on,,,,,32,0,8,,,,,0,,72,86
33792,note_on,,,,,64,0,14,,,,,5,,57,100
33792,note_on,,,,,0,0,13,,,,,5,,64,100
33792,note_on,,,,,64,0,13,,,,,5,,72,100
33856,note_off,,,,,64,0,8,,,,,0,,72,100
33888,note_on,,,,,32,0,8,,,,,0,,69,100
33920,note_off,,,,,128,0,11,,,,,3,,57,100
33920,note_off,,,,,0,0,13,,,,,5,,64,100
33920,note_off,,,,,128,0,13,,,,,5,,72,100
33920,note_off,,,,,128,0,12,,,,,4,,45,100
33920,note_off,,,,,128,0,14,,,,,5,,57,100
33952,note_off,,,,,64,0,8,,,,,0,,69,100
33984,note_on,,,,,32,0,8,,,,,0,,72,100
33984,note_on,,,,,64,0,11,,,,,3,,45,85
33984,note_on,,,,,64,0,12,,,,,4,,33,85
33984,note_on,,,,,64,0,14,,,,,5,,45,100
33984,note_on,,,,,0,0,13,,,,,5,,60,100
33984,note_on,,,,,64,0,13,,,,,5,,64,100
34048,note_off,,,,,64,0,8,,,,,0,,72,100
34080,note_on,,,,,32,0,8,,,,,0,,76,100
34112,note_off,,,,,128,0,14,,,,,5,,45,100
34112,note_off,,,,,128,0,11,,,,,3,,45,100
34112,note_off,,,,,0,0,13,,,,,5,,60,100
34112,note_off,,,,,128,0,13,,,,,5,,64,100
34112,note_off,,,,,128,0,12,,,,,4,,33,100
34144,note_off,,,,,64,0,8,,,,,0,,76,100
34176,note_on,,,,,32,0,8,,,,,0,,81,100
34240,note_off,,,,,64,0,8,,,,,0,,81,100
34272,note_on,,,,,32,0,8,,,,,0,,83,100
34336,note_off,,,,,64,0,8,,,,,0,,83,100
34368,note_on,,,,,256,0,12,,,,,4,,45,85
34368,note_on,,,,,32,0,8,,,,,0,,81,100
34368,note_on,,,,,256,0,13,,,,,5,,64,100
34368,note_on,,,,,0,0,13,,,,,5,,72,100
34368,note_on,,,,,256,0,11,,,,,3,,57,85
34368,note_on,,,,,256,0,14,,,,,5,,57,100
34432,note_off,,,,,64,0,8,,,,,0,,81,100
34464,note_on,,,,,32,0,8,,,,,0,,83,100
34496,note_off,,,,,128,0,11,,,,,3,,57,100
34496,note_off,,,,,0,0,13,,,,,5,,72,100
34496,note_off,,,,,128,0,13,,,,,5,,64,100
34496,note_off,,,,,128,0,12,,,,,4,,45,100
34496,note_off,,,,,128,0,14,,,,,5,,57,100
34528,note_off,,,,,64,0,8,,,,,0,,83,100
34560,note_on,,,,,64,0,14,,,,,5,,57,100
34560,note_on,,,,,32,0,8,,,,,0,,72,100
34560,note_on,,,,,64,0,13,,,,,5,,64,100
34560,note_on,,,,,0,0,13,,,,,5,,72,100
34560,note_on,,,,,64,0,11,,,,,3,,57,85
34560,note_on,,,,,64,0,12,,,,,4,,45,85
34624,note_off,,,,,64,0,8,,,,,0,,72,100
34656,note_on,,,,,32,0,8,,,,,0,,69,100
34688,note_off,,,,,128,0,11,,,,,3,,57,100
34688,note_off,,,,,128,0,12,,,,,4,,45,100
34688,note_off,,,,,0,0,13,,,,,5,,72,100
34688,note_off,,,,,128,0,13,,,,,5,,64,100
34688,note_off,,,,,128,0,14,,,,,5,,57,100
34720,note_off,,,,,64,0,8,,,,,0,,69,100
34752,note_on,,,,,32,0,8,,,,,0,,72,100
34752,note_on,,,,,64,0,13,,,,,5,,60,100
34752,note_on,,,,,0,0,13,,,,,5,,64,100
34752,note_on,,,,,64,0,14,,,,,5,,45,100
34752,note_on,,,,,64,0,11,,,,,3,,45,85
34752,note_on,,,,,64,0,12,,,,,4,,33,85
34816,note_off,,,,,64,0,8,,,,,0,,72,100
34848,note_on,,,,,32,0,8,,,,,0,,76,100
34880,note_off,,,,,128,0,13,,,,,5,,60,100
34880,note_off,,,,,0,0,13,,,,,5,,64,100
34880,note_off,,,,,128,0,11,,,,,3,,45,100
34880,note_off,,,,,128,0,12,,,,,4,,33,100
34880,note_off,,,,,128,0,14,,,,,5,,45,100
34912,note_off,,,,,64,0,8,,,,,0,,76,100
34944,note_on,,,,,32,0,8,,,,,0,,81,100
35008,note_off,,,,,64,0,8,,,,,0,,81,100
35040,note_on,,,,,32,0,8,,,,,0,,83,100
35104,note_off,,,,,64,0,8,,,,,0,,83,100
35136,note_on,,,,,256,0,13,,,,,5,,64,100
35136,note_on,,,,,256,0,14,,,,,5,,57,100
35136,note_on,,,,,0,0,13,,,,,5,,72,100
35136,note_on,,,,,256,0,12,,,,,4,,45,85
35136,note_on,,,,,32,0,8,,,,,0,,81,100
35136,note_on,,,,,256,0,11,,,,,3,,57,85
35200,note_off,,,,,64,0,8,,,,,0,,81,100
35232,note_on,,,,,32,0,8,,,,,0,,83,100
35264,note_off,,,,,128,0,12,,,,,4,,45,100
35264,note_off,,,,,128,0,13,,,,,5,,64,100
35264,note_off,,,,,0,0,13,,,,,5,,72,100
35264,note_off,,,,,128,0,14,,,,,5,,57,100
35264,note_off,,,,,128,0,11,,,,,3,,57,100
35296,note_off,,,,,64,0,8,,,,,0,,83,100
35328,note_on,,,,,64,0,13,,,,,5,,66,100
35328,note_on,,,,,0,0,13,,,,,5,,75,100
35328,note_on,,,,,64,0,11,,,,,3,,59,85
35328,note_on,,,,,32,0,8,,,,,0,,75,100
35328,note_on,,,,,64,0,12,,,,,4,,47,85
35328,note_on,,,,,64,0,14,,,,,5,,59,100
35392,note_off,,,,,64,0,8,,,,,0,,75,100
35424,note_on,,,,,32,0,8,,,,,0,,71,100
35456,note_off,,,,,128,0,12,,,,,4,,47,100
35456,note_off,,,,,128,0,13,,,,,5,,66,100
35456,note_off,,,,,0,0,13,,,,,5,,75,100
35456,note_off,,,,,128,0,11,,,,,3,,59,100
35456,note_off,,,,,128,0,14,,,,,5,,59,100
35488,note_off,,,,,64,0,8,,,,,0,,71,100
35520,note_on,,,,,64,0,13,,,,,5,,63,100
35520,note_on,,,,,64,0,11,,,,,3,,47,85
35520,note_on,,,,,64,0,12,,,,,4,,35,85
35520,note_on,,,,,64,0,14,,,,,5,,47,100
35520,note_on,,,,,32,0,8,,,,,0,,75,100
35520,note_on,,,,,0,0,13,,,,,5,,66,100
35584,note_off,,,,,64,0,8,,,,,0,,75,100
35616,note_on,,,,,32,0,8,,,,,0,,78,100
35648,note_off,,,,,128,0,13,,,,,5,,63,100
35648,note_off,,,,,0,0,13,,,,,5,,66,100
35648,note_off,,,,,128,0,11,,,,,3,,47,100
35648,note_off,,,,,128,0,14,,,,,5,,47,100
35648,note_off,,,,,128,0,12,,,,,4,,35,100
35680,note_off,,,,,64,0,8,,,,,0,,78,100
35712,note_on,,,,,32,0,8,,,,,0,,81,100
35776,note_off,,,,,64,0,8,,,,,0,,81,100
35808,note_on,,,,,32,0,8,,,,,0,,83,100
35872,note_off,,,,,64,0,8,,,,,0,,83,100
35904,note_on,,,,,32,0,8,,,,,0,,81,100
35904,note_on,,,,,256,0,11,,,,,3,,59,85
35904,note_on,,,,,256,0,13,,,,,5,,66,100
35904,note_on,,,,,0,0,13,,,,,5,,69,100
35904,note_on,,,,,256,0,14,,,,,5,,59,100
35904,note_on,,,,,256,0,12,,,,,4,,47,85
35968,note_off,,,,,64,0,8,,,,,0,,81,100
36000,note_on,,,,,32,0,8,,,,,0,,83,100
36032,note_off,,,,,128,0,11,,,,,3,,59,100
36032,note_off,,,,,128,0,13,,,,,5,,66,100
36032,note_off,,,,,0,0,13,,,,,5,,69,100
36032,note_off,,,,,128,0,12,,,,,4,,47,100
36032,note_off,,,,,128,0,14,,,,,5,,59,100
36064,note_off,,,,,64,0,8,,,,,0,,83,100
36096,note_on,,,,,64,0,11,,,,,3,,59,85
36096,note_on,,,,,64,0,12,,,,,4,,47,85
36096,note_on,,,,,64,0,14,,,,,5,,59,100
36096,note_on,,,,,0,0,13,,,,,5,,75,100
36096,note_on,,,,,32,0,8,,,,,0,,75,100
36096,note_on,,,,,64,0,13,,,,,5,,66,100
36160,note_off,,,,,64,0,8,,,,,0,,75,100
36192,note_on,,,,,32,0,8,,,,,0,,71,100
36224,note_off,,,,,128,0,12,,,,,4,,47,100
36224,note_off,,,,,0,0,13,,,,,5,,75,100
36224,note_off,,,,,128,0,13,,,,,5,,66,100
36224,note_off,,,,,128,0,11,,,,,3,,59,100
36224,note_off,,,,,128,0,14,,,,,5,,59,100
36256,note_off,,,,,64,0,8,,,,,0,,71,100
36288,note_on,,,,,32,0,8,,,,,0,,75,100
36288,note_on,,,,,64,0,14,,,,,5,,47,100
36288,note_on,,,,,64,0,11,,,,,3,,47,85
36288,note_on,,,,,64,0,12,,,,,4,,35,85
36288,note_on,,,,,64,0,13,,,,,5,,63,100
36288,note_on,,,,,0,0,13,,,,,5,,66,100
36352,note_off,,,,,64,0,8,,,,,0,,75,100
36384,note_on,,,,,32,0,8,,,,,0,,78,100
36416,note_off,,,,,128,0,13,,,,,5,,63,100
36416,note_off,,,,,128,0,14,,,,,5,,47,100
36416,note_off,,,,,128,0,12,,,,,4,,35,100
36416,note_off,,,,,128,0,11,,,,,3,,47,100
36416,note_off,,,,,0,0,13,,,,,5,,66,100
36448,note_off,,,,,64,0,8,,,,,0,,78,100
36480,note_on,,,,,32,0,8,,,,,0,,81,100
36544,note_off,,,,,64,0,8,,,,,0,,81,100
36576,note_on,,,,,32,0,8,,,,,0,,83,100
36640,note_off,,,,,64,0,8,,,,,0,,83,100
36672,note_on,,,,,256,0,13,,,,,5,,63,100
36672,note_on,,,,,256,0,12,,,,,4,,47,85
36672,note_on,,,,,32,0,8,,,,,0,,81,100
36672,note_on,,,,,0,0,13,,,,,5,,69,100
36672,note_on,,,,,256,0,14,,,,,5,,59,100
36672,note_on,,,,,256,0,11,,,,,3,,59,85
36736,note_off,,,,,64,0,8,,,,,0,,81,100
36768,note_on,,,,,32,0,8,,,,,0,,83,100
36800,note_off,,,,,128,0,11,,,,,3,,59,100
36800,note_off,,,,,128,0,13,,,,,5,,63,100
36800,note_off,,,,,128,0,14,,,,,5,,59,100
36800,note_off,,,,,0,0,13,,,,,5,,69,100
36800,note_off,,,,,128,0,12,,,,,4,,47,100
36832,note_off,,,,,64,0,8,,,,,0,,83,100
36864,note_on,,,,,64,0,13,,,,,5,,67,100
36864,note_on,,,,,64,0,12,,,,,4,,52,85
36864,note_on,,,,,64,0,14,,,,,5,,64,100
36864,note_on,,,,,32,0,8,,,,,0,,79,100
36864,note_on,,,,,64,0,11,,,,,3,,64,85
36992,note_off,,,,,128,0,12,,,,,4,,52,100
36992,note_off,,,,,128,0,14,,,,,5,,64,100
36992,note_off,,,,,128,0,8,,,,,0,,79,100
36992,note_off,,,,,128,0,11,,,,,3,,64,100
37052,note_off,,,,,188,0,13,,,,,5,,67,100
37056,note_on,,,,,64,0,14,,,,,5,,57,100
37056,note_on,,,,,64,0,8,,,,,0,,78,100
37056,note_on,,,,,4,0,13,,,,,5,,66,100
37056,note_on,,,,,64,0,11,,,,,3,,57,85
37056,note_on,,,,,64,0,12,,,,,4,,45,85
37120,note_off,,,,,64,0,8,,,,,0,,78,100
37152,note_on,,,,,32,0,8,,,,,0,,76,100
37184,note_off,,,,,128,0,11,,,,,3,,57,100
37184,note_off,,,,,128,0,12,,,,,4,,45,100
37184,note_off,,,,,128,0,13,,,,,5,,66,100
37184,note_off,,,,,128,0,14,,,,,5,,57,100
37216,note_off,,,,,64,0,8,,,,,0,,76,100
37248,note_on,,,,,64,0,13,,,,,5,,63,100
37248,note_on,,,,,64,0,12,,,,,4,,47,85
37248,note_on,,,,,64,0,11,,,,,3,,59,85
37248,note_on,,,,,32,0,8,,,,,0,,75,100
37248,note_on,,,,,0,0,13,,,,,5,,66,100
37248,note_on,,,,,64,0,14,,,,,5,,59,100
37292,note_off,,,,,44,0,8,,,,,0,,75,100
37296,note_on,,,,,4,0,8,,,,,0,,76,100
37340,note_off,,,,,44,0,8,,,,,0,,76,100
37344,note_on,,,,,4,0,8,,,,,0,,75,100
37376,note_off,,,,,128,0,11,,,,,3,,59,100
37376,note_off,,,,,128,0,14,,,,,5,,59,100
37376,note_off,,,,,128,0,13,,,,,5,,63,100
37376,note_off,,,,,0,0,13,,,,,5,,66,100
37376,note_off,,,,,128,0,12,,,,,4,,47,100
37388,note_off,,,,,44,0,8,,,,,0,,75,100
37392,note_on,,,,,4,0,8,,,,,0,,76,100
37436,note_off,,,,,44,0,8,,,,,0,,76,100
37440,note_on,,,,,4,0,8,,,,,0,,75,100
37440,note_on,,,,,64,0,14,,,,,5,,47,100
37440,note_on,,,,,0,0,13,,,,,5,,63,100
37440,note_on,,,,,64,0,12,,,,,4,,35,85
37440,note_on,,,,,64,0,13,,,,,5,,54,100
37440,note_on,,,,,64,0,11,,,,,3,,47,85
37504,note_off,,,,,64,0,8,,,,,0,,75,100
37536,note_on,,,,,32,0,8,,,,,0,,76,100
37568,note_off,,,,,128,0,12,,,,,4,,35,100
37568,note_off,,,,,128,0,13,,,,,5,,54,100
37568,note_off,,,,,128,0,14,,,,,5,,47,100
37568,note_off,,,,,0,0,13,,,,,5,,63,100
37568,note_off,,,,,128,0,11,,,,,3,,47,100
37600,note_off,,,,,64,0,8,,,,,0,,76,100
37632,note_on,,,,,64,0,11,,,,,3,,52,100
37632,note_on,,,,,15104,0,10,,,,,2,,67,100
37632,note_on,,,,,64,0,13,,,,,5,,64,100
37632,note_on,,,,,64,0,14,,,,,5,,52,100
37632,note_on,,,,,32,0,8,,,,,0,,76,100
37632,note_on,,,,,64,0,12,,,,,4,,40,100
37632,note_on,,,,,0,0,13,,,,,5,,55,100
37824,note_on,,,,,15296,0,9,,,,,1,,71,100
37888,note_off,,,,,256,0,13,,,,,5,,64,100
37888,note_off,,,,,256,0,14,,,,,5,,52,100
37888,note_off,,,,,0,0,13,,,,,5,,55,100
37888,note_off,,,,,256,0,10,,,,,2,,67,100
37888,note_off,,,,,256,0,8,,,,,0,,76,100
37888,note_off,,,,,256,0,11,,,,,3,,52,100
37888,note_off,,,,,256,0,12,,,,,4,,40,100
37952,note_off,,,,,128,0,9,,,,,1,,71,100
38016,note_on,,,,,64,0,9,,,,,1,,76,100
38144,note_off,,,,,128,0,9,,,,,1,,76,100
38208,note_on,,,,,320,0,14,,,,,5,,51,100
38208,note_on,,,,,320,0,12,,,,,4,,39,100
38208,note_on,,,,,64,0,9,,,,,1,,78,100
38208,note_on,,,,,320,0,13,,,,,5,,71,100
38208,note_on,,,,,0,0,13,,,,,5,,66,100
38208,note_on,,,,,320,0,11,,,,,3,,51,100
38208,note_on,,,,,320,0,10,,,,,2,,71,100
38336,note_off,,,,,128,0,11,,,,,3,,51,100
38336,note_off,,,,,128,0,12,,,,,4,,39,100
38336,note_off,,,,,128,0,13,,,,,5,,71,100
38336,note_off,,,,,0,0,13,,,,,5,,66,100
38336,note_off,,,,,128,0,14,,,,,5,,51,100
38336,note_off,,,,,128,0,10,,,,,2,,71,100
38336,note_off,,,,,128,0,9,,,,,1,,78,100
38400,note_on,,,,,64,0,13,,,,,5,,71,100
38400,note_on,,,,,0,0,13,,,,,5,,67,100
38400,note_on,,,,,64,0,12,,,,,4,,40,100
38400,note_on,,,,,64,0,10,,,,,2,,71,100
38400,note_on,,,,,64,0,9,,,,,1,,79,100
38400,note_on,,,,,64,0,11,,,,,3,,52,100
38400,note_on,,,,,64,0,14,,,,,5,,52,100
38528,note_off,,,,,128,0,13,,,,,5,,71,100
38528,note_off,,,,,128,0,12,,,,,4,,40,100
38528,note_off,,,,,128,0,9,,,,,1,,79,100
38528,note_off,,,,,128,0,11,,,,,3,,52,100
38528,note_off,,,,,128,0,10,,,,,2,,71,100
38528,note_off,,,,,128,0,14,,,,,5,,52,100
38528,note_off,,,,,0,0,13,,,,,5,,67,100
38592,note_on,,,,,64,0,14,,,,,5,,57,100
38592,note_on,,,,,64,0,13,,,,,5,,69,100
38592,note_on,,,,,64,0,12,,,,,4,,45,100
38592,note_on,,,,,64,0,11,,,,,3,,57,100
38684,note_off,,,,,92,0,13,,,,,5,,69,100
38688,note_on,,,,,4,0,13,,,,,5,,67,100
38720,note_off,,,,,128,0,11,,,,,3,,57,100
38720,note_off,,,,,128,0,12,,,,,4,,45,100
38720,note_off,,,,,128,0,14,,,,,5,,57,100
38780,note_off,,,,,92,0,13,,,,,5,,67,100
38784,note_on,,,,,64,0,11,,,,,3,,59,100
38784,note_on,,,,,256,0,9,,,,,1,,78,100
38784,note_on,,,,,256,0,10,,,,,2,,63,100
38784,note_on,,,,,64,0,12,,,,,4,,47,100
38784,note_on,,,,,4,0,13,,,,,5,,66,100
38784,note_on,,,,,64,0,14,,,,,5,,59,100
38912,note_off,,,,,128,0,14,,,,,5,,59,100
38912,note_off,,,,,128,0,12,,,,,4,,47,100
38912,note_off,,,,,128,0,10,,,,,2,,63,100
38912,note_off,,,,,128,0,9,,,,,1,,78,100
38912,note_off,,,,,128,0,11,,,,,3,,59,100
38976,note_on,,,,,64,0,14,,,,,5,,47,100
38976,note_on,,,,,64,0,12,,,,,4,,35,100
38976,note_on,,,,,64,0,11,,,,,3,,47,100
38976,note_on,,,,,192,0,13,,,,,5,,63,100
39040,note_off,,,,,64,0,13,,,,,5,,66,100
39104,note_off,,,,,128,0,14,,,,,5,,47,100
39104,note_off,,,,,64,0,13,,,,,5,,63,100
39104,note_off,,,,,128,0,12,,,,,4,,35,100
39104,note_off,,,,,128,0,11,,,,,3,,47,100
39168,note_on,,,,,256,0,9,,,,,1,,76,100
39168,note_on,,,,,64,0,14,,,,,5,,52,100
39168,note_on,,,,,64,0,12,,,,,4,,40,100
39168,note_on,,,,,64,0,11,,,,,3,,52,100
39168,note_on,,,,,256,0,10,,,,,2,,67,100
39168,note_on,,,,,0,0,13,,,,,5,,64,100
39168,note_on,,,,,64,0,13,,,,,5,,67,100
39296,note_off,,,,,128,0,9,,,,,1,,76,100
39360,note_on,,,,,64,0,9,,,,,1,,71,60
39424,note_off,,,,,256,0,11,,,,,3,,52,100
39424,note_off,,,,,256,0,13,,,,,5,,67,100
39424,note_off,,,,,256,0,12,,,,,4,,40,100
39424,note_off,,,,,256,0,10,,,,,2,,67,100
39424,note_off,,,,,256,0,14,,,,,5,,52,100
39424,note_off,,,,,0,0,13,,,,,5,,64,100
39488,note_off,,,,,128,0,9,,,,,1,,71,100
39552,note_on,,,,,64,0,9,,,,,1,,76,60
39680,note_off,,,,,128,0,9,,,,,1,,76,100
39744,note_on,,,,,0,0,13,,,,,5,,66,100
39744,note_on,,,,,320,0,14,,,,,5,,51,100
39744,note_on,,,,,64,0,9,,,,,1,,78,60
39744,note_on,,,,,320,0,12,,,,,4,,39,60
39744,note_on,,,,,320,0,13,,,,,5,,71,100
39744,note_on,,,,,320,0,10,,,,,2,,71,60
39744,note_on,,,,,320,0,11,,,,,3,,51,60
39872,note_off,,,,,128,0,14,,,,,5,,51,100
39872,note_off,,,,,128,0,11,,,,,3,,51,100
39872,note_off,,,,,128,0,13,,,,,5,,71,100
39872,note_off,,,,,128,0,12,,,,,4,,39,100
39872,note_off,,,,,0,0,13,,,,,5,,66,100
39872,note_off,,,,,128,0,10,,,,,2,,71,100
39872,note_off,,,,,128,0,9,,,,,1,,78,100
39936,note_on,,,,,0,0,13,,,,,5,,67,100
39936,note_on,,,,,64,0,12,,,,,4,,40,60
39936,note_on,,,,,64,0,11,,,,,3,,52,60
39936,note_on,,,,,64,0,10,,,,,2,,71,60
39936,note_on,,,,,64,0,14,,,,,5,,52,100
39936,note_on,,,,,64,0,9,,,,,1,,79,60
39936,note_on,,,,,64,0,13,,,,,5,,71,100
40064,note_off,,,,,128,0,11,,,,,3,,52,100
40064,note_off,,,,,128,0,10,,,,,2,,71,100
40064,note_off,,,,,128,0,12,,,,,4,,40,100
40064,note_off,,,,,128,0,9,,,,,1,,79,100
40064,note_off,,,,,128,0,14,,,,,5,,52,100
40064,note_off,,,,,0,0,13,,,,,5,,67,100
40064,note_off,,,,,128,0,13,,,,,5,,71,100
40128,note_on,,,,,64,0,14,,,,,5,,57,100
40128,note_on,,,,,64,0,13,,,,,5,,69,100
40128,note_on,,,,,64,0,11,,,,,3,,57,60
40128,note_on,,,,,64,0,12,,,,,4,,45,60
40220,note_off,,,,,92,0,13,,,,,5,,69,100
40224,note_on,,,,,4,0,13,,,,,5,,67,100
40256,note_off,,,,,128,0,11,,,,,3,,57,100
40256,note_off,,,,,128,0,12,,,,,4,,45,100
40256,note_off,,,,,128,0,14,,,,,5,,57,100
40316,note_off,,,,,92,0,13,,,,,5,,67,100
40320,note_on,,,,,256,0,9,,,,,1,,78,60
40320,note_on,,,,,64,0,14,,,,,5,,59,100
40320,note_on,,,,,4,0,13,,,,,5,,66,100
40320,note_on,,,,,256,0,10,,,,,2,,63,60
40320,note_on,,,,,64,0,12,,,,,4,,47,60
40320,note_on,,,,,64,0,11,,,,,3,,59,60
40448,note_off,,,,,128,0,14,,,,,5,,59,100
40448,note_off,,,,,128,0,12,,,,,4,,47,100
40448,note_off,,,,,128,0,10,,,,,2,,63,100
40448,note_off,,,,,128,0,9,,,,,1,,78,100
40448,note_off,,,,,128,0,11,,,,,3,,59,100
40512,note_on,,,,,64,0,14,,,,,5,,47,100
40512,note_on,,,,,192,0,13,,,,,5,,63,100
40512,note_on,,,,,64,0,11,,,,,3,,47,60
40512,note_on,,,,,64,0,12,,,,,4,,35,60
40576,note_off,,,,,64,0,13,,,,,5,,66,100
40640,note_off,,,,,128,0,12,,,,,4,,35,100
40640,note_off,,,,,64,0,13,,,,,5,,63,100
40640,note_off,,,,,128,0,11,,,,,3,,47,100
40640,note_off,,,,,128,0,14,,,,,5,,47,100
40704,note_on,,,,,256,0,9,,,,,1,,76,60
40704,note_on,,,,,256,0,10,,,,,2,,59,60
40704,note_on,,,,,0,0,13,,,,,5,,64,100
40704,note_on,,,,,64,0,13,,,,,5,,67,100
40704,note_on,,,,,64,0,11,,,,,3,,52,60
40704,note_on,,,,,64,0,12,,,,,4,,40,60
40704,note_on,,,,,64,0,14,,,,,5,,52,100
40832,note_off,,,,,0,0,13,,,,,5,,64,100
40832,note_off,,,,,128,0,12,,,,,4,,40,100
40832,note_off,,,,,128,0,11,,,,,3,,52,100
40832,note_off,,,,,128,0,14,,,,,5,,52,100
40832,note_off,,,,,128,0,13,,,,,5,,67,100
40896,note_on,,,,,64,0,14,,,,,5,,54,100
40896,note_on,,,,,64,0,11,,,,,3,,54,100
40896,note_on,,,,,64,0,12,,,,,4,,42,100
40896,note_on,,,,,64,0,13,,,,,5,,69,100
40960,note_off,,,,,256,0,9,,,,,1,,76,100
40960,note_off,,,,,256,0,10,,,,,2,,59,100
41024,note_off,,,,,128,0,11,,,,,3,,54,100
41024,note_off,,,,,128,0,12,,,,,4,,42,100
41024,note_off,,,,,128,0,14,,,,,5,,54,100
41024,note_off,,,,,128,0,13,,,,,5,,69,100
41088,note_on,,,,,64,0,14,,,,,5,,55,100
41088,note_on,,,,,64,0,12,,,,,4,,43,100
41088,note_on,,,,,64,0,13,,,,,5,,71,100
41088,note_on,,,,,64,0,11,,,,,3,,55,100
41216,note_off,,,,,128,0,11,,,,,3,,55,100
41216,note_off,,,,,128,0,14,,,,,5,,55,100
41216,note_off,,,,,128,0,12,,,,,4,,43,100
41216,note_off,,,,,128,0,13,,,,,5,,71,100
41280,note_on,,,,,3392,0,8,,,,,0,,71,100
41280,note_on,,,,,64,0,12,,,,,4,,39,100
41280,note_on,,,,,64,0,14,,,,,5,,51,100
41280,note_on,,,,,0,0,13,,,,,5,,66,100
41280,note_on,,,,,64,0,13,,,,,5,,71,100
41280,note_on,,,,,64,0,11,,,,,3,,51,100
41408,note_off,,,,,128,0,13,,,,,5,,71,100
41408,note_off,,,,,0,0,13,,,,,5,,66,100
41408,note_off,,,,,128,0,11,,,,,3,,51,100
41408,note_off,,,,,128,0,8,,,,,0,,71,100
41408,note_off,,,,,128,0,12,,,,,4,,39,100
41408,note_off,,,,,128,0,14,,,,,5,,51,100
41472,note_on,,,,,64,0,8,,,,,0,,79,100
41472,note_on,,,,,64,0,11,,,,,3,,52,100
41472,note_on,,,,,64,0,14,,,,,5,,52,100
41472,note_on,,,,,64,0,12,,,,,4,,40,100
41472,note_on,,,,,64,0,13,,,,,5,,67,100
41472,note_on,,,,,0,0,13,,,,,5,,71,100
41536,note_off,,,,,64,0,8,,,,,0,,79,100
41568,note_on,,,,,32,0,8,,,,,0,,81,100
41600,note_off,,,,,128,0,14,,,,,5,,52,100
41600,note_off,,,,,128,0,11,,,,,3,,52,100
41600,note_off,,,,,0,0,13,,,,,5,,71,100
41600,note_off,,,,,128,0,12,,,,,4,,40,100
41600,note_off,,,,,128,0,13,,,,,5,,67,100
41632,note_off,,,,,64,0,8,,,,,0,,81,100
41664,note_on,,,,,64,0,12,,,,,4,,40,100
41664,note_on,,,,,64,0,11,,,,,3,,40,100
41664,note_on,,,,,64,0,13,,,,,5,,59,100
41664,note_on,,,,,32,0,8,,,,,0,,79,100
41664,note_on,,,,,0,0,13,,,,,5,,67,100
41664,note_on,,,,,64,0,14,,,,,5,,40,100
41728,note_off,,,,,64,0,8,,,,,0,,79,100
41760,note_on,,,,,32,0,8,,,,,0,,81,100
41792,note_off,,,,,0,0,13,,,,,5,,67,100
41792,note_off,,,,,128,0,11,,,,,3,,40,100
41792,note_off,,,,,128,0,14,,,,,5,,40,100
41792,note_off,,,,,128,0,12,,,,,4,,40,100
41792,note_off,,,,,128,0,13,,,,,5,,59,100
41824,note_off,,,,,64,0,8,,,,,0,,81,100
41856,note_on,,,,,32,0,8,,,,,0,,79,100
41920,note_off,,,,,64,0,8,,,,,0,,79,100
41952,note_on,,,,,32,0,8,,,,,0,,81,100
42016,note_off,,,,,64,0,8,,,,,0,,81,100
42048,note_on,,,,,256,0,11,,,,,3,,52,85
42048,note_on,,,,,0,0,13,,,,,5,,67,100
42048,note_on,,,,,256,0,13,,,,,5,,71,100
42048,note_on,,,,,256,0,12,,,,,4,,40,85
42048,note_on,,,,,32,0,8,,,,,0,,79,100
42048,note_on,,,,,256,0,14,,,,,5,,52,100
42112,note_off,,,,,64,0,8,,,,,0,,79,100
42144,note_on,,,,,32,0,8,,,,,0,,81,100
42176,note_off,,,,,0,0,13,,,,,5,,67,100
42176,note_off,,,,,128,0,12,,,,,4,,40,100
42176,note_off,,,,,128,0,11,,,,,3,,52,100
42176,note_off,,,,,128,0,13,,,,,5,,71,100
42176,note_off,,,,,128,0,14,,,,,5,,52,100
42208,note_off,,,,,64,0,8,,,,,0,,81,100
42240,note_on,,,,,64,0,14,,,,,5,,57,100
42240,note_on,,,,,64,0,11,,,,,3,,57,85
42240,note_on,,,,,64,0,13,,,,,5,,72,100
42240,note_on,,,,,0,0,13,,,,,5,,64,100
42240,note_on,,,,,0,0,13,,,,,5,,67,100
42240,note_on,,,,,64,0,12,,,,,4,,45,85
42240,note_on,,,,,32,0,8,,,,,0,,79,100
42368,note_off,,,,,128,0,8,,,,,0,,79,100
42368,note_off,,,,,128,0,13,,,,,5,,72,100
42368,note_off,,,,,128,0,14,,,,,5,,57,100
42368,note_off,,,,,128,0,12,,,,,4,,45,100
42368,note_off,,,,,128,0,11,,,,,3,,57,100
42368,note_off,,,,,0,0,13,,,,,5,,67,100
42368,note_off,,,,,0,0,13,,,,,5,,64,100
42432,note_on,,,,,64,0,8,,,,,0,,78,100
42432,note_on,,,,,64,0,12,,,,,4,,45,85
42432,note_on,,,,,64,0,11,,,,,3,,57,85
42432,note_on,,,,,0,0,13,,,,,5,,64,100
42432,note_on,,,,,0,0,13,,,,,5,,67,100
42432,note_on,,,,,64,0,13,,,,,5,,72,100
42432,note_on,,,,,64,0,14,,,,,5,,57,100
42524,note_off,,,,,92,0,8,,,,,0,,78,100
42528,note_on,,,,,4,0,8,,,,,0,,79,100
42560,note_off,,,,,128,0,11,,,,,3,,57,100
42560,note_off,,,,,128,0,14,,,,,5,,57,100
42560,note_off,,,,,128,0,12,,,,,4,,45,100
42560,note_off,,,,,0,0,13,,,,,5,,67,100
42560,note_off,,,,,0,0,13,,,,,5,,64,100
42560,note_off,,,,,128,0,13,,,,,5,,72,100
42592,note_off,,,,,64,0,8,,,,,0,,79,100
42624,note_on,,,,,0,0,13,,,,,5,,67,100
42624,note_on,,,,,64,0,12,,,,,4,,45,85
42624,note_on,,,,,64,0,14,,,,,5,,57,100
42624,note_on,,,,,64,0,11,,,,,3,,57,85
42624,note_on,,,,,64,0,13,,,,,5,,72,100
42624,note_on,,,,,32,0,8,,,,,0,,81,100
42624,note_on,,,,,0,0,13,,,,,5,,64,100
42716,note_off,,,,,92,0,8,,,,,0,,81,100
42720,note_on,,,,,4,0,8,,,,,0,,79,100
42752,note_off,,,,,0,0,13,,,,,5,,67,100
42752,note_off,,,,,128,0,14,,,,,5,,57,100
42752,note_off,,,,,0,0,13,,,,,5,,64,100
42752,note_off,,,,,128,0,13,,,,,5,,72,100
42752,note_off,,,,,128,0,12,,,,,4,,45,100
42752,note_off,,,,,128,0,11,,,,,3,,57,100
42784,note_off,,,,,64,0,8,,,,,0,,79,100
42816,note_on,,,,,64,0,11,,,,,3,,57,85
42816,note_on,,,,,32,0,8,,,,,0,,78,100
42816,note_on,,,,,64,0,14,,,,,5,,57,100
42816,note_on,,,,,0,0,13,,,,,5,,67,100
42816,note_on,,,,,0,0,13,,,,,5,,64,100
42816,note_on,,,,,64,0,13,,,,,5,,72,100
42816,note_on,,,,,64,0,12,,,,,4,,45,85
42908,note_off,,,,,92,0,8,,,,,0,,78,100
42912,note_on,,,,,4,0,8,,,,,0,,76,100
42944,note_off,,,,,128,0,11,,,,,3,,57,100
42944,note_off,,,,,128,0,14,,,,,5,,57,100
42944,note_off,,,,,0,0,13,,,,,5,,67,100
42944,note_off,,,,,0,0,13,,,,,5,,64,100
42944,note_off,,,,,128,0,13,,,,,5,,72,100
42944,note_off,,,,,128,0,12,,,,,4,,45,100
42976,note_off,,,,,64,0,8,,,,,0,,76,100
43008,note_on,,,,,0,0,13,,,,,5,,72,100
43008,note_on,,,,,64,0,12,,,,,4,,50,85
43008,note_on,,,,,64,0,13,,,,,5,,66,100
43008,note_on,,,,,32,0,8,,,,,0,,78,100
43008,note_on,,,,,64,0,11,,,,,3,,62,85
43008,note_on,,,,,64,0,14,,,,,5,,62,100
43072,note_off,,,,,64,0,8,,,,,0,,78,100
43104,note_on,,,,,32,0,8,,,,,0,,79,100
43136,note_off,,,,,128,0,11,,,,,3,,62,100
43136,note_off,,,,,0,0,13,,,,,5,,72,100
43136,note_off,,,,,128,0,12,,,,,4,,50,100
43136,note_off,,,,,128,0,14,,,,,5,,62,100
43136,note_off,,,,,128,0,13,,,,,5,,66,100
43168,note_off,,,,,64,0,8,,,,,0,,79,100
43200,note_on,,,,,64,0,14,,,,,5,,50,100
43200,note_on,,,,,32,0,8,,,,,0,,78,100
43200,note_on,,,,,0,0,13,,,,,5,,66,100
43200,note_on,,,,,64,0,13,,,,,5,,60,100
43200,note_on,,,,,64,0,11,,,,,3,,50,85
43200,note_on,,,,,64,0,12,,,,,4,,38,85
43264,note_off,,,,,64,0,8,,,,,0,,78,100
43296,note_on,,,,,32,0,8,,,,,0,,79,100
43328,note_off,,,,,128,0,12,,,,,4,,38,100
43328,note_off,,,,,0,0,13,,,,,5,,66,100
43328,note_off,,,,,128,0,14,,,,,5,,50,100
43328,note_off,,,,,128,0,11,,,,,3,,50,100
43328,note_off,,,,,128,0,13,,,,,5,,60,100
43360,note_off,,,,,64,0,8,,,,,0,,79,100
43392,note_on,,,,,32,0,8,,,,,0,,78,100
43456,note_off,,,,,64,0,8,,,,,0,,78,100
43488,note_on,,,,,32,0,8,,,,,0,,79,100
43552,note_off,,,,,64,0,8,,,,,0,,79,100
43584,note_on,,,,,256,0,14,,,,,5,,50,100
43584,note_on,,,,,32,0,8,,,,,0,,78,100
43584,note_on,,,,,256,0,12,,,,,4,,38,85
43584,note_on,,,,,0,0,13,,,,,5,,66,100
43584,note_on,,,,,256,0,13,,,,,5,,72,100
43584,note_on,,,,,256,0,11,,,,,3,,50,85
43648,note_off,,,,,64,0,8,,,,,0,,78,100
43680,note_on,,,,,32,0,8,,,,,0,,79,100
43712,note_off,,,,,128,0,12,,,,,4,,38,100
43712,note_off,,,,,0,0,13,,,,,5,,66,100
43712,note_off,,,,,128,0,14,,,,,5,,50,100
43712,note_off,,,,,128,0,13,,,,,5,,72,100
43712,note_off,,,,,128,0,11,,,,,3,,50,100
43744,note_off,,,,,64,0,8,,,,,0,,79,100
43776,note_on,,,,,64,0,13,,,,,5,,71,100
43776,note_on,,,,,0,0,13,,,,,5,,62,100
43776,note_on,,,,,0,0,13,,,,,5,,66,100
43776,note_on,,,,,64,0,12,,,,,4,,43,85
43776,note_on,,,,,64,0,14,,,,,5,,55,100
43776,note_on,,,,,64,0,11,,,,,3,,55,85
43776,note_on,,,,,32,0,8,,,,,0,,78,100
43904,note_off,,,,,0,0,13,,,,,5,,66,100
43904,note_off,,,,,128,0,8,,,,,0,,78,100
43904,note_off,,,,,128,0,14,,,,,5,,55,100
43904,note_off,,,,,128,0,11,,,,,3,,55,100
43904,note_off,,,,,128,0,13,,,,,5,,71,100
43904,note_off,,,,,0,0,13,,,,,5,,62,100
43904,note_off,,,,,128,0,12,,,,,4,,43,100
43968,note_on,,,,,64,0,11,,,,,3,,55,85
43968,note_on,,,,,0,0,13,,,,,5,,62,100
43968,note_on,,,,,64,0,13,,,,,5,,71,100
43968,note_on,,,,,64,0,12,,,,,4,,43,85
43968,note_on,,,,,64,0,14,,,,,5,,55,100
43968,note_on,,,,,0,0,13,,,,,5,,66,100
43968,note_on,,,,,64,0,8,,,,,0,,76,100
44060,note_off,,,,,92,0,8,,,,,0,,76,100
44064,note_on,,,,,4,0,8,,,,,0,,78,100
44096,note_off,,,,,0,0,13,,,,,5,,62,100
44096,note_off,,,,,0,0,13,,,,,5,,66,100
44096,note_off,,,,,128,0,13,,,,,5,,71,100
44096,note_off,,,,,128,0,12,,,,,4,,43,100
44096,note_off,,,,,128,0,11,,,,,3,,55,100
44096,note_off,,,,,128,0,14,,,,,5,,55,100
44128,note_off,,,,,64,0,8,,,,,0,,78,100
44160,note_on,,,,,64,0,12,,,,,4,,43,85
44160,note_on,,,,,0,0,13,,,,,5,,62,100
44160,note_on,,,,,32,0,8,,,,,0,,79,100
44160,note_on,,,,,64,0,14,,,,,5,,55,100
44160,note_on,,,,,64,0,11,,,,,3,,55,85
44160,note_on,,,,,64,0,13,,,,,5,,71,100
44160,note_on,,,,,0,0,13,,,,,5,,66,100
44252,note_off,,,,,92,0,8,,,,,0,,79,100
44256,note_on,,,,,4,0,8,,,,,0,,78,100
44288,note_off,,,,,128,0,14,,,,,5,,55,100
44288,note_off,,,,,128,0,11,,,,,3,,55,100
44288,note_off,,,,,0,0,13,,,,,5,,62,100
44288,note_off,,,,,0,0,13,,,,,5,,66,100
44288,note_off,,,,,128,0,12,,,,,4,,43,100
44288,note_off,,,,,128,0,13,,,,,5,,71,100
44320,note_off,,,,,64,0,8,,,,,0,,78,100
44352,note_on,,,,,64,0,13,,,,,5,,71,100
44352,note_on,,,,,0,0,13,,,,,5,,62,100
44352,note_on,,,,,0,0,13,,,,,5,,66,100
44352,note_on,,,,,64,0,11,,,,,3,,55,85
44352,note_on,,,,,32,0,8,,,,,0,,76,100
44352,note_on,,,,,64,0,14,,,,,5,,55,100
44352,note_on,,,,,64,0,12,,,,,4,,43,85
44444,note_off,,,,,92,0,8,,,,,0,,76,100
44448,note_on,,,,,4,0,8,,,,,0,,75,100
44480,note_off,,,,,128,0,14,,,,,5,,55,100
44480,note_off,,,,,128,0,12,,,,,4,,43,100
44480,note_off,,,,,0,0,13,,,,,5,,66,100
44480,note_off,,,,,128,0,11,,,,,3,,55,100
44480,note_off,,,,,128,0,13,,,,,5,,71,100
44480,note_off,,,,,0,0,13,,,,,5,,62,100
44512,note_off,,,,,64,0,8,,,,,0,,75,100
44544,note_on,,,,,64,0,14,,,,,5,,60,100
44544,note_on,,,,,32,0,8,,,,,0,,76,100
44544,note_on,,,,,64,0,12,,,,,4,,48,85
44544,note_on,,,,,64,0,13,,,,,5,,67,100
44544,note_on,,,,,0,0,13,,,,,5,,71,100
44544,note_on,,,,,64,0,11,,,,,3,,60,85
44608,note_off,,,,,64,0,8,,,,,0,,76,100
44640,note_on,,,,,32,0,8,,,,,0,,78,100
44672,note_off,,,,,128,0,11,,,,,3,,60,100
44672,note_off,,,,,128,0,14,,,,,5,,60,100
44672,note_off,,,,,128,0,12,,,,,4,,48,100
44672,note_off,,,,,128,0,13,,,,,5,,67,100
44672,note_off,,,,,0,0,13,,,,,5,,71,100
44704,note_off,,,,,64,0,8,,,,,0,,78,100
44736,note_on,,,,,32,0,8,,,,,0,,76,100
44736,note_on,,,,,0,0,13,,,,,5,,67,100
44736,note_on,,,,,64,0,11,,,,,3,,48,85
44736,note_on,,,,,64,0,14,,,,,5,,48,100
44736,note_on,,,,,64,0,12,,,,,4,,36,85
44736,note_on,,,,,64,0,13,,,,,5,,59,100
44800,note_off,,,,,64,0,8,,,,,0,,76,100
44832,note_on,,,,,32,0,8,,,,,0,,78,100
44864,note_off,,,,,0,0,13,,,,,5,,67,100
44864,note_off,,,,,128,0,11,,,,,3,,48,100
44864,note_off,,,,,128,0,14,,,,,5,,48,100
44864,note_off,,,,,128,0,12,,,,,4,,36,100
44864,note_off,,,,,128,0,13,,,,,5,,59,100
44896,note_off,,,,,64,0,8,,,,,0,,78,100
44928,note_on,,,,,32,0,8,,,,,0,,76,100
44992,note_off,,,,,64,0,8,,,,,0,,76,100
45024,note_on,,,,,32,0,8,,,,,0,,78,100
45088,note_off,,,,,64,0,8,,,,,0,,78,100
45120,note_on,,,,,256,0,13,,,,,5,,64,100
45120,note_on,,,,,256,0,11,,,,,3,,60,85
45120,note_on,,,,,32,0,8,,,,,0,,76,100
45120,note_on,,,,,256,0,14,,,,,5,,60,100
45120,note_on,,,,,256,0,12,,,,,4,,48,85
45120,note_on,,,,,0,0,13,,,,,5,,71,100
45184,note_off,,,,,64,0,8,,,,,0,,76,100
45216,note_on,,,,,32,0,8,,,,,0,,78,100
45248,note_off,,,,,0,0,13,,,,,5,,71,100
45248,note_off,,,,,128,0,13,,,,,5,,64,100
45248,note_off,,,,,128,0,14,,,,,5,,60,100
45248,note_off,,,,,128,0,12,,,,,4,,48,100
45248,note_off,,,,,128,0,11,,,,,3,,60,100
45280,note_off,,,,,64,0,8,,,,,0,,78,100
45312,note_on,,,,,0,0,13,,,,,5,,60,100
45312,note_on,,,,,64,0,13,,,,,5,,69,100
45312,note_on,,,,,0,0,13,,,,,5,,64,100
45312,note_on,,,,,32,0,8,,,,,0,,76,100
45312,note_on,,,,,64,0,14,,,,,5,,54,100
45312,note_on,,,,,64,0,12,,,,,4,,42,85
45312,note_on,,,,,64,0,11,,,,,3,,54,85
45440,note_off,,,,,0,0,13,,,,,5,,64,100
45440,note_off,,,,,128,0,11,,,,,3,,54,100
45440,note_off,,,,,128,0,13,,,,,5,,69,100
45440,note_off,,,,,128,0,8,,,,,0,,76,100
45440,note_off,,,,,128,0,12,,,,,4,,42,100
45440,note_off,,,,,128,0,14,,,,,5,,54,100
45440,note_off,,,,,0,0,13,,,,,5,,60,100
45504,note_on,,,,,64,0,12,,,,,4,,42,85
45504,note_on,,,,,64,0,11,,,,,3,,54,85
45504,note_on,,,,,64,0,13,,,,,5,,69,100
45504,note_on,,,,,0,0,13,,,,,5,,60,100
45504,note_on,,,,,0,0,13,,,,,5,,64,100
45504,note_on,,,,,64,0,14,,,,,5,,54,100
45504,note_on,,,,,64,0,8,,,,,0,,75,100
45596,note_off,,,,,92,0,8,,,,,0,,75,100
45600,note_on,,,,,4,0,8,,,,,0,,76,100
45632,note_off,,,,,128,0,11,,,,,3,,54,100
45632,note_off,,,,,128,0,14,,,,,5,,54,100
45632,note_off,,,,,128,0,12,,,,,4,,42,100
45632,note_off,,,,,128,0,13,,,,,5,,69,100
45632,note_off,,,,,0,0,13,,,,,5,,60,100
45632,note_off,,,,,0,0,13,,,,,5,,64,100
45664,note_off,,,,,64,0,8,,,,,0,,76,100
45696,note_on,,,,,64,0,11,,,,,3,,54,85
45696,note_on,,,,,0,0,13,,,,,5,,64,100
45696,note_on,,,,,64,0,12,,,,,4,,42,85
45696,note_on,,,,,64,0,13,,,,,5,,69,100
45696,note_on,,,,,64,0,14,,,,,5,,54,100
45696,note_on,,,,,32,0,8,,,,,0,,78,100
45696,note_on,,,,,0,0,13,,,,,5,,60,100
45788,note_off,,,,,92,0,8,,,,,0,,78,100
45792,note_on,,,,,4,0,8,,,,,0,,76,100
45824,note_off,,,,,128,0,12,,,,,4,,42,100
45824,note_off,,,,,128,0,11,,,,,3,,54,100
45824,note_off,,,,,128,0,14,,,,,5,,54,100
45824,note_off,,,,,0,0,13,,,,,5,,60,100
45824,note_off,,,,,0,0,13,,,,,5,,64,100
45824,note_off,,,,,128,0,13,,,,,5,,69,100
45856,note_off,,,,,64,0,8,,,,,0,,76,100
45888,note_on,,,,,64,0,13,,,,,5,,69,100
45888,note_on,,,,,0,0,13,,,,,5,,60,100
45888,note_on,,,,,0,0,13,,,,,5,,64,100
45888,note_on,,,,,64,0,12,,,,,4,,42,85
45888,note_on,,,,,64,0,11,,,,,3,,54,85
45888,note_on,,,,,32,0,8,,,,,0,,75,100
45888,note_on,,,,,64,0,14,,,,,5,,54,100
45980,note_off,,,,,92,0,8,,,,,0,,75,100
45984,note_on,,,,,4,0,8,,,,,0,,73,100
46016,note_off,,,,,128,0,13,,,,,5,,69,100
46016,note_off,,,,,0,0,13,,,,,5,,60,100
46016,note_off,,,,,0,0,13,,,,,5,,64,100
46016,note_off,,,,,128,0,12,,,,,4,,42,100
46016,note_off,,,,,128,0,11,,,,,3,,54,100
46016,note_off,,,,,128,0,14,,,,,5,,54,100
46048,note_off,,,,,64,0,8,,,,,0,,73,100
46080,note_on,,,,,64,0,14,,,,,5,,47,100
46080,note_on,,,,,64,0,12,,,,,4,,35,85
46080,note_on,,,,,32,0,8,,,,,0,,75,85
46080,note_on,,,,,64,0,13,,,,,5,,59,100
46080,note_on,,,,,64,0,11,,,,,3,,47,85
46080,note_on,,,,,0,0,13,,,,,5,,63,100
46080,note_on,,,,,0,0,13,,,,,5,,66,100
46208,note_off,,,,,128,0,12,,,,,4,,35,100
46208,note_off,,,,,128,0,8,,,,,0,,75,100
46208,note_off,,,,,128,0,14,,,,,5,,47,100
46208,note_off,,,,,128,0,13,,,,,5,,59,100
46208,note_off,,,,,0,0,13,,,,,5,,63,100
46208,note_off,,,,,128,0,11,,,,,3,,47,100
46208,note_off,,,,,0,0,13,,,,,5,,66,100
46272,note_on,,,,,64,0,13,,,,,5,,64,100
46272,note_on,,,,,64,0,14,,,,,5,,49,100
46272,note_on,,,,,64,0,11,,,,,3,,49,85
46272,note_on,,,,,64,0,8,,,,,0,,73,85
46272,note_on,,,,,64,0,12,,,,,4,,37,85
46336,note_off,,,,,64,0,8,,,,,0,,73,100
46368,note_on,,,,,32,0,8,,,,,0,,75,85
46400,note_off,,,,,128,0,13,,,,,5,,64,100
46400,note_off,,,,,128,0,14,,,,,5,,49,100
46400,note_off,,,,,128,0,11,,,,,3,,49,100
46400,note_off,,,,,128,0,12,,,,,4,,37,100
46432,note_off,,,,,64,0,8,,,,,0,,75,100
46464,note_on,,,,,64,0,13,,,,,5,,66,100
46464,note_on,,,,,64,0,11,,,,,3,,51,85
46464,note_on,,,,,64,0,14,,,,,5,,51,100
46464,note_on,,,,,64,0,12,,,,,4,,39,85
46464,note_on,,,,,32,0,8,,,,,0,,71,85
46592,note_off,,,,,128,0,12,,,,,4,,39,100
46592,note_off,,,,,128,0,11,,,,,3,,51,100
46592,note_off,,,,,128,0,13,,,,,5,,66,100
46592,note_off,,,,,128,0,14,,,,,5,,51,100
46592,note_off,,,,,128,0,8,,,,,0,,71,100
46656,note_on,,,,,0,0,13,,,,,5,,66,100
46656,note_on,,,,,64,0,11,,,,,3,,47,85
46656,note_on,,,,,64,0,13,,,,,5,,63,100
46656,note_on,,,,,64,0,12,,,,,4,,35,85
46656,note_on,,,,,5696,0,10,,,,,2,,75,85
46656,note_on,,,,,64,0,14,,,,,5,,47,100
46656,note_on,,,,,5696,0,9,,,,,1,,83,85
46784,note_off,,,,,128,0,9,,,,,1,,83,100
46784,note_off,,,,,128,0,12,,,,,4,,35,100
46784,note_off,,,,,128,0,10,,,,,2,,75,100
46784,note_off,,,,,128,0,14,,,,,5,,47,100
46784,note_off,,,,,0,0,13,,,,,5,,66,100
46784,note_off,,,,,128,0,11,,,,,3,,47,100
46784,note_off,,,,,128,0,13,,,,,5,,63,100
46848,note_on,,,,,64,0,13,,,,,5,,64,100
46848,note_on,,,,,64,0,9,,,,,1,,80,85
46848,note_on,,,,,64,0,10,,,,,2,,71,85
46848,note_on,,,,,64,0,14,,,,,5,,52,100
46848,note_on,,,,,64,0,11,,,,,3,,52,85
46848,note_on,,,,,0,0,13,,,,,5,,68,100
46848,note_on,,,,,64,0,12,,,,,4,,40,85
46976,note_off,,,,,128,0,14,,,,,5,,52,100
46976,note_off,,,,,128,0,11,,,,,3,,52,100
46976,note_off,,,,,128,0,13,,,,,5,,64,100
46976,note_off,,,,,0,0,13,,,,,5,,68,100
46976,note_off,,,,,128,0,9,,,,,1,,80,100
46976,note_off,,,,,128,0,12,,,,,4,,40,100
46976,note_off,,,,,128,0,10,,,,,2,,71,100
47040,note_on,,,,,0,0,13,,,,,5,,68,100
47040,note_on,,,,,64,0,12,,,,,4,,40,85
47040,note_on,,,,,64,0,11,,,,,3,,52,85
47040,note_on,,,,,64,0,14,,,,,5,,52,100
47040,note_on,,,,,64,0,10,,,,,2,,69,85
47040,note_on,,,,,64,0,9,,,,,1,,78,85
47040,note_on,,,,,64,0,13,,,,,5,,64,100
47104,note_off,,,,,64,0,9,,,,,1,,78,100
47104,note_off,,,,,64,0,10,,,,,2,,69,100
47136,note_on,,,,,32,0,9,,,,,1,,80,85
47136,note_on,,,,,32,0,10,,,,,2,,71,85
47168,note_off,,,,,128,0,14,,,,,5,,52,100
47168,note_off,,,,,128,0,12,,,,,4,,40,100
47168,note_off,,,,,128,0,13,,,,,5,,64,100
47168,note_off,,,,,0,0,13,,,,,5,,68,100
47168,note_off,,,,,128,0,11,,,,,3,,52,100
47200,note_off,,,,,64,0,9,,,,,1,,80,100
47200,note_off,,,,,64,0,10,,,,,2,,71,100
47232,note_on,,,,,0,0,13,,,,,5,,60,100
47232,note_on,,,,,0,0,13,,,,,5,,64,100
47232,note_on,,,,,64,0,13,,,,,5,,69,100
47232,note_on,,,,,32,0,10,,,,,2,,72,85
47232,note_on,,,,,32,0,9,,,,,1,,81,85
47232,note_on,,,,,64,0,11,,,,,3,,45,85
47232,note_on,,,,,64,0,14,,,,,5,,45,100
47232,note_on,,,,,64,0,12,,,,,4,,33,85
47360,note_off,,,,,128,0,9,,,,,1,,81,100
47360,note_off,,,,,128,0,11,,,,,3,,45,100
47360,note_off,,,,,0,0,13,,,,,5,,60,100
47360,note_off,,,,,0,0,13,,,,,5,,64,100
47360,note_off,,,,,128,0,13,,,,,5,,69,100
47360,note_off,,,,,128,0,14,,,,,5,,45,100
47360,note_off,,,,,128,0,12,,,,,4,,33,100
47360,note_off,,,,,128,0,10,,,,,2,,72,100
47424,note_on,,,,,64,0,12,,,,,4,,33,85
47424,note_on,,,,,64,0,13,,,,,5,,69,100
47424,note_on,,,,,0,0,13,,,,,5,,60,100
47424,note_on,,,,,0,0,13,,,,,5,,64,100
47424,note_on,,,,,64,0,11,,,,,3,,45,85
47424,note_on,,,,,64,0,10,,,,,2,,74,85
47424,note_on,,,,,64,0,14,,,,,5,,45,100
47424,note_on,,,,,64,0,9,,,,,1,,83,85
47488,note_off,,,,,64,0,10,,,,,2,,74,100
47488,note_off,,,,,64,0,9,,,,,1,,83,100
47520,note_on,,,,,32,0,9,,,,,1,,81,85
47520,note_on,,,,,32,0,10,,,,,2,,72,85
47552,note_off,,,,,128,0,12,,,,,4,,33,100
47552,note_off,,,,,128,0,14,,,,,5,,45,100
47552,note_off,,,,,128,0,11,,,,,3,,45,100
47552,note_off,,,,,0,0,13,,,,,5,,64,100
47552,note_off,,,,,0,0,13,,,,,5,,60,100
47552,note_off,,,,,128,0,13,,,,,5,,69,100
47584,note_off,,,,,64,0,9,,,,,1,,81,100
47584,note_off,,,,,64,0,10,,,,,2,,72,100
47616,note_on,,,,,64,0,12,,,,,4,,40,85
47616,note_on,,,,,64,0,14,,,,,5,,52,100
47616,note_on,,,,,32,0,10,,,,,2,,71,85
47616,note_on,,,,,64,0,13,,,,,5,,64,100
47616,note_on,,,,,0,0,13,,,,,5,,68,100
47616,note_on,,,,,0,0,13,,,,,5,,71,100
47616,note_on,,,,,64,0,11,,,,,3,,52,85
47616,note_on,,,,,32,0,9,,,,,1,,80,85
47744,note_off,,,,,128,0,13,,,,,5,,64,100
47744,note_off,,,,,0,0,13,,,,,5,,68,100
47744,note_off,,,,,0,0,13,,,,,5,,71,100
47744,note_off,,,,,128,0,11,,,,,3,,52,100
47744,note_off,,,,,128,0,10,,,,,2,,71,100
47744,note_off,,,,,128,0,9,,,,,1,,80,100
47744,note_off,,,,,128,0,14,,,,,5,,52,100
47744,note_off,,,,,128,0,12,,,,,4,,40,100
47808,note_on,,,,,64,0,14,,,,,5,,52,100
47808,note_on,,,,,64,0,12,,,,,4,,40,85
47808,note_on,,,,,64,0,11,,,,,3,,52,85
47808,note_on,,,,,64,0,13,,,,,5,,64,100
47808,note_on,,,,,0,0,13,,,,,5,,68,100
47808,note_on,,,,,64,0,9,,,,,1,,78,85
47808,note_on,,,,,0,0,13,,,,,5,,71,100
47808,note_on,,,,,64,0,10,,,,,2,,69,85
47872,note_off,,,,,64,0,9,,,,,1,,78,100
47872,note_off,,,,,64,0,10,,,,,2,,69,100
47904,note_on,,,,,32,0,9,,,,,1,,80,85
47904,note_on,,,,,32,0,10,,,,,2,,71,85
47936,note_off,,,,,128,0,14,,,,,5,,52,100
47936,note_off,,,,,128,0,12,,,,,4,,40,100
47936,note_off,,,,,0,0,13,,,,,5,,71,100
47936,note_off,,,,,0,0,13,,,,,5,,68,100
47936,note_off,,,,,128,0,13,,,,,5,,64,100
47936,note_off,,,,,128,0,11,,,,,3,,52,100
47968,note_off,,,,,64,0,9,,,,,1,,80,100
47968,note_off,,,,,64,0,10,,,,,2,,71,100
48000,note_on,,,,,32,0,9,,,,,1,,81,85
48000,note_on,,,,,32,0,10,,,,,2,,72,85
48000,note_on,,,,,64,0,13,,,,,5,,69,100
48000,note_on,,,,,0,0,13,,,,,5,,64,100
48000,note_on,,,,,0,0,13,,,,,5,,60,100
48000,note_on,,,,,64,0,12,,,,,4,,33,85
48000,note_on,,,,,64,0,14,,,,,5,,45,100
48000,note_on,,,,,64,0,11,,,,,3,,45,85
48128,note_off,,,,,128,0,9,,,,,1,,81,100
48128,note_off,,,,,128,0,12,,,,,4,,33,100
48128,note_off,,,,,0,0,13,,,,,5,,64,100
48128,note_off,,,,,0,0,13,,,,,5,,60,100
48128,note_off,,,,,128,0,13,,,,,5,,69,100
48128,note_off,,,,,128,0,14,,,,,5,,45,100
48128,note_off,,,,,128,0,10,,,,,2,,72,100
48128,note_off,,,,,128,0,11,,,,,3,,45,100
48192,note_on,,,,,64,0,9,,,,,1,,83,85
48192,note_on,,,,,0,0,13,,,,,5,,60,100
48192,note_on,,,,,64,0,11,,,,,3,,45,85
48192,note_on,,,,,64,0,13,,,,,5,,69,100
48192,note_on,,,,,64,0,14,,,,,5,,45,100
48192,note_on,,,,,64,0,10,,,,,2,,74,85
48192,note_on,,,,,64,0,12,,,,,4,,33,85
48192,note_on,,,,,0,0,13,,,,,5,,64,100
48256,note_off,,,,,64,0,10,,,,,2,,74,100
48256,note_off,,,,,64,0,9,,,,,1,,83,100
48288,note_on,,,,,32,0,10,,,,,2,,72,85
48288,note_on,,,,,32,0,9,,,,,1,,81,85
48320,note_off,,,,,128,0,12,,,,,4,,33,100
48320,note_off,,,,,0,0,13,,,,,5,,60,100
48320,note_off,,,,,128,0,11,,,,,3,,45,100
48320,note_off,,,,,128,0,14,,,,,5,,45,100
48320,note_off,,,,,128,0,13,,,,,5,,69,100
48320,note_off,,,,,0,0,13,,,,,5,,64,100
48352,note_off,,,,,64,0,10,,,,,2,,72,100
48352,note_off,,,,,64,0,9,,,,,1,,81,100
48384,note_on,,,,,64,0,13,,,,,5,,64,100
48384,note_on,,,,,0,0,13,,,,,5,,71,100
48384,note_on,,,,,64,0,12,,,,,4,,40,85
48384,note_on,,,,,64,0,11,,,,,3,,52,85
48384,note_on,,,,,32,0,9,,,,,1,,80,85
48384,note_on,,,,,64,0,14,,,,,5,,52,100
48384,note_on,,,,,32,0,10,,,,,2,,71,85
48384,note_on,,,,,0,0,13,,,,,5,,68,100
48512,note_off,,,,,128,0,9,,,,,1,,80,100
48512,note_off,,,,,128,0,13,,,,,5,,71,100
48512,note_off,,,,,128,0,10,,,,,2,,71,100
48576,note_on,,,,,64,0,9,,,,,1,,78,85
48576,note_on,,,,,64,0,13,,,,,5,,72,100
48576,note_on,,,,,64,0,10,,,,,2,,72,85
48640,note_off,,,,,256,0,12,,,,,4,,40,100
48640,note_off,,,,,256,0,14,,,,,5,,52,100
48640,note_off,,,,,256,0,11,,,,,3,,52,100
48640,note_off,,,,,64,0,9,,,,,1,,78,100
48640,note_off,,,,,0,0,13,,,,,5,,68,100
48640,note_off,,,,,64,0,13,,,,,5,,64,100
48672,note_on,,,,,32,0,9,,,,,1,,76,85
48704,note_off,,,,,128,0,10,,,,,2,,72,100
48704,note_off,,,,,64,0,13,,,,,5,,72,100
48736,note_off,,,,,64,0,9,,,,,1,,76,100
48768,note_on,,,,,64,0,13,,,,,5,,69,100
48768,note_on,,,,,0,0,13,,,,,5,,65,100
48768,note_on,,,,,128,0,14,,,,,5,,50,100
48768,note_on,,,,,64,0,10,,,,,2,,69,85
48768,note_on,,,,,128,0,11,,,,,3,,50,85
48768,note_on,,,,,32,0,9,,,,,1,,77,85
48768,note_on,,,,,128,0,12,,,,,4,,38,85
48896,note_off,,,,,128,0,13,,,,,5,,69,100
48896,note_off,,,,,128,0,10,,,,,2,,69,100
48896,note_off,,,,,128,0,9,,,,,1,,77,100
48960,note_on,,,,,64,0,9,,,,,1,,76,85
48960,note_on,,,,,64,0,10,,,,,2,,71,85
48960,note_on,,,,,64,0,13,,,,,5,,71,100
49024,note_off,,,,,256,0,14,,,,,5,,50,100
49024,note_off,,,,,64,0,13,,,,,5,,65,100
49024,note_off,,,,,256,0,11,,,,,3,,50,100
49024,note_off,,,,,256,0,12,,,,,4,,38,100
49024,note_off,,,,,64,0,9,,,,,1,,76,100
49056,note_on,,,,,32,0,9,,,,,1,,74,85
49088,note_off,,,,,64,0,13,,,,,5,,71,100
49088,note_off,,,,,128,0,10,,,,,2,,71,100
49120,note_off,,,,,64,0,9,,,,,1,,74,100
49152,note_on,,,,,32,0,9,,,,,1,,76,85
49152,note_on,,,,,0,0,13,,,,,5,,60,100
49152,note_on,,,,,64,0,13,,,,,5,,69,100
49152,note_on,,,,,0,0,13,,,,,5,,64,100
49152,note_on,,,,,128,0,12,,,,,4,,33,85
49152,note_on,,,,,128,0,11,,,,,3,,45,85
49152,note_on,,,,,64,0,10,,,,,2,,72,85
49152,note_on,,,,,128,0,14,,,,,5,,45,100
49280,note_off,,,,,128,0,11,,,,,3,,45,100
49280,note_off,,,,,128,0,12,,,,,4,,33,100
49280,note_off,,,,,128,0,13,,,,,5,,69,100
49280,note_off,,,,,0,0,13,,,,,5,,60,100
49280,note_off,,,,,0,0,13,,,,,5,,64,100
49280,note_off,,,,,128,0,14,,,,,5,,45,100
49344,note_on,,,,,64,0,14,,,,,5,,47,100
49344,note_on,,,,,64,0,12,,,,,4,,35,85
49344,note_on,,,,,64,0,13,,,,,5,,62,100
49344,note_on,,,,,64,0,11,,,,,3,,47,85
49472,note_off,,,,,128,0,14,,,,,5,,47,100
49472,note_off,,,,,128,0,11,,,,,3,,47,100
49472,note_off,,,,,128,0,13,,,,,5,,62,100
49472,note_off,,,,,128,0,12,,,,,4,,35,100
49536,note_on,,,,,64,0,14,,,,,5,,48,100
49536,note_on,,,,,64,0,11,,,,,3,,48,85
49536,note_on,,,,,64,0,12,,,,,4,,36,85
49536,note_on,,,,,64,0,13,,,,,5,,64,100
49536,note_off,,,,,384,0,10,,,,,2,,72,100
49536,note_off,,,,,384,0,9,,,,,1,,76,100
49664,note_off,,,,,128,0,12,,,,,4,,36,100
49664,note_off,,,,,128,0,14,,,,,5,,48,100
49664,note_off,,,,,128,0,11,,,,,3,,48,100
49664,note_off,,,,,128,0,13,,,,,5,,64,100
49728,note_on,,,,,64,0,12,,,,,4,,44,85
49728,note_on,,,,,64,0,13,,,,,5,,62,100
49728,note_on,,,,,192,0,10,,,,,2,,74,85
49728,note_on,,,,,192,0,9,,,,,1,,77,85
49728,note_on,,,,,64,0,11,,,,,3,,44,85
49728,note_on,,,,,0,0,13,,,,,5,,65,100
49728,note_on,,,,,64,0,14,,,,,5,,44,100
49856,note_off,,,,,128,0,13,,,,,5,,62,100
49856,note_off,,,,,0,0,13,,,,,5,,65,100
49856,note_off,,,,,128,0,14,,,,,5,,44,100
49856,note_off,,,,,128,0,9,,,,,1,,77,100
49856,note_off,,,,,128,0,11,,,,,3,,44,100
49856,note_off,,,,,128,0,10,,,,,2,,74,100
49856,note_off,,,,,128,0,12,,,,,4,,44,100
49920,note_on,,,,,64,0,11,,,,,3,,45,85
49920,note_on,,,,,64,0,9,,,,,1,,76,85
49920,note_on,,,,,64,0,12,,,,,4,,33,85
49920,note_on,,,,,0,0,13,,,,,5,,64,100
49920,note_on,,,,,64,0,14,,,,,5,,45,100
49920,note_on,,,,,64,0,10,,,,,2,,72,85
49920,note_on,,,,,64,0,13,,,,,5,,60,100
50048,note_off,,,,,128,0,13,,,,,5,,60,100
50048,note_off,,,,,0,0,13,,,,,5,,64,100
50048,note_off,,,,,128,0,12,,,,,4,,33,100
50048,note_off,,,,,128,0,14,,,,,5,,45,100
50048,note_off,,,,,128,0,11,,,,,3,,45,100
50112,note_on,,,,,64,0,13,,,,,5,,62,100
50112,note_on,,,,,64,0,12,,,,,4,,35,85
50112,note_on,,,,,64,0,14,,,,,5,,47,100
50112,note_on,,,,,64,0,11,,,,,3,,47,85
50240,note_off,,,,,128,0,12,,,,,4,,35,100
50240,note_off,,,,,128,0,11,,,,,3,,47,100
50240,note_off,,,,,128,0,14,,,,,5,,47,100
50240,note_off,,,,,128,0,13,,,,,5,,62,100
50304,note_on,,,,,64,0,11,,,,,3,,48,85
50304,note_off,,,,,384,0,10,,,,,2,,72,100
50304,note_off,,,,,384,0,9,,,,,1,,76,100
50304,note_on,,,,,64,0,12,,,,,4,,36,85
50304,note_on,,,,,64,0,13,,,,,5,,64,100
50304,note_on,,,,,64,0,14,,,,,5,,48,100
50432,note_off,,,,,128,0,11,,,,,3,,48,100
50432,note_off,,,,,128,0,13,,,,,5,,64,100
50432,note_off,,,,,128,0,14,,,,,5,,48,100
50432,note_off,,,,,128,0,12,,,,,4,,36,100
50496,note_on,,,,,0,0,13,,,,,5,,65,100
50496,note_on,,,,,64,0,11,,,,,3,,44,85
50496,note_on,,,,,192,0,10,,,,,2,,74,85
50496,note_on,,,,,64,0,12,,,,,4,,44,85
50496,note_on,,,,,192,0,9,,,,,1,,77,85
50496,note_on,,,,,64,0,13,,,,,5,,62,100
50496,note_on,,,,,64,0,14,,,,,5,,44,100
50624,note_off,,,,,0,0,13,,,,,5,,65,100
50624,note_off,,,,,128,0,10,,,,,2,,74,100
50624,note_off,,,,,128,0,11,,,,,3,,44,100
50624,note_off,,,,,128,0,9,,,,,1,,77,100
50624,note_off,,,,,128,0,14,,,,,5,,44,100
50624,note_off,,,,,128,0,12,,,,,4,,44,100
50624,note_off,,,,,128,0,13,,,,,5,,62,100
50688,note_on,,,,,64,0,12,,,,,4,,45,85
50688,note_on,,,,,64,0,10,,,,,2,,72,85
50688,note_on,,,,,64,0,13,,,,,5,,60,100
50688,note_on,,,,,0,0,13,,,,,5,,64,100
50688,note_on,,,,,64,0,14,,,,,5,,45,100
50688,note_on,,,,,64,0,9,,,,,1,,76,85
50688,note_on,,,,,64,0,11,,,,,3,,45,85
50816,note_off,,,,,128,0,9,,,,,1,,76,100
50816,note_off,,,,,128,0,10,,,,,2,,72,100
50880,note_on,,,,,64,0,10,,,,,2,,71,85
50880,note_on,,,,,64,0,9,,,,,1,,74,85
50944,note_off,,,,,256,0,12,,,,,4,,45,100
50944,note_off,,,,,64,0,9,,,,,1,,74,100
50944,note_off,,,,,64,0,10,,,,,2,,71,100
50944,note_off,,,,,256,0,11,,,,,3,,45,100
50944,note_off,,,,,256,0,14,,,,,5,,45,100
50944,note_off,,,,,0,0,13,,,,,5,,64,100
50944,note_off,,,,,256,0,13,,,,,5,,60,100
50976,note_on,,,,,32,0,10,,,,,2,,72,85
50976,note_on,,,,,32,0,9,,,,,1,,76,85
51040,note_off,,,,,64,0,9,,,,,1,,76,100
51040,note_off,,,,,64,0,10,,,,,2,,72,100
51072,note_on,,,,,0,0,13,,,,,5,,65,100
51072,note_on,,,,,128,0,12,,,,,4,,44,85
51072,note_on,,,,,128,0,13,,,,,5,,62,100
51072,note_on,,,,,32,0,9,,,,,1,,77,85
51072,note_on,,,,,128,0,14,,,,,5,,44,100
51072,note_on,,,,,128,0,11,,,,,3,,44,85
51072,note_on,,,,,32,0,10,,,,,2,,74,85
51200,note_off,,,,,128,0,9,,,,,1,,77,100
51200,note_off,,,,,128,0,10,,,,,2,,74,100
51264,note_on,,,,,64,0,10,,,,,2,,74,85
51264,note_on,,,,,64,0,9,,,,,1,,77,85
51328,note_off,,,,,256,0,12,,,,,4,,44,100
51328,note_off,,,,,256,0,11,,,,,3,,44,100
51328,note_off,,,,,0,0,13,,,,,5,,65,100
51328,note_off,,,,,256,0,14,,,,,5,,44,100
51328,note_off,,,,,256,0,13,,,,,5,,62,100
51392,note_off,,,,,128,0,10,,,,,2,,74,100
51392,note_off,,,,,128,0,9,,,,,1,,77,100
51456,note_on,,,,,64,0,10,,,,,2,,72,85
51456,note_on,,,,,128,0,12,,,,,4,,45,85
51456,note_on,,,,,0,0,13,,,,,5,,64,100
51456,note_on,,,,,128,0,13,,,,,5,,60,100
51456,note_on,,,,,128,0,14,,,,,5,,45,100
51456,note_on,,,,,128,0,11,,,,,3,,45,85
51456,note_on,,,,,64,0,9,,,,,1,,76,85
51584,note_off,,,,,128,0,9,,,,,1,,76,100
51584,note_off,,,,,128,0,10,,,,,2,,72,100
51648,note_on,,,,,64,0,10,,,,,2,,71,85
51648,note_on,,,,,64,0,9,,,,,1,,74,85
51712,note_off,,,,,64,0,9,,,,,1,,74,100
51712,note_off,,,,,256,0,12,,,,,4,,45,100
51712,note_off,,,,,64,0,10,,,,,2,,71,100
51712,note_off,,,,,0,0,13,,,,,5,,64,100
51712,note_off,,,,,256,0,11,,,,,3,,45,100
51712,note_off,,,,,256,0,14,,,,,5,,45,100
51712,note_off,,,,,256,0,13,,,,,5,,60,100
51744,note_on,,,,,32,0,10,,,,,2,,72,85
51744,note_on,,,,,32,0,9,,,,,1,,76,85
51808,note_off,,,,,64,0,9,,,,,1,,76,100
51808,note_off,,,,,64,0,10,,,,,2,,72,100
51840,note_on,,,,,32,0,10,,,,,2,,74,85
51840,note_on,,,,,0,0,13,,,,,5,,65,100
51840,note_on,,,,,128,0,12,,,,,4,,44,85
51840,note_on,,,,,32,0,9,,,,,1,,77,85
51840,note_on,,,,,128,0,14,,,,,5,,44,100
51840,note_on,,,,,128,0,13,,,,,5,,62,100
51840,note_on,,,,,128,0,11,,,,,3,,44,85
51968,note_off,,,,,128,0,9,,,,,1,,77,100
51968,note_off,,,,,128,0,10,,,,,2,,74,100
52032,note_on,,,,,64,0,9,,,,,1,,77,85
52032,note_on,,,,,64,0,10,,,,,2,,74,85
52096,note_off,,,,,256,0,14,,,,,5,,44,100
52096,note_off,,,,,256,0,13,,,,,5,,62,100
52096,note_off,,,,,0,0,13,,,,,5,,65,100
52096,note_off,,,,,256,0,11,,,,,3,,44,100
52096,note_off,,,,,256,0,12,,,,,4,,44,100
52160,note_off,,,,,128,0,9,,,,,1,,77,100
52160,note_off,,,,,128,0,10,,,,,2,,74,100
52224,note_on,,,,,128,0,11,,,,,3,,45,85
52224,note_on,,,,,64,0,10,,,,,2,,72,85
52224,note_on,,,,,64,0,9,,,,,1,,76,85
52224,note_on,,,,,128,0,14,,,,,5,,45,100
52224,note_on,,,,,0,0,13,,,,,5,,64,100
52224,note_on,,,,,128,0,12,,,,,4,,33,85
52224,note_on,,,,,128,0,13,,,,,5,,60,100
52352,note_off,,,,,128,0,9,,,,,1,,76,100
52416,note_on,,,,,64,0,9,,,,,1,,78,85
52480,note_off,,,,,256,0,10,,,,,2,,72,100
52480,note_off,,,,,0,0,13,,,,,5,,64,100
52480,note_off,,,,,256,0,13,,,,,5,,60,100
52480,note_off,,,,,256,0,11,,,,,3,,45,100
52480,note_off,,,,,256,0,14,,,,,5,,45,100
52480,note_off,,,,,256,0,12,,,,,4,,33,100
52480,note_off,,,,,64,0,9,,,,,1,,78,100
52512,note_on,,,,,32,0,9,,,,,1,,80,85
52576,note_off,,,,,64,0,9,,,,,1,,80,100
52608,note_on,,,,,32,0,9,,,,,1,,81,85
52736,note_off,,,,,128,0,9,,,,,1,,81,100
52800,note_on,,,,,64,0,9,,,,,1,,81,85
52864,note_off,,,,,64,0,9,,,,,1,,81,100
52896,note_on,,,,,32,0,9,,,,,1,,83,85
52960,note_off,,,,,64,0,9,,,,,1,,83,100
52992,note_on,,,,,512,0,12,,,,,4,,33,85
52992,note_on,,,,,512,0,13,,,,,5,,69,100
52992,note_on,,,,,0,0,13,,,,,5,,60,100
52992,note_on,,,,,512,0,11,,,,,3,,45,85
52992,note_on,,,,,512,0,14,,,,,5,,45,100
52992,note_on,,,,,32,0,9,,,,,1,,84,85
52992,note_on,,,,,512,0,10,,,,,2,,64,85
52992,note_on,,,,,0,0,13,,,,,5,,64,100
53120,note_off,,,,,128,0,9,,,,,1,,84,100
53184,note_on,,,,,64,0,9,,,,,1,,84,85
53248,note_off,,,,,256,0,13,,,,,5,,69,100
53248,note_off,,,,,256,0,14,,,,,5,,45,100
53248,note_off,,,,,0,0,13,,,,,5,,60,100
53248,note_off,,,,,0,0,13,,,,,5,,64,100
53248,note_off,,,,,256,0,10,,,,,2,,64,100
53248,note_off,,,,,256,0,11,,,,,3,,45,100
53248,note_off,,,,,256,0,12,,,,,4,,33,100
53248,note_off,,,,,64,0,9,,,,,1,,84,100
53280,note_on,,,,,32,0,9,,,,,1,,86,85
53344,note_off,,,,,64,0,9,,,,,1,,86,100
53376,note_on,,,,,32,0,9,,,,,1,,88,85
53568,note_on,,,,,6976,0,8,,,,,0,,76,100
53632,note_off,,,,,256,0,9,,,,,1,,88,100
53696,note_off,,,,,128,0,8,,,,,0,,76,100
53760,note_on,,,,,512,0,14,,,,,5,,45,100
53760,note_on,,,,,512,0,11,,,,,3,,45,85
53760,note_on,,,,,512,0,12,,,,,4,,33,85
53760,note_on,,,,,64,0,8,,,,,0,,81,100
53760,note_on,,,,,0,0,13,,,,,5,,64,100
53760,note_on,,,,,512,0,13,,,,,5,,60,100
53888,note_off,,,,,128,0,8,,,,,0,,81,100
53952,note_on,,,,,64,0,8,,,,,0,,81,100
54016,note_off,,,,,0,0,13,,,,,5,,64,100
54016,note_off,,,,,256,0,11,,,,,3,,45,100
54016,note_off,,,,,256,0,12,,,,,4,,33,100
54016,note_off,,,,,256,0,13,,,,,5,,60,100
54016,note_off,,,,,64,0,8,,,,,0,,81,100
54016,note_off,,,,,256,0,14,,,,,5,,45,100
54048,note_on,,,,,32,0,8,,,,,0,,83,100
54112,note_off,,,,,64,0,8,,,,,0,,83,100
54144,note_on,,,,,32,0,8,,,,,0,,84,100
54272,note_off,,,,,128,0,8,,,,,0,,84,100
54336,note_on,,,,,64,0,8,,,,,0,,84,100
54400,note_off,,,,,64,0,8,,,,,0,,84,100
54432,note_on,,,,,32,0,8,,,,,0,,86,100
54496,note_off,,,,,64,0,8,,,,,0,,86,100
54528,note_on,,,,,0,0,13,,,,,5,,60,100
54528,note_on,,,,,512,0,13,,,,,5,,69,100
54528,note_on,,,,,512,0,11,,,,,3,,45,85
54528,note_on,,,,,512,0,14,,,,,5,,45,100
54528,note_on,,,,,0,0,13,,,,,5,,64,100
54528,note_on,,,,,512,0,12,,,,,4,,33,85
54528,note_on,,,,,32,0,8,,,,,0,,88,100
54656,note_off,,,,,128,0,8,,,,,0,,88,100
54720,note_on,,,,,64,0,8,,,,,0,,76,100
54784,note_off,,,,,256,0,11,,,,,3,,45,100
54784,note_off,,,,,0,0,13,,,,,5,,64,100
54784,note_off,,,,,0,0,13,,,,,5,,60,100
54784,note_off,,,,,256,0,12,,,,,4,,33,100
54784,note_off,,,,,256,0,14,,,,,5,,45,100
54784,note_off,,,,,256,0,13,,,,,5,,69,100
54848,note_off,,,,,128,0,8,,,,,0,,76,100
54912,note_on,,,,,64,0,8,,,,,0,,76,100
55040,note_off,,,,,128,0,8,,,,,0,,76,100
55104,note_on,,,,,64,0,8,,,,,0,,76,100
55232,note_off,,,,,128,0,8,,,,,0,,76,100
55296,note_on,,,,,512,0,12,,,,,4,,33,70
55296,note_on,,,,,64,0,8,,,,,0,,81,85
55296,note_on,,,,,512,0,14,,,,,5,,45,100
55296,note_on,,,,,0,0,13,,,,,5,,64,100
55296,note_on,,,,,512,0,11,,,,,3,,45,70
55296,note_on,,,,,512,0,13,,,,,5,,60,100
55424,note_off,,,,,128,0,8,,,,,0,,81,100
55488,note_on,,,,,64,0,8,,,,,0,,81,85
55552,note_off,,,,,256,0,13,,,,,5,,60,100
55552,note_off,,,,,0,0,13,,,,,5,,64,100
55552,note_off,,,,,256,0,12,,,,,4,,33,100
55552,note_off,,,,,64,0,8,,,,,0,,81,100
55552,note_off,,,,,256,0,11,,,,,3,,45,100
55552,note_off,,,,,256,0,14,,,,,5,,45,100
55584,note_on,,,,,32,0,8,,,,,0,,83,85
55648,note_off,,,,,64,0,8,,,,,0,,83,100
55680,note_on,,,,,32,0,8,,,,,0,,84,85
55808,note_off,,,,,128,0,8,,,,,0,,84,100
55872,note_on,,,,,64,0,8,,,,,0,,84,85
55936,note_off,,,,,64,0,8,,,,,0,,84,100
55968,note_on,,,,,32,0,8,,,,,0,,86,85
56032,note_off,,,,,64,0,8,,,,,0,,86,100
56064,note_on,,,,,32,0,8,,,,,0,,88,85
56064,note_on,,,,,0,0,13,,,,,5,,60,100
56064,note_on,,,,,512,0,13,,,,,5,,69,100
56064,note_on,,,,,0,0,13,,,,,5,,64,100
56064,note_on,,,,,512,0,11,,,,,3,,45,70
56064,note_on,,,,,512,0,14,,,,,5,,45,100
56064,note_on,,,,,512,0,12,,,,,4,,33,70
56192,note_off,,,,,128,0,8,,,,,0,,88,100
56256,note_on,,,,,64,0,8,,,,,0,,76,85
56320,note_off,,,,,256,0,11,,,,,3,,45,100
56320,note_off,,,,,256,0,13,,,,,5,,69,100
56320,note_off,,,,,256,0,14,,,,,5,,45,100
56320,note_off,,,,,0,0,13,,,,,5,,64,100
56320,note_off,,,,,256,0,12,,,,,4,,33,100
56320,note_off,,,,,0,0,13,,,,,5,,60,100
56384,note_off,,,,,128,0,8,,,,,0,,76,100
56448,note_on,,,,,64,0,8,,,,,0,,76,91
56576,note_off,,,,,128,0,8,,,,,0,,76,100
56640,note_on,,,,,64,0,8,,,,,0,,76,98
56768,note_off,,,,,128,0,8,,,,,0,,76,100
56832,note_on,,,,,512,0,14,,,,,5,,57,100
56832,note_on,,,,,0,0,13,,,,,5,,64,100
56832,note_on,,,,,512,0,13,,,,,5,,61,100
56832,note_on,,,,,64,0,8,,,,,0,,81,104
56832,note_on,,,,,512,0,12,,,,,4,,45,85
56832,note_on,,,,,512,0,11,,,,,3,,57,85
56896,note_off,,,,,64,0,8,,,,,0,,81,100
56928,note_on,,,,,32,0,8,,,,,0,,69,100
56960,note_off,,,,,128,0,12,,,,,4,,45,100
56960,note_off,,,,,128,0,13,,,,,5,,61,100
56960,note_off,,,,,0,0,13,,,,,5,,64,100
56960,note_off,,,,,128,0,14,,,,,5,,57,100
56960,note_off,,,,,128,0,11,,,,,3,,57,100
56992,note_off,,,,,64,0,8,,,,,0,,69,100
57024,note_on,,,,,32,0,8,,,,,0,,73,100
57024,note_on,,,,,64,0,13,,,,,5,,64,100
57024,note_on,,,,,0,0,13,,,,,5,,73,100
57024,note_on,,,,,64,0,11,,,,,3,,59,85
57024,note_on,,,,,64,0,12,,,,,4,,47,85
57024,note_on,,,,,64,0,14,,,,,5,,59,100
57088,note_off,,,,,64,0,8,,,,,0,,73,100
57120,note_on,,,,,32,0,8,,,,,0,,76,100
57152,note_off,,,,,128,0,13,,,,,5,,64,100
57152,note_off,,,,,128,0,12,,,,,4,,47,100
57152,note_off,,,,,128,0,11,,,,,3,,59,100
57152,note_off,,,,,128,0,14,,,,,5,,59,100
57152,note_off,,,,,0,0,13,,,,,5,,73,100
57184,note_off,,,,,64,0,8,,,,,0,,76,100
57216,note_on,,,,,0,0,13,,,,,5,,76,100
57216,note_on,,,,,32,0,8,,,,,0,,81,100
57216,note_on,,,,,64,0,13,,,,,5,,69,100
57216,note_on,,,,,64,0,11,,,,,3,,61,85
57216,note_on,,,,,64,0,14,,,,,5,,61,100
57216,note_on,,,,,64,0,12,,,,,4,,49,85
57280,note_off,,,,,64,0,8,,,,,0,,81,100
57312,note_on,,,,,32,0,8,,,,,0,,69,100
57344,note_off,,,,,128,0,12,,,,,4,,49,100
57344,note_off,,,,,128,0,14,,,,,5,,61,100
57344,note_off,,,,,128,0,11,,,,,3,,61,100
57344,note_off,,,,,128,0,13,,,,,5,,69,100
57344,note_off,,,,,0,0,13,,,,,5,,76,100
57376,note_off,,,,,64,0,8,,,,,0,,69,100
57408,note_on,,,,,64,0,12,,,,,4,,45,85
57408,note_on,,,,,64,0,11,,,,,3,,57,85
57408,note_on,,,,,32,0,8,,,,,0,,73,100
57408,note_on,,,,,64,0,13,,,,,5,,64,100
57408,note_on,,,,,0,0,13,,,,,5,,73,100
57408,note_on,,,,,64,0,14,,,,,5,,57,100
57472,note_off,,,,,64,0,8,,,,,0,,73,100
57504,note_on,,,,,32,0,8,,,,,0,,76,100
57536,note_off,,,,,128,0,11,,,,,3,,57,100
57536,note_off,,,,,128,0,14,,,,,5,,57,100
57536,note_off,,,,,0,0,13,,,,,5,,73,100
57536,note_off,,,,,128,0,12,,,,,4,,45,100
57536,note_off,,,,,128,0,13,,,,,5,,64,100
57568,note_off,,,,,64,0,8,,,,,0,,76,100
57600,note_on,,,,,64,0,13,,,,,5,,61,100
57600,note_on,,,,,0,0,13,,,,,5,,64,100
57600,note_on,,,,,64,0,11,,,,,3,,45,85
57600,note_on,,,,,64,0,12,,,,,4,,33,85
57600,note_on,,,,,32,0,8,,,,,0,,81,100
57600,note_on,,,,,64,0,14,,,,,5,,45,100
57664,note_off,,,,,64,0,8,,,,,0,,81,100
57696,note_on,,,,,32,0,8,,,,,0,,69,100
57760,note_off,,,,,64,0,8,,,,,0,,69,100
57792,note_on,,,,,32,0,8,,,,,0,,73,100
57856,note_off,,,,,256,0,11,,,,,3,,45,100
57856,note_off,,,,,0,0,13,,,,,5,,64,100
57856,note_off,,,,,256,0,13,,,,,5,,61,100
57856,note_off,,,,,256,0,14,,,,,5,,45,100
57856,note_off,,,,,256,0,12,,,,,4,,33,100
57856,note_off,,,,,64,0,8,,,,,0,,73,100
57888,note_on,,,,,32,0,8,,,,,0,,76,100
57952,note_off,,,,,64,0,8,,,,,0,,76,100
57984,note_on,,,,,32,0,8,,,,,0,,81,100
58048,note_off,,,,,64,0,8,,,,,0,,81,100
58080,note_on,,,,,32,0,8,,,,,0,,69,100
58144,note_off,,,,,64,0,8,,,,,0,,69,100
58176,note_on,,,,,32,0,8,,,,,0,,73,100
58240,note_off,,,,,64,0,8,,,,,0,,73,100
58272,note_on,,,,,32,0,8,,,,,0,,76,100
58336,note_off,,,,,64,0,8,,,,,0,,76,100
58368,note_on,,,,,512,0,13,,,,,5,,61,100
58368,note_on,,,,,512,0,11,,,,,3,,57,85
58368,note_on,,,,,512,0,14,,,,,5,,57,100
58368,note_on,,,,,512,0,12,,,,,4,,45,85
58368,note_on,,,,,32,0,8,,,,,0,,79,100
58368,note_on,,,,,0,0,13,,,,,5,,67,100
58432,note_off,,,,,64,0,8,,,,,0,,79,100
58464,note_on,,,,,32,0,8,,,,,0,,69,100
58496,note_off,,,,,0,0,13,,,,,5,,67,100
58496,note_off,,,,,128,0,13,,,,,5,,61,100
58496,note_off,,,,,128,0,11,,,,,3,,57,100
58496,note_off,,,,,128,0,12,,,,,4,,45,100
58496,note_off,,,,,128,0,14,,,,,5,,57,100
58528,note_off,,,,,64,0,8,,,,,0,,69,100
58560,note_on,,,,,64,0,13,,,,,5,,64,100
58560,note_on,,,,,0,0,13,,,,,5,,73,100
58560,note_on,,,,,32,0,8,,,,,0,,73,100
58560,note_on,,,,,64,0,14,,,,,5,,59,100
58560,note_on,,,,,64,0,11,,,,,3,,59,85
58560,note_on,,,,,64,0,12,,,,,4,,47,85
58624,note_off,,,,,64,0,8,,,,,0,,73,100
58656,note_on,,,,,32,0,8,,,,,0,,76,100
58688,note_off,,,,,0,0,13,,,,,5,,73,100
58688,note_off,,,,,128,0,11,,,,,3,,59,100
58688,note_off,,,,,128,0,12,,,,,4,,47,100
58688,note_off,,,,,128,0,13,,,,,5,,64,100
58688,note_off,,,,,128,0,14,,,,,5,,59,100
58720,note_off,,,,,64,0,8,,,,,0,,76,100
58752,note_on,,,,,64,0,11,,,,,3,,61,85
58752,note_on,,,,,32,0,8,,,,,0,,79,100
58752,note_on,,,,,0,0,13,,,,,5,,76,100
58752,note_on,,,,,64,0,12,,,,,4,,49,85
58752,note_on,,,,,64,0,13,,,,,5,,69,100
58752,note_on,,,,,64,0,14,,,,,5,,61,100
58816,note_off,,,,,64,0,8,,,,,0,,79,100
58848,note_on,,,,,32,0,8,,,,,0,,69,100
58880,note_off,,,,,128,0,14,,,,,5,,61,100
58880,note_off,,,,,128,0,13,,,,,5,,69,100
58880,note_off,,,,,128,0,11,,,,,3,,61,100
58880,note_off,,,,,0,0,13,,,,,5,,76,100
58880,note_off,,,,,128,0,12,,,,,4,,49,100
58912,note_off,,,,,64,0,8,,,,,0,,69,100
58944,note_on,,,,,64,0,11,,,,,3,,57,85
58944,note_on,,,,,64,0,12,,,,,4,,45,85
58944,note_on,,,,,64,0,13,,,,,5,,64,100
58944,note_on,,,,,0,0,13,,,,,5,,73,100
58944,note_on,,,,,64,0,14,,,,,5,,57,100
58944,note_on,,,,,32,0,8,,,,,0,,73,100
59008,note_off,,,,,64,0,8,,,,,0,,73,100
59040,note_on,,,,,32,0,8,,,,,0,,76,100
59072,note_off,,,,,128,0,13,,,,,5,,64,100
59072,note_off,,,,,0,0,13,,,,,5,,73,100
59072,note_off,,,,,128,0,11,,,,,3,,57,100
59072,note_off,,,,,128,0,14,,,,,5,,57,100
59072,note_off,,,,,128,0,12,,,,,4,,45,100
59104,note_off,,,,,64,0,8,,,,,0,,76,100
59136,note_on,,,,,64,0,11,,,,,3,,45,85
59136,note_on,,,,,64,0,14,,,,,5,,45,100
59136,note_on,,,,,64,0,12,,,,,4,,33,85
59136,note_on,,,,,0,0,13,,,,,5,,67,100
59136,note_on,,,,,0,0,13,,,,,5,,64,100
59136,note_on,,,,,64,0,13,,,,,5,,61,100
59136,note_on,,,,,32,0,8,,,,,0,,79,100
59200,note_off,,,,,64,0,8,,,,,0,,79,100
59232,note_on,,,,,32,0,8,,,,,0,,69,100
59296,note_off,,,,,64,0,8,,,,,0,,69,100
59328,note_on,,,,,32,0,8,,,,,0,,73,100
59392,note_off,,,,,256,0,14,,,,,5,,45,100
59392,note_off,,,,,256,0,11,,,,,3,,45,100
59392,note_off,,,,,64,0,8,,,,,0,,73,100
59392,note_off,,,,,256,0,13,,,,,5,,61,100
59392,note_off,,,,,0,0,13,,,,,5,,64,100
59392,note_off,,,,,0,0,13,,,,,5,,67,100
59392,note_off,,,,,256,0,12,,,,,4,,33,100
59424,note_on,,,,,32,0,8,,,,,0,,76,100
59488,note_off,,,,,64,0,8,,,,,0,,76,100
59520,note_on,,,,,32,0,8,,,,,0,,79,100
59584,note_off,,,,,64,0,8,,,,,0,,79,100
59616,note_on,,,,,32,0,8,,,,,0,,69,100
59680,note_off,,,,,64,0,8,,,,,0,,69,100
59712,note_on,,,,,32,0,8,,,,,0,,73,100
59776,note_off,,,,,64,0,8,,,,,0,,73,100
59808,note_on,,,,,32,0,8,,,,,0,,76,100
59872,note_off,,,,,64,0,8,,,,,0,,76,100
59904,note_on,,,,,512,0,13,,,,,5,,66,100
59904,note_on,,,,,512,0,11,,,,,3,,50,85
59904,note_on,,,,,0,0,13,,,,,5,,57,100
59904,note_on,,,,,512,0,12,,,,,4,,38,85
59904,note_on,,,,,32,0,8,,,,,0,,78,100
59904,note_on,,,,,512,0,14,,,,,5,,50,100
59968,note_off,,,,,64,0,8,,,,,0,,78,100
60000,note_on,,,,,32,0,8,,,,,0,,62,100
60032,note_off,,,,,128,0,12,,,,,4,,38,100
60032,note_off,,,,,128,0,13,,,,,5,,66,100
60032,note_off,,,,,0,0,13,,,,,5,,57,100
60032,note_off,,,,,128,0,14,,,,,5,,50,100
60032,note_off,,,,,128,0,11,,,,,3,,50,100
60064,note_off,,,,,64,0,8,,,,,0,,62,100
60096,note_on,,,,,64,0,11,,,,,3,,52,85
60096,note_on,,,,,64,0,14,,,,,5,,52,100
60096,note_on,,,,,32,0,8,,,,,0,,66,100
60096,note_on,,,,,64,0,13,,,,,5,,62,100
60096,note_on,,,,,0,0,13,,,,,5,,66,100
60096,note_on,,,,,64,0,12,,,,,4,,40,85
60160,note_off,,,,,64,0,8,,,,,0,,66,100
60192,note_on,,,,,32,0,8,,,,,0,,69,100
60224,note_off,,,,,128,0,13,,,,,5,,62,100
60224,note_off,,,,,0,0,13,,,,,5,,66,100
60224,note_off,,,,,128,0,14,,,,,5,,52,100
60224,note_off,,,,,128,0,11,,,,,3,,52,100
60224,note_off,,,,,128,0,12,,,,,4,,40,100
60256,note_off,,,,,64,0,8,,,,,0,,69,100
60288,note_on,,,,,64,0,13,,,,,5,,62,100
60288,note_on,,,,,0,0,13,,,,,5,,69,100
60288,note_on,,,,,32,0,8,,,,,0,,74,100
60288,note_on,,,,,64,0,11,,,,,3,,54,85
60288,note_on,,,,,64,0,14,,,,,5,,54,100
60288,note_on,,,,,64,0,12,,,,,4,,42,85
60352,note_off,,,,,64,0,8,,,,,0,,74,100
60384,note_on,,,,,32,0,8,,,,,0,,62,100
60416,note_off,,,,,128,0,12,,,,,4,,42,100
60416,note_off,,,,,128,0,11,,,,,3,,54,100
60416,note_off,,,,,128,0,14,,,,,5,,54,100
60416,note_off,,,,,128,0,13,,,,,5,,62,100
60416,note_off,,,,,0,0,13,,,,,5,,69,100
60448,note_off,,,,,64,0,8,,,,,0,,62,100
60480,note_on,,,,,64,0,14,,,,,5,,50,100
60480,note_on,,,,,64,0,13,,,,,5,,57,100
60480,note_on,,,,,0,0,13,,,,,5,,66,100
60480,note_on,,,,,64,0,12,,,,,4,,38,85
60480,note_on,,,,,64,0,11,,,,,3,,50,85
60480,note_on,,,,,32,0,8,,,,,0,,66,100
60544,note_off,,,,,64,0,8,,,,,0,,66,100
60576,note_on,,,,,32,0,8,,,,,0,,69,100
60608,note_off,,,,,128,0,11,,,,,3,,50,100
60608,note_off,,,,,128,0,12,,,,,4,,38,100
60608,note_off,,,,,128,0,13,,,,,5,,57,100
60608,note_off,,,,,0,0,13,,,,,5,,66,100
60608,note_off,,,,,128,0,14,,,,,5,,50,100
60640,note_off,,,,,64,0,8,,,,,0,,69,100
60672,note_on,,,,,64,0,11,,,,,3,,38,85
60672,note_on,,,,,64,0,12,,,,,4,,38,85
60672,note_on,,,,,64,0,13,,,,,5,,54,100
60672,note_on,,,,,0,0,13,,,,,5,,57,100
60672,note_on,,,,,32,0,8,,,,,0,,74,100
60672,note_on,,,,,64,0,14,,,,,5,,38,100
60736,note_off,,,,,64,0,8,,,,,0,,74,100
60768,note_on,,,,,32,0,8,,,,,0,,62,100
60832,note_off,,,,,64,0,8,,,,,0,,62,100
60864,note_on,,,,,32,0,8,,,,,0,,66,100
60928,note_off,,,,,256,0,12,,,,,4,,38,100
60928,note_off,,,,,256,0,14,,,,,5,,38,100
60928,note_off,,,,,256,0,11,,,,,3,,38,100
60928,note_off,,,,,64,0,8,,,,,0,,66,100
60928,note_off,,,,,0,0,13,,,,,5,,57,100
60928,note_off,,,,,256,0,13,,,,,5,,54,100
60960,note_on,,,,,32,0,8,,,,,0,,69,100
61024,note_off,,,,,64,0,8,,,,,0,,69,100
61056,note_on,,,,,32,0,8,,,,,0,,74,100
61120,note_off,,,,,64,0,8,,,,,0,,74,100
61152,note_on,,,,,32,0,8,,,,,0,,62,100
61216,note_off,,,,,64,0,8,,,,,0,,62,100
61248,note_on,,,,,32,0,8,,,,,0,,66,100
61312,note_off,,,,,64,0,8,,,,,0,,66,100
61344,note_on,,,,,32,0,8,,,,,0,,69,100
61408,note_off,,,,,64,0,8,,,,,0,,69,100
61440,note_on,,,,,512,0,14,,,,,5,,50,100
61440,note_on,,,,,512,0,12,,,,,4,,38,85
61440,note_on,,,,,512,0,11,,,,,3,,50,85
61440,note_on,,,,,32,0,8,,,,,0,,72,100
61440,note_on,,,,,0,0,13,,,,,5,,66,100
61440,note_on,,,,,512,0,13,,,,,5,,60,100
61504,note_off,,,,,64,0,8,,,,,0,,72,100
61536,note_on,,,,,32,0,8,,,,,0,,62,100
61568,note_off,,,,,128,0,11,,,,,3,,50,100
61568,note_off,,,,,128,0,14,,,,,5,,50,100
61568,note_off,,,,,0,0,13,,,,,5,,66,100
61568,note_off,,,,,128,0,13,,,,,5,,60,100
61568,note_off,,,,,128,0,12,,,,,4,,38,100
61600,note_off,,,,,64,0,8,,,,,0,,62,100
61632,note_on,,,,,32,0,8,,,,,0,,66,100
61632,note_on,,,,,64,0,11,,,,,3,,52,85
61632,note_on,,,,,0,0,13,,,,,5,,62,100
61632,note_on,,,,,64,0,13,,,,,5,,66,100
61632,note_on,,,,,64,0,14,,,,,5,,52,100
61632,note_on,,,,,64,0,12,,,,,4,,40,85
61696,note_off,,,,,64,0,8,,,,,0,,66,100
61728,note_on,,,,,32,0,8,,,,,0,,69,100
61760,note_off,,,,,0,0,13,,,,,5,,62,100
61760,note_off,,,,,128,0,11,,,,,3,,52,100
61760,note_off,,,,,128,0,14,,,,,5,,52,100
61760,note_off,,,,,128,0,12,,,,,4,,40,100
61760,note_off,,,,,128,0,13,,,,,5,,66,100
61792,note_off,,,,,64,0,8,,,,,0,,69,100
61824,note_on,,,,,64,0,14,,,,,5,,54,100
61824,note_on,,,,,64,0,13,,,,,5,,62,100
61824,note_on,,,,,0,0,13,,,,,5,,69,100
61824,note_on,,,,,32,0,8,,,,,0,,72,100
61824,note_on,,,,,64,0,11,,,,,3,,54,85
61824,note_on,,,,,64,0,12,,,,,4,,42,85
61888,note_off,,,,,64,0,8,,,,,0,,72,100
61920,note_on,,,,,32,0,8,,,,,0,,62,100
61952,note_off,,,,,128,0,13,,,,,5,,62,100
61952,note_off,,,,,128,0,12,,,,,4,,42,100
61952,note_off,,,,,128,0,14,,,,,5,,54,100
61952,note_off,,,,,0,0,13,,,,,5,,69,100
61952,note_off,,,,,128,0,11,,,,,3,,54,100
61984,note_off,,,,,64,0,8,,,,,0,,62,100
62016,note_on,,,,,64,0,14,,,,,5,,50,100
62016,note_on,,,,,64,0,11,,,,,3,,50,85
62016,note_on,,,,,0,0,13,,,,,5,,66,100
62016,note_on,,,,,64,0,12,,,,,4,,38,85
62016,note_on,,,,,64,0,13,,,,,5,,57,100
62016,note_on,,,,,32,0,8,,,,,0,,66,100
62080,note_off,,,,,64,0,8,,,,,0,,66,100
62112,note_on,,,,,32,0,8,,,,,0,,69,100
62144,note_off,,,,,128,0,12,,,,,4,,38,100
62144,note_off,,,,,128,0,14,,,,,5,,50,100
62144,note_off,,,,,0,0,13,,,,,5,,66,100
62144,note_off,,,,,128,0,13,,,,,5,,57,100
62144,note_off,,,,,128,0,11,,,,,3,,50,100
62176,note_off,,,,,64,0,8,,,,,0,,69,100
62208,note_on,,,,,0,0,13,,,,,5,,57,100
62208,note_on,,,,,0,0,13,,,,,5,,60,100
62208,note_on,,,,,64,0,13,,,,,5,,54,100
62208,note_on,,,,,32,0,8,,,,,0,,72,100
62208,note_on,,,,,64,0,14,,,,,5,,38,100
62208,note_on,,,,,64,0,12,,,,,4,,38,85
62208,note_on,,,,,64,0,11,,,,,3,,38,85
62272,note_off,,,,,64,0,8,,,,,0,,72,100
62304,note_on,,,,,32,0,8,,,,,0,,62,100
62368,note_off,,,,,64,0,8,,,,,0,,62,100
62400,note_on,,,,,32,0,8,,,,,0,,66,100
62464,note_off,,,,,256,0,12,,,,,4,,38,100
62464,note_off,,,,,256,0,11,,,,,3,,38,100
62464,note_off,,,,,256,0,14,,,,,5,,38,100
62464,note_off,,,,,0,0,13,,,,,5,,60,100
62464,note_off,,,,,0,0,13,,,,,5,,57,100
62464,note_off,,,,,256,0,13,,,,,5,,54,100
62464,note_off,,,,,64,0,8,,,,,0,,66,100
62496,note_on,,,,,32,0,8,,,,,0,,69,100
62560,note_off,,,,,64,0,8,,,,,0,,69,100
62592,note_on,,,,,32,0,8,,,,,0,,72,100
62656,note_off,,,,,64,0,8,,,,,0,,72,100
62688,note_on,,,,,32,0,8,,,,,0,,62,100
62752,note_off,,,,,64,0,8,,,,,0,,62,100
62784,note_on,,,,,32,0,8,,,,,0,,66,100
62848,note_off,,,,,64,0,8,,,,,0,,66,100
62880,note_on,,,,,32,0,8,,,,,0,,69,100
62944,note_off,,,,,64,0,8,,,,,0,,69,100
62976,note_on,,,,,512,0,11,,,,,3,,55,85
62976,note_on,,,,,0,0,13,,,,,5,,71,100
62976,note_on,,,,,512,0,13,,,,,5,,62,100
62976,note_on,,,,,512,0,12,,,,,4,,43,85
62976,note_on,,,,,32,0,8,,,,,0,,71,100
62976,note_on,,,,,512,0,14,,,,,5,,55,100
63040,note_off,,,,,64,0,8,,,,,0,,71,100
63072,note_on,,,,,32,0,8,,,,,0,,67,100
63104,note_off,,,,,128,0,12,,,,,4,,43,100
63104,note_off,,,,,128,0,13,,,,,5,,62,100
63104,note_off,,,,,0,0,13,,,,,5,,71,100
63104,note_off,,,,,128,0,14,,,,,5,,55,100
63104,note_off,,,,,128,0,11,,,,,3,,55,100
63136,note_off,,,,,64,0,8,,,,,0,,67,100
63168,note_on,,,,,64,0,14,,,,,5,,53,100
63168,note_on,,,,,32,0,8,,,,,0,,69,100
63168,note_on,,,,,64,0,11,,,,,3,,53,85
63168,note_on,,,,,64,0,12,,,,,4,,41,85
63168,note_on,,,,,64,0,13,,,,,5,,69,100
63232,note_off,,,,,64,0,8,,,,,0,,69,100
63264,note_on,,,,,32,0,8,,,,,0,,71,100
63296,note_off,,,,,128,0,14,,,,,5,,53,100
63296,note_off,,,,,128,0,12,,,,,4,,41,100
63296,note_off,,,,,128,0,11,,,,,3,,53,100
63296,note_off,,,,,128,0,13,,,,,5,,69,100
63328,note_off,,,,,64,0,8,,,,,0,,71,100
63360,note_on,,,,,64,0,11,,,,,3,,52,85
63360,note_on,,,,,64,0,12,,,,,4,,40,85
63360,note_on,,,,,64,0,13,,,,,5,,59,100
63360,note_on,,,,,0,0,13,,,,,5,,67,100
63360,note_on,,,,,64,0,14,,,,,5,,52,100
63360,note_on,,,,,32,0,8,,,,,0,,72,100
63424,note_off,,,,,64,0,8,,,,,0,,72,100
63456,note_on,,,,,32,0,8,,,,,0,,74,100
63488,note_off,,,,,128,0,11,,,,,3,,52,100
63488,note_off,,,,,128,0,12,,,,,4,,40,100
63488,note_off,,,,,128,0,13,,,,,5,,59,100
63488,note_off,,,,,128,0,14,,,,,5,,52,100
63488,note_off,,,,,0,0,13,,,,,5,,67,100
63520,note_off,,,,,64,0,8,,,,,0,,74,100
63552,note_on,,,,,64,0,12,,,,,4,,38,85
63552,note_on,,,,,64,0,14,,,,,5,,50,100
63552,note_on,,,,,64,0,11,,,,,3,,50,85
63552,note_on,,,,,32,0,8,,,,,0,,76,100
63552,note_on,,,,,64,0,13,,,,,5,,65,100
63616,note_off,,,,,64,0,8,,,,,0,,76,100
63648,note_on,,,,,32,0,8,,,,,0,,77,100
63680,note_off,,,,,128,0,13,,,,,5,,65,100
63680,note_off,,,,,128,0,12,,,,,4,,38,100
63680,note_off,,,,,128,0,11,,,,,3,,50,100
63680,note_off,,,,,128,0,14,,,,,5,,50,100
63712,note_off,,,,,64,0,8,,,,,0,,77,100
63744,note_on,,,,,0,0,13,,,,,5,,67,100
63744,note_on,,,,,64,0,12,,,,,4,,40,85
63744,note_on,,,,,64,0,14,,,,,5,,52,100
63744,note_on,,,,,64,0,11,,,,,3,,52,85
63744,note_on,,,,,64,0,13,,,,,5,,60,100
63744,note_on,,,,,32,0,8,,,,,0,,79,100
63808,note_off,,,,,64,0,8,,,,,0,,79,100
63840,note_on,,,,,32,0,8,,,,,0,,72,100
63872,note_off,,,,,128,0,12,,,,,4,,40,100
63872,note_off,,,,,0,0,13,,,,,5,,67,100
63872,note_off,,,,,128,0,13,,,,,5,,60,100
63872,note_off,,,,,128,0,11,,,,,3,,52,100
63872,note_off,,,,,128,0,14,,,,,5,,52,100
63904,note_off,,,,,64,0,8,,,,,0,,72,100
63936,note_on,,,,,64,0,12,,,,,4,,36,85
63936,note_on,,,,,64,0,11,,,,,3,,48,85
63936,note_on,,,,,64,0,13,,,,,5,,64,100
63936,note_on,,,,,64,0,14,,,,,5,,48,100
63936,note_on,,,,,32,0,8,,,,,0,,74,100
64000,note_off,,,,,64,0,8,,,,,0,,74,100
64032,note_on,,,,,32,0,8,,,,,0,,76,100
64064,note_off,,,,,128,0,13,,,,,5,,64,100
64064,note_off,,,,,128,0,11,,,,,3,,48,100
64064,note_off,,,,,128,0,12,,,,,4,,36,100
64064,note_off,,,,,128,0,14,,,,,5,,48,100
64096,note_off,,,,,64,0,8,,,,,0,,76,100
64128,note_on,,,,,64,0,14,,,,,5,,47,100
64128,note_on,,,,,64,0,13,,,,,5,,67,100
64128,note_on,,,,,0,0,13,,,,,5,,62,100
64128,note_on,,,,,64,0,11,,,,,3,,47,85
64128,note_on,,,,,64,0,12,,,,,4,,35,85
64128,note_on,,,,,32,0,8,,,,,0,,77,100
64192,note_off,,,,,64,0,8,,,,,0,,77,100
64224,note_on,,,,,32,0,8,,,,,0,,79,100
64256,note_off,,,,,128,0,11,,,,,3,,47,100
64256,note_off,,,,,128,0,12,,,,,4,,35,100
64256,note_off,,,,,0,0,13,,,,,5,,62,100
64256,note_off,,,,,128,0,13,,,,,5,,67,100
64256,note_off,,,,,128,0,14,,,,,5,,47,100
64288,note_off,,,,,64,0,8,,,,,0,,79,100
64320,note_on,,,,,64,0,13,,,,,5,,59,100
64320,note_on,,,,,64,0,11,,,,,3,,43,85
64320,note_on,,,,,64,0,14,,,,,5,,43,100
64320,note_on,,,,,32,0,8,,,,,0,,81,100
64320,note_on,,,,,64,0,12,,,,,4,,43,85
64384,note_off,,,,,64,0,8,,,,,0,,81,100
64416,note_on,,,,,32,0,8,,,,,0,,83,100
64448,note_off,,,,,128,0,12,,,,,4,,43,100
64448,note_off,,,,,128,0,11,,,,,3,,43,100
64448,note_off,,,,,128,0,13,,,,,5,,59,100
64448,note_off,,,,,128,0,14,,,,,5,,43,100
64480,note_off,,,,,64,0,8,,,,,0,,83,100
64512,note_on,,,,,0,0,13,,,,,5,,67,100
64512,note_on,,,,,0,0,13,,,,,5,,64,100
64512,note_on,,,,,64,0,13,,,,,5,,60,100
64512,note_on,,,,,64,0,14,,,,,5,,48,100
64512,note_on,,,,,64,0,12,,,,,4,,36,85
64512,note_on,,,,,64,0,11,,,,,3,,48,85
64512,note_on,,,,,32,0,8,,,,,0,,84,100
64576,note_off,,,,,64,0,8,,,,,0,,84,100
64608,note_on,,,,,32,0,8,,,,,0,,79,100
64672,note_off,,,,,64,0,8,,,,,0,,79,100
64704,note_on,,,,,32,0,8,,,,,0,,76,100
64768,note_off,,,,,256,0,14,,,,,5,,48,100
64768,note_off,,,,,0,0,13,,,,,5,,67,100
64768,note_off,,,,,64,0,8,,,,,0,,76,100
64768,note_off,,,,,0,0,13,,,,,5,,64,100
64768,note_off,,,,,256,0,12,,,,,4,,36,100
64768,note_off,,,,,256,0,11,,,,,3,,48,100
64768,note_off,,,,,256,0,13,,,,,5,,60,100
64800,note_on,,,,,32,0,8,,,,,0,,79,100
64864,note_off,,,,,64,0,8,,,,,0,,79,100
64896,note_on,,,,,32,0,8,,,,,0,,84,100
64960,note_off,,,,,64,0,8,,,,,0,,84,100
64992,note_on,,,,,32,0,8,,,,,0,,79,100
65056,note_off,,,,,64,0,8,,,,,0,,79,100
65088,note_on,,,,,32,0,8,,,,,0,,76,100
65152,note_off,,,,,64,0,8,,,,,0,,76,100
65184,note_on,,,,,32,0,8,,,,,0,,79,100
65248,note_off,,,,,64,0,8,,,,,0,,79,100
65280,note_on,,,,,32,0,8,,,,,0,,84,100
65280,note_on,,,,,512,0,13,,,,,5,,64,100
65280,note_on,,,,,512,0,11,,,,,3,,48,85
65280,note_on,,,,,512,0,12,,,,,4,,36,85
65280,note_on,,,,,0,0,13,,,,,5,,67,100
65280,note_on,,,,,512,0,14,,,,,5,,48,100
65344,note_off,,,,,64,0,8,,,,,0,,84,100
65376,note_on,,,,,32,0,8,,,,,0,,79,100
65440,note_off,,,,,64,0,8,,,,,0,,79,100
65472,note_on,,,,,32,0,8,,,,,0,,76,100
65536,note_off,,,,,256,0,11,,,,,3,,48,100
65536,note_off,,,,,64,0,8,,,,,0,,76,100
65536,note_off,,,,,256,0,13,,,,,5,,64,100
65536,note_off,,,,,256,0,12,,,,,4,,36,100
65536,note_off,,,,,256,0,14,,,,,5,,48,100
65536,note_off,,,,,0,0,13,,,,,5,,67,100
65568,note_on,,,,,32,0,8,,,,,0,,79,100
65632,note_off,,,,,64,0,8,,,,,0,,79,100
65664,note_on,,,,,32,0,8,,,,,0,,84,100
65728,note_off,,,,,64,0,8,,,,,0,,84,100
65760,note_on,,,,,32,0,8,,,,,0,,79,100
65824,note_off,,,,,64,0,8,,,,,0,,79,100
65856,note_on,,,,,32,0,8,,,,,0,,76,100
65920,note_off,,,,,64,0,8,,,,,0,,76,100
65952,note_on,,,,,32,0,8,,,,,0,,79,100
66016,note_off,,,,,64,0,8,,,,,0,,79,100
66048,note_on,,,,,0,0,13,,,,,5,,62,100
66048,note_on,,,,,512,0,13,,,,,5,,60,100
66048,note_on,,,,,512,0,12,,,,,4,,43,85
66048,note_on,,,,,512,0,11,,,,,3,,55,85
66048,note_on,,,,,512,0,14,,,,,5,,55,100
66048,note_on,,,,,32,0,8,,,,,0,,84,100
66112,note_off,,,,,64,0,8,,,,,0,,84,100
66144,note_on,,,,,32,0,8,,,,,0,,79,100
66208,note_off,,,,,64,0,8,,,,,0,,79,100
66240,note_on,,,,,32,0,8,,,,,0,,74,100
66304,note_off,,,,,256,0,12,,,,,4,,43,100
66304,note_off,,,,,0,0,13,,,,,5,,62,100
66304,note_off,,,,,256,0,13,,,,,5,,60,100
66304,note_off,,,,,256,0,11,,,,,3,,55,100
66304,note_off,,,,,64,0,8,,,,,0,,74,100
66304,note_off,,,,,256,0,14,,,,,5,,55,100
66336,note_on,,,,,32,0,8,,,,,0,,79,100
66400,note_off,,,,,64,0,8,,,,,0,,79,100
66432,note_on,,,,,32,0,8,,,,,0,,84,100
66496,note_off,,,,,64,0,8,,,,,0,,84,100
66528,note_on,,,,,32,0,8,,,,,0,,79,100
66592,note_off,,,,,64,0,8,,,,,0,,79,100
66624,note_on,,,,,32,0,8,,,,,0,,74,100
66688,note_off,,,,,64,0,8,,,,,0,,74,100
66720,note_on,,,,,32,0,8,,,,,0,,79,100
66784,note_off,,,,,64,0,8,,,,,0,,79,100
66816,note_on,,,,,512,0,14,,,,,5,,55,100
66816,note_on,,,,,512,0,12,,,,,4,,43,85
66816,note_on,,,,,512,0,13,,,,,5,,60,100
66816,note_on,,,,,512,0,11,,,,,3,,55,85
66816,note_on,,,,,32,0,8,,,,,0,,84,100
66816,note_on,,,,,0,0,13,,,,,5,,62,100
66880,note_off,,,,,64,0,8,,,,,0,,84,100
66912,note_on,,,,,32,0,8,,,,,0,,79,100
66976,note_off,,,,,64,0,8,,,,,0,,79,100
67008,note_on,,,,,32,0,8,,,,,0,,74,100
67072,note_off,,,,,256,0,14,,,,,5,,55,100
67072,note_off,,,,,64,0,8,,,,,0,,74,100
67072,note_off,,,,,256,0,11,,,,,3,,55,100
67072,note_off,,,,,256,0,12,,,,,4,,43,100
67072,note_off,,,,,256,0,13,,,,,5,,60,100
67072,note_off,,,,,0,0,13,,,,,5,,62,100
67104,note_on,,,,,32,0,8,,,,,0,,79,100
67168,note_off,,,,,64,0,8,,,,,0,,79,100
67200,note_on,,,,,32,0,8,,,,,0,,84,100
67264,note_off,,,,,64,0,8,,,,,0,,84,100
67296,note_on,,,,,32,0,8,,,,,0,,79,100
67360,note_off,,,,,64,0,8,,,,,0,,79,100
67392,note_on,,,,,32,0,8,,,,,0,,74,100
67456,note_off,,,,,64,0,8,,,,,0,,74,100
67488,note_on,,,,,32,0,8,,,,,0,,79,100
67552,note_off,,,,,64,0,8,,,,,0,,79,100
67584,note_on,,,,,512,0,11,,,,,3,,43,85
67584,note_on,,,,,512,0,14,,,,,5,,43,100
67584,note_on,,,,,0,0,13,,,,,5,,62,100
67584,note_on,,,,,32,0,8,,,,,0,,83,100
67584,note_on,,,,,512,0,13,,,,,5,,59,100
67584,note_on,,,,,512,0,12,,,,,4,,43,85
67648,note_off,,,,,64,0,8,,,,,0,,83,100
67680,note_on,,,,,32,0,8,,,,,0,,79,100
67744,note_off,,,,,64,0,8,,,,,0,,79,100
67776,note_on,,,,,32,0,8,,,,,0,,74,100
67840,note_off,,,,,256,0,12,,,,,4,,43,100
67840,note_off,,,,,256,0,11,,,,,3,,43,100
67840,note_off,,,,,64,0,8,,,,,0,,74,100
67840,note_off,,,,,256,0,13,,,,,5,,59,100
67840,note_off,,,,,256,0,14,,,,,5,,43,100
67840,note_off,,,,,0,0,13,,,,,5,,62,100
67872,note_on,,,,,32,0,8,,,,,0,,79,100
67936,note_off,,,,,64,0,8,,,,,0,,79,100
67968,note_on,,,,,32,0,8,,,,,0,,83,100
68032,note_off,,,,,64,0,8,,,,,0,,83,100
68064,note_on,,,,,32,0,8,,,,,0,,79,100
68128,note_off,,,,,64,0,8,,,,,0,,79,100
68160,note_on,,,,,32,0,8,,,,,0,,74,100
68224,note_off,,,,,64,0,8,,,,,0,,74,100
68256,note_on,,,,,32,0,8,,,,,0,,79,100
68320,note_off,,,,,64,0,8,,,,,0,,79,100
68352,note_on,,,,,512,0,13,,,,,5,,59,100
68352,note_on,,,,,32,0,8,,,,,0,,83,100
68352,note_on,,,,,512,0,12,,,,,4,,43,85
68352,note_on,,,,,512,0,11,,,,,3,,43,85
68352,note_on,,,,,512,0,14,,,,,5,,43,100
68352,note_on,,,,,0,0,13,,,,,5,,62,100
68416,note_off,,,,,64,0,8,,,,,0,,83,100
68448,note_on,,,,,32,0,8,,,,,0,,79,100
68512,note_off,,,,,64,0,8,,,,,0,,79,100
68544,note_on,,,,,32,0,8,,,,,0,,74,100
68608,note_off,,,,,256,0,13,,,,,5,,59,100
68608,note_off,,,,,0,0,13,,,,,5,,62,100
68608,note_off,,,,,64,0,8,,,,,0,,74,100
68608,note_off,,,,,256,0,14,,,,,5,,43,100
68608,note_off,,,,,256,0,11,,,,,3,,43,100
68608,note_off,,,,,256,0,12,,,,,4,,43,100
68640,note_on,,,,,32,0,8,,,,,0,,79,100
68704,note_off,,,,,64,0,8,,,,,0,,79,100
68736,note_on,,,,,32,0,8,,,,,0,,83,100
68800,note_off,,,,,64,0,8,,,,,0,,83,100
68832,note_on,,,,,32,0,8,,,,,0,,79,100
68896,note_off,,,,,64,0,8,,,,,0,,79,100
68928,note_on,,,,,32,0,8,,,,,0,,74,100
68992,note_off,,,,,64,0,8,,,,,0,,74,100
69024,note_on,,,,,32,0,8,,,,,0,,79,100
69088,note_off,,,,,64,0,8,,,,,0,,79,100
69120,note_on,,,,,512,0,14,,,,,5,,48,100
69120,note_on,,,,,32,0,8,,,,,0,,84,100
69120,note_on,,,,,15872,0,10,,,,,2,,64,100
69120,note_on,,,,,512,0,12,,,,,4,,36,100
69120,note_on,,,,,0,0,13,,,,,5,,64,100
69120,note_on,,,,,0,0,13,,,,,5,,67,100
69120,note_on,,,,,512,0,13,,,,,5,,60,100
69120,note_on,,,,,512,0,11,,,,,3,,48,100
69312,note_on,,,,,15680,0,9,,,,,1,,67,100
69376,note_off,,,,,256,0,13,,,,,5,,60,100
69376,note_off,,,,,256,0,10,,,,,2,,64,100
69376,note_off,,,,,256,0,14,,,,,5,,48,100
69376,note_off,,,,,0,0,13,,,,,5,,67,100
69376,note_off,,,,,256,0,12,,,,,4,,36,100
69376,note_off,,,,,256,0,11,,,,,3,,48,100
69376,note_off,,,,,0,0,13,,,,,5,,64,100
69376,note_off,,,,,256,0,8,,,,,0,,84,100
69440,note_off,,,,,128,0,9,,,,,1,,67,100
69504,note_on,,,,,64,0,9,,,,,1,,72,100
69632,note_off,,,,,128,0,9,,,,,1,,72,100
69696,note_on,,,,,64,0,9,,,,,1,,74,100
69696,note_on,,,,,0,0,13,,,,,5,,62,100
69696,note_on,,,,,320,0,11,,,,,3,,47,100
69696,note_on,,,,,320,0,14,,,,,5,,47,100
69696,note_on,,,,,320,0,10,,,,,2,,67,100
69696,note_on,,,,,320,0,13,,,,,5,,67,100
69696,note_on,,,,,320,0,12,,,,,4,,35,100
69824,note_off,,,,,128,0,11,,,,,3,,47,100
69824,note_off,,,,,0,0,13,,,,,5,,62,100
69824,note_off,,,,,128,0,14,,,,,5,,47,100
69824,note_off,,,,,128,0,12,,,,,4,,35,100
69824,note_off,,,,,128,0,13,,,,,5,,67,100
69824,note_off,,,,,128,0,9,,,,,1,,74,100
69824,note_off,,,,,128,0,10,,,,,2,,67,100
69888,note_on,,,,,64,0,10,,,,,2,,67,100
69888,note_on,,,,,64,0,12,,,,,4,,36,100
69888,note_on,,,,,64,0,9,,,,,1,,76,100
69888,note_on,,,,,64,0,11,,,,,3,,48,100
69888,note_on,,,,,0,0,13,,,,,5,,64,100
69888,note_on,,,,,64,0,13,,,,,5,,67,100
69888,note_on,,,,,64,0,14,,,,,5,,48,100
70016,note_off,,,,,128,0,10,,,,,2,,67,100
70016,note_off,,,,,128,0,11,,,,,3,,48,100
70016,note_off,,,,,128,0,13,,,,,5,,67,100
70016,note_off,,,,,0,0,13,,,,,5,,64,100
70016,note_off,,,,,128,0,14,,,,,5,,48,100
70016,note_off,,,,,128,0,9,,,,,1,,76,100
70016,note_off,,,,,128,0,12,,,,,4,,36,100
70080,note_on,,,,,64,0,12,,,,,4,,41,100
70080,note_on,,,,,0,0,13,,,,,5,,64,100
70080,note_on,,,,,64,0,14,,,,,5,,53,100
70080,note_on,,,,,64,0,13,,,,,5,,60,100
70080,note_on,,,,,64,0,11,,,,,3,,53,100
70208,note_off,,,,,128,0,13,,,,,5,,60,100
70208,note_off,,,,,128,0,12,,,,,4,,41,100
70208,note_off,,,,,128,0,11,,,,,3,,53,100
70208,note_off,,,,,0,0,13,,,,,5,,64,100
70208,note_off,,,,,128,0,14,,,,,5,,53,100
70272,note_on,,,,,0,0,13,,,,,5,,60,100
70272,note_on,,,,,64,0,12,,,,,4,,43,100
70272,note_on,,,,,256,0,9,,,,,1,,74,100
70272,note_on,,,,,64,0,13,,,,,5,,62,100
70272,note_on,,,,,256,0,10,,,,,2,,59,100
70272,note_on,,,,,64,0,14,,,,,5,,55,100
70272,note_on,,,,,64,0,11,,,,,3,,55,100
70400,note_off,,,,,128,0,12,,,,,4,,43,100
70400,note_off,,,,,128,0,13,,,,,5,,60,100
70400,note_off,,,,,128,0,14,,,,,5,,55,100
70400,note_off,,,,,128,0,9,,,,,1,,74,100
70400,note_off,,,,,128,0,10,,,,,2,,59,100
70400,note_off,,,,,128,0,11,,,,,3,,55,100
70464,note_on,,,,,64,0,11,,,,,3,,43,100
70464,note_on,,,,,64,0,14,,,,,5,,43,100
70464,note_on,,,,,64,0,12,,,,,4,,43,100
70464,note_on,,,,,64,0,13,,,,,5,,59,100
70528,note_off,,,,,64,0,13,,,,,5,,62,100
70592,note_off,,,,,128,0,11,,,,,3,,43,100
70592,note_off,,,,,64,0,13,,,,,5,,59,100
70592,note_off,,,,,128,0,14,,,,,5,,43,100
70592,note_off,,,,,128,0,12,,,,,4,,43,100
70656,note_on,,,,,256,0,9,,,,,1,,72,100
70656,note_on,,,,,256,0,10,,,,,2,,55,100
70656,note_on,,,,,64,0,14,,,,,5,,48,100
70656,note_on,,,,,64,0,13,,,,,5,,64,100
70656,note_on,,,,,64,0,12,,,,,4,,36,100
70656,note_on,,,,,64,0,11,,,,,3,,48,100
70656,note_on,,,,,0,0,13,,,,,5,,60,100
70784,note_off,,,,,128,0,9,,,,,1,,72,100
70848,note_on,,,,,64,0,9,,,,,1,,67,60
70912,note_off,,,,,256,0,11,,,,,3,,48,100
70912,note_off,,,,,256,0,12,,,,,4,,36,100
70912,note_off,,,,,256,0,14,,,,,5,,48,100
70912,note_off,,,,,256,0,13,,,,,5,,64,100
70912,note_off,,,,,0,0,13,,,,,5,,60,100
70912,note_off,,,,,256,0,10,,,,,2,,55,100
70976,note_off,,,,,128,0,9,,,,,1,,67,100
71040,note_on,,,,,64,0,9,,,,,1,,72,60
71168,note_off,,,,,128,0,9,,,,,1,,72,100
71232,note_on,,,,,0,0,13,,,,,5,,62,100
71232,note_on,,,,,64,0,9,,,,,1,,74,60
71232,note_on,,,,,320,0,12,,,,,4,,35,60
71232,note_on,,,,,320,0,14,,,,,5,,47,100
71232,note_on,,,,,320,0,10,,,,,2,,67,60
71232,note_on,,,,,320,0,13,,,,,5,,67,100
71232,note_on,,,,,320,0,11,,,,,3,,47,60
71360,note_off,,,,,128,0,12,,,,,4,,35,100
71360,note_off,,,,,128,0,10,,,,,2,,67,100
71360,note_off,,,,,128,0,11,,,,,3,,47,100
71360,note_off,,,,,0,0,13,,,,,5,,62,100
71360,note_off,,,,,128,0,9,,,,,1,,74,100
71360,note_off,,,,,128,0,13,,,,,5,,67,100
71360,note_off,,,,,128,0,14,,,,,5,,47,100
71424,note_on,,,,,64,0,9,,,,,1,,76,60
71424,note_on,,,,,64,0,11,,,,,3,,48,60
71424,note_on,,,,,0,0,13,,,,,5,,64,100
71424,note_on,,,,,64,0,14,,,,,5,,48,100
71424,note_on,,,,,64,0,13,,,,,5,,67,100
71424,note_on,,,,,64,0,10,,,,,2,,67,60
71424,note_on,,,,,64,0,12,,,,,4,,36,60
71552,note_off,,,,,128,0,10,,,,,2,,67,100
71552,note_off,,,,,128,0,9,,,,,1,,76,100
71552,note_off,,,,,128,0,13,,,,,5,,67,100
71552,note_off,,,,,128,0,14,,,,,5,,48,100
71552,note_off,,,,,128,0,11,,,,,3,,48,100
71552,note_off,,,,,128,0,12,,,,,4,,36,100
71552,note_off,,,,,0,0,13,,,,,5,,64,100
71616,note_on,,,,,64,0,14,,,,,5,,53,100
71616,note_on,,,,,64,0,12,,,,,4,,41,60
71616,note_on,,,,,0,0,13,,,,,5,,64,100
71616,note_on,,,,,64,0,11,,,,,3,,53,60
71616,note_on,,,,,64,0,13,,,,,5,,60,100
71744,note_off,,,,,0,0,13,,,,,5,,64,100
71744,note_off,,,,,128,0,14,,,,,5,,53,100
71744,note_off,,,,,128,0,13,,,,,5,,60,100
71744,note_off,,,,,128,0,11,,,,,3,,53,100
71744,note_off,,,,,128,0,12,,,,,4,,41,100
71808,note_on,,,,,0,0,13,,,,,5,,60,100
71808,note_on,,,,,64,0,14,,,,,5,,55,100
71808,note_on,,,,,64,0,11,,,,,3,,55,60
71808,note_on,,,,,256,0,10,,,,,2,,59,60
71808,note_on,,,,,256,0,9,,,,,1,,74,60
71808,note_on,,,,,64,0,13,,,,,5,,62,100
71808,note_on,,,,,64,0,12,,,,,4,,43,60
71936,note_off,,,,,128,0,13,,,,,5,,60,100
71936,note_off,,,,,128,0,10,,,,,2,,59,100
71936,note_off,,,,,128,0,9,,,,,1,,74,100
71936,note_off,,,,,128,0,14,,,,,5,,55,100
71936,note_off,,,,,128,0,11,,,,,3,,55,100
71936,note_off,,,,,128,0,12,,,,,4,,43,100
72000,note_on,,,,,64,0,13,,,,,5,,59,100
72000,note_on,,,,,64,0,11,,,,,3,,43,60
72000,note_on,,,,,64,0,12,,,,,4,,43,60
72000,note_on,,,,,64,0,14,,,,,5,,43,100
72064,note_off,,,,,64,0,13,,,,,5,,62,100
72128,note_off,,,,,64,0,13,,,,,5,,59,100
72128,note_off,,,,,128,0,14,,,,,5,,43,100
72128,note_off,,,,,128,0,12,,,,,4,,43,100
72128,note_off,,,,,128,0,11,,,,,3,,43,100
72192,note_on,,,,,64,0,13,,,,,5,,64,100
72192,note_on,,,,,256,0,10,,,,,2,,64,100
72192,note_on,,,,,64,0,12,,,,,4,,48,100
72192,note_on,,,,,256,0,9,,,,,1,,72,60
72192,note_on,,,,,64,0,11,,,,,3,,60,100
72192,note_on,,,,,64,0,14,,,,,5,,60,100
72320,note_off,,,,,128,0,10,,,,,2,,64,100
72320,note_off,,,,,128,0,11,,,,,3,,60,100
72320,note_off,,,,,128,0,12,,,,,4,,48,100
72320,note_off,,,,,128,0,14,,,,,5,,60,100
72320,note_off,,,,,128,0,13,,,,,5,,64,100
72384,note_on,,,,,64,0,14,,,,,5,,62,100
72384,note_on,,,,,64,0,10,,,,,2,,65,100
72384,note_on,,,,,64,0,12,,,,,4,,50,100
72384,note_on,,,,,64,0,11,,,,,3,,62,100
72384,note_on,,,,,64,0,13,,,,,5,,65,100
72448,note_off,,,,,256,0,9,,,,,1,,72,100
72512,note_off,,,,,128,0,11,,,,,3,,62,100
72512,note_off,,,,,128,0,13,,,,,5,,65,100
72512,note_off,,,,,128,0,12,,,,,4,,50,100
72512,note_off,,,,,128,0,14,,,,,5,,62,100
72512,note_off,,,,,128,0,10,,,,,2,,65,100
72576,note_on,,,,,64,0,11,,,,,3,,64,100
72576,note_on,,,,,64,0,13,,,,,5,,67,100
72576,note_on,,,,,64,0,14,,,,,5,,64,100
72576,note_on,,,,,64,0,10,,,,,2,,67,100
72576,note_on,,,,,64,0,12,,,,,4,,52,100
72704,note_off,,,,,128,0,13,,,,,5,,67,100
72704,note_off,,,,,128,0,12,,,,,4,,52,100
72704,note_off,,,,,128,0,11,,,,,3,,64,100
72704,note_off,,,,,128,0,14,,,,,5,,64,100
72704,note_off,,,,,128,0,10,,,,,2,,67,100
72768,note_on,,,,,64,0,14,,,,,5,,60,100
72768,note_on,,,,,320,0,9,,,,,1,,76,100
72768,note_on,,,,,64,0,12,,,,,4,,48,100
72768,note_on,,,,,64,0,13,,,,,5,,67,100
72768,note_on,,,,,0,0,13,,,,,5,,64,100
72768,note_on,,,,,64,0,10,,,,,2,,64,100
72768,note_on,,,,,64,0,11,,,,,3,,60,100
72896,note_off,,,,,128,0,10,,,,,2,,64,100
72896,note_off,,,,,128,0,13,,,,,5,,67,100
72896,note_off,,,,,128,0,11,,,,,3,,60,100
72896,note_off,,,,,0,0,13,,,,,5,,64,100
72896,note_off,,,,,128,0,12,,,,,4,,48,100
72896,note_off,,,,,128,0,9,,,,,1,,76,100
72896,note_off,,,,,128,0,14,,,,,5,,60,100
72960,note_on,,,,,64,0,14,,,,,5,,54,100
72960,note_on,,,,,64,0,11,,,,,3,,54,100
72960,note_on,,,,,0,0,13,,,,,5,,63,100
72960,note_on,,,,,64,0,12,,,,,4,,42,100
72960,note_on,,,,,64,0,10,,,,,2,,63,100
72960,note_on,,,,,64,0,9,,,,,1,,81,100
72960,note_on,,,,,64,0,13,,,,,5,,69,100
73088,note_off,,,,,128,0,11,,,,,3,,54,100
73088,note_off,,,,,128,0,13,,,,,5,,63,100
73088,note_off,,,,,128,0,12,,,,,4,,42,100
73088,note_off,,,,,128,0,9,,,,,1,,81,100
73088,note_off,,,,,128,0,14,,,,,5,,54,100
73152,note_on,,,,,64,0,13,,,,,5,,67,100
73152,note_on,,,,,64,0,9,,,,,1,,81,100
73152,note_on,,,,,64,0,11,,,,,3,,52,100
73152,note_on,,,,,64,0,12,,,,,4,,40,100
73152,note_on,,,,,64,0,14,,,,,5,,52,100
73216,note_off,,,,,64,0,13,,,,,5,,69,100
73216,note_off,,,,,256,0,10,,,,,2,,63,100
73280,note_off,,,,,128,0,14,,,,,5,,52,100
73280,note_off,,,,,128,0,9,,,,,1,,81,100
73280,note_off,,,,,128,0,11,,,,,3,,52,100
73280,note_off,,,,,128,0,12,,,,,4,,40,100
73280,note_off,,,,,64,0,13,,,,,5,,67,100
73344,note_on,,,,,64,0,11,,,,,3,,51,100
73344,note_on,,,,,64,0,12,,,,,4,,39,100
73344,note_on,,,,,64,0,13,,,,,5,,66,100
73344,note_on,,,,,64,0,9,,,,,1,,81,100
73344,note_on,,,,,64,0,14,,,,,5,,51,100
73472,note_off,,,,,128,0,12,,,,,4,,39,100
73472,note_off,,,,,128,0,9,,,,,1,,81,100
73472,note_off,,,,,128,0,14,,,,,5,,51,100
73472,note_off,,,,,128,0,11,,,,,3,,51,100
73472,note_off,,,,,128,0,13,,,,,5,,66,100
73536,note_on,,,,,320,0,10,,,,,2,,63,100
73536,note_on,,,,,64,0,9,,,,,1,,81,100
73536,note_on,,,,,64,0,14,,,,,5,,49,100
73536,note_on,,,,,64,0,11,,,,,3,,49,100
73536,note_on,,,,,64,0,13,,,,,5,,64,100
73536,note_on,,,,,64,0,12,,,,,4,,37,100
73664,note_off,,,,,128,0,9,,,,,1,,81,100
73664,note_off,,,,,128,0,10,,,,,2,,63,100
73664,note_off,,,,,128,0,13,,,,,5,,64,100
73664,note_off,,,,,128,0,14,,,,,5,,49,100
73664,note_off,,,,,128,0,11,,,,,3,,49,100
73664,note_off,,,,,128,0,12,,,,,4,,37,100
73728,note_on,,,,,64,0,14,,,,,5,,47,100
73728,note_on,,,,,64,0,9,,,,,1,,81,100
73728,note_on,,,,,64,0,10,,,,,2,,63,100
73728,note_on,,,,,64,0,11,,,,,3,,47,100
73728,note_on,,,,,64,0,13,,,,,5,,69,100
73728,note_on,,,,,0,0,13,,,,,5,,63,100
73728,note_on,,,,,64,0,12,,,,,4,,35,100
73856,note_off,,,,,128,0,14,,,,,5,,47,100
73856,note_off,,,,,0,0,13,,,,,5,,63,100
73856,note_off,,,,,128,0,10,,,,,2,,63,100
73856,note_off,,,,,128,0,11,,,,,3,,47,100
73856,note_off,,,,,128,0,13,,,,,5,,69,100
73856,note_off,,,,,128,0,12,,,,,4,,35,100
73856,note_off,,,,,128,0,9,,,,,1,,81,100
73920,note_on,,,,,0,0,13,,,,,5,,64,100
73920,note_on,,,,,64,0,13,,,,,5,,67,100
73920,note_on,,,,,64,0,12,,,,,4,,37,100
73920,note_on,,,,,64,0,14,,,,,5,,49,100
73920,note_on,,,,,64,0,11,,,,,3,,49,100
73920,note_on,,,,,64,0,9,,,,,1,,79,100
73920,note_on,,,,,64,0,10,,,,,2,,64,100
73984,note_off,,,,,64,0,9,,,,,1,,79,100
74016,note_on,,,,,32,0,9,,,,,1,,78,100
74048,note_off,,,,,128,0,10,,,,,2,,64,100
74048,note_off,,,,,128,0,14,,,,,5,,49,100
74048,note_off,,,,,128,0,11,,,,,3,,49,100
74048,note_off,,,,,128,0,12,,,,,4,,37,100
74048,note_off,,,,,128,0,13,,,,,5,,67,100
74048,note_off,,,,,0,0,13,,,,,5,,64,100
74080,note_off,,,,,64,0,9,,,,,1,,78,100
74112,note_on,,,,,64,0,11,,,,,3,,51,100
74112,note_on,,,,,64,0,13,,,,,5,,71,100
74112,note_on,,,,,0,0,13,,,,,5,,66,100
74112,note_on,,,,,32,0,9,,,,,1,,83,100
74112,note_on,,,,,64,0,14,,,,,5,,51,100
74112,note_on,,,,,64,0,12,,,,,4,,39,100
74112,note_on,,,,,64,0,10,,,,,2,,66,100
74240,note_off,,,,,128,0,12,,,,,4,,39,100
74240,note_off,,,,,128,0,13,,,,,5,,71,100
74240,note_off,,,,,0,0,13,,,,,5,,66,100
74240,note_off,,,,,128,0,14,,,,,5,,51,100
74240,note_off,,,,,128,0,10,,,,,2,,66,100
74240,note_off,,,,,128,0,11,,,,,3,,51,100
74240,note_off,,,,,128,0,9,,,,,1,,83,100
74304,note_on,,,,,64,0,9,,,,,1,,81,100
74304,note_on,,,,,64,0,10,,,,,2,,63,100
74304,note_on,,,,,64,0,11,,,,,3,,47,100
74304,note_on,,,,,64,0,13,,,,,5,,66,100
74304,note_on,,,,,64,0,14,,,,,5,,47,100
74304,note_on,,,,,64,0,12,,,,,4,,35,100
74304,note_on,,,,,0,0,13,,,,,5,,69,100
74432,note_off,,,,,128,0,9,,,,,1,,81,100
74432,note_off,,,,,128,0,14,,,,,5,,47,100
74432,note_off,,,,,128,0,12,,,,,4,,35,100
74432,note_off,,,,,128,0,11,,,,,3,,47,100
74432,note_off,,,,,128,0,10,,,,,2,,63,100
74432,note_off,,,,,0,0,13,,,,,5,,69,100
74432,note_off,,,,,128,0,13,,,,,5,,66,100
74496,note_on,,,,,64,0,12,,,,,4,,40,100
74496,note_on,,,,,64,0,11,,,,,3,,52,100
74496,note_on,,,,,64,0,13,,,,,5,,64,100
74496,note_on,,,,,64,0,14,,,,,5,,52,100
74496,note_on,,,,,64,0,9,,,,,1,,79,100
74496,note_on,,,,,0,0,13,,,,,5,,67,100
74496,note_on,,,,,64,0,10,,,,,2,,59,100
74624,note_off,,,,,128,0,13,,,,,5,,64,100
74624,note_off,,,,,128,0,12,,,,,4,,40,100
74624,note_off,,,,,128,0,9,,,,,1,,79,100
74624,note_off,,,,,128,0,11,,,,,3,,52,100
74624,note_off,,,,,128,0,10,,,,,2,,59,100
74624,note_off,,,,,128,0,14,,,,,5,,52,100
74624,note_off,,,,,0,0,13,,,,,5,,67,100
74688,note_on,,,,,64,0,12,,,,,4,,45,100
74688,note_on,,,,,64,0,13,,,,,5,,66,100
74688,note_on,,,,,64,0,14,,,,,5,,57,100
74688,note_on,,,,,64,0,11,,,,,3,,57,100
74688,note_on,,,,,64,0,9,,,,,1,,78,100
74688,note_on,,,,,64,0,10,,,,,2,,60,100
74752,note_off,,,,,64,0,13,,,,,5,,66,100
74752,note_off,,,,,64,0,9,,,,,1,,78,100
74784,note_on,,,,,32,0,13,,,,,5,,64,100
74784,note_on,,,,,32,0,9,,,,,1,,76,100
74816,note_off,,,,,128,0,11,,,,,3,,57,100
74816,note_off,,,,,128,0,14,,,,,5,,57,100
74816,note_off,,,,,128,0,10,,,,,2,,60,100
74816,note_off,,,,,128,0,12,,,,,4,,45,100
74848,note_off,,,,,64,0,13,,,,,5,,64,100
74848,note_off,,,,,64,0,9,,,,,1,,76,100
74880,note_on,,,,,0,0,13,,,,,5,,64,100
74880,note_on,,,,,32,0,13,,,,,5,,66,100
74880,note_on,,,,,64,0,11,,,,,3,,59,100
74880,note_on,,,,,32,0,9,,,,,1,,71,100
74880,note_on,,,,,64,0,14,,,,,5,,59,100
74880,note_on,,,,,64,0,10,,,,,2,,59,100
74880,note_on,,,,,64,0,12,,,,,4,,47,100
75008,note_off,,,,,128,0,10,,,,,2,,59,100
75008,note_off,,,,,128,0,13,,,,,5,,64,100
75008,note_off,,,,,128,0,11,,,,,3,,59,100
75008,note_off,,,,,128,0,14,,,,,5,,59,100
75008,note_off,,,,,128,0,12,,,,,4,,47,100
75008,note_off,,,,,128,0,9,,,,,1,,71,100
75072,note_on,,,,,64,0,11,,,,,3,,47,100
75072,note_on,,,,,64,0,12,,,,,4,,35,100
75072,note_on,,,,,64,0,13,,,,,5,,63,100
75072,note_on,,,,,64,0,10,,,,,2,,59,100
75072,note_on,,,,,64,0,14,,,,,5,,47,100
75072,note_on,,,,,64,0,9,,,,,1,,75,100
75136,note_off,,,,,64,0,13,,,,,5,,66,100
75200,note_off,,,,,64,0,13,,,,,5,,63,100
75200,note_off,,,,,128,0,9,,,,,1,,75,100
75200,note_off,,,,,128,0,11,,,,,3,,47,100
75200,note_off,,,,,128,0,14,,,,,5,,47,100
75200,note_off,,,,,128,0,10,,,,,2,,59,100
75200,note_off,,,,,128,0,12,,,,,4,,35,100
75264,note_on,,,,,64,0,9,,,,,1,,76,100
75264,note_on,,,,,64,0,10,,,,,2,,67,100
75264,note_on,,,,,64,0,11,,,,,3,,52,100
75264,note_on,,,,,64,0,12,,,,,4,,40,100
75264,note_on,,,,,64,0,13,,,,,5,,64,100
75264,note_on,,,,,0,0,13,,,,,5,,67,100
75264,note_on,,,,,64,0,14,,,,,5,,52,100
75392,note_off,,,,,128,0,9,,,,,1,,76,100
75456,note_on,,,,,64,0,9,,,,,1,,71,100
75520,note_off,,,,,256,0,14,,,,,5,,52,100
75520,note_off,,,,,0,0,13,,,,,5,,67,100
75520,note_off,,,,,256,0,10,,,,,2,,67,100
75520,note_off,,,,,256,0,13,,,,,5,,64,100
75520,note_off,,,,,256,0,11,,,,,3,,52,100
75520,note_off,,,,,256,0,12,,,,,4,,40,100
75584,note_off,,,,,128,0,9,,,,,1,,71,100
75648,note_on,,,,,64,0,9,,,,,1,,76,100
75776,note_off,,,,,128,0,9,,,,,1,,76,100
75840,note_on,,,,,320,0,11,,,,,3,,51,100
75840,note_on,,,,,320,0,14,,,,,5,,51,100
75840,note_on,,,,,320,0,13,,,,,5,,71,100
75840,note_on,,,,,0,0,13,,,,,5,,66,100
75840,note_on,,,,,64,0,9,,,,,1,,78,100
75840,note_on,,,,,320,0,10,,,,,2,,71,100
75840,note_on,,,,,320,0,12,,,,,4,,39,100
75968,note_off,,,,,128,0,9,,,,,1,,78,100
75968,note_off,,,,,128,0,13,,,,,5,,71,100
75968,note_off,,,,,0,0,13,,,,,5,,66,100
75968,note_off,,,,,128,0,14,,,,,5,,51,100
75968,note_off,,,,,128,0,12,,,,,4,,39,100
75968,note_off,,,,,128,0,11,,,,,3,,51,100
75968,note_off,,,,,128,0,10,,,,,2,,71,100
76032,note_on,,,,,64,0,10,,,,,2,,71,100
76032,note_on,,,,,64,0,14,,,,,5,,52,100
76032,note_on,,,,,64,0,13,,,,,5,,71,100
76032,note_on,,,,,0,0,13,,,,,5,,67,100
76032,note_on,,,,,64,0,9,,,,,1,,79,100
76032,note_on,,,,,64,0,11,,,,,3,,52,100
76032,note_on,,,,,64,0,12,,,,,4,,40,100
76160,note_off,,,,,128,0,11,,,,,3,,52,100
76160,note_off,,,,,128,0,9,,,,,1,,79,100
76160,note_off,,,,,128,0,12,,,,,4,,40,100
76160,note_off,,,,,0,0,13,,,,,5,,67,100
76160,note_off,,,,,128,0,14,,,,,5,,52,100
76160,note_off,,,,,128,0,13,,,,,5,,71,100
76160,note_off,,,,,128,0,10,,,,,2,,71,100
76224,note_on,,,,,64,0,12,,,,,4,,45,100
76224,note_on,,,,,64,0,13,,,,,5,,69,100
76224,note_on,,,,,64,0,14,,,,,5,,57,100
76224,note_on,,,,,64,0,11,,,,,3,,57,100
76316,note_off,,,,,92,0,13,,,,,5,,69,100
76320,note_on,,,,,4,0,13,,,,,5,,67,100
76352,note_off,,,,,128,0,12,,,,,4,,45,100
76352,note_off,,,,,128,0,11,,,,,3,,57,100
76352,note_off,,,,,128,0,14,,,,,5,,57,100
76412,note_off,,,,,92,0,13,,,,,5,,67,100
76416,note_on,,,,,64,0,14,,,,,5,,59,100
76416,note_on,,,,,256,0,10,,,,,2,,63,100
76416,note_on,,,,,64,0,11,,,,,3,,59,100
76416,note_on,,,,,64,0,12,,,,,4,,47,100
76416,note_on,,,,,4,0,13,,,,,5,,66,100
76416,note_on,,,,,256,0,9,,,,,1,,78,100
76544,note_off,,,,,128,0,10,,,,,2,,63,100
76544,note_off,,,,,128,0,9,,,,,1,,78,100
76544,note_off,,,,,128,0,11,,,,,3,,59,100
76544,note_off,,,,,128,0,12,,,,,4,,47,100
76544,note_off,,,,,128,0,14,,,,,5,,59,100
76608,note_on,,,,,192,0,13,,,,,5,,63,100
76608,note_on,,,,,64,0,12,,,,,4,,35,100
76608,note_on,,,,,64,0,11,,,,,3,,47,100
76608,note_on,,,,,64,0,14,,,,,5,,47,100
76672,note_off,,,,,64,0,13,,,,,5,,66,100
76736,note_off,,,,,64,0,13,,,,,5,,63,100
76736,note_off,,,,,128,0,11,,,,,3,,47,100
76736,note_off,,,,,128,0,14,,,,,5,,47,100
76736,note_off,,,,,128,0,12,,,,,4,,35,100
76800,note_on,,,,,64,0,12,,,,,4,,40,100
76800,note_on,,,,,256,0,10,,,,,2,,67,100
76800,note_on,,,,,64,0,14,,,,,5,,52,100
76800,note_on,,,,,64,0,11,,,,,3,,52,100
76800,note_on,,,,,64,0,13,,,,,5,,67,100
76800,note_on,,,,,0,0,13,,,,,5,,64,100
76800,note_on,,,,,256,0,9,,,,,1,,76,100
76928,note_off,,,,,128,0,9,,,,,1,,76,100
76992,note_on,,,,,64,0,9,,,,,1,,71,60
77056,note_off,,,,,256,0,11,,,,,3,,52,100
77056,note_off,,,,,0,0,13,,,,,5,,64,100
77056,note_off,,,,,256,0,13,,,,,5,,67,100
77056,note_off,,,,,256,0,12,,,,,4,,40,100
77056,note_off,,,,,256,0,14,,,,,5,,52,100
77056,note_off,,,,,256,0,10,,,,,2,,67,100
77120,note_off,,,,,128,0,9,,,,,1,,71,100
77184,note_on,,,,,64,0,9,,,,,1,,76,60
77312,note_off,,,,,128,0,9,,,,,1,,76,100
77376,note_on,,,,,320,0,11,,,,,3,,51,60
77376,note_on,,,,,320,0,13,,,,,5,,71,100
77376,note_on,,,,,320,0,12,,,,,4,,39,60
77376,note_on,,,,,320,0,14,,,,,5,,51,100
77376,note_on,,,,,64,0,9,,,,,1,,78,60
77376,note_on,,,,,0,0,13,,,,,5,,66,100
77376,note_on,,,,,320,0,10,,,,,2,,71,60
77504,note_off,,,,,128,0,9,,,,,1,,78,100
77504,note_off,,,,,128,0,12,,,,,4,,39,100
77504,note_off,,,,,128,0,13,,,,,5,,71,100
77504,note_off,,,,,0,0,13,,,,,5,,66,100
77504,note_off,,,,,128,0,14,,,,,5,,51,100
77504,note_off,,,,,128,0,10,,,,,2,,71,100
77504,note_off,,,,,128,0,11,,,,,3,,51,100
77568,note_on,,,,,64,0,12,,,,,4,,40,60
77568,note_on,,,,,64,0,14,,,,,5,,52,100
77568,note_on,,,,,64,0,10,,,,,2,,71,60
77568,note_on,,,,,64,0,11,,,,,3,,52,60
77568,note_on,,,,,0,0,13,,,,,5,,67,100
77568,note_on,,,,,64,0,13,,,,,5,,71,100
77568,note_on,,,,,64,0,9,,,,,1,,79,60
77696,note_off,,,,,128,0,14,,,,,5,,52,100
77696,note_off,,,,,128,0,12,,,,,4,,40,100
77696,note_off,,,,,128,0,10,,,,,2,,71,100
77696,note_off,,,,,128,0,11,,,,,3,,52,100
77696,note_off,,,,,128,0,9,,,,,1,,79,100
77696,note_off,,,,,0,0,13,,,,,5,,67,100
77696,note_off,,,,,128,0,13,,,,,5,,71,100
77760,note_on,,,,,64,0,13,,,,,5,,69,100
77760,note_on,,,,,64,0,14,,,,,5,,57,100
77760,note_on,,,,,64,0,12,,,,,4,,45,60
77760,note_on,,,,,64,0,11,,,,,3,,57,60
77852,note_off,,,,,92,0,13,,,,,5,,69,100
77856,note_on,,,,,4,0,13,,,,,5,,67,100
77888,note_off,,,,,128,0,11,,,,,3,,57,100
77888,note_off,,,,,128,0,12,,,,,4,,45,100
77888,note_off,,,,,128,0,14,,,,,5,,57,100
77948,note_off,,,,,92,0,13,,,,,5,,67,100
77952,note_on,,,,,4,0,13,,,,,5,,66,100
77952,note_on,,,,,256,0,10,,,,,2,,63,60
77952,note_on,,,,,64,0,11,,,,,3,,59,60
77952,note_on,,,,,64,0,14,,,,,5,,59,100
77952,note_on,,,,,256,0,9,,,,,1,,78,60
77952,note_on,,,,,64,0,12,,,,,4,,47,60
78080,note_off,,,,,128,0,14,,,,,5,,59,100
78080,note_off,,,,,128,0,10,,,,,2,,63,100
78080,note_off,,,,,128,0,9,,,,,1,,78,100
78080,note_off,,,,,128,0,11,,,,,3,,59,100
78080,note_off,,,,,128,0,12,,,,,4,,47,100
78144,note_on,,,,,64,0,11,,,,,3,,47,60
78144,note_on,,,,,64,0,14,,,,,5,,47,100
78144,note_on,,,,,64,0,12,,,,,4,,35,60
78144,note_on,,,,,192,0,13,,,,,5,,63,100
78208,note_off,,,,,64,0,13,,,,,5,,66,100
78272,note_off,,,,,64,0,13,,,,,5,,63,100
78272,note_off,,,,,128,0,14,,,,,5,,47,100
78272,note_off,,,,,128,0,12,,,,,4,,35,100
78272,note_off,,,,,128,0,11,,,,,3,,47,100
78336,note_on,,,,,256,0,10,,,,,2,,67,100
78336,note_on,,,,,64,0,11,,,,,3,,52,60
78336,note_on,,,,,64,0,13,,,,,5,,67,100
78336,note_on,,,,,0,0,13,,,,,5,,64,100
78336,note_on,,,,,256,0,9,,,,,1,,76,60
78336,note_on,,,,,64,0,12,,,,,4,,40,60
78336,note_on,,,,,64,0,14,,,,,5,,52,100
78464,note_off,,,,,128,0,10,,,,,2,,67,100
78464,note_off,,,,,128,0,12,,,,,4,,40,100
78464,note_off,,,,,0,0,13,,,,,5,,64,100
78464,note_off,,,,,128,0,13,,,,,5,,67,100
78464,note_off,,,,,128,0,14,,,,,5,,52,100
78464,note_off,,,,,128,0,11,,,,,3,,52,100
78528,note_on,,,,,64,0,14,,,,,5,,54,100
78528,note_on,,,,,64,0,10,,,,,2,,69,100
78528,note_on,,,,,64,0,13,,,,,5,,69,100
78528,note_on,,,,,64,0,12,,,,,4,,42,100
78528,note_on,,,,,64,0,11,,,,,3,,54,100
78592,note_off,,,,,256,0,9,,,,,1,,76,100
78656,note_off,,,,,128,0,14,,,,,5,,54,100
78656,note_off,,,,,128,0,10,,,,,2,,69,100
78656,note_off,,,,,128,0,13,,,,,5,,69,100
78656,note_off,,,,,128,0,12,,,,,4,,42,100
78656,note_off,,,,,128,0,11,,,,,3,,54,100
78720,note_on,,,,,0,0,13,,,,,5,,71,100
78720,note_on,,,,,64,0,13,,,,,5,,64,100
78720,note_on,,,,,64,0,11,,,,,3,,56,100
78720,note_on,,,,,64,0,12,,,,,4,,44,100
78720,note_on,,,,,64,0,14,,,,,5,,56,100
78720,note_on,,,,,64,0,10,,,,,2,,71,100
78848,note_off,,,,,128,0,10,,,,,2,,71,100
78848,note_off,,,,,128,0,11,,,,,3,,56,100
78848,note_off,,,,,0,0,13,,,,,5,,71,100
78848,note_off,,,,,128,0,13,,,,,5,,64,100
78848,note_off,,,,,128,0,12,,,,,4,,44,100
78848,note_off,,,,,128,0,14,,,,,5,,56,100
78912,note_on,,,,,0,0,13,,,,,5,,68,100
78912,note_on,,,,,64,0,13,,,,,5,,64,100
78912,note_on,,,,,64,0,10,,,,,2,,68,100
78912,note_on,,,,,320,0,9,,,,,1,,76,100
78912,note_on,,,,,64,0,12,,,,,4,,40,100
78912,note_on,,,,,64,0,14,,,,,5,,52,100
78912,note_on,,,,,64,0,11,,,,,3,,52,100
79040,note_off,,,,,0,0,13,,,,,5,,68,100
79040,note_off,,,,,128,0,13,,,,,5,,64,100
79040,note_off,,,,,128,0,12,,,,,4,,40,100
79040,note_off,,,,,128,0,9,,,,,1,,76,100
79040,note_off,,,,,128,0,10,,,,,2,,68,100
79040,note_off,,,,,128,0,11,,,,,3,,52,100
79040,note_off,,,,,128,0,14,,,,,5,,52,100
79104,note_on,,,,,64,0,13,,,,,5,,64,100
79104,note_on,,,,,64,0,11,,,,,3,,57,85
79104,note_on,,,,,0,0,13,,,,,5,,72,100
79104,note_on,,,,,64,0,10,,,,,2,,64,85
79104,note_on,,,,,64,0,9,,,,,1,,84,85
79104,note_on,,,,,64,0,12,,,,,4,,45,85
79104,note_on,,,,,64,0,14,,,,,5,,57,100
79232,note_off,,,,,128,0,13,,,,,5,,64,100
79232,note_off,,,,,128,0,9,,,,,1,,84,100
79232,note_off,,,,,0,0,13,,,,,5,,72,100
79232,note_off,,,,,128,0,11,,,,,3,,57,100
79232,note_off,,,,,128,0,14,,,,,5,,57,100
79232,note_off,,,,,128,0,12,,,,,4,,45,100
79296,note_on,,,,,0,0,13,,,,,5,,64,100
79296,note_on,,,,,64,0,13,,,,,5,,60,100
79296,note_on,,,,,64,0,14,,,,,5,,45,100
79296,note_on,,,,,64,0,11,,,,,3,,45,85
79296,note_on,,,,,64,0,9,,,,,1,,84,85
79296,note_on,,,,,64,0,12,,,,,4,,33,85
79360,note_off,,,,,256,0,10,,,,,2,,64,100
79424,note_off,,,,,128,0,14,,,,,5,,45,100
79424,note_off,,,,,128,0,9,,,,,1,,84,100
79424,note_off,,,,,0,0,13,,,,,5,,64,100
79424,note_off,,,,,128,0,12,,,,,4,,33,100
79424,note_off,,,,,128,0,13,,,,,5,,60,100
79424,note_off,,,,,128,0,11,,,,,3,,45,100
79488,note_on,,,,,64,0,9,,,,,1,,84,85
79616,note_off,,,,,128,0,9,,,,,1,,84,100
79680,note_on,,,,,256,0,12,,,,,4,,45,85
79680,note_on,,,,,320,0,10,,,,,2,,69,85
79680,note_on,,,,,256,0,13,,,,,5,,64,100
79680,note_on,,,,,0,0,13,,,,,5,,72,100
79680,note_on,,,,,256,0,14,,,,,5,,57,100
79680,note_on,,,,,256,0,11,,,,,3,,57,85
79680,note_on,,,,,64,0,9,,,,,1,,84,85
79808,note_off,,,,,128,0,9,,,,,1,,84,100
79808,note_off,,,,,128,0,11,,,,,3,,57,100
79808,note_off,,,,,128,0,12,,,,,4,,45,100
79808,note_off,,,,,128,0,13,,,,,5,,64,100
79808,note_off,,,,,0,0,13,,,,,5,,72,100
79808,note_off,,,,,128,0,14,,,,,5,,57,100
79808,note_off,,,,,128,0,10,,,,,2,,69,100
79872,note_on,,,,,64,0,9,,,,,1,,84,85
79872,note_on,,,,,64,0,11,,,,,3,,62,85
79872,note_on,,,,,64,0,14,,,,,5,,62,100
79872,note_on,,,,,0,0,13,,,,,5,,72,100
79872,note_on,,,,,64,0,13,,,,,5,,69,100
79872,note_on,,,,,64,0,10,,,,,2,,69,85
79872,note_on,,,,,64,0,12,,,,,4,,50,85
79936,note_off,,,,,64,0,9,,,,,1,,84,100
79968,note_on,,,,,32,0,9,,,,,1,,74,85
80000,note_off,,,,,128,0,12,,,,,4,,50,100
80000,note_off,,,,,128,0,10,,,,,2,,69,100
80000,note_off,,,,,0,0,13,,,,,5,,72,100
80000,note_off,,,,,128,0,13,,,,,5,,69,100
80000,note_off,,,,,128,0,11,,,,,3,,62,100
80000,note_off,,,,,128,0,14,,,,,5,,62,100
80032,note_off,,,,,64,0,9,,,,,1,,74,100
80064,note_on,,,,,64,0,10,,,,,2,,69,85
80064,note_on,,,,,32,0,9,,,,,1,,74,85
80064,note_on,,,,,64,0,14,,,,,5,,62,100
80064,note_on,,,,,64,0,12,,,,,4,,50,85
80064,note_on,,,,,64,0,11,,,,,3,,62,85
80064,note_on,,,,,64,0,13,,,,,5,,69,100
80064,note_on,,,,,0,0,13,,,,,5,,72,100
80128,note_off,,,,,64,0,9,,,,,1,,74,100
80160,note_on,,,,,32,0,9,,,,,1,,84,85
80192,note_off,,,,,128,0,10,,,,,2,,69,100
80192,note_off,,,,,0,0,13,,,,,5,,72,100
80192,note_off,,,,,128,0,13,,,,,5,,69,100
80192,note_off,,,,,128,0,12,,,,,4,,50,100
80192,note_off,,,,,128,0,14,,,,,5,,62,100
80192,note_off,,,,,128,0,11,,,,,3,,62,100
80224,note_off,,,,,64,0,9,,,,,1,,84,100
80256,note_on,,,,,64,0,11,,,,,3,,62,85
80256,note_on,,,,,64,0,13,,,,,5,,69,100
80256,note_on,,,,,64,0,10,,,,,2,,65,85
80256,note_on,,,,,64,0,12,,,,,4,,50,85
80256,note_on,,,,,0,0,13,,,,,5,,72,100
80256,note_on,,,,,64,0,14,,,,,5,,62,100
80256,note_on,,,,,32,0,9,,,,,1,,84,85
80320,note_off,,,,,64,0,9,,,,,1,,84,100
80352,note_on,,,,,32,0,9,,,,,1,,74,85
80384,note_off,,,,,128,0,11,,,,,3,,62,100
80384,note_off,,,,,128,0,12,,,,,4,,50,100
80384,note_off,,,,,128,0,13,,,,,5,,69,100
80384,note_off,,,,,0,0,13,,,,,5,,72,100
80384,note_off,,,,,128,0,10,,,,,2,,65,100
80384,note_off,,,,,128,0,14,,,,,5,,62,100
80416,note_off,,,,,64,0,9,,,,,1,,74,100
80448,note_on,,,,,64,0,12,,,,,4,,50,85
80448,note_on,,,,,64,0,13,,,,,5,,69,100
80448,note_on,,,,,0,0,13,,,,,5,,72,100
80448,note_on,,,,,64,0,14,,,,,5,,62,100
80448,note_on,,,,,64,0,10,,,,,2,,65,85
80448,note_on,,,,,32,0,9,,,,,1,,74,85
80448,note_on,,,,,64,0,11,,,,,3,,62,85
80512,note_off,,,,,64,0,9,,,,,1,,74,100
80544,note_on,,,,,32,0,9,,,,,1,,84,85
80576,note_off,,,,,128,0,13,,,,,5,,69,100
80576,note_off,,,,,128,0,12,,,,,4,,50,100
80576,note_off,,,,,128,0,11,,,,,3,,62,100
80576,note_off,,,,,128,0,14,,,,,5,,62,100
80576,note_off,,,,,128,0,10,,,,,2,,65,100
80576,note_off,,,,,0,0,13,,,,,5,,72,100
80608,note_off,,,,,64,0,9,,,,,1,,84,100
80640,note_on,,,,,64,0,10,,,,,2,,65,85
80640,note_on,,,,,64,0,11,,,,,3,,55,85
80640,note_on,,,,,64,0,14,,,,,5,,55,100
80640,note_on,,,,,32,0,9,,,,,1,,83,85
80640,note_on,,,,,64,0,12,,,,,4,,43,85
80640,note_on,,,,,64,0,13,,,,,5,,71,100
80640,note_on,,,,,0,0,13,,,,,5,,65,100
80704,note_off,,,,,64,0,10,,,,,2,,65,100
80736,note_on,,,,,32,0,10,,,,,2,,55,85
80768,note_off,,,,,128,0,12,,,,,4,,43,100
80768,note_off,,,,,128,0,11,,,,,3,,55,100
80768,note_off,,,,,128,0,13,,,,,5,,71,100
80768,note_off,,,,,128,0,14,,,,,5,,55,100
80768,note_off,,,,,0,0,13,,,,,5,,65,100
80768,note_off,,,,,128,0,9,,,,,1,,83,100
80800,note_off,,,,,64,0,10,,,,,2,,55,100
80832,note_on,,,,,32,0,10,,,,,2,,55,85
80832,note_on,,,,,64,0,12,,,,,4,,43,85
80832,note_on,,,,,64,0,9,,,,,1,,83,85
80832,note_on,,,,,64,0,14,,,,,5,,43,100
80832,note_on,,,,,64,0,13,,,,,5,,62,100
80832,note_on,,,,,0,0,13,,,,,5,,65,100
80832,note_on,,,,,64,0,11,,,,,3,,43,85
80896,note_off,,,,,64,0,10,,,,,2,,55,100
80928,note_on,,,,,32,0,10,,,,,2,,65,85
80960,note_off,,,,,128,0,13,,,,,5,,62,100
80960,note_off,,,,,128,0,12,,,,,4,,43,100
80960,note_off,,,,,128,0,14,,,,,5,,43,100
80960,note_off,,,,,0,0,13,,,,,5,,65,100
80960,note_off,,,,,128,0,9,,,,,1,,83,100
80960,note_off,,,,,128,0,11,,,,,3,,43,100
80992,note_off,,,,,64,0,10,,,,,2,,65,100
81024,note_on,,,,,32,0,10,,,,,2,,65,85
81024,note_on,,,,,64,0,9,,,,,1,,83,85
81088,note_off,,,,,64,0,10,,,,,2,,65,100
81120,note_on,,,,,32,0,10,,,,,2,,55,85
81152,note_off,,,,,128,0,9,,,,,1,,83,100
81184,note_off,,,,,64,0,10,,,,,2,,55,100
81216,note_on,,,,,32,0,10,,,,,2,,55,85
81216,note_on,,,,,256,0,14,,,,,5,,55,100
81216,note_on,,,,,64,0,9,,,,,1,,83,85
81216,note_on,,,,,256,0,13,,,,,5,,71,100
81216,note_on,,,,,0,0,13,,,,,5,,65,100
81216,note_on,,,,,256,0,11,,,,,3,,55,85
81216,note_on,,,,,256,0,12,,,,,4,,43,85
81280,note_off,,,,,64,0,10,,,,,2,,55,100
81312,note_on,,,,,32,0,10,,,,,2,,65,85
81344,note_off,,,,,128,0,11,,,,,3,,55,100
81344,note_off,,,,,0,0,13,,,,,5,,65,100
81344,note_off,,,,,128,0,9,,,,,1,,83,100
81344,note_off,,,,,128,0,14,,,,,5,,55,100
81344,note_off,,,,,128,0,12,,,,,4,,43,100
81344,note_off,,,,,128,0,13,,,,,5,,71,100
81376,note_off,,,,,64,0,10,,,,,2,,65,100
81408,note_on,,,,,64,0,14,,,,,5,,60,100
81408,note_on,,,,,32,0,10,,,,,2,,64,85
81408,note_on,,,,,64,0,9,,,,,1,,83,85
81408,note_on,,,,,64,0,13,,,,,5,,67,100
81408,note_on,,,,,64,0,12,,,,,4,,48,85
81408,note_on,,,,,0,0,13,,,,,5,,71,100
81408,note_on,,,,,64,0,11,,,,,3,,60,85
81472,note_off,,,,,64,0,9,,,,,1,,83,100
81504,note_on,,,,,32,0,9,,,,,1,,72,85
81536,note_off,,,,,128,0,11,,,,,3,,60,100
81536,note_off,,,,,128,0,12,,,,,4,,48,100
81536,note_off,,,,,128,0,14,,,,,5,,60,100
81536,note_off,,,,,0,0,13,,,,,5,,71,100
81536,note_off,,,,,128,0,13,,,,,5,,67,100
81536,note_off,,,,,128,0,10,,,,,2,,64,100
81568,note_off,,,,,64,0,9,,,,,1,,72,100
81600,note_on,,,,,64,0,13,,,,,5,,67,100
81600,note_on,,,,,0,0,13,,,,,5,,71,100
81600,note_on,,,,,32,0,9,,,,,1,,72,85
81600,note_on,,,,,64,0,11,,,,,3,,60,85
81600,note_on,,,,,64,0,10,,,,,2,,64,85
81600,note_on,,,,,64,0,14,,,,,5,,60,100
81600,note_on,,,,,64,0,12,,,,,4,,48,85
81664,note_off,,,,,64,0,9,,,,,1,,72,100
81696,note_on,,,,,32,0,9,,,,,1,,83,85
81728,note_off,,,,,0,0,13,,,,,5,,71,100
81728,note_off,,,,,128,0,12,,,,,4,,48,100
81728,note_off,,,,,128,0,10,,,,,2,,64,100
81728,note_off,,,,,128,0,14,,,,,5,,60,100
81728,note_off,,,,,128,0,11,,,,,3,,60,100
81728,note_off,,,,,128,0,13,,,,,5,,67,100
81760,note_off,,,,,64,0,9,,,,,1,,83,100
81792,note_on,,,,,64,0,10,,,,,2,,64,85
81792,note_on,,,,,64,0,11,,,,,3,,60,85
81792,note_on,,,,,64,0,13,,,,,5,,67,100
81792,note_on,,,,,0,0,13,,,,,5,,71,100
81792,note_on,,,,,64,0,12,,,,,4,,48,85
81792,note_on,,,,,32,0,9,,,,,1,,83,85
81792,note_on,,,,,64,0,14,,,,,5,,60,100
81856,note_off,,,,,64,0,9,,,,,1,,83,100
81888,note_on,,,,,32,0,9,,,,,1,,72,85
81920,note_off,,,,,0,0,13,,,,,5,,71,100
81920,note_off,,,,,128,0,13,,,,,5,,67,100
81920,note_off,,,,,128,0,10,,,,,2,,64,100
81920,note_off,,,,,128,0,14,,,,,5,,60,100
81920,note_off,,,,,128,0,12,,,,,4,,48,100
81920,note_off,,,,,128,0,11,,,,,3,,60,100
81952,note_off,,,,,64,0,9,,,,,1,,72,100
81984,note_on,,,,,64,0,12,,,,,4,,48,85
81984,note_on,,,,,0,0,13,,,,,5,,71,100
81984,note_on,,,,,64,0,13,,,,,5,,67,100
81984,note_on,,,,,32,0,9,,,,,1,,72,85
81984,note_on,,,,,64,0,14,,,,,5,,60,100
81984,note_on,,,,,64,0,10,,,,,2,,64,85
81984,note_on,,,,,64,0,11,,,,,3,,60,85
82048,note_off,,,,,64,0,9,,,,,1,,72,100
82080,note_on,,,,,32,0,9,,,,,1,,83,85
82112,note_off,,,,,128,0,14,,,,,5,,60,100
82112,note_off,,,,,128,0,10,,,,,2,,64,100
82112,note_off,,,,,128,0,11,,,,,3,,60,100
82112,note_off,,,,,128,0,13,,,,,5,,67,100
82112,note_off,,,,,0,0,13,,,,,5,,71,100
82112,note_off,,,,,128,0,12,,,,,4,,48,100
82144,note_off,,,,,64,0,9,,,,,1,,83,100
82176,note_on,,,,,64,0,13,,,,,5,,69,100
82176,note_on,,,,,32,0,9,,,,,1,,81,85
82176,note_on,,,,,64,0,10,,,,,2,,64,85
82176,note_on,,,,,64,0,14,,,,,5,,53,100
82176,note_on,,,,,64,0,11,,,,,3,,53,85
82176,note_on,,,,,0,0,13,,,,,5,,64,100
82176,note_on,,,,,64,0,12,,,,,4,,41,85
82240,note_off,,,,,64,0,10,,,,,2,,64,100
82272,note_on,,,,,32,0,10,,,,,2,,53,85
82304,note_off,,,,,128,0,9,,,,,1,,81,100
82304,note_off,,,,,128,0,12,,,,,4,,41,100
82304,note_off,,,,,128,0,14,,,,,5,,53,100
82304,note_off,,,,,128,0,11,,,,,3,,53,100
82304,note_off,,,,,128,0,13,,,,,5,,69,100
82304,note_off,,,,,0,0,13,,,,,5,,64,100
82336,note_off,,,,,64,0,10,,,,,2,,53,100
82368,note_on,,,,,64,0,14,,,,,5,,41,100
82368,note_on,,,,,32,0,10,,,,,2,,53,85
82368,note_on,,,,,64,0,9,,,,,1,,81,85
82368,note_on,,,,,64,0,12,,,,,4,,41,85
82368,note_on,,,,,64,0,13,,,,,5,,60,100
82368,note_on,,,,,64,0,11,,,,,3,,41,85
82368,note_on,,,,,0,0,13,,,,,5,,64,100
82432,note_off,,,,,64,0,10,,,,,2,,53,100
82464,note_on,,,,,32,0,10,,,,,2,,64,85
82496,note_off,,,,,128,0,13,,,,,5,,60,100
82496,note_off,,,,,0,0,13,,,,,5,,64,100
82496,note_off,,,,,128,0,14,,,,,5,,41,100
82496,note_off,,,,,128,0,12,,,,,4,,41,100
82496,note_off,,,,,128,0,9,,,,,1,,81,100
82496,note_off,,,,,128,0,11,,,,,3,,41,100
82528,note_off,,,,,64,0,10,,,,,2,,64,100
82560,note_on,,,,,64,0,9,,,,,1,,81,85
82560,note_on,,,,,32,0,10,,,,,2,,62,85
82624,note_off,,,,,64,0,10,,,,,2,,62,100
82656,note_on,,,,,32,0,10,,,,,2,,53,85
82688,note_off,,,,,128,0,9,,,,,1,,81,100
82720,note_off,,,,,64,0,10,,,,,2,,53,100
82752,note_on,,,,,0,0,13,,,,,5,,69,100
82752,note_on,,,,,32,0,10,,,,,2,,53,85
82752,note_on,,,,,256,0,11,,,,,3,,53,85
82752,note_on,,,,,256,0,12,,,,,4,,41,85
82752,note_on,,,,,256,0,13,,,,,5,,62,100
82752,note_on,,,,,64,0,9,,,,,1,,81,85
82752,note_on,,,,,256,0,14,,,,,5,,53,100
82816,note_off,,,,,64,0,10,,,,,2,,53,100
82848,note_on,,,,,32,0,10,,,,,2,,57,85
82880,note_off,,,,,128,0,11,,,,,3,,53,100
82880,note_off,,,,,128,0,12,,,,,4,,41,100
82880,note_off,,,,,0,0,13,,,,,5,,69,100
82880,note_off,,,,,128,0,13,,,,,5,,62,100
82880,note_off,,,,,128,0,9,,,,,1,,81,100
82880,note_off,,,,,128,0,14,,,,,5,,53,100
82912,note_off,,,,,64,0,10,,,,,2,,57,100
82944,note_on,,,,,64,0,12,,,,,4,,40,85
82944,note_on,,,,,64,0,11,,,,,3,,52,85
82944,note_on,,,,,64,0,13,,,,,5,,64,100
82944,note_on,,,,,0,0,13,,,,,5,,68,100
82944,note_on,,,,,64,0,14,,,,,5,,52,100
82944,note_on,,,,,64,0,9,,,,,1,,80,85
82944,note_on,,,,,13568,0,8,,,,,0,,80,100
82944,note_on,,,,,32,0,10,,,,,2,,59,85
82944,note_on,,,,,0,0,13,,,,,5,,71,100
83008,note_off,,,,,64,0,8,,,,,0,,80,100
83040,note_on,,,,,32,0,8,,,,,0,,76,100
83104,note_off,,,,,64,0,8,,,,,0,,76,100
83136,note_on,,,,,32,0,8,,,,,0,,80,100
83200,note_off,,,,,0,0,13,,,,,5,,68,100
83200,note_off,,,,,0,0,13,,,,,5,,71,100
83200,note_off,,,,,256,0,11,,,,,3,,52,100
83200,note_off,,,,,256,0,12,,,,,4,,40,100
83200,note_off,,,,,64,0,8,,,,,0,,80,100
83200,note_off,,,,,256,0,14,,,,,5,,52,100
83200,note_off,,,,,256,0,13,,,,,5,,64,100
83200,note_off,,,,,256,0,10,,,,,2,,59,100
83200,note_off,,,,,256,0,9,,,,,1,,80,100
83232,note_on,,,,,32,0,8,,,,,0,,76,100
83296,note_off,,,,,64,0,8,,,,,0,,76,100
83328,note_on,,,,,32,0,8,,,,,0,,83,100
83392,note_off,,,,,64,0,8,,,,,0,,83,100
83424,note_on,,,,,32,0,8,,,,,0,,76,100
83488,note_off,,,,,64,0,8,,,,,0,,76,100
83520,note_on,,,,,32,0,8,,,,,0,,80,100
83584,note_off,,,,,64,0,8,,,,,0,,80,100
83616,note_on,,,,,32,0,8,,,,,0,,76,100
83680,note_off,,,,,64,0,8,,,,,0,,76,100
83712,note_on,,,,,32,0,8,,,,,0,,83,100
83776,note_off,,,,,64,0,8,,,,,0,,83,100
83808,note_on,,,,,32,0,8,,,,,0,,76,100
83872,note_off,,,,,64,0,8,,,,,0,,76,100
83904,note_on,,,,,32,0,8,,,,,0,,80,100
83968,note_off,,,,,64,0,8,,,,,0,,80,100
84000,note_on,,,,,32,0,8,,,,,0,,76,100
84064,note_off,,,,,64,0,8,,,,,0,,76,100
84096,note_on,,,,,32,0,8,,,,,0,,83,100
84160,note_off,,,,,64,0,8,,,,,0,,83,100
84192,note_on,,,,,32,0,8,,,,,0,,76,100
84256,note_off,,,,,64,0,8,,,,,0,,76,100
84288,note_on,,,,,32,0,8,,,,,0,,80,100
84352,note_off,,,,,64,0,8,,,,,0,,80,100
84384,note_on,,,,,32,0,8,,,,,0,,76,100
84448,note_off,,,,,64,0,8,,,,,0,,76,100
84480,note_on,,,,,32,0,8,,,,,0,,81,100
84480,note_on,,,,,1280,0,11,,,,,3,,45,85
84480,note_on,,,,,1280,0,12,,,,,4,,33,85
84480,note_on,,,,,1280,0,14,,,,,5,,45,100
84480,note_on,,,,,0,0,13,,,,,5,,64,100
84480,note_on,,,,,1280,0,13,,,,,5,,60,100
84544,note_off,,,,,64,0,8,,,,,0,,81,100
84576,note_on,,,,,32,0,8,,,,,0,,76,100
84640,note_off,,,,,64,0,8,,,,,0,,76,100
84672,note_on,,,,,32,0,8,,,,,0,,76,100
84736,note_off,,,,,256,0,14,,,,,5,,45,100
84736,note_off,,,,,256,0,13,,,,,5,,60,100
84736,note_off,,,,,0,0,13,,,,,5,,64,100
84736,note_off,,,,,64,0,8,,,,,0,,76,100
84736,note_off,,,,,256,0,12,,,,,4,,33,100
84736,note_off,,,,,256,0,11,,,,,3,,45,100
84768,note_on,,,,,32,0,8,,,,,0,,76,100
84832,note_off,,,,,64,0,8,,,,,0,,76,100
84864,note_on,,,,,32,0,8,,,,,0,,81,100
84928,note_off,,,,,64,0,8,,,,,0,,81,100
84960,note_on,,,,,32,0,8,,,,,0,,76,100
85024,note_off,,,,,64,0,8,,,,,0,,76,100
85056,note_on,,,,,32,0,8,,,,,0,,76,100
85120,note_off,,,,,64,0,8,,,,,0,,76,100
85152,note_on,,,,,32,0,8,,,,,0,,76,100
85216,note_off,,,,,64,0,8,,,,,0,,76,100
85248,note_on,,,,,32,0,8,,,,,0,,83,100
85312,note_off,,,,,64,0,8,,,,,0,,83,100
85344,note_on,,,,,32,0,8,,,,,0,,76,100
85408,note_off,,,,,64,0,8,,,,,0,,76,100
85440,note_on,,,,,32,0,8,,,,,0,,76,100
85504,note_off,,,,,64,0,8,,,,,0,,76,100
85536,note_on,,,,,32,0,8,,,,,0,,76,100
85600,note_off,,,,,64,0,8,,,,,0,,76,100
85632,note_on,,,,,32,0,8,,,,,0,,83,100
85696,note_off,,,,,64,0,8,,,,,0,,83,100
85728,note_on,,,,,32,0,8,,,,,0,,76,100
85792,note_off,,,,,64,0,8,,,,,0,,76,100
85824,note_on,,,,,32,0,8,,,,,0,,76,100
85888,note_off,,,,,64,0,8,,,,,0,,76,100
85920,note_on,,,,,32,0,8,,,,,0,,76,100
85984,note_off,,,,,64,0,8,,,,,0,,76,100
86016,note_on,,,,,0,0,13,,,,,5,,64,100
86016,note_on,,,,,1280,0,14,,,,,5,,45,100
86016,note_on,,,,,1280,0,13,,,,,5,,60,100
86016,note_on,,,,,1280,0,12,,,,,4,,33,85
86016,note_on,,,,,1280,0,11,,,,,3,,45,85
86016,note_on,,,,,32,0,8,,,,,0,,84,100
86080,note_off,,,,,64,0,8,,,,,0,,84,100
86112,note_on,,,,,32,0,8,,,,,0,,76,100
86176,note_off,,,,,64,0,8,,,,,0,,76,100
86208,note_on,,,,,32,0,8,,,,,0,,76,100
86272,note_off,,,,,256,0,13,,,,,5,,60,100
86272,note_off,,,,,256,0,14,,,,,5,,45,100
86272,note_off,,,,,256,0,12,,,,,4,,33,100
86272,note_off,,,,,0,0,13,,,,,5,,64,100
86272,note_off,,,,,64,0,8,,,,,0,,76,100
86272,note_off,,,,,256,0,11,,,,,3,,45,100
86304,note_on,,,,,32,0,8,,,,,0,,76,100
86368,note_off,,,,,64,0,8,,,,,0,,76,100
86400,note_on,,,,,32,0,8,,,,,0,,84,100
86464,note_off,,,,,64,0,8,,,,,0,,84,100
86496,note_on,,,,,32,0,8,,,,,0,,76,100
86560,note_off,,,,,64,0,8,,,,,0,,76,100
86592,note_on,,,,,32,0,8,,,,,0,,76,100
86656,note_off,,,,,64,0,8,,,,,0,,76,100
86688,note_on,,,,,32,0,8,,,,,0,,76,100
86752,note_off,,,,,64,0,8,,,,,0,,76,100
86784,note_on,,,,,32,0,8,,,,,0,,86,100
86848,note_off,,,,,64,0,8,,,,,0,,86,100
86880,note_on,,,,,32,0,8,,,,,0,,76,100
86944,note_off,,,,,64,0,8,,,,,0,,76,100
86976,note_on,,,,,32,0,8,,,,,0,,76,100
87040,note_off,,,,,64,0,8,,,,,0,,76,100
87072,note_on,,,,,32,0,8,,,,,0,,76,100
87136,note_off,,,,,64,0,8,,,,,0,,76,100
87168,note_on,,,,,32,0,8,,,,,0,,86,100
87232,note_off,,,,,64,0,8,,,,,0,,86,100
87264,note_on,,,,,32,0,8,,,,,0,,76,100
87328,note_off,,,,,64,0,8,,,,,0,,76,100
87360,note_on,,,,,32,0,8,,,,,0,,76,100
87424,note_off,,,,,64,0,8,,,,,0,,76,100
87456,note_on,,,,,32,0,8,,,,,0,,76,100
87520,note_off,,,,,64,0,8,,,,,0,,76,100
87552,note_on,,,,,0,0,13,,,,,5,,64,100
87552,note_on,,,,,32,0,8,,,,,0,,88,100
87552,note_on,,,,,1280,0,12,,,,,4,,33,100
87552,note_on,,,,,1280,0,11,,,,,3,,45,100
87552,note_on,,,,,1280,0,14,,,,,5,,45,100
87552,note_on,,,,,4352,0,10,,,,,2,,60,100
87552,note_on,,,,,1280,0,13,,,,,5,,60,100
87680,note_off,,,,,128,0,8,,,,,0,,88,100
87744,note_on,,,,,4544,0,9,,,,,1,,76,100
87808,note_off,,,,,256,0,13,,,,,5,,60,100
87808,note_off,,,,,0,0,13,,,,,5,,64,100
87808,note_off,,,,,256,0,10,,,,,2,,60,100
87808,note_off,,,,,256,0,14,,,,,5,,45,100
87808,note_off,,,,,256,0,11,,,,,3,,45,100
87808,note_off,,,,,256,0,12,,,,,4,,33,100
87872,note_off,,,,,128,0,9,,,,,1,,76,100
87936,note_on,,,,,64,0,9,,,,,1,,81,100
88064,note_off,,,,,128,0,9,,,,,1,,81,100
88128,note_on,,,,,0,0,13,,,,,5,,59,100
88128,note_on,,,,,320,0,11,,,,,3,,44,100
88128,note_on,,,,,64,0,9,,,,,1,,83,100
88128,note_on,,,,,320,0,13,,,,,5,,64,100
88128,note_on,,,,,320,0,14,,,,,5,,44,100
88128,note_on,,,,,320,0,10,,,,,2,,64,100
88128,note_on,,,,,320,0,12,,,,,4,,44,100
88256,note_off,,,,,0,0,13,,,,,5,,59,100
88256,note_off,,,,,128,0,11,,,,,3,,44,100
88256,note_off,,,,,128,0,9,,,,,1,,83,100
88256,note_off,,,,,128,0,12,,,,,4,,44,100
88256,note_off,,,,,128,0,13,,,,,5,,64,100
88256,note_off,,,,,128,0,10,,,,,2,,64,100
88256,note_off,,,,,128,0,14,,,,,5,,44,100
88320,note_on,,,,,64,0,12,,,,,4,,33,100
88320,note_on,,,,,64,0,9,,,,,1,,84,100
88320,note_on,,,,,64,0,10,,,,,2,,64,100
88320,note_on,,,,,64,0,14,,,,,5,,45,100
88320,note_on,,,,,64,0,11,,,,,3,,45,100
88320,note_on,,,,,64,0,13,,,,,5,,60,100
88320,note_on,,,,,0,0,13,,,,,5,,64,100
88448,note_off,,,,,128,0,10,,,,,2,,64,100
88448,note_off,,,,,128,0,11,,,,,3,,45,100
88448,note_off,,,,,128,0,12,,,,,4,,33,100
88448,note_off,,,,,128,0,9,,,,,1,,84,100
88448,note_off,,,,,128,0,13,,,,,5,,60,100
88448,note_off,,,,,0,0,13,,,,,5,,64,100
88448,note_off,,,,,128,0,14,,,,,5,,45,100
88512,note_on,,,,,64,0,14,,,,,5,,50,100
88512,note_on,,,,,64,0,11,,,,,3,,50,100
88512,note_on,,,,,64,0,13,,,,,5,,60,100
88512,note_on,,,,,0,0,13,,,,,5,,69,100
88512,note_on,,,,,64,0,12,,,,,4,,38,100
88640,note_off,,,,,128,0,13,,,,,5,,60,100
88640,note_off,,,,,0,0,13,,,,,5,,69,100
88640,note_off,,,,,128,0,11,,,,,3,,50,100
88640,note_off,,,,,128,0,14,,,,,5,,50,100
88640,note_off,,,,,128,0,12,,,,,4,,38,100
88704,note_on,,,,,0,0,13,,,,,5,,71,100
88704,note_on,,,,,64,0,13,,,,,5,,68,100
88704,note_on,,,,,64,0,12,,,,,4,,40,100
88704,note_on,,,,,256,0,9,,,,,1,,83,100
88704,note_on,,,,,256,0,10,,,,,2,,68,100
88704,note_on,,,,,64,0,14,,,,,5,,52,100
88704,note_on,,,,,64,0,11,,,,,3,,52,100
88832,note_off,,,,,0,0,13,,,,,5,,71,100
88832,note_off,,,,,128,0,9,,,,,1,,83,100
88832,note_off,,,,,128,0,13,,,,,5,,68,100
88832,note_off,,,,,128,0,10,,,,,2,,68,100
88832,note_off,,,,,128,0,14,,,,,5,,52,100
88832,note_off,,,,,128,0,12,,,,,4,,40,100
88832,note_off,,,,,128,0,11,,,,,3,,52,100
88896,note_on,,,,,64,0,11,,,,,3,,40,100
88896,note_on,,,,,64,0,14,,,,,5,,40,100
88896,note_on,,,,,64,0,12,,,,,4,,40,100
88896,note_on,,,,,64,0,13,,,,,5,,59,100
88896,note_on,,,,,0,0,13,,,,,5,,68,100
89024,note_off,,,,,128,0,14,,,,,5,,40,100
89024,note_off,,,,,128,0,12,,,,,4,,40,100
89024,note_off,,,,,0,0,13,,,,,5,,68,100
89024,note_off,,,,,128,0,13,,,,,5,,59,100
89024,note_off,,,,,128,0,11,,,,,3,,40,100
89088,note_on,,,,,0,0,13,,,,,5,,60,100
89088,note_on,,,,,64,0,13,,,,,5,,69,100
89088,note_on,,,,,64,0,14,,,,,5,,57,100
89088,note_on,,,,,256,0,9,,,,,1,,81,100
89088,note_on,,,,,64,0,12,,,,,4,,45,100
89088,note_on,,,,,256,0,10,,,,,2,,64,100
89088,note_on,,,,,64,0,11,,,,,3,,57,100
89216,note_off,,,,,128,0,11,,,,,3,,57,100
89216,note_off,,,,,128,0,14,,,,,5,,57,100
89216,note_off,,,,,128,0,13,,,,,5,,69,100
89216,note_off,,,,,128,0,10,,,,,2,,64,100
89216,note_off,,,,,128,0,12,,,,,4,,45,100
89216,note_off,,,,,0,0,13,,,,,5,,60,100
89280,note_on,,,,,64,0,12,,,,,4,,47,100
89280,note_on,,,,,64,0,14,,,,,5,,59,100
89280,note_on,,,,,64,0,13,,,,,5,,62,100
89280,note_on,,,,,64,0,11,,,,,3,,59,100
89280,note_on,,,,,64,0,10,,,,,2,,62,100
89344,note_off,,,,,256,0,9,,,,,1,,81,100
89408,note_off,,,,,128,0,12,,,,,4,,47,100
89408,note_off,,,,,128,0,11,,,,,3,,59,100
89408,note_off,,,,,128,0,13,,,,,5,,62,100
89408,note_off,,,,,128,0,14,,,,,5,,59,100
89408,note_off,,,,,128,0,10,,,,,2,,62,100
89472,note_on,,,,,64,0,13,,,,,5,,64,100
89472,note_on,,,,,64,0,12,,,,,4,,48,100
89472,note_on,,,,,64,0,11,,,,,3,,60,100
89472,note_on,,,,,64,0,14,,,,,5,,60,100
89472,note_on,,,,,64,0,10,,,,,2,,64,100
89600,note_off,,,,,128,0,12,,,,,4,,48,100
89600,note_off,,,,,128,0,14,,,,,5,,60,100
89600,note_off,,,,,128,0,10,,,,,2,,64,100
89600,note_off,,,,,128,0,11,,,,,3,,60,100
89600,note_off,,,,,128,0,13,,,,,5,,64,100
89664,note_on,,,,,64,0,12,,,,,4,,45,100
89664,note_on,,,,,320,0,9,,,,,1,,81,100
89664,note_on,,,,,64,0,13,,,,,5,,60,100
89664,note_on,,,,,64,0,14,,,,,5,,57,100
89664,note_on,,,,,0,0,13,,,,,5,,64,100
89664,note_on,,,,,64,0,10,,,,,2,,60,100
89664,note_on,,,,,64,0,11,,,,,3,,57,100
89792,note_off,,,,,0,0,13,,,,,5,,64,100
89792,note_off,,,,,128,0,9,,,,,1,,81,100
89792,note_off,,,,,128,0,11,,,,,3,,57,100
89792,note_off,,,,,128,0,12,,,,,4,,45,100
89792,note_off,,,,,128,0,10,,,,,2,,60,100
89792,note_off,,,,,128,0,13,,,,,5,,60,100
89792,note_off,,,,,128,0,14,,,,,5,,57,100
89856,note_on,,,,,64,0,11,,,,,3,,59,100
89856,note_on,,,,,64,0,14,,,,,5,,59,100
89856,note_on,,,,,64,0,9,,,,,1,,79,100
89856,note_on,,,,,64,0,10,,,,,2,,62,100
89856,note_on,,,,,64,0,13,,,,,5,,67,100
89856,note_on,,,,,64,0,12,,,,,4,,47,100
89856,note_on,,,,,0,0,13,,,,,5,,62,100
89984,note_off,,,,,128,0,9,,,,,1,,79,100
90048,note_on,,,,,64,0,9,,,,,1,,77,100
90112,note_off,,,,,256,0,14,,,,,5,,59,100
90112,note_off,,,,,256,0,12,,,,,4,,47,100
90112,note_off,,,,,256,0,11,,,,,3,,59,100
90112,note_off,,,,,256,0,13,,,,,5,,67,100
90112,note_off,,,,,0,0,13,,,,,5,,62,100
90112,note_off,,,,,256,0,10,,,,,2,,62,100
90176,note_off,,,,,128,0,9,,,,,1,,77,100
90240,note_on,,,,,0,0,13,,,,,5,,62,100
90240,note_on,,,,,128,0,14,,,,,5,,56,100
90240,note_on,,,,,128,0,13,,,,,5,,64,100
90240,note_on,,,,,64,0,9,,,,,1,,76,100
90240,note_on,,,,,128,0,12,,,,,4,,44,100
90240,note_on,,,,,128,0,10,,,,,2,,71,100
90240,note_on,,,,,128,0,11,,,,,3,,56,100
90368,note_off,,,,,128,0,9,,,,,1,,76,100
90432,note_on,,,,,64,0,9,,,,,1,,74,100
90496,note_off,,,,,256,0,12,,,,,4,,44,100
90496,note_off,,,,,256,0,10,,,,,2,,71,100
90496,note_off,,,,,256,0,14,,,,,5,,56,100
90496,note_off,,,,,0,0,13,,,,,5,,62,100
90496,note_off,,,,,256,0,13,,,,,5,,64,100
90496,note_off,,,,,256,0,11,,,,,3,,56,100
90560,note_off,,,,,128,0,9,,,,,1,,74,100
90624,note_on,,,,,64,0,9,,,,,1,,72,100
90624,note_on,,,,,0,0,13,,,,,5,,64,100
90624,note_on,,,,,128,0,13,,,,,5,,60,100
90624,note_on,,,,,128,0,10,,,,,2,,64,100
90624,note_on,,,,,128,0,11,,,,,3,,57,100
90624,note_on,,,,,128,0,12,,,,,4,,45,100
90624,note_on,,,,,128,0,14,,,,,5,,57,100
90752,note_off,,,,,128,0,9,,,,,1,,72,100
90816,note_on,,,,,64,0,9,,,,,1,,71,100
90880,note_off,,,,,0,0,13,,,,,5,,64,100
90880,note_off,,,,,256,0,10,,,,,2,,64,100
90880,note_off,,,,,256,0,13,,,,,5,,60,100
90880,note_off,,,,,256,0,14,,,,,5,,57,100
90880,note_off,,,,,256,0,12,,,,,4,,45,100
90880,note_off,,,,,256,0,11,,,,,3,,57,100
90944,note_off,,,,,128,0,9,,,,,1,,71,100
91008,note_on,,,,,64,0,9,,,,,1,,69,100
91136,note_off,,,,,128,0,9,,,,,1,,69,100
91200,note_on,,,,,64,0,9,,,,,1,,71,100
91200,note_on,,,,,320,0,10,,,,,2,,68,100
91200,note_on,,,,,320,0,14,,,,,5,,52,100
91200,note_on,,,,,320,0,11,,,,,3,,52,100
91200,note_on,,,,,0,0,13,,,,,5,,68,100
91200,note_on,,,,,320,0,13,,,,,5,,59,100
91200,note_on,,,,,320,0,12,,,,,4,,40,100
91328,note_off,,,,,0,0,13,,,,,5,,68,100
91328,note_off,,,,,128,0,9,,,,,1,,71,100
91328,note_off,,,,,128,0,12,,,,,4,,40,100
91328,note_off,,,,,128,0,13,,,,,5,,59,100
91328,note_off,,,,,128,0,10,,,,,2,,68,100
91328,note_off,,,,,128,0,14,,,,,5,,52,100
91328,note_off,,,,,128,0,11,,,,,3,,52,100
91392,note_on,,,,,64,0,12,,,,,4,,45,100
91392,note_on,,,,,64,0,9,,,,,1,,72,100
91392,note_on,,,,,64,0,14,,,,,5,,57,100
91392,note_on,,,,,64,0,10,,,,,2,,64,100
91392,note_on,,,,,0,0,13,,,,,5,,72,100
91392,note_on,,,,,64,0,13,,,,,5,,64,100
91392,note_on,,,,,64,0,11,,,,,3,,57,100
91520,note_off,,,,,128,0,11,,,,,3,,57,100
91520,note_off,,,,,128,0,14,,,,,5,,57,100
91520,note_off,,,,,128,0,10,,,,,2,,64,100
91520,note_off,,,,,128,0,9,,,,,1,,72,100
91520,note_off,,,,,0,0,13,,,,,5,,72,100
91520,note_off,,,,,128,0,13,,,,,5,,64,100
91520,note_off,,,,,128,0,12,,,,,4,,45,100
91776,note_on,,,,,0,0,13,,,,,5,,69,100
91776,note_on,,,,,256,0,13,,,,,5,,62,100
91776,note_on,,,,,256,0,12,,,,,4,,41,100
91776,note_on,,,,,256,0,10,,,,,2,,69,100
91776,note_on,,,,,256,0,11,,,,,3,,53,100
91776,note_on,,,,,256,0,9,,,,,1,,74,100
91776,note_on,,,,,256,0,14,,,,,5,,53,100
91904,note_off,,,,,128,0,10,,,,,2,,69,100
91904,note_off,,,,,128,0,12,,,,,4,,41,100
91904,note_off,,,,,128,0,9,,,,,1,,74,100
91904,note_off,,,,,128,0,14,,,,,5,,53,100
91904,note_off,,,,,128,0,11,,,,,3,,53,100
91904,note_off,,,,,128,0,13,,,,,5,,62,100
91904,note_off,,,,,0,0,13,,,,,5,,69,100
92160,note_on,,,,,256,0,10,,,,,2,,68,100
92160,note_on,,,,,0,0,13,,,,,5,,68,100
92160,note_on,,,,,256,0,12,,,,,4,,40,100
92160,note_on,,,,,256,0,14,,,,,5,,52,100
92160,note_on,,,,,256,0,11,,,,,3,,52,100
92160,note_on,,,,,256,0,13,,,,,5,,71,100
92160,note_on,,,,,256,0,9,,,,,1,,76,100
92288,note_off,,,,,128,0,12,,,,,4,,40,100
92288,note_off,,,,,0,0,13,,,,,5,,68,100
92288,note_off,,,,,128,0,14,,,,,5,,52,100
92288,note_off,,,,,128,0,11,,,,,3,,52,100
92288,note_off,,,,,128,0,13,,,,,5,,71,100
92352,note_on,,,,,64,0,11,,,,,3,,54,100
92352,note_on,,,,,64,0,13,,,,,5,,69,100
92352,note_on,,,,,64,0,12,,,,,4,,42,100
92352,note_on,,,,,64,0,14,,,,,5,,54,100
92416,note_off,,,,,256,0,10,,,,,2,,68,100
92416,note_off,,,,,256,0,9,,,,,1,,76,100
92480,note_off,,,,,128,0,14,,,,,5,,54,100
92480,note_off,,,,,128,0,11,,,,,3,,54,100
92480,note_off,,,,,128,0,12,,,,,4,,42,100
92480,note_off,,,,,128,0,13,,,,,5,,69,100
92544,note_on,,,,,64,0,12,,,,,4,,44,100
92544,note_on,,,,,64,0,14,,,,,5,,56,100
92544,note_on,,,,,64,0,11,,,,,3,,56,100
92544,note_on,,,,,64,0,13,,,,,5,,71,100
92672,note_off,,,,,128,0,14,,,,,5,,56,100
92672,note_off,,,,,128,0,13,,,,,5,,71,100
92672,note_off,,,,,128,0,12,,,,,4,,44,100
92672,note_off,,,,,128,0,11,,,,,3,,56,100
92736,note_on,,,,,5056,0,8,,,,,0,,76,100
92736,note_on,,,,,64,0,13,,,,,5,,68,100
92736,note_on,,,,,64,0,12,,,,,4,,40,100
92736,note_on,,,,,0,0,13,,,,,5,,71,100
92736,note_on,,,,,64,0,14,,,,,5,,52,100
92736,note_on,,,,,64,0,11,,,,,3,,52,100
92864,note_off,,,,,0,0,13,,,,,5,,71,100
92864,note_off,,,,,128,0,12,,,,,4,,40,100
92864,note_off,,,,,128,0,13,,,,,5,,68,100
92864,note_off,,,,,128,0,8,,,,,0,,76,100
92864,note_off,,,,,128,0,14,,,,,5,,52,100
92864,note_off,,,,,128,0,11,,,,,3,,52,100
92928,note_on,,,,,64,0,8,,,,,0,,84,100
92928,note_on,,,,,64,0,13,,,,,5,,64,100
92928,note_on,,,,,64,0,11,,,,,3,,57,100
92928,note_on,,,,,0,0,13,,,,,5,,72,100
92928,note_on,,,,,64,0,12,,,,,4,,45,100
92928,note_on,,,,,64,0,14,,,,,5,,57,100
92992,note_off,,,,,64,0,8,,,,,0,,84,100
93024,note_on,,,,,32,0,8,,,,,0,,86,100
93056,note_off,,,,,128,0,12,,,,,4,,45,100
93056,note_off,,,,,128,0,13,,,,,5,,64,100
93056,note_off,,,,,128,0,11,,,,,3,,57,100
93056,note_off,,,,,0,0,13,,,,,5,,72,100
93056,note_off,,,,,128,0,14,,,,,5,,57,100
93088,note_off,,,,,64,0,8,,,,,0,,86,100
93120,note_on,,,,,64,0,13,,,,,5,,60,100
93120,note_on,,,,,0,0,13,,,,,5,,64,100
93120,note_on,,,,,64,0,14,,,,,5,,45,100
93120,note_on,,,,,32,0,8,,,,,0,,84,100
93120,note_on,,,,,64,0,11,,,,,3,,45,100
93120,note_on,,,,,64,0,12,,,,,4,,33,100
93184,note_off,,,,,64,0,8,,,,,0,,84,100
93216,note_on,,,,,32,0,8,,,,,0,,86,100
93248,note_off,,,,,128,0,12,,,,,4,,33,100
93248,note_off,,,,,0,0,13,,,,,5,,64,100
93248,note_off,,,,,128,0,13,,,,,5,,60,100
93248,note_off,,,,,128,0,11,,,,,3,,45,100
93248,note_off,,,,,128,0,14,,,,,5,,45,100
93280,note_off,,,,,64,0,8,,,,,0,,86,100
93312,note_on,,,,,32,0,8,,,,,0,,84,100
93376,note_off,,,,,64,0,8,,,,,0,,84,100
93408,note_on,,,,,32,0,8,,,,,0,,86,100
93472,note_off,,,,,64,0,8,,,,,0,,86,100
93504,note_on,,,,,256,0,14,,,,,5,,57,100
93504,note_on,,,,,256,0,11,,,,,3,,57,85
93504,note_on,,,,,32,0,8,,,,,0,,84,100
93504,note_on,,,,,256,0,13,,,,,5,,64,100
93504,note_on,,,,,0,0,13,,,,,5,,72,100
93504,note_on,,,,,256,0,12,,,,,4,,45,85
93568,note_off,,,,,64,0,8,,,,,0,,84,100
93600,note_on,,,,,32,0,8,,,,,0,,86,100
93632,note_off,,,,,128,0,11,,,,,3,,57,100
93632,note_off,,,,,128,0,14,,,,,5,,57,100
93632,note_off,,,,,0,0,13,,,,,5,,72,100
93632,note_off,,,,,128,0,12,,,,,4,,45,100
93632,note_off,,,,,128,0,13,,,,,5,,64,100
93664,note_off,,,,,64,0,8,,,,,0,,86,100
93696,note_on,,,,,32,0,8,,,,,0,,84,100
93696,note_on,,,,,64,0,11,,,,,3,,62,85
93696,note_on,,,,,64,0,14,,,,,5,,62,100
93696,note_on,,,,,64,0,12,,,,,4,,50,85
93696,note_on,,,,,0,0,13,,,,,5,,72,100
93696,note_on,,,,,64,0,13,,,,,5,,69,100
93824,note_off,,,,,0,0,13,,,,,5,,72,100
93824,note_off,,,,,128,0,13,,,,,5,,69,100
93824,note_off,,,,,128,0,11,,,,,3,,62,100
93824,note_off,,,,,128,0,12,,,,,4,,50,100
93824,note_off,,,,,128,0,8,,,,,0,,84,100
93824,note_off,,,,,128,0,14,,,,,5,,62,100
93888,note_on,,,,,0,0,13,,,,,5,,72,100
93888,note_on,,,,,64,0,12,,,,,4,,50,85
93888,note_on,,,,,64,0,13,,,,,5,,69,100
93888,note_on,,,,,64,0,11,,,,,3,,62,85
93888,note_on,,,,,64,0,8,,,,,0,,83,100
93888,note_on,,,,,64,0,14,,,,,5,,62,100
93980,note_off,,,,,92,0,8,,,,,0,,83,100
93984,note_on,,,,,4,0,8,,,,,0,,84,100
94016,note_off,,,,,128,0,11,,,,,3,,62,100
94016,note_off,,,,,128,0,12,,,,,4,,50,100
94016,note_off,,,,,128,0,13,,,,,5,,69,100
94016,note_off,,,,,0,0,13,,,,,5,,72,100
94016,note_off,,,,,128,0,14,,,,,5,,62,100
94048,note_off,,,,,64,0,8,,,,,0,,84,100
94080,note_on,,,,,32,0,8,,,,,0,,86,100
94080,note_on,,,,,64,0,12,,,,,4,,50,85
94080,note_on,,,,,64,0,13,,,,,5,,69,100
94080,note_on,,,,,0,0,13,,,,,5,,72,100
94080,note_on,,,,,64,0,11,,,,,3,,62,85
94080,note_on,,,,,64,0,14,,,,,5,,62,100
94172,note_off,,,,,92,0,8,,,,,0,,86,100
94176,note_on,,,,,4,0,8,,,,,0,,84,100
94208,note_off,,,,,128,0,12,,,,,4,,50,100
94208,note_off,,,,,0,0,13,,,,,5,,72,100
94208,note_off,,,,,128,0,13,,,,,5,,69,100
94208,note_off,,,,,128,0,14,,,,,5,,62,100
94208,note_off,,,,,128,0,11,,,,,3,,62,100
94240,note_off,,,,,64,0,8,,,,,0,,84,100
94272,note_on,,,,,64,0,12,,,,,4,,50,85
94272,note_on,,,,,64,0,14,,,,,5,,62,100
94272,note_on,,,,,32,0,8,,,,,0,,83,100
94272,note_on,,,,,64,0,11,,,,,3,,62,85
94272,note_on,,,,,64,0,13,,,,,5,,69,100
94272,note_on,,,,,0,0,13,,,,,5,,72,100
94364,note_off,,,,,92,0,8,,,,,0,,83,100
94368,note_on,,,,,4,0,8,,,,,0,,81,100
94400,note_off,,,,,0,0,13,,,,,5,,72,100
94400,note_off,,,,,128,0,14,,,,,5,,62,100
94400,note_off,,,,,128,0,13,,,,,5,,69,100
94400,note_off,,,,,128,0,12,,,,,4,,50,100
94400,note_off,,,,,128,0,11,,,,,3,,62,100
94432,note_off,,,,,64,0,8,,,,,0,,81,100
94464,note_on,,,,,0,0,13,,,,,5,,65,100
94464,note_on,,,,,64,0,14,,,,,5,,55,100
94464,note_on,,,,,64,0,12,,,,,4,,43,85
94464,note_on,,,,,64,0,13,,,,,5,,71,100
94464,note_on,,,,,32,0,8,,,,,0,,83,100
94464,note_on,,,,,64,0,11,,,,,3,,55,85
94528,note_off,,,,,64,0,8,,,,,0,,83,100
94560,note_on,,,,,32,0,8,,,,,0,,84,100
94592,note_off,,,,,128,0,13,,,,,5,,71,100
94592,note_off,,,,,128,0,12,,,,,4,,43,100
94592,note_off,,,,,128,0,11,,,,,3,,55,100
94592,note_off,,,,,0,0,13,,,,,5,,65,100
94592,note_off,,,,,128,0,14,,,,,5,,55,100
94624,note_off,,,,,64,0,8,,,,,0,,84,100
94656,note_on,,,,,32,0,8,,,,,0,,83,100
94656,note_on,,,,,64,0,13,,,,,5,,65,100
94656,note_on,,,,,64,0,11,,,,,3,,43,85
94656,note_on,,,,,0,0,13,,,,,5,,62,100
94656,note_on,,,,,64,0,12,,,,,4,,43,85
94656,note_on,,,,,64,0,14,,,,,5,,43,100
94720,note_off,,,,,64,0,8,,,,,0,,83,100
94752,note_on,,,,,32,0,8,,,,,0,,84,100
94784,note_off,,,,,128,0,13,,,,,5,,65,100
94784,note_off,,,,,128,0,11,,,,,3,,43,100
94784,note_off,,,,,0,0,13,,,,,5,,62,100
94784,note_off,,,,,128,0,12,,,,,4,,43,100
94784,note_off,,,,,128,0,14,,,,,5,,43,100
94816,note_off,,,,,64,0,8,,,,,0,,84,100
94848,note_on,,,,,32,0,8,,,,,0,,83,100
94912,note_off,,,,,64,0,8,,,,,0,,83,100
94944,note_on,,,,,32,0,8,,,,,0,,84,100
95008,note_off,,,,,64,0,8,,,,,0,,84,100
95040,note_on,,,,,32,0,8,,,,,0,,83,100
95040,note_on,,,,,256,0,13,,,,,5,,65,100
95040,note_on,,,,,256,0,14,,,,,5,,55,100
95040,note_on,,,,,256,0,11,,,,,3,,55,85
95040,note_on,,,,,256,0,12,,,,,4,,43,85
95040,note_on,,,,,0,0,13,,,,,5,,71,100
95104,note_off,,,,,64,0,8,,,,,0,,83,100
95136,note_on,,,,,32,0,8,,,,,0,,84,100
95168,note_off,,,,,128,0,13,,,,,5,,65,100
95168,note_off,,,,,128,0,14,,,,,5,,55,100
95168,note_off,,,,,128,0,11,,,,,3,,55,100
95168,note_off,,,,,128,0,12,,,,,4,,43,100
95168,note_off,,,,,0,0,13,,,,,5,,71,100
95200,note_off,,,,,64,0,8,,,,,0,,84,100
95232,note_on,,,,,64,0,11,,,,,3,,60,85
95232,note_on,,,,,64,0,13,,,,,5,,67,100
95232,note_on,,,,,0,0,13,,,,,5,,71,100
95232,note_on,,,,,32,0,8,,,,,0,,83,100
95232,note_on,,,,,64,0,14,,,,,5,,60,100
95232,note_on,,,,,64,0,12,,,,,4,,48,85
95360,note_off,,,,,128,0,14,,,,,5,,60,100
95360,note_off,,,,,128,0,11,,,,,3,,60,100
95360,note_off,,,,,0,0,13,,,,,5,,71,100
95360,note_off,,,,,128,0,12,,,,,4,,48,100
95360,note_off,,,,,128,0,13,,,,,5,,67,100
95360,note_off,,,,,128,0,8,,,,,0,,83,100
95424,note_on,,,,,64,0,14,,,,,5,,60,100
95424,note_on,,,,,64,0,13,,,,,5,,67,100
95424,note_on,,,,,64,0,12,,,,,4,,48,85
95424,note_on,,,,,0,0,13,,,,,5,,71,100
95424,note_on,,,,,64,0,11,,,,,3,,60,85
95424,note_on,,,,,64,0,8,,,,,0,,81,100
95516,note_off,,,,,92,0,8,,,,,0,,81,100
95520,note_on,,,,,4,0,8,,,,,0,,83,100
95552,note_off,,,,,128,0,14,,,,,5,,60,100
95552,note_off,,,,,128,0,11,,,,,3,,60,100
95552,note_off,,,,,128,0,13,,,,,5,,67,100
95552,note_off,,,,,0,0,13,,,,,5,,71,100
95552,note_off,,,,,128,0,12,,,,,4,,48,100
95584,note_off,,,,,64,0,8,,,,,0,,83,100
95616,note_on,,,,,0,0,13,,,,,5,,71,100
95616,note_on,,,,,64,0,12,,,,,4,,48,85
95616,note_on,,,,,64,0,13,,,,,5,,67,100
95616,note_on,,,,,64,0,11,,,,,3,,60,85
95616,note_on,,,,,32,0,8,,,,,0,,84,100
95616,note_on,,,,,64,0,14,,,,,5,,60,100
95708,note_off,,,,,92,0,8,,,,,0,,84,100
95712,note_on,,,,,4,0,8,,,,,0,,83,100
95744,note_off,,,,,128,0,12,,,,,4,,48,100
95744,note_off,,,,,0,0,13,,,,,5,,71,100
95744,note_off,,,,,128,0,14,,,,,5,,60,100
95744,note_off,,,,,128,0,11,,,,,3,,60,100
95744,note_off,,,,,128,0,13,,,,,5,,67,100
95776,note_off,,,,,64,0,8,,,,,0,,83,100
95808,note_on,,,,,0,0,13,,,,,5,,71,100
95808,note_on,,,,,64,0,11,,,,,3,,60,85
95808,note_on,,,,,32,0,8,,,,,0,,81,100
95808,note_on,,,,,64,0,12,,,,,4,,48,85
95808,note_on,,,,,64,0,14,,,,,5,,60,100
95808,note_on,,,,,64,0,13,,,,,5,,67,100
95900,note_off,,,,,92,0,8,,,,,0,,81,100
95904,note_on,,,,,4,0,8,,,,,0,,80,100
95936,note_off,,,,,0,0,13,,,,,5,,71,100
95936,note_off,,,,,128,0,13,,,,,5,,67,100
95936,note_off,,,,,128,0,11,,,,,3,,60,100
95936,note_off,,,,,128,0,12,,,,,4,,48,100
95936,note_off,,,,,128,0,14,,,,,5,,60,100
95968,note_off,,,,,64,0,8,,,,,0,,80,100
96000,note_on,,,,,64,0,12,,,,,4,,41,85
96000,note_on,,,,,32,0,8,,,,,0,,81,100
96000,note_on,,,,,64,0,14,,,,,5,,53,100
96000,note_on,,,,,0,0,13,,,,,5,,64,100
96000,note_on,,,,,64,0,13,,,,,5,,69,100
96000,note_on,,,,,64,0,11,,,,,3,,53,85
96064,note_off,,,,,64,0,8,,,,,0,,81,100
96096,note_on,,,,,32,0,8,,,,,0,,83,100
96128,note_off,,,,,0,0,13,,,,,5,,64,100
96128,note_off,,,,,128,0,13,,,,,5,,69,100
96128,note_off,,,,,128,0,14,,,,,5,,53,100
96128,note_off,,,,,128,0,12,,,,,4,,41,100
96128,note_off,,,,,128,0,11,,,,,3,,53,100
96160,note_off,,,,,64,0,8,,,,,0,,83,100
96192,note_on,,,,,64,0,13,,,,,5,,60,100
96192,note_on,,,,,64,0,11,,,,,3,,41,85
96192,note_on,,,,,32,0,8,,,,,0,,81,100
96192,note_on,,,,,0,0,13,,,,,5,,64,100
96192,note_on,,,,,64,0,12,,,,,4,,41,85
96192,note_on,,,,,64,0,14,,,,,5,,41,100
96256,note_off,,,,,64,0,8,,,,,0,,81,100
96288,note_on,,,,,32,0,8,,,,,0,,83,100
96320,note_off,,,,,128,0,13,,,,,5,,60,100
96320,note_off,,,,,0,0,13,,,,,5,,64,100
96320,note_off,,,,,128,0,11,,,,,3,,41,100
96320,note_off,,,,,128,0,14,,,,,5,,41,100
96320,note_off,,,,,128,0,12,,,,,4,,41,100
96352,note_off,,,,,64,0,8,,,,,0,,83,100
96384,note_on,,,,,32,0,8,,,,,0,,81,100
96448,note_off,,,,,64,0,8,,,,,0,,81,100
96480,note_on,,,,,32,0,8,,,,,0,,83,100
96544,note_off,,,,,64,0,8,,,,,0,,83,100
96576,note_on,,,,,256,0,11,,,,,3,,53,85
96576,note_on,,,,,256,0,14,,,,,5,,53,100
96576,note_on,,,,,32,0,8,,,,,0,,81,100
96576,note_on,,,,,256,0,12,,,,,4,,41,85
96576,note_on,,,,,256,0,13,,,,,5,,62,100
96576,note_on,,,,,0,0,13,,,,,5,,69,100
96640,note_off,,,,,64,0,8,,,,,0,,81,100
96672,note_on,,,,,32,0,8,,,,,0,,83,100
96704,note_off,,,,,128,0,13,,,,,5,,62,100
96704,note_off,,,,,128,0,12,,,,,4,,41,100
96704,note_off,,,,,128,0,11,,,,,3,,53,100
96704,note_off,,,,,128,0,14,,,,,5,,53,100
96704,note_off,,,,,0,0,13,,,,,5,,69,100
96736,note_off,,,,,64,0,8,,,,,0,,83,100
96768,note_on,,,,,64,0,13,,,,,5,,64,100
96768,note_on,,,,,0,0,13,,,,,5,,68,100
96768,note_on,,,,,64,0,12,,,,,4,,40,85
96768,note_on,,,,,64,0,14,,,,,5,,52,100
96768,note_on,,,,,32,0,8,,,,,0,,80,100
96768,note_on,,,,,4352,0,10,,,,,2,,71,85
96768,note_on,,,,,4352,0,9,,,,,1,,80,85
96768,note_on,,,,,64,0,11,,,,,3,,52,85
96896,note_off,,,,,128,0,10,,,,,2,,71,100
96896,note_off,,,,,128,0,8,,,,,0,,80,100
96896,note_off,,,,,128,0,12,,,,,4,,40,100
96896,note_off,,,,,128,0,11,,,,,3,,52,100
96896,note_off,,,,,128,0,9,,,,,1,,80,100
96896,note_off,,,,,128,0,13,,,,,5,,64,100
96896,note_off,,,,,0,0,13,,,,,5,,68,100
96896,note_off,,,,,128,0,14,,,,,5,,52,100
96960,note_on,,,,,64,0,14,,,,,5,,52,100
96960,note_on,,,,,64,0,10,,,,,2,,69,85
96960,note_on,,,,,64,0,9,,,,,1,,78,85
96960,note_on,,,,,64,0,13,,,,,5,,64,100
96960,note_on,,,,,0,0,13,,,,,5,,68,100
96960,note_on,,,,,64,0,11,,,,,3,,52,85
96960,note_on,,,,,64,0,12,,,,,4,,40,85
97024,note_off,,,,,64,0,10,,,,,2,,69,100
97024,note_off,,,,,64,0,9,,,,,1,,78,100
97056,note_on,,,,,32,0,10,,,,,2,,71,85
97056,note_on,,,,,32,0,9,,,,,1,,80,85
97088,note_off,,,,,128,0,12,,,,,4,,40,100
97088,note_off,,,,,128,0,14,,,,,5,,52,100
97088,note_off,,,,,0,0,13,,,,,5,,68,100
97088,note_off,,,,,128,0,11,,,,,3,,52,100
97088,note_off,,,,,128,0,13,,,,,5,,64,100
97120,note_off,,,,,64,0,10,,,,,2,,71,100
97120,note_off,,,,,64,0,9,,,,,1,,80,100
97152,note_on,,,,,64,0,14,,,,,5,,45,100
97152,note_on,,,,,32,0,10,,,,,2,,72,85
97152,note_on,,,,,32,0,9,,,,,1,,81,85
97152,note_on,,,,,64,0,12,,,,,4,,33,85
97152,note_on,,,,,0,0,13,,,,,5,,64,100
97152,note_on,,,,,0,0,13,,,,,5,,60,100
97152,note_on,,,,,64,0,13,,,,,5,,69,100
97152,note_on,,,,,64,0,11,,,,,3,,45,85
97280,note_off,,,,,128,0,11,,,,,3,,45,100
97280,note_off,,,,,128,0,12,,,,,4,,33,100
97280,note_off,,,,,0,0,13,,,,,5,,60,100
97280,note_off,,,,,128,0,14,,,,,5,,45,100
97280,note_off,,,,,0,0,13,,,,,5,,64,100
97280,note_off,,,,,128,0,13,,,,,5,,69,100
97280,note_off,,,,,128,0,10,,,,,2,,72,100
97280,note_off,,,,,128,0,9,,,,,1,,81,100
97344,note_on,,,,,64,0,11,,,,,3,,45,85
97344,note_on,,,,,64,0,12,,,,,4,,33,85
97344,note_on,,,,,64,0,14,,,,,5,,45,100
97344,note_on,,,,,64,0,10,,,,,2,,74,85
97344,note_on,,,,,64,0,9,,,,,1,,83,85
97344,note_on,,,,,64,0,13,,,,,5,,69,100
97344,note_on,,,,,0,0,13,,,,,5,,60,100
97344,note_on,,,,,0,0,13,,,,,5,,64,100
97408,note_off,,,,,64,0,10,,,,,2,,74,100
97408,note_off,,,,,64,0,9,,,,,1,,83,100
97440,note_on,,,,,32,0,10,,,,,2,,72,85
97440,note_on,,,,,32,0,9,,,,,1,,81,85
97472,note_off,,,,,0,0,13,,,,,5,,64,100
97472,note_off,,,,,0,0,13,,,,,5,,60,100
97472,note_off,,,,,128,0,13,,,,,5,,69,100
97472,note_off,,,,,128,0,12,,,,,4,,33,100
97472,note_off,,,,,128,0,11,,,,,3,,45,100
97472,note_off,,,,,128,0,14,,,,,5,,45,100
97504,note_off,,,,,64,0,9,,,,,1,,81,100
97504,note_off,,,,,64,0,10,,,,,2,,72,100
97536,note_on,,,,,0,0,13,,,,,5,,71,100
97536,note_on,,,,,32,0,9,,,,,1,,80,85
97536,note_on,,,,,64,0,13,,,,,5,,64,100
97536,note_on,,,,,0,0,13,,,,,5,,68,100
97536,note_on,,,,,64,0,14,,,,,5,,52,100
97536,note_on,,,,,64,0,12,,,,,4,,40,85
97536,note_on,,,,,64,0,11,,,,,3,,52,85
97536,note_on,,,,,32,0,10,,,,,2,,71,85
97664,note_off,,,,,0,0,13,,,,,5,,68,100
97664,note_off,,,,,128,0,12,,,,,4,,40,100
97664,note_off,,,,,128,0,10,,,,,2,,71,100
97664,note_off,,,,,128,0,13,,,,,5,,64,100
97664,note_off,,,,,0,0,13,,,,,5,,71,100
97664,note_off,,,,,128,0,9,,,,,1,,80,100
97664,note_off,,,,,128,0,11,,,,,3,,52,100
97664,note_off,,,,,128,0,14,,,,,5,,52,100
97728,note_on,,,,,64,0,10,,,,,2,,69,85
97728,note_on,,,,,0,0,13,,,,,5,,71,100
97728,note_on,,,,,0,0,13,,,,,5,,68,100
97728,note_on,,,,,64,0,13,,,,,5,,64,100
97728,note_on,,,,,64,0,14,,,,,5,,52,100
97728,note_on,,,,,64,0,9,,,,,1,,78,85
97728,note_on,,,,,64,0,12,,,,,4,,40,85
97728,note_on,,,,,64,0,11,,,,,3,,52,85
97792,note_off,,,,,64,0,9,,,,,1,,78,100
97792,note_off,,,,,64,0,10,,,,,2,,69,100
97824,note_on,,,,,32,0,10,,,,,2,,71,85
97824,note_on,,,,,32,0,9,,,,,1,,80,85
97856,note_off,,,,,128,0,11,,,,,3,,52,100
97856,note_off,,,,,0,0,13,,,,,5,,68,100
97856,note_off,,,,,128,0,12,,,,,4,,40,100
97856,note_off,,,,,128,0,14,,,,,5,,52,100
97856,note_off,,,,,0,0,13,,,,,5,,71,100
97856,note_off,,,,,128,0,13,,,,,5,,64,100
97888,note_off,,,,,64,0,10,,,,,2,,71,100
97888,note_off,,,,,64,0,9,,,,,1,,80,100
97920,note_on,,,,,64,0,12,,,,,4,,33,85
97920,note_on,,,,,64,0,11,,,,,3,,45,85
97920,note_on,,,,,64,0,14,,,,,5,,45,100
97920,note_on,,,,,64,0,13,,,,,5,,69,100
97920,note_on,,,,,32,0,9,,,,,1,,81,85
97920,note_on,,,,,32,0,10,,,,,2,,72,85
97920,note_on,,,,,0,0,13,,,,,5,,64,100
97920,note_on,,,,,0,0,13,,,,,5,,60,100
98048,note_off,,,,,128,0,10,,,,,2,,72,100
98048,note_off,,,,,0,0,13,,,,,5,,60,100
98048,note_off,,,,,128,0,11,,,,,3,,45,100
98048,note_off,,,,,128,0,9,,,,,1,,81,100
98048,note_off,,,,,128,0,13,,,,,5,,69,100
98048,note_off,,,,,128,0,14,,,,,5,,45,100
98048,note_off,,,,,128,0,12,,,,,4,,33,100
98048,note_off,,,,,0,0,13,,,,,5,,64,100
98112,note_on,,,,,64,0,12,,,,,4,,33,85
98112,note_on,,,,,64,0,13,,,,,5,,69,100
98112,note_on,,,,,0,0,13,,,,,5,,60,100
98112,note_on,,,,,0,0,13,,,,,5,,64,100
98112,note_on,,,,,64,0,14,,,,,5,,45,100
98112,note_on,,,,,64,0,10,,,,,2,,74,85
98112,note_on,,,,,64,0,11,,,,,3,,45,85
98112,note_on,,,,,64,0,9,,,,,1,,83,85
98176,note_off,,,,,64,0,10,,,,,2,,74,100
98176,note_off,,,,,64,0,9,,,,,1,,83,100
98208,note_on,,,,,32,0,9,,,,,1,,81,85
98208,note_on,,,,,32,0,10,,,,,2,,72,85
98240,note_off,,,,,128,0,12,,,,,4,,33,100
98240,note_off,,,,,0,0,13,,,,,5,,60,100
98240,note_off,,,,,128,0,11,,,,,3,,45,100
98240,note_off,,,,,0,0,13,,,,,5,,64,100
98240,note_off,,,,,128,0,14,,,,,5,,45,100
98240,note_off,,,,,128,0,13,,,,,5,,69,100
98272,note_off,,,,,64,0,10,,,,,2,,72,100
98272,note_off,,,,,64,0,9,,,,,1,,81,100
98304,note_on,,,,,64,0,11,,,,,3,,52,85
98304,note_on,,,,,64,0,12,,,,,4,,40,85
98304,note_on,,,,,64,0,14,,,,,5,,52,100
98304,note_on,,,,,64,0,13,,,,,5,,64,100
98304,note_on,,,,,32,0,10,,,,,2,,71,85
98304,note_on,,,,,0,0,13,,,,,5,,68,100
98304,note_on,,,,,32,0,9,,,,,1,,80,85
98304,note_on,,,,,0,0,13,,,,,5,,71,100
98432,note_off,,,,,128,0,10,,,,,2,,71,100
98432,note_off,,,,,128,0,9,,,,,1,,80,100
98432,note_off,,,,,128,0,13,,,,,5,,71,100
98496,note_on,,,,,64,0,10,,,,,2,,72,85
98496,note_on,,,,,64,0,9,,,,,1,,78,85
98496,note_on,,,,,64,0,13,,,,,5,,72,100
98560,note_off,,,,,64,0,13,,,,,5,,64,100
98560,note_off,,,,,0,0,13,,,,,5,,68,100
98560,note_off,,,,,64,0,9,,,,,1,,78,100
98560,note_off,,,,,256,0,14,,,,,5,,52,100
98560,note_off,,,,,256,0,12,,,,,4,,40,100
98560,note_off,,,,,256,0,11,,,,,3,,52,100
98592,note_on,,,,,32,0,9,,,,,1,,76,85
98624,note_off,,,,,128,0,10,,,,,2,,72,100
98624,note_off,,,,,64,0,13,,,,,5,,72,100
98656,note_off,,,,,64,0,9,,,,,1,,76,100
98688,note_on,,,,,64,0,10,,,,,2,,69,85
98688,note_on,,,,,32,0,9,,,,,1,,77,85
98688,note_on,,,,,128,0,11,,,,,3,,50,85
98688,note_on,,,,,128,0,14,,,,,5,,50,100
98688,note_on,,,,,0,0,13,,,,,5,,65,100
98688,note_on,,,,,128,0,12,,,,,4,,38,85
98688,note_on,,,,,64,0,13,,,,,5,,69,100
98816,note_off,,,,,128,0,9,,,,,1,,77,100
98816,note_off,,,,,128,0,13,,,,,5,,69,100
98816,note_off,,,,,128,0,10,,,,,2,,69,100
98880,note_on,,,,,64,0,9,,,,,1,,76,85
98880,note_on,,,,,64,0,13,,,,,5,,71,100
98880,note_on,,,,,64,0,10,,,,,2,,71,85
98944,note_off,,,,,256,0,12,,,,,4,,38,100
98944,note_off,,,,,256,0,14,,,,,5,,50,100
98944,note_off,,,,,64,0,13,,,,,5,,65,100
98944,note_off,,,,,64,0,9,,,,,1,,76,100
98944,note_off,,,,,256,0,11,,,,,3,,50,100
98976,note_on,,,,,32,0,9,,,,,1,,74,85
99008,note_off,,,,,64,0,13,,,,,5,,71,100
99008,note_off,,,,,128,0,10,,,,,2,,71,100
99040,note_off,,,,,64,0,9,,,,,1,,74,100
99072,note_on,,,,,128,0,12,,,,,4,,33,85
99072,note_on,,,,,64,0,13,,,,,5,,60,100
99072,note_on,,,,,32,0,9,,,,,1,,76,85
99072,note_on,,,,,128,0,11,,,,,3,,45,85
99072,note_on,,,,,0,0,13,,,,,5,,69,100
99072,note_on,,,,,128,0,14,,,,,5,,45,100
99072,note_on,,,,,2176,0,8,,,,,0,,76,100
99072,note_on,,,,,64,0,10,,,,,2,,72,85
99136,note_off,,,,,64,0,8,,,,,0,,76,100
99168,note_on,,,,,32,0,8,,,,,0,,81,100
99200,note_off,,,,,128,0,14,,,,,5,,45,100
99200,note_off,,,,,0,0,13,,,,,5,,69,100
99200,note_off,,,,,128,0,12,,,,,4,,33,100
99200,note_off,,,,,128,0,11,,,,,3,,45,100
99200,note_off,,,,,128,0,13,,,,,5,,60,100
99232,note_off,,,,,64,0,8,,,,,0,,81,100
99264,note_on,,,,,64,0,14,,,,,5,,47,100
99264,note_on,,,,,32,0,8,,,,,0,,80,100
99264,note_on,,,,,64,0,13,,,,,5,,62,100
99264,note_on,,,,,64,0,11,,,,,3,,47,85
99264,note_on,,,,,64,0,12,,,,,4,,35,85
99328,note_off,,,,,256,0,10,,,,,2,,72,100
99328,note_off,,,,,256,0,9,,,,,1,,76,100
99328,note_off,,,,,64,0,8,,,,,0,,80,100
99360,note_on,,,,,32,0,8,,,,,0,,81,100
99392,note_off,,,,,128,0,13,,,,,5,,62,100
99392,note_off,,,,,128,0,12,,,,,4,,35,100
99392,note_off,,,,,128,0,14,,,,,5,,47,100
99392,note_off,,,,,128,0,11,,,,,3,,47,100
99424,note_off,,,,,64,0,8,,,,,0,,81,100
99456,note_on,,,,,64,0,14,,,,,5,,48,100
99456,note_on,,,,,64,0,11,,,,,3,,48,85
99456,note_on,,,,,64,0,13,,,,,5,,64,100
99456,note_on,,,,,64,0,12,,,,,4,,36,85
99456,note_on,,,,,32,0,8,,,,,0,,76,100
99584,note_off,,,,,128,0,8,,,,,0,,76,100
99584,note_off,,,,,128,0,11,,,,,3,,48,100
99584,note_off,,,,,128,0,13,,,,,5,,64,100
99584,note_off,,,,,128,0,12,,,,,4,,36,100
99584,note_off,,,,,128,0,14,,,,,5,,48,100
99648,note_on,,,,,64,0,12,,,,,4,,44,85
99648,note_on,,,,,0,0,13,,,,,5,,65,100
99648,note_on,,,,,64,0,11,,,,,3,,44,85
99648,note_on,,,,,64,0,13,,,,,5,,62,100
99648,note_on,,,,,64,0,8,,,,,0,,77,100
99648,note_on,,,,,64,0,14,,,,,5,,44,100
99776,note_off,,,,,0,0,13,,,,,5,,65,100
99776,note_off,,,,,128,0,11,,,,,3,,44,100
99776,note_off,,,,,128,0,14,,,,,5,,44,100
99776,note_off,,,,,128,0,12,,,,,4,,44,100
99776,note_off,,,,,128,0,13,,,,,5,,62,100
99776,note_off,,,,,128,0,8,,,,,0,,77,100
99840,note_on,,,,,64,0,12,,,,,4,,45,70
99840,note_on,,,,,64,0,8,,,,,0,,76,85
99840,note_on,,,,,64,0,13,,,,,5,,60,100
99840,note_on,,,,,64,0,11,,,,,3,,45,70
99840,note_on,,,,,64,0,14,,,,,5,,45,100
99840,note_on,,,,,0,0,13,,,,,5,,64,100
99904,note_off,,,,,64,0,8,,,,,0,,76,100
99936,note_on,,,,,32,0,8,,,,,0,,81,85
99968,note_off,,,,,128,0,11,,,,,3,,45,100
99968,note_off,,,,,0,0,13,,,,,5,,64,100
99968,note_off,,,,,128,0,12,,,,,4,,45,100
99968,note_off,,,,,128,0,13,,,,,5,,60,100
99968,note_off,,,,,128,0,14,,,,,5,,45,100
100000,note_off,,,,,64,0,8,,,,,0,,81,100
100032,note_on,,,,,64,0,14,,,,,5,,47,100
100032,note_on,,,,,64,0,11,,,,,3,,47,70
100032,note_on,,,,,64,0,13,,,,,5,,62,100
100032,note_on,,,,,64,0,12,,,,,4,,35,70
100032,note_on,,,,,32,0,8,,,,,0,,80,85
100096,note_off,,,,,64,0,8,,,,,0,,80,100
100128,note_on,,,,,32,0,8,,,,,0,,81,85
100160,note_off,,,,,128,0,13,,,,,5,,62,100
100160,note_off,,,,,128,0,14,,,,,5,,47,100
100160,note_off,,,,,128,0,12,,,,,4,,35,100
100160,note_off,,,,,128,0,11,,,,,3,,47,100
100192,note_off,,,,,64,0,8,,,,,0,,81,100
100224,note_on,,,,,64,0,13,,,,,5,,64,100
100224,note_on,,,,,64,0,12,,,,,4,,36,70
100224,note_on,,,,,64,0,11,,,,,3,,48,70
100224,note_on,,,,,64,0,14,,,,,5,,48,100
100224,note_on,,,,,32,0,8,,,,,0,,76,85
100352,note_off,,,,,128,0,13,,,,,5,,64,100
100352,note_off,,,,,128,0,11,,,,,3,,48,100
100352,note_off,,,,,128,0,12,,,,,4,,36,100
100352,note_off,,,,,128,0,8,,,,,0,,76,100
100352,note_off,,,,,128,0,14,,,,,5,,48,100
100416,note_on,,,,,64,0,12,,,,,4,,44,70
100416,note_on,,,,,0,0,13,,,,,5,,65,100
100416,note_on,,,,,64,0,13,,,,,5,,62,100
100416,note_on,,,,,64,0,14,,,,,5,,44,100
100416,note_on,,,,,64,0,11,,,,,3,,44,70
100416,note_on,,,,,64,0,8,,,,,0,,77,85
100544,note_off,,,,,128,0,13,,,,,5,,62,100
100544,note_off,,,,,128,0,8,,,,,0,,77,100
100544,note_off,,,,,128,0,14,,,,,5,,44,100
100544,note_off,,,,,128,0,11,,,,,3,,44,100
100544,note_off,,,,,128,0,12,,,,,4,,44,100
100544,note_off,,,,,0,0,13,,,,,5,,65,100
100608,note_on,,,,,64,0,14,,,,,5,,45,100
100608,note_on,,,,,64,0,12,,,,,4,,45,85
100608,note_on,,,,,64,0,11,,,,,3,,45,85
100608,note_on,,,,,64,0,8,,,,,0,,76,85
100608,note_on,,,,,1280,0,9,,,,,1,,76,85
100608,note_on,,,,,0,0,13,,,,,5,,64,100
100608,note_on,,,,,1280,0,10,,,,,2,,72,85
100608,note_on,,,,,64,0,13,,,,,5,,60,100
100736,note_off,,,,,128,0,8,,,,,0,,76,100
100736,note_off,,,,,128,0,9,,,,,1,,76,100
100736,note_off,,,,,128,0,10,,,,,2,,72,100
100800,note_on,,,,,64,0,9,,,,,1,,74,85
100800,note_on,,,,,64,0,10,,,,,2,,71,85
100864,note_off,,,,,256,0,13,,,,,5,,60,100
100864,note_off,,,,,64,0,10,,,,,2,,71,100
100864,note_off,,,,,256,0,14,,,,,5,,45,100
100864,note_off,,,,,0,0,13,,,,,5,,64,100
100864,note_off,,,,,256,0,12,,,,,4,,45,100
100864,note_off,,,,,256,0,11,,,,,3,,45,100
100864,note_off,,,,,64,0,9,,,,,1,,74,100
100896,note_on,,,,,32,0,10,,,,,2,,72,85
100896,note_on,,,,,32,0,9,,,,,1,,76,85
100960,note_off,,,,,64,0,10,,,,,2,,72,100
100960,note_off,,,,,64,0,9,,,,,1,,76,100
100992,note_on,,,,,32,0,10,,,,,2,,74,85
100992,note_on,,,,,128,0,13,,,,,5,,62,100
100992,note_on,,,,,128,0,14,,,,,5,,44,100
100992,note_on,,,,,0,0,13,,,,,5,,65,100
100992,note_on,,,,,32,0,9,,,,,1,,77,85
100992,note_on,,,,,128,0,12,,,,,4,,44,85
100992,note_on,,,,,128,0,11,,,,,3,,44,85
101120,note_off,,,,,128,0,10,,,,,2,,74,100
101120,note_off,,,,,128,0,9,,,,,1,,77,100
101184,note_on,,,,,64,0,9,,,,,1,,77,85
101184,note_on,,,,,64,0,10,,,,,2,,74,85
101248,note_off,,,,,256,0,12,,,,,4,,44,100
101248,note_off,,,,,256,0,14,,,,,5,,44,100
101248,note_off,,,,,256,0,13,,,,,5,,62,100
101248,note_off,,,,,256,0,11,,,,,3,,44,100
101248,note_off,,,,,0,0,13,,,,,5,,65,100
101312,note_off,,,,,128,0,9,,,,,1,,77,100
101312,note_off,,,,,128,0,10,,,,,2,,74,100
101376,note_on,,,,,128,0,13,,,,,5,,60,100
101376,note_on,,,,,64,0,10,,,,,2,,72,85
101376,note_on,,,,,128,0,14,,,,,5,,45,100
101376,note_on,,,,,128,0,12,,,,,4,,45,85
101376,note_on,,,,,64,0,9,,,,,1,,76,85
101376,note_on,,,,,0,0,13,,,,,5,,64,100
101376,note_on,,,,,128,0,11,,,,,3,,45,85
101504,note_off,,,,,128,0,9,,,,,1,,76,100
101504,note_off,,,,,128,0,10,,,,,2,,72,100
101568,note_on,,,,,64,0,9,,,,,1,,74,85
101568,note_on,,,,,64,0,10,,,,,2,,71,85
101632,note_off,,,,,64,0,10,,,,,2,,71,100
101632,note_off,,,,,64,0,9,,,,,1,,74,100
101632,note_off,,,,,256,0,11,,,,,3,,45,100
101632,note_off,,,,,256,0,12,,,,,4,,45,100
101632,note_off,,,,,256,0,13,,,,,5,,60,100
101632,note_off,,,,,0,0,13,,,,,5,,64,100
101632,note_off,,,,,256,0,14,,,,,5,,45,100
101664,note_on,,,,,32,0,9,,,,,1,,76,85
101664,note_on,,,,,32,0,10,,,,,2,,72,85
101728,note_off,,,,,64,0,10,,,,,2,,72,100
101728,note_off,,,,,64,0,9,,,,,1,,76,100
101760,note_on,,,,,32,0,10,,,,,2,,74,85
101760,note_on,,,,,128,0,14,,,,,5,,44,100
101760,note_on,,,,,128,0,11,,,,,3,,44,85
101760,note_on,,,,,128,0,12,,,,,4,,44,85
101760,note_on,,,,,0,0,13,,,,,5,,65,100
101760,note_on,,,,,32,0,9,,,,,1,,77,85
101760,note_on,,,,,128,0,13,,,,,5,,62,100
101888,note_off,,,,,128,0,9,,,,,1,,77,100
101888,note_off,,,,,128,0,10,,,,,2,,74,100
101952,note_on,,,,,64,0,10,,,,,2,,74,85
101952,note_on,,,,,64,0,9,,,,,1,,77,85
102016,note_off,,,,,256,0,12,,,,,4,,44,100
102016,note_off,,,,,0,0,13,,,,,5,,65,100
102016,note_off,,,,,256,0,13,,,,,5,,62,100
102016,note_off,,,,,256,0,11,,,,,3,,44,100
102016,note_off,,,,,256,0,14,,,,,5,,44,100
102080,note_off,,,,,128,0,10,,,,,2,,74,100
102080,note_off,,,,,128,0,9,,,,,1,,77,100
102144,note_on,,,,,128,0,12,,,,,4,,33,85
102144,note_on,,,,,0,0,13,,,,,5,,64,100
102144,note_on,,,,,128,0,11,,,,,3,,45,85
102144,note_on,,,,,128,0,14,,,,,5,,45,100
102144,note_on,,,,,128,0,13,,,,,5,,60,100
102144,note_on,,,,,64,0,9,,,,,1,,76,85
102144,note_on,,,,,64,0,10,,,,,2,,72,85
102144,note_on,,,,,1408,0,8,,,,,0,,76,100
102272,note_off,,,,,128,0,8,,,,,0,,76,100
102336,note_on,,,,,64,0,8,,,,,0,,78,100
102400,note_off,,,,,256,0,14,,,,,5,,45,100
102400,note_off,,,,,256,0,10,,,,,2,,72,100
102400,note_off,,,,,64,0,8,,,,,0,,78,100
102400,note_off,,,,,256,0,11,,,,,3,,45,100
102400,note_off,,,,,256,0,13,,,,,5,,60,100
102400,note_off,,,,,0,0,13,,,,,5,,64,100
102400,note_off,,,,,256,0,9,,,,,1,,76,100
102400,note_off,,,,,256,0,12,,,,,4,,33,100
102432,note_on,,,,,32,0,8,,,,,0,,80,100
102496,note_off,,,,,64,0,8,,,,,0,,80,100
102528,note_on,,,,,32,0,8,,,,,0,,81,100
102656,note_off,,,,,128,0,8,,,,,0,,81,100
102720,note_on,,,,,64,0,8,,,,,0,,81,100
102784,note_off,,,,,64,0,8,,,,,0,,81,100
102816,note_on,,,,,32,0,8,,,,,0,,83,100
102880,note_off,,,,,64,0,8,,,,,0,,83,100
102912,note_on,,,,,32,0,8,,,,,0,,84,100
103040,note_off,,,,,128,0,8,,,,,0,,84,100
103104,note_on,,,,,64,0,8,,,,,0,,84,100
103168,note_off,,,,,64,0,8,,,,,0,,84,100
103200,note_on,,,,,32,0,8,,,,,0,,86,100
103264,note_off,,,,,64,0,8,,,,,0,,86,100
103296,note_on,,,,,32,0,8,,,,,0,,88,100
103488,note_on,,,,,1088,0,9,,,,,1,,76,100
103488,note_on,,,,,1088,0,13,,,,,5,,60,100
103488,note_on,,,,,0,0,13,,,,,5,,64,100
103488,note_on,,,,,1088,0,14,,,,,5,,45,100
103488,note_on,,,,,1088,0,11,,,,,3,,45,100
103488,note_on,,,,,1088,0,10,,,,,2,,72,100
103488,note_on,,,,,1088,0,12,,,,,4,,33,100
103552,note_off,,,,,256,0,8,,,,,0,,88,100
103616,note_off,,,,,128,0,12,,,,,4,,33,100
103616,note_off,,,,,128,0,9,,,,,1,,76,100
103616,note_off,,,,,128,0,11,,,,,3,,45,100
103616,note_off,,,,,0,0,13,,,,,5,,64,100
103616,note_off,,,,,128,0,13,,,,,5,,60,100
103616,note_off,,,,,128,0,14,,,,,5,,45,100
103616,note_off,,,,,128,0,10,,,,,2,,72,100
103680,note_on,,,,,64,0,10,,,,,2,,74,100
103680,note_on,,,,,64,0,12,,,,,4,,38,100
103680,note_on,,,,,64,0,14,,,,,5,,50,100
103680,note_on,,,,,64,0,9,,,,,1,,77,100
103680,note_on,,,,,64,0,11,,,,,3,,50,100
103680,note_on,,,,,0,0,13,,,,,5,,69,100
103680,note_on,,,,,64,0,13,,,,,5,,65,100
103808,note_off,,,,,128,0,13,,,,,5,,65,100
103808,note_off,,,,,128,0,14,,,,,5,,50,100
103808,note_off,,,,,128,0,10,,,,,2,,74,100
103808,note_off,,,,,128,0,12,,,,,4,,38,100
103808,note_off,,,,,128,0,11,,,,,3,,50,100
103808,note_off,,,,,128,0,9,,,,,1,,77,100
103808,note_off,,,,,0,0,13,,,,,5,,69,100
103872,note_on,,,,,64,0,14,,,,,5,,45,100
103872,note_on,,,,,64,0,12,,,,,4,,33,100
103872,note_on,,,,,64,0,13,,,,,5,,60,100
103872,note_on,,,,,0,0,13,,,,,5,,64,100
103872,note_on,,,,,64,0,9,,,,,1,,76,100
103872,note_on,,,,,64,0,11,,,,,3,,45,100
103872,note_on,,,,,64,0,10,,,,,2,,72,100
104000,note_off,,,,,0,0,13,,,,,5,,64,100
104000,note_off,,,,,128,0,11,,,,,3,,45,100
104000,note_off,,,,,128,0,13,,,,,5,,60,100
104000,note_off,,,,,128,0,14,,,,,5,,45,100
104000,note_off,,,,,128,0,10,,,,,2,,72,100
104000,note_off,,,,,128,0,12,,,,,4,,33,100
104000,note_off,,,,,128,0,9,,,,,1,,76,100
104064,note_on,,,,,64,0,9,,,,,1,,81,100
104192,note_off,,,,,128,0,9,,,,,1,,81,100
104256,note_on,,,,,256,0,13,,,,,5,,60,100
104256,note_on,,,,,0,0,13,,,,,5,,64,100
104256,note_on,,,,,256,0,10,,,,,2,,64,100
104256,note_on,,,,,256,0,14,,,,,5,,45,100
104256,note_on,,,,,64,0,9,,,,,1,,72,100
104256,note_on,,,,,256,0,11,,,,,3,,45,100
104256,note_on,,,,,256,0,12,,,,,4,,33,100
104384,note_off,,,,,128,0,11,,,,,3,,45,100
104384,note_off,,,,,128,0,14,,,,,5,,45,100
104384,note_off,,,,,128,0,10,,,,,2,,64,100
104384,note_off,,,,,128,0,13,,,,,5,,60,100
104384,note_off,,,,,128,0,12,,,,,4,,33,100
104384,note_off,,,,,128,0,9,,,,,1,,72,100
104384,note_off,,,,,0,0,13,,,,,5,,64,100
104448,note_on,,,,,64,0,12,,,,,4,,38,100
104448,note_on,,,,,64,0,9,,,,,1,,71,100
104448,note_on,,,,,0,0,13,,,,,5,,69,100
104448,note_on,,,,,64,0,13,,,,,5,,59,100
104448,note_on,,,,,64,0,11,,,,,3,,50,100
104448,note_on,,,,,64,0,14,,,,,5,,50,100
104448,note_on,,,,,64,0,10,,,,,2,,65,100
104576,note_off,,,,,128,0,9,,,,,1,,71,100
104640,note_on,,,,,64,0,9,,,,,1,,81,100
104704,note_off,,,,,256,0,10,,,,,2,,65,100
104704,note_off,,,,,256,0,11,,,,,3,,50,100
104704,note_off,,,,,0,0,13,,,,,5,,69,100
104704,note_off,,,,,256,0,13,,,,,5,,59,100
104704,note_off,,,,,256,0,12,,,,,4,,38,100
104704,note_off,,,,,256,0,14,,,,,5,,50,100
104768,note_off,,,,,128,0,9,,,,,1,,81,100
104832,note_on,,,,,128,0,11,,,,,3,,52,100
104832,note_on,,,,,128,0,13,,,,,5,,59,100
104832,note_on,,,,,0,0,13,,,,,5,,68,100
104832,note_on,,,,,128,0,10,,,,,2,,64,100
104832,note_on,,,,,64,0,9,,,,,1,,71,100
104832,note_on,,,,,128,0,12,,,,,4,,40,100
104832,note_on,,,,,128,0,14,,,,,5,,52,100
104960,note_off,,,,,128,0,9,,,,,1,,71,100
105024,note_on,,,,,64,0,9,,,,,1,,80,100
105088,note_off,,,,,256,0,13,,,,,5,,59,100
105088,note_off,,,,,0,0,13,,,,,5,,68,100
105088,note_off,,,,,256,0,11,,,,,3,,52,100
105088,note_off,,,,,256,0,14,,,,,5,,52,100
105088,note_off,,,,,256,0,10,,,,,2,,64,100
105088,note_off,,,,,256,0,12,,,,,4,,40,100
105152,note_off,,,,,128,0,9,,,,,1,,80,100
105216,note_on,,,,,0,0,13,,,,,5,,69,100
105216,note_on,,,,,128,0,14,,,,,5,,45,100
105216,note_on,,,,,128,0,11,,,,,3,,45,100
105216,note_on,,,,,128,0,12,,,,,4,,33,100
105216,note_on,,,,,64,0,9,,,,,1,,81,100
105216,note_on,,,,,128,0,13,,,,,5,,60,100
105216,note_on,,,,,128,0,10,,,,,2,,60,100
105344,note_off,,,,,128,0,11,,,,,3,,45,100
105344,note_off,,,,,0,0,13,,,,,5,,69,100
105344,note_off,,,,,128,0,13,,,,,5,,60,100
105344,note_off,,,,,128,0,14,,,,,5,,45,100
105344,note_off,,,,,128,0,12,,,,,4,,33,100
105408,note_on,,,,,1856,0,8,,,,,0,,76,100
105408,note_on,,,,,64,0,12,,,,,4,,45,85
105408,note_on,,,,,64,0,11,,,,,3,,57,85
105408,note_on,,,,,64,0,13,,,,,5,,60,100
105408,note_on,,,,,64,0,14,,,,,5,,57,100
105472,note_off,,,,,64,0,11,,,,,3,,57,100
105472,note_off,,,,,256,0,10,,,,,2,,60,100
105472,note_off,,,,,64,0,14,,,,,5,,57,100
105472,note_off,,,,,256,0,9,,,,,1,,81,100
105472,note_off,,,,,64,0,12,,,,,4,,45,100
105472,note_off,,,,,64,0,13,,,,,5,,60,100
105504,note_on,,,,,32,0,14,,,,,5,,59,100
105504,note_on,,,,,32,0,11,,,,,3,,59,85
105504,note_on,,,,,32,0,12,,,,,4,,47,85
105504,note_on,,,,,32,0,13,,,,,5,,62,100
105536,note_off,,,,,128,0,8,,,,,0,,76,100
105568,note_off,,,,,64,0,11,,,,,3,,59,100
105568,note_off,,,,,64,0,12,,,,,4,,47,100
105568,note_off,,,,,64,0,13,,,,,5,,62,100
105568,note_off,,,,,64,0,14,,,,,5,,59,100
105600,note_on,,,,,32,0,14,,,,,5,,60,100
105600,note_on,,,,,32,0,11,,,,,3,,60,85
105600,note_on,,,,,32,0,12,,,,,4,,48,85
105600,note_on,,,,,0,0,13,,,,,5,,64,100
105600,note_on,,,,,32,0,13,,,,,5,,69,100
105600,note_on,,,,,64,0,8,,,,,0,,81,100
105728,note_off,,,,,128,0,14,,,,,5,,60,100
105728,note_off,,,,,128,0,11,,,,,3,,60,100
105728,note_off,,,,,0,0,13,,,,,5,,64,100
105728,note_off,,,,,128,0,12,,,,,4,,48,100
105728,note_off,,,,,128,0,13,,,,,5,,69,100
105728,note_off,,,,,128,0,8,,,,,0,,81,100
105792,note_on,,,,,64,0,8,,,,,0,,81,100
105792,note_on,,,,,64,0,14,,,,,5,,57,100
105792,note_on,,,,,64,0,12,,,,,4,,45,85
105792,note_on,,,,,64,0,11,,,,,3,,57,85
105792,note_on,,,,,64,0,13,,,,,5,,60,100
105792,note_on,,,,,0,0,13,,,,,5,,64,100
105920,note_off,,,,,128,0,12,,,,,4,,45,100
105920,note_off,,,,,128,0,8,,,,,0,,81,100
105920,note_off,,,,,0,0,13,,,,,5,,64,100
105920,note_off,,,,,128,0,11,,,,,3,,57,100
105920,note_off,,,,,128,0,13,,,,,5,,60,100
105920,note_off,,,,,128,0,14,,,,,5,,57,100
105984,note_on,,,,,0,0,13,,,,,5,,71,100
105984,note_on,,,,,64,0,13,,,,,5,,68,100
105984,note_on,,,,,64,0,12,,,,,4,,52,85
105984,note_on,,,,,64,0,14,,,,,5,,64,100
105984,note_on,,,,,64,0,8,,,,,0,,80,100
105984,note_on,,,,,64,0,11,,,,,3,,64,85
106048,note_off,,,,,64,0,8,,,,,0,,80,100
106080,note_on,,,,,32,0,8,,,,,0,,78,100
106112,note_off,,,,,0,0,13,,,,,5,,71,100
106112,note_off,,,,,128,0,12,,,,,4,,52,100
106112,note_off,,,,,128,0,14,,,,,5,,64,100
106112,note_off,,,,,128,0,13,,,,,5,,68,100
106112,note_off,,,,,128,0,11,,,,,3,,64,100
106144,note_off,,,,,64,0,8,,,,,0,,78,100
106176,note_on,,,,,64,0,14,,,,,5,,62,100
106176,note_on,,,,,64,0,13,,,,,5,,65,100
106176,note_on,,,,,64,0,11,,,,,3,,62,85
106176,note_on,,,,,32,0,8,,,,,0,,76,100
106176,note_on,,,,,64,0,12,,,,,4,,50,85
106240,note_off,,,,,64,0,8,,,,,0,,76,100
106272,note_on,,,,,32,0,8,,,,,0,,78,100
106304,note_off,,,,,128,0,13,,,,,5,,65,100
106304,note_off,,,,,128,0,14,,,,,5,,62,100
106304,note_off,,,,,128,0,12,,,,,4,,50,100
106304,note_off,,,,,128,0,11,,,,,3,,62,100
106336,note_off,,,,,64,0,8,,,,,0,,78,100
106368,note_on,,,,,32,0,8,,,,,0,,79,100
106368,note_on,,,,,0,0,13,,,,,5,,69,100
106368,note_on,,,,,64,0,13,,,,,5,,67,100
106368,note_on,,,,,64,0,11,,,,,3,,61,85
106368,note_on,,,,,64,0,14,,,,,5,,61,100
106368,note_on,,,,,64,0,12,,,,,4,,49,85
106496,note_off,,,,,128,0,12,,,,,4,,49,100
106496,note_off,,,,,128,0,14,,,,,5,,61,100
106496,note_off,,,,,128,0,8,,,,,0,,79,100
106496,note_off,,,,,128,0,13,,,,,5,,67,100
106496,note_off,,,,,0,0,13,,,,,5,,69,100
106496,note_off,,,,,128,0,11,,,,,3,,61,100
106560,note_on,,,,,64,0,13,,,,,5,,61,100
106560,note_on,,,,,0,0,13,,,,,5,,67,100
106560,note_on,,,,,64,0,12,,,,,4,,45,85
106560,note_on,,,,,64,0,11,,,,,3,,57,85
106560,note_on,,,,,64,0,14,,,,,5,,57,100
106560,note_on,,,,,64,0,8,,,,,0,,81,100
106688,note_off,,,,,128,0,11,,,,,3,,57,100
106688,note_off,,,,,128,0,14,,,,,5,,57,100
106688,note_off,,,,,128,0,12,,,,,4,,45,100
106688,note_off,,,,,128,0,13,,,,,5,,61,100
106688,note_off,,,,,0,0,13,,,,,5,,67,100
106688,note_off,,,,,128,0,8,,,,,0,,81,100
106752,note_on,,,,,64,0,12,,,,,4,,50,85
106752,note_on,,,,,64,0,8,,,,,0,,78,100
106752,note_on,,,,,64,0,14,,,,,5,,62,100
106752,note_on,,,,,0,0,13,,,,,5,,69,100
106752,note_on,,,,,64,0,11,,,,,3,,62,85
106752,note_on,,,,,64,0,13,,,,,5,,66,100
106752,set_tempo,,,,,102912,1,0,,500000,,,,,,
106816,note_off,,,,,64,0,8,,,,,0,,78,100
106848,note_on,,,,,32,0,8,,,,,0,,76,100
106880,note_off,,,,,128,0,13,,,,,5,,66,100
106880,note_off,,,,,128,0,14,,,,,5,,62,100
106880,note_off,,,,,128,0,12,,,,,4,,50,100
106880,note_off,,,,,128,0,11,,,,,3,,62,100
106880,note_off,,,,,0,0,13,,,,,5,,69,100
106912,note_off,,,,,64,0,8,,,,,0,,76,100
106944,note_on,,,,,64,0,13,,,,,5,,64,100
106944,note_on,,,,,64,0,11,,,,,3,,60,85
106944,note_on,,,,,32,0,8,,,,,0,,74,100
106944,note_on,,,,,64,0,12,,,,,4,,48,85
106944,note_on,,,,,64,0,14,,,,,5,,60,100
106980,set_tempo,,,,,228,1,0,,504201,,,,,,
107008,note_off,,,,,64,0,8,,,,,0,,74,100
107040,note_on,,,,,32,0,8,,,,,0,,76,100
107072,note_off,,,,,128,0,13,,,,,5,,64,100
107072,note_off,,,,,128,0,12,,,,,4,,48,100
107072,note_off,,,,,128,0,11,,,,,3,,60,100
107072,note_off,,,,,128,0,14,,,,,5,,60,100
107104,note_off,,,,,64,0,8,,,,,0,,76,100
107136,note_on,,,,,0,0,13,,,,,5,,67,100
107136,note_on,,,,,64,0,13,,,,,5,,65,100
107136,note_on,,,,,64,0,12,,,,,4,,47,85
107136,note_on,,,,,64,0,14,,,,,5,,59,100
107136,note_on,,,,,64,0,11,,,,,3,,59,85
107136,note_on,,,,,32,0,8,,,,,0,,77,100
107212,set_tempo,,,,,232,1,0,,508474,,,,,,
107264,note_off,,,,,0,0,13,,,,,5,,67,100
107264,note_off,,,,,128,0,11,,,,,3,,59,100
107264,note_off,,,,,128,0,13,,,,,5,,65,100
107264,note_off,,,,,128,0,8,,,,,0,,77,100
107264,note_off,,,,,128,0,14,,,,,5,,59,100
107264,note_off,,,,,128,0,12,,,,,4,,47,100
107328,note_on,,,,,64,0,13,,,,,5,,62,100
107328,note_on,,,,,64,0,8,,,,,0,,79,100
107328,note_on,,,,,64,0,11,,,,,3,,55,85
107328,note_on,,,,,0,0,13,,,,,5,,65,100
107328,note_on,,,,,64,0,12,,,,,4,,43,85
107328,note_on,,,,,64,0,14,,,,,5,,55,100
107440,set_tempo,,,,,228,1,0,,512820,,,,,,
107456,note_off,,,,,128,0,14,,,,,5,,55,100
107456,note_off,,,,,128,0,11,,,,,3,,55,100
107456,note_off,,,,,128,0,12,,,,,4,,43,100
107456,note_off,,,,,128,0,13,,,,,5,,62,100
107456,note_off,,,,,0,0,13,,,,,5,,65,100
107456,note_off,,,,,128,0,8,,,,,0,,79,100
107520,note_on,,,,,64,0,12,,,,,4,,48,85
107520,note_on,,,,,64,0,11,,,,,3,,60,85
107520,note_on,,,,,64,0,8,,,,,0,,76,100
107520,note_on,,,,,64,0,13,,,,,5,,64,100
107520,note_on,,,,,64,0,14,,,,,5,,60,100
107520,note_on,,,,,0,0,13,,,,,5,,67,100
107584,note_off,,,,,64,0,8,,,,,0,,76,100
107616,note_on,,,,,32,0,8,,,,,0,,74,100
107648,note_off,,,,,0,0,13,,,,,5,,67,100
107648,note_off,,,,,128,0,11,,,,,3,,60,100
107648,note_off,,,,,128,0,14,,,,,5,,60,100
107648,note_off,,,,,128,0,12,,,,,4,,48,100
107648,note_off,,,,,128,0,13,,,,,5,,64,100
107672,set_tempo,,,,,232,1,0,,517241,,,,,,
107680,note_off,,,,,64,0,8,,,,,0,,74,100
107712,note_on,,,,,32,0,8,,,,,0,,72,100
107712,note_on,,,,,64,0,12,,,,,4,,47,85
107712,note_on,,,,,64,0,11,,,,,3,,59,85
107712,note_on,,,,,64,0,14,,,,,5,,59,100
107712,note_on,,,,,64,0,13,,,,,5,,62,100
107776,note_off,,,,,64,0,8,,,,,0,,72,100
107808,note_on,,,,,32,0,8,,,,,0,,74,100
107840,note_off,,,,,128,0,13,,,,,5,,62,100
107840,note_off,,,,,128,0,12,,,,,4,,47,100
107840,note_off,,,,,128,0,11,,,,,3,,59,100
107840,note_off,,,,,128,0,14,,,,,5,,59,100
107872,note_off,,,,,64,0,8,,,,,0,,74,100
107904,note_on,,,,,64,0,14,,,,,5,,57,100
107904,note_on,,,,,64,0,13,,,,,5,,60,100
107904,note_on,,,,,64,0,12,,,,,4,,45,85
107904,note_on,,,,,64,0,11,,,,,3,,57,85
107904,set_tempo,,,,,232,1,0,,521739,,,,,,
107904,note_on,,,,,0,0,13,,,,,5,,64,100
107904,note_on,,,,,32,0,8,,,,,0,,76,100
108032,note_off,,,,,128,0,14,,,,,5,,57,100
108032,note_off,,,,,128,0,12,,,,,4,,45,100
108032,note_off,,,,,128,0,13,,,,,5,,60,100
108032,note_off,,,,,0,0,13,,,,,5,,64,100
108032,note_off,,,,,128,0,8,,,,,0,,76,100
108032,note_off,,,,,128,0,11,,,,,3,,57,100
108096,note_on,,,,,64,0,11,,,,,3,,53,85
108096,note_on,,,,,64,0,13,,,,,5,,60,100
108096,note_on,,,,,64,0,14,,,,,5,,53,100
108096,note_on,,,,,0,0,13,,,,,5,,64,100
108096,note_on,,,,,64,0,12,,,,,4,,41,85
108096,note_on,,,,,64,0,8,,,,,0,,77,100
108132,set_tempo,,,,,228,1,0,,526315,,,,,,
108224,note_off,,,,,128,0,12,,,,,4,,41,100
108224,note_off,,,,,128,0,8,,,,,0,,77,100
108224,note_off,,,,,128,0,14,,,,,5,,53,100
108224,note_off,,,,,0,0,13,,,,,5,,64,100
108224,note_off,,,,,128,0,13,,,,,5,,60,100
108224,note_off,,,,,128,0,11,,,,,3,,53,100
108288,note_on,,,,,64,0,13,,,,,5,,62,100
108288,note_on,,,,,64,0,11,,,,,3,,59,85
108288,note_on,,,,,64,0,14,,,,,5,,59,100
108288,note_on,,,,,64,0,8,,,,,0,,74,100
108288,note_on,,,,,64,0,12,,,,,4,,47,85
108288,note_on,,,,,0,0,13,,,,,5,,65,100
108352,note_off,,,,,64,0,8,,,,,0,,74,100
108364,set_tempo,,,,,232,1,0,,530973,,,,,,
108384,note_on,,,,,32,0,8,,,,,0,,72,100
108416,note_off,,,,,0,0,13,,,,,5,,65,100
108416,note_off,,,,,128,0,12,,,,,4,,47,100
108416,note_off,,,,,128,0,13,,,,,5,,62,100
108416,note_off,,,,,128,0,11,,,,,3,,59,100
108416,note_off,,,,,128,0,14,,,,,5,,59,100
108448,note_off,,,,,64,0,8,,,,,0,,72,100
108480,note_on,,,,,64,0,11,,,,,3,,57,85
108480,note_on,,,,,64,0,12,,,,,4,,45,85
108480,note_on,,,,,32,0,8,,,,,0,,71,100
108480,note_on,,,,,64,0,14,,,,,5,,57,100
108480,note_on,,,,,64,0,13,,,,,5,,60,100
108544,note_off,,,,,64,0,8,,,,,0,,71,100
108576,note_on,,,,,32,0,8,,,,,0,,72,100
108592,set_tempo,,,,,228,1,0,,535714,,,,,,
108608,note_off,,,,,128,0,14,,,,,5,,57,100
108608,note_off,,,,,128,0,12,,,,,4,,45,100
108608,note_off,,,,,128,0,13,,,,,5,,60,100
108608,note_off,,,,,128,0,11,,,,,3,,57,100
108640,note_off,,,,,64,0,8,,,,,0,,72,100
108672,note_on,,,,,64,0,11,,,,,3,,56,85
108672,note_on,,,,,64,0,12,,,,,4,,44,85
108672,note_on,,,,,64,0,13,,,,,5,,64,100
108672,note_on,,,,,0,0,13,,,,,5,,62,100
108672,note_on,,,,,32,0,8,,,,,0,,74,100
108672,note_on,,,,,64,0,14,,,,,5,,56,100
108800,note_off,,,,,128,0,8,,,,,0,,74,100
108800,note_off,,,,,128,0,13,,,,,5,,64,100
108800,note_off,,,,,0,0,13,,,,,5,,62,100
108800,note_off,,,,,128,0,11,,,,,3,,56,100
108800,note_off,,,,,128,0,14,,,,,5,,56,100
108800,note_off,,,,,128,0,12,,,,,4,,44,100
108824,set_tempo,,,,,232,1,0,,540540,,,,,,
108864,note_on,,,,,64,0,14,,,,,5,,52,100
108864,note_on,,,,,64,0,8,,,,,0,,76,100
108864,note_on,,,,,0,0,13,,,,,5,,62,100
108864,note_on,,,,,64,0,11,,,,,3,,52,85
108864,note_on,,,,,64,0,12,,,,,4,,40,85
108864,note_on,,,,,64,0,13,,,,,5,,59,100
108992,note_off,,,,,128,0,12,,,,,4,,40,100
108992,note_off,,,,,128,0,8,,,,,0,,76,100
108992,note_off,,,,,0,0,13,,,,,5,,62,100
108992,note_off,,,,,128,0,13,,,,,5,,59,100
108992,note_off,,,,,128,0,11,,,,,3,,52,100
108992,note_off,,,,,128,0,14,,,,,5,,52,100
109056,note_on,,,,,64,0,8,,,,,0,,72,100
109056,note_on,,,,,64,0,14,,,,,5,,45,100
109056,note_on,,,,,3584,0,10,,,,,2,,64,100
109056,set_tempo,,,,,232,1,0,,545454,,,,,,
109056,note_on,,,,,64,0,13,,,,,5,,64,100
109056,note_on,,,,,64,0,11,,,,,3,,45,100
109056,note_on,,,,,0,0,13,,,,,5,,60,100
109056,note_on,,,,,64,0,12,,,,,4,,33,100
109152,set_tempo,,,,,96,1,0,,545454,,,,,,
109152,note_on,,,,,3680,0,9,,,,,1,,69,100
109184,note_off,,,,,128,0,14,,,,,5,,45,100
109184,note_off,,,,,128,0,12,,,,,4,,33,100
109184,note_off,,,,,0,0,13,,,,,5,,60,100
109184,note_off,,,,,128,0,8,,,,,0,,72,100
109184,end_of_track,,,,,0,1,8,,,,,,,,
109184,note_off,,,,,128,0,11,,,,,3,,45,100
109184,note_off,,,,,128,0,13,,,,,5,,64,100
109216,set_tempo,,,,,64,1,0,,550458,,,,,,
109216,note_off,,,,,64,0,9,,,,,1,,69,100
109248,note_on,,,,,64,0,13,,,,,5,,62,100
109248,note_on,,,,,32,0,9,,,,,1,,72,100
109248,note_on,,,,,64,0,14,,,,,5,,47,100
109248,note_on,,,,,64,0,12,,,,,4,,35,100
109248,note_on,,,,,64,0,11,,,,,3,,47,100
109284,set_tempo,,,,,68,1,0,,555555,,,,,,
109312,note_off,,,,,256,0,10,,,,,2,,64,100
109312,note_off,,,,,64,0,9,,,,,1,,72,100
109344,note_on,,,,,32,0,9,,,,,1,,76,101
109352,set_tempo,,,,,68,1,0,,560747,,,,,,
109376,note_off,,,,,128,0,11,,,,,3,,47,100
109376,note_off,,,,,128,0,14,,,,,5,,47,100
109376,note_off,,,,,128,0,12,,,,,4,,35,100
109376,note_off,,,,,128,0,13,,,,,5,,62,100
109408,note_off,,,,,64,0,9,,,,,1,,76,100
109420,set_tempo,,,,,68,1,0,,566037,,,,,,
109440,note_on,,,,,32,0,9,,,,,1,,81,102
109440,note_on,,,,,64,0,14,,,,,5,,48,100
109440,note_on,,,,,64,0,11,,,,,3,,48,102
109440,note_on,,,,,64,0,13,,,,,5,,64,100
109440,note_on,,,,,64,0,12,,,,,4,,36,102
109488,set_tempo,,,,,68,1,0,,571428,,,,,,
109552,set_tempo,,,,,64,1,0,,576923,,,,,,
109568,note_off,,,,,128,0,13,,,,,5,,64,100
109568,note_off,,,,,128,0,11,,,,,3,,48,100
109568,note_off,,,,,128,0,14,,,,,5,,48,100
109568,note_off,,,,,128,0,12,,,,,4,,36,100
109568,note_off,,,,,128,0,9,,,,,1,,81,100
109620,set_tempo,,,,,68,1,0,,582524,,,,,,
109632,note_on,,,,,64,0,9,,,,,1,,72,104
109632,note_on,,,,,64,0,13,,,,,5,,60,100
109632,note_on,,,,,64,0,12,,,,,4,,33,104
109632,note_on,,,,,64,0,11,,,,,3,,45,104
109632,note_on,,,,,0,0,13,,,,,5,,64,100
109632,note_on,,,,,320,0,10,,,,,2,,64,104
109632,note_on,,,,,64,0,14,,,,,5,,45,100
109688,set_tempo,,,,,68,1,0,,588235,,,,,,
109756,set_tempo,,,,,68,1,0,,594059,,,,,,
109760,note_off,,,,,0,0,13,,,,,5,,64,100
109760,note_off,,,,,128,0,11,,,,,3,,45,100
109760,note_off,,,,,128,0,9,,,,,1,,72,100
109760,note_off,,,,,128,0,12,,,,,4,,33,100
109760,note_off,,,,,128,0,14,,,,,5,,45,100
109760,note_off,,,,,128,0,13,,,,,5,,60,100
109760,note_off,,,,,128,0,10,,,,,2,,64,100
109824,note_on,,,,,64,0,13,,,,,5,,59,100
109824,note_on,,,,,0,0,13,,,,,5,,69,100
109824,set_tempo,,,,,68,1,0,,659340,,,,,,
109824,note_on,,,,,64,0,12,,,,,4,,38,106
109824,note_on,,,,,64,0,10,,,,,2,,65,106
109824,note_on,,,,,64,0,9,,,,,1,,71,106
109824,note_on,,,,,64,0,11,,,,,3,,50,106
109824,note_on,,,,,64,0,14,,,,,5,,50,100
109860,set_tempo,,,,,36,1,0,,606060,,,,,,
109900,set_tempo,,,,,40,1,0,,612244,,,,,,
109936,set_tempo,,,,,36,1,0,,618556,,,,,,
109952,note_off,,,,,128,0,12,,,,,4,,38,100
109952,note_off,,,,,0,0,13,,,,,5,,69,100
109952,note_off,,,,,128,0,11,,,,,3,,50,100
109952,note_off,,,,,128,0,9,,,,,1,,71,100
109952,note_off,,,,,128,0,13,,,,,5,,59,100
109952,note_off,,,,,128,0,14,,,,,5,,50,100
109976,set_tempo,,,,,40,1,0,,625000,,,,,,
110016,note_on,,,,,64,0,11,,,,,3,,47,108
110016,set_tempo,,,,,40,1,0,,631578,,,,,,
110016,note_on,,,,,0,0,13,,,,,5,,65,100
110016,note_on,,,,,64,0,9,,,,,1,,81,108
110016,note_on,,,,,64,0,13,,,,,5,,69,100
110016,note_on,,,,,64,0,14,,,,,5,,47,100
110016,note_on,,,,,64,0,12,,,,,4,,35,108
110052,set_tempo,,,,,36,1,0,,638297,,,,,,
110080,note_off,,,,,256,0,10,,,,,2,,65,100
110092,set_tempo,,,,,40,1,0,,645161,,,,,,
110128,set_tempo,,,,,36,1,0,,652173,,,,,,
110144,note_off,,,,,128,0,9,,,,,1,,81,100
110144,note_off,,,,,0,0,13,,,,,5,,65,100
110144,note_off,,,,,128,0,11,,,,,3,,47,100
110144,note_off,,,,,128,0,12,,,,,4,,35,100
110144,note_off,,,,,128,0,13,,,,,5,,69,100
110144,note_off,,,,,128,0,14,,,,,5,,47,100
110168,set_tempo,,,,,40,1,0,,659340,,,,,,
110208,note_on,,,,,0,0,13,,,,,5,,68,100
110208,note_on,,,,,64,0,13,,,,,5,,59,100
110208,set_tempo,,,,,40,1,0,,666666,,,,,,
110208,note_on,,,,,128,0,10,,,,,2,,64,110
110208,note_on,,,,,64,0,11,,,,,3,,52,110
110208,note_on,,,,,64,0,9,,,,,1,,71,110
110208,note_on,,,,,64,0,12,,,,,4,,40,110
110208,note_on,,,,,64,0,14,,,,,5,,52,100
110224,set_tempo,,,,,16,1,0,,674157,,,,,,
110244,set_tempo,,,,,20,1,0,,681818,,,,,,
110264,set_tempo,,,,,20,1,0,,689655,,,,,,
110284,set_tempo,,,,,20,1,0,,697674,,,,,,
110304,set_tempo,,,,,20,1,0,,705882,,,,,,
110320,set_tempo,,,,,16,1,0,,714285,,,,,,
110336,note_off,,,,,128,0,11,,,,,3,,52,100
110336,note_off,,,,,128,0,9,,,,,1,,71,100
110336,note_off,,,,,128,0,14,,,,,5,,52,100
110336,note_off,,,,,0,0,13,,,,,5,,68,100
110336,note_off,,,,,128,0,13,,,,,5,,59,100
110336,note_off,,,,,128,0,12,,,,,4,,40,100
110340,set_tempo,,,,,20,1,0,,722891,,,,,,
110360,set_tempo,,,,,20,1,0,,731707,,,,,,
110380,set_tempo,,,,,20,1,0,,740740,,,,,,
110400,note_on,,,,,64,0,9,,,,,1,,80,112
110400,note_on,,,,,0,0,13,,,,,5,,68,100
110400,note_on,,,,,64,0,11,,,,,3,,40,112
110400,note_on,,,,,64,0,12,,,,,4,,40,112
110400,note_on,,,,,64,0,14,,,,,5,,40,100
110400,note_on,,,,,64,0,13,,,,,5,,59,100
110400,set_tempo,,,,,20,1,0,,750000,,,,,,
110408,set_tempo,,,,,8,1,0,,759493,,,,,,
110416,set_tempo,,,,,8,1,0,,769230,,,,,,
110428,set_tempo,,,,,12,1,0,,779220,,,,,,
110436,set_tempo,,,,,8,1,0,,789473,,,,,,
110448,set_tempo,,,,,12,1,0,,800000,,,,,,
110456,set_tempo,,,,,8,1,0,,810810,,,,,,
110464,set_tempo,,,,,8,1,0,,821917,,,,,,
110464,note_off,,,,,256,0,10,,,,,2,,64,100
110476,set_tempo,,,,,12,1,0,,833333,,,,,,
110484,set_tempo,,,,,8,1,0,,845070,,,,,,
110496,set_tempo,,,,,12,1,0,,857142,,,,,,
110504,set_tempo,,,,,8,1,0,,869565,,,,,,
110512,set_tempo,,,,,8,1,0,,882352,,,,,,
110524,set_tempo,,,,,12,1,0,,895522,,,,,,
110528,note_off,,,,,128,0,9,,,,,1,,80,100
110528,note_off,,,,,128,0,14,,,,,5,,40,100
110528,note_off,,,,,128,0,13,,,,,5,,59,100
110528,note_off,,,,,128,0,11,,,,,3,,40,100
110528,note_off,,,,,0,0,13,,,,,5,,68,100
110528,note_off,,,,,128,0,12,,,,,4,,40,100
110532,set_tempo,,,,,8,1,0,,909090,,,,,,
110544,set_tempo,,,,,12,1,0,,923076,,,,,,
110552,set_tempo,,,,,8,1,0,,937500,,,,,,
110560,set_tempo,,,,,8,1,0,,952380,,,,,,
110572,set_tempo,,,,,12,1,0,,967741,,,,,,
110580,set_tempo,,,,,8,1,0,,983606,,,,,,
110592,note_on,,,,,64,0,11,,,,,3,,45,114
110592,note_on,,,,,64,0,9,,,,,1,,81,114
110592,note_on,,,,,128,0,10,,,,,2,,60,114
110592,set_tempo,,,,,12,1,0,,1500000,,,,,,
110592,end_of_track,,,,,0,1,0,,,,,,,,
110592,note_on,,,,,64,0,12,,,,,4,,33,114
110592,note_on,,,,,64,0,14,,,,,5,,45,100
110620,note_on,,,,,92,0,13,,,,,5,,60,100
110652,note_on,,,,,32,0,13,,,,,5,,64,100
110684,note_on,,,,,32,0,13,,,,,5,,69,100
111104,note_off,,,,,512,0,12,,,,,4,,33,100
111104,note_off,,,,,512,0,10,,,,,2,,60,100
111104,end_of_track,,,,,0,1,10,,,,,,,,
111104,end_of_track,,,,,0,1,12,,,,,,,,
111104,note_off,,,,,512,0,11,,,,,3,,45,100
111104,end_of_track,,,,,0,1,11,,,,,,,,
111104,note_off,,,,,512,0,14,,,,,5,,45,100
111104,note_off,,,,,512,0,9,,,,,1,,81,100
111104,end_of_track,,,,,0,1,14,,,,,,,,
111132,note_off,,,,,448,0,13,,,,,5,,60,100
111164,note_off,,,,,32,0,13,,,,,5,,64,100
111196,end_of_track,,,,,0,1,13,,,,,,,,
111196,note_off,,,,,32,0,13,,,,,5,,69,100
112128,program_change,,,,,1024,0,9,,,,,1,48,,
112128,end_of_track,,,,,0,1,9,,,,,,,,
