tick,type,numerator,denominator,clocks_per_click,notated_32nd_notes_per_beat,time,meta,track,data,tempo,control,value,channel,program,key,note,velocity
0,time_signature,4,4,96,8,0,1,0,,,,,,,,,
0,program_change,,,,,0,0,6,,,,,0,40,,,
0,control_change,,,,,0,0,6,,,7,100,0,,,,
0,control_change,,,,,0,0,6,,,91,107,0,,,,
0,key_signature,,,,,0,1,6,,,,,,,Em,,
0,end_of_track,,,,,0,1,6,,,,,,,,,
0,track_name,,,,,0,1,7,,,,,,,,,
0,control_change,,,,,0,0,7,,,0,0,0,,,,
0,program_change,,,,,0,0,7,,,,,0,40,,,
0,control_change,,,,,0,0,6,,,0,0,0,,,,
0,control_change,,,,,0,0,7,,,7,100,0,,,,
0,key_signature,,,,,0,1,7,,,,,,,Em,,
0,key_signature,,,,,0,1,10,,,,,,,Em,,
0,control_change,,,,,0,0,10,,,91,108,3,,,,
0,control_change,,,,,0,0,10,,,7,92,3,,,,
0,program_change,,,,,0,0,10,,,,,3,48,,,
0,control_change,,,,,0,0,10,,,0,0,3,,,,
0,track_name,,,,,0,1,10,,,,,,,,,
0,track_name,,,,,0,1,11,,,,,,,,,
0,control_change,,,,,0,0,7,,,91,107,0,,,,
0,control_change,,,,,0,0,11,,,0,0,4,,,,
0,track_name,,,,,0,1,6,,,,,,,,,
0,key_signature,,,,,0,1,5,,,,,,,Em,,
0,control_change,,,,,0,0,3,,,0,0,0,,,,
0,control_change,,,,,0,0,3,,,7,100,0,,,,
0,control_change,,,,,0,0,3,,,91,107,0,,,,
0,program_change,,,,,0,0,3,,,,,0,40,,,
0,key_signature,,,,,0,1,3,,,,,,,Em,,
0,end_of_track,,,,,0,1,3,,,,,,,,,
0,track_name,,,,,0,1,4,,,,,,,,,
0,control_change,,,,,0,0,4,,,0,0,0,,,,
0,end_of_track,,,,,0,1,5,,,,,,,,,
0,program_change,,,,,0,0,4,,,,,0,40,,,
0,control_change,,,,,0,0,4,,,91,107,0,,,,
0,key_signature,,,,,0,1,4,,,,,,,Em,,
0,end_of_track,,,,,0,1,4,,,,,,,,,
0,track_name,,,,,0,1,5,,,,,,,,,
0,control_change,,,,,0,0,5,,,0,0,0,,,,
0,program_change,,,,,0,0,5,,,,,0,40,,,
0,control_change,,,,,0,0,5,,,7,100,0,,,,
0,control_change,,,,,0,0,5,,,91,107,0,,,,
0,control_change,,,,,0,0,4,,,7,100,0,,,,
0,program_change,,,,,0,0,11,,,,,4,48,,,
0,control_change,,,,,0,0,11,,,7,82,4,,,,
0,control_change,,,,,0,0,11,,,10,79,4,,,,
0,control_change,,,,,0,0,8,,,0,0,1,,,,
0,program_change,,,,,0,0,8,,,,,1,48,,,
0,control_change,,,,,0,0,8,,,7,100,1,,,,
0,control_change,,,,,0,0,8,,,10,49,1,,,,
0,control_change,,,,,0,0,8,,,91,107,1,,,,
0,key_signature,,,,,0,1,8,,,,,,,Em,,
0,key_signature,,,,,0,1,12,,,,,,,Em,,
0,control_change,,,,,0,0,12,,,91,108,5,,,,
0,track_name,,,,,0,1,8,,,,,,,,,
0,control_change,,,,,0,0,12,,,10,90,5,,,,
0,program_change,,,,,0,0,12,,,,,5,48,,,
0,control_change,,,,,0,0,12,,,0,0,5,,,,
0,track_name,,,,,0,1,12,,,,,,,,,
0,track_name,,,,,0,1,9,,,,,,,,,
0,key_signature,,,,,0,1,9,,,,,,,Em,,
0,control_change,,,,,0,0,9,,,91,108,2,,,,
0,control_change,,,,,0,0,9,,,10,36,2,,,,
0,control_change,,,,,0,0,9,,,7,96,2,,,,
0,control_change,,,,,0,0,12,,,7,72,5,,,,
0,key_signature,,,,,0,1,16,,,,,,,Em,,
0,control_change,,,,,0,0,16,,,91,105,7,,,,
0,control_change,,,,,0,0,16,,,7,45,7,,,,
0,control_change,,,,,0,0,11,,,91,107,4,,,,
0,key_signature,,,,,0,1,11,,,,,,,Em,,
0,key_signature,,,,,0,1,13,,,,,,,Em,,
0,control_change,,,,,0,0,13,,,91,107,6,,,,
0,control_change,,,,,0,0,13,,,10,77,6,,,,
0,control_change,,,,,0,0,13,,,7,45,6,,,,
0,program_change,,,,,0,0,13,,,,,6,6,,,
0,control_change,,,,,0,0,13,,,0,0,6,,,,
0,track_name,,,,,0,1,13,,,,,,,,,
0,track_name,,,,,0,1,15,,,,,,,,,
0,control_change,,,,,0,0,15,,,0,0,7,,,,
0,program_change,,,,,0,0,15,,,,,7,19,,,
0,control_change,,,,,0,0,15,,,7,45,7,,,,
0,control_change,,,,,0,0,15,,,91,105,7,,,,
0,key_signature,,,,,0,1,15,,,,,,,Em,,
0,program_change,,,,,0,0,9,,,,,2,48,,,
0,track_name,,,,,0,1,16,,,,,,,,,
0,control_change,,,,,0,0,16,,,0,0,7,,,,
0,program_change,,,,,0,0,16,,,,,7,19,,,
0,track_name,,,,,0,1,3,,,,,,,,,
0,end_of_track,,,,,0,1,2,,,,,,,,,
0,control_change,,,,,0,0,9,,,0,0,2,,,,
0,end_of_track,,,,,0,1,1,,,,,,,,,
0,control_change,,,,,0,0,14,,,0,0,6,,,,
0,track_name,,,,,0,1,14,,,,,,,,,
0,control_change,,,,,0,0,14,,,10,77,6,,,,
0,control_change,,,,,0,0,14,,,91,107,6,,,,
0,key_signature,,,,,0,1,14,,,,,,,Em,,
0,program_change,,,,,0,0,14,,,,,6,6,,,
0,track_name,,,,,0,1,2,,,,,,,,,
0,control_change,,,,,0,0,14,,,7,45,6,,,,
0,track_name,,,,,0,1,1,,,,,,,,,
0,sequencer_specific,,,,,0,1,0,"(0, 0, 65)",,,,,,,,
0,sequencer_specific,,,,,0,1,0,"(0, 0, 119, 14, 1)",,,,,,,,
0,set_tempo,,,,,0,1,0,,576923,,,,,,,
1344,note_on,,,,,1344,0,8,,,,,1,,,83,100
1424,note_off,,,,,80,0,8,,,,,1,,,83,100
1536,note_on,,,,,112,0,8,,,,,1,,,76,100
1536,set_tempo,,,,,1536,1,0,,576923,,,,,,,
1636,note_off,,,,,100,0,8,,,,,1,,,76,100
1728,note_on,,,,,1728,0,15,,,,,7,,,67,100
1728,note_on,,,,,92,0,8,,,,,1,,,76,100
1728,note_on,,,,,1728,0,13,,,,,6,,,71,100
1728,note_on,,,,,1728,0,10,,,,,3,,,71,100
1728,note_on,,,,,0,0,13,,,,,6,,,79,100
1728,note_on,,,,,0,0,15,,,,,7,,,71,100
1728,note_on,,,,,1728,0,14,,,,,6,,,64,100
1728,note_on,,,,,1728,0,16,,,,,7,,,64,100
1728,note_on,,,,,1728,0,11,,,,,4,,,64,100
1728,note_on,,,,,1728,0,12,,,,,5,,,52,100
1792,note_off,,,,,64,0,13,,,,,6,,,79,100
1824,note_on,,,,,32,0,13,,,,,6,,,78,100
1828,note_off,,,,,100,0,14,,,,,6,,,64,100
1828,note_off,,,,,100,0,10,,,,,3,,,71,100
1828,note_off,,,,,100,0,12,,,,,5,,,52,100
1828,note_off,,,,,100,0,11,,,,,4,,,64,100
1828,note_off,,,,,100,0,16,,,,,7,,,64,100
1828,note_off,,,,,100,0,8,,,,,1,,,76,100
1856,note_off,,,,,0,0,15,,,,,7,,,71,100
1856,note_off,,,,,128,0,15,,,,,7,,,67,100
1856,note_off,,,,,32,0,13,,,,,6,,,71,100
1888,note_off,,,,,32,0,13,,,,,6,,,78,100
1920,note_on,,,,,0,0,13,,,,,6,,,76,100
1920,note_on,,,,,92,0,10,,,,,3,,,67,100
1920,note_on,,,,,32,0,13,,,,,6,,,67,100
1920,note_on,,,,,64,0,15,,,,,7,,,59,100
1920,note_on,,,,,0,0,15,,,,,7,,,67,100
1920,note_on,,,,,92,0,16,,,,,7,,,52,100
1920,note_on,,,,,92,0,12,,,,,5,,,40,100
1920,note_on,,,,,92,0,8,,,,,1,,,76,100
1920,note_on,,,,,92,0,11,,,,,4,,,52,100
1920,note_on,,,,,92,0,14,,,,,6,,,52,100
2020,note_off,,,,,100,0,8,,,,,1,,,76,100
2112,note_on,,,,,92,0,8,,,,,1,,,76,100
2176,note_off,,,,,256,0,11,,,,,4,,,52,100
2176,note_off,,,,,256,0,14,,,,,6,,,52,100
2176,note_off,,,,,256,0,13,,,,,6,,,67,100
2176,note_off,,,,,0,0,13,,,,,6,,,76,100
2176,note_off,,,,,0,0,15,,,,,7,,,67,100
2176,note_off,,,,,256,0,15,,,,,7,,,59,100
2176,note_off,,,,,256,0,12,,,,,5,,,40,100
2176,note_off,,,,,256,0,10,,,,,3,,,67,100
2176,note_off,,,,,256,0,16,,,,,7,,,52,100
2212,note_off,,,,,100,0,8,,,,,1,,,76,100
2304,note_on,,,,,92,0,8,,,,,1,,,76,100
2404,note_off,,,,,100,0,8,,,,,1,,,76,100
2496,note_on,,,,,320,0,13,,,,,6,,,71,100
2496,note_on,,,,,320,0,10,,,,,3,,,71,100
2496,note_on,,,,,320,0,14,,,,,6,,,64,100
2496,note_on,,,,,92,0,8,,,,,1,,,79,100
2496,note_on,,,,,320,0,16,,,,,7,,,64,100
2496,note_on,,,,,320,0,15,,,,,7,,,67,100
2496,note_on,,,,,0,0,13,,,,,6,,,79,100
2496,note_on,,,,,320,0,12,,,,,5,,,52,100
2496,note_on,,,,,0,0,15,,,,,7,,,71,100
2496,note_on,,,,,320,0,11,,,,,4,,,64,100
2560,note_off,,,,,64,0,13,,,,,6,,,79,100
2560,note_off,,,,,64,0,8,,,,,1,,,79,100
2592,note_on,,,,,32,0,13,,,,,6,,,78,100
2592,note_on,,,,,32,0,8,,,,,1,,,78,100
2596,note_off,,,,,100,0,10,,,,,3,,,71,100
2596,note_off,,,,,100,0,16,,,,,7,,,64,100
2596,note_off,,,,,100,0,11,,,,,4,,,64,100
2596,note_off,,,,,100,0,14,,,,,6,,,64,100
2596,note_off,,,,,100,0,12,,,,,5,,,52,100
2624,note_off,,,,,128,0,15,,,,,7,,,67,100
2624,note_off,,,,,32,0,13,,,,,6,,,71,100
2624,note_off,,,,,0,0,15,,,,,7,,,71,100
2656,note_off,,,,,64,0,8,,,,,1,,,78,100
2656,note_off,,,,,32,0,13,,,,,6,,,78,100
2688,note_on,,,,,32,0,13,,,,,6,,,76,100
2688,note_on,,,,,92,0,10,,,,,3,,,67,100
2688,note_on,,,,,92,0,14,,,,,6,,,52,100
2688,note_on,,,,,92,0,11,,,,,4,,,52,100
2688,note_on,,,,,32,0,8,,,,,1,,,76,100
2688,note_on,,,,,0,0,15,,,,,7,,,67,100
2688,note_on,,,,,64,0,15,,,,,7,,,59,100
2688,note_on,,,,,92,0,16,,,,,7,,,52,100
2688,note_on,,,,,0,0,13,,,,,6,,,67,100
2688,note_on,,,,,92,0,12,,,,,5,,,40,100
2788,note_off,,,,,100,0,8,,,,,1,,,76,100
2880,note_on,,,,,92,0,8,,,,,1,,,76,100
2944,note_off,,,,,0,0,13,,,,,6,,,67,100
2944,note_off,,,,,256,0,15,,,,,7,,,59,100
2944,note_off,,,,,0,0,15,,,,,7,,,67,100
2944,note_off,,,,,256,0,13,,,,,6,,,76,100
2944,note_off,,,,,256,0,10,,,,,3,,,67,100
2944,note_off,,,,,256,0,11,,,,,4,,,52,100
2944,note_off,,,,,256,0,14,,,,,6,,,52,100
2944,note_off,,,,,256,0,12,,,,,5,,,40,100
2944,note_off,,,,,256,0,16,,,,,7,,,52,100
2980,note_off,,,,,100,0,8,,,,,1,,,76,100
3072,note_on,,,,,92,0,8,,,,,1,,,76,100
3172,note_off,,,,,100,0,8,,,,,1,,,76,100
3264,note_on,,,,,320,0,14,,,,,6,,,64,100
3264,note_on,,,,,320,0,16,,,,,7,,,64,100
3264,note_on,,,,,92,0,8,,,,,1,,,79,99
3264,note_on,,,,,320,0,10,,,,,3,,,71,99
3264,note_on,,,,,320,0,11,,,,,4,,,64,99
3264,note_on,,,,,0,0,13,,,,,6,,,79,100
3264,note_on,,,,,320,0,12,,,,,5,,,52,99
3264,note_on,,,,,0,0,15,,,,,7,,,71,100
3264,note_on,,,,,320,0,15,,,,,7,,,67,100
3264,note_on,,,,,320,0,13,,,,,6,,,71,100
3328,note_off,,,,,64,0,8,,,,,1,,,79,100
3328,note_off,,,,,64,0,13,,,,,6,,,79,100
3360,note_on,,,,,32,0,13,,,,,6,,,78,100
3360,note_on,,,,,32,0,8,,,,,1,,,78,99
3364,note_off,,,,,100,0,10,,,,,3,,,71,100
3364,note_off,,,,,100,0,11,,,,,4,,,64,100
3364,note_off,,,,,100,0,16,,,,,7,,,64,100
3364,note_off,,,,,100,0,14,,,,,6,,,64,100
3364,note_off,,,,,100,0,12,,,,,5,,,52,100
3392,note_off,,,,,0,0,15,,,,,7,,,71,100
3392,note_off,,,,,128,0,15,,,,,7,,,67,100
3392,note_off,,,,,32,0,13,,,,,6,,,71,100
3424,note_off,,,,,32,0,13,,,,,6,,,78,100
3424,note_off,,,,,64,0,8,,,,,1,,,78,100
3456,note_on,,,,,92,0,16,,,,,7,,,52,100
3456,note_on,,,,,0,0,13,,,,,6,,,76,100
3456,note_on,,,,,32,0,13,,,,,6,,,67,100
3456,note_on,,,,,32,0,8,,,,,1,,,76,98
3456,note_on,,,,,0,0,15,,,,,7,,,67,100
3456,note_on,,,,,92,0,11,,,,,4,,,52,98
3456,note_on,,,,,64,0,15,,,,,7,,,59,100
3456,note_on,,,,,92,0,10,,,,,3,,,67,98
3456,note_on,,,,,92,0,14,,,,,6,,,52,100
3456,note_on,,,,,92,0,12,,,,,5,,,40,98
3556,note_off,,,,,100,0,8,,,,,1,,,76,100
3648,note_on,,,,,92,0,8,,,,,1,,,76,97
3712,note_off,,,,,256,0,11,,,,,4,,,52,100
3712,note_off,,,,,0,0,15,,,,,7,,,67,100
3712,note_off,,,,,256,0,15,,,,,7,,,59,100
3712,note_off,,,,,256,0,12,,,,,5,,,40,100
3712,note_off,,,,,0,0,13,,,,,6,,,76,100
3712,note_off,,,,,256,0,14,,,,,6,,,52,100
3712,note_off,,,,,256,0,16,,,,,7,,,52,100
3712,note_off,,,,,256,0,10,,,,,3,,,67,100
3712,note_off,,,,,256,0,13,,,,,6,,,67,100
3748,note_off,,,,,100,0,8,,,,,1,,,76,100
3840,note_on,,,,,92,0,8,,,,,1,,,76,96
3940,note_off,,,,,100,0,8,,,,,1,,,76,100
4032,note_on,,,,,320,0,16,,,,,7,,,64,100
4032,note_on,,,,,320,0,10,,,,,3,,,71,95
4032,note_on,,,,,0,0,15,,,,,7,,,71,100
4032,note_on,,,,,0,0,13,,,,,6,,,71,100
4032,note_on,,,,,320,0,13,,,,,6,,,79,100
4032,note_on,,,,,320,0,15,,,,,7,,,67,100
4032,note_on,,,,,320,0,14,,,,,6,,,64,100
4032,note_on,,,,,320,0,12,,,,,5,,,52,95
4032,note_on,,,,,320,0,11,,,,,4,,,64,95
4032,note_on,,,,,92,0,8,,,,,1,,,79,95
4096,note_off,,,,,64,0,8,,,,,1,,,79,100
4096,note_off,,,,,64,0,13,,,,,6,,,79,100
4128,note_on,,,,,32,0,13,,,,,6,,,78,100
4128,note_on,,,,,32,0,8,,,,,1,,,78,94
4132,note_off,,,,,100,0,16,,,,,7,,,64,100
4132,note_off,,,,,100,0,12,,,,,5,,,52,100
4132,note_off,,,,,100,0,10,,,,,3,,,71,100
4132,note_off,,,,,100,0,11,,,,,4,,,64,100
4132,note_off,,,,,100,0,14,,,,,6,,,64,100
4160,note_off,,,,,0,0,15,,,,,7,,,71,100
4160,note_off,,,,,32,0,13,,,,,6,,,71,100
4160,note_off,,,,,128,0,15,,,,,7,,,67,100
4192,note_off,,,,,32,0,13,,,,,6,,,78,100
4192,note_off,,,,,64,0,8,,,,,1,,,78,100
4224,note_on,,,,,32,0,13,,,,,6,,,76,100
4224,note_on,,,,,92,0,10,,,,,3,,,67,92
4224,note_on,,,,,32,0,8,,,,,1,,,76,92
4224,note_on,,,,,92,0,11,,,,,4,,,52,92
4224,note_on,,,,,92,0,16,,,,,7,,,52,100
4224,note_on,,,,,92,0,12,,,,,5,,,40,92
4224,note_on,,,,,0,0,15,,,,,7,,,67,100
4224,note_on,,,,,0,0,13,,,,,6,,,67,100
4224,note_on,,,,,92,0,14,,,,,6,,,52,100
4224,note_on,,,,,64,0,15,,,,,7,,,59,100
4288,note_off,,,,,64,0,13,,,,,6,,,76,100
4320,note_on,,,,,32,0,13,,,,,6,,,79,100
4324,note_off,,,,,100,0,8,,,,,1,,,76,100
4384,note_off,,,,,64,0,13,,,,,6,,,79,100
4416,note_on,,,,,92,0,8,,,,,1,,,76,95
4416,note_on,,,,,32,0,13,,,,,6,,,78,100
4480,note_off,,,,,256,0,14,,,,,6,,,52,100
4480,note_off,,,,,256,0,11,,,,,4,,,52,100
4480,note_off,,,,,256,0,12,,,,,5,,,40,100
4480,note_off,,,,,256,0,16,,,,,7,,,52,100
4480,note_off,,,,,256,0,15,,,,,7,,,59,100
4480,note_off,,,,,256,0,10,,,,,3,,,67,100
4480,note_off,,,,,0,0,13,,,,,6,,,78,100
4480,note_off,,,,,0,0,15,,,,,7,,,67,100
4480,note_off,,,,,64,0,13,,,,,6,,,67,100
4512,note_on,,,,,32,0,13,,,,,6,,,76,100
4516,note_off,,,,,100,0,8,,,,,1,,,76,100
4576,note_off,,,,,64,0,13,,,,,6,,,76,100
4608,note_on,,,,,128,0,16,,,,,7,,,47,100
4608,note_on,,,,,128,0,12,,,,,5,,,35,99
4608,note_on,,,,,32,0,13,,,,,6,,,71,100
4608,note_on,,,,,0,0,13,,,,,6,,,75,100
4608,note_on,,,,,0,0,15,,,,,7,,,63,100
4608,note_on,,,,,92,0,8,,,,,1,,,78,99
4608,note_on,,,,,128,0,15,,,,,7,,,71,100
4608,note_on,,,,,128,0,14,,,,,6,,,47,100
4608,note_on,,,,,128,0,11,,,,,4,,,47,99
4608,note_on,,,,,128,0,10,,,,,3,,,63,99
4708,note_off,,,,,100,0,14,,,,,6,,,47,100
4708,note_off,,,,,100,0,11,,,,,4,,,47,100
4708,note_off,,,,,100,0,16,,,,,7,,,47,100
4708,note_off,,,,,100,0,10,,,,,3,,,63,100
4708,note_off,,,,,100,0,12,,,,,5,,,35,100
4736,note_off,,,,,128,0,8,,,,,1,,,78,100
4800,note_on,,,,,92,0,10,,,,,3,,,66,100
4800,note_on,,,,,64,0,8,,,,,1,,,79,100
4800,note_on,,,,,92,0,14,,,,,6,,,59,100
4800,note_on,,,,,92,0,12,,,,,5,,,47,100
4800,note_on,,,,,92,0,11,,,,,4,,,59,100
4800,note_on,,,,,92,0,16,,,,,7,,,59,100
4864,note_off,,,,,256,0,13,,,,,6,,,75,100
4864,note_off,,,,,256,0,15,,,,,7,,,63,100
4892,note_off,,,,,92,0,8,,,,,1,,,79,100
4896,note_on,,,,,4,0,8,,,,,1,,,81,100
4900,note_off,,,,,100,0,10,,,,,3,,,66,100
4900,note_off,,,,,100,0,11,,,,,4,,,59,100
4900,note_off,,,,,100,0,14,,,,,6,,,59,100
4900,note_off,,,,,100,0,12,,,,,5,,,47,100
4900,note_off,,,,,100,0,16,,,,,7,,,59,100
4960,note_off,,,,,64,0,8,,,,,1,,,81,100
4992,note_on,,,,,32,0,8,,,,,1,,,83,100
4992,note_on,,,,,92,0,12,,,,,5,,,39,100
4992,note_on,,,,,92,0,14,,,,,6,,,51,100
4992,note_on,,,,,92,0,11,,,,,4,,,51,100
4992,note_on,,,,,92,0,16,,,,,7,,,51,100
4992,note_on,,,,,128,0,15,,,,,7,,,66,100
4992,note_on,,,,,92,0,10,,,,,3,,,66,100
4992,note_on,,,,,128,0,13,,,,,6,,,78,100
5084,note_off,,,,,92,0,8,,,,,1,,,83,100
5088,note_on,,,,,4,0,8,,,,,1,,,81,100
5092,note_off,,,,,100,0,14,,,,,6,,,51,100
5092,note_off,,,,,100,0,12,,,,,5,,,39,100
5092,note_off,,,,,100,0,11,,,,,4,,,51,100
5092,note_off,,,,,100,0,16,,,,,7,,,51,100
5092,note_off,,,,,100,0,10,,,,,3,,,66,100
5120,note_off,,,,,128,0,15,,,,,7,,,71,100
5120,note_off,,,,,128,0,13,,,,,6,,,71,100
5152,note_off,,,,,64,0,8,,,,,1,,,81,100
5184,note_on,,,,,92,0,14,,,,,6,,,47,100
5184,note_on,,,,,5184,0,9,,,,,2,,,83,100
5184,note_on,,,,,92,0,16,,,,,7,,,47,100
5184,note_on,,,,,92,0,10,,,,,3,,,63,100
5184,note_on,,,,,92,0,12,,,,,5,,,35,100
5184,note_on,,,,,32,0,8,,,,,1,,,79,100
5184,note_on,,,,,92,0,11,,,,,4,,,47,100
5248,note_off,,,,,128,0,15,,,,,7,,,66,100
5248,note_off,,,,,128,0,13,,,,,6,,,78,100
5264,note_off,,,,,80,0,9,,,,,2,,,83,100
5276,note_off,,,,,92,0,8,,,,,1,,,79,100
5280,note_on,,,,,4,0,8,,,,,1,,,78,100
5284,note_off,,,,,100,0,14,,,,,6,,,47,100
5284,note_off,,,,,100,0,16,,,,,7,,,47,100
5284,note_off,,,,,100,0,11,,,,,4,,,47,100
5284,note_off,,,,,100,0,10,,,,,3,,,63,100
5284,note_off,,,,,100,0,12,,,,,5,,,35,100
5344,note_off,,,,,64,0,8,,,,,1,,,78,100
5376,note_on,,,,,128,0,13,,,,,6,,,76,100
5376,note_on,,,,,92,0,12,,,,,5,,,40,100
5376,note_on,,,,,92,0,14,,,,,6,,,52,100
5376,note_on,,,,,92,0,16,,,,,7,,,52,100
5376,note_on,,,,,0,0,13,,,,,6,,,67,100
5376,note_on,,,,,128,0,15,,,,,7,,,64,100
5376,note_on,,,,,32,0,8,,,,,1,,,79,100
5376,note_on,,,,,0,0,15,,,,,7,,,67,100
5376,note_on,,,,,112,0,9,,,,,2,,,76,100
5376,note_on,,,,,92,0,11,,,,,4,,,52,100
5376,note_on,,,,,92,0,10,,,,,3,,,59,100
5440,note_off,,,,,64,0,8,,,,,1,,,79,100
5472,note_on,,,,,32,0,8,,,,,1,,,78,100
5476,note_off,,,,,100,0,16,,,,,7,,,52,100
5476,note_off,,,,,100,0,11,,,,,4,,,52,100
5476,note_off,,,,,100,0,12,,,,,5,,,40,100
5476,note_off,,,,,100,0,10,,,,,3,,,59,100
5476,note_off,,,,,100,0,14,,,,,6,,,52,100
5476,note_off,,,,,100,0,9,,,,,2,,,76,100
5536,note_off,,,,,64,0,8,,,,,1,,,78,100
5568,note_on,,,,,92,0,16,,,,,7,,,64,100
5568,note_on,,,,,92,0,9,,,,,2,,,76,99
5568,note_on,,,,,92,0,12,,,,,5,,,52,99
5568,note_on,,,,,32,0,8,,,,,1,,,76,99
5568,note_on,,,,,92,0,14,,,,,6,,,64,100
5568,note_on,,,,,92,0,10,,,,,3,,,67,99
5568,note_on,,,,,92,0,11,,,,,4,,,64,99
5632,note_off,,,,,256,0,15,,,,,7,,,64,100
5632,note_off,,,,,0,0,13,,,,,6,,,67,100
5632,note_off,,,,,256,0,13,,,,,6,,,76,100
5632,note_off,,,,,0,0,15,,,,,7,,,67,100
5668,note_off,,,,,100,0,16,,,,,7,,,64,100
5668,note_off,,,,,100,0,9,,,,,2,,,76,100
5668,note_off,,,,,100,0,14,,,,,6,,,64,100
5668,note_off,,,,,100,0,10,,,,,3,,,67,100
5668,note_off,,,,,100,0,11,,,,,4,,,64,100
5668,note_off,,,,,100,0,12,,,,,5,,,52,100
5696,note_off,,,,,128,0,8,,,,,1,,,76,100
5760,note_on,,,,,92,0,11,,,,,4,,,52,97
5760,note_on,,,,,92,0,16,,,,,7,,,52,100
5760,note_on,,,,,92,0,12,,,,,5,,,40,97
5760,note_on,,,,,92,0,9,,,,,2,,,76,97
5760,note_on,,,,,0,0,15,,,,,7,,,67,100
5760,note_on,,,,,128,0,15,,,,,7,,,59,100
5760,note_on,,,,,92,0,14,,,,,6,,,52,100
5760,note_on,,,,,92,0,10,,,,,3,,,67,97
5860,note_off,,,,,100,0,9,,,,,2,,,76,100
5952,note_on,,,,,92,0,9,,,,,2,,,76,96
6016,note_off,,,,,256,0,10,,,,,3,,,67,100
6016,note_off,,,,,0,0,15,,,,,7,,,67,100
6016,note_off,,,,,256,0,12,,,,,5,,,40,100
6016,note_off,,,,,256,0,15,,,,,7,,,59,100
6016,note_off,,,,,256,0,14,,,,,6,,,52,100
6016,note_off,,,,,256,0,11,,,,,4,,,52,100
6016,note_off,,,,,256,0,16,,,,,7,,,52,100
6052,note_off,,,,,100,0,9,,,,,2,,,76,100
6144,note_on,,,,,92,0,9,,,,,2,,,76,100
6144,note_on,,,,,448,0,8,,,,,1,,,83,100
6244,note_off,,,,,100,0,9,,,,,2,,,76,100
6336,note_on,,,,,320,0,11,,,,,4,,,64,100
6336,note_on,,,,,320,0,14,,,,,6,,,64,100
6336,note_on,,,,,92,0,9,,,,,2,,,79,100
6336,note_on,,,,,0,0,13,,,,,6,,,79,100
6336,note_on,,,,,320,0,12,,,,,5,,,52,100
6336,note_on,,,,,704,0,13,,,,,6,,,71,100
6336,note_on,,,,,320,0,15,,,,,7,,,67,100
6336,note_on,,,,,0,0,15,,,,,7,,,71,100
6336,note_on,,,,,320,0,10,,,,,3,,,71,100
6336,note_on,,,,,320,0,16,,,,,7,,,64,100
6400,note_off,,,,,64,0,9,,,,,2,,,79,100
6400,note_off,,,,,64,0,13,,,,,6,,,79,100
6432,note_on,,,,,32,0,9,,,,,2,,,78,100
6432,note_on,,,,,32,0,13,,,,,6,,,78,100
6436,note_off,,,,,100,0,16,,,,,7,,,64,100
6436,note_off,,,,,100,0,10,,,,,3,,,71,100
6436,note_off,,,,,100,0,12,,,,,5,,,52,100
6436,note_off,,,,,100,0,14,,,,,6,,,64,100
6436,note_off,,,,,100,0,11,,,,,4,,,64,100
6464,note_off,,,,,0,0,15,,,,,7,,,71,100
6464,note_off,,,,,128,0,15,,,,,7,,,67,100
6464,note_off,,,,,32,0,13,,,,,6,,,71,100
6496,note_off,,,,,32,0,13,,,,,6,,,78,100
6496,note_off,,,,,64,0,9,,,,,2,,,78,100
6528,note_off,,,,,384,0,8,,,,,1,,,83,100
6528,note_on,,,,,92,0,14,,,,,6,,,52,100
6528,note_on,,,,,92,0,10,,,,,3,,,67,100
6528,note_on,,,,,92,0,12,,,,,5,,,40,100
6528,note_on,,,,,92,0,16,,,,,7,,,52,100
6528,note_on,,,,,0,0,13,,,,,6,,,76,100
6528,note_on,,,,,0,0,15,,,,,7,,,67,100
6528,note_on,,,,,64,0,15,,,,,7,,,59,100
6528,note_on,,,,,32,0,9,,,,,2,,,76,100
6528,note_on,,,,,32,0,13,,,,,6,,,67,100
6528,note_on,,,,,92,0,11,,,,,4,,,52,100
6628,note_off,,,,,100,0,9,,,,,2,,,76,100
6720,note_on,,,,,92,0,9,,,,,2,,,76,100
6720,note_on,,,,,192,0,8,,,,,1,,,84,100
6784,note_off,,,,,256,0,13,,,,,6,,,67,100
6784,note_off,,,,,256,0,14,,,,,6,,,52,100
6784,note_off,,,,,256,0,10,,,,,3,,,67,100
6784,note_off,,,,,0,0,13,,,,,6,,,76,100
6784,note_off,,,,,256,0,15,,,,,7,,,59,100
6784,note_off,,,,,256,0,11,,,,,4,,,52,100
6784,note_off,,,,,256,0,12,,,,,5,,,40,100
6784,note_off,,,,,256,0,16,,,,,7,,,52,100
6784,note_off,,,,,0,0,15,,,,,7,,,67,100
6812,note_off,,,,,92,0,8,,,,,1,,,84,100
6816,note_on,,,,,4,0,8,,,,,1,,,82,100
6820,note_off,,,,,100,0,9,,,,,2,,,76,100
6880,note_off,,,,,64,0,8,,,,,1,,,82,100
6912,note_on,,,,,32,0,8,,,,,1,,,83,100
6912,note_on,,,,,92,0,9,,,,,2,,,76,100
7012,note_off,,,,,100,0,9,,,,,2,,,76,100
7104,note_on,,,,,320,0,12,,,,,5,,,52,100
7104,note_on,,,,,0,0,13,,,,,6,,,79,100
7104,note_on,,,,,92,0,9,,,,,2,,,79,100
7104,note_on,,,,,320,0,15,,,,,7,,,67,100
7104,note_on,,,,,320,0,14,,,,,6,,,64,100
7104,note_on,,,,,320,0,13,,,,,6,,,71,100
7104,note_on,,,,,320,0,11,,,,,4,,,64,100
7104,note_on,,,,,320,0,16,,,,,7,,,64,100
7104,note_on,,,,,320,0,10,,,,,3,,,71,100
7104,note_on,,,,,0,0,15,,,,,7,,,71,100
7168,note_off,,,,,64,0,9,,,,,2,,,79,100
7168,note_off,,,,,64,0,13,,,,,6,,,79,100
7200,note_on,,,,,32,0,9,,,,,2,,,78,100
7200,note_on,,,,,32,0,13,,,,,6,,,78,100
7204,note_off,,,,,100,0,14,,,,,6,,,64,100
7204,note_off,,,,,100,0,10,,,,,3,,,71,100
7204,note_off,,,,,100,0,16,,,,,7,,,64,100
7204,note_off,,,,,100,0,12,,,,,5,,,52,100
7204,note_off,,,,,100,0,11,,,,,4,,,64,100
7232,note_off,,,,,128,0,15,,,,,7,,,67,100
7232,note_off,,,,,0,0,15,,,,,7,,,71,100
7232,note_off,,,,,32,0,13,,,,,6,,,71,100
7264,note_off,,,,,64,0,9,,,,,2,,,78,100
7264,note_off,,,,,32,0,13,,,,,6,,,78,100
7296,note_on,,,,,32,0,9,,,,,2,,,76,100
7296,note_on,,,,,92,0,12,,,,,5,,,40,100
7296,note_on,,,,,0,0,15,,,,,7,,,67,100
7296,note_on,,,,,32,0,13,,,,,6,,,67,100
7296,note_on,,,,,92,0,16,,,,,7,,,52,100
7296,note_on,,,,,64,0,15,,,,,7,,,59,100
7296,note_on,,,,,92,0,10,,,,,3,,,67,100
7296,note_on,,,,,92,0,11,,,,,4,,,52,100
7296,note_off,,,,,384,0,8,,,,,1,,,83,100
7296,note_on,,,,,92,0,14,,,,,6,,,52,100
7296,note_on,,,,,0,0,13,,,,,6,,,76,100
7396,note_off,,,,,100,0,9,,,,,2,,,76,100
7488,note_on,,,,,92,0,9,,,,,2,,,76,100
7488,note_on,,,,,192,0,8,,,,,1,,,84,100
7552,note_off,,,,,0,0,15,,,,,7,,,67,100
7552,note_off,,,,,256,0,10,,,,,3,,,67,100
7552,note_off,,,,,256,0,14,,,,,6,,,52,100
7552,note_off,,,,,256,0,16,,,,,7,,,52,100
7552,note_off,,,,,256,0,12,,,,,5,,,40,100
7552,note_off,,,,,0,0,13,,,,,6,,,76,100
7552,note_off,,,,,256,0,13,,,,,6,,,67,100
7552,note_off,,,,,256,0,15,,,,,7,,,59,100
7552,note_off,,,,,256,0,11,,,,,4,,,52,100
7580,note_off,,,,,92,0,8,,,,,1,,,84,100
7584,note_on,,,,,4,0,8,,,,,1,,,82,100
7588,note_off,,,,,100,0,9,,,,,2,,,76,100
7648,note_off,,,,,64,0,8,,,,,1,,,82,100
7680,note_on,,,,,32,0,8,,,,,1,,,83,100
7680,note_on,,,,,92,0,9,,,,,2,,,76,100
7780,note_off,,,,,100,0,9,,,,,2,,,76,100
7872,note_on,,,,,320,0,16,,,,,7,,,64,100
7872,note_on,,,,,92,0,9,,,,,2,,,79,99
7872,note_on,,,,,320,0,14,,,,,6,,,64,100
7872,note_on,,,,,320,0,15,,,,,7,,,67,100
7872,note_on,,,,,320,0,10,,,,,3,,,71,99
7872,note_on,,,,,0,0,13,,,,,6,,,76,100
7872,note_on,,,,,320,0,13,,,,,6,,,67,100
7872,note_on,,,,,320,0,11,,,,,4,,,64,99
7872,note_on,,,,,320,0,12,,,,,5,,,52,99
7872,note_on,,,,,0,0,15,,,,,7,,,71,100
7936,note_off,,,,,64,0,9,,,,,2,,,79,100
7936,note_off,,,,,64,0,13,,,,,6,,,76,100
7968,note_on,,,,,32,0,9,,,,,2,,,78,98
7968,note_on,,,,,32,0,13,,,,,6,,,75,100
7972,note_off,,,,,100,0,14,,,,,6,,,64,100
7972,note_off,,,,,100,0,10,,,,,3,,,71,100
7972,note_off,,,,,100,0,11,,,,,4,,,64,100
7972,note_off,,,,,100,0,12,,,,,5,,,52,100
7972,note_off,,,,,100,0,16,,,,,7,,,64,100
8000,note_off,,,,,128,0,15,,,,,7,,,67,100
8000,note_off,,,,,0,0,15,,,,,7,,,71,100
8032,note_off,,,,,64,0,13,,,,,6,,,75,100
8032,note_off,,,,,64,0,9,,,,,2,,,78,100
8064,note_on,,,,,92,0,10,,,,,3,,,67,97
8064,note_on,,,,,92,0,14,,,,,6,,,52,100
8064,note_on,,,,,92,0,16,,,,,7,,,52,100
8064,note_on,,,,,32,0,9,,,,,2,,,76,97
8064,note_on,,,,,92,0,12,,,,,5,,,40,97
8064,note_on,,,,,92,0,11,,,,,4,,,52,97
8064,note_on,,,,,32,0,13,,,,,6,,,76,100
8064,note_off,,,,,384,0,8,,,,,1,,,83,100
8064,note_on,,,,,64,0,15,,,,,7,,,59,100
8064,note_on,,,,,0,0,15,,,,,7,,,67,100
8128,note_off,,,,,0,0,13,,,,,6,,,76,100
8128,note_off,,,,,64,0,13,,,,,6,,,67,100
8160,note_on,,,,,32,0,13,,,,,6,,,79,100
8164,note_off,,,,,100,0,9,,,,,2,,,76,100
8224,note_off,,,,,64,0,13,,,,,6,,,79,100
8256,note_on,,,,,92,0,9,,,,,2,,,76,96
8256,note_on,,,,,0,0,13,,,,,6,,,72,100
8256,note_on,,,,,32,0,13,,,,,6,,,78,100
8256,note_on,,,,,192,0,8,,,,,1,,,84,96
8320,note_off,,,,,256,0,12,,,,,5,,,40,100
8320,note_off,,,,,256,0,14,,,,,6,,,52,100
8320,note_off,,,,,256,0,11,,,,,4,,,52,100
8320,note_off,,,,,256,0,15,,,,,7,,,59,100
8320,note_off,,,,,0,0,15,,,,,7,,,67,100
8320,note_off,,,,,256,0,10,,,,,3,,,67,100
8320,note_off,,,,,64,0,13,,,,,6,,,78,100
8320,note_off,,,,,256,0,16,,,,,7,,,52,100
8348,note_off,,,,,92,0,8,,,,,1,,,84,100
8352,note_on,,,,,32,0,13,,,,,6,,,76,100
8352,note_on,,,,,4,0,8,,,,,1,,,82,95
8356,note_off,,,,,100,0,9,,,,,2,,,76,100
8384,note_off,,,,,32,0,13,,,,,6,,,72,100
8416,note_off,,,,,64,0,8,,,,,1,,,82,100
8416,note_off,,,,,32,0,13,,,,,6,,,76,100
8448,note_on,,,,,128,0,14,,,,,6,,,47,100
8448,note_on,,,,,128,0,10,,,,,3,,,63,94
8448,note_on,,,,,0,0,15,,,,,7,,,63,100
8448,note_on,,,,,92,0,9,,,,,2,,,78,94
8448,note_on,,,,,32,0,8,,,,,1,,,83,94
8448,note_on,,,,,128,0,16,,,,,7,,,47,100
8448,note_on,,,,,0,0,13,,,,,6,,,71,100
8448,note_on,,,,,32,0,13,,,,,6,,,75,100
8448,note_on,,,,,128,0,15,,,,,7,,,71,100
8448,note_on,,,,,128,0,11,,,,,4,,,47,94
8448,note_on,,,,,128,0,12,,,,,5,,,35,94
8548,note_off,,,,,100,0,12,,,,,5,,,35,100
8548,note_off,,,,,100,0,8,,,,,1,,,83,100
8548,note_off,,,,,100,0,11,,,,,4,,,47,100
8548,note_off,,,,,100,0,10,,,,,3,,,63,100
8548,note_off,,,,,100,0,14,,,,,6,,,47,100
8548,note_off,,,,,100,0,16,,,,,7,,,47,100
8576,note_off,,,,,128,0,9,,,,,2,,,78,100
8640,note_on,,,,,64,0,9,,,,,2,,,79,92
8640,note_on,,,,,92,0,10,,,,,3,,,66,92
8640,note_on,,,,,92,0,11,,,,,4,,,59,92
8640,note_on,,,,,92,0,8,,,,,1,,,71,92
8640,note_on,,,,,92,0,16,,,,,7,,,59,100
8640,note_on,,,,,92,0,12,,,,,5,,,47,92
8640,note_on,,,,,92,0,14,,,,,6,,,59,100
8704,note_off,,,,,256,0,13,,,,,6,,,75,100
8704,note_off,,,,,256,0,15,,,,,7,,,63,100
8732,note_off,,,,,92,0,9,,,,,2,,,79,100
8736,note_on,,,,,4,0,9,,,,,2,,,81,93
8740,note_off,,,,,100,0,12,,,,,5,,,47,100
8740,note_off,,,,,100,0,10,,,,,3,,,66,100
8740,note_off,,,,,100,0,16,,,,,7,,,59,100
8740,note_off,,,,,100,0,14,,,,,6,,,59,100
8740,note_off,,,,,100,0,11,,,,,4,,,59,100
8740,note_off,,,,,100,0,8,,,,,1,,,71,100
8800,note_off,,,,,64,0,9,,,,,2,,,81,100
8832,note_on,,,,,32,0,9,,,,,2,,,83,95
8832,note_on,,,,,128,0,13,,,,,6,,,78,100
8832,note_on,,,,,92,0,11,,,,,4,,,51,95
8832,note_on,,,,,92,0,16,,,,,7,,,51,100
8832,note_on,,,,,92,0,10,,,,,3,,,66,95
8832,note_on,,,,,128,0,15,,,,,7,,,66,100
8832,note_on,,,,,92,0,14,,,,,6,,,51,100
8832,note_on,,,,,92,0,12,,,,,5,,,39,95
8924,note_off,,,,,92,0,9,,,,,2,,,83,100
8928,note_on,,,,,4,0,9,,,,,2,,,81,97
8932,note_off,,,,,100,0,16,,,,,7,,,51,100
8932,note_off,,,,,100,0,14,,,,,6,,,51,100
8932,note_off,,,,,100,0,12,,,,,5,,,39,100
8932,note_off,,,,,100,0,10,,,,,3,,,66,100
8932,note_off,,,,,100,0,11,,,,,4,,,51,100
8960,note_off,,,,,128,0,13,,,,,6,,,71,100
8960,note_off,,,,,128,0,15,,,,,7,,,71,100
8992,note_off,,,,,64,0,9,,,,,2,,,81,100
9024,note_on,,,,,32,0,9,,,,,2,,,79,99
9024,note_on,,,,,92,0,12,,,,,5,,,35,99
9024,note_on,,,,,92,0,14,,,,,6,,,47,100
9024,note_on,,,,,92,0,10,,,,,3,,,63,99
9024,note_on,,,,,92,0,16,,,,,7,,,47,100
9024,note_on,,,,,92,0,11,,,,,4,,,47,99
9088,note_off,,,,,128,0,15,,,,,7,,,66,100
9088,note_off,,,,,128,0,13,,,,,6,,,78,100
9116,note_off,,,,,92,0,9,,,,,2,,,79,100
9120,note_on,,,,,4,0,9,,,,,2,,,78,101
9124,note_off,,,,,100,0,12,,,,,5,,,35,100
9124,note_off,,,,,100,0,10,,,,,3,,,63,100
9124,note_off,,,,,100,0,14,,,,,6,,,47,100
9124,note_off,,,,,100,0,11,,,,,4,,,47,100
9124,note_off,,,,,100,0,16,,,,,7,,,47,100
9184,note_off,,,,,64,0,9,,,,,2,,,78,100
9216,note_on,,,,,92,0,11,,,,,4,,,52,103
9216,note_on,,,,,476,0,8,,,,,1,,,83,103
9216,note_on,,,,,92,0,12,,,,,5,,,40,103
9216,note_on,,,,,32,0,9,,,,,2,,,79,103
9216,note_on,,,,,0,0,15,,,,,7,,,67,100
9216,note_on,,,,,92,0,16,,,,,7,,,52,100
9216,note_on,,,,,128,0,15,,,,,7,,,64,100
9216,note_on,,,,,0,0,13,,,,,6,,,79,100
9216,note_on,,,,,128,0,13,,,,,6,,,71,100
9216,note_on,,,,,92,0,14,,,,,6,,,52,100
9216,note_on,,,,,92,0,10,,,,,3,,,59,103
9308,note_off,,,,,92,0,8,,,,,1,,,83,100
9312,note_on,,,,,4,0,8,,,,,1,,,79,100
9316,note_off,,,,,100,0,9,,,,,2,,,79,100
9344,note_off,,,,,128,0,13,,,,,6,,,71,100
9344,note_off,,,,,0,0,13,,,,,6,,,79,100
9404,note_off,,,,,92,0,8,,,,,1,,,79,100
9408,note_on,,,,,92,0,9,,,,,2,,,83,100
9408,note_on,,,,,64,0,13,,,,,6,,,67,100
9408,note_on,,,,,0,0,13,,,,,6,,,71,100
9408,note_on,,,,,4,0,8,,,,,1,,,78,100
9472,note_off,,,,,256,0,15,,,,,7,,,64,100
9472,note_off,,,,,256,0,12,,,,,5,,,40,100
9472,note_off,,,,,256,0,11,,,,,4,,,52,100
9472,note_off,,,,,256,0,10,,,,,3,,,59,100
9472,note_off,,,,,256,0,14,,,,,6,,,52,100
9472,note_off,,,,,0,0,15,,,,,7,,,67,100
9472,note_off,,,,,256,0,16,,,,,7,,,52,100
9500,note_off,,,,,92,0,8,,,,,1,,,78,100
9504,note_on,,,,,4,0,8,,,,,1,,,79,100
9508,note_off,,,,,100,0,9,,,,,2,,,83,100
9536,note_off,,,,,128,0,13,,,,,6,,,71,100
9568,note_off,,,,,64,0,8,,,,,1,,,79,100
9600,note_on,,,,,128,0,15,,,,,7,,,67,100
9600,note_on,,,,,0,0,15,,,,,7,,,71,100
9600,note_on,,,,,128,0,11,,,,,4,,,64,100
9600,note_on,,,,,32,0,8,,,,,1,,,83,100
9600,note_on,,,,,128,0,16,,,,,7,,,64,100
9600,note_on,,,,,92,0,9,,,,,2,,,64,100
9600,note_on,,,,,64,0,13,,,,,6,,,76,100
9600,note_on,,,,,128,0,14,,,,,6,,,64,100
9600,note_on,,,,,128,0,12,,,,,5,,,52,100
9664,note_off,,,,,64,0,13,,,,,6,,,67,100
9692,note_off,,,,,92,0,8,,,,,1,,,83,100
9696,note_on,,,,,4,0,8,,,,,1,,,79,100
9700,note_off,,,,,100,0,9,,,,,2,,,64,100
9728,note_off,,,,,64,0,13,,,,,6,,,76,100
9788,note_off,,,,,92,0,8,,,,,1,,,79,100
9792,note_on,,,,,92,0,9,,,,,2,,,83,100
9792,note_on,,,,,64,0,13,,,,,6,,,76,100
9792,note_on,,,,,0,0,13,,,,,6,,,79,100
9792,note_on,,,,,4,0,8,,,,,1,,,78,100
9856,note_off,,,,,256,0,11,,,,,4,,,64,100
9856,note_off,,,,,256,0,16,,,,,7,,,64,100
9856,note_off,,,,,256,0,14,,,,,6,,,64,100
9856,note_off,,,,,0,0,15,,,,,7,,,71,100
9856,note_off,,,,,256,0,15,,,,,7,,,67,100
9856,note_off,,,,,256,0,12,,,,,5,,,52,100
9884,note_off,,,,,92,0,8,,,,,1,,,78,100
9888,note_on,,,,,4,0,8,,,,,1,,,79,100
9892,note_off,,,,,100,0,9,,,,,2,,,83,100
9920,note_off,,,,,128,0,13,,,,,6,,,76,100
9920,note_off,,,,,0,0,13,,,,,6,,,79,100
9952,note_off,,,,,64,0,8,,,,,1,,,79,100
9984,note_on,,,,,64,0,13,,,,,6,,,72,100
9984,note_on,,,,,0,0,15,,,,,7,,,75,100
9984,note_on,,,,,128,0,12,,,,,5,,,54,100
9984,note_on,,,,,128,0,15,,,,,7,,,69,100
9984,note_on,,,,,128,0,16,,,,,7,,,66,100
9984,note_on,,,,,0,0,13,,,,,6,,,81,100
9984,note_on,,,,,128,0,14,,,,,6,,,66,100
9984,note_on,,,,,32,0,8,,,,,1,,,81,100
9984,note_on,,,,,92,0,9,,,,,2,,,66,100
9984,note_on,,,,,128,0,11,,,,,4,,,66,100
10076,note_off,,,,,92,0,8,,,,,1,,,81,100
10080,note_on,,,,,4,0,8,,,,,1,,,78,100
10084,note_off,,,,,100,0,9,,,,,2,,,66,100
10112,note_off,,,,,128,0,13,,,,,6,,,72,100
10112,note_off,,,,,0,0,13,,,,,6,,,81,100
10172,note_off,,,,,92,0,8,,,,,1,,,78,100
10176,note_on,,,,,64,0,13,,,,,6,,,69,100
10176,note_on,,,,,0,0,13,,,,,6,,,78,100
10176,note_on,,,,,4,0,8,,,,,1,,,76,100
10176,note_on,,,,,92,0,9,,,,,2,,,81,100
10240,note_off,,,,,256,0,14,,,,,6,,,66,100
10240,note_off,,,,,256,0,16,,,,,7,,,66,100
10240,note_off,,,,,256,0,15,,,,,7,,,75,100
10240,note_off,,,,,256,0,11,,,,,4,,,66,100
10240,note_off,,,,,256,0,12,,,,,5,,,54,100
10268,note_off,,,,,92,0,8,,,,,1,,,76,100
10272,note_on,,,,,4,0,8,,,,,1,,,78,100
10276,note_off,,,,,100,0,9,,,,,2,,,81,100
10304,note_off,,,,,128,0,13,,,,,6,,,78,100
10336,note_off,,,,,64,0,8,,,,,1,,,78,100
10368,note_on,,,,,92,0,9,,,,,2,,,63,100
10368,note_on,,,,,32,0,8,,,,,1,,,81,100
10368,note_on,,,,,128,0,12,,,,,5,,,51,100
10368,note_on,,,,,128,0,11,,,,,4,,,63,100
10368,note_on,,,,,64,0,13,,,,,6,,,71,100
10368,note_on,,,,,128,0,14,,,,,6,,,63,100
10368,note_on,,,,,128,0,15,,,,,7,,,71,100
10368,note_on,,,,,128,0,16,,,,,7,,,63,100
10432,note_off,,,,,64,0,13,,,,,6,,,69,100
10460,note_off,,,,,92,0,8,,,,,1,,,81,100
10464,note_on,,,,,4,0,8,,,,,1,,,78,100
10468,note_off,,,,,100,0,9,,,,,2,,,63,100
10496,note_off,,,,,128,0,15,,,,,7,,,69,100
10496,note_off,,,,,64,0,13,,,,,6,,,71,100
10556,note_off,,,,,92,0,8,,,,,1,,,78,100
10560,note_on,,,,,92,0,9,,,,,2,,,81,100
10560,note_on,,,,,4,0,8,,,,,1,,,76,100
10560,note_on,,,,,64,0,13,,,,,6,,,78,100
10560,note_on,,,,,0,0,13,,,,,6,,,81,100
10624,note_off,,,,,256,0,11,,,,,4,,,63,100
10624,note_off,,,,,256,0,12,,,,,5,,,51,100
10624,note_off,,,,,256,0,16,,,,,7,,,63,100
10624,note_off,,,,,256,0,14,,,,,6,,,63,100
10624,note_off,,,,,128,0,15,,,,,7,,,71,100
10652,note_off,,,,,92,0,8,,,,,1,,,76,100
10656,note_on,,,,,4,0,8,,,,,1,,,78,100
10660,note_off,,,,,100,0,9,,,,,2,,,81,100
10688,note_off,,,,,0,0,13,,,,,6,,,81,100
10688,note_off,,,,,128,0,13,,,,,6,,,78,100
10720,note_off,,,,,64,0,8,,,,,1,,,78,100
10752,note_on,,,,,128,0,16,,,,,7,,,64,100
10752,note_on,,,,,128,0,11,,,,,4,,,64,100
10752,note_on,,,,,0,0,15,,,,,7,,,71,100
10752,note_on,,,,,64,0,13,,,,,6,,,79,100
10752,note_on,,,,,0,0,13,,,,,6,,,71,100
10752,note_on,,,,,128,0,15,,,,,7,,,67,100
10752,note_on,,,,,32,0,8,,,,,1,,,79,100
10752,note_on,,,,,128,0,12,,,,,5,,,52,100
10752,note_on,,,,,92,0,9,,,,,2,,,64,100
10752,note_on,,,,,128,0,14,,,,,6,,,64,100
10844,note_off,,,,,92,0,8,,,,,1,,,79,100
10848,note_on,,,,,4,0,8,,,,,1,,,76,100
10852,note_off,,,,,100,0,9,,,,,2,,,64,100
10940,note_off,,,,,92,0,8,,,,,1,,,76,100
10944,note_on,,,,,92,0,9,,,,,2,,,79,100
10944,note_on,,,,,4,0,8,,,,,1,,,75,100
10944,note_on,,,,,1472,0,10,,,,,3,,,71,100
11008,note_off,,,,,256,0,14,,,,,6,,,64,100
11008,note_off,,,,,256,0,16,,,,,7,,,64,100
11008,note_off,,,,,256,0,12,,,,,5,,,52,100
11008,note_off,,,,,256,0,11,,,,,4,,,64,100
11036,note_off,,,,,92,0,8,,,,,1,,,75,100
11040,note_on,,,,,4,0,8,,,,,1,,,76,100
11044,note_off,,,,,100,0,9,,,,,2,,,79,100
11044,note_off,,,,,100,0,10,,,,,3,,,71,100
11104,note_off,,,,,64,0,8,,,,,1,,,76,100
11136,note_on,,,,,92,0,10,,,,,3,,,64,100
11136,note_on,,,,,384,0,15,,,,,7,,,64,100
11136,note_on,,,,,92,0,9,,,,,2,,,60,100
11136,note_on,,,,,32,0,8,,,,,1,,,79,100
11136,note_on,,,,,128,0,14,,,,,6,,,60,100
11136,note_on,,,,,128,0,16,,,,,7,,,60,100
11136,note_on,,,,,128,0,11,,,,,4,,,60,100
11136,note_on,,,,,128,0,12,,,,,5,,,48,100
11136,note_off,,,,,384,0,13,,,,,6,,,79,100
11228,note_off,,,,,92,0,8,,,,,1,,,79,100
11232,note_on,,,,,4,0,8,,,,,1,,,76,100
11236,note_off,,,,,100,0,10,,,,,3,,,64,100
11236,note_off,,,,,100,0,9,,,,,2,,,60,100
11264,note_off,,,,,128,0,13,,,,,6,,,71,100
11264,note_off,,,,,128,0,15,,,,,7,,,67,100
11264,note_off,,,,,0,0,15,,,,,7,,,71,100
11324,note_off,,,,,92,0,8,,,,,1,,,76,100
11328,note_on,,,,,64,0,13,,,,,6,,,76,100
11328,note_on,,,,,92,0,10,,,,,3,,,71,100
11328,note_on,,,,,4,0,8,,,,,1,,,75,100
11328,note_on,,,,,92,0,9,,,,,2,,,79,100
11392,note_off,,,,,256,0,11,,,,,4,,,60,100
11392,note_off,,,,,128,0,15,,,,,7,,,64,100
11392,note_off,,,,,256,0,14,,,,,6,,,60,100
11392,note_off,,,,,256,0,16,,,,,7,,,60,100
11392,note_off,,,,,256,0,12,,,,,5,,,48,100
11420,note_off,,,,,92,0,8,,,,,1,,,75,100
11424,note_on,,,,,4,0,8,,,,,1,,,76,100
11428,note_off,,,,,100,0,9,,,,,2,,,79,100
11428,note_off,,,,,100,0,10,,,,,3,,,71,100
11456,note_off,,,,,128,0,13,,,,,6,,,76,100
11488,note_off,,,,,64,0,8,,,,,1,,,76,100
11520,note_on,,,,,128,0,14,,,,,6,,,62,100
11520,note_on,,,,,128,0,16,,,,,7,,,62,100
11520,note_on,,,,,0,0,15,,,,,7,,,69,100
11520,note_on,,,,,128,0,12,,,,,5,,,50,100
11520,note_on,,,,,92,0,10,,,,,3,,,69,100
11520,note_on,,,,,0,0,13,,,,,6,,,69,100
11520,note_on,,,,,92,0,9,,,,,2,,,62,100
11520,note_on,,,,,128,0,11,,,,,4,,,62,100
11520,note_on,,,,,128,0,15,,,,,7,,,66,100
11520,note_on,,,,,64,0,13,,,,,6,,,78,100
11520,note_on,,,,,32,0,8,,,,,1,,,78,100
11612,note_off,,,,,92,0,8,,,,,1,,,78,100
11616,note_on,,,,,4,0,8,,,,,1,,,74,100
11620,note_off,,,,,100,0,9,,,,,2,,,62,100
11620,note_off,,,,,100,0,10,,,,,3,,,69,100
11708,note_off,,,,,92,0,8,,,,,1,,,74,100
11712,note_on,,,,,4,0,8,,,,,1,,,73,100
11712,note_on,,,,,92,0,9,,,,,2,,,78,100
11712,note_on,,,,,92,0,10,,,,,3,,,69,100
11776,note_off,,,,,256,0,14,,,,,6,,,62,100
11776,note_off,,,,,256,0,12,,,,,5,,,50,100
11776,note_off,,,,,256,0,11,,,,,4,,,62,100
11776,note_off,,,,,256,0,16,,,,,7,,,62,100
11804,note_off,,,,,92,0,8,,,,,1,,,73,100
11808,note_on,,,,,4,0,8,,,,,1,,,74,99
11812,note_off,,,,,100,0,9,,,,,2,,,78,100
11812,note_off,,,,,100,0,10,,,,,3,,,69,100
11872,note_off,,,,,64,0,8,,,,,1,,,74,100
11904,note_on,,,,,384,0,15,,,,,7,,,62,100
11904,note_on,,,,,128,0,11,,,,,4,,,59,99
11904,note_on,,,,,128,0,12,,,,,5,,,47,99
11904,note_on,,,,,92,0,10,,,,,3,,,62,99
11904,note_on,,,,,92,0,9,,,,,2,,,59,99
11904,note_off,,,,,384,0,13,,,,,6,,,78,100
11904,note_on,,,,,128,0,14,,,,,6,,,59,100
11904,note_on,,,,,128,0,16,,,,,7,,,59,100
11904,note_on,,,,,32,0,8,,,,,1,,,78,99
11996,note_off,,,,,92,0,8,,,,,1,,,78,100
12000,note_on,,,,,4,0,8,,,,,1,,,74,98
12004,note_off,,,,,100,0,9,,,,,2,,,59,100
12004,note_off,,,,,100,0,10,,,,,3,,,62,100
12032,note_off,,,,,128,0,13,,,,,6,,,69,100
12032,note_off,,,,,128,0,15,,,,,7,,,66,100
12032,note_off,,,,,0,0,15,,,,,7,,,69,100
12092,note_off,,,,,92,0,8,,,,,1,,,74,100
12096,note_on,,,,,64,0,13,,,,,6,,,74,100
12096,note_on,,,,,92,0,9,,,,,2,,,78,98
12096,note_on,,,,,92,0,10,,,,,3,,,69,98
12096,note_on,,,,,4,0,8,,,,,1,,,73,98
12160,note_off,,,,,256,0,16,,,,,7,,,59,100
12160,note_off,,,,,256,0,12,,,,,5,,,47,100
12160,note_off,,,,,256,0,11,,,,,4,,,59,100
12160,note_off,,,,,256,0,14,,,,,6,,,59,100
12160,note_off,,,,,128,0,15,,,,,7,,,62,100
12188,note_off,,,,,92,0,8,,,,,1,,,73,100
12192,note_on,,,,,4,0,8,,,,,1,,,74,97
12196,note_off,,,,,100,0,10,,,,,3,,,69,100
12196,note_off,,,,,100,0,9,,,,,2,,,78,100
12224,note_off,,,,,128,0,13,,,,,6,,,74,100
12256,note_off,,,,,64,0,8,,,,,1,,,74,100
12288,note_on,,,,,92,0,10,,,,,3,,,67,97
12288,note_on,,,,,128,0,14,,,,,6,,,60,100
12288,note_on,,,,,128,0,12,,,,,5,,,48,97
12288,note_on,,,,,92,0,9,,,,,2,,,60,97
12288,note_on,,,,,0,0,15,,,,,7,,,67,100
12288,note_on,,,,,0,0,13,,,,,6,,,67,100
12288,note_on,,,,,32,0,8,,,,,1,,,76,97
12288,note_on,,,,,64,0,13,,,,,6,,,76,100
12288,note_on,,,,,128,0,11,,,,,4,,,60,97
12288,note_on,,,,,128,0,16,,,,,7,,,60,100
12288,note_on,,,,,128,0,15,,,,,7,,,64,100
12380,note_off,,,,,92,0,8,,,,,1,,,76,100
12384,note_on,,,,,4,0,8,,,,,1,,,72,96
12388,note_off,,,,,100,0,9,,,,,2,,,60,100
12388,note_off,,,,,100,0,10,,,,,3,,,67,100
12476,note_off,,,,,92,0,8,,,,,1,,,72,100
12480,note_on,,,,,92,0,9,,,,,2,,,76,96
12480,note_on,,,,,4,0,8,,,,,1,,,71,96
12480,note_on,,,,,92,0,10,,,,,3,,,67,96
12544,note_off,,,,,256,0,16,,,,,7,,,60,100
12544,note_off,,,,,256,0,14,,,,,6,,,60,100
12544,note_off,,,,,256,0,12,,,,,5,,,48,100
12544,note_off,,,,,256,0,11,,,,,4,,,60,100
12572,note_off,,,,,92,0,8,,,,,1,,,71,100
12576,note_on,,,,,4,0,8,,,,,1,,,72,95
12580,note_off,,,,,100,0,10,,,,,3,,,67,100
12580,note_off,,,,,100,0,9,,,,,2,,,76,100
12640,note_off,,,,,64,0,8,,,,,1,,,72,100
12672,note_on,,,,,128,0,12,,,,,5,,,45,95
12672,note_on,,,,,128,0,14,,,,,6,,,57,100
12672,note_on,,,,,32,0,8,,,,,1,,,76,95
12672,note_on,,,,,384,0,15,,,,,7,,,60,100
12672,note_on,,,,,92,0,9,,,,,2,,,57,95
12672,note_on,,,,,92,0,10,,,,,3,,,60,95
12672,note_on,,,,,128,0,11,,,,,4,,,57,95
12672,note_on,,,,,128,0,16,,,,,7,,,57,100
12672,note_off,,,,,384,0,13,,,,,6,,,76,100
12764,note_off,,,,,92,0,8,,,,,1,,,76,100
12768,note_on,,,,,4,0,8,,,,,1,,,79,94
12772,note_off,,,,,100,0,9,,,,,2,,,57,100
12772,note_off,,,,,100,0,10,,,,,3,,,60,100
12800,note_off,,,,,0,0,15,,,,,7,,,67,100
12800,note_off,,,,,128,0,15,,,,,7,,,64,100
12800,note_off,,,,,128,0,13,,,,,6,,,67,100
12860,note_off,,,,,92,0,8,,,,,1,,,79,100
12864,note_on,,,,,64,0,13,,,,,6,,,72,100
12864,note_on,,,,,92,0,9,,,,,2,,,76,94
12864,note_on,,,,,92,0,10,,,,,3,,,67,94
12864,note_on,,,,,4,0,8,,,,,1,,,78,94
12928,note_off,,,,,256,0,16,,,,,7,,,57,100
12928,note_off,,,,,256,0,11,,,,,4,,,57,100
12928,note_off,,,,,128,0,15,,,,,7,,,60,100
12928,note_off,,,,,256,0,14,,,,,6,,,57,100
12928,note_off,,,,,256,0,12,,,,,5,,,45,100
12956,note_off,,,,,92,0,8,,,,,1,,,78,100
12960,note_on,,,,,4,0,8,,,,,1,,,76,93
12964,note_off,,,,,100,0,10,,,,,3,,,67,100
12964,note_off,,,,,100,0,9,,,,,2,,,76,100
12992,note_off,,,,,128,0,13,,,,,6,,,72,100
13024,note_off,,,,,64,0,8,,,,,1,,,76,100
13056,note_on,,,,,64,0,13,,,,,6,,,75,100
13056,note_on,,,,,128,0,16,,,,,7,,,59,100
13056,note_on,,,,,128,0,12,,,,,5,,,47,92
13056,note_on,,,,,32,0,8,,,,,1,,,75,92
13056,note_on,,,,,92,0,9,,,,,2,,,59,92
13056,note_on,,,,,0,0,13,,,,,6,,,66,100
13056,note_on,,,,,92,0,10,,,,,3,,,66,92
13056,note_on,,,,,128,0,11,,,,,4,,,59,92
13056,note_on,,,,,128,0,14,,,,,6,,,59,100
13056,note_on,,,,,128,0,15,,,,,7,,,66,100
13056,note_on,,,,,0,0,15,,,,,7,,,63,100
13148,note_off,,,,,92,0,8,,,,,1,,,75,100
13152,note_on,,,,,4,0,8,,,,,1,,,78,92
13156,note_off,,,,,100,0,14,,,,,6,,,59,100
13156,note_off,,,,,100,0,12,,,,,5,,,47,100
13156,note_off,,,,,100,0,10,,,,,3,,,66,100
13156,note_off,,,,,100,0,16,,,,,7,,,59,100
13156,note_off,,,,,100,0,11,,,,,4,,,59,100
13244,note_off,,,,,92,0,8,,,,,1,,,78,100
13248,note_on,,,,,92,0,11,,,,,4,,,59,93
13248,note_on,,,,,92,0,16,,,,,7,,,59,100
13248,note_on,,,,,92,0,12,,,,,5,,,47,93
13248,note_on,,,,,92,0,10,,,,,3,,,63,93
13248,note_on,,,,,92,0,14,,,,,6,,,59,100
13248,note_on,,,,,4,0,8,,,,,1,,,76,93
13312,note_off,,,,,256,0,13,,,,,6,,,75,100
13312,note_off,,,,,256,0,9,,,,,2,,,59,100
13340,note_off,,,,,92,0,8,,,,,1,,,76,100
13344,note_on,,,,,4,0,8,,,,,1,,,78,94
13348,note_off,,,,,100,0,10,,,,,3,,,63,100
13348,note_off,,,,,100,0,14,,,,,6,,,59,100
13348,note_off,,,,,100,0,16,,,,,7,,,59,100
13348,note_off,,,,,100,0,11,,,,,4,,,59,100
13348,note_off,,,,,100,0,12,,,,,5,,,47,100
13408,note_off,,,,,64,0,8,,,,,1,,,78,100
13440,note_on,,,,,384,0,15,,,,,7,,,71,100
13440,note_on,,,,,92,0,14,,,,,6,,,51,100
13440,note_on,,,,,92,0,16,,,,,7,,,51,100
13440,note_on,,,,,92,0,11,,,,,4,,,51,95
13440,note_on,,,,,92,0,12,,,,,5,,,39,95
13440,note_on,,,,,128,0,13,,,,,6,,,71,100
13440,note_on,,,,,92,0,10,,,,,3,,,66,95
13440,note_on,,,,,32,0,8,,,,,1,,,71,95
13532,note_off,,,,,92,0,8,,,,,1,,,71,100
13536,note_on,,,,,4,0,8,,,,,1,,,81,96
13540,note_off,,,,,100,0,11,,,,,4,,,51,100
13540,note_off,,,,,100,0,12,,,,,5,,,39,100
13540,note_off,,,,,100,0,10,,,,,3,,,66,100
13540,note_off,,,,,100,0,14,,,,,6,,,51,100
13540,note_off,,,,,100,0,16,,,,,7,,,51,100
13568,note_off,,,,,128,0,13,,,,,6,,,66,100
13568,note_off,,,,,0,0,15,,,,,7,,,63,100
13568,note_off,,,,,128,0,15,,,,,7,,,66,100
13628,note_off,,,,,92,0,8,,,,,1,,,81,100
13632,note_on,,,,,92,0,12,,,,,5,,,47,97
13632,note_on,,,,,92,0,16,,,,,7,,,59,100
13632,note_on,,,,,92,0,10,,,,,3,,,63,97
13632,note_on,,,,,92,0,14,,,,,6,,,59,100
13632,note_on,,,,,92,0,11,,,,,4,,,59,97
13632,note_on,,,,,4,0,8,,,,,1,,,79,97
13696,note_off,,,,,128,0,15,,,,,7,,,71,100
13696,note_off,,,,,128,0,13,,,,,6,,,71,100
13724,note_off,,,,,92,0,8,,,,,1,,,79,100
13728,note_on,,,,,4,0,8,,,,,1,,,78,98
13732,note_off,,,,,100,0,14,,,,,6,,,59,100
13732,note_off,,,,,100,0,16,,,,,7,,,59,100
13732,note_off,,,,,100,0,10,,,,,3,,,63,100
13732,note_off,,,,,100,0,12,,,,,5,,,47,100
13732,note_off,,,,,100,0,11,,,,,4,,,59,100
13792,note_off,,,,,64,0,8,,,,,1,,,78,100
13824,note_on,,,,,128,0,13,,,,,6,,,76,100
13824,note_on,,,,,92,0,12,,,,,5,,,40,99
13824,note_on,,,,,0,0,13,,,,,6,,,67,100
13824,note_on,,,,,32,0,8,,,,,1,,,79,99
13824,note_on,,,,,0,0,15,,,,,7,,,67,100
13824,note_on,,,,,92,0,11,,,,,4,,,52,99
13824,note_on,,,,,92,0,14,,,,,6,,,52,100
13824,note_on,,,,,92,0,10,,,,,3,,,59,99
13824,note_on,,,,,512,0,9,,,,,2,,,83,99
13824,note_on,,,,,128,0,15,,,,,7,,,64,100
13824,note_on,,,,,92,0,16,,,,,7,,,52,100
13916,note_off,,,,,92,0,9,,,,,2,,,83,100
13920,note_on,,,,,4,0,9,,,,,2,,,79,100
13924,note_off,,,,,100,0,8,,,,,1,,,79,100
13952,note_off,,,,,128,0,13,,,,,6,,,76,100
14012,note_off,,,,,92,0,9,,,,,2,,,79,100
14016,note_on,,,,,4,0,9,,,,,2,,,78,100
14016,note_on,,,,,64,0,13,,,,,6,,,71,100
14016,note_on,,,,,92,0,8,,,,,1,,,83,100
14080,note_off,,,,,256,0,16,,,,,7,,,52,100
14080,note_off,,,,,64,0,13,,,,,6,,,67,100
14080,note_off,,,,,0,0,15,,,,,7,,,67,100
14080,note_off,,,,,256,0,15,,,,,7,,,64,100
14080,note_off,,,,,256,0,12,,,,,5,,,40,100
14080,note_off,,,,,256,0,10,,,,,3,,,59,100
14080,note_off,,,,,256,0,14,,,,,6,,,52,100
14080,note_off,,,,,256,0,11,,,,,4,,,52,100
14108,note_off,,,,,92,0,9,,,,,2,,,78,100
14112,note_on,,,,,4,0,9,,,,,2,,,79,100
14116,note_off,,,,,100,0,8,,,,,1,,,83,100
14144,note_off,,,,,64,0,13,,,,,6,,,71,100
14176,note_off,,,,,64,0,9,,,,,2,,,79,100
14208,note_on,,,,,128,0,12,,,,,5,,,52,100
14208,note_on,,,,,128,0,15,,,,,7,,,67,100
14208,note_on,,,,,64,0,13,,,,,6,,,76,100
14208,note_on,,,,,128,0,11,,,,,4,,,64,100
14208,note_on,,,,,128,0,16,,,,,7,,,64,100
14208,note_on,,,,,32,0,9,,,,,2,,,83,100
14208,note_on,,,,,0,0,13,,,,,6,,,67,100
14208,note_on,,,,,92,0,8,,,,,1,,,64,100
14208,note_on,,,,,128,0,14,,,,,6,,,64,100
14208,note_on,,,,,0,0,15,,,,,7,,,71,100
14300,note_off,,,,,92,0,9,,,,,2,,,83,100
14304,note_on,,,,,4,0,9,,,,,2,,,79,100
14308,note_off,,,,,100,0,8,,,,,1,,,64,100
14336,note_off,,,,,128,0,13,,,,,6,,,76,100
14396,note_off,,,,,92,0,9,,,,,2,,,79,100
14400,note_on,,,,,4,0,9,,,,,2,,,78,100
14400,note_on,,,,,64,0,13,,,,,6,,,71,100
14400,note_on,,,,,92,0,8,,,,,1,,,83,100
14464,note_off,,,,,0,0,15,,,,,7,,,71,100
14464,note_off,,,,,256,0,12,,,,,5,,,52,100
14464,note_off,,,,,64,0,13,,,,,6,,,67,100
14464,note_off,,,,,256,0,16,,,,,7,,,64,100
14464,note_off,,,,,256,0,14,,,,,6,,,64,100
14464,note_off,,,,,256,0,15,,,,,7,,,67,100
14464,note_off,,,,,256,0,11,,,,,4,,,64,100
14492,note_off,,,,,92,0,9,,,,,2,,,78,100
14496,note_on,,,,,4,0,9,,,,,2,,,79,100
14500,note_off,,,,,100,0,8,,,,,1,,,83,100
14528,note_off,,,,,64,0,13,,,,,6,,,71,100
14560,note_off,,,,,64,0,9,,,,,2,,,79,100
14592,note_on,,,,,128,0,11,,,,,4,,,66,100
14592,note_on,,,,,0,0,15,,,,,7,,,75,100
14592,note_on,,,,,128,0,15,,,,,7,,,69,100
14592,note_on,,,,,32,0,9,,,,,2,,,81,100
14592,note_on,,,,,64,0,13,,,,,6,,,75,100
14592,note_on,,,,,128,0,16,,,,,7,,,66,100
14592,note_on,,,,,92,0,8,,,,,1,,,66,100
14592,note_on,,,,,128,0,14,,,,,6,,,66,100
14592,note_on,,,,,0,0,13,,,,,6,,,69,100
14592,note_on,,,,,128,0,12,,,,,5,,,54,100
14684,note_off,,,,,92,0,9,,,,,2,,,81,100
14688,note_on,,,,,4,0,9,,,,,2,,,78,100
14692,note_off,,,,,100,0,8,,,,,1,,,66,100
14720,note_off,,,,,128,0,13,,,,,6,,,75,100
14780,note_off,,,,,92,0,9,,,,,2,,,78,100
14784,note_on,,,,,4,0,9,,,,,2,,,76,100
14784,note_on,,,,,64,0,13,,,,,6,,,71,100
14784,note_on,,,,,92,0,8,,,,,1,,,81,100
14848,note_off,,,,,64,0,13,,,,,6,,,69,100
14848,note_off,,,,,256,0,14,,,,,6,,,66,100
14848,note_off,,,,,256,0,11,,,,,4,,,66,100
14848,note_off,,,,,256,0,16,,,,,7,,,66,100
14848,note_off,,,,,256,0,12,,,,,5,,,54,100
14848,note_off,,,,,256,0,15,,,,,7,,,75,100
14876,note_off,,,,,92,0,9,,,,,2,,,76,100
14880,note_on,,,,,4,0,9,,,,,2,,,78,100
14884,note_off,,,,,100,0,8,,,,,1,,,81,100
14912,note_off,,,,,64,0,13,,,,,6,,,71,100
14944,note_off,,,,,64,0,9,,,,,2,,,78,100
14976,note_on,,,,,128,0,11,,,,,4,,,63,100
14976,note_on,,,,,128,0,16,,,,,7,,,63,100
14976,note_on,,,,,92,0,8,,,,,1,,,63,100
14976,note_on,,,,,128,0,14,,,,,6,,,63,100
14976,note_on,,,,,0,0,13,,,,,6,,,69,100
14976,note_on,,,,,64,0,13,,,,,6,,,78,100
14976,note_on,,,,,128,0,15,,,,,7,,,71,100
14976,note_on,,,,,32,0,9,,,,,2,,,81,100
14976,note_on,,,,,128,0,12,,,,,5,,,51,100
15068,note_off,,,,,92,0,9,,,,,2,,,81,100
15072,note_on,,,,,4,0,9,,,,,2,,,78,100
15076,note_off,,,,,100,0,8,,,,,1,,,63,100
15104,note_off,,,,,128,0,15,,,,,7,,,69,100
15104,note_off,,,,,128,0,13,,,,,6,,,78,100
15164,note_off,,,,,92,0,9,,,,,2,,,78,100
15168,note_on,,,,,92,0,8,,,,,1,,,81,100
15168,note_on,,,,,64,0,13,,,,,6,,,71,100
15168,note_on,,,,,4,0,9,,,,,2,,,76,100
15232,note_off,,,,,256,0,16,,,,,7,,,63,100
15232,note_off,,,,,256,0,12,,,,,5,,,51,100
15232,note_off,,,,,128,0,15,,,,,7,,,71,100
15232,note_off,,,,,64,0,13,,,,,6,,,69,100
15232,note_off,,,,,256,0,14,,,,,6,,,63,100
15232,note_off,,,,,256,0,11,,,,,4,,,63,100
15260,note_off,,,,,92,0,9,,,,,2,,,76,100
15264,note_on,,,,,4,0,9,,,,,2,,,78,100
15268,note_off,,,,,100,0,8,,,,,1,,,81,100
15296,note_off,,,,,64,0,13,,,,,6,,,71,100
15328,note_off,,,,,64,0,9,,,,,2,,,78,100
15360,note_on,,,,,128,0,14,,,,,6,,,64,100
15360,note_on,,,,,92,0,8,,,,,1,,,64,100
15360,note_on,,,,,64,0,13,,,,,6,,,76,100
15360,note_on,,,,,0,0,13,,,,,6,,,67,100
15360,note_on,,,,,128,0,16,,,,,7,,,64,100
15360,note_on,,,,,128,0,12,,,,,5,,,52,100
15360,note_on,,,,,128,0,11,,,,,4,,,64,100
15360,note_on,,,,,0,0,15,,,,,7,,,71,100
15360,note_on,,,,,32,0,9,,,,,2,,,79,100
15360,note_on,,,,,128,0,15,,,,,7,,,67,100
15452,note_off,,,,,92,0,9,,,,,2,,,79,100
15456,note_on,,,,,4,0,9,,,,,2,,,76,100
15460,note_off,,,,,100,0,8,,,,,1,,,64,100
15488,note_off,,,,,128,0,13,,,,,6,,,76,100
15548,note_off,,,,,92,0,9,,,,,2,,,76,100
15552,note_on,,,,,64,0,13,,,,,6,,,71,100
15552,note_on,,,,,4,0,9,,,,,2,,,75,100
15552,note_on,,,,,1472,0,10,,,,,3,,,71,100
15552,note_on,,,,,92,0,8,,,,,1,,,79,100
15616,note_off,,,,,256,0,14,,,,,6,,,64,100
15616,note_off,,,,,256,0,12,,,,,5,,,52,100
15616,note_off,,,,,256,0,11,,,,,4,,,64,100
15616,note_off,,,,,256,0,16,,,,,7,,,64,100
15616,note_off,,,,,64,0,13,,,,,6,,,67,100
15644,note_off,,,,,92,0,9,,,,,2,,,75,100
15648,note_on,,,,,4,0,9,,,,,2,,,76,100
15652,note_off,,,,,100,0,8,,,,,1,,,79,100
15652,note_off,,,,,100,0,10,,,,,3,,,71,100
15712,note_off,,,,,64,0,9,,,,,2,,,76,100
15744,note_on,,,,,128,0,13,,,,,6,,,64,100
15744,note_on,,,,,92,0,10,,,,,3,,,64,99
15744,note_on,,,,,128,0,12,,,,,5,,,48,99
15744,note_on,,,,,384,0,15,,,,,7,,,64,100
15744,note_on,,,,,92,0,8,,,,,1,,,60,99
15744,note_on,,,,,32,0,9,,,,,2,,,79,99
15744,note_on,,,,,128,0,14,,,,,6,,,60,100
15744,note_on,,,,,128,0,11,,,,,4,,,60,99
15744,note_on,,,,,128,0,16,,,,,7,,,60,100
15808,note_off,,,,,64,0,13,,,,,6,,,71,100
15836,note_off,,,,,92,0,9,,,,,2,,,79,100
15840,note_on,,,,,4,0,9,,,,,2,,,76,99
15844,note_off,,,,,100,0,8,,,,,1,,,60,100
15844,note_off,,,,,100,0,10,,,,,3,,,64,100
15872,note_off,,,,,128,0,15,,,,,7,,,67,100
15872,note_off,,,,,0,0,15,,,,,7,,,71,100
15932,note_off,,,,,92,0,9,,,,,2,,,76,100
15936,note_on,,,,,92,0,10,,,,,3,,,71,99
15936,note_on,,,,,128,0,13,,,,,6,,,76,100
15936,note_on,,,,,4,0,9,,,,,2,,,75,99
15936,note_on,,,,,92,0,8,,,,,1,,,79,99
16000,note_off,,,,,256,0,14,,,,,6,,,60,100
16000,note_off,,,,,256,0,16,,,,,7,,,60,100
16000,note_off,,,,,256,0,11,,,,,4,,,60,100
16000,note_off,,,,,128,0,15,,,,,7,,,64,100
16000,note_off,,,,,256,0,12,,,,,5,,,48,100
16000,note_off,,,,,64,0,13,,,,,6,,,64,100
16028,note_off,,,,,92,0,9,,,,,2,,,75,100
16032,note_on,,,,,4,0,9,,,,,2,,,76,98
16036,note_off,,,,,100,0,8,,,,,1,,,79,100
16036,note_off,,,,,100,0,10,,,,,3,,,71,100
16064,note_off,,,,,64,0,13,,,,,6,,,76,100
16096,note_off,,,,,64,0,9,,,,,2,,,76,100
16128,note_on,,,,,128,0,14,,,,,6,,,62,100
16128,note_on,,,,,32,0,9,,,,,2,,,78,98
16128,note_on,,,,,128,0,15,,,,,7,,,66,100
16128,note_on,,,,,128,0,16,,,,,7,,,62,100
16128,note_on,,,,,64,0,13,,,,,6,,,74,100
16128,note_on,,,,,0,0,13,,,,,6,,,66,100
16128,note_on,,,,,0,0,15,,,,,7,,,69,100
16128,note_on,,,,,128,0,12,,,,,5,,,50,98
16128,note_on,,,,,128,0,11,,,,,4,,,62,98
16128,note_on,,,,,92,0,8,,,,,1,,,62,98
16128,note_on,,,,,92,0,10,,,,,3,,,69,98
16220,note_off,,,,,92,0,9,,,,,2,,,78,100
16224,note_on,,,,,4,0,9,,,,,2,,,74,98
16228,note_off,,,,,100,0,10,,,,,3,,,69,100
16228,note_off,,,,,100,0,8,,,,,1,,,62,100
16256,note_off,,,,,128,0,13,,,,,6,,,74,100
16316,note_off,,,,,92,0,9,,,,,2,,,74,100
16320,note_on,,,,,92,0,10,,,,,3,,,69,97
16320,note_on,,,,,64,0,13,,,,,6,,,69,100
16320,note_on,,,,,92,0,8,,,,,1,,,78,97
16320,note_on,,,,,4,0,9,,,,,2,,,73,97
16384,note_off,,,,,256,0,11,,,,,4,,,62,100
16384,note_off,,,,,256,0,16,,,,,7,,,62,100
16384,note_off,,,,,256,0,14,,,,,6,,,62,100
16384,note_off,,,,,256,0,12,,,,,5,,,50,100
16384,note_off,,,,,64,0,13,,,,,6,,,66,100
16412,note_off,,,,,92,0,9,,,,,2,,,73,100
16416,note_on,,,,,4,0,9,,,,,2,,,74,97
16420,note_off,,,,,100,0,8,,,,,1,,,78,100
16420,note_off,,,,,100,0,10,,,,,3,,,69,100
16480,note_off,,,,,64,0,9,,,,,2,,,74,100
16512,note_on,,,,,92,0,8,,,,,1,,,59,97
16512,note_on,,,,,32,0,9,,,,,2,,,78,97
16512,note_on,,,,,128,0,16,,,,,7,,,59,100
16512,note_on,,,,,92,0,10,,,,,3,,,62,97
16512,note_on,,,,,128,0,11,,,,,4,,,59,97
16512,note_on,,,,,128,0,12,,,,,5,,,47,97
16512,note_on,,,,,128,0,13,,,,,6,,,62,100
16512,note_on,,,,,384,0,15,,,,,7,,,62,100
16512,note_on,,,,,128,0,14,,,,,6,,,59,100
16576,note_off,,,,,64,0,13,,,,,6,,,69,100
16604,note_off,,,,,92,0,9,,,,,2,,,78,100
16608,note_on,,,,,4,0,9,,,,,2,,,74,96
16612,note_off,,,,,100,0,10,,,,,3,,,62,100
16612,note_off,,,,,100,0,8,,,,,1,,,59,100
16640,note_off,,,,,0,0,15,,,,,7,,,69,100
16640,note_off,,,,,128,0,15,,,,,7,,,66,100
16700,note_off,,,,,92,0,9,,,,,2,,,74,100
16704,note_on,,,,,92,0,10,,,,,3,,,69,96
16704,note_on,,,,,128,0,13,,,,,6,,,74,100
16704,note_on,,,,,92,0,8,,,,,1,,,78,96
16704,note_on,,,,,4,0,9,,,,,2,,,73,96
16768,note_off,,,,,128,0,15,,,,,7,,,62,100
16768,note_off,,,,,64,0,13,,,,,6,,,62,100
16768,note_off,,,,,256,0,11,,,,,4,,,59,100
16768,note_off,,,,,256,0,12,,,,,5,,,47,100
16768,note_off,,,,,256,0,14,,,,,6,,,59,100
16768,note_off,,,,,256,0,16,,,,,7,,,59,100
16796,note_off,,,,,92,0,9,,,,,2,,,73,100
16800,note_on,,,,,4,0,9,,,,,2,,,74,96
16804,note_off,,,,,100,0,10,,,,,3,,,69,100
16804,note_off,,,,,100,0,8,,,,,1,,,78,100
16832,note_off,,,,,64,0,13,,,,,6,,,74,100
16864,note_off,,,,,64,0,9,,,,,2,,,74,100
16896,note_on,,,,,128,0,16,,,,,7,,,60,100
16896,note_on,,,,,128,0,15,,,,,7,,,64,100
16896,note_on,,,,,0,0,15,,,,,7,,,67,100
16896,note_on,,,,,32,0,9,,,,,2,,,76,95
16896,note_on,,,,,92,0,8,,,,,1,,,60,95
16896,note_on,,,,,92,0,10,,,,,3,,,67,95
16896,note_on,,,,,64,0,13,,,,,6,,,72,100
16896,note_on,,,,,0,0,13,,,,,6,,,64,100
16896,note_on,,,,,128,0,11,,,,,4,,,60,95
16896,note_on,,,,,128,0,14,,,,,6,,,60,100
16896,note_on,,,,,128,0,12,,,,,5,,,48,95
16988,note_off,,,,,92,0,9,,,,,2,,,76,100
16992,note_on,,,,,4,0,9,,,,,2,,,72,95
16996,note_off,,,,,100,0,10,,,,,3,,,67,100
16996,note_off,,,,,100,0,8,,,,,1,,,60,100
17024,note_off,,,,,128,0,13,,,,,6,,,72,100
17084,note_off,,,,,92,0,9,,,,,2,,,72,100
17088,note_on,,,,,4,0,9,,,,,2,,,71,95
17088,note_on,,,,,92,0,8,,,,,1,,,76,95
17088,note_on,,,,,64,0,13,,,,,6,,,67,100
17088,note_on,,,,,92,0,10,,,,,3,,,67,95
17152,note_off,,,,,256,0,14,,,,,6,,,60,100
17152,note_off,,,,,64,0,13,,,,,6,,,64,100
17152,note_off,,,,,256,0,11,,,,,4,,,60,100
17152,note_off,,,,,256,0,16,,,,,7,,,60,100
17152,note_off,,,,,256,0,12,,,,,5,,,48,100
17180,note_off,,,,,92,0,9,,,,,2,,,71,100
17184,note_on,,,,,4,0,9,,,,,2,,,72,94
17188,note_off,,,,,100,0,10,,,,,3,,,67,100
17188,note_off,,,,,100,0,8,,,,,1,,,76,100
17248,note_off,,,,,64,0,9,,,,,2,,,72,100
17280,note_on,,,,,32,0,9,,,,,2,,,76,94
17280,note_on,,,,,128,0,11,,,,,4,,,57,94
17280,note_on,,,,,128,0,14,,,,,6,,,57,100
17280,note_on,,,,,128,0,12,,,,,5,,,45,94
17280,note_on,,,,,384,0,15,,,,,7,,,60,100
17280,note_on,,,,,128,0,13,,,,,6,,,60,100
17280,note_on,,,,,128,0,16,,,,,7,,,57,100
17280,note_on,,,,,92,0,8,,,,,1,,,57,94
17280,note_on,,,,,92,0,10,,,,,3,,,60,94
17344,note_off,,,,,64,0,13,,,,,6,,,67,100
17372,note_off,,,,,92,0,9,,,,,2,,,76,100
17376,note_on,,,,,4,0,9,,,,,2,,,79,94
17380,note_off,,,,,100,0,10,,,,,3,,,60,100
17380,note_off,,,,,100,0,8,,,,,1,,,57,100
17408,note_off,,,,,128,0,15,,,,,7,,,64,100
17408,note_off,,,,,64,0,13,,,,,6,,,60,100
17408,note_off,,,,,0,0,15,,,,,7,,,67,100
17468,note_off,,,,,92,0,9,,,,,2,,,79,100
17472,note_on,,,,,0,0,13,,,,,6,,,72,100
17472,note_on,,,,,64,0,13,,,,,6,,,64,100
17472,note_on,,,,,92,0,10,,,,,3,,,67,93
17472,note_on,,,,,4,0,9,,,,,2,,,78,93
17472,note_on,,,,,92,0,8,,,,,1,,,76,93
17536,note_off,,,,,128,0,15,,,,,7,,,60,100
17536,note_off,,,,,256,0,12,,,,,5,,,45,100
17536,note_off,,,,,256,0,14,,,,,6,,,57,100
17536,note_off,,,,,256,0,11,,,,,4,,,57,100
17536,note_off,,,,,256,0,16,,,,,7,,,57,100
17564,note_off,,,,,92,0,9,,,,,2,,,78,100
17568,note_on,,,,,4,0,9,,,,,2,,,76,93
17572,note_off,,,,,100,0,10,,,,,3,,,67,100
17572,note_off,,,,,100,0,8,,,,,1,,,76,100
17600,note_off,,,,,0,0,13,,,,,6,,,72,100
17600,note_off,,,,,128,0,13,,,,,6,,,64,100
17632,note_off,,,,,64,0,9,,,,,2,,,76,100
17664,note_on,,,,,128,0,15,,,,,7,,,66,100
17664,note_on,,,,,0,0,15,,,,,7,,,63,100
17664,note_on,,,,,0,0,13,,,,,6,,,63,100
17664,note_on,,,,,64,0,13,,,,,6,,,71,100
17664,note_on,,,,,32,0,9,,,,,2,,,75,92
17664,note_on,,,,,128,0,11,,,,,4,,,59,92
17664,note_on,,,,,128,0,12,,,,,5,,,47,92
17664,note_on,,,,,128,0,14,,,,,6,,,59,100
17664,note_on,,,,,92,0,8,,,,,1,,,59,92
17664,note_on,,,,,128,0,16,,,,,7,,,59,100
17664,note_on,,,,,92,0,10,,,,,3,,,66,92
17756,note_off,,,,,92,0,9,,,,,2,,,75,100
17760,note_on,,,,,4,0,9,,,,,2,,,78,93
17764,note_off,,,,,100,0,14,,,,,6,,,59,100
17764,note_off,,,,,100,0,16,,,,,7,,,59,100
17764,note_off,,,,,100,0,10,,,,,3,,,66,100
17764,note_off,,,,,100,0,11,,,,,4,,,59,100
17764,note_off,,,,,100,0,12,,,,,5,,,47,100
17852,note_off,,,,,92,0,9,,,,,2,,,78,100
17856,note_on,,,,,92,0,14,,,,,6,,,59,100
17856,note_on,,,,,92,0,10,,,,,3,,,63,95
17856,note_on,,,,,92,0,11,,,,,4,,,59,95
17856,note_on,,,,,4,0,9,,,,,2,,,76,95
17856,note_on,,,,,92,0,12,,,,,5,,,47,95
17856,note_on,,,,,92,0,16,,,,,7,,,59,100
17920,note_off,,,,,256,0,8,,,,,1,,,59,100
17920,note_off,,,,,256,0,13,,,,,6,,,63,100
17948,note_off,,,,,92,0,9,,,,,2,,,76,100
17952,note_on,,,,,4,0,9,,,,,2,,,78,96
17956,note_off,,,,,100,0,12,,,,,5,,,47,100
17956,note_off,,,,,100,0,10,,,,,3,,,63,100
17956,note_off,,,,,100,0,16,,,,,7,,,59,100
17956,note_off,,,,,100,0,14,,,,,6,,,59,100
17956,note_off,,,,,100,0,11,,,,,4,,,59,100
18016,note_off,,,,,64,0,9,,,,,2,,,78,100
18048,note_on,,,,,92,0,16,,,,,7,,,51,100
18048,note_on,,,,,92,0,10,,,,,3,,,66,98
18048,note_on,,,,,32,0,9,,,,,2,,,71,98
18048,note_on,,,,,92,0,12,,,,,5,,,39,98
18048,note_on,,,,,92,0,14,,,,,6,,,51,100
18048,note_on,,,,,128,0,13,,,,,6,,,66,100
18048,note_on,,,,,92,0,11,,,,,4,,,51,98
18048,note_on,,,,,384,0,15,,,,,7,,,71,100
18140,note_off,,,,,92,0,9,,,,,2,,,71,100
18144,note_on,,,,,4,0,9,,,,,2,,,81,100
18148,note_off,,,,,100,0,10,,,,,3,,,66,100
18148,note_off,,,,,100,0,12,,,,,5,,,39,100
18148,note_off,,,,,100,0,11,,,,,4,,,51,100
18148,note_off,,,,,100,0,16,,,,,7,,,51,100
18148,note_off,,,,,100,0,14,,,,,6,,,51,100
18176,note_off,,,,,128,0,15,,,,,7,,,66,100
18176,note_off,,,,,0,0,15,,,,,7,,,63,100
18176,note_off,,,,,128,0,13,,,,,6,,,71,100
18176,note_off,,,,,0,0,13,,,,,6,,,66,100
18236,note_off,,,,,92,0,9,,,,,2,,,81,100
18240,note_on,,,,,92,0,16,,,,,7,,,59,100
18240,note_on,,,,,4,0,9,,,,,2,,,79,101
18240,note_on,,,,,320,0,8,,,,,1,,,83,101
18240,note_on,,,,,64,0,13,,,,,6,,,63,100
18240,note_on,,,,,92,0,14,,,,,6,,,59,100
18240,note_on,,,,,92,0,10,,,,,3,,,63,101
18240,note_on,,,,,92,0,11,,,,,4,,,59,101
18240,note_on,,,,,92,0,12,,,,,5,,,47,101
18304,note_off,,,,,128,0,15,,,,,7,,,71,100
18332,note_off,,,,,92,0,9,,,,,2,,,79,100
18336,note_on,,,,,4,0,9,,,,,2,,,78,103
18340,note_off,,,,,100,0,14,,,,,6,,,59,100
18340,note_off,,,,,100,0,12,,,,,5,,,47,100
18340,note_off,,,,,100,0,10,,,,,3,,,63,100
18340,note_off,,,,,100,0,16,,,,,7,,,59,100
18340,note_off,,,,,100,0,11,,,,,4,,,59,100
18340,note_off,,,,,100,0,8,,,,,1,,,83,100
18368,note_off,,,,,128,0,13,,,,,6,,,63,100
18400,note_off,,,,,64,0,9,,,,,2,,,78,100
18432,note_on,,,,,92,0,16,,,,,7,,,52,100
18432,note_on,,,,,92,0,11,,,,,4,,,52,105
18432,note_on,,,,,92,0,10,,,,,3,,,59,105
18432,note_on,,,,,0,0,15,,,,,7,,,71,100
18432,note_on,,,,,92,0,12,,,,,5,,,40,105
18432,note_on,,,,,92,0,8,,,,,1,,,83,105
18432,note_on,,,,,128,0,15,,,,,7,,,64,100
18432,note_on,,,,,0,0,15,,,,,7,,,67,100
18432,note_on,,,,,0,0,13,,,,,6,,,67,100
18432,note_on,,,,,32,0,9,,,,,2,,,79,105
18432,note_on,,,,,92,0,14,,,,,6,,,52,100
18432,note_on,,,,,64,0,13,,,,,6,,,64,100
18496,note_off,,,,,64,0,8,,,,,1,,,83,100
18528,note_on,,,,,32,0,8,,,,,1,,,81,105
18560,note_off,,,,,128,0,11,,,,,4,,,52,100
18560,note_off,,,,,128,0,12,,,,,5,,,40,100
18560,note_off,,,,,128,0,14,,,,,6,,,52,100
18560,note_off,,,,,128,0,16,,,,,7,,,52,100
18592,note_off,,,,,64,0,8,,,,,1,,,81,100
18624,note_on,,,,,64,0,14,,,,,6,,,52,100
18624,note_on,,,,,64,0,16,,,,,7,,,52,100
18624,note_on,,,,,64,0,11,,,,,4,,,52,105
18624,note_on,,,,,64,0,12,,,,,5,,,40,105
18624,note_on,,,,,32,0,8,,,,,1,,,79,105
18688,note_off,,,,,256,0,9,,,,,2,,,79,100
18688,note_off,,,,,0,0,13,,,,,6,,,67,100
18688,note_off,,,,,64,0,8,,,,,1,,,79,100
18688,note_off,,,,,256,0,13,,,,,6,,,64,100
18688,note_off,,,,,256,0,10,,,,,3,,,59,100
18720,note_on,,,,,32,0,8,,,,,1,,,78,105
18752,note_off,,,,,128,0,14,,,,,6,,,52,100
18752,note_off,,,,,128,0,11,,,,,4,,,52,100
18752,note_off,,,,,128,0,16,,,,,7,,,52,100
18752,note_off,,,,,128,0,12,,,,,5,,,40,100
18784,note_off,,,,,64,0,8,,,,,1,,,78,100
18816,note_on,,,,,128,0,13,,,,,6,,,79,100
18816,note_on,,,,,64,0,14,,,,,6,,,52,100
18816,note_on,,,,,32,0,8,,,,,1,,,76,105
18816,note_on,,,,,64,0,16,,,,,7,,,52,100
18816,note_on,,,,,64,0,11,,,,,4,,,52,105
18816,note_on,,,,,64,0,12,,,,,5,,,40,105
18816,note_on,,,,,128,0,10,,,,,3,,,67,105
18944,note_off,,,,,128,0,11,,,,,4,,,52,100
18944,note_off,,,,,128,0,14,,,,,6,,,52,100
18944,note_off,,,,,128,0,8,,,,,1,,,76,100
18944,note_off,,,,,128,0,16,,,,,7,,,52,100
18944,note_off,,,,,128,0,12,,,,,5,,,40,100
19008,note_on,,,,,64,0,11,,,,,4,,,52,104
19008,note_on,,,,,320,0,9,,,,,2,,,76,104
19008,note_on,,,,,64,0,16,,,,,7,,,52,100
19008,note_on,,,,,64,0,14,,,,,6,,,52,100
19008,note_on,,,,,64,0,8,,,,,1,,,74,104
19008,note_on,,,,,64,0,12,,,,,5,,,40,104
19044,note_off,,,,,612,0,15,,,,,7,,,64,100
19044,note_off,,,,,0,0,15,,,,,7,,,67,100
19044,note_off,,,,,0,0,15,,,,,7,,,71,100
19072,note_off,,,,,256,0,13,,,,,6,,,79,100
19108,note_off,,,,,100,0,9,,,,,2,,,76,100
19136,note_off,,,,,128,0,16,,,,,7,,,52,100
19136,note_off,,,,,128,0,12,,,,,5,,,40,100
19136,note_off,,,,,128,0,11,,,,,4,,,52,100
19136,note_off,,,,,128,0,8,,,,,1,,,74,100
19136,note_off,,,,,128,0,14,,,,,6,,,52,100
19200,note_on,,,,,64,0,8,,,,,1,,,72,104
19200,note_on,,,,,64,0,14,,,,,6,,,45,100
19200,note_on,,,,,128,0,13,,,,,6,,,69,100
19200,note_on,,,,,64,0,16,,,,,7,,,45,100
19200,note_on,,,,,92,0,9,,,,,2,,,76,104
19200,note_on,,,,,156,0,15,,,,,7,,,79,100
19200,note_on,,,,,0,0,15,,,,,7,,,72,100
19200,note_on,,,,,64,0,11,,,,,4,,,45,104
19200,note_on,,,,,64,0,12,,,,,5,,,33,104
19200,note_on,,,,,0,0,15,,,,,7,,,69,100
19228,note_on,,,,,28,0,13,,,,,6,,,72,100
19260,note_on,,,,,32,0,13,,,,,6,,,79,100
19264,note_off,,,,,64,0,9,,,,,2,,,76,100
19296,note_on,,,,,32,0,9,,,,,2,,,74,103
19328,note_off,,,,,128,0,12,,,,,5,,,33,100
19328,note_off,,,,,128,0,14,,,,,6,,,45,100
19328,note_off,,,,,128,0,16,,,,,7,,,45,100
19328,note_off,,,,,128,0,11,,,,,4,,,45,100
19360,note_off,,,,,64,0,9,,,,,2,,,74,100
19392,note_on,,,,,64,0,14,,,,,6,,,45,100
19392,note_on,,,,,64,0,11,,,,,4,,,45,103
19392,note_on,,,,,32,0,9,,,,,2,,,72,103
19392,note_on,,,,,64,0,12,,,,,5,,,33,103
19392,note_on,,,,,64,0,16,,,,,7,,,45,100
19428,note_off,,,,,612,0,10,,,,,3,,,67,100
19456,note_off,,,,,64,0,9,,,,,2,,,72,100
19488,note_on,,,,,32,0,9,,,,,2,,,71,103
19520,note_off,,,,,128,0,11,,,,,4,,,45,100
19520,note_off,,,,,128,0,12,,,,,5,,,33,100
19520,note_off,,,,,128,0,16,,,,,7,,,45,100
19520,note_off,,,,,128,0,14,,,,,6,,,45,100
19552,note_off,,,,,64,0,9,,,,,2,,,71,100
19584,note_on,,,,,64,0,11,,,,,4,,,45,103
19584,note_on,,,,,156,0,10,,,,,3,,,60,103
19584,note_on,,,,,64,0,12,,,,,5,,,33,103
19584,note_on,,,,,64,0,16,,,,,7,,,45,100
19584,note_on,,,,,64,0,14,,,,,6,,,45,100
19584,note_on,,,,,32,0,9,,,,,2,,,69,103
19660,note_off,,,,,460,0,8,,,,,1,,,72,100
19708,note_off,,,,,0,0,13,,,,,6,,,79,100
19708,note_off,,,,,448,0,13,,,,,6,,,72,100
19712,note_off,,,,,128,0,11,,,,,4,,,45,100
19712,note_off,,,,,128,0,14,,,,,6,,,45,100
19712,note_off,,,,,128,0,12,,,,,5,,,33,100
19712,note_off,,,,,4,0,13,,,,,6,,,69,100
19712,note_off,,,,,128,0,16,,,,,7,,,45,100
19712,note_off,,,,,128,0,9,,,,,2,,,69,100
19776,note_on,,,,,64,0,14,,,,,6,,,45,100
19776,note_on,,,,,64,0,9,,,,,2,,,67,102
19776,note_on,,,,,64,0,11,,,,,4,,,45,102
19776,note_on,,,,,64,0,12,,,,,5,,,33,102
19776,note_on,,,,,64,0,16,,,,,7,,,45,100
19776,note_on,,,,,116,0,8,,,,,1,,,81,102
19812,note_off,,,,,0,0,15,,,,,7,,,72,100
19812,note_off,,,,,612,0,15,,,,,7,,,79,100
19812,note_off,,,,,0,0,15,,,,,7,,,69,100
19876,note_off,,,,,100,0,8,,,,,1,,,81,100
19904,note_off,,,,,128,0,16,,,,,7,,,45,100
19904,note_off,,,,,128,0,9,,,,,2,,,67,100
19904,note_off,,,,,128,0,11,,,,,4,,,45,100
19904,note_off,,,,,128,0,12,,,,,5,,,33,100
19904,note_off,,,,,128,0,14,,,,,6,,,45,100
19968,note_on,,,,,64,0,14,,,,,6,,,50,100
19968,note_on,,,,,64,0,16,,,,,7,,,50,100
19968,note_on,,,,,64,0,11,,,,,4,,,50,102
19968,note_on,,,,,64,0,12,,,,,5,,,38,102
19968,note_on,,,,,64,0,9,,,,,2,,,66,102
19968,note_on,,,,,156,0,15,,,,,7,,,69,100
19968,note_on,,,,,0,0,15,,,,,7,,,72,100
19968,note_on,,,,,256,0,13,,,,,6,,,69,100
19968,note_on,,,,,0,0,15,,,,,7,,,78,100
19968,note_on,,,,,92,0,8,,,,,1,,,81,102
19996,note_on,,,,,28,0,13,,,,,6,,,72,100
20028,note_on,,,,,32,0,13,,,,,6,,,78,100
20032,note_off,,,,,64,0,8,,,,,1,,,81,100
20064,note_on,,,,,32,0,8,,,,,1,,,79,101
20096,note_off,,,,,128,0,14,,,,,6,,,50,100
20096,note_off,,,,,128,0,11,,,,,4,,,50,100
20096,note_off,,,,,128,0,12,,,,,5,,,38,100
20096,note_off,,,,,128,0,16,,,,,7,,,50,100
20128,note_off,,,,,64,0,8,,,,,1,,,79,100
20160,note_on,,,,,64,0,12,,,,,5,,,38,101
20160,note_on,,,,,32,0,8,,,,,1,,,78,101
20160,note_on,,,,,64,0,11,,,,,4,,,50,101
20160,note_on,,,,,64,0,14,,,,,6,,,50,100
20160,note_on,,,,,64,0,16,,,,,7,,,50,100
20196,note_off,,,,,612,0,10,,,,,3,,,60,100
20224,note_off,,,,,64,0,8,,,,,1,,,78,100
20256,note_on,,,,,32,0,8,,,,,1,,,76,101
20288,note_off,,,,,128,0,16,,,,,7,,,50,100
20288,note_off,,,,,128,0,14,,,,,6,,,50,100
20288,note_off,,,,,128,0,11,,,,,4,,,50,100
20288,note_off,,,,,128,0,12,,,,,5,,,38,100
20320,note_off,,,,,64,0,8,,,,,1,,,76,100
20352,note_on,,,,,64,0,16,,,,,7,,,50,100
20352,note_on,,,,,64,0,11,,,,,4,,,50,101
20352,note_on,,,,,156,0,10,,,,,3,,,66,101
20352,note_on,,,,,64,0,12,,,,,5,,,38,101
20352,note_on,,,,,64,0,14,,,,,6,,,50,100
20352,note_on,,,,,32,0,8,,,,,1,,,74,101
20428,note_off,,,,,460,0,9,,,,,2,,,66,100
20476,note_off,,,,,0,0,13,,,,,6,,,78,100
20476,note_off,,,,,448,0,13,,,,,6,,,72,100
20480,note_off,,,,,128,0,11,,,,,4,,,50,100
20480,note_off,,,,,128,0,12,,,,,5,,,38,100
20480,note_off,,,,,128,0,8,,,,,1,,,74,100
20480,note_off,,,,,128,0,14,,,,,6,,,50,100
20480,note_off,,,,,128,0,16,,,,,7,,,50,100
20480,note_off,,,,,4,0,13,,,,,6,,,69,100
20544,note_on,,,,,116,0,9,,,,,2,,,74,100
20544,note_on,,,,,64,0,11,,,,,4,,,50,100
20544,note_on,,,,,64,0,12,,,,,5,,,38,100
20544,note_on,,,,,64,0,16,,,,,7,,,50,100
20544,note_on,,,,,64,0,14,,,,,6,,,50,100
20544,note_on,,,,,64,0,8,,,,,1,,,72,100
20580,note_off,,,,,612,0,15,,,,,7,,,69,100
20580,note_off,,,,,0,0,15,,,,,7,,,78,100
20580,note_off,,,,,0,0,15,,,,,7,,,72,100
20644,note_off,,,,,100,0,9,,,,,2,,,74,100
20672,note_off,,,,,128,0,16,,,,,7,,,50,100
20672,note_off,,,,,128,0,11,,,,,4,,,50,100
20672,note_off,,,,,128,0,14,,,,,6,,,50,100
20672,note_off,,,,,128,0,12,,,,,5,,,38,100
20672,note_off,,,,,128,0,8,,,,,1,,,72,100
20736,note_on,,,,,64,0,8,,,,,1,,,71,100
20736,note_on,,,,,256,0,13,,,,,6,,,71,100
20736,note_on,,,,,0,0,15,,,,,7,,,74,100
20736,note_on,,,,,64,0,16,,,,,7,,,43,100
20736,note_on,,,,,92,0,9,,,,,2,,,74,100
20736,note_on,,,,,64,0,14,,,,,6,,,43,100
20736,note_on,,,,,0,0,15,,,,,7,,,78,100
20736,note_on,,,,,64,0,11,,,,,4,,,43,100
20736,note_on,,,,,64,0,12,,,,,5,,,43,100
20736,note_on,,,,,156,0,15,,,,,7,,,71,100
20764,note_on,,,,,28,0,13,,,,,6,,,74,100
20796,note_on,,,,,32,0,13,,,,,6,,,78,100
20800,note_off,,,,,64,0,9,,,,,2,,,74,100
20832,note_on,,,,,32,0,9,,,,,2,,,72,99
20864,note_off,,,,,128,0,12,,,,,5,,,43,100
20864,note_off,,,,,128,0,11,,,,,4,,,43,100
20864,note_off,,,,,128,0,16,,,,,7,,,43,100
20864,note_off,,,,,128,0,14,,,,,6,,,43,100
20896,note_off,,,,,64,0,9,,,,,2,,,72,100
20928,note_on,,,,,64,0,16,,,,,7,,,43,100
20928,note_on,,,,,64,0,12,,,,,5,,,43,99
20928,note_on,,,,,64,0,11,,,,,4,,,43,99
20928,note_on,,,,,32,0,9,,,,,2,,,71,99
20928,note_on,,,,,64,0,14,,,,,6,,,43,100
20964,note_off,,,,,612,0,10,,,,,3,,,66,100
20992,note_off,,,,,64,0,9,,,,,2,,,71,100
21024,note_on,,,,,32,0,9,,,,,2,,,69,99
21056,note_off,,,,,128,0,16,,,,,7,,,43,100
21056,note_off,,,,,128,0,14,,,,,6,,,43,100
21056,note_off,,,,,128,0,12,,,,,5,,,43,100
21056,note_off,,,,,128,0,11,,,,,4,,,43,100
21088,note_off,,,,,64,0,9,,,,,2,,,69,100
21120,note_on,,,,,32,0,9,,,,,2,,,67,99
21120,note_on,,,,,64,0,16,,,,,7,,,43,100
21120,note_on,,,,,64,0,14,,,,,6,,,43,100
21120,note_on,,,,,64,0,11,,,,,4,,,43,99
21120,note_on,,,,,64,0,12,,,,,5,,,43,99
21120,note_on,,,,,156,0,10,,,,,3,,,59,99
21196,note_off,,,,,460,0,8,,,,,1,,,71,100
21244,note_off,,,,,448,0,13,,,,,6,,,74,100
21244,note_off,,,,,0,0,13,,,,,6,,,78,100
21248,note_off,,,,,128,0,11,,,,,4,,,43,100
21248,note_off,,,,,128,0,9,,,,,2,,,67,100
21248,note_off,,,,,4,0,13,,,,,6,,,71,100
21248,note_off,,,,,128,0,12,,,,,5,,,43,100
21248,note_off,,,,,128,0,14,,,,,6,,,43,100
21248,note_off,,,,,128,0,16,,,,,7,,,43,100
21312,note_on,,,,,116,0,8,,,,,1,,,79,98
21312,note_on,,,,,64,0,12,,,,,5,,,43,98
21312,note_on,,,,,64,0,16,,,,,7,,,43,100
21312,note_on,,,,,64,0,9,,,,,2,,,66,98
21312,note_on,,,,,64,0,11,,,,,4,,,43,98
21312,note_on,,,,,64,0,14,,,,,6,,,43,100
21348,note_off,,,,,612,0,15,,,,,7,,,71,100
21348,note_off,,,,,0,0,15,,,,,7,,,78,100
21348,note_off,,,,,0,0,15,,,,,7,,,74,100
21412,note_off,,,,,100,0,8,,,,,1,,,79,100
21440,note_off,,,,,128,0,12,,,,,5,,,43,100
21440,note_off,,,,,128,0,11,,,,,4,,,43,100
21440,note_off,,,,,128,0,16,,,,,7,,,43,100
21440,note_off,,,,,128,0,9,,,,,2,,,66,100
21440,note_off,,,,,128,0,14,,,,,6,,,43,100
21504,note_on,,,,,64,0,11,,,,,4,,,48,98
21504,note_on,,,,,64,0,16,,,,,7,,,48,100
21504,note_on,,,,,64,0,14,,,,,6,,,48,100
21504,note_on,,,,,64,0,12,,,,,5,,,36,98
21504,note_on,,,,,64,0,9,,,,,2,,,64,98
21504,note_on,,,,,256,0,13,,,,,6,,,67,100
21504,note_on,,,,,0,0,15,,,,,7,,,76,100
21504,note_on,,,,,0,0,15,,,,,7,,,71,100
21504,note_on,,,,,92,0,8,,,,,1,,,79,98
21504,note_on,,,,,156,0,15,,,,,7,,,67,100
21532,note_on,,,,,28,0,13,,,,,6,,,71,100
21564,note_on,,,,,32,0,13,,,,,6,,,76,100
21568,note_off,,,,,64,0,8,,,,,1,,,79,100
21600,note_on,,,,,32,0,8,,,,,1,,,78,97
21632,note_off,,,,,128,0,16,,,,,7,,,48,100
21632,note_off,,,,,128,0,14,,,,,6,,,48,100
21632,note_off,,,,,128,0,12,,,,,5,,,36,100
21632,note_off,,,,,128,0,11,,,,,4,,,48,100
21664,note_off,,,,,64,0,8,,,,,1,,,78,100
21696,note_on,,,,,64,0,14,,,,,6,,,48,100
21696,note_on,,,,,64,0,16,,,,,7,,,48,100
21696,note_on,,,,,64,0,12,,,,,5,,,36,97
21696,note_on,,,,,32,0,8,,,,,1,,,76,97
21696,note_on,,,,,64,0,11,,,,,4,,,48,97
21732,note_off,,,,,612,0,10,,,,,3,,,59,100
21760,note_off,,,,,64,0,8,,,,,1,,,76,100
21792,note_on,,,,,32,0,8,,,,,1,,,74,97
21824,note_off,,,,,128,0,12,,,,,5,,,36,100
21824,note_off,,,,,128,0,11,,,,,4,,,48,100
21824,note_off,,,,,128,0,14,,,,,6,,,48,100
21824,note_off,,,,,128,0,16,,,,,7,,,48,100
21856,note_off,,,,,64,0,8,,,,,1,,,74,100
21888,note_on,,,,,156,0,10,,,,,3,,,64,97
21888,note_on,,,,,64,0,12,,,,,5,,,36,97
21888,note_on,,,,,64,0,16,,,,,7,,,48,100
21888,note_on,,,,,32,0,8,,,,,1,,,72,97
21888,note_on,,,,,64,0,11,,,,,4,,,48,97
21888,note_on,,,,,64,0,14,,,,,6,,,48,100
21964,note_off,,,,,460,0,9,,,,,2,,,64,100
22012,note_off,,,,,0,0,13,,,,,6,,,76,100
22012,note_off,,,,,448,0,13,,,,,6,,,71,100
22016,note_off,,,,,4,0,13,,,,,6,,,67,100
22016,note_off,,,,,128,0,12,,,,,5,,,36,100
22016,note_off,,,,,128,0,11,,,,,4,,,48,100
22016,note_off,,,,,128,0,14,,,,,6,,,48,100
22016,note_off,,,,,128,0,16,,,,,7,,,48,100
22016,note_off,,,,,128,0,8,,,,,1,,,72,100
22080,note_on,,,,,116,0,9,,,,,2,,,72,96
22080,note_on,,,,,64,0,16,,,,,7,,,48,100
22080,note_on,,,,,64,0,11,,,,,4,,,48,96
22080,note_on,,,,,64,0,8,,,,,1,,,71,96
22080,note_on,,,,,64,0,12,,,,,5,,,36,96
22080,note_on,,,,,64,0,14,,,,,6,,,48,100
22116,note_off,,,,,0,0,15,,,,,7,,,76,100
22116,note_off,,,,,0,0,15,,,,,7,,,71,100
22116,note_off,,,,,612,0,15,,,,,7,,,67,100
22180,note_off,,,,,100,0,9,,,,,2,,,72,100
22208,note_off,,,,,128,0,8,,,,,1,,,71,100
22208,note_off,,,,,128,0,16,,,,,7,,,48,100
22208,note_off,,,,,128,0,12,,,,,5,,,36,100
22208,note_off,,,,,128,0,11,,,,,4,,,48,100
22208,note_off,,,,,128,0,14,,,,,6,,,48,100
22272,note_on,,,,,92,0,9,,,,,2,,,72,96
22272,note_on,,,,,256,0,13,,,,,6,,,69,100
22272,note_on,,,,,64,0,11,,,,,4,,,42,96
22272,note_on,,,,,64,0,14,,,,,6,,,42,100
22272,note_on,,,,,64,0,8,,,,,1,,,69,96
22272,note_on,,,,,0,0,15,,,,,7,,,76,100
22272,note_on,,,,,64,0,16,,,,,7,,,42,100
22272,note_on,,,,,0,0,15,,,,,7,,,72,100
22272,note_on,,,,,156,0,15,,,,,7,,,69,100
22272,note_on,,,,,64,0,12,,,,,5,,,42,96
22300,note_on,,,,,28,0,13,,,,,6,,,72,100
22332,note_on,,,,,32,0,13,,,,,6,,,76,100
22336,note_off,,,,,64,0,9,,,,,2,,,72,100
22368,note_on,,,,,32,0,9,,,,,2,,,71,95
22400,note_off,,,,,128,0,16,,,,,7,,,42,100
22400,note_off,,,,,128,0,14,,,,,6,,,42,100
22400,note_off,,,,,128,0,11,,,,,4,,,42,100
22400,note_off,,,,,128,0,12,,,,,5,,,42,100
22432,note_off,,,,,64,0,9,,,,,2,,,71,100
22464,note_on,,,,,64,0,14,,,,,6,,,42,100
22464,note_on,,,,,32,0,9,,,,,2,,,69,95
22464,note_on,,,,,64,0,16,,,,,7,,,42,100
22464,note_on,,,,,64,0,11,,,,,4,,,42,95
22464,note_on,,,,,64,0,12,,,,,5,,,42,95
22500,note_off,,,,,612,0,10,,,,,3,,,64,100
22528,note_off,,,,,64,0,9,,,,,2,,,69,100
22560,note_on,,,,,32,0,9,,,,,2,,,67,95
22592,note_off,,,,,128,0,14,,,,,6,,,42,100
22592,note_off,,,,,128,0,12,,,,,5,,,42,100
22592,note_off,,,,,128,0,16,,,,,7,,,42,100
22592,note_off,,,,,128,0,11,,,,,4,,,42,100
22624,note_off,,,,,64,0,9,,,,,2,,,67,100
22656,note_on,,,,,64,0,16,,,,,7,,,42,100
22656,note_on,,,,,32,0,9,,,,,2,,,66,95
22656,note_on,,,,,64,0,11,,,,,4,,,42,95
22656,note_on,,,,,64,0,14,,,,,6,,,42,100
22656,note_on,,,,,64,0,12,,,,,5,,,42,95
22656,note_on,,,,,156,0,10,,,,,3,,,57,95
22732,note_off,,,,,460,0,8,,,,,1,,,69,100
22780,note_off,,,,,448,0,13,,,,,6,,,72,100
22780,note_off,,,,,0,0,13,,,,,6,,,76,100
22784,note_off,,,,,128,0,9,,,,,2,,,66,100
22784,note_off,,,,,128,0,11,,,,,4,,,42,100
22784,note_off,,,,,128,0,16,,,,,7,,,42,100
22784,note_off,,,,,128,0,14,,,,,6,,,42,100
22784,note_off,,,,,4,0,13,,,,,6,,,69,100
22784,note_off,,,,,128,0,12,,,,,5,,,42,100
22848,note_on,,,,,64,0,16,,,,,7,,,42,100
22848,note_on,,,,,64,0,14,,,,,6,,,42,100
22848,note_on,,,,,64,0,12,,,,,5,,,42,94
22848,note_on,,,,,116,0,8,,,,,1,,,78,94
22848,note_on,,,,,64,0,9,,,,,2,,,64,94
22848,note_on,,,,,64,0,11,,,,,4,,,42,94
22884,note_off,,,,,612,0,15,,,,,7,,,69,100
22884,note_off,,,,,0,0,15,,,,,7,,,72,100
22884,note_off,,,,,0,0,15,,,,,7,,,76,100
22948,note_off,,,,,100,0,8,,,,,1,,,78,100
22976,note_off,,,,,128,0,12,,,,,5,,,42,100
22976,note_off,,,,,128,0,11,,,,,4,,,42,100
22976,note_off,,,,,128,0,16,,,,,7,,,42,100
22976,note_off,,,,,128,0,14,,,,,6,,,42,100
22976,note_off,,,,,128,0,9,,,,,2,,,64,100
23040,note_on,,,,,92,0,8,,,,,1,,,78,94
23040,note_on,,,,,156,0,15,,,,,7,,,66,100
23040,note_on,,,,,64,0,11,,,,,4,,,47,94
23040,note_on,,,,,0,0,15,,,,,7,,,71,100
23040,note_on,,,,,0,0,15,,,,,7,,,75,100
23040,note_on,,,,,256,0,13,,,,,6,,,66,100
23040,note_on,,,,,64,0,14,,,,,6,,,47,100
23040,note_on,,,,,64,0,12,,,,,5,,,35,94
23040,note_on,,,,,64,0,9,,,,,2,,,63,94
23040,note_on,,,,,64,0,16,,,,,7,,,47,100
23068,note_on,,,,,28,0,13,,,,,6,,,71,100
23100,note_on,,,,,32,0,13,,,,,6,,,75,100
23104,note_off,,,,,64,0,8,,,,,1,,,78,100
23136,note_on,,,,,32,0,8,,,,,1,,,76,93
23168,note_off,,,,,128,0,14,,,,,6,,,47,100
23168,note_off,,,,,128,0,12,,,,,5,,,35,100
23168,note_off,,,,,128,0,11,,,,,4,,,47,100
23168,note_off,,,,,128,0,16,,,,,7,,,47,100
23200,note_off,,,,,64,0,8,,,,,1,,,76,100
23232,note_on,,,,,32,0,8,,,,,1,,,75,93
23232,note_on,,,,,64,0,12,,,,,5,,,35,93
23232,note_on,,,,,64,0,11,,,,,4,,,47,93
23232,note_on,,,,,64,0,16,,,,,7,,,47,100
23232,note_on,,,,,64,0,14,,,,,6,,,47,100
23268,note_off,,,,,612,0,10,,,,,3,,,57,100
23296,note_off,,,,,64,0,8,,,,,1,,,75,100
23328,note_on,,,,,32,0,8,,,,,1,,,73,93
23360,note_off,,,,,128,0,11,,,,,4,,,47,100
23360,note_off,,,,,128,0,16,,,,,7,,,47,100
23360,note_off,,,,,128,0,14,,,,,6,,,47,100
23360,note_off,,,,,128,0,12,,,,,5,,,35,100
23392,note_off,,,,,64,0,8,,,,,1,,,73,100
23424,note_on,,,,,64,0,14,,,,,6,,,47,100
23424,note_on,,,,,64,0,12,,,,,5,,,35,93
23424,note_on,,,,,64,0,16,,,,,7,,,47,100
23424,note_on,,,,,32,0,8,,,,,1,,,71,93
23424,note_on,,,,,156,0,10,,,,,3,,,54,93
23424,note_on,,,,,64,0,11,,,,,4,,,47,93
23500,note_off,,,,,460,0,9,,,,,2,,,63,100
23548,note_off,,,,,0,0,13,,,,,6,,,75,100
23548,note_off,,,,,448,0,13,,,,,6,,,71,100
23552,note_off,,,,,128,0,12,,,,,5,,,35,100
23552,note_off,,,,,128,0,8,,,,,1,,,71,100
23552,note_off,,,,,128,0,11,,,,,4,,,47,100
23552,note_off,,,,,128,0,14,,,,,6,,,47,100
23552,note_off,,,,,128,0,16,,,,,7,,,47,100
23552,note_off,,,,,4,0,13,,,,,6,,,66,100
23616,note_on,,,,,64,0,14,,,,,6,,,47,100
23616,note_on,,,,,64,0,12,,,,,5,,,35,92
23616,note_on,,,,,64,0,16,,,,,7,,,47,100
23616,note_on,,,,,64,0,11,,,,,4,,,47,92
23616,note_on,,,,,64,0,8,,,,,1,,,69,92
23616,note_on,,,,,116,0,9,,,,,2,,,71,92
23652,note_off,,,,,0,0,15,,,,,7,,,71,100
23652,note_off,,,,,0,0,15,,,,,7,,,75,100
23652,note_off,,,,,612,0,15,,,,,7,,,66,100
23680,note_off,,,,,256,0,10,,,,,3,,,54,100
23716,note_off,,,,,100,0,9,,,,,2,,,71,100
23744,note_off,,,,,128,0,12,,,,,5,,,35,100
23744,note_off,,,,,128,0,11,,,,,4,,,47,100
23744,note_off,,,,,128,0,14,,,,,6,,,47,100
23744,note_off,,,,,128,0,16,,,,,7,,,47,100
23744,note_off,,,,,128,0,8,,,,,1,,,69,100
23808,note_on,,,,,64,0,8,,,,,1,,,67,92
23808,note_on,,,,,64,0,12,,,,,5,,,40,92
23808,note_on,,,,,156,0,15,,,,,7,,,67,100
23808,note_on,,,,,0,0,15,,,,,7,,,71,100
23808,note_on,,,,,0,0,15,,,,,7,,,76,100
23808,note_on,,,,,64,0,16,,,,,7,,,52,100
23808,note_on,,,,,0,0,13,,,,,6,,,71,100
23808,note_on,,,,,0,0,13,,,,,6,,,76,100
23808,note_on,,,,,64,0,11,,,,,4,,,52,92
23808,note_on,,,,,256,0,13,,,,,6,,,67,100
23808,note_on,,,,,128,0,10,,,,,3,,,55,92
23808,note_on,,,,,92,0,9,,,,,2,,,71,92
23808,note_on,,,,,64,0,14,,,,,6,,,52,100
23872,note_off,,,,,64,0,9,,,,,2,,,71,100
23904,note_on,,,,,32,0,9,,,,,2,,,69,91
23936,note_off,,,,,128,0,11,,,,,4,,,52,100
23936,note_off,,,,,128,0,16,,,,,7,,,52,100
23936,note_off,,,,,128,0,14,,,,,6,,,52,100
23968,note_off,,,,,64,0,9,,,,,2,,,69,100
24000,note_on,,,,,64,0,11,,,,,4,,,52,91
24000,note_on,,,,,64,0,14,,,,,6,,,52,100
24000,note_on,,,,,32,0,9,,,,,2,,,67,91
24000,note_on,,,,,64,0,16,,,,,7,,,52,100
24064,note_off,,,,,256,0,13,,,,,6,,,67,100
24064,note_off,,,,,0,0,15,,,,,7,,,76,100
24064,note_off,,,,,0,0,15,,,,,7,,,71,100
24064,note_off,,,,,256,0,15,,,,,7,,,67,100
24064,note_off,,,,,256,0,10,,,,,3,,,55,100
24064,note_off,,,,,256,0,12,,,,,5,,,40,100
24064,note_off,,,,,64,0,9,,,,,2,,,67,100
24064,note_off,,,,,0,0,13,,,,,6,,,71,100
24064,note_off,,,,,0,0,13,,,,,6,,,76,100
24096,note_on,,,,,32,0,9,,,,,2,,,66,91
24128,note_off,,,,,128,0,16,,,,,7,,,52,100
24128,note_off,,,,,128,0,11,,,,,4,,,52,100
24128,note_off,,,,,128,0,14,,,,,6,,,52,100
24160,note_off,,,,,64,0,9,,,,,2,,,66,100
24192,note_on,,,,,64,0,11,,,,,4,,,52,91
24192,note_on,,,,,64,0,14,,,,,6,,,52,100
24192,note_on,,,,,64,0,16,,,,,7,,,52,100
24192,note_on,,,,,32,0,9,,,,,2,,,64,91
24268,note_off,,,,,460,0,8,,,,,1,,,67,100
24292,note_off,,,,,100,0,9,,,,,2,,,64,100
24320,note_off,,,,,128,0,14,,,,,6,,,52,100
24320,note_off,,,,,128,0,16,,,,,7,,,52,100
24320,note_off,,,,,128,0,11,,,,,4,,,52,100
24384,note_on,,,,,320,0,10,,,,,3,,,71,85
24384,note_on,,,,,64,0,16,,,,,7,,,52,100
24384,note_on,,,,,64,0,11,,,,,4,,,52,85
24384,note_on,,,,,64,0,14,,,,,6,,,52,100
24384,note_on,,,,,320,0,15,,,,,7,,,76,100
24384,note_on,,,,,0,0,13,,,,,6,,,76,100
24384,note_on,,,,,320,0,13,,,,,6,,,79,100
24384,note_on,,,,,0,0,15,,,,,7,,,67,100
24384,note_on,,,,,116,0,8,,,,,1,,,76,85
24384,note_on,,,,,92,0,9,,,,,2,,,79,85
24484,note_off,,,,,100,0,10,,,,,3,,,71,100
24484,note_off,,,,,100,0,9,,,,,2,,,79,100
24484,note_off,,,,,100,0,8,,,,,1,,,76,100
24512,note_off,,,,,128,0,16,,,,,7,,,52,100
24512,note_off,,,,,128,0,11,,,,,4,,,52,100
24512,note_off,,,,,128,0,14,,,,,6,,,52,100
24512,note_off,,,,,0,0,15,,,,,7,,,67,100
24512,note_off,,,,,128,0,15,,,,,7,,,76,100
24512,note_off,,,,,0,0,13,,,,,6,,,76,100
24512,note_off,,,,,128,0,13,,,,,6,,,79,100
24576,note_on,,,,,0,0,15,,,,,7,,,77,100
24576,note_on,,,,,64,0,11,,,,,4,,,57,86
24576,note_on,,,,,0,0,13,,,,,6,,,81,100
24576,note_on,,,,,64,0,13,,,,,6,,,77,100
24576,note_on,,,,,64,0,15,,,,,7,,,69,100
24576,note_on,,,,,92,0,9,,,,,2,,,83,86
24576,note_on,,,,,92,0,10,,,,,3,,,72,86
24576,note_on,,,,,92,0,8,,,,,1,,,79,86
24576,note_on,,,,,64,0,16,,,,,7,,,57,100
24576,note_on,,,,,64,0,14,,,,,6,,,57,100
24620,note_off,,,,,44,0,9,,,,,2,,,83,100
24620,note_off,,,,,44,0,8,,,,,1,,,79,100
24624,note_on,,,,,4,0,9,,,,,2,,,81,86
24624,note_on,,,,,4,0,8,,,,,1,,,77,86
24668,note_off,,,,,44,0,9,,,,,2,,,81,100
24668,note_off,,,,,44,0,8,,,,,1,,,77,100
24672,note_on,,,,,4,0,8,,,,,1,,,79,87
24672,note_on,,,,,4,0,9,,,,,2,,,83,87
24716,note_off,,,,,44,0,8,,,,,1,,,79,100
24716,note_off,,,,,44,0,9,,,,,2,,,83,100
24720,note_on,,,,,4,0,8,,,,,1,,,77,87
24720,note_on,,,,,4,0,9,,,,,2,,,81,87
24764,note_off,,,,,188,0,11,,,,,4,,,57,100
24764,note_off,,,,,188,0,10,,,,,3,,,72,100
24764,note_off,,,,,44,0,9,,,,,2,,,81,100
24764,note_off,,,,,44,0,8,,,,,1,,,77,100
24764,note_off,,,,,0,0,15,,,,,7,,,77,100
24764,note_off,,,,,188,0,15,,,,,7,,,69,100
24764,note_off,,,,,188,0,14,,,,,6,,,57,100
24764,note_off,,,,,188,0,16,,,,,7,,,57,100
24764,note_off,,,,,188,0,13,,,,,6,,,77,100
24764,note_off,,,,,0,0,13,,,,,6,,,81,100
24768,note_on,,,,,4,0,10,,,,,3,,,71,88
24768,note_on,,,,,4,0,9,,,,,2,,,79,88
24768,note_on,,,,,4,0,16,,,,,7,,,52,100
24768,note_on,,,,,4,0,13,,,,,6,,,76,100
24768,note_on,,,,,4,0,14,,,,,6,,,52,100
24768,note_on,,,,,4,0,8,,,,,1,,,76,88
24768,note_on,,,,,4,0,15,,,,,7,,,67,100
24768,note_on,,,,,0,0,15,,,,,7,,,76,100
24768,note_on,,,,,0,0,13,,,,,6,,,79,100
24768,note_on,,,,,4,0,11,,,,,4,,,52,88
24868,note_off,,,,,100,0,8,,,,,1,,,76,100
24896,note_off,,,,,128,0,10,,,,,3,,,71,100
24896,note_off,,,,,128,0,14,,,,,6,,,52,100
24896,note_off,,,,,0,0,15,,,,,7,,,76,100
24896,note_off,,,,,128,0,15,,,,,7,,,67,100
24896,note_off,,,,,128,0,9,,,,,2,,,79,100
24896,note_off,,,,,128,0,13,,,,,6,,,76,100
24896,note_off,,,,,0,0,13,,,,,6,,,79,100
24896,note_off,,,,,128,0,16,,,,,7,,,52,100
24896,note_off,,,,,128,0,11,,,,,4,,,52,100
24960,note_on,,,,,92,0,8,,,,,1,,,83,89
25060,note_off,,,,,100,0,8,,,,,1,,,83,100
25152,note_on,,,,,92,0,8,,,,,1,,,76,91
25152,note_on,,,,,256,0,16,,,,,7,,,52,100
25152,note_on,,,,,256,0,9,,,,,2,,,79,91
25152,note_on,,,,,256,0,14,,,,,6,,,52,100
25152,note_on,,,,,0,0,15,,,,,7,,,76,100
25152,note_on,,,,,256,0,15,,,,,7,,,67,100
25152,note_on,,,,,256,0,13,,,,,6,,,67,100
25152,note_on,,,,,256,0,10,,,,,3,,,71,91
25152,note_on,,,,,0,0,13,,,,,6,,,76,100
25152,note_on,,,,,256,0,11,,,,,4,,,52,91
25252,note_off,,,,,100,0,16,,,,,7,,,52,100
25252,note_off,,,,,100,0,11,,,,,4,,,52,100
25252,note_off,,,,,100,0,8,,,,,1,,,76,100
25252,note_off,,,,,100,0,10,,,,,3,,,71,100
25252,note_off,,,,,100,0,14,,,,,6,,,52,100
25252,note_off,,,,,100,0,9,,,,,2,,,79,100
25280,note_off,,,,,0,0,13,,,,,6,,,76,100
25280,note_off,,,,,128,0,13,,,,,6,,,67,100
25280,note_off,,,,,128,0,15,,,,,7,,,67,100
25280,note_off,,,,,0,0,15,,,,,7,,,76,100
25344,note_on,,,,,64,0,13,,,,,6,,,69,100
25344,note_on,,,,,0,0,13,,,,,6,,,77,100
25344,note_on,,,,,92,0,10,,,,,3,,,72,92
25344,note_on,,,,,92,0,14,,,,,6,,,57,100
25344,note_on,,,,,64,0,15,,,,,7,,,69,100
25344,note_on,,,,,0,0,15,,,,,7,,,77,100
25344,note_on,,,,,92,0,16,,,,,7,,,57,100
25344,note_on,,,,,92,0,8,,,,,1,,,79,92
25344,note_on,,,,,92,0,9,,,,,2,,,83,92
25344,note_on,,,,,92,0,11,,,,,4,,,57,92
25388,note_off,,,,,44,0,9,,,,,2,,,83,100
25388,note_off,,,,,44,0,8,,,,,1,,,79,100
25392,note_on,,,,,4,0,8,,,,,1,,,77,93
25392,note_on,,,,,4,0,9,,,,,2,,,81,93
25436,note_off,,,,,44,0,8,,,,,1,,,77,100
25436,note_off,,,,,44,0,9,,,,,2,,,81,100
25440,note_on,,,,,4,0,8,,,,,1,,,79,93
25440,note_on,,,,,4,0,9,,,,,2,,,83,93
25484,note_off,,,,,44,0,9,,,,,2,,,83,100
25484,note_off,,,,,44,0,8,,,,,1,,,79,100
25488,note_on,,,,,4,0,8,,,,,1,,,77,93
25488,note_on,,,,,4,0,9,,,,,2,,,81,93
25532,note_off,,,,,188,0,13,,,,,6,,,69,100
25532,note_off,,,,,0,0,13,,,,,6,,,77,100
25532,note_off,,,,,44,0,8,,,,,1,,,77,100
25532,note_off,,,,,188,0,14,,,,,6,,,57,100
25532,note_off,,,,,188,0,10,,,,,3,,,72,100
25532,note_off,,,,,188,0,16,,,,,7,,,57,100
25532,note_off,,,,,44,0,9,,,,,2,,,81,100
25532,note_off,,,,,0,0,15,,,,,7,,,77,100
25532,note_off,,,,,188,0,15,,,,,7,,,69,100
25532,note_off,,,,,188,0,11,,,,,4,,,57,100
25536,note_on,,,,,4,0,10,,,,,3,,,71,94
25536,note_on,,,,,4,0,15,,,,,7,,,67,100
25536,note_on,,,,,4,0,8,,,,,1,,,76,94
25536,note_on,,,,,0,0,15,,,,,7,,,76,100
25536,note_on,,,,,0,0,13,,,,,6,,,76,100
25536,note_on,,,,,4,0,11,,,,,4,,,52,94
25536,note_on,,,,,4,0,13,,,,,6,,,67,100
25536,note_on,,,,,4,0,9,,,,,2,,,79,94
25536,note_on,,,,,4,0,16,,,,,7,,,52,100
25536,note_on,,,,,4,0,14,,,,,6,,,52,100
25636,note_off,,,,,100,0,8,,,,,1,,,76,100
25664,note_off,,,,,128,0,16,,,,,7,,,52,100
25664,note_off,,,,,128,0,15,,,,,7,,,67,100
25664,note_off,,,,,128,0,9,,,,,2,,,79,100
25664,note_off,,,,,0,0,15,,,,,7,,,76,100
25664,note_off,,,,,128,0,13,,,,,6,,,67,100
25664,note_off,,,,,128,0,14,,,,,6,,,52,100
25664,note_off,,,,,128,0,10,,,,,3,,,71,100
25664,note_off,,,,,128,0,11,,,,,4,,,52,100
25664,note_off,,,,,0,0,13,,,,,6,,,76,100
25728,note_on,,,,,92,0,8,,,,,1,,,83,95
25828,note_off,,,,,100,0,8,,,,,1,,,83,100
25920,note_on,,,,,256,0,15,,,,,7,,,76,100
25920,note_on,,,,,256,0,14,,,,,6,,,52,100
25920,note_on,,,,,256,0,10,,,,,3,,,71,97
25920,note_on,,,,,0,0,15,,,,,7,,,67,100
25920,note_on,,,,,92,0,8,,,,,1,,,76,97
25920,note_on,,,,,0,0,13,,,,,6,,,76,100
25920,note_on,,,,,256,0,13,,,,,6,,,79,100
25920,note_on,,,,,256,0,11,,,,,4,,,52,97
25920,note_on,,,,,256,0,9,,,,,2,,,79,97
25920,note_on,,,,,256,0,16,,,,,7,,,52,100
26020,note_off,,,,,100,0,16,,,,,7,,,52,100
26020,note_off,,,,,100,0,10,,,,,3,,,71,100
26020,note_off,,,,,100,0,9,,,,,2,,,79,100
26020,note_off,,,,,100,0,8,,,,,1,,,76,100
26020,note_off,,,,,100,0,14,,,,,6,,,52,100
26020,note_off,,,,,100,0,11,,,,,4,,,52,100
26048,note_off,,,,,0,0,13,,,,,6,,,76,100
26048,note_off,,,,,128,0,13,,,,,6,,,79,100
26108,note_off,,,,,0,0,15,,,,,7,,,67,100
26108,note_off,,,,,188,0,15,,,,,7,,,76,100
26112,note_on,,,,,92,0,8,,,,,1,,,77,98
26112,note_on,,,,,92,0,10,,,,,3,,,72,98
26112,note_on,,,,,92,0,11,,,,,4,,,57,98
26112,note_on,,,,,92,0,9,,,,,2,,,81,98
26112,note_on,,,,,0,0,15,,,,,7,,,77,100
26112,note_on,,,,,92,0,14,,,,,6,,,57,100
26112,note_on,,,,,4,0,15,,,,,7,,,72,100
26112,note_on,,,,,64,0,13,,,,,6,,,81,100
26112,note_on,,,,,0,0,13,,,,,6,,,77,100
26112,note_on,,,,,92,0,16,,,,,7,,,57,100
26212,note_off,,,,,100,0,11,,,,,4,,,57,100
26212,note_off,,,,,100,0,8,,,,,1,,,77,100
26212,note_off,,,,,100,0,9,,,,,2,,,81,100
26212,note_off,,,,,100,0,13,,,,,6,,,81,100
26212,note_off,,,,,100,0,16,,,,,7,,,57,100
26212,note_off,,,,,100,0,10,,,,,3,,,72,100
26212,note_off,,,,,100,0,14,,,,,6,,,57,100
26212,note_off,,,,,0,0,13,,,,,6,,,77,100
26240,note_off,,,,,128,0,15,,,,,7,,,72,100
26240,note_off,,,,,0,0,15,,,,,7,,,77,100
26304,note_on,,,,,0,0,13,,,,,6,,,80,100
26304,note_on,,,,,92,0,13,,,,,6,,,83,100
26304,note_on,,,,,92,0,9,,,,,2,,,83,100
26304,note_on,,,,,92,0,8,,,,,1,,,80,100
26304,note_on,,,,,64,0,15,,,,,7,,,71,100
26304,note_on,,,,,92,0,16,,,,,7,,,52,100
26304,note_on,,,,,0,0,15,,,,,7,,,80,100
26304,note_on,,,,,92,0,11,,,,,4,,,52,100
26304,note_on,,,,,92,0,14,,,,,6,,,52,100
26304,note_on,,,,,92,0,10,,,,,3,,,71,100
26404,note_off,,,,,100,0,10,,,,,3,,,71,100
26404,note_off,,,,,100,0,9,,,,,2,,,83,100
26404,note_off,,,,,100,0,8,,,,,1,,,80,100
26404,note_off,,,,,100,0,14,,,,,6,,,52,100
26404,note_off,,,,,0,0,13,,,,,6,,,80,100
26404,note_off,,,,,100,0,13,,,,,6,,,83,100
26404,note_off,,,,,100,0,16,,,,,7,,,52,100
26404,note_off,,,,,100,0,11,,,,,4,,,52,100
26432,note_off,,,,,0,0,15,,,,,7,,,80,100
26432,note_off,,,,,128,0,15,,,,,7,,,71,100
26496,note_on,,,,,92,0,11,,,,,4,,,45,101
26496,note_on,,,,,92,0,8,,,,,1,,,81,101
26496,note_on,,,,,92,0,14,,,,,6,,,45,100
26496,note_on,,,,,0,0,15,,,,,7,,,81,100
26496,note_on,,,,,64,0,15,,,,,7,,,72,100
26496,note_on,,,,,92,0,9,,,,,2,,,84,101
26496,note_on,,,,,0,0,13,,,,,6,,,81,100
26496,note_on,,,,,92,0,10,,,,,3,,,69,101
26496,note_on,,,,,92,0,16,,,,,7,,,45,100
26496,note_on,,,,,92,0,13,,,,,6,,,84,100
26596,note_off,,,,,100,0,11,,,,,4,,,45,100
26596,note_off,,,,,100,0,16,,,,,7,,,45,100
26596,note_off,,,,,100,0,8,,,,,1,,,81,100
26596,note_off,,,,,100,0,14,,,,,6,,,45,100
26596,note_off,,,,,100,0,9,,,,,2,,,84,100
26596,note_off,,,,,100,0,10,,,,,3,,,69,100
26596,note_off,,,,,100,0,13,,,,,6,,,84,100
26596,note_off,,,,,0,0,13,,,,,6,,,81,100
26624,note_off,,,,,0,0,15,,,,,7,,,81,100
26624,note_off,,,,,128,0,15,,,,,7,,,72,100
26688,note_on,,,,,92,0,10,,,,,3,,,64,103
26688,note_on,,,,,92,0,11,,,,,4,,,57,103
26688,note_on,,,,,0,0,15,,,,,7,,,81,100
26688,note_on,,,,,64,0,15,,,,,7,,,72,100
26688,note_on,,,,,92,0,13,,,,,6,,,69,100
26688,note_on,,,,,92,0,16,,,,,7,,,57,100
26688,note_on,,,,,92,0,14,,,,,6,,,57,100
26688,note_on,,,,,0,0,13,,,,,6,,,72,100
26688,note_on,,,,,92,0,9,,,,,2,,,84,103
26688,note_on,,,,,92,0,8,,,,,1,,,81,103
26788,note_off,,,,,100,0,14,,,,,6,,,57,100
26788,note_off,,,,,100,0,8,,,,,1,,,81,100
26788,note_off,,,,,100,0,10,,,,,3,,,64,100
26788,note_off,,,,,100,0,9,,,,,2,,,84,100
26788,note_off,,,,,100,0,11,,,,,4,,,57,100
26788,note_off,,,,,100,0,16,,,,,7,,,57,100
26816,note_off,,,,,0,0,15,,,,,7,,,81,100
26816,note_off,,,,,128,0,15,,,,,7,,,72,100
26880,note_on,,,,,92,0,16,,,,,7,,,51,100
26880,note_on,,,,,0,0,15,,,,,7,,,72,100
26880,note_on,,,,,64,0,15,,,,,7,,,78,100
26880,note_on,,,,,92,0,11,,,,,4,,,51,105
26880,note_on,,,,,92,0,9,,,,,2,,,84,105
26880,note_on,,,,,92,0,14,,,,,6,,,51,100
26880,note_on,,,,,92,0,8,,,,,1,,,81,105
26880,note_on,,,,,0,0,15,,,,,7,,,81,100
26880,note_on,,,,,92,0,10,,,,,3,,,66,105
26944,note_off,,,,,256,0,13,,,,,6,,,69,100
26944,note_off,,,,,0,0,13,,,,,6,,,72,100
26980,note_off,,,,,100,0,11,,,,,4,,,51,100
26980,note_off,,,,,100,0,10,,,,,3,,,66,100
26980,note_off,,,,,100,0,16,,,,,7,,,51,100
26980,note_off,,,,,100,0,14,,,,,6,,,51,100
27072,note_on,,,,,92,0,10,,,,,3,,,67,104
27072,note_on,,,,,0,0,13,,,,,6,,,71,100
27072,note_on,,,,,128,0,13,,,,,6,,,67,100
27072,note_on,,,,,92,0,16,,,,,7,,,52,100
27072,note_on,,,,,92,0,14,,,,,6,,,52,100
27072,note_on,,,,,92,0,11,,,,,4,,,52,104
27172,note_off,,,,,100,0,10,,,,,3,,,67,100
27172,note_off,,,,,100,0,14,,,,,6,,,52,100
27172,note_off,,,,,100,0,13,,,,,6,,,67,100
27172,note_off,,,,,0,0,13,,,,,6,,,71,100
27172,note_off,,,,,100,0,16,,,,,7,,,52,100
27172,note_off,,,,,100,0,11,,,,,4,,,52,100
27264,note_on,,,,,92,0,14,,,,,6,,,54,100
27264,note_on,,,,,92,0,13,,,,,6,,,69,100
27264,note_on,,,,,92,0,16,,,,,7,,,54,100
27264,note_off,,,,,384,0,9,,,,,2,,,84,100
27264,note_on,,,,,92,0,11,,,,,4,,,54,102
27264,note_off,,,,,0,0,15,,,,,7,,,81,100
27264,note_off,,,,,384,0,15,,,,,7,,,78,100
27264,note_off,,,,,0,0,15,,,,,7,,,72,100
27264,note_off,,,,,384,0,8,,,,,1,,,81,100
27264,note_on,,,,,92,0,10,,,,,3,,,69,102
27364,note_off,,,,,100,0,10,,,,,3,,,69,100
27364,note_off,,,,,100,0,11,,,,,4,,,54,100
27364,note_off,,,,,100,0,14,,,,,6,,,54,100
27364,note_off,,,,,100,0,16,,,,,7,,,54,100
27456,note_on,,,,,192,0,9,,,,,2,,,84,100
27456,note_on,,,,,92,0,14,,,,,6,,,51,100
27456,note_on,,,,,192,0,8,,,,,1,,,81,100
27456,note_on,,,,,0,0,15,,,,,7,,,81,100
27456,note_on,,,,,0,0,15,,,,,7,,,78,100
27456,note_on,,,,,3392,0,12,,,,,5,,,39,100
27456,note_on,,,,,192,0,15,,,,,7,,,72,100
27456,note_on,,,,,92,0,10,,,,,3,,,66,100
27456,note_on,,,,,92,0,16,,,,,7,,,51,100
27456,note_on,,,,,92,0,11,,,,,4,,,51,100
27456,note_on,,,,,192,0,13,,,,,6,,,78,100
27520,note_off,,,,,64,0,13,,,,,6,,,69,100
27556,note_off,,,,,36,0,13,,,,,6,,,78,100
27556,note_off,,,,,100,0,10,,,,,3,,,66,100
27556,note_off,,,,,100,0,8,,,,,1,,,81,100
27556,note_off,,,,,100,0,16,,,,,7,,,51,100
27556,note_off,,,,,100,0,14,,,,,6,,,51,100
27556,note_off,,,,,100,0,11,,,,,4,,,51,100
27556,note_off,,,,,100,0,12,,,,,5,,,39,100
27556,note_off,,,,,100,0,9,,,,,2,,,84,100
27584,note_off,,,,,0,0,15,,,,,7,,,81,100
27584,note_off,,,,,0,0,15,,,,,7,,,78,100
27584,note_off,,,,,128,0,15,,,,,7,,,72,100
27648,note_on,,,,,92,0,12,,,,,5,,,40,98
27648,note_on,,,,,92,0,8,,,,,1,,,79,98
27648,note_on,,,,,64,0,15,,,,,7,,,71,100
27648,note_on,,,,,92,0,10,,,,,3,,,67,98
27648,note_on,,,,,92,0,16,,,,,7,,,52,100
27648,note_on,,,,,92,0,11,,,,,4,,,52,98
27648,note_on,,,,,0,0,13,,,,,6,,,76,100
27648,note_on,,,,,92,0,13,,,,,6,,,67,100
27648,note_on,,,,,92,0,9,,,,,2,,,83,98
27648,note_on,,,,,0,0,15,,,,,7,,,76,100
27648,note_on,,,,,92,0,14,,,,,6,,,52,100
27648,note_on,,,,,0,0,15,,,,,7,,,79,100
27748,note_off,,,,,100,0,16,,,,,7,,,52,100
27748,note_off,,,,,100,0,14,,,,,6,,,52,100
27748,note_off,,,,,100,0,12,,,,,5,,,40,100
27748,note_off,,,,,100,0,11,,,,,4,,,52,100
27748,note_off,,,,,100,0,10,,,,,3,,,67,100
27748,note_off,,,,,100,0,13,,,,,6,,,67,100
27748,note_off,,,,,0,0,13,,,,,6,,,76,100
27776,note_off,,,,,128,0,9,,,,,2,,,83,100
27776,note_off,,,,,128,0,8,,,,,1,,,79,100
27776,note_off,,,,,0,0,15,,,,,7,,,79,100
27776,note_off,,,,,128,0,15,,,,,7,,,71,100
27776,note_off,,,,,0,0,15,,,,,7,,,76,100
27840,note_on,,,,,92,0,16,,,,,7,,,57,100
27840,note_on,,,,,92,0,10,,,,,3,,,72,96
27840,note_on,,,,,64,0,15,,,,,7,,,72,100
27840,note_on,,,,,64,0,8,,,,,1,,,78,96
27840,note_on,,,,,0,0,15,,,,,7,,,78,100
27840,note_on,,,,,92,0,11,,,,,4,,,57,96
27840,note_on,,,,,92,0,12,,,,,5,,,45,96
27840,note_on,,,,,64,0,9,,,,,2,,,81,96
27840,note_on,,,,,0,0,13,,,,,6,,,72,100
27840,note_on,,,,,92,0,14,,,,,6,,,57,100
27840,note_on,,,,,92,0,13,,,,,6,,,64,100
27904,note_off,,,,,64,0,8,,,,,1,,,78,100
27904,note_off,,,,,64,0,9,,,,,2,,,81,100
27936,note_on,,,,,32,0,8,,,,,1,,,76,95
27936,note_on,,,,,32,0,9,,,,,2,,,79,95
27940,note_off,,,,,100,0,11,,,,,4,,,57,100
27940,note_off,,,,,100,0,10,,,,,3,,,72,100
27940,note_off,,,,,100,0,14,,,,,6,,,57,100
27940,note_off,,,,,0,0,13,,,,,6,,,72,100
27940,note_off,,,,,100,0,13,,,,,6,,,64,100
27940,note_off,,,,,100,0,16,,,,,7,,,57,100
27940,note_off,,,,,100,0,12,,,,,5,,,45,100
27968,note_off,,,,,0,0,15,,,,,7,,,78,100
27968,note_off,,,,,128,0,15,,,,,7,,,72,100
28000,note_off,,,,,64,0,8,,,,,1,,,76,100
28000,note_off,,,,,64,0,9,,,,,2,,,79,100
28032,note_on,,,,,0,0,13,,,,,6,,,71,100
28032,note_on,,,,,32,0,8,,,,,1,,,75,94
28032,note_on,,,,,92,0,13,,,,,6,,,63,100
28032,note_on,,,,,92,0,14,,,,,6,,,59,100
28032,note_on,,,,,92,0,12,,,,,5,,,47,94
28032,note_on,,,,,92,0,16,,,,,7,,,59,100
28032,note_on,,,,,32,0,9,,,,,2,,,78,94
28032,note_on,,,,,92,0,10,,,,,3,,,66,94
28032,note_on,,,,,92,0,11,,,,,4,,,59,94
28032,note_on,,,,,64,0,15,,,,,7,,,75,100
28032,note_on,,,,,0,0,15,,,,,7,,,78,100
28076,note_off,,,,,44,0,8,,,,,1,,,75,100
28076,note_off,,,,,44,0,9,,,,,2,,,78,100
28080,note_on,,,,,4,0,9,,,,,2,,,79,94
28080,note_on,,,,,4,0,8,,,,,1,,,76,94
28124,note_off,,,,,44,0,8,,,,,1,,,76,100
28124,note_off,,,,,44,0,9,,,,,2,,,79,100
28128,note_on,,,,,4,0,9,,,,,2,,,78,93
28128,note_on,,,,,4,0,8,,,,,1,,,75,93
28132,note_off,,,,,100,0,10,,,,,3,,,66,100
28132,note_off,,,,,100,0,14,,,,,6,,,59,100
28132,note_off,,,,,100,0,11,,,,,4,,,59,100
28132,note_off,,,,,100,0,12,,,,,5,,,47,100
28132,note_off,,,,,0,0,13,,,,,6,,,71,100
28132,note_off,,,,,100,0,13,,,,,6,,,63,100
28132,note_off,,,,,100,0,16,,,,,7,,,59,100
28172,note_off,,,,,44,0,9,,,,,2,,,78,100
28172,note_off,,,,,44,0,8,,,,,1,,,75,100
28176,note_on,,,,,4,0,9,,,,,2,,,79,93
28176,note_on,,,,,4,0,8,,,,,1,,,76,93
28220,note_off,,,,,44,0,8,,,,,1,,,76,100
28220,note_off,,,,,44,0,9,,,,,2,,,79,100
28224,note_on,,,,,4,0,9,,,,,2,,,78,92
28224,note_on,,,,,92,0,11,,,,,4,,,47,92
28224,note_on,,,,,92,0,14,,,,,6,,,47,100
28224,note_on,,,,,92,0,16,,,,,7,,,47,100
28224,note_on,,,,,92,0,10,,,,,3,,,71,92
28224,note_on,,,,,4,0,8,,,,,1,,,75,92
28224,note_on,,,,,92,0,12,,,,,5,,,35,92
28224,note_on,,,,,192,0,15,,,,,7,,,71,100
28224,note_on,,,,,92,0,13,,,,,6,,,63,100
28224,note_on,,,,,0,0,13,,,,,6,,,66,100
28288,note_off,,,,,64,0,9,,,,,2,,,78,100
28288,note_off,,,,,0,0,15,,,,,7,,,78,100
28288,note_off,,,,,64,0,8,,,,,1,,,75,100
28288,note_off,,,,,64,0,15,,,,,7,,,75,100
28320,note_on,,,,,32,0,8,,,,,1,,,76,91
28320,note_on,,,,,32,0,9,,,,,2,,,76,91
28324,note_off,,,,,100,0,11,,,,,4,,,47,100
28324,note_off,,,,,0,0,13,,,,,6,,,66,100
28324,note_off,,,,,100,0,13,,,,,6,,,63,100
28324,note_off,,,,,100,0,14,,,,,6,,,47,100
28324,note_off,,,,,100,0,12,,,,,5,,,35,100
28324,note_off,,,,,100,0,10,,,,,3,,,71,100
28324,note_off,,,,,100,0,16,,,,,7,,,47,100
28352,note_off,,,,,64,0,15,,,,,7,,,71,100
28384,note_off,,,,,64,0,8,,,,,1,,,76,100
28384,note_off,,,,,64,0,9,,,,,2,,,76,100
28416,note_on,,,,,64,0,15,,,,,7,,,64,100
28416,note_on,,,,,32,0,8,,,,,1,,,76,91
28416,note_on,,,,,92,0,11,,,,,4,,,40,91
28416,note_on,,,,,0,0,15,,,,,7,,,67,100
28416,note_on,,,,,92,0,14,,,,,6,,,40,100
28416,note_on,,,,,0,0,15,,,,,7,,,71,100
28416,note_on,,,,,92,0,16,,,,,7,,,40,100
28416,note_on,,,,,32,0,9,,,,,2,,,76,91
28416,note_on,,,,,92,0,10,,,,,3,,,67,91
28416,note_on,,,,,92,0,12,,,,,5,,,40,91
28416,note_on,,,,,92,0,13,,,,,6,,,64,100
28416,note_on,,,,,28416,0,7,,,,,0,,,76,95
28508,note_off,,,,,92,0,7,,,,,0,,,76,100
28512,note_on,,,,,4,0,7,,,,,0,,,79,95
28516,note_off,,,,,100,0,9,,,,,2,,,76,100
28516,note_off,,,,,100,0,10,,,,,3,,,67,100
28516,note_off,,,,,100,0,8,,,,,1,,,76,100
28604,note_off,,,,,92,0,7,,,,,0,,,79,100
28608,note_on,,,,,92,0,8,,,,,1,,,71,60
28608,note_on,,,,,4,0,7,,,,,0,,,78,95
28608,note_on,,,,,92,0,10,,,,,3,,,64,60
28608,note_on,,,,,92,0,9,,,,,2,,,67,60
28672,note_off,,,,,64,0,7,,,,,0,,,78,100
28672,note_off,,,,,256,0,11,,,,,4,,,40,100
28672,note_off,,,,,256,0,12,,,,,5,,,40,100
28672,note_off,,,,,256,0,13,,,,,6,,,64,100
28672,note_off,,,,,256,0,14,,,,,6,,,40,100
28672,note_off,,,,,0,0,15,,,,,7,,,71,100
28672,note_off,,,,,0,0,15,,,,,7,,,67,100
28672,note_off,,,,,256,0,15,,,,,7,,,64,100
28672,note_off,,,,,256,0,16,,,,,7,,,40,100
28704,note_on,,,,,32,0,7,,,,,0,,,76,95
28708,note_off,,,,,100,0,10,,,,,3,,,64,100
28708,note_off,,,,,100,0,9,,,,,2,,,67,100
28708,note_off,,,,,100,0,8,,,,,1,,,71,100
28768,note_off,,,,,64,0,7,,,,,0,,,76,100
28800,note_on,,,,,92,0,8,,,,,1,,,71,60
28800,note_on,,,,,92,0,9,,,,,2,,,67,60
28800,note_on,,,,,32,0,7,,,,,0,,,83,95
28800,note_on,,,,,92,0,10,,,,,3,,,64,60
28864,note_off,,,,,64,0,7,,,,,0,,,83,100
28896,note_on,,,,,32,0,7,,,,,0,,,79,95
28900,note_off,,,,,100,0,10,,,,,3,,,64,100
28900,note_off,,,,,100,0,8,,,,,1,,,71,100
28900,note_off,,,,,100,0,9,,,,,2,,,67,100
28960,note_off,,,,,64,0,7,,,,,0,,,79,100
28992,note_on,,,,,32,0,7,,,,,0,,,78,95
28992,note_on,,,,,92,0,10,,,,,3,,,64,60
28992,note_on,,,,,92,0,9,,,,,2,,,67,60
28992,note_on,,,,,92,0,8,,,,,1,,,71,60
29056,note_off,,,,,64,0,7,,,,,0,,,78,100
29088,note_on,,,,,32,0,7,,,,,0,,,76,95
29092,note_off,,,,,100,0,9,,,,,2,,,67,100
29092,note_off,,,,,100,0,8,,,,,1,,,71,100
29092,note_off,,,,,100,0,10,,,,,3,,,64,100
29152,note_off,,,,,64,0,7,,,,,0,,,76,100
29184,note_on,,,,,32,0,7,,,,,0,,,71,95
29184,note_on,,,,,92,0,8,,,,,1,,,71,60
29184,note_on,,,,,92,0,10,,,,,3,,,64,60
29184,note_on,,,,,92,0,9,,,,,2,,,67,60
29276,note_off,,,,,92,0,7,,,,,0,,,71,100
29280,note_on,,,,,4,0,7,,,,,0,,,79,95
29284,note_off,,,,,100,0,10,,,,,3,,,64,100
29284,note_off,,,,,100,0,9,,,,,2,,,67,100
29284,note_off,,,,,100,0,8,,,,,1,,,71,100
29372,note_off,,,,,92,0,7,,,,,0,,,79,100
29376,note_on,,,,,92,0,10,,,,,3,,,64,60
29376,note_on,,,,,92,0,9,,,,,2,,,67,60
29376,note_on,,,,,4,0,7,,,,,0,,,78,95
29376,note_on,,,,,92,0,8,,,,,1,,,71,60
29440,note_off,,,,,64,0,7,,,,,0,,,78,100
29472,note_on,,,,,32,0,7,,,,,0,,,76,95
29476,note_off,,,,,100,0,9,,,,,2,,,67,100
29476,note_off,,,,,100,0,8,,,,,1,,,71,100
29476,note_off,,,,,100,0,10,,,,,3,,,64,100
29536,note_off,,,,,64,0,7,,,,,0,,,76,100
29568,note_on,,,,,92,0,8,,,,,1,,,71,60
29568,note_on,,,,,32,0,7,,,,,0,,,83,95
29568,note_on,,,,,92,0,9,,,,,2,,,67,60
29568,note_on,,,,,92,0,10,,,,,3,,,64,60
29632,note_off,,,,,64,0,7,,,,,0,,,83,100
29664,note_on,,,,,32,0,7,,,,,0,,,79,95
29668,note_off,,,,,100,0,9,,,,,2,,,67,100
29668,note_off,,,,,100,0,8,,,,,1,,,71,100
29668,note_off,,,,,100,0,10,,,,,3,,,64,100
29728,note_off,,,,,64,0,7,,,,,0,,,79,100
29760,note_on,,,,,92,0,8,,,,,1,,,71,60
29760,note_on,,,,,32,0,7,,,,,0,,,78,95
29760,note_on,,,,,92,0,10,,,,,3,,,64,60
29760,note_on,,,,,92,0,9,,,,,2,,,67,60
29824,note_off,,,,,64,0,7,,,,,0,,,78,100
29856,note_on,,,,,32,0,7,,,,,0,,,76,95
29860,note_off,,,,,100,0,8,,,,,1,,,71,100
29860,note_off,,,,,100,0,10,,,,,3,,,64,100
29860,note_off,,,,,100,0,9,,,,,2,,,67,100
29920,note_off,,,,,64,0,7,,,,,0,,,76,100
29952,note_on,,,,,92,0,8,,,,,1,,,71,60
29952,note_on,,,,,92,0,9,,,,,2,,,67,60
29952,note_on,,,,,92,0,10,,,,,3,,,64,60
29952,note_on,,,,,32,0,7,,,,,0,,,71,95
30044,note_off,,,,,92,0,7,,,,,0,,,71,100
30048,note_on,,,,,4,0,7,,,,,0,,,79,95
30052,note_off,,,,,100,0,9,,,,,2,,,67,100
30052,note_off,,,,,100,0,8,,,,,1,,,71,100
30052,note_off,,,,,100,0,10,,,,,3,,,64,100
30140,note_off,,,,,92,0,7,,,,,0,,,79,100
30144,note_on,,,,,4,0,7,,,,,0,,,78,95
30144,note_on,,,,,92,0,9,,,,,2,,,67,60
30144,note_on,,,,,92,0,8,,,,,1,,,71,60
30144,note_on,,,,,92,0,10,,,,,3,,,64,60
30208,note_off,,,,,64,0,7,,,,,0,,,78,100
30240,note_on,,,,,32,0,7,,,,,0,,,76,95
30244,note_off,,,,,100,0,9,,,,,2,,,67,100
30244,note_off,,,,,100,0,10,,,,,3,,,64,100
30244,note_off,,,,,100,0,8,,,,,1,,,71,100
30304,note_off,,,,,64,0,7,,,,,0,,,76,100
30336,note_on,,,,,32,0,7,,,,,0,,,83,95
30336,note_on,,,,,92,0,10,,,,,3,,,64,60
30336,note_on,,,,,92,0,9,,,,,2,,,67,60
30336,note_on,,,,,92,0,8,,,,,1,,,71,60
30400,note_off,,,,,64,0,7,,,,,0,,,83,100
30432,note_on,,,,,32,0,7,,,,,0,,,79,95
30436,note_off,,,,,100,0,10,,,,,3,,,64,100
30436,note_off,,,,,100,0,8,,,,,1,,,71,100
30436,note_off,,,,,100,0,9,,,,,2,,,67,100
30496,note_off,,,,,64,0,7,,,,,0,,,79,100
30528,note_on,,,,,92,0,8,,,,,1,,,72,60
30528,note_on,,,,,92,0,9,,,,,2,,,69,60
30528,note_on,,,,,92,0,10,,,,,3,,,57,60
30528,note_on,,,,,32,0,7,,,,,0,,,78,95
30592,note_off,,,,,64,0,7,,,,,0,,,78,100
30624,note_on,,,,,32,0,7,,,,,0,,,76,95
30628,note_off,,,,,100,0,10,,,,,3,,,57,100
30628,note_off,,,,,100,0,9,,,,,2,,,69,100
30628,note_off,,,,,100,0,8,,,,,1,,,72,100
30688,note_off,,,,,64,0,7,,,,,0,,,76,100
30720,note_on,,,,,92,0,9,,,,,2,,,63,60
30720,note_on,,,,,32,0,7,,,,,0,,,75,95
30720,note_on,,,,,92,0,10,,,,,3,,,59,60
30720,note_on,,,,,92,0,8,,,,,1,,,66,60
30812,note_off,,,,,92,0,7,,,,,0,,,75,100
30816,note_on,,,,,4,0,7,,,,,0,,,76,95
30820,note_off,,,,,100,0,9,,,,,2,,,63,100
30820,note_off,,,,,100,0,8,,,,,1,,,66,100
30820,note_off,,,,,100,0,10,,,,,3,,,59,100
30908,note_off,,,,,92,0,7,,,,,0,,,76,100
30912,note_on,,,,,92,0,9,,,,,2,,,63,60
30912,note_on,,,,,4,0,7,,,,,0,,,78,95
30912,note_on,,,,,92,0,8,,,,,1,,,66,60
30912,note_on,,,,,92,0,10,,,,,3,,,59,60
30976,note_off,,,,,64,0,7,,,,,0,,,78,100
31008,note_on,,,,,32,0,7,,,,,0,,,75,96
31012,note_off,,,,,100,0,10,,,,,3,,,59,100
31012,note_off,,,,,100,0,8,,,,,1,,,66,100
31012,note_off,,,,,100,0,9,,,,,2,,,63,100
31072,note_off,,,,,64,0,7,,,,,0,,,75,100
31104,note_on,,,,,32,0,7,,,,,0,,,71,96
31104,note_on,,,,,92,0,10,,,,,3,,,59,60
31104,note_on,,,,,92,0,8,,,,,1,,,66,60
31104,note_on,,,,,92,0,9,,,,,2,,,63,60
31196,note_off,,,,,92,0,7,,,,,0,,,71,100
31200,note_on,,,,,4,0,7,,,,,0,,,81,97
31204,note_off,,,,,100,0,10,,,,,3,,,59,100
31204,note_off,,,,,100,0,8,,,,,1,,,66,100
31204,note_off,,,,,100,0,9,,,,,2,,,63,100
31292,note_off,,,,,92,0,7,,,,,0,,,81,100
31296,note_on,,,,,92,0,8,,,,,1,,,66,60
31296,note_on,,,,,4,0,7,,,,,0,,,79,97
31296,note_on,,,,,92,0,10,,,,,3,,,59,60
31296,note_on,,,,,92,0,9,,,,,2,,,63,60
31360,note_off,,,,,64,0,7,,,,,0,,,79,100
31392,note_on,,,,,32,0,7,,,,,0,,,78,98
31396,note_off,,,,,100,0,9,,,,,2,,,63,100
31396,note_off,,,,,100,0,10,,,,,3,,,59,100
31396,note_off,,,,,100,0,8,,,,,1,,,66,100
31456,note_off,,,,,64,0,7,,,,,0,,,78,100
31488,note_on,,,,,92,0,9,,,,,2,,,63,60
31488,note_on,,,,,92,0,8,,,,,1,,,66,60
31488,note_on,,,,,32,0,7,,,,,0,,,71,98
31488,note_on,,,,,92,0,10,,,,,3,,,59,60
31580,note_off,,,,,92,0,7,,,,,0,,,71,100
31584,note_on,,,,,4,0,7,,,,,0,,,81,98
31588,note_off,,,,,100,0,9,,,,,2,,,63,100
31588,note_off,,,,,100,0,8,,,,,1,,,66,100
31588,note_off,,,,,100,0,10,,,,,3,,,59,100
31676,note_off,,,,,92,0,7,,,,,0,,,81,100
31680,note_on,,,,,4,0,7,,,,,0,,,79,99
31680,note_on,,,,,92,0,8,,,,,1,,,66,60
31680,note_on,,,,,92,0,9,,,,,2,,,63,60
31680,note_on,,,,,92,0,10,,,,,3,,,59,60
31744,note_off,,,,,64,0,7,,,,,0,,,79,100
31776,note_on,,,,,32,0,7,,,,,0,,,78,99
31780,note_off,,,,,100,0,9,,,,,2,,,63,100
31780,note_off,,,,,100,0,10,,,,,3,,,59,100
31780,note_off,,,,,100,0,8,,,,,1,,,66,100
31840,note_off,,,,,64,0,7,,,,,0,,,78,100
31872,note_on,,,,,92,0,9,,,,,2,,,66,60
31872,note_on,,,,,92,0,10,,,,,3,,,59,60
31872,note_on,,,,,92,0,8,,,,,1,,,75,60
31872,note_on,,,,,32,0,7,,,,,0,,,83,100
31936,note_off,,,,,64,0,7,,,,,0,,,83,100
31968,note_on,,,,,32,0,7,,,,,0,,,81,100
31972,note_off,,,,,100,0,10,,,,,3,,,59,100
31972,note_off,,,,,100,0,8,,,,,1,,,75,100
31972,note_off,,,,,100,0,9,,,,,2,,,66,100
32032,note_off,,,,,64,0,7,,,,,0,,,81,100
32064,note_on,,,,,92,0,10,,,,,3,,,59,60
32064,note_on,,,,,92,0,8,,,,,1,,,75,60
32064,note_on,,,,,92,0,9,,,,,2,,,66,60
32064,note_on,,,,,32,0,7,,,,,0,,,79,101
32128,note_off,,,,,64,0,7,,,,,0,,,79,100
32160,note_on,,,,,32,0,7,,,,,0,,,78,101
32164,note_off,,,,,100,0,8,,,,,1,,,75,100
32164,note_off,,,,,100,0,9,,,,,2,,,66,100
32164,note_off,,,,,100,0,10,,,,,3,,,59,100
32224,note_off,,,,,64,0,7,,,,,0,,,78,100
32256,note_on,,,,,32,0,7,,,,,0,,,79,102
32256,note_on,,,,,92,0,9,,,,,2,,,64,60
32256,note_on,,,,,92,0,10,,,,,3,,,64,60
32256,note_on,,,,,92,0,8,,,,,1,,,71,60
32348,note_off,,,,,92,0,7,,,,,0,,,79,100
32352,note_on,,,,,4,0,7,,,,,0,,,81,101
32356,note_off,,,,,100,0,9,,,,,2,,,64,100
32356,note_off,,,,,100,0,10,,,,,3,,,64,100
32356,note_off,,,,,100,0,8,,,,,1,,,71,100
32444,note_off,,,,,92,0,7,,,,,0,,,81,100
32448,note_on,,,,,92,0,10,,,,,3,,,64,60
32448,note_on,,,,,4,0,7,,,,,0,,,79,99
32448,note_on,,,,,92,0,9,,,,,2,,,67,60
32448,note_on,,,,,92,0,8,,,,,1,,,71,60
32512,note_off,,,,,64,0,7,,,,,0,,,79,100
32544,note_on,,,,,32,0,7,,,,,0,,,78,97
32548,note_off,,,,,100,0,10,,,,,3,,,64,100
32548,note_off,,,,,100,0,8,,,,,1,,,71,100
32548,note_off,,,,,100,0,9,,,,,2,,,67,100
32608,note_off,,,,,64,0,7,,,,,0,,,78,100
32640,note_on,,,,,92,0,10,,,,,3,,,64,60
32640,note_on,,,,,92,0,9,,,,,2,,,67,60
32640,note_on,,,,,32,0,7,,,,,0,,,76,96
32640,note_on,,,,,92,0,8,,,,,1,,,71,60
32740,note_off,,,,,100,0,8,,,,,1,,,71,100
32740,note_off,,,,,100,0,10,,,,,3,,,64,100
32740,note_off,,,,,100,0,9,,,,,2,,,67,100
32832,note_on,,,,,92,0,8,,,,,1,,,71,60
32832,note_on,,,,,92,0,10,,,,,3,,,64,60
32832,note_on,,,,,92,0,9,,,,,2,,,67,60
32896,note_off,,,,,256,0,7,,,,,0,,,76,100
32932,note_off,,,,,100,0,10,,,,,3,,,64,100
32932,note_off,,,,,100,0,8,,,,,1,,,71,100
32932,note_off,,,,,100,0,9,,,,,2,,,67,100
33024,note_on,,,,,92,0,9,,,,,2,,,67,60
33024,note_on,,,,,92,0,8,,,,,1,,,71,60
33024,note_on,,,,,128,0,7,,,,,0,,,88,102
33024,note_on,,,,,92,0,10,,,,,3,,,64,60
33124,note_off,,,,,100,0,8,,,,,1,,,71,100
33124,note_off,,,,,100,0,10,,,,,3,,,64,100
33124,note_off,,,,,100,0,9,,,,,2,,,67,100
33216,note_on,,,,,92,0,10,,,,,3,,,64,60
33216,note_on,,,,,92,0,9,,,,,2,,,67,60
33216,note_on,,,,,92,0,8,,,,,1,,,71,60
33280,note_off,,,,,256,0,7,,,,,0,,,88,100
33316,note_off,,,,,100,0,10,,,,,3,,,64,100
33316,note_off,,,,,100,0,9,,,,,2,,,67,100
33316,note_off,,,,,100,0,8,,,,,1,,,71,100
33408,note_on,,,,,128,0,7,,,,,0,,,86,97
33408,note_on,,,,,92,0,8,,,,,1,,,71,60
33408,note_on,,,,,92,0,9,,,,,2,,,67,60
33408,note_on,,,,,92,0,10,,,,,3,,,64,60
33500,note_off,,,,,92,0,7,,,,,0,,,86,100
33504,note_on,,,,,4,0,7,,,,,0,,,84,98
33508,note_off,,,,,100,0,10,,,,,3,,,64,100
33508,note_off,,,,,100,0,8,,,,,1,,,71,100
33508,note_off,,,,,100,0,9,,,,,2,,,67,100
33568,note_off,,,,,64,0,7,,,,,0,,,84,100
33600,note_on,,,,,92,0,8,,,,,1,,,71,60
33600,note_on,,,,,92,0,10,,,,,3,,,64,60
33600,note_on,,,,,92,0,9,,,,,2,,,67,60
33600,note_on,,,,,32,0,7,,,,,0,,,83,99
33692,note_off,,,,,92,0,7,,,,,0,,,83,100
33696,note_on,,,,,4,0,7,,,,,0,,,81,101
33700,note_off,,,,,100,0,10,,,,,3,,,64,100
33700,note_off,,,,,100,0,8,,,,,1,,,71,100
33700,note_off,,,,,100,0,9,,,,,2,,,67,100
33760,note_off,,,,,64,0,7,,,,,0,,,81,100
33792,note_on,,,,,92,0,9,,,,,2,,,68,60
33792,note_on,,,,,32,0,7,,,,,0,,,80,102
33792,note_on,,,,,92,0,10,,,,,3,,,64,60
33792,note_on,,,,,92,0,8,,,,,1,,,71,60
33884,note_off,,,,,92,0,7,,,,,0,,,80,100
33888,note_on,,,,,4,0,7,,,,,0,,,81,102
33892,note_off,,,,,100,0,8,,,,,1,,,71,100
33892,note_off,,,,,100,0,10,,,,,3,,,64,100
33892,note_off,,,,,100,0,9,,,,,2,,,68,100
33980,note_off,,,,,92,0,7,,,,,0,,,81,100
33984,note_on,,,,,92,0,9,,,,,2,,,68,60
33984,note_on,,,,,92,0,8,,,,,1,,,71,60
33984,note_on,,,,,4,0,7,,,,,0,,,83,101
33984,note_on,,,,,92,0,10,,,,,3,,,64,60
34076,note_off,,,,,92,0,7,,,,,0,,,83,100
34080,note_on,,,,,4,0,7,,,,,0,,,81,100
34084,note_off,,,,,100,0,8,,,,,1,,,71,100
34084,note_off,,,,,100,0,9,,,,,2,,,68,100
34084,note_off,,,,,100,0,10,,,,,3,,,64,100
34144,note_off,,,,,64,0,7,,,,,0,,,81,100
34176,note_on,,,,,92,0,8,,,,,1,,,71,60
34176,note_on,,,,,32,0,7,,,,,0,,,80,100
34176,note_on,,,,,92,0,9,,,,,2,,,68,60
34176,note_on,,,,,92,0,10,,,,,3,,,64,60
34268,note_off,,,,,92,0,7,,,,,0,,,80,100
34272,note_on,,,,,4,0,7,,,,,0,,,78,99
34276,note_off,,,,,100,0,8,,,,,1,,,71,100
34276,note_off,,,,,100,0,10,,,,,3,,,64,100
34276,note_off,,,,,100,0,9,,,,,2,,,68,100
34336,note_off,,,,,64,0,7,,,,,0,,,78,100
34368,note_on,,,,,32,0,7,,,,,0,,,76,98
34368,note_on,,,,,92,0,9,,,,,2,,,68,60
34368,note_on,,,,,92,0,10,,,,,3,,,64,60
34368,note_on,,,,,92,0,8,,,,,1,,,71,60
34460,note_off,,,,,92,0,7,,,,,0,,,76,100
34464,note_on,,,,,4,0,7,,,,,0,,,75,97
34468,note_off,,,,,100,0,8,,,,,1,,,71,100
34468,note_off,,,,,100,0,10,,,,,3,,,64,100
34468,note_off,,,,,100,0,9,,,,,2,,,68,100
34528,note_off,,,,,64,0,7,,,,,0,,,75,100
34560,note_on,,,,,92,0,8,,,,,1,,,71,60
34560,note_on,,,,,32,0,7,,,,,0,,,76,97
34560,note_on,,,,,92,0,10,,,,,3,,,64,60
34560,note_on,,,,,92,0,9,,,,,2,,,68,60
34652,note_off,,,,,92,0,7,,,,,0,,,76,100
34656,note_on,,,,,4,0,7,,,,,0,,,83,96
34660,note_off,,,,,100,0,9,,,,,2,,,68,100
34660,note_off,,,,,100,0,8,,,,,1,,,71,100
34660,note_off,,,,,100,0,10,,,,,3,,,64,100
34748,note_off,,,,,92,0,7,,,,,0,,,83,100
34752,note_on,,,,,92,0,9,,,,,2,,,68,60
34752,note_on,,,,,4,0,7,,,,,0,,,84,96
34752,note_on,,,,,92,0,8,,,,,1,,,71,60
34752,note_on,,,,,92,0,10,,,,,3,,,64,60
34844,note_off,,,,,92,0,7,,,,,0,,,84,100
34848,note_on,,,,,4,0,7,,,,,0,,,86,97
34852,note_off,,,,,100,0,10,,,,,3,,,64,100
34852,note_off,,,,,100,0,9,,,,,2,,,68,100
34852,note_off,,,,,100,0,8,,,,,1,,,71,100
34940,note_off,,,,,92,0,7,,,,,0,,,86,100
34944,note_on,,,,,92,0,9,,,,,2,,,68,60
34944,note_on,,,,,92,0,8,,,,,1,,,71,60
34944,note_on,,,,,92,0,10,,,,,3,,,64,60
34944,note_on,,,,,4,0,7,,,,,0,,,84,98
35044,note_off,,,,,100,0,8,,,,,1,,,71,100
35044,note_off,,,,,100,0,10,,,,,3,,,64,100
35044,note_off,,,,,100,0,9,,,,,2,,,68,100
35132,note_off,,,,,188,0,7,,,,,0,,,84,100
35136,note_on,,,,,92,0,9,,,,,2,,,68,60
35136,note_on,,,,,92,0,8,,,,,1,,,71,60
35136,note_on,,,,,4,0,7,,,,,0,,,83,99
35136,note_on,,,,,92,0,10,,,,,3,,,64,60
35236,note_off,,,,,100,0,10,,,,,3,,,64,100
35236,note_off,,,,,100,0,8,,,,,1,,,71,100
35236,note_off,,,,,100,0,9,,,,,2,,,68,100
35264,note_off,,,,,128,0,7,,,,,0,,,83,100
35328,note_on,,,,,92,0,8,,,,,1,,,71,55
35328,note_on,,,,,92,0,10,,,,,3,,,64,55
35328,note_on,,,,,92,0,9,,,,,2,,,68,55
35328,note_on,,,,,64,0,7,,,,,0,,,88,92
35428,note_off,,,,,100,0,10,,,,,3,,,64,100
35428,note_off,,,,,100,0,9,,,,,2,,,68,100
35428,note_off,,,,,100,0,8,,,,,1,,,71,100
35520,note_on,,,,,92,0,10,,,,,3,,,64,55
35520,note_on,,,,,92,0,8,,,,,1,,,71,55
35520,note_on,,,,,92,0,9,,,,,2,,,68,55
35584,note_off,,,,,256,0,7,,,,,0,,,88,100
35620,note_off,,,,,100,0,10,,,,,3,,,64,100
35620,note_off,,,,,100,0,8,,,,,1,,,71,100
35620,note_off,,,,,100,0,9,,,,,2,,,68,100
35712,note_on,,,,,92,0,10,,,,,3,,,64,55
35712,note_on,,,,,92,0,8,,,,,1,,,71,55
35712,note_on,,,,,92,0,9,,,,,2,,,68,55
35712,note_on,,,,,128,0,7,,,,,0,,,86,87
35804,note_off,,,,,92,0,7,,,,,0,,,86,100
35808,note_on,,,,,4,0,7,,,,,0,,,84,88
35812,note_off,,,,,100,0,9,,,,,2,,,68,100
35812,note_off,,,,,100,0,10,,,,,3,,,64,100
35812,note_off,,,,,100,0,8,,,,,1,,,71,100
35872,note_off,,,,,64,0,7,,,,,0,,,84,100
35904,note_on,,,,,92,0,8,,,,,1,,,71,55
35904,note_on,,,,,92,0,10,,,,,3,,,64,55
35904,note_on,,,,,92,0,9,,,,,2,,,68,55
35904,note_on,,,,,32,0,7,,,,,0,,,83,89
35996,note_off,,,,,92,0,7,,,,,0,,,83,100
36000,note_on,,,,,4,0,7,,,,,0,,,81,91
36004,note_off,,,,,100,0,8,,,,,1,,,71,100
36004,note_off,,,,,100,0,9,,,,,2,,,68,100
36004,note_off,,,,,100,0,10,,,,,3,,,64,100
36064,note_off,,,,,64,0,7,,,,,0,,,81,100
36096,note_on,,,,,92,0,10,,,,,3,,,64,55
36096,note_on,,,,,92,0,9,,,,,2,,,68,55
36096,note_on,,,,,92,0,8,,,,,1,,,71,55
36096,note_on,,,,,32,0,7,,,,,0,,,80,92
36188,note_off,,,,,92,0,7,,,,,0,,,80,100
36192,note_on,,,,,4,0,7,,,,,0,,,81,92
36196,note_off,,,,,100,0,10,,,,,3,,,64,100
36196,note_off,,,,,100,0,9,,,,,2,,,68,100
36196,note_off,,,,,100,0,8,,,,,1,,,71,100
36284,note_off,,,,,92,0,7,,,,,0,,,81,100
36288,note_on,,,,,92,0,8,,,,,1,,,71,55
36288,note_on,,,,,92,0,9,,,,,2,,,68,55
36288,note_on,,,,,4,0,7,,,,,0,,,83,91
36288,note_on,,,,,92,0,10,,,,,3,,,64,55
36380,note_off,,,,,92,0,7,,,,,0,,,83,100
36384,note_on,,,,,4,0,7,,,,,0,,,81,90
36388,note_off,,,,,100,0,10,,,,,3,,,64,100
36388,note_off,,,,,100,0,8,,,,,1,,,71,100
36388,note_off,,,,,100,0,9,,,,,2,,,68,100
36448,note_off,,,,,64,0,7,,,,,0,,,81,100
36480,note_on,,,,,92,0,9,,,,,2,,,68,55
36480,note_on,,,,,92,0,8,,,,,1,,,71,55
36480,note_on,,,,,32,0,7,,,,,0,,,80,90
36480,note_on,,,,,92,0,10,,,,,3,,,64,55
36572,note_off,,,,,92,0,7,,,,,0,,,80,100
36576,note_on,,,,,4,0,7,,,,,0,,,78,89
36580,note_off,,,,,100,0,9,,,,,2,,,68,100
36580,note_off,,,,,100,0,10,,,,,3,,,64,100
36580,note_off,,,,,100,0,8,,,,,1,,,71,100
36640,note_off,,,,,64,0,7,,,,,0,,,78,100
36672,note_on,,,,,92,0,9,,,,,2,,,68,55
36672,note_on,,,,,32,0,7,,,,,0,,,76,88
36672,note_on,,,,,92,0,8,,,,,1,,,71,55
36672,note_on,,,,,92,0,10,,,,,3,,,64,55
36764,note_off,,,,,92,0,7,,,,,0,,,76,100
36768,note_on,,,,,4,0,7,,,,,0,,,75,87
36772,note_off,,,,,100,0,9,,,,,2,,,68,100
36772,note_off,,,,,100,0,10,,,,,3,,,64,100
36772,note_off,,,,,100,0,8,,,,,1,,,71,100
36832,note_off,,,,,64,0,7,,,,,0,,,75,100
36864,note_on,,,,,32,0,7,,,,,0,,,76,85
36864,note_on,,,,,92,0,9,,,,,2,,,68,55
36864,note_on,,,,,92,0,8,,,,,1,,,71,55
36864,note_on,,,,,92,0,10,,,,,3,,,64,55
36956,note_off,,,,,92,0,7,,,,,0,,,76,100
36960,note_on,,,,,4,0,7,,,,,0,,,83,86
36964,note_off,,,,,100,0,8,,,,,1,,,71,100
36964,note_off,,,,,100,0,9,,,,,2,,,68,100
36964,note_off,,,,,100,0,10,,,,,3,,,64,100
37052,note_off,,,,,92,0,7,,,,,0,,,83,100
37056,note_on,,,,,4,0,7,,,,,0,,,84,88
37056,note_on,,,,,92,0,9,,,,,2,,,68,55
37056,note_on,,,,,92,0,10,,,,,3,,,64,55
37056,note_on,,,,,92,0,8,,,,,1,,,71,55
37148,note_off,,,,,92,0,7,,,,,0,,,84,100
37152,note_on,,,,,4,0,7,,,,,0,,,86,89
37156,note_off,,,,,100,0,9,,,,,2,,,68,100
37156,note_off,,,,,100,0,10,,,,,3,,,64,100
37156,note_off,,,,,100,0,8,,,,,1,,,71,100
37244,note_off,,,,,92,0,7,,,,,0,,,86,100
37248,note_on,,,,,92,0,8,,,,,1,,,71,55
37248,note_on,,,,,92,0,9,,,,,2,,,68,55
37248,note_on,,,,,92,0,10,,,,,3,,,64,55
37248,note_on,,,,,4,0,7,,,,,0,,,84,91
37348,note_off,,,,,100,0,8,,,,,1,,,71,100
37348,note_off,,,,,100,0,9,,,,,2,,,68,100
37348,note_off,,,,,100,0,10,,,,,3,,,64,100
37436,note_off,,,,,188,0,7,,,,,0,,,84,100
37440,note_on,,,,,92,0,8,,,,,1,,,71,55
37440,note_on,,,,,92,0,9,,,,,2,,,68,55
37440,note_on,,,,,92,0,10,,,,,3,,,64,55
37440,note_on,,,,,4,0,7,,,,,0,,,83,94
37540,note_off,,,,,100,0,10,,,,,3,,,64,100
37540,note_off,,,,,100,0,8,,,,,1,,,71,100
37540,note_off,,,,,100,0,9,,,,,2,,,68,100
37568,note_off,,,,,128,0,7,,,,,0,,,83,100
37632,note_on,,,,,92,0,8,,,,,1,,,72,60
37632,note_on,,,,,92,0,10,,,,,3,,,57,60
37632,note_on,,,,,92,0,9,,,,,2,,,69,60
37632,note_on,,,,,64,0,7,,,,,0,,,88,100
37732,note_off,,,,,100,0,8,,,,,1,,,72,100
37732,note_off,,,,,100,0,10,,,,,3,,,57,100
37732,note_off,,,,,100,0,9,,,,,2,,,69,100
37824,note_on,,,,,92,0,8,,,,,1,,,72,60
37824,note_on,,,,,92,0,10,,,,,3,,,57,60
37824,note_on,,,,,92,0,9,,,,,2,,,69,60
37888,note_off,,,,,256,0,7,,,,,0,,,88,100
37924,note_off,,,,,100,0,9,,,,,2,,,69,100
37924,note_off,,,,,100,0,8,,,,,1,,,72,100
37924,note_off,,,,,100,0,10,,,,,3,,,57,100
38016,note_on,,,,,92,0,10,,,,,3,,,57,60
38016,note_on,,,,,128,0,7,,,,,0,,,86,100
38016,note_on,,,,,92,0,9,,,,,2,,,64,60
38016,note_on,,,,,92,0,8,,,,,1,,,72,60
38108,note_off,,,,,92,0,7,,,,,0,,,86,100
38112,note_on,,,,,4,0,7,,,,,0,,,84,100
38116,note_off,,,,,100,0,9,,,,,2,,,64,100
38116,note_off,,,,,100,0,10,,,,,3,,,57,100
38116,note_off,,,,,100,0,8,,,,,1,,,72,100
38176,note_off,,,,,64,0,7,,,,,0,,,84,100
38208,note_on,,,,,92,0,10,,,,,3,,,57,60
38208,note_on,,,,,92,0,9,,,,,2,,,64,60
38208,note_on,,,,,92,0,8,,,,,1,,,72,60
38208,note_on,,,,,32,0,7,,,,,0,,,83,100
38300,note_off,,,,,92,0,7,,,,,0,,,83,100
38304,note_on,,,,,4,0,7,,,,,0,,,81,100
38308,note_off,,,,,100,0,9,,,,,2,,,64,100
38308,note_off,,,,,100,0,8,,,,,1,,,72,100
38308,note_off,,,,,100,0,10,,,,,3,,,57,100
38368,note_off,,,,,64,0,7,,,,,0,,,81,100
38400,note_on,,,,,92,0,9,,,,,2,,,64,60
38400,note_on,,,,,92,0,8,,,,,1,,,71,60
38400,note_on,,,,,32,0,7,,,,,0,,,81,100
38400,note_on,,,,,92,0,10,,,,,3,,,64,60
38492,note_off,,,,,92,0,7,,,,,0,,,81,100
38496,note_on,,,,,4,0,7,,,,,0,,,80,100
38500,note_off,,,,,100,0,9,,,,,2,,,64,100
38500,note_off,,,,,100,0,10,,,,,3,,,64,100
38500,note_off,,,,,100,0,8,,,,,1,,,71,100
38540,note_off,,,,,44,0,7,,,,,0,,,80,100
38544,note_on,,,,,4,0,7,,,,,0,,,81,100
38588,note_off,,,,,44,0,7,,,,,0,,,81,100
38592,note_on,,,,,92,0,9,,,,,2,,,64,60
38592,note_on,,,,,92,0,8,,,,,1,,,71,60
38592,note_on,,,,,92,0,10,,,,,3,,,64,60
38592,note_on,,,,,4,0,7,,,,,0,,,80,99
38636,note_off,,,,,44,0,7,,,,,0,,,80,100
38640,note_on,,,,,4,0,7,,,,,0,,,81,99
38684,note_off,,,,,44,0,7,,,,,0,,,81,100
38688,note_on,,,,,4,0,7,,,,,0,,,80,99
38692,note_off,,,,,100,0,8,,,,,1,,,71,100
38692,note_off,,,,,100,0,10,,,,,3,,,64,100
38692,note_off,,,,,100,0,9,,,,,2,,,64,100
38732,note_off,,,,,44,0,7,,,,,0,,,80,100
38736,note_on,,,,,4,0,7,,,,,0,,,81,98
38780,note_off,,,,,44,0,7,,,,,0,,,81,100
38784,note_on,,,,,92,0,9,,,,,2,,,68,60
38784,note_on,,,,,92,0,8,,,,,1,,,71,60
38784,note_on,,,,,4,0,7,,,,,0,,,80,98
38784,note_on,,,,,92,0,10,,,,,3,,,64,60
38884,note_off,,,,,100,0,9,,,,,2,,,68,100
38884,note_off,,,,,100,0,8,,,,,1,,,71,100
38884,note_off,,,,,100,0,10,,,,,3,,,64,100
38972,note_off,,,,,188,0,7,,,,,0,,,80,100
38976,note_on,,,,,92,0,9,,,,,2,,,68,60
38976,note_on,,,,,92,0,10,,,,,3,,,64,60
38976,note_on,,,,,92,0,8,,,,,1,,,71,60
38976,note_on,,,,,4,0,7,,,,,0,,,81,97
39076,note_off,,,,,100,0,8,,,,,1,,,71,100
39076,note_off,,,,,100,0,10,,,,,3,,,64,100
39076,note_off,,,,,100,0,9,,,,,2,,,68,100
39104,note_off,,,,,128,0,7,,,,,0,,,81,100
39168,note_on,,,,,92,0,8,,,,,1,,,72,60
39168,note_on,,,,,92,0,9,,,,,2,,,64,60
39168,note_on,,,,,64,0,7,,,,,0,,,81,96
39168,note_on,,,,,92,0,10,,,,,3,,,57,60
39268,note_off,,,,,100,0,8,,,,,1,,,72,100
39268,note_off,,,,,100,0,10,,,,,3,,,57,100
39268,note_off,,,,,100,0,9,,,,,2,,,64,100
39360,note_on,,,,,92,0,10,,,,,3,,,57,60
39360,note_on,,,,,92,0,8,,,,,1,,,72,60
39360,note_on,,,,,92,0,9,,,,,2,,,64,60
39460,note_off,,,,,100,0,8,,,,,1,,,72,100
39460,note_off,,,,,100,0,10,,,,,3,,,57,100
39460,note_off,,,,,100,0,9,,,,,2,,,64,100
39552,note_on,,,,,92,0,8,,,,,1,,,72,60
39552,note_on,,,,,92,0,10,,,,,3,,,57,60
39552,note_on,,,,,92,0,9,,,,,2,,,64,60
39652,note_off,,,,,100,0,10,,,,,3,,,57,100
39652,note_off,,,,,100,0,9,,,,,2,,,64,100
39652,note_off,,,,,100,0,8,,,,,1,,,72,100
39680,note_off,,,,,512,0,7,,,,,0,,,81,100
39744,note_on,,,,,92,0,9,,,,,2,,,64,60
39744,note_on,,,,,92,0,8,,,,,1,,,72,60
39744,note_on,,,,,92,0,10,,,,,3,,,57,60
39844,note_off,,,,,100,0,8,,,,,1,,,72,100
39844,note_off,,,,,100,0,9,,,,,2,,,64,100
39844,note_off,,,,,100,0,10,,,,,3,,,57,100
39936,note_on,,,,,92,0,8,,,,,1,,,72,60
39936,note_on,,,,,256,0,7,,,,,0,,,81,95
39936,note_on,,,,,92,0,9,,,,,2,,,66,60
39936,note_on,,,,,92,0,10,,,,,3,,,62,60
40036,note_off,,,,,100,0,10,,,,,3,,,62,100
40036,note_off,,,,,100,0,9,,,,,2,,,66,100
40036,note_off,,,,,100,0,8,,,,,1,,,72,100
40124,note_off,,,,,188,0,7,,,,,0,,,81,100
40128,note_on,,,,,92,0,9,,,,,2,,,66,60
40128,note_on,,,,,92,0,8,,,,,1,,,72,60
40128,note_on,,,,,92,0,10,,,,,3,,,62,60
40128,note_on,,,,,4,0,7,,,,,0,,,83,96
40220,note_off,,,,,92,0,7,,,,,0,,,83,100
40224,note_on,,,,,4,0,7,,,,,0,,,84,96
40228,note_off,,,,,100,0,8,,,,,1,,,72,100
40228,note_off,,,,,100,0,10,,,,,3,,,62,100
40228,note_off,,,,,100,0,9,,,,,2,,,66,100
40316,note_off,,,,,92,0,7,,,,,0,,,84,100
40320,note_on,,,,,92,0,10,,,,,3,,,62,60
40320,note_on,,,,,92,0,9,,,,,2,,,66,60
40320,note_on,,,,,4,0,7,,,,,0,,,83,97
40320,note_on,,,,,92,0,8,,,,,1,,,72,60
40420,note_off,,,,,100,0,9,,,,,2,,,66,100
40420,note_off,,,,,100,0,8,,,,,1,,,72,100
40420,note_off,,,,,100,0,10,,,,,3,,,62,100
40448,note_off,,,,,128,0,7,,,,,0,,,83,100
40512,note_on,,,,,64,0,7,,,,,0,,,81,98
40512,note_on,,,,,92,0,10,,,,,3,,,62,60
40512,note_on,,,,,92,0,9,,,,,2,,,66,60
40512,note_on,,,,,92,0,8,,,,,1,,,72,60
40612,note_off,,,,,100,0,8,,,,,1,,,72,100
40612,note_off,,,,,100,0,10,,,,,3,,,62,100
40612,note_off,,,,,100,0,9,,,,,2,,,66,100
40640,note_off,,,,,128,0,7,,,,,0,,,81,100
40704,note_on,,,,,92,0,8,,,,,1,,,72,60
40704,note_on,,,,,64,0,7,,,,,0,,,86,99
40704,note_on,,,,,92,0,10,,,,,3,,,62,60
40704,note_on,,,,,92,0,9,,,,,2,,,66,60
40804,note_off,,,,,100,0,8,,,,,1,,,72,100
40804,note_off,,,,,100,0,10,,,,,3,,,62,100
40804,note_off,,,,,100,0,9,,,,,2,,,66,100
40896,note_on,,,,,92,0,10,,,,,3,,,62,60
40896,note_on,,,,,92,0,9,,,,,2,,,66,60
40896,note_on,,,,,92,0,8,,,,,1,,,72,60
40960,note_off,,,,,256,0,7,,,,,0,,,86,100
40996,note_off,,,,,100,0,10,,,,,3,,,62,100
40996,note_off,,,,,100,0,8,,,,,1,,,72,100
40996,note_off,,,,,100,0,9,,,,,2,,,66,100
41088,note_on,,,,,92,0,9,,,,,2,,,66,60
41088,note_on,,,,,92,0,10,,,,,3,,,62,60
41088,note_on,,,,,128,0,7,,,,,0,,,84,99
41088,note_on,,,,,92,0,8,,,,,1,,,72,60
41180,note_off,,,,,92,0,7,,,,,0,,,84,100
41184,note_on,,,,,4,0,7,,,,,0,,,83,98
41188,note_off,,,,,100,0,10,,,,,3,,,62,100
41188,note_off,,,,,100,0,8,,,,,1,,,72,100
41188,note_off,,,,,100,0,9,,,,,2,,,66,100
41248,note_off,,,,,64,0,7,,,,,0,,,83,100
41280,note_on,,,,,32,0,7,,,,,0,,,81,98
41280,note_on,,,,,92,0,8,,,,,1,,,72,60
41280,note_on,,,,,92,0,9,,,,,2,,,66,60
41280,note_on,,,,,92,0,10,,,,,3,,,62,60
41372,note_off,,,,,92,0,7,,,,,0,,,81,100
41376,note_on,,,,,4,0,7,,,,,0,,,79,98
41380,note_off,,,,,100,0,9,,,,,2,,,66,100
41380,note_off,,,,,100,0,8,,,,,1,,,72,100
41380,note_off,,,,,100,0,10,,,,,3,,,62,100
41440,note_off,,,,,64,0,7,,,,,0,,,79,100
41472,note_on,,,,,92,0,10,,,,,3,,,62,60
41472,note_on,,,,,92,0,8,,,,,1,,,72,60
41472,note_on,,,,,92,0,9,,,,,2,,,66,60
41472,note_on,,,,,32,0,7,,,,,0,,,81,97
41564,note_off,,,,,92,0,7,,,,,0,,,81,100
41568,note_on,,,,,4,0,7,,,,,0,,,78,97
41572,note_off,,,,,100,0,9,,,,,2,,,66,100
41572,note_off,,,,,100,0,8,,,,,1,,,72,100
41572,note_off,,,,,100,0,10,,,,,3,,,62,100
41632,note_off,,,,,64,0,7,,,,,0,,,78,100
41664,note_on,,,,,92,0,10,,,,,3,,,62,60
41664,note_on,,,,,92,0,8,,,,,1,,,72,60
41664,note_on,,,,,32,0,7,,,,,0,,,79,96
41664,note_on,,,,,92,0,9,,,,,2,,,66,60
41756,note_off,,,,,92,0,7,,,,,0,,,79,100
41760,note_on,,,,,4,0,7,,,,,0,,,76,96
41764,note_off,,,,,100,0,10,,,,,3,,,62,100
41764,note_off,,,,,100,0,8,,,,,1,,,72,100
41764,note_off,,,,,100,0,9,,,,,2,,,66,100
41824,note_off,,,,,64,0,7,,,,,0,,,76,100
41856,note_on,,,,,92,0,8,,,,,1,,,72,60
41856,note_on,,,,,32,0,7,,,,,0,,,74,96
41856,note_on,,,,,92,0,9,,,,,2,,,66,60
41856,note_on,,,,,92,0,10,,,,,3,,,62,60
41956,note_off,,,,,100,0,10,,,,,3,,,62,100
41956,note_off,,,,,100,0,8,,,,,1,,,72,100
41956,note_off,,,,,100,0,9,,,,,2,,,66,100
42048,note_on,,,,,92,0,10,,,,,3,,,62,60
42048,note_on,,,,,92,0,8,,,,,1,,,72,60
42048,note_on,,,,,92,0,9,,,,,2,,,66,60
42112,note_off,,,,,256,0,7,,,,,0,,,74,100
42148,note_off,,,,,100,0,10,,,,,3,,,62,100
42148,note_off,,,,,100,0,9,,,,,2,,,66,100
42148,note_off,,,,,100,0,8,,,,,1,,,72,100
42240,note_on,,,,,92,0,9,,,,,2,,,66,60
42240,note_on,,,,,128,0,7,,,,,0,,,81,92
42240,note_on,,,,,92,0,10,,,,,3,,,62,60
42240,note_on,,,,,92,0,8,,,,,1,,,72,60
42340,note_off,,,,,100,0,10,,,,,3,,,62,100
42340,note_off,,,,,100,0,9,,,,,2,,,66,100
42340,note_off,,,,,100,0,8,,,,,1,,,72,100
42428,note_off,,,,,188,0,7,,,,,0,,,81,100
42432,note_on,,,,,92,0,9,,,,,2,,,66,60
42432,note_on,,,,,92,0,8,,,,,1,,,72,60
42432,note_on,,,,,92,0,10,,,,,3,,,62,60
42432,note_on,,,,,4,0,7,,,,,0,,,83,92
42524,note_off,,,,,92,0,7,,,,,0,,,83,100
42528,note_on,,,,,4,0,7,,,,,0,,,84,93
42532,note_off,,,,,100,0,10,,,,,3,,,62,100
42532,note_off,,,,,100,0,9,,,,,2,,,66,100
42532,note_off,,,,,100,0,8,,,,,1,,,72,100
42620,note_off,,,,,92,0,7,,,,,0,,,84,100
42624,note_on,,,,,92,0,8,,,,,1,,,72,60
42624,note_on,,,,,92,0,10,,,,,3,,,62,60
42624,note_on,,,,,4,0,7,,,,,0,,,83,93
42624,note_on,,,,,92,0,9,,,,,2,,,66,60
42724,note_off,,,,,100,0,9,,,,,2,,,66,100
42724,note_off,,,,,100,0,10,,,,,3,,,62,100
42724,note_off,,,,,100,0,8,,,,,1,,,72,100
42752,note_off,,,,,128,0,7,,,,,0,,,83,100
42816,note_on,,,,,64,0,7,,,,,0,,,81,94
42816,note_on,,,,,92,0,9,,,,,2,,,66,60
42816,note_on,,,,,92,0,10,,,,,3,,,62,60
42816,note_on,,,,,92,0,8,,,,,1,,,72,60
42916,note_off,,,,,100,0,8,,,,,1,,,72,100
42916,note_off,,,,,100,0,10,,,,,3,,,62,100
42916,note_off,,,,,100,0,9,,,,,2,,,66,100
42944,note_off,,,,,128,0,7,,,,,0,,,81,100
43008,note_on,,,,,92,0,8,,,,,1,,,71,60
43008,note_on,,,,,92,0,10,,,,,3,,,55,60
43008,note_on,,,,,64,0,7,,,,,0,,,83,95
43008,note_on,,,,,92,0,9,,,,,2,,,62,60
43108,note_off,,,,,100,0,10,,,,,3,,,55,100
43108,note_off,,,,,100,0,9,,,,,2,,,62,100
43108,note_off,,,,,100,0,8,,,,,1,,,71,100
43196,note_off,,,,,188,0,7,,,,,0,,,83,100
43200,note_on,,,,,92,0,10,,,,,3,,,55,60
43200,note_on,,,,,92,0,8,,,,,1,,,71,60
43200,note_on,,,,,92,0,9,,,,,2,,,62,60
43200,note_on,,,,,4,0,7,,,,,0,,,84,96
43292,note_off,,,,,92,0,7,,,,,0,,,84,100
43296,note_on,,,,,4,0,7,,,,,0,,,86,97
43300,note_off,,,,,100,0,9,,,,,2,,,62,100
43300,note_off,,,,,100,0,8,,,,,1,,,71,100
43300,note_off,,,,,100,0,10,,,,,3,,,55,100
43388,note_off,,,,,92,0,7,,,,,0,,,86,100
43392,note_on,,,,,4,0,7,,,,,0,,,84,97
43392,note_on,,,,,92,0,9,,,,,2,,,62,60
43392,note_on,,,,,92,0,8,,,,,1,,,71,60
43392,note_on,,,,,92,0,10,,,,,3,,,55,60
43492,note_off,,,,,100,0,9,,,,,2,,,62,100
43492,note_off,,,,,100,0,10,,,,,3,,,55,100
43492,note_off,,,,,100,0,8,,,,,1,,,71,100
43520,note_off,,,,,128,0,7,,,,,0,,,84,100
43584,note_on,,,,,92,0,9,,,,,2,,,62,60
43584,note_on,,,,,92,0,8,,,,,1,,,71,60
43584,note_on,,,,,92,0,10,,,,,3,,,55,60
43584,note_on,,,,,64,0,7,,,,,0,,,83,98
43684,note_off,,,,,100,0,8,,,,,1,,,71,100
43684,note_off,,,,,100,0,9,,,,,2,,,62,100
43684,note_off,,,,,100,0,10,,,,,3,,,55,100
43712,note_off,,,,,128,0,7,,,,,0,,,83,100
43776,note_on,,,,,64,0,7,,,,,0,,,84,99
43776,note_on,,,,,92,0,10,,,,,3,,,62,60
43776,note_on,,,,,92,0,9,,,,,2,,,66,60
43776,note_on,,,,,92,0,8,,,,,1,,,69,60
43876,note_off,,,,,100,0,10,,,,,3,,,62,100
43876,note_off,,,,,100,0,9,,,,,2,,,66,100
43876,note_off,,,,,100,0,8,,,,,1,,,69,100
43964,note_off,,,,,188,0,7,,,,,0,,,84,100
43968,note_on,,,,,4,0,7,,,,,0,,,86,100
43968,note_on,,,,,92,0,10,,,,,3,,,62,60
43968,note_on,,,,,92,0,9,,,,,2,,,66,60
43968,note_on,,,,,92,0,8,,,,,1,,,69,60
44060,note_off,,,,,92,0,7,,,,,0,,,86,100
44064,note_on,,,,,4,0,7,,,,,0,,,88,101
44068,note_off,,,,,100,0,8,,,,,1,,,69,100
44068,note_off,,,,,100,0,9,,,,,2,,,66,100
44068,note_off,,,,,100,0,10,,,,,3,,,62,100
44156,note_off,,,,,92,0,7,,,,,0,,,88,100
44160,note_on,,,,,4,0,7,,,,,0,,,86,101
44160,note_on,,,,,92,0,9,,,,,2,,,66,60
44160,note_on,,,,,92,0,8,,,,,1,,,69,60
44160,note_on,,,,,92,0,10,,,,,3,,,62,60
44260,note_off,,,,,100,0,9,,,,,2,,,66,100
44260,note_off,,,,,100,0,10,,,,,3,,,62,100
44260,note_off,,,,,100,0,8,,,,,1,,,69,100
44288,note_off,,,,,128,0,7,,,,,0,,,86,100
44352,note_on,,,,,64,0,7,,,,,0,,,84,102
44352,note_on,,,,,92,0,10,,,,,3,,,62,60
44352,note_on,,,,,92,0,8,,,,,1,,,69,60
44352,note_on,,,,,92,0,9,,,,,2,,,66,60
44452,note_off,,,,,100,0,10,,,,,3,,,62,100
44452,note_off,,,,,100,0,9,,,,,2,,,66,100
44452,note_off,,,,,100,0,8,,,,,1,,,69,100
44480,note_off,,,,,128,0,7,,,,,0,,,84,100
44544,note_on,,,,,64,0,7,,,,,0,,,86,103
44544,note_on,,,,,92,0,8,,,,,1,,,67,60
44544,note_on,,,,,92,0,9,,,,,2,,,62,60
44544,note_on,,,,,92,0,10,,,,,3,,,59,60
44644,note_off,,,,,100,0,9,,,,,2,,,62,100
44644,note_off,,,,,100,0,10,,,,,3,,,59,100
44644,note_off,,,,,100,0,8,,,,,1,,,67,100
44732,note_off,,,,,188,0,7,,,,,0,,,86,100
44736,note_on,,,,,92,0,8,,,,,1,,,67,60
44736,note_on,,,,,4,0,7,,,,,0,,,88,104
44736,note_on,,,,,92,0,9,,,,,2,,,62,60
44736,note_on,,,,,92,0,10,,,,,3,,,59,60
44828,note_off,,,,,92,0,7,,,,,0,,,88,100
44832,note_on,,,,,4,0,7,,,,,0,,,90,105
44836,note_off,,,,,100,0,9,,,,,2,,,62,100
44836,note_off,,,,,100,0,8,,,,,1,,,67,100
44836,note_off,,,,,100,0,10,,,,,3,,,59,100
44924,note_off,,,,,92,0,7,,,,,0,,,90,100
44928,note_on,,,,,92,0,9,,,,,2,,,62,60
44928,note_on,,,,,92,0,8,,,,,1,,,67,60
44928,note_on,,,,,92,0,10,,,,,3,,,59,60
44928,note_on,,,,,4,0,7,,,,,0,,,88,105
45028,note_off,,,,,100,0,10,,,,,3,,,59,100
45028,note_off,,,,,100,0,9,,,,,2,,,62,100
45028,note_off,,,,,100,0,8,,,,,1,,,67,100
45056,note_off,,,,,128,0,7,,,,,0,,,88,100
45120,note_on,,,,,92,0,8,,,,,1,,,67,60
45120,note_on,,,,,64,0,7,,,,,0,,,86,106
45120,note_on,,,,,92,0,9,,,,,2,,,62,60
45120,note_on,,,,,92,0,10,,,,,3,,,59,60
45220,note_off,,,,,100,0,8,,,,,1,,,67,100
45220,note_off,,,,,100,0,10,,,,,3,,,59,100
45220,note_off,,,,,100,0,9,,,,,2,,,62,100
45248,note_off,,,,,128,0,7,,,,,0,,,86,100
45312,note_on,,,,,92,0,10,,,,,3,,,60,60
45312,note_on,,,,,64,0,7,,,,,0,,,91,107
45312,note_on,,,,,92,0,9,,,,,2,,,64,60
45312,note_on,,,,,92,0,8,,,,,1,,,67,60
45412,note_off,,,,,100,0,9,,,,,2,,,64,100
45412,note_off,,,,,100,0,8,,,,,1,,,67,100
45412,note_off,,,,,100,0,10,,,,,3,,,60,100
45440,note_off,,,,,128,0,7,,,,,0,,,91,100
45504,note_on,,,,,92,0,8,,,,,1,,,67,60
45504,note_on,,,,,64,0,7,,,,,0,,,90,105
45504,note_on,,,,,92,0,10,,,,,3,,,60,60
45504,note_on,,,,,92,0,9,,,,,2,,,64,60
45596,note_off,,,,,92,0,7,,,,,0,,,90,100
45600,note_on,,,,,4,0,7,,,,,0,,,88,105
45604,note_off,,,,,100,0,10,,,,,3,,,60,100
45604,note_off,,,,,100,0,9,,,,,2,,,64,100
45604,note_off,,,,,100,0,8,,,,,1,,,67,100
45692,note_off,,,,,92,0,7,,,,,0,,,88,100
45696,note_on,,,,,4,0,7,,,,,0,,,86,104
45696,note_on,,,,,92,0,8,,,,,1,,,67,60
45696,note_on,,,,,92,0,9,,,,,2,,,64,60
45696,note_on,,,,,92,0,10,,,,,3,,,60,60
45788,note_off,,,,,92,0,7,,,,,0,,,86,100
45792,note_on,,,,,4,0,7,,,,,0,,,84,103
45796,note_off,,,,,100,0,10,,,,,3,,,60,100
45796,note_off,,,,,100,0,8,,,,,1,,,67,100
45796,note_off,,,,,100,0,9,,,,,2,,,64,100
45884,note_off,,,,,92,0,7,,,,,0,,,84,100
45888,note_on,,,,,4,0,7,,,,,0,,,83,102
45888,note_on,,,,,92,0,10,,,,,3,,,60,60
45888,note_on,,,,,92,0,8,,,,,1,,,67,60
45888,note_on,,,,,92,0,9,,,,,2,,,64,60
45980,note_off,,,,,92,0,7,,,,,0,,,83,100
45984,note_on,,,,,4,0,7,,,,,0,,,81,101
45988,note_off,,,,,100,0,9,,,,,2,,,64,100
45988,note_off,,,,,100,0,10,,,,,3,,,60,100
45988,note_off,,,,,100,0,8,,,,,1,,,67,100
46048,note_off,,,,,64,0,7,,,,,0,,,81,100
46080,note_on,,,,,32,0,7,,,,,0,,,83,101
46080,note_on,,,,,92,0,10,,,,,3,,,55,60
46080,note_on,,,,,92,0,9,,,,,2,,,62,60
46080,note_on,,,,,92,0,8,,,,,1,,,67,60
46180,note_off,,,,,100,0,10,,,,,3,,,55,100
46180,note_off,,,,,100,0,9,,,,,2,,,62,100
46180,note_off,,,,,100,0,8,,,,,1,,,67,100
46208,note_off,,,,,128,0,7,,,,,0,,,83,100
46272,note_on,,,,,92,0,8,,,,,1,,,71,60
46272,note_on,,,,,92,0,10,,,,,3,,,55,60
46272,note_on,,,,,64,0,7,,,,,0,,,81,100
46272,note_on,,,,,92,0,9,,,,,2,,,62,60
46316,note_off,,,,,44,0,7,,,,,0,,,81,100
46320,note_on,,,,,4,0,7,,,,,0,,,79,100
46364,note_off,,,,,44,0,7,,,,,0,,,79,100
46368,note_on,,,,,4,0,7,,,,,0,,,81,100
46372,note_off,,,,,100,0,8,,,,,1,,,71,100
46372,note_off,,,,,100,0,9,,,,,2,,,62,100
46372,note_off,,,,,100,0,10,,,,,3,,,55,100
46412,note_off,,,,,44,0,7,,,,,0,,,81,100
46416,note_on,,,,,4,0,7,,,,,0,,,79,100
46464,note_on,,,,,92,0,9,,,,,2,,,64,60
46464,note_on,,,,,92,0,10,,,,,3,,,61,60
46464,note_on,,,,,92,0,8,,,,,1,,,69,60
46552,note_off,,,,,136,0,7,,,,,0,,,79,100
46560,note_on,,,,,8,0,7,,,,,0,,,78,100
46564,note_off,,,,,100,0,10,,,,,3,,,61,100
46564,note_off,,,,,100,0,9,,,,,2,,,64,100
46564,note_off,,,,,100,0,8,,,,,1,,,69,100
46652,note_off,,,,,92,0,7,,,,,0,,,78,100
46656,note_on,,,,,92,0,10,,,,,3,,,61,60
46656,note_on,,,,,92,0,8,,,,,1,,,69,60
46656,note_on,,,,,92,0,9,,,,,2,,,64,60
46656,note_on,,,,,4,0,7,,,,,0,,,79,101
46748,note_off,,,,,92,0,7,,,,,0,,,79,100
46752,note_on,,,,,4,0,7,,,,,0,,,81,102
46756,note_off,,,,,100,0,9,,,,,2,,,64,100
46756,note_off,,,,,100,0,8,,,,,1,,,69,100
46756,note_off,,,,,100,0,10,,,,,3,,,61,100
46796,note_off,,,,,44,0,7,,,,,0,,,81,100
46800,note_on,,,,,4,0,7,,,,,0,,,83,102
46832,note_off,,,,,32,0,7,,,,,0,,,83,100
46848,note_on,,,,,92,0,10,,,,,3,,,62,60
46848,note_on,,,,,16,0,7,,,,,0,,,79,102
46848,note_on,,,,,92,0,8,,,,,1,,,69,60
46848,note_on,,,,,92,0,9,,,,,2,,,62,60
46940,note_off,,,,,92,0,7,,,,,0,,,79,100
46944,note_on,,,,,4,0,7,,,,,0,,,78,102
46948,note_off,,,,,100,0,10,,,,,3,,,62,100
46948,note_off,,,,,100,0,9,,,,,2,,,62,100
46948,note_off,,,,,100,0,8,,,,,1,,,69,100
46988,note_off,,,,,44,0,7,,,,,0,,,78,100
46992,note_on,,,,,4,0,7,,,,,0,,,79,101
47036,note_off,,,,,44,0,7,,,,,0,,,79,100
47040,note_on,,,,,92,0,9,,,,,2,,,62,60
47040,note_on,,,,,4,0,7,,,,,0,,,78,101
47040,note_on,,,,,92,0,10,,,,,3,,,62,60
47040,note_on,,,,,92,0,8,,,,,1,,,69,60
47084,note_off,,,,,44,0,7,,,,,0,,,78,100
47088,note_on,,,,,4,0,7,,,,,0,,,79,100
47132,note_off,,,,,44,0,7,,,,,0,,,79,100
47136,note_on,,,,,4,0,7,,,,,0,,,78,100
47140,note_off,,,,,100,0,9,,,,,2,,,62,100
47140,note_off,,,,,100,0,8,,,,,1,,,69,100
47140,note_off,,,,,100,0,10,,,,,3,,,62,100
47180,note_off,,,,,44,0,7,,,,,0,,,78,100
47184,note_on,,,,,4,0,7,,,,,0,,,79,99
47228,note_off,,,,,44,0,7,,,,,0,,,79,100
47232,note_on,,,,,92,0,9,,,,,2,,,66,60
47232,note_on,,,,,92,0,8,,,,,1,,,69,60
47232,note_on,,,,,4,0,7,,,,,0,,,78,99
47232,note_on,,,,,92,0,10,,,,,3,,,62,60
47332,note_off,,,,,100,0,8,,,,,1,,,69,100
47332,note_off,,,,,100,0,10,,,,,3,,,62,100
47332,note_off,,,,,100,0,9,,,,,2,,,66,100
47420,note_off,,,,,188,0,7,,,,,0,,,78,100
47424,note_on,,,,,4,0,7,,,,,0,,,79,97
47424,note_on,,,,,92,0,8,,,,,1,,,69,60
47424,note_on,,,,,92,0,9,,,,,2,,,66,60
47424,note_on,,,,,92,0,10,,,,,3,,,62,60
47524,note_off,,,,,100,0,10,,,,,3,,,62,100
47524,note_off,,,,,100,0,8,,,,,1,,,69,100
47524,note_off,,,,,100,0,9,,,,,2,,,66,100
47552,note_off,,,,,128,0,7,,,,,0,,,79,100
47616,note_on,,,,,92,0,8,,,,,1,,,71,60
47616,note_on,,,,,92,0,10,,,,,3,,,55,60
47616,note_on,,,,,64,0,7,,,,,0,,,79,96
47616,note_on,,,,,92,0,9,,,,,2,,,62,60
47744,note_off,,,,,128,0,7,,,,,0,,,79,100
47808,note_on,,,,,64,0,7,,,,,0,,,81,100
47852,note_off,,,,,44,0,7,,,,,0,,,81,100
47856,note_on,,,,,4,0,7,,,,,0,,,79,100
47872,note_off,,,,,256,0,10,,,,,3,,,55,100
47872,note_off,,,,,256,0,8,,,,,1,,,71,100
47872,note_off,,,,,256,0,9,,,,,2,,,62,100
47900,note_off,,,,,44,0,7,,,,,0,,,79,100
47904,note_on,,,,,4,0,7,,,,,0,,,81,99
47948,note_off,,,,,44,0,7,,,,,0,,,81,100
47952,note_on,,,,,4,0,7,,,,,0,,,79,98
48048,note_off,,,,,96,0,7,,,,,0,,,79,100
48096,note_on,,,,,48,0,7,,,,,0,,,81,96
48160,note_off,,,,,64,0,7,,,,,0,,,81,100
48192,note_on,,,,,32,0,7,,,,,0,,,83,94
48256,note_off,,,,,64,0,7,,,,,0,,,83,100
48288,note_on,,,,,32,0,7,,,,,0,,,79,92
48352,note_off,,,,,64,0,7,,,,,0,,,79,100
48384,note_on,,,,,32,0,7,,,,,0,,,76,90
48384,note_on,,,,,512,0,8,,,,,1,,,71,55
48384,note_on,,,,,512,0,9,,,,,2,,,67,55
48384,note_on,,,,,512,0,10,,,,,3,,,64,55
48476,note_off,,,,,92,0,7,,,,,0,,,76,100
48480,note_on,,,,,4,0,7,,,,,0,,,79,90
48484,note_off,,,,,100,0,8,,,,,1,,,71,100
48484,note_off,,,,,100,0,10,,,,,3,,,64,100
48484,note_off,,,,,100,0,9,,,,,2,,,67,100
48572,note_off,,,,,92,0,7,,,,,0,,,79,100
48576,note_on,,,,,4,0,7,,,,,0,,,78,90
48576,note_on,,,,,92,0,8,,,,,1,,,71,55
48576,note_on,,,,,92,0,9,,,,,2,,,67,55
48576,note_on,,,,,92,0,10,,,,,3,,,64,55
48640,note_off,,,,,64,0,7,,,,,0,,,78,100
48672,note_on,,,,,32,0,7,,,,,0,,,76,90
48676,note_off,,,,,100,0,10,,,,,3,,,64,100
48676,note_off,,,,,100,0,9,,,,,2,,,67,100
48676,note_off,,,,,100,0,8,,,,,1,,,71,100
48736,note_off,,,,,64,0,7,,,,,0,,,76,100
48768,note_on,,,,,92,0,9,,,,,2,,,67,55
48768,note_on,,,,,32,0,7,,,,,0,,,83,90
48768,note_on,,,,,92,0,10,,,,,3,,,64,55
48768,note_on,,,,,92,0,8,,,,,1,,,71,55
48832,note_off,,,,,64,0,7,,,,,0,,,83,100
48864,note_on,,,,,32,0,7,,,,,0,,,79,90
48868,note_off,,,,,100,0,10,,,,,3,,,64,100
48868,note_off,,,,,100,0,8,,,,,1,,,71,100
48868,note_off,,,,,100,0,9,,,,,2,,,67,100
48928,note_off,,,,,64,0,7,,,,,0,,,79,100
48960,note_on,,,,,32,0,7,,,,,0,,,81,90
48960,note_on,,,,,92,0,9,,,,,2,,,67,55
48960,note_on,,,,,92,0,10,,,,,3,,,64,55
48960,note_on,,,,,92,0,8,,,,,1,,,71,55
49004,note_off,,,,,44,0,7,,,,,0,,,81,100
49008,note_on,,,,,4,0,7,,,,,0,,,79,90
49040,note_off,,,,,32,0,7,,,,,0,,,79,100
49056,note_on,,,,,16,0,7,,,,,0,,,78,90
49060,note_off,,,,,100,0,8,,,,,1,,,71,100
49060,note_off,,,,,100,0,10,,,,,3,,,64,100
49060,note_off,,,,,100,0,9,,,,,2,,,67,100
49100,note_off,,,,,44,0,7,,,,,0,,,78,100
49104,note_on,,,,,4,0,7,,,,,0,,,76,90
49136,note_off,,,,,32,0,7,,,,,0,,,76,100
49152,note_on,,,,,16,0,7,,,,,0,,,71,90
49152,note_on,,,,,92,0,8,,,,,1,,,71,55
49152,note_on,,,,,92,0,9,,,,,2,,,67,55
49152,note_on,,,,,92,0,10,,,,,3,,,64,55
49244,note_off,,,,,92,0,7,,,,,0,,,71,100
49248,note_on,,,,,4,0,7,,,,,0,,,79,90
49252,note_off,,,,,100,0,8,,,,,1,,,71,100
49252,note_off,,,,,100,0,10,,,,,3,,,64,100
49252,note_off,,,,,100,0,9,,,,,2,,,67,100
49340,note_off,,,,,92,0,7,,,,,0,,,79,100
49344,note_on,,,,,4,0,7,,,,,0,,,78,90
49344,note_on,,,,,92,0,9,,,,,2,,,67,55
49344,note_on,,,,,92,0,10,,,,,3,,,64,55
49344,note_on,,,,,92,0,8,,,,,1,,,71,55
49408,note_off,,,,,64,0,7,,,,,0,,,78,100
49440,note_on,,,,,32,0,7,,,,,0,,,76,90
49444,note_off,,,,,100,0,10,,,,,3,,,64,100
49444,note_off,,,,,100,0,8,,,,,1,,,71,100
49444,note_off,,,,,100,0,9,,,,,2,,,67,100
49504,note_off,,,,,64,0,7,,,,,0,,,76,100
49536,note_on,,,,,92,0,8,,,,,1,,,71,55
49536,note_on,,,,,92,0,9,,,,,2,,,67,55
49536,note_on,,,,,32,0,7,,,,,0,,,83,90
49536,note_on,,,,,92,0,10,,,,,3,,,64,55
49600,note_off,,,,,64,0,7,,,,,0,,,83,100
49632,note_on,,,,,32,0,7,,,,,0,,,79,90
49636,note_off,,,,,100,0,10,,,,,3,,,64,100
49636,note_off,,,,,100,0,9,,,,,2,,,67,100
49636,note_off,,,,,100,0,8,,,,,1,,,71,100
49696,note_off,,,,,64,0,7,,,,,0,,,79,100
49728,note_on,,,,,32,0,7,,,,,0,,,81,90
49728,note_on,,,,,92,0,9,,,,,2,,,69,55
49728,note_on,,,,,92,0,10,,,,,3,,,57,55
49728,note_on,,,,,92,0,8,,,,,1,,,72,55
49772,note_off,,,,,44,0,7,,,,,0,,,81,100
49776,note_on,,,,,4,0,7,,,,,0,,,79,90
49808,note_off,,,,,32,0,7,,,,,0,,,79,100
49824,note_on,,,,,16,0,7,,,,,0,,,78,90
49828,note_off,,,,,100,0,8,,,,,1,,,72,100
49828,note_off,,,,,100,0,9,,,,,2,,,69,100
49828,note_off,,,,,100,0,10,,,,,3,,,57,100
49868,note_off,,,,,44,0,7,,,,,0,,,78,100
49872,note_on,,,,,4,0,7,,,,,0,,,76,90
49904,note_off,,,,,32,0,7,,,,,0,,,76,100
49920,note_on,,,,,92,0,10,,,,,3,,,59,55
49920,note_on,,,,,16,0,7,,,,,0,,,75,90
49920,note_on,,,,,92,0,8,,,,,1,,,66,55
49920,note_on,,,,,92,0,9,,,,,2,,,63,55
50012,note_off,,,,,92,0,7,,,,,0,,,75,100
50016,note_on,,,,,4,0,7,,,,,0,,,76,90
50020,note_off,,,,,100,0,10,,,,,3,,,59,100
50020,note_off,,,,,100,0,8,,,,,1,,,66,100
50020,note_off,,,,,100,0,9,,,,,2,,,63,100
50108,note_off,,,,,92,0,7,,,,,0,,,76,100
50112,note_on,,,,,92,0,10,,,,,3,,,59,55
50112,note_on,,,,,4,0,7,,,,,0,,,78,90
50112,note_on,,,,,92,0,9,,,,,2,,,63,55
50112,note_on,,,,,92,0,8,,,,,1,,,66,55
50176,note_off,,,,,64,0,7,,,,,0,,,78,100
50208,note_on,,,,,32,0,7,,,,,0,,,75,90
50212,note_off,,,,,100,0,10,,,,,3,,,59,100
50212,note_off,,,,,100,0,9,,,,,2,,,63,100
50212,note_off,,,,,100,0,8,,,,,1,,,66,100
50272,note_off,,,,,64,0,7,,,,,0,,,75,100
50304,note_on,,,,,92,0,10,,,,,3,,,59,55
50304,note_on,,,,,32,0,7,,,,,0,,,71,90
50304,note_on,,,,,92,0,8,,,,,1,,,66,55
50304,note_on,,,,,92,0,9,,,,,2,,,63,55
50396,note_off,,,,,92,0,7,,,,,0,,,71,100
50400,note_on,,,,,4,0,7,,,,,0,,,81,90
50404,note_off,,,,,100,0,9,,,,,2,,,63,100
50404,note_off,,,,,100,0,8,,,,,1,,,66,100
50404,note_off,,,,,100,0,10,,,,,3,,,59,100
50492,note_off,,,,,92,0,7,,,,,0,,,81,100
50496,note_on,,,,,92,0,8,,,,,1,,,66,55
50496,note_on,,,,,92,0,9,,,,,2,,,63,55
50496,note_on,,,,,4,0,7,,,,,0,,,79,91
50496,note_on,,,,,92,0,10,,,,,3,,,59,55
50560,note_off,,,,,64,0,7,,,,,0,,,79,100
50592,note_on,,,,,32,0,7,,,,,0,,,78,91
50596,note_off,,,,,100,0,8,,,,,1,,,66,100
50596,note_off,,,,,100,0,9,,,,,2,,,63,100
50596,note_off,,,,,100,0,10,,,,,3,,,59,100
50656,note_off,,,,,64,0,7,,,,,0,,,78,100
50688,note_on,,,,,32,0,7,,,,,0,,,71,92
50688,note_on,,,,,92,0,9,,,,,2,,,63,55
50688,note_on,,,,,92,0,8,,,,,1,,,66,55
50688,note_on,,,,,92,0,10,,,,,3,,,59,55
50780,note_off,,,,,92,0,7,,,,,0,,,71,100
50784,note_on,,,,,4,0,7,,,,,0,,,81,92
50788,note_off,,,,,100,0,10,,,,,3,,,59,100
50788,note_off,,,,,100,0,9,,,,,2,,,63,100
50788,note_off,,,,,100,0,8,,,,,1,,,66,100
50876,note_off,,,,,92,0,7,,,,,0,,,81,100
50880,note_on,,,,,92,0,9,,,,,2,,,63,55
50880,note_on,,,,,92,0,8,,,,,1,,,66,55
50880,note_on,,,,,92,0,10,,,,,3,,,59,55
50880,note_on,,,,,4,0,7,,,,,0,,,79,93
50944,note_off,,,,,64,0,7,,,,,0,,,79,100
50976,note_on,,,,,32,0,7,,,,,0,,,78,94
50980,note_off,,,,,100,0,9,,,,,2,,,63,100
50980,note_off,,,,,100,0,8,,,,,1,,,66,100
50980,note_off,,,,,100,0,10,,,,,3,,,59,100
51040,note_off,,,,,64,0,7,,,,,0,,,78,100
51072,note_on,,,,,92,0,8,,,,,1,,,75,55
51072,note_on,,,,,32,0,7,,,,,0,,,83,94
51072,note_on,,,,,92,0,10,,,,,3,,,59,55
51072,note_on,,,,,92,0,9,,,,,2,,,66,55
51136,note_off,,,,,64,0,7,,,,,0,,,83,100
51168,note_on,,,,,32,0,7,,,,,0,,,81,95
51172,note_off,,,,,100,0,10,,,,,3,,,59,100
51172,note_off,,,,,100,0,9,,,,,2,,,66,100
51172,note_off,,,,,100,0,8,,,,,1,,,75,100
51232,note_off,,,,,64,0,7,,,,,0,,,81,100
51264,note_on,,,,,92,0,8,,,,,1,,,75,55
51264,note_on,,,,,32,0,7,,,,,0,,,83,95
51264,note_on,,,,,92,0,10,,,,,3,,,59,55
51264,note_on,,,,,92,0,9,,,,,2,,,66,55
51308,note_off,,,,,44,0,7,,,,,0,,,83,100
51312,note_on,,,,,4,0,7,,,,,0,,,81,96
51344,note_off,,,,,32,0,7,,,,,0,,,81,100
51360,note_on,,,,,16,0,7,,,,,0,,,79,96
51364,note_off,,,,,100,0,9,,,,,2,,,66,100
51364,note_off,,,,,100,0,10,,,,,3,,,59,100
51364,note_off,,,,,100,0,8,,,,,1,,,75,100
51404,note_off,,,,,44,0,7,,,,,0,,,79,100
51408,note_on,,,,,4,0,7,,,,,0,,,78,96
51440,note_off,,,,,32,0,7,,,,,0,,,78,100
51456,note_on,,,,,92,0,10,,,,,3,,,64,55
51456,note_on,,,,,92,0,9,,,,,2,,,64,55
51456,note_on,,,,,16,0,7,,,,,0,,,79,97
51456,set_tempo,,,,,49920,1,0,,576923,,,,,,,
51456,note_on,,,,,92,0,8,,,,,1,,,71,55
51520,note_off,,,,,64,0,7,,,,,0,,,79,100
51552,note_on,,,,,32,0,7,,,,,0,,,81,97
51556,note_off,,,,,100,0,8,,,,,1,,,71,100
51556,note_off,,,,,100,0,9,,,,,2,,,64,100
51556,note_off,,,,,100,0,10,,,,,3,,,64,100
51616,note_off,,,,,64,0,7,,,,,0,,,81,100
51648,note_on,,,,,92,0,8,,,,,1,,,71,55
51648,set_tempo,,,,,192,1,0,,582524,,,,,,,
51648,note_on,,,,,92,0,9,,,,,2,,,67,55
51648,note_on,,,,,92,0,10,,,,,3,,,64,55
51648,note_on,,,,,32,0,7,,,,,0,,,79,97
51712,note_off,,,,,64,0,7,,,,,0,,,79,100
51744,note_on,,,,,32,0,7,,,,,0,,,78,96
51748,note_off,,,,,100,0,8,,,,,1,,,71,100
51748,note_off,,,,,100,0,9,,,,,2,,,67,100
51748,note_off,,,,,100,0,10,,,,,3,,,64,100
51808,note_off,,,,,64,0,7,,,,,0,,,78,100
51840,note_on,,,,,92,0,10,,,,,3,,,64,55
51840,note_on,,,,,92,0,8,,,,,1,,,71,55
51840,set_tempo,,,,,192,1,0,,588235,,,,,,,
51840,note_on,,,,,92,0,9,,,,,2,,,67,55
51840,note_on,,,,,32,0,7,,,,,0,,,76,96
51968,note_off,,,,,128,0,8,,,,,1,,,71,100
52000,note_off,,,,,160,0,7,,,,,0,,,76,100
52032,note_on,,,,,64,0,8,,,,,1,,,83,100
52032,set_tempo,,,,,192,1,0,,594059,,,,,,,
52032,note_on,,,,,23360,0,11,,,,,4,,,52,100
52032,note_on,,,,,23360,0,12,,,,,5,,,40,100
52032,note_on,,,,,23360,0,16,,,,,7,,,52,100
52032,note_on,,,,,23360,0,14,,,,,6,,,52,100
52096,note_off,,,,,256,0,10,,,,,3,,,64,100
52096,note_off,,,,,256,0,9,,,,,2,,,67,100
52132,note_off,,,,,100,0,11,,,,,4,,,52,100
52132,note_off,,,,,100,0,14,,,,,6,,,52,100
52132,note_off,,,,,100,0,12,,,,,5,,,40,100
52132,note_off,,,,,100,0,8,,,,,1,,,83,100
52132,note_off,,,,,100,0,16,,,,,7,,,52,100
52224,note_on,,,,,92,0,16,,,,,7,,,52,100
52224,note_on,,,,,128,0,10,,,,,3,,,67,100
52224,note_on,,,,,23552,0,13,,,,,6,,,67,100
52224,note_on,,,,,92,0,14,,,,,6,,,52,100
52224,note_on,,,,,23552,0,15,,,,,7,,,64,100
52224,note_on,,,,,0,0,15,,,,,7,,,67,100
52224,set_tempo,,,,,192,1,0,,576923,,,,,,,
52224,note_on,,,,,92,0,11,,,,,4,,,52,100
52224,note_on,,,,,0,0,15,,,,,7,,,71,100
52224,note_on,,,,,92,0,12,,,,,5,,,40,100
52224,note_on,,,,,92,0,8,,,,,1,,,83,100
52252,note_on,,,,,28,0,13,,,,,6,,,71,100
52284,note_on,,,,,32,0,13,,,,,6,,,76,100
52288,note_off,,,,,64,0,8,,,,,1,,,83,100
52320,note_on,,,,,32,0,8,,,,,1,,,81,100
52352,note_off,,,,,128,0,12,,,,,5,,,40,100
52352,note_off,,,,,128,0,14,,,,,6,,,52,100
52352,note_off,,,,,128,0,16,,,,,7,,,52,100
52352,note_off,,,,,128,0,11,,,,,4,,,52,100
52384,note_off,,,,,64,0,8,,,,,1,,,81,100
52416,note_on,,,,,64,0,14,,,,,6,,,52,100
52416,note_on,,,,,64,0,11,,,,,4,,,52,100
52416,note_on,,,,,64,0,12,,,,,5,,,40,100
52416,note_on,,,,,64,0,16,,,,,7,,,52,100
52416,note_on,,,,,32,0,8,,,,,1,,,79,100
52480,note_off,,,,,64,0,8,,,,,1,,,79,100
52512,note_on,,,,,32,0,8,,,,,1,,,78,100
52544,note_off,,,,,128,0,14,,,,,6,,,52,100
52544,note_off,,,,,128,0,16,,,,,7,,,52,100
52544,note_off,,,,,128,0,11,,,,,4,,,52,100
52544,note_off,,,,,128,0,12,,,,,5,,,40,100
52576,note_off,,,,,64,0,8,,,,,1,,,78,100
52608,note_on,,,,,64,0,16,,,,,7,,,52,100
52608,note_on,,,,,64,0,11,,,,,4,,,52,100
52608,note_on,,,,,32,0,8,,,,,1,,,76,100
52608,note_on,,,,,64,0,12,,,,,5,,,40,100
52608,note_on,,,,,64,0,14,,,,,6,,,52,100
52732,note_off,,,,,0,0,13,,,,,6,,,76,100
52732,note_off,,,,,448,0,13,,,,,6,,,71,100
52736,note_off,,,,,128,0,12,,,,,5,,,40,100
52736,note_off,,,,,128,0,16,,,,,7,,,52,100
52736,note_off,,,,,4,0,13,,,,,6,,,67,100
52736,note_off,,,,,128,0,14,,,,,6,,,52,100
52736,note_off,,,,,128,0,11,,,,,4,,,52,100
52736,note_off,,,,,128,0,8,,,,,1,,,76,100
52800,note_on,,,,,64,0,16,,,,,7,,,52,100
52800,note_on,,,,,64,0,11,,,,,4,,,52,100
52800,note_on,,,,,704,0,9,,,,,2,,,76,100
52800,note_on,,,,,64,0,14,,,,,6,,,52,100
52800,note_on,,,,,64,0,8,,,,,1,,,74,100
52800,note_on,,,,,64,0,12,,,,,5,,,40,100
52836,note_off,,,,,612,0,15,,,,,7,,,64,100
52836,note_off,,,,,0,0,15,,,,,7,,,67,100
52836,note_off,,,,,0,0,15,,,,,7,,,71,100
52900,note_off,,,,,100,0,9,,,,,2,,,76,100
52928,note_off,,,,,128,0,11,,,,,4,,,52,100
52928,note_off,,,,,128,0,14,,,,,6,,,52,100
52928,note_off,,,,,128,0,8,,,,,1,,,74,100
52928,note_off,,,,,128,0,12,,,,,5,,,40,100
52928,note_off,,,,,128,0,16,,,,,7,,,52,100
52992,note_on,,,,,0,0,15,,,,,7,,,69,100
52992,note_on,,,,,64,0,8,,,,,1,,,72,100
52992,note_on,,,,,64,0,12,,,,,5,,,33,100
52992,note_on,,,,,256,0,13,,,,,6,,,69,100
52992,note_on,,,,,92,0,9,,,,,2,,,76,100
52992,note_on,,,,,0,0,15,,,,,7,,,72,100
52992,note_on,,,,,156,0,15,,,,,7,,,79,100
52992,note_on,,,,,64,0,16,,,,,7,,,45,100
52992,note_on,,,,,64,0,14,,,,,6,,,45,100
52992,note_on,,,,,64,0,11,,,,,4,,,45,100
53020,note_on,,,,,28,0,13,,,,,6,,,72,100
53052,note_on,,,,,32,0,13,,,,,6,,,79,100
53056,note_off,,,,,64,0,9,,,,,2,,,76,100
53088,note_on,,,,,32,0,9,,,,,2,,,74,100
53120,note_off,,,,,128,0,16,,,,,7,,,45,100
53120,note_off,,,,,128,0,14,,,,,6,,,45,100
53120,note_off,,,,,128,0,11,,,,,4,,,45,100
53120,note_off,,,,,128,0,12,,,,,5,,,33,100
53152,note_off,,,,,64,0,9,,,,,2,,,74,100
53184,note_on,,,,,64,0,11,,,,,4,,,45,100
53184,note_on,,,,,64,0,16,,,,,7,,,45,100
53184,note_on,,,,,64,0,14,,,,,6,,,45,100
53184,note_on,,,,,64,0,12,,,,,5,,,33,100
53184,note_on,,,,,32,0,9,,,,,2,,,72,100
53220,note_off,,,,,996,0,10,,,,,3,,,67,100
53248,note_off,,,,,64,0,9,,,,,2,,,72,100
53280,note_on,,,,,32,0,9,,,,,2,,,71,100
53312,note_off,,,,,128,0,12,,,,,5,,,33,100
53312,note_off,,,,,128,0,16,,,,,7,,,45,100
53312,note_off,,,,,128,0,11,,,,,4,,,45,100
53312,note_off,,,,,128,0,14,,,,,6,,,45,100
53344,note_off,,,,,64,0,9,,,,,2,,,71,100
53376,note_on,,,,,64,0,14,,,,,6,,,45,100
53376,note_on,,,,,64,0,16,,,,,7,,,45,100
53376,note_on,,,,,64,0,11,,,,,4,,,45,100
53376,note_on,,,,,156,0,10,,,,,3,,,60,100
53376,note_on,,,,,64,0,12,,,,,5,,,33,100
53376,note_on,,,,,32,0,9,,,,,2,,,69,100
53452,note_off,,,,,460,0,8,,,,,1,,,72,100
53500,note_off,,,,,448,0,13,,,,,6,,,72,100
53500,note_off,,,,,0,0,13,,,,,6,,,79,100
53504,note_off,,,,,128,0,14,,,,,6,,,45,100
53504,note_off,,,,,4,0,13,,,,,6,,,69,100
53504,note_off,,,,,128,0,16,,,,,7,,,45,100
53504,note_off,,,,,128,0,11,,,,,4,,,45,100
53504,note_off,,,,,128,0,12,,,,,5,,,33,100
53504,note_off,,,,,128,0,9,,,,,2,,,69,100
53568,note_on,,,,,64,0,12,,,,,5,,,33,100
53568,note_on,,,,,64,0,16,,,,,7,,,45,100
53568,note_on,,,,,64,0,9,,,,,2,,,67,100
53568,note_on,,,,,64,0,11,,,,,4,,,45,100
53568,note_on,,,,,64,0,14,,,,,6,,,45,100
53568,note_on,,,,,116,0,8,,,,,1,,,81,100
53604,note_off,,,,,0,0,15,,,,,7,,,69,100
53604,note_off,,,,,0,0,15,,,,,7,,,72,100
53604,note_off,,,,,612,0,15,,,,,7,,,79,100
53668,note_off,,,,,100,0,8,,,,,1,,,81,100
53696,note_off,,,,,128,0,11,,,,,4,,,45,100
53696,note_off,,,,,128,0,16,,,,,7,,,45,100
53696,note_off,,,,,128,0,14,,,,,6,,,45,100
53696,note_off,,,,,128,0,12,,,,,5,,,33,100
53696,note_off,,,,,128,0,9,,,,,2,,,67,100
53760,note_on,,,,,64,0,11,,,,,4,,,50,100
53760,note_on,,,,,256,0,13,,,,,6,,,69,100
53760,note_on,,,,,64,0,9,,,,,2,,,66,100
53760,note_on,,,,,64,0,16,,,,,7,,,50,100
53760,note_on,,,,,64,0,14,,,,,6,,,50,100
53760,note_on,,,,,0,0,15,,,,,7,,,72,100
53760,note_on,,,,,0,0,15,,,,,7,,,78,100
53760,note_on,,,,,92,0,8,,,,,1,,,81,100
53760,note_on,,,,,156,0,15,,,,,7,,,69,100
53760,note_on,,,,,64,0,12,,,,,5,,,38,100
53788,note_on,,,,,28,0,13,,,,,6,,,72,100
53820,note_on,,,,,32,0,13,,,,,6,,,78,100
53824,note_off,,,,,64,0,8,,,,,1,,,81,100
53856,note_on,,,,,32,0,8,,,,,1,,,79,100
53888,note_off,,,,,128,0,11,,,,,4,,,50,100
53888,note_off,,,,,128,0,16,,,,,7,,,50,100
53888,note_off,,,,,128,0,14,,,,,6,,,50,100
53888,note_off,,,,,128,0,12,,,,,5,,,38,100
53920,note_off,,,,,64,0,8,,,,,1,,,79,100
53952,note_on,,,,,64,0,11,,,,,4,,,50,100
53952,note_on,,,,,64,0,14,,,,,6,,,50,100
53952,note_on,,,,,64,0,12,,,,,5,,,38,100
53952,note_on,,,,,64,0,16,,,,,7,,,50,100
53952,note_on,,,,,32,0,8,,,,,1,,,78,100
53988,note_off,,,,,612,0,10,,,,,3,,,60,100
54016,note_off,,,,,64,0,8,,,,,1,,,78,100
54048,note_on,,,,,32,0,8,,,,,1,,,76,99
54080,note_off,,,,,128,0,16,,,,,7,,,50,100
54080,note_off,,,,,128,0,11,,,,,4,,,50,100
54080,note_off,,,,,128,0,14,,,,,6,,,50,100
54080,note_off,,,,,128,0,12,,,,,5,,,38,100
54112,note_off,,,,,64,0,8,,,,,1,,,76,100
54144,note_on,,,,,64,0,16,,,,,7,,,50,100
54144,note_on,,,,,64,0,11,,,,,4,,,50,99
54144,note_on,,,,,156,0,10,,,,,3,,,66,99
54144,note_on,,,,,64,0,14,,,,,6,,,50,100
54144,note_on,,,,,64,0,12,,,,,5,,,38,99
54144,note_on,,,,,32,0,8,,,,,1,,,74,99
54220,note_off,,,,,460,0,9,,,,,2,,,66,100
54268,note_off,,,,,0,0,13,,,,,6,,,78,100
54268,note_off,,,,,448,0,13,,,,,6,,,72,100
54272,note_off,,,,,128,0,11,,,,,4,,,50,100
54272,note_off,,,,,128,0,14,,,,,6,,,50,100
54272,note_off,,,,,128,0,8,,,,,1,,,74,100
54272,note_off,,,,,128,0,12,,,,,5,,,38,100
54272,note_off,,,,,4,0,13,,,,,6,,,69,100
54272,note_off,,,,,128,0,16,,,,,7,,,50,100
54336,note_on,,,,,64,0,16,,,,,7,,,50,100
54336,note_on,,,,,116,0,9,,,,,2,,,74,98
54336,note_on,,,,,64,0,8,,,,,1,,,72,98
54336,note_on,,,,,64,0,14,,,,,6,,,50,100
54336,note_on,,,,,64,0,12,,,,,5,,,38,98
54336,note_on,,,,,64,0,11,,,,,4,,,50,98
54372,note_off,,,,,0,0,15,,,,,7,,,72,100
54372,note_off,,,,,0,0,15,,,,,7,,,78,100
54372,note_off,,,,,612,0,15,,,,,7,,,69,100
54436,note_off,,,,,100,0,9,,,,,2,,,74,100
54464,note_off,,,,,128,0,12,,,,,5,,,38,100
54464,note_off,,,,,128,0,11,,,,,4,,,50,100
54464,note_off,,,,,128,0,14,,,,,6,,,50,100
54464,note_off,,,,,128,0,8,,,,,1,,,72,100
54464,note_off,,,,,128,0,16,,,,,7,,,50,100
54528,note_on,,,,,64,0,11,,,,,4,,,43,98
54528,note_on,,,,,64,0,16,,,,,7,,,43,100
54528,note_on,,,,,92,0,9,,,,,2,,,74,98
54528,note_on,,,,,256,0,13,,,,,6,,,71,100
54528,note_on,,,,,64,0,8,,,,,1,,,71,98
54528,note_on,,,,,156,0,15,,,,,7,,,71,100
54528,note_on,,,,,64,0,14,,,,,6,,,43,100
54528,note_on,,,,,0,0,15,,,,,7,,,74,100
54528,note_on,,,,,0,0,15,,,,,7,,,78,100
54528,note_on,,,,,64,0,12,,,,,5,,,43,98
54556,note_on,,,,,28,0,13,,,,,6,,,74,100
54588,note_on,,,,,32,0,13,,,,,6,,,78,100
54592,note_off,,,,,64,0,9,,,,,2,,,74,100
54624,note_on,,,,,32,0,9,,,,,2,,,72,97
54656,note_off,,,,,128,0,14,,,,,6,,,43,100
54656,note_off,,,,,128,0,11,,,,,4,,,43,100
54656,note_off,,,,,128,0,16,,,,,7,,,43,100
54656,note_off,,,,,128,0,12,,,,,5,,,43,100
54688,note_off,,,,,64,0,9,,,,,2,,,72,100
54720,note_on,,,,,64,0,11,,,,,4,,,43,97
54720,note_on,,,,,64,0,14,,,,,6,,,43,100
54720,note_on,,,,,32,0,9,,,,,2,,,71,97
54720,note_on,,,,,64,0,12,,,,,5,,,43,97
54720,note_on,,,,,64,0,16,,,,,7,,,43,100
54756,note_off,,,,,612,0,10,,,,,3,,,66,100
54784,note_off,,,,,64,0,9,,,,,2,,,71,100
54816,note_on,,,,,32,0,9,,,,,2,,,69,97
54848,note_off,,,,,128,0,12,,,,,5,,,43,100
54848,note_off,,,,,128,0,16,,,,,7,,,43,100
54848,note_off,,,,,128,0,14,,,,,6,,,43,100
54848,note_off,,,,,128,0,11,,,,,4,,,43,100
54880,note_off,,,,,64,0,9,,,,,2,,,69,100
54912,note_on,,,,,32,0,9,,,,,2,,,67,96
54912,note_on,,,,,64,0,14,,,,,6,,,43,100
54912,note_on,,,,,156,0,10,,,,,3,,,59,96
54912,note_on,,,,,64,0,12,,,,,5,,,43,96
54912,note_on,,,,,64,0,16,,,,,7,,,43,100
54912,note_on,,,,,64,0,11,,,,,4,,,43,96
54988,note_off,,,,,460,0,8,,,,,1,,,71,100
55036,note_off,,,,,0,0,13,,,,,6,,,78,100
55036,note_off,,,,,448,0,13,,,,,6,,,74,100
55040,note_off,,,,,128,0,14,,,,,6,,,43,100
55040,note_off,,,,,4,0,13,,,,,6,,,71,100
55040,note_off,,,,,128,0,9,,,,,2,,,67,100
55040,note_off,,,,,128,0,16,,,,,7,,,43,100
55040,note_off,,,,,128,0,12,,,,,5,,,43,100
55040,note_off,,,,,128,0,11,,,,,4,,,43,100
55104,note_on,,,,,64,0,12,,,,,5,,,43,96
55104,note_on,,,,,64,0,14,,,,,6,,,43,100
55104,note_on,,,,,64,0,11,,,,,4,,,43,96
55104,note_on,,,,,64,0,16,,,,,7,,,43,100
55104,note_on,,,,,64,0,9,,,,,2,,,66,96
55104,note_on,,,,,116,0,8,,,,,1,,,79,96
55140,note_off,,,,,612,0,15,,,,,7,,,71,100
55140,note_off,,,,,0,0,15,,,,,7,,,78,100
55140,note_off,,,,,0,0,15,,,,,7,,,74,100
55204,note_off,,,,,100,0,8,,,,,1,,,79,100
55232,note_off,,,,,128,0,9,,,,,2,,,66,100
55232,note_off,,,,,128,0,12,,,,,5,,,43,100
55232,note_off,,,,,128,0,14,,,,,6,,,43,100
55232,note_off,,,,,128,0,11,,,,,4,,,43,100
55232,note_off,,,,,128,0,16,,,,,7,,,43,100
55296,note_on,,,,,64,0,9,,,,,2,,,64,95
55296,note_on,,,,,0,0,15,,,,,7,,,76,100
55296,note_on,,,,,256,0,13,,,,,6,,,67,100
55296,note_on,,,,,156,0,15,,,,,7,,,67,100
55296,note_on,,,,,0,0,15,,,,,7,,,71,100
55296,note_on,,,,,64,0,14,,,,,6,,,48,100
55296,note_on,,,,,64,0,12,,,,,5,,,36,95
55296,note_on,,,,,64,0,16,,,,,7,,,48,100
55296,note_on,,,,,92,0,8,,,,,1,,,79,95
55296,note_on,,,,,64,0,11,,,,,4,,,48,95
55324,note_on,,,,,28,0,13,,,,,6,,,71,100
55356,note_on,,,,,32,0,13,,,,,6,,,76,100
55360,note_off,,,,,64,0,8,,,,,1,,,79,100
55392,note_on,,,,,32,0,8,,,,,1,,,78,95
55424,note_off,,,,,128,0,12,,,,,5,,,36,100
55424,note_off,,,,,128,0,11,,,,,4,,,48,100
55424,note_off,,,,,128,0,14,,,,,6,,,48,100
55424,note_off,,,,,128,0,16,,,,,7,,,48,100
55456,note_off,,,,,64,0,8,,,,,1,,,78,100
55488,note_on,,,,,64,0,16,,,,,7,,,48,100
55488,note_on,,,,,64,0,11,,,,,4,,,48,94
55488,note_on,,,,,32,0,8,,,,,1,,,76,94
55488,note_on,,,,,64,0,14,,,,,6,,,48,100
55488,note_on,,,,,64,0,12,,,,,5,,,36,94
55524,note_off,,,,,612,0,10,,,,,3,,,59,100
55552,note_off,,,,,64,0,8,,,,,1,,,76,100
55584,note_on,,,,,32,0,8,,,,,1,,,74,94
55616,note_off,,,,,128,0,11,,,,,4,,,48,100
55616,note_off,,,,,128,0,14,,,,,6,,,48,100
55616,note_off,,,,,128,0,12,,,,,5,,,36,100
55616,note_off,,,,,128,0,16,,,,,7,,,48,100
55648,note_off,,,,,64,0,8,,,,,1,,,74,100
55680,note_on,,,,,156,0,10,,,,,3,,,64,94
55680,note_on,,,,,32,0,8,,,,,1,,,72,94
55680,note_on,,,,,64,0,16,,,,,7,,,48,100
55680,note_on,,,,,64,0,11,,,,,4,,,48,94
55680,note_on,,,,,64,0,12,,,,,5,,,36,94
55680,note_on,,,,,64,0,14,,,,,6,,,48,100
55756,note_off,,,,,460,0,9,,,,,2,,,64,100
55804,note_off,,,,,448,0,13,,,,,6,,,71,100
55804,note_off,,,,,0,0,13,,,,,6,,,76,100
55808,note_off,,,,,128,0,12,,,,,5,,,36,100
55808,note_off,,,,,128,0,8,,,,,1,,,72,100
55808,note_off,,,,,4,0,13,,,,,6,,,67,100
55808,note_off,,,,,128,0,11,,,,,4,,,48,100
55808,note_off,,,,,128,0,16,,,,,7,,,48,100
55808,note_off,,,,,128,0,14,,,,,6,,,48,100
55872,note_on,,,,,64,0,14,,,,,6,,,48,100
55872,note_on,,,,,64,0,8,,,,,1,,,71,93
55872,note_on,,,,,64,0,11,,,,,4,,,48,93
55872,note_on,,,,,64,0,16,,,,,7,,,48,100
55872,note_on,,,,,64,0,12,,,,,5,,,36,93
55872,note_on,,,,,116,0,9,,,,,2,,,72,93
55908,note_off,,,,,0,0,15,,,,,7,,,76,100
55908,note_off,,,,,0,0,15,,,,,7,,,71,100
55908,note_off,,,,,612,0,15,,,,,7,,,67,100
55972,note_off,,,,,100,0,9,,,,,2,,,72,100
56000,note_off,,,,,128,0,11,,,,,4,,,48,100
56000,note_off,,,,,128,0,8,,,,,1,,,71,100
56000,note_off,,,,,128,0,16,,,,,7,,,48,100
56000,note_off,,,,,128,0,12,,,,,5,,,36,100
56000,note_off,,,,,128,0,14,,,,,6,,,48,100
56064,note_on,,,,,0,0,15,,,,,7,,,72,100
56064,note_on,,,,,156,0,15,,,,,7,,,69,100
56064,note_on,,,,,64,0,8,,,,,1,,,69,92
56064,note_on,,,,,64,0,16,,,,,7,,,42,100
56064,note_on,,,,,64,0,11,,,,,4,,,42,92
56064,note_on,,,,,256,0,13,,,,,6,,,69,100
56064,note_on,,,,,92,0,9,,,,,2,,,72,92
56064,note_on,,,,,64,0,14,,,,,6,,,42,100
56064,note_on,,,,,64,0,12,,,,,5,,,42,92
56064,note_on,,,,,0,0,15,,,,,7,,,76,100
56092,note_on,,,,,28,0,13,,,,,6,,,72,100
56124,note_on,,,,,32,0,13,,,,,6,,,76,100
56128,note_off,,,,,64,0,9,,,,,2,,,72,100
56160,note_on,,,,,32,0,9,,,,,2,,,71,92
56192,note_off,,,,,128,0,14,,,,,6,,,42,100
56192,note_off,,,,,128,0,11,,,,,4,,,42,100
56192,note_off,,,,,128,0,16,,,,,7,,,42,100
56192,note_off,,,,,128,0,12,,,,,5,,,42,100
56224,note_off,,,,,64,0,9,,,,,2,,,71,100
56256,note_on,,,,,64,0,14,,,,,6,,,42,100
56256,note_on,,,,,32,0,9,,,,,2,,,69,92
56256,note_on,,,,,64,0,11,,,,,4,,,42,92
56256,note_on,,,,,64,0,16,,,,,7,,,42,100
56256,note_on,,,,,64,0,12,,,,,5,,,42,92
56292,note_off,,,,,612,0,10,,,,,3,,,64,100
56320,note_off,,,,,64,0,9,,,,,2,,,69,100
56352,note_on,,,,,32,0,9,,,,,2,,,67,91
56384,note_off,,,,,128,0,12,,,,,5,,,42,100
56384,note_off,,,,,128,0,11,,,,,4,,,42,100
56384,note_off,,,,,128,0,14,,,,,6,,,42,100
56384,note_off,,,,,128,0,16,,,,,7,,,42,100
56416,note_off,,,,,64,0,9,,,,,2,,,67,100
56448,note_on,,,,,64,0,12,,,,,5,,,42,91
56448,note_on,,,,,32,0,9,,,,,2,,,66,91
56448,note_on,,,,,64,0,11,,,,,4,,,42,91
56448,note_on,,,,,156,0,10,,,,,3,,,57,91
56448,note_on,,,,,64,0,14,,,,,6,,,42,100
56448,note_on,,,,,64,0,16,,,,,7,,,42,100
56524,note_off,,,,,460,0,8,,,,,1,,,69,100
56572,note_off,,,,,0,0,13,,,,,6,,,76,100
56572,note_off,,,,,448,0,13,,,,,6,,,72,100
56576,note_off,,,,,128,0,12,,,,,5,,,42,100
56576,note_off,,,,,128,0,11,,,,,4,,,42,100
56576,note_off,,,,,128,0,16,,,,,7,,,42,100
56576,note_off,,,,,128,0,9,,,,,2,,,66,100
56576,note_off,,,,,4,0,13,,,,,6,,,69,100
56576,note_off,,,,,128,0,14,,,,,6,,,42,100
56640,note_on,,,,,64,0,16,,,,,7,,,42,100
56640,note_on,,,,,116,0,8,,,,,1,,,78,90
56640,note_on,,,,,64,0,14,,,,,6,,,42,100
56640,note_on,,,,,64,0,11,,,,,4,,,42,90
56640,note_on,,,,,64,0,9,,,,,2,,,64,90
56640,note_on,,,,,64,0,12,,,,,5,,,42,90
56676,note_off,,,,,612,0,15,,,,,7,,,69,100
56676,note_off,,,,,0,0,15,,,,,7,,,72,100
56676,note_off,,,,,0,0,15,,,,,7,,,76,100
56740,note_off,,,,,100,0,8,,,,,1,,,78,100
56768,note_off,,,,,128,0,12,,,,,5,,,42,100
56768,note_off,,,,,128,0,16,,,,,7,,,42,100
56768,note_off,,,,,128,0,9,,,,,2,,,64,100
56768,note_off,,,,,128,0,14,,,,,6,,,42,100
56768,note_off,,,,,128,0,11,,,,,4,,,42,100
56832,note_on,,,,,92,0,8,,,,,1,,,78,90
56832,note_on,,,,,64,0,12,,,,,5,,,35,90
56832,note_on,,,,,64,0,9,,,,,2,,,63,90
56832,note_on,,,,,0,0,15,,,,,7,,,75,100
56832,note_on,,,,,0,0,15,,,,,7,,,71,100
56832,note_on,,,,,256,0,13,,,,,6,,,66,100
56832,note_on,,,,,156,0,15,,,,,7,,,66,100
56832,note_on,,,,,64,0,11,,,,,4,,,47,90
56832,note_on,,,,,64,0,16,,,,,7,,,47,100
56832,note_on,,,,,64,0,14,,,,,6,,,47,100
56860,note_on,,,,,28,0,13,,,,,6,,,71,100
56892,note_on,,,,,32,0,13,,,,,6,,,75,100
56896,note_off,,,,,64,0,8,,,,,1,,,78,100
56928,note_on,,,,,32,0,8,,,,,1,,,76,89
56960,note_off,,,,,128,0,12,,,,,5,,,35,100
56960,note_off,,,,,128,0,14,,,,,6,,,47,100
56960,note_off,,,,,128,0,11,,,,,4,,,47,100
56960,note_off,,,,,128,0,16,,,,,7,,,47,100
56992,note_off,,,,,64,0,8,,,,,1,,,76,100
57024,note_on,,,,,32,0,8,,,,,1,,,75,89
57024,note_on,,,,,64,0,16,,,,,7,,,47,100
57024,note_on,,,,,64,0,12,,,,,5,,,35,89
57024,note_on,,,,,64,0,14,,,,,6,,,47,100
57024,note_on,,,,,64,0,11,,,,,4,,,47,89
57060,note_off,,,,,612,0,10,,,,,3,,,57,100
57088,note_off,,,,,64,0,8,,,,,1,,,75,100
57120,note_on,,,,,32,0,8,,,,,1,,,73,89
57152,note_off,,,,,128,0,16,,,,,7,,,47,100
57152,note_off,,,,,128,0,14,,,,,6,,,47,100
57152,note_off,,,,,128,0,11,,,,,4,,,47,100
57152,note_off,,,,,128,0,12,,,,,5,,,35,100
57184,note_off,,,,,64,0,8,,,,,1,,,73,100
57216,note_on,,,,,32,0,8,,,,,1,,,71,88
57216,note_on,,,,,64,0,11,,,,,4,,,47,88
57216,note_on,,,,,64,0,12,,,,,5,,,35,88
57216,note_on,,,,,156,0,10,,,,,3,,,54,88
57216,note_on,,,,,64,0,16,,,,,7,,,47,100
57216,note_on,,,,,64,0,14,,,,,6,,,47,100
57292,note_off,,,,,460,0,9,,,,,2,,,63,100
57340,note_off,,,,,0,0,13,,,,,6,,,75,100
57340,note_off,,,,,448,0,13,,,,,6,,,71,100
57344,note_off,,,,,128,0,14,,,,,6,,,47,100
57344,note_off,,,,,128,0,11,,,,,4,,,47,100
57344,note_off,,,,,4,0,13,,,,,6,,,66,100
57344,note_off,,,,,128,0,16,,,,,7,,,47,100
57344,note_off,,,,,128,0,12,,,,,5,,,35,100
57344,note_off,,,,,128,0,8,,,,,1,,,71,100
57408,note_on,,,,,116,0,9,,,,,2,,,71,88
57408,note_on,,,,,64,0,12,,,,,5,,,35,88
57408,note_on,,,,,64,0,14,,,,,6,,,47,100
57408,note_on,,,,,64,0,8,,,,,1,,,69,88
57408,note_on,,,,,64,0,16,,,,,7,,,47,100
57408,note_on,,,,,64,0,11,,,,,4,,,47,88
57444,note_off,,,,,612,0,15,,,,,7,,,66,100
57444,note_off,,,,,0,0,15,,,,,7,,,75,100
57444,note_off,,,,,0,0,15,,,,,7,,,71,100
57472,note_off,,,,,256,0,10,,,,,3,,,54,100
57508,note_off,,,,,100,0,9,,,,,2,,,71,100
57536,note_off,,,,,128,0,14,,,,,6,,,47,100
57536,note_off,,,,,128,0,8,,,,,1,,,69,100
57536,note_off,,,,,128,0,12,,,,,5,,,35,100
57536,note_off,,,,,128,0,16,,,,,7,,,47,100
57536,note_off,,,,,128,0,11,,,,,4,,,47,100
57600,note_on,,,,,64,0,11,,,,,4,,,52,87
57600,note_on,,,,,92,0,9,,,,,2,,,71,87
57600,note_on,,,,,64,0,8,,,,,1,,,67,87
57600,note_on,,,,,64,0,16,,,,,7,,,52,100
57600,note_on,,,,,0,0,13,,,,,6,,,76,100
57600,note_on,,,,,0,0,13,,,,,6,,,71,100
57600,note_on,,,,,256,0,13,,,,,6,,,67,100
57600,note_on,,,,,0,0,15,,,,,7,,,71,100
57600,note_on,,,,,0,0,15,,,,,7,,,76,100
57600,note_on,,,,,128,0,10,,,,,3,,,55,87
57600,note_on,,,,,64,0,14,,,,,6,,,52,100
57600,note_on,,,,,64,0,12,,,,,5,,,40,87
57600,note_on,,,,,156,0,15,,,,,7,,,67,100
57664,note_off,,,,,64,0,9,,,,,2,,,71,100
57696,note_on,,,,,32,0,9,,,,,2,,,69,87
57728,note_off,,,,,128,0,16,,,,,7,,,52,100
57728,note_off,,,,,128,0,14,,,,,6,,,52,100
57728,note_off,,,,,128,0,12,,,,,5,,,40,100
57728,note_off,,,,,128,0,11,,,,,4,,,52,100
57760,note_off,,,,,64,0,9,,,,,2,,,69,100
57792,note_on,,,,,64,0,11,,,,,4,,,52,86
57792,note_on,,,,,32,0,9,,,,,2,,,67,86
57792,note_on,,,,,64,0,12,,,,,5,,,40,86
57792,note_on,,,,,64,0,16,,,,,7,,,52,100
57792,note_on,,,,,64,0,14,,,,,6,,,52,100
57856,note_off,,,,,0,0,15,,,,,7,,,71,100
57856,note_off,,,,,64,0,9,,,,,2,,,67,100
57856,note_off,,,,,0,0,13,,,,,6,,,76,100
57856,note_off,,,,,0,0,13,,,,,6,,,71,100
57856,note_off,,,,,256,0,13,,,,,6,,,67,100
57856,note_off,,,,,256,0,15,,,,,7,,,67,100
57856,note_off,,,,,0,0,15,,,,,7,,,76,100
57888,note_on,,,,,32,0,9,,,,,2,,,66,86
57920,note_off,,,,,128,0,16,,,,,7,,,52,100
57920,note_off,,,,,128,0,14,,,,,6,,,52,100
57920,note_off,,,,,128,0,12,,,,,5,,,40,100
57920,note_off,,,,,128,0,11,,,,,4,,,52,100
57952,note_off,,,,,64,0,9,,,,,2,,,66,100
57984,note_on,,,,,64,0,16,,,,,7,,,52,100
57984,note_on,,,,,32,0,9,,,,,2,,,64,86
57984,note_on,,,,,64,0,12,,,,,5,,,40,86
57984,note_on,,,,,64,0,11,,,,,4,,,52,86
57984,note_on,,,,,64,0,14,,,,,6,,,52,100
57984,note_off,,,,,384,0,10,,,,,3,,,55,100
58060,note_off,,,,,460,0,8,,,,,1,,,67,100
58084,note_off,,,,,100,0,9,,,,,2,,,64,100
58112,note_off,,,,,128,0,12,,,,,5,,,40,100
58112,note_off,,,,,128,0,14,,,,,6,,,52,100
58112,note_off,,,,,128,0,16,,,,,7,,,52,100
58112,note_off,,,,,128,0,11,,,,,4,,,52,100
58176,note_on,,,,,0,0,15,,,,,7,,,72,100
58176,note_on,,,,,0,0,15,,,,,7,,,78,100
58176,note_on,,,,,64,0,16,,,,,7,,,51,100
58176,note_on,,,,,320,0,13,,,,,6,,,66,100
58176,note_on,,,,,0,0,13,,,,,6,,,69,100
58176,note_on,,,,,320,0,15,,,,,7,,,69,100
58176,note_on,,,,,64,0,11,,,,,4,,,51,90
58176,note_on,,,,,192,0,10,,,,,3,,,63,90
58176,note_on,,,,,64,0,14,,,,,6,,,51,100
58176,note_on,,,,,92,0,9,,,,,2,,,78,90
58176,note_on,,,,,64,0,12,,,,,5,,,39,90
58176,note_on,,,,,116,0,8,,,,,1,,,83,90
58276,note_off,,,,,100,0,13,,,,,6,,,66,100
58276,note_off,,,,,100,0,10,,,,,3,,,63,100
58276,note_off,,,,,100,0,9,,,,,2,,,78,100
58276,note_off,,,,,100,0,8,,,,,1,,,83,100
58276,note_off,,,,,0,0,13,,,,,6,,,69,100
58304,note_off,,,,,128,0,11,,,,,4,,,51,100
58304,note_off,,,,,128,0,12,,,,,5,,,39,100
58304,note_off,,,,,0,0,15,,,,,7,,,78,100
58304,note_off,,,,,0,0,15,,,,,7,,,72,100
58304,note_off,,,,,128,0,14,,,,,6,,,51,100
58304,note_off,,,,,128,0,16,,,,,7,,,51,100
58304,note_off,,,,,128,0,15,,,,,7,,,69,100
58368,note_on,,,,,64,0,15,,,,,7,,,79,100
58368,note_on,,,,,0,0,15,,,,,7,,,71,100
58368,note_on,,,,,0,0,15,,,,,7,,,76,100
58368,note_on,,,,,64,0,11,,,,,4,,,52,91
58368,note_on,,,,,64,0,14,,,,,6,,,52,100
58368,note_on,,,,,92,0,13,,,,,6,,,64,100
58368,note_on,,,,,0,0,13,,,,,6,,,67,100
58368,note_on,,,,,92,0,10,,,,,3,,,59,91
58368,note_on,,,,,92,0,8,,,,,1,,,83,91
58368,note_on,,,,,92,0,9,,,,,2,,,79,91
58368,note_on,,,,,64,0,12,,,,,5,,,40,91
58368,note_on,,,,,64,0,16,,,,,7,,,52,100
58468,note_off,,,,,100,0,13,,,,,6,,,64,100
58468,note_off,,,,,100,0,16,,,,,7,,,52,100
58468,note_off,,,,,100,0,14,,,,,6,,,52,100
58468,note_off,,,,,100,0,10,,,,,3,,,59,100
58468,note_off,,,,,100,0,12,,,,,5,,,40,100
58468,note_off,,,,,0,0,13,,,,,6,,,67,100
58468,note_off,,,,,100,0,11,,,,,4,,,52,100
58496,note_off,,,,,128,0,9,,,,,2,,,79,100
58496,note_off,,,,,128,0,15,,,,,7,,,79,100
58496,note_off,,,,,128,0,8,,,,,1,,,83,100
58496,note_off,,,,,0,0,15,,,,,7,,,76,100
58496,note_off,,,,,0,0,15,,,,,7,,,71,100
58560,note_on,,,,,92,0,10,,,,,3,,,72,93
58560,note_on,,,,,64,0,15,,,,,7,,,72,100
58560,note_on,,,,,92,0,14,,,,,6,,,57,100
58560,note_on,,,,,64,0,9,,,,,2,,,78,93
58560,note_on,,,,,64,0,8,,,,,1,,,81,93
58560,note_on,,,,,0,0,15,,,,,7,,,78,100
58560,note_on,,,,,92,0,12,,,,,5,,,45,93
58560,note_on,,,,,92,0,11,,,,,4,,,57,93
58560,note_on,,,,,92,0,13,,,,,6,,,60,100
58560,note_on,,,,,92,0,16,,,,,7,,,57,100
58560,note_on,,,,,0,0,13,,,,,6,,,69,100
58624,note_off,,,,,64,0,8,,,,,1,,,81,100
58624,note_off,,,,,64,0,9,,,,,2,,,78,100
58656,note_on,,,,,32,0,9,,,,,2,,,76,94
58656,note_on,,,,,32,0,8,,,,,1,,,79,94
58660,note_off,,,,,100,0,12,,,,,5,,,45,100
58660,note_off,,,,,0,0,13,,,,,6,,,69,100
58660,note_off,,,,,100,0,11,,,,,4,,,57,100
58660,note_off,,,,,100,0,10,,,,,3,,,72,100
58660,note_off,,,,,100,0,16,,,,,7,,,57,100
58660,note_off,,,,,100,0,13,,,,,6,,,60,100
58660,note_off,,,,,100,0,14,,,,,6,,,57,100
58688,note_off,,,,,128,0,15,,,,,7,,,72,100
58688,note_off,,,,,0,0,15,,,,,7,,,78,100
58720,note_off,,,,,64,0,9,,,,,2,,,76,100
58720,note_off,,,,,64,0,8,,,,,1,,,79,100
58752,note_on,,,,,0,0,13,,,,,6,,,66,100
58752,note_on,,,,,92,0,13,,,,,6,,,63,100
58752,note_on,,,,,32,0,8,,,,,1,,,78,95
58752,note_on,,,,,92,0,14,,,,,6,,,59,100
58752,note_on,,,,,32,0,9,,,,,2,,,75,95
58752,note_on,,,,,92,0,16,,,,,7,,,59,100
58752,note_on,,,,,92,0,12,,,,,5,,,47,95
58752,note_on,,,,,64,0,15,,,,,7,,,75,100
58752,note_on,,,,,92,0,11,,,,,4,,,59,95
58752,note_on,,,,,0,0,15,,,,,7,,,78,100
58752,note_on,,,,,92,0,10,,,,,3,,,66,95
58796,note_off,,,,,44,0,8,,,,,1,,,78,100
58796,note_off,,,,,44,0,9,,,,,2,,,75,100
58800,note_on,,,,,4,0,8,,,,,1,,,79,95
58800,note_on,,,,,4,0,9,,,,,2,,,76,95
58844,note_off,,,,,44,0,9,,,,,2,,,76,100
58844,note_off,,,,,44,0,8,,,,,1,,,79,100
58848,note_on,,,,,4,0,8,,,,,1,,,78,94
58848,note_on,,,,,4,0,9,,,,,2,,,75,94
58852,note_off,,,,,100,0,16,,,,,7,,,59,100
58852,note_off,,,,,100,0,12,,,,,5,,,47,100
58852,note_off,,,,,100,0,10,,,,,3,,,66,100
58852,note_off,,,,,100,0,14,,,,,6,,,59,100
58852,note_off,,,,,100,0,11,,,,,4,,,59,100
58892,note_off,,,,,44,0,9,,,,,2,,,75,100
58892,note_off,,,,,44,0,8,,,,,1,,,78,100
58896,note_on,,,,,4,0,9,,,,,2,,,76,94
58896,note_on,,,,,4,0,8,,,,,1,,,79,94
58940,note_off,,,,,44,0,9,,,,,2,,,76,100
58940,note_off,,,,,44,0,8,,,,,1,,,79,100
58944,note_on,,,,,92,0,14,,,,,6,,,47,100
58944,note_on,,,,,92,0,10,,,,,3,,,71,93
58944,note_on,,,,,92,0,11,,,,,4,,,47,93
58944,note_on,,,,,92,0,12,,,,,5,,,35,93
58944,note_on,,,,,92,0,16,,,,,7,,,47,100
58944,note_on,,,,,4,0,9,,,,,2,,,75,93
58944,note_on,,,,,192,0,15,,,,,7,,,71,100
58944,note_on,,,,,4,0,8,,,,,1,,,78,93
59008,note_off,,,,,64,0,8,,,,,1,,,78,100
59008,note_off,,,,,64,0,15,,,,,7,,,75,100
59008,note_off,,,,,0,0,15,,,,,7,,,78,100
59008,note_off,,,,,0,0,13,,,,,6,,,66,100
59008,note_off,,,,,64,0,9,,,,,2,,,75,100
59008,note_off,,,,,256,0,13,,,,,6,,,63,100
59040,note_on,,,,,32,0,8,,,,,1,,,76,92
59040,note_on,,,,,32,0,9,,,,,2,,,76,92
59044,note_off,,,,,100,0,14,,,,,6,,,47,100
59044,note_off,,,,,100,0,10,,,,,3,,,71,100
59044,note_off,,,,,100,0,12,,,,,5,,,35,100
59044,note_off,,,,,100,0,16,,,,,7,,,47,100
59044,note_off,,,,,100,0,11,,,,,4,,,47,100
59072,note_off,,,,,64,0,15,,,,,7,,,71,100
59104,note_off,,,,,64,0,8,,,,,1,,,76,100
59104,note_off,,,,,64,0,9,,,,,2,,,76,100
59136,note_on,,,,,92,0,10,,,,,3,,,67,91
59136,note_on,,,,,128,0,13,,,,,6,,,67,100
59136,note_on,,,,,0,0,13,,,,,6,,,64,100
59136,note_on,,,,,92,0,12,,,,,5,,,40,91
59136,note_on,,,,,0,0,15,,,,,7,,,67,100
59136,note_on,,,,,64,0,15,,,,,7,,,64,100
59136,note_on,,,,,32,0,9,,,,,2,,,76,91
59136,note_on,,,,,7136,0,7,,,,,0,,,76,90
59136,note_on,,,,,92,0,16,,,,,7,,,40,100
59136,note_on,,,,,92,0,11,,,,,4,,,40,91
59136,note_on,,,,,32,0,8,,,,,1,,,76,91
59136,note_on,,,,,92,0,14,,,,,6,,,40,100
59136,note_on,,,,,0,0,15,,,,,7,,,71,100
59228,note_off,,,,,92,0,7,,,,,0,,,76,100
59232,note_on,,,,,4,0,7,,,,,0,,,71,90
59236,note_off,,,,,100,0,8,,,,,1,,,76,100
59236,note_off,,,,,100,0,9,,,,,2,,,76,100
59236,note_off,,,,,100,0,10,,,,,3,,,67,100
59296,note_off,,,,,64,0,7,,,,,0,,,71,100
59328,note_on,,,,,92,0,10,,,,,3,,,64,60
59328,note_on,,,,,92,0,9,,,,,2,,,67,60
59328,note_on,,,,,32,0,7,,,,,0,,,72,90
59328,note_on,,,,,92,0,8,,,,,1,,,71,60
59392,note_off,,,,,256,0,13,,,,,6,,,67,100
59392,note_off,,,,,256,0,12,,,,,5,,,40,100
59392,note_off,,,,,256,0,14,,,,,6,,,40,100
59392,note_off,,,,,0,0,13,,,,,6,,,64,100
59392,note_off,,,,,256,0,16,,,,,7,,,40,100
59392,note_off,,,,,256,0,11,,,,,4,,,40,100
59392,note_off,,,,,0,0,15,,,,,7,,,71,100
59392,note_off,,,,,0,0,15,,,,,7,,,67,100
59392,note_off,,,,,256,0,15,,,,,7,,,64,100
59420,note_off,,,,,92,0,7,,,,,0,,,72,100
59424,note_on,,,,,4,0,7,,,,,0,,,71,90
59428,note_off,,,,,100,0,8,,,,,1,,,71,100
59428,note_off,,,,,100,0,10,,,,,3,,,64,100
59428,note_off,,,,,100,0,9,,,,,2,,,67,100
59488,note_off,,,,,64,0,7,,,,,0,,,71,100
59520,note_on,,,,,92,0,9,,,,,2,,,67,60
59520,note_on,,,,,92,0,8,,,,,1,,,71,60
59520,note_on,,,,,92,0,10,,,,,3,,,64,60
59520,note_on,,,,,32,0,7,,,,,0,,,76,90
59612,note_off,,,,,92,0,7,,,,,0,,,76,100
59616,note_on,,,,,4,0,7,,,,,0,,,71,90
59620,note_off,,,,,100,0,10,,,,,3,,,64,100
59620,note_off,,,,,100,0,8,,,,,1,,,71,100
59620,note_off,,,,,100,0,9,,,,,2,,,67,100
59680,note_off,,,,,64,0,7,,,,,0,,,71,100
59712,note_on,,,,,92,0,8,,,,,1,,,71,60
59712,note_on,,,,,92,0,9,,,,,2,,,67,60
59712,note_on,,,,,92,0,10,,,,,3,,,64,60
59712,note_on,,,,,32,0,7,,,,,0,,,72,90
59804,note_off,,,,,92,0,7,,,,,0,,,72,100
59808,note_on,,,,,4,0,7,,,,,0,,,71,90
59812,note_off,,,,,100,0,8,,,,,1,,,71,100
59812,note_off,,,,,100,0,9,,,,,2,,,67,100
59812,note_off,,,,,100,0,10,,,,,3,,,64,100
59872,note_off,,,,,64,0,7,,,,,0,,,71,100
59904,note_on,,,,,32,0,7,,,,,0,,,78,90
59904,note_on,,,,,92,0,10,,,,,3,,,63,60
59904,note_on,,,,,92,0,9,,,,,2,,,66,60
59904,note_on,,,,,92,0,8,,,,,1,,,71,60
59996,note_off,,,,,92,0,7,,,,,0,,,78,100
60000,note_on,,,,,4,0,7,,,,,0,,,71,90
60004,note_off,,,,,100,0,8,,,,,1,,,71,100
60004,note_off,,,,,100,0,10,,,,,3,,,63,100
60004,note_off,,,,,100,0,9,,,,,2,,,66,100
60064,note_off,,,,,64,0,7,,,,,0,,,71,100
60096,note_on,,,,,92,0,8,,,,,1,,,71,60
60096,note_on,,,,,92,0,9,,,,,2,,,66,60
60096,note_on,,,,,32,0,7,,,,,0,,,72,90
60096,note_on,,,,,92,0,10,,,,,3,,,63,60
60188,note_off,,,,,92,0,7,,,,,0,,,72,100
60192,note_on,,,,,4,0,7,,,,,0,,,71,90
60196,note_off,,,,,100,0,10,,,,,3,,,63,100
60196,note_off,,,,,100,0,9,,,,,2,,,66,100
60196,note_off,,,,,100,0,8,,,,,1,,,71,100
60256,note_off,,,,,64,0,7,,,,,0,,,71,100
60288,note_on,,,,,92,0,9,,,,,2,,,75,60
60288,note_on,,,,,32,0,7,,,,,0,,,78,90
60288,note_on,,,,,92,0,10,,,,,3,,,63,60
60288,note_on,,,,,92,0,8,,,,,1,,,71,60
60380,note_off,,,,,92,0,7,,,,,0,,,78,100
60384,note_on,,,,,4,0,7,,,,,0,,,71,90
60388,note_off,,,,,100,0,9,,,,,2,,,75,100
60388,note_off,,,,,100,0,8,,,,,1,,,71,100
60388,note_off,,,,,100,0,10,,,,,3,,,63,100
60448,note_off,,,,,64,0,7,,,,,0,,,71,100
60480,note_on,,,,,92,0,9,,,,,2,,,75,60
60480,note_on,,,,,92,0,10,,,,,3,,,63,60
60480,note_on,,,,,92,0,8,,,,,1,,,71,60
60480,note_on,,,,,32,0,7,,,,,0,,,72,90
60572,note_off,,,,,92,0,7,,,,,0,,,72,100
60576,note_on,,,,,4,0,7,,,,,0,,,71,90
60580,note_off,,,,,100,0,9,,,,,2,,,75,100
60580,note_off,,,,,100,0,8,,,,,1,,,71,100
60580,note_off,,,,,100,0,10,,,,,3,,,63,100
60640,note_off,,,,,64,0,7,,,,,0,,,71,100
60672,note_on,,,,,32,0,7,,,,,0,,,79,90
60672,note_on,,,,,92,0,10,,,,,3,,,64,60
60672,note_on,,,,,92,0,9,,,,,2,,,71,60
60672,note_on,,,,,92,0,8,,,,,1,,,71,60
60764,note_off,,,,,92,0,7,,,,,0,,,79,100
60768,note_on,,,,,4,0,7,,,,,0,,,71,90
60772,note_off,,,,,100,0,9,,,,,2,,,71,100
60772,note_off,,,,,100,0,8,,,,,1,,,71,100
60772,note_off,,,,,100,0,10,,,,,3,,,64,100
60832,note_off,,,,,64,0,7,,,,,0,,,71,100
60864,note_on,,,,,32,0,7,,,,,0,,,72,90
60864,note_on,,,,,92,0,9,,,,,2,,,67,60
60864,note_on,,,,,92,0,8,,,,,1,,,71,60
60864,note_on,,,,,92,0,10,,,,,3,,,64,60
60956,note_off,,,,,92,0,7,,,,,0,,,72,100
60960,note_on,,,,,4,0,7,,,,,0,,,71,90
60964,note_off,,,,,100,0,8,,,,,1,,,71,100
60964,note_off,,,,,100,0,9,,,,,2,,,67,100
60964,note_off,,,,,100,0,10,,,,,3,,,64,100
61024,note_off,,,,,64,0,7,,,,,0,,,71,100
61056,note_on,,,,,92,0,9,,,,,2,,,67,60
61056,note_on,,,,,32,0,7,,,,,0,,,79,90
61056,note_on,,,,,92,0,10,,,,,3,,,64,60
61056,note_on,,,,,92,0,8,,,,,1,,,71,60
61148,note_off,,,,,92,0,7,,,,,0,,,79,100
61152,note_on,,,,,4,0,7,,,,,0,,,71,90
61156,note_off,,,,,100,0,9,,,,,2,,,67,100
61156,note_off,,,,,100,0,8,,,,,1,,,71,100
61156,note_off,,,,,100,0,10,,,,,3,,,64,100
61216,note_off,,,,,64,0,7,,,,,0,,,71,100
61248,note_on,,,,,92,0,8,,,,,1,,,71,60
61248,note_on,,,,,92,0,10,,,,,3,,,64,60
61248,note_on,,,,,32,0,7,,,,,0,,,72,90
61248,note_on,,,,,92,0,9,,,,,2,,,67,60
61340,note_off,,,,,92,0,7,,,,,0,,,72,100
61344,note_on,,,,,4,0,7,,,,,0,,,71,90
61348,note_off,,,,,100,0,10,,,,,3,,,64,100
61348,note_off,,,,,100,0,8,,,,,1,,,71,100
61348,note_off,,,,,100,0,9,,,,,2,,,67,100
61408,note_off,,,,,64,0,7,,,,,0,,,71,100
61440,note_on,,,,,32,0,7,,,,,0,,,81,90
61440,note_on,,,,,92,0,8,,,,,1,,,71,60
61440,note_on,,,,,92,0,9,,,,,2,,,66,60
61440,note_on,,,,,92,0,10,,,,,3,,,63,60
61532,note_off,,,,,92,0,7,,,,,0,,,81,100
61536,note_on,,,,,4,0,7,,,,,0,,,71,91
61540,note_off,,,,,100,0,9,,,,,2,,,66,100
61540,note_off,,,,,100,0,8,,,,,1,,,71,100
61540,note_off,,,,,100,0,10,,,,,3,,,63,100
61600,note_off,,,,,64,0,7,,,,,0,,,71,100
61632,note_on,,,,,92,0,9,,,,,2,,,66,60
61632,note_on,,,,,32,0,7,,,,,0,,,72,92
61632,note_on,,,,,92,0,10,,,,,3,,,63,60
61632,note_on,,,,,92,0,8,,,,,1,,,71,60
61724,note_off,,,,,92,0,7,,,,,0,,,72,100
61728,note_on,,,,,4,0,7,,,,,0,,,71,93
61732,note_off,,,,,100,0,9,,,,,2,,,66,100
61732,note_off,,,,,100,0,8,,,,,1,,,71,100
61732,note_off,,,,,100,0,10,,,,,3,,,63,100
61792,note_off,,,,,64,0,7,,,,,0,,,71,100
61824,note_on,,,,,92,0,8,,,,,1,,,71,60
61824,note_on,,,,,92,0,10,,,,,3,,,63,60
61824,note_on,,,,,92,0,9,,,,,2,,,66,60
61824,note_on,,,,,32,0,7,,,,,0,,,81,94
61916,note_off,,,,,92,0,7,,,,,0,,,81,100
61920,note_on,,,,,4,0,7,,,,,0,,,71,96
61924,note_off,,,,,100,0,10,,,,,3,,,63,100
61924,note_off,,,,,100,0,8,,,,,1,,,71,100
61924,note_off,,,,,100,0,9,,,,,2,,,66,100
61984,note_off,,,,,64,0,7,,,,,0,,,71,100
62016,note_on,,,,,32,0,7,,,,,0,,,72,97
62016,note_on,,,,,92,0,8,,,,,1,,,71,60
62016,note_on,,,,,92,0,9,,,,,2,,,66,60
62016,note_on,,,,,92,0,10,,,,,3,,,63,60
62108,note_off,,,,,92,0,7,,,,,0,,,72,100
62112,note_on,,,,,4,0,7,,,,,0,,,71,98
62116,note_off,,,,,100,0,8,,,,,1,,,71,100
62116,note_off,,,,,100,0,10,,,,,3,,,63,100
62116,note_off,,,,,100,0,9,,,,,2,,,66,100
62176,note_off,,,,,64,0,7,,,,,0,,,71,100
62208,note_on,,,,,92,0,10,,,,,3,,,64,60
62208,note_on,,,,,32,0,7,,,,,0,,,79,99
62208,note_on,,,,,92,0,8,,,,,1,,,71,60
62208,note_on,,,,,92,0,9,,,,,2,,,67,60
62300,note_off,,,,,92,0,7,,,,,0,,,79,100
62304,note_on,,,,,4,0,7,,,,,0,,,81,100
62308,note_off,,,,,100,0,9,,,,,2,,,67,100
62308,note_off,,,,,100,0,10,,,,,3,,,64,100
62308,note_off,,,,,100,0,8,,,,,1,,,71,100
62348,note_off,,,,,44,0,7,,,,,0,,,81,100
62352,note_on,,,,,4,0,7,,,,,0,,,83,100
62396,note_off,,,,,44,0,7,,,,,0,,,83,100
62400,note_on,,,,,92,0,10,,,,,3,,,64,60
62400,note_on,,,,,92,0,9,,,,,2,,,67,60
62400,note_on,,,,,4,0,7,,,,,0,,,81,100
62400,note_on,,,,,92,0,8,,,,,1,,,71,60
62492,note_off,,,,,92,0,7,,,,,0,,,81,100
62496,note_on,,,,,4,0,7,,,,,0,,,79,100
62500,note_off,,,,,100,0,9,,,,,2,,,67,100
62500,note_off,,,,,100,0,10,,,,,3,,,64,100
62500,note_off,,,,,100,0,8,,,,,1,,,71,100
62560,note_off,,,,,64,0,7,,,,,0,,,79,100
62592,note_on,,,,,92,0,8,,,,,1,,,72,60
62592,note_on,,,,,92,0,9,,,,,2,,,69,60
62592,note_on,,,,,92,0,10,,,,,3,,,57,60
62592,note_on,,,,,32,0,7,,,,,0,,,79,100
62684,note_off,,,,,92,0,7,,,,,0,,,79,100
62688,note_on,,,,,4,0,7,,,,,0,,,78,100
62692,note_off,,,,,100,0,10,,,,,3,,,57,100
62692,note_off,,,,,100,0,9,,,,,2,,,69,100
62692,note_off,,,,,100,0,8,,,,,1,,,72,100
62784,note_on,,,,,92,0,10,,,,,3,,,57,60
62784,note_on,,,,,92,0,9,,,,,2,,,69,60
62784,note_on,,,,,92,0,8,,,,,1,,,72,60
62876,note_off,,,,,188,0,7,,,,,0,,,78,100
62880,note_on,,,,,4,0,7,,,,,0,,,76,99
62884,note_off,,,,,100,0,9,,,,,2,,,69,100
62884,note_off,,,,,100,0,10,,,,,3,,,57,100
62884,note_off,,,,,100,0,8,,,,,1,,,72,100
62944,note_off,,,,,64,0,7,,,,,0,,,76,100
62976,note_on,,,,,92,0,9,,,,,2,,,63,60
62976,note_on,,,,,92,0,10,,,,,3,,,59,60
62976,note_on,,,,,3584,0,11,,,,,4,,,59,60
62976,set_tempo,,,,,10752,1,0,,576923,,,,,,,
62976,note_on,,,,,92,0,8,,,,,1,,,66,60
62976,note_on,,,,,32,0,7,,,,,0,,,75,98
62976,note_on,,,,,3584,0,14,,,,,6,,,59,100
62976,note_on,,,,,3584,0,13,,,,,6,,,63,100
63040,note_off,,,,,64,0,7,,,,,0,,,75,100
63072,note_on,,,,,32,0,7,,,,,0,,,73,97
63076,note_off,,,,,100,0,11,,,,,4,,,59,100
63076,note_off,,,,,100,0,14,,,,,6,,,59,100
63136,note_off,,,,,64,0,7,,,,,0,,,73,100
63168,note_on,,,,,92,0,11,,,,,4,,,59,60
63168,note_on,,,,,32,0,7,,,,,0,,,71,96
63168,note_on,,,,,92,0,14,,,,,6,,,59,100
63168,set_tempo,,,,,192,1,0,,582524,,,,,,,
63168,note_on,,,,,192,0,13,,,,,6,,,71,100
63232,note_off,,,,,256,0,9,,,,,2,,,63,100
63232,note_off,,,,,256,0,10,,,,,3,,,59,100
63232,note_off,,,,,64,0,13,,,,,6,,,63,100
63232,note_off,,,,,256,0,8,,,,,1,,,66,100
63268,note_off,,,,,100,0,14,,,,,6,,,59,100
63268,note_off,,,,,100,0,11,,,,,4,,,59,100
63268,note_off,,,,,36,0,13,,,,,6,,,71,100
63296,note_off,,,,,128,0,7,,,,,0,,,71,100
63360,note_on,,,,,92,0,14,,,,,6,,,57,100
63360,note_on,,,,,92,0,13,,,,,6,,,73,100
63360,set_tempo,,,,,192,1,0,,588235,,,,,,,
63360,note_on,,,,,92,0,11,,,,,4,,,57,60
63360,note_on,,,,,0,0,13,,,,,6,,,64,100
63460,note_off,,,,,100,0,11,,,,,4,,,57,100
63460,note_off,,,,,100,0,14,,,,,6,,,57,100
63460,note_off,,,,,0,0,13,,,,,6,,,64,100
63460,note_off,,,,,100,0,13,,,,,6,,,73,100
63552,note_on,,,,,92,0,13,,,,,6,,,76,100
63552,note_on,,,,,256,0,7,,,,,0,,,83,100
63552,note_on,,,,,92,0,14,,,,,6,,,57,100
63552,note_on,,,,,92,0,11,,,,,4,,,57,60
63552,set_tempo,,,,,192,1,0,,594059,,,,,,,
63652,note_off,,,,,100,0,11,,,,,4,,,57,100
63652,note_off,,,,,100,0,13,,,,,6,,,76,100
63652,note_off,,,,,100,0,14,,,,,6,,,57,100
63680,note_off,,,,,128,0,7,,,,,0,,,83,100
63744,note_on,,,,,92,0,11,,,,,4,,,56,60
63744,set_tempo,,,,,192,1,0,,576923,,,,,,,
63744,note_on,,,,,92,0,13,,,,,6,,,71,100
63744,note_on,,,,,64,0,7,,,,,0,,,83,102
63744,note_on,,,,,92,0,14,,,,,6,,,56,100
63744,note_on,,,,,0,0,13,,,,,6,,,74,100
63744,note_on,,,,,0,0,13,,,,,6,,,77,100
63836,note_off,,,,,92,0,7,,,,,0,,,83,100
63840,note_on,,,,,4,0,7,,,,,0,,,86,102
63844,note_off,,,,,100,0,14,,,,,6,,,56,100
63844,note_off,,,,,100,0,11,,,,,4,,,56,100
63904,note_off,,,,,64,0,7,,,,,0,,,86,100
63936,note_on,,,,,92,0,14,,,,,6,,,56,100
63936,note_on,,,,,32,0,7,,,,,0,,,86,102
63936,note_on,,,,,92,0,11,,,,,4,,,56,60
64000,note_off,,,,,0,0,13,,,,,6,,,77,100
64000,note_off,,,,,0,0,13,,,,,6,,,74,100
64000,note_off,,,,,256,0,13,,,,,6,,,71,100
64028,note_off,,,,,92,0,7,,,,,0,,,86,100
64032,note_on,,,,,4,0,7,,,,,0,,,84,101
64036,note_off,,,,,100,0,14,,,,,6,,,56,100
64036,note_off,,,,,100,0,11,,,,,4,,,56,100
64096,note_off,,,,,64,0,7,,,,,0,,,84,100
64128,note_on,,,,,92,0,14,,,,,6,,,56,100
64128,note_on,,,,,128,0,13,,,,,6,,,64,100
64128,note_on,,,,,92,0,11,,,,,4,,,56,60
64128,note_on,,,,,0,0,13,,,,,6,,,76,100
64128,note_on,,,,,0,0,13,,,,,6,,,71,100
64128,note_on,,,,,32,0,7,,,,,0,,,84,101
64220,note_off,,,,,92,0,7,,,,,0,,,84,100
64224,note_on,,,,,4,0,7,,,,,0,,,83,100
64228,note_off,,,,,100,0,11,,,,,4,,,56,100
64228,note_off,,,,,100,0,14,,,,,6,,,56,100
64288,note_off,,,,,64,0,7,,,,,0,,,83,100
64320,note_on,,,,,92,0,11,,,,,4,,,56,60
64320,note_on,,,,,92,0,14,,,,,6,,,56,100
64320,note_on,,,,,32,0,7,,,,,0,,,83,100
64384,note_off,,,,,0,0,13,,,,,6,,,76,100
64384,note_off,,,,,256,0,13,,,,,6,,,64,100
64384,note_off,,,,,0,0,13,,,,,6,,,71,100
64412,note_off,,,,,92,0,7,,,,,0,,,83,100
64416,note_on,,,,,4,0,7,,,,,0,,,81,99
64420,note_off,,,,,100,0,14,,,,,6,,,56,100
64420,note_off,,,,,100,0,11,,,,,4,,,56,100
64480,note_off,,,,,64,0,7,,,,,0,,,81,100
64512,note_on,,,,,128,0,13,,,,,6,,,65,100
64512,note_on,,,,,92,0,11,,,,,4,,,56,60
64512,note_on,,,,,32,0,7,,,,,0,,,81,99
64512,note_on,,,,,92,0,14,,,,,6,,,56,100
64512,note_on,,,,,0,0,13,,,,,6,,,71,100
64512,note_on,,,,,0,0,13,,,,,6,,,74,100
64604,note_off,,,,,92,0,7,,,,,0,,,81,100
64608,note_on,,,,,4,0,7,,,,,0,,,80,98
64612,note_off,,,,,100,0,11,,,,,4,,,56,100
64612,note_off,,,,,100,0,14,,,,,6,,,56,100
64672,note_off,,,,,64,0,7,,,,,0,,,80,100
64704,note_on,,,,,32,0,7,,,,,0,,,80,98
64704,note_on,,,,,1472,0,8,,,,,1,,,74,55
64704,note_on,,,,,92,0,11,,,,,4,,,56,60
64704,note_on,,,,,92,0,14,,,,,6,,,56,100
64796,note_off,,,,,92,0,7,,,,,0,,,80,100
64800,note_on,,,,,4,0,7,,,,,0,,,77,97
64804,note_off,,,,,100,0,14,,,,,6,,,56,100
64804,note_off,,,,,100,0,11,,,,,4,,,56,100
64832,note_off,,,,,128,0,8,,,,,1,,,74,100
64864,note_off,,,,,64,0,7,,,,,0,,,77,100
64896,note_on,,,,,32,0,7,,,,,0,,,77,97
64896,note_on,,,,,92,0,14,,,,,6,,,56,100
64896,note_on,,,,,64,0,8,,,,,1,,,71,55
64896,note_on,,,,,92,0,11,,,,,4,,,56,60
64988,note_off,,,,,92,0,7,,,,,0,,,77,100
64992,note_on,,,,,4,0,7,,,,,0,,,76,96
64996,note_off,,,,,100,0,14,,,,,6,,,56,100
64996,note_off,,,,,100,0,11,,,,,4,,,56,100
65024,note_off,,,,,512,0,13,,,,,6,,,65,100
65024,note_off,,,,,0,0,13,,,,,6,,,71,100
65024,note_off,,,,,0,0,13,,,,,6,,,74,100
65024,note_off,,,,,128,0,8,,,,,1,,,71,100
65056,note_off,,,,,64,0,7,,,,,0,,,76,100
65088,note_on,,,,,32,0,7,,,,,0,,,76,96
65088,note_on,,,,,1856,0,9,,,,,2,,,74,55
65088,note_on,,,,,92,0,14,,,,,6,,,56,100
65088,note_on,,,,,64,0,8,,,,,1,,,68,55
65088,note_on,,,,,92,0,11,,,,,4,,,56,60
65180,note_off,,,,,92,0,7,,,,,0,,,76,100
65184,note_on,,,,,4,0,7,,,,,0,,,74,95
65188,note_off,,,,,100,0,11,,,,,4,,,56,100
65188,note_off,,,,,100,0,14,,,,,6,,,56,100
65216,note_off,,,,,128,0,9,,,,,2,,,74,100
65216,note_off,,,,,128,0,8,,,,,1,,,68,100
65248,note_off,,,,,64,0,7,,,,,0,,,74,100
65280,note_on,,,,,32,0,7,,,,,0,,,74,95
65280,note_on,,,,,64,0,9,,,,,2,,,71,55
65280,note_on,,,,,92,0,14,,,,,6,,,56,100
65280,note_on,,,,,0,0,13,,,,,6,,,74,100
65280,note_on,,,,,0,0,13,,,,,6,,,71,100
65280,note_on,,,,,256,0,13,,,,,6,,,65,100
65280,note_on,,,,,92,0,11,,,,,4,,,56,60
65372,note_off,,,,,92,0,7,,,,,0,,,74,100
65376,note_on,,,,,4,0,7,,,,,0,,,77,94
65380,note_off,,,,,100,0,14,,,,,6,,,56,100
65380,note_off,,,,,100,0,11,,,,,4,,,56,100
65408,note_off,,,,,128,0,9,,,,,2,,,71,100
65440,note_off,,,,,64,0,7,,,,,0,,,77,100
65472,note_on,,,,,92,0,14,,,,,6,,,56,100
65472,note_on,,,,,64,0,9,,,,,2,,,68,55
65472,note_on,,,,,32,0,7,,,,,0,,,77,94
65472,note_on,,,,,256,0,8,,,,,1,,,74,55
65472,note_on,,,,,92,0,11,,,,,4,,,56,60
65564,note_off,,,,,92,0,7,,,,,0,,,77,100
65568,note_on,,,,,4,0,7,,,,,0,,,74,93
65572,note_off,,,,,100,0,14,,,,,6,,,56,100
65572,note_off,,,,,100,0,11,,,,,4,,,56,100
65600,note_off,,,,,128,0,8,,,,,1,,,74,100
65600,note_off,,,,,128,0,9,,,,,2,,,68,100
65632,note_off,,,,,64,0,7,,,,,0,,,74,100
65664,note_on,,,,,32,0,7,,,,,0,,,74,93
65664,note_on,,,,,92,0,11,,,,,4,,,56,60
65664,note_on,,,,,64,0,8,,,,,1,,,71,55
65664,note_on,,,,,92,0,14,,,,,6,,,56,100
65756,note_off,,,,,92,0,7,,,,,0,,,74,100
65760,note_on,,,,,4,0,7,,,,,0,,,71,92
65764,note_off,,,,,100,0,14,,,,,6,,,56,100
65764,note_off,,,,,100,0,11,,,,,4,,,56,100
65792,note_off,,,,,0,0,13,,,,,6,,,74,100
65792,note_off,,,,,0,0,13,,,,,6,,,71,100
65792,note_off,,,,,512,0,13,,,,,6,,,65,100
65792,note_off,,,,,128,0,8,,,,,1,,,71,100
65824,note_off,,,,,64,0,7,,,,,0,,,71,100
65856,note_on,,,,,32,0,7,,,,,0,,,71,92
65856,note_on,,,,,64,0,8,,,,,1,,,68,55
65856,note_on,,,,,92,0,11,,,,,4,,,56,60
65856,note_on,,,,,92,0,14,,,,,6,,,56,100
65856,note_on,,,,,256,0,9,,,,,2,,,74,55
65948,note_off,,,,,92,0,7,,,,,0,,,71,100
65952,note_on,,,,,4,0,7,,,,,0,,,68,91
65956,note_off,,,,,100,0,11,,,,,4,,,56,100
65956,note_off,,,,,100,0,14,,,,,6,,,56,100
65984,note_off,,,,,128,0,8,,,,,1,,,68,100
65984,note_off,,,,,128,0,9,,,,,2,,,74,100
66016,note_off,,,,,64,0,7,,,,,0,,,68,100
66048,note_on,,,,,32,0,7,,,,,0,,,68,90
66048,note_on,,,,,0,0,13,,,,,6,,,74,100
66048,note_on,,,,,0,0,13,,,,,6,,,71,100
66048,note_on,,,,,256,0,13,,,,,6,,,65,100
66048,note_on,,,,,64,0,9,,,,,2,,,71,55
66048,note_on,,,,,92,0,11,,,,,4,,,56,60
66048,note_on,,,,,92,0,14,,,,,6,,,56,100
66092,note_off,,,,,44,0,7,,,,,0,,,68,100
66096,note_on,,,,,4,0,7,,,,,0,,,74,90
66140,note_off,,,,,44,0,7,,,,,0,,,74,100
66144,note_on,,,,,4,0,7,,,,,0,,,76,90
66148,note_off,,,,,100,0,11,,,,,4,,,56,100
66148,note_off,,,,,100,0,14,,,,,6,,,56,100
66176,note_off,,,,,128,0,9,,,,,2,,,71,100
66188,note_off,,,,,44,0,7,,,,,0,,,76,100
66192,note_on,,,,,4,0,7,,,,,0,,,77,90
66236,note_off,,,,,44,0,7,,,,,0,,,77,100
66240,note_on,,,,,4,0,7,,,,,0,,,76,90
66240,note_on,,,,,64,0,9,,,,,2,,,68,55
66240,note_on,,,,,92,0,14,,,,,6,,,56,100
66240,note_on,,,,,256,0,8,,,,,1,,,74,55
66240,note_on,,,,,92,0,11,,,,,4,,,56,60
66304,note_off,,,,,64,0,7,,,,,0,,,76,100
66336,note_on,,,,,32,0,7,,,,,0,,,74,90
66340,note_off,,,,,100,0,11,,,,,4,,,56,100
66340,note_off,,,,,100,0,14,,,,,6,,,56,100
66368,note_off,,,,,128,0,9,,,,,2,,,68,100
66368,note_off,,,,,128,0,8,,,,,1,,,74,100
66400,note_off,,,,,64,0,7,,,,,0,,,74,100
66432,note_on,,,,,92,0,14,,,,,6,,,56,100
66432,note_on,,,,,92,0,11,,,,,4,,,56,60
66432,note_on,,,,,64,0,8,,,,,1,,,71,55
66432,note_on,,,,,32,0,7,,,,,0,,,68,90
66476,note_off,,,,,44,0,7,,,,,0,,,68,100
66480,note_on,,,,,4,0,7,,,,,0,,,74,90
66524,note_off,,,,,44,0,7,,,,,0,,,74,100
66528,note_on,,,,,4,0,7,,,,,0,,,76,90
66532,note_off,,,,,100,0,14,,,,,6,,,56,100
66532,note_off,,,,,100,0,11,,,,,4,,,56,100
66560,note_off,,,,,128,0,8,,,,,1,,,71,100
66560,note_off,,,,,512,0,13,,,,,6,,,65,100
66560,note_off,,,,,0,0,13,,,,,6,,,71,100
66560,note_off,,,,,0,0,13,,,,,6,,,74,100
66572,note_off,,,,,44,0,7,,,,,0,,,76,100
66576,note_on,,,,,4,0,7,,,,,0,,,77,90
66620,note_off,,,,,44,0,7,,,,,0,,,77,100
66624,note_on,,,,,4,0,7,,,,,0,,,76,90
66624,note_on,,,,,256,0,9,,,,,2,,,74,55
66624,note_on,,,,,64,0,8,,,,,1,,,68,55
66624,note_on,,,,,92,0,14,,,,,6,,,56,100
66624,note_on,,,,,92,0,11,,,,,4,,,56,60
66688,note_off,,,,,64,0,7,,,,,0,,,76,100
66720,note_on,,,,,32,0,7,,,,,0,,,74,90
66724,note_off,,,,,100,0,11,,,,,4,,,56,100
66724,note_off,,,,,100,0,14,,,,,6,,,56,100
66752,note_off,,,,,128,0,8,,,,,1,,,68,100
66752,note_off,,,,,128,0,9,,,,,2,,,74,100
66784,note_off,,,,,64,0,7,,,,,0,,,74,100
66816,note_on,,,,,92,0,11,,,,,4,,,56,60
66816,note_on,,,,,32,0,7,,,,,0,,,68,90
66816,note_on,,,,,256,0,13,,,,,6,,,59,100
66816,note_on,,,,,92,0,14,,,,,6,,,56,100
66816,note_on,,,,,64,0,9,,,,,2,,,71,55
66848,note_off,,,,,32,0,13,,,,,6,,,59,100
66848,note_on,,,,,0,0,13,,,,,6,,,65,100
66880,note_off,,,,,32,0,13,,,,,6,,,65,100
66884,note_on,,,,,4,0,13,,,,,6,,,68,100
66908,note_off,,,,,92,0,7,,,,,0,,,68,100
66912,note_on,,,,,4,0,7,,,,,0,,,74,91
66916,note_off,,,,,100,0,14,,,,,6,,,56,100
66916,note_off,,,,,100,0,11,,,,,4,,,56,100
66916,note_on,,,,,32,0,13,,,,,6,,,71,100
66940,note_on,,,,,24,0,13,,,,,6,,,74,100
66944,note_off,,,,,128,0,9,,,,,2,,,71,100
66976,note_off,,,,,64,0,7,,,,,0,,,74,100
67008,note_on,,,,,92,0,14,,,,,6,,,56,100
67008,note_on,,,,,64,0,9,,,,,2,,,68,55
67008,note_on,,,,,256,0,8,,,,,1,,,74,55
67008,note_on,,,,,32,0,7,,,,,0,,,77,93
67008,note_on,,,,,92,0,11,,,,,4,,,56,60
67100,note_off,,,,,92,0,7,,,,,0,,,77,100
67104,note_on,,,,,4,0,7,,,,,0,,,74,95
67108,note_off,,,,,100,0,11,,,,,4,,,56,100
67108,note_off,,,,,100,0,14,,,,,6,,,56,100
67136,note_off,,,,,128,0,8,,,,,1,,,74,100
67136,note_off,,,,,128,0,9,,,,,2,,,68,100
67168,note_off,,,,,64,0,7,,,,,0,,,74,100
67200,note_on,,,,,64,0,8,,,,,1,,,71,55
67200,note_on,,,,,32,0,7,,,,,0,,,86,97
67200,note_on,,,,,92,0,11,,,,,4,,,56,60
67200,note_on,,,,,92,0,14,,,,,6,,,56,100
67292,note_off,,,,,92,0,7,,,,,0,,,86,100
67296,note_on,,,,,4,0,7,,,,,0,,,84,99
67300,note_off,,,,,100,0,14,,,,,6,,,56,100
67300,note_off,,,,,100,0,11,,,,,4,,,56,100
67324,note_off,,,,,0,0,13,,,,,6,,,74,100
67324,note_off,,,,,384,0,13,,,,,6,,,68,100
67328,note_off,,,,,128,0,8,,,,,1,,,71,100
67332,note_off,,,,,8,0,13,,,,,6,,,71,100
67360,note_off,,,,,64,0,7,,,,,0,,,84,100
67392,note_on,,,,,256,0,9,,,,,2,,,77,55
67392,note_on,,,,,32,0,7,,,,,0,,,86,100
67392,note_on,,,,,92,0,11,,,,,4,,,56,60
67392,note_on,,,,,92,0,14,,,,,6,,,56,100
67392,note_on,,,,,64,0,8,,,,,1,,,68,55
67484,note_off,,,,,92,0,7,,,,,0,,,86,100
67488,note_on,,,,,4,0,7,,,,,0,,,83,99
67492,note_off,,,,,100,0,14,,,,,6,,,56,100
67492,note_off,,,,,100,0,11,,,,,4,,,56,100
67520,note_off,,,,,128,0,9,,,,,2,,,77,100
67520,note_off,,,,,128,0,8,,,,,1,,,68,100
67552,note_off,,,,,64,0,7,,,,,0,,,83,100
67584,note_on,,,,,252,0,13,,,,,6,,,64,100
67584,note_on,,,,,92,0,11,,,,,4,,,57,60
67584,note_on,,,,,32,0,7,,,,,0,,,84,97
67584,note_on,,,,,92,0,14,,,,,6,,,57,100
67584,note_on,,,,,0,0,13,,,,,6,,,72,100
67584,note_on,,,,,0,0,13,,,,,6,,,69,100
67584,note_on,,,,,64,0,9,,,,,2,,,76,55
67684,note_off,,,,,100,0,11,,,,,4,,,57,100
67684,note_off,,,,,100,0,14,,,,,6,,,57,100
67712,note_off,,,,,128,0,9,,,,,2,,,76,100
67776,note_on,,,,,64,0,9,,,,,2,,,69,55
67776,note_on,,,,,92,0,11,,,,,4,,,57,60
67776,note_on,,,,,92,0,14,,,,,6,,,57,100
67776,note_on,,,,,256,0,8,,,,,1,,,76,55
67840,note_off,,,,,256,0,13,,,,,6,,,64,100
67840,note_off,,,,,256,0,7,,,,,0,,,84,100
67840,note_off,,,,,0,0,13,,,,,6,,,72,100
67840,note_off,,,,,0,0,13,,,,,6,,,69,100
67876,note_off,,,,,100,0,11,,,,,4,,,57,100
67876,note_off,,,,,100,0,14,,,,,6,,,57,100
67904,note_off,,,,,128,0,8,,,,,1,,,76,100
67904,note_off,,,,,128,0,9,,,,,2,,,69,100
67968,note_on,,,,,0,0,13,,,,,6,,,69,100
67968,note_on,,,,,0,0,13,,,,,6,,,67,100
67968,note_on,,,,,92,0,14,,,,,6,,,55,100
67968,note_on,,,,,92,0,11,,,,,4,,,55,60
67968,note_on,,,,,64,0,8,,,,,1,,,72,55
67968,note_on,,,,,128,0,13,,,,,6,,,64,100
68068,note_off,,,,,100,0,11,,,,,4,,,55,100
68068,note_off,,,,,100,0,14,,,,,6,,,55,100
68096,note_off,,,,,128,0,8,,,,,1,,,72,100
68160,note_on,,,,,92,0,14,,,,,6,,,55,100
68160,note_on,,,,,64,0,8,,,,,1,,,69,55
68160,note_on,,,,,92,0,11,,,,,4,,,55,60
68160,note_on,,,,,320,0,7,,,,,0,,,81,95
68224,note_off,,,,,0,0,13,,,,,6,,,69,100
68224,note_off,,,,,0,0,13,,,,,6,,,67,100
68224,note_off,,,,,256,0,13,,,,,6,,,64,100
68260,note_off,,,,,100,0,11,,,,,4,,,55,100
68260,note_off,,,,,100,0,14,,,,,6,,,55,100
68288,note_off,,,,,128,0,7,,,,,0,,,81,100
68288,note_off,,,,,128,0,8,,,,,1,,,69,100
68352,note_on,,,,,0,0,13,,,,,6,,,69,100
68352,note_on,,,,,0,0,13,,,,,6,,,66,100
68352,note_on,,,,,128,0,13,,,,,6,,,60,100
68352,note_on,,,,,92,0,11,,,,,4,,,54,60
68352,note_on,,,,,92,0,14,,,,,6,,,54,100
68352,note_on,,,,,64,0,7,,,,,0,,,81,97
68444,note_off,,,,,92,0,7,,,,,0,,,81,100
68448,note_on,,,,,4,0,7,,,,,0,,,84,97
68452,note_off,,,,,100,0,14,,,,,6,,,54,100
68452,note_off,,,,,100,0,11,,,,,4,,,54,100
68512,note_off,,,,,64,0,7,,,,,0,,,84,100
68544,note_on,,,,,32,0,7,,,,,0,,,84,97
68544,note_on,,,,,92,0,14,,,,,6,,,54,100
68544,note_on,,,,,92,0,11,,,,,4,,,54,60
68636,note_off,,,,,92,0,7,,,,,0,,,84,100
68640,note_on,,,,,4,0,7,,,,,0,,,83,96
68644,note_off,,,,,100,0,14,,,,,6,,,54,100
68644,note_off,,,,,100,0,11,,,,,4,,,54,100
68704,note_off,,,,,64,0,7,,,,,0,,,83,100
68736,note_on,,,,,92,0,14,,,,,6,,,54,100
68736,note_on,,,,,92,0,11,,,,,4,,,54,60
68736,note_on,,,,,32,0,7,,,,,0,,,83,96
68828,note_off,,,,,92,0,7,,,,,0,,,83,100
68832,note_on,,,,,4,0,7,,,,,0,,,81,95
68836,note_off,,,,,100,0,11,,,,,4,,,54,100
68836,note_off,,,,,100,0,14,,,,,6,,,54,100
68864,note_off,,,,,512,0,13,,,,,6,,,60,100
68864,note_off,,,,,0,0,13,,,,,6,,,66,100
68864,note_off,,,,,0,0,13,,,,,6,,,69,100
68896,note_off,,,,,64,0,7,,,,,0,,,81,100
68928,note_on,,,,,92,0,14,,,,,6,,,54,100
68928,note_on,,,,,32,0,7,,,,,0,,,81,95
68928,note_on,,,,,92,0,11,,,,,4,,,54,60
69020,note_off,,,,,92,0,7,,,,,0,,,81,100
69024,note_on,,,,,4,0,7,,,,,0,,,79,94
69028,note_off,,,,,100,0,14,,,,,6,,,54,100
69028,note_off,,,,,100,0,11,,,,,4,,,54,100
69088,note_off,,,,,64,0,7,,,,,0,,,79,100
69120,note_on,,,,,256,0,13,,,,,6,,,69,100
69120,note_on,,,,,92,0,11,,,,,4,,,54,60
69120,note_on,,,,,32,0,7,,,,,0,,,79,94
69120,note_on,,,,,92,0,14,,,,,6,,,54,100
69120,note_on,,,,,0,0,13,,,,,6,,,60,100
69120,note_on,,,,,0,0,13,,,,,6,,,64,100
69212,note_off,,,,,92,0,7,,,,,0,,,79,100
69216,note_on,,,,,4,0,7,,,,,0,,,78,93
69220,note_off,,,,,100,0,11,,,,,4,,,54,100
69220,note_off,,,,,100,0,14,,,,,6,,,54,100
69280,note_off,,,,,64,0,7,,,,,0,,,78,100
69312,note_on,,,,,92,0,14,,,,,6,,,54,100
69312,note_on,,,,,32,0,7,,,,,0,,,78,93
69312,note_on,,,,,1024,0,8,,,,,1,,,72,50
69312,note_on,,,,,92,0,11,,,,,4,,,54,60
69404,note_off,,,,,92,0,7,,,,,0,,,78,100
69408,note_on,,,,,4,0,7,,,,,0,,,76,92
69412,note_off,,,,,100,0,14,,,,,6,,,54,100
69412,note_off,,,,,100,0,11,,,,,4,,,54,100
69440,note_off,,,,,128,0,8,,,,,1,,,72,100
69472,note_off,,,,,64,0,7,,,,,0,,,76,100
69504,note_on,,,,,64,0,8,,,,,1,,,69,50
69504,note_on,,,,,92,0,14,,,,,6,,,54,100
69504,note_on,,,,,92,0,11,,,,,4,,,54,60
69504,note_on,,,,,32,0,7,,,,,0,,,76,92
69596,note_off,,,,,92,0,7,,,,,0,,,76,100
69600,note_on,,,,,4,0,7,,,,,0,,,74,91
69604,note_off,,,,,100,0,11,,,,,4,,,54,100
69604,note_off,,,,,100,0,14,,,,,6,,,54,100
69632,note_off,,,,,128,0,8,,,,,1,,,69,100
69632,note_off,,,,,0,0,13,,,,,6,,,64,100
69632,note_off,,,,,0,0,13,,,,,6,,,60,100
69632,note_off,,,,,512,0,13,,,,,6,,,69,100
69664,note_off,,,,,64,0,7,,,,,0,,,74,100
69696,note_on,,,,,92,0,14,,,,,6,,,54,100
69696,note_on,,,,,64,0,8,,,,,1,,,66,50
69696,note_on,,,,,92,0,11,,,,,4,,,54,60
69696,note_on,,,,,1792,0,9,,,,,2,,,72,50
69696,note_on,,,,,32,0,7,,,,,0,,,74,91
69788,note_off,,,,,92,0,7,,,,,0,,,74,100
69792,note_on,,,,,4,0,7,,,,,0,,,72,90
69796,note_off,,,,,100,0,11,,,,,4,,,54,100
69796,note_off,,,,,100,0,14,,,,,6,,,54,100
69824,note_off,,,,,128,0,8,,,,,1,,,66,100
69824,note_off,,,,,128,0,9,,,,,2,,,72,100
69856,note_off,,,,,64,0,7,,,,,0,,,72,100
69888,note_on,,,,,64,0,9,,,,,2,,,69,50
69888,note_on,,,,,0,0,13,,,,,6,,,60,100
69888,note_on,,,,,0,0,13,,,,,6,,,64,100
69888,note_on,,,,,256,0,13,,,,,6,,,69,100
69888,note_on,,,,,92,0,14,,,,,6,,,54,100
69888,note_on,,,,,32,0,7,,,,,0,,,72,90
69888,note_on,,,,,92,0,11,,,,,4,,,54,60
69980,note_off,,,,,92,0,7,,,,,0,,,72,100
69984,note_on,,,,,4,0,7,,,,,0,,,76,89
69988,note_off,,,,,100,0,11,,,,,4,,,54,100
69988,note_off,,,,,100,0,14,,,,,6,,,54,100
70016,note_off,,,,,128,0,9,,,,,2,,,69,100
70048,note_off,,,,,64,0,7,,,,,0,,,76,100
70080,note_on,,,,,32,0,7,,,,,0,,,76,89
70080,note_on,,,,,64,0,9,,,,,2,,,66,50
70080,note_on,,,,,92,0,11,,,,,4,,,54,60
70080,note_on,,,,,92,0,14,,,,,6,,,54,100
70080,note_on,,,,,256,0,8,,,,,1,,,72,50
70172,note_off,,,,,92,0,7,,,,,0,,,76,100
70176,note_on,,,,,4,0,7,,,,,0,,,72,88
70180,note_off,,,,,100,0,14,,,,,6,,,54,100
70180,note_off,,,,,100,0,11,,,,,4,,,54,100
70208,note_off,,,,,128,0,9,,,,,2,,,66,100
70208,note_off,,,,,128,0,8,,,,,1,,,72,100
70240,note_off,,,,,64,0,7,,,,,0,,,72,100
70272,note_on,,,,,32,0,7,,,,,0,,,72,88
70272,note_on,,,,,64,0,8,,,,,1,,,69,50
70272,note_on,,,,,92,0,14,,,,,6,,,54,100
70272,note_on,,,,,92,0,11,,,,,4,,,54,60
70364,note_off,,,,,92,0,7,,,,,0,,,72,100
70368,note_on,,,,,4,0,7,,,,,0,,,69,87
70372,note_off,,,,,100,0,14,,,,,6,,,54,100
70372,note_off,,,,,100,0,11,,,,,4,,,54,100
70400,note_off,,,,,128,0,8,,,,,1,,,69,100
70400,note_off,,,,,512,0,13,,,,,6,,,69,100
70400,note_off,,,,,0,0,13,,,,,6,,,60,100
70400,note_off,,,,,0,0,13,,,,,6,,,64,100
70432,note_off,,,,,64,0,7,,,,,0,,,69,100
70464,note_on,,,,,256,0,9,,,,,2,,,72,50
70464,note_on,,,,,32,0,7,,,,,0,,,69,87
70464,note_on,,,,,92,0,14,,,,,6,,,54,100
70464,note_on,,,,,64,0,8,,,,,1,,,66,50
70464,note_on,,,,,92,0,11,,,,,4,,,54,60
70556,note_off,,,,,92,0,7,,,,,0,,,69,100
70560,note_on,,,,,4,0,7,,,,,0,,,66,86
70564,note_off,,,,,100,0,11,,,,,4,,,54,100
70564,note_off,,,,,100,0,14,,,,,6,,,54,100
70592,note_off,,,,,128,0,8,,,,,1,,,66,100
70592,note_off,,,,,128,0,9,,,,,2,,,72,100
70624,note_off,,,,,64,0,7,,,,,0,,,66,100
70656,note_on,,,,,0,0,13,,,,,6,,,60,100
70656,note_on,,,,,256,0,13,,,,,6,,,69,100
70656,note_on,,,,,92,0,11,,,,,4,,,54,60
70656,note_on,,,,,92,0,14,,,,,6,,,54,100
70656,note_on,,,,,64,0,9,,,,,2,,,69,50
70656,note_on,,,,,32,0,7,,,,,0,,,66,85
70656,note_on,,,,,0,0,13,,,,,6,,,64,100
70700,note_off,,,,,44,0,7,,,,,0,,,66,100
70704,note_on,,,,,4,0,7,,,,,0,,,72,85
70748,note_off,,,,,44,0,7,,,,,0,,,72,100
70752,note_on,,,,,4,0,7,,,,,0,,,74,85
70756,note_off,,,,,100,0,14,,,,,6,,,54,100
70756,note_off,,,,,100,0,11,,,,,4,,,54,100
70784,note_off,,,,,128,0,9,,,,,2,,,69,100
70796,note_off,,,,,44,0,7,,,,,0,,,74,100
70800,note_on,,,,,4,0,7,,,,,0,,,76,85
70844,note_off,,,,,44,0,7,,,,,0,,,76,100
70848,note_on,,,,,256,0,8,,,,,1,,,72,50
70848,note_on,,,,,64,0,9,,,,,2,,,66,50
70848,note_on,,,,,92,0,14,,,,,6,,,54,100
70848,note_on,,,,,92,0,11,,,,,4,,,54,60
70848,note_on,,,,,4,0,7,,,,,0,,,74,85
70912,note_off,,,,,64,0,7,,,,,0,,,74,100
70944,note_on,,,,,32,0,7,,,,,0,,,72,85
70948,note_off,,,,,100,0,11,,,,,4,,,54,100
70948,note_off,,,,,100,0,14,,,,,6,,,54,100
70976,note_off,,,,,128,0,8,,,,,1,,,72,100
70976,note_off,,,,,128,0,9,,,,,2,,,66,100
71008,note_off,,,,,64,0,7,,,,,0,,,72,100
71040,note_on,,,,,64,0,8,,,,,1,,,69,50
71040,note_on,,,,,32,0,7,,,,,0,,,66,85
71040,note_on,,,,,92,0,11,,,,,4,,,54,60
71040,note_on,,,,,92,0,14,,,,,6,,,54,100
71084,note_off,,,,,44,0,7,,,,,0,,,66,100
71088,note_on,,,,,4,0,7,,,,,0,,,72,85
71132,note_off,,,,,44,0,7,,,,,0,,,72,100
71136,note_on,,,,,4,0,7,,,,,0,,,74,85
71140,note_off,,,,,100,0,11,,,,,4,,,54,100
71140,note_off,,,,,100,0,14,,,,,6,,,54,100
71168,note_off,,,,,512,0,13,,,,,6,,,69,100
71168,note_off,,,,,0,0,13,,,,,6,,,60,100
71168,note_off,,,,,128,0,8,,,,,1,,,69,100
71168,note_off,,,,,0,0,13,,,,,6,,,64,100
71180,note_off,,,,,44,0,7,,,,,0,,,74,100
71184,note_on,,,,,4,0,7,,,,,0,,,76,85
71228,note_off,,,,,44,0,7,,,,,0,,,76,100
71232,note_on,,,,,64,0,8,,,,,1,,,66,50
71232,note_on,,,,,4,0,7,,,,,0,,,74,85
71232,note_on,,,,,92,0,11,,,,,4,,,54,60
71232,note_on,,,,,256,0,9,,,,,2,,,72,50
71232,note_on,,,,,92,0,14,,,,,6,,,54,100
71296,note_off,,,,,64,0,7,,,,,0,,,74,100
71328,note_on,,,,,32,0,7,,,,,0,,,72,85
71332,note_off,,,,,100,0,14,,,,,6,,,54,100
71332,note_off,,,,,100,0,11,,,,,4,,,54,100
71360,note_off,,,,,128,0,8,,,,,1,,,66,100
71360,note_off,,,,,128,0,9,,,,,2,,,72,100
71392,note_off,,,,,64,0,7,,,,,0,,,72,100
71424,note_on,,,,,256,0,13,,,,,6,,,57,100
71424,note_on,,,,,64,0,9,,,,,2,,,69,50
71424,note_on,,,,,32,0,7,,,,,0,,,66,85
71424,note_on,,,,,92,0,11,,,,,4,,,54,60
71424,note_on,,,,,92,0,14,,,,,6,,,54,100
71456,note_off,,,,,32,0,13,,,,,6,,,57,100
71456,note_on,,,,,0,0,13,,,,,6,,,60,100
71488,note_off,,,,,32,0,13,,,,,6,,,60,100
71492,note_on,,,,,4,0,13,,,,,6,,,64,100
71516,note_off,,,,,92,0,7,,,,,0,,,66,100
71520,note_on,,,,,4,0,7,,,,,0,,,72,86
71524,note_on,,,,,32,0,13,,,,,6,,,66,100
71524,note_off,,,,,100,0,14,,,,,6,,,54,100
71524,note_off,,,,,100,0,11,,,,,4,,,54,100
71548,note_on,,,,,24,0,13,,,,,6,,,69,100
71552,note_off,,,,,128,0,9,,,,,2,,,69,100
71584,note_off,,,,,64,0,7,,,,,0,,,72,100
71616,note_on,,,,,92,0,11,,,,,4,,,54,60
71616,note_on,,,,,256,0,8,,,,,1,,,72,50
71616,note_on,,,,,92,0,14,,,,,6,,,54,100
71616,note_on,,,,,32,0,7,,,,,0,,,76,88
71616,note_on,,,,,64,0,9,,,,,2,,,66,50
71708,note_off,,,,,92,0,7,,,,,0,,,76,100
71712,note_on,,,,,4,0,7,,,,,0,,,72,89
71716,note_off,,,,,100,0,14,,,,,6,,,54,100
71716,note_off,,,,,100,0,11,,,,,4,,,54,100
71744,note_off,,,,,128,0,8,,,,,1,,,72,100
71744,note_off,,,,,128,0,9,,,,,2,,,66,100
71776,note_off,,,,,64,0,7,,,,,0,,,72,100
71808,note_on,,,,,64,0,8,,,,,1,,,69,50
71808,note_on,,,,,92,0,14,,,,,6,,,54,100
71808,note_on,,,,,92,0,11,,,,,4,,,54,60
71808,note_on,,,,,32,0,7,,,,,0,,,84,91
71900,note_off,,,,,92,0,7,,,,,0,,,84,100
71904,note_on,,,,,4,0,7,,,,,0,,,83,93
71908,note_off,,,,,100,0,14,,,,,6,,,54,100
71908,note_off,,,,,100,0,11,,,,,4,,,54,100
71932,note_off,,,,,0,0,13,,,,,6,,,69,100
71932,note_off,,,,,384,0,13,,,,,6,,,64,100
71936,note_off,,,,,128,0,8,,,,,1,,,69,100
71940,note_off,,,,,8,0,13,,,,,6,,,66,100
71968,note_off,,,,,64,0,7,,,,,0,,,83,100
72000,note_on,,,,,92,0,14,,,,,6,,,54,100
72000,note_on,,,,,32,0,7,,,,,0,,,84,95
72000,note_on,,,,,64,0,8,,,,,1,,,66,50
72000,note_on,,,,,256,0,9,,,,,2,,,76,50
72000,note_on,,,,,92,0,11,,,,,4,,,54,60
72092,note_off,,,,,92,0,7,,,,,0,,,84,100
72096,note_on,,,,,4,0,7,,,,,0,,,81,94
72100,note_off,,,,,100,0,11,,,,,4,,,54,100
72100,note_off,,,,,100,0,14,,,,,6,,,54,100
72128,note_off,,,,,128,0,9,,,,,2,,,76,100
72128,note_off,,,,,128,0,8,,,,,1,,,66,100
72160,note_off,,,,,64,0,7,,,,,0,,,81,100
72192,note_on,,,,,32,0,7,,,,,0,,,83,93
72192,note_on,,,,,92,0,14,,,,,6,,,55,100
72192,note_on,,,,,64,0,9,,,,,2,,,74,50
72192,note_on,,,,,0,0,13,,,,,6,,,59,100
72192,note_on,,,,,0,0,13,,,,,6,,,62,100
72192,note_on,,,,,252,0,13,,,,,6,,,67,100
72192,note_on,,,,,92,0,11,,,,,4,,,55,60
72292,note_off,,,,,100,0,14,,,,,6,,,55,100
72292,note_off,,,,,100,0,11,,,,,4,,,55,100
72320,note_off,,,,,128,0,9,,,,,2,,,74,100
72384,note_on,,,,,64,0,9,,,,,2,,,67,50
72384,note_on,,,,,256,0,8,,,,,1,,,74,50
72384,note_on,,,,,92,0,14,,,,,6,,,55,100
72384,note_on,,,,,92,0,11,,,,,4,,,55,60
72448,note_off,,,,,256,0,7,,,,,0,,,83,100
72484,note_off,,,,,100,0,14,,,,,6,,,55,100
72484,note_off,,,,,100,0,11,,,,,4,,,55,100
72512,note_off,,,,,128,0,9,,,,,2,,,67,100
72512,note_off,,,,,128,0,8,,,,,1,,,74,100
72576,note_on,,,,,64,0,8,,,,,1,,,71,50
72576,note_on,,,,,92,0,14,,,,,6,,,55,100
72576,note_on,,,,,92,0,11,,,,,4,,,55,60
72676,note_off,,,,,100,0,14,,,,,6,,,55,100
72676,note_off,,,,,100,0,11,,,,,4,,,55,100
72704,note_off,,,,,512,0,13,,,,,6,,,67,100
72704,note_off,,,,,128,0,8,,,,,1,,,71,100
72704,note_off,,,,,0,0,13,,,,,6,,,62,100
72704,note_off,,,,,0,0,13,,,,,6,,,59,100
72768,note_on,,,,,64,0,8,,,,,1,,,67,50
72768,note_on,,,,,92,0,11,,,,,4,,,55,60
72768,note_on,,,,,92,0,14,,,,,6,,,55,100
72768,note_on,,,,,320,0,7,,,,,0,,,79,93
72868,note_off,,,,,100,0,14,,,,,6,,,55,100
72868,note_off,,,,,100,0,11,,,,,4,,,55,100
72896,note_off,,,,,128,0,7,,,,,0,,,79,100
72896,note_off,,,,,128,0,8,,,,,1,,,67,100
72960,note_on,,,,,92,0,14,,,,,6,,,55,100
72960,note_on,,,,,92,0,11,,,,,4,,,55,60
72960,note_on,,,,,64,0,7,,,,,0,,,79,93
72960,note_on,,,,,256,0,13,,,,,6,,,67,100
72960,note_on,,,,,0,0,13,,,,,6,,,64,100
72960,note_on,,,,,0,0,13,,,,,6,,,59,100
73052,note_off,,,,,92,0,7,,,,,0,,,79,100
73056,note_on,,,,,4,0,7,,,,,0,,,83,92
73060,note_off,,,,,100,0,11,,,,,4,,,55,100
73060,note_off,,,,,100,0,14,,,,,6,,,55,100
73120,note_off,,,,,64,0,7,,,,,0,,,83,100
73152,note_on,,,,,92,0,14,,,,,6,,,55,100
73152,note_on,,,,,32,0,7,,,,,0,,,83,92
73152,note_on,,,,,92,0,11,,,,,4,,,55,60
73244,note_off,,,,,92,0,7,,,,,0,,,83,100
73248,note_on,,,,,4,0,7,,,,,0,,,81,91
73252,note_off,,,,,100,0,14,,,,,6,,,55,100
73252,note_off,,,,,100,0,11,,,,,4,,,55,100
73312,note_off,,,,,64,0,7,,,,,0,,,81,100
73344,note_on,,,,,32,0,7,,,,,0,,,81,91
73344,note_on,,,,,92,0,11,,,,,4,,,55,60
73344,note_on,,,,,92,0,14,,,,,6,,,55,100
73436,note_off,,,,,92,0,7,,,,,0,,,81,100
73440,note_on,,,,,4,0,7,,,,,0,,,79,91
73444,note_off,,,,,100,0,11,,,,,4,,,55,100
73444,note_off,,,,,100,0,14,,,,,6,,,55,100
73472,note_off,,,,,0,0,13,,,,,6,,,64,100
73472,note_off,,,,,512,0,13,,,,,6,,,67,100
73472,note_off,,,,,0,0,13,,,,,6,,,59,100
73504,note_off,,,,,64,0,7,,,,,0,,,79,100
73536,note_on,,,,,92,0,14,,,,,6,,,55,100
73536,note_on,,,,,92,0,11,,,,,4,,,55,60
73536,note_on,,,,,32,0,7,,,,,0,,,79,90
73628,note_off,,,,,92,0,7,,,,,0,,,79,100
73632,note_on,,,,,4,0,7,,,,,0,,,77,90
73636,note_off,,,,,100,0,14,,,,,6,,,55,100
73636,note_off,,,,,100,0,11,,,,,4,,,55,100
73696,note_off,,,,,64,0,7,,,,,0,,,77,100
73728,note_on,,,,,92,0,14,,,,,6,,,52,100
73728,note_on,,,,,256,0,13,,,,,6,,,71,100
73728,note_on,,,,,0,0,13,,,,,6,,,67,100
73728,note_on,,,,,0,0,13,,,,,6,,,64,100
73728,note_on,,,,,92,0,11,,,,,4,,,52,60
73728,note_on,,,,,32,0,7,,,,,0,,,77,89
73820,note_off,,,,,92,0,7,,,,,0,,,77,100
73824,note_on,,,,,4,0,7,,,,,0,,,76,89
73828,note_off,,,,,100,0,11,,,,,4,,,52,100
73828,note_off,,,,,100,0,14,,,,,6,,,52,100
73888,note_off,,,,,64,0,7,,,,,0,,,76,100
73920,note_on,,,,,32,0,7,,,,,0,,,76,88
73920,note_on,,,,,92,0,14,,,,,6,,,52,100
73920,note_on,,,,,92,0,11,,,,,4,,,52,60
74012,note_off,,,,,92,0,7,,,,,0,,,76,100
74016,note_on,,,,,4,0,7,,,,,0,,,74,88
74020,note_off,,,,,100,0,11,,,,,4,,,52,100
74020,note_off,,,,,100,0,14,,,,,6,,,52,100
74080,note_off,,,,,64,0,7,,,,,0,,,74,100
74112,note_on,,,,,92,0,14,,,,,6,,,52,100
74112,note_on,,,,,32,0,7,,,,,0,,,74,88
74112,note_on,,,,,92,0,11,,,,,4,,,52,60
74204,note_off,,,,,92,0,7,,,,,0,,,74,100
74208,note_on,,,,,4,0,7,,,,,0,,,72,87
74212,note_off,,,,,100,0,14,,,,,6,,,52,100
74212,note_off,,,,,100,0,11,,,,,4,,,52,100
74240,note_off,,,,,512,0,13,,,,,6,,,71,100
74240,note_off,,,,,0,0,13,,,,,6,,,67,100
74240,note_off,,,,,0,0,13,,,,,6,,,64,100
74272,note_off,,,,,64,0,7,,,,,0,,,72,100
74304,note_on,,,,,92,0,11,,,,,4,,,52,60
74304,note_on,,,,,92,0,14,,,,,6,,,52,100
74304,note_on,,,,,32,0,7,,,,,0,,,72,87
74396,note_off,,,,,92,0,7,,,,,0,,,72,100
74400,note_on,,,,,4,0,7,,,,,0,,,71,86
74404,note_off,,,,,100,0,14,,,,,6,,,52,100
74404,note_off,,,,,100,0,11,,,,,4,,,52,100
74464,note_off,,,,,64,0,7,,,,,0,,,71,100
74496,note_on,,,,,92,0,11,,,,,4,,,52,60
74496,note_on,,,,,0,0,13,,,,,6,,,72,100
74496,note_on,,,,,0,0,13,,,,,6,,,67,100
74496,note_on,,,,,256,0,13,,,,,6,,,64,100
74496,note_on,,,,,32,0,7,,,,,0,,,72,86
74496,note_on,,,,,92,0,14,,,,,6,,,52,100
74588,note_off,,,,,92,0,7,,,,,0,,,72,100
74592,note_on,,,,,4,0,7,,,,,0,,,79,85
74596,note_off,,,,,100,0,11,,,,,4,,,52,100
74596,note_off,,,,,100,0,14,,,,,6,,,52,100
74656,note_off,,,,,64,0,7,,,,,0,,,79,100
74688,note_on,,,,,92,0,14,,,,,6,,,52,100
74688,note_on,,,,,92,0,11,,,,,4,,,52,60
74688,note_on,,,,,32,0,7,,,,,0,,,79,85
74688,note_on,,,,,1792,0,8,,,,,1,,,76,50
74780,note_off,,,,,92,0,7,,,,,0,,,79,100
74784,note_on,,,,,4,0,7,,,,,0,,,76,85
74788,note_off,,,,,100,0,14,,,,,6,,,52,100
74788,note_off,,,,,100,0,11,,,,,4,,,52,100
74816,note_off,,,,,128,0,8,,,,,1,,,76,100
74848,note_off,,,,,64,0,7,,,,,0,,,76,100
74880,note_on,,,,,92,0,11,,,,,4,,,52,60
74880,note_on,,,,,64,0,8,,,,,1,,,72,50
74880,note_on,,,,,32,0,7,,,,,0,,,76,84
74880,note_on,,,,,92,0,14,,,,,6,,,52,100
74972,note_off,,,,,92,0,7,,,,,0,,,76,100
74976,note_on,,,,,4,0,7,,,,,0,,,74,84
74980,note_off,,,,,100,0,11,,,,,4,,,52,100
74980,note_off,,,,,100,0,14,,,,,6,,,52,100
75008,note_off,,,,,512,0,13,,,,,6,,,64,100
75008,note_off,,,,,128,0,8,,,,,1,,,72,100
75008,note_off,,,,,0,0,13,,,,,6,,,72,100
75008,note_off,,,,,0,0,13,,,,,6,,,67,100
75040,note_off,,,,,64,0,7,,,,,0,,,74,100
75072,note_on,,,,,92,0,11,,,,,4,,,52,60
75072,note_on,,,,,92,0,14,,,,,6,,,52,100
75072,note_on,,,,,64,0,8,,,,,1,,,67,50
75072,note_on,,,,,32,0,7,,,,,0,,,74,83
75072,note_on,,,,,2560,0,9,,,,,2,,,79,50
75164,note_off,,,,,92,0,7,,,,,0,,,74,100
75168,note_on,,,,,4,0,7,,,,,0,,,72,83
75172,note_off,,,,,100,0,14,,,,,6,,,52,100
75172,note_off,,,,,100,0,11,,,,,4,,,52,100
75200,note_off,,,,,128,0,8,,,,,1,,,67,100
75200,note_off,,,,,128,0,9,,,,,2,,,79,100
75232,note_off,,,,,64,0,7,,,,,0,,,72,100
75264,note_on,,,,,92,0,11,,,,,4,,,52,60
75264,note_on,,,,,32,0,7,,,,,0,,,72,82
75264,note_on,,,,,64,0,9,,,,,2,,,76,50
75264,note_on,,,,,256,0,13,,,,,6,,,64,100
75264,note_on,,,,,92,0,14,,,,,6,,,52,100
75264,note_on,,,,,0,0,13,,,,,6,,,72,100
75264,note_on,,,,,0,0,13,,,,,6,,,67,100
75356,note_off,,,,,92,0,7,,,,,0,,,72,100
75360,note_on,,,,,4,0,7,,,,,0,,,79,83
75364,note_off,,,,,100,0,14,,,,,6,,,52,100
75364,note_off,,,,,100,0,11,,,,,4,,,52,100
75392,note_off,,,,,128,0,9,,,,,2,,,76,100
75424,note_off,,,,,64,0,7,,,,,0,,,79,100
75456,note_on,,,,,92,0,14,,,,,6,,,52,100
75456,note_on,,,,,92,0,11,,,,,4,,,52,60
75456,note_on,,,,,32,0,7,,,,,0,,,79,84
75456,note_on,,,,,256,0,8,,,,,1,,,76,50
75456,note_on,,,,,64,0,9,,,,,2,,,72,50
75548,note_off,,,,,92,0,7,,,,,0,,,79,100
75552,note_on,,,,,4,0,7,,,,,0,,,76,86
75556,note_off,,,,,100,0,11,,,,,4,,,52,100
75556,note_off,,,,,100,0,14,,,,,6,,,52,100
75584,note_off,,,,,128,0,8,,,,,1,,,76,100
75584,note_off,,,,,128,0,9,,,,,2,,,72,100
75616,note_off,,,,,64,0,7,,,,,0,,,76,100
75648,note_on,,,,,92,0,14,,,,,6,,,52,100
75648,note_on,,,,,32,0,7,,,,,0,,,76,87
75648,note_on,,,,,92,0,11,,,,,4,,,52,60
75648,note_on,,,,,64,0,8,,,,,1,,,72,50
75740,note_off,,,,,92,0,7,,,,,0,,,76,100
75744,note_on,,,,,4,0,7,,,,,0,,,72,89
75748,note_off,,,,,100,0,14,,,,,6,,,52,100
75748,note_off,,,,,100,0,11,,,,,4,,,52,100
75776,note_off,,,,,0,0,13,,,,,6,,,72,100
75776,note_off,,,,,0,0,13,,,,,6,,,67,100
75776,note_off,,,,,128,0,8,,,,,1,,,72,100
75776,note_off,,,,,512,0,13,,,,,6,,,64,100
75808,note_off,,,,,64,0,7,,,,,0,,,72,100
75840,note_on,,,,,32,0,7,,,,,0,,,72,89
75840,note_on,,,,,92,0,14,,,,,6,,,52,100
75840,note_on,,,,,64,0,8,,,,,1,,,67,50
75840,note_on,,,,,92,0,11,,,,,4,,,52,60
75932,note_off,,,,,92,0,7,,,,,0,,,72,100
75936,note_on,,,,,4,0,7,,,,,0,,,71,90
75940,note_off,,,,,100,0,11,,,,,4,,,52,100
75940,note_off,,,,,100,0,14,,,,,6,,,52,100
75968,note_off,,,,,128,0,8,,,,,1,,,67,100
76000,note_off,,,,,64,0,7,,,,,0,,,71,100
76032,note_on,,,,,0,0,13,,,,,6,,,66,100
76032,note_on,,,,,256,0,13,,,,,6,,,64,100
76032,note_on,,,,,32,0,7,,,,,0,,,66,91
76032,note_on,,,,,92,0,11,,,,,4,,,46,60
76032,note_on,,,,,0,0,13,,,,,6,,,70,100
76032,note_on,,,,,92,0,14,,,,,6,,,46,100
76124,note_off,,,,,92,0,7,,,,,0,,,66,100
76128,note_on,,,,,4,0,7,,,,,0,,,70,92
76220,note_off,,,,,92,0,7,,,,,0,,,70,100
76224,note_on,,,,,4,0,7,,,,,0,,,76,93
76288,note_off,,,,,64,0,7,,,,,0,,,76,100
76288,note_off,,,,,0,0,13,,,,,6,,,66,100
76288,note_off,,,,,256,0,13,,,,,6,,,64,100
76320,note_on,,,,,32,0,7,,,,,0,,,79,94
76384,note_off,,,,,64,0,7,,,,,0,,,79,100
76416,note_on,,,,,32,0,7,,,,,0,,,79,95
76416,note_on,,,,,0,0,13,,,,,6,,,67,100
76416,note_on,,,,,128,0,13,,,,,6,,,64,100
76544,note_off,,,,,128,0,13,,,,,6,,,70,100
76604,note_off,,,,,188,0,7,,,,,0,,,79,100
76608,note_on,,,,,4,0,7,,,,,0,,,78,91
76644,note_off,,,,,612,0,11,,,,,4,,,46,100
76644,note_off,,,,,612,0,14,,,,,6,,,46,100
76672,note_off,,,,,128,0,13,,,,,6,,,64,100
76672,note_off,,,,,0,0,13,,,,,6,,,67,100
76672,note_off,,,,,64,0,7,,,,,0,,,78,100
76704,note_on,,,,,32,0,7,,,,,0,,,76,92
76768,note_off,,,,,64,0,7,,,,,0,,,76,100
76800,note_on,,,,,156,0,11,,,,,4,,,47,60
76800,note_on,,,,,0,0,13,,,,,6,,,66,100
76800,note_on,,,,,128,0,13,,,,,6,,,71,100
76800,note_on,,,,,156,0,14,,,,,6,,,47,100
76800,note_on,,,,,32,0,7,,,,,0,,,74,93
76800,note_on,,,,,0,0,13,,,,,6,,,62,100
76864,note_off,,,,,64,0,7,,,,,0,,,74,100
76896,note_on,,,,,32,0,7,,,,,0,,,73,94
76960,note_off,,,,,64,0,7,,,,,0,,,73,100
76992,note_on,,,,,32,0,7,,,,,0,,,71,96
77056,note_off,,,,,256,0,11,,,,,4,,,47,100
77056,note_off,,,,,256,0,13,,,,,6,,,71,100
77056,note_off,,,,,0,0,13,,,,,6,,,62,100
77056,note_off,,,,,64,0,7,,,,,0,,,71,100
77056,note_off,,,,,256,0,14,,,,,6,,,47,100
77056,note_off,,,,,0,0,13,,,,,6,,,66,100
77088,note_on,,,,,32,0,7,,,,,0,,,81,97
77152,note_off,,,,,64,0,7,,,,,0,,,81,100
77184,note_on,,,,,128,0,13,,,,,6,,,66,100
77184,note_on,,,,,128,0,14,,,,,6,,,51,100
77184,note_on,,,,,0,0,13,,,,,6,,,71,100
77184,note_on,,,,,128,0,11,,,,,4,,,51,60
77184,note_on,,,,,0,0,13,,,,,6,,,69,100
77184,note_on,,,,,32,0,7,,,,,0,,,81,98
77372,note_off,,,,,188,0,7,,,,,0,,,81,100
77376,note_on,,,,,4,0,7,,,,,0,,,79,94
77440,note_off,,,,,256,0,14,,,,,6,,,51,100
77440,note_off,,,,,0,0,13,,,,,6,,,71,100
77440,note_off,,,,,64,0,7,,,,,0,,,79,100
77440,note_off,,,,,0,0,13,,,,,6,,,69,100
77440,note_off,,,,,256,0,11,,,,,4,,,51,100
77440,note_off,,,,,256,0,13,,,,,6,,,66,100
77472,note_on,,,,,32,0,7,,,,,0,,,78,95
77536,note_off,,,,,64,0,7,,,,,0,,,78,100
77568,note_on,,,,,128,0,11,,,,,4,,,52,60
77568,note_on,,,,,0,0,13,,,,,6,,,71,100
77568,note_on,,,,,128,0,13,,,,,6,,,67,100
77568,note_on,,,,,0,0,13,,,,,6,,,64,100
77568,note_on,,,,,128,0,14,,,,,6,,,52,100
77568,note_on,,,,,32,0,7,,,,,0,,,79,96
77632,note_off,,,,,64,0,7,,,,,0,,,79,100
77664,note_on,,,,,32,0,7,,,,,0,,,78,98
77728,note_off,,,,,64,0,7,,,,,0,,,78,100
77760,note_on,,,,,32,0,7,,,,,0,,,76,99
77824,note_off,,,,,64,0,7,,,,,0,,,76,100
77856,note_on,,,,,32,0,7,,,,,0,,,86,101
77920,note_off,,,,,64,0,7,,,,,0,,,86,100
77952,note_on,,,,,32,0,7,,,,,0,,,86,102
78080,note_off,,,,,0,0,13,,,,,6,,,71,100
78080,note_off,,,,,0,0,13,,,,,6,,,64,100
78080,note_off,,,,,512,0,13,,,,,6,,,67,100
78140,note_off,,,,,188,0,7,,,,,0,,,86,100
78144,note_on,,,,,4,0,7,,,,,0,,,85,97
78180,note_off,,,,,612,0,11,,,,,4,,,52,100
78180,note_off,,,,,612,0,14,,,,,6,,,52,100
78208,note_off,,,,,64,0,7,,,,,0,,,85,100
78240,note_on,,,,,32,0,7,,,,,0,,,83,98
78304,note_off,,,,,64,0,7,,,,,0,,,83,100
78336,note_on,,,,,32,0,7,,,,,0,,,82,99
78336,note_on,,,,,0,0,13,,,,,6,,,66,100
78336,note_on,,,,,256,0,13,,,,,6,,,73,100
78336,note_on,,,,,0,0,13,,,,,6,,,70,100
78336,note_on,,,,,156,0,14,,,,,6,,,54,100
78336,note_on,,,,,156,0,11,,,,,4,,,54,60
78400,note_off,,,,,64,0,7,,,,,0,,,82,100
78432,note_on,,,,,32,0,7,,,,,0,,,80,100
78496,note_off,,,,,64,0,7,,,,,0,,,80,100
78528,note_on,,,,,32,0,7,,,,,0,,,78,102
78592,note_off,,,,,64,0,7,,,,,0,,,78,100
78592,note_off,,,,,256,0,11,,,,,4,,,54,100
78592,note_off,,,,,256,0,14,,,,,6,,,54,100
78592,note_off,,,,,256,0,13,,,,,6,,,73,100
78592,note_off,,,,,0,0,13,,,,,6,,,70,100
78592,note_off,,,,,0,0,13,,,,,6,,,66,100
78624,note_on,,,,,32,0,7,,,,,0,,,88,103
78688,note_off,,,,,64,0,7,,,,,0,,,88,100
78720,note_on,,,,,128,0,13,,,,,6,,,70,100
78720,note_on,,,,,0,0,13,,,,,6,,,64,100
78720,note_on,,,,,0,0,13,,,,,6,,,66,100
78720,note_on,,,,,128,0,11,,,,,4,,,58,60
78720,note_on,,,,,32,0,7,,,,,0,,,88,104
78720,note_on,,,,,128,0,14,,,,,6,,,58,100
78908,note_off,,,,,188,0,7,,,,,0,,,88,100
78912,note_on,,,,,4,0,7,,,,,0,,,86,100
78976,note_off,,,,,256,0,13,,,,,6,,,70,100
78976,note_off,,,,,0,0,13,,,,,6,,,66,100
78976,note_off,,,,,0,0,13,,,,,6,,,64,100
78976,note_off,,,,,256,0,11,,,,,4,,,58,100
78976,note_off,,,,,256,0,14,,,,,6,,,58,100
78976,note_off,,,,,64,0,7,,,,,0,,,86,100
79008,note_on,,,,,32,0,7,,,,,0,,,85,100
79072,note_off,,,,,64,0,7,,,,,0,,,85,100
79104,note_on,,,,,128,0,11,,,,,4,,,59,60
79104,note_on,,,,,0,0,13,,,,,6,,,66,100
79104,note_on,,,,,128,0,14,,,,,6,,,59,100
79104,note_on,,,,,128,0,13,,,,,6,,,71,100
79104,note_on,,,,,0,0,13,,,,,6,,,62,100
79104,note_on,,,,,32,0,7,,,,,0,,,86,100
79144,note_off,,,,,40,0,7,,,,,0,,,86,100
79168,note_on,,,,,24,0,7,,,,,0,,,83,100
79228,note_off,,,,,60,0,7,,,,,0,,,83,100
79232,note_on,,,,,4,0,7,,,,,0,,,85,100
79292,note_off,,,,,60,0,7,,,,,0,,,85,100
79296,note_on,,,,,4,0,7,,,,,0,,,86,100
79356,note_off,,,,,60,0,7,,,,,0,,,86,100
79360,note_on,,,,,4,0,7,,,,,0,,,85,100
79360,note_off,,,,,0,0,13,,,,,6,,,66,100
79360,note_off,,,,,256,0,11,,,,,4,,,59,100
79360,note_off,,,,,256,0,13,,,,,6,,,71,100
79360,note_off,,,,,0,0,13,,,,,6,,,62,100
79360,note_off,,,,,256,0,14,,,,,6,,,59,100
79420,note_off,,,,,60,0,7,,,,,0,,,85,100
79424,note_on,,,,,4,0,7,,,,,0,,,83,100
79464,note_off,,,,,40,0,7,,,,,0,,,83,100
79488,note_on,,,,,0,0,13,,,,,6,,,71,100
79488,note_on,,,,,128,0,11,,,,,4,,,62,60
79488,note_on,,,,,128,0,13,,,,,6,,,78,100
79488,note_on,,,,,128,0,14,,,,,6,,,62,100
79488,note_on,,,,,24,0,7,,,,,0,,,78,100
79528,note_off,,,,,40,0,7,,,,,0,,,78,100
79552,note_on,,,,,24,0,7,,,,,0,,,83,100
79612,note_off,,,,,60,0,7,,,,,0,,,83,100
79616,note_on,,,,,4,0,7,,,,,0,,,85,100
79676,note_off,,,,,60,0,7,,,,,0,,,85,100
79680,note_on,,,,,4,0,7,,,,,0,,,86,100
79740,note_off,,,,,60,0,7,,,,,0,,,86,100
79744,note_off,,,,,256,0,14,,,,,6,,,62,100
79744,note_on,,,,,4,0,7,,,,,0,,,85,100
79744,note_off,,,,,256,0,11,,,,,4,,,62,100
79744,note_off,,,,,256,0,13,,,,,6,,,78,100
79744,note_off,,,,,0,0,13,,,,,6,,,71,100
79804,note_off,,,,,60,0,7,,,,,0,,,85,100
79808,note_on,,,,,4,0,7,,,,,0,,,83,100
79848,note_off,,,,,40,0,7,,,,,0,,,83,100
79872,note_on,,,,,128,0,13,,,,,6,,,79,100
79872,note_on,,,,,128,0,14,,,,,6,,,64,100
79872,note_on,,,,,0,0,13,,,,,6,,,71,100
79872,note_on,,,,,24,0,7,,,,,0,,,79,100
79872,note_on,,,,,128,0,11,,,,,4,,,64,60
79912,note_off,,,,,40,0,7,,,,,0,,,79,100
79936,note_on,,,,,24,0,7,,,,,0,,,83,100
79996,note_off,,,,,60,0,7,,,,,0,,,83,100
80000,note_on,,,,,4,0,7,,,,,0,,,85,100
80060,note_off,,,,,60,0,7,,,,,0,,,85,100
80064,note_on,,,,,4,0,7,,,,,0,,,86,100
80124,note_off,,,,,60,0,7,,,,,0,,,86,100
80128,note_off,,,,,256,0,13,,,,,6,,,79,100
80128,note_off,,,,,0,0,13,,,,,6,,,71,100
80128,note_on,,,,,4,0,7,,,,,0,,,85,100
80128,note_off,,,,,256,0,11,,,,,4,,,64,100
80128,note_off,,,,,256,0,14,,,,,6,,,64,100
80188,note_off,,,,,60,0,7,,,,,0,,,85,100
80192,note_on,,,,,4,0,7,,,,,0,,,83,100
80232,note_off,,,,,40,0,7,,,,,0,,,83,100
80256,note_on,,,,,0,0,13,,,,,6,,,78,100
80256,note_on,,,,,24,0,7,,,,,0,,,78,100
80256,note_on,,,,,128,0,14,,,,,6,,,62,100
80256,note_on,,,,,128,0,13,,,,,6,,,71,100
80256,note_on,,,,,128,0,11,,,,,4,,,62,60
80296,note_off,,,,,40,0,7,,,,,0,,,78,100
80320,note_on,,,,,24,0,7,,,,,0,,,83,98
80380,note_off,,,,,60,0,7,,,,,0,,,83,100
80384,note_on,,,,,4,0,7,,,,,0,,,85,96
80444,note_off,,,,,60,0,7,,,,,0,,,85,100
80448,note_on,,,,,4,0,7,,,,,0,,,86,94
80508,note_off,,,,,60,0,7,,,,,0,,,86,100
80512,note_on,,,,,4,0,7,,,,,0,,,85,92
80512,note_off,,,,,0,0,13,,,,,6,,,78,100
80512,note_off,,,,,256,0,13,,,,,6,,,71,100
80512,note_off,,,,,256,0,14,,,,,6,,,62,100
80512,note_off,,,,,256,0,11,,,,,4,,,62,100
80572,note_off,,,,,60,0,7,,,,,0,,,85,100
80576,note_on,,,,,4,0,7,,,,,0,,,83,90
80616,note_off,,,,,40,0,7,,,,,0,,,83,100
80640,note_on,,,,,24,0,7,,,,,0,,,76,87
80640,note_on,,,,,128,0,13,,,,,6,,,71,100
80640,note_on,,,,,0,0,13,,,,,6,,,76,100
80640,note_on,,,,,128,0,11,,,,,4,,,61,60
80640,note_on,,,,,128,0,14,,,,,6,,,61,100
80680,note_off,,,,,40,0,7,,,,,0,,,76,100
80704,note_on,,,,,24,0,7,,,,,0,,,83,87
80764,note_off,,,,,60,0,7,,,,,0,,,83,100
80768,note_on,,,,,4,0,7,,,,,0,,,85,87
80828,note_off,,,,,60,0,7,,,,,0,,,85,100
80832,note_on,,,,,4,0,7,,,,,0,,,86,87
80892,note_off,,,,,60,0,7,,,,,0,,,86,100
80896,note_on,,,,,4,0,7,,,,,0,,,85,87
80896,note_off,,,,,256,0,11,,,,,4,,,61,100
80896,note_off,,,,,0,0,13,,,,,6,,,76,100
80896,note_off,,,,,256,0,13,,,,,6,,,71,100
80896,note_off,,,,,256,0,14,,,,,6,,,61,100
80956,note_off,,,,,60,0,7,,,,,0,,,85,100
80960,note_on,,,,,4,0,7,,,,,0,,,83,87
81000,note_off,,,,,40,0,7,,,,,0,,,83,100
81024,note_on,,,,,24,0,7,,,,,0,,,78,87
81024,note_on,,,,,128,0,14,,,,,6,,,62,100
81024,note_on,,,,,0,0,13,,,,,6,,,78,100
81024,note_on,,,,,128,0,13,,,,,6,,,71,100
81024,note_on,,,,,128,0,11,,,,,4,,,62,60
81064,note_off,,,,,40,0,7,,,,,0,,,78,100
81088,note_on,,,,,24,0,7,,,,,0,,,83,87
81148,note_off,,,,,60,0,7,,,,,0,,,83,100
81152,note_on,,,,,4,0,7,,,,,0,,,85,87
81212,note_off,,,,,60,0,7,,,,,0,,,85,100
81216,note_on,,,,,4,0,7,,,,,0,,,86,87
81276,note_off,,,,,60,0,7,,,,,0,,,86,100
81280,note_off,,,,,256,0,13,,,,,6,,,71,100
81280,note_off,,,,,0,0,13,,,,,6,,,78,100
81280,note_off,,,,,256,0,11,,,,,4,,,62,100
81280,note_off,,,,,256,0,14,,,,,6,,,62,100
81280,note_on,,,,,4,0,7,,,,,0,,,85,87
81340,note_off,,,,,60,0,7,,,,,0,,,85,100
81344,note_on,,,,,4,0,7,,,,,0,,,83,87
81384,note_off,,,,,40,0,7,,,,,0,,,83,100
81408,note_on,,,,,24,0,7,,,,,0,,,79,87
81408,note_on,,,,,128,0,14,,,,,6,,,64,100
81408,note_on,,,,,128,0,11,,,,,4,,,64,60
81408,note_on,,,,,128,0,13,,,,,6,,,79,100
81408,note_on,,,,,0,0,13,,,,,6,,,71,100
81448,note_off,,,,,40,0,7,,,,,0,,,79,100
81472,note_on,,,,,24,0,7,,,,,0,,,83,87
81532,note_off,,,,,60,0,7,,,,,0,,,83,100
81536,note_on,,,,,4,0,7,,,,,0,,,85,87
81596,note_off,,,,,60,0,7,,,,,0,,,85,100
81600,note_on,,,,,4,0,7,,,,,0,,,86,87
81660,note_off,,,,,60,0,7,,,,,0,,,86,100
81664,note_off,,,,,0,0,13,,,,,6,,,71,100
81664,note_on,,,,,4,0,7,,,,,0,,,85,87
81664,note_off,,,,,256,0,14,,,,,6,,,64,100
81664,note_off,,,,,256,0,13,,,,,6,,,79,100
81664,note_off,,,,,256,0,11,,,,,4,,,64,100
81724,note_off,,,,,60,0,7,,,,,0,,,85,100
81728,note_on,,,,,4,0,7,,,,,0,,,83,87
81768,note_off,,,,,40,0,7,,,,,0,,,83,100
81792,note_on,,,,,128,0,14,,,,,6,,,62,100
81792,note_on,,,,,24,0,7,,,,,0,,,78,87
81792,note_on,,,,,128,0,11,,,,,4,,,62,60
81792,note_on,,,,,128,0,13,,,,,6,,,71,100
81792,note_on,,,,,0,0,13,,,,,6,,,78,100
81832,note_off,,,,,40,0,7,,,,,0,,,78,100
81856,note_on,,,,,24,0,7,,,,,0,,,83,88
81916,note_off,,,,,60,0,7,,,,,0,,,83,100
81920,note_on,,,,,4,0,7,,,,,0,,,85,89
81980,note_off,,,,,60,0,7,,,,,0,,,85,100
81984,note_on,,,,,4,0,7,,,,,0,,,86,90
82044,note_off,,,,,60,0,7,,,,,0,,,86,100
82048,note_off,,,,,256,0,13,,,,,6,,,71,100
82048,note_off,,,,,0,0,13,,,,,6,,,78,100
82048,note_off,,,,,256,0,14,,,,,6,,,62,100
82048,note_off,,,,,256,0,11,,,,,4,,,62,100
82048,note_on,,,,,4,0,7,,,,,0,,,85,92
82108,note_off,,,,,60,0,7,,,,,0,,,85,100
82112,note_on,,,,,4,0,7,,,,,0,,,83,93
82152,note_off,,,,,40,0,7,,,,,0,,,83,100
82176,note_on,,,,,24,0,7,,,,,0,,,76,95
82176,note_on,,,,,128,0,11,,,,,4,,,55,60
82176,note_on,,,,,0,0,13,,,,,6,,,71,100
82176,note_on,,,,,0,0,13,,,,,6,,,76,100
82176,note_on,,,,,128,0,14,,,,,6,,,55,100
82176,note_on,,,,,128,0,13,,,,,6,,,64,100
82364,note_off,,,,,188,0,7,,,,,0,,,76,100
82368,note_on,,,,,4,0,7,,,,,0,,,83,97
82432,note_off,,,,,256,0,13,,,,,6,,,64,100
82432,note_off,,,,,0,0,13,,,,,6,,,71,100
82432,note_off,,,,,0,0,13,,,,,6,,,76,100
82432,note_off,,,,,256,0,11,,,,,4,,,55,100
82432,note_off,,,,,256,0,14,,,,,6,,,55,100
82496,note_off,,,,,128,0,7,,,,,0,,,83,100
82560,note_on,,,,,128,0,11,,,,,4,,,52,62
82560,note_on,,,,,64,0,7,,,,,0,,,84,99
82560,note_on,,,,,128,0,14,,,,,6,,,52,100
82560,note_on,,,,,128,0,13,,,,,6,,,72,100
82560,note_on,,,,,0,0,13,,,,,6,,,67,100
82688,note_off,,,,,128,0,14,,,,,6,,,52,100
82688,note_off,,,,,0,0,13,,,,,6,,,67,100
82688,note_off,,,,,128,0,13,,,,,6,,,72,100
82688,note_off,,,,,128,0,11,,,,,4,,,52,100
82748,note_off,,,,,188,0,7,,,,,0,,,84,100
82752,note_on,,,,,64,0,11,,,,,4,,,54,63
82752,note_on,,,,,4,0,7,,,,,0,,,87,102
82752,note_on,,,,,0,0,13,,,,,6,,,75,100
82752,note_on,,,,,64,0,14,,,,,6,,,54,100
82752,note_on,,,,,64,0,13,,,,,6,,,69,100
82880,note_off,,,,,128,0,11,,,,,4,,,54,100
82880,note_off,,,,,128,0,14,,,,,6,,,54,100
82880,note_off,,,,,128,0,7,,,,,0,,,87,100
82880,note_off,,,,,128,0,13,,,,,6,,,69,100
82880,note_off,,,,,0,0,13,,,,,6,,,75,100
82944,note_on,,,,,64,0,7,,,,,0,,,88,104
82944,note_on,,,,,64,0,11,,,,,4,,,55,64
82944,note_on,,,,,0,0,13,,,,,6,,,76,100
82944,note_on,,,,,64,0,13,,,,,6,,,67,100
82944,note_on,,,,,64,0,14,,,,,6,,,55,100
83072,note_off,,,,,0,0,13,,,,,6,,,76,100
83072,note_off,,,,,128,0,13,,,,,6,,,67,100
83072,note_off,,,,,128,0,11,,,,,4,,,55,100
83072,note_off,,,,,128,0,14,,,,,6,,,55,100
83136,note_on,,,,,64,0,13,,,,,6,,,66,100
83136,note_on,,,,,64,0,11,,,,,4,,,54,66
83136,note_on,,,,,64,0,14,,,,,6,,,54,100
83200,note_off,,,,,64,0,13,,,,,6,,,66,100
83200,note_off,,,,,64,0,11,,,,,4,,,54,100
83200,note_off,,,,,64,0,14,,,,,6,,,54,100
83232,note_on,,,,,32,0,11,,,,,4,,,52,66
83232,note_on,,,,,32,0,13,,,,,6,,,64,100
83232,note_on,,,,,32,0,14,,,,,6,,,52,100
83296,note_off,,,,,64,0,14,,,,,6,,,52,100
83296,note_off,,,,,64,0,13,,,,,6,,,64,100
83296,note_off,,,,,64,0,11,,,,,4,,,52,100
83328,note_on,,,,,32,0,14,,,,,6,,,50,100
83328,note_on,,,,,32,0,13,,,,,6,,,62,100
83328,note_on,,,,,32,0,11,,,,,4,,,50,67
83456,note_off,,,,,128,0,11,,,,,4,,,50,100
83456,note_off,,,,,128,0,13,,,,,6,,,62,100
83456,note_off,,,,,128,0,14,,,,,6,,,50,100
83520,note_on,,,,,64,0,13,,,,,6,,,61,100
83520,note_on,,,,,64,0,14,,,,,6,,,49,100
83520,note_on,,,,,64,0,11,,,,,4,,,49,68
83584,note_off,,,,,64,0,13,,,,,6,,,61,100
83584,note_off,,,,,64,0,11,,,,,4,,,49,100
83584,note_off,,,,,64,0,14,,,,,6,,,49,100
83616,note_on,,,,,32,0,14,,,,,6,,,47,100
83616,note_on,,,,,32,0,11,,,,,4,,,47,69
83616,note_on,,,,,32,0,13,,,,,6,,,59,100
83680,note_off,,,,,64,0,13,,,,,6,,,59,100
83680,note_off,,,,,64,0,11,,,,,4,,,47,100
83680,note_off,,,,,64,0,14,,,,,6,,,47,100
83712,note_on,,,,,0,0,13,,,,,6,,,64,100
83712,note_on,,,,,32,0,14,,,,,6,,,46,100
83712,note_on,,,,,32,0,11,,,,,4,,,46,70
83712,note_on,,,,,32,0,13,,,,,6,,,66,100
83864,note_off,,,,,920,0,7,,,,,0,,,88,100
83904,note_on,,,,,40,0,7,,,,,0,,,86,100
83968,note_off,,,,,256,0,11,,,,,4,,,46,100
83968,note_off,,,,,256,0,13,,,,,6,,,64,100
83968,note_off,,,,,256,0,14,,,,,6,,,46,100
84092,note_off,,,,,188,0,7,,,,,0,,,86,100
84096,note_on,,,,,128,0,14,,,,,6,,,47,100
84096,note_on,,,,,4,0,7,,,,,0,,,84,100
84096,note_on,,,,,128,0,11,,,,,4,,,47,70
84096,note_on,,,,,128,0,13,,,,,6,,,62,100
84224,note_off,,,,,128,0,13,,,,,6,,,66,100
84284,note_off,,,,,188,0,7,,,,,0,,,84,100
84288,note_on,,,,,4,0,7,,,,,0,,,83,100
84352,note_off,,,,,256,0,14,,,,,6,,,47,100
84352,note_off,,,,,256,0,11,,,,,4,,,47,100
84352,note_off,,,,,128,0,13,,,,,6,,,62,100
84416,note_off,,,,,128,0,7,,,,,0,,,83,100
84480,note_on,,,,,128,0,14,,,,,6,,,52,100
84480,note_on,,,,,128,0,11,,,,,4,,,52,70
84480,note_on,,,,,128,0,13,,,,,6,,,67,100
84480,note_on,,,,,0,0,13,,,,,6,,,72,100
84480,set_tempo,,,,,20736,1,0,,582524,,,,,,,
84480,note_on,,,,,64,0,7,,,,,0,,,84,100
84668,note_off,,,,,188,0,7,,,,,0,,,84,100
84672,note_on,,,,,4,0,7,,,,,0,,,83,101
84736,note_off,,,,,256,0,13,,,,,6,,,67,100
84736,note_off,,,,,0,0,13,,,,,6,,,72,100
84860,note_off,,,,,188,0,7,,,,,0,,,83,100
84864,note_on,,,,,4,0,7,,,,,0,,,82,102
84864,note_on,,,,,128,0,13,,,,,6,,,70,100
84864,note_on,,,,,0,0,13,,,,,6,,,73,100
84864,set_tempo,,,,,384,1,0,,582524,,,,,,,
84992,note_off,,,,,128,0,7,,,,,0,,,82,100
84992,note_off,,,,,0,0,13,,,,,6,,,73,100
84992,note_off,,,,,128,0,13,,,,,6,,,70,100
84996,note_off,,,,,516,0,11,,,,,4,,,52,100
84996,note_off,,,,,516,0,14,,,,,6,,,52,100
85056,note_on,,,,,60,0,14,,,,,6,,,50,100
85056,note_on,,,,,60,0,11,,,,,4,,,50,77
85056,note_on,,,,,64,0,7,,,,,0,,,83,103
85056,note_on,,,,,0,0,13,,,,,6,,,71,100
85056,note_on,,,,,64,0,13,,,,,6,,,66,100
85120,note_off,,,,,64,0,14,,,,,6,,,50,100
85120,note_off,,,,,64,0,11,,,,,4,,,50,100
85152,note_on,,,,,32,0,11,,,,,4,,,52,78
85152,note_on,,,,,32,0,14,,,,,6,,,52,100
85184,note_off,,,,,128,0,13,,,,,6,,,66,100
85184,note_off,,,,,128,0,7,,,,,0,,,83,100
85184,note_off,,,,,0,0,13,,,,,6,,,71,100
85216,note_off,,,,,64,0,11,,,,,4,,,52,100
85216,note_off,,,,,64,0,14,,,,,6,,,52,100
85248,note_on,,,,,32,0,11,,,,,4,,,54,79
85248,note_on,,,,,64,0,7,,,,,0,,,83,105
85248,set_tempo,,,,,384,1,0,,588235,,,,,,,
85248,note_on,,,,,64,0,13,,,,,6,,,61,100
85248,note_on,,,,,0,0,13,,,,,6,,,70,100
85248,note_on,,,,,32,0,14,,,,,6,,,54,100
85340,note_off,,,,,92,0,7,,,,,0,,,83,100
85344,note_on,,,,,4,0,7,,,,,0,,,82,105
85388,note_off,,,,,44,0,7,,,,,0,,,82,100
85392,set_tempo,,,,,144,1,0,,594059,,,,,,,
85392,note_on,,,,,4,0,7,,,,,0,,,83,105
85436,note_off,,,,,44,0,7,,,,,0,,,83,100
85440,note_on,,,,,4,0,7,,,,,0,,,82,104
85484,note_off,,,,,44,0,7,,,,,0,,,82,100
85488,note_on,,,,,4,0,7,,,,,0,,,83,104
85504,note_off,,,,,256,0,14,,,,,6,,,54,100
85504,note_off,,,,,256,0,11,,,,,4,,,54,100
85532,note_off,,,,,44,0,7,,,,,0,,,83,100
85536,note_on,,,,,4,0,7,,,,,0,,,82,104
85536,set_tempo,,,,,144,1,0,,600000,,,,,,,
85580,note_off,,,,,44,0,7,,,,,0,,,82,100
85584,note_on,,,,,4,0,7,,,,,0,,,83,103
85628,note_off,,,,,44,0,7,,,,,0,,,83,100
85632,note_on,,,,,128,0,14,,,,,6,,,42,100
85632,note_on,,,,,128,0,11,,,,,4,,,42,84
85632,note_on,,,,,4,0,7,,,,,0,,,82,103
85680,set_tempo,,,,,144,1,0,,606060,,,,,,,
85760,note_off,,,,,512,0,13,,,,,6,,,61,100
85760,note_off,,,,,0,0,13,,,,,6,,,70,100
85760,note_off,,,,,128,0,7,,,,,0,,,82,100
85824,note_on,,,,,64,0,7,,,,,0,,,83,102
85824,set_tempo,,,,,144,1,0,,612244,,,,,,,
85888,note_off,,,,,256,0,14,,,,,6,,,42,100
85888,note_off,,,,,256,0,11,,,,,4,,,42,100
85952,note_off,,,,,128,0,7,,,,,0,,,83,100
86016,set_tempo,,,,,192,1,0,,576923,,,,,,,
86016,note_on,,,,,128,0,14,,,,,6,,,47,100
86016,note_on,,,,,128,0,11,,,,,4,,,47,100
86016,note_on,,,,,10048,0,8,,,,,1,,,71,100
86016,note_on,,,,,64,0,7,,,,,0,,,83,101
86016,note_on,,,,,256,0,13,,,,,6,,,66,100
86016,note_on,,,,,0,0,13,,,,,6,,,71,100
86016,note_on,,,,,0,0,13,,,,,6,,,62,100
86116,note_off,,,,,0,0,13,,,,,6,,,62,100
86116,note_off,,,,,100,0,8,,,,,1,,,71,100
86116,note_off,,,,,100,0,14,,,,,6,,,47,100
86116,note_off,,,,,0,0,13,,,,,6,,,71,100
86116,note_off,,,,,100,0,13,,,,,6,,,66,100
86116,note_off,,,,,100,0,11,,,,,4,,,47,100
86188,note_off,,,,,172,0,7,,,,,0,,,83,100
86208,note_on,,,,,92,0,8,,,,,1,,,71,100
86208,note_on,,,,,26816,0,16,,,,,7,,,59,100
86208,note_on,,,,,92,0,14,,,,,6,,,59,100
86208,note_on,,,,,0,0,13,,,,,6,,,74,100
86208,note_on,,,,,92,0,13,,,,,6,,,66,100
86208,note_on,,,,,26816,0,12,,,,,5,,,47,100
86208,note_on,,,,,92,0,11,,,,,4,,,59,100
86208,note_on,,,,,26816,0,15,,,,,7,,,74,100
86208,note_on,,,,,0,0,15,,,,,7,,,66,100
86208,note_on,,,,,22976,0,10,,,,,3,,,66,100
86272,note_off,,,,,64,0,13,,,,,6,,,74,100
86304,note_on,,,,,32,0,13,,,,,6,,,73,100
86308,note_off,,,,,100,0,8,,,,,1,,,71,100
86308,note_off,,,,,100,0,14,,,,,6,,,59,100
86308,note_off,,,,,100,0,16,,,,,7,,,59,100
86308,note_off,,,,,100,0,12,,,,,5,,,47,100
86308,note_off,,,,,100,0,11,,,,,4,,,59,100
86308,note_off,,,,,100,0,10,,,,,3,,,66,100
86336,note_off,,,,,0,0,15,,,,,7,,,66,100
86336,note_off,,,,,32,0,13,,,,,6,,,66,100
86336,note_off,,,,,128,0,15,,,,,7,,,74,100
86368,note_off,,,,,32,0,13,,,,,6,,,73,100
86400,note_on,,,,,92,0,12,,,,,5,,,35,100
86400,note_on,,,,,92,0,11,,,,,4,,,47,100
86400,note_on,,,,,92,0,10,,,,,3,,,62,100
86400,note_on,,,,,0,0,13,,,,,6,,,62,100
86400,note_on,,,,,92,0,14,,,,,6,,,47,100
86400,note_on,,,,,92,0,16,,,,,7,,,47,100
86400,note_on,,,,,64,0,15,,,,,7,,,66,100
86400,note_on,,,,,0,0,15,,,,,7,,,62,100
86400,note_on,,,,,32,0,13,,,,,6,,,71,100
86400,note_on,,,,,92,0,8,,,,,1,,,71,100
86500,note_off,,,,,100,0,8,,,,,1,,,71,100
86592,note_on,,,,,92,0,8,,,,,1,,,71,100
86656,note_off,,,,,256,0,12,,,,,5,,,35,100
86656,note_off,,,,,256,0,13,,,,,6,,,71,100
86656,note_off,,,,,256,0,14,,,,,6,,,47,100
86656,note_off,,,,,256,0,10,,,,,3,,,62,100
86656,note_off,,,,,256,0,16,,,,,7,,,47,100
86656,note_off,,,,,0,0,13,,,,,6,,,62,100
86656,note_off,,,,,0,0,15,,,,,7,,,62,100
86656,note_off,,,,,256,0,15,,,,,7,,,66,100
86656,note_off,,,,,256,0,11,,,,,4,,,47,100
86692,note_off,,,,,100,0,8,,,,,1,,,71,100
86784,note_on,,,,,92,0,8,,,,,1,,,71,100
86784,note_on,,,,,11200,0,9,,,,,2,,,78,100
86884,note_off,,,,,100,0,8,,,,,1,,,71,100
86976,note_on,,,,,320,0,13,,,,,6,,,66,100
86976,note_on,,,,,0,0,13,,,,,6,,,74,100
86976,note_on,,,,,320,0,11,,,,,4,,,59,100
86976,note_on,,,,,320,0,16,,,,,7,,,59,100
86976,note_on,,,,,320,0,14,,,,,6,,,59,100
86976,note_on,,,,,320,0,12,,,,,5,,,47,100
86976,note_on,,,,,0,0,15,,,,,7,,,66,100
86976,note_on,,,,,92,0,8,,,,,1,,,74,100
86976,note_on,,,,,320,0,15,,,,,7,,,74,100
86976,note_on,,,,,320,0,10,,,,,3,,,66,100
87040,note_off,,,,,64,0,13,,,,,6,,,74,100
87040,note_off,,,,,64,0,8,,,,,1,,,74,100
87072,note_on,,,,,32,0,8,,,,,1,,,73,100
87072,note_on,,,,,32,0,13,,,,,6,,,73,100
87076,note_off,,,,,100,0,12,,,,,5,,,47,100
87076,note_off,,,,,100,0,11,,,,,4,,,59,100
87076,note_off,,,,,100,0,14,,,,,6,,,59,100
87076,note_off,,,,,100,0,10,,,,,3,,,66,100
87076,note_off,,,,,100,0,16,,,,,7,,,59,100
87104,note_off,,,,,128,0,15,,,,,7,,,74,100
87104,note_off,,,,,0,0,15,,,,,7,,,66,100
87104,note_off,,,,,32,0,13,,,,,6,,,66,100
87136,note_off,,,,,64,0,8,,,,,1,,,73,100
87136,note_off,,,,,32,0,13,,,,,6,,,73,100
87168,note_on,,,,,92,0,10,,,,,3,,,62,100
87168,note_off,,,,,384,0,9,,,,,2,,,78,100
87168,note_on,,,,,92,0,16,,,,,7,,,47,100
87168,note_on,,,,,64,0,15,,,,,7,,,66,100
87168,note_on,,,,,0,0,15,,,,,7,,,62,100
87168,note_on,,,,,92,0,14,,,,,6,,,47,100
87168,note_on,,,,,32,0,8,,,,,1,,,71,100
87168,note_on,,,,,92,0,12,,,,,5,,,35,100
87168,note_on,,,,,32,0,13,,,,,6,,,62,100
87168,note_on,,,,,0,0,13,,,,,6,,,71,100
87168,note_on,,,,,92,0,11,,,,,4,,,47,100
87268,note_off,,,,,100,0,8,,,,,1,,,71,100
87360,note_on,,,,,92,0,8,,,,,1,,,71,100
87360,note_on,,,,,192,0,9,,,,,2,,,79,100
87424,note_off,,,,,256,0,10,,,,,3,,,62,100
87424,note_off,,,,,256,0,14,,,,,6,,,47,100
87424,note_off,,,,,256,0,13,,,,,6,,,62,100
87424,note_off,,,,,256,0,12,,,,,5,,,35,100
87424,note_off,,,,,0,0,13,,,,,6,,,71,100
87424,note_off,,,,,256,0,11,,,,,4,,,47,100
87424,note_off,,,,,0,0,15,,,,,7,,,62,100
87424,note_off,,,,,256,0,15,,,,,7,,,66,100
87424,note_off,,,,,256,0,16,,,,,7,,,47,100
87452,note_off,,,,,92,0,9,,,,,2,,,79,100
87456,note_on,,,,,4,0,9,,,,,2,,,76,100
87460,note_off,,,,,100,0,8,,,,,1,,,71,100
87520,note_off,,,,,64,0,9,,,,,2,,,76,100
87552,note_on,,,,,92,0,8,,,,,1,,,71,100
87552,note_on,,,,,32,0,9,,,,,2,,,78,100
87652,note_off,,,,,100,0,8,,,,,1,,,71,100
87744,note_on,,,,,320,0,12,,,,,5,,,47,100
87744,note_on,,,,,92,0,8,,,,,1,,,74,100
87744,note_on,,,,,320,0,11,,,,,4,,,59,100
87744,note_on,,,,,320,0,16,,,,,7,,,59,100
87744,note_on,,,,,320,0,14,,,,,6,,,59,100
87744,note_on,,,,,320,0,15,,,,,7,,,74,100
87744,note_on,,,,,0,0,15,,,,,7,,,66,100
87744,note_on,,,,,320,0,13,,,,,6,,,74,100
87744,note_on,,,,,320,0,10,,,,,3,,,66,100
87744,note_on,,,,,0,0,13,,,,,6,,,66,100
87808,note_off,,,,,64,0,13,,,,,6,,,74,100
87808,note_off,,,,,64,0,8,,,,,1,,,74,100
87840,note_on,,,,,32,0,13,,,,,6,,,73,100
87840,note_on,,,,,32,0,8,,,,,1,,,73,100
87844,note_off,,,,,100,0,11,,,,,4,,,59,100
87844,note_off,,,,,100,0,10,,,,,3,,,66,100
87844,note_off,,,,,100,0,12,,,,,5,,,47,100
87844,note_off,,,,,100,0,16,,,,,7,,,59,100
87844,note_off,,,,,100,0,14,,,,,6,,,59,100
87872,note_off,,,,,32,0,13,,,,,6,,,66,100
87872,note_off,,,,,128,0,15,,,,,7,,,74,100
87872,note_off,,,,,0,0,15,,,,,7,,,66,100
87904,note_off,,,,,64,0,8,,,,,1,,,73,100
87904,note_off,,,,,32,0,13,,,,,6,,,73,100
87936,note_on,,,,,92,0,16,,,,,7,,,47,100
87936,note_on,,,,,92,0,12,,,,,5,,,35,100
87936,note_off,,,,,384,0,9,,,,,2,,,78,100
87936,note_on,,,,,32,0,13,,,,,6,,,71,100
87936,note_on,,,,,32,0,8,,,,,1,,,71,100
87936,note_on,,,,,0,0,15,,,,,7,,,62,100
87936,note_on,,,,,92,0,11,,,,,4,,,47,100
87936,note_on,,,,,0,0,13,,,,,6,,,62,100
87936,note_on,,,,,92,0,10,,,,,3,,,62,100
87936,note_on,,,,,92,0,14,,,,,6,,,47,100
87936,note_on,,,,,64,0,15,,,,,7,,,66,100
88000,note_off,,,,,64,0,13,,,,,6,,,71,100
88032,note_on,,,,,32,0,13,,,,,6,,,74,100
88036,note_off,,,,,100,0,8,,,,,1,,,71,100
88096,note_off,,,,,64,0,13,,,,,6,,,74,100
88128,note_on,,,,,32,0,13,,,,,6,,,73,100
88128,note_on,,,,,92,0,8,,,,,1,,,71,100
88128,note_on,,,,,192,0,9,,,,,2,,,79,100
88192,note_off,,,,,256,0,10,,,,,3,,,62,100
88192,note_off,,,,,64,0,13,,,,,6,,,62,100
88192,note_off,,,,,256,0,11,,,,,4,,,47,100
88192,note_off,,,,,0,0,13,,,,,6,,,73,100
88192,note_off,,,,,256,0,15,,,,,7,,,66,100
88192,note_off,,,,,256,0,14,,,,,6,,,47,100
88192,note_off,,,,,0,0,15,,,,,7,,,62,100
88192,note_off,,,,,256,0,16,,,,,7,,,47,100
88192,note_off,,,,,256,0,12,,,,,5,,,35,100
88220,note_off,,,,,92,0,9,,,,,2,,,79,100
88224,note_on,,,,,32,0,13,,,,,6,,,71,100
88224,note_on,,,,,4,0,9,,,,,2,,,76,100
88228,note_off,,,,,100,0,8,,,,,1,,,71,100
88288,note_off,,,,,64,0,9,,,,,2,,,76,100
88288,note_off,,,,,64,0,13,,,,,6,,,71,100
88320,note_on,,,,,92,0,8,,,,,1,,,73,100
88320,note_on,,,,,0,0,15,,,,,7,,,66,100
88320,note_on,,,,,128,0,11,,,,,4,,,42,100
88320,note_on,,,,,128,0,15,,,,,7,,,70,100
88320,note_on,,,,,128,0,10,,,,,3,,,58,100
88320,note_on,,,,,128,0,12,,,,,5,,,42,100
88320,note_on,,,,,32,0,13,,,,,6,,,66,100
88320,note_on,,,,,128,0,16,,,,,7,,,42,100
88320,note_on,,,,,0,0,13,,,,,6,,,70,100
88320,note_on,,,,,128,0,14,,,,,6,,,42,100
88320,note_on,,,,,32,0,9,,,,,2,,,78,100
88420,note_off,,,,,100,0,10,,,,,3,,,58,100
88420,note_off,,,,,100,0,11,,,,,4,,,42,100
88420,note_off,,,,,100,0,12,,,,,5,,,42,100
88420,note_off,,,,,100,0,14,,,,,6,,,42,100
88420,note_off,,,,,100,0,9,,,,,2,,,78,100
88420,note_off,,,,,100,0,16,,,,,7,,,42,100
88448,note_off,,,,,128,0,8,,,,,1,,,73,100
88512,note_on,,,,,92,0,9,,,,,2,,,66,100
88512,note_on,,,,,92,0,12,,,,,5,,,42,100
88512,note_on,,,,,92,0,14,,,,,6,,,54,100
88512,note_on,,,,,92,0,10,,,,,3,,,61,100
88512,note_on,,,,,92,0,16,,,,,7,,,54,100
88512,note_on,,,,,64,0,8,,,,,1,,,74,100
88512,note_on,,,,,92,0,11,,,,,4,,,54,100
88576,note_off,,,,,256,0,15,,,,,7,,,70,100
88576,note_off,,,,,256,0,13,,,,,6,,,70,100
88604,note_off,,,,,92,0,8,,,,,1,,,74,100
88608,note_on,,,,,4,0,8,,,,,1,,,76,100
88612,note_off,,,,,100,0,14,,,,,6,,,54,100
88612,note_off,,,,,100,0,10,,,,,3,,,61,100
88612,note_off,,,,,100,0,16,,,,,7,,,54,100
88612,note_off,,,,,100,0,9,,,,,2,,,66,100
88612,note_off,,,,,100,0,11,,,,,4,,,54,100
88612,note_off,,,,,100,0,12,,,,,5,,,42,100
88672,note_off,,,,,64,0,8,,,,,1,,,76,100
88704,note_on,,,,,128,0,13,,,,,6,,,73,100
88704,note_on,,,,,92,0,10,,,,,3,,,61,100
88704,note_on,,,,,92,0,12,,,,,5,,,34,100
88704,note_on,,,,,32,0,8,,,,,1,,,78,100
88704,note_on,,,,,92,0,14,,,,,6,,,46,100
88704,note_on,,,,,92,0,16,,,,,7,,,46,100
88704,note_on,,,,,92,0,11,,,,,4,,,46,100
88704,note_on,,,,,128,0,15,,,,,7,,,73,100
88796,note_off,,,,,92,0,8,,,,,1,,,78,100
88800,note_on,,,,,4,0,8,,,,,1,,,76,100
88804,note_off,,,,,100,0,11,,,,,4,,,46,100
88804,note_off,,,,,100,0,10,,,,,3,,,61,100
88804,note_off,,,,,100,0,12,,,,,5,,,34,100
88804,note_off,,,,,100,0,14,,,,,6,,,46,100
88804,note_off,,,,,100,0,16,,,,,7,,,46,100
88832,note_off,,,,,128,0,13,,,,,6,,,66,100
88832,note_off,,,,,128,0,15,,,,,7,,,66,100
88864,note_off,,,,,64,0,8,,,,,1,,,76,100
88896,note_on,,,,,32,0,8,,,,,1,,,74,100
88896,note_on,,,,,284,0,9,,,,,2,,,78,100
88896,note_on,,,,,92,0,11,,,,,4,,,42,100
88896,note_on,,,,,92,0,10,,,,,3,,,58,100
88896,note_on,,,,,92,0,12,,,,,5,,,42,100
88896,note_on,,,,,92,0,14,,,,,6,,,42,100
88896,note_on,,,,,92,0,16,,,,,7,,,42,100
88960,note_off,,,,,128,0,13,,,,,6,,,73,100
88960,note_off,,,,,128,0,15,,,,,7,,,73,100
88976,note_off,,,,,80,0,9,,,,,2,,,78,100
88988,note_off,,,,,92,0,8,,,,,1,,,74,100
88992,note_on,,,,,4,0,8,,,,,1,,,73,99
88996,note_off,,,,,100,0,10,,,,,3,,,58,100
88996,note_off,,,,,100,0,12,,,,,5,,,42,100
88996,note_off,,,,,100,0,16,,,,,7,,,42,100
88996,note_off,,,,,100,0,14,,,,,6,,,42,100
88996,note_off,,,,,100,0,11,,,,,4,,,42,100
89056,note_off,,,,,64,0,8,,,,,1,,,73,100
89088,note_on,,,,,92,0,11,,,,,4,,,47,99
89088,note_on,,,,,128,0,13,,,,,6,,,71,100
89088,note_on,,,,,92,0,12,,,,,5,,,35,99
89088,note_on,,,,,112,0,9,,,,,2,,,71,99
89088,note_on,,,,,32,0,8,,,,,1,,,74,99
89088,note_on,,,,,0,0,13,,,,,6,,,62,100
89088,note_on,,,,,128,0,15,,,,,7,,,71,100
89088,note_on,,,,,92,0,10,,,,,3,,,54,99
89088,note_on,,,,,92,0,16,,,,,7,,,47,100
89088,note_on,,,,,92,0,14,,,,,6,,,47,100
89088,note_on,,,,,0,0,15,,,,,7,,,62,100
89152,note_off,,,,,64,0,8,,,,,1,,,74,100
89184,note_on,,,,,32,0,8,,,,,1,,,73,98
89188,note_off,,,,,100,0,10,,,,,3,,,54,100
89188,note_off,,,,,100,0,14,,,,,6,,,47,100
89188,note_off,,,,,100,0,12,,,,,5,,,35,100
89188,note_off,,,,,100,0,9,,,,,2,,,71,100
89188,note_off,,,,,100,0,16,,,,,7,,,47,100
89188,note_off,,,,,100,0,11,,,,,4,,,47,100
89248,note_off,,,,,64,0,8,,,,,1,,,73,100
89280,note_on,,,,,92,0,9,,,,,2,,,71,98
89280,note_on,,,,,92,0,12,,,,,5,,,47,98
89280,note_on,,,,,92,0,14,,,,,6,,,59,100
89280,note_on,,,,,32,0,8,,,,,1,,,71,98
89280,note_on,,,,,92,0,11,,,,,4,,,59,98
89280,note_on,,,,,92,0,16,,,,,7,,,59,100
89280,note_on,,,,,92,0,10,,,,,3,,,62,98
89344,note_off,,,,,0,0,13,,,,,6,,,62,100
89344,note_off,,,,,256,0,13,,,,,6,,,71,100
89344,note_off,,,,,0,0,15,,,,,7,,,62,100
89344,note_off,,,,,256,0,15,,,,,7,,,71,100
89380,note_off,,,,,100,0,12,,,,,5,,,47,100
89380,note_off,,,,,100,0,9,,,,,2,,,71,100
89380,note_off,,,,,100,0,14,,,,,6,,,59,100
89380,note_off,,,,,100,0,10,,,,,3,,,62,100
89380,note_off,,,,,100,0,11,,,,,4,,,59,100
89380,note_off,,,,,100,0,16,,,,,7,,,59,100
89408,note_off,,,,,128,0,8,,,,,1,,,71,100
89472,note_on,,,,,92,0,10,,,,,3,,,66,97
89472,note_on,,,,,92,0,9,,,,,2,,,71,97
89472,note_on,,,,,92,0,14,,,,,6,,,47,100
89472,note_on,,,,,92,0,16,,,,,7,,,47,100
89472,note_on,,,,,0,0,15,,,,,7,,,62,100
89472,note_on,,,,,128,0,15,,,,,7,,,66,100
89472,note_on,,,,,92,0,12,,,,,5,,,35,97
89472,note_on,,,,,92,0,11,,,,,4,,,47,97
89572,note_off,,,,,100,0,9,,,,,2,,,71,100
89664,note_on,,,,,92,0,9,,,,,2,,,71,96
89728,note_off,,,,,256,0,10,,,,,3,,,66,100
89728,note_off,,,,,256,0,16,,,,,7,,,47,100
89728,note_off,,,,,256,0,12,,,,,5,,,35,100
89728,note_off,,,,,256,0,15,,,,,7,,,66,100
89728,note_off,,,,,0,0,15,,,,,7,,,62,100
89728,note_off,,,,,256,0,11,,,,,4,,,47,100
89728,note_off,,,,,256,0,14,,,,,6,,,47,100
89764,note_off,,,,,100,0,9,,,,,2,,,71,100
89856,note_on,,,,,92,0,9,,,,,2,,,71,100
89856,note_on,,,,,448,0,8,,,,,1,,,78,100
89956,note_off,,,,,100,0,9,,,,,2,,,71,100
90048,note_on,,,,,320,0,16,,,,,7,,,59,100
90048,note_on,,,,,320,0,12,,,,,5,,,47,100
90048,note_on,,,,,92,0,9,,,,,2,,,74,100
90048,note_on,,,,,320,0,10,,,,,3,,,66,100
90048,note_on,,,,,320,0,11,,,,,4,,,59,100
90048,note_on,,,,,0,0,15,,,,,7,,,66,100
90048,note_on,,,,,320,0,14,,,,,6,,,59,100
90048,note_on,,,,,320,0,15,,,,,7,,,74,100
90048,note_on,,,,,704,0,13,,,,,6,,,66,100
90048,note_on,,,,,0,0,13,,,,,6,,,74,100
90112,note_off,,,,,64,0,9,,,,,2,,,74,100
90112,note_off,,,,,64,0,13,,,,,6,,,74,100
90144,note_on,,,,,32,0,9,,,,,2,,,73,100
90144,note_on,,,,,32,0,13,,,,,6,,,73,100
90148,note_off,,,,,100,0,10,,,,,3,,,66,100
90148,note_off,,,,,100,0,16,,,,,7,,,59,100
90148,note_off,,,,,100,0,11,,,,,4,,,59,100
90148,note_off,,,,,100,0,14,,,,,6,,,59,100
90148,note_off,,,,,100,0,12,,,,,5,,,47,100
90176,note_off,,,,,128,0,15,,,,,7,,,74,100
90176,note_off,,,,,32,0,13,,,,,6,,,66,100
90176,note_off,,,,,0,0,15,,,,,7,,,66,100
90208,note_off,,,,,32,0,13,,,,,6,,,73,100
90208,note_off,,,,,64,0,9,,,,,2,,,73,100
90240,note_on,,,,,92,0,11,,,,,4,,,47,100
90240,note_on,,,,,92,0,14,,,,,6,,,47,100
90240,note_on,,,,,32,0,9,,,,,2,,,71,100
90240,note_on,,,,,32,0,13,,,,,6,,,62,100
90240,note_on,,,,,64,0,15,,,,,7,,,66,100
90240,note_on,,,,,0,0,15,,,,,7,,,62,100
90240,note_on,,,,,92,0,16,,,,,7,,,47,100
90240,note_on,,,,,92,0,12,,,,,5,,,35,100
90240,note_on,,,,,92,0,10,,,,,3,,,62,100
90240,note_on,,,,,0,0,13,,,,,6,,,71,100
90240,note_off,,,,,384,0,8,,,,,1,,,78,100
90340,note_off,,,,,100,0,9,,,,,2,,,71,100
90432,note_on,,,,,92,0,9,,,,,2,,,71,100
90432,note_on,,,,,192,0,8,,,,,1,,,79,100
90496,note_off,,,,,256,0,10,,,,,3,,,62,100
90496,note_off,,,,,256,0,12,,,,,5,,,35,100
90496,note_off,,,,,0,0,13,,,,,6,,,71,100
90496,note_off,,,,,256,0,13,,,,,6,,,62,100
90496,note_off,,,,,256,0,14,,,,,6,,,47,100
90496,note_off,,,,,256,0,16,,,,,7,,,47,100
90496,note_off,,,,,256,0,11,,,,,4,,,47,100
90496,note_off,,,,,0,0,15,,,,,7,,,62,100
90496,note_off,,,,,256,0,15,,,,,7,,,66,100
90524,note_off,,,,,92,0,8,,,,,1,,,79,100
90528,note_on,,,,,4,0,8,,,,,1,,,76,100
90532,note_off,,,,,100,0,9,,,,,2,,,71,100
90592,note_off,,,,,64,0,8,,,,,1,,,76,100
90624,note_on,,,,,32,0,8,,,,,1,,,78,100
90624,note_on,,,,,92,0,9,,,,,2,,,71,100
90724,note_off,,,,,100,0,9,,,,,2,,,71,100
90816,note_on,,,,,0,0,13,,,,,6,,,74,100
90816,note_on,,,,,92,0,9,,,,,2,,,74,100
90816,note_on,,,,,320,0,16,,,,,7,,,59,100
90816,note_on,,,,,320,0,14,,,,,6,,,59,100
90816,note_on,,,,,320,0,11,,,,,4,,,59,100
90816,note_on,,,,,320,0,15,,,,,7,,,74,100
90816,note_on,,,,,320,0,10,,,,,3,,,66,100
90816,note_on,,,,,320,0,13,,,,,6,,,66,100
90816,note_on,,,,,0,0,15,,,,,7,,,66,100
90816,note_on,,,,,320,0,12,,,,,5,,,47,100
90880,note_off,,,,,64,0,9,,,,,2,,,74,100
90880,note_off,,,,,64,0,13,,,,,6,,,74,100
90912,note_on,,,,,32,0,9,,,,,2,,,73,100
90912,note_on,,,,,32,0,13,,,,,6,,,73,100
90916,note_off,,,,,100,0,12,,,,,5,,,47,100
90916,note_off,,,,,100,0,11,,,,,4,,,59,100
90916,note_off,,,,,100,0,10,,,,,3,,,66,100
90916,note_off,,,,,100,0,14,,,,,6,,,59,100
90916,note_off,,,,,100,0,16,,,,,7,,,59,100
90944,note_off,,,,,0,0,15,,,,,7,,,66,100
90944,note_off,,,,,128,0,15,,,,,7,,,74,100
90944,note_off,,,,,32,0,13,,,,,6,,,66,100
90976,note_off,,,,,32,0,13,,,,,6,,,73,100
90976,note_off,,,,,64,0,9,,,,,2,,,73,100
91008,note_on,,,,,64,0,15,,,,,7,,,66,100
91008,note_on,,,,,0,0,15,,,,,7,,,62,100
91008,note_on,,,,,92,0,10,,,,,3,,,62,100
91008,note_on,,,,,92,0,14,,,,,6,,,47,100
91008,note_on,,,,,32,0,9,,,,,2,,,71,100
91008,note_on,,,,,92,0,16,,,,,7,,,47,100
91008,note_on,,,,,92,0,12,,,,,5,,,35,100
91008,note_on,,,,,92,0,11,,,,,4,,,47,100
91008,note_on,,,,,32,0,13,,,,,6,,,62,100
91008,note_on,,,,,0,0,13,,,,,6,,,71,100
91008,note_off,,,,,384,0,8,,,,,1,,,78,100
91108,note_off,,,,,100,0,9,,,,,2,,,71,100
91200,note_on,,,,,192,0,8,,,,,1,,,79,100
91200,note_on,,,,,92,0,9,,,,,2,,,71,100
91264,note_off,,,,,0,0,15,,,,,7,,,62,100
91264,note_off,,,,,256,0,15,,,,,7,,,66,100
91264,note_off,,,,,256,0,11,,,,,4,,,47,100
91264,note_off,,,,,256,0,10,,,,,3,,,62,100
91264,note_off,,,,,256,0,12,,,,,5,,,35,100
91264,note_off,,,,,256,0,13,,,,,6,,,62,100
91264,note_off,,,,,0,0,13,,,,,6,,,71,100
91264,note_off,,,,,256,0,14,,,,,6,,,47,100
91264,note_off,,,,,256,0,16,,,,,7,,,47,100
91292,note_off,,,,,92,0,8,,,,,1,,,79,100
91296,note_on,,,,,4,0,8,,,,,1,,,76,100
91300,note_off,,,,,100,0,9,,,,,2,,,71,100
91360,note_off,,,,,64,0,8,,,,,1,,,76,100
91392,note_on,,,,,32,0,8,,,,,1,,,78,100
91392,note_on,,,,,128,0,13,,,,,6,,,66,100
91392,note_on,,,,,0,0,13,,,,,6,,,70,100
91392,note_on,,,,,92,0,9,,,,,2,,,73,100
91392,note_on,,,,,128,0,15,,,,,7,,,70,100
91392,note_on,,,,,128,0,11,,,,,4,,,42,100
91392,note_on,,,,,0,0,15,,,,,7,,,66,100
91392,note_on,,,,,128,0,16,,,,,7,,,42,100
91392,note_on,,,,,128,0,12,,,,,5,,,42,100
91392,note_on,,,,,128,0,14,,,,,6,,,42,100
91392,note_on,,,,,128,0,10,,,,,3,,,58,100
91492,note_off,,,,,100,0,11,,,,,4,,,42,100
91492,note_off,,,,,100,0,16,,,,,7,,,42,100
91492,note_off,,,,,100,0,12,,,,,5,,,42,100
91492,note_off,,,,,100,0,10,,,,,3,,,58,100
91492,note_off,,,,,100,0,8,,,,,1,,,78,100
91492,note_off,,,,,100,0,14,,,,,6,,,42,100
91520,note_off,,,,,128,0,9,,,,,2,,,73,100
91584,note_on,,,,,92,0,14,,,,,6,,,54,100
91584,note_on,,,,,92,0,10,,,,,3,,,73,99
91584,note_on,,,,,92,0,8,,,,,1,,,66,99
91584,note_on,,,,,92,0,12,,,,,5,,,42,99
91584,note_on,,,,,64,0,9,,,,,2,,,74,99
91584,note_on,,,,,92,0,11,,,,,4,,,54,99
91584,note_on,,,,,92,0,16,,,,,7,,,54,100
91648,note_off,,,,,256,0,13,,,,,6,,,70,100
91648,note_off,,,,,256,0,15,,,,,7,,,70,100
91676,note_off,,,,,92,0,9,,,,,2,,,74,100
91680,note_on,,,,,4,0,9,,,,,2,,,76,98
91684,note_off,,,,,100,0,12,,,,,5,,,42,100
91684,note_off,,,,,100,0,11,,,,,4,,,54,100
91684,note_off,,,,,100,0,8,,,,,1,,,66,100
91684,note_off,,,,,100,0,16,,,,,7,,,54,100
91684,note_off,,,,,100,0,10,,,,,3,,,73,100
91684,note_off,,,,,100,0,14,,,,,6,,,54,100
91744,note_off,,,,,64,0,9,,,,,2,,,76,100
91776,note_on,,,,,92,0,12,,,,,5,,,34,98
91776,note_on,,,,,92,0,11,,,,,4,,,46,98
91776,note_on,,,,,92,0,14,,,,,6,,,46,100
91776,note_on,,,,,92,0,10,,,,,3,,,73,98
91776,note_on,,,,,92,0,16,,,,,7,,,46,100
91776,note_on,,,,,128,0,13,,,,,6,,,73,100
91776,note_on,,,,,128,0,15,,,,,7,,,73,100
91776,note_on,,,,,32,0,9,,,,,2,,,78,98
91868,note_off,,,,,92,0,9,,,,,2,,,78,100
91872,note_on,,,,,4,0,9,,,,,2,,,76,97
91876,note_off,,,,,100,0,11,,,,,4,,,46,100
91876,note_off,,,,,100,0,16,,,,,7,,,46,100
91876,note_off,,,,,100,0,14,,,,,6,,,46,100
91876,note_off,,,,,100,0,10,,,,,3,,,73,100
91876,note_off,,,,,100,0,12,,,,,5,,,34,100
91904,note_off,,,,,128,0,13,,,,,6,,,66,100
91904,note_off,,,,,128,0,15,,,,,7,,,66,100
91936,note_off,,,,,64,0,9,,,,,2,,,76,100
91968,note_on,,,,,92,0,11,,,,,4,,,42,96
91968,note_on,,,,,92,0,16,,,,,7,,,42,100
91968,note_on,,,,,92,0,12,,,,,5,,,42,96
91968,note_on,,,,,92,0,14,,,,,6,,,42,100
91968,note_on,,,,,32,0,9,,,,,2,,,74,96
91968,note_on,,,,,92,0,10,,,,,3,,,70,96
92032,note_off,,,,,128,0,15,,,,,7,,,73,100
92032,note_off,,,,,128,0,13,,,,,6,,,73,100
92060,note_off,,,,,92,0,9,,,,,2,,,74,100
92064,note_on,,,,,4,0,9,,,,,2,,,73,95
92068,note_off,,,,,100,0,10,,,,,3,,,70,100
92068,note_off,,,,,100,0,12,,,,,5,,,42,100
92068,note_off,,,,,100,0,16,,,,,7,,,42,100
92068,note_off,,,,,100,0,11,,,,,4,,,42,100
92068,note_off,,,,,100,0,14,,,,,6,,,42,100
92128,note_off,,,,,64,0,9,,,,,2,,,73,100
92160,note_on,,,,,0,0,13,,,,,6,,,71,100
92160,note_on,,,,,0,0,13,,,,,6,,,66,100
92160,note_on,,,,,128,0,13,,,,,6,,,62,100
92160,note_on,,,,,92,0,12,,,,,5,,,35,95
92160,note_on,,,,,0,0,15,,,,,7,,,71,100
92160,note_on,,,,,92,0,14,,,,,6,,,47,100
92160,note_on,,,,,92,0,16,,,,,7,,,47,100
92160,note_on,,,,,92,0,10,,,,,3,,,66,95
92160,note_on,,,,,0,0,15,,,,,7,,,66,100
92160,note_on,,,,,128,0,15,,,,,7,,,62,100
92160,note_on,,,,,32,0,9,,,,,2,,,74,95
92160,note_on,,,,,92,0,11,,,,,4,,,47,95
92256,note_on,,,,,572,0,8,,,,,1,,,78,97
92260,note_off,,,,,100,0,11,,,,,4,,,47,100
92260,note_off,,,,,100,0,14,,,,,6,,,47,100
92260,note_off,,,,,100,0,9,,,,,2,,,74,100
92260,note_off,,,,,100,0,12,,,,,5,,,35,100
92260,note_off,,,,,100,0,16,,,,,7,,,47,100
92320,note_off,,,,,64,0,8,,,,,1,,,78,100
92352,note_on,,,,,92,0,11,,,,,4,,,59,98
92352,note_on,,,,,92,0,14,,,,,6,,,59,100
92352,note_on,,,,,92,0,9,,,,,2,,,71,98
92352,note_on,,,,,92,0,16,,,,,7,,,59,100
92352,note_on,,,,,32,0,8,,,,,1,,,79,98
92352,note_on,,,,,92,0,12,,,,,5,,,47,98
92416,note_off,,,,,256,0,10,,,,,3,,,66,100
92416,note_off,,,,,256,0,15,,,,,7,,,62,100
92416,note_off,,,,,0,0,13,,,,,6,,,66,100
92416,note_off,,,,,0,0,15,,,,,7,,,66,100
92416,note_off,,,,,64,0,8,,,,,1,,,79,100
92416,note_off,,,,,0,0,15,,,,,7,,,71,100
92416,note_off,,,,,0,0,13,,,,,6,,,71,100
92416,note_off,,,,,256,0,13,,,,,6,,,62,100
92448,note_on,,,,,32,0,8,,,,,1,,,81,99
92452,note_off,,,,,100,0,14,,,,,6,,,59,100
92452,note_off,,,,,100,0,16,,,,,7,,,59,100
92452,note_off,,,,,100,0,11,,,,,4,,,59,100
92452,note_off,,,,,100,0,9,,,,,2,,,71,100
92452,note_off,,,,,100,0,12,,,,,5,,,47,100
92512,note_off,,,,,64,0,8,,,,,1,,,81,100
92544,note_on,,,,,92,0,14,,,,,6,,,50,100
92544,note_on,,,,,32,0,8,,,,,1,,,83,100
92544,note_on,,,,,92,0,16,,,,,7,,,50,100
92544,note_on,,,,,92,0,11,,,,,4,,,50,100
92544,note_on,,,,,92,0,12,,,,,5,,,38,100
92544,note_on,,,,,0,0,15,,,,,7,,,66,100
92544,note_on,,,,,128,0,13,,,,,6,,,71,100
92544,note_on,,,,,0,0,13,,,,,6,,,66,100
92544,note_on,,,,,128,0,15,,,,,7,,,71,100
92644,note_off,,,,,100,0,8,,,,,1,,,83,100
92644,note_off,,,,,100,0,16,,,,,7,,,50,100
92644,note_off,,,,,100,0,14,,,,,6,,,50,100
92644,note_off,,,,,100,0,11,,,,,4,,,50,100
92644,note_off,,,,,100,0,12,,,,,5,,,38,100
92672,note_off,,,,,0,0,13,,,,,6,,,66,100
92672,note_off,,,,,128,0,13,,,,,6,,,71,100
92672,note_off,,,,,128,0,15,,,,,7,,,71,100
92672,note_off,,,,,0,0,15,,,,,7,,,66,100
92736,note_on,,,,,92,0,12,,,,,5,,,35,102
92736,note_on,,,,,92,0,11,,,,,4,,,47,102
92736,note_on,,,,,92,0,16,,,,,7,,,47,100
92736,note_on,,,,,320,0,10,,,,,3,,,62,102
92736,note_on,,,,,92,0,8,,,,,1,,,78,102
92736,note_on,,,,,0,0,15,,,,,7,,,66,100
92736,note_on,,,,,64,0,13,,,,,6,,,62,100
92736,note_on,,,,,284,0,9,,,,,2,,,74,102
92736,note_on,,,,,92,0,14,,,,,6,,,47,100
92736,note_on,,,,,0,0,13,,,,,6,,,66,100
92736,note_on,,,,,64,0,15,,,,,7,,,62,100
92836,note_off,,,,,100,0,10,,,,,3,,,62,100
92836,note_off,,,,,100,0,16,,,,,7,,,47,100
92836,note_off,,,,,100,0,9,,,,,2,,,74,100
92836,note_off,,,,,100,0,8,,,,,1,,,78,100
92836,note_off,,,,,100,0,12,,,,,5,,,35,100
92836,note_off,,,,,100,0,14,,,,,6,,,47,100
92836,note_off,,,,,100,0,11,,,,,4,,,47,100
92864,note_off,,,,,0,0,13,,,,,6,,,66,100
92864,note_off,,,,,0,0,15,,,,,7,,,66,100
92864,note_off,,,,,128,0,15,,,,,7,,,62,100
92864,note_off,,,,,128,0,13,,,,,6,,,62,100
92928,note_on,,,,,92,0,9,,,,,2,,,76,104
92928,note_on,,,,,0,0,13,,,,,6,,,67,100
92928,note_on,,,,,92,0,10,,,,,3,,,61,104
92928,note_on,,,,,92,0,11,,,,,4,,,46,104
92928,note_on,,,,,64,0,13,,,,,6,,,64,100
92928,note_on,,,,,92,0,14,,,,,6,,,46,100
92928,note_on,,,,,0,0,15,,,,,7,,,67,100
92928,note_on,,,,,64,0,15,,,,,7,,,64,100
92928,note_on,,,,,92,0,8,,,,,1,,,79,104
92928,note_on,,,,,92,0,16,,,,,7,,,46,100
92928,note_on,,,,,92,0,12,,,,,5,,,34,104
93056,note_off,,,,,128,0,11,,,,,4,,,46,100
93056,note_off,,,,,0,0,13,,,,,6,,,67,100
93056,note_off,,,,,128,0,13,,,,,6,,,64,100
93056,note_off,,,,,128,0,10,,,,,3,,,61,100
93056,note_off,,,,,128,0,15,,,,,7,,,64,100
93056,note_off,,,,,0,0,15,,,,,7,,,67,100
93056,note_off,,,,,128,0,16,,,,,7,,,46,100
93056,note_off,,,,,128,0,14,,,,,6,,,46,100
93056,note_off,,,,,128,0,9,,,,,2,,,76,100
93056,note_off,,,,,128,0,8,,,,,1,,,79,100
93056,note_off,,,,,128,0,12,,,,,5,,,34,100
93312,note_on,,,,,256,0,10,,,,,3,,,62,100
93312,note_on,,,,,256,0,8,,,,,1,,,78,100
93312,note_on,,,,,256,0,16,,,,,7,,,47,100
93312,note_on,,,,,256,0,9,,,,,2,,,74,100
93312,note_on,,,,,0,0,13,,,,,6,,,66,100
93312,note_on,,,,,256,0,14,,,,,6,,,47,100
93312,note_on,,,,,256,0,11,,,,,4,,,47,100
93312,note_on,,,,,256,0,15,,,,,7,,,62,100
93312,note_on,,,,,0,0,15,,,,,7,,,66,100
93312,note_on,,,,,256,0,12,,,,,5,,,35,100
93312,note_on,,,,,256,0,13,,,,,6,,,62,100
93440,note_off,,,,,128,0,12,,,,,5,,,35,100
93440,note_off,,,,,128,0,10,,,,,3,,,62,100
93440,note_off,,,,,128,0,14,,,,,6,,,47,100
93440,note_off,,,,,128,0,9,,,,,2,,,74,100
93440,note_off,,,,,0,0,15,,,,,7,,,66,100
93440,note_off,,,,,128,0,15,,,,,7,,,62,100
93440,note_off,,,,,128,0,11,,,,,4,,,47,100
93440,note_off,,,,,128,0,16,,,,,7,,,47,100
93440,note_off,,,,,128,0,13,,,,,6,,,62,100
93440,note_off,,,,,0,0,13,,,,,6,,,66,100
93440,note_off,,,,,128,0,8,,,,,1,,,78,100
93696,note_on,,,,,256,0,14,,,,,6,,,49,100
93696,note_on,,,,,256,0,9,,,,,2,,,73,99
93696,note_on,,,,,0,0,13,,,,,6,,,64,100
93696,note_on,,,,,256,0,11,,,,,4,,,49,99
93696,note_on,,,,,256,0,10,,,,,3,,,64,99
93696,note_on,,,,,256,0,13,,,,,6,,,61,100
93696,note_on,,,,,0,0,15,,,,,7,,,64,100
93696,note_on,,,,,256,0,15,,,,,7,,,61,100
93696,note_on,,,,,256,0,16,,,,,7,,,49,100
93696,note_on,,,,,256,0,8,,,,,1,,,76,99
93696,note_on,,,,,256,0,12,,,,,5,,,37,99
93824,note_off,,,,,128,0,12,,,,,5,,,37,100
93824,note_off,,,,,128,0,10,,,,,3,,,64,100
93824,note_off,,,,,0,0,15,,,,,7,,,64,100
93824,note_off,,,,,128,0,16,,,,,7,,,49,100
93824,note_off,,,,,128,0,8,,,,,1,,,76,100
93824,note_off,,,,,128,0,15,,,,,7,,,61,100
93824,note_off,,,,,128,0,9,,,,,2,,,73,100
93824,note_off,,,,,0,0,13,,,,,6,,,64,100
93824,note_off,,,,,128,0,14,,,,,6,,,49,100
93824,note_off,,,,,128,0,11,,,,,4,,,49,100
93824,note_off,,,,,128,0,13,,,,,6,,,61,100
94080,note_on,,,,,256,0,11,,,,,4,,,50,97
94080,note_on,,,,,256,0,16,,,,,7,,,50,100
94080,note_on,,,,,256,0,8,,,,,1,,,74,97
94080,note_on,,,,,256,0,14,,,,,6,,,50,100
94080,note_on,,,,,256,0,10,,,,,3,,,66,97
94080,note_on,,,,,256,0,9,,,,,2,,,71,97
94080,note_on,,,,,0,0,15,,,,,7,,,62,100
94080,note_on,,,,,256,0,15,,,,,7,,,59,100
94080,note_on,,,,,0,0,13,,,,,6,,,62,100
94080,note_on,,,,,256,0,13,,,,,6,,,59,100
94080,note_on,,,,,256,0,12,,,,,5,,,38,97
94208,note_off,,,,,128,0,10,,,,,3,,,66,100
94208,note_off,,,,,0,0,15,,,,,7,,,62,100
94208,note_off,,,,,128,0,15,,,,,7,,,59,100
94208,note_off,,,,,128,0,11,,,,,4,,,50,100
94208,note_off,,,,,128,0,16,,,,,7,,,50,100
94208,note_off,,,,,128,0,12,,,,,5,,,38,100
94208,note_off,,,,,128,0,13,,,,,6,,,59,100
94208,note_off,,,,,0,0,13,,,,,6,,,62,100
94208,note_off,,,,,128,0,8,,,,,1,,,74,100
94208,note_off,,,,,128,0,9,,,,,2,,,71,100
94208,note_off,,,,,128,0,14,,,,,6,,,50,100
94464,note_on,,,,,256,0,10,,,,,3,,,61,70
94464,note_on,,,,,256,0,11,,,,,4,,,46,70
94464,note_on,,,,,256,0,8,,,,,1,,,79,70
94464,note_on,,,,,256,0,14,,,,,6,,,46,100
94464,note_on,,,,,256,0,9,,,,,2,,,76,70
94464,note_on,,,,,256,0,13,,,,,6,,,64,100
94464,note_on,,,,,0,0,13,,,,,6,,,67,100
94592,note_off,,,,,128,0,10,,,,,3,,,61,100
94592,note_off,,,,,0,0,13,,,,,6,,,67,100
94592,note_off,,,,,128,0,14,,,,,6,,,46,100
94592,note_off,,,,,128,0,8,,,,,1,,,79,100
94592,note_off,,,,,128,0,11,,,,,4,,,46,100
94592,note_off,,,,,128,0,13,,,,,6,,,64,100
94592,note_off,,,,,128,0,9,,,,,2,,,76,100
94848,note_on,,,,,256,0,8,,,,,1,,,78,70
94848,note_on,,,,,256,0,11,,,,,4,,,47,70
94848,note_on,,,,,256,0,9,,,,,2,,,74,70
94848,note_on,,,,,256,0,14,,,,,6,,,47,100
94848,note_on,,,,,256,0,13,,,,,6,,,62,100
94848,note_on,,,,,0,0,13,,,,,6,,,66,100
94848,note_on,,,,,256,0,10,,,,,3,,,62,70
94976,note_off,,,,,128,0,14,,,,,6,,,47,100
94976,note_off,,,,,128,0,10,,,,,3,,,62,100
94976,note_off,,,,,128,0,11,,,,,4,,,47,100
94976,note_off,,,,,128,0,13,,,,,6,,,62,100
94976,note_off,,,,,0,0,13,,,,,6,,,66,100
94976,note_off,,,,,128,0,8,,,,,1,,,78,100
94976,note_off,,,,,128,0,9,,,,,2,,,74,100
95232,note_on,,,,,256,0,11,,,,,4,,,49,70
95232,note_on,,,,,256,0,13,,,,,6,,,61,100
95232,note_on,,,,,0,0,13,,,,,6,,,64,100
95232,note_on,,,,,256,0,8,,,,,1,,,76,70
95232,note_on,,,,,256,0,9,,,,,2,,,73,70
95232,note_on,,,,,256,0,14,,,,,6,,,49,100
95232,note_on,,,,,256,0,10,,,,,3,,,64,70
95360,note_off,,,,,0,0,13,,,,,6,,,64,100
95360,note_off,,,,,128,0,9,,,,,2,,,73,100
95360,note_off,,,,,128,0,8,,,,,1,,,76,100
95360,note_off,,,,,128,0,14,,,,,6,,,49,100
95360,note_off,,,,,128,0,13,,,,,6,,,61,100
95360,note_off,,,,,128,0,11,,,,,4,,,49,100
95360,note_off,,,,,128,0,10,,,,,3,,,64,100
95616,note_on,,,,,256,0,9,,,,,2,,,71,70
95616,note_on,,,,,256,0,14,,,,,6,,,50,100
95616,note_on,,,,,256,0,11,,,,,4,,,50,70
95616,note_on,,,,,0,0,13,,,,,6,,,62,100
95616,note_on,,,,,256,0,8,,,,,1,,,74,70
95616,note_on,,,,,256,0,13,,,,,6,,,59,100
95616,note_on,,,,,256,0,10,,,,,3,,,66,70
95744,note_off,,,,,128,0,10,,,,,3,,,66,100
95744,note_off,,,,,128,0,11,,,,,4,,,50,100
95744,note_off,,,,,0,0,13,,,,,6,,,62,100
95744,note_off,,,,,128,0,13,,,,,6,,,59,100
95744,note_off,,,,,128,0,14,,,,,6,,,50,100
95744,note_off,,,,,128,0,9,,,,,2,,,71,100
95744,note_off,,,,,128,0,8,,,,,1,,,74,100
96000,note_on,,,,,256,0,14,,,,,6,,,46,100
96000,note_on,,,,,1792,0,15,,,,,7,,,76,100
96000,note_on,,,,,0,0,13,,,,,6,,,67,100
96000,note_on,,,,,256,0,13,,,,,6,,,76,100
96000,note_on,,,,,256,0,10,,,,,3,,,61,100
96000,note_on,,,,,0,0,15,,,,,7,,,67,100
96000,note_on,,,,,256,0,8,,,,,1,,,79,100
96000,note_on,,,,,1792,0,12,,,,,5,,,34,100
96000,note_on,,,,,1792,0,16,,,,,7,,,46,100
96000,note_on,,,,,256,0,9,,,,,2,,,76,100
96000,note_on,,,,,256,0,11,,,,,4,,,46,100
96128,note_off,,,,,128,0,9,,,,,2,,,76,100
96128,note_off,,,,,128,0,13,,,,,6,,,76,100
96128,note_off,,,,,128,0,10,,,,,3,,,61,100
96128,note_off,,,,,0,0,13,,,,,6,,,67,100
96128,note_off,,,,,0,0,15,,,,,7,,,67,100
96128,note_off,,,,,128,0,15,,,,,7,,,76,100
96128,note_off,,,,,128,0,14,,,,,6,,,46,100
96128,note_off,,,,,128,0,8,,,,,1,,,79,100
96128,note_off,,,,,128,0,12,,,,,5,,,34,100
96128,note_off,,,,,128,0,16,,,,,7,,,46,100
96128,note_off,,,,,128,0,11,,,,,4,,,46,100
96384,note_on,,,,,256,0,11,,,,,4,,,47,100
96384,note_on,,,,,256,0,16,,,,,7,,,47,100
96384,note_on,,,,,0,0,13,,,,,6,,,66,100
96384,note_on,,,,,256,0,12,,,,,5,,,35,100
96384,note_on,,,,,256,0,14,,,,,6,,,47,100
96384,note_on,,,,,256,0,10,,,,,3,,,62,100
96384,note_on,,,,,256,0,15,,,,,7,,,74,100
96384,note_on,,,,,0,0,15,,,,,7,,,66,100
96384,note_on,,,,,256,0,9,,,,,2,,,74,100
96384,note_on,,,,,256,0,8,,,,,1,,,78,100
96384,note_on,,,,,256,0,13,,,,,6,,,74,100
96512,note_off,,,,,128,0,11,,,,,4,,,47,100
96512,note_off,,,,,128,0,15,,,,,7,,,74,100
96512,note_off,,,,,128,0,9,,,,,2,,,74,100
96512,note_off,,,,,128,0,14,,,,,6,,,47,100
96512,note_off,,,,,0,0,15,,,,,7,,,66,100
96512,note_off,,,,,128,0,16,,,,,7,,,47,100
96512,note_off,,,,,128,0,8,,,,,1,,,78,100
96512,note_off,,,,,0,0,13,,,,,6,,,66,100
96512,note_off,,,,,128,0,13,,,,,6,,,74,100
96512,note_off,,,,,128,0,10,,,,,3,,,62,100
96512,note_off,,,,,128,0,12,,,,,5,,,35,100
96768,note_on,,,,,256,0,15,,,,,7,,,70,100
96768,note_on,,,,,256,0,10,,,,,3,,,64,100
96768,note_on,,,,,256,0,13,,,,,6,,,70,100
96768,note_on,,,,,256,0,14,,,,,6,,,49,100
96768,note_on,,,,,0,0,15,,,,,7,,,73,100
96768,note_on,,,,,256,0,11,,,,,4,,,49,100
96768,note_on,,,,,256,0,12,,,,,5,,,37,100
96768,note_on,,,,,0,0,13,,,,,6,,,73,100
96768,note_on,,,,,256,0,16,,,,,7,,,49,100
96768,note_on,,,,,256,0,9,,,,,2,,,76,100
96768,note_on,,,,,256,0,8,,,,,1,,,82,100
96896,note_off,,,,,128,0,12,,,,,5,,,37,100
96896,note_off,,,,,128,0,11,,,,,4,,,49,100
96896,note_off,,,,,128,0,13,,,,,6,,,70,100
96896,note_off,,,,,128,0,9,,,,,2,,,76,100
96896,note_off,,,,,128,0,10,,,,,3,,,64,100
96896,note_off,,,,,128,0,15,,,,,7,,,70,100
96896,note_off,,,,,0,0,13,,,,,6,,,73,100
96896,note_off,,,,,128,0,14,,,,,6,,,49,100
96896,note_off,,,,,128,0,16,,,,,7,,,49,100
96896,note_off,,,,,0,0,15,,,,,7,,,73,100
96932,note_off,,,,,164,0,8,,,,,1,,,82,100
97152,note_on,,,,,256,0,9,,,,,2,,,74,100
97152,note_on,,,,,0,0,15,,,,,7,,,71,100
97152,note_on,,,,,220,0,8,,,,,1,,,83,100
97152,note_on,,,,,256,0,12,,,,,5,,,38,100
97152,note_on,,,,,256,0,14,,,,,6,,,50,100
97152,note_on,,,,,256,0,11,,,,,4,,,50,100
97152,note_on,,,,,256,0,15,,,,,7,,,66,100
97152,set_tempo,,,,,11136,1,0,,576923,,,,,,,
97152,note_on,,,,,0,0,13,,,,,6,,,71,100
97152,note_on,,,,,256,0,10,,,,,3,,,66,100
97152,note_on,,,,,256,0,13,,,,,6,,,66,100
97152,note_on,,,,,256,0,16,,,,,7,,,50,100
97280,note_off,,,,,128,0,12,,,,,5,,,38,100
97280,note_off,,,,,128,0,16,,,,,7,,,50,100
97280,note_off,,,,,128,0,10,,,,,3,,,66,100
97280,note_off,,,,,128,0,13,,,,,6,,,66,100
97280,note_off,,,,,0,0,15,,,,,7,,,71,100
97280,note_off,,,,,128,0,15,,,,,7,,,66,100
97280,note_off,,,,,0,0,13,,,,,6,,,71,100
97280,note_off,,,,,128,0,9,,,,,2,,,74,100
97280,note_off,,,,,128,0,14,,,,,6,,,50,100
97280,note_off,,,,,128,0,11,,,,,4,,,50,100
97536,note_on,,,,,256,0,12,,,,,5,,,40,100
97536,note_on,,,,,256,0,14,,,,,6,,,52,100
97536,note_on,,,,,256,0,11,,,,,4,,,52,100
97536,note_on,,,,,0,0,13,,,,,6,,,71,100
97536,note_on,,,,,256,0,13,,,,,6,,,67,100
97536,note_on,,,,,256,0,10,,,,,3,,,67,100
97536,note_on,,,,,0,0,15,,,,,7,,,71,100
97536,note_on,,,,,256,0,15,,,,,7,,,67,100
97536,note_on,,,,,256,0,16,,,,,7,,,52,100
97536,note_on,,,,,256,0,9,,,,,2,,,73,100
97664,note_off,,,,,128,0,12,,,,,5,,,40,100
97664,note_off,,,,,128,0,14,,,,,6,,,52,100
97664,note_off,,,,,128,0,13,,,,,6,,,67,100
97664,note_off,,,,,128,0,10,,,,,3,,,67,100
97664,note_off,,,,,0,0,15,,,,,7,,,71,100
97664,note_off,,,,,128,0,15,,,,,7,,,67,100
97664,note_off,,,,,0,0,13,,,,,6,,,71,100
97664,note_off,,,,,128,0,16,,,,,7,,,52,100
97664,note_off,,,,,128,0,11,,,,,4,,,52,100
97664,note_off,,,,,128,0,9,,,,,2,,,73,100
97728,set_tempo,,,,,576,1,0,,582524,,,,,,,
97840,note_off,,,,,688,0,8,,,,,1,,,83,100
97920,note_on,,,,,256,0,11,,,,,4,,,54,99
97920,note_on,,,,,256,0,12,,,,,5,,,42,99
97920,note_on,,,,,256,0,10,,,,,3,,,66,99
97920,note_on,,,,,80,0,8,,,,,1,,,82,99
97920,note_on,,,,,256,0,16,,,,,7,,,54,100
97920,note_on,,,,,256,0,13,,,,,6,,,61,100
97920,note_on,,,,,0,0,13,,,,,6,,,70,100
97920,note_on,,,,,0,0,15,,,,,7,,,70,100
97920,note_on,,,,,256,0,14,,,,,6,,,54,100
97920,note_on,,,,,256,0,15,,,,,7,,,61,100
97920,note_on,,,,,256,0,9,,,,,2,,,73,99
98048,note_off,,,,,128,0,15,,,,,7,,,61,100
98048,note_off,,,,,128,0,10,,,,,3,,,66,100
98048,note_off,,,,,128,0,9,,,,,2,,,73,100
98048,note_off,,,,,128,0,16,,,,,7,,,54,100
98048,note_off,,,,,128,0,14,,,,,6,,,54,100
98048,note_off,,,,,128,0,11,,,,,4,,,54,100
98048,note_off,,,,,0,0,15,,,,,7,,,70,100
98048,note_off,,,,,128,0,12,,,,,5,,,42,100
98048,note_off,,,,,128,0,13,,,,,6,,,61,100
98048,note_off,,,,,0,0,13,,,,,6,,,70,100
98176,note_off,,,,,256,0,8,,,,,1,,,82,100
98304,note_on,,,,,12116,0,7,,,,,0,,,83,95
98304,note_on,,,,,0,0,15,,,,,7,,,62,100
98304,set_tempo,,,,,576,1,0,,588235,,,,,,,
98304,note_on,,,,,128,0,8,,,,,1,,,83,98
98304,note_on,,,,,256,0,9,,,,,2,,,74,98
98304,note_on,,,,,256,0,12,,,,,5,,,35,98
98304,note_on,,,,,256,0,13,,,,,6,,,62,100
98304,note_on,,,,,0,0,15,,,,,7,,,71,100
98304,note_on,,,,,256,0,15,,,,,7,,,66,100
98304,note_on,,,,,256,0,10,,,,,3,,,66,98
98304,note_on,,,,,256,0,11,,,,,4,,,47,98
98304,note_on,,,,,256,0,14,,,,,6,,,47,100
98304,note_on,,,,,256,0,16,,,,,7,,,47,100
98332,note_on,,,,,28,0,13,,,,,6,,,66,100
98364,note_on,,,,,32,0,13,,,,,6,,,71,100
98396,note_off,,,,,92,0,7,,,,,0,,,83,100
98400,note_on,,,,,4,0,7,,,,,0,,,74,92
98400,set_tempo,,,,,96,1,0,,576923,,,,,,,
98432,note_off,,,,,128,0,11,,,,,4,,,47,100
98432,note_off,,,,,128,0,14,,,,,6,,,47,100
98492,note_off,,,,,92,0,7,,,,,0,,,74,100
98496,note_on,,,,,4,0,7,,,,,0,,,66,89
98496,note_on,,,,,64,0,11,,,,,4,,,47,60
98496,note_on,,,,,64,0,14,,,,,6,,,47,100
98560,note_off,,,,,0,0,15,,,,,7,,,71,100
98560,note_off,,,,,256,0,15,,,,,7,,,66,100
98560,note_off,,,,,256,0,8,,,,,1,,,83,100
98560,note_off,,,,,256,0,16,,,,,7,,,47,100
98560,note_off,,,,,256,0,9,,,,,2,,,74,100
98560,note_off,,,,,64,0,7,,,,,0,,,66,100
98560,note_off,,,,,256,0,10,,,,,3,,,66,100
98560,note_off,,,,,0,0,15,,,,,7,,,62,100
98560,note_off,,,,,256,0,12,,,,,5,,,35,100
98592,note_on,,,,,32,0,7,,,,,0,,,66,89
98624,note_off,,,,,128,0,11,,,,,4,,,47,100
98624,note_off,,,,,128,0,14,,,,,6,,,47,100
98656,note_off,,,,,64,0,7,,,,,0,,,66,100
98688,note_on,,,,,32,0,7,,,,,0,,,66,89
98688,note_on,,,,,64,0,14,,,,,6,,,47,100
98688,note_on,,,,,64,0,11,,,,,4,,,47,60
98780,note_off,,,,,92,0,7,,,,,0,,,66,100
98784,note_on,,,,,4,0,7,,,,,0,,,74,92
98816,note_off,,,,,128,0,11,,,,,4,,,47,100
98816,note_off,,,,,128,0,14,,,,,6,,,47,100
98876,note_off,,,,,92,0,7,,,,,0,,,74,100
98880,note_on,,,,,64,0,14,,,,,6,,,47,100
98880,note_on,,,,,4,0,7,,,,,0,,,83,95
98880,note_on,,,,,64,0,11,,,,,4,,,47,60
98944,note_off,,,,,64,0,7,,,,,0,,,83,100
98976,note_on,,,,,32,0,7,,,,,0,,,83,95
99008,note_off,,,,,128,0,14,,,,,6,,,47,100
99008,note_off,,,,,128,0,11,,,,,4,,,47,100
99040,note_off,,,,,64,0,7,,,,,0,,,83,100
99068,note_off,,,,,0,0,13,,,,,6,,,71,100
99068,note_off,,,,,704,0,13,,,,,6,,,66,100
99072,note_on,,,,,64,0,11,,,,,4,,,47,60
99072,note_on,,,,,32,0,7,,,,,0,,,83,95
99072,note_off,,,,,4,0,13,,,,,6,,,62,100
99072,note_on,,,,,64,0,14,,,,,6,,,47,100
99164,note_off,,,,,92,0,7,,,,,0,,,83,100
99168,note_on,,,,,4,0,7,,,,,0,,,74,92
99260,note_off,,,,,92,0,7,,,,,0,,,74,100
99264,note_on,,,,,4,0,7,,,,,0,,,66,89
99328,note_off,,,,,256,0,11,,,,,4,,,47,100
99328,note_off,,,,,256,0,14,,,,,6,,,47,100
99328,note_off,,,,,64,0,7,,,,,0,,,66,100
99360,note_on,,,,,32,0,7,,,,,0,,,66,89
99424,note_off,,,,,64,0,7,,,,,0,,,66,100
99456,note_on,,,,,32,0,7,,,,,0,,,66,89
99548,note_off,,,,,92,0,7,,,,,0,,,66,100
99552,note_on,,,,,4,0,7,,,,,0,,,74,92
99644,note_off,,,,,92,0,7,,,,,0,,,74,100
99648,note_on,,,,,4,0,7,,,,,0,,,83,95
99648,note_on,,,,,320,0,11,,,,,4,,,62,60
99648,note_on,,,,,320,0,14,,,,,6,,,62,100
99712,note_off,,,,,64,0,7,,,,,0,,,83,100
99744,note_on,,,,,32,0,7,,,,,0,,,83,95
99776,note_off,,,,,128,0,14,,,,,6,,,62,100
99776,note_off,,,,,128,0,11,,,,,4,,,62,100
99808,note_off,,,,,64,0,7,,,,,0,,,83,100
99840,note_on,,,,,64,0,14,,,,,6,,,53,100
99840,note_on,,,,,768,0,13,,,,,6,,,68,100
99840,note_on,,,,,32,0,7,,,,,0,,,83,95
99840,note_on,,,,,64,0,11,,,,,4,,,53,60
99868,note_on,,,,,28,0,13,,,,,6,,,71,100
99900,note_on,,,,,32,0,13,,,,,6,,,74,100
99932,note_off,,,,,92,0,7,,,,,0,,,83,100
99936,note_on,,,,,4,0,7,,,,,0,,,74,92
99968,note_off,,,,,128,0,11,,,,,4,,,53,100
99968,note_off,,,,,128,0,14,,,,,6,,,53,100
100028,note_off,,,,,92,0,7,,,,,0,,,74,100
100032,note_on,,,,,64,0,14,,,,,6,,,53,100
100032,note_on,,,,,4,0,7,,,,,0,,,65,89
100032,note_on,,,,,64,0,11,,,,,4,,,53,60
100096,note_off,,,,,64,0,7,,,,,0,,,65,100
100128,note_on,,,,,32,0,7,,,,,0,,,65,89
100160,note_off,,,,,128,0,14,,,,,6,,,53,100
100160,note_off,,,,,128,0,11,,,,,4,,,53,100
100192,note_off,,,,,64,0,7,,,,,0,,,65,100
100224,note_on,,,,,64,0,11,,,,,4,,,53,60
100224,note_on,,,,,32,0,7,,,,,0,,,65,89
100224,note_on,,,,,64,0,14,,,,,6,,,53,100
100316,note_off,,,,,92,0,7,,,,,0,,,65,100
100320,note_on,,,,,4,0,7,,,,,0,,,74,92
100352,note_off,,,,,128,0,11,,,,,4,,,53,100
100352,note_off,,,,,128,0,14,,,,,6,,,53,100
100412,note_off,,,,,92,0,7,,,,,0,,,74,100
100416,note_on,,,,,64,0,11,,,,,4,,,53,60
100416,note_on,,,,,4,0,7,,,,,0,,,83,95
100416,note_on,,,,,64,0,14,,,,,6,,,53,100
100480,note_off,,,,,64,0,7,,,,,0,,,83,100
100512,note_on,,,,,32,0,7,,,,,0,,,83,95
100544,note_off,,,,,128,0,14,,,,,6,,,53,100
100544,note_off,,,,,128,0,11,,,,,4,,,53,100
100576,note_off,,,,,64,0,7,,,,,0,,,83,100
100604,note_off,,,,,0,0,13,,,,,6,,,74,100
100604,note_off,,,,,704,0,13,,,,,6,,,71,100
100608,note_on,,,,,64,0,14,,,,,6,,,53,100
100608,note_off,,,,,4,0,13,,,,,6,,,68,100
100608,note_on,,,,,64,0,11,,,,,4,,,53,60
100608,note_on,,,,,32,0,7,,,,,0,,,83,95
100700,note_off,,,,,92,0,7,,,,,0,,,83,100
100704,note_on,,,,,4,0,7,,,,,0,,,74,92
100796,note_off,,,,,92,0,7,,,,,0,,,74,100
100800,note_on,,,,,4,0,7,,,,,0,,,65,89
100864,note_off,,,,,256,0,11,,,,,4,,,53,100
100864,note_off,,,,,64,0,7,,,,,0,,,65,100
100864,note_off,,,,,256,0,14,,,,,6,,,53,100
100896,note_on,,,,,32,0,7,,,,,0,,,65,89
100960,note_off,,,,,64,0,7,,,,,0,,,65,100
100992,note_on,,,,,32,0,7,,,,,0,,,65,89
101084,note_off,,,,,92,0,7,,,,,0,,,65,100
101088,note_on,,,,,4,0,7,,,,,0,,,74,92
101180,note_off,,,,,92,0,7,,,,,0,,,74,100
101184,note_on,,,,,320,0,14,,,,,6,,,62,100
101184,note_on,,,,,4,0,7,,,,,0,,,83,95
101184,note_on,,,,,320,0,11,,,,,4,,,62,60
101248,note_off,,,,,64,0,7,,,,,0,,,83,100
101280,note_on,,,,,32,0,7,,,,,0,,,83,95
101312,note_off,,,,,128,0,11,,,,,4,,,62,100
101312,note_off,,,,,128,0,14,,,,,6,,,62,100
101344,note_off,,,,,64,0,7,,,,,0,,,83,100
101376,note_on,,,,,32,0,7,,,,,0,,,83,95
101376,note_on,,,,,768,0,13,,,,,6,,,65,100
101376,note_on,,,,,64,0,14,,,,,6,,,53,100
101376,note_on,,,,,64,0,11,,,,,4,,,53,60
101404,note_on,,,,,28,0,13,,,,,6,,,71,100
101436,note_on,,,,,32,0,13,,,,,6,,,73,100
101468,note_off,,,,,92,0,7,,,,,0,,,83,100
101472,note_on,,,,,4,0,7,,,,,0,,,73,92
101504,note_off,,,,,128,0,14,,,,,6,,,53,100
101504,note_off,,,,,128,0,11,,,,,4,,,53,100
101564,note_off,,,,,92,0,7,,,,,0,,,73,100
101568,note_on,,,,,64,0,14,,,,,6,,,53,100
101568,note_on,,,,,4,0,7,,,,,0,,,65,89
101568,note_on,,,,,64,0,11,,,,,4,,,53,60
101632,note_off,,,,,64,0,7,,,,,0,,,65,100
101664,note_on,,,,,32,0,7,,,,,0,,,65,89
101696,note_off,,,,,128,0,11,,,,,4,,,53,100
101696,note_off,,,,,128,0,14,,,,,6,,,53,100
101728,note_off,,,,,64,0,7,,,,,0,,,65,100
101760,note_on,,,,,32,0,7,,,,,0,,,65,89
101760,note_on,,,,,64,0,11,,,,,4,,,53,60
101760,note_on,,,,,64,0,14,,,,,6,,,53,100
101852,note_off,,,,,92,0,7,,,,,0,,,65,100
101856,note_on,,,,,4,0,7,,,,,0,,,73,91
101888,note_off,,,,,128,0,11,,,,,4,,,53,100
101888,note_off,,,,,128,0,14,,,,,6,,,53,100
101948,note_off,,,,,92,0,7,,,,,0,,,73,100
101952,note_on,,,,,64,0,11,,,,,4,,,53,60
101952,note_on,,,,,4,0,7,,,,,0,,,83,94
101952,note_on,,,,,64,0,14,,,,,6,,,53,100
102016,note_off,,,,,64,0,7,,,,,0,,,83,100
102048,note_on,,,,,32,0,7,,,,,0,,,83,94
102080,note_off,,,,,128,0,11,,,,,4,,,53,100
102080,note_off,,,,,128,0,14,,,,,6,,,53,100
102112,note_off,,,,,64,0,7,,,,,0,,,83,100
102140,note_off,,,,,704,0,13,,,,,6,,,71,100
102140,note_off,,,,,0,0,13,,,,,6,,,73,100
102144,note_off,,,,,4,0,13,,,,,6,,,65,100
102144,note_on,,,,,64,0,11,,,,,4,,,53,60
102144,note_on,,,,,64,0,14,,,,,6,,,53,100
102144,note_on,,,,,32,0,7,,,,,0,,,83,94
102236,note_off,,,,,92,0,7,,,,,0,,,83,100
102240,note_on,,,,,4,0,7,,,,,0,,,73,90
102332,note_off,,,,,92,0,7,,,,,0,,,73,100
102336,note_on,,,,,4,0,7,,,,,0,,,65,87
102400,note_off,,,,,256,0,14,,,,,6,,,53,100
102400,note_off,,,,,64,0,7,,,,,0,,,65,100
102400,note_off,,,,,256,0,11,,,,,4,,,53,100
102432,note_on,,,,,32,0,7,,,,,0,,,65,87
102496,note_off,,,,,64,0,7,,,,,0,,,65,100
102528,note_on,,,,,32,0,7,,,,,0,,,65,87
102620,note_off,,,,,92,0,7,,,,,0,,,65,100
102624,note_on,,,,,4,0,7,,,,,0,,,73,89
102716,note_off,,,,,92,0,7,,,,,0,,,73,100
102720,note_on,,,,,320,0,14,,,,,6,,,61,100
102720,note_on,,,,,4,0,7,,,,,0,,,83,92
102720,note_on,,,,,320,0,11,,,,,4,,,61,60
102784,note_off,,,,,64,0,7,,,,,0,,,83,100
102816,note_on,,,,,32,0,7,,,,,0,,,83,92
102848,note_off,,,,,128,0,14,,,,,6,,,61,100
102848,note_off,,,,,128,0,11,,,,,4,,,61,100
102880,note_off,,,,,64,0,7,,,,,0,,,83,100
102912,note_on,,,,,32,0,7,,,,,0,,,81,92
102912,note_on,,,,,768,0,13,,,,,6,,,66,100
102912,note_on,,,,,64,0,11,,,,,4,,,54,60
102912,note_on,,,,,64,0,14,,,,,6,,,54,100
102940,note_on,,,,,28,0,13,,,,,6,,,69,100
102972,note_on,,,,,32,0,13,,,,,6,,,73,100
103004,note_off,,,,,92,0,7,,,,,0,,,81,100
103008,note_on,,,,,4,0,7,,,,,0,,,73,88
103040,note_off,,,,,128,0,14,,,,,6,,,54,100
103040,note_off,,,,,128,0,11,,,,,4,,,54,100
103100,note_off,,,,,92,0,7,,,,,0,,,73,100
103104,note_on,,,,,64,0,11,,,,,4,,,54,60
103104,note_on,,,,,64,0,14,,,,,6,,,54,100
103104,note_on,,,,,4,0,7,,,,,0,,,66,85
103168,note_off,,,,,64,0,7,,,,,0,,,66,100
103200,note_on,,,,,32,0,7,,,,,0,,,66,85
103232,note_off,,,,,128,0,14,,,,,6,,,54,100
103232,note_off,,,,,128,0,11,,,,,4,,,54,100
103264,note_off,,,,,64,0,7,,,,,0,,,66,100
103296,note_on,,,,,64,0,11,,,,,4,,,54,60
103296,note_on,,,,,32,0,7,,,,,0,,,66,85
103296,note_on,,,,,64,0,14,,,,,6,,,54,100
103388,note_off,,,,,92,0,7,,,,,0,,,66,100
103392,note_on,,,,,4,0,7,,,,,0,,,73,87
103424,note_off,,,,,128,0,14,,,,,6,,,54,100
103424,note_off,,,,,128,0,11,,,,,4,,,54,100
103484,note_off,,,,,92,0,7,,,,,0,,,73,100
103488,note_on,,,,,64,0,14,,,,,6,,,54,100
103488,note_on,,,,,64,0,11,,,,,4,,,54,60
103488,note_on,,,,,4,0,7,,,,,0,,,81,90
103552,note_off,,,,,64,0,7,,,,,0,,,81,100
103584,note_on,,,,,32,0,7,,,,,0,,,81,90
103616,note_off,,,,,128,0,14,,,,,6,,,54,100
103616,note_off,,,,,128,0,11,,,,,4,,,54,100
103648,note_off,,,,,64,0,7,,,,,0,,,81,100
103676,note_off,,,,,704,0,13,,,,,6,,,69,100
103676,note_off,,,,,0,0,13,,,,,6,,,73,100
103680,note_on,,,,,32,0,7,,,,,0,,,81,90
103680,note_on,,,,,64,0,11,,,,,4,,,54,60
103680,note_on,,,,,64,0,14,,,,,6,,,54,100
103680,note_off,,,,,4,0,13,,,,,6,,,66,100
103772,note_off,,,,,92,0,7,,,,,0,,,81,100
103776,note_on,,,,,4,0,7,,,,,0,,,73,86
103868,note_off,,,,,92,0,7,,,,,0,,,73,100
103872,note_on,,,,,4,0,7,,,,,0,,,66,83
103936,note_off,,,,,256,0,14,,,,,6,,,54,100
103936,note_off,,,,,256,0,11,,,,,4,,,54,100
103936,note_off,,,,,64,0,7,,,,,0,,,66,100
103968,note_on,,,,,32,0,7,,,,,0,,,66,83
104032,note_off,,,,,64,0,7,,,,,0,,,66,100
104064,note_on,,,,,32,0,7,,,,,0,,,66,83
104156,note_off,,,,,92,0,7,,,,,0,,,66,100
104160,note_on,,,,,4,0,7,,,,,0,,,73,85
104252,note_off,,,,,92,0,7,,,,,0,,,73,100
104256,note_on,,,,,320,0,11,,,,,4,,,57,60
104256,note_on,,,,,4,0,7,,,,,0,,,81,88
104256,note_on,,,,,320,0,14,,,,,6,,,57,100
104320,note_off,,,,,64,0,7,,,,,0,,,81,100
104352,note_on,,,,,32,0,7,,,,,0,,,81,88
104384,note_off,,,,,128,0,11,,,,,4,,,57,100
104384,note_off,,,,,128,0,14,,,,,6,,,57,100
104416,note_off,,,,,64,0,7,,,,,0,,,81,100
104448,note_on,,,,,64,0,11,,,,,4,,,51,60
104448,note_on,,,,,768,0,13,,,,,6,,,63,100
104448,note_on,,,,,32,0,7,,,,,0,,,81,88
104448,note_on,,,,,64,0,14,,,,,6,,,51,100
104476,note_on,,,,,28,0,13,,,,,6,,,69,100
104508,note_on,,,,,32,0,13,,,,,6,,,71,100
104540,note_off,,,,,92,0,7,,,,,0,,,81,100
104544,note_on,,,,,4,0,7,,,,,0,,,71,82
104576,note_off,,,,,128,0,14,,,,,6,,,51,100
104576,note_off,,,,,128,0,11,,,,,4,,,51,100
104636,note_off,,,,,92,0,7,,,,,0,,,71,100
104640,note_on,,,,,64,0,11,,,,,4,,,51,60
104640,note_on,,,,,4,0,7,,,,,0,,,63,79
104640,note_on,,,,,64,0,14,,,,,6,,,51,100
104704,note_off,,,,,64,0,7,,,,,0,,,63,100
104736,note_on,,,,,32,0,7,,,,,0,,,63,79
104768,note_off,,,,,128,0,14,,,,,6,,,51,100
104768,note_off,,,,,128,0,11,,,,,4,,,51,100
104800,note_off,,,,,64,0,7,,,,,0,,,63,100
104832,note_on,,,,,64,0,14,,,,,6,,,51,100
104832,note_on,,,,,64,0,11,,,,,4,,,51,60
104832,note_on,,,,,32,0,7,,,,,0,,,63,79
104924,note_off,,,,,92,0,7,,,,,0,,,63,100
104928,note_on,,,,,4,0,7,,,,,0,,,71,82
104960,note_off,,,,,128,0,14,,,,,6,,,51,100
104960,note_off,,,,,128,0,11,,,,,4,,,51,100
105020,note_off,,,,,92,0,7,,,,,0,,,71,100
105024,note_on,,,,,64,0,14,,,,,6,,,51,100
105024,note_on,,,,,4,0,7,,,,,0,,,81,85
105024,note_on,,,,,64,0,11,,,,,4,,,51,60
105088,note_off,,,,,64,0,7,,,,,0,,,81,100
105120,note_on,,,,,32,0,7,,,,,0,,,81,85
105152,note_off,,,,,128,0,11,,,,,4,,,51,100
105152,note_off,,,,,128,0,14,,,,,6,,,51,100
105184,note_off,,,,,64,0,7,,,,,0,,,81,100
105212,note_off,,,,,704,0,13,,,,,6,,,69,100
105212,note_off,,,,,0,0,13,,,,,6,,,71,100
105216,note_off,,,,,4,0,13,,,,,6,,,63,100
105216,note_on,,,,,64,0,11,,,,,4,,,51,60
105216,note_on,,,,,64,0,14,,,,,6,,,51,100
105216,note_on,,,,,32,0,7,,,,,0,,,81,85
105308,note_off,,,,,92,0,7,,,,,0,,,81,100
105312,note_on,,,,,4,0,7,,,,,0,,,71,82
105404,note_off,,,,,92,0,7,,,,,0,,,71,100
105408,note_on,,,,,4,0,7,,,,,0,,,63,79
105472,note_off,,,,,64,0,7,,,,,0,,,63,100
105472,note_off,,,,,256,0,11,,,,,4,,,51,100
105472,note_off,,,,,256,0,14,,,,,6,,,51,100
105504,note_on,,,,,32,0,7,,,,,0,,,63,79
105568,note_off,,,,,64,0,7,,,,,0,,,63,100
105600,note_on,,,,,32,0,7,,,,,0,,,63,79
105692,note_off,,,,,92,0,7,,,,,0,,,63,100
105696,note_on,,,,,4,0,7,,,,,0,,,71,82
105788,note_off,,,,,92,0,7,,,,,0,,,71,100
105792,note_on,,,,,320,0,14,,,,,6,,,59,100
105792,note_on,,,,,320,0,11,,,,,4,,,59,60
105792,note_on,,,,,4,0,7,,,,,0,,,81,85
105856,note_off,,,,,64,0,7,,,,,0,,,81,100
105888,note_on,,,,,32,0,7,,,,,0,,,81,85
105920,note_off,,,,,128,0,14,,,,,6,,,59,100
105920,note_off,,,,,128,0,11,,,,,4,,,59,100
105952,note_off,,,,,64,0,7,,,,,0,,,81,100
105984,note_on,,,,,768,0,13,,,,,6,,,64,100
105984,note_on,,,,,64,0,14,,,,,6,,,52,100
105984,note_on,,,,,32,0,7,,,,,0,,,81,85
105984,note_on,,,,,64,0,11,,,,,4,,,52,60
106012,note_on,,,,,28,0,13,,,,,6,,,69,100
106044,note_on,,,,,32,0,13,,,,,6,,,71,100
106076,note_off,,,,,92,0,7,,,,,0,,,81,100
106080,note_on,,,,,4,0,7,,,,,0,,,71,82
106112,note_off,,,,,128,0,14,,,,,6,,,52,100
106112,note_off,,,,,128,0,11,,,,,4,,,52,100
106172,note_off,,,,,92,0,7,,,,,0,,,71,100
106176,note_on,,,,,64,0,14,,,,,6,,,52,100
106176,note_on,,,,,64,0,11,,,,,4,,,52,60
106176,note_on,,,,,4,0,7,,,,,0,,,64,79
106240,note_off,,,,,64,0,7,,,,,0,,,64,100
106272,note_on,,,,,32,0,7,,,,,0,,,64,79
106304,note_off,,,,,128,0,14,,,,,6,,,52,100
106304,note_off,,,,,128,0,11,,,,,4,,,52,100
106336,note_off,,,,,64,0,7,,,,,0,,,64,100
106368,note_on,,,,,64,0,14,,,,,6,,,52,100
106368,note_on,,,,,64,0,11,,,,,4,,,52,60
106368,note_on,,,,,32,0,7,,,,,0,,,64,80
106460,note_off,,,,,92,0,7,,,,,0,,,64,100
106464,note_on,,,,,4,0,7,,,,,0,,,71,83
106496,note_off,,,,,128,0,11,,,,,4,,,52,100
106496,note_off,,,,,128,0,14,,,,,6,,,52,100
106556,note_off,,,,,92,0,7,,,,,0,,,71,100
106560,note_on,,,,,4,0,7,,,,,0,,,81,86
106560,note_on,,,,,64,0,14,,,,,6,,,52,100
106560,note_on,,,,,64,0,11,,,,,4,,,52,60
106624,note_off,,,,,64,0,7,,,,,0,,,81,100
106656,note_on,,,,,32,0,7,,,,,0,,,81,87
106688,note_off,,,,,128,0,11,,,,,4,,,52,100
106688,note_off,,,,,128,0,14,,,,,6,,,52,100
106720,note_off,,,,,64,0,7,,,,,0,,,81,100
106748,note_off,,,,,704,0,13,,,,,6,,,69,100
106752,note_on,,,,,64,0,11,,,,,4,,,52,60
106752,note_off,,,,,4,0,13,,,,,6,,,64,100
106752,note_on,,,,,0,0,13,,,,,6,,,67,100
106752,note_on,,,,,64,0,14,,,,,6,,,52,100
106752,note_on,,,,,32,0,7,,,,,0,,,79,87
106844,note_off,,,,,92,0,7,,,,,0,,,79,100
106848,note_on,,,,,4,0,7,,,,,0,,,71,84
106940,note_off,,,,,92,0,7,,,,,0,,,71,100
106944,note_on,,,,,4,0,7,,,,,0,,,64,82
107004,note_off,,,,,252,0,13,,,,,6,,,71,100
107008,note_off,,,,,256,0,14,,,,,6,,,52,100
107008,note_off,,,,,64,0,7,,,,,0,,,64,100
107008,note_off,,,,,256,0,11,,,,,4,,,52,100
107008,note_off,,,,,4,0,13,,,,,6,,,67,100
107040,note_on,,,,,32,0,7,,,,,0,,,64,82
107104,note_off,,,,,64,0,7,,,,,0,,,64,100
107136,note_on,,,,,32,0,7,,,,,0,,,64,82
107228,note_off,,,,,92,0,7,,,,,0,,,64,100
107232,note_on,,,,,4,0,7,,,,,0,,,71,86
107324,note_off,,,,,92,0,7,,,,,0,,,71,100
107328,note_on,,,,,320,0,14,,,,,6,,,64,100
107328,note_on,,,,,4,0,7,,,,,0,,,79,89
107328,note_on,,,,,320,0,11,,,,,4,,,64,60
107392,note_off,,,,,64,0,7,,,,,0,,,79,100
107424,note_on,,,,,32,0,7,,,,,0,,,79,89
107456,note_off,,,,,128,0,11,,,,,4,,,64,100
107456,note_off,,,,,128,0,14,,,,,6,,,64,100
107488,note_off,,,,,64,0,7,,,,,0,,,79,100
107520,note_on,,,,,64,0,11,,,,,4,,,52,60
107520,note_on,,,,,512,0,13,,,,,6,,,64,100
107520,note_on,,,,,64,0,14,,,,,6,,,52,100
107520,note_on,,,,,32,0,7,,,,,0,,,79,89
107548,note_on,,,,,28,0,13,,,,,6,,,67,100
107580,note_on,,,,,32,0,13,,,,,6,,,72,100
107612,note_off,,,,,92,0,7,,,,,0,,,79,100
107616,note_on,,,,,4,0,7,,,,,0,,,72,87
107648,note_off,,,,,128,0,14,,,,,6,,,52,100
107648,note_off,,,,,128,0,11,,,,,4,,,52,100
107708,note_off,,,,,92,0,7,,,,,0,,,72,100
107712,note_on,,,,,4,0,7,,,,,0,,,64,84
107712,note_on,,,,,64,0,11,,,,,4,,,52,60
107712,note_on,,,,,64,0,14,,,,,6,,,52,100
107776,note_off,,,,,64,0,7,,,,,0,,,64,100
107808,note_on,,,,,32,0,7,,,,,0,,,64,84
107840,note_off,,,,,128,0,11,,,,,4,,,52,100
107840,note_off,,,,,128,0,14,,,,,6,,,52,100
107872,note_off,,,,,64,0,7,,,,,0,,,64,100
107904,note_on,,,,,64,0,11,,,,,4,,,52,60
107904,note_on,,,,,32,0,7,,,,,0,,,64,85
107904,note_on,,,,,64,0,14,,,,,6,,,52,100
107996,note_off,,,,,92,0,7,,,,,0,,,64,100
108000,note_on,,,,,4,0,7,,,,,0,,,72,88
108032,note_off,,,,,128,0,14,,,,,6,,,52,100
108032,note_off,,,,,128,0,11,,,,,4,,,52,100
108092,note_off,,,,,92,0,7,,,,,0,,,72,100
108096,note_on,,,,,4,0,7,,,,,0,,,79,91
108096,note_on,,,,,64,0,11,,,,,4,,,52,60
108096,note_on,,,,,64,0,14,,,,,6,,,52,100
108160,note_off,,,,,64,0,7,,,,,0,,,79,100
108192,note_on,,,,,32,0,7,,,,,0,,,79,92
108224,note_off,,,,,128,0,14,,,,,6,,,52,100
108224,note_off,,,,,128,0,11,,,,,4,,,52,100
108256,note_off,,,,,64,0,7,,,,,0,,,79,100
108284,note_off,,,,,0,0,13,,,,,6,,,72,100
108284,note_off,,,,,704,0,13,,,,,6,,,67,100
108288,note_on,,,,,64,0,11,,,,,4,,,52,60
108288,note_on,,,,,64,0,14,,,,,6,,,52,100
108288,note_off,,,,,4,0,13,,,,,6,,,64,100
108288,note_on,,,,,32,0,7,,,,,0,,,79,92
108380,note_off,,,,,92,0,7,,,,,0,,,79,100
108384,note_on,,,,,4,0,7,,,,,0,,,72,89
108476,note_off,,,,,92,0,7,,,,,0,,,72,100
108480,note_on,,,,,4,0,7,,,,,0,,,64,87
108544,note_off,,,,,256,0,14,,,,,6,,,52,100
108544,note_off,,,,,256,0,11,,,,,4,,,52,100
108544,note_off,,,,,64,0,7,,,,,0,,,64,100
108576,note_on,,,,,32,0,7,,,,,0,,,64,87
108640,note_off,,,,,64,0,7,,,,,0,,,64,100
108672,note_on,,,,,32,0,7,,,,,0,,,64,87
108764,note_off,,,,,92,0,7,,,,,0,,,64,100
108768,note_on,,,,,4,0,7,,,,,0,,,72,91
108860,note_off,,,,,92,0,7,,,,,0,,,72,100
108864,note_on,,,,,320,0,14,,,,,6,,,64,100
108864,note_on,,,,,320,0,11,,,,,4,,,64,60
108864,note_on,,,,,4,0,7,,,,,0,,,79,94
108928,note_off,,,,,64,0,7,,,,,0,,,79,100
108960,note_on,,,,,32,0,7,,,,,0,,,79,94
108992,note_off,,,,,128,0,14,,,,,6,,,64,100
108992,note_off,,,,,128,0,11,,,,,4,,,64,100
109024,note_off,,,,,64,0,7,,,,,0,,,79,100
109056,note_on,,,,,64,0,11,,,,,4,,,54,60
109056,note_on,,,,,32,0,7,,,,,0,,,76,95
109056,note_on,,,,,768,0,13,,,,,6,,,70,100
109056,note_on,,,,,64,0,14,,,,,6,,,54,100
109084,note_on,,,,,28,0,13,,,,,6,,,73,100
109116,note_on,,,,,32,0,13,,,,,6,,,76,100
109148,note_off,,,,,92,0,7,,,,,0,,,76,100
109152,note_on,,,,,4,0,7,,,,,0,,,70,92
109184,note_off,,,,,128,0,11,,,,,4,,,54,100
109184,note_off,,,,,128,0,14,,,,,6,,,54,100
109244,note_off,,,,,92,0,7,,,,,0,,,70,100
109248,note_on,,,,,64,0,14,,,,,6,,,54,100
109248,note_on,,,,,4,0,7,,,,,0,,,66,89
109248,note_on,,,,,64,0,11,,,,,4,,,54,60
109312,note_off,,,,,64,0,7,,,,,0,,,66,100
109344,note_on,,,,,32,0,7,,,,,0,,,66,89
109376,note_off,,,,,128,0,11,,,,,4,,,54,100
109376,note_off,,,,,128,0,14,,,,,6,,,54,100
109408,note_off,,,,,64,0,7,,,,,0,,,66,100
109440,note_on,,,,,32,0,7,,,,,0,,,66,89
109440,note_on,,,,,64,0,14,,,,,6,,,54,100
109440,note_on,,,,,64,0,11,,,,,4,,,54,60
109532,note_off,,,,,92,0,7,,,,,0,,,66,100
109536,note_on,,,,,4,0,7,,,,,0,,,70,92
109568,note_off,,,,,128,0,14,,,,,6,,,54,100
109568,note_off,,,,,128,0,11,,,,,4,,,54,100
109628,note_off,,,,,92,0,7,,,,,0,,,70,100
109632,note_on,,,,,4,0,7,,,,,0,,,76,95
109632,note_on,,,,,64,0,14,,,,,6,,,54,100
109632,note_on,,,,,64,0,11,,,,,4,,,54,60
109696,note_off,,,,,64,0,7,,,,,0,,,76,100
109728,note_on,,,,,32,0,7,,,,,0,,,76,95
109760,note_off,,,,,128,0,14,,,,,6,,,54,100
109760,note_off,,,,,128,0,11,,,,,4,,,54,100
109792,note_off,,,,,64,0,7,,,,,0,,,76,100
109820,note_off,,,,,0,0,13,,,,,6,,,76,100
109820,note_off,,,,,704,0,13,,,,,6,,,73,100
109824,note_on,,,,,64,0,14,,,,,6,,,54,100
109824,note_off,,,,,4,0,13,,,,,6,,,70,100
109824,note_on,,,,,32,0,7,,,,,0,,,76,95
109824,note_on,,,,,64,0,11,,,,,4,,,54,60
109916,note_off,,,,,92,0,7,,,,,0,,,76,100
109920,note_on,,,,,4,0,7,,,,,0,,,70,92
110012,note_off,,,,,92,0,7,,,,,0,,,70,100
110016,note_on,,,,,4,0,7,,,,,0,,,66,89
110080,note_off,,,,,256,0,14,,,,,6,,,54,100
110080,note_off,,,,,256,0,11,,,,,4,,,54,100
110080,note_off,,,,,64,0,7,,,,,0,,,66,100
110112,note_on,,,,,32,0,7,,,,,0,,,66,89
110176,note_off,,,,,64,0,7,,,,,0,,,66,100
110208,note_on,,,,,32,0,7,,,,,0,,,66,88
110300,note_off,,,,,92,0,7,,,,,0,,,66,100
110304,note_on,,,,,4,0,7,,,,,0,,,70,91
110396,note_off,,,,,92,0,7,,,,,0,,,70,100
110400,note_on,,,,,320,0,14,,,,,6,,,54,100
110400,note_on,,,,,4,0,7,,,,,0,,,76,94
110400,note_on,,,,,320,0,11,,,,,4,,,54,60
110464,note_off,,,,,64,0,7,,,,,0,,,76,100
110496,note_on,,,,,32,0,7,,,,,0,,,76,93
110528,note_off,,,,,128,0,11,,,,,4,,,54,100
110528,note_off,,,,,128,0,14,,,,,6,,,54,100
110560,note_off,,,,,64,0,7,,,,,0,,,76,100
110592,note_on,,,,,768,0,13,,,,,6,,,63,100
110592,note_on,,,,,64,0,11,,,,,4,,,47,60
110592,note_on,,,,,64,0,14,,,,,6,,,47,100
110592,note_on,,,,,32,0,7,,,,,0,,,75,93
110620,note_on,,,,,28,0,13,,,,,6,,,66,100
110652,note_on,,,,,32,0,13,,,,,6,,,69,100
110684,note_off,,,,,92,0,7,,,,,0,,,75,100
110688,note_on,,,,,4,0,7,,,,,0,,,66,90
110720,note_off,,,,,128,0,14,,,,,6,,,47,100
110720,note_off,,,,,128,0,11,,,,,4,,,47,100
110780,note_off,,,,,92,0,7,,,,,0,,,66,100
110784,note_on,,,,,64,0,14,,,,,6,,,47,100
110784,note_on,,,,,64,0,11,,,,,4,,,47,60
110784,note_on,,,,,4,0,7,,,,,0,,,57,86
110848,note_off,,,,,64,0,7,,,,,0,,,57,100
110880,note_on,,,,,32,0,7,,,,,0,,,57,86
110912,note_off,,,,,128,0,11,,,,,4,,,47,100
110912,note_off,,,,,128,0,14,,,,,6,,,47,100
110944,note_off,,,,,64,0,7,,,,,0,,,57,100
110976,note_on,,,,,64,0,11,,,,,4,,,47,60
110976,note_on,,,,,32,0,7,,,,,0,,,57,86
110976,note_on,,,,,64,0,14,,,,,6,,,47,100
111068,note_off,,,,,92,0,7,,,,,0,,,57,100
111072,note_on,,,,,4,0,7,,,,,0,,,66,88
111104,note_off,,,,,128,0,14,,,,,6,,,47,100
111104,note_off,,,,,128,0,11,,,,,4,,,47,100
111164,note_off,,,,,92,0,7,,,,,0,,,66,100
111168,note_on,,,,,4,0,7,,,,,0,,,75,91
111168,note_on,,,,,64,0,14,,,,,6,,,47,100
111168,note_on,,,,,64,0,11,,,,,4,,,47,60
111232,note_off,,,,,64,0,7,,,,,0,,,75,100
111264,note_on,,,,,32,0,7,,,,,0,,,75,91
111296,note_off,,,,,128,0,14,,,,,6,,,47,100
111296,note_off,,,,,128,0,11,,,,,4,,,47,100
111328,note_off,,,,,64,0,7,,,,,0,,,75,100
111356,note_off,,,,,704,0,13,,,,,6,,,66,100
111356,note_off,,,,,0,0,13,,,,,6,,,69,100
111360,note_on,,,,,64,0,11,,,,,4,,,47,60
111360,note_on,,,,,32,0,7,,,,,0,,,75,90
111360,note_off,,,,,4,0,13,,,,,6,,,63,100
111360,note_on,,,,,64,0,14,,,,,6,,,47,100
111452,note_off,,,,,92,0,7,,,,,0,,,75,100
111456,note_on,,,,,4,0,7,,,,,0,,,66,87
111548,note_off,,,,,92,0,7,,,,,0,,,66,100
111552,note_on,,,,,4,0,7,,,,,0,,,57,85
111616,note_off,,,,,256,0,11,,,,,4,,,47,100
111616,note_off,,,,,256,0,14,,,,,6,,,47,100
111616,note_off,,,,,64,0,7,,,,,0,,,57,100
111648,note_on,,,,,32,0,7,,,,,0,,,57,86
111712,note_off,,,,,64,0,7,,,,,0,,,57,100
111744,note_on,,,,,32,0,7,,,,,0,,,57,87
111836,note_off,,,,,92,0,7,,,,,0,,,57,100
111840,note_on,,,,,4,0,7,,,,,0,,,66,91
111932,note_off,,,,,92,0,7,,,,,0,,,66,100
111936,note_on,,,,,4,0,7,,,,,0,,,75,95
111936,note_on,,,,,320,0,11,,,,,4,,,59,60
111936,note_on,,,,,320,0,14,,,,,6,,,59,100
112000,note_off,,,,,64,0,7,,,,,0,,,75,100
112032,note_on,,,,,32,0,7,,,,,0,,,75,96
112064,note_off,,,,,128,0,11,,,,,4,,,59,100
112064,note_off,,,,,128,0,14,,,,,6,,,59,100
112096,note_off,,,,,64,0,7,,,,,0,,,75,100
112128,note_on,,,,,768,0,13,,,,,6,,,68,100
112128,note_on,,,,,64,0,14,,,,,6,,,52,100
112128,note_on,,,,,32,0,7,,,,,0,,,80,96
112128,note_on,,,,,64,0,11,,,,,4,,,52,60
112156,note_on,,,,,28,0,13,,,,,6,,,71,100
112188,note_on,,,,,32,0,13,,,,,6,,,74,100
112220,note_off,,,,,92,0,7,,,,,0,,,80,100
112224,note_on,,,,,4,0,7,,,,,0,,,74,92
112256,note_off,,,,,128,0,14,,,,,6,,,52,100
112256,note_off,,,,,128,0,11,,,,,4,,,52,100
112316,note_off,,,,,92,0,7,,,,,0,,,74,100
112320,note_on,,,,,4,0,7,,,,,0,,,64,89
112320,note_on,,,,,64,0,14,,,,,6,,,52,100
112320,note_on,,,,,64,0,11,,,,,4,,,52,60
112384,note_off,,,,,64,0,7,,,,,0,,,64,100
112416,note_on,,,,,32,0,7,,,,,0,,,64,89
112448,note_off,,,,,128,0,11,,,,,4,,,52,100
112448,note_off,,,,,128,0,14,,,,,6,,,52,100
112480,note_off,,,,,64,0,7,,,,,0,,,64,100
112512,note_on,,,,,32,0,7,,,,,0,,,64,89
112512,note_on,,,,,64,0,11,,,,,4,,,52,60
112512,note_on,,,,,64,0,14,,,,,6,,,52,100
112604,note_off,,,,,92,0,7,,,,,0,,,64,100
112608,note_on,,,,,4,0,7,,,,,0,,,74,92
112640,note_off,,,,,128,0,11,,,,,4,,,52,100
112640,note_off,,,,,128,0,14,,,,,6,,,52,100
112700,note_off,,,,,92,0,7,,,,,0,,,74,100
112704,note_on,,,,,64,0,11,,,,,4,,,52,60
112704,note_on,,,,,64,0,14,,,,,6,,,52,100
112704,note_on,,,,,4,0,7,,,,,0,,,80,95
112768,note_off,,,,,64,0,7,,,,,0,,,80,100
112800,note_on,,,,,32,0,7,,,,,0,,,80,95
112832,note_off,,,,,128,0,14,,,,,6,,,52,100
112832,note_off,,,,,128,0,11,,,,,4,,,52,100
112864,note_off,,,,,64,0,7,,,,,0,,,80,100
112892,note_off,,,,,0,0,13,,,,,6,,,74,100
112892,note_off,,,,,704,0,13,,,,,6,,,71,100
112896,note_on,,,,,32,0,7,,,,,0,,,80,95
112896,note_on,,,,,64,0,14,,,,,6,,,52,100
112896,note_off,,,,,4,0,13,,,,,6,,,68,100
112896,note_on,,,,,64,0,11,,,,,4,,,52,60
112988,note_off,,,,,92,0,7,,,,,0,,,80,100
112992,note_on,,,,,4,0,7,,,,,0,,,74,92
113084,note_off,,,,,92,0,7,,,,,0,,,74,100
113088,note_on,,,,,4,0,7,,,,,0,,,64,89
113152,note_off,,,,,256,0,11,,,,,4,,,52,100
113152,note_off,,,,,256,0,14,,,,,6,,,52,100
113152,note_off,,,,,64,0,7,,,,,0,,,64,100
113184,note_on,,,,,32,0,7,,,,,0,,,64,89
113248,note_off,,,,,64,0,7,,,,,0,,,64,100
113280,note_on,,,,,32,0,7,,,,,0,,,64,88
113372,note_off,,,,,92,0,7,,,,,0,,,64,100
113376,note_on,,,,,4,0,7,,,,,0,,,74,91
113468,note_off,,,,,92,0,7,,,,,0,,,74,100
113472,note_on,,,,,320,0,14,,,,,6,,,52,100
113472,note_on,,,,,4,0,7,,,,,0,,,80,94
113472,note_on,,,,,320,0,11,,,,,4,,,52,60
113536,note_off,,,,,64,0,7,,,,,0,,,80,100
113568,note_on,,,,,32,0,7,,,,,0,,,80,93
113600,note_off,,,,,128,0,14,,,,,6,,,52,100
113600,note_off,,,,,128,0,11,,,,,4,,,52,100
113632,note_off,,,,,64,0,7,,,,,0,,,80,100
113664,note_on,,,,,64,0,14,,,,,6,,,45,100
113664,note_on,,,,,768,0,13,,,,,6,,,61,100
113664,note_on,,,,,64,0,11,,,,,4,,,45,60
113664,note_on,,,,,32,0,7,,,,,0,,,73,93
113692,note_on,,,,,28,0,13,,,,,6,,,64,100
113724,note_on,,,,,32,0,13,,,,,6,,,67,100
113756,note_off,,,,,92,0,7,,,,,0,,,73,100
113760,note_on,,,,,4,0,7,,,,,0,,,67,90
113792,note_off,,,,,128,0,14,,,,,6,,,45,100
113792,note_off,,,,,128,0,11,,,,,4,,,45,100
113852,note_off,,,,,92,0,7,,,,,0,,,67,100
113856,note_on,,,,,64,0,14,,,,,6,,,45,100
113856,note_on,,,,,64,0,11,,,,,4,,,45,60
113856,note_on,,,,,4,0,7,,,,,0,,,57,86
113920,note_off,,,,,64,0,7,,,,,0,,,57,100
113952,note_on,,,,,32,0,7,,,,,0,,,57,86
113984,note_off,,,,,128,0,11,,,,,4,,,45,100
113984,note_off,,,,,128,0,14,,,,,6,,,45,100
114016,note_off,,,,,64,0,7,,,,,0,,,57,100
114048,note_on,,,,,64,0,14,,,,,6,,,45,100
114048,note_on,,,,,32,0,7,,,,,0,,,57,86
114048,note_on,,,,,64,0,11,,,,,4,,,45,60
114140,note_off,,,,,92,0,7,,,,,0,,,57,100
114144,note_on,,,,,4,0,7,,,,,0,,,67,88
114176,note_off,,,,,128,0,11,,,,,4,,,45,100
114176,note_off,,,,,128,0,14,,,,,6,,,45,100
114236,note_off,,,,,92,0,7,,,,,0,,,67,100
114240,note_on,,,,,4,0,7,,,,,0,,,73,91
114240,note_on,,,,,64,0,11,,,,,4,,,45,60
114240,note_on,,,,,64,0,14,,,,,6,,,45,100
114304,note_off,,,,,64,0,7,,,,,0,,,73,100
114336,note_on,,,,,32,0,7,,,,,0,,,73,91
114368,note_off,,,,,128,0,11,,,,,4,,,45,100
114368,note_off,,,,,128,0,14,,,,,6,,,45,100
114400,note_off,,,,,64,0,7,,,,,0,,,73,100
114428,note_off,,,,,704,0,13,,,,,6,,,64,100
114428,note_off,,,,,0,0,13,,,,,6,,,67,100
114432,note_on,,,,,64,0,14,,,,,6,,,45,100
114432,note_off,,,,,4,0,13,,,,,6,,,61,100
114432,note_on,,,,,32,0,7,,,,,0,,,73,90
114432,note_on,,,,,64,0,11,,,,,4,,,45,60
114524,note_off,,,,,92,0,7,,,,,0,,,73,100
114528,note_on,,,,,4,0,7,,,,,0,,,67,87
114620,note_off,,,,,92,0,7,,,,,0,,,67,100
114624,note_on,,,,,4,0,7,,,,,0,,,57,85
114688,note_off,,,,,64,0,7,,,,,0,,,57,100
114688,note_off,,,,,256,0,14,,,,,6,,,45,100
114688,note_off,,,,,256,0,11,,,,,4,,,45,100
114720,note_on,,,,,32,0,7,,,,,0,,,57,86
114784,note_off,,,,,64,0,7,,,,,0,,,57,100
114816,note_on,,,,,32,0,7,,,,,0,,,57,87
114908,note_off,,,,,92,0,7,,,,,0,,,57,100
114912,note_on,,,,,4,0,7,,,,,0,,,67,91
115004,note_off,,,,,92,0,7,,,,,0,,,67,100
115008,note_on,,,,,320,0,14,,,,,6,,,57,100
115008,note_on,,,,,320,0,11,,,,,4,,,57,60
115008,note_on,,,,,4,0,7,,,,,0,,,73,95
115072,note_off,,,,,64,0,7,,,,,0,,,73,100
115104,note_on,,,,,32,0,7,,,,,0,,,73,96
115136,note_off,,,,,128,0,14,,,,,6,,,57,100
115136,note_off,,,,,128,0,11,,,,,4,,,57,100
115168,note_off,,,,,64,0,7,,,,,0,,,73,100
115200,note_on,,,,,64,0,14,,,,,6,,,50,100
115200,note_on,,,,,32,0,7,,,,,0,,,78,95
115200,note_on,,,,,768,0,13,,,,,6,,,66,100
115200,note_on,,,,,64,0,11,,,,,4,,,50,60
115228,note_on,,,,,28,0,13,,,,,6,,,69,100
115260,note_on,,,,,32,0,13,,,,,6,,,72,100
115292,note_off,,,,,92,0,7,,,,,0,,,78,100
115296,note_on,,,,,4,0,7,,,,,0,,,72,92
115328,note_off,,,,,128,0,14,,,,,6,,,50,100
115328,note_off,,,,,128,0,11,,,,,4,,,50,100
115388,note_off,,,,,92,0,7,,,,,0,,,72,100
115392,note_on,,,,,64,0,14,,,,,6,,,50,100
115392,note_on,,,,,64,0,11,,,,,4,,,50,60
115392,note_on,,,,,4,0,7,,,,,0,,,62,89
115456,note_off,,,,,64,0,7,,,,,0,,,62,100
115488,note_on,,,,,32,0,7,,,,,0,,,62,89
115520,note_off,,,,,128,0,14,,,,,6,,,50,100
115520,note_off,,,,,128,0,11,,,,,4,,,50,100
115552,note_off,,,,,64,0,7,,,,,0,,,62,100
115584,note_on,,,,,64,0,14,,,,,6,,,50,100
115584,note_on,,,,,32,0,7,,,,,0,,,62,89
115584,note_on,,,,,64,0,11,,,,,4,,,50,60
115676,note_off,,,,,92,0,7,,,,,0,,,62,100
115680,note_on,,,,,4,0,7,,,,,0,,,72,92
115712,note_off,,,,,128,0,14,,,,,6,,,50,100
115712,note_off,,,,,128,0,11,,,,,4,,,50,100
115772,note_off,,,,,92,0,7,,,,,0,,,72,100
115776,note_on,,,,,64,0,14,,,,,6,,,50,100
115776,note_on,,,,,64,0,11,,,,,4,,,50,60
115776,note_on,,,,,4,0,7,,,,,0,,,78,95
115840,note_off,,,,,64,0,7,,,,,0,,,78,100
115872,note_on,,,,,32,0,7,,,,,0,,,78,95
115904,note_off,,,,,128,0,14,,,,,6,,,50,100
115904,note_off,,,,,128,0,11,,,,,4,,,50,100
115936,note_off,,,,,64,0,7,,,,,0,,,78,100
115964,note_off,,,,,0,0,13,,,,,6,,,72,100
115964,note_off,,,,,704,0,13,,,,,6,,,69,100
115968,note_on,,,,,32,0,7,,,,,0,,,78,95
115968,note_off,,,,,4,0,13,,,,,6,,,66,100
115968,note_on,,,,,64,0,14,,,,,6,,,50,100
115968,note_on,,,,,64,0,11,,,,,4,,,50,60
116060,note_off,,,,,92,0,7,,,,,0,,,78,100
116064,note_on,,,,,4,0,7,,,,,0,,,72,92
116156,note_off,,,,,92,0,7,,,,,0,,,72,100
116160,note_on,,,,,4,0,7,,,,,0,,,62,89
116224,note_off,,,,,256,0,14,,,,,6,,,50,100
116224,note_off,,,,,64,0,7,,,,,0,,,62,100
116224,note_off,,,,,256,0,11,,,,,4,,,50,100
116256,note_on,,,,,32,0,7,,,,,0,,,62,89
116320,note_off,,,,,64,0,7,,,,,0,,,62,100
116352,note_on,,,,,32,0,7,,,,,0,,,62,88
116444,note_off,,,,,92,0,7,,,,,0,,,62,100
116448,note_on,,,,,4,0,7,,,,,0,,,72,91
116540,note_off,,,,,92,0,7,,,,,0,,,72,100
116544,note_on,,,,,320,0,11,,,,,4,,,50,60
116544,note_on,,,,,4,0,7,,,,,0,,,78,94
116544,note_on,,,,,320,0,14,,,,,6,,,50,100
116608,note_off,,,,,64,0,7,,,,,0,,,78,100
116640,note_on,,,,,32,0,7,,,,,0,,,78,93
116672,note_off,,,,,128,0,11,,,,,4,,,50,100
116672,note_off,,,,,128,0,14,,,,,6,,,50,100
116704,note_off,,,,,64,0,7,,,,,0,,,78,100
116736,note_on,,,,,32,0,7,,,,,0,,,78,93
116736,note_on,,,,,64,0,14,,,,,6,,,43,100
116736,note_on,,,,,64,0,11,,,,,4,,,43,60
116736,note_on,,,,,768,0,13,,,,,6,,,59,100
116764,note_on,,,,,28,0,13,,,,,6,,,62,100
116796,note_on,,,,,32,0,13,,,,,6,,,66,100
116828,note_off,,,,,92,0,7,,,,,0,,,78,100
116832,note_on,,,,,4,0,7,,,,,0,,,71,90
116864,note_off,,,,,128,0,14,,,,,6,,,43,100
116864,note_off,,,,,128,0,11,,,,,4,,,43,100
116924,note_off,,,,,92,0,7,,,,,0,,,71,100
116928,note_on,,,,,64,0,11,,,,,4,,,43,60
116928,note_on,,,,,64,0,14,,,,,6,,,43,100
116928,note_on,,,,,4,0,7,,,,,0,,,67,86
116992,note_off,,,,,64,0,7,,,,,0,,,67,100
117024,note_on,,,,,32,0,7,,,,,0,,,67,86
117056,note_off,,,,,128,0,11,,,,,4,,,43,100
117056,note_off,,,,,128,0,14,,,,,6,,,43,100
117088,note_off,,,,,64,0,7,,,,,0,,,67,100
117120,note_on,,,,,64,0,11,,,,,4,,,43,60
117120,note_on,,,,,64,0,14,,,,,6,,,43,100
117120,note_on,,,,,32,0,7,,,,,0,,,67,86
117212,note_off,,,,,92,0,7,,,,,0,,,67,100
117216,note_on,,,,,4,0,7,,,,,0,,,71,88
117248,note_off,,,,,128,0,11,,,,,4,,,43,100
117248,note_off,,,,,128,0,14,,,,,6,,,43,100
117308,note_off,,,,,92,0,7,,,,,0,,,71,100
117312,note_on,,,,,4,0,7,,,,,0,,,78,91
117312,note_on,,,,,64,0,11,,,,,4,,,43,60
117312,note_on,,,,,64,0,14,,,,,6,,,43,100
117376,note_off,,,,,64,0,7,,,,,0,,,78,100
117408,note_on,,,,,32,0,7,,,,,0,,,78,91
117440,note_off,,,,,128,0,11,,,,,4,,,43,100
117440,note_off,,,,,128,0,14,,,,,6,,,43,100
117472,note_off,,,,,64,0,7,,,,,0,,,78,100
117500,note_off,,,,,704,0,13,,,,,6,,,62,100
117500,note_off,,,,,0,0,13,,,,,6,,,66,100
117504,note_off,,,,,4,0,13,,,,,6,,,59,100
117504,note_on,,,,,64,0,14,,,,,6,,,43,100
117504,note_on,,,,,64,0,11,,,,,4,,,43,60
117504,note_on,,,,,32,0,7,,,,,0,,,78,90
117596,note_off,,,,,92,0,7,,,,,0,,,78,100
117600,note_on,,,,,4,0,7,,,,,0,,,71,87
117692,note_off,,,,,92,0,7,,,,,0,,,71,100
117696,note_on,,,,,4,0,7,,,,,0,,,67,84
117760,note_off,,,,,256,0,14,,,,,6,,,43,100
117760,note_off,,,,,256,0,11,,,,,4,,,43,100
117760,note_off,,,,,64,0,7,,,,,0,,,67,100
117792,note_on,,,,,32,0,7,,,,,0,,,67,83
117856,note_off,,,,,64,0,7,,,,,0,,,67,100
117888,note_on,,,,,32,0,7,,,,,0,,,67,83
117980,note_off,,,,,92,0,7,,,,,0,,,67,100
117984,note_on,,,,,4,0,7,,,,,0,,,71,86
118076,note_off,,,,,92,0,7,,,,,0,,,71,100
118080,note_on,,,,,320,0,14,,,,,6,,,55,100
118080,note_on,,,,,4,0,7,,,,,0,,,78,88
118080,note_on,,,,,320,0,11,,,,,4,,,55,60
118144,note_off,,,,,64,0,7,,,,,0,,,78,100
118176,note_on,,,,,32,0,7,,,,,0,,,78,88
118208,note_off,,,,,128,0,11,,,,,4,,,55,100
118208,note_off,,,,,128,0,14,,,,,6,,,55,100
118240,note_off,,,,,64,0,7,,,,,0,,,78,100
118272,note_on,,,,,768,0,13,,,,,6,,,59,100
118272,note_on,,,,,64,0,11,,,,,4,,,43,60
118272,note_on,,,,,64,0,14,,,,,6,,,43,100
118272,note_on,,,,,32,0,7,,,,,0,,,76,88
118300,note_on,,,,,28,0,13,,,,,6,,,64,100
118332,note_on,,,,,32,0,13,,,,,6,,,71,100
118364,note_off,,,,,92,0,7,,,,,0,,,76,100
118368,note_on,,,,,4,0,7,,,,,0,,,71,82
118400,note_off,,,,,128,0,14,,,,,6,,,43,100
118400,note_off,,,,,128,0,11,,,,,4,,,43,100
118460,note_off,,,,,92,0,7,,,,,0,,,71,100
118464,note_on,,,,,4,0,7,,,,,0,,,67,79
118464,note_on,,,,,64,0,14,,,,,6,,,43,100
118464,note_on,,,,,64,0,11,,,,,4,,,43,60
118528,note_off,,,,,64,0,7,,,,,0,,,67,100
118560,note_on,,,,,32,0,7,,,,,0,,,67,79
118592,note_off,,,,,128,0,11,,,,,4,,,43,100
118592,note_off,,,,,128,0,14,,,,,6,,,43,100
118624,note_off,,,,,64,0,7,,,,,0,,,67,100
118656,note_on,,,,,32,0,7,,,,,0,,,67,80
118656,note_on,,,,,64,0,11,,,,,4,,,43,60
118656,note_on,,,,,64,0,14,,,,,6,,,43,100
118748,note_off,,,,,92,0,7,,,,,0,,,67,100
118752,note_on,,,,,4,0,7,,,,,0,,,71,83
118784,note_off,,,,,128,0,14,,,,,6,,,43,100
118784,note_off,,,,,128,0,11,,,,,4,,,43,100
118844,note_off,,,,,92,0,7,,,,,0,,,71,100
118848,note_on,,,,,64,0,14,,,,,6,,,43,100
118848,note_on,,,,,64,0,11,,,,,4,,,43,60
118848,note_on,,,,,4,0,7,,,,,0,,,76,86
118912,note_off,,,,,64,0,7,,,,,0,,,76,100
118944,note_on,,,,,32,0,7,,,,,0,,,76,87
118976,note_off,,,,,128,0,14,,,,,6,,,43,100
118976,note_off,,,,,128,0,11,,,,,4,,,43,100
119008,note_off,,,,,64,0,7,,,,,0,,,76,100
119036,note_off,,,,,0,0,13,,,,,6,,,71,100
119036,note_off,,,,,704,0,13,,,,,6,,,64,100
119040,note_off,,,,,4,0,13,,,,,6,,,59,100
119040,note_on,,,,,32,0,7,,,,,0,,,76,87
119040,note_on,,,,,64,0,14,,,,,6,,,43,100
119040,note_on,,,,,64,0,11,,,,,4,,,43,60
119132,note_off,,,,,92,0,7,,,,,0,,,76,100
119136,note_on,,,,,4,0,7,,,,,0,,,71,84
119228,note_off,,,,,92,0,7,,,,,0,,,71,100
119232,note_on,,,,,4,0,7,,,,,0,,,67,82
119296,note_off,,,,,256,0,14,,,,,6,,,43,100
119296,note_off,,,,,64,0,7,,,,,0,,,67,100
119296,note_off,,,,,256,0,11,,,,,4,,,43,100
119328,note_on,,,,,32,0,7,,,,,0,,,67,82
119392,note_off,,,,,64,0,7,,,,,0,,,67,100
119424,note_on,,,,,32,0,7,,,,,0,,,67,82
119516,note_off,,,,,92,0,7,,,,,0,,,67,100
119520,note_on,,,,,4,0,7,,,,,0,,,71,86
119612,note_off,,,,,92,0,7,,,,,0,,,71,100
119616,note_on,,,,,320,0,14,,,,,6,,,55,100
119616,note_on,,,,,4,0,7,,,,,0,,,76,89
119616,note_on,,,,,320,0,11,,,,,4,,,55,60
119680,note_off,,,,,64,0,7,,,,,0,,,76,100
119712,note_on,,,,,32,0,7,,,,,0,,,76,90
119744,note_off,,,,,128,0,14,,,,,6,,,55,100
119744,note_off,,,,,128,0,11,,,,,4,,,55,100
119776,note_off,,,,,64,0,7,,,,,0,,,76,100
119808,note_on,,,,,64,0,14,,,,,6,,,43,100
119808,note_on,,,,,64,0,11,,,,,4,,,43,60
119808,note_on,,,,,768,0,13,,,,,6,,,59,100
119808,note_on,,,,,32,0,7,,,,,0,,,77,90
119836,note_on,,,,,28,0,13,,,,,6,,,65,100
119868,note_on,,,,,32,0,13,,,,,6,,,71,100
119900,note_off,,,,,92,0,7,,,,,0,,,77,100
119904,note_on,,,,,4,0,7,,,,,0,,,71,87
119936,note_off,,,,,128,0,11,,,,,4,,,43,100
119936,note_off,,,,,128,0,14,,,,,6,,,43,100
119996,note_off,,,,,92,0,7,,,,,0,,,71,100
120000,note_on,,,,,64,0,14,,,,,6,,,43,100
120000,note_on,,,,,64,0,11,,,,,4,,,43,60
120000,note_on,,,,,4,0,7,,,,,0,,,67,85
120064,note_off,,,,,64,0,7,,,,,0,,,67,100
120096,note_on,,,,,32,0,7,,,,,0,,,67,85
120128,note_off,,,,,128,0,11,,,,,4,,,43,100
120128,note_off,,,,,128,0,14,,,,,6,,,43,100
120160,note_off,,,,,64,0,7,,,,,0,,,67,100
120192,note_on,,,,,64,0,14,,,,,6,,,43,100
120192,note_on,,,,,32,0,7,,,,,0,,,67,85
120192,note_on,,,,,64,0,11,,,,,4,,,43,60
120284,note_off,,,,,92,0,7,,,,,0,,,67,100
120288,note_on,,,,,4,0,7,,,,,0,,,71,89
120320,note_off,,,,,128,0,14,,,,,6,,,43,100
120320,note_off,,,,,128,0,11,,,,,4,,,43,100
120380,note_off,,,,,92,0,7,,,,,0,,,71,100
120384,note_on,,,,,64,0,14,,,,,6,,,43,100
120384,note_on,,,,,4,0,7,,,,,0,,,77,92
120384,note_on,,,,,64,0,11,,,,,4,,,43,60
120448,note_off,,,,,64,0,7,,,,,0,,,77,100
120480,note_on,,,,,32,0,7,,,,,0,,,77,92
120512,note_off,,,,,128,0,11,,,,,4,,,43,100
120512,note_off,,,,,128,0,14,,,,,6,,,43,100
120544,note_off,,,,,64,0,7,,,,,0,,,77,100
120572,note_off,,,,,0,0,13,,,,,6,,,71,100
120572,note_off,,,,,704,0,13,,,,,6,,,65,100
120576,note_off,,,,,4,0,13,,,,,6,,,59,100
120576,note_on,,,,,64,0,14,,,,,6,,,43,100
120576,note_on,,,,,64,0,11,,,,,4,,,43,60
120576,note_on,,,,,32,0,7,,,,,0,,,77,93
120668,note_off,,,,,92,0,7,,,,,0,,,77,100
120672,note_on,,,,,4,0,7,,,,,0,,,71,90
120764,note_off,,,,,92,0,7,,,,,0,,,71,100
120768,note_on,,,,,4,0,7,,,,,0,,,67,88
120832,note_off,,,,,256,0,14,,,,,6,,,43,100
120832,note_off,,,,,64,0,7,,,,,0,,,67,100
120832,note_off,,,,,256,0,11,,,,,4,,,43,100
120864,note_on,,,,,32,0,7,,,,,0,,,67,88
120928,note_off,,,,,64,0,7,,,,,0,,,67,100
120960,note_on,,,,,32,0,7,,,,,0,,,67,88
121052,note_off,,,,,92,0,7,,,,,0,,,67,100
121056,note_on,,,,,4,0,7,,,,,0,,,71,92
121148,note_off,,,,,92,0,7,,,,,0,,,71,100
121152,note_on,,,,,320,0,14,,,,,6,,,55,100
121152,note_on,,,,,4,0,7,,,,,0,,,77,95
121152,note_on,,,,,320,0,11,,,,,4,,,55,60
121216,note_off,,,,,64,0,7,,,,,0,,,77,100
121248,note_on,,,,,32,0,7,,,,,0,,,77,95
121280,note_off,,,,,128,0,11,,,,,4,,,55,100
121280,note_off,,,,,128,0,14,,,,,6,,,55,100
121312,note_off,,,,,64,0,7,,,,,0,,,77,100
121344,note_on,,,,,768,0,13,,,,,6,,,66,100
121344,note_on,,,,,64,0,14,,,,,6,,,42,100
121344,note_on,,,,,64,0,11,,,,,4,,,42,60
121344,note_on,,,,,32,0,7,,,,,0,,,78,96
121372,note_on,,,,,28,0,13,,,,,6,,,70,100
121404,note_on,,,,,32,0,13,,,,,6,,,73,100
121436,note_off,,,,,92,0,7,,,,,0,,,78,100
121440,note_on,,,,,4,0,7,,,,,0,,,73,93
121472,note_off,,,,,128,0,11,,,,,4,,,42,100
121472,note_off,,,,,128,0,14,,,,,6,,,42,100
121532,note_off,,,,,92,0,7,,,,,0,,,73,100
121536,note_on,,,,,4,0,7,,,,,0,,,70,90
121536,note_on,,,,,64,0,11,,,,,4,,,42,60
121536,note_on,,,,,64,0,14,,,,,6,,,42,100
121600,note_off,,,,,64,0,7,,,,,0,,,70,100
121632,note_on,,,,,32,0,7,,,,,0,,,70,91
121664,note_off,,,,,128,0,11,,,,,4,,,42,100
121664,note_off,,,,,128,0,14,,,,,6,,,42,100
121696,note_off,,,,,64,0,7,,,,,0,,,70,100
121728,note_on,,,,,64,0,14,,,,,6,,,42,100
121728,note_on,,,,,32,0,7,,,,,0,,,70,91
121728,note_on,,,,,64,0,11,,,,,4,,,42,60
121820,note_off,,,,,92,0,7,,,,,0,,,70,100
121824,note_on,,,,,4,0,7,,,,,0,,,73,95
121856,note_off,,,,,128,0,11,,,,,4,,,42,100
121856,note_off,,,,,128,0,14,,,,,6,,,42,100
121916,note_off,,,,,92,0,7,,,,,0,,,73,100
121920,note_on,,,,,4,0,7,,,,,0,,,78,98
121920,note_on,,,,,64,0,11,,,,,4,,,42,60
121920,note_on,,,,,64,0,14,,,,,6,,,42,100
121984,note_off,,,,,64,0,7,,,,,0,,,78,100
122016,note_on,,,,,32,0,7,,,,,0,,,78,98
122048,note_off,,,,,128,0,11,,,,,4,,,42,100
122048,note_off,,,,,128,0,14,,,,,6,,,42,100
122080,note_off,,,,,64,0,7,,,,,0,,,78,100
122108,note_off,,,,,0,0,13,,,,,6,,,73,100
122108,note_off,,,,,704,0,13,,,,,6,,,70,100
122112,note_on,,,,,64,0,11,,,,,4,,,42,60
122112,note_on,,,,,64,0,14,,,,,6,,,42,100
122112,note_on,,,,,32,0,7,,,,,0,,,78,99
122112,note_off,,,,,4,0,13,,,,,6,,,66,100
122204,note_off,,,,,92,0,7,,,,,0,,,78,100
122208,note_on,,,,,4,0,7,,,,,0,,,73,96
122300,note_off,,,,,92,0,7,,,,,0,,,73,100
122304,note_on,,,,,4,0,7,,,,,0,,,70,93
122368,note_off,,,,,256,0,11,,,,,4,,,42,100
122368,note_off,,,,,64,0,7,,,,,0,,,70,100
122368,note_off,,,,,256,0,14,,,,,6,,,42,100
122400,note_on,,,,,32,0,7,,,,,0,,,70,94
122464,note_off,,,,,64,0,7,,,,,0,,,70,100
122496,note_on,,,,,32,0,7,,,,,0,,,70,94
122588,note_off,,,,,92,0,7,,,,,0,,,70,100
122592,note_on,,,,,4,0,7,,,,,0,,,73,97
122684,note_off,,,,,92,0,7,,,,,0,,,73,100
122688,note_on,,,,,320,0,11,,,,,4,,,54,60
122688,note_on,,,,,320,0,14,,,,,6,,,54,100
122688,note_on,,,,,4,0,7,,,,,0,,,78,101
122752,note_off,,,,,64,0,7,,,,,0,,,78,100
122784,note_on,,,,,32,0,7,,,,,0,,,78,101
122816,note_off,,,,,128,0,11,,,,,4,,,54,100
122816,note_off,,,,,128,0,14,,,,,6,,,54,100
122848,note_off,,,,,64,0,7,,,,,0,,,78,100
122880,note_on,,,,,32,0,7,,,,,0,,,78,101
122880,note_on,,,,,64,0,14,,,,,6,,,42,100
122880,note_on,,,,,64,0,11,,,,,4,,,42,60
122880,note_on,,,,,768,0,13,,,,,6,,,66,100
122908,note_on,,,,,28,0,13,,,,,6,,,70,100
122940,note_on,,,,,32,0,13,,,,,6,,,73,100
122972,note_off,,,,,92,0,7,,,,,0,,,78,100
122976,note_on,,,,,4,0,7,,,,,0,,,73,100
123008,note_off,,,,,128,0,14,,,,,6,,,42,100
123008,note_off,,,,,128,0,11,,,,,4,,,42,100
123068,note_off,,,,,92,0,7,,,,,0,,,73,100
123072,note_on,,,,,64,0,14,,,,,6,,,42,100
123072,note_on,,,,,64,0,11,,,,,4,,,42,60
123072,note_on,,,,,4,0,7,,,,,0,,,70,99
123136,note_off,,,,,64,0,7,,,,,0,,,70,100
123168,note_on,,,,,32,0,7,,,,,0,,,61,98
123200,note_off,,,,,128,0,14,,,,,6,,,42,100
123200,note_off,,,,,128,0,11,,,,,4,,,42,100
123232,note_off,,,,,64,0,7,,,,,0,,,61,100
123264,note_on,,,,,64,0,14,,,,,6,,,42,100
123264,note_on,,,,,32,0,7,,,,,0,,,61,96
123264,note_on,,,,,64,0,11,,,,,4,,,42,60
123356,note_off,,,,,92,0,7,,,,,0,,,61,100
123360,note_on,,,,,4,0,7,,,,,0,,,70,96
123392,note_off,,,,,128,0,14,,,,,6,,,42,100
123392,note_off,,,,,128,0,11,,,,,4,,,42,100
123452,note_off,,,,,92,0,7,,,,,0,,,70,100
123456,note_on,,,,,64,0,14,,,,,6,,,42,100
123456,note_on,,,,,64,0,11,,,,,4,,,42,60
123456,note_on,,,,,4,0,7,,,,,0,,,73,96
123520,note_off,,,,,64,0,7,,,,,0,,,73,100
123552,note_on,,,,,32,0,7,,,,,0,,,78,97
123584,note_off,,,,,128,0,11,,,,,4,,,42,100
123584,note_off,,,,,128,0,14,,,,,6,,,42,100
123616,note_off,,,,,64,0,7,,,,,0,,,78,100
123644,note_off,,,,,704,0,13,,,,,6,,,70,100
123644,note_off,,,,,0,0,13,,,,,6,,,73,100
123648,note_on,,,,,32,0,7,,,,,0,,,82,97
123648,note_on,,,,,64,0,14,,,,,6,,,42,100
123648,note_off,,,,,4,0,13,,,,,6,,,66,100
123648,note_on,,,,,64,0,11,,,,,4,,,42,60
123740,note_off,,,,,92,0,7,,,,,0,,,82,100
123744,note_on,,,,,4,0,7,,,,,0,,,85,98
123836,note_off,,,,,92,0,7,,,,,0,,,85,100
123840,note_on,,,,,4,0,7,,,,,0,,,83,98
123904,note_off,,,,,256,0,11,,,,,4,,,42,100
123904,note_off,,,,,64,0,7,,,,,0,,,83,100
123904,note_off,,,,,256,0,14,,,,,6,,,42,100
123936,note_on,,,,,32,0,7,,,,,0,,,85,99
124000,note_off,,,,,64,0,7,,,,,0,,,85,100
124032,note_on,,,,,32,0,7,,,,,0,,,82,99
124096,note_off,,,,,64,0,7,,,,,0,,,82,100
124128,note_on,,,,,32,0,7,,,,,0,,,83,100
124192,note_off,,,,,64,0,7,,,,,0,,,83,100
124224,note_on,,,,,32,0,7,,,,,0,,,85,100
124288,note_off,,,,,64,0,7,,,,,0,,,85,100
124320,note_on,,,,,32,0,7,,,,,0,,,82,100
124384,note_off,,,,,64,0,7,,,,,0,,,82,100
124416,note_on,,,,,0,0,13,,,,,6,,,73,100
124416,note_on,,,,,0,0,13,,,,,6,,,64,100
124416,note_on,,,,,512,0,11,,,,,4,,,54,60
124416,note_on,,,,,32,0,7,,,,,0,,,76,100
124416,note_on,,,,,512,0,14,,,,,6,,,54,100
124416,note_on,,,,,768,0,13,,,,,6,,,70,100
124508,note_off,,,,,92,0,7,,,,,0,,,76,100
124512,note_on,,,,,4,0,7,,,,,0,,,82,100
124516,note_off,,,,,100,0,11,,,,,4,,,54,100
124516,note_off,,,,,100,0,14,,,,,6,,,54,100
124544,note_off,,,,,0,0,13,,,,,6,,,73,100
124544,note_off,,,,,128,0,13,,,,,6,,,70,100
124604,note_off,,,,,92,0,7,,,,,0,,,82,100
124608,note_on,,,,,92,0,14,,,,,6,,,55,100
124608,note_on,,,,,92,0,11,,,,,4,,,55,60
124608,note_on,,,,,4,0,7,,,,,0,,,83,100
124608,note_on,,,,,64,0,13,,,,,6,,,71,100
124672,note_off,,,,,64,0,7,,,,,0,,,83,100
124672,note_off,,,,,64,0,13,,,,,6,,,64,100
124704,note_on,,,,,32,0,7,,,,,0,,,85,100
124708,note_off,,,,,100,0,11,,,,,4,,,55,100
124708,note_off,,,,,100,0,14,,,,,6,,,55,100
124736,note_off,,,,,64,0,13,,,,,6,,,71,100
124768,note_off,,,,,64,0,7,,,,,0,,,85,100
124800,note_on,,,,,92,0,11,,,,,4,,,54,60
124800,note_on,,,,,0,0,13,,,,,6,,,70,100
124800,note_on,,,,,0,0,13,,,,,6,,,64,100
124800,note_on,,,,,64,0,13,,,,,6,,,61,100
124800,note_on,,,,,32,0,7,,,,,0,,,82,100
124800,note_on,,,,,92,0,14,,,,,6,,,54,100
124864,note_off,,,,,64,0,7,,,,,0,,,82,100
124896,note_on,,,,,32,0,7,,,,,0,,,80,100
124900,note_off,,,,,100,0,11,,,,,4,,,54,100
124900,note_off,,,,,100,0,14,,,,,6,,,54,100
124928,note_off,,,,,0,0,13,,,,,6,,,70,100
124928,note_off,,,,,0,0,13,,,,,6,,,64,100
124928,note_off,,,,,128,0,13,,,,,6,,,61,100
124960,note_off,,,,,64,0,7,,,,,0,,,80,100
124992,note_on,,,,,32,0,7,,,,,0,,,78,100
124992,note_on,,,,,92,0,14,,,,,6,,,46,100
124992,note_on,,,,,64,0,13,,,,,6,,,61,100
124992,note_on,,,,,0,0,13,,,,,6,,,64,100
124992,note_on,,,,,0,0,13,,,,,6,,,73,100
124992,note_on,,,,,92,0,11,,,,,4,,,46,60
125056,note_off,,,,,64,0,7,,,,,0,,,78,100
125088,note_on,,,,,32,0,7,,,,,0,,,76,100
125092,note_off,,,,,100,0,14,,,,,6,,,46,100
125092,note_off,,,,,100,0,11,,,,,4,,,46,100
125120,note_off,,,,,128,0,13,,,,,6,,,61,100
125120,note_off,,,,,0,0,13,,,,,6,,,73,100
125120,note_off,,,,,0,0,13,,,,,6,,,64,100
125152,note_off,,,,,64,0,7,,,,,0,,,76,100
125184,note_on,,,,,0,0,13,,,,,6,,,66,100
125184,note_on,,,,,32,0,7,,,,,0,,,75,100
125184,note_on,,,,,92,0,14,,,,,6,,,47,100
125184,note_on,,,,,0,0,13,,,,,6,,,71,100
125184,note_on,,,,,92,0,11,,,,,4,,,47,60
125184,note_on,,,,,64,0,13,,,,,6,,,63,100
125276,note_off,,,,,92,0,7,,,,,0,,,75,100
125280,note_on,,,,,4,0,7,,,,,0,,,78,100
125372,note_off,,,,,92,0,7,,,,,0,,,78,100
125376,note_on,,,,,4,0,7,,,,,0,,,76,99
125440,note_off,,,,,256,0,14,,,,,6,,,47,100
125440,note_off,,,,,256,0,11,,,,,4,,,47,100
125440,note_off,,,,,64,0,7,,,,,0,,,76,100
125440,note_off,,,,,0,0,13,,,,,6,,,66,100
125440,note_off,,,,,0,0,13,,,,,6,,,71,100
125440,note_off,,,,,256,0,13,,,,,6,,,63,100
125472,note_on,,,,,32,0,7,,,,,0,,,78,99
125536,note_off,,,,,64,0,7,,,,,0,,,78,100
125568,note_on,,,,,32,0,7,,,,,0,,,75,98
125632,note_off,,,,,64,0,7,,,,,0,,,75,100
125664,note_on,,,,,32,0,7,,,,,0,,,76,97
125728,note_off,,,,,64,0,7,,,,,0,,,76,100
125760,note_on,,,,,32,0,7,,,,,0,,,78,97
125824,note_off,,,,,64,0,7,,,,,0,,,78,100
125856,note_on,,,,,32,0,7,,,,,0,,,75,96
125920,note_off,,,,,64,0,7,,,,,0,,,75,100
125952,note_on,,,,,512,0,13,,,,,6,,,69,100
125952,note_on,,,,,0,0,13,,,,,6,,,63,100
125952,note_on,,,,,512,0,14,,,,,6,,,59,100
125952,note_on,,,,,512,0,11,,,,,4,,,59,60
125952,note_on,,,,,32,0,7,,,,,0,,,69,95
125952,note_on,,,,,0,0,13,,,,,6,,,66,100
126044,note_off,,,,,92,0,7,,,,,0,,,69,100
126048,note_on,,,,,4,0,7,,,,,0,,,75,95
126052,note_off,,,,,100,0,14,,,,,6,,,59,100
126052,note_off,,,,,100,0,11,,,,,4,,,59,100
126080,note_off,,,,,128,0,13,,,,,6,,,63,100
126080,note_off,,,,,0,0,13,,,,,6,,,66,100
126140,note_off,,,,,92,0,7,,,,,0,,,75,100
126144,note_on,,,,,92,0,11,,,,,4,,,60,60
126144,note_on,,,,,4,0,7,,,,,0,,,76,94
126144,note_on,,,,,92,0,14,,,,,6,,,60,100
126144,note_on,,,,,64,0,13,,,,,6,,,64,100
126208,note_off,,,,,64,0,7,,,,,0,,,76,100
126208,note_off,,,,,64,0,13,,,,,6,,,69,100
126240,note_on,,,,,32,0,7,,,,,0,,,78,93
126244,note_off,,,,,100,0,11,,,,,4,,,60,100
126244,note_off,,,,,100,0,14,,,,,6,,,60,100
126272,note_off,,,,,64,0,13,,,,,6,,,64,100
126304,note_off,,,,,64,0,7,,,,,0,,,78,100
126336,note_on,,,,,92,0,11,,,,,4,,,59,60
126336,note_on,,,,,32,0,7,,,,,0,,,75,93
126336,note_on,,,,,64,0,13,,,,,6,,,63,100
126336,note_on,,,,,0,0,13,,,,,6,,,66,100
126336,note_on,,,,,0,0,13,,,,,6,,,69,100
126336,note_on,,,,,92,0,14,,,,,6,,,59,100
126400,note_off,,,,,64,0,7,,,,,0,,,75,100
126432,note_on,,,,,32,0,7,,,,,0,,,73,92
126436,note_off,,,,,100,0,11,,,,,4,,,59,100
126436,note_off,,,,,100,0,14,,,,,6,,,59,100
126464,note_off,,,,,128,0,13,,,,,6,,,63,100
126464,note_off,,,,,0,0,13,,,,,6,,,66,100
126464,note_off,,,,,0,0,13,,,,,6,,,69,100
126496,note_off,,,,,64,0,7,,,,,0,,,73,100
126528,note_on,,,,,92,0,14,,,,,6,,,51,100
126528,note_on,,,,,92,0,11,,,,,4,,,51,60
126528,note_on,,,,,32,0,7,,,,,0,,,71,91
126528,note_on,,,,,0,0,13,,,,,6,,,66,100
126528,note_on,,,,,0,0,13,,,,,6,,,57,100
126528,note_on,,,,,64,0,13,,,,,6,,,66,100
126592,note_off,,,,,64,0,7,,,,,0,,,71,100
126624,note_on,,,,,32,0,7,,,,,0,,,69,91
126628,note_off,,,,,100,0,14,,,,,6,,,51,100
126628,note_off,,,,,100,0,11,,,,,4,,,51,100
126656,note_off,,,,,0,0,13,,,,,6,,,66,100
126656,note_off,,,,,128,0,13,,,,,6,,,66,100
126656,note_off,,,,,0,0,13,,,,,6,,,57,100
126688,note_off,,,,,64,0,7,,,,,0,,,69,100
126720,note_on,,,,,92,0,14,,,,,6,,,52,100
126720,note_on,,,,,0,0,13,,,,,6,,,68,100
126720,note_on,,,,,0,0,13,,,,,6,,,59,100
126720,note_on,,,,,32,0,7,,,,,0,,,80,96
126720,note_on,,,,,64,0,13,,,,,6,,,64,100
126720,note_on,,,,,92,0,11,,,,,4,,,52,60
126812,note_off,,,,,92,0,7,,,,,0,,,80,100
126816,note_on,,,,,4,0,7,,,,,0,,,83,96
126908,note_off,,,,,92,0,7,,,,,0,,,83,100
126912,note_on,,,,,4,0,7,,,,,0,,,81,97
126976,note_off,,,,,256,0,13,,,,,6,,,64,100
126976,note_off,,,,,256,0,11,,,,,4,,,52,100
126976,note_off,,,,,256,0,14,,,,,6,,,52,100
126976,note_off,,,,,0,0,13,,,,,6,,,68,100
126976,note_off,,,,,64,0,7,,,,,0,,,81,100
126976,note_off,,,,,0,0,13,,,,,6,,,59,100
127008,note_on,,,,,32,0,7,,,,,0,,,83,98
127072,note_off,,,,,64,0,7,,,,,0,,,83,100
127104,note_on,,,,,32,0,7,,,,,0,,,80,99
127168,note_off,,,,,64,0,7,,,,,0,,,80,100
127200,note_on,,,,,32,0,7,,,,,0,,,81,100
127264,note_off,,,,,64,0,7,,,,,0,,,81,100
127296,note_on,,,,,32,0,7,,,,,0,,,83,100
127360,note_off,,,,,64,0,7,,,,,0,,,83,100
127392,note_on,,,,,32,0,7,,,,,0,,,80,100
127456,note_off,,,,,64,0,7,,,,,0,,,80,100
127488,note_on,,,,,32,0,7,,,,,0,,,74,100
127488,note_on,,,,,512,0,13,,,,,6,,,68,100
127488,note_on,,,,,512,0,14,,,,,6,,,52,100
127488,note_on,,,,,512,0,11,,,,,4,,,52,60
127488,note_on,,,,,0,0,13,,,,,6,,,62,100
127488,note_on,,,,,0,0,13,,,,,6,,,71,100
127580,note_off,,,,,92,0,7,,,,,0,,,74,100
127584,note_on,,,,,4,0,7,,,,,0,,,80,100
127588,note_off,,,,,100,0,14,,,,,6,,,52,100
127588,note_off,,,,,100,0,11,,,,,4,,,52,100
127616,note_off,,,,,0,0,13,,,,,6,,,71,100
127616,note_off,,,,,128,0,13,,,,,6,,,68,100
127676,note_off,,,,,92,0,7,,,,,0,,,80,100
127680,note_on,,,,,4,0,7,,,,,0,,,81,100
127680,note_on,,,,,64,0,13,,,,,6,,,69,100
127680,note_on,,,,,92,0,14,,,,,6,,,53,100
127680,note_on,,,,,92,0,11,,,,,4,,,53,60
127744,note_off,,,,,64,0,7,,,,,0,,,81,100
127744,note_off,,,,,64,0,13,,,,,6,,,62,100
127776,note_on,,,,,32,0,7,,,,,0,,,83,100
127780,note_off,,,,,100,0,11,,,,,4,,,53,100
127780,note_off,,,,,100,0,14,,,,,6,,,53,100
127808,note_off,,,,,64,0,13,,,,,6,,,69,100
127840,note_off,,,,,64,0,7,,,,,0,,,83,100
127872,note_on,,,,,92,0,14,,,,,6,,,52,100
127872,note_on,,,,,92,0,11,,,,,4,,,52,60
127872,note_on,,,,,32,0,7,,,,,0,,,80,100
127872,note_on,,,,,0,0,13,,,,,6,,,68,100
127872,note_on,,,,,0,0,13,,,,,6,,,62,100
127872,note_on,,,,,64,0,13,,,,,6,,,59,100
127936,note_off,,,,,64,0,7,,,,,0,,,80,100
127968,note_on,,,,,32,0,7,,,,,0,,,78,100
127972,note_off,,,,,100,0,11,,,,,4,,,52,100
127972,note_off,,,,,100,0,14,,,,,6,,,52,100
128000,note_off,,,,,0,0,13,,,,,6,,,68,100
128000,note_off,,,,,128,0,13,,,,,6,,,59,100
128000,note_off,,,,,0,0,13,,,,,6,,,62,100
128032,note_off,,,,,64,0,7,,,,,0,,,78,100
128064,note_on,,,,,32,0,7,,,,,0,,,76,100
128064,note_on,,,,,92,0,11,,,,,4,,,44,60
128064,note_on,,,,,64,0,13,,,,,6,,,59,100
128064,note_on,,,,,92,0,14,,,,,6,,,44,100
128064,note_on,,,,,0,0,13,,,,,6,,,71,100
128064,note_on,,,,,0,0,13,,,,,6,,,62,100
128128,note_off,,,,,64,0,7,,,,,0,,,76,100
128160,note_on,,,,,32,0,7,,,,,0,,,74,100
128164,note_off,,,,,100,0,11,,,,,4,,,44,100
128164,note_off,,,,,100,0,14,,,,,6,,,44,100
128192,note_off,,,,,0,0,13,,,,,6,,,62,100
128192,note_off,,,,,128,0,13,,,,,6,,,59,100
128192,note_off,,,,,0,0,13,,,,,6,,,71,100
128224,note_off,,,,,64,0,7,,,,,0,,,74,100
128256,note_on,,,,,32,0,7,,,,,0,,,73,100
128256,note_on,,,,,64,0,13,,,,,6,,,61,100
128256,note_on,,,,,0,0,13,,,,,6,,,69,100
128256,note_on,,,,,92,0,14,,,,,6,,,45,100
128256,note_on,,,,,92,0,11,,,,,4,,,45,60
128256,note_on,,,,,0,0,13,,,,,6,,,64,100
128348,note_off,,,,,92,0,7,,,,,0,,,73,100
128352,note_on,,,,,4,0,7,,,,,0,,,76,100
128444,note_off,,,,,92,0,7,,,,,0,,,76,100
128448,note_on,,,,,4,0,7,,,,,0,,,74,99
128512,note_off,,,,,0,0,13,,,,,6,,,69,100
128512,note_off,,,,,256,0,14,,,,,6,,,45,100
128512,note_off,,,,,256,0,11,,,,,4,,,45,100
128512,note_off,,,,,64,0,7,,,,,0,,,74,100
128512,note_off,,,,,256,0,13,,,,,6,,,61,100
128512,note_off,,,,,0,0,13,,,,,6,,,64,100
128544,note_on,,,,,32,0,7,,,,,0,,,76,99
128608,note_off,,,,,64,0,7,,,,,0,,,76,100
128640,note_on,,,,,32,0,7,,,,,0,,,73,98
128704,note_off,,,,,64,0,7,,,,,0,,,73,100
128736,note_on,,,,,32,0,7,,,,,0,,,74,98
128800,note_off,,,,,64,0,7,,,,,0,,,74,100
128832,note_on,,,,,32,0,7,,,,,0,,,76,97
128896,note_off,,,,,64,0,7,,,,,0,,,76,100
128928,note_on,,,,,32,0,7,,,,,0,,,73,97
128992,note_off,,,,,64,0,7,,,,,0,,,73,100
129024,note_on,,,,,512,0,14,,,,,6,,,57,100
129024,note_on,,,,,512,0,11,,,,,4,,,57,60
129024,note_on,,,,,0,0,13,,,,,6,,,64,100
129024,note_on,,,,,0,0,13,,,,,6,,,61,100
129024,note_on,,,,,32,0,7,,,,,0,,,67,96
129024,note_on,,,,,512,0,13,,,,,6,,,67,100
129116,note_off,,,,,92,0,7,,,,,0,,,67,100
129120,note_on,,,,,4,0,7,,,,,0,,,73,96
129124,note_off,,,,,100,0,11,,,,,4,,,57,100
129124,note_off,,,,,100,0,14,,,,,6,,,57,100
129152,note_off,,,,,0,0,13,,,,,6,,,64,100
129152,note_off,,,,,128,0,13,,,,,6,,,61,100
129212,note_off,,,,,92,0,7,,,,,0,,,73,100
129216,note_on,,,,,64,0,13,,,,,6,,,62,100
129216,note_on,,,,,4,0,7,,,,,0,,,74,95
129216,note_on,,,,,92,0,14,,,,,6,,,58,100
129216,note_on,,,,,92,0,11,,,,,4,,,58,60
129280,note_off,,,,,64,0,7,,,,,0,,,74,100
129280,note_off,,,,,64,0,13,,,,,6,,,67,100
129312,note_on,,,,,32,0,7,,,,,0,,,76,95
129316,note_off,,,,,100,0,14,,,,,6,,,58,100
129316,note_off,,,,,100,0,11,,,,,4,,,58,100
129344,note_off,,,,,64,0,13,,,,,6,,,62,100
129376,note_off,,,,,64,0,7,,,,,0,,,76,100
129408,note_on,,,,,64,0,13,,,,,6,,,61,100
129408,note_on,,,,,0,0,13,,,,,6,,,64,100
129408,note_on,,,,,0,0,13,,,,,6,,,67,100
129408,note_on,,,,,32,0,7,,,,,0,,,73,94
129408,note_on,,,,,92,0,11,,,,,4,,,57,60
129408,note_on,,,,,92,0,14,,,,,6,,,57,100
129472,note_off,,,,,64,0,7,,,,,0,,,73,100
129504,note_on,,,,,32,0,7,,,,,0,,,71,94
129508,note_off,,,,,100,0,14,,,,,6,,,57,100
129508,note_off,,,,,100,0,11,,,,,4,,,57,100
129536,note_off,,,,,128,0,13,,,,,6,,,61,100
129536,note_off,,,,,0,0,13,,,,,6,,,64,100
129536,note_off,,,,,0,0,13,,,,,6,,,67,100
129568,note_off,,,,,64,0,7,,,,,0,,,71,100
129600,note_on,,,,,32,0,7,,,,,0,,,69,93
129600,note_on,,,,,64,0,13,,,,,6,,,64,100
129600,note_on,,,,,0,0,13,,,,,6,,,55,100
129600,note_on,,,,,0,0,13,,,,,6,,,64,100
129600,note_on,,,,,92,0,11,,,,,4,,,49,60
129600,note_on,,,,,92,0,14,,,,,6,,,49,100
129664,note_off,,,,,64,0,7,,,,,0,,,69,100
129696,note_on,,,,,32,0,7,,,,,0,,,67,93
129700,note_off,,,,,100,0,11,,,,,4,,,49,100
129700,note_off,,,,,100,0,14,,,,,6,,,49,100
129728,note_off,,,,,128,0,13,,,,,6,,,64,100
129728,note_off,,,,,0,0,13,,,,,6,,,55,100
129728,note_off,,,,,0,0,13,,,,,6,,,64,100
129760,note_off,,,,,64,0,7,,,,,0,,,67,100
129792,note_on,,,,,92,0,14,,,,,6,,,50,100
129792,note_on,,,,,92,0,11,,,,,4,,,50,60
129792,note_on,,,,,32,0,7,,,,,0,,,78,100
129792,note_on,,,,,0,0,13,,,,,6,,,66,100
129792,note_on,,,,,0,0,13,,,,,6,,,57,100
129792,note_on,,,,,64,0,13,,,,,6,,,62,100
129884,note_off,,,,,92,0,7,,,,,0,,,78,100
129888,note_on,,,,,4,0,7,,,,,0,,,81,100
129980,note_off,,,,,92,0,7,,,,,0,,,81,100
129984,note_on,,,,,4,0,7,,,,,0,,,79,100
130048,note_off,,,,,256,0,14,,,,,6,,,50,100
130048,note_off,,,,,64,0,7,,,,,0,,,79,100
130048,note_off,,,,,0,0,13,,,,,6,,,57,100
130048,note_off,,,,,256,0,13,,,,,6,,,62,100
130048,note_off,,,,,0,0,13,,,,,6,,,66,100
130048,note_off,,,,,256,0,11,,,,,4,,,50,100
130080,note_on,,,,,32,0,7,,,,,0,,,81,99
130144,note_off,,,,,64,0,7,,,,,0,,,81,100
130176,note_on,,,,,32,0,7,,,,,0,,,78,99
130240,note_off,,,,,64,0,7,,,,,0,,,78,100
130272,note_on,,,,,32,0,7,,,,,0,,,79,98
130336,note_off,,,,,64,0,7,,,,,0,,,79,100
130368,note_on,,,,,32,0,7,,,,,0,,,81,98
130432,note_off,,,,,64,0,7,,,,,0,,,81,100
130464,note_on,,,,,32,0,7,,,,,0,,,78,97
130528,note_off,,,,,64,0,7,,,,,0,,,78,100
130560,note_on,,,,,512,0,14,,,,,6,,,50,100
130560,note_on,,,,,512,0,11,,,,,4,,,50,60
130560,note_on,,,,,0,0,13,,,,,6,,,60,100
130560,note_on,,,,,0,0,13,,,,,6,,,69,100
130560,note_on,,,,,512,0,13,,,,,6,,,66,100
130560,note_on,,,,,32,0,7,,,,,0,,,72,97
130652,note_off,,,,,92,0,7,,,,,0,,,72,100
130656,note_on,,,,,4,0,7,,,,,0,,,78,97
130660,note_off,,,,,100,0,14,,,,,6,,,50,100
130660,note_off,,,,,100,0,11,,,,,4,,,50,100
130688,note_off,,,,,0,0,13,,,,,6,,,69,100
130688,note_off,,,,,128,0,13,,,,,6,,,66,100
130748,note_off,,,,,92,0,7,,,,,0,,,78,100
130752,note_on,,,,,64,0,13,,,,,6,,,67,100
130752,note_on,,,,,4,0,7,,,,,0,,,79,96
130752,note_on,,,,,92,0,11,,,,,4,,,52,60
130752,note_on,,,,,92,0,14,,,,,6,,,52,100
130816,note_off,,,,,64,0,13,,,,,6,,,60,100
130816,note_off,,,,,64,0,7,,,,,0,,,79,100
130848,note_on,,,,,32,0,7,,,,,0,,,81,96
130852,note_off,,,,,100,0,14,,,,,6,,,52,100
130852,note_off,,,,,100,0,11,,,,,4,,,52,100
130880,note_off,,,,,64,0,13,,,,,6,,,67,100
130912,note_off,,,,,64,0,7,,,,,0,,,81,100
130944,note_on,,,,,0,0,13,,,,,6,,,66,100
130944,note_on,,,,,0,0,13,,,,,6,,,60,100
130944,note_on,,,,,64,0,13,,,,,6,,,57,100
130944,note_on,,,,,92,0,14,,,,,6,,,50,100
130944,note_on,,,,,92,0,11,,,,,4,,,50,60
130944,note_on,,,,,32,0,7,,,,,0,,,78,95
131008,note_off,,,,,64,0,7,,,,,0,,,78,100
131040,note_on,,,,,32,0,7,,,,,0,,,76,95
131044,note_off,,,,,100,0,14,,,,,6,,,50,100
131044,note_off,,,,,100,0,11,,,,,4,,,50,100
131072,note_off,,,,,0,0,13,,,,,6,,,66,100
131072,note_off,,,,,128,0,13,,,,,6,,,57,100
131072,note_off,,,,,0,0,13,,,,,6,,,60,100
131104,note_off,,,,,64,0,7,,,,,0,,,76,100
131136,note_on,,,,,92,0,14,,,,,6,,,42,100
131136,note_on,,,,,0,0,13,,,,,6,,,60,100
131136,note_on,,,,,64,0,13,,,,,6,,,57,100
131136,note_on,,,,,0,0,13,,,,,6,,,69,100
131136,note_on,,,,,32,0,7,,,,,0,,,74,94
131136,note_on,,,,,92,0,11,,,,,4,,,42,60
131200,note_off,,,,,64,0,7,,,,,0,,,74,100
131232,note_on,,,,,32,0,7,,,,,0,,,72,94
131236,note_off,,,,,100,0,11,,,,,4,,,42,100
131236,note_off,,,,,100,0,14,,,,,6,,,42,100
131264,note_off,,,,,0,0,13,,,,,6,,,69,100
131264,note_off,,,,,0,0,13,,,,,6,,,60,100
131264,note_off,,,,,128,0,13,,,,,6,,,57,100
131296,note_off,,,,,64,0,7,,,,,0,,,72,100
131328,note_on,,,,,64,0,13,,,,,6,,,59,100
131328,note_on,,,,,92,0,11,,,,,4,,,43,60
131328,note_on,,,,,32,0,7,,,,,0,,,71,94
131328,note_on,,,,,0,0,13,,,,,6,,,67,100
131328,note_on,,,,,0,0,13,,,,,6,,,62,100
131328,note_on,,,,,92,0,14,,,,,6,,,43,100
131420,note_off,,,,,92,0,7,,,,,0,,,71,100
131424,note_on,,,,,4,0,7,,,,,0,,,74,93
131516,note_off,,,,,92,0,7,,,,,0,,,74,100
131520,note_on,,,,,4,0,7,,,,,0,,,72,93
131584,note_off,,,,,256,0,13,,,,,6,,,59,100
131584,note_off,,,,,256,0,14,,,,,6,,,43,100
131584,note_off,,,,,256,0,11,,,,,4,,,43,100
131584,note_off,,,,,64,0,7,,,,,0,,,72,100
131584,note_off,,,,,0,0,13,,,,,6,,,62,100
131584,note_off,,,,,0,0,13,,,,,6,,,67,100
131616,note_on,,,,,32,0,7,,,,,0,,,74,92
131680,note_off,,,,,64,0,7,,,,,0,,,74,100
131712,note_on,,,,,32,0,7,,,,,0,,,71,92
131776,note_off,,,,,64,0,7,,,,,0,,,71,100
131808,note_on,,,,,32,0,7,,,,,0,,,74,91
131872,note_off,,,,,64,0,7,,,,,0,,,74,100
131904,note_on,,,,,32,0,7,,,,,0,,,72,91
131968,note_off,,,,,64,0,7,,,,,0,,,72,100
132000,note_on,,,,,32,0,7,,,,,0,,,71,91
132064,note_off,,,,,64,0,7,,,,,0,,,71,100
132096,note_on,,,,,512,0,13,,,,,6,,,59,100
132096,note_on,,,,,512,0,11,,,,,4,,,43,60
132096,note_on,,,,,512,0,14,,,,,6,,,43,100
132096,note_on,,,,,0,0,13,,,,,6,,,64,100
132096,note_on,,,,,0,0,13,,,,,6,,,71,100
132096,note_on,,,,,32,0,7,,,,,0,,,76,90
132188,note_off,,,,,92,0,7,,,,,0,,,76,100
132192,note_on,,,,,4,0,7,,,,,0,,,79,90
132284,note_off,,,,,92,0,7,,,,,0,,,79,100
132288,note_on,,,,,4,0,7,,,,,0,,,78,91
132352,note_off,,,,,64,0,7,,,,,0,,,78,100
132352,note_off,,,,,256,0,14,,,,,6,,,43,100
132352,note_off,,,,,256,0,11,,,,,4,,,43,100
132352,note_off,,,,,0,0,13,,,,,6,,,71,100
132352,note_off,,,,,256,0,13,,,,,6,,,59,100
132352,note_off,,,,,0,0,13,,,,,6,,,64,100
132384,note_on,,,,,32,0,7,,,,,0,,,79,92
132448,note_off,,,,,64,0,7,,,,,0,,,79,100
132480,note_on,,,,,32,0,7,,,,,0,,,76,92
132544,note_off,,,,,64,0,7,,,,,0,,,76,100
132576,note_on,,,,,32,0,7,,,,,0,,,79,93
132640,note_off,,,,,64,0,7,,,,,0,,,79,100
132672,note_on,,,,,32,0,7,,,,,0,,,78,94
132736,note_off,,,,,64,0,7,,,,,0,,,78,100
132768,note_on,,,,,32,0,7,,,,,0,,,76,95
132832,note_off,,,,,64,0,7,,,,,0,,,76,100
132864,note_on,,,,,512,0,14,,,,,6,,,55,100
132864,note_on,,,,,512,0,13,,,,,6,,,76,100
132864,note_on,,,,,32,0,7,,,,,0,,,83,95
132864,note_on,,,,,0,0,13,,,,,6,,,64,100
132864,note_on,,,,,0,0,13,,,,,6,,,71,100
132864,note_on,,,,,512,0,11,,,,,4,,,55,60
132956,note_off,,,,,92,0,7,,,,,0,,,83,100
132960,note_on,,,,,4,0,7,,,,,0,,,79,96
133052,note_off,,,,,92,0,7,,,,,0,,,79,100
133056,note_on,,,,,4,0,7,,,,,0,,,81,97
133120,note_off,,,,,0,0,13,,,,,6,,,64,100
133120,note_off,,,,,256,0,14,,,,,6,,,55,100
133120,note_off,,,,,0,0,13,,,,,6,,,71,100
133120,note_off,,,,,256,0,13,,,,,6,,,76,100
133120,note_off,,,,,64,0,7,,,,,0,,,81,100
133120,note_off,,,,,256,0,11,,,,,4,,,55,100
133152,note_on,,,,,32,0,7,,,,,0,,,83,98
133216,note_off,,,,,64,0,7,,,,,0,,,83,100
133248,note_on,,,,,32,0,7,,,,,0,,,76,98
133312,note_off,,,,,64,0,7,,,,,0,,,76,100
133344,note_on,,,,,32,0,7,,,,,0,,,79,99
133408,note_off,,,,,64,0,7,,,,,0,,,79,100
133440,note_on,,,,,32,0,7,,,,,0,,,78,100
133504,note_off,,,,,64,0,7,,,,,0,,,78,100
133536,note_on,,,,,32,0,7,,,,,0,,,76,101
133600,note_off,,,,,64,0,7,,,,,0,,,76,100
133632,note_on,,,,,512,0,11,,,,,4,,,57,60
133632,note_on,,,,,512,0,14,,,,,6,,,57,100
133632,note_on,,,,,0,0,13,,,,,6,,,64,100
133632,note_on,,,,,512,0,13,,,,,6,,,72,100
133632,note_on,,,,,32,0,7,,,,,0,,,84,101
133820,note_off,,,,,188,0,7,,,,,0,,,84,100
133824,note_on,,,,,4,0,7,,,,,0,,,88,100
133952,note_off,,,,,128,0,7,,,,,0,,,88,100
134016,note_on,,,,,64,0,7,,,,,0,,,84,100
134144,note_off,,,,,512,0,13,,,,,6,,,72,100
134144,note_off,,,,,0,0,13,,,,,6,,,64,100
134204,note_off,,,,,188,0,7,,,,,0,,,84,100
134208,note_on,,,,,4,0,7,,,,,0,,,83,100
134320,note_off,,,,,688,0,14,,,,,6,,,57,100
134320,note_off,,,,,688,0,11,,,,,4,,,57,100
134336,note_off,,,,,128,0,7,,,,,0,,,83,100
134400,note_on,,,,,0,0,13,,,,,6,,,64,100
134400,note_on,,,,,80,0,14,,,,,6,,,48,100
134400,note_on,,,,,64,0,7,,,,,0,,,81,100
134400,note_on,,,,,80,0,11,,,,,4,,,48,60
134400,note_on,,,,,256,0,13,,,,,6,,,69,100
134588,note_off,,,,,188,0,7,,,,,0,,,81,100
134592,note_on,,,,,4,0,7,,,,,0,,,84,101
134720,note_off,,,,,128,0,7,,,,,0,,,84,100
134784,note_on,,,,,64,0,7,,,,,0,,,81,102
134912,note_off,,,,,128,0,7,,,,,0,,,81,100
134972,note_off,,,,,572,0,13,,,,,6,,,69,100
134976,note_on,,,,,64,0,7,,,,,0,,,76,103
134976,note_on,,,,,4,0,13,,,,,6,,,67,100
135088,note_off,,,,,688,0,11,,,,,4,,,48,100
135088,note_off,,,,,688,0,14,,,,,6,,,48,100
135104,note_off,,,,,128,0,13,,,,,6,,,67,100
135164,note_off,,,,,188,0,7,,,,,0,,,76,100
135168,note_on,,,,,80,0,14,,,,,6,,,47,100
135168,note_on,,,,,4,0,7,,,,,0,,,78,105
135168,note_on,,,,,64,0,13,,,,,6,,,66,100
135168,note_on,,,,,80,0,11,,,,,4,,,47,79
135260,note_off,,,,,92,0,7,,,,,0,,,78,100
135264,note_on,,,,,4,0,7,,,,,0,,,76,104
135268,note_off,,,,,100,0,11,,,,,4,,,47,100
135268,note_off,,,,,100,0,14,,,,,6,,,47,100
135308,note_off,,,,,44,0,7,,,,,0,,,76,100
135312,note_on,,,,,4,0,7,,,,,0,,,78,104
135356,note_off,,,,,44,0,7,,,,,0,,,78,100
135360,note_on,,,,,92,0,11,,,,,4,,,59,84
135360,note_on,,,,,92,0,14,,,,,6,,,59,100
135360,note_on,,,,,4,0,7,,,,,0,,,76,103
135404,note_off,,,,,44,0,7,,,,,0,,,76,100
135408,note_on,,,,,4,0,7,,,,,0,,,78,102
135424,note_off,,,,,256,0,13,,,,,6,,,64,100
135452,note_off,,,,,44,0,7,,,,,0,,,78,100
135456,note_on,,,,,4,0,7,,,,,0,,,76,102
135460,note_off,,,,,100,0,11,,,,,4,,,59,100
135460,note_off,,,,,100,0,14,,,,,6,,,59,100
135548,note_off,,,,,92,0,7,,,,,0,,,76,100
135552,note_on,,,,,128,0,13,,,,,6,,,63,100
135552,note_on,,,,,92,0,14,,,,,6,,,59,100
135552,note_on,,,,,92,0,11,,,,,4,,,59,89
135552,note_on,,,,,4,0,7,,,,,0,,,75,101
135652,note_off,,,,,100,0,14,,,,,6,,,59,100
135652,note_off,,,,,100,0,11,,,,,4,,,59,100
135680,note_off,,,,,128,0,13,,,,,6,,,66,100
135744,note_on,,,,,37184,0,9,,,,,2,,,83,100
135744,note_on,,,,,92,0,14,,,,,6,,,57,100
135744,note_on,,,,,92,0,11,,,,,4,,,57,94
135808,note_off,,,,,128,0,13,,,,,6,,,63,100
135808,note_off,,,,,256,0,7,,,,,0,,,75,100
135824,note_off,,,,,80,0,9,,,,,2,,,83,100
135844,note_off,,,,,100,0,14,,,,,6,,,57,100
135844,note_off,,,,,100,0,11,,,,,4,,,57,100
135936,note_on,,,,,128,0,13,,,,,6,,,67,100
135936,note_on,,,,,37376,0,8,,,,,1,,,83,100
135936,note_on,,,,,92,0,14,,,,,6,,,55,100
135936,note_on,,,,,112,0,9,,,,,2,,,76,100
135936,note_on,,,,,92,0,11,,,,,4,,,55,99
135936,note_on,,,,,0,0,13,,,,,6,,,64,100
136036,note_off,,,,,0,0,13,,,,,6,,,64,100
136036,note_off,,,,,100,0,14,,,,,6,,,55,100
136036,note_off,,,,,100,0,9,,,,,2,,,76,100
136036,note_off,,,,,100,0,11,,,,,4,,,55,100
136036,note_off,,,,,100,0,13,,,,,6,,,67,100
136128,note_on,,,,,37568,0,12,,,,,5,,,52,100
136128,note_on,,,,,0,0,13,,,,,6,,,79,100
136128,note_on,,,,,92,0,13,,,,,6,,,71,100
136128,note_on,,,,,92,0,14,,,,,6,,,64,100
136128,note_on,,,,,37568,0,15,,,,,7,,,67,100
136128,note_on,,,,,0,0,15,,,,,7,,,71,100
136128,note_on,,,,,92,0,11,,,,,4,,,64,100
136128,note_on,,,,,92,0,9,,,,,2,,,76,100
136128,note_on,,,,,37568,0,10,,,,,3,,,71,100
136128,note_on,,,,,37568,0,16,,,,,7,,,64,100
136192,note_off,,,,,64,0,13,,,,,6,,,79,100
136224,note_on,,,,,32,0,13,,,,,6,,,78,100
136228,note_off,,,,,100,0,10,,,,,3,,,71,100
136228,note_off,,,,,100,0,11,,,,,4,,,64,100
136228,note_off,,,,,100,0,14,,,,,6,,,64,100
136228,note_off,,,,,100,0,9,,,,,2,,,76,100
136228,note_off,,,,,100,0,12,,,,,5,,,52,100
136228,note_off,,,,,100,0,16,,,,,7,,,64,100
136256,note_off,,,,,0,0,15,,,,,7,,,71,100
136256,note_off,,,,,128,0,15,,,,,7,,,67,100
136256,note_off,,,,,32,0,13,,,,,6,,,71,100
136288,note_off,,,,,32,0,13,,,,,6,,,78,100
136320,note_on,,,,,92,0,12,,,,,5,,,40,100
136320,note_on,,,,,32,0,13,,,,,6,,,67,100
136320,note_on,,,,,0,0,13,,,,,6,,,76,100
136320,note_on,,,,,0,0,15,,,,,7,,,67,100
136320,note_on,,,,,92,0,14,,,,,6,,,52,100
136320,note_on,,,,,92,0,16,,,,,7,,,52,100
136320,note_on,,,,,92,0,9,,,,,2,,,76,100
136320,note_off,,,,,384,0,8,,,,,1,,,83,100
136320,note_on,,,,,64,0,15,,,,,7,,,59,100
136320,note_on,,,,,92,0,11,,,,,4,,,52,100
136320,note_on,,,,,92,0,10,,,,,3,,,67,100
136420,note_off,,,,,100,0,9,,,,,2,,,76,100
136512,note_on,,,,,92,0,9,,,,,2,,,76,100
136512,note_on,,,,,192,0,8,,,,,1,,,84,100
136576,note_off,,,,,256,0,13,,,,,6,,,67,100
136576,note_off,,,,,256,0,14,,,,,6,,,52,100
136576,note_off,,,,,256,0,10,,,,,3,,,67,100
136576,note_off,,,,,0,0,15,,,,,7,,,67,100
136576,note_off,,,,,256,0,15,,,,,7,,,59,100
136576,note_off,,,,,256,0,11,,,,,4,,,52,100
136576,note_off,,,,,256,0,12,,,,,5,,,40,100
136576,note_off,,,,,256,0,16,,,,,7,,,52,100
136576,note_off,,,,,0,0,13,,,,,6,,,76,100
136604,note_off,,,,,92,0,8,,,,,1,,,84,100
136608,note_on,,,,,4,0,8,,,,,1,,,82,100
136612,note_off,,,,,100,0,9,,,,,2,,,76,100
136672,note_off,,,,,64,0,8,,,,,1,,,82,100
136704,note_on,,,,,92,0,9,,,,,2,,,76,100
136704,note_on,,,,,32,0,8,,,,,1,,,83,100
136832,note_off,,,,,128,0,9,,,,,2,,,76,100
136896,note_on,,,,,320,0,15,,,,,7,,,67,100
136896,note_on,,,,,320,0,10,,,,,3,,,71,100
136896,note_on,,,,,320,0,12,,,,,5,,,52,100
136896,note_on,,,,,320,0,14,,,,,6,,,64,100
136896,note_on,,,,,320,0,11,,,,,4,,,64,100
136896,note_on,,,,,64,0,9,,,,,2,,,79,100
136896,note_on,,,,,320,0,16,,,,,7,,,64,100
136896,note_on,,,,,0,0,15,,,,,7,,,71,100
136896,note_on,,,,,320,0,13,,,,,6,,,71,100
136896,note_on,,,,,0,0,13,,,,,6,,,79,100
136960,note_off,,,,,64,0,13,,,,,6,,,79,100
136960,note_off,,,,,64,0,9,,,,,2,,,79,100
136992,note_on,,,,,32,0,13,,,,,6,,,78,100
136992,note_on,,,,,32,0,9,,,,,2,,,78,100
136996,note_off,,,,,100,0,14,,,,,6,,,64,100
136996,note_off,,,,,100,0,12,,,,,5,,,52,100
136996,note_off,,,,,100,0,11,,,,,4,,,64,100
136996,note_off,,,,,100,0,16,,,,,7,,,64,100
136996,note_off,,,,,100,0,10,,,,,3,,,71,100
137024,note_off,,,,,0,0,15,,,,,7,,,71,100
137024,note_off,,,,,128,0,15,,,,,7,,,67,100
137024,note_off,,,,,32,0,13,,,,,6,,,71,100
137056,note_off,,,,,32,0,13,,,,,6,,,78,100
137056,note_off,,,,,64,0,9,,,,,2,,,78,100
137088,note_on,,,,,32,0,13,,,,,6,,,67,100
137088,note_on,,,,,92,0,14,,,,,6,,,52,100
137088,note_on,,,,,64,0,15,,,,,7,,,59,100
137088,note_on,,,,,0,0,15,,,,,7,,,67,100
137088,note_on,,,,,92,0,16,,,,,7,,,52,100
137088,note_on,,,,,92,0,12,,,,,5,,,40,100
137088,note_on,,,,,0,0,13,,,,,6,,,76,100
137088,note_on,,,,,92,0,11,,,,,4,,,52,100
137088,note_off,,,,,384,0,8,,,,,1,,,83,100
137088,note_on,,,,,32,0,9,,,,,2,,,76,100
137088,note_on,,,,,92,0,10,,,,,3,,,67,100
137188,note_off,,,,,100,0,9,,,,,2,,,76,100
137280,note_on,,,,,92,0,9,,,,,2,,,76,100
137280,note_on,,,,,192,0,8,,,,,1,,,84,100
137344,note_off,,,,,256,0,10,,,,,3,,,67,100
137344,note_off,,,,,256,0,11,,,,,4,,,52,100
137344,note_off,,,,,0,0,13,,,,,6,,,76,100
137344,note_off,,,,,0,0,15,,,,,7,,,67,100
137344,note_off,,,,,256,0,12,,,,,5,,,40,100
137344,note_off,,,,,256,0,16,,,,,7,,,52,100
137344,note_off,,,,,256,0,15,,,,,7,,,59,100
137344,note_off,,,,,256,0,14,,,,,6,,,52,100
137344,note_off,,,,,256,0,13,,,,,6,,,67,100
137372,note_off,,,,,92,0,8,,,,,1,,,84,100
137376,note_on,,,,,4,0,8,,,,,1,,,82,100
137380,note_off,,,,,100,0,9,,,,,2,,,76,100
137440,note_off,,,,,64,0,8,,,,,1,,,82,100
137472,note_on,,,,,92,0,9,,,,,2,,,76,100
137472,note_on,,,,,32,0,8,,,,,1,,,83,100
137600,note_off,,,,,128,0,9,,,,,2,,,76,100
137664,note_on,,,,,0,0,15,,,,,7,,,71,100
137664,note_on,,,,,320,0,15,,,,,7,,,67,100
137664,note_on,,,,,320,0,10,,,,,3,,,71,100
137664,note_on,,,,,320,0,13,,,,,6,,,71,100
137664,note_on,,,,,320,0,14,,,,,6,,,64,100
137664,note_on,,,,,0,0,13,,,,,6,,,79,100
137664,note_on,,,,,320,0,12,,,,,5,,,52,100
137664,note_on,,,,,320,0,16,,,,,7,,,64,100
137664,note_on,,,,,64,0,9,,,,,2,,,79,100
137664,note_on,,,,,320,0,11,,,,,4,,,64,100
137728,note_off,,,,,64,0,9,,,,,2,,,79,100
137728,note_off,,,,,256,0,8,,,,,1,,,83,100
137728,note_off,,,,,64,0,13,,,,,6,,,79,100
137760,note_on,,,,,32,0,13,,,,,6,,,78,100
137760,note_on,,,,,32,0,9,,,,,2,,,78,100
137764,note_off,,,,,100,0,16,,,,,7,,,64,100
137764,note_off,,,,,100,0,10,,,,,3,,,71,100
137764,note_off,,,,,100,0,12,,,,,5,,,52,100
137764,note_off,,,,,100,0,14,,,,,6,,,64,100
137764,note_off,,,,,100,0,11,,,,,4,,,64,100
137792,note_off,,,,,32,0,13,,,,,6,,,71,100
137792,note_off,,,,,0,0,15,,,,,7,,,71,100
137792,note_off,,,,,128,0,15,,,,,7,,,67,100
137824,note_off,,,,,64,0,9,,,,,2,,,78,100
137824,note_off,,,,,32,0,13,,,,,6,,,78,100
137856,note_on,,,,,92,0,16,,,,,7,,,52,100
137856,note_on,,,,,92,0,11,,,,,4,,,52,100
137856,note_on,,,,,32,0,9,,,,,2,,,76,100
137856,note_on,,,,,0,0,15,,,,,7,,,67,100
137856,note_on,,,,,64,0,15,,,,,7,,,59,100
137856,note_on,,,,,0,0,13,,,,,6,,,67,100
137856,note_on,,,,,32,0,13,,,,,6,,,76,100
137856,note_on,,,,,92,0,10,,,,,3,,,67,100
137856,note_on,,,,,92,0,14,,,,,6,,,52,100
137856,note_on,,,,,92,0,12,,,,,5,,,40,100
137956,note_off,,,,,100,0,9,,,,,2,,,76,100
138048,note_on,,,,,320,0,8,,,,,1,,,83,100
138048,note_on,,,,,92,0,9,,,,,2,,,76,100
138112,note_off,,,,,0,0,13,,,,,6,,,67,100
138112,note_off,,,,,256,0,13,,,,,6,,,76,100
138112,note_off,,,,,256,0,14,,,,,6,,,52,100
138112,note_off,,,,,256,0,15,,,,,7,,,59,100
138112,note_off,,,,,0,0,15,,,,,7,,,67,100
138112,note_off,,,,,256,0,12,,,,,5,,,40,100
138112,note_off,,,,,256,0,11,,,,,4,,,52,100
138112,note_off,,,,,256,0,10,,,,,3,,,67,100
138112,note_off,,,,,256,0,16,,,,,7,,,52,100
138128,note_off,,,,,80,0,8,,,,,1,,,83,100
138148,note_off,,,,,100,0,9,,,,,2,,,76,100
138240,note_on,,,,,0,0,13,,,,,6,,,71,100
138240,note_on,,,,,128,0,10,,,,,3,,,68,100
138240,note_on,,,,,128,0,12,,,,,5,,,40,100
138240,note_on,,,,,0,0,13,,,,,6,,,74,100
138240,note_on,,,,,92,0,9,,,,,2,,,71,100
138240,note_on,,,,,128,0,14,,,,,6,,,52,100
138240,note_on,,,,,128,0,13,,,,,6,,,68,100
138240,note_on,,,,,128,0,15,,,,,7,,,68,100
138240,note_on,,,,,128,0,16,,,,,7,,,52,100
138240,note_on,,,,,0,0,15,,,,,7,,,74,100
138240,note_on,,,,,128,0,11,,,,,4,,,52,100
138240,note_on,,,,,0,0,15,,,,,7,,,71,100
138240,note_on,,,,,112,0,8,,,,,1,,,74,100
138340,note_off,,,,,100,0,15,,,,,7,,,68,100
138340,note_off,,,,,0,0,15,,,,,7,,,71,100
138340,note_off,,,,,0,0,15,,,,,7,,,74,100
138340,note_off,,,,,100,0,13,,,,,6,,,68,100
138340,note_off,,,,,0,0,13,,,,,6,,,71,100
138340,note_off,,,,,0,0,13,,,,,6,,,74,100
138340,note_off,,,,,100,0,10,,,,,3,,,68,100
138340,note_off,,,,,100,0,11,,,,,4,,,52,100
138340,note_off,,,,,100,0,8,,,,,1,,,74,100
138340,note_off,,,,,100,0,16,,,,,7,,,52,100
138340,note_off,,,,,100,0,12,,,,,5,,,40,100
138340,note_off,,,,,100,0,14,,,,,6,,,52,100
138368,note_off,,,,,128,0,9,,,,,2,,,71,100
138432,note_on,,,,,92,0,8,,,,,1,,,74,99
138432,note_on,,,,,64,0,9,,,,,2,,,80,99
138432,note_on,,,,,92,0,11,,,,,4,,,64,99
138432,note_on,,,,,92,0,12,,,,,5,,,52,99
138432,note_on,,,,,92,0,16,,,,,7,,,64,100
138432,note_on,,,,,0,0,15,,,,,7,,,80,100
138432,note_on,,,,,0,0,13,,,,,6,,,80,100
138432,note_on,,,,,92,0,15,,,,,7,,,71,100
138432,note_on,,,,,92,0,10,,,,,3,,,71,99
138432,note_on,,,,,92,0,13,,,,,6,,,71,100
138432,note_on,,,,,92,0,14,,,,,6,,,64,100
138532,note_off,,,,,100,0,12,,,,,5,,,52,100
138532,note_off,,,,,100,0,10,,,,,3,,,71,100
138532,note_off,,,,,100,0,16,,,,,7,,,64,100
138532,note_off,,,,,100,0,11,,,,,4,,,64,100
138532,note_off,,,,,100,0,14,,,,,6,,,64,100
138532,note_off,,,,,0,0,15,,,,,7,,,80,100
138532,note_off,,,,,100,0,15,,,,,7,,,71,100
138532,note_off,,,,,0,0,13,,,,,6,,,80,100
138532,note_off,,,,,100,0,8,,,,,1,,,74,100
138532,note_off,,,,,100,0,13,,,,,6,,,71,100
138624,note_on,,,,,0,0,13,,,,,6,,,74,100
138624,note_on,,,,,92,0,10,,,,,3,,,71,98
138624,note_on,,,,,92,0,8,,,,,1,,,74,98
138624,note_on,,,,,92,0,11,,,,,4,,,52,98
138624,note_on,,,,,0,0,15,,,,,7,,,74,100
138624,note_on,,,,,0,0,15,,,,,7,,,71,100
138624,note_on,,,,,92,0,15,,,,,7,,,68,100
138624,note_on,,,,,0,0,13,,,,,6,,,71,100
138624,note_on,,,,,92,0,12,,,,,5,,,40,98
138624,note_on,,,,,92,0,13,,,,,6,,,68,100
138624,note_on,,,,,92,0,14,,,,,6,,,52,100
138624,note_on,,,,,92,0,16,,,,,7,,,52,100
138688,note_off,,,,,256,0,9,,,,,2,,,80,100
138724,note_off,,,,,100,0,8,,,,,1,,,74,100
138816,note_on,,,,,128,0,9,,,,,2,,,83,97
138816,note_on,,,,,92,0,8,,,,,1,,,74,97
138880,note_off,,,,,256,0,13,,,,,6,,,68,100
138880,note_off,,,,,0,0,15,,,,,7,,,71,100
138880,note_off,,,,,256,0,15,,,,,7,,,68,100
138880,note_off,,,,,0,0,13,,,,,6,,,74,100
138880,note_off,,,,,256,0,14,,,,,6,,,52,100
138880,note_off,,,,,0,0,15,,,,,7,,,74,100
138880,note_off,,,,,0,0,13,,,,,6,,,71,100
138880,note_off,,,,,256,0,11,,,,,4,,,52,100
138880,note_off,,,,,256,0,16,,,,,7,,,52,100
138880,note_off,,,,,256,0,12,,,,,5,,,40,100
138880,note_off,,,,,256,0,10,,,,,3,,,71,100
138908,note_off,,,,,92,0,9,,,,,2,,,83,100
138912,note_on,,,,,4,0,9,,,,,2,,,81,96
138916,note_off,,,,,100,0,8,,,,,1,,,74,100
138976,note_off,,,,,64,0,9,,,,,2,,,81,100
139008,note_on,,,,,92,0,8,,,,,1,,,74,96
139008,note_on,,,,,32,0,9,,,,,2,,,80,96
139136,note_off,,,,,128,0,8,,,,,1,,,74,100
139200,note_on,,,,,320,0,11,,,,,4,,,64,94
139200,note_on,,,,,0,0,13,,,,,6,,,80,100
139200,note_on,,,,,320,0,12,,,,,5,,,52,94
139200,note_on,,,,,320,0,10,,,,,3,,,71,94
139200,note_on,,,,,320,0,13,,,,,6,,,71,100
139200,note_on,,,,,320,0,16,,,,,7,,,64,100
139200,note_on,,,,,0,0,15,,,,,7,,,80,100
139200,note_on,,,,,320,0,14,,,,,6,,,64,100
139200,note_on,,,,,320,0,15,,,,,7,,,71,100
139200,note_on,,,,,64,0,8,,,,,1,,,77,94
139264,note_off,,,,,64,0,8,,,,,1,,,77,100
139296,note_on,,,,,32,0,8,,,,,1,,,76,94
139300,note_off,,,,,100,0,11,,,,,4,,,64,100
139300,note_off,,,,,100,0,10,,,,,3,,,71,100
139300,note_off,,,,,100,0,13,,,,,6,,,71,100
139300,note_off,,,,,0,0,13,,,,,6,,,80,100
139300,note_off,,,,,0,0,15,,,,,7,,,80,100
139300,note_off,,,,,100,0,16,,,,,7,,,64,100
139300,note_off,,,,,100,0,12,,,,,5,,,52,100
139300,note_off,,,,,100,0,14,,,,,6,,,64,100
139300,note_off,,,,,100,0,15,,,,,7,,,71,100
139360,note_off,,,,,64,0,8,,,,,1,,,76,100
139392,note_on,,,,,92,0,16,,,,,7,,,52,100
139392,note_on,,,,,0,0,13,,,,,6,,,74,100
139392,note_on,,,,,92,0,13,,,,,6,,,68,100
139392,note_on,,,,,92,0,14,,,,,6,,,52,100
139392,note_on,,,,,92,0,10,,,,,3,,,71,93
139392,note_on,,,,,0,0,13,,,,,6,,,71,100
139392,note_on,,,,,32,0,8,,,,,1,,,74,93
139392,note_on,,,,,92,0,15,,,,,7,,,68,100
139392,note_on,,,,,0,0,15,,,,,7,,,71,100
139392,note_on,,,,,0,0,15,,,,,7,,,74,100
139392,note_off,,,,,384,0,9,,,,,2,,,80,100
139392,note_on,,,,,92,0,11,,,,,4,,,52,93
139392,note_on,,,,,92,0,12,,,,,5,,,40,93
139492,note_off,,,,,100,0,8,,,,,1,,,74,100
139584,note_on,,,,,192,0,9,,,,,2,,,83,92
139584,note_on,,,,,92,0,8,,,,,1,,,74,92
139648,note_off,,,,,256,0,13,,,,,6,,,68,100
139648,note_off,,,,,0,0,13,,,,,6,,,71,100
139648,note_off,,,,,0,0,13,,,,,6,,,74,100
139648,note_off,,,,,256,0,11,,,,,4,,,52,100
139648,note_off,,,,,256,0,14,,,,,6,,,52,100
139648,note_off,,,,,256,0,12,,,,,5,,,40,100
139648,note_off,,,,,0,0,15,,,,,7,,,74,100
139648,note_off,,,,,256,0,16,,,,,7,,,52,100
139648,note_off,,,,,0,0,15,,,,,7,,,71,100
139648,note_off,,,,,256,0,15,,,,,7,,,68,100
139648,note_off,,,,,256,0,10,,,,,3,,,71,100
139676,note_off,,,,,92,0,9,,,,,2,,,83,100
139680,note_on,,,,,4,0,9,,,,,2,,,81,91
139684,note_off,,,,,100,0,8,,,,,1,,,74,100
139744,note_off,,,,,64,0,9,,,,,2,,,81,100
139776,note_on,,,,,32,0,9,,,,,2,,,80,91
139776,note_on,,,,,92,0,8,,,,,1,,,74,91
139904,note_off,,,,,128,0,8,,,,,1,,,74,100
139968,note_on,,,,,320,0,10,,,,,3,,,74,89
139968,note_on,,,,,320,0,15,,,,,7,,,71,100
139968,note_on,,,,,320,0,12,,,,,5,,,52,89
139968,note_on,,,,,320,0,16,,,,,7,,,64,100
139968,note_on,,,,,320,0,14,,,,,6,,,64,100
139968,note_on,,,,,0,0,15,,,,,7,,,80,100
139968,note_on,,,,,64,0,8,,,,,1,,,77,89
139968,note_on,,,,,320,0,13,,,,,6,,,71,100
139968,note_on,,,,,0,0,13,,,,,6,,,80,100
139968,note_on,,,,,320,0,11,,,,,4,,,64,89
140032,note_off,,,,,64,0,8,,,,,1,,,77,100
140032,note_off,,,,,256,0,9,,,,,2,,,80,100
140064,note_on,,,,,32,0,8,,,,,1,,,76,89
140068,note_off,,,,,0,0,13,,,,,6,,,80,100
140068,note_off,,,,,100,0,13,,,,,6,,,71,100
140068,note_off,,,,,100,0,10,,,,,3,,,74,100
140068,note_off,,,,,100,0,16,,,,,7,,,64,100
140068,note_off,,,,,100,0,14,,,,,6,,,64,100
140068,note_off,,,,,100,0,12,,,,,5,,,52,100
140068,note_off,,,,,0,0,15,,,,,7,,,80,100
140068,note_off,,,,,100,0,11,,,,,4,,,64,100
140068,note_off,,,,,100,0,15,,,,,7,,,71,100
140128,note_off,,,,,64,0,8,,,,,1,,,76,100
140160,note_on,,,,,92,0,13,,,,,6,,,68,100
140160,note_on,,,,,92,0,10,,,,,3,,,68,88
140160,note_on,,,,,0,0,15,,,,,7,,,74,100
140160,note_on,,,,,0,0,15,,,,,7,,,71,100
140160,note_on,,,,,92,0,15,,,,,7,,,68,100
140160,note_on,,,,,92,0,16,,,,,7,,,52,100
140160,note_on,,,,,92,0,11,,,,,4,,,52,88
140160,note_on,,,,,92,0,12,,,,,5,,,40,88
140160,note_on,,,,,32,0,8,,,,,1,,,74,88
140160,note_on,,,,,92,0,14,,,,,6,,,52,100
140160,note_on,,,,,0,0,13,,,,,6,,,74,100
140160,note_on,,,,,0,0,13,,,,,6,,,71,100
140260,note_off,,,,,100,0,8,,,,,1,,,74,100
140352,note_on,,,,,320,0,9,,,,,2,,,76,87
140352,note_on,,,,,92,0,8,,,,,1,,,74,87
140416,note_off,,,,,0,0,15,,,,,7,,,74,100
140416,note_off,,,,,256,0,15,,,,,7,,,68,100
140416,note_off,,,,,0,0,15,,,,,7,,,71,100
140416,note_off,,,,,256,0,13,,,,,6,,,68,100
140416,note_off,,,,,0,0,13,,,,,6,,,71,100
140416,note_off,,,,,0,0,13,,,,,6,,,74,100
140416,note_off,,,,,256,0,11,,,,,4,,,52,100
140416,note_off,,,,,256,0,16,,,,,7,,,52,100
140416,note_off,,,,,256,0,10,,,,,3,,,68,100
140416,note_off,,,,,256,0,14,,,,,6,,,52,100
140416,note_off,,,,,256,0,12,,,,,5,,,40,100
140432,note_off,,,,,80,0,9,,,,,2,,,76,100
140452,note_off,,,,,100,0,8,,,,,1,,,74,100
140544,note_on,,,,,128,0,11,,,,,4,,,45,85
140544,note_on,,,,,112,0,9,,,,,2,,,67,85
140544,note_on,,,,,128,0,14,,,,,6,,,45,100
140544,note_on,,,,,128,0,15,,,,,7,,,64,100
140544,note_on,,,,,0,0,15,,,,,7,,,67,100
140544,note_on,,,,,0,0,13,,,,,6,,,67,100
140544,note_on,,,,,128,0,10,,,,,3,,,64,85
140544,note_on,,,,,128,0,16,,,,,7,,,45,100
140544,note_on,,,,,0,0,13,,,,,6,,,73,100
140544,note_on,,,,,128,0,13,,,,,6,,,64,100
140544,note_on,,,,,92,0,8,,,,,1,,,73,85
140544,note_on,,,,,0,0,15,,,,,7,,,73,100
140544,note_on,,,,,128,0,12,,,,,5,,,33,85
140644,note_off,,,,,100,0,13,,,,,6,,,64,100
140644,note_off,,,,,0,0,13,,,,,6,,,73,100
140644,note_off,,,,,0,0,13,,,,,6,,,67,100
140644,note_off,,,,,100,0,14,,,,,6,,,45,100
140644,note_off,,,,,100,0,9,,,,,2,,,67,100
140644,note_off,,,,,100,0,11,,,,,4,,,45,100
140644,note_off,,,,,0,0,15,,,,,7,,,67,100
140644,note_off,,,,,0,0,15,,,,,7,,,73,100
140644,note_off,,,,,100,0,16,,,,,7,,,45,100
140644,note_off,,,,,100,0,10,,,,,3,,,64,100
140644,note_off,,,,,100,0,15,,,,,7,,,64,100
140644,note_off,,,,,100,0,12,,,,,5,,,33,100
140736,note_on,,,,,92,0,9,,,,,2,,,67,85
140736,note_on,,,,,92,0,14,,,,,6,,,57,100
140736,note_on,,,,,92,0,16,,,,,7,,,57,100
140736,note_on,,,,,0,0,13,,,,,6,,,73,100
140736,note_on,,,,,92,0,13,,,,,6,,,76,100
140736,note_on,,,,,92,0,10,,,,,3,,,64,85
140736,note_on,,,,,0,0,15,,,,,7,,,73,100
140736,note_on,,,,,92,0,15,,,,,7,,,76,100
140736,note_on,,,,,92,0,11,,,,,4,,,57,85
140736,note_on,,,,,92,0,12,,,,,5,,,45,85
140836,note_off,,,,,100,0,13,,,,,6,,,76,100
140836,note_off,,,,,0,0,13,,,,,6,,,73,100
140836,note_off,,,,,100,0,10,,,,,3,,,64,100
140836,note_off,,,,,100,0,14,,,,,6,,,57,100
140836,note_off,,,,,100,0,12,,,,,5,,,45,100
140836,note_off,,,,,100,0,15,,,,,7,,,76,100
140836,note_off,,,,,0,0,15,,,,,7,,,73,100
140836,note_off,,,,,100,0,9,,,,,2,,,67,100
140836,note_off,,,,,100,0,16,,,,,7,,,57,100
140836,note_off,,,,,100,0,11,,,,,4,,,57,100
140928,note_on,,,,,92,0,11,,,,,4,,,45,85
140928,note_on,,,,,92,0,14,,,,,6,,,45,100
140928,note_on,,,,,92,0,15,,,,,7,,,64,100
140928,note_on,,,,,0,0,15,,,,,7,,,73,100
140928,note_on,,,,,92,0,10,,,,,3,,,64,85
140928,note_on,,,,,0,0,15,,,,,7,,,67,100
140928,note_off,,,,,384,0,8,,,,,1,,,73,100
140928,note_on,,,,,92,0,13,,,,,6,,,64,100
140928,note_on,,,,,0,0,13,,,,,6,,,73,100
140928,note_on,,,,,0,0,13,,,,,6,,,67,100
140928,note_on,,,,,92,0,12,,,,,5,,,33,85
140928,note_on,,,,,92,0,16,,,,,7,,,45,100
140928,note_on,,,,,92,0,9,,,,,2,,,67,85
141028,note_off,,,,,100,0,9,,,,,2,,,67,100
141120,note_on,,,,,92,0,9,,,,,2,,,67,85
141120,note_on,,,,,192,0,8,,,,,1,,,76,85
141184,note_off,,,,,256,0,10,,,,,3,,,64,100
141184,note_off,,,,,0,0,13,,,,,6,,,73,100
141184,note_off,,,,,0,0,13,,,,,6,,,67,100
141184,note_off,,,,,256,0,12,,,,,5,,,33,100
141184,note_off,,,,,256,0,11,,,,,4,,,45,100
141184,note_off,,,,,256,0,14,,,,,6,,,45,100
141184,note_off,,,,,256,0,16,,,,,7,,,45,100
141184,note_off,,,,,256,0,13,,,,,6,,,64,100
141184,note_off,,,,,256,0,15,,,,,7,,,64,100
141184,note_off,,,,,0,0,15,,,,,7,,,73,100
141184,note_off,,,,,0,0,15,,,,,7,,,67,100
141212,note_off,,,,,92,0,8,,,,,1,,,76,100
141216,note_on,,,,,4,0,8,,,,,1,,,74,100
141220,note_off,,,,,100,0,9,,,,,2,,,67,100
141280,note_off,,,,,64,0,8,,,,,1,,,74,100
141312,note_on,,,,,92,0,9,,,,,2,,,67,85
141312,note_on,,,,,32,0,8,,,,,1,,,73,85
141440,note_off,,,,,128,0,9,,,,,2,,,67,100
141504,note_on,,,,,64,0,9,,,,,2,,,70,86
141504,note_on,,,,,0,0,15,,,,,7,,,73,100
141504,note_on,,,,,320,0,11,,,,,4,,,57,86
141504,note_on,,,,,320,0,12,,,,,5,,,45,86
141504,note_on,,,,,320,0,10,,,,,3,,,64,86
141504,note_on,,,,,320,0,13,,,,,6,,,76,100
141504,note_on,,,,,320,0,15,,,,,7,,,76,100
141504,note_on,,,,,320,0,16,,,,,7,,,57,100
141504,note_on,,,,,320,0,14,,,,,6,,,57,100
141504,note_on,,,,,0,0,13,,,,,6,,,73,100
141568,note_off,,,,,64,0,9,,,,,2,,,70,100
141600,note_on,,,,,32,0,9,,,,,2,,,69,87
141604,note_off,,,,,100,0,10,,,,,3,,,64,100
141604,note_off,,,,,0,0,15,,,,,7,,,73,100
141604,note_off,,,,,100,0,11,,,,,4,,,57,100
141604,note_off,,,,,100,0,12,,,,,5,,,45,100
141604,note_off,,,,,0,0,13,,,,,6,,,73,100
141604,note_off,,,,,100,0,13,,,,,6,,,76,100
141604,note_off,,,,,100,0,15,,,,,7,,,76,100
141604,note_off,,,,,100,0,16,,,,,7,,,57,100
141604,note_off,,,,,100,0,14,,,,,6,,,57,100
141664,note_off,,,,,64,0,9,,,,,2,,,69,100
141696,note_on,,,,,0,0,13,,,,,6,,,67,100
141696,note_on,,,,,92,0,16,,,,,7,,,45,100
141696,note_on,,,,,32,0,9,,,,,2,,,67,88
141696,note_on,,,,,0,0,15,,,,,7,,,67,100
141696,note_on,,,,,92,0,14,,,,,6,,,45,100
141696,note_on,,,,,0,0,15,,,,,7,,,64,100
141696,note_on,,,,,0,0,13,,,,,6,,,64,100
141696,note_on,,,,,92,0,10,,,,,3,,,64,88
141696,note_off,,,,,384,0,8,,,,,1,,,73,100
141696,note_on,,,,,92,0,15,,,,,7,,,73,100
141696,note_on,,,,,92,0,13,,,,,6,,,73,100
141696,note_on,,,,,92,0,11,,,,,4,,,45,88
141696,note_on,,,,,92,0,12,,,,,5,,,33,88
141796,note_off,,,,,100,0,9,,,,,2,,,67,100
141888,note_on,,,,,92,0,9,,,,,2,,,67,90
141888,note_on,,,,,192,0,8,,,,,1,,,76,90
141952,note_off,,,,,256,0,13,,,,,6,,,73,100
141952,note_off,,,,,0,0,13,,,,,6,,,64,100
141952,note_off,,,,,0,0,13,,,,,6,,,67,100
141952,note_off,,,,,256,0,16,,,,,7,,,45,100
141952,note_off,,,,,256,0,12,,,,,5,,,33,100
141952,note_off,,,,,0,0,15,,,,,7,,,64,100
141952,note_off,,,,,0,0,15,,,,,7,,,67,100
141952,note_off,,,,,256,0,11,,,,,4,,,45,100
141952,note_off,,,,,256,0,14,,,,,6,,,45,100
141952,note_off,,,,,256,0,10,,,,,3,,,64,100
141952,note_off,,,,,256,0,15,,,,,7,,,73,100
141980,note_off,,,,,92,0,8,,,,,1,,,76,100
141984,note_on,,,,,4,0,8,,,,,1,,,74,91
141988,note_off,,,,,100,0,9,,,,,2,,,67,100
142048,note_off,,,,,64,0,8,,,,,1,,,74,100
142080,note_on,,,,,32,0,8,,,,,1,,,73,92
142080,note_on,,,,,92,0,9,,,,,2,,,67,92
142208,note_off,,,,,128,0,9,,,,,2,,,67,100
142272,note_on,,,,,0,0,13,,,,,6,,,73,100
142272,note_on,,,,,320,0,13,,,,,6,,,76,100
142272,note_on,,,,,320,0,15,,,,,7,,,76,100
142272,note_on,,,,,320,0,12,,,,,5,,,45,94
142272,note_on,,,,,320,0,16,,,,,7,,,57,100
142272,note_on,,,,,320,0,14,,,,,6,,,57,100
142272,note_on,,,,,64,0,9,,,,,2,,,70,94
142272,note_on,,,,,0,0,15,,,,,7,,,73,100
142272,note_on,,,,,320,0,11,,,,,4,,,57,94
142272,note_on,,,,,320,0,10,,,,,3,,,67,94
142336,note_off,,,,,256,0,8,,,,,1,,,73,100
142336,note_off,,,,,64,0,9,,,,,2,,,70,100
142368,note_on,,,,,32,0,9,,,,,2,,,69,95
142372,note_off,,,,,100,0,15,,,,,7,,,76,100
142372,note_off,,,,,0,0,13,,,,,6,,,73,100
142372,note_off,,,,,100,0,13,,,,,6,,,76,100
142372,note_off,,,,,100,0,16,,,,,7,,,57,100
142372,note_off,,,,,100,0,10,,,,,3,,,67,100
142372,note_off,,,,,100,0,14,,,,,6,,,57,100
142372,note_off,,,,,0,0,15,,,,,7,,,73,100
142372,note_off,,,,,100,0,12,,,,,5,,,45,100
142372,note_off,,,,,100,0,11,,,,,4,,,57,100
142432,note_off,,,,,64,0,9,,,,,2,,,69,100
142464,note_on,,,,,92,0,11,,,,,4,,,45,96
142464,note_on,,,,,92,0,12,,,,,5,,,33,96
142464,note_on,,,,,92,0,10,,,,,3,,,61,96
142464,note_on,,,,,0,0,13,,,,,6,,,67,100
142464,note_on,,,,,0,0,13,,,,,6,,,64,100
142464,note_on,,,,,92,0,13,,,,,6,,,73,100
142464,note_on,,,,,0,0,15,,,,,7,,,64,100
142464,note_on,,,,,92,0,15,,,,,7,,,73,100
142464,note_on,,,,,92,0,14,,,,,6,,,45,100
142464,note_on,,,,,32,0,9,,,,,2,,,67,96
142464,note_on,,,,,0,0,15,,,,,7,,,67,100
142464,note_on,,,,,92,0,16,,,,,7,,,45,100
142564,note_off,,,,,100,0,9,,,,,2,,,67,100
142656,note_on,,,,,320,0,8,,,,,1,,,81,98
142656,note_on,,,,,92,0,9,,,,,2,,,67,98
142720,note_off,,,,,256,0,16,,,,,7,,,45,100
142720,note_off,,,,,256,0,11,,,,,4,,,45,100
142720,note_off,,,,,256,0,10,,,,,3,,,61,100
142720,note_off,,,,,0,0,15,,,,,7,,,67,100
142720,note_off,,,,,256,0,13,,,,,6,,,73,100
142720,note_off,,,,,0,0,13,,,,,6,,,64,100
142720,note_off,,,,,0,0,13,,,,,6,,,67,100
142720,note_off,,,,,0,0,15,,,,,7,,,64,100
142720,note_off,,,,,256,0,12,,,,,5,,,33,100
142720,note_off,,,,,256,0,15,,,,,7,,,73,100
142720,note_off,,,,,256,0,14,,,,,6,,,45,100
142736,note_off,,,,,80,0,8,,,,,1,,,81,100
142756,note_off,,,,,100,0,9,,,,,2,,,67,100
142848,note_on,,,,,128,0,15,,,,,7,,,66,100
142848,note_on,,,,,0,0,15,,,,,7,,,69,100
142848,note_on,,,,,92,0,9,,,,,2,,,66,99
142848,note_on,,,,,0,0,15,,,,,7,,,72,100
142848,note_on,,,,,128,0,12,,,,,5,,,38,99
142848,note_on,,,,,112,0,8,,,,,1,,,72,99
142848,note_on,,,,,128,0,11,,,,,4,,,50,99
142848,note_on,,,,,128,0,13,,,,,6,,,66,100
142848,note_on,,,,,0,0,13,,,,,6,,,69,100
142848,note_on,,,,,0,0,13,,,,,6,,,72,100
142848,note_on,,,,,128,0,10,,,,,3,,,57,99
142848,note_on,,,,,128,0,16,,,,,7,,,50,100
142848,note_on,,,,,128,0,14,,,,,6,,,50,100
142948,note_off,,,,,100,0,11,,,,,4,,,50,100
142948,note_off,,,,,100,0,10,,,,,3,,,57,100
142948,note_off,,,,,100,0,16,,,,,7,,,50,100
142948,note_off,,,,,0,0,15,,,,,7,,,69,100
142948,note_off,,,,,0,0,15,,,,,7,,,72,100
142948,note_off,,,,,100,0,8,,,,,1,,,72,100
142948,note_off,,,,,100,0,12,,,,,5,,,38,100
142948,note_off,,,,,100,0,14,,,,,6,,,50,100
142948,note_off,,,,,100,0,15,,,,,7,,,66,100
142948,note_off,,,,,0,0,13,,,,,6,,,72,100
142948,note_off,,,,,0,0,13,,,,,6,,,69,100
142948,note_off,,,,,100,0,13,,,,,6,,,66,100
142976,note_off,,,,,128,0,9,,,,,2,,,66,100
143040,note_on,,,,,0,0,13,,,,,6,,,78,100
143040,note_on,,,,,92,0,13,,,,,6,,,69,100
143040,note_on,,,,,64,0,9,,,,,2,,,78,100
143040,note_on,,,,,92,0,10,,,,,3,,,69,100
143040,note_on,,,,,92,0,15,,,,,7,,,69,100
143040,note_on,,,,,92,0,8,,,,,1,,,72,100
143040,note_on,,,,,92,0,11,,,,,4,,,62,100
143040,note_on,,,,,92,0,12,,,,,5,,,50,100
143040,note_on,,,,,0,0,15,,,,,7,,,78,100
143040,note_on,,,,,92,0,16,,,,,7,,,62,100
143040,note_on,,,,,92,0,14,,,,,6,,,62,100
143140,note_off,,,,,100,0,14,,,,,6,,,62,100
143140,note_off,,,,,100,0,15,,,,,7,,,69,100
143140,note_off,,,,,100,0,11,,,,,4,,,62,100
143140,note_off,,,,,100,0,16,,,,,7,,,62,100
143140,note_off,,,,,100,0,8,,,,,1,,,72,100
143140,note_off,,,,,100,0,13,,,,,6,,,69,100
143140,note_off,,,,,0,0,13,,,,,6,,,78,100
143140,note_off,,,,,100,0,12,,,,,5,,,50,100
143140,note_off,,,,,100,0,10,,,,,3,,,69,100
143140,note_off,,,,,0,0,15,,,,,7,,,78,100
143232,note_on,,,,,92,0,13,,,,,6,,,66,100
143232,note_on,,,,,92,0,15,,,,,7,,,66,100
143232,note_on,,,,,92,0,11,,,,,4,,,50,100
143232,note_on,,,,,0,0,15,,,,,7,,,69,100
143232,note_on,,,,,92,0,8,,,,,1,,,72,100
143232,note_on,,,,,0,0,15,,,,,7,,,72,100
143232,note_on,,,,,92,0,12,,,,,5,,,38,100
143232,note_on,,,,,0,0,13,,,,,6,,,72,100
143232,note_on,,,,,92,0,16,,,,,7,,,50,100
143232,note_on,,,,,92,0,14,,,,,6,,,50,100
143232,note_on,,,,,0,0,13,,,,,6,,,69,100
143232,note_on,,,,,92,0,10,,,,,3,,,69,100
143296,note_off,,,,,256,0,9,,,,,2,,,78,100
143332,note_off,,,,,100,0,8,,,,,1,,,72,100
143424,note_on,,,,,128,0,9,,,,,2,,,81,100
143424,note_on,,,,,92,0,8,,,,,1,,,72,100
143488,note_off,,,,,256,0,14,,,,,6,,,50,100
143488,note_off,,,,,256,0,16,,,,,7,,,50,100
143488,note_off,,,,,256,0,13,,,,,6,,,66,100
143488,note_off,,,,,0,0,13,,,,,6,,,69,100
143488,note_off,,,,,0,0,13,,,,,6,,,72,100
143488,note_off,,,,,0,0,15,,,,,7,,,72,100
143488,note_off,,,,,0,0,15,,,,,7,,,69,100
143488,note_off,,,,,256,0,15,,,,,7,,,66,100
143488,note_off,,,,,256,0,12,,,,,5,,,38,100
143488,note_off,,,,,256,0,11,,,,,4,,,50,100
143488,note_off,,,,,256,0,10,,,,,3,,,69,100
143516,note_off,,,,,92,0,9,,,,,2,,,81,100
143520,note_on,,,,,4,0,9,,,,,2,,,79,100
143524,note_off,,,,,100,0,8,,,,,1,,,72,100
143584,note_off,,,,,64,0,9,,,,,2,,,79,100
143616,note_on,,,,,92,0,8,,,,,1,,,72,99
143616,note_on,,,,,32,0,9,,,,,2,,,78,99
143744,note_off,,,,,128,0,8,,,,,1,,,72,100
143808,note_on,,,,,0,0,15,,,,,7,,,78,100
143808,note_on,,,,,320,0,13,,,,,6,,,69,100
143808,note_on,,,,,320,0,12,,,,,5,,,50,97
143808,note_on,,,,,320,0,10,,,,,3,,,69,97
143808,note_on,,,,,320,0,11,,,,,4,,,62,97
143808,note_on,,,,,320,0,16,,,,,7,,,62,100
143808,note_on,,,,,320,0,14,,,,,6,,,62,100
143808,note_on,,,,,64,0,8,,,,,1,,,76,97
143808,note_on,,,,,320,0,15,,,,,7,,,69,100
143808,note_on,,,,,0,0,13,,,,,6,,,78,100
143872,note_off,,,,,64,0,8,,,,,1,,,76,100
143904,note_on,,,,,32,0,8,,,,,1,,,74,96
143908,note_off,,,,,100,0,11,,,,,4,,,62,100
143908,note_off,,,,,100,0,14,,,,,6,,,62,100
143908,note_off,,,,,100,0,12,,,,,5,,,50,100
143908,note_off,,,,,0,0,13,,,,,6,,,78,100
143908,note_off,,,,,100,0,13,,,,,6,,,69,100
143908,note_off,,,,,100,0,16,,,,,7,,,62,100
143908,note_off,,,,,100,0,10,,,,,3,,,69,100
143908,note_off,,,,,0,0,15,,,,,7,,,78,100
143908,note_off,,,,,100,0,15,,,,,7,,,69,100
143968,note_off,,,,,64,0,8,,,,,1,,,74,100
144000,note_on,,,,,92,0,16,,,,,7,,,50,100
144000,note_on,,,,,92,0,11,,,,,4,,,50,96
144000,note_on,,,,,92,0,10,,,,,3,,,69,96
144000,note_on,,,,,0,0,15,,,,,7,,,72,100
144000,note_on,,,,,0,0,15,,,,,7,,,69,100
144000,note_on,,,,,92,0,15,,,,,7,,,66,100
144000,note_off,,,,,384,0,9,,,,,2,,,78,100
144000,note_on,,,,,92,0,14,,,,,6,,,50,100
144000,note_on,,,,,92,0,13,,,,,6,,,66,100
144000,note_on,,,,,0,0,13,,,,,6,,,69,100
144000,note_on,,,,,0,0,13,,,,,6,,,72,100
144000,note_on,,,,,32,0,8,,,,,1,,,72,96
144000,note_on,,,,,92,0,12,,,,,5,,,38,96
144100,note_off,,,,,100,0,8,,,,,1,,,72,100
144192,note_on,,,,,192,0,9,,,,,2,,,81,94
144192,note_on,,,,,92,0,8,,,,,1,,,72,94
144256,note_off,,,,,256,0,11,,,,,4,,,50,100
144256,note_off,,,,,0,0,15,,,,,7,,,72,100
144256,note_off,,,,,0,0,15,,,,,7,,,69,100
144256,note_off,,,,,256,0,13,,,,,6,,,66,100
144256,note_off,,,,,0,0,13,,,,,6,,,69,100
144256,note_off,,,,,256,0,10,,,,,3,,,69,100
144256,note_off,,,,,0,0,13,,,,,6,,,72,100
144256,note_off,,,,,256,0,12,,,,,5,,,38,100
144256,note_off,,,,,256,0,16,,,,,7,,,50,100
144256,note_off,,,,,256,0,15,,,,,7,,,66,100
144256,note_off,,,,,256,0,14,,,,,6,,,50,100
144284,note_off,,,,,92,0,9,,,,,2,,,81,100
144288,note_on,,,,,4,0,9,,,,,2,,,79,93
144292,note_off,,,,,100,0,8,,,,,1,,,72,100
144352,note_off,,,,,64,0,9,,,,,2,,,79,100
144384,note_on,,,,,32,0,9,,,,,2,,,78,92
144384,note_on,,,,,92,0,8,,,,,1,,,72,92
144512,note_off,,,,,128,0,8,,,,,1,,,72,100
144576,note_on,,,,,320,0,14,,,,,6,,,62,100
144576,note_on,,,,,64,0,8,,,,,1,,,76,91
144576,note_on,,,,,320,0,10,,,,,3,,,72,91
144576,note_on,,,,,320,0,12,,,,,5,,,50,91
144576,note_on,,,,,0,0,15,,,,,7,,,78,100
144576,note_on,,,,,320,0,11,,,,,4,,,62,91
144576,note_on,,,,,320,0,16,,,,,7,,,62,100
144576,note_on,,,,,320,0,15,,,,,7,,,69,100
144576,note_on,,,,,320,0,13,,,,,6,,,69,100
144576,note_on,,,,,0,0,13,,,,,6,,,78,100
144640,note_off,,,,,64,0,8,,,,,1,,,76,100
144640,note_off,,,,,256,0,9,,,,,2,,,78,100
144672,note_on,,,,,32,0,8,,,,,1,,,74,90
144676,note_off,,,,,0,0,13,,,,,6,,,78,100
144676,note_off,,,,,100,0,14,,,,,6,,,62,100
144676,note_off,,,,,100,0,10,,,,,3,,,72,100
144676,note_off,,,,,100,0,12,,,,,5,,,50,100
144676,note_off,,,,,100,0,13,,,,,6,,,69,100
144676,note_off,,,,,100,0,15,,,,,7,,,69,100
144676,note_off,,,,,0,0,15,,,,,7,,,78,100
144676,note_off,,,,,100,0,16,,,,,7,,,62,100
144676,note_off,,,,,100,0,11,,,,,4,,,62,100
144736,note_off,,,,,64,0,8,,,,,1,,,74,100
144768,note_on,,,,,92,0,11,,,,,4,,,50,89
144768,note_on,,,,,92,0,15,,,,,7,,,66,100
144768,note_on,,,,,92,0,10,,,,,3,,,66,89
144768,note_on,,,,,0,0,15,,,,,7,,,69,100
144768,note_on,,,,,92,0,13,,,,,6,,,66,100
144768,note_on,,,,,0,0,13,,,,,6,,,72,100
144768,note_on,,,,,92,0,14,,,,,6,,,50,100
144768,note_on,,,,,92,0,16,,,,,7,,,50,100
144768,note_on,,,,,92,0,12,,,,,5,,,38,89
144768,note_on,,,,,0,0,15,,,,,7,,,72,100
144768,note_on,,,,,0,0,13,,,,,6,,,69,100
144768,note_on,,,,,32,0,8,,,,,1,,,72,89
144868,note_off,,,,,100,0,8,,,,,1,,,72,100
144960,note_on,,,,,320,0,9,,,,,2,,,74,87
144960,note_on,,,,,92,0,8,,,,,1,,,72,87
145024,note_off,,,,,0,0,13,,,,,6,,,72,100
145024,note_off,,,,,256,0,16,,,,,7,,,50,100
145024,note_off,,,,,256,0,14,,,,,6,,,50,100
145024,note_off,,,,,0,0,15,,,,,7,,,69,100
145024,note_off,,,,,256,0,10,,,,,3,,,66,100
145024,note_off,,,,,256,0,11,,,,,4,,,50,100
145024,note_off,,,,,256,0,15,,,,,7,,,66,100
145024,note_off,,,,,0,0,13,,,,,6,,,69,100
145024,note_off,,,,,256,0,12,,,,,5,,,38,100
145024,note_off,,,,,0,0,15,,,,,7,,,72,100
145024,note_off,,,,,256,0,13,,,,,6,,,66,100
145040,note_off,,,,,80,0,9,,,,,2,,,74,100
145060,note_off,,,,,100,0,8,,,,,1,,,72,100
145152,note_on,,,,,128,0,11,,,,,4,,,43,85
145152,note_on,,,,,0,0,15,,,,,7,,,71,100
145152,note_on,,,,,128,0,15,,,,,7,,,62,100
145152,note_on,,,,,128,0,10,,,,,3,,,62,85
145152,note_on,,,,,112,0,9,,,,,2,,,65,85
145152,note_on,,,,,92,0,8,,,,,1,,,71,85
145152,note_on,,,,,128,0,16,,,,,7,,,43,100
145152,note_on,,,,,0,0,15,,,,,7,,,65,100
145152,note_on,,,,,128,0,12,,,,,5,,,43,85
145152,note_on,,,,,128,0,13,,,,,6,,,62,100
145152,note_on,,,,,128,0,14,,,,,6,,,43,100
145152,note_on,,,,,0,0,13,,,,,6,,,65,100
145152,note_on,,,,,0,0,13,,,,,6,,,71,100
145252,note_off,,,,,100,0,14,,,,,6,,,43,100
145252,note_off,,,,,100,0,16,,,,,7,,,43,100
145252,note_off,,,,,100,0,13,,,,,6,,,62,100
145252,note_off,,,,,100,0,12,,,,,5,,,43,100
145252,note_off,,,,,0,0,15,,,,,7,,,71,100
145252,note_off,,,,,0,0,15,,,,,7,,,65,100
145252,note_off,,,,,0,0,13,,,,,6,,,65,100
145252,note_off,,,,,100,0,9,,,,,2,,,65,100
145252,note_off,,,,,100,0,10,,,,,3,,,62,100
145252,note_off,,,,,0,0,13,,,,,6,,,71,100
145252,note_off,,,,,100,0,15,,,,,7,,,62,100
145252,note_off,,,,,100,0,11,,,,,4,,,43,100
145344,note_on,,,,,92,0,15,,,,,7,,,74,100
145344,note_on,,,,,92,0,10,,,,,3,,,62,85
145344,note_on,,,,,92,0,9,,,,,2,,,65,85
145344,note_on,,,,,92,0,11,,,,,4,,,55,85
145344,note_on,,,,,92,0,12,,,,,5,,,43,85
145344,note_on,,,,,0,0,13,,,,,6,,,71,100
145344,note_on,,,,,92,0,13,,,,,6,,,74,100
145344,note_on,,,,,92,0,14,,,,,6,,,55,100
145344,note_on,,,,,92,0,16,,,,,7,,,55,100
145344,note_on,,,,,0,0,15,,,,,7,,,71,100
145444,note_off,,,,,100,0,15,,,,,7,,,74,100
145444,note_off,,,,,0,0,15,,,,,7,,,71,100
145444,note_off,,,,,0,0,13,,,,,6,,,71,100
145444,note_off,,,,,100,0,13,,,,,6,,,74,100
145444,note_off,,,,,100,0,14,,,,,6,,,55,100
145444,note_off,,,,,100,0,10,,,,,3,,,62,100
145444,note_off,,,,,100,0,11,,,,,4,,,55,100
145444,note_off,,,,,100,0,12,,,,,5,,,43,100
145444,note_off,,,,,100,0,9,,,,,2,,,65,100
145444,note_off,,,,,100,0,16,,,,,7,,,55,100
145536,note_on,,,,,92,0,9,,,,,2,,,65,86
145536,note_off,,,,,384,0,8,,,,,1,,,71,100
145536,note_on,,,,,92,0,16,,,,,7,,,43,100
145536,note_on,,,,,92,0,11,,,,,4,,,43,86
145536,note_on,,,,,92,0,15,,,,,7,,,62,100
145536,note_on,,,,,0,0,13,,,,,6,,,71,100
145536,note_on,,,,,92,0,14,,,,,6,,,43,100
145536,note_on,,,,,92,0,10,,,,,3,,,62,86
145536,note_on,,,,,92,0,12,,,,,5,,,43,86
145536,note_on,,,,,0,0,15,,,,,7,,,65,100
145536,note_on,,,,,0,0,15,,,,,7,,,71,100
145536,note_on,,,,,0,0,13,,,,,6,,,65,100
145536,note_on,,,,,92,0,13,,,,,6,,,62,100
145636,note_off,,,,,100,0,9,,,,,2,,,65,100
145728,note_on,,,,,192,0,8,,,,,1,,,74,87
145728,note_on,,,,,92,0,9,,,,,2,,,65,87
145792,note_off,,,,,256,0,15,,,,,7,,,62,100
145792,note_off,,,,,0,0,13,,,,,6,,,65,100
145792,note_off,,,,,0,0,15,,,,,7,,,65,100
145792,note_off,,,,,256,0,11,,,,,4,,,43,100
145792,note_off,,,,,256,0,16,,,,,7,,,43,100
145792,note_off,,,,,0,0,13,,,,,6,,,71,100
145792,note_off,,,,,256,0,13,,,,,6,,,62,100
145792,note_off,,,,,0,0,15,,,,,7,,,71,100
145792,note_off,,,,,256,0,14,,,,,6,,,43,100
145792,note_off,,,,,256,0,12,,,,,5,,,43,100
145792,note_off,,,,,256,0,10,,,,,3,,,62,100
145820,note_off,,,,,92,0,8,,,,,1,,,74,100
145824,note_on,,,,,4,0,8,,,,,1,,,72,88
145828,note_off,,,,,100,0,9,,,,,2,,,65,100
145888,note_off,,,,,64,0,8,,,,,1,,,72,100
145920,note_on,,,,,92,0,9,,,,,2,,,65,88
145920,note_on,,,,,32,0,8,,,,,1,,,71,88
146048,note_off,,,,,128,0,9,,,,,2,,,65,100
146112,note_on,,,,,320,0,10,,,,,3,,,62,89
146112,note_on,,,,,320,0,12,,,,,5,,,43,89
146112,note_on,,,,,0,0,15,,,,,7,,,71,100
146112,note_on,,,,,320,0,16,,,,,7,,,55,100
146112,note_on,,,,,0,0,13,,,,,6,,,71,100
146112,note_on,,,,,320,0,15,,,,,7,,,74,100
146112,note_on,,,,,320,0,13,,,,,6,,,74,100
146112,note_on,,,,,320,0,14,,,,,6,,,55,100
146112,note_on,,,,,64,0,9,,,,,2,,,69,89
146112,note_on,,,,,320,0,11,,,,,4,,,55,89
146176,note_off,,,,,64,0,9,,,,,2,,,69,100
146208,note_on,,,,,32,0,9,,,,,2,,,67,89
146212,note_off,,,,,100,0,12,,,,,5,,,43,100
146212,note_off,,,,,100,0,10,,,,,3,,,62,100
146212,note_off,,,,,0,0,15,,,,,7,,,71,100
146212,note_off,,,,,100,0,14,,,,,6,,,55,100
146212,note_off,,,,,100,0,13,,,,,6,,,74,100
146212,note_off,,,,,100,0,15,,,,,7,,,74,100
146212,note_off,,,,,100,0,16,,,,,7,,,55,100
146212,note_off,,,,,0,0,13,,,,,6,,,71,100
146212,note_off,,,,,100,0,11,,,,,4,,,55,100
146272,note_off,,,,,64,0,9,,,,,2,,,67,100
146304,note_on,,,,,92,0,15,,,,,7,,,62,100
146304,note_on,,,,,0,0,15,,,,,7,,,71,100
146304,note_on,,,,,0,0,15,,,,,7,,,65,100
146304,note_on,,,,,92,0,12,,,,,5,,,43,90
146304,note_on,,,,,92,0,11,,,,,4,,,43,90
146304,note_on,,,,,92,0,13,,,,,6,,,62,100
146304,note_on,,,,,0,0,13,,,,,6,,,71,100
146304,note_on,,,,,0,0,13,,,,,6,,,65,100
146304,note_on,,,,,92,0,16,,,,,7,,,43,100
146304,note_on,,,,,92,0,14,,,,,6,,,43,100
146304,note_on,,,,,32,0,9,,,,,2,,,65,90
146304,note_on,,,,,92,0,10,,,,,3,,,62,90
146304,note_off,,,,,384,0,8,,,,,1,,,71,100
146404,note_off,,,,,100,0,9,,,,,2,,,65,100
146496,note_on,,,,,92,0,9,,,,,2,,,65,91
146496,note_on,,,,,192,0,8,,,,,1,,,74,91
146560,note_off,,,,,0,0,13,,,,,6,,,71,100
146560,note_off,,,,,256,0,14,,,,,6,,,43,100
146560,note_off,,,,,256,0,11,,,,,4,,,43,100
146560,note_off,,,,,256,0,16,,,,,7,,,43,100
146560,note_off,,,,,256,0,12,,,,,5,,,43,100
146560,note_off,,,,,256,0,13,,,,,6,,,62,100
146560,note_off,,,,,0,0,13,,,,,6,,,65,100
146560,note_off,,,,,256,0,10,,,,,3,,,62,100
146560,note_off,,,,,0,0,15,,,,,7,,,65,100
146560,note_off,,,,,0,0,15,,,,,7,,,71,100
146560,note_off,,,,,256,0,15,,,,,7,,,62,100
146588,note_off,,,,,92,0,8,,,,,1,,,74,100
146592,note_on,,,,,4,0,8,,,,,1,,,72,91
146596,note_off,,,,,100,0,9,,,,,2,,,65,100
146656,note_off,,,,,64,0,8,,,,,1,,,72,100
146688,note_on,,,,,92,0,9,,,,,2,,,65,92
146688,note_on,,,,,32,0,8,,,,,1,,,71,92
146816,note_off,,,,,128,0,9,,,,,2,,,65,100
146880,note_on,,,,,0,0,13,,,,,6,,,71,100
146880,note_on,,,,,320,0,10,,,,,3,,,65,88
146880,note_on,,,,,320,0,13,,,,,6,,,74,100
146880,note_on,,,,,320,0,11,,,,,4,,,55,88
146880,note_on,,,,,320,0,15,,,,,7,,,74,100
146880,note_on,,,,,0,0,15,,,,,7,,,71,100
146880,note_on,,,,,320,0,14,,,,,6,,,55,100
146880,note_on,,,,,320,0,16,,,,,7,,,55,100
146880,note_on,,,,,320,0,12,,,,,5,,,43,88
146880,note_on,,,,,64,0,9,,,,,2,,,69,88
146944,note_off,,,,,64,0,9,,,,,2,,,69,100
146944,note_off,,,,,256,0,8,,,,,1,,,71,100
146976,note_on,,,,,32,0,9,,,,,2,,,67,86
146980,note_off,,,,,100,0,14,,,,,6,,,55,100
146980,note_off,,,,,100,0,16,,,,,7,,,55,100
146980,note_off,,,,,0,0,15,,,,,7,,,71,100
146980,note_off,,,,,100,0,12,,,,,5,,,43,100
146980,note_off,,,,,100,0,15,,,,,7,,,74,100
146980,note_off,,,,,100,0,11,,,,,4,,,55,100
146980,note_off,,,,,0,0,13,,,,,6,,,71,100
146980,note_off,,,,,100,0,10,,,,,3,,,65,100
146980,note_off,,,,,100,0,13,,,,,6,,,74,100
147040,note_off,,,,,64,0,9,,,,,2,,,67,100
147072,note_on,,,,,0,0,13,,,,,6,,,65,100
147072,note_on,,,,,92,0,13,,,,,6,,,62,100
147072,note_on,,,,,92,0,14,,,,,6,,,43,100
147072,note_on,,,,,0,0,13,,,,,6,,,71,100
147072,note_on,,,,,92,0,15,,,,,7,,,62,100
147072,note_on,,,,,0,0,15,,,,,7,,,65,100
147072,note_on,,,,,0,0,15,,,,,7,,,71,100
147072,note_on,,,,,32,0,9,,,,,2,,,65,84
147072,note_on,,,,,92,0,11,,,,,4,,,43,84
147072,note_on,,,,,92,0,12,,,,,5,,,43,84
147072,note_on,,,,,92,0,16,,,,,7,,,43,100
147072,note_on,,,,,92,0,10,,,,,3,,,59,84
147172,note_off,,,,,100,0,13,,,,,6,,,62,100
147172,note_off,,,,,100,0,11,,,,,4,,,43,100
147172,note_off,,,,,0,0,13,,,,,6,,,65,100
147172,note_off,,,,,0,0,13,,,,,6,,,71,100
147172,note_off,,,,,100,0,9,,,,,2,,,65,100
147172,note_off,,,,,100,0,14,,,,,6,,,43,100
147264,note_on,,,,,92,0,11,,,,,4,,,47,80
147264,note_on,,,,,0,0,13,,,,,6,,,59,100
147264,note_on,,,,,320,0,8,,,,,1,,,79,80
147264,note_on,,,,,92,0,13,,,,,6,,,65,100
147264,note_on,,,,,92,0,9,,,,,2,,,65,80
147264,note_on,,,,,0,0,13,,,,,6,,,62,100
147264,note_on,,,,,92,0,14,,,,,6,,,47,100
147328,note_off,,,,,256,0,16,,,,,7,,,43,100
147328,note_off,,,,,256,0,12,,,,,5,,,43,100
147328,note_off,,,,,256,0,15,,,,,7,,,62,100
147328,note_off,,,,,0,0,15,,,,,7,,,71,100
147328,note_off,,,,,0,0,15,,,,,7,,,65,100
147328,note_off,,,,,256,0,10,,,,,3,,,59,100
147344,note_off,,,,,80,0,8,,,,,1,,,79,100
147364,note_off,,,,,100,0,11,,,,,4,,,47,100
147364,note_off,,,,,0,0,13,,,,,6,,,59,100
147364,note_off,,,,,0,0,13,,,,,6,,,62,100
147364,note_off,,,,,100,0,9,,,,,2,,,65,100
147364,note_off,,,,,100,0,13,,,,,6,,,65,100
147364,note_off,,,,,100,0,14,,,,,6,,,47,100
147456,note_on,,,,,0,0,13,,,,,6,,,60,100
147456,note_on,,,,,0,0,13,,,,,6,,,64,100
147456,note_on,,,,,112,0,8,,,,,1,,,72,75
147456,note_on,,,,,92,0,13,,,,,6,,,67,100
147456,note_on,,,,,92,0,9,,,,,2,,,64,75
147456,note_on,,,,,92,0,11,,,,,4,,,48,75
147456,note_on,,,,,128,0,10,,,,,3,,,55,75
147456,note_on,,,,,92,0,14,,,,,6,,,48,100
147584,note_off,,,,,128,0,8,,,,,1,,,72,100
147648,note_on,,,,,64,0,8,,,,,1,,,76,76
147712,note_off,,,,,64,0,8,,,,,1,,,76,100
147712,note_off,,,,,256,0,13,,,,,6,,,67,100
147712,note_off,,,,,256,0,10,,,,,3,,,55,100
147712,note_off,,,,,0,0,13,,,,,6,,,60,100
147712,note_off,,,,,256,0,9,,,,,2,,,64,100
147712,note_off,,,,,256,0,14,,,,,6,,,48,100
147712,note_off,,,,,256,0,11,,,,,4,,,48,100
147712,note_off,,,,,0,0,13,,,,,6,,,64,100
147744,note_on,,,,,32,0,8,,,,,1,,,74,76
147808,note_off,,,,,64,0,8,,,,,1,,,74,100
147840,note_on,,,,,32,0,8,,,,,1,,,72,77
147940,note_off,,,,,100,0,8,,,,,1,,,72,100
148032,note_on,,,,,92,0,8,,,,,1,,,72,78
148032,note_on,,,,,0,0,13,,,,,6,,,67,100
148032,note_on,,,,,320,0,10,,,,,3,,,67,80
148032,note_on,,,,,320,0,9,,,,,2,,,76,78
148032,note_on,,,,,320,0,11,,,,,4,,,60,78
148032,note_on,,,,,320,0,13,,,,,6,,,64,100
148032,note_on,,,,,320,0,14,,,,,6,,,60,100
148112,note_off,,,,,80,0,10,,,,,3,,,67,100
148112,note_off,,,,,80,0,9,,,,,2,,,76,100
148112,note_off,,,,,80,0,14,,,,,6,,,60,100
148112,note_off,,,,,80,0,11,,,,,4,,,60,100
148132,note_off,,,,,100,0,13,,,,,6,,,64,100
148132,note_off,,,,,0,0,13,,,,,6,,,67,100
148132,note_off,,,,,100,0,8,,,,,1,,,72,100
148224,note_on,,,,,0,0,13,,,,,6,,,60,100
148224,note_on,,,,,112,0,11,,,,,4,,,53,79
148224,note_on,,,,,112,0,9,,,,,2,,,69,79
148224,note_on,,,,,112,0,10,,,,,3,,,69,80
148224,note_on,,,,,92,0,13,,,,,6,,,57,100
148224,note_on,,,,,112,0,14,,,,,6,,,53,100
148224,note_on,,,,,92,0,8,,,,,1,,,72,79
148352,note_off,,,,,128,0,14,,,,,6,,,53,100
148352,note_off,,,,,128,0,13,,,,,6,,,57,100
148352,note_off,,,,,0,0,13,,,,,6,,,60,100
148352,note_off,,,,,128,0,9,,,,,2,,,69,100
148352,note_off,,,,,128,0,11,,,,,4,,,53,100
148416,note_on,,,,,64,0,9,,,,,2,,,72,80
148416,note_on,,,,,64,0,13,,,,,6,,,60,100
148416,note_on,,,,,64,0,11,,,,,4,,,57,80
148416,note_on,,,,,64,0,14,,,,,6,,,57,100
148480,note_off,,,,,64,0,11,,,,,4,,,57,100
148480,note_off,,,,,64,0,9,,,,,2,,,72,100
148480,note_off,,,,,64,0,14,,,,,6,,,57,100
148480,note_off,,,,,64,0,13,,,,,6,,,60,100
148512,note_on,,,,,32,0,13,,,,,6,,,59,100
148512,note_on,,,,,32,0,11,,,,,4,,,55,80
148512,note_on,,,,,32,0,14,,,,,6,,,55,100
148512,note_on,,,,,32,0,9,,,,,2,,,71,80
148576,note_off,,,,,64,0,14,,,,,6,,,55,100
148576,note_off,,,,,64,0,9,,,,,2,,,71,100
148576,note_off,,,,,64,0,11,,,,,4,,,55,100
148576,note_off,,,,,64,0,13,,,,,6,,,59,100
148608,note_on,,,,,32,0,14,,,,,6,,,53,100
148608,note_off,,,,,384,0,8,,,,,1,,,72,100
148608,note_on,,,,,32,0,9,,,,,2,,,69,81
148608,note_on,,,,,0,0,13,,,,,6,,,57,100
148608,note_on,,,,,32,0,13,,,,,6,,,60,100
148608,note_on,,,,,32,0,11,,,,,4,,,53,81
148684,note_off,,,,,460,0,10,,,,,3,,,69,100
148708,note_off,,,,,100,0,14,,,,,6,,,53,100
148708,note_off,,,,,100,0,9,,,,,2,,,69,100
148708,note_off,,,,,100,0,13,,,,,6,,,60,100
148708,note_off,,,,,0,0,13,,,,,6,,,57,100
148708,note_off,,,,,100,0,11,,,,,4,,,53,100
148800,note_on,,,,,92,0,9,,,,,2,,,69,82
148800,note_on,,,,,192,0,8,,,,,1,,,81,82
148800,note_on,,,,,116,0,10,,,,,3,,,69,83
148800,note_on,,,,,92,0,13,,,,,6,,,60,100
148800,note_on,,,,,0,0,13,,,,,6,,,57,100
148800,note_on,,,,,92,0,11,,,,,4,,,53,82
148800,note_on,,,,,92,0,14,,,,,6,,,53,100
148864,note_off,,,,,64,0,10,,,,,3,,,69,100
148880,note_off,,,,,80,0,8,,,,,1,,,81,100
148896,note_on,,,,,32,0,10,,,,,3,,,67,84
148900,note_off,,,,,100,0,13,,,,,6,,,60,100
148900,note_off,,,,,100,0,11,,,,,4,,,53,100
148900,note_off,,,,,100,0,9,,,,,2,,,69,100
148900,note_off,,,,,0,0,13,,,,,6,,,57,100
148900,note_off,,,,,100,0,14,,,,,6,,,53,100
148960,note_off,,,,,64,0,10,,,,,3,,,67,100
148992,note_on,,,,,92,0,14,,,,,6,,,54,100
148992,note_on,,,,,92,0,13,,,,,6,,,62,100
148992,note_on,,,,,112,0,8,,,,,1,,,74,83
148992,note_on,,,,,0,0,13,,,,,6,,,57,100
148992,note_on,,,,,92,0,11,,,,,4,,,54,83
148992,note_on,,,,,92,0,9,,,,,2,,,69,83
148992,note_on,,,,,32,0,10,,,,,3,,,66,84
149120,note_off,,,,,128,0,10,,,,,3,,,66,100
149120,note_off,,,,,128,0,8,,,,,1,,,74,100
149184,note_on,,,,,64,0,10,,,,,3,,,69,85
149184,note_on,,,,,64,0,8,,,,,1,,,78,84
149248,note_off,,,,,64,0,10,,,,,3,,,69,100
149248,note_off,,,,,64,0,8,,,,,1,,,78,100
149280,note_on,,,,,32,0,10,,,,,3,,,67,86
149280,note_on,,,,,32,0,8,,,,,1,,,76,84
149344,note_off,,,,,64,0,10,,,,,3,,,67,100
149344,note_off,,,,,64,0,8,,,,,1,,,76,100
149376,note_on,,,,,32,0,8,,,,,1,,,74,85
149376,note_off,,,,,384,0,13,,,,,6,,,62,100
149376,note_off,,,,,384,0,9,,,,,2,,,69,100
149376,note_off,,,,,384,0,11,,,,,4,,,54,100
149376,note_off,,,,,384,0,14,,,,,6,,,54,100
149376,note_on,,,,,32,0,10,,,,,3,,,66,86
149376,note_off,,,,,0,0,13,,,,,6,,,57,100
149476,note_off,,,,,100,0,8,,,,,1,,,74,100
149504,note_off,,,,,128,0,10,,,,,3,,,66,100
149568,note_on,,,,,192,0,14,,,,,6,,,62,100
149568,note_on,,,,,192,0,9,,,,,2,,,78,86
149568,note_on,,,,,192,0,13,,,,,6,,,66,100
149568,note_on,,,,,0,0,13,,,,,6,,,69,100
149568,note_on,,,,,192,0,11,,,,,4,,,62,86
149568,note_on,,,,,64,0,10,,,,,3,,,67,87
149568,note_on,,,,,92,0,8,,,,,1,,,74,86
149632,note_off,,,,,64,0,10,,,,,3,,,67,100
149648,note_off,,,,,80,0,14,,,,,6,,,62,100
149648,note_off,,,,,80,0,11,,,,,4,,,62,100
149648,note_off,,,,,80,0,9,,,,,2,,,78,100
149664,note_on,,,,,32,0,10,,,,,3,,,69,88
149668,note_off,,,,,100,0,8,,,,,1,,,74,100
149668,note_off,,,,,100,0,13,,,,,6,,,66,100
149668,note_off,,,,,0,0,13,,,,,6,,,69,100
149728,note_off,,,,,64,0,10,,,,,3,,,69,100
149760,note_on,,,,,0,0,13,,,,,6,,,62,100
149760,note_on,,,,,92,0,13,,,,,6,,,59,100
149760,note_on,,,,,112,0,14,,,,,6,,,55,100
149760,note_on,,,,,112,0,11,,,,,4,,,55,87
149760,note_on,,,,,32,0,10,,,,,3,,,71,88
149760,note_on,,,,,112,0,9,,,,,2,,,71,87
149760,note_on,,,,,92,0,8,,,,,1,,,74,87
149888,note_off,,,,,128,0,11,,,,,4,,,55,100
149888,note_off,,,,,128,0,13,,,,,6,,,59,100
149888,note_off,,,,,0,0,13,,,,,6,,,62,100
149888,note_off,,,,,128,0,14,,,,,6,,,55,100
149888,note_off,,,,,128,0,9,,,,,2,,,71,100
149952,note_on,,,,,64,0,14,,,,,6,,,59,100
149952,note_on,,,,,64,0,9,,,,,2,,,74,88
149952,note_on,,,,,64,0,11,,,,,4,,,59,88
149952,note_on,,,,,64,0,13,,,,,6,,,62,100
150016,note_off,,,,,64,0,11,,,,,4,,,59,100
150016,note_off,,,,,64,0,9,,,,,2,,,74,100
150016,note_off,,,,,64,0,14,,,,,6,,,59,100
150016,note_off,,,,,64,0,13,,,,,6,,,62,100
150048,note_on,,,,,32,0,9,,,,,2,,,72,89
150048,note_on,,,,,32,0,11,,,,,4,,,57,89
150048,note_on,,,,,32,0,14,,,,,6,,,57,100
150048,note_on,,,,,32,0,13,,,,,6,,,60,100
150112,note_off,,,,,64,0,14,,,,,6,,,57,100
150112,note_off,,,,,64,0,9,,,,,2,,,72,100
150112,note_off,,,,,64,0,13,,,,,6,,,60,100
150112,note_off,,,,,64,0,11,,,,,4,,,57,100
150144,note_off,,,,,384,0,8,,,,,1,,,74,100
150144,note_on,,,,,32,0,9,,,,,2,,,71,89
150144,note_on,,,,,32,0,14,,,,,6,,,55,100
150144,note_on,,,,,32,0,11,,,,,4,,,55,89
150144,note_on,,,,,0,0,13,,,,,6,,,59,100
150144,note_on,,,,,32,0,13,,,,,6,,,62,100
150220,note_off,,,,,460,0,10,,,,,3,,,71,100
150244,note_off,,,,,100,0,9,,,,,2,,,71,100
150244,note_off,,,,,100,0,11,,,,,4,,,55,100
150244,note_off,,,,,100,0,14,,,,,6,,,55,100
150244,note_off,,,,,100,0,13,,,,,6,,,62,100
150244,note_off,,,,,0,0,13,,,,,6,,,59,100
150336,note_on,,,,,92,0,13,,,,,6,,,62,100
150336,note_on,,,,,192,0,8,,,,,1,,,83,90
150336,note_on,,,,,92,0,9,,,,,2,,,71,90
150336,note_on,,,,,92,0,11,,,,,4,,,55,90
150336,note_on,,,,,92,0,14,,,,,6,,,55,100
150336,note_on,,,,,116,0,10,,,,,3,,,71,91
150336,note_on,,,,,0,0,13,,,,,6,,,59,100
150400,note_off,,,,,64,0,10,,,,,3,,,71,100
150416,note_off,,,,,80,0,8,,,,,1,,,83,100
150432,note_on,,,,,32,0,10,,,,,3,,,69,91
150436,note_off,,,,,100,0,14,,,,,6,,,55,100
150436,note_off,,,,,100,0,9,,,,,2,,,71,100
150436,note_off,,,,,100,0,13,,,,,6,,,62,100
150436,note_off,,,,,0,0,13,,,,,6,,,59,100
150436,note_off,,,,,100,0,11,,,,,4,,,55,100
150496,note_off,,,,,64,0,10,,,,,3,,,69,100
150528,note_on,,,,,92,0,11,,,,,4,,,56,91
150528,note_on,,,,,0,0,13,,,,,6,,,59,100
150528,note_on,,,,,112,0,8,,,,,1,,,76,91
150528,note_on,,,,,92,0,13,,,,,6,,,64,100
150528,note_on,,,,,92,0,9,,,,,2,,,71,91
150528,note_on,,,,,32,0,10,,,,,3,,,68,92
150528,note_on,,,,,92,0,14,,,,,6,,,56,100
150656,note_off,,,,,128,0,10,,,,,3,,,68,100
150656,note_off,,,,,128,0,8,,,,,1,,,76,100
150720,note_on,,,,,64,0,10,,,,,3,,,71,93
150720,note_on,,,,,64,0,8,,,,,1,,,80,92
150784,note_off,,,,,64,0,8,,,,,1,,,80,100
150784,note_off,,,,,64,0,10,,,,,3,,,71,100
150816,note_on,,,,,32,0,10,,,,,3,,,69,93
150816,note_on,,,,,32,0,8,,,,,1,,,78,93
150880,note_off,,,,,64,0,10,,,,,3,,,69,100
150880,note_off,,,,,64,0,8,,,,,1,,,78,100
150912,note_on,,,,,32,0,10,,,,,3,,,68,94
150912,note_off,,,,,384,0,9,,,,,2,,,71,100
150912,note_off,,,,,384,0,13,,,,,6,,,64,100
150912,note_off,,,,,384,0,11,,,,,4,,,56,100
150912,note_on,,,,,32,0,8,,,,,1,,,76,93
150912,note_off,,,,,384,0,14,,,,,6,,,56,100
150912,note_off,,,,,0,0,13,,,,,6,,,59,100
151012,note_off,,,,,100,0,8,,,,,1,,,76,100
151040,note_off,,,,,128,0,10,,,,,3,,,68,100
151104,note_on,,,,,0,0,13,,,,,6,,,71,100
151104,note_on,,,,,192,0,14,,,,,6,,,64,100
151104,note_on,,,,,92,0,8,,,,,1,,,76,94
151104,note_on,,,,,192,0,11,,,,,4,,,64,94
151104,note_on,,,,,64,0,10,,,,,3,,,69,95
151104,note_on,,,,,192,0,9,,,,,2,,,80,94
151104,note_on,,,,,192,0,13,,,,,6,,,68,100
151168,note_off,,,,,64,0,10,,,,,3,,,69,100
151184,note_off,,,,,80,0,14,,,,,6,,,64,100
151184,note_off,,,,,80,0,11,,,,,4,,,64,100
151184,note_off,,,,,80,0,9,,,,,2,,,80,100
151200,note_on,,,,,32,0,10,,,,,3,,,71,95
151204,note_off,,,,,100,0,8,,,,,1,,,76,100
151204,note_off,,,,,100,0,13,,,,,6,,,68,100
151204,note_off,,,,,0,0,13,,,,,6,,,71,100
151264,note_off,,,,,64,0,10,,,,,3,,,71,100
151296,note_on,,,,,112,0,11,,,,,4,,,57,95
151296,note_on,,,,,92,0,8,,,,,1,,,76,95
151296,note_on,,,,,0,0,13,,,,,6,,,64,100
151296,note_on,,,,,112,0,9,,,,,2,,,72,95
151296,note_on,,,,,92,0,13,,,,,6,,,60,100
151296,note_on,,,,,32,0,10,,,,,3,,,72,96
151296,note_on,,,,,112,0,14,,,,,6,,,57,100
151424,note_off,,,,,128,0,13,,,,,6,,,60,100
151424,note_off,,,,,128,0,14,,,,,6,,,57,100
151424,note_off,,,,,128,0,10,,,,,3,,,72,100
151424,note_off,,,,,0,0,13,,,,,6,,,64,100
151424,note_off,,,,,128,0,11,,,,,4,,,57,100
151424,note_off,,,,,128,0,9,,,,,2,,,72,100
151488,note_on,,,,,64,0,9,,,,,2,,,76,96
151488,note_on,,,,,64,0,10,,,,,3,,,69,97
151488,note_on,,,,,64,0,14,,,,,6,,,60,100
151488,note_on,,,,,64,0,13,,,,,6,,,64,100
151488,note_on,,,,,64,0,11,,,,,4,,,60,96
151552,note_off,,,,,64,0,10,,,,,3,,,69,100
151552,note_off,,,,,64,0,14,,,,,6,,,60,100
151552,note_off,,,,,64,0,11,,,,,4,,,60,100
151552,note_off,,,,,64,0,13,,,,,6,,,64,100
151552,note_off,,,,,64,0,9,,,,,2,,,76,100
151584,note_on,,,,,32,0,14,,,,,6,,,59,100
151584,note_on,,,,,32,0,10,,,,,3,,,71,97
151584,note_on,,,,,32,0,9,,,,,2,,,74,97
151584,note_on,,,,,32,0,11,,,,,4,,,59,97
151584,note_on,,,,,32,0,13,,,,,6,,,62,100
151648,note_off,,,,,64,0,13,,,,,6,,,62,100
151648,note_off,,,,,64,0,9,,,,,2,,,74,100
151648,note_off,,,,,64,0,10,,,,,3,,,71,100
151648,note_off,,,,,64,0,14,,,,,6,,,59,100
151648,note_off,,,,,64,0,11,,,,,4,,,59,100
151680,note_on,,,,,32,0,9,,,,,2,,,72,97
151680,note_on,,,,,32,0,14,,,,,6,,,57,100
151680,note_on,,,,,32,0,11,,,,,4,,,57,97
151680,note_off,,,,,384,0,8,,,,,1,,,76,100
151680,note_on,,,,,32,0,10,,,,,3,,,72,98
151680,note_on,,,,,0,0,13,,,,,6,,,60,100
151680,note_on,,,,,32,0,13,,,,,6,,,64,100
151780,note_off,,,,,100,0,11,,,,,4,,,57,100
151780,note_off,,,,,100,0,13,,,,,6,,,64,100
151780,note_off,,,,,100,0,9,,,,,2,,,72,100
151780,note_off,,,,,0,0,13,,,,,6,,,60,100
151780,note_off,,,,,100,0,14,,,,,6,,,57,100
151808,note_off,,,,,128,0,10,,,,,3,,,72,100
151872,note_on,,,,,0,0,13,,,,,6,,,60,100
151872,note_on,,,,,192,0,8,,,,,1,,,81,98
151872,note_on,,,,,92,0,9,,,,,2,,,72,98
151872,note_on,,,,,92,0,11,,,,,4,,,57,98
151872,note_on,,,,,92,0,13,,,,,6,,,64,100
151872,note_on,,,,,92,0,14,,,,,6,,,57,100
151872,note_on,,,,,64,0,10,,,,,3,,,69,99
151936,note_off,,,,,64,0,10,,,,,3,,,69,100
151968,note_on,,,,,32,0,10,,,,,3,,,67,99
151972,note_off,,,,,100,0,14,,,,,6,,,57,100
151972,note_off,,,,,100,0,13,,,,,6,,,64,100
151972,note_off,,,,,0,0,13,,,,,6,,,60,100
151972,note_off,,,,,100,0,11,,,,,4,,,57,100
151972,note_off,,,,,100,0,8,,,,,1,,,81,100
151972,note_off,,,,,100,0,9,,,,,2,,,72,100
152032,note_off,,,,,64,0,10,,,,,3,,,67,100
152064,note_on,,,,,16256,0,7,,,,,0,,,75,99
152064,note_on,,,,,92,0,11,,,,,4,,,59,99
152064,note_on,,,,,92,0,14,,,,,6,,,59,100
152064,note_on,,,,,0,0,13,,,,,6,,,63,100
152064,note_on,,,,,92,0,13,,,,,6,,,66,100
152064,note_on,,,,,92,0,9,,,,,2,,,71,99
152064,note_on,,,,,92,0,8,,,,,1,,,75,99
152064,note_on,,,,,32,0,10,,,,,3,,,66,99
152156,note_off,,,,,92,0,7,,,,,0,,,75,100
152160,note_on,,,,,4,0,7,,,,,0,,,73,100
152224,note_off,,,,,64,0,7,,,,,0,,,73,100
152256,note_on,,,,,32,0,7,,,,,0,,,75,100
152320,note_off,,,,,0,0,13,,,,,6,,,63,100
152320,note_off,,,,,256,0,14,,,,,6,,,59,100
152320,note_off,,,,,256,0,8,,,,,1,,,75,100
152320,note_off,,,,,256,0,11,,,,,4,,,59,100
152320,note_off,,,,,256,0,10,,,,,3,,,66,100
152320,note_off,,,,,256,0,9,,,,,2,,,71,100
152320,note_off,,,,,256,0,13,,,,,6,,,66,100
152348,note_off,,,,,92,0,7,,,,,0,,,75,100
152352,note_on,,,,,4,0,7,,,,,0,,,71,100
152416,note_off,,,,,64,0,7,,,,,0,,,71,100
152448,note_on,,,,,32,0,7,,,,,0,,,72,100
152540,note_off,,,,,92,0,7,,,,,0,,,72,100
152544,note_on,,,,,4,0,7,,,,,0,,,71,100
152608,note_off,,,,,64,0,7,,,,,0,,,71,100
152640,note_on,,,,,32,0,7,,,,,0,,,72,100
152732,note_off,,,,,92,0,7,,,,,0,,,72,100
152736,note_on,,,,,4,0,7,,,,,0,,,69,100
152800,note_off,,,,,64,0,7,,,,,0,,,69,100
152832,note_on,,,,,0,0,13,,,,,6,,,66,100
152832,note_on,,,,,0,0,13,,,,,6,,,63,100
152832,note_on,,,,,512,0,11,,,,,4,,,47,85
152832,note_on,,,,,32,0,7,,,,,0,,,75,100
152832,note_on,,,,,512,0,14,,,,,6,,,47,100
152832,note_on,,,,,512,0,13,,,,,6,,,59,100
152924,note_off,,,,,92,0,7,,,,,0,,,75,100
152928,note_on,,,,,4,0,7,,,,,0,,,73,100
152992,note_off,,,,,64,0,7,,,,,0,,,73,100
153024,note_on,,,,,32,0,7,,,,,0,,,75,100
153088,note_off,,,,,256,0,11,,,,,4,,,47,100
153088,note_off,,,,,0,0,13,,,,,6,,,63,100
153088,note_off,,,,,256,0,14,,,,,6,,,47,100
153088,note_off,,,,,0,0,13,,,,,6,,,66,100
153088,note_off,,,,,256,0,13,,,,,6,,,59,100
153116,note_off,,,,,92,0,7,,,,,0,,,75,100
153120,note_on,,,,,4,0,7,,,,,0,,,71,100
153184,note_off,,,,,64,0,7,,,,,0,,,71,100
153216,note_on,,,,,32,0,7,,,,,0,,,81,100
153308,note_off,,,,,92,0,7,,,,,0,,,81,100
153312,note_on,,,,,4,0,7,,,,,0,,,79,98
153376,note_off,,,,,64,0,7,,,,,0,,,79,100
153408,note_on,,,,,32,0,7,,,,,0,,,81,96
153500,note_off,,,,,92,0,7,,,,,0,,,81,100
153504,note_on,,,,,4,0,7,,,,,0,,,78,93
153568,note_off,,,,,64,0,7,,,,,0,,,78,100
153600,note_on,,,,,512,0,14,,,,,6,,,47,100
153600,note_on,,,,,32,0,7,,,,,0,,,75,90
153600,note_on,,,,,512,0,13,,,,,6,,,59,100
153600,note_on,,,,,512,0,11,,,,,4,,,47,85
153600,note_on,,,,,0,0,13,,,,,6,,,66,100
153600,note_on,,,,,0,0,13,,,,,6,,,63,100
153692,note_off,,,,,92,0,7,,,,,0,,,75,100
153696,note_on,,,,,4,0,7,,,,,0,,,73,90
153760,note_off,,,,,64,0,7,,,,,0,,,73,100
153792,note_on,,,,,32,0,7,,,,,0,,,75,90
153856,note_off,,,,,256,0,11,,,,,4,,,47,100
153856,note_off,,,,,256,0,14,,,,,6,,,47,100
153856,note_off,,,,,0,0,13,,,,,6,,,63,100
153856,note_off,,,,,0,0,13,,,,,6,,,66,100
153856,note_off,,,,,256,0,13,,,,,6,,,59,100
153884,note_off,,,,,92,0,7,,,,,0,,,75,100
153888,note_on,,,,,4,0,7,,,,,0,,,71,90
153952,note_off,,,,,64,0,7,,,,,0,,,71,100
153984,note_on,,,,,32,0,7,,,,,0,,,81,90
154076,note_off,,,,,92,0,7,,,,,0,,,81,100
154080,note_on,,,,,4,0,7,,,,,0,,,79,92
154144,note_off,,,,,64,0,7,,,,,0,,,79,100
154176,note_on,,,,,320,0,13,,,,,6,,,63,100
154176,note_on,,,,,0,0,13,,,,,6,,,66,100
154176,note_on,,,,,320,0,11,,,,,4,,,59,85
154176,note_on,,,,,32,0,7,,,,,0,,,81,94
154176,note_on,,,,,320,0,14,,,,,6,,,59,100
154268,note_off,,,,,92,0,7,,,,,0,,,81,100
154272,note_on,,,,,4,0,7,,,,,0,,,78,97
154276,note_off,,,,,100,0,11,,,,,4,,,59,100
154276,note_off,,,,,100,0,14,,,,,6,,,59,100
154304,note_off,,,,,128,0,13,,,,,6,,,63,100
154304,note_off,,,,,0,0,13,,,,,6,,,66,100
154336,note_off,,,,,64,0,7,,,,,0,,,78,100
154368,note_on,,,,,92,0,11,,,,,4,,,52,85
154368,note_on,,,,,92,0,14,,,,,6,,,52,100
154368,note_on,,,,,32,0,7,,,,,0,,,79,99
154368,note_on,,,,,64,0,13,,,,,6,,,64,100
154368,note_on,,,,,0,0,13,,,,,6,,,71,100
154432,note_off,,,,,64,0,14,,,,,6,,,52,100
154432,note_off,,,,,64,0,13,,,,,6,,,64,100
154432,note_off,,,,,64,0,7,,,,,0,,,79,100
154432,note_off,,,,,64,0,11,,,,,4,,,52,100
154464,note_on,,,,,32,0,13,,,,,6,,,66,100
154464,note_on,,,,,32,0,14,,,,,6,,,54,100
154464,note_on,,,,,32,0,7,,,,,0,,,78,100
154464,note_on,,,,,32,0,11,,,,,4,,,54,85
154528,note_off,,,,,64,0,14,,,,,6,,,54,100
154528,note_off,,,,,64,0,13,,,,,6,,,66,100
154528,note_off,,,,,64,0,7,,,,,0,,,78,100
154528,note_off,,,,,64,0,11,,,,,4,,,54,100
154560,note_on,,,,,32,0,13,,,,,6,,,67,100
154560,note_on,,,,,32,0,11,,,,,4,,,55,85
154560,note_on,,,,,32,0,7,,,,,0,,,76,100
154560,note_on,,,,,32,0,14,,,,,6,,,55,100
154624,note_off,,,,,64,0,11,,,,,4,,,55,100
154624,note_off,,,,,0,0,13,,,,,6,,,67,100
154624,note_off,,,,,64,0,13,,,,,6,,,71,100
154624,note_off,,,,,64,0,14,,,,,6,,,55,100
154656,note_on,,,,,32,0,11,,,,,4,,,57,85
154656,note_on,,,,,32,0,13,,,,,6,,,69,100
154656,note_on,,,,,32,0,14,,,,,6,,,57,100
154688,note_off,,,,,128,0,7,,,,,0,,,76,100
154720,note_off,,,,,64,0,11,,,,,4,,,57,100
154720,note_off,,,,,64,0,13,,,,,6,,,69,100
154720,note_off,,,,,64,0,14,,,,,6,,,57,100
154752,note_on,,,,,32,0,11,,,,,4,,,59,85
154752,note_on,,,,,32,0,14,,,,,6,,,59,100
154752,note_on,,,,,32,0,13,,,,,6,,,63,100
154752,note_on,,,,,0,0,13,,,,,6,,,71,100
154852,note_off,,,,,100,0,14,,,,,6,,,59,100
154852,note_off,,,,,100,0,11,,,,,4,,,59,100
154880,note_off,,,,,128,0,13,,,,,6,,,63,100
154880,note_off,,,,,0,0,13,,,,,6,,,71,100
154944,note_on,,,,,64,0,13,,,,,6,,,59,100
154944,note_on,,,,,0,0,13,,,,,6,,,66,100
154944,note_on,,,,,92,0,14,,,,,6,,,51,100
154944,note_on,,,,,92,0,11,,,,,4,,,51,85
154944,note_on,,,,,256,0,7,,,,,0,,,83,100
155044,note_off,,,,,100,0,14,,,,,6,,,51,100
155044,note_off,,,,,100,0,7,,,,,0,,,83,100
155044,note_off,,,,,100,0,11,,,,,4,,,51,100
155072,note_off,,,,,128,0,13,,,,,6,,,59,100
155072,note_off,,,,,0,0,13,,,,,6,,,66,100
155136,note_on,,,,,92,0,14,,,,,6,,,52,100
155136,note_on,,,,,92,0,7,,,,,0,,,76,100
155136,note_on,,,,,64,0,13,,,,,6,,,67,100
155136,note_on,,,,,92,0,11,,,,,4,,,52,85
155136,note_on,,,,,0,0,13,,,,,6,,,64,100
155136,note_on,,,,,0,0,13,,,,,6,,,59,100
155200,note_off,,,,,64,0,7,,,,,0,,,76,100
155232,note_on,,,,,32,0,7,,,,,0,,,78,100
155296,note_off,,,,,64,0,7,,,,,0,,,78,100
155328,note_on,,,,,32,0,7,,,,,0,,,79,100
155392,note_off,,,,,256,0,13,,,,,6,,,67,100
155392,note_off,,,,,256,0,11,,,,,4,,,52,100
155392,note_off,,,,,0,0,13,,,,,6,,,64,100
155392,note_off,,,,,0,0,13,,,,,6,,,59,100
155392,note_off,,,,,256,0,14,,,,,6,,,52,100
155392,note_off,,,,,64,0,7,,,,,0,,,79,100
155424,note_on,,,,,32,0,7,,,,,0,,,81,100
155488,note_off,,,,,64,0,7,,,,,0,,,81,100
155520,note_on,,,,,32,0,7,,,,,0,,,83,100
155620,note_off,,,,,100,0,7,,,,,0,,,83,100
155712,note_on,,,,,320,0,11,,,,,4,,,55,70
155712,note_on,,,,,92,0,7,,,,,0,,,76,96
155712,note_on,,,,,320,0,14,,,,,6,,,55,100
155712,note_on,,,,,320,0,13,,,,,6,,,64,100
155712,note_on,,,,,0,0,13,,,,,6,,,71,100
155812,note_off,,,,,100,0,7,,,,,0,,,76,100
155840,note_off,,,,,128,0,14,,,,,6,,,55,100
155840,note_off,,,,,0,0,13,,,,,6,,,71,100
155840,note_off,,,,,128,0,11,,,,,4,,,55,100
155840,note_off,,,,,128,0,13,,,,,6,,,64,100
155904,note_on,,,,,64,0,13,,,,,6,,,65,100
155904,note_on,,,,,64,0,14,,,,,6,,,57,100
155904,note_on,,,,,0,0,13,,,,,6,,,72,100
155904,note_on,,,,,92,0,7,,,,,0,,,77,90
155904,note_on,,,,,64,0,11,,,,,4,,,57,71
156032,note_off,,,,,128,0,14,,,,,6,,,57,100
156032,note_off,,,,,128,0,13,,,,,6,,,65,100
156032,note_off,,,,,0,0,13,,,,,6,,,72,100
156032,note_off,,,,,128,0,11,,,,,4,,,57,100
156092,note_off,,,,,188,0,7,,,,,0,,,77,100
156096,note_on,,,,,64,0,14,,,,,6,,,59,100
156096,note_on,,,,,0,0,13,,,,,6,,,74,100
156096,note_on,,,,,64,0,13,,,,,6,,,68,100
156096,note_on,,,,,4,0,7,,,,,0,,,80,91
156096,note_on,,,,,64,0,11,,,,,4,,,59,72
156224,note_off,,,,,0,0,13,,,,,6,,,74,100
156224,note_off,,,,,128,0,13,,,,,6,,,68,100
156224,note_off,,,,,128,0,14,,,,,6,,,59,100
156224,note_off,,,,,128,0,11,,,,,4,,,59,100
156284,note_off,,,,,188,0,7,,,,,0,,,80,100
156288,note_on,,,,,64,0,13,,,,,6,,,64,100
156288,note_on,,,,,4,0,7,,,,,0,,,81,93
156288,note_on,,,,,0,0,13,,,,,6,,,69,100
156288,note_on,,,,,64,0,14,,,,,6,,,60,100
156288,note_on,,,,,64,0,11,,,,,4,,,60,73
156288,note_on,,,,,0,0,13,,,,,6,,,76,100
156416,note_off,,,,,128,0,13,,,,,6,,,64,100
156416,note_off,,,,,128,0,11,,,,,4,,,60,100
156416,note_off,,,,,0,0,13,,,,,6,,,69,100
156416,note_off,,,,,0,0,13,,,,,6,,,76,100
156416,note_off,,,,,128,0,14,,,,,6,,,60,100
156416,note_off,,,,,128,0,7,,,,,0,,,81,100
156480,note_on,,,,,64,0,14,,,,,6,,,56,100
156480,note_on,,,,,64,0,13,,,,,6,,,71,100
156480,note_on,,,,,0,0,13,,,,,6,,,65,100
156480,note_on,,,,,64,0,11,,,,,4,,,56,74
156480,note_on,,,,,64,0,7,,,,,0,,,83,94
156608,note_off,,,,,128,0,13,,,,,6,,,71,100
156608,note_off,,,,,0,0,13,,,,,6,,,65,100
156608,note_off,,,,,128,0,14,,,,,6,,,56,100
156608,note_off,,,,,128,0,11,,,,,4,,,56,100
156668,note_off,,,,,188,0,7,,,,,0,,,83,100
156672,note_on,,,,,64,0,14,,,,,6,,,57,100
156672,note_on,,,,,64,0,13,,,,,6,,,72,100
156672,note_on,,,,,0,0,13,,,,,6,,,64,100
156672,note_on,,,,,64,0,11,,,,,4,,,57,75
156672,note_on,,,,,4,0,7,,,,,0,,,84,96
156800,note_off,,,,,128,0,13,,,,,6,,,64,100
156800,note_off,,,,,128,0,7,,,,,0,,,84,100
156864,note_on,,,,,64,0,13,,,,,6,,,63,100
156864,note_on,,,,,64,0,7,,,,,0,,,87,98
156928,note_off,,,,,256,0,11,,,,,4,,,57,100
156928,note_off,,,,,256,0,14,,,,,6,,,57,100
156928,note_off,,,,,64,0,13,,,,,6,,,72,100
156992,note_off,,,,,64,0,13,,,,,6,,,63,100
157052,note_off,,,,,188,0,7,,,,,0,,,87,100
157056,note_on,,,,,64,0,13,,,,,6,,,64,100
157056,note_on,,,,,0,0,13,,,,,6,,,71,100
157056,note_on,,,,,4,0,7,,,,,0,,,88,99
157056,note_on,,,,,128,0,11,,,,,4,,,55,78
157056,note_on,,,,,128,0,14,,,,,6,,,55,100
157184,note_off,,,,,128,0,11,,,,,4,,,55,100
157184,note_off,,,,,128,0,13,,,,,6,,,71,100
157184,note_off,,,,,128,0,14,,,,,6,,,55,100
157248,note_on,,,,,64,0,13,,,,,6,,,69,100
157248,note_on,,,,,64,0,11,,,,,4,,,54,79
157248,note_on,,,,,64,0,14,,,,,6,,,54,100
157312,note_off,,,,,64,0,13,,,,,6,,,64,100
157376,note_off,,,,,128,0,14,,,,,6,,,54,100
157376,note_off,,,,,64,0,13,,,,,6,,,69,100
157376,note_off,,,,,128,0,11,,,,,4,,,54,100
157440,note_off,,,,,384,0,7,,,,,0,,,88,100
157440,note_on,,,,,64,0,11,,,,,4,,,52,80
157440,note_on,,,,,64,0,14,,,,,6,,,52,100
157440,note_on,,,,,0,0,13,,,,,6,,,67,100
157440,note_on,,,,,64,0,13,,,,,6,,,59,100
157536,note_on,,,,,96,0,7,,,,,0,,,86,100
157628,note_off,,,,,92,0,7,,,,,0,,,86,100
157632,note_on,,,,,4,0,7,,,,,0,,,84,100
157696,note_off,,,,,64,0,7,,,,,0,,,84,100
157696,note_off,,,,,256,0,11,,,,,4,,,52,100
157696,note_off,,,,,256,0,13,,,,,6,,,59,100
157696,note_off,,,,,0,0,13,,,,,6,,,67,100
157696,note_off,,,,,256,0,14,,,,,6,,,52,100
157728,note_on,,,,,32,0,7,,,,,0,,,83,99
157820,note_off,,,,,92,0,7,,,,,0,,,83,100
157824,note_on,,,,,4,0,7,,,,,0,,,81,98
157824,note_on,,,,,128,0,14,,,,,6,,,53,100
157824,note_on,,,,,128,0,11,,,,,4,,,53,82
157824,note_on,,,,,128,0,13,,,,,6,,,57,100
157824,note_on,,,,,0,0,13,,,,,6,,,65,100
157888,note_off,,,,,64,0,7,,,,,0,,,81,100
157920,note_on,,,,,32,0,7,,,,,0,,,79,98
157952,note_off,,,,,128,0,14,,,,,6,,,53,100
157952,note_off,,,,,0,0,13,,,,,6,,,65,100
157952,note_off,,,,,128,0,11,,,,,4,,,53,100
157952,note_off,,,,,128,0,13,,,,,6,,,57,100
158012,note_off,,,,,92,0,7,,,,,0,,,79,100
158016,note_on,,,,,64,0,11,,,,,4,,,44,83
158016,note_on,,,,,64,0,14,,,,,6,,,44,100
158016,note_on,,,,,64,0,13,,,,,6,,,59,100
158016,note_on,,,,,0,0,13,,,,,6,,,64,100
158016,note_on,,,,,4,0,7,,,,,0,,,77,97
158080,note_off,,,,,64,0,7,,,,,0,,,77,100
158112,note_on,,,,,32,0,7,,,,,0,,,76,96
158144,note_off,,,,,128,0,14,,,,,6,,,44,100
158144,note_off,,,,,128,0,11,,,,,4,,,44,100
158144,note_off,,,,,0,0,13,,,,,6,,,64,100
158144,note_off,,,,,128,0,13,,,,,6,,,59,100
158204,note_off,,,,,92,0,7,,,,,0,,,76,100
158208,note_on,,,,,64,0,11,,,,,4,,,45,84
158208,note_on,,,,,4,0,7,,,,,0,,,77,96
158208,note_on,,,,,64,0,14,,,,,6,,,45,100
158208,note_on,,,,,0,0,13,,,,,6,,,60,100
158208,note_on,,,,,64,0,13,,,,,6,,,65,100
158272,note_off,,,,,64,0,7,,,,,0,,,77,100
158304,note_on,,,,,32,0,7,,,,,0,,,84,100
158396,note_off,,,,,92,0,7,,,,,0,,,84,100
158400,note_on,,,,,4,0,7,,,,,0,,,83,100
158464,note_off,,,,,64,0,7,,,,,0,,,83,100
158464,note_off,,,,,256,0,13,,,,,6,,,65,100
158496,note_on,,,,,32,0,7,,,,,0,,,81,100
158588,note_off,,,,,92,0,7,,,,,0,,,81,100
158592,note_off,,,,,128,0,13,,,,,6,,,60,100
158592,note_on,,,,,0,0,13,,,,,6,,,64,100
158592,note_on,,,,,4,0,7,,,,,0,,,79,99
158656,note_off,,,,,64,0,7,,,,,0,,,79,100
158668,note_off,,,,,460,0,14,,,,,6,,,45,100
158668,note_off,,,,,460,0,11,,,,,4,,,45,100
158688,note_on,,,,,32,0,7,,,,,0,,,77,98
158720,note_off,,,,,128,0,13,,,,,6,,,64,100
158780,note_off,,,,,92,0,7,,,,,0,,,77,100
158784,note_on,,,,,4,0,7,,,,,0,,,76,97
158784,note_on,,,,,116,0,14,,,,,6,,,47,100
158784,note_on,,,,,116,0,11,,,,,4,,,47,85
158784,note_on,,,,,64,0,13,,,,,6,,,59,100
158784,note_on,,,,,0,0,13,,,,,6,,,63,100
158848,note_off,,,,,64,0,7,,,,,0,,,76,100
158880,note_on,,,,,32,0,7,,,,,0,,,75,96
158912,note_off,,,,,128,0,14,,,,,6,,,47,100
158912,note_off,,,,,0,0,13,,,,,6,,,63,100
158912,note_off,,,,,128,0,13,,,,,6,,,59,100
158912,note_off,,,,,128,0,11,,,,,4,,,47,100
158972,note_off,,,,,92,0,7,,,,,0,,,75,100
158976,note_on,,,,,64,0,11,,,,,4,,,48,85
158976,note_on,,,,,64,0,14,,,,,6,,,48,100
158976,note_on,,,,,4,0,7,,,,,0,,,76,96
158976,note_on,,,,,64,0,13,,,,,6,,,57,100
158976,note_on,,,,,0,0,13,,,,,6,,,64,100
159040,note_off,,,,,64,0,7,,,,,0,,,76,100
159072,note_on,,,,,32,0,7,,,,,0,,,83,100
159104,note_off,,,,,128,0,13,,,,,6,,,57,100
159164,note_off,,,,,92,0,7,,,,,0,,,83,100
159168,note_on,,,,,4,0,7,,,,,0,,,81,100
159168,note_on,,,,,64,0,13,,,,,6,,,60,100
159232,note_off,,,,,64,0,7,,,,,0,,,81,100
159232,note_off,,,,,256,0,11,,,,,4,,,48,100
159232,note_off,,,,,64,0,13,,,,,6,,,64,100
159232,note_off,,,,,256,0,14,,,,,6,,,48,100
159264,note_on,,,,,32,0,7,,,,,0,,,79,99
159356,note_off,,,,,92,0,7,,,,,0,,,79,100
159360,note_on,,,,,128,0,13,,,,,6,,,66,100
159360,note_on,,,,,4,0,7,,,,,0,,,78,98
159360,note_on,,,,,128,0,11,,,,,4,,,45,85
159360,note_on,,,,,128,0,14,,,,,6,,,45,100
159424,note_off,,,,,64,0,7,,,,,0,,,78,100
159424,note_off,,,,,64,0,13,,,,,6,,,60,100
159456,note_on,,,,,32,0,7,,,,,0,,,76,98
159548,note_off,,,,,92,0,7,,,,,0,,,76,100
159552,note_on,,,,,4,0,7,,,,,0,,,75,97
159552,note_on,,,,,128,0,13,,,,,6,,,63,100
159616,note_off,,,,,256,0,11,,,,,4,,,45,100
159616,note_off,,,,,256,0,14,,,,,6,,,45,100
159616,note_off,,,,,64,0,13,,,,,6,,,66,100
159616,note_off,,,,,64,0,7,,,,,0,,,75,100
159648,note_on,,,,,32,0,7,,,,,0,,,73,96
159680,note_off,,,,,64,0,13,,,,,6,,,63,100
159740,note_off,,,,,92,0,7,,,,,0,,,73,100
159744,note_on,,,,,4,0,7,,,,,0,,,71,95
159744,note_on,,,,,128,0,11,,,,,4,,,55,85
159744,note_on,,,,,128,0,14,,,,,6,,,55,100
159744,note_on,,,,,64,0,13,,,,,6,,,64,100
159872,note_off,,,,,128,0,7,,,,,0,,,71,100
159872,note_off,,,,,128,0,13,,,,,6,,,64,100
159872,note_off,,,,,128,0,14,,,,,6,,,55,100
159872,note_off,,,,,128,0,11,,,,,4,,,55,100
159936,note_on,,,,,0,0,13,,,,,6,,,69,100
159936,note_on,,,,,64,0,13,,,,,6,,,63,100
159936,note_on,,,,,64,0,7,,,,,0,,,75,96
159936,note_on,,,,,64,0,14,,,,,6,,,54,100
159936,note_on,,,,,64,0,11,,,,,4,,,54,85
160064,note_off,,,,,128,0,11,,,,,4,,,54,100
160064,note_off,,,,,128,0,14,,,,,6,,,54,100
160064,note_off,,,,,0,0,13,,,,,6,,,69,100
160064,note_off,,,,,128,0,13,,,,,6,,,63,100
160124,note_off,,,,,188,0,7,,,,,0,,,75,100
160128,note_on,,,,,64,0,11,,,,,4,,,52,85
160128,note_on,,,,,64,0,13,,,,,6,,,64,100
160128,note_on,,,,,4,0,7,,,,,0,,,76,97
160128,note_on,,,,,0,0,13,,,,,6,,,67,100
160128,note_on,,,,,64,0,14,,,,,6,,,52,100
160256,note_off,,,,,128,0,14,,,,,6,,,52,100
160256,note_off,,,,,128,0,7,,,,,0,,,76,100
160256,note_off,,,,,128,0,11,,,,,4,,,52,100
160256,note_off,,,,,0,0,13,,,,,6,,,67,100
160256,note_off,,,,,128,0,13,,,,,6,,,64,100
160320,note_on,,,,,0,0,13,,,,,6,,,64,100
160320,note_on,,,,,64,0,13,,,,,6,,,70,100
160320,note_on,,,,,64,0,7,,,,,0,,,82,98
160320,note_on,,,,,64,0,11,,,,,4,,,48,85
160320,note_on,,,,,64,0,14,,,,,6,,,48,100
160448,note_off,,,,,128,0,13,,,,,6,,,70,100
160448,note_off,,,,,0,0,13,,,,,6,,,64,100
160448,note_off,,,,,128,0,14,,,,,6,,,48,100
160448,note_off,,,,,128,0,11,,,,,4,,,48,100
160508,note_off,,,,,188,0,7,,,,,0,,,82,100
160512,note_on,,,,,64,0,13,,,,,6,,,63,100
160512,note_on,,,,,0,0,13,,,,,6,,,71,100
160512,note_on,,,,,64,0,14,,,,,6,,,47,100
160512,note_on,,,,,4,0,7,,,,,0,,,83,100
160512,note_on,,,,,64,0,11,,,,,4,,,47,85
160640,note_off,,,,,128,0,7,,,,,0,,,83,100
160640,note_off,,,,,128,0,13,,,,,6,,,63,100
160640,note_off,,,,,128,0,14,,,,,6,,,47,100
160640,note_off,,,,,128,0,11,,,,,4,,,47,100
160704,note_on,,,,,64,0,13,,,,,6,,,66,100
160704,note_on,,,,,64,0,7,,,,,0,,,87,101
160704,note_on,,,,,64,0,14,,,,,6,,,45,100
160704,note_on,,,,,64,0,11,,,,,4,,,45,85
160832,note_off,,,,,128,0,14,,,,,6,,,45,100
160832,note_off,,,,,128,0,13,,,,,6,,,66,100
160832,note_off,,,,,128,0,11,,,,,4,,,45,100
160892,note_off,,,,,188,0,7,,,,,0,,,87,100
160896,note_on,,,,,0,0,13,,,,,6,,,64,100
160896,note_on,,,,,4,0,7,,,,,0,,,88,102
160896,note_on,,,,,64,0,14,,,,,6,,,43,100
160896,note_on,,,,,64,0,11,,,,,4,,,43,85
160896,note_off,,,,,64,0,13,,,,,6,,,71,100
161024,note_off,,,,,128,0,13,,,,,6,,,64,100
161024,note_off,,,,,128,0,11,,,,,4,,,43,100
161024,note_off,,,,,128,0,14,,,,,6,,,43,100
161024,note_off,,,,,128,0,7,,,,,0,,,88,100
161088,note_on,,,,,0,0,13,,,,,6,,,64,100
161088,note_on,,,,,64,0,13,,,,,6,,,60,100
161088,note_on,,,,,64,0,7,,,,,0,,,76,100
161088,note_on,,,,,64,0,11,,,,,4,,,45,85
161088,note_on,,,,,64,0,14,,,,,6,,,45,100
161216,note_off,,,,,128,0,7,,,,,0,,,76,100
161216,note_off,,,,,128,0,13,,,,,6,,,60,100
161216,note_off,,,,,128,0,14,,,,,6,,,45,100
161216,note_off,,,,,128,0,11,,,,,4,,,45,100
161216,note_off,,,,,0,0,13,,,,,6,,,64,100
161280,note_on,,,,,64,0,13,,,,,6,,,66,100
161280,note_on,,,,,0,0,13,,,,,6,,,63,100
161280,note_on,,,,,64,0,7,,,,,0,,,76,103
161280,note_on,,,,,64,0,11,,,,,4,,,47,85
161280,set_tempo,,,,,62880,1,0,,576923,,,,,,,
161280,note_on,,,,,64,0,14,,,,,6,,,47,100
161372,note_off,,,,,92,0,7,,,,,0,,,76,100
161376,note_on,,,,,4,0,7,,,,,0,,,75,103
161420,note_off,,,,,44,0,7,,,,,0,,,75,100
161424,note_on,,,,,4,0,7,,,,,0,,,76,102
161424,set_tempo,,,,,144,1,0,,582524,,,,,,,
161468,note_off,,,,,44,0,7,,,,,0,,,76,100
161472,note_on,,,,,4,0,7,,,,,0,,,75,102
161516,note_off,,,,,44,0,7,,,,,0,,,75,100
161520,note_on,,,,,4,0,7,,,,,0,,,76,101
161536,note_off,,,,,0,0,13,,,,,6,,,63,100
161536,note_off,,,,,256,0,13,,,,,6,,,66,100
161564,note_off,,,,,44,0,7,,,,,0,,,76,100
161568,set_tempo,,,,,144,1,0,,588235,,,,,,,
161568,note_on,,,,,4,0,7,,,,,0,,,75,101
161612,note_off,,,,,44,0,7,,,,,0,,,75,100
161616,note_on,,,,,4,0,7,,,,,0,,,76,100
161660,note_off,,,,,44,0,7,,,,,0,,,76,100
161664,note_on,,,,,4,0,7,,,,,0,,,75,100
161664,note_on,,,,,128,0,13,,,,,6,,,75,100
161664,note_on,,,,,0,0,13,,,,,6,,,71,100
161664,note_on,,,,,0,0,13,,,,,6,,,66,100
161712,set_tempo,,,,,144,1,0,,594059,,,,,,,
161792,note_off,,,,,128,0,7,,,,,0,,,75,100
161856,note_on,,,,,9536,0,8,,,,,1,,,83,100
161856,note_on,,,,,64,0,7,,,,,0,,,76,98
161856,set_tempo,,,,,144,1,0,,600000,,,,,,,
161920,note_off,,,,,0,0,13,,,,,6,,,66,100
161920,note_off,,,,,0,0,13,,,,,6,,,71,100
161920,note_off,,,,,256,0,13,,,,,6,,,75,100
161936,note_off,,,,,80,0,8,,,,,1,,,83,100
161968,note_off,,,,,688,0,14,,,,,6,,,47,100
161968,note_off,,,,,688,0,11,,,,,4,,,47,100
161984,note_off,,,,,128,0,7,,,,,0,,,76,100
162048,set_tempo,,,,,192,1,0,,576923,,,,,,,
162048,note_on,,,,,64,0,7,,,,,0,,,76,96
162048,note_on,,,,,9728,0,10,,,,,3,,,67,100
162048,note_on,,,,,80,0,11,,,,,4,,,52,100
162048,note_on,,,,,112,0,8,,,,,1,,,76,100
162048,note_on,,,,,0,0,15,,,,,7,,,76,100
162048,note_on,,,,,14720,0,15,,,,,7,,,67,100
162048,note_on,,,,,14720,0,16,,,,,7,,,52,100
162048,note_on,,,,,14720,0,12,,,,,5,,,40,100
162048,note_on,,,,,80,0,14,,,,,6,,,52,100
162048,note_on,,,,,128,0,13,,,,,6,,,67,100
162048,note_on,,,,,0,0,13,,,,,6,,,76,100
162048,note_on,,,,,0,0,15,,,,,7,,,71,100
162048,note_on,,,,,0,0,13,,,,,6,,,71,100
162112,note_off,,,,,64,0,8,,,,,1,,,76,100
162144,note_on,,,,,32,0,8,,,,,1,,,78,100
162148,note_off,,,,,100,0,11,,,,,4,,,52,100
162148,note_off,,,,,100,0,16,,,,,7,,,52,100
162148,note_off,,,,,100,0,14,,,,,6,,,52,100
162148,note_off,,,,,100,0,12,,,,,5,,,40,100
162208,note_off,,,,,64,0,8,,,,,1,,,78,100
162220,note_off,,,,,172,0,7,,,,,0,,,76,100
162220,end_of_track,,,,,0,1,7,,,,,,,,,
162240,note_on,,,,,92,0,14,,,,,6,,,52,100
162240,note_on,,,,,32,0,8,,,,,1,,,79,100
162240,note_on,,,,,92,0,16,,,,,7,,,52,100
162240,note_on,,,,,92,0,12,,,,,5,,,40,100
162240,note_on,,,,,92,0,11,,,,,4,,,52,100
162304,note_off,,,,,256,0,13,,,,,6,,,67,100
162304,note_off,,,,,64,0,8,,,,,1,,,79,100
162304,note_off,,,,,0,0,13,,,,,6,,,71,100
162304,note_off,,,,,0,0,13,,,,,6,,,76,100
162336,note_on,,,,,32,0,8,,,,,1,,,81,100
162340,note_off,,,,,100,0,11,,,,,4,,,52,100
162340,note_off,,,,,100,0,12,,,,,5,,,40,100
162340,note_off,,,,,100,0,16,,,,,7,,,52,100
162340,note_off,,,,,100,0,14,,,,,6,,,52,100
162400,note_off,,,,,64,0,8,,,,,1,,,81,100
162432,note_on,,,,,128,0,13,,,,,6,,,71,100
162432,note_on,,,,,0,0,13,,,,,6,,,79,100
162432,note_on,,,,,384,0,15,,,,,7,,,79,100
162432,note_on,,,,,92,0,11,,,,,4,,,52,100
162432,note_on,,,,,92,0,16,,,,,7,,,52,100
162432,note_on,,,,,92,0,14,,,,,6,,,52,100
162432,note_on,,,,,92,0,12,,,,,5,,,40,100
162432,note_on,,,,,32,0,8,,,,,1,,,83,100
162532,note_off,,,,,100,0,14,,,,,6,,,52,100
162532,note_off,,,,,100,0,11,,,,,4,,,52,100
162532,note_off,,,,,100,0,8,,,,,1,,,83,100
162532,note_off,,,,,100,0,12,,,,,5,,,40,100
162532,note_off,,,,,100,0,16,,,,,7,,,52,100
162624,note_on,,,,,92,0,12,,,,,5,,,43,100
162624,note_on,,,,,92,0,11,,,,,4,,,55,100
162624,note_on,,,,,92,0,16,,,,,7,,,55,100
162624,note_on,,,,,92,0,8,,,,,1,,,83,100
162624,note_on,,,,,92,0,14,,,,,6,,,55,100
162624,note_on,,,,,10304,0,9,,,,,2,,,76,100
162688,note_off,,,,,256,0,13,,,,,6,,,71,100
162688,note_off,,,,,0,0,13,,,,,6,,,79,100
162688,note_off,,,,,256,0,15,,,,,7,,,79,100
162704,note_off,,,,,80,0,9,,,,,2,,,76,100
162724,note_off,,,,,100,0,16,,,,,7,,,55,100
162724,note_off,,,,,100,0,14,,,,,6,,,55,100
162724,note_off,,,,,100,0,12,,,,,5,,,43,100
162724,note_off,,,,,100,0,11,,,,,4,,,55,100
162724,note_off,,,,,100,0,8,,,,,1,,,83,100
162736,note_off,,,,,48,0,15,,,,,7,,,67,100
162736,note_off,,,,,0,0,15,,,,,7,,,71,100
162736,note_off,,,,,0,0,15,,,,,7,,,76,100
162816,note_on,,,,,92,0,12,,,,,5,,,45,100
162816,note_on,,,,,112,0,9,,,,,2,,,69,100
162816,note_on,,,,,80,0,15,,,,,7,,,69,100
162816,note_on,,,,,0,0,15,,,,,7,,,79,100
162816,note_on,,,,,0,0,15,,,,,7,,,76,100
162816,note_on,,,,,0,0,15,,,,,7,,,72,100
162816,note_on,,,,,92,0,14,,,,,6,,,57,100
162816,note_on,,,,,128,0,13,,,,,6,,,72,100
162816,note_on,,,,,92,0,16,,,,,7,,,57,100
162816,note_on,,,,,92,0,8,,,,,1,,,72,100
162816,note_on,,,,,92,0,11,,,,,4,,,57,100
162844,note_on,,,,,28,0,13,,,,,6,,,76,100
162876,note_on,,,,,32,0,13,,,,,6,,,79,100
162880,note_off,,,,,64,0,9,,,,,2,,,69,100
162912,note_on,,,,,32,0,9,,,,,2,,,71,100
162916,note_off,,,,,100,0,14,,,,,6,,,57,100
162916,note_off,,,,,100,0,16,,,,,7,,,57,100
162916,note_off,,,,,100,0,11,,,,,4,,,57,100
162916,note_off,,,,,100,0,12,,,,,5,,,45,100
162976,note_off,,,,,64,0,9,,,,,2,,,71,100
162988,note_off,,,,,940,0,10,,,,,3,,,67,100
163008,note_on,,,,,92,0,16,,,,,7,,,57,100
163008,note_on,,,,,32,0,9,,,,,2,,,72,100
163008,note_on,,,,,92,0,14,,,,,6,,,57,100
163008,note_on,,,,,92,0,12,,,,,5,,,45,100
163008,note_on,,,,,20,0,10,,,,,3,,,64,100
163008,note_on,,,,,92,0,11,,,,,4,,,57,100
163072,note_off,,,,,64,0,9,,,,,2,,,72,100
163104,note_on,,,,,32,0,9,,,,,2,,,74,100
163108,note_off,,,,,100,0,11,,,,,4,,,57,100
163108,note_off,,,,,100,0,14,,,,,6,,,57,100
163108,note_off,,,,,100,0,16,,,,,7,,,57,100
163108,note_off,,,,,100,0,12,,,,,5,,,45,100
163136,note_off,,,,,128,0,10,,,,,3,,,64,100
163168,note_off,,,,,64,0,9,,,,,2,,,74,100
163200,note_on,,,,,92,0,14,,,,,6,,,57,100
163200,note_on,,,,,92,0,12,,,,,5,,,45,100
163200,note_on,,,,,64,0,10,,,,,3,,,60,100
163200,note_on,,,,,32,0,9,,,,,2,,,76,100
163200,note_on,,,,,92,0,16,,,,,7,,,57,100
163200,note_on,,,,,92,0,11,,,,,4,,,57,100
163276,note_off,,,,,460,0,8,,,,,1,,,72,100
163300,note_off,,,,,100,0,16,,,,,7,,,57,100
163300,note_off,,,,,100,0,14,,,,,6,,,57,100
163300,note_off,,,,,100,0,11,,,,,4,,,57,100
163300,note_off,,,,,100,0,12,,,,,5,,,45,100
163300,note_off,,,,,100,0,9,,,,,2,,,76,100
163324,note_off,,,,,448,0,13,,,,,6,,,76,100
163324,note_off,,,,,0,0,13,,,,,6,,,79,100
163328,note_off,,,,,4,0,13,,,,,6,,,72,100
163392,note_on,,,,,92,0,14,,,,,6,,,48,100
163392,note_on,,,,,116,0,8,,,,,1,,,81,100
163392,note_on,,,,,92,0,16,,,,,7,,,48,100
163392,note_on,,,,,92,0,11,,,,,4,,,48,100
163392,note_on,,,,,92,0,12,,,,,5,,,36,100
163392,note_on,,,,,92,0,9,,,,,2,,,76,100
163472,note_off,,,,,80,0,8,,,,,1,,,81,100
163492,note_off,,,,,100,0,11,,,,,4,,,48,100
163492,note_off,,,,,100,0,14,,,,,6,,,48,100
163492,note_off,,,,,100,0,16,,,,,7,,,48,100
163492,note_off,,,,,100,0,12,,,,,5,,,36,100
163492,note_off,,,,,100,0,9,,,,,2,,,76,100
163504,note_off,,,,,0,0,15,,,,,7,,,79,100
163504,note_off,,,,,688,0,15,,,,,7,,,76,100
163584,note_on,,,,,92,0,16,,,,,7,,,50,100
163584,note_on,,,,,256,0,13,,,,,6,,,72,100
163584,note_on,,,,,92,0,9,,,,,2,,,66,100
163584,note_on,,,,,112,0,8,,,,,1,,,74,100
163584,note_on,,,,,0,0,15,,,,,7,,,78,100
163584,note_on,,,,,80,0,15,,,,,7,,,74,100
163584,note_on,,,,,92,0,11,,,,,4,,,50,100
163584,note_on,,,,,92,0,12,,,,,5,,,38,100
163584,note_on,,,,,92,0,14,,,,,6,,,50,100
163612,note_on,,,,,28,0,13,,,,,6,,,74,100
163644,note_on,,,,,32,0,13,,,,,6,,,78,100
163648,note_off,,,,,64,0,8,,,,,1,,,74,100
163680,note_on,,,,,32,0,8,,,,,1,,,76,100
163684,note_off,,,,,100,0,12,,,,,5,,,38,100
163684,note_off,,,,,100,0,14,,,,,6,,,50,100
163684,note_off,,,,,100,0,16,,,,,7,,,50,100
163684,note_off,,,,,100,0,11,,,,,4,,,50,100
163716,note_off,,,,,516,0,10,,,,,3,,,60,100
163744,note_off,,,,,64,0,8,,,,,1,,,76,100
163776,note_on,,,,,60,0,10,,,,,3,,,57,100
163776,note_on,,,,,92,0,14,,,,,6,,,50,100
163776,note_on,,,,,92,0,16,,,,,7,,,50,100
163776,note_on,,,,,32,0,8,,,,,1,,,78,100
163776,note_on,,,,,92,0,11,,,,,4,,,50,100
163776,note_on,,,,,92,0,12,,,,,5,,,38,100
163840,note_off,,,,,64,0,8,,,,,1,,,78,100
163872,note_on,,,,,32,0,8,,,,,1,,,79,100
163876,note_off,,,,,100,0,12,,,,,5,,,38,100
163876,note_off,,,,,100,0,14,,,,,6,,,50,100
163876,note_off,,,,,100,0,11,,,,,4,,,50,100
163876,note_off,,,,,100,0,16,,,,,7,,,50,100
163904,note_off,,,,,128,0,10,,,,,3,,,57,100
163936,note_off,,,,,64,0,8,,,,,1,,,79,100
163968,note_on,,,,,92,0,14,,,,,6,,,50,100
163968,note_on,,,,,92,0,11,,,,,4,,,50,100
163968,note_on,,,,,64,0,10,,,,,3,,,66,100
163968,note_on,,,,,32,0,8,,,,,1,,,81,100
163968,note_on,,,,,92,0,12,,,,,5,,,38,100
163968,note_on,,,,,92,0,16,,,,,7,,,50,100
164044,note_off,,,,,460,0,9,,,,,2,,,66,100
164068,note_off,,,,,100,0,16,,,,,7,,,50,100
164068,note_off,,,,,100,0,12,,,,,5,,,38,100
164068,note_off,,,,,100,0,8,,,,,1,,,81,100
164068,note_off,,,,,100,0,14,,,,,6,,,50,100
164068,note_off,,,,,100,0,11,,,,,4,,,50,100
164092,note_off,,,,,448,0,13,,,,,6,,,74,100
164092,note_off,,,,,0,0,13,,,,,6,,,78,100
164096,note_off,,,,,4,0,13,,,,,6,,,72,100
164160,note_on,,,,,92,0,11,,,,,4,,,54,100
164160,note_on,,,,,92,0,12,,,,,5,,,42,100
164160,note_on,,,,,92,0,8,,,,,1,,,81,100
164160,note_on,,,,,116,0,9,,,,,2,,,74,100
164160,note_on,,,,,92,0,16,,,,,7,,,54,100
164160,note_on,,,,,92,0,14,,,,,6,,,54,100
164196,note_off,,,,,612,0,15,,,,,7,,,69,100
164196,note_off,,,,,0,0,15,,,,,7,,,72,100
164240,note_off,,,,,80,0,9,,,,,2,,,74,100
164260,note_off,,,,,100,0,12,,,,,5,,,42,100
164260,note_off,,,,,100,0,14,,,,,6,,,54,100
164260,note_off,,,,,100,0,16,,,,,7,,,54,100
164260,note_off,,,,,100,0,11,,,,,4,,,54,100
164260,note_off,,,,,100,0,8,,,,,1,,,81,100
164352,note_on,,,,,156,0,15,,,,,7,,,67,100
164352,note_on,,,,,0,0,15,,,,,7,,,71,100
164352,note_on,,,,,92,0,12,,,,,5,,,43,100
164352,note_on,,,,,92,0,8,,,,,1,,,71,100
164352,note_on,,,,,92,0,11,,,,,4,,,55,100
164352,note_on,,,,,92,0,16,,,,,7,,,55,100
164352,note_on,,,,,92,0,14,,,,,6,,,55,100
164352,note_on,,,,,256,0,13,,,,,6,,,71,100
164352,note_on,,,,,112,0,9,,,,,2,,,67,100
164380,note_on,,,,,28,0,13,,,,,6,,,74,100
164412,note_on,,,,,32,0,13,,,,,6,,,78,100
164416,note_off,,,,,64,0,9,,,,,2,,,67,100
164448,note_on,,,,,32,0,9,,,,,2,,,69,100
164452,note_off,,,,,100,0,12,,,,,5,,,43,100
164452,note_off,,,,,100,0,14,,,,,6,,,55,100
164452,note_off,,,,,100,0,11,,,,,4,,,55,100
164452,note_off,,,,,100,0,16,,,,,7,,,55,100
164484,note_off,,,,,516,0,10,,,,,3,,,66,100
164512,note_off,,,,,64,0,9,,,,,2,,,69,100
164544,note_on,,,,,32,0,9,,,,,2,,,71,100
164544,note_on,,,,,92,0,16,,,,,7,,,55,100
164544,note_on,,,,,92,0,11,,,,,4,,,55,100
164544,note_on,,,,,60,0,10,,,,,3,,,62,100
164544,note_on,,,,,92,0,14,,,,,6,,,55,100
164544,note_on,,,,,92,0,12,,,,,5,,,43,100
164608,note_off,,,,,64,0,9,,,,,2,,,71,100
164640,note_on,,,,,32,0,9,,,,,2,,,72,100
164644,note_off,,,,,100,0,14,,,,,6,,,55,100
164644,note_off,,,,,100,0,11,,,,,4,,,55,100
164644,note_off,,,,,100,0,16,,,,,7,,,55,100
164644,note_off,,,,,100,0,12,,,,,5,,,43,100
164672,note_off,,,,,128,0,10,,,,,3,,,62,100
164704,note_off,,,,,64,0,9,,,,,2,,,72,100
164736,note_on,,,,,32,0,9,,,,,2,,,74,99
164736,note_on,,,,,92,0,12,,,,,5,,,43,99
164736,note_on,,,,,92,0,11,,,,,4,,,55,99
164736,note_on,,,,,92,0,16,,,,,7,,,55,100
164736,note_on,,,,,92,0,14,,,,,6,,,55,100
164736,note_on,,,,,64,0,10,,,,,3,,,59,99
164812,note_off,,,,,460,0,8,,,,,1,,,71,100
164836,note_off,,,,,100,0,16,,,,,7,,,55,100
164836,note_off,,,,,100,0,11,,,,,4,,,55,100
164836,note_off,,,,,100,0,12,,,,,5,,,43,100
164836,note_off,,,,,100,0,14,,,,,6,,,55,100
164836,note_off,,,,,100,0,9,,,,,2,,,74,100
164860,note_off,,,,,0,0,13,,,,,6,,,78,100
164860,note_off,,,,,448,0,13,,,,,6,,,74,100
164864,note_off,,,,,4,0,13,,,,,6,,,71,100
164928,note_on,,,,,92,0,12,,,,,5,,,35,99
164928,note_on,,,,,92,0,11,,,,,4,,,47,99
164928,note_on,,,,,92,0,14,,,,,6,,,47,100
164928,note_on,,,,,116,0,8,,,,,1,,,79,99
164928,note_on,,,,,92,0,16,,,,,7,,,47,100
164928,note_on,,,,,92,0,9,,,,,2,,,74,99
165008,note_off,,,,,80,0,8,,,,,1,,,79,100
165028,note_off,,,,,100,0,16,,,,,7,,,47,100
165028,note_off,,,,,100,0,9,,,,,2,,,74,100
165028,note_off,,,,,100,0,14,,,,,6,,,47,100
165028,note_off,,,,,100,0,11,,,,,4,,,47,100
165028,note_off,,,,,100,0,12,,,,,5,,,35,100
165040,note_off,,,,,0,0,15,,,,,7,,,78,100
165040,note_off,,,,,688,0,15,,,,,7,,,74,100
165120,note_on,,,,,92,0,14,,,,,6,,,48,100
165120,note_on,,,,,92,0,9,,,,,2,,,64,98
165120,note_on,,,,,112,0,8,,,,,1,,,72,98
165120,note_on,,,,,80,0,15,,,,,7,,,72,100
165120,note_on,,,,,92,0,12,,,,,5,,,36,98
165120,note_on,,,,,256,0,13,,,,,6,,,71,100
165120,note_on,,,,,92,0,11,,,,,4,,,48,98
165120,note_on,,,,,92,0,16,,,,,7,,,48,100
165120,note_on,,,,,0,0,15,,,,,7,,,76,100
165148,note_on,,,,,28,0,13,,,,,6,,,72,100
165180,note_on,,,,,32,0,13,,,,,6,,,76,100
165184,note_off,,,,,64,0,8,,,,,1,,,72,100
165216,note_on,,,,,32,0,8,,,,,1,,,74,98
165220,note_off,,,,,100,0,14,,,,,6,,,48,100
165220,note_off,,,,,100,0,12,,,,,5,,,36,100
165220,note_off,,,,,100,0,16,,,,,7,,,48,100
165220,note_off,,,,,100,0,11,,,,,4,,,48,100
165252,note_off,,,,,516,0,10,,,,,3,,,59,100
165280,note_off,,,,,64,0,8,,,,,1,,,74,100
165312,note_on,,,,,60,0,10,,,,,3,,,55,97
165312,note_on,,,,,92,0,14,,,,,6,,,48,100
165312,note_on,,,,,32,0,8,,,,,1,,,76,97
165312,note_on,,,,,92,0,11,,,,,4,,,48,97
165312,note_on,,,,,92,0,12,,,,,5,,,36,97
165312,note_on,,,,,92,0,16,,,,,7,,,48,100
165376,note_off,,,,,64,0,8,,,,,1,,,76,100
165408,note_on,,,,,32,0,8,,,,,1,,,78,97
165412,note_off,,,,,100,0,16,,,,,7,,,48,100
165412,note_off,,,,,100,0,14,,,,,6,,,48,100
165412,note_off,,,,,100,0,11,,,,,4,,,48,100
165412,note_off,,,,,100,0,12,,,,,5,,,36,100
165440,note_off,,,,,128,0,10,,,,,3,,,55,100
165472,note_off,,,,,64,0,8,,,,,1,,,78,100
165504,note_on,,,,,32,0,8,,,,,1,,,79,97
165504,note_on,,,,,92,0,12,,,,,5,,,36,97
165504,note_on,,,,,92,0,14,,,,,6,,,48,100
165504,note_on,,,,,64,0,10,,,,,3,,,64,97
165504,note_on,,,,,92,0,16,,,,,7,,,48,100
165504,note_on,,,,,92,0,11,,,,,4,,,48,97
165580,note_off,,,,,460,0,9,,,,,2,,,64,100
165604,note_off,,,,,100,0,14,,,,,6,,,48,100
165604,note_off,,,,,100,0,16,,,,,7,,,48,100
165604,note_off,,,,,100,0,11,,,,,4,,,48,100
165604,note_off,,,,,100,0,8,,,,,1,,,79,100
165604,note_off,,,,,100,0,12,,,,,5,,,36,100
165628,note_off,,,,,448,0,13,,,,,6,,,72,100
165628,note_off,,,,,0,0,13,,,,,6,,,76,100
165632,note_off,,,,,4,0,13,,,,,6,,,71,100
165696,note_on,,,,,92,0,11,,,,,4,,,52,96
165696,note_on,,,,,116,0,9,,,,,2,,,72,96
165696,note_on,,,,,92,0,8,,,,,1,,,79,96
165696,note_on,,,,,92,0,12,,,,,5,,,40,96
165696,note_on,,,,,92,0,14,,,,,6,,,52,100
165696,note_on,,,,,92,0,16,,,,,7,,,52,100
165732,note_off,,,,,0,0,15,,,,,7,,,71,100
165732,note_off,,,,,612,0,15,,,,,7,,,67,100
165776,note_off,,,,,80,0,9,,,,,2,,,72,100
165796,note_off,,,,,100,0,8,,,,,1,,,79,100
165796,note_off,,,,,100,0,12,,,,,5,,,40,100
165796,note_off,,,,,100,0,16,,,,,7,,,52,100
165796,note_off,,,,,100,0,14,,,,,6,,,52,100
165796,note_off,,,,,100,0,11,,,,,4,,,52,100
165888,note_on,,,,,92,0,11,,,,,4,,,54,96
165888,note_on,,,,,92,0,14,,,,,6,,,54,100
165888,note_on,,,,,92,0,12,,,,,5,,,42,96
165888,note_on,,,,,0,0,15,,,,,7,,,69,100
165888,note_on,,,,,112,0,9,,,,,2,,,66,96
165888,note_on,,,,,92,0,8,,,,,1,,,69,96
165888,note_on,,,,,256,0,13,,,,,6,,,69,100
165888,note_on,,,,,156,0,15,,,,,7,,,66,100
165888,note_on,,,,,92,0,16,,,,,7,,,54,100
165916,note_on,,,,,28,0,13,,,,,6,,,72,100
165948,note_on,,,,,32,0,13,,,,,6,,,76,100
165952,note_off,,,,,64,0,9,,,,,2,,,66,100
165984,note_on,,,,,32,0,9,,,,,2,,,67,95
165988,note_off,,,,,100,0,14,,,,,6,,,54,100
165988,note_off,,,,,100,0,16,,,,,7,,,54,100
165988,note_off,,,,,100,0,11,,,,,4,,,54,100
165988,note_off,,,,,100,0,12,,,,,5,,,42,100
166020,note_off,,,,,516,0,10,,,,,3,,,64,100
166048,note_off,,,,,64,0,9,,,,,2,,,67,100
166080,note_on,,,,,92,0,12,,,,,5,,,42,95
166080,note_on,,,,,92,0,16,,,,,7,,,54,100
166080,note_on,,,,,92,0,11,,,,,4,,,54,95
166080,note_on,,,,,92,0,14,,,,,6,,,54,100
166080,note_on,,,,,32,0,9,,,,,2,,,69,95
166080,note_on,,,,,60,0,10,,,,,3,,,60,95
166144,note_off,,,,,64,0,9,,,,,2,,,69,100
166176,note_on,,,,,32,0,9,,,,,2,,,71,95
166180,note_off,,,,,100,0,14,,,,,6,,,54,100
166180,note_off,,,,,100,0,16,,,,,7,,,54,100
166180,note_off,,,,,100,0,11,,,,,4,,,54,100
166180,note_off,,,,,100,0,12,,,,,5,,,42,100
166208,note_off,,,,,128,0,10,,,,,3,,,60,100
166240,note_off,,,,,64,0,9,,,,,2,,,71,100
166272,note_on,,,,,64,0,10,,,,,3,,,57,94
166272,note_on,,,,,92,0,14,,,,,6,,,54,100
166272,note_on,,,,,92,0,16,,,,,7,,,54,100
166272,note_on,,,,,92,0,12,,,,,5,,,42,94
166272,note_on,,,,,32,0,9,,,,,2,,,72,94
166272,note_on,,,,,92,0,11,,,,,4,,,54,94
166348,note_off,,,,,460,0,8,,,,,1,,,69,100
166372,note_off,,,,,100,0,12,,,,,5,,,42,100
166372,note_off,,,,,100,0,16,,,,,7,,,54,100
166372,note_off,,,,,100,0,11,,,,,4,,,54,100
166372,note_off,,,,,100,0,9,,,,,2,,,72,100
166372,note_off,,,,,100,0,14,,,,,6,,,54,100
166396,note_off,,,,,0,0,13,,,,,6,,,76,100
166396,note_off,,,,,448,0,13,,,,,6,,,72,100
166400,note_off,,,,,4,0,13,,,,,6,,,69,100
166464,note_on,,,,,116,0,8,,,,,1,,,78,94
166464,note_on,,,,,92,0,12,,,,,5,,,33,94
166464,note_on,,,,,92,0,9,,,,,2,,,72,94
166464,note_on,,,,,92,0,14,,,,,6,,,45,100
166464,note_on,,,,,92,0,16,,,,,7,,,45,100
166464,note_on,,,,,92,0,11,,,,,4,,,45,94
166544,note_off,,,,,80,0,8,,,,,1,,,78,100
166564,note_off,,,,,100,0,12,,,,,5,,,33,100
166564,note_off,,,,,100,0,14,,,,,6,,,45,100
166564,note_off,,,,,100,0,9,,,,,2,,,72,100
166564,note_off,,,,,100,0,16,,,,,7,,,45,100
166564,note_off,,,,,100,0,11,,,,,4,,,45,100
166576,note_off,,,,,688,0,15,,,,,7,,,72,100
166576,note_off,,,,,0,0,15,,,,,7,,,76,100
166656,note_on,,,,,80,0,15,,,,,7,,,71,100
166656,note_on,,,,,92,0,14,,,,,6,,,47,100
166656,note_on,,,,,92,0,9,,,,,2,,,63,93
166656,note_on,,,,,0,0,15,,,,,7,,,75,100
166656,note_on,,,,,92,0,16,,,,,7,,,47,100
166656,note_on,,,,,256,0,13,,,,,6,,,69,100
166656,note_on,,,,,92,0,11,,,,,4,,,47,93
166656,note_on,,,,,92,0,12,,,,,5,,,35,93
166656,note_on,,,,,112,0,8,,,,,1,,,71,93
166684,note_on,,,,,28,0,13,,,,,6,,,71,100
166716,note_on,,,,,32,0,13,,,,,6,,,75,100
166720,note_off,,,,,64,0,8,,,,,1,,,71,100
166752,note_on,,,,,32,0,8,,,,,1,,,73,93
166756,note_off,,,,,100,0,11,,,,,4,,,47,100
166756,note_off,,,,,100,0,16,,,,,7,,,47,100
166756,note_off,,,,,100,0,14,,,,,6,,,47,100
166756,note_off,,,,,100,0,12,,,,,5,,,35,100
166788,note_off,,,,,516,0,10,,,,,3,,,57,100
166816,note_off,,,,,64,0,8,,,,,1,,,73,100
166848,note_on,,,,,32,0,8,,,,,1,,,75,92
166848,note_on,,,,,92,0,12,,,,,5,,,35,92
166848,note_on,,,,,92,0,16,,,,,7,,,47,100
166848,note_on,,,,,60,0,10,,,,,3,,,54,92
166848,note_on,,,,,92,0,14,,,,,6,,,47,100
166848,note_on,,,,,92,0,11,,,,,4,,,47,92
166912,note_off,,,,,64,0,8,,,,,1,,,75,100
166944,note_on,,,,,32,0,8,,,,,1,,,76,92
166948,note_off,,,,,100,0,16,,,,,7,,,47,100
166948,note_off,,,,,100,0,11,,,,,4,,,47,100
166948,note_off,,,,,100,0,12,,,,,5,,,35,100
166948,note_off,,,,,100,0,14,,,,,6,,,47,100
166976,note_off,,,,,128,0,10,,,,,3,,,54,100
167008,note_off,,,,,64,0,8,,,,,1,,,76,100
167040,note_on,,,,,92,0,11,,,,,4,,,47,92
167040,note_on,,,,,64,0,10,,,,,3,,,57,92
167040,note_on,,,,,92,0,14,,,,,6,,,47,100
167040,note_on,,,,,92,0,12,,,,,5,,,35,92
167040,note_on,,,,,32,0,8,,,,,1,,,78,92
167040,note_on,,,,,92,0,16,,,,,7,,,47,100
167116,note_off,,,,,460,0,9,,,,,2,,,63,100
167140,note_off,,,,,100,0,14,,,,,6,,,47,100
167140,note_off,,,,,100,0,11,,,,,4,,,47,100
167140,note_off,,,,,100,0,8,,,,,1,,,78,100
167140,note_off,,,,,100,0,12,,,,,5,,,35,100
167140,note_off,,,,,100,0,16,,,,,7,,,47,100
167164,note_off,,,,,0,0,13,,,,,6,,,75,100
167164,note_off,,,,,448,0,13,,,,,6,,,71,100
167168,note_off,,,,,128,0,10,,,,,3,,,57,100
167168,note_off,,,,,4,0,13,,,,,6,,,69,100
167232,note_on,,,,,92,0,12,,,,,5,,,39,91
167232,note_on,,,,,92,0,16,,,,,7,,,51,100
167232,note_on,,,,,92,0,8,,,,,1,,,69,91
167232,note_on,,,,,92,0,14,,,,,6,,,51,100
167232,note_on,,,,,116,0,9,,,,,2,,,71,91
167232,note_on,,,,,92,0,11,,,,,4,,,51,91
167232,note_on,,,,,64,0,10,,,,,3,,,66,91
167268,note_off,,,,,0,0,15,,,,,7,,,69,100
167268,note_off,,,,,612,0,15,,,,,7,,,66,100
167332,note_off,,,,,100,0,14,,,,,6,,,51,100
167332,note_off,,,,,100,0,12,,,,,5,,,39,100
167332,note_off,,,,,100,0,11,,,,,4,,,51,100
167332,note_off,,,,,100,0,16,,,,,7,,,51,100
167332,note_off,,,,,100,0,8,,,,,1,,,69,100
167344,note_off,,,,,76,0,15,,,,,7,,,71,100
167344,note_off,,,,,0,0,15,,,,,7,,,75,100
167360,note_off,,,,,128,0,9,,,,,2,,,71,100
167360,note_off,,,,,128,0,10,,,,,3,,,66,100
167424,note_on,,,,,0,0,13,,,,,6,,,71,100
167424,note_on,,,,,256,0,13,,,,,6,,,67,100
167424,note_on,,,,,92,0,14,,,,,6,,,52,100
167424,note_on,,,,,92,0,11,,,,,4,,,52,91
167424,note_on,,,,,0,0,13,,,,,6,,,76,100
167424,note_on,,,,,64,0,10,,,,,3,,,67,91
167424,note_on,,,,,0,0,15,,,,,7,,,76,100
167424,note_on,,,,,0,0,15,,,,,7,,,71,100
167424,note_on,,,,,92,0,12,,,,,5,,,40,91
167424,note_on,,,,,64,0,9,,,,,2,,,71,91
167424,note_on,,,,,92,0,16,,,,,7,,,52,100
167424,note_on,,,,,80,0,15,,,,,7,,,67,100
167424,note_on,,,,,92,0,8,,,,,1,,,67,91
167612,note_off,,,,,188,0,8,,,,,1,,,67,100
167616,note_on,,,,,4,0,8,,,,,1,,,71,85
167680,note_off,,,,,0,0,13,,,,,6,,,76,100
167680,note_off,,,,,0,0,13,,,,,6,,,71,100
167680,note_off,,,,,256,0,13,,,,,6,,,67,100
167680,note_off,,,,,0,0,15,,,,,7,,,76,100
167680,note_off,,,,,256,0,10,,,,,3,,,67,100
167680,note_off,,,,,256,0,11,,,,,4,,,52,100
167680,note_off,,,,,256,0,16,,,,,7,,,52,100
167680,note_off,,,,,256,0,14,,,,,6,,,52,100
167680,note_off,,,,,256,0,9,,,,,2,,,71,100
167680,note_off,,,,,256,0,12,,,,,5,,,40,100
167680,note_off,,,,,256,0,15,,,,,7,,,67,100
167680,note_off,,,,,0,0,15,,,,,7,,,71,100
167804,note_off,,,,,188,0,8,,,,,1,,,71,100
167808,note_on,,,,,4,0,8,,,,,1,,,76,86
167936,note_off,,,,,128,0,8,,,,,1,,,76,100
168000,note_on,,,,,320,0,16,,,,,7,,,52,100
168000,note_on,,,,,0,0,15,,,,,7,,,67,100
168000,note_on,,,,,320,0,15,,,,,7,,,76,100
168000,note_on,,,,,320,0,11,,,,,4,,,52,87
168000,note_on,,,,,0,0,13,,,,,6,,,76,100
168000,note_on,,,,,320,0,13,,,,,6,,,79,100
168000,note_on,,,,,320,0,14,,,,,6,,,52,100
168000,note_on,,,,,320,0,12,,,,,5,,,40,87
168000,note_on,,,,,64,0,8,,,,,1,,,79,87
168000,note_on,,,,,320,0,10,,,,,3,,,71,87
168000,note_on,,,,,320,0,9,,,,,2,,,79,87
168100,note_off,,,,,100,0,10,,,,,3,,,71,100
168100,note_off,,,,,100,0,9,,,,,2,,,79,100
168100,note_off,,,,,100,0,8,,,,,1,,,79,100
168128,note_off,,,,,128,0,13,,,,,6,,,79,100
168128,note_off,,,,,0,0,13,,,,,6,,,76,100
168128,note_off,,,,,128,0,11,,,,,4,,,52,100
168128,note_off,,,,,0,0,15,,,,,7,,,67,100
168128,note_off,,,,,128,0,16,,,,,7,,,52,100
168128,note_off,,,,,128,0,14,,,,,6,,,52,100
168128,note_off,,,,,128,0,12,,,,,5,,,40,100
168128,note_off,,,,,128,0,15,,,,,7,,,76,100
168192,note_on,,,,,64,0,11,,,,,4,,,57,89
168192,note_on,,,,,64,0,13,,,,,6,,,77,100
168192,note_on,,,,,0,0,13,,,,,6,,,81,100
168192,note_on,,,,,64,0,16,,,,,7,,,57,100
168192,note_on,,,,,92,0,8,,,,,1,,,79,89
168192,note_on,,,,,64,0,12,,,,,5,,,45,89
168192,note_on,,,,,92,0,9,,,,,2,,,83,89
168192,note_on,,,,,64,0,14,,,,,6,,,57,100
168192,note_on,,,,,92,0,10,,,,,3,,,72,89
168192,note_on,,,,,0,0,15,,,,,7,,,77,100
168192,note_on,,,,,64,0,15,,,,,7,,,69,100
168236,note_off,,,,,44,0,9,,,,,2,,,83,100
168236,note_off,,,,,44,0,8,,,,,1,,,79,100
168240,note_on,,,,,4,0,9,,,,,2,,,81,89
168240,note_on,,,,,4,0,8,,,,,1,,,77,89
168284,note_off,,,,,44,0,9,,,,,2,,,81,100
168284,note_off,,,,,44,0,8,,,,,1,,,77,100
168288,note_on,,,,,4,0,9,,,,,2,,,83,89
168288,note_on,,,,,4,0,8,,,,,1,,,79,89
168332,note_off,,,,,44,0,8,,,,,1,,,79,100
168332,note_off,,,,,44,0,9,,,,,2,,,83,100
168336,note_on,,,,,4,0,8,,,,,1,,,77,90
168336,note_on,,,,,4,0,9,,,,,2,,,81,90
168380,note_off,,,,,0,0,15,,,,,7,,,77,100
168380,note_off,,,,,188,0,14,,,,,6,,,57,100
168380,note_off,,,,,188,0,10,,,,,3,,,72,100
168380,note_off,,,,,188,0,12,,,,,5,,,45,100
168380,note_off,,,,,188,0,16,,,,,7,,,57,100
168380,note_off,,,,,188,0,11,,,,,4,,,57,100
168380,note_off,,,,,44,0,8,,,,,1,,,77,100
168380,note_off,,,,,44,0,9,,,,,2,,,81,100
168380,note_off,,,,,188,0,15,,,,,7,,,69,100
168380,note_off,,,,,188,0,13,,,,,6,,,77,100
168380,note_off,,,,,0,0,13,,,,,6,,,81,100
168384,note_on,,,,,4,0,9,,,,,2,,,79,90
168384,note_on,,,,,4,0,12,,,,,5,,,40,90
168384,note_on,,,,,0,0,15,,,,,7,,,76,100
168384,note_on,,,,,4,0,11,,,,,4,,,52,90
168384,note_on,,,,,4,0,10,,,,,3,,,71,90
168384,note_on,,,,,4,0,13,,,,,6,,,76,100
168384,note_on,,,,,4,0,16,,,,,7,,,52,100
168384,note_on,,,,,4,0,8,,,,,1,,,76,90
168384,note_on,,,,,4,0,15,,,,,7,,,67,100
168384,note_on,,,,,4,0,14,,,,,6,,,52,100
168384,note_on,,,,,0,0,13,,,,,6,,,79,100
168484,note_off,,,,,100,0,8,,,,,1,,,76,100
168512,note_off,,,,,0,0,13,,,,,6,,,79,100
168512,note_off,,,,,128,0,9,,,,,2,,,79,100
168512,note_off,,,,,128,0,12,,,,,5,,,40,100
168512,note_off,,,,,0,0,15,,,,,7,,,76,100
168512,note_off,,,,,128,0,15,,,,,7,,,67,100
168512,note_off,,,,,128,0,13,,,,,6,,,76,100
168512,note_off,,,,,128,0,10,,,,,3,,,71,100
168512,note_off,,,,,128,0,16,,,,,7,,,52,100
168512,note_off,,,,,128,0,11,,,,,4,,,52,100
168512,note_off,,,,,128,0,14,,,,,6,,,52,100
168576,note_on,,,,,92,0,8,,,,,1,,,83,91
168676,note_off,,,,,100,0,8,,,,,1,,,83,100
168768,note_on,,,,,256,0,14,,,,,6,,,52,100
168768,note_on,,,,,256,0,13,,,,,6,,,67,100
168768,note_on,,,,,256,0,10,,,,,3,,,71,93
168768,note_on,,,,,256,0,9,,,,,2,,,79,93
168768,note_on,,,,,92,0,8,,,,,1,,,76,93
168768,note_on,,,,,256,0,12,,,,,5,,,40,93
168768,note_on,,,,,256,0,15,,,,,7,,,67,100
168768,note_on,,,,,0,0,15,,,,,7,,,76,100
168768,note_on,,,,,0,0,13,,,,,6,,,76,100
168768,note_on,,,,,256,0,11,,,,,4,,,52,93
168768,note_on,,,,,256,0,16,,,,,7,,,52,100
168868,note_off,,,,,100,0,11,,,,,4,,,52,100
168868,note_off,,,,,100,0,9,,,,,2,,,79,100
168868,note_off,,,,,100,0,14,,,,,6,,,52,100
168868,note_off,,,,,100,0,8,,,,,1,,,76,100
168868,note_off,,,,,100,0,12,,,,,5,,,40,100
168868,note_off,,,,,100,0,10,,,,,3,,,71,100
168868,note_off,,,,,100,0,16,,,,,7,,,52,100
168896,note_off,,,,,0,0,15,,,,,7,,,76,100
168896,note_off,,,,,128,0,13,,,,,6,,,67,100
168896,note_off,,,,,0,0,13,,,,,6,,,76,100
168896,note_off,,,,,128,0,15,,,,,7,,,67,100
168960,note_on,,,,,92,0,12,,,,,5,,,45,94
168960,note_on,,,,,92,0,8,,,,,1,,,79,94
168960,note_on,,,,,92,0,11,,,,,4,,,57,94
168960,note_on,,,,,64,0,13,,,,,6,,,69,100
168960,note_on,,,,,0,0,13,,,,,6,,,77,100
168960,note_on,,,,,92,0,9,,,,,2,,,83,94
168960,note_on,,,,,92,0,14,,,,,6,,,57,100
168960,note_on,,,,,92,0,16,,,,,7,,,57,100
168960,note_on,,,,,92,0,10,,,,,3,,,72,94
168960,note_on,,,,,0,0,15,,,,,7,,,77,100
168960,note_on,,,,,64,0,15,,,,,7,,,69,100
169004,note_off,,,,,44,0,8,,,,,1,,,79,100
169004,note_off,,,,,44,0,9,,,,,2,,,83,100
169008,note_on,,,,,4,0,9,,,,,2,,,81,94
169008,note_on,,,,,4,0,8,,,,,1,,,77,94
169052,note_off,,,,,44,0,9,,,,,2,,,81,100
169052,note_off,,,,,44,0,8,,,,,1,,,77,100
169056,note_on,,,,,4,0,9,,,,,2,,,83,95
169056,note_on,,,,,4,0,8,,,,,1,,,79,95
169100,note_off,,,,,44,0,8,,,,,1,,,79,100
169100,note_off,,,,,44,0,9,,,,,2,,,83,100
169104,note_on,,,,,4,0,8,,,,,1,,,77,95
169104,note_on,,,,,4,0,9,,,,,2,,,81,95
169148,note_off,,,,,44,0,9,,,,,2,,,81,100
169148,note_off,,,,,188,0,12,,,,,5,,,45,100
169148,note_off,,,,,188,0,16,,,,,7,,,57,100
169148,note_off,,,,,44,0,8,,,,,1,,,77,100
169148,note_off,,,,,188,0,14,,,,,6,,,57,100
169148,note_off,,,,,188,0,15,,,,,7,,,69,100
169148,note_off,,,,,188,0,10,,,,,3,,,72,100
169148,note_off,,,,,0,0,15,,,,,7,,,77,100
169148,note_off,,,,,188,0,13,,,,,6,,,69,100
169148,note_off,,,,,0,0,13,,,,,6,,,77,100
169148,note_off,,,,,188,0,11,,,,,4,,,57,100
169152,note_on,,,,,4,0,16,,,,,7,,,52,100
169152,note_on,,,,,4,0,15,,,,,7,,,67,100
169152,note_on,,,,,0,0,15,,,,,7,,,76,100
169152,note_on,,,,,4,0,11,,,,,4,,,52,95
169152,note_on,,,,,4,0,13,,,,,6,,,67,100
169152,note_on,,,,,0,0,13,,,,,6,,,76,100
169152,note_on,,,,,4,0,8,,,,,1,,,76,95
169152,note_on,,,,,4,0,14,,,,,6,,,52,100
169152,note_on,,,,,4,0,10,,,,,3,,,71,95
169152,note_on,,,,,4,0,12,,,,,5,,,40,95
169152,note_on,,,,,4,0,9,,,,,2,,,79,95
169252,note_off,,,,,100,0,8,,,,,1,,,76,100
169280,note_off,,,,,128,0,10,,,,,3,,,71,100
169280,note_off,,,,,128,0,16,,,,,7,,,52,100
169280,note_off,,,,,128,0,11,,,,,4,,,52,100
169280,note_off,,,,,128,0,9,,,,,2,,,79,100
169280,note_off,,,,,0,0,13,,,,,6,,,76,100
169280,note_off,,,,,128,0,12,,,,,5,,,40,100
169280,note_off,,,,,128,0,15,,,,,7,,,67,100
169280,note_off,,,,,0,0,15,,,,,7,,,76,100
169280,note_off,,,,,128,0,14,,,,,6,,,52,100
169280,note_off,,,,,128,0,13,,,,,6,,,67,100
169344,note_on,,,,,92,0,8,,,,,1,,,83,97
169444,note_off,,,,,100,0,8,,,,,1,,,83,100
169536,note_on,,,,,256,0,12,,,,,5,,,40,98
169536,note_on,,,,,256,0,16,,,,,7,,,52,100
169536,note_on,,,,,256,0,15,,,,,7,,,76,100
169536,note_on,,,,,0,0,15,,,,,7,,,67,100
169536,note_on,,,,,256,0,10,,,,,3,,,71,98
169536,note_on,,,,,256,0,9,,,,,2,,,79,98
169536,note_on,,,,,92,0,8,,,,,1,,,76,98
169536,note_on,,,,,256,0,14,,,,,6,,,52,100
169536,note_on,,,,,256,0,11,,,,,4,,,52,98
169536,note_on,,,,,0,0,13,,,,,6,,,76,100
169536,note_on,,,,,256,0,13,,,,,6,,,79,100
169636,note_off,,,,,100,0,11,,,,,4,,,52,100
169636,note_off,,,,,100,0,14,,,,,6,,,52,100
169636,note_off,,,,,100,0,10,,,,,3,,,71,100
169636,note_off,,,,,100,0,16,,,,,7,,,52,100
169636,note_off,,,,,100,0,8,,,,,1,,,76,100
169636,note_off,,,,,100,0,12,,,,,5,,,40,100
169636,note_off,,,,,100,0,9,,,,,2,,,79,100
169664,note_off,,,,,128,0,13,,,,,6,,,79,100
169664,note_off,,,,,0,0,13,,,,,6,,,76,100
169724,note_off,,,,,0,0,15,,,,,7,,,67,100
169724,note_off,,,,,188,0,15,,,,,7,,,76,100
169728,note_on,,,,,92,0,16,,,,,7,,,57,100
169728,note_on,,,,,92,0,11,,,,,4,,,57,100
169728,note_on,,,,,64,0,13,,,,,6,,,81,100
169728,note_on,,,,,92,0,14,,,,,6,,,57,100
169728,note_on,,,,,92,0,8,,,,,1,,,77,100
169728,note_on,,,,,0,0,13,,,,,6,,,77,100
169728,note_on,,,,,92,0,9,,,,,2,,,81,100
169728,note_on,,,,,92,0,12,,,,,5,,,45,100
169728,note_on,,,,,0,0,15,,,,,7,,,77,100
169728,note_on,,,,,4,0,15,,,,,7,,,72,100
169728,note_on,,,,,92,0,10,,,,,3,,,72,100
169828,note_off,,,,,100,0,14,,,,,6,,,57,100
169828,note_off,,,,,100,0,10,,,,,3,,,72,100
169828,note_off,,,,,100,0,12,,,,,5,,,45,100
169828,note_off,,,,,0,0,13,,,,,6,,,77,100
169828,note_off,,,,,100,0,16,,,,,7,,,57,100
169828,note_off,,,,,100,0,11,,,,,4,,,57,100
169828,note_off,,,,,100,0,9,,,,,2,,,81,100
169828,note_off,,,,,100,0,8,,,,,1,,,77,100
169828,note_off,,,,,100,0,13,,,,,6,,,81,100
169856,note_off,,,,,128,0,15,,,,,7,,,72,100
169856,note_off,,,,,0,0,15,,,,,7,,,77,100
169920,note_on,,,,,92,0,13,,,,,6,,,83,100
169920,note_on,,,,,92,0,8,,,,,1,,,80,101
169920,note_on,,,,,0,0,13,,,,,6,,,80,100
169920,note_on,,,,,92,0,16,,,,,7,,,52,100
169920,note_on,,,,,64,0,15,,,,,7,,,71,100
169920,note_on,,,,,92,0,10,,,,,3,,,71,101
169920,note_on,,,,,92,0,12,,,,,5,,,40,101
169920,note_on,,,,,92,0,11,,,,,4,,,52,101
169920,note_on,,,,,92,0,9,,,,,2,,,83,101
169920,note_on,,,,,0,0,15,,,,,7,,,80,100
169920,note_on,,,,,92,0,14,,,,,6,,,52,100
170020,note_off,,,,,100,0,14,,,,,6,,,52,100
170020,note_off,,,,,100,0,8,,,,,1,,,80,100
170020,note_off,,,,,100,0,16,,,,,7,,,52,100
170020,note_off,,,,,100,0,9,,,,,2,,,83,100
170020,note_off,,,,,0,0,13,,,,,6,,,80,100
170020,note_off,,,,,100,0,11,,,,,4,,,52,100
170020,note_off,,,,,100,0,12,,,,,5,,,40,100
170020,note_off,,,,,100,0,13,,,,,6,,,83,100
170020,note_off,,,,,100,0,10,,,,,3,,,71,100
170048,note_off,,,,,128,0,15,,,,,7,,,71,100
170048,note_off,,,,,0,0,15,,,,,7,,,80,100
170112,note_on,,,,,92,0,12,,,,,5,,,33,102
170112,note_on,,,,,92,0,9,,,,,2,,,84,102
170112,note_on,,,,,92,0,8,,,,,1,,,81,102
170112,note_on,,,,,92,0,16,,,,,7,,,45,100
170112,note_on,,,,,92,0,10,,,,,3,,,69,102
170112,note_on,,,,,0,0,13,,,,,6,,,81,100
170112,note_on,,,,,92,0,13,,,,,6,,,84,100
170112,note_on,,,,,92,0,14,,,,,6,,,45,100
170112,note_on,,,,,92,0,11,,,,,4,,,45,102
170112,note_on,,,,,64,0,15,,,,,7,,,72,100
170112,note_on,,,,,0,0,15,,,,,7,,,81,100
170212,note_off,,,,,100,0,14,,,,,6,,,45,100
170212,note_off,,,,,100,0,8,,,,,1,,,81,100
170212,note_off,,,,,100,0,11,,,,,4,,,45,100
170212,note_off,,,,,100,0,12,,,,,5,,,33,100
170212,note_off,,,,,0,0,13,,,,,6,,,81,100
170212,note_off,,,,,100,0,16,,,,,7,,,45,100
170212,note_off,,,,,100,0,9,,,,,2,,,84,100
170212,note_off,,,,,100,0,10,,,,,3,,,69,100
170212,note_off,,,,,100,0,13,,,,,6,,,84,100
170240,note_off,,,,,0,0,15,,,,,7,,,81,100
170240,note_off,,,,,128,0,15,,,,,7,,,72,100
170304,note_on,,,,,92,0,14,,,,,6,,,57,100
170304,note_on,,,,,92,0,9,,,,,2,,,84,103
170304,note_on,,,,,0,0,13,,,,,6,,,72,100
170304,note_on,,,,,92,0,10,,,,,3,,,64,103
170304,note_on,,,,,64,0,15,,,,,7,,,72,100
170304,note_on,,,,,92,0,12,,,,,5,,,45,103
170304,note_on,,,,,92,0,8,,,,,1,,,81,103
170304,note_on,,,,,0,0,15,,,,,7,,,81,100
170304,note_on,,,,,92,0,13,,,,,6,,,69,100
170304,note_on,,,,,92,0,16,,,,,7,,,57,100
170304,note_on,,,,,92,0,11,,,,,4,,,57,103
170404,note_off,,,,,100,0,12,,,,,5,,,45,100
170404,note_off,,,,,100,0,11,,,,,4,,,57,100
170404,note_off,,,,,100,0,16,,,,,7,,,57,100
170404,note_off,,,,,100,0,8,,,,,1,,,81,100
170404,note_off,,,,,100,0,14,,,,,6,,,57,100
170404,note_off,,,,,100,0,10,,,,,3,,,64,100
170404,note_off,,,,,100,0,9,,,,,2,,,84,100
170432,note_off,,,,,0,0,15,,,,,7,,,81,100
170432,note_off,,,,,128,0,15,,,,,7,,,72,100
170496,note_on,,,,,92,0,11,,,,,4,,,51,104
170496,note_on,,,,,92,0,10,,,,,3,,,66,104
170496,note_on,,,,,92,0,9,,,,,2,,,84,104
170496,note_on,,,,,92,0,16,,,,,7,,,51,100
170496,note_on,,,,,0,0,15,,,,,7,,,72,100
170496,note_on,,,,,0,0,15,,,,,7,,,81,100
170496,note_on,,,,,92,0,14,,,,,6,,,51,100
170496,note_on,,,,,92,0,12,,,,,5,,,39,104
170496,note_on,,,,,92,0,8,,,,,1,,,81,104
170496,note_on,,,,,64,0,15,,,,,7,,,78,100
170560,note_off,,,,,256,0,13,,,,,6,,,69,100
170560,note_off,,,,,0,0,13,,,,,6,,,72,100
170596,note_off,,,,,100,0,16,,,,,7,,,51,100
170596,note_off,,,,,100,0,10,,,,,3,,,66,100
170596,note_off,,,,,100,0,14,,,,,6,,,51,100
170596,note_off,,,,,100,0,11,,,,,4,,,51,100
170596,note_off,,,,,100,0,12,,,,,5,,,39,100
170688,note_on,,,,,92,0,10,,,,,3,,,67,100
170688,note_on,,,,,92,0,16,,,,,7,,,52,100
170688,note_on,,,,,92,0,11,,,,,4,,,52,100
170688,note_on,,,,,128,0,13,,,,,6,,,67,100
170688,note_on,,,,,0,0,13,,,,,6,,,71,100
170688,note_on,,,,,92,0,12,,,,,5,,,40,100
170688,note_on,,,,,92,0,14,,,,,6,,,52,100
170788,note_off,,,,,100,0,16,,,,,7,,,52,100
170788,note_off,,,,,0,0,13,,,,,6,,,71,100
170788,note_off,,,,,100,0,13,,,,,6,,,67,100
170788,note_off,,,,,100,0,12,,,,,5,,,40,100
170788,note_off,,,,,100,0,10,,,,,3,,,67,100
170788,note_off,,,,,100,0,11,,,,,4,,,52,100
170788,note_off,,,,,100,0,14,,,,,6,,,52,100
170880,note_on,,,,,92,0,16,,,,,7,,,54,100
170880,note_off,,,,,384,0,15,,,,,7,,,78,100
170880,note_on,,,,,92,0,12,,,,,5,,,42,100
170880,note_off,,,,,384,0,8,,,,,1,,,81,100
170880,note_off,,,,,0,0,15,,,,,7,,,72,100
170880,note_off,,,,,0,0,15,,,,,7,,,81,100
170880,note_on,,,,,92,0,14,,,,,6,,,54,100
170880,note_off,,,,,384,0,9,,,,,2,,,84,100
170880,note_on,,,,,92,0,13,,,,,6,,,69,100
170880,note_on,,,,,92,0,10,,,,,3,,,69,100
170880,note_on,,,,,92,0,11,,,,,4,,,54,100
170980,note_off,,,,,100,0,14,,,,,6,,,54,100
170980,note_off,,,,,100,0,11,,,,,4,,,54,100
170980,note_off,,,,,100,0,10,,,,,3,,,69,100
170980,note_off,,,,,100,0,16,,,,,7,,,54,100
170980,note_off,,,,,100,0,12,,,,,5,,,42,100
171072,note_on,,,,,192,0,8,,,,,1,,,81,100
171072,note_on,,,,,192,0,13,,,,,6,,,78,100
171072,note_on,,,,,92,0,14,,,,,6,,,51,100
171072,note_on,,,,,192,0,15,,,,,7,,,72,100
171072,note_on,,,,,0,0,15,,,,,7,,,78,100
171072,note_on,,,,,0,0,15,,,,,7,,,81,100
171072,note_on,,,,,92,0,12,,,,,5,,,39,100
171072,note_on,,,,,92,0,16,,,,,7,,,51,100
171072,note_on,,,,,92,0,11,,,,,4,,,51,100
171072,note_on,,,,,192,0,9,,,,,2,,,84,100
171072,note_on,,,,,92,0,10,,,,,3,,,66,100
171136,note_off,,,,,64,0,13,,,,,6,,,69,100
171172,note_off,,,,,100,0,16,,,,,7,,,51,100
171172,note_off,,,,,36,0,13,,,,,6,,,78,100
171172,note_off,,,,,100,0,9,,,,,2,,,84,100
171172,note_off,,,,,100,0,11,,,,,4,,,51,100
171172,note_off,,,,,100,0,8,,,,,1,,,81,100
171172,note_off,,,,,100,0,10,,,,,3,,,66,100
171172,note_off,,,,,100,0,12,,,,,5,,,39,100
171172,note_off,,,,,100,0,14,,,,,6,,,51,100
171200,note_off,,,,,0,0,15,,,,,7,,,81,100
171200,note_off,,,,,0,0,15,,,,,7,,,78,100
171200,note_off,,,,,128,0,15,,,,,7,,,72,100
171264,note_on,,,,,0,0,15,,,,,7,,,76,100
171264,note_on,,,,,92,0,12,,,,,5,,,40,100
171264,note_on,,,,,92,0,16,,,,,7,,,52,100
171264,note_on,,,,,92,0,9,,,,,2,,,83,100
171264,note_on,,,,,0,0,15,,,,,7,,,79,100
171264,note_on,,,,,92,0,8,,,,,1,,,79,100
171264,note_on,,,,,92,0,14,,,,,6,,,52,100
171264,note_on,,,,,0,0,13,,,,,6,,,76,100
171264,note_on,,,,,92,0,13,,,,,6,,,67,100
171264,note_on,,,,,92,0,10,,,,,3,,,67,100
171264,note_on,,,,,64,0,15,,,,,7,,,71,100
171264,note_on,,,,,92,0,11,,,,,4,,,52,100
171364,note_off,,,,,100,0,14,,,,,6,,,52,100
171364,note_off,,,,,100,0,11,,,,,4,,,52,100
171364,note_off,,,,,0,0,13,,,,,6,,,76,100
171364,note_off,,,,,100,0,12,,,,,5,,,40,100
171364,note_off,,,,,100,0,10,,,,,3,,,67,100
171364,note_off,,,,,100,0,13,,,,,6,,,67,100
171364,note_off,,,,,100,0,16,,,,,7,,,52,100
171392,note_off,,,,,128,0,9,,,,,2,,,83,100
171392,note_off,,,,,128,0,15,,,,,7,,,71,100
171392,note_off,,,,,128,0,8,,,,,1,,,79,100
171392,note_off,,,,,0,0,15,,,,,7,,,76,100
171392,note_off,,,,,0,0,15,,,,,7,,,79,100
171456,note_on,,,,,92,0,16,,,,,7,,,57,100
171456,note_on,,,,,64,0,9,,,,,2,,,81,99
171456,note_on,,,,,92,0,12,,,,,5,,,45,99
171456,note_on,,,,,92,0,10,,,,,3,,,72,99
171456,note_on,,,,,92,0,11,,,,,4,,,57,99
171456,note_on,,,,,0,0,15,,,,,7,,,78,100
171456,note_on,,,,,92,0,14,,,,,6,,,57,100
171456,note_on,,,,,64,0,8,,,,,1,,,78,99
171456,note_on,,,,,92,0,13,,,,,6,,,64,100
171456,note_on,,,,,0,0,13,,,,,6,,,72,100
171456,note_on,,,,,64,0,15,,,,,7,,,72,100
171520,note_off,,,,,64,0,8,,,,,1,,,78,100
171520,note_off,,,,,64,0,9,,,,,2,,,81,100
171552,note_on,,,,,32,0,9,,,,,2,,,79,98
171552,note_on,,,,,32,0,8,,,,,1,,,76,98
171556,note_off,,,,,100,0,14,,,,,6,,,57,100
171556,note_off,,,,,100,0,16,,,,,7,,,57,100
171556,note_off,,,,,0,0,13,,,,,6,,,72,100
171556,note_off,,,,,100,0,13,,,,,6,,,64,100
171556,note_off,,,,,100,0,11,,,,,4,,,57,100
171556,note_off,,,,,100,0,10,,,,,3,,,72,100
171556,note_off,,,,,100,0,12,,,,,5,,,45,100
171584,note_off,,,,,0,0,15,,,,,7,,,78,100
171584,note_off,,,,,128,0,15,,,,,7,,,72,100
171616,note_off,,,,,64,0,8,,,,,1,,,76,100
171616,note_off,,,,,64,0,9,,,,,2,,,79,100
171648,note_on,,,,,32,0,8,,,,,1,,,75,98
171648,note_on,,,,,92,0,13,,,,,6,,,63,100
171648,note_on,,,,,92,0,14,,,,,6,,,59,100
171648,note_on,,,,,92,0,12,,,,,5,,,47,98
171648,note_on,,,,,92,0,11,,,,,4,,,59,98
171648,note_on,,,,,32,0,9,,,,,2,,,78,98
171648,note_on,,,,,0,0,13,,,,,6,,,71,100
171648,note_on,,,,,92,0,16,,,,,7,,,59,100
171648,note_on,,,,,92,0,10,,,,,3,,,66,98
171648,note_on,,,,,64,0,15,,,,,7,,,75,100
171648,note_on,,,,,0,0,15,,,,,7,,,78,100
171692,note_off,,,,,44,0,8,,,,,1,,,75,100
171692,note_off,,,,,44,0,9,,,,,2,,,78,100
171696,note_on,,,,,4,0,9,,,,,2,,,79,97
171696,note_on,,,,,4,0,8,,,,,1,,,76,97
171740,note_off,,,,,44,0,9,,,,,2,,,79,100
171740,note_off,,,,,44,0,8,,,,,1,,,76,100
171744,note_on,,,,,4,0,9,,,,,2,,,78,97
171744,note_on,,,,,4,0,8,,,,,1,,,75,97
171748,note_off,,,,,100,0,10,,,,,3,,,66,100
171748,note_off,,,,,100,0,16,,,,,7,,,59,100
171748,note_off,,,,,100,0,13,,,,,6,,,63,100
171748,note_off,,,,,0,0,13,,,,,6,,,71,100
171748,note_off,,,,,100,0,11,,,,,4,,,59,100
171748,note_off,,,,,100,0,12,,,,,5,,,47,100
171748,note_off,,,,,100,0,14,,,,,6,,,59,100
171788,note_off,,,,,44,0,9,,,,,2,,,78,100
171788,note_off,,,,,44,0,8,,,,,1,,,75,100
171792,note_on,,,,,4,0,9,,,,,2,,,79,97
171792,note_on,,,,,4,0,8,,,,,1,,,76,97
171836,note_off,,,,,44,0,9,,,,,2,,,79,100
171836,note_off,,,,,44,0,8,,,,,1,,,76,100
171840,note_on,,,,,92,0,14,,,,,6,,,47,100
171840,note_on,,,,,192,0,15,,,,,7,,,71,100
171840,note_on,,,,,4,0,9,,,,,2,,,78,97
171840,note_on,,,,,92,0,10,,,,,3,,,71,97
171840,note_on,,,,,92,0,13,,,,,6,,,63,100
171840,note_on,,,,,92,0,11,,,,,4,,,47,97
171840,note_on,,,,,92,0,12,,,,,5,,,35,97
171840,note_on,,,,,4,0,8,,,,,1,,,75,97
171840,note_on,,,,,0,0,13,,,,,6,,,66,100
171840,note_on,,,,,92,0,16,,,,,7,,,47,100
171904,note_off,,,,,0,0,15,,,,,7,,,78,100
171904,note_off,,,,,64,0,15,,,,,7,,,75,100
171904,note_off,,,,,64,0,9,,,,,2,,,78,100
171904,note_off,,,,,64,0,8,,,,,1,,,75,100
171936,note_on,,,,,32,0,9,,,,,2,,,76,96
171936,note_on,,,,,32,0,8,,,,,1,,,76,96
171940,note_off,,,,,0,0,13,,,,,6,,,66,100
171940,note_off,,,,,100,0,11,,,,,4,,,47,100
171940,note_off,,,,,100,0,12,,,,,5,,,35,100
171940,note_off,,,,,100,0,14,,,,,6,,,47,100
171940,note_off,,,,,100,0,13,,,,,6,,,63,100
171940,note_off,,,,,100,0,16,,,,,7,,,47,100
171940,note_off,,,,,100,0,10,,,,,3,,,71,100
171968,note_off,,,,,64,0,15,,,,,7,,,71,100
172000,note_off,,,,,64,0,9,,,,,2,,,76,100
172000,note_off,,,,,64,0,8,,,,,1,,,76,100
172032,note_on,,,,,64,0,15,,,,,7,,,64,100
172032,note_on,,,,,92,0,10,,,,,3,,,67,96
172032,note_on,,,,,32,0,9,,,,,2,,,76,96
172032,note_on,,,,,92,0,11,,,,,4,,,40,96
172032,note_on,,,,,92,0,13,,,,,6,,,64,100
172032,note_on,,,,,0,0,13,,,,,6,,,67,100
172032,note_on,,,,,92,0,16,,,,,7,,,40,100
172032,note_on,,,,,32,0,8,,,,,1,,,76,96
172032,note_on,,,,,92,0,12,,,,,5,,,40,96
172032,note_on,,,,,92,0,14,,,,,6,,,40,100
172032,note_on,,,,,0,0,15,,,,,7,,,67,100
172032,note_on,,,,,0,0,15,,,,,7,,,71,100
172132,note_off,,,,,100,0,9,,,,,2,,,76,100
172132,note_off,,,,,100,0,8,,,,,1,,,76,100
172132,note_off,,,,,100,0,10,,,,,3,,,67,100
172160,note_off,,,,,128,0,11,,,,,4,,,40,100
172160,note_off,,,,,128,0,12,,,,,5,,,40,100
172160,note_off,,,,,128,0,13,,,,,6,,,64,100
172160,note_off,,,,,0,0,13,,,,,6,,,67,100
172160,note_off,,,,,128,0,14,,,,,6,,,40,100
172160,note_off,,,,,128,0,16,,,,,7,,,40,100
172160,note_off,,,,,0,0,15,,,,,7,,,71,100
172160,note_off,,,,,0,0,15,,,,,7,,,67,100
172160,note_off,,,,,128,0,15,,,,,7,,,64,100
172224,note_on,,,,,64,0,12,,,,,5,,,40,90
172224,note_on,,,,,64,0,16,,,,,7,,,52,100
172224,note_on,,,,,0,0,15,,,,,7,,,67,100
172224,note_on,,,,,64,0,15,,,,,7,,,59,100
172224,note_on,,,,,92,0,8,,,,,1,,,71,90
172224,note_on,,,,,92,0,9,,,,,2,,,67,90
172224,note_on,,,,,0,0,13,,,,,6,,,67,100
172224,note_on,,,,,64,0,13,,,,,6,,,59,100
172224,note_on,,,,,64,0,11,,,,,4,,,52,90
172224,note_on,,,,,92,0,10,,,,,3,,,59,90
172224,note_on,,,,,64,0,14,,,,,6,,,52,100
172288,note_off,,,,,64,0,13,,,,,6,,,67,100
172288,note_off,,,,,64,0,9,,,,,2,,,67,100
172288,note_off,,,,,64,0,8,,,,,1,,,71,100
172320,note_on,,,,,32,0,8,,,,,1,,,69,90
172320,note_on,,,,,32,0,9,,,,,2,,,66,90
172320,note_on,,,,,32,0,13,,,,,6,,,66,100
172324,note_off,,,,,100,0,12,,,,,5,,,40,100
172324,note_off,,,,,100,0,16,,,,,7,,,52,100
172324,note_off,,,,,100,0,10,,,,,3,,,59,100
172324,note_off,,,,,100,0,14,,,,,6,,,52,100
172324,note_off,,,,,100,0,11,,,,,4,,,52,100
172352,note_off,,,,,128,0,15,,,,,7,,,59,100
172352,note_off,,,,,32,0,13,,,,,6,,,59,100
172352,note_off,,,,,0,0,15,,,,,7,,,67,100
172384,note_off,,,,,32,0,13,,,,,6,,,66,100
172384,note_off,,,,,64,0,8,,,,,1,,,69,100
172384,note_off,,,,,64,0,9,,,,,2,,,66,100
172416,note_on,,,,,32,0,8,,,,,1,,,67,90
172416,note_on,,,,,92,0,11,,,,,4,,,40,90
172416,note_on,,,,,92,0,14,,,,,6,,,40,100
172416,note_on,,,,,92,0,12,,,,,5,,,40,90
172416,note_on,,,,,32,0,13,,,,,6,,,55,100
172416,note_on,,,,,92,0,16,,,,,7,,,40,100
172416,note_on,,,,,0,0,13,,,,,6,,,64,100
172416,note_on,,,,,64,0,15,,,,,7,,,55,100
172416,note_on,,,,,0,0,15,,,,,7,,,59,100
172416,note_on,,,,,32,0,9,,,,,2,,,64,90
172416,note_on,,,,,92,0,10,,,,,3,,,59,90
172516,note_off,,,,,100,0,8,,,,,1,,,67,100
172516,note_off,,,,,100,0,9,,,,,2,,,64,100
172608,note_on,,,,,92,0,8,,,,,1,,,67,90
172608,note_on,,,,,92,0,9,,,,,2,,,64,90
172672,note_off,,,,,256,0,16,,,,,7,,,40,100
172672,note_off,,,,,256,0,12,,,,,5,,,40,100
172672,note_off,,,,,256,0,11,,,,,4,,,40,100
172672,note_off,,,,,256,0,13,,,,,6,,,55,100
172672,note_off,,,,,256,0,15,,,,,7,,,55,100
172672,note_off,,,,,0,0,13,,,,,6,,,64,100
172672,note_off,,,,,256,0,10,,,,,3,,,59,100
172672,note_off,,,,,0,0,15,,,,,7,,,59,100
172672,note_off,,,,,256,0,14,,,,,6,,,40,100
172708,note_off,,,,,100,0,8,,,,,1,,,67,100
172708,note_off,,,,,100,0,9,,,,,2,,,64,100
172800,note_on,,,,,92,0,8,,,,,1,,,67,90
172800,note_on,,,,,92,0,9,,,,,2,,,64,90
172800,set_tempo,,,,,10752,1,0,,576923,,,,,,,
172900,note_off,,,,,100,0,8,,,,,1,,,67,100
172900,note_off,,,,,100,0,9,,,,,2,,,64,100
172988,set_tempo,,,,,188,1,0,,582524,,,,,,,
172992,note_on,,,,,320,0,15,,,,,7,,,59,100
172992,note_on,,,,,92,0,9,,,,,2,,,67,90
172992,note_on,,,,,0,0,15,,,,,7,,,67,100
172992,note_on,,,,,320,0,10,,,,,3,,,59,90
172992,note_on,,,,,320,0,11,,,,,4,,,52,90
172992,note_on,,,,,320,0,16,,,,,7,,,52,100
172992,note_on,,,,,320,0,14,,,,,6,,,52,100
172992,note_on,,,,,320,0,13,,,,,6,,,59,100
172992,note_on,,,,,0,0,13,,,,,6,,,67,100
172992,note_on,,,,,320,0,12,,,,,5,,,40,90
172992,note_on,,,,,92,0,8,,,,,1,,,71,90
173056,note_off,,,,,64,0,8,,,,,1,,,71,100
173056,note_off,,,,,64,0,9,,,,,2,,,67,100
173056,note_off,,,,,64,0,13,,,,,6,,,67,100
173088,note_on,,,,,32,0,8,,,,,1,,,69,90
173088,note_on,,,,,32,0,9,,,,,2,,,66,90
173088,note_on,,,,,32,0,13,,,,,6,,,66,100
173092,note_off,,,,,100,0,10,,,,,3,,,59,100
173092,note_off,,,,,100,0,11,,,,,4,,,52,100
173092,note_off,,,,,100,0,14,,,,,6,,,52,100
173092,note_off,,,,,100,0,12,,,,,5,,,40,100
173092,note_off,,,,,100,0,16,,,,,7,,,52,100
173120,note_off,,,,,32,0,13,,,,,6,,,59,100
173120,note_off,,,,,128,0,15,,,,,7,,,59,100
173120,note_off,,,,,0,0,15,,,,,7,,,67,100
173152,note_off,,,,,64,0,9,,,,,2,,,66,100
173152,note_off,,,,,32,0,13,,,,,6,,,66,100
173152,note_off,,,,,64,0,8,,,,,1,,,69,100
173180,set_tempo,,,,,192,1,0,,588235,,,,,,,
173184,note_on,,,,,32,0,8,,,,,1,,,67,90
173184,note_on,,,,,32,0,9,,,,,2,,,64,90
173184,note_on,,,,,92,0,14,,,,,6,,,40,100
173184,note_on,,,,,32,0,13,,,,,6,,,64,100
173184,note_on,,,,,92,0,10,,,,,3,,,59,90
173184,note_on,,,,,64,0,15,,,,,7,,,55,100
173184,note_on,,,,,0,0,13,,,,,6,,,55,100
173184,note_on,,,,,92,0,11,,,,,4,,,40,90
173184,note_on,,,,,0,0,15,,,,,7,,,59,100
173184,note_on,,,,,92,0,16,,,,,7,,,40,100
173184,note_on,,,,,92,0,12,,,,,5,,,40,90
173284,note_off,,,,,100,0,8,,,,,1,,,67,100
173284,note_off,,,,,100,0,9,,,,,2,,,64,100
173372,set_tempo,,,,,192,1,0,,594059,,,,,,,
173376,note_on,,,,,92,0,9,,,,,2,,,64,90
173376,note_on,,,,,92,0,8,,,,,1,,,67,90
173440,note_off,,,,,256,0,13,,,,,6,,,64,100
173440,note_off,,,,,0,0,13,,,,,6,,,55,100
173440,note_off,,,,,256,0,16,,,,,7,,,40,100
173440,note_off,,,,,256,0,14,,,,,6,,,40,100
173440,note_off,,,,,256,0,10,,,,,3,,,59,100
173440,note_off,,,,,256,0,12,,,,,5,,,40,100
173440,note_off,,,,,256,0,11,,,,,4,,,40,100
173440,note_off,,,,,256,0,15,,,,,7,,,55,100
173440,note_off,,,,,0,0,15,,,,,7,,,59,100
173476,note_off,,,,,100,0,8,,,,,1,,,67,100
173476,note_off,,,,,100,0,9,,,,,2,,,64,100
173564,set_tempo,,,,,192,1,0,,600000,,,,,,,
173568,note_on,,,,,128,0,13,,,,,6,,,64,100
173568,note_on,,,,,128,0,10,,,,,3,,,59,100
173568,note_on,,,,,92,0,9,,,,,2,,,64,90
173568,note_on,,,,,128,0,15,,,,,7,,,71,100
173568,note_on,,,,,0,0,13,,,,,6,,,67,100
173568,note_on,,,,,128,0,16,,,,,7,,,52,100
173568,note_on,,,,,0,0,15,,,,,7,,,64,100
173568,note_on,,,,,128,0,11,,,,,4,,,52,100
173568,note_on,,,,,128,0,12,,,,,5,,,40,100
173568,note_on,,,,,0,0,15,,,,,7,,,67,100
173568,set_tempo,,,,,4,1,0,,625000,,,,,,,
173568,note_on,,,,,128,0,14,,,,,6,,,52,100
173568,note_on,,,,,92,0,8,,,,,1,,,67,90
173668,note_off,,,,,100,0,11,,,,,4,,,52,100
173668,note_off,,,,,100,0,12,,,,,5,,,40,100
173668,note_off,,,,,100,0,10,,,,,3,,,59,100
173668,note_off,,,,,100,0,14,,,,,6,,,52,100
173668,note_off,,,,,0,0,13,,,,,6,,,67,100
173668,note_off,,,,,100,0,16,,,,,7,,,52,100
173668,note_off,,,,,100,0,13,,,,,6,,,64,100
173696,set_tempo,,,,,128,1,0,,606060,,,,,,,
173760,note_on,,,,,92,0,11,,,,,4,,,55,100
173760,note_on,,,,,0,0,13,,,,,6,,,71,100
173760,note_on,,,,,92,0,14,,,,,6,,,55,100
173760,note_on,,,,,92,0,12,,,,,5,,,43,100
173760,note_on,,,,,92,0,16,,,,,7,,,55,100
173760,note_on,,,,,92,0,13,,,,,6,,,67,100
173760,note_on,,,,,92,0,10,,,,,3,,,71,100
173824,note_off,,,,,64,0,12,,,,,5,,,43,100
173824,note_off,,,,,64,0,10,,,,,3,,,71,100
173824,note_off,,,,,256,0,8,,,,,1,,,67,100
173824,note_off,,,,,64,0,13,,,,,6,,,67,100
173824,note_off,,,,,256,0,9,,,,,2,,,64,100
173824,note_off,,,,,64,0,11,,,,,4,,,55,100
173824,note_off,,,,,64,0,14,,,,,6,,,55,100
173824,note_off,,,,,0,0,13,,,,,6,,,71,100
173824,set_tempo,,,,,128,1,0,,612244,,,,,,,
173824,note_off,,,,,64,0,16,,,,,7,,,55,100
173856,note_on,,,,,32,0,13,,,,,6,,,66,100
173856,note_on,,,,,0,0,13,,,,,6,,,69,100
173856,note_on,,,,,32,0,12,,,,,5,,,42,100
173856,note_on,,,,,32,0,14,,,,,6,,,54,100
173856,note_on,,,,,32,0,10,,,,,3,,,69,100
173856,note_on,,,,,32,0,16,,,,,7,,,54,100
173856,note_on,,,,,32,0,11,,,,,4,,,54,100
173920,note_off,,,,,64,0,13,,,,,6,,,66,100
173920,note_off,,,,,64,0,11,,,,,4,,,54,100
173920,note_off,,,,,64,0,10,,,,,3,,,69,100
173920,note_off,,,,,0,0,13,,,,,6,,,69,100
173920,note_off,,,,,64,0,14,,,,,6,,,54,100
173920,note_off,,,,,64,0,12,,,,,5,,,42,100
173920,note_off,,,,,64,0,16,,,,,7,,,54,100
173952,note_on,,,,,32,0,13,,,,,6,,,64,100
173952,note_on,,,,,32,0,10,,,,,3,,,67,100
173952,note_on,,,,,0,0,13,,,,,6,,,67,100
173952,note_on,,,,,32,0,16,,,,,7,,,52,100
173952,set_tempo,,,,,128,1,0,,618556,,,,,,,
173952,note_on,,,,,32,0,14,,,,,6,,,52,100
173952,note_on,,,,,32,0,11,,,,,4,,,52,100
173952,note_on,,,,,32,0,12,,,,,5,,,40,100
174052,note_off,,,,,100,0,11,,,,,4,,,52,100
174052,note_off,,,,,0,0,13,,,,,6,,,67,100
174052,note_off,,,,,100,0,13,,,,,6,,,64,100
174052,note_off,,,,,100,0,16,,,,,7,,,52,100
174052,note_off,,,,,100,0,12,,,,,5,,,40,100
174052,note_off,,,,,100,0,14,,,,,6,,,52,100
174052,note_off,,,,,100,0,10,,,,,3,,,67,100
174080,set_tempo,,,,,128,1,0,,625000,,,,,,,
174144,note_on,,,,,92,0,12,,,,,5,,,40,100
174144,note_on,,,,,320,0,9,,,,,2,,,79,100
174144,note_on,,,,,92,0,10,,,,,3,,,67,100
174144,note_on,,,,,92,0,16,,,,,7,,,52,100
174144,note_on,,,,,92,0,13,,,,,6,,,64,100
174144,note_on,,,,,0,0,13,,,,,6,,,67,100
174144,note_on,,,,,320,0,8,,,,,1,,,83,100
174144,note_on,,,,,92,0,14,,,,,6,,,52,100
174144,note_on,,,,,92,0,11,,,,,4,,,52,100
174208,set_tempo,,,,,128,1,0,,631578,,,,,,,
174244,note_off,,,,,100,0,14,,,,,6,,,52,100
174244,note_off,,,,,100,0,8,,,,,1,,,83,100
174244,note_off,,,,,100,0,11,,,,,4,,,52,100
174244,note_off,,,,,100,0,9,,,,,2,,,79,100
174244,note_off,,,,,100,0,16,,,,,7,,,52,100
174244,note_off,,,,,100,0,13,,,,,6,,,64,100
174244,note_off,,,,,0,0,13,,,,,6,,,67,100
174244,note_off,,,,,100,0,12,,,,,5,,,40,100
174244,note_off,,,,,100,0,10,,,,,3,,,67,100
174256,note_off,,,,,688,0,15,,,,,7,,,71,100
174256,note_off,,,,,0,0,15,,,,,7,,,67,100
174256,note_off,,,,,0,0,15,,,,,7,,,64,100
174336,note_on,,,,,92,0,12,,,,,5,,,40,100
174336,note_on,,,,,92,0,13,,,,,6,,,64,100
174336,note_on,,,,,0,0,13,,,,,6,,,67,100
174336,note_on,,,,,92,0,16,,,,,7,,,52,100
174336,note_on,,,,,92,0,10,,,,,3,,,59,100
174336,note_on,,,,,0,0,15,,,,,7,,,67,100
174336,note_on,,,,,80,0,15,,,,,7,,,64,100
174336,set_tempo,,,,,128,1,0,,638297,,,,,,,
174336,note_on,,,,,92,0,11,,,,,4,,,52,100
174336,note_on,,,,,92,0,8,,,,,1,,,83,100
174336,note_on,,,,,92,0,9,,,,,2,,,79,100
174336,note_on,,,,,92,0,14,,,,,6,,,52,100
174372,set_tempo,,,,,36,1,0,,645161,,,,,,,
174412,set_tempo,,,,,40,1,0,,652173,,,,,,,
174436,note_off,,,,,100,0,12,,,,,5,,,40,100
174436,note_off,,,,,100,0,16,,,,,7,,,52,100
174436,note_off,,,,,100,0,11,,,,,4,,,52,100
174436,note_off,,,,,100,0,13,,,,,6,,,64,100
174436,note_off,,,,,0,0,13,,,,,6,,,67,100
174436,note_off,,,,,100,0,14,,,,,6,,,52,100
174436,note_off,,,,,100,0,10,,,,,3,,,59,100
174448,set_tempo,,,,,36,1,0,,659340,,,,,,,
174464,note_off,,,,,128,0,8,,,,,1,,,83,100
174464,note_off,,,,,128,0,9,,,,,2,,,79,100
174488,set_tempo,,,,,40,1,0,,666666,,,,,,,
174524,note_off,,,,,0,0,15,,,,,7,,,67,100
174524,note_off,,,,,188,0,15,,,,,7,,,64,100
174528,note_on,,,,,92,0,13,,,,,6,,,66,100
174528,note_on,,,,,92,0,12,,,,,5,,,45,100
174528,set_tempo,,,,,40,1,0,,674157,,,,,,,
174528,note_on,,,,,92,0,11,,,,,4,,,57,100
174528,note_on,,,,,0,0,15,,,,,7,,,69,100
174528,note_on,,,,,4,0,15,,,,,7,,,66,100
174528,note_on,,,,,0,0,13,,,,,6,,,69,100
174528,note_on,,,,,64,0,8,,,,,1,,,81,100
174528,note_on,,,,,92,0,10,,,,,3,,,72,100
174528,note_on,,,,,92,0,14,,,,,6,,,57,100
174528,note_on,,,,,92,0,16,,,,,7,,,57,100
174528,note_on,,,,,64,0,9,,,,,2,,,78,100
174564,set_tempo,,,,,36,1,0,,681818,,,,,,,
174592,note_off,,,,,0,0,13,,,,,6,,,69,100
174592,note_off,,,,,64,0,13,,,,,6,,,66,100
174592,note_off,,,,,64,0,8,,,,,1,,,81,100
174592,note_off,,,,,64,0,9,,,,,2,,,78,100
174604,set_tempo,,,,,40,1,0,,689655,,,,,,,
174620,note_off,,,,,92,0,15,,,,,7,,,66,100
174620,note_off,,,,,0,0,15,,,,,7,,,69,100
174624,note_on,,,,,32,0,9,,,,,2,,,76,100
174624,note_on,,,,,4,0,15,,,,,7,,,64,100
174624,note_on,,,,,32,0,13,,,,,6,,,64,100
174624,note_on,,,,,0,0,13,,,,,6,,,67,100
174624,note_on,,,,,32,0,8,,,,,1,,,79,100
174624,note_on,,,,,0,0,15,,,,,7,,,67,100
174628,note_off,,,,,100,0,12,,,,,5,,,45,100
174628,note_off,,,,,100,0,16,,,,,7,,,57,100
174628,note_off,,,,,100,0,14,,,,,6,,,57,100
174628,note_off,,,,,100,0,11,,,,,4,,,57,100
174628,note_off,,,,,100,0,10,,,,,3,,,72,100
174640,set_tempo,,,,,36,1,0,,697674,,,,,,,
174680,set_tempo,,,,,40,1,0,,705882,,,,,,,
174688,note_off,,,,,64,0,15,,,,,7,,,64,100
174688,note_off,,,,,64,0,8,,,,,1,,,79,100
174688,note_off,,,,,0,0,15,,,,,7,,,67,100
174688,note_off,,,,,0,0,13,,,,,6,,,67,100
174688,note_off,,,,,64,0,9,,,,,2,,,76,100
174688,note_off,,,,,64,0,13,,,,,6,,,64,100
174720,note_on,,,,,0,0,13,,,,,6,,,71,100
174720,note_on,,,,,32,0,9,,,,,2,,,75,100
174720,note_on,,,,,92,0,10,,,,,3,,,66,100
174720,note_on,,,,,92,0,11,,,,,4,,,59,100
174720,note_on,,,,,92,0,16,,,,,7,,,59,100
174720,note_on,,,,,32,0,8,,,,,1,,,78,100
174720,note_on,,,,,92,0,12,,,,,5,,,47,100
174720,note_on,,,,,32,0,15,,,,,7,,,71,100
174720,note_on,,,,,0,0,13,,,,,6,,,66,100
174720,note_on,,,,,32,0,13,,,,,6,,,63,100
174720,set_tempo,,,,,40,1,0,,714285,,,,,,,
174720,note_on,,,,,92,0,14,,,,,6,,,59,100
174720,note_on,,,,,0,0,15,,,,,7,,,66,100
174720,note_on,,,,,0,0,15,,,,,7,,,63,100
174736,set_tempo,,,,,16,1,0,,722891,,,,,,,
174756,set_tempo,,,,,20,1,0,,731707,,,,,,,
174764,note_off,,,,,44,0,9,,,,,2,,,75,100
174764,note_off,,,,,44,0,8,,,,,1,,,78,100
174768,note_on,,,,,4,0,9,,,,,2,,,76,100
174768,note_on,,,,,4,0,8,,,,,1,,,79,100
174776,set_tempo,,,,,20,1,0,,740740,,,,,,,
174796,set_tempo,,,,,20,1,0,,750000,,,,,,,
174812,note_off,,,,,44,0,8,,,,,1,,,79,100
174812,note_off,,,,,44,0,9,,,,,2,,,76,100
174816,note_on,,,,,4,0,9,,,,,2,,,75,100
174816,set_tempo,,,,,20,1,0,,759493,,,,,,,
174816,note_on,,,,,4,0,8,,,,,1,,,78,100
174820,note_off,,,,,100,0,14,,,,,6,,,59,100
174820,note_off,,,,,100,0,11,,,,,4,,,59,100
174820,note_off,,,,,100,0,13,,,,,6,,,63,100
174820,note_off,,,,,0,0,13,,,,,6,,,66,100
174820,note_off,,,,,0,0,13,,,,,6,,,71,100
174820,note_off,,,,,100,0,12,,,,,5,,,47,100
174820,note_off,,,,,100,0,16,,,,,7,,,59,100
174820,note_off,,,,,100,0,10,,,,,3,,,66,100
174832,set_tempo,,,,,16,1,0,,769230,,,,,,,
174852,set_tempo,,,,,20,1,0,,779220,,,,,,,
174860,note_off,,,,,44,0,9,,,,,2,,,75,100
174860,note_off,,,,,44,0,8,,,,,1,,,78,100
174864,note_on,,,,,4,0,9,,,,,2,,,76,100
174864,note_on,,,,,4,0,8,,,,,1,,,79,100
174872,set_tempo,,,,,20,1,0,,789473,,,,,,,
174892,set_tempo,,,,,20,1,0,,800000,,,,,,,
174908,note_off,,,,,44,0,9,,,,,2,,,76,100
174908,note_off,,,,,44,0,8,,,,,1,,,79,100
174912,note_on,,,,,92,0,11,,,,,4,,,47,100
174912,set_tempo,,,,,20,1,0,,810810,,,,,,,
174912,note_on,,,,,92,0,12,,,,,5,,,35,100
174912,note_on,,,,,0,0,13,,,,,6,,,66,100
174912,note_on,,,,,4,0,8,,,,,1,,,78,100
174912,note_on,,,,,92,0,13,,,,,6,,,59,100
174912,note_on,,,,,0,0,13,,,,,6,,,63,100
174912,note_on,,,,,92,0,14,,,,,6,,,47,100
174912,note_on,,,,,92,0,10,,,,,3,,,71,100
174912,note_on,,,,,92,0,16,,,,,7,,,47,100
174912,note_on,,,,,4,0,9,,,,,2,,,75,100
174920,set_tempo,,,,,8,1,0,,821917,,,,,,,
174928,set_tempo,,,,,8,1,0,,833333,,,,,,,
174940,set_tempo,,,,,12,1,0,,845070,,,,,,,
174948,set_tempo,,,,,8,1,0,,857142,,,,,,,
174960,set_tempo,,,,,12,1,0,,869565,,,,,,,
174968,set_tempo,,,,,8,1,0,,882352,,,,,,,
174976,note_off,,,,,0,0,15,,,,,7,,,66,100
174976,note_off,,,,,0,0,15,,,,,7,,,63,100
174976,set_tempo,,,,,8,1,0,,895522,,,,,,,
174976,note_off,,,,,64,0,8,,,,,1,,,78,100
174976,note_off,,,,,256,0,15,,,,,7,,,71,100
174976,note_off,,,,,64,0,9,,,,,2,,,75,100
174988,set_tempo,,,,,12,1,0,,909090,,,,,,,
174996,set_tempo,,,,,8,1,0,,923076,,,,,,,
175008,set_tempo,,,,,12,1,0,,937500,,,,,,,
175008,note_on,,,,,32,0,8,,,,,1,,,76,100
175008,note_on,,,,,32,0,9,,,,,2,,,76,100
175012,note_off,,,,,100,0,11,,,,,4,,,47,100
175012,note_off,,,,,100,0,10,,,,,3,,,71,100
175012,note_off,,,,,100,0,16,,,,,7,,,47,100
175012,note_off,,,,,100,0,14,,,,,6,,,47,100
175012,note_off,,,,,0,0,13,,,,,6,,,63,100
175012,note_off,,,,,0,0,13,,,,,6,,,66,100
175012,note_off,,,,,100,0,13,,,,,6,,,59,100
175012,note_off,,,,,100,0,12,,,,,5,,,35,100
175016,set_tempo,,,,,8,1,0,,952380,,,,,,,
175024,set_tempo,,,,,8,1,0,,967741,,,,,,,
175036,set_tempo,,,,,12,1,0,,983606,,,,,,,
175044,set_tempo,,,,,8,1,0,,1000000,,,,,,,
175056,set_tempo,,,,,12,1,0,,1016949,,,,,,,
175064,set_tempo,,,,,8,1,0,,1034482,,,,,,,
175072,note_off,,,,,64,0,8,,,,,1,,,76,100
175072,note_off,,,,,64,0,9,,,,,2,,,76,100
175072,set_tempo,,,,,8,1,0,,1052631,,,,,,,
175084,set_tempo,,,,,12,1,0,,1071428,,,,,,,
175092,set_tempo,,,,,8,1,0,,1090909,,,,,,,
175104,note_on,,,,,32,0,9,,,,,2,,,76,100
175104,note_on,,,,,92,0,14,,,,,6,,,40,100
175104,note_on,,,,,92,0,12,,,,,5,,,40,100
175104,note_on,,,,,32,0,8,,,,,1,,,76,100
175104,note_on,,,,,92,0,11,,,,,4,,,40,100
175104,note_on,,,,,128,0,15,,,,,7,,,52,100
175104,note_on,,,,,0,0,15,,,,,7,,,55,100
175104,note_on,,,,,0,0,15,,,,,7,,,59,100
175104,note_on,,,,,0,0,15,,,,,7,,,64,100
175104,end_of_track,,,,,0,1,0,,,,,,,,,
175104,set_tempo,,,,,12,1,0,,1034482,,,,,,,
175104,note_on,,,,,92,0,16,,,,,7,,,40,100
175104,note_on,,,,,92,0,10,,,,,3,,,67,100
175132,note_on,,,,,120,0,13,,,,,6,,,55,100
175164,note_on,,,,,32,0,13,,,,,6,,,59,100
175196,note_on,,,,,32,0,13,,,,,6,,,64,100
176480,end_of_track,,,,,0,1,13,,,,,,,,,
176480,note_off,,,,,0,0,13,,,,,6,,,59,100
176480,note_off,,,,,1284,0,13,,,,,6,,,55,100
176480,note_off,,,,,0,0,13,,,,,6,,,64,100
176484,note_off,,,,,1380,0,9,,,,,2,,,76,100
176484,note_off,,,,,0,0,15,,,,,7,,,64,100
176484,note_off,,,,,1380,0,10,,,,,3,,,67,100
176484,end_of_track,,,,,0,1,10,,,,,,,,,
176484,note_off,,,,,1380,0,8,,,,,1,,,76,100
176484,note_off,,,,,1380,0,16,,,,,7,,,40,100
176484,note_off,,,,,1380,0,11,,,,,4,,,40,100
176484,end_of_track,,,,,0,1,15,,,,,,,,,
176484,note_off,,,,,1380,0,12,,,,,5,,,40,100
176484,end_of_track,,,,,0,1,11,,,,,,,,,
176484,end_of_track,,,,,0,1,9,,,,,,,,,
176484,note_off,,,,,1380,0,14,,,,,6,,,40,100
176484,end_of_track,,,,,0,1,14,,,,,,,,,
176484,note_off,,,,,1380,0,15,,,,,7,,,52,100
176484,note_off,,,,,0,0,15,,,,,7,,,55,100
176484,note_off,,,,,0,0,15,,,,,7,,,59,100
176484,end_of_track,,,,,0,1,12,,,,,,,,,
176484,end_of_track,,,,,0,1,16,,,,,,,,,
177792,program_change,,,,,1308,0,8,,,,,1,48,,,
177792,end_of_track,,,,,0,1,8,,,,,,,,,
