tick,type,numerator,denominator,clocks_per_click,notated_32nd_notes_per_beat,time,meta,track,data,tempo,control,value,channel,program,key,note,velocity
0,time_signature,4,4,96,8,0,1,0,,,,,,,,,
0,control_change,,,,,0,0,8,,,10,59,0,,,,
0,control_change,,,,,0,0,8,,,91,62,0,,,,
0,key_signature,,,,,0,1,8,,,,,,,F,,
0,note_on,,,,,0,0,8,,,,,0,,,77,70
0,note_on,,,,,0,0,16,,,,,7,,,46,100
0,key_signature,,,,,0,1,16,,,,,,,F,,
0,control_change,,,,,0,0,16,,,91,64,7,,,,
0,control_change,,,,,0,0,16,,,7,55,7,,,,
0,program_change,,,,,0,0,16,,,,,7,6,,,
0,control_change,,,,,0,0,16,,,0,0,7,,,,
0,track_name,,,,,0,1,16,,,,,,,,,
0,track_name,,,,,0,1,9,,,,,,,,,
0,control_change,,,,,0,0,9,,,0,0,1,,,,
0,program_change,,,,,0,0,9,,,,,1,48,,,
0,control_change,,,,,0,0,9,,,7,100,1,,,,
0,control_change,,,,,0,0,9,,,10,47,1,,,,
0,control_change,,,,,0,0,9,,,91,62,1,,,,
0,key_signature,,,,,0,1,9,,,,,,,F,,
0,note_on,,,,,0,0,9,,,,,1,,,74,70
0,control_change,,,,,0,0,8,,,7,100,0,,,,
0,program_change,,,,,0,0,8,,,,,0,48,,,
0,control_change,,,,,0,0,8,,,0,0,0,,,,
0,track_name,,,,,0,1,8,,,,,,,,,
0,control_change,,,,,0,0,5,,,10,59,0,,,,
0,control_change,,,,,0,0,5,,,91,62,0,,,,
0,key_signature,,,,,0,1,5,,,,,,,F,,
0,end_of_track,,,,,0,1,5,,,,,,,,,
0,track_name,,,,,0,1,6,,,,,,,,,
0,control_change,,,,,0,0,6,,,0,0,0,,,,
0,program_change,,,,,0,0,6,,,,,0,48,,,
0,control_change,,,,,0,0,6,,,7,100,0,,,,
0,control_change,,,,,0,0,6,,,10,59,0,,,,
0,track_name,,,,,0,1,10,,,,,,,,,
0,control_change,,,,,0,0,6,,,91,62,0,,,,
0,end_of_track,,,,,0,1,6,,,,,,,,,
0,track_name,,,,,0,1,7,,,,,,,,,
0,control_change,,,,,0,0,7,,,0,0,0,,,,
0,program_change,,,,,0,0,7,,,,,0,48,,,
0,control_change,,,,,0,0,7,,,7,100,0,,,,
0,control_change,,,,,0,0,7,,,10,59,0,,,,
0,control_change,,,,,0,0,7,,,91,62,0,,,,
0,key_signature,,,,,0,1,7,,,,,,,F,,
0,end_of_track,,,,,0,1,7,,,,,,,,,
0,key_signature,,,,,0,1,6,,,,,,,F,,
0,control_change,,,,,0,0,10,,,0,0,2,,,,
0,program_change,,,,,0,0,10,,,,,2,48,,,
0,control_change,,,,,0,0,10,,,7,100,2,,,,
0,control_change,,,,,0,0,14,,,10,88,6,,,,
0,control_change,,,,,0,0,14,,,7,77,6,,,,
0,program_change,,,,,0,0,14,,,,,6,48,,,
0,control_change,,,,,0,0,14,,,0,0,6,,,,
0,track_name,,,,,0,1,14,,,,,,,,,
0,track_name,,,,,0,1,12,,,,,,,,,
0,control_change,,,,,0,0,12,,,0,0,4,,,,
0,program_change,,,,,0,0,12,,,,,4,48,,,
0,control_change,,,,,0,0,12,,,7,95,4,,,,
0,control_change,,,,,0,0,14,,,91,64,6,,,,
0,control_change,,,,,0,0,12,,,10,64,4,,,,
0,key_signature,,,,,0,1,12,,,,,,,F,,
0,note_on,,,,,0,0,12,,,,,4,,,65,70
0,note_on,,,,,0,0,12,,,,,4,,,58,70
0,note_on,,,,,0,0,13,,,,,5,,,46,70
0,key_signature,,,,,0,1,13,,,,,,,F,,
0,control_change,,,,,0,0,13,,,91,60,5,,,,
0,control_change,,,,,0,0,13,,,10,84,5,,,,
0,control_change,,,,,0,0,13,,,7,82,5,,,,
0,program_change,,,,,0,0,13,,,,,5,48,,,
0,control_change,,,,,0,0,12,,,91,62,4,,,,
0,control_change,,,,,0,0,5,,,7,100,0,,,,
0,key_signature,,,,,0,1,14,,,,,,,F,,
0,note_on,,,,,0,0,11,,,,,3,,,74,20
0,control_change,,,,,0,0,10,,,10,52,2,,,,
0,control_change,,,,,0,0,10,,,91,62,2,,,,
0,key_signature,,,,,0,1,10,,,,,,,F,,
0,note_on,,,,,0,0,10,,,,,2,,,77,20
0,control_change,,,,,0,0,13,,,0,0,5,,,,
0,note_on,,,,,0,0,15,,,,,7,,,62,100
0,note_on,,,,,0,0,15,,,,,7,,,65,100
0,key_signature,,,,,0,1,15,,,,,,,F,,
0,control_change,,,,,0,0,15,,,91,64,7,,,,
0,note_on,,,,,0,0,14,,,,,6,,,34,70
0,control_change,,,,,0,0,15,,,7,55,7,,,,
0,control_change,,,,,0,0,15,,,0,0,7,,,,
0,track_name,,,,,0,1,15,,,,,,,,,
0,track_name,,,,,0,1,11,,,,,,,,,
0,control_change,,,,,0,0,11,,,0,0,3,,,,
0,program_change,,,,,0,0,11,,,,,3,48,,,
0,control_change,,,,,0,0,11,,,7,100,3,,,,
0,control_change,,,,,0,0,11,,,10,43,3,,,,
0,control_change,,,,,0,0,11,,,91,64,3,,,,
0,key_signature,,,,,0,1,11,,,,,,,F,,
0,program_change,,,,,0,0,15,,,,,7,6,,,
0,program_change,,,,,0,0,5,,,,,0,48,,,
0,track_name,,,,,0,1,13,,,,,,,,,
0,track_name,,,,,0,1,5,,,,,,,,,
0,set_tempo,,,,,0,1,0,,1000000,,,,,,,
0,sequencer_specific,,,,,0,1,0,"(0, 0, 119, 14, 1)",,,,,,,,
0,sequencer_specific,,,,,0,1,0,"(0, 0, 65)",,,,,,,,
0,track_name,,,,,0,1,1,,,,,,,,,
0,end_of_track,,,,,0,1,1,,,,,,,,,
0,track_name,,,,,0,1,2,,,,,,,,,
0,end_of_track,,,,,0,1,2,,,,,,,,,
0,track_name,,,,,0,1,3,,,,,,,,,
0,control_change,,,,,0,0,3,,,0,0,0,,,,
0,control_change,,,,,0,0,3,,,7,100,0,,,,
0,control_change,,,,,0,0,3,,,10,59,0,,,,
0,control_change,,,,,0,0,5,,,0,0,0,,,,
0,program_change,,,,,0,0,3,,,,,0,48,,,
0,end_of_track,,,,,0,1,4,,,,,,,,,
0,control_change,,,,,0,0,3,,,91,62,0,,,,
0,control_change,,,,,0,0,4,,,91,62,0,,,,
0,control_change,,,,,0,0,4,,,10,59,0,,,,
0,control_change,,,,,0,0,4,,,7,100,0,,,,
0,key_signature,,,,,0,1,4,,,,,,,F,,
0,control_change,,,,,0,0,4,,,0,0,0,,,,
0,track_name,,,,,0,1,4,,,,,,,,,
0,end_of_track,,,,,0,1,3,,,,,,,,,
0,key_signature,,,,,0,1,3,,,,,,,F,,
0,program_change,,,,,0,0,4,,,,,0,48,,,
256,note_off,,,,,256,0,16,,,,,7,,,46,100
256,note_off,,,,,0,0,15,,,,,7,,,62,100
256,note_off,,,,,256,0,15,,,,,7,,,65,100
256,note_off,,,,,256,0,11,,,,,3,,,74,100
256,note_off,,,,,256,0,10,,,,,2,,,77,100
256,note_off,,,,,256,0,9,,,,,1,,,74,100
256,note_off,,,,,256,0,14,,,,,6,,,34,100
256,note_off,,,,,0,0,12,,,,,4,,,58,100
256,note_off,,,,,256,0,12,,,,,4,,,65,100
256,note_off,,,,,256,0,8,,,,,0,,,77,100
256,note_off,,,,,256,0,13,,,,,5,,,46,100
768,note_on,,,,,512,0,16,,,,,7,,,45,100
768,note_on,,,,,0,0,15,,,,,7,,,60,100
768,note_on,,,,,512,0,15,,,,,7,,,66,100
768,note_on,,,,,512,0,10,,,,,2,,,78,20
768,note_on,,,,,0,0,12,,,,,4,,,60,70
768,note_on,,,,,512,0,9,,,,,1,,,72,70
768,note_on,,,,,512,0,11,,,,,3,,,72,20
768,note_on,,,,,512,0,12,,,,,4,,,69,70
768,note_on,,,,,512,0,13,,,,,5,,,45,70
768,note_on,,,,,512,0,8,,,,,0,,,78,70
768,note_on,,,,,512,0,14,,,,,6,,,33,70
1024,note_off,,,,,256,0,8,,,,,0,,,78,100
1024,note_off,,,,,0,0,15,,,,,7,,,60,100
1024,note_off,,,,,256,0,15,,,,,7,,,66,100
1024,note_off,,,,,256,0,16,,,,,7,,,45,100
1024,note_off,,,,,256,0,11,,,,,3,,,72,100
1024,note_off,,,,,256,0,9,,,,,1,,,72,100
1024,note_off,,,,,256,0,10,,,,,2,,,78,100
1024,note_off,,,,,256,0,14,,,,,6,,,33,100
1024,note_off,,,,,256,0,13,,,,,5,,,45,100
1024,note_off,,,,,256,0,12,,,,,4,,,69,100
1024,note_off,,,,,0,0,12,,,,,4,,,60,100
1536,note_on,,,,,512,0,14,,,,,6,,,31,70
1536,note_on,,,,,512,0,12,,,,,4,,,62,70
1536,note_on,,,,,512,0,11,,,,,3,,,70,20
1536,note_on,,,,,512,0,13,,,,,5,,,43,70
1536,note_on,,,,,512,0,8,,,,,0,,,79,70
1536,note_on,,,,,512,0,9,,,,,1,,,70,70
1536,note_on,,,,,512,0,10,,,,,2,,,79,20
1536,note_on,,,,,512,0,16,,,,,7,,,43,100
1564,note_on,,,,,540,0,15,,,,,7,,,58,100
1596,note_on,,,,,32,0,15,,,,,7,,,62,100
1628,note_on,,,,,32,0,15,,,,,7,,,67,100
2076,note_off,,,,,448,0,15,,,,,7,,,58,100
2108,note_off,,,,,32,0,15,,,,,7,,,62,100
2140,note_off,,,,,32,0,15,,,,,7,,,67,100
2300,note_off,,,,,764,0,12,,,,,4,,,62,100
2300,note_off,,,,,764,0,8,,,,,0,,,79,100
2300,note_off,,,,,764,0,16,,,,,7,,,43,100
2300,note_off,,,,,764,0,11,,,,,3,,,70,100
2300,note_off,,,,,764,0,13,,,,,5,,,43,100
2300,note_off,,,,,764,0,14,,,,,6,,,31,100
2300,note_off,,,,,764,0,9,,,,,1,,,70,100
2300,note_off,,,,,764,0,10,,,,,2,,,79,100
3072,note_on,,,,,772,0,10,,,,,2,,,79,20
3072,note_on,,,,,772,0,11,,,,,3,,,75,20
3072,note_on,,,,,772,0,16,,,,,7,,,48,100
3072,note_on,,,,,0,0,15,,,,,7,,,63,100
3072,note_on,,,,,772,0,14,,,,,6,,,36,70
3072,note_on,,,,,772,0,8,,,,,0,,,79,70
3072,note_on,,,,,772,0,12,,,,,4,,,67,70
3072,note_on,,,,,0,0,12,,,,,4,,,63,70
3072,note_on,,,,,772,0,13,,,,,5,,,48,70
3072,note_on,,,,,932,0,15,,,,,7,,,67,100
3072,note_on,,,,,772,0,9,,,,,1,,,75,70
3328,note_off,,,,,256,0,9,,,,,1,,,75,100
3328,note_off,,,,,256,0,8,,,,,0,,,79,100
3328,note_off,,,,,256,0,14,,,,,6,,,36,100
3328,note_off,,,,,256,0,12,,,,,4,,,67,100
3328,note_off,,,,,0,0,12,,,,,4,,,63,100
3328,note_off,,,,,256,0,13,,,,,5,,,48,100
3328,note_off,,,,,256,0,11,,,,,3,,,75,100
3328,note_off,,,,,256,0,16,,,,,7,,,48,100
3328,note_off,,,,,256,0,10,,,,,2,,,79,100
3328,note_off,,,,,256,0,15,,,,,7,,,67,100
3328,note_off,,,,,0,0,15,,,,,7,,,63,100
3840,note_on,,,,,512,0,10,,,,,2,,,79,20
3840,note_on,,,,,512,0,16,,,,,7,,,45,100
3840,note_on,,,,,512,0,13,,,,,5,,,45,70
3840,note_on,,,,,0,0,12,,,,,4,,,64,70
3840,note_on,,,,,512,0,12,,,,,4,,,69,70
3840,note_on,,,,,0,0,15,,,,,7,,,67,100
3840,note_on,,,,,512,0,8,,,,,0,,,79,70
3840,note_on,,,,,512,0,9,,,,,1,,,73,70
3840,note_on,,,,,512,0,15,,,,,7,,,61,100
3840,note_on,,,,,512,0,14,,,,,6,,,33,70
3840,note_on,,,,,512,0,11,,,,,3,,,73,20
4096,note_off,,,,,256,0,9,,,,,1,,,73,100
4096,note_off,,,,,256,0,16,,,,,7,,,45,100
4096,note_off,,,,,256,0,13,,,,,5,,,45,100
4096,note_off,,,,,256,0,11,,,,,3,,,73,100
4096,note_off,,,,,0,0,12,,,,,4,,,64,100
4096,note_off,,,,,256,0,12,,,,,4,,,69,100
4096,note_off,,,,,0,0,15,,,,,7,,,67,100
4096,note_off,,,,,256,0,15,,,,,7,,,61,100
4096,note_off,,,,,256,0,10,,,,,2,,,79,100
4096,note_off,,,,,256,0,8,,,,,0,,,79,100
4096,note_off,,,,,256,0,14,,,,,6,,,33,100
4608,note_on,,,,,512,0,13,,,,,5,,,50,70
4608,note_on,,,,,0,0,12,,,,,4,,,69,70
4608,note_on,,,,,512,0,12,,,,,4,,,57,70
4608,note_on,,,,,512,0,8,,,,,0,,,78,70
4608,note_on,,,,,512,0,16,,,,,7,,,50,100
4608,note_on,,,,,512,0,14,,,,,6,,,38,70
4608,note_on,,,,,512,0,9,,,,,1,,,74,70
4608,note_on,,,,,512,0,10,,,,,2,,,78,20
4608,note_on,,,,,512,0,11,,,,,3,,,74,20
4636,note_on,,,,,540,0,15,,,,,7,,,62,100
4668,note_on,,,,,32,0,15,,,,,7,,,66,100
4700,note_on,,,,,32,0,15,,,,,7,,,69,100
5148,note_off,,,,,448,0,15,,,,,7,,,62,100
5180,note_off,,,,,32,0,15,,,,,7,,,66,100
5212,note_off,,,,,32,0,15,,,,,7,,,69,100
5372,note_off,,,,,764,0,14,,,,,6,,,38,100
5372,note_off,,,,,764,0,8,,,,,0,,,78,100
5372,note_off,,,,,764,0,10,,,,,2,,,78,100
5372,note_off,,,,,764,0,16,,,,,7,,,50,100
5372,note_off,,,,,764,0,12,,,,,4,,,57,100
5372,note_off,,,,,0,0,12,,,,,4,,,69,100
5372,note_off,,,,,764,0,9,,,,,1,,,74,100
5372,note_off,,,,,764,0,13,,,,,5,,,50,100
5372,note_off,,,,,764,0,11,,,,,3,,,74,100
6144,note_on,,,,,772,0,9,,,,,1,,,77,70
6144,note_on,,,,,772,0,13,,,,,5,,,50,70
6144,note_on,,,,,0,0,15,,,,,7,,,65,100
6144,note_on,,,,,932,0,15,,,,,7,,,69,100
6144,note_on,,,,,772,0,16,,,,,7,,,50,100
6144,note_on,,,,,772,0,11,,,,,3,,,77,20
6144,note_on,,,,,772,0,14,,,,,6,,,38,70
6272,note_off,,,,,128,0,13,,,,,5,,,50,100
6272,note_off,,,,,128,0,14,,,,,6,,,38,100
6272,note_off,,,,,0,0,15,,,,,7,,,65,100
6272,note_off,,,,,128,0,15,,,,,7,,,69,100
6272,note_off,,,,,128,0,16,,,,,7,,,50,100
6336,note_on,,,,,64,0,14,,,,,6,,,38,70
6336,note_on,,,,,64,0,16,,,,,7,,,50,100
6336,note_on,,,,,0,0,15,,,,,7,,,65,100
6336,note_on,,,,,64,0,13,,,,,5,,,50,70
6336,note_on,,,,,64,0,15,,,,,7,,,69,100
6464,note_off,,,,,128,0,16,,,,,7,,,50,100
6464,note_off,,,,,128,0,15,,,,,7,,,69,100
6464,note_off,,,,,128,0,14,,,,,6,,,38,100
6464,note_off,,,,,128,0,13,,,,,5,,,50,100
6464,note_off,,,,,0,0,15,,,,,7,,,65,100
6528,note_on,,,,,0,0,15,,,,,7,,,70,100
6528,note_on,,,,,64,0,16,,,,,7,,,50,100
6528,note_on,,,,,1156,0,12,,,,,4,,,62,70
6528,note_on,,,,,0,0,12,,,,,4,,,65,70
6528,note_on,,,,,1156,0,10,,,,,2,,,82,20
6528,note_on,,,,,1156,0,8,,,,,0,,,82,70
6528,note_on,,,,,64,0,15,,,,,7,,,65,100
6528,note_on,,,,,64,0,14,,,,,6,,,38,70
6528,note_on,,,,,64,0,13,,,,,5,,,50,70
6656,note_off,,,,,128,0,16,,,,,7,,,50,100
6656,note_off,,,,,128,0,14,,,,,6,,,38,100
6656,note_off,,,,,128,0,15,,,,,7,,,65,100
6656,note_off,,,,,0,0,15,,,,,7,,,70,100
6656,note_off,,,,,128,0,13,,,,,5,,,50,100
6720,note_on,,,,,0,0,15,,,,,7,,,70,100
6720,note_on,,,,,64,0,16,,,,,7,,,50,100
6720,note_on,,,,,64,0,15,,,,,7,,,65,100
6720,note_on,,,,,64,0,13,,,,,5,,,50,70
6720,note_on,,,,,64,0,14,,,,,6,,,38,70
6784,note_off,,,,,0,0,12,,,,,4,,,65,100
6784,note_off,,,,,256,0,12,,,,,4,,,62,100
6832,note_off,,,,,688,0,9,,,,,1,,,77,100
6832,note_off,,,,,688,0,11,,,,,3,,,77,100
6848,note_off,,,,,128,0,14,,,,,6,,,38,100
6848,note_off,,,,,128,0,15,,,,,7,,,65,100
6848,note_off,,,,,0,0,15,,,,,7,,,70,100
6848,note_off,,,,,128,0,13,,,,,5,,,50,100
6848,note_off,,,,,128,0,16,,,,,7,,,50,100
6912,note_on,,,,,0,0,12,,,,,4,,,67,70
6912,note_on,,,,,128,0,12,,,,,4,,,64,70
6912,note_on,,,,,80,0,9,,,,,1,,,76,70
6912,note_on,,,,,64,0,13,,,,,5,,,49,70
6912,note_on,,,,,64,0,16,,,,,7,,,49,100
6912,note_on,,,,,80,0,11,,,,,3,,,76,20
6912,note_on,,,,,64,0,15,,,,,7,,,67,100
6912,note_on,,,,,0,0,15,,,,,7,,,70,100
6912,note_on,,,,,64,0,14,,,,,6,,,37,70
7040,note_off,,,,,128,0,13,,,,,5,,,49,100
7040,note_off,,,,,128,0,15,,,,,7,,,67,100
7040,note_off,,,,,0,0,15,,,,,7,,,70,100
7040,note_off,,,,,128,0,16,,,,,7,,,49,100
7040,note_off,,,,,128,0,14,,,,,6,,,37,100
7104,note_on,,,,,64,0,13,,,,,5,,,49,70
7104,note_on,,,,,64,0,14,,,,,6,,,37,70
7104,note_on,,,,,64,0,16,,,,,7,,,49,100
7104,note_on,,,,,64,0,15,,,,,7,,,67,100
7104,note_on,,,,,0,0,15,,,,,7,,,70,100
7168,note_off,,,,,0,0,12,,,,,4,,,67,100
7168,note_off,,,,,256,0,12,,,,,4,,,64,100
7216,note_off,,,,,688,0,10,,,,,2,,,82,100
7216,note_off,,,,,688,0,8,,,,,0,,,82,100
7232,note_off,,,,,128,0,15,,,,,7,,,67,100
7232,note_off,,,,,0,0,15,,,,,7,,,70,100
7232,note_off,,,,,128,0,13,,,,,5,,,49,100
7232,note_off,,,,,128,0,16,,,,,7,,,49,100
7232,note_off,,,,,128,0,14,,,,,6,,,37,100
7296,note_on,,,,,0,0,12,,,,,4,,,69,70
7296,note_on,,,,,128,0,12,,,,,4,,,60,70
7296,note_on,,,,,80,0,8,,,,,0,,,81,70
7296,note_on,,,,,64,0,14,,,,,6,,,36,70
7296,note_on,,,,,64,0,15,,,,,7,,,64,100
7296,note_on,,,,,80,0,10,,,,,2,,,81,20
7296,note_on,,,,,64,0,16,,,,,7,,,48,100
7296,note_on,,,,,0,0,15,,,,,7,,,69,100
7296,note_on,,,,,64,0,13,,,,,5,,,48,70
7424,note_off,,,,,0,0,15,,,,,7,,,69,100
7424,note_off,,,,,128,0,16,,,,,7,,,48,100
7424,note_off,,,,,128,0,14,,,,,6,,,36,100
7424,note_off,,,,,128,0,15,,,,,7,,,64,100
7424,note_off,,,,,128,0,13,,,,,5,,,48,100
7488,note_on,,,,,0,0,15,,,,,7,,,69,100
7488,note_on,,,,,64,0,15,,,,,7,,,64,100
7488,note_on,,,,,64,0,13,,,,,5,,,48,70
7488,note_on,,,,,64,0,16,,,,,7,,,48,100
7488,note_on,,,,,64,0,14,,,,,6,,,36,70
7552,note_off,,,,,256,0,12,,,,,4,,,60,100
7552,note_off,,,,,0,0,12,,,,,4,,,69,100
7600,note_off,,,,,688,0,11,,,,,3,,,76,100
7600,note_off,,,,,688,0,9,,,,,1,,,76,100
7616,note_off,,,,,128,0,16,,,,,7,,,48,100
7616,note_off,,,,,128,0,14,,,,,6,,,36,100
7616,note_off,,,,,128,0,13,,,,,5,,,48,100
7616,note_off,,,,,128,0,15,,,,,7,,,64,100
7616,note_off,,,,,0,0,15,,,,,7,,,69,100
7680,note_on,,,,,64,0,14,,,,,6,,,35,70
7680,note_on,,,,,64,0,13,,,,,5,,,47,70
7680,note_on,,,,,64,0,16,,,,,7,,,47,100
7680,note_on,,,,,64,0,15,,,,,7,,,65,100
7680,note_on,,,,,80,0,9,,,,,1,,,74,70
7680,note_on,,,,,80,0,11,,,,,3,,,74,20
7680,note_on,,,,,0,0,15,,,,,7,,,69,100
7680,note_on,,,,,0,0,12,,,,,4,,,65,70
7680,note_on,,,,,128,0,12,,,,,4,,,62,70
7808,note_off,,,,,128,0,14,,,,,6,,,35,100
7808,note_off,,,,,128,0,13,,,,,5,,,47,100
7808,note_off,,,,,128,0,16,,,,,7,,,47,100
7808,note_off,,,,,0,0,15,,,,,7,,,69,100
7808,note_off,,,,,128,0,15,,,,,7,,,65,100
7872,note_on,,,,,64,0,14,,,,,6,,,35,70
7872,note_on,,,,,64,0,13,,,,,5,,,47,70
7872,note_on,,,,,0,0,15,,,,,7,,,69,100
7872,note_on,,,,,64,0,15,,,,,7,,,65,100
7872,note_on,,,,,64,0,16,,,,,7,,,47,100
7936,note_off,,,,,256,0,12,,,,,4,,,62,100
7936,note_off,,,,,0,0,12,,,,,4,,,65,100
7984,note_off,,,,,688,0,8,,,,,0,,,81,64
7984,note_off,,,,,688,0,10,,,,,2,,,81,64
8000,note_off,,,,,128,0,14,,,,,6,,,35,100
8000,note_off,,,,,128,0,13,,,,,5,,,47,100
8000,note_off,,,,,128,0,16,,,,,7,,,47,100
8000,note_off,,,,,0,0,15,,,,,7,,,69,100
8000,note_off,,,,,128,0,15,,,,,7,,,65,100
8064,note_on,,,,,64,0,15,,,,,7,,,67,100
8064,note_on,,,,,0,0,15,,,,,7,,,62,100
8064,note_on,,,,,64,0,16,,,,,7,,,46,100
8064,note_on,,,,,64,0,13,,,,,5,,,46,70
8064,note_on,,,,,64,0,14,,,,,6,,,34,70
8064,note_on,,,,,80,0,10,,,,,2,,,79,20
8064,note_on,,,,,128,0,12,,,,,4,,,58,70
8064,note_on,,,,,0,0,12,,,,,4,,,67,70
8064,note_on,,,,,80,0,8,,,,,0,,,79,70
8192,note_off,,,,,128,0,14,,,,,6,,,34,100
8192,note_off,,,,,128,0,13,,,,,5,,,46,100
8192,note_off,,,,,128,0,15,,,,,7,,,67,100
8192,note_off,,,,,128,0,16,,,,,7,,,46,100
8192,note_off,,,,,0,0,15,,,,,7,,,62,100
8256,note_on,,,,,64,0,14,,,,,6,,,34,70
8256,note_on,,,,,64,0,15,,,,,7,,,67,100
8256,note_on,,,,,64,0,13,,,,,5,,,46,70
8256,note_on,,,,,64,0,16,,,,,7,,,46,100
8256,note_on,,,,,0,0,15,,,,,7,,,62,100
8320,note_off,,,,,256,0,12,,,,,4,,,58,100
8320,note_off,,,,,0,0,12,,,,,4,,,67,100
8368,note_off,,,,,688,0,9,,,,,1,,,74,100
8368,note_off,,,,,688,0,11,,,,,3,,,74,100
8384,note_off,,,,,128,0,13,,,,,5,,,46,100
8384,note_off,,,,,128,0,16,,,,,7,,,46,100
8384,note_off,,,,,128,0,14,,,,,6,,,34,100
8384,note_off,,,,,128,0,15,,,,,7,,,67,100
8384,note_off,,,,,0,0,15,,,,,7,,,62,100
8448,note_on,,,,,80,0,9,,,,,1,,,72,70
8448,note_on,,,,,0,0,12,,,,,4,,,64,70
8448,note_on,,,,,80,0,11,,,,,3,,,72,20
8448,note_on,,,,,64,0,15,,,,,7,,,64,100
8448,note_on,,,,,0,0,15,,,,,7,,,67,100
8448,note_on,,,,,64,0,13,,,,,5,,,45,70
8448,note_on,,,,,128,0,12,,,,,4,,,60,70
8448,note_on,,,,,64,0,14,,,,,6,,,33,70
8448,note_on,,,,,64,0,16,,,,,7,,,45,100
8576,note_off,,,,,0,0,15,,,,,7,,,67,100
8576,note_off,,,,,128,0,14,,,,,6,,,33,100
8576,note_off,,,,,128,0,16,,,,,7,,,45,100
8576,note_off,,,,,128,0,13,,,,,5,,,45,100
8576,note_off,,,,,128,0,15,,,,,7,,,64,100
8640,note_on,,,,,0,0,15,,,,,7,,,67,100
8640,note_on,,,,,64,0,14,,,,,6,,,33,70
8640,note_on,,,,,64,0,13,,,,,5,,,45,70
8640,note_on,,,,,64,0,16,,,,,7,,,45,100
8640,note_on,,,,,64,0,15,,,,,7,,,64,100
8704,note_off,,,,,0,0,12,,,,,4,,,64,100
8704,note_off,,,,,256,0,12,,,,,4,,,60,100
8752,note_off,,,,,688,0,8,,,,,0,,,79,100
8752,note_off,,,,,688,0,10,,,,,2,,,79,100
8768,note_off,,,,,128,0,16,,,,,7,,,45,100
8768,note_off,,,,,128,0,13,,,,,5,,,45,100
8768,note_off,,,,,128,0,15,,,,,7,,,64,100
8768,note_off,,,,,0,0,15,,,,,7,,,67,100
8768,note_off,,,,,128,0,14,,,,,6,,,33,100
8832,note_on,,,,,64,0,16,,,,,7,,,45,100
8832,note_on,,,,,80,0,8,,,,,0,,,77,70
8832,note_on,,,,,80,0,10,,,,,2,,,77,20
8832,note_on,,,,,64,0,14,,,,,6,,,33,70
8832,note_on,,,,,64,0,13,,,,,5,,,45,70
8832,note_on,,,,,128,0,12,,,,,4,,,57,70
8832,note_on,,,,,64,0,15,,,,,7,,,60,100
8832,note_on,,,,,0,0,15,,,,,7,,,65,100
8832,note_on,,,,,0,0,12,,,,,4,,,65,70
8960,note_off,,,,,128,0,13,,,,,5,,,45,100
8960,note_off,,,,,128,0,16,,,,,7,,,45,100
8960,note_off,,,,,128,0,15,,,,,7,,,60,100
8960,note_off,,,,,128,0,14,,,,,6,,,33,100
8960,note_off,,,,,0,0,15,,,,,7,,,65,100
9024,note_on,,,,,64,0,15,,,,,7,,,60,100
9024,note_on,,,,,64,0,16,,,,,7,,,45,100
9024,note_on,,,,,64,0,14,,,,,6,,,33,70
9024,note_on,,,,,0,0,15,,,,,7,,,65,100
9024,note_on,,,,,64,0,13,,,,,5,,,45,70
9088,note_off,,,,,256,0,12,,,,,4,,,57,100
9088,note_off,,,,,0,0,12,,,,,4,,,65,100
9136,note_off,,,,,688,0,9,,,,,1,,,72,100
9136,note_off,,,,,688,0,11,,,,,3,,,72,100
9152,note_off,,,,,128,0,13,,,,,5,,,45,100
9152,note_off,,,,,128,0,14,,,,,6,,,33,100
9152,note_off,,,,,128,0,15,,,,,7,,,60,100
9152,note_off,,,,,0,0,15,,,,,7,,,65,100
9152,note_off,,,,,128,0,16,,,,,7,,,45,100
9216,note_on,,,,,80,0,11,,,,,3,,,71,20
9216,note_on,,,,,80,0,9,,,,,1,,,71,70
9216,note_on,,,,,64,0,14,,,,,6,,,31,70
9216,note_on,,,,,64,0,16,,,,,7,,,43,100
9216,note_on,,,,,64,0,13,,,,,5,,,43,70
9216,note_on,,,,,0,0,12,,,,,4,,,62,70
9216,note_on,,,,,128,0,12,,,,,4,,,59,70
9216,note_on,,,,,64,0,15,,,,,7,,,59,100
9216,note_on,,,,,0,0,15,,,,,7,,,65,100
9344,note_off,,,,,128,0,13,,,,,5,,,43,100
9344,note_off,,,,,128,0,14,,,,,6,,,31,100
9344,note_off,,,,,0,0,15,,,,,7,,,65,100
9344,note_off,,,,,128,0,16,,,,,7,,,43,100
9344,note_off,,,,,128,0,15,,,,,7,,,59,100
9408,note_on,,,,,64,0,14,,,,,6,,,31,70
9408,note_on,,,,,0,0,15,,,,,7,,,65,100
9408,note_on,,,,,64,0,16,,,,,7,,,43,100
9408,note_on,,,,,64,0,15,,,,,7,,,59,100
9408,note_on,,,,,64,0,13,,,,,5,,,43,70
9472,note_off,,,,,0,0,12,,,,,4,,,62,100
9472,note_off,,,,,256,0,12,,,,,4,,,59,100
9520,note_off,,,,,688,0,8,,,,,0,,,77,100
9520,note_off,,,,,688,0,10,,,,,2,,,77,100
9536,note_off,,,,,128,0,14,,,,,6,,,31,100
9536,note_off,,,,,0,0,15,,,,,7,,,65,100
9536,note_off,,,,,128,0,13,,,,,5,,,43,100
9536,note_off,,,,,128,0,15,,,,,7,,,59,100
9536,note_off,,,,,128,0,16,,,,,7,,,43,100
9560,note_off,,,,,344,0,11,,,,,3,,,71,100
9560,note_off,,,,,344,0,9,,,,,1,,,71,100
9600,note_on,,,,,0,0,15,,,,,7,,,67,100
9600,note_on,,,,,64,0,15,,,,,7,,,64,100
9600,note_on,,,,,64,0,13,,,,,5,,,48,70
9600,note_on,,,,,64,0,16,,,,,7,,,48,100
9600,note_on,,,,,40,0,11,,,,,3,,,72,20
9600,note_on,,,,,128,0,12,,,,,4,,,55,70
9600,note_on,,,,,80,0,8,,,,,0,,,76,70
9600,note_on,,,,,0,0,12,,,,,4,,,64,70
9600,note_on,,,,,64,0,14,,,,,6,,,36,70
9600,note_on,,,,,80,0,10,,,,,2,,,76,20
9600,note_on,,,,,40,0,9,,,,,1,,,72,70
9728,note_off,,,,,0,0,15,,,,,7,,,67,100
9728,note_off,,,,,128,0,14,,,,,6,,,36,100
9728,note_off,,,,,128,0,16,,,,,7,,,48,100
9728,note_off,,,,,128,0,15,,,,,7,,,64,100
9728,note_off,,,,,128,0,13,,,,,5,,,48,100
9792,note_on,,,,,64,0,16,,,,,7,,,48,100
9792,note_on,,,,,64,0,15,,,,,7,,,64,100
9792,note_on,,,,,0,0,15,,,,,7,,,67,100
9792,note_on,,,,,64,0,14,,,,,6,,,36,70
9792,note_on,,,,,64,0,13,,,,,5,,,48,70
9856,note_off,,,,,0,0,12,,,,,4,,,64,100
9856,note_off,,,,,256,0,12,,,,,4,,,55,100
9920,note_off,,,,,128,0,14,,,,,6,,,36,100
9920,note_off,,,,,128,0,16,,,,,7,,,48,100
9920,note_off,,,,,0,0,15,,,,,7,,,67,100
9920,note_off,,,,,128,0,13,,,,,5,,,48,100
9920,note_off,,,,,128,0,15,,,,,7,,,64,100
9944,note_off,,,,,344,0,11,,,,,3,,,72,100
9944,note_off,,,,,344,0,9,,,,,1,,,72,100
9984,note_on,,,,,128,0,12,,,,,4,,,60,70
9984,note_on,,,,,64,0,13,,,,,5,,,45,70
9984,note_on,,,,,0,0,15,,,,,7,,,65,100
9984,note_on,,,,,64,0,14,,,,,6,,,33,70
9984,note_on,,,,,0,0,12,,,,,4,,,57,70
9984,note_on,,,,,64,0,16,,,,,7,,,45,100
9984,note_on,,,,,40,0,9,,,,,1,,,65,70
9984,note_on,,,,,40,0,11,,,,,3,,,65,20
9984,note_on,,,,,64,0,15,,,,,7,,,64,100
10112,note_off,,,,,128,0,14,,,,,6,,,33,100
10112,note_off,,,,,128,0,15,,,,,7,,,64,100
10112,note_off,,,,,128,0,13,,,,,5,,,45,100
10112,note_off,,,,,128,0,16,,,,,7,,,45,100
10112,note_off,,,,,0,0,15,,,,,7,,,65,100
10176,note_on,,,,,64,0,14,,,,,6,,,33,70
10176,note_on,,,,,64,0,13,,,,,5,,,45,70
10176,note_on,,,,,64,0,15,,,,,7,,,64,100
10176,note_on,,,,,64,0,16,,,,,7,,,45,100
10176,note_on,,,,,0,0,15,,,,,7,,,65,100
10240,note_off,,,,,256,0,12,,,,,4,,,57,100
10288,note_off,,,,,688,0,10,,,,,2,,,76,100
10288,note_off,,,,,688,0,8,,,,,0,,,76,100
10304,note_off,,,,,0,0,15,,,,,7,,,65,100
10304,note_off,,,,,128,0,15,,,,,7,,,64,100
10304,note_off,,,,,128,0,13,,,,,5,,,45,100
10304,note_off,,,,,128,0,16,,,,,7,,,45,100
10304,note_off,,,,,128,0,14,,,,,6,,,33,100
10368,note_on,,,,,80,0,10,,,,,2,,,75,20
10368,note_on,,,,,64,0,16,,,,,7,,,45,100
10368,note_on,,,,,0,0,15,,,,,7,,,65,100
10368,note_on,,,,,64,0,15,,,,,7,,,63,100
10368,note_on,,,,,80,0,8,,,,,0,,,75,70
10368,note_on,,,,,64,0,13,,,,,5,,,45,70
10368,note_on,,,,,64,0,14,,,,,6,,,33,70
10496,note_off,,,,,128,0,13,,,,,5,,,45,100
10496,note_off,,,,,0,0,15,,,,,7,,,65,100
10496,note_off,,,,,128,0,15,,,,,7,,,63,100
10496,note_off,,,,,128,0,16,,,,,7,,,45,100
10496,note_off,,,,,128,0,14,,,,,6,,,33,100
10560,note_on,,,,,64,0,15,,,,,7,,,63,100
10560,note_on,,,,,0,0,15,,,,,7,,,65,100
10560,note_on,,,,,64,0,16,,,,,7,,,45,100
10560,note_on,,,,,64,0,13,,,,,5,,,45,70
10560,note_on,,,,,64,0,14,,,,,6,,,33,70
10688,note_off,,,,,128,0,13,,,,,5,,,45,100
10688,note_off,,,,,128,0,15,,,,,7,,,63,100
10688,note_off,,,,,0,0,15,,,,,7,,,65,100
10688,note_off,,,,,128,0,14,,,,,6,,,33,100
10688,note_off,,,,,128,0,16,,,,,7,,,45,100
10752,note_on,,,,,0,0,15,,,,,7,,,65,100
10752,note_on,,,,,64,0,16,,,,,7,,,46,100
10752,note_on,,,,,64,0,14,,,,,6,,,34,70
10752,note_on,,,,,64,0,15,,,,,7,,,63,100
10752,note_on,,,,,64,0,13,,,,,5,,,46,70
10880,note_off,,,,,128,0,15,,,,,7,,,63,100
10880,note_off,,,,,0,0,15,,,,,7,,,65,100
10880,note_off,,,,,128,0,16,,,,,7,,,46,100
10880,note_off,,,,,128,0,14,,,,,6,,,34,100
10880,note_off,,,,,128,0,13,,,,,5,,,46,100
10944,note_on,,,,,64,0,15,,,,,7,,,63,100
10944,note_on,,,,,0,0,15,,,,,7,,,65,100
10944,note_on,,,,,64,0,16,,,,,7,,,46,100
10944,note_on,,,,,64,0,13,,,,,5,,,46,70
10944,note_on,,,,,64,0,14,,,,,6,,,34,70
11020,note_off,,,,,780,0,12,,,,,4,,,60,100
11056,note_off,,,,,688,0,8,,,,,0,,,75,64
11056,note_off,,,,,688,0,10,,,,,2,,,75,64
11072,note_off,,,,,128,0,13,,,,,5,,,46,100
11072,note_off,,,,,128,0,16,,,,,7,,,46,100
11072,note_off,,,,,0,0,15,,,,,7,,,65,100
11072,note_off,,,,,128,0,15,,,,,7,,,63,100
11072,note_off,,,,,128,0,14,,,,,6,,,34,100
11136,note_on,,,,,80,0,8,,,,,0,,,74,70
11136,note_on,,,,,80,0,10,,,,,2,,,74,20
11136,note_on,,,,,64,0,13,,,,,5,,,46,70
11136,note_on,,,,,64,0,16,,,,,7,,,46,100
11136,note_on,,,,,64,0,15,,,,,7,,,62,100
11136,note_on,,,,,64,0,14,,,,,6,,,34,70
11136,note_on,,,,,116,0,12,,,,,4,,,58,70
11136,note_on,,,,,0,0,15,,,,,7,,,65,100
11264,note_off,,,,,128,0,15,,,,,7,,,62,100
11264,note_off,,,,,0,0,15,,,,,7,,,65,100
11264,note_off,,,,,128,0,13,,,,,5,,,46,100
11264,note_off,,,,,128,0,16,,,,,7,,,46,100
11264,note_off,,,,,128,0,14,,,,,6,,,34,100
11328,note_on,,,,,0,0,15,,,,,7,,,62,100
11328,note_on,,,,,64,0,14,,,,,6,,,34,70
11328,note_on,,,,,64,0,15,,,,,7,,,65,100
11328,note_on,,,,,64,0,13,,,,,5,,,46,70
11328,note_on,,,,,64,0,16,,,,,7,,,46,100
11364,note_off,,,,,1380,0,9,,,,,1,,,65,64
11364,note_off,,,,,1380,0,11,,,,,3,,,65,100
11456,note_off,,,,,128,0,16,,,,,7,,,46,100
11456,note_off,,,,,0,0,15,,,,,7,,,62,100
11456,note_off,,,,,128,0,15,,,,,7,,,65,100
11456,note_off,,,,,128,0,14,,,,,6,,,34,100
11456,note_off,,,,,128,0,13,,,,,5,,,46,100
11520,note_on,,,,,156,0,11,,,,,3,,,63,20
11520,note_on,,,,,64,0,13,,,,,5,,,43,70
11520,note_on,,,,,0,0,15,,,,,7,,,63,100
11520,note_on,,,,,64,0,16,,,,,7,,,43,100
11520,note_on,,,,,64,0,15,,,,,7,,,62,100
11520,note_on,,,,,156,0,9,,,,,1,,,63,70
11520,note_on,,,,,64,0,14,,,,,6,,,31,70
11648,note_off,,,,,0,0,15,,,,,7,,,63,100
11648,note_off,,,,,128,0,14,,,,,6,,,31,100
11648,note_off,,,,,128,0,13,,,,,5,,,43,100
11648,note_off,,,,,128,0,16,,,,,7,,,43,100
11648,note_off,,,,,128,0,15,,,,,7,,,62,100
11712,note_on,,,,,64,0,15,,,,,7,,,62,100
11712,note_on,,,,,64,0,13,,,,,5,,,43,70
11712,note_on,,,,,0,0,15,,,,,7,,,63,100
11712,note_on,,,,,64,0,14,,,,,6,,,31,70
11712,note_on,,,,,64,0,16,,,,,7,,,43,100
11824,note_off,,,,,688,0,10,,,,,2,,,74,100
11824,note_off,,,,,688,0,12,,,,,4,,,58,100
11824,note_off,,,,,688,0,8,,,,,0,,,74,100
11840,note_off,,,,,0,0,15,,,,,7,,,63,100
11840,note_off,,,,,128,0,14,,,,,6,,,31,100
11840,note_off,,,,,128,0,15,,,,,7,,,62,100
11840,note_off,,,,,128,0,13,,,,,5,,,43,100
11840,note_off,,,,,128,0,16,,,,,7,,,43,100
11904,note_on,,,,,64,0,13,,,,,5,,,43,70
11904,note_on,,,,,80,0,10,,,,,2,,,73,20
11904,note_on,,,,,80,0,12,,,,,4,,,58,70
11904,note_on,,,,,0,0,15,,,,,7,,,63,100
11904,note_on,,,,,80,0,8,,,,,0,,,73,70
11904,note_on,,,,,64,0,14,,,,,6,,,31,70
11904,note_on,,,,,64,0,16,,,,,7,,,43,100
11904,note_on,,,,,64,0,15,,,,,7,,,61,100
12032,note_off,,,,,0,0,15,,,,,7,,,63,100
12032,note_off,,,,,128,0,15,,,,,7,,,61,100
12032,note_off,,,,,128,0,14,,,,,6,,,31,100
12032,note_off,,,,,128,0,13,,,,,5,,,43,100
12032,note_off,,,,,128,0,16,,,,,7,,,43,100
12096,note_on,,,,,0,0,15,,,,,7,,,63,100
12096,note_on,,,,,64,0,15,,,,,7,,,61,100
12096,note_on,,,,,64,0,14,,,,,6,,,31,70
12096,note_on,,,,,64,0,13,,,,,5,,,43,70
12096,note_on,,,,,64,0,16,,,,,7,,,43,100
12224,note_off,,,,,128,0,14,,,,,6,,,31,100
12224,note_off,,,,,128,0,15,,,,,7,,,61,100
12224,note_off,,,,,0,0,15,,,,,7,,,63,100
12224,note_off,,,,,128,0,13,,,,,5,,,43,100
12224,note_off,,,,,128,0,16,,,,,7,,,43,100
12288,note_on,,,,,64,0,16,,,,,7,,,44,100
12288,note_on,,,,,64,0,13,,,,,5,,,44,70
12288,note_on,,,,,64,0,15,,,,,7,,,61,100
12288,note_on,,,,,0,0,15,,,,,7,,,63,100
12288,note_on,,,,,64,0,14,,,,,6,,,32,70
12416,note_off,,,,,128,0,13,,,,,5,,,44,100
12416,note_off,,,,,128,0,16,,,,,7,,,44,100
12416,note_off,,,,,128,0,15,,,,,7,,,61,100
12416,note_off,,,,,0,0,15,,,,,7,,,63,100
12416,note_off,,,,,128,0,14,,,,,6,,,32,100
12480,note_on,,,,,0,0,15,,,,,7,,,63,100
12480,note_on,,,,,64,0,14,,,,,6,,,32,70
12480,note_on,,,,,64,0,16,,,,,7,,,44,100
12480,note_on,,,,,64,0,13,,,,,5,,,44,70
12480,note_on,,,,,64,0,15,,,,,7,,,61,100
12592,note_off,,,,,688,0,8,,,,,0,,,73,64
12592,note_off,,,,,688,0,12,,,,,4,,,58,100
12592,note_off,,,,,688,0,10,,,,,2,,,73,64
12608,note_off,,,,,128,0,15,,,,,7,,,61,100
12608,note_off,,,,,0,0,15,,,,,7,,,63,100
12608,note_off,,,,,128,0,14,,,,,6,,,32,100
12608,note_off,,,,,128,0,13,,,,,5,,,44,100
12608,note_off,,,,,128,0,16,,,,,7,,,44,100
12672,note_on,,,,,64,0,15,,,,,7,,,60,100
12672,note_on,,,,,0,0,15,,,,,7,,,63,100
12672,note_on,,,,,64,0,16,,,,,7,,,44,100
12672,note_on,,,,,80,0,8,,,,,0,,,72,70
12672,note_on,,,,,80,0,12,,,,,4,,,56,70
12672,note_on,,,,,64,0,14,,,,,6,,,32,70
12672,note_on,,,,,64,0,13,,,,,5,,,44,70
12672,note_on,,,,,80,0,10,,,,,2,,,72,20
12800,note_off,,,,,128,0,13,,,,,5,,,44,100
12800,note_off,,,,,128,0,14,,,,,6,,,32,100
12800,note_off,,,,,128,0,15,,,,,7,,,60,100
12800,note_off,,,,,0,0,15,,,,,7,,,63,100
12800,note_off,,,,,128,0,16,,,,,7,,,44,100
12864,note_on,,,,,64,0,15,,,,,7,,,60,100
12864,note_on,,,,,64,0,13,,,,,5,,,44,70
12864,note_on,,,,,64,0,14,,,,,6,,,32,70
12864,note_on,,,,,0,0,15,,,,,7,,,63,100
12864,note_on,,,,,64,0,16,,,,,7,,,44,100
12900,note_off,,,,,1380,0,9,,,,,1,,,63,64
12900,note_off,,,,,1380,0,11,,,,,3,,,63,100
12992,note_off,,,,,128,0,13,,,,,5,,,44,100
12992,note_off,,,,,128,0,14,,,,,6,,,32,100
12992,note_off,,,,,128,0,16,,,,,7,,,44,100
12992,note_off,,,,,128,0,15,,,,,7,,,60,100
12992,note_off,,,,,0,0,15,,,,,7,,,63,100
13056,note_on,,,,,64,0,16,,,,,7,,,49,100
13056,note_on,,,,,0,0,15,,,,,7,,,60,100
13056,note_on,,,,,64,0,15,,,,,7,,,68,100
13056,note_on,,,,,64,0,14,,,,,6,,,37,70
13056,note_on,,,,,156,0,9,,,,,1,,,65,70
13056,note_on,,,,,64,0,13,,,,,5,,,49,70
13056,note_on,,,,,156,0,11,,,,,3,,,65,20
13184,note_off,,,,,128,0,16,,,,,7,,,49,100
13184,note_off,,,,,128,0,13,,,,,5,,,49,100
13184,note_off,,,,,128,0,14,,,,,6,,,37,100
13184,note_off,,,,,0,0,15,,,,,7,,,60,100
13184,note_off,,,,,128,0,15,,,,,7,,,68,100
13248,note_on,,,,,64,0,15,,,,,7,,,60,100
13248,note_on,,,,,64,0,13,,,,,5,,,49,70
13248,note_on,,,,,64,0,14,,,,,6,,,37,70
13248,note_on,,,,,64,0,16,,,,,7,,,49,100
13248,note_on,,,,,0,0,15,,,,,7,,,68,100
13360,note_off,,,,,688,0,10,,,,,2,,,72,100
13360,note_off,,,,,688,0,12,,,,,4,,,56,100
13360,note_off,,,,,688,0,8,,,,,0,,,72,100
13376,note_off,,,,,128,0,13,,,,,5,,,49,100
13376,note_off,,,,,128,0,14,,,,,6,,,37,100
13376,note_off,,,,,128,0,16,,,,,7,,,49,100
13376,note_off,,,,,128,0,15,,,,,7,,,60,100
13376,note_off,,,,,0,0,15,,,,,7,,,68,100
13440,note_on,,,,,80,0,12,,,,,4,,,55,70
13440,note_on,,,,,0,0,15,,,,,7,,,65,100
13440,note_on,,,,,80,0,10,,,,,2,,,70,20
13440,note_on,,,,,64,0,13,,,,,5,,,49,70
13440,note_on,,,,,64,0,14,,,,,6,,,37,70
13440,note_on,,,,,64,0,16,,,,,7,,,49,100
13440,note_on,,,,,80,0,8,,,,,0,,,70,70
13440,note_on,,,,,64,0,15,,,,,7,,,58,100
13568,note_off,,,,,128,0,15,,,,,7,,,58,100
13568,note_off,,,,,128,0,13,,,,,5,,,49,100
13568,note_off,,,,,0,0,15,,,,,7,,,65,100
13568,note_off,,,,,128,0,16,,,,,7,,,49,100
13568,note_off,,,,,128,0,14,,,,,6,,,37,100
13612,note_off,,,,,172,0,12,,,,,4,,,55,100
13632,note_on,,,,,64,0,13,,,,,5,,,49,70
13632,note_on,,,,,64,0,16,,,,,7,,,49,100
13632,note_on,,,,,64,0,14,,,,,6,,,37,70
13632,note_on,,,,,0,0,15,,,,,7,,,65,100
13632,note_on,,,,,64,0,15,,,,,7,,,58,100
13632,note_on,,,,,20,0,12,,,,,4,,,53,70
13744,note_off,,,,,688,0,11,,,,,3,,,65,100
13744,note_off,,,,,688,0,9,,,,,1,,,65,100
13760,note_off,,,,,128,0,16,,,,,7,,,49,100
13760,note_off,,,,,0,0,15,,,,,7,,,65,100
13760,note_off,,,,,128,0,15,,,,,7,,,58,100
13760,note_off,,,,,128,0,13,,,,,5,,,49,100
13760,note_off,,,,,128,0,14,,,,,6,,,37,100
13804,note_off,,,,,172,0,12,,,,,4,,,53,100
13824,note_on,,,,,64,0,14,,,,,6,,,36,70
13824,note_on,,,,,20,0,12,,,,,4,,,55,70
13824,note_on,,,,,64,0,13,,,,,5,,,48,70
13824,note_on,,,,,80,0,11,,,,,3,,,64,20
13824,note_on,,,,,64,0,16,,,,,7,,,48,100
13824,note_on,,,,,64,0,15,,,,,7,,,58,100
13824,note_on,,,,,0,0,15,,,,,7,,,64,100
13824,note_on,,,,,80,0,9,,,,,1,,,64,70
13952,note_off,,,,,0,0,15,,,,,7,,,64,100
13952,note_off,,,,,128,0,16,,,,,7,,,48,100
13952,note_off,,,,,128,0,15,,,,,7,,,58,100
13952,note_off,,,,,128,0,13,,,,,5,,,48,100
13952,note_off,,,,,128,0,14,,,,,6,,,36,100
14016,note_on,,,,,0,0,15,,,,,7,,,64,100
14016,note_on,,,,,64,0,16,,,,,7,,,48,100
14016,note_on,,,,,64,0,15,,,,,7,,,58,100
14016,note_on,,,,,64,0,13,,,,,5,,,48,70
14016,note_on,,,,,64,0,14,,,,,6,,,36,70
14128,note_off,,,,,688,0,8,,,,,0,,,70,64
14128,note_off,,,,,688,0,10,,,,,2,,,70,64
14144,note_off,,,,,128,0,13,,,,,5,,,48,100
14144,note_off,,,,,128,0,15,,,,,7,,,58,100
14144,note_off,,,,,0,0,15,,,,,7,,,64,100
14144,note_off,,,,,128,0,16,,,,,7,,,48,100
14144,note_off,,,,,128,0,14,,,,,6,,,36,100
14168,note_off,,,,,344,0,9,,,,,1,,,64,100
14168,note_off,,,,,344,0,11,,,,,3,,,64,100
14168,note_off,,,,,344,0,12,,,,,4,,,55,100
14208,note_on,,,,,80,0,8,,,,,0,,,68,70
14208,note_on,,,,,64,0,16,,,,,7,,,48,100
14208,note_on,,,,,40,0,11,,,,,3,,,65,20
14208,note_on,,,,,64,0,15,,,,,7,,,68,100
14208,note_on,,,,,0,0,15,,,,,7,,,65,100
14208,note_on,,,,,80,0,10,,,,,2,,,68,20
14208,note_on,,,,,64,0,14,,,,,6,,,36,70
14208,note_on,,,,,40,0,12,,,,,4,,,56,70
14208,note_on,,,,,64,0,13,,,,,5,,,48,70
14208,note_on,,,,,40,0,9,,,,,1,,,65,70
14336,note_off,,,,,128,0,15,,,,,7,,,68,100
14336,note_off,,,,,128,0,16,,,,,7,,,48,100
14336,note_off,,,,,128,0,14,,,,,6,,,36,100
14336,note_off,,,,,128,0,13,,,,,5,,,48,100
14336,note_off,,,,,0,0,15,,,,,7,,,65,100
14380,note_off,,,,,172,0,12,,,,,4,,,56,100
14400,note_on,,,,,64,0,16,,,,,7,,,48,100
14400,note_on,,,,,64,0,14,,,,,6,,,36,70
14400,note_on,,,,,64,0,13,,,,,5,,,48,70
14400,note_on,,,,,64,0,15,,,,,7,,,68,100
14400,note_on,,,,,20,0,12,,,,,4,,,58,70
14400,note_on,,,,,0,0,15,,,,,7,,,65,100
14464,note_off,,,,,256,0,10,,,,,2,,,68,100
14464,note_off,,,,,256,0,8,,,,,0,,,68,100
14528,note_off,,,,,0,0,15,,,,,7,,,65,100
14528,note_off,,,,,128,0,13,,,,,5,,,48,100
14528,note_off,,,,,128,0,16,,,,,7,,,48,100
14528,note_off,,,,,128,0,15,,,,,7,,,68,100
14528,note_off,,,,,128,0,14,,,,,6,,,36,100
14572,note_off,,,,,172,0,12,,,,,4,,,58,100
14592,note_on,,,,,64,0,15,,,,,7,,,65,100
14592,note_on,,,,,20,0,12,,,,,4,,,60,70
14592,note_on,,,,,128,0,10,,,,,2,,,67,20
14592,note_on,,,,,64,0,14,,,,,6,,,36,70
14592,note_on,,,,,128,0,8,,,,,0,,,67,70
14592,note_on,,,,,64,0,13,,,,,5,,,48,70
14592,note_on,,,,,0,0,15,,,,,7,,,67,100
14592,note_on,,,,,64,0,16,,,,,7,,,48,100
14720,note_off,,,,,128,0,15,,,,,7,,,65,100
14720,note_off,,,,,128,0,13,,,,,5,,,48,100
14720,note_off,,,,,0,0,15,,,,,7,,,67,100
14720,note_off,,,,,128,0,14,,,,,6,,,36,100
14720,note_off,,,,,128,0,16,,,,,7,,,48,100
14784,note_on,,,,,64,0,14,,,,,6,,,36,70
14784,note_on,,,,,0,0,15,,,,,7,,,67,100
14784,note_on,,,,,64,0,15,,,,,7,,,65,100
14784,note_on,,,,,64,0,13,,,,,5,,,48,70
14784,note_on,,,,,64,0,16,,,,,7,,,48,100
14896,note_off,,,,,688,0,9,,,,,1,,,65,100
14896,note_off,,,,,688,0,11,,,,,3,,,65,100
14912,note_off,,,,,0,0,15,,,,,7,,,67,100
14912,note_off,,,,,128,0,15,,,,,7,,,65,100
14912,note_off,,,,,128,0,13,,,,,5,,,48,100
14912,note_off,,,,,128,0,14,,,,,6,,,36,100
14912,note_off,,,,,128,0,16,,,,,7,,,48,100
14976,note_on,,,,,64,0,14,,,,,6,,,36,70
14976,note_on,,,,,64,0,13,,,,,5,,,48,70
14976,note_on,,,,,64,0,15,,,,,7,,,64,100
14976,note_on,,,,,64,0,16,,,,,7,,,48,100
14976,note_on,,,,,80,0,9,,,,,1,,,64,70
14976,note_on,,,,,0,0,15,,,,,7,,,67,100
14976,note_on,,,,,80,0,11,,,,,3,,,64,20
15104,note_off,,,,,128,0,16,,,,,7,,,48,100
15104,note_off,,,,,128,0,13,,,,,5,,,48,100
15104,note_off,,,,,0,0,15,,,,,7,,,67,100
15104,note_off,,,,,128,0,15,,,,,7,,,64,100
15104,note_off,,,,,128,0,14,,,,,6,,,36,100
15108,note_off,,,,,516,0,12,,,,,4,,,60,100
15168,note_on,,,,,64,0,16,,,,,7,,,48,100
15168,note_on,,,,,0,0,15,,,,,7,,,64,100
15168,note_on,,,,,64,0,14,,,,,6,,,36,70
15168,note_on,,,,,60,0,12,,,,,4,,,58,70
15168,note_on,,,,,64,0,15,,,,,7,,,67,100
15168,note_on,,,,,64,0,13,,,,,5,,,48,70
15280,note_off,,,,,688,0,10,,,,,2,,,67,100
15280,note_off,,,,,688,0,8,,,,,0,,,67,100
15296,note_off,,,,,0,0,15,,,,,7,,,64,100
15296,note_off,,,,,128,0,15,,,,,7,,,67,100
15296,note_off,,,,,128,0,16,,,,,7,,,48,100
15296,note_off,,,,,128,0,14,,,,,6,,,36,100
15296,note_off,,,,,128,0,13,,,,,5,,,48,100
15320,note_off,,,,,344,0,9,,,,,1,,,64,100
15320,note_off,,,,,344,0,11,,,,,3,,,64,100
15340,note_off,,,,,172,0,12,,,,,4,,,58,100
15360,note_on,,,,,40,0,11,,,,,3,,,65,20
15360,note_on,,,,,40,0,9,,,,,1,,,65,70
15360,note_on,,,,,64,0,15,,,,,7,,,65,100
15360,note_on,,,,,20,0,12,,,,,4,,,56,70
15360,note_on,,,,,80,0,8,,,,,0,,,68,70
15360,note_on,,,,,64,0,14,,,,,6,,,36,70
15360,note_on,,,,,64,0,13,,,,,5,,,48,70
15360,note_on,,,,,80,0,10,,,,,2,,,68,20
15360,note_on,,,,,64,0,16,,,,,7,,,48,100
15360,note_on,,,,,0,0,15,,,,,7,,,68,100
15488,note_off,,,,,128,0,14,,,,,6,,,36,100
15488,note_off,,,,,0,0,15,,,,,7,,,68,100
15488,note_off,,,,,128,0,15,,,,,7,,,65,100
15488,note_off,,,,,128,0,16,,,,,7,,,48,100
15488,note_off,,,,,128,0,13,,,,,5,,,48,100
15552,note_on,,,,,64,0,13,,,,,5,,,48,70
15552,note_on,,,,,64,0,14,,,,,6,,,36,70
15552,note_on,,,,,0,0,15,,,,,7,,,68,100
15552,note_on,,,,,64,0,15,,,,,7,,,65,100
15552,note_on,,,,,64,0,16,,,,,7,,,48,100
15680,note_off,,,,,128,0,16,,,,,7,,,48,100
15680,note_off,,,,,128,0,13,,,,,5,,,48,100
15680,note_off,,,,,0,0,15,,,,,7,,,68,100
15680,note_off,,,,,128,0,14,,,,,6,,,36,100
15680,note_off,,,,,128,0,15,,,,,7,,,65,100
15744,note_on,,,,,64,0,15,,,,,7,,,65,100
15744,note_on,,,,,0,0,15,,,,,7,,,68,100
15744,note_on,,,,,64,0,13,,,,,5,,,48,70
15744,note_on,,,,,64,0,14,,,,,6,,,36,70
15744,note_on,,,,,64,0,16,,,,,7,,,48,100
15872,note_off,,,,,128,0,13,,,,,5,,,48,100
15872,note_off,,,,,128,0,16,,,,,7,,,48,100
15872,note_off,,,,,128,0,14,,,,,6,,,36,100
15872,note_off,,,,,0,0,15,,,,,7,,,68,100
15872,note_off,,,,,128,0,15,,,,,7,,,65,100
15876,note_off,,,,,516,0,12,,,,,4,,,56,100
15936,note_on,,,,,64,0,13,,,,,5,,,48,70
15936,note_on,,,,,64,0,15,,,,,7,,,65,100
15936,note_on,,,,,60,0,12,,,,,4,,,58,70
15936,note_on,,,,,64,0,14,,,,,6,,,36,70
15936,note_on,,,,,0,0,15,,,,,7,,,68,100
15936,note_on,,,,,64,0,16,,,,,7,,,48,100
16048,note_off,,,,,688,0,10,,,,,2,,,68,100
16048,note_off,,,,,688,0,8,,,,,0,,,68,100
16064,note_off,,,,,128,0,16,,,,,7,,,48,100
16064,note_off,,,,,128,0,14,,,,,6,,,36,100
16064,note_off,,,,,128,0,15,,,,,7,,,65,100
16064,note_off,,,,,0,0,15,,,,,7,,,68,100
16064,note_off,,,,,128,0,13,,,,,5,,,48,100
16108,note_off,,,,,172,0,12,,,,,4,,,58,100
16128,note_on,,,,,64,0,14,,,,,6,,,36,70
16128,note_on,,,,,20,0,12,,,,,4,,,60,70
16128,note_on,,,,,64,0,16,,,,,7,,,48,100
16128,note_on,,,,,80,0,10,,,,,2,,,67,20
16128,note_on,,,,,64,0,13,,,,,5,,,48,70
16128,note_on,,,,,64,0,15,,,,,7,,,65,100
16128,note_on,,,,,0,0,15,,,,,7,,,67,100
16128,note_on,,,,,80,0,8,,,,,0,,,67,70
16256,note_off,,,,,128,0,15,,,,,7,,,65,100
16256,note_off,,,,,128,0,14,,,,,6,,,36,100
16256,note_off,,,,,128,0,13,,,,,5,,,48,100
16256,note_off,,,,,0,0,15,,,,,7,,,67,100
16256,note_off,,,,,128,0,16,,,,,7,,,48,100
16320,note_on,,,,,64,0,14,,,,,6,,,36,70
16320,note_on,,,,,64,0,15,,,,,7,,,65,100
16320,note_on,,,,,0,0,15,,,,,7,,,67,100
16320,note_on,,,,,64,0,16,,,,,7,,,48,100
16320,note_on,,,,,64,0,13,,,,,5,,,48,70
16396,note_off,,,,,1036,0,11,,,,,3,,,65,100
16396,note_off,,,,,1036,0,9,,,,,1,,,65,100
16448,note_off,,,,,128,0,13,,,,,5,,,48,100
16448,note_off,,,,,128,0,16,,,,,7,,,48,100
16448,note_off,,,,,128,0,15,,,,,7,,,65,100
16448,note_off,,,,,128,0,14,,,,,6,,,36,100
16448,note_off,,,,,0,0,15,,,,,7,,,67,100
16512,note_on,,,,,116,0,11,,,,,3,,,64,20
16512,note_on,,,,,64,0,13,,,,,5,,,48,70
16512,note_on,,,,,64,0,16,,,,,7,,,48,100
16512,note_on,,,,,116,0,9,,,,,1,,,64,70
16512,note_on,,,,,64,0,14,,,,,6,,,36,70
16512,note_on,,,,,0,0,15,,,,,7,,,67,100
16512,note_on,,,,,64,0,15,,,,,7,,,64,100
16640,note_off,,,,,128,0,14,,,,,6,,,36,100
16640,note_off,,,,,128,0,13,,,,,5,,,48,100
16640,note_off,,,,,128,0,16,,,,,7,,,48,100
16640,note_off,,,,,0,0,15,,,,,7,,,67,100
16640,note_off,,,,,128,0,15,,,,,7,,,64,100
16704,note_on,,,,,0,0,15,,,,,7,,,67,100
16704,note_on,,,,,64,0,15,,,,,7,,,64,100
16704,note_on,,,,,64,0,14,,,,,6,,,36,70
16704,note_on,,,,,64,0,16,,,,,7,,,48,100
16704,note_on,,,,,64,0,13,,,,,5,,,48,70
16816,note_off,,,,,688,0,8,,,,,0,,,67,100
16816,note_off,,,,,688,0,10,,,,,2,,,67,100
16816,note_off,,,,,688,0,12,,,,,4,,,60,100
16832,note_off,,,,,128,0,13,,,,,5,,,48,100
16832,note_off,,,,,128,0,16,,,,,7,,,48,100
16832,note_off,,,,,128,0,15,,,,,7,,,64,100
16832,note_off,,,,,128,0,14,,,,,6,,,36,100
16832,note_off,,,,,0,0,15,,,,,7,,,67,100
16856,note_off,,,,,344,0,9,,,,,1,,,64,100
16856,note_off,,,,,344,0,11,,,,,3,,,64,100
16896,note_on,,,,,64,0,16,,,,,7,,,49,100
16896,note_on,,,,,80,0,12,,,,,4,,,65,70
16896,note_on,,,,,80,0,8,,,,,0,,,71,70
16896,note_on,,,,,40,0,11,,,,,3,,,65,20
16896,note_on,,,,,80,0,10,,,,,2,,,71,20
16896,note_on,,,,,40,0,9,,,,,1,,,65,70
16896,note_on,,,,,64,0,13,,,,,5,,,49,70
16896,note_on,,,,,64,0,14,,,,,6,,,37,70
16896,note_on,,,,,64,0,15,,,,,7,,,71,100
16896,note_on,,,,,0,0,15,,,,,7,,,65,100
16896,set_tempo,,,,,16896,1,0,,1000000,,,,,,,
16944,set_tempo,,,,,48,1,0,,1016949,,,,,,,
16996,set_tempo,,,,,52,1,0,,1034482,,,,,,,
17024,note_off,,,,,128,0,14,,,,,6,,,37,100
17024,note_off,,,,,128,0,16,,,,,7,,,49,100
17024,note_off,,,,,128,0,13,,,,,5,,,49,100
17024,note_off,,,,,0,0,15,,,,,7,,,65,100
17024,note_off,,,,,128,0,15,,,,,7,,,71,100
17048,set_tempo,,,,,52,1,0,,1052631,,,,,,,
17088,note_on,,,,,64,0,13,,,,,5,,,49,70
17088,note_on,,,,,64,0,16,,,,,7,,,49,100
17088,note_on,,,,,0,0,15,,,,,7,,,71,100
17088,note_on,,,,,64,0,14,,,,,6,,,37,70
17088,note_on,,,,,64,0,15,,,,,7,,,65,100
17100,set_tempo,,,,,52,1,0,,1071428,,,,,,,
17152,set_tempo,,,,,52,1,0,,1090909,,,,,,,
17200,set_tempo,,,,,48,1,0,,1111111,,,,,,,
17216,note_off,,,,,0,0,15,,,,,7,,,71,100
17216,note_off,,,,,128,0,15,,,,,7,,,65,100
17216,note_off,,,,,128,0,14,,,,,6,,,37,100
17216,note_off,,,,,128,0,16,,,,,7,,,49,100
17216,note_off,,,,,128,0,13,,,,,5,,,49,100
17252,set_tempo,,,,,52,1,0,,1132075,,,,,,,
17280,note_on,,,,,64,0,15,,,,,7,,,65,100
17280,note_off,,,,,384,0,10,,,,,2,,,71,100
17280,note_on,,,,,64,0,16,,,,,7,,,49,100
17280,note_off,,,,,384,0,8,,,,,0,,,71,100
17280,note_off,,,,,384,0,11,,,,,3,,,65,100
17280,note_on,,,,,64,0,14,,,,,6,,,37,70
17280,note_off,,,,,384,0,9,,,,,1,,,65,100
17280,note_on,,,,,0,0,15,,,,,7,,,71,100
17280,note_on,,,,,64,0,13,,,,,5,,,49,70
17304,set_tempo,,,,,52,1,0,,1153846,,,,,,,
17356,set_tempo,,,,,52,1,0,,1176470,,,,,,,
17408,note_off,,,,,128,0,15,,,,,7,,,65,100
17408,set_tempo,,,,,52,1,0,,1200000,,,,,,,
17408,note_off,,,,,128,0,13,,,,,5,,,49,100
17408,note_off,,,,,512,0,12,,,,,4,,,65,100
17408,note_off,,,,,0,0,15,,,,,7,,,71,100
17408,note_off,,,,,128,0,14,,,,,6,,,37,100
17408,note_off,,,,,128,0,16,,,,,7,,,49,100
17456,set_tempo,,,,,48,1,0,,1224489,,,,,,,
17472,note_on,,,,,64,0,13,,,,,5,,,49,70
17472,note_on,,,,,0,0,15,,,,,7,,,71,100
17472,note_on,,,,,64,0,15,,,,,7,,,65,100
17472,note_on,,,,,64,0,14,,,,,6,,,37,70
17472,note_on,,,,,64,0,16,,,,,7,,,49,100
17472,note_on,,,,,192,0,8,,,,,0,,,72,70
17472,note_on,,,,,192,0,10,,,,,2,,,72,20
17472,note_on,,,,,192,0,11,,,,,3,,,67,20
17472,note_on,,,,,192,0,9,,,,,1,,,67,70
17508,set_tempo,,,,,52,1,0,,1250000,,,,,,,
17560,set_tempo,,,,,52,1,0,,1276595,,,,,,,
17600,note_off,,,,,128,0,13,,,,,5,,,49,100
17600,note_off,,,,,128,0,9,,,,,1,,,67,100
17600,note_off,,,,,128,0,10,,,,,2,,,72,100
17600,note_off,,,,,128,0,16,,,,,7,,,49,100
17600,note_off,,,,,128,0,15,,,,,7,,,65,100
17600,note_off,,,,,0,0,15,,,,,7,,,71,100
17600,note_off,,,,,128,0,11,,,,,3,,,67,100
17600,note_off,,,,,128,0,8,,,,,0,,,72,100
17600,note_off,,,,,128,0,14,,,,,6,,,37,100
17612,set_tempo,,,,,52,1,0,,1304347,,,,,,,
17664,note_on,,,,,64,0,9,,,,,1,,,67,70
17664,note_on,,,,,64,0,16,,,,,7,,,48,100
17664,note_on,,,,,64,0,8,,,,,0,,,72,70
17664,note_on,,,,,64,0,10,,,,,2,,,72,20
17664,set_tempo,,,,,52,1,0,,1333333,,,,,,,
17664,note_on,,,,,256,0,12,,,,,4,,,64,70
17664,note_on,,,,,64,0,14,,,,,6,,,36,70
17664,note_on,,,,,64,0,13,,,,,5,,,48,70
17664,note_on,,,,,64,0,11,,,,,3,,,67,20
17692,note_on,,,,,92,0,15,,,,,7,,,64,100
17724,note_on,,,,,32,0,15,,,,,7,,,67,100
17756,note_on,,,,,32,0,15,,,,,7,,,72,100
18176,note_off,,,,,512,0,14,,,,,6,,,36,100
18176,note_off,,,,,512,0,9,,,,,1,,,67,100
18176,note_off,,,,,512,0,10,,,,,2,,,72,100
18176,note_off,,,,,512,0,12,,,,,4,,,64,100
18176,note_off,,,,,512,0,13,,,,,5,,,48,100
18176,note_off,,,,,512,0,16,,,,,7,,,48,100
18176,note_off,,,,,512,0,8,,,,,0,,,72,100
18176,note_off,,,,,512,0,11,,,,,3,,,67,100
18204,note_off,,,,,448,0,15,,,,,7,,,64,100
18236,note_off,,,,,32,0,15,,,,,7,,,67,100
18268,note_off,,,,,32,0,15,,,,,7,,,72,100
18424,program_change,,,,,248,0,8,,,,,0,40,,,
18424,program_change,,,,,248,0,9,,,,,1,40,,,
18432,set_tempo,,,,,768,1,0,,500000,,,,,,,
18432,note_on,,,,,8,0,8,,,,,0,,,81,85
18432,note_on,,,,,8,0,9,,,,,1,,,77,85
18688,note_off,,,,,256,0,8,,,,,0,,,81,100
18688,note_off,,,,,256,0,9,,,,,1,,,77,100
19008,note_on,,,,,320,0,8,,,,,0,,,81,85
19008,note_on,,,,,320,0,9,,,,,1,,,77,85
19072,note_off,,,,,64,0,9,,,,,1,,,77,100
19072,note_off,,,,,64,0,8,,,,,0,,,81,100
19104,note_on,,,,,32,0,8,,,,,0,,,82,85
19104,note_on,,,,,32,0,9,,,,,1,,,79,85
19168,note_off,,,,,64,0,9,,,,,1,,,79,100
19168,note_off,,,,,64,0,8,,,,,0,,,82,100
19200,note_on,,,,,32,0,9,,,,,1,,,81,85
19200,note_on,,,,,32,0,8,,,,,0,,,84,85
19292,note_off,,,,,92,0,9,,,,,1,,,81,100
19292,note_off,,,,,92,0,8,,,,,0,,,84,100
19296,note_on,,,,,4,0,8,,,,,0,,,82,85
19296,note_on,,,,,4,0,9,,,,,1,,,79,85
19388,note_off,,,,,92,0,8,,,,,0,,,82,100
19388,note_off,,,,,92,0,9,,,,,1,,,79,100
19392,note_on,,,,,4,0,8,,,,,0,,,81,85
19392,note_on,,,,,4,0,9,,,,,1,,,77,85
19456,note_off,,,,,64,0,9,,,,,1,,,77,100
19456,note_off,,,,,64,0,8,,,,,0,,,81,100
19488,note_on,,,,,32,0,9,,,,,1,,,81,85
19488,note_on,,,,,32,0,8,,,,,0,,,84,85
19552,note_off,,,,,64,0,8,,,,,0,,,84,100
19552,note_off,,,,,64,0,9,,,,,1,,,81,100
19584,note_on,,,,,32,0,8,,,,,0,,,86,85
19584,note_on,,,,,32,0,9,,,,,1,,,82,85
19676,note_off,,,,,92,0,8,,,,,0,,,86,100
19676,note_off,,,,,92,0,9,,,,,1,,,82,100
19680,note_on,,,,,4,0,8,,,,,0,,,84,85
19680,note_on,,,,,4,0,9,,,,,1,,,81,85
19772,note_off,,,,,92,0,8,,,,,0,,,84,100
19772,note_off,,,,,92,0,9,,,,,1,,,81,100
19776,note_on,,,,,4,0,8,,,,,0,,,82,85
19776,note_on,,,,,4,0,9,,,,,1,,,79,85
19840,note_off,,,,,64,0,8,,,,,0,,,82,100
19840,note_off,,,,,64,0,9,,,,,1,,,79,100
19872,note_on,,,,,32,0,8,,,,,0,,,86,85
19872,note_on,,,,,32,0,9,,,,,1,,,82,85
19936,note_off,,,,,64,0,9,,,,,1,,,82,100
19936,note_off,,,,,64,0,8,,,,,0,,,86,100
19968,note_on,,,,,32,0,9,,,,,1,,,81,85
19968,note_on,,,,,32,0,8,,,,,0,,,84,85
20060,note_off,,,,,92,0,9,,,,,1,,,81,100
20060,note_off,,,,,92,0,8,,,,,0,,,84,100
20064,note_on,,,,,4,0,9,,,,,1,,,79,85
20064,note_on,,,,,4,0,8,,,,,0,,,82,85
20156,note_off,,,,,92,0,9,,,,,1,,,79,100
20156,note_off,,,,,92,0,8,,,,,0,,,82,100
20160,note_on,,,,,4,0,8,,,,,0,,,81,85
20160,note_on,,,,,4,0,9,,,,,1,,,77,85
20224,note_off,,,,,64,0,9,,,,,1,,,77,100
20224,note_off,,,,,64,0,8,,,,,0,,,81,100
20256,note_on,,,,,32,0,9,,,,,1,,,81,85
20256,note_on,,,,,32,0,8,,,,,0,,,84,85
20320,note_off,,,,,64,0,9,,,,,1,,,81,100
20320,note_off,,,,,64,0,8,,,,,0,,,84,100
20352,note_on,,,,,32,0,9,,,,,1,,,82,85
20352,note_on,,,,,32,0,8,,,,,0,,,86,85
20444,note_off,,,,,92,0,8,,,,,0,,,86,100
20444,note_off,,,,,92,0,9,,,,,1,,,82,100
20448,note_on,,,,,4,0,8,,,,,0,,,84,85
20448,note_on,,,,,4,0,9,,,,,1,,,81,85
20540,note_off,,,,,92,0,9,,,,,1,,,81,100
20540,note_off,,,,,92,0,8,,,,,0,,,84,100
20544,note_on,,,,,4,0,9,,,,,1,,,79,85
20544,note_on,,,,,4,0,8,,,,,0,,,82,85
20608,note_off,,,,,64,0,9,,,,,1,,,79,100
20608,note_off,,,,,64,0,8,,,,,0,,,82,100
20640,note_on,,,,,32,0,9,,,,,1,,,82,85
20640,note_on,,,,,32,0,8,,,,,0,,,86,85
20704,note_off,,,,,64,0,8,,,,,0,,,86,100
20704,note_off,,,,,64,0,9,,,,,1,,,82,100
20736,note_on,,,,,32,0,9,,,,,1,,,81,85
20736,note_on,,,,,32,0,8,,,,,0,,,84,85
20828,note_off,,,,,92,0,9,,,,,1,,,81,100
20828,note_off,,,,,92,0,8,,,,,0,,,84,100
20832,note_on,,,,,4,0,8,,,,,0,,,82,85
20832,note_on,,,,,4,0,9,,,,,1,,,79,85
20924,note_off,,,,,92,0,8,,,,,0,,,82,100
20924,note_off,,,,,92,0,9,,,,,1,,,79,100
20928,note_on,,,,,4,0,9,,,,,1,,,77,85
20928,note_on,,,,,4,0,8,,,,,0,,,81,85
20992,note_off,,,,,64,0,9,,,,,1,,,77,100
20992,note_off,,,,,64,0,8,,,,,0,,,81,100
21024,note_on,,,,,32,0,9,,,,,1,,,81,85
21024,note_on,,,,,32,0,8,,,,,0,,,84,85
21088,note_off,,,,,64,0,8,,,,,0,,,84,100
21088,note_off,,,,,64,0,9,,,,,1,,,81,100
21120,note_on,,,,,32,0,8,,,,,0,,,86,85
21120,note_on,,,,,32,0,9,,,,,1,,,82,85
21212,note_off,,,,,92,0,9,,,,,1,,,82,100
21212,note_off,,,,,92,0,8,,,,,0,,,86,100
21216,note_on,,,,,4,0,8,,,,,0,,,84,85
21216,note_on,,,,,4,0,9,,,,,1,,,81,85
21308,note_off,,,,,92,0,8,,,,,0,,,84,100
21308,note_off,,,,,92,0,9,,,,,1,,,81,100
21312,note_on,,,,,4,0,8,,,,,0,,,82,85
21312,note_on,,,,,4,0,9,,,,,1,,,79,85
21376,note_off,,,,,64,0,8,,,,,0,,,82,100
21376,note_off,,,,,64,0,9,,,,,1,,,79,100
21408,note_on,,,,,32,0,8,,,,,0,,,86,85
21408,note_on,,,,,32,0,9,,,,,1,,,82,85
21472,note_off,,,,,64,0,9,,,,,1,,,82,100
21472,note_off,,,,,64,0,8,,,,,0,,,86,100
21504,note_on,,,,,32,0,9,,,,,1,,,81,85
21504,note_on,,,,,32,0,8,,,,,0,,,84,85
21632,note_off,,,,,128,0,9,,,,,1,,,81,100
21632,note_off,,,,,128,0,8,,,,,0,,,84,100
21696,note_on,,,,,64,0,8,,,,,0,,,81,85
21696,note_on,,,,,64,0,9,,,,,1,,,77,85
21824,note_off,,,,,128,0,9,,,,,1,,,77,100
21824,note_off,,,,,128,0,8,,,,,0,,,81,100
21888,program_change,,,,,64,0,9,,,,,1,48,,,
21888,program_change,,,,,64,0,8,,,,,0,48,,,
21888,program_change,,,,,3712,0,10,,,,,2,40,,,
21984,note_on,,,,,96,0,10,,,,,2,,,77,85
22048,note_off,,,,,64,0,10,,,,,2,,,77,100
22080,note_on,,,,,32,0,10,,,,,2,,,76,85
22144,note_off,,,,,64,0,10,,,,,2,,,76,100
22176,note_on,,,,,32,0,10,,,,,2,,,77,85
22240,note_off,,,,,64,0,10,,,,,2,,,77,100
22272,note_on,,,,,384,0,8,,,,,0,,,77,70
22272,note_on,,,,,4096,0,13,,,,,5,,,53,70
22272,note_on,,,,,32,0,10,,,,,2,,,72,85
22272,note_on,,,,,4096,0,16,,,,,7,,,53,100
22272,note_on,,,,,0,0,12,,,,,4,,,69,70
22272,note_on,,,,,384,0,9,,,,,1,,,77,20
22272,note_on,,,,,4096,0,11,,,,,3,,,72,70
22272,note_on,,,,,4096,0,12,,,,,4,,,65,70
22272,note_on,,,,,4096,0,14,,,,,6,,,41,70
22272,note_on,,,,,0,0,15,,,,,7,,,69,100
22272,note_on,,,,,4004,0,15,,,,,7,,,72,100
22336,note_off,,,,,64,0,10,,,,,2,,,72,100
22368,note_on,,,,,32,0,10,,,,,2,,,77,85
22432,note_off,,,,,64,0,10,,,,,2,,,77,100
22464,note_on,,,,,32,0,10,,,,,2,,,76,85
22528,note_off,,,,,256,0,15,,,,,7,,,72,100
22528,note_off,,,,,0,0,12,,,,,4,,,69,100
22528,note_off,,,,,256,0,12,,,,,4,,,65,100
22528,note_off,,,,,256,0,9,,,,,1,,,77,100
22528,note_off,,,,,256,0,11,,,,,3,,,72,100
22528,note_off,,,,,64,0,10,,,,,2,,,76,100
22528,note_off,,,,,256,0,13,,,,,5,,,53,100
22528,note_off,,,,,256,0,8,,,,,0,,,77,100
22528,note_off,,,,,256,0,16,,,,,7,,,53,100
22528,note_off,,,,,256,0,14,,,,,6,,,41,100
22528,note_off,,,,,0,0,15,,,,,7,,,69,100
22560,note_on,,,,,32,0,10,,,,,2,,,77,85
22624,note_off,,,,,64,0,10,,,,,2,,,77,100
22656,note_on,,,,,32,0,10,,,,,2,,,72,85
22720,note_off,,,,,64,0,10,,,,,2,,,72,100
22752,note_on,,,,,32,0,10,,,,,2,,,77,85
22816,note_off,,,,,64,0,10,,,,,2,,,77,100
22848,note_on,,,,,32,0,10,,,,,2,,,76,85
22912,note_off,,,,,64,0,10,,,,,2,,,76,100
22944,note_on,,,,,32,0,10,,,,,2,,,77,85
23008,note_off,,,,,64,0,10,,,,,2,,,77,100
23040,note_on,,,,,512,0,16,,,,,7,,,46,100
23040,note_on,,,,,512,0,13,,,,,5,,,46,72
23040,note_on,,,,,512,0,14,,,,,6,,,34,72
23040,note_on,,,,,512,0,9,,,,,1,,,77,22
23040,note_on,,,,,512,0,15,,,,,7,,,62,100
23040,note_on,,,,,0,0,15,,,,,7,,,65,100
23040,note_on,,,,,32,0,10,,,,,2,,,74,87
23040,note_on,,,,,512,0,8,,,,,0,,,77,72
23040,note_on,,,,,0,0,12,,,,,4,,,70,72
23040,note_on,,,,,512,0,12,,,,,4,,,62,72
23040,note_on,,,,,512,0,11,,,,,3,,,74,72
23104,note_off,,,,,64,0,10,,,,,2,,,74,100
23136,note_on,,,,,32,0,10,,,,,2,,,77,87
23200,note_off,,,,,64,0,10,,,,,2,,,77,100
23232,note_on,,,,,32,0,10,,,,,2,,,76,87
23296,note_off,,,,,64,0,10,,,,,2,,,76,100
23296,note_off,,,,,256,0,16,,,,,7,,,46,100
23296,note_off,,,,,256,0,9,,,,,1,,,77,100
23296,note_off,,,,,256,0,14,,,,,6,,,34,100
23296,note_off,,,,,0,0,15,,,,,7,,,65,100
23296,note_off,,,,,256,0,15,,,,,7,,,62,100
23296,note_off,,,,,256,0,11,,,,,3,,,74,100
23296,note_off,,,,,0,0,12,,,,,4,,,70,100
23296,note_off,,,,,256,0,12,,,,,4,,,62,100
23296,note_off,,,,,256,0,8,,,,,0,,,77,100
23296,note_off,,,,,256,0,13,,,,,5,,,46,100
23328,note_on,,,,,32,0,10,,,,,2,,,77,88
23392,note_off,,,,,64,0,10,,,,,2,,,77,100
23424,note_on,,,,,32,0,10,,,,,2,,,74,88
23488,note_off,,,,,64,0,10,,,,,2,,,74,100
23520,note_on,,,,,32,0,10,,,,,2,,,77,88
23584,note_off,,,,,64,0,10,,,,,2,,,77,100
23616,note_on,,,,,32,0,10,,,,,2,,,76,88
23680,note_off,,,,,64,0,10,,,,,2,,,76,100
23712,note_on,,,,,32,0,10,,,,,2,,,77,89
23776,note_off,,,,,64,0,10,,,,,2,,,77,100
23808,note_on,,,,,512,0,9,,,,,1,,,79,24
23808,note_on,,,,,512,0,8,,,,,0,,,79,74
23808,note_on,,,,,512,0,15,,,,,7,,,62,100
23808,note_on,,,,,0,0,15,,,,,7,,,67,100
23808,note_on,,,,,512,0,14,,,,,6,,,35,74
23808,note_on,,,,,512,0,12,,,,,4,,,59,74
23808,note_on,,,,,0,0,12,,,,,4,,,67,74
23808,note_on,,,,,512,0,13,,,,,5,,,47,74
23808,note_on,,,,,512,0,16,,,,,7,,,47,100
23808,note_on,,,,,32,0,10,,,,,2,,,74,89
23808,note_on,,,,,512,0,11,,,,,3,,,74,74
23872,note_off,,,,,64,0,10,,,,,2,,,74,100
23904,note_on,,,,,32,0,10,,,,,2,,,79,89
23968,note_off,,,,,64,0,10,,,,,2,,,79,100
24000,note_on,,,,,32,0,10,,,,,2,,,77,89
24064,note_off,,,,,256,0,8,,,,,0,,,79,100
24064,note_off,,,,,256,0,11,,,,,3,,,74,100
24064,note_off,,,,,256,0,13,,,,,5,,,47,100
24064,note_off,,,,,0,0,12,,,,,4,,,67,100
24064,note_off,,,,,256,0,12,,,,,4,,,59,100
24064,note_off,,,,,256,0,9,,,,,1,,,79,100
24064,note_off,,,,,256,0,14,,,,,6,,,35,100
24064,note_off,,,,,0,0,15,,,,,7,,,67,100
24064,note_off,,,,,64,0,10,,,,,2,,,77,100
24064,note_off,,,,,256,0,16,,,,,7,,,47,100
24064,note_off,,,,,256,0,15,,,,,7,,,62,100
24096,note_on,,,,,32,0,10,,,,,2,,,79,90
24160,note_off,,,,,64,0,10,,,,,2,,,79,100
24192,note_on,,,,,32,0,10,,,,,2,,,74,90
24256,note_off,,,,,64,0,10,,,,,2,,,74,100
24288,note_on,,,,,32,0,10,,,,,2,,,79,90
24352,note_off,,,,,64,0,10,,,,,2,,,79,100
24384,note_on,,,,,32,0,10,,,,,2,,,77,90
24448,note_off,,,,,64,0,10,,,,,2,,,77,100
24480,note_on,,,,,32,0,10,,,,,2,,,79,90
24544,note_off,,,,,64,0,10,,,,,2,,,79,100
24576,note_on,,,,,0,0,15,,,,,7,,,67,100
24576,note_on,,,,,512,0,8,,,,,0,,,79,76
24576,note_on,,,,,32,0,10,,,,,2,,,76,91
24576,note_on,,,,,512,0,16,,,,,7,,,48,100
24576,note_on,,,,,512,0,9,,,,,1,,,79,26
24576,note_on,,,,,512,0,15,,,,,7,,,64,100
24576,note_on,,,,,512,0,11,,,,,3,,,76,76
24576,note_on,,,,,512,0,13,,,,,5,,,48,76
24576,note_on,,,,,512,0,14,,,,,6,,,36,76
24576,note_on,,,,,512,0,12,,,,,4,,,64,76
24576,note_on,,,,,0,0,12,,,,,4,,,72,76
24640,note_off,,,,,64,0,10,,,,,2,,,76,100
24672,note_on,,,,,32,0,10,,,,,2,,,79,91
24736,note_off,,,,,64,0,10,,,,,2,,,79,100
24768,note_on,,,,,32,0,10,,,,,2,,,77,91
24832,note_off,,,,,0,0,15,,,,,7,,,67,100
24832,note_off,,,,,256,0,16,,,,,7,,,48,100
24832,note_off,,,,,256,0,9,,,,,1,,,79,100
24832,note_off,,,,,256,0,15,,,,,7,,,64,100
24832,note_off,,,,,256,0,11,,,,,3,,,76,100
24832,note_off,,,,,256,0,14,,,,,6,,,36,100
24832,note_off,,,,,256,0,13,,,,,5,,,48,100
24832,note_off,,,,,256,0,12,,,,,4,,,64,100
24832,note_off,,,,,256,0,8,,,,,0,,,79,100
24832,note_off,,,,,64,0,10,,,,,2,,,77,100
24832,note_off,,,,,0,0,12,,,,,4,,,72,100
24864,note_on,,,,,32,0,10,,,,,2,,,79,91
24928,note_off,,,,,64,0,10,,,,,2,,,79,100
24960,note_on,,,,,32,0,10,,,,,2,,,76,92
25024,note_off,,,,,64,0,10,,,,,2,,,76,100
25056,note_on,,,,,32,0,10,,,,,2,,,79,92
25120,note_off,,,,,64,0,10,,,,,2,,,79,100
25152,note_on,,,,,32,0,10,,,,,2,,,77,92
25216,note_off,,,,,64,0,10,,,,,2,,,77,100
25248,note_on,,,,,32,0,10,,,,,2,,,79,92
25312,note_off,,,,,64,0,10,,,,,2,,,79,100
25344,note_on,,,,,512,0,16,,,,,7,,,49,100
25344,note_on,,,,,512,0,8,,,,,0,,,81,78
25344,note_on,,,,,0,0,15,,,,,7,,,69,100
25344,note_on,,,,,32,0,10,,,,,2,,,76,93
25344,note_on,,,,,512,0,12,,,,,4,,,61,78
25344,note_on,,,,,512,0,11,,,,,3,,,76,78
25344,note_on,,,,,512,0,14,,,,,6,,,37,78
25344,note_on,,,,,0,0,12,,,,,4,,,69,78
25344,note_on,,,,,512,0,13,,,,,5,,,49,78
25344,note_on,,,,,512,0,9,,,,,1,,,81,28
25344,note_on,,,,,512,0,15,,,,,7,,,64,100
25408,note_off,,,,,64,0,10,,,,,2,,,76,100
25440,note_on,,,,,32,0,10,,,,,2,,,81,93
25504,note_off,,,,,64,0,10,,,,,2,,,81,100
25536,note_on,,,,,32,0,10,,,,,2,,,79,93
25600,note_off,,,,,0,0,15,,,,,7,,,69,100
25600,note_off,,,,,64,0,10,,,,,2,,,79,100
25600,note_off,,,,,256,0,16,,,,,7,,,49,100
25600,note_off,,,,,256,0,8,,,,,0,,,81,100
25600,note_off,,,,,256,0,15,,,,,7,,,64,100
25600,note_off,,,,,0,0,12,,,,,4,,,69,100
25600,note_off,,,,,256,0,12,,,,,4,,,61,100
25600,note_off,,,,,256,0,13,,,,,5,,,49,100
25600,note_off,,,,,256,0,14,,,,,6,,,37,100
25600,note_off,,,,,256,0,11,,,,,3,,,76,100
25600,note_off,,,,,256,0,9,,,,,1,,,81,100
25632,note_on,,,,,32,0,10,,,,,2,,,81,93
25696,note_off,,,,,64,0,10,,,,,2,,,81,100
25728,note_on,,,,,32,0,10,,,,,2,,,76,93
25792,note_off,,,,,64,0,10,,,,,2,,,76,100
25824,note_on,,,,,32,0,10,,,,,2,,,81,94
25888,note_off,,,,,64,0,10,,,,,2,,,81,100
25920,note_on,,,,,32,0,10,,,,,2,,,79,94
25984,note_off,,,,,64,0,10,,,,,2,,,79,100
26016,note_on,,,,,32,0,10,,,,,2,,,81,94
26080,note_off,,,,,64,0,10,,,,,2,,,81,100
26112,note_on,,,,,512,0,8,,,,,0,,,81,79
26112,note_on,,,,,512,0,14,,,,,6,,,38,79
26112,note_on,,,,,32,0,10,,,,,2,,,77,94
26112,note_on,,,,,512,0,13,,,,,5,,,50,79
26112,note_on,,,,,512,0,16,,,,,7,,,50,100
26112,note_on,,,,,0,0,15,,,,,7,,,69,100
26112,note_on,,,,,512,0,12,,,,,4,,,65,79
26112,note_on,,,,,0,0,12,,,,,4,,,74,79
26112,note_on,,,,,512,0,9,,,,,1,,,81,29
26112,note_on,,,,,512,0,15,,,,,7,,,65,100
26112,note_on,,,,,512,0,11,,,,,3,,,77,79
26176,note_off,,,,,64,0,10,,,,,2,,,77,100
26208,note_on,,,,,32,0,10,,,,,2,,,81,95
26272,note_off,,,,,64,0,10,,,,,2,,,81,100
26304,note_on,,,,,32,0,10,,,,,2,,,79,95
26368,note_off,,,,,256,0,9,,,,,1,,,81,100
26368,note_off,,,,,256,0,8,,,,,0,,,81,100
26368,note_off,,,,,256,0,13,,,,,5,,,50,100
26368,note_off,,,,,0,0,12,,,,,4,,,74,100
26368,note_off,,,,,256,0,12,,,,,4,,,65,100
26368,note_off,,,,,256,0,14,,,,,6,,,38,100
26368,note_off,,,,,256,0,11,,,,,3,,,77,100
26368,note_off,,,,,0,0,15,,,,,7,,,69,100
26368,note_off,,,,,64,0,10,,,,,2,,,79,100
26368,note_off,,,,,256,0,16,,,,,7,,,50,100
26368,note_off,,,,,256,0,15,,,,,7,,,65,100
26400,note_on,,,,,32,0,10,,,,,2,,,81,95
26464,note_off,,,,,64,0,10,,,,,2,,,81,100
26496,note_on,,,,,32,0,10,,,,,2,,,77,95
26560,note_off,,,,,64,0,10,,,,,2,,,77,100
26592,note_on,,,,,32,0,10,,,,,2,,,81,96
26656,note_off,,,,,64,0,10,,,,,2,,,81,100
26688,note_on,,,,,32,0,10,,,,,2,,,79,96
26752,note_off,,,,,64,0,10,,,,,2,,,79,100
26784,note_on,,,,,32,0,10,,,,,2,,,81,96
26848,note_off,,,,,64,0,10,,,,,2,,,81,100
26880,note_on,,,,,32,0,10,,,,,2,,,77,96
26880,note_on,,,,,512,0,13,,,,,5,,,50,81
26880,note_on,,,,,0,0,15,,,,,7,,,69,100
26880,note_on,,,,,512,0,11,,,,,3,,,77,81
26880,note_on,,,,,512,0,16,,,,,7,,,50,100
26880,note_on,,,,,512,0,12,,,,,4,,,62,81
26880,note_on,,,,,0,0,12,,,,,4,,,70,81
26880,note_on,,,,,512,0,9,,,,,1,,,82,31
26880,note_on,,,,,512,0,15,,,,,7,,,65,100
26880,note_on,,,,,512,0,8,,,,,0,,,82,81
26880,note_on,,,,,512,0,14,,,,,6,,,38,81
26944,note_off,,,,,64,0,10,,,,,2,,,77,100
26976,note_on,,,,,32,0,10,,,,,2,,,82,96
27040,note_off,,,,,64,0,10,,,,,2,,,82,100
27072,note_on,,,,,32,0,10,,,,,2,,,81,97
27136,note_off,,,,,256,0,8,,,,,0,,,82,100
27136,note_off,,,,,256,0,12,,,,,4,,,62,100
27136,note_off,,,,,256,0,16,,,,,7,,,50,100
27136,note_off,,,,,256,0,11,,,,,3,,,77,100
27136,note_off,,,,,256,0,13,,,,,5,,,50,100
27136,note_off,,,,,0,0,12,,,,,4,,,70,100
27136,note_off,,,,,256,0,14,,,,,6,,,38,100
27136,note_off,,,,,0,0,15,,,,,7,,,69,100
27136,note_off,,,,,256,0,15,,,,,7,,,65,100
27136,note_off,,,,,64,0,10,,,,,2,,,81,100
27136,note_off,,,,,256,0,9,,,,,1,,,82,100
27168,note_on,,,,,32,0,10,,,,,2,,,82,97
27232,note_off,,,,,64,0,10,,,,,2,,,82,100
27264,note_on,,,,,32,0,10,,,,,2,,,77,97
27328,note_off,,,,,64,0,10,,,,,2,,,77,100
27360,note_on,,,,,32,0,10,,,,,2,,,82,97
27424,note_off,,,,,64,0,10,,,,,2,,,82,100
27456,note_on,,,,,32,0,10,,,,,2,,,81,98
27520,note_off,,,,,64,0,10,,,,,2,,,81,100
27552,note_on,,,,,32,0,10,,,,,2,,,82,98
27616,note_off,,,,,64,0,10,,,,,2,,,82,100
27648,note_on,,,,,32,0,10,,,,,2,,,76,98
27648,note_on,,,,,512,0,13,,,,,5,,,48,83
27648,note_on,,,,,512,0,11,,,,,3,,,76,83
27648,note_on,,,,,512,0,8,,,,,0,,,79,83
27648,note_on,,,,,0,0,15,,,,,7,,,67,100
27648,note_on,,,,,512,0,15,,,,,7,,,64,100
27648,note_on,,,,,512,0,12,,,,,4,,,67,83
27648,note_on,,,,,0,0,12,,,,,4,,,72,83
27648,note_on,,,,,512,0,14,,,,,6,,,36,83
27648,note_on,,,,,512,0,9,,,,,1,,,79,33
27648,note_on,,,,,512,0,16,,,,,7,,,48,100
27776,note_off,,,,,128,0,10,,,,,2,,,76,100
27840,note_on,,,,,64,0,10,,,,,2,,,74,99
27904,note_off,,,,,64,0,10,,,,,2,,,74,100
27904,note_off,,,,,256,0,16,,,,,7,,,48,100
27904,note_off,,,,,256,0,14,,,,,6,,,36,100
27904,note_off,,,,,256,0,13,,,,,5,,,48,100
27904,note_off,,,,,256,0,8,,,,,0,,,79,100
27904,note_off,,,,,256,0,9,,,,,1,,,79,100
27904,note_off,,,,,256,0,12,,,,,4,,,67,100
27904,note_off,,,,,256,0,11,,,,,3,,,76,100
27904,note_off,,,,,0,0,15,,,,,7,,,67,100
27904,note_off,,,,,256,0,15,,,,,7,,,64,100
27904,note_off,,,,,0,0,12,,,,,4,,,72,100
27936,note_on,,,,,32,0,10,,,,,2,,,76,99
28000,note_off,,,,,64,0,10,,,,,2,,,76,100
28032,note_on,,,,,32,0,10,,,,,2,,,72,99
28160,note_off,,,,,128,0,10,,,,,2,,,72,100
28208,program_change,,,,,48,0,10,,,,,2,48,,,
28224,note_on,,,,,320,0,13,,,,,5,,,52,99
28224,note_on,,,,,320,0,16,,,,,7,,,52,100
28224,note_on,,,,,0,0,15,,,,,7,,,67,100
28224,note_on,,,,,320,0,11,,,,,3,,,79,49
28224,note_on,,,,,320,0,15,,,,,7,,,72,100
28224,note_on,,,,,320,0,14,,,,,6,,,40,99
28224,note_on,,,,,320,0,8,,,,,0,,,72,49
28224,note_on,,,,,0,0,12,,,,,4,,,72,99
28224,note_on,,,,,320,0,9,,,,,1,,,79,99
28224,note_on,,,,,16,0,10,,,,,2,,,72,99
28224,note_on,,,,,320,0,12,,,,,4,,,64,99
28352,note_off,,,,,128,0,12,,,,,4,,,64,100
28352,note_off,,,,,128,0,16,,,,,7,,,52,100
28352,note_off,,,,,128,0,13,,,,,5,,,52,100
28352,note_off,,,,,0,0,12,,,,,4,,,72,100
28352,note_off,,,,,128,0,15,,,,,7,,,72,100
28352,note_off,,,,,128,0,11,,,,,3,,,79,100
28352,note_off,,,,,128,0,10,,,,,2,,,72,100
28352,note_off,,,,,128,0,9,,,,,1,,,79,100
28352,note_off,,,,,128,0,14,,,,,6,,,40,100
28352,note_off,,,,,128,0,8,,,,,0,,,72,100
28352,note_off,,,,,0,0,15,,,,,7,,,67,100
28416,note_on,,,,,64,0,16,,,,,7,,,52,100
28416,note_on,,,,,64,0,14,,,,,6,,,40,85
28416,note_on,,,,,64,0,12,,,,,4,,,72,85
28416,note_on,,,,,64,0,15,,,,,7,,,67,100
28416,note_on,,,,,0,0,15,,,,,7,,,72,100
28416,note_on,,,,,64,0,13,,,,,5,,,52,85
28416,note_on,,,,,64,0,8,,,,,0,,,79,35
28416,note_on,,,,,64,0,10,,,,,2,,,79,85
28416,note_on,,,,,64,0,9,,,,,1,,,72,85
28416,note_on,,,,,64,0,11,,,,,3,,,72,35
28604,note_off,,,,,188,0,8,,,,,0,,,79,100
28604,note_off,,,,,188,0,9,,,,,1,,,72,100
28604,note_off,,,,,188,0,10,,,,,2,,,79,100
28604,note_off,,,,,188,0,11,,,,,3,,,72,100
28608,note_on,,,,,4,0,9,,,,,1,,,79,85
28608,note_on,,,,,4,0,10,,,,,2,,,72,85
28608,note_on,,,,,4,0,11,,,,,3,,,79,35
28608,note_on,,,,,4,0,8,,,,,0,,,72,35
28672,note_off,,,,,0,0,15,,,,,7,,,72,100
28672,note_off,,,,,256,0,15,,,,,7,,,67,100
28672,note_off,,,,,256,0,12,,,,,4,,,72,100
28672,note_off,,,,,256,0,14,,,,,6,,,40,100
28672,note_off,,,,,256,0,16,,,,,7,,,52,100
28672,note_off,,,,,256,0,13,,,,,5,,,52,100
28736,note_off,,,,,128,0,8,,,,,0,,,72,100
28736,note_off,,,,,128,0,11,,,,,3,,,79,100
28736,note_off,,,,,128,0,9,,,,,1,,,79,100
28736,note_off,,,,,128,0,10,,,,,2,,,72,100
28800,note_on,,,,,64,0,8,,,,,0,,,81,35
28800,note_on,,,,,64,0,11,,,,,3,,,72,35
28800,note_on,,,,,64,0,9,,,,,1,,,72,85
28800,note_on,,,,,64,0,10,,,,,2,,,81,85
28988,note_off,,,,,188,0,8,,,,,0,,,81,100
28988,note_off,,,,,188,0,11,,,,,3,,,72,100
28988,note_off,,,,,188,0,9,,,,,1,,,72,100
28988,note_off,,,,,188,0,10,,,,,2,,,81,100
28992,note_on,,,,,320,0,12,,,,,4,,,65,85
28992,note_on,,,,,4,0,11,,,,,3,,,81,35
28992,note_on,,,,,4,0,8,,,,,0,,,72,35
28992,note_on,,,,,320,0,16,,,,,7,,,53,100
28992,note_on,,,,,0,0,15,,,,,7,,,72,100
28992,note_on,,,,,320,0,15,,,,,7,,,69,100
28992,note_on,,,,,320,0,13,,,,,5,,,53,85
28992,note_on,,,,,4,0,9,,,,,1,,,81,85
28992,note_on,,,,,320,0,14,,,,,6,,,41,85
28992,note_on,,,,,4,0,10,,,,,2,,,72,85
29120,note_off,,,,,128,0,15,,,,,7,,,69,100
29120,note_off,,,,,128,0,13,,,,,5,,,53,100
29120,note_off,,,,,128,0,9,,,,,1,,,81,100
29120,note_off,,,,,128,0,14,,,,,6,,,41,100
29120,note_off,,,,,128,0,11,,,,,3,,,81,100
29120,note_off,,,,,128,0,8,,,,,0,,,72,100
29120,note_off,,,,,128,0,12,,,,,4,,,65,100
29120,note_off,,,,,0,0,15,,,,,7,,,72,100
29120,note_off,,,,,128,0,16,,,,,7,,,53,100
29120,note_off,,,,,128,0,10,,,,,2,,,72,100
29184,note_on,,,,,64,0,8,,,,,0,,,79,35
29184,note_on,,,,,64,0,11,,,,,3,,,72,35
29184,note_on,,,,,64,0,9,,,,,1,,,72,85
29184,note_on,,,,,64,0,12,,,,,4,,,64,85
29184,note_on,,,,,64,0,13,,,,,5,,,48,85
29184,note_on,,,,,64,0,16,,,,,7,,,48,100
29184,note_on,,,,,64,0,15,,,,,7,,,64,100
29184,note_on,,,,,0,0,15,,,,,7,,,67,100
29184,note_on,,,,,64,0,14,,,,,6,,,36,85
29184,note_on,,,,,64,0,10,,,,,2,,,79,85
29372,note_off,,,,,188,0,11,,,,,3,,,72,100
29372,note_off,,,,,188,0,9,,,,,1,,,72,100
29372,note_off,,,,,188,0,10,,,,,2,,,79,100
29372,note_off,,,,,188,0,8,,,,,0,,,79,100
29376,note_on,,,,,4,0,10,,,,,2,,,72,85
29376,note_on,,,,,4,0,11,,,,,3,,,79,35
29376,note_on,,,,,4,0,9,,,,,1,,,79,85
29376,note_on,,,,,4,0,8,,,,,0,,,72,35
29440,note_off,,,,,256,0,12,,,,,4,,,64,100
29440,note_off,,,,,256,0,14,,,,,6,,,36,100
29440,note_off,,,,,256,0,15,,,,,7,,,64,100
29440,note_off,,,,,256,0,13,,,,,5,,,48,100
29440,note_off,,,,,256,0,16,,,,,7,,,48,100
29440,note_off,,,,,0,0,15,,,,,7,,,67,100
29504,note_off,,,,,128,0,8,,,,,0,,,72,100
29504,note_off,,,,,128,0,10,,,,,2,,,72,100
29504,note_off,,,,,128,0,11,,,,,3,,,79,100
29504,note_off,,,,,128,0,9,,,,,1,,,79,100
29568,note_on,,,,,64,0,9,,,,,1,,,72,85
29568,note_on,,,,,64,0,11,,,,,3,,,72,35
29568,note_on,,,,,64,0,10,,,,,2,,,77,85
29568,note_on,,,,,64,0,8,,,,,0,,,77,35
29756,note_off,,,,,188,0,11,,,,,3,,,72,100
29756,note_off,,,,,188,0,9,,,,,1,,,72,100
29756,note_off,,,,,188,0,8,,,,,0,,,77,100
29756,note_off,,,,,188,0,10,,,,,2,,,77,100
29760,note_on,,,,,4,0,10,,,,,2,,,72,85
29760,note_on,,,,,320,0,14,,,,,6,,,41,85
29760,note_on,,,,,320,0,12,,,,,4,,,69,85
29760,note_on,,,,,4,0,11,,,,,3,,,77,35
29760,note_on,,,,,320,0,15,,,,,7,,,69,100
29760,note_on,,,,,0,0,15,,,,,7,,,72,100
29760,note_on,,,,,4,0,9,,,,,1,,,77,85
29760,note_on,,,,,4,0,8,,,,,0,,,72,35
29760,note_on,,,,,320,0,16,,,,,7,,,53,100
29760,note_on,,,,,320,0,13,,,,,5,,,53,85
29888,note_off,,,,,128,0,15,,,,,7,,,69,100
29888,note_off,,,,,0,0,15,,,,,7,,,72,100
29888,note_off,,,,,128,0,12,,,,,4,,,69,100
29888,note_off,,,,,128,0,14,,,,,6,,,41,100
29888,note_off,,,,,128,0,8,,,,,0,,,72,100
29888,note_off,,,,,128,0,10,,,,,2,,,72,100
29888,note_off,,,,,128,0,16,,,,,7,,,53,100
29888,note_off,,,,,128,0,13,,,,,5,,,53,100
29888,note_off,,,,,128,0,11,,,,,3,,,77,100
29888,note_off,,,,,128,0,9,,,,,1,,,77,100
29952,note_on,,,,,64,0,13,,,,,5,,,52,85
29952,note_on,,,,,64,0,14,,,,,6,,,40,85
29952,note_on,,,,,64,0,15,,,,,7,,,67,100
29952,note_on,,,,,64,0,16,,,,,7,,,52,100
29952,note_on,,,,,64,0,12,,,,,4,,,72,85
29952,note_on,,,,,0,0,15,,,,,7,,,72,100
29952,note_on,,,,,64,0,8,,,,,0,,,79,35
29952,note_on,,,,,64,0,10,,,,,2,,,79,85
29952,note_on,,,,,64,0,11,,,,,3,,,72,35
29952,note_on,,,,,64,0,9,,,,,1,,,72,85
30080,note_off,,,,,0,0,15,,,,,7,,,72,100
30080,note_off,,,,,128,0,15,,,,,7,,,67,100
30140,note_off,,,,,188,0,8,,,,,0,,,79,100
30140,note_off,,,,,188,0,10,,,,,2,,,79,100
30140,note_off,,,,,188,0,9,,,,,1,,,72,100
30140,note_off,,,,,188,0,11,,,,,3,,,72,100
30144,note_on,,,,,4,0,9,,,,,1,,,79,85
30144,note_on,,,,,4,0,8,,,,,0,,,72,35
30144,note_on,,,,,4,0,10,,,,,2,,,72,85
30144,note_on,,,,,4,0,11,,,,,3,,,79,35
30208,note_off,,,,,256,0,13,,,,,5,,,52,100
30208,note_off,,,,,256,0,14,,,,,6,,,40,100
30208,note_off,,,,,256,0,16,,,,,7,,,52,100
30208,note_off,,,,,256,0,12,,,,,4,,,72,100
30272,note_off,,,,,128,0,10,,,,,2,,,72,100
30272,note_off,,,,,128,0,8,,,,,0,,,72,100
30272,note_off,,,,,128,0,11,,,,,3,,,79,100
30272,note_off,,,,,128,0,9,,,,,1,,,79,100
30336,note_on,,,,,64,0,8,,,,,0,,,81,35
30336,note_on,,,,,64,0,10,,,,,2,,,81,85
30336,note_on,,,,,64,0,11,,,,,3,,,72,35
30336,note_on,,,,,64,0,9,,,,,1,,,72,85
30524,note_off,,,,,188,0,9,,,,,1,,,72,100
30524,note_off,,,,,188,0,10,,,,,2,,,81,100
30524,note_off,,,,,188,0,11,,,,,3,,,72,100
30524,note_off,,,,,188,0,8,,,,,0,,,81,100
30528,note_on,,,,,4,0,10,,,,,2,,,72,85
30528,note_on,,,,,320,0,16,,,,,7,,,53,100
30528,note_on,,,,,4,0,11,,,,,3,,,81,35
30528,note_on,,,,,448,0,15,,,,,7,,,69,100
30528,note_on,,,,,0,0,15,,,,,7,,,72,100
30528,note_on,,,,,320,0,12,,,,,4,,,65,85
30528,note_on,,,,,320,0,14,,,,,6,,,41,85
30528,note_on,,,,,320,0,13,,,,,5,,,53,85
30528,note_on,,,,,4,0,9,,,,,1,,,81,85
30528,note_on,,,,,4,0,8,,,,,0,,,72,35
30656,note_off,,,,,128,0,16,,,,,7,,,53,100
30656,note_off,,,,,128,0,12,,,,,4,,,65,100
30656,note_off,,,,,128,0,10,,,,,2,,,72,100
30656,note_off,,,,,128,0,8,,,,,0,,,72,100
30656,note_off,,,,,128,0,11,,,,,3,,,81,100
30656,note_off,,,,,128,0,13,,,,,5,,,53,100
30656,note_off,,,,,128,0,9,,,,,1,,,81,100
30656,note_off,,,,,128,0,15,,,,,7,,,69,100
30656,note_off,,,,,0,0,15,,,,,7,,,72,100
30656,note_off,,,,,128,0,14,,,,,6,,,41,100
30720,note_on,,,,,64,0,9,,,,,1,,,72,85
30720,note_on,,,,,64,0,12,,,,,4,,,64,85
30720,note_on,,,,,64,0,11,,,,,3,,,72,35
30720,note_on,,,,,64,0,13,,,,,5,,,48,85
30720,note_on,,,,,64,0,8,,,,,0,,,79,35
30720,note_on,,,,,64,0,16,,,,,7,,,48,100
30720,note_on,,,,,64,0,14,,,,,6,,,36,85
30720,note_on,,,,,64,0,10,,,,,2,,,79,85
30720,note_on,,,,,0,0,15,,,,,7,,,67,100
30720,note_on,,,,,64,0,15,,,,,7,,,64,100
30908,note_off,,,,,188,0,9,,,,,1,,,72,100
30908,note_off,,,,,188,0,8,,,,,0,,,79,100
30908,note_off,,,,,188,0,11,,,,,3,,,72,100
30908,note_off,,,,,188,0,10,,,,,2,,,79,100
30912,note_on,,,,,4,0,10,,,,,2,,,72,85
30912,note_on,,,,,4,0,9,,,,,1,,,79,85
30912,note_on,,,,,4,0,8,,,,,0,,,72,35
30912,note_on,,,,,4,0,11,,,,,3,,,79,35
30976,note_off,,,,,0,0,15,,,,,7,,,67,100
30976,note_off,,,,,256,0,15,,,,,7,,,64,100
30976,note_off,,,,,256,0,13,,,,,5,,,48,100
30976,note_off,,,,,256,0,12,,,,,4,,,64,100
30976,note_off,,,,,256,0,16,,,,,7,,,48,100
30976,note_off,,,,,256,0,14,,,,,6,,,36,100
31040,note_off,,,,,128,0,9,,,,,1,,,79,100
31040,note_off,,,,,128,0,10,,,,,2,,,72,100
31040,note_off,,,,,128,0,8,,,,,0,,,72,100
31040,note_off,,,,,128,0,11,,,,,3,,,79,100
31104,note_on,,,,,64,0,10,,,,,2,,,77,85
31104,note_on,,,,,64,0,8,,,,,0,,,77,35
31104,note_on,,,,,64,0,11,,,,,3,,,72,35
31104,note_on,,,,,64,0,9,,,,,1,,,72,85
31292,note_off,,,,,188,0,10,,,,,2,,,77,100
31292,note_off,,,,,188,0,8,,,,,0,,,77,100
31292,note_off,,,,,188,0,11,,,,,3,,,72,100
31292,note_off,,,,,188,0,9,,,,,1,,,72,100
31296,note_on,,,,,0,0,15,,,,,7,,,72,100
31296,note_on,,,,,320,0,15,,,,,7,,,69,100
31296,note_on,,,,,320,0,13,,,,,5,,,53,85
31296,note_on,,,,,4,0,9,,,,,1,,,77,85
31296,note_on,,,,,4,0,8,,,,,0,,,72,35
31296,note_on,,,,,320,0,14,,,,,6,,,41,85
31296,note_on,,,,,320,0,16,,,,,7,,,53,100
31296,note_on,,,,,4,0,10,,,,,2,,,72,85
31296,note_on,,,,,320,0,12,,,,,4,,,69,85
31296,note_on,,,,,4,0,11,,,,,3,,,77,35
31424,note_off,,,,,128,0,11,,,,,3,,,77,100
31424,note_off,,,,,128,0,10,,,,,2,,,72,100
31424,note_off,,,,,128,0,14,,,,,6,,,41,100
31424,note_off,,,,,128,0,15,,,,,7,,,69,100
31424,note_off,,,,,128,0,8,,,,,0,,,72,100
31424,note_off,,,,,128,0,12,,,,,4,,,69,100
31424,note_off,,,,,128,0,16,,,,,7,,,53,100
31424,note_off,,,,,128,0,9,,,,,1,,,77,100
31424,note_off,,,,,128,0,13,,,,,5,,,53,100
31424,note_off,,,,,0,0,15,,,,,7,,,72,100
31488,note_on,,,,,64,0,8,,,,,0,,,79,35
31488,note_on,,,,,64,0,10,,,,,2,,,79,85
31488,note_on,,,,,64,0,13,,,,,5,,,52,85
31488,note_on,,,,,64,0,12,,,,,4,,,72,85
31488,note_on,,,,,0,0,15,,,,,7,,,72,100
31488,note_on,,,,,64,0,11,,,,,3,,,72,35
31488,note_on,,,,,64,0,15,,,,,7,,,67,100
31488,note_on,,,,,64,0,16,,,,,7,,,52,100
31488,note_on,,,,,64,0,14,,,,,6,,,40,85
31488,note_on,,,,,64,0,9,,,,,1,,,72,85
31616,note_off,,,,,0,0,15,,,,,7,,,72,100
31616,note_off,,,,,128,0,15,,,,,7,,,67,100
31676,note_off,,,,,188,0,11,,,,,3,,,72,100
31676,note_off,,,,,188,0,8,,,,,0,,,79,100
31676,note_off,,,,,188,0,9,,,,,1,,,72,100
31676,note_off,,,,,188,0,10,,,,,2,,,79,100
31680,note_on,,,,,4,0,11,,,,,3,,,79,35
31680,note_on,,,,,4,0,10,,,,,2,,,72,85
31680,note_on,,,,,4,0,8,,,,,0,,,72,35
31680,note_on,,,,,4,0,9,,,,,1,,,79,85
31744,note_off,,,,,256,0,13,,,,,5,,,52,100
31744,note_off,,,,,256,0,14,,,,,6,,,40,100
31744,note_off,,,,,256,0,16,,,,,7,,,52,100
31744,note_off,,,,,256,0,12,,,,,4,,,72,100
31808,note_off,,,,,128,0,11,,,,,3,,,79,100
31808,note_off,,,,,128,0,9,,,,,1,,,79,100
31808,note_off,,,,,128,0,10,,,,,2,,,72,100
31808,note_off,,,,,128,0,8,,,,,0,,,72,100
31872,note_on,,,,,64,0,8,,,,,0,,,81,35
31872,note_on,,,,,64,0,9,,,,,1,,,72,85
31872,note_on,,,,,64,0,10,,,,,2,,,81,85
31872,note_on,,,,,64,0,11,,,,,3,,,72,35
32060,note_off,,,,,188,0,8,,,,,0,,,81,100
32060,note_off,,,,,188,0,10,,,,,2,,,81,100
32060,note_off,,,,,188,0,9,,,,,1,,,72,100
32060,note_off,,,,,188,0,11,,,,,3,,,72,100
32064,note_on,,,,,4,0,11,,,,,3,,,81,35
32064,note_on,,,,,320,0,16,,,,,7,,,53,100
32064,note_on,,,,,320,0,12,,,,,4,,,65,85
32064,note_on,,,,,320,0,13,,,,,5,,,53,85
32064,note_on,,,,,4,0,9,,,,,1,,,81,85
32064,note_on,,,,,4,0,10,,,,,2,,,72,85
32064,note_on,,,,,320,0,14,,,,,6,,,41,85
32064,note_on,,,,,448,0,15,,,,,7,,,69,100
32064,note_on,,,,,0,0,15,,,,,7,,,72,100
32064,note_on,,,,,4,0,8,,,,,0,,,72,35
32192,note_off,,,,,128,0,11,,,,,3,,,81,100
32192,note_off,,,,,128,0,9,,,,,1,,,81,100
32192,note_off,,,,,128,0,14,,,,,6,,,41,100
32192,note_off,,,,,128,0,10,,,,,2,,,72,100
32192,note_off,,,,,128,0,13,,,,,5,,,53,100
32192,note_off,,,,,128,0,15,,,,,7,,,69,100
32192,note_off,,,,,128,0,12,,,,,4,,,65,100
32192,note_off,,,,,0,0,15,,,,,7,,,72,100
32192,note_off,,,,,128,0,16,,,,,7,,,53,100
32192,note_off,,,,,128,0,8,,,,,0,,,72,100
32256,note_on,,,,,64,0,8,,,,,0,,,82,35
32256,note_on,,,,,64,0,12,,,,,4,,,64,85
32256,note_on,,,,,64,0,14,,,,,6,,,36,85
32256,note_on,,,,,64,0,9,,,,,1,,,79,85
32256,note_on,,,,,64,0,11,,,,,3,,,79,35
32256,note_on,,,,,64,0,16,,,,,7,,,48,100
32256,note_on,,,,,64,0,10,,,,,2,,,82,85
32256,note_on,,,,,0,0,15,,,,,7,,,70,100
32256,note_on,,,,,64,0,15,,,,,7,,,67,100
32256,note_on,,,,,64,0,13,,,,,5,,,48,85
32384,note_off,,,,,0,0,15,,,,,7,,,70,100
32384,note_off,,,,,128,0,15,,,,,7,,,67,100
32384,note_off,,,,,128,0,13,,,,,5,,,48,100
32384,note_off,,,,,128,0,14,,,,,6,,,36,100
32384,note_off,,,,,128,0,16,,,,,7,,,48,100
32448,note_on,,,,,64,0,14,,,,,6,,,38,85
32448,note_on,,,,,64,0,16,,,,,7,,,50,100
32448,note_on,,,,,64,0,15,,,,,7,,,67,100
32448,note_on,,,,,0,0,15,,,,,7,,,72,100
32448,note_on,,,,,64,0,13,,,,,5,,,50,85
32576,note_off,,,,,128,0,16,,,,,7,,,50,100
32576,note_off,,,,,128,0,15,,,,,7,,,67,100
32576,note_off,,,,,0,0,15,,,,,7,,,72,100
32576,note_off,,,,,128,0,14,,,,,6,,,38,100
32576,note_off,,,,,128,0,13,,,,,5,,,50,100
32640,note_on,,,,,64,0,16,,,,,7,,,52,100
32640,note_on,,,,,0,0,15,,,,,7,,,72,100
32640,note_off,,,,,384,0,12,,,,,4,,,64,100
32640,note_on,,,,,64,0,15,,,,,7,,,70,100
32640,note_on,,,,,64,0,13,,,,,5,,,52,85
32640,note_off,,,,,384,0,8,,,,,0,,,82,100
32640,note_off,,,,,384,0,9,,,,,1,,,79,100
32640,note_off,,,,,384,0,10,,,,,2,,,82,100
32640,note_on,,,,,64,0,14,,,,,6,,,40,85
32640,note_off,,,,,384,0,11,,,,,3,,,79,100
32768,note_off,,,,,128,0,13,,,,,5,,,52,100
32768,note_off,,,,,128,0,16,,,,,7,,,52,100
32768,note_off,,,,,0,0,15,,,,,7,,,72,100
32768,note_off,,,,,128,0,15,,,,,7,,,70,100
32768,note_off,,,,,128,0,14,,,,,6,,,40,100
32832,note_on,,,,,192,0,8,,,,,0,,,81,35
32832,note_on,,,,,64,0,16,,,,,7,,,48,100
32832,note_on,,,,,64,0,13,,,,,5,,,48,85
32832,note_on,,,,,64,0,14,,,,,6,,,36,85
32832,note_on,,,,,192,0,10,,,,,2,,,81,85
32832,note_on,,,,,192,0,12,,,,,4,,,64,85
32832,note_on,,,,,192,0,9,,,,,1,,,77,85
32832,note_on,,,,,192,0,11,,,,,3,,,77,35
32832,note_on,,,,,0,0,15,,,,,7,,,70,100
32832,note_on,,,,,64,0,15,,,,,7,,,67,100
32896,note_off,,,,,64,0,9,,,,,1,,,77,100
32896,note_off,,,,,64,0,11,,,,,3,,,77,100
32896,note_off,,,,,64,0,10,,,,,2,,,81,100
32896,note_off,,,,,64,0,8,,,,,0,,,81,100
32928,note_on,,,,,32,0,9,,,,,1,,,76,85
32928,note_on,,,,,32,0,11,,,,,3,,,76,35
32928,note_on,,,,,32,0,10,,,,,2,,,79,85
32928,note_on,,,,,32,0,8,,,,,0,,,79,35
32960,note_off,,,,,128,0,13,,,,,5,,,48,100
32960,note_off,,,,,128,0,14,,,,,6,,,36,100
32960,note_off,,,,,0,0,15,,,,,7,,,70,100
32960,note_off,,,,,128,0,15,,,,,7,,,67,100
32960,note_off,,,,,128,0,12,,,,,4,,,64,100
32960,note_off,,,,,128,0,16,,,,,7,,,48,100
32992,note_off,,,,,64,0,11,,,,,3,,,76,100
32992,note_off,,,,,64,0,8,,,,,0,,,79,100
32992,note_off,,,,,64,0,9,,,,,1,,,76,100
32992,note_off,,,,,64,0,10,,,,,2,,,79,100
33024,note_on,,,,,32,0,8,,,,,0,,,81,35
33024,note_on,,,,,64,0,16,,,,,7,,,53,100
33024,note_on,,,,,32,0,10,,,,,2,,,81,85
33024,note_on,,,,,32,0,11,,,,,3,,,77,35
33024,note_on,,,,,64,0,12,,,,,4,,,60,85
33024,note_on,,,,,64,0,14,,,,,6,,,41,85
33024,note_on,,,,,32,0,9,,,,,1,,,77,85
33024,note_on,,,,,0,0,15,,,,,7,,,69,100
33024,note_on,,,,,64,0,15,,,,,7,,,72,100
33024,note_on,,,,,64,0,13,,,,,5,,,53,85
33152,note_off,,,,,128,0,13,,,,,5,,,53,100
33152,note_off,,,,,128,0,10,,,,,2,,,81,100
33152,note_off,,,,,128,0,12,,,,,4,,,60,100
33152,note_off,,,,,128,0,14,,,,,6,,,41,100
33152,note_off,,,,,128,0,9,,,,,1,,,77,100
33152,note_off,,,,,0,0,15,,,,,7,,,69,100
33152,note_off,,,,,128,0,15,,,,,7,,,72,100
33152,note_off,,,,,128,0,8,,,,,0,,,81,100
33152,note_off,,,,,128,0,16,,,,,7,,,53,100
33152,note_off,,,,,128,0,11,,,,,3,,,77,100
33216,note_on,,,,,64,0,11,,,,,3,,,74,35
33216,note_on,,,,,64,0,10,,,,,2,,,77,85
33216,note_on,,,,,64,0,16,,,,,7,,,58,100
33216,note_on,,,,,64,0,13,,,,,5,,,58,85
33216,note_on,,,,,64,0,12,,,,,4,,,62,85
33216,note_on,,,,,64,0,9,,,,,1,,,74,85
33216,note_on,,,,,0,0,15,,,,,7,,,74,100
33216,note_on,,,,,64,0,15,,,,,7,,,65,100
33216,note_on,,,,,64,0,14,,,,,6,,,46,85
33216,note_on,,,,,64,0,8,,,,,0,,,77,35
33344,note_off,,,,,128,0,13,,,,,5,,,58,100
33344,note_off,,,,,128,0,14,,,,,6,,,46,100
33344,note_off,,,,,128,0,16,,,,,7,,,58,100
33344,note_off,,,,,128,0,12,,,,,4,,,62,100
33344,note_off,,,,,128,0,9,,,,,1,,,74,100
33344,note_off,,,,,128,0,11,,,,,3,,,74,100
33344,note_off,,,,,128,0,8,,,,,0,,,77,100
33344,note_off,,,,,0,0,15,,,,,7,,,74,100
33344,note_off,,,,,128,0,15,,,,,7,,,65,100
33344,note_off,,,,,128,0,10,,,,,2,,,77,100
33408,note_on,,,,,64,0,8,,,,,0,,,67,35
33408,note_on,,,,,64,0,10,,,,,2,,,67,85
33408,note_on,,,,,0,0,15,,,,,7,,,67,100
33408,note_on,,,,,64,0,16,,,,,7,,,60,100
33408,note_on,,,,,64,0,15,,,,,7,,,65,100
33408,note_on,,,,,64,0,11,,,,,3,,,64,35
33408,note_on,,,,,64,0,14,,,,,6,,,48,85
33408,note_on,,,,,64,0,13,,,,,5,,,60,85
33408,note_on,,,,,64,0,12,,,,,4,,,60,85
33408,note_on,,,,,64,0,9,,,,,1,,,64,85
33536,note_off,,,,,128,0,16,,,,,7,,,60,100
33536,note_off,,,,,128,0,11,,,,,3,,,64,100
33536,note_off,,,,,128,0,13,,,,,5,,,60,100
33536,note_off,,,,,128,0,8,,,,,0,,,67,100
33536,note_off,,,,,128,0,12,,,,,4,,,60,100
33536,note_off,,,,,128,0,14,,,,,6,,,48,100
33536,note_off,,,,,128,0,10,,,,,2,,,67,100
33536,note_off,,,,,128,0,9,,,,,1,,,64,100
33536,note_off,,,,,0,0,15,,,,,7,,,67,100
33536,note_off,,,,,128,0,15,,,,,7,,,65,100
33600,note_on,,,,,64,0,8,,,,,0,,,76,35
33600,note_on,,,,,64,0,14,,,,,6,,,36,85
33600,note_on,,,,,64,0,9,,,,,1,,,76,85
33600,note_on,,,,,0,0,15,,,,,7,,,67,100
33600,note_on,,,,,64,0,16,,,,,7,,,48,100
33600,note_on,,,,,64,0,15,,,,,7,,,64,100
33600,note_on,,,,,64,0,13,,,,,5,,,48,85
33600,note_on,,,,,64,0,10,,,,,2,,,72,85
33600,note_on,,,,,64,0,12,,,,,4,,,60,85
33600,note_on,,,,,64,0,11,,,,,3,,,76,35
33728,note_off,,,,,128,0,13,,,,,5,,,48,100
33728,note_off,,,,,128,0,11,,,,,3,,,76,100
33728,note_off,,,,,128,0,12,,,,,4,,,60,100
33728,note_off,,,,,128,0,15,,,,,7,,,64,100
33728,note_off,,,,,0,0,15,,,,,7,,,67,100
33728,note_off,,,,,128,0,16,,,,,7,,,48,100
33728,note_off,,,,,128,0,8,,,,,0,,,76,100
33728,note_off,,,,,128,0,14,,,,,6,,,36,100
33728,note_off,,,,,128,0,9,,,,,1,,,76,100
33728,note_off,,,,,128,0,10,,,,,2,,,72,100
33792,note_on,,,,,64,0,12,,,,,4,,,60,85
33792,note_on,,,,,0,0,15,,,,,7,,,69,100
33792,note_on,,,,,64,0,16,,,,,7,,,53,100
33792,note_on,,,,,64,0,13,,,,,5,,,53,85
33792,note_on,,,,,64,0,9,,,,,1,,,69,85
33792,note_on,,,,,64,0,15,,,,,7,,,60,100
33792,note_on,,,,,64,0,14,,,,,6,,,41,85
33792,note_on,,,,,64,0,11,,,,,3,,,77,85
33792,note_on,,,,,64,0,10,,,,,2,,,69,35
33792,note_on,,,,,64,0,8,,,,,0,,,65,85
33920,note_off,,,,,128,0,9,,,,,1,,,69,100
33920,note_off,,,,,128,0,8,,,,,0,,,65,100
33920,note_off,,,,,128,0,10,,,,,2,,,69,100
33980,program_change,,,,,188,0,11,,,,,3,40,,,
33984,note_on,,,,,64,0,10,,,,,2,,,65,10
33984,note_on,,,,,64,0,8,,,,,0,,,65,60
33984,note_on,,,,,64,0,9,,,,,1,,,65,10
34048,note_off,,,,,256,0,13,,,,,5,,,53,100
34048,note_off,,,,,256,0,15,,,,,7,,,60,100
34048,note_off,,,,,0,0,15,,,,,7,,,69,100
34048,note_off,,,,,256,0,12,,,,,4,,,60,100
34048,note_off,,,,,68,0,11,,,,,3,,,77,100
34048,note_off,,,,,256,0,16,,,,,7,,,53,100
34048,note_off,,,,,256,0,14,,,,,6,,,41,100
34112,note_off,,,,,128,0,9,,,,,1,,,65,100
34112,note_off,,,,,128,0,10,,,,,2,,,65,100
34112,note_off,,,,,128,0,8,,,,,0,,,65,100
34176,note_on,,,,,128,0,11,,,,,3,,,72,85
34176,note_on,,,,,64,0,8,,,,,0,,,65,60
34176,note_on,,,,,64,0,10,,,,,2,,,65,10
34176,note_on,,,,,64,0,9,,,,,1,,,65,10
34304,note_off,,,,,128,0,9,,,,,1,,,65,100
34304,note_off,,,,,128,0,8,,,,,0,,,65,100
34304,note_off,,,,,128,0,10,,,,,2,,,65,100
34368,note_off,,,,,192,0,11,,,,,3,,,72,100
34368,note_on,,,,,64,0,8,,,,,0,,,65,60
34368,note_on,,,,,64,0,9,,,,,1,,,65,10
34368,note_on,,,,,64,0,10,,,,,2,,,65,10
34464,note_on,,,,,96,0,11,,,,,3,,,77,85
34496,note_off,,,,,128,0,9,,,,,1,,,65,100
34496,note_off,,,,,128,0,10,,,,,2,,,65,100
34496,note_off,,,,,128,0,8,,,,,0,,,65,100
34528,note_off,,,,,64,0,11,,,,,3,,,77,100
34560,note_on,,,,,64,0,10,,,,,2,,,64,10
34560,note_on,,,,,64,0,9,,,,,1,,,64,10
34560,note_on,,,,,64,0,8,,,,,0,,,64,60
34560,note_on,,,,,32,0,11,,,,,3,,,79,85
34688,note_off,,,,,128,0,10,,,,,2,,,64,100
34688,note_off,,,,,128,0,9,,,,,1,,,64,100
34688,note_off,,,,,128,0,8,,,,,0,,,64,100
34752,note_on,,,,,64,0,8,,,,,0,,,64,60
34752,note_on,,,,,64,0,9,,,,,1,,,64,10
34752,note_on,,,,,64,0,10,,,,,2,,,64,10
34816,note_off,,,,,256,0,11,,,,,3,,,79,100
34880,note_off,,,,,128,0,9,,,,,1,,,64,100
34880,note_off,,,,,128,0,8,,,,,0,,,64,100
34880,note_off,,,,,128,0,10,,,,,2,,,64,100
34944,note_on,,,,,64,0,8,,,,,0,,,64,60
34944,note_on,,,,,64,0,10,,,,,2,,,64,10
34944,note_on,,,,,64,0,9,,,,,1,,,64,10
34944,note_on,,,,,128,0,11,,,,,3,,,72,85
35072,note_off,,,,,128,0,8,,,,,0,,,64,100
35072,note_off,,,,,128,0,9,,,,,1,,,64,100
35072,note_off,,,,,128,0,10,,,,,2,,,64,100
35136,note_on,,,,,64,0,9,,,,,1,,,64,10
35136,note_on,,,,,64,0,10,,,,,2,,,64,10
35136,note_off,,,,,192,0,11,,,,,3,,,72,100
35136,note_on,,,,,64,0,8,,,,,0,,,64,60
35232,note_on,,,,,96,0,11,,,,,3,,,79,85
35264,note_off,,,,,128,0,10,,,,,2,,,64,100
35264,note_off,,,,,128,0,8,,,,,0,,,64,100
35264,note_off,,,,,128,0,9,,,,,1,,,64,100
35296,note_off,,,,,64,0,11,,,,,3,,,79,100
35328,note_on,,,,,64,0,8,,,,,0,,,65,60
35328,note_on,,,,,64,0,9,,,,,1,,,65,10
35328,note_on,,,,,32,0,11,,,,,3,,,81,85
35328,note_on,,,,,64,0,10,,,,,2,,,65,10
35456,note_off,,,,,128,0,9,,,,,1,,,65,100
35456,note_off,,,,,128,0,10,,,,,2,,,65,100
35456,note_off,,,,,128,0,8,,,,,0,,,65,100
35520,note_on,,,,,64,0,10,,,,,2,,,65,10
35520,note_on,,,,,64,0,9,,,,,1,,,65,10
35520,note_on,,,,,64,0,8,,,,,0,,,65,60
35584,note_off,,,,,256,0,11,,,,,3,,,81,100
35648,note_off,,,,,128,0,9,,,,,1,,,65,100
35648,note_off,,,,,128,0,8,,,,,0,,,65,100
35648,note_off,,,,,128,0,10,,,,,2,,,65,100
35712,note_on,,,,,64,0,10,,,,,2,,,65,10
35712,note_on,,,,,128,0,11,,,,,3,,,77,85
35712,note_on,,,,,64,0,9,,,,,1,,,65,10
35712,note_on,,,,,64,0,8,,,,,0,,,65,60
35840,note_off,,,,,128,0,10,,,,,2,,,65,100
35840,note_off,,,,,128,0,9,,,,,1,,,65,100
35840,note_off,,,,,128,0,8,,,,,0,,,65,100
35904,note_on,,,,,64,0,8,,,,,0,,,65,60
35904,note_on,,,,,64,0,9,,,,,1,,,65,10
35904,note_on,,,,,64,0,10,,,,,2,,,65,10
35904,note_off,,,,,192,0,11,,,,,3,,,77,100
36000,note_on,,,,,96,0,11,,,,,3,,,81,85
36032,note_off,,,,,128,0,9,,,,,1,,,65,100
36032,note_off,,,,,128,0,10,,,,,2,,,65,100
36032,note_off,,,,,128,0,8,,,,,0,,,65,100
36064,note_off,,,,,64,0,11,,,,,3,,,81,100
36096,note_on,,,,,64,0,9,,,,,1,,,60,10
36096,note_on,,,,,32,0,11,,,,,3,,,79,85
36096,note_on,,,,,64,0,10,,,,,2,,,60,10
36096,note_on,,,,,64,0,8,,,,,0,,,60,60
36224,note_off,,,,,128,0,8,,,,,0,,,60,100
36224,note_off,,,,,128,0,10,,,,,2,,,60,100
36224,note_off,,,,,128,0,9,,,,,1,,,60,100
36288,note_on,,,,,64,0,9,,,,,1,,,60,10
36288,note_on,,,,,64,0,8,,,,,0,,,60,60
36288,note_on,,,,,64,0,10,,,,,2,,,60,10
36352,note_off,,,,,256,0,11,,,,,3,,,79,100
36416,note_off,,,,,128,0,9,,,,,1,,,60,100
36416,note_off,,,,,128,0,8,,,,,0,,,60,100
36416,note_off,,,,,128,0,10,,,,,2,,,60,100
36480,note_on,,,,,64,0,9,,,,,1,,,60,10
36480,note_on,,,,,64,0,8,,,,,0,,,60,60
36480,note_on,,,,,64,0,10,,,,,2,,,60,10
36480,note_on,,,,,128,0,11,,,,,3,,,72,85
36608,note_off,,,,,128,0,8,,,,,0,,,60,100
36608,note_off,,,,,128,0,10,,,,,2,,,60,100
36608,note_off,,,,,128,0,9,,,,,1,,,60,100
36672,note_on,,,,,64,0,10,,,,,2,,,60,10
36672,note_on,,,,,64,0,8,,,,,0,,,60,60
36672,note_on,,,,,64,0,9,,,,,1,,,60,10
36736,note_off,,,,,256,0,11,,,,,3,,,72,100
36800,note_off,,,,,128,0,8,,,,,0,,,60,100
36800,note_off,,,,,128,0,10,,,,,2,,,60,100
36800,note_off,,,,,128,0,9,,,,,1,,,60,100
36864,note_on,,,,,128,0,11,,,,,3,,,81,85
36864,note_on,,,,,64,0,9,,,,,1,,,65,10
36864,note_on,,,,,64,0,8,,,,,0,,,65,60
36864,note_on,,,,,64,0,10,,,,,2,,,65,10
36992,note_off,,,,,128,0,10,,,,,2,,,65,100
36992,note_off,,,,,128,0,9,,,,,1,,,65,100
36992,note_off,,,,,128,0,8,,,,,0,,,65,100
37056,note_on,,,,,64,0,10,,,,,2,,,65,10
37056,note_on,,,,,64,0,8,,,,,0,,,65,60
37056,note_on,,,,,64,0,9,,,,,1,,,65,10
37120,note_off,,,,,256,0,11,,,,,3,,,81,100
37184,note_off,,,,,128,0,9,,,,,1,,,65,100
37184,note_off,,,,,128,0,10,,,,,2,,,65,100
37184,note_off,,,,,128,0,8,,,,,0,,,65,100
37248,note_on,,,,,64,0,10,,,,,2,,,65,10
37248,note_on,,,,,64,0,9,,,,,1,,,65,10
37248,note_on,,,,,64,0,8,,,,,0,,,65,60
37248,note_on,,,,,128,0,11,,,,,3,,,77,85
37376,note_off,,,,,128,0,9,,,,,1,,,65,100
37376,note_off,,,,,128,0,8,,,,,0,,,65,100
37376,note_off,,,,,128,0,10,,,,,2,,,65,100
37440,note_on,,,,,64,0,10,,,,,2,,,65,10
37440,note_on,,,,,64,0,9,,,,,1,,,65,10
37440,note_on,,,,,64,0,8,,,,,0,,,65,60
37440,note_off,,,,,192,0,11,,,,,3,,,77,100
37536,note_on,,,,,96,0,11,,,,,3,,,81,85
37568,note_off,,,,,128,0,9,,,,,1,,,65,100
37568,note_off,,,,,128,0,8,,,,,0,,,65,100
37568,note_off,,,,,128,0,10,,,,,2,,,65,100
37600,note_off,,,,,64,0,11,,,,,3,,,81,100
37632,note_on,,,,,64,0,8,,,,,0,,,67,60
37632,note_on,,,,,64,0,9,,,,,1,,,67,10
37632,note_on,,,,,32,0,11,,,,,3,,,71,85
37632,note_on,,,,,64,0,10,,,,,2,,,67,10
37760,note_off,,,,,128,0,9,,,,,1,,,67,100
37760,note_off,,,,,128,0,8,,,,,0,,,67,100
37760,note_off,,,,,128,0,10,,,,,2,,,67,100
37824,note_on,,,,,64,0,8,,,,,0,,,65,60
37824,note_on,,,,,64,0,10,,,,,2,,,65,10
37824,note_on,,,,,64,0,9,,,,,1,,,65,10
37888,note_off,,,,,256,0,11,,,,,3,,,71,100
37952,note_off,,,,,128,0,8,,,,,0,,,65,100
37952,note_off,,,,,128,0,10,,,,,2,,,65,100
37952,note_off,,,,,128,0,9,,,,,1,,,65,100
38016,note_on,,,,,64,0,8,,,,,0,,,64,60
38016,note_on,,,,,64,0,10,,,,,2,,,64,10
38016,note_on,,,,,64,0,9,,,,,1,,,64,10
38016,note_on,,,,,128,0,11,,,,,3,,,72,85
38144,note_off,,,,,128,0,8,,,,,0,,,64,100
38144,note_off,,,,,128,0,10,,,,,2,,,64,100
38144,note_off,,,,,128,0,9,,,,,1,,,64,100
38208,note_off,,,,,192,0,11,,,,,3,,,72,100
38208,note_on,,,,,64,0,8,,,,,0,,,62,60
38208,note_on,,,,,64,0,9,,,,,1,,,62,10
38208,note_on,,,,,64,0,10,,,,,2,,,62,10
38304,note_on,,,,,96,0,11,,,,,3,,,77,85
38336,note_off,,,,,128,0,8,,,,,0,,,62,100
38336,note_off,,,,,128,0,9,,,,,1,,,62,100
38336,note_off,,,,,128,0,10,,,,,2,,,62,100
38368,note_off,,,,,64,0,11,,,,,3,,,77,100
38400,note_on,,,,,32,0,11,,,,,3,,,76,85
38400,note_on,,,,,64,0,8,,,,,0,,,60,60
38400,note_on,,,,,64,0,9,,,,,1,,,60,10
38400,note_on,,,,,64,0,10,,,,,2,,,60,10
38528,note_off,,,,,128,0,9,,,,,1,,,60,100
38528,note_off,,,,,128,0,10,,,,,2,,,60,100
38528,note_off,,,,,128,0,8,,,,,0,,,60,100
38592,note_on,,,,,64,0,8,,,,,0,,,65,60
38592,note_on,,,,,64,0,10,,,,,2,,,65,10
38592,note_on,,,,,64,0,9,,,,,1,,,65,10
38656,note_off,,,,,256,0,11,,,,,3,,,76,100
38720,note_off,,,,,128,0,8,,,,,0,,,65,100
38720,note_off,,,,,128,0,10,,,,,2,,,65,100
38720,note_off,,,,,128,0,9,,,,,1,,,65,100
38784,note_on,,,,,64,0,8,,,,,0,,,67,60
38784,note_on,,,,,64,0,9,,,,,1,,,67,10
38784,note_on,,,,,64,0,10,,,,,2,,,67,10
38784,note_on,,,,,128,0,11,,,,,3,,,74,85
38912,note_off,,,,,128,0,9,,,,,1,,,67,100
38912,note_off,,,,,128,0,8,,,,,0,,,67,100
38912,note_off,,,,,128,0,10,,,,,2,,,67,100
38976,note_on,,,,,64,0,9,,,,,1,,,55,10
38976,note_on,,,,,64,0,10,,,,,2,,,55,10
38976,note_on,,,,,64,0,8,,,,,0,,,55,60
39040,note_off,,,,,256,0,11,,,,,3,,,74,100
39104,note_off,,,,,128,0,8,,,,,0,,,55,100
39104,note_off,,,,,128,0,10,,,,,2,,,55,100
39104,note_off,,,,,128,0,9,,,,,1,,,55,100
39168,note_on,,,,,64,0,8,,,,,0,,,60,60
39168,note_on,,,,,5120,0,15,,,,,7,,,67,100
39168,note_on,,,,,5120,0,13,,,,,5,,,48,70
39168,note_on,,,,,128,0,11,,,,,3,,,72,85
39168,note_on,,,,,5120,0,14,,,,,6,,,36,70
39168,note_on,,,,,64,0,9,,,,,1,,,60,10
39168,note_on,,,,,0,0,15,,,,,7,,,64,100
39168,note_on,,,,,5120,0,16,,,,,7,,,48,100
39168,note_on,,,,,64,0,10,,,,,2,,,60,10
39296,note_off,,,,,128,0,13,,,,,5,,,48,100
39296,note_off,,,,,128,0,16,,,,,7,,,48,100
39296,note_off,,,,,128,0,14,,,,,6,,,36,100
39296,note_off,,,,,0,0,15,,,,,7,,,64,100
39296,note_off,,,,,128,0,15,,,,,7,,,67,100
39360,note_on,,,,,64,0,15,,,,,7,,,67,100
39360,note_on,,,,,64,0,16,,,,,7,,,50,100
39360,note_on,,,,,64,0,14,,,,,6,,,38,70
39360,note_on,,,,,0,0,15,,,,,7,,,65,100
39360,note_on,,,,,64,0,13,,,,,5,,,50,70
39424,note_off,,,,,256,0,10,,,,,2,,,60,100
39424,note_off,,,,,256,0,11,,,,,3,,,72,100
39424,note_off,,,,,256,0,9,,,,,1,,,60,100
39424,note_off,,,,,256,0,8,,,,,0,,,60,100
39488,note_off,,,,,128,0,16,,,,,7,,,50,100
39488,note_off,,,,,128,0,14,,,,,6,,,38,100
39488,note_off,,,,,128,0,15,,,,,7,,,67,100
39488,note_off,,,,,0,0,15,,,,,7,,,65,100
39488,note_off,,,,,128,0,13,,,,,5,,,50,100
39552,note_on,,,,,0,0,15,,,,,7,,,67,100
39552,note_on,,,,,64,0,16,,,,,7,,,48,100
39552,note_on,,,,,64,0,14,,,,,6,,,36,70
39552,note_on,,,,,64,0,15,,,,,7,,,64,100
39552,program_change,,,,,128,0,9,,,,,1,40,,,
39552,program_change,,,,,128,0,11,,,,,3,48,,,
39552,note_on,,,,,64,0,13,,,,,5,,,48,70
39648,note_on,,,,,96,0,9,,,,,1,,,77,85
39680,note_off,,,,,128,0,16,,,,,7,,,48,100
39680,note_off,,,,,128,0,14,,,,,6,,,36,100
39680,note_off,,,,,128,0,13,,,,,5,,,48,100
39680,note_off,,,,,0,0,15,,,,,7,,,67,100
39680,note_off,,,,,128,0,15,,,,,7,,,64,100
39712,note_off,,,,,64,0,9,,,,,1,,,77,100
39744,note_on,,,,,64,0,16,,,,,7,,,46,100
39744,note_on,,,,,64,0,13,,,,,5,,,46,70
39744,note_on,,,,,32,0,9,,,,,1,,,76,85
39744,note_on,,,,,64,0,14,,,,,6,,,34,70
39744,note_on,,,,,64,0,15,,,,,7,,,62,100
39744,note_on,,,,,0,0,15,,,,,7,,,65,100
39808,note_off,,,,,64,0,9,,,,,1,,,76,100
39840,note_on,,,,,32,0,9,,,,,1,,,77,85
39872,note_off,,,,,128,0,13,,,,,5,,,46,100
39872,note_off,,,,,0,0,15,,,,,7,,,65,100
39872,note_off,,,,,128,0,14,,,,,6,,,34,100
39872,note_off,,,,,128,0,15,,,,,7,,,62,100
39872,note_off,,,,,128,0,16,,,,,7,,,46,100
39904,note_off,,,,,64,0,9,,,,,1,,,77,100
39936,note_on,,,,,64,0,13,,,,,5,,,45,70
39936,note_on,,,,,0,0,12,,,,,4,,,69,70
39936,note_on,,,,,64,0,16,,,,,7,,,45,100
39936,note_on,,,,,64,0,14,,,,,6,,,33,70
39936,note_on,,,,,384,0,11,,,,,3,,,72,70
39936,note_on,,,,,5888,0,12,,,,,4,,,65,70
39936,note_on,,,,,512,0,8,,,,,0,,,77,70
39936,note_on,,,,,512,0,10,,,,,2,,,77,20
39936,note_on,,,,,32,0,9,,,,,1,,,72,85
39936,note_on,,,,,0,0,15,,,,,7,,,64,100
39936,note_on,,,,,64,0,15,,,,,7,,,60,100
40000,note_off,,,,,64,0,9,,,,,1,,,72,100
40032,note_on,,,,,32,0,9,,,,,1,,,77,85
40096,note_off,,,,,64,0,9,,,,,1,,,77,100
40128,note_on,,,,,32,0,9,,,,,1,,,76,85
40192,note_off,,,,,64,0,9,,,,,1,,,76,100
40192,note_off,,,,,256,0,13,,,,,5,,,45,100
40192,note_off,,,,,256,0,11,,,,,3,,,72,100
40192,note_off,,,,,0,0,12,,,,,4,,,69,100
40192,note_off,,,,,256,0,12,,,,,4,,,65,100
40192,note_off,,,,,256,0,14,,,,,6,,,33,100
40192,note_off,,,,,256,0,16,,,,,7,,,45,100
40192,note_off,,,,,0,0,15,,,,,7,,,64,100
40192,note_off,,,,,256,0,10,,,,,2,,,77,100
40192,note_off,,,,,256,0,8,,,,,0,,,77,100
40192,note_off,,,,,256,0,15,,,,,7,,,60,100
40224,note_on,,,,,32,0,9,,,,,1,,,77,85
40288,note_off,,,,,64,0,9,,,,,1,,,77,100
40320,note_on,,,,,32,0,9,,,,,1,,,72,85
40384,note_off,,,,,64,0,9,,,,,1,,,72,100
40416,note_on,,,,,32,0,9,,,,,1,,,77,86
40480,note_off,,,,,64,0,9,,,,,1,,,77,100
40512,note_on,,,,,32,0,9,,,,,1,,,76,86
40576,note_off,,,,,64,0,9,,,,,1,,,76,100
40608,note_on,,,,,32,0,9,,,,,1,,,77,86
40672,note_off,,,,,64,0,9,,,,,1,,,77,100
40704,note_on,,,,,0,0,15,,,,,7,,,62,100
40704,note_on,,,,,512,0,10,,,,,2,,,77,21
40704,note_on,,,,,32,0,9,,,,,1,,,74,86
40704,note_on,,,,,512,0,14,,,,,6,,,34,71
40704,note_on,,,,,512,0,15,,,,,7,,,65,100
40704,note_on,,,,,512,0,16,,,,,7,,,46,100
40704,note_on,,,,,512,0,11,,,,,3,,,74,71
40704,note_on,,,,,512,0,13,,,,,5,,,46,71
40704,note_on,,,,,512,0,8,,,,,0,,,77,71
40704,note_on,,,,,512,0,12,,,,,4,,,62,71
40704,note_on,,,,,0,0,12,,,,,4,,,70,71
40768,note_off,,,,,64,0,9,,,,,1,,,74,100
40800,note_on,,,,,32,0,9,,,,,1,,,77,87
40864,note_off,,,,,64,0,9,,,,,1,,,77,100
40896,note_on,,,,,32,0,9,,,,,1,,,76,87
40960,note_off,,,,,256,0,13,,,,,5,,,46,100
40960,note_off,,,,,256,0,14,,,,,6,,,34,100
40960,note_off,,,,,256,0,11,,,,,3,,,74,100
40960,note_off,,,,,256,0,8,,,,,0,,,77,100
40960,note_off,,,,,0,0,12,,,,,4,,,70,100
40960,note_off,,,,,256,0,12,,,,,4,,,62,100
40960,note_off,,,,,0,0,15,,,,,7,,,62,100
40960,note_off,,,,,256,0,15,,,,,7,,,65,100
40960,note_off,,,,,256,0,10,,,,,2,,,77,100
40960,note_off,,,,,256,0,16,,,,,7,,,46,100
40960,note_off,,,,,64,0,9,,,,,1,,,76,100
40992,note_on,,,,,32,0,9,,,,,1,,,77,87
41056,note_off,,,,,64,0,9,,,,,1,,,77,100
41088,note_on,,,,,32,0,9,,,,,1,,,74,87
41152,note_off,,,,,64,0,9,,,,,1,,,74,100
41184,note_on,,,,,32,0,9,,,,,1,,,77,88
41248,note_off,,,,,64,0,9,,,,,1,,,77,100
41280,note_on,,,,,32,0,9,,,,,1,,,76,88
41344,note_off,,,,,64,0,9,,,,,1,,,76,100
41376,note_on,,,,,32,0,9,,,,,1,,,77,88
41440,note_off,,,,,64,0,9,,,,,1,,,77,100
41472,note_on,,,,,512,0,16,,,,,7,,,47,100
41472,note_on,,,,,512,0,10,,,,,2,,,79,23
41472,note_on,,,,,512,0,14,,,,,6,,,35,73
41472,note_on,,,,,0,0,12,,,,,4,,,67,73
41472,note_on,,,,,512,0,8,,,,,0,,,79,73
41472,note_on,,,,,512,0,12,,,,,4,,,59,73
41472,note_on,,,,,512,0,13,,,,,5,,,47,73
41472,note_on,,,,,512,0,11,,,,,3,,,74,73
41472,note_on,,,,,0,0,15,,,,,7,,,62,100
41472,note_on,,,,,512,0,15,,,,,7,,,67,100
41472,note_on,,,,,32,0,9,,,,,1,,,74,88
41536,note_off,,,,,64,0,9,,,,,1,,,74,100
41568,note_on,,,,,32,0,9,,,,,1,,,79,89
41632,note_off,,,,,64,0,9,,,,,1,,,79,100
41664,note_on,,,,,32,0,9,,,,,1,,,77,89
41728,note_off,,,,,256,0,15,,,,,7,,,67,100
41728,note_off,,,,,0,0,15,,,,,7,,,62,100
41728,note_off,,,,,256,0,11,,,,,3,,,74,100
41728,note_off,,,,,256,0,12,,,,,4,,,59,100
41728,note_off,,,,,0,0,12,,,,,4,,,67,100
41728,note_off,,,,,256,0,14,,,,,6,,,35,100
41728,note_off,,,,,256,0,13,,,,,5,,,47,100
41728,note_off,,,,,256,0,10,,,,,2,,,79,100
41728,note_off,,,,,256,0,16,,,,,7,,,47,100
41728,note_off,,,,,64,0,9,,,,,1,,,77,100
41728,note_off,,,,,256,0,8,,,,,0,,,79,100
41760,note_on,,,,,32,0,9,,,,,1,,,79,89
41824,note_off,,,,,64,0,9,,,,,1,,,79,100
41856,note_on,,,,,32,0,9,,,,,1,,,74,89
41920,note_off,,,,,64,0,9,,,,,1,,,74,100
41952,note_on,,,,,32,0,9,,,,,1,,,79,90
42016,note_off,,,,,64,0,9,,,,,1,,,79,100
42048,note_on,,,,,32,0,9,,,,,1,,,77,90
42112,note_off,,,,,64,0,9,,,,,1,,,77,100
42144,note_on,,,,,32,0,9,,,,,1,,,79,90
42208,note_off,,,,,64,0,9,,,,,1,,,79,100
42240,note_on,,,,,512,0,10,,,,,2,,,79,25
42240,note_on,,,,,512,0,15,,,,,7,,,64,100
42240,note_on,,,,,512,0,11,,,,,3,,,76,75
42240,note_on,,,,,512,0,14,,,,,6,,,36,75
42240,note_on,,,,,0,0,12,,,,,4,,,72,75
42240,note_on,,,,,512,0,16,,,,,7,,,48,100
42240,note_on,,,,,512,0,13,,,,,5,,,48,75
42240,note_on,,,,,32,0,9,,,,,1,,,76,90
42240,note_on,,,,,512,0,12,,,,,4,,,64,75
42240,note_on,,,,,512,0,8,,,,,0,,,79,75
42240,note_on,,,,,0,0,15,,,,,7,,,67,100
42304,note_off,,,,,64,0,9,,,,,1,,,76,100
42336,note_on,,,,,32,0,9,,,,,1,,,79,91
42400,note_off,,,,,64,0,9,,,,,1,,,79,100
42432,note_on,,,,,32,0,9,,,,,1,,,77,91
42496,note_off,,,,,0,0,15,,,,,7,,,67,100
42496,note_off,,,,,0,0,12,,,,,4,,,72,100
42496,note_off,,,,,256,0,11,,,,,3,,,76,100
42496,note_off,,,,,256,0,12,,,,,4,,,64,100
42496,note_off,,,,,256,0,13,,,,,5,,,48,100
42496,note_off,,,,,256,0,8,,,,,0,,,79,100
42496,note_off,,,,,256,0,15,,,,,7,,,64,100
42496,note_off,,,,,256,0,14,,,,,6,,,36,100
42496,note_off,,,,,256,0,16,,,,,7,,,48,100
42496,note_off,,,,,64,0,9,,,,,1,,,77,100
42496,note_off,,,,,256,0,10,,,,,2,,,79,100
42528,note_on,,,,,32,0,9,,,,,1,,,79,91
42592,note_off,,,,,64,0,9,,,,,1,,,79,100
42624,note_on,,,,,32,0,9,,,,,1,,,76,91
42688,note_off,,,,,64,0,9,,,,,1,,,76,100
42720,note_on,,,,,32,0,9,,,,,1,,,79,92
42784,note_off,,,,,64,0,9,,,,,1,,,79,100
42816,note_on,,,,,32,0,9,,,,,1,,,77,92
42880,note_off,,,,,64,0,9,,,,,1,,,77,100
42912,note_on,,,,,32,0,9,,,,,1,,,79,92
42976,note_off,,,,,64,0,9,,,,,1,,,79,100
43008,note_on,,,,,0,0,15,,,,,7,,,69,100
43008,note_on,,,,,512,0,15,,,,,7,,,64,100
43008,note_on,,,,,512,0,11,,,,,3,,,76,77
43008,note_on,,,,,32,0,9,,,,,1,,,76,92
43008,note_on,,,,,512,0,16,,,,,7,,,49,100
43008,note_on,,,,,512,0,10,,,,,2,,,81,27
43008,note_on,,,,,512,0,12,,,,,4,,,61,77
43008,note_on,,,,,512,0,13,,,,,5,,,49,77
43008,note_on,,,,,512,0,14,,,,,6,,,37,77
43008,note_on,,,,,512,0,8,,,,,0,,,81,77
43008,note_on,,,,,0,0,12,,,,,4,,,69,77
43072,note_off,,,,,64,0,9,,,,,1,,,76,100
43104,note_on,,,,,32,0,9,,,,,1,,,81,92
43168,note_off,,,,,64,0,9,,,,,1,,,81,100
43200,note_on,,,,,32,0,9,,,,,1,,,79,93
43264,note_off,,,,,256,0,8,,,,,0,,,81,100
43264,note_off,,,,,256,0,13,,,,,5,,,49,100
43264,note_off,,,,,0,0,15,,,,,7,,,69,100
43264,note_off,,,,,256,0,14,,,,,6,,,37,100
43264,note_off,,,,,256,0,12,,,,,4,,,61,100
43264,note_off,,,,,256,0,11,,,,,3,,,76,100
43264,note_off,,,,,64,0,9,,,,,1,,,79,100
43264,note_off,,,,,256,0,15,,,,,7,,,64,100
43264,note_off,,,,,256,0,10,,,,,2,,,81,100
43264,note_off,,,,,256,0,16,,,,,7,,,49,100
43264,note_off,,,,,0,0,12,,,,,4,,,69,100
43296,note_on,,,,,32,0,9,,,,,1,,,81,93
43360,note_off,,,,,64,0,9,,,,,1,,,81,100
43392,note_on,,,,,32,0,9,,,,,1,,,76,93
43456,note_off,,,,,64,0,9,,,,,1,,,76,100
43488,note_on,,,,,32,0,9,,,,,1,,,81,93
43552,note_off,,,,,64,0,9,,,,,1,,,81,100
43584,note_on,,,,,32,0,9,,,,,1,,,79,94
43648,note_off,,,,,64,0,9,,,,,1,,,79,100
43680,note_on,,,,,32,0,9,,,,,1,,,81,94
43744,note_off,,,,,64,0,9,,,,,1,,,81,100
43776,note_on,,,,,0,0,15,,,,,7,,,69,100
43776,note_on,,,,,512,0,11,,,,,3,,,77,79
43776,note_on,,,,,512,0,16,,,,,7,,,50,100
43776,note_on,,,,,0,0,12,,,,,4,,,74,79
43776,note_on,,,,,512,0,15,,,,,7,,,65,100
43776,note_on,,,,,32,0,9,,,,,1,,,77,94
43776,note_on,,,,,512,0,12,,,,,4,,,65,79
43776,note_on,,,,,512,0,8,,,,,0,,,81,79
43776,note_on,,,,,512,0,14,,,,,6,,,38,79
43776,note_on,,,,,512,0,13,,,,,5,,,50,79
43776,note_on,,,,,512,0,10,,,,,2,,,81,29
43840,note_off,,,,,64,0,9,,,,,1,,,77,100
43872,note_on,,,,,32,0,9,,,,,1,,,81,94
43936,note_off,,,,,64,0,9,,,,,1,,,81,100
43968,note_on,,,,,32,0,9,,,,,1,,,79,95
44032,note_off,,,,,256,0,11,,,,,3,,,77,100
44032,note_off,,,,,256,0,8,,,,,0,,,81,100
44032,note_off,,,,,64,0,9,,,,,1,,,79,100
44032,note_off,,,,,256,0,13,,,,,5,,,50,100
44032,note_off,,,,,256,0,12,,,,,4,,,65,100
44032,note_off,,,,,0,0,15,,,,,7,,,69,100
44032,note_off,,,,,256,0,10,,,,,2,,,81,100
44032,note_off,,,,,0,0,12,,,,,4,,,74,100
44032,note_off,,,,,256,0,16,,,,,7,,,50,100
44032,note_off,,,,,256,0,15,,,,,7,,,65,100
44032,note_off,,,,,256,0,14,,,,,6,,,38,100
44064,note_on,,,,,32,0,9,,,,,1,,,81,95
44128,note_off,,,,,64,0,9,,,,,1,,,81,100
44160,note_on,,,,,32,0,9,,,,,1,,,77,95
44224,note_off,,,,,64,0,9,,,,,1,,,77,100
44256,note_on,,,,,32,0,9,,,,,1,,,81,95
44320,note_off,,,,,64,0,9,,,,,1,,,81,100
44352,note_on,,,,,32,0,9,,,,,1,,,79,96
44416,note_off,,,,,64,0,9,,,,,1,,,79,100
44448,note_on,,,,,32,0,9,,,,,1,,,81,96
44512,note_off,,,,,64,0,9,,,,,1,,,81,100
44544,note_on,,,,,0,0,15,,,,,7,,,65,100
44544,note_on,,,,,512,0,14,,,,,6,,,38,81
44544,note_on,,,,,512,0,10,,,,,2,,,82,31
44544,note_on,,,,,512,0,8,,,,,0,,,82,81
44544,note_on,,,,,512,0,15,,,,,7,,,70,100
44544,note_on,,,,,512,0,13,,,,,5,,,50,81
44544,note_on,,,,,512,0,16,,,,,7,,,50,100
44544,note_on,,,,,512,0,11,,,,,3,,,77,81
44544,note_on,,,,,512,0,12,,,,,4,,,62,81
44544,note_on,,,,,0,0,12,,,,,4,,,70,81
44544,note_on,,,,,32,0,9,,,,,1,,,77,96
44608,note_off,,,,,64,0,9,,,,,1,,,77,100
44640,note_on,,,,,32,0,9,,,,,1,,,82,96
44704,note_off,,,,,64,0,9,,,,,1,,,82,100
44736,note_on,,,,,32,0,9,,,,,1,,,81,97
44800,note_off,,,,,256,0,15,,,,,7,,,70,100
44800,note_off,,,,,0,0,15,,,,,7,,,65,100
44800,note_off,,,,,256,0,10,,,,,2,,,82,100
44800,note_off,,,,,256,0,8,,,,,0,,,82,100
44800,note_off,,,,,256,0,14,,,,,6,,,38,100
44800,note_off,,,,,256,0,13,,,,,5,,,50,100
44800,note_off,,,,,0,0,12,,,,,4,,,70,100
44800,note_off,,,,,256,0,16,,,,,7,,,50,100
44800,note_off,,,,,256,0,12,,,,,4,,,62,100
44800,note_off,,,,,64,0,9,,,,,1,,,81,100
44800,note_off,,,,,256,0,11,,,,,3,,,77,100
44832,note_on,,,,,32,0,9,,,,,1,,,82,97
44896,note_off,,,,,64,0,9,,,,,1,,,82,100
44928,note_on,,,,,32,0,9,,,,,1,,,77,97
44992,note_off,,,,,64,0,9,,,,,1,,,77,100
45024,note_on,,,,,32,0,9,,,,,1,,,82,97
45088,note_off,,,,,64,0,9,,,,,1,,,82,100
45120,note_on,,,,,32,0,9,,,,,1,,,81,98
45184,note_off,,,,,64,0,9,,,,,1,,,81,100
45216,note_on,,,,,32,0,9,,,,,1,,,82,98
45280,note_off,,,,,64,0,9,,,,,1,,,82,100
45312,note_on,,,,,0,0,12,,,,,4,,,72,83
45312,note_on,,,,,512,0,12,,,,,4,,,67,83
45312,note_on,,,,,512,0,13,,,,,5,,,48,83
45312,note_on,,,,,512,0,16,,,,,7,,,48,100
45312,note_on,,,,,512,0,15,,,,,7,,,64,100
45312,note_on,,,,,512,0,14,,,,,6,,,36,83
45312,note_on,,,,,0,0,15,,,,,7,,,67,100
45312,note_on,,,,,512,0,8,,,,,0,,,79,83
45312,note_on,,,,,512,0,11,,,,,3,,,76,83
45312,note_on,,,,,32,0,9,,,,,1,,,76,98
45312,note_on,,,,,512,0,10,,,,,2,,,79,33
45440,note_off,,,,,128,0,9,,,,,1,,,76,100
45504,note_on,,,,,64,0,9,,,,,1,,,74,99
45568,note_off,,,,,256,0,15,,,,,7,,,64,100
45568,note_off,,,,,0,0,15,,,,,7,,,67,100
45568,note_off,,,,,256,0,16,,,,,7,,,48,100
45568,note_off,,,,,256,0,13,,,,,5,,,48,100
45568,note_off,,,,,64,0,9,,,,,1,,,74,100
45568,note_off,,,,,256,0,10,,,,,2,,,79,100
45568,note_off,,,,,0,0,12,,,,,4,,,72,100
45568,note_off,,,,,256,0,11,,,,,3,,,76,100
45568,note_off,,,,,256,0,14,,,,,6,,,36,100
45568,note_off,,,,,256,0,8,,,,,0,,,79,100
45568,note_off,,,,,256,0,12,,,,,4,,,67,100
45600,note_on,,,,,32,0,9,,,,,1,,,76,99
45664,note_off,,,,,64,0,9,,,,,1,,,76,100
45696,note_on,,,,,32,0,9,,,,,1,,,72,99
45824,note_off,,,,,128,0,9,,,,,1,,,72,100
45872,program_change,,,,,48,0,9,,,,,1,48,,,
45888,note_on,,,,,320,0,16,,,,,7,,,52,100
45888,note_on,,,,,320,0,14,,,,,6,,,40,99
45888,note_on,,,,,320,0,15,,,,,7,,,72,100
45888,note_on,,,,,0,0,12,,,,,4,,,72,99
45888,note_on,,,,,16,0,9,,,,,1,,,79,99
45888,note_on,,,,,320,0,13,,,,,5,,,52,99
45888,note_on,,,,,320,0,10,,,,,2,,,72,49
45888,note_on,,,,,320,0,12,,,,,4,,,64,99
45888,note_on,,,,,320,0,11,,,,,3,,,79,49
45888,note_on,,,,,320,0,8,,,,,0,,,72,49
45888,note_on,,,,,0,0,15,,,,,7,,,67,100
46016,note_off,,,,,128,0,16,,,,,7,,,52,100
46016,note_off,,,,,128,0,10,,,,,2,,,72,100
46016,note_off,,,,,128,0,8,,,,,0,,,72,100
46016,note_off,,,,,128,0,12,,,,,4,,,64,100
46016,note_off,,,,,0,0,12,,,,,4,,,72,100
46016,note_off,,,,,128,0,9,,,,,1,,,79,100
46016,note_off,,,,,128,0,11,,,,,3,,,79,100
46016,note_off,,,,,128,0,13,,,,,5,,,52,100
46016,note_off,,,,,128,0,15,,,,,7,,,72,100
46016,note_off,,,,,128,0,14,,,,,6,,,40,100
46016,note_off,,,,,0,0,15,,,,,7,,,67,100
46080,note_on,,,,,64,0,14,,,,,6,,,40,85
46080,note_on,,,,,64,0,10,,,,,2,,,79,85
46080,note_on,,,,,64,0,9,,,,,1,,,72,85
46080,note_on,,,,,64,0,12,,,,,4,,,72,85
46080,note_on,,,,,64,0,11,,,,,3,,,72,35
46080,note_on,,,,,64,0,13,,,,,5,,,52,85
46080,note_on,,,,,64,0,16,,,,,7,,,52,100
46080,note_on,,,,,64,0,15,,,,,7,,,67,100
46080,note_on,,,,,0,0,15,,,,,7,,,72,100
46080,note_on,,,,,64,0,8,,,,,0,,,79,35
46268,note_off,,,,,188,0,11,,,,,3,,,72,100
46268,note_off,,,,,188,0,10,,,,,2,,,79,100
46268,note_off,,,,,188,0,8,,,,,0,,,79,100
46268,note_off,,,,,188,0,9,,,,,1,,,72,100
46272,note_on,,,,,4,0,11,,,,,3,,,79,35
46272,note_on,,,,,4,0,10,,,,,2,,,72,85
46272,note_on,,,,,4,0,8,,,,,0,,,72,35
46272,note_on,,,,,4,0,9,,,,,1,,,79,85
46336,note_off,,,,,256,0,16,,,,,7,,,52,100
46336,note_off,,,,,0,0,15,,,,,7,,,72,100
46336,note_off,,,,,256,0,13,,,,,5,,,52,100
46336,note_off,,,,,256,0,14,,,,,6,,,40,100
46336,note_off,,,,,256,0,15,,,,,7,,,67,100
46336,note_off,,,,,256,0,12,,,,,4,,,72,100
46400,note_off,,,,,128,0,10,,,,,2,,,72,100
46400,note_off,,,,,128,0,9,,,,,1,,,79,100
46400,note_off,,,,,128,0,8,,,,,0,,,72,100
46400,note_off,,,,,128,0,11,,,,,3,,,79,100
46464,note_on,,,,,64,0,11,,,,,3,,,72,35
46464,note_on,,,,,64,0,9,,,,,1,,,72,85
46464,note_on,,,,,64,0,8,,,,,0,,,81,35
46464,note_on,,,,,64,0,10,,,,,2,,,81,85
46652,note_off,,,,,188,0,11,,,,,3,,,72,100
46652,note_off,,,,,188,0,8,,,,,0,,,81,100
46652,note_off,,,,,188,0,9,,,,,1,,,72,100
46652,note_off,,,,,188,0,10,,,,,2,,,81,100
46656,note_on,,,,,0,0,15,,,,,7,,,72,100
46656,note_on,,,,,4,0,8,,,,,0,,,72,35
46656,note_on,,,,,4,0,11,,,,,3,,,81,35
46656,note_on,,,,,320,0,16,,,,,7,,,53,100
46656,note_on,,,,,320,0,14,,,,,6,,,41,85
46656,note_on,,,,,320,0,15,,,,,7,,,69,100
46656,note_on,,,,,4,0,10,,,,,2,,,72,85
46656,note_on,,,,,320,0,12,,,,,4,,,65,85
46656,note_on,,,,,4,0,9,,,,,1,,,81,85
46656,note_on,,,,,320,0,13,,,,,5,,,53,85
46784,note_off,,,,,128,0,14,,,,,6,,,41,100
46784,note_off,,,,,128,0,15,,,,,7,,,69,100
46784,note_off,,,,,0,0,15,,,,,7,,,72,100
46784,note_off,,,,,128,0,13,,,,,5,,,53,100
46784,note_off,,,,,128,0,9,,,,,1,,,81,100
46784,note_off,,,,,128,0,11,,,,,3,,,81,100
46784,note_off,,,,,128,0,10,,,,,2,,,72,100
46784,note_off,,,,,128,0,8,,,,,0,,,72,100
46784,note_off,,,,,128,0,12,,,,,4,,,65,100
46784,note_off,,,,,128,0,16,,,,,7,,,53,100
46848,note_on,,,,,64,0,14,,,,,6,,,36,85
46848,note_on,,,,,64,0,13,,,,,5,,,48,85
46848,note_on,,,,,64,0,12,,,,,4,,,64,85
46848,note_on,,,,,64,0,10,,,,,2,,,79,85
46848,note_on,,,,,64,0,9,,,,,1,,,72,85
46848,note_on,,,,,64,0,16,,,,,7,,,48,100
46848,note_on,,,,,64,0,15,,,,,7,,,64,100
46848,note_on,,,,,64,0,11,,,,,3,,,72,35
46848,note_on,,,,,64,0,8,,,,,0,,,79,35
46848,note_on,,,,,0,0,15,,,,,7,,,67,100
47036,note_off,,,,,188,0,11,,,,,3,,,72,100
47036,note_off,,,,,188,0,8,,,,,0,,,79,100
47036,note_off,,,,,188,0,9,,,,,1,,,72,100
47036,note_off,,,,,188,0,10,,,,,2,,,79,100
47040,note_on,,,,,4,0,8,,,,,0,,,72,35
47040,note_on,,,,,4,0,11,,,,,3,,,79,35
47040,note_on,,,,,4,0,10,,,,,2,,,72,85
47040,note_on,,,,,4,0,9,,,,,1,,,79,85
47104,note_off,,,,,256,0,14,,,,,6,,,36,100
47104,note_off,,,,,256,0,16,,,,,7,,,48,100
47104,note_off,,,,,256,0,12,,,,,4,,,64,100
47104,note_off,,,,,256,0,13,,,,,5,,,48,100
47104,note_off,,,,,256,0,15,,,,,7,,,64,100
47104,note_off,,,,,0,0,15,,,,,7,,,67,100
47168,note_off,,,,,128,0,10,,,,,2,,,72,100
47168,note_off,,,,,128,0,8,,,,,0,,,72,100
47168,note_off,,,,,128,0,9,,,,,1,,,79,100
47168,note_off,,,,,128,0,11,,,,,3,,,79,100
47232,note_on,,,,,64,0,9,,,,,1,,,72,85
47232,note_on,,,,,64,0,11,,,,,3,,,72,35
47232,note_on,,,,,64,0,8,,,,,0,,,77,35
47232,note_on,,,,,64,0,10,,,,,2,,,77,85
47420,note_off,,,,,188,0,9,,,,,1,,,72,100
47420,note_off,,,,,188,0,10,,,,,2,,,77,100
47420,note_off,,,,,188,0,8,,,,,0,,,77,100
47420,note_off,,,,,188,0,11,,,,,3,,,72,100
47424,note_on,,,,,320,0,14,,,,,6,,,41,85
47424,note_on,,,,,4,0,10,,,,,2,,,72,85
47424,note_on,,,,,4,0,8,,,,,0,,,72,35
47424,note_on,,,,,4,0,11,,,,,3,,,77,35
47424,note_on,,,,,4,0,9,,,,,1,,,77,85
47424,note_on,,,,,320,0,16,,,,,7,,,53,100
47424,note_on,,,,,320,0,13,,,,,5,,,53,85
47424,note_on,,,,,320,0,12,,,,,4,,,69,85
47424,note_on,,,,,320,0,15,,,,,7,,,69,100
47424,note_on,,,,,0,0,15,,,,,7,,,72,100
47552,note_off,,,,,128,0,11,,,,,3,,,77,100
47552,note_off,,,,,128,0,12,,,,,4,,,69,100
47552,note_off,,,,,128,0,14,,,,,6,,,41,100
47552,note_off,,,,,128,0,15,,,,,7,,,69,100
47552,note_off,,,,,0,0,15,,,,,7,,,72,100
47552,note_off,,,,,128,0,13,,,,,5,,,53,100
47552,note_off,,,,,128,0,10,,,,,2,,,72,100
47552,note_off,,,,,128,0,8,,,,,0,,,72,100
47552,note_off,,,,,128,0,16,,,,,7,,,53,100
47552,note_off,,,,,128,0,9,,,,,1,,,77,100
47616,note_on,,,,,64,0,12,,,,,4,,,72,85
47616,note_on,,,,,64,0,15,,,,,7,,,67,100
47616,note_on,,,,,64,0,11,,,,,3,,,72,35
47616,note_on,,,,,0,0,15,,,,,7,,,72,100
47616,note_on,,,,,64,0,10,,,,,2,,,79,85
47616,note_on,,,,,64,0,8,,,,,0,,,79,35
47616,note_on,,,,,64,0,14,,,,,6,,,40,85
47616,note_on,,,,,64,0,13,,,,,5,,,52,85
47616,note_on,,,,,64,0,9,,,,,1,,,72,85
47616,note_on,,,,,64,0,16,,,,,7,,,52,100
47744,note_off,,,,,0,0,15,,,,,7,,,72,100
47744,note_off,,,,,128,0,15,,,,,7,,,67,100
47804,note_off,,,,,188,0,9,,,,,1,,,72,100
47804,note_off,,,,,188,0,11,,,,,3,,,72,100
47804,note_off,,,,,188,0,10,,,,,2,,,79,100
47804,note_off,,,,,188,0,8,,,,,0,,,79,100
47808,note_on,,,,,4,0,9,,,,,1,,,79,85
47808,note_on,,,,,4,0,11,,,,,3,,,79,35
47808,note_on,,,,,4,0,8,,,,,0,,,72,35
47808,note_on,,,,,4,0,10,,,,,2,,,72,85
47872,note_off,,,,,256,0,12,,,,,4,,,72,100
47872,note_off,,,,,256,0,16,,,,,7,,,52,100
47872,note_off,,,,,256,0,13,,,,,5,,,52,100
47872,note_off,,,,,256,0,14,,,,,6,,,40,100
47936,note_off,,,,,128,0,8,,,,,0,,,72,100
47936,note_off,,,,,128,0,10,,,,,2,,,72,100
47936,note_off,,,,,128,0,11,,,,,3,,,79,100
47936,note_off,,,,,128,0,9,,,,,1,,,79,100
48000,note_on,,,,,64,0,8,,,,,0,,,81,35
48000,note_on,,,,,64,0,11,,,,,3,,,72,35
48000,note_on,,,,,64,0,9,,,,,1,,,72,85
48000,note_on,,,,,64,0,10,,,,,2,,,81,85
48188,note_off,,,,,188,0,11,,,,,3,,,72,100
48188,note_off,,,,,188,0,9,,,,,1,,,72,100
48188,note_off,,,,,188,0,8,,,,,0,,,81,100
48188,note_off,,,,,188,0,10,,,,,2,,,81,100
48192,note_on,,,,,320,0,13,,,,,5,,,53,85
48192,note_on,,,,,320,0,14,,,,,6,,,41,85
48192,note_on,,,,,4,0,11,,,,,3,,,81,35
48192,note_on,,,,,4,0,8,,,,,0,,,72,35
48192,note_on,,,,,320,0,16,,,,,7,,,53,100
48192,note_on,,,,,4,0,10,,,,,2,,,72,85
48192,note_on,,,,,0,0,15,,,,,7,,,72,100
48192,note_on,,,,,448,0,15,,,,,7,,,69,100
48192,note_on,,,,,320,0,12,,,,,4,,,65,85
48192,note_on,,,,,4,0,9,,,,,1,,,81,85
48320,note_off,,,,,128,0,15,,,,,7,,,69,100
48320,note_off,,,,,128,0,16,,,,,7,,,53,100
48320,note_off,,,,,128,0,13,,,,,5,,,53,100
48320,note_off,,,,,128,0,14,,,,,6,,,41,100
48320,note_off,,,,,128,0,11,,,,,3,,,81,100
48320,note_off,,,,,128,0,8,,,,,0,,,72,100
48320,note_off,,,,,128,0,10,,,,,2,,,72,100
48320,note_off,,,,,0,0,15,,,,,7,,,72,100
48320,note_off,,,,,128,0,9,,,,,1,,,81,100
48320,note_off,,,,,128,0,12,,,,,4,,,65,100
48384,note_on,,,,,64,0,10,,,,,2,,,79,85
48384,note_on,,,,,64,0,11,,,,,3,,,72,35
48384,note_on,,,,,64,0,13,,,,,5,,,48,85
48384,note_on,,,,,64,0,9,,,,,1,,,72,85
48384,note_on,,,,,64,0,15,,,,,7,,,64,100
48384,note_on,,,,,64,0,16,,,,,7,,,48,100
48384,note_on,,,,,64,0,12,,,,,4,,,64,85
48384,note_on,,,,,0,0,15,,,,,7,,,67,100
48384,note_on,,,,,64,0,14,,,,,6,,,36,85
48384,note_on,,,,,64,0,8,,,,,0,,,79,35
48572,note_off,,,,,188,0,10,,,,,2,,,79,100
48572,note_off,,,,,188,0,9,,,,,1,,,72,100
48572,note_off,,,,,188,0,11,,,,,3,,,72,100
48572,note_off,,,,,188,0,8,,,,,0,,,79,100
48576,note_on,,,,,4,0,9,,,,,1,,,79,85
48576,note_on,,,,,4,0,11,,,,,3,,,79,35
48576,note_on,,,,,4,0,8,,,,,0,,,72,35
48576,note_on,,,,,4,0,10,,,,,2,,,72,85
48640,note_off,,,,,256,0,14,,,,,6,,,36,100
48640,note_off,,,,,256,0,12,,,,,4,,,64,100
48640,note_off,,,,,256,0,15,,,,,7,,,64,100
48640,note_off,,,,,0,0,15,,,,,7,,,67,100
48640,note_off,,,,,256,0,13,,,,,5,,,48,100
48640,note_off,,,,,256,0,16,,,,,7,,,48,100
48704,note_off,,,,,128,0,10,,,,,2,,,72,100
48704,note_off,,,,,128,0,9,,,,,1,,,79,100
48704,note_off,,,,,128,0,11,,,,,3,,,79,100
48704,note_off,,,,,128,0,8,,,,,0,,,72,100
48768,note_on,,,,,64,0,10,,,,,2,,,77,85
48768,note_on,,,,,64,0,11,,,,,3,,,72,35
48768,note_on,,,,,64,0,8,,,,,0,,,77,35
48768,note_on,,,,,64,0,9,,,,,1,,,72,85
48956,note_off,,,,,188,0,11,,,,,3,,,72,100
48956,note_off,,,,,188,0,10,,,,,2,,,77,100
48956,note_off,,,,,188,0,8,,,,,0,,,77,100
48956,note_off,,,,,188,0,9,,,,,1,,,72,100
48960,note_on,,,,,4,0,9,,,,,1,,,77,85
48960,note_on,,,,,0,0,15,,,,,7,,,72,100
48960,note_on,,,,,320,0,16,,,,,7,,,53,100
48960,note_on,,,,,320,0,14,,,,,6,,,41,85
48960,note_on,,,,,4,0,11,,,,,3,,,77,35
48960,note_on,,,,,4,0,8,,,,,0,,,72,35
48960,note_on,,,,,320,0,13,,,,,5,,,53,85
48960,note_on,,,,,4,0,10,,,,,2,,,72,85
48960,note_on,,,,,320,0,12,,,,,4,,,69,85
48960,note_on,,,,,320,0,15,,,,,7,,,69,100
49088,note_off,,,,,128,0,10,,,,,2,,,72,100
49088,note_off,,,,,128,0,11,,,,,3,,,77,100
49088,note_off,,,,,128,0,14,,,,,6,,,41,100
49088,note_off,,,,,128,0,8,,,,,0,,,72,100
49088,note_off,,,,,128,0,16,,,,,7,,,53,100
49088,note_off,,,,,128,0,15,,,,,7,,,69,100
49088,note_off,,,,,128,0,12,,,,,4,,,69,100
49088,note_off,,,,,128,0,9,,,,,1,,,77,100
49088,note_off,,,,,128,0,13,,,,,5,,,53,100
49088,note_off,,,,,0,0,15,,,,,7,,,72,100
49152,note_on,,,,,64,0,8,,,,,0,,,79,35
49152,note_on,,,,,64,0,16,,,,,7,,,52,100
49152,note_on,,,,,64,0,12,,,,,4,,,72,85
49152,note_on,,,,,64,0,10,,,,,2,,,79,85
49152,note_on,,,,,64,0,11,,,,,3,,,72,35
49152,note_on,,,,,0,0,15,,,,,7,,,72,100
49152,note_on,,,,,64,0,14,,,,,6,,,40,85
49152,note_on,,,,,64,0,9,,,,,1,,,72,85
49152,note_on,,,,,64,0,13,,,,,5,,,52,85
49152,note_on,,,,,64,0,15,,,,,7,,,67,100
49280,note_off,,,,,128,0,15,,,,,7,,,67,100
49280,note_off,,,,,0,0,15,,,,,7,,,72,100
49340,note_off,,,,,188,0,9,,,,,1,,,72,100
49340,note_off,,,,,188,0,10,,,,,2,,,79,100
49340,note_off,,,,,188,0,8,,,,,0,,,79,100
49340,note_off,,,,,188,0,11,,,,,3,,,72,100
49344,note_on,,,,,4,0,11,,,,,3,,,79,35
49344,note_on,,,,,4,0,8,,,,,0,,,72,35
49344,note_on,,,,,4,0,9,,,,,1,,,79,85
49344,note_on,,,,,4,0,10,,,,,2,,,72,85
49408,note_off,,,,,256,0,14,,,,,6,,,40,100
49408,note_off,,,,,256,0,13,,,,,5,,,52,100
49408,note_off,,,,,256,0,16,,,,,7,,,52,100
49408,note_off,,,,,256,0,12,,,,,4,,,72,100
49472,note_off,,,,,128,0,8,,,,,0,,,72,100
49472,note_off,,,,,128,0,11,,,,,3,,,79,100
49472,note_off,,,,,128,0,9,,,,,1,,,79,100
49472,note_off,,,,,128,0,10,,,,,2,,,72,100
49536,note_on,,,,,64,0,10,,,,,2,,,81,85
49536,note_on,,,,,64,0,11,,,,,3,,,72,35
49536,note_on,,,,,64,0,8,,,,,0,,,81,35
49536,note_on,,,,,64,0,9,,,,,1,,,72,85
49724,note_off,,,,,188,0,10,,,,,2,,,81,100
49724,note_off,,,,,188,0,11,,,,,3,,,72,100
49724,note_off,,,,,188,0,8,,,,,0,,,81,100
49724,note_off,,,,,188,0,9,,,,,1,,,72,100
49728,note_on,,,,,448,0,15,,,,,7,,,69,100
49728,note_on,,,,,4,0,10,,,,,2,,,72,85
49728,note_on,,,,,0,0,15,,,,,7,,,72,100
49728,note_on,,,,,4,0,8,,,,,0,,,72,35
49728,note_on,,,,,320,0,14,,,,,6,,,41,85
49728,note_on,,,,,4,0,9,,,,,1,,,81,85
49728,note_on,,,,,320,0,16,,,,,7,,,53,100
49728,note_on,,,,,4,0,11,,,,,3,,,81,35
49728,note_on,,,,,320,0,12,,,,,4,,,65,85
49728,note_on,,,,,320,0,13,,,,,5,,,53,85
49856,note_off,,,,,128,0,12,,,,,4,,,65,100
49856,note_off,,,,,128,0,11,,,,,3,,,81,100
49856,note_off,,,,,128,0,9,,,,,1,,,81,100
49856,note_off,,,,,0,0,15,,,,,7,,,72,100
49856,note_off,,,,,128,0,8,,,,,0,,,72,100
49856,note_off,,,,,128,0,14,,,,,6,,,41,100
49856,note_off,,,,,128,0,16,,,,,7,,,53,100
49856,note_off,,,,,128,0,10,,,,,2,,,72,100
49856,note_off,,,,,128,0,15,,,,,7,,,69,100
49856,note_off,,,,,128,0,13,,,,,5,,,53,100
49920,note_on,,,,,64,0,8,,,,,0,,,82,35
49920,note_on,,,,,64,0,12,,,,,4,,,64,85
49920,note_on,,,,,64,0,16,,,,,7,,,48,100
49920,note_on,,,,,64,0,9,,,,,1,,,79,85
49920,note_on,,,,,64,0,10,,,,,2,,,82,85
49920,note_on,,,,,0,0,15,,,,,7,,,70,100
49920,note_on,,,,,64,0,15,,,,,7,,,67,100
49920,note_on,,,,,64,0,13,,,,,5,,,48,85
49920,note_on,,,,,64,0,11,,,,,3,,,79,35
49920,note_on,,,,,64,0,14,,,,,6,,,36,85
50048,note_off,,,,,128,0,16,,,,,7,,,48,100
50048,note_off,,,,,0,0,15,,,,,7,,,70,100
50048,note_off,,,,,128,0,14,,,,,6,,,36,100
50048,note_off,,,,,128,0,15,,,,,7,,,67,100
50048,note_off,,,,,128,0,13,,,,,5,,,48,100
50112,note_on,,,,,64,0,14,,,,,6,,,38,85
50112,note_on,,,,,0,0,15,,,,,7,,,72,100
50112,note_on,,,,,64,0,13,,,,,5,,,50,85
50112,note_on,,,,,64,0,15,,,,,7,,,67,100
50112,note_on,,,,,64,0,16,,,,,7,,,50,100
50240,note_off,,,,,128,0,13,,,,,5,,,50,100
50240,note_off,,,,,128,0,15,,,,,7,,,67,100
50240,note_off,,,,,128,0,16,,,,,7,,,50,100
50240,note_off,,,,,128,0,14,,,,,6,,,38,100
50240,note_off,,,,,0,0,15,,,,,7,,,72,100
50304,note_on,,,,,64,0,16,,,,,7,,,52,100
50304,note_off,,,,,384,0,8,,,,,0,,,82,100
50304,note_off,,,,,384,0,12,,,,,4,,,64,100
50304,note_on,,,,,0,0,15,,,,,7,,,72,100
50304,note_off,,,,,384,0,10,,,,,2,,,82,100
50304,note_off,,,,,384,0,9,,,,,1,,,79,100
50304,note_off,,,,,384,0,11,,,,,3,,,79,100
50304,note_on,,,,,64,0,14,,,,,6,,,40,85
50304,note_on,,,,,64,0,15,,,,,7,,,70,100
50304,note_on,,,,,64,0,13,,,,,5,,,52,85
50432,note_off,,,,,128,0,16,,,,,7,,,52,100
50432,note_off,,,,,128,0,14,,,,,6,,,40,100
50432,note_off,,,,,0,0,15,,,,,7,,,72,100
50432,note_off,,,,,128,0,13,,,,,5,,,52,100
50432,note_off,,,,,128,0,15,,,,,7,,,70,100
50496,note_on,,,,,64,0,13,,,,,5,,,48,85
50496,note_on,,,,,192,0,9,,,,,1,,,77,85
50496,note_on,,,,,64,0,16,,,,,7,,,48,100
50496,note_on,,,,,192,0,10,,,,,2,,,81,85
50496,note_on,,,,,192,0,12,,,,,4,,,64,85
50496,note_on,,,,,192,0,11,,,,,3,,,77,35
50496,note_on,,,,,0,0,15,,,,,7,,,70,100
50496,note_on,,,,,64,0,15,,,,,7,,,67,100
50496,note_on,,,,,64,0,14,,,,,6,,,36,85
50496,note_on,,,,,192,0,8,,,,,0,,,81,35
50560,note_off,,,,,64,0,9,,,,,1,,,77,100
50560,note_off,,,,,64,0,8,,,,,0,,,81,100
50560,note_off,,,,,64,0,11,,,,,3,,,77,100
50560,note_off,,,,,64,0,10,,,,,2,,,81,100
50592,note_on,,,,,32,0,11,,,,,3,,,76,35
50592,note_on,,,,,32,0,9,,,,,1,,,76,85
50592,note_on,,,,,32,0,10,,,,,2,,,79,85
50592,note_on,,,,,32,0,8,,,,,0,,,79,35
50624,note_off,,,,,128,0,12,,,,,4,,,64,100
50624,note_off,,,,,128,0,16,,,,,7,,,48,100
50624,note_off,,,,,128,0,14,,,,,6,,,36,100
50624,note_off,,,,,0,0,15,,,,,7,,,70,100
50624,note_off,,,,,128,0,15,,,,,7,,,67,100
50624,note_off,,,,,128,0,13,,,,,5,,,48,100
50656,note_off,,,,,64,0,11,,,,,3,,,76,100
50656,note_off,,,,,64,0,9,,,,,1,,,76,100
50656,note_off,,,,,64,0,8,,,,,0,,,79,100
50656,note_off,,,,,64,0,10,,,,,2,,,79,100
50688,note_on,,,,,64,0,13,,,,,5,,,53,85
50688,note_on,,,,,32,0,9,,,,,1,,,77,85
50688,note_on,,,,,32,0,11,,,,,3,,,77,35
50688,note_on,,,,,0,0,15,,,,,7,,,69,100
50688,note_on,,,,,64,0,12,,,,,4,,,60,85
50688,note_on,,,,,32,0,10,,,,,2,,,81,85
50688,note_on,,,,,64,0,14,,,,,6,,,41,85
50688,note_on,,,,,64,0,15,,,,,7,,,72,100
50688,note_on,,,,,32,0,8,,,,,0,,,81,35
50688,note_on,,,,,64,0,16,,,,,7,,,53,100
50816,note_off,,,,,128,0,13,,,,,5,,,53,100
50816,note_off,,,,,128,0,12,,,,,4,,,60,100
50816,note_off,,,,,128,0,8,,,,,0,,,81,100
50816,note_off,,,,,128,0,9,,,,,1,,,77,100
50816,note_off,,,,,128,0,15,,,,,7,,,72,100
50816,note_off,,,,,128,0,10,,,,,2,,,81,100
50816,note_off,,,,,128,0,16,,,,,7,,,53,100
50816,note_off,,,,,128,0,11,,,,,3,,,77,100
50816,note_off,,,,,0,0,15,,,,,7,,,69,100
50816,note_off,,,,,128,0,14,,,,,6,,,41,100
50880,note_on,,,,,64,0,8,,,,,0,,,77,35
50880,note_on,,,,,64,0,9,,,,,1,,,74,85
50880,note_on,,,,,0,0,15,,,,,7,,,74,100
50880,note_on,,,,,64,0,15,,,,,7,,,65,100
50880,note_on,,,,,64,0,14,,,,,6,,,46,85
50880,note_on,,,,,64,0,11,,,,,3,,,74,35
50880,note_on,,,,,64,0,16,,,,,7,,,58,100
50880,note_on,,,,,64,0,12,,,,,4,,,62,85
50880,note_on,,,,,64,0,10,,,,,2,,,77,85
50880,note_on,,,,,64,0,13,,,,,5,,,58,85
51008,note_off,,,,,128,0,13,,,,,5,,,58,100
51008,note_off,,,,,128,0,8,,,,,0,,,77,100
51008,note_off,,,,,128,0,16,,,,,7,,,58,100
51008,note_off,,,,,128,0,12,,,,,4,,,62,100
51008,note_off,,,,,128,0,9,,,,,1,,,74,100
51008,note_off,,,,,128,0,14,,,,,6,,,46,100
51008,note_off,,,,,0,0,15,,,,,7,,,74,100
51008,note_off,,,,,128,0,15,,,,,7,,,65,100
51008,note_off,,,,,128,0,11,,,,,3,,,74,100
51008,note_off,,,,,128,0,10,,,,,2,,,77,100
51072,note_on,,,,,0,0,15,,,,,7,,,67,100
51072,note_on,,,,,64,0,12,,,,,4,,,60,85
51072,note_on,,,,,64,0,15,,,,,7,,,65,100
51072,note_on,,,,,64,0,14,,,,,6,,,48,85
51072,note_on,,,,,64,0,10,,,,,2,,,67,85
51072,note_on,,,,,64,0,11,,,,,3,,,64,35
51072,note_on,,,,,64,0,16,,,,,7,,,60,100
51072,note_on,,,,,64,0,13,,,,,5,,,60,85
51072,note_on,,,,,64,0,9,,,,,1,,,64,85
51072,note_on,,,,,64,0,8,,,,,0,,,67,35
51200,note_off,,,,,128,0,16,,,,,7,,,60,100
51200,note_off,,,,,128,0,10,,,,,2,,,67,100
51200,note_off,,,,,128,0,12,,,,,4,,,60,100
51200,note_off,,,,,128,0,8,,,,,0,,,67,100
51200,note_off,,,,,128,0,15,,,,,7,,,65,100
51200,note_off,,,,,0,0,15,,,,,7,,,67,100
51200,note_off,,,,,128,0,9,,,,,1,,,64,100
51200,note_off,,,,,128,0,11,,,,,3,,,64,100
51200,note_off,,,,,128,0,14,,,,,6,,,48,100
51200,note_off,,,,,128,0,13,,,,,5,,,60,100
51264,note_on,,,,,0,0,15,,,,,7,,,67,100
51264,note_on,,,,,64,0,15,,,,,7,,,64,100
51264,note_on,,,,,64,0,11,,,,,3,,,72,35
51264,note_on,,,,,64,0,9,,,,,1,,,72,85
51264,note_on,,,,,64,0,16,,,,,7,,,48,100
51264,note_on,,,,,64,0,14,,,,,6,,,36,85
51264,note_on,,,,,64,0,8,,,,,0,,,76,35
51264,note_on,,,,,64,0,10,,,,,2,,,76,85
51264,note_on,,,,,64,0,13,,,,,5,,,48,85
51264,note_on,,,,,64,0,12,,,,,4,,,60,85
51392,note_off,,,,,128,0,15,,,,,7,,,64,100
51392,note_off,,,,,128,0,11,,,,,3,,,72,100
51392,note_off,,,,,128,0,14,,,,,6,,,36,100
51392,note_off,,,,,128,0,16,,,,,7,,,48,100
51392,note_off,,,,,128,0,10,,,,,2,,,76,100
51392,note_off,,,,,0,0,15,,,,,7,,,67,100
51392,note_off,,,,,128,0,8,,,,,0,,,76,100
51392,note_off,,,,,128,0,13,,,,,5,,,48,100
51392,note_off,,,,,128,0,9,,,,,1,,,72,100
51392,note_off,,,,,128,0,12,,,,,4,,,60,100
51456,note_on,,,,,64,0,13,,,,,5,,,53,85
51456,note_on,,,,,64,0,11,,,,,3,,,69,35
51456,note_on,,,,,64,0,10,,,,,2,,,65,85
51456,note_on,,,,,64,0,8,,,,,0,,,77,75
51456,note_on,,,,,64,0,16,,,,,7,,,53,100
51456,note_on,,,,,64,0,14,,,,,6,,,41,85
51456,note_on,,,,,0,0,15,,,,,7,,,69,100
51456,note_on,,,,,64,0,15,,,,,7,,,60,100
51456,note_on,,,,,64,0,9,,,,,1,,,69,85
51456,note_on,,,,,64,0,12,,,,,4,,,60,85
51584,note_off,,,,,128,0,11,,,,,3,,,69,100
51584,note_off,,,,,128,0,10,,,,,2,,,65,100
51584,note_off,,,,,128,0,9,,,,,1,,,69,100
51644,program_change,,,,,188,0,8,,,,,0,40,,,
51648,note_on,,,,,64,0,9,,,,,1,,,65,60
51648,note_on,,,,,64,0,11,,,,,3,,,65,10
51648,note_on,,,,,64,0,10,,,,,2,,,65,10
51712,note_off,,,,,256,0,14,,,,,6,,,41,100
51712,note_off,,,,,0,0,15,,,,,7,,,69,100
51712,note_off,,,,,256,0,15,,,,,7,,,60,100
51712,note_off,,,,,256,0,13,,,,,5,,,53,100
51712,note_off,,,,,256,0,16,,,,,7,,,53,100
51712,note_off,,,,,256,0,12,,,,,4,,,60,100
51712,note_off,,,,,68,0,8,,,,,0,,,77,100
51776,note_off,,,,,128,0,11,,,,,3,,,65,100
51776,note_off,,,,,128,0,9,,,,,1,,,65,100
51776,note_off,,,,,128,0,10,,,,,2,,,65,100
51840,note_on,,,,,64,0,9,,,,,1,,,65,60
51840,note_on,,,,,64,0,11,,,,,3,,,65,10
51840,note_on,,,,,128,0,8,,,,,0,,,72,75
51840,note_on,,,,,64,0,10,,,,,2,,,65,10
51968,note_off,,,,,128,0,9,,,,,1,,,65,100
51968,note_off,,,,,128,0,11,,,,,3,,,65,100
51968,note_off,,,,,128,0,10,,,,,2,,,65,100
52032,note_on,,,,,64,0,10,,,,,2,,,65,10
52032,note_on,,,,,64,0,9,,,,,1,,,65,60
52032,note_off,,,,,192,0,8,,,,,0,,,72,100
52032,note_on,,,,,64,0,11,,,,,3,,,65,10
52128,note_on,,,,,96,0,8,,,,,0,,,77,75
52160,note_off,,,,,128,0,10,,,,,2,,,65,100
52160,note_off,,,,,128,0,11,,,,,3,,,65,100
52160,note_off,,,,,128,0,9,,,,,1,,,65,100
52192,note_off,,,,,64,0,8,,,,,0,,,77,100
52224,note_on,,,,,64,0,9,,,,,1,,,64,60
52224,note_on,,,,,64,0,11,,,,,3,,,64,10
52224,note_on,,,,,32,0,8,,,,,0,,,79,75
52224,note_on,,,,,64,0,10,,,,,2,,,64,10
52352,note_off,,,,,128,0,10,,,,,2,,,64,100
52352,note_off,,,,,128,0,9,,,,,1,,,64,100
52352,note_off,,,,,128,0,11,,,,,3,,,64,100
52416,note_on,,,,,64,0,10,,,,,2,,,64,10
52416,note_on,,,,,64,0,9,,,,,1,,,64,60
52416,note_on,,,,,64,0,11,,,,,3,,,64,10
52480,note_off,,,,,256,0,8,,,,,0,,,79,100
52544,note_off,,,,,128,0,9,,,,,1,,,64,100
52544,note_off,,,,,128,0,10,,,,,2,,,64,100
52544,note_off,,,,,128,0,11,,,,,3,,,64,100
52608,note_on,,,,,64,0,10,,,,,2,,,64,10
52608,note_on,,,,,64,0,9,,,,,1,,,64,60
52608,note_on,,,,,128,0,8,,,,,0,,,72,75
52608,note_on,,,,,64,0,11,,,,,3,,,64,10
52736,note_off,,,,,128,0,11,,,,,3,,,64,100
52736,note_off,,,,,128,0,10,,,,,2,,,64,100
52736,note_off,,,,,128,0,9,,,,,1,,,64,100
52800,note_on,,,,,64,0,9,,,,,1,,,64,60
52800,note_on,,,,,64,0,11,,,,,3,,,64,10
52800,note_off,,,,,192,0,8,,,,,0,,,72,100
52800,note_on,,,,,64,0,10,,,,,2,,,64,10
52896,note_on,,,,,96,0,8,,,,,0,,,79,75
52928,note_off,,,,,128,0,9,,,,,1,,,64,100
52928,note_off,,,,,128,0,10,,,,,2,,,64,100
52928,note_off,,,,,128,0,11,,,,,3,,,64,100
52960,note_off,,,,,64,0,8,,,,,0,,,79,100
52992,note_on,,,,,32,0,8,,,,,0,,,81,75
52992,note_on,,,,,64,0,9,,,,,1,,,65,60
52992,note_on,,,,,64,0,10,,,,,2,,,65,10
52992,note_on,,,,,64,0,11,,,,,3,,,65,10
53120,note_off,,,,,128,0,10,,,,,2,,,65,100
53120,note_off,,,,,128,0,11,,,,,3,,,65,100
53120,note_off,,,,,128,0,9,,,,,1,,,65,100
53184,note_on,,,,,64,0,11,,,,,3,,,65,10
53184,note_on,,,,,64,0,9,,,,,1,,,65,60
53184,note_on,,,,,64,0,10,,,,,2,,,65,10
53248,note_off,,,,,256,0,8,,,,,0,,,81,100
53312,note_off,,,,,128,0,10,,,,,2,,,65,100
53312,note_off,,,,,128,0,11,,,,,3,,,65,100
53312,note_off,,,,,128,0,9,,,,,1,,,65,100
53376,note_on,,,,,64,0,9,,,,,1,,,65,60
53376,note_on,,,,,64,0,11,,,,,3,,,65,10
53376,note_on,,,,,64,0,10,,,,,2,,,65,10
53376,note_on,,,,,128,0,8,,,,,0,,,77,75
53504,note_off,,,,,128,0,9,,,,,1,,,65,100
53504,note_off,,,,,128,0,10,,,,,2,,,65,100
53504,note_off,,,,,128,0,11,,,,,3,,,65,100
53568,note_off,,,,,192,0,8,,,,,0,,,77,100
53568,note_on,,,,,64,0,10,,,,,2,,,65,10
53568,note_on,,,,,64,0,11,,,,,3,,,65,10
53568,note_on,,,,,64,0,9,,,,,1,,,65,60
53664,note_on,,,,,96,0,8,,,,,0,,,81,75
53696,note_off,,,,,128,0,11,,,,,3,,,65,100
53696,note_off,,,,,128,0,9,,,,,1,,,65,100
53696,note_off,,,,,128,0,10,,,,,2,,,65,100
53728,note_off,,,,,64,0,8,,,,,0,,,81,100
53760,note_on,,,,,32,0,8,,,,,0,,,79,75
53760,note_on,,,,,64,0,9,,,,,1,,,60,60
53760,note_on,,,,,64,0,11,,,,,3,,,60,10
53760,note_on,,,,,64,0,10,,,,,2,,,60,10
53888,note_off,,,,,128,0,11,,,,,3,,,60,100
53888,note_off,,,,,128,0,10,,,,,2,,,60,100
53888,note_off,,,,,128,0,9,,,,,1,,,60,100
53952,note_on,,,,,64,0,10,,,,,2,,,60,10
53952,note_on,,,,,64,0,9,,,,,1,,,60,60
53952,note_on,,,,,64,0,11,,,,,3,,,60,10
54016,note_off,,,,,256,0,8,,,,,0,,,79,100
54080,note_off,,,,,128,0,11,,,,,3,,,60,100
54080,note_off,,,,,128,0,9,,,,,1,,,60,100
54080,note_off,,,,,128,0,10,,,,,2,,,60,100
54144,note_on,,,,,64,0,10,,,,,2,,,60,10
54144,note_on,,,,,64,0,9,,,,,1,,,60,60
54144,note_on,,,,,128,0,8,,,,,0,,,72,75
54144,note_on,,,,,64,0,11,,,,,3,,,60,10
54272,note_off,,,,,128,0,11,,,,,3,,,60,100
54272,note_off,,,,,128,0,9,,,,,1,,,60,100
54272,note_off,,,,,128,0,10,,,,,2,,,60,100
54336,note_on,,,,,64,0,9,,,,,1,,,60,60
54336,note_on,,,,,64,0,11,,,,,3,,,60,10
54336,note_on,,,,,64,0,10,,,,,2,,,60,10
54400,note_off,,,,,256,0,8,,,,,0,,,72,100
54464,note_off,,,,,128,0,10,,,,,2,,,60,100
54464,note_off,,,,,128,0,11,,,,,3,,,60,100
54464,note_off,,,,,128,0,9,,,,,1,,,60,100
54528,note_on,,,,,64,0,10,,,,,2,,,65,10
54528,note_on,,,,,128,0,8,,,,,0,,,81,75
54528,note_on,,,,,64,0,9,,,,,1,,,65,60
54528,note_on,,,,,64,0,11,,,,,3,,,65,10
54656,note_off,,,,,128,0,11,,,,,3,,,65,100
54656,note_off,,,,,128,0,10,,,,,2,,,65,100
54656,note_off,,,,,128,0,9,,,,,1,,,65,100
54720,note_on,,,,,64,0,9,,,,,1,,,65,60
54720,note_on,,,,,64,0,11,,,,,3,,,65,10
54720,note_on,,,,,64,0,10,,,,,2,,,65,10
54784,note_off,,,,,256,0,8,,,,,0,,,81,100
54848,note_off,,,,,128,0,9,,,,,1,,,65,100
54848,note_off,,,,,128,0,11,,,,,3,,,65,100
54848,note_off,,,,,128,0,10,,,,,2,,,65,100
54912,note_on,,,,,64,0,10,,,,,2,,,65,10
54912,note_on,,,,,128,0,8,,,,,0,,,77,75
54912,note_on,,,,,64,0,11,,,,,3,,,65,10
54912,note_on,,,,,64,0,9,,,,,1,,,65,60
55040,note_off,,,,,128,0,10,,,,,2,,,65,100
55040,note_off,,,,,128,0,9,,,,,1,,,65,100
55040,note_off,,,,,128,0,11,,,,,3,,,65,100
55104,note_on,,,,,64,0,9,,,,,1,,,65,60
55104,note_off,,,,,192,0,8,,,,,0,,,77,100
55104,note_on,,,,,64,0,10,,,,,2,,,65,10
55104,note_on,,,,,64,0,11,,,,,3,,,65,10
55200,note_on,,,,,96,0,8,,,,,0,,,81,75
55232,note_off,,,,,128,0,11,,,,,3,,,65,100
55232,note_off,,,,,128,0,10,,,,,2,,,65,100
55232,note_off,,,,,128,0,9,,,,,1,,,65,100
55264,note_off,,,,,64,0,8,,,,,0,,,81,100
55296,note_on,,,,,32,0,8,,,,,0,,,71,75
55296,note_on,,,,,64,0,10,,,,,2,,,67,10
55296,note_on,,,,,64,0,9,,,,,1,,,67,60
55296,note_on,,,,,64,0,11,,,,,3,,,67,10
55424,note_off,,,,,128,0,11,,,,,3,,,67,100
55424,note_off,,,,,128,0,10,,,,,2,,,67,100
55424,note_off,,,,,128,0,9,,,,,1,,,67,100
55488,note_on,,,,,64,0,10,,,,,2,,,65,10
55488,note_on,,,,,64,0,9,,,,,1,,,65,60
55488,note_on,,,,,64,0,11,,,,,3,,,65,10
55552,note_off,,,,,256,0,8,,,,,0,,,71,100
55616,note_off,,,,,128,0,9,,,,,1,,,65,100
55616,note_off,,,,,128,0,10,,,,,2,,,65,100
55616,note_off,,,,,128,0,11,,,,,3,,,65,100
55680,note_on,,,,,64,0,9,,,,,1,,,64,60
55680,note_on,,,,,64,0,10,,,,,2,,,64,10
55680,note_on,,,,,64,0,11,,,,,3,,,64,10
55680,note_on,,,,,128,0,8,,,,,0,,,72,75
55808,note_off,,,,,128,0,9,,,,,1,,,64,100
55808,note_off,,,,,128,0,10,,,,,2,,,64,100
55808,note_off,,,,,128,0,11,,,,,3,,,64,100
55872,note_on,,,,,64,0,10,,,,,2,,,62,10
55872,note_on,,,,,64,0,11,,,,,3,,,62,10
55872,note_off,,,,,192,0,8,,,,,0,,,72,100
55872,note_on,,,,,64,0,9,,,,,1,,,62,60
55968,note_on,,,,,96,0,8,,,,,0,,,77,75
56000,note_off,,,,,128,0,10,,,,,2,,,62,100
56000,note_off,,,,,128,0,11,,,,,3,,,62,100
56000,note_off,,,,,128,0,9,,,,,1,,,62,100
56032,note_off,,,,,64,0,8,,,,,0,,,77,100
56064,note_on,,,,,64,0,9,,,,,1,,,60,60
56064,note_on,,,,,64,0,10,,,,,2,,,60,10
56064,note_on,,,,,64,0,11,,,,,3,,,60,10
56064,note_on,,,,,32,0,8,,,,,0,,,76,75
56192,note_off,,,,,128,0,9,,,,,1,,,60,100
56192,note_off,,,,,128,0,11,,,,,3,,,60,100
56192,note_off,,,,,128,0,10,,,,,2,,,60,100
56256,note_on,,,,,64,0,9,,,,,1,,,65,60
56256,note_on,,,,,64,0,11,,,,,3,,,65,10
56256,note_on,,,,,64,0,10,,,,,2,,,65,10
56320,note_off,,,,,256,0,8,,,,,0,,,76,100
56384,note_off,,,,,128,0,11,,,,,3,,,65,100
56384,note_off,,,,,128,0,9,,,,,1,,,65,100
56384,note_off,,,,,128,0,10,,,,,2,,,65,100
56448,note_on,,,,,64,0,9,,,,,1,,,67,60
56448,note_on,,,,,64,0,11,,,,,3,,,67,10
56448,note_on,,,,,64,0,10,,,,,2,,,67,10
56448,note_on,,,,,128,0,8,,,,,0,,,74,75
56576,note_off,,,,,128,0,11,,,,,3,,,67,100
56576,note_off,,,,,128,0,10,,,,,2,,,67,100
56576,note_off,,,,,128,0,9,,,,,1,,,67,100
56640,note_on,,,,,64,0,9,,,,,1,,,55,60
56640,note_on,,,,,64,0,10,,,,,2,,,55,10
56640,note_on,,,,,64,0,11,,,,,3,,,55,10
56704,note_off,,,,,256,0,8,,,,,0,,,74,100
56768,note_off,,,,,128,0,11,,,,,3,,,55,100
56768,note_off,,,,,128,0,10,,,,,2,,,55,100
56768,note_off,,,,,128,0,9,,,,,1,,,55,100
56832,note_on,,,,,128,0,8,,,,,0,,,72,75
56832,note_on,,,,,5120,0,12,,,,,4,,,60,70
56832,note_on,,,,,64,0,9,,,,,1,,,60,60
56832,note_on,,,,,64,0,10,,,,,2,,,60,10
56832,note_on,,,,,64,0,11,,,,,3,,,60,10
56960,note_off,,,,,128,0,12,,,,,4,,,60,100
57024,note_on,,,,,64,0,12,,,,,4,,,62,70
57088,note_off,,,,,256,0,10,,,,,2,,,60,100
57088,note_off,,,,,256,0,11,,,,,3,,,60,100
57088,note_off,,,,,256,0,8,,,,,0,,,72,100
57088,note_off,,,,,256,0,9,,,,,1,,,60,100
57152,note_off,,,,,128,0,12,,,,,4,,,62,100
57216,note_on,,,,,64,0,12,,,,,4,,,60,70
57312,note_on,,,,,224,0,8,,,,,0,,,72,85
57344,note_off,,,,,128,0,12,,,,,4,,,60,100
57376,note_off,,,,,64,0,8,,,,,0,,,72,100
57408,note_on,,,,,32,0,8,,,,,0,,,74,85
57408,note_on,,,,,64,0,12,,,,,4,,,58,70
57472,note_off,,,,,64,0,8,,,,,0,,,74,100
57504,note_on,,,,,32,0,8,,,,,0,,,76,85
57536,note_off,,,,,128,0,12,,,,,4,,,58,100
57568,note_off,,,,,64,0,8,,,,,0,,,76,100
57600,note_on,,,,,32,0,8,,,,,0,,,77,85
57600,note_on,,,,,512,0,11,,,,,3,,,72,10
57600,note_on,,,,,512,0,10,,,,,2,,,72,10
57600,note_on,,,,,64,0,12,,,,,4,,,57,70
57600,note_on,,,,,512,0,9,,,,,1,,,72,60
57692,note_off,,,,,92,0,8,,,,,0,,,77,100
57696,note_on,,,,,4,0,8,,,,,0,,,76,85
57760,note_off,,,,,64,0,8,,,,,0,,,76,100
57792,note_on,,,,,32,0,8,,,,,0,,,77,85
57856,note_off,,,,,256,0,11,,,,,3,,,72,100
57856,note_off,,,,,256,0,10,,,,,2,,,72,100
57856,note_off,,,,,256,0,12,,,,,4,,,57,100
57856,note_off,,,,,256,0,9,,,,,1,,,72,100
57884,note_off,,,,,92,0,8,,,,,0,,,77,100
57888,note_on,,,,,4,0,8,,,,,0,,,76,85
57952,note_off,,,,,64,0,8,,,,,0,,,76,100
57984,note_on,,,,,32,0,8,,,,,0,,,77,85
58076,note_off,,,,,92,0,8,,,,,0,,,77,100
58080,note_on,,,,,4,0,8,,,,,0,,,76,85
58144,note_off,,,,,64,0,8,,,,,0,,,76,100
58176,note_on,,,,,320,0,12,,,,,4,,,57,70
58176,note_on,,,,,32,0,8,,,,,0,,,77,85
58176,note_on,,,,,320,0,11,,,,,3,,,72,10
58176,note_on,,,,,320,0,9,,,,,1,,,72,60
58176,note_on,,,,,320,0,10,,,,,2,,,72,10
58268,note_off,,,,,92,0,8,,,,,0,,,77,100
58272,note_on,,,,,4,0,8,,,,,0,,,76,85
58304,note_off,,,,,128,0,9,,,,,1,,,72,100
58304,note_off,,,,,128,0,10,,,,,2,,,72,100
58304,note_off,,,,,128,0,12,,,,,4,,,57,100
58304,note_off,,,,,128,0,11,,,,,3,,,72,100
58336,note_off,,,,,64,0,8,,,,,0,,,76,100
58368,note_on,,,,,64,0,12,,,,,4,,,58,70
58368,note_on,,,,,64,0,10,,,,,2,,,65,10
58368,note_on,,,,,32,0,8,,,,,0,,,74,85
58368,note_on,,,,,64,0,11,,,,,3,,,65,10
58368,note_on,,,,,64,0,9,,,,,1,,,65,60
58432,note_off,,,,,64,0,8,,,,,0,,,74,100
58464,note_on,,,,,32,0,8,,,,,0,,,72,85
58528,note_off,,,,,64,0,8,,,,,0,,,72,100
58560,note_on,,,,,32,0,8,,,,,0,,,74,85
58624,note_off,,,,,256,0,11,,,,,3,,,65,100
58624,note_off,,,,,256,0,10,,,,,2,,,65,100
58624,note_off,,,,,256,0,12,,,,,4,,,58,100
58624,note_off,,,,,64,0,8,,,,,0,,,74,100
58624,note_off,,,,,256,0,9,,,,,1,,,65,100
58656,note_on,,,,,32,0,8,,,,,0,,,72,85
58720,note_off,,,,,64,0,8,,,,,0,,,72,100
58752,note_on,,,,,32,0,8,,,,,0,,,70,85
58816,note_off,,,,,64,0,8,,,,,0,,,70,100
58848,note_on,,,,,32,0,8,,,,,0,,,74,85
58912,note_off,,,,,64,0,8,,,,,0,,,74,100
58944,note_on,,,,,32,0,8,,,,,0,,,76,85
59008,note_off,,,,,64,0,8,,,,,0,,,76,100
59040,note_on,,,,,32,0,8,,,,,0,,,77,85
59104,note_off,,,,,64,0,8,,,,,0,,,77,100
59136,note_on,,,,,512,0,12,,,,,4,,,59,70
59136,note_on,,,,,512,0,9,,,,,1,,,74,70
59136,note_on,,,,,512,0,11,,,,,3,,,74,20
59136,note_on,,,,,32,0,8,,,,,0,,,79,85
59136,note_on,,,,,512,0,10,,,,,2,,,74,20
59228,note_off,,,,,92,0,8,,,,,0,,,79,100
59232,note_on,,,,,4,0,8,,,,,0,,,77,85
59296,note_off,,,,,64,0,8,,,,,0,,,77,100
59328,note_on,,,,,32,0,8,,,,,0,,,79,85
59392,note_off,,,,,256,0,12,,,,,4,,,59,100
59392,note_off,,,,,256,0,11,,,,,3,,,74,100
59392,note_off,,,,,256,0,10,,,,,2,,,74,100
59392,note_off,,,,,256,0,9,,,,,1,,,74,100
59420,note_off,,,,,92,0,8,,,,,0,,,79,100
59424,note_on,,,,,4,0,8,,,,,0,,,77,86
59488,note_off,,,,,64,0,8,,,,,0,,,77,100
59520,note_on,,,,,32,0,8,,,,,0,,,79,86
59612,note_off,,,,,92,0,8,,,,,0,,,79,100
59616,note_on,,,,,4,0,8,,,,,0,,,77,86
59680,note_off,,,,,64,0,8,,,,,0,,,77,100
59712,note_on,,,,,320,0,11,,,,,3,,,74,21
59712,note_on,,,,,320,0,12,,,,,4,,,59,71
59712,note_on,,,,,320,0,9,,,,,1,,,74,71
59712,note_on,,,,,320,0,10,,,,,2,,,74,21
59712,note_on,,,,,32,0,8,,,,,0,,,79,86
59804,note_off,,,,,92,0,8,,,,,0,,,79,100
59808,note_on,,,,,4,0,8,,,,,0,,,77,86
59840,note_off,,,,,128,0,9,,,,,1,,,74,100
59840,note_off,,,,,128,0,12,,,,,4,,,59,100
59840,note_off,,,,,128,0,10,,,,,2,,,74,100
59840,note_off,,,,,128,0,11,,,,,3,,,74,100
59872,note_off,,,,,64,0,8,,,,,0,,,77,100
59904,note_on,,,,,32,0,8,,,,,0,,,76,86
59904,note_on,,,,,64,0,10,,,,,2,,,67,21
59904,note_on,,,,,64,0,12,,,,,4,,,60,71
59904,note_on,,,,,64,0,9,,,,,1,,,67,71
59904,note_on,,,,,64,0,11,,,,,3,,,67,21
59968,note_off,,,,,64,0,8,,,,,0,,,76,100
60000,note_on,,,,,32,0,8,,,,,0,,,74,87
60064,note_off,,,,,64,0,8,,,,,0,,,74,100
60096,note_on,,,,,32,0,8,,,,,0,,,76,87
60160,note_off,,,,,256,0,11,,,,,3,,,67,100
60160,note_off,,,,,256,0,9,,,,,1,,,67,100
60160,note_off,,,,,64,0,8,,,,,0,,,76,100
60160,note_off,,,,,256,0,10,,,,,2,,,67,100
60160,note_off,,,,,256,0,12,,,,,4,,,60,100
60192,note_on,,,,,32,0,8,,,,,0,,,74,87
60256,note_off,,,,,64,0,8,,,,,0,,,74,100
60288,note_on,,,,,32,0,8,,,,,0,,,72,87
60352,note_off,,,,,64,0,8,,,,,0,,,72,100
60384,note_on,,,,,32,0,8,,,,,0,,,76,87
60448,note_off,,,,,64,0,8,,,,,0,,,76,100
60480,note_on,,,,,32,0,8,,,,,0,,,77,87
60544,note_off,,,,,64,0,8,,,,,0,,,77,100
60576,note_on,,,,,32,0,8,,,,,0,,,79,88
60640,note_off,,,,,64,0,8,,,,,0,,,79,100
60672,note_on,,,,,512,0,11,,,,,3,,,76,23
60672,note_on,,,,,512,0,10,,,,,2,,,76,23
60672,note_on,,,,,512,0,9,,,,,1,,,76,73
60672,note_on,,,,,512,0,12,,,,,4,,,61,73
60672,note_on,,,,,32,0,8,,,,,0,,,81,88
60764,note_off,,,,,92,0,8,,,,,0,,,81,100
60768,note_on,,,,,4,0,8,,,,,0,,,79,88
60832,note_off,,,,,64,0,8,,,,,0,,,79,100
60864,note_on,,,,,32,0,8,,,,,0,,,81,88
60928,note_off,,,,,256,0,9,,,,,1,,,76,100
60928,note_off,,,,,256,0,11,,,,,3,,,76,100
60928,note_off,,,,,256,0,10,,,,,2,,,76,100
60928,note_off,,,,,256,0,12,,,,,4,,,61,100
60956,note_off,,,,,92,0,8,,,,,0,,,81,100
60960,note_on,,,,,4,0,8,,,,,0,,,79,88
61024,note_off,,,,,64,0,8,,,,,0,,,79,100
61056,note_on,,,,,32,0,8,,,,,0,,,81,88
61148,note_off,,,,,92,0,8,,,,,0,,,81,100
61152,note_on,,,,,4,0,8,,,,,0,,,79,89
61216,note_off,,,,,64,0,8,,,,,0,,,79,100
61248,note_on,,,,,320,0,9,,,,,1,,,76,74
61248,note_on,,,,,32,0,8,,,,,0,,,81,89
61248,note_on,,,,,320,0,11,,,,,3,,,76,24
61248,note_on,,,,,320,0,10,,,,,2,,,76,24
61248,note_on,,,,,320,0,12,,,,,4,,,61,74
61340,note_off,,,,,92,0,8,,,,,0,,,81,100
61344,note_on,,,,,4,0,8,,,,,0,,,79,89
61376,note_off,,,,,128,0,12,,,,,4,,,61,100
61376,note_off,,,,,128,0,9,,,,,1,,,76,100
61376,note_off,,,,,128,0,10,,,,,2,,,76,100
61376,note_off,,,,,128,0,11,,,,,3,,,76,100
61408,note_off,,,,,64,0,8,,,,,0,,,79,100
61440,note_on,,,,,64,0,11,,,,,3,,,69,24
61440,note_on,,,,,32,0,8,,,,,0,,,77,89
61440,note_on,,,,,64,0,12,,,,,4,,,62,74
61440,note_on,,,,,64,0,9,,,,,1,,,69,74
61440,note_on,,,,,64,0,10,,,,,2,,,69,24
61504,note_off,,,,,64,0,8,,,,,0,,,77,100
61536,note_on,,,,,32,0,8,,,,,0,,,76,89
61600,note_off,,,,,64,0,8,,,,,0,,,76,100
61632,note_on,,,,,32,0,8,,,,,0,,,77,89
61696,note_off,,,,,64,0,8,,,,,0,,,77,100
61696,note_off,,,,,256,0,9,,,,,1,,,69,100
61696,note_off,,,,,256,0,12,,,,,4,,,62,100
61696,note_off,,,,,256,0,11,,,,,3,,,69,100
61696,note_off,,,,,256,0,10,,,,,2,,,69,100
61728,note_on,,,,,32,0,8,,,,,0,,,76,90
61792,note_off,,,,,64,0,8,,,,,0,,,76,100
61824,note_on,,,,,32,0,8,,,,,0,,,74,90
61888,note_off,,,,,64,0,8,,,,,0,,,74,100
61920,note_on,,,,,32,0,8,,,,,0,,,77,90
61984,note_off,,,,,64,0,8,,,,,0,,,77,100
62016,note_on,,,,,32,0,8,,,,,0,,,79,90
62080,note_off,,,,,64,0,8,,,,,0,,,79,100
62112,note_on,,,,,32,0,8,,,,,0,,,81,90
62176,note_off,,,,,64,0,8,,,,,0,,,81,100
62208,note_on,,,,,512,0,10,,,,,2,,,74,26
62208,note_on,,,,,512,0,9,,,,,1,,,74,76
62208,note_on,,,,,512,0,12,,,,,4,,,55,76
62208,note_on,,,,,32,0,8,,,,,0,,,82,91
62208,note_on,,,,,512,0,11,,,,,3,,,74,26
62300,note_off,,,,,92,0,8,,,,,0,,,82,100
62304,note_on,,,,,4,0,8,,,,,0,,,81,91
62368,note_off,,,,,64,0,8,,,,,0,,,81,100
62400,note_on,,,,,32,0,8,,,,,0,,,82,91
62464,note_off,,,,,256,0,11,,,,,3,,,74,100
62464,note_off,,,,,256,0,12,,,,,4,,,55,100
62464,note_off,,,,,256,0,9,,,,,1,,,74,100
62464,note_off,,,,,256,0,10,,,,,2,,,74,100
62492,note_off,,,,,92,0,8,,,,,0,,,82,100
62496,note_on,,,,,4,0,8,,,,,0,,,81,91
62560,note_off,,,,,64,0,8,,,,,0,,,81,100
62592,note_on,,,,,32,0,8,,,,,0,,,82,91
62684,note_off,,,,,92,0,8,,,,,0,,,82,100
62688,note_on,,,,,4,0,8,,,,,0,,,81,91
62752,note_off,,,,,64,0,8,,,,,0,,,81,100
62784,note_on,,,,,32,0,8,,,,,0,,,82,92
62876,note_off,,,,,92,0,8,,,,,0,,,82,100
62880,note_on,,,,,4,0,8,,,,,0,,,81,92
62944,note_off,,,,,64,0,8,,,,,0,,,81,100
62976,note_on,,,,,512,0,11,,,,,3,,,70,27
62976,note_on,,,,,512,0,10,,,,,2,,,70,27
62976,note_on,,,,,512,0,12,,,,,4,,,67,77
62976,note_on,,,,,32,0,8,,,,,0,,,76,92
62976,note_on,,,,,512,0,9,,,,,1,,,70,77
63068,note_off,,,,,92,0,8,,,,,0,,,76,100
63072,note_on,,,,,4,0,8,,,,,0,,,74,92
63136,note_off,,,,,64,0,8,,,,,0,,,74,100
63168,note_on,,,,,32,0,8,,,,,0,,,76,92
63232,note_off,,,,,256,0,11,,,,,3,,,70,100
63232,note_off,,,,,256,0,12,,,,,4,,,67,100
63232,note_off,,,,,256,0,9,,,,,1,,,70,100
63232,note_off,,,,,256,0,10,,,,,2,,,70,100
63260,note_off,,,,,92,0,8,,,,,0,,,76,100
63264,note_on,,,,,4,0,8,,,,,0,,,74,92
63328,note_off,,,,,64,0,8,,,,,0,,,74,100
63360,note_on,,,,,32,0,8,,,,,0,,,73,93
63452,note_off,,,,,92,0,8,,,,,0,,,73,100
63456,note_on,,,,,4,0,8,,,,,0,,,71,93
63520,note_off,,,,,64,0,8,,,,,0,,,71,100
63552,note_on,,,,,32,0,8,,,,,0,,,73,93
63644,note_off,,,,,92,0,8,,,,,0,,,73,100
63648,note_on,,,,,4,0,8,,,,,0,,,71,93
63712,note_off,,,,,64,0,8,,,,,0,,,71,100
63744,note_on,,,,,512,0,9,,,,,1,,,69,78
63744,note_on,,,,,512,0,11,,,,,3,,,69,28
63744,note_on,,,,,32,0,8,,,,,0,,,69,93
63744,note_on,,,,,512,0,10,,,,,2,,,69,28
63744,note_on,,,,,512,0,12,,,,,4,,,65,78
63872,note_off,,,,,128,0,8,,,,,0,,,69,100
63936,note_on,,,,,64,0,8,,,,,0,,,81,94
64000,note_off,,,,,256,0,12,,,,,4,,,65,100
64000,note_off,,,,,256,0,10,,,,,2,,,69,100
64000,note_off,,,,,256,0,11,,,,,3,,,69,100
64000,note_off,,,,,256,0,9,,,,,1,,,69,100
64064,note_off,,,,,128,0,8,,,,,0,,,81,100
64128,note_on,,,,,64,0,8,,,,,0,,,77,94
64256,note_off,,,,,128,0,8,,,,,0,,,77,100
64320,note_on,,,,,320,0,10,,,,,2,,,74,29
64320,note_on,,,,,64,0,8,,,,,0,,,65,94
64320,note_on,,,,,320,0,9,,,,,1,,,74,79
64320,note_on,,,,,320,0,12,,,,,4,,,65,79
64320,note_on,,,,,320,0,11,,,,,3,,,74,29
64320,note_on,,,,,0,0,8,,,,,0,,,74,94
64448,note_off,,,,,0,0,8,,,,,0,,,74,100
64448,note_off,,,,,128,0,12,,,,,4,,,65,100
64448,note_off,,,,,128,0,9,,,,,1,,,74,100
64448,note_off,,,,,128,0,10,,,,,2,,,74,100
64448,note_off,,,,,128,0,11,,,,,3,,,74,100
64448,note_off,,,,,128,0,8,,,,,0,,,65,100
64512,note_on,,,,,64,0,12,,,,,4,,,67,80
64512,note_on,,,,,64,0,10,,,,,2,,,74,30
64512,note_on,,,,,64,0,8,,,,,0,,,67,95
64512,note_on,,,,,64,0,11,,,,,3,,,74,30
64512,note_on,,,,,64,0,9,,,,,1,,,74,80
64640,note_off,,,,,128,0,8,,,,,0,,,67,100
64704,note_on,,,,,64,0,8,,,,,0,,,82,95
64768,note_off,,,,,256,0,9,,,,,1,,,74,100
64768,note_off,,,,,256,0,12,,,,,4,,,67,100
64768,note_off,,,,,256,0,11,,,,,3,,,74,100
64768,note_off,,,,,256,0,10,,,,,2,,,74,100
64832,note_off,,,,,128,0,8,,,,,0,,,82,100
64896,note_on,,,,,64,0,8,,,,,0,,,79,95
65024,note_off,,,,,128,0,8,,,,,0,,,79,100
65088,note_on,,,,,320,0,9,,,,,1,,,70,81
65088,note_on,,,,,320,0,12,,,,,4,,,55,81
65088,note_on,,,,,0,0,8,,,,,0,,,75,96
65088,note_on,,,,,320,0,10,,,,,2,,,70,31
65088,note_on,,,,,64,0,8,,,,,0,,,67,96
65088,note_on,,,,,320,0,11,,,,,3,,,70,31
65216,note_off,,,,,0,0,8,,,,,0,,,75,100
65216,note_off,,,,,128,0,8,,,,,0,,,67,100
65216,note_off,,,,,128,0,12,,,,,4,,,55,100
65216,note_off,,,,,128,0,10,,,,,2,,,70,100
65216,note_off,,,,,128,0,9,,,,,1,,,70,100
65216,note_off,,,,,128,0,11,,,,,3,,,70,100
65280,note_on,,,,,64,0,12,,,,,4,,,57,81
65280,note_on,,,,,64,0,10,,,,,2,,,64,31
65280,note_on,,,,,64,0,9,,,,,1,,,64,81
65280,note_on,,,,,64,0,8,,,,,0,,,67,96
65280,note_on,,,,,0,0,8,,,,,0,,,73,96
65280,note_on,,,,,64,0,11,,,,,3,,,64,31
65408,note_off,,,,,128,0,8,,,,,0,,,73,100
65472,note_on,,,,,64,0,8,,,,,0,,,69,96
65536,note_off,,,,,64,0,8,,,,,0,,,67,100
65536,note_off,,,,,256,0,9,,,,,1,,,64,100
65536,note_off,,,,,256,0,12,,,,,4,,,57,100
65536,note_off,,,,,256,0,11,,,,,3,,,64,100
65536,note_off,,,,,256,0,10,,,,,2,,,64,100
65600,note_off,,,,,64,0,8,,,,,0,,,69,100
65664,note_on,,,,,64,0,8,,,,,0,,,74,97
65792,note_off,,,,,128,0,8,,,,,0,,,74,100
65856,note_on,,,,,0,0,8,,,,,0,,,74,97
65856,note_on,,,,,320,0,10,,,,,2,,,65,32
65856,note_on,,,,,320,0,11,,,,,3,,,65,32
65856,note_on,,,,,320,0,12,,,,,4,,,62,82
65856,note_on,,,,,320,0,9,,,,,1,,,65,82
65856,note_on,,,,,64,0,8,,,,,0,,,65,97
65984,note_off,,,,,128,0,8,,,,,0,,,65,100
65984,note_off,,,,,0,0,8,,,,,0,,,74,100
65984,note_off,,,,,128,0,12,,,,,4,,,62,100
65984,note_off,,,,,128,0,9,,,,,1,,,65,100
65984,note_off,,,,,128,0,10,,,,,2,,,65,100
65984,note_off,,,,,128,0,11,,,,,3,,,65,100
66048,note_on,,,,,64,0,9,,,,,1,,,64,82
66048,note_on,,,,,64,0,8,,,,,0,,,64,97
66048,note_on,,,,,0,0,8,,,,,0,,,55,97
66048,note_on,,,,,64,0,10,,,,,2,,,64,32
66048,note_on,,,,,64,0,12,,,,,4,,,55,82
66048,note_on,,,,,64,0,11,,,,,3,,,64,32
66176,note_off,,,,,128,0,8,,,,,0,,,64,100
66240,note_on,,,,,0,0,8,,,,,0,,,74,98
66240,note_on,,,,,64,0,8,,,,,0,,,64,98
66304,note_off,,,,,256,0,12,,,,,4,,,55,100
66304,note_off,,,,,256,0,9,,,,,1,,,64,100
66304,note_off,,,,,64,0,8,,,,,0,,,55,100
66304,note_off,,,,,256,0,10,,,,,2,,,64,100
66304,note_off,,,,,256,0,11,,,,,3,,,64,100
66368,note_off,,,,,64,0,8,,,,,0,,,64,100
66368,note_off,,,,,0,0,8,,,,,0,,,74,100
66432,note_on,,,,,128,0,12,,,,,4,,,57,83
66432,note_on,,,,,64,0,8,,,,,0,,,64,98
66432,note_on,,,,,128,0,11,,,,,3,,,64,33
66432,note_on,,,,,128,0,10,,,,,2,,,64,33
66432,note_on,,,,,128,0,9,,,,,1,,,64,83
66432,note_on,,,,,0,0,8,,,,,0,,,57,98
66560,note_off,,,,,128,0,8,,,,,0,,,64,100
66624,note_on,,,,,64,0,8,,,,,0,,,64,98
66624,note_on,,,,,0,0,8,,,,,0,,,73,98
66688,note_off,,,,,256,0,12,,,,,4,,,57,100
66688,note_off,,,,,256,0,11,,,,,3,,,64,100
66688,note_off,,,,,256,0,10,,,,,2,,,64,100
66688,note_off,,,,,64,0,8,,,,,0,,,57,100
66688,note_off,,,,,256,0,9,,,,,1,,,64,100
66752,note_off,,,,,64,0,8,,,,,0,,,64,100
66752,note_off,,,,,0,0,8,,,,,0,,,73,100
66768,note_on,,,,,16,0,8,,,,,0,,,65,99
66816,note_on,,,,,15104,0,13,,,,,5,,,62,100
66816,note_on,,,,,128,0,9,,,,,1,,,65,84
66816,note_on,,,,,15104,0,16,,,,,7,,,62,100
66816,note_on,,,,,15104,0,14,,,,,6,,,50,100
66816,note_on,,,,,15104,0,15,,,,,7,,,69,100
66816,note_on,,,,,0,0,15,,,,,7,,,65,100
66816,note_on,,,,,128,0,10,,,,,2,,,65,50
66816,note_on,,,,,128,0,11,,,,,3,,,65,34
66816,note_on,,,,,48,0,8,,,,,0,,,57,99
66816,note_on,,,,,128,0,12,,,,,4,,,62,84
66864,note_on,,,,,48,0,8,,,,,0,,,74,99
66944,note_off,,,,,128,0,16,,,,,7,,,62,100
66944,note_off,,,,,128,0,15,,,,,7,,,69,100
66944,note_off,,,,,128,0,14,,,,,6,,,50,100
66944,note_off,,,,,128,0,10,,,,,2,,,65,100
66944,note_off,,,,,128,0,13,,,,,5,,,62,100
66944,note_off,,,,,0,0,15,,,,,7,,,65,100
67004,program_change,,,,,140,0,8,,,,,0,48,,,
67008,note_on,,,,,64,0,13,,,,,5,,,62,100
67008,note_on,,,,,64,0,14,,,,,6,,,50,100
67008,note_on,,,,,0,0,15,,,,,7,,,65,100
67008,note_on,,,,,64,0,15,,,,,7,,,69,100
67008,note_on,,,,,64,0,16,,,,,7,,,62,100
67008,note_on,,,,,4,0,8,,,,,0,,,81,100
67008,note_on,,,,,64,0,10,,,,,2,,,81,50
67024,note_off,,,,,16,0,8,,,,,0,,,65,100
67072,note_off,,,,,48,0,8,,,,,0,,,57,100
67072,note_off,,,,,256,0,9,,,,,1,,,65,100
67072,note_off,,,,,256,0,12,,,,,4,,,62,100
67072,note_off,,,,,256,0,11,,,,,3,,,65,100
67120,note_off,,,,,48,0,8,,,,,0,,,74,100
67136,note_off,,,,,128,0,16,,,,,7,,,62,100
67136,note_off,,,,,128,0,10,,,,,2,,,81,100
67136,note_off,,,,,0,0,15,,,,,7,,,65,100
67136,note_off,,,,,16,0,8,,,,,0,,,81,100
67136,note_off,,,,,128,0,14,,,,,6,,,50,100
67136,note_off,,,,,128,0,15,,,,,7,,,69,100
67136,note_off,,,,,128,0,13,,,,,5,,,62,100
67200,note_on,,,,,64,0,15,,,,,7,,,69,100
67200,note_on,,,,,64,0,16,,,,,7,,,62,100
67200,note_on,,,,,0,0,15,,,,,7,,,65,100
67200,note_on,,,,,64,0,10,,,,,2,,,81,50
67200,note_on,,,,,64,0,8,,,,,0,,,81,100
67200,note_on,,,,,64,0,14,,,,,6,,,50,100
67200,note_on,,,,,64,0,13,,,,,5,,,62,100
67328,note_off,,,,,128,0,15,,,,,7,,,69,100
67328,note_off,,,,,128,0,8,,,,,0,,,81,100
67328,note_off,,,,,128,0,14,,,,,6,,,50,100
67328,note_off,,,,,128,0,13,,,,,5,,,62,100
67328,note_off,,,,,128,0,10,,,,,2,,,81,100
67328,note_off,,,,,128,0,16,,,,,7,,,62,100
67328,note_off,,,,,0,0,15,,,,,7,,,65,100
67392,note_on,,,,,64,0,15,,,,,7,,,69,100
67392,note_on,,,,,0,0,15,,,,,7,,,65,100
67392,note_on,,,,,64,0,14,,,,,6,,,50,100
67392,note_on,,,,,64,0,8,,,,,0,,,81,100
67392,note_on,,,,,64,0,10,,,,,2,,,81,50
67392,note_on,,,,,64,0,16,,,,,7,,,62,100
67392,note_on,,,,,64,0,13,,,,,5,,,62,100
67520,note_off,,,,,128,0,13,,,,,5,,,62,100
67520,note_off,,,,,128,0,10,,,,,2,,,81,100
67520,note_off,,,,,0,0,15,,,,,7,,,65,100
67520,note_off,,,,,128,0,14,,,,,6,,,50,100
67520,note_off,,,,,128,0,16,,,,,7,,,62,100
67520,note_off,,,,,128,0,15,,,,,7,,,69,100
67520,note_off,,,,,128,0,8,,,,,0,,,81,100
67584,note_on,,,,,64,0,8,,,,,0,,,82,100
67584,note_on,,,,,64,0,10,,,,,2,,,82,50
67584,note_on,,,,,0,0,15,,,,,7,,,62,100
67584,note_on,,,,,64,0,15,,,,,7,,,58,100
67584,note_on,,,,,64,0,14,,,,,6,,,43,100
67584,note_on,,,,,64,0,16,,,,,7,,,55,100
67584,note_on,,,,,64,0,13,,,,,5,,,55,100
67712,note_off,,,,,128,0,15,,,,,7,,,58,100
67712,note_off,,,,,128,0,14,,,,,6,,,43,100
67712,note_off,,,,,0,0,15,,,,,7,,,62,100
67712,note_off,,,,,128,0,13,,,,,5,,,55,100
67712,note_off,,,,,128,0,16,,,,,7,,,55,100
67776,note_on,,,,,64,0,14,,,,,6,,,43,100
67776,note_on,,,,,704,0,9,,,,,1,,,79,100
67776,note_on,,,,,704,0,11,,,,,3,,,74,100
67776,note_on,,,,,64,0,15,,,,,7,,,58,100
67776,note_on,,,,,0,0,15,,,,,7,,,62,100
67776,note_on,,,,,64,0,13,,,,,5,,,55,100
67776,note_on,,,,,64,0,16,,,,,7,,,55,100
67840,note_off,,,,,64,0,9,,,,,1,,,79,100
67872,note_on,,,,,32,0,9,,,,,1,,,81,100
67904,note_off,,,,,128,0,11,,,,,3,,,74,100
67904,note_off,,,,,0,0,15,,,,,7,,,62,100
67904,note_off,,,,,128,0,13,,,,,5,,,55,100
67904,note_off,,,,,128,0,16,,,,,7,,,55,100
67904,note_off,,,,,128,0,15,,,,,7,,,58,100
67904,note_off,,,,,128,0,14,,,,,6,,,43,100
67936,note_off,,,,,64,0,9,,,,,1,,,81,100
67968,note_on,,,,,64,0,15,,,,,7,,,58,100
67968,note_on,,,,,64,0,13,,,,,5,,,55,100
67968,note_on,,,,,64,0,11,,,,,3,,,79,100
67968,note_on,,,,,0,0,15,,,,,7,,,62,100
67968,note_on,,,,,32,0,9,,,,,1,,,82,100
67968,note_on,,,,,64,0,16,,,,,7,,,55,100
67968,note_on,,,,,64,0,14,,,,,6,,,43,100
68096,note_off,,,,,0,0,15,,,,,7,,,62,100
68096,note_off,,,,,128,0,16,,,,,7,,,55,100
68096,note_off,,,,,128,0,14,,,,,6,,,43,100
68096,note_off,,,,,128,0,9,,,,,1,,,82,100
68096,note_off,,,,,128,0,11,,,,,3,,,79,100
68096,note_off,,,,,128,0,15,,,,,7,,,58,100
68096,note_off,,,,,128,0,13,,,,,5,,,55,100
68160,note_on,,,,,64,0,9,,,,,1,,,79,100
68160,note_on,,,,,0,0,15,,,,,7,,,62,100
68160,note_on,,,,,64,0,14,,,,,6,,,43,100
68160,note_on,,,,,64,0,16,,,,,7,,,55,100
68160,note_on,,,,,64,0,11,,,,,3,,,74,100
68160,note_on,,,,,64,0,15,,,,,7,,,58,100
68160,note_on,,,,,64,0,13,,,,,5,,,55,100
68288,note_off,,,,,128,0,14,,,,,6,,,43,100
68288,note_off,,,,,0,0,15,,,,,7,,,62,100
68288,note_off,,,,,128,0,13,,,,,5,,,55,100
68288,note_off,,,,,128,0,9,,,,,1,,,79,100
68288,note_off,,,,,128,0,16,,,,,7,,,55,100
68288,note_off,,,,,128,0,15,,,,,7,,,58,100
68288,note_off,,,,,128,0,11,,,,,3,,,74,100
68352,note_on,,,,,64,0,13,,,,,5,,,60,100
68352,note_on,,,,,64,0,16,,,,,7,,,60,100
68352,note_on,,,,,64,0,11,,,,,3,,,72,100
68352,note_on,,,,,0,0,15,,,,,7,,,70,100
68352,note_on,,,,,64,0,14,,,,,6,,,48,100
68352,note_on,,,,,64,0,9,,,,,1,,,76,100
68352,note_on,,,,,64,0,15,,,,,7,,,67,100
68416,note_off,,,,,832,0,10,,,,,2,,,82,100
68416,note_off,,,,,832,0,8,,,,,0,,,82,100
68480,note_off,,,,,128,0,11,,,,,3,,,72,100
68480,note_off,,,,,128,0,15,,,,,7,,,67,100
68480,note_off,,,,,0,0,15,,,,,7,,,70,100
68480,note_off,,,,,128,0,16,,,,,7,,,60,100
68480,note_off,,,,,128,0,14,,,,,6,,,48,100
68480,note_off,,,,,128,0,9,,,,,1,,,76,100
68480,note_off,,,,,128,0,13,,,,,5,,,60,100
68544,note_on,,,,,64,0,15,,,,,7,,,67,100
68544,note_on,,,,,0,0,15,,,,,7,,,70,100
68544,note_on,,,,,128,0,8,,,,,0,,,84,100
68544,note_on,,,,,0,0,12,,,,,4,,,67,100
68544,note_on,,,,,64,0,9,,,,,1,,,64,100
68544,note_on,,,,,128,0,10,,,,,2,,,84,50
68544,note_on,,,,,64,0,14,,,,,6,,,48,100
68544,note_on,,,,,64,0,16,,,,,7,,,60,100
68544,note_on,,,,,64,0,11,,,,,3,,,60,100
68544,note_on,,,,,64,0,13,,,,,5,,,60,100
68544,note_on,,,,,1472,0,12,,,,,4,,,64,100
68608,note_off,,,,,64,0,10,,,,,2,,,84,100
68608,note_off,,,,,64,0,8,,,,,0,,,84,100
68640,note_on,,,,,32,0,10,,,,,2,,,82,50
68640,note_on,,,,,32,0,8,,,,,0,,,82,100
68672,note_off,,,,,128,0,9,,,,,1,,,64,100
68672,note_off,,,,,128,0,16,,,,,7,,,60,100
68672,note_off,,,,,128,0,12,,,,,4,,,64,100
68672,note_off,,,,,128,0,13,,,,,5,,,60,100
68672,note_off,,,,,128,0,15,,,,,7,,,67,100
68672,note_off,,,,,128,0,14,,,,,6,,,48,100
68672,note_off,,,,,0,0,15,,,,,7,,,70,100
68672,note_off,,,,,0,0,12,,,,,4,,,67,100
68672,note_off,,,,,128,0,11,,,,,3,,,60,100
68704,note_off,,,,,64,0,10,,,,,2,,,82,100
68704,note_off,,,,,64,0,8,,,,,0,,,82,100
68736,note_on,,,,,64,0,12,,,,,4,,,64,100
68736,note_on,,,,,0,0,12,,,,,4,,,67,100
68736,note_on,,,,,64,0,15,,,,,7,,,67,100
68736,note_on,,,,,64,0,14,,,,,6,,,48,100
68736,note_on,,,,,32,0,8,,,,,0,,,84,100
68736,note_on,,,,,64,0,16,,,,,7,,,60,100
68736,note_on,,,,,0,0,15,,,,,7,,,70,100
68736,note_on,,,,,64,0,13,,,,,5,,,60,100
68736,note_on,,,,,32,0,10,,,,,2,,,84,50
68864,note_off,,,,,128,0,16,,,,,7,,,60,100
68864,note_off,,,,,128,0,10,,,,,2,,,84,100
68864,note_off,,,,,128,0,8,,,,,0,,,84,100
68864,note_off,,,,,128,0,13,,,,,5,,,60,100
68864,note_off,,,,,128,0,12,,,,,4,,,64,100
68864,note_off,,,,,0,0,12,,,,,4,,,67,100
68864,note_off,,,,,128,0,14,,,,,6,,,48,100
68864,note_off,,,,,128,0,15,,,,,7,,,67,100
68864,note_off,,,,,0,0,15,,,,,7,,,70,100
68928,note_on,,,,,0,0,12,,,,,4,,,65,100
68928,note_on,,,,,64,0,16,,,,,7,,,60,100
68928,note_on,,,,,64,0,8,,,,,0,,,79,100
68928,note_on,,,,,64,0,13,,,,,5,,,60,100
68928,note_on,,,,,64,0,12,,,,,4,,,62,100
68928,note_on,,,,,64,0,14,,,,,6,,,48,100
68928,note_on,,,,,64,0,10,,,,,2,,,79,50
68928,note_on,,,,,0,0,15,,,,,7,,,70,100
68928,note_on,,,,,64,0,15,,,,,7,,,67,100
68992,note_off,,,,,0,0,12,,,,,4,,,65,100
68992,note_off,,,,,64,0,12,,,,,4,,,62,100
69024,note_on,,,,,32,0,12,,,,,4,,,60,100
69024,note_on,,,,,0,0,12,,,,,4,,,64,100
69056,note_off,,,,,128,0,8,,,,,0,,,79,100
69056,note_off,,,,,128,0,13,,,,,5,,,60,100
69056,note_off,,,,,128,0,10,,,,,2,,,79,100
69056,note_off,,,,,128,0,16,,,,,7,,,60,100
69056,note_off,,,,,128,0,15,,,,,7,,,67,100
69056,note_off,,,,,0,0,15,,,,,7,,,70,100
69056,note_off,,,,,128,0,14,,,,,6,,,48,100
69088,note_off,,,,,64,0,12,,,,,4,,,60,100
69088,note_off,,,,,0,0,12,,,,,4,,,64,100
69120,note_on,,,,,64,0,16,,,,,7,,,53,100
69120,note_on,,,,,64,0,10,,,,,2,,,81,50
69120,note_on,,,,,64,0,15,,,,,7,,,60,100
69120,note_on,,,,,0,0,15,,,,,7,,,64,100
69120,note_on,,,,,64,0,8,,,,,0,,,81,100
69120,note_on,,,,,32,0,12,,,,,4,,,60,100
69120,note_on,,,,,0,0,12,,,,,4,,,65,100
69120,note_on,,,,,64,0,13,,,,,5,,,53,100
69120,note_on,,,,,64,0,14,,,,,6,,,41,100
69248,note_off,,,,,128,0,14,,,,,6,,,41,100
69248,note_off,,,,,128,0,13,,,,,5,,,53,100
69248,note_off,,,,,128,0,16,,,,,7,,,53,100
69248,note_off,,,,,128,0,15,,,,,7,,,60,100
69248,note_off,,,,,0,0,15,,,,,7,,,64,100
69312,note_on,,,,,640,0,9,,,,,1,,,77,100
69312,note_on,,,,,64,0,13,,,,,5,,,53,100
69312,note_on,,,,,64,0,16,,,,,7,,,53,100
69312,note_on,,,,,640,0,11,,,,,3,,,74,100
69312,note_on,,,,,64,0,15,,,,,7,,,60,100
69312,note_on,,,,,64,0,14,,,,,6,,,41,100
69312,note_on,,,,,0,0,15,,,,,7,,,64,100
69376,note_off,,,,,64,0,9,,,,,1,,,77,100
69408,note_on,,,,,32,0,9,,,,,1,,,79,99
69440,note_off,,,,,128,0,11,,,,,3,,,74,100
69440,note_off,,,,,128,0,14,,,,,6,,,41,100
69440,note_off,,,,,128,0,13,,,,,5,,,53,100
69440,note_off,,,,,0,0,15,,,,,7,,,64,100
69440,note_off,,,,,128,0,15,,,,,7,,,60,100
69440,note_off,,,,,128,0,16,,,,,7,,,53,100
69472,note_off,,,,,64,0,9,,,,,1,,,79,100
69504,note_on,,,,,64,0,14,,,,,6,,,41,99
69504,note_on,,,,,64,0,11,,,,,3,,,77,99
69504,note_on,,,,,64,0,13,,,,,5,,,53,99
69504,note_on,,,,,64,0,16,,,,,7,,,53,100
69504,note_on,,,,,32,0,9,,,,,1,,,81,99
69504,note_on,,,,,64,0,15,,,,,7,,,60,100
69504,note_on,,,,,0,0,15,,,,,7,,,64,100
69632,note_off,,,,,512,0,12,,,,,4,,,60,100
69632,note_off,,,,,128,0,14,,,,,6,,,41,100
69632,note_off,,,,,0,0,12,,,,,4,,,65,100
69632,note_off,,,,,128,0,16,,,,,7,,,53,100
69632,note_off,,,,,128,0,11,,,,,3,,,77,100
69632,note_off,,,,,0,0,15,,,,,7,,,64,100
69632,note_off,,,,,128,0,13,,,,,5,,,53,100
69632,note_off,,,,,128,0,9,,,,,1,,,81,100
69632,note_off,,,,,128,0,15,,,,,7,,,60,100
69696,note_on,,,,,64,0,9,,,,,1,,,77,98
69696,note_on,,,,,0,0,15,,,,,7,,,64,100
69696,note_on,,,,,64,0,16,,,,,7,,,53,100
69696,note_on,,,,,64,0,15,,,,,7,,,60,100
69696,note_on,,,,,64,0,14,,,,,6,,,41,98
69696,note_on,,,,,64,0,13,,,,,5,,,53,98
69696,note_on,,,,,64,0,11,,,,,3,,,74,98
69824,note_off,,,,,128,0,9,,,,,1,,,77,100
69824,note_off,,,,,128,0,16,,,,,7,,,53,100
69824,note_off,,,,,128,0,15,,,,,7,,,60,100
69824,note_off,,,,,0,0,15,,,,,7,,,64,100
69824,note_off,,,,,128,0,14,,,,,6,,,41,100
69824,note_off,,,,,128,0,13,,,,,5,,,53,100
69824,note_off,,,,,128,0,11,,,,,3,,,74,100
69888,note_on,,,,,64,0,13,,,,,5,,,58,97
69888,note_on,,,,,64,0,11,,,,,3,,,70,97
69888,note_on,,,,,0,0,15,,,,,7,,,69,100
69888,note_on,,,,,64,0,15,,,,,7,,,65,100
69888,note_on,,,,,64,0,16,,,,,7,,,58,100
69888,note_on,,,,,64,0,9,,,,,1,,,74,97
69888,note_on,,,,,64,0,14,,,,,6,,,46,97
69952,note_off,,,,,832,0,10,,,,,2,,,81,100
69952,note_off,,,,,832,0,8,,,,,0,,,81,100
70016,note_off,,,,,128,0,11,,,,,3,,,70,100
70016,note_off,,,,,128,0,13,,,,,5,,,58,100
70016,note_off,,,,,128,0,14,,,,,6,,,46,100
70016,note_off,,,,,128,0,9,,,,,1,,,74,100
70016,note_off,,,,,0,0,15,,,,,7,,,69,100
70016,note_off,,,,,128,0,15,,,,,7,,,65,100
70016,note_off,,,,,128,0,16,,,,,7,,,58,100
70080,note_on,,,,,448,0,12,,,,,4,,,62,96
70080,note_on,,,,,0,0,15,,,,,7,,,69,100
70080,note_on,,,,,64,0,11,,,,,3,,,58,96
70080,note_on,,,,,64,0,15,,,,,7,,,65,100
70080,note_on,,,,,64,0,9,,,,,1,,,62,96
70080,note_on,,,,,0,0,12,,,,,4,,,65,96
70080,note_on,,,,,64,0,16,,,,,7,,,58,100
70080,note_on,,,,,64,0,14,,,,,6,,,46,96
70080,note_on,,,,,128,0,8,,,,,0,,,82,96
70080,note_on,,,,,64,0,13,,,,,5,,,58,96
70080,note_on,,,,,128,0,10,,,,,2,,,82,46
70144,note_off,,,,,64,0,8,,,,,0,,,82,100
70144,note_off,,,,,64,0,10,,,,,2,,,82,100
70176,note_on,,,,,32,0,8,,,,,0,,,81,95
70176,note_on,,,,,32,0,10,,,,,2,,,81,45
70208,note_off,,,,,128,0,15,,,,,7,,,65,100
70208,note_off,,,,,128,0,14,,,,,6,,,46,100
70208,note_off,,,,,0,0,12,,,,,4,,,65,100
70208,note_off,,,,,128,0,12,,,,,4,,,62,100
70208,note_off,,,,,128,0,16,,,,,7,,,58,100
70208,note_off,,,,,0,0,15,,,,,7,,,69,100
70208,note_off,,,,,128,0,13,,,,,5,,,58,100
70208,note_off,,,,,128,0,11,,,,,3,,,58,100
70208,note_off,,,,,128,0,9,,,,,1,,,62,100
70240,note_off,,,,,64,0,10,,,,,2,,,81,100
70240,note_off,,,,,64,0,8,,,,,0,,,81,100
70272,note_on,,,,,32,0,10,,,,,2,,,82,45
70272,note_on,,,,,64,0,16,,,,,7,,,58,100
70272,note_on,,,,,64,0,15,,,,,7,,,65,100
70272,note_on,,,,,32,0,8,,,,,0,,,82,95
70272,note_on,,,,,64,0,14,,,,,6,,,46,95
70272,note_on,,,,,64,0,13,,,,,5,,,58,95
70272,note_on,,,,,0,0,12,,,,,4,,,65,95
70272,note_on,,,,,64,0,12,,,,,4,,,62,95
70272,note_on,,,,,0,0,15,,,,,7,,,69,100
70400,note_off,,,,,128,0,16,,,,,7,,,58,100
70400,note_off,,,,,0,0,12,,,,,4,,,65,100
70400,note_off,,,,,128,0,12,,,,,4,,,62,100
70400,note_off,,,,,128,0,14,,,,,6,,,46,100
70400,note_off,,,,,128,0,10,,,,,2,,,82,100
70400,note_off,,,,,128,0,13,,,,,5,,,58,100
70400,note_off,,,,,0,0,15,,,,,7,,,69,100
70400,note_off,,,,,128,0,15,,,,,7,,,65,100
70400,note_off,,,,,128,0,8,,,,,0,,,82,100
70464,note_on,,,,,0,0,12,,,,,4,,,63,94
70464,note_on,,,,,64,0,10,,,,,2,,,77,44
70464,note_on,,,,,64,0,13,,,,,5,,,58,94
70464,note_on,,,,,64,0,12,,,,,4,,,60,94
70464,note_on,,,,,0,0,15,,,,,7,,,69,100
70464,note_on,,,,,64,0,8,,,,,0,,,77,94
70464,note_on,,,,,64,0,15,,,,,7,,,65,100
70464,note_on,,,,,64,0,16,,,,,7,,,58,100
70464,note_on,,,,,64,0,14,,,,,6,,,46,94
70528,note_off,,,,,0,0,12,,,,,4,,,63,100
70528,note_off,,,,,64,0,12,,,,,4,,,60,100
70560,note_on,,,,,32,0,12,,,,,4,,,58,93
70560,note_on,,,,,0,0,12,,,,,4,,,62,93
70592,note_off,,,,,128,0,15,,,,,7,,,65,100
70592,note_off,,,,,128,0,13,,,,,5,,,58,100
70592,note_off,,,,,128,0,14,,,,,6,,,46,100
70592,note_off,,,,,128,0,10,,,,,2,,,77,100
70592,note_off,,,,,128,0,8,,,,,0,,,77,100
70592,note_off,,,,,128,0,16,,,,,7,,,58,100
70592,note_off,,,,,0,0,15,,,,,7,,,69,100
70624,note_off,,,,,64,0,12,,,,,4,,,58,100
70624,note_off,,,,,0,0,12,,,,,4,,,62,100
70656,note_on,,,,,64,0,16,,,,,7,,,52,100
70656,note_on,,,,,64,0,13,,,,,5,,,52,93
70656,note_on,,,,,64,0,14,,,,,6,,,40,93
70656,note_on,,,,,64,0,8,,,,,0,,,79,93
70656,note_on,,,,,64,0,10,,,,,2,,,79,43
70656,note_on,,,,,0,0,12,,,,,4,,,64,93
70656,note_on,,,,,32,0,12,,,,,4,,,55,93
70656,note_on,,,,,64,0,15,,,,,7,,,59,100
70656,note_on,,,,,0,0,15,,,,,7,,,62,100
70784,note_off,,,,,128,0,13,,,,,5,,,52,100
70784,note_off,,,,,0,0,15,,,,,7,,,62,100
70784,note_off,,,,,128,0,14,,,,,6,,,40,100
70784,note_off,,,,,128,0,16,,,,,7,,,52,100
70784,note_off,,,,,128,0,15,,,,,7,,,59,100
70848,note_on,,,,,64,0,13,,,,,5,,,52,92
70848,note_on,,,,,64,0,14,,,,,6,,,40,92
70848,note_on,,,,,640,0,11,,,,,3,,,71,92
70848,note_on,,,,,64,0,16,,,,,7,,,52,100
70848,note_on,,,,,64,0,15,,,,,7,,,59,100
70848,note_on,,,,,0,0,15,,,,,7,,,62,100
70848,note_on,,,,,640,0,9,,,,,1,,,76,92
70912,note_off,,,,,0,0,12,,,,,4,,,64,100
70912,note_off,,,,,256,0,12,,,,,4,,,55,100
70912,note_off,,,,,64,0,9,,,,,1,,,76,100
70944,note_on,,,,,32,0,9,,,,,1,,,77,91
70976,note_off,,,,,128,0,16,,,,,7,,,52,100
70976,note_off,,,,,128,0,13,,,,,5,,,52,100
70976,note_off,,,,,128,0,15,,,,,7,,,59,100
70976,note_off,,,,,0,0,15,,,,,7,,,62,100
70976,note_off,,,,,128,0,11,,,,,3,,,71,100
70976,note_off,,,,,128,0,14,,,,,6,,,40,100
71008,note_off,,,,,64,0,9,,,,,1,,,77,100
71040,note_on,,,,,64,0,14,,,,,6,,,40,91
71040,note_on,,,,,64,0,13,,,,,5,,,52,91
71040,note_on,,,,,64,0,11,,,,,3,,,76,91
71040,note_on,,,,,32,0,9,,,,,1,,,79,91
71040,note_on,,,,,0,0,15,,,,,7,,,62,100
71040,note_on,,,,,64,0,15,,,,,7,,,59,100
71040,note_on,,,,,64,0,16,,,,,7,,,52,100
71168,note_off,,,,,128,0,15,,,,,7,,,59,100
71168,note_off,,,,,0,0,15,,,,,7,,,62,100
71168,note_off,,,,,128,0,13,,,,,5,,,52,100
71168,note_off,,,,,128,0,16,,,,,7,,,52,100
71168,note_off,,,,,128,0,9,,,,,1,,,79,100
71168,note_off,,,,,128,0,14,,,,,6,,,40,100
71168,note_off,,,,,128,0,11,,,,,3,,,76,100
71232,note_on,,,,,64,0,15,,,,,7,,,59,100
71232,note_on,,,,,0,0,15,,,,,7,,,62,100
71232,note_on,,,,,64,0,9,,,,,1,,,76,90
71232,note_on,,,,,64,0,13,,,,,5,,,52,90
71232,note_on,,,,,64,0,16,,,,,7,,,52,100
71232,note_on,,,,,64,0,14,,,,,6,,,40,90
71232,note_on,,,,,64,0,11,,,,,3,,,71,90
71360,note_off,,,,,128,0,13,,,,,5,,,52,100
71360,note_off,,,,,128,0,14,,,,,6,,,40,100
71360,note_off,,,,,128,0,15,,,,,7,,,59,100
71360,note_off,,,,,128,0,11,,,,,3,,,71,100
71360,note_off,,,,,128,0,9,,,,,1,,,76,100
71360,note_off,,,,,0,0,15,,,,,7,,,62,100
71360,note_off,,,,,128,0,16,,,,,7,,,52,100
71424,note_on,,,,,64,0,13,,,,,5,,,57,89
71424,note_on,,,,,64,0,11,,,,,3,,,69,89
71424,note_on,,,,,64,0,16,,,,,7,,,57,100
71424,note_on,,,,,64,0,15,,,,,7,,,61,100
71424,note_on,,,,,0,0,15,,,,,7,,,67,100
71424,note_on,,,,,64,0,9,,,,,1,,,73,89
71424,note_on,,,,,64,0,14,,,,,6,,,45,89
71488,note_off,,,,,832,0,8,,,,,0,,,79,100
71488,note_off,,,,,832,0,10,,,,,2,,,79,100
71552,note_off,,,,,128,0,9,,,,,1,,,73,100
71552,note_off,,,,,128,0,11,,,,,3,,,69,100
71552,note_off,,,,,128,0,16,,,,,7,,,57,100
71552,note_off,,,,,0,0,15,,,,,7,,,67,100
71552,note_off,,,,,128,0,15,,,,,7,,,61,100
71552,note_off,,,,,128,0,14,,,,,6,,,45,100
71552,note_off,,,,,128,0,13,,,,,5,,,57,100
71616,note_on,,,,,64,0,13,,,,,5,,,57,88
71616,note_on,,,,,64,0,9,,,,,1,,,61,88
71616,note_on,,,,,0,0,15,,,,,7,,,61,100
71616,note_on,,,,,64,0,15,,,,,7,,,67,100
71616,note_on,,,,,64,0,14,,,,,6,,,45,88
71616,note_on,,,,,128,0,8,,,,,0,,,81,88
71616,note_on,,,,,128,0,10,,,,,2,,,81,38
71616,note_on,,,,,64,0,11,,,,,3,,,57,88
71616,note_on,,,,,0,0,12,,,,,4,,,64,88
71616,note_on,,,,,64,0,16,,,,,7,,,57,100
71616,note_on,,,,,704,0,12,,,,,4,,,61,88
71680,note_off,,,,,64,0,8,,,,,0,,,81,100
71680,note_off,,,,,64,0,10,,,,,2,,,81,100
71712,note_on,,,,,32,0,10,,,,,2,,,79,37
71712,note_on,,,,,32,0,8,,,,,0,,,79,87
71744,note_off,,,,,128,0,14,,,,,6,,,45,100
71744,note_off,,,,,128,0,16,,,,,7,,,57,100
71744,note_off,,,,,128,0,12,,,,,4,,,61,100
71744,note_off,,,,,0,0,12,,,,,4,,,64,100
71744,note_off,,,,,128,0,11,,,,,3,,,57,100
71744,note_off,,,,,0,0,15,,,,,7,,,61,100
71744,note_off,,,,,128,0,9,,,,,1,,,61,100
71744,note_off,,,,,128,0,13,,,,,5,,,57,100
71744,note_off,,,,,128,0,15,,,,,7,,,67,100
71776,note_off,,,,,64,0,8,,,,,0,,,79,100
71776,note_off,,,,,64,0,10,,,,,2,,,79,100
71808,note_on,,,,,64,0,15,,,,,7,,,67,100
71808,note_on,,,,,0,0,15,,,,,7,,,61,100
71808,note_on,,,,,64,0,13,,,,,5,,,57,87
71808,note_on,,,,,64,0,16,,,,,7,,,57,100
71808,note_on,,,,,0,0,12,,,,,4,,,64,87
71808,note_on,,,,,64,0,12,,,,,4,,,61,87
71808,note_on,,,,,32,0,10,,,,,2,,,81,37
71808,note_on,,,,,32,0,8,,,,,0,,,81,87
71808,note_on,,,,,64,0,14,,,,,6,,,45,87
71936,note_off,,,,,128,0,14,,,,,6,,,45,100
71936,note_off,,,,,128,0,13,,,,,5,,,57,100
71936,note_off,,,,,128,0,10,,,,,2,,,81,100
71936,note_off,,,,,128,0,8,,,,,0,,,81,100
71936,note_off,,,,,128,0,15,,,,,7,,,67,100
71936,note_off,,,,,0,0,15,,,,,7,,,61,100
71936,note_off,,,,,0,0,12,,,,,4,,,64,100
71936,note_off,,,,,128,0,12,,,,,4,,,61,100
71936,note_off,,,,,128,0,16,,,,,7,,,57,100
72000,note_on,,,,,0,0,12,,,,,4,,,62,86
72000,note_on,,,,,64,0,12,,,,,4,,,59,86
72000,note_on,,,,,64,0,8,,,,,0,,,76,86
72000,note_on,,,,,64,0,16,,,,,7,,,57,100
72000,note_on,,,,,64,0,10,,,,,2,,,76,36
72000,note_on,,,,,64,0,13,,,,,5,,,57,86
72000,note_on,,,,,64,0,14,,,,,6,,,45,86
72000,note_on,,,,,64,0,15,,,,,7,,,67,100
72000,note_on,,,,,0,0,15,,,,,7,,,61,100
72064,note_off,,,,,64,0,12,,,,,4,,,59,100
72064,note_off,,,,,0,0,12,,,,,4,,,62,100
72096,note_on,,,,,0,0,12,,,,,4,,,61,100
72096,note_on,,,,,32,0,12,,,,,4,,,57,100
72128,note_off,,,,,128,0,16,,,,,7,,,57,100
72128,note_off,,,,,128,0,15,,,,,7,,,67,100
72128,note_off,,,,,128,0,10,,,,,2,,,76,100
72128,note_off,,,,,0,0,15,,,,,7,,,61,100
72128,note_off,,,,,128,0,13,,,,,5,,,57,100
72128,note_off,,,,,128,0,14,,,,,6,,,45,100
72128,note_off,,,,,128,0,8,,,,,0,,,76,100
72160,note_off,,,,,0,0,12,,,,,4,,,61,100
72160,note_off,,,,,64,0,12,,,,,4,,,57,100
72192,note_on,,,,,64,0,13,,,,,5,,,50,85
72192,note_on,,,,,64,0,15,,,,,7,,,69,100
72192,note_on,,,,,64,0,16,,,,,7,,,50,100
72192,note_on,,,,,448,0,9,,,,,1,,,69,85
72192,note_on,,,,,0,0,15,,,,,7,,,65,100
72192,note_on,,,,,64,0,10,,,,,2,,,77,35
72192,note_on,,,,,64,0,14,,,,,6,,,38,85
72192,note_on,,,,,64,0,8,,,,,0,,,77,85
72192,note_on,,,,,0,0,12,,,,,4,,,62,85
72192,note_on,,,,,32,0,12,,,,,4,,,57,85
72192,note_on,,,,,448,0,11,,,,,3,,,69,35
72320,note_off,,,,,128,0,10,,,,,2,,,77,100
72320,note_off,,,,,128,0,8,,,,,0,,,77,100
72384,note_on,,,,,64,0,10,,,,,2,,,74,36
72384,note_on,,,,,64,0,8,,,,,0,,,74,86
72448,note_off,,,,,256,0,9,,,,,1,,,69,100
72448,note_off,,,,,256,0,11,,,,,3,,,69,100
72448,note_off,,,,,256,0,12,,,,,4,,,62,100
72576,note_on,,,,,128,0,11,,,,,3,,,77,37
72576,note_on,,,,,0,0,12,,,,,4,,,57,87
72576,note_off,,,,,384,0,16,,,,,7,,,50,100
72576,note_off,,,,,0,0,15,,,,,7,,,65,100
72576,note_off,,,,,128,0,12,,,,,4,,,57,100
72576,note_off,,,,,384,0,15,,,,,7,,,69,100
72576,note_off,,,,,384,0,13,,,,,5,,,50,100
72576,note_on,,,,,128,0,9,,,,,1,,,77,87
72576,note_off,,,,,384,0,14,,,,,6,,,38,100
72640,note_off,,,,,256,0,10,,,,,2,,,74,100
72640,note_off,,,,,256,0,8,,,,,0,,,74,100
72704,note_off,,,,,128,0,12,,,,,4,,,57,100
72768,note_on,,,,,192,0,14,,,,,6,,,38,88
72768,note_on,,,,,192,0,13,,,,,5,,,50,88
72768,note_on,,,,,192,0,15,,,,,7,,,71,100
72768,note_on,,,,,0,0,15,,,,,7,,,65,100
72768,note_on,,,,,64,0,12,,,,,4,,,62,88
72768,note_on,,,,,128,0,8,,,,,0,,,83,88
72768,note_on,,,,,128,0,10,,,,,2,,,83,38
72768,note_on,,,,,192,0,16,,,,,7,,,50,100
72832,note_off,,,,,256,0,9,,,,,1,,,77,100
72832,note_off,,,,,256,0,11,,,,,3,,,77,100
72896,note_off,,,,,128,0,13,,,,,5,,,50,100
72896,note_off,,,,,128,0,12,,,,,4,,,62,100
72896,note_off,,,,,128,0,10,,,,,2,,,83,100
72896,note_off,,,,,0,0,15,,,,,7,,,65,100
72896,note_off,,,,,128,0,15,,,,,7,,,71,100
72896,note_off,,,,,128,0,8,,,,,0,,,83,100
72896,note_off,,,,,128,0,16,,,,,7,,,50,100
72896,note_off,,,,,128,0,14,,,,,6,,,38,100
72960,note_on,,,,,128,0,11,,,,,3,,,71,39
72960,note_on,,,,,128,0,9,,,,,1,,,71,89
72960,note_on,,,,,64,0,15,,,,,7,,,68,100
72960,note_on,,,,,0,0,15,,,,,7,,,64,100
72960,note_on,,,,,64,0,8,,,,,0,,,80,89
72960,note_on,,,,,64,0,10,,,,,2,,,80,39
72960,note_on,,,,,64,0,16,,,,,7,,,50,100
72960,note_on,,,,,64,0,12,,,,,4,,,64,89
72960,note_on,,,,,64,0,13,,,,,5,,,50,89
72960,note_on,,,,,64,0,14,,,,,6,,,38,89
73088,note_off,,,,,128,0,9,,,,,1,,,71,100
73088,note_off,,,,,128,0,11,,,,,3,,,71,100
73152,note_on,,,,,64,0,9,,,,,1,,,76,91
73152,note_on,,,,,64,0,11,,,,,3,,,76,41
73216,note_off,,,,,256,0,14,,,,,6,,,38,100
73216,note_off,,,,,256,0,15,,,,,7,,,68,100
73216,note_off,,,,,256,0,8,,,,,0,,,80,100
73216,note_off,,,,,256,0,10,,,,,2,,,80,100
73216,note_off,,,,,0,0,15,,,,,7,,,64,100
73216,note_off,,,,,256,0,16,,,,,7,,,50,100
73216,note_off,,,,,256,0,13,,,,,5,,,50,100
73344,note_on,,,,,128,0,8,,,,,0,,,81,92
73344,note_on,,,,,128,0,16,,,,,7,,,48,100
73344,note_on,,,,,128,0,15,,,,,7,,,69,100
73344,note_on,,,,,128,0,14,,,,,6,,,36,92
73344,note_on,,,,,128,0,13,,,,,5,,,48,92
73344,note_on,,,,,0,0,15,,,,,7,,,64,100
73344,note_on,,,,,128,0,10,,,,,2,,,81,42
73344,note_off,,,,,384,0,12,,,,,4,,,64,100
73408,note_off,,,,,256,0,11,,,,,3,,,76,100
73408,note_off,,,,,256,0,9,,,,,1,,,76,100
73536,note_on,,,,,128,0,9,,,,,1,,,74,93
73536,note_on,,,,,192,0,12,,,,,4,,,64,93
73536,note_on,,,,,128,0,11,,,,,3,,,74,43
73600,note_off,,,,,0,0,15,,,,,7,,,64,100
73600,note_off,,,,,256,0,15,,,,,7,,,69,100
73600,note_off,,,,,64,0,11,,,,,3,,,74,100
73600,note_off,,,,,256,0,16,,,,,7,,,48,100
73600,note_off,,,,,64,0,9,,,,,1,,,74,100
73600,note_off,,,,,256,0,14,,,,,6,,,36,100
73600,note_off,,,,,256,0,13,,,,,5,,,48,100
73632,note_on,,,,,32,0,11,,,,,3,,,72,44
73632,note_on,,,,,32,0,9,,,,,1,,,72,94
73664,note_off,,,,,128,0,12,,,,,4,,,64,100
73696,note_off,,,,,64,0,9,,,,,1,,,72,100
73696,note_off,,,,,64,0,11,,,,,3,,,72,100
73728,note_on,,,,,128,0,16,,,,,7,,,50,100
73728,note_on,,,,,128,0,14,,,,,6,,,38,94
73728,note_on,,,,,32,0,11,,,,,3,,,71,44
73728,note_on,,,,,0,0,15,,,,,7,,,69,100
73728,note_on,,,,,128,0,15,,,,,7,,,71,100
73728,note_on,,,,,32,0,9,,,,,1,,,71,94
73728,note_on,,,,,64,0,12,,,,,4,,,65,94
73728,note_on,,,,,128,0,13,,,,,5,,,50,94
73856,note_off,,,,,128,0,11,,,,,3,,,71,100
73856,note_off,,,,,128,0,9,,,,,1,,,71,100
73920,note_on,,,,,64,0,11,,,,,3,,,72,46
73920,note_on,,,,,64,0,9,,,,,1,,,72,96
73984,note_off,,,,,0,0,15,,,,,7,,,69,100
73984,note_off,,,,,256,0,15,,,,,7,,,71,100
73984,note_off,,,,,256,0,16,,,,,7,,,50,100
73984,note_off,,,,,256,0,14,,,,,6,,,38,100
73984,note_off,,,,,256,0,13,,,,,5,,,50,100
73984,note_off,,,,,256,0,12,,,,,4,,,65,100
74048,note_off,,,,,128,0,9,,,,,1,,,72,100
74048,note_off,,,,,128,0,11,,,,,3,,,72,100
74108,note_off,,,,,764,0,10,,,,,2,,,81,64
74108,note_off,,,,,764,0,8,,,,,0,,,81,64
74112,note_on,,,,,4,0,8,,,,,0,,,80,97
74112,note_on,,,,,128,0,14,,,,,6,,,40,97
74112,note_on,,,,,128,0,12,,,,,4,,,64,97
74112,note_on,,,,,128,0,13,,,,,5,,,52,97
74112,note_on,,,,,64,0,9,,,,,1,,,71,97
74112,note_on,,,,,0,0,15,,,,,7,,,71,100
74112,note_on,,,,,128,0,15,,,,,7,,,68,100
74112,note_on,,,,,64,0,11,,,,,3,,,71,47
74112,note_on,,,,,128,0,16,,,,,7,,,52,100
74112,note_on,,,,,4,0,10,,,,,2,,,80,47
74368,note_off,,,,,256,0,9,,,,,1,,,71,100
74368,note_off,,,,,256,0,10,,,,,2,,,80,100
74368,note_off,,,,,256,0,14,,,,,6,,,40,100
74368,note_off,,,,,0,0,15,,,,,7,,,71,100
74368,note_off,,,,,256,0,8,,,,,0,,,80,100
74368,note_off,,,,,256,0,15,,,,,7,,,68,100
74368,note_off,,,,,256,0,12,,,,,4,,,64,100
74368,note_off,,,,,256,0,13,,,,,5,,,52,100
74368,note_off,,,,,256,0,11,,,,,3,,,71,100
74368,note_off,,,,,256,0,16,,,,,7,,,52,100
74488,program_change,,,,,120,0,10,,,,,2,40,,,
74496,note_on,,,,,128,0,8,,,,,0,,,81,99
74496,note_on,,,,,0,0,15,,,,,7,,,72,100
74496,note_on,,,,,128,0,15,,,,,7,,,64,100
74496,note_on,,,,,128,0,11,,,,,3,,,69,49
74496,note_on,,,,,128,0,13,,,,,5,,,45,99
74496,note_on,,,,,128,0,9,,,,,1,,,69,99
74496,note_on,,,,,128,0,12,,,,,4,,,60,99
74496,note_on,,,,,0,0,12,,,,,4,,,64,99
74496,note_on,,,,,8,0,10,,,,,2,,,81,99
74496,note_on,,,,,128,0,16,,,,,7,,,45,100
74496,note_on,,,,,128,0,14,,,,,6,,,33,99
74560,note_off,,,,,64,0,10,,,,,2,,,81,100
74592,note_on,,,,,32,0,10,,,,,2,,,76,100
74656,note_off,,,,,64,0,10,,,,,2,,,76,100
74688,note_on,,,,,32,0,10,,,,,2,,,72,100
74752,note_off,,,,,256,0,12,,,,,4,,,60,100
74752,note_off,,,,,256,0,8,,,,,0,,,81,100
74752,note_off,,,,,256,0,16,,,,,7,,,45,100
74752,note_off,,,,,0,0,15,,,,,7,,,72,100
74752,note_off,,,,,256,0,11,,,,,3,,,69,100
74752,note_off,,,,,256,0,14,,,,,6,,,33,100
74752,note_off,,,,,256,0,13,,,,,5,,,45,100
74752,note_off,,,,,256,0,9,,,,,1,,,69,100
74752,note_off,,,,,256,0,15,,,,,7,,,64,100
74752,note_off,,,,,64,0,10,,,,,2,,,72,100
74752,note_off,,,,,0,0,12,,,,,4,,,64,100
74784,note_on,,,,,32,0,10,,,,,2,,,76,100
74848,note_off,,,,,64,0,10,,,,,2,,,76,100
74880,note_on,,,,,32,0,10,,,,,2,,,81,100
74880,program_change,,,,,128,0,11,,,,,3,40,,,
74880,program_change,,,,,128,0,8,,,,,0,40,,,
74944,note_off,,,,,64,0,10,,,,,2,,,81,100
74976,note_on,,,,,32,0,10,,,,,2,,,76,100
75040,note_off,,,,,64,0,10,,,,,2,,,76,100
75072,note_on,,,,,32,0,10,,,,,2,,,72,100
75136,note_off,,,,,64,0,10,,,,,2,,,72,100
75168,note_on,,,,,32,0,10,,,,,2,,,76,100
75232,note_off,,,,,64,0,10,,,,,2,,,76,100
75264,note_on,,,,,512,0,15,,,,,7,,,72,100
75264,note_on,,,,,512,0,14,,,,,6,,,33,85
75264,note_on,,,,,32,0,10,,,,,2,,,81,100
75264,note_on,,,,,512,0,13,,,,,5,,,45,85
75264,note_on,,,,,384,0,11,,,,,3,,,81,99
75264,note_on,,,,,0,0,15,,,,,7,,,64,100
75264,note_on,,,,,512,0,16,,,,,7,,,45,100
75328,note_off,,,,,64,0,11,,,,,3,,,81,100
75360,note_on,,,,,32,0,11,,,,,3,,,76,100
75424,note_off,,,,,64,0,11,,,,,3,,,76,100
75456,note_on,,,,,32,0,11,,,,,3,,,72,100
75520,note_off,,,,,256,0,13,,,,,5,,,45,100
75520,note_off,,,,,0,0,15,,,,,7,,,64,100
75520,note_off,,,,,256,0,16,,,,,7,,,45,100
75520,note_off,,,,,256,0,10,,,,,2,,,81,100
75520,note_off,,,,,64,0,11,,,,,3,,,72,100
75520,note_off,,,,,256,0,14,,,,,6,,,33,100
75520,note_off,,,,,256,0,15,,,,,7,,,72,100
75552,note_on,,,,,32,0,11,,,,,3,,,76,100
75616,note_off,,,,,64,0,11,,,,,3,,,76,100
75648,note_on,,,,,32,0,11,,,,,3,,,81,100
75712,note_off,,,,,64,0,11,,,,,3,,,81,100
75744,note_on,,,,,32,0,11,,,,,3,,,76,100
75808,note_off,,,,,64,0,11,,,,,3,,,76,100
75840,note_on,,,,,32,0,11,,,,,3,,,72,100
75904,note_off,,,,,64,0,11,,,,,3,,,72,100
75936,note_on,,,,,32,0,11,,,,,3,,,76,100
76000,note_off,,,,,64,0,11,,,,,3,,,76,100
76032,note_on,,,,,32,0,11,,,,,3,,,81,100
76032,note_on,,,,,512,0,14,,,,,6,,,33,85
76032,note_on,,,,,512,0,16,,,,,7,,,45,100
76032,note_on,,,,,1152,0,8,,,,,0,,,81,99
76032,note_on,,,,,0,0,15,,,,,7,,,72,100
76032,note_on,,,,,512,0,13,,,,,5,,,45,85
76032,note_on,,,,,512,0,15,,,,,7,,,64,100
76096,note_off,,,,,64,0,8,,,,,0,,,81,100
76128,note_on,,,,,32,0,8,,,,,0,,,76,100
76192,note_off,,,,,64,0,8,,,,,0,,,76,100
76224,note_on,,,,,32,0,8,,,,,0,,,72,100
76288,note_off,,,,,0,0,15,,,,,7,,,72,100
76288,note_off,,,,,256,0,11,,,,,3,,,81,100
76288,note_off,,,,,256,0,16,,,,,7,,,45,100
76288,note_off,,,,,64,0,8,,,,,0,,,72,100
76288,note_off,,,,,256,0,14,,,,,6,,,33,100
76288,note_off,,,,,256,0,13,,,,,5,,,45,100
76288,note_off,,,,,256,0,15,,,,,7,,,64,100
76320,note_on,,,,,32,0,8,,,,,0,,,76,100
76384,note_off,,,,,64,0,8,,,,,0,,,76,100
76416,note_on,,,,,32,0,8,,,,,0,,,81,100
76480,note_off,,,,,64,0,8,,,,,0,,,81,100
76512,note_on,,,,,32,0,8,,,,,0,,,76,100
76576,note_off,,,,,64,0,8,,,,,0,,,76,100
76608,note_on,,,,,32,0,8,,,,,0,,,72,100
76672,note_off,,,,,64,0,8,,,,,0,,,72,100
76704,note_on,,,,,32,0,8,,,,,0,,,81,100
76768,note_off,,,,,64,0,8,,,,,0,,,81,100
76800,note_on,,,,,512,0,14,,,,,6,,,40,85
76800,note_on,,,,,32,0,8,,,,,0,,,83,100
76800,note_on,,,,,512,0,16,,,,,7,,,52,100
76800,note_on,,,,,0,0,15,,,,,7,,,71,100
76800,note_on,,,,,512,0,15,,,,,7,,,68,100
76800,program_change,,,,,2048,0,9,,,,,1,40,,,
76800,note_on,,,,,512,0,13,,,,,5,,,52,85
76864,note_off,,,,,64,0,8,,,,,0,,,83,100
76896,note_on,,,,,32,0,8,,,,,0,,,80,100
76960,note_off,,,,,64,0,8,,,,,0,,,80,100
76992,note_on,,,,,32,0,8,,,,,0,,,76,100
77056,note_off,,,,,0,0,15,,,,,7,,,71,100
77056,note_off,,,,,256,0,16,,,,,7,,,52,100
77056,note_off,,,,,256,0,14,,,,,6,,,40,100
77056,note_off,,,,,64,0,8,,,,,0,,,76,100
77056,note_off,,,,,256,0,15,,,,,7,,,68,100
77056,note_off,,,,,256,0,13,,,,,5,,,52,100
77088,note_on,,,,,32,0,8,,,,,0,,,80,100
77152,note_off,,,,,64,0,8,,,,,0,,,80,100
77184,note_on,,,,,32,0,8,,,,,0,,,83,100
77248,note_off,,,,,64,0,8,,,,,0,,,83,100
77280,note_on,,,,,32,0,8,,,,,0,,,80,100
77344,note_off,,,,,64,0,8,,,,,0,,,80,100
77376,note_on,,,,,32,0,8,,,,,0,,,76,100
77440,note_off,,,,,64,0,8,,,,,0,,,76,100
77472,note_on,,,,,32,0,8,,,,,0,,,83,100
77536,note_off,,,,,64,0,8,,,,,0,,,83,100
77568,note_on,,,,,512,0,14,,,,,6,,,33,85
77568,note_on,,,,,512,0,15,,,,,7,,,64,100
77568,note_on,,,,,512,0,16,,,,,7,,,45,100
77568,note_on,,,,,512,0,13,,,,,5,,,45,85
77568,note_on,,,,,768,0,9,,,,,1,,,81,100
77568,note_on,,,,,32,0,8,,,,,0,,,84,100
77568,note_on,,,,,0,0,15,,,,,7,,,72,100
77632,note_off,,,,,64,0,9,,,,,1,,,81,100
77664,note_on,,,,,32,0,9,,,,,1,,,76,100
77696,note_off,,,,,128,0,8,,,,,0,,,84,100
77728,note_off,,,,,64,0,9,,,,,1,,,76,100
77760,note_on,,,,,32,0,9,,,,,1,,,72,100
77760,note_on,,,,,64,0,8,,,,,0,,,81,100
77824,note_off,,,,,256,0,14,,,,,6,,,33,100
77824,note_off,,,,,256,0,15,,,,,7,,,64,100
77824,note_off,,,,,0,0,15,,,,,7,,,72,100
77824,note_off,,,,,256,0,16,,,,,7,,,45,100
77824,note_off,,,,,256,0,13,,,,,5,,,45,100
77824,note_off,,,,,64,0,9,,,,,1,,,72,100
77856,note_on,,,,,32,0,9,,,,,1,,,76,100
77888,note_off,,,,,128,0,8,,,,,0,,,81,100
77920,note_off,,,,,64,0,9,,,,,1,,,76,100
77952,note_on,,,,,32,0,9,,,,,1,,,81,100
78016,note_off,,,,,64,0,9,,,,,1,,,81,100
78048,note_on,,,,,32,0,9,,,,,1,,,76,100
78112,note_off,,,,,64,0,9,,,,,1,,,76,100
78144,note_on,,,,,32,0,9,,,,,1,,,72,100
78208,note_off,,,,,64,0,9,,,,,1,,,72,100
78240,note_on,,,,,32,0,9,,,,,1,,,81,100
78304,note_off,,,,,64,0,9,,,,,1,,,81,100
78336,note_on,,,,,512,0,13,,,,,5,,,52,85
78336,note_on,,,,,512,0,16,,,,,7,,,52,100
78336,note_on,,,,,512,0,14,,,,,6,,,40,85
78336,note_on,,,,,32,0,9,,,,,1,,,83,100
78336,note_on,,,,,512,0,15,,,,,7,,,68,100
78336,note_on,,,,,0,0,15,,,,,7,,,71,100
78400,note_off,,,,,64,0,9,,,,,1,,,83,100
78432,note_on,,,,,32,0,9,,,,,1,,,80,100
78496,note_off,,,,,64,0,9,,,,,1,,,80,100
78528,note_on,,,,,32,0,9,,,,,1,,,76,100
78592,note_off,,,,,0,0,15,,,,,7,,,71,100
78592,note_off,,,,,256,0,15,,,,,7,,,68,100
78592,note_off,,,,,64,0,9,,,,,1,,,76,100
78592,note_off,,,,,256,0,13,,,,,5,,,52,100
78592,note_off,,,,,256,0,16,,,,,7,,,52,100
78592,note_off,,,,,256,0,14,,,,,6,,,40,100
78624,note_on,,,,,32,0,9,,,,,1,,,80,100
78688,note_off,,,,,64,0,9,,,,,1,,,80,100
78720,note_on,,,,,32,0,9,,,,,1,,,83,100
78784,note_off,,,,,64,0,9,,,,,1,,,83,100
78816,note_on,,,,,32,0,9,,,,,1,,,80,100
78880,note_off,,,,,64,0,9,,,,,1,,,80,100
78912,note_on,,,,,32,0,9,,,,,1,,,76,100
78976,note_off,,,,,64,0,9,,,,,1,,,76,100
79008,note_on,,,,,32,0,9,,,,,1,,,83,100
79072,note_off,,,,,64,0,9,,,,,1,,,83,100
79104,note_on,,,,,512,0,16,,,,,7,,,57,100
79104,note_on,,,,,512,0,15,,,,,7,,,64,100
79104,note_on,,,,,0,0,15,,,,,7,,,72,100
79104,note_on,,,,,512,0,14,,,,,6,,,45,85
79104,note_on,,,,,32,0,9,,,,,1,,,84,100
79104,note_on,,,,,512,0,13,,,,,5,,,57,85
79232,note_off,,,,,128,0,9,,,,,1,,,84,100
79296,note_on,,,,,0,0,12,,,,,4,,,76,85
79296,note_on,,,,,64,0,9,,,,,1,,,81,100
79296,note_on,,,,,4544,0,12,,,,,4,,,72,85
79360,note_off,,,,,256,0,13,,,,,5,,,57,100
79360,note_off,,,,,256,0,14,,,,,6,,,45,100
79360,note_off,,,,,256,0,16,,,,,7,,,57,100
79360,note_off,,,,,256,0,15,,,,,7,,,64,100
79360,note_off,,,,,0,0,15,,,,,7,,,72,100
79424,note_off,,,,,128,0,12,,,,,4,,,72,100
79424,note_off,,,,,128,0,9,,,,,1,,,81,100
79424,note_off,,,,,0,0,12,,,,,4,,,76,100
79480,program_change,,,,,56,0,9,,,,,1,48,,,
79480,program_change,,,,,1592,0,8,,,,,0,48,,,
79480,program_change,,,,,3960,0,10,,,,,2,48,,,
79480,program_change,,,,,3192,0,11,,,,,3,48,,,
79488,note_on,,,,,8,0,8,,,,,0,,,81,85
79488,note_on,,,,,8,0,10,,,,,2,,,81,35
79488,note_on,,,,,0,0,12,,,,,4,,,76,85
79488,note_on,,,,,64,0,12,,,,,4,,,72,85
79616,note_off,,,,,0,0,12,,,,,4,,,76,100
79616,note_off,,,,,128,0,12,,,,,4,,,72,100
79680,note_on,,,,,200,0,11,,,,,3,,,76,35
79680,note_on,,,,,320,0,15,,,,,7,,,64,100
79680,note_on,,,,,320,0,14,,,,,6,,,45,85
79680,note_on,,,,,320,0,13,,,,,5,,,57,85
79680,note_on,,,,,320,0,16,,,,,7,,,57,100
79680,note_on,,,,,0,0,15,,,,,7,,,72,100
79680,note_on,,,,,64,0,12,,,,,4,,,71,85
79680,note_on,,,,,200,0,9,,,,,1,,,76,85
79680,note_on,,,,,0,0,12,,,,,4,,,74,85
79744,note_off,,,,,64,0,12,,,,,4,,,71,100
79744,note_off,,,,,0,0,12,,,,,4,,,74,100
79776,note_on,,,,,32,0,12,,,,,4,,,69,85
79776,note_on,,,,,0,0,12,,,,,4,,,72,85
79808,note_off,,,,,128,0,9,,,,,1,,,76,100
79808,note_off,,,,,128,0,15,,,,,7,,,64,100
79808,note_off,,,,,0,0,15,,,,,7,,,72,100
79808,note_off,,,,,128,0,13,,,,,5,,,57,100
79808,note_off,,,,,128,0,16,,,,,7,,,57,100
79808,note_off,,,,,128,0,11,,,,,3,,,76,100
79808,note_off,,,,,128,0,14,,,,,6,,,45,100
79840,note_off,,,,,64,0,12,,,,,4,,,69,100
79840,note_off,,,,,0,0,12,,,,,4,,,72,100
79872,note_on,,,,,64,0,16,,,,,7,,,59,100
79872,note_on,,,,,0,0,15,,,,,7,,,69,100
79872,note_on,,,,,64,0,15,,,,,7,,,65,100
79872,note_on,,,,,64,0,9,,,,,1,,,74,85
79872,note_on,,,,,32,0,12,,,,,4,,,62,85
79872,note_on,,,,,0,0,12,,,,,4,,,65,85
79872,note_on,,,,,64,0,14,,,,,6,,,47,85
79872,note_on,,,,,64,0,13,,,,,5,,,59,85
79872,note_on,,,,,64,0,11,,,,,3,,,74,35
80000,note_off,,,,,0,0,15,,,,,7,,,69,100
80000,note_off,,,,,128,0,9,,,,,1,,,74,100
80000,note_off,,,,,0,0,12,,,,,4,,,65,100
80000,note_off,,,,,128,0,12,,,,,4,,,62,100
80000,note_off,,,,,128,0,11,,,,,3,,,74,100
80000,note_off,,,,,128,0,13,,,,,5,,,59,100
80000,note_off,,,,,128,0,15,,,,,7,,,65,100
80000,note_off,,,,,128,0,16,,,,,7,,,59,100
80000,note_off,,,,,128,0,14,,,,,6,,,47,100
80064,note_on,,,,,64,0,11,,,,,3,,,76,35
80064,note_on,,,,,64,0,16,,,,,7,,,47,100
80064,note_on,,,,,0,0,12,,,,,4,,,74,85
80064,note_on,,,,,64,0,14,,,,,6,,,35,85
80064,note_on,,,,,64,0,15,,,,,7,,,57,100
80064,note_on,,,,,64,0,13,,,,,5,,,47,85
80064,note_on,,,,,0,0,15,,,,,7,,,65,100
80064,note_on,,,,,64,0,12,,,,,4,,,71,85
80064,note_on,,,,,64,0,9,,,,,1,,,76,85
80128,note_off,,,,,64,0,11,,,,,3,,,76,100
80128,note_off,,,,,64,0,9,,,,,1,,,76,100
80160,note_on,,,,,32,0,11,,,,,3,,,77,35
80160,note_on,,,,,32,0,9,,,,,1,,,77,85
80176,note_off,,,,,688,0,10,,,,,2,,,81,64
80176,note_off,,,,,688,0,8,,,,,0,,,81,64
80192,note_off,,,,,128,0,15,,,,,7,,,57,100
80192,note_off,,,,,128,0,16,,,,,7,,,47,100
80192,note_off,,,,,0,0,15,,,,,7,,,65,100
80192,note_off,,,,,128,0,13,,,,,5,,,47,100
80192,note_off,,,,,0,0,12,,,,,4,,,74,100
80192,note_off,,,,,128,0,14,,,,,6,,,35,100
80192,note_off,,,,,128,0,12,,,,,4,,,71,100
80224,note_off,,,,,64,0,11,,,,,3,,,77,100
80224,note_off,,,,,64,0,9,,,,,1,,,77,100
80256,note_on,,,,,80,0,10,,,,,2,,,79,35
80256,note_on,,,,,32,0,11,,,,,3,,,79,35
80256,note_on,,,,,80,0,8,,,,,0,,,79,85
80256,note_on,,,,,0,0,12,,,,,4,,,74,85
80256,note_on,,,,,32,0,9,,,,,1,,,79,85
80256,note_on,,,,,64,0,12,,,,,4,,,71,85
80384,note_off,,,,,128,0,12,,,,,4,,,71,100
80384,note_off,,,,,128,0,9,,,,,1,,,79,100
80384,note_off,,,,,0,0,12,,,,,4,,,74,100
80384,note_off,,,,,128,0,11,,,,,3,,,79,100
80448,note_on,,,,,0,0,15,,,,,7,,,67,100
80448,note_on,,,,,256,0,16,,,,,7,,,59,100
80448,note_on,,,,,256,0,15,,,,,7,,,62,100
80448,note_on,,,,,64,0,11,,,,,3,,,71,35
80448,note_on,,,,,64,0,12,,,,,4,,,69,85
80448,note_on,,,,,256,0,13,,,,,5,,,59,85
80448,note_on,,,,,256,0,14,,,,,6,,,47,85
80448,note_on,,,,,64,0,9,,,,,1,,,71,85
80448,note_on,,,,,0,0,12,,,,,4,,,72,85
80512,note_off,,,,,0,0,12,,,,,4,,,72,100
80512,note_off,,,,,64,0,12,,,,,4,,,69,100
80544,note_on,,,,,32,0,12,,,,,4,,,67,85
80544,note_on,,,,,0,0,12,,,,,4,,,71,85
80576,note_off,,,,,128,0,11,,,,,3,,,71,100
80576,note_off,,,,,128,0,13,,,,,5,,,59,100
80576,note_off,,,,,128,0,9,,,,,1,,,71,100
80576,note_off,,,,,0,0,15,,,,,7,,,67,100
80576,note_off,,,,,128,0,14,,,,,6,,,47,100
80576,note_off,,,,,128,0,15,,,,,7,,,62,100
80576,note_off,,,,,128,0,16,,,,,7,,,59,100
80608,note_off,,,,,0,0,12,,,,,4,,,71,100
80608,note_off,,,,,64,0,12,,,,,4,,,67,100
80640,note_on,,,,,64,0,14,,,,,6,,,45,85
80640,note_on,,,,,64,0,9,,,,,1,,,72,85
80640,note_on,,,,,64,0,16,,,,,7,,,57,100
80640,note_on,,,,,0,0,15,,,,,7,,,67,100
80640,note_on,,,,,64,0,13,,,,,5,,,57,85
80640,note_on,,,,,64,0,15,,,,,7,,,64,100
80640,note_on,,,,,0,0,12,,,,,4,,,64,85
80640,note_on,,,,,32,0,12,,,,,4,,,60,85
80640,note_on,,,,,64,0,11,,,,,3,,,72,35
80768,note_off,,,,,0,0,15,,,,,7,,,67,100
80768,note_off,,,,,128,0,16,,,,,7,,,57,100
80768,note_off,,,,,128,0,15,,,,,7,,,64,100
80768,note_off,,,,,0,0,12,,,,,4,,,64,100
80768,note_off,,,,,128,0,14,,,,,6,,,45,100
80768,note_off,,,,,128,0,13,,,,,5,,,57,100
80768,note_off,,,,,128,0,12,,,,,4,,,60,100
80832,note_on,,,,,64,0,13,,,,,5,,,45,85
80832,note_on,,,,,64,0,16,,,,,7,,,45,100
80832,note_on,,,,,0,0,15,,,,,7,,,64,100
80832,note_on,,,,,0,0,12,,,,,4,,,72,85
80832,note_on,,,,,64,0,12,,,,,4,,,69,85
80832,note_on,,,,,64,0,14,,,,,6,,,33,85
80832,note_on,,,,,64,0,15,,,,,7,,,55,100
80896,note_off,,,,,256,0,9,,,,,1,,,72,100
80896,note_off,,,,,256,0,11,,,,,3,,,72,100
80944,note_off,,,,,688,0,10,,,,,2,,,79,100
80944,note_off,,,,,688,0,8,,,,,0,,,79,100
80960,note_off,,,,,128,0,16,,,,,7,,,45,100
80960,note_off,,,,,128,0,14,,,,,6,,,33,100
80960,note_off,,,,,128,0,15,,,,,7,,,55,100
80960,note_off,,,,,0,0,12,,,,,4,,,72,100
80960,note_off,,,,,0,0,15,,,,,7,,,64,100
80960,note_off,,,,,128,0,12,,,,,4,,,69,100
80960,note_off,,,,,128,0,13,,,,,5,,,45,100
81024,note_on,,,,,80,0,8,,,,,0,,,77,85
81024,note_on,,,,,0,0,12,,,,,4,,,72,85
81024,note_on,,,,,64,0,12,,,,,4,,,69,85
81024,note_on,,,,,80,0,10,,,,,2,,,77,35
81152,note_off,,,,,128,0,12,,,,,4,,,69,100
81152,note_off,,,,,0,0,12,,,,,4,,,72,100
81216,note_on,,,,,64,0,12,,,,,4,,,67,85
81216,note_on,,,,,0,0,12,,,,,4,,,71,85
81216,note_on,,,,,256,0,16,,,,,7,,,57,100
81216,note_on,,,,,320,0,11,,,,,3,,,72,35
81216,note_on,,,,,256,0,14,,,,,6,,,45,85
81216,note_on,,,,,256,0,13,,,,,5,,,57,85
81216,note_on,,,,,0,0,15,,,,,7,,,60,100
81216,note_on,,,,,320,0,9,,,,,1,,,72,85
81216,note_on,,,,,256,0,15,,,,,7,,,65,100
81280,note_off,,,,,0,0,12,,,,,4,,,71,100
81280,note_off,,,,,64,0,12,,,,,4,,,67,100
81312,note_on,,,,,0,0,12,,,,,4,,,69,85
81312,note_on,,,,,32,0,12,,,,,4,,,65,85
81344,note_off,,,,,128,0,13,,,,,5,,,57,100
81344,note_off,,,,,128,0,14,,,,,6,,,45,100
81344,note_off,,,,,128,0,11,,,,,3,,,72,100
81344,note_off,,,,,128,0,16,,,,,7,,,57,100
81344,note_off,,,,,0,0,15,,,,,7,,,60,100
81344,note_off,,,,,128,0,15,,,,,7,,,65,100
81344,note_off,,,,,128,0,9,,,,,1,,,72,100
81376,note_off,,,,,64,0,12,,,,,4,,,65,100
81376,note_off,,,,,0,0,12,,,,,4,,,69,100
81408,note_on,,,,,64,0,9,,,,,1,,,71,85
81408,note_on,,,,,0,0,15,,,,,7,,,65,100
81408,note_on,,,,,64,0,13,,,,,5,,,55,85
81408,note_on,,,,,64,0,15,,,,,7,,,59,100
81408,note_on,,,,,64,0,14,,,,,6,,,43,85
81408,note_on,,,,,32,0,12,,,,,4,,,59,85
81408,note_on,,,,,0,0,12,,,,,4,,,62,85
81408,note_on,,,,,64,0,16,,,,,7,,,55,100
81408,note_on,,,,,64,0,11,,,,,3,,,71,35
81536,note_off,,,,,128,0,9,,,,,1,,,71,100
81536,note_off,,,,,128,0,12,,,,,4,,,59,100
81536,note_off,,,,,128,0,16,,,,,7,,,55,100
81536,note_off,,,,,0,0,12,,,,,4,,,62,100
81536,note_off,,,,,128,0,15,,,,,7,,,59,100
81536,note_off,,,,,0,0,15,,,,,7,,,65,100
81536,note_off,,,,,128,0,14,,,,,6,,,43,100
81536,note_off,,,,,128,0,13,,,,,5,,,55,100
81536,note_off,,,,,128,0,11,,,,,3,,,71,100
81600,note_on,,,,,64,0,9,,,,,1,,,72,85
81600,note_on,,,,,64,0,15,,,,,7,,,53,100
81600,note_on,,,,,0,0,15,,,,,7,,,59,100
81600,note_on,,,,,64,0,11,,,,,3,,,72,35
81600,note_on,,,,,64,0,14,,,,,6,,,43,85
81600,note_on,,,,,64,0,13,,,,,5,,,43,85
81600,note_on,,,,,64,0,16,,,,,7,,,43,100
81600,note_on,,,,,0,0,12,,,,,4,,,71,85
81600,note_on,,,,,64,0,12,,,,,4,,,67,85
81664,note_off,,,,,64,0,11,,,,,3,,,72,100
81664,note_off,,,,,64,0,9,,,,,1,,,72,100
81696,note_on,,,,,32,0,11,,,,,3,,,74,35
81696,note_on,,,,,32,0,9,,,,,1,,,74,85
81712,note_off,,,,,688,0,8,,,,,0,,,77,64
81712,note_off,,,,,688,0,10,,,,,2,,,77,64
81728,note_off,,,,,128,0,12,,,,,4,,,67,100
81728,note_off,,,,,0,0,12,,,,,4,,,71,100
81728,note_off,,,,,128,0,13,,,,,5,,,43,100
81728,note_off,,,,,128,0,16,,,,,7,,,43,100
81728,note_off,,,,,128,0,15,,,,,7,,,53,100
81728,note_off,,,,,128,0,14,,,,,6,,,43,100
81728,note_off,,,,,0,0,15,,,,,7,,,59,100
81760,note_off,,,,,64,0,11,,,,,3,,,74,100
81760,note_off,,,,,64,0,9,,,,,1,,,74,100
81792,note_on,,,,,32,0,9,,,,,1,,,76,85
81792,note_on,,,,,32,0,11,,,,,3,,,76,35
81792,note_on,,,,,80,0,8,,,,,0,,,76,85
81792,note_on,,,,,64,0,12,,,,,4,,,67,85
81792,note_on,,,,,80,0,10,,,,,2,,,76,35
81792,note_on,,,,,0,0,12,,,,,4,,,71,85
81920,note_off,,,,,128,0,9,,,,,1,,,76,100
81920,note_off,,,,,128,0,11,,,,,3,,,76,100
81920,note_off,,,,,128,0,12,,,,,4,,,67,100
81920,note_off,,,,,0,0,12,,,,,4,,,71,100
81984,note_on,,,,,0,0,15,,,,,7,,,59,100
81984,note_on,,,,,64,0,11,,,,,3,,,67,35
81984,note_on,,,,,256,0,13,,,,,5,,,55,85
81984,note_on,,,,,256,0,16,,,,,7,,,55,100
81984,note_on,,,,,64,0,12,,,,,4,,,65,85
81984,note_on,,,,,256,0,14,,,,,6,,,43,85
81984,note_on,,,,,64,0,9,,,,,1,,,67,85
81984,note_on,,,,,256,0,15,,,,,7,,,64,100
81984,note_on,,,,,0,0,12,,,,,4,,,69,85
82048,note_off,,,,,0,0,12,,,,,4,,,69,100
82048,note_off,,,,,64,0,12,,,,,4,,,65,100
82080,note_on,,,,,32,0,12,,,,,4,,,64,85
82080,note_on,,,,,0,0,12,,,,,4,,,67,85
82112,note_off,,,,,128,0,11,,,,,3,,,67,100
82112,note_off,,,,,128,0,9,,,,,1,,,67,100
82112,note_off,,,,,128,0,16,,,,,7,,,55,100
82112,note_off,,,,,128,0,13,,,,,5,,,55,100
82112,note_off,,,,,128,0,15,,,,,7,,,64,100
82112,note_off,,,,,128,0,14,,,,,6,,,43,100
82112,note_off,,,,,0,0,15,,,,,7,,,59,100
82144,note_off,,,,,0,0,12,,,,,4,,,67,100
82144,note_off,,,,,64,0,12,,,,,4,,,64,100
82176,note_on,,,,,64,0,16,,,,,7,,,53,100
82176,note_on,,,,,0,0,15,,,,,7,,,64,100
82176,note_on,,,,,64,0,11,,,,,3,,,69,35
82176,note_on,,,,,64,0,13,,,,,5,,,53,85
82176,note_on,,,,,64,0,9,,,,,1,,,69,85
82176,note_on,,,,,64,0,15,,,,,7,,,60,100
82176,note_on,,,,,64,0,14,,,,,6,,,41,85
82176,note_on,,,,,0,0,12,,,,,4,,,60,85
82176,note_on,,,,,32,0,12,,,,,4,,,57,85
82304,note_off,,,,,128,0,13,,,,,5,,,53,100
82304,note_off,,,,,128,0,16,,,,,7,,,53,100
82304,note_off,,,,,128,0,15,,,,,7,,,60,100
82304,note_off,,,,,0,0,15,,,,,7,,,64,100
82304,note_off,,,,,128,0,12,,,,,4,,,57,100
82304,note_off,,,,,0,0,12,,,,,4,,,60,100
82304,note_off,,,,,128,0,14,,,,,6,,,41,100
82368,note_on,,,,,64,0,14,,,,,6,,,41,85
82368,note_on,,,,,0,0,15,,,,,7,,,60,100
82368,note_on,,,,,64,0,15,,,,,7,,,64,100
82368,note_on,,,,,64,0,12,,,,,4,,,65,85
82368,note_on,,,,,64,0,16,,,,,7,,,41,100
82368,note_on,,,,,64,0,13,,,,,5,,,41,85
82368,note_on,,,,,0,0,12,,,,,4,,,69,85
82432,note_off,,,,,256,0,9,,,,,1,,,69,100
82432,note_off,,,,,256,0,11,,,,,3,,,69,100
82480,note_off,,,,,688,0,8,,,,,0,,,76,100
82480,note_off,,,,,688,0,10,,,,,2,,,76,100
82496,note_off,,,,,0,0,15,,,,,7,,,60,100
82496,note_off,,,,,128,0,16,,,,,7,,,41,100
82496,note_off,,,,,128,0,15,,,,,7,,,64,100
82496,note_off,,,,,128,0,12,,,,,4,,,65,100
82496,note_off,,,,,0,0,12,,,,,4,,,69,100
82496,note_off,,,,,128,0,13,,,,,5,,,41,100
82496,note_off,,,,,128,0,14,,,,,6,,,41,100
82560,note_on,,,,,80,0,8,,,,,0,,,74,85
82560,note_on,,,,,64,0,12,,,,,4,,,65,85
82560,note_on,,,,,80,0,10,,,,,2,,,74,35
82560,note_on,,,,,0,0,12,,,,,4,,,69,85
82688,note_off,,,,,128,0,12,,,,,4,,,65,100
82688,note_off,,,,,0,0,12,,,,,4,,,69,100
82752,note_on,,,,,256,0,15,,,,,7,,,62,100
82752,note_on,,,,,0,0,15,,,,,7,,,57,100
82752,note_on,,,,,256,0,13,,,,,5,,,53,85
82752,note_on,,,,,64,0,12,,,,,4,,,64,85
82752,note_on,,,,,256,0,14,,,,,6,,,41,85
82752,note_on,,,,,0,0,12,,,,,4,,,67,85
82752,note_on,,,,,320,0,11,,,,,3,,,69,35
82752,note_on,,,,,256,0,16,,,,,7,,,53,100
82752,note_on,,,,,320,0,9,,,,,1,,,69,85
82816,note_off,,,,,0,0,12,,,,,4,,,67,100
82816,note_off,,,,,64,0,12,,,,,4,,,64,100
82848,note_on,,,,,32,0,12,,,,,4,,,62,85
82848,note_on,,,,,0,0,12,,,,,4,,,65,85
82880,note_off,,,,,0,0,15,,,,,7,,,57,100
82880,note_off,,,,,128,0,9,,,,,1,,,69,100
82880,note_off,,,,,128,0,13,,,,,5,,,53,100
82880,note_off,,,,,128,0,16,,,,,7,,,53,100
82880,note_off,,,,,128,0,11,,,,,3,,,69,100
82880,note_off,,,,,128,0,15,,,,,7,,,62,100
82880,note_off,,,,,128,0,14,,,,,6,,,41,100
82912,note_off,,,,,64,0,12,,,,,4,,,62,100
82912,note_off,,,,,0,0,12,,,,,4,,,65,100
82944,note_on,,,,,64,0,9,,,,,1,,,67,85
82944,note_on,,,,,64,0,16,,,,,7,,,52,100
82944,note_on,,,,,64,0,11,,,,,3,,,67,35
82944,note_on,,,,,64,0,14,,,,,6,,,40,85
82944,note_on,,,,,0,0,12,,,,,4,,,59,85
82944,note_on,,,,,0,0,15,,,,,7,,,62,100
82944,note_on,,,,,64,0,15,,,,,7,,,59,100
82944,note_on,,,,,32,0,12,,,,,4,,,55,85
82944,note_on,,,,,64,0,13,,,,,5,,,52,85
83072,note_off,,,,,128,0,12,,,,,4,,,55,100
83072,note_off,,,,,128,0,9,,,,,1,,,67,100
83072,note_off,,,,,128,0,16,,,,,7,,,52,100
83072,note_off,,,,,128,0,14,,,,,6,,,40,100
83072,note_off,,,,,128,0,11,,,,,3,,,67,100
83072,note_off,,,,,0,0,12,,,,,4,,,59,100
83072,note_off,,,,,128,0,13,,,,,5,,,52,100
83072,note_off,,,,,128,0,15,,,,,7,,,59,100
83072,note_off,,,,,0,0,15,,,,,7,,,62,100
83136,note_on,,,,,64,0,13,,,,,5,,,40,85
83136,note_on,,,,,64,0,9,,,,,1,,,69,85
83136,note_on,,,,,64,0,16,,,,,7,,,40,100
83136,note_on,,,,,64,0,14,,,,,6,,,40,85
83136,note_on,,,,,0,0,15,,,,,7,,,62,100
83136,note_on,,,,,0,0,12,,,,,4,,,67,85
83136,note_on,,,,,64,0,12,,,,,4,,,64,85
83136,note_on,,,,,64,0,11,,,,,3,,,69,35
83136,note_on,,,,,64,0,15,,,,,7,,,59,100
83200,note_off,,,,,64,0,11,,,,,3,,,69,100
83200,note_off,,,,,64,0,9,,,,,1,,,69,100
83232,note_on,,,,,32,0,9,,,,,1,,,71,85
83232,note_on,,,,,32,0,11,,,,,3,,,71,35
83248,note_off,,,,,688,0,8,,,,,0,,,74,64
83248,note_off,,,,,688,0,10,,,,,2,,,74,64
83264,note_off,,,,,128,0,15,,,,,7,,,59,100
83264,note_off,,,,,0,0,15,,,,,7,,,62,100
83264,note_off,,,,,128,0,14,,,,,6,,,40,100
83264,note_off,,,,,128,0,13,,,,,5,,,40,100
83264,note_off,,,,,128,0,16,,,,,7,,,40,100
83264,note_off,,,,,0,0,12,,,,,4,,,67,100
83264,note_off,,,,,128,0,12,,,,,4,,,64,100
83296,note_off,,,,,64,0,11,,,,,3,,,71,100
83296,note_off,,,,,64,0,9,,,,,1,,,71,100
83328,note_on,,,,,32,0,11,,,,,3,,,72,35
83328,note_on,,,,,0,0,12,,,,,4,,,67,85
83328,note_on,,,,,64,0,12,,,,,4,,,64,85
83328,note_on,,,,,80,0,10,,,,,2,,,72,35
83328,note_on,,,,,80,0,8,,,,,0,,,72,85
83328,note_on,,,,,32,0,9,,,,,1,,,72,85
83456,note_off,,,,,128,0,11,,,,,3,,,72,100
83456,note_off,,,,,128,0,9,,,,,1,,,72,100
83456,note_off,,,,,0,0,12,,,,,4,,,67,100
83456,note_off,,,,,128,0,12,,,,,4,,,64,100
83520,note_on,,,,,256,0,14,,,,,6,,,40,85
83520,note_on,,,,,64,0,11,,,,,3,,,74,35
83520,note_on,,,,,256,0,16,,,,,7,,,52,100
83520,note_on,,,,,256,0,13,,,,,5,,,52,85
83520,note_on,,,,,256,0,15,,,,,7,,,72,100
83520,note_on,,,,,64,0,9,,,,,1,,,74,85
83520,note_on,,,,,0,0,15,,,,,7,,,67,100
83520,note_on,,,,,64,0,12,,,,,4,,,62,85
83520,note_on,,,,,0,0,12,,,,,4,,,65,85
83584,note_off,,,,,64,0,12,,,,,4,,,62,100
83584,note_off,,,,,0,0,12,,,,,4,,,65,100
83584,note_off,,,,,64,0,11,,,,,3,,,74,100
83584,note_off,,,,,64,0,9,,,,,1,,,74,100
83616,note_on,,,,,32,0,12,,,,,4,,,60,85
83616,note_on,,,,,0,0,12,,,,,4,,,64,85
83616,note_on,,,,,32,0,11,,,,,3,,,76,35
83616,note_on,,,,,32,0,9,,,,,1,,,76,85
83648,note_off,,,,,128,0,14,,,,,6,,,40,100
83648,note_off,,,,,128,0,15,,,,,7,,,72,100
83648,note_off,,,,,128,0,13,,,,,5,,,52,100
83648,note_off,,,,,0,0,15,,,,,7,,,67,100
83648,note_off,,,,,128,0,16,,,,,7,,,52,100
83680,note_off,,,,,64,0,11,,,,,3,,,76,100
83680,note_off,,,,,0,0,12,,,,,4,,,64,100
83680,note_off,,,,,64,0,12,,,,,4,,,60,100
83680,note_off,,,,,64,0,9,,,,,1,,,76,100
83712,note_on,,,,,64,0,16,,,,,7,,,53,100
83712,note_on,,,,,32,0,11,,,,,3,,,74,35
83712,note_on,,,,,64,0,13,,,,,5,,,53,85
83712,note_on,,,,,64,0,15,,,,,7,,,74,100
83712,note_on,,,,,32,0,12,,,,,4,,,53,85
83712,note_on,,,,,32,0,9,,,,,1,,,74,85
83712,note_on,,,,,64,0,14,,,,,6,,,41,85
83712,note_on,,,,,0,0,12,,,,,4,,,57,85
83712,note_on,,,,,0,0,15,,,,,7,,,72,100
83840,note_off,,,,,128,0,15,,,,,7,,,74,100
83840,note_off,,,,,0,0,15,,,,,7,,,72,100
83840,note_off,,,,,128,0,13,,,,,5,,,53,100
83840,note_off,,,,,128,0,16,,,,,7,,,53,100
83840,note_off,,,,,128,0,14,,,,,6,,,41,100
83904,note_on,,,,,64,0,16,,,,,7,,,50,100
83904,note_on,,,,,64,0,13,,,,,5,,,50,85
83904,note_on,,,,,64,0,14,,,,,6,,,38,85
83904,note_on,,,,,64,0,15,,,,,7,,,65,100
83904,note_on,,,,,0,0,15,,,,,7,,,69,100
83968,note_off,,,,,256,0,12,,,,,4,,,57,100
84016,note_off,,,,,688,0,8,,,,,0,,,72,100
84016,note_off,,,,,688,0,10,,,,,2,,,72,100
84032,note_off,,,,,128,0,13,,,,,5,,,50,100
84032,note_off,,,,,128,0,15,,,,,7,,,65,100
84032,note_off,,,,,128,0,16,,,,,7,,,50,100
84032,note_off,,,,,128,0,14,,,,,6,,,38,100
84032,note_off,,,,,0,0,15,,,,,7,,,69,100
84096,note_on,,,,,80,0,10,,,,,2,,,71,35
84096,note_off,,,,,384,0,11,,,,,3,,,74,100
84096,note_on,,,,,0,0,15,,,,,7,,,71,100
84096,note_on,,,,,64,0,15,,,,,7,,,74,100
84096,note_on,,,,,64,0,16,,,,,7,,,55,100
84096,note_on,,,,,64,0,14,,,,,6,,,43,85
84096,note_off,,,,,384,0,9,,,,,1,,,74,100
84096,note_on,,,,,0,0,12,,,,,4,,,55,85
84096,note_off,,,,,128,0,12,,,,,4,,,53,100
84096,note_on,,,,,64,0,13,,,,,5,,,55,85
84096,note_on,,,,,80,0,8,,,,,0,,,71,85
84224,note_off,,,,,128,0,14,,,,,6,,,43,100
84224,note_off,,,,,128,0,16,,,,,7,,,55,100
84224,note_off,,,,,128,0,13,,,,,5,,,55,100
84224,note_off,,,,,0,0,15,,,,,7,,,71,100
84224,note_off,,,,,128,0,15,,,,,7,,,74,100
84288,note_on,,,,,64,0,13,,,,,5,,,43,85
84288,note_on,,,,,0,0,15,,,,,7,,,71,100
84288,note_on,,,,,64,0,15,,,,,7,,,62,100
84288,note_on,,,,,192,0,11,,,,,3,,,74,35
84288,note_on,,,,,64,0,14,,,,,6,,,43,85
84288,note_on,,,,,192,0,9,,,,,1,,,74,85
84288,note_on,,,,,192,0,12,,,,,4,,,53,85
84288,note_on,,,,,64,0,16,,,,,7,,,43,100
84352,note_off,,,,,256,0,8,,,,,0,,,71,100
84352,note_off,,,,,64,0,12,,,,,4,,,55,100
84352,note_off,,,,,256,0,10,,,,,2,,,71,100
84416,note_off,,,,,128,0,14,,,,,6,,,43,100
84416,note_off,,,,,128,0,13,,,,,5,,,43,100
84416,note_off,,,,,128,0,9,,,,,1,,,74,100
84416,note_off,,,,,128,0,11,,,,,3,,,74,100
84416,note_off,,,,,128,0,16,,,,,7,,,43,100
84416,note_off,,,,,0,0,15,,,,,7,,,71,100
84416,note_off,,,,,128,0,15,,,,,7,,,62,100
84416,note_off,,,,,64,0,12,,,,,4,,,53,100
84472,program_change,,,,,120,0,8,,,,,0,40,,,
84480,note_on,,,,,8,0,8,,,,,0,,,72,100
84480,note_on,,,,,128,0,10,,,,,2,,,72,35
84480,note_on,,,,,64,0,16,,,,,7,,,48,100
84480,note_on,,,,,0,0,15,,,,,7,,,64,100
84480,note_on,,,,,64,0,15,,,,,7,,,67,100
84480,note_on,,,,,64,0,12,,,,,4,,,52,85
84480,note_on,,,,,64,0,13,,,,,5,,,48,85
84480,note_on,,,,,64,0,11,,,,,3,,,72,35
84480,note_on,,,,,64,0,14,,,,,6,,,36,85
84480,note_on,,,,,64,0,9,,,,,1,,,72,85
84480,note_on,,,,,0,0,12,,,,,4,,,55,85
84544,note_off,,,,,64,0,8,,,,,0,,,72,100
84576,note_on,,,,,32,0,8,,,,,0,,,74,100
84640,note_off,,,,,64,0,8,,,,,0,,,74,100
84672,note_on,,,,,32,0,8,,,,,0,,,76,100
84736,note_off,,,,,256,0,11,,,,,3,,,72,100
84736,note_off,,,,,256,0,16,,,,,7,,,48,100
84736,note_off,,,,,0,0,15,,,,,7,,,64,100
84736,note_off,,,,,64,0,8,,,,,0,,,76,100
84736,note_off,,,,,256,0,15,,,,,7,,,67,100
84736,note_off,,,,,256,0,12,,,,,4,,,52,100
84736,note_off,,,,,256,0,14,,,,,6,,,36,100
84736,note_off,,,,,256,0,13,,,,,5,,,48,100
84736,note_off,,,,,256,0,10,,,,,2,,,72,100
84736,note_off,,,,,256,0,9,,,,,1,,,72,100
84736,note_off,,,,,0,0,12,,,,,4,,,55,100
84768,note_on,,,,,32,0,8,,,,,0,,,77,100
84832,note_off,,,,,64,0,8,,,,,0,,,77,100
84864,program_change,,,,,128,0,10,,,,,2,40,,,
84864,note_on,,,,,128,0,13,,,,,5,,,47,85
84864,note_on,,,,,128,0,16,,,,,7,,,47,100
84864,note_on,,,,,0,0,15,,,,,7,,,62,100
84864,note_on,,,,,128,0,14,,,,,6,,,35,85
84864,program_change,,,,,128,0,9,,,,,1,40,,,
84864,note_on,,,,,128,0,15,,,,,7,,,67,100
84864,program_change,,,,,128,0,11,,,,,3,40,,,
84864,note_on,,,,,32,0,8,,,,,0,,,74,100
84928,note_off,,,,,64,0,8,,,,,0,,,74,100
84960,note_on,,,,,32,0,8,,,,,0,,,76,100
85024,note_off,,,,,64,0,8,,,,,0,,,76,100
85056,note_on,,,,,32,0,8,,,,,0,,,77,100
85120,note_off,,,,,64,0,8,,,,,0,,,77,100
85120,note_off,,,,,256,0,13,,,,,5,,,47,100
85120,note_off,,,,,256,0,16,,,,,7,,,47,100
85120,note_off,,,,,256,0,15,,,,,7,,,67,100
85120,note_off,,,,,256,0,14,,,,,6,,,35,100
85120,note_off,,,,,0,0,15,,,,,7,,,62,100
85152,note_on,,,,,32,0,8,,,,,0,,,79,100
85216,note_off,,,,,64,0,8,,,,,0,,,79,100
85248,note_on,,,,,0,0,15,,,,,7,,,67,100
85248,note_on,,,,,128,0,15,,,,,7,,,64,100
85248,note_on,,,,,128,0,16,,,,,7,,,48,100
85248,note_on,,,,,32,0,8,,,,,0,,,76,100
85248,note_on,,,,,128,0,13,,,,,5,,,48,85
85248,note_on,,,,,384,0,9,,,,,1,,,72,100
85248,note_on,,,,,128,0,14,,,,,6,,,36,85
85312,note_off,,,,,64,0,9,,,,,1,,,72,100
85312,note_off,,,,,64,0,8,,,,,0,,,76,100
85344,note_on,,,,,32,0,9,,,,,1,,,74,100
85344,note_on,,,,,32,0,8,,,,,0,,,77,100
85408,note_off,,,,,64,0,9,,,,,1,,,74,100
85408,note_off,,,,,64,0,8,,,,,0,,,77,100
85440,note_on,,,,,32,0,9,,,,,1,,,76,100
85440,note_on,,,,,32,0,8,,,,,0,,,79,100
85504,note_off,,,,,256,0,16,,,,,7,,,48,100
85504,note_off,,,,,256,0,14,,,,,6,,,36,100
85504,note_off,,,,,64,0,8,,,,,0,,,79,100
85504,note_off,,,,,256,0,13,,,,,5,,,48,100
85504,note_off,,,,,64,0,9,,,,,1,,,76,100
85504,note_off,,,,,256,0,15,,,,,7,,,64,100
85504,note_off,,,,,0,0,15,,,,,7,,,67,100
85536,note_on,,,,,32,0,9,,,,,1,,,77,100
85536,note_on,,,,,32,0,8,,,,,0,,,81,100
85600,note_off,,,,,64,0,8,,,,,0,,,81,100
85600,note_off,,,,,64,0,9,,,,,1,,,77,100
85632,note_on,,,,,32,0,8,,,,,0,,,71,100
85632,note_on,,,,,128,0,14,,,,,6,,,43,85
85632,note_on,,,,,128,0,13,,,,,5,,,55,85
85632,note_on,,,,,128,0,16,,,,,7,,,55,100
85632,note_on,,,,,0,0,15,,,,,7,,,71,100
85632,note_on,,,,,128,0,15,,,,,7,,,62,100
85632,note_on,,,,,32,0,9,,,,,1,,,74,100
85696,note_off,,,,,64,0,9,,,,,1,,,74,100
85696,note_off,,,,,64,0,8,,,,,0,,,71,100
85728,note_on,,,,,32,0,8,,,,,0,,,72,100
85728,note_on,,,,,32,0,9,,,,,1,,,76,100
85792,note_off,,,,,64,0,9,,,,,1,,,76,100
85792,note_off,,,,,64,0,8,,,,,0,,,72,100
85824,note_on,,,,,32,0,9,,,,,1,,,77,100
85824,note_on,,,,,32,0,8,,,,,0,,,74,100
85888,note_off,,,,,64,0,8,,,,,0,,,74,100
85888,note_off,,,,,64,0,9,,,,,1,,,77,100
85888,note_off,,,,,0,0,15,,,,,7,,,71,100
85888,note_off,,,,,256,0,15,,,,,7,,,62,100
85888,note_off,,,,,256,0,14,,,,,6,,,43,100
85888,note_off,,,,,256,0,13,,,,,5,,,55,100
85888,note_off,,,,,256,0,16,,,,,7,,,55,100
85920,note_on,,,,,32,0,8,,,,,0,,,71,100
85920,note_on,,,,,32,0,9,,,,,1,,,79,100
85984,note_off,,,,,64,0,9,,,,,1,,,79,100
85984,note_off,,,,,64,0,8,,,,,0,,,71,100
86016,note_on,,,,,32,0,8,,,,,0,,,72,100
86016,note_on,,,,,32,0,9,,,,,1,,,76,100
86016,note_on,,,,,128,0,15,,,,,7,,,64,100
86016,note_on,,,,,0,0,15,,,,,7,,,67,100
86016,note_on,,,,,128,0,13,,,,,5,,,48,85
86016,note_on,,,,,128,0,16,,,,,7,,,48,100
86016,note_on,,,,,128,0,14,,,,,6,,,36,85
86016,note_on,,,,,1152,0,10,,,,,2,,,72,100
86080,note_off,,,,,64,0,10,,,,,2,,,72,100
86080,note_off,,,,,64,0,9,,,,,1,,,76,100
86112,note_on,,,,,32,0,10,,,,,2,,,74,100
86112,note_on,,,,,32,0,9,,,,,1,,,77,100
86176,note_off,,,,,64,0,10,,,,,2,,,74,100
86176,note_off,,,,,64,0,9,,,,,1,,,77,100
86208,note_on,,,,,32,0,9,,,,,1,,,79,100
86208,note_on,,,,,32,0,10,,,,,2,,,76,100
86272,note_off,,,,,0,0,15,,,,,7,,,67,100
86272,note_off,,,,,64,0,10,,,,,2,,,76,100
86272,note_off,,,,,256,0,15,,,,,7,,,64,100
86272,note_off,,,,,256,0,14,,,,,6,,,36,100
86272,note_off,,,,,64,0,9,,,,,1,,,79,100
86272,note_off,,,,,256,0,16,,,,,7,,,48,100
86272,note_off,,,,,256,0,8,,,,,0,,,72,100
86272,note_off,,,,,256,0,13,,,,,5,,,48,100
86304,note_on,,,,,32,0,9,,,,,1,,,81,100
86304,note_on,,,,,32,0,10,,,,,2,,,77,100
86368,note_off,,,,,64,0,9,,,,,1,,,81,100
86368,note_off,,,,,64,0,10,,,,,2,,,77,100
86400,note_on,,,,,128,0,13,,,,,5,,,43,85
86400,note_on,,,,,32,0,9,,,,,1,,,71,100
86400,note_on,,,,,128,0,16,,,,,7,,,43,100
86400,note_on,,,,,128,0,14,,,,,6,,,43,85
86400,note_on,,,,,128,0,15,,,,,7,,,59,100
86400,note_on,,,,,32,0,10,,,,,2,,,74,100
86400,note_on,,,,,0,0,15,,,,,7,,,62,100
86464,note_off,,,,,64,0,10,,,,,2,,,74,100
86464,note_off,,,,,64,0,9,,,,,1,,,71,100
86496,note_on,,,,,32,0,10,,,,,2,,,76,100
86496,note_on,,,,,32,0,9,,,,,1,,,72,100
86560,note_off,,,,,64,0,10,,,,,2,,,76,100
86560,note_off,,,,,64,0,9,,,,,1,,,72,100
86592,note_on,,,,,32,0,10,,,,,2,,,77,100
86592,note_on,,,,,32,0,9,,,,,1,,,74,100
86656,note_off,,,,,0,0,15,,,,,7,,,62,100
86656,note_off,,,,,256,0,15,,,,,7,,,59,100
86656,note_off,,,,,256,0,16,,,,,7,,,43,100
86656,note_off,,,,,64,0,10,,,,,2,,,77,100
86656,note_off,,,,,256,0,14,,,,,6,,,43,100
86656,note_off,,,,,64,0,9,,,,,1,,,74,100
86656,note_off,,,,,256,0,13,,,,,5,,,43,100
86688,note_on,,,,,32,0,9,,,,,1,,,71,100
86688,note_on,,,,,32,0,10,,,,,2,,,79,100
86752,note_off,,,,,64,0,10,,,,,2,,,79,100
86752,note_off,,,,,64,0,9,,,,,1,,,71,100
86784,note_on,,,,,32,0,9,,,,,1,,,72,100
86784,note_on,,,,,128,0,15,,,,,7,,,67,100
86784,note_on,,,,,1920,0,11,,,,,3,,,72,100
86784,note_on,,,,,0,0,15,,,,,7,,,64,100
86784,note_on,,,,,128,0,13,,,,,5,,,48,85
86784,note_on,,,,,128,0,14,,,,,6,,,36,85
86784,note_on,,,,,128,0,16,,,,,7,,,48,100
86784,note_on,,,,,32,0,10,,,,,2,,,76,100
86848,note_off,,,,,64,0,11,,,,,3,,,72,100
86848,note_off,,,,,64,0,10,,,,,2,,,76,100
86880,note_on,,,,,32,0,11,,,,,3,,,74,100
86880,note_on,,,,,32,0,10,,,,,2,,,77,100
86944,note_off,,,,,64,0,11,,,,,3,,,74,100
86944,note_off,,,,,64,0,10,,,,,2,,,77,100
86976,note_on,,,,,32,0,10,,,,,2,,,79,100
86976,note_on,,,,,32,0,11,,,,,3,,,76,100
87040,note_off,,,,,256,0,13,,,,,5,,,48,100
87040,note_off,,,,,256,0,14,,,,,6,,,36,100
87040,note_off,,,,,0,0,15,,,,,7,,,64,100
87040,note_off,,,,,256,0,16,,,,,7,,,48,100
87040,note_off,,,,,64,0,10,,,,,2,,,79,100
87040,note_off,,,,,256,0,15,,,,,7,,,67,100
87040,note_off,,,,,64,0,11,,,,,3,,,76,100
87040,note_off,,,,,256,0,9,,,,,1,,,72,100
87072,note_on,,,,,32,0,10,,,,,2,,,81,100
87072,note_on,,,,,32,0,11,,,,,3,,,77,100
87136,note_off,,,,,64,0,10,,,,,2,,,81,100
87136,note_off,,,,,64,0,11,,,,,3,,,77,100
87168,note_on,,,,,32,0,11,,,,,3,,,74,100
87168,note_on,,,,,128,0,16,,,,,7,,,55,100
87168,note_on,,,,,0,0,15,,,,,7,,,62,100
87168,note_on,,,,,128,0,15,,,,,7,,,71,100
87168,note_on,,,,,128,0,13,,,,,5,,,55,85
87168,note_on,,,,,128,0,14,,,,,6,,,43,85
87168,note_on,,,,,32,0,10,,,,,2,,,71,100
87232,note_off,,,,,64,0,11,,,,,3,,,74,100
87232,note_off,,,,,64,0,10,,,,,2,,,71,100
87264,note_on,,,,,32,0,10,,,,,2,,,72,100
87264,note_on,,,,,32,0,11,,,,,3,,,76,100
87328,note_off,,,,,64,0,10,,,,,2,,,72,100
87328,note_off,,,,,64,0,11,,,,,3,,,76,100
87360,note_on,,,,,32,0,11,,,,,3,,,77,100
87360,note_on,,,,,32,0,10,,,,,2,,,74,100
87424,note_off,,,,,256,0,13,,,,,5,,,55,100
87424,note_off,,,,,256,0,15,,,,,7,,,71,100
87424,note_off,,,,,0,0,15,,,,,7,,,62,100
87424,note_off,,,,,64,0,10,,,,,2,,,74,100
87424,note_off,,,,,256,0,16,,,,,7,,,55,100
87424,note_off,,,,,256,0,14,,,,,6,,,43,100
87424,note_off,,,,,64,0,11,,,,,3,,,77,100
87456,note_on,,,,,32,0,10,,,,,2,,,71,100
87456,note_on,,,,,32,0,11,,,,,3,,,79,100
87520,note_off,,,,,64,0,10,,,,,2,,,71,100
87520,note_off,,,,,64,0,11,,,,,3,,,79,100
87552,note_on,,,,,0,0,15,,,,,7,,,67,100
87552,note_on,,,,,128,0,15,,,,,7,,,64,100
87552,note_on,,,,,32,0,10,,,,,2,,,72,100
87552,note_on,,,,,32,0,11,,,,,3,,,76,100
87552,note_on,,,,,128,0,13,,,,,5,,,48,85
87552,note_on,,,,,128,0,16,,,,,7,,,48,100
87552,note_on,,,,,128,0,14,,,,,6,,,36,85
87616,note_off,,,,,64,0,11,,,,,3,,,76,100
87648,note_on,,,,,32,0,11,,,,,3,,,77,100
87712,note_off,,,,,64,0,11,,,,,3,,,77,100
87744,note_on,,,,,32,0,11,,,,,3,,,79,100
87808,note_off,,,,,256,0,15,,,,,7,,,64,100
87808,note_off,,,,,256,0,13,,,,,5,,,48,100
87808,note_off,,,,,0,0,15,,,,,7,,,67,100
87808,note_off,,,,,256,0,16,,,,,7,,,48,100
87808,note_off,,,,,64,0,11,,,,,3,,,79,100
87808,note_off,,,,,256,0,14,,,,,6,,,36,100
87808,note_off,,,,,256,0,10,,,,,2,,,72,100
87840,note_on,,,,,32,0,11,,,,,3,,,81,100
87904,note_off,,,,,64,0,11,,,,,3,,,81,100
87936,note_on,,,,,128,0,15,,,,,7,,,59,100
87936,note_on,,,,,0,0,15,,,,,7,,,62,100
87936,note_on,,,,,128,0,13,,,,,5,,,43,85
87936,note_on,,,,,128,0,16,,,,,7,,,43,100
87936,note_on,,,,,32,0,11,,,,,3,,,71,100
87936,note_on,,,,,128,0,14,,,,,6,,,43,85
88000,note_off,,,,,64,0,11,,,,,3,,,71,100
88032,note_on,,,,,32,0,11,,,,,3,,,72,100
88096,note_off,,,,,64,0,11,,,,,3,,,72,100
88128,note_on,,,,,32,0,11,,,,,3,,,74,100
88192,note_off,,,,,256,0,14,,,,,6,,,43,100
88192,note_off,,,,,256,0,13,,,,,5,,,43,100
88192,note_off,,,,,256,0,15,,,,,7,,,59,100
88192,note_off,,,,,256,0,16,,,,,7,,,43,100
88192,note_off,,,,,0,0,15,,,,,7,,,62,100
88192,note_off,,,,,64,0,11,,,,,3,,,74,100
88224,note_on,,,,,32,0,11,,,,,3,,,71,100
88288,note_off,,,,,64,0,11,,,,,3,,,71,100
88320,note_on,,,,,32,0,11,,,,,3,,,72,100
88320,note_on,,,,,128,0,15,,,,,7,,,64,100
88320,note_on,,,,,128,0,16,,,,,7,,,48,100
88320,note_on,,,,,128,0,14,,,,,6,,,36,85
88320,note_on,,,,,0,0,15,,,,,7,,,67,100
88320,note_on,,,,,128,0,13,,,,,5,,,48,85
88416,note_on,,,,,2144,0,8,,,,,0,,,79,100
88480,note_off,,,,,64,0,8,,,,,0,,,79,100
88512,note_on,,,,,32,0,8,,,,,0,,,77,100
88576,note_off,,,,,256,0,11,,,,,3,,,72,100
88576,note_off,,,,,256,0,14,,,,,6,,,36,100
88576,note_off,,,,,256,0,15,,,,,7,,,64,100
88576,note_off,,,,,0,0,15,,,,,7,,,67,100
88576,note_off,,,,,256,0,16,,,,,7,,,48,100
88576,note_off,,,,,256,0,13,,,,,5,,,48,100
88576,note_off,,,,,64,0,8,,,,,0,,,77,100
88608,note_on,,,,,32,0,8,,,,,0,,,79,100
88672,note_off,,,,,64,0,8,,,,,0,,,79,100
88704,note_on,,,,,32,0,8,,,,,0,,,76,100
88768,note_off,,,,,64,0,8,,,,,0,,,76,100
88800,note_on,,,,,32,0,8,,,,,0,,,79,100
88864,note_off,,,,,64,0,8,,,,,0,,,79,100
88896,note_on,,,,,320,0,14,,,,,6,,,36,85
88896,note_on,,,,,320,0,16,,,,,7,,,48,100
88896,note_on,,,,,320,0,15,,,,,7,,,64,100
88896,note_on,,,,,0,0,15,,,,,7,,,67,100
88896,note_on,,,,,32,0,8,,,,,0,,,77,100
88960,note_off,,,,,64,0,8,,,,,0,,,77,100
88992,note_on,,,,,32,0,8,,,,,0,,,79,100
89024,note_off,,,,,0,0,15,,,,,7,,,67,100
89024,note_off,,,,,128,0,15,,,,,7,,,64,100
89024,note_off,,,,,128,0,16,,,,,7,,,48,100
89024,note_off,,,,,128,0,14,,,,,6,,,36,100
89056,note_off,,,,,64,0,8,,,,,0,,,79,100
89088,program_change,,,,,512,0,13,,,,,5,42,,,
89088,note_on,,,,,32,0,8,,,,,0,,,81,100
89088,note_on,,,,,64,0,16,,,,,7,,,53,100
89088,note_on,,,,,64,0,14,,,,,6,,,41,85
89088,note_on,,,,,0,0,15,,,,,7,,,72,100
89088,note_on,,,,,64,0,15,,,,,7,,,69,100
89184,note_on,,,,,96,0,13,,,,,5,,,60,110
89216,note_off,,,,,128,0,8,,,,,0,,,81,100
89248,note_off,,,,,64,0,13,,,,,5,,,60,100
89280,note_on,,,,,64,0,8,,,,,0,,,69,100
89280,note_on,,,,,32,0,13,,,,,5,,,59,110
89344,note_off,,,,,256,0,16,,,,,7,,,53,100
89344,note_off,,,,,256,0,14,,,,,6,,,41,100
89344,note_off,,,,,64,0,13,,,,,5,,,59,100
89344,note_off,,,,,256,0,15,,,,,7,,,69,100
89344,note_off,,,,,0,0,15,,,,,7,,,72,100
89376,note_on,,,,,32,0,13,,,,,5,,,60,110
89408,note_off,,,,,128,0,8,,,,,0,,,69,100
89440,note_off,,,,,64,0,13,,,,,5,,,60,100
89472,note_on,,,,,32,0,13,,,,,5,,,57,110
89472,note_on,,,,,64,0,8,,,,,0,,,81,100
89536,note_off,,,,,64,0,13,,,,,5,,,57,100
89568,note_on,,,,,32,0,13,,,,,5,,,60,110
89632,note_off,,,,,64,0,13,,,,,5,,,60,100
89664,note_on,,,,,320,0,14,,,,,6,,,41,85
89664,note_on,,,,,32,0,13,,,,,5,,,59,110
89664,note_on,,,,,320,0,16,,,,,7,,,53,100
89664,note_on,,,,,320,0,15,,,,,7,,,69,100
89664,note_on,,,,,0,0,15,,,,,7,,,72,100
89728,note_off,,,,,64,0,13,,,,,5,,,59,100
89760,note_on,,,,,32,0,13,,,,,5,,,60,110
89792,note_off,,,,,128,0,16,,,,,7,,,53,100
89792,note_off,,,,,128,0,14,,,,,6,,,41,100
89792,note_off,,,,,128,0,15,,,,,7,,,69,100
89792,note_off,,,,,0,0,15,,,,,7,,,72,100
89824,note_off,,,,,64,0,13,,,,,5,,,60,100
89856,note_off,,,,,384,0,8,,,,,0,,,81,100
89856,note_on,,,,,64,0,14,,,,,6,,,35,85
89856,note_on,,,,,64,0,15,,,,,7,,,65,100
89856,note_on,,,,,64,0,16,,,,,7,,,47,100
89856,note_on,,,,,32,0,13,,,,,5,,,62,110
89856,note_on,,,,,0,0,15,,,,,7,,,69,100
89952,note_on,,,,,96,0,8,,,,,0,,,77,100
89984,note_off,,,,,128,0,13,,,,,5,,,62,100
90016,note_off,,,,,64,0,8,,,,,0,,,77,100
90048,note_on,,,,,32,0,8,,,,,0,,,76,100
90048,note_on,,,,,64,0,13,,,,,5,,,50,110
90112,note_off,,,,,256,0,16,,,,,7,,,47,100
90112,note_off,,,,,0,0,15,,,,,7,,,69,100
90112,note_off,,,,,256,0,15,,,,,7,,,65,100
90112,note_off,,,,,64,0,8,,,,,0,,,76,100
90112,note_off,,,,,256,0,14,,,,,6,,,35,100
90144,note_on,,,,,32,0,8,,,,,0,,,77,100
90176,note_off,,,,,128,0,13,,,,,5,,,50,100
90208,note_off,,,,,64,0,8,,,,,0,,,77,100
90240,note_on,,,,,32,0,8,,,,,0,,,74,100
90240,note_on,,,,,64,0,13,,,,,5,,,62,110
90304,note_off,,,,,64,0,8,,,,,0,,,74,100
90336,note_on,,,,,32,0,8,,,,,0,,,77,100
90400,note_off,,,,,64,0,8,,,,,0,,,77,100
90432,note_on,,,,,320,0,15,,,,,7,,,65,100
90432,note_on,,,,,32,0,8,,,,,0,,,76,100
90432,note_on,,,,,0,0,15,,,,,7,,,69,100
90432,note_on,,,,,320,0,16,,,,,7,,,47,100
90432,note_on,,,,,320,0,14,,,,,6,,,35,85
90496,note_off,,,,,64,0,8,,,,,0,,,76,100
90528,note_on,,,,,32,0,8,,,,,0,,,77,100
90560,note_off,,,,,128,0,14,,,,,6,,,35,100
90560,note_off,,,,,0,0,15,,,,,7,,,69,100
90560,note_off,,,,,128,0,15,,,,,7,,,65,100
90560,note_off,,,,,128,0,16,,,,,7,,,47,100
90592,note_off,,,,,64,0,8,,,,,0,,,77,100
90624,note_off,,,,,384,0,13,,,,,5,,,62,100
90624,note_on,,,,,64,0,16,,,,,7,,,52,100
90624,note_on,,,,,64,0,14,,,,,6,,,40,85
90624,note_on,,,,,32,0,8,,,,,0,,,79,100
90624,note_on,,,,,64,0,15,,,,,7,,,71,100
90624,note_on,,,,,0,0,15,,,,,7,,,74,100
90720,note_on,,,,,96,0,13,,,,,5,,,59,110
90752,note_off,,,,,128,0,8,,,,,0,,,79,100
90784,note_off,,,,,64,0,13,,,,,5,,,59,100
90816,note_on,,,,,64,0,8,,,,,0,,,67,100
90816,note_on,,,,,32,0,13,,,,,5,,,57,110
90880,note_off,,,,,256,0,16,,,,,7,,,52,100
90880,note_off,,,,,0,0,15,,,,,7,,,74,100
90880,note_off,,,,,256,0,15,,,,,7,,,71,100
90880,note_off,,,,,64,0,13,,,,,5,,,57,100
90880,note_off,,,,,256,0,14,,,,,6,,,40,100
90912,note_on,,,,,32,0,13,,,,,5,,,59,110
90944,note_off,,,,,128,0,8,,,,,0,,,67,100
90976,note_off,,,,,64,0,13,,,,,5,,,59,100
91008,note_on,,,,,32,0,13,,,,,5,,,55,110
91008,note_on,,,,,64,0,8,,,,,0,,,79,100
91072,note_off,,,,,64,0,13,,,,,5,,,55,100
91104,note_on,,,,,32,0,13,,,,,5,,,59,110
91168,note_off,,,,,64,0,13,,,,,5,,,59,100
91200,note_on,,,,,32,0,13,,,,,5,,,57,110
91200,note_on,,,,,320,0,14,,,,,6,,,40,85
91200,note_on,,,,,320,0,16,,,,,7,,,52,100
91200,note_on,,,,,320,0,15,,,,,7,,,71,100
91200,note_on,,,,,0,0,15,,,,,7,,,74,100
91264,note_off,,,,,64,0,13,,,,,5,,,57,100
91296,note_on,,,,,32,0,13,,,,,5,,,59,110
91328,note_off,,,,,128,0,16,,,,,7,,,52,100
91328,note_off,,,,,128,0,14,,,,,6,,,40,100
91328,note_off,,,,,128,0,15,,,,,7,,,71,100
91328,note_off,,,,,0,0,15,,,,,7,,,74,100
91360,note_off,,,,,64,0,13,,,,,5,,,59,100
91392,note_on,,,,,64,0,15,,,,,7,,,64,100
91392,note_on,,,,,64,0,16,,,,,7,,,45,100
91392,note_on,,,,,64,0,14,,,,,6,,,33,85
91392,note_off,,,,,384,0,8,,,,,0,,,79,100
91392,note_on,,,,,32,0,13,,,,,5,,,60,110
91392,note_on,,,,,0,0,15,,,,,7,,,67,100
91488,note_on,,,,,96,0,8,,,,,0,,,76,100
91520,note_off,,,,,128,0,13,,,,,5,,,60,100
91552,note_off,,,,,64,0,8,,,,,0,,,76,100
91584,note_on,,,,,64,0,13,,,,,5,,,48,110
91584,note_on,,,,,32,0,8,,,,,0,,,74,100
91648,note_off,,,,,256,0,14,,,,,6,,,33,100
91648,note_off,,,,,0,0,15,,,,,7,,,67,100
91648,note_off,,,,,256,0,15,,,,,7,,,64,100
91648,note_off,,,,,64,0,8,,,,,0,,,74,100
91648,note_off,,,,,256,0,16,,,,,7,,,45,100
91680,note_on,,,,,32,0,8,,,,,0,,,76,100
91712,note_off,,,,,128,0,13,,,,,5,,,48,100
91744,note_off,,,,,64,0,8,,,,,0,,,76,100
91776,note_on,,,,,32,0,8,,,,,0,,,72,100
91840,note_off,,,,,64,0,8,,,,,0,,,72,100
91872,note_on,,,,,32,0,8,,,,,0,,,76,100
91872,note_on,,,,,160,0,13,,,,,5,,,60,110
91936,note_off,,,,,64,0,13,,,,,5,,,60,100
91936,note_off,,,,,64,0,8,,,,,0,,,76,100
91968,note_on,,,,,320,0,15,,,,,7,,,64,100
91968,note_on,,,,,0,0,15,,,,,7,,,67,100
91968,note_on,,,,,320,0,14,,,,,6,,,33,85
91968,note_on,,,,,32,0,13,,,,,5,,,59,110
91968,note_on,,,,,32,0,8,,,,,0,,,74,100
91968,note_on,,,,,320,0,16,,,,,7,,,45,100
92032,note_off,,,,,64,0,8,,,,,0,,,74,100
92032,note_off,,,,,64,0,13,,,,,5,,,59,100
92064,note_on,,,,,32,0,8,,,,,0,,,76,100
92064,note_on,,,,,32,0,13,,,,,5,,,60,110
92096,note_off,,,,,128,0,16,,,,,7,,,45,100
92096,note_off,,,,,128,0,15,,,,,7,,,64,100
92096,note_off,,,,,0,0,15,,,,,7,,,67,100
92096,note_off,,,,,128,0,14,,,,,6,,,33,100
92128,note_off,,,,,64,0,8,,,,,0,,,76,100
92128,note_off,,,,,64,0,13,,,,,5,,,60,100
92160,note_on,,,,,64,0,14,,,,,6,,,38,85
92160,note_on,,,,,0,0,15,,,,,7,,,65,100
92160,note_on,,,,,32,0,8,,,,,0,,,77,100
92160,note_on,,,,,64,0,15,,,,,7,,,69,100
92160,note_on,,,,,32,0,13,,,,,5,,,62,110
92160,note_on,,,,,64,0,16,,,,,7,,,50,100
92224,note_off,,,,,64,0,8,,,,,0,,,77,100
92224,note_off,,,,,64,0,13,,,,,5,,,62,100
92256,note_on,,,,,32,0,8,,,,,0,,,79,100
92256,note_on,,,,,32,0,13,,,,,5,,,64,110
92320,note_off,,,,,64,0,8,,,,,0,,,79,100
92320,note_off,,,,,64,0,13,,,,,5,,,64,100
92352,note_on,,,,,32,0,8,,,,,0,,,77,100
92352,note_on,,,,,32,0,13,,,,,5,,,62,110
92416,note_off,,,,,256,0,14,,,,,6,,,38,100
92416,note_off,,,,,64,0,13,,,,,5,,,62,100
92416,note_off,,,,,256,0,16,,,,,7,,,50,100
92416,note_off,,,,,64,0,8,,,,,0,,,77,100
92416,note_off,,,,,0,0,15,,,,,7,,,65,100
92416,note_off,,,,,256,0,15,,,,,7,,,69,100
92448,note_on,,,,,32,0,13,,,,,5,,,64,110
92448,note_on,,,,,32,0,8,,,,,0,,,79,100
92512,note_off,,,,,64,0,8,,,,,0,,,79,100
92512,note_off,,,,,64,0,13,,,,,5,,,64,100
92544,note_on,,,,,32,0,8,,,,,0,,,77,100
92544,note_on,,,,,32,0,13,,,,,5,,,62,110
92608,note_off,,,,,64,0,13,,,,,5,,,62,100
92608,note_off,,,,,64,0,8,,,,,0,,,77,100
92640,note_on,,,,,32,0,13,,,,,5,,,64,110
92640,note_on,,,,,32,0,8,,,,,0,,,79,100
92704,note_off,,,,,64,0,13,,,,,5,,,64,100
92704,note_off,,,,,64,0,8,,,,,0,,,79,100
92736,note_on,,,,,320,0,16,,,,,7,,,50,100
92736,note_on,,,,,32,0,8,,,,,0,,,77,100
92736,note_on,,,,,0,0,15,,,,,7,,,69,100
92736,note_on,,,,,320,0,15,,,,,7,,,65,100
92736,note_on,,,,,32,0,13,,,,,5,,,62,110
92736,note_on,,,,,320,0,14,,,,,6,,,38,85
92800,note_off,,,,,64,0,13,,,,,5,,,62,100
92800,note_off,,,,,64,0,8,,,,,0,,,77,100
92832,note_on,,,,,32,0,13,,,,,5,,,64,110
92832,note_on,,,,,32,0,8,,,,,0,,,79,100
92864,note_off,,,,,0,0,15,,,,,7,,,69,100
92864,note_off,,,,,128,0,15,,,,,7,,,65,100
92864,note_off,,,,,128,0,16,,,,,7,,,50,100
92864,note_off,,,,,128,0,14,,,,,6,,,38,100
92896,note_off,,,,,64,0,13,,,,,5,,,64,100
92896,note_off,,,,,64,0,8,,,,,0,,,79,100
92928,note_on,,,,,64,0,16,,,,,7,,,44,100
92928,note_on,,,,,64,0,15,,,,,7,,,62,100
92928,note_on,,,,,0,0,15,,,,,7,,,65,100
92928,note_on,,,,,32,0,13,,,,,5,,,62,110
92928,note_on,,,,,64,0,14,,,,,6,,,32,85
92928,note_on,,,,,32,0,8,,,,,0,,,77,100
92992,note_off,,,,,64,0,8,,,,,0,,,77,100
92992,note_off,,,,,64,0,13,,,,,5,,,62,100
93024,note_on,,,,,32,0,8,,,,,0,,,79,100
93024,note_on,,,,,32,0,13,,,,,5,,,64,110
93088,note_off,,,,,64,0,8,,,,,0,,,79,100
93088,note_off,,,,,64,0,13,,,,,5,,,64,100
93120,note_on,,,,,32,0,8,,,,,0,,,77,100
93120,note_on,,,,,32,0,13,,,,,5,,,62,110
93184,note_off,,,,,0,0,15,,,,,7,,,65,100
93184,note_off,,,,,256,0,14,,,,,6,,,32,100
93184,note_off,,,,,256,0,15,,,,,7,,,62,100
93184,note_off,,,,,64,0,8,,,,,0,,,77,100
93184,note_off,,,,,256,0,16,,,,,7,,,44,100
93184,note_off,,,,,64,0,13,,,,,5,,,62,100
93216,note_on,,,,,32,0,8,,,,,0,,,79,100
93216,note_on,,,,,32,0,13,,,,,5,,,64,110
93280,note_off,,,,,64,0,13,,,,,5,,,64,100
93280,note_off,,,,,64,0,8,,,,,0,,,79,100
93312,note_on,,,,,32,0,13,,,,,5,,,62,110
93312,note_on,,,,,32,0,8,,,,,0,,,77,100
93376,note_off,,,,,64,0,13,,,,,5,,,62,100
93376,note_off,,,,,64,0,8,,,,,0,,,77,100
93408,note_on,,,,,32,0,8,,,,,0,,,79,100
93408,note_on,,,,,32,0,13,,,,,5,,,64,110
93472,note_off,,,,,64,0,8,,,,,0,,,79,100
93472,note_off,,,,,64,0,13,,,,,5,,,64,100
93504,note_on,,,,,0,0,15,,,,,7,,,65,100
93504,note_on,,,,,32,0,8,,,,,0,,,77,100
93504,note_on,,,,,320,0,15,,,,,7,,,62,100
93504,note_on,,,,,320,0,14,,,,,6,,,32,85
93504,note_on,,,,,32,0,13,,,,,5,,,62,110
93504,note_on,,,,,320,0,16,,,,,7,,,44,100
93568,note_off,,,,,64,0,8,,,,,0,,,77,100
93568,note_off,,,,,64,0,13,,,,,5,,,62,100
93600,note_on,,,,,32,0,8,,,,,0,,,79,100
93600,note_on,,,,,32,0,13,,,,,5,,,64,110
93632,note_off,,,,,0,0,15,,,,,7,,,65,100
93632,note_off,,,,,128,0,14,,,,,6,,,32,100
93632,note_off,,,,,128,0,15,,,,,7,,,62,100
93632,note_off,,,,,128,0,16,,,,,7,,,44,100
93664,note_off,,,,,64,0,8,,,,,0,,,79,100
93664,note_off,,,,,64,0,13,,,,,5,,,64,100
93696,note_on,,,,,32,0,8,,,,,0,,,76,100
93696,note_on,,,,,64,0,15,,,,,7,,,60,100
93696,note_on,,,,,0,0,15,,,,,7,,,64,100
93696,note_on,,,,,32,0,13,,,,,5,,,60,110
93696,note_on,,,,,64,0,16,,,,,7,,,45,100
93696,note_on,,,,,64,0,14,,,,,6,,,33,85
93824,note_off,,,,,128,0,14,,,,,6,,,33,100
93824,note_off,,,,,128,0,8,,,,,0,,,76,100
93824,note_off,,,,,128,0,16,,,,,7,,,45,100
93824,note_off,,,,,128,0,13,,,,,5,,,60,100
93824,note_off,,,,,0,0,15,,,,,7,,,64,100
93824,note_off,,,,,128,0,15,,,,,7,,,60,100
93888,note_on,,,,,64,0,8,,,,,0,,,74,100
93888,note_on,,,,,64,0,15,,,,,7,,,69,100
93888,note_on,,,,,64,0,16,,,,,7,,,50,100
93888,note_on,,,,,64,0,14,,,,,6,,,38,85
93888,note_on,,,,,64,0,13,,,,,5,,,59,110
93888,note_on,,,,,0,0,15,,,,,7,,,65,100
93952,note_off,,,,,64,0,13,,,,,5,,,59,100
93952,note_off,,,,,64,0,8,,,,,0,,,74,100
93984,note_on,,,,,32,0,8,,,,,0,,,72,100
93984,note_on,,,,,32,0,13,,,,,5,,,57,110
94016,note_off,,,,,128,0,16,,,,,7,,,50,100
94016,note_off,,,,,128,0,15,,,,,7,,,69,100
94016,note_off,,,,,0,0,15,,,,,7,,,65,100
94016,note_off,,,,,128,0,14,,,,,6,,,38,100
94048,note_off,,,,,64,0,8,,,,,0,,,72,100
94048,note_off,,,,,64,0,13,,,,,5,,,57,100
94080,note_on,,,,,32,0,13,,,,,5,,,56,110
94080,note_on,,,,,64,0,15,,,,,7,,,71,100
94080,note_on,,,,,64,0,16,,,,,7,,,52,100
94080,note_on,,,,,32,0,8,,,,,0,,,71,100
94080,note_on,,,,,0,0,15,,,,,7,,,68,100
94080,note_on,,,,,64,0,14,,,,,6,,,40,85
94124,note_off,,,,,44,0,8,,,,,0,,,71,100
94128,note_on,,,,,4,0,8,,,,,0,,,72,100
94140,note_off,,,,,60,0,13,,,,,5,,,56,100
94144,note_on,,,,,4,0,13,,,,,5,,,57,110
94172,note_off,,,,,44,0,8,,,,,0,,,72,100
94176,note_on,,,,,4,0,8,,,,,0,,,71,100
94204,note_off,,,,,60,0,13,,,,,5,,,57,100
94208,note_on,,,,,4,0,13,,,,,5,,,56,110
94208,note_off,,,,,0,0,15,,,,,7,,,68,100
94208,note_off,,,,,128,0,14,,,,,6,,,40,100
94208,note_off,,,,,128,0,16,,,,,7,,,52,100
94208,note_off,,,,,128,0,15,,,,,7,,,71,100
94220,note_off,,,,,44,0,8,,,,,0,,,71,100
94224,note_on,,,,,4,0,8,,,,,0,,,72,100
94268,note_off,,,,,60,0,13,,,,,5,,,56,100
94268,note_off,,,,,44,0,8,,,,,0,,,72,100
94272,note_on,,,,,4,0,8,,,,,0,,,71,100
94272,note_on,,,,,64,0,16,,,,,7,,,40,100
94272,note_on,,,,,64,0,15,,,,,7,,,59,100
94272,note_on,,,,,0,0,15,,,,,7,,,68,100
94272,note_on,,,,,4,0,13,,,,,5,,,56,110
94272,note_on,,,,,64,0,14,,,,,6,,,40,85
94336,note_off,,,,,64,0,13,,,,,5,,,56,100
94336,note_off,,,,,64,0,8,,,,,0,,,71,100
94368,note_on,,,,,32,0,13,,,,,5,,,57,110
94368,note_on,,,,,32,0,8,,,,,0,,,69,100
94400,note_off,,,,,128,0,15,,,,,7,,,59,100
94400,note_off,,,,,128,0,16,,,,,7,,,40,100
94400,note_off,,,,,128,0,14,,,,,6,,,40,100
94400,note_off,,,,,0,0,15,,,,,7,,,68,100
94432,note_off,,,,,64,0,13,,,,,5,,,57,100
94432,note_off,,,,,64,0,8,,,,,0,,,69,100
94464,note_on,,,,,64,0,14,,,,,6,,,33,85
94464,note_on,,,,,32,0,8,,,,,0,,,69,100
94464,note_on,,,,,64,0,16,,,,,7,,,45,100
94464,note_on,,,,,0,0,15,,,,,7,,,60,100
94464,note_on,,,,,64,0,15,,,,,7,,,64,100
94464,note_on,,,,,32,0,13,,,,,5,,,57,110
94580,program_change,,,,,116,0,13,,,,,5,48,,,
94592,note_off,,,,,0,0,15,,,,,7,,,60,100
94592,note_off,,,,,128,0,15,,,,,7,,,64,100
94592,note_off,,,,,128,0,16,,,,,7,,,45,100
94592,note_off,,,,,128,0,8,,,,,0,,,69,100
94592,note_off,,,,,128,0,14,,,,,6,,,33,100
94592,note_off,,,,,12,0,13,,,,,5,,,57,100
94640,program_change,,,,,7600,0,9,,,,,1,48,,,
94640,program_change,,,,,6064,0,11,,,,,3,48,,,
94640,program_change,,,,,48,0,8,,,,,0,48,,,
94640,program_change,,,,,6832,0,10,,,,,2,48,,,
94656,note_on,,,,,64,0,13,,,,,5,,,57,100
94656,note_on,,,,,16,0,10,,,,,2,,,76,50
94656,note_on,,,,,64,0,16,,,,,7,,,57,100
94656,note_on,,,,,0,0,15,,,,,7,,,64,100
94656,note_on,,,,,64,0,14,,,,,6,,,45,100
94656,note_on,,,,,64,0,15,,,,,7,,,72,100
94656,note_on,,,,,16,0,8,,,,,0,,,76,100
94784,note_off,,,,,128,0,13,,,,,5,,,57,100
94784,note_off,,,,,128,0,10,,,,,2,,,76,100
94784,note_off,,,,,128,0,15,,,,,7,,,72,100
94784,note_off,,,,,0,0,15,,,,,7,,,64,100
94784,note_off,,,,,128,0,16,,,,,7,,,57,100
94784,note_off,,,,,128,0,8,,,,,0,,,76,100
94784,note_off,,,,,128,0,14,,,,,6,,,45,100
94848,note_on,,,,,0,0,15,,,,,7,,,64,100
94848,note_on,,,,,64,0,15,,,,,7,,,72,100
94848,note_on,,,,,64,0,13,,,,,5,,,57,100
94848,note_on,,,,,64,0,10,,,,,2,,,76,50
94848,note_on,,,,,64,0,14,,,,,6,,,45,100
94848,note_on,,,,,64,0,8,,,,,0,,,76,100
94848,note_on,,,,,64,0,16,,,,,7,,,57,100
94976,note_off,,,,,128,0,16,,,,,7,,,57,100
94976,note_off,,,,,128,0,13,,,,,5,,,57,100
94976,note_off,,,,,0,0,15,,,,,7,,,64,100
94976,note_off,,,,,128,0,15,,,,,7,,,72,100
94976,note_off,,,,,128,0,10,,,,,2,,,76,100
94976,note_off,,,,,128,0,14,,,,,6,,,45,100
94976,note_off,,,,,128,0,8,,,,,0,,,76,100
95040,note_on,,,,,64,0,16,,,,,7,,,57,100
95040,note_on,,,,,0,0,15,,,,,7,,,64,100
95040,note_on,,,,,64,0,15,,,,,7,,,72,100
95040,note_on,,,,,64,0,10,,,,,2,,,76,50
95040,note_on,,,,,64,0,13,,,,,5,,,57,100
95040,note_on,,,,,64,0,8,,,,,0,,,76,100
95040,note_on,,,,,64,0,14,,,,,6,,,45,100
95168,note_off,,,,,128,0,10,,,,,2,,,76,100
95168,note_off,,,,,128,0,13,,,,,5,,,57,100
95168,note_off,,,,,128,0,15,,,,,7,,,72,100
95168,note_off,,,,,0,0,15,,,,,7,,,64,100
95168,note_off,,,,,128,0,14,,,,,6,,,45,100
95168,note_off,,,,,128,0,8,,,,,0,,,76,100
95168,note_off,,,,,128,0,16,,,,,7,,,57,100
95232,note_on,,,,,64,0,14,,,,,6,,,38,100
95232,note_on,,,,,64,0,16,,,,,7,,,50,100
95232,note_on,,,,,64,0,13,,,,,5,,,50,100
95232,note_on,,,,,0,0,15,,,,,7,,,65,100
95232,note_on,,,,,64,0,8,,,,,0,,,77,100
95232,note_on,,,,,64,0,10,,,,,2,,,77,50
95232,note_on,,,,,64,0,15,,,,,7,,,69,100
95360,note_off,,,,,128,0,16,,,,,7,,,50,100
95360,note_off,,,,,128,0,15,,,,,7,,,69,100
95360,note_off,,,,,128,0,14,,,,,6,,,38,100
95360,note_off,,,,,0,0,15,,,,,7,,,65,100
95360,note_off,,,,,128,0,13,,,,,5,,,50,100
95424,note_on,,,,,64,0,15,,,,,7,,,69,100
95424,note_on,,,,,0,0,15,,,,,7,,,65,100
95424,note_on,,,,,64,0,13,,,,,5,,,50,100
95424,note_on,,,,,784,0,9,,,,,1,,,81,100
95424,note_on,,,,,64,0,16,,,,,7,,,50,100
95424,note_on,,,,,784,0,11,,,,,3,,,74,100
95424,note_on,,,,,64,0,14,,,,,6,,,38,100
95488,note_off,,,,,64,0,11,,,,,3,,,74,100
95520,note_on,,,,,32,0,11,,,,,3,,,76,100
95552,note_off,,,,,0,0,15,,,,,7,,,65,100
95552,note_off,,,,,128,0,15,,,,,7,,,69,100
95552,note_off,,,,,128,0,13,,,,,5,,,50,100
95552,note_off,,,,,128,0,16,,,,,7,,,50,100
95552,note_off,,,,,128,0,9,,,,,1,,,81,100
95552,note_off,,,,,128,0,14,,,,,6,,,38,100
95584,note_off,,,,,64,0,11,,,,,3,,,76,100
95616,note_on,,,,,64,0,9,,,,,1,,,86,100
95616,note_on,,,,,32,0,11,,,,,3,,,77,100
95616,note_on,,,,,64,0,13,,,,,5,,,50,100
95616,note_on,,,,,64,0,15,,,,,7,,,69,100
95616,note_on,,,,,0,0,15,,,,,7,,,65,100
95616,note_on,,,,,64,0,14,,,,,6,,,38,100
95616,note_on,,,,,64,0,16,,,,,7,,,50,100
95744,note_off,,,,,128,0,13,,,,,5,,,50,100
95744,note_off,,,,,128,0,11,,,,,3,,,77,100
95744,note_off,,,,,128,0,9,,,,,1,,,86,100
95744,note_off,,,,,0,0,15,,,,,7,,,65,100
95744,note_off,,,,,128,0,16,,,,,7,,,50,100
95744,note_off,,,,,128,0,14,,,,,6,,,38,100
95744,note_off,,,,,128,0,15,,,,,7,,,69,100
95808,note_on,,,,,64,0,11,,,,,3,,,74,100
95808,note_on,,,,,0,0,15,,,,,7,,,65,100
95808,note_on,,,,,64,0,15,,,,,7,,,69,100
95808,note_on,,,,,64,0,16,,,,,7,,,50,100
95808,note_on,,,,,64,0,13,,,,,5,,,50,100
95808,note_on,,,,,64,0,14,,,,,6,,,38,100
95808,note_on,,,,,64,0,9,,,,,1,,,81,100
95936,note_off,,,,,128,0,11,,,,,3,,,74,100
95936,note_off,,,,,128,0,16,,,,,7,,,50,100
95936,note_off,,,,,128,0,14,,,,,6,,,38,100
95936,note_off,,,,,0,0,15,,,,,7,,,65,100
95936,note_off,,,,,128,0,15,,,,,7,,,69,100
95936,note_off,,,,,128,0,9,,,,,1,,,81,100
95936,note_off,,,,,128,0,13,,,,,5,,,50,100
96000,note_on,,,,,64,0,14,,,,,6,,,43,100
96000,note_on,,,,,64,0,16,,,,,7,,,55,100
96000,note_on,,,,,64,0,13,,,,,5,,,55,100
96000,note_on,,,,,64,0,11,,,,,3,,,83,100
96000,note_on,,,,,0,0,15,,,,,7,,,65,100
96000,note_on,,,,,64,0,15,,,,,7,,,59,100
96000,note_on,,,,,64,0,9,,,,,1,,,79,100
96128,note_off,,,,,128,0,9,,,,,1,,,79,100
96128,note_off,,,,,896,0,10,,,,,2,,,77,100
96128,note_off,,,,,128,0,11,,,,,3,,,83,100
96128,note_off,,,,,128,0,14,,,,,6,,,43,100
96128,note_off,,,,,0,0,15,,,,,7,,,65,100
96128,note_off,,,,,128,0,15,,,,,7,,,59,100
96128,note_off,,,,,128,0,16,,,,,7,,,55,100
96128,note_off,,,,,896,0,8,,,,,0,,,77,100
96128,note_off,,,,,128,0,13,,,,,5,,,55,100
96192,note_on,,,,,11456,0,12,,,,,4,,,59,100
96192,note_on,,,,,0,0,15,,,,,7,,,65,100
96192,note_on,,,,,64,0,15,,,,,7,,,59,100
96192,note_on,,,,,64,0,14,,,,,6,,,43,100
96192,note_on,,,,,64,0,16,,,,,7,,,55,100
96192,note_on,,,,,0,0,12,,,,,4,,,62,100
96192,note_on,,,,,64,0,8,,,,,0,,,79,100
96192,note_on,,,,,64,0,11,,,,,3,,,71,100
96192,note_on,,,,,64,0,10,,,,,2,,,79,50
96192,note_on,,,,,64,0,13,,,,,5,,,55,100
96192,note_on,,,,,64,0,9,,,,,1,,,67,100
96256,note_off,,,,,64,0,8,,,,,0,,,79,100
96256,note_off,,,,,64,0,10,,,,,2,,,79,100
96288,note_on,,,,,32,0,8,,,,,0,,,77,100
96288,note_on,,,,,32,0,10,,,,,2,,,77,50
96320,note_off,,,,,128,0,14,,,,,6,,,43,100
96320,note_off,,,,,128,0,11,,,,,3,,,71,100
96320,note_off,,,,,128,0,12,,,,,4,,,59,100
96320,note_off,,,,,0,0,12,,,,,4,,,62,100
96320,note_off,,,,,0,0,15,,,,,7,,,65,100
96320,note_off,,,,,128,0,16,,,,,7,,,55,100
96320,note_off,,,,,128,0,15,,,,,7,,,59,100
96320,note_off,,,,,128,0,13,,,,,5,,,55,100
96320,note_off,,,,,128,0,9,,,,,1,,,67,100
96352,note_off,,,,,64,0,8,,,,,0,,,77,100
96352,note_off,,,,,64,0,10,,,,,2,,,77,100
96384,note_on,,,,,64,0,14,,,,,6,,,43,100
96384,note_on,,,,,0,0,12,,,,,4,,,62,100
96384,note_on,,,,,32,0,8,,,,,0,,,79,100
96384,note_on,,,,,64,0,12,,,,,4,,,59,100
96384,note_on,,,,,0,0,15,,,,,7,,,65,100
96384,note_on,,,,,64,0,13,,,,,5,,,55,100
96384,note_on,,,,,64,0,15,,,,,7,,,59,100
96384,note_on,,,,,32,0,10,,,,,2,,,79,50
96384,note_on,,,,,64,0,16,,,,,7,,,55,100
96512,note_off,,,,,128,0,13,,,,,5,,,55,100
96512,note_off,,,,,128,0,10,,,,,2,,,79,100
96512,note_off,,,,,128,0,8,,,,,0,,,79,100
96512,note_off,,,,,128,0,15,,,,,7,,,59,100
96512,note_off,,,,,128,0,16,,,,,7,,,55,100
96512,note_off,,,,,128,0,12,,,,,4,,,59,100
96512,note_off,,,,,0,0,12,,,,,4,,,62,100
96512,note_off,,,,,128,0,14,,,,,6,,,43,100
96512,note_off,,,,,0,0,15,,,,,7,,,65,100
96576,note_on,,,,,64,0,13,,,,,5,,,55,100
96576,note_on,,,,,0,0,12,,,,,4,,,60,100
96576,note_on,,,,,64,0,12,,,,,4,,,57,100
96576,note_on,,,,,0,0,15,,,,,7,,,65,100
96576,note_on,,,,,64,0,16,,,,,7,,,55,100
96576,note_on,,,,,64,0,8,,,,,0,,,74,100
96576,note_on,,,,,64,0,10,,,,,2,,,74,50
96576,note_on,,,,,64,0,15,,,,,7,,,59,100
96576,note_on,,,,,64,0,14,,,,,6,,,43,100
96640,note_off,,,,,64,0,12,,,,,4,,,57,100
96640,note_off,,,,,0,0,12,,,,,4,,,60,100
96672,note_on,,,,,0,0,12,,,,,4,,,59,100
96672,note_on,,,,,32,0,12,,,,,4,,,55,100
96704,note_off,,,,,128,0,8,,,,,0,,,74,100
96704,note_off,,,,,128,0,13,,,,,5,,,55,100
96704,note_off,,,,,128,0,10,,,,,2,,,74,100
96704,note_off,,,,,128,0,16,,,,,7,,,55,100
96704,note_off,,,,,0,0,15,,,,,7,,,65,100
96704,note_off,,,,,128,0,15,,,,,7,,,59,100
96704,note_off,,,,,128,0,14,,,,,6,,,43,100
96736,note_off,,,,,0,0,12,,,,,4,,,59,100
96736,note_off,,,,,64,0,12,,,,,4,,,55,100
96768,note_on,,,,,64,0,16,,,,,7,,,48,100
96768,note_on,,,,,64,0,13,,,,,5,,,48,100
96768,note_on,,,,,0,0,15,,,,,7,,,70,100
96768,note_on,,,,,64,0,8,,,,,0,,,76,100
96768,note_on,,,,,64,0,15,,,,,7,,,64,100
96768,note_on,,,,,64,0,10,,,,,2,,,76,50
96768,note_on,,,,,64,0,14,,,,,6,,,36,100
96768,note_on,,,,,32,0,12,,,,,4,,,55,100
96768,note_on,,,,,0,0,12,,,,,4,,,60,100
96896,note_off,,,,,128,0,14,,,,,6,,,36,100
96896,note_off,,,,,0,0,15,,,,,7,,,70,100
96896,note_off,,,,,128,0,16,,,,,7,,,48,100
96896,note_off,,,,,128,0,15,,,,,7,,,64,100
96896,note_off,,,,,128,0,13,,,,,5,,,48,100
96960,note_on,,,,,64,0,13,,,,,5,,,48,100
96960,note_on,,,,,64,0,14,,,,,6,,,36,100
96960,note_on,,,,,64,0,16,,,,,7,,,48,100
96960,note_on,,,,,640,0,9,,,,,1,,,79,100
96960,note_on,,,,,64,0,15,,,,,7,,,64,100
96960,note_on,,,,,0,0,15,,,,,7,,,70,100
96960,note_on,,,,,640,0,11,,,,,3,,,72,100
97024,note_off,,,,,64,0,11,,,,,3,,,72,100
97056,note_on,,,,,32,0,11,,,,,3,,,74,100
97088,note_off,,,,,128,0,9,,,,,1,,,79,100
97088,note_off,,,,,0,0,15,,,,,7,,,70,100
97088,note_off,,,,,128,0,15,,,,,7,,,64,100
97088,note_off,,,,,128,0,14,,,,,6,,,36,100
97088,note_off,,,,,128,0,16,,,,,7,,,48,100
97088,note_off,,,,,128,0,13,,,,,5,,,48,100
97120,note_off,,,,,64,0,11,,,,,3,,,74,100
97152,note_on,,,,,64,0,9,,,,,1,,,84,99
97152,note_on,,,,,64,0,16,,,,,7,,,48,100
97152,note_on,,,,,64,0,15,,,,,7,,,64,100
97152,note_on,,,,,64,0,14,,,,,6,,,36,99
97152,note_on,,,,,64,0,13,,,,,5,,,48,99
97152,note_on,,,,,32,0,11,,,,,3,,,76,99
97152,note_on,,,,,0,0,15,,,,,7,,,70,100
97280,note_off,,,,,128,0,11,,,,,3,,,76,100
97280,note_off,,,,,128,0,13,,,,,5,,,48,100
97280,note_off,,,,,0,0,12,,,,,4,,,60,100
97280,note_off,,,,,0,0,15,,,,,7,,,70,100
97280,note_off,,,,,512,0,12,,,,,4,,,55,100
97280,note_off,,,,,128,0,16,,,,,7,,,48,100
97280,note_off,,,,,128,0,15,,,,,7,,,64,100
97280,note_off,,,,,128,0,14,,,,,6,,,36,100
97280,note_off,,,,,128,0,9,,,,,1,,,84,100
97344,note_on,,,,,64,0,16,,,,,7,,,48,100
97344,note_on,,,,,64,0,14,,,,,6,,,36,99
97344,note_on,,,,,64,0,15,,,,,7,,,64,100
97344,note_on,,,,,64,0,9,,,,,1,,,79,99
97344,note_on,,,,,64,0,13,,,,,5,,,48,99
97344,note_on,,,,,64,0,11,,,,,3,,,72,99
97344,note_on,,,,,0,0,15,,,,,7,,,70,100
97472,note_off,,,,,128,0,14,,,,,6,,,36,100
97472,note_off,,,,,128,0,9,,,,,1,,,79,100
97472,note_off,,,,,128,0,16,,,,,7,,,48,100
97472,note_off,,,,,128,0,13,,,,,5,,,48,100
97472,note_off,,,,,128,0,11,,,,,3,,,72,100
97472,note_off,,,,,128,0,15,,,,,7,,,64,100
97472,note_off,,,,,0,0,15,,,,,7,,,70,100
97536,note_on,,,,,64,0,16,,,,,7,,,53,100
97536,note_on,,,,,64,0,13,,,,,5,,,53,98
97536,note_on,,,,,64,0,9,,,,,1,,,77,98
97536,note_on,,,,,64,0,14,,,,,6,,,41,98
97536,note_on,,,,,64,0,11,,,,,3,,,81,98
97536,note_on,,,,,0,0,15,,,,,7,,,64,100
97536,note_on,,,,,64,0,15,,,,,7,,,60,100
97664,note_off,,,,,128,0,14,,,,,6,,,41,100
97664,note_off,,,,,0,0,15,,,,,7,,,64,100
97664,note_off,,,,,128,0,15,,,,,7,,,60,100
97664,note_off,,,,,896,0,10,,,,,2,,,76,100
97664,note_off,,,,,128,0,16,,,,,7,,,53,100
97664,note_off,,,,,896,0,8,,,,,0,,,76,100
97664,note_off,,,,,128,0,9,,,,,1,,,77,100
97664,note_off,,,,,128,0,11,,,,,3,,,81,100
97664,note_off,,,,,128,0,13,,,,,5,,,53,100
97728,note_on,,,,,64,0,14,,,,,6,,,41,97
97728,note_on,,,,,64,0,16,,,,,7,,,53,100
97728,note_on,,,,,64,0,8,,,,,0,,,77,97
97728,note_on,,,,,64,0,9,,,,,1,,,65,97
97728,note_on,,,,,0,0,12,,,,,4,,,60,97
97728,note_on,,,,,448,0,12,,,,,4,,,57,97
97728,note_on,,,,,64,0,10,,,,,2,,,77,47
97728,note_on,,,,,64,0,13,,,,,5,,,53,97
97728,note_on,,,,,64,0,11,,,,,3,,,69,97
97728,note_on,,,,,64,0,15,,,,,7,,,60,100
97728,note_on,,,,,0,0,15,,,,,7,,,64,100
97792,note_off,,,,,64,0,10,,,,,2,,,77,100
97792,note_off,,,,,64,0,8,,,,,0,,,77,100
97824,note_on,,,,,32,0,10,,,,,2,,,76,47
97824,note_on,,,,,32,0,8,,,,,0,,,76,97
97856,note_off,,,,,128,0,15,,,,,7,,,60,100
97856,note_off,,,,,0,0,15,,,,,7,,,64,100
97856,note_off,,,,,128,0,14,,,,,6,,,41,100
97856,note_off,,,,,128,0,13,,,,,5,,,53,100
97856,note_off,,,,,128,0,12,,,,,4,,,57,100
97856,note_off,,,,,128,0,16,,,,,7,,,53,100
97856,note_off,,,,,0,0,12,,,,,4,,,60,100
97856,note_off,,,,,128,0,9,,,,,1,,,65,100
97856,note_off,,,,,128,0,11,,,,,3,,,69,100
97888,note_off,,,,,64,0,8,,,,,0,,,76,100
97888,note_off,,,,,64,0,10,,,,,2,,,76,100
97920,note_on,,,,,32,0,8,,,,,0,,,77,97
97920,note_on,,,,,64,0,15,,,,,7,,,60,100
97920,note_on,,,,,64,0,12,,,,,4,,,57,97
97920,note_on,,,,,0,0,12,,,,,4,,,60,97
97920,note_on,,,,,64,0,13,,,,,5,,,53,97
97920,note_on,,,,,32,0,10,,,,,2,,,77,47
97920,note_on,,,,,64,0,16,,,,,7,,,53,100
97920,note_on,,,,,0,0,15,,,,,7,,,64,100
97920,note_on,,,,,64,0,14,,,,,6,,,41,97
98048,note_off,,,,,128,0,16,,,,,7,,,53,100
98048,note_off,,,,,128,0,8,,,,,0,,,77,100
98048,note_off,,,,,0,0,15,,,,,7,,,64,100
98048,note_off,,,,,128,0,14,,,,,6,,,41,100
98048,note_off,,,,,128,0,12,,,,,4,,,57,100
98048,note_off,,,,,0,0,12,,,,,4,,,60,100
98048,note_off,,,,,128,0,10,,,,,2,,,77,100
98048,note_off,,,,,128,0,15,,,,,7,,,60,100
98048,note_off,,,,,128,0,13,,,,,5,,,53,100
98112,note_on,,,,,64,0,12,,,,,4,,,55,96
98112,note_on,,,,,64,0,8,,,,,0,,,72,96
98112,note_on,,,,,64,0,10,,,,,2,,,72,46
98112,note_on,,,,,0,0,12,,,,,4,,,59,96
98112,note_on,,,,,64,0,15,,,,,7,,,60,100
98112,note_on,,,,,0,0,15,,,,,7,,,64,100
98112,note_on,,,,,64,0,16,,,,,7,,,53,100
98112,note_on,,,,,64,0,14,,,,,6,,,41,96
98112,note_on,,,,,64,0,13,,,,,5,,,53,96
98176,note_off,,,,,0,0,12,,,,,4,,,59,100
98176,note_off,,,,,64,0,12,,,,,4,,,55,100
98208,note_on,,,,,32,0,12,,,,,4,,,53,96
98208,note_on,,,,,0,0,12,,,,,4,,,57,96
98240,note_off,,,,,128,0,13,,,,,5,,,53,100
98240,note_off,,,,,128,0,15,,,,,7,,,60,100
98240,note_off,,,,,0,0,15,,,,,7,,,64,100
98240,note_off,,,,,128,0,8,,,,,0,,,72,100
98240,note_off,,,,,128,0,16,,,,,7,,,53,100
98240,note_off,,,,,128,0,14,,,,,6,,,41,100
98240,note_off,,,,,128,0,10,,,,,2,,,72,100
98272,note_off,,,,,0,0,12,,,,,4,,,57,100
98272,note_off,,,,,64,0,12,,,,,4,,,53,100
98304,note_on,,,,,32,0,12,,,,,4,,,53,95
98304,note_on,,,,,0,0,12,,,,,4,,,59,95
98304,note_on,,,,,64,0,14,,,,,6,,,35,95
98304,note_on,,,,,0,0,15,,,,,7,,,69,100
98304,note_on,,,,,64,0,15,,,,,7,,,65,100
98304,note_on,,,,,64,0,13,,,,,5,,,47,95
98304,note_on,,,,,64,0,10,,,,,2,,,74,45
98304,note_on,,,,,64,0,8,,,,,0,,,74,95
98304,note_on,,,,,64,0,16,,,,,7,,,47,100
98432,note_off,,,,,128,0,14,,,,,6,,,35,100
98432,note_off,,,,,128,0,16,,,,,7,,,47,100
98432,note_off,,,,,128,0,13,,,,,5,,,47,100
98432,note_off,,,,,128,0,15,,,,,7,,,65,100
98432,note_off,,,,,0,0,15,,,,,7,,,69,100
98496,note_on,,,,,0,0,15,,,,,7,,,69,100
98496,note_on,,,,,64,0,13,,,,,5,,,47,95
98496,note_on,,,,,640,0,11,,,,,3,,,71,95
98496,note_on,,,,,64,0,15,,,,,7,,,65,100
98496,note_on,,,,,64,0,16,,,,,7,,,47,100
98496,note_on,,,,,64,0,14,,,,,6,,,35,95
98496,note_on,,,,,640,0,9,,,,,1,,,77,95
98560,note_off,,,,,64,0,11,,,,,3,,,71,100
98592,note_on,,,,,32,0,11,,,,,3,,,72,94
98624,note_off,,,,,128,0,15,,,,,7,,,65,100
98624,note_off,,,,,128,0,14,,,,,6,,,35,100
98624,note_off,,,,,0,0,15,,,,,7,,,69,100
98624,note_off,,,,,128,0,9,,,,,1,,,77,100
98624,note_off,,,,,128,0,13,,,,,5,,,47,100
98624,note_off,,,,,128,0,16,,,,,7,,,47,100
98656,note_off,,,,,64,0,11,,,,,3,,,72,100
98688,note_on,,,,,64,0,13,,,,,5,,,47,94
98688,note_on,,,,,64,0,16,,,,,7,,,47,100
98688,note_on,,,,,64,0,14,,,,,6,,,35,94
98688,note_on,,,,,64,0,9,,,,,1,,,83,94
98688,note_on,,,,,64,0,15,,,,,7,,,65,100
98688,note_on,,,,,0,0,15,,,,,7,,,69,100
98688,note_on,,,,,32,0,11,,,,,3,,,74,94
98816,note_off,,,,,128,0,14,,,,,6,,,35,100
98816,note_off,,,,,128,0,13,,,,,5,,,47,100
98816,note_off,,,,,128,0,15,,,,,7,,,65,100
98816,note_off,,,,,0,0,15,,,,,7,,,69,100
98816,note_off,,,,,0,0,12,,,,,4,,,59,100
98816,note_off,,,,,512,0,12,,,,,4,,,53,100
98816,note_off,,,,,128,0,11,,,,,3,,,74,100
98816,note_off,,,,,128,0,9,,,,,1,,,83,100
98816,note_off,,,,,128,0,16,,,,,7,,,47,100
98880,note_on,,,,,0,0,15,,,,,7,,,69,100
98880,note_on,,,,,64,0,15,,,,,7,,,65,100
98880,note_on,,,,,64,0,14,,,,,6,,,35,93
98880,note_on,,,,,64,0,9,,,,,1,,,77,93
98880,note_on,,,,,64,0,13,,,,,5,,,47,93
98880,note_on,,,,,64,0,16,,,,,7,,,47,100
98880,note_on,,,,,64,0,11,,,,,3,,,71,93
99008,note_off,,,,,128,0,9,,,,,1,,,77,100
99008,note_off,,,,,128,0,13,,,,,5,,,47,100
99008,note_off,,,,,128,0,11,,,,,3,,,71,100
99008,note_off,,,,,128,0,14,,,,,6,,,35,100
99008,note_off,,,,,128,0,15,,,,,7,,,65,100
99008,note_off,,,,,0,0,15,,,,,7,,,69,100
99008,note_off,,,,,128,0,16,,,,,7,,,47,100
99072,note_on,,,,,64,0,9,,,,,1,,,76,93
99072,note_on,,,,,64,0,16,,,,,7,,,52,100
99072,note_on,,,,,64,0,14,,,,,6,,,40,93
99072,note_on,,,,,64,0,15,,,,,7,,,68,100
99072,note_on,,,,,64,0,13,,,,,5,,,52,93
99072,note_on,,,,,64,0,11,,,,,3,,,80,93
99072,note_on,,,,,0,0,15,,,,,7,,,62,100
99200,note_off,,,,,128,0,15,,,,,7,,,68,100
99200,note_off,,,,,128,0,16,,,,,7,,,52,100
99200,note_off,,,,,128,0,11,,,,,3,,,80,100
99200,note_off,,,,,896,0,10,,,,,2,,,74,100
99200,note_off,,,,,128,0,14,,,,,6,,,40,100
99200,note_off,,,,,128,0,13,,,,,5,,,52,100
99200,note_off,,,,,0,0,15,,,,,7,,,62,100
99200,note_off,,,,,896,0,8,,,,,0,,,74,100
99200,note_off,,,,,128,0,9,,,,,1,,,76,100
99264,note_on,,,,,64,0,10,,,,,2,,,76,42
99264,note_on,,,,,64,0,8,,,,,0,,,76,92
99264,note_on,,,,,64,0,13,,,,,5,,,52,92
99264,note_on,,,,,64,0,16,,,,,7,,,52,100
99264,note_on,,,,,64,0,11,,,,,3,,,68,92
99264,note_on,,,,,448,0,12,,,,,4,,,56,92
99264,note_on,,,,,0,0,12,,,,,4,,,59,92
99264,note_on,,,,,64,0,14,,,,,6,,,40,92
99264,note_on,,,,,64,0,9,,,,,1,,,64,92
99264,note_on,,,,,0,0,15,,,,,7,,,62,100
99264,note_on,,,,,64,0,15,,,,,7,,,68,100
99328,note_off,,,,,64,0,10,,,,,2,,,76,100
99328,note_off,,,,,64,0,8,,,,,0,,,76,100
99360,note_on,,,,,32,0,8,,,,,0,,,74,92
99360,note_on,,,,,32,0,10,,,,,2,,,74,42
99392,note_off,,,,,128,0,16,,,,,7,,,52,100
99392,note_off,,,,,0,0,12,,,,,4,,,59,100
99392,note_off,,,,,128,0,15,,,,,7,,,68,100
99392,note_off,,,,,0,0,15,,,,,7,,,62,100
99392,note_off,,,,,128,0,13,,,,,5,,,52,100
99392,note_off,,,,,128,0,9,,,,,1,,,64,100
99392,note_off,,,,,128,0,14,,,,,6,,,40,100
99392,note_off,,,,,128,0,11,,,,,3,,,68,100
99392,note_off,,,,,128,0,12,,,,,4,,,56,100
99424,note_off,,,,,64,0,10,,,,,2,,,74,100
99424,note_off,,,,,64,0,8,,,,,0,,,74,100
99456,note_on,,,,,32,0,8,,,,,0,,,76,91
99456,note_on,,,,,64,0,14,,,,,6,,,40,91
99456,note_on,,,,,32,0,10,,,,,2,,,76,41
99456,note_on,,,,,64,0,16,,,,,7,,,52,100
99456,note_on,,,,,64,0,12,,,,,4,,,56,91
99456,note_on,,,,,0,0,15,,,,,7,,,62,100
99456,note_on,,,,,64,0,15,,,,,7,,,68,100
99456,note_on,,,,,64,0,13,,,,,5,,,52,91
99456,note_on,,,,,0,0,12,,,,,4,,,59,91
99584,note_off,,,,,0,0,15,,,,,7,,,62,100
99584,note_off,,,,,128,0,8,,,,,0,,,76,100
99584,note_off,,,,,128,0,13,,,,,5,,,52,100
99584,note_off,,,,,128,0,14,,,,,6,,,40,100
99584,note_off,,,,,0,0,12,,,,,4,,,59,100
99584,note_off,,,,,128,0,15,,,,,7,,,68,100
99584,note_off,,,,,128,0,16,,,,,7,,,52,100
99584,note_off,,,,,128,0,12,,,,,4,,,56,100
99584,note_off,,,,,128,0,10,,,,,2,,,76,100
99648,note_on,,,,,64,0,13,,,,,5,,,52,91
99648,note_on,,,,,64,0,16,,,,,7,,,52,100
99648,note_on,,,,,64,0,15,,,,,7,,,68,100
99648,note_on,,,,,0,0,15,,,,,7,,,62,100
99648,note_on,,,,,64,0,12,,,,,4,,,53,91
99648,note_on,,,,,0,0,12,,,,,4,,,57,91
99648,note_on,,,,,64,0,10,,,,,2,,,71,41
99648,note_on,,,,,64,0,8,,,,,0,,,71,91
99648,note_on,,,,,64,0,14,,,,,6,,,40,91
99712,note_off,,,,,64,0,12,,,,,4,,,53,100
99712,note_off,,,,,0,0,12,,,,,4,,,57,100
99744,note_on,,,,,0,0,12,,,,,4,,,56,90
99744,note_on,,,,,32,0,12,,,,,4,,,52,90
99776,note_off,,,,,128,0,8,,,,,0,,,71,100
99776,note_off,,,,,128,0,10,,,,,2,,,71,100
99776,note_off,,,,,128,0,14,,,,,6,,,40,100
99776,note_off,,,,,128,0,13,,,,,5,,,52,100
99776,note_off,,,,,128,0,15,,,,,7,,,68,100
99776,note_off,,,,,0,0,15,,,,,7,,,62,100
99776,note_off,,,,,128,0,16,,,,,7,,,52,100
99808,note_off,,,,,0,0,12,,,,,4,,,56,100
99808,note_off,,,,,64,0,12,,,,,4,,,52,100
99840,note_on,,,,,64,0,10,,,,,2,,,72,40
99840,note_on,,,,,64,0,14,,,,,6,,,33,90
99840,note_on,,,,,64,0,8,,,,,0,,,72,90
99840,note_on,,,,,64,0,16,,,,,7,,,45,100
99840,note_on,,,,,64,0,15,,,,,7,,,64,100
99840,note_on,,,,,32,0,12,,,,,4,,,52,90
99840,note_on,,,,,64,0,13,,,,,5,,,45,90
99840,note_on,,,,,0,0,15,,,,,7,,,67,100
99840,note_on,,,,,0,0,12,,,,,4,,,57,90
99968,note_off,,,,,128,0,15,,,,,7,,,64,100
99968,note_off,,,,,128,0,14,,,,,6,,,33,100
99968,note_off,,,,,128,0,13,,,,,5,,,45,100
99968,note_off,,,,,128,0,16,,,,,7,,,45,100
99968,note_off,,,,,0,0,15,,,,,7,,,67,100
100032,note_on,,,,,64,0,13,,,,,5,,,45,89
100032,note_on,,,,,64,0,14,,,,,6,,,33,89
100032,note_on,,,,,0,0,15,,,,,7,,,67,100
100032,note_on,,,,,64,0,16,,,,,7,,,45,100
100032,note_on,,,,,640,0,9,,,,,1,,,76,89
100032,note_on,,,,,64,0,15,,,,,7,,,64,100
100032,note_on,,,,,640,0,11,,,,,3,,,69,89
100096,note_off,,,,,64,0,11,,,,,3,,,69,100
100128,note_on,,,,,32,0,11,,,,,3,,,70,89
100160,note_off,,,,,128,0,13,,,,,5,,,45,100
100160,note_off,,,,,0,0,15,,,,,7,,,67,100
100160,note_off,,,,,128,0,15,,,,,7,,,64,100
100160,note_off,,,,,128,0,14,,,,,6,,,33,100
100160,note_off,,,,,128,0,16,,,,,7,,,45,100
100160,note_off,,,,,128,0,9,,,,,1,,,76,100
100192,note_off,,,,,64,0,11,,,,,3,,,70,100
100224,note_on,,,,,64,0,13,,,,,5,,,45,89
100224,note_on,,,,,64,0,16,,,,,7,,,45,100
100224,note_on,,,,,64,0,14,,,,,6,,,33,89
100224,note_on,,,,,64,0,9,,,,,1,,,81,89
100224,note_on,,,,,32,0,11,,,,,3,,,72,89
100224,note_on,,,,,0,0,15,,,,,7,,,67,100
100224,note_on,,,,,64,0,15,,,,,7,,,64,100
100352,note_off,,,,,128,0,13,,,,,5,,,45,100
100352,note_off,,,,,128,0,11,,,,,3,,,72,100
100352,note_off,,,,,128,0,15,,,,,7,,,64,100
100352,note_off,,,,,128,0,9,,,,,1,,,81,100
100352,note_off,,,,,128,0,14,,,,,6,,,33,100
100352,note_off,,,,,512,0,12,,,,,4,,,52,100
100352,note_off,,,,,0,0,15,,,,,7,,,67,100
100352,note_off,,,,,128,0,16,,,,,7,,,45,100
100352,note_off,,,,,0,0,12,,,,,4,,,57,100
100416,note_on,,,,,64,0,16,,,,,7,,,45,100
100416,note_on,,,,,0,0,15,,,,,7,,,67,100
100416,note_on,,,,,64,0,13,,,,,5,,,45,88
100416,note_on,,,,,64,0,9,,,,,1,,,76,88
100416,note_on,,,,,64,0,11,,,,,3,,,69,88
100416,note_on,,,,,64,0,15,,,,,7,,,64,100
100416,note_on,,,,,64,0,14,,,,,6,,,33,88
100544,note_off,,,,,128,0,9,,,,,1,,,76,100
100544,note_off,,,,,128,0,15,,,,,7,,,64,100
100544,note_off,,,,,0,0,15,,,,,7,,,67,100
100544,note_off,,,,,128,0,11,,,,,3,,,69,100
100544,note_off,,,,,128,0,16,,,,,7,,,45,100
100544,note_off,,,,,128,0,13,,,,,5,,,45,100
100544,note_off,,,,,128,0,14,,,,,6,,,33,100
100608,note_on,,,,,64,0,9,,,,,1,,,74,87
100608,note_on,,,,,64,0,16,,,,,7,,,50,100
100608,note_on,,,,,64,0,14,,,,,6,,,38,87
100608,note_on,,,,,64,0,11,,,,,3,,,77,87
100608,note_on,,,,,64,0,13,,,,,5,,,50,87
100608,note_on,,,,,64,0,15,,,,,7,,,69,100
100608,note_on,,,,,0,0,15,,,,,7,,,72,100
100736,note_off,,,,,128,0,13,,,,,5,,,50,100
100736,note_off,,,,,896,0,10,,,,,2,,,72,100
100736,note_off,,,,,128,0,16,,,,,7,,,50,100
100736,note_off,,,,,128,0,15,,,,,7,,,69,100
100736,note_off,,,,,896,0,8,,,,,0,,,72,100
100736,note_off,,,,,0,0,15,,,,,7,,,72,100
100736,note_off,,,,,128,0,14,,,,,6,,,38,100
100800,note_on,,,,,448,0,12,,,,,4,,,53,87
100800,note_on,,,,,0,0,12,,,,,4,,,57,87
100800,note_on,,,,,64,0,16,,,,,7,,,50,100
100800,note_on,,,,,64,0,10,,,,,2,,,74,37
100800,note_on,,,,,64,0,8,,,,,0,,,74,87
100800,note_on,,,,,64,0,13,,,,,5,,,50,87
100800,note_on,,,,,64,0,15,,,,,7,,,69,100
100800,note_on,,,,,0,0,15,,,,,7,,,72,100
100800,note_on,,,,,64,0,14,,,,,6,,,38,87
100864,note_off,,,,,64,0,10,,,,,2,,,74,100
100864,note_off,,,,,64,0,8,,,,,0,,,74,100
100864,note_off,,,,,256,0,9,,,,,1,,,74,100
100896,note_on,,,,,32,0,8,,,,,0,,,72,86
100896,note_on,,,,,32,0,10,,,,,2,,,72,36
100928,note_off,,,,,128,0,12,,,,,4,,,53,100
100928,note_off,,,,,0,0,12,,,,,4,,,57,100
100928,note_off,,,,,128,0,15,,,,,7,,,69,100
100928,note_off,,,,,128,0,16,,,,,7,,,50,100
100928,note_off,,,,,0,0,15,,,,,7,,,72,100
100928,note_off,,,,,128,0,13,,,,,5,,,50,100
100928,note_off,,,,,128,0,14,,,,,6,,,38,100
100960,note_off,,,,,64,0,8,,,,,0,,,72,100
100960,note_off,,,,,64,0,10,,,,,2,,,72,100
100992,note_on,,,,,64,0,14,,,,,6,,,38,86
100992,note_on,,,,,32,0,8,,,,,0,,,74,86
100992,note_on,,,,,0,0,15,,,,,7,,,72,100
100992,note_on,,,,,64,0,15,,,,,7,,,69,100
100992,note_on,,,,,0,0,12,,,,,4,,,57,86
100992,note_on,,,,,64,0,12,,,,,4,,,53,86
100992,note_on,,,,,64,0,13,,,,,5,,,50,86
100992,note_on,,,,,64,0,16,,,,,7,,,50,100
100992,note_on,,,,,128,0,9,,,,,1,,,77,86
100992,note_on,,,,,32,0,10,,,,,2,,,74,36
101120,note_off,,,,,128,0,15,,,,,7,,,69,100
101120,note_off,,,,,128,0,16,,,,,7,,,50,100
101120,note_off,,,,,0,0,15,,,,,7,,,72,100
101120,note_off,,,,,128,0,13,,,,,5,,,50,100
101120,note_off,,,,,128,0,10,,,,,2,,,74,100
101120,note_off,,,,,128,0,8,,,,,0,,,74,100
101120,note_off,,,,,128,0,12,,,,,4,,,53,100
101120,note_off,,,,,128,0,14,,,,,6,,,38,100
101120,note_off,,,,,0,0,12,,,,,4,,,57,100
101184,note_on,,,,,64,0,8,,,,,0,,,69,86
101184,note_on,,,,,64,0,12,,,,,4,,,62,86
101184,note_on,,,,,64,0,15,,,,,7,,,69,100
101184,note_on,,,,,0,0,15,,,,,7,,,72,100
101184,note_on,,,,,64,0,10,,,,,2,,,69,36
101184,note_on,,,,,64,0,13,,,,,5,,,50,86
101184,note_on,,,,,64,0,14,,,,,6,,,38,86
101184,note_on,,,,,64,0,16,,,,,7,,,50,100
101312,note_off,,,,,128,0,15,,,,,7,,,69,100
101312,note_off,,,,,0,0,15,,,,,7,,,72,100
101312,note_off,,,,,128,0,16,,,,,7,,,50,100
101312,note_off,,,,,128,0,14,,,,,6,,,38,100
101312,note_off,,,,,128,0,10,,,,,2,,,69,100
101312,note_off,,,,,128,0,12,,,,,4,,,62,100
101312,note_off,,,,,128,0,13,,,,,5,,,50,100
101312,note_off,,,,,128,0,8,,,,,0,,,69,100
101376,note_on,,,,,64,0,10,,,,,2,,,70,35
101376,note_on,,,,,64,0,8,,,,,0,,,70,85
101376,note_on,,,,,64,0,12,,,,,4,,,62,85
101376,note_on,,,,,64,0,13,,,,,5,,,43,85
101376,note_on,,,,,0,0,15,,,,,7,,,65,100
101376,note_on,,,,,64,0,15,,,,,7,,,58,100
101376,note_on,,,,,64,0,14,,,,,6,,,43,85
101376,note_on,,,,,64,0,16,,,,,7,,,43,100
101504,note_off,,,,,128,0,12,,,,,4,,,62,100
101528,note_off,,,,,920,0,11,,,,,3,,,77,100
101528,note_off,,,,,536,0,9,,,,,1,,,77,100
101568,note_on,,,,,64,0,12,,,,,4,,,62,85
101568,note_on,,,,,40,0,11,,,,,3,,,77,35
101568,note_on,,,,,40,0,9,,,,,1,,,77,85
101632,note_off,,,,,0,0,15,,,,,7,,,65,100
101632,note_off,,,,,256,0,16,,,,,7,,,43,100
101632,note_off,,,,,256,0,13,,,,,5,,,43,100
101632,note_off,,,,,256,0,15,,,,,7,,,58,100
101632,note_off,,,,,256,0,14,,,,,6,,,43,100
101696,note_off,,,,,128,0,12,,,,,4,,,62,100
101696,note_off,,,,,128,0,9,,,,,1,,,77,100
101696,note_off,,,,,128,0,11,,,,,3,,,77,100
101760,note_on,,,,,64,0,12,,,,,4,,,60,86
101760,note_on,,,,,64,0,11,,,,,3,,,79,36
101760,note_off,,,,,384,0,8,,,,,0,,,70,100
101760,note_on,,,,,128,0,13,,,,,5,,,52,86
101760,note_on,,,,,128,0,16,,,,,7,,,52,100
101760,note_on,,,,,0,0,15,,,,,7,,,58,100
101760,note_on,,,,,128,0,15,,,,,7,,,60,100
101760,note_on,,,,,64,0,9,,,,,1,,,79,86
101760,note_off,,,,,384,0,10,,,,,2,,,70,100
101760,note_on,,,,,128,0,14,,,,,6,,,40,86
101888,note_off,,,,,128,0,9,,,,,1,,,79,100
101888,note_off,,,,,128,0,11,,,,,3,,,79,100
101888,note_off,,,,,128,0,12,,,,,4,,,60,100
101952,note_on,,,,,192,0,10,,,,,2,,,70,37
101952,note_on,,,,,64,0,9,,,,,1,,,79,87
101952,note_on,,,,,192,0,8,,,,,0,,,70,87
101952,note_on,,,,,64,0,12,,,,,4,,,60,87
101952,note_on,,,,,64,0,11,,,,,3,,,79,37
102016,note_off,,,,,256,0,13,,,,,5,,,52,100
102016,note_off,,,,,256,0,14,,,,,6,,,40,100
102016,note_off,,,,,256,0,15,,,,,7,,,60,100
102016,note_off,,,,,0,0,15,,,,,7,,,58,100
102016,note_off,,,,,256,0,16,,,,,7,,,52,100
102080,note_off,,,,,128,0,11,,,,,3,,,79,100
102080,note_off,,,,,128,0,8,,,,,0,,,70,100
102080,note_off,,,,,128,0,9,,,,,1,,,79,100
102080,note_off,,,,,128,0,10,,,,,2,,,70,100
102080,note_off,,,,,128,0,12,,,,,4,,,60,100
102144,note_on,,,,,128,0,15,,,,,7,,,58,100
102144,note_on,,,,,0,0,15,,,,,7,,,60,100
102144,note_on,,,,,64,0,10,,,,,2,,,70,37
102144,note_on,,,,,64,0,12,,,,,4,,,65,87
102144,note_on,,,,,128,0,16,,,,,7,,,53,100
102144,note_on,,,,,64,0,11,,,,,3,,,72,37
102144,note_on,,,,,64,0,8,,,,,0,,,70,87
102144,note_on,,,,,128,0,13,,,,,5,,,53,87
102144,note_on,,,,,128,0,14,,,,,6,,,41,87
102144,note_on,,,,,64,0,9,,,,,1,,,72,87
102272,note_off,,,,,128,0,8,,,,,0,,,70,100
102272,note_off,,,,,128,0,15,,,,,7,,,58,100
102272,note_off,,,,,128,0,10,,,,,2,,,70,100
102336,note_on,,,,,64,0,8,,,,,0,,,69,88
102336,note_on,,,,,64,0,10,,,,,2,,,69,38
102336,note_on,,,,,64,0,15,,,,,7,,,57,100
102400,note_off,,,,,256,0,13,,,,,5,,,53,100
102400,note_off,,,,,256,0,16,,,,,7,,,53,100
102400,note_off,,,,,256,0,14,,,,,6,,,41,100
102400,note_off,,,,,256,0,11,,,,,3,,,72,100
102400,note_off,,,,,256,0,9,,,,,1,,,72,100
102400,note_off,,,,,64,0,15,,,,,7,,,60,100
102464,note_off,,,,,128,0,8,,,,,0,,,69,100
102464,note_off,,,,,128,0,10,,,,,2,,,69,100
102464,note_off,,,,,64,0,15,,,,,7,,,57,100
102528,note_on,,,,,64,0,10,,,,,2,,,72,39
102528,note_off,,,,,384,0,12,,,,,4,,,65,100
102528,note_on,,,,,128,0,13,,,,,5,,,45,89
102528,note_on,,,,,64,0,15,,,,,7,,,65,100
102528,note_on,,,,,128,0,9,,,,,1,,,77,89
102528,note_on,,,,,64,0,8,,,,,0,,,72,89
102528,note_on,,,,,128,0,11,,,,,3,,,77,39
102528,note_on,,,,,128,0,16,,,,,7,,,45,100
102528,note_on,,,,,128,0,14,,,,,6,,,33,89
102528,note_on,,,,,0,0,15,,,,,7,,,60,100
102656,note_off,,,,,128,0,11,,,,,3,,,77,100
102656,note_off,,,,,128,0,10,,,,,2,,,72,100
102656,note_off,,,,,128,0,9,,,,,1,,,77,100
102656,note_off,,,,,128,0,8,,,,,0,,,72,100
102720,note_on,,,,,192,0,12,,,,,4,,,65,90
102720,note_on,,,,,64,0,8,,,,,0,,,77,90
102720,note_on,,,,,64,0,9,,,,,1,,,72,90
102720,note_on,,,,,64,0,11,,,,,3,,,72,40
102720,note_on,,,,,64,0,10,,,,,2,,,77,40
102784,note_off,,,,,256,0,13,,,,,5,,,45,100
102784,note_off,,,,,64,0,8,,,,,0,,,77,100
102784,note_off,,,,,256,0,14,,,,,6,,,33,100
102784,note_off,,,,,64,0,10,,,,,2,,,77,100
102784,note_off,,,,,256,0,16,,,,,7,,,45,100
102784,note_off,,,,,256,0,15,,,,,7,,,65,100
102784,note_off,,,,,0,0,15,,,,,7,,,60,100
102816,note_on,,,,,32,0,8,,,,,0,,,76,90
102816,note_on,,,,,32,0,10,,,,,2,,,76,40
102848,note_off,,,,,128,0,11,,,,,3,,,72,100
102848,note_off,,,,,128,0,9,,,,,1,,,72,100
102848,note_off,,,,,128,0,12,,,,,4,,,65,100
102880,note_off,,,,,64,0,10,,,,,2,,,76,100
102880,note_off,,,,,64,0,8,,,,,0,,,76,100
102912,note_on,,,,,128,0,16,,,,,7,,,46,100
102912,note_on,,,,,128,0,13,,,,,5,,,46,90
102912,note_on,,,,,128,0,14,,,,,6,,,34,90
102912,note_on,,,,,64,0,9,,,,,1,,,65,90
102912,note_on,,,,,32,0,10,,,,,2,,,74,40
102912,note_on,,,,,32,0,8,,,,,0,,,74,90
102912,note_on,,,,,0,0,15,,,,,7,,,62,100
102912,note_on,,,,,128,0,15,,,,,7,,,65,100
102912,note_on,,,,,64,0,12,,,,,4,,,65,90
102912,note_on,,,,,64,0,11,,,,,3,,,65,40
103040,note_off,,,,,128,0,9,,,,,1,,,65,100
103040,note_off,,,,,128,0,11,,,,,3,,,65,100
103040,note_off,,,,,128,0,10,,,,,2,,,74,100
103040,note_off,,,,,128,0,8,,,,,0,,,74,100
103104,note_on,,,,,64,0,9,,,,,1,,,74,91
103104,note_on,,,,,64,0,11,,,,,3,,,74,41
103104,note_on,,,,,64,0,10,,,,,2,,,77,41
103104,note_on,,,,,64,0,8,,,,,0,,,77,91
103168,note_off,,,,,256,0,13,,,,,5,,,46,100
103168,note_off,,,,,256,0,16,,,,,7,,,46,100
103168,note_off,,,,,256,0,14,,,,,6,,,34,100
103168,note_off,,,,,256,0,15,,,,,7,,,65,100
103168,note_off,,,,,0,0,15,,,,,7,,,62,100
103232,note_off,,,,,128,0,8,,,,,0,,,77,100
103232,note_off,,,,,128,0,10,,,,,2,,,77,100
103232,note_off,,,,,128,0,11,,,,,3,,,74,100
103232,note_off,,,,,128,0,9,,,,,1,,,74,100
103296,note_on,,,,,128,0,15,,,,,7,,,65,100
103296,note_on,,,,,0,0,15,,,,,7,,,62,100
103296,note_on,,,,,128,0,14,,,,,6,,,43,92
103296,note_off,,,,,384,0,12,,,,,4,,,65,100
103296,note_on,,,,,128,0,16,,,,,7,,,43,100
103296,note_on,,,,,64,0,9,,,,,1,,,79,92
103296,note_on,,,,,128,0,13,,,,,5,,,43,92
103296,note_on,,,,,64,0,11,,,,,3,,,79,42
103296,note_on,,,,,64,0,8,,,,,0,,,82,92
103296,note_on,,,,,64,0,10,,,,,2,,,82,42
103424,note_off,,,,,128,0,8,,,,,0,,,82,100
103424,note_off,,,,,128,0,11,,,,,3,,,79,100
103424,note_off,,,,,128,0,9,,,,,1,,,79,100
103424,note_off,,,,,128,0,10,,,,,2,,,82,100
103488,note_on,,,,,64,0,9,,,,,1,,,77,93
103488,note_on,,,,,64,0,11,,,,,3,,,77,43
103488,note_on,,,,,64,0,8,,,,,0,,,81,93
103488,note_on,,,,,64,0,10,,,,,2,,,81,43
103488,note_on,,,,,192,0,12,,,,,4,,,65,93
103552,note_off,,,,,256,0,15,,,,,7,,,65,100
103552,note_off,,,,,256,0,14,,,,,6,,,43,100
103552,note_off,,,,,64,0,10,,,,,2,,,81,100
103552,note_off,,,,,0,0,15,,,,,7,,,62,100
103552,note_off,,,,,256,0,16,,,,,7,,,43,100
103552,note_off,,,,,64,0,8,,,,,0,,,81,100
103552,note_off,,,,,256,0,13,,,,,5,,,43,100
103552,note_off,,,,,64,0,9,,,,,1,,,77,100
103552,note_off,,,,,64,0,11,,,,,3,,,77,100
103584,note_on,,,,,32,0,10,,,,,2,,,82,43
103584,note_on,,,,,32,0,11,,,,,3,,,79,43
103584,note_on,,,,,32,0,9,,,,,1,,,79,93
103584,note_on,,,,,32,0,8,,,,,0,,,82,93
103616,note_off,,,,,128,0,12,,,,,4,,,65,100
103648,note_off,,,,,64,0,11,,,,,3,,,79,100
103648,note_off,,,,,64,0,9,,,,,1,,,79,100
103648,note_off,,,,,64,0,8,,,,,0,,,82,100
103648,note_off,,,,,64,0,10,,,,,2,,,82,100
103680,note_on,,,,,32,0,9,,,,,1,,,76,93
103680,note_on,,,,,128,0,13,,,,,5,,,48,93
103680,note_on,,,,,32,0,10,,,,,2,,,79,43
103680,note_on,,,,,0,0,15,,,,,7,,,67,100
103680,note_on,,,,,32,0,11,,,,,3,,,76,43
103680,note_on,,,,,128,0,15,,,,,7,,,64,100
103680,note_on,,,,,64,0,12,,,,,4,,,67,93
103680,note_on,,,,,128,0,16,,,,,7,,,48,100
103680,note_on,,,,,32,0,8,,,,,0,,,79,93
103680,note_on,,,,,128,0,14,,,,,6,,,36,93
103808,note_off,,,,,128,0,10,,,,,2,,,79,100
103808,note_off,,,,,128,0,8,,,,,0,,,79,100
103872,note_on,,,,,64,0,10,,,,,2,,,72,44
103872,note_on,,,,,64,0,8,,,,,0,,,72,94
103936,note_off,,,,,256,0,9,,,,,1,,,76,100
103936,note_off,,,,,256,0,13,,,,,5,,,48,100
103936,note_off,,,,,0,0,15,,,,,7,,,67,100
103936,note_off,,,,,256,0,14,,,,,6,,,36,100
103936,note_off,,,,,256,0,11,,,,,3,,,76,100
103936,note_off,,,,,256,0,12,,,,,4,,,67,100
103936,note_off,,,,,256,0,16,,,,,7,,,48,100
103936,note_off,,,,,256,0,15,,,,,7,,,64,100
104000,note_off,,,,,128,0,8,,,,,0,,,72,100
104000,note_off,,,,,128,0,10,,,,,2,,,72,100
104064,note_on,,,,,128,0,11,,,,,3,,,77,45
104064,note_on,,,,,64,0,10,,,,,2,,,81,45
104064,note_on,,,,,128,0,14,,,,,6,,,33,95
104064,note_on,,,,,64,0,8,,,,,0,,,81,95
104064,note_on,,,,,128,0,13,,,,,5,,,45,95
104064,note_on,,,,,128,0,15,,,,,7,,,65,100
104064,note_on,,,,,0,0,15,,,,,7,,,60,100
104064,note_on,,,,,128,0,12,,,,,4,,,60,95
104064,note_on,,,,,128,0,9,,,,,1,,,77,95
104064,note_on,,,,,128,0,16,,,,,7,,,45,100
104320,note_off,,,,,256,0,10,,,,,2,,,81,100
104320,note_off,,,,,256,0,14,,,,,6,,,33,100
104320,note_off,,,,,256,0,16,,,,,7,,,45,100
104320,note_off,,,,,256,0,13,,,,,5,,,45,100
104320,note_off,,,,,256,0,8,,,,,0,,,81,100
104320,note_off,,,,,256,0,15,,,,,7,,,65,100
104320,note_off,,,,,0,0,15,,,,,7,,,60,100
104320,note_off,,,,,256,0,12,,,,,4,,,60,100
104448,note_on,,,,,0,0,15,,,,,7,,,65,100
104448,note_on,,,,,128,0,13,,,,,5,,,46,96
104448,note_on,,,,,128,0,8,,,,,0,,,79,96
104448,note_on,,,,,128,0,10,,,,,2,,,79,46
104448,note_on,,,,,128,0,14,,,,,6,,,34,96
104448,note_on,,,,,128,0,15,,,,,7,,,67,100
104448,note_on,,,,,128,0,16,,,,,7,,,46,100
104448,note_on,,,,,128,0,12,,,,,4,,,62,96
104704,note_off,,,,,0,0,15,,,,,7,,,65,100
104704,note_off,,,,,256,0,15,,,,,7,,,67,100
104704,note_off,,,,,256,0,14,,,,,6,,,34,100
104704,note_off,,,,,640,0,9,,,,,1,,,77,64
104704,note_off,,,,,640,0,11,,,,,3,,,77,64
104704,note_off,,,,,256,0,13,,,,,5,,,46,100
104704,note_off,,,,,256,0,12,,,,,4,,,62,100
104704,note_off,,,,,256,0,16,,,,,7,,,46,100
104832,note_on,,,,,0,0,15,,,,,7,,,67,100
104832,note_on,,,,,128,0,15,,,,,7,,,64,100
104832,note_on,,,,,128,0,9,,,,,1,,,76,98
104832,note_on,,,,,128,0,13,,,,,5,,,48,98
104832,note_on,,,,,128,0,12,,,,,4,,,60,98
104832,note_on,,,,,128,0,11,,,,,3,,,76,48
104832,note_on,,,,,128,0,14,,,,,6,,,36,98
104832,note_on,,,,,128,0,16,,,,,7,,,48,100
104960,note_off,,,,,512,0,10,,,,,2,,,79,100
104960,note_off,,,,,512,0,8,,,,,0,,,79,100
105088,note_off,,,,,256,0,16,,,,,7,,,48,100
105088,note_off,,,,,256,0,13,,,,,5,,,48,100
105088,note_off,,,,,256,0,11,,,,,3,,,76,100
105088,note_off,,,,,0,0,15,,,,,7,,,67,100
105088,note_off,,,,,256,0,15,,,,,7,,,64,100
105088,note_off,,,,,256,0,12,,,,,4,,,60,100
105088,note_off,,,,,256,0,14,,,,,6,,,36,100
105088,note_off,,,,,256,0,9,,,,,1,,,76,100
105216,note_on,,,,,128,0,9,,,,,1,,,77,99
105216,note_on,,,,,256,0,10,,,,,2,,,81,49
105216,note_on,,,,,128,0,14,,,,,6,,,41,99
105216,note_on,,,,,256,0,8,,,,,0,,,81,99
105216,note_on,,,,,128,0,15,,,,,7,,,60,100
105216,note_on,,,,,0,0,15,,,,,7,,,65,100
105216,note_on,,,,,0,0,15,,,,,7,,,69,100
105216,note_on,,,,,128,0,16,,,,,7,,,41,100
105216,note_on,,,,,128,0,13,,,,,5,,,41,99
105216,note_on,,,,,128,0,11,,,,,3,,,77,49
105216,note_on,,,,,128,0,12,,,,,4,,,60,99
105472,note_off,,,,,256,0,16,,,,,7,,,41,100
105472,note_off,,,,,0,0,15,,,,,7,,,69,100
105472,note_off,,,,,256,0,10,,,,,2,,,81,100
105472,note_off,,,,,256,0,8,,,,,0,,,81,100
105472,note_off,,,,,256,0,14,,,,,6,,,41,100
105472,note_off,,,,,0,0,15,,,,,7,,,65,100
105472,note_off,,,,,256,0,15,,,,,7,,,60,100
105472,note_off,,,,,256,0,11,,,,,3,,,77,100
105472,note_off,,,,,256,0,9,,,,,1,,,77,100
105472,note_off,,,,,256,0,12,,,,,4,,,60,100
105472,note_off,,,,,256,0,13,,,,,5,,,41,100
105600,program_change,,,,,128,0,10,,,,,2,40,,,
105600,program_change,,,,,128,0,11,,,,,3,40,,,
105792,note_on,,,,,192,0,10,,,,,2,,,81,85
105792,note_on,,,,,192,0,11,,,,,3,,,77,85
105856,note_off,,,,,64,0,11,,,,,3,,,77,100
105856,note_off,,,,,64,0,10,,,,,2,,,81,100
105888,note_on,,,,,32,0,11,,,,,3,,,79,85
105888,note_on,,,,,32,0,10,,,,,2,,,82,85
105952,note_off,,,,,64,0,11,,,,,3,,,79,100
105952,note_off,,,,,64,0,10,,,,,2,,,82,100
105984,note_on,,,,,32,0,10,,,,,2,,,84,85
105984,note_on,,,,,32,0,11,,,,,3,,,81,85
106076,note_off,,,,,92,0,11,,,,,3,,,81,100
106076,note_off,,,,,92,0,10,,,,,2,,,84,100
106080,note_on,,,,,4,0,10,,,,,2,,,82,85
106080,note_on,,,,,4,0,11,,,,,3,,,79,85
106172,note_off,,,,,92,0,10,,,,,2,,,82,100
106172,note_off,,,,,92,0,11,,,,,3,,,79,100
106176,note_on,,,,,4,0,11,,,,,3,,,77,85
106176,note_on,,,,,4,0,10,,,,,2,,,81,85
106240,note_off,,,,,64,0,11,,,,,3,,,77,100
106240,note_off,,,,,64,0,10,,,,,2,,,81,100
106272,note_on,,,,,32,0,11,,,,,3,,,81,85
106272,note_on,,,,,32,0,10,,,,,2,,,84,85
106336,note_off,,,,,64,0,10,,,,,2,,,84,100
106336,note_off,,,,,64,0,11,,,,,3,,,81,100
106368,note_on,,,,,32,0,11,,,,,3,,,82,85
106368,note_on,,,,,32,0,10,,,,,2,,,86,85
106460,note_off,,,,,92,0,11,,,,,3,,,82,100
106460,note_off,,,,,92,0,10,,,,,2,,,86,100
106464,note_on,,,,,4,0,10,,,,,2,,,84,85
106464,note_on,,,,,4,0,11,,,,,3,,,81,85
106556,note_off,,,,,92,0,11,,,,,3,,,81,100
106556,note_off,,,,,92,0,10,,,,,2,,,84,100
106560,note_on,,,,,4,0,10,,,,,2,,,82,85
106560,note_on,,,,,4,0,11,,,,,3,,,79,85
106624,note_off,,,,,64,0,11,,,,,3,,,79,100
106624,note_off,,,,,64,0,10,,,,,2,,,82,100
106656,note_on,,,,,32,0,10,,,,,2,,,86,85
106656,note_on,,,,,32,0,11,,,,,3,,,82,85
106720,note_off,,,,,64,0,11,,,,,3,,,82,100
106720,note_off,,,,,64,0,10,,,,,2,,,86,100
106752,note_on,,,,,32,0,11,,,,,3,,,81,85
106752,note_on,,,,,32,0,10,,,,,2,,,84,85
106844,note_off,,,,,92,0,11,,,,,3,,,81,100
106844,note_off,,,,,92,0,10,,,,,2,,,84,100
106848,note_on,,,,,4,0,10,,,,,2,,,82,85
106848,note_on,,,,,4,0,11,,,,,3,,,79,85
106940,note_off,,,,,92,0,11,,,,,3,,,79,100
106940,note_off,,,,,92,0,10,,,,,2,,,82,100
106944,note_on,,,,,4,0,11,,,,,3,,,77,85
106944,note_on,,,,,4,0,10,,,,,2,,,81,85
107008,note_off,,,,,64,0,11,,,,,3,,,77,100
107008,note_off,,,,,64,0,10,,,,,2,,,81,100
107040,note_on,,,,,32,0,10,,,,,2,,,84,85
107040,note_on,,,,,32,0,11,,,,,3,,,81,85
107104,note_off,,,,,64,0,11,,,,,3,,,81,100
107104,note_off,,,,,64,0,10,,,,,2,,,84,100
107136,note_on,,,,,32,0,10,,,,,2,,,86,85
107136,note_on,,,,,32,0,11,,,,,3,,,82,85
107228,note_off,,,,,92,0,10,,,,,2,,,86,100
107228,note_off,,,,,92,0,11,,,,,3,,,82,100
107232,note_on,,,,,4,0,10,,,,,2,,,84,85
107232,note_on,,,,,4,0,11,,,,,3,,,81,85
107324,note_off,,,,,92,0,10,,,,,2,,,84,100
107324,note_off,,,,,92,0,11,,,,,3,,,81,100
107328,note_on,,,,,4,0,11,,,,,3,,,79,85
107328,note_on,,,,,4,0,10,,,,,2,,,82,85
107392,note_off,,,,,64,0,11,,,,,3,,,79,100
107392,note_off,,,,,64,0,10,,,,,2,,,82,100
107424,note_on,,,,,32,0,11,,,,,3,,,82,85
107424,note_on,,,,,32,0,10,,,,,2,,,86,85
107488,note_off,,,,,64,0,11,,,,,3,,,82,100
107488,note_off,,,,,64,0,10,,,,,2,,,86,100
107520,note_on,,,,,32,0,10,,,,,2,,,84,85
107520,note_on,,,,,32,0,11,,,,,3,,,81,85
107612,note_off,,,,,92,0,10,,,,,2,,,84,100
107612,note_off,,,,,92,0,11,,,,,3,,,81,100
107616,note_on,,,,,4,0,11,,,,,3,,,79,85
107616,note_on,,,,,4,0,10,,,,,2,,,82,85
107708,note_off,,,,,92,0,11,,,,,3,,,79,100
107708,note_off,,,,,92,0,10,,,,,2,,,82,100
107712,note_on,,,,,4,0,11,,,,,3,,,77,85
107712,note_on,,,,,4,0,10,,,,,2,,,81,85
107776,note_off,,,,,64,0,11,,,,,3,,,77,100
107776,note_off,,,,,64,0,10,,,,,2,,,81,100
107808,note_on,,,,,32,0,11,,,,,3,,,81,85
107808,note_on,,,,,32,0,10,,,,,2,,,84,85
107872,note_off,,,,,64,0,10,,,,,2,,,84,100
107872,note_off,,,,,64,0,11,,,,,3,,,81,100
107904,note_on,,,,,32,0,10,,,,,2,,,86,85
107904,note_on,,,,,32,0,11,,,,,3,,,82,85
107996,note_off,,,,,92,0,11,,,,,3,,,82,100
107996,note_off,,,,,92,0,10,,,,,2,,,86,100
108000,note_on,,,,,4,0,11,,,,,3,,,81,85
108000,note_on,,,,,4,0,10,,,,,2,,,84,85
108092,note_off,,,,,92,0,11,,,,,3,,,81,100
108092,note_off,,,,,92,0,10,,,,,2,,,84,100
108096,note_on,,,,,4,0,10,,,,,2,,,82,85
108096,note_on,,,,,4,0,11,,,,,3,,,79,85
108160,note_off,,,,,64,0,11,,,,,3,,,79,100
108160,note_off,,,,,64,0,10,,,,,2,,,82,100
108192,note_on,,,,,32,0,11,,,,,3,,,82,85
108192,note_on,,,,,32,0,10,,,,,2,,,86,85
108256,note_off,,,,,64,0,11,,,,,3,,,82,100
108256,note_off,,,,,64,0,10,,,,,2,,,86,100
108288,note_on,,,,,32,0,11,,,,,3,,,81,85
108288,note_on,,,,,0,0,15,,,,,7,,,64,100
108288,note_on,,,,,2816,0,16,,,,,7,,,48,100
108288,note_on,,,,,2816,0,13,,,,,5,,,48,60
108288,note_on,,,,,32,0,10,,,,,2,,,84,85
108288,note_on,,,,,2816,0,15,,,,,7,,,67,100
108288,note_on,,,,,2816,0,14,,,,,6,,,36,60
108416,note_off,,,,,128,0,11,,,,,3,,,81,100
108416,note_off,,,,,128,0,13,,,,,5,,,48,100
108416,note_off,,,,,128,0,14,,,,,6,,,36,100
108416,note_off,,,,,128,0,10,,,,,2,,,84,100
108416,note_off,,,,,128,0,16,,,,,7,,,48,100
108416,note_off,,,,,0,0,15,,,,,7,,,64,100
108416,note_off,,,,,128,0,15,,,,,7,,,67,100
108480,note_on,,,,,64,0,13,,,,,5,,,50,60
108480,note_on,,,,,64,0,14,,,,,6,,,38,60
108480,note_on,,,,,64,0,10,,,,,2,,,81,85
108480,note_on,,,,,64,0,11,,,,,3,,,77,85
108480,note_on,,,,,64,0,16,,,,,7,,,50,100
108480,note_on,,,,,0,0,15,,,,,7,,,65,100
108480,note_on,,,,,64,0,15,,,,,7,,,69,100
108608,note_off,,,,,128,0,10,,,,,2,,,81,100
108608,note_off,,,,,128,0,11,,,,,3,,,77,100
108608,note_off,,,,,128,0,15,,,,,7,,,69,100
108608,note_off,,,,,128,0,13,,,,,5,,,50,100
108608,note_off,,,,,0,0,15,,,,,7,,,65,100
108608,note_off,,,,,128,0,14,,,,,6,,,38,100
108608,note_off,,,,,128,0,16,,,,,7,,,50,100
108672,note_on,,,,,0,0,15,,,,,7,,,64,100
108672,note_on,,,,,64,0,16,,,,,7,,,48,100
108672,note_on,,,,,64,0,13,,,,,5,,,48,60
108672,note_on,,,,,64,0,14,,,,,6,,,36,60
108672,note_on,,,,,64,0,15,,,,,7,,,67,100
108672,program_change,,,,,64,0,10,,,,,2,48,,,
108672,program_change,,,,,3200,0,9,,,,,1,40,,,
108672,program_change,,,,,64,0,11,,,,,3,48,,,
108768,note_on,,,,,96,0,9,,,,,1,,,72,85
108800,note_off,,,,,128,0,14,,,,,6,,,36,100
108800,note_off,,,,,128,0,13,,,,,5,,,48,100
108800,note_off,,,,,128,0,16,,,,,7,,,48,100
108800,note_off,,,,,128,0,15,,,,,7,,,67,100
108800,note_off,,,,,0,0,15,,,,,7,,,64,100
108832,note_off,,,,,64,0,9,,,,,1,,,72,100
108864,note_on,,,,,64,0,15,,,,,7,,,65,100
108864,note_on,,,,,0,0,15,,,,,7,,,62,100
108864,note_on,,,,,64,0,16,,,,,7,,,46,100
108864,note_on,,,,,64,0,14,,,,,6,,,34,60
108864,note_on,,,,,32,0,9,,,,,1,,,74,85
108864,note_on,,,,,64,0,13,,,,,5,,,46,60
108928,note_off,,,,,64,0,9,,,,,1,,,74,100
108960,note_on,,,,,32,0,9,,,,,1,,,76,85
108992,note_off,,,,,128,0,13,,,,,5,,,46,100
108992,note_off,,,,,0,0,15,,,,,7,,,62,100
108992,note_off,,,,,128,0,14,,,,,6,,,34,100
108992,note_off,,,,,128,0,15,,,,,7,,,65,100
108992,note_off,,,,,128,0,16,,,,,7,,,46,100
109024,note_off,,,,,64,0,9,,,,,1,,,76,100
109056,note_on,,,,,32,0,9,,,,,1,,,77,85
109056,note_on,,,,,64,0,13,,,,,5,,,45,60
109056,note_on,,,,,3584,0,8,,,,,0,,,72,60
109056,note_on,,,,,64,0,14,,,,,6,,,33,60
109056,note_on,,,,,3584,0,12,,,,,4,,,65,60
109056,note_on,,,,,384,0,11,,,,,3,,,72,10
109056,note_on,,,,,384,0,10,,,,,2,,,72,60
109056,note_on,,,,,0,0,15,,,,,7,,,60,100
109056,note_on,,,,,64,0,15,,,,,7,,,65,100
109056,note_on,,,,,64,0,16,,,,,7,,,45,100
109148,note_off,,,,,92,0,9,,,,,1,,,77,100
109152,note_on,,,,,4,0,9,,,,,1,,,76,85
109216,note_off,,,,,64,0,9,,,,,1,,,76,100
109248,note_on,,,,,32,0,9,,,,,1,,,77,85
109312,note_off,,,,,256,0,11,,,,,3,,,72,100
109312,note_off,,,,,256,0,14,,,,,6,,,33,100
109312,note_off,,,,,256,0,10,,,,,2,,,72,100
109312,note_off,,,,,256,0,13,,,,,5,,,45,100
109312,note_off,,,,,256,0,12,,,,,4,,,65,100
109312,note_off,,,,,256,0,15,,,,,7,,,65,100
109312,note_off,,,,,256,0,16,,,,,7,,,45,100
109312,note_off,,,,,256,0,8,,,,,0,,,72,100
109312,note_off,,,,,0,0,15,,,,,7,,,60,100
109340,note_off,,,,,92,0,9,,,,,1,,,77,100
109344,note_on,,,,,4,0,9,,,,,1,,,76,85
109408,note_off,,,,,64,0,9,,,,,1,,,76,100
109440,note_on,,,,,32,0,9,,,,,1,,,77,85
109532,note_off,,,,,92,0,9,,,,,1,,,77,100
109536,note_on,,,,,4,0,9,,,,,1,,,76,85
109600,note_off,,,,,64,0,9,,,,,1,,,76,100
109632,note_on,,,,,320,0,8,,,,,0,,,72,60
109632,note_on,,,,,320,0,10,,,,,2,,,72,60
109632,note_on,,,,,320,0,15,,,,,7,,,65,100
109632,note_on,,,,,0,0,15,,,,,7,,,60,100
109632,note_on,,,,,320,0,12,,,,,4,,,65,60
109632,note_on,,,,,320,0,13,,,,,5,,,45,60
109632,note_on,,,,,320,0,16,,,,,7,,,45,100
109632,note_on,,,,,320,0,14,,,,,6,,,33,60
109632,note_on,,,,,32,0,9,,,,,1,,,77,85
109632,note_on,,,,,320,0,11,,,,,3,,,72,10
109724,note_off,,,,,92,0,9,,,,,1,,,77,100
109728,note_on,,,,,4,0,9,,,,,1,,,76,85
109760,note_off,,,,,0,0,15,,,,,7,,,60,100
109760,note_off,,,,,128,0,15,,,,,7,,,65,100
109760,note_off,,,,,128,0,10,,,,,2,,,72,100
109760,note_off,,,,,128,0,8,,,,,0,,,72,100
109760,note_off,,,,,128,0,14,,,,,6,,,33,100
109760,note_off,,,,,128,0,11,,,,,3,,,72,100
109760,note_off,,,,,128,0,16,,,,,7,,,45,100
109760,note_off,,,,,128,0,13,,,,,5,,,45,100
109760,note_off,,,,,128,0,12,,,,,4,,,65,100
109792,note_off,,,,,64,0,9,,,,,1,,,76,100
109824,note_on,,,,,64,0,15,,,,,7,,,62,100
109824,note_on,,,,,0,0,15,,,,,7,,,65,100
109824,note_on,,,,,64,0,14,,,,,6,,,34,60
109824,note_on,,,,,64,0,11,,,,,3,,,70,10
109824,note_on,,,,,64,0,10,,,,,2,,,70,60
109824,note_on,,,,,64,0,13,,,,,5,,,46,60
109824,note_on,,,,,64,0,16,,,,,7,,,46,100
109824,note_on,,,,,32,0,9,,,,,1,,,74,85
109824,note_on,,,,,64,0,8,,,,,0,,,74,60
109824,note_on,,,,,64,0,12,,,,,4,,,65,60
109888,note_off,,,,,64,0,9,,,,,1,,,74,100
109920,note_on,,,,,32,0,9,,,,,1,,,72,85
109984,note_off,,,,,64,0,9,,,,,1,,,72,100
110016,note_on,,,,,32,0,9,,,,,1,,,74,85
110080,note_off,,,,,0,0,15,,,,,7,,,65,100
110080,note_off,,,,,256,0,15,,,,,7,,,62,100
110080,note_off,,,,,256,0,8,,,,,0,,,74,100
110080,note_off,,,,,256,0,12,,,,,4,,,65,100
110080,note_off,,,,,256,0,11,,,,,3,,,70,100
110080,note_off,,,,,256,0,14,,,,,6,,,34,100
110080,note_off,,,,,256,0,10,,,,,2,,,70,100
110080,note_off,,,,,256,0,13,,,,,5,,,46,100
110080,note_off,,,,,256,0,16,,,,,7,,,46,100
110080,note_off,,,,,64,0,9,,,,,1,,,74,100
110112,note_on,,,,,32,0,9,,,,,1,,,72,85
110176,note_off,,,,,64,0,9,,,,,1,,,72,100
110208,note_on,,,,,32,0,9,,,,,1,,,70,85
110272,note_off,,,,,64,0,9,,,,,1,,,70,100
110304,note_on,,,,,32,0,9,,,,,1,,,74,85
110368,note_off,,,,,64,0,9,,,,,1,,,74,100
110400,note_on,,,,,32,0,9,,,,,1,,,76,85
110464,note_off,,,,,64,0,9,,,,,1,,,76,100
110496,note_on,,,,,32,0,9,,,,,1,,,77,85
110560,note_off,,,,,64,0,9,,,,,1,,,77,100
110592,note_on,,,,,32,0,9,,,,,1,,,79,85
110592,note_on,,,,,512,0,10,,,,,2,,,74,60
110592,note_on,,,,,512,0,14,,,,,6,,,35,60
110592,note_on,,,,,512,0,12,,,,,4,,,67,60
110592,note_on,,,,,0,0,15,,,,,7,,,62,100
110592,note_on,,,,,512,0,15,,,,,7,,,67,100
110592,note_on,,,,,512,0,8,,,,,0,,,74,60
110592,note_on,,,,,512,0,11,,,,,3,,,74,10
110592,note_on,,,,,512,0,13,,,,,5,,,47,60
110592,note_on,,,,,512,0,16,,,,,7,,,47,100
110684,note_off,,,,,92,0,9,,,,,1,,,79,100
110688,note_on,,,,,4,0,9,,,,,1,,,77,85
110752,note_off,,,,,64,0,9,,,,,1,,,77,100
110784,note_on,,,,,32,0,9,,,,,1,,,79,85
110848,note_off,,,,,256,0,13,,,,,5,,,47,100
110848,note_off,,,,,256,0,15,,,,,7,,,67,100
110848,note_off,,,,,0,0,15,,,,,7,,,62,100
110848,note_off,,,,,256,0,16,,,,,7,,,47,100
110848,note_off,,,,,256,0,12,,,,,4,,,67,100
110848,note_off,,,,,256,0,8,,,,,0,,,74,100
110848,note_off,,,,,256,0,11,,,,,3,,,74,100
110848,note_off,,,,,256,0,14,,,,,6,,,35,100
110848,note_off,,,,,256,0,10,,,,,2,,,74,100
110876,note_off,,,,,92,0,9,,,,,1,,,79,100
110880,note_on,,,,,4,0,9,,,,,1,,,77,85
110944,note_off,,,,,64,0,9,,,,,1,,,77,100
110976,note_on,,,,,32,0,9,,,,,1,,,79,85
111068,note_off,,,,,92,0,9,,,,,1,,,79,100
111072,note_on,,,,,4,0,9,,,,,1,,,77,85
111136,note_off,,,,,64,0,9,,,,,1,,,77,100
111168,note_on,,,,,320,0,12,,,,,4,,,67,60
111168,note_on,,,,,320,0,10,,,,,2,,,74,60
111168,note_on,,,,,320,0,8,,,,,0,,,74,60
111168,note_on,,,,,320,0,16,,,,,7,,,47,100
111168,note_on,,,,,320,0,13,,,,,5,,,47,60
111168,note_on,,,,,320,0,11,,,,,3,,,74,10
111168,note_on,,,,,320,0,15,,,,,7,,,67,100
111168,note_on,,,,,32,0,9,,,,,1,,,79,85
111168,note_on,,,,,320,0,14,,,,,6,,,35,60
111168,note_on,,,,,0,0,15,,,,,7,,,62,100
111260,note_off,,,,,92,0,9,,,,,1,,,79,100
111264,note_on,,,,,4,0,9,,,,,1,,,77,85
111296,note_off,,,,,128,0,13,,,,,5,,,47,100
111296,note_off,,,,,128,0,8,,,,,0,,,74,100
111296,note_off,,,,,128,0,10,,,,,2,,,74,100
111296,note_off,,,,,128,0,11,,,,,3,,,74,100
111296,note_off,,,,,128,0,14,,,,,6,,,35,100
111296,note_off,,,,,128,0,12,,,,,4,,,67,100
111296,note_off,,,,,128,0,16,,,,,7,,,47,100
111296,note_off,,,,,0,0,15,,,,,7,,,62,100
111296,note_off,,,,,128,0,15,,,,,7,,,67,100
111328,note_off,,,,,64,0,9,,,,,1,,,77,100
111360,note_on,,,,,64,0,8,,,,,0,,,76,60
111360,note_on,,,,,64,0,13,,,,,5,,,48,60
111360,note_on,,,,,64,0,11,,,,,3,,,72,10
111360,note_on,,,,,64,0,15,,,,,7,,,64,100
111360,note_on,,,,,64,0,14,,,,,6,,,36,60
111360,note_on,,,,,0,0,15,,,,,7,,,67,100
111360,note_on,,,,,64,0,10,,,,,2,,,72,60
111360,note_on,,,,,32,0,9,,,,,1,,,76,85
111360,note_on,,,,,64,0,12,,,,,4,,,67,60
111360,note_on,,,,,64,0,16,,,,,7,,,48,100
111424,note_off,,,,,64,0,9,,,,,1,,,76,100
111456,note_on,,,,,32,0,9,,,,,1,,,74,85
111520,note_off,,,,,64,0,9,,,,,1,,,74,100
111552,note_on,,,,,32,0,9,,,,,1,,,76,85
111616,note_off,,,,,256,0,13,,,,,5,,,48,100
111616,note_off,,,,,64,0,9,,,,,1,,,76,100
111616,note_off,,,,,256,0,11,,,,,3,,,72,100
111616,note_off,,,,,256,0,16,,,,,7,,,48,100
111616,note_off,,,,,0,0,15,,,,,7,,,67,100
111616,note_off,,,,,256,0,14,,,,,6,,,36,100
111616,note_off,,,,,256,0,12,,,,,4,,,67,100
111616,note_off,,,,,256,0,10,,,,,2,,,72,100
111616,note_off,,,,,256,0,8,,,,,0,,,76,100
111616,note_off,,,,,256,0,15,,,,,7,,,64,100
111648,note_on,,,,,32,0,9,,,,,1,,,74,85
111712,note_off,,,,,64,0,9,,,,,1,,,74,100
111744,note_on,,,,,32,0,9,,,,,1,,,72,85
111808,note_off,,,,,64,0,9,,,,,1,,,72,100
111840,note_on,,,,,32,0,9,,,,,1,,,76,85
111904,note_off,,,,,64,0,9,,,,,1,,,76,100
111936,note_on,,,,,32,0,9,,,,,1,,,77,85
112000,note_off,,,,,64,0,9,,,,,1,,,77,100
112032,note_on,,,,,32,0,9,,,,,1,,,79,85
112096,note_off,,,,,64,0,9,,,,,1,,,79,100
112128,note_on,,,,,512,0,10,,,,,2,,,76,60
112128,note_on,,,,,512,0,12,,,,,4,,,69,60
112128,note_on,,,,,512,0,13,,,,,5,,,49,60
112128,note_on,,,,,512,0,16,,,,,7,,,49,100
112128,note_on,,,,,512,0,8,,,,,0,,,76,60
112128,note_on,,,,,512,0,15,,,,,7,,,69,100
112128,note_on,,,,,512,0,11,,,,,3,,,76,10
112128,note_on,,,,,512,0,14,,,,,6,,,37,60
112128,note_on,,,,,0,0,15,,,,,7,,,64,100
112128,note_on,,,,,32,0,9,,,,,1,,,81,85
112220,note_off,,,,,92,0,9,,,,,1,,,81,100
112224,note_on,,,,,4,0,9,,,,,1,,,79,85
112288,note_off,,,,,64,0,9,,,,,1,,,79,100
112320,note_on,,,,,32,0,9,,,,,1,,,81,85
112384,note_off,,,,,256,0,12,,,,,4,,,69,100
112384,note_off,,,,,256,0,11,,,,,3,,,76,100
112384,note_off,,,,,256,0,13,,,,,5,,,49,100
112384,note_off,,,,,0,0,15,,,,,7,,,64,100
112384,note_off,,,,,256,0,15,,,,,7,,,69,100
112384,note_off,,,,,256,0,14,,,,,6,,,37,100
112384,note_off,,,,,256,0,10,,,,,2,,,76,100
112384,note_off,,,,,256,0,16,,,,,7,,,49,100
112384,note_off,,,,,256,0,8,,,,,0,,,76,100
112412,note_off,,,,,92,0,9,,,,,1,,,81,100
112416,note_on,,,,,4,0,9,,,,,1,,,79,85
112480,note_off,,,,,64,0,9,,,,,1,,,79,100
112512,note_on,,,,,32,0,9,,,,,1,,,81,85
112604,note_off,,,,,92,0,9,,,,,1,,,81,100
112608,note_on,,,,,4,0,9,,,,,1,,,79,85
112672,note_off,,,,,64,0,9,,,,,1,,,79,100
112704,note_on,,,,,320,0,16,,,,,7,,,49,100
112704,note_on,,,,,320,0,13,,,,,5,,,49,60
112704,note_on,,,,,320,0,11,,,,,3,,,76,10
112704,note_on,,,,,320,0,12,,,,,4,,,69,60
112704,note_on,,,,,320,0,8,,,,,0,,,76,60
112704,note_on,,,,,320,0,14,,,,,6,,,37,60
112704,note_on,,,,,32,0,9,,,,,1,,,81,85
112704,note_on,,,,,320,0,15,,,,,7,,,69,100
112704,note_on,,,,,0,0,15,,,,,7,,,64,100
112704,note_on,,,,,320,0,10,,,,,2,,,76,60
112796,note_off,,,,,92,0,9,,,,,1,,,81,100
112800,note_on,,,,,4,0,9,,,,,1,,,79,85
112832,note_off,,,,,128,0,8,,,,,0,,,76,100
112832,note_off,,,,,128,0,13,,,,,5,,,49,100
112832,note_off,,,,,128,0,15,,,,,7,,,69,100
112832,note_off,,,,,128,0,11,,,,,3,,,76,100
112832,note_off,,,,,128,0,14,,,,,6,,,37,100
112832,note_off,,,,,128,0,10,,,,,2,,,76,100
112832,note_off,,,,,128,0,12,,,,,4,,,69,100
112832,note_off,,,,,0,0,15,,,,,7,,,64,100
112832,note_off,,,,,128,0,16,,,,,7,,,49,100
112864,note_off,,,,,64,0,9,,,,,1,,,79,100
112896,note_on,,,,,64,0,15,,,,,7,,,65,100
112896,note_on,,,,,0,0,15,,,,,7,,,69,100
112896,note_on,,,,,64,0,10,,,,,2,,,74,60
112896,note_on,,,,,64,0,13,,,,,5,,,50,60
112896,note_on,,,,,64,0,12,,,,,4,,,69,60
112896,note_on,,,,,64,0,8,,,,,0,,,77,60
112896,note_on,,,,,64,0,11,,,,,3,,,74,10
112896,note_on,,,,,32,0,9,,,,,1,,,77,85
112896,note_on,,,,,64,0,14,,,,,6,,,38,60
112896,note_on,,,,,64,0,16,,,,,7,,,50,100
112960,note_off,,,,,64,0,9,,,,,1,,,77,100
112992,note_on,,,,,32,0,9,,,,,1,,,76,85
113056,note_off,,,,,64,0,9,,,,,1,,,76,100
113088,note_on,,,,,32,0,9,,,,,1,,,77,85
113152,note_off,,,,,256,0,16,,,,,7,,,50,100
113152,note_off,,,,,64,0,9,,,,,1,,,77,100
113152,note_off,,,,,256,0,10,,,,,2,,,74,100
113152,note_off,,,,,256,0,15,,,,,7,,,65,100
113152,note_off,,,,,0,0,15,,,,,7,,,69,100
113152,note_off,,,,,256,0,12,,,,,4,,,69,100
113152,note_off,,,,,256,0,8,,,,,0,,,77,100
113152,note_off,,,,,256,0,13,,,,,5,,,50,100
113152,note_off,,,,,256,0,14,,,,,6,,,38,100
113152,note_off,,,,,256,0,11,,,,,3,,,74,100
113184,note_on,,,,,32,0,9,,,,,1,,,76,85
113248,note_off,,,,,64,0,9,,,,,1,,,76,100
113280,note_on,,,,,32,0,9,,,,,1,,,74,85
113344,note_off,,,,,64,0,9,,,,,1,,,74,100
113376,note_on,,,,,32,0,9,,,,,1,,,77,85
113440,note_off,,,,,64,0,9,,,,,1,,,77,100
113472,note_on,,,,,32,0,9,,,,,1,,,79,85
113536,note_off,,,,,64,0,9,,,,,1,,,79,100
113568,note_on,,,,,32,0,9,,,,,1,,,81,85
113632,note_off,,,,,64,0,9,,,,,1,,,81,100
113664,note_on,,,,,512,0,13,,,,,5,,,43,60
113664,note_on,,,,,512,0,10,,,,,2,,,74,60
113664,note_on,,,,,512,0,11,,,,,3,,,74,10
113664,note_on,,,,,512,0,16,,,,,7,,,43,100
113664,note_on,,,,,512,0,14,,,,,6,,,43,60
113664,note_on,,,,,512,0,8,,,,,0,,,79,60
113664,note_on,,,,,512,0,15,,,,,7,,,58,100
113664,note_on,,,,,0,0,15,,,,,7,,,62,100
113664,note_on,,,,,512,0,12,,,,,4,,,70,60
113664,note_on,,,,,32,0,9,,,,,1,,,82,85
113756,note_off,,,,,92,0,9,,,,,1,,,82,100
113760,note_on,,,,,4,0,9,,,,,1,,,81,85
113824,note_off,,,,,64,0,9,,,,,1,,,81,100
113856,note_on,,,,,32,0,9,,,,,1,,,82,85
113920,note_off,,,,,256,0,10,,,,,2,,,74,100
113920,note_off,,,,,256,0,12,,,,,4,,,70,100
113920,note_off,,,,,256,0,11,,,,,3,,,74,100
113920,note_off,,,,,256,0,13,,,,,5,,,43,100
113920,note_off,,,,,256,0,16,,,,,7,,,43,100
113920,note_off,,,,,256,0,8,,,,,0,,,79,100
113920,note_off,,,,,0,0,15,,,,,7,,,62,100
113920,note_off,,,,,256,0,14,,,,,6,,,43,100
113920,note_off,,,,,256,0,15,,,,,7,,,58,100
113948,note_off,,,,,92,0,9,,,,,1,,,82,100
113952,note_on,,,,,4,0,9,,,,,1,,,81,85
114016,note_off,,,,,64,0,9,,,,,1,,,81,100
114048,note_on,,,,,32,0,9,,,,,1,,,79,85
114140,note_off,,,,,92,0,9,,,,,1,,,79,100
114144,note_on,,,,,4,0,9,,,,,1,,,77,85
114208,note_off,,,,,64,0,9,,,,,1,,,77,100
114240,note_on,,,,,320,0,12,,,,,4,,,70,60
114240,note_on,,,,,32,0,9,,,,,1,,,79,85
114240,note_on,,,,,320,0,14,,,,,6,,,43,60
114240,note_on,,,,,320,0,15,,,,,7,,,58,100
114240,note_on,,,,,320,0,10,,,,,2,,,74,60
114240,note_on,,,,,320,0,8,,,,,0,,,79,60
114240,note_on,,,,,320,0,16,,,,,7,,,43,100
114240,note_on,,,,,320,0,13,,,,,5,,,43,60
114240,note_on,,,,,320,0,11,,,,,3,,,74,10
114240,note_on,,,,,0,0,15,,,,,7,,,62,100
114332,note_off,,,,,92,0,9,,,,,1,,,79,100
114336,note_on,,,,,4,0,9,,,,,1,,,77,85
114368,note_off,,,,,128,0,11,,,,,3,,,74,100
114368,note_off,,,,,128,0,13,,,,,5,,,43,100
114368,note_off,,,,,128,0,16,,,,,7,,,43,100
114368,note_off,,,,,128,0,14,,,,,6,,,43,100
114368,note_off,,,,,128,0,8,,,,,0,,,79,100
114368,note_off,,,,,128,0,10,,,,,2,,,74,100
114368,note_off,,,,,128,0,15,,,,,7,,,58,100
114368,note_off,,,,,0,0,15,,,,,7,,,62,100
114368,note_off,,,,,128,0,12,,,,,4,,,70,100
114400,note_off,,,,,64,0,9,,,,,1,,,77,100
114432,note_on,,,,,0,0,15,,,,,7,,,64,100
114432,note_on,,,,,64,0,13,,,,,5,,,48,60
114432,note_on,,,,,64,0,11,,,,,3,,,72,10
114432,note_on,,,,,64,0,16,,,,,7,,,48,100
114432,note_on,,,,,64,0,15,,,,,7,,,67,100
114432,note_on,,,,,64,0,12,,,,,4,,,64,60
114432,note_on,,,,,64,0,14,,,,,6,,,36,60
114432,note_on,,,,,32,0,9,,,,,1,,,76,85
114432,note_on,,,,,64,0,8,,,,,0,,,79,60
114432,note_on,,,,,64,0,10,,,,,2,,,72,60
114560,note_off,,,,,0,0,15,,,,,7,,,64,100
114560,note_off,,,,,128,0,14,,,,,6,,,36,100
114560,note_off,,,,,128,0,16,,,,,7,,,48,100
114560,note_off,,,,,128,0,9,,,,,1,,,76,100
114560,note_off,,,,,128,0,13,,,,,5,,,48,100
114560,note_off,,,,,128,0,15,,,,,7,,,67,100
114624,note_on,,,,,64,0,9,,,,,1,,,74,85
114624,note_on,,,,,0,0,15,,,,,7,,,65,100
114624,note_on,,,,,64,0,16,,,,,7,,,50,100
114624,note_on,,,,,64,0,13,,,,,5,,,50,60
114624,note_on,,,,,64,0,14,,,,,6,,,38,60
114624,note_on,,,,,64,0,15,,,,,7,,,69,100
114688,note_off,,,,,64,0,9,,,,,1,,,74,100
114688,note_off,,,,,256,0,8,,,,,0,,,79,100
114688,note_off,,,,,256,0,12,,,,,4,,,64,100
114688,note_off,,,,,256,0,10,,,,,2,,,72,100
114688,note_off,,,,,256,0,11,,,,,3,,,72,100
114720,note_on,,,,,32,0,9,,,,,1,,,76,85
114752,note_off,,,,,128,0,16,,,,,7,,,50,100
114752,note_off,,,,,128,0,13,,,,,5,,,50,100
114752,note_off,,,,,128,0,14,,,,,6,,,38,100
114752,note_off,,,,,0,0,15,,,,,7,,,65,100
114752,note_off,,,,,128,0,15,,,,,7,,,69,100
114784,note_off,,,,,64,0,9,,,,,1,,,76,100
114816,note_on,,,,,32,0,9,,,,,1,,,72,85
114816,note_on,,,,,64,0,13,,,,,5,,,48,60
114816,note_on,,,,,64,0,14,,,,,6,,,36,60
114816,note_on,,,,,64,0,16,,,,,7,,,48,100
114816,note_on,,,,,64,0,15,,,,,7,,,67,100
114816,program_change,,,,,128,0,11,,,,,3,40,,,
114816,note_on,,,,,0,0,15,,,,,7,,,64,100
114912,note_on,,,,,96,0,11,,,,,3,,,72,85
114944,note_off,,,,,0,0,15,,,,,7,,,64,100
114944,note_off,,,,,128,0,13,,,,,5,,,48,100
114944,note_off,,,,,128,0,15,,,,,7,,,67,100
114944,note_off,,,,,128,0,14,,,,,6,,,36,100
114944,note_off,,,,,128,0,16,,,,,7,,,48,100
114976,note_off,,,,,64,0,11,,,,,3,,,72,100
115008,note_on,,,,,64,0,15,,,,,7,,,65,100
115008,note_on,,,,,0,0,15,,,,,7,,,62,100
115008,note_on,,,,,64,0,13,,,,,5,,,46,60
115008,note_on,,,,,64,0,16,,,,,7,,,46,100
115008,note_on,,,,,32,0,11,,,,,3,,,74,85
115008,note_on,,,,,64,0,14,,,,,6,,,34,60
115072,note_off,,,,,256,0,9,,,,,1,,,72,100
115072,note_off,,,,,64,0,11,,,,,3,,,74,100
115104,note_on,,,,,32,0,11,,,,,3,,,76,85
115136,note_off,,,,,128,0,14,,,,,6,,,34,100
115136,note_off,,,,,128,0,16,,,,,7,,,46,100
115136,note_off,,,,,0,0,15,,,,,7,,,62,100
115136,note_off,,,,,128,0,15,,,,,7,,,65,100
115136,note_off,,,,,128,0,13,,,,,5,,,46,100
115168,note_off,,,,,64,0,11,,,,,3,,,76,100
115192,program_change,,,,,120,0,9,,,,,1,48,,,
115200,note_on,,,,,512,0,12,,,,,4,,,65,60
115200,note_on,,,,,512,0,8,,,,,0,,,72,60
115200,note_on,,,,,64,0,14,,,,,6,,,33,60
115200,note_on,,,,,64,0,16,,,,,7,,,45,100
115200,note_on,,,,,64,0,13,,,,,5,,,45,60
115200,note_on,,,,,8,0,9,,,,,1,,,72,10
115200,note_on,,,,,512,0,10,,,,,2,,,72,60
115200,note_on,,,,,64,0,15,,,,,7,,,65,100
115200,note_on,,,,,0,0,15,,,,,7,,,60,100
115200,note_on,,,,,32,0,11,,,,,3,,,77,85
115292,note_off,,,,,92,0,11,,,,,3,,,77,100
115296,note_on,,,,,4,0,11,,,,,3,,,76,85
115360,note_off,,,,,64,0,11,,,,,3,,,76,100
115392,note_on,,,,,32,0,11,,,,,3,,,77,85
115456,note_off,,,,,256,0,8,,,,,0,,,72,100
115456,note_off,,,,,256,0,12,,,,,4,,,65,100
115456,note_off,,,,,256,0,9,,,,,1,,,72,100
115456,note_off,,,,,256,0,14,,,,,6,,,33,100
115456,note_off,,,,,0,0,15,,,,,7,,,60,100
115456,note_off,,,,,256,0,15,,,,,7,,,65,100
115456,note_off,,,,,256,0,16,,,,,7,,,45,100
115456,note_off,,,,,256,0,10,,,,,2,,,72,100
115456,note_off,,,,,256,0,13,,,,,5,,,45,100
115484,note_off,,,,,92,0,11,,,,,3,,,77,100
115488,note_on,,,,,4,0,11,,,,,3,,,76,85
115552,note_off,,,,,64,0,11,,,,,3,,,76,100
115584,note_on,,,,,32,0,11,,,,,3,,,77,85
115676,note_off,,,,,92,0,11,,,,,3,,,77,100
115680,note_on,,,,,4,0,11,,,,,3,,,76,85
115744,note_off,,,,,64,0,11,,,,,3,,,76,100
115776,note_on,,,,,320,0,13,,,,,5,,,45,60
115776,note_on,,,,,320,0,8,,,,,0,,,72,60
115776,note_on,,,,,320,0,12,,,,,4,,,65,60
115776,note_on,,,,,320,0,15,,,,,7,,,65,100
115776,note_on,,,,,0,0,15,,,,,7,,,60,100
115776,note_on,,,,,320,0,10,,,,,2,,,72,60
115776,note_on,,,,,32,0,11,,,,,3,,,77,85
115776,note_on,,,,,320,0,9,,,,,1,,,72,10
115776,note_on,,,,,320,0,16,,,,,7,,,45,100
115776,note_on,,,,,320,0,14,,,,,6,,,33,60
115868,note_off,,,,,92,0,11,,,,,3,,,77,100
115872,note_on,,,,,4,0,11,,,,,3,,,76,85
115904,note_off,,,,,128,0,14,,,,,6,,,33,100
115904,note_off,,,,,0,0,15,,,,,7,,,60,100
115904,note_off,,,,,128,0,15,,,,,7,,,65,100
115904,note_off,,,,,128,0,8,,,,,0,,,72,100
115904,note_off,,,,,128,0,12,,,,,4,,,65,100
115904,note_off,,,,,128,0,10,,,,,2,,,72,100
115904,note_off,,,,,128,0,16,,,,,7,,,45,100
115904,note_off,,,,,128,0,9,,,,,1,,,72,100
115904,note_off,,,,,128,0,13,,,,,5,,,45,100
115936,note_off,,,,,64,0,11,,,,,3,,,76,100
115968,note_on,,,,,64,0,13,,,,,5,,,46,60
115968,note_on,,,,,0,0,15,,,,,7,,,65,100
115968,note_on,,,,,64,0,15,,,,,7,,,62,100
115968,note_on,,,,,64,0,9,,,,,1,,,70,10
115968,note_on,,,,,64,0,10,,,,,2,,,70,60
115968,note_on,,,,,32,0,11,,,,,3,,,74,85
115968,note_on,,,,,64,0,12,,,,,4,,,65,60
115968,note_on,,,,,64,0,16,,,,,7,,,46,100
115968,note_on,,,,,64,0,8,,,,,0,,,74,60
115968,note_on,,,,,64,0,14,,,,,6,,,34,60
116032,note_off,,,,,64,0,11,,,,,3,,,74,100
116064,note_on,,,,,32,0,11,,,,,3,,,72,85
116128,note_off,,,,,64,0,11,,,,,3,,,72,100
116160,note_on,,,,,32,0,11,,,,,3,,,74,85
116224,note_off,,,,,256,0,13,,,,,5,,,46,100
116224,note_off,,,,,256,0,14,,,,,6,,,34,100
116224,note_off,,,,,256,0,16,,,,,7,,,46,100
116224,note_off,,,,,256,0,9,,,,,1,,,70,100
116224,note_off,,,,,256,0,8,,,,,0,,,74,100
116224,note_off,,,,,256,0,15,,,,,7,,,62,100
116224,note_off,,,,,0,0,15,,,,,7,,,65,100
116224,note_off,,,,,64,0,11,,,,,3,,,74,100
116224,note_off,,,,,256,0,12,,,,,4,,,65,100
116224,note_off,,,,,256,0,10,,,,,2,,,70,100
116256,note_on,,,,,32,0,11,,,,,3,,,72,85
116320,note_off,,,,,64,0,11,,,,,3,,,72,100
116352,note_on,,,,,32,0,11,,,,,3,,,70,85
116416,note_off,,,,,64,0,11,,,,,3,,,70,100
116448,note_on,,,,,32,0,11,,,,,3,,,74,85
116512,note_off,,,,,64,0,11,,,,,3,,,74,100
116544,note_on,,,,,32,0,11,,,,,3,,,76,85
116608,note_off,,,,,64,0,11,,,,,3,,,76,100
116640,note_on,,,,,32,0,11,,,,,3,,,77,85
116704,note_off,,,,,64,0,11,,,,,3,,,77,100
116736,note_on,,,,,512,0,9,,,,,1,,,74,10
116736,note_on,,,,,0,0,15,,,,,7,,,62,100
116736,note_on,,,,,512,0,15,,,,,7,,,67,100
116736,note_on,,,,,512,0,12,,,,,4,,,67,60
116736,note_on,,,,,512,0,10,,,,,2,,,74,60
116736,note_on,,,,,512,0,8,,,,,0,,,74,60
116736,note_on,,,,,512,0,13,,,,,5,,,47,60
116736,note_on,,,,,512,0,14,,,,,6,,,35,60
116736,note_on,,,,,512,0,16,,,,,7,,,47,100
116736,note_on,,,,,32,0,11,,,,,3,,,79,85
116828,note_off,,,,,92,0,11,,,,,3,,,79,100
116832,note_on,,,,,4,0,11,,,,,3,,,77,85
116896,note_off,,,,,64,0,11,,,,,3,,,77,100
116928,note_on,,,,,32,0,11,,,,,3,,,79,85
116992,note_off,,,,,256,0,16,,,,,7,,,47,100
116992,note_off,,,,,256,0,13,,,,,5,,,47,100
116992,note_off,,,,,256,0,12,,,,,4,,,67,100
116992,note_off,,,,,256,0,14,,,,,6,,,35,100
116992,note_off,,,,,256,0,10,,,,,2,,,74,100
116992,note_off,,,,,256,0,15,,,,,7,,,67,100
116992,note_off,,,,,256,0,8,,,,,0,,,74,100
116992,note_off,,,,,0,0,15,,,,,7,,,62,100
116992,note_off,,,,,256,0,9,,,,,1,,,74,100
117020,note_off,,,,,92,0,11,,,,,3,,,79,100
117024,note_on,,,,,4,0,11,,,,,3,,,77,85
117088,note_off,,,,,64,0,11,,,,,3,,,77,100
117120,note_on,,,,,32,0,11,,,,,3,,,79,85
117212,note_off,,,,,92,0,11,,,,,3,,,79,100
117216,note_on,,,,,4,0,11,,,,,3,,,77,85
117280,note_off,,,,,64,0,11,,,,,3,,,77,100
117312,note_on,,,,,0,0,15,,,,,7,,,62,100
117312,note_on,,,,,320,0,15,,,,,7,,,67,100
117312,note_on,,,,,320,0,16,,,,,7,,,47,100
117312,note_on,,,,,320,0,10,,,,,2,,,74,60
117312,note_on,,,,,320,0,12,,,,,4,,,67,60
117312,note_on,,,,,320,0,14,,,,,6,,,35,60
117312,note_on,,,,,320,0,13,,,,,5,,,47,60
117312,note_on,,,,,32,0,11,,,,,3,,,79,85
117312,note_on,,,,,320,0,9,,,,,1,,,74,10
117312,note_on,,,,,320,0,8,,,,,0,,,74,60
117404,note_off,,,,,92,0,11,,,,,3,,,79,100
117408,note_on,,,,,4,0,11,,,,,3,,,77,85
117440,note_off,,,,,128,0,12,,,,,4,,,67,100
117440,note_off,,,,,128,0,13,,,,,5,,,47,100
117440,note_off,,,,,128,0,15,,,,,7,,,67,100
117440,note_off,,,,,128,0,14,,,,,6,,,35,100
117440,note_off,,,,,0,0,15,,,,,7,,,62,100
117440,note_off,,,,,128,0,9,,,,,1,,,74,100
117440,note_off,,,,,128,0,16,,,,,7,,,47,100
117440,note_off,,,,,128,0,8,,,,,0,,,74,100
117440,note_off,,,,,128,0,10,,,,,2,,,74,100
117472,note_off,,,,,64,0,11,,,,,3,,,77,100
117504,note_on,,,,,64,0,12,,,,,4,,,67,60
117504,note_on,,,,,32,0,11,,,,,3,,,76,85
117504,note_on,,,,,64,0,16,,,,,7,,,48,100
117504,note_on,,,,,0,0,15,,,,,7,,,67,100
117504,note_on,,,,,64,0,15,,,,,7,,,64,100
117504,note_on,,,,,64,0,9,,,,,1,,,72,10
117504,note_on,,,,,64,0,14,,,,,6,,,36,60
117504,note_on,,,,,64,0,13,,,,,5,,,48,60
117504,note_on,,,,,64,0,10,,,,,2,,,72,60
117504,note_on,,,,,64,0,8,,,,,0,,,76,60
117568,note_off,,,,,64,0,11,,,,,3,,,76,100
117600,note_on,,,,,32,0,11,,,,,3,,,74,85
117664,note_off,,,,,64,0,11,,,,,3,,,74,100
117696,note_on,,,,,32,0,11,,,,,3,,,76,85
117760,note_off,,,,,256,0,16,,,,,7,,,48,100
117760,note_off,,,,,256,0,12,,,,,4,,,67,100
117760,note_off,,,,,256,0,9,,,,,1,,,72,100
117760,note_off,,,,,256,0,14,,,,,6,,,36,100
117760,note_off,,,,,256,0,13,,,,,5,,,48,100
117760,note_off,,,,,256,0,15,,,,,7,,,64,100
117760,note_off,,,,,0,0,15,,,,,7,,,67,100
117760,note_off,,,,,256,0,8,,,,,0,,,76,100
117760,note_off,,,,,256,0,10,,,,,2,,,72,100
117760,note_off,,,,,64,0,11,,,,,3,,,76,100
117792,note_on,,,,,32,0,11,,,,,3,,,74,85
117856,note_off,,,,,64,0,11,,,,,3,,,74,100
117888,note_on,,,,,32,0,11,,,,,3,,,72,85
117952,note_off,,,,,64,0,11,,,,,3,,,72,100
117984,note_on,,,,,32,0,11,,,,,3,,,76,85
118048,note_off,,,,,64,0,11,,,,,3,,,76,100
118080,note_on,,,,,32,0,11,,,,,3,,,77,85
118144,note_off,,,,,64,0,11,,,,,3,,,77,100
118176,note_on,,,,,32,0,11,,,,,3,,,79,85
118240,note_off,,,,,64,0,11,,,,,3,,,79,100
118272,note_on,,,,,512,0,8,,,,,0,,,76,60
118272,note_on,,,,,0,0,15,,,,,7,,,64,100
118272,note_on,,,,,512,0,15,,,,,7,,,69,100
118272,note_on,,,,,512,0,16,,,,,7,,,49,100
118272,note_on,,,,,32,0,11,,,,,3,,,81,85
118272,note_on,,,,,512,0,12,,,,,4,,,69,60
118272,note_on,,,,,512,0,13,,,,,5,,,49,60
118272,note_on,,,,,512,0,14,,,,,6,,,37,60
118272,note_on,,,,,512,0,9,,,,,1,,,76,10
118272,note_on,,,,,512,0,10,,,,,2,,,76,60
118364,note_off,,,,,92,0,11,,,,,3,,,81,100
118368,note_on,,,,,4,0,11,,,,,3,,,79,85
118432,note_off,,,,,64,0,11,,,,,3,,,79,100
118464,note_on,,,,,32,0,11,,,,,3,,,81,85
118528,note_off,,,,,256,0,8,,,,,0,,,76,100
118528,note_off,,,,,256,0,12,,,,,4,,,69,100
118528,note_off,,,,,256,0,10,,,,,2,,,76,100
118528,note_off,,,,,256,0,16,,,,,7,,,49,100
118528,note_off,,,,,256,0,15,,,,,7,,,69,100
118528,note_off,,,,,256,0,9,,,,,1,,,76,100
118528,note_off,,,,,256,0,14,,,,,6,,,37,100
118528,note_off,,,,,0,0,15,,,,,7,,,64,100
118528,note_off,,,,,256,0,13,,,,,5,,,49,100
118556,note_off,,,,,92,0,11,,,,,3,,,81,100
118560,note_on,,,,,4,0,11,,,,,3,,,79,85
118624,note_off,,,,,64,0,11,,,,,3,,,79,100
118656,note_on,,,,,32,0,11,,,,,3,,,81,85
118748,note_off,,,,,92,0,11,,,,,3,,,81,100
118752,note_on,,,,,4,0,11,,,,,3,,,79,85
118816,note_off,,,,,64,0,11,,,,,3,,,79,100
118848,note_on,,,,,320,0,14,,,,,6,,,37,60
118848,note_on,,,,,320,0,9,,,,,1,,,76,10
118848,note_on,,,,,320,0,10,,,,,2,,,76,60
118848,note_on,,,,,320,0,15,,,,,7,,,69,100
118848,note_on,,,,,0,0,15,,,,,7,,,64,100
118848,note_on,,,,,32,0,11,,,,,3,,,81,85
118848,note_on,,,,,320,0,12,,,,,4,,,69,60
118848,note_on,,,,,320,0,13,,,,,5,,,49,60
118848,note_on,,,,,320,0,8,,,,,0,,,76,60
118848,note_on,,,,,320,0,16,,,,,7,,,49,100
118940,note_off,,,,,92,0,11,,,,,3,,,81,100
118944,note_on,,,,,4,0,11,,,,,3,,,79,85
118976,note_off,,,,,128,0,13,,,,,5,,,49,100
118976,note_off,,,,,0,0,15,,,,,7,,,64,100
118976,note_off,,,,,128,0,14,,,,,6,,,37,100
118976,note_off,,,,,128,0,8,,,,,0,,,76,100
118976,note_off,,,,,128,0,15,,,,,7,,,69,100
118976,note_off,,,,,128,0,12,,,,,4,,,69,100
118976,note_off,,,,,128,0,10,,,,,2,,,76,100
118976,note_off,,,,,128,0,9,,,,,1,,,76,100
118976,note_off,,,,,128,0,16,,,,,7,,,49,100
119008,note_off,,,,,64,0,11,,,,,3,,,79,100
119040,note_on,,,,,64,0,10,,,,,2,,,74,60
119040,note_on,,,,,64,0,14,,,,,6,,,38,60
119040,note_on,,,,,64,0,13,,,,,5,,,50,60
119040,note_on,,,,,64,0,16,,,,,7,,,50,100
119040,note_on,,,,,64,0,15,,,,,7,,,65,100
119040,note_on,,,,,0,0,15,,,,,7,,,69,100
119040,note_on,,,,,64,0,9,,,,,1,,,74,10
119040,note_on,,,,,64,0,12,,,,,4,,,69,60
119040,note_on,,,,,64,0,8,,,,,0,,,77,60
119040,note_on,,,,,32,0,11,,,,,3,,,77,85
119104,note_off,,,,,64,0,11,,,,,3,,,77,100
119136,note_on,,,,,32,0,11,,,,,3,,,76,85
119200,note_off,,,,,64,0,11,,,,,3,,,76,100
119232,note_on,,,,,32,0,11,,,,,3,,,77,85
119296,note_off,,,,,256,0,12,,,,,4,,,69,100
119296,note_off,,,,,256,0,10,,,,,2,,,74,100
119296,note_off,,,,,256,0,15,,,,,7,,,65,100
119296,note_off,,,,,256,0,14,,,,,6,,,38,100
119296,note_off,,,,,64,0,11,,,,,3,,,77,100
119296,note_off,,,,,256,0,13,,,,,5,,,50,100
119296,note_off,,,,,256,0,16,,,,,7,,,50,100
119296,note_off,,,,,256,0,8,,,,,0,,,77,100
119296,note_off,,,,,256,0,9,,,,,1,,,74,100
119296,note_off,,,,,0,0,15,,,,,7,,,69,100
119328,note_on,,,,,32,0,11,,,,,3,,,76,85
119392,note_off,,,,,64,0,11,,,,,3,,,76,100
119424,note_on,,,,,32,0,11,,,,,3,,,74,85
119488,note_off,,,,,64,0,11,,,,,3,,,74,100
119520,note_on,,,,,32,0,11,,,,,3,,,77,85
119584,note_off,,,,,64,0,11,,,,,3,,,77,100
119616,note_on,,,,,32,0,11,,,,,3,,,79,85
119680,note_off,,,,,64,0,11,,,,,3,,,79,100
119712,note_on,,,,,32,0,11,,,,,3,,,81,85
119776,note_off,,,,,64,0,11,,,,,3,,,81,100
119808,note_on,,,,,512,0,10,,,,,2,,,74,60
119808,note_on,,,,,512,0,15,,,,,7,,,58,100
119808,note_on,,,,,32,0,11,,,,,3,,,82,85
119808,note_on,,,,,512,0,9,,,,,1,,,74,10
119808,note_on,,,,,512,0,13,,,,,5,,,43,60
119808,note_on,,,,,0,0,15,,,,,7,,,62,100
119808,note_on,,,,,512,0,8,,,,,0,,,79,60
119808,note_on,,,,,512,0,12,,,,,4,,,70,60
119808,note_on,,,,,512,0,14,,,,,6,,,43,60
119808,note_on,,,,,512,0,16,,,,,7,,,43,100
119900,note_off,,,,,92,0,11,,,,,3,,,82,100
119904,note_on,,,,,4,0,11,,,,,3,,,81,85
119968,note_off,,,,,64,0,11,,,,,3,,,81,100
120000,note_on,,,,,32,0,11,,,,,3,,,82,85
120064,note_off,,,,,256,0,9,,,,,1,,,74,100
120064,note_off,,,,,256,0,12,,,,,4,,,70,100
120064,note_off,,,,,256,0,14,,,,,6,,,43,100
120064,note_off,,,,,256,0,10,,,,,2,,,74,100
120064,note_off,,,,,256,0,15,,,,,7,,,58,100
120064,note_off,,,,,0,0,15,,,,,7,,,62,100
120064,note_off,,,,,256,0,8,,,,,0,,,79,100
120064,note_off,,,,,256,0,16,,,,,7,,,43,100
120064,note_off,,,,,256,0,13,,,,,5,,,43,100
120092,note_off,,,,,92,0,11,,,,,3,,,82,100
120096,note_on,,,,,4,0,11,,,,,3,,,81,85
120160,note_off,,,,,64,0,11,,,,,3,,,81,100
120192,note_on,,,,,32,0,11,,,,,3,,,79,85
120284,note_off,,,,,92,0,11,,,,,3,,,79,100
120288,note_on,,,,,4,0,11,,,,,3,,,77,85
120352,note_off,,,,,64,0,11,,,,,3,,,77,100
120384,note_on,,,,,320,0,8,,,,,0,,,79,60
120384,note_on,,,,,320,0,12,,,,,4,,,70,60
120384,note_on,,,,,0,0,15,,,,,7,,,62,100
120384,note_on,,,,,320,0,10,,,,,2,,,74,60
120384,note_on,,,,,320,0,15,,,,,7,,,58,100
120384,note_on,,,,,320,0,9,,,,,1,,,74,10
120384,note_on,,,,,32,0,11,,,,,3,,,79,85
120384,note_on,,,,,320,0,13,,,,,5,,,43,60
120384,note_on,,,,,320,0,16,,,,,7,,,43,100
120384,note_on,,,,,320,0,14,,,,,6,,,43,60
120476,note_off,,,,,92,0,11,,,,,3,,,79,100
120480,note_on,,,,,4,0,11,,,,,3,,,77,85
120512,note_off,,,,,128,0,14,,,,,6,,,43,100
120512,note_off,,,,,128,0,8,,,,,0,,,79,100
120512,note_off,,,,,128,0,12,,,,,4,,,70,100
120512,note_off,,,,,128,0,15,,,,,7,,,58,100
120512,note_off,,,,,0,0,15,,,,,7,,,62,100
120512,note_off,,,,,128,0,9,,,,,1,,,74,100
120512,note_off,,,,,128,0,13,,,,,5,,,43,100
120512,note_off,,,,,128,0,16,,,,,7,,,43,100
120512,note_off,,,,,128,0,10,,,,,2,,,74,100
120544,note_off,,,,,64,0,11,,,,,3,,,77,100
120576,note_on,,,,,64,0,9,,,,,1,,,72,10
120576,note_on,,,,,64,0,8,,,,,0,,,79,60
120576,note_on,,,,,64,0,16,,,,,7,,,48,100
120576,note_on,,,,,64,0,14,,,,,6,,,36,60
120576,note_on,,,,,64,0,10,,,,,2,,,72,60
120576,note_on,,,,,32,0,11,,,,,3,,,76,85
120576,note_on,,,,,64,0,13,,,,,5,,,48,60
120576,note_on,,,,,64,0,15,,,,,7,,,64,100
120576,note_on,,,,,0,0,15,,,,,7,,,67,100
120576,note_on,,,,,64,0,12,,,,,4,,,64,60
120704,note_off,,,,,128,0,11,,,,,3,,,76,100
120768,note_on,,,,,64,0,11,,,,,3,,,74,85
120832,note_off,,,,,64,0,11,,,,,3,,,74,100
120832,note_off,,,,,256,0,10,,,,,2,,,72,100
120832,note_off,,,,,256,0,8,,,,,0,,,79,100
120832,note_off,,,,,256,0,12,,,,,4,,,64,100
120832,note_off,,,,,0,0,15,,,,,7,,,67,100
120832,note_off,,,,,256,0,15,,,,,7,,,64,100
120832,note_off,,,,,256,0,14,,,,,6,,,36,100
120832,note_off,,,,,256,0,16,,,,,7,,,48,100
120832,note_off,,,,,256,0,13,,,,,5,,,48,100
120832,note_off,,,,,256,0,9,,,,,1,,,72,100
120864,note_on,,,,,32,0,11,,,,,3,,,76,85
120928,note_off,,,,,64,0,11,,,,,3,,,76,100
120960,program_change,,,,,128,0,10,,,,,2,40,,,
120960,note_on,,,,,32,0,11,,,,,3,,,72,85
121152,note_on,,,,,192,0,10,,,,,2,,,72,85
121216,note_off,,,,,256,0,11,,,,,3,,,72,100
121280,note_off,,,,,128,0,10,,,,,2,,,72,100
121336,program_change,,,,,120,0,11,,,,,3,48,,,
121344,note_on,,,,,64,0,10,,,,,2,,,79,85
121344,note_on,,,,,512,0,12,,,,,4,,,60,70
121344,note_on,,,,,8,0,11,,,,,3,,,64,20
121344,note_on,,,,,512,0,9,,,,,1,,,64,20
121344,note_on,,,,,512,0,8,,,,,0,,,64,70
121436,note_off,,,,,92,0,10,,,,,2,,,79,100
121440,note_on,,,,,4,0,10,,,,,2,,,77,85
121472,note_off,,,,,128,0,11,,,,,3,,,64,100
121472,note_off,,,,,128,0,9,,,,,1,,,64,100
121472,note_off,,,,,128,0,8,,,,,0,,,64,100
121472,note_off,,,,,128,0,12,,,,,4,,,60,100
121532,note_off,,,,,92,0,10,,,,,2,,,77,100
121536,note_on,,,,,64,0,9,,,,,1,,,64,20
121536,note_on,,,,,4,0,10,,,,,2,,,79,85
121536,note_on,,,,,64,0,12,,,,,4,,,60,70
121536,note_on,,,,,64,0,11,,,,,3,,,64,20
121536,note_on,,,,,64,0,8,,,,,0,,,64,70
121600,note_off,,,,,64,0,10,,,,,2,,,79,100
121632,note_on,,,,,32,0,10,,,,,2,,,72,85
121664,note_off,,,,,128,0,8,,,,,0,,,64,100
121664,note_off,,,,,128,0,11,,,,,3,,,64,100
121664,note_off,,,,,128,0,12,,,,,4,,,60,100
121664,note_off,,,,,128,0,9,,,,,1,,,64,100
121696,note_off,,,,,64,0,10,,,,,2,,,72,100
121728,note_on,,,,,64,0,12,,,,,4,,,60,70
121728,note_on,,,,,64,0,8,,,,,0,,,65,70
121728,note_on,,,,,32,0,10,,,,,2,,,81,85
121728,note_on,,,,,64,0,9,,,,,1,,,65,20
121728,note_on,,,,,64,0,11,,,,,3,,,65,20
121820,note_off,,,,,92,0,10,,,,,2,,,81,100
121824,note_on,,,,,4,0,10,,,,,2,,,79,85
121856,note_off,,,,,128,0,8,,,,,0,,,65,100
121856,note_off,,,,,128,0,11,,,,,3,,,65,100
121856,note_off,,,,,128,0,9,,,,,1,,,65,100
121856,note_off,,,,,128,0,12,,,,,4,,,60,100
121916,note_off,,,,,92,0,10,,,,,2,,,79,100
121920,note_on,,,,,64,0,9,,,,,1,,,65,20
121920,note_on,,,,,64,0,12,,,,,4,,,60,70
121920,note_on,,,,,64,0,8,,,,,0,,,65,70
121920,note_on,,,,,4,0,10,,,,,2,,,81,85
121920,note_on,,,,,64,0,11,,,,,3,,,65,20
121984,note_off,,,,,64,0,10,,,,,2,,,81,100
122016,note_on,,,,,32,0,10,,,,,2,,,72,85
122048,note_off,,,,,128,0,8,,,,,0,,,65,100
122048,note_off,,,,,128,0,11,,,,,3,,,65,100
122048,note_off,,,,,128,0,9,,,,,1,,,65,100
122048,note_off,,,,,128,0,12,,,,,4,,,60,100
122080,note_off,,,,,64,0,10,,,,,2,,,72,100
122112,note_on,,,,,64,0,9,,,,,1,,,64,20
122112,note_on,,,,,32,0,10,,,,,2,,,79,85
122112,note_on,,,,,64,0,8,,,,,0,,,64,70
122112,note_on,,,,,64,0,11,,,,,3,,,64,20
122112,note_on,,,,,64,0,12,,,,,4,,,60,70
122204,note_off,,,,,92,0,10,,,,,2,,,79,100
122208,note_on,,,,,4,0,10,,,,,2,,,77,85
122240,note_off,,,,,128,0,12,,,,,4,,,60,100
122240,note_off,,,,,128,0,8,,,,,0,,,64,100
122240,note_off,,,,,128,0,11,,,,,3,,,64,100
122240,note_off,,,,,128,0,9,,,,,1,,,64,100
122300,note_off,,,,,92,0,10,,,,,2,,,77,100
122304,note_on,,,,,64,0,12,,,,,4,,,60,70
122304,note_on,,,,,64,0,8,,,,,0,,,64,70
122304,note_on,,,,,4,0,10,,,,,2,,,79,85
122304,note_on,,,,,64,0,11,,,,,3,,,64,20
122304,note_on,,,,,64,0,9,,,,,1,,,64,20
122368,note_off,,,,,64,0,10,,,,,2,,,79,100
122400,note_on,,,,,32,0,10,,,,,2,,,72,85
122432,note_off,,,,,128,0,8,,,,,0,,,64,100
122432,note_off,,,,,128,0,12,,,,,4,,,60,100
122432,note_off,,,,,128,0,9,,,,,1,,,64,100
122432,note_off,,,,,128,0,11,,,,,3,,,64,100
122464,note_off,,,,,64,0,10,,,,,2,,,72,100
122496,note_on,,,,,64,0,8,,,,,0,,,69,70
122496,note_on,,,,,64,0,9,,,,,1,,,69,20
122496,note_on,,,,,64,0,12,,,,,4,,,60,70
122496,note_on,,,,,32,0,10,,,,,2,,,77,85
122496,note_on,,,,,64,0,11,,,,,3,,,69,20
122588,note_off,,,,,92,0,10,,,,,2,,,77,100
122592,note_on,,,,,4,0,10,,,,,2,,,76,85
122624,note_off,,,,,128,0,9,,,,,1,,,69,100
122624,note_off,,,,,128,0,8,,,,,0,,,69,100
122624,note_off,,,,,128,0,11,,,,,3,,,69,100
122624,note_off,,,,,128,0,12,,,,,4,,,60,100
122684,note_off,,,,,92,0,10,,,,,2,,,76,100
122688,note_on,,,,,4,0,10,,,,,2,,,77,85
122688,note_on,,,,,64,0,8,,,,,0,,,69,70
122688,note_on,,,,,64,0,11,,,,,3,,,69,20
122688,note_on,,,,,64,0,12,,,,,4,,,60,70
122688,note_on,,,,,64,0,9,,,,,1,,,69,20
122752,note_off,,,,,64,0,10,,,,,2,,,77,100
122784,note_on,,,,,32,0,10,,,,,2,,,72,85
122816,note_off,,,,,128,0,11,,,,,3,,,69,100
122816,note_off,,,,,128,0,12,,,,,4,,,60,100
122816,note_off,,,,,128,0,9,,,,,1,,,69,100
122816,note_off,,,,,128,0,8,,,,,0,,,69,100
122848,note_off,,,,,64,0,10,,,,,2,,,72,100
122880,note_on,,,,,32,0,10,,,,,2,,,79,85
122880,note_on,,,,,64,0,12,,,,,4,,,60,70
122880,note_on,,,,,64,0,9,,,,,1,,,64,20
122880,note_on,,,,,64,0,11,,,,,3,,,64,20
122880,note_on,,,,,64,0,8,,,,,0,,,64,70
122972,note_off,,,,,92,0,10,,,,,2,,,79,100
122976,note_on,,,,,4,0,10,,,,,2,,,77,85
123008,note_off,,,,,128,0,11,,,,,3,,,64,100
123008,note_off,,,,,128,0,12,,,,,4,,,60,100
123008,note_off,,,,,128,0,9,,,,,1,,,64,100
123008,note_off,,,,,128,0,8,,,,,0,,,64,100
123068,note_off,,,,,92,0,10,,,,,2,,,77,100
123072,note_on,,,,,64,0,11,,,,,3,,,64,20
123072,note_on,,,,,64,0,12,,,,,4,,,60,70
123072,note_on,,,,,4,0,10,,,,,2,,,79,85
123072,note_on,,,,,64,0,9,,,,,1,,,64,20
123072,note_on,,,,,64,0,8,,,,,0,,,64,70
123136,note_off,,,,,64,0,10,,,,,2,,,79,100
123168,note_on,,,,,32,0,10,,,,,2,,,72,85
123200,note_off,,,,,128,0,8,,,,,0,,,64,100
123200,note_off,,,,,128,0,9,,,,,1,,,64,100
123200,note_off,,,,,128,0,12,,,,,4,,,60,100
123200,note_off,,,,,128,0,11,,,,,3,,,64,100
123232,note_off,,,,,64,0,10,,,,,2,,,72,100
123264,note_on,,,,,64,0,11,,,,,3,,,65,20
123264,note_on,,,,,64,0,12,,,,,4,,,60,70
123264,note_on,,,,,32,0,10,,,,,2,,,81,85
123264,note_on,,,,,64,0,8,,,,,0,,,65,70
123264,note_on,,,,,64,0,9,,,,,1,,,65,20
123356,note_off,,,,,92,0,10,,,,,2,,,81,100
123360,note_on,,,,,4,0,10,,,,,2,,,79,85
123392,note_off,,,,,128,0,11,,,,,3,,,65,100
123392,note_off,,,,,128,0,12,,,,,4,,,60,100
123392,note_off,,,,,128,0,8,,,,,0,,,65,100
123392,note_off,,,,,128,0,9,,,,,1,,,65,100
123452,note_off,,,,,92,0,10,,,,,2,,,79,100
123456,note_on,,,,,64,0,12,,,,,4,,,60,70
123456,note_on,,,,,64,0,11,,,,,3,,,65,20
123456,note_on,,,,,64,0,9,,,,,1,,,65,20
123456,note_on,,,,,4,0,10,,,,,2,,,81,85
123456,note_on,,,,,64,0,8,,,,,0,,,65,70
123520,note_off,,,,,64,0,10,,,,,2,,,81,100
123552,note_on,,,,,32,0,10,,,,,2,,,72,85
123584,note_off,,,,,128,0,9,,,,,1,,,65,100
123584,note_off,,,,,128,0,11,,,,,3,,,65,100
123584,note_off,,,,,128,0,12,,,,,4,,,60,100
123584,note_off,,,,,128,0,8,,,,,0,,,65,100
123616,note_off,,,,,64,0,10,,,,,2,,,72,100
123648,note_on,,,,,64,0,8,,,,,0,,,64,70
123648,note_on,,,,,64,0,9,,,,,1,,,64,20
123648,note_on,,,,,32,0,10,,,,,2,,,79,85
123648,note_on,,,,,64,0,12,,,,,4,,,60,70
123648,note_on,,,,,64,0,11,,,,,3,,,64,20
123740,note_off,,,,,92,0,10,,,,,2,,,79,100
123744,note_on,,,,,4,0,10,,,,,2,,,77,85
123776,note_off,,,,,128,0,9,,,,,1,,,64,100
123776,note_off,,,,,128,0,8,,,,,0,,,64,100
123776,note_off,,,,,128,0,12,,,,,4,,,60,100
123776,note_off,,,,,128,0,11,,,,,3,,,64,100
123836,note_off,,,,,92,0,10,,,,,2,,,77,100
123840,note_on,,,,,4,0,10,,,,,2,,,79,86
123840,note_on,,,,,64,0,8,,,,,0,,,64,70
123840,note_on,,,,,64,0,12,,,,,4,,,60,70
123840,note_on,,,,,64,0,11,,,,,3,,,64,20
123840,note_on,,,,,64,0,9,,,,,1,,,64,20
123904,note_off,,,,,64,0,10,,,,,2,,,79,100
123936,note_on,,,,,32,0,10,,,,,2,,,72,87
123968,note_off,,,,,128,0,11,,,,,3,,,64,100
123968,note_off,,,,,128,0,8,,,,,0,,,64,100
123968,note_off,,,,,128,0,9,,,,,1,,,64,100
123968,note_off,,,,,128,0,12,,,,,4,,,60,100
124000,note_off,,,,,64,0,10,,,,,2,,,72,100
124032,note_on,,,,,64,0,8,,,,,0,,,69,70
124032,note_on,,,,,32,0,10,,,,,2,,,77,88
124032,note_on,,,,,64,0,12,,,,,4,,,60,70
124032,note_on,,,,,64,0,9,,,,,1,,,69,20
124032,note_on,,,,,64,0,11,,,,,3,,,69,20
124124,note_off,,,,,92,0,10,,,,,2,,,77,100
124128,note_on,,,,,4,0,10,,,,,2,,,76,89
124160,note_off,,,,,128,0,12,,,,,4,,,60,100
124160,note_off,,,,,128,0,9,,,,,1,,,69,100
124160,note_off,,,,,128,0,11,,,,,3,,,69,100
124160,note_off,,,,,128,0,8,,,,,0,,,69,100
124220,note_off,,,,,92,0,10,,,,,2,,,76,100
124224,note_on,,,,,64,0,9,,,,,1,,,69,20
124224,note_on,,,,,64,0,11,,,,,3,,,69,20
124224,note_on,,,,,64,0,12,,,,,4,,,60,70
124224,note_on,,,,,4,0,10,,,,,2,,,77,90
124224,note_on,,,,,64,0,8,,,,,0,,,69,70
124288,note_off,,,,,64,0,10,,,,,2,,,77,100
124320,note_on,,,,,32,0,10,,,,,2,,,72,91
124352,note_off,,,,,128,0,9,,,,,1,,,69,100
124352,note_off,,,,,128,0,11,,,,,3,,,69,100
124352,note_off,,,,,128,0,12,,,,,4,,,60,100
124352,note_off,,,,,128,0,8,,,,,0,,,69,100
124384,note_off,,,,,64,0,10,,,,,2,,,72,100
124416,note_on,,,,,64,0,8,,,,,0,,,64,70
124416,note_on,,,,,64,0,11,,,,,3,,,64,20
124416,note_on,,,,,64,0,9,,,,,1,,,64,20
124416,note_on,,,,,64,0,12,,,,,4,,,60,70
124416,note_on,,,,,32,0,10,,,,,2,,,79,92
124508,note_off,,,,,92,0,10,,,,,2,,,79,100
124512,note_on,,,,,4,0,10,,,,,2,,,77,93
124544,note_off,,,,,128,0,11,,,,,3,,,64,100
124544,note_off,,,,,128,0,12,,,,,4,,,60,100
124544,note_off,,,,,128,0,8,,,,,0,,,64,100
124544,note_off,,,,,128,0,9,,,,,1,,,64,100
124604,note_off,,,,,92,0,10,,,,,2,,,77,100
124608,note_on,,,,,64,0,11,,,,,3,,,64,20
124608,note_on,,,,,64,0,12,,,,,4,,,60,70
124608,note_on,,,,,64,0,8,,,,,0,,,64,70
124608,note_on,,,,,4,0,10,,,,,2,,,79,94
124608,note_on,,,,,64,0,9,,,,,1,,,64,20
124672,note_off,,,,,64,0,10,,,,,2,,,79,100
124704,note_on,,,,,32,0,10,,,,,2,,,72,95
124736,note_off,,,,,128,0,11,,,,,3,,,64,100
124736,note_off,,,,,128,0,9,,,,,1,,,64,100
124736,note_off,,,,,128,0,8,,,,,0,,,64,100
124736,note_off,,,,,128,0,12,,,,,4,,,60,100
124768,note_off,,,,,64,0,10,,,,,2,,,72,100
124800,note_on,,,,,64,0,12,,,,,4,,,60,70
124800,note_on,,,,,64,0,9,,,,,1,,,65,20
124800,note_on,,,,,64,0,11,,,,,3,,,65,20
124800,note_on,,,,,32,0,10,,,,,2,,,81,96
124800,note_on,,,,,64,0,8,,,,,0,,,65,70
124892,note_off,,,,,92,0,10,,,,,2,,,81,100
124896,note_on,,,,,4,0,10,,,,,2,,,79,97
124928,note_off,,,,,128,0,9,,,,,1,,,65,100
124928,note_off,,,,,128,0,11,,,,,3,,,65,100
124928,note_off,,,,,128,0,8,,,,,0,,,65,100
124928,note_off,,,,,128,0,12,,,,,4,,,60,100
124988,note_off,,,,,92,0,10,,,,,2,,,79,100
124992,note_on,,,,,64,0,8,,,,,0,,,65,70
124992,note_on,,,,,4,0,10,,,,,2,,,81,98
124992,note_on,,,,,64,0,11,,,,,3,,,65,20
124992,note_on,,,,,64,0,9,,,,,1,,,65,20
124992,note_on,,,,,64,0,12,,,,,4,,,60,70
125056,note_off,,,,,64,0,10,,,,,2,,,81,100
125088,note_on,,,,,32,0,10,,,,,2,,,72,99
125120,note_off,,,,,128,0,8,,,,,0,,,65,100
125120,note_off,,,,,128,0,12,,,,,4,,,60,100
125120,note_off,,,,,128,0,11,,,,,3,,,65,100
125120,note_off,,,,,128,0,9,,,,,1,,,65,100
125152,note_off,,,,,64,0,10,,,,,2,,,72,100
125184,note_on,,,,,4352,0,15,,,,,7,,,67,100
125184,note_on,,,,,0,0,15,,,,,7,,,70,100
125184,note_on,,,,,32,0,10,,,,,2,,,82,49
125184,note_on,,,,,4352,0,16,,,,,7,,,48,100
125184,note_on,,,,,4352,0,14,,,,,6,,,36,85
125184,note_on,,,,,4352,0,13,,,,,5,,,48,85
125184,note_on,,,,,64,0,11,,,,,3,,,79,35
125184,note_on,,,,,64,0,8,,,,,0,,,82,85
125184,note_on,,,,,64,0,9,,,,,1,,,79,85
125184,note_on,,,,,64,0,12,,,,,4,,,64,85
125312,note_off,,,,,128,0,16,,,,,7,,,48,100
125312,note_off,,,,,128,0,14,,,,,6,,,36,100
125312,note_off,,,,,128,0,13,,,,,5,,,48,100
125312,note_off,,,,,128,0,15,,,,,7,,,67,100
125312,note_off,,,,,0,0,15,,,,,7,,,70,100
125376,note_on,,,,,64,0,13,,,,,5,,,50,85
125376,note_on,,,,,64,0,16,,,,,7,,,50,100
125376,note_on,,,,,64,0,14,,,,,6,,,38,85
125376,note_on,,,,,0,0,15,,,,,7,,,72,100
125376,note_on,,,,,64,0,15,,,,,7,,,67,100
125504,note_off,,,,,128,0,14,,,,,6,,,38,100
125504,note_off,,,,,128,0,16,,,,,7,,,50,100
125504,note_off,,,,,128,0,13,,,,,5,,,50,100
125504,note_off,,,,,128,0,15,,,,,7,,,67,100
125504,note_off,,,,,0,0,15,,,,,7,,,72,100
125568,note_on,,,,,64,0,15,,,,,7,,,70,100
125568,note_on,,,,,0,0,15,,,,,7,,,72,100
125568,note_off,,,,,384,0,10,,,,,2,,,82,100
125568,note_off,,,,,384,0,12,,,,,4,,,64,100
125568,note_on,,,,,64,0,16,,,,,7,,,52,100
125568,note_on,,,,,64,0,13,,,,,5,,,52,85
125568,note_on,,,,,64,0,14,,,,,6,,,40,85
125568,note_off,,,,,384,0,9,,,,,1,,,79,100
125568,note_off,,,,,384,0,8,,,,,0,,,82,100
125568,note_off,,,,,384,0,11,,,,,3,,,79,100
125696,note_off,,,,,128,0,15,,,,,7,,,70,100
125696,note_off,,,,,128,0,13,,,,,5,,,52,100
125696,note_off,,,,,128,0,16,,,,,7,,,52,100
125696,note_off,,,,,0,0,15,,,,,7,,,72,100
125696,note_off,,,,,128,0,14,,,,,6,,,40,100
125760,note_on,,,,,64,0,16,,,,,7,,,48,100
125760,note_on,,,,,64,0,15,,,,,7,,,67,100
125760,note_on,,,,,192,0,11,,,,,3,,,77,35
125760,note_on,,,,,192,0,9,,,,,1,,,77,85
125760,note_on,,,,,0,0,15,,,,,7,,,70,100
125760,note_on,,,,,192,0,8,,,,,0,,,81,85
125760,note_on,,,,,64,0,14,,,,,6,,,36,85
125760,note_on,,,,,192,0,10,,,,,2,,,81,35
125760,note_on,,,,,192,0,12,,,,,4,,,64,85
125760,note_on,,,,,64,0,13,,,,,5,,,48,85
125824,note_off,,,,,64,0,11,,,,,3,,,77,100
125824,note_off,,,,,64,0,9,,,,,1,,,77,100
125824,note_off,,,,,64,0,8,,,,,0,,,81,100
125824,note_off,,,,,64,0,10,,,,,2,,,81,100
125856,note_on,,,,,32,0,11,,,,,3,,,76,35
125856,note_on,,,,,32,0,10,,,,,2,,,79,35
125856,note_on,,,,,32,0,9,,,,,1,,,76,85
125856,note_on,,,,,32,0,8,,,,,0,,,79,85
125888,note_off,,,,,128,0,15,,,,,7,,,67,100
125888,note_off,,,,,128,0,12,,,,,4,,,64,100
125888,note_off,,,,,128,0,14,,,,,6,,,36,100
125888,note_off,,,,,0,0,15,,,,,7,,,70,100
125888,note_off,,,,,128,0,16,,,,,7,,,48,100
125888,note_off,,,,,128,0,13,,,,,5,,,48,100
125920,note_off,,,,,64,0,9,,,,,1,,,76,100
125920,note_off,,,,,64,0,11,,,,,3,,,76,100
125920,note_off,,,,,64,0,10,,,,,2,,,79,100
125920,note_off,,,,,64,0,8,,,,,0,,,79,100
125952,note_on,,,,,0,0,15,,,,,7,,,69,100
125952,note_on,,,,,64,0,12,,,,,4,,,60,85
125952,note_on,,,,,32,0,8,,,,,0,,,81,85
125952,note_on,,,,,64,0,13,,,,,5,,,53,85
125952,note_on,,,,,64,0,14,,,,,6,,,41,85
125952,note_on,,,,,64,0,15,,,,,7,,,72,100
125952,note_on,,,,,32,0,10,,,,,2,,,81,35
125952,note_on,,,,,32,0,9,,,,,1,,,77,85
125952,note_on,,,,,64,0,16,,,,,7,,,53,100
125952,note_on,,,,,32,0,11,,,,,3,,,77,35
126080,note_off,,,,,128,0,13,,,,,5,,,53,100
126080,note_off,,,,,0,0,15,,,,,7,,,69,100
126080,note_off,,,,,128,0,16,,,,,7,,,53,100
126080,note_off,,,,,128,0,14,,,,,6,,,41,100
126080,note_off,,,,,128,0,8,,,,,0,,,81,100
126080,note_off,,,,,128,0,15,,,,,7,,,72,100
126080,note_off,,,,,128,0,10,,,,,2,,,81,100
126080,note_off,,,,,128,0,11,,,,,3,,,77,100
126080,note_off,,,,,128,0,12,,,,,4,,,60,100
126080,note_off,,,,,128,0,9,,,,,1,,,77,100
126144,note_on,,,,,64,0,9,,,,,1,,,74,85
126144,note_on,,,,,64,0,11,,,,,3,,,74,35
126144,note_on,,,,,64,0,15,,,,,7,,,65,100
126144,note_on,,,,,0,0,15,,,,,7,,,74,100
126144,note_on,,,,,64,0,10,,,,,2,,,77,35
126144,note_on,,,,,64,0,13,,,,,5,,,58,85
126144,note_on,,,,,64,0,16,,,,,7,,,58,100
126144,note_on,,,,,64,0,8,,,,,0,,,77,85
126144,note_on,,,,,64,0,12,,,,,4,,,62,85
126144,note_on,,,,,64,0,14,,,,,6,,,46,85
126272,note_off,,,,,128,0,15,,,,,7,,,65,100
126272,note_off,,,,,0,0,15,,,,,7,,,74,100
126272,note_off,,,,,128,0,11,,,,,3,,,74,100
126272,note_off,,,,,128,0,12,,,,,4,,,62,100
126272,note_off,,,,,128,0,8,,,,,0,,,77,100
126272,note_off,,,,,128,0,9,,,,,1,,,74,100
126272,note_off,,,,,128,0,13,,,,,5,,,58,100
126272,note_off,,,,,128,0,16,,,,,7,,,58,100
126272,note_off,,,,,128,0,10,,,,,2,,,77,100
126272,note_off,,,,,128,0,14,,,,,6,,,46,100
126336,note_on,,,,,64,0,9,,,,,1,,,64,85
126336,note_on,,,,,64,0,13,,,,,5,,,60,85
126336,note_on,,,,,64,0,16,,,,,7,,,60,100
126336,note_on,,,,,64,0,8,,,,,0,,,67,85
126336,note_on,,,,,64,0,12,,,,,4,,,60,85
126336,note_on,,,,,64,0,11,,,,,3,,,64,35
126336,note_on,,,,,64,0,14,,,,,6,,,48,85
126336,note_on,,,,,0,0,15,,,,,7,,,67,100
126336,note_on,,,,,64,0,15,,,,,7,,,65,100
126336,note_on,,,,,64,0,10,,,,,2,,,67,35
126464,note_off,,,,,128,0,11,,,,,3,,,64,100
126464,note_off,,,,,128,0,10,,,,,2,,,67,100
126464,note_off,,,,,128,0,12,,,,,4,,,60,100
126464,note_off,,,,,128,0,8,,,,,0,,,67,100
126464,note_off,,,,,128,0,9,,,,,1,,,64,100
126464,note_off,,,,,128,0,16,,,,,7,,,60,100
126464,note_off,,,,,128,0,15,,,,,7,,,65,100
126464,note_off,,,,,128,0,13,,,,,5,,,60,100
126464,note_off,,,,,0,0,15,,,,,7,,,67,100
126464,note_off,,,,,128,0,14,,,,,6,,,48,100
126528,note_on,,,,,64,0,14,,,,,6,,,36,85
126528,note_on,,,,,64,0,11,,,,,3,,,72,35
126528,note_on,,,,,64,0,13,,,,,5,,,48,85
126528,note_on,,,,,64,0,10,,,,,2,,,76,35
126528,note_on,,,,,64,0,12,,,,,4,,,60,85
126528,note_on,,,,,64,0,15,,,,,7,,,64,100
126528,note_on,,,,,64,0,9,,,,,1,,,72,85
126528,note_on,,,,,0,0,15,,,,,7,,,67,100
126528,note_on,,,,,64,0,16,,,,,7,,,48,100
126528,note_on,,,,,64,0,8,,,,,0,,,76,85
126656,note_off,,,,,128,0,8,,,,,0,,,76,100
126656,note_off,,,,,128,0,14,,,,,6,,,36,100
126656,note_off,,,,,128,0,11,,,,,3,,,72,100
126656,note_off,,,,,128,0,13,,,,,5,,,48,100
126656,note_off,,,,,128,0,10,,,,,2,,,76,100
126656,note_off,,,,,128,0,16,,,,,7,,,48,100
126656,note_off,,,,,128,0,12,,,,,4,,,60,100
126656,note_off,,,,,128,0,15,,,,,7,,,64,100
126656,note_off,,,,,128,0,9,,,,,1,,,72,100
126656,note_off,,,,,0,0,15,,,,,7,,,67,100
126720,note_on,,,,,64,0,15,,,,,7,,,60,100
126720,note_on,,,,,0,0,15,,,,,7,,,69,100
126720,note_on,,,,,64,0,16,,,,,7,,,41,100
126720,note_on,,,,,64,0,9,,,,,1,,,69,85
126720,note_on,,,,,64,0,11,,,,,3,,,69,35
126720,note_on,,,,,64,0,14,,,,,6,,,41,85
126720,note_on,,,,,64,0,8,,,,,0,,,77,85
126720,note_on,,,,,64,0,12,,,,,4,,,60,85
126720,note_on,,,,,64,0,13,,,,,5,,,41,85
126720,note_on,,,,,64,0,10,,,,,2,,,77,35
126976,note_off,,,,,256,0,9,,,,,1,,,69,100
126976,note_off,,,,,256,0,13,,,,,5,,,41,100
126976,note_off,,,,,256,0,16,,,,,7,,,41,100
126976,note_off,,,,,256,0,8,,,,,0,,,77,100
126976,note_off,,,,,256,0,14,,,,,6,,,41,100
126976,note_off,,,,,256,0,15,,,,,7,,,60,100
126976,note_off,,,,,0,0,15,,,,,7,,,69,100
126976,note_off,,,,,256,0,10,,,,,2,,,77,100
126976,note_off,,,,,256,0,12,,,,,4,,,60,100
126976,note_off,,,,,256,0,11,,,,,3,,,69,100
127104,program_change,,,,,128,0,8,,,,,0,40,,,
127296,note_on,,,,,192,0,8,,,,,0,,,72,70
127424,note_off,,,,,128,0,8,,,,,0,,,72,100
127488,note_on,,,,,512,0,9,,,,,1,,,64,50
127488,note_on,,,,,64,0,8,,,,,0,,,79,70
127488,note_on,,,,,512,0,12,,,,,4,,,60,50
127580,note_off,,,,,92,0,8,,,,,0,,,79,100
127584,note_on,,,,,4,0,8,,,,,0,,,77,70
127616,note_off,,,,,128,0,12,,,,,4,,,60,100
127616,note_off,,,,,128,0,9,,,,,1,,,64,100
127676,note_off,,,,,92,0,8,,,,,0,,,77,100
127680,note_on,,,,,64,0,9,,,,,1,,,64,50
127680,note_on,,,,,64,0,12,,,,,4,,,60,50
127680,note_on,,,,,4,0,8,,,,,0,,,79,70
127744,note_off,,,,,64,0,8,,,,,0,,,79,100
127776,note_on,,,,,32,0,8,,,,,0,,,72,70
127808,note_off,,,,,128,0,9,,,,,1,,,64,100
127808,note_off,,,,,128,0,12,,,,,4,,,60,100
127840,note_off,,,,,64,0,8,,,,,0,,,72,100
127872,note_on,,,,,32,0,8,,,,,0,,,81,70
127872,note_on,,,,,64,0,9,,,,,1,,,65,50
127872,note_on,,,,,64,0,12,,,,,4,,,60,50
127964,note_off,,,,,92,0,8,,,,,0,,,81,100
127968,note_on,,,,,4,0,8,,,,,0,,,79,70
128000,note_off,,,,,128,0,9,,,,,1,,,65,100
128000,note_off,,,,,128,0,12,,,,,4,,,60,100
128060,note_off,,,,,92,0,8,,,,,0,,,79,100
128064,note_on,,,,,64,0,12,,,,,4,,,60,50
128064,note_on,,,,,64,0,9,,,,,1,,,65,50
128064,note_on,,,,,4,0,8,,,,,0,,,81,70
128128,note_off,,,,,64,0,8,,,,,0,,,81,100
128160,note_on,,,,,32,0,8,,,,,0,,,72,70
128192,note_off,,,,,128,0,9,,,,,1,,,65,100
128192,note_off,,,,,128,0,12,,,,,4,,,60,100
128224,note_off,,,,,64,0,8,,,,,0,,,72,100
128256,note_on,,,,,32,0,8,,,,,0,,,79,70
128256,note_on,,,,,64,0,12,,,,,4,,,60,50
128256,note_on,,,,,64,0,9,,,,,1,,,64,50
128348,note_off,,,,,92,0,8,,,,,0,,,79,100
128352,note_on,,,,,4,0,8,,,,,0,,,77,70
128384,note_off,,,,,128,0,9,,,,,1,,,64,100
128384,note_off,,,,,128,0,12,,,,,4,,,60,100
128444,note_off,,,,,92,0,8,,,,,0,,,77,100
128448,note_on,,,,,4,0,8,,,,,0,,,79,70
128448,note_on,,,,,64,0,12,,,,,4,,,60,50
128448,note_on,,,,,64,0,9,,,,,1,,,64,50
128512,note_off,,,,,64,0,8,,,,,0,,,79,100
128544,note_on,,,,,32,0,8,,,,,0,,,72,70
128576,note_off,,,,,128,0,12,,,,,4,,,60,100
128576,note_off,,,,,128,0,9,,,,,1,,,64,100
128608,note_off,,,,,64,0,8,,,,,0,,,72,100
128640,note_on,,,,,32,0,8,,,,,0,,,77,70
128640,note_on,,,,,64,0,12,,,,,4,,,60,50
128640,note_on,,,,,64,0,9,,,,,1,,,69,50
128732,note_off,,,,,92,0,8,,,,,0,,,77,100
128736,note_on,,,,,4,0,8,,,,,0,,,76,70
128768,note_off,,,,,128,0,9,,,,,1,,,69,100
128768,note_off,,,,,128,0,12,,,,,4,,,60,100
128828,note_off,,,,,92,0,8,,,,,0,,,76,100
128832,note_on,,,,,4,0,8,,,,,0,,,77,70
128832,note_on,,,,,64,0,9,,,,,1,,,69,50
128832,note_on,,,,,64,0,12,,,,,4,,,60,50
128896,note_off,,,,,64,0,8,,,,,0,,,77,100
128928,note_on,,,,,32,0,8,,,,,0,,,72,70
128960,note_off,,,,,128,0,9,,,,,1,,,69,100
128960,note_off,,,,,128,0,12,,,,,4,,,60,100
128992,note_off,,,,,64,0,8,,,,,0,,,72,100
129024,note_on,,,,,64,0,9,,,,,1,,,64,50
129024,note_on,,,,,32,0,8,,,,,0,,,79,70
129024,note_on,,,,,64,0,12,,,,,4,,,60,50
129116,note_off,,,,,92,0,8,,,,,0,,,79,100
129120,note_on,,,,,4,0,8,,,,,0,,,77,70
129152,note_off,,,,,128,0,12,,,,,4,,,60,100
129152,note_off,,,,,128,0,9,,,,,1,,,64,100
129212,note_off,,,,,92,0,8,,,,,0,,,77,100
129216,note_on,,,,,2240,0,11,,,,,3,,,64,4
129216,note_on,,,,,64,0,9,,,,,1,,,64,54
129216,note_on,,,,,2240,0,10,,,,,2,,,64,4
129216,note_on,,,,,64,0,12,,,,,4,,,60,54
129216,note_on,,,,,4,0,8,,,,,0,,,79,70
129280,note_off,,,,,64,0,8,,,,,0,,,79,100
129312,note_on,,,,,32,0,8,,,,,0,,,72,70
129344,note_off,,,,,128,0,11,,,,,3,,,64,100
129344,note_off,,,,,128,0,12,,,,,4,,,60,100
129344,note_off,,,,,128,0,10,,,,,2,,,64,100
129344,note_off,,,,,128,0,9,,,,,1,,,64,100
129376,note_off,,,,,64,0,8,,,,,0,,,72,100
129408,note_on,,,,,32,0,8,,,,,0,,,81,70
129408,note_on,,,,,64,0,11,,,,,3,,,65,8
129408,note_on,,,,,64,0,12,,,,,4,,,60,58
129408,note_on,,,,,64,0,10,,,,,2,,,65,8
129408,note_on,,,,,64,0,9,,,,,1,,,65,58
129500,note_off,,,,,92,0,8,,,,,0,,,81,100
129504,note_on,,,,,4,0,8,,,,,0,,,79,70
129536,note_off,,,,,128,0,10,,,,,2,,,65,100
129536,note_off,,,,,128,0,9,,,,,1,,,65,100
129536,note_off,,,,,128,0,11,,,,,3,,,65,100
129536,note_off,,,,,128,0,12,,,,,4,,,60,100
129596,note_off,,,,,92,0,8,,,,,0,,,79,100
129600,note_on,,,,,64,0,11,,,,,3,,,65,12
129600,note_on,,,,,64,0,9,,,,,1,,,65,62
129600,note_on,,,,,64,0,12,,,,,4,,,60,62
129600,note_on,,,,,64,0,10,,,,,2,,,65,12
129600,note_on,,,,,4,0,8,,,,,0,,,81,70
129664,note_off,,,,,64,0,8,,,,,0,,,81,100
129696,note_on,,,,,32,0,8,,,,,0,,,72,70
129728,note_off,,,,,128,0,11,,,,,3,,,65,100
129728,note_off,,,,,128,0,10,,,,,2,,,65,100
129728,note_off,,,,,128,0,9,,,,,1,,,65,100
129728,note_off,,,,,128,0,12,,,,,4,,,60,100
129760,note_off,,,,,64,0,8,,,,,0,,,72,100
129792,note_on,,,,,64,0,9,,,,,1,,,64,66
129792,note_on,,,,,64,0,11,,,,,3,,,64,16
129792,note_on,,,,,32,0,8,,,,,0,,,79,70
129792,note_on,,,,,64,0,10,,,,,2,,,64,16
129792,note_on,,,,,64,0,12,,,,,4,,,60,66
129884,note_off,,,,,92,0,8,,,,,0,,,79,100
129888,note_on,,,,,4,0,8,,,,,0,,,77,71
129920,note_off,,,,,128,0,11,,,,,3,,,64,100
129920,note_off,,,,,128,0,9,,,,,1,,,64,100
129920,note_off,,,,,128,0,10,,,,,2,,,64,100
129920,note_off,,,,,128,0,12,,,,,4,,,60,100
129980,note_off,,,,,92,0,8,,,,,0,,,77,100
129984,note_on,,,,,64,0,12,,,,,4,,,60,70
129984,note_on,,,,,4,0,8,,,,,0,,,79,73
129984,note_on,,,,,64,0,11,,,,,3,,,64,20
129984,note_on,,,,,64,0,9,,,,,1,,,64,70
129984,note_on,,,,,64,0,10,,,,,2,,,64,20
130048,note_off,,,,,64,0,8,,,,,0,,,79,100
130080,note_on,,,,,32,0,8,,,,,0,,,72,75
130112,note_off,,,,,128,0,9,,,,,1,,,64,100
130112,note_off,,,,,128,0,11,,,,,3,,,64,100
130112,note_off,,,,,128,0,10,,,,,2,,,64,100
130112,note_off,,,,,128,0,12,,,,,4,,,60,100
130144,note_off,,,,,64,0,8,,,,,0,,,72,100
130176,note_on,,,,,64,0,10,,,,,2,,,69,24
130176,note_on,,,,,64,0,12,,,,,4,,,60,74
130176,note_on,,,,,64,0,9,,,,,1,,,69,74
130176,note_on,,,,,64,0,11,,,,,3,,,69,24
130176,note_on,,,,,32,0,8,,,,,0,,,77,77
130268,note_off,,,,,92,0,8,,,,,0,,,77,100
130272,note_on,,,,,4,0,8,,,,,0,,,76,79
130304,note_off,,,,,128,0,11,,,,,3,,,69,100
130304,note_off,,,,,128,0,9,,,,,1,,,69,100
130304,note_off,,,,,128,0,12,,,,,4,,,60,100
130304,note_off,,,,,128,0,10,,,,,2,,,69,100
130364,note_off,,,,,92,0,8,,,,,0,,,76,100
130368,note_on,,,,,64,0,9,,,,,1,,,69,79
130368,note_on,,,,,64,0,10,,,,,2,,,69,29
130368,note_on,,,,,4,0,8,,,,,0,,,77,81
130368,note_on,,,,,64,0,12,,,,,4,,,60,79
130368,note_on,,,,,64,0,11,,,,,3,,,69,29
130432,note_off,,,,,64,0,8,,,,,0,,,77,100
130464,note_on,,,,,32,0,8,,,,,0,,,72,83
130496,note_off,,,,,128,0,10,,,,,2,,,69,100
130496,note_off,,,,,128,0,11,,,,,3,,,69,100
130496,note_off,,,,,128,0,12,,,,,4,,,60,100
130496,note_off,,,,,128,0,9,,,,,1,,,69,100
130528,note_off,,,,,64,0,8,,,,,0,,,72,100
130560,note_on,,,,,32,0,8,,,,,0,,,79,84
130560,note_on,,,,,64,0,9,,,,,1,,,64,83
130560,note_on,,,,,64,0,10,,,,,2,,,64,33
130560,set_tempo,,,,,112128,1,0,,500000,,,,,,,
130560,note_on,,,,,64,0,12,,,,,4,,,60,83
130560,note_on,,,,,64,0,11,,,,,3,,,64,33
130636,set_tempo,,,,,76,1,0,,504201,,,,,,,
130652,note_off,,,,,92,0,8,,,,,0,,,79,100
130656,note_on,,,,,4,0,8,,,,,0,,,77,86
130688,note_off,,,,,128,0,10,,,,,2,,,64,100
130688,note_off,,,,,128,0,9,,,,,1,,,64,100
130688,note_off,,,,,128,0,11,,,,,3,,,64,100
130688,note_off,,,,,128,0,12,,,,,4,,,60,100
130712,set_tempo,,,,,76,1,0,,508474,,,,,,,
130748,note_off,,,,,92,0,8,,,,,0,,,77,100
130752,note_on,,,,,64,0,10,,,,,2,,,64,37
130752,note_on,,,,,64,0,11,,,,,3,,,64,37
130752,note_on,,,,,4,0,8,,,,,0,,,79,88
130752,note_on,,,,,64,0,9,,,,,1,,,64,87
130752,note_on,,,,,64,0,12,,,,,4,,,60,87
130788,set_tempo,,,,,76,1,0,,512820,,,,,,,
130816,note_off,,,,,64,0,8,,,,,0,,,79,100
130848,note_on,,,,,32,0,8,,,,,0,,,72,90
130864,set_tempo,,,,,76,1,0,,517241,,,,,,,
130880,note_off,,,,,128,0,11,,,,,3,,,64,100
130880,note_off,,,,,128,0,12,,,,,4,,,60,100
130880,note_off,,,,,128,0,9,,,,,1,,,64,100
130880,note_off,,,,,128,0,10,,,,,2,,,64,100
130912,note_off,,,,,64,0,8,,,,,0,,,72,100
130944,note_on,,,,,32,0,8,,,,,0,,,81,92
130944,note_on,,,,,64,0,12,,,,,4,,,60,91
130944,note_on,,,,,64,0,11,,,,,3,,,65,41
130944,note_on,,,,,64,0,9,,,,,1,,,65,91
130944,note_on,,,,,64,0,10,,,,,2,,,65,41
130944,set_tempo,,,,,80,1,0,,521739,,,,,,,
131020,set_tempo,,,,,76,1,0,,526315,,,,,,,
131036,note_off,,,,,92,0,8,,,,,0,,,81,100
131040,note_on,,,,,4,0,8,,,,,0,,,79,94
131072,note_off,,,,,128,0,11,,,,,3,,,65,100
131072,note_off,,,,,128,0,10,,,,,2,,,65,100
131072,note_off,,,,,128,0,9,,,,,1,,,65,100
131072,note_off,,,,,128,0,12,,,,,4,,,60,100
131096,set_tempo,,,,,76,1,0,,530973,,,,,,,
131132,note_off,,,,,92,0,8,,,,,0,,,79,100
131136,note_on,,,,,64,0,10,,,,,2,,,65,45
131136,note_on,,,,,64,0,11,,,,,3,,,65,45
131136,note_on,,,,,4,0,8,,,,,0,,,81,96
131136,note_on,,,,,64,0,9,,,,,1,,,65,95
131136,note_on,,,,,64,0,12,,,,,4,,,60,95
131172,set_tempo,,,,,76,1,0,,535714,,,,,,,
131200,note_off,,,,,64,0,8,,,,,0,,,81,100
131232,note_on,,,,,32,0,8,,,,,0,,,72,98
131248,set_tempo,,,,,76,1,0,,540540,,,,,,,
131264,note_off,,,,,128,0,9,,,,,1,,,65,100
131264,note_off,,,,,128,0,11,,,,,3,,,65,100
131264,note_off,,,,,128,0,10,,,,,2,,,65,100
131264,note_off,,,,,128,0,12,,,,,4,,,60,100
131296,note_off,,,,,64,0,8,,,,,0,,,72,100
131320,program_change,,,,,24,0,8,,,,,0,48,,,
131328,note_on,,,,,4352,0,15,,,,,7,,,67,100
131328,set_tempo,,,,,80,1,0,,545454,,,,,,,
131328,note_on,,,,,0,0,15,,,,,7,,,70,100
131328,note_on,,,,,64,0,9,,,,,1,,,79,99
131328,note_on,,,,,64,0,12,,,,,4,,,64,99
131328,note_on,,,,,4352,0,16,,,,,7,,,48,100
131328,note_on,,,,,64,0,10,,,,,2,,,82,49
131328,note_on,,,,,64,0,11,,,,,3,,,79,49
131328,note_on,,,,,4352,0,14,,,,,6,,,36,100
131328,note_on,,,,,4352,0,13,,,,,5,,,48,100
131328,note_on,,,,,8,0,8,,,,,0,,,82,99
131404,set_tempo,,,,,76,1,0,,550458,,,,,,,
131456,note_off,,,,,128,0,16,,,,,7,,,48,100
131456,note_off,,,,,128,0,14,,,,,6,,,36,100
131456,note_off,,,,,128,0,15,,,,,7,,,67,100
131456,note_off,,,,,0,0,15,,,,,7,,,70,100
131456,note_off,,,,,128,0,13,,,,,5,,,48,100
131480,set_tempo,,,,,76,1,0,,555555,,,,,,,
131520,note_on,,,,,64,0,16,,,,,7,,,50,100
131520,note_on,,,,,64,0,14,,,,,6,,,38,100
131520,note_on,,,,,64,0,13,,,,,5,,,50,100
131520,note_on,,,,,0,0,15,,,,,7,,,72,100
131520,note_on,,,,,64,0,15,,,,,7,,,67,100
131556,set_tempo,,,,,76,1,0,,560747,,,,,,,
131632,set_tempo,,,,,76,1,0,,566037,,,,,,,
131648,note_off,,,,,128,0,14,,,,,6,,,38,100
131648,note_off,,,,,128,0,16,,,,,7,,,50,100
131648,note_off,,,,,128,0,15,,,,,7,,,67,100
131648,note_off,,,,,0,0,15,,,,,7,,,72,100
131648,note_off,,,,,128,0,13,,,,,5,,,50,100
131712,note_on,,,,,64,0,14,,,,,6,,,40,100
131712,note_off,,,,,384,0,12,,,,,4,,,64,100
131712,set_tempo,,,,,80,1,0,,571428,,,,,,,
131712,note_on,,,,,64,0,15,,,,,7,,,70,100
131712,note_on,,,,,64,0,13,,,,,5,,,52,100
131712,note_on,,,,,0,0,15,,,,,7,,,72,100
131712,note_off,,,,,384,0,10,,,,,2,,,82,100
131712,note_off,,,,,384,0,8,,,,,0,,,82,100
131712,note_off,,,,,384,0,11,,,,,3,,,79,100
131712,note_on,,,,,64,0,16,,,,,7,,,52,100
131712,note_off,,,,,384,0,9,,,,,1,,,79,100
131788,set_tempo,,,,,76,1,0,,576923,,,,,,,
131840,note_off,,,,,128,0,13,,,,,5,,,52,100
131840,note_off,,,,,128,0,15,,,,,7,,,70,100
131840,note_off,,,,,0,0,15,,,,,7,,,72,100
131840,note_off,,,,,128,0,16,,,,,7,,,52,100
131840,note_off,,,,,128,0,14,,,,,6,,,40,100
131864,set_tempo,,,,,76,1,0,,582524,,,,,,,
131904,note_on,,,,,192,0,11,,,,,3,,,77,50
131904,note_on,,,,,64,0,16,,,,,7,,,48,100
131904,note_on,,,,,64,0,15,,,,,7,,,67,100
131904,note_on,,,,,0,0,15,,,,,7,,,70,100
131904,note_on,,,,,192,0,10,,,,,2,,,81,50
131904,note_on,,,,,192,0,12,,,,,4,,,64,100
131904,note_on,,,,,192,0,8,,,,,0,,,81,100
131904,note_on,,,,,192,0,9,,,,,1,,,77,100
131904,note_on,,,,,64,0,14,,,,,6,,,36,100
131904,note_on,,,,,64,0,13,,,,,5,,,48,100
131940,set_tempo,,,,,76,1,0,,588235,,,,,,,
131968,note_off,,,,,64,0,11,,,,,3,,,77,100
131968,note_off,,,,,64,0,9,,,,,1,,,77,100
131968,note_off,,,,,64,0,8,,,,,0,,,81,100
131968,note_off,,,,,64,0,10,,,,,2,,,81,100
132000,note_on,,,,,32,0,10,,,,,2,,,79,50
132000,note_on,,,,,32,0,11,,,,,3,,,76,50
132000,note_on,,,,,32,0,8,,,,,0,,,79,100
132000,note_on,,,,,32,0,9,,,,,1,,,76,100
132016,set_tempo,,,,,76,1,0,,594059,,,,,,,
132032,note_off,,,,,128,0,16,,,,,7,,,48,100
132032,note_off,,,,,0,0,15,,,,,7,,,70,100
132032,note_off,,,,,128,0,14,,,,,6,,,36,100
132032,note_off,,,,,128,0,13,,,,,5,,,48,100
132032,note_off,,,,,128,0,12,,,,,4,,,64,100
132032,note_off,,,,,128,0,15,,,,,7,,,67,100
132064,note_off,,,,,64,0,8,,,,,0,,,79,100
132064,note_off,,,,,64,0,11,,,,,3,,,76,100
132064,note_off,,,,,64,0,10,,,,,2,,,79,100
132064,note_off,,,,,64,0,9,,,,,1,,,76,100
132096,set_tempo,,,,,80,1,0,,659340,,,,,,,
132096,note_on,,,,,64,0,14,,,,,6,,,41,100
132096,note_on,,,,,32,0,10,,,,,2,,,81,50
132096,note_on,,,,,64,0,12,,,,,4,,,60,100
132096,note_on,,,,,32,0,9,,,,,1,,,77,100
132096,note_on,,,,,64,0,16,,,,,7,,,53,100
132096,note_on,,,,,0,0,15,,,,,7,,,69,100
132096,note_on,,,,,64,0,15,,,,,7,,,72,100
132096,note_on,,,,,32,0,8,,,,,0,,,81,100
132096,note_on,,,,,32,0,11,,,,,3,,,77,50
132096,note_on,,,,,64,0,13,,,,,5,,,53,100
132152,set_tempo,,,,,56,1,0,,606060,,,,,,,
132208,set_tempo,,,,,56,1,0,,612244,,,,,,,
132224,note_off,,,,,128,0,9,,,,,1,,,77,100
132224,note_off,,,,,128,0,8,,,,,0,,,81,100
132224,note_off,,,,,128,0,10,,,,,2,,,81,100
132224,note_off,,,,,0,0,15,,,,,7,,,69,100
132224,note_off,,,,,128,0,13,,,,,5,,,53,100
132224,note_off,,,,,128,0,15,,,,,7,,,72,100
132224,note_off,,,,,128,0,14,,,,,6,,,41,100
132224,note_off,,,,,128,0,11,,,,,3,,,77,100
132224,note_off,,,,,128,0,16,,,,,7,,,53,100
132224,note_off,,,,,128,0,12,,,,,4,,,60,100
132268,set_tempo,,,,,60,1,0,,618556,,,,,,,
132288,note_on,,,,,64,0,13,,,,,5,,,58,100
132288,note_on,,,,,64,0,12,,,,,4,,,62,100
132288,note_on,,,,,64,0,9,,,,,1,,,74,100
132288,note_on,,,,,64,0,11,,,,,3,,,74,50
132288,note_on,,,,,64,0,15,,,,,7,,,65,100
132288,note_on,,,,,0,0,15,,,,,7,,,74,100
132288,note_on,,,,,64,0,14,,,,,6,,,46,100
132288,note_on,,,,,64,0,10,,,,,2,,,77,50
132288,note_on,,,,,64,0,16,,,,,7,,,58,100
132288,note_on,,,,,64,0,8,,,,,0,,,77,100
132324,set_tempo,,,,,56,1,0,,625000,,,,,,,
132384,set_tempo,,,,,60,1,0,,631578,,,,,,,
132416,note_off,,,,,128,0,12,,,,,4,,,62,100
132416,note_off,,,,,128,0,16,,,,,7,,,58,100
132416,note_off,,,,,128,0,14,,,,,6,,,46,100
132416,note_off,,,,,128,0,8,,,,,0,,,77,100
132416,note_off,,,,,128,0,13,,,,,5,,,58,100
132416,note_off,,,,,128,0,10,,,,,2,,,77,100
132416,note_off,,,,,128,0,15,,,,,7,,,65,100
132416,note_off,,,,,128,0,9,,,,,1,,,74,100
132416,note_off,,,,,128,0,11,,,,,3,,,74,100
132416,note_off,,,,,0,0,15,,,,,7,,,74,100
132440,set_tempo,,,,,56,1,0,,638297,,,,,,,
132480,note_on,,,,,64,0,15,,,,,7,,,65,100
132480,note_on,,,,,64,0,11,,,,,3,,,64,50
132480,note_on,,,,,64,0,13,,,,,5,,,60,100
132480,note_on,,,,,64,0,10,,,,,2,,,67,50
132480,note_on,,,,,0,0,15,,,,,7,,,67,100
132480,note_on,,,,,64,0,8,,,,,0,,,67,100
132480,note_on,,,,,64,0,16,,,,,7,,,60,100
132480,note_on,,,,,64,0,14,,,,,6,,,48,100
132480,note_on,,,,,64,0,9,,,,,1,,,64,100
132480,note_on,,,,,64,0,12,,,,,4,,,60,100
132496,set_tempo,,,,,56,1,0,,645161,,,,,,,
132556,set_tempo,,,,,60,1,0,,652173,,,,,,,
132608,note_off,,,,,128,0,9,,,,,1,,,64,100
132608,note_off,,,,,128,0,16,,,,,7,,,60,100
132608,note_off,,,,,128,0,14,,,,,6,,,48,100
132608,note_off,,,,,128,0,13,,,,,5,,,60,100
132608,note_off,,,,,0,0,15,,,,,7,,,67,100
132608,note_off,,,,,128,0,11,,,,,3,,,64,100
132608,note_off,,,,,128,0,15,,,,,7,,,65,100
132608,note_off,,,,,128,0,10,,,,,2,,,67,100
132608,note_off,,,,,128,0,8,,,,,0,,,67,100
132608,note_off,,,,,128,0,12,,,,,4,,,60,100
132612,set_tempo,,,,,56,1,0,,659340,,,,,,,
132672,set_tempo,,,,,60,1,0,,666666,,,,,,,
132672,note_on,,,,,64,0,9,,,,,1,,,72,100
132672,note_on,,,,,64,0,16,,,,,7,,,48,100
132672,note_on,,,,,64,0,8,,,,,0,,,76,100
132672,note_on,,,,,64,0,10,,,,,2,,,76,50
132672,note_on,,,,,64,0,11,,,,,3,,,72,50
132672,note_on,,,,,64,0,13,,,,,5,,,48,100
132672,note_on,,,,,64,0,12,,,,,4,,,60,100
132672,note_on,,,,,64,0,15,,,,,7,,,64,100
132672,note_on,,,,,0,0,15,,,,,7,,,67,100
132672,note_on,,,,,64,0,14,,,,,6,,,36,100
132680,set_tempo,,,,,8,1,0,,674157,,,,,,,
132688,set_tempo,,,,,8,1,0,,681818,,,,,,,
132700,set_tempo,,,,,12,1,0,,689655,,,,,,,
132708,set_tempo,,,,,8,1,0,,697674,,,,,,,
132720,set_tempo,,,,,12,1,0,,705882,,,,,,,
132728,set_tempo,,,,,8,1,0,,714285,,,,,,,
132736,set_tempo,,,,,8,1,0,,722891,,,,,,,
132748,set_tempo,,,,,12,1,0,,731707,,,,,,,
132756,set_tempo,,,,,8,1,0,,740740,,,,,,,
132768,set_tempo,,,,,12,1,0,,750000,,,,,,,
132776,set_tempo,,,,,8,1,0,,759493,,,,,,,
132784,set_tempo,,,,,8,1,0,,769230,,,,,,,
132796,set_tempo,,,,,12,1,0,,779220,,,,,,,
132800,note_off,,,,,128,0,8,,,,,0,,,76,100
132800,note_off,,,,,128,0,12,,,,,4,,,60,100
132800,note_off,,,,,0,0,15,,,,,7,,,67,100
132800,note_off,,,,,128,0,11,,,,,3,,,72,100
132800,note_off,,,,,128,0,15,,,,,7,,,64,100
132800,note_off,,,,,128,0,10,,,,,2,,,76,100
132800,note_off,,,,,128,0,16,,,,,7,,,48,100
132800,note_off,,,,,128,0,9,,,,,1,,,72,100
132800,note_off,,,,,128,0,14,,,,,6,,,36,100
132800,note_off,,,,,128,0,13,,,,,5,,,48,100
132804,set_tempo,,,,,8,1,0,,789473,,,,,,,
132816,set_tempo,,,,,12,1,0,,800000,,,,,,,
132824,set_tempo,,,,,8,1,0,,810810,,,,,,,
132832,set_tempo,,,,,8,1,0,,821917,,,,,,,
132844,set_tempo,,,,,12,1,0,,833333,,,,,,,
132852,set_tempo,,,,,8,1,0,,845070,,,,,,,
132864,set_tempo,,,,,12,1,0,,1333333,,,,,,,
132864,end_of_track,,,,,0,1,0,,,,,,,,,
132864,note_on,,,,,64,0,10,,,,,2,,,77,50
132864,note_on,,,,,64,0,16,,,,,7,,,41,100
132864,note_on,,,,,64,0,12,,,,,4,,,60,100
132864,note_on,,,,,64,0,9,,,,,1,,,69,100
132864,note_on,,,,,64,0,14,,,,,6,,,41,100
132864,note_on,,,,,64,0,8,,,,,0,,,77,100
132864,note_on,,,,,64,0,13,,,,,5,,,41,100
132864,note_on,,,,,64,0,11,,,,,3,,,69,50
132892,note_on,,,,,92,0,15,,,,,7,,,65,100
132924,note_on,,,,,32,0,15,,,,,7,,,69,100
132956,note_on,,,,,32,0,15,,,,,7,,,72,100
132988,note_on,,,,,32,0,15,,,,,7,,,77,100
133376,end_of_track,,,,,0,1,16,,,,,,,,,
133376,end_of_track,,,,,0,1,8,,,,,,,,,
133376,end_of_track,,,,,0,1,14,,,,,,,,,
133376,note_off,,,,,512,0,14,,,,,6,,,41,100
133376,end_of_track,,,,,0,1,13,,,,,,,,,
133376,note_off,,,,,512,0,13,,,,,5,,,41,100
133376,end_of_track,,,,,0,1,12,,,,,,,,,
133376,note_off,,,,,512,0,8,,,,,0,,,77,100
133376,end_of_track,,,,,0,1,11,,,,,,,,,
133376,note_off,,,,,512,0,12,,,,,4,,,60,100
133376,note_off,,,,,512,0,16,,,,,7,,,41,100
133376,note_off,,,,,512,0,10,,,,,2,,,77,100
133376,end_of_track,,,,,0,1,9,,,,,,,,,
133376,note_off,,,,,512,0,9,,,,,1,,,69,100
133376,note_off,,,,,512,0,11,,,,,3,,,69,100
133404,note_off,,,,,416,0,15,,,,,7,,,65,100
133436,note_off,,,,,32,0,15,,,,,7,,,69,100
133468,note_off,,,,,32,0,15,,,,,7,,,72,100
133500,end_of_track,,,,,0,1,15,,,,,,,,,
133500,note_off,,,,,32,0,15,,,,,7,,,77,100
134784,end_of_track,,,,,0,1,10,,,,,,,,,
134784,program_change,,,,,1408,0,10,,,,,2,40,,,
