tick,type,numerator,denominator,clocks_per_click,notated_32nd_notes_per_beat,time,meta,track,data,tempo,control,value,channel,program,key,note,velocity
0,time_signature,3,4,96,8,0,1,0,,,,,,,,,
0,key_signature,,,,,0,1,5,,,,,,,Em,,
0,end_of_track,,,,,0,1,5,,,,,,,,,
0,track_name,,,,,0,1,6,,,,,,,,,
0,control_change,,,,,0,0,6,,,0,0,0,,,,
0,program_change,,,,,0,0,6,,,,,0,48,,,
0,control_change,,,,,0,0,6,,,7,100,0,,,,
0,control_change,,,,,0,0,6,,,10,46,0,,,,
0,control_change,,,,,0,0,6,,,91,64,0,,,,
0,key_signature,,,,,0,1,6,,,,,,,Em,,
0,end_of_track,,,,,0,1,6,,,,,,,,,
0,track_name,,,,,0,1,7,,,,,,,,,
0,control_change,,,,,0,0,7,,,0,0,0,,,,
0,program_change,,,,,0,0,7,,,,,0,48,,,
0,control_change,,,,,0,0,7,,,7,100,0,,,,
0,control_change,,,,,0,0,7,,,10,46,0,,,,
0,control_change,,,,,0,0,5,,,91,64,0,,,,
0,control_change,,,,,0,0,5,,,10,46,0,,,,
0,control_change,,,,,0,0,5,,,7,100,0,,,,
0,program_change,,,,,0,0,5,,,,,0,48,,,
0,control_change,,,,,0,0,3,,,7,100,0,,,,
0,control_change,,,,,0,0,3,,,10,46,0,,,,
0,control_change,,,,,0,0,3,,,91,64,0,,,,
0,program_change,,,,,0,0,3,,,,,0,48,,,
0,key_signature,,,,,0,1,3,,,,,,,Em,,
0,end_of_track,,,,,0,1,3,,,,,,,,,
0,track_name,,,,,0,1,4,,,,,,,,,
0,control_change,,,,,0,0,7,,,91,64,0,,,,
0,control_change,,,,,0,0,4,,,0,0,0,,,,
0,control_change,,,,,0,0,4,,,7,100,0,,,,
0,control_change,,,,,0,0,4,,,10,46,0,,,,
0,control_change,,,,,0,0,4,,,91,64,0,,,,
0,key_signature,,,,,0,1,4,,,,,,,Em,,
0,end_of_track,,,,,0,1,4,,,,,,,,,
0,track_name,,,,,0,1,5,,,,,,,,,
0,control_change,,,,,0,0,5,,,0,0,0,,,,
0,program_change,,,,,0,0,4,,,,,0,48,,,
0,control_change,,,,,0,0,9,,,0,0,1,,,,
0,end_of_track,,,,,0,1,7,,,,,,,,,
0,track_name,,,,,0,1,8,,,,,,,,,
0,program_change,,,,,0,0,11,,,,,3,48,,,
0,control_change,,,,,0,0,11,,,0,0,3,,,,
0,track_name,,,,,0,1,11,,,,,,,,,
0,note_on,,,,,0,0,10,,,,,2,,,67,85
0,key_signature,,,,,0,1,10,,,,,,,Em,,
0,control_change,,,,,0,0,10,,,91,65,2,,,,
0,control_change,,,,,0,0,10,,,7,95,2,,,,
0,control_change,,,,,0,0,11,,,7,82,3,,,,
0,program_change,,,,,0,0,10,,,,,2,48,,,
0,track_name,,,,,0,1,10,,,,,,,,,
0,note_on,,,,,0,0,9,,,,,1,,,76,85
0,key_signature,,,,,0,1,9,,,,,,,Em,,
0,control_change,,,,,0,0,9,,,91,67,1,,,,
0,control_change,,,,,0,0,9,,,10,40,1,,,,
0,control_change,,,,,0,0,9,,,7,100,1,,,,
0,program_change,,,,,0,0,9,,,,,1,48,,,
0,control_change,,,,,0,0,10,,,0,0,2,,,,
0,control_change,,,,,0,0,3,,,0,0,0,,,,
0,control_change,,,,,0,0,11,,,10,79,3,,,,
0,key_signature,,,,,0,1,11,,,,,,,Em,,
0,control_change,,,,,0,0,8,,,0,0,0,,,,
0,program_change,,,,,0,0,8,,,,,0,48,,,
0,control_change,,,,,0,0,8,,,7,100,0,,,,
0,control_change,,,,,0,0,8,,,10,46,0,,,,
0,control_change,,,,,0,0,8,,,91,64,0,,,,
0,key_signature,,,,,0,1,8,,,,,,,Em,,
0,note_on,,,,,0,0,8,,,,,0,,,83,85
0,control_change,,,,,0,0,11,,,91,67,3,,,,
0,note_on,,,,,0,0,12,,,,,4,,,40,85
0,control_change,,,,,0,0,12,,,91,63,4,,,,
0,control_change,,,,,0,0,12,,,10,92,4,,,,
0,control_change,,,,,0,0,12,,,7,77,4,,,,
0,program_change,,,,,0,0,12,,,,,4,48,,,
0,control_change,,,,,0,0,12,,,0,0,4,,,,
0,track_name,,,,,0,1,12,,,,,,,,,
0,note_on,,,,,0,0,11,,,,,3,,,52,85
0,key_signature,,,,,0,1,12,,,,,,,Em,,
0,track_name,,,,,0,1,3,,,,,,,,,
0,key_signature,,,,,0,1,7,,,,,,,Em,,
0,track_name,,,,,0,1,2,,,,,,,,,
0,sequencer_specific,,,,,0,1,0,"(0, 0, 65)",,,,,,,,
0,sequencer_specific,,,,,0,1,0,"(0, 0, 119, 14, 1)",,,,,,,,
0,set_tempo,,,,,0,1,0,,638297,,,,,,,
0,note_on,,,,,0,0,14,,,,,5,,,52,100
0,key_signature,,,,,0,1,14,,,,,,,Em,,
0,control_change,,,,,0,0,14,,,91,65,5,,,,
0,control_change,,,,,0,0,14,,,7,55,5,,,,
0,program_change,,,,,0,0,14,,,,,5,6,,,
0,control_change,,,,,0,0,14,,,0,0,5,,,,
0,track_name,,,,,0,1,14,,,,,,,,,
0,end_of_track,,,,,0,1,2,,,,,,,,,
0,note_on,,,,,0,0,13,,,,,5,,,59,100
0,note_on,,,,,0,0,13,,,,,5,,,67,100
0,key_signature,,,,,0,1,13,,,,,,,Em,,
0,track_name,,,,,0,1,9,,,,,,,,,
0,control_change,,,,,0,0,13,,,7,55,5,,,,
0,program_change,,,,,0,0,13,,,,,5,6,,,
0,control_change,,,,,0,0,13,,,0,0,5,,,,
0,end_of_track,,,,,0,1,1,,,,,,,,,
0,track_name,,,,,0,1,1,,,,,,,,,
0,control_change,,,,,0,0,13,,,91,65,5,,,,
0,track_name,,,,,0,1,13,,,,,,,,,
256,note_off,,,,,256,0,9,,,,,1,,,76,100
256,note_off,,,,,256,0,10,,,,,2,,,67,100
256,note_off,,,,,256,0,14,,,,,5,,,52,100
256,note_off,,,,,256,0,11,,,,,3,,,52,100
256,note_off,,,,,256,0,8,,,,,0,,,83,100
256,note_off,,,,,256,0,12,,,,,4,,,40,100
256,note_off,,,,,256,0,13,,,,,5,,,67,100
256,note_off,,,,,0,0,13,,,,,5,,,59,100
384,note_on,,,,,128,0,8,,,,,0,,,76,85
384,note_on,,,,,128,0,10,,,,,2,,,67,85
384,note_on,,,,,128,0,14,,,,,5,,,64,100
384,note_on,,,,,0,0,13,,,,,5,,,71,100
384,note_on,,,,,128,0,12,,,,,4,,,52,85
384,note_on,,,,,128,0,11,,,,,3,,,64,85
384,note_on,,,,,128,0,9,,,,,1,,,71,85
384,note_on,,,,,128,0,13,,,,,5,,,67,100
576,note_off,,,,,192,0,8,,,,,0,,,76,100
640,note_off,,,,,256,0,10,,,,,2,,,67,100
640,note_off,,,,,256,0,9,,,,,1,,,71,100
640,note_off,,,,,256,0,13,,,,,5,,,67,100
640,note_off,,,,,256,0,11,,,,,3,,,64,100
640,note_off,,,,,256,0,14,,,,,5,,,64,100
640,note_off,,,,,0,0,13,,,,,5,,,71,100
640,note_off,,,,,256,0,12,,,,,4,,,52,100
672,note_on,,,,,96,0,8,,,,,0,,,79,85
736,note_off,,,,,64,0,8,,,,,0,,,79,100
768,note_on,,,,,32,0,8,,,,,0,,,78,85
960,note_off,,,,,192,0,8,,,,,0,,,78,100
1056,note_on,,,,,416,0,13,,,,,5,,,72,100
1056,note_on,,,,,96,0,8,,,,,0,,,76,85
1056,note_on,,,,,416,0,12,,,,,4,,,52,85
1056,note_on,,,,,0,0,13,,,,,5,,,67,100
1056,note_on,,,,,416,0,9,,,,,1,,,72,85
1056,note_on,,,,,416,0,11,,,,,3,,,64,85
1056,note_on,,,,,416,0,14,,,,,5,,,64,100
1056,note_on,,,,,416,0,10,,,,,2,,,67,85
1120,note_off,,,,,64,0,12,,,,,4,,,52,100
1120,note_off,,,,,64,0,14,,,,,5,,,64,100
1120,note_off,,,,,64,0,8,,,,,0,,,76,100
1120,note_off,,,,,64,0,13,,,,,5,,,72,100
1120,note_off,,,,,0,0,13,,,,,5,,,67,100
1120,note_off,,,,,64,0,9,,,,,1,,,72,100
1120,note_off,,,,,64,0,11,,,,,3,,,64,100
1120,note_off,,,,,64,0,10,,,,,2,,,67,100
1152,note_on,,,,,32,0,10,,,,,2,,,69,85
1152,note_on,,,,,32,0,11,,,,,3,,,63,85
1152,note_on,,,,,32,0,14,,,,,5,,,63,100
1152,note_on,,,,,32,0,12,,,,,4,,,51,85
1152,note_on,,,,,32,0,13,,,,,5,,,69,100
1152,note_on,,,,,0,0,13,,,,,5,,,72,100
1152,note_on,,,,,32,0,9,,,,,1,,,72,85
1152,note_on,,,,,32,0,8,,,,,0,,,78,85
1408,note_off,,,,,256,0,12,,,,,4,,,51,100
1408,note_off,,,,,256,0,11,,,,,3,,,63,100
1408,note_off,,,,,256,0,13,,,,,5,,,69,100
1408,note_off,,,,,0,0,13,,,,,5,,,72,100
1408,note_off,,,,,256,0,14,,,,,5,,,63,100
1408,note_off,,,,,256,0,10,,,,,2,,,69,100
1408,note_off,,,,,256,0,9,,,,,1,,,72,100
1408,note_off,,,,,256,0,8,,,,,0,,,78,100
1536,note_on,,,,,128,0,12,,,,,4,,,50,85
1536,note_on,,,,,128,0,10,,,,,2,,,66,85
1536,note_on,,,,,128,0,11,,,,,3,,,62,85
1536,note_on,,,,,128,0,9,,,,,1,,,71,85
1536,note_on,,,,,0,0,13,,,,,5,,,66,100
1536,note_on,,,,,128,0,13,,,,,5,,,71,100
1536,note_on,,,,,128,0,14,,,,,5,,,62,100
1536,note_on,,,,,128,0,8,,,,,0,,,83,85
1792,note_off,,,,,0,0,13,,,,,5,,,66,100
1792,note_off,,,,,256,0,12,,,,,4,,,50,100
1792,note_off,,,,,256,0,13,,,,,5,,,71,100
1792,note_off,,,,,256,0,14,,,,,5,,,62,100
1792,note_off,,,,,256,0,10,,,,,2,,,66,100
1792,note_off,,,,,256,0,8,,,,,0,,,83,100
1792,note_off,,,,,256,0,9,,,,,1,,,71,100
1792,note_off,,,,,256,0,11,,,,,3,,,62,100
2304,note_on,,,,,512,0,11,,,,,3,,,61,85
2304,note_on,,,,,0,0,13,,,,,5,,,71,100
2304,note_on,,,,,512,0,13,,,,,5,,,67,100
2304,note_on,,,,,512,0,8,,,,,0,,,76,85
2304,note_on,,,,,512,0,9,,,,,1,,,71,85
2304,note_on,,,,,512,0,12,,,,,4,,,49,85
2304,note_on,,,,,512,0,14,,,,,5,,,61,100
2304,note_on,,,,,512,0,10,,,,,2,,,67,85
2560,note_off,,,,,256,0,10,,,,,2,,,67,100
2560,note_off,,,,,256,0,9,,,,,1,,,71,100
2560,note_off,,,,,256,0,14,,,,,5,,,61,100
2560,note_off,,,,,256,0,11,,,,,3,,,61,100
2560,note_off,,,,,256,0,13,,,,,5,,,67,100
2560,note_off,,,,,0,0,13,,,,,5,,,71,100
2560,note_off,,,,,256,0,12,,,,,4,,,49,100
2560,note_off,,,,,256,0,8,,,,,0,,,76,100
2688,note_on,,,,,128,0,12,,,,,4,,,48,85
2688,note_on,,,,,128,0,8,,,,,0,,,69,85
2688,note_on,,,,,128,0,10,,,,,2,,,64,85
2688,note_on,,,,,128,0,11,,,,,3,,,60,85
2688,note_on,,,,,128,0,9,,,,,1,,,69,85
2688,note_on,,,,,128,0,13,,,,,5,,,64,100
2688,note_on,,,,,128,0,14,,,,,5,,,60,100
2688,note_on,,,,,0,0,13,,,,,5,,,69,100
2880,note_off,,,,,192,0,8,,,,,0,,,69,100
2944,note_off,,,,,256,0,9,,,,,1,,,69,100
2944,note_off,,,,,256,0,14,,,,,5,,,60,100
2944,note_off,,,,,0,0,13,,,,,5,,,69,100
2944,note_off,,,,,256,0,10,,,,,2,,,64,100
2944,note_off,,,,,256,0,12,,,,,4,,,48,100
2944,note_off,,,,,256,0,13,,,,,5,,,64,100
2944,note_off,,,,,256,0,11,,,,,3,,,60,100
2976,note_on,,,,,96,0,8,,,,,0,,,79,85
3040,note_off,,,,,64,0,8,,,,,0,,,79,100
3072,note_on,,,,,32,0,8,,,,,0,,,78,85
3264,note_off,,,,,192,0,8,,,,,0,,,78,100
3360,note_on,,,,,416,0,14,,,,,5,,,60,100
3360,note_on,,,,,416,0,10,,,,,2,,,69,85
3360,note_on,,,,,416,0,9,,,,,1,,,69,85
3360,note_on,,,,,416,0,13,,,,,5,,,66,100
3360,note_on,,,,,416,0,12,,,,,4,,,48,85
3360,note_on,,,,,96,0,8,,,,,0,,,78,85
3360,note_on,,,,,416,0,11,,,,,3,,,60,85
3360,note_on,,,,,0,0,13,,,,,5,,,69,100
3424,note_off,,,,,64,0,14,,,,,5,,,60,100
3424,note_off,,,,,64,0,10,,,,,2,,,69,100
3424,note_off,,,,,64,0,9,,,,,1,,,69,100
3424,note_off,,,,,64,0,8,,,,,0,,,78,100
3424,note_off,,,,,0,0,13,,,,,5,,,69,100
3424,note_off,,,,,64,0,12,,,,,4,,,48,100
3424,note_off,,,,,64,0,11,,,,,3,,,60,100
3424,note_off,,,,,64,0,13,,,,,5,,,66,100
3456,note_on,,,,,32,0,13,,,,,5,,,63,100
3456,note_on,,,,,0,0,13,,,,,5,,,66,100
3456,note_on,,,,,32,0,12,,,,,4,,,47,85
3456,note_on,,,,,32,0,14,,,,,5,,,59,100
3456,note_on,,,,,32,0,11,,,,,3,,,59,85
3456,note_on,,,,,32,0,9,,,,,1,,,71,85
3456,note_on,,,,,32,0,10,,,,,2,,,66,85
3456,note_on,,,,,32,0,8,,,,,0,,,75,85
3648,note_off,,,,,192,0,11,,,,,3,,,59,100
3648,note_off,,,,,192,0,14,,,,,5,,,59,100
3648,note_off,,,,,192,0,12,,,,,4,,,47,100
3712,note_off,,,,,256,0,13,,,,,5,,,63,100
3712,note_off,,,,,0,0,13,,,,,5,,,66,100
3744,note_on,,,,,96,0,14,,,,,5,,,60,100
3744,note_on,,,,,96,0,12,,,,,4,,,48,85
3744,note_on,,,,,96,0,11,,,,,3,,,60,85
3808,note_off,,,,,64,0,11,,,,,3,,,60,100
3808,note_off,,,,,64,0,14,,,,,5,,,60,100
3808,note_off,,,,,64,0,12,,,,,4,,,48,100
3840,note_on,,,,,32,0,14,,,,,5,,,59,100
3840,note_on,,,,,32,0,12,,,,,4,,,47,85
3840,note_off,,,,,384,0,8,,,,,0,,,75,100
3840,note_on,,,,,0,0,13,,,,,5,,,66,100
3840,note_on,,,,,128,0,13,,,,,5,,,63,100
3840,note_on,,,,,32,0,11,,,,,3,,,59,85
4032,note_on,,,,,192,0,8,,,,,0,,,73,85
4032,note_off,,,,,192,0,12,,,,,4,,,47,100
4032,note_off,,,,,192,0,11,,,,,3,,,59,100
4032,note_off,,,,,192,0,14,,,,,5,,,59,100
4096,note_off,,,,,0,0,13,,,,,5,,,66,100
4096,note_off,,,,,256,0,13,,,,,5,,,63,100
4128,note_on,,,,,96,0,12,,,,,4,,,45,85
4128,note_on,,,,,96,0,11,,,,,3,,,57,85
4128,note_on,,,,,96,0,14,,,,,5,,,57,100
4160,note_off,,,,,128,0,8,,,,,0,,,73,100
4192,note_off,,,,,64,0,11,,,,,3,,,57,100
4192,note_off,,,,,64,0,14,,,,,5,,,57,100
4192,note_off,,,,,64,0,12,,,,,4,,,45,100
4224,note_on,,,,,64,0,8,,,,,0,,,71,85
4224,note_on,,,,,32,0,11,,,,,3,,,55,85
4224,note_on,,,,,32,0,12,,,,,4,,,43,85
4224,note_on,,,,,128,0,13,,,,,5,,,59,100
4224,note_off,,,,,768,0,9,,,,,1,,,71,100
4224,note_off,,,,,768,0,10,,,,,2,,,66,100
4224,note_on,,,,,32,0,14,,,,,5,,,55,100
4252,note_on,,,,,28,0,13,,,,,5,,,62,100
4284,note_on,,,,,32,0,13,,,,,5,,,67,100
4416,note_off,,,,,192,0,12,,,,,4,,,43,100
4416,note_off,,,,,192,0,14,,,,,5,,,55,100
4416,note_off,,,,,192,0,11,,,,,3,,,55,100
4480,note_off,,,,,256,0,8,,,,,0,,,71,100
4480,note_off,,,,,196,0,13,,,,,5,,,59,100
4508,note_off,,,,,28,0,13,,,,,5,,,62,100
4512,note_on,,,,,96,0,11,,,,,3,,,54,85
4512,note_on,,,,,96,0,14,,,,,5,,,54,100
4512,note_on,,,,,96,0,12,,,,,4,,,42,85
4540,note_off,,,,,32,0,13,,,,,5,,,67,100
4576,note_off,,,,,64,0,11,,,,,3,,,54,100
4576,note_off,,,,,64,0,12,,,,,4,,,42,100
4576,note_off,,,,,64,0,14,,,,,5,,,54,100
4608,note_on,,,,,32,0,14,,,,,5,,,52,100
4608,note_on,,,,,32,0,12,,,,,4,,,40,60
4608,note_on,,,,,384,0,10,,,,,2,,,67,60
4608,note_on,,,,,68,0,13,,,,,5,,,67,100
4608,note_on,,,,,0,0,13,,,,,5,,,59,100
4608,note_on,,,,,128,0,8,,,,,0,,,83,60
4608,note_on,,,,,384,0,9,,,,,1,,,76,60
4608,note_on,,,,,32,0,11,,,,,3,,,52,60
4864,note_off,,,,,0,0,13,,,,,5,,,59,100
4864,note_off,,,,,256,0,13,,,,,5,,,67,100
4864,note_off,,,,,256,0,8,,,,,0,,,83,100
4864,note_off,,,,,256,0,11,,,,,3,,,52,100
4864,note_off,,,,,256,0,12,,,,,4,,,40,100
4864,note_off,,,,,256,0,14,,,,,5,,,52,100
4864,note_off,,,,,256,0,9,,,,,1,,,76,100
4864,note_off,,,,,256,0,10,,,,,2,,,67,100
4992,note_on,,,,,0,0,13,,,,,5,,,71,100
4992,note_on,,,,,128,0,12,,,,,4,,,52,60
4992,note_on,,,,,128,0,9,,,,,1,,,71,60
4992,note_on,,,,,128,0,14,,,,,5,,,64,100
4992,note_on,,,,,128,0,11,,,,,3,,,64,60
4992,note_on,,,,,128,0,13,,,,,5,,,67,100
4992,note_on,,,,,128,0,10,,,,,2,,,67,60
4992,note_on,,,,,128,0,8,,,,,0,,,76,60
5184,note_off,,,,,192,0,8,,,,,0,,,76,100
5248,note_off,,,,,256,0,13,,,,,5,,,67,100
5248,note_off,,,,,256,0,14,,,,,5,,,64,100
5248,note_off,,,,,0,0,13,,,,,5,,,71,100
5248,note_off,,,,,256,0,11,,,,,3,,,64,100
5248,note_off,,,,,256,0,10,,,,,2,,,67,100
5248,note_off,,,,,256,0,12,,,,,4,,,52,100
5248,note_off,,,,,256,0,9,,,,,1,,,71,100
5280,note_on,,,,,96,0,8,,,,,0,,,79,60
5344,note_off,,,,,64,0,8,,,,,0,,,79,100
5376,note_on,,,,,32,0,8,,,,,0,,,78,60
5568,note_off,,,,,192,0,8,,,,,0,,,78,100
5664,note_on,,,,,0,0,13,,,,,5,,,67,100
5664,note_on,,,,,416,0,12,,,,,4,,,52,60
5664,note_on,,,,,416,0,10,,,,,2,,,67,60
5664,note_on,,,,,416,0,14,,,,,5,,,64,100
5664,note_on,,,,,416,0,9,,,,,1,,,72,60
5664,note_on,,,,,96,0,8,,,,,0,,,76,60
5664,note_on,,,,,416,0,13,,,,,5,,,72,100
5664,note_on,,,,,416,0,11,,,,,3,,,64,60
5728,note_off,,,,,64,0,12,,,,,4,,,52,100
5728,note_off,,,,,64,0,11,,,,,3,,,64,100
5728,note_off,,,,,0,0,13,,,,,5,,,67,100
5728,note_off,,,,,64,0,14,,,,,5,,,64,100
5728,note_off,,,,,64,0,8,,,,,0,,,76,100
5728,note_off,,,,,64,0,10,,,,,2,,,67,100
5728,note_off,,,,,64,0,9,,,,,1,,,72,100
5728,note_off,,,,,64,0,13,,,,,5,,,72,100
5760,note_on,,,,,32,0,10,,,,,2,,,69,60
5760,note_on,,,,,0,0,13,,,,,5,,,72,100
5760,note_on,,,,,32,0,13,,,,,5,,,69,100
5760,note_on,,,,,32,0,9,,,,,1,,,72,60
5760,note_on,,,,,32,0,11,,,,,3,,,63,60
5760,note_on,,,,,32,0,12,,,,,4,,,51,60
5760,note_on,,,,,32,0,14,,,,,5,,,63,100
5760,note_on,,,,,32,0,8,,,,,0,,,78,60
6016,note_off,,,,,256,0,14,,,,,5,,,63,100
6016,note_off,,,,,256,0,10,,,,,2,,,69,100
6016,note_off,,,,,256,0,12,,,,,4,,,51,100
6016,note_off,,,,,256,0,9,,,,,1,,,72,100
6016,note_off,,,,,256,0,8,,,,,0,,,78,100
6016,note_off,,,,,256,0,11,,,,,3,,,63,100
6016,note_off,,,,,256,0,13,,,,,5,,,69,100
6016,note_off,,,,,0,0,13,,,,,5,,,72,100
6144,note_on,,,,,128,0,11,,,,,3,,,62,60
6144,note_on,,,,,128,0,14,,,,,5,,,62,100
6144,note_on,,,,,128,0,10,,,,,2,,,66,60
6144,note_on,,,,,128,0,13,,,,,5,,,71,100
6144,note_on,,,,,128,0,12,,,,,4,,,50,60
6144,note_on,,,,,128,0,9,,,,,1,,,71,60
6144,note_on,,,,,128,0,8,,,,,0,,,83,60
6144,note_on,,,,,0,0,13,,,,,5,,,66,100
6400,note_off,,,,,256,0,13,,,,,5,,,71,100
6400,note_off,,,,,0,0,13,,,,,5,,,66,100
6400,note_off,,,,,256,0,12,,,,,4,,,50,100
6400,note_off,,,,,256,0,9,,,,,1,,,71,100
6400,note_off,,,,,256,0,14,,,,,5,,,62,100
6400,note_off,,,,,256,0,11,,,,,3,,,62,100
6400,note_off,,,,,256,0,8,,,,,0,,,83,100
6400,note_off,,,,,256,0,10,,,,,2,,,66,100
6912,note_on,,,,,512,0,9,,,,,1,,,71,60
6912,note_on,,,,,512,0,14,,,,,5,,,61,100
6912,note_on,,,,,512,0,12,,,,,4,,,49,60
6912,note_on,,,,,0,0,13,,,,,5,,,71,100
6912,note_on,,,,,512,0,13,,,,,5,,,67,100
6912,note_on,,,,,512,0,11,,,,,3,,,61,60
6912,note_on,,,,,512,0,10,,,,,2,,,67,60
6912,note_on,,,,,512,0,8,,,,,0,,,76,60
7168,note_off,,,,,256,0,8,,,,,0,,,76,100
7168,note_off,,,,,256,0,12,,,,,4,,,49,100
7168,note_off,,,,,256,0,11,,,,,3,,,61,100
7168,note_off,,,,,256,0,14,,,,,5,,,61,100
7168,note_off,,,,,256,0,9,,,,,1,,,71,100
7168,note_off,,,,,256,0,10,,,,,2,,,67,100
7168,note_off,,,,,0,0,13,,,,,5,,,71,100
7168,note_off,,,,,256,0,13,,,,,5,,,67,100
7296,note_on,,,,,128,0,12,,,,,4,,,48,60
7296,note_on,,,,,128,0,14,,,,,5,,,60,100
7296,note_on,,,,,128,0,13,,,,,5,,,64,100
7296,note_on,,,,,0,0,13,,,,,5,,,69,100
7296,note_on,,,,,128,0,9,,,,,1,,,69,60
7296,note_on,,,,,128,0,10,,,,,2,,,64,60
7296,note_on,,,,,128,0,8,,,,,0,,,69,60
7296,note_on,,,,,128,0,11,,,,,3,,,60,60
7488,note_off,,,,,192,0,8,,,,,0,,,69,100
7552,note_off,,,,,256,0,9,,,,,1,,,69,100
7552,note_off,,,,,256,0,14,,,,,5,,,60,100
7552,note_off,,,,,256,0,10,,,,,2,,,64,100
7552,note_off,,,,,0,0,13,,,,,5,,,69,100
7552,note_off,,,,,256,0,13,,,,,5,,,64,100
7552,note_off,,,,,256,0,11,,,,,3,,,60,100
7552,note_off,,,,,256,0,12,,,,,4,,,48,100
7584,note_on,,,,,96,0,8,,,,,0,,,79,60
7648,note_off,,,,,64,0,8,,,,,0,,,79,100
7680,note_on,,,,,32,0,8,,,,,0,,,78,60
7872,note_off,,,,,192,0,8,,,,,0,,,78,100
7968,note_on,,,,,416,0,12,,,,,4,,,48,60
7968,note_on,,,,,96,0,8,,,,,0,,,78,60
7968,note_on,,,,,416,0,13,,,,,5,,,66,100
7968,note_on,,,,,416,0,10,,,,,2,,,69,60
7968,note_on,,,,,0,0,13,,,,,5,,,69,100
7968,note_on,,,,,416,0,14,,,,,5,,,60,100
7968,note_on,,,,,416,0,11,,,,,3,,,60,60
7968,note_on,,,,,416,0,9,,,,,1,,,69,60
8032,note_off,,,,,0,0,13,,,,,5,,,69,100
8032,note_off,,,,,64,0,8,,,,,0,,,78,100
8032,note_off,,,,,64,0,14,,,,,5,,,60,100
8032,note_off,,,,,64,0,9,,,,,1,,,69,100
8032,note_off,,,,,64,0,12,,,,,4,,,48,100
8032,note_off,,,,,64,0,11,,,,,3,,,60,100
8032,note_off,,,,,64,0,10,,,,,2,,,69,100
8032,note_off,,,,,64,0,13,,,,,5,,,66,100
8064,note_on,,,,,32,0,9,,,,,1,,,71,60
8064,note_on,,,,,32,0,12,,,,,4,,,47,60
8064,note_on,,,,,32,0,14,,,,,5,,,59,100
8064,note_on,,,,,32,0,11,,,,,3,,,59,60
8064,note_on,,,,,32,0,8,,,,,0,,,75,60
8064,note_on,,,,,32,0,13,,,,,5,,,63,100
8064,note_on,,,,,32,0,10,,,,,2,,,66,60
8092,note_on,,,,,28,0,13,,,,,5,,,66,100
8124,note_on,,,,,32,0,13,,,,,5,,,71,100
8832,note_off,,,,,768,0,14,,,,,5,,,59,100
8832,note_off,,,,,768,0,8,,,,,0,,,75,100
8832,note_off,,,,,768,0,11,,,,,3,,,59,100
8832,note_off,,,,,708,0,13,,,,,5,,,63,100
8832,note_off,,,,,768,0,9,,,,,1,,,71,100
8832,note_off,,,,,768,0,12,,,,,4,,,47,100
8832,note_off,,,,,768,0,10,,,,,2,,,66,100
8860,note_off,,,,,28,0,13,,,,,5,,,66,100
8892,note_off,,,,,32,0,13,,,,,5,,,71,100
9212,program_change,,,,,380,0,9,,,,,1,40,,,
9212,program_change,,,,,380,0,8,,,,,0,40,,,
9216,note_on,,,,,384,0,10,,,,,2,,,59,70
9216,note_on,,,,,4,0,8,,,,,0,,,71,85
9408,note_off,,,,,192,0,8,,,,,0,,,71,100
9504,note_on,,,,,96,0,8,,,,,0,,,73,85
9568,note_off,,,,,64,0,8,,,,,0,,,73,100
9600,note_on,,,,,32,0,8,,,,,0,,,75,85
9792,note_off,,,,,192,0,8,,,,,0,,,75,100
9888,note_on,,,,,96,0,8,,,,,0,,,76,85
9952,note_off,,,,,64,0,8,,,,,0,,,76,100
9984,note_on,,,,,32,0,8,,,,,0,,,78,85
10176,note_off,,,,,192,0,8,,,,,0,,,78,100
10272,note_on,,,,,96,0,8,,,,,0,,,80,85
10336,note_off,,,,,64,0,8,,,,,0,,,80,100
10368,note_on,,,,,32,0,8,,,,,0,,,71,85
10368,note_on,,,,,0,0,8,,,,,0,,,81,85
10560,note_off,,,,,192,0,8,,,,,0,,,71,100
10656,note_on,,,,,96,0,8,,,,,0,,,73,85
10720,note_off,,,,,64,0,8,,,,,0,,,73,100
10752,note_on,,,,,32,0,8,,,,,0,,,75,85
10944,note_off,,,,,192,0,8,,,,,0,,,75,100
11040,note_on,,,,,96,0,8,,,,,0,,,76,85
11104,note_off,,,,,64,0,8,,,,,0,,,76,100
11136,note_on,,,,,32,0,8,,,,,0,,,78,85
11328,note_off,,,,,192,0,8,,,,,0,,,78,100
11404,note_off,,,,,2188,0,10,,,,,2,,,59,100
11404,note_off,,,,,76,0,8,,,,,0,,,81,100
11424,note_on,,,,,20,0,8,,,,,0,,,75,85
11488,note_off,,,,,64,0,8,,,,,0,,,75,100
11520,note_on,,,,,2308,0,9,,,,,1,,,64,85
11520,note_on,,,,,116,0,10,,,,,2,,,64,70
11520,note_on,,,,,32,0,8,,,,,0,,,80,85
11520,note_on,,,,,0,0,8,,,,,0,,,76,85
11712,note_off,,,,,192,0,9,,,,,1,,,64,100
11808,note_on,,,,,96,0,9,,,,,1,,,66,85
11872,note_off,,,,,64,0,9,,,,,1,,,66,100
11904,note_on,,,,,32,0,9,,,,,1,,,68,85
12096,note_off,,,,,192,0,9,,,,,1,,,68,100
12192,note_on,,,,,96,0,9,,,,,1,,,69,85
12256,note_off,,,,,64,0,9,,,,,1,,,69,100
12288,note_on,,,,,32,0,9,,,,,1,,,71,85
12480,note_off,,,,,192,0,9,,,,,1,,,71,100
12576,note_on,,,,,96,0,9,,,,,1,,,73,85
12640,note_off,,,,,64,0,9,,,,,1,,,73,100
12672,note_on,,,,,32,0,9,,,,,1,,,64,85
12672,note_on,,,,,0,0,9,,,,,1,,,74,85
12864,note_off,,,,,192,0,9,,,,,1,,,64,100
12960,note_on,,,,,96,0,9,,,,,1,,,66,85
13024,note_off,,,,,64,0,9,,,,,1,,,66,100
13056,note_on,,,,,32,0,9,,,,,1,,,68,85
13248,note_off,,,,,192,0,9,,,,,1,,,68,100
13344,note_on,,,,,96,0,9,,,,,1,,,69,85
13360,note_off,,,,,1840,0,8,,,,,0,,,80,100
13408,note_off,,,,,64,0,9,,,,,1,,,69,100
13440,note_on,,,,,32,0,9,,,,,1,,,71,85
13632,note_off,,,,,192,0,9,,,,,1,,,71,100
13708,note_off,,,,,2188,0,10,,,,,2,,,64,100
13728,note_on,,,,,96,0,9,,,,,1,,,68,85
13792,note_off,,,,,64,0,9,,,,,1,,,68,100
13820,note_off,,,,,28,0,9,,,,,1,,,74,100
13824,note_on,,,,,116,0,10,,,,,2,,,57,70
13824,note_on,,,,,464,0,8,,,,,0,,,69,85
13824,note_on,,,,,0,0,9,,,,,1,,,73,85
13824,note_on,,,,,4,0,9,,,,,1,,,69,85
14016,note_off,,,,,192,0,8,,,,,0,,,69,100
14112,note_on,,,,,96,0,8,,,,,0,,,71,85
14176,note_off,,,,,64,0,8,,,,,0,,,71,100
14208,note_on,,,,,32,0,8,,,,,0,,,73,85
14400,note_off,,,,,192,0,8,,,,,0,,,73,100
14496,note_on,,,,,96,0,8,,,,,0,,,74,85
14560,note_off,,,,,64,0,8,,,,,0,,,74,100
14592,note_on,,,,,32,0,8,,,,,0,,,76,85
14784,note_off,,,,,192,0,8,,,,,0,,,76,100
14860,note_off,,,,,76,0,8,,,,,0,,,76,100
14880,note_on,,,,,20,0,8,,,,,0,,,78,85
14944,note_off,,,,,64,0,8,,,,,0,,,78,100
14976,note_on,,,,,0,0,8,,,,,0,,,79,85
14976,note_on,,,,,32,0,8,,,,,0,,,69,85
15168,note_off,,,,,192,0,8,,,,,0,,,69,100
15264,note_on,,,,,96,0,8,,,,,0,,,71,85
15328,note_off,,,,,64,0,8,,,,,0,,,71,100
15360,note_on,,,,,32,0,8,,,,,0,,,73,85
15552,note_off,,,,,192,0,8,,,,,0,,,73,100
15648,note_on,,,,,96,0,8,,,,,0,,,74,85
15712,note_off,,,,,64,0,8,,,,,0,,,74,100
15744,note_on,,,,,32,0,8,,,,,0,,,76,85
15936,note_off,,,,,192,0,8,,,,,0,,,76,100
16012,note_off,,,,,2188,0,10,,,,,2,,,57,100
16012,note_off,,,,,76,0,8,,,,,0,,,79,100
16032,note_on,,,,,20,0,8,,,,,0,,,73,85
16096,note_off,,,,,64,0,8,,,,,0,,,73,100
16124,note_off,,,,,2300,0,9,,,,,1,,,73,100
16128,note_on,,,,,32,0,8,,,,,0,,,78,85
16128,note_on,,,,,0,0,8,,,,,0,,,74,85
16128,note_on,,,,,4,0,9,,,,,1,,,62,85
16128,note_on,,,,,116,0,10,,,,,2,,,62,70
16320,note_off,,,,,192,0,9,,,,,1,,,62,100
16416,note_on,,,,,96,0,9,,,,,1,,,64,85
16480,note_off,,,,,64,0,9,,,,,1,,,64,100
16512,note_on,,,,,32,0,9,,,,,1,,,66,85
16704,note_off,,,,,192,0,9,,,,,1,,,66,100
16800,note_on,,,,,96,0,9,,,,,1,,,67,85
16864,note_off,,,,,64,0,9,,,,,1,,,67,100
16896,note_on,,,,,32,0,9,,,,,1,,,69,85
17088,note_off,,,,,192,0,9,,,,,1,,,69,100
17164,note_off,,,,,76,0,9,,,,,1,,,69,100
17184,note_on,,,,,20,0,9,,,,,1,,,71,85
17248,note_off,,,,,64,0,9,,,,,1,,,71,100
17280,note_on,,,,,32,0,9,,,,,1,,,62,85
17280,note_on,,,,,0,0,9,,,,,1,,,72,85
17472,note_off,,,,,192,0,9,,,,,1,,,62,100
17568,note_on,,,,,96,0,9,,,,,1,,,64,85
17632,note_off,,,,,64,0,9,,,,,1,,,64,100
17664,note_on,,,,,32,0,9,,,,,1,,,66,85
17856,note_off,,,,,192,0,9,,,,,1,,,66,100
17952,note_on,,,,,96,0,9,,,,,1,,,67,85
17968,note_off,,,,,1840,0,8,,,,,0,,,78,100
18016,note_off,,,,,64,0,9,,,,,1,,,67,100
18048,note_on,,,,,32,0,9,,,,,1,,,69,85
18240,note_off,,,,,192,0,9,,,,,1,,,69,100
18316,note_off,,,,,76,0,9,,,,,1,,,72,100
18316,note_off,,,,,2188,0,10,,,,,2,,,62,100
18336,note_on,,,,,20,0,9,,,,,1,,,66,85
18400,note_off,,,,,64,0,9,,,,,1,,,66,100
18432,note_on,,,,,0,0,9,,,,,1,,,67,85
18432,note_on,,,,,116,0,10,,,,,2,,,55,70
18432,note_on,,,,,32,0,9,,,,,1,,,71,85
18432,note_on,,,,,464,0,8,,,,,0,,,67,85
18624,note_off,,,,,192,0,8,,,,,0,,,67,100
18720,note_on,,,,,96,0,8,,,,,0,,,69,85
18784,note_off,,,,,64,0,8,,,,,0,,,69,100
18816,note_on,,,,,32,0,8,,,,,0,,,71,85
19008,note_off,,,,,192,0,8,,,,,0,,,71,100
19104,note_on,,,,,96,0,8,,,,,0,,,72,85
19168,note_off,,,,,64,0,8,,,,,0,,,72,100
19200,note_on,,,,,32,0,8,,,,,0,,,74,85
19392,note_off,,,,,192,0,8,,,,,0,,,74,100
19468,note_off,,,,,1036,0,10,,,,,2,,,55,100
19468,note_off,,,,,1036,0,9,,,,,1,,,67,100
19468,note_off,,,,,76,0,8,,,,,0,,,74,100
19488,note_on,,,,,20,0,8,,,,,0,,,76,85
19552,note_off,,,,,64,0,8,,,,,0,,,76,100
19584,note_on,,,,,116,0,9,,,,,1,,,74,85
19584,note_on,,,,,116,0,10,,,,,2,,,56,70
19584,note_on,,,,,0,0,8,,,,,0,,,77,85
19584,note_on,,,,,32,0,8,,,,,0,,,68,85
19776,note_off,,,,,192,0,8,,,,,0,,,68,100
19872,note_on,,,,,96,0,8,,,,,0,,,69,85
19936,note_off,,,,,64,0,8,,,,,0,,,69,100
19968,note_on,,,,,32,0,8,,,,,0,,,71,85
20160,note_off,,,,,192,0,8,,,,,0,,,71,100
20256,note_on,,,,,96,0,8,,,,,0,,,72,85
20320,note_off,,,,,64,0,8,,,,,0,,,72,100
20352,note_on,,,,,32,0,8,,,,,0,,,74,85
20544,note_off,,,,,192,0,8,,,,,0,,,74,100
20620,note_off,,,,,76,0,8,,,,,0,,,77,100
20620,note_off,,,,,1036,0,10,,,,,2,,,56,100
20620,note_off,,,,,0,0,9,,,,,1,,,74,100
20620,note_off,,,,,1036,0,9,,,,,1,,,71,100
20640,note_on,,,,,20,0,8,,,,,0,,,71,85
20704,note_off,,,,,64,0,8,,,,,0,,,71,100
20736,note_on,,,,,32,0,8,,,,,0,,,76,85
20736,note_on,,,,,0,0,8,,,,,0,,,72,85
20736,note_on,,,,,116,0,9,,,,,1,,,69,85
20736,note_on,,,,,116,0,10,,,,,2,,,57,70
21024,note_on,,,,,288,0,9,,,,,1,,,71,85
21088,note_off,,,,,64,0,9,,,,,1,,,71,100
21120,note_on,,,,,32,0,9,,,,,1,,,72,85
21312,note_off,,,,,192,0,9,,,,,1,,,72,100
21408,note_on,,,,,96,0,9,,,,,1,,,74,85
21472,note_off,,,,,64,0,9,,,,,1,,,74,100
21504,note_on,,,,,32,0,9,,,,,1,,,76,85
21696,note_off,,,,,192,0,9,,,,,1,,,76,100
21772,note_off,,,,,1036,0,8,,,,,0,,,72,100
21772,note_off,,,,,76,0,9,,,,,1,,,69,100
21792,note_on,,,,,20,0,9,,,,,1,,,77,85
21856,note_off,,,,,64,0,9,,,,,1,,,77,100
21888,note_on,,,,,32,0,9,,,,,1,,,69,85
21888,note_on,,,,,0,0,9,,,,,1,,,79,85
21888,note_on,,,,,116,0,8,,,,,0,,,73,85
22144,note_off,,,,,256,0,9,,,,,1,,,69,100
22176,note_on,,,,,32,0,9,,,,,1,,,71,85
22240,note_off,,,,,64,0,9,,,,,1,,,71,100
22272,note_on,,,,,32,0,9,,,,,1,,,73,85
22464,note_off,,,,,192,0,9,,,,,1,,,73,100
22560,note_on,,,,,96,0,9,,,,,1,,,74,85
22624,note_off,,,,,64,0,9,,,,,1,,,74,100
22656,note_on,,,,,32,0,9,,,,,1,,,76,85
22848,note_off,,,,,192,0,9,,,,,1,,,76,100
22924,note_off,,,,,1036,0,8,,,,,0,,,76,100
22924,note_off,,,,,2188,0,10,,,,,2,,,57,100
22924,note_off,,,,,76,0,9,,,,,1,,,79,100
22924,note_off,,,,,0,0,8,,,,,0,,,73,100
22944,note_on,,,,,20,0,9,,,,,1,,,73,85
23008,note_off,,,,,64,0,9,,,,,1,,,73,100
23040,note_on,,,,,0,0,8,,,,,0,,,69,85
23040,note_on,,,,,116,0,10,,,,,2,,,62,70
23040,note_on,,,,,0,0,9,,,,,1,,,74,85
23040,note_on,,,,,32,0,9,,,,,1,,,78,85
23040,note_on,,,,,116,0,8,,,,,0,,,74,85
23040,set_tempo,,,,,23040,1,0,,638297,,,,,,,
23232,note_off,,,,,192,0,8,,,,,0,,,74,100
23260,set_tempo,,,,,220,1,0,,645161,,,,,,,
23328,note_on,,,,,96,0,8,,,,,0,,,76,85
23392,note_off,,,,,64,0,8,,,,,0,,,76,100
23424,note_on,,,,,32,0,8,,,,,0,,,78,85
23480,set_tempo,,,,,220,1,0,,652173,,,,,,,
23616,note_off,,,,,192,0,8,,,,,0,,,78,100
23700,set_tempo,,,,,220,1,0,,659340,,,,,,,
23712,note_on,,,,,96,0,8,,,,,0,,,79,85
23776,note_off,,,,,64,0,8,,,,,0,,,79,100
23808,note_on,,,,,32,0,8,,,,,0,,,81,85
23920,set_tempo,,,,,220,1,0,,666666,,,,,,,
24000,note_off,,,,,192,0,8,,,,,0,,,81,100
24076,note_off,,,,,1036,0,9,,,,,1,,,74,100
24076,note_off,,,,,1036,0,10,,,,,2,,,62,100
24076,note_off,,,,,76,0,8,,,,,0,,,69,100
24096,note_on,,,,,20,0,8,,,,,0,,,83,85
24144,set_tempo,,,,,224,1,0,,674157,,,,,,,
24160,note_off,,,,,64,0,8,,,,,0,,,83,100
24192,note_on,,,,,116,0,9,,,,,1,,,81,85
24192,note_on,,,,,116,0,10,,,,,2,,,63,70
24192,note_on,,,,,32,0,8,,,,,0,,,75,85
24192,note_on,,,,,0,0,8,,,,,0,,,84,85
24364,set_tempo,,,,,220,1,0,,681818,,,,,,,
24384,note_off,,,,,192,0,8,,,,,0,,,75,100
24480,note_on,,,,,96,0,8,,,,,0,,,76,85
24544,note_off,,,,,64,0,8,,,,,0,,,76,100
24576,note_on,,,,,32,0,8,,,,,0,,,78,85
24584,set_tempo,,,,,220,1,0,,689655,,,,,,,
24768,note_off,,,,,192,0,8,,,,,0,,,78,100
24804,set_tempo,,,,,220,1,0,,697674,,,,,,,
24864,note_on,,,,,96,0,8,,,,,0,,,79,85
24928,note_off,,,,,64,0,8,,,,,0,,,79,100
24960,note_on,,,,,32,0,8,,,,,0,,,81,85
25024,set_tempo,,,,,220,1,0,,705882,,,,,,,
25152,note_off,,,,,192,0,8,,,,,0,,,81,100
25228,note_off,,,,,76,0,8,,,,,0,,,84,100
25228,note_off,,,,,0,0,9,,,,,1,,,81,100
25228,note_off,,,,,1036,0,9,,,,,1,,,78,100
25228,note_off,,,,,1036,0,10,,,,,2,,,63,100
25248,set_tempo,,,,,224,1,0,,714285,,,,,,,
25248,note_on,,,,,20,0,8,,,,,0,,,78,85
25312,note_off,,,,,64,0,8,,,,,0,,,78,100
25340,program_change,,,,,112,0,9,,,,,1,48,,,
25340,program_change,,,,,28,0,8,,,,,0,48,,,
25344,note_on,,,,,4,0,9,,,,,1,,,76,85
25344,set_tempo,,,,,96,1,0,,714285,,,,,,,
25344,note_on,,,,,16512,0,14,,,,,5,,,52,100
25344,note_on,,,,,16512,0,12,,,,,4,,,40,85
25344,note_on,,,,,16512,0,11,,,,,3,,,52,85
25344,note_on,,,,,4,0,8,,,,,0,,,83,85
25344,note_on,,,,,16452,0,13,,,,,5,,,67,100
25344,note_on,,,,,0,0,13,,,,,5,,,59,100
25344,note_on,,,,,116,0,10,,,,,2,,,67,85
25408,set_tempo,,,,,64,1,0,,705882,,,,,,,
25476,set_tempo,,,,,68,1,0,,697674,,,,,,,
25544,set_tempo,,,,,68,1,0,,689655,,,,,,,
25600,note_off,,,,,256,0,9,,,,,1,,,76,100
25600,note_off,,,,,256,0,8,,,,,0,,,83,100
25600,note_off,,,,,0,0,13,,,,,5,,,59,100
25600,note_off,,,,,256,0,12,,,,,4,,,40,100
25600,note_off,,,,,256,0,13,,,,,5,,,67,100
25600,note_off,,,,,256,0,11,,,,,3,,,52,100
25600,note_off,,,,,256,0,10,,,,,2,,,67,100
25600,note_off,,,,,256,0,14,,,,,5,,,52,100
25612,set_tempo,,,,,68,1,0,,681818,,,,,,,
25680,set_tempo,,,,,68,1,0,,674157,,,,,,,
25728,note_on,,,,,128,0,12,,,,,4,,,52,85
25728,note_on,,,,,128,0,11,,,,,3,,,64,85
25728,note_on,,,,,128,0,10,,,,,2,,,67,85
25728,note_on,,,,,128,0,9,,,,,1,,,71,85
25728,note_on,,,,,128,0,8,,,,,0,,,76,85
25728,note_on,,,,,128,0,14,,,,,5,,,64,100
25728,note_on,,,,,128,0,13,,,,,5,,,67,100
25728,note_on,,,,,0,0,13,,,,,5,,,71,100
25744,set_tempo,,,,,64,1,0,,666666,,,,,,,
25812,set_tempo,,,,,68,1,0,,659340,,,,,,,
25880,set_tempo,,,,,68,1,0,,652173,,,,,,,
25920,note_off,,,,,192,0,8,,,,,0,,,76,100
25948,set_tempo,,,,,68,1,0,,645161,,,,,,,
25984,note_off,,,,,256,0,12,,,,,4,,,52,100
25984,note_off,,,,,256,0,9,,,,,1,,,71,100
25984,note_off,,,,,0,0,13,,,,,5,,,71,100
25984,note_off,,,,,256,0,14,,,,,5,,,64,100
25984,note_off,,,,,256,0,11,,,,,3,,,64,100
25984,note_off,,,,,256,0,10,,,,,2,,,67,100
25984,note_off,,,,,256,0,13,,,,,5,,,67,100
26016,set_tempo,,,,,68,1,0,,638297,,,,,,,
26016,note_on,,,,,96,0,8,,,,,0,,,79,85
26080,note_off,,,,,64,0,8,,,,,0,,,79,100
26112,note_on,,,,,32,0,8,,,,,0,,,78,85
26304,note_off,,,,,192,0,8,,,,,0,,,78,100
26400,note_on,,,,,416,0,13,,,,,5,,,72,100
26400,note_on,,,,,416,0,10,,,,,2,,,67,85
26400,note_on,,,,,416,0,11,,,,,3,,,64,85
26400,note_on,,,,,96,0,8,,,,,0,,,76,85
26400,note_on,,,,,416,0,14,,,,,5,,,64,100
26400,note_on,,,,,416,0,12,,,,,4,,,52,85
26400,note_on,,,,,416,0,9,,,,,1,,,72,85
26400,note_on,,,,,0,0,13,,,,,5,,,67,100
26464,note_off,,,,,64,0,14,,,,,5,,,64,100
26464,note_off,,,,,64,0,9,,,,,1,,,72,100
26464,note_off,,,,,64,0,10,,,,,2,,,67,100
26464,note_off,,,,,64,0,11,,,,,3,,,64,100
26464,note_off,,,,,0,0,13,,,,,5,,,67,100
26464,note_off,,,,,64,0,13,,,,,5,,,72,100
26464,note_off,,,,,64,0,8,,,,,0,,,76,100
26464,note_off,,,,,64,0,12,,,,,4,,,52,100
26496,note_on,,,,,32,0,12,,,,,4,,,51,85
26496,note_on,,,,,32,0,14,,,,,5,,,63,100
26496,note_on,,,,,32,0,10,,,,,2,,,69,85
26496,note_on,,,,,32,0,13,,,,,5,,,69,100
26496,note_on,,,,,32,0,11,,,,,3,,,63,85
26496,note_on,,,,,0,0,13,,,,,5,,,72,100
26496,note_on,,,,,32,0,9,,,,,1,,,72,85
26496,note_on,,,,,32,0,8,,,,,0,,,78,85
26752,note_off,,,,,256,0,10,,,,,2,,,69,100
26752,note_off,,,,,256,0,13,,,,,5,,,69,100
26752,note_off,,,,,256,0,9,,,,,1,,,72,100
26752,note_off,,,,,0,0,13,,,,,5,,,72,100
26752,note_off,,,,,256,0,12,,,,,4,,,51,100
26752,note_off,,,,,256,0,8,,,,,0,,,78,100
26752,note_off,,,,,256,0,11,,,,,3,,,63,100
26752,note_off,,,,,256,0,14,,,,,5,,,63,100
26880,note_on,,,,,128,0,8,,,,,0,,,83,85
26880,note_on,,,,,128,0,9,,,,,1,,,71,85
26880,note_on,,,,,128,0,10,,,,,2,,,66,85
26880,note_on,,,,,128,0,14,,,,,5,,,62,100
26880,note_on,,,,,128,0,12,,,,,4,,,50,85
26880,note_on,,,,,128,0,11,,,,,3,,,62,85
26880,note_on,,,,,128,0,13,,,,,5,,,71,100
26880,note_on,,,,,0,0,13,,,,,5,,,66,100
27136,note_off,,,,,256,0,8,,,,,0,,,83,100
27136,note_off,,,,,256,0,10,,,,,2,,,66,100
27136,note_off,,,,,256,0,9,,,,,1,,,71,100
27136,note_off,,,,,256,0,11,,,,,3,,,62,100
27136,note_off,,,,,256,0,13,,,,,5,,,71,100
27136,note_off,,,,,0,0,13,,,,,5,,,66,100
27136,note_off,,,,,256,0,14,,,,,5,,,62,100
27136,note_off,,,,,256,0,12,,,,,4,,,50,100
27648,note_on,,,,,512,0,9,,,,,1,,,71,85
27648,note_on,,,,,512,0,14,,,,,5,,,61,100
27648,note_on,,,,,512,0,12,,,,,4,,,49,85
27648,note_on,,,,,512,0,10,,,,,2,,,67,85
27648,note_on,,,,,512,0,8,,,,,0,,,76,85
27648,note_on,,,,,0,0,13,,,,,5,,,71,100
27648,note_on,,,,,512,0,13,,,,,5,,,67,100
27648,note_on,,,,,512,0,11,,,,,3,,,61,85
27904,note_off,,,,,256,0,9,,,,,1,,,71,100
27904,note_off,,,,,256,0,8,,,,,0,,,76,100
27904,note_off,,,,,256,0,10,,,,,2,,,67,100
27904,note_off,,,,,256,0,12,,,,,4,,,49,100
27904,note_off,,,,,0,0,13,,,,,5,,,71,100
27904,note_off,,,,,256,0,13,,,,,5,,,67,100
27904,note_off,,,,,256,0,14,,,,,5,,,61,100
27904,note_off,,,,,256,0,11,,,,,3,,,61,100
28032,note_on,,,,,128,0,10,,,,,2,,,64,85
28032,note_on,,,,,128,0,8,,,,,0,,,69,85
28032,note_on,,,,,128,0,13,,,,,5,,,64,100
28032,note_on,,,,,0,0,13,,,,,5,,,69,100
28032,note_on,,,,,128,0,11,,,,,3,,,60,85
28032,note_on,,,,,128,0,12,,,,,4,,,48,85
28032,note_on,,,,,128,0,14,,,,,5,,,60,100
28032,note_on,,,,,128,0,9,,,,,1,,,69,85
28224,note_off,,,,,192,0,8,,,,,0,,,69,100
28288,note_off,,,,,256,0,13,,,,,5,,,64,100
28288,note_off,,,,,0,0,13,,,,,5,,,69,100
28288,note_off,,,,,256,0,11,,,,,3,,,60,100
28288,note_off,,,,,256,0,9,,,,,1,,,69,100
28288,note_off,,,,,256,0,14,,,,,5,,,60,100
28288,note_off,,,,,256,0,10,,,,,2,,,64,100
28288,note_off,,,,,256,0,12,,,,,4,,,48,100
28320,note_on,,,,,96,0,8,,,,,0,,,79,85
28384,note_off,,,,,64,0,8,,,,,0,,,79,100
28416,note_on,,,,,32,0,8,,,,,0,,,78,85
28608,note_off,,,,,192,0,8,,,,,0,,,78,100
28704,note_on,,,,,416,0,11,,,,,3,,,60,85
28704,note_on,,,,,416,0,12,,,,,4,,,48,85
28704,note_on,,,,,96,0,8,,,,,0,,,78,85
28704,note_on,,,,,416,0,10,,,,,2,,,69,85
28704,note_on,,,,,0,0,13,,,,,5,,,69,100
28704,note_on,,,,,416,0,13,,,,,5,,,66,100
28704,note_on,,,,,416,0,14,,,,,5,,,60,100
28704,note_on,,,,,416,0,9,,,,,1,,,69,85
28768,note_off,,,,,64,0,14,,,,,5,,,60,100
28768,note_off,,,,,64,0,11,,,,,3,,,60,100
28768,note_off,,,,,64,0,12,,,,,4,,,48,100
28768,note_off,,,,,0,0,13,,,,,5,,,69,100
28768,note_off,,,,,64,0,13,,,,,5,,,66,100
28768,note_off,,,,,64,0,9,,,,,1,,,69,100
28768,note_off,,,,,64,0,10,,,,,2,,,69,100
28768,note_off,,,,,64,0,8,,,,,0,,,78,100
28800,note_on,,,,,32,0,9,,,,,1,,,71,85
28800,note_on,,,,,0,0,13,,,,,5,,,66,100
28800,note_on,,,,,32,0,10,,,,,2,,,66,85
28800,note_on,,,,,32,0,12,,,,,4,,,47,85
28800,note_on,,,,,32,0,8,,,,,0,,,75,85
28800,note_on,,,,,32,0,11,,,,,3,,,59,85
28800,note_on,,,,,32,0,14,,,,,5,,,59,100
28800,note_on,,,,,32,0,13,,,,,5,,,63,100
28992,note_off,,,,,192,0,11,,,,,3,,,59,100
28992,note_off,,,,,192,0,14,,,,,5,,,59,100
28992,note_off,,,,,192,0,12,,,,,4,,,47,100
29056,note_off,,,,,0,0,13,,,,,5,,,66,100
29056,note_off,,,,,256,0,13,,,,,5,,,63,100
29088,note_on,,,,,96,0,11,,,,,3,,,60,85
29088,note_on,,,,,96,0,14,,,,,5,,,60,100
29088,note_on,,,,,96,0,12,,,,,4,,,48,85
29152,note_off,,,,,64,0,11,,,,,3,,,60,100
29152,note_off,,,,,64,0,12,,,,,4,,,48,100
29152,note_off,,,,,64,0,14,,,,,5,,,60,100
29184,note_on,,,,,128,0,13,,,,,5,,,63,100
29184,note_on,,,,,0,0,13,,,,,5,,,66,100
29184,note_on,,,,,32,0,12,,,,,4,,,47,85
29184,note_on,,,,,32,0,14,,,,,5,,,59,100
29184,note_on,,,,,32,0,11,,,,,3,,,59,85
29184,note_off,,,,,384,0,8,,,,,0,,,75,100
29376,note_off,,,,,192,0,14,,,,,5,,,59,100
29376,note_on,,,,,192,0,8,,,,,0,,,73,85
29376,note_off,,,,,192,0,12,,,,,4,,,47,100
29376,note_off,,,,,192,0,11,,,,,3,,,59,100
29440,note_off,,,,,256,0,13,,,,,5,,,63,100
29440,note_off,,,,,0,0,13,,,,,5,,,66,100
29472,note_on,,,,,96,0,14,,,,,5,,,57,100
29472,note_on,,,,,96,0,12,,,,,4,,,45,85
29472,note_on,,,,,96,0,11,,,,,3,,,57,85
29504,note_off,,,,,128,0,8,,,,,0,,,73,100
29536,note_off,,,,,64,0,11,,,,,3,,,57,100
29536,note_off,,,,,64,0,14,,,,,5,,,57,100
29536,note_off,,,,,64,0,12,,,,,4,,,45,100
29568,note_on,,,,,32,0,14,,,,,5,,,55,100
29568,note_off,,,,,768,0,9,,,,,1,,,71,100
29568,note_on,,,,,32,0,12,,,,,4,,,43,85
29568,note_on,,,,,64,0,8,,,,,0,,,71,85
29568,note_off,,,,,768,0,10,,,,,2,,,66,100
29568,note_on,,,,,128,0,13,,,,,5,,,59,100
29568,note_on,,,,,32,0,11,,,,,3,,,55,85
29596,note_on,,,,,28,0,13,,,,,5,,,62,100
29628,note_on,,,,,32,0,13,,,,,5,,,67,100
29760,note_off,,,,,192,0,11,,,,,3,,,55,100
29760,note_off,,,,,192,0,14,,,,,5,,,55,100
29760,note_off,,,,,192,0,12,,,,,4,,,43,100
29824,note_off,,,,,256,0,8,,,,,0,,,71,100
29824,note_off,,,,,196,0,13,,,,,5,,,59,100
29852,note_off,,,,,28,0,13,,,,,5,,,62,100
29856,note_on,,,,,96,0,14,,,,,5,,,54,100
29856,note_on,,,,,96,0,12,,,,,4,,,42,85
29856,note_on,,,,,96,0,11,,,,,3,,,54,85
29884,note_off,,,,,32,0,13,,,,,5,,,67,100
29920,note_off,,,,,64,0,11,,,,,3,,,54,100
29920,note_off,,,,,64,0,12,,,,,4,,,42,100
29920,note_off,,,,,64,0,14,,,,,5,,,54,100
29952,note_on,,,,,68,0,13,,,,,5,,,67,100
29952,note_on,,,,,32,0,11,,,,,3,,,52,85
29952,note_on,,,,,32,0,14,,,,,5,,,52,100
29952,note_on,,,,,0,0,13,,,,,5,,,59,100
29952,note_on,,,,,32,0,12,,,,,4,,,40,85
29952,note_on,,,,,384,0,10,,,,,2,,,67,85
29952,note_on,,,,,384,0,9,,,,,1,,,76,85
29952,note_on,,,,,128,0,8,,,,,0,,,83,85
30208,note_off,,,,,256,0,12,,,,,4,,,40,100
30208,note_off,,,,,256,0,14,,,,,5,,,52,100
30208,note_off,,,,,256,0,10,,,,,2,,,67,100
30208,note_off,,,,,256,0,8,,,,,0,,,83,100
30208,note_off,,,,,256,0,11,,,,,3,,,52,100
30208,note_off,,,,,256,0,9,,,,,1,,,76,100
30208,note_off,,,,,0,0,13,,,,,5,,,59,100
30208,note_off,,,,,256,0,13,,,,,5,,,67,100
30336,note_on,,,,,128,0,9,,,,,1,,,71,85
30336,note_on,,,,,128,0,10,,,,,2,,,67,85
30336,note_on,,,,,0,0,13,,,,,5,,,71,100
30336,note_on,,,,,128,0,13,,,,,5,,,67,100
30336,note_on,,,,,128,0,12,,,,,4,,,52,85
30336,note_on,,,,,128,0,8,,,,,0,,,76,85
30336,note_on,,,,,128,0,14,,,,,5,,,64,100
30336,note_on,,,,,128,0,11,,,,,3,,,64,85
30528,note_off,,,,,192,0,8,,,,,0,,,76,100
30592,note_off,,,,,256,0,11,,,,,3,,,64,100
30592,note_off,,,,,256,0,13,,,,,5,,,67,100
30592,note_off,,,,,0,0,13,,,,,5,,,71,100
30592,note_off,,,,,256,0,14,,,,,5,,,64,100
30592,note_off,,,,,256,0,12,,,,,4,,,52,100
30592,note_off,,,,,256,0,9,,,,,1,,,71,100
30592,note_off,,,,,256,0,10,,,,,2,,,67,100
30624,note_on,,,,,96,0,8,,,,,0,,,79,85
30688,note_off,,,,,64,0,8,,,,,0,,,79,100
30720,note_on,,,,,32,0,8,,,,,0,,,78,85
30912,note_off,,,,,192,0,8,,,,,0,,,78,100
31008,note_on,,,,,416,0,11,,,,,3,,,64,85
31008,note_on,,,,,0,0,13,,,,,5,,,67,100
31008,note_on,,,,,416,0,13,,,,,5,,,72,100
31008,note_on,,,,,416,0,10,,,,,2,,,67,85
31008,note_on,,,,,416,0,12,,,,,4,,,52,85
31008,note_on,,,,,416,0,9,,,,,1,,,79,85
31008,note_on,,,,,416,0,14,,,,,5,,,64,100
31008,note_on,,,,,96,0,8,,,,,0,,,76,85
31072,note_off,,,,,64,0,8,,,,,0,,,76,100
31072,note_off,,,,,64,0,11,,,,,3,,,64,100
31072,note_off,,,,,64,0,13,,,,,5,,,72,100
31072,note_off,,,,,64,0,10,,,,,2,,,67,100
31072,note_off,,,,,64,0,12,,,,,4,,,52,100
31072,note_off,,,,,0,0,13,,,,,5,,,67,100
31072,note_off,,,,,64,0,9,,,,,1,,,79,100
31072,note_off,,,,,64,0,14,,,,,5,,,64,100
31104,note_on,,,,,32,0,14,,,,,5,,,54,100
31104,note_on,,,,,0,0,13,,,,,5,,,70,100
31104,note_on,,,,,32,0,9,,,,,1,,,73,85
31104,note_on,,,,,32,0,11,,,,,3,,,54,85
31104,note_on,,,,,32,0,13,,,,,5,,,73,100
31104,note_on,,,,,32,0,8,,,,,0,,,82,85
31104,note_on,,,,,32,0,10,,,,,2,,,66,85
31104,note_on,,,,,32,0,12,,,,,4,,,42,85
31488,note_off,,,,,384,0,11,,,,,3,,,54,100
31488,note_off,,,,,384,0,14,,,,,5,,,54,100
31488,note_off,,,,,384,0,12,,,,,4,,,42,100
31488,note_off,,,,,0,0,13,,,,,5,,,70,100
31488,note_off,,,,,384,0,13,,,,,5,,,73,100
31488,note_off,,,,,384,0,8,,,,,0,,,82,100
31616,note_off,,,,,512,0,10,,,,,2,,,66,100
31616,note_off,,,,,512,0,9,,,,,1,,,73,100
31680,note_on,,,,,192,0,11,,,,,3,,,52,85
31680,note_on,,,,,192,0,13,,,,,5,,,66,100
31680,note_on,,,,,192,0,8,,,,,0,,,78,85
31680,note_on,,,,,0,0,13,,,,,5,,,71,100
31680,note_on,,,,,192,0,14,,,,,5,,,52,100
31680,note_on,,,,,192,0,12,,,,,4,,,40,85
31808,note_off,,,,,128,0,8,,,,,0,,,78,100
31808,note_off,,,,,128,0,11,,,,,3,,,52,100
31808,note_off,,,,,128,0,14,,,,,5,,,52,100
31808,note_off,,,,,128,0,13,,,,,5,,,66,100
31808,note_off,,,,,128,0,12,,,,,4,,,40,100
31808,note_off,,,,,0,0,13,,,,,5,,,71,100
31872,note_on,,,,,64,0,12,,,,,4,,,38,85
31872,note_on,,,,,256,0,10,,,,,2,,,66,85
31872,note_on,,,,,64,0,8,,,,,0,,,83,85
31872,note_on,,,,,256,0,9,,,,,1,,,71,85
31872,note_on,,,,,64,0,14,,,,,5,,,50,100
31872,note_on,,,,,64,0,13,,,,,5,,,71,100
31872,note_on,,,,,0,0,13,,,,,5,,,66,100
31872,note_on,,,,,64,0,11,,,,,3,,,50,85
32064,note_off,,,,,192,0,8,,,,,0,,,83,100
32128,note_off,,,,,256,0,12,,,,,4,,,38,100
32128,note_off,,,,,256,0,14,,,,,5,,,50,100
32128,note_off,,,,,256,0,13,,,,,5,,,71,100
32128,note_off,,,,,0,0,13,,,,,5,,,66,100
32128,note_off,,,,,256,0,11,,,,,3,,,50,100
32128,note_off,,,,,256,0,10,,,,,2,,,66,100
32160,note_on,,,,,96,0,8,,,,,0,,,78,85
32224,note_off,,,,,64,0,8,,,,,0,,,78,100
32256,note_on,,,,,128,0,12,,,,,4,,,40,85
32256,note_on,,,,,32,0,8,,,,,0,,,76,85
32256,note_on,,,,,128,0,13,,,,,5,,,71,100
32256,note_on,,,,,0,0,13,,,,,5,,,62,100
32256,note_on,,,,,128,0,11,,,,,3,,,52,85
32256,note_on,,,,,128,0,10,,,,,2,,,67,85
32256,note_on,,,,,128,0,14,,,,,5,,,52,100
32448,note_off,,,,,192,0,8,,,,,0,,,76,100
32512,note_off,,,,,640,0,9,,,,,1,,,71,100
32512,note_off,,,,,256,0,10,,,,,2,,,67,100
32512,note_off,,,,,256,0,13,,,,,5,,,71,100
32512,note_off,,,,,0,0,13,,,,,5,,,62,100
32512,note_off,,,,,256,0,14,,,,,5,,,52,100
32512,note_off,,,,,256,0,12,,,,,4,,,40,100
32512,note_off,,,,,256,0,11,,,,,3,,,52,100
32544,note_on,,,,,96,0,8,,,,,0,,,74,85
32608,note_off,,,,,64,0,8,,,,,0,,,74,100
32640,note_on,,,,,128,0,14,,,,,5,,,54,100
32640,note_on,,,,,128,0,10,,,,,2,,,61,85
32640,note_on,,,,,0,0,13,,,,,5,,,73,100
32640,note_on,,,,,32,0,8,,,,,0,,,73,85
32640,note_on,,,,,128,0,13,,,,,5,,,70,100
32640,note_on,,,,,128,0,9,,,,,1,,,70,85
32640,note_on,,,,,128,0,11,,,,,3,,,54,85
32640,note_on,,,,,128,0,12,,,,,4,,,42,85
32732,note_off,,,,,92,0,9,,,,,1,,,70,100
32732,note_off,,,,,92,0,8,,,,,0,,,73,100
32736,note_on,,,,,4,0,9,,,,,1,,,71,85
32736,note_on,,,,,4,0,8,,,,,0,,,74,85
32828,note_off,,,,,92,0,9,,,,,1,,,71,100
32828,note_off,,,,,92,0,8,,,,,0,,,74,100
32832,note_on,,,,,4,0,8,,,,,0,,,73,85
32832,note_on,,,,,4,0,9,,,,,1,,,70,85
32876,note_off,,,,,44,0,8,,,,,0,,,73,100
32876,note_off,,,,,44,0,9,,,,,1,,,70,100
32880,note_on,,,,,4,0,8,,,,,0,,,74,85
32880,note_on,,,,,4,0,9,,,,,1,,,71,85
32896,note_off,,,,,256,0,13,,,,,5,,,70,100
32896,note_off,,,,,256,0,14,,,,,5,,,54,100
32896,note_off,,,,,256,0,10,,,,,2,,,61,100
32896,note_off,,,,,256,0,11,,,,,3,,,54,100
32896,note_off,,,,,256,0,12,,,,,4,,,42,100
32896,note_off,,,,,0,0,13,,,,,5,,,73,100
32924,note_off,,,,,44,0,9,,,,,1,,,71,100
32924,note_off,,,,,44,0,8,,,,,0,,,74,100
32928,note_on,,,,,4,0,8,,,,,0,,,73,85
32928,note_on,,,,,4,0,9,,,,,1,,,70,85
32972,note_off,,,,,44,0,8,,,,,0,,,73,100
32972,note_off,,,,,44,0,9,,,,,1,,,70,100
32976,note_on,,,,,4,0,9,,,,,1,,,71,85
32976,note_on,,,,,4,0,8,,,,,0,,,74,85
33020,note_off,,,,,44,0,8,,,,,0,,,74,100
33020,note_off,,,,,44,0,9,,,,,1,,,71,100
33024,note_on,,,,,128,0,10,,,,,2,,,66,85
33024,note_on,,,,,0,0,13,,,,,5,,,70,100
33024,note_on,,,,,128,0,14,,,,,5,,,42,100
33024,note_on,,,,,128,0,11,,,,,3,,,42,85
33024,note_on,,,,,128,0,12,,,,,4,,,42,85
33024,note_on,,,,,128,0,13,,,,,5,,,61,100
33024,note_on,,,,,4,0,8,,,,,0,,,73,85
33024,note_on,,,,,4,0,9,,,,,1,,,70,85
33152,note_off,,,,,128,0,8,,,,,0,,,73,100
33152,note_off,,,,,128,0,9,,,,,1,,,70,100
33216,note_on,,,,,64,0,8,,,,,0,,,71,85
33216,note_on,,,,,64,0,9,,,,,1,,,71,85
33280,note_off,,,,,256,0,12,,,,,4,,,42,100
33280,note_off,,,,,256,0,10,,,,,2,,,66,100
33280,note_off,,,,,256,0,11,,,,,3,,,42,100
33280,note_off,,,,,0,0,13,,,,,5,,,70,100
33280,note_off,,,,,256,0,13,,,,,5,,,61,100
33280,note_off,,,,,256,0,14,,,,,5,,,42,100
33344,note_off,,,,,128,0,9,,,,,1,,,71,100
33344,note_off,,,,,128,0,8,,,,,0,,,71,100
33404,program_change,,,,,60,0,8,,,,,0,40,,,
33408,note_on,,,,,128,0,10,,,,,2,,,62,85
33408,note_on,,,,,128,0,11,,,,,3,,,47,85
33408,note_on,,,,,128,0,12,,,,,4,,,35,85
33408,note_on,,,,,0,0,13,,,,,5,,,66,100
33408,note_on,,,,,128,0,13,,,,,5,,,71,100
33408,note_on,,,,,4,0,8,,,,,0,,,71,85
33408,note_on,,,,,0,0,13,,,,,5,,,62,100
33408,note_on,,,,,64,0,9,,,,,1,,,71,85
33408,note_on,,,,,128,0,14,,,,,5,,,47,100
33664,note_off,,,,,256,0,10,,,,,2,,,62,100
33664,note_off,,,,,256,0,9,,,,,1,,,71,100
33692,note_off,,,,,284,0,8,,,,,0,,,71,100
33696,note_on,,,,,4,0,8,,,,,0,,,74,85
33760,note_off,,,,,64,0,8,,,,,0,,,74,100
33792,note_on,,,,,32,0,8,,,,,0,,,74,85
34076,note_off,,,,,284,0,8,,,,,0,,,74,100
34080,note_on,,,,,4,0,8,,,,,0,,,78,85
34144,note_off,,,,,64,0,8,,,,,0,,,78,100
34176,note_off,,,,,768,0,14,,,,,5,,,47,100
34176,note_off,,,,,768,0,13,,,,,5,,,71,100
34176,note_off,,,,,768,0,11,,,,,3,,,47,100
34176,note_off,,,,,0,0,13,,,,,5,,,62,100
34176,note_off,,,,,768,0,12,,,,,4,,,35,100
34176,note_on,,,,,32,0,8,,,,,0,,,78,85
34176,note_off,,,,,0,0,13,,,,,5,,,66,100
34460,note_off,,,,,284,0,8,,,,,0,,,78,100
34464,note_on,,,,,4,0,8,,,,,0,,,72,85
34528,note_off,,,,,64,0,8,,,,,0,,,72,100
34560,note_on,,,,,384,0,13,,,,,5,,,72,100
34560,note_on,,,,,0,0,13,,,,,5,,,69,100
34560,note_on,,,,,384,0,14,,,,,5,,,51,100
34560,note_on,,,,,384,0,12,,,,,4,,,39,70
34560,note_on,,,,,384,0,11,,,,,3,,,51,70
34560,note_on,,,,,32,0,8,,,,,0,,,72,85
34844,note_off,,,,,284,0,8,,,,,0,,,72,100
34848,note_on,,,,,4,0,8,,,,,0,,,69,85
34912,note_off,,,,,64,0,8,,,,,0,,,69,100
34944,note_on,,,,,32,0,8,,,,,0,,,69,85
35228,note_off,,,,,284,0,8,,,,,0,,,69,100
35232,note_on,,,,,4,0,8,,,,,0,,,78,85
35296,note_off,,,,,64,0,8,,,,,0,,,78,100
35328,note_on,,,,,32,0,8,,,,,0,,,78,85
35328,note_off,,,,,768,0,13,,,,,5,,,72,100
35328,note_off,,,,,0,0,13,,,,,5,,,69,100
35596,note_off,,,,,1036,0,14,,,,,5,,,51,100
35596,note_off,,,,,1036,0,12,,,,,4,,,39,100
35596,note_off,,,,,1036,0,11,,,,,3,,,51,100
35612,note_off,,,,,284,0,8,,,,,0,,,78,100
35616,note_on,,,,,4,0,8,,,,,0,,,79,85
35680,note_off,,,,,64,0,8,,,,,0,,,79,100
35712,note_on,,,,,116,0,12,,,,,4,,,40,70
35712,note_on,,,,,32,0,8,,,,,0,,,79,85
35712,note_on,,,,,384,0,13,,,,,5,,,67,100
35712,note_on,,,,,0,0,13,,,,,5,,,71,100
35712,note_on,,,,,116,0,11,,,,,3,,,52,70
35712,note_on,,,,,116,0,14,,,,,5,,,52,100
35996,note_off,,,,,284,0,8,,,,,0,,,79,100
36000,note_on,,,,,4,0,8,,,,,0,,,76,85
36064,note_off,,,,,64,0,8,,,,,0,,,76,100
36096,note_on,,,,,32,0,8,,,,,0,,,76,85
36380,note_off,,,,,284,0,8,,,,,0,,,76,100
36384,note_on,,,,,4,0,8,,,,,0,,,71,85
36448,note_off,,,,,64,0,8,,,,,0,,,71,100
36480,note_on,,,,,32,0,8,,,,,0,,,71,85
36480,note_off,,,,,768,0,13,,,,,5,,,67,100
36480,note_off,,,,,0,0,13,,,,,5,,,71,100
36748,note_off,,,,,1036,0,11,,,,,3,,,52,100
36748,note_off,,,,,1036,0,12,,,,,4,,,40,100
36748,note_off,,,,,1036,0,14,,,,,5,,,52,100
36764,note_off,,,,,284,0,8,,,,,0,,,71,100
36768,note_on,,,,,4,0,8,,,,,0,,,72,85
36832,note_off,,,,,64,0,8,,,,,0,,,72,100
36864,note_on,,,,,116,0,11,,,,,3,,,45,70
36864,note_on,,,,,116,0,12,,,,,4,,,33,70
36864,note_on,,,,,116,0,14,,,,,5,,,45,100
36864,note_on,,,,,0,0,13,,,,,5,,,64,100
36864,note_on,,,,,32,0,8,,,,,0,,,72,85
36864,note_on,,,,,384,0,13,,,,,5,,,60,100
37148,note_off,,,,,284,0,8,,,,,0,,,72,100
37152,note_on,,,,,4,0,8,,,,,0,,,76,85
37216,note_off,,,,,64,0,8,,,,,0,,,76,100
37248,note_on,,,,,32,0,8,,,,,0,,,76,85
37532,note_off,,,,,284,0,8,,,,,0,,,76,100
37536,note_on,,,,,4,0,8,,,,,0,,,81,85
37600,note_off,,,,,64,0,8,,,,,0,,,81,100
37632,note_off,,,,,768,0,13,,,,,5,,,60,100
37632,note_off,,,,,0,0,13,,,,,5,,,64,100
37632,note_on,,,,,32,0,8,,,,,0,,,81,85
37900,note_off,,,,,1036,0,11,,,,,3,,,45,100
37900,note_off,,,,,1036,0,12,,,,,4,,,33,100
37900,note_off,,,,,1036,0,14,,,,,5,,,45,100
37916,note_off,,,,,284,0,8,,,,,0,,,81,100
37920,note_on,,,,,4,0,8,,,,,0,,,83,85
37984,note_off,,,,,64,0,8,,,,,0,,,83,100
38016,note_on,,,,,32,0,8,,,,,0,,,75,85
38016,note_on,,,,,116,0,11,,,,,3,,,47,70
38016,note_on,,,,,0,0,13,,,,,5,,,66,100
38016,note_on,,,,,384,0,13,,,,,5,,,63,100
38016,note_on,,,,,116,0,12,,,,,4,,,35,70
38016,note_on,,,,,116,0,14,,,,,5,,,47,100
38400,note_off,,,,,384,0,8,,,,,0,,,75,100
38528,note_off,,,,,512,0,13,,,,,5,,,63,100
38528,note_off,,,,,0,0,13,,,,,5,,,66,100
38528,note_off,,,,,512,0,11,,,,,3,,,47,100
38528,note_off,,,,,512,0,12,,,,,4,,,35,100
38528,note_off,,,,,512,0,14,,,,,5,,,47,100
38592,note_on,,,,,192,0,8,,,,,0,,,71,85
38720,note_off,,,,,128,0,8,,,,,0,,,71,100
38784,note_on,,,,,256,0,14,,,,,5,,,43,100
38784,note_on,,,,,256,0,12,,,,,4,,,43,70
38784,note_on,,,,,64,0,8,,,,,0,,,76,85
38784,note_on,,,,,256,0,11,,,,,3,,,43,70
38784,note_on,,,,,256,0,13,,,,,5,,,67,100
38784,note_on,,,,,0,0,13,,,,,5,,,59,100
38784,note_on,,,,,0,0,13,,,,,5,,,62,100
38976,note_off,,,,,192,0,8,,,,,0,,,76,100
39040,note_off,,,,,256,0,14,,,,,5,,,43,100
39040,note_off,,,,,0,0,13,,,,,5,,,59,100
39040,note_off,,,,,256,0,12,,,,,4,,,43,100
39040,note_off,,,,,0,0,13,,,,,5,,,62,100
39040,note_off,,,,,256,0,11,,,,,3,,,43,100
39040,note_off,,,,,256,0,13,,,,,5,,,67,100
39072,note_on,,,,,96,0,8,,,,,0,,,71,85
39136,note_off,,,,,64,0,8,,,,,0,,,71,100
39168,note_on,,,,,128,0,12,,,,,4,,,45,70
39168,note_on,,,,,128,0,11,,,,,3,,,45,70
39168,note_on,,,,,128,0,14,,,,,5,,,45,100
39168,note_on,,,,,128,0,13,,,,,5,,,67,100
39168,note_on,,,,,0,0,13,,,,,5,,,64,100
39168,note_on,,,,,32,0,8,,,,,0,,,79,85
39360,note_off,,,,,192,0,8,,,,,0,,,79,100
39424,note_off,,,,,256,0,14,,,,,5,,,45,100
39424,note_off,,,,,256,0,12,,,,,4,,,45,100
39424,note_off,,,,,256,0,13,,,,,5,,,67,100
39424,note_off,,,,,0,0,13,,,,,5,,,64,100
39424,note_off,,,,,256,0,11,,,,,3,,,45,100
39456,note_on,,,,,96,0,8,,,,,0,,,76,85
39520,note_off,,,,,64,0,8,,,,,0,,,76,100
39552,note_on,,,,,128,0,12,,,,,4,,,35,70
39552,note_on,,,,,128,0,14,,,,,5,,,47,100
39552,note_on,,,,,128,0,13,,,,,5,,,63,100
39552,note_on,,,,,128,0,11,,,,,3,,,47,70
39552,note_on,,,,,32,0,8,,,,,0,,,75,85
39552,note_on,,,,,0,0,13,,,,,5,,,66,100
39644,note_off,,,,,92,0,8,,,,,0,,,75,100
39648,note_on,,,,,4,0,8,,,,,0,,,76,85
39740,note_off,,,,,92,0,8,,,,,0,,,76,100
39744,note_on,,,,,4,0,8,,,,,0,,,75,85
39788,note_off,,,,,44,0,8,,,,,0,,,75,100
39792,note_on,,,,,4,0,8,,,,,0,,,76,85
39836,note_off,,,,,44,0,8,,,,,0,,,76,100
39840,note_on,,,,,4,0,8,,,,,0,,,75,85
39884,note_off,,,,,44,0,8,,,,,0,,,75,100
39888,note_on,,,,,4,0,8,,,,,0,,,76,85
39932,note_off,,,,,44,0,8,,,,,0,,,76,100
39936,note_on,,,,,4,0,8,,,,,0,,,75,85
40064,note_off,,,,,512,0,11,,,,,3,,,47,100
40064,note_off,,,,,512,0,13,,,,,5,,,63,100
40064,note_off,,,,,512,0,14,,,,,5,,,47,100
40064,note_off,,,,,512,0,12,,,,,4,,,35,100
40064,note_off,,,,,128,0,8,,,,,0,,,75,100
40064,note_off,,,,,0,0,13,,,,,5,,,66,100
40128,note_on,,,,,64,0,8,,,,,0,,,76,85
40256,note_off,,,,,128,0,8,,,,,0,,,76,100
40316,program_change,,,,,6652,0,9,,,,,1,40,,,
40320,note_on,,,,,0,0,13,,,,,5,,,67,100
40320,note_on,,,,,0,0,9,,,,,1,,,79,85
40320,note_on,,,,,4,0,9,,,,,1,,,76,85
40320,note_on,,,,,256,0,14,,,,,5,,,52,100
40320,note_on,,,,,256,0,11,,,,,3,,,52,70
40320,note_on,,,,,256,0,12,,,,,4,,,40,70
40320,note_on,,,,,6656,0,10,,,,,2,,,64,70
40320,note_on,,,,,256,0,13,,,,,5,,,59,100
40320,note_on,,,,,64,0,8,,,,,0,,,76,85
40576,note_off,,,,,256,0,8,,,,,0,,,76,100
40576,note_off,,,,,256,0,11,,,,,3,,,52,100
40576,note_off,,,,,256,0,12,,,,,4,,,40,100
40576,note_off,,,,,256,0,14,,,,,5,,,52,100
40576,note_off,,,,,0,0,9,,,,,1,,,79,100
40576,note_off,,,,,256,0,9,,,,,1,,,76,100
40576,note_off,,,,,0,0,13,,,,,5,,,67,100
40576,note_off,,,,,256,0,10,,,,,2,,,64,100
40576,note_off,,,,,256,0,13,,,,,5,,,59,100
40704,note_on,,,,,128,0,10,,,,,2,,,64,70
40704,note_on,,,,,128,0,9,,,,,1,,,76,85
40704,note_on,,,,,0,0,9,,,,,1,,,79,85
40896,note_off,,,,,192,0,9,,,,,1,,,76,100
40896,note_off,,,,,0,0,9,,,,,1,,,79,100
40960,note_off,,,,,256,0,10,,,,,2,,,64,100
40992,note_on,,,,,96,0,9,,,,,1,,,78,85
40992,note_on,,,,,0,0,9,,,,,1,,,81,85
41056,note_off,,,,,64,0,9,,,,,1,,,78,100
41056,note_off,,,,,0,0,9,,,,,1,,,81,100
41088,note_on,,,,,32,0,9,,,,,1,,,79,85
41088,note_on,,,,,128,0,10,,,,,2,,,64,70
41088,note_on,,,,,0,0,9,,,,,1,,,83,85
41280,note_off,,,,,0,0,9,,,,,1,,,83,100
41280,note_off,,,,,192,0,9,,,,,1,,,79,100
41344,note_off,,,,,256,0,10,,,,,2,,,64,100
41376,note_on,,,,,0,0,9,,,,,1,,,79,85
41376,note_on,,,,,96,0,9,,,,,1,,,76,85
41440,note_off,,,,,0,0,9,,,,,1,,,79,100
41440,note_off,,,,,64,0,9,,,,,1,,,76,100
41472,note_on,,,,,128,0,10,,,,,2,,,59,70
41472,note_on,,,,,32,0,9,,,,,1,,,75,85
41472,note_on,,,,,0,0,9,,,,,1,,,78,85
41728,note_off,,,,,0,0,9,,,,,1,,,78,100
41728,note_off,,,,,256,0,10,,,,,2,,,59,100
41728,note_off,,,,,256,0,9,,,,,1,,,75,100
41856,note_on,,,,,128,0,9,,,,,1,,,75,85
41856,note_on,,,,,128,0,10,,,,,2,,,59,70
41856,note_on,,,,,0,0,9,,,,,1,,,78,85
42048,note_off,,,,,192,0,9,,,,,1,,,75,100
42048,note_off,,,,,0,0,9,,,,,1,,,78,100
42112,note_off,,,,,256,0,10,,,,,2,,,59,100
42144,note_on,,,,,96,0,9,,,,,1,,,76,85
42144,note_on,,,,,0,0,9,,,,,1,,,79,85
42208,note_off,,,,,0,0,9,,,,,1,,,79,100
42208,note_off,,,,,64,0,9,,,,,1,,,76,100
42240,note_on,,,,,128,0,10,,,,,2,,,59,70
42240,note_on,,,,,0,0,9,,,,,1,,,81,85
42240,note_on,,,,,32,0,9,,,,,1,,,78,85
42432,note_off,,,,,0,0,9,,,,,1,,,81,100
42432,note_off,,,,,192,0,9,,,,,1,,,78,100
42496,note_off,,,,,256,0,10,,,,,2,,,59,100
42528,note_on,,,,,0,0,9,,,,,1,,,78,85
42528,note_on,,,,,96,0,9,,,,,1,,,75,85
42592,note_off,,,,,0,0,9,,,,,1,,,78,100
42592,note_off,,,,,64,0,9,,,,,1,,,75,100
42624,note_on,,,,,32,0,9,,,,,1,,,76,85
42624,note_on,,,,,0,0,9,,,,,1,,,79,85
42624,note_on,,,,,128,0,10,,,,,2,,,64,70
42880,note_off,,,,,0,0,9,,,,,1,,,79,100
42880,note_off,,,,,256,0,10,,,,,2,,,64,100
42880,note_off,,,,,256,0,9,,,,,1,,,76,100
43008,note_on,,,,,0,0,9,,,,,1,,,79,85
43008,note_on,,,,,128,0,10,,,,,2,,,64,70
43008,note_on,,,,,128,0,9,,,,,1,,,76,85
43200,note_off,,,,,0,0,9,,,,,1,,,79,100
43200,note_off,,,,,192,0,9,,,,,1,,,76,100
43264,note_off,,,,,256,0,10,,,,,2,,,64,100
43296,note_on,,,,,0,0,9,,,,,1,,,81,85
43296,note_on,,,,,96,0,9,,,,,1,,,78,85
43360,note_off,,,,,64,0,9,,,,,1,,,78,100
43360,note_off,,,,,0,0,9,,,,,1,,,81,100
43392,note_on,,,,,0,0,9,,,,,1,,,83,85
43392,note_on,,,,,32,0,9,,,,,1,,,79,85
43392,note_on,,,,,128,0,10,,,,,2,,,64,70
43584,note_off,,,,,192,0,9,,,,,1,,,79,100
43584,note_off,,,,,0,0,9,,,,,1,,,83,100
43648,note_off,,,,,256,0,10,,,,,2,,,64,100
43680,note_on,,,,,96,0,9,,,,,1,,,76,85
43680,note_on,,,,,0,0,9,,,,,1,,,79,85
43744,note_off,,,,,64,0,9,,,,,1,,,76,100
43744,note_off,,,,,0,0,9,,,,,1,,,79,100
43776,note_on,,,,,128,0,10,,,,,2,,,59,70
43776,note_on,,,,,32,0,9,,,,,1,,,75,85
43776,note_on,,,,,0,0,9,,,,,1,,,78,85
43968,note_off,,,,,0,0,9,,,,,1,,,78,100
43968,note_off,,,,,192,0,9,,,,,1,,,75,100
44032,note_off,,,,,256,0,10,,,,,2,,,59,100
44064,note_on,,,,,96,0,9,,,,,1,,,76,85
44064,note_on,,,,,0,0,9,,,,,1,,,79,85
44128,note_off,,,,,64,0,9,,,,,1,,,76,100
44128,note_off,,,,,0,0,9,,,,,1,,,79,100
44160,note_on,,,,,32,0,9,,,,,1,,,76,85
44160,note_on,,,,,0,0,9,,,,,1,,,73,85
44160,note_on,,,,,128,0,10,,,,,2,,,59,70
44352,note_off,,,,,192,0,9,,,,,1,,,76,100
44352,note_off,,,,,0,0,9,,,,,1,,,73,100
44416,note_off,,,,,256,0,10,,,,,2,,,59,100
44448,note_on,,,,,96,0,9,,,,,1,,,79,85
44448,note_on,,,,,0,0,9,,,,,1,,,76,85
44512,note_off,,,,,64,0,9,,,,,1,,,79,100
44512,note_off,,,,,0,0,9,,,,,1,,,76,100
44544,note_on,,,,,32,0,9,,,,,1,,,75,85
44544,note_on,,,,,0,0,9,,,,,1,,,78,85
44544,note_on,,,,,128,0,10,,,,,2,,,59,70
44800,note_off,,,,,0,0,9,,,,,1,,,78,100
44800,note_off,,,,,256,0,10,,,,,2,,,59,100
44800,note_off,,,,,256,0,9,,,,,1,,,75,100
44928,note_on,,,,,4352,0,8,,,,,0,,,76,70
44928,note_on,,,,,0,0,8,,,,,0,,,79,70
44928,note_on,,,,,128,0,10,,,,,2,,,64,60
45184,note_off,,,,,256,0,8,,,,,0,,,76,100
45184,note_off,,,,,0,0,8,,,,,0,,,79,100
45184,note_off,,,,,256,0,10,,,,,2,,,64,100
45312,note_on,,,,,128,0,8,,,,,0,,,76,70
45312,note_on,,,,,0,0,8,,,,,0,,,79,70
45312,note_on,,,,,128,0,10,,,,,2,,,64,60
45504,note_off,,,,,192,0,8,,,,,0,,,76,100
45504,note_off,,,,,0,0,8,,,,,0,,,79,100
45568,note_off,,,,,256,0,10,,,,,2,,,64,100
45600,note_on,,,,,0,0,8,,,,,0,,,81,70
45600,note_on,,,,,96,0,8,,,,,0,,,78,70
45664,note_off,,,,,64,0,8,,,,,0,,,78,100
45664,note_off,,,,,0,0,8,,,,,0,,,81,100
45696,note_on,,,,,32,0,8,,,,,0,,,79,70
45696,note_on,,,,,128,0,10,,,,,2,,,64,60
45696,note_on,,,,,0,0,8,,,,,0,,,83,70
45888,note_off,,,,,192,0,8,,,,,0,,,79,100
45888,note_off,,,,,0,0,8,,,,,0,,,83,100
45952,note_off,,,,,256,0,10,,,,,2,,,64,100
45984,note_on,,,,,96,0,8,,,,,0,,,76,70
45984,note_on,,,,,0,0,8,,,,,0,,,79,70
46048,note_off,,,,,64,0,8,,,,,0,,,76,100
46048,note_off,,,,,0,0,8,,,,,0,,,79,100
46080,note_on,,,,,32,0,8,,,,,0,,,75,70
46080,note_on,,,,,128,0,10,,,,,2,,,59,60
46080,note_on,,,,,0,0,8,,,,,0,,,78,70
46336,note_off,,,,,256,0,10,,,,,2,,,59,100
46336,note_off,,,,,0,0,8,,,,,0,,,78,100
46336,note_off,,,,,256,0,8,,,,,0,,,75,100
46464,note_on,,,,,128,0,8,,,,,0,,,75,70
46464,note_on,,,,,0,0,8,,,,,0,,,78,70
46464,note_on,,,,,128,0,10,,,,,2,,,59,60
46656,note_off,,,,,192,0,8,,,,,0,,,75,100
46656,note_off,,,,,0,0,8,,,,,0,,,78,100
46720,note_off,,,,,256,0,10,,,,,2,,,59,100
46752,note_on,,,,,96,0,8,,,,,0,,,76,70
46752,note_on,,,,,0,0,8,,,,,0,,,79,70
46816,note_off,,,,,0,0,8,,,,,0,,,79,100
46816,note_off,,,,,64,0,8,,,,,0,,,76,100
46848,note_on,,,,,128,0,10,,,,,2,,,59,60
46848,note_on,,,,,32,0,8,,,,,0,,,78,70
46848,note_on,,,,,0,0,8,,,,,0,,,81,70
47040,note_off,,,,,192,0,8,,,,,0,,,78,100
47040,note_off,,,,,0,0,8,,,,,0,,,81,100
47104,note_off,,,,,256,0,10,,,,,2,,,59,100
47136,note_on,,,,,96,0,8,,,,,0,,,75,70
47136,note_on,,,,,0,0,8,,,,,0,,,78,70
47200,note_off,,,,,64,0,8,,,,,0,,,75,100
47200,note_off,,,,,0,0,8,,,,,0,,,78,100
47232,note_on,,,,,128,0,10,,,,,2,,,64,60
47232,note_on,,,,,32,0,8,,,,,0,,,76,70
47232,note_on,,,,,0,0,8,,,,,0,,,79,70
47488,note_off,,,,,256,0,10,,,,,2,,,64,100
47488,note_off,,,,,256,0,8,,,,,0,,,76,100
47488,note_off,,,,,0,0,8,,,,,0,,,79,100
47616,note_on,,,,,128,0,8,,,,,0,,,76,70
47616,note_on,,,,,0,0,8,,,,,0,,,79,70
47616,note_on,,,,,128,0,10,,,,,2,,,64,60
47808,note_off,,,,,192,0,8,,,,,0,,,76,100
47808,note_off,,,,,0,0,8,,,,,0,,,79,100
47872,note_off,,,,,256,0,10,,,,,2,,,64,100
47904,note_on,,,,,96,0,8,,,,,0,,,78,70
47904,note_on,,,,,0,0,8,,,,,0,,,81,70
47968,note_off,,,,,0,0,8,,,,,0,,,81,100
47968,note_off,,,,,64,0,8,,,,,0,,,78,100
48000,note_on,,,,,0,0,8,,,,,0,,,83,70
48000,note_on,,,,,32,0,8,,,,,0,,,79,70
48000,note_on,,,,,128,0,10,,,,,2,,,64,60
48192,note_off,,,,,192,0,8,,,,,0,,,79,100
48192,note_off,,,,,0,0,8,,,,,0,,,83,100
48256,note_off,,,,,256,0,10,,,,,2,,,64,100
48288,note_on,,,,,96,0,8,,,,,0,,,76,70
48288,note_on,,,,,0,0,8,,,,,0,,,79,70
48352,note_off,,,,,64,0,8,,,,,0,,,76,100
48352,note_off,,,,,0,0,8,,,,,0,,,79,100
48384,note_on,,,,,32,0,8,,,,,0,,,75,70
48384,note_on,,,,,0,0,8,,,,,0,,,78,70
48384,set_tempo,,,,,22368,1,0,,638297,,,,,,,
48384,note_on,,,,,128,0,10,,,,,2,,,59,60
48536,set_tempo,,,,,152,1,0,,645161,,,,,,,
48576,note_off,,,,,192,0,8,,,,,0,,,75,100
48576,note_off,,,,,0,0,8,,,,,0,,,78,100
48640,note_off,,,,,256,0,10,,,,,2,,,59,100
48672,note_on,,,,,96,0,8,,,,,0,,,76,70
48672,note_on,,,,,0,0,8,,,,,0,,,79,70
48688,set_tempo,,,,,152,1,0,,652173,,,,,,,
48736,note_off,,,,,64,0,8,,,,,0,,,76,100
48736,note_off,,,,,0,0,8,,,,,0,,,79,100
48768,note_on,,,,,128,0,10,,,,,2,,,59,60
48768,note_on,,,,,32,0,8,,,,,0,,,76,70
48768,note_on,,,,,0,0,8,,,,,0,,,73,70
48844,set_tempo,,,,,156,1,0,,659340,,,,,,,
48960,note_off,,,,,192,0,8,,,,,0,,,76,100
48960,note_off,,,,,0,0,8,,,,,0,,,73,100
48996,set_tempo,,,,,152,1,0,,666666,,,,,,,
49024,note_off,,,,,256,0,10,,,,,2,,,59,100
49056,note_on,,,,,96,0,8,,,,,0,,,79,70
49056,note_on,,,,,0,0,8,,,,,0,,,76,70
49120,note_off,,,,,64,0,8,,,,,0,,,79,100
49120,note_off,,,,,0,0,8,,,,,0,,,76,100
49152,note_on,,,,,32,0,8,,,,,0,,,75,70
49152,set_tempo,,,,,156,1,0,,674157,,,,,,,
49152,note_on,,,,,0,0,8,,,,,0,,,78,70
49152,note_on,,,,,128,0,10,,,,,2,,,59,60
49408,note_off,,,,,256,0,10,,,,,2,,,59,100
49408,note_off,,,,,0,0,8,,,,,0,,,78,100
49408,note_off,,,,,256,0,8,,,,,0,,,75,100
49532,program_change,,,,,124,0,8,,,,,0,48,,,
49532,program_change,,,,,4732,0,9,,,,,1,48,,,
49536,note_on,,,,,4,0,9,,,,,1,,,79,100
49536,note_on,,,,,128,0,10,,,,,2,,,67,100
49536,note_on,,,,,8960,0,14,,,,,5,,,52,100
49536,note_on,,,,,4,0,8,,,,,0,,,83,100
49536,note_on,,,,,0,0,13,,,,,5,,,71,100
49536,note_on,,,,,8960,0,12,,,,,4,,,40,100
49536,set_tempo,,,,,384,1,0,,714285,,,,,,,
49536,note_on,,,,,8960,0,13,,,,,5,,,67,100
49536,note_on,,,,,8960,0,11,,,,,3,,,52,100
49632,set_tempo,,,,,96,1,0,,705882,,,,,,,
49728,set_tempo,,,,,96,1,0,,697674,,,,,,,
49792,note_off,,,,,256,0,10,,,,,2,,,67,100
49792,note_off,,,,,0,0,13,,,,,5,,,71,100
49792,note_off,,,,,256,0,9,,,,,1,,,79,100
49792,note_off,,,,,256,0,8,,,,,0,,,83,100
49792,note_off,,,,,256,0,11,,,,,3,,,52,100
49792,note_off,,,,,256,0,13,,,,,5,,,67,100
49792,note_off,,,,,256,0,14,,,,,5,,,52,100
49792,note_off,,,,,256,0,12,,,,,4,,,40,100
49824,set_tempo,,,,,96,1,0,,689655,,,,,,,
49920,note_on,,,,,128,0,14,,,,,5,,,52,100
49920,note_on,,,,,128,0,10,,,,,2,,,67,100
49920,note_on,,,,,128,0,11,,,,,3,,,52,100
49920,note_on,,,,,0,0,13,,,,,5,,,71,100
49920,set_tempo,,,,,96,1,0,,681818,,,,,,,
49920,note_on,,,,,128,0,12,,,,,4,,,40,100
49920,note_on,,,,,128,0,13,,,,,5,,,67,100
49920,note_on,,,,,128,0,9,,,,,1,,,79,100
49920,note_on,,,,,128,0,8,,,,,0,,,83,100
50016,set_tempo,,,,,96,1,0,,674157,,,,,,,
50112,set_tempo,,,,,96,1,0,,666666,,,,,,,
50208,set_tempo,,,,,96,1,0,,659340,,,,,,,
50304,note_off,,,,,384,0,13,,,,,5,,,67,100
50304,note_off,,,,,0,0,13,,,,,5,,,71,100
50304,note_off,,,,,384,0,10,,,,,2,,,67,100
50304,note_off,,,,,384,0,8,,,,,0,,,83,100
50304,set_tempo,,,,,96,1,0,,652173,,,,,,,
50304,note_off,,,,,384,0,11,,,,,3,,,52,100
50304,note_off,,,,,384,0,9,,,,,1,,,79,100
50304,note_off,,,,,384,0,14,,,,,5,,,52,100
50304,note_off,,,,,384,0,12,,,,,4,,,40,100
50400,set_tempo,,,,,96,1,0,,645161,,,,,,,
50496,note_on,,,,,192,0,14,,,,,5,,,52,100
50496,note_on,,,,,0,0,13,,,,,5,,,71,100
50496,note_on,,,,,192,0,13,,,,,5,,,67,100
50496,note_on,,,,,192,0,9,,,,,1,,,79,100
50496,set_tempo,,,,,96,1,0,,638297,,,,,,,
50496,note_on,,,,,192,0,8,,,,,0,,,83,100
50496,note_on,,,,,192,0,10,,,,,2,,,67,100
50496,note_on,,,,,192,0,12,,,,,4,,,40,100
50496,note_on,,,,,192,0,11,,,,,3,,,52,100
50624,note_off,,,,,0,0,13,,,,,5,,,71,100
50624,note_off,,,,,128,0,8,,,,,0,,,83,100
50624,note_off,,,,,128,0,10,,,,,2,,,67,100
50624,note_off,,,,,128,0,9,,,,,1,,,79,100
50624,note_off,,,,,128,0,14,,,,,5,,,52,100
50624,note_off,,,,,128,0,12,,,,,4,,,40,100
50624,note_off,,,,,128,0,13,,,,,5,,,67,100
50624,note_off,,,,,128,0,11,,,,,3,,,52,100
50688,note_on,,,,,64,0,9,,,,,1,,,79,100
50688,note_on,,,,,64,0,8,,,,,0,,,83,100
50688,note_on,,,,,64,0,13,,,,,5,,,71,100
50688,note_on,,,,,64,0,14,,,,,5,,,54,100
50688,note_on,,,,,64,0,10,,,,,2,,,69,100
50688,note_on,,,,,0,0,13,,,,,5,,,67,100
50688,note_on,,,,,64,0,11,,,,,3,,,54,100
50688,note_on,,,,,64,0,12,,,,,4,,,42,100
50944,note_off,,,,,256,0,11,,,,,3,,,54,100
50944,note_off,,,,,0,0,13,,,,,5,,,67,100
50944,note_off,,,,,256,0,13,,,,,5,,,71,100
50944,note_off,,,,,256,0,12,,,,,4,,,42,100
50944,note_off,,,,,256,0,9,,,,,1,,,79,100
50944,note_off,,,,,256,0,8,,,,,0,,,83,100
50944,note_off,,,,,256,0,14,,,,,5,,,54,100
50944,note_off,,,,,256,0,10,,,,,2,,,69,100
51072,note_on,,,,,128,0,9,,,,,1,,,78,100
51072,note_on,,,,,128,0,11,,,,,3,,,54,100
51072,note_on,,,,,128,0,8,,,,,0,,,81,100
51072,note_on,,,,,128,0,12,,,,,4,,,42,100
51072,note_on,,,,,0,0,13,,,,,5,,,66,100
51072,note_on,,,,,128,0,13,,,,,5,,,69,100
51072,note_on,,,,,128,0,14,,,,,5,,,54,100
51072,note_on,,,,,128,0,10,,,,,2,,,69,100
51456,note_off,,,,,384,0,10,,,,,2,,,69,100
51456,note_off,,,,,384,0,11,,,,,3,,,54,100
51456,note_off,,,,,384,0,14,,,,,5,,,54,100
51456,note_off,,,,,384,0,8,,,,,0,,,81,100
51456,note_off,,,,,384,0,9,,,,,1,,,78,100
51456,note_off,,,,,384,0,13,,,,,5,,,69,100
51456,note_off,,,,,0,0,13,,,,,5,,,66,100
51456,note_off,,,,,384,0,12,,,,,4,,,42,100
51648,note_on,,,,,192,0,8,,,,,0,,,81,100
51648,note_on,,,,,192,0,9,,,,,1,,,78,100
51648,note_on,,,,,0,0,13,,,,,5,,,69,100
51648,note_on,,,,,192,0,13,,,,,5,,,66,100
51648,note_on,,,,,192,0,10,,,,,2,,,69,100
51648,note_on,,,,,192,0,14,,,,,5,,,54,100
51648,note_on,,,,,192,0,12,,,,,4,,,42,100
51648,note_on,,,,,192,0,11,,,,,3,,,54,100
51776,note_off,,,,,128,0,13,,,,,5,,,66,100
51776,note_off,,,,,128,0,10,,,,,2,,,69,100
51776,note_off,,,,,128,0,12,,,,,4,,,42,100
51776,note_off,,,,,0,0,13,,,,,5,,,69,100
51776,note_off,,,,,128,0,11,,,,,3,,,54,100
51776,note_off,,,,,128,0,8,,,,,0,,,81,100
51776,note_off,,,,,128,0,9,,,,,1,,,78,100
51776,note_off,,,,,128,0,14,,,,,5,,,54,100
51840,note_on,,,,,0,0,13,,,,,5,,,63,100
51840,note_on,,,,,0,0,13,,,,,5,,,66,100
51840,note_on,,,,,64,0,8,,,,,0,,,81,100
51840,note_on,,,,,64,0,13,,,,,5,,,69,100
51840,note_on,,,,,64,0,9,,,,,1,,,78,100
51840,note_on,,,,,64,0,11,,,,,3,,,47,100
51840,note_on,,,,,64,0,14,,,,,5,,,47,100
51840,note_on,,,,,64,0,12,,,,,4,,,35,100
51840,note_on,,,,,64,0,10,,,,,2,,,63,100
52224,note_off,,,,,384,0,9,,,,,1,,,78,100
52224,note_off,,,,,384,0,8,,,,,0,,,81,100
52352,note_off,,,,,512,0,11,,,,,3,,,47,100
52352,note_off,,,,,512,0,10,,,,,2,,,63,100
52352,note_off,,,,,512,0,13,,,,,5,,,69,100
52352,note_off,,,,,0,0,13,,,,,5,,,66,100
52352,note_off,,,,,0,0,13,,,,,5,,,63,100
52352,note_off,,,,,512,0,12,,,,,4,,,35,100
52352,note_off,,,,,512,0,14,,,,,5,,,47,100
52416,note_on,,,,,192,0,9,,,,,1,,,79,100
52416,note_on,,,,,192,0,8,,,,,0,,,83,100
52544,note_off,,,,,128,0,8,,,,,0,,,83,100
52544,note_off,,,,,128,0,9,,,,,1,,,79,100
52608,note_on,,,,,64,0,9,,,,,1,,,76,100
52608,note_on,,,,,256,0,11,,,,,3,,,52,100
52608,note_on,,,,,0,0,13,,,,,5,,,71,100
52608,note_on,,,,,256,0,13,,,,,5,,,67,100
52608,note_on,,,,,256,0,12,,,,,4,,,40,100
52608,note_on,,,,,256,0,14,,,,,5,,,52,100
52608,note_on,,,,,256,0,10,,,,,2,,,59,100
52608,note_on,,,,,64,0,8,,,,,0,,,79,100
52800,note_off,,,,,192,0,8,,,,,0,,,79,100
52800,note_off,,,,,192,0,9,,,,,1,,,76,100
52864,note_off,,,,,256,0,14,,,,,5,,,52,100
52864,note_off,,,,,256,0,10,,,,,2,,,59,100
52864,note_off,,,,,256,0,13,,,,,5,,,67,100
52864,note_off,,,,,256,0,11,,,,,3,,,52,100
52864,note_off,,,,,256,0,12,,,,,4,,,40,100
52864,note_off,,,,,0,0,13,,,,,5,,,71,100
52896,note_on,,,,,96,0,9,,,,,1,,,75,100
52896,note_on,,,,,96,0,8,,,,,0,,,78,100
52960,note_off,,,,,64,0,8,,,,,0,,,78,100
52960,note_off,,,,,64,0,9,,,,,1,,,75,100
52992,note_on,,,,,128,0,12,,,,,4,,,45,100
52992,note_on,,,,,128,0,11,,,,,3,,,57,100
52992,note_on,,,,,128,0,10,,,,,2,,,60,100
52992,note_on,,,,,32,0,9,,,,,1,,,76,100
52992,note_on,,,,,128,0,14,,,,,5,,,57,100
52992,note_on,,,,,0,0,13,,,,,5,,,64,100
52992,note_on,,,,,128,0,13,,,,,5,,,72,100
52992,note_on,,,,,32,0,8,,,,,0,,,79,100
52992,note_on,,,,,0,0,13,,,,,5,,,67,100
53184,note_off,,,,,192,0,8,,,,,0,,,79,100
53184,note_off,,,,,192,0,9,,,,,1,,,76,100
53184,note_off,,,,,192,0,10,,,,,2,,,60,100
53248,note_off,,,,,256,0,12,,,,,4,,,45,100
53248,note_off,,,,,0,0,13,,,,,5,,,64,100
53248,note_off,,,,,256,0,13,,,,,5,,,72,100
53248,note_off,,,,,256,0,11,,,,,3,,,57,100
53248,note_off,,,,,256,0,14,,,,,5,,,57,100
53248,note_off,,,,,0,0,13,,,,,5,,,67,100
53280,note_on,,,,,96,0,9,,,,,1,,,78,100
53280,note_on,,,,,96,0,10,,,,,2,,,66,100
53280,note_on,,,,,96,0,8,,,,,0,,,81,100
53344,note_off,,,,,64,0,9,,,,,1,,,78,100
53344,note_off,,,,,64,0,8,,,,,0,,,81,100
53344,note_off,,,,,64,0,10,,,,,2,,,66,100
53376,note_on,,,,,32,0,9,,,,,1,,,76,100
53376,note_on,,,,,128,0,11,,,,,3,,,59,100
53376,note_on,,,,,32,0,10,,,,,2,,,59,100
53376,note_on,,,,,128,0,13,,,,,5,,,71,100
53376,note_on,,,,,0,0,13,,,,,5,,,63,100
53376,note_on,,,,,128,0,12,,,,,4,,,47,100
53376,note_on,,,,,128,0,14,,,,,5,,,59,100
53376,note_on,,,,,32,0,8,,,,,0,,,79,100
53376,note_on,,,,,0,0,13,,,,,5,,,66,100
53468,note_off,,,,,92,0,8,,,,,0,,,79,100
53468,note_off,,,,,92,0,9,,,,,1,,,76,100
53472,note_on,,,,,4,0,8,,,,,0,,,78,100
53472,note_on,,,,,4,0,9,,,,,1,,,75,100
53516,note_off,,,,,44,0,8,,,,,0,,,78,100
53516,note_off,,,,,44,0,9,,,,,1,,,75,100
53520,note_on,,,,,4,0,8,,,,,0,,,79,100
53520,note_on,,,,,4,0,9,,,,,1,,,76,100
53564,note_off,,,,,44,0,9,,,,,1,,,76,100
53564,note_off,,,,,44,0,8,,,,,0,,,79,100
53568,note_on,,,,,4,0,8,,,,,0,,,78,100
53568,note_on,,,,,4,0,9,,,,,1,,,75,100
53612,note_off,,,,,44,0,8,,,,,0,,,78,100
53612,note_off,,,,,44,0,9,,,,,1,,,75,100
53616,note_on,,,,,4,0,9,,,,,1,,,76,100
53616,note_on,,,,,4,0,8,,,,,0,,,79,100
53632,note_off,,,,,0,0,13,,,,,5,,,63,100
53632,note_off,,,,,256,0,12,,,,,4,,,47,100
53632,note_off,,,,,256,0,14,,,,,5,,,59,100
53632,note_off,,,,,256,0,11,,,,,3,,,59,100
53632,note_off,,,,,256,0,13,,,,,5,,,71,100
53632,note_off,,,,,0,0,13,,,,,5,,,66,100
53660,note_off,,,,,44,0,8,,,,,0,,,79,100
53660,note_off,,,,,44,0,9,,,,,1,,,76,100
53664,note_on,,,,,4,0,9,,,,,1,,,75,100
53664,note_on,,,,,4,0,8,,,,,0,,,78,100
53708,note_off,,,,,44,0,9,,,,,1,,,75,100
53708,note_off,,,,,44,0,8,,,,,0,,,78,100
53712,note_on,,,,,4,0,9,,,,,1,,,76,100
53712,note_on,,,,,4,0,8,,,,,0,,,79,100
53756,note_off,,,,,44,0,8,,,,,0,,,79,100
53756,note_off,,,,,44,0,9,,,,,1,,,76,100
53760,note_on,,,,,0,0,13,,,,,5,,,63,100
53760,note_on,,,,,0,0,13,,,,,5,,,66,100
53760,note_on,,,,,4,0,9,,,,,1,,,75,100
53760,note_on,,,,,128,0,12,,,,,4,,,35,100
53760,note_on,,,,,128,0,11,,,,,3,,,47,100
53760,note_on,,,,,128,0,14,,,,,5,,,47,100
53760,note_on,,,,,128,0,13,,,,,5,,,59,100
53760,note_on,,,,,4,0,8,,,,,0,,,78,100
53760,note_off,,,,,384,0,10,,,,,2,,,59,100
53888,note_off,,,,,128,0,9,,,,,1,,,75,100
53888,note_off,,,,,128,0,8,,,,,0,,,78,100
53952,note_on,,,,,64,0,9,,,,,1,,,76,100
53952,note_on,,,,,64,0,8,,,,,0,,,76,100
53952,note_on,,,,,192,0,10,,,,,2,,,71,100
54016,note_off,,,,,256,0,12,,,,,4,,,35,100
54016,note_off,,,,,0,0,13,,,,,5,,,63,100
54016,note_off,,,,,0,0,13,,,,,5,,,66,100
54016,note_off,,,,,256,0,14,,,,,5,,,47,100
54016,note_off,,,,,256,0,13,,,,,5,,,59,100
54016,note_off,,,,,256,0,11,,,,,3,,,47,100
54080,note_off,,,,,128,0,10,,,,,2,,,71,100
54080,note_off,,,,,128,0,9,,,,,1,,,76,100
54080,note_off,,,,,128,0,8,,,,,0,,,76,100
54144,note_on,,,,,128,0,11,,,,,3,,,52,100
54144,note_on,,,,,128,0,13,,,,,5,,,59,100
54144,note_on,,,,,64,0,10,,,,,2,,,67,100
54144,note_on,,,,,64,0,8,,,,,0,,,76,100
54144,note_on,,,,,128,0,14,,,,,5,,,52,100
54144,note_on,,,,,64,0,9,,,,,1,,,76,100
54144,note_on,,,,,128,0,12,,,,,4,,,40,100
54172,note_on,,,,,28,0,13,,,,,5,,,64,100
54208,note_on,,,,,36,0,13,,,,,5,,,67,100
54912,note_off,,,,,768,0,10,,,,,2,,,67,100
54912,note_off,,,,,704,0,13,,,,,5,,,59,100
54912,note_off,,,,,768,0,14,,,,,5,,,52,100
54912,note_off,,,,,768,0,8,,,,,0,,,76,100
54912,note_off,,,,,768,0,11,,,,,3,,,52,100
54912,note_off,,,,,768,0,12,,,,,4,,,40,100
54912,note_off,,,,,768,0,9,,,,,1,,,76,100
54940,note_off,,,,,28,0,13,,,,,5,,,64,100
54976,note_off,,,,,36,0,13,,,,,5,,,67,100
55296,note_on,,,,,384,0,12,,,,,4,,,40,60
55296,note_on,,,,,384,0,9,,,,,1,,,79,60
55296,note_on,,,,,320,0,13,,,,,5,,,67,100
55296,note_on,,,,,384,0,10,,,,,2,,,67,60
55296,note_on,,,,,384,0,14,,,,,5,,,52,100
55296,note_on,,,,,384,0,8,,,,,0,,,83,60
55296,note_on,,,,,0,0,13,,,,,5,,,71,100
55296,note_on,,,,,384,0,11,,,,,3,,,52,60
55552,note_off,,,,,256,0,14,,,,,5,,,52,100
55552,note_off,,,,,256,0,11,,,,,3,,,52,100
55552,note_off,,,,,256,0,9,,,,,1,,,79,100
55552,note_off,,,,,256,0,12,,,,,4,,,40,100
55552,note_off,,,,,256,0,13,,,,,5,,,67,100
55552,note_off,,,,,0,0,13,,,,,5,,,71,100
55552,note_off,,,,,256,0,10,,,,,2,,,67,100
55552,note_off,,,,,256,0,8,,,,,0,,,83,100
55680,note_on,,,,,128,0,9,,,,,1,,,79,60
55680,note_on,,,,,128,0,11,,,,,3,,,52,60
55680,note_on,,,,,128,0,14,,,,,5,,,52,100
55680,note_on,,,,,128,0,10,,,,,2,,,67,60
55680,note_on,,,,,128,0,13,,,,,5,,,67,100
55680,note_on,,,,,128,0,12,,,,,4,,,40,60
55680,note_on,,,,,128,0,8,,,,,0,,,83,60
55680,note_on,,,,,0,0,13,,,,,5,,,71,100
56064,note_off,,,,,384,0,11,,,,,3,,,52,100
56064,note_off,,,,,384,0,8,,,,,0,,,83,100
56064,note_off,,,,,384,0,10,,,,,2,,,67,100
56064,note_off,,,,,384,0,9,,,,,1,,,79,100
56064,note_off,,,,,384,0,12,,,,,4,,,40,100
56064,note_off,,,,,384,0,13,,,,,5,,,67,100
56064,note_off,,,,,0,0,13,,,,,5,,,71,100
56064,note_off,,,,,384,0,14,,,,,5,,,52,100
56256,note_on,,,,,192,0,9,,,,,1,,,79,60
56256,note_on,,,,,192,0,13,,,,,5,,,67,100
56256,note_on,,,,,0,0,13,,,,,5,,,71,100
56256,note_on,,,,,192,0,11,,,,,3,,,52,60
56256,note_on,,,,,192,0,8,,,,,0,,,83,60
56256,note_on,,,,,192,0,12,,,,,4,,,40,60
56256,note_on,,,,,192,0,10,,,,,2,,,67,60
56256,note_on,,,,,192,0,14,,,,,5,,,52,100
56384,note_off,,,,,128,0,14,,,,,5,,,52,100
56384,note_off,,,,,0,0,13,,,,,5,,,71,100
56384,note_off,,,,,128,0,13,,,,,5,,,67,100
56384,note_off,,,,,128,0,12,,,,,4,,,40,100
56384,note_off,,,,,128,0,9,,,,,1,,,79,100
56384,note_off,,,,,128,0,11,,,,,3,,,52,100
56384,note_off,,,,,128,0,10,,,,,2,,,67,100
56384,note_off,,,,,128,0,8,,,,,0,,,83,100
56448,note_on,,,,,64,0,11,,,,,3,,,54,60
56448,note_on,,,,,0,0,13,,,,,5,,,67,100
56448,note_on,,,,,64,0,13,,,,,5,,,71,100
56448,note_on,,,,,64,0,14,,,,,5,,,54,100
56448,note_on,,,,,64,0,10,,,,,2,,,69,60
56448,note_on,,,,,64,0,9,,,,,1,,,79,60
56448,note_on,,,,,64,0,8,,,,,0,,,83,60
56448,note_on,,,,,64,0,12,,,,,4,,,42,60
56704,note_off,,,,,256,0,9,,,,,1,,,79,100
56704,note_off,,,,,0,0,13,,,,,5,,,67,100
56704,note_off,,,,,256,0,13,,,,,5,,,71,100
56704,note_off,,,,,256,0,14,,,,,5,,,54,100
56704,note_off,,,,,256,0,11,,,,,3,,,54,100
56704,note_off,,,,,256,0,8,,,,,0,,,83,100
56704,note_off,,,,,256,0,12,,,,,4,,,42,100
56704,note_off,,,,,256,0,10,,,,,2,,,69,100
56832,note_on,,,,,128,0,10,,,,,2,,,69,60
56832,note_on,,,,,0,0,13,,,,,5,,,66,100
56832,note_on,,,,,128,0,13,,,,,5,,,69,100
56832,note_on,,,,,128,0,11,,,,,3,,,54,60
56832,note_on,,,,,128,0,9,,,,,1,,,78,60
56832,note_on,,,,,128,0,12,,,,,4,,,42,60
56832,note_on,,,,,128,0,8,,,,,0,,,81,60
56832,note_on,,,,,128,0,14,,,,,5,,,54,100
57216,note_off,,,,,384,0,9,,,,,1,,,78,100
57216,note_off,,,,,384,0,11,,,,,3,,,54,100
57216,note_off,,,,,384,0,12,,,,,4,,,42,100
57216,note_off,,,,,384,0,14,,,,,5,,,54,100
57216,note_off,,,,,384,0,10,,,,,2,,,69,100
57216,note_off,,,,,384,0,13,,,,,5,,,69,100
57216,note_off,,,,,0,0,13,,,,,5,,,66,100
57216,note_off,,,,,384,0,8,,,,,0,,,81,100
57408,note_on,,,,,192,0,11,,,,,3,,,54,60
57408,note_on,,,,,192,0,9,,,,,1,,,78,60
57408,note_on,,,,,192,0,8,,,,,0,,,81,60
57408,note_on,,,,,192,0,12,,,,,4,,,42,60
57408,note_on,,,,,192,0,14,,,,,5,,,54,100
57408,note_on,,,,,192,0,10,,,,,2,,,69,60
57408,note_on,,,,,192,0,13,,,,,5,,,66,100
57408,note_on,,,,,0,0,13,,,,,5,,,69,100
57536,note_off,,,,,128,0,13,,,,,5,,,66,100
57536,note_off,,,,,128,0,14,,,,,5,,,54,100
57536,note_off,,,,,128,0,9,,,,,1,,,78,100
57536,note_off,,,,,128,0,12,,,,,4,,,42,100
57536,note_off,,,,,128,0,8,,,,,0,,,81,100
57536,note_off,,,,,0,0,13,,,,,5,,,69,100
57536,note_off,,,,,128,0,10,,,,,2,,,69,100
57536,note_off,,,,,128,0,11,,,,,3,,,54,100
57600,note_on,,,,,64,0,10,,,,,2,,,63,60
57600,note_on,,,,,64,0,11,,,,,3,,,47,60
57600,note_on,,,,,64,0,14,,,,,5,,,47,100
57600,note_on,,,,,64,0,12,,,,,4,,,35,60
57600,note_on,,,,,64,0,13,,,,,5,,,69,100
57600,note_on,,,,,64,0,8,,,,,0,,,81,60
57600,note_on,,,,,0,0,13,,,,,5,,,66,100
57600,note_on,,,,,0,0,13,,,,,5,,,63,100
57600,note_on,,,,,64,0,9,,,,,1,,,78,60
57984,note_off,,,,,384,0,8,,,,,0,,,81,100
57984,note_off,,,,,384,0,9,,,,,1,,,78,100
58112,note_off,,,,,512,0,13,,,,,5,,,69,100
58112,note_off,,,,,0,0,13,,,,,5,,,66,100
58112,note_off,,,,,0,0,13,,,,,5,,,63,100
58112,note_off,,,,,512,0,10,,,,,2,,,63,100
58112,note_off,,,,,512,0,12,,,,,4,,,35,100
58112,note_off,,,,,512,0,14,,,,,5,,,47,100
58112,note_off,,,,,512,0,11,,,,,3,,,47,100
58176,note_on,,,,,192,0,8,,,,,0,,,83,60
58176,note_on,,,,,192,0,9,,,,,1,,,79,60
58304,note_off,,,,,128,0,8,,,,,0,,,83,100
58304,note_off,,,,,128,0,9,,,,,1,,,79,100
58368,set_tempo,,,,,7872,1,0,,638297,,,,,,,
58368,note_on,,,,,256,0,12,,,,,4,,,40,60
58368,note_on,,,,,256,0,10,,,,,2,,,59,60
58368,note_on,,,,,256,0,14,,,,,5,,,52,100
58368,note_on,,,,,64,0,8,,,,,0,,,79,60
58368,note_on,,,,,64,0,9,,,,,1,,,76,60
58368,note_on,,,,,0,0,13,,,,,5,,,71,100
58368,note_on,,,,,256,0,13,,,,,5,,,67,100
58368,note_on,,,,,256,0,11,,,,,3,,,52,60
58416,set_tempo,,,,,48,1,0,,645161,,,,,,,
58468,set_tempo,,,,,52,1,0,,652173,,,,,,,
58520,set_tempo,,,,,52,1,0,,659340,,,,,,,
58560,note_off,,,,,192,0,9,,,,,1,,,76,100
58560,note_off,,,,,192,0,8,,,,,0,,,79,100
58572,set_tempo,,,,,52,1,0,,666666,,,,,,,
58624,note_off,,,,,256,0,12,,,,,4,,,40,100
58624,note_off,,,,,256,0,14,,,,,5,,,52,100
58624,note_off,,,,,0,0,13,,,,,5,,,71,100
58624,note_off,,,,,256,0,13,,,,,5,,,67,100
58624,note_off,,,,,256,0,10,,,,,2,,,59,100
58624,note_off,,,,,256,0,11,,,,,3,,,52,100
58624,set_tempo,,,,,52,1,0,,674157,,,,,,,
58656,note_on,,,,,96,0,8,,,,,0,,,78,60
58656,note_on,,,,,96,0,9,,,,,1,,,75,60
58672,set_tempo,,,,,48,1,0,,681818,,,,,,,
58720,note_off,,,,,64,0,9,,,,,1,,,75,100
58720,note_off,,,,,64,0,8,,,,,0,,,78,100
58724,set_tempo,,,,,52,1,0,,689655,,,,,,,
58752,note_on,,,,,128,0,12,,,,,4,,,45,60
58752,note_on,,,,,128,0,14,,,,,5,,,57,100
58752,note_on,,,,,32,0,9,,,,,1,,,76,60
58752,note_on,,,,,128,0,10,,,,,2,,,60,60
58752,note_on,,,,,128,0,11,,,,,3,,,57,60
58752,note_on,,,,,0,0,13,,,,,5,,,67,100
58752,note_on,,,,,0,0,13,,,,,5,,,64,100
58752,note_on,,,,,32,0,8,,,,,0,,,79,60
58752,note_on,,,,,128,0,13,,,,,5,,,72,100
58776,set_tempo,,,,,52,1,0,,697674,,,,,,,
58828,set_tempo,,,,,52,1,0,,705882,,,,,,,
58880,set_tempo,,,,,52,1,0,,714285,,,,,,,
58928,set_tempo,,,,,48,1,0,,722891,,,,,,,
58944,note_off,,,,,192,0,10,,,,,2,,,60,100
58944,note_off,,,,,192,0,8,,,,,0,,,79,100
58944,note_off,,,,,192,0,9,,,,,1,,,76,100
58980,set_tempo,,,,,52,1,0,,731707,,,,,,,
59008,note_off,,,,,256,0,11,,,,,3,,,57,100
59008,note_off,,,,,256,0,13,,,,,5,,,72,100
59008,note_off,,,,,256,0,12,,,,,4,,,45,100
59008,note_off,,,,,0,0,13,,,,,5,,,64,100
59008,note_off,,,,,256,0,14,,,,,5,,,57,100
59008,note_off,,,,,0,0,13,,,,,5,,,67,100
59032,set_tempo,,,,,52,1,0,,740740,,,,,,,
59040,note_on,,,,,96,0,8,,,,,0,,,81,60
59040,note_on,,,,,96,0,9,,,,,1,,,78,60
59040,note_on,,,,,96,0,10,,,,,2,,,66,60
59084,set_tempo,,,,,52,1,0,,750000,,,,,,,
59104,note_off,,,,,64,0,8,,,,,0,,,81,100
59104,note_off,,,,,64,0,9,,,,,1,,,78,100
59104,note_off,,,,,64,0,10,,,,,2,,,66,100
59136,note_on,,,,,32,0,10,,,,,2,,,59,60
59136,set_tempo,,,,,52,1,0,,759493,,,,,,,
59136,note_on,,,,,0,0,13,,,,,5,,,63,100
59136,note_on,,,,,128,0,14,,,,,5,,,59,100
59136,note_on,,,,,128,0,13,,,,,5,,,71,100
59136,note_on,,,,,32,0,8,,,,,0,,,79,60
59136,note_on,,,,,32,0,9,,,,,1,,,76,60
59136,note_on,,,,,128,0,11,,,,,3,,,59,60
59136,note_on,,,,,0,0,13,,,,,5,,,66,100
59136,note_on,,,,,128,0,12,,,,,4,,,47,60
59184,set_tempo,,,,,48,1,0,,769230,,,,,,,
59228,note_off,,,,,92,0,8,,,,,0,,,79,100
59228,note_off,,,,,92,0,9,,,,,1,,,76,100
59232,note_on,,,,,4,0,9,,,,,1,,,75,60
59232,note_on,,,,,4,0,8,,,,,0,,,78,60
59236,set_tempo,,,,,52,1,0,,779220,,,,,,,
59276,note_off,,,,,44,0,9,,,,,1,,,75,100
59276,note_off,,,,,44,0,8,,,,,0,,,78,100
59280,note_on,,,,,4,0,8,,,,,0,,,79,60
59280,note_on,,,,,4,0,9,,,,,1,,,76,60
59288,set_tempo,,,,,52,1,0,,789473,,,,,,,
59324,note_off,,,,,44,0,8,,,,,0,,,79,100
59324,note_off,,,,,44,0,9,,,,,1,,,76,100
59328,note_on,,,,,4,0,8,,,,,0,,,78,60
59328,note_on,,,,,4,0,9,,,,,1,,,75,60
59340,set_tempo,,,,,52,1,0,,800000,,,,,,,
59372,note_off,,,,,44,0,8,,,,,0,,,78,100
59372,note_off,,,,,44,0,9,,,,,1,,,75,100
59376,note_on,,,,,4,0,8,,,,,0,,,79,60
59376,note_on,,,,,4,0,9,,,,,1,,,76,60
59392,note_off,,,,,256,0,13,,,,,5,,,71,100
59392,note_off,,,,,256,0,14,,,,,5,,,59,100
59392,note_off,,,,,256,0,11,,,,,3,,,59,100
59392,note_off,,,,,0,0,13,,,,,5,,,66,100
59392,set_tempo,,,,,52,1,0,,810810,,,,,,,
59392,note_off,,,,,0,0,13,,,,,5,,,63,100
59392,note_off,,,,,256,0,12,,,,,4,,,47,100
59420,note_off,,,,,44,0,8,,,,,0,,,79,100
59420,note_off,,,,,44,0,9,,,,,1,,,76,100
59424,note_on,,,,,4,0,8,,,,,0,,,78,60
59424,note_on,,,,,4,0,9,,,,,1,,,75,60
59440,set_tempo,,,,,48,1,0,,821917,,,,,,,
59468,note_off,,,,,44,0,8,,,,,0,,,78,100
59468,note_off,,,,,44,0,9,,,,,1,,,75,100
59472,note_on,,,,,4,0,8,,,,,0,,,79,60
59472,note_on,,,,,4,0,9,,,,,1,,,76,60
59492,set_tempo,,,,,52,1,0,,833333,,,,,,,
59516,note_off,,,,,44,0,9,,,,,1,,,76,100
59516,note_off,,,,,44,0,8,,,,,0,,,79,100
59520,note_on,,,,,0,0,13,,,,,5,,,66,100
59520,note_on,,,,,4,0,8,,,,,0,,,78,60
59520,note_off,,,,,384,0,10,,,,,2,,,59,100
59520,note_on,,,,,128,0,11,,,,,3,,,47,60
59520,note_on,,,,,128,0,13,,,,,5,,,59,100
59520,note_on,,,,,4,0,9,,,,,1,,,75,60
59520,note_on,,,,,128,0,14,,,,,5,,,47,100
59520,note_on,,,,,0,0,13,,,,,5,,,63,100
59520,note_on,,,,,128,0,12,,,,,4,,,35,60
59544,set_tempo,,,,,52,1,0,,845070,,,,,,,
59596,set_tempo,,,,,52,1,0,,857142,,,,,,,
59648,set_tempo,,,,,52,1,0,,869565,,,,,,,
59648,note_off,,,,,128,0,8,,,,,0,,,78,100
59648,note_off,,,,,128,0,9,,,,,1,,,75,100
59696,set_tempo,,,,,48,1,0,,882352,,,,,,,
59712,note_on,,,,,64,0,8,,,,,0,,,76,60
59712,note_on,,,,,192,0,10,,,,,2,,,71,60
59712,note_on,,,,,64,0,9,,,,,1,,,76,60
59748,set_tempo,,,,,52,1,0,,895522,,,,,,,
59776,note_off,,,,,256,0,11,,,,,3,,,47,100
59776,note_off,,,,,256,0,12,,,,,4,,,35,100
59776,note_off,,,,,0,0,13,,,,,5,,,63,100
59776,note_off,,,,,0,0,13,,,,,5,,,66,100
59776,note_off,,,,,256,0,13,,,,,5,,,59,100
59776,note_off,,,,,256,0,14,,,,,5,,,47,100
59800,set_tempo,,,,,52,1,0,,909090,,,,,,,
59840,note_off,,,,,128,0,8,,,,,0,,,76,100
59840,note_off,,,,,128,0,9,,,,,1,,,76,100
59840,note_off,,,,,128,0,10,,,,,2,,,71,100
59852,set_tempo,,,,,52,1,0,,923076,,,,,,,
59904,note_on,,,,,128,0,13,,,,,5,,,59,100
59904,note_on,,,,,128,0,11,,,,,3,,,52,60
59904,note_on,,,,,64,0,10,,,,,2,,,67,60
59904,note_on,,,,,64,0,8,,,,,0,,,76,60
59904,note_on,,,,,128,0,12,,,,,4,,,40,60
59904,end_of_track,,,,,0,1,0,,,,,,,,,
59904,note_on,,,,,64,0,9,,,,,1,,,76,60
59904,set_tempo,,,,,52,1,0,,1333333,,,,,,,
59904,note_on,,,,,128,0,14,,,,,5,,,52,100
59932,note_on,,,,,28,0,13,,,,,5,,,64,100
59968,note_on,,,,,36,0,13,,,,,5,,,67,100
60672,note_off,,,,,768,0,11,,,,,3,,,52,100
60672,end_of_track,,,,,0,1,11,,,,,,,,,
60672,note_off,,,,,768,0,14,,,,,5,,,52,100
60672,end_of_track,,,,,0,1,12,,,,,,,,,
60672,end_of_track,,,,,0,1,10,,,,,,,,,
60672,note_off,,,,,768,0,10,,,,,2,,,67,100
60672,end_of_track,,,,,0,1,9,,,,,,,,,
60672,note_off,,,,,768,0,9,,,,,1,,,76,100
60672,note_off,,,,,704,0,13,,,,,5,,,59,100
60672,note_off,,,,,768,0,8,,,,,0,,,76,100
60672,note_off,,,,,768,0,12,,,,,4,,,40,100
60672,end_of_track,,,,,0,1,14,,,,,,,,,
60700,note_off,,,,,28,0,13,,,,,5,,,64,100
60736,note_off,,,,,36,0,13,,,,,5,,,67,100
60736,end_of_track,,,,,0,1,13,,,,,,,,,
61440,end_of_track,,,,,0,1,8,,,,,,,,,
61440,program_change,,,,,768,0,8,,,,,0,48,,,
