tick,type,numerator,denominator,clocks_per_click,notated_32nd_notes_per_beat,time,meta,track,data,tempo,control,value,channel,program,key,note,velocity
0,time_signature,3,4,96,8,0,1,0,,,,,,,,,
0,control_change,,,,,0,0,8,,,0,0,1,,,,
0,track_name,,,,,0,1,8,,,,,,,,,
0,control_change,,,,,0,0,10,,,0,0,3,,,,
0,key_signature,,,,,0,1,7,,,,,,,Dm,,
0,control_change,,,,,0,0,7,,,91,65,0,,,,
0,control_change,,,,,0,0,7,,,10,60,0,,,,
0,control_change,,,,,0,0,7,,,7,100,0,,,,
0,program_change,,,,,0,0,7,,,,,0,40,,,
0,program_change,,,,,0,0,8,,,,,1,40,,,
0,control_change,,,,,0,0,7,,,0,0,0,,,,
0,end_of_track,,,,,0,1,6,,,,,,,,,
0,key_signature,,,,,0,1,6,,,,,,,Dm,,
0,control_change,,,,,0,0,6,,,91,65,0,,,,
0,control_change,,,,,0,0,6,,,10,60,0,,,,
0,control_change,,,,,0,0,6,,,7,100,0,,,,
0,program_change,,,,,0,0,6,,,,,0,40,,,
0,control_change,,,,,0,0,6,,,0,0,0,,,,
0,track_name,,,,,0,1,6,,,,,,,,,
0,track_name,,,,,0,1,7,,,,,,,,,
0,control_change,,,,,0,0,8,,,7,100,1,,,,
0,control_change,,,,,0,0,8,,,10,39,1,,,,
0,control_change,,,,,0,0,8,,,91,63,1,,,,
0,program_change,,,,,0,0,10,,,,,3,48,,,
0,control_change,,,,,0,0,10,,,7,80,3,,,,
0,control_change,,,,,0,0,10,,,10,84,3,,,,
0,control_change,,,,,0,0,10,,,91,65,3,,,,
0,key_signature,,,,,0,1,10,,,,,,,Dm,,
0,track_name,,,,,0,1,11,,,,,,,,,
0,control_change,,,,,0,0,11,,,0,0,4,,,,
0,program_change,,,,,0,0,11,,,,,4,6,,,
0,control_change,,,,,0,0,11,,,7,55,4,,,,
0,control_change,,,,,0,0,11,,,91,63,4,,,,
0,key_signature,,,,,0,1,11,,,,,,,Dm,,
0,key_signature,,,,,0,1,9,,,,,,,Dm,,
0,control_change,,,,,0,0,9,,,91,63,2,,,,
0,control_change,,,,,0,0,9,,,10,71,2,,,,
0,control_change,,,,,0,0,9,,,7,95,2,,,,
0,program_change,,,,,0,0,9,,,,,2,43,,,
0,control_change,,,,,0,0,9,,,0,0,2,,,,
0,track_name,,,,,0,1,9,,,,,,,,,
0,key_signature,,,,,0,1,8,,,,,,,Dm,,
0,end_of_track,,,,,0,1,5,,,,,,,,,
0,key_signature,,,,,0,1,5,,,,,,,Dm,,
0,track_name,,,,,0,1,10,,,,,,,,,
0,control_change,,,,,0,0,5,,,10,60,0,,,,
0,sequencer_specific,,,,,0,1,0,"(0, 0, 119, 14, 1)",,,,,,,,
0,set_tempo,,,,,0,1,0,,500000,,,,,,,
0,key_signature,,,,,0,1,12,,,,,,,Dm,,
0,control_change,,,,,0,0,12,,,91,63,4,,,,
0,control_change,,,,,0,0,12,,,7,55,4,,,,
0,program_change,,,,,0,0,12,,,,,4,6,,,
0,control_change,,,,,0,0,12,,,0,0,4,,,,
0,track_name,,,,,0,1,12,,,,,,,,,
0,control_change,,,,,0,0,5,,,91,65,0,,,,
0,track_name,,,,,0,1,1,,,,,,,,,
0,end_of_track,,,,,0,1,1,,,,,,,,,
0,track_name,,,,,0,1,2,,,,,,,,,
0,end_of_track,,,,,0,1,2,,,,,,,,,
0,track_name,,,,,0,1,3,,,,,,,,,
0,control_change,,,,,0,0,3,,,0,0,0,,,,
0,sequencer_specific,,,,,0,1,0,"(0, 0, 65)",,,,,,,,
0,control_change,,,,,0,0,3,,,7,100,0,,,,
0,control_change,,,,,0,0,3,,,10,60,0,,,,
0,control_change,,,,,0,0,4,,,7,100,0,,,,
0,program_change,,,,,0,0,4,,,,,0,40,,,
0,control_change,,,,,0,0,4,,,0,0,0,,,,
0,track_name,,,,,0,1,4,,,,,,,,,
0,end_of_track,,,,,0,1,3,,,,,,,,,
0,key_signature,,,,,0,1,3,,,,,,,Dm,,
0,program_change,,,,,0,0,3,,,,,0,40,,,
0,control_change,,,,,0,0,4,,,10,60,0,,,,
0,control_change,,,,,0,0,3,,,91,65,0,,,,
0,end_of_track,,,,,0,1,4,,,,,,,,,
0,track_name,,,,,0,1,5,,,,,,,,,
0,control_change,,,,,0,0,5,,,0,0,0,,,,
0,program_change,,,,,0,0,5,,,,,0,40,,,
0,control_change,,,,,0,0,5,,,7,100,0,,,,
0,key_signature,,,,,0,1,4,,,,,,,Dm,,
0,control_change,,,,,0,0,4,,,91,65,0,,,,
192,note_on,,,,,192,0,7,,,,,0,,,62,100
320,note_off,,,,,128,0,7,,,,,0,,,62,100
384,note_on,,,,,64,0,7,,,,,0,,,65,100
512,note_off,,,,,128,0,7,,,,,0,,,65,100
576,note_on,,,,,576,0,8,,,,,1,,,62,100
576,note_on,,,,,64,0,7,,,,,0,,,69,100
704,note_off,,,,,128,0,8,,,,,1,,,62,100
704,note_off,,,,,128,0,7,,,,,0,,,69,100
768,note_on,,,,,64,0,8,,,,,1,,,65,100
768,note_on,,,,,64,0,7,,,,,0,,,74,100
896,note_off,,,,,128,0,8,,,,,1,,,65,100
896,note_off,,,,,128,0,7,,,,,0,,,74,100
960,note_on,,,,,64,0,8,,,,,1,,,69,100
960,note_on,,,,,64,0,7,,,,,0,,,62,100
1088,note_off,,,,,128,0,7,,,,,0,,,62,100
1088,note_off,,,,,128,0,8,,,,,1,,,69,100
1152,note_on,,,,,64,0,8,,,,,1,,,74,100
1152,note_on,,,,,64,0,7,,,,,0,,,62,100
1280,note_off,,,,,128,0,7,,,,,0,,,62,100
1280,note_off,,,,,128,0,8,,,,,1,,,74,100
1344,note_on,,,,,64,0,7,,,,,0,,,65,100
1344,note_on,,,,,64,0,8,,,,,1,,,62,100
1472,note_off,,,,,128,0,7,,,,,0,,,65,100
1472,note_off,,,,,128,0,8,,,,,1,,,62,100
1536,note_on,,,,,64,0,7,,,,,0,,,69,100
1536,note_on,,,,,64,0,8,,,,,1,,,62,100
1664,note_off,,,,,128,0,8,,,,,1,,,62,100
1664,note_off,,,,,128,0,7,,,,,0,,,69,100
1728,note_on,,,,,64,0,7,,,,,0,,,74,100
1728,note_on,,,,,64,0,8,,,,,1,,,65,100
1856,note_off,,,,,128,0,7,,,,,0,,,74,100
1856,note_off,,,,,128,0,8,,,,,1,,,65,100
1920,note_on,,,,,64,0,8,,,,,1,,,69,100
1920,note_on,,,,,64,0,7,,,,,0,,,77,100
2048,note_off,,,,,128,0,7,,,,,0,,,77,100
2048,note_off,,,,,128,0,8,,,,,1,,,69,100
2112,note_on,,,,,64,0,7,,,,,0,,,62,100
2112,note_on,,,,,64,0,8,,,,,1,,,74,100
2240,note_off,,,,,128,0,8,,,,,1,,,74,100
2240,note_off,,,,,128,0,7,,,,,0,,,62,100
2304,note_on,,,,,64,0,8,,,,,1,,,77,100
2304,note_on,,,,,64,0,7,,,,,0,,,62,100
2432,note_off,,,,,128,0,7,,,,,0,,,62,100
2432,note_off,,,,,128,0,8,,,,,1,,,77,100
2496,note_on,,,,,64,0,7,,,,,0,,,69,100
2496,note_on,,,,,64,0,8,,,,,1,,,62,100
2624,note_off,,,,,128,0,8,,,,,1,,,62,100
2624,note_off,,,,,128,0,7,,,,,0,,,69,100
2688,note_on,,,,,64,0,7,,,,,0,,,74,100
2688,note_on,,,,,64,0,8,,,,,1,,,62,100
2816,note_off,,,,,128,0,8,,,,,1,,,62,100
2816,note_off,,,,,128,0,7,,,,,0,,,74,100
2880,note_on,,,,,64,0,8,,,,,1,,,69,100
2880,note_on,,,,,64,0,7,,,,,0,,,77,100
3008,note_off,,,,,128,0,8,,,,,1,,,69,100
3008,note_off,,,,,128,0,7,,,,,0,,,77,100
3072,note_on,,,,,64,0,8,,,,,1,,,74,100
3072,note_on,,,,,64,0,7,,,,,0,,,81,100
3200,note_off,,,,,128,0,8,,,,,1,,,74,100
3200,note_off,,,,,128,0,7,,,,,0,,,81,100
3264,note_on,,,,,64,0,8,,,,,1,,,77,100
3264,note_on,,,,,64,0,7,,,,,0,,,62,100
3392,note_off,,,,,128,0,7,,,,,0,,,62,100
3392,note_off,,,,,128,0,8,,,,,1,,,77,100
3456,note_on,,,,,64,0,8,,,,,1,,,81,100
3456,note_on,,,,,64,0,7,,,,,0,,,62,100
3584,note_off,,,,,128,0,8,,,,,1,,,81,100
3584,note_off,,,,,128,0,7,,,,,0,,,62,100
3648,note_on,,,,,64,0,8,,,,,1,,,62,100
3648,note_on,,,,,64,0,7,,,,,0,,,74,100
3776,note_off,,,,,128,0,8,,,,,1,,,62,100
3776,note_off,,,,,128,0,7,,,,,0,,,74,100
3840,note_on,,,,,64,0,7,,,,,0,,,77,100
3840,note_on,,,,,64,0,8,,,,,1,,,62,100
3968,note_off,,,,,128,0,8,,,,,1,,,62,100
3968,note_off,,,,,128,0,7,,,,,0,,,77,100
4032,note_on,,,,,64,0,7,,,,,0,,,81,100
4032,note_on,,,,,64,0,8,,,,,1,,,74,100
4160,note_off,,,,,128,0,7,,,,,0,,,81,100
4160,note_off,,,,,128,0,8,,,,,1,,,74,100
4224,note_on,,,,,64,0,8,,,,,1,,,77,100
4224,note_on,,,,,64,0,7,,,,,0,,,86,100
4352,note_off,,,,,128,0,7,,,,,0,,,86,100
4352,note_off,,,,,128,0,8,,,,,1,,,77,100
4416,note_on,,,,,64,0,8,,,,,1,,,81,100
4416,note_on,,,,,64,0,7,,,,,0,,,62,100
4544,note_off,,,,,128,0,7,,,,,0,,,62,100
4544,note_off,,,,,128,0,8,,,,,1,,,81,100
4608,note_on,,,,,64,0,7,,,,,0,,,62,100
4608,note_on,,,,,64,0,8,,,,,1,,,86,100
4736,note_off,,,,,128,0,8,,,,,1,,,86,100
4736,note_off,,,,,128,0,7,,,,,0,,,62,100
4800,note_on,,,,,64,0,7,,,,,0,,,81,100
4800,note_on,,,,,64,0,8,,,,,1,,,62,100
4928,note_off,,,,,128,0,7,,,,,0,,,81,100
4928,note_off,,,,,128,0,8,,,,,1,,,62,100
4992,note_on,,,,,64,0,8,,,,,1,,,62,100
4992,note_on,,,,,64,0,7,,,,,0,,,86,100
5120,note_off,,,,,128,0,8,,,,,1,,,62,100
5120,note_off,,,,,128,0,7,,,,,0,,,86,100
5184,note_on,,,,,64,0,7,,,,,0,,,62,100
5184,note_on,,,,,64,0,8,,,,,1,,,81,100
5312,note_off,,,,,128,0,7,,,,,0,,,62,100
5312,note_off,,,,,128,0,8,,,,,1,,,81,100
5376,note_on,,,,,64,0,7,,,,,0,,,62,100
5376,note_on,,,,,64,0,8,,,,,1,,,86,100
5504,note_off,,,,,128,0,8,,,,,1,,,86,100
5504,note_off,,,,,128,0,7,,,,,0,,,62,100
5568,note_on,,,,,64,0,7,,,,,0,,,81,100
5568,note_on,,,,,64,0,8,,,,,1,,,62,95
5696,note_off,,,,,128,0,8,,,,,1,,,62,100
5696,note_off,,,,,128,0,7,,,,,0,,,81,100
5760,note_on,,,,,64,0,7,,,,,0,,,86,100
5760,note_on,,,,,64,0,8,,,,,1,,,62,95
5888,note_off,,,,,128,0,8,,,,,1,,,62,100
5888,note_off,,,,,128,0,7,,,,,0,,,86,100
5952,note_on,,,,,64,0,8,,,,,1,,,62,96
5952,note_on,,,,,64,0,7,,,,,0,,,81,100
6080,note_off,,,,,128,0,7,,,,,0,,,81,100
6080,note_off,,,,,128,0,8,,,,,1,,,62,100
6144,note_on,,,,,64,0,7,,,,,0,,,86,100
6144,note_on,,,,,64,0,8,,,,,1,,,62,97
6272,note_off,,,,,128,0,8,,,,,1,,,62,100
6272,note_off,,,,,128,0,7,,,,,0,,,86,100
6336,note_on,,,,,64,0,8,,,,,1,,,62,98
6336,note_on,,,,,64,0,7,,,,,0,,,84,99
6400,note_off,,,,,64,0,7,,,,,0,,,84,100
6432,note_on,,,,,32,0,7,,,,,0,,,82,99
6464,note_off,,,,,128,0,8,,,,,1,,,62,100
6496,note_off,,,,,64,0,7,,,,,0,,,82,100
6528,note_on,,,,,64,0,8,,,,,1,,,62,99
6528,note_on,,,,,32,0,7,,,,,0,,,81,98
6592,note_off,,,,,64,0,7,,,,,0,,,81,100
6624,note_on,,,,,32,0,7,,,,,0,,,79,97
6656,note_off,,,,,128,0,8,,,,,1,,,62,100
6688,note_off,,,,,64,0,7,,,,,0,,,79,100
6720,note_on,,,,,64,0,8,,,,,1,,,81,99
6720,note_on,,,,,32,0,7,,,,,0,,,77,97
6784,note_off,,,,,64,0,7,,,,,0,,,77,100
6816,note_on,,,,,32,0,7,,,,,0,,,76,96
6848,note_off,,,,,128,0,8,,,,,1,,,81,100
6880,note_off,,,,,64,0,7,,,,,0,,,76,100
6912,note_on,,,,,64,0,8,,,,,1,,,86,100
6912,note_on,,,,,32,0,7,,,,,0,,,74,96
6912,set_tempo,,,,,6912,1,0,,500000,,,,,,,
7040,note_off,,,,,128,0,8,,,,,1,,,86,100
7040,note_off,,,,,128,0,7,,,,,0,,,74,100
7104,note_on,,,,,64,0,7,,,,,0,,,62,85
7104,note_on,,,,,64,0,8,,,,,1,,,81,100
7232,note_off,,,,,128,0,7,,,,,0,,,62,100
7232,note_off,,,,,128,0,8,,,,,1,,,81,100
7296,note_on,,,,,64,0,7,,,,,0,,,62,88
7296,note_on,,,,,64,0,8,,,,,1,,,86,100
7424,note_off,,,,,128,0,8,,,,,1,,,86,100
7424,note_off,,,,,128,0,7,,,,,0,,,62,100
7488,note_on,,,,,64,0,8,,,,,1,,,84,99
7488,note_on,,,,,64,0,7,,,,,0,,,62,92
7552,note_off,,,,,64,0,8,,,,,1,,,84,100
7584,note_on,,,,,32,0,8,,,,,1,,,82,99
7616,note_off,,,,,128,0,7,,,,,0,,,62,100
7648,note_off,,,,,64,0,8,,,,,1,,,82,100
7680,note_on,,,,,32,0,8,,,,,1,,,81,98
7680,note_on,,,,,64,0,7,,,,,0,,,62,96
7744,note_off,,,,,64,0,8,,,,,1,,,81,100
7776,note_on,,,,,32,0,8,,,,,1,,,79,97
7808,note_off,,,,,128,0,7,,,,,0,,,62,100
7840,note_off,,,,,64,0,8,,,,,1,,,79,100
7872,note_on,,,,,64,0,7,,,,,0,,,69,99
7872,note_on,,,,,32,0,8,,,,,1,,,77,97
7936,note_off,,,,,64,0,8,,,,,1,,,77,100
7968,note_on,,,,,32,0,8,,,,,1,,,76,96
8000,note_off,,,,,128,0,7,,,,,0,,,69,100
8032,note_off,,,,,64,0,8,,,,,1,,,76,100
8064,note_on,,,,,64,0,7,,,,,0,,,74,100
8064,note_on,,,,,32,0,8,,,,,1,,,74,96
8192,note_off,,,,,128,0,8,,,,,1,,,74,100
8192,note_off,,,,,128,0,7,,,,,0,,,74,100
8256,note_on,,,,,64,0,8,,,,,1,,,62,85
8256,note_on,,,,,64,0,7,,,,,0,,,69,100
8384,note_off,,,,,128,0,7,,,,,0,,,69,100
8384,note_off,,,,,128,0,8,,,,,1,,,62,100
8448,note_on,,,,,64,0,7,,,,,0,,,74,100
8448,note_on,,,,,64,0,8,,,,,1,,,62,88
8576,note_off,,,,,128,0,7,,,,,0,,,74,100
8576,note_off,,,,,128,0,8,,,,,1,,,62,100
8640,note_on,,,,,64,0,7,,,,,0,,,72,100
8640,note_on,,,,,64,0,8,,,,,1,,,62,92
8704,note_off,,,,,64,0,7,,,,,0,,,72,100
8736,note_on,,,,,32,0,7,,,,,0,,,70,100
8768,note_off,,,,,128,0,8,,,,,1,,,62,100
8800,note_off,,,,,64,0,7,,,,,0,,,70,100
8832,note_on,,,,,32,0,7,,,,,0,,,69,99
8832,note_on,,,,,64,0,8,,,,,1,,,62,96
8896,note_off,,,,,64,0,7,,,,,0,,,69,100
8928,note_on,,,,,32,0,7,,,,,0,,,67,98
8960,note_off,,,,,128,0,8,,,,,1,,,62,100
8992,note_off,,,,,64,0,7,,,,,0,,,67,100
9024,note_on,,,,,64,0,8,,,,,1,,,69,99
9024,note_on,,,,,32,0,7,,,,,0,,,65,97
9088,note_off,,,,,64,0,7,,,,,0,,,65,100
9120,note_on,,,,,32,0,7,,,,,0,,,64,96
9152,note_off,,,,,128,0,8,,,,,1,,,69,100
9184,note_off,,,,,64,0,7,,,,,0,,,64,100
9216,note_on,,,,,64,0,8,,,,,1,,,74,100
9216,note_on,,,,,32,0,7,,,,,0,,,62,96
9344,note_off,,,,,128,0,7,,,,,0,,,62,100
9344,note_off,,,,,128,0,8,,,,,1,,,74,100
9408,note_on,,,,,64,0,8,,,,,1,,,69,100
9408,note_on,,,,,64,0,7,,,,,0,,,62,85
9536,note_off,,,,,128,0,7,,,,,0,,,62,100
9536,note_off,,,,,128,0,8,,,,,1,,,69,100
9600,note_on,,,,,64,0,7,,,,,0,,,62,88
9600,note_on,,,,,64,0,8,,,,,1,,,74,100
9728,note_off,,,,,128,0,7,,,,,0,,,62,100
9728,note_off,,,,,128,0,8,,,,,1,,,74,100
9792,note_on,,,,,64,0,8,,,,,1,,,72,100
9792,note_on,,,,,64,0,7,,,,,0,,,62,92
9856,note_off,,,,,64,0,8,,,,,1,,,72,100
9888,note_on,,,,,32,0,8,,,,,1,,,70,100
9920,note_off,,,,,128,0,7,,,,,0,,,62,100
9952,note_off,,,,,64,0,8,,,,,1,,,70,100
9984,note_on,,,,,64,0,7,,,,,0,,,62,96
9984,note_on,,,,,32,0,8,,,,,1,,,69,99
10048,note_off,,,,,64,0,8,,,,,1,,,69,100
10080,note_on,,,,,32,0,8,,,,,1,,,67,98
10112,note_off,,,,,128,0,7,,,,,0,,,62,100
10144,note_off,,,,,64,0,8,,,,,1,,,67,100
10176,note_on,,,,,64,0,7,,,,,0,,,62,99
10176,note_on,,,,,32,0,8,,,,,1,,,65,97
10240,note_off,,,,,64,0,8,,,,,1,,,65,100
10272,note_on,,,,,32,0,8,,,,,1,,,64,96
10304,note_off,,,,,128,0,7,,,,,0,,,62,100
10336,note_off,,,,,64,0,8,,,,,1,,,64,100
10368,note_on,,,,,64,0,7,,,,,0,,,62,100
10368,note_on,,,,,32,0,8,,,,,1,,,62,96
10432,note_off,,,,,64,0,7,,,,,0,,,62,100
10464,note_on,,,,,32,0,7,,,,,0,,,62,100
10496,note_off,,,,,128,0,8,,,,,1,,,62,100
10528,note_off,,,,,64,0,7,,,,,0,,,62,100
10560,note_on,,,,,32,0,7,,,,,0,,,65,100
10560,note_on,,,,,64,0,8,,,,,1,,,62,85
10624,note_off,,,,,64,0,7,,,,,0,,,65,100
10656,note_on,,,,,32,0,7,,,,,0,,,64,100
10688,note_off,,,,,128,0,8,,,,,1,,,62,100
10720,note_off,,,,,64,0,7,,,,,0,,,64,100
10752,note_on,,,,,64,0,8,,,,,1,,,62,88
10752,note_on,,,,,32,0,7,,,,,0,,,62,100
10816,note_off,,,,,64,0,7,,,,,0,,,62,100
10848,note_on,,,,,32,0,7,,,,,0,,,65,100
10880,note_off,,,,,128,0,8,,,,,1,,,62,100
10912,note_off,,,,,64,0,7,,,,,0,,,65,100
10944,note_on,,,,,32,0,7,,,,,0,,,64,100
10944,note_on,,,,,64,0,8,,,,,1,,,62,92
11008,note_off,,,,,64,0,7,,,,,0,,,64,100
11040,note_on,,,,,32,0,7,,,,,0,,,62,100
11072,note_off,,,,,128,0,8,,,,,1,,,62,100
11104,note_off,,,,,64,0,7,,,,,0,,,62,100
11136,note_on,,,,,64,0,8,,,,,1,,,62,96
11136,note_on,,,,,32,0,7,,,,,0,,,69,100
11200,note_off,,,,,64,0,7,,,,,0,,,69,100
11232,note_on,,,,,32,0,7,,,,,0,,,73,100
11264,note_off,,,,,128,0,8,,,,,1,,,62,100
11296,note_off,,,,,64,0,7,,,,,0,,,73,100
11328,note_on,,,,,64,0,8,,,,,1,,,62,99
11328,note_on,,,,,32,0,7,,,,,0,,,71,100
11392,note_off,,,,,64,0,7,,,,,0,,,71,100
11424,note_on,,,,,32,0,7,,,,,0,,,69,100
11456,note_off,,,,,128,0,8,,,,,1,,,62,100
11488,note_off,,,,,64,0,7,,,,,0,,,69,100
11520,note_on,,,,,32,0,7,,,,,0,,,74,100
11520,note_on,,,,,64,0,8,,,,,1,,,62,100
11584,note_off,,,,,64,0,8,,,,,1,,,62,100
11616,note_on,,,,,32,0,8,,,,,1,,,62,100
11648,note_off,,,,,128,0,7,,,,,0,,,74,100
11680,note_off,,,,,64,0,8,,,,,1,,,62,100
11712,note_on,,,,,32,0,8,,,,,1,,,65,100
11712,note_on,,,,,64,0,7,,,,,0,,,62,85
11776,note_off,,,,,64,0,8,,,,,1,,,65,100
11808,note_on,,,,,32,0,8,,,,,1,,,64,100
11840,note_off,,,,,128,0,7,,,,,0,,,62,100
11872,note_off,,,,,64,0,8,,,,,1,,,64,100
11904,note_on,,,,,32,0,8,,,,,1,,,62,100
11904,note_on,,,,,64,0,7,,,,,0,,,62,87
11968,note_off,,,,,64,0,8,,,,,1,,,62,100
12000,note_on,,,,,32,0,8,,,,,1,,,65,100
12032,note_off,,,,,128,0,7,,,,,0,,,62,100
12064,note_off,,,,,64,0,8,,,,,1,,,65,100
12096,note_on,,,,,64,0,7,,,,,0,,,62,90
12096,note_on,,,,,32,0,8,,,,,1,,,64,100
12160,note_off,,,,,64,0,8,,,,,1,,,64,100
12192,note_on,,,,,32,0,8,,,,,1,,,62,100
12224,note_off,,,,,128,0,7,,,,,0,,,62,100
12256,note_off,,,,,64,0,8,,,,,1,,,62,100
12288,note_on,,,,,32,0,8,,,,,1,,,69,100
12288,note_on,,,,,64,0,7,,,,,0,,,62,93
12352,note_off,,,,,64,0,8,,,,,1,,,69,100
12384,note_on,,,,,32,0,8,,,,,1,,,73,100
12416,note_off,,,,,128,0,7,,,,,0,,,62,100
12448,note_off,,,,,64,0,8,,,,,1,,,73,100
12480,note_on,,,,,64,0,7,,,,,0,,,62,96
12480,note_on,,,,,32,0,8,,,,,1,,,71,100
12544,note_off,,,,,64,0,8,,,,,1,,,71,100
12576,note_on,,,,,32,0,8,,,,,1,,,69,100
12608,note_off,,,,,128,0,7,,,,,0,,,62,100
12640,note_off,,,,,64,0,8,,,,,1,,,69,100
12672,note_on,,,,,32,0,8,,,,,1,,,74,100
12672,note_on,,,,,64,0,7,,,,,0,,,62,99
12736,note_off,,,,,64,0,7,,,,,0,,,62,100
12768,note_on,,,,,32,0,7,,,,,0,,,69,100
12800,note_off,,,,,128,0,8,,,,,1,,,74,100
12832,note_off,,,,,64,0,7,,,,,0,,,69,100
12864,note_on,,,,,32,0,7,,,,,0,,,73,100
12864,note_on,,,,,64,0,8,,,,,1,,,62,85
12928,note_off,,,,,64,0,7,,,,,0,,,73,100
12960,note_on,,,,,32,0,7,,,,,0,,,71,100
12992,note_off,,,,,128,0,8,,,,,1,,,62,100
13024,note_off,,,,,64,0,7,,,,,0,,,71,100
13056,note_on,,,,,32,0,7,,,,,0,,,69,100
13056,note_on,,,,,64,0,8,,,,,1,,,62,87
13120,note_off,,,,,64,0,7,,,,,0,,,69,100
13152,note_on,,,,,32,0,7,,,,,0,,,73,100
13184,note_off,,,,,128,0,8,,,,,1,,,62,100
13216,note_off,,,,,64,0,7,,,,,0,,,73,100
13248,note_on,,,,,32,0,7,,,,,0,,,71,100
13248,note_on,,,,,64,0,8,,,,,1,,,62,90
13312,note_off,,,,,64,0,7,,,,,0,,,71,100
13344,note_on,,,,,32,0,7,,,,,0,,,69,100
13376,note_off,,,,,128,0,8,,,,,1,,,62,100
13408,note_off,,,,,64,0,7,,,,,0,,,69,100
13440,note_on,,,,,32,0,7,,,,,0,,,74,100
13440,note_on,,,,,64,0,8,,,,,1,,,62,93
13504,note_off,,,,,64,0,7,,,,,0,,,74,100
13536,note_on,,,,,32,0,7,,,,,0,,,77,100
13568,note_off,,,,,128,0,8,,,,,1,,,62,100
13600,note_off,,,,,64,0,7,,,,,0,,,77,100
13632,note_on,,,,,64,0,8,,,,,1,,,62,96
13632,note_on,,,,,32,0,7,,,,,0,,,76,100
13696,note_off,,,,,64,0,7,,,,,0,,,76,100
13728,note_on,,,,,32,0,7,,,,,0,,,74,100
13760,note_off,,,,,128,0,8,,,,,1,,,62,100
13792,note_off,,,,,64,0,7,,,,,0,,,74,100
13824,note_on,,,,,64,0,8,,,,,1,,,62,99
13824,note_on,,,,,32,0,7,,,,,0,,,81,100
13888,note_off,,,,,64,0,8,,,,,1,,,62,100
13920,note_on,,,,,32,0,8,,,,,1,,,69,100
13952,note_off,,,,,128,0,7,,,,,0,,,81,100
13984,note_off,,,,,64,0,8,,,,,1,,,69,100
14016,note_on,,,,,32,0,8,,,,,1,,,73,100
14016,note_on,,,,,64,0,7,,,,,0,,,62,90
14080,note_off,,,,,64,0,8,,,,,1,,,73,100
14112,note_on,,,,,32,0,8,,,,,1,,,71,100
14144,note_off,,,,,128,0,7,,,,,0,,,62,100
14176,note_off,,,,,64,0,8,,,,,1,,,71,100
14208,note_on,,,,,32,0,8,,,,,1,,,69,100
14208,note_on,,,,,64,0,7,,,,,0,,,62,91
14272,note_off,,,,,64,0,8,,,,,1,,,69,100
14304,note_on,,,,,32,0,8,,,,,1,,,73,100
14336,note_off,,,,,128,0,7,,,,,0,,,62,100
14368,note_off,,,,,64,0,8,,,,,1,,,73,100
14400,note_on,,,,,32,0,8,,,,,1,,,71,100
14400,note_on,,,,,64,0,7,,,,,0,,,62,93
14464,note_off,,,,,64,0,8,,,,,1,,,71,100
14496,note_on,,,,,32,0,8,,,,,1,,,69,100
14528,note_off,,,,,128,0,7,,,,,0,,,62,100
14560,note_off,,,,,64,0,8,,,,,1,,,69,100
14592,note_on,,,,,32,0,8,,,,,1,,,74,100
14592,note_on,,,,,64,0,7,,,,,0,,,62,95
14656,note_off,,,,,64,0,8,,,,,1,,,74,100
14688,note_on,,,,,32,0,8,,,,,1,,,77,100
14720,note_off,,,,,128,0,7,,,,,0,,,62,100
14752,note_off,,,,,64,0,8,,,,,1,,,77,100
14784,note_on,,,,,32,0,8,,,,,1,,,76,100
14784,note_on,,,,,64,0,7,,,,,0,,,62,97
14848,note_off,,,,,64,0,8,,,,,1,,,76,100
14880,note_on,,,,,32,0,8,,,,,1,,,74,100
14912,note_off,,,,,128,0,7,,,,,0,,,62,100
14944,note_off,,,,,64,0,8,,,,,1,,,74,100
14976,note_on,,,,,32,0,8,,,,,1,,,81,100
14976,note_on,,,,,64,0,7,,,,,0,,,62,99
15040,note_off,,,,,64,0,7,,,,,0,,,62,100
15072,note_on,,,,,32,0,7,,,,,0,,,74,100
15104,note_off,,,,,128,0,8,,,,,1,,,81,100
15136,note_off,,,,,64,0,7,,,,,0,,,74,100
15168,note_on,,,,,32,0,7,,,,,0,,,77,100
15168,note_on,,,,,64,0,8,,,,,1,,,62,90
15232,note_off,,,,,64,0,7,,,,,0,,,77,100
15264,note_on,,,,,32,0,7,,,,,0,,,76,100
15296,note_off,,,,,128,0,8,,,,,1,,,62,100
15328,note_off,,,,,64,0,7,,,,,0,,,76,100
15360,note_on,,,,,32,0,7,,,,,0,,,74,100
15360,note_on,,,,,64,0,8,,,,,1,,,62,91
15424,note_off,,,,,64,0,7,,,,,0,,,74,100
15456,note_on,,,,,32,0,7,,,,,0,,,77,100
15488,note_off,,,,,128,0,8,,,,,1,,,62,100
15520,note_off,,,,,64,0,7,,,,,0,,,77,100
15552,note_on,,,,,32,0,7,,,,,0,,,76,100
15552,note_on,,,,,64,0,8,,,,,1,,,62,93
15616,note_off,,,,,64,0,7,,,,,0,,,76,100
15648,note_on,,,,,32,0,7,,,,,0,,,74,100
15680,note_off,,,,,128,0,8,,,,,1,,,62,100
15712,note_off,,,,,64,0,7,,,,,0,,,74,100
15744,note_on,,,,,32,0,7,,,,,0,,,81,100
15744,note_on,,,,,64,0,8,,,,,1,,,62,95
15808,note_off,,,,,64,0,7,,,,,0,,,81,100
15840,note_on,,,,,32,0,7,,,,,0,,,85,100
15872,note_off,,,,,128,0,8,,,,,1,,,62,100
15904,note_off,,,,,64,0,7,,,,,0,,,85,100
15936,note_on,,,,,32,0,7,,,,,0,,,83,100
15936,note_on,,,,,64,0,8,,,,,1,,,62,97
16000,note_off,,,,,64,0,7,,,,,0,,,83,100
16032,note_on,,,,,32,0,7,,,,,0,,,81,100
16064,note_off,,,,,128,0,8,,,,,1,,,62,100
16096,note_off,,,,,64,0,7,,,,,0,,,81,100
16128,note_on,,,,,64,0,8,,,,,1,,,62,99
16128,note_on,,,,,32,0,7,,,,,0,,,86,100
16192,note_off,,,,,64,0,8,,,,,1,,,62,100
16224,note_on,,,,,32,0,8,,,,,1,,,74,100
16256,note_off,,,,,128,0,7,,,,,0,,,86,100
16288,note_off,,,,,64,0,8,,,,,1,,,74,100
16320,note_on,,,,,64,0,7,,,,,0,,,62,90
16320,note_on,,,,,32,0,8,,,,,1,,,77,100
16384,note_off,,,,,64,0,8,,,,,1,,,77,100
16416,note_on,,,,,32,0,8,,,,,1,,,76,100
16448,note_off,,,,,128,0,7,,,,,0,,,62,100
16480,note_off,,,,,64,0,8,,,,,1,,,76,100
16512,note_on,,,,,64,0,7,,,,,0,,,62,91
16512,note_on,,,,,32,0,8,,,,,1,,,74,100
16576,note_off,,,,,64,0,8,,,,,1,,,74,100
16608,note_on,,,,,32,0,8,,,,,1,,,77,100
16640,note_off,,,,,128,0,7,,,,,0,,,62,100
16672,note_off,,,,,64,0,8,,,,,1,,,77,100
16704,note_on,,,,,32,0,8,,,,,1,,,76,100
16704,note_on,,,,,64,0,7,,,,,0,,,62,93
16768,note_off,,,,,64,0,8,,,,,1,,,76,100
16800,note_on,,,,,32,0,8,,,,,1,,,74,100
16832,note_off,,,,,128,0,7,,,,,0,,,62,100
16864,note_off,,,,,64,0,8,,,,,1,,,74,100
16896,note_on,,,,,32,0,8,,,,,1,,,81,100
16896,note_on,,,,,64,0,7,,,,,0,,,62,95
16960,note_off,,,,,64,0,8,,,,,1,,,81,100
16992,note_on,,,,,32,0,8,,,,,1,,,85,100
17024,note_off,,,,,128,0,7,,,,,0,,,62,100
17056,note_off,,,,,64,0,8,,,,,1,,,85,100
17088,note_on,,,,,64,0,7,,,,,0,,,62,97
17088,note_on,,,,,32,0,8,,,,,1,,,83,100
17152,note_off,,,,,64,0,8,,,,,1,,,83,100
17184,note_on,,,,,32,0,8,,,,,1,,,81,100
17216,note_off,,,,,128,0,7,,,,,0,,,62,100
17248,note_off,,,,,64,0,8,,,,,1,,,81,100
17280,note_on,,,,,64,0,7,,,,,0,,,62,99
17280,note_on,,,,,32,0,8,,,,,1,,,86,100
17344,note_off,,,,,64,0,7,,,,,0,,,62,100
17376,note_on,,,,,32,0,7,,,,,0,,,81,100
17408,note_off,,,,,128,0,8,,,,,1,,,86,100
17440,note_off,,,,,64,0,7,,,,,0,,,81,100
17472,note_on,,,,,64,0,8,,,,,1,,,62,90
17472,note_on,,,,,32,0,7,,,,,0,,,79,100
17536,note_off,,,,,64,0,7,,,,,0,,,79,100
17568,note_on,,,,,32,0,7,,,,,0,,,81,100
17600,note_off,,,,,128,0,8,,,,,1,,,62,100
17632,note_off,,,,,64,0,7,,,,,0,,,81,100
17664,note_on,,,,,64,0,8,,,,,1,,,62,91
17664,note_on,,,,,32,0,7,,,,,0,,,77,100
17728,note_off,,,,,64,0,7,,,,,0,,,77,100
17760,note_on,,,,,32,0,7,,,,,0,,,79,100
17792,note_off,,,,,128,0,8,,,,,1,,,62,100
17824,note_off,,,,,64,0,7,,,,,0,,,79,100
17856,note_on,,,,,32,0,7,,,,,0,,,76,100
17856,note_on,,,,,64,0,8,,,,,1,,,62,93
17920,note_off,,,,,64,0,7,,,,,0,,,76,100
17952,note_on,,,,,32,0,7,,,,,0,,,77,100
17984,note_off,,,,,128,0,8,,,,,1,,,62,100
18016,note_off,,,,,64,0,7,,,,,0,,,77,100
18048,note_on,,,,,32,0,7,,,,,0,,,74,100
18048,note_on,,,,,64,0,8,,,,,1,,,62,95
18112,note_off,,,,,64,0,7,,,,,0,,,74,100
18144,note_on,,,,,32,0,7,,,,,0,,,69,100
18176,note_off,,,,,128,0,8,,,,,1,,,62,100
18208,note_off,,,,,64,0,7,,,,,0,,,69,100
18240,note_on,,,,,32,0,7,,,,,0,,,71,100
18240,note_on,,,,,64,0,8,,,,,1,,,62,97
18304,note_off,,,,,64,0,7,,,,,0,,,71,100
18336,note_on,,,,,32,0,7,,,,,0,,,73,100
18368,note_off,,,,,128,0,8,,,,,1,,,62,100
18400,note_off,,,,,64,0,7,,,,,0,,,73,100
18432,note_on,,,,,64,0,8,,,,,1,,,62,99
18432,note_on,,,,,32,0,7,,,,,0,,,74,100
18496,note_off,,,,,64,0,8,,,,,1,,,62,100
18528,note_on,,,,,32,0,8,,,,,1,,,81,100
18560,note_off,,,,,128,0,7,,,,,0,,,74,100
18592,note_off,,,,,64,0,8,,,,,1,,,81,100
18624,note_on,,,,,32,0,8,,,,,1,,,79,100
18624,note_on,,,,,64,0,7,,,,,0,,,62,85
18688,note_off,,,,,64,0,8,,,,,1,,,79,100
18720,note_on,,,,,32,0,8,,,,,1,,,81,100
18752,note_off,,,,,128,0,7,,,,,0,,,62,100
18784,note_off,,,,,64,0,8,,,,,1,,,81,100
18816,note_on,,,,,32,0,8,,,,,1,,,77,100
18816,note_on,,,,,64,0,7,,,,,0,,,62,87
18880,note_off,,,,,64,0,8,,,,,1,,,77,100
18912,note_on,,,,,32,0,8,,,,,1,,,79,100
18944,note_off,,,,,128,0,7,,,,,0,,,62,100
18976,note_off,,,,,64,0,8,,,,,1,,,79,100
19008,note_on,,,,,32,0,8,,,,,1,,,76,100
19008,note_on,,,,,64,0,7,,,,,0,,,62,90
19072,note_off,,,,,64,0,8,,,,,1,,,76,100
19104,note_on,,,,,32,0,8,,,,,1,,,77,100
19136,note_off,,,,,128,0,7,,,,,0,,,62,100
19168,note_off,,,,,64,0,8,,,,,1,,,77,100
19200,note_on,,,,,32,0,8,,,,,1,,,74,100
19200,note_on,,,,,64,0,7,,,,,0,,,62,93
19264,note_off,,,,,64,0,8,,,,,1,,,74,100
19296,note_on,,,,,32,0,8,,,,,1,,,69,100
19328,note_off,,,,,128,0,7,,,,,0,,,62,100
19360,note_off,,,,,64,0,8,,,,,1,,,69,100
19392,note_on,,,,,32,0,8,,,,,1,,,71,100
19392,note_on,,,,,64,0,7,,,,,0,,,62,96
19456,note_off,,,,,64,0,8,,,,,1,,,71,100
19488,note_on,,,,,32,0,8,,,,,1,,,73,100
19520,note_off,,,,,128,0,7,,,,,0,,,62,100
19552,note_off,,,,,64,0,8,,,,,1,,,73,100
19584,note_on,,,,,32,0,8,,,,,1,,,74,100
19584,note_on,,,,,64,0,7,,,,,0,,,62,99
19648,note_off,,,,,64,0,7,,,,,0,,,62,100
19680,note_on,,,,,32,0,7,,,,,0,,,69,100
19712,note_off,,,,,128,0,8,,,,,1,,,74,100
19744,note_off,,,,,64,0,7,,,,,0,,,69,100
19776,note_on,,,,,64,0,8,,,,,1,,,62,85
19776,note_on,,,,,32,0,7,,,,,0,,,71,100
19840,note_off,,,,,64,0,7,,,,,0,,,71,100
19872,note_on,,,,,32,0,7,,,,,0,,,73,100
19904,note_off,,,,,128,0,8,,,,,1,,,62,100
19936,note_off,,,,,64,0,7,,,,,0,,,73,100
19968,note_on,,,,,32,0,7,,,,,0,,,74,100
19968,note_on,,,,,64,0,8,,,,,1,,,62,87
20032,note_off,,,,,64,0,7,,,,,0,,,74,100
20064,note_on,,,,,32,0,7,,,,,0,,,69,100
20096,note_off,,,,,128,0,8,,,,,1,,,62,100
20128,note_off,,,,,64,0,7,,,,,0,,,69,100
20160,note_on,,,,,32,0,7,,,,,0,,,71,100
20160,note_on,,,,,64,0,8,,,,,1,,,62,90
20224,note_off,,,,,64,0,7,,,,,0,,,71,100
20256,note_on,,,,,32,0,7,,,,,0,,,73,100
20288,note_off,,,,,128,0,8,,,,,1,,,62,100
20320,note_off,,,,,64,0,7,,,,,0,,,73,100
20352,note_on,,,,,64,0,8,,,,,1,,,62,93
20352,note_on,,,,,32,0,7,,,,,0,,,74,100
20416,note_off,,,,,64,0,7,,,,,0,,,74,100
20448,note_on,,,,,32,0,7,,,,,0,,,65,100
20480,note_off,,,,,128,0,8,,,,,1,,,62,100
20512,note_off,,,,,64,0,7,,,,,0,,,65,100
20544,note_on,,,,,64,0,8,,,,,1,,,62,96
20544,note_on,,,,,32,0,7,,,,,0,,,67,100
20608,note_off,,,,,64,0,7,,,,,0,,,67,100
20640,note_on,,,,,32,0,7,,,,,0,,,69,100
20672,note_off,,,,,128,0,8,,,,,1,,,62,100
20704,note_off,,,,,64,0,7,,,,,0,,,69,100
20736,note_on,,,,,64,0,8,,,,,1,,,62,99
20736,note_on,,,,,32,0,7,,,,,0,,,62,100
20800,note_off,,,,,64,0,8,,,,,1,,,62,100
20832,note_on,,,,,32,0,8,,,,,1,,,69,100
20864,note_off,,,,,128,0,7,,,,,0,,,62,100
20896,note_off,,,,,64,0,8,,,,,1,,,69,100
20928,note_on,,,,,64,0,7,,,,,0,,,62,85
20928,note_on,,,,,32,0,8,,,,,1,,,71,100
20992,note_off,,,,,64,0,8,,,,,1,,,71,100
21024,note_on,,,,,32,0,8,,,,,1,,,73,100
21056,note_off,,,,,128,0,7,,,,,0,,,62,100
21088,note_off,,,,,64,0,8,,,,,1,,,73,100
21120,note_on,,,,,32,0,8,,,,,1,,,74,100
21120,note_on,,,,,64,0,7,,,,,0,,,62,87
21184,note_off,,,,,64,0,8,,,,,1,,,74,100
21216,note_on,,,,,32,0,8,,,,,1,,,69,100
21248,note_off,,,,,128,0,7,,,,,0,,,62,100
21280,note_off,,,,,64,0,8,,,,,1,,,69,100
21312,note_on,,,,,32,0,8,,,,,1,,,71,100
21312,note_on,,,,,64,0,7,,,,,0,,,62,90
21376,note_off,,,,,64,0,8,,,,,1,,,71,100
21408,note_on,,,,,32,0,8,,,,,1,,,73,100
21440,note_off,,,,,128,0,7,,,,,0,,,62,100
21472,note_off,,,,,64,0,8,,,,,1,,,73,100
21504,note_on,,,,,32,0,8,,,,,1,,,74,100
21504,note_on,,,,,64,0,7,,,,,0,,,62,93
21568,note_off,,,,,64,0,8,,,,,1,,,74,100
21600,note_on,,,,,32,0,8,,,,,1,,,65,100
21632,note_off,,,,,128,0,7,,,,,0,,,62,100
21664,note_off,,,,,64,0,8,,,,,1,,,65,100
21696,note_on,,,,,32,0,8,,,,,1,,,67,100
21696,note_on,,,,,64,0,7,,,,,0,,,62,96
21760,note_off,,,,,64,0,8,,,,,1,,,67,100
21792,note_on,,,,,32,0,8,,,,,1,,,69,100
21824,note_off,,,,,128,0,7,,,,,0,,,62,100
21856,note_off,,,,,64,0,8,,,,,1,,,69,100
21888,note_on,,,,,21888,0,11,,,,,4,,,69,100
21888,note_on,,,,,0,0,11,,,,,4,,,65,100
21888,note_on,,,,,21888,0,12,,,,,4,,,50,100
21888,note_on,,,,,32,0,8,,,,,1,,,62,100
21888,note_on,,,,,64,0,7,,,,,0,,,62,99
21888,note_on,,,,,21888,0,10,,,,,3,,,38,100
21984,note_on,,,,,21984,0,9,,,,,2,,,62,100
22016,note_off,,,,,128,0,10,,,,,3,,,38,100
22016,note_off,,,,,128,0,11,,,,,4,,,69,100
22016,note_off,,,,,0,0,11,,,,,4,,,65,100
22016,note_off,,,,,128,0,12,,,,,4,,,50,100
22048,note_off,,,,,64,0,9,,,,,2,,,62,100
22080,note_on,,,,,0,0,11,,,,,4,,,65,100
22080,note_on,,,,,64,0,11,,,,,4,,,69,100
22080,note_on,,,,,64,0,10,,,,,3,,,38,100
22080,note_on,,,,,32,0,9,,,,,2,,,60,100
22080,note_on,,,,,64,0,12,,,,,4,,,50,100
22144,note_off,,,,,64,0,9,,,,,2,,,60,100
22176,note_on,,,,,32,0,9,,,,,2,,,62,100
22208,note_off,,,,,128,0,12,,,,,4,,,50,100
22208,note_off,,,,,128,0,10,,,,,3,,,38,100
22208,note_off,,,,,128,0,11,,,,,4,,,69,100
22208,note_off,,,,,0,0,11,,,,,4,,,65,100
22240,note_off,,,,,64,0,9,,,,,2,,,62,100
22272,note_on,,,,,64,0,12,,,,,4,,,50,100
22272,note_on,,,,,64,0,10,,,,,3,,,38,100
22272,note_on,,,,,32,0,9,,,,,2,,,57,100
22272,note_on,,,,,64,0,11,,,,,4,,,69,100
22272,note_on,,,,,0,0,11,,,,,4,,,65,100
22336,note_off,,,,,64,0,9,,,,,2,,,57,100
22368,note_on,,,,,32,0,9,,,,,2,,,62,100
22400,note_off,,,,,128,0,10,,,,,3,,,38,100
22400,note_off,,,,,0,0,11,,,,,4,,,65,100
22400,note_off,,,,,128,0,12,,,,,4,,,50,100
22400,note_off,,,,,128,0,11,,,,,4,,,69,100
22400,end_of_track,,,,,0,1,8,,,,,,,,,
22400,note_off,,,,,512,0,8,,,,,1,,,62,100
22400,note_off,,,,,512,0,7,,,,,0,,,62,100
22432,note_off,,,,,64,0,9,,,,,2,,,62,100
22464,note_on,,,,,0,0,11,,,,,4,,,65,100
22464,note_on,,,,,64,0,10,,,,,3,,,38,100
22464,note_on,,,,,32,0,9,,,,,2,,,60,100
22464,note_on,,,,,64,0,11,,,,,4,,,69,100
22464,note_on,,,,,64,0,12,,,,,4,,,50,100
22528,note_off,,,,,64,0,9,,,,,2,,,60,100
22560,note_on,,,,,32,0,9,,,,,2,,,62,100
22592,note_off,,,,,128,0,10,,,,,3,,,38,100
22592,note_off,,,,,128,0,11,,,,,4,,,69,100
22592,note_off,,,,,0,0,11,,,,,4,,,65,100
22592,note_off,,,,,128,0,12,,,,,4,,,50,100
22624,note_off,,,,,64,0,9,,,,,2,,,62,100
22656,note_on,,,,,64,0,10,,,,,3,,,38,100
22656,note_on,,,,,64,0,11,,,,,4,,,69,100
22656,note_on,,,,,0,0,11,,,,,4,,,65,100
22656,note_on,,,,,32,0,9,,,,,2,,,57,100
22656,note_on,,,,,64,0,12,,,,,4,,,50,100
22720,note_off,,,,,64,0,9,,,,,2,,,57,100
22752,note_on,,,,,32,0,9,,,,,2,,,60,100
22784,note_off,,,,,128,0,12,,,,,4,,,50,100
22784,note_off,,,,,128,0,10,,,,,3,,,38,100
22784,note_off,,,,,128,0,11,,,,,4,,,69,100
22784,note_off,,,,,0,0,11,,,,,4,,,65,100
22816,note_off,,,,,64,0,9,,,,,2,,,60,100
22848,note_on,,,,,64,0,10,,,,,3,,,38,100
22848,note_on,,,,,64,0,12,,,,,4,,,50,100
22848,note_on,,,,,32,0,9,,,,,2,,,58,100
22848,note_on,,,,,64,0,11,,,,,4,,,69,100
22848,note_on,,,,,0,0,11,,,,,4,,,65,100
22912,note_off,,,,,64,0,9,,,,,2,,,58,100
22944,note_on,,,,,32,0,9,,,,,2,,,57,100
22976,note_off,,,,,128,0,12,,,,,4,,,50,100
22976,note_off,,,,,128,0,11,,,,,4,,,69,100
22976,note_off,,,,,0,0,11,,,,,4,,,65,100
22976,note_off,,,,,128,0,10,,,,,3,,,38,100
23008,note_off,,,,,64,0,9,,,,,2,,,57,100
23040,note_on,,,,,64,0,11,,,,,4,,,58,100
23040,note_on,,,,,0,0,11,,,,,4,,,62,100
23040,note_on,,,,,32,0,9,,,,,2,,,58,100
23040,note_on,,,,,64,0,12,,,,,4,,,43,100
23040,note_on,,,,,64,0,10,,,,,3,,,43,100
23104,note_off,,,,,64,0,9,,,,,2,,,58,100
23136,note_on,,,,,32,0,9,,,,,2,,,55,100
23168,note_off,,,,,128,0,11,,,,,4,,,58,100
23168,note_off,,,,,0,0,11,,,,,4,,,62,100
23168,note_off,,,,,128,0,10,,,,,3,,,43,100
23168,note_off,,,,,128,0,12,,,,,4,,,43,100
23200,note_off,,,,,64,0,9,,,,,2,,,55,100
23232,note_on,,,,,64,0,12,,,,,4,,,43,100
23232,note_on,,,,,32,0,9,,,,,2,,,53,100
23232,note_on,,,,,64,0,10,,,,,3,,,43,100
23232,note_on,,,,,64,0,11,,,,,4,,,58,100
23232,note_on,,,,,0,0,11,,,,,4,,,62,100
23296,note_off,,,,,64,0,9,,,,,2,,,53,100
23328,note_on,,,,,32,0,9,,,,,2,,,55,99
23360,note_off,,,,,128,0,12,,,,,4,,,43,100
23360,note_off,,,,,128,0,11,,,,,4,,,58,100
23360,note_off,,,,,0,0,11,,,,,4,,,62,100
23360,note_off,,,,,128,0,10,,,,,3,,,43,100
23392,note_off,,,,,64,0,9,,,,,2,,,55,100
23424,note_on,,,,,64,0,12,,,,,4,,,43,100
23424,note_on,,,,,0,0,11,,,,,4,,,62,100
23424,note_on,,,,,64,0,11,,,,,4,,,58,100
23424,note_on,,,,,32,0,9,,,,,2,,,50,99
23424,note_on,,,,,64,0,10,,,,,3,,,43,99
23488,note_off,,,,,64,0,9,,,,,2,,,50,100
23520,note_on,,,,,32,0,9,,,,,2,,,55,98
23552,note_off,,,,,0,0,11,,,,,4,,,62,100
23552,note_off,,,,,128,0,11,,,,,4,,,58,100
23552,note_off,,,,,128,0,10,,,,,3,,,43,100
23552,note_off,,,,,128,0,12,,,,,4,,,43,100
23584,note_off,,,,,64,0,9,,,,,2,,,55,100
23616,note_on,,,,,32,0,9,,,,,2,,,53,98
23616,note_on,,,,,64,0,10,,,,,3,,,43,98
23616,note_on,,,,,64,0,11,,,,,4,,,58,100
23616,note_on,,,,,0,0,11,,,,,4,,,62,100
23616,note_on,,,,,64,0,12,,,,,4,,,43,100
23680,note_off,,,,,64,0,9,,,,,2,,,53,100
23712,note_on,,,,,32,0,9,,,,,2,,,55,98
23744,note_off,,,,,128,0,10,,,,,3,,,43,100
23744,note_off,,,,,0,0,11,,,,,4,,,62,100
23744,note_off,,,,,128,0,12,,,,,4,,,43,100
23744,note_off,,,,,128,0,11,,,,,4,,,58,100
23776,note_off,,,,,64,0,9,,,,,2,,,55,100
23808,note_on,,,,,64,0,11,,,,,4,,,58,100
23808,note_on,,,,,0,0,11,,,,,4,,,62,100
23808,note_on,,,,,64,0,10,,,,,3,,,43,97
23808,note_on,,,,,32,0,9,,,,,2,,,50,97
23808,note_on,,,,,64,0,12,,,,,4,,,43,100
23872,note_off,,,,,64,0,9,,,,,2,,,50,100
23904,note_on,,,,,32,0,9,,,,,2,,,53,97
23936,note_off,,,,,128,0,10,,,,,3,,,43,100
23936,note_off,,,,,0,0,11,,,,,4,,,62,100
23936,note_off,,,,,128,0,11,,,,,4,,,58,100
23936,note_off,,,,,128,0,12,,,,,4,,,43,100
23968,note_off,,,,,64,0,9,,,,,2,,,53,100
24000,note_on,,,,,64,0,10,,,,,3,,,43,96
24000,note_on,,,,,0,0,11,,,,,4,,,62,100
24000,note_on,,,,,32,0,9,,,,,2,,,52,96
24000,note_on,,,,,64,0,12,,,,,4,,,43,100
24000,note_on,,,,,64,0,11,,,,,4,,,58,100
24064,note_off,,,,,64,0,9,,,,,2,,,52,100
24096,note_on,,,,,32,0,9,,,,,2,,,50,96
24128,note_off,,,,,0,0,11,,,,,4,,,62,100
24128,note_off,,,,,128,0,11,,,,,4,,,58,100
24128,note_off,,,,,128,0,10,,,,,3,,,43,100
24128,note_off,,,,,128,0,12,,,,,4,,,43,100
24160,note_off,,,,,64,0,9,,,,,2,,,50,100
24192,note_on,,,,,0,0,11,,,,,4,,,67,100
24192,note_on,,,,,32,0,9,,,,,2,,,52,96
24192,note_on,,,,,64,0,10,,,,,3,,,36,96
24192,note_on,,,,,64,0,11,,,,,4,,,64,100
24192,note_on,,,,,64,0,12,,,,,4,,,48,100
24256,note_off,,,,,64,0,9,,,,,2,,,52,100
24288,note_on,,,,,32,0,9,,,,,2,,,60,95
24320,note_off,,,,,0,0,11,,,,,4,,,67,100
24320,note_off,,,,,128,0,12,,,,,4,,,48,100
24320,note_off,,,,,128,0,11,,,,,4,,,64,100
24320,note_off,,,,,128,0,10,,,,,3,,,36,100
24352,note_off,,,,,64,0,9,,,,,2,,,60,100
24384,note_on,,,,,64,0,12,,,,,4,,,48,100
24384,note_on,,,,,64,0,11,,,,,4,,,64,100
24384,note_on,,,,,32,0,9,,,,,2,,,58,95
24384,note_on,,,,,0,0,11,,,,,4,,,67,100
24384,note_on,,,,,64,0,10,,,,,3,,,36,95
24448,note_off,,,,,64,0,9,,,,,2,,,58,100
24480,note_on,,,,,32,0,9,,,,,2,,,60,94
24512,note_off,,,,,128,0,12,,,,,4,,,48,100
24512,note_off,,,,,128,0,11,,,,,4,,,64,100
24512,note_off,,,,,128,0,10,,,,,3,,,36,100
24512,note_off,,,,,0,0,11,,,,,4,,,67,100
24544,note_off,,,,,64,0,9,,,,,2,,,60,100
24576,note_on,,,,,64,0,12,,,,,4,,,48,100
24576,note_on,,,,,0,0,11,,,,,4,,,67,100
24576,note_on,,,,,64,0,10,,,,,3,,,36,94
24576,note_on,,,,,32,0,9,,,,,2,,,55,94
24576,note_on,,,,,64,0,11,,,,,4,,,64,100
24640,note_off,,,,,64,0,9,,,,,2,,,55,100
24672,note_on,,,,,32,0,9,,,,,2,,,60,93
24704,note_off,,,,,128,0,11,,,,,4,,,64,100
24704,note_off,,,,,0,0,11,,,,,4,,,67,100
24704,note_off,,,,,128,0,12,,,,,4,,,48,100
24704,note_off,,,,,128,0,10,,,,,3,,,36,100
24736,note_off,,,,,64,0,9,,,,,2,,,60,100
24768,note_on,,,,,32,0,9,,,,,2,,,58,93
24768,note_on,,,,,0,0,11,,,,,4,,,67,100
24768,note_on,,,,,64,0,10,,,,,3,,,36,93
24768,note_on,,,,,64,0,12,,,,,4,,,48,100
24768,note_on,,,,,64,0,11,,,,,4,,,64,100
24832,note_off,,,,,64,0,9,,,,,2,,,58,100
24864,note_on,,,,,32,0,9,,,,,2,,,60,93
24896,note_off,,,,,0,0,11,,,,,4,,,67,100
24896,note_off,,,,,128,0,10,,,,,3,,,36,100
24896,note_off,,,,,128,0,12,,,,,4,,,48,100
24896,note_off,,,,,128,0,11,,,,,4,,,64,100
24928,note_off,,,,,64,0,9,,,,,2,,,60,100
24960,note_on,,,,,0,0,11,,,,,4,,,67,100
24960,note_on,,,,,64,0,11,,,,,4,,,64,100
24960,note_on,,,,,32,0,9,,,,,2,,,55,92
24960,note_on,,,,,64,0,12,,,,,4,,,48,100
24960,note_on,,,,,64,0,10,,,,,3,,,36,92
25024,note_off,,,,,64,0,9,,,,,2,,,55,100
25056,note_on,,,,,32,0,9,,,,,2,,,58,92
25088,note_off,,,,,0,0,11,,,,,4,,,67,100
25088,note_off,,,,,128,0,11,,,,,4,,,64,100
25088,note_off,,,,,128,0,12,,,,,4,,,48,100
25088,note_off,,,,,128,0,10,,,,,3,,,36,100
25120,note_off,,,,,64,0,9,,,,,2,,,58,100
25152,note_on,,,,,64,0,12,,,,,4,,,48,100
25152,note_on,,,,,0,0,11,,,,,4,,,67,100
25152,note_on,,,,,64,0,10,,,,,3,,,36,91
25152,note_on,,,,,64,0,11,,,,,4,,,64,100
25152,note_on,,,,,32,0,9,,,,,2,,,57,91
25216,note_off,,,,,64,0,9,,,,,2,,,57,100
25248,note_on,,,,,32,0,9,,,,,2,,,55,91
25280,note_off,,,,,128,0,11,,,,,4,,,64,100
25280,note_off,,,,,0,0,11,,,,,4,,,67,100
25280,note_off,,,,,128,0,12,,,,,4,,,48,100
25280,note_off,,,,,128,0,10,,,,,3,,,36,100
25312,note_off,,,,,64,0,9,,,,,2,,,55,100
25344,note_on,,,,,64,0,10,,,,,3,,,41,91
25344,note_on,,,,,64,0,11,,,,,4,,,57,100
25344,note_on,,,,,0,0,11,,,,,4,,,60,100
25344,note_on,,,,,64,0,12,,,,,4,,,41,100
25344,note_on,,,,,32,0,9,,,,,2,,,57,91
25408,note_off,,,,,64,0,9,,,,,2,,,57,100
25440,note_on,,,,,32,0,9,,,,,2,,,53,90
25472,note_off,,,,,0,0,11,,,,,4,,,60,100
25472,note_off,,,,,128,0,11,,,,,4,,,57,100
25472,note_off,,,,,128,0,12,,,,,4,,,41,100
25472,note_off,,,,,128,0,10,,,,,3,,,41,100
25504,note_off,,,,,64,0,9,,,,,2,,,53,100
25536,note_on,,,,,32,0,9,,,,,2,,,52,90
25536,note_on,,,,,0,0,11,,,,,4,,,60,100
25536,note_on,,,,,64,0,11,,,,,4,,,57,100
25536,note_on,,,,,64,0,12,,,,,4,,,41,100
25536,note_on,,,,,64,0,10,,,,,3,,,41,90
25600,note_off,,,,,64,0,9,,,,,2,,,52,100
25632,note_on,,,,,32,0,9,,,,,2,,,53,89
25664,note_off,,,,,0,0,11,,,,,4,,,60,100
25664,note_off,,,,,128,0,10,,,,,3,,,41,100
25664,note_off,,,,,128,0,12,,,,,4,,,41,100
25664,note_off,,,,,128,0,11,,,,,4,,,57,100
25696,note_off,,,,,64,0,9,,,,,2,,,53,100
25728,note_on,,,,,64,0,11,,,,,4,,,57,100
25728,note_on,,,,,0,0,11,,,,,4,,,60,100
25728,note_on,,,,,64,0,10,,,,,3,,,41,89
25728,note_on,,,,,64,0,12,,,,,4,,,41,100
25728,note_on,,,,,32,0,9,,,,,2,,,48,89
25792,note_off,,,,,64,0,9,,,,,2,,,48,100
25824,note_on,,,,,32,0,9,,,,,2,,,53,88
25856,note_off,,,,,128,0,10,,,,,3,,,41,100
25856,note_off,,,,,128,0,12,,,,,4,,,41,100
25856,note_off,,,,,128,0,11,,,,,4,,,57,100
25856,note_off,,,,,0,0,11,,,,,4,,,60,100
25888,note_off,,,,,64,0,9,,,,,2,,,53,100
25920,note_on,,,,,32,0,9,,,,,2,,,52,88
25920,note_on,,,,,64,0,10,,,,,3,,,41,88
25920,note_on,,,,,64,0,11,,,,,4,,,57,100
25920,note_on,,,,,64,0,12,,,,,4,,,41,100
25920,note_on,,,,,0,0,11,,,,,4,,,60,100
25984,note_off,,,,,64,0,9,,,,,2,,,52,100
26016,note_on,,,,,32,0,9,,,,,2,,,53,88
26048,note_off,,,,,128,0,10,,,,,3,,,41,100
26048,note_off,,,,,128,0,11,,,,,4,,,57,100
26048,note_off,,,,,0,0,11,,,,,4,,,60,100
26048,note_off,,,,,128,0,12,,,,,4,,,41,100
26080,note_off,,,,,64,0,9,,,,,2,,,53,100
26112,note_on,,,,,32,0,9,,,,,2,,,48,87
26112,note_on,,,,,64,0,10,,,,,3,,,41,87
26112,note_on,,,,,64,0,11,,,,,4,,,57,100
26112,note_on,,,,,0,0,11,,,,,4,,,60,100
26112,note_on,,,,,64,0,12,,,,,4,,,41,100
26176,note_off,,,,,64,0,9,,,,,2,,,48,100
26208,note_on,,,,,32,0,9,,,,,2,,,52,87
26240,note_off,,,,,128,0,10,,,,,3,,,41,100
26240,note_off,,,,,128,0,12,,,,,4,,,41,100
26240,note_off,,,,,128,0,11,,,,,4,,,57,100
26240,note_off,,,,,0,0,11,,,,,4,,,60,100
26272,note_off,,,,,64,0,9,,,,,2,,,52,100
26304,note_on,,,,,64,0,10,,,,,3,,,41,86
26304,note_on,,,,,64,0,12,,,,,4,,,41,100
26304,note_on,,,,,32,0,9,,,,,2,,,50,86
26304,note_on,,,,,64,0,11,,,,,4,,,57,100
26304,note_on,,,,,0,0,11,,,,,4,,,60,100
26368,note_off,,,,,64,0,9,,,,,2,,,50,100
26400,note_on,,,,,32,0,9,,,,,2,,,48,86
26432,note_off,,,,,128,0,10,,,,,3,,,41,100
26432,note_off,,,,,0,0,11,,,,,4,,,60,100
26432,note_off,,,,,128,0,11,,,,,4,,,57,100
26432,note_off,,,,,128,0,12,,,,,4,,,41,100
26464,note_off,,,,,64,0,9,,,,,2,,,48,100
26496,note_on,,,,,64,0,12,,,,,4,,,46,100
26496,note_on,,,,,64,0,10,,,,,3,,,34,85
26496,note_on,,,,,64,0,11,,,,,4,,,65,100
26496,note_on,,,,,32,0,9,,,,,2,,,50,85
26496,note_on,,,,,0,0,11,,,,,4,,,62,100
26560,note_off,,,,,64,0,9,,,,,2,,,50,100
26592,note_on,,,,,32,0,9,,,,,2,,,58,85
26624,note_off,,,,,128,0,12,,,,,4,,,46,100
26624,note_off,,,,,128,0,11,,,,,4,,,65,100
26624,note_off,,,,,128,0,10,,,,,3,,,34,100
26624,note_off,,,,,0,0,11,,,,,4,,,62,100
26656,note_off,,,,,64,0,9,,,,,2,,,58,100
26688,note_on,,,,,0,0,11,,,,,4,,,62,100
26688,note_on,,,,,64,0,11,,,,,4,,,65,100
26688,note_on,,,,,64,0,12,,,,,4,,,46,100
26688,note_on,,,,,64,0,10,,,,,3,,,34,86
26688,note_on,,,,,32,0,9,,,,,2,,,57,86
26752,note_off,,,,,64,0,9,,,,,2,,,57,100
26784,note_on,,,,,32,0,9,,,,,2,,,58,86
26816,note_off,,,,,0,0,11,,,,,4,,,62,100
26816,note_off,,,,,128,0,12,,,,,4,,,46,100
26816,note_off,,,,,128,0,11,,,,,4,,,65,100
26816,note_off,,,,,128,0,10,,,,,3,,,34,100
26848,note_off,,,,,64,0,9,,,,,2,,,58,100
26880,note_on,,,,,64,0,10,,,,,3,,,34,87
26880,note_on,,,,,32,0,9,,,,,2,,,53,87
26880,note_on,,,,,64,0,11,,,,,4,,,65,100
26880,note_on,,,,,0,0,11,,,,,4,,,62,100
26880,note_on,,,,,64,0,12,,,,,4,,,46,100
26944,note_off,,,,,64,0,9,,,,,2,,,53,100
26976,note_on,,,,,32,0,9,,,,,2,,,58,87
27008,note_off,,,,,128,0,11,,,,,4,,,65,100
27008,note_off,,,,,0,0,11,,,,,4,,,62,100
27008,note_off,,,,,128,0,10,,,,,3,,,34,100
27008,note_off,,,,,128,0,12,,,,,4,,,46,100
27040,note_off,,,,,64,0,9,,,,,2,,,58,100
27072,note_on,,,,,64,0,12,,,,,4,,,46,100
27072,note_on,,,,,32,0,9,,,,,2,,,57,88
27072,note_on,,,,,64,0,10,,,,,3,,,34,88
27072,note_on,,,,,0,0,11,,,,,4,,,62,100
27072,note_on,,,,,64,0,11,,,,,4,,,65,100
27136,note_off,,,,,64,0,9,,,,,2,,,57,100
27168,note_on,,,,,32,0,9,,,,,2,,,58,88
27200,note_off,,,,,0,0,11,,,,,4,,,62,100
27200,note_off,,,,,128,0,11,,,,,4,,,65,100
27200,note_off,,,,,128,0,10,,,,,3,,,34,100
27200,note_off,,,,,128,0,12,,,,,4,,,46,100
27232,note_off,,,,,64,0,9,,,,,2,,,58,100
27264,note_on,,,,,64,0,10,,,,,3,,,38,89
27264,note_on,,,,,0,0,11,,,,,4,,,65,100
27264,note_on,,,,,64,0,11,,,,,4,,,70,100
27264,note_on,,,,,32,0,9,,,,,2,,,53,89
27264,note_on,,,,,64,0,12,,,,,4,,,50,100
27328,note_off,,,,,64,0,9,,,,,2,,,53,100
27360,note_on,,,,,32,0,9,,,,,2,,,55,89
27392,note_off,,,,,128,0,10,,,,,3,,,38,100
27392,note_off,,,,,128,0,12,,,,,4,,,50,100
27392,note_off,,,,,0,0,11,,,,,4,,,65,100
27392,note_off,,,,,128,0,11,,,,,4,,,70,100
27424,note_off,,,,,64,0,9,,,,,2,,,55,100
27456,note_on,,,,,64,0,12,,,,,4,,,50,100
27456,note_on,,,,,32,0,9,,,,,2,,,57,90
27456,note_on,,,,,0,0,11,,,,,4,,,65,100
27456,note_on,,,,,64,0,10,,,,,3,,,38,90
27456,note_on,,,,,64,0,11,,,,,4,,,70,100
27520,note_off,,,,,64,0,9,,,,,2,,,57,100
27552,note_on,,,,,32,0,9,,,,,2,,,58,90
27584,note_off,,,,,128,0,10,,,,,3,,,38,100
27584,note_off,,,,,128,0,12,,,,,4,,,50,100
27584,note_off,,,,,0,0,11,,,,,4,,,65,100
27584,note_off,,,,,128,0,11,,,,,4,,,70,100
27616,note_off,,,,,64,0,9,,,,,2,,,58,100
27648,note_on,,,,,64,0,10,,,,,3,,,40,91
27648,note_on,,,,,32,0,9,,,,,2,,,55,91
27648,note_on,,,,,64,0,12,,,,,4,,,52,100
27648,note_on,,,,,64,0,11,,,,,4,,,67,100
27648,note_on,,,,,0,0,11,,,,,4,,,70,100
27712,note_off,,,,,64,0,9,,,,,2,,,55,100
27744,note_on,,,,,32,0,9,,,,,2,,,58,91
27776,note_off,,,,,128,0,11,,,,,4,,,67,100
27776,note_off,,,,,128,0,12,,,,,4,,,52,100
27776,note_off,,,,,0,0,11,,,,,4,,,70,100
27776,note_off,,,,,128,0,10,,,,,3,,,40,100
27808,note_off,,,,,64,0,9,,,,,2,,,58,100
27840,note_on,,,,,64,0,11,,,,,4,,,67,100
27840,note_on,,,,,0,0,11,,,,,4,,,70,100
27840,note_on,,,,,64,0,12,,,,,4,,,52,100
27840,note_on,,,,,32,0,9,,,,,2,,,57,92
27840,note_on,,,,,64,0,10,,,,,3,,,40,92
27904,note_off,,,,,64,0,9,,,,,2,,,57,100
27936,note_on,,,,,32,0,9,,,,,2,,,58,92
27968,note_off,,,,,128,0,10,,,,,3,,,40,100
27968,note_off,,,,,128,0,12,,,,,4,,,52,100
27968,note_off,,,,,0,0,11,,,,,4,,,70,100
27968,note_off,,,,,128,0,11,,,,,4,,,67,100
28000,note_off,,,,,64,0,9,,,,,2,,,58,100
28032,note_on,,,,,64,0,10,,,,,3,,,40,93
28032,note_on,,,,,64,0,11,,,,,4,,,67,100
28032,note_on,,,,,0,0,11,,,,,4,,,72,100
28032,note_on,,,,,32,0,9,,,,,2,,,55,93
28032,note_on,,,,,64,0,12,,,,,4,,,52,100
28096,note_off,,,,,64,0,9,,,,,2,,,55,100
28128,note_on,,,,,32,0,9,,,,,2,,,60,93
28160,note_off,,,,,128,0,11,,,,,4,,,67,100
28160,note_off,,,,,128,0,10,,,,,3,,,40,100
28160,note_off,,,,,128,0,12,,,,,4,,,52,100
28160,note_off,,,,,0,0,11,,,,,4,,,72,100
28192,note_off,,,,,64,0,9,,,,,2,,,60,100
28224,note_on,,,,,64,0,10,,,,,3,,,40,94
28224,note_on,,,,,32,0,9,,,,,2,,,58,94
28224,note_on,,,,,0,0,11,,,,,4,,,72,100
28224,note_on,,,,,64,0,11,,,,,4,,,67,100
28224,note_on,,,,,64,0,12,,,,,4,,,52,100
28288,note_off,,,,,64,0,9,,,,,2,,,58,100
28320,note_on,,,,,32,0,9,,,,,2,,,60,94
28352,note_off,,,,,128,0,12,,,,,4,,,52,100
28352,note_off,,,,,0,0,11,,,,,4,,,72,100
28352,note_off,,,,,128,0,11,,,,,4,,,67,100
28352,note_off,,,,,128,0,10,,,,,3,,,40,100
28384,note_off,,,,,64,0,9,,,,,2,,,60,100
28416,note_on,,,,,64,0,10,,,,,3,,,40,95
28416,note_on,,,,,0,0,11,,,,,4,,,72,100
28416,note_on,,,,,32,0,9,,,,,2,,,55,95
28416,note_on,,,,,64,0,11,,,,,4,,,67,100
28416,note_on,,,,,64,0,12,,,,,4,,,52,100
28480,note_off,,,,,64,0,9,,,,,2,,,55,100
28512,note_on,,,,,32,0,9,,,,,2,,,57,95
28544,note_off,,,,,0,0,11,,,,,4,,,72,100
28544,note_off,,,,,128,0,11,,,,,4,,,67,100
28544,note_off,,,,,128,0,10,,,,,3,,,40,100
28544,note_off,,,,,128,0,12,,,,,4,,,52,100
28576,note_off,,,,,64,0,9,,,,,2,,,57,100
28608,note_on,,,,,0,0,11,,,,,4,,,72,100
28608,note_on,,,,,64,0,12,,,,,4,,,52,100
28608,note_on,,,,,64,0,10,,,,,3,,,40,96
28608,note_on,,,,,32,0,9,,,,,2,,,58,96
28608,note_on,,,,,64,0,11,,,,,4,,,67,100
28672,note_off,,,,,64,0,9,,,,,2,,,58,100
28704,note_on,,,,,32,0,9,,,,,2,,,60,96
28736,note_off,,,,,128,0,12,,,,,4,,,52,100
28736,note_off,,,,,128,0,11,,,,,4,,,67,100
28736,note_off,,,,,0,0,11,,,,,4,,,72,100
28736,note_off,,,,,128,0,10,,,,,3,,,40,100
28768,note_off,,,,,64,0,9,,,,,2,,,60,100
28800,note_on,,,,,64,0,10,,,,,3,,,41,97
28800,note_on,,,,,64,0,12,,,,,4,,,53,100
28800,note_on,,,,,32,0,9,,,,,2,,,57,97
28800,note_on,,,,,64,0,11,,,,,4,,,69,100
28800,note_on,,,,,0,0,11,,,,,4,,,72,100
28864,note_off,,,,,64,0,9,,,,,2,,,57,100
28896,note_on,,,,,32,0,9,,,,,2,,,60,98
28928,note_off,,,,,128,0,10,,,,,3,,,41,100
28928,note_off,,,,,128,0,12,,,,,4,,,53,100
28928,note_off,,,,,128,0,11,,,,,4,,,69,100
28928,note_off,,,,,0,0,11,,,,,4,,,72,100
28960,note_off,,,,,64,0,9,,,,,2,,,60,100
28992,note_on,,,,,64,0,12,,,,,4,,,53,100
28992,note_on,,,,,0,0,11,,,,,4,,,72,100
28992,note_on,,,,,32,0,9,,,,,2,,,58,98
28992,note_on,,,,,64,0,11,,,,,4,,,69,100
28992,note_on,,,,,64,0,10,,,,,3,,,41,98
29056,note_off,,,,,64,0,9,,,,,2,,,58,100
29088,note_on,,,,,32,0,9,,,,,2,,,60,99
29120,note_off,,,,,0,0,11,,,,,4,,,72,100
29120,note_off,,,,,128,0,11,,,,,4,,,69,100
29120,note_off,,,,,128,0,12,,,,,4,,,53,100
29120,note_off,,,,,128,0,10,,,,,3,,,41,100
29152,note_off,,,,,64,0,9,,,,,2,,,60,100
29184,note_on,,,,,0,0,11,,,,,4,,,74,100
29184,note_on,,,,,64,0,12,,,,,4,,,54,100
29184,note_on,,,,,64,0,11,,,,,4,,,69,100
29184,note_on,,,,,64,0,10,,,,,3,,,42,99
29184,note_on,,,,,32,0,9,,,,,2,,,57,99
29248,note_off,,,,,64,0,9,,,,,2,,,57,100
29280,note_on,,,,,32,0,9,,,,,2,,,62,100
29312,note_off,,,,,0,0,11,,,,,4,,,74,100
29312,note_off,,,,,128,0,11,,,,,4,,,69,100
29312,note_off,,,,,128,0,10,,,,,3,,,42,100
29312,note_off,,,,,128,0,12,,,,,4,,,54,100
29344,note_off,,,,,64,0,9,,,,,2,,,62,100
29376,note_on,,,,,64,0,10,,,,,3,,,42,100
29376,note_on,,,,,32,0,9,,,,,2,,,60,100
29376,note_on,,,,,64,0,12,,,,,4,,,54,100
29376,note_on,,,,,64,0,11,,,,,4,,,69,100
29376,note_on,,,,,0,0,11,,,,,4,,,74,100
29440,note_off,,,,,64,0,9,,,,,2,,,60,100
29472,note_on,,,,,32,0,9,,,,,2,,,62,101
29504,note_off,,,,,0,0,11,,,,,4,,,74,100
29504,note_off,,,,,128,0,11,,,,,4,,,69,100
29504,note_off,,,,,128,0,12,,,,,4,,,54,100
29504,note_off,,,,,128,0,10,,,,,3,,,42,100
29536,note_off,,,,,64,0,9,,,,,2,,,62,100
29568,note_on,,,,,0,0,11,,,,,4,,,74,100
29568,note_on,,,,,64,0,11,,,,,4,,,69,100
29568,note_on,,,,,64,0,12,,,,,4,,,54,100
29568,note_on,,,,,32,0,9,,,,,2,,,57,101
29568,note_on,,,,,64,0,10,,,,,3,,,42,101
29632,note_off,,,,,64,0,9,,,,,2,,,57,100
29664,note_on,,,,,32,0,9,,,,,2,,,59,102
29696,note_off,,,,,128,0,12,,,,,4,,,54,100
29696,note_off,,,,,128,0,10,,,,,3,,,42,100
29696,note_off,,,,,128,0,11,,,,,4,,,69,100
29696,note_off,,,,,0,0,11,,,,,4,,,74,100
29728,note_off,,,,,64,0,9,,,,,2,,,59,100
29760,note_on,,,,,32,0,9,,,,,2,,,60,102
29760,note_on,,,,,64,0,11,,,,,4,,,69,100
29760,note_on,,,,,64,0,12,,,,,4,,,54,100
29760,note_on,,,,,0,0,11,,,,,4,,,74,100
29760,note_on,,,,,64,0,10,,,,,3,,,42,102
29824,note_off,,,,,64,0,9,,,,,2,,,60,100
29856,note_on,,,,,32,0,9,,,,,2,,,62,103
29888,note_off,,,,,128,0,10,,,,,3,,,42,100
29888,note_off,,,,,0,0,11,,,,,4,,,74,100
29888,note_off,,,,,128,0,11,,,,,4,,,69,100
29888,note_off,,,,,128,0,12,,,,,4,,,54,100
29920,note_off,,,,,64,0,9,,,,,2,,,62,100
29952,note_on,,,,,64,0,10,,,,,3,,,43,103
29952,note_on,,,,,0,0,11,,,,,4,,,74,100
29952,note_on,,,,,64,0,11,,,,,4,,,71,100
29952,note_on,,,,,32,0,9,,,,,2,,,59,103
29952,note_on,,,,,64,0,12,,,,,4,,,55,100
30016,note_off,,,,,64,0,9,,,,,2,,,59,100
30048,note_on,,,,,32,0,9,,,,,2,,,62,104
30080,note_off,,,,,128,0,12,,,,,4,,,55,100
30080,note_off,,,,,0,0,11,,,,,4,,,74,100
30080,note_off,,,,,128,0,11,,,,,4,,,71,100
30080,note_off,,,,,128,0,10,,,,,3,,,43,100
30112,note_off,,,,,64,0,9,,,,,2,,,62,100
30144,note_on,,,,,0,0,11,,,,,4,,,74,100
30144,note_on,,,,,64,0,11,,,,,4,,,71,100
30144,note_on,,,,,32,0,9,,,,,2,,,60,104
30144,note_on,,,,,64,0,12,,,,,4,,,55,100
30144,note_on,,,,,64,0,10,,,,,3,,,43,104
30208,note_off,,,,,64,0,9,,,,,2,,,60,100
30240,note_on,,,,,32,0,9,,,,,2,,,62,105
30272,note_off,,,,,128,0,10,,,,,3,,,43,100
30272,note_off,,,,,0,0,11,,,,,4,,,74,100
30272,note_off,,,,,128,0,12,,,,,4,,,55,100
30272,note_off,,,,,128,0,11,,,,,4,,,71,100
30304,note_off,,,,,64,0,9,,,,,2,,,62,100
30336,note_on,,,,,64,0,12,,,,,4,,,56,100
30336,note_on,,,,,0,0,11,,,,,4,,,76,100
30336,note_on,,,,,32,0,9,,,,,2,,,59,105
30336,note_on,,,,,64,0,10,,,,,3,,,44,105
30336,note_on,,,,,64,0,11,,,,,4,,,71,100
30400,note_off,,,,,64,0,9,,,,,2,,,59,100
30432,note_on,,,,,32,0,9,,,,,2,,,64,106
30464,note_off,,,,,128,0,10,,,,,3,,,44,100
30464,note_off,,,,,128,0,11,,,,,4,,,71,100
30464,note_off,,,,,128,0,12,,,,,4,,,56,100
30464,note_off,,,,,0,0,11,,,,,4,,,76,100
30496,note_off,,,,,64,0,9,,,,,2,,,64,100
30528,note_on,,,,,64,0,10,,,,,3,,,44,106
30528,note_on,,,,,64,0,12,,,,,4,,,56,100
30528,note_on,,,,,64,0,11,,,,,4,,,71,100
30528,note_on,,,,,0,0,11,,,,,4,,,76,100
30528,note_on,,,,,32,0,9,,,,,2,,,62,106
30592,note_off,,,,,64,0,9,,,,,2,,,62,100
30624,note_on,,,,,32,0,9,,,,,2,,,64,107
30656,note_off,,,,,128,0,12,,,,,4,,,56,100
30656,note_off,,,,,128,0,10,,,,,3,,,44,100
30656,note_off,,,,,0,0,11,,,,,4,,,76,100
30656,note_off,,,,,128,0,11,,,,,4,,,71,100
30688,note_off,,,,,64,0,9,,,,,2,,,64,100
30720,note_on,,,,,64,0,11,,,,,4,,,71,100
30720,note_on,,,,,0,0,11,,,,,4,,,76,100
30720,note_on,,,,,32,0,9,,,,,2,,,59,107
30720,note_on,,,,,64,0,10,,,,,3,,,44,107
30720,note_on,,,,,64,0,12,,,,,4,,,56,100
30784,note_off,,,,,64,0,9,,,,,2,,,59,100
30816,note_on,,,,,32,0,9,,,,,2,,,61,108
30848,note_off,,,,,128,0,10,,,,,3,,,44,100
30848,note_off,,,,,128,0,12,,,,,4,,,56,100
30848,note_off,,,,,128,0,11,,,,,4,,,71,100
30848,note_off,,,,,0,0,11,,,,,4,,,76,100
30880,note_off,,,,,64,0,9,,,,,2,,,61,100
30912,note_on,,,,,32,0,9,,,,,2,,,62,108
30912,note_on,,,,,64,0,12,,,,,4,,,56,100
30912,note_on,,,,,64,0,10,,,,,3,,,44,108
30912,note_on,,,,,64,0,11,,,,,4,,,71,100
30912,note_on,,,,,0,0,11,,,,,4,,,76,100
30976,note_off,,,,,64,0,9,,,,,2,,,62,100
31008,note_on,,,,,32,0,9,,,,,2,,,64,109
31040,note_off,,,,,128,0,10,,,,,3,,,44,100
31040,note_off,,,,,0,0,11,,,,,4,,,76,100
31040,note_off,,,,,128,0,11,,,,,4,,,71,100
31040,note_off,,,,,128,0,12,,,,,4,,,56,100
31072,note_off,,,,,64,0,9,,,,,2,,,64,100
31104,note_on,,,,,64,0,12,,,,,4,,,57,100
31104,note_on,,,,,64,0,10,,,,,3,,,45,110
31104,note_on,,,,,64,0,11,,,,,4,,,73,100
31104,note_on,,,,,0,0,11,,,,,4,,,76,100
31104,note_on,,,,,32,0,9,,,,,2,,,61,110
31232,note_off,,,,,128,0,9,,,,,2,,,61,100
31296,note_on,,,,,64,0,9,,,,,2,,,57,110
31360,note_off,,,,,256,0,10,,,,,3,,,45,100
31360,note_off,,,,,256,0,12,,,,,4,,,57,100
31360,note_off,,,,,256,0,11,,,,,4,,,73,100
31360,note_off,,,,,0,0,11,,,,,4,,,76,100
31424,note_off,,,,,128,0,9,,,,,2,,,57,100
31488,note_on,,,,,0,0,11,,,,,4,,,69,100
31488,note_on,,,,,64,0,9,,,,,2,,,62,110
31488,note_on,,,,,128,0,10,,,,,3,,,38,110
31488,note_on,,,,,128,0,11,,,,,4,,,65,100
31488,note_on,,,,,128,0,12,,,,,4,,,50,100
31616,note_off,,,,,128,0,9,,,,,2,,,62,100
31680,note_on,,,,,64,0,9,,,,,2,,,53,110
31744,note_off,,,,,256,0,12,,,,,4,,,50,100
31744,note_off,,,,,256,0,11,,,,,4,,,65,100
31744,note_off,,,,,0,0,11,,,,,4,,,69,100
31744,note_off,,,,,256,0,10,,,,,3,,,38,100
31808,note_off,,,,,128,0,9,,,,,2,,,53,100
31872,note_on,,,,,0,0,11,,,,,4,,,64,100
31872,note_on,,,,,128,0,12,,,,,4,,,45,100
31872,note_on,,,,,64,0,9,,,,,2,,,45,110
31872,note_on,,,,,128,0,11,,,,,4,,,61,100
31872,note_on,,,,,128,0,10,,,,,3,,,33,110
32000,note_off,,,,,128,0,9,,,,,2,,,45,100
32064,note_on,,,,,64,0,9,,,,,2,,,61,110
32128,note_off,,,,,256,0,11,,,,,4,,,61,100
32128,note_off,,,,,0,0,11,,,,,4,,,64,100
32128,note_off,,,,,256,0,10,,,,,3,,,33,100
32128,note_off,,,,,256,0,12,,,,,4,,,45,100
32192,note_off,,,,,128,0,9,,,,,2,,,61,100
32256,note_on,,,,,128,0,10,,,,,3,,,38,110
32256,note_on,,,,,128,0,11,,,,,4,,,62,100
32256,note_on,,,,,0,0,11,,,,,4,,,65,100
32256,note_on,,,,,0,0,11,,,,,4,,,69,100
32256,note_on,,,,,128,0,12,,,,,4,,,50,100
32256,note_on,,,,,64,0,9,,,,,2,,,62,110
32384,note_off,,,,,128,0,9,,,,,2,,,62,100
32448,note_on,,,,,64,0,9,,,,,2,,,57,110
32512,note_off,,,,,256,0,11,,,,,4,,,62,100
32512,note_off,,,,,0,0,11,,,,,4,,,69,100
32512,note_off,,,,,256,0,12,,,,,4,,,50,100
32512,note_off,,,,,256,0,10,,,,,3,,,38,100
32512,note_off,,,,,0,0,11,,,,,4,,,65,100
32576,note_off,,,,,128,0,9,,,,,2,,,57,100
32640,note_on,,,,,64,0,9,,,,,2,,,62,109
32768,note_off,,,,,128,0,9,,,,,2,,,62,100
32832,note_on,,,,,64,0,9,,,,,2,,,60,108
32896,note_off,,,,,64,0,9,,,,,2,,,60,100
32928,note_on,,,,,32,0,9,,,,,2,,,58,107
32992,note_off,,,,,64,0,9,,,,,2,,,58,100
33024,note_on,,,,,32,0,9,,,,,2,,,57,106
33088,note_off,,,,,64,0,9,,,,,2,,,57,100
33120,note_on,,,,,32,0,9,,,,,2,,,55,106
33184,note_off,,,,,64,0,9,,,,,2,,,55,100
33216,note_on,,,,,32,0,9,,,,,2,,,53,105
33280,note_off,,,,,64,0,9,,,,,2,,,53,100
33312,note_on,,,,,32,0,9,,,,,2,,,52,104
33376,note_off,,,,,64,0,9,,,,,2,,,52,100
33408,note_on,,,,,896,0,11,,,,,4,,,69,100
33408,note_on,,,,,0,0,11,,,,,4,,,65,100
33408,set_tempo,,,,,26496,1,0,,500000,,,,,,,
33408,note_on,,,,,896,0,10,,,,,3,,,38,104
33408,note_on,,,,,896,0,12,,,,,4,,,50,100
33408,note_on,,,,,32,0,9,,,,,2,,,50,104
33504,set_tempo,,,,,96,1,0,,504201,,,,,,,
33536,note_off,,,,,128,0,9,,,,,2,,,50,100
33600,note_on,,,,,64,0,9,,,,,2,,,45,102
33600,set_tempo,,,,,96,1,0,,508474,,,,,,,
33664,note_off,,,,,0,0,11,,,,,4,,,65,100
33664,note_off,,,,,256,0,12,,,,,4,,,50,100
33664,note_off,,,,,256,0,10,,,,,3,,,38,100
33664,note_off,,,,,256,0,11,,,,,4,,,69,100
33696,set_tempo,,,,,96,1,0,,512820,,,,,,,
33728,note_off,,,,,128,0,9,,,,,2,,,45,100
33792,set_tempo,,,,,96,1,0,,517241,,,,,,,
33792,note_on,,,,,64,0,9,,,,,2,,,50,101
33888,set_tempo,,,,,96,1,0,,521739,,,,,,,
33920,note_off,,,,,128,0,9,,,,,2,,,50,100
33984,note_on,,,,,64,0,9,,,,,2,,,48,100
33984,set_tempo,,,,,96,1,0,,526315,,,,,,,
34048,note_off,,,,,64,0,9,,,,,2,,,48,100
34080,note_on,,,,,32,0,9,,,,,2,,,46,99
34080,set_tempo,,,,,96,1,0,,530973,,,,,,,
34144,note_off,,,,,64,0,9,,,,,2,,,46,100
34176,set_tempo,,,,,96,1,0,,535714,,,,,,,
34176,note_on,,,,,32,0,9,,,,,2,,,45,98
34240,note_off,,,,,64,0,9,,,,,2,,,45,100
34272,set_tempo,,,,,96,1,0,,540540,,,,,,,
34272,note_on,,,,,32,0,9,,,,,2,,,43,98
34336,note_off,,,,,64,0,9,,,,,2,,,43,100
34368,set_tempo,,,,,96,1,0,,545454,,,,,,,
34368,note_on,,,,,32,0,9,,,,,2,,,41,97
34432,note_off,,,,,64,0,9,,,,,2,,,41,100
34464,set_tempo,,,,,96,1,0,,550458,,,,,,,
34464,note_on,,,,,32,0,9,,,,,2,,,40,96
34528,note_off,,,,,64,0,9,,,,,2,,,40,100
34560,note_on,,,,,896,0,12,,,,,4,,,38,100
34560,end_of_track,,,,,0,1,0,,,,,,,,,
34560,note_on,,,,,896,0,11,,,,,4,,,62,100
34560,note_on,,,,,32,0,9,,,,,2,,,38,96
34560,note_on,,,,,896,0,10,,,,,3,,,38,96
34560,set_tempo,,,,,96,1,0,,750000,,,,,,,
35328,note_off,,,,,768,0,11,,,,,4,,,62,100
35328,note_off,,,,,768,0,9,,,,,2,,,38,100
35328,end_of_track,,,,,0,1,9,,,,,,,,,
35328,note_off,,,,,768,0,10,,,,,3,,,38,100
35328,end_of_track,,,,,0,1,10,,,,,,,,,
35328,note_off,,,,,768,0,12,,,,,4,,,38,100
35328,end_of_track,,,,,0,1,11,,,,,,,,,
35328,end_of_track,,,,,0,1,12,,,,,,,,,
36668,program_change,,,,,14268,0,7,,,,,0,40,,,
36668,end_of_track,,,,,0,1,7,,,,,,,,,
