tick,type,numerator,denominator,clocks_per_click,notated_32nd_notes_per_beat,time,meta,track,data,tempo,control,value,channel,program,key,note,velocity
0,time_signature,4,4,96,8,0,1,0,,,,,,,,,
0,control_change,,,,,0,0,14,,,7,45,6,,,,
0,program_change,,,,,0,0,14,,,,,6,6,,,
0,control_change,,,,,0,0,14,,,0,0,6,,,,
0,track_name,,,,,0,1,14,,,,,,,,,
0,note_on,,,,,0,0,13,,,,,6,,,64,80
0,note_on,,,,,0,0,13,,,,,6,,,67,80
0,control_change,,,,,0,0,14,,,10,77,6,,,,
0,note_on,,,,,0,0,13,,,,,6,,,71,80
0,control_change,,,,,0,0,13,,,91,107,6,,,,
0,control_change,,,,,0,0,9,,,0,0,2,,,,
0,control_change,,,,,0,0,13,,,7,45,6,,,,
0,program_change,,,,,0,0,13,,,,,6,6,,,
0,control_change,,,,,0,0,13,,,0,0,6,,,,
0,track_name,,,,,0,1,13,,,,,,,,,
0,key_signature,,,,,0,1,13,,,,,,,Em,,
0,note_on,,,,,0,0,12,,,,,5,,,40,85
0,control_change,,,,,0,0,14,,,91,107,6,,,,
0,note_on,,,,,0,0,14,,,,,6,,,52,80
0,control_change,,,,,0,0,16,,,91,105,7,,,,
0,control_change,,,,,0,0,16,,,7,45,7,,,,
0,program_change,,,,,0,0,16,,,,,7,19,,,
0,control_change,,,,,0,0,16,,,0,0,7,,,,
0,track_name,,,,,0,1,16,,,,,,,,,
0,note_on,,,,,0,0,15,,,,,7,,,64,80
0,key_signature,,,,,0,1,14,,,,,,,Em,,
0,note_on,,,,,0,0,15,,,,,7,,,67,80
0,key_signature,,,,,0,1,15,,,,,,,Em,,
0,control_change,,,,,0,0,15,,,91,105,7,,,,
0,control_change,,,,,0,0,15,,,7,45,7,,,,
0,program_change,,,,,0,0,15,,,,,7,19,,,
0,control_change,,,,,0,0,15,,,0,0,7,,,,
0,track_name,,,,,0,1,15,,,,,,,,,
0,note_on,,,,,0,0,15,,,,,7,,,71,80
0,key_signature,,,,,0,1,12,,,,,,,Em,,
0,control_change,,,,,0,0,12,,,91,108,5,,,,
0,control_change,,,,,0,0,12,,,10,90,5,,,,
0,note_on,,,,,0,0,9,,,,,2,,,76,85
0,key_signature,,,,,0,1,9,,,,,,,Em,,
0,control_change,,,,,0,0,9,,,91,108,2,,,,
0,track_name,,,,,0,1,8,,,,,,,,,
0,control_change,,,,,0,0,8,,,0,0,1,,,,
0,program_change,,,,,0,0,8,,,,,1,49,,,
0,track_name,,,,,0,1,10,,,,,,,,,
0,control_change,,,,,0,0,8,,,7,100,1,,,,
0,control_change,,,,,0,0,8,,,91,107,1,,,,
0,key_signature,,,,,0,1,8,,,,,,,Em,,
0,note_on,,,,,0,0,8,,,,,1,,,79,85
0,control_change,,,,,0,0,9,,,10,36,2,,,,
0,control_change,,,,,0,0,9,,,7,96,2,,,,
0,program_change,,,,,0,0,9,,,,,2,49,,,
0,control_change,,,,,0,0,8,,,10,49,1,,,,
0,control_change,,,,,0,0,10,,,0,0,3,,,,
0,program_change,,,,,0,0,10,,,,,3,49,,,
0,control_change,,,,,0,0,10,,,7,92,3,,,,
0,control_change,,,,,0,0,12,,,7,72,5,,,,
0,program_change,,,,,0,0,12,,,,,5,49,,,
0,control_change,,,,,0,0,12,,,0,0,5,,,,
0,track_name,,,,,0,1,12,,,,,,,,,
0,note_on,,,,,0,0,11,,,,,4,,,52,85
0,key_signature,,,,,0,1,11,,,,,,,Em,,
0,control_change,,,,,0,0,11,,,91,107,4,,,,
0,control_change,,,,,0,0,11,,,10,79,4,,,,
0,control_change,,,,,0,0,11,,,7,82,4,,,,
0,program_change,,,,,0,0,11,,,,,4,49,,,
0,control_change,,,,,0,0,11,,,0,0,4,,,,
0,track_name,,,,,0,1,11,,,,,,,,,
0,note_on,,,,,0,0,10,,,,,3,,,59,85
0,key_signature,,,,,0,1,10,,,,,,,Em,,
0,control_change,,,,,0,0,10,,,91,108,3,,,,
0,key_signature,,,,,0,1,16,,,,,,,Em,,
0,note_on,,,,,0,0,16,,,,,7,,,52,80
0,control_change,,,,,0,0,13,,,10,77,6,,,,
0,track_name,,,,,0,1,9,,,,,,,,,
0,control_change,,,,,0,0,6,,,0,0,0,,,,
0,program_change,,,,,0,0,6,,,,,0,40,,,
0,control_change,,,,,0,0,6,,,7,100,0,,,,
0,control_change,,,,,0,0,6,,,91,107,0,,,,
0,key_signature,,,,,0,1,6,,,,,,,Em,,
0,end_of_track,,,,,0,1,6,,,,,,,,,
0,control_change,,,,,0,0,3,,,0,0,0,,,,
0,track_name,,,,,0,1,3,,,,,,,,,
0,end_of_track,,,,,0,1,2,,,,,,,,,
0,track_name,,,,,0,1,2,,,,,,,,,
0,track_name,,,,,0,1,1,,,,,,,,,
0,track_name,,,,,0,1,7,,,,,,,,,
0,control_change,,,,,0,0,7,,,0,0,0,,,,
0,program_change,,,,,0,0,7,,,,,0,40,,,
0,control_change,,,,,0,0,7,,,7,100,0,,,,
0,track_name,,,,,0,1,6,,,,,,,,,
0,end_of_track,,,,,0,1,5,,,,,,,,,
0,control_change,,,,,0,0,3,,,7,100,0,,,,
0,control_change,,,,,0,0,3,,,91,107,0,,,,
0,key_signature,,,,,0,1,5,,,,,,,Em,,
0,control_change,,,,,0,0,5,,,91,107,0,,,,
0,control_change,,,,,0,0,5,,,7,100,0,,,,
0,program_change,,,,,0,0,5,,,,,0,40,,,
0,control_change,,,,,0,0,5,,,0,0,0,,,,
0,track_name,,,,,0,1,5,,,,,,,,,
0,end_of_track,,,,,0,1,4,,,,,,,,,
0,control_change,,,,,0,0,7,,,91,107,0,,,,
0,key_signature,,,,,0,1,4,,,,,,,Em,,
0,control_change,,,,,0,0,4,,,7,100,0,,,,
0,program_change,,,,,0,0,4,,,,,0,40,,,
0,control_change,,,,,0,0,4,,,0,0,0,,,,
0,track_name,,,,,0,1,4,,,,,,,,,
0,end_of_track,,,,,0,1,3,,,,,,,,,
0,key_signature,,,,,0,1,3,,,,,,,Em,,
0,program_change,,,,,0,0,3,,,,,0,40,,,
0,control_change,,,,,0,0,4,,,91,107,0,,,,
0,key_signature,,,,,0,1,7,,,,,,,Em,,
0,end_of_track,,,,,0,1,1,,,,,,,,,
0,set_tempo,,,,,0,1,0,,2000000,,,,,,,
0,sequencer_specific,,,,,0,1,0,"(0, 0, 119, 14, 1)",,,,,,,,
0,sequencer_specific,,,,,0,1,0,"(0, 0, 65)",,,,,,,,
128,note_off,,,,,128,0,9,,,,,2,,,76,100
128,note_off,,,,,128,0,11,,,,,4,,,52,100
128,note_off,,,,,128,0,16,,,,,7,,,52,100
128,note_off,,,,,128,0,8,,,,,1,,,79,100
128,note_off,,,,,128,0,10,,,,,3,,,59,100
128,note_off,,,,,128,0,12,,,,,5,,,40,100
128,note_off,,,,,128,0,14,,,,,6,,,52,100
192,note_on,,,,,64,0,16,,,,,7,,,52,80
192,note_on,,,,,64,0,12,,,,,5,,,40,75
192,note_on,,,,,64,0,14,,,,,6,,,52,80
192,note_on,,,,,64,0,10,,,,,3,,,59,75
192,note_on,,,,,64,0,11,,,,,4,,,52,75
192,note_on,,,,,64,0,8,,,,,1,,,79,75
192,note_on,,,,,64,0,9,,,,,2,,,76,75
256,note_off,,,,,256,0,13,,,,,6,,,71,100
256,note_off,,,,,0,0,13,,,,,6,,,67,100
256,note_off,,,,,0,0,15,,,,,7,,,64,100
256,note_off,,,,,0,0,15,,,,,7,,,67,100
256,note_off,,,,,256,0,15,,,,,7,,,71,100
256,note_off,,,,,0,0,13,,,,,6,,,64,100
320,note_off,,,,,128,0,16,,,,,7,,,52,100
320,note_off,,,,,128,0,11,,,,,4,,,52,100
320,note_off,,,,,128,0,14,,,,,6,,,52,100
320,note_off,,,,,128,0,9,,,,,2,,,76,100
320,note_off,,,,,128,0,10,,,,,3,,,59,100
320,note_off,,,,,128,0,8,,,,,1,,,79,100
320,note_off,,,,,128,0,12,,,,,5,,,40,100
384,note_on,,,,,64,0,10,,,,,3,,,59,55
384,note_on,,,,,64,0,11,,,,,4,,,52,55
384,note_on,,,,,64,0,9,,,,,2,,,64,55
384,note_on,,,,,64,0,16,,,,,7,,,52,80
384,note_on,,,,,64,0,14,,,,,6,,,52,80
384,note_on,,,,,64,0,8,,,,,1,,,67,55
384,note_on,,,,,128,0,13,,,,,6,,,55,80
512,note_off,,,,,128,0,16,,,,,7,,,52,100
512,note_off,,,,,128,0,10,,,,,3,,,59,100
512,note_off,,,,,128,0,9,,,,,2,,,64,100
512,note_off,,,,,128,0,11,,,,,4,,,52,100
512,note_off,,,,,128,0,14,,,,,6,,,52,100
512,note_off,,,,,128,0,8,,,,,1,,,67,100
576,note_on,,,,,64,0,8,,,,,1,,,67,55
576,note_on,,,,,64,0,9,,,,,2,,,64,55
576,note_on,,,,,64,0,16,,,,,7,,,52,80
576,note_on,,,,,64,0,10,,,,,3,,,59,55
576,note_on,,,,,64,0,11,,,,,4,,,52,55
576,note_on,,,,,64,0,14,,,,,6,,,52,80
640,note_off,,,,,256,0,13,,,,,6,,,55,100
704,note_off,,,,,128,0,14,,,,,6,,,52,100
704,note_off,,,,,128,0,9,,,,,2,,,64,100
704,note_off,,,,,128,0,10,,,,,3,,,59,100
704,note_off,,,,,128,0,8,,,,,1,,,67,100
704,note_off,,,,,128,0,16,,,,,7,,,52,100
704,note_off,,,,,128,0,11,,,,,4,,,52,100
768,note_on,,,,,64,0,8,,,,,1,,,78,85
768,note_on,,,,,448,0,12,,,,,5,,,35,85
768,note_on,,,,,64,0,16,,,,,7,,,47,80
768,note_on,,,,,128,0,13,,,,,6,,,59,80
768,note_on,,,,,64,0,14,,,,,6,,,47,80
768,note_on,,,,,0,0,13,,,,,6,,,64,80
768,note_on,,,,,512,0,15,,,,,7,,,59,80
768,note_on,,,,,64,0,10,,,,,3,,,59,85
768,note_on,,,,,64,0,9,,,,,2,,,76,85
768,note_on,,,,,0,0,15,,,,,7,,,64,80
768,note_on,,,,,0,0,15,,,,,7,,,66,80
768,note_on,,,,,0,0,13,,,,,6,,,66,80
768,note_on,,,,,64,0,11,,,,,4,,,47,85
896,note_off,,,,,128,0,8,,,,,1,,,78,100
896,note_off,,,,,128,0,12,,,,,5,,,35,100
896,note_off,,,,,128,0,11,,,,,4,,,47,100
896,note_off,,,,,128,0,16,,,,,7,,,47,100
896,note_off,,,,,128,0,9,,,,,2,,,76,100
896,note_off,,,,,128,0,14,,,,,6,,,47,100
896,note_off,,,,,128,0,10,,,,,3,,,59,100
960,note_on,,,,,64,0,12,,,,,5,,,35,75
960,note_on,,,,,64,0,16,,,,,7,,,47,80
960,note_on,,,,,64,0,9,,,,,2,,,76,75
960,note_on,,,,,64,0,10,,,,,3,,,59,75
960,note_on,,,,,64,0,14,,,,,6,,,47,80
960,note_on,,,,,64,0,11,,,,,4,,,47,75
960,note_on,,,,,64,0,8,,,,,1,,,78,75
1024,note_off,,,,,256,0,13,,,,,6,,,59,100
1024,note_off,,,,,0,0,13,,,,,6,,,64,100
1024,note_off,,,,,0,0,15,,,,,7,,,66,100
1024,note_off,,,,,0,0,13,,,,,6,,,66,100
1024,note_off,,,,,0,0,15,,,,,7,,,64,100
1024,note_off,,,,,256,0,15,,,,,7,,,59,100
1088,note_off,,,,,128,0,16,,,,,7,,,47,100
1088,note_off,,,,,128,0,11,,,,,4,,,47,100
1088,note_off,,,,,128,0,12,,,,,5,,,35,100
1088,note_off,,,,,128,0,9,,,,,2,,,76,100
1088,note_off,,,,,128,0,14,,,,,6,,,47,100
1088,note_off,,,,,128,0,8,,,,,1,,,78,100
1088,note_off,,,,,128,0,10,,,,,3,,,59,100
1152,note_on,,,,,64,0,16,,,,,7,,,47,80
1152,note_on,,,,,64,0,11,,,,,4,,,47,55
1152,note_on,,,,,64,0,14,,,,,6,,,47,80
1152,note_on,,,,,64,0,10,,,,,3,,,59,55
1152,note_on,,,,,64,0,8,,,,,1,,,66,55
1152,note_on,,,,,64,0,9,,,,,2,,,64,55
1152,note_on,,,,,128,0,13,,,,,6,,,54,80
1280,note_off,,,,,128,0,10,,,,,3,,,59,100
1280,note_off,,,,,128,0,16,,,,,7,,,47,100
1280,note_off,,,,,128,0,11,,,,,4,,,47,100
1280,note_off,,,,,128,0,9,,,,,2,,,64,100
1280,note_off,,,,,128,0,8,,,,,1,,,66,100
1280,note_off,,,,,128,0,14,,,,,6,,,47,100
1344,note_on,,,,,64,0,14,,,,,6,,,47,80
1344,note_on,,,,,64,0,9,,,,,2,,,64,55
1344,note_on,,,,,64,0,11,,,,,4,,,47,55
1344,note_on,,,,,64,0,8,,,,,1,,,66,55
1344,note_on,,,,,64,0,10,,,,,3,,,59,55
1344,note_on,,,,,64,0,16,,,,,7,,,47,80
1408,note_off,,,,,256,0,13,,,,,6,,,54,100
1472,note_off,,,,,128,0,9,,,,,2,,,64,100
1472,note_off,,,,,128,0,10,,,,,3,,,59,100
1472,note_off,,,,,128,0,8,,,,,1,,,66,100
1472,note_off,,,,,128,0,11,,,,,4,,,47,100
1472,note_off,,,,,128,0,16,,,,,7,,,47,100
1472,note_off,,,,,128,0,14,,,,,6,,,47,100
1536,note_on,,,,,0,0,13,,,,,6,,,62,80
1536,note_on,,,,,64,0,8,,,,,1,,,80,85
1536,set_tempo,,,,,1536,1,0,,2000000,,,,,,,
1536,note_on,,,,,0,0,15,,,,,7,,,68,80
1536,note_on,,,,,0,0,15,,,,,7,,,62,80
1536,note_on,,,,,512,0,15,,,,,7,,,59,80
1536,note_on,,,,,64,0,9,,,,,2,,,74,85
1536,note_on,,,,,128,0,13,,,,,6,,,59,80
1536,note_on,,,,,64,0,14,,,,,6,,,52,80
1536,note_on,,,,,64,0,11,,,,,4,,,52,85
1536,note_on,,,,,64,0,16,,,,,7,,,52,80
1536,note_on,,,,,448,0,12,,,,,5,,,40,85
1536,note_on,,,,,64,0,10,,,,,3,,,59,85
1536,note_on,,,,,0,0,13,,,,,6,,,68,80
1664,note_off,,,,,128,0,8,,,,,1,,,80,100
1664,note_off,,,,,128,0,9,,,,,2,,,74,100
1664,note_off,,,,,128,0,12,,,,,5,,,40,100
1664,note_off,,,,,128,0,14,,,,,6,,,52,100
1664,note_off,,,,,128,0,10,,,,,3,,,59,100
1664,note_off,,,,,128,0,11,,,,,4,,,52,100
1664,note_off,,,,,128,0,16,,,,,7,,,52,100
1728,note_on,,,,,64,0,10,,,,,3,,,59,75
1728,note_on,,,,,64,0,9,,,,,2,,,74,75
1728,note_on,,,,,64,0,12,,,,,5,,,40,75
1728,note_on,,,,,64,0,11,,,,,4,,,52,75
1728,note_on,,,,,64,0,16,,,,,7,,,52,80
1728,note_on,,,,,64,0,8,,,,,1,,,80,75
1728,note_on,,,,,64,0,14,,,,,6,,,52,80
1792,note_off,,,,,256,0,13,,,,,6,,,59,100
1792,note_off,,,,,0,0,13,,,,,6,,,68,100
1792,note_off,,,,,0,0,13,,,,,6,,,62,100
1792,note_off,,,,,256,0,15,,,,,7,,,59,100
1792,note_off,,,,,0,0,15,,,,,7,,,62,100
1792,note_off,,,,,0,0,15,,,,,7,,,68,100
1856,note_off,,,,,128,0,8,,,,,1,,,80,100
1856,note_off,,,,,128,0,11,,,,,4,,,52,100
1856,note_off,,,,,128,0,9,,,,,2,,,74,100
1856,note_off,,,,,128,0,10,,,,,3,,,59,100
1856,note_off,,,,,128,0,14,,,,,6,,,52,100
1856,note_off,,,,,128,0,16,,,,,7,,,52,100
1856,note_off,,,,,128,0,12,,,,,5,,,40,100
1920,note_on,,,,,64,0,8,,,,,1,,,68,55
1920,note_on,,,,,64,0,10,,,,,3,,,59,55
1920,note_on,,,,,64,0,16,,,,,7,,,52,80
1920,note_on,,,,,128,0,13,,,,,6,,,56,80
1920,note_on,,,,,64,0,14,,,,,6,,,52,80
1920,note_on,,,,,64,0,11,,,,,4,,,52,55
1920,note_on,,,,,64,0,9,,,,,2,,,62,55
2048,note_off,,,,,128,0,14,,,,,6,,,52,100
2048,note_off,,,,,128,0,10,,,,,3,,,59,100
2048,note_off,,,,,128,0,16,,,,,7,,,52,100
2048,note_off,,,,,128,0,8,,,,,1,,,68,100
2048,note_off,,,,,128,0,11,,,,,4,,,52,100
2048,note_off,,,,,128,0,9,,,,,2,,,62,100
2112,note_on,,,,,64,0,11,,,,,4,,,52,55
2112,note_on,,,,,64,0,8,,,,,1,,,68,55
2112,note_on,,,,,64,0,10,,,,,3,,,59,55
2112,note_on,,,,,64,0,16,,,,,7,,,52,80
2112,note_on,,,,,64,0,9,,,,,2,,,62,55
2112,note_on,,,,,64,0,14,,,,,6,,,52,80
2176,note_off,,,,,256,0,13,,,,,6,,,56,100
2240,note_off,,,,,128,0,11,,,,,4,,,52,100
2240,note_off,,,,,128,0,16,,,,,7,,,52,100
2240,note_off,,,,,128,0,9,,,,,2,,,62,100
2240,note_off,,,,,128,0,8,,,,,1,,,68,100
2240,note_off,,,,,128,0,10,,,,,3,,,59,100
2240,note_off,,,,,128,0,14,,,,,6,,,52,100
2304,note_on,,,,,64,0,14,,,,,6,,,54,80
2304,note_on,,,,,0,0,15,,,,,7,,,61,80
2304,note_on,,,,,64,0,9,,,,,2,,,73,85
2304,note_on,,,,,0,0,13,,,,,6,,,61,80
2304,note_on,,,,,64,0,8,,,,,1,,,82,85
2304,note_on,,,,,64,0,10,,,,,3,,,58,85
2304,note_on,,,,,0,0,13,,,,,6,,,58,80
2304,note_on,,,,,512,0,15,,,,,7,,,70,80
2304,note_on,,,,,128,0,13,,,,,6,,,70,80
2304,note_on,,,,,0,0,15,,,,,7,,,58,80
2304,note_on,,,,,448,0,12,,,,,5,,,42,85
2304,note_on,,,,,64,0,16,,,,,7,,,54,80
2304,note_on,,,,,64,0,11,,,,,4,,,54,85
2432,note_off,,,,,128,0,10,,,,,3,,,58,100
2432,note_off,,,,,128,0,9,,,,,2,,,73,100
2432,note_off,,,,,128,0,16,,,,,7,,,54,100
2432,note_off,,,,,128,0,14,,,,,6,,,54,100
2432,note_off,,,,,128,0,8,,,,,1,,,82,100
2432,note_off,,,,,128,0,12,,,,,5,,,42,100
2432,note_off,,,,,128,0,11,,,,,4,,,54,100
2496,note_on,,,,,64,0,14,,,,,6,,,54,80
2496,note_on,,,,,64,0,8,,,,,1,,,82,75
2496,note_on,,,,,64,0,9,,,,,2,,,73,75
2496,note_on,,,,,64,0,11,,,,,4,,,54,75
2496,note_on,,,,,64,0,12,,,,,5,,,42,75
2496,note_on,,,,,64,0,10,,,,,3,,,58,75
2496,note_on,,,,,64,0,16,,,,,7,,,54,80
2560,note_off,,,,,0,0,13,,,,,6,,,58,100
2560,note_off,,,,,0,0,15,,,,,7,,,58,100
2560,note_off,,,,,0,0,15,,,,,7,,,61,100
2560,note_off,,,,,256,0,15,,,,,7,,,70,100
2560,note_off,,,,,256,0,13,,,,,6,,,70,100
2560,note_off,,,,,0,0,13,,,,,6,,,61,100
2624,note_off,,,,,128,0,10,,,,,3,,,58,100
2624,note_off,,,,,128,0,12,,,,,5,,,42,100
2624,note_off,,,,,128,0,11,,,,,4,,,54,100
2624,note_off,,,,,128,0,9,,,,,2,,,73,100
2624,note_off,,,,,128,0,8,,,,,1,,,82,100
2624,note_off,,,,,128,0,14,,,,,6,,,54,100
2624,note_off,,,,,128,0,16,,,,,7,,,54,100
2688,note_on,,,,,64,0,14,,,,,6,,,54,80
2688,note_on,,,,,64,0,11,,,,,4,,,54,55
2688,note_on,,,,,128,0,13,,,,,6,,,58,80
2688,note_on,,,,,64,0,10,,,,,3,,,66,55
2688,note_on,,,,,64,0,9,,,,,2,,,61,55
2688,note_on,,,,,64,0,8,,,,,1,,,70,55
2688,note_on,,,,,64,0,16,,,,,7,,,54,80
2816,note_off,,,,,128,0,16,,,,,7,,,54,100
2816,note_off,,,,,128,0,10,,,,,3,,,66,100
2816,note_off,,,,,128,0,11,,,,,4,,,54,100
2816,note_off,,,,,128,0,9,,,,,2,,,61,100
2816,note_off,,,,,128,0,14,,,,,6,,,54,100
2816,note_off,,,,,128,0,8,,,,,1,,,70,100
2880,note_on,,,,,64,0,10,,,,,3,,,66,55
2880,note_on,,,,,64,0,8,,,,,1,,,70,55
2880,note_on,,,,,64,0,9,,,,,2,,,61,55
2880,note_on,,,,,64,0,11,,,,,4,,,54,55
2880,note_on,,,,,64,0,16,,,,,7,,,54,80
2880,note_on,,,,,64,0,14,,,,,6,,,54,80
2944,note_off,,,,,256,0,13,,,,,6,,,58,100
3008,note_off,,,,,128,0,9,,,,,2,,,61,100
3008,note_off,,,,,128,0,16,,,,,7,,,54,100
3008,note_off,,,,,128,0,10,,,,,3,,,66,100
3008,note_off,,,,,128,0,8,,,,,1,,,70,100
3008,note_off,,,,,128,0,14,,,,,6,,,54,100
3008,note_off,,,,,128,0,11,,,,,4,,,54,100
3072,note_on,,,,,0,0,13,,,,,6,,,63,80
3072,note_on,,,,,64,0,16,,,,,7,,,47,80
3072,note_on,,,,,64,0,8,,,,,1,,,83,85
3072,note_on,,,,,0,0,13,,,,,6,,,66,80
3072,note_on,,,,,0,0,13,,,,,6,,,59,80
3072,note_on,,,,,128,0,13,,,,,6,,,71,80
3072,note_on,,,,,0,0,15,,,,,7,,,66,80
3072,note_on,,,,,0,0,15,,,,,7,,,59,80
3072,note_on,,,,,0,0,15,,,,,7,,,63,80
3072,note_on,,,,,64,0,10,,,,,3,,,66,85
3072,note_on,,,,,448,0,12,,,,,5,,,35,85
3072,note_on,,,,,512,0,15,,,,,7,,,71,80
3072,note_on,,,,,64,0,9,,,,,2,,,75,85
3072,note_on,,,,,64,0,11,,,,,4,,,47,85
3072,note_on,,,,,64,0,14,,,,,6,,,47,80
3200,note_off,,,,,128,0,9,,,,,2,,,75,100
3200,note_off,,,,,128,0,10,,,,,3,,,66,100
3200,note_off,,,,,128,0,8,,,,,1,,,83,100
3200,note_off,,,,,128,0,16,,,,,7,,,47,100
3200,note_off,,,,,128,0,12,,,,,5,,,35,100
3200,note_off,,,,,128,0,11,,,,,4,,,47,100
3200,note_off,,,,,128,0,14,,,,,6,,,47,100
3264,note_on,,,,,64,0,12,,,,,5,,,35,75
3264,note_on,,,,,64,0,8,,,,,1,,,83,75
3264,note_on,,,,,64,0,11,,,,,4,,,47,75
3264,note_on,,,,,64,0,10,,,,,3,,,66,75
3264,note_on,,,,,64,0,14,,,,,6,,,47,80
3264,note_on,,,,,64,0,16,,,,,7,,,47,80
3264,note_on,,,,,64,0,9,,,,,2,,,75,75
3328,note_off,,,,,256,0,15,,,,,7,,,71,100
3328,note_off,,,,,0,0,13,,,,,6,,,63,100
3328,note_off,,,,,0,0,13,,,,,6,,,66,100
3328,note_off,,,,,0,0,13,,,,,6,,,59,100
3328,note_off,,,,,0,0,15,,,,,7,,,63,100
3328,note_off,,,,,256,0,13,,,,,6,,,71,100
3328,note_off,,,,,0,0,15,,,,,7,,,59,100
3328,note_off,,,,,0,0,15,,,,,7,,,66,100
3392,note_off,,,,,128,0,12,,,,,5,,,35,100
3392,note_off,,,,,128,0,16,,,,,7,,,47,100
3392,note_off,,,,,128,0,10,,,,,3,,,66,100
3392,note_off,,,,,128,0,11,,,,,4,,,47,100
3392,note_off,,,,,128,0,9,,,,,2,,,75,100
3392,note_off,,,,,128,0,14,,,,,6,,,47,100
3392,note_off,,,,,128,0,8,,,,,1,,,83,100
3456,note_on,,,,,64,0,16,,,,,7,,,47,80
3456,note_on,,,,,128,0,13,,,,,6,,,63,80
3456,note_on,,,,,64,0,8,,,,,1,,,71,55
3456,note_on,,,,,64,0,14,,,,,6,,,47,80
3456,note_on,,,,,64,0,9,,,,,2,,,63,55
3456,note_on,,,,,64,0,11,,,,,4,,,47,55
3456,note_on,,,,,64,0,10,,,,,3,,,66,55
3584,note_off,,,,,128,0,8,,,,,1,,,71,100
3584,note_off,,,,,128,0,11,,,,,4,,,47,100
3584,note_off,,,,,128,0,9,,,,,2,,,63,100
3584,note_off,,,,,128,0,10,,,,,3,,,66,100
3584,note_off,,,,,128,0,14,,,,,6,,,47,100
3584,note_off,,,,,128,0,16,,,,,7,,,47,100
3648,note_on,,,,,64,0,8,,,,,1,,,71,55
3648,note_on,,,,,64,0,11,,,,,4,,,47,55
3648,note_on,,,,,64,0,9,,,,,2,,,63,55
3648,note_on,,,,,64,0,14,,,,,6,,,47,80
3648,note_on,,,,,64,0,10,,,,,3,,,63,55
3648,note_on,,,,,64,0,16,,,,,7,,,47,80
3712,note_off,,,,,256,0,13,,,,,6,,,63,100
3776,note_off,,,,,128,0,11,,,,,4,,,47,100
3776,note_off,,,,,128,0,14,,,,,6,,,47,100
3776,note_off,,,,,128,0,9,,,,,2,,,63,100
3776,note_off,,,,,128,0,8,,,,,1,,,71,100
3776,note_off,,,,,128,0,16,,,,,7,,,47,100
3776,note_off,,,,,128,0,10,,,,,3,,,63,100
3840,note_on,,,,,0,0,15,,,,,7,,,64,80
3840,note_on,,,,,0,0,15,,,,,7,,,67,80
3840,note_on,,,,,512,0,15,,,,,7,,,59,80
3840,note_on,,,,,64,0,8,,,,,1,,,79,85
3840,note_on,,,,,64,0,14,,,,,6,,,52,80
3840,note_on,,,,,0,0,13,,,,,6,,,67,80
3840,note_on,,,,,64,0,10,,,,,3,,,59,85
3840,note_on,,,,,64,0,16,,,,,7,,,52,80
3840,note_on,,,,,64,0,11,,,,,4,,,52,85
3840,note_on,,,,,448,0,12,,,,,5,,,40,85
3840,note_on,,,,,0,0,13,,,,,6,,,64,80
3840,note_on,,,,,64,0,9,,,,,2,,,76,85
3840,note_on,,,,,128,0,13,,,,,6,,,59,80
3968,note_off,,,,,128,0,10,,,,,3,,,59,100
3968,note_off,,,,,128,0,14,,,,,6,,,52,100
3968,note_off,,,,,128,0,12,,,,,5,,,40,100
3968,note_off,,,,,128,0,8,,,,,1,,,79,100
3968,note_off,,,,,128,0,9,,,,,2,,,76,100
3968,note_off,,,,,128,0,16,,,,,7,,,52,100
3968,note_off,,,,,128,0,11,,,,,4,,,52,100
4032,note_on,,,,,64,0,8,,,,,1,,,79,75
4032,note_on,,,,,64,0,11,,,,,4,,,52,75
4032,note_on,,,,,64,0,14,,,,,6,,,52,80
4032,note_on,,,,,64,0,16,,,,,7,,,52,80
4032,note_on,,,,,64,0,10,,,,,3,,,59,75
4032,note_on,,,,,64,0,9,,,,,2,,,76,75
4032,note_on,,,,,64,0,12,,,,,5,,,40,75
4096,note_off,,,,,256,0,13,,,,,6,,,59,100
4096,note_off,,,,,0,0,13,,,,,6,,,64,100
4096,note_off,,,,,0,0,13,,,,,6,,,67,100
4096,note_off,,,,,0,0,15,,,,,7,,,64,100
4096,note_off,,,,,0,0,15,,,,,7,,,67,100
4096,note_off,,,,,256,0,15,,,,,7,,,59,100
4160,note_off,,,,,128,0,12,,,,,5,,,40,100
4160,note_off,,,,,128,0,8,,,,,1,,,79,100
4160,note_off,,,,,128,0,10,,,,,3,,,59,100
4160,note_off,,,,,128,0,11,,,,,4,,,52,100
4160,note_off,,,,,128,0,14,,,,,6,,,52,100
4160,note_off,,,,,128,0,9,,,,,2,,,76,100
4160,note_off,,,,,128,0,16,,,,,7,,,52,100
4224,note_on,,,,,128,0,13,,,,,6,,,55,80
4224,note_on,,,,,64,0,10,,,,,3,,,59,55
4224,note_on,,,,,64,0,14,,,,,6,,,52,80
4224,note_on,,,,,64,0,8,,,,,1,,,67,55
4224,note_on,,,,,64,0,9,,,,,2,,,64,55
4224,note_on,,,,,64,0,11,,,,,4,,,52,55
4224,note_on,,,,,64,0,16,,,,,7,,,52,80
4352,note_off,,,,,128,0,10,,,,,3,,,59,100
4352,note_off,,,,,128,0,16,,,,,7,,,52,100
4352,note_off,,,,,128,0,14,,,,,6,,,52,100
4352,note_off,,,,,128,0,9,,,,,2,,,64,100
4352,note_off,,,,,128,0,11,,,,,4,,,52,100
4352,note_off,,,,,128,0,8,,,,,1,,,67,100
4416,note_on,,,,,64,0,10,,,,,3,,,59,55
4416,note_on,,,,,64,0,8,,,,,1,,,67,55
4416,note_on,,,,,64,0,16,,,,,7,,,52,80
4416,note_on,,,,,64,0,9,,,,,2,,,64,55
4416,note_on,,,,,64,0,14,,,,,6,,,52,80
4416,note_on,,,,,64,0,11,,,,,4,,,52,55
4480,note_off,,,,,256,0,13,,,,,6,,,55,100
4544,note_off,,,,,128,0,11,,,,,4,,,52,100
4544,note_off,,,,,128,0,10,,,,,3,,,59,100
4544,note_off,,,,,128,0,9,,,,,2,,,64,100
4544,note_off,,,,,128,0,16,,,,,7,,,52,100
4544,note_off,,,,,128,0,14,,,,,6,,,52,100
4544,note_off,,,,,128,0,8,,,,,1,,,67,100
4608,note_on,,,,,64,0,14,,,,,6,,,47,80
4608,note_on,,,,,64,0,10,,,,,3,,,59,85
4608,note_on,,,,,0,0,13,,,,,6,,,66,80
4608,note_on,,,,,0,0,13,,,,,6,,,64,80
4608,note_on,,,,,128,0,13,,,,,6,,,59,80
4608,note_on,,,,,0,0,15,,,,,7,,,66,80
4608,note_on,,,,,64,0,16,,,,,7,,,47,80
4608,note_on,,,,,64,0,8,,,,,1,,,78,85
4608,note_on,,,,,0,0,15,,,,,7,,,64,80
4608,note_on,,,,,64,0,9,,,,,2,,,76,85
4608,note_on,,,,,512,0,15,,,,,7,,,59,80
4608,note_on,,,,,64,0,11,,,,,4,,,47,85
4608,note_on,,,,,448,0,12,,,,,5,,,35,85
4736,note_off,,,,,128,0,16,,,,,7,,,47,100
4736,note_off,,,,,128,0,12,,,,,5,,,35,100
4736,note_off,,,,,128,0,14,,,,,6,,,47,100
4736,note_off,,,,,128,0,10,,,,,3,,,59,100
4736,note_off,,,,,128,0,9,,,,,2,,,76,100
4736,note_off,,,,,128,0,11,,,,,4,,,47,100
4736,note_off,,,,,128,0,8,,,,,1,,,78,100
4800,note_on,,,,,64,0,14,,,,,6,,,47,80
4800,set_tempo,,,,,3264,1,0,,2068965,,,,,,,
4800,note_on,,,,,64,0,11,,,,,4,,,47,75
4800,note_on,,,,,64,0,10,,,,,3,,,59,75
4800,note_on,,,,,64,0,9,,,,,2,,,76,75
4800,note_on,,,,,64,0,16,,,,,7,,,47,80
4800,note_on,,,,,64,0,8,,,,,1,,,78,75
4800,note_on,,,,,64,0,12,,,,,5,,,35,75
4864,note_off,,,,,256,0,15,,,,,7,,,59,100
4864,note_off,,,,,0,0,13,,,,,6,,,66,100
4864,note_off,,,,,0,0,15,,,,,7,,,64,100
4864,note_off,,,,,256,0,13,,,,,6,,,59,100
4864,note_off,,,,,0,0,13,,,,,6,,,64,100
4864,note_off,,,,,0,0,15,,,,,7,,,66,100
4928,note_off,,,,,128,0,12,,,,,5,,,35,100
4928,note_off,,,,,128,0,14,,,,,6,,,47,100
4928,note_off,,,,,128,0,9,,,,,2,,,76,100
4928,note_off,,,,,128,0,10,,,,,3,,,59,100
4928,note_off,,,,,128,0,11,,,,,4,,,47,100
4928,note_off,,,,,128,0,8,,,,,1,,,78,100
4928,note_off,,,,,128,0,16,,,,,7,,,47,100
4992,note_on,,,,,64,0,14,,,,,6,,,47,80
4992,note_on,,,,,64,0,8,,,,,1,,,66,55
4992,note_on,,,,,0,0,13,,,,,6,,,54,80
4992,note_on,,,,,128,0,13,,,,,6,,,63,80
4992,note_on,,,,,64,0,10,,,,,3,,,59,55
4992,note_on,,,,,64,0,16,,,,,7,,,47,80
4992,note_on,,,,,64,0,11,,,,,4,,,47,55
4992,note_on,,,,,64,0,9,,,,,2,,,63,55
5088,set_tempo,,,,,288,1,0,,2142857,,,,,,,
5120,note_off,,,,,128,0,14,,,,,6,,,47,100
5120,note_off,,,,,128,0,16,,,,,7,,,47,100
5120,note_off,,,,,128,0,9,,,,,2,,,63,100
5120,note_off,,,,,128,0,11,,,,,4,,,47,100
5120,note_off,,,,,128,0,8,,,,,1,,,66,100
5120,note_off,,,,,128,0,10,,,,,3,,,59,100
5184,note_on,,,,,64,0,10,,,,,3,,,59,55
5184,note_on,,,,,64,0,14,,,,,6,,,47,80
5184,note_on,,,,,64,0,11,,,,,4,,,47,55
5184,note_on,,,,,64,0,8,,,,,1,,,66,55
5184,note_on,,,,,64,0,16,,,,,7,,,47,80
5184,note_on,,,,,64,0,9,,,,,2,,,63,55
5248,note_off,,,,,0,0,13,,,,,6,,,54,100
5248,note_off,,,,,256,0,13,,,,,6,,,63,100
5312,note_off,,,,,128,0,14,,,,,6,,,47,100
5312,note_off,,,,,128,0,8,,,,,1,,,66,100
5312,note_off,,,,,128,0,9,,,,,2,,,63,100
5312,note_off,,,,,128,0,11,,,,,4,,,47,100
5312,note_off,,,,,128,0,16,,,,,7,,,47,100
5312,note_off,,,,,128,0,10,,,,,3,,,59,100
5376,note_on,,,,,448,0,12,,,,,5,,,40,50
5376,note_on,,,,,64,0,10,,,,,3,,,59,50
5376,set_tempo,,,,,288,1,0,,2000000,,,,,,,
5376,note_on,,,,,5376,0,7,,,,,0,,,83,85
5376,note_on,,,,,64,0,11,,,,,4,,,52,50
5376,note_on,,,,,0,0,13,,,,,6,,,64,80
5376,note_on,,,,,64,0,8,,,,,1,,,67,50
5376,note_on,,,,,64,0,16,,,,,7,,,52,80
5376,note_on,,,,,64,0,9,,,,,2,,,64,50
5376,note_on,,,,,0,0,13,,,,,6,,,55,80
5376,note_on,,,,,128,0,13,,,,,6,,,59,80
5376,note_on,,,,,512,0,15,,,,,7,,,59,80
5376,note_on,,,,,64,0,14,,,,,6,,,52,80
5376,note_on,,,,,0,0,15,,,,,7,,,55,80
5376,note_on,,,,,0,0,15,,,,,7,,,64,80
5528,note_off,,,,,152,0,7,,,,,0,,,83,100
5568,note_on,,,,,40,0,7,,,,,0,,,79,85
5632,note_off,,,,,256,0,12,,,,,5,,,40,100
5632,note_off,,,,,0,0,15,,,,,7,,,55,100
5632,note_off,,,,,64,0,7,,,,,0,,,79,100
5632,note_off,,,,,256,0,14,,,,,6,,,52,100
5632,note_off,,,,,256,0,15,,,,,7,,,59,100
5632,note_off,,,,,256,0,11,,,,,4,,,52,100
5632,note_off,,,,,256,0,9,,,,,2,,,64,100
5632,note_off,,,,,256,0,13,,,,,6,,,59,100
5632,note_off,,,,,256,0,16,,,,,7,,,52,100
5632,note_off,,,,,0,0,13,,,,,6,,,55,100
5632,note_off,,,,,0,0,13,,,,,6,,,64,100
5632,note_off,,,,,0,0,15,,,,,7,,,64,100
5632,note_off,,,,,256,0,8,,,,,1,,,67,100
5632,note_off,,,,,256,0,10,,,,,3,,,59,100
5664,note_on,,,,,32,0,7,,,,,0,,,78,85
5728,note_off,,,,,64,0,7,,,,,0,,,78,100
5760,note_on,,,,,32,0,7,,,,,0,,,76,85
5912,note_off,,,,,152,0,7,,,,,0,,,76,100
5952,note_on,,,,,40,0,7,,,,,0,,,83,85
6104,note_off,,,,,152,0,7,,,,,0,,,83,100
6144,note_on,,,,,512,0,16,,,,,7,,,51,80
6144,note_on,,,,,512,0,15,,,,,7,,,57,80
6144,note_on,,,,,0,0,15,,,,,7,,,60,80
6144,note_on,,,,,40,0,7,,,,,0,,,84,85
6144,note_on,,,,,512,0,13,,,,,6,,,57,80
6144,note_on,,,,,512,0,10,,,,,3,,,69,50
6144,note_on,,,,,512,0,9,,,,,2,,,72,50
6144,note_on,,,,,512,0,11,,,,,4,,,51,50
6144,note_on,,,,,512,0,8,,,,,1,,,78,50
6144,note_on,,,,,0,0,13,,,,,6,,,60,80
6144,note_on,,,,,512,0,14,,,,,6,,,51,80
6236,note_off,,,,,92,0,7,,,,,0,,,84,100
6240,note_on,,,,,4,0,7,,,,,0,,,81,85
6316,note_off,,,,,76,0,7,,,,,0,,,81,100
6336,note_on,,,,,20,0,7,,,,,0,,,78,85
6400,note_off,,,,,256,0,15,,,,,7,,,57,100
6400,note_off,,,,,256,0,9,,,,,2,,,72,100
6400,note_off,,,,,256,0,8,,,,,1,,,78,100
6400,note_off,,,,,256,0,10,,,,,3,,,69,100
6400,note_off,,,,,256,0,16,,,,,7,,,51,100
6400,note_off,,,,,0,0,15,,,,,7,,,60,100
6400,note_off,,,,,256,0,11,,,,,4,,,51,100
6400,note_off,,,,,0,0,13,,,,,6,,,60,100
6400,note_off,,,,,256,0,13,,,,,6,,,57,100
6400,note_off,,,,,256,0,14,,,,,6,,,51,100
6428,note_off,,,,,92,0,7,,,,,0,,,78,100
6432,note_on,,,,,4,0,7,,,,,0,,,76,85
6508,note_off,,,,,76,0,7,,,,,0,,,76,100
6528,note_on,,,,,20,0,7,,,,,0,,,75,85
6620,note_off,,,,,92,0,7,,,,,0,,,75,100
6624,note_on,,,,,4,0,7,,,,,0,,,84,85
6700,note_off,,,,,76,0,7,,,,,0,,,84,100
6720,note_on,,,,,20,0,7,,,,,0,,,83,85
6812,note_off,,,,,92,0,7,,,,,0,,,83,100
6816,note_on,,,,,4,0,7,,,,,0,,,81,85
6892,note_off,,,,,76,0,7,,,,,0,,,81,100
6912,note_on,,,,,512,0,10,,,,,3,,,67,50
6912,note_on,,,,,512,0,13,,,,,6,,,55,80
6912,note_on,,,,,0,0,13,,,,,6,,,59,80
6912,note_on,,,,,0,0,15,,,,,7,,,64,80
6912,note_on,,,,,20,0,7,,,,,0,,,79,85
6912,note_on,,,,,0,0,13,,,,,6,,,64,80
6912,note_on,,,,,0,0,15,,,,,7,,,59,80
6912,note_on,,,,,512,0,11,,,,,4,,,52,50
6912,note_on,,,,,512,0,14,,,,,6,,,52,80
6912,note_on,,,,,512,0,15,,,,,7,,,55,80
6912,note_on,,,,,512,0,16,,,,,7,,,52,80
6912,note_on,,,,,512,0,9,,,,,2,,,71,50
6912,note_on,,,,,512,0,8,,,,,1,,,76,50
7004,note_off,,,,,92,0,7,,,,,0,,,79,100
7008,note_on,,,,,4,0,7,,,,,0,,,81,85
7100,note_off,,,,,92,0,7,,,,,0,,,81,100
7104,note_on,,,,,4,0,7,,,,,0,,,83,85
7168,note_off,,,,,256,0,10,,,,,3,,,67,100
7168,note_off,,,,,256,0,13,,,,,6,,,55,100
7168,note_off,,,,,0,0,13,,,,,6,,,64,100
7168,note_off,,,,,256,0,14,,,,,6,,,52,100
7168,note_off,,,,,0,0,15,,,,,7,,,59,100
7168,note_off,,,,,0,0,15,,,,,7,,,64,100
7168,note_off,,,,,256,0,11,,,,,4,,,52,100
7168,note_off,,,,,256,0,16,,,,,7,,,52,100
7168,note_off,,,,,256,0,15,,,,,7,,,55,100
7168,note_off,,,,,0,0,13,,,,,6,,,59,100
7168,note_off,,,,,256,0,8,,,,,1,,,76,100
7168,note_off,,,,,256,0,9,,,,,2,,,71,100
7180,note_off,,,,,76,0,7,,,,,0,,,83,100
7200,note_on,,,,,20,0,7,,,,,0,,,79,85
7276,note_off,,,,,76,0,7,,,,,0,,,79,100
7296,note_on,,,,,20,0,7,,,,,0,,,76,85
7552,note_off,,,,,256,0,7,,,,,0,,,76,100
7680,note_on,,,,,2048,0,12,,,,,5,,,40,85
7680,note_on,,,,,512,0,16,,,,,7,,,52,80
7680,note_on,,,,,512,0,10,,,,,3,,,59,85
7680,note_on,,,,,512,0,15,,,,,7,,,59,80
7680,note_on,,,,,512,0,8,,,,,1,,,79,85
7680,note_on,,,,,0,0,15,,,,,7,,,67,80
7680,note_on,,,,,0,0,15,,,,,7,,,64,80
7680,note_on,,,,,512,0,13,,,,,6,,,59,80
7680,note_on,,,,,0,0,13,,,,,6,,,67,80
7680,note_on,,,,,512,0,11,,,,,4,,,52,85
7680,note_on,,,,,0,0,13,,,,,6,,,64,80
7680,note_on,,,,,512,0,14,,,,,6,,,52,80
7680,note_on,,,,,512,0,9,,,,,2,,,76,85
7808,note_off,,,,,128,0,9,,,,,2,,,76,100
7808,note_off,,,,,128,0,16,,,,,7,,,52,100
7808,note_off,,,,,128,0,10,,,,,3,,,59,100
7808,note_off,,,,,128,0,11,,,,,4,,,52,100
7808,note_off,,,,,128,0,14,,,,,6,,,52,100
7808,note_off,,,,,128,0,12,,,,,5,,,40,100
7808,note_off,,,,,128,0,8,,,,,1,,,79,100
7872,note_on,,,,,64,0,16,,,,,7,,,52,80
7872,note_on,,,,,64,0,10,,,,,3,,,59,75
7872,note_on,,,,,64,0,12,,,,,5,,,40,75
7872,note_on,,,,,64,0,9,,,,,2,,,76,75
7872,note_on,,,,,64,0,11,,,,,4,,,52,75
7872,note_on,,,,,64,0,14,,,,,6,,,52,80
7872,note_on,,,,,64,0,8,,,,,1,,,79,75
7936,note_off,,,,,256,0,13,,,,,6,,,59,100
7936,note_off,,,,,256,0,15,,,,,7,,,59,100
7936,note_off,,,,,0,0,15,,,,,7,,,64,100
7936,note_off,,,,,0,0,13,,,,,6,,,67,100
7936,note_off,,,,,0,0,15,,,,,7,,,67,100
7936,note_off,,,,,0,0,13,,,,,6,,,64,100
8000,note_off,,,,,128,0,10,,,,,3,,,59,100
8000,note_off,,,,,128,0,16,,,,,7,,,52,100
8000,note_off,,,,,128,0,12,,,,,5,,,40,100
8000,note_off,,,,,128,0,9,,,,,2,,,76,100
8000,note_off,,,,,128,0,8,,,,,1,,,79,100
8000,note_off,,,,,128,0,14,,,,,6,,,52,100
8000,note_off,,,,,128,0,11,,,,,4,,,52,100
8064,note_on,,,,,128,0,13,,,,,6,,,55,80
8064,note_on,,,,,64,0,16,,,,,7,,,52,80
8064,note_on,,,,,64,0,10,,,,,3,,,59,55
8064,note_on,,,,,64,0,8,,,,,1,,,67,55
8064,note_on,,,,,64,0,9,,,,,2,,,64,55
8064,note_on,,,,,64,0,11,,,,,4,,,52,55
8064,note_on,,,,,64,0,14,,,,,6,,,52,80
8192,note_off,,,,,128,0,8,,,,,1,,,67,100
8192,note_off,,,,,128,0,16,,,,,7,,,52,100
8192,note_off,,,,,128,0,11,,,,,4,,,52,100
8192,note_off,,,,,128,0,10,,,,,3,,,59,100
8192,note_off,,,,,128,0,14,,,,,6,,,52,100
8192,note_off,,,,,128,0,9,,,,,2,,,64,100
8256,note_on,,,,,64,0,10,,,,,3,,,59,55
8256,note_on,,,,,64,0,14,,,,,6,,,52,80
8256,note_on,,,,,64,0,8,,,,,1,,,67,55
8256,note_on,,,,,64,0,11,,,,,4,,,52,55
8256,note_on,,,,,64,0,9,,,,,2,,,64,55
8256,note_on,,,,,64,0,16,,,,,7,,,52,80
8320,note_off,,,,,256,0,13,,,,,6,,,55,100
8384,note_off,,,,,128,0,14,,,,,6,,,52,100
8384,note_off,,,,,128,0,9,,,,,2,,,64,100
8384,note_off,,,,,128,0,8,,,,,1,,,67,100
8384,note_off,,,,,128,0,16,,,,,7,,,52,100
8384,note_off,,,,,128,0,10,,,,,3,,,59,100
8384,note_off,,,,,128,0,11,,,,,4,,,52,100
8448,note_on,,,,,0,0,15,,,,,7,,,66,80
8448,note_on,,,,,64,0,14,,,,,6,,,47,80
8448,note_on,,,,,448,0,12,,,,,5,,,35,85
8448,note_on,,,,,64,0,10,,,,,3,,,59,85
8448,note_on,,,,,64,0,11,,,,,4,,,47,85
8448,note_on,,,,,128,0,13,,,,,6,,,59,80
8448,note_on,,,,,512,0,15,,,,,7,,,59,80
8448,note_on,,,,,64,0,16,,,,,7,,,47,80
8448,note_on,,,,,64,0,8,,,,,1,,,78,85
8448,note_on,,,,,0,0,13,,,,,6,,,66,80
8448,note_on,,,,,64,0,9,,,,,2,,,76,85
8448,note_on,,,,,0,0,13,,,,,6,,,64,80
8448,note_on,,,,,0,0,15,,,,,7,,,64,80
8576,note_off,,,,,128,0,16,,,,,7,,,47,100
8576,note_off,,,,,128,0,12,,,,,5,,,35,100
8576,note_off,,,,,128,0,9,,,,,2,,,76,100
8576,note_off,,,,,128,0,10,,,,,3,,,59,100
8576,note_off,,,,,128,0,8,,,,,1,,,78,100
8576,note_off,,,,,128,0,14,,,,,6,,,47,100
8576,note_off,,,,,128,0,11,,,,,4,,,47,100
8640,note_on,,,,,64,0,11,,,,,4,,,47,75
8640,note_on,,,,,64,0,12,,,,,5,,,35,75
8640,note_on,,,,,64,0,8,,,,,1,,,78,75
8640,note_on,,,,,64,0,10,,,,,3,,,59,75
8640,note_on,,,,,64,0,16,,,,,7,,,47,80
8640,note_on,,,,,64,0,14,,,,,6,,,47,80
8640,note_on,,,,,64,0,9,,,,,2,,,76,75
8704,note_off,,,,,0,0,13,,,,,6,,,64,100
8704,note_off,,,,,0,0,13,,,,,6,,,66,100
8704,note_off,,,,,0,0,15,,,,,7,,,66,100
8704,note_off,,,,,0,0,15,,,,,7,,,64,100
8704,note_off,,,,,256,0,13,,,,,6,,,59,100
8704,note_off,,,,,256,0,15,,,,,7,,,59,100
8768,note_off,,,,,128,0,8,,,,,1,,,78,100
8768,note_off,,,,,128,0,11,,,,,4,,,47,100
8768,note_off,,,,,128,0,12,,,,,5,,,35,100
8768,note_off,,,,,128,0,10,,,,,3,,,59,100
8768,note_off,,,,,128,0,14,,,,,6,,,47,100
8768,note_off,,,,,128,0,9,,,,,2,,,76,100
8768,note_off,,,,,128,0,16,,,,,7,,,47,100
8832,note_on,,,,,64,0,16,,,,,7,,,47,80
8832,note_on,,,,,64,0,11,,,,,4,,,47,55
8832,note_on,,,,,128,0,13,,,,,6,,,63,80
8832,note_on,,,,,64,0,10,,,,,3,,,59,55
8832,note_on,,,,,64,0,9,,,,,2,,,63,55
8832,note_on,,,,,0,0,13,,,,,6,,,54,80
8832,note_on,,,,,64,0,14,,,,,6,,,47,80
8832,note_on,,,,,64,0,8,,,,,1,,,66,55
8960,note_off,,,,,128,0,9,,,,,2,,,63,100
8960,note_off,,,,,128,0,14,,,,,6,,,47,100
8960,note_off,,,,,128,0,10,,,,,3,,,59,100
8960,note_off,,,,,128,0,8,,,,,1,,,66,100
8960,note_off,,,,,128,0,11,,,,,4,,,47,100
8960,note_off,,,,,128,0,16,,,,,7,,,47,100
9024,note_on,,,,,64,0,9,,,,,2,,,63,55
9024,note_on,,,,,64,0,14,,,,,6,,,47,80
9024,note_on,,,,,64,0,10,,,,,3,,,59,55
9024,note_on,,,,,64,0,11,,,,,4,,,47,55
9024,note_on,,,,,64,0,16,,,,,7,,,47,80
9024,note_on,,,,,64,0,8,,,,,1,,,66,55
9088,note_off,,,,,0,0,13,,,,,6,,,54,100
9088,note_off,,,,,256,0,13,,,,,6,,,63,100
9152,note_off,,,,,128,0,10,,,,,3,,,59,100
9152,note_off,,,,,128,0,16,,,,,7,,,47,100
9152,note_off,,,,,128,0,14,,,,,6,,,47,100
9152,note_off,,,,,128,0,11,,,,,4,,,47,100
9152,note_off,,,,,128,0,9,,,,,2,,,63,100
9152,note_off,,,,,128,0,8,,,,,1,,,66,100
9216,note_on,,,,,448,0,12,,,,,5,,,40,50
9216,note_on,,,,,0,0,13,,,,,6,,,64,80
9216,note_on,,,,,64,0,14,,,,,6,,,52,80
9216,note_on,,,,,64,0,9,,,,,2,,,64,50
9216,note_on,,,,,0,0,15,,,,,7,,,64,80
9216,note_on,,,,,1664,0,7,,,,,0,,,83,85
9216,note_on,,,,,64,0,16,,,,,7,,,52,80
9216,note_on,,,,,64,0,11,,,,,4,,,52,50
9216,note_on,,,,,64,0,8,,,,,1,,,67,50
9216,note_on,,,,,0,0,15,,,,,7,,,55,80
9216,note_on,,,,,512,0,15,,,,,7,,,59,80
9216,note_on,,,,,128,0,13,,,,,6,,,59,80
9216,note_on,,,,,64,0,10,,,,,3,,,59,50
9216,note_on,,,,,0,0,13,,,,,6,,,55,80
9472,note_off,,,,,256,0,11,,,,,4,,,52,100
9472,note_off,,,,,256,0,15,,,,,7,,,59,100
9472,note_off,,,,,256,0,16,,,,,7,,,52,100
9472,note_off,,,,,256,0,14,,,,,6,,,52,100
9472,note_off,,,,,256,0,8,,,,,1,,,67,100
9472,note_off,,,,,0,0,15,,,,,7,,,64,100
9472,note_off,,,,,0,0,13,,,,,6,,,55,100
9472,note_off,,,,,0,0,15,,,,,7,,,55,100
9472,note_off,,,,,256,0,12,,,,,5,,,40,100
9472,note_off,,,,,256,0,10,,,,,3,,,59,100
9472,note_off,,,,,256,0,13,,,,,6,,,59,100
9472,note_off,,,,,256,0,9,,,,,2,,,64,100
9472,note_off,,,,,0,0,13,,,,,6,,,64,100
9660,note_off,,,,,444,0,7,,,,,0,,,83,100
9696,note_on,,,,,36,0,7,,,,,0,,,79,85
9740,note_off,,,,,44,0,7,,,,,0,,,79,100
9744,note_on,,,,,4,0,7,,,,,0,,,81,85
9788,note_off,,,,,44,0,7,,,,,0,,,81,100
9792,note_on,,,,,4,0,7,,,,,0,,,83,86
9836,note_off,,,,,44,0,7,,,,,0,,,83,100
9840,note_on,,,,,4,0,7,,,,,0,,,79,87
9884,note_off,,,,,44,0,7,,,,,0,,,79,100
9888,note_on,,,,,4,0,7,,,,,0,,,81,87
9932,note_off,,,,,44,0,7,,,,,0,,,81,100
9936,note_on,,,,,4,0,7,,,,,0,,,83,88
9968,note_off,,,,,32,0,7,,,,,0,,,83,100
9984,note_on,,,,,512,0,10,,,,,3,,,71,50
9984,note_on,,,,,512,0,8,,,,,1,,,79,50
9984,note_on,,,,,512,0,9,,,,,2,,,76,50
9984,note_on,,,,,512,0,16,,,,,7,,,52,80
9984,note_on,,,,,0,0,15,,,,,7,,,64,80
9984,note_on,,,,,0,0,15,,,,,7,,,67,80
9984,note_on,,,,,512,0,11,,,,,4,,,52,50
9984,note_on,,,,,512,0,13,,,,,6,,,71,80
9984,note_on,,,,,512,0,15,,,,,7,,,71,80
9984,note_on,,,,,16,0,7,,,,,0,,,76,89
9984,note_on,,,,,0,0,13,,,,,6,,,67,80
9984,note_on,,,,,0,0,13,,,,,6,,,64,80
9984,note_on,,,,,512,0,14,,,,,6,,,52,80
10076,note_off,,,,,92,0,7,,,,,0,,,76,100
10080,note_on,,,,,4,0,7,,,,,0,,,83,90
10156,note_off,,,,,76,0,7,,,,,0,,,83,100
10176,note_on,,,,,20,0,7,,,,,0,,,88,92
10240,note_off,,,,,256,0,11,,,,,4,,,52,100
10240,note_off,,,,,256,0,13,,,,,6,,,71,100
10240,note_off,,,,,256,0,15,,,,,7,,,71,100
10240,note_off,,,,,256,0,16,,,,,7,,,52,100
10240,note_off,,,,,0,0,13,,,,,6,,,67,100
10240,note_off,,,,,0,0,15,,,,,7,,,67,100
10240,note_off,,,,,256,0,9,,,,,2,,,76,100
10240,note_off,,,,,256,0,8,,,,,1,,,79,100
10240,note_off,,,,,0,0,15,,,,,7,,,64,100
10240,note_off,,,,,256,0,14,,,,,6,,,52,100
10240,note_off,,,,,256,0,10,,,,,3,,,71,100
10240,note_off,,,,,0,0,13,,,,,6,,,64,100
10268,note_off,,,,,92,0,7,,,,,0,,,88,100
10272,note_on,,,,,4,0,7,,,,,0,,,83,91
10348,note_off,,,,,76,0,7,,,,,0,,,83,100
10368,note_on,,,,,20,0,7,,,,,0,,,84,90
10460,note_off,,,,,92,0,7,,,,,0,,,84,100
10464,note_on,,,,,4,0,7,,,,,0,,,81,88
10528,note_off,,,,,64,0,7,,,,,0,,,81,100
10560,note_on,,,,,32,0,7,,,,,0,,,77,87
10652,note_off,,,,,92,0,7,,,,,0,,,77,100
10656,note_on,,,,,4,0,7,,,,,0,,,76,86
10720,note_off,,,,,64,0,7,,,,,0,,,76,100
10752,note_on,,,,,32,0,7,,,,,0,,,75,85
10752,note_on,,,,,512,0,14,,,,,6,,,47,80
10752,note_on,,,,,512,0,13,,,,,6,,,71,80
10752,note_on,,,,,0,0,13,,,,,6,,,63,80
10752,note_on,,,,,0,0,13,,,,,6,,,66,80
10752,note_on,,,,,512,0,11,,,,,4,,,47,50
10752,note_on,,,,,512,0,15,,,,,7,,,71,80
10752,note_on,,,,,512,0,9,,,,,2,,,75,50
10752,note_on,,,,,512,0,8,,,,,1,,,78,50
10752,note_on,,,,,0,0,15,,,,,7,,,63,80
10752,note_on,,,,,0,0,15,,,,,7,,,66,80
10752,note_on,,,,,512,0,10,,,,,3,,,71,50
10752,note_on,,,,,512,0,16,,,,,7,,,47,80
11008,note_off,,,,,256,0,11,,,,,4,,,47,100
11008,note_off,,,,,256,0,8,,,,,1,,,78,100
11008,note_off,,,,,256,0,15,,,,,7,,,71,100
11008,note_off,,,,,0,0,15,,,,,7,,,63,100
11008,note_off,,,,,256,0,16,,,,,7,,,47,100
11008,note_off,,,,,256,0,14,,,,,6,,,47,100
11008,note_off,,,,,0,0,15,,,,,7,,,66,100
11008,note_off,,,,,256,0,10,,,,,3,,,71,100
11008,note_off,,,,,256,0,9,,,,,2,,,75,100
11008,note_off,,,,,256,0,13,,,,,6,,,71,100
11008,note_off,,,,,0,0,13,,,,,6,,,66,100
11008,note_off,,,,,0,0,13,,,,,6,,,63,100
11212,note_off,,,,,460,0,7,,,,,0,,,75,100
11232,note_on,,,,,20,0,7,,,,,0,,,75,85
11276,note_off,,,,,44,0,7,,,,,0,,,75,100
11280,note_on,,,,,4,0,7,,,,,0,,,76,85
11324,note_off,,,,,44,0,7,,,,,0,,,76,100
11328,note_on,,,,,4,0,7,,,,,0,,,78,85
11372,note_off,,,,,44,0,7,,,,,0,,,78,100
11376,note_on,,,,,4,0,7,,,,,0,,,79,85
11420,note_off,,,,,44,0,7,,,,,0,,,79,100
11424,note_on,,,,,4,0,7,,,,,0,,,81,85
11468,note_off,,,,,44,0,7,,,,,0,,,81,100
11472,note_on,,,,,4,0,7,,,,,0,,,83,85
11504,note_off,,,,,32,0,7,,,,,0,,,83,100
11520,note_on,,,,,512,0,15,,,,,7,,,71,80
11520,note_on,,,,,0,0,15,,,,,7,,,63,80
11520,note_on,,,,,0,0,15,,,,,7,,,66,80
11520,note_on,,,,,512,0,14,,,,,6,,,47,80
11520,note_on,,,,,512,0,13,,,,,6,,,71,80
11520,note_on,,,,,0,0,13,,,,,6,,,63,80
11520,note_on,,,,,512,0,8,,,,,1,,,78,50
11520,note_on,,,,,512,0,9,,,,,2,,,75,50
11520,note_on,,,,,512,0,11,,,,,4,,,47,50
11520,note_on,,,,,512,0,10,,,,,3,,,71,50
11520,note_on,,,,,512,0,16,,,,,7,,,47,80
11520,note_on,,,,,16,0,7,,,,,0,,,75,85
11520,note_on,,,,,0,0,13,,,,,6,,,66,80
11596,note_off,,,,,76,0,7,,,,,0,,,75,100
11616,note_on,,,,,20,0,7,,,,,0,,,75,85
11660,note_off,,,,,44,0,7,,,,,0,,,75,100
11664,note_on,,,,,4,0,7,,,,,0,,,76,85
11708,note_off,,,,,44,0,7,,,,,0,,,76,100
11712,note_on,,,,,4,0,7,,,,,0,,,78,85
11756,note_off,,,,,44,0,7,,,,,0,,,78,100
11760,note_on,,,,,4,0,7,,,,,0,,,79,85
11776,note_off,,,,,256,0,14,,,,,6,,,47,100
11776,note_off,,,,,256,0,16,,,,,7,,,47,100
11776,note_off,,,,,256,0,8,,,,,1,,,78,100
11776,note_off,,,,,256,0,11,,,,,4,,,47,100
11776,note_off,,,,,256,0,10,,,,,3,,,71,100
11776,note_off,,,,,256,0,9,,,,,2,,,75,100
11776,note_off,,,,,256,0,13,,,,,6,,,71,100
11776,note_off,,,,,0,0,13,,,,,6,,,63,100
11776,note_off,,,,,256,0,15,,,,,7,,,71,100
11776,note_off,,,,,0,0,15,,,,,7,,,66,100
11776,note_off,,,,,0,0,15,,,,,7,,,63,100
11776,note_off,,,,,0,0,13,,,,,6,,,66,100
11804,note_off,,,,,44,0,7,,,,,0,,,79,100
11808,note_on,,,,,4,0,7,,,,,0,,,81,85
11852,note_off,,,,,44,0,7,,,,,0,,,81,100
11856,note_on,,,,,4,0,7,,,,,0,,,83,85
11888,note_off,,,,,32,0,7,,,,,0,,,83,100
11904,note_on,,,,,16,0,7,,,,,0,,,71,85
11980,note_off,,,,,76,0,7,,,,,0,,,71,100
12000,note_on,,,,,20,0,7,,,,,0,,,73,85
12044,note_off,,,,,44,0,7,,,,,0,,,73,100
12048,note_on,,,,,4,0,7,,,,,0,,,75,85
12092,note_off,,,,,44,0,7,,,,,0,,,75,100
12096,note_on,,,,,4,0,7,,,,,0,,,76,85
12140,note_off,,,,,44,0,7,,,,,0,,,76,100
12144,note_on,,,,,4,0,7,,,,,0,,,78,85
12188,note_off,,,,,44,0,7,,,,,0,,,78,100
12192,note_on,,,,,4,0,7,,,,,0,,,79,85
12236,note_off,,,,,44,0,7,,,,,0,,,79,100
12240,note_on,,,,,4,0,7,,,,,0,,,81,85
12272,note_off,,,,,32,0,7,,,,,0,,,81,100
12288,note_on,,,,,512,0,13,,,,,6,,,71,80
12288,note_on,,,,,0,0,13,,,,,6,,,67,80
12288,note_on,,,,,0,0,13,,,,,6,,,64,80
12288,note_on,,,,,512,0,9,,,,,2,,,76,50
12288,note_on,,,,,512,0,15,,,,,7,,,71,80
12288,note_on,,,,,0,0,15,,,,,7,,,67,80
12288,note_on,,,,,512,0,10,,,,,3,,,71,50
12288,note_on,,,,,512,0,11,,,,,4,,,52,50
12288,note_on,,,,,512,0,8,,,,,1,,,79,50
12288,note_on,,,,,512,0,16,,,,,7,,,52,80
12288,note_on,,,,,0,0,15,,,,,7,,,64,80
12288,note_on,,,,,16,0,7,,,,,0,,,81,85
12288,note_on,,,,,512,0,14,,,,,6,,,52,80
12316,note_off,,,,,28,0,7,,,,,0,,,81,100
12320,note_on,,,,,4,0,7,,,,,0,,,79,85
12332,note_off,,,,,12,0,7,,,,,0,,,79,100
12336,note_on,,,,,4,0,7,,,,,0,,,81,85
12348,note_off,,,,,12,0,7,,,,,0,,,81,100
12352,note_on,,,,,4,0,7,,,,,0,,,79,85
12380,note_off,,,,,28,0,7,,,,,0,,,79,100
12384,note_on,,,,,4,0,7,,,,,0,,,78,85
12476,note_off,,,,,92,0,7,,,,,0,,,78,100
12480,note_on,,,,,4,0,7,,,,,0,,,76,85
12544,note_off,,,,,256,0,13,,,,,6,,,71,100
12544,note_off,,,,,0,0,13,,,,,6,,,67,100
12544,note_off,,,,,256,0,16,,,,,7,,,52,100
12544,note_off,,,,,256,0,10,,,,,3,,,71,100
12544,note_off,,,,,0,0,13,,,,,6,,,64,100
12544,note_off,,,,,256,0,9,,,,,2,,,76,100
12544,note_off,,,,,0,0,15,,,,,7,,,64,100
12544,note_off,,,,,0,0,15,,,,,7,,,67,100
12544,note_off,,,,,256,0,15,,,,,7,,,71,100
12544,note_off,,,,,256,0,11,,,,,4,,,52,100
12544,note_off,,,,,256,0,14,,,,,6,,,52,100
12544,note_off,,,,,256,0,8,,,,,1,,,79,100
12608,note_off,,,,,128,0,7,,,,,0,,,76,100
12768,note_on,,,,,160,0,7,,,,,0,,,88,85
12844,note_off,,,,,76,0,7,,,,,0,,,88,100
12864,note_on,,,,,20,0,7,,,,,0,,,85,86
12940,note_off,,,,,76,0,7,,,,,0,,,85,100
12960,note_on,,,,,20,0,7,,,,,0,,,83,88
13036,note_off,,,,,76,0,7,,,,,0,,,83,100
13056,note_on,,,,,20,0,7,,,,,0,,,82,89
13056,note_on,,,,,0,0,13,,,,,6,,,66,80
13056,note_on,,,,,0,0,13,,,,,6,,,70,80
13056,note_on,,,,,512,0,15,,,,,7,,,73,80
13056,note_on,,,,,512,0,9,,,,,2,,,73,50
13056,note_on,,,,,0,0,15,,,,,7,,,70,80
13056,note_on,,,,,512,0,13,,,,,6,,,73,80
13056,note_on,,,,,512,0,11,,,,,4,,,54,50
13056,note_on,,,,,0,0,15,,,,,7,,,66,80
13056,note_on,,,,,512,0,8,,,,,1,,,78,50
13056,note_on,,,,,512,0,16,,,,,7,,,54,80
13056,note_on,,,,,512,0,10,,,,,3,,,70,50
13056,note_on,,,,,512,0,14,,,,,6,,,54,80
13312,note_off,,,,,256,0,8,,,,,1,,,78,100
13312,note_off,,,,,256,0,16,,,,,7,,,54,100
13312,note_off,,,,,256,0,14,,,,,6,,,54,100
13312,note_off,,,,,0,0,15,,,,,7,,,66,100
13312,note_off,,,,,0,0,15,,,,,7,,,70,100
13312,note_off,,,,,256,0,10,,,,,3,,,70,100
13312,note_off,,,,,256,0,11,,,,,4,,,54,100
13312,note_off,,,,,0,0,13,,,,,6,,,66,100
13312,note_off,,,,,0,0,13,,,,,6,,,70,100
13312,note_off,,,,,256,0,13,,,,,6,,,73,100
13312,note_off,,,,,256,0,9,,,,,2,,,73,100
13312,note_off,,,,,256,0,15,,,,,7,,,73,100
13516,note_off,,,,,460,0,7,,,,,0,,,82,100
13536,note_on,,,,,20,0,7,,,,,0,,,85,90
13612,note_off,,,,,76,0,7,,,,,0,,,85,100
13632,note_on,,,,,20,0,7,,,,,0,,,78,89
13708,note_off,,,,,76,0,7,,,,,0,,,78,100
13728,note_on,,,,,20,0,7,,,,,0,,,76,87
13804,note_off,,,,,76,0,7,,,,,0,,,76,100
13824,note_on,,,,,0,0,13,,,,,6,,,66,80
13824,note_on,,,,,0,0,15,,,,,7,,,66,80
13824,note_on,,,,,512,0,14,,,,,6,,,47,80
13824,note_on,,,,,0,0,15,,,,,7,,,71,80
13824,note_on,,,,,512,0,11,,,,,4,,,47,50
13824,note_on,,,,,512,0,13,,,,,6,,,62,80
13824,note_on,,,,,512,0,16,,,,,7,,,47,80
13824,note_on,,,,,512,0,15,,,,,7,,,62,80
13824,note_on,,,,,512,0,10,,,,,3,,,66,50
13824,note_on,,,,,512,0,9,,,,,2,,,71,50
13824,note_on,,,,,512,0,8,,,,,1,,,74,50
13824,note_on,,,,,0,0,13,,,,,6,,,71,80
13824,note_on,,,,,20,0,7,,,,,0,,,74,85
13916,note_off,,,,,92,0,7,,,,,0,,,74,100
13920,note_on,,,,,4,0,7,,,,,0,,,78,87
13996,note_off,,,,,76,0,7,,,,,0,,,78,100
14016,note_on,,,,,20,0,7,,,,,0,,,83,89
14080,note_off,,,,,256,0,9,,,,,2,,,71,100
14080,note_off,,,,,0,0,15,,,,,7,,,71,100
14080,note_off,,,,,0,0,15,,,,,7,,,66,100
14080,note_off,,,,,256,0,15,,,,,7,,,62,100
14080,note_off,,,,,256,0,8,,,,,1,,,74,100
14080,note_off,,,,,256,0,11,,,,,4,,,47,100
14080,note_off,,,,,256,0,14,,,,,6,,,47,100
14080,note_off,,,,,256,0,10,,,,,3,,,66,100
14080,note_off,,,,,0,0,13,,,,,6,,,71,100
14080,note_off,,,,,0,0,13,,,,,6,,,66,100
14080,note_off,,,,,256,0,13,,,,,6,,,62,100
14080,note_off,,,,,256,0,16,,,,,7,,,47,100
14108,note_off,,,,,92,0,7,,,,,0,,,83,100
14112,note_on,,,,,4,0,7,,,,,0,,,71,85
14188,note_off,,,,,76,0,7,,,,,0,,,71,100
14208,note_on,,,,,128,0,14,,,,,6,,,54,80
14208,note_on,,,,,128,0,15,,,,,7,,,70,80
14208,note_on,,,,,0,0,15,,,,,7,,,73,80
14208,note_on,,,,,20,0,7,,,,,0,,,74,90
14208,note_on,,,,,128,0,8,,,,,1,,,73,50
14208,note_on,,,,,128,0,11,,,,,4,,,54,50
14208,note_on,,,,,128,0,13,,,,,6,,,70,80
14208,note_on,,,,,0,0,13,,,,,6,,,73,80
14208,note_on,,,,,128,0,16,,,,,7,,,54,80
14208,note_on,,,,,128,0,10,,,,,3,,,66,50
14208,note_on,,,,,128,0,9,,,,,2,,,70,50
14252,note_off,,,,,44,0,7,,,,,0,,,74,100
14256,note_on,,,,,4,0,7,,,,,0,,,73,90
14268,note_off,,,,,12,0,7,,,,,0,,,73,100
14272,note_on,,,,,4,0,7,,,,,0,,,74,89
14284,note_off,,,,,12,0,7,,,,,0,,,74,100
14288,note_on,,,,,4,0,7,,,,,0,,,73,89
14300,note_off,,,,,12,0,7,,,,,0,,,73,100
14304,note_on,,,,,4,0,7,,,,,0,,,74,89
14316,note_off,,,,,12,0,7,,,,,0,,,74,100
14320,note_on,,,,,4,0,7,,,,,0,,,73,89
14332,note_off,,,,,12,0,7,,,,,0,,,73,100
14336,note_on,,,,,4,0,7,,,,,0,,,74,88
14348,note_off,,,,,12,0,7,,,,,0,,,74,100
14352,note_on,,,,,4,0,7,,,,,0,,,73,88
14364,note_off,,,,,12,0,7,,,,,0,,,73,100
14368,note_on,,,,,4,0,7,,,,,0,,,74,88
14380,note_off,,,,,12,0,7,,,,,0,,,74,100
14384,note_on,,,,,4,0,7,,,,,0,,,73,87
14464,note_off,,,,,256,0,16,,,,,7,,,54,100
14464,note_off,,,,,256,0,10,,,,,3,,,66,100
14464,note_off,,,,,256,0,13,,,,,6,,,70,100
14464,note_off,,,,,256,0,9,,,,,2,,,70,100
14464,note_off,,,,,256,0,11,,,,,4,,,54,100
14464,note_off,,,,,256,0,15,,,,,7,,,70,100
14464,note_off,,,,,0,0,15,,,,,7,,,73,100
14464,note_off,,,,,256,0,14,,,,,6,,,54,100
14464,note_off,,,,,256,0,8,,,,,1,,,73,100
14464,note_off,,,,,0,0,13,,,,,6,,,73,100
14488,note_off,,,,,104,0,7,,,,,0,,,73,100
14496,note_on,,,,,8,0,7,,,,,0,,,71,86
14572,note_off,,,,,76,0,7,,,,,0,,,71,100
14592,note_on,,,,,128,0,11,,,,,4,,,47,50
14592,note_on,,,,,128,0,8,,,,,1,,,74,50
14592,note_on,,,,,128,0,15,,,,,7,,,74,80
14592,note_on,,,,,0,0,15,,,,,7,,,66,80
14592,note_on,,,,,0,0,13,,,,,6,,,71,80
14592,note_on,,,,,128,0,16,,,,,7,,,47,80
14592,note_on,,,,,0,0,13,,,,,6,,,66,80
14592,note_on,,,,,128,0,13,,,,,6,,,74,80
14592,note_on,,,,,0,0,15,,,,,7,,,71,80
14592,note_on,,,,,128,0,10,,,,,3,,,66,50
14592,note_on,,,,,20,0,7,,,,,0,,,71,85
14592,note_on,,,,,128,0,14,,,,,6,,,47,80
14592,note_on,,,,,128,0,9,,,,,2,,,71,50
14848,note_off,,,,,256,0,15,,,,,7,,,74,100
14848,note_off,,,,,0,0,15,,,,,7,,,66,100
14848,note_off,,,,,0,0,13,,,,,6,,,71,100
14848,note_off,,,,,256,0,16,,,,,7,,,47,100
14848,note_off,,,,,256,0,11,,,,,4,,,47,100
14848,note_off,,,,,0,0,15,,,,,7,,,71,100
14848,note_off,,,,,256,0,8,,,,,1,,,74,100
14848,note_off,,,,,0,0,13,,,,,6,,,66,100
14848,note_off,,,,,256,0,13,,,,,6,,,74,100
14848,note_off,,,,,256,0,10,,,,,3,,,66,100
14848,note_off,,,,,256,0,9,,,,,2,,,71,100
14848,note_off,,,,,256,0,14,,,,,6,,,47,100
15052,note_off,,,,,460,0,7,,,,,0,,,71,100
15072,note_on,,,,,20,0,7,,,,,0,,,73,85
15116,note_off,,,,,44,0,7,,,,,0,,,73,100
15120,note_on,,,,,4,0,7,,,,,0,,,75,85
15164,note_off,,,,,44,0,7,,,,,0,,,75,100
15168,note_on,,,,,4,0,7,,,,,0,,,76,85
15212,note_off,,,,,44,0,7,,,,,0,,,76,100
15216,note_on,,,,,4,0,7,,,,,0,,,78,85
15260,note_off,,,,,44,0,7,,,,,0,,,78,100
15264,note_on,,,,,4,0,7,,,,,0,,,80,85
15308,note_off,,,,,44,0,7,,,,,0,,,80,100
15312,note_on,,,,,4,0,7,,,,,0,,,81,85
15344,note_off,,,,,32,0,7,,,,,0,,,81,100
15360,note_on,,,,,512,0,9,,,,,2,,,71,50
15360,note_on,,,,,512,0,13,,,,,6,,,64,80
15360,note_on,,,,,512,0,8,,,,,1,,,76,50
15360,note_on,,,,,0,0,13,,,,,6,,,71,80
15360,note_on,,,,,512,0,15,,,,,7,,,64,80
15360,note_on,,,,,0,0,15,,,,,7,,,71,80
15360,note_on,,,,,512,0,11,,,,,4,,,44,50
15360,note_on,,,,,512,0,16,,,,,7,,,44,80
15360,note_on,,,,,512,0,10,,,,,3,,,64,50
15360,note_on,,,,,0,0,13,,,,,6,,,76,80
15360,note_on,,,,,0,0,15,,,,,7,,,76,80
15360,note_on,,,,,16,0,7,,,,,0,,,83,85
15360,note_on,,,,,512,0,14,,,,,6,,,44,80
15472,note_off,,,,,112,0,7,,,,,0,,,83,100
15504,note_on,,,,,32,0,7,,,,,0,,,81,85
15548,note_off,,,,,44,0,7,,,,,0,,,81,100
15552,note_on,,,,,4,0,7,,,,,0,,,80,85
15616,note_off,,,,,0,0,13,,,,,6,,,71,100
15616,note_off,,,,,0,0,13,,,,,6,,,76,100
15616,note_off,,,,,256,0,13,,,,,6,,,64,100
15616,note_off,,,,,256,0,9,,,,,2,,,71,100
15616,note_off,,,,,256,0,16,,,,,7,,,44,100
15616,note_off,,,,,0,0,15,,,,,7,,,76,100
15616,note_off,,,,,0,0,15,,,,,7,,,71,100
15616,note_off,,,,,256,0,10,,,,,3,,,64,100
15616,note_off,,,,,256,0,15,,,,,7,,,64,100
15616,note_off,,,,,256,0,8,,,,,1,,,76,100
15616,note_off,,,,,256,0,14,,,,,6,,,44,100
15616,note_off,,,,,256,0,11,,,,,4,,,44,100
15664,note_off,,,,,112,0,7,,,,,0,,,80,100
15696,note_on,,,,,32,0,7,,,,,0,,,77,85
15740,note_off,,,,,44,0,7,,,,,0,,,77,100
15744,note_on,,,,,4,0,7,,,,,0,,,76,85
15896,note_off,,,,,152,0,7,,,,,0,,,76,100
15936,note_on,,,,,40,0,7,,,,,0,,,74,85
16088,note_off,,,,,152,0,7,,,,,0,,,74,100
16128,note_on,,,,,40,0,7,,,,,0,,,74,85
16128,note_on,,,,,512,0,13,,,,,6,,,73,80
16128,note_on,,,,,0,0,13,,,,,6,,,64,80
16128,note_on,,,,,512,0,11,,,,,4,,,45,50
16128,note_on,,,,,0,0,13,,,,,6,,,69,80
16128,note_on,,,,,512,0,14,,,,,6,,,45,80
16128,note_on,,,,,512,0,10,,,,,3,,,57,50
16128,note_on,,,,,512,0,15,,,,,7,,,73,80
16128,note_on,,,,,0,0,15,,,,,7,,,64,80
16128,note_on,,,,,512,0,16,,,,,7,,,45,80
16128,note_on,,,,,512,0,8,,,,,1,,,76,50
16128,note_on,,,,,0,0,15,,,,,7,,,69,80
16128,note_on,,,,,512,0,9,,,,,2,,,73,50
16220,note_off,,,,,92,0,7,,,,,0,,,74,100
16224,note_on,,,,,4,0,7,,,,,0,,,73,83
16236,note_off,,,,,12,0,7,,,,,0,,,73,100
16240,note_on,,,,,4,0,7,,,,,0,,,74,83
16252,note_off,,,,,12,0,7,,,,,0,,,74,100
16256,note_on,,,,,4,0,7,,,,,0,,,73,83
16268,note_off,,,,,12,0,7,,,,,0,,,73,100
16272,note_on,,,,,4,0,7,,,,,0,,,74,82
16284,note_off,,,,,12,0,7,,,,,0,,,74,100
16288,note_on,,,,,4,0,7,,,,,0,,,73,82
16300,note_off,,,,,12,0,7,,,,,0,,,73,100
16304,note_on,,,,,4,0,7,,,,,0,,,74,82
16316,note_off,,,,,12,0,7,,,,,0,,,74,100
16320,note_on,,,,,4,0,7,,,,,0,,,73,81
16332,note_off,,,,,12,0,7,,,,,0,,,73,100
16336,note_on,,,,,4,0,7,,,,,0,,,74,81
16348,note_off,,,,,12,0,7,,,,,0,,,74,100
16352,note_on,,,,,4,0,7,,,,,0,,,73,81
16384,note_off,,,,,256,0,10,,,,,3,,,57,100
16384,note_off,,,,,256,0,14,,,,,6,,,45,100
16384,note_off,,,,,256,0,8,,,,,1,,,76,100
16384,note_off,,,,,256,0,9,,,,,2,,,73,100
16384,note_off,,,,,256,0,13,,,,,6,,,73,100
16384,note_off,,,,,256,0,11,,,,,4,,,45,100
16384,note_off,,,,,0,0,13,,,,,6,,,64,100
16384,note_off,,,,,0,0,15,,,,,7,,,64,100
16384,note_off,,,,,0,0,15,,,,,7,,,69,100
16384,note_off,,,,,256,0,15,,,,,7,,,73,100
16384,note_off,,,,,256,0,16,,,,,7,,,45,100
16384,note_off,,,,,0,0,13,,,,,6,,,69,100
16536,note_off,,,,,184,0,7,,,,,0,,,73,100
16560,note_on,,,,,24,0,7,,,,,0,,,69,85
16604,note_off,,,,,44,0,7,,,,,0,,,69,100
16608,note_on,,,,,4,0,7,,,,,0,,,71,85
16652,note_off,,,,,44,0,7,,,,,0,,,71,100
16656,note_on,,,,,4,0,7,,,,,0,,,73,85
16700,note_off,,,,,44,0,7,,,,,0,,,73,100
16704,note_on,,,,,4,0,7,,,,,0,,,74,85
16748,note_off,,,,,44,0,7,,,,,0,,,74,100
16752,note_on,,,,,4,0,7,,,,,0,,,76,85
16796,note_off,,,,,44,0,7,,,,,0,,,76,100
16800,note_on,,,,,4,0,7,,,,,0,,,78,85
16844,note_off,,,,,44,0,7,,,,,0,,,78,100
16848,note_on,,,,,4,0,7,,,,,0,,,79,85
16880,note_off,,,,,32,0,7,,,,,0,,,79,100
16896,note_on,,,,,512,0,14,,,,,6,,,42,80
16896,note_on,,,,,512,0,11,,,,,4,,,42,50
16896,note_on,,,,,512,0,8,,,,,1,,,74,50
16896,note_on,,,,,16,0,7,,,,,0,,,81,85
16896,note_on,,,,,512,0,16,,,,,7,,,42,80
16896,note_on,,,,,512,0,15,,,,,7,,,62,80
16896,note_on,,,,,0,0,15,,,,,7,,,74,80
16896,note_on,,,,,0,0,15,,,,,7,,,69,80
16896,note_on,,,,,512,0,10,,,,,3,,,62,50
16896,note_on,,,,,512,0,9,,,,,2,,,69,50
16896,note_on,,,,,0,0,13,,,,,6,,,74,80
16896,note_on,,,,,512,0,13,,,,,6,,,62,80
16896,note_on,,,,,0,0,13,,,,,6,,,69,80
17008,note_off,,,,,112,0,7,,,,,0,,,81,100
17040,note_on,,,,,32,0,7,,,,,0,,,79,85
17084,note_off,,,,,44,0,7,,,,,0,,,79,100
17088,note_on,,,,,4,0,7,,,,,0,,,78,85
17152,note_off,,,,,256,0,14,,,,,6,,,42,100
17152,note_off,,,,,0,0,15,,,,,7,,,74,100
17152,note_off,,,,,256,0,11,,,,,4,,,42,100
17152,note_off,,,,,256,0,8,,,,,1,,,74,100
17152,note_off,,,,,256,0,9,,,,,2,,,69,100
17152,note_off,,,,,256,0,10,,,,,3,,,62,100
17152,note_off,,,,,256,0,16,,,,,7,,,42,100
17152,note_off,,,,,256,0,13,,,,,6,,,62,100
17152,note_off,,,,,0,0,13,,,,,6,,,69,100
17152,note_off,,,,,256,0,15,,,,,7,,,62,100
17152,note_off,,,,,0,0,15,,,,,7,,,69,100
17152,note_off,,,,,0,0,13,,,,,6,,,74,100
17200,note_off,,,,,112,0,7,,,,,0,,,78,100
17232,note_on,,,,,32,0,7,,,,,0,,,76,85
17276,note_off,,,,,44,0,7,,,,,0,,,76,100
17280,note_on,,,,,4,0,7,,,,,0,,,74,85
17432,note_off,,,,,152,0,7,,,,,0,,,74,100
17472,note_on,,,,,40,0,7,,,,,0,,,72,85
17624,note_off,,,,,152,0,7,,,,,0,,,72,100
17664,note_on,,,,,40,0,7,,,,,0,,,72,85
17664,note_on,,,,,512,0,11,,,,,4,,,43,50
17664,note_on,,,,,512,0,9,,,,,2,,,71,50
17664,note_on,,,,,512,0,10,,,,,3,,,55,50
17664,note_on,,,,,512,0,8,,,,,1,,,74,50
17664,note_on,,,,,512,0,15,,,,,7,,,62,80
17664,note_on,,,,,0,0,15,,,,,7,,,67,80
17664,note_on,,,,,512,0,14,,,,,6,,,43,80
17664,note_on,,,,,0,0,15,,,,,7,,,71,80
17664,note_on,,,,,512,0,16,,,,,7,,,43,80
17664,note_on,,,,,0,0,13,,,,,6,,,71,80
17664,note_on,,,,,0,0,13,,,,,6,,,67,80
17664,note_on,,,,,512,0,13,,,,,6,,,62,80
17756,note_off,,,,,92,0,7,,,,,0,,,72,100
17760,note_on,,,,,4,0,7,,,,,0,,,71,83
17772,note_off,,,,,12,0,7,,,,,0,,,71,100
17776,note_on,,,,,4,0,7,,,,,0,,,72,83
17788,note_off,,,,,12,0,7,,,,,0,,,72,100
17792,note_on,,,,,4,0,7,,,,,0,,,71,83
17804,note_off,,,,,12,0,7,,,,,0,,,71,100
17808,note_on,,,,,4,0,7,,,,,0,,,72,82
17820,note_off,,,,,12,0,7,,,,,0,,,72,100
17824,note_on,,,,,4,0,7,,,,,0,,,71,82
17836,note_off,,,,,12,0,7,,,,,0,,,71,100
17840,note_on,,,,,4,0,7,,,,,0,,,72,82
17852,note_off,,,,,12,0,7,,,,,0,,,72,100
17856,note_on,,,,,4,0,7,,,,,0,,,71,81
17868,note_off,,,,,12,0,7,,,,,0,,,71,100
17872,note_on,,,,,4,0,7,,,,,0,,,72,81
17884,note_off,,,,,12,0,7,,,,,0,,,72,100
17888,note_on,,,,,4,0,7,,,,,0,,,71,81
17920,note_off,,,,,256,0,15,,,,,7,,,62,100
17920,note_off,,,,,0,0,15,,,,,7,,,67,100
17920,note_off,,,,,0,0,15,,,,,7,,,71,100
17920,note_off,,,,,256,0,8,,,,,1,,,74,100
17920,note_off,,,,,256,0,14,,,,,6,,,43,100
17920,note_off,,,,,256,0,16,,,,,7,,,43,100
17920,note_off,,,,,256,0,13,,,,,6,,,62,100
17920,note_off,,,,,256,0,10,,,,,3,,,55,100
17920,note_off,,,,,0,0,13,,,,,6,,,71,100
17920,note_off,,,,,0,0,13,,,,,6,,,67,100
17920,note_off,,,,,256,0,9,,,,,2,,,71,100
17920,note_off,,,,,256,0,11,,,,,4,,,43,100
18028,note_off,,,,,140,0,7,,,,,0,,,71,100
18144,note_on,,,,,116,0,7,,,,,0,,,83,85
18220,note_off,,,,,76,0,7,,,,,0,,,83,100
18240,note_on,,,,,20,0,7,,,,,0,,,79,86
18316,note_off,,,,,76,0,7,,,,,0,,,79,100
18336,note_on,,,,,20,0,7,,,,,0,,,76,87
18412,note_off,,,,,76,0,7,,,,,0,,,76,100
18432,note_on,,,,,512,0,15,,,,,7,,,72,80
18432,note_on,,,,,512,0,10,,,,,3,,,60,50
18432,note_on,,,,,20,0,7,,,,,0,,,77,88
18432,note_on,,,,,0,0,15,,,,,7,,,69,80
18432,note_on,,,,,512,0,8,,,,,1,,,77,50
18432,note_on,,,,,512,0,11,,,,,4,,,45,50
18432,note_on,,,,,512,0,14,,,,,6,,,45,80
18432,note_on,,,,,512,0,9,,,,,2,,,72,50
18432,note_on,,,,,512,0,16,,,,,7,,,45,80
18432,note_on,,,,,512,0,13,,,,,6,,,72,80
18432,note_on,,,,,0,0,13,,,,,6,,,69,80
18432,note_on,,,,,0,0,13,,,,,6,,,65,80
18432,note_on,,,,,0,0,15,,,,,7,,,65,80
18508,note_off,,,,,76,0,7,,,,,0,,,77,100
18528,note_on,,,,,20,0,7,,,,,0,,,81,89
18572,note_off,,,,,44,0,7,,,,,0,,,81,100
18576,note_on,,,,,4,0,7,,,,,0,,,80,90
18620,note_off,,,,,44,0,7,,,,,0,,,80,100
18624,note_on,,,,,4,0,7,,,,,0,,,81,90
18688,note_off,,,,,0,0,13,,,,,6,,,65,100
18688,note_off,,,,,256,0,15,,,,,7,,,72,100
18688,note_off,,,,,256,0,14,,,,,6,,,45,100
18688,note_off,,,,,256,0,9,,,,,2,,,72,100
18688,note_off,,,,,0,0,13,,,,,6,,,69,100
18688,note_off,,,,,256,0,16,,,,,7,,,45,100
18688,note_off,,,,,256,0,13,,,,,6,,,72,100
18688,note_off,,,,,256,0,10,,,,,3,,,60,100
18688,note_off,,,,,0,0,15,,,,,7,,,65,100
18688,note_off,,,,,0,0,15,,,,,7,,,69,100
18688,note_off,,,,,256,0,11,,,,,4,,,45,100
18688,note_off,,,,,256,0,8,,,,,1,,,77,100
18700,note_off,,,,,76,0,7,,,,,0,,,81,100
18720,note_on,,,,,20,0,7,,,,,0,,,84,91
18764,note_off,,,,,44,0,7,,,,,0,,,84,100
18768,note_on,,,,,4,0,7,,,,,0,,,83,92
18812,note_off,,,,,44,0,7,,,,,0,,,83,100
18816,note_on,,,,,4,0,7,,,,,0,,,84,93
18908,note_off,,,,,92,0,7,,,,,0,,,84,100
18912,note_on,,,,,4,0,7,,,,,0,,,81,92
18988,note_off,,,,,76,0,7,,,,,0,,,81,100
19008,note_on,,,,,20,0,7,,,,,0,,,77,90
19100,note_off,,,,,92,0,7,,,,,0,,,77,100
19104,note_on,,,,,4,0,7,,,,,0,,,81,88
19180,note_off,,,,,76,0,7,,,,,0,,,81,100
19200,note_on,,,,,512,0,16,,,,,7,,,47,80
19200,note_on,,,,,512,0,10,,,,,3,,,59,50
19200,note_on,,,,,20,0,7,,,,,0,,,76,86
19200,note_on,,,,,512,0,15,,,,,7,,,71,80
19200,note_on,,,,,512,0,9,,,,,2,,,75,50
19200,note_on,,,,,512,0,13,,,,,6,,,71,80
19200,note_on,,,,,0,0,13,,,,,6,,,63,80
19200,note_on,,,,,0,0,13,,,,,6,,,66,80
19200,note_on,,,,,512,0,11,,,,,4,,,47,50
19200,note_on,,,,,512,0,14,,,,,6,,,47,80
19200,note_on,,,,,512,0,8,,,,,1,,,78,50
19200,note_on,,,,,0,0,15,,,,,7,,,66,80
19200,note_on,,,,,0,0,15,,,,,7,,,63,80
19388,note_off,,,,,188,0,7,,,,,0,,,76,100
19392,note_on,,,,,4,0,7,,,,,0,,,75,85
19456,note_off,,,,,256,0,8,,,,,1,,,78,100
19456,note_off,,,,,256,0,16,,,,,7,,,47,100
19456,note_off,,,,,256,0,10,,,,,3,,,59,100
19456,note_off,,,,,0,0,13,,,,,6,,,63,100
19456,note_off,,,,,256,0,11,,,,,4,,,47,100
19456,note_off,,,,,256,0,9,,,,,2,,,75,100
19456,note_off,,,,,256,0,14,,,,,6,,,47,100
19456,note_off,,,,,0,0,15,,,,,7,,,63,100
19456,note_off,,,,,256,0,13,,,,,6,,,71,100
19456,note_off,,,,,0,0,13,,,,,6,,,66,100
19456,note_off,,,,,256,0,15,,,,,7,,,71,100
19456,note_off,,,,,0,0,15,,,,,7,,,66,100
19620,note_off,,,,,228,0,7,,,,,0,,,75,100
19680,note_on,,,,,60,0,7,,,,,0,,,81,85
19756,note_off,,,,,76,0,7,,,,,0,,,81,100
19776,note_on,,,,,20,0,7,,,,,0,,,79,85
19852,note_off,,,,,76,0,7,,,,,0,,,79,100
19872,note_on,,,,,20,0,7,,,,,0,,,78,85
19948,note_off,,,,,76,0,7,,,,,0,,,78,100
19968,note_on,,,,,512,0,16,,,,,7,,,52,80
19968,note_on,,,,,0,0,15,,,,,7,,,67,80
19968,note_on,,,,,512,0,15,,,,,7,,,71,80
19968,note_on,,,,,512,0,10,,,,,3,,,71,50
19968,note_on,,,,,0,0,13,,,,,6,,,67,80
19968,note_on,,,,,0,0,13,,,,,6,,,64,80
19968,note_on,,,,,512,0,9,,,,,2,,,76,50
19968,note_on,,,,,512,0,13,,,,,6,,,71,80
19968,note_on,,,,,20,0,7,,,,,0,,,79,85
19968,note_on,,,,,0,0,15,,,,,7,,,64,80
19968,note_on,,,,,512,0,11,,,,,4,,,52,50
19968,note_on,,,,,512,0,8,,,,,1,,,79,50
19968,note_on,,,,,512,0,14,,,,,6,,,52,80
20120,note_off,,,,,152,0,7,,,,,0,,,79,100
20160,set_tempo,,,,,14784,1,0,,2068965,,,,,,,
20160,note_on,,,,,40,0,7,,,,,0,,,78,85
20224,note_off,,,,,256,0,15,,,,,7,,,71,100
20224,note_off,,,,,256,0,10,,,,,3,,,71,100
20224,note_off,,,,,256,0,14,,,,,6,,,52,100
20224,note_off,,,,,0,0,15,,,,,7,,,67,100
20224,note_off,,,,,256,0,9,,,,,2,,,76,100
20224,note_off,,,,,0,0,13,,,,,6,,,64,100
20224,note_off,,,,,256,0,11,,,,,4,,,52,100
20224,note_off,,,,,256,0,13,,,,,6,,,71,100
20224,note_off,,,,,0,0,15,,,,,7,,,64,100
20224,note_off,,,,,0,0,13,,,,,6,,,67,100
20224,note_off,,,,,256,0,8,,,,,1,,,79,100
20224,note_off,,,,,256,0,16,,,,,7,,,52,100
20236,note_off,,,,,76,0,7,,,,,0,,,78,100
20256,note_on,,,,,20,0,7,,,,,0,,,76,85
20332,note_off,,,,,76,0,7,,,,,0,,,76,100
20352,note_on,,,,,128,0,14,,,,,6,,,47,80
20352,note_on,,,,,128,0,10,,,,,3,,,71,50
20352,note_on,,,,,128,0,11,,,,,4,,,47,50
20352,note_on,,,,,128,0,8,,,,,1,,,78,50
20352,note_on,,,,,128,0,16,,,,,7,,,47,80
20352,note_on,,,,,128,0,13,,,,,6,,,63,80
20352,note_on,,,,,0,0,13,,,,,6,,,66,80
20352,note_on,,,,,128,0,15,,,,,7,,,63,80
20352,note_on,,,,,0,0,15,,,,,7,,,66,80
20352,note_on,,,,,0,0,15,,,,,7,,,71,80
20352,note_on,,,,,0,0,13,,,,,6,,,71,80
20352,note_on,,,,,128,0,9,,,,,2,,,75,50
20352,note_on,,,,,20,0,7,,,,,0,,,76,85
20444,note_off,,,,,92,0,7,,,,,0,,,76,100
20448,set_tempo,,,,,288,1,0,,2142857,,,,,,,
20448,note_on,,,,,4,0,7,,,,,0,,,75,85
20460,note_off,,,,,12,0,7,,,,,0,,,75,100
20464,note_on,,,,,4,0,7,,,,,0,,,76,85
20476,note_off,,,,,12,0,7,,,,,0,,,76,100
20480,note_on,,,,,4,0,7,,,,,0,,,75,85
20492,note_off,,,,,12,0,7,,,,,0,,,75,100
20496,note_on,,,,,4,0,7,,,,,0,,,76,85
20508,note_off,,,,,12,0,7,,,,,0,,,76,100
20512,note_on,,,,,4,0,7,,,,,0,,,75,85
20524,note_off,,,,,12,0,7,,,,,0,,,75,100
20528,note_on,,,,,4,0,7,,,,,0,,,76,85
20540,note_off,,,,,12,0,7,,,,,0,,,76,100
20544,note_on,,,,,4,0,7,,,,,0,,,75,85
20608,note_off,,,,,0,0,13,,,,,6,,,66,100
20608,note_off,,,,,256,0,15,,,,,7,,,63,100
20608,note_off,,,,,256,0,9,,,,,2,,,75,100
20608,note_off,,,,,0,0,15,,,,,7,,,71,100
20608,note_off,,,,,0,0,15,,,,,7,,,66,100
20608,note_off,,,,,0,0,13,,,,,6,,,71,100
20608,note_off,,,,,256,0,13,,,,,6,,,63,100
20608,note_off,,,,,256,0,8,,,,,1,,,78,100
20608,note_off,,,,,256,0,16,,,,,7,,,47,100
20608,note_off,,,,,256,0,11,,,,,4,,,47,100
20608,note_off,,,,,256,0,10,,,,,3,,,71,100
20608,note_off,,,,,256,0,14,,,,,6,,,47,100
20620,note_off,,,,,76,0,7,,,,,0,,,75,100
20640,note_on,,,,,20,0,7,,,,,0,,,76,85
20716,note_off,,,,,76,0,7,,,,,0,,,76,100
20736,note_on,,,,,128,0,8,,,,,1,,,79,50
20736,note_on,,,,,0,0,13,,,,,6,,,67,80
20736,note_on,,,,,128,0,13,,,,,6,,,64,80
20736,note_on,,,,,128,0,11,,,,,4,,,52,50
20736,note_on,,,,,0,0,13,,,,,6,,,71,80
20736,note_on,,,,,0,0,15,,,,,7,,,67,80
20736,note_on,,,,,128,0,9,,,,,2,,,76,50
20736,note_on,,,,,128,0,15,,,,,7,,,64,80
20736,note_on,,,,,128,0,14,,,,,6,,,52,80
20736,note_on,,,,,20,0,7,,,,,0,,,76,85
20736,note_on,,,,,0,0,15,,,,,7,,,71,80
20736,note_on,,,,,128,0,10,,,,,3,,,71,50
20736,note_on,,,,,128,0,16,,,,,7,,,52,80
20736,set_tempo,,,,,288,1,0,,2000000,,,,,,,
20992,note_off,,,,,256,0,13,,,,,6,,,64,100
20992,note_off,,,,,0,0,13,,,,,6,,,71,100
20992,note_off,,,,,256,0,15,,,,,7,,,64,100
20992,note_off,,,,,256,0,11,,,,,4,,,52,100
20992,note_off,,,,,0,0,15,,,,,7,,,67,100
20992,note_off,,,,,0,0,15,,,,,7,,,71,100
20992,note_off,,,,,256,0,14,,,,,6,,,52,100
20992,note_off,,,,,256,0,8,,,,,1,,,79,100
20992,note_off,,,,,256,0,9,,,,,2,,,76,100
20992,note_off,,,,,0,0,13,,,,,6,,,67,100
20992,note_off,,,,,256,0,10,,,,,3,,,71,100
20992,note_off,,,,,256,0,16,,,,,7,,,52,100
20992,note_off,,,,,256,0,7,,,,,0,,,76,100
21168,note_on,,,,,176,0,7,,,,,0,,,79,85
21212,note_off,,,,,44,0,7,,,,,0,,,79,100
21216,note_on,,,,,4,0,7,,,,,0,,,78,85
21260,note_off,,,,,44,0,7,,,,,0,,,78,100
21264,note_on,,,,,4,0,7,,,,,0,,,76,86
21296,note_off,,,,,32,0,7,,,,,0,,,76,100
21312,note_on,,,,,16,0,7,,,,,0,,,83,87
21356,note_off,,,,,44,0,7,,,,,0,,,83,100
21360,note_on,,,,,4,0,7,,,,,0,,,79,88
21404,note_off,,,,,44,0,7,,,,,0,,,79,100
21408,note_on,,,,,4,0,7,,,,,0,,,78,89
21452,note_off,,,,,44,0,7,,,,,0,,,78,100
21456,note_on,,,,,4,0,7,,,,,0,,,76,90
21488,note_off,,,,,32,0,7,,,,,0,,,76,100
21504,note_on,,,,,16,0,7,,,,,0,,,88,92
21504,note_on,,,,,512,0,10,,,,,3,,,71,50
21504,note_on,,,,,512,0,16,,,,,7,,,52,80
21504,note_on,,,,,512,0,11,,,,,4,,,52,50
21504,note_on,,,,,512,0,13,,,,,6,,,71,80
21504,note_on,,,,,0,0,13,,,,,6,,,67,80
21504,note_on,,,,,512,0,8,,,,,1,,,79,50
21504,note_on,,,,,512,0,9,,,,,2,,,76,50
21504,note_on,,,,,0,0,15,,,,,7,,,64,80
21504,note_on,,,,,512,0,14,,,,,6,,,52,80
21504,note_on,,,,,0,0,15,,,,,7,,,67,80
21504,note_on,,,,,512,0,15,,,,,7,,,71,80
21504,note_on,,,,,0,0,13,,,,,6,,,64,80
21536,note_off,,,,,32,0,7,,,,,0,,,88,100
21552,note_on,,,,,16,0,7,,,,,0,,,86,91
21596,note_off,,,,,44,0,7,,,,,0,,,86,100
21600,note_on,,,,,4,0,7,,,,,0,,,84,90
21632,note_off,,,,,32,0,7,,,,,0,,,84,100
21648,note_on,,,,,16,0,7,,,,,0,,,83,89
21692,note_off,,,,,44,0,7,,,,,0,,,83,100
21696,note_on,,,,,4,0,7,,,,,0,,,81,88
21728,note_off,,,,,32,0,7,,,,,0,,,81,100
21744,note_on,,,,,16,0,7,,,,,0,,,79,87
21760,note_off,,,,,0,0,15,,,,,7,,,67,100
21760,note_off,,,,,256,0,13,,,,,6,,,71,100
21760,note_off,,,,,0,0,13,,,,,6,,,64,100
21760,note_off,,,,,0,0,13,,,,,6,,,67,100
21760,note_off,,,,,256,0,16,,,,,7,,,52,100
21760,note_off,,,,,256,0,9,,,,,2,,,76,100
21760,note_off,,,,,256,0,10,,,,,3,,,71,100
21760,note_off,,,,,0,0,15,,,,,7,,,64,100
21760,note_off,,,,,256,0,11,,,,,4,,,52,100
21760,note_off,,,,,256,0,14,,,,,6,,,52,100
21760,note_off,,,,,256,0,8,,,,,1,,,79,100
21760,note_off,,,,,256,0,15,,,,,7,,,71,100
21788,note_off,,,,,44,0,7,,,,,0,,,79,100
21792,note_on,,,,,4,0,7,,,,,0,,,78,86
21824,note_off,,,,,32,0,7,,,,,0,,,78,100
21840,note_on,,,,,16,0,7,,,,,0,,,76,90
21872,note_off,,,,,32,0,7,,,,,0,,,76,100
21888,note_on,,,,,0,0,13,,,,,6,,,66,80
21888,note_on,,,,,128,0,13,,,,,6,,,63,80
21888,note_on,,,,,0,0,15,,,,,7,,,66,80
21888,note_on,,,,,0,0,15,,,,,7,,,71,80
21888,note_on,,,,,128,0,9,,,,,2,,,75,50
21888,note_on,,,,,128,0,15,,,,,7,,,63,80
21888,note_on,,,,,128,0,11,,,,,4,,,47,50
21888,note_on,,,,,128,0,10,,,,,3,,,71,50
21888,note_on,,,,,128,0,14,,,,,6,,,47,80
21888,note_on,,,,,16,0,7,,,,,0,,,76,90
21888,note_on,,,,,0,0,13,,,,,6,,,71,80
21888,note_on,,,,,128,0,16,,,,,7,,,47,80
21888,note_on,,,,,128,0,8,,,,,1,,,78,50
21980,note_off,,,,,92,0,7,,,,,0,,,76,100
21984,note_on,,,,,4,0,7,,,,,0,,,75,88
21996,note_off,,,,,12,0,7,,,,,0,,,75,100
22000,note_on,,,,,4,0,7,,,,,0,,,76,88
22012,note_off,,,,,12,0,7,,,,,0,,,76,100
22016,note_on,,,,,4,0,7,,,,,0,,,75,88
22028,note_off,,,,,12,0,7,,,,,0,,,75,100
22032,note_on,,,,,4,0,7,,,,,0,,,76,87
22044,note_off,,,,,12,0,7,,,,,0,,,76,100
22048,note_on,,,,,4,0,7,,,,,0,,,75,87
22060,note_off,,,,,12,0,7,,,,,0,,,75,100
22064,note_on,,,,,4,0,7,,,,,0,,,76,87
22076,note_off,,,,,12,0,7,,,,,0,,,76,100
22080,note_on,,,,,4,0,7,,,,,0,,,75,87
22144,note_off,,,,,256,0,8,,,,,1,,,78,100
22144,note_off,,,,,256,0,13,,,,,6,,,63,100
22144,note_off,,,,,0,0,13,,,,,6,,,71,100
22144,note_off,,,,,0,0,13,,,,,6,,,66,100
22144,note_off,,,,,0,0,15,,,,,7,,,71,100
22144,note_off,,,,,0,0,15,,,,,7,,,66,100
22144,note_off,,,,,256,0,9,,,,,2,,,75,100
22144,note_off,,,,,256,0,15,,,,,7,,,63,100
22144,note_off,,,,,256,0,10,,,,,3,,,71,100
22144,note_off,,,,,256,0,11,,,,,4,,,47,100
22144,note_off,,,,,256,0,14,,,,,6,,,47,100
22144,note_off,,,,,256,0,16,,,,,7,,,47,100
22156,note_off,,,,,76,0,7,,,,,0,,,75,100
22176,note_on,,,,,20,0,7,,,,,0,,,76,85
22252,note_off,,,,,76,0,7,,,,,0,,,76,100
22272,note_on,,,,,128,0,14,,,,,6,,,52,80
22272,note_on,,,,,0,0,13,,,,,6,,,64,80
22272,note_on,,,,,0,0,13,,,,,6,,,67,80
22272,note_on,,,,,128,0,13,,,,,6,,,71,80
22272,note_on,,,,,128,0,10,,,,,3,,,71,85
22272,note_on,,,,,20,0,7,,,,,0,,,76,84
22272,note_on,,,,,128,0,9,,,,,2,,,76,85
22272,note_on,,,,,128,0,15,,,,,7,,,71,80
22272,note_on,,,,,128,0,11,,,,,4,,,52,85
22272,note_on,,,,,128,0,16,,,,,7,,,52,80
22272,note_on,,,,,0,0,15,,,,,7,,,64,80
22272,note_on,,,,,12800,0,12,,,,,5,,,40,85
22272,note_on,,,,,0,0,15,,,,,7,,,67,80
22272,note_on,,,,,128,0,8,,,,,1,,,79,85
22400,note_off,,,,,128,0,10,,,,,3,,,71,100
22400,note_off,,,,,128,0,9,,,,,2,,,76,100
22400,note_off,,,,,128,0,11,,,,,4,,,52,100
22400,note_off,,,,,128,0,16,,,,,7,,,52,100
22400,note_off,,,,,128,0,12,,,,,5,,,40,100
22400,note_off,,,,,128,0,14,,,,,6,,,52,100
22400,note_off,,,,,128,0,8,,,,,1,,,79,100
22464,note_on,,,,,64,0,11,,,,,4,,,52,75
22464,note_on,,,,,64,0,16,,,,,7,,,52,80
22464,note_on,,,,,64,0,8,,,,,1,,,79,75
22464,note_on,,,,,64,0,12,,,,,5,,,40,75
22464,note_on,,,,,64,0,14,,,,,6,,,52,80
22464,note_on,,,,,64,0,10,,,,,3,,,71,75
22464,note_on,,,,,64,0,9,,,,,2,,,76,75
22528,note_off,,,,,0,0,15,,,,,7,,,67,100
22528,note_off,,,,,256,0,7,,,,,0,,,76,100
22528,end_of_track,,,,,0,1,7,,,,,,,,,
22528,note_off,,,,,0,0,13,,,,,6,,,64,100
22528,note_off,,,,,0,0,13,,,,,6,,,67,100
22528,note_off,,,,,0,0,15,,,,,7,,,64,100
22528,note_off,,,,,256,0,13,,,,,6,,,71,100
22528,note_off,,,,,256,0,15,,,,,7,,,71,100
22592,note_off,,,,,128,0,16,,,,,7,,,52,100
22592,note_off,,,,,128,0,9,,,,,2,,,76,100
22592,note_off,,,,,128,0,14,,,,,6,,,52,100
22592,note_off,,,,,128,0,10,,,,,3,,,71,100
22592,note_off,,,,,128,0,11,,,,,4,,,52,100
22592,note_off,,,,,128,0,12,,,,,5,,,40,100
22592,note_off,,,,,128,0,8,,,,,1,,,79,100
22656,note_on,,,,,64,0,16,,,,,7,,,52,80
22656,note_on,,,,,64,0,11,,,,,4,,,52,55
22656,note_on,,,,,64,0,8,,,,,1,,,67,55
22656,note_on,,,,,128,0,13,,,,,6,,,55,80
22656,note_on,,,,,64,0,9,,,,,2,,,64,55
22656,note_on,,,,,64,0,14,,,,,6,,,52,80
22656,note_on,,,,,64,0,10,,,,,3,,,59,55
22784,note_off,,,,,128,0,11,,,,,4,,,52,100
22784,note_off,,,,,128,0,9,,,,,2,,,64,100
22784,note_off,,,,,128,0,14,,,,,6,,,52,100
22784,note_off,,,,,128,0,8,,,,,1,,,67,100
22784,note_off,,,,,128,0,10,,,,,3,,,59,100
22784,note_off,,,,,128,0,16,,,,,7,,,52,100
22848,note_on,,,,,64,0,14,,,,,6,,,52,80
22848,note_on,,,,,64,0,8,,,,,1,,,67,55
22848,note_on,,,,,64,0,10,,,,,3,,,59,55
22848,note_on,,,,,64,0,11,,,,,4,,,52,55
22848,note_on,,,,,64,0,16,,,,,7,,,52,80
22848,note_on,,,,,64,0,9,,,,,2,,,64,55
22912,note_off,,,,,256,0,13,,,,,6,,,55,100
22976,note_off,,,,,128,0,9,,,,,2,,,64,100
22976,note_off,,,,,128,0,8,,,,,1,,,67,100
22976,note_off,,,,,128,0,16,,,,,7,,,52,100
22976,note_off,,,,,128,0,11,,,,,4,,,52,100
22976,note_off,,,,,128,0,14,,,,,6,,,52,100
22976,note_off,,,,,128,0,10,,,,,3,,,59,100
23040,note_on,,,,,0,0,15,,,,,7,,,64,80
23040,note_on,,,,,64,0,8,,,,,1,,,78,85
23040,note_on,,,,,64,0,9,,,,,2,,,76,85
23040,note_on,,,,,64,0,11,,,,,4,,,47,85
23040,note_on,,,,,64,0,16,,,,,7,,,47,80
23040,set_tempo,,,,,2304,1,0,,2000000,,,,,,,
23040,note_on,,,,,0,0,15,,,,,7,,,66,80
23040,note_on,,,,,448,0,12,,,,,5,,,35,85
23040,note_on,,,,,512,0,15,,,,,7,,,59,80
23040,note_on,,,,,128,0,13,,,,,6,,,59,80
23040,note_on,,,,,0,0,13,,,,,6,,,64,80
23040,note_on,,,,,0,0,13,,,,,6,,,66,80
23040,note_on,,,,,64,0,14,,,,,6,,,47,80
23040,note_on,,,,,64,0,10,,,,,3,,,71,85
23168,note_off,,,,,128,0,8,,,,,1,,,78,100
23168,note_off,,,,,128,0,10,,,,,3,,,71,100
23168,note_off,,,,,128,0,16,,,,,7,,,47,100
23168,note_off,,,,,128,0,12,,,,,5,,,35,100
23168,note_off,,,,,128,0,11,,,,,4,,,47,100
23168,note_off,,,,,128,0,14,,,,,6,,,47,100
23168,note_off,,,,,128,0,9,,,,,2,,,76,100
23232,note_on,,,,,64,0,8,,,,,1,,,78,75
23232,note_on,,,,,64,0,10,,,,,3,,,71,75
23232,note_on,,,,,64,0,11,,,,,4,,,47,75
23232,note_on,,,,,64,0,16,,,,,7,,,47,80
23232,note_on,,,,,64,0,12,,,,,5,,,35,75
23232,note_on,,,,,64,0,9,,,,,2,,,76,75
23232,note_on,,,,,64,0,14,,,,,6,,,47,80
23296,note_off,,,,,0,0,13,,,,,6,,,64,100
23296,note_off,,,,,256,0,13,,,,,6,,,59,100
23296,note_off,,,,,0,0,13,,,,,6,,,66,100
23296,note_off,,,,,0,0,15,,,,,7,,,64,100
23296,note_off,,,,,0,0,15,,,,,7,,,66,100
23296,note_off,,,,,256,0,15,,,,,7,,,59,100
23360,note_off,,,,,128,0,14,,,,,6,,,47,100
23360,note_off,,,,,128,0,10,,,,,3,,,71,100
23360,note_off,,,,,128,0,9,,,,,2,,,76,100
23360,note_off,,,,,128,0,8,,,,,1,,,78,100
23360,note_off,,,,,128,0,12,,,,,5,,,35,100
23360,note_off,,,,,128,0,11,,,,,4,,,47,100
23360,note_off,,,,,128,0,16,,,,,7,,,47,100
23424,note_on,,,,,64,0,16,,,,,7,,,47,80
23424,set_tempo,,,,,384,1,0,,2068965,,,,,,,
23424,note_on,,,,,128,0,13,,,,,6,,,54,80
23424,note_on,,,,,64,0,8,,,,,1,,,66,55
23424,note_on,,,,,64,0,10,,,,,3,,,59,55
23424,note_on,,,,,64,0,11,,,,,4,,,47,55
23424,note_on,,,,,64,0,14,,,,,6,,,47,80
23424,note_on,,,,,64,0,9,,,,,2,,,64,55
23552,note_off,,,,,128,0,11,,,,,4,,,47,100
23552,note_off,,,,,128,0,16,,,,,7,,,47,100
23552,note_off,,,,,128,0,14,,,,,6,,,47,100
23552,note_off,,,,,128,0,9,,,,,2,,,64,100
23552,note_off,,,,,128,0,8,,,,,1,,,66,100
23552,note_off,,,,,128,0,10,,,,,3,,,59,100
23616,note_on,,,,,64,0,8,,,,,1,,,66,55
23616,note_on,,,,,64,0,9,,,,,2,,,64,55
23616,note_on,,,,,64,0,11,,,,,4,,,47,55
23616,note_on,,,,,64,0,14,,,,,6,,,47,80
23616,note_on,,,,,64,0,16,,,,,7,,,47,80
23616,note_on,,,,,64,0,10,,,,,3,,,59,55
23680,note_off,,,,,256,0,13,,,,,6,,,54,100
23744,note_off,,,,,128,0,10,,,,,3,,,59,100
23744,note_off,,,,,128,0,9,,,,,2,,,64,100
23744,note_off,,,,,128,0,11,,,,,4,,,47,100
23744,note_off,,,,,128,0,14,,,,,6,,,47,100
23744,note_off,,,,,128,0,8,,,,,1,,,66,100
23744,note_off,,,,,128,0,16,,,,,7,,,47,100
23808,note_on,,,,,64,0,9,,,,,2,,,75,85
23808,note_on,,,,,64,0,16,,,,,7,,,47,80
23808,set_tempo,,,,,384,1,0,,2142857,,,,,,,
23808,note_on,,,,,0,0,13,,,,,6,,,59,80
23808,note_on,,,,,0,0,15,,,,,7,,,59,80
23808,note_on,,,,,0,0,13,,,,,6,,,63,80
23808,note_on,,,,,64,0,11,,,,,4,,,47,85
23808,note_on,,,,,64,0,14,,,,,6,,,47,80
23808,note_on,,,,,64,0,10,,,,,3,,,71,85
23808,note_on,,,,,512,0,15,,,,,7,,,63,80
23808,note_on,,,,,0,0,15,,,,,7,,,66,80
23808,note_on,,,,,64,0,8,,,,,1,,,78,85
23808,note_on,,,,,448,0,12,,,,,5,,,35,85
23808,note_on,,,,,128,0,13,,,,,6,,,66,80
23936,note_off,,,,,128,0,11,,,,,4,,,47,100
23936,note_off,,,,,128,0,14,,,,,6,,,47,100
23936,note_off,,,,,128,0,8,,,,,1,,,78,100
23936,note_off,,,,,128,0,16,,,,,7,,,47,100
23936,note_off,,,,,128,0,12,,,,,5,,,35,100
23936,note_off,,,,,128,0,10,,,,,3,,,71,100
23936,note_off,,,,,128,0,9,,,,,2,,,75,100
24000,note_on,,,,,64,0,9,,,,,2,,,75,75
24000,note_on,,,,,64,0,16,,,,,7,,,47,80
24000,note_on,,,,,64,0,12,,,,,5,,,35,75
24000,note_on,,,,,64,0,11,,,,,4,,,47,75
24000,note_on,,,,,64,0,14,,,,,6,,,47,80
24000,note_on,,,,,64,0,10,,,,,3,,,71,75
24000,note_on,,,,,64,0,8,,,,,1,,,78,75
24000,set_tempo,,,,,192,1,0,,2222222,,,,,,,
24064,note_off,,,,,0,0,13,,,,,6,,,59,100
24064,note_off,,,,,256,0,15,,,,,7,,,63,100
24064,note_off,,,,,0,0,15,,,,,7,,,59,100
24064,note_off,,,,,0,0,13,,,,,6,,,63,100
24064,note_off,,,,,256,0,13,,,,,6,,,66,100
24064,note_off,,,,,0,0,15,,,,,7,,,66,100
24128,note_off,,,,,128,0,9,,,,,2,,,75,100
24128,note_off,,,,,128,0,11,,,,,4,,,47,100
24128,note_off,,,,,128,0,16,,,,,7,,,47,100
24128,note_off,,,,,128,0,14,,,,,6,,,47,100
24128,note_off,,,,,128,0,10,,,,,3,,,71,100
24128,note_off,,,,,128,0,12,,,,,5,,,35,100
24128,note_off,,,,,128,0,8,,,,,1,,,78,100
24192,note_on,,,,,64,0,14,,,,,6,,,47,80
24192,note_on,,,,,128,0,13,,,,,6,,,63,80
24192,note_on,,,,,64,0,11,,,,,4,,,47,55
24192,note_on,,,,,64,0,16,,,,,7,,,47,80
24192,note_on,,,,,64,0,10,,,,,3,,,59,55
24192,note_on,,,,,0,0,13,,,,,6,,,54,80
24192,note_on,,,,,64,0,9,,,,,2,,,63,55
24192,set_tempo,,,,,192,1,0,,2307692,,,,,,,
24192,note_on,,,,,64,0,8,,,,,1,,,66,55
24288,set_tempo,,,,,96,1,0,,2400000,,,,,,,
24320,note_off,,,,,128,0,9,,,,,2,,,63,100
24320,note_off,,,,,128,0,14,,,,,6,,,47,100
24320,note_off,,,,,128,0,10,,,,,3,,,59,100
24320,note_off,,,,,128,0,16,,,,,7,,,47,100
24320,note_off,,,,,128,0,11,,,,,4,,,47,100
24320,note_off,,,,,128,0,8,,,,,1,,,66,100
24384,set_tempo,,,,,96,1,0,,2500000,,,,,,,
24384,note_on,,,,,64,0,11,,,,,4,,,47,55
24384,note_on,,,,,64,0,16,,,,,7,,,47,80
24384,note_on,,,,,64,0,10,,,,,3,,,59,55
24384,note_on,,,,,64,0,9,,,,,2,,,63,55
24384,note_on,,,,,64,0,8,,,,,1,,,66,55
24384,note_on,,,,,64,0,14,,,,,6,,,47,80
24432,set_tempo,,,,,48,1,0,,2608695,,,,,,,
24448,note_off,,,,,0,0,13,,,,,6,,,54,100
24448,note_off,,,,,256,0,13,,,,,6,,,63,100
24480,set_tempo,,,,,48,1,0,,2727272,,,,,,,
24512,note_off,,,,,128,0,11,,,,,4,,,47,100
24512,note_off,,,,,128,0,9,,,,,2,,,63,100
24512,note_off,,,,,128,0,8,,,,,1,,,66,100
24512,note_off,,,,,128,0,10,,,,,3,,,59,100
24512,note_off,,,,,128,0,14,,,,,6,,,47,100
24512,note_off,,,,,128,0,16,,,,,7,,,47,100
24528,set_tempo,,,,,48,1,0,,2857142,,,,,,,
24576,note_on,,,,,64,0,14,,,,,6,,,40,80
24576,note_on,,,,,64,0,8,,,,,1,,,67,52
24576,set_tempo,,,,,48,1,0,,3000000,,,,,,,
24576,note_on,,,,,64,0,16,,,,,7,,,40,80
24576,note_on,,,,,0,0,15,,,,,7,,,67,80
24576,note_on,,,,,512,0,15,,,,,7,,,59,80
24576,note_on,,,,,64,0,11,,,,,4,,,40,52
24576,note_on,,,,,0,0,15,,,,,7,,,64,80
24576,note_on,,,,,448,0,12,,,,,5,,,40,52
24576,note_on,,,,,64,0,9,,,,,2,,,64,52
24576,note_on,,,,,64,0,10,,,,,3,,,59,52
24636,note_on,,,,,188,0,13,,,,,6,,,52,80
24700,note_on,,,,,64,0,13,,,,,6,,,55,80
24764,note_on,,,,,64,0,13,,,,,6,,,59,80
24828,note_on,,,,,64,0,13,,,,,6,,,64,80
24960,set_tempo,,,,,384,1,0,,1500000,,,,,,,
24960,end_of_track,,,,,0,1,0,,,,,,,,,
25600,end_of_track,,,,,0,1,13,,,,,,,,,
25600,note_off,,,,,0,0,13,,,,,6,,,64,100
25600,note_off,,,,,0,0,13,,,,,6,,,59,100
25600,note_off,,,,,0,0,13,,,,,6,,,55,100
25600,note_off,,,,,772,0,13,,,,,6,,,52,100
25604,end_of_track,,,,,0,1,14,,,,,,,,,
25604,end_of_track,,,,,0,1,10,,,,,,,,,
25604,end_of_track,,,,,0,1,15,,,,,,,,,
25604,note_off,,,,,0,0,15,,,,,7,,,64,100
25604,note_off,,,,,0,0,15,,,,,7,,,67,100
25604,note_off,,,,,1028,0,15,,,,,7,,,59,100
25604,end_of_track,,,,,0,1,9,,,,,,,,,
25604,note_off,,,,,1028,0,9,,,,,2,,,64,100
25604,note_off,,,,,1028,0,10,,,,,3,,,59,100
25604,end_of_track,,,,,0,1,16,,,,,,,,,
25604,note_off,,,,,1028,0,16,,,,,7,,,40,100
25604,note_off,,,,,1028,0,11,,,,,4,,,40,100
25604,end_of_track,,,,,0,1,11,,,,,,,,,
25604,note_off,,,,,1028,0,14,,,,,6,,,40,100
25604,note_off,,,,,1028,0,12,,,,,5,,,40,100
25604,end_of_track,,,,,0,1,12,,,,,,,,,
25604,note_off,,,,,1028,0,8,,,,,1,,,67,100
26496,end_of_track,,,,,0,1,8,,,,,,,,,
26496,program_change,,,,,892,0,8,,,,,1,48,,,
