tick,type,numerator,denominator,clocks_per_click,notated_32nd_notes_per_beat,time,meta,track,data,tempo,control,value,channel,program,key,note,velocity
0,time_signature,4,4,96,8,0,1,0,,,,,,,,,
0,key_signature,,,,,0,1,14,,,,,,,Dm,,
0,end_of_track,,,,,0,1,4,,,,,,,,,
0,track_name,,,,,0,1,5,,,,,,,,,
0,control_change,,,,,0,0,5,,,0,0,0,,,,
0,program_change,,,,,0,0,5,,,,,0,40,,,
0,control_change,,,,,0,0,5,,,7,100,0,,,,
0,control_change,,,,,0,0,4,,,91,66,0,,,,
0,control_change,,,,,0,0,5,,,10,57,0,,,,
0,key_signature,,,,,0,1,5,,,,,,,Dm,,
0,end_of_track,,,,,0,1,5,,,,,,,,,
0,track_name,,,,,0,1,6,,,,,,,,,
0,control_change,,,,,0,0,6,,,0,0,0,,,,
0,program_change,,,,,0,0,6,,,,,0,40,,,
0,control_change,,,,,0,0,6,,,7,100,0,,,,
0,control_change,,,,,0,0,5,,,91,66,0,,,,
0,control_change,,,,,0,0,6,,,10,57,0,,,,
0,control_change,,,,,0,0,4,,,10,57,0,,,,
0,program_change,,,,,0,0,4,,,,,0,40,,,
0,track_name,,,,,0,1,1,,,,,,,,,
0,end_of_track,,,,,0,1,1,,,,,,,,,
0,track_name,,,,,0,1,2,,,,,,,,,
0,end_of_track,,,,,0,1,2,,,,,,,,,
0,track_name,,,,,0,1,3,,,,,,,,,
0,control_change,,,,,0,0,3,,,0,0,0,,,,
0,control_change,,,,,0,0,4,,,7,100,0,,,,
0,control_change,,,,,0,0,3,,,7,100,0,,,,
0,control_change,,,,,0,0,3,,,91,66,0,,,,
0,program_change,,,,,0,0,3,,,,,0,40,,,
0,key_signature,,,,,0,1,3,,,,,,,Dm,,
0,end_of_track,,,,,0,1,3,,,,,,,,,
0,track_name,,,,,0,1,4,,,,,,,,,
0,control_change,,,,,0,0,4,,,0,0,0,,,,
0,control_change,,,,,0,0,3,,,10,57,0,,,,
0,control_change,,,,,0,0,6,,,91,66,0,,,,
0,key_signature,,,,,0,1,6,,,,,,,Dm,,
0,end_of_track,,,,,0,1,6,,,,,,,,,
0,key_signature,,,,,0,1,12,,,,,,,Dm,,
0,note_on,,,,,0,0,13,,,,,5,,,55,70
0,key_signature,,,,,0,1,13,,,,,,,Dm,,
0,control_change,,,,,0,0,13,,,91,66,5,,,,
0,control_change,,,,,0,0,13,,,10,82,5,,,,
0,control_change,,,,,0,0,13,,,7,82,5,,,,
0,control_change,,,,,0,0,12,,,91,66,4,,,,
0,program_change,,,,,0,0,13,,,,,5,48,,,
0,track_name,,,,,0,1,13,,,,,,,,,
0,track_name,,,,,0,1,14,,,,,,,,,
0,control_change,,,,,0,0,14,,,0,0,6,,,,
0,program_change,,,,,0,0,14,,,,,6,48,,,
0,control_change,,,,,0,0,14,,,7,77,6,,,,
0,control_change,,,,,0,0,14,,,91,91,6,,,,
0,control_change,,,,,0,0,13,,,0,0,5,,,,
0,control_change,,,,,0,0,12,,,7,95,4,,,,
0,program_change,,,,,0,0,12,,,,,4,48,,,
0,control_change,,,,,0,0,12,,,0,0,4,,,,
0,track_name,,,,,0,1,7,,,,,,,,,
0,control_change,,,,,0,0,7,,,0,0,0,,,,
0,program_change,,,,,0,0,7,,,,,0,40,,,
0,control_change,,,,,0,0,7,,,7,100,0,,,,
0,control_change,,,,,0,0,7,,,10,57,0,,,,
0,control_change,,,,,0,0,7,,,91,66,0,,,,
0,key_signature,,,,,0,1,7,,,,,,,Dm,,
0,end_of_track,,,,,0,1,7,,,,,,,,,
0,track_name,,,,,0,1,8,,,,,,,,,
0,control_change,,,,,0,0,8,,,0,0,0,,,,
0,program_change,,,,,0,0,8,,,,,0,40,,,
0,control_change,,,,,0,0,8,,,7,100,0,,,,
0,control_change,,,,,0,0,8,,,10,57,0,,,,
0,control_change,,,,,0,0,8,,,91,66,0,,,,
0,key_signature,,,,,0,1,8,,,,,,,Dm,,
0,track_name,,,,,0,1,12,,,,,,,,,
0,track_name,,,,,0,1,15,,,,,,,,,
0,key_signature,,,,,0,1,4,,,,,,,Dm,,
0,program_change,,,,,0,0,15,,,,,7,6,,,
0,key_signature,,,,,0,1,10,,,,,,,Dm,,
0,control_change,,,,,0,0,10,,,91,66,2,,,,
0,control_change,,,,,0,0,10,,,10,50,2,,,,
0,control_change,,,,,0,0,10,,,7,100,2,,,,
0,program_change,,,,,0,0,10,,,,,2,48,,,
0,control_change,,,,,0,0,10,,,0,0,2,,,,
0,track_name,,,,,0,1,10,,,,,,,,,
0,key_signature,,,,,0,1,9,,,,,,,Dm,,
0,control_change,,,,,0,0,9,,,91,61,1,,,,
0,control_change,,,,,0,0,9,,,10,48,1,,,,
0,control_change,,,,,0,0,9,,,7,100,1,,,,
0,program_change,,,,,0,0,9,,,,,1,40,,,
0,control_change,,,,,0,0,9,,,0,0,1,,,,
0,track_name,,,,,0,1,9,,,,,,,,,
0,track_name,,,,,0,1,16,,,,,,,,,
0,control_change,,,,,0,0,16,,,0,0,7,,,,
0,program_change,,,,,0,0,16,,,,,7,6,,,
0,control_change,,,,,0,0,16,,,7,55,7,,,,
0,control_change,,,,,0,0,16,,,91,60,7,,,,
0,key_signature,,,,,0,1,16,,,,,,,Dm,,
0,note_on,,,,,0,0,16,,,,,7,,,55,100
0,control_change,,,,,0,0,15,,,0,0,7,,,,
0,set_tempo,,,,,0,1,0,,1111111,,,,,,,
0,sequencer_specific,,,,,0,1,0,"(0, 0, 119, 14, 1)",,,,,,,,
0,sequencer_specific,,,,,0,1,0,"(0, 0, 65)",,,,,,,,
0,track_name,,,,,0,1,11,,,,,,,,,
0,control_change,,,,,0,0,11,,,0,0,3,,,,
0,note_on,,,,,0,0,14,,,,,6,,,43,70
0,control_change,,,,,0,0,11,,,7,100,3,,,,
0,note_on,,,,,0,0,15,,,,,7,,,58,100
0,key_signature,,,,,0,1,15,,,,,,,Dm,,
0,control_change,,,,,0,0,15,,,91,60,7,,,,
0,program_change,,,,,0,0,11,,,,,3,48,,,
0,key_signature,,,,,0,1,11,,,,,,,Dm,,
0,control_change,,,,,0,0,11,,,91,67,3,,,,
0,control_change,,,,,0,0,11,,,10,38,3,,,,
0,control_change,,,,,0,0,15,,,7,55,7,,,,
28,note_on,,,,,28,0,15,,,,,7,,,62,100
60,note_on,,,,,32,0,15,,,,,7,,,67,100
128,note_off,,,,,128,0,13,,,,,5,,,55,100
128,note_off,,,,,128,0,16,,,,,7,,,55,100
128,note_off,,,,,128,0,14,,,,,6,,,43,100
192,note_on,,,,,64,0,13,,,,,5,,,55,70
192,note_on,,,,,64,0,16,,,,,7,,,55,100
192,note_on,,,,,64,0,14,,,,,6,,,43,70
320,note_off,,,,,128,0,16,,,,,7,,,55,100
320,note_off,,,,,128,0,14,,,,,6,,,43,100
320,note_off,,,,,128,0,13,,,,,5,,,55,100
384,note_on,,,,,64,0,14,,,,,6,,,43,70
384,note_on,,,,,64,0,13,,,,,5,,,55,70
384,note_on,,,,,64,0,16,,,,,7,,,55,100
512,note_off,,,,,452,0,15,,,,,7,,,58,100
512,note_off,,,,,128,0,13,,,,,5,,,55,100
512,note_off,,,,,128,0,16,,,,,7,,,55,100
512,note_off,,,,,128,0,14,,,,,6,,,43,100
540,note_off,,,,,28,0,15,,,,,7,,,62,100
572,note_off,,,,,32,0,15,,,,,7,,,67,100
576,note_on,,,,,64,0,14,,,,,6,,,43,70
576,note_on,,,,,64,0,13,,,,,5,,,55,70
576,note_on,,,,,64,0,16,,,,,7,,,55,100
704,note_off,,,,,128,0,14,,,,,6,,,43,100
704,note_off,,,,,128,0,13,,,,,5,,,55,100
704,note_off,,,,,128,0,16,,,,,7,,,55,100
768,note_on,,,,,64,0,13,,,,,5,,,55,70
768,note_on,,,,,64,0,16,,,,,7,,,55,100
768,note_on,,,,,196,0,15,,,,,7,,,60,100
768,note_on,,,,,768,0,12,,,,,4,,,57,70
768,note_on,,,,,64,0,14,,,,,6,,,43,70
796,note_on,,,,,28,0,15,,,,,7,,,67,100
828,note_on,,,,,32,0,15,,,,,7,,,69,100
896,note_off,,,,,128,0,12,,,,,4,,,57,100
896,note_off,,,,,128,0,14,,,,,6,,,43,100
896,note_off,,,,,128,0,13,,,,,5,,,55,100
896,note_off,,,,,128,0,16,,,,,7,,,55,100
960,note_on,,,,,64,0,13,,,,,5,,,55,70
960,note_on,,,,,64,0,12,,,,,4,,,57,70
960,note_on,,,,,64,0,16,,,,,7,,,55,100
960,note_on,,,,,64,0,14,,,,,6,,,43,70
1024,note_off,,,,,196,0,15,,,,,7,,,60,100
1052,note_off,,,,,28,0,15,,,,,7,,,67,100
1084,note_off,,,,,32,0,15,,,,,7,,,69,100
1088,note_off,,,,,128,0,14,,,,,6,,,43,100
1088,note_off,,,,,128,0,16,,,,,7,,,55,100
1088,note_off,,,,,128,0,12,,,,,4,,,57,100
1088,note_off,,,,,128,0,13,,,,,5,,,55,100
1152,note_on,,,,,68,0,15,,,,,7,,,69,100
1152,note_on,,,,,0,0,15,,,,,7,,,60,100
1152,note_on,,,,,64,0,16,,,,,7,,,54,100
1152,note_on,,,,,64,0,12,,,,,4,,,57,70
1152,note_on,,,,,64,0,13,,,,,5,,,54,70
1152,note_on,,,,,64,0,14,,,,,6,,,42,70
1280,note_off,,,,,128,0,16,,,,,7,,,54,100
1280,note_off,,,,,128,0,14,,,,,6,,,42,100
1280,note_off,,,,,128,0,12,,,,,4,,,57,100
1280,note_off,,,,,128,0,13,,,,,5,,,54,100
1344,note_on,,,,,64,0,16,,,,,7,,,54,100
1344,note_on,,,,,64,0,12,,,,,4,,,57,70
1344,note_on,,,,,64,0,13,,,,,5,,,54,70
1344,note_on,,,,,64,0,14,,,,,6,,,42,70
1408,note_off,,,,,0,0,15,,,,,7,,,60,100
1408,note_off,,,,,256,0,15,,,,,7,,,69,100
1472,note_off,,,,,128,0,13,,,,,5,,,54,100
1472,note_off,,,,,128,0,16,,,,,7,,,54,100
1472,note_off,,,,,128,0,14,,,,,6,,,42,100
1472,note_off,,,,,128,0,12,,,,,4,,,57,100
1536,note_on,,,,,64,0,14,,,,,6,,,43,70
1536,note_on,,,,,64,0,12,,,,,4,,,58,70
1536,note_on,,,,,64,0,13,,,,,5,,,55,70
1536,note_on,,,,,64,0,16,,,,,7,,,55,100
1536,note_on,,,,,128,0,15,,,,,7,,,58,100
1536,note_on,,,,,1536,0,11,,,,,3,,,67,70
1564,note_on,,,,,28,0,15,,,,,7,,,62,100
1596,note_on,,,,,32,0,15,,,,,7,,,67,100
1664,note_off,,,,,128,0,13,,,,,5,,,55,100
1664,note_off,,,,,128,0,11,,,,,3,,,67,100
1664,note_off,,,,,128,0,12,,,,,4,,,58,100
1664,note_off,,,,,128,0,14,,,,,6,,,43,100
1664,note_off,,,,,128,0,16,,,,,7,,,55,100
1728,note_on,,,,,64,0,11,,,,,3,,,67,70
1728,note_on,,,,,64,0,12,,,,,4,,,58,70
1728,note_on,,,,,64,0,16,,,,,7,,,55,100
1728,note_on,,,,,64,0,14,,,,,6,,,43,70
1728,note_on,,,,,64,0,13,,,,,5,,,55,70
1856,note_off,,,,,128,0,12,,,,,4,,,58,100
1856,note_off,,,,,128,0,13,,,,,5,,,55,100
1856,note_off,,,,,128,0,11,,,,,3,,,67,100
1856,note_off,,,,,128,0,14,,,,,6,,,43,100
1856,note_off,,,,,128,0,16,,,,,7,,,55,100
1920,note_on,,,,,64,0,12,,,,,4,,,58,70
1920,note_on,,,,,64,0,14,,,,,6,,,39,70
1920,note_on,,,,,64,0,11,,,,,3,,,67,70
1920,note_on,,,,,64,0,16,,,,,7,,,51,100
1920,note_on,,,,,64,0,13,,,,,5,,,51,70
2048,note_off,,,,,128,0,16,,,,,7,,,51,100
2048,note_off,,,,,128,0,13,,,,,5,,,51,100
2048,note_off,,,,,128,0,12,,,,,4,,,58,100
2048,note_off,,,,,128,0,11,,,,,3,,,67,100
2048,note_off,,,,,452,0,15,,,,,7,,,58,100
2048,note_off,,,,,128,0,14,,,,,6,,,39,100
2076,note_off,,,,,28,0,15,,,,,7,,,62,100
2108,note_off,,,,,32,0,15,,,,,7,,,67,100
2112,note_on,,,,,64,0,14,,,,,6,,,39,70
2112,note_on,,,,,64,0,16,,,,,7,,,51,100
2112,note_on,,,,,64,0,12,,,,,4,,,58,70
2112,note_on,,,,,64,0,13,,,,,5,,,51,70
2112,note_on,,,,,64,0,11,,,,,3,,,67,70
2240,note_off,,,,,128,0,11,,,,,3,,,67,100
2240,note_off,,,,,128,0,14,,,,,6,,,39,100
2240,note_off,,,,,128,0,16,,,,,7,,,51,100
2240,note_off,,,,,128,0,12,,,,,4,,,58,100
2240,note_off,,,,,128,0,13,,,,,5,,,51,100
2304,note_on,,,,,64,0,11,,,,,3,,,67,70
2304,note_on,,,,,196,0,15,,,,,7,,,63,100
2304,note_on,,,,,2304,0,10,,,,,2,,,69,70
2304,note_on,,,,,64,0,16,,,,,7,,,48,100
2304,note_on,,,,,64,0,14,,,,,6,,,36,70
2304,note_on,,,,,64,0,13,,,,,5,,,48,70
2304,note_on,,,,,64,0,12,,,,,4,,,63,70
2332,note_on,,,,,28,0,15,,,,,7,,,67,100
2364,note_on,,,,,32,0,15,,,,,7,,,69,100
2432,note_off,,,,,128,0,12,,,,,4,,,63,100
2432,note_off,,,,,128,0,16,,,,,7,,,48,100
2432,note_off,,,,,128,0,14,,,,,6,,,36,100
2432,note_off,,,,,128,0,11,,,,,3,,,67,100
2432,note_off,,,,,128,0,13,,,,,5,,,48,100
2432,note_off,,,,,128,0,10,,,,,2,,,69,100
2496,note_on,,,,,64,0,12,,,,,4,,,63,70
2496,note_on,,,,,64,0,16,,,,,7,,,48,100
2496,note_on,,,,,64,0,10,,,,,2,,,69,70
2496,note_on,,,,,64,0,13,,,,,5,,,48,70
2496,note_on,,,,,64,0,11,,,,,3,,,67,70
2496,note_on,,,,,64,0,14,,,,,6,,,36,70
2560,note_off,,,,,196,0,15,,,,,7,,,63,100
2588,note_off,,,,,28,0,15,,,,,7,,,67,100
2620,note_off,,,,,32,0,15,,,,,7,,,69,100
2624,note_off,,,,,128,0,11,,,,,3,,,67,100
2624,note_off,,,,,128,0,14,,,,,6,,,36,100
2624,note_off,,,,,128,0,16,,,,,7,,,48,100
2624,note_off,,,,,128,0,12,,,,,4,,,63,100
2624,note_off,,,,,128,0,10,,,,,2,,,69,100
2624,note_off,,,,,128,0,13,,,,,5,,,48,100
2688,note_on,,,,,64,0,10,,,,,2,,,69,70
2688,note_on,,,,,0,0,15,,,,,7,,,66,100
2688,note_on,,,,,64,0,11,,,,,3,,,66,70
2688,note_on,,,,,64,0,13,,,,,5,,,50,70
2688,note_on,,,,,68,0,15,,,,,7,,,69,100
2688,note_on,,,,,64,0,14,,,,,6,,,38,70
2688,note_on,,,,,64,0,16,,,,,7,,,50,100
2688,note_on,,,,,64,0,12,,,,,4,,,62,70
2816,note_off,,,,,128,0,14,,,,,6,,,38,100
2816,note_off,,,,,128,0,11,,,,,3,,,66,100
2816,note_off,,,,,128,0,16,,,,,7,,,50,100
2816,note_off,,,,,128,0,12,,,,,4,,,62,100
2816,note_off,,,,,128,0,13,,,,,5,,,50,100
2816,note_off,,,,,128,0,10,,,,,2,,,69,100
2880,note_on,,,,,64,0,10,,,,,2,,,69,70
2880,note_on,,,,,64,0,11,,,,,3,,,66,70
2880,note_on,,,,,64,0,12,,,,,4,,,62,70
2880,note_on,,,,,64,0,13,,,,,5,,,50,70
2880,note_on,,,,,64,0,14,,,,,6,,,38,70
2880,note_on,,,,,64,0,16,,,,,7,,,50,100
2944,note_off,,,,,256,0,15,,,,,7,,,69,100
2944,note_off,,,,,0,0,15,,,,,7,,,66,100
3008,note_off,,,,,128,0,14,,,,,6,,,38,100
3008,note_off,,,,,128,0,11,,,,,3,,,66,100
3008,note_off,,,,,128,0,13,,,,,5,,,50,100
3008,note_off,,,,,128,0,12,,,,,4,,,62,100
3008,note_off,,,,,128,0,10,,,,,2,,,69,100
3008,note_off,,,,,128,0,16,,,,,7,,,50,100
3072,note_on,,,,,64,0,16,,,,,7,,,55,100
3072,note_on,,,,,64,0,14,,,,,6,,,43,70
3072,note_on,,,,,128,0,15,,,,,7,,,62,100
3072,note_on,,,,,64,0,12,,,,,4,,,62,70
3072,note_on,,,,,64,0,11,,,,,3,,,65,70
3072,note_on,,,,,64,0,13,,,,,5,,,55,70
3072,note_on,,,,,64,0,10,,,,,2,,,71,70
3100,note_on,,,,,28,0,15,,,,,7,,,65,100
3132,note_on,,,,,32,0,15,,,,,7,,,67,100
3200,note_off,,,,,128,0,13,,,,,5,,,55,100
3200,note_off,,,,,128,0,14,,,,,6,,,43,100
3200,note_off,,,,,128,0,11,,,,,3,,,65,100
3200,note_off,,,,,128,0,10,,,,,2,,,71,100
3200,note_off,,,,,128,0,12,,,,,4,,,62,100
3200,note_off,,,,,128,0,16,,,,,7,,,55,100
3264,note_on,,,,,64,0,11,,,,,3,,,65,70
3264,note_on,,,,,64,0,13,,,,,5,,,55,70
3264,note_on,,,,,64,0,10,,,,,2,,,71,70
3264,note_on,,,,,64,0,12,,,,,4,,,62,70
3264,note_on,,,,,64,0,14,,,,,6,,,43,70
3264,note_on,,,,,64,0,16,,,,,7,,,55,100
3392,note_off,,,,,128,0,14,,,,,6,,,43,100
3392,note_off,,,,,128,0,16,,,,,7,,,55,100
3392,note_off,,,,,128,0,11,,,,,3,,,65,100
3392,note_off,,,,,128,0,12,,,,,4,,,62,100
3392,note_off,,,,,128,0,13,,,,,5,,,55,100
3392,note_off,,,,,128,0,10,,,,,2,,,71,100
3456,note_on,,,,,64,0,12,,,,,4,,,62,70
3456,note_on,,,,,64,0,11,,,,,3,,,65,70
3456,note_on,,,,,64,0,14,,,,,6,,,43,70
3456,note_on,,,,,64,0,16,,,,,7,,,55,100
3456,note_on,,,,,64,0,13,,,,,5,,,55,70
3456,note_on,,,,,64,0,10,,,,,2,,,71,70
3584,note_off,,,,,128,0,12,,,,,4,,,62,100
3584,note_off,,,,,128,0,13,,,,,5,,,55,100
3584,note_off,,,,,452,0,15,,,,,7,,,62,100
3584,note_off,,,,,128,0,10,,,,,2,,,71,100
3584,note_off,,,,,128,0,14,,,,,6,,,43,100
3584,note_off,,,,,128,0,11,,,,,3,,,65,100
3584,note_off,,,,,128,0,16,,,,,7,,,55,100
3612,note_off,,,,,28,0,15,,,,,7,,,65,100
3644,note_off,,,,,32,0,15,,,,,7,,,67,100
3648,note_on,,,,,64,0,11,,,,,3,,,65,70
3648,note_on,,,,,64,0,10,,,,,2,,,71,70
3648,note_on,,,,,64,0,12,,,,,4,,,62,70
3648,note_on,,,,,64,0,16,,,,,7,,,55,100
3648,note_on,,,,,64,0,13,,,,,5,,,55,70
3648,note_on,,,,,64,0,14,,,,,6,,,43,70
3776,note_off,,,,,128,0,11,,,,,3,,,65,100
3776,note_off,,,,,128,0,13,,,,,5,,,55,100
3776,note_off,,,,,128,0,14,,,,,6,,,43,100
3776,note_off,,,,,128,0,10,,,,,2,,,71,100
3776,note_off,,,,,128,0,16,,,,,7,,,55,100
3776,note_off,,,,,128,0,12,,,,,4,,,62,100
3840,note_on,,,,,64,0,14,,,,,6,,,43,70
3840,note_on,,,,,64,0,13,,,,,5,,,55,70
3840,note_on,,,,,196,0,15,,,,,7,,,61,100
3840,note_on,,,,,64,0,12,,,,,4,,,57,70
3840,note_on,,,,,64,0,16,,,,,7,,,55,100
3840,note_on,,,,,64,0,10,,,,,2,,,73,70
3840,note_on,,,,,64,0,11,,,,,3,,,64,70
3868,note_on,,,,,28,0,15,,,,,7,,,64,100
3900,note_on,,,,,32,0,15,,,,,7,,,69,100
3968,note_off,,,,,128,0,10,,,,,2,,,73,100
3968,note_off,,,,,128,0,12,,,,,4,,,57,100
3968,note_off,,,,,128,0,14,,,,,6,,,43,100
3968,note_off,,,,,128,0,13,,,,,5,,,55,100
3968,note_off,,,,,128,0,16,,,,,7,,,55,100
3968,note_off,,,,,128,0,11,,,,,3,,,64,100
4032,note_on,,,,,64,0,11,,,,,3,,,76,70
4032,note_on,,,,,64,0,10,,,,,2,,,73,70
4032,note_on,,,,,64,0,12,,,,,4,,,57,70
4032,note_on,,,,,64,0,13,,,,,5,,,55,70
4032,note_on,,,,,64,0,16,,,,,7,,,55,100
4032,note_on,,,,,64,0,14,,,,,6,,,43,70
4160,note_off,,,,,128,0,16,,,,,7,,,55,100
4160,note_off,,,,,128,0,14,,,,,6,,,43,100
4160,note_off,,,,,128,0,12,,,,,4,,,57,100
4160,note_off,,,,,128,0,10,,,,,2,,,73,100
4160,note_off,,,,,128,0,11,,,,,3,,,76,100
4160,note_off,,,,,128,0,13,,,,,5,,,55,100
4224,note_on,,,,,64,0,16,,,,,7,,,55,100
4224,note_on,,,,,64,0,12,,,,,4,,,69,70
4224,note_on,,,,,64,0,14,,,,,6,,,43,70
4224,note_on,,,,,64,0,13,,,,,5,,,55,70
4224,note_on,,,,,64,0,11,,,,,3,,,76,70
4224,note_on,,,,,64,0,10,,,,,2,,,73,70
4352,note_off,,,,,452,0,15,,,,,7,,,61,100
4352,note_off,,,,,128,0,14,,,,,6,,,43,100
4352,note_off,,,,,128,0,11,,,,,3,,,76,100
4352,note_off,,,,,128,0,12,,,,,4,,,69,100
4352,note_off,,,,,128,0,10,,,,,2,,,73,100
4352,note_off,,,,,128,0,16,,,,,7,,,55,100
4352,note_off,,,,,128,0,13,,,,,5,,,55,100
4380,note_off,,,,,28,0,15,,,,,7,,,64,100
4412,note_off,,,,,32,0,15,,,,,7,,,69,100
4416,note_on,,,,,64,0,14,,,,,6,,,43,70
4416,note_on,,,,,64,0,16,,,,,7,,,55,100
4416,note_on,,,,,64,0,10,,,,,2,,,73,70
4416,note_on,,,,,64,0,12,,,,,4,,,69,70
4416,note_on,,,,,64,0,13,,,,,5,,,55,70
4416,note_on,,,,,64,0,11,,,,,3,,,76,70
4544,note_off,,,,,128,0,16,,,,,7,,,55,100
4544,note_off,,,,,128,0,10,,,,,2,,,73,100
4544,note_off,,,,,128,0,11,,,,,3,,,76,100
4544,note_off,,,,,128,0,13,,,,,5,,,55,100
4544,note_off,,,,,128,0,14,,,,,6,,,43,100
4544,note_off,,,,,128,0,12,,,,,4,,,69,100
4608,note_on,,,,,64,0,12,,,,,4,,,69,70
4608,note_on,,,,,196,0,15,,,,,7,,,62,100
4608,note_on,,,,,64,0,16,,,,,7,,,53,100
4608,note_on,,,,,64,0,11,,,,,3,,,77,70
4608,note_on,,,,,64,0,10,,,,,2,,,74,70
4608,note_on,,,,,64,0,14,,,,,6,,,41,70
4608,note_on,,,,,64,0,13,,,,,5,,,53,70
4636,note_on,,,,,28,0,15,,,,,7,,,65,100
4668,note_on,,,,,32,0,15,,,,,7,,,69,100
4736,note_off,,,,,128,0,16,,,,,7,,,53,100
4736,note_off,,,,,128,0,13,,,,,5,,,53,100
4736,note_off,,,,,128,0,11,,,,,3,,,77,100
4736,note_off,,,,,128,0,12,,,,,4,,,69,100
4736,note_off,,,,,128,0,10,,,,,2,,,74,100
4736,note_off,,,,,128,0,14,,,,,6,,,41,100
4800,note_on,,,,,64,0,10,,,,,2,,,74,70
4800,note_on,,,,,64,0,12,,,,,4,,,69,70
4800,note_on,,,,,64,0,14,,,,,6,,,41,70
4800,note_on,,,,,64,0,13,,,,,5,,,53,70
4800,note_on,,,,,64,0,16,,,,,7,,,53,100
4800,note_on,,,,,64,0,11,,,,,3,,,77,70
4864,note_off,,,,,196,0,15,,,,,7,,,62,100
4892,note_off,,,,,28,0,15,,,,,7,,,65,100
4924,note_off,,,,,32,0,15,,,,,7,,,69,100
4928,note_off,,,,,128,0,14,,,,,6,,,41,100
4928,note_off,,,,,128,0,10,,,,,2,,,74,100
4928,note_off,,,,,128,0,12,,,,,4,,,69,100
4928,note_off,,,,,128,0,13,,,,,5,,,53,100
4928,note_off,,,,,128,0,11,,,,,3,,,77,100
4928,note_off,,,,,128,0,16,,,,,7,,,53,100
4992,note_on,,,,,64,0,14,,,,,6,,,44,70
4992,note_on,,,,,64,0,11,,,,,3,,,77,70
4992,note_on,,,,,64,0,12,,,,,4,,,71,70
4992,note_on,,,,,64,0,10,,,,,2,,,74,70
4992,note_on,,,,,0,0,15,,,,,7,,,62,100
4992,note_on,,,,,68,0,15,,,,,7,,,65,100
4992,note_on,,,,,64,0,16,,,,,7,,,44,100
4992,note_on,,,,,64,0,13,,,,,5,,,44,70
5120,note_off,,,,,128,0,10,,,,,2,,,74,100
5120,note_off,,,,,128,0,14,,,,,6,,,44,100
5120,note_off,,,,,128,0,12,,,,,4,,,71,100
5120,note_off,,,,,128,0,11,,,,,3,,,77,100
5120,note_off,,,,,128,0,16,,,,,7,,,44,100
5120,note_off,,,,,128,0,13,,,,,5,,,44,100
5184,note_on,,,,,64,0,11,,,,,3,,,77,70
5184,note_on,,,,,64,0,14,,,,,6,,,44,70
5184,note_on,,,,,64,0,12,,,,,4,,,71,70
5184,note_on,,,,,64,0,16,,,,,7,,,44,100
5184,note_on,,,,,64,0,10,,,,,2,,,74,70
5184,note_on,,,,,64,0,13,,,,,5,,,44,70
5248,note_off,,,,,0,0,15,,,,,7,,,62,100
5248,note_off,,,,,256,0,15,,,,,7,,,65,100
5312,note_off,,,,,128,0,11,,,,,3,,,77,100
5312,note_off,,,,,128,0,13,,,,,5,,,44,100
5312,note_off,,,,,128,0,14,,,,,6,,,44,100
5312,note_off,,,,,128,0,16,,,,,7,,,44,100
5312,note_off,,,,,128,0,12,,,,,4,,,71,100
5312,note_off,,,,,128,0,10,,,,,2,,,74,100
5376,note_on,,,,,64,0,13,,,,,5,,,45,70
5376,note_on,,,,,0,0,15,,,,,7,,,64,100
5376,note_on,,,,,64,0,11,,,,,3,,,76,70
5376,note_on,,,,,64,0,10,,,,,2,,,74,70
5376,note_on,,,,,64,0,12,,,,,4,,,64,70
5376,note_on,,,,,64,0,14,,,,,6,,,33,70
5376,note_on,,,,,128,0,15,,,,,7,,,62,100
5376,note_on,,,,,64,0,16,,,,,7,,,45,100
5504,note_off,,,,,128,0,12,,,,,4,,,64,100
5504,note_off,,,,,128,0,10,,,,,2,,,74,100
5504,note_off,,,,,128,0,11,,,,,3,,,76,100
5504,note_off,,,,,128,0,13,,,,,5,,,45,100
5504,note_off,,,,,128,0,16,,,,,7,,,45,100
5504,note_off,,,,,128,0,14,,,,,6,,,33,100
5568,note_on,,,,,64,0,14,,,,,6,,,33,70
5568,note_on,,,,,64,0,11,,,,,3,,,76,70
5568,note_on,,,,,64,0,13,,,,,5,,,45,70
5568,note_on,,,,,64,0,16,,,,,7,,,45,100
5568,note_on,,,,,64,0,12,,,,,4,,,69,70
5568,note_on,,,,,64,0,10,,,,,2,,,74,70
5632,note_off,,,,,0,0,15,,,,,7,,,64,100
5632,note_off,,,,,256,0,15,,,,,7,,,62,100
5696,note_off,,,,,128,0,11,,,,,3,,,76,100
5696,note_off,,,,,128,0,10,,,,,2,,,74,100
5696,note_off,,,,,128,0,14,,,,,6,,,33,100
5696,note_off,,,,,128,0,12,,,,,4,,,69,100
5696,note_off,,,,,128,0,16,,,,,7,,,45,100
5696,note_off,,,,,128,0,13,,,,,5,,,45,100
5760,note_on,,,,,0,0,15,,,,,7,,,64,100
5760,note_on,,,,,128,0,15,,,,,7,,,61,100
5760,note_on,,,,,64,0,12,,,,,4,,,69,70
5760,note_on,,,,,64,0,16,,,,,7,,,45,100
5760,note_on,,,,,64,0,10,,,,,2,,,73,70
5760,note_on,,,,,64,0,13,,,,,5,,,45,70
5760,note_on,,,,,64,0,11,,,,,3,,,76,70
5760,note_on,,,,,64,0,14,,,,,6,,,33,70
5888,note_off,,,,,128,0,10,,,,,2,,,73,100
5888,note_off,,,,,128,0,13,,,,,5,,,45,100
5888,note_off,,,,,128,0,11,,,,,3,,,76,100
5888,note_off,,,,,128,0,14,,,,,6,,,33,100
5888,note_off,,,,,128,0,12,,,,,4,,,69,100
5888,note_off,,,,,128,0,16,,,,,7,,,45,100
5952,note_on,,,,,64,0,11,,,,,3,,,76,70
5952,note_on,,,,,64,0,10,,,,,2,,,73,70
5952,note_on,,,,,64,0,12,,,,,4,,,69,70
5952,note_on,,,,,64,0,13,,,,,5,,,45,70
5952,note_on,,,,,64,0,16,,,,,7,,,45,100
5952,note_on,,,,,64,0,14,,,,,6,,,33,70
6016,note_off,,,,,0,0,15,,,,,7,,,64,100
6016,note_off,,,,,256,0,15,,,,,7,,,61,100
6080,note_off,,,,,128,0,14,,,,,6,,,33,100
6080,note_off,,,,,128,0,12,,,,,4,,,69,100
6080,note_off,,,,,128,0,16,,,,,7,,,45,100
6080,note_off,,,,,128,0,13,,,,,5,,,45,100
6080,note_off,,,,,128,0,11,,,,,3,,,76,100
6080,note_off,,,,,128,0,10,,,,,2,,,73,100
6144,note_on,,,,,64,0,10,,,,,2,,,74,70
6144,note_on,,,,,64,0,11,,,,,3,,,77,70
6144,note_on,,,,,64,0,16,,,,,7,,,50,100
6144,note_on,,,,,64,0,13,,,,,5,,,50,70
6144,note_on,,,,,128,0,15,,,,,7,,,62,100
6144,note_on,,,,,64,0,14,,,,,6,,,38,70
6144,note_on,,,,,64,0,12,,,,,4,,,69,70
6172,note_on,,,,,28,0,15,,,,,7,,,65,100
6204,note_on,,,,,32,0,15,,,,,7,,,69,100
6272,note_off,,,,,128,0,14,,,,,6,,,38,100
6272,note_off,,,,,128,0,11,,,,,3,,,77,100
6272,note_off,,,,,128,0,12,,,,,4,,,69,100
6272,note_off,,,,,128,0,10,,,,,2,,,74,100
6272,note_off,,,,,128,0,13,,,,,5,,,50,100
6272,note_off,,,,,128,0,16,,,,,7,,,50,100
6336,note_on,,,,,64,0,11,,,,,3,,,77,70
6336,note_on,,,,,64,0,16,,,,,7,,,50,100
6336,note_on,,,,,64,0,14,,,,,6,,,38,70
6336,note_on,,,,,64,0,10,,,,,2,,,74,70
6336,note_on,,,,,64,0,13,,,,,5,,,50,70
6336,note_on,,,,,64,0,12,,,,,4,,,57,70
6400,note_off,,,,,196,0,15,,,,,7,,,62,100
6428,note_off,,,,,28,0,15,,,,,7,,,65,100
6460,note_off,,,,,32,0,15,,,,,7,,,69,100
6464,note_off,,,,,128,0,10,,,,,2,,,74,100
6464,note_off,,,,,128,0,13,,,,,5,,,50,100
6464,note_off,,,,,128,0,11,,,,,3,,,77,100
6464,note_off,,,,,128,0,16,,,,,7,,,50,100
6464,note_off,,,,,128,0,14,,,,,6,,,38,100
6464,note_off,,,,,128,0,12,,,,,4,,,57,100
6528,note_on,,,,,64,0,10,,,,,2,,,65,45
6528,note_on,,,,,64,0,11,,,,,3,,,62,45
6528,note_on,,,,,68,0,15,,,,,7,,,65,100
6528,note_on,,,,,64,0,12,,,,,4,,,71,45
6528,note_on,,,,,0,0,15,,,,,7,,,62,100
6528,note_on,,,,,64,0,13,,,,,5,,,44,45
6528,note_on,,,,,64,0,14,,,,,6,,,44,45
6528,note_on,,,,,64,0,16,,,,,7,,,44,100
6656,note_off,,,,,128,0,16,,,,,7,,,44,100
6656,note_off,,,,,128,0,13,,,,,5,,,44,100
6656,note_off,,,,,128,0,10,,,,,2,,,65,100
6656,note_off,,,,,128,0,12,,,,,4,,,71,100
6656,note_off,,,,,128,0,14,,,,,6,,,44,100
6656,note_off,,,,,128,0,11,,,,,3,,,62,100
6720,note_on,,,,,64,0,14,,,,,6,,,44,45
6720,note_on,,,,,64,0,13,,,,,5,,,44,45
6720,note_on,,,,,64,0,10,,,,,2,,,65,45
6720,note_on,,,,,64,0,16,,,,,7,,,44,100
6720,note_on,,,,,64,0,11,,,,,3,,,62,45
6720,note_on,,,,,64,0,12,,,,,4,,,71,45
6784,note_off,,,,,256,0,15,,,,,7,,,65,100
6784,note_off,,,,,0,0,15,,,,,7,,,62,100
6848,note_off,,,,,128,0,16,,,,,7,,,44,100
6848,note_off,,,,,128,0,12,,,,,4,,,71,100
6848,note_off,,,,,128,0,10,,,,,2,,,65,100
6848,note_off,,,,,128,0,14,,,,,6,,,44,100
6848,note_off,,,,,128,0,13,,,,,5,,,44,100
6848,note_off,,,,,128,0,11,,,,,3,,,62,100
6912,note_on,,,,,64,0,13,,,,,5,,,45,45
6912,note_on,,,,,64,0,10,,,,,2,,,64,45
6912,note_on,,,,,0,0,15,,,,,7,,,64,100
6912,note_on,,,,,64,0,11,,,,,3,,,62,45
6912,note_on,,,,,128,0,15,,,,,7,,,62,100
6912,note_on,,,,,64,0,14,,,,,6,,,33,45
6912,note_on,,,,,64,0,12,,,,,4,,,64,45
6912,note_on,,,,,64,0,16,,,,,7,,,45,100
7040,note_off,,,,,128,0,12,,,,,4,,,64,100
7040,note_off,,,,,128,0,13,,,,,5,,,45,100
7040,note_off,,,,,128,0,16,,,,,7,,,45,100
7040,note_off,,,,,128,0,10,,,,,2,,,64,100
7040,note_off,,,,,128,0,11,,,,,3,,,62,100
7040,note_off,,,,,128,0,14,,,,,6,,,33,100
7104,note_on,,,,,64,0,11,,,,,3,,,62,45
7104,note_on,,,,,64,0,10,,,,,2,,,64,45
7104,note_on,,,,,64,0,13,,,,,5,,,45,45
7104,note_on,,,,,64,0,14,,,,,6,,,33,45
7104,note_on,,,,,64,0,16,,,,,7,,,45,100
7104,note_on,,,,,64,0,12,,,,,4,,,69,45
7168,note_off,,,,,0,0,15,,,,,7,,,64,100
7168,note_off,,,,,256,0,15,,,,,7,,,62,100
7232,note_off,,,,,128,0,16,,,,,7,,,45,100
7232,note_off,,,,,128,0,11,,,,,3,,,62,100
7232,note_off,,,,,128,0,13,,,,,5,,,45,100
7232,note_off,,,,,128,0,12,,,,,4,,,69,100
7232,note_off,,,,,128,0,14,,,,,6,,,33,100
7232,note_off,,,,,128,0,10,,,,,2,,,64,100
7296,note_on,,,,,0,0,15,,,,,7,,,64,100
7296,note_on,,,,,64,0,10,,,,,2,,,64,45
7296,note_on,,,,,64,0,12,,,,,4,,,69,45
7296,note_on,,,,,64,0,11,,,,,3,,,61,45
7296,note_on,,,,,64,0,16,,,,,7,,,45,100
7296,note_on,,,,,64,0,13,,,,,5,,,45,45
7296,note_on,,,,,64,0,14,,,,,6,,,33,45
7296,note_on,,,,,128,0,15,,,,,7,,,61,100
7424,note_off,,,,,128,0,13,,,,,5,,,45,100
7424,note_off,,,,,128,0,12,,,,,4,,,69,100
7424,note_off,,,,,128,0,11,,,,,3,,,61,100
7424,note_off,,,,,128,0,14,,,,,6,,,33,100
7424,note_off,,,,,128,0,10,,,,,2,,,64,100
7424,note_off,,,,,128,0,16,,,,,7,,,45,100
7488,note_on,,,,,64,0,10,,,,,2,,,64,45
7488,note_on,,,,,64,0,13,,,,,5,,,45,45
7488,note_on,,,,,64,0,16,,,,,7,,,45,100
7488,note_on,,,,,64,0,12,,,,,4,,,69,45
7488,note_on,,,,,64,0,11,,,,,3,,,61,45
7488,note_on,,,,,64,0,14,,,,,6,,,33,45
7552,note_off,,,,,0,0,15,,,,,7,,,64,100
7552,note_off,,,,,256,0,15,,,,,7,,,61,100
7616,note_off,,,,,128,0,13,,,,,5,,,45,100
7616,note_off,,,,,128,0,11,,,,,3,,,61,100
7616,note_off,,,,,128,0,14,,,,,6,,,33,100
7616,note_off,,,,,128,0,10,,,,,2,,,64,100
7616,note_off,,,,,128,0,12,,,,,4,,,69,100
7616,note_off,,,,,128,0,16,,,,,7,,,45,100
7680,note_on,,,,,64,0,16,,,,,7,,,50,100
7680,note_on,,,,,64,0,11,,,,,3,,,62,45
7680,note_on,,,,,64,0,10,,,,,2,,,65,45
7680,note_on,,,,,128,0,15,,,,,7,,,62,100
7680,note_on,,,,,64,0,14,,,,,6,,,38,45
7680,note_on,,,,,64,0,13,,,,,5,,,50,45
7680,note_on,,,,,64,0,12,,,,,4,,,69,45
7708,note_on,,,,,28,0,15,,,,,7,,,65,100
7740,note_on,,,,,32,0,15,,,,,7,,,69,100
7808,note_off,,,,,128,0,16,,,,,7,,,50,100
7808,note_off,,,,,128,0,14,,,,,6,,,38,100
7808,note_off,,,,,128,0,10,,,,,2,,,65,100
7808,note_off,,,,,128,0,13,,,,,5,,,50,100
7808,note_off,,,,,128,0,12,,,,,4,,,69,100
7808,note_off,,,,,128,0,11,,,,,3,,,62,100
7872,note_on,,,,,64,0,16,,,,,7,,,50,100
7872,note_on,,,,,64,0,13,,,,,5,,,50,45
7872,note_on,,,,,64,0,10,,,,,2,,,65,45
7872,note_on,,,,,64,0,11,,,,,3,,,62,45
7872,note_on,,,,,64,0,12,,,,,4,,,69,45
7872,note_on,,,,,64,0,14,,,,,6,,,38,45
8000,note_off,,,,,128,0,11,,,,,3,,,62,100
8000,note_off,,,,,128,0,13,,,,,5,,,50,100
8000,note_off,,,,,128,0,12,,,,,4,,,69,100
8000,note_off,,,,,128,0,14,,,,,6,,,38,100
8000,note_off,,,,,128,0,16,,,,,7,,,50,100
8000,note_off,,,,,128,0,10,,,,,2,,,65,100
8064,note_on,,,,,64,0,10,,,,,2,,,65,45
8064,note_on,,,,,64,0,13,,,,,5,,,50,45
8064,note_on,,,,,64,0,14,,,,,6,,,38,45
8064,note_on,,,,,64,0,12,,,,,4,,,69,45
8064,note_on,,,,,64,0,11,,,,,3,,,62,45
8064,note_on,,,,,64,0,16,,,,,7,,,50,100
8192,note_off,,,,,128,0,14,,,,,6,,,38,100
8192,note_off,,,,,128,0,16,,,,,7,,,50,100
8192,note_off,,,,,452,0,15,,,,,7,,,62,100
8192,note_off,,,,,128,0,10,,,,,2,,,65,100
8192,note_off,,,,,128,0,11,,,,,3,,,62,100
8192,note_off,,,,,128,0,12,,,,,4,,,69,100
8192,note_off,,,,,128,0,13,,,,,5,,,50,100
8220,note_off,,,,,28,0,15,,,,,7,,,65,100
8252,note_off,,,,,32,0,15,,,,,7,,,69,100
8256,note_on,,,,,64,0,11,,,,,3,,,62,45
8256,note_on,,,,,64,0,13,,,,,5,,,50,45
8256,note_on,,,,,64,0,10,,,,,2,,,65,45
8256,note_on,,,,,64,0,12,,,,,4,,,69,45
8256,note_on,,,,,64,0,14,,,,,6,,,38,45
8256,note_on,,,,,64,0,16,,,,,7,,,50,100
8384,note_off,,,,,128,0,10,,,,,2,,,65,100
8384,note_off,,,,,128,0,16,,,,,7,,,50,100
8384,note_off,,,,,128,0,12,,,,,4,,,69,100
8384,note_off,,,,,128,0,13,,,,,5,,,50,100
8384,note_off,,,,,128,0,11,,,,,3,,,62,100
8384,note_off,,,,,128,0,14,,,,,6,,,38,100
8448,note_on,,,,,64,0,11,,,,,3,,,74,85
8576,note_off,,,,,128,0,11,,,,,3,,,74,100
8640,note_on,,,,,64,0,11,,,,,3,,,74,85
8768,note_off,,,,,128,0,11,,,,,3,,,74,100
8832,note_on,,,,,64,0,11,,,,,3,,,74,85
8960,note_off,,,,,128,0,11,,,,,3,,,74,100
9024,note_on,,,,,64,0,11,,,,,3,,,74,85
9152,note_off,,,,,128,0,11,,,,,3,,,74,100
9216,note_on,,,,,964,0,15,,,,,7,,,62,100
9216,note_on,,,,,832,0,16,,,,,7,,,55,100
9216,note_on,,,,,64,0,11,,,,,3,,,74,85
9216,note_on,,,,,832,0,10,,,,,2,,,75,85
9216,note_on,,,,,832,0,13,,,,,5,,,55,85
9216,note_on,,,,,832,0,12,,,,,4,,,67,85
9216,note_on,,,,,832,0,14,,,,,6,,,43,85
9244,note_on,,,,,28,0,15,,,,,7,,,63,100
9276,note_on,,,,,32,0,15,,,,,7,,,67,100
9344,note_off,,,,,128,0,10,,,,,2,,,75,100
9344,note_off,,,,,128,0,14,,,,,6,,,43,100
9344,note_off,,,,,128,0,11,,,,,3,,,74,100
9344,note_off,,,,,128,0,12,,,,,4,,,67,100
9344,note_off,,,,,128,0,16,,,,,7,,,55,100
9344,note_off,,,,,128,0,13,,,,,5,,,55,100
9408,note_on,,,,,64,0,11,,,,,3,,,74,85
9408,note_on,,,,,64,0,12,,,,,4,,,67,85
9408,note_on,,,,,64,0,16,,,,,7,,,55,100
9408,note_on,,,,,64,0,13,,,,,5,,,55,85
9408,note_on,,,,,64,0,14,,,,,6,,,43,85
9408,note_on,,,,,64,0,10,,,,,2,,,75,85
9472,note_off,,,,,196,0,15,,,,,7,,,62,100
9500,note_off,,,,,28,0,15,,,,,7,,,63,100
9532,note_off,,,,,32,0,15,,,,,7,,,67,100
9536,note_off,,,,,128,0,14,,,,,6,,,43,100
9536,note_off,,,,,128,0,16,,,,,7,,,55,100
9536,note_off,,,,,128,0,12,,,,,4,,,67,100
9536,note_off,,,,,128,0,13,,,,,5,,,55,100
9536,note_off,,,,,128,0,10,,,,,2,,,75,100
9536,note_off,,,,,128,0,11,,,,,3,,,74,100
9600,note_on,,,,,64,0,12,,,,,4,,,67,85
9600,note_on,,,,,64,0,10,,,,,2,,,75,85
9600,note_on,,,,,64,0,11,,,,,3,,,72,85
9600,note_on,,,,,64,0,13,,,,,5,,,55,85
9600,note_on,,,,,64,0,16,,,,,7,,,55,100
9600,note_on,,,,,0,0,15,,,,,7,,,63,100
9600,note_on,,,,,68,0,15,,,,,7,,,60,100
9600,note_on,,,,,64,0,14,,,,,6,,,43,85
9728,note_off,,,,,128,0,16,,,,,7,,,55,100
9728,note_off,,,,,128,0,12,,,,,4,,,67,100
9728,note_off,,,,,128,0,14,,,,,6,,,43,100
9728,note_off,,,,,128,0,13,,,,,5,,,55,100
9728,note_off,,,,,128,0,10,,,,,2,,,75,100
9728,note_off,,,,,128,0,11,,,,,3,,,72,100
9792,note_on,,,,,64,0,13,,,,,5,,,55,85
9792,note_on,,,,,64,0,14,,,,,6,,,43,85
9792,note_on,,,,,64,0,16,,,,,7,,,55,100
9792,note_on,,,,,64,0,10,,,,,2,,,75,85
9792,note_on,,,,,64,0,12,,,,,4,,,67,85
9792,note_on,,,,,64,0,11,,,,,3,,,72,85
9856,note_off,,,,,256,0,15,,,,,7,,,60,100
9856,note_off,,,,,0,0,15,,,,,7,,,63,100
9920,note_off,,,,,128,0,10,,,,,2,,,75,100
9920,note_off,,,,,128,0,16,,,,,7,,,55,100
9920,note_off,,,,,128,0,11,,,,,3,,,72,100
9920,note_off,,,,,128,0,13,,,,,5,,,55,100
9920,note_off,,,,,128,0,12,,,,,4,,,67,100
9920,note_off,,,,,128,0,14,,,,,6,,,43,100
9984,note_on,,,,,64,0,14,,,,,6,,,42,85
9984,note_on,,,,,64,0,10,,,,,2,,,74,85
9984,note_on,,,,,64,0,11,,,,,3,,,72,85
9984,note_on,,,,,64,0,13,,,,,5,,,54,85
9984,note_on,,,,,128,0,15,,,,,7,,,62,100
9984,note_on,,,,,64,0,16,,,,,7,,,54,100
9984,note_on,,,,,0,0,15,,,,,7,,,60,100
9984,note_on,,,,,64,0,12,,,,,4,,,69,85
10112,note_off,,,,,128,0,12,,,,,4,,,69,100
10112,note_off,,,,,128,0,10,,,,,2,,,74,100
10112,note_off,,,,,128,0,13,,,,,5,,,54,100
10112,note_off,,,,,128,0,11,,,,,3,,,72,100
10112,note_off,,,,,128,0,14,,,,,6,,,42,100
10112,note_off,,,,,128,0,16,,,,,7,,,54,100
10176,note_on,,,,,64,0,13,,,,,5,,,54,85
10176,note_on,,,,,64,0,14,,,,,6,,,42,85
10176,note_on,,,,,64,0,16,,,,,7,,,54,100
10176,note_on,,,,,64,0,11,,,,,3,,,72,85
10176,note_on,,,,,64,0,10,,,,,2,,,74,85
10176,note_on,,,,,64,0,12,,,,,4,,,69,85
10240,note_off,,,,,256,0,15,,,,,7,,,62,100
10240,note_off,,,,,0,0,15,,,,,7,,,60,100
10304,note_off,,,,,128,0,16,,,,,7,,,54,100
10304,note_off,,,,,128,0,10,,,,,2,,,74,100
10304,note_off,,,,,128,0,11,,,,,3,,,72,100
10304,note_off,,,,,128,0,13,,,,,5,,,54,100
10304,note_off,,,,,128,0,14,,,,,6,,,42,100
10304,note_off,,,,,128,0,12,,,,,4,,,69,100
10368,note_on,,,,,64,0,12,,,,,4,,,67,85
10368,note_on,,,,,64,0,14,,,,,6,,,43,85
10368,note_on,,,,,64,0,16,,,,,7,,,55,100
10368,note_on,,,,,128,0,15,,,,,7,,,58,100
10368,note_on,,,,,0,0,15,,,,,7,,,62,100
10368,note_on,,,,,64,0,11,,,,,3,,,70,85
10368,note_on,,,,,64,0,10,,,,,2,,,74,85
10368,note_on,,,,,64,0,13,,,,,5,,,55,85
10496,note_off,,,,,128,0,13,,,,,5,,,55,100
10496,note_off,,,,,128,0,14,,,,,6,,,43,100
10496,note_off,,,,,128,0,16,,,,,7,,,55,100
10496,note_off,,,,,128,0,11,,,,,3,,,70,100
10496,note_off,,,,,128,0,12,,,,,4,,,67,100
10496,note_off,,,,,128,0,10,,,,,2,,,74,100
10560,note_on,,,,,64,0,14,,,,,6,,,43,85
10560,note_on,,,,,64,0,11,,,,,3,,,70,85
10560,note_on,,,,,64,0,13,,,,,5,,,55,85
10560,note_on,,,,,64,0,12,,,,,4,,,67,85
10560,note_on,,,,,64,0,16,,,,,7,,,55,100
10560,note_on,,,,,64,0,10,,,,,2,,,74,85
10624,note_off,,,,,0,0,15,,,,,7,,,62,100
10624,note_off,,,,,256,0,15,,,,,7,,,58,100
10688,note_off,,,,,128,0,10,,,,,2,,,74,100
10688,note_off,,,,,128,0,11,,,,,3,,,70,100
10688,note_off,,,,,128,0,16,,,,,7,,,55,100
10688,note_off,,,,,128,0,14,,,,,6,,,43,100
10688,note_off,,,,,128,0,13,,,,,5,,,55,100
10688,note_off,,,,,128,0,12,,,,,4,,,67,100
10752,note_on,,,,,64,0,10,,,,,2,,,75,85
10752,note_on,,,,,128,0,15,,,,,7,,,58,100
10752,note_on,,,,,64,0,11,,,,,3,,,70,85
10752,note_on,,,,,64,0,16,,,,,7,,,55,100
10752,note_on,,,,,64,0,12,,,,,4,,,67,85
10752,note_on,,,,,64,0,13,,,,,5,,,55,85
10752,note_on,,,,,64,0,14,,,,,6,,,43,85
10780,note_on,,,,,28,0,15,,,,,7,,,63,100
10812,note_on,,,,,32,0,15,,,,,7,,,67,100
10880,note_off,,,,,128,0,12,,,,,4,,,67,100
10880,note_off,,,,,128,0,16,,,,,7,,,55,100
10880,note_off,,,,,128,0,13,,,,,5,,,55,100
10880,note_off,,,,,128,0,11,,,,,3,,,70,100
10880,note_off,,,,,128,0,10,,,,,2,,,75,100
10880,note_off,,,,,128,0,14,,,,,6,,,43,100
10944,note_on,,,,,64,0,11,,,,,3,,,70,85
10944,note_on,,,,,64,0,16,,,,,7,,,55,100
10944,note_on,,,,,64,0,13,,,,,5,,,55,85
10944,note_on,,,,,64,0,14,,,,,6,,,43,85
10944,note_on,,,,,64,0,10,,,,,2,,,75,85
10944,note_on,,,,,64,0,12,,,,,4,,,67,85
11008,note_off,,,,,196,0,15,,,,,7,,,58,100
11036,note_off,,,,,28,0,15,,,,,7,,,63,100
11068,note_off,,,,,32,0,15,,,,,7,,,67,100
11072,note_off,,,,,128,0,10,,,,,2,,,75,100
11072,note_off,,,,,128,0,14,,,,,6,,,43,100
11072,note_off,,,,,128,0,13,,,,,5,,,55,100
11072,note_off,,,,,128,0,11,,,,,3,,,70,100
11072,note_off,,,,,128,0,12,,,,,4,,,67,100
11072,note_off,,,,,128,0,16,,,,,7,,,55,100
11136,note_on,,,,,64,0,14,,,,,6,,,48,85
11136,note_on,,,,,64,0,12,,,,,4,,,63,85
11136,note_on,,,,,64,0,11,,,,,3,,,79,85
11136,note_on,,,,,68,0,15,,,,,7,,,67,100
11136,note_on,,,,,0,0,15,,,,,7,,,63,100
11136,note_on,,,,,64,0,10,,,,,2,,,75,85
11136,note_on,,,,,64,0,13,,,,,5,,,60,85
11136,note_on,,,,,64,0,16,,,,,7,,,60,100
11264,note_off,,,,,128,0,16,,,,,7,,,60,100
11264,note_off,,,,,128,0,14,,,,,6,,,48,100
11264,note_off,,,,,128,0,11,,,,,3,,,79,100
11264,note_off,,,,,128,0,12,,,,,4,,,63,100
11264,note_off,,,,,128,0,13,,,,,5,,,60,100
11264,note_off,,,,,128,0,10,,,,,2,,,75,100
11328,note_on,,,,,64,0,16,,,,,7,,,60,100
11328,note_on,,,,,64,0,10,,,,,2,,,75,85
11328,note_on,,,,,64,0,12,,,,,4,,,63,85
11328,note_on,,,,,64,0,13,,,,,5,,,60,85
11328,note_on,,,,,64,0,11,,,,,3,,,79,85
11328,note_on,,,,,64,0,14,,,,,6,,,48,85
11392,note_off,,,,,256,0,15,,,,,7,,,67,100
11392,note_off,,,,,0,0,15,,,,,7,,,63,100
11456,note_off,,,,,128,0,13,,,,,5,,,60,100
11456,note_off,,,,,128,0,12,,,,,4,,,63,100
11456,note_off,,,,,128,0,16,,,,,7,,,60,100
11456,note_off,,,,,128,0,10,,,,,2,,,75,100
11456,note_off,,,,,128,0,14,,,,,6,,,48,100
11456,note_off,,,,,128,0,11,,,,,3,,,79,100
11520,note_on,,,,,64,0,13,,,,,5,,,57,85
11520,note_on,,,,,64,0,16,,,,,7,,,57,100
11520,note_on,,,,,0,0,15,,,,,7,,,64,100
11520,note_on,,,,,128,0,15,,,,,7,,,67,100
11520,note_on,,,,,64,0,10,,,,,2,,,73,85
11520,note_on,,,,,64,0,12,,,,,4,,,64,85
11520,note_on,,,,,64,0,14,,,,,6,,,45,85
11520,note_on,,,,,64,0,11,,,,,3,,,79,85
11648,note_off,,,,,128,0,14,,,,,6,,,45,100
11648,note_off,,,,,128,0,11,,,,,3,,,79,100
11648,note_off,,,,,128,0,16,,,,,7,,,57,100
11648,note_off,,,,,128,0,10,,,,,2,,,73,100
11648,note_off,,,,,128,0,13,,,,,5,,,57,100
11648,note_off,,,,,128,0,12,,,,,4,,,64,100
11712,note_on,,,,,64,0,11,,,,,3,,,79,85
11712,note_on,,,,,64,0,16,,,,,7,,,57,100
11712,note_on,,,,,64,0,13,,,,,5,,,57,85
11712,note_on,,,,,64,0,12,,,,,4,,,64,85
11712,note_on,,,,,64,0,14,,,,,6,,,45,85
11712,note_on,,,,,64,0,10,,,,,2,,,73,85
11840,note_off,,,,,128,0,11,,,,,3,,,79,100
11840,note_off,,,,,128,0,13,,,,,5,,,57,100
11840,note_off,,,,,128,0,12,,,,,4,,,64,100
11840,note_off,,,,,128,0,10,,,,,2,,,73,100
11840,note_off,,,,,128,0,14,,,,,6,,,45,100
11840,note_off,,,,,128,0,16,,,,,7,,,57,100
11904,note_on,,,,,64,0,14,,,,,6,,,38,85
11904,note_on,,,,,64,0,12,,,,,4,,,69,85
11904,note_on,,,,,64,0,13,,,,,5,,,50,85
11904,note_on,,,,,64,0,10,,,,,2,,,74,85
11904,note_on,,,,,64,0,16,,,,,7,,,50,100
11904,note_on,,,,,64,0,11,,,,,3,,,77,85
12032,note_off,,,,,128,0,10,,,,,2,,,74,100
12032,note_off,,,,,128,0,12,,,,,4,,,69,100
12032,note_off,,,,,128,0,14,,,,,6,,,38,100
12032,note_off,,,,,128,0,16,,,,,7,,,50,100
12032,note_off,,,,,128,0,11,,,,,3,,,77,100
12032,note_off,,,,,512,0,15,,,,,7,,,67,100
12032,note_off,,,,,0,0,15,,,,,7,,,64,100
12032,note_off,,,,,128,0,13,,,,,5,,,50,100
12096,note_on,,,,,64,0,14,,,,,6,,,38,85
12096,note_on,,,,,64,0,13,,,,,5,,,50,85
12096,note_on,,,,,64,0,11,,,,,3,,,77,85
12096,note_on,,,,,64,0,12,,,,,4,,,69,85
12096,note_on,,,,,64,0,10,,,,,2,,,74,85
12096,note_on,,,,,64,0,16,,,,,7,,,50,100
12224,note_off,,,,,128,0,13,,,,,5,,,50,100
12224,note_off,,,,,128,0,11,,,,,3,,,77,100
12224,note_off,,,,,128,0,10,,,,,2,,,74,100
12224,note_off,,,,,128,0,12,,,,,4,,,69,100
12224,note_off,,,,,128,0,16,,,,,7,,,50,100
12224,note_off,,,,,128,0,14,,,,,6,,,38,100
12288,note_on,,,,,64,0,14,,,,,6,,,38,85
12288,note_on,,,,,64,0,11,,,,,3,,,78,85
12288,note_on,,,,,64,0,12,,,,,4,,,69,85
12288,note_on,,,,,64,0,10,,,,,2,,,72,85
12288,note_on,,,,,64,0,16,,,,,7,,,50,100
12288,note_on,,,,,256,0,15,,,,,7,,,62,100
12288,note_on,,,,,64,0,13,,,,,5,,,50,85
12316,note_on,,,,,28,0,15,,,,,7,,,69,100
12348,note_on,,,,,32,0,15,,,,,7,,,72,100
12416,note_off,,,,,128,0,16,,,,,7,,,50,100
12416,note_off,,,,,128,0,11,,,,,3,,,78,100
12416,note_off,,,,,128,0,13,,,,,5,,,50,100
12416,note_off,,,,,128,0,14,,,,,6,,,38,100
12416,note_off,,,,,128,0,12,,,,,4,,,69,100
12416,note_off,,,,,128,0,10,,,,,2,,,72,100
12480,note_on,,,,,64,0,16,,,,,7,,,50,100
12480,note_on,,,,,64,0,11,,,,,3,,,78,85
12480,note_on,,,,,64,0,10,,,,,2,,,72,85
12480,note_on,,,,,64,0,14,,,,,6,,,38,85
12480,note_on,,,,,64,0,13,,,,,5,,,50,85
12480,note_on,,,,,64,0,12,,,,,4,,,69,85
12608,note_off,,,,,128,0,10,,,,,2,,,72,100
12608,note_off,,,,,128,0,11,,,,,3,,,78,100
12608,note_off,,,,,128,0,14,,,,,6,,,38,100
12608,note_off,,,,,128,0,12,,,,,4,,,69,100
12608,note_off,,,,,128,0,13,,,,,5,,,50,100
12608,note_off,,,,,128,0,16,,,,,7,,,50,100
12672,note_on,,,,,64,0,12,,,,,4,,,69,85
12672,note_on,,,,,64,0,13,,,,,5,,,50,85
12672,note_on,,,,,64,0,11,,,,,3,,,78,85
12672,note_on,,,,,64,0,10,,,,,2,,,84,85
12672,note_on,,,,,64,0,14,,,,,6,,,38,85
12672,note_on,,,,,64,0,16,,,,,7,,,50,100
12800,note_off,,,,,452,0,15,,,,,7,,,62,100
12800,note_off,,,,,128,0,13,,,,,5,,,50,100
12800,note_off,,,,,128,0,10,,,,,2,,,84,100
12800,note_off,,,,,128,0,12,,,,,4,,,69,100
12800,note_off,,,,,128,0,14,,,,,6,,,38,100
12800,note_off,,,,,128,0,11,,,,,3,,,78,100
12800,note_off,,,,,128,0,16,,,,,7,,,50,100
12828,note_off,,,,,28,0,15,,,,,7,,,69,100
12860,note_off,,,,,32,0,15,,,,,7,,,72,100
12864,note_on,,,,,64,0,16,,,,,7,,,50,100
12864,note_on,,,,,64,0,12,,,,,4,,,69,85
12864,note_on,,,,,64,0,14,,,,,6,,,38,85
12864,note_on,,,,,64,0,11,,,,,3,,,78,85
12864,note_on,,,,,64,0,13,,,,,5,,,50,85
12864,note_on,,,,,64,0,10,,,,,2,,,84,85
12992,note_off,,,,,128,0,10,,,,,2,,,84,100
12992,note_off,,,,,128,0,13,,,,,5,,,50,100
12992,note_off,,,,,128,0,16,,,,,7,,,50,100
12992,note_off,,,,,128,0,14,,,,,6,,,38,100
12992,note_off,,,,,128,0,12,,,,,4,,,69,100
12992,note_off,,,,,128,0,11,,,,,3,,,78,100
13056,note_on,,,,,196,0,15,,,,,7,,,62,100
13056,note_on,,,,,64,0,13,,,,,5,,,50,85
13056,note_on,,,,,64,0,10,,,,,2,,,84,85
13056,note_on,,,,,64,0,12,,,,,4,,,62,85
13056,note_on,,,,,64,0,11,,,,,3,,,79,85
13056,note_on,,,,,64,0,14,,,,,6,,,38,85
13056,note_on,,,,,64,0,16,,,,,7,,,50,100
13084,note_on,,,,,28,0,15,,,,,7,,,67,100
13116,note_on,,,,,32,0,15,,,,,7,,,72,100
13184,note_off,,,,,128,0,12,,,,,4,,,62,100
13184,note_off,,,,,128,0,16,,,,,7,,,50,100
13184,note_off,,,,,128,0,11,,,,,3,,,79,100
13184,note_off,,,,,128,0,10,,,,,2,,,84,100
13184,note_off,,,,,128,0,13,,,,,5,,,50,100
13184,note_off,,,,,128,0,14,,,,,6,,,38,100
13248,note_on,,,,,64,0,14,,,,,6,,,38,85
13248,note_on,,,,,64,0,16,,,,,7,,,50,100
13248,note_on,,,,,64,0,12,,,,,4,,,62,85
13248,note_on,,,,,64,0,11,,,,,3,,,79,85
13248,note_on,,,,,64,0,10,,,,,2,,,84,85
13248,note_on,,,,,64,0,13,,,,,5,,,50,85
13312,note_off,,,,,196,0,15,,,,,7,,,62,100
13340,note_off,,,,,28,0,15,,,,,7,,,67,100
13372,note_off,,,,,32,0,15,,,,,7,,,72,100
13376,note_off,,,,,128,0,13,,,,,5,,,50,100
13376,note_off,,,,,128,0,12,,,,,4,,,62,100
13376,note_off,,,,,128,0,10,,,,,2,,,84,100
13376,note_off,,,,,128,0,11,,,,,3,,,79,100
13376,note_off,,,,,128,0,14,,,,,6,,,38,100
13376,note_off,,,,,128,0,16,,,,,7,,,50,100
13440,note_on,,,,,64,0,11,,,,,3,,,79,45
13440,note_on,,,,,64,0,14,,,,,6,,,37,45
13440,note_on,,,,,64,0,16,,,,,7,,,49,100
13440,note_on,,,,,64,0,10,,,,,2,,,82,45
13440,note_on,,,,,64,0,12,,,,,4,,,64,45
13440,note_on,,,,,68,0,15,,,,,7,,,64,100
13440,note_on,,,,,64,0,13,,,,,5,,,49,45
13468,note_on,,,,,28,0,15,,,,,7,,,67,100
13500,note_on,,,,,32,0,15,,,,,7,,,70,100
13568,note_off,,,,,128,0,14,,,,,6,,,37,100
13568,note_off,,,,,128,0,13,,,,,5,,,49,100
13568,note_off,,,,,128,0,10,,,,,2,,,82,100
13568,note_off,,,,,128,0,12,,,,,4,,,64,100
13568,note_off,,,,,128,0,16,,,,,7,,,49,100
13568,note_off,,,,,128,0,11,,,,,3,,,79,100
13632,note_on,,,,,64,0,13,,,,,5,,,49,45
13632,note_on,,,,,64,0,12,,,,,4,,,64,45
13632,note_on,,,,,64,0,16,,,,,7,,,49,100
13632,note_on,,,,,64,0,11,,,,,3,,,79,45
13632,note_on,,,,,64,0,14,,,,,6,,,37,45
13632,note_on,,,,,64,0,10,,,,,2,,,82,45
13696,note_off,,,,,196,0,15,,,,,7,,,64,100
13724,note_off,,,,,28,0,15,,,,,7,,,67,100
13756,note_off,,,,,32,0,15,,,,,7,,,70,100
13760,note_off,,,,,128,0,13,,,,,5,,,49,100
13760,note_off,,,,,128,0,16,,,,,7,,,49,100
13760,note_off,,,,,128,0,14,,,,,6,,,37,100
13760,note_off,,,,,128,0,10,,,,,2,,,82,100
13760,note_off,,,,,128,0,12,,,,,4,,,64,100
13760,note_off,,,,,128,0,11,,,,,3,,,79,100
13824,note_on,,,,,68,0,15,,,,,7,,,62,100
13824,note_on,,,,,64,0,13,,,,,5,,,50,45
13824,note_on,,,,,64,0,14,,,,,6,,,38,45
13824,note_on,,,,,64,0,12,,,,,4,,,57,45
13824,note_on,,,,,64,0,16,,,,,7,,,50,100
13824,note_on,,,,,64,0,11,,,,,3,,,79,45
13824,note_on,,,,,64,0,10,,,,,2,,,81,45
13852,note_on,,,,,28,0,15,,,,,7,,,67,100
13884,note_on,,,,,32,0,15,,,,,7,,,69,100
13952,note_off,,,,,128,0,14,,,,,6,,,38,100
13952,note_off,,,,,128,0,13,,,,,5,,,50,100
13952,note_off,,,,,128,0,10,,,,,2,,,81,100
13952,note_off,,,,,128,0,12,,,,,4,,,57,100
13952,note_off,,,,,128,0,16,,,,,7,,,50,100
13952,note_off,,,,,128,0,11,,,,,3,,,79,100
14016,note_on,,,,,64,0,10,,,,,2,,,81,45
14016,note_on,,,,,64,0,11,,,,,3,,,79,45
14016,note_on,,,,,64,0,16,,,,,7,,,50,100
14016,note_on,,,,,64,0,13,,,,,5,,,50,45
14016,note_on,,,,,64,0,14,,,,,6,,,38,45
14016,note_on,,,,,64,0,12,,,,,4,,,62,45
14080,note_off,,,,,196,0,15,,,,,7,,,62,100
14108,note_off,,,,,28,0,15,,,,,7,,,67,100
14140,note_off,,,,,32,0,15,,,,,7,,,69,100
14144,note_off,,,,,128,0,10,,,,,2,,,81,100
14144,note_off,,,,,128,0,12,,,,,4,,,62,100
14144,note_off,,,,,128,0,16,,,,,7,,,50,100
14144,note_off,,,,,128,0,11,,,,,3,,,79,100
14144,note_off,,,,,128,0,13,,,,,5,,,50,100
14144,note_off,,,,,128,0,14,,,,,6,,,38,100
14208,note_on,,,,,64,0,10,,,,,2,,,81,45
14208,note_on,,,,,64,0,16,,,,,7,,,50,100
14208,note_on,,,,,64,0,11,,,,,3,,,78,45
14208,note_on,,,,,68,0,15,,,,,7,,,62,100
14208,note_on,,,,,64,0,12,,,,,4,,,62,45
14208,note_on,,,,,64,0,14,,,,,6,,,38,45
14208,note_on,,,,,64,0,13,,,,,5,,,50,45
14220,note_on,,,,,12,0,15,,,,,7,,,66,100
14236,note_on,,,,,16,0,15,,,,,7,,,69,100
14336,note_off,,,,,128,0,10,,,,,2,,,81,100
14336,note_off,,,,,128,0,12,,,,,4,,,62,100
14336,note_off,,,,,128,0,11,,,,,3,,,78,100
14336,note_off,,,,,128,0,14,,,,,6,,,38,100
14336,note_off,,,,,128,0,16,,,,,7,,,50,100
14336,note_off,,,,,128,0,13,,,,,5,,,50,100
14400,note_on,,,,,64,0,10,,,,,2,,,81,45
14400,note_on,,,,,64,0,14,,,,,6,,,38,45
14400,note_on,,,,,64,0,12,,,,,4,,,62,45
14400,note_on,,,,,64,0,11,,,,,3,,,78,45
14400,note_on,,,,,64,0,16,,,,,7,,,50,100
14400,note_on,,,,,64,0,13,,,,,5,,,50,45
14464,note_off,,,,,228,0,15,,,,,7,,,62,100
14476,note_off,,,,,12,0,15,,,,,7,,,66,100
14492,note_off,,,,,16,0,15,,,,,7,,,69,100
14528,note_off,,,,,128,0,11,,,,,3,,,78,100
14528,note_off,,,,,128,0,13,,,,,5,,,50,100
14528,note_off,,,,,128,0,14,,,,,6,,,38,100
14528,note_off,,,,,128,0,16,,,,,7,,,50,100
14528,note_off,,,,,128,0,12,,,,,4,,,62,100
14528,note_off,,,,,128,0,10,,,,,2,,,81,100
14592,note_on,,,,,64,0,13,,,,,5,,,43,45
14592,note_on,,,,,64,0,16,,,,,7,,,43,100
14592,note_on,,,,,64,0,10,,,,,2,,,82,45
14592,note_on,,,,,100,0,15,,,,,7,,,58,100
14592,note_on,,,,,64,0,14,,,,,6,,,43,45
14592,note_on,,,,,64,0,11,,,,,3,,,79,45
14592,note_on,,,,,64,0,12,,,,,4,,,62,45
14620,note_on,,,,,28,0,15,,,,,7,,,62,100
14652,note_on,,,,,32,0,15,,,,,7,,,67,100
14720,note_off,,,,,128,0,12,,,,,4,,,62,100
14784,note_on,,,,,64,0,12,,,,,4,,,67,45
14848,note_off,,,,,256,0,13,,,,,5,,,43,100
14848,note_off,,,,,256,0,16,,,,,7,,,43,100
14848,note_off,,,,,256,0,10,,,,,2,,,82,100
14848,note_off,,,,,196,0,15,,,,,7,,,58,100
14848,note_off,,,,,256,0,11,,,,,3,,,79,100
14848,note_off,,,,,256,0,14,,,,,6,,,43,100
14876,note_off,,,,,28,0,15,,,,,7,,,62,100
14908,note_off,,,,,32,0,15,,,,,7,,,67,100
14912,note_off,,,,,128,0,12,,,,,4,,,67,100
14976,note_on,,,,,64,0,12,,,,,4,,,67,45
15104,note_off,,,,,128,0,12,,,,,4,,,67,100
15168,note_on,,,,,64,0,12,,,,,4,,,67,45
15168,note_on,,,,,15168,0,9,,,,,1,,,79,70
15168,note_on,,,,,15168,0,8,,,,,0,,,82,70
15264,note_off,,,,,96,0,8,,,,,0,,,82,100
15264,note_off,,,,,96,0,9,,,,,1,,,79,100
15296,note_off,,,,,128,0,12,,,,,4,,,67,100
15312,note_on,,,,,48,0,8,,,,,0,,,81,70
15312,note_on,,,,,48,0,9,,,,,1,,,78,70
15344,note_off,,,,,32,0,8,,,,,0,,,81,100
15344,note_off,,,,,32,0,9,,,,,1,,,78,100
15360,note_on,,,,,64,0,12,,,,,4,,,73,45
15360,note_on,,,,,16,0,9,,,,,1,,,79,70
15360,note_on,,,,,16,0,8,,,,,0,,,82,70
15488,note_off,,,,,128,0,12,,,,,4,,,73,100
15552,note_on,,,,,64,0,12,,,,,4,,,73,45
15680,note_off,,,,,128,0,12,,,,,4,,,73,100
15744,note_on,,,,,64,0,12,,,,,4,,,73,45
15872,note_off,,,,,512,0,8,,,,,0,,,82,100
15872,note_off,,,,,128,0,12,,,,,4,,,73,100
15872,note_off,,,,,512,0,9,,,,,1,,,79,100
15888,note_on,,,,,16,0,8,,,,,0,,,81,70
15888,note_on,,,,,16,0,9,,,,,1,,,78,70
15920,note_off,,,,,32,0,9,,,,,1,,,78,100
15920,note_off,,,,,32,0,8,,,,,0,,,81,100
15936,note_on,,,,,16,0,8,,,,,0,,,82,70
15936,note_on,,,,,16,0,9,,,,,1,,,79,70
15936,note_on,,,,,64,0,12,,,,,4,,,73,45
16064,note_off,,,,,128,0,12,,,,,4,,,73,100
16076,note_off,,,,,140,0,8,,,,,0,,,82,100
16076,note_off,,,,,140,0,9,,,,,1,,,79,100
16080,note_on,,,,,4,0,8,,,,,0,,,84,70
16080,note_on,,,,,4,0,9,,,,,1,,,81,70
16112,note_off,,,,,32,0,8,,,,,0,,,84,100
16112,note_off,,,,,32,0,9,,,,,1,,,81,100
16128,note_on,,,,,16,0,9,,,,,1,,,78,70
16128,note_on,,,,,64,0,12,,,,,4,,,74,45
16128,note_on,,,,,16,0,8,,,,,0,,,81,70
16256,note_off,,,,,128,0,12,,,,,4,,,74,100
16268,note_off,,,,,140,0,9,,,,,1,,,78,100
16268,note_off,,,,,140,0,8,,,,,0,,,81,100
16272,note_on,,,,,4,0,8,,,,,0,,,82,70
16272,note_on,,,,,4,0,9,,,,,1,,,79,70
16304,note_off,,,,,32,0,9,,,,,1,,,79,100
16304,note_off,,,,,32,0,8,,,,,0,,,82,100
16320,note_on,,,,,16,0,9,,,,,1,,,81,70
16320,note_on,,,,,16,0,8,,,,,0,,,84,70
16320,note_on,,,,,64,0,12,,,,,4,,,74,45
16448,note_off,,,,,128,0,12,,,,,4,,,74,100
16460,note_off,,,,,140,0,8,,,,,0,,,84,100
16460,note_off,,,,,140,0,9,,,,,1,,,81,100
16464,note_on,,,,,4,0,9,,,,,1,,,79,70
16464,note_on,,,,,4,0,8,,,,,0,,,82,70
16496,note_off,,,,,32,0,8,,,,,0,,,82,100
16496,note_off,,,,,32,0,9,,,,,1,,,79,100
16512,note_on,,,,,16,0,8,,,,,0,,,81,70
16512,note_on,,,,,16,0,9,,,,,1,,,78,70
16512,note_on,,,,,64,0,12,,,,,4,,,74,45
16640,note_off,,,,,128,0,12,,,,,4,,,74,100
16652,note_off,,,,,140,0,9,,,,,1,,,78,100
16652,note_off,,,,,140,0,8,,,,,0,,,81,100
16656,note_on,,,,,4,0,9,,,,,1,,,81,70
16656,note_on,,,,,4,0,8,,,,,0,,,86,70
16688,note_off,,,,,32,0,8,,,,,0,,,86,100
16688,note_off,,,,,32,0,9,,,,,1,,,81,100
16704,note_on,,,,,16,0,8,,,,,0,,,82,70
16704,note_on,,,,,64,0,12,,,,,4,,,74,45
16704,note_on,,,,,16,0,9,,,,,1,,,79,70
16832,note_off,,,,,128,0,12,,,,,4,,,74,100
16844,note_off,,,,,140,0,9,,,,,1,,,79,100
16844,note_off,,,,,140,0,8,,,,,0,,,82,100
16848,note_on,,,,,4,0,9,,,,,1,,,78,70
16848,note_on,,,,,4,0,8,,,,,0,,,81,70
16880,note_off,,,,,32,0,8,,,,,0,,,81,100
16880,note_off,,,,,32,0,9,,,,,1,,,78,100
16896,note_on,,,,,16,0,8,,,,,0,,,82,70
16896,note_on,,,,,64,0,12,,,,,4,,,73,45
16896,note_on,,,,,16,0,9,,,,,1,,,79,70
17024,note_off,,,,,128,0,12,,,,,4,,,73,100
17088,note_on,,,,,64,0,12,,,,,4,,,73,45
17216,note_off,,,,,128,0,12,,,,,4,,,73,100
17280,note_on,,,,,64,0,12,,,,,4,,,73,45
17408,note_off,,,,,128,0,12,,,,,4,,,73,100
17408,note_off,,,,,512,0,8,,,,,0,,,82,100
17408,note_off,,,,,512,0,9,,,,,1,,,79,100
17424,note_on,,,,,16,0,9,,,,,1,,,78,70
17424,note_on,,,,,16,0,8,,,,,0,,,81,70
17456,note_off,,,,,32,0,8,,,,,0,,,81,100
17456,note_off,,,,,32,0,9,,,,,1,,,78,100
17472,note_on,,,,,64,0,12,,,,,4,,,73,45
17472,note_on,,,,,16,0,9,,,,,1,,,79,70
17472,note_on,,,,,16,0,8,,,,,0,,,82,70
17600,note_off,,,,,128,0,12,,,,,4,,,73,100
17612,note_off,,,,,140,0,8,,,,,0,,,82,100
17612,note_off,,,,,140,0,9,,,,,1,,,79,100
17616,note_on,,,,,4,0,9,,,,,1,,,81,70
17616,note_on,,,,,4,0,8,,,,,0,,,84,70
17648,note_off,,,,,32,0,9,,,,,1,,,81,100
17648,note_off,,,,,32,0,8,,,,,0,,,84,100
17664,note_on,,,,,16,0,8,,,,,0,,,81,70
17664,note_on,,,,,16,0,9,,,,,1,,,78,70
17664,note_on,,,,,64,0,12,,,,,4,,,74,45
17792,note_off,,,,,128,0,8,,,,,0,,,81,100
17856,note_on,,,,,64,0,8,,,,,0,,,74,70
17920,note_off,,,,,256,0,9,,,,,1,,,78,100
17920,note_off,,,,,256,0,12,,,,,4,,,74,100
17984,note_off,,,,,128,0,8,,,,,0,,,74,100
18048,note_on,,,,,3200,0,14,,,,,6,,,37,85
18048,note_on,,,,,3200,0,10,,,,,2,,,79,85
18048,note_on,,,,,0,0,15,,,,,7,,,70,100
18048,note_on,,,,,128,0,12,,,,,4,,,64,85
18048,note_on,,,,,3200,0,16,,,,,7,,,49,100
18048,note_on,,,,,3200,0,11,,,,,3,,,70,85
18048,note_on,,,,,3140,0,15,,,,,7,,,67,100
18048,note_on,,,,,3200,0,13,,,,,5,,,49,85
18176,note_off,,,,,128,0,16,,,,,7,,,49,100
18176,note_off,,,,,128,0,12,,,,,4,,,64,100
18176,note_off,,,,,128,0,13,,,,,5,,,49,100
18176,note_off,,,,,128,0,14,,,,,6,,,37,100
18176,note_off,,,,,128,0,10,,,,,2,,,79,100
18176,note_off,,,,,128,0,11,,,,,3,,,70,100
18240,note_on,,,,,64,0,14,,,,,6,,,37,85
18240,note_on,,,,,64,0,12,,,,,4,,,64,85
18240,note_on,,,,,64,0,13,,,,,5,,,49,85
18240,note_on,,,,,64,0,10,,,,,2,,,79,85
18240,note_on,,,,,64,0,16,,,,,7,,,49,100
18240,note_on,,,,,64,0,11,,,,,3,,,70,85
18304,note_off,,,,,256,0,15,,,,,7,,,67,100
18304,note_off,,,,,0,0,15,,,,,7,,,70,100
18368,note_off,,,,,128,0,12,,,,,4,,,64,100
18368,note_off,,,,,128,0,13,,,,,5,,,49,100
18368,note_off,,,,,128,0,11,,,,,3,,,70,100
18368,note_off,,,,,128,0,16,,,,,7,,,49,100
18368,note_off,,,,,128,0,10,,,,,2,,,79,100
18368,note_off,,,,,128,0,14,,,,,6,,,37,100
18432,note_on,,,,,0,0,15,,,,,7,,,69,100
18432,note_on,,,,,64,0,11,,,,,3,,,69,85
18432,note_on,,,,,64,0,10,,,,,2,,,79,85
18432,note_on,,,,,64,0,16,,,,,7,,,50,100
18432,note_on,,,,,128,0,15,,,,,7,,,67,100
18432,note_on,,,,,64,0,14,,,,,6,,,38,85
18432,set_tempo,,,,,18432,1,0,,1111111,,,,,,,
18432,note_on,,,,,64,0,13,,,,,5,,,50,85
18432,note_on,,,,,64,0,12,,,,,4,,,57,85
18468,set_tempo,,,,,36,1,0,,1132075,,,,,,,
18508,set_tempo,,,,,40,1,0,,1153846,,,,,,,
18544,set_tempo,,,,,36,1,0,,1176470,,,,,,,
18560,note_off,,,,,128,0,12,,,,,4,,,57,100
18560,note_off,,,,,128,0,11,,,,,3,,,69,100
18560,note_off,,,,,128,0,10,,,,,2,,,79,100
18560,note_off,,,,,128,0,14,,,,,6,,,38,100
18560,note_off,,,,,128,0,13,,,,,5,,,50,100
18560,note_off,,,,,128,0,16,,,,,7,,,50,100
18584,set_tempo,,,,,40,1,0,,1200000,,,,,,,
18624,note_on,,,,,64,0,16,,,,,7,,,50,100
18624,note_on,,,,,64,0,11,,,,,3,,,69,85
18624,note_on,,,,,64,0,12,,,,,4,,,62,85
18624,note_on,,,,,64,0,10,,,,,2,,,79,85
18624,set_tempo,,,,,40,1,0,,1224489,,,,,,,
18624,note_on,,,,,64,0,13,,,,,5,,,50,85
18624,note_on,,,,,64,0,14,,,,,6,,,38,85
18660,set_tempo,,,,,36,1,0,,1250000,,,,,,,
18688,note_off,,,,,256,0,15,,,,,7,,,67,100
18688,note_off,,,,,0,0,15,,,,,7,,,69,100
18700,set_tempo,,,,,40,1,0,,1276595,,,,,,,
18736,set_tempo,,,,,36,1,0,,1304347,,,,,,,
18752,note_off,,,,,128,0,13,,,,,5,,,50,100
18752,note_off,,,,,128,0,14,,,,,6,,,38,100
18752,note_off,,,,,128,0,11,,,,,3,,,69,100
18752,note_off,,,,,128,0,12,,,,,4,,,62,100
18752,note_off,,,,,128,0,16,,,,,7,,,50,100
18752,note_off,,,,,128,0,10,,,,,2,,,79,100
18776,set_tempo,,,,,40,1,0,,1333333,,,,,,,
18816,note_on,,,,,128,0,15,,,,,7,,,66,100
18816,note_on,,,,,0,0,15,,,,,7,,,69,100
18816,note_on,,,,,64,0,12,,,,,4,,,62,85
18816,note_on,,,,,64,0,10,,,,,2,,,78,85
18816,note_on,,,,,64,0,16,,,,,7,,,50,100
18816,note_on,,,,,64,0,13,,,,,5,,,50,85
18816,set_tempo,,,,,40,1,0,,1363636,,,,,,,
18816,note_on,,,,,64,0,11,,,,,3,,,69,85
18816,note_on,,,,,64,0,14,,,,,6,,,38,85
18852,set_tempo,,,,,36,1,0,,1395348,,,,,,,
18892,set_tempo,,,,,40,1,0,,1428571,,,,,,,
18928,set_tempo,,,,,36,1,0,,1463414,,,,,,,
18944,note_off,,,,,128,0,12,,,,,4,,,62,100
18944,note_off,,,,,128,0,13,,,,,5,,,50,100
18944,note_off,,,,,128,0,16,,,,,7,,,50,100
18944,note_off,,,,,128,0,14,,,,,6,,,38,100
18944,note_off,,,,,128,0,10,,,,,2,,,78,100
18944,note_off,,,,,128,0,11,,,,,3,,,69,100
18968,set_tempo,,,,,40,1,0,,1500000,,,,,,,
19008,note_on,,,,,64,0,13,,,,,5,,,50,85
19008,note_on,,,,,64,0,16,,,,,7,,,50,100
19008,note_on,,,,,64,0,10,,,,,2,,,78,85
19008,set_tempo,,,,,40,1,0,,1538461,,,,,,,
19008,note_on,,,,,64,0,11,,,,,3,,,69,85
19008,note_on,,,,,64,0,12,,,,,4,,,62,85
19008,note_on,,,,,64,0,14,,,,,6,,,38,85
19044,set_tempo,,,,,36,1,0,,1578947,,,,,,,
19072,note_off,,,,,0,0,15,,,,,7,,,69,100
19072,note_off,,,,,256,0,15,,,,,7,,,66,100
19084,set_tempo,,,,,40,1,0,,1621621,,,,,,,
19120,set_tempo,,,,,36,1,0,,1666666,,,,,,,
19136,note_off,,,,,128,0,13,,,,,5,,,50,100
19136,note_off,,,,,128,0,14,,,,,6,,,38,100
19136,note_off,,,,,128,0,16,,,,,7,,,50,100
19136,note_off,,,,,128,0,10,,,,,2,,,78,100
19136,note_off,,,,,128,0,12,,,,,4,,,62,100
19136,note_off,,,,,128,0,11,,,,,3,,,69,100
19160,set_tempo,,,,,40,1,0,,1714285,,,,,,,
19200,note_on,,,,,64,0,11,,,,,3,,,70,85
19200,note_on,,,,,64,0,12,,,,,4,,,62,85
19200,set_tempo,,,,,40,1,0,,1764705,,,,,,,
19200,note_on,,,,,64,0,10,,,,,2,,,79,85
19200,note_on,,,,,64,0,14,,,,,6,,,31,85
19200,note_on,,,,,64,0,13,,,,,5,,,43,85
19200,note_on,,,,,64,0,16,,,,,7,,,43,100
19200,note_on,,,,,128,0,15,,,,,7,,,58,100
19228,note_on,,,,,28,0,15,,,,,7,,,62,100
19260,note_on,,,,,32,0,15,,,,,7,,,67,100
19712,note_off,,,,,512,0,14,,,,,6,,,31,100
19712,note_off,,,,,512,0,12,,,,,4,,,62,100
19712,note_off,,,,,512,0,10,,,,,2,,,79,100
19712,note_off,,,,,512,0,13,,,,,5,,,43,100
19712,note_off,,,,,512,0,16,,,,,7,,,43,100
19712,note_off,,,,,512,0,11,,,,,3,,,70,100
19712,note_off,,,,,452,0,15,,,,,7,,,58,100
19740,note_off,,,,,28,0,15,,,,,7,,,62,100
19772,note_off,,,,,32,0,15,,,,,7,,,67,100
19968,set_tempo,,,,,768,1,0,,500000,,,,,,,
19968,note_on,,,,,256,0,10,,,,,2,,,79,110
19968,note_on,,,,,196,0,15,,,,,7,,,67,100
19968,note_on,,,,,256,0,12,,,,,4,,,70,100
19968,note_on,,,,,0,0,12,,,,,4,,,62,100
19968,note_on,,,,,0,0,15,,,,,7,,,58,100
19968,note_on,,,,,0,0,15,,,,,7,,,62,100
19968,note_on,,,,,256,0,14,,,,,6,,,43,100
19968,note_on,,,,,256,0,11,,,,,3,,,79,50
19968,note_on,,,,,256,0,16,,,,,7,,,43,100
19968,note_on,,,,,256,0,13,,,,,5,,,43,100
20096,note_off,,,,,128,0,11,,,,,3,,,79,100
20096,note_off,,,,,128,0,10,,,,,2,,,79,100
20160,note_on,,,,,64,0,10,,,,,2,,,77,110
20160,note_on,,,,,64,0,11,,,,,3,,,77,50
20224,note_off,,,,,256,0,16,,,,,7,,,43,100
20224,note_off,,,,,0,0,15,,,,,7,,,58,100
20224,note_off,,,,,0,0,15,,,,,7,,,62,100
20224,note_off,,,,,256,0,13,,,,,5,,,43,100
20224,note_off,,,,,256,0,15,,,,,7,,,67,100
20224,note_off,,,,,0,0,12,,,,,4,,,62,100
20224,note_off,,,,,256,0,14,,,,,6,,,43,100
20224,note_off,,,,,256,0,12,,,,,4,,,70,100
20224,note_off,,,,,64,0,11,,,,,3,,,77,100
20224,note_off,,,,,64,0,10,,,,,2,,,77,100
20256,note_on,,,,,32,0,11,,,,,3,,,75,50
20256,note_on,,,,,32,0,10,,,,,2,,,75,110
20320,note_off,,,,,64,0,11,,,,,3,,,75,100
20320,note_off,,,,,64,0,10,,,,,2,,,75,100
20352,note_on,,,,,32,0,10,,,,,2,,,74,110
20352,note_on,,,,,32,0,11,,,,,3,,,74,50
20416,note_off,,,,,64,0,11,,,,,3,,,74,100
20416,note_off,,,,,64,0,10,,,,,2,,,74,100
20448,note_on,,,,,32,0,11,,,,,3,,,72,50
20448,note_on,,,,,32,0,10,,,,,2,,,72,110
20512,note_off,,,,,64,0,10,,,,,2,,,72,100
20512,note_off,,,,,64,0,11,,,,,3,,,72,100
20544,note_on,,,,,32,0,11,,,,,3,,,70,50
20544,note_on,,,,,32,0,10,,,,,2,,,70,110
20608,note_off,,,,,64,0,10,,,,,2,,,70,100
20608,note_off,,,,,64,0,11,,,,,3,,,70,100
20640,note_on,,,,,32,0,11,,,,,3,,,69,50
20640,note_on,,,,,32,0,10,,,,,2,,,69,110
20704,note_off,,,,,64,0,10,,,,,2,,,69,100
20704,note_off,,,,,64,0,11,,,,,3,,,69,100
20736,note_on,,,,,32,0,10,,,,,2,,,67,110
20736,note_on,,,,,512,0,15,,,,,7,,,67,100
20736,note_on,,,,,32,0,11,,,,,3,,,67,50
20736,note_on,,,,,512,0,16,,,,,7,,,43,100
20736,note_on,,,,,512,0,13,,,,,5,,,43,100
20736,note_on,,,,,0,0,15,,,,,7,,,62,100
20736,note_on,,,,,512,0,14,,,,,6,,,43,100
20736,note_on,,,,,512,0,12,,,,,4,,,70,100
20736,note_on,,,,,0,0,12,,,,,4,,,62,100
20736,note_on,,,,,0,0,15,,,,,7,,,58,100
20800,note_off,,,,,64,0,10,,,,,2,,,67,100
20800,note_off,,,,,64,0,11,,,,,3,,,67,100
20832,note_on,,,,,32,0,11,,,,,3,,,69,50
20832,note_on,,,,,32,0,10,,,,,2,,,69,110
20896,note_off,,,,,64,0,11,,,,,3,,,69,100
20896,note_off,,,,,64,0,10,,,,,2,,,69,100
20928,note_on,,,,,32,0,10,,,,,2,,,70,110
20928,note_on,,,,,32,0,11,,,,,3,,,70,50
20992,note_off,,,,,256,0,14,,,,,6,,,43,100
20992,note_off,,,,,64,0,11,,,,,3,,,70,100
20992,note_off,,,,,0,0,15,,,,,7,,,62,100
20992,note_off,,,,,256,0,12,,,,,4,,,70,100
20992,note_off,,,,,256,0,15,,,,,7,,,67,100
20992,note_off,,,,,0,0,15,,,,,7,,,58,100
20992,note_off,,,,,64,0,10,,,,,2,,,70,100
20992,note_off,,,,,256,0,13,,,,,5,,,43,100
20992,note_off,,,,,256,0,16,,,,,7,,,43,100
20992,note_off,,,,,0,0,12,,,,,4,,,62,100
21024,note_on,,,,,32,0,11,,,,,3,,,72,50
21024,note_on,,,,,32,0,10,,,,,2,,,72,110
21088,note_off,,,,,64,0,10,,,,,2,,,72,100
21088,note_off,,,,,64,0,11,,,,,3,,,72,100
21120,note_on,,,,,32,0,10,,,,,2,,,74,110
21120,note_on,,,,,32,0,11,,,,,3,,,74,50
21184,note_off,,,,,64,0,11,,,,,3,,,74,100
21184,note_off,,,,,64,0,10,,,,,2,,,74,100
21216,note_on,,,,,32,0,11,,,,,3,,,76,50
21216,note_on,,,,,32,0,10,,,,,2,,,76,110
21280,note_off,,,,,64,0,11,,,,,3,,,76,100
21280,note_off,,,,,64,0,10,,,,,2,,,76,100
21312,note_on,,,,,32,0,10,,,,,2,,,78,110
21312,note_on,,,,,32,0,11,,,,,3,,,78,50
21376,note_off,,,,,64,0,11,,,,,3,,,78,100
21376,note_off,,,,,64,0,10,,,,,2,,,78,100
21408,note_on,,,,,32,0,10,,,,,2,,,79,110
21408,note_on,,,,,32,0,11,,,,,3,,,79,50
21472,note_off,,,,,64,0,10,,,,,2,,,79,100
21472,note_off,,,,,64,0,11,,,,,3,,,79,100
21504,note_on,,,,,0,0,12,,,,,4,,,66,100
21504,note_on,,,,,32,0,10,,,,,2,,,78,110
21504,note_on,,,,,32,0,11,,,,,3,,,78,50
21504,note_on,,,,,512,0,13,,,,,5,,,50,100
21504,note_on,,,,,0,0,15,,,,,7,,,66,100
21504,note_on,,,,,512,0,15,,,,,7,,,69,100
21504,note_on,,,,,512,0,14,,,,,6,,,38,100
21504,note_on,,,,,512,0,12,,,,,4,,,69,100
21504,note_on,,,,,512,0,16,,,,,7,,,50,100
21632,note_off,,,,,128,0,16,,,,,7,,,50,100
21632,note_off,,,,,128,0,10,,,,,2,,,78,100
21632,note_off,,,,,128,0,13,,,,,5,,,50,100
21632,note_off,,,,,128,0,11,,,,,3,,,78,100
21632,note_off,,,,,128,0,14,,,,,6,,,38,100
21696,note_on,,,,,64,0,14,,,,,6,,,36,100
21696,note_on,,,,,64,0,10,,,,,2,,,74,110
21696,note_on,,,,,64,0,16,,,,,7,,,48,100
21696,note_on,,,,,64,0,11,,,,,3,,,74,50
21696,note_on,,,,,64,0,13,,,,,5,,,48,100
21760,note_off,,,,,0,0,15,,,,,7,,,66,100
21760,note_off,,,,,0,0,12,,,,,4,,,66,100
21760,note_off,,,,,256,0,12,,,,,4,,,69,100
21760,note_off,,,,,256,0,15,,,,,7,,,69,100
21824,note_off,,,,,128,0,10,,,,,2,,,74,100
21824,note_off,,,,,128,0,16,,,,,7,,,48,100
21824,note_off,,,,,128,0,11,,,,,3,,,74,100
21824,note_off,,,,,128,0,13,,,,,5,,,48,100
21824,note_off,,,,,128,0,14,,,,,6,,,36,100
21888,note_on,,,,,0,0,15,,,,,7,,,62,100
21888,note_on,,,,,64,0,13,,,,,5,,,47,99
21888,note_on,,,,,64,0,14,,,,,6,,,35,99
21888,note_on,,,,,128,0,12,,,,,4,,,74,99
21888,note_on,,,,,64,0,16,,,,,7,,,47,100
21888,note_on,,,,,128,0,15,,,,,7,,,66,100
21984,note_on,,,,,160,0,11,,,,,3,,,79,48
21984,note_on,,,,,160,0,10,,,,,2,,,79,108
22016,note_off,,,,,128,0,14,,,,,6,,,35,100
22016,note_off,,,,,128,0,12,,,,,4,,,74,100
22016,note_off,,,,,128,0,16,,,,,7,,,47,100
22016,note_off,,,,,0,0,15,,,,,7,,,62,100
22016,note_off,,,,,128,0,15,,,,,7,,,66,100
22016,note_off,,,,,128,0,13,,,,,5,,,47,100
22048,note_off,,,,,64,0,11,,,,,3,,,79,100
22048,note_off,,,,,64,0,10,,,,,2,,,79,100
22080,note_on,,,,,64,0,13,,,,,5,,,43,98
22080,note_on,,,,,32,0,10,,,,,2,,,77,108
22080,note_on,,,,,64,0,12,,,,,4,,,71,98
22080,note_on,,,,,0,0,15,,,,,7,,,69,100
22080,note_on,,,,,0,0,15,,,,,7,,,62,100
22080,note_on,,,,,64,0,15,,,,,7,,,65,100
22080,note_on,,,,,32,0,11,,,,,3,,,77,48
22080,note_on,,,,,64,0,14,,,,,6,,,43,98
22080,note_on,,,,,64,0,16,,,,,7,,,43,100
22144,note_off,,,,,64,0,11,,,,,3,,,77,100
22144,note_off,,,,,64,0,10,,,,,2,,,77,100
22176,note_on,,,,,32,0,10,,,,,2,,,79,107
22176,note_on,,,,,32,0,11,,,,,3,,,79,47
22208,note_off,,,,,128,0,12,,,,,4,,,71,100
22208,note_off,,,,,128,0,15,,,,,7,,,65,100
22208,note_off,,,,,0,0,15,,,,,7,,,62,100
22208,note_off,,,,,0,0,15,,,,,7,,,69,100
22208,note_off,,,,,128,0,14,,,,,6,,,43,100
22208,note_off,,,,,128,0,16,,,,,7,,,43,100
22208,note_off,,,,,128,0,13,,,,,5,,,43,100
22240,note_off,,,,,64,0,10,,,,,2,,,79,100
22240,note_off,,,,,64,0,11,,,,,3,,,79,100
22272,note_on,,,,,32,0,11,,,,,3,,,75,47
22272,note_on,,,,,64,0,12,,,,,4,,,67,97
22272,note_on,,,,,64,0,14,,,,,6,,,36,97
22272,note_on,,,,,64,0,16,,,,,7,,,48,100
22272,note_on,,,,,32,0,10,,,,,2,,,75,107
22272,note_on,,,,,64,0,15,,,,,7,,,67,100
22272,note_on,,,,,0,0,15,,,,,7,,,63,100
22272,note_on,,,,,64,0,13,,,,,5,,,48,97
22336,note_off,,,,,64,0,10,,,,,2,,,75,100
22336,note_off,,,,,64,0,11,,,,,3,,,75,100
22368,note_on,,,,,32,0,10,,,,,2,,,74,106
22368,note_on,,,,,32,0,11,,,,,3,,,74,46
22400,note_off,,,,,128,0,16,,,,,7,,,48,100
22400,note_off,,,,,128,0,13,,,,,5,,,48,100
22400,note_off,,,,,128,0,15,,,,,7,,,67,100
22400,note_off,,,,,0,0,15,,,,,7,,,63,100
22400,note_off,,,,,128,0,14,,,,,6,,,36,100
22432,note_off,,,,,64,0,10,,,,,2,,,74,100
22432,note_off,,,,,64,0,11,,,,,3,,,74,100
22464,note_on,,,,,32,0,11,,,,,3,,,72,46
22464,note_on,,,,,64,0,16,,,,,7,,,51,100
22464,note_on,,,,,64,0,13,,,,,5,,,51,96
22464,note_on,,,,,64,0,15,,,,,7,,,70,100
22464,note_on,,,,,0,0,15,,,,,7,,,67,100
22464,note_on,,,,,64,0,14,,,,,6,,,39,96
22464,note_on,,,,,32,0,10,,,,,2,,,72,106
22528,note_off,,,,,256,0,12,,,,,4,,,67,100
22528,note_off,,,,,64,0,11,,,,,3,,,72,100
22528,note_off,,,,,64,0,10,,,,,2,,,72,100
22560,note_on,,,,,32,0,11,,,,,3,,,70,45
22560,note_on,,,,,32,0,10,,,,,2,,,70,105
22592,note_off,,,,,128,0,15,,,,,7,,,70,100
22592,note_off,,,,,128,0,16,,,,,7,,,51,100
22592,note_off,,,,,128,0,13,,,,,5,,,51,100
22592,note_off,,,,,128,0,14,,,,,6,,,39,100
22592,note_off,,,,,0,0,15,,,,,7,,,67,100
22624,note_off,,,,,64,0,11,,,,,3,,,70,100
22624,note_off,,,,,64,0,10,,,,,2,,,70,100
22656,note_on,,,,,64,0,15,,,,,7,,,72,100
22656,note_on,,,,,64,0,14,,,,,6,,,41,95
22656,note_on,,,,,0,0,15,,,,,7,,,69,100
22656,note_on,,,,,128,0,12,,,,,4,,,60,95
22656,note_on,,,,,32,0,10,,,,,2,,,69,105
22656,note_on,,,,,64,0,13,,,,,5,,,53,95
22656,note_on,,,,,32,0,11,,,,,3,,,69,45
22656,note_on,,,,,64,0,16,,,,,7,,,53,100
22784,note_off,,,,,128,0,13,,,,,5,,,53,100
22784,note_off,,,,,128,0,16,,,,,7,,,53,100
22784,note_off,,,,,128,0,11,,,,,3,,,69,100
22784,note_off,,,,,128,0,14,,,,,6,,,41,100
22784,note_off,,,,,128,0,10,,,,,2,,,69,100
22784,note_off,,,,,128,0,15,,,,,7,,,72,100
22784,note_off,,,,,0,0,15,,,,,7,,,69,100
22848,note_on,,,,,64,0,16,,,,,7,,,45,100
22848,note_on,,,,,64,0,10,,,,,2,,,77,104
22848,note_on,,,,,64,0,13,,,,,5,,,45,94
22848,note_on,,,,,64,0,15,,,,,7,,,63,100
22848,note_on,,,,,0,0,15,,,,,7,,,60,100
22848,note_on,,,,,64,0,11,,,,,3,,,77,44
22848,note_on,,,,,64,0,14,,,,,6,,,33,94
22912,note_off,,,,,256,0,12,,,,,4,,,60,100
22976,note_off,,,,,128,0,13,,,,,5,,,45,100
22976,note_off,,,,,128,0,10,,,,,2,,,77,100
22976,note_off,,,,,128,0,16,,,,,7,,,45,100
22976,note_off,,,,,128,0,11,,,,,3,,,77,100
22976,note_off,,,,,0,0,15,,,,,7,,,60,100
22976,note_off,,,,,128,0,15,,,,,7,,,63,100
22976,note_off,,,,,128,0,14,,,,,6,,,33,100
23040,note_on,,,,,64,0,10,,,,,2,,,74,103
23040,note_on,,,,,64,0,16,,,,,7,,,46,100
23040,note_on,,,,,64,0,13,,,,,5,,,46,93
23040,note_on,,,,,64,0,15,,,,,7,,,65,100
23040,note_on,,,,,128,0,12,,,,,4,,,65,93
23040,note_on,,,,,0,0,15,,,,,7,,,62,100
23040,note_on,,,,,64,0,14,,,,,6,,,34,93
23040,note_on,,,,,64,0,11,,,,,3,,,74,43
23168,note_off,,,,,128,0,11,,,,,3,,,74,100
23168,note_off,,,,,128,0,14,,,,,6,,,34,100
23168,note_off,,,,,128,0,13,,,,,5,,,46,100
23168,note_off,,,,,128,0,16,,,,,7,,,46,100
23168,note_off,,,,,128,0,10,,,,,2,,,74,100
23232,note_on,,,,,64,0,13,,,,,5,,,58,92
23232,note_on,,,,,64,0,10,,,,,2,,,58,102
23232,note_on,,,,,64,0,11,,,,,3,,,58,42
23232,note_on,,,,,64,0,16,,,,,7,,,58,100
23232,note_on,,,,,64,0,14,,,,,6,,,46,92
23296,note_off,,,,,256,0,15,,,,,7,,,65,100
23296,note_off,,,,,0,0,15,,,,,7,,,62,100
23296,note_off,,,,,64,0,13,,,,,5,,,58,100
23296,note_off,,,,,64,0,14,,,,,6,,,46,100
23296,note_off,,,,,64,0,16,,,,,7,,,58,100
23296,note_off,,,,,256,0,12,,,,,4,,,65,100
23328,note_on,,,,,32,0,14,,,,,6,,,45,91
23328,note_on,,,,,32,0,13,,,,,5,,,57,91
23328,note_on,,,,,32,0,16,,,,,7,,,57,100
23360,note_off,,,,,128,0,10,,,,,2,,,58,100
23360,note_off,,,,,128,0,11,,,,,3,,,58,100
23392,note_off,,,,,64,0,13,,,,,5,,,57,100
23392,note_off,,,,,64,0,16,,,,,7,,,57,100
23392,note_off,,,,,64,0,14,,,,,6,,,45,100
23424,note_on,,,,,32,0,13,,,,,5,,,55,91
23424,note_on,,,,,32,0,14,,,,,6,,,43,91
23424,note_on,,,,,32,0,16,,,,,7,,,55,100
23424,note_on,,,,,128,0,12,,,,,4,,,70,91
23424,note_on,,,,,128,0,15,,,,,7,,,70,100
23424,note_on,,,,,0,0,15,,,,,7,,,74,100
23520,note_on,,,,,160,0,11,,,,,3,,,75,40
23520,note_on,,,,,160,0,10,,,,,2,,,75,100
23552,note_off,,,,,128,0,14,,,,,6,,,43,100
23552,note_off,,,,,0,0,15,,,,,7,,,74,100
23552,note_off,,,,,128,0,12,,,,,4,,,70,100
23552,note_off,,,,,128,0,13,,,,,5,,,55,100
23552,note_off,,,,,128,0,16,,,,,7,,,55,100
23552,note_off,,,,,128,0,15,,,,,7,,,70,100
23584,note_off,,,,,64,0,11,,,,,3,,,75,100
23584,note_off,,,,,64,0,10,,,,,2,,,75,100
23616,note_on,,,,,32,0,11,,,,,3,,,74,40
23616,note_on,,,,,64,0,15,,,,,7,,,62,100
23616,note_on,,,,,32,0,10,,,,,2,,,74,100
23616,note_on,,,,,64,0,16,,,,,7,,,51,100
23616,note_on,,,,,64,0,12,,,,,4,,,67,90
23616,note_on,,,,,64,0,13,,,,,5,,,51,90
23616,note_on,,,,,64,0,14,,,,,6,,,39,90
23616,note_on,,,,,0,0,15,,,,,7,,,70,100
23680,note_off,,,,,64,0,10,,,,,2,,,74,100
23680,note_off,,,,,64,0,11,,,,,3,,,74,100
23712,note_on,,,,,32,0,10,,,,,2,,,75,99
23712,note_on,,,,,32,0,11,,,,,3,,,75,39
23744,note_off,,,,,128,0,13,,,,,5,,,51,100
23744,note_off,,,,,128,0,14,,,,,6,,,39,100
23744,note_off,,,,,128,0,12,,,,,4,,,67,100
23744,note_off,,,,,0,0,15,,,,,7,,,70,100
23744,note_off,,,,,128,0,16,,,,,7,,,51,100
23744,note_off,,,,,128,0,15,,,,,7,,,62,100
23776,note_off,,,,,64,0,11,,,,,3,,,75,100
23776,note_off,,,,,64,0,10,,,,,2,,,75,100
23808,note_on,,,,,0,0,15,,,,,7,,,63,100
23808,note_on,,,,,64,0,12,,,,,4,,,63,89
23808,note_on,,,,,64,0,15,,,,,7,,,55,100
23808,note_on,,,,,64,0,13,,,,,5,,,45,89
23808,note_on,,,,,64,0,14,,,,,6,,,33,89
23808,note_on,,,,,32,0,11,,,,,3,,,72,39
23808,note_on,,,,,64,0,16,,,,,7,,,45,100
23808,note_on,,,,,32,0,10,,,,,2,,,72,99
23872,note_off,,,,,64,0,10,,,,,2,,,72,100
23872,note_off,,,,,64,0,11,,,,,3,,,72,100
23904,note_on,,,,,32,0,11,,,,,3,,,70,38
23904,note_on,,,,,32,0,10,,,,,2,,,70,98
23936,note_off,,,,,128,0,16,,,,,7,,,45,100
23936,note_off,,,,,128,0,13,,,,,5,,,45,100
23936,note_off,,,,,0,0,15,,,,,7,,,63,100
23936,note_off,,,,,128,0,14,,,,,6,,,33,100
23936,note_off,,,,,128,0,15,,,,,7,,,55,100
23968,note_off,,,,,64,0,11,,,,,3,,,70,100
23968,note_off,,,,,64,0,10,,,,,2,,,70,100
24000,note_on,,,,,0,0,15,,,,,7,,,67,100
24000,note_on,,,,,32,0,11,,,,,3,,,69,38
24000,note_on,,,,,64,0,15,,,,,7,,,69,100
24000,note_on,,,,,64,0,16,,,,,7,,,48,100
24000,note_on,,,,,32,0,10,,,,,2,,,69,98
24000,note_on,,,,,64,0,14,,,,,6,,,36,88
24000,note_on,,,,,64,0,13,,,,,5,,,48,88
24064,note_off,,,,,256,0,12,,,,,4,,,63,100
24064,note_off,,,,,64,0,11,,,,,3,,,69,100
24064,note_off,,,,,64,0,10,,,,,2,,,69,100
24096,note_on,,,,,32,0,11,,,,,3,,,67,37
24096,note_on,,,,,32,0,10,,,,,2,,,67,97
24128,note_off,,,,,128,0,14,,,,,6,,,36,100
24128,note_off,,,,,128,0,13,,,,,5,,,48,100
24128,note_off,,,,,128,0,16,,,,,7,,,48,100
24128,note_off,,,,,0,0,15,,,,,7,,,67,100
24128,note_off,,,,,128,0,15,,,,,7,,,69,100
24160,note_off,,,,,64,0,11,,,,,3,,,67,100
24160,note_off,,,,,64,0,10,,,,,2,,,67,100
24192,note_on,,,,,32,0,10,,,,,2,,,66,97
24192,note_on,,,,,64,0,14,,,,,6,,,38,87
24192,note_on,,,,,64,0,15,,,,,7,,,66,100
24192,note_on,,,,,128,0,12,,,,,4,,,57,87
24192,note_on,,,,,0,0,15,,,,,7,,,69,100
24192,note_on,,,,,64,0,13,,,,,5,,,50,87
24192,note_on,,,,,32,0,11,,,,,3,,,66,37
24192,note_on,,,,,64,0,16,,,,,7,,,50,100
24320,note_off,,,,,128,0,16,,,,,7,,,50,100
24320,note_off,,,,,128,0,14,,,,,6,,,38,100
24320,note_off,,,,,0,0,15,,,,,7,,,69,100
24320,note_off,,,,,128,0,15,,,,,7,,,66,100
24320,note_off,,,,,128,0,11,,,,,3,,,66,100
24320,note_off,,,,,128,0,13,,,,,5,,,50,100
24320,note_off,,,,,128,0,10,,,,,2,,,66,100
24384,note_on,,,,,64,0,14,,,,,6,,,42,86
24384,note_on,,,,,64,0,16,,,,,7,,,42,100
24384,note_on,,,,,64,0,13,,,,,5,,,42,86
24384,note_on,,,,,64,0,15,,,,,7,,,62,100
24384,note_on,,,,,64,0,11,,,,,3,,,74,36
24384,note_on,,,,,0,0,15,,,,,7,,,57,100
24384,note_on,,,,,64,0,10,,,,,2,,,74,96
24448,note_off,,,,,256,0,12,,,,,4,,,57,100
24512,note_off,,,,,128,0,15,,,,,7,,,62,100
24512,note_off,,,,,0,0,15,,,,,7,,,57,100
24512,note_off,,,,,128,0,13,,,,,5,,,42,100
24512,note_off,,,,,128,0,14,,,,,6,,,42,100
24512,note_off,,,,,128,0,10,,,,,2,,,74,100
24512,note_off,,,,,128,0,11,,,,,3,,,74,100
24512,note_off,,,,,128,0,16,,,,,7,,,42,100
24576,note_on,,,,,64,0,16,,,,,7,,,43,100
24576,note_on,,,,,64,0,10,,,,,2,,,70,95
24576,note_on,,,,,64,0,14,,,,,6,,,43,85
24576,note_on,,,,,128,0,12,,,,,4,,,62,85
24576,note_on,,,,,0,0,15,,,,,7,,,58,100
24576,note_on,,,,,64,0,13,,,,,5,,,43,85
24576,note_on,,,,,64,0,11,,,,,3,,,70,35
24576,note_on,,,,,64,0,15,,,,,7,,,62,100
24640,note_off,,,,,64,0,13,,,,,5,,,43,100
24640,note_off,,,,,64,0,14,,,,,6,,,43,100
24640,note_off,,,,,64,0,12,,,,,4,,,62,100
24672,note_on,,,,,32,0,13,,,,,5,,,46,85
24672,note_on,,,,,32,0,14,,,,,6,,,34,85
24672,note_on,,,,,32,0,12,,,,,4,,,62,85
24704,note_off,,,,,0,0,15,,,,,7,,,58,100
24704,note_off,,,,,128,0,15,,,,,7,,,62,100
24704,note_off,,,,,128,0,11,,,,,3,,,70,100
24704,note_off,,,,,128,0,16,,,,,7,,,43,100
24704,note_off,,,,,128,0,10,,,,,2,,,70,100
24736,note_off,,,,,64,0,13,,,,,5,,,46,100
24736,note_off,,,,,64,0,14,,,,,6,,,34,100
24736,note_off,,,,,64,0,12,,,,,4,,,62,100
24768,note_on,,,,,64,0,16,,,,,7,,,46,100
24768,note_on,,,,,32,0,14,,,,,6,,,34,85
24768,note_on,,,,,64,0,11,,,,,3,,,79,35
24768,note_on,,,,,64,0,10,,,,,2,,,79,95
24768,note_on,,,,,64,0,15,,,,,7,,,67,100
24768,note_on,,,,,32,0,12,,,,,4,,,62,85
24768,note_on,,,,,32,0,13,,,,,5,,,46,85
24768,note_on,,,,,0,0,15,,,,,7,,,62,100
24832,note_off,,,,,64,0,14,,,,,6,,,34,100
24832,note_off,,,,,64,0,13,,,,,5,,,46,100
24832,note_off,,,,,64,0,12,,,,,4,,,62,100
24864,note_on,,,,,32,0,12,,,,,4,,,62,85
24864,note_on,,,,,32,0,14,,,,,6,,,34,85
24864,note_on,,,,,32,0,13,,,,,5,,,46,85
24896,note_off,,,,,0,0,15,,,,,7,,,62,100
24896,note_off,,,,,128,0,16,,,,,7,,,46,100
24896,note_off,,,,,128,0,15,,,,,7,,,67,100
24928,note_off,,,,,64,0,14,,,,,6,,,34,100
24928,note_off,,,,,64,0,13,,,,,5,,,46,100
24928,note_off,,,,,64,0,12,,,,,4,,,62,100
24960,note_on,,,,,0,0,15,,,,,7,,,67,100
24960,note_on,,,,,32,0,13,,,,,5,,,47,86
24960,note_on,,,,,64,0,15,,,,,7,,,65,100
24960,note_on,,,,,64,0,16,,,,,7,,,47,100
24960,note_on,,,,,32,0,12,,,,,4,,,62,86
24960,note_on,,,,,32,0,14,,,,,6,,,35,86
25024,note_off,,,,,256,0,10,,,,,2,,,79,100
25024,note_off,,,,,64,0,13,,,,,5,,,47,100
25024,note_off,,,,,64,0,14,,,,,6,,,35,100
25024,note_off,,,,,256,0,11,,,,,3,,,79,100
25024,note_off,,,,,64,0,12,,,,,4,,,62,100
25056,note_on,,,,,32,0,12,,,,,4,,,62,86
25056,note_on,,,,,32,0,13,,,,,5,,,47,86
25056,note_on,,,,,32,0,14,,,,,6,,,35,86
25088,note_off,,,,,128,0,16,,,,,7,,,47,100
25120,note_off,,,,,64,0,12,,,,,4,,,62,100
25120,note_off,,,,,64,0,14,,,,,6,,,35,100
25120,note_off,,,,,64,0,13,,,,,5,,,47,100
25152,note_on,,,,,64,0,16,,,,,7,,,47,100
25152,note_on,,,,,128,0,10,,,,,2,,,77,96
25152,note_on,,,,,32,0,12,,,,,4,,,67,86
25152,note_on,,,,,0,0,12,,,,,4,,,62,86
25152,note_on,,,,,32,0,13,,,,,5,,,47,86
25152,note_on,,,,,32,0,14,,,,,6,,,35,86
25152,note_on,,,,,128,0,11,,,,,3,,,77,36
25216,note_off,,,,,64,0,13,,,,,5,,,47,100
25216,note_off,,,,,256,0,15,,,,,7,,,65,100
25216,note_off,,,,,64,0,12,,,,,4,,,67,100
25216,note_off,,,,,0,0,12,,,,,4,,,62,100
25216,note_off,,,,,64,0,14,,,,,6,,,35,100
25216,note_off,,,,,0,0,15,,,,,7,,,67,100
25248,note_on,,,,,32,0,13,,,,,5,,,47,87
25248,note_on,,,,,32,0,14,,,,,6,,,35,87
25248,note_on,,,,,32,0,12,,,,,4,,,67,87
25248,note_on,,,,,0,0,12,,,,,4,,,62,87
25280,note_off,,,,,128,0,10,,,,,2,,,77,100
25280,note_off,,,,,128,0,16,,,,,7,,,47,100
25280,note_off,,,,,128,0,11,,,,,3,,,77,100
25312,note_off,,,,,64,0,13,,,,,5,,,47,100
25312,note_off,,,,,0,0,12,,,,,4,,,62,100
25312,note_off,,,,,64,0,14,,,,,6,,,35,100
25312,note_off,,,,,64,0,12,,,,,4,,,67,100
25344,note_on,,,,,64,0,16,,,,,7,,,48,100
25344,note_on,,,,,32,0,12,,,,,4,,,64,87
25344,note_on,,,,,0,0,12,,,,,4,,,67,87
25344,note_on,,,,,32,0,14,,,,,6,,,36,87
25344,note_on,,,,,128,0,15,,,,,7,,,64,100
25344,note_on,,,,,0,0,15,,,,,7,,,67,100
25344,note_on,,,,,64,0,10,,,,,2,,,76,97
25344,note_on,,,,,32,0,13,,,,,5,,,48,87
25344,note_on,,,,,64,0,11,,,,,3,,,76,37
25408,note_off,,,,,64,0,14,,,,,6,,,36,100
25408,note_off,,,,,64,0,12,,,,,4,,,64,100
25408,note_off,,,,,64,0,13,,,,,5,,,48,100
25408,note_off,,,,,0,0,12,,,,,4,,,67,100
25440,note_on,,,,,32,0,14,,,,,6,,,36,87
25440,note_on,,,,,32,0,12,,,,,4,,,64,87
25440,note_on,,,,,32,0,13,,,,,5,,,48,87
25440,note_on,,,,,0,0,12,,,,,4,,,67,87
25472,note_off,,,,,128,0,16,,,,,7,,,48,100
25472,note_off,,,,,0,0,15,,,,,7,,,67,100
25472,note_off,,,,,128,0,15,,,,,7,,,64,100
25472,note_off,,,,,128,0,10,,,,,2,,,76,100
25472,note_off,,,,,128,0,11,,,,,3,,,76,100
25504,note_off,,,,,64,0,12,,,,,4,,,64,100
25504,note_off,,,,,0,0,12,,,,,4,,,67,100
25504,note_off,,,,,64,0,14,,,,,6,,,36,100
25504,note_off,,,,,64,0,13,,,,,5,,,48,100
25536,note_on,,,,,32,0,12,,,,,4,,,64,88
25536,note_on,,,,,32,0,14,,,,,6,,,36,88
25536,note_on,,,,,64,0,10,,,,,2,,,81,98
25536,note_on,,,,,64,0,16,,,,,7,,,48,100
25536,note_on,,,,,0,0,15,,,,,7,,,69,100
25536,note_on,,,,,64,0,15,,,,,7,,,64,100
25536,note_on,,,,,32,0,13,,,,,5,,,48,88
25536,note_on,,,,,64,0,11,,,,,3,,,81,38
25600,note_off,,,,,64,0,12,,,,,4,,,64,100
25600,note_off,,,,,64,0,14,,,,,6,,,36,100
25600,note_off,,,,,64,0,13,,,,,5,,,48,100
25632,note_on,,,,,32,0,14,,,,,6,,,36,88
25632,note_on,,,,,32,0,13,,,,,5,,,48,88
25632,note_on,,,,,32,0,12,,,,,4,,,64,88
25664,note_off,,,,,128,0,15,,,,,7,,,64,100
25664,note_off,,,,,128,0,16,,,,,7,,,48,100
25664,note_off,,,,,0,0,15,,,,,7,,,69,100
25696,note_off,,,,,64,0,13,,,,,5,,,48,100
25696,note_off,,,,,64,0,14,,,,,6,,,36,100
25696,note_off,,,,,64,0,12,,,,,4,,,64,100
25728,note_on,,,,,0,0,15,,,,,7,,,67,100
25728,note_on,,,,,64,0,15,,,,,7,,,69,100
25728,note_on,,,,,32,0,12,,,,,4,,,64,88
25728,note_on,,,,,32,0,13,,,,,5,,,49,88
25728,note_on,,,,,64,0,16,,,,,7,,,49,100
25728,note_on,,,,,32,0,14,,,,,6,,,37,88
25792,note_off,,,,,64,0,12,,,,,4,,,64,100
25792,note_off,,,,,256,0,10,,,,,2,,,81,100
25792,note_off,,,,,64,0,13,,,,,5,,,49,100
25792,note_off,,,,,256,0,11,,,,,3,,,81,100
25792,note_off,,,,,64,0,14,,,,,6,,,37,100
25824,note_on,,,,,32,0,12,,,,,4,,,64,89
25824,note_on,,,,,32,0,13,,,,,5,,,49,89
25824,note_on,,,,,32,0,14,,,,,6,,,37,89
25856,note_off,,,,,128,0,16,,,,,7,,,49,100
25888,note_off,,,,,64,0,12,,,,,4,,,64,100
25888,note_off,,,,,64,0,13,,,,,5,,,49,100
25888,note_off,,,,,64,0,14,,,,,6,,,37,100
25920,note_on,,,,,64,0,16,,,,,7,,,49,100
25920,note_on,,,,,128,0,11,,,,,3,,,79,39
25920,note_on,,,,,32,0,12,,,,,4,,,69,89
25920,note_on,,,,,32,0,13,,,,,5,,,49,89
25920,note_on,,,,,128,0,10,,,,,2,,,79,99
25920,note_on,,,,,32,0,14,,,,,6,,,37,89
25920,note_on,,,,,0,0,12,,,,,4,,,64,89
25984,note_off,,,,,64,0,12,,,,,4,,,69,100
25984,note_off,,,,,64,0,14,,,,,6,,,37,100
25984,note_off,,,,,256,0,15,,,,,7,,,69,100
25984,note_off,,,,,0,0,15,,,,,7,,,67,100
25984,note_off,,,,,0,0,12,,,,,4,,,64,100
25984,note_off,,,,,64,0,13,,,,,5,,,49,100
26016,note_on,,,,,0,0,12,,,,,4,,,64,89
26016,note_on,,,,,32,0,12,,,,,4,,,69,89
26016,note_on,,,,,32,0,13,,,,,5,,,49,89
26016,note_on,,,,,32,0,14,,,,,6,,,37,89
26048,note_off,,,,,128,0,10,,,,,2,,,79,100
26048,note_off,,,,,128,0,11,,,,,3,,,79,100
26048,note_off,,,,,128,0,16,,,,,7,,,49,100
26080,note_off,,,,,64,0,14,,,,,6,,,37,100
26080,note_off,,,,,0,0,12,,,,,4,,,64,100
26080,note_off,,,,,64,0,12,,,,,4,,,69,100
26080,note_off,,,,,64,0,13,,,,,5,,,49,100
26112,note_on,,,,,64,0,11,,,,,3,,,78,40
26112,note_on,,,,,32,0,14,,,,,6,,,38,90
26112,note_on,,,,,0,0,12,,,,,4,,,66,90
26112,note_on,,,,,32,0,12,,,,,4,,,69,90
26112,note_on,,,,,32,0,13,,,,,5,,,50,90
26112,note_on,,,,,64,0,16,,,,,7,,,50,100
26112,note_on,,,,,0,0,15,,,,,7,,,69,100
26112,note_on,,,,,64,0,10,,,,,2,,,78,100
26112,note_on,,,,,128,0,15,,,,,7,,,66,100
26176,note_off,,,,,64,0,14,,,,,6,,,38,100
26176,note_off,,,,,0,0,12,,,,,4,,,66,100
26176,note_off,,,,,64,0,12,,,,,4,,,69,100
26176,note_off,,,,,64,0,13,,,,,5,,,50,100
26208,note_on,,,,,32,0,13,,,,,5,,,50,90
26208,note_on,,,,,32,0,14,,,,,6,,,38,90
26208,note_on,,,,,0,0,12,,,,,4,,,66,90
26208,note_on,,,,,32,0,12,,,,,4,,,69,90
26240,note_off,,,,,128,0,16,,,,,7,,,50,100
26240,note_off,,,,,128,0,15,,,,,7,,,66,100
26240,note_off,,,,,0,0,15,,,,,7,,,69,100
26240,note_off,,,,,128,0,10,,,,,2,,,78,100
26240,note_off,,,,,128,0,11,,,,,3,,,78,100
26272,note_off,,,,,64,0,14,,,,,6,,,38,100
26272,note_off,,,,,64,0,13,,,,,5,,,50,100
26272,note_off,,,,,0,0,12,,,,,4,,,66,100
26272,note_off,,,,,64,0,12,,,,,4,,,69,100
26304,note_on,,,,,64,0,11,,,,,3,,,82,40
26304,note_on,,,,,64,0,16,,,,,7,,,50,100
26304,note_on,,,,,32,0,12,,,,,4,,,66,90
26304,note_on,,,,,32,0,14,,,,,6,,,38,90
26304,note_on,,,,,64,0,10,,,,,2,,,82,100
26304,note_on,,,,,32,0,13,,,,,5,,,50,90
26304,note_on,,,,,0,0,15,,,,,7,,,70,100
26304,note_on,,,,,64,0,15,,,,,7,,,66,100
26368,note_off,,,,,64,0,12,,,,,4,,,66,100
26368,note_off,,,,,64,0,14,,,,,6,,,38,100
26368,note_off,,,,,64,0,13,,,,,5,,,50,100
26400,note_on,,,,,32,0,14,,,,,6,,,38,91
26400,note_on,,,,,32,0,13,,,,,5,,,50,91
26400,note_on,,,,,32,0,12,,,,,4,,,66,91
26432,note_off,,,,,128,0,16,,,,,7,,,50,100
26432,note_off,,,,,128,0,15,,,,,7,,,66,100
26432,note_off,,,,,0,0,15,,,,,7,,,70,100
26464,note_off,,,,,64,0,12,,,,,4,,,66,100
26464,note_off,,,,,64,0,14,,,,,6,,,38,100
26464,note_off,,,,,64,0,13,,,,,5,,,50,100
26496,note_on,,,,,32,0,14,,,,,6,,,38,91
26496,note_on,,,,,64,0,16,,,,,7,,,50,100
26496,note_on,,,,,64,0,15,,,,,7,,,69,100
26496,note_on,,,,,0,0,15,,,,,7,,,70,100
26496,note_on,,,,,32,0,12,,,,,4,,,66,91
26496,note_on,,,,,32,0,13,,,,,5,,,50,91
26560,note_off,,,,,256,0,10,,,,,2,,,82,100
26560,note_off,,,,,64,0,13,,,,,5,,,50,100
26560,note_off,,,,,64,0,14,,,,,6,,,38,100
26560,note_off,,,,,256,0,11,,,,,3,,,82,100
26560,note_off,,,,,64,0,12,,,,,4,,,66,100
26592,note_on,,,,,32,0,13,,,,,5,,,50,91
26592,note_on,,,,,32,0,14,,,,,6,,,38,91
26592,note_on,,,,,32,0,12,,,,,4,,,66,91
26624,note_off,,,,,128,0,16,,,,,7,,,50,100
26656,note_off,,,,,64,0,13,,,,,5,,,50,100
26656,note_off,,,,,64,0,14,,,,,6,,,38,100
26656,note_off,,,,,64,0,12,,,,,4,,,66,100
26688,note_on,,,,,0,0,12,,,,,4,,,66,92
26688,note_on,,,,,64,0,16,,,,,7,,,50,100
26688,note_on,,,,,32,0,12,,,,,4,,,70,92
26688,note_on,,,,,32,0,14,,,,,6,,,38,92
26688,note_on,,,,,128,0,11,,,,,3,,,81,42
26688,note_on,,,,,128,0,10,,,,,2,,,81,102
26688,note_on,,,,,32,0,13,,,,,5,,,50,92
26752,note_off,,,,,256,0,15,,,,,7,,,69,100
26752,note_off,,,,,64,0,12,,,,,4,,,70,100
26752,note_off,,,,,0,0,15,,,,,7,,,70,100
26752,note_off,,,,,64,0,14,,,,,6,,,38,100
26752,note_off,,,,,64,0,13,,,,,5,,,50,100
26752,note_off,,,,,0,0,12,,,,,4,,,66,100
26784,note_on,,,,,32,0,12,,,,,4,,,70,92
26784,note_on,,,,,0,0,12,,,,,4,,,66,92
26784,note_on,,,,,32,0,14,,,,,6,,,38,92
26784,note_on,,,,,32,0,13,,,,,5,,,50,92
26816,note_off,,,,,128,0,11,,,,,3,,,81,100
26816,note_off,,,,,128,0,10,,,,,2,,,81,100
26816,note_off,,,,,128,0,16,,,,,7,,,50,100
26848,note_off,,,,,64,0,14,,,,,6,,,38,100
26848,note_off,,,,,0,0,12,,,,,4,,,66,100
26848,note_off,,,,,64,0,12,,,,,4,,,70,100
26848,note_off,,,,,64,0,13,,,,,5,,,50,100
26880,note_on,,,,,32,0,14,,,,,6,,,39,92
26880,note_on,,,,,0,0,15,,,,,7,,,70,100
26880,note_on,,,,,0,0,12,,,,,4,,,67,92
26880,note_on,,,,,32,0,12,,,,,4,,,70,92
26880,note_on,,,,,128,0,15,,,,,7,,,67,100
26880,note_on,,,,,64,0,10,,,,,2,,,79,102
26880,note_on,,,,,64,0,16,,,,,7,,,51,100
26880,note_on,,,,,64,0,11,,,,,3,,,79,42
26880,note_on,,,,,32,0,13,,,,,5,,,51,92
26944,note_off,,,,,64,0,13,,,,,5,,,51,100
26944,note_off,,,,,64,0,12,,,,,4,,,70,100
26944,note_off,,,,,0,0,12,,,,,4,,,67,100
26944,note_off,,,,,64,0,14,,,,,6,,,39,100
26976,note_on,,,,,32,0,13,,,,,5,,,51,92
26976,note_on,,,,,32,0,14,,,,,6,,,39,92
26976,note_on,,,,,32,0,12,,,,,4,,,70,92
26976,note_on,,,,,0,0,12,,,,,4,,,67,92
27008,note_off,,,,,128,0,10,,,,,2,,,79,100
27008,note_off,,,,,128,0,11,,,,,3,,,79,100
27008,note_off,,,,,128,0,16,,,,,7,,,51,100
27008,note_off,,,,,128,0,15,,,,,7,,,67,100
27008,note_off,,,,,0,0,15,,,,,7,,,70,100
27040,note_off,,,,,64,0,12,,,,,4,,,70,100
27040,note_off,,,,,64,0,13,,,,,5,,,51,100
27040,note_off,,,,,0,0,12,,,,,4,,,67,100
27040,note_off,,,,,64,0,14,,,,,6,,,39,100
27072,note_on,,,,,32,0,12,,,,,4,,,67,93
27072,note_on,,,,,64,0,16,,,,,7,,,51,100
27072,note_on,,,,,64,0,10,,,,,2,,,84,103
27072,note_on,,,,,32,0,14,,,,,6,,,39,93
27072,note_on,,,,,64,0,11,,,,,3,,,84,43
27072,note_on,,,,,32,0,13,,,,,5,,,51,93
27072,note_on,,,,,64,0,15,,,,,7,,,67,100
27072,note_on,,,,,0,0,15,,,,,7,,,72,100
27136,note_off,,,,,64,0,12,,,,,4,,,67,100
27136,note_off,,,,,64,0,13,,,,,5,,,51,100
27136,note_off,,,,,64,0,14,,,,,6,,,39,100
27168,note_on,,,,,32,0,12,,,,,4,,,67,93
27168,note_on,,,,,32,0,14,,,,,6,,,39,93
27168,note_on,,,,,32,0,13,,,,,5,,,51,93
27200,note_off,,,,,128,0,16,,,,,7,,,51,100
27200,note_off,,,,,128,0,15,,,,,7,,,67,100
27200,note_off,,,,,0,0,15,,,,,7,,,72,100
27232,note_off,,,,,64,0,12,,,,,4,,,67,100
27232,note_off,,,,,64,0,14,,,,,6,,,39,100
27232,note_off,,,,,64,0,13,,,,,5,,,51,100
27264,note_on,,,,,32,0,14,,,,,6,,,40,93
27264,note_on,,,,,64,0,16,,,,,7,,,52,100
27264,note_on,,,,,64,0,15,,,,,7,,,72,100
27264,note_on,,,,,0,0,15,,,,,7,,,70,100
27264,note_on,,,,,32,0,12,,,,,4,,,67,93
27264,note_on,,,,,32,0,13,,,,,5,,,52,93
27328,note_off,,,,,64,0,13,,,,,5,,,52,100
27328,note_off,,,,,64,0,12,,,,,4,,,67,100
27328,note_off,,,,,256,0,10,,,,,2,,,84,100
27328,note_off,,,,,64,0,14,,,,,6,,,40,100
27328,note_off,,,,,256,0,11,,,,,3,,,84,100
27360,note_on,,,,,32,0,12,,,,,4,,,67,94
27360,note_on,,,,,32,0,13,,,,,5,,,52,94
27360,note_on,,,,,32,0,14,,,,,6,,,40,94
27392,note_off,,,,,128,0,16,,,,,7,,,52,100
27424,note_off,,,,,64,0,12,,,,,4,,,67,100
27424,note_off,,,,,64,0,14,,,,,6,,,40,100
27424,note_off,,,,,64,0,13,,,,,5,,,52,100
27456,note_on,,,,,128,0,10,,,,,2,,,82,104
27456,note_on,,,,,0,0,12,,,,,4,,,67,94
27456,note_on,,,,,32,0,12,,,,,4,,,72,94
27456,note_on,,,,,128,0,11,,,,,3,,,82,44
27456,note_on,,,,,32,0,13,,,,,5,,,52,94
27456,note_on,,,,,64,0,16,,,,,7,,,52,100
27456,note_on,,,,,32,0,14,,,,,6,,,40,94
27520,note_off,,,,,64,0,12,,,,,4,,,72,100
27520,note_off,,,,,64,0,14,,,,,6,,,40,100
27520,note_off,,,,,256,0,15,,,,,7,,,72,100
27520,note_off,,,,,0,0,15,,,,,7,,,70,100
27520,note_off,,,,,64,0,13,,,,,5,,,52,100
27520,note_off,,,,,0,0,12,,,,,4,,,67,100
27552,note_on,,,,,32,0,14,,,,,6,,,40,94
27552,note_on,,,,,32,0,13,,,,,5,,,52,94
27552,note_on,,,,,32,0,12,,,,,4,,,72,94
27552,note_on,,,,,0,0,12,,,,,4,,,67,94
27584,note_off,,,,,128,0,16,,,,,7,,,52,100
27584,note_off,,,,,128,0,11,,,,,3,,,82,100
27584,note_off,,,,,128,0,10,,,,,2,,,82,100
27616,note_off,,,,,64,0,13,,,,,5,,,52,100
27616,note_off,,,,,0,0,12,,,,,4,,,67,100
27616,note_off,,,,,64,0,14,,,,,6,,,40,100
27616,note_off,,,,,64,0,12,,,,,4,,,72,100
27648,note_on,,,,,32,0,12,,,,,4,,,72,95
27648,note_on,,,,,0,0,12,,,,,4,,,69,95
27648,note_on,,,,,32,0,13,,,,,5,,,53,95
27648,note_on,,,,,64,0,10,,,,,2,,,81,105
27648,note_on,,,,,0,0,15,,,,,7,,,72,100
27648,note_on,,,,,128,0,15,,,,,7,,,69,100
27648,note_on,,,,,64,0,11,,,,,3,,,81,45
27648,note_on,,,,,64,0,16,,,,,7,,,53,100
27648,note_on,,,,,32,0,14,,,,,6,,,41,95
27712,note_off,,,,,64,0,14,,,,,6,,,41,100
27712,note_off,,,,,64,0,13,,,,,5,,,53,100
27712,note_off,,,,,0,0,12,,,,,4,,,69,100
27712,note_off,,,,,64,0,12,,,,,4,,,72,100
27744,note_on,,,,,32,0,13,,,,,5,,,53,95
27744,note_on,,,,,32,0,12,,,,,4,,,72,95
27744,note_on,,,,,0,0,12,,,,,4,,,69,95
27744,note_on,,,,,32,0,14,,,,,6,,,41,95
27776,note_off,,,,,128,0,10,,,,,2,,,81,100
27776,note_off,,,,,128,0,16,,,,,7,,,53,100
27776,note_off,,,,,0,0,15,,,,,7,,,72,100
27776,note_off,,,,,128,0,15,,,,,7,,,69,100
27776,note_off,,,,,128,0,11,,,,,3,,,81,100
27808,note_off,,,,,64,0,13,,,,,5,,,53,100
27808,note_off,,,,,64,0,12,,,,,4,,,72,100
27808,note_off,,,,,0,0,12,,,,,4,,,69,100
27808,note_off,,,,,64,0,14,,,,,6,,,41,100
27840,note_on,,,,,32,0,13,,,,,5,,,53,95
27840,note_on,,,,,32,0,12,,,,,4,,,69,95
27840,note_on,,,,,64,0,10,,,,,2,,,86,105
27840,note_on,,,,,0,0,15,,,,,7,,,74,100
27840,note_on,,,,,64,0,15,,,,,7,,,69,100
27840,note_on,,,,,64,0,11,,,,,3,,,86,45
27840,note_on,,,,,32,0,14,,,,,6,,,41,95
27840,note_on,,,,,64,0,16,,,,,7,,,53,100
27904,note_off,,,,,64,0,13,,,,,5,,,53,100
27904,note_off,,,,,64,0,12,,,,,4,,,69,100
27904,note_off,,,,,64,0,14,,,,,6,,,41,100
27936,note_on,,,,,32,0,14,,,,,6,,,41,96
27936,note_on,,,,,32,0,13,,,,,5,,,53,96
27936,note_on,,,,,32,0,12,,,,,4,,,69,96
27968,note_off,,,,,128,0,15,,,,,7,,,69,100
27968,note_off,,,,,0,0,15,,,,,7,,,74,100
27968,note_off,,,,,128,0,16,,,,,7,,,53,100
28000,note_off,,,,,64,0,14,,,,,6,,,41,100
28000,note_off,,,,,64,0,13,,,,,5,,,53,100
28000,note_off,,,,,64,0,12,,,,,4,,,69,100
28032,note_on,,,,,0,0,15,,,,,7,,,74,100
28032,note_on,,,,,32,0,14,,,,,6,,,42,96
28032,note_on,,,,,32,0,13,,,,,5,,,54,96
28032,note_on,,,,,64,0,15,,,,,7,,,72,100
28032,note_on,,,,,64,0,16,,,,,7,,,54,100
28032,note_on,,,,,32,0,12,,,,,4,,,69,96
28096,note_off,,,,,64,0,13,,,,,5,,,54,100
28096,note_off,,,,,64,0,14,,,,,6,,,42,100
28096,note_off,,,,,256,0,10,,,,,2,,,86,100
28096,note_off,,,,,256,0,11,,,,,3,,,86,100
28096,note_off,,,,,64,0,12,,,,,4,,,69,100
28128,note_on,,,,,32,0,14,,,,,6,,,42,96
28128,note_on,,,,,32,0,12,,,,,4,,,69,96
28128,note_on,,,,,32,0,13,,,,,5,,,54,96
28160,note_off,,,,,128,0,16,,,,,7,,,54,100
28192,note_off,,,,,64,0,13,,,,,5,,,54,100
28192,note_off,,,,,64,0,14,,,,,6,,,42,100
28192,note_off,,,,,64,0,12,,,,,4,,,69,100
28224,note_on,,,,,32,0,13,,,,,5,,,54,97
28224,note_on,,,,,128,0,11,,,,,3,,,84,47
28224,note_on,,,,,64,0,16,,,,,7,,,54,100
28224,note_on,,,,,32,0,12,,,,,4,,,74,97
28224,note_on,,,,,32,0,14,,,,,6,,,42,97
28224,note_on,,,,,128,0,10,,,,,2,,,84,107
28224,note_on,,,,,0,0,12,,,,,4,,,69,97
28288,note_off,,,,,0,0,12,,,,,4,,,69,100
28288,note_off,,,,,64,0,14,,,,,6,,,42,100
28288,note_off,,,,,64,0,12,,,,,4,,,74,100
28288,note_off,,,,,64,0,13,,,,,5,,,54,100
28320,note_on,,,,,32,0,14,,,,,6,,,42,97
28320,note_on,,,,,0,0,12,,,,,4,,,69,97
28320,note_on,,,,,32,0,13,,,,,5,,,54,97
28320,note_on,,,,,32,0,12,,,,,4,,,74,97
28352,note_off,,,,,128,0,11,,,,,3,,,84,100
28352,note_off,,,,,128,0,10,,,,,2,,,84,100
28352,note_off,,,,,128,0,16,,,,,7,,,54,100
28384,note_off,,,,,64,0,12,,,,,4,,,74,100
28384,note_off,,,,,64,0,13,,,,,5,,,54,100
28384,note_off,,,,,0,0,12,,,,,4,,,69,100
28384,note_off,,,,,64,0,14,,,,,6,,,42,100
28416,note_on,,,,,32,0,14,,,,,6,,,43,97
28416,note_on,,,,,64,0,10,,,,,2,,,82,107
28416,note_off,,,,,0,0,15,,,,,7,,,74,100
28416,note_on,,,,,32,0,12,,,,,4,,,74,97
28416,note_on,,,,,32,0,13,,,,,5,,,55,97
28416,note_on,,,,,64,0,16,,,,,7,,,55,100
28416,note_on,,,,,0,0,12,,,,,4,,,62,97
28416,note_on,,,,,64,0,11,,,,,3,,,82,47
28416,note_off,,,,,384,0,15,,,,,7,,,72,100
28480,note_off,,,,,0,0,12,,,,,4,,,62,100
28480,note_off,,,,,64,0,12,,,,,4,,,74,100
28480,note_off,,,,,64,0,14,,,,,6,,,43,100
28480,note_off,,,,,64,0,13,,,,,5,,,55,100
28512,note_on,,,,,32,0,12,,,,,4,,,74,98
28512,note_on,,,,,32,0,14,,,,,6,,,43,98
28512,note_on,,,,,32,0,13,,,,,5,,,55,98
28512,note_on,,,,,0,0,12,,,,,4,,,62,98
28544,note_off,,,,,128,0,10,,,,,2,,,82,100
28544,note_off,,,,,128,0,11,,,,,3,,,82,100
28544,note_off,,,,,128,0,16,,,,,7,,,55,100
28576,note_off,,,,,0,0,12,,,,,4,,,62,100
28576,note_off,,,,,64,0,13,,,,,5,,,55,100
28576,note_off,,,,,64,0,12,,,,,4,,,74,100
28576,note_off,,,,,64,0,14,,,,,6,,,43,100
28608,note_on,,,,,64,0,11,,,,,3,,,79,48
28608,note_on,,,,,0,0,15,,,,,7,,,62,100
28608,note_on,,,,,192,0,15,,,,,7,,,67,100
28608,note_on,,,,,0,0,12,,,,,4,,,62,98
28608,note_on,,,,,32,0,13,,,,,5,,,46,98
28608,note_on,,,,,32,0,12,,,,,4,,,70,98
28608,note_on,,,,,64,0,10,,,,,2,,,79,108
28608,note_on,,,,,64,0,16,,,,,7,,,46,100
28608,note_on,,,,,32,0,14,,,,,6,,,46,98
28672,note_off,,,,,64,0,12,,,,,4,,,70,100
28672,note_off,,,,,0,0,12,,,,,4,,,62,100
28672,note_off,,,,,64,0,13,,,,,5,,,46,100
28672,note_off,,,,,64,0,14,,,,,6,,,46,100
28704,note_on,,,,,32,0,13,,,,,5,,,46,98
28704,note_on,,,,,0,0,12,,,,,4,,,62,98
28704,note_on,,,,,32,0,12,,,,,4,,,70,98
28704,note_on,,,,,32,0,14,,,,,6,,,46,98
28736,note_off,,,,,0,0,15,,,,,7,,,62,100
28736,note_off,,,,,128,0,15,,,,,7,,,67,100
28736,note_off,,,,,128,0,16,,,,,7,,,46,100
28768,note_off,,,,,64,0,13,,,,,5,,,46,100
28768,note_off,,,,,64,0,14,,,,,6,,,46,100
28768,note_off,,,,,0,0,12,,,,,4,,,62,100
28768,note_off,,,,,64,0,12,,,,,4,,,70,100
28800,note_on,,,,,32,0,14,,,,,6,,,48,99
28800,note_on,,,,,0,0,12,,,,,4,,,63,99
28800,note_on,,,,,0,0,15,,,,,7,,,67,100
28800,note_on,,,,,64,0,15,,,,,7,,,63,100
28800,note_on,,,,,32,0,12,,,,,4,,,69,99
28800,note_on,,,,,0,0,15,,,,,7,,,69,100
28800,note_on,,,,,64,0,16,,,,,7,,,48,100
28800,note_on,,,,,32,0,13,,,,,5,,,48,99
28864,note_off,,,,,256,0,10,,,,,2,,,79,100
28864,note_off,,,,,64,0,12,,,,,4,,,69,100
28864,note_off,,,,,0,0,12,,,,,4,,,63,100
28864,note_off,,,,,256,0,11,,,,,3,,,79,100
28864,note_off,,,,,64,0,13,,,,,5,,,48,100
28864,note_off,,,,,64,0,14,,,,,6,,,48,100
28896,note_on,,,,,32,0,14,,,,,6,,,48,99
28896,note_on,,,,,32,0,13,,,,,5,,,48,99
28896,note_on,,,,,0,0,12,,,,,4,,,63,99
28896,note_on,,,,,32,0,12,,,,,4,,,69,99
28928,note_off,,,,,0,0,15,,,,,7,,,67,100
28928,note_off,,,,,128,0,16,,,,,7,,,48,100
28928,note_off,,,,,128,0,15,,,,,7,,,63,100
28928,note_off,,,,,0,0,15,,,,,7,,,69,100
28960,note_off,,,,,64,0,12,,,,,4,,,69,100
28960,note_off,,,,,64,0,13,,,,,5,,,48,100
28960,note_off,,,,,64,0,14,,,,,6,,,48,100
28960,note_off,,,,,0,0,12,,,,,4,,,63,100
28992,note_on,,,,,32,0,14,,,,,6,,,50,99
28992,note_on,,,,,32,0,13,,,,,5,,,50,99
28992,note_on,,,,,64,0,16,,,,,7,,,50,100
28992,note_on,,,,,128,0,11,,,,,3,,,78,49
28992,note_on,,,,,128,0,10,,,,,2,,,78,109
28992,note_on,,,,,64,0,15,,,,,7,,,69,100
28992,note_on,,,,,0,0,12,,,,,4,,,62,99
28992,note_on,,,,,32,0,12,,,,,4,,,69,99
28992,note_on,,,,,0,0,15,,,,,7,,,66,100
29056,note_off,,,,,64,0,13,,,,,5,,,50,100
29056,note_off,,,,,64,0,14,,,,,6,,,50,100
29056,note_off,,,,,0,0,12,,,,,4,,,62,100
29056,note_off,,,,,64,0,12,,,,,4,,,69,100
29088,note_on,,,,,32,0,13,,,,,5,,,50,99
29088,note_on,,,,,32,0,14,,,,,6,,,50,99
29088,note_on,,,,,0,0,12,,,,,4,,,62,99
29088,note_on,,,,,32,0,12,,,,,4,,,69,99
29120,note_off,,,,,128,0,16,,,,,7,,,50,100
29120,note_off,,,,,128,0,15,,,,,7,,,69,100
29120,note_off,,,,,0,0,15,,,,,7,,,66,100
29120,note_off,,,,,128,0,10,,,,,2,,,78,100
29120,note_off,,,,,128,0,11,,,,,3,,,78,100
29152,note_off,,,,,64,0,12,,,,,4,,,69,100
29152,note_off,,,,,0,0,12,,,,,4,,,62,100
29152,note_off,,,,,64,0,13,,,,,5,,,50,100
29152,note_off,,,,,64,0,14,,,,,6,,,50,100
29184,note_on,,,,,32,0,14,,,,,6,,,43,85
29184,note_on,,,,,32,0,13,,,,,5,,,43,85
29184,note_on,,,,,64,0,10,,,,,2,,,79,95
29184,note_on,,,,,64,0,16,,,,,7,,,43,100
29184,note_on,,,,,64,0,11,,,,,3,,,79,35
29184,note_on,,,,,0,0,15,,,,,7,,,67,100
29184,note_on,,,,,0,0,15,,,,,7,,,62,100
29184,note_on,,,,,0,0,12,,,,,4,,,62,85
29184,note_on,,,,,32,0,12,,,,,4,,,70,85
29184,note_on,,,,,64,0,15,,,,,7,,,58,100
29248,note_off,,,,,0,0,12,,,,,4,,,62,100
29248,note_off,,,,,64,0,12,,,,,4,,,70,100
29248,note_off,,,,,64,0,11,,,,,3,,,79,100
29248,note_off,,,,,64,0,10,,,,,2,,,79,100
29280,note_on,,,,,32,0,11,,,,,3,,,70,35
29280,note_on,,,,,32,0,10,,,,,2,,,70,95
29280,note_on,,,,,32,0,12,,,,,4,,,70,85
29280,note_on,,,,,0,0,12,,,,,4,,,62,85
29312,note_off,,,,,128,0,13,,,,,5,,,43,100
29312,note_off,,,,,128,0,15,,,,,7,,,58,100
29312,note_off,,,,,0,0,15,,,,,7,,,67,100
29312,note_off,,,,,0,0,15,,,,,7,,,62,100
29312,note_off,,,,,128,0,14,,,,,6,,,43,100
29312,note_off,,,,,128,0,16,,,,,7,,,43,100
29344,note_off,,,,,64,0,12,,,,,4,,,70,100
29344,note_off,,,,,64,0,10,,,,,2,,,70,100
29344,note_off,,,,,0,0,12,,,,,4,,,62,100
29344,note_off,,,,,64,0,11,,,,,3,,,70,100
29376,note_on,,,,,32,0,12,,,,,4,,,62,85
29376,note_on,,,,,32,0,11,,,,,3,,,70,35
29376,note_on,,,,,64,0,14,,,,,6,,,43,85
29376,note_on,,,,,64,0,16,,,,,7,,,55,100
29376,note_on,,,,,64,0,13,,,,,5,,,55,85
29376,note_on,,,,,0,0,15,,,,,7,,,70,100
29376,note_on,,,,,64,0,15,,,,,7,,,74,100
29376,note_on,,,,,32,0,10,,,,,2,,,70,95
29440,note_off,,,,,64,0,11,,,,,3,,,70,100
29440,note_off,,,,,64,0,12,,,,,4,,,62,100
29440,note_off,,,,,64,0,10,,,,,2,,,70,100
29472,note_on,,,,,32,0,11,,,,,3,,,70,36
29472,note_on,,,,,32,0,12,,,,,4,,,62,86
29472,note_on,,,,,32,0,10,,,,,2,,,70,96
29504,note_off,,,,,0,0,15,,,,,7,,,70,100
29504,note_off,,,,,128,0,15,,,,,7,,,74,100
29536,note_off,,,,,64,0,10,,,,,2,,,70,100
29536,note_off,,,,,64,0,12,,,,,4,,,62,100
29536,note_off,,,,,64,0,11,,,,,3,,,70,100
29568,note_on,,,,,32,0,10,,,,,2,,,71,96
29568,note_on,,,,,32,0,12,,,,,4,,,62,86
29568,note_on,,,,,32,0,11,,,,,3,,,71,36
29568,note_on,,,,,64,0,15,,,,,7,,,71,100
29568,note_on,,,,,0,0,15,,,,,7,,,74,100
29632,note_off,,,,,256,0,14,,,,,6,,,43,100
29632,note_off,,,,,64,0,12,,,,,4,,,62,100
29632,note_off,,,,,256,0,13,,,,,5,,,55,100
29632,note_off,,,,,64,0,10,,,,,2,,,71,100
29632,note_off,,,,,64,0,11,,,,,3,,,71,100
29632,note_off,,,,,256,0,16,,,,,7,,,55,100
29664,note_on,,,,,32,0,10,,,,,2,,,71,96
29664,note_on,,,,,32,0,12,,,,,4,,,62,86
29664,note_on,,,,,32,0,11,,,,,3,,,71,36
29696,note_off,,,,,128,0,15,,,,,7,,,71,100
29696,note_off,,,,,0,0,15,,,,,7,,,74,100
29728,note_off,,,,,64,0,12,,,,,4,,,62,100
29728,note_off,,,,,64,0,10,,,,,2,,,71,100
29728,note_off,,,,,64,0,11,,,,,3,,,71,100
29760,note_on,,,,,128,0,14,,,,,6,,,42,87
29760,note_on,,,,,128,0,16,,,,,7,,,54,100
29760,note_on,,,,,0,0,12,,,,,4,,,62,87
29760,note_on,,,,,128,0,13,,,,,5,,,54,87
29760,note_on,,,,,64,0,15,,,,,7,,,71,100
29760,note_on,,,,,0,0,15,,,,,7,,,67,100
29760,note_on,,,,,32,0,11,,,,,3,,,71,37
29760,note_on,,,,,32,0,12,,,,,4,,,67,87
29760,note_on,,,,,32,0,10,,,,,2,,,71,97
29824,note_off,,,,,64,0,12,,,,,4,,,67,100
29824,note_off,,,,,0,0,12,,,,,4,,,62,100
29824,note_off,,,,,64,0,11,,,,,3,,,71,100
29824,note_off,,,,,64,0,10,,,,,2,,,71,100
29856,note_on,,,,,0,0,12,,,,,4,,,62,87
29856,note_on,,,,,32,0,12,,,,,4,,,67,87
29856,note_on,,,,,32,0,10,,,,,2,,,71,97
29856,note_on,,,,,32,0,11,,,,,3,,,71,37
29888,note_off,,,,,128,0,15,,,,,7,,,71,100
29888,note_off,,,,,128,0,16,,,,,7,,,54,100
29888,note_off,,,,,0,0,15,,,,,7,,,67,100
29888,note_off,,,,,128,0,14,,,,,6,,,42,100
29888,note_off,,,,,128,0,13,,,,,5,,,54,100
29920,note_off,,,,,0,0,12,,,,,4,,,62,100
29920,note_off,,,,,64,0,12,,,,,4,,,67,100
29920,note_off,,,,,64,0,11,,,,,3,,,71,100
29920,note_off,,,,,64,0,10,,,,,2,,,71,100
29952,note_on,,,,,32,0,11,,,,,3,,,72,38
29952,note_on,,,,,64,0,13,,,,,5,,,52,88
29952,note_on,,,,,0,0,15,,,,,7,,,67,100
29952,note_on,,,,,64,0,14,,,,,6,,,40,88
29952,note_on,,,,,0,0,12,,,,,4,,,64,88
29952,note_on,,,,,64,0,15,,,,,7,,,72,100
29952,note_on,,,,,32,0,10,,,,,2,,,72,98
29952,note_on,,,,,32,0,12,,,,,4,,,67,88
29952,note_on,,,,,64,0,16,,,,,7,,,52,100
30016,note_off,,,,,0,0,12,,,,,4,,,64,100
30016,note_off,,,,,64,0,12,,,,,4,,,67,100
30016,note_off,,,,,64,0,10,,,,,2,,,72,100
30016,note_off,,,,,64,0,11,,,,,3,,,72,100
30048,note_on,,,,,32,0,10,,,,,2,,,72,98
30048,note_on,,,,,32,0,11,,,,,3,,,72,38
30048,note_on,,,,,32,0,12,,,,,4,,,67,88
30048,note_on,,,,,0,0,12,,,,,4,,,64,88
30080,note_off,,,,,128,0,14,,,,,6,,,40,100
30080,note_off,,,,,128,0,15,,,,,7,,,72,100
30080,note_off,,,,,128,0,13,,,,,5,,,52,100
30080,note_off,,,,,0,0,15,,,,,7,,,67,100
30080,note_off,,,,,128,0,16,,,,,7,,,52,100
30112,note_off,,,,,64,0,10,,,,,2,,,72,100
30112,note_off,,,,,64,0,12,,,,,4,,,67,100
30112,note_off,,,,,0,0,12,,,,,4,,,64,100
30112,note_off,,,,,64,0,11,,,,,3,,,72,100
30144,note_on,,,,,64,0,13,,,,,5,,,57,88
30144,note_on,,,,,64,0,15,,,,,7,,,69,100
30144,note_on,,,,,0,0,15,,,,,7,,,72,100
30144,note_on,,,,,64,0,16,,,,,7,,,57,100
30144,note_on,,,,,32,0,11,,,,,3,,,72,38
30144,note_on,,,,,32,0,12,,,,,4,,,64,88
30144,note_on,,,,,32,0,10,,,,,2,,,72,98
30144,note_on,,,,,64,0,14,,,,,6,,,45,88
30208,note_off,,,,,64,0,10,,,,,2,,,72,100
30208,note_off,,,,,64,0,11,,,,,3,,,72,100
30208,note_off,,,,,64,0,12,,,,,4,,,64,100
30240,note_on,,,,,32,0,11,,,,,3,,,72,39
30240,note_on,,,,,32,0,12,,,,,4,,,64,89
30240,note_on,,,,,32,0,10,,,,,2,,,72,99
30272,note_off,,,,,128,0,15,,,,,7,,,69,100
30272,note_off,,,,,0,0,15,,,,,7,,,72,100
30304,note_off,,,,,64,0,12,,,,,4,,,64,100
30304,note_off,,,,,64,0,11,,,,,3,,,72,100
30304,note_off,,,,,64,0,10,,,,,2,,,72,100
30336,note_on,,,,,32,0,11,,,,,3,,,73,39
30336,note_on,,,,,32,0,10,,,,,2,,,73,99
30336,note_on,,,,,32,0,12,,,,,4,,,64,89
30336,note_on,,,,,0,0,15,,,,,7,,,73,100
30336,note_on,,,,,64,0,15,,,,,7,,,69,100
30400,note_off,,,,,256,0,16,,,,,7,,,57,100
30400,note_off,,,,,64,0,10,,,,,2,,,73,100
30400,note_off,,,,,256,0,14,,,,,6,,,45,100
30400,note_off,,,,,64,0,12,,,,,4,,,64,100
30400,note_off,,,,,256,0,13,,,,,5,,,57,100
30400,note_off,,,,,64,0,11,,,,,3,,,73,100
30432,note_on,,,,,32,0,10,,,,,2,,,73,100
30432,note_on,,,,,32,0,12,,,,,4,,,64,90
30432,note_on,,,,,32,0,11,,,,,3,,,73,40
30464,note_off,,,,,128,0,15,,,,,7,,,69,100
30464,note_off,,,,,0,0,15,,,,,7,,,73,100
30496,note_off,,,,,64,0,10,,,,,2,,,73,100
30496,note_off,,,,,64,0,12,,,,,4,,,64,100
30496,note_off,,,,,64,0,11,,,,,3,,,73,100
30528,note_on,,,,,0,0,15,,,,,7,,,69,100
30528,note_on,,,,,128,0,14,,,,,6,,,43,90
30528,note_on,,,,,64,0,15,,,,,7,,,73,100
30528,note_on,,,,,0,0,12,,,,,4,,,64,90
30528,note_on,,,,,32,0,11,,,,,3,,,73,40
30528,note_on,,,,,32,0,12,,,,,4,,,69,90
30528,note_on,,,,,128,0,16,,,,,7,,,55,100
30528,note_on,,,,,128,0,13,,,,,5,,,55,90
30528,note_on,,,,,32,0,10,,,,,2,,,73,100
30592,note_off,,,,,64,0,10,,,,,2,,,73,100
30592,note_off,,,,,64,0,11,,,,,3,,,73,100
30592,note_off,,,,,64,0,12,,,,,4,,,69,100
30592,note_off,,,,,0,0,12,,,,,4,,,64,100
30624,note_on,,,,,0,0,12,,,,,4,,,64,90
30624,note_on,,,,,32,0,12,,,,,4,,,69,90
30624,note_on,,,,,32,0,10,,,,,2,,,73,100
30624,note_on,,,,,32,0,11,,,,,3,,,73,40
30656,note_off,,,,,128,0,14,,,,,6,,,43,100
30656,note_off,,,,,128,0,16,,,,,7,,,55,100
30656,note_off,,,,,128,0,13,,,,,5,,,55,100
30656,note_off,,,,,128,0,15,,,,,7,,,73,100
30656,note_off,,,,,0,0,15,,,,,7,,,69,100
30688,note_off,,,,,64,0,10,,,,,2,,,73,100
30688,note_off,,,,,64,0,11,,,,,3,,,73,100
30688,note_off,,,,,64,0,12,,,,,4,,,69,100
30688,note_off,,,,,0,0,12,,,,,4,,,64,100
30720,note_on,,,,,64,0,16,,,,,7,,,53,100
30720,note_on,,,,,0,0,12,,,,,4,,,65,91
30720,note_on,,,,,64,0,14,,,,,6,,,41,91
30720,note_on,,,,,32,0,12,,,,,4,,,69,91
30720,note_on,,,,,32,0,10,,,,,2,,,74,101
30720,note_on,,,,,64,0,13,,,,,5,,,53,91
30720,note_on,,,,,32,0,11,,,,,3,,,74,41
30720,note_on,,,,,64,0,15,,,,,7,,,74,100
30720,note_on,,,,,0,0,15,,,,,7,,,69,100
30784,note_off,,,,,64,0,10,,,,,2,,,74,100
30784,note_off,,,,,64,0,11,,,,,3,,,74,100
30784,note_off,,,,,64,0,12,,,,,4,,,69,100
30784,note_off,,,,,0,0,12,,,,,4,,,65,100
30816,note_on,,,,,32,0,11,,,,,3,,,74,41
30816,note_on,,,,,32,0,12,,,,,4,,,69,91
30816,note_on,,,,,0,0,12,,,,,4,,,65,91
30816,note_on,,,,,32,0,10,,,,,2,,,74,101
30848,note_off,,,,,128,0,15,,,,,7,,,74,100
30848,note_off,,,,,128,0,14,,,,,6,,,41,100
30848,note_off,,,,,0,0,15,,,,,7,,,69,100
30848,note_off,,,,,128,0,16,,,,,7,,,53,100
30848,note_off,,,,,128,0,13,,,,,5,,,53,100
30880,note_off,,,,,64,0,12,,,,,4,,,69,100
30880,note_off,,,,,64,0,10,,,,,2,,,74,100
30880,note_off,,,,,64,0,11,,,,,3,,,74,100
30880,note_off,,,,,0,0,12,,,,,4,,,65,100
30912,note_on,,,,,64,0,15,,,,,7,,,65,100
30912,note_on,,,,,32,0,10,,,,,2,,,74,102
30912,note_on,,,,,32,0,11,,,,,3,,,74,42
30912,note_on,,,,,64,0,14,,,,,6,,,46,92
30912,note_on,,,,,64,0,13,,,,,5,,,58,92
30912,note_on,,,,,32,0,12,,,,,4,,,65,92
30912,note_on,,,,,64,0,16,,,,,7,,,58,100
30912,note_on,,,,,0,0,15,,,,,7,,,74,100
30976,note_off,,,,,64,0,10,,,,,2,,,74,100
30976,note_off,,,,,64,0,12,,,,,4,,,65,100
30976,note_off,,,,,64,0,11,,,,,3,,,74,100
31008,note_on,,,,,32,0,12,,,,,4,,,65,92
31008,note_on,,,,,32,0,11,,,,,3,,,74,42
31008,note_on,,,,,32,0,10,,,,,2,,,74,102
31040,note_off,,,,,0,0,15,,,,,7,,,74,100
31040,note_off,,,,,128,0,15,,,,,7,,,65,100
31072,note_off,,,,,64,0,10,,,,,2,,,74,100
31072,note_off,,,,,64,0,12,,,,,4,,,65,100
31072,note_off,,,,,64,0,11,,,,,3,,,74,100
31104,note_on,,,,,32,0,10,,,,,2,,,74,102
31104,note_on,,,,,0,0,15,,,,,7,,,74,100
31104,note_on,,,,,64,0,15,,,,,7,,,65,100
31104,note_on,,,,,32,0,12,,,,,4,,,65,92
31104,note_on,,,,,32,0,11,,,,,3,,,74,42
31168,note_off,,,,,64,0,12,,,,,4,,,65,100
31168,note_off,,,,,256,0,16,,,,,7,,,58,100
31168,note_off,,,,,64,0,10,,,,,2,,,74,100
31168,note_off,,,,,64,0,11,,,,,3,,,74,100
31168,note_off,,,,,256,0,13,,,,,5,,,58,100
31168,note_off,,,,,256,0,14,,,,,6,,,46,100
31200,note_on,,,,,32,0,11,,,,,3,,,74,43
31200,note_on,,,,,32,0,12,,,,,4,,,65,93
31200,note_on,,,,,32,0,10,,,,,2,,,74,103
31232,note_off,,,,,128,0,15,,,,,7,,,65,100
31232,note_off,,,,,0,0,15,,,,,7,,,74,100
31264,note_off,,,,,64,0,11,,,,,3,,,74,100
31264,note_off,,,,,64,0,12,,,,,4,,,65,100
31264,note_off,,,,,64,0,10,,,,,2,,,74,100
31296,note_on,,,,,64,0,15,,,,,7,,,74,100
31296,note_on,,,,,32,0,12,,,,,4,,,70,93
31296,note_on,,,,,128,0,14,,,,,6,,,45,93
31296,note_on,,,,,32,0,11,,,,,3,,,74,43
31296,note_on,,,,,0,0,15,,,,,7,,,70,100
31296,note_on,,,,,128,0,13,,,,,5,,,57,93
31296,note_on,,,,,128,0,16,,,,,7,,,57,100
31296,note_on,,,,,0,0,15,,,,,7,,,67,100
31296,note_on,,,,,32,0,10,,,,,2,,,74,103
31296,note_on,,,,,0,0,12,,,,,4,,,65,93
31360,note_off,,,,,0,0,12,,,,,4,,,65,100
31360,note_off,,,,,64,0,10,,,,,2,,,74,100
31360,note_off,,,,,64,0,11,,,,,3,,,74,100
31360,note_off,,,,,64,0,12,,,,,4,,,70,100
31392,note_on,,,,,32,0,12,,,,,4,,,70,94
31392,note_on,,,,,0,0,12,,,,,4,,,65,94
31392,note_on,,,,,32,0,11,,,,,3,,,74,44
31392,note_on,,,,,32,0,10,,,,,2,,,74,104
31424,note_off,,,,,128,0,13,,,,,5,,,57,100
31424,note_off,,,,,128,0,16,,,,,7,,,57,100
31424,note_off,,,,,128,0,14,,,,,6,,,45,100
31424,note_off,,,,,128,0,15,,,,,7,,,74,100
31424,note_off,,,,,0,0,15,,,,,7,,,67,100
31424,note_off,,,,,0,0,15,,,,,7,,,70,100
31456,note_off,,,,,0,0,12,,,,,4,,,65,100
31456,note_off,,,,,64,0,11,,,,,3,,,74,100
31456,note_off,,,,,64,0,12,,,,,4,,,70,100
31456,note_off,,,,,64,0,10,,,,,2,,,74,100
31488,note_on,,,,,0,0,12,,,,,4,,,67,94
31488,note_on,,,,,32,0,12,,,,,4,,,70,94
31488,note_on,,,,,32,0,10,,,,,2,,,75,104
31488,note_on,,,,,64,0,16,,,,,7,,,55,100
31488,note_on,,,,,64,0,13,,,,,5,,,55,94
31488,note_on,,,,,0,0,15,,,,,7,,,70,100
31488,note_on,,,,,64,0,15,,,,,7,,,75,100
31488,note_on,,,,,64,0,14,,,,,6,,,43,94
31488,note_on,,,,,32,0,11,,,,,3,,,75,44
31552,note_off,,,,,64,0,10,,,,,2,,,75,100
31552,note_off,,,,,0,0,12,,,,,4,,,67,100
31552,note_off,,,,,64,0,12,,,,,4,,,70,100
31552,note_off,,,,,64,0,11,,,,,3,,,75,100
31584,note_on,,,,,32,0,10,,,,,2,,,75,104
31584,note_on,,,,,32,0,12,,,,,4,,,70,94
31584,note_on,,,,,0,0,12,,,,,4,,,67,94
31584,note_on,,,,,32,0,11,,,,,3,,,75,44
31616,note_off,,,,,0,0,15,,,,,7,,,70,100
31616,note_off,,,,,128,0,16,,,,,7,,,55,100
31616,note_off,,,,,128,0,13,,,,,5,,,55,100
31616,note_off,,,,,128,0,14,,,,,6,,,43,100
31616,note_off,,,,,128,0,15,,,,,7,,,75,100
31648,note_off,,,,,64,0,10,,,,,2,,,75,100
31648,note_off,,,,,64,0,11,,,,,3,,,75,100
31648,note_off,,,,,64,0,12,,,,,4,,,70,100
31648,note_off,,,,,0,0,12,,,,,4,,,67,100
31680,note_on,,,,,64,0,15,,,,,7,,,67,100
31680,note_on,,,,,0,0,15,,,,,7,,,75,100
31680,note_on,,,,,32,0,10,,,,,2,,,75,105
31680,note_on,,,,,64,0,13,,,,,5,,,60,95
31680,note_on,,,,,64,0,16,,,,,7,,,60,100
31680,note_on,,,,,32,0,12,,,,,4,,,67,95
31680,note_on,,,,,64,0,14,,,,,6,,,48,95
31680,note_on,,,,,32,0,11,,,,,3,,,75,45
31744,note_off,,,,,64,0,12,,,,,4,,,67,100
31744,note_off,,,,,64,0,11,,,,,3,,,75,100
31744,note_off,,,,,64,0,10,,,,,2,,,75,100
31776,note_on,,,,,32,0,10,,,,,2,,,75,105
31776,note_on,,,,,32,0,12,,,,,4,,,67,95
31776,note_on,,,,,32,0,11,,,,,3,,,75,45
31808,note_off,,,,,128,0,15,,,,,7,,,67,100
31808,note_off,,,,,0,0,15,,,,,7,,,75,100
31840,note_off,,,,,64,0,12,,,,,4,,,67,100
31840,note_off,,,,,64,0,11,,,,,3,,,75,100
31840,note_off,,,,,64,0,10,,,,,2,,,75,100
31872,note_on,,,,,32,0,10,,,,,2,,,76,106
31872,note_on,,,,,32,0,11,,,,,3,,,76,46
31872,note_on,,,,,64,0,15,,,,,7,,,67,100
31872,note_on,,,,,32,0,12,,,,,4,,,67,96
31872,note_on,,,,,0,0,15,,,,,7,,,76,100
31936,note_off,,,,,64,0,10,,,,,2,,,76,100
31936,note_off,,,,,256,0,14,,,,,6,,,48,100
31936,note_off,,,,,64,0,12,,,,,4,,,67,100
31936,note_off,,,,,64,0,11,,,,,3,,,76,100
31936,note_off,,,,,256,0,13,,,,,5,,,60,100
31936,note_off,,,,,256,0,16,,,,,7,,,60,100
31968,note_on,,,,,32,0,12,,,,,4,,,67,96
31968,note_on,,,,,32,0,10,,,,,2,,,76,106
31968,note_on,,,,,32,0,11,,,,,3,,,76,46
32000,note_off,,,,,128,0,15,,,,,7,,,67,100
32000,note_off,,,,,0,0,15,,,,,7,,,76,100
32032,note_off,,,,,64,0,12,,,,,4,,,67,100
32032,note_off,,,,,64,0,10,,,,,2,,,76,100
32032,note_off,,,,,64,0,11,,,,,3,,,76,100
32064,note_on,,,,,32,0,12,,,,,4,,,72,96
32064,note_on,,,,,128,0,14,,,,,6,,,46,96
32064,note_on,,,,,0,0,12,,,,,4,,,67,96
32064,note_on,,,,,64,0,15,,,,,7,,,64,100
32064,note_on,,,,,0,0,15,,,,,7,,,72,100
32064,note_on,,,,,128,0,16,,,,,7,,,58,100
32064,note_on,,,,,32,0,11,,,,,3,,,76,46
32064,note_on,,,,,32,0,10,,,,,2,,,76,106
32064,note_on,,,,,128,0,13,,,,,5,,,58,96
32128,note_off,,,,,0,0,12,,,,,4,,,67,100
32128,note_off,,,,,64,0,10,,,,,2,,,76,100
32128,note_off,,,,,64,0,11,,,,,3,,,76,100
32128,note_off,,,,,64,0,12,,,,,4,,,72,100
32160,note_on,,,,,32,0,10,,,,,2,,,76,107
32160,note_on,,,,,32,0,11,,,,,3,,,76,47
32160,note_on,,,,,0,0,12,,,,,4,,,67,97
32160,note_on,,,,,32,0,12,,,,,4,,,72,97
32192,note_off,,,,,0,0,15,,,,,7,,,72,100
32192,note_off,,,,,128,0,15,,,,,7,,,64,100
32192,note_off,,,,,128,0,16,,,,,7,,,58,100
32192,note_off,,,,,128,0,14,,,,,6,,,46,100
32192,note_off,,,,,128,0,13,,,,,5,,,58,100
32224,note_off,,,,,64,0,10,,,,,2,,,76,100
32224,note_off,,,,,64,0,12,,,,,4,,,72,100
32224,note_off,,,,,0,0,12,,,,,4,,,67,100
32224,note_off,,,,,64,0,11,,,,,3,,,76,100
32256,note_on,,,,,64,0,13,,,,,5,,,57,97
32256,note_on,,,,,0,0,15,,,,,7,,,72,100
32256,note_on,,,,,64,0,15,,,,,7,,,64,100
32256,note_on,,,,,64,0,16,,,,,7,,,57,100
32256,note_on,,,,,64,0,14,,,,,6,,,45,97
32256,note_on,,,,,32,0,10,,,,,2,,,77,107
32256,note_on,,,,,32,0,12,,,,,4,,,72,97
32256,note_on,,,,,0,0,12,,,,,4,,,69,97
32256,note_on,,,,,32,0,11,,,,,3,,,77,47
32320,note_off,,,,,64,0,12,,,,,4,,,72,100
32320,note_off,,,,,0,0,12,,,,,4,,,69,100
32320,note_off,,,,,64,0,10,,,,,2,,,77,100
32320,note_off,,,,,64,0,11,,,,,3,,,77,100
32352,note_on,,,,,32,0,10,,,,,2,,,77,108
32352,note_on,,,,,32,0,11,,,,,3,,,77,48
32352,note_on,,,,,32,0,12,,,,,4,,,72,98
32352,note_on,,,,,0,0,12,,,,,4,,,69,98
32384,note_off,,,,,128,0,14,,,,,6,,,45,100
32384,note_off,,,,,128,0,16,,,,,7,,,57,100
32384,note_off,,,,,128,0,13,,,,,5,,,57,100
32384,note_off,,,,,0,0,15,,,,,7,,,72,100
32384,note_off,,,,,128,0,15,,,,,7,,,64,100
32416,note_off,,,,,64,0,11,,,,,3,,,77,100
32416,note_off,,,,,64,0,10,,,,,2,,,77,100
32416,note_off,,,,,64,0,12,,,,,4,,,72,100
32416,note_off,,,,,0,0,12,,,,,4,,,69,100
32448,note_on,,,,,64,0,14,,,,,6,,,50,98
32448,note_on,,,,,64,0,13,,,,,5,,,62,98
32448,note_on,,,,,64,0,15,,,,,7,,,65,100
32448,note_on,,,,,32,0,10,,,,,2,,,77,108
32448,note_on,,,,,32,0,12,,,,,4,,,69,98
32448,note_on,,,,,64,0,16,,,,,7,,,62,100
32448,note_on,,,,,0,0,15,,,,,7,,,69,100
32448,note_on,,,,,32,0,11,,,,,3,,,77,48
32512,note_off,,,,,64,0,12,,,,,4,,,69,100
32512,note_off,,,,,64,0,10,,,,,2,,,77,100
32512,note_off,,,,,64,0,11,,,,,3,,,77,100
32544,note_on,,,,,32,0,11,,,,,3,,,77,48
32544,note_on,,,,,32,0,10,,,,,2,,,77,108
32544,note_on,,,,,32,0,12,,,,,4,,,69,98
32576,note_off,,,,,128,0,15,,,,,7,,,65,100
32576,note_off,,,,,0,0,15,,,,,7,,,69,100
32608,note_off,,,,,64,0,11,,,,,3,,,77,100
32608,note_off,,,,,64,0,10,,,,,2,,,77,100
32608,note_off,,,,,64,0,12,,,,,4,,,69,100
32640,note_on,,,,,32,0,11,,,,,3,,,78,49
32640,note_on,,,,,32,0,10,,,,,2,,,78,109
32640,note_on,,,,,64,0,15,,,,,7,,,69,100
32640,note_on,,,,,0,0,15,,,,,7,,,66,100
32640,note_on,,,,,32,0,12,,,,,4,,,69,99
32704,note_off,,,,,64,0,10,,,,,2,,,78,100
32704,note_off,,,,,256,0,14,,,,,6,,,50,100
32704,note_off,,,,,256,0,16,,,,,7,,,62,100
32704,note_off,,,,,256,0,13,,,,,5,,,62,100
32704,note_off,,,,,64,0,12,,,,,4,,,69,100
32704,note_off,,,,,64,0,11,,,,,3,,,78,100
32736,note_on,,,,,32,0,10,,,,,2,,,78,109
32736,note_on,,,,,32,0,12,,,,,4,,,69,99
32736,note_on,,,,,32,0,11,,,,,3,,,78,49
32768,note_off,,,,,0,0,15,,,,,7,,,66,100
32768,note_off,,,,,128,0,15,,,,,7,,,69,100
32800,note_off,,,,,64,0,10,,,,,2,,,78,100
32800,note_off,,,,,64,0,11,,,,,3,,,78,100
32800,note_off,,,,,64,0,12,,,,,4,,,69,100
32832,note_on,,,,,128,0,16,,,,,7,,,60,100
32832,note_on,,,,,64,0,15,,,,,7,,,66,100
32832,note_on,,,,,32,0,12,,,,,4,,,74,99
32832,note_on,,,,,32,0,11,,,,,3,,,78,49
32832,note_on,,,,,128,0,13,,,,,5,,,60,99
32832,note_on,,,,,0,0,15,,,,,7,,,62,100
32832,note_on,,,,,32,0,10,,,,,2,,,78,109
32832,note_on,,,,,128,0,14,,,,,6,,,48,99
32832,note_on,,,,,0,0,12,,,,,4,,,69,99
32896,note_off,,,,,64,0,11,,,,,3,,,78,100
32896,note_off,,,,,64,0,10,,,,,2,,,78,100
32896,note_off,,,,,0,0,12,,,,,4,,,69,100
32896,note_off,,,,,64,0,12,,,,,4,,,74,100
32928,note_on,,,,,32,0,11,,,,,3,,,78,50
32928,note_on,,,,,32,0,10,,,,,2,,,78,110
32928,note_on,,,,,32,0,12,,,,,4,,,74,100
32928,note_on,,,,,0,0,12,,,,,4,,,69,100
32960,note_off,,,,,128,0,13,,,,,5,,,60,100
32960,note_off,,,,,128,0,16,,,,,7,,,60,100
32960,note_off,,,,,128,0,14,,,,,6,,,48,100
32960,note_off,,,,,0,0,15,,,,,7,,,62,100
32960,note_off,,,,,128,0,15,,,,,7,,,66,100
32992,note_off,,,,,64,0,11,,,,,3,,,78,100
32992,note_off,,,,,64,0,10,,,,,2,,,78,100
32992,note_off,,,,,64,0,12,,,,,4,,,74,100
32992,note_off,,,,,0,0,12,,,,,4,,,69,100
33024,note_on,,,,,32,0,10,,,,,2,,,79,110
33024,note_on,,,,,0,0,12,,,,,4,,,62,100
33024,note_on,,,,,32,0,11,,,,,3,,,79,50
33024,note_on,,,,,64,0,13,,,,,5,,,58,100
33024,note_on,,,,,32,0,12,,,,,4,,,74,100
33024,note_on,,,,,64,0,14,,,,,6,,,46,100
33024,note_on,,,,,64,0,15,,,,,7,,,67,100
33024,note_on,,,,,0,0,15,,,,,7,,,62,100
33024,note_on,,,,,64,0,16,,,,,7,,,58,100
33088,note_off,,,,,64,0,12,,,,,4,,,74,100
33088,note_off,,,,,0,0,12,,,,,4,,,62,100
33120,note_on,,,,,32,0,12,,,,,4,,,74,100
33120,note_on,,,,,0,0,12,,,,,4,,,62,100
33152,note_off,,,,,128,0,14,,,,,6,,,46,100
33152,note_off,,,,,128,0,15,,,,,7,,,67,100
33152,note_off,,,,,0,0,15,,,,,7,,,62,100
33152,note_off,,,,,128,0,16,,,,,7,,,58,100
33152,note_off,,,,,128,0,10,,,,,2,,,79,100
33152,note_off,,,,,128,0,13,,,,,5,,,58,100
33152,note_off,,,,,128,0,11,,,,,3,,,79,100
33184,note_off,,,,,0,0,12,,,,,4,,,62,100
33184,note_off,,,,,64,0,12,,,,,4,,,74,100
33216,note_on,,,,,64,0,15,,,,,7,,,58,100
33216,note_on,,,,,64,0,14,,,,,6,,,43,100
33216,note_on,,,,,0,0,15,,,,,7,,,62,100
33216,note_on,,,,,0,0,12,,,,,4,,,62,100
33216,note_on,,,,,32,0,12,,,,,4,,,70,100
33216,note_on,,,,,64,0,11,,,,,3,,,70,50
33216,note_on,,,,,64,0,10,,,,,2,,,70,110
33216,note_on,,,,,64,0,16,,,,,7,,,55,100
33216,note_on,,,,,64,0,13,,,,,5,,,55,100
33280,note_off,,,,,64,0,12,,,,,4,,,70,100
33280,note_off,,,,,0,0,12,,,,,4,,,62,100
33312,note_on,,,,,0,0,12,,,,,4,,,62,100
33312,note_on,,,,,32,0,12,,,,,4,,,70,100
33344,note_off,,,,,128,0,14,,,,,6,,,43,100
33344,note_off,,,,,128,0,11,,,,,3,,,70,100
33344,note_off,,,,,128,0,16,,,,,7,,,55,100
33344,note_off,,,,,128,0,15,,,,,7,,,58,100
33344,note_off,,,,,128,0,10,,,,,2,,,70,100
33344,note_off,,,,,128,0,13,,,,,5,,,55,100
33344,note_off,,,,,0,0,15,,,,,7,,,62,100
33376,note_off,,,,,64,0,12,,,,,4,,,70,100
33376,note_off,,,,,0,0,12,,,,,4,,,62,100
33408,note_on,,,,,64,0,15,,,,,7,,,67,100
33408,note_on,,,,,0,0,15,,,,,7,,,69,100
33408,note_on,,,,,64,0,16,,,,,7,,,62,100
33408,note_on,,,,,64,0,10,,,,,2,,,62,110
33408,note_on,,,,,64,0,14,,,,,6,,,50,100
33408,note_on,,,,,64,0,13,,,,,5,,,62,100
33408,note_on,,,,,32,0,12,,,,,4,,,69,100
33408,note_on,,,,,0,0,12,,,,,4,,,62,100
33408,note_on,,,,,64,0,11,,,,,3,,,62,50
33472,note_off,,,,,64,0,12,,,,,4,,,69,100
33472,note_off,,,,,0,0,12,,,,,4,,,62,100
33504,note_on,,,,,32,0,12,,,,,4,,,69,100
33504,note_on,,,,,0,0,12,,,,,4,,,62,100
33536,note_off,,,,,128,0,15,,,,,7,,,67,100
33536,note_off,,,,,0,0,15,,,,,7,,,69,100
33536,note_off,,,,,128,0,11,,,,,3,,,62,100
33536,note_off,,,,,128,0,10,,,,,2,,,62,100
33536,note_off,,,,,128,0,16,,,,,7,,,62,100
33536,note_off,,,,,128,0,14,,,,,6,,,50,100
33536,note_off,,,,,128,0,13,,,,,5,,,62,100
33568,note_off,,,,,64,0,12,,,,,4,,,69,100
33568,note_off,,,,,0,0,12,,,,,4,,,62,100
33600,note_on,,,,,64,0,10,,,,,2,,,78,100
33600,note_on,,,,,0,0,10,,,,,2,,,81,100
33600,note_on,,,,,64,0,15,,,,,7,,,66,100
33600,note_on,,,,,0,0,15,,,,,7,,,69,100
33600,note_on,,,,,32,0,12,,,,,4,,,69,100
33600,note_on,,,,,64,0,16,,,,,7,,,50,100
33600,note_on,,,,,0,0,12,,,,,4,,,62,100
33600,note_on,,,,,64,0,11,,,,,3,,,78,50
33600,note_on,,,,,64,0,14,,,,,6,,,38,100
33600,note_on,,,,,64,0,13,,,,,5,,,50,100
33664,note_off,,,,,64,0,12,,,,,4,,,69,100
33664,note_off,,,,,0,0,12,,,,,4,,,62,100
33696,note_on,,,,,32,0,12,,,,,4,,,69,100
33696,note_on,,,,,0,0,12,,,,,4,,,62,100
33728,note_off,,,,,128,0,13,,,,,5,,,50,100
33728,note_off,,,,,128,0,10,,,,,2,,,78,100
33728,note_off,,,,,0,0,15,,,,,7,,,69,100
33728,note_off,,,,,128,0,15,,,,,7,,,66,100
33728,note_off,,,,,128,0,16,,,,,7,,,50,100
33728,note_off,,,,,128,0,14,,,,,6,,,38,100
33728,note_off,,,,,128,0,11,,,,,3,,,78,100
33728,note_off,,,,,0,0,10,,,,,2,,,81,100
33760,note_off,,,,,64,0,12,,,,,4,,,69,100
33760,note_off,,,,,0,0,12,,,,,4,,,62,100
33792,note_on,,,,,64,0,11,,,,,3,,,79,50
33792,note_on,,,,,0,0,12,,,,,4,,,62,100
33792,note_on,,,,,64,0,13,,,,,5,,,43,100
33792,note_on,,,,,15808,0,8,,,,,0,,,82,85
33792,note_on,,,,,32,0,12,,,,,4,,,70,100
33792,note_on,,,,,64,0,10,,,,,2,,,79,100
33792,note_on,,,,,15872,0,9,,,,,1,,,79,85
33792,note_on,,,,,64,0,14,,,,,6,,,43,100
33792,note_on,,,,,64,0,15,,,,,7,,,58,100
33792,note_on,,,,,0,0,15,,,,,7,,,62,100
33792,note_on,,,,,0,0,15,,,,,7,,,67,100
33792,note_on,,,,,64,0,16,,,,,7,,,43,100
33884,note_off,,,,,92,0,9,,,,,1,,,79,100
33884,note_off,,,,,92,0,8,,,,,0,,,82,100
33888,note_on,,,,,4,0,9,,,,,1,,,78,85
33888,note_on,,,,,4,0,8,,,,,0,,,81,85
33980,note_off,,,,,92,0,9,,,,,1,,,78,100
33980,note_off,,,,,92,0,8,,,,,0,,,81,100
33984,note_on,,,,,4,0,8,,,,,0,,,82,85
33984,note_on,,,,,4,0,9,,,,,1,,,79,85
34048,note_off,,,,,256,0,12,,,,,4,,,70,100
34048,note_off,,,,,0,0,12,,,,,4,,,62,100
34048,note_off,,,,,0,0,15,,,,,7,,,62,100
34048,note_off,,,,,256,0,16,,,,,7,,,43,100
34048,note_off,,,,,64,0,9,,,,,1,,,79,100
34048,note_off,,,,,256,0,14,,,,,6,,,43,100
34048,note_off,,,,,0,0,15,,,,,7,,,67,100
34048,note_off,,,,,256,0,10,,,,,2,,,79,100
34048,note_off,,,,,256,0,13,,,,,5,,,43,100
34048,note_off,,,,,256,0,15,,,,,7,,,58,100
34048,note_off,,,,,64,0,8,,,,,0,,,82,100
34048,note_off,,,,,256,0,11,,,,,3,,,79,100
34080,note_on,,,,,32,0,8,,,,,0,,,84,85
34080,note_on,,,,,32,0,9,,,,,1,,,81,85
34144,note_off,,,,,64,0,9,,,,,1,,,81,100
34144,note_off,,,,,64,0,8,,,,,0,,,84,100
34176,note_on,,,,,32,0,9,,,,,1,,,79,85
34176,note_on,,,,,32,0,8,,,,,0,,,82,85
34240,note_off,,,,,64,0,8,,,,,0,,,82,100
34240,note_off,,,,,64,0,9,,,,,1,,,79,100
34272,note_on,,,,,32,0,8,,,,,0,,,84,85
34272,note_on,,,,,32,0,9,,,,,1,,,81,85
34336,note_off,,,,,64,0,8,,,,,0,,,84,100
34336,note_off,,,,,64,0,9,,,,,1,,,81,100
34368,note_on,,,,,32,0,9,,,,,1,,,78,85
34368,note_on,,,,,32,0,8,,,,,0,,,81,85
34432,note_off,,,,,64,0,8,,,,,0,,,81,100
34432,note_off,,,,,64,0,9,,,,,1,,,78,100
34464,note_on,,,,,32,0,9,,,,,1,,,81,85
34464,note_on,,,,,32,0,8,,,,,0,,,84,85
34528,note_off,,,,,64,0,9,,,,,1,,,81,100
34528,note_off,,,,,64,0,8,,,,,0,,,84,100
34560,note_on,,,,,32,0,8,,,,,0,,,82,85
34560,note_on,,,,,32,0,9,,,,,1,,,79,85
34652,note_off,,,,,92,0,8,,,,,0,,,82,100
34652,note_off,,,,,92,0,9,,,,,1,,,79,100
34656,note_on,,,,,4,0,8,,,,,0,,,81,85
34656,note_on,,,,,4,0,9,,,,,1,,,78,85
34748,note_off,,,,,92,0,8,,,,,0,,,81,100
34748,note_off,,,,,92,0,9,,,,,1,,,78,100
34752,note_on,,,,,4,0,8,,,,,0,,,82,85
34752,note_on,,,,,4,0,9,,,,,1,,,79,85
34816,note_off,,,,,64,0,8,,,,,0,,,82,100
34816,note_off,,,,,64,0,9,,,,,1,,,79,100
34848,note_on,,,,,32,0,9,,,,,1,,,81,85
34848,note_on,,,,,32,0,8,,,,,0,,,84,85
34912,note_off,,,,,64,0,8,,,,,0,,,84,100
34912,note_off,,,,,64,0,9,,,,,1,,,81,100
34944,note_on,,,,,32,0,9,,,,,1,,,79,85
34944,note_on,,,,,32,0,8,,,,,0,,,82,85
35008,note_off,,,,,64,0,8,,,,,0,,,82,100
35008,note_off,,,,,64,0,9,,,,,1,,,79,100
35040,note_on,,,,,32,0,8,,,,,0,,,84,85
35040,note_on,,,,,32,0,9,,,,,1,,,81,85
35104,note_off,,,,,64,0,8,,,,,0,,,84,100
35104,note_off,,,,,64,0,9,,,,,1,,,81,100
35136,note_on,,,,,32,0,8,,,,,0,,,81,85
35136,note_on,,,,,32,0,9,,,,,1,,,78,85
35200,note_off,,,,,64,0,8,,,,,0,,,81,100
35200,note_off,,,,,64,0,9,,,,,1,,,78,100
35232,note_on,,,,,32,0,8,,,,,0,,,82,85
35232,note_on,,,,,32,0,9,,,,,1,,,79,85
35296,note_off,,,,,64,0,8,,,,,0,,,82,100
35296,note_off,,,,,64,0,9,,,,,1,,,79,100
35328,note_on,,,,,32,0,8,,,,,0,,,84,85
35328,note_on,,,,,32,0,9,,,,,1,,,81,85
35420,note_off,,,,,92,0,8,,,,,0,,,84,100
35420,note_off,,,,,92,0,9,,,,,1,,,81,100
35424,note_on,,,,,4,0,8,,,,,0,,,82,85
35424,note_on,,,,,4,0,9,,,,,1,,,79,85
35516,note_off,,,,,92,0,8,,,,,0,,,82,100
35516,note_off,,,,,92,0,9,,,,,1,,,79,100
35520,note_on,,,,,4,0,8,,,,,0,,,84,85
35520,note_on,,,,,4,0,9,,,,,1,,,81,85
35584,note_off,,,,,64,0,8,,,,,0,,,84,100
35584,note_off,,,,,64,0,9,,,,,1,,,81,100
35616,note_on,,,,,32,0,8,,,,,0,,,86,85
35616,note_on,,,,,32,0,9,,,,,1,,,82,85
35680,note_off,,,,,64,0,8,,,,,0,,,86,100
35680,note_off,,,,,64,0,9,,,,,1,,,82,100
35712,note_on,,,,,32,0,8,,,,,0,,,84,85
35712,note_on,,,,,32,0,9,,,,,1,,,81,85
35776,note_off,,,,,64,0,8,,,,,0,,,84,100
35776,note_off,,,,,64,0,9,,,,,1,,,81,100
35808,note_on,,,,,32,0,9,,,,,1,,,82,85
35808,note_on,,,,,32,0,8,,,,,0,,,86,85
35872,note_off,,,,,64,0,9,,,,,1,,,82,100
35872,note_off,,,,,64,0,8,,,,,0,,,86,100
35904,note_on,,,,,32,0,9,,,,,1,,,79,85
35904,note_on,,,,,32,0,8,,,,,0,,,82,85
35968,note_off,,,,,64,0,9,,,,,1,,,79,100
35968,note_off,,,,,64,0,8,,,,,0,,,82,100
36000,note_on,,,,,32,0,9,,,,,1,,,82,85
36000,note_on,,,,,32,0,8,,,,,0,,,86,85
36064,note_off,,,,,64,0,9,,,,,1,,,82,100
36064,note_off,,,,,64,0,8,,,,,0,,,86,100
36096,note_on,,,,,32,0,9,,,,,1,,,81,85
36096,note_on,,,,,32,0,8,,,,,0,,,84,85
36188,note_off,,,,,92,0,9,,,,,1,,,81,100
36188,note_off,,,,,92,0,8,,,,,0,,,84,100
36192,note_on,,,,,4,0,8,,,,,0,,,82,85
36192,note_on,,,,,4,0,9,,,,,1,,,79,85
36284,note_off,,,,,92,0,8,,,,,0,,,82,100
36284,note_off,,,,,92,0,9,,,,,1,,,79,100
36288,note_on,,,,,4,0,8,,,,,0,,,84,85
36288,note_on,,,,,4,0,9,,,,,1,,,81,85
36352,note_off,,,,,64,0,9,,,,,1,,,81,100
36352,note_off,,,,,64,0,8,,,,,0,,,84,100
36384,note_on,,,,,32,0,9,,,,,1,,,82,85
36384,note_on,,,,,32,0,8,,,,,0,,,86,85
36448,note_off,,,,,64,0,8,,,,,0,,,86,100
36448,note_off,,,,,64,0,9,,,,,1,,,82,100
36480,note_on,,,,,32,0,9,,,,,1,,,81,85
36480,note_on,,,,,32,0,8,,,,,0,,,84,85
36544,note_off,,,,,64,0,9,,,,,1,,,81,100
36544,note_off,,,,,64,0,8,,,,,0,,,84,100
36576,note_on,,,,,32,0,9,,,,,1,,,82,85
36576,note_on,,,,,32,0,8,,,,,0,,,86,85
36640,note_off,,,,,64,0,9,,,,,1,,,82,100
36640,note_off,,,,,64,0,8,,,,,0,,,86,100
36672,note_on,,,,,32,0,9,,,,,1,,,79,85
36672,note_on,,,,,32,0,8,,,,,0,,,82,85
36736,note_off,,,,,64,0,8,,,,,0,,,82,100
36736,note_off,,,,,64,0,9,,,,,1,,,79,100
36768,note_on,,,,,32,0,8,,,,,0,,,84,85
36768,note_on,,,,,32,0,9,,,,,1,,,81,85
36832,note_off,,,,,64,0,9,,,,,1,,,81,100
36832,note_off,,,,,64,0,8,,,,,0,,,84,100
36864,note_on,,,,,32,0,8,,,,,0,,,86,85
36864,note_on,,,,,32,0,9,,,,,1,,,82,85
36956,note_off,,,,,92,0,8,,,,,0,,,86,100
36956,note_off,,,,,92,0,9,,,,,1,,,82,100
36960,note_on,,,,,4,0,9,,,,,1,,,81,85
36960,note_on,,,,,4,0,8,,,,,0,,,84,85
37052,note_off,,,,,92,0,8,,,,,0,,,84,100
37052,note_off,,,,,92,0,9,,,,,1,,,81,100
37056,note_on,,,,,4,0,9,,,,,1,,,82,85
37056,note_on,,,,,4,0,8,,,,,0,,,86,85
37120,note_off,,,,,64,0,9,,,,,1,,,82,100
37120,note_off,,,,,64,0,8,,,,,0,,,86,100
37152,note_on,,,,,32,0,9,,,,,1,,,84,85
37152,note_on,,,,,32,0,8,,,,,0,,,87,85
37216,note_off,,,,,64,0,9,,,,,1,,,84,100
37216,note_off,,,,,64,0,8,,,,,0,,,87,100
37248,note_on,,,,,32,0,8,,,,,0,,,86,85
37248,note_on,,,,,32,0,9,,,,,1,,,82,85
37312,note_off,,,,,64,0,8,,,,,0,,,86,100
37312,note_off,,,,,64,0,9,,,,,1,,,82,100
37344,note_on,,,,,32,0,8,,,,,0,,,87,85
37344,note_on,,,,,32,0,9,,,,,1,,,84,85
37408,note_off,,,,,64,0,8,,,,,0,,,87,100
37408,note_off,,,,,64,0,9,,,,,1,,,84,100
37440,note_on,,,,,32,0,9,,,,,1,,,81,85
37440,note_on,,,,,32,0,8,,,,,0,,,84,85
37504,note_off,,,,,64,0,9,,,,,1,,,81,100
37504,note_off,,,,,64,0,8,,,,,0,,,84,100
37536,note_on,,,,,32,0,8,,,,,0,,,87,85
37536,note_on,,,,,32,0,9,,,,,1,,,84,85
37600,note_off,,,,,64,0,8,,,,,0,,,87,100
37600,note_off,,,,,64,0,9,,,,,1,,,84,100
37632,note_on,,,,,32,0,8,,,,,0,,,86,85
37632,note_on,,,,,32,0,9,,,,,1,,,82,85
37724,note_off,,,,,92,0,8,,,,,0,,,86,100
37724,note_off,,,,,92,0,9,,,,,1,,,82,100
37728,note_on,,,,,4,0,9,,,,,1,,,81,85
37728,note_on,,,,,4,0,8,,,,,0,,,84,85
37820,note_off,,,,,92,0,9,,,,,1,,,81,100
37820,note_off,,,,,92,0,8,,,,,0,,,84,100
37824,note_on,,,,,4,0,9,,,,,1,,,82,85
37824,note_on,,,,,4,0,8,,,,,0,,,86,85
37888,note_off,,,,,64,0,9,,,,,1,,,82,100
37888,note_off,,,,,64,0,8,,,,,0,,,86,100
37920,note_on,,,,,32,0,8,,,,,0,,,87,85
37920,note_on,,,,,32,0,9,,,,,1,,,84,85
37984,note_off,,,,,64,0,8,,,,,0,,,87,100
37984,note_off,,,,,64,0,9,,,,,1,,,84,100
38016,note_on,,,,,32,0,9,,,,,1,,,82,85
38016,note_on,,,,,32,0,8,,,,,0,,,86,85
38108,note_off,,,,,92,0,9,,,,,1,,,82,100
38108,note_off,,,,,92,0,8,,,,,0,,,86,100
38112,note_on,,,,,4,0,9,,,,,1,,,81,85
38112,note_on,,,,,4,0,8,,,,,0,,,84,85
38204,note_off,,,,,92,0,9,,,,,1,,,81,100
38204,note_off,,,,,92,0,8,,,,,0,,,84,100
38208,note_on,,,,,4,0,9,,,,,1,,,82,85
38208,note_on,,,,,4,0,8,,,,,0,,,86,85
38272,note_off,,,,,64,0,9,,,,,1,,,82,100
38272,note_off,,,,,64,0,8,,,,,0,,,86,100
38304,note_on,,,,,32,0,8,,,,,0,,,87,85
38304,note_on,,,,,32,0,9,,,,,1,,,84,85
38368,note_off,,,,,64,0,9,,,,,1,,,84,100
38368,note_off,,,,,64,0,8,,,,,0,,,87,100
38400,note_on,,,,,32,0,8,,,,,0,,,84,85
38400,note_on,,,,,32,0,9,,,,,1,,,81,85
38492,note_off,,,,,92,0,9,,,,,1,,,81,100
38492,note_off,,,,,92,0,8,,,,,0,,,84,100
38496,note_on,,,,,4,0,8,,,,,0,,,82,85
38496,note_on,,,,,4,0,9,,,,,1,,,79,85
38588,note_off,,,,,92,0,8,,,,,0,,,82,100
38588,note_off,,,,,92,0,9,,,,,1,,,79,100
38592,note_on,,,,,4,0,9,,,,,1,,,81,85
38592,note_on,,,,,4,0,8,,,,,0,,,84,85
38656,note_off,,,,,64,0,9,,,,,1,,,81,100
38656,note_off,,,,,64,0,8,,,,,0,,,84,100
38688,note_on,,,,,32,0,8,,,,,0,,,86,85
38688,note_on,,,,,32,0,9,,,,,1,,,82,85
38752,note_off,,,,,64,0,9,,,,,1,,,82,100
38752,note_off,,,,,64,0,8,,,,,0,,,86,100
38784,note_on,,,,,32,0,8,,,,,0,,,84,85
38784,note_on,,,,,32,0,9,,,,,1,,,81,85
38876,note_off,,,,,92,0,8,,,,,0,,,84,100
38876,note_off,,,,,92,0,9,,,,,1,,,81,100
38880,note_on,,,,,4,0,8,,,,,0,,,82,85
38880,note_on,,,,,4,0,9,,,,,1,,,79,85
38972,note_off,,,,,92,0,8,,,,,0,,,82,100
38972,note_off,,,,,92,0,9,,,,,1,,,79,100
38976,note_on,,,,,4,0,8,,,,,0,,,84,85
38976,note_on,,,,,4,0,9,,,,,1,,,81,85
39040,note_off,,,,,64,0,8,,,,,0,,,84,100
39040,note_off,,,,,64,0,9,,,,,1,,,81,100
39072,note_on,,,,,32,0,9,,,,,1,,,82,85
39072,note_on,,,,,32,0,8,,,,,0,,,86,85
39136,note_off,,,,,64,0,8,,,,,0,,,86,100
39136,note_off,,,,,64,0,9,,,,,1,,,82,100
39168,note_on,,,,,32,0,9,,,,,1,,,79,85
39168,note_on,,,,,32,0,8,,,,,0,,,82,85
39260,note_off,,,,,92,0,9,,,,,1,,,79,100
39260,note_off,,,,,92,0,8,,,,,0,,,82,100
39264,note_on,,,,,4,0,9,,,,,1,,,78,85
39264,note_on,,,,,4,0,8,,,,,0,,,81,85
39356,note_off,,,,,92,0,8,,,,,0,,,81,100
39356,note_off,,,,,92,0,9,,,,,1,,,78,100
39360,note_on,,,,,4,0,9,,,,,1,,,79,85
39360,note_on,,,,,4,0,8,,,,,0,,,82,85
39424,note_off,,,,,64,0,9,,,,,1,,,79,100
39424,note_off,,,,,64,0,8,,,,,0,,,82,100
39456,note_on,,,,,32,0,8,,,,,0,,,84,85
39456,note_on,,,,,32,0,9,,,,,1,,,81,85
39520,note_off,,,,,64,0,8,,,,,0,,,84,100
39520,note_off,,,,,64,0,9,,,,,1,,,81,100
39552,note_on,,,,,32,0,9,,,,,1,,,79,85
39552,note_on,,,,,32,0,8,,,,,0,,,82,85
39644,note_off,,,,,92,0,8,,,,,0,,,82,100
39644,note_off,,,,,92,0,9,,,,,1,,,79,100
39648,note_on,,,,,4,0,8,,,,,0,,,81,85
39648,note_on,,,,,4,0,9,,,,,1,,,78,85
39740,note_off,,,,,92,0,8,,,,,0,,,81,100
39740,note_off,,,,,92,0,9,,,,,1,,,78,100
39744,note_on,,,,,4,0,8,,,,,0,,,82,85
39744,note_on,,,,,4,0,9,,,,,1,,,79,85
39808,note_off,,,,,64,0,8,,,,,0,,,82,100
39808,note_off,,,,,64,0,9,,,,,1,,,79,100
39840,note_on,,,,,32,0,8,,,,,0,,,84,85
39840,note_on,,,,,32,0,9,,,,,1,,,81,85
39904,note_off,,,,,64,0,8,,,,,0,,,84,100
39904,note_off,,,,,64,0,9,,,,,1,,,81,100
39936,note_on,,,,,32,0,8,,,,,0,,,81,85
39936,note_on,,,,,32,0,9,,,,,1,,,78,85
40028,note_off,,,,,92,0,9,,,,,1,,,78,100
40032,note_on,,,,,4,0,9,,,,,1,,,76,82
40064,note_off,,,,,128,0,8,,,,,0,,,81,100
40124,note_off,,,,,92,0,9,,,,,1,,,76,100
40128,note_on,,,,,64,0,8,,,,,0,,,86,79
40128,note_on,,,,,4,0,9,,,,,1,,,78,79
40192,note_off,,,,,64,0,9,,,,,1,,,78,100
40224,note_on,,,,,32,0,9,,,,,1,,,79,76
40288,note_off,,,,,64,0,9,,,,,1,,,79,100
40320,note_on,,,,,32,0,9,,,,,1,,,78,73
40384,note_off,,,,,64,0,9,,,,,1,,,78,100
40384,note_off,,,,,256,0,8,,,,,0,,,86,100
40416,note_on,,,,,32,0,9,,,,,1,,,79,70
40480,note_off,,,,,64,0,9,,,,,1,,,79,100
40512,note_on,,,,,32,0,9,,,,,1,,,81,67
40512,note_on,,,,,128,0,8,,,,,0,,,84,67
40576,note_off,,,,,64,0,9,,,,,1,,,81,100
40608,note_on,,,,,32,0,9,,,,,1,,,78,64
40640,note_off,,,,,128,0,8,,,,,0,,,84,100
40672,note_off,,,,,64,0,9,,,,,1,,,78,100
40704,note_on,,,,,6656,0,12,,,,,4,,,62,50
40704,note_on,,,,,0,0,15,,,,,7,,,58,100
40704,note_on,,,,,6656,0,15,,,,,7,,,62,100
40704,note_on,,,,,6656,0,16,,,,,7,,,43,100
40704,note_on,,,,,32,0,9,,,,,1,,,79,60
40704,note_on,,,,,64,0,8,,,,,0,,,82,60
40704,note_on,,,,,6656,0,13,,,,,5,,,46,50
40704,note_on,,,,,6656,0,14,,,,,6,,,34,50
40768,note_off,,,,,64,0,14,,,,,6,,,34,100
40768,note_off,,,,,64,0,13,,,,,5,,,46,100
40768,note_off,,,,,64,0,12,,,,,4,,,62,100
40800,note_on,,,,,32,0,13,,,,,5,,,46,50
40800,note_on,,,,,32,0,12,,,,,4,,,62,50
40800,note_on,,,,,32,0,14,,,,,6,,,34,50
40832,note_off,,,,,128,0,9,,,,,1,,,79,100
40832,note_off,,,,,0,0,15,,,,,7,,,58,100
40832,note_off,,,,,128,0,15,,,,,7,,,62,100
40832,note_off,,,,,128,0,16,,,,,7,,,43,100
40832,note_off,,,,,128,0,8,,,,,0,,,82,100
40864,note_off,,,,,64,0,14,,,,,6,,,34,100
40864,note_off,,,,,64,0,12,,,,,4,,,62,100
40864,note_off,,,,,64,0,13,,,,,5,,,46,100
40896,note_on,,,,,64,0,15,,,,,7,,,67,100
40896,note_on,,,,,32,0,14,,,,,6,,,34,51
40896,note_on,,,,,64,0,16,,,,,7,,,46,100
40896,note_on,,,,,6848,0,11,,,,,3,,,79,11
40896,note_on,,,,,6848,0,10,,,,,2,,,79,61
40896,note_on,,,,,64,0,9,,,,,1,,,79,60
40896,note_on,,,,,0,0,15,,,,,7,,,62,100
40896,note_on,,,,,32,0,13,,,,,5,,,46,51
40896,note_on,,,,,64,0,8,,,,,0,,,79,60
40896,note_on,,,,,32,0,12,,,,,4,,,62,51
40960,note_off,,,,,64,0,13,,,,,5,,,46,100
40960,note_off,,,,,64,0,12,,,,,4,,,62,100
40960,note_off,,,,,64,0,14,,,,,6,,,34,100
40992,note_on,,,,,32,0,12,,,,,4,,,62,51
40992,note_on,,,,,32,0,14,,,,,6,,,34,51
40992,note_on,,,,,32,0,13,,,,,5,,,46,51
41024,note_off,,,,,128,0,16,,,,,7,,,46,100
41024,note_off,,,,,0,0,15,,,,,7,,,62,100
41024,note_off,,,,,128,0,15,,,,,7,,,67,100
41056,note_off,,,,,64,0,13,,,,,5,,,46,100
41056,note_off,,,,,64,0,14,,,,,6,,,34,100
41056,note_off,,,,,64,0,12,,,,,4,,,62,100
41088,note_on,,,,,32,0,12,,,,,4,,,62,52
41088,note_on,,,,,32,0,13,,,,,5,,,47,52
41088,note_on,,,,,64,0,15,,,,,7,,,65,100
41088,note_on,,,,,0,0,15,,,,,7,,,67,100
41088,note_on,,,,,64,0,16,,,,,7,,,47,100
41088,note_on,,,,,32,0,14,,,,,6,,,35,52
41152,note_off,,,,,256,0,11,,,,,3,,,79,100
41152,note_off,,,,,256,0,8,,,,,0,,,79,100
41152,note_off,,,,,64,0,13,,,,,5,,,47,100
41152,note_off,,,,,64,0,14,,,,,6,,,35,100
41152,note_off,,,,,64,0,12,,,,,4,,,62,100
41152,note_off,,,,,256,0,10,,,,,2,,,79,100
41152,note_off,,,,,256,0,9,,,,,1,,,79,100
41184,note_on,,,,,32,0,13,,,,,5,,,47,52
41184,note_on,,,,,32,0,14,,,,,6,,,35,52
41184,note_on,,,,,32,0,12,,,,,4,,,62,52
41216,note_off,,,,,128,0,16,,,,,7,,,47,100
41248,note_off,,,,,64,0,14,,,,,6,,,35,100
41248,note_off,,,,,64,0,13,,,,,5,,,47,100
41248,note_off,,,,,64,0,12,,,,,4,,,62,100
41280,note_on,,,,,32,0,13,,,,,5,,,47,53
41280,note_on,,,,,32,0,14,,,,,6,,,35,53
41280,note_on,,,,,128,0,10,,,,,2,,,77,63
41280,note_on,,,,,0,0,12,,,,,4,,,62,53
41280,note_on,,,,,32,0,12,,,,,4,,,67,53
41280,note_on,,,,,64,0,16,,,,,7,,,47,100
41280,note_on,,,,,128,0,11,,,,,3,,,77,13
41344,note_off,,,,,256,0,15,,,,,7,,,65,100
41344,note_off,,,,,64,0,13,,,,,5,,,47,100
41344,note_off,,,,,64,0,14,,,,,6,,,35,100
41344,note_off,,,,,0,0,15,,,,,7,,,67,100
41344,note_off,,,,,64,0,12,,,,,4,,,67,100
41344,note_off,,,,,0,0,12,,,,,4,,,62,100
41376,note_on,,,,,32,0,12,,,,,4,,,67,54
41376,note_on,,,,,0,0,12,,,,,4,,,62,54
41376,note_on,,,,,32,0,13,,,,,5,,,47,54
41376,note_on,,,,,32,0,14,,,,,6,,,35,54
41408,note_off,,,,,128,0,10,,,,,2,,,77,100
41408,note_off,,,,,128,0,11,,,,,3,,,77,100
41408,note_off,,,,,128,0,16,,,,,7,,,47,100
41440,note_off,,,,,64,0,12,,,,,4,,,67,100
41440,note_off,,,,,64,0,13,,,,,5,,,47,100
41440,note_off,,,,,0,0,12,,,,,4,,,62,100
41440,note_off,,,,,64,0,14,,,,,6,,,35,100
41472,note_on,,,,,32,0,12,,,,,4,,,64,54
41472,note_on,,,,,64,0,16,,,,,7,,,48,100
41472,note_on,,,,,32,0,13,,,,,5,,,48,54
41472,note_on,,,,,64,0,11,,,,,3,,,76,14
41472,note_on,,,,,0,0,15,,,,,7,,,67,100
41472,note_on,,,,,128,0,15,,,,,7,,,64,100
41472,note_on,,,,,64,0,10,,,,,2,,,76,64
41472,note_on,,,,,0,0,12,,,,,4,,,67,54
41472,note_on,,,,,32,0,14,,,,,6,,,36,54
41536,note_off,,,,,64,0,14,,,,,6,,,36,100
41536,note_off,,,,,64,0,13,,,,,5,,,48,100
41536,note_off,,,,,64,0,12,,,,,4,,,64,100
41536,note_off,,,,,0,0,12,,,,,4,,,67,100
41568,note_on,,,,,32,0,13,,,,,5,,,48,55
41568,note_on,,,,,0,0,12,,,,,4,,,67,55
41568,note_on,,,,,32,0,14,,,,,6,,,36,55
41568,note_on,,,,,32,0,12,,,,,4,,,64,55
41600,note_off,,,,,128,0,16,,,,,7,,,48,100
41600,note_off,,,,,128,0,11,,,,,3,,,76,100
41600,note_off,,,,,128,0,15,,,,,7,,,64,100
41600,note_off,,,,,128,0,10,,,,,2,,,76,100
41600,note_off,,,,,0,0,15,,,,,7,,,67,100
41632,note_off,,,,,0,0,12,,,,,4,,,67,100
41632,note_off,,,,,64,0,14,,,,,6,,,36,100
41632,note_off,,,,,64,0,13,,,,,5,,,48,100
41632,note_off,,,,,64,0,12,,,,,4,,,64,100
41664,note_on,,,,,32,0,12,,,,,4,,,64,55
41664,note_on,,,,,64,0,10,,,,,2,,,81,65
41664,note_on,,,,,32,0,14,,,,,6,,,36,55
41664,note_on,,,,,0,0,15,,,,,7,,,69,100
41664,note_on,,,,,32,0,13,,,,,5,,,48,55
41664,note_on,,,,,64,0,11,,,,,3,,,81,15
41664,note_on,,,,,64,0,16,,,,,7,,,48,100
41664,note_on,,,,,64,0,15,,,,,7,,,64,100
41728,note_off,,,,,64,0,14,,,,,6,,,36,100
41728,note_off,,,,,64,0,12,,,,,4,,,64,100
41728,note_off,,,,,64,0,13,,,,,5,,,48,100
41760,note_on,,,,,32,0,12,,,,,4,,,64,56
41760,note_on,,,,,32,0,13,,,,,5,,,48,56
41760,note_on,,,,,32,0,14,,,,,6,,,36,56
41792,note_off,,,,,0,0,15,,,,,7,,,69,100
41792,note_off,,,,,128,0,15,,,,,7,,,64,100
41792,note_off,,,,,128,0,16,,,,,7,,,48,100
41824,note_off,,,,,64,0,12,,,,,4,,,64,100
41824,note_off,,,,,64,0,13,,,,,5,,,48,100
41824,note_off,,,,,64,0,14,,,,,6,,,36,100
41856,note_on,,,,,0,0,15,,,,,7,,,67,100
41856,note_on,,,,,64,0,15,,,,,7,,,69,100
41856,note_on,,,,,32,0,12,,,,,4,,,64,57
41856,note_on,,,,,64,0,16,,,,,7,,,49,100
41856,note_on,,,,,32,0,13,,,,,5,,,49,57
41856,note_on,,,,,32,0,14,,,,,6,,,37,57
41920,note_off,,,,,64,0,14,,,,,6,,,37,100
41920,note_off,,,,,256,0,10,,,,,2,,,81,100
41920,note_off,,,,,64,0,13,,,,,5,,,49,100
41920,note_off,,,,,64,0,12,,,,,4,,,64,100
41920,note_off,,,,,256,0,11,,,,,3,,,81,100
41952,note_on,,,,,32,0,13,,,,,5,,,49,57
41952,note_on,,,,,32,0,12,,,,,4,,,64,57
41952,note_on,,,,,32,0,14,,,,,6,,,37,57
41984,note_off,,,,,128,0,16,,,,,7,,,49,100
42016,note_off,,,,,64,0,13,,,,,5,,,49,100
42016,note_off,,,,,64,0,12,,,,,4,,,64,100
42016,note_off,,,,,64,0,14,,,,,6,,,37,100
42048,note_on,,,,,64,0,16,,,,,7,,,49,100
42048,note_on,,,,,32,0,12,,,,,4,,,69,58
42048,note_on,,,,,32,0,14,,,,,6,,,37,58
42048,note_on,,,,,128,0,11,,,,,3,,,79,18
42048,note_on,,,,,128,0,10,,,,,2,,,79,68
42048,note_on,,,,,32,0,13,,,,,5,,,49,58
42048,note_on,,,,,0,0,12,,,,,4,,,64,58
42112,note_off,,,,,0,0,15,,,,,7,,,67,100
42112,note_off,,,,,64,0,13,,,,,5,,,49,100
42112,note_off,,,,,64,0,14,,,,,6,,,37,100
42112,note_off,,,,,64,0,12,,,,,4,,,69,100
42112,note_off,,,,,0,0,12,,,,,4,,,64,100
42112,note_off,,,,,256,0,15,,,,,7,,,69,100
42144,note_on,,,,,32,0,13,,,,,5,,,49,58
42144,note_on,,,,,32,0,14,,,,,6,,,37,58
42144,note_on,,,,,0,0,12,,,,,4,,,64,58
42144,note_on,,,,,32,0,12,,,,,4,,,69,58
42176,note_off,,,,,128,0,16,,,,,7,,,49,100
42176,note_off,,,,,128,0,10,,,,,2,,,79,100
42176,note_off,,,,,128,0,11,,,,,3,,,79,100
42208,note_off,,,,,64,0,12,,,,,4,,,69,100
42208,note_off,,,,,0,0,12,,,,,4,,,64,100
42208,note_off,,,,,64,0,14,,,,,6,,,37,100
42208,note_off,,,,,64,0,13,,,,,5,,,49,100
42240,note_on,,,,,64,0,10,,,,,2,,,78,69
42240,note_on,,,,,32,0,14,,,,,6,,,38,59
42240,note_on,,,,,32,0,12,,,,,4,,,69,59
42240,note_on,,,,,0,0,12,,,,,4,,,66,59
42240,note_on,,,,,64,0,11,,,,,3,,,78,19
42240,note_on,,,,,64,0,16,,,,,7,,,50,100
42240,note_on,,,,,128,0,15,,,,,7,,,66,100
42240,note_on,,,,,0,0,15,,,,,7,,,69,100
42240,note_on,,,,,32,0,13,,,,,5,,,50,59
42304,note_off,,,,,0,0,12,,,,,4,,,66,100
42304,note_off,,,,,64,0,14,,,,,6,,,38,100
42304,note_off,,,,,64,0,13,,,,,5,,,50,100
42304,note_off,,,,,64,0,12,,,,,4,,,69,100
42336,note_on,,,,,32,0,14,,,,,6,,,38,59
42336,note_on,,,,,32,0,13,,,,,5,,,50,59
42336,note_on,,,,,32,0,12,,,,,4,,,69,59
42336,note_on,,,,,0,0,12,,,,,4,,,66,59
42368,note_off,,,,,128,0,16,,,,,7,,,50,100
42368,note_off,,,,,128,0,10,,,,,2,,,78,100
42368,note_off,,,,,128,0,15,,,,,7,,,66,100
42368,note_off,,,,,0,0,15,,,,,7,,,69,100
42368,note_off,,,,,128,0,11,,,,,3,,,78,100
42400,note_off,,,,,0,0,12,,,,,4,,,66,100
42400,note_off,,,,,64,0,13,,,,,5,,,50,100
42400,note_off,,,,,64,0,14,,,,,6,,,38,100
42400,note_off,,,,,64,0,12,,,,,4,,,69,100
42432,note_on,,,,,64,0,15,,,,,7,,,66,100
42432,note_on,,,,,64,0,16,,,,,7,,,50,100
42432,note_on,,,,,64,0,11,,,,,3,,,82,20
42432,note_on,,,,,32,0,14,,,,,6,,,38,60
42432,note_on,,,,,0,0,15,,,,,7,,,70,100
42432,note_on,,,,,64,0,10,,,,,2,,,82,70
42432,note_on,,,,,32,0,13,,,,,5,,,50,60
42432,note_on,,,,,32,0,12,,,,,4,,,66,60
42496,note_off,,,,,64,0,12,,,,,4,,,66,100
42496,note_off,,,,,64,0,14,,,,,6,,,38,100
42496,note_off,,,,,64,0,13,,,,,5,,,50,100
42528,note_on,,,,,32,0,12,,,,,4,,,66,61
42528,note_on,,,,,32,0,13,,,,,5,,,50,61
42528,note_on,,,,,32,0,14,,,,,6,,,38,61
42560,note_off,,,,,128,0,16,,,,,7,,,50,100
42560,note_off,,,,,0,0,15,,,,,7,,,70,100
42560,note_off,,,,,128,0,15,,,,,7,,,66,100
42592,note_off,,,,,64,0,14,,,,,6,,,38,100
42592,note_off,,,,,64,0,13,,,,,5,,,50,100
42592,note_off,,,,,64,0,12,,,,,4,,,66,100
42624,note_on,,,,,64,0,16,,,,,7,,,50,100
42624,note_on,,,,,32,0,12,,,,,4,,,66,61
42624,note_on,,,,,64,0,15,,,,,7,,,69,100
42624,note_on,,,,,32,0,13,,,,,5,,,50,61
42624,note_on,,,,,32,0,14,,,,,6,,,38,61
42624,note_on,,,,,0,0,15,,,,,7,,,70,100
42688,note_off,,,,,64,0,13,,,,,5,,,50,100
42688,note_off,,,,,64,0,12,,,,,4,,,66,100
42688,note_off,,,,,256,0,10,,,,,2,,,82,100
42688,note_off,,,,,64,0,14,,,,,6,,,38,100
42688,note_off,,,,,256,0,11,,,,,3,,,82,100
42720,note_on,,,,,32,0,12,,,,,4,,,66,62
42720,note_on,,,,,32,0,14,,,,,6,,,38,62
42720,note_on,,,,,32,0,13,,,,,5,,,50,62
42752,note_off,,,,,128,0,16,,,,,7,,,50,100
42784,note_off,,,,,64,0,12,,,,,4,,,66,100
42784,note_off,,,,,64,0,13,,,,,5,,,50,100
42784,note_off,,,,,64,0,14,,,,,6,,,38,100
42816,note_on,,,,,64,0,16,,,,,7,,,50,100
42816,note_on,,,,,0,0,12,,,,,4,,,66,62
42816,note_on,,,,,32,0,12,,,,,4,,,70,62
42816,note_on,,,,,128,0,10,,,,,2,,,81,72
42816,note_on,,,,,32,0,13,,,,,5,,,50,62
42816,note_on,,,,,128,0,11,,,,,3,,,81,22
42816,note_on,,,,,32,0,14,,,,,6,,,38,62
42880,note_off,,,,,64,0,13,,,,,5,,,50,100
42880,note_off,,,,,256,0,15,,,,,7,,,69,100
42880,note_off,,,,,0,0,15,,,,,7,,,70,100
42880,note_off,,,,,64,0,12,,,,,4,,,70,100
42880,note_off,,,,,0,0,12,,,,,4,,,66,100
42880,note_off,,,,,64,0,14,,,,,6,,,38,100
42912,note_on,,,,,0,0,12,,,,,4,,,66,63
42912,note_on,,,,,32,0,14,,,,,6,,,38,63
42912,note_on,,,,,32,0,12,,,,,4,,,70,63
42912,note_on,,,,,32,0,13,,,,,5,,,50,63
42944,note_off,,,,,128,0,10,,,,,2,,,81,100
42944,note_off,,,,,128,0,16,,,,,7,,,50,100
42944,note_off,,,,,128,0,11,,,,,3,,,81,100
42976,note_off,,,,,64,0,14,,,,,6,,,38,100
42976,note_off,,,,,64,0,12,,,,,4,,,70,100
42976,note_off,,,,,0,0,12,,,,,4,,,66,100
42976,note_off,,,,,64,0,13,,,,,5,,,50,100
43008,note_on,,,,,32,0,14,,,,,6,,,39,64
43008,note_on,,,,,32,0,12,,,,,4,,,70,64
43008,note_on,,,,,0,0,12,,,,,4,,,67,64
43008,note_on,,,,,64,0,11,,,,,3,,,79,24
43008,note_on,,,,,64,0,10,,,,,2,,,79,74
43008,note_on,,,,,128,0,15,,,,,7,,,67,100
43008,note_on,,,,,0,0,15,,,,,7,,,70,100
43008,note_on,,,,,32,0,13,,,,,5,,,51,64
43008,note_on,,,,,64,0,16,,,,,7,,,51,100
43072,note_off,,,,,0,0,12,,,,,4,,,67,100
43072,note_off,,,,,64,0,14,,,,,6,,,39,100
43072,note_off,,,,,64,0,13,,,,,5,,,51,100
43072,note_off,,,,,64,0,12,,,,,4,,,70,100
43104,note_on,,,,,32,0,13,,,,,5,,,51,64
43104,note_on,,,,,32,0,12,,,,,4,,,70,64
43104,note_on,,,,,0,0,12,,,,,4,,,67,64
43104,note_on,,,,,32,0,14,,,,,6,,,39,64
43136,note_off,,,,,128,0,11,,,,,3,,,79,100
43136,note_off,,,,,128,0,10,,,,,2,,,79,100
43136,note_off,,,,,128,0,15,,,,,7,,,67,100
43136,note_off,,,,,0,0,15,,,,,7,,,70,100
43136,note_off,,,,,128,0,16,,,,,7,,,51,100
43168,note_off,,,,,0,0,12,,,,,4,,,67,100
43168,note_off,,,,,64,0,12,,,,,4,,,70,100
43168,note_off,,,,,64,0,14,,,,,6,,,39,100
43168,note_off,,,,,64,0,13,,,,,5,,,51,100
43200,note_on,,,,,64,0,10,,,,,2,,,84,75
43200,note_on,,,,,64,0,16,,,,,7,,,51,100
43200,note_on,,,,,32,0,14,,,,,6,,,39,65
43200,note_on,,,,,0,0,15,,,,,7,,,72,100
43200,note_on,,,,,32,0,13,,,,,5,,,51,65
43200,note_on,,,,,32,0,12,,,,,4,,,67,65
43200,note_on,,,,,64,0,15,,,,,7,,,67,100
43200,note_on,,,,,64,0,11,,,,,3,,,84,25
43264,note_off,,,,,64,0,12,,,,,4,,,67,100
43264,note_off,,,,,64,0,13,,,,,5,,,51,100
43264,note_off,,,,,64,0,14,,,,,6,,,39,100
43296,note_on,,,,,32,0,14,,,,,6,,,39,65
43296,note_on,,,,,32,0,12,,,,,4,,,67,65
43296,note_on,,,,,32,0,13,,,,,5,,,51,65
43328,note_off,,,,,0,0,15,,,,,7,,,72,100
43328,note_off,,,,,128,0,15,,,,,7,,,67,100
43328,note_off,,,,,128,0,16,,,,,7,,,51,100
43360,note_off,,,,,64,0,13,,,,,5,,,51,100
43360,note_off,,,,,64,0,14,,,,,6,,,39,100
43360,note_off,,,,,64,0,12,,,,,4,,,67,100
43392,note_on,,,,,32,0,13,,,,,5,,,52,66
43392,note_on,,,,,64,0,16,,,,,7,,,52,100
43392,note_on,,,,,32,0,14,,,,,6,,,40,66
43392,note_on,,,,,32,0,12,,,,,4,,,67,66
43392,note_on,,,,,64,0,15,,,,,7,,,72,100
43392,note_on,,,,,0,0,15,,,,,7,,,70,100
43456,note_off,,,,,64,0,13,,,,,5,,,52,100
43456,note_off,,,,,256,0,10,,,,,2,,,84,100
43456,note_off,,,,,64,0,14,,,,,6,,,40,100
43456,note_off,,,,,256,0,11,,,,,3,,,84,100
43456,note_off,,,,,64,0,12,,,,,4,,,67,100
43488,note_on,,,,,32,0,13,,,,,5,,,52,67
43488,note_on,,,,,32,0,14,,,,,6,,,40,67
43488,note_on,,,,,32,0,12,,,,,4,,,67,67
43520,note_off,,,,,128,0,16,,,,,7,,,52,100
43552,note_off,,,,,64,0,14,,,,,6,,,40,100
43552,note_off,,,,,64,0,12,,,,,4,,,67,100
43552,note_off,,,,,64,0,13,,,,,5,,,52,100
43584,note_on,,,,,64,0,16,,,,,7,,,52,100
43584,note_on,,,,,128,0,10,,,,,2,,,82,77
43584,note_on,,,,,32,0,13,,,,,5,,,52,67
43584,note_on,,,,,0,0,12,,,,,4,,,67,67
43584,note_on,,,,,32,0,14,,,,,6,,,40,67
43584,note_on,,,,,32,0,12,,,,,4,,,72,67
43584,note_on,,,,,128,0,11,,,,,3,,,82,27
43648,note_off,,,,,256,0,15,,,,,7,,,72,100
43648,note_off,,,,,64,0,14,,,,,6,,,40,100
43648,note_off,,,,,64,0,13,,,,,5,,,52,100
43648,note_off,,,,,0,0,15,,,,,7,,,70,100
43648,note_off,,,,,64,0,12,,,,,4,,,72,100
43648,note_off,,,,,0,0,12,,,,,4,,,67,100
43680,note_on,,,,,0,0,12,,,,,4,,,67,68
43680,note_on,,,,,32,0,14,,,,,6,,,40,68
43680,note_on,,,,,32,0,13,,,,,5,,,52,68
43680,note_on,,,,,32,0,12,,,,,4,,,72,68
43712,note_off,,,,,128,0,10,,,,,2,,,82,100
43712,note_off,,,,,128,0,16,,,,,7,,,52,100
43712,note_off,,,,,128,0,11,,,,,3,,,82,100
43744,note_off,,,,,64,0,13,,,,,5,,,52,100
43744,note_off,,,,,64,0,14,,,,,6,,,40,100
43744,note_off,,,,,64,0,12,,,,,4,,,72,100
43744,note_off,,,,,0,0,12,,,,,4,,,67,100
43776,note_on,,,,,64,0,10,,,,,2,,,81,78
43776,note_on,,,,,64,0,11,,,,,3,,,81,28
43776,note_on,,,,,64,0,16,,,,,7,,,53,100
43776,note_on,,,,,32,0,13,,,,,5,,,53,68
43776,note_on,,,,,0,0,15,,,,,7,,,72,100
43776,note_on,,,,,0,0,12,,,,,4,,,69,68
43776,note_on,,,,,128,0,15,,,,,7,,,69,100
43776,note_on,,,,,32,0,12,,,,,4,,,72,68
43776,note_on,,,,,32,0,14,,,,,6,,,41,68
43840,note_off,,,,,64,0,12,,,,,4,,,72,100
43840,note_off,,,,,0,0,12,,,,,4,,,69,100
43840,note_off,,,,,64,0,13,,,,,5,,,53,100
43840,note_off,,,,,64,0,14,,,,,6,,,41,100
43872,note_on,,,,,32,0,13,,,,,5,,,53,69
43872,note_on,,,,,32,0,12,,,,,4,,,72,69
43872,note_on,,,,,32,0,14,,,,,6,,,41,69
43872,note_on,,,,,0,0,12,,,,,4,,,69,69
43904,note_off,,,,,128,0,10,,,,,2,,,81,100
43904,note_off,,,,,0,0,15,,,,,7,,,72,100
43904,note_off,,,,,128,0,15,,,,,7,,,69,100
43904,note_off,,,,,128,0,11,,,,,3,,,81,100
43904,note_off,,,,,128,0,16,,,,,7,,,53,100
43936,note_off,,,,,64,0,12,,,,,4,,,72,100
43936,note_off,,,,,64,0,13,,,,,5,,,53,100
43936,note_off,,,,,64,0,14,,,,,6,,,41,100
43936,note_off,,,,,0,0,12,,,,,4,,,69,100
43968,note_on,,,,,32,0,12,,,,,4,,,69,70
43968,note_on,,,,,64,0,10,,,,,2,,,86,80
43968,note_on,,,,,64,0,16,,,,,7,,,53,100
43968,note_on,,,,,0,0,15,,,,,7,,,74,100
43968,note_on,,,,,64,0,15,,,,,7,,,69,100
43968,note_on,,,,,64,0,11,,,,,3,,,86,30
43968,note_on,,,,,32,0,14,,,,,6,,,41,70
43968,note_on,,,,,32,0,13,,,,,5,,,53,70
44032,note_off,,,,,64,0,13,,,,,5,,,53,100
44032,note_off,,,,,64,0,14,,,,,6,,,41,100
44032,note_off,,,,,64,0,12,,,,,4,,,69,100
44064,note_on,,,,,32,0,13,,,,,5,,,53,69
44064,note_on,,,,,32,0,14,,,,,6,,,41,69
44064,note_on,,,,,32,0,12,,,,,4,,,69,69
44096,note_off,,,,,128,0,16,,,,,7,,,53,100
44096,note_off,,,,,0,0,15,,,,,7,,,74,100
44096,note_off,,,,,128,0,15,,,,,7,,,69,100
44128,note_off,,,,,64,0,12,,,,,4,,,69,100
44128,note_off,,,,,64,0,14,,,,,6,,,41,100
44128,note_off,,,,,64,0,13,,,,,5,,,53,100
44160,note_on,,,,,64,0,15,,,,,7,,,72,100
44160,note_on,,,,,32,0,14,,,,,6,,,42,67
44160,note_on,,,,,0,0,15,,,,,7,,,74,100
44160,note_on,,,,,32,0,13,,,,,5,,,54,67
44160,note_on,,,,,32,0,12,,,,,4,,,69,67
44160,note_on,,,,,64,0,16,,,,,7,,,54,100
44224,note_off,,,,,64,0,14,,,,,6,,,42,100
44224,note_off,,,,,256,0,10,,,,,2,,,86,100
44224,note_off,,,,,64,0,13,,,,,5,,,54,100
44224,note_off,,,,,256,0,11,,,,,3,,,86,100
44224,note_off,,,,,64,0,12,,,,,4,,,69,100
44256,note_on,,,,,32,0,13,,,,,5,,,54,66
44256,note_on,,,,,32,0,12,,,,,4,,,69,66
44256,note_on,,,,,32,0,14,,,,,6,,,42,66
44288,note_off,,,,,128,0,16,,,,,7,,,54,100
44320,note_off,,,,,64,0,13,,,,,5,,,54,100
44320,note_off,,,,,64,0,14,,,,,6,,,42,100
44320,note_off,,,,,64,0,12,,,,,4,,,69,100
44352,note_on,,,,,32,0,13,,,,,5,,,54,64
44352,note_on,,,,,32,0,12,,,,,4,,,74,64
44352,note_on,,,,,32,0,14,,,,,6,,,42,64
44352,note_on,,,,,128,0,11,,,,,3,,,84,24
44352,note_on,,,,,128,0,10,,,,,2,,,84,74
44352,note_on,,,,,0,0,12,,,,,4,,,69,64
44352,note_on,,,,,64,0,16,,,,,7,,,54,100
44416,note_off,,,,,0,0,12,,,,,4,,,69,100
44416,note_off,,,,,64,0,12,,,,,4,,,74,100
44416,note_off,,,,,64,0,13,,,,,5,,,54,100
44416,note_off,,,,,64,0,14,,,,,6,,,42,100
44448,note_on,,,,,32,0,12,,,,,4,,,74,62
44448,note_on,,,,,32,0,14,,,,,6,,,42,62
44448,note_on,,,,,32,0,13,,,,,5,,,54,62
44448,note_on,,,,,0,0,12,,,,,4,,,69,62
44480,note_off,,,,,128,0,10,,,,,2,,,84,100
44480,note_off,,,,,128,0,16,,,,,7,,,54,100
44480,note_off,,,,,128,0,11,,,,,3,,,84,100
44512,note_off,,,,,0,0,12,,,,,4,,,69,100
44512,note_off,,,,,64,0,12,,,,,4,,,74,100
44512,note_off,,,,,64,0,14,,,,,6,,,42,100
44512,note_off,,,,,64,0,13,,,,,5,,,54,100
44544,note_on,,,,,32,0,12,,,,,4,,,74,60
44544,note_on,,,,,64,0,16,,,,,7,,,55,100
44544,note_off,,,,,384,0,15,,,,,7,,,72,100
44544,note_on,,,,,0,0,12,,,,,4,,,62,60
44544,note_on,,,,,32,0,14,,,,,6,,,43,60
44544,note_on,,,,,64,0,11,,,,,3,,,82,20
44544,note_on,,,,,64,0,10,,,,,2,,,82,70
44544,note_off,,,,,0,0,15,,,,,7,,,74,100
44544,note_on,,,,,32,0,13,,,,,5,,,55,60
44608,note_off,,,,,64,0,14,,,,,6,,,43,100
44608,note_off,,,,,64,0,12,,,,,4,,,74,100
44608,note_off,,,,,64,0,13,,,,,5,,,55,100
44608,note_off,,,,,0,0,12,,,,,4,,,62,100
44640,note_on,,,,,32,0,14,,,,,6,,,43,60
44640,note_on,,,,,32,0,12,,,,,4,,,74,60
44640,note_on,,,,,32,0,13,,,,,5,,,55,60
44640,note_on,,,,,0,0,12,,,,,4,,,62,60
44672,note_off,,,,,128,0,16,,,,,7,,,55,100
44672,note_off,,,,,128,0,10,,,,,2,,,82,100
44672,note_off,,,,,128,0,11,,,,,3,,,82,100
44704,note_off,,,,,64,0,13,,,,,5,,,55,100
44704,note_off,,,,,64,0,12,,,,,4,,,74,100
44704,note_off,,,,,0,0,12,,,,,4,,,62,100
44704,note_off,,,,,64,0,14,,,,,6,,,43,100
44736,note_on,,,,,64,0,10,,,,,2,,,79,71
44736,note_on,,,,,32,0,12,,,,,4,,,70,61
44736,note_on,,,,,64,0,11,,,,,3,,,79,21
44736,note_on,,,,,0,0,12,,,,,4,,,62,61
44736,note_on,,,,,32,0,14,,,,,6,,,46,61
44736,note_on,,,,,64,0,16,,,,,7,,,46,100
44736,note_on,,,,,192,0,15,,,,,7,,,67,100
44736,note_on,,,,,32,0,13,,,,,5,,,46,61
44736,note_on,,,,,0,0,15,,,,,7,,,62,100
44800,note_off,,,,,64,0,14,,,,,6,,,46,100
44800,note_off,,,,,64,0,13,,,,,5,,,46,100
44800,note_off,,,,,0,0,12,,,,,4,,,62,100
44800,note_off,,,,,64,0,12,,,,,4,,,70,100
44832,note_on,,,,,32,0,13,,,,,5,,,46,61
44832,note_on,,,,,32,0,12,,,,,4,,,70,61
44832,note_on,,,,,32,0,14,,,,,6,,,46,61
44832,note_on,,,,,0,0,12,,,,,4,,,62,61
44864,note_off,,,,,0,0,15,,,,,7,,,62,100
44864,note_off,,,,,128,0,15,,,,,7,,,67,100
44864,note_off,,,,,128,0,16,,,,,7,,,46,100
44896,note_off,,,,,64,0,12,,,,,4,,,70,100
44896,note_off,,,,,64,0,13,,,,,5,,,46,100
44896,note_off,,,,,0,0,12,,,,,4,,,62,100
44896,note_off,,,,,64,0,14,,,,,6,,,46,100
44928,note_on,,,,,0,0,15,,,,,7,,,69,100
44928,note_on,,,,,32,0,14,,,,,6,,,48,62
44928,note_on,,,,,0,0,12,,,,,4,,,63,62
44928,note_on,,,,,32,0,12,,,,,4,,,69,62
44928,note_on,,,,,64,0,16,,,,,7,,,48,100
44928,note_on,,,,,0,0,15,,,,,7,,,67,100
44928,note_on,,,,,32,0,13,,,,,5,,,48,62
44928,note_on,,,,,64,0,15,,,,,7,,,63,100
44992,note_off,,,,,256,0,10,,,,,2,,,79,100
44992,note_off,,,,,64,0,12,,,,,4,,,69,100
44992,note_off,,,,,0,0,12,,,,,4,,,63,100
44992,note_off,,,,,64,0,14,,,,,6,,,48,100
44992,note_off,,,,,64,0,13,,,,,5,,,48,100
44992,note_off,,,,,256,0,11,,,,,3,,,79,100
45024,note_on,,,,,32,0,14,,,,,6,,,48,63
45024,note_on,,,,,32,0,13,,,,,5,,,48,63
45024,note_on,,,,,0,0,12,,,,,4,,,63,63
45024,note_on,,,,,32,0,12,,,,,4,,,69,63
45056,note_off,,,,,0,0,15,,,,,7,,,69,100
45056,note_off,,,,,0,0,15,,,,,7,,,67,100
45056,note_off,,,,,128,0,15,,,,,7,,,63,100
45056,note_off,,,,,128,0,16,,,,,7,,,48,100
45088,note_off,,,,,0,0,12,,,,,4,,,63,100
45088,note_off,,,,,64,0,14,,,,,6,,,48,100
45088,note_off,,,,,64,0,12,,,,,4,,,69,100
45088,note_off,,,,,64,0,13,,,,,5,,,48,100
45120,note_on,,,,,0,0,12,,,,,4,,,62,63
45120,note_on,,,,,32,0,12,,,,,4,,,69,63
45120,note_on,,,,,0,0,15,,,,,7,,,66,100
45120,note_on,,,,,32,0,13,,,,,5,,,50,63
45120,note_on,,,,,64,0,15,,,,,7,,,69,100
45120,note_on,,,,,32,0,14,,,,,6,,,50,63
45120,note_on,,,,,128,0,10,,,,,2,,,78,73
45120,note_on,,,,,128,0,11,,,,,3,,,78,23
45120,note_on,,,,,64,0,16,,,,,7,,,50,100
45184,note_off,,,,,64,0,12,,,,,4,,,69,100
45184,note_off,,,,,64,0,13,,,,,5,,,50,100
45184,note_off,,,,,0,0,12,,,,,4,,,62,100
45184,note_off,,,,,64,0,14,,,,,6,,,50,100
45216,note_on,,,,,32,0,13,,,,,5,,,50,64
45216,note_on,,,,,32,0,14,,,,,6,,,50,64
45216,note_on,,,,,0,0,12,,,,,4,,,62,64
45216,note_on,,,,,32,0,12,,,,,4,,,69,64
45248,note_off,,,,,128,0,11,,,,,3,,,78,100
45248,note_off,,,,,128,0,15,,,,,7,,,69,100
45248,note_off,,,,,0,0,15,,,,,7,,,66,100
45248,note_off,,,,,128,0,10,,,,,2,,,78,100
45248,note_off,,,,,128,0,16,,,,,7,,,50,100
45280,note_off,,,,,64,0,14,,,,,6,,,50,100
45280,note_off,,,,,64,0,13,,,,,5,,,50,100
45280,note_off,,,,,0,0,12,,,,,4,,,62,100
45280,note_off,,,,,64,0,12,,,,,4,,,69,100
45312,note_on,,,,,32,0,12,,,,,4,,,70,64
45312,note_on,,,,,0,0,12,,,,,4,,,62,64
45312,note_on,,,,,64,0,11,,,,,3,,,79,24
45312,note_on,,,,,0,0,15,,,,,7,,,67,100
45312,note_on,,,,,64,0,15,,,,,7,,,58,100
45312,note_on,,,,,0,0,15,,,,,7,,,62,100
45312,note_on,,,,,32,0,14,,,,,6,,,43,64
45312,note_on,,,,,64,0,10,,,,,2,,,79,74
45312,note_on,,,,,32,0,13,,,,,5,,,43,64
45312,note_on,,,,,64,0,16,,,,,7,,,43,100
45376,note_off,,,,,64,0,10,,,,,2,,,79,100
45376,note_off,,,,,64,0,12,,,,,4,,,70,100
45376,note_off,,,,,0,0,12,,,,,4,,,62,100
45376,note_off,,,,,64,0,11,,,,,3,,,79,100
45408,note_on,,,,,32,0,11,,,,,3,,,70,20
45408,note_on,,,,,32,0,10,,,,,2,,,70,70
45408,note_on,,,,,32,0,12,,,,,4,,,70,60
45408,note_on,,,,,0,0,12,,,,,4,,,62,60
45440,note_off,,,,,128,0,15,,,,,7,,,58,100
45440,note_off,,,,,0,0,15,,,,,7,,,62,100
45440,note_off,,,,,0,0,15,,,,,7,,,67,100
45440,note_off,,,,,128,0,14,,,,,6,,,43,100
45440,note_off,,,,,128,0,13,,,,,5,,,43,100
45440,note_off,,,,,128,0,16,,,,,7,,,43,100
45472,note_off,,,,,64,0,12,,,,,4,,,70,100
45472,note_off,,,,,0,0,12,,,,,4,,,62,100
45472,note_off,,,,,64,0,10,,,,,2,,,70,100
45472,note_off,,,,,64,0,11,,,,,3,,,70,100
45504,note_on,,,,,32,0,12,,,,,4,,,62,60
45504,note_on,,,,,32,0,11,,,,,3,,,70,20
45504,note_on,,,,,0,0,15,,,,,7,,,70,100
45504,note_on,,,,,64,0,15,,,,,7,,,74,100
45504,note_on,,,,,64,0,14,,,,,6,,,43,60
45504,note_on,,,,,64,0,16,,,,,7,,,55,100
45504,note_on,,,,,32,0,10,,,,,2,,,70,70
45504,note_on,,,,,64,0,13,,,,,5,,,55,60
45568,note_off,,,,,64,0,10,,,,,2,,,70,100
45568,note_off,,,,,64,0,12,,,,,4,,,62,100
45568,note_off,,,,,64,0,11,,,,,3,,,70,100
45600,note_on,,,,,32,0,10,,,,,2,,,70,71
45600,note_on,,,,,32,0,11,,,,,3,,,70,21
45600,note_on,,,,,32,0,12,,,,,4,,,62,61
45632,note_off,,,,,128,0,15,,,,,7,,,74,100
45632,note_off,,,,,0,0,15,,,,,7,,,70,100
45664,note_off,,,,,64,0,12,,,,,4,,,62,100
45664,note_off,,,,,64,0,11,,,,,3,,,70,100
45664,note_off,,,,,64,0,10,,,,,2,,,70,100
45696,note_on,,,,,32,0,12,,,,,4,,,62,61
45696,note_on,,,,,0,0,15,,,,,7,,,74,100
45696,note_on,,,,,64,0,15,,,,,7,,,71,100
45696,note_on,,,,,32,0,11,,,,,3,,,71,21
45696,note_on,,,,,32,0,10,,,,,2,,,71,71
45760,note_off,,,,,256,0,13,,,,,5,,,55,100
45760,note_off,,,,,256,0,14,,,,,6,,,43,100
45760,note_off,,,,,64,0,11,,,,,3,,,71,100
45760,note_off,,,,,256,0,16,,,,,7,,,55,100
45760,note_off,,,,,64,0,10,,,,,2,,,71,100
45760,note_off,,,,,64,0,12,,,,,4,,,62,100
45792,note_on,,,,,32,0,11,,,,,3,,,71,22
45792,note_on,,,,,32,0,10,,,,,2,,,71,72
45792,note_on,,,,,32,0,12,,,,,4,,,62,62
45824,note_off,,,,,128,0,15,,,,,7,,,71,100
45824,note_off,,,,,0,0,15,,,,,7,,,74,100
45856,note_off,,,,,64,0,12,,,,,4,,,62,100
45856,note_off,,,,,64,0,11,,,,,3,,,71,100
45856,note_off,,,,,64,0,10,,,,,2,,,71,100
45888,note_on,,,,,128,0,14,,,,,6,,,42,62
45888,note_on,,,,,0,0,15,,,,,7,,,67,100
45888,note_on,,,,,32,0,11,,,,,3,,,71,22
45888,note_on,,,,,128,0,16,,,,,7,,,54,100
45888,note_on,,,,,32,0,10,,,,,2,,,71,72
45888,note_on,,,,,64,0,15,,,,,7,,,71,100
45888,note_on,,,,,128,0,13,,,,,5,,,54,62
45888,note_on,,,,,0,0,12,,,,,4,,,62,62
45888,note_on,,,,,32,0,12,,,,,4,,,67,62
45952,note_off,,,,,0,0,12,,,,,4,,,62,100
45952,note_off,,,,,64,0,10,,,,,2,,,71,100
45952,note_off,,,,,64,0,12,,,,,4,,,67,100
45952,note_off,,,,,64,0,11,,,,,3,,,71,100
45984,note_on,,,,,0,0,12,,,,,4,,,62,63
45984,note_on,,,,,32,0,12,,,,,4,,,67,63
45984,note_on,,,,,32,0,10,,,,,2,,,71,73
45984,note_on,,,,,32,0,11,,,,,3,,,71,23
46016,note_off,,,,,128,0,16,,,,,7,,,54,100
46016,note_off,,,,,128,0,14,,,,,6,,,42,100
46016,note_off,,,,,0,0,15,,,,,7,,,67,100
46016,note_off,,,,,128,0,13,,,,,5,,,54,100
46016,note_off,,,,,128,0,15,,,,,7,,,71,100
46048,note_off,,,,,0,0,12,,,,,4,,,62,100
46048,note_off,,,,,64,0,11,,,,,3,,,71,100
46048,note_off,,,,,64,0,10,,,,,2,,,71,100
46048,note_off,,,,,64,0,12,,,,,4,,,67,100
46080,note_on,,,,,64,0,13,,,,,5,,,52,63
46080,note_on,,,,,32,0,10,,,,,2,,,72,73
46080,note_on,,,,,32,0,11,,,,,3,,,72,23
46080,note_on,,,,,64,0,15,,,,,7,,,72,100
46080,note_on,,,,,0,0,15,,,,,7,,,67,100
46080,note_on,,,,,0,0,12,,,,,4,,,64,63
46080,note_on,,,,,32,0,12,,,,,4,,,67,63
46080,note_on,,,,,64,0,16,,,,,7,,,52,100
46080,note_on,,,,,64,0,14,,,,,6,,,40,63
46144,note_off,,,,,64,0,11,,,,,3,,,72,100
46144,note_off,,,,,64,0,12,,,,,4,,,67,100
46144,note_off,,,,,64,0,10,,,,,2,,,72,100
46144,note_off,,,,,0,0,12,,,,,4,,,64,100
46176,note_on,,,,,32,0,12,,,,,4,,,67,64
46176,note_on,,,,,0,0,12,,,,,4,,,64,64
46176,note_on,,,,,32,0,10,,,,,2,,,72,74
46176,note_on,,,,,32,0,11,,,,,3,,,72,24
46208,note_off,,,,,128,0,16,,,,,7,,,52,100
46208,note_off,,,,,128,0,13,,,,,5,,,52,100
46208,note_off,,,,,128,0,14,,,,,6,,,40,100
46208,note_off,,,,,0,0,15,,,,,7,,,67,100
46208,note_off,,,,,128,0,15,,,,,7,,,72,100
46240,note_off,,,,,64,0,11,,,,,3,,,72,100
46240,note_off,,,,,64,0,10,,,,,2,,,72,100
46240,note_off,,,,,64,0,12,,,,,4,,,67,100
46240,note_off,,,,,0,0,12,,,,,4,,,64,100
46272,note_on,,,,,64,0,15,,,,,7,,,69,100
46272,note_on,,,,,64,0,13,,,,,5,,,57,64
46272,note_on,,,,,64,0,16,,,,,7,,,57,100
46272,note_on,,,,,32,0,11,,,,,3,,,72,24
46272,note_on,,,,,32,0,10,,,,,2,,,72,74
46272,note_on,,,,,64,0,14,,,,,6,,,45,64
46272,note_on,,,,,0,0,15,,,,,7,,,72,100
46272,note_on,,,,,32,0,12,,,,,4,,,64,64
46336,note_off,,,,,64,0,10,,,,,2,,,72,100
46336,note_off,,,,,64,0,11,,,,,3,,,72,100
46336,note_off,,,,,64,0,12,,,,,4,,,64,100
46368,note_on,,,,,32,0,11,,,,,3,,,72,25
46368,note_on,,,,,32,0,12,,,,,4,,,64,65
46368,note_on,,,,,32,0,10,,,,,2,,,72,75
46400,note_off,,,,,0,0,15,,,,,7,,,72,100
46400,note_off,,,,,128,0,15,,,,,7,,,69,100
46432,note_off,,,,,64,0,11,,,,,3,,,72,100
46432,note_off,,,,,64,0,12,,,,,4,,,64,100
46432,note_off,,,,,64,0,10,,,,,2,,,72,100
46464,note_on,,,,,32,0,11,,,,,3,,,73,25
46464,note_on,,,,,32,0,12,,,,,4,,,64,65
46464,note_on,,,,,64,0,15,,,,,7,,,69,100
46464,note_on,,,,,0,0,15,,,,,7,,,73,100
46464,note_on,,,,,32,0,10,,,,,2,,,73,75
46528,note_off,,,,,256,0,13,,,,,5,,,57,100
46528,note_off,,,,,64,0,11,,,,,3,,,73,100
46528,note_off,,,,,256,0,14,,,,,6,,,45,100
46528,note_off,,,,,64,0,12,,,,,4,,,64,100
46528,note_off,,,,,256,0,16,,,,,7,,,57,100
46528,note_off,,,,,64,0,10,,,,,2,,,73,100
46560,note_on,,,,,32,0,11,,,,,3,,,73,26
46560,note_on,,,,,32,0,10,,,,,2,,,73,76
46560,note_on,,,,,32,0,12,,,,,4,,,64,66
46592,note_off,,,,,0,0,15,,,,,7,,,73,100
46592,note_off,,,,,128,0,15,,,,,7,,,69,100
46624,note_off,,,,,64,0,11,,,,,3,,,73,100
46624,note_off,,,,,64,0,10,,,,,2,,,73,100
46624,note_off,,,,,64,0,12,,,,,4,,,64,100
46656,note_on,,,,,32,0,10,,,,,2,,,73,76
46656,note_on,,,,,32,0,11,,,,,3,,,73,26
46656,note_on,,,,,64,0,15,,,,,7,,,73,100
46656,note_on,,,,,0,0,15,,,,,7,,,69,100
46656,note_on,,,,,128,0,13,,,,,5,,,55,66
46656,note_on,,,,,128,0,14,,,,,6,,,43,66
46656,note_on,,,,,0,0,12,,,,,4,,,64,66
46656,note_on,,,,,32,0,12,,,,,4,,,69,66
46656,note_on,,,,,128,0,16,,,,,7,,,55,100
46720,note_off,,,,,64,0,12,,,,,4,,,69,100
46720,note_off,,,,,64,0,11,,,,,3,,,73,100
46720,note_off,,,,,64,0,10,,,,,2,,,73,100
46720,note_off,,,,,0,0,12,,,,,4,,,64,100
46752,note_on,,,,,0,0,12,,,,,4,,,64,67
46752,note_on,,,,,32,0,12,,,,,4,,,69,67
46752,note_on,,,,,32,0,11,,,,,3,,,73,27
46752,note_on,,,,,32,0,10,,,,,2,,,73,77
46784,note_off,,,,,128,0,15,,,,,7,,,73,100
46784,note_off,,,,,128,0,16,,,,,7,,,55,100
46784,note_off,,,,,0,0,15,,,,,7,,,69,100
46784,note_off,,,,,128,0,14,,,,,6,,,43,100
46784,note_off,,,,,128,0,13,,,,,5,,,55,100
46816,note_off,,,,,0,0,12,,,,,4,,,64,100
46816,note_off,,,,,64,0,11,,,,,3,,,73,100
46816,note_off,,,,,64,0,12,,,,,4,,,69,100
46816,note_off,,,,,64,0,10,,,,,2,,,73,100
46848,note_on,,,,,0,0,15,,,,,7,,,69,100
46848,note_on,,,,,64,0,15,,,,,7,,,74,100
46848,note_on,,,,,32,0,10,,,,,2,,,74,77
46848,note_on,,,,,64,0,14,,,,,6,,,41,67
46848,note_on,,,,,32,0,11,,,,,3,,,74,27
46848,note_on,,,,,64,0,13,,,,,5,,,53,67
46848,note_on,,,,,64,0,16,,,,,7,,,53,100
46848,note_on,,,,,32,0,12,,,,,4,,,69,67
46848,note_on,,,,,0,0,12,,,,,4,,,65,67
46912,note_off,,,,,64,0,11,,,,,3,,,74,100
46912,note_off,,,,,64,0,10,,,,,2,,,74,100
46912,note_off,,,,,64,0,12,,,,,4,,,69,100
46912,note_off,,,,,0,0,12,,,,,4,,,65,100
46944,note_on,,,,,0,0,12,,,,,4,,,65,68
46944,note_on,,,,,32,0,11,,,,,3,,,74,28
46944,note_on,,,,,32,0,10,,,,,2,,,74,78
46944,note_on,,,,,32,0,12,,,,,4,,,69,68
46976,note_off,,,,,128,0,14,,,,,6,,,41,100
46976,note_off,,,,,128,0,16,,,,,7,,,53,100
46976,note_off,,,,,128,0,15,,,,,7,,,74,100
46976,note_off,,,,,0,0,15,,,,,7,,,69,100
46976,note_off,,,,,128,0,13,,,,,5,,,53,100
47008,note_off,,,,,0,0,12,,,,,4,,,65,100
47008,note_off,,,,,64,0,12,,,,,4,,,69,100
47008,note_off,,,,,64,0,10,,,,,2,,,74,100
47008,note_off,,,,,64,0,11,,,,,3,,,74,100
47040,note_on,,,,,32,0,11,,,,,3,,,74,28
47040,note_on,,,,,32,0,10,,,,,2,,,74,78
47040,note_on,,,,,64,0,14,,,,,6,,,46,68
47040,note_on,,,,,64,0,15,,,,,7,,,65,100
47040,note_on,,,,,64,0,16,,,,,7,,,58,100
47040,note_on,,,,,0,0,15,,,,,7,,,74,100
47040,note_on,,,,,64,0,13,,,,,5,,,58,68
47040,note_on,,,,,32,0,12,,,,,4,,,65,68
47104,note_off,,,,,64,0,10,,,,,2,,,74,100
47104,note_off,,,,,64,0,12,,,,,4,,,65,100
47104,note_off,,,,,64,0,11,,,,,3,,,74,100
47136,note_on,,,,,32,0,10,,,,,2,,,74,79
47136,note_on,,,,,32,0,12,,,,,4,,,65,69
47136,note_on,,,,,32,0,11,,,,,3,,,74,29
47168,note_off,,,,,128,0,15,,,,,7,,,65,100
47168,note_off,,,,,0,0,15,,,,,7,,,74,100
47200,note_off,,,,,64,0,11,,,,,3,,,74,100
47200,note_off,,,,,64,0,10,,,,,2,,,74,100
47200,note_off,,,,,64,0,12,,,,,4,,,65,100
47232,note_on,,,,,32,0,10,,,,,2,,,74,79
47232,note_on,,,,,32,0,12,,,,,4,,,65,69
47232,note_on,,,,,0,0,15,,,,,7,,,74,100
47232,note_on,,,,,32,0,11,,,,,3,,,74,29
47232,note_on,,,,,64,0,15,,,,,7,,,65,100
47296,note_off,,,,,256,0,16,,,,,7,,,58,100
47296,note_off,,,,,256,0,14,,,,,6,,,46,100
47296,note_off,,,,,64,0,12,,,,,4,,,65,100
47296,note_off,,,,,64,0,11,,,,,3,,,74,100
47296,note_off,,,,,64,0,10,,,,,2,,,74,100
47296,note_off,,,,,256,0,13,,,,,5,,,58,100
47328,note_on,,,,,32,0,10,,,,,2,,,74,80
47328,note_on,,,,,32,0,12,,,,,4,,,65,70
47328,note_on,,,,,32,0,11,,,,,3,,,74,30
47360,note_off,,,,,128,0,15,,,,,7,,,65,100
47360,note_off,,,,,0,0,15,,,,,7,,,74,100
47392,note_off,,,,,64,0,11,,,,,3,,,74,100
47392,note_off,,,,,64,0,10,,,,,2,,,74,100
47392,note_off,,,,,64,0,12,,,,,4,,,65,100
47424,note_on,,,,,32,0,11,,,,,3,,,74,30
47424,note_on,,,,,128,0,13,,,,,5,,,57,70
47424,note_on,,,,,0,0,12,,,,,4,,,65,70
47424,note_on,,,,,32,0,12,,,,,4,,,70,70
47424,note_on,,,,,64,0,15,,,,,7,,,74,100
47424,note_on,,,,,0,0,15,,,,,7,,,70,100
47424,note_on,,,,,32,0,10,,,,,2,,,74,80
47424,note_on,,,,,128,0,16,,,,,7,,,57,100
47424,note_on,,,,,128,0,14,,,,,6,,,45,70
47424,note_on,,,,,0,0,15,,,,,7,,,67,100
47488,note_off,,,,,64,0,11,,,,,3,,,74,100
47488,note_off,,,,,64,0,10,,,,,2,,,74,100
47488,note_off,,,,,64,0,12,,,,,4,,,70,100
47488,note_off,,,,,0,0,12,,,,,4,,,65,100
47520,note_on,,,,,32,0,12,,,,,4,,,70,71
47520,note_on,,,,,32,0,10,,,,,2,,,74,81
47520,note_on,,,,,32,0,11,,,,,3,,,74,31
47520,note_on,,,,,0,0,12,,,,,4,,,65,71
47552,note_off,,,,,128,0,13,,,,,5,,,57,100
47552,note_off,,,,,128,0,15,,,,,7,,,74,100
47552,note_off,,,,,128,0,14,,,,,6,,,45,100
47552,note_off,,,,,128,0,16,,,,,7,,,57,100
47552,note_off,,,,,0,0,15,,,,,7,,,67,100
47552,note_off,,,,,0,0,15,,,,,7,,,70,100
47584,note_off,,,,,64,0,12,,,,,4,,,70,100
47584,note_off,,,,,0,0,12,,,,,4,,,65,100
47584,note_off,,,,,64,0,11,,,,,3,,,74,100
47584,note_off,,,,,64,0,10,,,,,2,,,74,100
47616,note_on,,,,,32,0,12,,,,,4,,,70,71
47616,note_on,,,,,0,0,12,,,,,4,,,67,71
47616,note_on,,,,,64,0,13,,,,,5,,,55,71
47616,note_on,,,,,64,0,15,,,,,7,,,75,100
47616,note_on,,,,,0,0,15,,,,,7,,,70,100
47616,note_on,,,,,32,0,11,,,,,3,,,75,31
47616,note_on,,,,,32,0,10,,,,,2,,,75,81
47616,note_on,,,,,64,0,14,,,,,6,,,43,71
47616,note_on,,,,,64,0,16,,,,,7,,,55,100
47680,note_off,,,,,64,0,11,,,,,3,,,75,100
47680,note_off,,,,,64,0,10,,,,,2,,,75,100
47680,note_off,,,,,64,0,12,,,,,4,,,70,100
47680,note_off,,,,,0,0,12,,,,,4,,,67,100
47712,note_on,,,,,32,0,12,,,,,4,,,70,72
47712,note_on,,,,,32,0,10,,,,,2,,,75,82
47712,note_on,,,,,32,0,11,,,,,3,,,75,32
47712,note_on,,,,,0,0,12,,,,,4,,,67,72
47744,note_off,,,,,128,0,14,,,,,6,,,43,100
47744,note_off,,,,,128,0,13,,,,,5,,,55,100
47744,note_off,,,,,0,0,15,,,,,7,,,70,100
47744,note_off,,,,,128,0,16,,,,,7,,,55,100
47744,note_off,,,,,128,0,15,,,,,7,,,75,100
47776,note_off,,,,,0,0,12,,,,,4,,,67,100
47776,note_off,,,,,64,0,10,,,,,2,,,75,100
47776,note_off,,,,,64,0,11,,,,,3,,,75,100
47776,note_off,,,,,64,0,12,,,,,4,,,70,100
47808,note_on,,,,,64,0,16,,,,,7,,,60,100
47808,note_on,,,,,64,0,14,,,,,6,,,48,72
47808,note_on,,,,,64,0,13,,,,,5,,,60,72
47808,note_on,,,,,32,0,12,,,,,4,,,67,72
47808,note_on,,,,,0,0,15,,,,,7,,,75,100
47808,note_on,,,,,32,0,10,,,,,2,,,75,82
47808,note_on,,,,,64,0,15,,,,,7,,,67,100
47808,note_on,,,,,32,0,11,,,,,3,,,75,32
47872,note_off,,,,,64,0,10,,,,,2,,,75,100
47872,note_off,,,,,64,0,12,,,,,4,,,67,100
47872,note_off,,,,,64,0,11,,,,,3,,,75,100
47904,note_on,,,,,32,0,12,,,,,4,,,67,73
47904,note_on,,,,,32,0,11,,,,,3,,,75,33
47904,note_on,,,,,32,0,10,,,,,2,,,75,83
47936,note_off,,,,,128,0,15,,,,,7,,,67,100
47936,note_off,,,,,0,0,15,,,,,7,,,75,100
47968,note_off,,,,,64,0,11,,,,,3,,,75,100
47968,note_off,,,,,64,0,10,,,,,2,,,75,100
47968,note_off,,,,,64,0,12,,,,,4,,,67,100
48000,note_on,,,,,64,0,15,,,,,7,,,67,100
48000,note_on,,,,,32,0,10,,,,,2,,,76,83
48000,note_on,,,,,32,0,11,,,,,3,,,76,33
48000,note_on,,,,,0,0,15,,,,,7,,,76,100
48000,note_on,,,,,32,0,12,,,,,4,,,67,73
48064,note_off,,,,,64,0,12,,,,,4,,,67,100
48064,note_off,,,,,64,0,11,,,,,3,,,76,100
48064,note_off,,,,,256,0,14,,,,,6,,,48,100
48064,note_off,,,,,256,0,13,,,,,5,,,60,100
48064,note_off,,,,,256,0,16,,,,,7,,,60,100
48064,note_off,,,,,64,0,10,,,,,2,,,76,100
48096,note_on,,,,,32,0,10,,,,,2,,,76,84
48096,note_on,,,,,32,0,11,,,,,3,,,76,34
48096,note_on,,,,,32,0,12,,,,,4,,,67,74
48128,note_off,,,,,0,0,15,,,,,7,,,76,100
48128,note_off,,,,,128,0,15,,,,,7,,,67,100
48160,note_off,,,,,64,0,10,,,,,2,,,76,100
48160,note_off,,,,,64,0,11,,,,,3,,,76,100
48160,note_off,,,,,64,0,12,,,,,4,,,67,100
48192,note_on,,,,,32,0,12,,,,,4,,,72,74
48192,note_on,,,,,128,0,13,,,,,5,,,58,74
48192,note_on,,,,,128,0,14,,,,,6,,,46,74
48192,note_on,,,,,32,0,10,,,,,2,,,76,84
48192,note_on,,,,,0,0,12,,,,,4,,,67,74
48192,note_on,,,,,32,0,11,,,,,3,,,76,34
48192,note_on,,,,,128,0,16,,,,,7,,,58,100
48192,note_on,,,,,0,0,15,,,,,7,,,72,100
48192,note_on,,,,,64,0,15,,,,,7,,,64,100
48256,note_off,,,,,0,0,12,,,,,4,,,67,100
48256,note_off,,,,,64,0,11,,,,,3,,,76,100
48256,note_off,,,,,64,0,10,,,,,2,,,76,100
48256,note_off,,,,,64,0,12,,,,,4,,,72,100
48288,note_on,,,,,32,0,12,,,,,4,,,72,75
48288,note_on,,,,,0,0,12,,,,,4,,,67,75
48288,note_on,,,,,32,0,11,,,,,3,,,76,35
48288,note_on,,,,,32,0,10,,,,,2,,,76,85
48320,note_off,,,,,128,0,13,,,,,5,,,58,100
48320,note_off,,,,,128,0,16,,,,,7,,,58,100
48320,note_off,,,,,0,0,15,,,,,7,,,72,100
48320,note_off,,,,,128,0,15,,,,,7,,,64,100
48320,note_off,,,,,128,0,14,,,,,6,,,46,100
48352,note_off,,,,,64,0,12,,,,,4,,,72,100
48352,note_off,,,,,0,0,12,,,,,4,,,67,100
48352,note_off,,,,,64,0,10,,,,,2,,,76,100
48352,note_off,,,,,64,0,11,,,,,3,,,76,100
48384,note_on,,,,,32,0,11,,,,,3,,,77,35
48384,note_on,,,,,64,0,15,,,,,7,,,64,100
48384,note_on,,,,,64,0,14,,,,,6,,,45,75
48384,note_on,,,,,64,0,13,,,,,5,,,57,75
48384,note_on,,,,,0,0,15,,,,,7,,,72,100
48384,note_on,,,,,32,0,12,,,,,4,,,72,75
48384,note_on,,,,,0,0,12,,,,,4,,,69,75
48384,note_on,,,,,32,0,10,,,,,2,,,77,85
48384,note_on,,,,,64,0,16,,,,,7,,,57,100
48448,note_off,,,,,0,0,12,,,,,4,,,69,100
48448,note_off,,,,,64,0,11,,,,,3,,,77,100
48448,note_off,,,,,64,0,12,,,,,4,,,72,100
48448,note_off,,,,,64,0,10,,,,,2,,,77,100
48480,note_on,,,,,0,0,12,,,,,4,,,69,76
48480,note_on,,,,,32,0,12,,,,,4,,,72,76
48480,note_on,,,,,32,0,11,,,,,3,,,77,36
48480,note_on,,,,,32,0,10,,,,,2,,,77,86
48512,note_off,,,,,128,0,13,,,,,5,,,57,100
48512,note_off,,,,,128,0,16,,,,,7,,,57,100
48512,note_off,,,,,0,0,15,,,,,7,,,72,100
48512,note_off,,,,,128,0,14,,,,,6,,,45,100
48512,note_off,,,,,128,0,15,,,,,7,,,64,100
48544,note_off,,,,,64,0,10,,,,,2,,,77,100
48544,note_off,,,,,0,0,12,,,,,4,,,69,100
48544,note_off,,,,,64,0,11,,,,,3,,,77,100
48544,note_off,,,,,64,0,12,,,,,4,,,72,100
48576,note_on,,,,,64,0,15,,,,,7,,,65,100
48576,note_on,,,,,64,0,16,,,,,7,,,62,100
48576,note_on,,,,,32,0,11,,,,,3,,,77,36
48576,note_on,,,,,32,0,12,,,,,4,,,69,76
48576,note_on,,,,,64,0,13,,,,,5,,,62,76
48576,note_on,,,,,64,0,14,,,,,6,,,50,76
48576,note_on,,,,,32,0,10,,,,,2,,,77,86
48576,note_on,,,,,0,0,15,,,,,7,,,69,100
48640,note_off,,,,,64,0,12,,,,,4,,,69,100
48640,note_off,,,,,64,0,10,,,,,2,,,77,100
48640,note_off,,,,,64,0,11,,,,,3,,,77,100
48672,note_on,,,,,32,0,12,,,,,4,,,69,77
48672,note_on,,,,,32,0,11,,,,,3,,,77,37
48672,note_on,,,,,32,0,10,,,,,2,,,77,87
48704,note_off,,,,,128,0,15,,,,,7,,,65,100
48704,note_off,,,,,0,0,15,,,,,7,,,69,100
48736,note_off,,,,,64,0,10,,,,,2,,,77,100
48736,note_off,,,,,64,0,12,,,,,4,,,69,100
48736,note_off,,,,,64,0,11,,,,,3,,,77,100
48768,note_on,,,,,32,0,10,,,,,2,,,78,87
48768,note_on,,,,,32,0,12,,,,,4,,,69,77
48768,note_on,,,,,64,0,15,,,,,7,,,69,100
48768,note_on,,,,,0,0,15,,,,,7,,,66,100
48768,note_on,,,,,32,0,11,,,,,3,,,78,37
48832,note_off,,,,,64,0,12,,,,,4,,,69,100
48832,note_off,,,,,64,0,11,,,,,3,,,78,100
48832,note_off,,,,,256,0,16,,,,,7,,,62,100
48832,note_off,,,,,256,0,13,,,,,5,,,62,100
48832,note_off,,,,,64,0,10,,,,,2,,,78,100
48832,note_off,,,,,256,0,14,,,,,6,,,50,100
48864,note_on,,,,,32,0,11,,,,,3,,,78,38
48864,note_on,,,,,32,0,12,,,,,4,,,69,78
48864,note_on,,,,,32,0,10,,,,,2,,,78,88
48896,note_off,,,,,0,0,15,,,,,7,,,66,100
48896,note_off,,,,,128,0,15,,,,,7,,,69,100
48928,note_off,,,,,64,0,10,,,,,2,,,78,100
48928,note_off,,,,,64,0,12,,,,,4,,,69,100
48928,note_off,,,,,64,0,11,,,,,3,,,78,100
48960,note_on,,,,,32,0,12,,,,,4,,,74,78
48960,note_on,,,,,32,0,10,,,,,2,,,78,88
48960,note_on,,,,,0,0,12,,,,,4,,,69,78
48960,note_on,,,,,128,0,14,,,,,6,,,48,78
48960,note_on,,,,,0,0,15,,,,,7,,,62,100
48960,note_on,,,,,64,0,15,,,,,7,,,66,100
48960,note_on,,,,,128,0,13,,,,,5,,,60,78
48960,note_on,,,,,128,0,16,,,,,7,,,60,100
48960,note_on,,,,,32,0,11,,,,,3,,,78,38
49024,note_off,,,,,64,0,10,,,,,2,,,78,100
49024,note_off,,,,,0,0,12,,,,,4,,,69,100
49024,note_off,,,,,64,0,12,,,,,4,,,74,100
49024,note_off,,,,,64,0,11,,,,,3,,,78,100
49056,note_on,,,,,32,0,10,,,,,2,,,78,89
49056,note_on,,,,,32,0,11,,,,,3,,,78,39
49056,note_on,,,,,0,0,12,,,,,4,,,69,79
49056,note_on,,,,,32,0,12,,,,,4,,,74,79
49088,note_off,,,,,0,0,15,,,,,7,,,62,100
49088,note_off,,,,,128,0,13,,,,,5,,,60,100
49088,note_off,,,,,128,0,16,,,,,7,,,60,100
49088,note_off,,,,,128,0,15,,,,,7,,,66,100
49088,note_off,,,,,128,0,14,,,,,6,,,48,100
49120,note_off,,,,,64,0,10,,,,,2,,,78,100
49120,note_off,,,,,64,0,12,,,,,4,,,74,100
49120,note_off,,,,,64,0,11,,,,,3,,,78,100
49120,note_off,,,,,0,0,12,,,,,4,,,69,100
49152,note_on,,,,,64,0,15,,,,,7,,,67,100
49152,note_on,,,,,32,0,10,,,,,2,,,79,90
49152,note_on,,,,,32,0,11,,,,,3,,,79,40
49152,note_on,,,,,0,0,15,,,,,7,,,62,100
49152,note_on,,,,,64,0,13,,,,,5,,,58,80
49152,note_on,,,,,64,0,16,,,,,7,,,58,100
49152,note_on,,,,,64,0,14,,,,,6,,,46,80
49152,note_on,,,,,32,0,12,,,,,4,,,74,80
49152,note_on,,,,,0,0,12,,,,,4,,,62,80
49216,note_off,,,,,0,0,12,,,,,4,,,62,100
49216,note_off,,,,,64,0,12,,,,,4,,,74,100
49248,note_on,,,,,32,0,12,,,,,4,,,74,78
49248,note_on,,,,,0,0,12,,,,,4,,,62,78
49280,note_off,,,,,0,0,15,,,,,7,,,62,100
49280,note_off,,,,,128,0,16,,,,,7,,,58,100
49280,note_off,,,,,128,0,15,,,,,7,,,67,100
49280,note_off,,,,,128,0,14,,,,,6,,,46,100
49280,note_off,,,,,128,0,10,,,,,2,,,79,100
49280,note_off,,,,,128,0,13,,,,,5,,,58,100
49280,note_off,,,,,128,0,11,,,,,3,,,79,100
49312,note_off,,,,,0,0,12,,,,,4,,,62,100
49312,note_off,,,,,64,0,12,,,,,4,,,74,100
49344,note_on,,,,,0,0,12,,,,,4,,,62,75
49344,note_on,,,,,64,0,16,,,,,7,,,55,100
49344,note_on,,,,,32,0,12,,,,,4,,,70,75
49344,note_on,,,,,64,0,11,,,,,3,,,70,35
49344,note_on,,,,,64,0,13,,,,,5,,,55,75
49344,note_on,,,,,64,0,10,,,,,2,,,70,85
49344,note_on,,,,,64,0,15,,,,,7,,,58,100
49344,note_on,,,,,0,0,15,,,,,7,,,62,100
49344,note_on,,,,,64,0,14,,,,,6,,,43,75
49408,note_off,,,,,0,0,12,,,,,4,,,62,100
49408,note_off,,,,,64,0,12,,,,,4,,,70,100
49440,note_on,,,,,0,0,12,,,,,4,,,62,72
49440,note_on,,,,,32,0,12,,,,,4,,,70,72
49472,note_off,,,,,128,0,14,,,,,6,,,43,100
49472,note_off,,,,,128,0,13,,,,,5,,,55,100
49472,note_off,,,,,128,0,16,,,,,7,,,55,100
49472,note_off,,,,,128,0,15,,,,,7,,,58,100
49472,note_off,,,,,0,0,15,,,,,7,,,62,100
49472,note_off,,,,,128,0,11,,,,,3,,,70,100
49472,note_off,,,,,128,0,10,,,,,2,,,70,100
49504,note_off,,,,,64,0,12,,,,,4,,,70,100
49504,note_off,,,,,0,0,12,,,,,4,,,62,100
49536,note_on,,,,,32,0,12,,,,,4,,,69,69
49536,note_on,,,,,64,0,13,,,,,5,,,62,69
49536,note_on,,,,,64,0,16,,,,,7,,,62,100
49536,note_on,,,,,64,0,10,,,,,2,,,62,79
49536,note_on,,,,,64,0,11,,,,,3,,,62,29
49536,note_on,,,,,0,0,15,,,,,7,,,69,100
49536,note_on,,,,,64,0,15,,,,,7,,,67,100
49536,note_on,,,,,64,0,14,,,,,6,,,50,69
49536,note_on,,,,,0,0,12,,,,,4,,,62,69
49600,note_off,,,,,64,0,12,,,,,4,,,69,100
49600,note_off,,,,,0,0,12,,,,,4,,,62,100
49632,note_on,,,,,32,0,12,,,,,4,,,69,66
49632,note_on,,,,,0,0,12,,,,,4,,,62,66
49664,note_off,,,,,128,0,14,,,,,6,,,50,100
49664,note_off,,,,,128,0,15,,,,,7,,,67,100
49664,note_off,,,,,0,0,15,,,,,7,,,69,100
49664,note_off,,,,,128,0,16,,,,,7,,,62,100
49664,note_off,,,,,128,0,11,,,,,3,,,62,100
49664,note_off,,,,,128,0,13,,,,,5,,,62,100
49664,note_off,,,,,128,0,10,,,,,2,,,62,100
49696,note_off,,,,,64,0,12,,,,,4,,,69,100
49696,note_off,,,,,0,0,12,,,,,4,,,62,100
49728,note_on,,,,,0,0,10,,,,,2,,,81,73
49728,note_on,,,,,64,0,14,,,,,6,,,38,63
49728,note_on,,,,,32,0,12,,,,,4,,,69,63
49728,note_on,,,,,64,0,11,,,,,3,,,78,23
49728,note_on,,,,,64,0,15,,,,,7,,,66,100
49728,note_on,,,,,64,0,13,,,,,5,,,50,63
49728,note_on,,,,,64,0,10,,,,,2,,,78,73
49728,note_on,,,,,0,0,15,,,,,7,,,69,100
49728,note_on,,,,,64,0,16,,,,,7,,,50,100
49728,note_on,,,,,0,0,12,,,,,4,,,62,63
49792,note_off,,,,,0,0,12,,,,,4,,,62,100
49792,note_off,,,,,64,0,12,,,,,4,,,69,100
49824,note_on,,,,,32,0,12,,,,,4,,,69,60
49824,note_on,,,,,0,0,12,,,,,4,,,62,60
49856,note_off,,,,,128,0,10,,,,,2,,,78,100
49856,note_off,,,,,128,0,14,,,,,6,,,38,100
49856,note_off,,,,,128,0,11,,,,,3,,,78,100
49856,note_off,,,,,128,0,13,,,,,5,,,50,100
49856,note_off,,,,,0,0,15,,,,,7,,,69,100
49856,note_off,,,,,128,0,16,,,,,7,,,50,100
49856,note_off,,,,,0,0,10,,,,,2,,,81,100
49856,note_off,,,,,128,0,15,,,,,7,,,66,100
49888,note_off,,,,,0,0,12,,,,,4,,,62,100
49888,note_off,,,,,64,0,12,,,,,4,,,69,100
49920,note_on,,,,,64,0,10,,,,,2,,,79,70
49920,note_on,,,,,64,0,13,,,,,5,,,43,60
49920,note_on,,,,,64,0,11,,,,,3,,,79,0
49920,note_on,,,,,64,0,16,,,,,7,,,43,100
49920,note_on,,,,,64,0,14,,,,,6,,,43,60
49920,program_change,,,,,8768,0,8,,,,,0,40,,,
49920,note_on,,,,,32,0,12,,,,,4,,,70,60
49920,note_on,,,,,0,0,15,,,,,7,,,62,100
49920,note_on,,,,,64,0,15,,,,,7,,,58,100
49920,note_on,,,,,0,0,12,,,,,4,,,62,60
49920,note_on,,,,,0,0,15,,,,,7,,,67,100
49924,note_on,,,,,4,0,8,,,,,0,,,82,60
49924,note_on,,,,,8772,0,9,,,,,1,,,79,60
49928,program_change,,,,,4,0,9,,,,,1,40,,,
50016,note_off,,,,,92,0,8,,,,,0,,,82,100
50016,note_off,,,,,88,0,9,,,,,1,,,79,100
50020,note_on,,,,,4,0,8,,,,,0,,,81,60
50020,note_on,,,,,4,0,9,,,,,1,,,78,60
50112,note_off,,,,,92,0,8,,,,,0,,,81,100
50112,note_off,,,,,92,0,9,,,,,1,,,78,100
50116,note_on,,,,,4,0,8,,,,,0,,,82,60
50116,note_on,,,,,4,0,9,,,,,1,,,79,60
50176,note_off,,,,,256,0,10,,,,,2,,,79,100
50176,note_off,,,,,256,0,12,,,,,4,,,70,100
50176,note_off,,,,,256,0,15,,,,,7,,,58,100
50176,note_off,,,,,0,0,15,,,,,7,,,62,100
50176,note_off,,,,,256,0,11,,,,,3,,,79,100
50176,note_off,,,,,0,0,15,,,,,7,,,67,100
50176,note_off,,,,,256,0,14,,,,,6,,,43,100
50176,note_off,,,,,256,0,13,,,,,5,,,43,100
50176,note_off,,,,,0,0,12,,,,,4,,,62,100
50176,note_off,,,,,256,0,16,,,,,7,,,43,100
50180,note_off,,,,,64,0,9,,,,,1,,,79,100
50180,note_off,,,,,64,0,8,,,,,0,,,82,100
50212,note_on,,,,,32,0,9,,,,,1,,,81,60
50212,note_on,,,,,32,0,8,,,,,0,,,84,60
50276,note_off,,,,,64,0,8,,,,,0,,,84,100
50276,note_off,,,,,64,0,9,,,,,1,,,81,100
50308,note_on,,,,,32,0,9,,,,,1,,,79,60
50308,note_on,,,,,32,0,8,,,,,0,,,82,60
50372,note_off,,,,,64,0,8,,,,,0,,,82,100
50372,note_off,,,,,64,0,9,,,,,1,,,79,100
50404,note_on,,,,,32,0,8,,,,,0,,,84,60
50404,note_on,,,,,32,0,9,,,,,1,,,81,60
50468,note_off,,,,,64,0,8,,,,,0,,,84,100
50468,note_off,,,,,64,0,9,,,,,1,,,81,100
50500,note_on,,,,,32,0,8,,,,,0,,,81,60
50500,note_on,,,,,32,0,9,,,,,1,,,78,60
50564,note_off,,,,,64,0,8,,,,,0,,,81,100
50564,note_off,,,,,64,0,9,,,,,1,,,78,100
50596,note_on,,,,,32,0,8,,,,,0,,,84,60
50596,note_on,,,,,32,0,9,,,,,1,,,81,60
50660,note_off,,,,,64,0,8,,,,,0,,,84,100
50660,note_off,,,,,64,0,9,,,,,1,,,81,100
50688,note_on,,,,,28,0,9,,,,,1,,,79,60
50688,note_on,,,,,28,0,8,,,,,0,,,82,60
50780,note_off,,,,,92,0,9,,,,,1,,,79,100
50780,note_off,,,,,92,0,8,,,,,0,,,82,100
50784,note_on,,,,,4,0,8,,,,,0,,,81,60
50784,note_on,,,,,4,0,9,,,,,1,,,78,60
50876,note_off,,,,,92,0,9,,,,,1,,,78,100
50876,note_off,,,,,92,0,8,,,,,0,,,81,100
50880,note_on,,,,,4,0,8,,,,,0,,,82,60
50880,note_on,,,,,4,0,9,,,,,1,,,79,60
50944,note_off,,,,,64,0,9,,,,,1,,,79,100
50944,note_off,,,,,64,0,8,,,,,0,,,82,100
50976,note_on,,,,,32,0,9,,,,,1,,,81,61
50976,note_on,,,,,32,0,8,,,,,0,,,84,61
51040,note_off,,,,,64,0,9,,,,,1,,,81,100
51040,note_off,,,,,64,0,8,,,,,0,,,84,100
51072,note_on,,,,,32,0,9,,,,,1,,,79,61
51072,note_on,,,,,32,0,8,,,,,0,,,82,61
51136,note_off,,,,,64,0,9,,,,,1,,,79,100
51136,note_off,,,,,64,0,8,,,,,0,,,82,100
51168,note_on,,,,,32,0,9,,,,,1,,,81,62
51168,note_on,,,,,32,0,8,,,,,0,,,84,62
51232,note_off,,,,,64,0,8,,,,,0,,,84,100
51232,note_off,,,,,64,0,9,,,,,1,,,81,100
51264,note_on,,,,,32,0,8,,,,,0,,,81,62
51264,note_on,,,,,32,0,9,,,,,1,,,78,62
51328,note_off,,,,,64,0,8,,,,,0,,,81,100
51328,note_off,,,,,64,0,9,,,,,1,,,78,100
51360,note_on,,,,,32,0,9,,,,,1,,,79,63
51360,note_on,,,,,32,0,8,,,,,0,,,82,63
51424,note_off,,,,,64,0,9,,,,,1,,,79,100
51424,note_off,,,,,64,0,8,,,,,0,,,82,100
51456,note_on,,,,,32,0,8,,,,,0,,,84,63
51456,note_on,,,,,32,0,9,,,,,1,,,81,63
51548,note_off,,,,,92,0,8,,,,,0,,,84,100
51548,note_off,,,,,92,0,9,,,,,1,,,81,100
51552,note_on,,,,,4,0,8,,,,,0,,,82,64
51552,note_on,,,,,4,0,9,,,,,1,,,79,64
51644,note_off,,,,,92,0,8,,,,,0,,,82,100
51644,note_off,,,,,92,0,9,,,,,1,,,79,100
51648,note_on,,,,,4,0,9,,,,,1,,,81,64
51648,note_on,,,,,4,0,8,,,,,0,,,84,64
51712,note_off,,,,,64,0,8,,,,,0,,,84,100
51712,note_off,,,,,64,0,9,,,,,1,,,81,100
51744,note_on,,,,,32,0,8,,,,,0,,,86,64
51744,note_on,,,,,32,0,9,,,,,1,,,82,64
51808,note_off,,,,,64,0,8,,,,,0,,,86,100
51808,note_off,,,,,64,0,9,,,,,1,,,82,100
51840,note_on,,,,,32,0,9,,,,,1,,,81,65
51840,note_on,,,,,32,0,8,,,,,0,,,84,65
51904,note_off,,,,,64,0,9,,,,,1,,,81,100
51904,note_off,,,,,64,0,8,,,,,0,,,84,100
51936,note_on,,,,,32,0,9,,,,,1,,,82,65
51936,note_on,,,,,32,0,8,,,,,0,,,86,65
52000,note_off,,,,,64,0,9,,,,,1,,,82,100
52000,note_off,,,,,64,0,8,,,,,0,,,86,100
52032,note_on,,,,,32,0,9,,,,,1,,,79,66
52032,note_on,,,,,32,0,8,,,,,0,,,82,66
52096,note_off,,,,,64,0,9,,,,,1,,,79,100
52096,note_off,,,,,64,0,8,,,,,0,,,82,100
52128,note_on,,,,,32,0,9,,,,,1,,,82,66
52128,note_on,,,,,32,0,8,,,,,0,,,86,66
52192,note_off,,,,,64,0,8,,,,,0,,,86,100
52192,note_off,,,,,64,0,9,,,,,1,,,82,100
52224,note_on,,,,,32,0,8,,,,,0,,,84,67
52224,note_on,,,,,32,0,9,,,,,1,,,81,67
52316,note_off,,,,,92,0,9,,,,,1,,,81,100
52316,note_off,,,,,92,0,8,,,,,0,,,84,100
52320,note_on,,,,,4,0,9,,,,,1,,,79,67
52320,note_on,,,,,4,0,8,,,,,0,,,82,67
52412,note_off,,,,,92,0,9,,,,,1,,,79,100
52412,note_off,,,,,92,0,8,,,,,0,,,82,100
52416,note_on,,,,,4,0,9,,,,,1,,,81,68
52416,note_on,,,,,4,0,8,,,,,0,,,84,68
52480,note_off,,,,,64,0,8,,,,,0,,,84,100
52480,note_off,,,,,64,0,9,,,,,1,,,81,100
52512,note_on,,,,,32,0,8,,,,,0,,,86,68
52512,note_on,,,,,32,0,9,,,,,1,,,82,68
52576,note_off,,,,,64,0,8,,,,,0,,,86,100
52576,note_off,,,,,64,0,9,,,,,1,,,82,100
52608,note_on,,,,,32,0,9,,,,,1,,,81,68
52608,note_on,,,,,32,0,8,,,,,0,,,84,68
52672,note_off,,,,,64,0,9,,,,,1,,,81,100
52672,note_off,,,,,64,0,8,,,,,0,,,84,100
52704,note_on,,,,,32,0,8,,,,,0,,,86,69
52704,note_on,,,,,32,0,9,,,,,1,,,82,69
52768,note_off,,,,,64,0,9,,,,,1,,,82,100
52768,note_off,,,,,64,0,8,,,,,0,,,86,100
52800,note_on,,,,,32,0,9,,,,,1,,,79,69
52800,note_on,,,,,32,0,8,,,,,0,,,82,69
52864,note_off,,,,,64,0,9,,,,,1,,,79,100
52864,note_off,,,,,64,0,8,,,,,0,,,82,100
52896,note_on,,,,,32,0,8,,,,,0,,,84,70
52896,note_on,,,,,32,0,9,,,,,1,,,81,70
52960,note_off,,,,,64,0,8,,,,,0,,,84,100
52960,note_off,,,,,64,0,9,,,,,1,,,81,100
52992,note_on,,,,,32,0,9,,,,,1,,,82,70
52992,note_on,,,,,32,0,8,,,,,0,,,86,70
53084,note_off,,,,,92,0,9,,,,,1,,,82,100
53084,note_off,,,,,92,0,8,,,,,0,,,86,100
53088,note_on,,,,,4,0,8,,,,,0,,,84,71
53088,note_on,,,,,4,0,9,,,,,1,,,81,71
53180,note_off,,,,,92,0,8,,,,,0,,,84,100
53180,note_off,,,,,92,0,9,,,,,1,,,81,100
53184,note_on,,,,,4,0,8,,,,,0,,,86,71
53184,note_on,,,,,4,0,9,,,,,1,,,82,71
53248,note_off,,,,,64,0,8,,,,,0,,,86,100
53248,note_off,,,,,64,0,9,,,,,1,,,82,100
53280,note_on,,,,,32,0,8,,,,,0,,,87,72
53280,note_on,,,,,32,0,9,,,,,1,,,84,72
53344,note_off,,,,,64,0,8,,,,,0,,,87,100
53344,note_off,,,,,64,0,9,,,,,1,,,84,100
53376,note_on,,,,,32,0,9,,,,,1,,,82,72
53376,note_on,,,,,32,0,8,,,,,0,,,86,72
53440,note_off,,,,,64,0,9,,,,,1,,,82,100
53440,note_off,,,,,64,0,8,,,,,0,,,86,100
53472,note_on,,,,,32,0,9,,,,,1,,,84,72
53472,note_on,,,,,32,0,8,,,,,0,,,87,72
53536,note_off,,,,,64,0,8,,,,,0,,,87,100
53536,note_off,,,,,64,0,9,,,,,1,,,84,100
53568,note_on,,,,,32,0,8,,,,,0,,,84,73
53568,note_on,,,,,32,0,9,,,,,1,,,81,73
53632,note_off,,,,,64,0,8,,,,,0,,,84,100
53632,note_off,,,,,64,0,9,,,,,1,,,81,100
53664,note_on,,,,,32,0,9,,,,,1,,,84,73
53664,note_on,,,,,32,0,8,,,,,0,,,87,73
53728,note_off,,,,,64,0,8,,,,,0,,,87,100
53728,note_off,,,,,64,0,9,,,,,1,,,84,100
53760,note_on,,,,,32,0,8,,,,,0,,,86,74
53760,note_on,,,,,32,0,9,,,,,1,,,82,74
53852,note_off,,,,,92,0,8,,,,,0,,,86,100
53852,note_off,,,,,92,0,9,,,,,1,,,82,100
53856,note_on,,,,,4,0,8,,,,,0,,,84,74
53856,note_on,,,,,4,0,9,,,,,1,,,81,74
53948,note_off,,,,,92,0,8,,,,,0,,,84,100
53948,note_off,,,,,92,0,9,,,,,1,,,81,100
53952,note_on,,,,,4,0,8,,,,,0,,,86,75
53952,note_on,,,,,4,0,9,,,,,1,,,82,75
54016,note_off,,,,,64,0,9,,,,,1,,,82,100
54016,note_off,,,,,64,0,8,,,,,0,,,86,100
54048,note_on,,,,,32,0,9,,,,,1,,,84,75
54048,note_on,,,,,32,0,8,,,,,0,,,87,75
54112,note_off,,,,,64,0,8,,,,,0,,,87,100
54112,note_off,,,,,64,0,9,,,,,1,,,84,100
54144,note_on,,,,,32,0,8,,,,,0,,,86,76
54144,note_on,,,,,32,0,9,,,,,1,,,82,76
54236,note_off,,,,,92,0,8,,,,,0,,,86,100
54236,note_off,,,,,92,0,9,,,,,1,,,82,100
54240,note_on,,,,,4,0,8,,,,,0,,,84,76
54240,note_on,,,,,4,0,9,,,,,1,,,81,76
54332,note_off,,,,,92,0,8,,,,,0,,,84,100
54332,note_off,,,,,92,0,9,,,,,1,,,81,100
54336,note_on,,,,,4,0,9,,,,,1,,,82,76
54336,note_on,,,,,4,0,8,,,,,0,,,86,76
54400,note_off,,,,,64,0,9,,,,,1,,,82,100
54400,note_off,,,,,64,0,8,,,,,0,,,86,100
54432,note_on,,,,,32,0,9,,,,,1,,,84,77
54432,note_on,,,,,32,0,8,,,,,0,,,87,77
54496,note_off,,,,,64,0,9,,,,,1,,,84,100
54496,note_off,,,,,64,0,8,,,,,0,,,87,100
54528,note_on,,,,,32,0,8,,,,,0,,,84,77
54528,note_on,,,,,32,0,9,,,,,1,,,81,77
54620,note_off,,,,,92,0,9,,,,,1,,,81,100
54620,note_off,,,,,92,0,8,,,,,0,,,84,100
54624,note_on,,,,,4,0,9,,,,,1,,,79,78
54624,note_on,,,,,4,0,8,,,,,0,,,82,78
54716,note_off,,,,,92,0,9,,,,,1,,,79,100
54716,note_off,,,,,92,0,8,,,,,0,,,82,100
54720,note_on,,,,,4,0,8,,,,,0,,,84,78
54720,note_on,,,,,4,0,9,,,,,1,,,81,78
54784,note_off,,,,,64,0,9,,,,,1,,,81,100
54784,note_off,,,,,64,0,8,,,,,0,,,84,100
54816,note_on,,,,,32,0,9,,,,,1,,,82,79
54816,note_on,,,,,32,0,8,,,,,0,,,86,79
54880,note_off,,,,,64,0,9,,,,,1,,,82,100
54880,note_off,,,,,64,0,8,,,,,0,,,86,100
54912,note_on,,,,,32,0,9,,,,,1,,,81,79
54912,note_on,,,,,32,0,8,,,,,0,,,84,79
55004,note_off,,,,,92,0,8,,,,,0,,,84,100
55004,note_off,,,,,92,0,9,,,,,1,,,81,100
55008,note_on,,,,,4,0,8,,,,,0,,,82,80
55008,note_on,,,,,4,0,9,,,,,1,,,79,80
55100,note_off,,,,,92,0,8,,,,,0,,,82,100
55100,note_off,,,,,92,0,9,,,,,1,,,79,100
55104,note_on,,,,,4,0,8,,,,,0,,,84,80
55104,note_on,,,,,4,0,9,,,,,1,,,81,80
55168,note_off,,,,,64,0,8,,,,,0,,,84,100
55168,note_off,,,,,64,0,9,,,,,1,,,81,100
55200,note_on,,,,,32,0,8,,,,,0,,,86,80
55200,note_on,,,,,32,0,9,,,,,1,,,82,80
55264,note_off,,,,,64,0,9,,,,,1,,,82,100
55264,note_off,,,,,64,0,8,,,,,0,,,86,100
55296,note_on,,,,,32,0,8,,,,,0,,,82,81
55296,note_on,,,,,32,0,9,,,,,1,,,79,81
55388,note_off,,,,,92,0,8,,,,,0,,,82,100
55388,note_off,,,,,92,0,9,,,,,1,,,79,100
55392,note_on,,,,,4,0,9,,,,,1,,,78,81
55392,note_on,,,,,4,0,8,,,,,0,,,81,81
55484,note_off,,,,,92,0,9,,,,,1,,,78,100
55484,note_off,,,,,92,0,8,,,,,0,,,81,100
55488,note_on,,,,,4,0,8,,,,,0,,,82,82
55488,note_on,,,,,4,0,9,,,,,1,,,79,82
55552,note_off,,,,,64,0,9,,,,,1,,,79,100
55552,note_off,,,,,64,0,8,,,,,0,,,82,100
55584,note_on,,,,,32,0,8,,,,,0,,,84,82
55584,note_on,,,,,32,0,9,,,,,1,,,81,82
55648,note_off,,,,,64,0,8,,,,,0,,,84,100
55648,note_off,,,,,64,0,9,,,,,1,,,81,100
55680,note_on,,,,,32,0,8,,,,,0,,,82,83
55680,note_on,,,,,32,0,9,,,,,1,,,79,83
55772,note_off,,,,,92,0,8,,,,,0,,,82,100
55772,note_off,,,,,92,0,9,,,,,1,,,79,100
55776,note_on,,,,,4,0,8,,,,,0,,,81,83
55776,note_on,,,,,4,0,9,,,,,1,,,78,83
55868,note_off,,,,,92,0,8,,,,,0,,,81,100
55868,note_off,,,,,92,0,9,,,,,1,,,78,100
55872,note_on,,,,,4,0,8,,,,,0,,,82,84
55872,note_on,,,,,4,0,9,,,,,1,,,79,84
55936,note_off,,,,,64,0,8,,,,,0,,,82,100
55936,note_off,,,,,64,0,9,,,,,1,,,79,100
55968,note_on,,,,,32,0,8,,,,,0,,,84,84
55968,note_on,,,,,32,0,9,,,,,1,,,81,84
56032,note_off,,,,,64,0,9,,,,,1,,,81,100
56032,note_off,,,,,64,0,8,,,,,0,,,84,100
56064,note_on,,,,,32,0,8,,,,,0,,,81,84
56064,note_on,,,,,5888,0,14,,,,,6,,,38,84
56064,note_on,,,,,32,0,9,,,,,1,,,78,84
56064,note_on,,,,,5888,0,15,,,,,7,,,69,100
56064,note_on,,,,,0,0,15,,,,,7,,,66,100
56064,note_on,,,,,5888,0,16,,,,,7,,,50,100
56128,note_off,,,,,64,0,8,,,,,0,,,81,100
56160,note_on,,,,,32,0,8,,,,,0,,,81,100
56224,note_off,,,,,64,0,8,,,,,0,,,81,100
56256,note_on,,,,,32,0,8,,,,,0,,,78,100
56320,note_off,,,,,256,0,16,,,,,7,,,50,100
56320,note_off,,,,,256,0,15,,,,,7,,,69,100
56320,note_off,,,,,0,0,15,,,,,7,,,66,100
56320,note_off,,,,,256,0,9,,,,,1,,,78,100
56320,note_off,,,,,256,0,14,,,,,6,,,38,100
56320,note_off,,,,,64,0,8,,,,,0,,,78,100
56352,note_on,,,,,32,0,8,,,,,0,,,81,100
56416,note_off,,,,,64,0,8,,,,,0,,,81,100
56448,note_on,,,,,32,0,8,,,,,0,,,62,100
56576,note_off,,,,,128,0,8,,,,,0,,,62,100
56640,note_on,,,,,64,0,8,,,,,0,,,81,100
56640,note_on,,,,,320,0,14,,,,,6,,,38,85
56640,note_on,,,,,320,0,16,,,,,7,,,50,100
56640,note_on,,,,,320,0,15,,,,,7,,,69,100
56640,note_on,,,,,0,0,15,,,,,7,,,66,100
56768,note_off,,,,,128,0,16,,,,,7,,,50,100
56768,note_off,,,,,128,0,14,,,,,6,,,38,100
56768,note_off,,,,,0,0,15,,,,,7,,,66,100
56768,note_off,,,,,128,0,15,,,,,7,,,69,100
56768,note_off,,,,,128,0,8,,,,,0,,,81,100
56832,program_change,,,,,6656,0,13,,,,,5,42,,,
56832,note_on,,,,,64,0,8,,,,,0,,,82,100
56832,program_change,,,,,6656,0,11,,,,,3,48,,,
56832,note_on,,,,,64,0,15,,,,,7,,,70,100
56832,note_on,,,,,0,0,15,,,,,7,,,74,100
56832,note_on,,,,,64,0,16,,,,,7,,,55,100
56832,note_on,,,,,64,0,14,,,,,6,,,43,85
56928,note_on,,,,,96,0,13,,,,,5,,,62,100
56960,note_off,,,,,128,0,8,,,,,0,,,82,100
56992,note_off,,,,,64,0,13,,,,,5,,,62,100
57024,note_on,,,,,64,0,8,,,,,0,,,55,100
57024,note_on,,,,,32,0,13,,,,,5,,,58,100
57088,note_off,,,,,256,0,15,,,,,7,,,70,100
57088,note_off,,,,,256,0,14,,,,,6,,,43,100
57088,note_off,,,,,64,0,13,,,,,5,,,58,100
57088,note_off,,,,,256,0,16,,,,,7,,,55,100
57088,note_off,,,,,0,0,15,,,,,7,,,74,100
57120,note_on,,,,,32,0,13,,,,,5,,,62,100
57152,note_off,,,,,128,0,8,,,,,0,,,55,100
57184,note_off,,,,,64,0,13,,,,,5,,,62,100
57216,note_on,,,,,32,0,13,,,,,5,,,43,100
57216,note_on,,,,,64,0,8,,,,,0,,,82,100
57308,note_off,,,,,92,0,8,,,,,0,,,82,100
57312,note_on,,,,,4,0,8,,,,,0,,,81,100
57344,note_off,,,,,128,0,13,,,,,5,,,43,100
57376,note_off,,,,,64,0,8,,,,,0,,,81,100
57408,note_on,,,,,64,0,13,,,,,5,,,62,100
57408,note_on,,,,,32,0,8,,,,,0,,,82,100
57408,note_on,,,,,320,0,15,,,,,7,,,70,100
57408,note_on,,,,,0,0,15,,,,,7,,,74,100
57408,note_on,,,,,320,0,16,,,,,7,,,55,100
57408,note_on,,,,,320,0,14,,,,,6,,,43,85
57500,note_off,,,,,92,0,8,,,,,0,,,82,100
57504,note_on,,,,,4,0,8,,,,,0,,,81,100
57536,note_off,,,,,128,0,13,,,,,5,,,62,100
57536,note_off,,,,,0,0,15,,,,,7,,,74,100
57536,note_off,,,,,128,0,15,,,,,7,,,70,100
57536,note_off,,,,,128,0,16,,,,,7,,,55,100
57536,note_off,,,,,128,0,14,,,,,6,,,43,100
57568,note_off,,,,,64,0,8,,,,,0,,,81,100
57600,note_on,,,,,32,0,8,,,,,0,,,79,100
57600,note_on,,,,,0,0,15,,,,,7,,,67,100
57600,note_on,,,,,64,0,15,,,,,7,,,70,100
57600,note_on,,,,,64,0,14,,,,,6,,,36,85
57600,note_on,,,,,64,0,16,,,,,7,,,48,100
57600,note_on,,,,,64,0,13,,,,,5,,,63,100
57692,note_off,,,,,92,0,8,,,,,0,,,79,100
57696,note_on,,,,,4,0,8,,,,,0,,,77,100
57728,note_off,,,,,128,0,13,,,,,5,,,63,100
57760,note_off,,,,,64,0,8,,,,,0,,,77,100
57792,note_on,,,,,32,0,8,,,,,0,,,75,100
57792,note_on,,,,,64,0,13,,,,,5,,,36,100
57856,note_off,,,,,256,0,14,,,,,6,,,36,100
57856,note_off,,,,,256,0,15,,,,,7,,,70,100
57856,note_off,,,,,0,0,15,,,,,7,,,67,100
57856,note_off,,,,,256,0,16,,,,,7,,,48,100
57884,note_off,,,,,92,0,8,,,,,0,,,75,100
57888,note_on,,,,,4,0,8,,,,,0,,,74,100
57920,note_off,,,,,128,0,13,,,,,5,,,36,100
57952,note_off,,,,,64,0,8,,,,,0,,,74,100
57984,note_on,,,,,32,0,8,,,,,0,,,72,100
57984,note_on,,,,,64,0,13,,,,,5,,,64,100
58076,note_off,,,,,92,0,13,,,,,5,,,64,100
58080,note_on,,,,,4,0,13,,,,,5,,,62,100
58112,note_off,,,,,128,0,8,,,,,0,,,72,100
58144,note_off,,,,,64,0,13,,,,,5,,,62,100
58176,note_on,,,,,320,0,16,,,,,7,,,48,100
58176,note_on,,,,,0,0,15,,,,,7,,,67,100
58176,note_on,,,,,320,0,15,,,,,7,,,70,100
58176,note_on,,,,,64,0,8,,,,,0,,,79,100
58176,note_on,,,,,320,0,14,,,,,6,,,36,85
58176,note_on,,,,,32,0,13,,,,,5,,,64,100
58268,note_off,,,,,92,0,13,,,,,5,,,64,100
58272,note_on,,,,,4,0,13,,,,,5,,,62,100
58304,note_off,,,,,0,0,15,,,,,7,,,67,100
58304,note_off,,,,,128,0,16,,,,,7,,,48,100
58304,note_off,,,,,128,0,14,,,,,6,,,36,100
58304,note_off,,,,,128,0,15,,,,,7,,,70,100
58304,note_off,,,,,128,0,8,,,,,0,,,79,100
58336,note_off,,,,,64,0,13,,,,,5,,,62,100
58368,note_on,,,,,64,0,8,,,,,0,,,81,100
58368,note_on,,,,,32,0,13,,,,,5,,,60,100
58368,note_on,,,,,64,0,14,,,,,6,,,41,85
58368,note_on,,,,,0,0,15,,,,,7,,,72,100
58368,note_on,,,,,64,0,15,,,,,7,,,63,100
58368,note_on,,,,,64,0,16,,,,,7,,,53,100
58460,note_off,,,,,92,0,13,,,,,5,,,60,100
58464,note_on,,,,,4,0,13,,,,,5,,,58,100
58496,note_off,,,,,128,0,8,,,,,0,,,81,100
58528,note_off,,,,,64,0,13,,,,,5,,,58,100
58560,note_on,,,,,32,0,13,,,,,5,,,57,100
58560,note_on,,,,,64,0,8,,,,,0,,,65,100
58624,note_off,,,,,256,0,14,,,,,6,,,41,100
58624,note_off,,,,,0,0,15,,,,,7,,,72,100
58624,note_off,,,,,256,0,15,,,,,7,,,63,100
58624,note_off,,,,,256,0,16,,,,,7,,,53,100
58652,note_off,,,,,92,0,13,,,,,5,,,57,100
58656,note_on,,,,,4,0,13,,,,,5,,,55,100
58688,note_off,,,,,128,0,8,,,,,0,,,65,100
58720,note_off,,,,,64,0,13,,,,,5,,,55,100
58752,note_on,,,,,64,0,8,,,,,0,,,81,100
58752,note_on,,,,,32,0,13,,,,,5,,,53,100
58844,note_off,,,,,92,0,8,,,,,0,,,81,100
58848,note_on,,,,,4,0,8,,,,,0,,,79,100
58880,note_off,,,,,128,0,13,,,,,5,,,53,100
58912,note_off,,,,,64,0,8,,,,,0,,,79,100
58944,note_on,,,,,32,0,8,,,,,0,,,81,100
58944,note_on,,,,,320,0,14,,,,,6,,,41,85
58944,note_on,,,,,320,0,15,,,,,7,,,63,100
58944,note_on,,,,,0,0,15,,,,,7,,,72,100
58944,note_on,,,,,64,0,13,,,,,5,,,60,100
58944,note_on,,,,,320,0,16,,,,,7,,,53,100
59036,note_off,,,,,92,0,8,,,,,0,,,81,100
59040,note_on,,,,,4,0,8,,,,,0,,,79,100
59072,note_off,,,,,128,0,16,,,,,7,,,53,100
59072,note_off,,,,,0,0,15,,,,,7,,,72,100
59072,note_off,,,,,128,0,15,,,,,7,,,63,100
59072,note_off,,,,,128,0,14,,,,,6,,,41,100
59072,note_off,,,,,128,0,13,,,,,5,,,60,100
59104,note_off,,,,,64,0,8,,,,,0,,,79,100
59136,note_on,,,,,64,0,13,,,,,5,,,62,100
59136,note_on,,,,,0,0,15,,,,,7,,,69,100
59136,note_on,,,,,64,0,14,,,,,6,,,34,85
59136,note_on,,,,,32,0,8,,,,,0,,,77,100
59136,note_on,,,,,64,0,15,,,,,7,,,65,100
59136,note_on,,,,,64,0,16,,,,,7,,,46,100
59228,note_off,,,,,92,0,8,,,,,0,,,77,100
59232,note_on,,,,,4,0,8,,,,,0,,,75,100
59264,note_off,,,,,128,0,13,,,,,5,,,62,100
59296,note_off,,,,,64,0,8,,,,,0,,,75,100
59328,note_on,,,,,64,0,13,,,,,5,,,46,100
59328,note_on,,,,,32,0,8,,,,,0,,,74,100
59392,note_off,,,,,256,0,15,,,,,7,,,65,100
59392,note_off,,,,,0,0,15,,,,,7,,,69,100
59392,note_off,,,,,256,0,16,,,,,7,,,46,100
59392,note_off,,,,,256,0,14,,,,,6,,,34,100
59420,note_off,,,,,92,0,8,,,,,0,,,74,100
59424,note_on,,,,,4,0,8,,,,,0,,,72,100
59456,note_off,,,,,128,0,13,,,,,5,,,46,100
59488,note_off,,,,,64,0,8,,,,,0,,,72,100
59520,note_on,,,,,32,0,8,,,,,0,,,70,100
59520,note_on,,,,,64,0,13,,,,,5,,,62,100
59612,note_off,,,,,92,0,13,,,,,5,,,62,100
59616,note_on,,,,,4,0,13,,,,,5,,,60,100
59648,note_off,,,,,128,0,8,,,,,0,,,70,100
59680,note_off,,,,,64,0,13,,,,,5,,,60,100
59712,note_on,,,,,32,0,13,,,,,5,,,62,100
59712,note_on,,,,,64,0,8,,,,,0,,,77,100
59712,note_on,,,,,320,0,16,,,,,7,,,46,100
59712,note_on,,,,,320,0,15,,,,,7,,,65,100
59712,note_on,,,,,320,0,14,,,,,6,,,34,85
59712,note_on,,,,,0,0,15,,,,,7,,,69,100
59804,note_off,,,,,92,0,13,,,,,5,,,62,100
59808,note_on,,,,,4,0,13,,,,,5,,,60,100
59840,note_off,,,,,128,0,14,,,,,6,,,34,100
59840,note_off,,,,,128,0,8,,,,,0,,,77,100
59840,note_off,,,,,0,0,15,,,,,7,,,69,100
59840,note_off,,,,,128,0,16,,,,,7,,,46,100
59840,note_off,,,,,128,0,15,,,,,7,,,65,100
59872,note_off,,,,,64,0,13,,,,,5,,,60,100
59904,note_on,,,,,64,0,8,,,,,0,,,79,100
59904,note_on,,,,,64,0,16,,,,,7,,,51,100
59904,note_on,,,,,64,0,15,,,,,7,,,70,100
59904,note_on,,,,,0,0,15,,,,,7,,,62,100
59904,note_on,,,,,64,0,14,,,,,6,,,39,85
59904,note_on,,,,,32,0,13,,,,,5,,,58,100
59996,note_off,,,,,92,0,13,,,,,5,,,58,100
60000,note_on,,,,,4,0,13,,,,,5,,,57,100
60032,note_off,,,,,128,0,8,,,,,0,,,79,100
60064,note_off,,,,,64,0,13,,,,,5,,,57,100
60096,note_on,,,,,64,0,8,,,,,0,,,63,100
60096,note_on,,,,,32,0,13,,,,,5,,,55,100
60160,note_off,,,,,256,0,14,,,,,6,,,39,100
60160,note_off,,,,,256,0,16,,,,,7,,,51,100
60160,note_off,,,,,0,0,15,,,,,7,,,62,100
60160,note_off,,,,,256,0,15,,,,,7,,,70,100
60188,note_off,,,,,92,0,13,,,,,5,,,55,100
60192,note_on,,,,,4,0,13,,,,,5,,,53,100
60224,note_off,,,,,128,0,8,,,,,0,,,63,100
60256,note_off,,,,,64,0,13,,,,,5,,,53,100
60288,note_on,,,,,32,0,13,,,,,5,,,51,100
60288,note_on,,,,,64,0,8,,,,,0,,,79,100
60380,note_off,,,,,92,0,8,,,,,0,,,79,100
60384,note_on,,,,,4,0,8,,,,,0,,,77,100
60416,note_off,,,,,128,0,13,,,,,5,,,51,100
60448,note_off,,,,,64,0,8,,,,,0,,,77,100
60480,note_on,,,,,0,0,15,,,,,7,,,70,100
60480,note_on,,,,,320,0,14,,,,,6,,,39,85
60480,note_on,,,,,64,0,13,,,,,5,,,58,100
60480,note_on,,,,,320,0,15,,,,,7,,,62,100
60480,note_on,,,,,32,0,8,,,,,0,,,79,100
60480,note_on,,,,,320,0,16,,,,,7,,,51,100
60572,note_off,,,,,92,0,8,,,,,0,,,79,100
60576,note_on,,,,,4,0,8,,,,,0,,,77,100
60608,note_off,,,,,128,0,14,,,,,6,,,39,100
60608,note_off,,,,,128,0,13,,,,,5,,,58,100
60608,note_off,,,,,128,0,16,,,,,7,,,51,100
60608,note_off,,,,,128,0,15,,,,,7,,,62,100
60608,note_off,,,,,0,0,15,,,,,7,,,70,100
60640,note_off,,,,,64,0,8,,,,,0,,,77,100
60672,note_on,,,,,32,0,8,,,,,0,,,75,100
60672,note_on,,,,,64,0,14,,,,,6,,,33,85
60672,note_on,,,,,64,0,15,,,,,7,,,67,100
60672,note_on,,,,,0,0,15,,,,,7,,,63,100
60672,note_on,,,,,64,0,16,,,,,7,,,45,100
60672,note_on,,,,,64,0,13,,,,,5,,,60,100
60764,note_off,,,,,92,0,8,,,,,0,,,75,100
60768,note_on,,,,,4,0,8,,,,,0,,,74,100
60800,note_off,,,,,128,0,13,,,,,5,,,60,100
60832,note_off,,,,,64,0,8,,,,,0,,,74,100
60864,note_on,,,,,64,0,13,,,,,5,,,45,100
60864,note_on,,,,,32,0,8,,,,,0,,,72,100
60928,note_off,,,,,256,0,16,,,,,7,,,45,100
60928,note_off,,,,,0,0,15,,,,,7,,,63,100
60928,note_off,,,,,256,0,15,,,,,7,,,67,100
60928,note_off,,,,,256,0,14,,,,,6,,,33,100
60956,note_off,,,,,92,0,8,,,,,0,,,72,100
60960,note_on,,,,,4,0,8,,,,,0,,,70,100
60992,note_off,,,,,128,0,13,,,,,5,,,45,100
61024,note_off,,,,,64,0,8,,,,,0,,,70,100
61056,note_on,,,,,32,0,8,,,,,0,,,69,100
61184,note_off,,,,,128,0,8,,,,,0,,,69,100
61248,note_on,,,,,320,0,16,,,,,7,,,45,100
61248,note_on,,,,,320,0,14,,,,,6,,,33,85
61248,note_on,,,,,256,0,13,,,,,5,,,60,100
61248,note_on,,,,,64,0,8,,,,,0,,,75,100
61248,note_on,,,,,0,0,15,,,,,7,,,67,100
61248,note_on,,,,,320,0,15,,,,,7,,,63,100
61376,note_off,,,,,0,0,15,,,,,7,,,67,100
61376,note_off,,,,,128,0,15,,,,,7,,,63,100
61376,note_off,,,,,128,0,14,,,,,6,,,33,100
61376,note_off,,,,,128,0,13,,,,,5,,,60,100
61376,note_off,,,,,128,0,16,,,,,7,,,45,100
61376,note_off,,,,,128,0,8,,,,,0,,,75,100
61440,note_on,,,,,64,0,8,,,,,0,,,66,100
61440,note_on,,,,,64,0,14,,,,,6,,,38,85
61440,note_on,,,,,64,0,16,,,,,7,,,50,100
61440,note_on,,,,,64,0,13,,,,,5,,,62,100
61440,note_on,,,,,64,0,15,,,,,7,,,66,100
61440,note_on,,,,,0,0,15,,,,,7,,,69,100
61504,note_off,,,,,64,0,13,,,,,5,,,62,100
61536,note_on,,,,,32,0,13,,,,,5,,,50,100
61568,note_off,,,,,128,0,8,,,,,0,,,66,100
61600,note_off,,,,,64,0,13,,,,,5,,,50,100
61632,note_on,,,,,64,0,8,,,,,0,,,62,100
61632,note_on,,,,,32,0,13,,,,,5,,,50,100
61696,note_off,,,,,0,0,15,,,,,7,,,69,100
61696,note_off,,,,,256,0,14,,,,,6,,,38,100
61696,note_off,,,,,64,0,13,,,,,5,,,50,100
61696,note_off,,,,,256,0,15,,,,,7,,,66,100
61696,note_off,,,,,256,0,16,,,,,7,,,50,100
61728,note_on,,,,,32,0,13,,,,,5,,,62,100
61760,note_off,,,,,128,0,8,,,,,0,,,62,100
61792,note_off,,,,,64,0,13,,,,,5,,,62,100
61824,note_on,,,,,32,0,13,,,,,5,,,62,100
61888,note_off,,,,,64,0,13,,,,,5,,,62,100
61920,note_on,,,,,32,0,13,,,,,5,,,50,100
61984,note_off,,,,,64,0,13,,,,,5,,,50,100
62016,note_on,,,,,32,0,13,,,,,5,,,50,100
62016,note_on,,,,,256,0,8,,,,,0,,,81,85
62080,note_off,,,,,64,0,13,,,,,5,,,50,100
62108,note_off,,,,,92,0,8,,,,,0,,,81,100
62112,note_on,,,,,4,0,8,,,,,0,,,79,85
62112,note_on,,,,,32,0,13,,,,,5,,,62,100
62176,note_off,,,,,64,0,13,,,,,5,,,62,100
62204,note_off,,,,,92,0,8,,,,,0,,,79,100
62208,note_on,,,,,4,0,8,,,,,0,,,78,85
62208,note_on,,,,,512,0,14,,,,,6,,,38,85
62208,note_on,,,,,512,0,15,,,,,7,,,66,100
62208,note_on,,,,,32,0,13,,,,,5,,,60,100
62208,note_on,,,,,512,0,16,,,,,7,,,50,100
62208,note_on,,,,,0,0,15,,,,,7,,,69,100
62272,note_off,,,,,64,0,13,,,,,5,,,60,100
62300,note_off,,,,,92,0,8,,,,,0,,,78,100
62304,note_on,,,,,4,0,8,,,,,0,,,79,85
62304,note_on,,,,,32,0,13,,,,,5,,,50,100
62368,note_off,,,,,64,0,13,,,,,5,,,50,100
62396,note_off,,,,,92,0,8,,,,,0,,,79,100
62400,note_on,,,,,4,0,8,,,,,0,,,81,85
62400,note_on,,,,,32,0,13,,,,,5,,,50,100
62464,note_off,,,,,256,0,16,,,,,7,,,50,100
62464,note_off,,,,,256,0,14,,,,,6,,,38,100
62464,note_off,,,,,0,0,15,,,,,7,,,69,100
62464,note_off,,,,,256,0,15,,,,,7,,,66,100
62464,note_off,,,,,64,0,8,,,,,0,,,81,100
62464,note_off,,,,,64,0,13,,,,,5,,,50,100
62496,note_on,,,,,32,0,13,,,,,5,,,60,100
62496,note_on,,,,,32,0,8,,,,,0,,,79,85
62560,note_off,,,,,64,0,8,,,,,0,,,79,100
62560,note_off,,,,,64,0,13,,,,,5,,,60,100
62592,note_on,,,,,32,0,13,,,,,5,,,60,100
62592,note_on,,,,,32,0,8,,,,,0,,,78,85
62656,note_off,,,,,64,0,13,,,,,5,,,60,100
62656,note_off,,,,,64,0,8,,,,,0,,,78,100
62688,note_on,,,,,32,0,13,,,,,5,,,50,100
62688,note_on,,,,,32,0,8,,,,,0,,,81,85
62752,note_off,,,,,64,0,13,,,,,5,,,50,100
62752,note_off,,,,,64,0,8,,,,,0,,,81,100
62784,note_on,,,,,32,0,13,,,,,5,,,50,100
62784,note_on,,,,,32,0,8,,,,,0,,,79,85
62848,note_off,,,,,64,0,13,,,,,5,,,50,100
62848,note_off,,,,,64,0,8,,,,,0,,,79,100
62880,note_on,,,,,32,0,13,,,,,5,,,60,100
62880,note_on,,,,,32,0,8,,,,,0,,,78,85
62944,note_off,,,,,64,0,13,,,,,5,,,60,100
62944,note_off,,,,,64,0,8,,,,,0,,,78,100
62976,note_on,,,,,512,0,14,,,,,6,,,43,85
62976,note_on,,,,,512,0,16,,,,,7,,,43,100
62976,note_on,,,,,0,0,15,,,,,7,,,62,100
62976,note_on,,,,,512,0,15,,,,,7,,,58,100
62976,note_on,,,,,32,0,13,,,,,5,,,58,100
62976,note_on,,,,,32,0,8,,,,,0,,,79,85
63040,note_off,,,,,64,0,13,,,,,5,,,58,100
63068,note_off,,,,,92,0,8,,,,,0,,,79,100
63072,note_on,,,,,32,0,13,,,,,5,,,50,100
63072,note_on,,,,,4,0,8,,,,,0,,,81,85
63136,note_off,,,,,64,0,13,,,,,5,,,50,100
63164,note_off,,,,,92,0,8,,,,,0,,,81,100
63168,note_on,,,,,4,0,8,,,,,0,,,82,85
63168,note_on,,,,,32,0,13,,,,,5,,,50,100
63232,note_off,,,,,64,0,8,,,,,0,,,82,100
63232,note_off,,,,,256,0,16,,,,,7,,,43,100
63232,note_off,,,,,64,0,13,,,,,5,,,50,100
63232,note_off,,,,,256,0,15,,,,,7,,,58,100
63232,note_off,,,,,0,0,15,,,,,7,,,62,100
63232,note_off,,,,,256,0,14,,,,,6,,,43,100
63264,note_on,,,,,32,0,13,,,,,5,,,58,100
63264,note_on,,,,,32,0,8,,,,,0,,,81,85
63328,note_off,,,,,64,0,13,,,,,5,,,58,100
63328,note_off,,,,,64,0,8,,,,,0,,,81,100
63360,note_on,,,,,32,0,13,,,,,5,,,58,100
63360,note_on,,,,,32,0,8,,,,,0,,,79,85
63424,note_off,,,,,64,0,13,,,,,5,,,58,100
63424,note_off,,,,,64,0,8,,,,,0,,,79,100
63456,note_on,,,,,32,0,8,,,,,0,,,82,85
63456,note_on,,,,,32,0,13,,,,,5,,,50,100
63520,note_off,,,,,64,0,13,,,,,5,,,50,100
63520,note_off,,,,,64,0,8,,,,,0,,,82,100
63552,note_on,,,,,32,0,13,,,,,5,,,50,100
63552,note_on,,,,,32,0,8,,,,,0,,,81,85
63616,note_off,,,,,64,0,8,,,,,0,,,81,100
63616,note_off,,,,,64,0,13,,,,,5,,,50,100
63648,note_on,,,,,32,0,8,,,,,0,,,79,85
63648,note_on,,,,,32,0,13,,,,,5,,,58,100
63712,note_off,,,,,64,0,13,,,,,5,,,58,100
63712,note_off,,,,,64,0,8,,,,,0,,,79,100
63744,note_on,,,,,512,0,14,,,,,6,,,38,60
63744,note_on,,,,,32,0,13,,,,,5,,,57,60
63744,note_on,,,,,512,0,15,,,,,7,,,66,100
63744,note_on,,,,,0,0,15,,,,,7,,,69,100
63744,note_on,,,,,32,0,8,,,,,0,,,78,70
63744,note_on,,,,,512,0,16,,,,,7,,,50,100
63808,note_off,,,,,64,0,13,,,,,5,,,57,100
63836,note_off,,,,,92,0,8,,,,,0,,,78,100
63840,note_on,,,,,32,0,13,,,,,5,,,50,60
63840,note_on,,,,,4,0,8,,,,,0,,,79,70
63904,note_off,,,,,64,0,13,,,,,5,,,50,100
63932,note_off,,,,,92,0,8,,,,,0,,,79,100
63936,note_on,,,,,4,0,8,,,,,0,,,81,70
63936,note_on,,,,,32,0,13,,,,,5,,,50,60
64000,note_off,,,,,64,0,13,,,,,5,,,50,100
64000,note_off,,,,,256,0,15,,,,,7,,,66,100
64000,note_off,,,,,0,0,15,,,,,7,,,69,100
64000,note_off,,,,,64,0,8,,,,,0,,,81,100
64000,note_off,,,,,256,0,16,,,,,7,,,50,100
64000,note_off,,,,,256,0,14,,,,,6,,,38,100
64032,note_on,,,,,32,0,8,,,,,0,,,79,70
64032,note_on,,,,,32,0,13,,,,,5,,,57,60
64096,note_off,,,,,64,0,8,,,,,0,,,79,100
64096,note_off,,,,,64,0,13,,,,,5,,,57,100
64128,note_on,,,,,32,0,8,,,,,0,,,78,70
64128,note_on,,,,,32,0,13,,,,,5,,,57,60
64192,note_off,,,,,64,0,8,,,,,0,,,78,100
64192,note_off,,,,,64,0,13,,,,,5,,,57,100
64224,note_on,,,,,32,0,8,,,,,0,,,81,70
64224,note_on,,,,,32,0,13,,,,,5,,,50,60
64288,note_off,,,,,64,0,8,,,,,0,,,81,100
64288,note_off,,,,,64,0,13,,,,,5,,,50,100
64320,note_on,,,,,32,0,13,,,,,5,,,50,60
64320,note_on,,,,,32,0,8,,,,,0,,,79,70
64384,note_off,,,,,64,0,8,,,,,0,,,79,100
64384,note_off,,,,,64,0,13,,,,,5,,,50,100
64416,note_on,,,,,32,0,8,,,,,0,,,78,70
64416,note_on,,,,,32,0,13,,,,,5,,,57,60
64480,note_off,,,,,64,0,8,,,,,0,,,78,100
64480,note_off,,,,,64,0,13,,,,,5,,,57,100
64512,note_on,,,,,32,0,13,,,,,5,,,58,60
64512,note_on,,,,,512,0,15,,,,,7,,,58,100
64512,note_on,,,,,512,0,14,,,,,6,,,43,60
64512,note_on,,,,,0,0,15,,,,,7,,,62,100
64512,note_on,,,,,512,0,16,,,,,7,,,43,100
64512,note_on,,,,,32,0,8,,,,,0,,,79,70
64576,note_off,,,,,64,0,13,,,,,5,,,58,100
64604,note_off,,,,,92,0,8,,,,,0,,,79,100
64608,note_on,,,,,4,0,8,,,,,0,,,81,70
64608,note_on,,,,,32,0,13,,,,,5,,,50,60
64672,note_off,,,,,64,0,13,,,,,5,,,50,100
64700,note_off,,,,,92,0,8,,,,,0,,,81,100
64704,note_on,,,,,32,0,13,,,,,5,,,50,60
64704,note_on,,,,,4,0,8,,,,,0,,,82,70
64768,note_off,,,,,64,0,8,,,,,0,,,82,100
64768,note_off,,,,,0,0,15,,,,,7,,,62,100
64768,note_off,,,,,256,0,16,,,,,7,,,43,100
64768,note_off,,,,,256,0,15,,,,,7,,,58,100
64768,note_off,,,,,256,0,14,,,,,6,,,43,100
64768,note_off,,,,,64,0,13,,,,,5,,,50,100
64800,note_on,,,,,32,0,8,,,,,0,,,81,70
64800,note_on,,,,,32,0,13,,,,,5,,,58,60
64864,note_off,,,,,64,0,8,,,,,0,,,81,100
64864,note_off,,,,,64,0,13,,,,,5,,,58,100
64896,note_on,,,,,32,0,8,,,,,0,,,79,60
64896,note_on,,,,,32,0,13,,,,,5,,,58,60
64960,note_off,,,,,64,0,8,,,,,0,,,79,100
64960,note_off,,,,,64,0,13,,,,,5,,,58,100
64992,note_on,,,,,32,0,8,,,,,0,,,82,69
64992,note_on,,,,,32,0,13,,,,,5,,,50,60
65056,note_off,,,,,64,0,8,,,,,0,,,82,100
65056,note_off,,,,,64,0,13,,,,,5,,,50,100
65088,note_on,,,,,32,0,8,,,,,0,,,81,79
65088,note_on,,,,,32,0,13,,,,,5,,,50,60
65152,note_off,,,,,64,0,13,,,,,5,,,50,100
65152,note_off,,,,,64,0,8,,,,,0,,,81,100
65184,note_on,,,,,32,0,13,,,,,5,,,58,60
65184,note_on,,,,,32,0,8,,,,,0,,,79,89
65248,note_off,,,,,64,0,13,,,,,5,,,58,100
65248,note_off,,,,,64,0,8,,,,,0,,,79,100
65280,note_on,,,,,512,0,15,,,,,7,,,66,100
65280,note_on,,,,,512,0,16,,,,,7,,,50,100
65280,note_on,,,,,0,0,15,,,,,7,,,69,100
65280,note_on,,,,,32,0,8,,,,,0,,,78,99
65280,note_on,,,,,512,0,14,,,,,6,,,38,85
65280,note_on,,,,,32,0,13,,,,,5,,,57,100
65344,note_off,,,,,64,0,13,,,,,5,,,57,100
65372,note_off,,,,,92,0,8,,,,,0,,,78,100
65376,note_on,,,,,4,0,8,,,,,0,,,79,100
65376,note_on,,,,,32,0,13,,,,,5,,,50,100
65440,note_off,,,,,64,0,13,,,,,5,,,50,100
65468,note_off,,,,,92,0,8,,,,,0,,,79,100
65472,note_on,,,,,32,0,13,,,,,5,,,50,100
65472,note_on,,,,,4,0,8,,,,,0,,,81,100
65536,note_off,,,,,64,0,8,,,,,0,,,81,100
65536,note_off,,,,,64,0,13,,,,,5,,,50,100
65536,note_off,,,,,256,0,14,,,,,6,,,38,100
65536,note_off,,,,,256,0,15,,,,,7,,,66,100
65536,note_off,,,,,0,0,15,,,,,7,,,69,100
65536,note_off,,,,,256,0,16,,,,,7,,,50,100
65568,note_on,,,,,32,0,8,,,,,0,,,79,100
65568,note_on,,,,,32,0,13,,,,,5,,,57,100
65632,note_off,,,,,64,0,13,,,,,5,,,57,100
65632,note_off,,,,,64,0,8,,,,,0,,,79,100
65664,note_on,,,,,32,0,8,,,,,0,,,78,100
65664,note_on,,,,,32,0,13,,,,,5,,,57,100
65728,note_off,,,,,64,0,13,,,,,5,,,57,100
65728,note_off,,,,,64,0,8,,,,,0,,,78,100
65760,note_on,,,,,32,0,8,,,,,0,,,81,100
65760,note_on,,,,,32,0,13,,,,,5,,,50,100
65824,note_off,,,,,64,0,8,,,,,0,,,81,100
65824,note_off,,,,,64,0,13,,,,,5,,,50,100
65856,note_on,,,,,32,0,8,,,,,0,,,79,100
65856,note_on,,,,,32,0,13,,,,,5,,,50,100
65920,note_off,,,,,64,0,8,,,,,0,,,79,100
65920,note_off,,,,,64,0,13,,,,,5,,,50,100
65952,note_on,,,,,32,0,8,,,,,0,,,78,100
65952,note_on,,,,,32,0,13,,,,,5,,,57,100
66016,note_off,,,,,64,0,13,,,,,5,,,57,100
66016,note_off,,,,,64,0,8,,,,,0,,,78,100
66048,note_on,,,,,32,0,13,,,,,5,,,58,100
66048,note_on,,,,,0,0,15,,,,,7,,,58,100
66048,note_on,,,,,512,0,15,,,,,7,,,62,100
66048,note_on,,,,,512,0,14,,,,,6,,,43,85
66048,note_on,,,,,512,0,16,,,,,7,,,43,100
66048,note_on,,,,,32,0,8,,,,,0,,,79,100
66112,note_off,,,,,64,0,13,,,,,5,,,58,100
66140,note_off,,,,,92,0,8,,,,,0,,,79,100
66144,note_on,,,,,32,0,13,,,,,5,,,50,100
66144,note_on,,,,,4,0,8,,,,,0,,,81,100
66208,note_off,,,,,64,0,13,,,,,5,,,50,100
66236,note_off,,,,,92,0,8,,,,,0,,,81,100
66240,note_on,,,,,4,0,8,,,,,0,,,82,100
66240,note_on,,,,,32,0,13,,,,,5,,,50,100
66304,note_off,,,,,0,0,15,,,,,7,,,58,100
66304,note_off,,,,,256,0,14,,,,,6,,,43,100
66304,note_off,,,,,256,0,15,,,,,7,,,62,100
66304,note_off,,,,,256,0,16,,,,,7,,,43,100
66304,note_off,,,,,64,0,8,,,,,0,,,82,100
66304,note_off,,,,,64,0,13,,,,,5,,,50,100
66336,note_on,,,,,32,0,8,,,,,0,,,81,100
66336,note_on,,,,,32,0,13,,,,,5,,,58,100
66400,note_off,,,,,64,0,8,,,,,0,,,81,100
66400,note_off,,,,,64,0,13,,,,,5,,,58,100
66432,note_on,,,,,32,0,13,,,,,5,,,58,100
66432,note_on,,,,,32,0,8,,,,,0,,,79,100
66496,note_off,,,,,64,0,8,,,,,0,,,79,100
66496,note_off,,,,,64,0,13,,,,,5,,,58,100
66528,note_on,,,,,32,0,8,,,,,0,,,77,100
66528,note_on,,,,,32,0,13,,,,,5,,,50,100
66592,note_off,,,,,64,0,13,,,,,5,,,50,100
66592,note_off,,,,,64,0,8,,,,,0,,,77,100
66624,note_on,,,,,32,0,13,,,,,5,,,50,100
66624,note_on,,,,,32,0,8,,,,,0,,,76,100
66688,note_off,,,,,64,0,8,,,,,0,,,76,100
66688,note_off,,,,,64,0,13,,,,,5,,,50,100
66720,note_on,,,,,32,0,13,,,,,5,,,58,100
66720,note_on,,,,,32,0,8,,,,,0,,,74,100
66784,note_off,,,,,64,0,8,,,,,0,,,74,100
66784,note_off,,,,,64,0,13,,,,,5,,,58,100
66816,note_on,,,,,32,0,8,,,,,0,,,73,100
66816,note_on,,,,,512,0,16,,,,,7,,,45,100
66816,note_on,,,,,0,0,15,,,,,7,,,61,100
66816,note_on,,,,,512,0,15,,,,,7,,,64,100
66816,note_on,,,,,512,0,14,,,,,6,,,33,100
66816,note_on,,,,,32,0,13,,,,,5,,,57,100
66880,note_off,,,,,64,0,8,,,,,0,,,73,100
66912,note_on,,,,,32,0,8,,,,,0,,,71,100
66944,note_off,,,,,128,0,13,,,,,5,,,57,100
66944,note_off,,,,,128,0,14,,,,,6,,,33,100
66944,note_off,,,,,128,0,16,,,,,7,,,45,100
66976,note_off,,,,,64,0,8,,,,,0,,,71,100
67008,note_on,,,,,32,0,8,,,,,0,,,69,100
67008,note_on,,,,,64,0,13,,,,,5,,,45,100
67008,note_on,,,,,64,0,16,,,,,7,,,45,100
67008,note_on,,,,,64,0,14,,,,,6,,,33,100
67072,note_off,,,,,64,0,13,,,,,5,,,45,100
67072,note_off,,,,,0,0,15,,,,,7,,,61,100
67072,note_off,,,,,256,0,15,,,,,7,,,64,100
67072,note_off,,,,,64,0,14,,,,,6,,,33,100
67072,note_off,,,,,64,0,16,,,,,7,,,45,100
67104,note_on,,,,,32,0,13,,,,,5,,,47,100
67104,note_on,,,,,32,0,16,,,,,7,,,47,100
67104,note_on,,,,,32,0,14,,,,,6,,,35,100
67136,note_off,,,,,128,0,8,,,,,0,,,69,100
67168,note_off,,,,,64,0,14,,,,,6,,,35,100
67168,note_off,,,,,64,0,13,,,,,5,,,47,100
67168,note_off,,,,,64,0,16,,,,,7,,,47,100
67200,note_on,,,,,0,0,15,,,,,7,,,64,100
67200,note_on,,,,,32,0,16,,,,,7,,,49,100
67200,note_on,,,,,32,0,13,,,,,5,,,49,100
67200,note_on,,,,,128,0,15,,,,,7,,,69,100
67200,note_on,,,,,32,0,14,,,,,6,,,37,100
67264,note_off,,,,,64,0,13,,,,,5,,,49,100
67296,note_on,,,,,32,0,13,,,,,5,,,47,100
67328,note_off,,,,,0,0,15,,,,,7,,,64,100
67328,note_off,,,,,128,0,16,,,,,7,,,49,100
67328,note_off,,,,,128,0,14,,,,,6,,,37,100
67328,note_off,,,,,128,0,15,,,,,7,,,69,100
67360,note_off,,,,,64,0,13,,,,,5,,,47,100
67392,note_on,,,,,32,0,13,,,,,5,,,49,100
67392,note_on,,,,,64,0,14,,,,,6,,,33,100
67392,note_on,,,,,256,0,8,,,,,0,,,81,100
67392,note_on,,,,,0,0,15,,,,,7,,,68,100
67392,note_on,,,,,64,0,15,,,,,7,,,64,100
67392,note_on,,,,,64,0,16,,,,,7,,,45,100
67456,note_off,,,,,64,0,8,,,,,0,,,81,100
67456,note_off,,,,,64,0,13,,,,,5,,,49,100
67488,note_on,,,,,32,0,8,,,,,0,,,79,100
67488,note_on,,,,,32,0,13,,,,,5,,,45,100
67520,note_off,,,,,0,0,15,,,,,7,,,68,100
67520,note_off,,,,,128,0,15,,,,,7,,,64,100
67520,note_off,,,,,128,0,16,,,,,7,,,45,100
67520,note_off,,,,,128,0,14,,,,,6,,,33,100
67552,note_off,,,,,64,0,13,,,,,5,,,45,100
67552,note_off,,,,,64,0,8,,,,,0,,,79,100
67580,program_change,,,,,28,0,13,,,,,5,48,,,
67584,note_on,,,,,4,0,13,,,,,5,,,50,100
67584,note_on,,,,,0,0,15,,,,,7,,,69,100
67584,note_on,,,,,64,0,15,,,,,7,,,65,100
67584,note_on,,,,,64,0,14,,,,,6,,,38,100
67584,note_on,,,,,64,0,16,,,,,7,,,50,100
67584,note_on,,,,,32,0,8,,,,,0,,,77,100
67712,note_off,,,,,128,0,14,,,,,6,,,38,100
67712,note_off,,,,,128,0,13,,,,,5,,,50,100
67712,note_off,,,,,128,0,8,,,,,0,,,77,100
67712,note_off,,,,,128,0,15,,,,,7,,,65,100
67712,note_off,,,,,0,0,15,,,,,7,,,69,100
67712,note_off,,,,,128,0,16,,,,,7,,,50,100
67776,note_on,,,,,64,0,8,,,,,0,,,76,100
67776,note_on,,,,,64,0,13,,,,,5,,,55,100
67776,note_on,,,,,64,0,16,,,,,7,,,55,100
67776,note_on,,,,,64,0,14,,,,,6,,,43,100
67776,note_on,,,,,64,0,15,,,,,7,,,62,100
67776,note_on,,,,,0,0,15,,,,,7,,,70,100
67840,note_off,,,,,64,0,8,,,,,0,,,76,100
67872,note_on,,,,,32,0,8,,,,,0,,,74,100
67904,note_off,,,,,128,0,15,,,,,7,,,62,100
67904,note_off,,,,,128,0,14,,,,,6,,,43,100
67904,note_off,,,,,128,0,13,,,,,5,,,55,100
67904,note_off,,,,,0,0,15,,,,,7,,,70,100
67904,note_off,,,,,128,0,16,,,,,7,,,55,100
67936,note_off,,,,,64,0,8,,,,,0,,,74,100
67968,note_on,,,,,64,0,16,,,,,7,,,57,100
67968,note_on,,,,,64,0,14,,,,,6,,,45,100
67968,note_on,,,,,0,0,15,,,,,7,,,64,100
67968,note_on,,,,,32,0,8,,,,,0,,,73,100
67968,note_on,,,,,64,0,13,,,,,5,,,57,100
67968,note_on,,,,,64,0,15,,,,,7,,,73,100
68012,note_off,,,,,44,0,8,,,,,0,,,73,100
68016,note_on,,,,,4,0,8,,,,,0,,,74,100
68060,note_off,,,,,44,0,8,,,,,0,,,74,100
68064,note_on,,,,,4,0,8,,,,,0,,,73,100
68096,note_off,,,,,128,0,16,,,,,7,,,57,100
68096,note_off,,,,,128,0,14,,,,,6,,,45,100
68096,note_off,,,,,128,0,15,,,,,7,,,73,100
68096,note_off,,,,,128,0,13,,,,,5,,,57,100
68096,note_off,,,,,0,0,15,,,,,7,,,64,100
68108,note_off,,,,,44,0,8,,,,,0,,,73,100
68112,note_on,,,,,4,0,8,,,,,0,,,74,100
68156,note_off,,,,,44,0,8,,,,,0,,,74,100
68160,note_on,,,,,4,0,8,,,,,0,,,73,100
68160,note_on,,,,,64,0,16,,,,,7,,,45,100
68160,note_on,,,,,0,0,15,,,,,7,,,61,100
68160,note_on,,,,,64,0,15,,,,,7,,,64,100
68160,note_on,,,,,64,0,14,,,,,6,,,33,100
68160,note_on,,,,,64,0,13,,,,,5,,,45,100
68252,note_off,,,,,92,0,8,,,,,0,,,73,100
68256,note_on,,,,,4,0,8,,,,,0,,,74,100
68288,note_off,,,,,0,0,15,,,,,7,,,61,100
68288,note_off,,,,,128,0,15,,,,,7,,,64,100
68288,note_off,,,,,128,0,16,,,,,7,,,45,100
68288,note_off,,,,,128,0,14,,,,,6,,,33,100
68288,note_off,,,,,128,0,13,,,,,5,,,45,100
68320,note_off,,,,,64,0,8,,,,,0,,,74,100
68348,program_change,,,,,18172,0,10,,,,,2,48,,,
68352,note_on,,,,,64,0,14,,,,,6,,,38,100
68352,note_on,,,,,18176,0,12,,,,,4,,,57,100
68352,note_on,,,,,0,0,12,,,,,4,,,65,100
68352,note_on,,,,,0,0,15,,,,,7,,,62,100
68352,note_on,,,,,11520,0,11,,,,,3,,,74,50
68352,note_on,,,,,64,0,16,,,,,7,,,50,100
68352,note_on,,,,,64,0,13,,,,,5,,,50,100
68352,note_on,,,,,4,0,10,,,,,2,,,74,110
68352,note_on,,,,,32,0,8,,,,,0,,,74,100
68352,note_on,,,,,64,0,15,,,,,7,,,69,100
68352,note_on,,,,,0,0,15,,,,,7,,,65,100
68480,note_off,,,,,128,0,11,,,,,3,,,74,100
68480,note_off,,,,,128,0,8,,,,,0,,,74,100
68480,note_off,,,,,128,0,10,,,,,2,,,74,100
68544,note_on,,,,,64,0,10,,,,,2,,,72,110
68544,note_on,,,,,64,0,11,,,,,3,,,72,50
68608,note_off,,,,,64,0,10,,,,,2,,,72,100
68608,note_off,,,,,256,0,12,,,,,4,,,57,100
68608,note_off,,,,,0,0,15,,,,,7,,,62,100
68608,note_off,,,,,256,0,16,,,,,7,,,50,100
68608,note_off,,,,,0,0,15,,,,,7,,,65,100
68608,note_off,,,,,256,0,15,,,,,7,,,69,100
68608,note_off,,,,,0,0,12,,,,,4,,,65,100
68608,note_off,,,,,256,0,13,,,,,5,,,50,100
68608,note_off,,,,,256,0,14,,,,,6,,,38,100
68608,note_off,,,,,64,0,11,,,,,3,,,72,100
68640,note_on,,,,,32,0,11,,,,,3,,,70,50
68640,note_on,,,,,32,0,10,,,,,2,,,70,110
68704,note_off,,,,,64,0,10,,,,,2,,,70,100
68704,note_off,,,,,64,0,11,,,,,3,,,70,100
68736,note_on,,,,,32,0,10,,,,,2,,,69,110
68736,note_on,,,,,32,0,11,,,,,3,,,69,50
68800,note_off,,,,,64,0,10,,,,,2,,,69,100
68800,note_off,,,,,64,0,11,,,,,3,,,69,100
68832,note_on,,,,,32,0,11,,,,,3,,,67,50
68832,note_on,,,,,32,0,10,,,,,2,,,67,110
68896,note_off,,,,,64,0,10,,,,,2,,,67,100
68896,note_off,,,,,64,0,11,,,,,3,,,67,100
68928,note_on,,,,,32,0,10,,,,,2,,,65,110
68928,note_on,,,,,32,0,11,,,,,3,,,65,50
68992,note_off,,,,,64,0,10,,,,,2,,,65,100
68992,note_off,,,,,64,0,11,,,,,3,,,65,100
69024,note_on,,,,,32,0,10,,,,,2,,,64,110
69024,note_on,,,,,32,0,11,,,,,3,,,64,50
69088,note_off,,,,,64,0,11,,,,,3,,,64,100
69088,note_off,,,,,64,0,10,,,,,2,,,64,100
69120,note_on,,,,,32,0,10,,,,,2,,,62,110
69120,note_on,,,,,0,0,15,,,,,7,,,65,100
69120,note_on,,,,,0,0,15,,,,,7,,,62,100
69120,note_on,,,,,512,0,13,,,,,5,,,50,100
69120,note_on,,,,,512,0,16,,,,,7,,,50,100
69120,note_on,,,,,32,0,11,,,,,3,,,62,50
69120,note_on,,,,,512,0,14,,,,,6,,,38,100
69120,note_on,,,,,512,0,12,,,,,4,,,65,100
69120,note_on,,,,,512,0,15,,,,,7,,,69,100
69120,note_on,,,,,0,0,12,,,,,4,,,57,100
69184,note_off,,,,,64,0,11,,,,,3,,,62,100
69184,note_off,,,,,64,0,10,,,,,2,,,62,100
69216,note_on,,,,,32,0,10,,,,,2,,,64,110
69216,note_on,,,,,32,0,11,,,,,3,,,64,50
69280,note_off,,,,,64,0,11,,,,,3,,,64,100
69280,note_off,,,,,64,0,10,,,,,2,,,64,100
69312,note_on,,,,,32,0,11,,,,,3,,,65,50
69312,note_on,,,,,32,0,10,,,,,2,,,65,110
69376,note_off,,,,,64,0,11,,,,,3,,,65,100
69376,note_off,,,,,256,0,14,,,,,6,,,38,100
69376,note_off,,,,,256,0,16,,,,,7,,,50,100
69376,note_off,,,,,256,0,12,,,,,4,,,65,100
69376,note_off,,,,,0,0,12,,,,,4,,,57,100
69376,note_off,,,,,64,0,10,,,,,2,,,65,100
69376,note_off,,,,,0,0,15,,,,,7,,,62,100
69376,note_off,,,,,256,0,15,,,,,7,,,69,100
69376,note_off,,,,,256,0,13,,,,,5,,,50,100
69376,note_off,,,,,0,0,15,,,,,7,,,65,100
69408,note_on,,,,,32,0,10,,,,,2,,,67,110
69408,note_on,,,,,32,0,11,,,,,3,,,67,50
69472,note_off,,,,,64,0,11,,,,,3,,,67,100
69472,note_off,,,,,64,0,10,,,,,2,,,67,100
69504,note_on,,,,,32,0,11,,,,,3,,,69,50
69504,note_on,,,,,32,0,10,,,,,2,,,69,110
69568,note_off,,,,,64,0,11,,,,,3,,,69,100
69568,note_off,,,,,64,0,10,,,,,2,,,69,100
69600,note_on,,,,,32,0,11,,,,,3,,,71,50
69600,note_on,,,,,32,0,10,,,,,2,,,71,110
69664,note_off,,,,,64,0,11,,,,,3,,,71,100
69664,note_off,,,,,64,0,10,,,,,2,,,71,100
69696,note_on,,,,,32,0,10,,,,,2,,,73,110
69696,note_on,,,,,32,0,11,,,,,3,,,73,50
69760,note_off,,,,,64,0,11,,,,,3,,,73,100
69760,note_off,,,,,64,0,10,,,,,2,,,73,100
69792,note_on,,,,,32,0,11,,,,,3,,,74,50
69792,note_on,,,,,32,0,10,,,,,2,,,74,110
69856,note_off,,,,,64,0,11,,,,,3,,,74,100
69856,note_off,,,,,64,0,10,,,,,2,,,74,100
69888,note_on,,,,,32,0,10,,,,,2,,,73,110
69888,note_on,,,,,0,0,12,,,,,4,,,57,100
69888,note_on,,,,,512,0,12,,,,,4,,,64,100
69888,note_on,,,,,512,0,16,,,,,7,,,57,100
69888,note_on,,,,,512,0,14,,,,,6,,,45,100
69888,note_on,,,,,512,0,13,,,,,5,,,57,100
69888,note_on,,,,,32,0,11,,,,,3,,,73,50
69888,note_on,,,,,512,0,15,,,,,7,,,64,100
69888,note_on,,,,,0,0,15,,,,,7,,,73,100
70016,note_off,,,,,128,0,10,,,,,2,,,73,100
70016,note_off,,,,,128,0,14,,,,,6,,,45,100
70016,note_off,,,,,128,0,13,,,,,5,,,57,100
70016,note_off,,,,,128,0,11,,,,,3,,,73,100
70016,note_off,,,,,128,0,16,,,,,7,,,57,100
70080,note_on,,,,,64,0,16,,,,,7,,,55,100
70080,note_on,,,,,64,0,13,,,,,5,,,55,100
70080,note_on,,,,,64,0,10,,,,,2,,,69,110
70080,note_on,,,,,64,0,11,,,,,3,,,69,50
70080,note_on,,,,,64,0,14,,,,,6,,,43,100
70144,note_off,,,,,256,0,15,,,,,7,,,64,100
70144,note_off,,,,,256,0,12,,,,,4,,,64,100
70144,note_off,,,,,0,0,15,,,,,7,,,73,100
70144,note_off,,,,,0,0,12,,,,,4,,,57,100
70208,note_off,,,,,128,0,16,,,,,7,,,55,100
70208,note_off,,,,,128,0,13,,,,,5,,,55,100
70208,note_off,,,,,128,0,14,,,,,6,,,43,100
70208,note_off,,,,,128,0,10,,,,,2,,,69,100
70208,note_off,,,,,128,0,11,,,,,3,,,69,100
70272,note_on,,,,,0,0,15,,,,,7,,,69,100
70272,note_on,,,,,64,0,13,,,,,5,,,54,100
70272,note_on,,,,,64,0,16,,,,,7,,,54,100
70272,note_on,,,,,128,0,15,,,,,7,,,74,100
70272,note_on,,,,,128,0,12,,,,,4,,,69,100
70272,note_on,,,,,64,0,14,,,,,6,,,42,100
70368,note_on,,,,,160,0,11,,,,,3,,,74,50
70368,note_on,,,,,160,0,10,,,,,2,,,74,110
70400,note_off,,,,,128,0,16,,,,,7,,,54,100
70400,note_off,,,,,0,0,15,,,,,7,,,69,100
70400,note_off,,,,,128,0,15,,,,,7,,,74,100
70400,note_off,,,,,128,0,14,,,,,6,,,42,100
70400,note_off,,,,,128,0,12,,,,,4,,,69,100
70400,note_off,,,,,128,0,13,,,,,5,,,54,100
70432,note_off,,,,,64,0,11,,,,,3,,,74,100
70432,note_off,,,,,64,0,10,,,,,2,,,74,100
70464,note_on,,,,,0,0,15,,,,,7,,,69,100
70464,note_on,,,,,64,0,15,,,,,7,,,64,100
70464,note_on,,,,,64,0,14,,,,,6,,,38,99
70464,note_on,,,,,64,0,12,,,,,4,,,66,99
70464,note_on,,,,,64,0,13,,,,,5,,,50,99
70464,note_on,,,,,32,0,11,,,,,3,,,72,49
70464,note_on,,,,,64,0,16,,,,,7,,,50,100
70464,note_on,,,,,32,0,10,,,,,2,,,72,109
70528,note_off,,,,,64,0,10,,,,,2,,,72,100
70528,note_off,,,,,64,0,11,,,,,3,,,72,100
70560,note_on,,,,,32,0,10,,,,,2,,,74,109
70560,note_on,,,,,32,0,11,,,,,3,,,74,49
70592,note_off,,,,,128,0,13,,,,,5,,,50,100
70592,note_off,,,,,128,0,14,,,,,6,,,38,100
70592,note_off,,,,,0,0,15,,,,,7,,,69,100
70592,note_off,,,,,128,0,15,,,,,7,,,64,100
70592,note_off,,,,,128,0,16,,,,,7,,,50,100
70592,note_off,,,,,128,0,12,,,,,4,,,66,100
70624,note_off,,,,,64,0,10,,,,,2,,,74,100
70624,note_off,,,,,64,0,11,,,,,3,,,74,100
70656,note_on,,,,,32,0,11,,,,,3,,,70,48
70656,note_on,,,,,32,0,10,,,,,2,,,70,108
70656,note_on,,,,,64,0,16,,,,,7,,,55,100
70656,note_on,,,,,64,0,15,,,,,7,,,64,100
70656,note_on,,,,,0,0,15,,,,,7,,,70,100
70656,note_on,,,,,64,0,13,,,,,5,,,55,98
70656,note_on,,,,,64,0,12,,,,,4,,,62,98
70656,note_on,,,,,64,0,14,,,,,6,,,43,98
70720,note_off,,,,,64,0,11,,,,,3,,,70,100
70720,note_off,,,,,64,0,10,,,,,2,,,70,100
70752,note_on,,,,,32,0,10,,,,,2,,,69,107
70752,note_on,,,,,32,0,11,,,,,3,,,69,47
70784,note_off,,,,,128,0,15,,,,,7,,,64,100
70784,note_off,,,,,128,0,16,,,,,7,,,55,100
70784,note_off,,,,,128,0,13,,,,,5,,,55,100
70784,note_off,,,,,128,0,14,,,,,6,,,43,100
70784,note_off,,,,,0,0,15,,,,,7,,,70,100
70816,note_off,,,,,64,0,10,,,,,2,,,69,100
70816,note_off,,,,,64,0,11,,,,,3,,,69,100
70848,note_on,,,,,64,0,14,,,,,6,,,34,97
70848,note_on,,,,,64,0,15,,,,,7,,,62,100
70848,note_on,,,,,32,0,10,,,,,2,,,67,107
70848,note_on,,,,,64,0,13,,,,,5,,,46,97
70848,note_on,,,,,0,0,15,,,,,7,,,65,100
70848,note_on,,,,,64,0,16,,,,,7,,,46,100
70848,note_on,,,,,32,0,11,,,,,3,,,67,47
70912,note_off,,,,,64,0,10,,,,,2,,,67,100
70912,note_off,,,,,64,0,11,,,,,3,,,67,100
70912,note_off,,,,,256,0,12,,,,,4,,,62,100
70944,note_on,,,,,32,0,10,,,,,2,,,65,106
70944,note_on,,,,,32,0,11,,,,,3,,,65,46
70976,note_off,,,,,128,0,15,,,,,7,,,62,100
70976,note_off,,,,,0,0,15,,,,,7,,,65,100
70976,note_off,,,,,128,0,13,,,,,5,,,46,100
70976,note_off,,,,,128,0,16,,,,,7,,,46,100
70976,note_off,,,,,128,0,14,,,,,6,,,34,100
71008,note_off,,,,,64,0,11,,,,,3,,,65,100
71008,note_off,,,,,64,0,10,,,,,2,,,65,100
71040,note_on,,,,,32,0,11,,,,,3,,,64,46
71040,note_on,,,,,64,0,15,,,,,7,,,64,100
71040,note_on,,,,,0,0,15,,,,,7,,,67,100
71040,note_on,,,,,64,0,16,,,,,7,,,48,100
71040,note_on,,,,,64,0,13,,,,,5,,,48,96
71040,note_on,,,,,64,0,14,,,,,6,,,36,96
71040,note_on,,,,,32,0,10,,,,,2,,,64,106
71040,note_on,,,,,128,0,12,,,,,4,,,55,96
71168,note_off,,,,,0,0,15,,,,,7,,,67,100
71168,note_off,,,,,128,0,15,,,,,7,,,64,100
71168,note_off,,,,,128,0,13,,,,,5,,,48,100
71168,note_off,,,,,128,0,10,,,,,2,,,64,100
71168,note_off,,,,,128,0,11,,,,,3,,,64,100
71168,note_off,,,,,128,0,14,,,,,6,,,36,100
71168,note_off,,,,,128,0,16,,,,,7,,,48,100
71232,note_on,,,,,64,0,15,,,,,7,,,55,100
71232,note_on,,,,,0,0,15,,,,,7,,,64,100
71232,note_on,,,,,64,0,16,,,,,7,,,40,100
71232,note_on,,,,,64,0,11,,,,,3,,,72,44
71232,note_on,,,,,64,0,14,,,,,6,,,40,94
71232,note_on,,,,,64,0,10,,,,,2,,,72,104
71232,note_on,,,,,64,0,13,,,,,5,,,40,94
71296,note_off,,,,,256,0,12,,,,,4,,,55,100
71360,note_off,,,,,128,0,13,,,,,5,,,40,100
71360,note_off,,,,,128,0,11,,,,,3,,,72,100
71360,note_off,,,,,128,0,15,,,,,7,,,55,100
71360,note_off,,,,,128,0,10,,,,,2,,,72,100
71360,note_off,,,,,0,0,15,,,,,7,,,64,100
71360,note_off,,,,,128,0,14,,,,,6,,,40,100
71360,note_off,,,,,128,0,16,,,,,7,,,40,100
71424,note_on,,,,,64,0,10,,,,,2,,,69,103
71424,note_on,,,,,64,0,14,,,,,6,,,41,93
71424,note_on,,,,,64,0,13,,,,,5,,,41,93
71424,note_on,,,,,64,0,15,,,,,7,,,57,100
71424,note_on,,,,,64,0,11,,,,,3,,,69,43
71424,note_on,,,,,64,0,16,,,,,7,,,41,100
71424,note_on,,,,,0,0,15,,,,,7,,,60,100
71424,note_on,,,,,128,0,12,,,,,4,,,60,93
71552,note_off,,,,,128,0,11,,,,,3,,,69,100
71552,note_off,,,,,128,0,10,,,,,2,,,69,100
71552,note_off,,,,,128,0,14,,,,,6,,,41,100
71552,note_off,,,,,128,0,13,,,,,5,,,41,100
71552,note_off,,,,,128,0,16,,,,,7,,,41,100
71616,note_on,,,,,64,0,13,,,,,5,,,53,92
71616,note_on,,,,,64,0,10,,,,,2,,,65,102
71616,note_on,,,,,64,0,16,,,,,7,,,53,100
71616,note_on,,,,,64,0,11,,,,,3,,,65,42
71616,note_on,,,,,64,0,14,,,,,6,,,41,92
71680,note_off,,,,,256,0,12,,,,,4,,,60,100
71680,note_off,,,,,64,0,13,,,,,5,,,53,100
71680,note_off,,,,,0,0,15,,,,,7,,,60,100
71680,note_off,,,,,64,0,16,,,,,7,,,53,100
71680,note_off,,,,,256,0,15,,,,,7,,,57,100
71680,note_off,,,,,64,0,14,,,,,6,,,41,100
71712,note_on,,,,,32,0,13,,,,,5,,,52,91
71712,note_on,,,,,32,0,16,,,,,7,,,52,100
71712,note_on,,,,,32,0,14,,,,,6,,,40,91
71744,note_off,,,,,128,0,10,,,,,2,,,65,100
71744,note_off,,,,,128,0,11,,,,,3,,,65,100
71776,note_off,,,,,64,0,13,,,,,5,,,52,100
71776,note_off,,,,,64,0,16,,,,,7,,,52,100
71776,note_off,,,,,64,0,14,,,,,6,,,40,100
71808,note_on,,,,,32,0,16,,,,,7,,,50,100
71808,note_on,,,,,32,0,13,,,,,5,,,50,91
71808,note_on,,,,,128,0,12,,,,,4,,,65,91
71808,note_on,,,,,0,0,15,,,,,7,,,69,100
71808,note_on,,,,,128,0,15,,,,,7,,,65,100
71808,note_on,,,,,32,0,14,,,,,6,,,38,91
71904,note_on,,,,,160,0,11,,,,,3,,,70,40
71904,note_on,,,,,160,0,10,,,,,2,,,70,100
71936,note_off,,,,,0,0,15,,,,,7,,,69,100
71936,note_off,,,,,128,0,15,,,,,7,,,65,100
71936,note_off,,,,,128,0,14,,,,,6,,,38,100
71936,note_off,,,,,128,0,16,,,,,7,,,50,100
71936,note_off,,,,,128,0,12,,,,,4,,,65,100
71936,note_off,,,,,128,0,13,,,,,5,,,50,100
71968,note_off,,,,,64,0,10,,,,,2,,,70,100
71968,note_off,,,,,64,0,11,,,,,3,,,70,100
72000,note_on,,,,,64,0,16,,,,,7,,,46,100
72000,note_on,,,,,64,0,14,,,,,6,,,34,89
72000,note_on,,,,,64,0,12,,,,,4,,,62,89
72000,note_on,,,,,64,0,15,,,,,7,,,65,100
72000,note_on,,,,,0,0,15,,,,,7,,,60,100
72000,note_on,,,,,64,0,13,,,,,5,,,46,89
72000,note_on,,,,,32,0,11,,,,,3,,,69,39
72000,note_on,,,,,32,0,10,,,,,2,,,69,99
72064,note_off,,,,,64,0,11,,,,,3,,,69,100
72064,note_off,,,,,64,0,10,,,,,2,,,69,100
72096,note_on,,,,,32,0,11,,,,,3,,,70,39
72096,note_on,,,,,32,0,10,,,,,2,,,70,99
72128,note_off,,,,,128,0,16,,,,,7,,,46,100
72128,note_off,,,,,128,0,13,,,,,5,,,46,100
72128,note_off,,,,,128,0,15,,,,,7,,,65,100
72128,note_off,,,,,0,0,15,,,,,7,,,60,100
72128,note_off,,,,,128,0,12,,,,,4,,,62,100
72128,note_off,,,,,128,0,14,,,,,6,,,34,100
72160,note_off,,,,,64,0,10,,,,,2,,,70,100
72160,note_off,,,,,64,0,11,,,,,3,,,70,100
72192,note_on,,,,,0,0,15,,,,,7,,,58,100
72192,note_on,,,,,64,0,14,,,,,6,,,40,88
72192,note_on,,,,,64,0,15,,,,,7,,,62,100
72192,note_on,,,,,64,0,16,,,,,7,,,52,100
72192,note_on,,,,,32,0,10,,,,,2,,,67,98
72192,note_on,,,,,64,0,13,,,,,5,,,52,88
72192,note_on,,,,,64,0,12,,,,,4,,,58,88
72192,note_on,,,,,32,0,11,,,,,3,,,67,38
72256,note_off,,,,,64,0,10,,,,,2,,,67,100
72256,note_off,,,,,64,0,11,,,,,3,,,67,100
72288,note_on,,,,,32,0,11,,,,,3,,,65,37
72288,note_on,,,,,32,0,10,,,,,2,,,65,97
72320,note_off,,,,,128,0,16,,,,,7,,,52,100
72320,note_off,,,,,128,0,13,,,,,5,,,52,100
72320,note_off,,,,,0,0,15,,,,,7,,,58,100
72320,note_off,,,,,128,0,15,,,,,7,,,62,100
72320,note_off,,,,,128,0,14,,,,,6,,,40,100
72352,note_off,,,,,64,0,11,,,,,3,,,65,100
72352,note_off,,,,,64,0,10,,,,,2,,,65,100
72384,note_on,,,,,64,0,14,,,,,6,,,43,87
72384,note_on,,,,,64,0,16,,,,,7,,,55,100
72384,note_on,,,,,64,0,15,,,,,7,,,64,100
72384,note_on,,,,,64,0,13,,,,,5,,,55,87
72384,note_on,,,,,32,0,10,,,,,2,,,64,97
72384,note_on,,,,,0,0,15,,,,,7,,,62,100
72384,note_on,,,,,32,0,11,,,,,3,,,64,37
72448,note_off,,,,,64,0,10,,,,,2,,,64,100
72448,note_off,,,,,256,0,12,,,,,4,,,58,100
72448,note_off,,,,,64,0,11,,,,,3,,,64,100
72480,note_on,,,,,32,0,10,,,,,2,,,62,96
72480,note_on,,,,,32,0,11,,,,,3,,,62,36
72512,note_off,,,,,128,0,13,,,,,5,,,55,100
72512,note_off,,,,,128,0,15,,,,,7,,,64,100
72512,note_off,,,,,0,0,15,,,,,7,,,62,100
72512,note_off,,,,,128,0,16,,,,,7,,,55,100
72512,note_off,,,,,128,0,14,,,,,6,,,43,100
72544,note_off,,,,,64,0,10,,,,,2,,,62,100
72544,note_off,,,,,64,0,11,,,,,3,,,62,100
72576,note_on,,,,,64,0,16,,,,,7,,,57,100
72576,note_on,,,,,64,0,13,,,,,5,,,57,86
72576,note_on,,,,,32,0,10,,,,,2,,,61,96
72576,note_on,,,,,64,0,15,,,,,7,,,61,100
72576,note_on,,,,,64,0,14,,,,,6,,,45,86
72576,note_on,,,,,128,0,12,,,,,4,,,64,100
72576,note_on,,,,,0,0,15,,,,,7,,,64,100
72576,note_on,,,,,32,0,11,,,,,3,,,61,36
72704,note_off,,,,,0,0,15,,,,,7,,,64,100
72704,note_off,,,,,128,0,16,,,,,7,,,57,100
72704,note_off,,,,,128,0,11,,,,,3,,,61,100
72704,note_off,,,,,128,0,13,,,,,5,,,57,100
72704,note_off,,,,,128,0,14,,,,,6,,,45,100
72704,note_off,,,,,128,0,10,,,,,2,,,61,100
72704,note_off,,,,,128,0,15,,,,,7,,,61,100
72768,note_on,,,,,64,0,14,,,,,6,,,37,100
72768,note_on,,,,,64,0,11,,,,,3,,,69,50
72768,note_on,,,,,64,0,16,,,,,7,,,49,100
72768,note_on,,,,,0,0,15,,,,,7,,,64,100
72768,note_on,,,,,64,0,10,,,,,2,,,69,110
72768,note_on,,,,,64,0,15,,,,,7,,,57,100
72768,note_on,,,,,64,0,13,,,,,5,,,49,100
72832,note_off,,,,,256,0,12,,,,,4,,,64,100
72896,note_off,,,,,128,0,11,,,,,3,,,69,100
72896,note_off,,,,,128,0,16,,,,,7,,,49,100
72896,note_off,,,,,128,0,14,,,,,6,,,37,100
72896,note_off,,,,,128,0,13,,,,,5,,,49,100
72896,note_off,,,,,0,0,15,,,,,7,,,64,100
72896,note_off,,,,,128,0,10,,,,,2,,,69,100
72896,note_off,,,,,128,0,15,,,,,7,,,57,100
72960,note_on,,,,,64,0,10,,,,,2,,,65,95
72960,note_on,,,,,0,0,15,,,,,7,,,62,100
72960,note_on,,,,,0,0,15,,,,,7,,,65,100
72960,note_on,,,,,64,0,15,,,,,7,,,57,100
72960,note_on,,,,,64,0,11,,,,,3,,,65,35
72960,note_on,,,,,64,0,14,,,,,6,,,38,85
72960,note_on,,,,,128,0,12,,,,,4,,,57,85
72960,note_on,,,,,64,0,16,,,,,7,,,50,100
72960,note_on,,,,,64,0,13,,,,,5,,,50,85
73024,note_off,,,,,64,0,14,,,,,6,,,38,100
73024,note_off,,,,,64,0,13,,,,,5,,,50,100
73024,note_off,,,,,64,0,12,,,,,4,,,57,100
73056,note_on,,,,,32,0,12,,,,,4,,,57,85
73056,note_on,,,,,32,0,13,,,,,5,,,53,85
73056,note_on,,,,,32,0,14,,,,,6,,,41,85
73088,note_off,,,,,128,0,10,,,,,2,,,65,100
73088,note_off,,,,,128,0,16,,,,,7,,,50,100
73088,note_off,,,,,128,0,11,,,,,3,,,65,100
73120,note_off,,,,,64,0,13,,,,,5,,,53,100
73120,note_off,,,,,64,0,12,,,,,4,,,57,100
73120,note_off,,,,,64,0,14,,,,,6,,,41,100
73152,note_on,,,,,32,0,14,,,,,6,,,41,85
73152,note_on,,,,,32,0,13,,,,,5,,,53,85
73152,note_on,,,,,64,0,16,,,,,7,,,53,100
73152,note_on,,,,,32,0,12,,,,,4,,,57,85
73152,note_on,,,,,64,0,10,,,,,2,,,74,95
73152,note_on,,,,,64,0,11,,,,,3,,,74,35
73216,note_off,,,,,64,0,12,,,,,4,,,57,100
73216,note_off,,,,,64,0,14,,,,,6,,,41,100
73216,note_off,,,,,0,0,15,,,,,7,,,62,100
73216,note_off,,,,,0,0,15,,,,,7,,,65,100
73216,note_off,,,,,256,0,15,,,,,7,,,57,100
73216,note_off,,,,,64,0,13,,,,,5,,,53,100
73248,note_on,,,,,32,0,14,,,,,6,,,41,86
73248,note_on,,,,,32,0,12,,,,,4,,,57,86
73248,note_on,,,,,32,0,13,,,,,5,,,53,86
73280,note_off,,,,,128,0,16,,,,,7,,,53,100
73312,note_off,,,,,64,0,12,,,,,4,,,57,100
73312,note_off,,,,,64,0,14,,,,,6,,,41,100
73312,note_off,,,,,64,0,13,,,,,5,,,53,100
73344,note_on,,,,,32,0,12,,,,,4,,,57,86
73344,note_on,,,,,32,0,14,,,,,6,,,42,86
73344,note_on,,,,,32,0,13,,,,,5,,,54,86
73344,note_on,,,,,0,0,15,,,,,7,,,60,100
73344,note_on,,,,,0,0,15,,,,,7,,,62,100
73344,note_on,,,,,64,0,16,,,,,7,,,54,100
73344,note_on,,,,,128,0,15,,,,,7,,,65,100
73408,note_off,,,,,256,0,11,,,,,3,,,74,100
73408,note_off,,,,,64,0,14,,,,,6,,,42,100
73408,note_off,,,,,256,0,10,,,,,2,,,74,100
73408,note_off,,,,,64,0,12,,,,,4,,,57,100
73408,note_off,,,,,64,0,13,,,,,5,,,54,100
73440,note_on,,,,,32,0,14,,,,,6,,,42,86
73440,note_on,,,,,32,0,13,,,,,5,,,54,86
73440,note_on,,,,,32,0,12,,,,,4,,,57,86
73472,note_off,,,,,128,0,16,,,,,7,,,54,100
73504,note_off,,,,,64,0,14,,,,,6,,,42,100
73504,note_off,,,,,64,0,13,,,,,5,,,54,100
73504,note_off,,,,,64,0,12,,,,,4,,,57,100
73536,note_on,,,,,64,0,16,,,,,7,,,54,100
73536,note_on,,,,,128,0,11,,,,,3,,,72,37
73536,note_on,,,,,128,0,10,,,,,2,,,72,97
73536,note_on,,,,,32,0,14,,,,,6,,,42,87
73536,note_on,,,,,0,0,12,,,,,4,,,57,87
73536,note_on,,,,,32,0,12,,,,,4,,,62,87
73536,note_on,,,,,32,0,13,,,,,5,,,54,87
73600,note_off,,,,,64,0,14,,,,,6,,,42,100
73600,note_off,,,,,0,0,12,,,,,4,,,57,100
73600,note_off,,,,,64,0,12,,,,,4,,,62,100
73600,note_off,,,,,0,0,15,,,,,7,,,60,100
73600,note_off,,,,,0,0,15,,,,,7,,,62,100
73600,note_off,,,,,256,0,15,,,,,7,,,65,100
73600,note_off,,,,,64,0,13,,,,,5,,,54,100
73632,note_on,,,,,0,0,12,,,,,4,,,57,87
73632,note_on,,,,,32,0,12,,,,,4,,,62,87
73632,note_on,,,,,32,0,13,,,,,5,,,54,87
73632,note_on,,,,,32,0,14,,,,,6,,,42,87
73664,note_off,,,,,128,0,16,,,,,7,,,54,100
73664,note_off,,,,,128,0,10,,,,,2,,,72,100
73664,note_off,,,,,128,0,11,,,,,3,,,72,100
73696,note_off,,,,,64,0,13,,,,,5,,,54,100
73696,note_off,,,,,0,0,12,,,,,4,,,57,100
73696,note_off,,,,,64,0,14,,,,,6,,,42,100
73696,note_off,,,,,64,0,12,,,,,4,,,62,100
73728,note_on,,,,,32,0,13,,,,,5,,,55,88
73728,note_on,,,,,0,0,12,,,,,4,,,62,88
73728,note_on,,,,,32,0,12,,,,,4,,,59,88
73728,note_on,,,,,64,0,16,,,,,7,,,55,100
73728,note_on,,,,,64,0,11,,,,,3,,,71,38
73728,note_on,,,,,0,0,15,,,,,7,,,62,100
73728,note_on,,,,,64,0,10,,,,,2,,,71,98
73728,note_on,,,,,128,0,15,,,,,7,,,58,100
73728,note_on,,,,,32,0,14,,,,,6,,,43,88
73792,note_off,,,,,64,0,12,,,,,4,,,59,100
73792,note_off,,,,,64,0,13,,,,,5,,,55,100
73792,note_off,,,,,0,0,12,,,,,4,,,62,100
73792,note_off,,,,,64,0,14,,,,,6,,,43,100
73824,note_on,,,,,32,0,14,,,,,6,,,43,88
73824,note_on,,,,,0,0,12,,,,,4,,,62,88
73824,note_on,,,,,32,0,13,,,,,5,,,55,88
73824,note_on,,,,,32,0,12,,,,,4,,,59,88
73856,note_off,,,,,128,0,16,,,,,7,,,55,100
73856,note_off,,,,,128,0,11,,,,,3,,,71,100
73856,note_off,,,,,128,0,10,,,,,2,,,71,100
73856,note_off,,,,,128,0,15,,,,,7,,,58,100
73856,note_off,,,,,0,0,15,,,,,7,,,62,100
73888,note_off,,,,,64,0,14,,,,,6,,,43,100
73888,note_off,,,,,64,0,13,,,,,5,,,55,100
73888,note_off,,,,,0,0,12,,,,,4,,,62,100
73888,note_off,,,,,64,0,12,,,,,4,,,59,100
73920,note_on,,,,,32,0,13,,,,,5,,,55,88
73920,note_on,,,,,64,0,15,,,,,7,,,58,100
73920,note_on,,,,,0,0,15,,,,,7,,,64,100
73920,note_on,,,,,32,0,12,,,,,4,,,59,88
73920,note_on,,,,,64,0,10,,,,,2,,,76,98
73920,note_on,,,,,64,0,16,,,,,7,,,55,100
73920,note_on,,,,,32,0,14,,,,,6,,,43,88
73920,note_on,,,,,64,0,11,,,,,3,,,76,38
73984,note_off,,,,,64,0,14,,,,,6,,,43,100
73984,note_off,,,,,64,0,12,,,,,4,,,59,100
73984,note_off,,,,,64,0,13,,,,,5,,,55,100
74016,note_on,,,,,32,0,14,,,,,6,,,43,89
74016,note_on,,,,,32,0,12,,,,,4,,,59,89
74016,note_on,,,,,32,0,13,,,,,5,,,55,89
74048,note_off,,,,,0,0,15,,,,,7,,,64,100
74048,note_off,,,,,128,0,16,,,,,7,,,55,100
74048,note_off,,,,,128,0,15,,,,,7,,,58,100
74080,note_off,,,,,64,0,14,,,,,6,,,43,100
74080,note_off,,,,,64,0,13,,,,,5,,,55,100
74080,note_off,,,,,64,0,12,,,,,4,,,59,100
74112,note_on,,,,,64,0,16,,,,,7,,,56,100
74112,note_on,,,,,32,0,13,,,,,5,,,56,89
74112,note_on,,,,,32,0,12,,,,,4,,,59,89
74112,note_on,,,,,32,0,14,,,,,6,,,44,89
74112,note_on,,,,,0,0,15,,,,,7,,,64,100
74112,note_on,,,,,64,0,15,,,,,7,,,62,100
74176,note_off,,,,,64,0,13,,,,,5,,,56,100
74176,note_off,,,,,256,0,10,,,,,2,,,76,100
74176,note_off,,,,,64,0,12,,,,,4,,,59,100
74176,note_off,,,,,64,0,14,,,,,6,,,44,100
74176,note_off,,,,,256,0,11,,,,,3,,,76,100
74208,note_on,,,,,32,0,13,,,,,5,,,56,89
74208,note_on,,,,,32,0,14,,,,,6,,,44,89
74208,note_on,,,,,32,0,12,,,,,4,,,59,89
74240,note_off,,,,,128,0,16,,,,,7,,,56,100
74272,note_off,,,,,64,0,12,,,,,4,,,59,100
74272,note_off,,,,,64,0,14,,,,,6,,,44,100
74272,note_off,,,,,64,0,13,,,,,5,,,56,100
74304,note_on,,,,,32,0,13,,,,,5,,,56,90
74304,note_on,,,,,128,0,11,,,,,3,,,74,40
74304,note_on,,,,,32,0,12,,,,,4,,,64,90
74304,note_on,,,,,128,0,10,,,,,2,,,74,100
74304,note_on,,,,,0,0,12,,,,,4,,,59,90
74304,note_on,,,,,64,0,16,,,,,7,,,56,100
74304,note_on,,,,,32,0,14,,,,,6,,,44,90
74368,note_off,,,,,0,0,12,,,,,4,,,59,100
74368,note_off,,,,,64,0,13,,,,,5,,,56,100
74368,note_off,,,,,0,0,15,,,,,7,,,64,100
74368,note_off,,,,,256,0,15,,,,,7,,,62,100
74368,note_off,,,,,64,0,14,,,,,6,,,44,100
74368,note_off,,,,,64,0,12,,,,,4,,,64,100
74400,note_on,,,,,32,0,12,,,,,4,,,64,90
74400,note_on,,,,,32,0,13,,,,,5,,,56,90
74400,note_on,,,,,0,0,12,,,,,4,,,59,90
74400,note_on,,,,,32,0,14,,,,,6,,,44,90
74432,note_off,,,,,128,0,16,,,,,7,,,56,100
74432,note_off,,,,,128,0,11,,,,,3,,,74,100
74432,note_off,,,,,128,0,10,,,,,2,,,74,100
74464,note_off,,,,,64,0,13,,,,,5,,,56,100
74464,note_off,,,,,64,0,14,,,,,6,,,44,100
74464,note_off,,,,,0,0,12,,,,,4,,,59,100
74464,note_off,,,,,64,0,12,,,,,4,,,64,100
74496,note_on,,,,,32,0,13,,,,,5,,,57,91
74496,note_on,,,,,128,0,15,,,,,7,,,61,100
74496,note_on,,,,,0,0,15,,,,,7,,,64,100
74496,note_on,,,,,64,0,11,,,,,3,,,73,41
74496,note_on,,,,,64,0,10,,,,,2,,,73,101
74496,note_on,,,,,32,0,14,,,,,6,,,45,91
74496,note_on,,,,,32,0,12,,,,,4,,,64,91
74496,note_on,,,,,0,0,12,,,,,4,,,61,91
74496,note_on,,,,,64,0,16,,,,,7,,,57,100
74560,note_off,,,,,0,0,12,,,,,4,,,61,100
74560,note_off,,,,,64,0,14,,,,,6,,,45,100
74560,note_off,,,,,64,0,12,,,,,4,,,64,100
74560,note_off,,,,,64,0,13,,,,,5,,,57,100
74592,note_on,,,,,32,0,14,,,,,6,,,45,91
74592,note_on,,,,,32,0,12,,,,,4,,,64,91
74592,note_on,,,,,32,0,13,,,,,5,,,57,91
74592,note_on,,,,,0,0,12,,,,,4,,,61,91
74624,note_off,,,,,128,0,16,,,,,7,,,57,100
74624,note_off,,,,,0,0,15,,,,,7,,,64,100
74624,note_off,,,,,128,0,15,,,,,7,,,61,100
74624,note_off,,,,,128,0,11,,,,,3,,,73,100
74624,note_off,,,,,128,0,10,,,,,2,,,73,100
74656,note_off,,,,,0,0,12,,,,,4,,,61,100
74656,note_off,,,,,64,0,12,,,,,4,,,64,100
74656,note_off,,,,,64,0,14,,,,,6,,,45,100
74656,note_off,,,,,64,0,13,,,,,5,,,57,100
74688,note_on,,,,,32,0,12,,,,,4,,,61,91
74688,note_on,,,,,32,0,14,,,,,6,,,45,91
74688,note_on,,,,,64,0,16,,,,,7,,,57,100
74688,note_on,,,,,32,0,13,,,,,5,,,57,91
74688,note_on,,,,,64,0,10,,,,,2,,,77,101
74688,note_on,,,,,64,0,11,,,,,3,,,77,41
74688,note_on,,,,,64,0,15,,,,,7,,,61,100
74688,note_on,,,,,0,0,15,,,,,7,,,65,100
74752,note_off,,,,,64,0,13,,,,,5,,,57,100
74752,note_off,,,,,64,0,14,,,,,6,,,45,100
74752,note_off,,,,,64,0,12,,,,,4,,,61,100
74784,note_on,,,,,32,0,13,,,,,5,,,57,92
74784,note_on,,,,,32,0,14,,,,,6,,,45,92
74784,note_on,,,,,32,0,12,,,,,4,,,61,92
74816,note_off,,,,,128,0,15,,,,,7,,,61,100
74816,note_off,,,,,0,0,15,,,,,7,,,65,100
74816,note_off,,,,,128,0,16,,,,,7,,,57,100
74848,note_off,,,,,64,0,12,,,,,4,,,61,100
74848,note_off,,,,,64,0,13,,,,,5,,,57,100
74848,note_off,,,,,64,0,14,,,,,6,,,45,100
74880,note_on,,,,,32,0,14,,,,,6,,,45,92
74880,note_on,,,,,32,0,12,,,,,4,,,61,92
74880,note_on,,,,,0,0,15,,,,,7,,,65,100
74880,note_on,,,,,64,0,15,,,,,7,,,64,100
74880,note_on,,,,,32,0,13,,,,,5,,,57,92
74880,note_on,,,,,64,0,16,,,,,7,,,57,100
74944,note_off,,,,,64,0,12,,,,,4,,,61,100
74944,note_off,,,,,64,0,13,,,,,5,,,57,100
74944,note_off,,,,,256,0,11,,,,,3,,,77,100
74944,note_off,,,,,64,0,14,,,,,6,,,45,100
74944,note_off,,,,,256,0,10,,,,,2,,,77,100
74976,note_on,,,,,32,0,13,,,,,5,,,57,93
74976,note_on,,,,,32,0,14,,,,,6,,,45,93
74976,note_on,,,,,32,0,12,,,,,4,,,61,93
75008,note_off,,,,,128,0,16,,,,,7,,,57,100
75040,note_off,,,,,64,0,13,,,,,5,,,57,100
75040,note_off,,,,,64,0,14,,,,,6,,,45,100
75040,note_off,,,,,64,0,12,,,,,4,,,61,100
75072,note_on,,,,,0,0,12,,,,,4,,,61,93
75072,note_on,,,,,128,0,11,,,,,3,,,76,43
75072,note_on,,,,,32,0,13,,,,,5,,,57,93
75072,note_on,,,,,64,0,16,,,,,7,,,57,100
75072,note_on,,,,,32,0,14,,,,,6,,,45,93
75072,note_on,,,,,128,0,10,,,,,2,,,76,103
75072,note_on,,,,,32,0,12,,,,,4,,,65,93
75136,note_off,,,,,64,0,13,,,,,5,,,57,100
75136,note_off,,,,,64,0,14,,,,,6,,,45,100
75136,note_off,,,,,0,0,12,,,,,4,,,61,100
75136,note_off,,,,,64,0,12,,,,,4,,,65,100
75136,note_off,,,,,0,0,15,,,,,7,,,65,100
75136,note_off,,,,,256,0,15,,,,,7,,,64,100
75168,note_on,,,,,32,0,14,,,,,6,,,45,93
75168,note_on,,,,,32,0,13,,,,,5,,,57,93
75168,note_on,,,,,32,0,12,,,,,4,,,65,93
75168,note_on,,,,,0,0,12,,,,,4,,,61,93
75200,note_off,,,,,128,0,10,,,,,2,,,76,100
75200,note_off,,,,,128,0,16,,,,,7,,,57,100
75200,note_off,,,,,128,0,11,,,,,3,,,76,100
75232,note_off,,,,,64,0,14,,,,,6,,,45,100
75232,note_off,,,,,64,0,13,,,,,5,,,57,100
75232,note_off,,,,,0,0,12,,,,,4,,,61,100
75232,note_off,,,,,64,0,12,,,,,4,,,65,100
75264,note_on,,,,,128,0,15,,,,,7,,,62,100
75264,note_on,,,,,0,0,15,,,,,7,,,65,100
75264,note_on,,,,,32,0,13,,,,,5,,,58,94
75264,note_on,,,,,64,0,11,,,,,3,,,74,44
75264,note_on,,,,,32,0,14,,,,,6,,,46,94
75264,note_on,,,,,0,0,12,,,,,4,,,62,94
75264,note_on,,,,,64,0,16,,,,,7,,,58,100
75264,note_on,,,,,64,0,10,,,,,2,,,74,104
75264,note_on,,,,,32,0,12,,,,,4,,,65,94
75328,note_off,,,,,64,0,13,,,,,5,,,58,100
75328,note_off,,,,,0,0,12,,,,,4,,,62,100
75328,note_off,,,,,64,0,12,,,,,4,,,65,100
75328,note_off,,,,,64,0,14,,,,,6,,,46,100
75360,note_on,,,,,32,0,14,,,,,6,,,46,94
75360,note_on,,,,,32,0,13,,,,,5,,,58,94
75360,note_on,,,,,32,0,12,,,,,4,,,65,94
75360,note_on,,,,,0,0,12,,,,,4,,,62,94
75392,note_off,,,,,128,0,11,,,,,3,,,74,100
75392,note_off,,,,,128,0,16,,,,,7,,,58,100
75392,note_off,,,,,0,0,15,,,,,7,,,65,100
75392,note_off,,,,,128,0,15,,,,,7,,,62,100
75392,note_off,,,,,128,0,10,,,,,2,,,74,100
75424,note_off,,,,,64,0,12,,,,,4,,,65,100
75424,note_off,,,,,64,0,14,,,,,6,,,46,100
75424,note_off,,,,,64,0,13,,,,,5,,,58,100
75424,note_off,,,,,0,0,12,,,,,4,,,62,100
75456,note_on,,,,,0,0,15,,,,,7,,,62,100
75456,note_on,,,,,64,0,16,,,,,7,,,58,100
75456,note_on,,,,,64,0,15,,,,,7,,,67,100
75456,note_on,,,,,64,0,10,,,,,2,,,79,104
75456,note_on,,,,,64,0,11,,,,,3,,,79,44
75456,note_on,,,,,32,0,12,,,,,4,,,62,94
75456,note_on,,,,,32,0,14,,,,,6,,,46,94
75456,note_on,,,,,32,0,13,,,,,5,,,58,94
75520,note_off,,,,,64,0,14,,,,,6,,,46,100
75520,note_off,,,,,64,0,12,,,,,4,,,62,100
75520,note_off,,,,,64,0,13,,,,,5,,,58,100
75552,note_on,,,,,32,0,14,,,,,6,,,46,95
75552,note_on,,,,,32,0,13,,,,,5,,,58,95
75552,note_on,,,,,32,0,12,,,,,4,,,62,95
75584,note_off,,,,,128,0,16,,,,,7,,,58,100
75584,note_off,,,,,128,0,15,,,,,7,,,67,100
75584,note_off,,,,,0,0,15,,,,,7,,,62,100
75616,note_off,,,,,64,0,14,,,,,6,,,46,100
75616,note_off,,,,,64,0,12,,,,,4,,,62,100
75616,note_off,,,,,64,0,13,,,,,5,,,58,100
75648,note_on,,,,,32,0,13,,,,,5,,,59,95
75648,note_on,,,,,0,0,15,,,,,7,,,65,100
75648,note_on,,,,,32,0,12,,,,,4,,,62,95
75648,note_on,,,,,64,0,15,,,,,7,,,67,100
75648,note_on,,,,,32,0,14,,,,,6,,,47,95
75648,note_on,,,,,64,0,16,,,,,7,,,59,100
75712,note_off,,,,,64,0,14,,,,,6,,,47,100
75712,note_off,,,,,256,0,10,,,,,2,,,79,100
75712,note_off,,,,,64,0,13,,,,,5,,,59,100
75712,note_off,,,,,256,0,11,,,,,3,,,79,100
75712,note_off,,,,,64,0,12,,,,,4,,,62,100
75744,note_on,,,,,32,0,12,,,,,4,,,62,96
75744,note_on,,,,,32,0,14,,,,,6,,,47,96
75744,note_on,,,,,32,0,13,,,,,5,,,59,96
75776,note_off,,,,,128,0,16,,,,,7,,,59,100
75808,note_off,,,,,64,0,12,,,,,4,,,62,100
75808,note_off,,,,,64,0,14,,,,,6,,,47,100
75808,note_off,,,,,64,0,13,,,,,5,,,59,100
75840,note_on,,,,,64,0,16,,,,,7,,,59,100
75840,note_on,,,,,128,0,11,,,,,3,,,77,46
75840,note_on,,,,,32,0,14,,,,,6,,,47,96
75840,note_on,,,,,128,0,10,,,,,2,,,77,106
75840,note_on,,,,,32,0,12,,,,,4,,,67,96
75840,note_on,,,,,32,0,13,,,,,5,,,59,96
75840,note_on,,,,,0,0,12,,,,,4,,,62,96
75904,note_off,,,,,64,0,14,,,,,6,,,47,100
75904,note_off,,,,,0,0,12,,,,,4,,,62,100
75904,note_off,,,,,64,0,12,,,,,4,,,67,100
75904,note_off,,,,,256,0,15,,,,,7,,,67,100
75904,note_off,,,,,0,0,15,,,,,7,,,65,100
75904,note_off,,,,,64,0,13,,,,,5,,,59,100
75936,note_on,,,,,32,0,12,,,,,4,,,67,96
75936,note_on,,,,,32,0,13,,,,,5,,,59,96
75936,note_on,,,,,32,0,14,,,,,6,,,47,96
75936,note_on,,,,,0,0,12,,,,,4,,,62,96
75968,note_off,,,,,128,0,11,,,,,3,,,77,100
75968,note_off,,,,,128,0,16,,,,,7,,,59,100
75968,note_off,,,,,128,0,10,,,,,2,,,77,100
76000,note_off,,,,,64,0,12,,,,,4,,,67,100
76000,note_off,,,,,0,0,12,,,,,4,,,62,100
76000,note_off,,,,,64,0,14,,,,,6,,,47,100
76000,note_off,,,,,64,0,13,,,,,5,,,59,100
76032,note_on,,,,,64,0,10,,,,,2,,,76,107
76032,note_on,,,,,128,0,15,,,,,7,,,67,100
76032,note_on,,,,,0,0,15,,,,,7,,,64,100
76032,note_on,,,,,32,0,12,,,,,4,,,67,97
76032,note_on,,,,,0,0,12,,,,,4,,,64,97
76032,note_on,,,,,64,0,11,,,,,3,,,76,47
76032,note_on,,,,,32,0,13,,,,,5,,,60,97
76032,note_on,,,,,64,0,16,,,,,7,,,60,100
76032,note_on,,,,,32,0,14,,,,,6,,,48,97
76096,note_off,,,,,64,0,13,,,,,5,,,60,100
76096,note_off,,,,,64,0,14,,,,,6,,,48,100
76096,note_off,,,,,64,0,12,,,,,4,,,67,100
76096,note_off,,,,,0,0,12,,,,,4,,,64,100
76128,note_on,,,,,32,0,13,,,,,5,,,60,97
76128,note_on,,,,,32,0,12,,,,,4,,,67,97
76128,note_on,,,,,0,0,12,,,,,4,,,64,97
76128,note_on,,,,,32,0,14,,,,,6,,,48,97
76160,note_off,,,,,0,0,15,,,,,7,,,64,100
76160,note_off,,,,,128,0,15,,,,,7,,,67,100
76160,note_off,,,,,128,0,10,,,,,2,,,76,100
76160,note_off,,,,,128,0,16,,,,,7,,,60,100
76160,note_off,,,,,128,0,11,,,,,3,,,76,100
76192,note_off,,,,,0,0,12,,,,,4,,,64,100
76192,note_off,,,,,64,0,14,,,,,6,,,48,100
76192,note_off,,,,,64,0,13,,,,,5,,,60,100
76192,note_off,,,,,64,0,12,,,,,4,,,67,100
76224,note_on,,,,,0,0,15,,,,,7,,,64,100
76224,note_on,,,,,64,0,15,,,,,7,,,69,100
76224,note_on,,,,,64,0,11,,,,,3,,,81,48
76224,note_on,,,,,32,0,12,,,,,4,,,64,98
76224,note_on,,,,,32,0,14,,,,,6,,,48,98
76224,note_on,,,,,64,0,10,,,,,2,,,81,108
76224,note_on,,,,,64,0,16,,,,,7,,,60,100
76224,note_on,,,,,32,0,13,,,,,5,,,60,98
76288,note_off,,,,,64,0,12,,,,,4,,,64,100
76288,note_off,,,,,64,0,13,,,,,5,,,60,100
76288,note_off,,,,,64,0,14,,,,,6,,,48,100
76320,note_on,,,,,32,0,12,,,,,4,,,64,98
76320,note_on,,,,,32,0,13,,,,,5,,,60,98
76320,note_on,,,,,32,0,14,,,,,6,,,48,98
76352,note_off,,,,,128,0,16,,,,,7,,,60,100
76352,note_off,,,,,128,0,15,,,,,7,,,69,100
76352,note_off,,,,,0,0,15,,,,,7,,,64,100
76384,note_off,,,,,64,0,13,,,,,5,,,60,100
76384,note_off,,,,,64,0,14,,,,,6,,,48,100
76384,note_off,,,,,64,0,12,,,,,4,,,64,100
76416,note_on,,,,,64,0,16,,,,,7,,,61,100
76416,note_on,,,,,32,0,13,,,,,5,,,61,98
76416,note_on,,,,,64,0,15,,,,,7,,,69,100
76416,note_on,,,,,0,0,15,,,,,7,,,67,100
76416,note_on,,,,,32,0,14,,,,,6,,,49,98
76416,note_on,,,,,32,0,12,,,,,4,,,64,98
76480,note_off,,,,,64,0,12,,,,,4,,,64,100
76480,note_off,,,,,256,0,11,,,,,3,,,81,100
76480,note_off,,,,,256,0,10,,,,,2,,,81,100
76480,note_off,,,,,64,0,13,,,,,5,,,61,100
76480,note_off,,,,,64,0,14,,,,,6,,,49,100
76512,note_on,,,,,32,0,14,,,,,6,,,49,99
76512,note_on,,,,,32,0,12,,,,,4,,,64,99
76512,note_on,,,,,32,0,13,,,,,5,,,61,99
76544,note_off,,,,,128,0,16,,,,,7,,,61,100
76576,note_off,,,,,64,0,13,,,,,5,,,61,100
76576,note_off,,,,,64,0,14,,,,,6,,,49,100
76576,note_off,,,,,64,0,12,,,,,4,,,64,100
76608,note_on,,,,,32,0,14,,,,,6,,,49,99
76608,note_on,,,,,0,0,12,,,,,4,,,64,99
76608,note_on,,,,,32,0,12,,,,,4,,,69,99
76608,note_on,,,,,64,0,16,,,,,7,,,61,100
76608,note_on,,,,,128,0,10,,,,,2,,,79,109
76608,note_on,,,,,32,0,13,,,,,5,,,61,99
76608,note_on,,,,,128,0,11,,,,,3,,,79,49
76672,note_off,,,,,64,0,12,,,,,4,,,69,100
76672,note_off,,,,,64,0,13,,,,,5,,,61,100
76672,note_off,,,,,256,0,15,,,,,7,,,69,100
76672,note_off,,,,,0,0,15,,,,,7,,,67,100
76672,note_off,,,,,64,0,14,,,,,6,,,49,100
76672,note_off,,,,,0,0,12,,,,,4,,,64,100
76704,note_on,,,,,0,0,12,,,,,4,,,64,99
76704,note_on,,,,,32,0,12,,,,,4,,,69,99
76704,note_on,,,,,32,0,13,,,,,5,,,61,99
76704,note_on,,,,,32,0,14,,,,,6,,,49,99
76736,note_off,,,,,128,0,16,,,,,7,,,61,100
76736,note_off,,,,,128,0,11,,,,,3,,,79,100
76736,note_off,,,,,128,0,10,,,,,2,,,79,100
76768,note_off,,,,,0,0,12,,,,,4,,,64,100
76768,note_off,,,,,64,0,12,,,,,4,,,69,100
76768,note_off,,,,,64,0,14,,,,,6,,,49,100
76768,note_off,,,,,64,0,13,,,,,5,,,61,100
76800,note_on,,,,,64,0,16,,,,,7,,,62,100
76800,note_on,,,,,32,0,14,,,,,6,,,50,100
76800,note_on,,,,,0,0,12,,,,,4,,,69,100
76800,note_on,,,,,0,0,15,,,,,7,,,69,100
76800,note_on,,,,,128,0,15,,,,,7,,,65,100
76800,note_on,,,,,32,0,13,,,,,5,,,62,100
76800,note_on,,,,,32,0,12,,,,,4,,,62,100
76800,note_on,,,,,64,0,10,,,,,2,,,77,110
76800,note_on,,,,,64,0,11,,,,,3,,,77,50
76864,note_off,,,,,64,0,12,,,,,4,,,62,100
76864,note_off,,,,,0,0,12,,,,,4,,,69,100
76864,note_off,,,,,64,0,13,,,,,5,,,62,100
76864,note_off,,,,,64,0,14,,,,,6,,,50,100
76896,note_on,,,,,32,0,13,,,,,5,,,62,100
76896,note_on,,,,,32,0,14,,,,,6,,,50,100
76896,note_on,,,,,32,0,12,,,,,4,,,62,100
76896,note_on,,,,,0,0,12,,,,,4,,,69,100
76928,note_off,,,,,128,0,10,,,,,2,,,77,100
76928,note_off,,,,,128,0,16,,,,,7,,,62,100
76928,note_off,,,,,0,0,15,,,,,7,,,69,100
76928,note_off,,,,,128,0,15,,,,,7,,,65,100
76928,note_off,,,,,128,0,11,,,,,3,,,77,100
76960,note_off,,,,,0,0,12,,,,,4,,,69,100
76960,note_off,,,,,64,0,12,,,,,4,,,62,100
76960,note_off,,,,,64,0,14,,,,,6,,,50,100
76960,note_off,,,,,64,0,13,,,,,5,,,62,100
76992,note_on,,,,,64,0,10,,,,,2,,,74,110
76992,note_on,,,,,32,0,14,,,,,6,,,41,100
76992,note_on,,,,,0,0,15,,,,,7,,,57,100
76992,note_on,,,,,64,0,16,,,,,7,,,53,100
76992,note_on,,,,,32,0,13,,,,,5,,,53,100
76992,note_on,,,,,32,0,12,,,,,4,,,62,100
76992,note_on,,,,,0,0,12,,,,,4,,,69,100
76992,note_on,,,,,64,0,11,,,,,3,,,74,50
76992,note_on,,,,,64,0,15,,,,,7,,,60,100
77056,note_off,,,,,64,0,12,,,,,4,,,62,100
77056,note_off,,,,,0,0,12,,,,,4,,,69,100
77056,note_off,,,,,64,0,13,,,,,5,,,53,100
77056,note_off,,,,,64,0,14,,,,,6,,,41,100
77088,note_on,,,,,32,0,14,,,,,6,,,41,100
77088,note_on,,,,,32,0,13,,,,,5,,,53,100
77088,note_on,,,,,32,0,12,,,,,4,,,62,100
77088,note_on,,,,,0,0,12,,,,,4,,,69,100
77120,note_off,,,,,0,0,15,,,,,7,,,57,100
77120,note_off,,,,,128,0,15,,,,,7,,,60,100
77120,note_off,,,,,128,0,16,,,,,7,,,53,100
77152,note_off,,,,,64,0,14,,,,,6,,,41,100
77152,note_off,,,,,64,0,13,,,,,5,,,53,100
77152,note_off,,,,,0,0,12,,,,,4,,,69,100
77152,note_off,,,,,64,0,12,,,,,4,,,62,100
77184,note_on,,,,,64,0,16,,,,,7,,,55,100
77184,note_on,,,,,0,0,12,,,,,4,,,64,100
77184,note_on,,,,,0,0,15,,,,,7,,,58,100
77184,note_on,,,,,64,0,15,,,,,7,,,62,100
77184,note_on,,,,,32,0,14,,,,,6,,,43,100
77184,note_on,,,,,32,0,12,,,,,4,,,69,100
77184,note_on,,,,,32,0,13,,,,,5,,,55,100
77248,note_off,,,,,256,0,11,,,,,3,,,74,100
77248,note_off,,,,,256,0,10,,,,,2,,,74,100
77248,note_off,,,,,64,0,12,,,,,4,,,69,100
77248,note_off,,,,,0,0,12,,,,,4,,,64,100
77248,note_off,,,,,64,0,14,,,,,6,,,43,100
77248,note_off,,,,,64,0,13,,,,,5,,,55,100
77280,note_on,,,,,32,0,13,,,,,5,,,55,100
77280,note_on,,,,,32,0,12,,,,,4,,,69,100
77280,note_on,,,,,0,0,12,,,,,4,,,64,100
77280,note_on,,,,,32,0,14,,,,,6,,,43,100
77312,note_off,,,,,0,0,15,,,,,7,,,58,100
77312,note_off,,,,,128,0,16,,,,,7,,,55,100
77312,note_off,,,,,128,0,15,,,,,7,,,62,100
77344,note_off,,,,,64,0,13,,,,,5,,,55,100
77344,note_off,,,,,64,0,12,,,,,4,,,69,100
77344,note_off,,,,,0,0,12,,,,,4,,,64,100
77344,note_off,,,,,64,0,14,,,,,6,,,43,100
77376,note_on,,,,,64,0,16,,,,,7,,,57,100
77376,note_on,,,,,0,0,12,,,,,4,,,64,100
77376,note_on,,,,,32,0,12,,,,,4,,,69,100
77376,note_on,,,,,128,0,11,,,,,3,,,73,50
77376,note_on,,,,,32,0,13,,,,,5,,,57,100
77376,note_on,,,,,32,0,14,,,,,6,,,45,100
77376,note_on,,,,,128,0,10,,,,,2,,,73,110
77376,note_on,,,,,0,0,15,,,,,7,,,61,100
77376,note_on,,,,,64,0,15,,,,,7,,,64,100
77440,note_off,,,,,0,0,12,,,,,4,,,64,100
77440,note_off,,,,,64,0,14,,,,,6,,,45,100
77440,note_off,,,,,64,0,13,,,,,5,,,57,100
77440,note_off,,,,,64,0,12,,,,,4,,,69,100
77472,note_on,,,,,32,0,13,,,,,5,,,57,100
77472,note_on,,,,,32,0,14,,,,,6,,,45,100
77472,note_on,,,,,0,0,12,,,,,4,,,64,100
77472,note_on,,,,,32,0,12,,,,,4,,,69,100
77504,note_off,,,,,128,0,10,,,,,2,,,73,100
77504,note_off,,,,,128,0,11,,,,,3,,,73,100
77504,note_off,,,,,0,0,15,,,,,7,,,61,100
77504,note_off,,,,,128,0,15,,,,,7,,,64,100
77504,note_off,,,,,128,0,16,,,,,7,,,57,100
77536,note_off,,,,,0,0,12,,,,,4,,,64,100
77536,note_off,,,,,64,0,12,,,,,4,,,69,100
77536,note_off,,,,,64,0,13,,,,,5,,,57,100
77536,note_off,,,,,64,0,14,,,,,6,,,45,100
77568,note_on,,,,,32,0,14,,,,,6,,,38,85
77568,note_on,,,,,32,0,13,,,,,5,,,50,85
77568,note_on,,,,,64,0,16,,,,,7,,,50,100
77568,note_on,,,,,0,0,15,,,,,7,,,62,100
77568,note_on,,,,,64,0,15,,,,,7,,,65,100
77568,note_on,,,,,64,0,11,,,,,3,,,74,35
77568,note_on,,,,,64,0,10,,,,,2,,,74,95
77568,note_on,,,,,32,0,12,,,,,4,,,69,85
77568,note_on,,,,,0,0,12,,,,,4,,,65,85
77632,note_off,,,,,64,0,12,,,,,4,,,69,100
77632,note_off,,,,,64,0,11,,,,,3,,,74,100
77632,note_off,,,,,0,0,12,,,,,4,,,65,100
77632,note_off,,,,,64,0,10,,,,,2,,,74,100
77664,note_on,,,,,32,0,10,,,,,2,,,77,95
77664,note_on,,,,,32,0,12,,,,,4,,,69,85
77664,note_on,,,,,32,0,11,,,,,3,,,77,35
77664,note_on,,,,,0,0,12,,,,,4,,,65,85
77696,note_off,,,,,128,0,15,,,,,7,,,65,100
77696,note_off,,,,,0,0,15,,,,,7,,,62,100
77696,note_off,,,,,128,0,16,,,,,7,,,50,100
77696,note_off,,,,,128,0,13,,,,,5,,,50,100
77696,note_off,,,,,128,0,14,,,,,6,,,38,100
77728,note_off,,,,,0,0,12,,,,,4,,,65,100
77728,note_off,,,,,64,0,11,,,,,3,,,77,100
77728,note_off,,,,,64,0,12,,,,,4,,,69,100
77728,note_off,,,,,64,0,10,,,,,2,,,77,100
77760,note_on,,,,,64,0,13,,,,,5,,,50,85
77760,note_on,,,,,0,0,12,,,,,4,,,69,85
77760,note_on,,,,,32,0,12,,,,,4,,,65,85
77760,note_on,,,,,64,0,16,,,,,7,,,50,100
77760,note_on,,,,,32,0,11,,,,,3,,,77,35
77760,note_on,,,,,64,0,14,,,,,6,,,38,85
77760,note_on,,,,,32,0,10,,,,,2,,,77,95
77760,note_on,,,,,64,0,15,,,,,7,,,69,100
77760,note_on,,,,,0,0,15,,,,,7,,,65,100
77824,note_off,,,,,64,0,11,,,,,3,,,77,100
77824,note_off,,,,,64,0,12,,,,,4,,,65,100
77824,note_off,,,,,0,0,12,,,,,4,,,69,100
77824,note_off,,,,,64,0,10,,,,,2,,,77,100
77856,note_on,,,,,32,0,12,,,,,4,,,57,86
77856,note_on,,,,,0,0,12,,,,,4,,,69,86
77856,note_on,,,,,32,0,10,,,,,2,,,77,96
77856,note_on,,,,,32,0,11,,,,,3,,,77,36
77888,note_off,,,,,0,0,15,,,,,7,,,65,100
77888,note_off,,,,,128,0,15,,,,,7,,,69,100
77920,note_off,,,,,64,0,10,,,,,2,,,77,100
77920,note_off,,,,,0,0,12,,,,,4,,,69,100
77920,note_off,,,,,64,0,12,,,,,4,,,57,100
77920,note_off,,,,,64,0,11,,,,,3,,,77,100
77952,note_on,,,,,64,0,15,,,,,7,,,69,100
77952,note_on,,,,,32,0,10,,,,,2,,,78,96
77952,note_on,,,,,32,0,11,,,,,3,,,78,36
77952,note_on,,,,,0,0,15,,,,,7,,,66,100
77952,note_on,,,,,32,0,12,,,,,4,,,57,86
78016,note_off,,,,,256,0,13,,,,,5,,,50,100
78016,note_off,,,,,64,0,11,,,,,3,,,78,100
78016,note_off,,,,,256,0,14,,,,,6,,,38,100
78016,note_off,,,,,64,0,10,,,,,2,,,78,100
78016,note_off,,,,,256,0,16,,,,,7,,,50,100
78016,note_off,,,,,64,0,12,,,,,4,,,57,100
78048,note_on,,,,,32,0,11,,,,,3,,,78,36
78048,note_on,,,,,32,0,10,,,,,2,,,78,96
78048,note_on,,,,,32,0,12,,,,,4,,,57,86
78080,note_off,,,,,128,0,15,,,,,7,,,69,100
78080,note_off,,,,,0,0,15,,,,,7,,,66,100
78112,note_off,,,,,64,0,11,,,,,3,,,78,100
78112,note_off,,,,,64,0,12,,,,,4,,,57,100
78112,note_off,,,,,64,0,10,,,,,2,,,78,100
78144,note_on,,,,,32,0,10,,,,,2,,,78,97
78144,note_on,,,,,128,0,16,,,,,7,,,48,100
78144,note_on,,,,,128,0,13,,,,,5,,,48,87
78144,note_on,,,,,64,0,15,,,,,7,,,69,100
78144,note_on,,,,,128,0,14,,,,,6,,,36,87
78144,note_on,,,,,32,0,12,,,,,4,,,62,87
78144,note_on,,,,,0,0,15,,,,,7,,,66,100
78144,note_on,,,,,32,0,11,,,,,3,,,78,37
78144,note_on,,,,,0,0,12,,,,,4,,,57,87
78208,note_off,,,,,64,0,11,,,,,3,,,78,100
78208,note_off,,,,,64,0,10,,,,,2,,,78,100
78208,note_off,,,,,64,0,12,,,,,4,,,62,100
78208,note_off,,,,,0,0,12,,,,,4,,,57,100
78240,note_on,,,,,32,0,12,,,,,4,,,62,87
78240,note_on,,,,,0,0,12,,,,,4,,,57,87
78240,note_on,,,,,32,0,11,,,,,3,,,78,37
78240,note_on,,,,,32,0,10,,,,,2,,,78,97
78272,note_off,,,,,128,0,14,,,,,6,,,36,100
78272,note_off,,,,,128,0,16,,,,,7,,,48,100
78272,note_off,,,,,128,0,13,,,,,5,,,48,100
78272,note_off,,,,,0,0,15,,,,,7,,,66,100
78272,note_off,,,,,128,0,15,,,,,7,,,69,100
78304,note_off,,,,,64,0,12,,,,,4,,,62,100
78304,note_off,,,,,0,0,12,,,,,4,,,57,100
78304,note_off,,,,,64,0,11,,,,,3,,,78,100
78304,note_off,,,,,64,0,10,,,,,2,,,78,100
78336,note_on,,,,,32,0,10,,,,,2,,,79,98
78336,note_on,,,,,0,0,15,,,,,7,,,62,100
78336,note_on,,,,,64,0,14,,,,,6,,,35,88
78336,note_on,,,,,64,0,13,,,,,5,,,47,88
78336,note_on,,,,,64,0,15,,,,,7,,,67,100
78336,note_on,,,,,64,0,16,,,,,7,,,47,100
78336,note_on,,,,,32,0,11,,,,,3,,,79,38
78336,note_on,,,,,32,0,12,,,,,4,,,62,88
78336,note_on,,,,,0,0,12,,,,,4,,,59,88
78400,note_off,,,,,64,0,10,,,,,2,,,79,100
78400,note_off,,,,,64,0,12,,,,,4,,,62,100
78400,note_off,,,,,0,0,12,,,,,4,,,59,100
78400,note_off,,,,,64,0,11,,,,,3,,,79,100
78432,note_on,,,,,32,0,10,,,,,2,,,79,98
78432,note_on,,,,,32,0,12,,,,,4,,,62,88
78432,note_on,,,,,0,0,12,,,,,4,,,59,88
78432,note_on,,,,,32,0,11,,,,,3,,,79,38
78464,note_off,,,,,128,0,15,,,,,7,,,67,100
78464,note_off,,,,,128,0,13,,,,,5,,,47,100
78464,note_off,,,,,0,0,15,,,,,7,,,62,100
78464,note_off,,,,,128,0,16,,,,,7,,,47,100
78464,note_off,,,,,128,0,14,,,,,6,,,35,100
78496,note_off,,,,,64,0,12,,,,,4,,,62,100
78496,note_off,,,,,0,0,12,,,,,4,,,59,100
78496,note_off,,,,,64,0,10,,,,,2,,,79,100
78496,note_off,,,,,64,0,11,,,,,3,,,79,100
78528,note_on,,,,,32,0,10,,,,,2,,,79,98
78528,note_on,,,,,32,0,12,,,,,4,,,59,88
78528,note_on,,,,,64,0,15,,,,,7,,,70,100
78528,note_on,,,,,64,0,14,,,,,6,,,40,88
78528,note_on,,,,,64,0,16,,,,,7,,,52,100
78528,note_on,,,,,32,0,11,,,,,3,,,79,38
78528,note_on,,,,,0,0,15,,,,,7,,,67,100
78528,note_on,,,,,64,0,13,,,,,5,,,52,88
78592,note_off,,,,,64,0,12,,,,,4,,,59,100
78592,note_off,,,,,64,0,11,,,,,3,,,79,100
78592,note_off,,,,,64,0,10,,,,,2,,,79,100
78624,note_on,,,,,32,0,10,,,,,2,,,79,99
78624,note_on,,,,,32,0,12,,,,,4,,,59,89
78624,note_on,,,,,32,0,11,,,,,3,,,79,39
78656,note_off,,,,,0,0,15,,,,,7,,,67,100
78656,note_off,,,,,128,0,15,,,,,7,,,70,100
78688,note_off,,,,,64,0,12,,,,,4,,,59,100
78688,note_off,,,,,64,0,10,,,,,2,,,79,100
78688,note_off,,,,,64,0,11,,,,,3,,,79,100
78720,note_on,,,,,32,0,10,,,,,2,,,80,99
78720,note_on,,,,,32,0,11,,,,,3,,,80,39
78720,note_on,,,,,32,0,12,,,,,4,,,59,89
78720,note_on,,,,,64,0,15,,,,,7,,,70,100
78720,note_on,,,,,0,0,15,,,,,7,,,68,100
78784,note_off,,,,,64,0,11,,,,,3,,,80,100
78784,note_off,,,,,256,0,14,,,,,6,,,40,100
78784,note_off,,,,,256,0,16,,,,,7,,,52,100
78784,note_off,,,,,64,0,10,,,,,2,,,80,100
78784,note_off,,,,,256,0,13,,,,,5,,,52,100
78784,note_off,,,,,64,0,12,,,,,4,,,59,100
78816,note_on,,,,,32,0,10,,,,,2,,,80,100
78816,note_on,,,,,32,0,11,,,,,3,,,80,40
78816,note_on,,,,,32,0,12,,,,,4,,,59,90
78848,note_off,,,,,128,0,15,,,,,7,,,70,100
78848,note_off,,,,,0,0,15,,,,,7,,,68,100
78880,note_off,,,,,64,0,12,,,,,4,,,59,100
78880,note_off,,,,,64,0,10,,,,,2,,,80,100
78880,note_off,,,,,64,0,11,,,,,3,,,80,100
78912,note_on,,,,,64,0,15,,,,,7,,,70,100
78912,note_on,,,,,0,0,15,,,,,7,,,68,100
78912,note_on,,,,,128,0,14,,,,,6,,,38,90
78912,note_on,,,,,32,0,10,,,,,2,,,80,100
78912,note_on,,,,,128,0,13,,,,,5,,,50,90
78912,note_on,,,,,0,0,12,,,,,4,,,59,90
78912,note_on,,,,,32,0,12,,,,,4,,,64,90
78912,note_on,,,,,128,0,16,,,,,7,,,50,100
78912,note_on,,,,,32,0,11,,,,,3,,,80,40
78976,note_off,,,,,0,0,12,,,,,4,,,59,100
78976,note_off,,,,,64,0,12,,,,,4,,,64,100
78976,note_off,,,,,64,0,10,,,,,2,,,80,100
78976,note_off,,,,,64,0,11,,,,,3,,,80,100
79008,note_on,,,,,0,0,12,,,,,4,,,59,90
79008,note_on,,,,,32,0,12,,,,,4,,,64,90
79008,note_on,,,,,32,0,11,,,,,3,,,80,40
79008,note_on,,,,,32,0,10,,,,,2,,,80,100
79040,note_off,,,,,128,0,14,,,,,6,,,38,100
79040,note_off,,,,,128,0,15,,,,,7,,,70,100
79040,note_off,,,,,0,0,15,,,,,7,,,68,100
79040,note_off,,,,,128,0,16,,,,,7,,,50,100
79040,note_off,,,,,128,0,13,,,,,5,,,50,100
79072,note_off,,,,,0,0,12,,,,,4,,,59,100
79072,note_off,,,,,64,0,12,,,,,4,,,64,100
79072,note_off,,,,,64,0,11,,,,,3,,,80,100
79072,note_off,,,,,64,0,10,,,,,2,,,80,100
79104,note_on,,,,,32,0,12,,,,,4,,,64,91
79104,note_on,,,,,32,0,11,,,,,3,,,81,41
79104,note_on,,,,,32,0,10,,,,,2,,,81,101
79104,note_on,,,,,64,0,13,,,,,5,,,48,91
79104,note_on,,,,,0,0,15,,,,,7,,,64,100
79104,note_on,,,,,64,0,14,,,,,6,,,36,91
79104,note_on,,,,,0,0,12,,,,,4,,,60,91
79104,note_on,,,,,64,0,16,,,,,7,,,48,100
79104,note_on,,,,,64,0,15,,,,,7,,,69,100
79168,note_off,,,,,64,0,12,,,,,4,,,64,100
79168,note_off,,,,,64,0,10,,,,,2,,,81,100
79168,note_off,,,,,0,0,12,,,,,4,,,60,100
79168,note_off,,,,,64,0,11,,,,,3,,,81,100
79200,note_on,,,,,32,0,10,,,,,2,,,81,101
79200,note_on,,,,,32,0,11,,,,,3,,,81,41
79200,note_on,,,,,32,0,12,,,,,4,,,64,91
79200,note_on,,,,,0,0,12,,,,,4,,,60,91
79232,note_off,,,,,0,0,15,,,,,7,,,64,100
79232,note_off,,,,,128,0,15,,,,,7,,,69,100
79232,note_off,,,,,128,0,16,,,,,7,,,48,100
79232,note_off,,,,,128,0,14,,,,,6,,,36,100
79232,note_off,,,,,128,0,13,,,,,5,,,48,100
79264,note_off,,,,,64,0,11,,,,,3,,,81,100
79264,note_off,,,,,64,0,10,,,,,2,,,81,100
79264,note_off,,,,,64,0,12,,,,,4,,,64,100
79264,note_off,,,,,0,0,12,,,,,4,,,60,100
79296,note_on,,,,,64,0,13,,,,,5,,,53,92
79296,note_on,,,,,64,0,16,,,,,7,,,53,100
79296,note_on,,,,,64,0,15,,,,,7,,,69,100
79296,note_on,,,,,64,0,14,,,,,6,,,41,92
79296,note_on,,,,,32,0,12,,,,,4,,,60,92
79296,note_on,,,,,32,0,11,,,,,3,,,81,42
79296,note_on,,,,,0,0,15,,,,,7,,,72,100
79296,note_on,,,,,32,0,10,,,,,2,,,81,102
79360,note_off,,,,,64,0,10,,,,,2,,,81,100
79360,note_off,,,,,64,0,11,,,,,3,,,81,100
79360,note_off,,,,,64,0,12,,,,,4,,,60,100
79392,note_on,,,,,32,0,11,,,,,3,,,81,42
79392,note_on,,,,,32,0,10,,,,,2,,,81,102
79392,note_on,,,,,32,0,12,,,,,4,,,60,92
79424,note_off,,,,,0,0,15,,,,,7,,,72,100
79424,note_off,,,,,128,0,15,,,,,7,,,69,100
79456,note_off,,,,,64,0,10,,,,,2,,,81,100
79456,note_off,,,,,64,0,12,,,,,4,,,60,100
79456,note_off,,,,,64,0,11,,,,,3,,,81,100
79488,note_on,,,,,64,0,15,,,,,7,,,69,100
79488,note_on,,,,,32,0,12,,,,,4,,,60,92
79488,note_on,,,,,0,0,15,,,,,7,,,72,100
79488,note_on,,,,,32,0,10,,,,,2,,,81,102
79488,note_on,,,,,32,0,11,,,,,3,,,81,42
79552,note_off,,,,,64,0,10,,,,,2,,,81,100
79552,note_off,,,,,256,0,14,,,,,6,,,41,100
79552,note_off,,,,,64,0,12,,,,,4,,,60,100
79552,note_off,,,,,64,0,11,,,,,3,,,81,100
79552,note_off,,,,,256,0,13,,,,,5,,,53,100
79552,note_off,,,,,256,0,16,,,,,7,,,53,100
79584,note_on,,,,,32,0,12,,,,,4,,,60,93
79584,note_on,,,,,32,0,11,,,,,3,,,81,43
79584,note_on,,,,,32,0,10,,,,,2,,,81,103
79616,note_off,,,,,0,0,15,,,,,7,,,72,100
79616,note_off,,,,,128,0,15,,,,,7,,,69,100
79648,note_off,,,,,64,0,10,,,,,2,,,81,100
79648,note_off,,,,,64,0,11,,,,,3,,,81,100
79648,note_off,,,,,64,0,12,,,,,4,,,60,100
79680,note_on,,,,,128,0,16,,,,,7,,,52,100
79680,note_on,,,,,32,0,11,,,,,3,,,81,43
79680,note_on,,,,,64,0,15,,,,,7,,,69,100
79680,note_on,,,,,32,0,12,,,,,4,,,65,93
79680,note_on,,,,,0,0,12,,,,,4,,,60,93
79680,note_on,,,,,32,0,10,,,,,2,,,81,103
79680,note_on,,,,,0,0,15,,,,,7,,,65,100
79680,note_on,,,,,128,0,13,,,,,5,,,52,93
79680,note_on,,,,,0,0,15,,,,,7,,,72,100
79680,note_on,,,,,128,0,14,,,,,6,,,40,93
79744,note_off,,,,,64,0,12,,,,,4,,,65,100
79744,note_off,,,,,0,0,12,,,,,4,,,60,100
79744,note_off,,,,,64,0,10,,,,,2,,,81,100
79744,note_off,,,,,64,0,11,,,,,3,,,81,100
79776,note_on,,,,,32,0,12,,,,,4,,,65,94
79776,note_on,,,,,0,0,12,,,,,4,,,60,94
79776,note_on,,,,,32,0,10,,,,,2,,,81,104
79776,note_on,,,,,32,0,11,,,,,3,,,81,44
79808,note_off,,,,,0,0,15,,,,,7,,,72,100
79808,note_off,,,,,128,0,15,,,,,7,,,69,100
79808,note_off,,,,,0,0,15,,,,,7,,,65,100
79808,note_off,,,,,128,0,14,,,,,6,,,40,100
79808,note_off,,,,,128,0,16,,,,,7,,,52,100
79808,note_off,,,,,128,0,13,,,,,5,,,52,100
79840,note_off,,,,,64,0,12,,,,,4,,,65,100
79840,note_off,,,,,0,0,12,,,,,4,,,60,100
79840,note_off,,,,,64,0,11,,,,,3,,,81,100
79840,note_off,,,,,64,0,10,,,,,2,,,81,100
79872,note_on,,,,,32,0,12,,,,,4,,,65,94
79872,note_on,,,,,0,0,12,,,,,4,,,62,94
79872,note_on,,,,,64,0,14,,,,,6,,,38,94
79872,note_on,,,,,64,0,13,,,,,5,,,50,94
79872,note_on,,,,,32,0,10,,,,,2,,,82,104
79872,note_on,,,,,64,0,15,,,,,7,,,70,100
79872,note_on,,,,,0,0,15,,,,,7,,,65,100
79872,note_on,,,,,64,0,16,,,,,7,,,50,100
79872,note_on,,,,,32,0,11,,,,,3,,,82,44
79936,note_off,,,,,64,0,12,,,,,4,,,65,100
79936,note_off,,,,,64,0,10,,,,,2,,,82,100
79936,note_off,,,,,0,0,12,,,,,4,,,62,100
79936,note_off,,,,,64,0,11,,,,,3,,,82,100
79968,note_on,,,,,32,0,11,,,,,3,,,82,44
79968,note_on,,,,,32,0,10,,,,,2,,,82,104
79968,note_on,,,,,32,0,12,,,,,4,,,65,94
79968,note_on,,,,,0,0,12,,,,,4,,,62,94
80000,note_off,,,,,128,0,13,,,,,5,,,50,100
80000,note_off,,,,,0,0,15,,,,,7,,,65,100
80000,note_off,,,,,128,0,15,,,,,7,,,70,100
80000,note_off,,,,,128,0,16,,,,,7,,,50,100
80000,note_off,,,,,128,0,14,,,,,6,,,38,100
80032,note_off,,,,,0,0,12,,,,,4,,,62,100
80032,note_off,,,,,64,0,11,,,,,3,,,82,100
80032,note_off,,,,,64,0,10,,,,,2,,,82,100
80032,note_off,,,,,64,0,12,,,,,4,,,65,100
80064,note_on,,,,,32,0,12,,,,,4,,,62,95
80064,note_on,,,,,64,0,14,,,,,6,,,43,95
80064,note_on,,,,,32,0,10,,,,,2,,,82,105
80064,note_on,,,,,64,0,15,,,,,7,,,70,100
80064,note_on,,,,,64,0,13,,,,,5,,,55,95
80064,note_on,,,,,64,0,16,,,,,7,,,55,100
80064,note_on,,,,,0,0,15,,,,,7,,,74,100
80064,note_on,,,,,32,0,11,,,,,3,,,82,45
80128,note_off,,,,,64,0,10,,,,,2,,,82,100
80128,note_off,,,,,64,0,11,,,,,3,,,82,100
80128,note_off,,,,,64,0,12,,,,,4,,,62,100
80160,note_on,,,,,32,0,10,,,,,2,,,82,105
80160,note_on,,,,,32,0,11,,,,,3,,,82,45
80160,note_on,,,,,32,0,12,,,,,4,,,62,95
80192,note_off,,,,,128,0,15,,,,,7,,,70,100
80192,note_off,,,,,0,0,15,,,,,7,,,74,100
80224,note_off,,,,,64,0,10,,,,,2,,,82,100
80224,note_off,,,,,64,0,12,,,,,4,,,62,100
80224,note_off,,,,,64,0,11,,,,,3,,,82,100
80256,note_on,,,,,32,0,10,,,,,2,,,83,106
80256,note_on,,,,,0,0,15,,,,,7,,,74,100
80256,note_on,,,,,32,0,11,,,,,3,,,83,46
80256,note_on,,,,,32,0,12,,,,,4,,,62,96
80256,note_on,,,,,64,0,15,,,,,7,,,71,100
80320,note_off,,,,,256,0,14,,,,,6,,,43,100
80320,note_off,,,,,256,0,16,,,,,7,,,55,100
80320,note_off,,,,,256,0,13,,,,,5,,,55,100
80320,note_off,,,,,64,0,10,,,,,2,,,83,100
80320,note_off,,,,,64,0,11,,,,,3,,,83,100
80320,note_off,,,,,64,0,12,,,,,4,,,62,100
80352,note_on,,,,,32,0,10,,,,,2,,,83,106
80352,note_on,,,,,32,0,12,,,,,4,,,62,96
80352,note_on,,,,,32,0,11,,,,,3,,,83,46
80384,note_off,,,,,0,0,15,,,,,7,,,74,100
80384,note_off,,,,,128,0,15,,,,,7,,,71,100
80416,note_off,,,,,64,0,12,,,,,4,,,62,100
80416,note_off,,,,,64,0,11,,,,,3,,,83,100
80416,note_off,,,,,64,0,10,,,,,2,,,83,100
80448,note_on,,,,,32,0,12,,,,,4,,,67,96
80448,note_on,,,,,128,0,13,,,,,5,,,53,96
80448,note_on,,,,,32,0,11,,,,,3,,,83,46
80448,note_on,,,,,32,0,10,,,,,2,,,83,106
80448,note_on,,,,,0,0,12,,,,,4,,,62,96
80448,note_on,,,,,128,0,14,,,,,6,,,41,96
80448,note_on,,,,,64,0,15,,,,,7,,,71,100
80448,note_on,,,,,128,0,16,,,,,7,,,53,100
80448,note_on,,,,,0,0,15,,,,,7,,,74,100
80512,note_off,,,,,64,0,11,,,,,3,,,83,100
80512,note_off,,,,,64,0,12,,,,,4,,,67,100
80512,note_off,,,,,64,0,10,,,,,2,,,83,100
80512,note_off,,,,,0,0,12,,,,,4,,,62,100
80544,note_on,,,,,32,0,10,,,,,2,,,83,107
80544,note_on,,,,,32,0,11,,,,,3,,,83,47
80544,note_on,,,,,0,0,12,,,,,4,,,62,97
80544,note_on,,,,,32,0,12,,,,,4,,,67,97
80576,note_off,,,,,128,0,16,,,,,7,,,53,100
80576,note_off,,,,,128,0,15,,,,,7,,,71,100
80576,note_off,,,,,0,0,15,,,,,7,,,74,100
80576,note_off,,,,,128,0,13,,,,,5,,,53,100
80576,note_off,,,,,128,0,14,,,,,6,,,41,100
80608,note_off,,,,,64,0,10,,,,,2,,,83,100
80608,note_off,,,,,64,0,12,,,,,4,,,67,100
80608,note_off,,,,,0,0,12,,,,,4,,,62,100
80608,note_off,,,,,64,0,11,,,,,3,,,83,100
80640,note_on,,,,,32,0,11,,,,,3,,,84,47
80640,note_on,,,,,0,0,15,,,,,7,,,67,100
80640,note_on,,,,,32,0,12,,,,,4,,,67,97
80640,note_on,,,,,0,0,12,,,,,4,,,64,97
80640,note_on,,,,,64,0,13,,,,,5,,,52,97
80640,note_on,,,,,64,0,15,,,,,7,,,72,100
80640,note_on,,,,,64,0,16,,,,,7,,,52,100
80640,note_on,,,,,64,0,14,,,,,6,,,40,97
80640,note_on,,,,,32,0,10,,,,,2,,,84,107
80704,note_off,,,,,0,0,12,,,,,4,,,64,100
80704,note_off,,,,,64,0,12,,,,,4,,,67,100
80704,note_off,,,,,64,0,11,,,,,3,,,84,100
80704,note_off,,,,,64,0,10,,,,,2,,,84,100
80736,note_on,,,,,0,0,12,,,,,4,,,64,98
80736,note_on,,,,,32,0,12,,,,,4,,,67,98
80736,note_on,,,,,32,0,11,,,,,3,,,84,48
80736,note_on,,,,,32,0,10,,,,,2,,,84,108
80768,note_off,,,,,128,0,13,,,,,5,,,52,100
80768,note_off,,,,,128,0,14,,,,,6,,,40,100
80768,note_off,,,,,128,0,16,,,,,7,,,52,100
80768,note_off,,,,,128,0,15,,,,,7,,,72,100
80768,note_off,,,,,0,0,15,,,,,7,,,67,100
80800,note_off,,,,,64,0,12,,,,,4,,,67,100
80800,note_off,,,,,0,0,12,,,,,4,,,64,100
80800,note_off,,,,,64,0,11,,,,,3,,,84,100
80800,note_off,,,,,64,0,10,,,,,2,,,84,100
80832,note_on,,,,,32,0,12,,,,,4,,,64,98
80832,note_on,,,,,32,0,11,,,,,3,,,84,48
80832,note_on,,,,,64,0,15,,,,,7,,,64,100
80832,note_on,,,,,64,0,13,,,,,5,,,57,98
80832,note_on,,,,,64,0,16,,,,,7,,,57,100
80832,note_on,,,,,32,0,10,,,,,2,,,84,108
80832,note_on,,,,,0,0,15,,,,,7,,,72,100
80832,note_on,,,,,64,0,14,,,,,6,,,45,98
80896,note_off,,,,,64,0,10,,,,,2,,,84,100
80896,note_off,,,,,64,0,11,,,,,3,,,84,100
80896,note_off,,,,,64,0,12,,,,,4,,,64,100
80928,note_on,,,,,32,0,10,,,,,2,,,84,108
80928,note_on,,,,,32,0,11,,,,,3,,,84,48
80928,note_on,,,,,32,0,12,,,,,4,,,64,98
80960,note_off,,,,,0,0,15,,,,,7,,,72,100
80960,note_off,,,,,128,0,15,,,,,7,,,64,100
80992,note_off,,,,,64,0,10,,,,,2,,,84,100
80992,note_off,,,,,64,0,12,,,,,4,,,64,100
80992,note_off,,,,,64,0,11,,,,,3,,,84,100
81024,note_on,,,,,32,0,11,,,,,3,,,85,49
81024,note_on,,,,,32,0,12,,,,,4,,,64,99
81024,note_on,,,,,64,0,15,,,,,7,,,64,100
81024,note_on,,,,,32,0,10,,,,,2,,,85,109
81024,note_on,,,,,0,0,15,,,,,7,,,73,100
81088,note_off,,,,,64,0,12,,,,,4,,,64,100
81088,note_off,,,,,64,0,10,,,,,2,,,85,100
81088,note_off,,,,,256,0,14,,,,,6,,,45,100
81088,note_off,,,,,256,0,13,,,,,5,,,57,100
81088,note_off,,,,,64,0,11,,,,,3,,,85,100
81088,note_off,,,,,256,0,16,,,,,7,,,57,100
81120,note_on,,,,,32,0,12,,,,,4,,,64,99
81120,note_on,,,,,32,0,11,,,,,3,,,85,49
81120,note_on,,,,,32,0,10,,,,,2,,,85,109
81152,note_off,,,,,128,0,15,,,,,7,,,64,100
81152,note_off,,,,,0,0,15,,,,,7,,,73,100
81184,note_off,,,,,64,0,12,,,,,4,,,64,100
81184,note_off,,,,,64,0,10,,,,,2,,,85,100
81184,note_off,,,,,64,0,11,,,,,3,,,85,100
81216,note_on,,,,,32,0,10,,,,,2,,,85,109
81216,note_on,,,,,64,0,15,,,,,7,,,73,100
81216,note_on,,,,,128,0,13,,,,,5,,,55,99
81216,note_on,,,,,0,0,15,,,,,7,,,69,100
81216,note_on,,,,,32,0,11,,,,,3,,,85,49
81216,note_on,,,,,128,0,16,,,,,7,,,55,100
81216,note_on,,,,,128,0,14,,,,,6,,,43,99
81216,note_on,,,,,32,0,12,,,,,4,,,69,99
81216,note_on,,,,,0,0,12,,,,,4,,,64,99
81280,note_off,,,,,0,0,12,,,,,4,,,64,100
81280,note_off,,,,,64,0,10,,,,,2,,,85,100
81280,note_off,,,,,64,0,12,,,,,4,,,69,100
81280,note_off,,,,,64,0,11,,,,,3,,,85,100
81312,note_on,,,,,0,0,12,,,,,4,,,64,100
81312,note_on,,,,,32,0,12,,,,,4,,,69,100
81312,note_on,,,,,32,0,10,,,,,2,,,85,110
81312,note_on,,,,,32,0,11,,,,,3,,,85,50
81344,note_off,,,,,128,0,14,,,,,6,,,43,100
81344,note_off,,,,,128,0,13,,,,,5,,,55,100
81344,note_off,,,,,0,0,15,,,,,7,,,69,100
81344,note_off,,,,,128,0,16,,,,,7,,,55,100
81344,note_off,,,,,128,0,15,,,,,7,,,73,100
81376,note_off,,,,,64,0,12,,,,,4,,,69,100
81376,note_off,,,,,0,0,12,,,,,4,,,64,100
81376,note_off,,,,,64,0,11,,,,,3,,,85,100
81376,note_off,,,,,64,0,10,,,,,2,,,85,100
81408,note_on,,,,,0,0,12,,,,,4,,,69,100
81408,note_on,,,,,32,0,12,,,,,4,,,65,100
81408,note_on,,,,,64,0,15,,,,,7,,,69,100
81408,note_on,,,,,64,0,16,,,,,7,,,53,100
81408,note_on,,,,,0,0,15,,,,,7,,,74,100
81408,note_on,,,,,64,0,14,,,,,6,,,41,100
81408,note_on,,,,,32,0,11,,,,,3,,,86,50
81408,note_on,,,,,32,0,10,,,,,2,,,86,110
81408,note_on,,,,,64,0,13,,,,,5,,,53,100
81472,note_off,,,,,64,0,12,,,,,4,,,65,100
81472,note_off,,,,,0,0,12,,,,,4,,,69,100
81472,note_off,,,,,64,0,14,,,,,6,,,41,100
81472,note_off,,,,,64,0,13,,,,,5,,,53,100
81504,note_on,,,,,32,0,13,,,,,5,,,53,100
81504,note_on,,,,,32,0,14,,,,,6,,,41,100
81504,note_on,,,,,0,0,12,,,,,4,,,69,100
81504,note_on,,,,,32,0,12,,,,,4,,,65,100
81536,note_off,,,,,128,0,10,,,,,2,,,86,100
81536,note_off,,,,,128,0,16,,,,,7,,,53,100
81536,note_off,,,,,128,0,15,,,,,7,,,69,100
81536,note_off,,,,,128,0,11,,,,,3,,,86,100
81536,note_off,,,,,0,0,15,,,,,7,,,74,100
81568,note_off,,,,,0,0,12,,,,,4,,,69,100
81568,note_off,,,,,64,0,14,,,,,6,,,41,100
81568,note_off,,,,,64,0,12,,,,,4,,,65,100
81568,note_off,,,,,64,0,13,,,,,5,,,53,100
81600,note_on,,,,,0,0,15,,,,,7,,,65,100
81600,note_on,,,,,64,0,16,,,,,7,,,50,100
81600,note_on,,,,,32,0,12,,,,,4,,,65,100
81600,note_on,,,,,0,0,12,,,,,4,,,69,100
81600,note_on,,,,,64,0,11,,,,,3,,,77,50
81600,note_on,,,,,32,0,14,,,,,6,,,38,100
81600,note_on,,,,,32,0,13,,,,,5,,,50,100
81600,note_on,,,,,64,0,15,,,,,7,,,69,100
81600,note_on,,,,,64,0,10,,,,,2,,,77,110
81664,note_off,,,,,64,0,14,,,,,6,,,38,100
81664,note_off,,,,,64,0,13,,,,,5,,,50,100
81664,note_off,,,,,64,0,12,,,,,4,,,65,100
81664,note_off,,,,,0,0,12,,,,,4,,,69,100
81696,note_on,,,,,0,0,12,,,,,4,,,69,100
81696,note_on,,,,,32,0,13,,,,,5,,,50,100
81696,note_on,,,,,32,0,14,,,,,6,,,38,100
81696,note_on,,,,,32,0,12,,,,,4,,,65,100
81728,note_off,,,,,128,0,15,,,,,7,,,69,100
81728,note_off,,,,,128,0,16,,,,,7,,,50,100
81728,note_off,,,,,128,0,10,,,,,2,,,77,100
81728,note_off,,,,,128,0,11,,,,,3,,,77,100
81728,note_off,,,,,0,0,15,,,,,7,,,65,100
81760,note_off,,,,,0,0,12,,,,,4,,,69,100
81760,note_off,,,,,64,0,13,,,,,5,,,50,100
81760,note_off,,,,,64,0,12,,,,,4,,,65,100
81760,note_off,,,,,64,0,14,,,,,6,,,38,100
81792,note_on,,,,,32,0,14,,,,,6,,,45,100
81792,note_on,,,,,32,0,13,,,,,5,,,57,100
81792,note_on,,,,,64,0,16,,,,,7,,,57,100
81792,note_on,,,,,64,0,11,,,,,3,,,69,50
81792,note_on,,,,,32,0,12,,,,,4,,,64,100
81792,note_on,,,,,0,0,15,,,,,7,,,64,100
81792,note_on,,,,,64,0,15,,,,,7,,,65,100
81792,note_on,,,,,64,0,10,,,,,2,,,69,110
81792,note_on,,,,,0,0,12,,,,,4,,,69,100
81856,note_off,,,,,64,0,14,,,,,6,,,45,100
81856,note_off,,,,,64,0,13,,,,,5,,,57,100
81856,note_off,,,,,0,0,12,,,,,4,,,69,100
81856,note_off,,,,,64,0,12,,,,,4,,,64,100
81888,note_on,,,,,32,0,12,,,,,4,,,64,100
81888,note_on,,,,,32,0,14,,,,,6,,,45,100
81888,note_on,,,,,32,0,13,,,,,5,,,57,100
81888,note_on,,,,,0,0,12,,,,,4,,,69,100
81920,note_off,,,,,0,0,15,,,,,7,,,64,100
81920,note_off,,,,,128,0,10,,,,,2,,,69,100
81920,note_off,,,,,128,0,16,,,,,7,,,57,100
81920,note_off,,,,,128,0,11,,,,,3,,,69,100
81920,note_off,,,,,128,0,15,,,,,7,,,65,100
81952,note_off,,,,,0,0,12,,,,,4,,,69,100
81952,note_off,,,,,64,0,14,,,,,6,,,45,100
81952,note_off,,,,,64,0,12,,,,,4,,,64,100
81952,note_off,,,,,64,0,13,,,,,5,,,57,100
81984,note_on,,,,,32,0,14,,,,,6,,,33,100
81984,note_on,,,,,0,0,15,,,,,7,,,64,100
81984,note_on,,,,,64,0,15,,,,,7,,,61,100
81984,note_on,,,,,64,0,11,,,,,3,,,85,50
81984,note_on,,,,,64,0,10,,,,,2,,,85,110
81984,note_on,,,,,32,0,12,,,,,4,,,64,100
81984,note_on,,,,,0,0,12,,,,,4,,,69,100
81984,note_on,,,,,64,0,16,,,,,7,,,45,100
81984,note_on,,,,,32,0,13,,,,,5,,,45,100
82048,note_off,,,,,0,0,12,,,,,4,,,69,100
82048,note_off,,,,,64,0,13,,,,,5,,,45,100
82048,note_off,,,,,64,0,14,,,,,6,,,33,100
82048,note_off,,,,,64,0,12,,,,,4,,,64,100
82080,note_on,,,,,32,0,13,,,,,5,,,45,100
82080,note_on,,,,,32,0,14,,,,,6,,,33,100
82080,note_on,,,,,0,0,12,,,,,4,,,69,100
82080,note_on,,,,,32,0,12,,,,,4,,,64,100
82112,note_off,,,,,128,0,16,,,,,7,,,45,100
82112,note_off,,,,,128,0,10,,,,,2,,,85,100
82112,note_off,,,,,128,0,11,,,,,3,,,85,100
82112,note_off,,,,,128,0,15,,,,,7,,,61,100
82112,note_off,,,,,0,0,15,,,,,7,,,64,100
82144,note_off,,,,,64,0,13,,,,,5,,,45,100
82144,note_off,,,,,0,0,12,,,,,4,,,69,100
82144,note_off,,,,,64,0,12,,,,,4,,,64,100
82144,note_off,,,,,64,0,14,,,,,6,,,33,100
82176,note_on,,,,,64,0,15,,,,,7,,,62,100
82176,note_on,,,,,0,0,12,,,,,4,,,65,100
82176,note_on,,,,,32,0,12,,,,,4,,,69,100
82176,note_on,,,,,0,0,15,,,,,7,,,69,100
82176,note_on,,,,,32,0,14,,,,,6,,,38,100
82176,note_on,,,,,64,0,10,,,,,2,,,86,110
82176,note_on,,,,,32,0,13,,,,,5,,,50,100
82176,note_on,,,,,64,0,11,,,,,3,,,86,50
82176,program_change,,,,,13696,0,8,,,,,0,40,,,
82176,note_on,,,,,0,0,15,,,,,7,,,65,100
82176,note_on,,,,,64,0,16,,,,,7,,,50,100
82180,note_on,,,,,4,0,8,,,,,0,,,86,85
82244,note_off,,,,,64,0,8,,,,,0,,,86,100
82276,note_on,,,,,32,0,8,,,,,0,,,74,85
82340,note_off,,,,,64,0,8,,,,,0,,,74,100
82372,note_on,,,,,32,0,8,,,,,0,,,74,85
82432,note_off,,,,,256,0,12,,,,,4,,,69,100
82432,note_off,,,,,256,0,10,,,,,2,,,86,100
82432,note_off,,,,,256,0,13,,,,,5,,,50,100
82432,note_off,,,,,256,0,15,,,,,7,,,62,100
82432,note_off,,,,,0,0,15,,,,,7,,,65,100
82432,note_off,,,,,0,0,15,,,,,7,,,69,100
82432,note_off,,,,,0,0,12,,,,,4,,,65,100
82432,note_off,,,,,256,0,11,,,,,3,,,86,100
82432,note_off,,,,,256,0,16,,,,,7,,,50,100
82432,note_off,,,,,256,0,14,,,,,6,,,38,100
82436,note_off,,,,,64,0,8,,,,,0,,,74,100
82468,note_on,,,,,32,0,8,,,,,0,,,77,85
82532,note_off,,,,,64,0,8,,,,,0,,,77,100
82564,note_on,,,,,32,0,8,,,,,0,,,77,85
82628,note_off,,,,,64,0,8,,,,,0,,,77,100
82660,note_on,,,,,32,0,8,,,,,0,,,74,85
82724,note_off,,,,,64,0,8,,,,,0,,,74,100
82756,note_on,,,,,32,0,8,,,,,0,,,74,85
82820,note_off,,,,,64,0,8,,,,,0,,,74,100
82852,note_on,,,,,32,0,8,,,,,0,,,77,85
82916,note_off,,,,,64,0,8,,,,,0,,,77,100
82944,note_on,,,,,28,0,8,,,,,0,,,77,85
83008,note_off,,,,,64,0,8,,,,,0,,,77,100
83040,note_on,,,,,32,0,8,,,,,0,,,74,85
83104,note_off,,,,,64,0,8,,,,,0,,,74,100
83136,note_on,,,,,32,0,8,,,,,0,,,74,85
83200,note_off,,,,,64,0,8,,,,,0,,,74,100
83232,note_on,,,,,32,0,8,,,,,0,,,77,85
83296,note_off,,,,,64,0,8,,,,,0,,,77,100
83328,note_on,,,,,32,0,8,,,,,0,,,77,85
83328,program_change,,,,,27008,0,9,,,,,1,40,,,
83392,note_off,,,,,64,0,8,,,,,0,,,77,100
83424,note_on,,,,,32,0,8,,,,,0,,,74,85
83488,note_off,,,,,64,0,8,,,,,0,,,74,100
83520,note_on,,,,,32,0,8,,,,,0,,,74,85
83584,note_off,,,,,64,0,8,,,,,0,,,74,100
83616,note_on,,,,,32,0,8,,,,,0,,,77,85
83680,note_off,,,,,64,0,8,,,,,0,,,77,100
83712,note_on,,,,,1280,0,14,,,,,6,,,33,85
83712,note_on,,,,,1280,0,15,,,,,7,,,64,100
83712,note_on,,,,,0,0,15,,,,,7,,,61,100
83712,note_on,,,,,1280,0,12,,,,,4,,,73,85
83712,note_on,,,,,0,0,12,,,,,4,,,69,85
83712,note_on,,,,,1280,0,10,,,,,2,,,81,85
83712,note_on,,,,,384,0,9,,,,,1,,,76,85
83712,note_on,,,,,1280,0,16,,,,,7,,,45,100
83712,note_on,,,,,1280,0,11,,,,,3,,,76,85
83712,note_on,,,,,32,0,8,,,,,0,,,81,85
83712,note_on,,,,,1280,0,13,,,,,5,,,45,85
83776,note_off,,,,,64,0,9,,,,,1,,,76,100
83808,note_on,,,,,32,0,9,,,,,1,,,73,85
83840,note_off,,,,,128,0,8,,,,,0,,,81,100
83872,note_off,,,,,64,0,9,,,,,1,,,73,100
83904,note_on,,,,,64,0,8,,,,,0,,,81,85
83904,note_on,,,,,32,0,9,,,,,1,,,73,85
83968,note_off,,,,,256,0,10,,,,,2,,,81,100
83968,note_off,,,,,64,0,9,,,,,1,,,73,100
83968,note_off,,,,,256,0,12,,,,,4,,,73,100
83968,note_off,,,,,0,0,12,,,,,4,,,69,100
83968,note_off,,,,,256,0,16,,,,,7,,,45,100
83968,note_off,,,,,256,0,15,,,,,7,,,64,100
83968,note_off,,,,,0,0,15,,,,,7,,,61,100
83968,note_off,,,,,256,0,13,,,,,5,,,45,100
83968,note_off,,,,,256,0,14,,,,,6,,,33,100
83968,note_off,,,,,256,0,11,,,,,3,,,76,100
84000,note_on,,,,,32,0,9,,,,,1,,,76,85
84032,note_off,,,,,128,0,8,,,,,0,,,81,100
84064,note_off,,,,,64,0,9,,,,,1,,,76,100
84096,note_on,,,,,64,0,8,,,,,0,,,81,85
84096,note_on,,,,,32,0,9,,,,,1,,,76,85
84160,note_off,,,,,64,0,9,,,,,1,,,76,100
84192,note_on,,,,,32,0,9,,,,,1,,,73,85
84224,note_off,,,,,128,0,8,,,,,0,,,81,100
84256,note_off,,,,,64,0,9,,,,,1,,,73,100
84288,note_on,,,,,32,0,9,,,,,1,,,73,85
84288,note_on,,,,,64,0,8,,,,,0,,,81,85
84352,note_off,,,,,64,0,9,,,,,1,,,73,100
84384,note_on,,,,,32,0,9,,,,,1,,,76,85
84416,note_off,,,,,128,0,8,,,,,0,,,81,100
84448,note_off,,,,,64,0,9,,,,,1,,,76,100
84480,note_on,,,,,32,0,9,,,,,1,,,76,85
84480,note_on,,,,,64,0,8,,,,,0,,,81,85
84544,note_off,,,,,64,0,9,,,,,1,,,76,100
84576,note_on,,,,,32,0,9,,,,,1,,,73,85
84608,note_off,,,,,128,0,8,,,,,0,,,81,100
84640,note_off,,,,,64,0,9,,,,,1,,,73,100
84672,note_on,,,,,32,0,9,,,,,1,,,73,85
84672,note_on,,,,,64,0,8,,,,,0,,,81,85
84736,note_off,,,,,64,0,9,,,,,1,,,73,100
84768,note_on,,,,,32,0,9,,,,,1,,,76,85
84800,note_off,,,,,128,0,8,,,,,0,,,81,100
84832,note_off,,,,,64,0,9,,,,,1,,,76,100
84864,note_on,,,,,32,0,9,,,,,1,,,76,85
84864,note_on,,,,,64,0,8,,,,,0,,,81,85
84928,note_off,,,,,64,0,9,,,,,1,,,76,100
84960,note_on,,,,,32,0,9,,,,,1,,,73,85
84992,note_off,,,,,128,0,8,,,,,0,,,81,100
85024,note_off,,,,,64,0,9,,,,,1,,,73,100
85056,note_on,,,,,32,0,9,,,,,1,,,73,85
85056,note_on,,,,,64,0,8,,,,,0,,,81,85
85120,note_off,,,,,64,0,9,,,,,1,,,73,100
85152,note_on,,,,,32,0,9,,,,,1,,,76,85
85184,note_off,,,,,128,0,8,,,,,0,,,81,100
85216,note_off,,,,,64,0,9,,,,,1,,,76,100
85248,note_on,,,,,1280,0,12,,,,,4,,,74,85
85248,note_on,,,,,0,0,12,,,,,4,,,69,85
85248,note_on,,,,,1280,0,10,,,,,2,,,81,85
85248,note_on,,,,,1280,0,14,,,,,6,,,38,85
85248,note_on,,,,,0,0,15,,,,,7,,,65,100
85248,note_on,,,,,64,0,8,,,,,0,,,77,85
85248,note_on,,,,,1280,0,13,,,,,5,,,50,85
85248,note_on,,,,,1280,0,11,,,,,3,,,77,85
85248,note_on,,,,,1280,0,16,,,,,7,,,50,100
85248,note_on,,,,,32,0,9,,,,,1,,,81,85
85248,note_on,,,,,1280,0,15,,,,,7,,,69,100
85312,note_off,,,,,64,0,8,,,,,0,,,77,100
85344,note_on,,,,,32,0,8,,,,,0,,,74,85
85376,note_off,,,,,128,0,9,,,,,1,,,81,100
85408,note_off,,,,,64,0,8,,,,,0,,,74,100
85440,note_on,,,,,32,0,8,,,,,0,,,74,85
85440,note_on,,,,,64,0,9,,,,,1,,,81,85
85504,note_off,,,,,256,0,11,,,,,3,,,77,100
85504,note_off,,,,,256,0,16,,,,,7,,,50,100
85504,note_off,,,,,256,0,10,,,,,2,,,81,100
85504,note_off,,,,,256,0,13,,,,,5,,,50,100
85504,note_off,,,,,256,0,14,,,,,6,,,38,100
85504,note_off,,,,,64,0,8,,,,,0,,,74,100
85504,note_off,,,,,256,0,12,,,,,4,,,74,100
85504,note_off,,,,,0,0,15,,,,,7,,,65,100
85504,note_off,,,,,0,0,12,,,,,4,,,69,100
85504,note_off,,,,,256,0,15,,,,,7,,,69,100
85536,note_on,,,,,32,0,8,,,,,0,,,77,85
85568,note_off,,,,,128,0,9,,,,,1,,,81,100
85600,note_off,,,,,64,0,8,,,,,0,,,77,100
85632,note_on,,,,,32,0,8,,,,,0,,,77,85
85632,note_on,,,,,64,0,9,,,,,1,,,81,85
85696,note_off,,,,,64,0,8,,,,,0,,,77,100
85728,note_on,,,,,32,0,8,,,,,0,,,74,85
85760,note_off,,,,,128,0,9,,,,,1,,,81,100
85792,note_off,,,,,64,0,8,,,,,0,,,74,100
85824,note_on,,,,,64,0,9,,,,,1,,,81,85
85824,note_on,,,,,32,0,8,,,,,0,,,74,85
85888,note_off,,,,,64,0,8,,,,,0,,,74,100
85920,note_on,,,,,32,0,8,,,,,0,,,77,85
85952,note_off,,,,,128,0,9,,,,,1,,,81,100
85984,note_off,,,,,64,0,8,,,,,0,,,77,100
86016,note_on,,,,,64,0,9,,,,,1,,,81,85
86016,note_on,,,,,32,0,8,,,,,0,,,77,85
86080,note_off,,,,,64,0,8,,,,,0,,,77,100
86112,note_on,,,,,32,0,8,,,,,0,,,74,85
86144,note_off,,,,,128,0,9,,,,,1,,,81,100
86176,note_off,,,,,64,0,8,,,,,0,,,74,100
86208,note_on,,,,,64,0,9,,,,,1,,,81,85
86208,note_on,,,,,32,0,8,,,,,0,,,74,85
86272,note_off,,,,,64,0,8,,,,,0,,,74,100
86304,note_on,,,,,32,0,8,,,,,0,,,77,85
86336,note_off,,,,,128,0,9,,,,,1,,,81,100
86368,note_off,,,,,64,0,8,,,,,0,,,77,100
86400,note_on,,,,,64,0,9,,,,,1,,,81,85
86400,note_on,,,,,32,0,8,,,,,0,,,77,85
86464,note_off,,,,,64,0,8,,,,,0,,,77,100
86496,note_on,,,,,32,0,8,,,,,0,,,74,85
86528,note_off,,,,,128,0,9,,,,,1,,,81,100
86560,note_off,,,,,64,0,8,,,,,0,,,74,100
86592,note_on,,,,,32,0,8,,,,,0,,,74,85
86592,note_on,,,,,64,0,9,,,,,1,,,81,85
86656,note_off,,,,,64,0,8,,,,,0,,,74,100
86688,note_on,,,,,32,0,8,,,,,0,,,77,85
86720,note_off,,,,,128,0,9,,,,,1,,,81,100
86752,note_off,,,,,64,0,8,,,,,0,,,77,100
86784,note_on,,,,,0,0,15,,,,,7,,,65,100
86784,note_on,,,,,1280,0,15,,,,,7,,,70,100
86784,note_on,,,,,1280,0,10,,,,,2,,,82,85
86784,note_on,,,,,64,0,9,,,,,1,,,77,85
86784,note_on,,,,,1280,0,14,,,,,6,,,38,85
86784,note_on,,,,,32,0,8,,,,,0,,,82,85
86784,note_on,,,,,0,0,12,,,,,4,,,65,85
86784,note_on,,,,,1280,0,12,,,,,4,,,74,85
86784,note_on,,,,,1280,0,16,,,,,7,,,50,100
86784,note_on,,,,,1280,0,11,,,,,3,,,77,85
86784,note_on,,,,,1280,0,13,,,,,5,,,50,85
86848,note_off,,,,,64,0,9,,,,,1,,,77,100
86880,note_on,,,,,32,0,9,,,,,1,,,74,85
86912,note_off,,,,,128,0,8,,,,,0,,,82,100
86944,note_off,,,,,64,0,9,,,,,1,,,74,100
86976,note_on,,,,,64,0,8,,,,,0,,,82,85
86976,note_on,,,,,32,0,9,,,,,1,,,74,85
87040,note_off,,,,,256,0,16,,,,,7,,,50,100
87040,note_off,,,,,64,0,9,,,,,1,,,74,100
87040,note_off,,,,,256,0,12,,,,,4,,,74,100
87040,note_off,,,,,256,0,10,,,,,2,,,82,100
87040,note_off,,,,,0,0,12,,,,,4,,,65,100
87040,note_off,,,,,256,0,11,,,,,3,,,77,100
87040,note_off,,,,,256,0,13,,,,,5,,,50,100
87040,note_off,,,,,0,0,15,,,,,7,,,65,100
87040,note_off,,,,,256,0,15,,,,,7,,,70,100
87040,note_off,,,,,256,0,14,,,,,6,,,38,100
87072,note_on,,,,,32,0,9,,,,,1,,,77,85
87104,note_off,,,,,128,0,8,,,,,0,,,82,100
87136,note_off,,,,,64,0,9,,,,,1,,,77,100
87168,note_on,,,,,32,0,9,,,,,1,,,77,85
87168,note_on,,,,,64,0,8,,,,,0,,,82,85
87232,note_off,,,,,64,0,9,,,,,1,,,77,100
87264,note_on,,,,,32,0,9,,,,,1,,,74,85
87296,note_off,,,,,128,0,8,,,,,0,,,82,100
87328,note_off,,,,,64,0,9,,,,,1,,,74,100
87360,note_on,,,,,64,0,8,,,,,0,,,82,85
87360,note_on,,,,,32,0,9,,,,,1,,,74,85
87424,note_off,,,,,64,0,9,,,,,1,,,74,100
87456,note_on,,,,,32,0,9,,,,,1,,,77,85
87488,note_off,,,,,128,0,8,,,,,0,,,82,100
87520,note_off,,,,,64,0,9,,,,,1,,,77,100
87552,note_on,,,,,64,0,8,,,,,0,,,82,85
87552,note_on,,,,,32,0,9,,,,,1,,,77,85
87616,note_off,,,,,64,0,9,,,,,1,,,77,100
87648,note_on,,,,,32,0,9,,,,,1,,,74,85
87680,note_off,,,,,128,0,8,,,,,0,,,82,100
87712,note_off,,,,,64,0,9,,,,,1,,,74,100
87744,note_on,,,,,32,0,9,,,,,1,,,74,85
87744,note_on,,,,,64,0,8,,,,,0,,,82,85
87808,note_off,,,,,64,0,9,,,,,1,,,74,100
87840,note_on,,,,,32,0,9,,,,,1,,,77,85
87872,note_off,,,,,128,0,8,,,,,0,,,82,100
87904,note_off,,,,,64,0,9,,,,,1,,,77,100
87936,note_on,,,,,64,0,8,,,,,0,,,82,85
87936,note_on,,,,,32,0,9,,,,,1,,,77,85
88000,note_off,,,,,64,0,9,,,,,1,,,77,100
88032,note_on,,,,,32,0,9,,,,,1,,,74,85
88064,note_off,,,,,128,0,8,,,,,0,,,82,100
88096,note_off,,,,,64,0,9,,,,,1,,,74,100
88128,note_on,,,,,64,0,8,,,,,0,,,82,85
88128,note_on,,,,,32,0,9,,,,,1,,,74,85
88192,note_off,,,,,64,0,9,,,,,1,,,74,100
88224,note_on,,,,,32,0,9,,,,,1,,,77,85
88256,note_off,,,,,128,0,8,,,,,0,,,82,100
88288,note_off,,,,,64,0,9,,,,,1,,,77,100
88320,note_on,,,,,1280,0,13,,,,,5,,,48,85
88320,note_on,,,,,1280,0,10,,,,,2,,,82,85
88320,note_on,,,,,1280,0,14,,,,,6,,,36,85
88320,note_on,,,,,64,0,8,,,,,0,,,76,85
88320,note_on,,,,,1280,0,15,,,,,7,,,70,100
88320,note_on,,,,,0,0,15,,,,,7,,,67,100
88320,note_on,,,,,1280,0,12,,,,,4,,,67,85
88320,note_on,,,,,32,0,9,,,,,1,,,82,85
88320,note_on,,,,,1280,0,16,,,,,7,,,48,100
88320,note_on,,,,,1280,0,11,,,,,3,,,76,85
88384,note_off,,,,,64,0,8,,,,,0,,,76,100
88416,note_on,,,,,32,0,8,,,,,0,,,72,85
88448,note_off,,,,,128,0,9,,,,,1,,,82,100
88480,note_off,,,,,64,0,8,,,,,0,,,72,100
88512,note_on,,,,,32,0,8,,,,,0,,,72,85
88512,note_on,,,,,64,0,9,,,,,1,,,82,85
88576,note_off,,,,,256,0,15,,,,,7,,,70,100
88576,note_off,,,,,0,0,15,,,,,7,,,67,100
88576,note_off,,,,,256,0,14,,,,,6,,,36,100
88576,note_off,,,,,256,0,10,,,,,2,,,82,100
88576,note_off,,,,,256,0,13,,,,,5,,,48,100
88576,note_off,,,,,256,0,12,,,,,4,,,67,100
88576,note_off,,,,,256,0,11,,,,,3,,,76,100
88576,note_off,,,,,64,0,8,,,,,0,,,72,100
88576,note_off,,,,,256,0,16,,,,,7,,,48,100
88608,note_on,,,,,32,0,8,,,,,0,,,76,85
88640,note_off,,,,,128,0,9,,,,,1,,,82,100
88672,note_off,,,,,64,0,8,,,,,0,,,76,100
88704,note_on,,,,,64,0,9,,,,,1,,,82,85
88704,note_on,,,,,32,0,8,,,,,0,,,76,85
88768,note_off,,,,,64,0,8,,,,,0,,,76,100
88800,note_on,,,,,32,0,8,,,,,0,,,72,85
88832,note_off,,,,,128,0,9,,,,,1,,,82,100
88864,note_off,,,,,64,0,8,,,,,0,,,72,100
88896,note_on,,,,,32,0,8,,,,,0,,,72,85
88896,note_on,,,,,64,0,9,,,,,1,,,82,85
88960,note_off,,,,,64,0,8,,,,,0,,,72,100
88992,note_on,,,,,32,0,8,,,,,0,,,76,85
89024,note_off,,,,,128,0,9,,,,,1,,,82,100
89056,note_off,,,,,64,0,8,,,,,0,,,76,100
89088,note_on,,,,,64,0,9,,,,,1,,,82,85
89088,note_on,,,,,32,0,8,,,,,0,,,76,85
89152,note_off,,,,,64,0,8,,,,,0,,,76,100
89184,note_on,,,,,32,0,8,,,,,0,,,72,85
89216,note_off,,,,,128,0,9,,,,,1,,,82,100
89248,note_off,,,,,64,0,8,,,,,0,,,72,100
89280,note_on,,,,,64,0,9,,,,,1,,,82,85
89280,note_on,,,,,32,0,8,,,,,0,,,72,85
89344,note_off,,,,,64,0,8,,,,,0,,,72,100
89376,note_on,,,,,32,0,8,,,,,0,,,76,85
89408,note_off,,,,,128,0,9,,,,,1,,,82,100
89440,note_off,,,,,64,0,8,,,,,0,,,76,100
89472,note_on,,,,,64,0,9,,,,,1,,,82,85
89472,note_on,,,,,32,0,8,,,,,0,,,76,85
89536,note_off,,,,,64,0,8,,,,,0,,,76,100
89568,note_on,,,,,32,0,8,,,,,0,,,72,85
89600,note_off,,,,,128,0,9,,,,,1,,,82,100
89632,note_off,,,,,64,0,8,,,,,0,,,72,100
89664,note_on,,,,,32,0,8,,,,,0,,,72,85
89664,note_on,,,,,64,0,9,,,,,1,,,82,85
89728,note_off,,,,,64,0,8,,,,,0,,,72,100
89760,note_on,,,,,32,0,8,,,,,0,,,76,85
89792,note_off,,,,,128,0,9,,,,,1,,,82,100
89824,note_off,,,,,64,0,8,,,,,0,,,76,100
89856,note_on,,,,,1280,0,13,,,,,5,,,41,85
89856,note_on,,,,,64,0,9,,,,,1,,,77,85
89856,note_on,,,,,32,0,8,,,,,0,,,81,85
89856,note_on,,,,,1280,0,12,,,,,4,,,72,85
89856,note_on,,,,,0,0,12,,,,,4,,,65,85
89856,note_on,,,,,1280,0,11,,,,,3,,,77,85
89856,note_on,,,,,1280,0,14,,,,,6,,,41,85
89856,note_on,,,,,1280,0,15,,,,,7,,,60,100
89856,note_on,,,,,0,0,15,,,,,7,,,69,100
89856,note_on,,,,,1280,0,10,,,,,2,,,81,85
89856,note_on,,,,,1280,0,16,,,,,7,,,41,100
89920,note_off,,,,,64,0,9,,,,,1,,,77,100
89952,note_on,,,,,32,0,9,,,,,1,,,72,85
89984,note_off,,,,,128,0,8,,,,,0,,,81,100
90016,note_off,,,,,64,0,9,,,,,1,,,72,100
90048,note_on,,,,,32,0,9,,,,,1,,,72,85
90048,note_on,,,,,64,0,8,,,,,0,,,81,85
90112,note_off,,,,,0,0,12,,,,,4,,,65,100
90112,note_off,,,,,64,0,9,,,,,1,,,72,100
90112,note_off,,,,,256,0,13,,,,,5,,,41,100
90112,note_off,,,,,256,0,10,,,,,2,,,81,100
90112,note_off,,,,,256,0,16,,,,,7,,,41,100
90112,note_off,,,,,0,0,15,,,,,7,,,69,100
90112,note_off,,,,,256,0,15,,,,,7,,,60,100
90112,note_off,,,,,256,0,14,,,,,6,,,41,100
90112,note_off,,,,,256,0,11,,,,,3,,,77,100
90112,note_off,,,,,256,0,12,,,,,4,,,72,100
90144,note_on,,,,,32,0,9,,,,,1,,,77,85
90176,note_off,,,,,128,0,8,,,,,0,,,81,100
90208,note_off,,,,,64,0,9,,,,,1,,,77,100
90240,note_on,,,,,64,0,8,,,,,0,,,81,85
90240,note_on,,,,,32,0,9,,,,,1,,,77,85
90304,note_off,,,,,64,0,9,,,,,1,,,77,100
90336,note_on,,,,,32,0,9,,,,,1,,,72,85
90368,note_off,,,,,128,0,8,,,,,0,,,81,100
90400,note_off,,,,,64,0,9,,,,,1,,,72,100
90432,note_on,,,,,32,0,9,,,,,1,,,72,85
90432,note_on,,,,,64,0,8,,,,,0,,,81,85
90496,note_off,,,,,64,0,9,,,,,1,,,72,100
90528,note_on,,,,,32,0,9,,,,,1,,,77,85
90560,note_off,,,,,128,0,8,,,,,0,,,81,100
90592,note_off,,,,,64,0,9,,,,,1,,,77,100
90624,note_on,,,,,64,0,8,,,,,0,,,81,85
90624,note_on,,,,,32,0,9,,,,,1,,,77,85
90688,note_off,,,,,64,0,9,,,,,1,,,77,100
90720,note_on,,,,,32,0,9,,,,,1,,,72,85
90752,note_off,,,,,128,0,8,,,,,0,,,81,100
90784,note_off,,,,,64,0,9,,,,,1,,,72,100
90816,note_on,,,,,64,0,8,,,,,0,,,81,85
90816,note_on,,,,,32,0,9,,,,,1,,,72,85
90880,note_off,,,,,64,0,9,,,,,1,,,72,100
90912,note_on,,,,,32,0,9,,,,,1,,,77,85
90944,note_off,,,,,128,0,8,,,,,0,,,81,100
90976,note_off,,,,,64,0,9,,,,,1,,,77,100
91008,note_on,,,,,64,0,8,,,,,0,,,81,85
91008,note_on,,,,,32,0,9,,,,,1,,,77,85
91072,note_off,,,,,64,0,9,,,,,1,,,77,100
91104,note_on,,,,,32,0,9,,,,,1,,,72,85
91136,note_off,,,,,128,0,8,,,,,0,,,81,100
91168,note_off,,,,,64,0,9,,,,,1,,,72,100
91200,note_on,,,,,32,0,9,,,,,1,,,72,85
91200,note_on,,,,,64,0,8,,,,,0,,,81,85
91264,note_off,,,,,64,0,9,,,,,1,,,72,100
91296,note_on,,,,,32,0,9,,,,,1,,,77,85
91328,note_off,,,,,128,0,8,,,,,0,,,81,100
91360,note_off,,,,,64,0,9,,,,,1,,,77,100
91392,note_on,,,,,1280,0,12,,,,,4,,,65,85
91392,note_on,,,,,32,0,9,,,,,1,,,80,85
91392,note_on,,,,,1280,0,13,,,,,5,,,53,85
91392,note_on,,,,,1280,0,15,,,,,7,,,72,100
91392,note_on,,,,,1280,0,16,,,,,7,,,53,100
91392,note_on,,,,,1280,0,10,,,,,2,,,80,85
91392,note_on,,,,,0,0,15,,,,,7,,,68,100
91392,note_on,,,,,1280,0,11,,,,,3,,,77,85
91392,note_on,,,,,1280,0,14,,,,,6,,,41,85
91392,note_on,,,,,64,0,8,,,,,0,,,77,85
91392,note_on,,,,,0,0,12,,,,,4,,,72,85
91456,note_off,,,,,64,0,8,,,,,0,,,77,100
91488,note_on,,,,,32,0,8,,,,,0,,,72,85
91520,note_off,,,,,128,0,9,,,,,1,,,80,100
91552,note_off,,,,,64,0,8,,,,,0,,,72,100
91584,note_on,,,,,64,0,9,,,,,1,,,80,85
91584,note_on,,,,,32,0,8,,,,,0,,,72,85
91648,note_off,,,,,256,0,16,,,,,7,,,53,100
91648,note_off,,,,,0,0,15,,,,,7,,,68,100
91648,note_off,,,,,256,0,15,,,,,7,,,72,100
91648,note_off,,,,,256,0,10,,,,,2,,,80,100
91648,note_off,,,,,256,0,13,,,,,5,,,53,100
91648,note_off,,,,,256,0,11,,,,,3,,,77,100
91648,note_off,,,,,256,0,12,,,,,4,,,65,100
91648,note_off,,,,,0,0,12,,,,,4,,,72,100
91648,note_off,,,,,256,0,14,,,,,6,,,41,100
91648,note_off,,,,,64,0,8,,,,,0,,,72,100
91680,note_on,,,,,32,0,8,,,,,0,,,77,85
91712,note_off,,,,,128,0,9,,,,,1,,,80,100
91744,note_off,,,,,64,0,8,,,,,0,,,77,100
91776,note_on,,,,,32,0,8,,,,,0,,,77,85
91776,note_on,,,,,64,0,9,,,,,1,,,80,85
91840,note_off,,,,,64,0,8,,,,,0,,,77,100
91872,note_on,,,,,32,0,8,,,,,0,,,72,85
91904,note_off,,,,,128,0,9,,,,,1,,,80,100
91936,note_off,,,,,64,0,8,,,,,0,,,72,100
91968,note_on,,,,,64,0,9,,,,,1,,,80,85
91968,note_on,,,,,32,0,8,,,,,0,,,72,85
92032,note_off,,,,,64,0,8,,,,,0,,,72,100
92064,note_on,,,,,32,0,8,,,,,0,,,77,85
92096,note_off,,,,,128,0,9,,,,,1,,,80,100
92128,note_off,,,,,64,0,8,,,,,0,,,77,100
92160,note_on,,,,,64,0,9,,,,,1,,,80,85
92160,note_on,,,,,32,0,8,,,,,0,,,77,85
92224,note_off,,,,,64,0,8,,,,,0,,,77,100
92256,note_on,,,,,32,0,8,,,,,0,,,72,85
92288,note_off,,,,,128,0,9,,,,,1,,,80,100
92320,note_off,,,,,64,0,8,,,,,0,,,72,100
92352,note_on,,,,,64,0,9,,,,,1,,,80,85
92352,note_on,,,,,32,0,8,,,,,0,,,72,85
92416,note_off,,,,,64,0,8,,,,,0,,,72,100
92448,note_on,,,,,32,0,8,,,,,0,,,77,85
92480,note_off,,,,,128,0,9,,,,,1,,,80,100
92512,note_off,,,,,64,0,8,,,,,0,,,77,100
92544,note_on,,,,,32,0,8,,,,,0,,,77,85
92544,note_on,,,,,64,0,9,,,,,1,,,80,85
92608,note_off,,,,,64,0,8,,,,,0,,,77,100
92640,note_on,,,,,32,0,8,,,,,0,,,72,85
92672,note_off,,,,,128,0,9,,,,,1,,,80,100
92704,note_off,,,,,64,0,8,,,,,0,,,72,100
92736,note_on,,,,,64,0,9,,,,,1,,,80,85
92736,note_on,,,,,32,0,8,,,,,0,,,72,85
92800,note_off,,,,,64,0,8,,,,,0,,,72,100
92832,note_on,,,,,32,0,8,,,,,0,,,77,85
92864,note_off,,,,,128,0,9,,,,,1,,,80,100
92896,note_off,,,,,64,0,8,,,,,0,,,77,100
92928,note_on,,,,,1280,0,12,,,,,4,,,65,85
92928,note_on,,,,,0,0,12,,,,,4,,,74,85
92928,note_on,,,,,1280,0,16,,,,,7,,,47,100
92928,note_on,,,,,64,0,9,,,,,1,,,74,85
92928,note_on,,,,,32,0,8,,,,,0,,,80,85
92928,note_on,,,,,1280,0,14,,,,,6,,,35,85
92928,note_on,,,,,0,0,15,,,,,7,,,65,100
92928,note_on,,,,,1280,0,10,,,,,2,,,80,85
92928,note_on,,,,,1280,0,11,,,,,3,,,77,85
92928,note_on,,,,,1280,0,13,,,,,5,,,47,85
92928,note_on,,,,,1280,0,15,,,,,7,,,68,100
92992,note_off,,,,,64,0,9,,,,,1,,,74,100
93024,note_on,,,,,32,0,9,,,,,1,,,71,85
93056,note_off,,,,,128,0,8,,,,,0,,,80,100
93088,note_off,,,,,64,0,9,,,,,1,,,71,100
93120,note_on,,,,,64,0,8,,,,,0,,,80,85
93120,note_on,,,,,32,0,9,,,,,1,,,71,85
93184,note_off,,,,,256,0,10,,,,,2,,,80,100
93184,note_off,,,,,256,0,11,,,,,3,,,77,100
93184,note_off,,,,,256,0,16,,,,,7,,,47,100
93184,note_off,,,,,256,0,13,,,,,5,,,47,100
93184,note_off,,,,,256,0,12,,,,,4,,,65,100
93184,note_off,,,,,64,0,9,,,,,1,,,71,100
93184,note_off,,,,,256,0,14,,,,,6,,,35,100
93184,note_off,,,,,0,0,12,,,,,4,,,74,100
93184,note_off,,,,,0,0,15,,,,,7,,,65,100
93184,note_off,,,,,256,0,15,,,,,7,,,68,100
93216,note_on,,,,,32,0,9,,,,,1,,,74,85
93248,note_off,,,,,128,0,8,,,,,0,,,80,100
93280,note_off,,,,,64,0,9,,,,,1,,,74,100
93312,note_on,,,,,32,0,9,,,,,1,,,74,85
93312,note_on,,,,,64,0,8,,,,,0,,,80,85
93376,note_off,,,,,64,0,9,,,,,1,,,74,100
93408,note_on,,,,,32,0,9,,,,,1,,,71,85
93440,note_off,,,,,128,0,8,,,,,0,,,80,100
93472,note_off,,,,,64,0,9,,,,,1,,,71,100
93504,note_on,,,,,64,0,8,,,,,0,,,80,85
93504,note_on,,,,,32,0,9,,,,,1,,,71,85
93568,note_off,,,,,64,0,9,,,,,1,,,71,100
93600,note_on,,,,,32,0,9,,,,,1,,,74,85
93632,note_off,,,,,128,0,8,,,,,0,,,80,100
93664,note_off,,,,,64,0,9,,,,,1,,,74,100
93696,note_on,,,,,32,0,9,,,,,1,,,74,85
93696,note_on,,,,,64,0,8,,,,,0,,,80,85
93760,note_off,,,,,64,0,9,,,,,1,,,74,100
93792,note_on,,,,,32,0,9,,,,,1,,,71,85
93824,note_off,,,,,128,0,8,,,,,0,,,80,100
93856,note_off,,,,,64,0,9,,,,,1,,,71,100
93888,note_on,,,,,64,0,8,,,,,0,,,80,85
93888,note_on,,,,,32,0,9,,,,,1,,,71,85
93952,note_off,,,,,64,0,9,,,,,1,,,71,100
93984,note_on,,,,,32,0,9,,,,,1,,,74,85
94016,note_off,,,,,128,0,8,,,,,0,,,80,100
94048,note_off,,,,,64,0,9,,,,,1,,,74,100
94080,note_on,,,,,32,0,9,,,,,1,,,74,85
94080,note_on,,,,,64,0,8,,,,,0,,,80,85
94144,note_off,,,,,64,0,9,,,,,1,,,74,100
94176,note_on,,,,,32,0,9,,,,,1,,,71,85
94208,note_off,,,,,128,0,8,,,,,0,,,80,100
94240,note_off,,,,,64,0,9,,,,,1,,,71,100
94272,note_on,,,,,32,0,9,,,,,1,,,71,85
94272,note_on,,,,,64,0,8,,,,,0,,,80,85
94336,note_off,,,,,64,0,9,,,,,1,,,71,100
94368,note_on,,,,,32,0,9,,,,,1,,,74,85
94400,note_off,,,,,128,0,8,,,,,0,,,80,100
94432,note_off,,,,,64,0,9,,,,,1,,,74,100
94464,note_on,,,,,32,0,9,,,,,1,,,79,85
94464,note_on,,,,,0,0,12,,,,,4,,,67,85
94464,note_on,,,,,0,0,15,,,,,7,,,62,100
94464,note_on,,,,,1280,0,15,,,,,7,,,67,100
94464,note_on,,,,,1280,0,12,,,,,4,,,74,85
94464,note_on,,,,,1280,0,14,,,,,6,,,35,85
94464,note_on,,,,,64,0,8,,,,,0,,,74,85
94464,note_on,,,,,1280,0,13,,,,,5,,,47,85
94464,note_on,,,,,1280,0,10,,,,,2,,,79,85
94464,note_on,,,,,1280,0,16,,,,,7,,,47,100
94464,note_on,,,,,1280,0,11,,,,,3,,,74,85
94528,note_off,,,,,64,0,8,,,,,0,,,74,100
94560,note_on,,,,,32,0,8,,,,,0,,,71,85
94592,note_off,,,,,128,0,9,,,,,1,,,79,100
94624,note_off,,,,,64,0,8,,,,,0,,,71,100
94656,note_on,,,,,64,0,9,,,,,1,,,79,85
94656,note_on,,,,,32,0,8,,,,,0,,,71,85
94720,note_off,,,,,256,0,16,,,,,7,,,47,100
94720,note_off,,,,,256,0,10,,,,,2,,,79,100
94720,note_off,,,,,256,0,11,,,,,3,,,74,100
94720,note_off,,,,,256,0,15,,,,,7,,,67,100
94720,note_off,,,,,0,0,12,,,,,4,,,67,100
94720,note_off,,,,,256,0,14,,,,,6,,,35,100
94720,note_off,,,,,256,0,12,,,,,4,,,74,100
94720,note_off,,,,,64,0,8,,,,,0,,,71,100
94720,note_off,,,,,0,0,15,,,,,7,,,62,100
94720,note_off,,,,,256,0,13,,,,,5,,,47,100
94752,note_on,,,,,32,0,8,,,,,0,,,74,85
94784,note_off,,,,,128,0,9,,,,,1,,,79,100
94816,note_off,,,,,64,0,8,,,,,0,,,74,100
94848,note_on,,,,,32,0,8,,,,,0,,,74,85
94848,note_on,,,,,64,0,9,,,,,1,,,79,85
94912,note_off,,,,,64,0,8,,,,,0,,,74,100
94944,note_on,,,,,32,0,8,,,,,0,,,71,85
94976,note_off,,,,,128,0,9,,,,,1,,,79,100
95008,note_off,,,,,64,0,8,,,,,0,,,71,100
95040,note_on,,,,,64,0,9,,,,,1,,,79,85
95040,note_on,,,,,32,0,8,,,,,0,,,71,85
95104,note_off,,,,,64,0,8,,,,,0,,,71,100
95136,note_on,,,,,32,0,8,,,,,0,,,74,85
95168,note_off,,,,,128,0,9,,,,,1,,,79,100
95200,note_off,,,,,64,0,8,,,,,0,,,74,100
95232,note_on,,,,,512,0,12,,,,,4,,,71,85
95232,note_on,,,,,0,0,15,,,,,7,,,65,100
95232,note_on,,,,,512,0,15,,,,,7,,,67,100
95232,note_on,,,,,512,0,10,,,,,2,,,77,85
95232,note_on,,,,,512,0,13,,,,,5,,,47,85
95232,note_on,,,,,512,0,16,,,,,7,,,47,100
95232,note_on,,,,,0,0,12,,,,,4,,,67,85
95232,note_on,,,,,32,0,8,,,,,0,,,74,85
95232,note_on,,,,,512,0,11,,,,,3,,,74,85
95232,note_on,,,,,64,0,9,,,,,1,,,77,85
95232,note_on,,,,,512,0,14,,,,,6,,,35,85
95296,note_off,,,,,64,0,8,,,,,0,,,74,100
95328,note_on,,,,,32,0,8,,,,,0,,,71,85
95360,note_off,,,,,128,0,9,,,,,1,,,77,100
95392,note_off,,,,,64,0,8,,,,,0,,,71,100
95424,note_on,,,,,32,0,8,,,,,0,,,71,85
95424,note_on,,,,,64,0,9,,,,,1,,,77,85
95488,note_off,,,,,256,0,11,,,,,3,,,74,100
95488,note_off,,,,,256,0,16,,,,,7,,,47,100
95488,note_off,,,,,0,0,15,,,,,7,,,65,100
95488,note_off,,,,,0,0,12,,,,,4,,,67,100
95488,note_off,,,,,256,0,15,,,,,7,,,67,100
95488,note_off,,,,,256,0,13,,,,,5,,,47,100
95488,note_off,,,,,256,0,14,,,,,6,,,35,100
95488,note_off,,,,,64,0,8,,,,,0,,,71,100
95488,note_off,,,,,256,0,10,,,,,2,,,77,100
95488,note_off,,,,,256,0,12,,,,,4,,,71,100
95520,note_on,,,,,32,0,8,,,,,0,,,74,85
95552,note_off,,,,,128,0,9,,,,,1,,,77,100
95584,note_off,,,,,64,0,8,,,,,0,,,74,100
95616,note_on,,,,,64,0,9,,,,,1,,,77,85
95616,note_on,,,,,32,0,8,,,,,0,,,74,85
95680,note_off,,,,,64,0,8,,,,,0,,,74,100
95712,note_on,,,,,32,0,8,,,,,0,,,71,85
95744,note_off,,,,,128,0,9,,,,,1,,,77,100
95776,note_off,,,,,64,0,8,,,,,0,,,71,100
95808,note_on,,,,,32,0,8,,,,,0,,,71,85
95808,note_on,,,,,64,0,9,,,,,1,,,77,85
95872,note_off,,,,,64,0,8,,,,,0,,,71,100
95904,note_on,,,,,32,0,8,,,,,0,,,74,85
95936,note_off,,,,,128,0,9,,,,,1,,,77,100
95968,note_off,,,,,64,0,8,,,,,0,,,74,100
96000,note_on,,,,,64,0,9,,,,,1,,,75,85
96000,note_on,,,,,32,0,8,,,,,0,,,79,85
96000,note_on,,,,,512,0,10,,,,,2,,,75,85
96000,note_on,,,,,512,0,12,,,,,4,,,67,85
96000,note_on,,,,,512,0,14,,,,,6,,,36,85
96000,note_on,,,,,512,0,11,,,,,3,,,72,85
96000,note_on,,,,,512,0,15,,,,,7,,,67,100
96000,note_on,,,,,512,0,13,,,,,5,,,48,85
96000,note_on,,,,,512,0,16,,,,,7,,,48,100
96000,note_on,,,,,0,0,15,,,,,7,,,63,100
96064,note_off,,,,,64,0,9,,,,,1,,,75,100
96096,note_on,,,,,32,0,9,,,,,1,,,72,85
96128,note_off,,,,,128,0,8,,,,,0,,,79,100
96160,note_off,,,,,64,0,9,,,,,1,,,72,100
96192,note_on,,,,,64,0,8,,,,,0,,,79,85
96192,note_on,,,,,32,0,9,,,,,1,,,72,85
96256,note_off,,,,,256,0,11,,,,,3,,,72,100
96256,note_off,,,,,256,0,14,,,,,6,,,36,100
96256,note_off,,,,,256,0,12,,,,,4,,,67,100
96256,note_off,,,,,256,0,10,,,,,2,,,75,100
96256,note_off,,,,,64,0,9,,,,,1,,,72,100
96256,note_off,,,,,256,0,13,,,,,5,,,48,100
96256,note_off,,,,,256,0,16,,,,,7,,,48,100
96256,note_off,,,,,256,0,15,,,,,7,,,67,100
96256,note_off,,,,,0,0,15,,,,,7,,,63,100
96288,note_on,,,,,32,0,9,,,,,1,,,75,85
96320,note_off,,,,,128,0,8,,,,,0,,,79,100
96352,note_off,,,,,64,0,9,,,,,1,,,75,100
96384,note_on,,,,,64,0,8,,,,,0,,,79,85
96384,note_on,,,,,32,0,9,,,,,1,,,75,85
96448,note_off,,,,,64,0,9,,,,,1,,,75,100
96480,note_on,,,,,32,0,9,,,,,1,,,72,85
96512,note_off,,,,,128,0,8,,,,,0,,,79,100
96544,note_off,,,,,64,0,9,,,,,1,,,72,100
96576,note_on,,,,,32,0,9,,,,,1,,,72,85
96576,note_on,,,,,64,0,8,,,,,0,,,79,85
96640,note_off,,,,,64,0,9,,,,,1,,,72,100
96672,note_on,,,,,32,0,9,,,,,1,,,75,85
96704,note_off,,,,,128,0,8,,,,,0,,,79,100
96736,note_off,,,,,64,0,9,,,,,1,,,75,100
96768,note_on,,,,,64,0,8,,,,,0,,,79,85
96768,note_on,,,,,32,0,9,,,,,1,,,75,85
96832,note_off,,,,,64,0,9,,,,,1,,,75,100
96864,note_on,,,,,32,0,9,,,,,1,,,72,85
96896,note_off,,,,,128,0,8,,,,,0,,,79,100
96928,note_off,,,,,64,0,9,,,,,1,,,72,100
96960,note_on,,,,,64,0,8,,,,,0,,,79,85
96960,note_on,,,,,32,0,9,,,,,1,,,72,85
97024,note_off,,,,,64,0,9,,,,,1,,,72,100
97056,note_on,,,,,32,0,9,,,,,1,,,75,85
97088,note_off,,,,,128,0,8,,,,,0,,,79,100
97120,note_off,,,,,64,0,9,,,,,1,,,75,100
97152,note_on,,,,,64,0,8,,,,,0,,,79,85
97152,note_on,,,,,32,0,9,,,,,1,,,75,85
97216,note_off,,,,,64,0,9,,,,,1,,,75,100
97248,note_on,,,,,32,0,9,,,,,1,,,72,85
97280,note_off,,,,,128,0,8,,,,,0,,,79,100
97312,note_off,,,,,64,0,9,,,,,1,,,72,100
97344,note_on,,,,,32,0,9,,,,,1,,,72,85
97344,note_on,,,,,64,0,8,,,,,0,,,79,85
97408,note_off,,,,,64,0,9,,,,,1,,,72,100
97440,note_on,,,,,32,0,9,,,,,1,,,75,85
97472,note_off,,,,,128,0,8,,,,,0,,,79,100
97504,note_off,,,,,64,0,9,,,,,1,,,75,100
97536,note_on,,,,,1280,0,15,,,,,7,,,69,100
97536,note_on,,,,,1280,0,14,,,,,6,,,37,85
97536,note_on,,,,,1280,0,11,,,,,3,,,76,85
97536,note_on,,,,,32,0,9,,,,,1,,,81,85
97536,note_on,,,,,0,0,12,,,,,4,,,61,85
97536,note_on,,,,,1280,0,13,,,,,5,,,49,85
97536,note_on,,,,,1280,0,16,,,,,7,,,49,100
97536,note_on,,,,,0,0,15,,,,,7,,,64,100
97536,note_on,,,,,64,0,8,,,,,0,,,76,85
97536,note_on,,,,,1280,0,10,,,,,2,,,81,85
97536,note_on,,,,,1280,0,12,,,,,4,,,64,85
97600,note_off,,,,,64,0,8,,,,,0,,,76,100
97632,note_on,,,,,32,0,8,,,,,0,,,73,85
97664,note_off,,,,,128,0,9,,,,,1,,,81,100
97696,note_off,,,,,64,0,8,,,,,0,,,73,100
97728,note_on,,,,,32,0,8,,,,,0,,,73,85
97728,note_on,,,,,64,0,9,,,,,1,,,81,85
97792,note_off,,,,,256,0,14,,,,,6,,,37,100
97792,note_off,,,,,256,0,13,,,,,5,,,49,100
97792,note_off,,,,,256,0,11,,,,,3,,,76,100
97792,note_off,,,,,256,0,12,,,,,4,,,64,100
97792,note_off,,,,,256,0,16,,,,,7,,,49,100
97792,note_off,,,,,256,0,10,,,,,2,,,81,100
97792,note_off,,,,,256,0,15,,,,,7,,,69,100
97792,note_off,,,,,0,0,15,,,,,7,,,64,100
97792,note_off,,,,,0,0,12,,,,,4,,,61,100
97792,note_off,,,,,64,0,8,,,,,0,,,73,100
97824,note_on,,,,,32,0,8,,,,,0,,,76,85
97856,note_off,,,,,128,0,9,,,,,1,,,81,100
97888,note_off,,,,,64,0,8,,,,,0,,,76,100
97920,note_on,,,,,32,0,8,,,,,0,,,76,85
97920,note_on,,,,,64,0,9,,,,,1,,,81,85
97984,note_off,,,,,64,0,8,,,,,0,,,76,100
98016,note_on,,,,,32,0,8,,,,,0,,,73,85
98048,note_off,,,,,128,0,9,,,,,1,,,81,100
98080,note_off,,,,,64,0,8,,,,,0,,,73,100
98112,note_on,,,,,32,0,8,,,,,0,,,73,85
98112,note_on,,,,,64,0,9,,,,,1,,,81,85
98176,note_off,,,,,64,0,8,,,,,0,,,73,100
98208,note_on,,,,,32,0,8,,,,,0,,,76,85
98240,note_off,,,,,128,0,9,,,,,1,,,81,100
98272,note_off,,,,,64,0,8,,,,,0,,,76,100
98304,note_on,,,,,32,0,8,,,,,0,,,76,85
98304,note_on,,,,,64,0,9,,,,,1,,,81,85
98368,note_off,,,,,64,0,8,,,,,0,,,76,100
98400,note_on,,,,,32,0,8,,,,,0,,,73,85
98432,note_off,,,,,128,0,9,,,,,1,,,81,100
98464,note_off,,,,,64,0,8,,,,,0,,,73,100
98496,note_on,,,,,32,0,8,,,,,0,,,73,85
98496,note_on,,,,,64,0,9,,,,,1,,,81,85
98560,note_off,,,,,64,0,8,,,,,0,,,73,100
98592,note_on,,,,,32,0,8,,,,,0,,,76,85
98624,note_off,,,,,128,0,9,,,,,1,,,81,100
98656,note_off,,,,,64,0,8,,,,,0,,,76,100
98688,note_on,,,,,64,0,9,,,,,1,,,81,85
98688,note_on,,,,,32,0,8,,,,,0,,,76,85
98752,note_off,,,,,64,0,8,,,,,0,,,76,100
98784,note_on,,,,,32,0,8,,,,,0,,,73,85
98816,note_off,,,,,128,0,9,,,,,1,,,81,100
98848,note_off,,,,,64,0,8,,,,,0,,,73,100
98880,note_on,,,,,64,0,9,,,,,1,,,81,85
98880,note_on,,,,,32,0,8,,,,,0,,,73,85
98944,note_off,,,,,64,0,8,,,,,0,,,73,100
98976,note_on,,,,,32,0,8,,,,,0,,,76,85
99008,note_off,,,,,128,0,9,,,,,1,,,81,100
99040,note_off,,,,,64,0,8,,,,,0,,,76,100
99072,note_on,,,,,32,0,8,,,,,0,,,82,85
99072,note_on,,,,,1280,0,14,,,,,6,,,37,85
99072,note_on,,,,,1280,0,10,,,,,2,,,82,85
99072,note_on,,,,,1280,0,11,,,,,3,,,76,85
99072,note_on,,,,,0,0,12,,,,,4,,,64,85
99072,note_on,,,,,1280,0,15,,,,,7,,,70,100
99072,note_on,,,,,0,0,15,,,,,7,,,67,100
99072,note_on,,,,,64,0,9,,,,,1,,,76,85
99072,note_on,,,,,1280,0,12,,,,,4,,,67,85
99072,note_on,,,,,1280,0,13,,,,,5,,,49,85
99072,note_on,,,,,1280,0,16,,,,,7,,,49,100
99136,note_off,,,,,64,0,9,,,,,1,,,76,100
99168,note_on,,,,,32,0,9,,,,,1,,,73,85
99200,note_off,,,,,128,0,8,,,,,0,,,82,100
99232,note_off,,,,,64,0,9,,,,,1,,,73,100
99264,note_on,,,,,32,0,9,,,,,1,,,73,85
99264,note_on,,,,,64,0,8,,,,,0,,,82,85
99328,note_off,,,,,64,0,9,,,,,1,,,73,100
99328,note_off,,,,,256,0,16,,,,,7,,,49,100
99328,note_off,,,,,256,0,10,,,,,2,,,82,100
99328,note_off,,,,,0,0,12,,,,,4,,,64,100
99328,note_off,,,,,256,0,13,,,,,5,,,49,100
99328,note_off,,,,,0,0,15,,,,,7,,,67,100
99328,note_off,,,,,256,0,15,,,,,7,,,70,100
99328,note_off,,,,,256,0,11,,,,,3,,,76,100
99328,note_off,,,,,256,0,14,,,,,6,,,37,100
99328,note_off,,,,,256,0,12,,,,,4,,,67,100
99360,note_on,,,,,32,0,9,,,,,1,,,76,85
99392,note_off,,,,,128,0,8,,,,,0,,,82,100
99424,note_off,,,,,64,0,9,,,,,1,,,76,100
99456,note_on,,,,,32,0,9,,,,,1,,,76,85
99456,note_on,,,,,64,0,8,,,,,0,,,82,85
99520,note_off,,,,,64,0,9,,,,,1,,,76,100
99552,note_on,,,,,32,0,9,,,,,1,,,73,85
99584,note_off,,,,,128,0,8,,,,,0,,,82,100
99616,note_off,,,,,64,0,9,,,,,1,,,73,100
99648,note_on,,,,,32,0,9,,,,,1,,,73,85
99648,note_on,,,,,64,0,8,,,,,0,,,82,85
99712,note_off,,,,,64,0,9,,,,,1,,,73,100
99744,note_on,,,,,32,0,9,,,,,1,,,76,85
99776,note_off,,,,,128,0,8,,,,,0,,,82,100
99808,note_off,,,,,64,0,9,,,,,1,,,76,100
99840,note_on,,,,,64,0,8,,,,,0,,,82,85
99840,note_on,,,,,32,0,9,,,,,1,,,76,85
99904,note_off,,,,,64,0,9,,,,,1,,,76,100
99936,note_on,,,,,32,0,9,,,,,1,,,73,85
99968,note_off,,,,,128,0,8,,,,,0,,,82,100
100000,note_off,,,,,64,0,9,,,,,1,,,73,100
100032,note_on,,,,,64,0,8,,,,,0,,,82,85
100032,note_on,,,,,32,0,9,,,,,1,,,73,85
100096,note_off,,,,,64,0,9,,,,,1,,,73,100
100128,note_on,,,,,32,0,9,,,,,1,,,76,85
100160,note_off,,,,,128,0,8,,,,,0,,,82,100
100192,note_off,,,,,64,0,9,,,,,1,,,76,100
100224,note_on,,,,,32,0,9,,,,,1,,,76,85
100224,note_on,,,,,64,0,8,,,,,0,,,82,85
100288,note_off,,,,,64,0,9,,,,,1,,,76,100
100320,note_on,,,,,32,0,9,,,,,1,,,73,85
100352,note_off,,,,,128,0,8,,,,,0,,,82,100
100384,note_off,,,,,64,0,9,,,,,1,,,73,100
100416,note_on,,,,,32,0,9,,,,,1,,,73,85
100416,note_on,,,,,64,0,8,,,,,0,,,82,85
100480,note_off,,,,,64,0,9,,,,,1,,,73,100
100512,note_on,,,,,32,0,9,,,,,1,,,76,85
100544,note_off,,,,,128,0,8,,,,,0,,,82,100
100576,note_off,,,,,64,0,9,,,,,1,,,76,100
100608,note_on,,,,,1280,0,15,,,,,7,,,69,100
100608,note_on,,,,,1280,0,11,,,,,3,,,76,85
100608,note_on,,,,,1280,0,14,,,,,6,,,37,85
100608,note_on,,,,,0,0,15,,,,,7,,,64,100
100608,note_on,,,,,32,0,9,,,,,1,,,81,85
100608,note_on,,,,,1280,0,13,,,,,5,,,49,85
100608,note_on,,,,,1280,0,12,,,,,4,,,61,85
100608,note_on,,,,,0,0,12,,,,,4,,,69,85
100608,note_on,,,,,1280,0,16,,,,,7,,,49,100
100608,note_on,,,,,1280,0,10,,,,,2,,,81,85
100608,note_on,,,,,64,0,8,,,,,0,,,76,85
100672,note_off,,,,,64,0,8,,,,,0,,,76,100
100704,note_on,,,,,32,0,8,,,,,0,,,73,85
100736,note_off,,,,,128,0,9,,,,,1,,,81,100
100768,note_off,,,,,64,0,8,,,,,0,,,73,100
100800,note_on,,,,,32,0,8,,,,,0,,,73,85
100800,note_on,,,,,64,0,9,,,,,1,,,81,85
100864,note_off,,,,,256,0,13,,,,,5,,,49,100
100864,note_off,,,,,256,0,14,,,,,6,,,37,100
100864,note_off,,,,,256,0,12,,,,,4,,,61,100
100864,note_off,,,,,0,0,12,,,,,4,,,69,100
100864,note_off,,,,,256,0,15,,,,,7,,,69,100
100864,note_off,,,,,0,0,15,,,,,7,,,64,100
100864,note_off,,,,,256,0,11,,,,,3,,,76,100
100864,note_off,,,,,256,0,16,,,,,7,,,49,100
100864,note_off,,,,,64,0,8,,,,,0,,,73,100
100864,note_off,,,,,256,0,10,,,,,2,,,81,100
100896,note_on,,,,,32,0,8,,,,,0,,,76,85
100928,note_off,,,,,128,0,9,,,,,1,,,81,100
100960,note_off,,,,,64,0,8,,,,,0,,,76,100
100992,note_on,,,,,32,0,8,,,,,0,,,76,85
100992,note_on,,,,,64,0,9,,,,,1,,,81,85
101056,note_off,,,,,64,0,8,,,,,0,,,76,100
101088,note_on,,,,,32,0,8,,,,,0,,,73,85
101120,note_off,,,,,128,0,9,,,,,1,,,81,100
101152,note_off,,,,,64,0,8,,,,,0,,,73,100
101184,note_on,,,,,64,0,9,,,,,1,,,81,85
101184,note_on,,,,,32,0,8,,,,,0,,,73,85
101248,note_off,,,,,64,0,8,,,,,0,,,73,100
101280,note_on,,,,,32,0,8,,,,,0,,,76,85
101312,note_off,,,,,128,0,9,,,,,1,,,81,100
101344,note_off,,,,,64,0,8,,,,,0,,,76,100
101376,note_on,,,,,512,0,12,,,,,4,,,64,85
101376,note_on,,,,,0,0,12,,,,,4,,,69,85
101376,note_on,,,,,512,0,13,,,,,5,,,49,85
101376,note_on,,,,,64,0,9,,,,,1,,,79,85
101376,note_on,,,,,512,0,15,,,,,7,,,69,100
101376,note_on,,,,,512,0,16,,,,,7,,,49,100
101376,note_on,,,,,512,0,10,,,,,2,,,79,85
101376,note_on,,,,,512,0,14,,,,,6,,,37,85
101376,note_on,,,,,0,0,15,,,,,7,,,67,100
101376,note_on,,,,,32,0,8,,,,,0,,,76,85
101376,note_on,,,,,512,0,11,,,,,3,,,76,85
101440,note_off,,,,,64,0,8,,,,,0,,,76,100
101472,note_on,,,,,32,0,8,,,,,0,,,73,85
101504,note_off,,,,,128,0,9,,,,,1,,,79,100
101536,note_off,,,,,64,0,8,,,,,0,,,73,100
101568,note_on,,,,,32,0,8,,,,,0,,,73,85
101568,note_on,,,,,64,0,9,,,,,1,,,79,85
101632,note_off,,,,,64,0,8,,,,,0,,,73,100
101632,note_off,,,,,256,0,15,,,,,7,,,69,100
101632,note_off,,,,,256,0,14,,,,,6,,,37,100
101632,note_off,,,,,256,0,10,,,,,2,,,79,100
101632,note_off,,,,,256,0,11,,,,,3,,,76,100
101632,note_off,,,,,256,0,12,,,,,4,,,64,100
101632,note_off,,,,,0,0,12,,,,,4,,,69,100
101632,note_off,,,,,256,0,16,,,,,7,,,49,100
101632,note_off,,,,,0,0,15,,,,,7,,,67,100
101632,note_off,,,,,256,0,13,,,,,5,,,49,100
101664,note_on,,,,,32,0,8,,,,,0,,,76,85
101696,note_off,,,,,128,0,9,,,,,1,,,79,100
101728,note_off,,,,,64,0,8,,,,,0,,,76,100
101760,note_on,,,,,64,0,9,,,,,1,,,79,85
101760,note_on,,,,,32,0,8,,,,,0,,,76,85
101824,note_off,,,,,64,0,8,,,,,0,,,76,100
101856,note_on,,,,,32,0,8,,,,,0,,,73,85
101888,note_off,,,,,128,0,9,,,,,1,,,79,100
101920,note_off,,,,,64,0,8,,,,,0,,,73,100
101952,note_on,,,,,64,0,9,,,,,1,,,79,85
101952,note_on,,,,,32,0,8,,,,,0,,,73,85
102016,note_off,,,,,64,0,8,,,,,0,,,73,100
102048,note_on,,,,,32,0,8,,,,,0,,,76,85
102080,note_off,,,,,128,0,9,,,,,1,,,79,100
102112,note_off,,,,,64,0,8,,,,,0,,,76,100
102144,note_on,,,,,512,0,16,,,,,7,,,50,100
102144,note_on,,,,,0,0,12,,,,,4,,,69,85
102144,note_on,,,,,512,0,12,,,,,4,,,57,85
102144,note_on,,,,,512,0,13,,,,,5,,,50,85
102144,note_on,,,,,512,0,11,,,,,3,,,74,85
102144,note_on,,,,,0,0,15,,,,,7,,,65,100
102144,note_on,,,,,512,0,15,,,,,7,,,69,100
102144,note_on,,,,,512,0,14,,,,,6,,,38,85
102144,note_on,,,,,512,0,10,,,,,2,,,77,85
102144,note_on,,,,,64,0,9,,,,,1,,,77,85
102144,note_on,,,,,32,0,8,,,,,0,,,74,85
102208,note_off,,,,,64,0,9,,,,,1,,,77,100
102240,note_on,,,,,32,0,9,,,,,1,,,69,85
102272,note_off,,,,,128,0,8,,,,,0,,,74,100
102304,note_off,,,,,64,0,9,,,,,1,,,69,100
102336,note_on,,,,,32,0,9,,,,,1,,,69,85
102336,note_on,,,,,64,0,8,,,,,0,,,74,85
102400,note_off,,,,,256,0,11,,,,,3,,,74,100
102400,note_off,,,,,256,0,16,,,,,7,,,50,100
102400,note_off,,,,,0,0,12,,,,,4,,,69,100
102400,note_off,,,,,256,0,12,,,,,4,,,57,100
102400,note_off,,,,,256,0,14,,,,,6,,,38,100
102400,note_off,,,,,0,0,15,,,,,7,,,65,100
102400,note_off,,,,,256,0,15,,,,,7,,,69,100
102400,note_off,,,,,64,0,9,,,,,1,,,69,100
102400,note_off,,,,,256,0,10,,,,,2,,,77,100
102400,note_off,,,,,256,0,13,,,,,5,,,50,100
102432,note_on,,,,,32,0,9,,,,,1,,,77,85
102464,note_off,,,,,128,0,8,,,,,0,,,74,100
102496,note_off,,,,,64,0,9,,,,,1,,,77,100
102528,note_on,,,,,32,0,9,,,,,1,,,77,85
102528,note_on,,,,,64,0,8,,,,,0,,,74,85
102592,note_off,,,,,64,0,9,,,,,1,,,77,100
102624,note_on,,,,,32,0,9,,,,,1,,,69,85
102656,note_off,,,,,128,0,8,,,,,0,,,74,100
102688,note_off,,,,,64,0,9,,,,,1,,,69,100
102720,note_on,,,,,64,0,8,,,,,0,,,74,85
102720,note_on,,,,,32,0,9,,,,,1,,,69,85
102784,note_off,,,,,64,0,9,,,,,1,,,69,100
102816,note_on,,,,,32,0,9,,,,,1,,,77,85
102848,note_off,,,,,128,0,8,,,,,0,,,74,100
102880,note_off,,,,,64,0,9,,,,,1,,,77,100
102912,note_on,,,,,32,0,9,,,,,1,,,77,85
102912,note_on,,,,,64,0,8,,,,,0,,,74,85
102976,note_off,,,,,64,0,9,,,,,1,,,77,100
103008,note_on,,,,,32,0,9,,,,,1,,,69,85
103040,note_off,,,,,128,0,8,,,,,0,,,74,100
103072,note_off,,,,,64,0,9,,,,,1,,,69,100
103104,note_on,,,,,64,0,8,,,,,0,,,74,85
103104,note_on,,,,,32,0,9,,,,,1,,,69,85
103168,note_off,,,,,64,0,9,,,,,1,,,69,100
103200,note_on,,,,,32,0,9,,,,,1,,,77,85
103232,note_off,,,,,128,0,8,,,,,0,,,74,100
103264,note_off,,,,,64,0,9,,,,,1,,,77,100
103296,note_on,,,,,64,0,8,,,,,0,,,74,85
103296,note_on,,,,,32,0,9,,,,,1,,,77,85
103360,note_off,,,,,64,0,9,,,,,1,,,77,100
103392,note_on,,,,,32,0,9,,,,,1,,,69,85
103424,note_off,,,,,128,0,8,,,,,0,,,74,100
103456,note_off,,,,,64,0,9,,,,,1,,,69,100
103488,note_on,,,,,64,0,8,,,,,0,,,74,85
103488,note_on,,,,,32,0,9,,,,,1,,,69,85
103552,note_off,,,,,64,0,9,,,,,1,,,69,100
103584,note_on,,,,,32,0,9,,,,,1,,,77,85
103616,note_off,,,,,128,0,8,,,,,0,,,74,100
103648,note_off,,,,,64,0,9,,,,,1,,,77,100
103680,note_on,,,,,1280,0,10,,,,,2,,,76,85
103680,note_on,,,,,1280,0,14,,,,,6,,,45,85
103680,note_on,,,,,1280,0,16,,,,,7,,,57,100
103680,note_on,,,,,0,0,15,,,,,7,,,64,100
103680,note_on,,,,,64,0,8,,,,,0,,,74,85
103680,note_on,,,,,32,0,9,,,,,1,,,76,85
103680,note_on,,,,,1280,0,11,,,,,3,,,74,85
103680,note_on,,,,,1280,0,13,,,,,5,,,57,85
103680,note_on,,,,,1280,0,12,,,,,4,,,69,85
103680,note_on,,,,,1280,0,15,,,,,7,,,74,100
103744,note_off,,,,,64,0,8,,,,,0,,,74,100
103776,note_on,,,,,32,0,8,,,,,0,,,69,85
103808,note_off,,,,,128,0,9,,,,,1,,,76,100
103840,note_off,,,,,64,0,8,,,,,0,,,69,100
103872,note_on,,,,,32,0,8,,,,,0,,,69,85
103872,note_on,,,,,64,0,9,,,,,1,,,76,85
103936,note_off,,,,,64,0,8,,,,,0,,,69,100
103936,note_off,,,,,256,0,10,,,,,2,,,76,100
103936,note_off,,,,,256,0,14,,,,,6,,,45,100
103936,note_off,,,,,256,0,12,,,,,4,,,69,100
103936,note_off,,,,,256,0,16,,,,,7,,,57,100
103936,note_off,,,,,256,0,15,,,,,7,,,74,100
103936,note_off,,,,,256,0,11,,,,,3,,,74,100
103936,note_off,,,,,0,0,15,,,,,7,,,64,100
103936,note_off,,,,,256,0,13,,,,,5,,,57,100
103968,note_on,,,,,32,0,8,,,,,0,,,74,85
104000,note_off,,,,,128,0,9,,,,,1,,,76,100
104032,note_off,,,,,64,0,8,,,,,0,,,74,100
104064,note_on,,,,,64,0,9,,,,,1,,,76,85
104064,note_on,,,,,32,0,8,,,,,0,,,74,85
104128,note_off,,,,,64,0,8,,,,,0,,,74,100
104160,note_on,,,,,32,0,8,,,,,0,,,69,85
104192,note_off,,,,,128,0,9,,,,,1,,,76,100
104224,note_off,,,,,64,0,8,,,,,0,,,69,100
104256,note_on,,,,,64,0,9,,,,,1,,,76,85
104256,note_on,,,,,32,0,8,,,,,0,,,69,85
104320,note_off,,,,,64,0,8,,,,,0,,,69,100
104352,note_on,,,,,32,0,8,,,,,0,,,74,85
104384,note_off,,,,,128,0,9,,,,,1,,,76,100
104416,note_off,,,,,64,0,8,,,,,0,,,74,100
104448,note_on,,,,,32,0,8,,,,,0,,,74,85
104448,note_on,,,,,64,0,9,,,,,1,,,76,85
104512,note_off,,,,,64,0,8,,,,,0,,,74,100
104544,note_on,,,,,32,0,8,,,,,0,,,69,85
104576,note_off,,,,,128,0,9,,,,,1,,,76,100
104608,note_off,,,,,64,0,8,,,,,0,,,69,100
104640,note_on,,,,,64,0,9,,,,,1,,,76,85
104640,note_on,,,,,32,0,8,,,,,0,,,69,85
104704,note_off,,,,,64,0,8,,,,,0,,,69,100
104736,note_on,,,,,32,0,8,,,,,0,,,74,85
104768,note_off,,,,,128,0,9,,,,,1,,,76,100
104800,note_off,,,,,64,0,8,,,,,0,,,74,100
104832,note_on,,,,,64,0,9,,,,,1,,,76,85
104832,note_on,,,,,32,0,8,,,,,0,,,74,85
104896,note_off,,,,,64,0,8,,,,,0,,,74,100
104928,note_on,,,,,32,0,8,,,,,0,,,69,85
104960,note_off,,,,,128,0,9,,,,,1,,,76,100
104992,note_off,,,,,64,0,8,,,,,0,,,69,100
105024,note_on,,,,,64,0,9,,,,,1,,,76,85
105024,note_on,,,,,32,0,8,,,,,0,,,69,85
105088,note_off,,,,,64,0,8,,,,,0,,,69,100
105120,note_on,,,,,32,0,8,,,,,0,,,74,85
105152,note_off,,,,,128,0,9,,,,,1,,,76,100
105184,note_off,,,,,64,0,8,,,,,0,,,74,100
105216,note_on,,,,,1280,0,12,,,,,4,,,69,85
105216,note_on,,,,,1280,0,15,,,,,7,,,64,100
105216,note_on,,,,,0,0,15,,,,,7,,,61,100
105216,note_on,,,,,32,0,8,,,,,0,,,73,85
105216,note_on,,,,,1280,0,14,,,,,6,,,33,85
105216,note_on,,,,,1280,0,16,,,,,7,,,45,100
105216,note_on,,,,,64,0,9,,,,,1,,,76,85
105216,note_on,,,,,1280,0,13,,,,,5,,,45,85
105216,note_on,,,,,1280,0,10,,,,,2,,,76,85
105216,note_on,,,,,1280,0,11,,,,,3,,,73,85
105280,note_off,,,,,64,0,9,,,,,1,,,76,100
105312,note_on,,,,,32,0,9,,,,,1,,,69,85
105344,note_off,,,,,128,0,8,,,,,0,,,73,100
105376,note_off,,,,,64,0,9,,,,,1,,,69,100
105408,note_on,,,,,32,0,9,,,,,1,,,69,85
105408,note_on,,,,,64,0,8,,,,,0,,,73,85
105472,note_off,,,,,256,0,14,,,,,6,,,33,100
105472,note_off,,,,,256,0,13,,,,,5,,,45,100
105472,note_off,,,,,256,0,12,,,,,4,,,69,100
105472,note_off,,,,,64,0,9,,,,,1,,,69,100
105472,note_off,,,,,256,0,10,,,,,2,,,76,100
105472,note_off,,,,,0,0,15,,,,,7,,,61,100
105472,note_off,,,,,256,0,15,,,,,7,,,64,100
105472,note_off,,,,,256,0,11,,,,,3,,,73,100
105472,note_off,,,,,256,0,16,,,,,7,,,45,100
105504,note_on,,,,,32,0,9,,,,,1,,,76,85
105536,note_off,,,,,128,0,8,,,,,0,,,73,100
105568,note_off,,,,,64,0,9,,,,,1,,,76,100
105600,note_on,,,,,32,0,9,,,,,1,,,76,85
105600,note_on,,,,,64,0,8,,,,,0,,,73,85
105664,note_off,,,,,64,0,9,,,,,1,,,76,100
105696,note_on,,,,,32,0,9,,,,,1,,,69,85
105728,note_off,,,,,128,0,8,,,,,0,,,73,100
105760,note_off,,,,,64,0,9,,,,,1,,,69,100
105792,note_on,,,,,32,0,9,,,,,1,,,69,85
105792,note_on,,,,,64,0,8,,,,,0,,,73,85
105856,note_off,,,,,64,0,9,,,,,1,,,69,100
105888,note_on,,,,,32,0,9,,,,,1,,,76,85
105920,note_off,,,,,128,0,8,,,,,0,,,73,100
105952,note_off,,,,,64,0,9,,,,,1,,,76,100
105984,note_on,,,,,64,0,8,,,,,0,,,73,85
105984,note_on,,,,,32,0,9,,,,,1,,,76,85
106048,note_off,,,,,64,0,9,,,,,1,,,76,100
106080,note_on,,,,,32,0,9,,,,,1,,,69,85
106112,note_off,,,,,128,0,8,,,,,0,,,73,100
106144,note_off,,,,,64,0,9,,,,,1,,,69,100
106176,note_on,,,,,64,0,8,,,,,0,,,73,85
106176,note_on,,,,,32,0,9,,,,,1,,,69,85
106240,note_off,,,,,64,0,9,,,,,1,,,69,100
106272,note_on,,,,,32,0,9,,,,,1,,,76,85
106304,note_off,,,,,128,0,8,,,,,0,,,73,100
106336,note_off,,,,,64,0,9,,,,,1,,,76,100
106368,note_on,,,,,64,0,8,,,,,0,,,73,85
106368,note_on,,,,,32,0,9,,,,,1,,,76,85
106432,note_off,,,,,64,0,9,,,,,1,,,76,100
106464,note_on,,,,,32,0,9,,,,,1,,,69,85
106496,note_off,,,,,128,0,8,,,,,0,,,73,100
106528,note_off,,,,,64,0,9,,,,,1,,,69,100
106560,note_on,,,,,64,0,8,,,,,0,,,73,85
106560,note_on,,,,,32,0,9,,,,,1,,,69,85
106624,note_off,,,,,64,0,9,,,,,1,,,69,100
106656,note_on,,,,,32,0,9,,,,,1,,,76,85
106688,note_off,,,,,128,0,8,,,,,0,,,73,100
106720,note_off,,,,,64,0,9,,,,,1,,,76,100
106752,note_on,,,,,1280,0,16,,,,,7,,,50,100
106752,note_on,,,,,0,0,10,,,,,2,,,74,80
106752,note_on,,,,,32,0,9,,,,,1,,,77,70
106752,note_on,,,,,1280,0,14,,,,,6,,,38,70
106752,note_on,,,,,1280,0,10,,,,,2,,,77,80
106752,note_on,,,,,1280,0,12,,,,,4,,,57,70
106752,note_on,,,,,1280,0,11,,,,,3,,,74,20
106752,note_on,,,,,0,0,11,,,,,3,,,77,20
106752,note_on,,,,,1280,0,15,,,,,7,,,65,100
106752,note_on,,,,,0,0,15,,,,,7,,,69,100
106752,note_on,,,,,1280,0,13,,,,,5,,,50,70
106752,note_on,,,,,64,0,8,,,,,0,,,74,70
106756,program_change,,,,,4,0,11,,,,,3,48,,,
106756,program_change,,,,,4,0,10,,,,,2,48,,,
106816,note_off,,,,,64,0,14,,,,,6,,,38,100
106816,note_off,,,,,64,0,12,,,,,4,,,57,100
106816,note_off,,,,,64,0,13,,,,,5,,,50,100
106848,note_on,,,,,32,0,14,,,,,6,,,41,70
106848,note_on,,,,,32,0,13,,,,,5,,,53,70
106848,note_on,,,,,32,0,12,,,,,4,,,57,70
106880,note_off,,,,,128,0,8,,,,,0,,,74,100
106880,note_off,,,,,0,0,11,,,,,3,,,77,100
106880,note_off,,,,,128,0,9,,,,,1,,,77,100
106880,note_off,,,,,124,0,11,,,,,3,,,74,100
106880,note_off,,,,,124,0,10,,,,,2,,,77,100
106880,note_off,,,,,128,0,16,,,,,7,,,50,100
106880,note_off,,,,,0,0,10,,,,,2,,,74,100
106912,note_off,,,,,64,0,12,,,,,4,,,57,100
106912,note_off,,,,,64,0,13,,,,,5,,,53,100
106912,note_off,,,,,64,0,14,,,,,6,,,41,100
106944,note_on,,,,,32,0,12,,,,,4,,,57,70
106944,note_on,,,,,32,0,13,,,,,5,,,53,70
106944,note_on,,,,,64,0,16,,,,,7,,,53,100
106944,note_on,,,,,64,0,10,,,,,2,,,74,80
106944,note_on,,,,,64,0,11,,,,,3,,,74,20
106944,note_on,,,,,32,0,14,,,,,6,,,41,70
107008,note_off,,,,,256,0,15,,,,,7,,,65,100
107008,note_off,,,,,64,0,14,,,,,6,,,41,100
107008,note_off,,,,,64,0,12,,,,,4,,,57,100
107008,note_off,,,,,0,0,15,,,,,7,,,69,100
107008,note_off,,,,,64,0,13,,,,,5,,,53,100
107040,note_on,,,,,32,0,13,,,,,5,,,53,71
107040,note_on,,,,,32,0,12,,,,,4,,,57,71
107040,note_on,,,,,32,0,14,,,,,6,,,41,71
107072,note_off,,,,,128,0,16,,,,,7,,,53,100
107104,note_off,,,,,64,0,12,,,,,4,,,57,100
107104,note_off,,,,,64,0,14,,,,,6,,,41,100
107104,note_off,,,,,64,0,13,,,,,5,,,53,100
107136,note_on,,,,,32,0,12,,,,,4,,,57,71
107136,note_on,,,,,64,0,16,,,,,7,,,54,100
107136,note_on,,,,,32,0,14,,,,,6,,,42,71
107136,note_on,,,,,128,0,15,,,,,7,,,60,100
107136,note_on,,,,,0,0,15,,,,,7,,,62,100
107136,note_on,,,,,32,0,13,,,,,5,,,54,71
107200,note_off,,,,,64,0,14,,,,,6,,,42,100
107200,note_off,,,,,256,0,10,,,,,2,,,74,100
107200,note_off,,,,,64,0,12,,,,,4,,,57,100
107200,note_off,,,,,256,0,11,,,,,3,,,74,100
107200,note_off,,,,,64,0,13,,,,,5,,,54,100
107232,note_on,,,,,32,0,12,,,,,4,,,57,71
107232,note_on,,,,,32,0,13,,,,,5,,,54,71
107232,note_on,,,,,32,0,14,,,,,6,,,42,71
107264,note_off,,,,,128,0,16,,,,,7,,,54,100
107296,note_off,,,,,64,0,14,,,,,6,,,42,100
107296,note_off,,,,,64,0,12,,,,,4,,,57,100
107296,note_off,,,,,64,0,13,,,,,5,,,54,100
107328,note_on,,,,,128,0,10,,,,,2,,,72,82
107328,note_on,,,,,32,0,12,,,,,4,,,62,72
107328,note_on,,,,,0,0,12,,,,,4,,,57,72
107328,note_on,,,,,32,0,14,,,,,6,,,42,72
107328,note_on,,,,,32,0,13,,,,,5,,,54,72
107328,note_on,,,,,64,0,16,,,,,7,,,54,100
107328,note_on,,,,,128,0,11,,,,,3,,,72,22
107392,note_off,,,,,0,0,12,,,,,4,,,57,100
107392,note_off,,,,,64,0,12,,,,,4,,,62,100
107392,note_off,,,,,64,0,14,,,,,6,,,42,100
107392,note_off,,,,,64,0,13,,,,,5,,,54,100
107392,note_off,,,,,256,0,15,,,,,7,,,60,100
107392,note_off,,,,,0,0,15,,,,,7,,,62,100
107424,note_on,,,,,32,0,14,,,,,6,,,42,72
107424,note_on,,,,,32,0,12,,,,,4,,,62,72
107424,note_on,,,,,0,0,12,,,,,4,,,57,72
107424,note_on,,,,,32,0,13,,,,,5,,,54,72
107456,note_off,,,,,128,0,16,,,,,7,,,54,100
107456,note_off,,,,,128,0,11,,,,,3,,,72,100
107456,note_off,,,,,128,0,10,,,,,2,,,72,100
107488,note_off,,,,,64,0,12,,,,,4,,,62,100
107488,note_off,,,,,0,0,12,,,,,4,,,57,100
107488,note_off,,,,,64,0,13,,,,,5,,,54,100
107488,note_off,,,,,64,0,14,,,,,6,,,42,100
107520,note_on,,,,,64,0,11,,,,,3,,,71,22
107520,note_on,,,,,32,0,13,,,,,5,,,55,72
107520,note_on,,,,,0,0,12,,,,,4,,,62,72
107520,note_on,,,,,32,0,12,,,,,4,,,59,72
107520,note_on,,,,,32,0,14,,,,,6,,,43,72
107520,note_on,,,,,64,0,16,,,,,7,,,55,100
107520,note_on,,,,,128,0,15,,,,,7,,,59,100
107520,note_on,,,,,0,0,15,,,,,7,,,62,100
107520,note_on,,,,,64,0,10,,,,,2,,,71,82
107584,note_off,,,,,64,0,14,,,,,6,,,43,100
107584,note_off,,,,,64,0,13,,,,,5,,,55,100
107584,note_off,,,,,64,0,12,,,,,4,,,59,100
107584,note_off,,,,,0,0,12,,,,,4,,,62,100
107616,note_on,,,,,32,0,14,,,,,6,,,43,73
107616,note_on,,,,,0,0,12,,,,,4,,,62,73
107616,note_on,,,,,32,0,12,,,,,4,,,59,73
107616,note_on,,,,,32,0,13,,,,,5,,,55,73
107648,note_off,,,,,128,0,15,,,,,7,,,59,100
107648,note_off,,,,,0,0,15,,,,,7,,,62,100
107648,note_off,,,,,128,0,11,,,,,3,,,71,100
107648,note_off,,,,,128,0,10,,,,,2,,,71,100
107648,note_off,,,,,128,0,16,,,,,7,,,55,100
107680,note_off,,,,,0,0,12,,,,,4,,,62,100
107680,note_off,,,,,64,0,13,,,,,5,,,55,100
107680,note_off,,,,,64,0,14,,,,,6,,,43,100
107680,note_off,,,,,64,0,12,,,,,4,,,59,100
107712,note_on,,,,,64,0,15,,,,,7,,,64,100
107712,note_on,,,,,32,0,14,,,,,6,,,43,73
107712,note_on,,,,,0,0,15,,,,,7,,,59,100
107712,note_on,,,,,64,0,16,,,,,7,,,55,100
107712,note_on,,,,,32,0,12,,,,,4,,,59,73
107712,note_on,,,,,64,0,11,,,,,3,,,76,23
107712,note_on,,,,,64,0,10,,,,,2,,,76,83
107712,note_on,,,,,32,0,13,,,,,5,,,55,73
107776,note_off,,,,,64,0,12,,,,,4,,,59,100
107776,note_off,,,,,64,0,14,,,,,6,,,43,100
107776,note_off,,,,,64,0,13,,,,,5,,,55,100
107808,note_on,,,,,32,0,12,,,,,4,,,59,73
107808,note_on,,,,,32,0,13,,,,,5,,,55,73
107808,note_on,,,,,32,0,14,,,,,6,,,43,73
107840,note_off,,,,,128,0,16,,,,,7,,,55,100
107840,note_off,,,,,0,0,15,,,,,7,,,59,100
107840,note_off,,,,,128,0,15,,,,,7,,,64,100
107872,note_off,,,,,64,0,14,,,,,6,,,43,100
107872,note_off,,,,,64,0,13,,,,,5,,,55,100
107872,note_off,,,,,64,0,12,,,,,4,,,59,100
107904,note_on,,,,,64,0,15,,,,,7,,,64,100
107904,note_on,,,,,32,0,13,,,,,5,,,56,74
107904,note_on,,,,,32,0,14,,,,,6,,,44,74
107904,note_on,,,,,64,0,16,,,,,7,,,56,100
107904,note_on,,,,,0,0,15,,,,,7,,,62,100
107904,note_on,,,,,32,0,12,,,,,4,,,59,74
107968,note_off,,,,,256,0,11,,,,,3,,,76,100
107968,note_off,,,,,64,0,14,,,,,6,,,44,100
107968,note_off,,,,,64,0,12,,,,,4,,,59,100
107968,note_off,,,,,64,0,13,,,,,5,,,56,100
107968,note_off,,,,,256,0,10,,,,,2,,,76,100
108000,note_on,,,,,32,0,12,,,,,4,,,59,74
108000,note_on,,,,,32,0,13,,,,,5,,,56,74
108000,note_on,,,,,32,0,14,,,,,6,,,44,74
108032,note_off,,,,,128,0,16,,,,,7,,,56,100
108064,note_off,,,,,64,0,12,,,,,4,,,59,100
108064,note_off,,,,,64,0,13,,,,,5,,,56,100
108064,note_off,,,,,64,0,14,,,,,6,,,44,100
108096,note_on,,,,,128,0,11,,,,,3,,,74,24
108096,note_on,,,,,32,0,14,,,,,6,,,44,74
108096,note_on,,,,,32,0,13,,,,,5,,,56,74
108096,note_on,,,,,32,0,12,,,,,4,,,64,74
108096,note_on,,,,,0,0,12,,,,,4,,,59,74
108096,note_on,,,,,128,0,10,,,,,2,,,74,84
108096,note_on,,,,,64,0,16,,,,,7,,,56,100
108160,note_off,,,,,0,0,12,,,,,4,,,59,100
108160,note_off,,,,,256,0,15,,,,,7,,,64,100
108160,note_off,,,,,64,0,13,,,,,5,,,56,100
108160,note_off,,,,,0,0,15,,,,,7,,,62,100
108160,note_off,,,,,64,0,14,,,,,6,,,44,100
108160,note_off,,,,,64,0,12,,,,,4,,,64,100
108192,note_on,,,,,32,0,12,,,,,4,,,64,75
108192,note_on,,,,,32,0,14,,,,,6,,,44,75
108192,note_on,,,,,0,0,12,,,,,4,,,59,75
108192,note_on,,,,,32,0,13,,,,,5,,,56,75
108224,note_off,,,,,128,0,10,,,,,2,,,74,100
108224,note_off,,,,,128,0,11,,,,,3,,,74,100
108224,note_off,,,,,128,0,16,,,,,7,,,56,100
108256,note_off,,,,,64,0,12,,,,,4,,,64,100
108256,note_off,,,,,64,0,14,,,,,6,,,44,100
108256,note_off,,,,,64,0,13,,,,,5,,,56,100
108256,note_off,,,,,0,0,12,,,,,4,,,59,100
108288,note_on,,,,,64,0,10,,,,,2,,,73,85
108288,note_on,,,,,64,0,16,,,,,7,,,57,100
108288,note_on,,,,,32,0,13,,,,,5,,,57,75
108288,note_on,,,,,32,0,14,,,,,6,,,45,75
108288,note_on,,,,,0,0,15,,,,,7,,,64,100
108288,note_on,,,,,0,0,12,,,,,4,,,61,75
108288,note_on,,,,,64,0,11,,,,,3,,,73,25
108288,note_on,,,,,128,0,15,,,,,7,,,61,100
108288,note_on,,,,,32,0,12,,,,,4,,,64,75
108352,note_off,,,,,64,0,12,,,,,4,,,64,100
108352,note_off,,,,,64,0,13,,,,,5,,,57,100
108352,note_off,,,,,0,0,12,,,,,4,,,61,100
108352,note_off,,,,,64,0,14,,,,,6,,,45,100
108384,note_on,,,,,32,0,12,,,,,4,,,64,75
108384,note_on,,,,,0,0,12,,,,,4,,,61,75
108384,note_on,,,,,32,0,14,,,,,6,,,45,75
108384,note_on,,,,,32,0,13,,,,,5,,,57,75
108416,note_off,,,,,128,0,11,,,,,3,,,73,100
108416,note_off,,,,,0,0,15,,,,,7,,,64,100
108416,note_off,,,,,128,0,10,,,,,2,,,73,100
108416,note_off,,,,,128,0,15,,,,,7,,,61,100
108416,note_off,,,,,128,0,16,,,,,7,,,57,100
108448,note_off,,,,,64,0,13,,,,,5,,,57,100
108448,note_off,,,,,64,0,14,,,,,6,,,45,100
108448,note_off,,,,,64,0,12,,,,,4,,,64,100
108448,note_off,,,,,0,0,12,,,,,4,,,61,100
108480,note_on,,,,,64,0,15,,,,,7,,,61,100
108480,note_on,,,,,64,0,10,,,,,2,,,77,86
108480,note_on,,,,,64,0,11,,,,,3,,,77,26
108480,note_on,,,,,32,0,13,,,,,5,,,57,76
108480,note_on,,,,,32,0,12,,,,,4,,,61,76
108480,note_on,,,,,32,0,14,,,,,6,,,45,76
108480,note_on,,,,,0,0,15,,,,,7,,,65,100
108480,note_on,,,,,64,0,16,,,,,7,,,57,100
108544,note_off,,,,,64,0,13,,,,,5,,,57,100
108544,note_off,,,,,64,0,12,,,,,4,,,61,100
108544,note_off,,,,,64,0,14,,,,,6,,,45,100
108576,note_on,,,,,32,0,12,,,,,4,,,61,76
108576,note_on,,,,,32,0,14,,,,,6,,,45,76
108576,note_on,,,,,32,0,13,,,,,5,,,57,76
108608,note_off,,,,,128,0,16,,,,,7,,,57,100
108608,note_off,,,,,0,0,15,,,,,7,,,65,100
108608,note_off,,,,,128,0,15,,,,,7,,,61,100
108640,note_off,,,,,64,0,12,,,,,4,,,61,100
108640,note_off,,,,,64,0,14,,,,,6,,,45,100
108640,note_off,,,,,64,0,13,,,,,5,,,57,100
108672,note_on,,,,,64,0,15,,,,,7,,,64,100
108672,note_on,,,,,32,0,12,,,,,4,,,61,76
108672,note_on,,,,,32,0,14,,,,,6,,,45,76
108672,note_on,,,,,0,0,15,,,,,7,,,65,100
108672,note_on,,,,,32,0,13,,,,,5,,,57,76
108672,note_on,,,,,64,0,16,,,,,7,,,57,100
108736,note_off,,,,,256,0,11,,,,,3,,,77,100
108736,note_off,,,,,64,0,13,,,,,5,,,57,100
108736,note_off,,,,,256,0,10,,,,,2,,,77,100
108736,note_off,,,,,64,0,14,,,,,6,,,45,100
108736,note_off,,,,,64,0,12,,,,,4,,,61,100
108768,note_on,,,,,32,0,14,,,,,6,,,45,77
108768,note_on,,,,,32,0,13,,,,,5,,,57,77
108768,note_on,,,,,32,0,12,,,,,4,,,61,77
108800,note_off,,,,,128,0,16,,,,,7,,,57,100
108832,note_off,,,,,64,0,14,,,,,6,,,45,100
108832,note_off,,,,,64,0,13,,,,,5,,,57,100
108832,note_off,,,,,64,0,12,,,,,4,,,61,100
108864,note_on,,,,,128,0,11,,,,,3,,,76,27
108864,note_on,,,,,32,0,14,,,,,6,,,45,77
108864,note_on,,,,,0,0,12,,,,,4,,,61,77
108864,note_on,,,,,32,0,12,,,,,4,,,65,77
108864,note_on,,,,,64,0,16,,,,,7,,,57,100
108864,note_on,,,,,128,0,10,,,,,2,,,76,87
108864,note_on,,,,,32,0,13,,,,,5,,,57,77
108928,note_off,,,,,0,0,15,,,,,7,,,65,100
108928,note_off,,,,,256,0,15,,,,,7,,,64,100
108928,note_off,,,,,64,0,13,,,,,5,,,57,100
108928,note_off,,,,,64,0,12,,,,,4,,,65,100
108928,note_off,,,,,0,0,12,,,,,4,,,61,100
108928,note_off,,,,,64,0,14,,,,,6,,,45,100
108960,note_on,,,,,32,0,14,,,,,6,,,45,78
108960,note_on,,,,,32,0,12,,,,,4,,,65,78
108960,note_on,,,,,32,0,13,,,,,5,,,57,78
108960,note_on,,,,,0,0,12,,,,,4,,,61,78
108992,note_off,,,,,128,0,16,,,,,7,,,57,100
108992,note_off,,,,,128,0,11,,,,,3,,,76,100
108992,note_off,,,,,128,0,10,,,,,2,,,76,100
109024,note_off,,,,,64,0,14,,,,,6,,,45,100
109024,note_off,,,,,0,0,12,,,,,4,,,61,100
109024,note_off,,,,,64,0,12,,,,,4,,,65,100
109024,note_off,,,,,64,0,13,,,,,5,,,57,100
109056,note_on,,,,,0,0,12,,,,,4,,,62,78
109056,note_on,,,,,64,0,10,,,,,2,,,74,88
109056,note_on,,,,,128,0,15,,,,,7,,,65,100
109056,note_on,,,,,0,0,15,,,,,7,,,62,100
109056,note_on,,,,,64,0,11,,,,,3,,,74,28
109056,note_on,,,,,32,0,13,,,,,5,,,58,78
109056,note_on,,,,,32,0,12,,,,,4,,,65,78
109056,note_on,,,,,64,0,16,,,,,7,,,58,100
109056,note_on,,,,,32,0,14,,,,,6,,,46,78
109120,note_off,,,,,64,0,13,,,,,5,,,58,100
109120,note_off,,,,,64,0,14,,,,,6,,,46,100
109120,note_off,,,,,0,0,12,,,,,4,,,62,100
109120,note_off,,,,,64,0,12,,,,,4,,,65,100
109152,note_on,,,,,32,0,14,,,,,6,,,46,78
109152,note_on,,,,,0,0,12,,,,,4,,,62,78
109152,note_on,,,,,32,0,12,,,,,4,,,65,78
109152,note_on,,,,,32,0,13,,,,,5,,,58,78
109184,note_off,,,,,128,0,16,,,,,7,,,58,100
109184,note_off,,,,,128,0,15,,,,,7,,,65,100
109184,note_off,,,,,128,0,10,,,,,2,,,74,100
109184,note_off,,,,,0,0,15,,,,,7,,,62,100
109184,note_off,,,,,128,0,11,,,,,3,,,74,100
109216,note_off,,,,,64,0,12,,,,,4,,,65,100
109216,note_off,,,,,64,0,14,,,,,6,,,46,100
109216,note_off,,,,,0,0,12,,,,,4,,,62,100
109216,note_off,,,,,64,0,13,,,,,5,,,58,100
109248,note_on,,,,,64,0,11,,,,,3,,,79,29
109248,note_on,,,,,64,0,16,,,,,7,,,58,100
109248,note_on,,,,,32,0,14,,,,,6,,,46,79
109248,note_on,,,,,64,0,10,,,,,2,,,79,89
109248,note_on,,,,,64,0,15,,,,,7,,,67,100
109248,note_on,,,,,0,0,15,,,,,7,,,62,100
109248,note_on,,,,,32,0,12,,,,,4,,,62,79
109248,note_on,,,,,32,0,13,,,,,5,,,58,79
109312,note_off,,,,,64,0,13,,,,,5,,,58,100
109312,note_off,,,,,64,0,12,,,,,4,,,62,100
109312,note_off,,,,,64,0,14,,,,,6,,,46,100
109344,note_on,,,,,32,0,12,,,,,4,,,62,79
109344,note_on,,,,,32,0,14,,,,,6,,,46,79
109344,note_on,,,,,32,0,13,,,,,5,,,58,79
109376,note_off,,,,,128,0,16,,,,,7,,,58,100
109376,note_off,,,,,0,0,15,,,,,7,,,62,100
109376,note_off,,,,,128,0,15,,,,,7,,,67,100
109408,note_off,,,,,64,0,13,,,,,5,,,58,100
109408,note_off,,,,,64,0,12,,,,,4,,,62,100
109408,note_off,,,,,64,0,14,,,,,6,,,46,100
109440,note_on,,,,,0,0,15,,,,,7,,,67,100
109440,note_on,,,,,32,0,13,,,,,5,,,59,79
109440,note_on,,,,,32,0,12,,,,,4,,,62,79
109440,note_on,,,,,64,0,15,,,,,7,,,69,100
109440,note_on,,,,,64,0,16,,,,,7,,,59,100
109440,note_on,,,,,32,0,14,,,,,6,,,47,79
109504,note_off,,,,,64,0,12,,,,,4,,,62,100
109504,note_off,,,,,64,0,13,,,,,5,,,59,100
109504,note_off,,,,,64,0,14,,,,,6,,,47,100
109504,note_off,,,,,256,0,10,,,,,2,,,79,100
109504,note_off,,,,,256,0,11,,,,,3,,,79,100
109536,note_on,,,,,32,0,13,,,,,5,,,59,80
109536,note_on,,,,,32,0,14,,,,,6,,,47,80
109536,note_on,,,,,32,0,12,,,,,4,,,62,80
109568,note_off,,,,,128,0,16,,,,,7,,,59,100
109600,note_off,,,,,64,0,13,,,,,5,,,59,100
109600,note_off,,,,,64,0,14,,,,,6,,,47,100
109600,note_off,,,,,64,0,12,,,,,4,,,62,100
109632,note_on,,,,,64,0,16,,,,,7,,,59,100
109632,note_on,,,,,32,0,13,,,,,5,,,59,80
109632,note_on,,,,,32,0,14,,,,,6,,,47,80
109632,note_on,,,,,32,0,12,,,,,4,,,67,80
109632,note_on,,,,,128,0,11,,,,,3,,,77,30
109632,note_on,,,,,128,0,10,,,,,2,,,77,90
109632,note_on,,,,,0,0,12,,,,,4,,,62,80
109696,note_off,,,,,64,0,13,,,,,5,,,59,100
109696,note_off,,,,,0,0,12,,,,,4,,,62,100
109696,note_off,,,,,0,0,15,,,,,7,,,67,100
109696,note_off,,,,,256,0,15,,,,,7,,,69,100
109696,note_off,,,,,64,0,14,,,,,6,,,47,100
109696,note_off,,,,,64,0,12,,,,,4,,,67,100
109728,note_on,,,,,32,0,14,,,,,6,,,47,80
109728,note_on,,,,,32,0,13,,,,,5,,,59,80
109728,note_on,,,,,32,0,12,,,,,4,,,67,80
109728,note_on,,,,,0,0,12,,,,,4,,,62,80
109760,note_off,,,,,128,0,16,,,,,7,,,59,100
109760,note_off,,,,,128,0,11,,,,,3,,,77,100
109760,note_off,,,,,128,0,10,,,,,2,,,77,100
109792,note_off,,,,,64,0,13,,,,,5,,,59,100
109792,note_off,,,,,0,0,12,,,,,4,,,62,100
109792,note_off,,,,,64,0,12,,,,,4,,,67,100
109792,note_off,,,,,64,0,14,,,,,6,,,47,100
109824,note_on,,,,,128,0,15,,,,,7,,,64,100
109824,note_on,,,,,0,0,15,,,,,7,,,67,100
109824,note_on,,,,,0,0,12,,,,,4,,,64,81
109824,note_on,,,,,64,0,16,,,,,7,,,60,100
109824,note_on,,,,,32,0,12,,,,,4,,,67,81
109824,note_on,,,,,64,0,11,,,,,3,,,76,31
109824,note_on,,,,,32,0,13,,,,,5,,,60,81
109824,note_on,,,,,64,0,10,,,,,2,,,76,91
109824,note_on,,,,,32,0,14,,,,,6,,,48,81
109888,note_off,,,,,64,0,12,,,,,4,,,67,100
109888,note_off,,,,,0,0,12,,,,,4,,,64,100
109888,note_off,,,,,64,0,14,,,,,6,,,48,100
109888,note_off,,,,,64,0,13,,,,,5,,,60,100
109920,note_on,,,,,0,0,12,,,,,4,,,64,81
109920,note_on,,,,,32,0,13,,,,,5,,,60,81
109920,note_on,,,,,32,0,12,,,,,4,,,67,81
109920,note_on,,,,,32,0,14,,,,,6,,,48,81
109952,note_off,,,,,128,0,11,,,,,3,,,76,100
109952,note_off,,,,,128,0,10,,,,,2,,,76,100
109952,note_off,,,,,0,0,15,,,,,7,,,67,100
109952,note_off,,,,,128,0,15,,,,,7,,,64,100
109952,note_off,,,,,128,0,16,,,,,7,,,60,100
109984,note_off,,,,,0,0,12,,,,,4,,,64,100
109984,note_off,,,,,64,0,14,,,,,6,,,48,100
109984,note_off,,,,,64,0,12,,,,,4,,,67,100
109984,note_off,,,,,64,0,13,,,,,5,,,60,100
110016,note_on,,,,,32,0,14,,,,,6,,,48,81
110016,note_on,,,,,32,0,12,,,,,4,,,64,81
110016,note_on,,,,,64,0,10,,,,,2,,,81,91
110016,note_on,,,,,0,0,15,,,,,7,,,69,100
110016,note_on,,,,,64,0,15,,,,,7,,,64,100
110016,note_on,,,,,64,0,11,,,,,3,,,81,31
110016,note_on,,,,,64,0,16,,,,,7,,,60,100
110016,note_on,,,,,32,0,13,,,,,5,,,60,81
110080,note_off,,,,,64,0,12,,,,,4,,,64,100
110080,note_off,,,,,64,0,14,,,,,6,,,48,100
110080,note_off,,,,,64,0,13,,,,,5,,,60,100
110112,note_on,,,,,32,0,13,,,,,5,,,60,82
110112,note_on,,,,,32,0,14,,,,,6,,,48,82
110112,note_on,,,,,32,0,12,,,,,4,,,64,82
110144,note_off,,,,,128,0,15,,,,,7,,,64,100
110144,note_off,,,,,128,0,16,,,,,7,,,60,100
110144,note_off,,,,,0,0,15,,,,,7,,,69,100
110176,note_off,,,,,64,0,13,,,,,5,,,60,100
110176,note_off,,,,,64,0,14,,,,,6,,,48,100
110176,note_off,,,,,64,0,12,,,,,4,,,64,100
110208,note_on,,,,,32,0,14,,,,,6,,,49,82
110208,note_on,,,,,0,0,15,,,,,7,,,69,100
110208,note_on,,,,,64,0,16,,,,,7,,,61,100
110208,note_on,,,,,64,0,15,,,,,7,,,67,100
110208,note_on,,,,,32,0,12,,,,,4,,,64,82
110208,note_on,,,,,32,0,13,,,,,5,,,61,82
110272,note_off,,,,,256,0,10,,,,,2,,,81,100
110272,note_off,,,,,64,0,12,,,,,4,,,64,100
110272,note_off,,,,,64,0,13,,,,,5,,,61,100
110272,note_off,,,,,256,0,11,,,,,3,,,81,100
110272,note_off,,,,,64,0,14,,,,,6,,,49,100
110304,note_on,,,,,32,0,14,,,,,6,,,49,82
110304,note_on,,,,,32,0,12,,,,,4,,,64,82
110304,note_on,,,,,32,0,13,,,,,5,,,61,82
110336,note_off,,,,,128,0,16,,,,,7,,,61,100
110368,note_off,,,,,64,0,12,,,,,4,,,64,100
110368,note_off,,,,,64,0,14,,,,,6,,,49,100
110368,note_off,,,,,64,0,13,,,,,5,,,61,100
110400,note_on,,,,,32,0,13,,,,,5,,,61,83
110400,note_on,,,,,0,0,12,,,,,4,,,64,83
110400,note_on,,,,,128,0,10,,,,,2,,,79,93
110400,note_on,,,,,64,0,16,,,,,7,,,61,100
110400,note_on,,,,,32,0,14,,,,,6,,,49,83
110400,note_on,,,,,32,0,12,,,,,4,,,69,83
110400,note_on,,,,,128,0,11,,,,,3,,,79,33
110464,note_off,,,,,0,0,15,,,,,7,,,69,100
110464,note_off,,,,,256,0,15,,,,,7,,,67,100
110464,note_off,,,,,64,0,14,,,,,6,,,49,100
110464,note_off,,,,,0,0,12,,,,,4,,,64,100
110464,note_off,,,,,64,0,12,,,,,4,,,69,100
110464,note_off,,,,,64,0,13,,,,,5,,,61,100
110496,note_on,,,,,32,0,14,,,,,6,,,49,83
110496,note_on,,,,,32,0,12,,,,,4,,,69,83
110496,note_on,,,,,0,0,12,,,,,4,,,64,83
110496,note_on,,,,,32,0,13,,,,,5,,,61,83
110528,note_off,,,,,128,0,11,,,,,3,,,79,100
110528,note_off,,,,,128,0,10,,,,,2,,,79,100
110528,note_off,,,,,128,0,16,,,,,7,,,61,100
110560,note_off,,,,,64,0,12,,,,,4,,,69,100
110560,note_off,,,,,0,0,12,,,,,4,,,64,100
110560,note_off,,,,,64,0,14,,,,,6,,,49,100
110560,note_off,,,,,64,0,13,,,,,5,,,61,100
110592,note_on,,,,,0,0,15,,,,,7,,,69,100
110592,note_on,,,,,32,0,12,,,,,4,,,66,83
110592,note_on,,,,,0,0,12,,,,,4,,,69,83
110592,note_on,,,,,32,0,14,,,,,6,,,50,83
110592,note_on,,,,,128,0,15,,,,,7,,,66,100
110592,note_on,,,,,32,0,13,,,,,5,,,62,83
110592,note_on,,,,,64,0,10,,,,,2,,,78,93
110592,note_on,,,,,64,0,11,,,,,3,,,78,33
110592,note_on,,,,,64,0,16,,,,,7,,,62,100
110656,note_off,,,,,64,0,14,,,,,6,,,50,100
110656,note_off,,,,,64,0,13,,,,,5,,,62,100
110656,note_off,,,,,64,0,12,,,,,4,,,66,100
110656,note_off,,,,,0,0,12,,,,,4,,,69,100
110688,note_on,,,,,32,0,13,,,,,5,,,62,84
110688,note_on,,,,,32,0,12,,,,,4,,,66,84
110688,note_on,,,,,32,0,14,,,,,6,,,50,84
110688,note_on,,,,,0,0,12,,,,,4,,,69,84
110720,note_off,,,,,128,0,15,,,,,7,,,66,100
110720,note_off,,,,,128,0,16,,,,,7,,,62,100
110720,note_off,,,,,0,0,15,,,,,7,,,69,100
110720,note_off,,,,,128,0,11,,,,,3,,,78,100
110720,note_off,,,,,128,0,10,,,,,2,,,78,100
110752,note_off,,,,,64,0,14,,,,,6,,,50,100
110752,note_off,,,,,64,0,12,,,,,4,,,66,100
110752,note_off,,,,,64,0,13,,,,,5,,,62,100
110752,note_off,,,,,0,0,12,,,,,4,,,69,100
110784,note_on,,,,,32,0,12,,,,,4,,,66,84
110784,note_on,,,,,0,0,12,,,,,4,,,69,84
110784,note_on,,,,,64,0,15,,,,,7,,,66,100
110784,note_on,,,,,64,0,10,,,,,2,,,74,94
110784,note_on,,,,,64,0,11,,,,,3,,,74,34
110784,note_on,,,,,64,0,16,,,,,7,,,60,100
110784,note_on,,,,,0,0,15,,,,,7,,,62,100
110784,note_on,,,,,32,0,13,,,,,5,,,60,84
110784,note_on,,,,,32,0,14,,,,,6,,,48,84
110848,note_off,,,,,0,0,12,,,,,4,,,69,100
110848,note_off,,,,,64,0,12,,,,,4,,,66,100
110848,note_off,,,,,64,0,13,,,,,5,,,60,100
110848,note_off,,,,,64,0,14,,,,,6,,,48,100
110880,note_on,,,,,32,0,14,,,,,6,,,48,84
110880,note_on,,,,,32,0,13,,,,,5,,,60,84
110880,note_on,,,,,32,0,12,,,,,4,,,66,84
110880,note_on,,,,,0,0,12,,,,,4,,,69,84
110912,note_off,,,,,128,0,10,,,,,2,,,74,100
110912,note_off,,,,,128,0,15,,,,,7,,,66,100
110912,note_off,,,,,128,0,16,,,,,7,,,60,100
110912,note_off,,,,,128,0,11,,,,,3,,,74,100
110912,note_off,,,,,0,0,15,,,,,7,,,62,100
110944,note_off,,,,,0,0,12,,,,,4,,,69,100
110944,note_off,,,,,64,0,13,,,,,5,,,60,100
110944,note_off,,,,,64,0,14,,,,,6,,,48,100
110944,note_off,,,,,64,0,12,,,,,4,,,66,100
110976,note_on,,,,,64,0,10,,,,,2,,,79,95
110976,note_on,,,,,64,0,15,,,,,7,,,67,100
110976,note_on,,,,,0,0,15,,,,,7,,,62,100
110976,note_on,,,,,32,0,14,,,,,6,,,46,85
110976,note_on,,,,,64,0,16,,,,,7,,,58,100
110976,note_on,,,,,64,0,11,,,,,3,,,79,35
110976,note_on,,,,,0,0,12,,,,,4,,,70,85
110976,note_on,,,,,32,0,13,,,,,5,,,58,85
110976,note_on,,,,,32,0,12,,,,,4,,,62,85
111040,note_off,,,,,64,0,12,,,,,4,,,62,100
111040,note_off,,,,,64,0,13,,,,,5,,,58,100
111040,note_off,,,,,64,0,14,,,,,6,,,46,100
111040,note_off,,,,,0,0,12,,,,,4,,,70,100
111072,note_on,,,,,32,0,12,,,,,4,,,62,85
111072,note_on,,,,,0,0,12,,,,,4,,,70,85
111072,note_on,,,,,32,0,13,,,,,5,,,58,85
111072,note_on,,,,,32,0,14,,,,,6,,,46,85
111104,note_off,,,,,128,0,16,,,,,7,,,58,100
111104,note_off,,,,,0,0,15,,,,,7,,,62,100
111104,note_off,,,,,128,0,15,,,,,7,,,67,100
111136,note_off,,,,,64,0,14,,,,,6,,,46,100
111136,note_off,,,,,64,0,13,,,,,5,,,58,100
111136,note_off,,,,,0,0,12,,,,,4,,,70,100
111136,note_off,,,,,64,0,12,,,,,4,,,62,100
111168,note_on,,,,,64,0,15,,,,,7,,,58,100
111168,note_on,,,,,32,0,12,,,,,4,,,62,85
111168,note_on,,,,,64,0,16,,,,,7,,,55,100
111168,note_on,,,,,0,0,12,,,,,4,,,70,85
111168,note_on,,,,,32,0,14,,,,,6,,,43,85
111168,note_on,,,,,0,0,15,,,,,7,,,62,100
111168,note_on,,,,,32,0,13,,,,,5,,,55,85
111232,note_off,,,,,0,0,12,,,,,4,,,70,100
111232,note_off,,,,,64,0,12,,,,,4,,,62,100
111232,note_off,,,,,64,0,14,,,,,6,,,43,100
111232,note_off,,,,,64,0,13,,,,,5,,,55,100
111264,note_on,,,,,32,0,14,,,,,6,,,43,85
111264,note_on,,,,,0,0,12,,,,,4,,,70,85
111264,note_on,,,,,32,0,13,,,,,5,,,55,85
111264,note_on,,,,,32,0,12,,,,,4,,,62,85
111296,note_off,,,,,0,0,15,,,,,7,,,62,100
111296,note_off,,,,,128,0,16,,,,,7,,,55,100
111296,note_off,,,,,128,0,15,,,,,7,,,58,100
111328,note_off,,,,,0,0,12,,,,,4,,,70,100
111328,note_off,,,,,64,0,12,,,,,4,,,62,100
111328,note_off,,,,,64,0,14,,,,,6,,,43,100
111328,note_off,,,,,64,0,13,,,,,5,,,55,100
111360,note_on,,,,,0,0,12,,,,,4,,,70,85
111360,note_on,,,,,32,0,12,,,,,4,,,63,85
111360,note_on,,,,,32,0,14,,,,,6,,,36,85
111360,note_on,,,,,32,0,13,,,,,5,,,48,85
111360,note_on,,,,,64,0,16,,,,,7,,,48,100
111360,note_on,,,,,0,0,15,,,,,7,,,58,100
111360,note_on,,,,,64,0,15,,,,,7,,,67,100
111360,note_off,,,,,384,0,10,,,,,2,,,79,100
111360,note_off,,,,,384,0,11,,,,,3,,,79,100
111424,note_off,,,,,0,0,12,,,,,4,,,70,100
111424,note_off,,,,,64,0,12,,,,,4,,,63,100
111424,note_off,,,,,64,0,14,,,,,6,,,36,100
111424,note_off,,,,,64,0,13,,,,,5,,,48,100
111456,note_on,,,,,32,0,14,,,,,6,,,36,85
111456,note_on,,,,,0,0,12,,,,,4,,,70,85
111456,note_on,,,,,32,0,12,,,,,4,,,63,85
111456,note_on,,,,,32,0,13,,,,,5,,,48,85
111488,note_off,,,,,128,0,15,,,,,7,,,67,100
111488,note_off,,,,,0,0,15,,,,,7,,,58,100
111488,note_off,,,,,128,0,16,,,,,7,,,48,100
111520,note_off,,,,,64,0,14,,,,,6,,,36,100
111520,note_off,,,,,0,0,12,,,,,4,,,70,100
111520,note_off,,,,,64,0,13,,,,,5,,,48,100
111520,note_off,,,,,64,0,12,,,,,4,,,63,100
111552,note_on,,,,,192,0,11,,,,,3,,,70,35
111552,note_on,,,,,32,0,13,,,,,5,,,48,85
111552,note_on,,,,,32,0,14,,,,,6,,,36,85
111552,note_on,,,,,0,0,15,,,,,7,,,67,100
111552,note_on,,,,,64,0,15,,,,,7,,,58,100
111552,note_on,,,,,192,0,10,,,,,2,,,70,95
111552,note_on,,,,,0,0,12,,,,,4,,,70,85
111552,note_on,,,,,32,0,12,,,,,4,,,63,85
111552,note_on,,,,,64,0,16,,,,,7,,,48,100
111616,note_off,,,,,0,0,12,,,,,4,,,70,100
111616,note_off,,,,,64,0,14,,,,,6,,,36,100
111616,note_off,,,,,64,0,13,,,,,5,,,48,100
111616,note_off,,,,,64,0,12,,,,,4,,,63,100
111648,note_on,,,,,32,0,13,,,,,5,,,48,85
111648,note_on,,,,,0,0,12,,,,,4,,,70,85
111648,note_on,,,,,32,0,12,,,,,4,,,63,85
111648,note_on,,,,,32,0,14,,,,,6,,,36,85
111680,note_off,,,,,0,0,15,,,,,7,,,67,100
111680,note_off,,,,,128,0,16,,,,,7,,,48,100
111680,note_off,,,,,128,0,10,,,,,2,,,70,100
111680,note_off,,,,,128,0,15,,,,,7,,,58,100
111680,note_off,,,,,128,0,11,,,,,3,,,70,100
111712,note_off,,,,,64,0,12,,,,,4,,,63,100
111712,note_off,,,,,64,0,13,,,,,5,,,48,100
111712,note_off,,,,,64,0,14,,,,,6,,,36,100
111712,note_off,,,,,0,0,12,,,,,4,,,70,100
111744,note_on,,,,,32,0,13,,,,,5,,,50,85
111744,note_on,,,,,64,0,10,,,,,2,,,62,95
111744,note_on,,,,,0,0,12,,,,,4,,,69,85
111744,note_on,,,,,32,0,12,,,,,4,,,62,85
111744,note_on,,,,,64,0,11,,,,,3,,,62,35
111744,note_on,,,,,64,0,16,,,,,7,,,50,100
111744,note_on,,,,,64,0,15,,,,,7,,,66,100
111744,note_on,,,,,0,0,15,,,,,7,,,69,100
111744,note_on,,,,,32,0,14,,,,,6,,,38,85
111808,note_off,,,,,64,0,13,,,,,5,,,50,100
111808,note_off,,,,,64,0,14,,,,,6,,,38,100
111808,note_off,,,,,64,0,12,,,,,4,,,62,100
111808,note_off,,,,,0,0,12,,,,,4,,,69,100
111840,note_on,,,,,32,0,14,,,,,6,,,38,85
111840,note_on,,,,,0,0,12,,,,,4,,,69,85
111840,note_on,,,,,32,0,12,,,,,4,,,62,85
111840,note_on,,,,,32,0,13,,,,,5,,,50,85
111872,note_off,,,,,128,0,10,,,,,2,,,62,100
111872,note_off,,,,,128,0,11,,,,,3,,,62,100
111872,note_off,,,,,0,0,15,,,,,7,,,69,100
111872,note_off,,,,,128,0,16,,,,,7,,,50,100
111872,note_off,,,,,128,0,15,,,,,7,,,66,100
111904,note_off,,,,,64,0,13,,,,,5,,,50,100
111904,note_off,,,,,0,0,12,,,,,4,,,69,100
111904,note_off,,,,,64,0,14,,,,,6,,,38,100
111904,note_off,,,,,64,0,12,,,,,4,,,62,100
111936,note_on,,,,,64,0,16,,,,,7,,,50,100
111936,note_on,,,,,0,0,15,,,,,7,,,69,100
111936,note_on,,,,,64,0,15,,,,,7,,,66,100
111936,note_on,,,,,64,0,10,,,,,2,,,78,95
111936,note_on,,,,,64,0,11,,,,,3,,,78,35
111936,note_on,,,,,32,0,14,,,,,6,,,38,85
111936,note_on,,,,,32,0,12,,,,,4,,,62,85
111936,note_on,,,,,0,0,12,,,,,4,,,69,85
111936,note_on,,,,,32,0,13,,,,,5,,,50,85
112000,note_off,,,,,64,0,14,,,,,6,,,38,100
112000,note_off,,,,,64,0,13,,,,,5,,,50,100
112000,note_off,,,,,64,0,12,,,,,4,,,62,100
112000,note_off,,,,,0,0,12,,,,,4,,,69,100
112032,note_on,,,,,32,0,14,,,,,6,,,38,85
112032,note_on,,,,,0,0,12,,,,,4,,,69,85
112032,note_on,,,,,32,0,13,,,,,5,,,50,85
112032,note_on,,,,,32,0,12,,,,,4,,,62,85
112064,note_off,,,,,0,0,15,,,,,7,,,69,100
112064,note_off,,,,,128,0,15,,,,,7,,,66,100
112064,note_off,,,,,128,0,10,,,,,2,,,78,100
112064,note_off,,,,,128,0,16,,,,,7,,,50,100
112064,note_off,,,,,128,0,11,,,,,3,,,78,100
112096,note_off,,,,,0,0,12,,,,,4,,,69,100
112096,note_off,,,,,64,0,12,,,,,4,,,62,100
112096,note_off,,,,,64,0,13,,,,,5,,,50,100
112096,note_off,,,,,64,0,14,,,,,6,,,38,100
112128,note_on,,,,,0,0,12,,,,,4,,,70,85
112128,note_on,,,,,32,0,13,,,,,5,,,43,85
112128,note_on,,,,,32,0,14,,,,,6,,,43,85
112128,note_on,,,,,64,0,15,,,,,7,,,62,100
112128,note_on,,,,,32,0,12,,,,,4,,,62,85
112128,note_on,,,,,0,0,15,,,,,7,,,70,100
112128,note_on,,,,,5248,0,8,,,,,0,,,79,85
112128,note_on,,,,,64,0,16,,,,,7,,,43,100
112128,note_on,,,,,64,0,11,,,,,3,,,79,35
112128,note_on,,,,,64,0,10,,,,,2,,,79,95
112132,program_change,,,,,4,0,8,,,,,0,40,,,
112256,note_off,,,,,124,0,8,,,,,0,,,79,100
112320,note_on,,,,,64,0,8,,,,,0,,,77,85
112384,note_off,,,,,256,0,16,,,,,7,,,43,100
112384,note_off,,,,,256,0,15,,,,,7,,,62,100
112384,note_off,,,,,256,0,11,,,,,3,,,79,100
112384,note_off,,,,,256,0,10,,,,,2,,,79,100
112384,note_off,,,,,64,0,8,,,,,0,,,77,100
112384,note_off,,,,,256,0,12,,,,,4,,,62,100
112384,note_off,,,,,0,0,12,,,,,4,,,70,100
112384,note_off,,,,,0,0,15,,,,,7,,,70,100
112384,note_off,,,,,256,0,13,,,,,5,,,43,100
112384,note_off,,,,,256,0,14,,,,,6,,,43,100
112416,note_on,,,,,32,0,8,,,,,0,,,75,85
112480,note_off,,,,,64,0,8,,,,,0,,,75,100
112512,note_on,,,,,32,0,8,,,,,0,,,74,85
112576,note_off,,,,,64,0,8,,,,,0,,,74,100
112608,note_on,,,,,32,0,8,,,,,0,,,72,85
112672,note_off,,,,,64,0,8,,,,,0,,,72,100
112704,note_on,,,,,32,0,8,,,,,0,,,70,85
112768,note_off,,,,,64,0,8,,,,,0,,,70,100
112800,note_on,,,,,32,0,8,,,,,0,,,69,85
112864,note_off,,,,,64,0,8,,,,,0,,,69,100
112896,note_on,,,,,0,0,15,,,,,7,,,70,100
112896,note_on,,,,,512,0,14,,,,,6,,,43,85
112896,note_on,,,,,32,0,8,,,,,0,,,67,85
112896,note_on,,,,,512,0,13,,,,,5,,,43,85
112896,note_on,,,,,512,0,16,,,,,7,,,43,100
112896,note_on,,,,,512,0,15,,,,,7,,,62,100
112960,note_off,,,,,64,0,8,,,,,0,,,67,100
112992,note_on,,,,,32,0,8,,,,,0,,,69,85
113056,note_off,,,,,64,0,8,,,,,0,,,69,100
113088,note_on,,,,,32,0,8,,,,,0,,,70,85
113152,note_off,,,,,64,0,8,,,,,0,,,70,100
113152,note_off,,,,,256,0,15,,,,,7,,,62,100
113152,note_off,,,,,256,0,14,,,,,6,,,43,100
113152,note_off,,,,,0,0,15,,,,,7,,,70,100
113152,note_off,,,,,256,0,16,,,,,7,,,43,100
113152,note_off,,,,,256,0,13,,,,,5,,,43,100
113184,note_on,,,,,32,0,8,,,,,0,,,72,85
113248,note_off,,,,,64,0,8,,,,,0,,,72,100
113280,note_on,,,,,32,0,8,,,,,0,,,74,85
113344,note_off,,,,,64,0,8,,,,,0,,,74,100
113376,note_on,,,,,32,0,8,,,,,0,,,76,85
113440,note_off,,,,,64,0,8,,,,,0,,,76,100
113472,note_on,,,,,32,0,8,,,,,0,,,78,85
113536,note_off,,,,,64,0,8,,,,,0,,,78,100
113568,note_on,,,,,32,0,8,,,,,0,,,79,85
113632,note_off,,,,,64,0,8,,,,,0,,,79,100
113664,note_on,,,,,32,0,8,,,,,0,,,78,85
113664,note_on,,,,,512,0,15,,,,,7,,,69,100
113664,note_on,,,,,512,0,13,,,,,5,,,50,85
113664,note_on,,,,,512,0,16,,,,,7,,,50,100
113664,note_on,,,,,512,0,14,,,,,6,,,38,85
113664,note_on,,,,,0,0,15,,,,,7,,,66,100
113792,note_off,,,,,128,0,8,,,,,0,,,78,100
113792,note_off,,,,,128,0,16,,,,,7,,,50,100
113792,note_off,,,,,128,0,14,,,,,6,,,38,100
113792,note_off,,,,,128,0,13,,,,,5,,,50,100
113856,note_on,,,,,64,0,13,,,,,5,,,48,85
113856,note_on,,,,,64,0,16,,,,,7,,,48,100
113856,note_on,,,,,64,0,14,,,,,6,,,36,85
113856,note_on,,,,,64,0,8,,,,,0,,,74,85
113920,note_off,,,,,256,0,15,,,,,7,,,69,100
113920,note_off,,,,,0,0,15,,,,,7,,,66,100
113984,note_off,,,,,128,0,8,,,,,0,,,74,100
113984,note_off,,,,,128,0,16,,,,,7,,,48,100
113984,note_off,,,,,128,0,13,,,,,5,,,48,100
113984,note_off,,,,,128,0,14,,,,,6,,,36,100
114048,note_on,,,,,64,0,16,,,,,7,,,47,100
114048,note_on,,,,,128,0,15,,,,,7,,,66,100
114048,note_on,,,,,64,0,13,,,,,5,,,47,85
114048,note_on,,,,,64,0,14,,,,,6,,,35,85
114048,note_on,,,,,0,0,15,,,,,7,,,62,100
114144,note_on,,,,,160,0,8,,,,,0,,,79,85
114176,note_off,,,,,128,0,15,,,,,7,,,66,100
114176,note_off,,,,,0,0,15,,,,,7,,,62,100
114176,note_off,,,,,128,0,14,,,,,6,,,35,100
114176,note_off,,,,,128,0,13,,,,,5,,,47,100
114176,note_off,,,,,128,0,16,,,,,7,,,47,100
114208,note_off,,,,,64,0,8,,,,,0,,,79,100
114240,note_on,,,,,64,0,14,,,,,6,,,43,85
114240,note_on,,,,,64,0,15,,,,,7,,,65,100
114240,note_on,,,,,64,0,16,,,,,7,,,43,100
114240,note_on,,,,,64,0,13,,,,,5,,,43,85
114240,note_on,,,,,32,0,8,,,,,0,,,77,85
114240,note_on,,,,,0,0,15,,,,,7,,,62,100
114240,note_on,,,,,0,0,15,,,,,7,,,69,100
114304,note_off,,,,,64,0,8,,,,,0,,,77,100
114336,note_on,,,,,32,0,8,,,,,0,,,79,85
114368,note_off,,,,,0,0,15,,,,,7,,,62,100
114368,note_off,,,,,128,0,16,,,,,7,,,43,100
114368,note_off,,,,,128,0,13,,,,,5,,,43,100
114368,note_off,,,,,0,0,15,,,,,7,,,69,100
114368,note_off,,,,,128,0,14,,,,,6,,,43,100
114368,note_off,,,,,128,0,15,,,,,7,,,65,100
114400,note_off,,,,,64,0,8,,,,,0,,,79,100
114432,note_on,,,,,64,0,13,,,,,5,,,48,85
114432,note_on,,,,,64,0,16,,,,,7,,,48,100
114432,note_on,,,,,64,0,14,,,,,6,,,36,85
114432,note_on,,,,,64,0,15,,,,,7,,,67,100
114432,note_on,,,,,0,0,15,,,,,7,,,63,100
114432,note_on,,,,,32,0,8,,,,,0,,,75,85
114496,note_off,,,,,64,0,8,,,,,0,,,75,100
114528,note_on,,,,,32,0,8,,,,,0,,,74,85
114560,note_off,,,,,128,0,14,,,,,6,,,36,100
114560,note_off,,,,,0,0,15,,,,,7,,,63,100
114560,note_off,,,,,128,0,15,,,,,7,,,67,100
114560,note_off,,,,,128,0,16,,,,,7,,,48,100
114560,note_off,,,,,128,0,13,,,,,5,,,48,100
114592,note_off,,,,,64,0,8,,,,,0,,,74,100
114624,note_on,,,,,64,0,15,,,,,7,,,70,100
114624,note_on,,,,,64,0,16,,,,,7,,,51,100
114624,note_on,,,,,32,0,8,,,,,0,,,72,85
114624,note_on,,,,,64,0,14,,,,,6,,,39,85
114624,note_on,,,,,64,0,13,,,,,5,,,51,85
114624,note_on,,,,,0,0,15,,,,,7,,,67,100
114688,note_off,,,,,64,0,8,,,,,0,,,72,100
114720,note_on,,,,,32,0,8,,,,,0,,,70,85
114752,note_off,,,,,128,0,14,,,,,6,,,39,100
114752,note_off,,,,,128,0,16,,,,,7,,,51,100
114752,note_off,,,,,128,0,15,,,,,7,,,70,100
114752,note_off,,,,,0,0,15,,,,,7,,,67,100
114752,note_off,,,,,128,0,13,,,,,5,,,51,100
114784,note_off,,,,,64,0,8,,,,,0,,,70,100
114816,note_on,,,,,64,0,14,,,,,6,,,41,85
114816,note_on,,,,,64,0,13,,,,,5,,,53,85
114816,note_on,,,,,64,0,16,,,,,7,,,53,100
114816,note_on,,,,,0,0,15,,,,,7,,,69,100
114816,note_on,,,,,64,0,15,,,,,7,,,72,100
114816,note_on,,,,,32,0,8,,,,,0,,,69,85
114944,note_off,,,,,128,0,13,,,,,5,,,53,100
114944,note_off,,,,,128,0,14,,,,,6,,,41,100
114944,note_off,,,,,128,0,8,,,,,0,,,69,100
114944,note_off,,,,,128,0,16,,,,,7,,,53,100
114944,note_off,,,,,0,0,15,,,,,7,,,69,100
114944,note_off,,,,,128,0,15,,,,,7,,,72,100
115008,note_on,,,,,64,0,14,,,,,6,,,33,85
115008,note_on,,,,,64,0,13,,,,,5,,,45,85
115008,note_on,,,,,64,0,8,,,,,0,,,77,85
115008,note_on,,,,,0,0,15,,,,,7,,,60,100
115008,note_on,,,,,64,0,15,,,,,7,,,63,100
115008,note_on,,,,,64,0,16,,,,,7,,,45,100
115136,note_off,,,,,128,0,16,,,,,7,,,45,100
115136,note_off,,,,,0,0,15,,,,,7,,,60,100
115136,note_off,,,,,128,0,8,,,,,0,,,77,100
115136,note_off,,,,,128,0,14,,,,,6,,,33,100
115136,note_off,,,,,128,0,13,,,,,5,,,45,100
115136,note_off,,,,,128,0,15,,,,,7,,,63,100
115200,note_on,,,,,64,0,14,,,,,6,,,34,85
115200,note_on,,,,,64,0,8,,,,,0,,,74,85
115200,note_on,,,,,0,0,15,,,,,7,,,62,100
115200,note_on,,,,,64,0,15,,,,,7,,,65,100
115200,note_on,,,,,64,0,16,,,,,7,,,46,100
115200,note_on,,,,,64,0,13,,,,,5,,,46,85
115328,note_off,,,,,128,0,16,,,,,7,,,46,100
115328,note_off,,,,,128,0,13,,,,,5,,,46,100
115328,note_off,,,,,128,0,14,,,,,6,,,34,100
115328,note_off,,,,,128,0,8,,,,,0,,,74,100
115392,note_on,,,,,64,0,8,,,,,0,,,58,85
115392,note_on,,,,,64,0,14,,,,,6,,,46,85
115392,note_on,,,,,64,0,16,,,,,7,,,58,100
115392,note_on,,,,,64,0,13,,,,,5,,,58,85
115456,note_off,,,,,64,0,13,,,,,5,,,58,100
115456,note_off,,,,,64,0,14,,,,,6,,,46,100
115456,note_off,,,,,64,0,16,,,,,7,,,58,100
115456,note_off,,,,,0,0,15,,,,,7,,,62,100
115456,note_off,,,,,256,0,15,,,,,7,,,65,100
115488,note_on,,,,,32,0,14,,,,,6,,,45,85
115488,note_on,,,,,32,0,13,,,,,5,,,57,85
115488,note_on,,,,,32,0,16,,,,,7,,,57,100
115520,note_off,,,,,128,0,8,,,,,0,,,58,100
115552,note_off,,,,,64,0,14,,,,,6,,,45,100
115552,note_off,,,,,64,0,16,,,,,7,,,57,100
115552,note_off,,,,,64,0,13,,,,,5,,,57,100
115584,note_on,,,,,32,0,16,,,,,7,,,55,100
115584,note_on,,,,,128,0,15,,,,,7,,,70,100
115584,note_on,,,,,0,0,15,,,,,7,,,74,100
115584,note_on,,,,,32,0,14,,,,,6,,,43,85
115584,note_on,,,,,32,0,13,,,,,5,,,55,85
115680,note_on,,,,,160,0,8,,,,,0,,,75,85
115712,note_off,,,,,128,0,16,,,,,7,,,55,100
115712,note_off,,,,,128,0,14,,,,,6,,,43,100
115712,note_off,,,,,128,0,13,,,,,5,,,55,100
115712,note_off,,,,,0,0,15,,,,,7,,,74,100
115712,note_off,,,,,128,0,15,,,,,7,,,70,100
115744,note_off,,,,,64,0,8,,,,,0,,,75,100
115776,note_on,,,,,32,0,8,,,,,0,,,74,85
115776,note_on,,,,,64,0,13,,,,,5,,,51,85
115776,note_on,,,,,64,0,16,,,,,7,,,51,100
115776,note_on,,,,,64,0,15,,,,,7,,,62,100
115776,note_on,,,,,0,0,15,,,,,7,,,70,100
115776,note_on,,,,,64,0,14,,,,,6,,,39,85
115840,note_off,,,,,64,0,8,,,,,0,,,74,100
115872,note_on,,,,,32,0,8,,,,,0,,,75,85
115904,note_off,,,,,128,0,14,,,,,6,,,39,100
115904,note_off,,,,,128,0,15,,,,,7,,,62,100
115904,note_off,,,,,0,0,15,,,,,7,,,70,100
115904,note_off,,,,,128,0,13,,,,,5,,,51,100
115904,note_off,,,,,128,0,16,,,,,7,,,51,100
115936,note_off,,,,,64,0,8,,,,,0,,,75,100
115968,note_on,,,,,32,0,8,,,,,0,,,72,85
115968,note_on,,,,,64,0,14,,,,,6,,,33,85
115968,note_on,,,,,64,0,15,,,,,7,,,55,100
115968,note_on,,,,,64,0,13,,,,,5,,,45,85
115968,note_on,,,,,64,0,16,,,,,7,,,45,100
115968,note_on,,,,,0,0,15,,,,,7,,,63,100
116032,note_off,,,,,64,0,8,,,,,0,,,72,100
116064,note_on,,,,,32,0,8,,,,,0,,,70,85
116096,note_off,,,,,128,0,16,,,,,7,,,45,100
116096,note_off,,,,,0,0,15,,,,,7,,,63,100
116096,note_off,,,,,128,0,15,,,,,7,,,55,100
116096,note_off,,,,,128,0,14,,,,,6,,,33,100
116096,note_off,,,,,128,0,13,,,,,5,,,45,100
116128,note_off,,,,,64,0,8,,,,,0,,,70,100
116160,note_on,,,,,64,0,16,,,,,7,,,48,100
116160,note_on,,,,,64,0,14,,,,,6,,,36,85
116160,note_on,,,,,64,0,15,,,,,7,,,69,100
116160,note_on,,,,,0,0,15,,,,,7,,,67,100
116160,note_on,,,,,64,0,13,,,,,5,,,48,85
116160,note_on,,,,,32,0,8,,,,,0,,,69,85
116224,note_off,,,,,64,0,8,,,,,0,,,69,100
116256,note_on,,,,,32,0,8,,,,,0,,,67,85
116288,note_off,,,,,128,0,13,,,,,5,,,48,100
116288,note_off,,,,,128,0,14,,,,,6,,,36,100
116288,note_off,,,,,128,0,15,,,,,7,,,69,100
116288,note_off,,,,,0,0,15,,,,,7,,,67,100
116288,note_off,,,,,128,0,16,,,,,7,,,48,100
116320,note_off,,,,,64,0,8,,,,,0,,,67,100
116352,note_on,,,,,64,0,16,,,,,7,,,50,100
116352,note_on,,,,,64,0,15,,,,,7,,,66,100
116352,note_on,,,,,64,0,14,,,,,6,,,38,85
116352,note_on,,,,,64,0,13,,,,,5,,,50,85
116352,note_on,,,,,0,0,15,,,,,7,,,69,100
116352,note_on,,,,,32,0,8,,,,,0,,,66,85
116480,note_off,,,,,128,0,16,,,,,7,,,50,100
116480,note_off,,,,,128,0,13,,,,,5,,,50,100
116480,note_off,,,,,128,0,14,,,,,6,,,38,100
116480,note_off,,,,,128,0,15,,,,,7,,,66,100
116480,note_off,,,,,128,0,8,,,,,0,,,66,100
116480,note_off,,,,,0,0,15,,,,,7,,,69,100
116544,note_on,,,,,64,0,13,,,,,5,,,54,85
116544,note_on,,,,,64,0,15,,,,,7,,,62,100
116544,note_on,,,,,0,0,15,,,,,7,,,57,100
116544,note_on,,,,,64,0,8,,,,,0,,,74,85
116544,note_on,,,,,64,0,14,,,,,6,,,42,85
116544,note_on,,,,,64,0,16,,,,,7,,,54,100
116672,note_off,,,,,128,0,16,,,,,7,,,54,100
116672,note_off,,,,,128,0,15,,,,,7,,,62,100
116672,note_off,,,,,0,0,15,,,,,7,,,57,100
116672,note_off,,,,,128,0,14,,,,,6,,,42,100
116672,note_off,,,,,128,0,13,,,,,5,,,54,100
116672,note_off,,,,,128,0,8,,,,,0,,,74,100
116736,note_on,,,,,64,0,15,,,,,7,,,70,100
116736,note_on,,,,,0,0,15,,,,,7,,,62,100
116736,note_on,,,,,64,0,13,,,,,5,,,55,85
116736,note_on,,,,,64,0,8,,,,,0,,,70,85
116736,note_on,,,,,64,0,16,,,,,7,,,55,100
116736,note_on,,,,,64,0,14,,,,,6,,,43,85
116864,note_off,,,,,128,0,16,,,,,7,,,55,100
116864,note_off,,,,,128,0,13,,,,,5,,,55,100
116864,note_off,,,,,128,0,8,,,,,0,,,70,100
116864,note_off,,,,,128,0,14,,,,,6,,,43,100
116864,note_off,,,,,128,0,15,,,,,7,,,70,100
116864,note_off,,,,,0,0,15,,,,,7,,,62,100
116928,note_on,,,,,64,0,15,,,,,7,,,58,100
116928,note_on,,,,,64,0,8,,,,,0,,,55,85
116928,note_on,,,,,64,0,13,,,,,5,,,43,85
116928,note_on,,,,,0,0,15,,,,,7,,,62,100
116928,note_on,,,,,64,0,16,,,,,7,,,43,100
116928,note_on,,,,,64,0,14,,,,,6,,,43,85
117056,note_off,,,,,0,0,15,,,,,7,,,62,100
117056,note_off,,,,,128,0,15,,,,,7,,,58,100
117056,note_off,,,,,128,0,13,,,,,5,,,43,100
117056,note_off,,,,,128,0,14,,,,,6,,,43,100
117056,note_off,,,,,128,0,8,,,,,0,,,55,100
117056,note_off,,,,,128,0,16,,,,,7,,,43,100
117120,note_on,,,,,64,0,8,,,,,0,,,86,60
117248,note_off,,,,,128,0,8,,,,,0,,,86,100
117312,note_on,,,,,4928,0,10,,,,,2,,,79,60
117312,note_on,,,,,4928,0,11,,,,,3,,,79,10
117312,note_on,,,,,4928,0,12,,,,,4,,,71,60
117312,note_on,,,,,64,0,8,,,,,0,,,77,60
117440,note_off,,,,,128,0,8,,,,,0,,,77,100
117440,note_off,,,,,128,0,11,,,,,3,,,79,100
117440,note_off,,,,,128,0,12,,,,,4,,,71,100
117440,note_off,,,,,128,0,10,,,,,2,,,79,100
117504,note_on,,,,,64,0,11,,,,,3,,,79,10
117504,note_on,,,,,64,0,12,,,,,4,,,72,60
117504,note_on,,,,,64,0,10,,,,,2,,,79,60
117504,note_on,,,,,64,0,8,,,,,0,,,77,60
117548,note_off,,,,,44,0,8,,,,,0,,,77,100
117552,note_on,,,,,4,0,8,,,,,0,,,79,60
117596,note_off,,,,,44,0,8,,,,,0,,,79,100
117600,note_on,,,,,4,0,8,,,,,0,,,77,60
117632,note_off,,,,,128,0,12,,,,,4,,,72,100
117644,note_off,,,,,44,0,8,,,,,0,,,77,100
117648,note_on,,,,,4,0,8,,,,,0,,,79,60
117692,note_off,,,,,44,0,8,,,,,0,,,79,100
117696,note_on,,,,,4,0,8,,,,,0,,,76,60
117696,note_on,,,,,64,0,12,,,,,4,,,60,60
117760,note_off,,,,,256,0,11,,,,,3,,,79,100
117760,note_off,,,,,256,0,10,,,,,2,,,79,100
117824,note_off,,,,,128,0,12,,,,,4,,,60,100
117824,note_off,,,,,128,0,8,,,,,0,,,76,100
117888,note_on,,,,,64,0,8,,,,,0,,,84,60
118016,note_off,,,,,128,0,8,,,,,0,,,84,100
118080,note_on,,,,,320,0,11,,,,,3,,,77,10
118080,note_on,,,,,256,0,12,,,,,4,,,69,60
118080,note_on,,,,,320,0,10,,,,,2,,,77,60
118080,note_on,,,,,64,0,8,,,,,0,,,75,60
118208,note_off,,,,,128,0,10,,,,,2,,,77,100
118208,note_off,,,,,128,0,11,,,,,3,,,77,100
118208,note_off,,,,,128,0,12,,,,,4,,,69,100
118208,note_off,,,,,128,0,8,,,,,0,,,75,100
118272,note_on,,,,,64,0,8,,,,,0,,,75,60
118272,note_on,,,,,64,0,11,,,,,3,,,77,10
118272,note_on,,,,,64,0,10,,,,,2,,,77,60
118272,note_on,,,,,64,0,12,,,,,4,,,70,60
118316,note_off,,,,,44,0,8,,,,,0,,,75,100
118320,note_on,,,,,4,0,8,,,,,0,,,77,60
118364,note_off,,,,,44,0,8,,,,,0,,,77,100
118368,note_on,,,,,4,0,8,,,,,0,,,75,60
118400,note_off,,,,,128,0,12,,,,,4,,,70,100
118412,note_off,,,,,44,0,8,,,,,0,,,75,100
118416,note_on,,,,,4,0,8,,,,,0,,,77,60
118460,note_off,,,,,44,0,8,,,,,0,,,77,100
118464,note_on,,,,,64,0,12,,,,,4,,,58,60
118464,note_on,,,,,4,0,8,,,,,0,,,74,60
118528,note_off,,,,,256,0,10,,,,,2,,,77,100
118528,note_off,,,,,256,0,11,,,,,3,,,77,100
118592,note_off,,,,,128,0,12,,,,,4,,,58,100
118592,note_off,,,,,128,0,8,,,,,0,,,74,100
118656,note_on,,,,,64,0,8,,,,,0,,,82,60
118784,note_off,,,,,128,0,8,,,,,0,,,82,100
118848,note_on,,,,,256,0,12,,,,,4,,,67,60
118848,note_on,,,,,320,0,11,,,,,3,,,75,10
118848,note_on,,,,,320,0,10,,,,,2,,,75,60
118848,note_on,,,,,64,0,8,,,,,0,,,74,60
118976,note_off,,,,,128,0,11,,,,,3,,,75,100
118976,note_off,,,,,128,0,10,,,,,2,,,75,100
118976,note_off,,,,,128,0,8,,,,,0,,,74,100
118976,note_off,,,,,128,0,12,,,,,4,,,67,100
119040,note_on,,,,,64,0,10,,,,,2,,,75,60
119040,note_on,,,,,64,0,11,,,,,3,,,75,10
119040,note_on,,,,,64,0,8,,,,,0,,,74,60
119040,note_on,,,,,64,0,12,,,,,4,,,69,60
119084,note_off,,,,,44,0,8,,,,,0,,,74,100
119088,note_on,,,,,4,0,8,,,,,0,,,75,60
119132,note_off,,,,,44,0,8,,,,,0,,,75,100
119136,note_on,,,,,4,0,8,,,,,0,,,74,60
119168,note_off,,,,,128,0,12,,,,,4,,,69,100
119180,note_off,,,,,44,0,8,,,,,0,,,74,100
119184,note_on,,,,,4,0,8,,,,,0,,,75,60
119228,note_off,,,,,44,0,8,,,,,0,,,75,100
119232,note_on,,,,,64,0,12,,,,,4,,,57,60
119232,note_on,,,,,4,0,8,,,,,0,,,72,60
119296,note_off,,,,,256,0,11,,,,,3,,,75,100
119296,note_off,,,,,256,0,10,,,,,2,,,75,100
119360,note_off,,,,,128,0,8,,,,,0,,,72,100
119360,note_off,,,,,128,0,12,,,,,4,,,57,100
119424,note_on,,,,,64,0,8,,,,,0,,,81,60
119552,note_off,,,,,128,0,8,,,,,0,,,81,100
119616,note_on,,,,,256,0,12,,,,,4,,,66,60
119616,note_on,,,,,64,0,8,,,,,0,,,72,60
119616,note_on,,,,,320,0,10,,,,,2,,,74,60
119616,note_on,,,,,320,0,11,,,,,3,,,74,10
119744,note_off,,,,,128,0,8,,,,,0,,,72,100
119744,note_off,,,,,128,0,11,,,,,3,,,74,100
119744,note_off,,,,,128,0,10,,,,,2,,,74,100
119744,note_off,,,,,128,0,12,,,,,4,,,66,100
119808,note_on,,,,,64,0,10,,,,,2,,,74,60
119808,note_on,,,,,64,0,11,,,,,3,,,74,10
119808,note_on,,,,,64,0,12,,,,,4,,,67,60
119808,note_on,,,,,64,0,8,,,,,0,,,72,60
119852,note_off,,,,,44,0,8,,,,,0,,,72,100
119856,note_on,,,,,4,0,8,,,,,0,,,74,60
119900,note_off,,,,,44,0,8,,,,,0,,,74,100
119904,note_on,,,,,4,0,8,,,,,0,,,72,60
119936,note_off,,,,,128,0,12,,,,,4,,,67,100
119948,note_off,,,,,44,0,8,,,,,0,,,72,100
119952,note_on,,,,,4,0,8,,,,,0,,,74,60
119996,note_off,,,,,44,0,8,,,,,0,,,74,100
120000,note_on,,,,,64,0,12,,,,,4,,,55,60
120000,note_on,,,,,4,0,8,,,,,0,,,70,60
120064,note_off,,,,,256,0,11,,,,,3,,,74,100
120064,note_off,,,,,256,0,10,,,,,2,,,74,100
120128,note_off,,,,,128,0,8,,,,,0,,,70,100
120128,note_off,,,,,128,0,12,,,,,4,,,55,100
120192,note_on,,,,,64,0,8,,,,,0,,,79,60
120320,note_off,,,,,128,0,8,,,,,0,,,79,100
120320,end_of_track,,,,,0,1,8,,,,,,,,,
120384,note_on,,,,,320,0,10,,,,,2,,,79,110
120384,note_on,,,,,0,0,10,,,,,2,,,70,110
120384,note_on,,,,,3328,0,13,,,,,5,,,46,100
120384,note_on,,,,,256,0,12,,,,,4,,,62,100
120384,note_on,,,,,3328,0,15,,,,,7,,,65,100
120384,note_on,,,,,0,0,15,,,,,7,,,62,100
120384,note_on,,,,,320,0,11,,,,,3,,,79,50
120384,note_on,,,,,3328,0,16,,,,,7,,,46,100
120384,note_on,,,,,3328,0,14,,,,,6,,,34,100
120512,note_off,,,,,128,0,11,,,,,3,,,79,100
120512,note_off,,,,,128,0,14,,,,,6,,,34,100
120512,note_off,,,,,128,0,16,,,,,7,,,46,100
120512,note_off,,,,,128,0,12,,,,,4,,,62,100
120512,note_off,,,,,128,0,10,,,,,2,,,79,100
120512,note_off,,,,,0,0,10,,,,,2,,,70,100
120512,note_off,,,,,128,0,13,,,,,5,,,46,100
120512,note_off,,,,,0,0,15,,,,,7,,,62,100
120512,note_off,,,,,128,0,15,,,,,7,,,65,100
120576,note_on,,,,,64,0,11,,,,,3,,,69,50
120576,note_on,,,,,64,0,14,,,,,6,,,36,100
120576,note_on,,,,,0,0,12,,,,,4,,,69,100
120576,note_on,,,,,0,0,15,,,,,7,,,63,100
120576,note_on,,,,,0,0,15,,,,,7,,,67,100
120576,note_on,,,,,64,0,12,,,,,4,,,63,100
120576,note_on,,,,,64,0,13,,,,,5,,,48,100
120576,note_on,,,,,64,0,15,,,,,7,,,69,100
120576,note_on,,,,,64,0,16,,,,,7,,,48,100
120576,note_on,,,,,64,0,10,,,,,2,,,69,110
120704,note_off,,,,,128,0,10,,,,,2,,,69,100
120704,note_off,,,,,128,0,11,,,,,3,,,69,100
120768,note_on,,,,,64,0,10,,,,,2,,,79,110
120768,note_on,,,,,64,0,11,,,,,3,,,79,50
120832,note_off,,,,,0,0,12,,,,,4,,,69,100
120832,note_off,,,,,256,0,12,,,,,4,,,63,100
120832,note_off,,,,,256,0,14,,,,,6,,,36,100
120832,note_off,,,,,0,0,15,,,,,7,,,63,100
120832,note_off,,,,,0,0,15,,,,,7,,,67,100
120832,note_off,,,,,256,0,15,,,,,7,,,69,100
120832,note_off,,,,,256,0,13,,,,,5,,,48,100
120832,note_off,,,,,256,0,16,,,,,7,,,48,100
120896,note_off,,,,,128,0,11,,,,,3,,,79,100
120896,note_off,,,,,128,0,10,,,,,2,,,79,100
120960,note_on,,,,,128,0,16,,,,,7,,,50,100
120960,note_on,,,,,64,0,11,,,,,3,,,62,50
120960,note_on,,,,,128,0,13,,,,,5,,,50,100
120960,note_on,,,,,128,0,14,,,,,6,,,38,100
120960,note_on,,,,,128,0,12,,,,,4,,,62,100
120960,note_on,,,,,0,0,12,,,,,4,,,69,100
120960,note_on,,,,,0,0,15,,,,,7,,,69,100
120960,note_on,,,,,128,0,15,,,,,7,,,66,100
120960,note_on,,,,,64,0,10,,,,,2,,,62,110
121088,note_off,,,,,128,0,10,,,,,2,,,62,100
121088,note_off,,,,,128,0,11,,,,,3,,,62,100
121152,note_on,,,,,64,0,10,,,,,2,,,78,110
121152,note_on,,,,,64,0,11,,,,,3,,,78,50
121216,note_off,,,,,0,0,12,,,,,4,,,69,100
121216,note_off,,,,,0,0,15,,,,,7,,,69,100
121216,note_off,,,,,256,0,14,,,,,6,,,38,100
121216,note_off,,,,,256,0,16,,,,,7,,,50,100
121216,note_off,,,,,256,0,15,,,,,7,,,66,100
121216,note_off,,,,,256,0,13,,,,,5,,,50,100
121216,note_off,,,,,256,0,12,,,,,4,,,62,100
121280,note_off,,,,,128,0,10,,,,,2,,,78,100
121280,note_off,,,,,128,0,11,,,,,3,,,78,100
121344,note_on,,,,,0,0,12,,,,,4,,,70,100
121344,note_on,,,,,128,0,12,,,,,4,,,62,100
121344,note_on,,,,,128,0,14,,,,,6,,,43,100
121344,note_on,,,,,128,0,13,,,,,5,,,43,100
121344,note_on,,,,,64,0,11,,,,,3,,,79,50
121344,note_on,,,,,128,0,16,,,,,7,,,43,100
121344,note_on,,,,,64,0,10,,,,,2,,,79,110
121344,note_on,,,,,128,0,15,,,,,7,,,67,100
121344,note_on,,,,,0,0,15,,,,,7,,,58,100
121344,note_on,,,,,0,0,15,,,,,7,,,62,100
121600,note_off,,,,,256,0,13,,,,,5,,,43,100
121600,note_off,,,,,0,0,12,,,,,4,,,70,100
121600,note_off,,,,,256,0,12,,,,,4,,,62,100
121600,note_off,,,,,256,0,10,,,,,2,,,79,100
121600,note_off,,,,,256,0,15,,,,,7,,,67,100
121600,note_off,,,,,0,0,15,,,,,7,,,58,100
121600,note_off,,,,,0,0,15,,,,,7,,,62,100
121600,note_off,,,,,256,0,16,,,,,7,,,43,100
121600,note_off,,,,,256,0,11,,,,,3,,,79,100
121600,note_off,,,,,256,0,14,,,,,6,,,43,100
121728,note_on,,,,,14848,0,9,,,,,1,,,86,60
121856,note_off,,,,,128,0,9,,,,,1,,,86,100
121920,note_on,,,,,64,0,9,,,,,1,,,77,60
121920,note_on,,,,,320,0,12,,,,,4,,,71,50
121920,note_on,,,,,320,0,11,,,,,3,,,79,0
121920,note_on,,,,,320,0,10,,,,,2,,,79,50
122048,note_off,,,,,128,0,10,,,,,2,,,79,100
122048,note_off,,,,,128,0,9,,,,,1,,,77,100
122048,note_off,,,,,128,0,12,,,,,4,,,71,100
122048,note_off,,,,,128,0,11,,,,,3,,,79,100
122112,note_on,,,,,64,0,10,,,,,2,,,79,50
122112,note_on,,,,,64,0,9,,,,,1,,,77,60
122112,note_on,,,,,64,0,11,,,,,3,,,79,0
122112,note_on,,,,,64,0,12,,,,,4,,,72,50
122156,note_off,,,,,44,0,9,,,,,1,,,77,100
122160,note_on,,,,,4,0,9,,,,,1,,,79,60
122204,note_off,,,,,44,0,9,,,,,1,,,79,100
122208,note_on,,,,,4,0,9,,,,,1,,,77,60
122240,note_off,,,,,128,0,12,,,,,4,,,72,100
122252,note_off,,,,,44,0,9,,,,,1,,,77,100
122256,note_on,,,,,4,0,9,,,,,1,,,79,60
122300,note_off,,,,,44,0,9,,,,,1,,,79,100
122304,note_on,,,,,64,0,12,,,,,4,,,60,50
122304,note_on,,,,,4,0,9,,,,,1,,,76,60
122368,note_off,,,,,256,0,11,,,,,3,,,79,100
122368,note_off,,,,,256,0,10,,,,,2,,,79,100
122432,note_off,,,,,128,0,9,,,,,1,,,76,100
122432,note_off,,,,,128,0,12,,,,,4,,,60,100
122496,note_on,,,,,64,0,9,,,,,1,,,84,60
122624,note_off,,,,,128,0,9,,,,,1,,,84,100
122688,note_on,,,,,64,0,9,,,,,1,,,75,60
122688,note_on,,,,,256,0,12,,,,,4,,,69,50
122688,note_on,,,,,320,0,10,,,,,2,,,77,50
122688,note_on,,,,,320,0,11,,,,,3,,,77,0
122816,note_off,,,,,128,0,9,,,,,1,,,75,100
122816,note_off,,,,,128,0,12,,,,,4,,,69,100
122816,note_off,,,,,128,0,10,,,,,2,,,77,100
122816,note_off,,,,,128,0,11,,,,,3,,,77,100
122880,note_on,,,,,64,0,10,,,,,2,,,77,50
122880,note_on,,,,,64,0,12,,,,,4,,,70,50
122880,note_on,,,,,64,0,11,,,,,3,,,77,0
122880,note_on,,,,,64,0,9,,,,,1,,,75,60
122924,note_off,,,,,44,0,9,,,,,1,,,75,100
122928,note_on,,,,,4,0,9,,,,,1,,,77,60
122972,note_off,,,,,44,0,9,,,,,1,,,77,100
122976,note_on,,,,,4,0,9,,,,,1,,,75,60
123008,note_off,,,,,128,0,12,,,,,4,,,70,100
123020,note_off,,,,,44,0,9,,,,,1,,,75,100
123024,note_on,,,,,4,0,9,,,,,1,,,77,60
123068,note_off,,,,,44,0,9,,,,,1,,,77,100
123072,note_on,,,,,4,0,9,,,,,1,,,74,60
123072,note_on,,,,,64,0,12,,,,,4,,,58,50
123136,note_off,,,,,256,0,11,,,,,3,,,77,100
123136,note_off,,,,,256,0,10,,,,,2,,,77,100
123200,note_off,,,,,128,0,9,,,,,1,,,74,100
123200,note_off,,,,,128,0,12,,,,,4,,,58,100
123264,note_on,,,,,64,0,9,,,,,1,,,82,60
123392,note_off,,,,,128,0,9,,,,,1,,,82,100
123456,note_on,,,,,320,0,10,,,,,2,,,75,50
123456,note_on,,,,,64,0,9,,,,,1,,,74,60
123456,note_on,,,,,256,0,12,,,,,4,,,67,50
123456,note_on,,,,,320,0,11,,,,,3,,,75,0
123584,note_off,,,,,128,0,10,,,,,2,,,75,100
123584,note_off,,,,,128,0,11,,,,,3,,,75,100
123584,note_off,,,,,128,0,12,,,,,4,,,67,100
123584,note_off,,,,,128,0,9,,,,,1,,,74,100
123648,note_on,,,,,64,0,11,,,,,3,,,75,0
123648,note_on,,,,,64,0,12,,,,,4,,,69,50
123648,note_on,,,,,64,0,9,,,,,1,,,74,60
123648,note_on,,,,,64,0,10,,,,,2,,,75,50
123692,note_off,,,,,44,0,9,,,,,1,,,74,100
123696,note_on,,,,,4,0,9,,,,,1,,,75,60
123740,note_off,,,,,44,0,9,,,,,1,,,75,100
123744,note_on,,,,,4,0,9,,,,,1,,,74,60
123776,note_off,,,,,128,0,12,,,,,4,,,69,100
123788,note_off,,,,,44,0,9,,,,,1,,,74,100
123792,note_on,,,,,4,0,9,,,,,1,,,75,60
123836,note_off,,,,,44,0,9,,,,,1,,,75,100
123840,note_on,,,,,4,0,9,,,,,1,,,72,60
123840,note_on,,,,,64,0,12,,,,,4,,,57,50
123904,note_off,,,,,256,0,11,,,,,3,,,75,100
123904,note_off,,,,,256,0,10,,,,,2,,,75,100
123968,note_off,,,,,128,0,12,,,,,4,,,57,100
123968,note_off,,,,,128,0,9,,,,,1,,,72,100
124032,note_on,,,,,64,0,9,,,,,1,,,81,60
124160,note_off,,,,,128,0,9,,,,,1,,,81,100
124224,note_on,,,,,320,0,10,,,,,2,,,74,50
124224,note_on,,,,,256,0,12,,,,,4,,,66,50
124224,note_on,,,,,64,0,9,,,,,1,,,72,60
124224,note_on,,,,,320,0,11,,,,,3,,,74,0
124352,note_off,,,,,128,0,9,,,,,1,,,72,100
124352,note_off,,,,,128,0,10,,,,,2,,,74,100
124352,note_off,,,,,128,0,12,,,,,4,,,66,100
124352,note_off,,,,,128,0,11,,,,,3,,,74,100
124416,note_on,,,,,64,0,12,,,,,4,,,67,50
124416,note_on,,,,,64,0,11,,,,,3,,,74,0
124416,note_on,,,,,64,0,9,,,,,1,,,72,60
124416,note_on,,,,,64,0,10,,,,,2,,,74,50
124460,note_off,,,,,44,0,9,,,,,1,,,72,100
124464,note_on,,,,,4,0,9,,,,,1,,,74,60
124508,note_off,,,,,44,0,9,,,,,1,,,74,100
124512,note_on,,,,,4,0,9,,,,,1,,,72,60
124544,note_off,,,,,128,0,12,,,,,4,,,67,100
124556,note_off,,,,,44,0,9,,,,,1,,,72,100
124560,note_on,,,,,4,0,9,,,,,1,,,74,60
124604,note_off,,,,,44,0,9,,,,,1,,,74,100
124608,note_on,,,,,64,0,12,,,,,4,,,55,50
124608,note_on,,,,,4,0,9,,,,,1,,,70,60
124672,note_off,,,,,256,0,11,,,,,3,,,74,100
124672,note_off,,,,,256,0,10,,,,,2,,,74,100
124736,note_off,,,,,128,0,12,,,,,4,,,55,100
124736,note_off,,,,,128,0,9,,,,,1,,,70,100
124800,set_tempo,,,,,104832,1,0,,500000,,,,,,,
124800,note_on,,,,,64,0,9,,,,,1,,,79,60
124804,program_change,,,,,4,0,9,,,,,1,48,,,
124836,set_tempo,,,,,36,1,0,,504201,,,,,,,
124876,set_tempo,,,,,40,1,0,,508474,,,,,,,
124912,set_tempo,,,,,36,1,0,,512820,,,,,,,
124928,end_of_track,,,,,0,1,9,,,,,,,,,
124928,note_off,,,,,124,0,9,,,,,1,,,79,100
124952,set_tempo,,,,,40,1,0,,517241,,,,,,,
124992,note_on,,,,,3392,0,14,,,,,6,,,34,100
124992,note_on,,,,,256,0,12,,,,,4,,,62,100
124992,set_tempo,,,,,40,1,0,,500000,,,,,,,
124992,note_on,,,,,0,0,15,,,,,7,,,62,100
124992,note_on,,,,,3392,0,16,,,,,7,,,46,100
124992,note_on,,,,,3392,0,15,,,,,7,,,65,100
124992,note_on,,,,,3392,0,13,,,,,5,,,46,100
124992,note_on,,,,,0,0,11,,,,,3,,,70,110
124992,note_on,,,,,320,0,10,,,,,2,,,79,50
124992,note_on,,,,,320,0,11,,,,,3,,,79,110
125024,set_tempo,,,,,32,1,0,,504201,,,,,,,
125056,set_tempo,,,,,32,1,0,,508474,,,,,,,
125092,set_tempo,,,,,36,1,0,,512820,,,,,,,
125120,note_off,,,,,128,0,13,,,,,5,,,46,100
125120,note_off,,,,,0,0,11,,,,,3,,,70,100
125120,note_off,,,,,128,0,14,,,,,6,,,34,100
125120,note_off,,,,,128,0,10,,,,,2,,,79,100
125120,note_off,,,,,128,0,11,,,,,3,,,79,100
125120,note_off,,,,,128,0,12,,,,,4,,,62,100
125120,note_off,,,,,128,0,16,,,,,7,,,46,100
125120,note_off,,,,,128,0,15,,,,,7,,,65,100
125120,note_off,,,,,0,0,15,,,,,7,,,62,100
125124,set_tempo,,,,,32,1,0,,517241,,,,,,,
125160,set_tempo,,,,,36,1,0,,521739,,,,,,,
125184,note_on,,,,,64,0,12,,,,,4,,,63,100
125184,note_on,,,,,0,0,12,,,,,4,,,69,100
125184,note_on,,,,,64,0,16,,,,,7,,,48,100
125184,note_on,,,,,0,0,15,,,,,7,,,63,100
125184,note_on,,,,,64,0,13,,,,,5,,,48,100
125184,note_on,,,,,0,0,15,,,,,7,,,67,100
125184,note_on,,,,,64,0,15,,,,,7,,,69,100
125184,note_on,,,,,64,0,10,,,,,2,,,69,50
125184,note_on,,,,,64,0,14,,,,,6,,,36,100
125184,note_on,,,,,64,0,11,,,,,3,,,69,110
125192,set_tempo,,,,,32,1,0,,526315,,,,,,,
125224,set_tempo,,,,,32,1,0,,530973,,,,,,,
125260,set_tempo,,,,,36,1,0,,535714,,,,,,,
125292,set_tempo,,,,,32,1,0,,540540,,,,,,,
125312,note_off,,,,,128,0,10,,,,,2,,,69,100
125312,note_off,,,,,128,0,11,,,,,3,,,69,100
125328,set_tempo,,,,,36,1,0,,545454,,,,,,,
125360,set_tempo,,,,,32,1,0,,550458,,,,,,,
125376,note_on,,,,,64,0,10,,,,,2,,,79,50
125376,note_on,,,,,64,0,11,,,,,3,,,79,110
125392,set_tempo,,,,,32,1,0,,555555,,,,,,,
125428,set_tempo,,,,,36,1,0,,560747,,,,,,,
125440,note_off,,,,,256,0,14,,,,,6,,,36,100
125440,note_off,,,,,256,0,12,,,,,4,,,63,100
125440,note_off,,,,,0,0,12,,,,,4,,,69,100
125440,note_off,,,,,256,0,16,,,,,7,,,48,100
125440,note_off,,,,,0,0,15,,,,,7,,,63,100
125440,note_off,,,,,0,0,15,,,,,7,,,67,100
125440,note_off,,,,,256,0,15,,,,,7,,,69,100
125440,note_off,,,,,256,0,13,,,,,5,,,48,100
125460,set_tempo,,,,,32,1,0,,566037,,,,,,,
125496,set_tempo,,,,,36,1,0,,571428,,,,,,,
125504,note_off,,,,,128,0,10,,,,,2,,,79,100
125504,note_off,,,,,128,0,11,,,,,3,,,79,100
125528,set_tempo,,,,,32,1,0,,576923,,,,,,,
125560,set_tempo,,,,,32,1,0,,582524,,,,,,,
125568,note_on,,,,,64,0,10,,,,,2,,,62,50
125568,note_on,,,,,64,0,11,,,,,3,,,62,110
125568,note_on,,,,,128,0,12,,,,,4,,,62,100
125568,note_on,,,,,0,0,12,,,,,4,,,69,100
125568,note_on,,,,,0,0,15,,,,,7,,,69,100
125568,note_on,,,,,128,0,15,,,,,7,,,66,100
125568,note_on,,,,,128,0,14,,,,,6,,,38,100
125568,note_on,,,,,128,0,13,,,,,5,,,50,100
125568,note_on,,,,,128,0,16,,,,,7,,,50,100
125596,set_tempo,,,,,36,1,0,,588235,,,,,,,
125628,set_tempo,,,,,32,1,0,,594059,,,,,,,
125664,set_tempo,,,,,36,1,0,,600000,,,,,,,
125696,set_tempo,,,,,32,1,0,,606060,,,,,,,
125696,note_off,,,,,128,0,11,,,,,3,,,62,100
125696,note_off,,,,,128,0,10,,,,,2,,,62,100
125728,set_tempo,,,,,32,1,0,,612244,,,,,,,
125760,note_on,,,,,64,0,11,,,,,3,,,78,110
125760,note_on,,,,,64,0,10,,,,,2,,,78,50
125764,set_tempo,,,,,36,1,0,,618556,,,,,,,
125796,set_tempo,,,,,32,1,0,,625000,,,,,,,
125824,note_off,,,,,256,0,15,,,,,7,,,66,100
125824,note_off,,,,,0,0,15,,,,,7,,,69,100
125824,note_off,,,,,0,0,12,,,,,4,,,69,100
125824,note_off,,,,,256,0,12,,,,,4,,,62,100
125824,note_off,,,,,256,0,13,,,,,5,,,50,100
125824,note_off,,,,,256,0,16,,,,,7,,,50,100
125824,note_off,,,,,256,0,14,,,,,6,,,38,100
125832,set_tempo,,,,,36,1,0,,631578,,,,,,,
125864,set_tempo,,,,,32,1,0,,638297,,,,,,,
125888,note_off,,,,,128,0,11,,,,,3,,,78,100
125888,note_off,,,,,128,0,10,,,,,2,,,78,100
125896,set_tempo,,,,,32,1,0,,645161,,,,,,,
125932,set_tempo,,,,,36,1,0,,652173,,,,,,,
125952,note_on,,,,,64,0,10,,,,,2,,,79,50
125952,note_on,,,,,128,0,14,,,,,6,,,31,100
125952,note_on,,,,,64,0,11,,,,,3,,,79,110
125952,note_on,,,,,128,0,13,,,,,5,,,43,100
125952,note_on,,,,,0,0,15,,,,,7,,,67,100
125952,note_on,,,,,0,0,12,,,,,4,,,62,100
125952,note_on,,,,,0,0,15,,,,,7,,,62,100
125952,note_on,,,,,128,0,15,,,,,7,,,58,100
125952,set_tempo,,,,,20,1,0,,517241,,,,,,,
125952,note_on,,,,,128,0,12,,,,,4,,,70,100
125952,note_on,,,,,128,0,16,,,,,7,,,43,100
125964,set_tempo,,,,,12,1,0,,659340,,,,,,,
126000,set_tempo,,,,,36,1,0,,666666,,,,,,,
126032,set_tempo,,,,,32,1,0,,674157,,,,,,,
126064,set_tempo,,,,,32,1,0,,681818,,,,,,,
126100,set_tempo,,,,,36,1,0,,689655,,,,,,,
126132,set_tempo,,,,,32,1,0,,697674,,,,,,,
126168,set_tempo,,,,,36,1,0,,705882,,,,,,,
126200,set_tempo,,,,,32,1,0,,714285,,,,,,,
126232,set_tempo,,,,,32,1,0,,722891,,,,,,,
126268,set_tempo,,,,,36,1,0,,731707,,,,,,,
126300,set_tempo,,,,,32,1,0,,740740,,,,,,,
126336,set_tempo,,,,,36,1,0,,750000,,,,,,,
126336,end_of_track,,,,,0,1,0,,,,,,,,,
126980,note_off,,,,,0,0,12,,,,,4,,,62,100
126980,note_off,,,,,0,0,15,,,,,7,,,67,100
126980,note_off,,,,,1028,0,12,,,,,4,,,70,100
126980,note_off,,,,,1028,0,13,,,,,5,,,43,100
126980,end_of_track,,,,,0,1,13,,,,,,,,,
126980,note_off,,,,,1028,0,16,,,,,7,,,43,100
126980,end_of_track,,,,,0,1,11,,,,,,,,,
126980,note_off,,,,,1028,0,11,,,,,3,,,79,100
126980,end_of_track,,,,,0,1,15,,,,,,,,,
126980,note_off,,,,,1028,0,14,,,,,6,,,31,100
126980,note_off,,,,,1028,0,10,,,,,2,,,79,100
126980,end_of_track,,,,,0,1,12,,,,,,,,,
126980,note_off,,,,,1028,0,15,,,,,7,,,58,100
126980,note_off,,,,,0,0,15,,,,,7,,,62,100
126980,end_of_track,,,,,0,1,14,,,,,,,,,
126980,end_of_track,,,,,0,1,16,,,,,,,,,
128640,end_of_track,,,,,0,1,10,,,,,,,,,
128640,program_change,,,,,1660,0,10,,,,,2,48,,,
