tick,type,numerator,denominator,clocks_per_click,notated_32nd_notes_per_beat,time,meta,track,data,tempo,control,value,channel,program,key,note,velocity
0,time_signature,12,8,96,8,0,1,0,,,,,,,,,
0,program_change,,,,,0,0,6,,,,,0,40,,,
0,control_change,,,,,0,0,6,,,7,100,0,,,,
0,control_change,,,,,0,0,6,,,10,59,0,,,,
0,control_change,,,,,0,0,6,,,91,64,0,,,,
0,key_signature,,,,,0,1,6,,,,,,,F,,
0,end_of_track,,,,,0,1,6,,,,,,,,,
0,track_name,,,,,0,1,7,,,,,,,,,
0,control_change,,,,,0,0,7,,,0,0,0,,,,
0,program_change,,,,,0,0,7,,,,,0,40,,,
0,control_change,,,,,0,0,7,,,7,100,0,,,,
0,control_change,,,,,0,0,7,,,10,59,0,,,,
0,control_change,,,,,0,0,6,,,0,0,0,,,,
0,control_change,,,,,0,0,7,,,91,64,0,,,,
0,end_of_track,,,,,0,1,7,,,,,,,,,
0,track_name,,,,,0,1,8,,,,,,,,,
0,control_change,,,,,0,0,8,,,0,0,0,,,,
0,program_change,,,,,0,0,8,,,,,0,40,,,
0,control_change,,,,,0,0,8,,,7,100,0,,,,
0,control_change,,,,,0,0,8,,,10,59,0,,,,
0,control_change,,,,,0,0,8,,,91,64,0,,,,
0,key_signature,,,,,0,1,8,,,,,,,Dm,,
0,note_on,,,,,0,0,16,,,,,7,,,55,100
0,key_signature,,,,,0,1,16,,,,,,,F,,
0,control_change,,,,,0,0,16,,,91,64,7,,,,
0,key_signature,,,,,0,1,7,,,,,,,F,,
0,control_change,,,,,0,0,16,,,7,55,7,,,,
0,track_name,,,,,0,1,6,,,,,,,,,
0,key_signature,,,,,0,1,5,,,,,,,F,,
0,track_name,,,,,0,1,2,,,,,,,,,
0,end_of_track,,,,,0,1,2,,,,,,,,,
0,track_name,,,,,0,1,3,,,,,,,,,
0,control_change,,,,,0,0,3,,,0,0,0,,,,
0,control_change,,,,,0,0,3,,,7,100,0,,,,
0,control_change,,,,,0,0,3,,,10,59,0,,,,
0,control_change,,,,,0,0,3,,,91,64,0,,,,
0,program_change,,,,,0,0,3,,,,,0,40,,,
0,key_signature,,,,,0,1,3,,,,,,,F,,
0,end_of_track,,,,,0,1,3,,,,,,,,,
0,track_name,,,,,0,1,4,,,,,,,,,
0,end_of_track,,,,,0,1,5,,,,,,,,,
0,control_change,,,,,0,0,4,,,0,0,0,,,,
0,control_change,,,,,0,0,4,,,7,100,0,,,,
0,control_change,,,,,0,0,4,,,10,59,0,,,,
0,control_change,,,,,0,0,4,,,91,64,0,,,,
0,key_signature,,,,,0,1,4,,,,,,,F,,
0,end_of_track,,,,,0,1,4,,,,,,,,,
0,track_name,,,,,0,1,5,,,,,,,,,
0,control_change,,,,,0,0,5,,,0,0,0,,,,
0,program_change,,,,,0,0,5,,,,,0,40,,,
0,control_change,,,,,0,0,5,,,7,100,0,,,,
0,control_change,,,,,0,0,5,,,10,59,0,,,,
0,control_change,,,,,0,0,5,,,91,64,0,,,,
0,program_change,,,,,0,0,4,,,,,0,40,,,
0,program_change,,,,,0,0,16,,,,,7,6,,,
0,control_change,,,,,0,0,16,,,0,0,7,,,,
0,track_name,,,,,0,1,16,,,,,,,,,
0,control_change,,,,,0,0,13,,,0,0,5,,,,
0,track_name,,,,,0,1,13,,,,,,,,,
0,track_name,,,,,0,1,10,,,,,,,,,
0,control_change,,,,,0,0,10,,,0,0,2,,,,
0,program_change,,,,,0,0,10,,,,,2,48,,,
0,control_change,,,,,0,0,10,,,7,100,2,,,,
0,control_change,,,,,0,0,10,,,10,46,2,,,,
0,control_change,,,,,0,0,10,,,91,64,2,,,,
0,key_signature,,,,,0,1,10,,,,,,,F,,
0,note_on,,,,,0,0,10,,,,,2,,,79,95
0,note_on,,,,,0,0,12,,,,,4,,,70,85
0,program_change,,,,,0,0,13,,,,,5,48,,,
0,note_on,,,,,0,0,12,,,,,4,,,62,85
0,control_change,,,,,0,0,12,,,91,64,4,,,,
0,control_change,,,,,0,0,12,,,7,95,4,,,,
0,program_change,,,,,0,0,12,,,,,4,48,,,
0,control_change,,,,,0,0,12,,,0,0,4,,,,
0,track_name,,,,,0,1,12,,,,,,,,,
0,note_on,,,,,0,0,11,,,,,3,,,79,35
0,key_signature,,,,,0,1,11,,,,,,,F,,
0,control_change,,,,,0,0,11,,,91,65,3,,,,
0,control_change,,,,,0,0,11,,,10,29,3,,,,
0,control_change,,,,,0,0,11,,,7,100,3,,,,
0,program_change,,,,,0,0,11,,,,,3,48,,,
0,key_signature,,,,,0,1,12,,,,,,,F,,
0,control_change,,,,,0,0,13,,,7,82,5,,,,
0,control_change,,,,,0,0,13,,,10,83,5,,,,
0,control_change,,,,,0,0,13,,,91,62,5,,,,
0,note_on,,,,,0,0,15,,,,,7,,,74,100
0,note_on,,,,,0,0,15,,,,,7,,,70,100
0,key_signature,,,,,0,1,15,,,,,,,F,,
0,control_change,,,,,0,0,15,,,91,64,7,,,,
0,control_change,,,,,0,0,15,,,7,55,7,,,,
0,program_change,,,,,0,0,15,,,,,7,6,,,
0,control_change,,,,,0,0,15,,,0,0,7,,,,
0,track_name,,,,,0,1,15,,,,,,,,,
0,track_name,,,,,0,1,9,,,,,,,,,
0,control_change,,,,,0,0,9,,,0,0,1,,,,
0,program_change,,,,,0,0,9,,,,,1,40,,,
0,control_change,,,,,0,0,9,,,7,100,1,,,,
0,control_change,,,,,0,0,9,,,10,47,1,,,,
0,control_change,,,,,0,0,11,,,0,0,3,,,,
0,key_signature,,,,,0,1,9,,,,,,,Dm,,
0,note_on,,,,,0,0,14,,,,,6,,,43,85
0,key_signature,,,,,0,1,14,,,,,,,F,,
0,control_change,,,,,0,0,14,,,91,61,6,,,,
0,control_change,,,,,0,0,14,,,10,97,6,,,,
0,control_change,,,,,0,0,14,,,7,77,6,,,,
0,program_change,,,,,0,0,14,,,,,6,48,,,
0,control_change,,,,,0,0,14,,,0,0,6,,,,
0,track_name,,,,,0,1,14,,,,,,,,,
0,note_on,,,,,0,0,13,,,,,5,,,55,85
0,key_signature,,,,,0,1,13,,,,,,,F,,
0,end_of_track,,,,,0,1,1,,,,,,,,,
0,track_name,,,,,0,1,1,,,,,,,,,
0,control_change,,,,,0,0,9,,,91,64,1,,,,
0,track_name,,,,,0,1,11,,,,,,,,,
0,sequencer_specific,,,,,0,1,0,"(0, 0, 65)",,,,,,,,
0,sequencer_specific,,,,,0,1,0,"(0, 0, 119, 14, 1)",,,,,,,,
0,set_tempo,,,,,0,1,0,,333333,,,,,,,
188,note_off,,,,,188,0,11,,,,,3,,,79,100
188,note_off,,,,,188,0,10,,,,,2,,,79,100
192,note_on,,,,,4,0,11,,,,,3,,,77,35
192,note_on,,,,,4,0,10,,,,,2,,,77,95
320,note_off,,,,,128,0,11,,,,,3,,,77,100
320,note_off,,,,,128,0,10,,,,,2,,,77,100
384,note_off,,,,,384,0,16,,,,,7,,,55,100
384,note_on,,,,,64,0,10,,,,,2,,,75,95
384,note_off,,,,,0,0,15,,,,,7,,,74,100
384,note_off,,,,,384,0,15,,,,,7,,,70,100
384,note_off,,,,,0,0,12,,,,,4,,,70,100
384,note_off,,,,,384,0,14,,,,,6,,,43,100
384,note_off,,,,,384,0,12,,,,,4,,,62,100
384,note_off,,,,,384,0,13,,,,,5,,,55,100
384,note_on,,,,,64,0,11,,,,,3,,,75,35
512,note_off,,,,,128,0,10,,,,,2,,,75,100
512,note_off,,,,,128,0,11,,,,,3,,,75,100
576,note_on,,,,,192,0,13,,,,,5,,,54,85
576,note_on,,,,,0,0,12,,,,,4,,,69,85
576,note_on,,,,,192,0,12,,,,,4,,,66,85
576,note_on,,,,,192,0,16,,,,,7,,,54,100
576,note_on,,,,,64,0,10,,,,,2,,,74,95
576,note_on,,,,,192,0,15,,,,,7,,,74,100
576,note_on,,,,,64,0,11,,,,,3,,,74,35
576,note_on,,,,,0,0,15,,,,,7,,,69,100
576,note_on,,,,,192,0,14,,,,,6,,,42,85
832,note_off,,,,,256,0,11,,,,,3,,,74,100
832,note_off,,,,,256,0,10,,,,,2,,,74,100
960,note_off,,,,,384,0,16,,,,,7,,,54,100
960,note_off,,,,,0,0,15,,,,,7,,,69,100
960,note_off,,,,,384,0,13,,,,,5,,,54,100
960,note_on,,,,,128,0,11,,,,,3,,,72,35
960,note_off,,,,,384,0,12,,,,,4,,,66,100
960,note_off,,,,,0,0,12,,,,,4,,,69,100
960,note_off,,,,,384,0,14,,,,,6,,,42,100
960,note_on,,,,,128,0,10,,,,,2,,,72,95
960,note_off,,,,,384,0,15,,,,,7,,,74,100
1088,note_off,,,,,128,0,10,,,,,2,,,72,100
1088,note_off,,,,,128,0,11,,,,,3,,,72,100
1152,note_on,,,,,192,0,14,,,,,6,,,43,85
1152,note_on,,,,,0,0,15,,,,,7,,,74,100
1152,note_on,,,,,192,0,12,,,,,4,,,62,85
1152,note_on,,,,,64,0,11,,,,,3,,,70,35
1152,note_on,,,,,192,0,15,,,,,7,,,70,100
1152,note_on,,,,,0,0,12,,,,,4,,,67,85
1152,note_on,,,,,64,0,10,,,,,2,,,70,95
1152,note_on,,,,,192,0,13,,,,,5,,,55,85
1152,note_on,,,,,192,0,16,,,,,7,,,55,100
1280,note_off,,,,,128,0,10,,,,,2,,,70,100
1280,note_off,,,,,128,0,11,,,,,3,,,70,100
1344,note_on,,,,,64,0,11,,,,,3,,,69,35
1344,note_on,,,,,64,0,10,,,,,2,,,69,95
1472,note_off,,,,,128,0,10,,,,,2,,,69,100
1472,note_off,,,,,128,0,11,,,,,3,,,69,100
1536,note_off,,,,,0,0,15,,,,,7,,,74,100
1536,note_off,,,,,384,0,13,,,,,5,,,55,100
1536,note_off,,,,,384,0,14,,,,,6,,,43,100
1536,note_off,,,,,384,0,15,,,,,7,,,70,100
1536,note_off,,,,,0,0,12,,,,,4,,,67,100
1536,note_on,,,,,64,0,10,,,,,2,,,67,95
1536,note_off,,,,,384,0,16,,,,,7,,,55,100
1536,note_on,,,,,64,0,11,,,,,3,,,67,35
1536,note_off,,,,,384,0,12,,,,,4,,,62,100
1664,note_off,,,,,128,0,11,,,,,3,,,67,100
1664,note_off,,,,,128,0,10,,,,,2,,,67,100
2112,note_on,,,,,576,0,16,,,,,7,,,55,100
2112,note_on,,,,,576,0,15,,,,,7,,,70,100
2112,note_on,,,,,0,0,15,,,,,7,,,74,100
2112,note_on,,,,,448,0,11,,,,,3,,,82,35
2112,note_on,,,,,0,0,12,,,,,4,,,74,85
2112,note_on,,,,,576,0,13,,,,,5,,,55,85
2112,note_on,,,,,576,0,14,,,,,6,,,43,85
2112,note_on,,,,,576,0,12,,,,,4,,,62,85
2112,note_on,,,,,448,0,10,,,,,2,,,82,95
2240,note_off,,,,,128,0,11,,,,,3,,,82,100
2240,note_off,,,,,128,0,10,,,,,2,,,82,100
2240,note_off,,,,,128,0,14,,,,,6,,,43,100
2240,note_off,,,,,0,0,12,,,,,4,,,74,100
2240,note_off,,,,,128,0,15,,,,,7,,,70,100
2240,note_off,,,,,0,0,15,,,,,7,,,74,100
2240,note_off,,,,,128,0,13,,,,,5,,,55,100
2240,note_off,,,,,128,0,12,,,,,4,,,62,100
2240,note_off,,,,,128,0,16,,,,,7,,,55,100
2304,note_on,,,,,64,0,10,,,,,2,,,81,95
2304,note_on,,,,,64,0,13,,,,,5,,,54,85
2304,note_on,,,,,64,0,15,,,,,7,,,69,100
2304,note_on,,,,,64,0,12,,,,,4,,,74,85
2304,note_on,,,,,64,0,11,,,,,3,,,81,35
2304,note_on,,,,,64,0,14,,,,,6,,,42,85
2304,note_on,,,,,64,0,16,,,,,7,,,54,100
2304,note_on,,,,,0,0,15,,,,,7,,,74,100
2304,note_on,,,,,0,0,12,,,,,4,,,66,85
2560,note_off,,,,,256,0,10,,,,,2,,,81,100
2560,note_off,,,,,256,0,11,,,,,3,,,81,100
2688,note_off,,,,,384,0,13,,,,,5,,,54,100
2688,note_off,,,,,384,0,16,,,,,7,,,54,100
2688,note_off,,,,,384,0,12,,,,,4,,,66,100
2688,note_off,,,,,0,0,15,,,,,7,,,74,100
2688,note_on,,,,,128,0,10,,,,,2,,,86,95
2688,note_off,,,,,384,0,14,,,,,6,,,42,100
2688,note_on,,,,,128,0,11,,,,,3,,,86,35
2688,note_off,,,,,384,0,15,,,,,7,,,69,100
2816,note_off,,,,,128,0,11,,,,,3,,,86,100
2816,note_off,,,,,128,0,10,,,,,2,,,86,100
2880,note_on,,,,,64,0,11,,,,,3,,,82,35
2880,note_on,,,,,0,0,15,,,,,7,,,74,100
2880,note_on,,,,,192,0,15,,,,,7,,,70,100
2880,note_on,,,,,192,0,14,,,,,6,,,43,85
2880,note_on,,,,,192,0,16,,,,,7,,,55,100
2880,note_on,,,,,64,0,10,,,,,2,,,82,95
2880,note_on,,,,,192,0,12,,,,,4,,,62,85
2880,note_on,,,,,192,0,13,,,,,5,,,55,85
3068,note_off,,,,,188,0,12,,,,,4,,,74,100
3068,note_off,,,,,188,0,11,,,,,3,,,82,100
3068,note_off,,,,,188,0,10,,,,,2,,,82,100
3072,note_on,,,,,4,0,10,,,,,2,,,81,95
3072,note_on,,,,,4,0,11,,,,,3,,,81,35
3136,note_off,,,,,68,0,12,,,,,4,,,62,100
3136,note_off,,,,,0,0,15,,,,,7,,,74,100
3136,note_off,,,,,256,0,15,,,,,7,,,70,100
3136,note_off,,,,,256,0,14,,,,,6,,,43,100
3136,note_off,,,,,256,0,13,,,,,5,,,55,100
3136,note_off,,,,,256,0,16,,,,,7,,,55,100
3200,note_off,,,,,128,0,10,,,,,2,,,81,100
3200,note_off,,,,,128,0,11,,,,,3,,,81,100
3264,note_on,,,,,0,0,15,,,,,7,,,70,100
3264,note_on,,,,,128,0,15,,,,,7,,,67,100
3264,note_on,,,,,128,0,14,,,,,6,,,37,85
3264,note_on,,,,,0,0,12,,,,,4,,,69,85
3264,note_on,,,,,128,0,12,,,,,4,,,76,85
3264,note_on,,,,,64,0,11,,,,,3,,,79,35
3264,note_on,,,,,128,0,13,,,,,5,,,49,85
3264,note_on,,,,,64,0,10,,,,,2,,,79,95
3264,note_on,,,,,128,0,16,,,,,7,,,49,100
3392,note_off,,,,,128,0,11,,,,,3,,,79,100
3392,note_off,,,,,128,0,15,,,,,7,,,67,100
3392,note_off,,,,,0,0,15,,,,,7,,,70,100
3392,note_off,,,,,128,0,16,,,,,7,,,49,100
3392,note_off,,,,,128,0,10,,,,,2,,,79,100
3392,note_off,,,,,128,0,12,,,,,4,,,76,100
3392,note_off,,,,,0,0,12,,,,,4,,,69,100
3392,note_off,,,,,128,0,13,,,,,5,,,49,100
3392,note_off,,,,,128,0,14,,,,,6,,,37,100
3456,note_on,,,,,64,0,16,,,,,7,,,50,100
3456,note_on,,,,,64,0,10,,,,,2,,,78,95
3456,note_on,,,,,0,0,15,,,,,7,,,69,100
3456,note_on,,,,,64,0,14,,,,,6,,,38,85
3456,note_on,,,,,64,0,13,,,,,5,,,50,85
3456,note_on,,,,,64,0,12,,,,,4,,,69,85
3456,note_on,,,,,64,0,11,,,,,3,,,78,35
3456,note_on,,,,,64,0,15,,,,,7,,,66,100
3584,note_off,,,,,128,0,10,,,,,2,,,78,100
3584,note_off,,,,,128,0,11,,,,,3,,,78,100
3648,note_on,,,,,64,0,10,,,,,2,,,76,95
3648,note_on,,,,,64,0,11,,,,,3,,,76,35
3712,note_off,,,,,256,0,15,,,,,7,,,66,100
3712,note_off,,,,,0,0,15,,,,,7,,,69,100
3712,note_off,,,,,256,0,16,,,,,7,,,50,100
3712,note_off,,,,,256,0,14,,,,,6,,,38,100
3712,note_off,,,,,256,0,13,,,,,5,,,50,100
3776,note_off,,,,,128,0,11,,,,,3,,,76,100
3776,note_off,,,,,128,0,10,,,,,2,,,76,100
3840,note_on,,,,,128,0,14,,,,,6,,,50,85
3840,note_on,,,,,64,0,11,,,,,3,,,74,35
3840,note_on,,,,,128,0,13,,,,,5,,,62,85
3840,note_on,,,,,128,0,16,,,,,7,,,62,100
3840,note_on,,,,,64,0,10,,,,,2,,,74,95
3840,note_off,,,,,384,0,12,,,,,4,,,69,100
3840,note_on,,,,,128,0,15,,,,,7,,,65,100
3840,note_on,,,,,0,0,15,,,,,7,,,69,100
3968,note_off,,,,,128,0,16,,,,,7,,,62,100
3968,note_off,,,,,128,0,14,,,,,6,,,50,100
3968,note_off,,,,,128,0,10,,,,,2,,,74,100
3968,note_off,,,,,0,0,15,,,,,7,,,69,100
3968,note_off,,,,,128,0,15,,,,,7,,,65,100
3968,note_off,,,,,128,0,13,,,,,5,,,62,100
3968,note_off,,,,,128,0,11,,,,,3,,,74,100
4032,note_on,,,,,64,0,14,,,,,6,,,53,85
4032,note_on,,,,,64,0,13,,,,,5,,,65,85
4032,note_on,,,,,64,0,16,,,,,7,,,65,100
4032,note_on,,,,,64,0,15,,,,,7,,,69,100
4032,note_on,,,,,0,0,15,,,,,7,,,72,100
4288,note_off,,,,,256,0,13,,,,,5,,,65,100
4288,note_off,,,,,256,0,16,,,,,7,,,65,100
4288,note_off,,,,,256,0,14,,,,,6,,,53,100
4288,note_off,,,,,256,0,15,,,,,7,,,69,100
4288,note_off,,,,,0,0,15,,,,,7,,,72,100
4416,note_on,,,,,128,0,13,,,,,5,,,59,85
4416,note_on,,,,,128,0,16,,,,,7,,,59,100
4416,note_on,,,,,448,0,11,,,,,3,,,74,35
4416,note_on,,,,,448,0,10,,,,,2,,,74,95
4416,note_on,,,,,128,0,14,,,,,6,,,47,85
4416,note_on,,,,,0,0,15,,,,,7,,,65,100
4416,note_on,,,,,128,0,15,,,,,7,,,62,100
4544,note_off,,,,,128,0,11,,,,,3,,,74,100
4544,note_off,,,,,0,0,15,,,,,7,,,65,100
4544,note_off,,,,,128,0,15,,,,,7,,,62,100
4544,note_off,,,,,128,0,14,,,,,6,,,47,100
4544,note_off,,,,,128,0,13,,,,,5,,,59,100
4544,note_off,,,,,128,0,10,,,,,2,,,74,100
4544,note_off,,,,,128,0,16,,,,,7,,,59,100
4608,note_on,,,,,64,0,10,,,,,2,,,77,95
4608,note_on,,,,,64,0,11,,,,,3,,,77,35
4608,note_on,,,,,0,0,15,,,,,7,,,65,100
4608,note_on,,,,,64,0,16,,,,,7,,,62,100
4608,note_on,,,,,64,0,15,,,,,7,,,69,100
4608,note_on,,,,,64,0,14,,,,,6,,,50,85
4608,note_on,,,,,64,0,13,,,,,5,,,62,85
4864,note_off,,,,,256,0,13,,,,,5,,,62,100
4864,note_off,,,,,256,0,11,,,,,3,,,77,100
4864,note_off,,,,,256,0,14,,,,,6,,,50,100
4864,note_off,,,,,0,0,15,,,,,7,,,65,100
4864,note_off,,,,,256,0,15,,,,,7,,,69,100
4864,note_off,,,,,256,0,16,,,,,7,,,62,100
4864,note_off,,,,,256,0,10,,,,,2,,,77,100
4992,note_on,,,,,128,0,16,,,,,7,,,55,100
4992,note_on,,,,,0,0,15,,,,,7,,,74,100
4992,note_on,,,,,128,0,11,,,,,3,,,71,35
4992,note_on,,,,,128,0,10,,,,,2,,,71,95
4992,note_on,,,,,128,0,14,,,,,6,,,43,85
4992,note_on,,,,,128,0,15,,,,,7,,,71,100
4992,note_on,,,,,128,0,13,,,,,5,,,55,85
5120,note_off,,,,,0,0,15,,,,,7,,,74,100
5120,note_off,,,,,128,0,15,,,,,7,,,71,100
5120,note_off,,,,,128,0,11,,,,,3,,,71,100
5120,note_off,,,,,128,0,10,,,,,2,,,71,100
5120,note_off,,,,,128,0,14,,,,,6,,,43,100
5120,note_off,,,,,128,0,13,,,,,5,,,55,100
5120,note_off,,,,,128,0,16,,,,,7,,,55,100
5184,note_on,,,,,64,0,10,,,,,2,,,74,95
5184,note_on,,,,,64,0,13,,,,,5,,,59,85
5184,note_on,,,,,64,0,16,,,,,7,,,59,100
5184,note_on,,,,,0,0,15,,,,,7,,,74,100
5184,note_on,,,,,64,0,15,,,,,7,,,65,100
5184,note_on,,,,,64,0,14,,,,,6,,,47,85
5184,note_on,,,,,64,0,11,,,,,3,,,74,35
5372,note_off,,,,,188,0,16,,,,,7,,,59,100
5372,note_off,,,,,188,0,14,,,,,6,,,47,100
5372,note_off,,,,,188,0,13,,,,,5,,,59,100
5376,note_on,,,,,4,0,13,,,,,5,,,60,85
5376,note_on,,,,,4,0,14,,,,,6,,,48,85
5376,note_on,,,,,4,0,16,,,,,7,,,60,100
5440,note_off,,,,,256,0,10,,,,,2,,,74,100
5440,note_off,,,,,256,0,11,,,,,3,,,74,100
5504,note_off,,,,,128,0,14,,,,,6,,,48,100
5504,note_off,,,,,128,0,13,,,,,5,,,60,100
5504,note_off,,,,,128,0,16,,,,,7,,,60,100
5568,note_on,,,,,1728,0,12,,,,,4,,,62,85
5568,note_on,,,,,128,0,10,,,,,2,,,65,95
5568,note_off,,,,,384,0,15,,,,,7,,,65,100
5568,note_off,,,,,0,0,15,,,,,7,,,74,100
5568,note_on,,,,,128,0,11,,,,,3,,,65,35
5568,note_on,,,,,64,0,14,,,,,6,,,50,85
5568,note_on,,,,,64,0,16,,,,,7,,,62,100
5568,note_on,,,,,64,0,13,,,,,5,,,62,85
5696,note_off,,,,,128,0,11,,,,,3,,,65,100
5696,note_off,,,,,128,0,14,,,,,6,,,50,100
5696,note_off,,,,,128,0,12,,,,,4,,,62,100
5696,note_off,,,,,128,0,10,,,,,2,,,65,100
5696,note_off,,,,,128,0,16,,,,,7,,,62,100
5696,note_off,,,,,128,0,13,,,,,5,,,62,100
5760,note_on,,,,,64,0,12,,,,,4,,,60,85
5760,note_on,,,,,64,0,14,,,,,6,,,41,85
5760,note_on,,,,,64,0,16,,,,,7,,,53,100
5760,note_on,,,,,0,0,15,,,,,7,,,72,100
5760,note_on,,,,,192,0,15,,,,,7,,,68,100
5760,note_on,,,,,64,0,10,,,,,2,,,80,95
5760,note_on,,,,,64,0,11,,,,,3,,,80,35
5760,note_on,,,,,64,0,13,,,,,5,,,53,85
5948,note_off,,,,,188,0,14,,,,,6,,,41,100
5948,note_off,,,,,188,0,16,,,,,7,,,53,100
5948,note_off,,,,,188,0,13,,,,,5,,,53,100
5952,note_on,,,,,4,0,13,,,,,5,,,55,85
5952,note_on,,,,,4,0,16,,,,,7,,,55,100
5952,note_on,,,,,4,0,14,,,,,6,,,43,85
6016,note_off,,,,,256,0,12,,,,,4,,,60,100
6080,note_off,,,,,128,0,13,,,,,5,,,55,100
6080,note_off,,,,,128,0,16,,,,,7,,,55,100
6080,note_off,,,,,128,0,14,,,,,6,,,43,100
6144,note_on,,,,,64,0,14,,,,,6,,,44,85
6144,note_on,,,,,64,0,16,,,,,7,,,56,100
6144,note_on,,,,,128,0,12,,,,,4,,,72,85
6144,note_off,,,,,384,0,15,,,,,7,,,68,100
6144,note_on,,,,,64,0,13,,,,,5,,,56,85
6144,note_off,,,,,0,0,15,,,,,7,,,72,100
6272,note_off,,,,,128,0,14,,,,,6,,,44,100
6272,note_off,,,,,128,0,16,,,,,7,,,56,100
6272,note_off,,,,,128,0,12,,,,,4,,,72,100
6272,note_off,,,,,512,0,11,,,,,3,,,80,100
6272,note_off,,,,,512,0,10,,,,,2,,,80,100
6272,note_off,,,,,128,0,13,,,,,5,,,56,100
6336,note_on,,,,,64,0,16,,,,,7,,,47,100
6336,note_on,,,,,64,0,13,,,,,5,,,47,85
6336,note_on,,,,,64,0,12,,,,,4,,,74,85
6336,note_on,,,,,0,0,15,,,,,7,,,65,100
6336,note_on,,,,,64,0,14,,,,,6,,,35,85
6336,note_on,,,,,192,0,15,,,,,7,,,68,100
6528,note_on,,,,,256,0,11,,,,,3,,,79,35
6528,note_on,,,,,256,0,10,,,,,2,,,79,95
6592,note_off,,,,,256,0,14,,,,,6,,,35,100
6592,note_off,,,,,256,0,16,,,,,7,,,47,100
6592,note_off,,,,,256,0,13,,,,,5,,,47,100
6656,note_off,,,,,128,0,11,,,,,3,,,79,100
6656,note_off,,,,,128,0,10,,,,,2,,,79,100
6720,note_on,,,,,128,0,14,,,,,6,,,35,85
6720,note_on,,,,,64,0,11,,,,,3,,,77,35
6720,note_on,,,,,128,0,13,,,,,5,,,47,85
6720,note_off,,,,,384,0,12,,,,,4,,,74,100
6720,note_on,,,,,64,0,10,,,,,2,,,77,95
6720,note_on,,,,,128,0,16,,,,,7,,,47,100
6720,note_off,,,,,0,0,15,,,,,7,,,65,100
6720,note_off,,,,,384,0,15,,,,,7,,,68,100
6848,note_off,,,,,128,0,14,,,,,6,,,35,100
6848,note_off,,,,,128,0,13,,,,,5,,,47,100
6848,note_off,,,,,128,0,11,,,,,3,,,77,100
6848,note_off,,,,,128,0,10,,,,,2,,,77,100
6848,note_off,,,,,128,0,16,,,,,7,,,47,100
6912,note_on,,,,,64,0,13,,,,,5,,,48,85
6912,note_on,,,,,64,0,11,,,,,3,,,75,35
6912,note_on,,,,,64,0,14,,,,,6,,,36,85
6912,note_on,,,,,0,0,15,,,,,7,,,67,100
6912,note_on,,,,,192,0,15,,,,,7,,,63,100
6912,note_on,,,,,64,0,10,,,,,2,,,75,95
6912,note_on,,,,,192,0,12,,,,,4,,,67,85
6912,note_on,,,,,64,0,16,,,,,7,,,48,100
7040,note_off,,,,,128,0,10,,,,,2,,,75,100
7040,note_off,,,,,128,0,11,,,,,3,,,75,100
7104,note_on,,,,,64,0,10,,,,,2,,,74,95
7104,note_on,,,,,64,0,11,,,,,3,,,74,35
7168,note_off,,,,,256,0,15,,,,,7,,,63,100
7168,note_off,,,,,256,0,12,,,,,4,,,67,100
7168,note_off,,,,,256,0,14,,,,,6,,,36,100
7168,note_off,,,,,0,0,15,,,,,7,,,67,100
7168,note_off,,,,,256,0,13,,,,,5,,,48,100
7168,note_off,,,,,256,0,16,,,,,7,,,48,100
7232,note_off,,,,,128,0,10,,,,,2,,,74,100
7232,note_off,,,,,128,0,11,,,,,3,,,74,100
7296,note_on,,,,,64,0,10,,,,,2,,,72,95
7296,note_on,,,,,128,0,16,,,,,7,,,53,100
7296,note_on,,,,,128,0,13,,,,,5,,,53,85
7296,note_on,,,,,128,0,14,,,,,6,,,41,85
7296,note_on,,,,,64,0,11,,,,,3,,,72,35
7296,note_on,,,,,128,0,12,,,,,4,,,68,85
7296,note_on,,,,,0,0,15,,,,,7,,,72,100
7296,note_on,,,,,128,0,15,,,,,7,,,69,100
7424,note_off,,,,,128,0,14,,,,,6,,,41,100
7424,note_off,,,,,128,0,10,,,,,2,,,72,100
7424,note_off,,,,,128,0,12,,,,,4,,,68,100
7424,note_off,,,,,128,0,11,,,,,3,,,72,100
7424,note_off,,,,,128,0,15,,,,,7,,,69,100
7424,note_off,,,,,128,0,16,,,,,7,,,53,100
7424,note_off,,,,,128,0,13,,,,,5,,,53,100
7424,note_off,,,,,0,0,15,,,,,7,,,72,100
7488,note_on,,,,,64,0,15,,,,,7,,,72,100
7488,note_on,,,,,64,0,13,,,,,5,,,55,85
7488,note_on,,,,,0,0,15,,,,,7,,,74,100
7488,note_on,,,,,64,0,16,,,,,7,,,55,100
7488,note_on,,,,,64,0,12,,,,,4,,,62,85
7488,note_on,,,,,64,0,14,,,,,6,,,43,85
7488,note_on,,,,,64,0,11,,,,,3,,,55,35
7488,note_on,,,,,64,0,10,,,,,2,,,55,95
7744,note_off,,,,,256,0,11,,,,,3,,,55,100
7744,note_off,,,,,256,0,13,,,,,5,,,55,100
7744,note_off,,,,,256,0,16,,,,,7,,,55,100
7744,note_off,,,,,256,0,10,,,,,2,,,55,100
7744,note_off,,,,,0,0,15,,,,,7,,,74,100
7744,note_off,,,,,256,0,14,,,,,6,,,43,100
7744,note_off,,,,,256,0,12,,,,,4,,,62,100
7744,note_off,,,,,256,0,15,,,,,7,,,72,100
7872,note_on,,,,,128,0,15,,,,,7,,,71,100
7872,note_on,,,,,128,0,14,,,,,6,,,43,85
7872,note_on,,,,,0,0,15,,,,,7,,,62,100
7872,note_on,,,,,128,0,10,,,,,2,,,71,95
7872,note_on,,,,,128,0,11,,,,,3,,,71,35
7872,note_on,,,,,128,0,12,,,,,4,,,67,85
7872,note_on,,,,,128,0,16,,,,,7,,,55,100
7872,note_on,,,,,128,0,13,,,,,5,,,43,85
8000,note_off,,,,,128,0,12,,,,,4,,,67,100
8000,note_off,,,,,128,0,16,,,,,7,,,55,100
8000,note_off,,,,,128,0,13,,,,,5,,,43,100
8000,note_off,,,,,128,0,11,,,,,3,,,71,100
8000,note_off,,,,,128,0,10,,,,,2,,,71,100
8000,note_off,,,,,128,0,15,,,,,7,,,71,100
8000,note_off,,,,,0,0,15,,,,,7,,,62,100
8000,note_off,,,,,128,0,14,,,,,6,,,43,100
8064,note_on,,,,,64,0,11,,,,,3,,,60,35
8064,note_on,,,,,64,0,10,,,,,2,,,60,95
8064,note_on,,,,,64,0,12,,,,,4,,,63,85
8064,note_on,,,,,64,0,14,,,,,6,,,36,85
8064,note_on,,,,,64,0,15,,,,,7,,,67,100
8064,note_on,,,,,64,0,13,,,,,5,,,48,85
8064,note_on,,,,,64,0,16,,,,,7,,,48,100
8064,note_on,,,,,0,0,15,,,,,7,,,63,100
8320,note_off,,,,,256,0,14,,,,,6,,,36,100
8320,note_off,,,,,256,0,13,,,,,5,,,48,100
8320,note_off,,,,,256,0,16,,,,,7,,,48,100
8448,note_off,,,,,0,0,15,,,,,7,,,63,100
8448,note_on,,,,,128,0,14,,,,,6,,,48,85
8448,note_off,,,,,384,0,15,,,,,7,,,67,100
8448,note_off,,,,,384,0,12,,,,,4,,,63,100
8448,note_on,,,,,128,0,13,,,,,5,,,60,85
8448,note_off,,,,,384,0,10,,,,,2,,,60,100
8448,note_on,,,,,128,0,16,,,,,7,,,60,100
8448,note_off,,,,,384,0,11,,,,,3,,,60,100
8576,note_off,,,,,128,0,14,,,,,6,,,48,100
8576,note_off,,,,,128,0,16,,,,,7,,,60,100
8576,note_off,,,,,128,0,13,,,,,5,,,60,100
8640,note_on,,,,,64,0,14,,,,,6,,,51,85
8640,note_on,,,,,64,0,16,,,,,7,,,63,100
8640,note_on,,,,,64,0,13,,,,,5,,,63,85
8686,note_on,,,,,238,0,15,,,,,7,,,67,100
8734,note_on,,,,,48,0,15,,,,,7,,,70,100
8896,note_off,,,,,256,0,14,,,,,6,,,51,100
8896,note_off,,,,,256,0,16,,,,,7,,,63,100
8896,note_off,,,,,256,0,13,,,,,5,,,63,100
9024,note_on,,,,,576,0,10,,,,,2,,,72,95
9024,note_on,,,,,128,0,14,,,,,6,,,45,85
9024,note_on,,,,,576,0,11,,,,,3,,,72,35
9024,note_on,,,,,128,0,16,,,,,7,,,57,100
9024,note_on,,,,,128,0,13,,,,,5,,,57,85
9070,note_off,,,,,336,0,15,,,,,7,,,67,100
9118,note_off,,,,,48,0,15,,,,,7,,,70,100
9152,note_off,,,,,128,0,14,,,,,6,,,45,100
9152,note_off,,,,,128,0,16,,,,,7,,,57,100
9152,note_off,,,,,128,0,11,,,,,3,,,72,100
9152,note_off,,,,,128,0,10,,,,,2,,,72,100
9152,note_off,,,,,128,0,13,,,,,5,,,57,100
9216,note_on,,,,,98,0,15,,,,,7,,,63,100
9216,note_on,,,,,64,0,11,,,,,3,,,75,35
9216,note_on,,,,,64,0,10,,,,,2,,,75,95
9216,note_on,,,,,64,0,14,,,,,6,,,48,85
9216,note_on,,,,,64,0,13,,,,,5,,,60,85
9216,note_on,,,,,0,0,15,,,,,7,,,67,100
9216,note_on,,,,,64,0,16,,,,,7,,,60,100
9472,note_off,,,,,256,0,13,,,,,5,,,60,100
9472,note_off,,,,,256,0,14,,,,,6,,,48,100
9472,note_off,,,,,256,0,16,,,,,7,,,60,100
9472,note_off,,,,,256,0,15,,,,,7,,,63,100
9472,note_off,,,,,256,0,10,,,,,2,,,75,100
9472,note_off,,,,,256,0,11,,,,,3,,,75,100
9472,note_off,,,,,0,0,15,,,,,7,,,67,100
9600,note_on,,,,,128,0,16,,,,,7,,,53,100
9600,note_on,,,,,128,0,10,,,,,2,,,69,95
9600,note_on,,,,,0,0,15,,,,,7,,,72,100
9600,note_on,,,,,128,0,14,,,,,6,,,41,85
9600,note_on,,,,,128,0,13,,,,,5,,,53,85
9600,note_on,,,,,128,0,11,,,,,3,,,69,35
9600,note_on,,,,,128,0,15,,,,,7,,,69,100
9728,note_off,,,,,128,0,10,,,,,2,,,69,100
9728,note_off,,,,,128,0,13,,,,,5,,,53,100
9728,note_off,,,,,128,0,15,,,,,7,,,69,100
9728,note_off,,,,,128,0,16,,,,,7,,,53,100
9728,note_off,,,,,128,0,11,,,,,3,,,69,100
9728,note_off,,,,,128,0,14,,,,,6,,,41,100
9728,note_off,,,,,0,0,15,,,,,7,,,72,100
9792,note_on,,,,,64,0,11,,,,,3,,,72,35
9792,note_on,,,,,0,0,15,,,,,7,,,72,100
9792,note_on,,,,,64,0,13,,,,,5,,,57,85
9792,note_on,,,,,64,0,14,,,,,6,,,45,85
9792,note_on,,,,,64,0,15,,,,,7,,,63,100
9792,note_on,,,,,64,0,16,,,,,7,,,57,100
9792,note_on,,,,,64,0,10,,,,,2,,,72,95
9980,note_off,,,,,188,0,16,,,,,7,,,57,100
9980,note_off,,,,,188,0,14,,,,,6,,,45,100
9980,note_off,,,,,188,0,13,,,,,5,,,57,100
9984,note_on,,,,,4,0,16,,,,,7,,,58,100
9984,note_on,,,,,4,0,13,,,,,5,,,58,85
9984,note_on,,,,,4,0,14,,,,,6,,,46,85
10048,note_off,,,,,256,0,11,,,,,3,,,72,100
10048,note_off,,,,,256,0,10,,,,,2,,,72,100
10112,note_off,,,,,128,0,14,,,,,6,,,46,100
10112,note_off,,,,,128,0,16,,,,,7,,,58,100
10112,note_off,,,,,128,0,13,,,,,5,,,58,100
10176,note_off,,,,,384,0,15,,,,,7,,,63,100
10176,note_on,,,,,128,0,11,,,,,3,,,63,35
10176,note_on,,,,,64,0,14,,,,,6,,,48,85
10176,note_on,,,,,64,0,16,,,,,7,,,60,100
10176,note_on,,,,,1728,0,12,,,,,4,,,60,85
10176,note_on,,,,,64,0,13,,,,,5,,,60,85
10176,note_on,,,,,128,0,10,,,,,2,,,63,95
10176,note_off,,,,,0,0,15,,,,,7,,,72,100
10304,note_off,,,,,128,0,10,,,,,2,,,63,100
10304,note_off,,,,,128,0,12,,,,,4,,,60,100
10304,note_off,,,,,128,0,13,,,,,5,,,60,100
10304,note_off,,,,,128,0,16,,,,,7,,,60,100
10304,note_off,,,,,128,0,11,,,,,3,,,63,100
10304,note_off,,,,,128,0,14,,,,,6,,,48,100
10368,note_on,,,,,64,0,13,,,,,5,,,51,85
10368,note_on,,,,,64,0,16,,,,,7,,,51,100
10368,note_on,,,,,64,0,12,,,,,4,,,58,85
10368,note_on,,,,,64,0,11,,,,,3,,,79,35
10368,note_on,,,,,64,0,10,,,,,2,,,79,95
10368,note_on,,,,,64,0,14,,,,,6,,,39,85
10368,note_on,,,,,0,0,15,,,,,7,,,70,100
10368,note_on,,,,,192,0,15,,,,,7,,,67,100
10556,note_off,,,,,188,0,14,,,,,6,,,39,100
10556,note_off,,,,,188,0,16,,,,,7,,,51,100
10556,note_off,,,,,188,0,13,,,,,5,,,51,100
10560,note_on,,,,,4,0,14,,,,,6,,,41,85
10560,note_on,,,,,4,0,16,,,,,7,,,53,100
10560,note_on,,,,,4,0,13,,,,,5,,,53,85
10624,note_off,,,,,256,0,12,,,,,4,,,58,100
10688,note_off,,,,,128,0,14,,,,,6,,,41,100
10688,note_off,,,,,128,0,16,,,,,7,,,53,100
10688,note_off,,,,,128,0,13,,,,,5,,,53,100
10752,note_on,,,,,64,0,14,,,,,6,,,43,85
10752,note_on,,,,,64,0,16,,,,,7,,,55,100
10752,note_off,,,,,384,0,15,,,,,7,,,67,100
10752,note_on,,,,,128,0,12,,,,,4,,,70,85
10752,note_off,,,,,0,0,15,,,,,7,,,70,100
10752,note_on,,,,,64,0,13,,,,,5,,,55,85
10880,note_off,,,,,128,0,13,,,,,5,,,55,100
10880,note_off,,,,,512,0,10,,,,,2,,,79,100
10880,note_off,,,,,128,0,16,,,,,7,,,55,100
10880,note_off,,,,,512,0,11,,,,,3,,,79,100
10880,note_off,,,,,128,0,12,,,,,4,,,70,100
10880,note_off,,,,,128,0,14,,,,,6,,,43,100
10944,note_on,,,,,64,0,16,,,,,7,,,45,100
10944,note_on,,,,,192,0,15,,,,,7,,,63,100
10944,note_on,,,,,0,0,15,,,,,7,,,67,100
10944,note_on,,,,,64,0,12,,,,,4,,,72,85
10944,note_on,,,,,64,0,13,,,,,5,,,45,85
10944,note_on,,,,,64,0,14,,,,,6,,,33,85
11136,note_on,,,,,256,0,11,,,,,3,,,77,35
11136,note_on,,,,,256,0,10,,,,,2,,,77,95
11200,note_off,,,,,256,0,14,,,,,6,,,33,100
11200,note_off,,,,,256,0,16,,,,,7,,,45,100
11200,note_off,,,,,256,0,13,,,,,5,,,45,100
11264,note_off,,,,,128,0,11,,,,,3,,,77,100
11264,note_off,,,,,128,0,10,,,,,2,,,77,100
11328,note_on,,,,,128,0,13,,,,,5,,,45,85
11328,note_on,,,,,128,0,14,,,,,6,,,33,85
11328,note_on,,,,,64,0,10,,,,,2,,,75,95
11328,note_on,,,,,64,0,11,,,,,3,,,75,35
11328,note_off,,,,,384,0,12,,,,,4,,,72,100
11328,note_on,,,,,128,0,16,,,,,7,,,45,100
11328,note_off,,,,,384,0,15,,,,,7,,,63,100
11328,note_off,,,,,0,0,15,,,,,7,,,67,100
11456,note_off,,,,,128,0,14,,,,,6,,,33,100
11456,note_off,,,,,128,0,13,,,,,5,,,45,100
11456,note_off,,,,,128,0,10,,,,,2,,,75,100
11456,note_off,,,,,128,0,16,,,,,7,,,45,100
11456,note_off,,,,,128,0,11,,,,,3,,,75,100
11520,note_on,,,,,64,0,11,,,,,3,,,74,35
11520,note_on,,,,,0,0,15,,,,,7,,,62,100
11520,note_on,,,,,64,0,10,,,,,2,,,74,95
11520,note_on,,,,,192,0,15,,,,,7,,,65,100
11520,note_on,,,,,64,0,14,,,,,6,,,34,85
11520,note_on,,,,,64,0,13,,,,,5,,,46,85
11520,note_on,,,,,192,0,12,,,,,4,,,65,85
11520,note_on,,,,,64,0,16,,,,,7,,,46,100
11648,note_off,,,,,128,0,11,,,,,3,,,74,100
11648,note_off,,,,,128,0,10,,,,,2,,,74,100
11712,note_on,,,,,64,0,11,,,,,3,,,72,35
11712,note_on,,,,,64,0,10,,,,,2,,,72,95
11776,note_off,,,,,256,0,14,,,,,6,,,34,100
11776,note_off,,,,,256,0,13,,,,,5,,,46,100
11776,note_off,,,,,256,0,15,,,,,7,,,65,100
11776,note_off,,,,,0,0,15,,,,,7,,,62,100
11776,note_off,,,,,256,0,16,,,,,7,,,46,100
11776,note_off,,,,,256,0,12,,,,,4,,,65,100
11840,note_off,,,,,128,0,11,,,,,3,,,72,100
11840,note_off,,,,,128,0,10,,,,,2,,,72,100
11904,note_on,,,,,64,0,11,,,,,3,,,70,35
11904,note_on,,,,,128,0,16,,,,,7,,,51,100
11904,note_on,,,,,0,0,15,,,,,7,,,70,100
11904,note_on,,,,,128,0,13,,,,,5,,,51,85
11904,note_on,,,,,128,0,12,,,,,4,,,67,85
11904,note_on,,,,,128,0,15,,,,,7,,,67,100
11904,note_on,,,,,128,0,14,,,,,6,,,39,85
11904,note_on,,,,,64,0,10,,,,,2,,,70,95
12032,note_off,,,,,0,0,15,,,,,7,,,70,100
12032,note_off,,,,,128,0,10,,,,,2,,,70,100
12032,note_off,,,,,128,0,11,,,,,3,,,70,100
12032,note_off,,,,,128,0,14,,,,,6,,,39,100
12032,note_off,,,,,128,0,15,,,,,7,,,67,100
12032,note_off,,,,,128,0,16,,,,,7,,,51,100
12032,note_off,,,,,128,0,12,,,,,4,,,67,100
12032,note_off,,,,,128,0,13,,,,,5,,,51,100
12096,note_on,,,,,64,0,15,,,,,7,,,70,100
12096,note_on,,,,,0,0,15,,,,,7,,,72,100
12096,note_on,,,,,64,0,14,,,,,6,,,41,85
12096,note_on,,,,,64,0,12,,,,,4,,,60,85
12096,note_on,,,,,64,0,16,,,,,7,,,53,100
12096,note_on,,,,,64,0,10,,,,,2,,,65,95
12096,note_on,,,,,64,0,13,,,,,5,,,53,85
12096,note_on,,,,,64,0,11,,,,,3,,,65,35
12352,note_off,,,,,256,0,12,,,,,4,,,60,100
12352,note_off,,,,,256,0,13,,,,,5,,,53,100
12352,note_off,,,,,256,0,10,,,,,2,,,65,100
12352,note_off,,,,,256,0,14,,,,,6,,,41,100
12352,note_off,,,,,256,0,11,,,,,3,,,65,100
12352,note_off,,,,,0,0,15,,,,,7,,,72,100
12352,note_off,,,,,256,0,15,,,,,7,,,70,100
12352,note_off,,,,,256,0,16,,,,,7,,,53,100
12480,note_on,,,,,128,0,13,,,,,5,,,41,85
12480,note_on,,,,,128,0,12,,,,,4,,,65,85
12480,note_on,,,,,128,0,15,,,,,7,,,60,100
12480,note_on,,,,,128,0,14,,,,,6,,,41,85
12480,note_on,,,,,128,0,10,,,,,2,,,69,95
12480,note_on,,,,,0,0,15,,,,,7,,,69,100
12480,note_on,,,,,128,0,16,,,,,7,,,53,100
12480,note_on,,,,,128,0,11,,,,,3,,,69,35
12608,note_off,,,,,128,0,12,,,,,4,,,65,100
12608,note_off,,,,,128,0,10,,,,,2,,,69,100
12608,note_off,,,,,128,0,13,,,,,5,,,41,100
12608,note_off,,,,,128,0,16,,,,,7,,,53,100
12608,note_off,,,,,128,0,11,,,,,3,,,69,100
12608,note_off,,,,,128,0,15,,,,,7,,,60,100
12608,note_off,,,,,0,0,15,,,,,7,,,69,100
12608,note_off,,,,,128,0,14,,,,,6,,,41,100
12672,note_on,,,,,64,0,11,,,,,3,,,58,35
12672,note_on,,,,,64,0,12,,,,,4,,,62,85
12672,note_on,,,,,64,0,13,,,,,5,,,46,85
12672,note_on,,,,,64,0,10,,,,,2,,,58,95
12672,note_on,,,,,64,0,14,,,,,6,,,34,85
12672,note_on,,,,,0,0,15,,,,,7,,,65,100
12672,note_on,,,,,64,0,15,,,,,7,,,62,100
12672,note_on,,,,,64,0,16,,,,,7,,,46,100
12800,note_off,,,,,128,0,14,,,,,6,,,34,100
12800,note_off,,,,,128,0,16,,,,,7,,,46,100
12800,note_off,,,,,128,0,13,,,,,5,,,46,100
12864,note_on,,,,,64,0,13,,,,,5,,,62,85
12864,note_on,,,,,64,0,14,,,,,6,,,50,85
12864,note_on,,,,,64,0,16,,,,,7,,,62,100
12992,note_off,,,,,128,0,14,,,,,6,,,50,100
12992,note_off,,,,,128,0,16,,,,,7,,,62,100
12992,note_off,,,,,128,0,13,,,,,5,,,62,100
13056,note_off,,,,,384,0,11,,,,,3,,,58,100
13056,note_on,,,,,64,0,14,,,,,6,,,48,85
13056,note_on,,,,,64,0,13,,,,,5,,,60,85
13056,note_on,,,,,64,0,16,,,,,7,,,60,100
13056,note_off,,,,,384,0,10,,,,,2,,,58,100
13056,note_off,,,,,0,0,15,,,,,7,,,65,100
13056,note_off,,,,,384,0,12,,,,,4,,,62,100
13056,note_off,,,,,384,0,15,,,,,7,,,62,100
13184,note_off,,,,,128,0,16,,,,,7,,,60,100
13184,note_off,,,,,128,0,13,,,,,5,,,60,100
13184,note_off,,,,,128,0,14,,,,,6,,,48,100
13248,note_on,,,,,64,0,14,,,,,6,,,46,85
13248,note_on,,,,,64,0,13,,,,,5,,,58,85
13248,note_on,,,,,64,0,16,,,,,7,,,58,100
13294,note_on,,,,,238,0,15,,,,,7,,,65,100
13342,note_on,,,,,48,0,15,,,,,7,,,70,100
13376,note_off,,,,,128,0,16,,,,,7,,,58,100
13376,note_off,,,,,128,0,14,,,,,6,,,46,100
13376,note_off,,,,,128,0,13,,,,,5,,,58,100
13390,note_on,,,,,48,0,15,,,,,7,,,74,100
13440,note_on,,,,,64,0,16,,,,,7,,,54,100
13440,note_on,,,,,384,0,11,,,,,3,,,74,35
13440,note_on,,,,,64,0,14,,,,,6,,,42,85
13440,note_on,,,,,384,0,12,,,,,4,,,69,85
13440,note_on,,,,,64,0,13,,,,,5,,,54,85
13440,note_on,,,,,384,0,10,,,,,2,,,74,95
13568,note_off,,,,,128,0,12,,,,,4,,,69,100
13568,note_off,,,,,128,0,16,,,,,7,,,54,100
13568,note_off,,,,,128,0,10,,,,,2,,,74,100
13568,note_off,,,,,128,0,14,,,,,6,,,42,100
13568,note_off,,,,,128,0,11,,,,,3,,,74,100
13568,note_off,,,,,128,0,13,,,,,5,,,54,100
13632,note_on,,,,,64,0,11,,,,,3,,,72,36
13632,note_on,,,,,64,0,14,,,,,6,,,45,86
13632,note_on,,,,,64,0,12,,,,,4,,,66,86
13632,note_on,,,,,64,0,16,,,,,7,,,57,100
13632,note_on,,,,,64,0,10,,,,,2,,,72,96
13632,note_on,,,,,64,0,13,,,,,5,,,57,86
13678,note_off,,,,,288,0,15,,,,,7,,,65,100
13726,note_off,,,,,48,0,15,,,,,7,,,70,100
13760,note_off,,,,,128,0,14,,,,,6,,,45,100
13760,note_off,,,,,128,0,12,,,,,4,,,66,100
13760,note_off,,,,,128,0,13,,,,,5,,,57,100
13760,note_off,,,,,128,0,11,,,,,3,,,72,100
13760,note_off,,,,,128,0,16,,,,,7,,,57,100
13760,note_off,,,,,128,0,10,,,,,2,,,72,100
13774,note_off,,,,,48,0,15,,,,,7,,,74,100
13824,note_on,,,,,0,0,15,,,,,7,,,70,100
13824,note_on,,,,,64,0,14,,,,,6,,,43,87
13824,note_on,,,,,64,0,11,,,,,3,,,70,37
13824,note_on,,,,,50,0,15,,,,,7,,,74,100
13824,note_on,,,,,64,0,10,,,,,2,,,70,97
13824,note_on,,,,,64,0,12,,,,,4,,,62,87
13824,note_on,,,,,64,0,13,,,,,5,,,55,87
13824,note_on,,,,,64,0,16,,,,,7,,,55,100
14012,note_off,,,,,188,0,10,,,,,2,,,70,100
14012,note_off,,,,,188,0,11,,,,,3,,,70,100
14016,note_on,,,,,4,0,10,,,,,2,,,69,98
14016,note_on,,,,,4,0,11,,,,,3,,,69,38
14080,note_off,,,,,256,0,16,,,,,7,,,55,100
14080,note_off,,,,,256,0,13,,,,,5,,,55,100
14080,note_off,,,,,256,0,14,,,,,6,,,43,100
14204,note_off,,,,,188,0,10,,,,,2,,,69,100
14204,note_off,,,,,188,0,11,,,,,3,,,69,100
14208,note_on,,,,,128,0,14,,,,,6,,,43,89
14208,note_on,,,,,128,0,16,,,,,7,,,43,100
14208,note_on,,,,,128,0,13,,,,,5,,,43,89
14208,note_on,,,,,4,0,10,,,,,2,,,67,99
14208,note_off,,,,,0,0,15,,,,,7,,,70,100
14208,note_off,,,,,384,0,15,,,,,7,,,74,100
14208,note_on,,,,,4,0,11,,,,,3,,,67,39
14336,note_off,,,,,128,0,13,,,,,5,,,43,100
14336,note_off,,,,,128,0,10,,,,,2,,,67,100
14336,note_off,,,,,128,0,11,,,,,3,,,67,100
14336,note_off,,,,,128,0,14,,,,,6,,,43,100
14336,note_off,,,,,128,0,16,,,,,7,,,43,100
14400,note_on,,,,,64,0,10,,,,,2,,,71,100
14400,note_on,,,,,64,0,11,,,,,3,,,71,40
14592,note_on,,,,,256,0,13,,,,,5,,,55,91
14592,note_on,,,,,256,0,14,,,,,6,,,43,91
14592,note_on,,,,,256,0,16,,,,,7,,,55,100
14592,note_off,,,,,768,0,12,,,,,4,,,62,100
14592,note_on,,,,,0,0,15,,,,,7,,,74,100
14592,note_on,,,,,384,0,15,,,,,7,,,71,100
14720,note_off,,,,,128,0,13,,,,,5,,,55,100
14720,note_off,,,,,128,0,14,,,,,6,,,43,100
14720,note_off,,,,,128,0,16,,,,,7,,,55,100
14784,note_on,,,,,64,0,14,,,,,6,,,41,92
14784,note_off,,,,,384,0,10,,,,,2,,,71,100
14784,note_on,,,,,64,0,13,,,,,5,,,53,92
14784,note_off,,,,,384,0,11,,,,,3,,,71,100
14784,note_on,,,,,64,0,16,,,,,7,,,53,100
14848,note_off,,,,,256,0,15,,,,,7,,,71,100
14848,note_off,,,,,0,0,15,,,,,7,,,74,100
14912,note_off,,,,,128,0,13,,,,,5,,,53,100
14912,note_off,,,,,128,0,16,,,,,7,,,53,100
14912,note_off,,,,,128,0,14,,,,,6,,,41,100
14976,note_on,,,,,128,0,15,,,,,7,,,72,100
14976,note_on,,,,,64,0,14,,,,,6,,,39,93
14976,note_on,,,,,64,0,13,,,,,5,,,51,93
14976,note_on,,,,,64,0,16,,,,,7,,,51,100
14976,note_on,,,,,384,0,12,,,,,4,,,67,93
14976,note_on,,,,,0,0,15,,,,,7,,,67,100
14976,note_on,,,,,192,0,11,,,,,3,,,72,43
14976,note_on,,,,,192,0,10,,,,,2,,,72,103
15104,note_off,,,,,128,0,13,,,,,5,,,51,100
15104,note_off,,,,,128,0,14,,,,,6,,,39,100
15104,note_off,,,,,128,0,16,,,,,7,,,51,100
15168,note_on,,,,,64,0,16,,,,,7,,,50,100
15168,note_on,,,,,64,0,14,,,,,6,,,38,94
15168,note_on,,,,,64,0,13,,,,,5,,,50,94
15296,note_off,,,,,128,0,16,,,,,7,,,50,100
15296,note_off,,,,,128,0,14,,,,,6,,,38,100
15296,note_off,,,,,128,0,13,,,,,5,,,50,100
15360,note_off,,,,,0,0,15,,,,,7,,,67,100
15360,note_off,,,,,384,0,11,,,,,3,,,72,100
15360,note_on,,,,,64,0,14,,,,,6,,,36,95
15360,note_on,,,,,64,0,13,,,,,5,,,48,95
15360,note_on,,,,,64,0,16,,,,,7,,,48,100
15360,note_off,,,,,384,0,15,,,,,7,,,72,100
15360,note_off,,,,,384,0,10,,,,,2,,,72,100
15488,note_off,,,,,128,0,16,,,,,7,,,48,100
15488,note_off,,,,,128,0,14,,,,,6,,,36,100
15488,note_off,,,,,128,0,13,,,,,5,,,48,100
15552,note_on,,,,,192,0,15,,,,,7,,,67,100
15552,note_on,,,,,64,0,13,,,,,5,,,52,96
15552,note_on,,,,,192,0,10,,,,,2,,,73,106
15552,note_on,,,,,64,0,16,,,,,7,,,52,100
15552,note_on,,,,,0,0,15,,,,,7,,,73,100
15552,note_on,,,,,192,0,11,,,,,3,,,73,46
15552,note_on,,,,,64,0,14,,,,,6,,,40,96
15744,note_off,,,,,768,0,12,,,,,4,,,67,100
15936,note_off,,,,,0,0,15,,,,,7,,,73,100
15936,note_off,,,,,384,0,15,,,,,7,,,67,100
15936,note_off,,,,,384,0,11,,,,,3,,,73,100
15936,note_off,,,,,384,0,10,,,,,2,,,73,100
15936,note_off,,,,,384,0,13,,,,,5,,,52,100
15936,note_off,,,,,384,0,14,,,,,6,,,40,100
15936,note_off,,,,,384,0,16,,,,,7,,,52,100
16128,note_on,,,,,0,0,15,,,,,7,,,69,100
16128,note_on,,,,,192,0,15,,,,,7,,,74,100
16128,note_on,,,,,192,0,11,,,,,3,,,74,49
16128,note_on,,,,,192,0,10,,,,,2,,,74,109
16128,note_on,,,,,192,0,16,,,,,7,,,54,100
16128,note_on,,,,,192,0,14,,,,,6,,,42,99
16128,note_on,,,,,384,0,12,,,,,4,,,69,99
16128,note_on,,,,,192,0,13,,,,,5,,,54,99
16256,note_off,,,,,128,0,16,,,,,7,,,54,100
16256,note_off,,,,,128,0,14,,,,,6,,,42,100
16256,note_off,,,,,128,0,13,,,,,5,,,54,100
16320,note_on,,,,,64,0,13,,,,,5,,,62,85
16320,note_on,,,,,64,0,14,,,,,6,,,50,85
16320,note_on,,,,,64,0,16,,,,,7,,,62,100
16384,note_off,,,,,0,0,15,,,,,7,,,69,100
16384,note_off,,,,,256,0,15,,,,,7,,,74,100
16384,note_off,,,,,256,0,11,,,,,3,,,74,100
16384,note_off,,,,,256,0,10,,,,,2,,,74,100
16448,note_off,,,,,128,0,16,,,,,7,,,62,100
16448,note_off,,,,,128,0,14,,,,,6,,,50,100
16448,note_off,,,,,128,0,13,,,,,5,,,62,100
16512,note_on,,,,,0,0,15,,,,,7,,,67,100
16512,note_on,,,,,64,0,16,,,,,7,,,60,100
16512,note_on,,,,,128,0,11,,,,,3,,,62,35
16512,note_on,,,,,64,0,13,,,,,5,,,60,85
16512,note_off,,,,,384,0,12,,,,,4,,,69,100
16512,note_on,,,,,128,0,10,,,,,2,,,62,95
16512,note_on,,,,,128,0,15,,,,,7,,,64,100
16512,note_on,,,,,64,0,14,,,,,6,,,48,85
16640,note_off,,,,,128,0,13,,,,,5,,,60,100
16640,note_off,,,,,0,0,15,,,,,7,,,67,100
16640,note_off,,,,,128,0,16,,,,,7,,,60,100
16640,note_off,,,,,128,0,11,,,,,3,,,62,100
16640,note_off,,,,,128,0,14,,,,,6,,,48,100
16640,note_off,,,,,128,0,15,,,,,7,,,64,100
16640,note_off,,,,,128,0,10,,,,,2,,,62,100
16704,note_on,,,,,64,0,14,,,,,6,,,47,85
16704,note_on,,,,,0,0,15,,,,,7,,,74,100
16704,note_on,,,,,64,0,13,,,,,5,,,59,85
16704,note_on,,,,,64,0,16,,,,,7,,,59,100
16704,note_on,,,,,64,0,15,,,,,7,,,67,100
16832,note_off,,,,,128,0,14,,,,,6,,,47,100
16832,note_off,,,,,128,0,16,,,,,7,,,59,100
16832,note_off,,,,,128,0,13,,,,,5,,,59,100
16896,note_on,,,,,64,0,14,,,,,6,,,43,85
16896,note_on,,,,,256,0,10,,,,,2,,,79,95
16896,note_on,,,,,384,0,12,,,,,4,,,71,85
16896,note_on,,,,,64,0,16,,,,,7,,,55,100
16896,note_on,,,,,256,0,11,,,,,3,,,79,35
16896,note_on,,,,,64,0,13,,,,,5,,,55,85
17024,note_off,,,,,128,0,11,,,,,3,,,79,100
17024,note_off,,,,,128,0,14,,,,,6,,,43,100
17024,note_off,,,,,128,0,12,,,,,4,,,71,100
17024,note_off,,,,,128,0,16,,,,,7,,,55,100
17024,note_off,,,,,128,0,10,,,,,2,,,79,100
17024,note_off,,,,,128,0,13,,,,,5,,,55,100
17088,note_on,,,,,64,0,16,,,,,7,,,59,100
17088,note_on,,,,,64,0,12,,,,,4,,,74,85
17088,note_on,,,,,64,0,14,,,,,6,,,47,85
17088,note_on,,,,,64,0,11,,,,,3,,,77,35
17088,note_on,,,,,64,0,13,,,,,5,,,59,85
17088,note_on,,,,,64,0,10,,,,,2,,,77,95
17088,note_off,,,,,0,0,15,,,,,7,,,74,100
17088,note_off,,,,,384,0,15,,,,,7,,,67,100
17216,note_off,,,,,128,0,12,,,,,4,,,74,100
17216,note_off,,,,,128,0,11,,,,,3,,,77,100
17216,note_off,,,,,128,0,13,,,,,5,,,59,100
17216,note_off,,,,,128,0,10,,,,,2,,,77,100
17216,note_off,,,,,128,0,16,,,,,7,,,59,100
17216,note_off,,,,,128,0,14,,,,,6,,,47,100
17280,note_on,,,,,64,0,10,,,,,2,,,75,96
17280,note_on,,,,,64,0,13,,,,,5,,,60,86
17280,note_on,,,,,64,0,12,,,,,4,,,67,86
17280,note_on,,,,,64,0,14,,,,,6,,,48,86
17280,note_on,,,,,64,0,16,,,,,7,,,60,100
17280,note_on,,,,,64,0,11,,,,,3,,,75,36
17280,note_on,,,,,192,0,15,,,,,7,,,75,100
17280,note_on,,,,,0,0,15,,,,,7,,,67,100
17408,note_off,,,,,128,0,11,,,,,3,,,75,100
17408,note_off,,,,,128,0,10,,,,,2,,,75,100
17472,note_on,,,,,64,0,10,,,,,2,,,74,97
17472,note_on,,,,,64,0,11,,,,,3,,,74,37
17536,note_off,,,,,256,0,16,,,,,7,,,60,100
17536,note_off,,,,,256,0,14,,,,,6,,,48,100
17536,note_off,,,,,256,0,13,,,,,5,,,60,100
17600,note_off,,,,,128,0,11,,,,,3,,,74,100
17600,note_off,,,,,128,0,10,,,,,2,,,74,100
17664,note_on,,,,,64,0,10,,,,,2,,,72,98
17664,note_on,,,,,64,0,11,,,,,3,,,72,38
17664,note_on,,,,,128,0,16,,,,,7,,,48,100
17664,note_on,,,,,128,0,13,,,,,5,,,48,88
17664,note_on,,,,,128,0,14,,,,,6,,,36,88
17664,note_off,,,,,384,0,15,,,,,7,,,75,100
17664,note_off,,,,,0,0,15,,,,,7,,,67,100
17792,note_off,,,,,128,0,13,,,,,5,,,48,100
17792,note_off,,,,,128,0,14,,,,,6,,,36,100
17792,note_off,,,,,128,0,10,,,,,2,,,72,100
17792,note_off,,,,,128,0,11,,,,,3,,,72,100
17792,note_off,,,,,128,0,16,,,,,7,,,48,100
17856,note_on,,,,,64,0,11,,,,,3,,,76,39
17856,note_on,,,,,64,0,10,,,,,2,,,76,99
18048,note_on,,,,,256,0,14,,,,,6,,,48,90
18048,note_on,,,,,256,0,16,,,,,7,,,60,100
18048,note_on,,,,,256,0,13,,,,,5,,,60,90
18048,note_off,,,,,768,0,12,,,,,4,,,67,100
18048,note_on,,,,,384,0,15,,,,,7,,,67,100
18048,note_on,,,,,0,0,15,,,,,7,,,76,100
18176,note_off,,,,,128,0,16,,,,,7,,,60,100
18176,note_off,,,,,128,0,14,,,,,6,,,48,100
18176,note_off,,,,,128,0,13,,,,,5,,,60,100
18240,note_on,,,,,64,0,13,,,,,5,,,58,91
18240,note_off,,,,,384,0,10,,,,,2,,,76,100
18240,note_off,,,,,384,0,11,,,,,3,,,76,100
18240,note_on,,,,,64,0,16,,,,,7,,,58,100
18240,note_on,,,,,64,0,14,,,,,6,,,46,91
18304,note_off,,,,,0,0,15,,,,,7,,,76,100
18304,note_off,,,,,256,0,15,,,,,7,,,67,100
18368,note_off,,,,,128,0,14,,,,,6,,,46,100
18368,note_off,,,,,128,0,16,,,,,7,,,58,100
18368,note_off,,,,,128,0,13,,,,,5,,,58,100
18432,note_on,,,,,192,0,10,,,,,2,,,77,102
18432,note_on,,,,,0,0,15,,,,,7,,,72,100
18432,note_on,,,,,128,0,15,,,,,7,,,65,100
18432,note_on,,,,,192,0,11,,,,,3,,,77,42
18432,note_on,,,,,64,0,16,,,,,7,,,56,100
18432,note_on,,,,,64,0,14,,,,,6,,,44,92
18432,note_on,,,,,384,0,12,,,,,4,,,60,92
18432,note_on,,,,,64,0,13,,,,,5,,,56,92
18560,note_off,,,,,128,0,16,,,,,7,,,56,100
18560,note_off,,,,,128,0,14,,,,,6,,,44,100
18560,note_off,,,,,128,0,13,,,,,5,,,56,100
18624,note_on,,,,,64,0,13,,,,,5,,,55,93
18624,note_on,,,,,64,0,14,,,,,6,,,43,93
18624,note_on,,,,,64,0,16,,,,,7,,,55,100
18752,note_off,,,,,128,0,14,,,,,6,,,43,100
18752,note_off,,,,,128,0,13,,,,,5,,,55,100
18752,note_off,,,,,128,0,16,,,,,7,,,55,100
18816,note_off,,,,,0,0,15,,,,,7,,,72,100
18816,note_off,,,,,384,0,10,,,,,2,,,77,100
18816,note_off,,,,,384,0,11,,,,,3,,,77,100
18816,note_on,,,,,64,0,14,,,,,6,,,41,94
18816,note_on,,,,,64,0,16,,,,,7,,,53,100
18816,note_on,,,,,64,0,13,,,,,5,,,53,94
18816,note_off,,,,,384,0,15,,,,,7,,,65,100
18944,note_off,,,,,128,0,13,,,,,5,,,53,100
18944,note_off,,,,,128,0,14,,,,,6,,,41,100
18944,note_off,,,,,128,0,16,,,,,7,,,53,100
19008,note_on,,,,,192,0,10,,,,,2,,,78,105
19008,note_on,,,,,192,0,15,,,,,7,,,66,100
19008,note_on,,,,,64,0,13,,,,,5,,,57,95
19008,note_on,,,,,64,0,14,,,,,6,,,45,95
19008,note_on,,,,,64,0,16,,,,,7,,,57,100
19008,note_on,,,,,0,0,15,,,,,7,,,72,100
19008,note_on,,,,,192,0,11,,,,,3,,,78,45
19200,note_off,,,,,768,0,12,,,,,4,,,60,100
19392,note_off,,,,,0,0,15,,,,,7,,,72,100
19392,note_off,,,,,384,0,11,,,,,3,,,78,100
19392,note_off,,,,,384,0,14,,,,,6,,,45,100
19392,note_off,,,,,384,0,10,,,,,2,,,78,100
19392,note_off,,,,,384,0,16,,,,,7,,,57,100
19392,note_off,,,,,384,0,15,,,,,7,,,66,100
19392,note_off,,,,,384,0,13,,,,,5,,,57,100
19584,note_on,,,,,0,0,15,,,,,7,,,74,100
19584,note_on,,,,,192,0,14,,,,,6,,,46,98
19584,note_on,,,,,192,0,11,,,,,3,,,79,48
19584,note_on,,,,,192,0,13,,,,,5,,,58,98
19584,note_on,,,,,192,0,15,,,,,7,,,67,100
19584,note_on,,,,,192,0,10,,,,,2,,,79,108
19584,note_on,,,,,384,0,12,,,,,4,,,62,98
19584,note_on,,,,,192,0,16,,,,,7,,,58,100
19840,note_off,,,,,256,0,13,,,,,5,,,58,100
19840,note_off,,,,,256,0,10,,,,,2,,,79,100
19840,note_off,,,,,256,0,12,,,,,4,,,62,100
19840,note_off,,,,,256,0,16,,,,,7,,,58,100
19840,note_off,,,,,0,0,15,,,,,7,,,74,100
19840,note_off,,,,,256,0,14,,,,,6,,,46,100
19840,note_off,,,,,256,0,15,,,,,7,,,67,100
19840,note_off,,,,,256,0,11,,,,,3,,,79,100
19968,note_on,,,,,128,0,10,,,,,2,,,74,109
19968,note_on,,,,,128,0,15,,,,,7,,,69,100
19968,note_on,,,,,128,0,16,,,,,7,,,54,100
19968,note_on,,,,,128,0,11,,,,,3,,,74,49
19968,note_on,,,,,0,0,15,,,,,7,,,72,100
19968,note_on,,,,,128,0,13,,,,,5,,,54,99
19968,note_on,,,,,128,0,14,,,,,6,,,42,99
19968,note_on,,,,,128,0,12,,,,,4,,,69,99
20096,note_off,,,,,128,0,16,,,,,7,,,54,100
20096,note_off,,,,,128,0,14,,,,,6,,,42,100
20096,note_off,,,,,128,0,10,,,,,2,,,74,100
20096,note_off,,,,,128,0,11,,,,,3,,,74,100
20096,note_off,,,,,128,0,15,,,,,7,,,69,100
20096,note_off,,,,,0,0,15,,,,,7,,,72,100
20096,note_off,,,,,128,0,12,,,,,4,,,69,100
20096,note_off,,,,,128,0,13,,,,,5,,,54,100
20160,note_on,,,,,64,0,11,,,,,3,,,75,50
20160,note_on,,,,,64,0,15,,,,,7,,,63,100
20160,note_on,,,,,64,0,12,,,,,4,,,70,100
20160,note_on,,,,,64,0,16,,,,,7,,,55,100
20160,note_on,,,,,0,0,15,,,,,7,,,74,100
20160,note_on,,,,,64,0,10,,,,,2,,,75,110
20160,note_on,,,,,64,0,14,,,,,6,,,43,100
20160,note_on,,,,,64,0,13,,,,,5,,,55,100
20348,note_off,,,,,188,0,10,,,,,2,,,75,100
20348,note_off,,,,,188,0,11,,,,,3,,,75,100
20352,note_on,,,,,4,0,11,,,,,3,,,74,50
20352,note_on,,,,,4,0,10,,,,,2,,,74,110
20416,note_off,,,,,256,0,15,,,,,7,,,63,100
20416,note_off,,,,,256,0,16,,,,,7,,,55,100
20416,note_off,,,,,256,0,14,,,,,6,,,43,100
20416,note_off,,,,,256,0,12,,,,,4,,,70,100
20416,note_off,,,,,0,0,15,,,,,7,,,74,100
20416,note_off,,,,,256,0,13,,,,,5,,,55,100
20540,note_off,,,,,188,0,11,,,,,3,,,74,100
20540,note_off,,,,,188,0,10,,,,,2,,,74,100
20544,note_on,,,,,128,0,15,,,,,7,,,64,100
20544,note_on,,,,,128,0,16,,,,,7,,,57,100
20544,note_on,,,,,4,0,11,,,,,3,,,73,50
20544,note_on,,,,,0,0,15,,,,,7,,,73,100
20544,note_on,,,,,128,0,14,,,,,6,,,45,100
20544,note_on,,,,,128,0,12,,,,,4,,,64,100
20544,note_on,,,,,4,0,10,,,,,2,,,73,110
20544,note_on,,,,,128,0,13,,,,,5,,,57,100
20672,note_off,,,,,128,0,10,,,,,2,,,73,100
20672,note_off,,,,,128,0,16,,,,,7,,,57,100
20672,note_off,,,,,128,0,11,,,,,3,,,73,100
20672,note_off,,,,,128,0,12,,,,,4,,,64,100
20672,note_off,,,,,128,0,13,,,,,5,,,57,100
20672,note_off,,,,,128,0,14,,,,,6,,,45,100
20672,note_off,,,,,0,0,15,,,,,7,,,73,100
20672,note_off,,,,,128,0,15,,,,,7,,,64,100
20736,note_on,,,,,0,0,15,,,,,7,,,69,100
20736,note_on,,,,,64,0,15,,,,,7,,,74,100
20736,note_on,,,,,64,0,13,,,,,5,,,54,100
20736,note_on,,,,,64,0,16,,,,,7,,,54,100
20736,note_on,,,,,64,0,11,,,,,3,,,74,50
20736,note_on,,,,,64,0,14,,,,,6,,,42,100
20736,note_on,,,,,64,0,12,,,,,4,,,69,100
20736,note_on,,,,,64,0,10,,,,,2,,,74,110
20864,note_off,,,,,128,0,16,,,,,7,,,54,100
20864,note_off,,,,,128,0,13,,,,,5,,,54,100
20864,note_off,,,,,128,0,14,,,,,6,,,42,100
20928,note_on,,,,,64,0,16,,,,,7,,,52,100
20928,note_on,,,,,64,0,13,,,,,5,,,52,85
20928,note_on,,,,,64,0,14,,,,,6,,,40,85
21056,note_off,,,,,128,0,14,,,,,6,,,40,100
21056,note_off,,,,,128,0,13,,,,,5,,,52,100
21056,note_off,,,,,128,0,16,,,,,7,,,52,100
21120,note_off,,,,,384,0,11,,,,,3,,,74,100
21120,note_off,,,,,384,0,12,,,,,4,,,69,100
21120,note_on,,,,,64,0,16,,,,,7,,,50,100
21120,note_off,,,,,384,0,10,,,,,2,,,74,100
21120,note_on,,,,,64,0,14,,,,,6,,,38,85
21120,note_on,,,,,64,0,13,,,,,5,,,50,85
21120,note_off,,,,,0,0,15,,,,,7,,,69,100
21120,note_off,,,,,384,0,15,,,,,7,,,74,100
21248,note_off,,,,,128,0,16,,,,,7,,,50,100
21248,note_off,,,,,128,0,14,,,,,6,,,38,100
21248,note_off,,,,,128,0,13,,,,,5,,,50,100
21312,note_on,,,,,192,0,15,,,,,7,,,63,100
21312,note_on,,,,,192,0,12,,,,,4,,,70,70
21312,note_on,,,,,64,0,14,,,,,6,,,43,70
21312,note_on,,,,,0,0,15,,,,,7,,,74,100
21312,note_on,,,,,64,0,13,,,,,5,,,55,70
21312,note_on,,,,,192,0,11,,,,,3,,,75,20
21312,note_on,,,,,64,0,16,,,,,7,,,55,100
21312,note_on,,,,,192,0,10,,,,,2,,,75,80
21500,note_off,,,,,188,0,10,,,,,2,,,75,100
21500,note_off,,,,,188,0,11,,,,,3,,,75,100
21504,note_on,,,,,4,0,10,,,,,2,,,74,83
21504,note_on,,,,,4,0,11,,,,,3,,,74,23
21568,note_off,,,,,256,0,14,,,,,6,,,43,100
21568,note_off,,,,,256,0,12,,,,,4,,,70,100
21568,note_off,,,,,256,0,16,,,,,7,,,55,100
21568,note_off,,,,,256,0,13,,,,,5,,,55,100
21568,note_off,,,,,0,0,15,,,,,7,,,74,100
21568,note_off,,,,,256,0,15,,,,,7,,,63,100
21692,note_off,,,,,188,0,10,,,,,2,,,74,100
21692,note_off,,,,,188,0,11,,,,,3,,,74,100
21696,note_on,,,,,128,0,13,,,,,5,,,57,76
21696,note_on,,,,,4,0,11,,,,,3,,,73,26
21696,note_on,,,,,4,0,10,,,,,2,,,73,86
21696,note_on,,,,,0,0,15,,,,,7,,,73,100
21696,note_on,,,,,128,0,16,,,,,7,,,57,100
21696,note_on,,,,,128,0,15,,,,,7,,,64,100
21696,note_on,,,,,128,0,14,,,,,6,,,45,76
21696,note_on,,,,,128,0,12,,,,,4,,,64,76
21824,note_off,,,,,128,0,16,,,,,7,,,57,100
21824,note_off,,,,,128,0,10,,,,,2,,,73,100
21824,note_off,,,,,128,0,14,,,,,6,,,45,100
21824,note_off,,,,,128,0,12,,,,,4,,,64,100
21824,note_off,,,,,128,0,11,,,,,3,,,73,100
21824,note_off,,,,,0,0,15,,,,,7,,,73,100
21824,note_off,,,,,128,0,15,,,,,7,,,64,100
21824,note_off,,,,,128,0,13,,,,,5,,,57,100
21888,note_on,,,,,64,0,14,,,,,6,,,42,79
21888,note_on,,,,,64,0,16,,,,,7,,,54,100
21888,note_on,,,,,64,0,12,,,,,4,,,69,79
21888,note_on,,,,,64,0,13,,,,,5,,,54,79
21888,note_on,,,,,64,0,10,,,,,2,,,74,89
21888,note_on,,,,,0,0,15,,,,,7,,,72,100
21888,note_on,,,,,64,0,11,,,,,3,,,74,29
21888,note_on,,,,,64,0,15,,,,,7,,,62,100
22076,note_off,,,,,188,0,11,,,,,3,,,74,100
22076,note_off,,,,,188,0,10,,,,,2,,,74,100
22080,note_on,,,,,4,0,10,,,,,2,,,72,93
22080,note_on,,,,,4,0,11,,,,,3,,,72,33
22144,note_off,,,,,256,0,14,,,,,6,,,42,100
22144,note_off,,,,,0,0,15,,,,,7,,,72,100
22144,note_off,,,,,256,0,15,,,,,7,,,62,100
22144,note_off,,,,,256,0,12,,,,,4,,,69,100
22144,note_off,,,,,256,0,16,,,,,7,,,54,100
22144,note_off,,,,,256,0,13,,,,,5,,,54,100
22268,note_off,,,,,188,0,10,,,,,2,,,72,100
22268,note_off,,,,,188,0,11,,,,,3,,,72,100
22272,note_on,,,,,128,0,12,,,,,4,,,62,86
22272,note_on,,,,,128,0,16,,,,,7,,,55,100
22272,note_on,,,,,4,0,10,,,,,2,,,70,96
22272,note_on,,,,,128,0,14,,,,,6,,,43,86
22272,note_on,,,,,128,0,13,,,,,5,,,55,86
22272,note_on,,,,,128,0,15,,,,,7,,,62,100
22272,note_on,,,,,0,0,15,,,,,7,,,70,100
22272,note_on,,,,,4,0,11,,,,,3,,,70,36
22400,note_off,,,,,128,0,14,,,,,6,,,43,100
22400,note_off,,,,,128,0,16,,,,,7,,,55,100
22400,note_off,,,,,0,0,15,,,,,7,,,70,100
22400,note_off,,,,,128,0,15,,,,,7,,,62,100
22400,note_off,,,,,128,0,13,,,,,5,,,55,100
22400,note_off,,,,,128,0,11,,,,,3,,,70,100
22400,note_off,,,,,128,0,10,,,,,2,,,70,100
22400,note_off,,,,,128,0,12,,,,,4,,,62,100
22464,note_on,,,,,64,0,11,,,,,3,,,69,39
22464,note_on,,,,,64,0,13,,,,,5,,,49,89
22464,note_on,,,,,64,0,14,,,,,6,,,37,89
22464,note_on,,,,,64,0,16,,,,,7,,,49,100
22464,note_on,,,,,64,0,12,,,,,4,,,64,89
22464,note_on,,,,,64,0,15,,,,,7,,,67,100
22464,note_on,,,,,0,0,15,,,,,7,,,69,100
22464,note_on,,,,,64,0,10,,,,,2,,,69,99
22652,note_off,,,,,188,0,10,,,,,2,,,69,100
22652,note_off,,,,,188,0,11,,,,,3,,,69,100
22656,note_on,,,,,4,0,10,,,,,2,,,70,103
22656,note_on,,,,,4,0,11,,,,,3,,,70,43
22844,note_off,,,,,188,0,10,,,,,2,,,70,100
22844,note_off,,,,,188,0,11,,,,,3,,,70,100
22848,note_off,,,,,384,0,15,,,,,7,,,67,100
22848,note_on,,,,,4,0,10,,,,,2,,,67,106
22848,note_on,,,,,4,0,11,,,,,3,,,67,46
22848,note_off,,,,,384,0,14,,,,,6,,,37,100
22848,note_off,,,,,384,0,12,,,,,4,,,64,100
22848,note_off,,,,,384,0,13,,,,,5,,,49,100
22848,note_off,,,,,384,0,16,,,,,7,,,49,100
22848,note_off,,,,,0,0,15,,,,,7,,,69,100
22976,note_off,,,,,128,0,10,,,,,2,,,67,100
22976,note_off,,,,,128,0,11,,,,,3,,,67,100
23040,note_on,,,,,192,0,14,,,,,6,,,38,99
23040,note_on,,,,,64,0,11,,,,,3,,,62,49
23040,note_on,,,,,64,0,10,,,,,2,,,62,109
23040,note_on,,,,,192,0,12,,,,,4,,,66,99
23040,note_on,,,,,192,0,16,,,,,7,,,50,100
23040,note_on,,,,,0,0,15,,,,,7,,,66,100
23040,note_on,,,,,192,0,15,,,,,7,,,69,100
23040,note_on,,,,,192,0,13,,,,,5,,,50,99
23040,note_on,,,,,0,0,12,,,,,4,,,57,99
23168,note_off,,,,,128,0,16,,,,,7,,,50,100
23168,note_off,,,,,128,0,13,,,,,5,,,50,100
23168,note_off,,,,,128,0,14,,,,,6,,,38,100
23232,note_on,,,,,64,0,16,,,,,7,,,52,100
23232,note_on,,,,,64,0,13,,,,,5,,,52,85
23232,note_on,,,,,64,0,14,,,,,6,,,40,85
23296,note_off,,,,,256,0,12,,,,,4,,,66,100
23296,note_off,,,,,0,0,12,,,,,4,,,57,100
23360,note_off,,,,,128,0,14,,,,,6,,,40,100
23360,note_off,,,,,128,0,13,,,,,5,,,52,100
23360,note_off,,,,,128,0,16,,,,,7,,,52,100
23424,note_off,,,,,384,0,11,,,,,3,,,62,100
23424,note_on,,,,,64,0,13,,,,,5,,,54,85
23424,note_off,,,,,0,0,15,,,,,7,,,66,100
23424,note_on,,,,,128,0,12,,,,,4,,,62,85
23424,note_off,,,,,384,0,10,,,,,2,,,62,100
23424,note_on,,,,,64,0,16,,,,,7,,,54,100
23424,note_on,,,,,64,0,14,,,,,6,,,42,85
23424,note_off,,,,,384,0,15,,,,,7,,,69,100
23552,note_off,,,,,128,0,12,,,,,4,,,62,100
23552,note_off,,,,,128,0,16,,,,,7,,,54,100
23552,note_off,,,,,128,0,14,,,,,6,,,42,100
23552,note_off,,,,,128,0,13,,,,,5,,,54,100
23616,note_on,,,,,64,0,14,,,,,6,,,43,100
23616,note_on,,,,,64,0,16,,,,,7,,,55,100
23616,note_on,,,,,192,0,15,,,,,7,,,70,100
23616,note_on,,,,,0,0,15,,,,,7,,,74,100
23616,note_on,,,,,64,0,13,,,,,5,,,55,100
23616,note_on,,,,,192,0,10,,,,,2,,,70,110
23616,note_on,,,,,192,0,11,,,,,3,,,70,50
23616,note_on,,,,,64,0,12,,,,,4,,,62,100
23744,note_off,,,,,128,0,12,,,,,4,,,62,100
23804,note_off,,,,,188,0,11,,,,,3,,,70,100
23804,note_off,,,,,188,0,10,,,,,2,,,70,100
23808,note_on,,,,,4,0,11,,,,,3,,,69,46
23808,note_on,,,,,4,0,10,,,,,2,,,69,106
23808,note_on,,,,,64,0,12,,,,,4,,,60,96
23936,note_off,,,,,128,0,12,,,,,4,,,60,100
23996,note_off,,,,,188,0,11,,,,,3,,,69,100
23996,note_off,,,,,188,0,10,,,,,2,,,69,100
24000,note_on,,,,,4,0,10,,,,,2,,,67,101
24000,note_off,,,,,384,0,13,,,,,5,,,55,100
24000,note_off,,,,,384,0,16,,,,,7,,,55,100
24000,note_on,,,,,4,0,11,,,,,3,,,67,41
24000,note_off,,,,,0,0,15,,,,,7,,,74,100
24000,note_off,,,,,384,0,15,,,,,7,,,70,100
24000,note_off,,,,,384,0,14,,,,,6,,,43,100
24000,note_on,,,,,64,0,12,,,,,4,,,58,91
24128,note_off,,,,,128,0,12,,,,,4,,,58,100
24128,note_off,,,,,128,0,10,,,,,2,,,67,100
24128,note_off,,,,,128,0,11,,,,,3,,,67,100
24192,note_on,,,,,64,0,12,,,,,4,,,57,86
24192,note_on,,,,,64,0,10,,,,,2,,,62,96
24192,note_on,,,,,192,0,14,,,,,6,,,42,86
24192,note_on,,,,,192,0,16,,,,,7,,,54,100
24192,note_on,,,,,64,0,11,,,,,3,,,62,36
24192,note_on,,,,,0,0,15,,,,,7,,,69,100
24192,note_on,,,,,192,0,13,,,,,5,,,54,86
24192,note_on,,,,,192,0,15,,,,,7,,,74,100
24320,note_off,,,,,128,0,16,,,,,7,,,54,100
24320,note_off,,,,,128,0,13,,,,,5,,,54,100
24320,note_off,,,,,128,0,14,,,,,6,,,42,100
24384,note_on,,,,,64,0,16,,,,,7,,,52,100
24384,note_on,,,,,64,0,13,,,,,5,,,52,85
24384,note_on,,,,,64,0,14,,,,,6,,,40,85
24448,note_off,,,,,256,0,12,,,,,4,,,57,100
24512,note_off,,,,,128,0,14,,,,,6,,,40,100
24512,note_off,,,,,128,0,13,,,,,5,,,52,100
24512,note_off,,,,,128,0,16,,,,,7,,,52,100
24576,note_off,,,,,384,0,11,,,,,3,,,62,100
24576,note_off,,,,,384,0,15,,,,,7,,,74,100
24576,note_on,,,,,128,0,12,,,,,4,,,62,85
24576,note_on,,,,,64,0,16,,,,,7,,,50,100
24576,note_off,,,,,384,0,10,,,,,2,,,62,100
24576,note_on,,,,,64,0,13,,,,,5,,,50,85
24576,note_off,,,,,0,0,15,,,,,7,,,69,100
24576,note_on,,,,,64,0,14,,,,,6,,,38,85
24704,note_off,,,,,128,0,16,,,,,7,,,50,100
24704,note_off,,,,,128,0,12,,,,,4,,,62,100
24704,note_off,,,,,128,0,13,,,,,5,,,50,100
24704,note_off,,,,,128,0,14,,,,,6,,,38,100
24768,note_on,,,,,192,0,10,,,,,2,,,70,110
24768,note_on,,,,,192,0,15,,,,,7,,,70,100
24768,note_on,,,,,0,0,15,,,,,7,,,74,100
24768,note_on,,,,,64,0,16,,,,,7,,,55,100
24768,note_on,,,,,64,0,13,,,,,5,,,55,100
24768,note_on,,,,,64,0,12,,,,,4,,,62,100
24768,note_on,,,,,192,0,11,,,,,3,,,70,50
24768,note_on,,,,,64,0,14,,,,,6,,,43,100
24896,note_off,,,,,128,0,12,,,,,4,,,62,100
24956,note_off,,,,,188,0,10,,,,,2,,,70,100
24956,note_off,,,,,188,0,11,,,,,3,,,70,100
24960,note_on,,,,,4,0,11,,,,,3,,,69,46
24960,note_on,,,,,4,0,10,,,,,2,,,69,106
24960,note_on,,,,,64,0,12,,,,,4,,,60,96
25088,note_off,,,,,128,0,12,,,,,4,,,60,100
25148,note_off,,,,,188,0,11,,,,,3,,,69,100
25148,note_off,,,,,188,0,10,,,,,2,,,69,100
25152,note_off,,,,,0,0,15,,,,,7,,,74,100
25152,note_off,,,,,384,0,13,,,,,5,,,55,100
25152,note_off,,,,,384,0,16,,,,,7,,,55,100
25152,note_off,,,,,384,0,15,,,,,7,,,70,100
25152,note_off,,,,,384,0,14,,,,,6,,,43,100
25152,note_on,,,,,4,0,10,,,,,2,,,67,101
25152,note_on,,,,,64,0,12,,,,,4,,,58,91
25152,note_on,,,,,4,0,11,,,,,3,,,67,41
25280,note_off,,,,,128,0,10,,,,,2,,,67,100
25280,note_off,,,,,128,0,12,,,,,4,,,58,100
25280,note_off,,,,,128,0,11,,,,,3,,,67,100
25344,note_on,,,,,192,0,14,,,,,6,,,42,86
25344,note_on,,,,,64,0,10,,,,,2,,,60,96
25344,note_on,,,,,0,0,15,,,,,7,,,74,100
25344,note_on,,,,,64,0,12,,,,,4,,,57,86
25344,note_on,,,,,192,0,15,,,,,7,,,72,100
25344,note_on,,,,,192,0,13,,,,,5,,,54,86
25344,note_on,,,,,192,0,16,,,,,7,,,54,100
25344,note_on,,,,,64,0,11,,,,,3,,,60,36
25472,note_off,,,,,128,0,13,,,,,5,,,54,100
25472,note_off,,,,,128,0,16,,,,,7,,,54,100
25472,note_off,,,,,128,0,14,,,,,6,,,42,100
25536,note_on,,,,,64,0,16,,,,,7,,,52,100
25536,note_on,,,,,64,0,14,,,,,6,,,40,85
25536,note_on,,,,,64,0,13,,,,,5,,,52,85
25600,note_off,,,,,256,0,12,,,,,4,,,57,100
25664,note_off,,,,,128,0,14,,,,,6,,,40,100
25664,note_off,,,,,128,0,16,,,,,7,,,52,100
25664,note_off,,,,,128,0,13,,,,,5,,,52,100
25728,note_on,,,,,64,0,16,,,,,7,,,50,100
25728,note_off,,,,,384,0,11,,,,,3,,,60,100
25728,note_on,,,,,64,0,14,,,,,6,,,38,85
25728,note_on,,,,,64,0,13,,,,,5,,,50,85
25728,note_off,,,,,384,0,10,,,,,2,,,60,100
25728,note_off,,,,,384,0,15,,,,,7,,,72,100
25728,note_off,,,,,0,0,15,,,,,7,,,74,100
25728,note_on,,,,,128,0,12,,,,,4,,,62,85
25856,note_off,,,,,128,0,16,,,,,7,,,50,100
25856,note_off,,,,,128,0,12,,,,,4,,,62,100
25856,note_off,,,,,128,0,14,,,,,6,,,38,100
25856,note_off,,,,,128,0,13,,,,,5,,,50,100
25920,note_on,,,,,64,0,16,,,,,7,,,55,100
25920,note_on,,,,,192,0,15,,,,,7,,,70,100
25920,note_on,,,,,0,0,15,,,,,7,,,74,100
25920,note_on,,,,,192,0,11,,,,,3,,,70,50
25920,note_on,,,,,64,0,14,,,,,6,,,43,100
25920,note_on,,,,,64,0,12,,,,,4,,,62,100
25920,note_on,,,,,64,0,13,,,,,5,,,55,100
25920,note_on,,,,,192,0,10,,,,,2,,,70,110
26048,note_off,,,,,128,0,12,,,,,4,,,62,100
26108,note_off,,,,,188,0,11,,,,,3,,,70,100
26108,note_off,,,,,188,0,10,,,,,2,,,70,100
26112,note_on,,,,,4,0,11,,,,,3,,,69,50
26112,note_on,,,,,4,0,10,,,,,2,,,69,110
26112,note_on,,,,,64,0,12,,,,,4,,,60,100
26240,note_off,,,,,128,0,12,,,,,4,,,60,100
26300,note_off,,,,,188,0,11,,,,,3,,,69,100
26300,note_off,,,,,188,0,10,,,,,2,,,69,100
26304,note_off,,,,,384,0,14,,,,,6,,,43,100
26304,note_off,,,,,384,0,13,,,,,5,,,55,100
26304,note_on,,,,,4,0,11,,,,,3,,,67,50
26304,note_on,,,,,64,0,12,,,,,4,,,58,100
26304,note_on,,,,,4,0,10,,,,,2,,,67,110
26304,note_off,,,,,384,0,15,,,,,7,,,70,100
26304,note_off,,,,,0,0,15,,,,,7,,,74,100
26304,note_off,,,,,384,0,16,,,,,7,,,55,100
26432,note_off,,,,,128,0,10,,,,,2,,,67,100
26432,note_off,,,,,128,0,12,,,,,4,,,58,100
26432,note_off,,,,,128,0,11,,,,,3,,,67,100
26496,note_on,,,,,192,0,14,,,,,6,,,45,100
26496,note_on,,,,,192,0,16,,,,,7,,,57,100
26496,note_on,,,,,192,0,13,,,,,5,,,57,100
26496,note_on,,,,,64,0,10,,,,,2,,,73,110
26496,note_on,,,,,192,0,15,,,,,7,,,64,100
26496,note_on,,,,,64,0,11,,,,,3,,,73,50
26496,note_on,,,,,64,0,12,,,,,4,,,64,100
26496,note_on,,,,,0,0,15,,,,,7,,,73,100
26752,note_off,,,,,256,0,13,,,,,5,,,57,100
26752,note_off,,,,,256,0,14,,,,,6,,,45,100
26752,note_off,,,,,256,0,16,,,,,7,,,57,100
26880,note_off,,,,,0,0,15,,,,,7,,,73,100
26880,note_off,,,,,384,0,15,,,,,7,,,64,100
26880,note_on,,,,,128,0,13,,,,,5,,,58,85
26880,note_on,,,,,128,0,14,,,,,6,,,46,85
26880,note_on,,,,,128,0,16,,,,,7,,,58,100
27008,note_off,,,,,128,0,13,,,,,5,,,58,100
27008,note_off,,,,,128,0,14,,,,,6,,,46,100
27008,note_off,,,,,128,0,16,,,,,7,,,58,100
27008,note_off,,,,,512,0,11,,,,,3,,,73,100
27008,note_off,,,,,512,0,10,,,,,2,,,73,100
27072,note_on,,,,,0,0,15,,,,,7,,,73,100
27072,note_on,,,,,64,0,14,,,,,6,,,45,85
27072,note_on,,,,,64,0,13,,,,,5,,,57,85
27072,note_on,,,,,64,0,16,,,,,7,,,57,100
27072,note_on,,,,,192,0,15,,,,,7,,,64,100
27260,note_off,,,,,764,0,12,,,,,4,,,64,100
27264,note_on,,,,,256,0,10,,,,,2,,,74,110
27264,note_on,,,,,256,0,11,,,,,3,,,74,50
27328,note_off,,,,,256,0,16,,,,,7,,,57,100
27328,note_off,,,,,256,0,13,,,,,5,,,57,100
27328,note_off,,,,,256,0,14,,,,,6,,,45,100
27392,note_off,,,,,128,0,10,,,,,2,,,74,100
27392,note_off,,,,,128,0,11,,,,,3,,,74,100
27456,note_on,,,,,128,0,16,,,,,7,,,55,100
27456,note_on,,,,,128,0,14,,,,,6,,,43,99
27456,note_on,,,,,64,0,10,,,,,2,,,76,109
27456,note_on,,,,,64,0,11,,,,,3,,,76,49
27456,note_off,,,,,384,0,15,,,,,7,,,64,100
27456,note_on,,,,,196,0,12,,,,,4,,,61,99
27456,note_off,,,,,0,0,15,,,,,7,,,73,100
27456,note_on,,,,,128,0,13,,,,,5,,,55,99
27584,note_off,,,,,128,0,10,,,,,2,,,76,100
27584,note_off,,,,,128,0,12,,,,,4,,,61,100
27584,note_off,,,,,128,0,13,,,,,5,,,55,100
27584,note_off,,,,,128,0,16,,,,,7,,,55,100
27584,note_off,,,,,128,0,11,,,,,3,,,76,100
27584,note_off,,,,,128,0,14,,,,,6,,,43,100
27648,note_on,,,,,192,0,15,,,,,7,,,74,100
27648,note_on,,,,,0,0,15,,,,,7,,,69,100
27648,note_on,,,,,64,0,12,,,,,4,,,62,97
27648,note_on,,,,,64,0,11,,,,,3,,,69,47
27648,note_on,,,,,64,0,16,,,,,7,,,54,100
27648,note_on,,,,,64,0,10,,,,,2,,,69,107
27648,note_on,,,,,64,0,14,,,,,6,,,42,97
27648,note_on,,,,,64,0,13,,,,,5,,,54,97
27904,note_off,,,,,256,0,10,,,,,2,,,69,100
27904,note_off,,,,,256,0,12,,,,,4,,,62,100
27904,note_off,,,,,256,0,14,,,,,6,,,42,100
27904,note_off,,,,,256,0,13,,,,,5,,,54,100
27904,note_off,,,,,256,0,11,,,,,3,,,69,100
27904,note_off,,,,,256,0,15,,,,,7,,,74,100
27904,note_off,,,,,0,0,15,,,,,7,,,69,100
27904,note_off,,,,,256,0,16,,,,,7,,,54,100
28032,note_on,,,,,128,0,14,,,,,6,,,43,93
28032,note_on,,,,,128,0,16,,,,,7,,,55,100
28032,note_on,,,,,128,0,13,,,,,5,,,55,93
28032,note_on,,,,,0,0,15,,,,,7,,,70,100
28032,note_on,,,,,128,0,12,,,,,4,,,62,93
28032,note_on,,,,,128,0,11,,,,,3,,,70,43
28032,note_on,,,,,128,0,10,,,,,2,,,74,103
28032,note_on,,,,,128,0,15,,,,,7,,,74,100
28160,note_off,,,,,128,0,13,,,,,5,,,55,100
28160,note_off,,,,,128,0,11,,,,,3,,,70,100
28160,note_off,,,,,128,0,16,,,,,7,,,55,100
28160,note_off,,,,,128,0,12,,,,,4,,,62,100
28160,note_off,,,,,0,0,15,,,,,7,,,70,100
28160,note_off,,,,,128,0,15,,,,,7,,,74,100
28160,note_off,,,,,128,0,14,,,,,6,,,43,100
28160,note_off,,,,,128,0,10,,,,,2,,,74,100
28224,note_on,,,,,64,0,16,,,,,7,,,60,100
28224,note_on,,,,,64,0,11,,,,,3,,,67,41
28224,note_on,,,,,0,0,15,,,,,7,,,70,100
28224,note_on,,,,,64,0,15,,,,,7,,,67,100
28224,note_on,,,,,64,0,13,,,,,5,,,60,91
28224,note_on,,,,,64,0,10,,,,,2,,,70,101
28224,note_on,,,,,64,0,14,,,,,6,,,48,91
28224,note_on,,,,,64,0,12,,,,,4,,,63,91
28352,note_off,,,,,128,0,12,,,,,4,,,63,100
28416,note_off,,,,,192,0,10,,,,,2,,,70,100
28416,note_off,,,,,192,0,11,,,,,3,,,67,100
28416,note_on,,,,,64,0,12,,,,,4,,,57,89
28480,note_off,,,,,256,0,13,,,,,5,,,60,100
28480,note_off,,,,,256,0,14,,,,,6,,,48,100
28480,note_off,,,,,0,0,15,,,,,7,,,70,100
28480,note_off,,,,,256,0,15,,,,,7,,,67,100
28480,note_off,,,,,256,0,16,,,,,7,,,60,100
28512,note_on,,,,,96,0,10,,,,,2,,,72,98
28512,note_on,,,,,96,0,11,,,,,3,,,69,38
28544,note_off,,,,,128,0,12,,,,,4,,,57,100
28576,note_off,,,,,64,0,11,,,,,3,,,69,100
28576,note_off,,,,,64,0,10,,,,,2,,,72,100
28608,note_on,,,,,32,0,10,,,,,2,,,69,97
28608,note_on,,,,,128,0,15,,,,,7,,,78,100
28608,note_on,,,,,0,0,15,,,,,7,,,69,100
28608,note_on,,,,,128,0,14,,,,,6,,,50,87
28608,note_on,,,,,64,0,12,,,,,4,,,62,87
28608,note_on,,,,,128,0,13,,,,,5,,,62,87
28608,note_on,,,,,32,0,11,,,,,3,,,66,37
28608,note_on,,,,,128,0,16,,,,,7,,,62,100
28736,note_off,,,,,128,0,10,,,,,2,,,69,100
28736,note_off,,,,,128,0,15,,,,,7,,,78,100
28736,note_off,,,,,128,0,13,,,,,5,,,62,100
28736,note_off,,,,,0,0,15,,,,,7,,,69,100
28736,note_off,,,,,128,0,11,,,,,3,,,66,100
28736,note_off,,,,,128,0,14,,,,,6,,,50,100
28736,note_off,,,,,128,0,16,,,,,7,,,62,100
28736,note_off,,,,,128,0,12,,,,,4,,,62,100
28800,note_on,,,,,0,0,15,,,,,7,,,70,100
28800,note_on,,,,,64,0,14,,,,,6,,,43,86
28800,note_on,,,,,64,0,11,,,,,3,,,67,36
28800,note_on,,,,,64,0,12,,,,,4,,,58,86
28800,note_on,,,,,64,0,10,,,,,2,,,67,96
28800,note_on,,,,,64,0,15,,,,,7,,,74,100
28800,note_on,,,,,28800,0,9,,,,,1,,,79,86
28800,note_on,,,,,64,0,16,,,,,7,,,55,100
28800,note_on,,,,,64,0,13,,,,,5,,,43,86
28800,note_on,,,,,28800,0,8,,,,,0,,,82,86
28988,note_off,,,,,188,0,9,,,,,1,,,79,100
28988,note_off,,,,,188,0,8,,,,,0,,,82,100
28992,note_on,,,,,4,0,8,,,,,0,,,84,85
28992,note_on,,,,,4,0,9,,,,,1,,,81,85
29120,note_off,,,,,128,0,9,,,,,1,,,81,100
29120,note_off,,,,,128,0,8,,,,,0,,,84,100
29184,note_off,,,,,384,0,12,,,,,4,,,58,100
29184,note_off,,,,,0,0,15,,,,,7,,,70,100
29184,note_off,,,,,384,0,15,,,,,7,,,74,100
29184,note_on,,,,,64,0,8,,,,,0,,,81,85
29184,note_off,,,,,384,0,10,,,,,2,,,67,100
29184,note_off,,,,,384,0,14,,,,,6,,,43,100
29184,note_off,,,,,384,0,11,,,,,3,,,67,100
29184,note_off,,,,,384,0,13,,,,,5,,,43,100
29184,note_on,,,,,64,0,9,,,,,1,,,78,85
29184,note_off,,,,,384,0,16,,,,,7,,,55,100
29312,note_off,,,,,128,0,9,,,,,1,,,78,100
29312,note_off,,,,,128,0,8,,,,,0,,,81,100
29376,note_on,,,,,64,0,9,,,,,1,,,79,85
29376,note_on,,,,,64,0,8,,,,,0,,,82,85
29564,note_off,,,,,188,0,9,,,,,1,,,79,100
29564,note_off,,,,,188,0,8,,,,,0,,,82,100
29568,note_on,,,,,4,0,8,,,,,0,,,86,85
29568,note_on,,,,,4,0,9,,,,,1,,,82,85
29696,note_off,,,,,128,0,8,,,,,0,,,86,100
29696,note_off,,,,,128,0,9,,,,,1,,,82,100
29760,note_on,,,,,64,0,8,,,,,0,,,84,85
29760,note_on,,,,,64,0,9,,,,,1,,,81,85
29888,note_off,,,,,128,0,8,,,,,0,,,84,100
29888,note_off,,,,,128,0,9,,,,,1,,,81,100
29952,note_on,,,,,768,0,16,,,,,7,,,55,100
29952,note_on,,,,,768,0,14,,,,,6,,,43,85
29952,note_on,,,,,64,0,8,,,,,0,,,86,85
29952,note_on,,,,,64,0,9,,,,,1,,,82,85
29952,note_on,,,,,768,0,13,,,,,5,,,43,85
29952,note_on,,,,,768,0,15,,,,,7,,,70,100
29952,note_on,,,,,0,0,15,,,,,7,,,74,100
30140,note_off,,,,,188,0,8,,,,,0,,,86,100
30140,note_off,,,,,188,0,9,,,,,1,,,82,100
30144,note_on,,,,,4,0,9,,,,,1,,,81,85
30144,note_on,,,,,4,0,8,,,,,0,,,84,85
30272,note_off,,,,,128,0,8,,,,,0,,,84,100
30272,note_off,,,,,128,0,9,,,,,1,,,81,100
30336,note_on,,,,,64,0,8,,,,,0,,,86,85
30336,note_off,,,,,384,0,16,,,,,7,,,55,100
30336,note_off,,,,,384,0,14,,,,,6,,,43,100
30336,note_off,,,,,384,0,15,,,,,7,,,70,100
30336,note_off,,,,,0,0,15,,,,,7,,,74,100
30336,note_on,,,,,64,0,9,,,,,1,,,82,85
30336,note_off,,,,,384,0,13,,,,,5,,,43,100
30464,note_off,,,,,128,0,9,,,,,1,,,82,100
30464,note_off,,,,,128,0,8,,,,,0,,,86,100
30528,note_on,,,,,64,0,8,,,,,0,,,82,85
30528,note_on,,,,,64,0,9,,,,,1,,,79,85
30784,note_off,,,,,256,0,9,,,,,1,,,79,100
30784,note_off,,,,,256,0,8,,,,,0,,,82,100
30912,note_on,,,,,128,0,9,,,,,1,,,82,85
30912,note_on,,,,,128,0,8,,,,,0,,,86,85
31040,note_off,,,,,128,0,9,,,,,1,,,82,100
31040,note_off,,,,,128,0,8,,,,,0,,,86,100
31104,note_on,,,,,768,0,16,,,,,7,,,55,100
31104,note_on,,,,,768,0,13,,,,,5,,,43,85
31104,note_on,,,,,768,0,14,,,,,6,,,43,85
31104,note_on,,,,,64,0,9,,,,,1,,,79,85
31104,note_on,,,,,0,0,15,,,,,7,,,74,100
31104,note_on,,,,,768,0,15,,,,,7,,,70,100
31104,note_on,,,,,64,0,8,,,,,0,,,82,85
31360,note_off,,,,,256,0,9,,,,,1,,,79,100
31360,note_off,,,,,256,0,8,,,,,0,,,82,100
31488,note_off,,,,,384,0,15,,,,,7,,,70,100
31488,note_off,,,,,384,0,14,,,,,6,,,43,100
31488,note_off,,,,,384,0,13,,,,,5,,,43,100
31488,note_on,,,,,128,0,9,,,,,1,,,78,85
31488,note_off,,,,,384,0,16,,,,,7,,,55,100
31488,note_on,,,,,128,0,8,,,,,0,,,81,85
31488,note_off,,,,,0,0,15,,,,,7,,,74,100
31616,note_off,,,,,128,0,8,,,,,0,,,81,100
31616,note_off,,,,,128,0,9,,,,,1,,,78,100
31680,note_on,,,,,64,0,8,,,,,0,,,82,85
31680,note_on,,,,,64,0,9,,,,,1,,,79,85
31868,note_off,,,,,188,0,9,,,,,1,,,79,100
31868,note_off,,,,,188,0,8,,,,,0,,,82,100
31872,note_on,,,,,4,0,9,,,,,1,,,81,85
31872,note_on,,,,,4,0,8,,,,,0,,,84,85
32000,note_off,,,,,128,0,9,,,,,1,,,81,100
32000,note_off,,,,,128,0,8,,,,,0,,,84,100
32064,note_on,,,,,64,0,9,,,,,1,,,79,85
32064,note_on,,,,,64,0,8,,,,,0,,,82,85
32192,note_off,,,,,128,0,9,,,,,1,,,79,100
32192,note_off,,,,,128,0,8,,,,,0,,,82,100
32256,note_on,,,,,64,0,9,,,,,1,,,78,85
32256,note_on,,,,,64,0,8,,,,,0,,,81,85
32256,note_on,,,,,768,0,14,,,,,6,,,38,85
32256,note_on,,,,,768,0,13,,,,,5,,,50,85
32256,note_on,,,,,768,0,15,,,,,7,,,69,100
32256,note_on,,,,,0,0,15,,,,,7,,,66,100
32256,note_on,,,,,768,0,16,,,,,7,,,50,100
32444,note_off,,,,,188,0,8,,,,,0,,,81,100
32444,note_off,,,,,188,0,9,,,,,1,,,78,100
32448,note_on,,,,,4,0,9,,,,,1,,,76,85
32448,note_on,,,,,4,0,8,,,,,0,,,79,85
32576,note_off,,,,,128,0,8,,,,,0,,,79,100
32576,note_off,,,,,128,0,9,,,,,1,,,76,100
32640,note_off,,,,,384,0,16,,,,,7,,,50,100
32640,note_off,,,,,384,0,14,,,,,6,,,38,100
32640,note_on,,,,,64,0,8,,,,,0,,,81,85
32640,note_off,,,,,384,0,15,,,,,7,,,69,100
32640,note_on,,,,,64,0,9,,,,,1,,,78,85
32640,note_off,,,,,0,0,15,,,,,7,,,66,100
32640,note_off,,,,,384,0,13,,,,,5,,,50,100
32768,note_off,,,,,128,0,8,,,,,0,,,81,100
32768,note_off,,,,,128,0,9,,,,,1,,,78,100
32832,note_on,,,,,192,0,14,,,,,6,,,50,85
32832,note_on,,,,,0,0,15,,,,,7,,,69,100
32832,note_on,,,,,64,0,8,,,,,0,,,78,85
32832,note_on,,,,,192,0,15,,,,,7,,,74,100
32832,note_on,,,,,192,0,13,,,,,5,,,62,85
32832,note_on,,,,,192,0,16,,,,,7,,,62,100
32832,note_on,,,,,64,0,9,,,,,1,,,74,85
33088,note_off,,,,,256,0,13,,,,,5,,,62,100
33088,note_off,,,,,256,0,16,,,,,7,,,62,100
33088,note_off,,,,,256,0,14,,,,,6,,,50,100
33088,note_off,,,,,256,0,15,,,,,7,,,74,100
33088,note_off,,,,,0,0,15,,,,,7,,,69,100
33216,note_off,,,,,384,0,9,,,,,1,,,74,100
33216,note_on,,,,,128,0,15,,,,,7,,,66,100
33216,note_on,,,,,128,0,14,,,,,6,,,48,85
33216,note_on,,,,,128,0,13,,,,,5,,,60,85
33216,note_on,,,,,0,0,15,,,,,7,,,74,100
33216,note_on,,,,,128,0,16,,,,,7,,,60,100
33216,note_off,,,,,384,0,8,,,,,0,,,78,100
33344,note_off,,,,,0,0,15,,,,,7,,,74,100
33344,note_off,,,,,128,0,16,,,,,7,,,60,100
33344,note_off,,,,,128,0,13,,,,,5,,,60,100
33344,note_off,,,,,128,0,15,,,,,7,,,66,100
33344,note_off,,,,,128,0,14,,,,,6,,,48,100
33408,note_on,,,,,64,0,15,,,,,7,,,65,100
33408,note_on,,,,,0,0,15,,,,,7,,,67,100
33408,note_on,,,,,64,0,16,,,,,7,,,59,100
33408,note_on,,,,,192,0,9,,,,,1,,,74,85
33408,note_on,,,,,192,0,8,,,,,0,,,77,85
33408,note_on,,,,,64,0,13,,,,,5,,,59,85
33408,note_on,,,,,64,0,14,,,,,6,,,47,85
33600,note_off,,,,,192,0,9,,,,,1,,,74,100
33600,note_off,,,,,192,0,8,,,,,0,,,77,100
33696,note_on,,,,,96,0,8,,,,,0,,,79,85
33696,note_on,,,,,96,0,9,,,,,1,,,75,85
33760,note_off,,,,,64,0,8,,,,,0,,,79,100
33760,note_off,,,,,64,0,9,,,,,1,,,75,100
33792,note_on,,,,,32,0,8,,,,,0,,,77,85
33792,note_on,,,,,32,0,9,,,,,1,,,74,85
33920,note_off,,,,,128,0,8,,,,,0,,,77,100
33920,note_off,,,,,128,0,9,,,,,1,,,74,100
33984,note_on,,,,,64,0,8,,,,,0,,,77,85
33984,note_on,,,,,64,0,9,,,,,1,,,74,85
34176,note_off,,,,,768,0,14,,,,,6,,,47,100
34176,note_off,,,,,768,0,16,,,,,7,,,59,100
34176,note_off,,,,,768,0,13,,,,,5,,,59,100
34176,note_off,,,,,768,0,15,,,,,7,,,65,100
34176,note_off,,,,,0,0,15,,,,,7,,,67,100
34240,note_off,,,,,256,0,8,,,,,0,,,77,100
34240,note_off,,,,,256,0,9,,,,,1,,,74,100
34368,note_on,,,,,128,0,9,,,,,1,,,74,85
34368,note_on,,,,,128,0,8,,,,,0,,,77,85
34496,note_off,,,,,128,0,9,,,,,1,,,74,100
34496,note_off,,,,,128,0,8,,,,,0,,,77,100
34560,note_on,,,,,0,0,15,,,,,7,,,65,100
34560,note_on,,,,,384,0,15,,,,,7,,,68,100
34560,note_on,,,,,64,0,9,,,,,1,,,77,85
34560,note_on,,,,,64,0,8,,,,,0,,,80,85
34560,note_on,,,,,384,0,14,,,,,6,,,47,85
34560,note_on,,,,,384,0,13,,,,,5,,,59,85
34560,note_on,,,,,384,0,16,,,,,7,,,59,100
34748,note_off,,,,,188,0,13,,,,,5,,,59,100
34748,note_off,,,,,188,0,16,,,,,7,,,59,100
34748,note_off,,,,,188,0,14,,,,,6,,,47,100
34752,note_on,,,,,4,0,16,,,,,7,,,60,100
34752,note_on,,,,,4,0,14,,,,,6,,,48,85
34752,note_on,,,,,4,0,13,,,,,5,,,60,85
34880,note_off,,,,,128,0,16,,,,,7,,,60,100
34880,note_off,,,,,128,0,14,,,,,6,,,48,100
34880,note_off,,,,,128,0,13,,,,,5,,,60,100
34944,note_off,,,,,0,0,15,,,,,7,,,65,100
34944,note_off,,,,,384,0,15,,,,,7,,,68,100
34944,note_on,,,,,64,0,16,,,,,7,,,62,100
34944,note_on,,,,,64,0,14,,,,,6,,,50,85
34944,note_on,,,,,64,0,13,,,,,5,,,62,85
35072,note_off,,,,,128,0,16,,,,,7,,,62,100
35072,note_off,,,,,512,0,8,,,,,0,,,80,100
35072,note_off,,,,,128,0,14,,,,,6,,,50,100
35072,note_off,,,,,512,0,9,,,,,1,,,77,100
35072,note_off,,,,,128,0,13,,,,,5,,,62,100
35136,note_on,,,,,64,0,16,,,,,7,,,62,100
35136,note_on,,,,,64,0,14,,,,,6,,,50,85
35136,note_on,,,,,0,0,15,,,,,7,,,68,100
35136,note_on,,,,,64,0,13,,,,,5,,,62,85
35136,note_on,,,,,192,0,15,,,,,7,,,65,100
35328,note_on,,,,,256,0,9,,,,,1,,,75,85
35328,note_on,,,,,256,0,8,,,,,0,,,79,85
35392,note_off,,,,,256,0,14,,,,,6,,,50,100
35392,note_off,,,,,256,0,15,,,,,7,,,65,100
35392,note_off,,,,,0,0,15,,,,,7,,,68,100
35392,note_off,,,,,256,0,13,,,,,5,,,62,100
35392,note_off,,,,,256,0,16,,,,,7,,,62,100
35516,note_off,,,,,188,0,8,,,,,0,,,79,100
35516,note_off,,,,,188,0,9,,,,,1,,,75,100
35520,note_on,,,,,4,0,9,,,,,1,,,74,85
35520,note_on,,,,,128,0,16,,,,,7,,,55,100
35520,note_on,,,,,128,0,13,,,,,5,,,55,85
35520,note_on,,,,,4,0,8,,,,,0,,,77,85
35520,note_on,,,,,128,0,15,,,,,7,,,71,100
35520,note_on,,,,,0,0,15,,,,,7,,,62,100
35520,note_on,,,,,128,0,14,,,,,6,,,43,85
35648,note_off,,,,,128,0,8,,,,,0,,,77,100
35648,note_off,,,,,128,0,14,,,,,6,,,43,100
35648,note_off,,,,,128,0,16,,,,,7,,,55,100
35648,note_off,,,,,128,0,13,,,,,5,,,55,100
35648,note_off,,,,,128,0,15,,,,,7,,,71,100
35648,note_off,,,,,0,0,15,,,,,7,,,62,100
35648,note_off,,,,,128,0,9,,,,,1,,,74,100
35712,note_on,,,,,64,0,16,,,,,7,,,60,100
35712,note_on,,,,,64,0,8,,,,,0,,,79,85
35712,note_on,,,,,64,0,14,,,,,6,,,48,85
35712,note_on,,,,,0,0,15,,,,,7,,,67,100
35712,note_on,,,,,64,0,15,,,,,7,,,63,100
35712,note_on,,,,,64,0,9,,,,,1,,,75,85
35712,note_on,,,,,64,0,13,,,,,5,,,60,85
35900,note_off,,,,,188,0,8,,,,,0,,,79,100
35900,note_off,,,,,188,0,9,,,,,1,,,75,100
35904,note_on,,,,,4,0,8,,,,,0,,,77,85
35904,note_on,,,,,4,0,9,,,,,1,,,74,85
35968,note_off,,,,,0,0,15,,,,,7,,,67,100
35968,note_off,,,,,256,0,15,,,,,7,,,63,100
35968,note_off,,,,,256,0,13,,,,,5,,,60,100
35968,note_off,,,,,256,0,16,,,,,7,,,60,100
35968,note_off,,,,,256,0,14,,,,,6,,,48,100
36092,note_off,,,,,188,0,9,,,,,1,,,74,100
36092,note_off,,,,,188,0,8,,,,,0,,,77,100
36096,note_on,,,,,4,0,9,,,,,1,,,72,85
36096,note_on,,,,,128,0,16,,,,,7,,,53,100
36096,note_on,,,,,4,0,8,,,,,0,,,75,85
36096,note_on,,,,,128,0,13,,,,,5,,,53,85
36096,note_on,,,,,128,0,14,,,,,6,,,41,85
36096,note_on,,,,,128,0,15,,,,,7,,,63,100
36096,note_on,,,,,0,0,15,,,,,7,,,60,100
36224,note_off,,,,,128,0,8,,,,,0,,,75,100
36224,note_off,,,,,128,0,14,,,,,6,,,41,100
36224,note_off,,,,,128,0,15,,,,,7,,,63,100
36224,note_off,,,,,0,0,15,,,,,7,,,60,100
36224,note_off,,,,,128,0,9,,,,,1,,,72,100
36224,note_off,,,,,128,0,13,,,,,5,,,53,100
36224,note_off,,,,,128,0,16,,,,,7,,,53,100
36288,note_on,,,,,64,0,13,,,,,5,,,55,85
36288,note_on,,,,,64,0,14,,,,,6,,,43,85
36288,note_on,,,,,0,0,15,,,,,7,,,60,100
36288,note_on,,,,,64,0,16,,,,,7,,,55,100
36288,note_on,,,,,64,0,15,,,,,7,,,63,100
36288,note_on,,,,,64,0,9,,,,,1,,,72,85
36288,note_on,,,,,64,0,8,,,,,0,,,75,85
36332,note_off,,,,,44,0,8,,,,,0,,,75,100
36332,note_off,,,,,44,0,9,,,,,1,,,72,100
36336,note_on,,,,,4,0,8,,,,,0,,,77,85
36336,note_on,,,,,4,0,9,,,,,1,,,74,85
36380,note_off,,,,,44,0,8,,,,,0,,,77,100
36380,note_off,,,,,44,0,9,,,,,1,,,74,100
36384,note_on,,,,,4,0,8,,,,,0,,,75,85
36384,note_on,,,,,4,0,9,,,,,1,,,72,85
36428,note_off,,,,,44,0,8,,,,,0,,,75,100
36428,note_off,,,,,44,0,9,,,,,1,,,72,100
36432,note_on,,,,,4,0,9,,,,,1,,,74,85
36432,note_on,,,,,4,0,8,,,,,0,,,77,85
36476,note_off,,,,,44,0,8,,,,,0,,,77,100
36476,note_off,,,,,44,0,9,,,,,1,,,74,100
36480,note_on,,,,,4,0,9,,,,,1,,,72,85
36480,note_on,,,,,4,0,8,,,,,0,,,75,85
36544,note_off,,,,,256,0,16,,,,,7,,,55,100
36544,note_off,,,,,256,0,15,,,,,7,,,63,100
36544,note_off,,,,,0,0,15,,,,,7,,,60,100
36544,note_off,,,,,256,0,13,,,,,5,,,55,100
36544,note_off,,,,,256,0,14,,,,,6,,,43,100
36608,note_off,,,,,128,0,9,,,,,1,,,72,100
36608,note_off,,,,,128,0,8,,,,,0,,,75,100
36672,note_on,,,,,128,0,14,,,,,6,,,43,85
36672,note_on,,,,,64,0,9,,,,,1,,,71,85
36672,note_on,,,,,128,0,15,,,,,7,,,62,100
36672,note_on,,,,,128,0,13,,,,,5,,,43,85
36672,note_on,,,,,128,0,16,,,,,7,,,43,100
36672,note_on,,,,,0,0,15,,,,,7,,,59,100
36672,note_on,,,,,64,0,8,,,,,0,,,74,85
36800,note_off,,,,,128,0,8,,,,,0,,,74,100
36800,note_off,,,,,128,0,16,,,,,7,,,43,100
36800,note_off,,,,,128,0,15,,,,,7,,,62,100
36800,note_off,,,,,128,0,13,,,,,5,,,43,100
36800,note_off,,,,,128,0,9,,,,,1,,,71,100
36800,note_off,,,,,128,0,14,,,,,6,,,43,100
36800,note_off,,,,,0,0,15,,,,,7,,,59,100
36864,note_on,,,,,64,0,16,,,,,7,,,60,100
36864,note_on,,,,,64,0,9,,,,,1,,,72,85
36864,note_on,,,,,0,0,15,,,,,7,,,63,100
36864,note_on,,,,,64,0,15,,,,,7,,,67,100
36864,note_on,,,,,64,0,13,,,,,5,,,60,85
36864,note_on,,,,,64,0,14,,,,,6,,,48,85
36864,note_on,,,,,64,0,8,,,,,0,,,72,85
37052,note_off,,,,,188,0,13,,,,,5,,,60,100
37052,note_off,,,,,188,0,16,,,,,7,,,60,100
37052,note_off,,,,,188,0,14,,,,,6,,,48,100
37056,note_on,,,,,4,0,13,,,,,5,,,62,85
37056,note_on,,,,,4,0,16,,,,,7,,,62,100
37056,note_on,,,,,4,0,14,,,,,6,,,50,85
37184,note_off,,,,,128,0,16,,,,,7,,,62,100
37184,note_off,,,,,128,0,14,,,,,6,,,50,100
37184,note_off,,,,,128,0,13,,,,,5,,,62,100
37248,note_on,,,,,64,0,16,,,,,7,,,63,100
37248,note_off,,,,,384,0,15,,,,,7,,,67,100
37248,note_off,,,,,0,0,15,,,,,7,,,63,100
37248,note_on,,,,,64,0,13,,,,,5,,,63,85
37248,note_on,,,,,64,0,14,,,,,6,,,51,85
37376,note_off,,,,,128,0,13,,,,,5,,,63,100
37376,note_off,,,,,128,0,16,,,,,7,,,63,100
37376,note_off,,,,,128,0,14,,,,,6,,,51,100
37440,note_on,,,,,64,0,16,,,,,7,,,63,100
37440,note_on,,,,,192,0,15,,,,,7,,,70,100
37440,note_on,,,,,64,0,13,,,,,5,,,63,85
37440,note_on,,,,,0,0,15,,,,,7,,,67,100
37440,note_on,,,,,64,0,14,,,,,6,,,51,85
37632,note_off,,,,,768,0,8,,,,,0,,,72,100
37632,note_off,,,,,768,0,9,,,,,1,,,72,100
37696,note_off,,,,,256,0,13,,,,,5,,,63,100
37696,note_off,,,,,256,0,16,,,,,7,,,63,100
37696,note_off,,,,,256,0,14,,,,,6,,,51,100
37696,note_off,,,,,256,0,15,,,,,7,,,70,100
37696,note_off,,,,,0,0,15,,,,,7,,,67,100
37824,note_on,,,,,0,0,15,,,,,7,,,67,100
37824,note_on,,,,,128,0,15,,,,,7,,,63,100
37824,note_on,,,,,128,0,13,,,,,5,,,60,85
37824,note_on,,,,,128,0,16,,,,,7,,,60,100
37824,note_on,,,,,128,0,14,,,,,6,,,48,85
37952,note_off,,,,,0,0,15,,,,,7,,,67,100
37952,note_off,,,,,128,0,13,,,,,5,,,60,100
37952,note_off,,,,,128,0,16,,,,,7,,,60,100
37952,note_off,,,,,128,0,15,,,,,7,,,63,100
37952,note_off,,,,,128,0,14,,,,,6,,,48,100
38016,note_on,,,,,64,0,13,,,,,5,,,57,85
38016,note_on,,,,,64,0,14,,,,,6,,,45,85
38016,note_on,,,,,384,0,9,,,,,1,,,72,85
38016,note_on,,,,,384,0,8,,,,,0,,,75,85
38016,note_on,,,,,64,0,15,,,,,7,,,63,100
38016,note_on,,,,,64,0,16,,,,,7,,,57,100
38016,note_on,,,,,0,0,15,,,,,7,,,65,100
38208,note_off,,,,,192,0,9,,,,,1,,,72,100
38208,note_off,,,,,192,0,8,,,,,0,,,75,100
38304,note_on,,,,,96,0,9,,,,,1,,,74,85
38304,note_on,,,,,96,0,8,,,,,0,,,77,85
38368,note_off,,,,,64,0,9,,,,,1,,,74,100
38368,note_off,,,,,64,0,8,,,,,0,,,77,100
38400,note_on,,,,,32,0,9,,,,,1,,,72,85
38400,note_on,,,,,32,0,8,,,,,0,,,75,85
38528,note_off,,,,,128,0,9,,,,,1,,,72,100
38528,note_off,,,,,128,0,8,,,,,0,,,75,100
38592,note_on,,,,,64,0,8,,,,,0,,,75,85
38592,note_on,,,,,64,0,9,,,,,1,,,72,85
38784,note_off,,,,,768,0,13,,,,,5,,,57,100
38784,note_off,,,,,768,0,14,,,,,6,,,45,100
38784,note_off,,,,,0,0,15,,,,,7,,,65,100
38784,note_off,,,,,768,0,15,,,,,7,,,63,100
38784,note_off,,,,,768,0,16,,,,,7,,,57,100
38848,note_off,,,,,256,0,8,,,,,0,,,75,100
38848,note_off,,,,,256,0,9,,,,,1,,,72,100
38976,note_on,,,,,128,0,8,,,,,0,,,75,85
38976,note_on,,,,,128,0,9,,,,,1,,,72,85
39104,note_off,,,,,128,0,8,,,,,0,,,75,100
39104,note_off,,,,,128,0,9,,,,,1,,,72,100
39168,note_on,,,,,64,0,8,,,,,0,,,79,85
39168,note_on,,,,,0,0,15,,,,,7,,,63,100
39168,note_on,,,,,384,0,15,,,,,7,,,67,100
39168,note_on,,,,,384,0,13,,,,,5,,,57,85
39168,note_on,,,,,384,0,14,,,,,6,,,45,85
39168,note_on,,,,,64,0,9,,,,,1,,,75,85
39168,note_on,,,,,384,0,16,,,,,7,,,57,100
39356,note_off,,,,,188,0,13,,,,,5,,,57,100
39356,note_off,,,,,188,0,14,,,,,6,,,45,100
39356,note_off,,,,,188,0,16,,,,,7,,,57,100
39360,note_on,,,,,4,0,13,,,,,5,,,58,85
39360,note_on,,,,,4,0,14,,,,,6,,,46,85
39360,note_on,,,,,4,0,16,,,,,7,,,58,100
39488,note_off,,,,,128,0,13,,,,,5,,,58,100
39488,note_off,,,,,128,0,14,,,,,6,,,46,100
39488,note_off,,,,,128,0,16,,,,,7,,,58,100
39552,note_on,,,,,64,0,14,,,,,6,,,48,85
39552,note_on,,,,,64,0,16,,,,,7,,,60,100
39552,note_on,,,,,64,0,13,,,,,5,,,60,85
39552,note_off,,,,,0,0,15,,,,,7,,,63,100
39552,note_off,,,,,384,0,15,,,,,7,,,67,100
39680,note_off,,,,,512,0,9,,,,,1,,,75,100
39680,note_off,,,,,512,0,8,,,,,0,,,79,100
39680,note_off,,,,,128,0,16,,,,,7,,,60,100
39680,note_off,,,,,128,0,13,,,,,5,,,60,100
39680,note_off,,,,,128,0,14,,,,,6,,,48,100
39744,note_on,,,,,192,0,15,,,,,7,,,67,100
39744,note_on,,,,,64,0,13,,,,,5,,,60,85
39744,note_on,,,,,64,0,14,,,,,6,,,48,85
39744,note_on,,,,,0,0,15,,,,,7,,,63,100
39744,note_on,,,,,64,0,16,,,,,7,,,60,100
39936,note_on,,,,,256,0,8,,,,,0,,,77,85
39936,note_on,,,,,256,0,9,,,,,1,,,74,85
40000,note_off,,,,,256,0,14,,,,,6,,,48,100
40000,note_off,,,,,256,0,13,,,,,5,,,60,100
40000,note_off,,,,,0,0,15,,,,,7,,,63,100
40000,note_off,,,,,256,0,15,,,,,7,,,67,100
40000,note_off,,,,,256,0,16,,,,,7,,,60,100
40124,note_off,,,,,188,0,9,,,,,1,,,74,100
40124,note_off,,,,,188,0,8,,,,,0,,,77,100
40128,note_on,,,,,0,0,15,,,,,7,,,63,100
40128,note_on,,,,,128,0,15,,,,,7,,,60,100
40128,note_on,,,,,128,0,13,,,,,5,,,53,85
40128,note_on,,,,,4,0,8,,,,,0,,,75,85
40128,note_on,,,,,4,0,9,,,,,1,,,72,85
40128,note_on,,,,,128,0,14,,,,,6,,,41,85
40128,note_on,,,,,128,0,16,,,,,7,,,53,100
40256,note_off,,,,,128,0,15,,,,,7,,,60,100
40256,note_off,,,,,128,0,8,,,,,0,,,75,100
40256,note_off,,,,,128,0,16,,,,,7,,,53,100
40256,note_off,,,,,128,0,9,,,,,1,,,72,100
40256,note_off,,,,,128,0,13,,,,,5,,,53,100
40256,note_off,,,,,128,0,14,,,,,6,,,41,100
40256,note_off,,,,,0,0,15,,,,,7,,,63,100
40320,note_on,,,,,64,0,15,,,,,7,,,65,100
40320,note_on,,,,,64,0,13,,,,,5,,,58,85
40320,note_on,,,,,64,0,8,,,,,0,,,77,85
40320,note_on,,,,,0,0,15,,,,,7,,,62,100
40320,note_on,,,,,64,0,9,,,,,1,,,74,85
40320,note_on,,,,,64,0,16,,,,,7,,,58,100
40320,note_on,,,,,64,0,14,,,,,6,,,46,85
40508,note_off,,,,,188,0,9,,,,,1,,,74,100
40508,note_off,,,,,188,0,8,,,,,0,,,77,100
40512,note_on,,,,,4,0,8,,,,,0,,,75,85
40512,note_on,,,,,4,0,9,,,,,1,,,72,85
40576,note_off,,,,,256,0,14,,,,,6,,,46,100
40576,note_off,,,,,256,0,13,,,,,5,,,58,100
40576,note_off,,,,,256,0,15,,,,,7,,,65,100
40576,note_off,,,,,0,0,15,,,,,7,,,62,100
40576,note_off,,,,,256,0,16,,,,,7,,,58,100
40700,note_off,,,,,188,0,9,,,,,1,,,72,100
40700,note_off,,,,,188,0,8,,,,,0,,,75,100
40704,note_on,,,,,128,0,15,,,,,7,,,58,100
40704,note_on,,,,,0,0,15,,,,,7,,,62,100
40704,note_on,,,,,128,0,13,,,,,5,,,51,85
40704,note_on,,,,,128,0,16,,,,,7,,,51,100
40704,note_on,,,,,4,0,8,,,,,0,,,74,85
40704,note_on,,,,,128,0,14,,,,,6,,,39,85
40704,note_on,,,,,4,0,9,,,,,1,,,70,85
40832,note_off,,,,,128,0,13,,,,,5,,,51,100
40832,note_off,,,,,128,0,16,,,,,7,,,51,100
40832,note_off,,,,,128,0,14,,,,,6,,,39,100
40832,note_off,,,,,128,0,9,,,,,1,,,70,100
40832,note_off,,,,,128,0,8,,,,,0,,,74,100
40832,note_off,,,,,0,0,15,,,,,7,,,62,100
40832,note_off,,,,,128,0,15,,,,,7,,,58,100
40896,note_on,,,,,64,0,13,,,,,5,,,53,85
40896,note_on,,,,,64,0,9,,,,,1,,,70,85
40896,note_on,,,,,64,0,8,,,,,0,,,74,85
40896,note_on,,,,,64,0,16,,,,,7,,,53,100
40896,note_on,,,,,64,0,15,,,,,7,,,62,100
40896,note_on,,,,,64,0,14,,,,,6,,,41,85
40896,note_on,,,,,0,0,15,,,,,7,,,58,100
40940,note_off,,,,,44,0,9,,,,,1,,,70,100
40940,note_off,,,,,44,0,8,,,,,0,,,74,100
40944,note_on,,,,,4,0,9,,,,,1,,,72,85
40944,note_on,,,,,4,0,8,,,,,0,,,75,85
40988,note_off,,,,,44,0,8,,,,,0,,,75,100
40988,note_off,,,,,44,0,9,,,,,1,,,72,100
40992,note_on,,,,,4,0,8,,,,,0,,,74,85
40992,note_on,,,,,4,0,9,,,,,1,,,70,85
41036,note_off,,,,,44,0,9,,,,,1,,,70,100
41036,note_off,,,,,44,0,8,,,,,0,,,74,100
41040,note_on,,,,,4,0,9,,,,,1,,,72,85
41040,note_on,,,,,4,0,8,,,,,0,,,75,85
41084,note_off,,,,,44,0,8,,,,,0,,,75,100
41084,note_off,,,,,44,0,9,,,,,1,,,72,100
41088,note_on,,,,,4,0,9,,,,,1,,,70,85
41088,note_on,,,,,4,0,8,,,,,0,,,74,85
41152,note_off,,,,,0,0,15,,,,,7,,,58,100
41152,note_off,,,,,256,0,14,,,,,6,,,41,100
41152,note_off,,,,,256,0,13,,,,,5,,,53,100
41152,note_off,,,,,256,0,16,,,,,7,,,53,100
41152,note_off,,,,,256,0,15,,,,,7,,,62,100
41216,note_off,,,,,128,0,9,,,,,1,,,70,100
41216,note_off,,,,,128,0,8,,,,,0,,,74,100
41280,note_on,,,,,128,0,15,,,,,7,,,57,100
41280,note_on,,,,,64,0,8,,,,,0,,,72,85
41280,note_on,,,,,64,0,9,,,,,1,,,69,85
41280,note_on,,,,,128,0,14,,,,,6,,,41,85
41280,note_on,,,,,128,0,16,,,,,7,,,41,100
41280,note_on,,,,,0,0,15,,,,,7,,,60,100
41280,note_on,,,,,128,0,13,,,,,5,,,41,85
41408,note_off,,,,,128,0,9,,,,,1,,,69,100
41408,note_off,,,,,128,0,14,,,,,6,,,41,100
41408,note_off,,,,,128,0,13,,,,,5,,,41,100
41408,note_off,,,,,128,0,8,,,,,0,,,72,100
41408,note_off,,,,,128,0,16,,,,,7,,,41,100
41408,note_off,,,,,0,0,15,,,,,7,,,60,100
41408,note_off,,,,,128,0,15,,,,,7,,,57,100
41472,note_on,,,,,64,0,13,,,,,5,,,46,85
41472,note_on,,,,,64,0,14,,,,,6,,,46,85
41472,note_on,,,,,64,0,16,,,,,7,,,58,100
41472,note_on,,,,,0,0,15,,,,,7,,,65,100
41472,note_on,,,,,64,0,15,,,,,7,,,62,100
41472,note_on,,,,,64,0,9,,,,,1,,,70,85
41472,note_on,,,,,64,0,8,,,,,0,,,70,85
41600,note_off,,,,,128,0,14,,,,,6,,,46,100
41600,note_off,,,,,128,0,16,,,,,7,,,58,100
41600,note_off,,,,,128,0,13,,,,,5,,,46,100
41664,note_on,,,,,64,0,16,,,,,7,,,62,100
41664,note_on,,,,,64,0,14,,,,,6,,,50,85
41664,note_on,,,,,64,0,13,,,,,5,,,62,85
41792,note_off,,,,,128,0,13,,,,,5,,,62,100
41792,note_off,,,,,128,0,16,,,,,7,,,62,100
41792,note_off,,,,,128,0,14,,,,,6,,,50,100
41856,note_on,,,,,64,0,16,,,,,7,,,60,100
41856,note_on,,,,,64,0,13,,,,,5,,,60,85
41856,note_on,,,,,64,0,14,,,,,6,,,48,85
41856,note_off,,,,,384,0,15,,,,,7,,,62,100
41856,note_off,,,,,0,0,15,,,,,7,,,65,100
41856,note_off,,,,,384,0,9,,,,,1,,,70,100
41856,note_off,,,,,384,0,8,,,,,0,,,70,100
41984,note_off,,,,,128,0,13,,,,,5,,,60,100
41984,note_off,,,,,128,0,14,,,,,6,,,48,100
41984,note_off,,,,,128,0,16,,,,,7,,,60,100
42048,program_change,,,,,12864,0,11,,,,,3,48,,,
42048,program_change,,,,,12864,0,10,,,,,2,48,,,
42048,note_on,,,,,64,0,13,,,,,5,,,58,85
42048,note_on,,,,,64,0,16,,,,,7,,,58,100
42048,note_on,,,,,64,0,14,,,,,6,,,46,85
42094,note_on,,,,,238,0,15,,,,,7,,,65,100
42142,note_on,,,,,48,0,15,,,,,7,,,70,100
42176,note_off,,,,,128,0,14,,,,,6,,,46,100
42176,note_off,,,,,128,0,16,,,,,7,,,58,100
42176,note_off,,,,,128,0,13,,,,,5,,,58,100
42190,note_on,,,,,48,0,15,,,,,7,,,74,100
42240,note_on,,,,,64,0,13,,,,,5,,,54,85
42240,note_on,,,,,192,0,11,,,,,3,,,74,35
42240,note_on,,,,,13056,0,12,,,,,4,,,69,85
42240,note_on,,,,,192,0,10,,,,,2,,,74,95
42240,note_on,,,,,64,0,16,,,,,7,,,54,100
42240,note_on,,,,,64,0,14,,,,,6,,,42,85
42368,note_off,,,,,128,0,14,,,,,6,,,42,100
42368,note_off,,,,,128,0,13,,,,,5,,,54,100
42368,note_off,,,,,128,0,11,,,,,3,,,74,100
42368,note_off,,,,,128,0,10,,,,,2,,,74,100
42368,note_off,,,,,128,0,12,,,,,4,,,69,100
42368,note_off,,,,,128,0,16,,,,,7,,,54,100
42432,note_on,,,,,64,0,13,,,,,5,,,57,86
42432,note_on,,,,,64,0,14,,,,,6,,,45,86
42432,note_on,,,,,64,0,10,,,,,2,,,72,96
42432,note_on,,,,,64,0,12,,,,,4,,,66,86
42432,note_on,,,,,64,0,16,,,,,7,,,57,100
42432,note_on,,,,,64,0,11,,,,,3,,,72,36
42478,note_off,,,,,288,0,15,,,,,7,,,65,100
42526,note_off,,,,,48,0,15,,,,,7,,,70,100
42560,note_off,,,,,128,0,11,,,,,3,,,72,100
42560,note_off,,,,,128,0,12,,,,,4,,,66,100
42560,note_off,,,,,128,0,16,,,,,7,,,57,100
42560,note_off,,,,,128,0,14,,,,,6,,,45,100
42560,note_off,,,,,128,0,10,,,,,2,,,72,100
42560,note_off,,,,,128,0,13,,,,,5,,,57,100
42574,note_off,,,,,48,0,15,,,,,7,,,74,100
42624,note_on,,,,,64,0,12,,,,,4,,,62,87
42624,note_on,,,,,50,0,15,,,,,7,,,74,100
42624,note_on,,,,,0,0,15,,,,,7,,,70,100
42624,note_on,,,,,64,0,14,,,,,6,,,43,87
42624,note_on,,,,,64,0,10,,,,,2,,,70,97
42624,note_on,,,,,64,0,11,,,,,3,,,70,37
42624,note_on,,,,,64,0,16,,,,,7,,,55,100
42624,note_on,,,,,64,0,13,,,,,5,,,55,87
42812,note_off,,,,,188,0,11,,,,,3,,,70,100
42812,note_off,,,,,188,0,10,,,,,2,,,70,100
42816,note_on,,,,,4,0,10,,,,,2,,,69,98
42816,note_on,,,,,4,0,11,,,,,3,,,69,38
42880,note_off,,,,,256,0,16,,,,,7,,,55,100
42880,note_off,,,,,256,0,13,,,,,5,,,55,100
42880,note_off,,,,,256,0,14,,,,,6,,,43,100
43004,note_off,,,,,188,0,10,,,,,2,,,69,100
43004,note_off,,,,,188,0,11,,,,,3,,,69,100
43008,note_off,,,,,384,0,15,,,,,7,,,74,100
43008,note_on,,,,,128,0,14,,,,,6,,,43,89
43008,note_on,,,,,128,0,16,,,,,7,,,55,100
43008,note_off,,,,,0,0,15,,,,,7,,,70,100
43008,note_on,,,,,4,0,11,,,,,3,,,67,39
43008,note_on,,,,,4,0,10,,,,,2,,,67,99
43008,note_on,,,,,128,0,13,,,,,5,,,43,89
43136,note_off,,,,,128,0,11,,,,,3,,,67,100
43136,note_off,,,,,128,0,10,,,,,2,,,67,100
43136,note_off,,,,,128,0,14,,,,,6,,,43,100
43136,note_off,,,,,128,0,13,,,,,5,,,43,100
43136,note_off,,,,,128,0,16,,,,,7,,,55,100
43200,note_on,,,,,64,0,10,,,,,2,,,71,100
43200,note_on,,,,,64,0,11,,,,,3,,,71,40
43392,note_off,,,,,768,0,12,,,,,4,,,62,100
43392,note_on,,,,,256,0,13,,,,,5,,,55,91
43392,note_on,,,,,256,0,14,,,,,6,,,43,91
43392,note_on,,,,,384,0,15,,,,,7,,,71,100
43392,note_on,,,,,0,0,15,,,,,7,,,74,100
43392,note_on,,,,,256,0,16,,,,,7,,,55,100
43520,note_off,,,,,128,0,13,,,,,5,,,55,100
43520,note_off,,,,,128,0,14,,,,,6,,,43,100
43520,note_off,,,,,128,0,16,,,,,7,,,55,100
43584,note_on,,,,,64,0,16,,,,,7,,,53,100
43584,note_off,,,,,384,0,10,,,,,2,,,71,100
43584,note_on,,,,,64,0,13,,,,,5,,,53,92
43584,note_on,,,,,64,0,14,,,,,6,,,41,92
43584,note_off,,,,,384,0,11,,,,,3,,,71,100
43648,note_off,,,,,0,0,15,,,,,7,,,74,100
43648,note_off,,,,,256,0,15,,,,,7,,,71,100
43712,note_off,,,,,128,0,14,,,,,6,,,41,100
43712,note_off,,,,,128,0,13,,,,,5,,,53,100
43712,note_off,,,,,128,0,16,,,,,7,,,53,100
43776,note_on,,,,,64,0,14,,,,,6,,,39,93
43776,note_on,,,,,0,0,15,,,,,7,,,67,100
43776,note_on,,,,,128,0,15,,,,,7,,,72,100
43776,note_on,,,,,192,0,10,,,,,2,,,72,103
43776,note_on,,,,,64,0,16,,,,,7,,,51,100
43776,note_on,,,,,64,0,13,,,,,5,,,51,93
43776,note_on,,,,,384,0,12,,,,,4,,,67,93
43776,note_on,,,,,192,0,11,,,,,3,,,72,43
43904,note_off,,,,,128,0,13,,,,,5,,,51,100
43904,note_off,,,,,128,0,14,,,,,6,,,39,100
43904,note_off,,,,,128,0,16,,,,,7,,,51,100
43968,note_on,,,,,64,0,14,,,,,6,,,38,94
43968,note_on,,,,,64,0,16,,,,,7,,,50,100
43968,note_on,,,,,64,0,13,,,,,5,,,50,94
44096,note_off,,,,,128,0,13,,,,,5,,,50,100
44096,note_off,,,,,128,0,16,,,,,7,,,50,100
44096,note_off,,,,,128,0,14,,,,,6,,,38,100
44160,note_on,,,,,64,0,14,,,,,6,,,36,95
44160,note_off,,,,,384,0,11,,,,,3,,,72,100
44160,note_on,,,,,64,0,13,,,,,5,,,48,95
44160,note_on,,,,,64,0,16,,,,,7,,,48,100
44160,note_off,,,,,0,0,15,,,,,7,,,67,100
44160,note_off,,,,,384,0,15,,,,,7,,,72,100
44160,note_off,,,,,384,0,10,,,,,2,,,72,100
44288,note_off,,,,,128,0,13,,,,,5,,,48,100
44288,note_off,,,,,128,0,16,,,,,7,,,48,100
44288,note_off,,,,,128,0,14,,,,,6,,,36,100
44352,note_on,,,,,64,0,14,,,,,6,,,40,96
44352,note_on,,,,,192,0,15,,,,,7,,,67,100
44352,note_on,,,,,0,0,15,,,,,7,,,73,100
44352,note_on,,,,,64,0,16,,,,,7,,,52,100
44352,note_on,,,,,192,0,11,,,,,3,,,73,46
44352,note_on,,,,,192,0,10,,,,,2,,,73,106
44352,note_on,,,,,64,0,13,,,,,5,,,52,96
44544,note_off,,,,,768,0,12,,,,,4,,,67,100
44736,note_off,,,,,0,0,15,,,,,7,,,73,100
44736,note_off,,,,,384,0,16,,,,,7,,,52,100
44736,note_off,,,,,384,0,10,,,,,2,,,73,100
44736,note_off,,,,,384,0,15,,,,,7,,,67,100
44736,note_off,,,,,384,0,11,,,,,3,,,73,100
44736,note_off,,,,,384,0,14,,,,,6,,,40,100
44736,note_off,,,,,384,0,13,,,,,5,,,52,100
44928,note_on,,,,,0,0,15,,,,,7,,,69,100
44928,note_on,,,,,192,0,15,,,,,7,,,74,100
44928,note_on,,,,,192,0,14,,,,,6,,,42,99
44928,note_on,,,,,384,0,12,,,,,4,,,69,99
44928,note_on,,,,,192,0,11,,,,,3,,,74,49
44928,note_on,,,,,192,0,16,,,,,7,,,54,100
44928,note_on,,,,,192,0,13,,,,,5,,,54,99
44928,note_on,,,,,192,0,10,,,,,2,,,74,109
45056,note_off,,,,,128,0,16,,,,,7,,,54,100
45056,note_off,,,,,128,0,14,,,,,6,,,42,100
45056,note_off,,,,,128,0,13,,,,,5,,,54,100
45120,note_on,,,,,64,0,16,,,,,7,,,62,100
45120,note_on,,,,,64,0,14,,,,,6,,,50,85
45120,note_on,,,,,64,0,13,,,,,5,,,62,85
45184,note_off,,,,,256,0,11,,,,,3,,,74,100
45184,note_off,,,,,256,0,10,,,,,2,,,74,100
45184,note_off,,,,,256,0,15,,,,,7,,,74,100
45184,note_off,,,,,0,0,15,,,,,7,,,69,100
45248,note_off,,,,,128,0,16,,,,,7,,,62,100
45248,note_off,,,,,128,0,13,,,,,5,,,62,100
45248,note_off,,,,,128,0,14,,,,,6,,,50,100
45312,note_off,,,,,384,0,12,,,,,4,,,69,100
45312,note_on,,,,,128,0,15,,,,,7,,,64,100
45312,note_on,,,,,0,0,15,,,,,7,,,67,100
45312,note_on,,,,,64,0,14,,,,,6,,,48,85
45312,note_on,,,,,128,0,10,,,,,2,,,62,110
45312,note_on,,,,,64,0,13,,,,,5,,,60,85
45312,note_on,,,,,128,0,11,,,,,3,,,62,50
45312,note_on,,,,,64,0,16,,,,,7,,,60,100
45440,note_off,,,,,128,0,15,,,,,7,,,64,100
45440,note_off,,,,,0,0,15,,,,,7,,,67,100
45440,note_off,,,,,128,0,10,,,,,2,,,62,100
45440,note_off,,,,,128,0,16,,,,,7,,,60,100
45440,note_off,,,,,128,0,13,,,,,5,,,60,100
45440,note_off,,,,,128,0,11,,,,,3,,,62,100
45440,note_off,,,,,128,0,14,,,,,6,,,48,100
45504,note_on,,,,,64,0,13,,,,,5,,,59,85
45504,note_on,,,,,64,0,14,,,,,6,,,47,85
45504,note_on,,,,,64,0,15,,,,,7,,,67,100
45504,note_on,,,,,0,0,15,,,,,7,,,74,100
45504,note_on,,,,,64,0,16,,,,,7,,,59,100
45632,note_off,,,,,128,0,13,,,,,5,,,59,100
45632,note_off,,,,,128,0,14,,,,,6,,,47,100
45632,note_off,,,,,128,0,16,,,,,7,,,59,100
45696,note_on,,,,,256,0,11,,,,,3,,,79,35
45696,note_on,,,,,64,0,16,,,,,7,,,55,100
45696,note_on,,,,,256,0,10,,,,,2,,,79,95
45696,note_on,,,,,384,0,12,,,,,4,,,71,85
45696,note_on,,,,,64,0,13,,,,,5,,,55,85
45696,note_on,,,,,64,0,14,,,,,6,,,43,85
45824,note_off,,,,,128,0,16,,,,,7,,,55,100
45824,note_off,,,,,128,0,14,,,,,6,,,43,100
45824,note_off,,,,,128,0,12,,,,,4,,,71,100
45824,note_off,,,,,128,0,11,,,,,3,,,79,100
45824,note_off,,,,,128,0,10,,,,,2,,,79,100
45824,note_off,,,,,128,0,13,,,,,5,,,55,100
45888,note_on,,,,,64,0,10,,,,,2,,,77,96
45888,note_on,,,,,64,0,12,,,,,4,,,74,86
45888,note_on,,,,,64,0,13,,,,,5,,,59,86
45888,note_off,,,,,0,0,15,,,,,7,,,74,100
45888,note_on,,,,,64,0,14,,,,,6,,,47,86
45888,note_on,,,,,64,0,11,,,,,3,,,77,36
45888,note_off,,,,,384,0,15,,,,,7,,,67,100
45888,note_on,,,,,64,0,16,,,,,7,,,59,100
46016,note_off,,,,,128,0,16,,,,,7,,,59,100
46016,note_off,,,,,128,0,14,,,,,6,,,47,100
46016,note_off,,,,,128,0,11,,,,,3,,,77,100
46016,note_off,,,,,128,0,10,,,,,2,,,77,100
46016,note_off,,,,,128,0,13,,,,,5,,,59,100
46016,note_off,,,,,128,0,12,,,,,4,,,74,100
46080,note_on,,,,,64,0,16,,,,,7,,,60,100
46080,note_on,,,,,0,0,15,,,,,7,,,67,100
46080,note_on,,,,,64,0,11,,,,,3,,,75,37
46080,note_on,,,,,64,0,10,,,,,2,,,75,97
46080,note_on,,,,,64,0,12,,,,,4,,,67,87
46080,note_on,,,,,64,0,14,,,,,6,,,48,87
46080,note_on,,,,,192,0,15,,,,,7,,,75,100
46080,note_on,,,,,64,0,13,,,,,5,,,60,87
46268,note_off,,,,,188,0,11,,,,,3,,,75,100
46268,note_off,,,,,188,0,10,,,,,2,,,75,100
46272,note_on,,,,,4,0,11,,,,,3,,,74,38
46272,note_on,,,,,4,0,10,,,,,2,,,74,98
46336,note_off,,,,,256,0,16,,,,,7,,,60,100
46336,note_off,,,,,256,0,14,,,,,6,,,48,100
46336,note_off,,,,,256,0,13,,,,,5,,,60,100
46460,note_off,,,,,188,0,10,,,,,2,,,74,100
46460,note_off,,,,,188,0,11,,,,,3,,,74,100
46464,note_on,,,,,128,0,16,,,,,7,,,48,100
46464,note_off,,,,,384,0,15,,,,,7,,,75,100
46464,note_on,,,,,128,0,14,,,,,6,,,36,89
46464,note_on,,,,,4,0,10,,,,,2,,,72,99
46464,note_off,,,,,0,0,15,,,,,7,,,67,100
46464,note_on,,,,,128,0,13,,,,,5,,,48,89
46464,note_on,,,,,4,0,11,,,,,3,,,72,39
46592,note_off,,,,,128,0,10,,,,,2,,,72,100
46592,note_off,,,,,128,0,14,,,,,6,,,36,100
46592,note_off,,,,,128,0,11,,,,,3,,,72,100
46592,note_off,,,,,128,0,13,,,,,5,,,48,100
46592,note_off,,,,,128,0,16,,,,,7,,,48,100
46656,note_on,,,,,64,0,10,,,,,2,,,76,100
46656,note_on,,,,,64,0,11,,,,,3,,,76,40
46848,note_on,,,,,256,0,14,,,,,6,,,48,91
46848,note_on,,,,,256,0,13,,,,,5,,,60,91
46848,note_off,,,,,768,0,12,,,,,4,,,67,100
46848,note_on,,,,,256,0,16,,,,,7,,,60,100
46848,note_on,,,,,0,0,15,,,,,7,,,76,100
46848,note_on,,,,,384,0,15,,,,,7,,,67,100
46976,note_off,,,,,128,0,16,,,,,7,,,60,100
46976,note_off,,,,,128,0,13,,,,,5,,,60,100
46976,note_off,,,,,128,0,14,,,,,6,,,48,100
47040,note_off,,,,,384,0,10,,,,,2,,,76,100
47040,note_on,,,,,64,0,13,,,,,5,,,58,92
47040,note_on,,,,,64,0,16,,,,,7,,,58,100
47040,note_off,,,,,384,0,11,,,,,3,,,76,100
47040,note_on,,,,,64,0,14,,,,,6,,,46,92
47104,note_off,,,,,0,0,15,,,,,7,,,76,100
47104,note_off,,,,,256,0,15,,,,,7,,,67,100
47168,note_off,,,,,128,0,13,,,,,5,,,58,100
47168,note_off,,,,,128,0,16,,,,,7,,,58,100
47168,note_off,,,,,128,0,14,,,,,6,,,46,100
47232,note_on,,,,,64,0,16,,,,,7,,,56,100
47232,note_on,,,,,64,0,14,,,,,6,,,44,93
47232,note_on,,,,,192,0,10,,,,,2,,,77,103
47232,note_on,,,,,128,0,15,,,,,7,,,65,100
47232,note_on,,,,,384,0,12,,,,,4,,,60,93
47232,note_on,,,,,192,0,11,,,,,3,,,77,43
47232,note_on,,,,,64,0,13,,,,,5,,,56,93
47232,note_on,,,,,0,0,15,,,,,7,,,72,100
47360,note_off,,,,,128,0,14,,,,,6,,,44,100
47360,note_off,,,,,128,0,16,,,,,7,,,56,100
47360,note_off,,,,,128,0,13,,,,,5,,,56,100
47424,note_on,,,,,64,0,13,,,,,5,,,55,94
47424,note_on,,,,,64,0,16,,,,,7,,,55,100
47424,note_on,,,,,64,0,14,,,,,6,,,43,94
47552,note_off,,,,,128,0,16,,,,,7,,,55,100
47552,note_off,,,,,128,0,14,,,,,6,,,43,100
47552,note_off,,,,,128,0,13,,,,,5,,,55,100
47616,note_off,,,,,384,0,15,,,,,7,,,65,100
47616,note_off,,,,,384,0,11,,,,,3,,,77,100
47616,note_on,,,,,64,0,16,,,,,7,,,53,100
47616,note_off,,,,,384,0,10,,,,,2,,,77,100
47616,note_on,,,,,64,0,14,,,,,6,,,41,95
47616,note_on,,,,,64,0,13,,,,,5,,,53,95
47616,note_off,,,,,0,0,15,,,,,7,,,72,100
47744,note_off,,,,,128,0,13,,,,,5,,,53,100
47744,note_off,,,,,128,0,14,,,,,6,,,41,100
47744,note_off,,,,,128,0,16,,,,,7,,,53,100
47808,note_on,,,,,192,0,10,,,,,2,,,78,106
47808,note_on,,,,,0,0,15,,,,,7,,,72,100
47808,note_on,,,,,64,0,16,,,,,7,,,57,100
47808,note_on,,,,,64,0,13,,,,,5,,,57,96
47808,note_on,,,,,64,0,14,,,,,6,,,45,96
47808,note_on,,,,,192,0,11,,,,,3,,,78,46
47808,note_on,,,,,192,0,15,,,,,7,,,66,100
48000,note_off,,,,,768,0,12,,,,,4,,,60,100
48192,note_off,,,,,384,0,15,,,,,7,,,66,100
48192,note_off,,,,,384,0,16,,,,,7,,,57,100
48192,note_off,,,,,384,0,10,,,,,2,,,78,100
48192,note_off,,,,,384,0,11,,,,,3,,,78,100
48192,note_off,,,,,384,0,13,,,,,5,,,57,100
48192,note_off,,,,,384,0,14,,,,,6,,,45,100
48192,note_off,,,,,0,0,15,,,,,7,,,72,100
48384,note_on,,,,,384,0,12,,,,,4,,,62,99
48384,note_on,,,,,192,0,13,,,,,5,,,58,99
48384,note_on,,,,,192,0,14,,,,,6,,,46,99
48384,note_on,,,,,192,0,11,,,,,3,,,79,49
48384,note_on,,,,,192,0,16,,,,,7,,,58,100
48384,note_on,,,,,192,0,15,,,,,7,,,67,100
48384,note_on,,,,,0,0,15,,,,,7,,,74,100
48384,note_on,,,,,192,0,10,,,,,2,,,79,109
48640,note_off,,,,,256,0,10,,,,,2,,,79,100
48640,note_off,,,,,256,0,14,,,,,6,,,46,100
48640,note_off,,,,,256,0,16,,,,,7,,,58,100
48640,note_off,,,,,256,0,15,,,,,7,,,67,100
48640,note_off,,,,,256,0,11,,,,,3,,,79,100
48640,note_off,,,,,256,0,13,,,,,5,,,58,100
48640,note_off,,,,,256,0,12,,,,,4,,,62,100
48640,note_off,,,,,0,0,15,,,,,7,,,74,100
48768,note_on,,,,,128,0,16,,,,,7,,,54,100
48768,note_on,,,,,0,0,15,,,,,7,,,72,100
48768,note_on,,,,,128,0,10,,,,,2,,,74,110
48768,note_on,,,,,128,0,13,,,,,5,,,54,100
48768,note_on,,,,,128,0,11,,,,,3,,,74,50
48768,note_on,,,,,128,0,14,,,,,6,,,42,100
48768,note_on,,,,,128,0,12,,,,,4,,,69,100
48768,note_on,,,,,128,0,15,,,,,7,,,69,100
48896,note_off,,,,,128,0,11,,,,,3,,,74,100
48896,note_off,,,,,128,0,16,,,,,7,,,54,100
48896,note_off,,,,,128,0,14,,,,,6,,,42,100
48896,note_off,,,,,128,0,15,,,,,7,,,69,100
48896,note_off,,,,,0,0,15,,,,,7,,,72,100
48896,note_off,,,,,128,0,13,,,,,5,,,54,100
48896,note_off,,,,,128,0,12,,,,,4,,,69,100
48896,note_off,,,,,128,0,10,,,,,2,,,74,100
48960,note_on,,,,,64,0,10,,,,,2,,,75,110
48960,note_on,,,,,64,0,16,,,,,7,,,55,100
48960,note_on,,,,,64,0,14,,,,,6,,,43,100
48960,note_on,,,,,64,0,12,,,,,4,,,70,100
48960,note_on,,,,,64,0,11,,,,,3,,,75,50
48960,note_on,,,,,64,0,13,,,,,5,,,55,100
48960,note_on,,,,,64,0,15,,,,,7,,,63,100
48960,note_on,,,,,0,0,15,,,,,7,,,74,100
49148,note_off,,,,,188,0,11,,,,,3,,,75,100
49148,note_off,,,,,188,0,10,,,,,2,,,75,100
49152,note_on,,,,,4,0,11,,,,,3,,,74,50
49152,note_on,,,,,4,0,10,,,,,2,,,74,110
49216,note_off,,,,,256,0,12,,,,,4,,,70,100
49216,note_off,,,,,0,0,15,,,,,7,,,74,100
49216,note_off,,,,,256,0,16,,,,,7,,,55,100
49216,note_off,,,,,256,0,15,,,,,7,,,63,100
49216,note_off,,,,,256,0,14,,,,,6,,,43,100
49216,note_off,,,,,256,0,13,,,,,5,,,55,100
49340,note_off,,,,,188,0,11,,,,,3,,,74,100
49340,note_off,,,,,188,0,10,,,,,2,,,74,100
49344,note_on,,,,,4,0,10,,,,,2,,,73,110
49344,note_on,,,,,128,0,12,,,,,4,,,64,100
49344,note_on,,,,,0,0,15,,,,,7,,,73,100
49344,note_on,,,,,128,0,15,,,,,7,,,64,100
49344,note_on,,,,,4,0,11,,,,,3,,,73,50
49344,note_on,,,,,128,0,14,,,,,6,,,45,100
49344,note_on,,,,,128,0,16,,,,,7,,,57,100
49344,note_on,,,,,128,0,13,,,,,5,,,57,100
49472,note_off,,,,,128,0,11,,,,,3,,,73,100
49472,note_off,,,,,128,0,12,,,,,4,,,64,100
49472,note_off,,,,,128,0,16,,,,,7,,,57,100
49472,note_off,,,,,128,0,14,,,,,6,,,45,100
49472,note_off,,,,,128,0,15,,,,,7,,,64,100
49472,note_off,,,,,0,0,15,,,,,7,,,73,100
49472,note_off,,,,,128,0,10,,,,,2,,,73,100
49472,note_off,,,,,128,0,13,,,,,5,,,57,100
49536,note_on,,,,,64,0,11,,,,,3,,,74,50
49536,note_on,,,,,64,0,10,,,,,2,,,74,110
49536,note_on,,,,,64,0,12,,,,,4,,,69,100
49536,note_on,,,,,64,0,13,,,,,5,,,54,100
49536,note_on,,,,,0,0,15,,,,,7,,,69,100
49536,note_on,,,,,64,0,14,,,,,6,,,42,100
49536,note_on,,,,,64,0,16,,,,,7,,,54,100
49536,note_on,,,,,64,0,15,,,,,7,,,74,100
49664,note_off,,,,,128,0,13,,,,,5,,,54,100
49664,note_off,,,,,128,0,14,,,,,6,,,42,100
49664,note_off,,,,,128,0,16,,,,,7,,,54,100
49728,note_on,,,,,64,0,13,,,,,5,,,52,85
49728,note_on,,,,,64,0,14,,,,,6,,,40,85
49728,note_on,,,,,64,0,16,,,,,7,,,52,100
49856,note_off,,,,,128,0,13,,,,,5,,,52,100
49856,note_off,,,,,128,0,14,,,,,6,,,40,100
49856,note_off,,,,,128,0,16,,,,,7,,,52,100
49920,note_off,,,,,384,0,10,,,,,2,,,74,100
49920,note_on,,,,,64,0,16,,,,,7,,,50,100
49920,note_off,,,,,384,0,11,,,,,3,,,74,100
49920,note_on,,,,,64,0,14,,,,,6,,,38,85
49920,note_off,,,,,0,0,15,,,,,7,,,69,100
49920,note_on,,,,,64,0,13,,,,,5,,,50,85
49920,note_off,,,,,384,0,15,,,,,7,,,74,100
49920,note_off,,,,,384,0,12,,,,,4,,,69,100
50048,note_off,,,,,128,0,14,,,,,6,,,38,100
50048,note_off,,,,,128,0,13,,,,,5,,,50,100
50048,note_off,,,,,128,0,16,,,,,7,,,50,100
50112,note_on,,,,,64,0,14,,,,,6,,,43,70
50112,note_on,,,,,0,0,15,,,,,7,,,74,100
50112,note_on,,,,,64,0,16,,,,,7,,,55,100
50112,note_on,,,,,192,0,15,,,,,7,,,63,100
50112,note_on,,,,,192,0,11,,,,,3,,,75,20
50112,note_on,,,,,64,0,13,,,,,5,,,55,70
50112,note_on,,,,,192,0,10,,,,,2,,,75,80
50112,note_on,,,,,192,0,12,,,,,4,,,70,70
50300,note_off,,,,,188,0,10,,,,,2,,,75,100
50300,note_off,,,,,188,0,11,,,,,3,,,75,100
50304,note_on,,,,,4,0,10,,,,,2,,,74,82
50304,note_on,,,,,4,0,11,,,,,3,,,74,22
50368,note_off,,,,,256,0,16,,,,,7,,,55,100
50368,note_off,,,,,256,0,12,,,,,4,,,70,100
50368,note_off,,,,,256,0,15,,,,,7,,,63,100
50368,note_off,,,,,0,0,15,,,,,7,,,74,100
50368,note_off,,,,,256,0,14,,,,,6,,,43,100
50368,note_off,,,,,256,0,13,,,,,5,,,55,100
50492,note_off,,,,,188,0,10,,,,,2,,,74,100
50492,note_off,,,,,188,0,11,,,,,3,,,74,100
50496,note_on,,,,,128,0,12,,,,,4,,,64,75
50496,note_on,,,,,128,0,15,,,,,7,,,64,100
50496,note_on,,,,,128,0,16,,,,,7,,,57,100
50496,note_on,,,,,128,0,14,,,,,6,,,45,75
50496,note_on,,,,,0,0,15,,,,,7,,,73,100
50496,note_on,,,,,4,0,10,,,,,2,,,73,85
50496,note_on,,,,,4,0,11,,,,,3,,,73,25
50496,note_on,,,,,128,0,13,,,,,5,,,57,75
50624,note_off,,,,,128,0,11,,,,,3,,,73,100
50624,note_off,,,,,128,0,13,,,,,5,,,57,100
50624,note_off,,,,,128,0,10,,,,,2,,,73,100
50624,note_off,,,,,128,0,14,,,,,6,,,45,100
50624,note_off,,,,,128,0,16,,,,,7,,,57,100
50624,note_off,,,,,0,0,15,,,,,7,,,73,100
50624,note_off,,,,,128,0,15,,,,,7,,,64,100
50624,note_off,,,,,128,0,12,,,,,4,,,64,100
50688,note_on,,,,,64,0,13,,,,,5,,,54,78
50688,note_on,,,,,64,0,12,,,,,4,,,69,78
50688,note_on,,,,,64,0,11,,,,,3,,,74,28
50688,note_on,,,,,64,0,10,,,,,2,,,74,88
50688,note_on,,,,,64,0,14,,,,,6,,,42,78
50688,note_on,,,,,64,0,16,,,,,7,,,54,100
50688,note_on,,,,,64,0,15,,,,,7,,,74,100
50688,note_on,,,,,0,0,15,,,,,7,,,72,100
50876,note_off,,,,,188,0,11,,,,,3,,,74,100
50876,note_off,,,,,188,0,10,,,,,2,,,74,100
50880,note_on,,,,,4,0,11,,,,,3,,,72,30
50880,note_on,,,,,4,0,10,,,,,2,,,72,90
50944,note_off,,,,,256,0,16,,,,,7,,,54,100
50944,note_off,,,,,256,0,12,,,,,4,,,69,100
50944,note_off,,,,,256,0,15,,,,,7,,,74,100
50944,note_off,,,,,256,0,14,,,,,6,,,42,100
50944,note_off,,,,,0,0,15,,,,,7,,,72,100
50944,note_off,,,,,256,0,13,,,,,5,,,54,100
51068,note_off,,,,,188,0,11,,,,,3,,,72,100
51068,note_off,,,,,188,0,10,,,,,2,,,72,100
51072,note_on,,,,,4,0,10,,,,,2,,,70,93
51072,note_on,,,,,128,0,12,,,,,4,,,62,83
51072,note_on,,,,,128,0,14,,,,,6,,,43,83
51072,note_on,,,,,128,0,16,,,,,7,,,55,100
51072,note_on,,,,,128,0,15,,,,,7,,,70,100
51072,note_on,,,,,4,0,11,,,,,3,,,70,33
51072,note_on,,,,,128,0,13,,,,,5,,,55,83
51072,note_on,,,,,0,0,15,,,,,7,,,74,100
51200,note_off,,,,,128,0,10,,,,,2,,,70,100
51200,note_off,,,,,128,0,16,,,,,7,,,55,100
51200,note_off,,,,,0,0,15,,,,,7,,,74,100
51200,note_off,,,,,128,0,14,,,,,6,,,43,100
51200,note_off,,,,,128,0,13,,,,,5,,,55,100
51200,note_off,,,,,128,0,15,,,,,7,,,70,100
51200,note_off,,,,,128,0,11,,,,,3,,,70,100
51200,note_off,,,,,128,0,12,,,,,4,,,62,100
51264,note_on,,,,,64,0,10,,,,,2,,,69,96
51264,note_on,,,,,0,0,15,,,,,7,,,69,100
51264,note_on,,,,,64,0,15,,,,,7,,,67,100
51264,note_on,,,,,64,0,13,,,,,5,,,49,86
51264,note_on,,,,,64,0,11,,,,,3,,,69,36
51264,note_on,,,,,64,0,14,,,,,6,,,37,86
51264,note_on,,,,,64,0,16,,,,,7,,,49,100
51264,note_on,,,,,64,0,12,,,,,4,,,64,86
51452,note_off,,,,,188,0,11,,,,,3,,,69,100
51452,note_off,,,,,188,0,10,,,,,2,,,69,100
51456,note_on,,,,,4,0,11,,,,,3,,,70,39
51456,note_on,,,,,4,0,10,,,,,2,,,70,99
51644,note_off,,,,,188,0,10,,,,,2,,,70,100
51644,note_off,,,,,188,0,11,,,,,3,,,70,100
51648,note_off,,,,,384,0,12,,,,,4,,,64,100
51648,note_off,,,,,384,0,15,,,,,7,,,67,100
51648,note_off,,,,,384,0,13,,,,,5,,,49,100
51648,note_off,,,,,0,0,15,,,,,7,,,69,100
51648,note_on,,,,,4,0,10,,,,,2,,,67,101
51648,note_off,,,,,384,0,16,,,,,7,,,49,100
51648,note_off,,,,,384,0,14,,,,,6,,,37,100
51648,note_on,,,,,4,0,11,,,,,3,,,67,41
51776,note_off,,,,,128,0,11,,,,,3,,,67,100
51776,note_off,,,,,128,0,10,,,,,2,,,67,100
51840,note_on,,,,,64,0,11,,,,,3,,,66,44
51840,note_on,,,,,64,0,10,,,,,2,,,66,104
51840,note_on,,,,,192,0,14,,,,,6,,,38,94
51840,note_on,,,,,192,0,16,,,,,7,,,50,100
51840,note_on,,,,,0,0,15,,,,,7,,,69,100
51840,note_on,,,,,192,0,13,,,,,5,,,50,94
51840,note_on,,,,,192,0,12,,,,,4,,,57,94
51840,note_on,,,,,192,0,15,,,,,7,,,66,100
51968,note_off,,,,,128,0,10,,,,,2,,,66,100
51968,note_off,,,,,128,0,11,,,,,3,,,66,100
52032,note_on,,,,,64,0,10,,,,,2,,,64,107
52032,note_on,,,,,64,0,11,,,,,3,,,64,47
52160,note_off,,,,,128,0,10,,,,,2,,,64,100
52160,note_off,,,,,128,0,11,,,,,3,,,64,100
52224,note_off,,,,,384,0,15,,,,,7,,,66,100
52224,note_on,,,,,64,0,11,,,,,3,,,62,49
52224,note_off,,,,,384,0,13,,,,,5,,,50,100
52224,note_off,,,,,384,0,14,,,,,6,,,38,100
52224,note_off,,,,,0,0,15,,,,,7,,,69,100
52224,note_off,,,,,384,0,12,,,,,4,,,57,100
52224,note_on,,,,,64,0,10,,,,,2,,,62,109
52224,note_off,,,,,384,0,16,,,,,7,,,50,100
52352,note_off,,,,,128,0,11,,,,,3,,,62,100
52352,note_off,,,,,128,0,10,,,,,2,,,62,100
52416,note_on,,,,,192,0,15,,,,,7,,,66,100
52416,program_change,,,,,10560,0,8,,,,,0,40,,,
52416,note_on,,,,,192,0,14,,,,,6,,,38,85
52416,note_on,,,,,192,0,16,,,,,7,,,50,100
52416,note_on,,,,,0,0,15,,,,,7,,,72,100
52416,program_change,,,,,192,0,13,,,,,5,42,,,
52608,note_on,,,,,192,0,8,,,,,0,,,81,85
52608,note_on,,,,,192,0,13,,,,,5,,,60,85
52736,note_off,,,,,128,0,8,,,,,0,,,81,100
52736,note_off,,,,,128,0,13,,,,,5,,,60,100
52800,note_off,,,,,0,0,15,,,,,7,,,72,100
52800,note_off,,,,,384,0,16,,,,,7,,,50,100
52800,note_off,,,,,384,0,15,,,,,7,,,66,100
52800,note_off,,,,,384,0,14,,,,,6,,,38,100
52800,note_on,,,,,64,0,13,,,,,5,,,58,85
52800,note_on,,,,,64,0,8,,,,,0,,,79,85
52928,note_off,,,,,128,0,13,,,,,5,,,58,100
52928,note_off,,,,,128,0,8,,,,,0,,,79,100
52992,note_on,,,,,64,0,13,,,,,5,,,57,85
52992,note_on,,,,,0,0,15,,,,,7,,,66,100
52992,note_on,,,,,192,0,16,,,,,7,,,50,100
52992,note_on,,,,,64,0,8,,,,,0,,,78,85
52992,note_on,,,,,192,0,15,,,,,7,,,72,100
52992,note_on,,,,,192,0,14,,,,,6,,,38,85
53180,note_off,,,,,188,0,8,,,,,0,,,78,100
53180,note_off,,,,,188,0,13,,,,,5,,,57,100
53184,note_on,,,,,4,0,8,,,,,0,,,81,85
53184,note_on,,,,,4,0,13,,,,,5,,,60,85
53372,note_off,,,,,188,0,8,,,,,0,,,81,100
53372,note_off,,,,,188,0,13,,,,,5,,,60,100
53376,note_off,,,,,384,0,14,,,,,6,,,38,100
53376,note_on,,,,,4,0,13,,,,,5,,,58,85
53376,note_on,,,,,4,0,8,,,,,0,,,79,85
53376,note_off,,,,,0,0,15,,,,,7,,,66,100
53376,note_off,,,,,384,0,15,,,,,7,,,72,100
53376,note_off,,,,,384,0,16,,,,,7,,,50,100
53504,note_off,,,,,128,0,13,,,,,5,,,58,100
53504,note_off,,,,,128,0,8,,,,,0,,,79,100
53568,note_on,,,,,192,0,14,,,,,6,,,38,85
53568,note_on,,,,,192,0,16,,,,,7,,,50,100
53568,note_on,,,,,64,0,8,,,,,0,,,78,85
53568,note_on,,,,,0,0,15,,,,,7,,,66,100
53568,note_on,,,,,192,0,15,,,,,7,,,72,100
53568,note_on,,,,,64,0,13,,,,,5,,,57,85
53756,note_off,,,,,188,0,13,,,,,5,,,57,100
53756,note_off,,,,,188,0,8,,,,,0,,,78,100
53760,note_on,,,,,4,0,13,,,,,5,,,60,85
53760,note_on,,,,,4,0,8,,,,,0,,,81,85
53948,note_off,,,,,188,0,8,,,,,0,,,81,100
53948,note_off,,,,,188,0,13,,,,,5,,,60,100
53952,note_on,,,,,4,0,8,,,,,0,,,79,85
53952,note_off,,,,,0,0,15,,,,,7,,,66,100
53952,note_off,,,,,384,0,15,,,,,7,,,72,100
53952,note_off,,,,,384,0,16,,,,,7,,,50,100
53952,note_on,,,,,4,0,13,,,,,5,,,58,85
53952,note_off,,,,,384,0,14,,,,,6,,,38,100
54080,note_off,,,,,128,0,8,,,,,0,,,79,100
54080,note_off,,,,,128,0,13,,,,,5,,,58,100
54144,note_on,,,,,64,0,13,,,,,5,,,57,85
54144,note_on,,,,,64,0,8,,,,,0,,,78,85
54144,note_on,,,,,192,0,15,,,,,7,,,72,100
54144,note_on,,,,,0,0,15,,,,,7,,,66,100
54144,note_on,,,,,192,0,14,,,,,6,,,38,85
54144,note_on,,,,,192,0,16,,,,,7,,,50,100
54332,note_off,,,,,188,0,8,,,,,0,,,78,100
54332,note_off,,,,,188,0,13,,,,,5,,,57,100
54336,note_on,,,,,4,0,8,,,,,0,,,81,85
54336,note_on,,,,,4,0,13,,,,,5,,,60,85
54524,note_off,,,,,188,0,13,,,,,5,,,60,100
54524,note_off,,,,,188,0,8,,,,,0,,,81,100
54528,note_on,,,,,4,0,8,,,,,0,,,79,85
54528,note_off,,,,,384,0,15,,,,,7,,,72,100
54528,note_off,,,,,0,0,15,,,,,7,,,66,100
54528,note_off,,,,,384,0,14,,,,,6,,,38,100
54528,note_on,,,,,4,0,13,,,,,5,,,58,85
54528,note_off,,,,,384,0,16,,,,,7,,,50,100
54656,note_off,,,,,128,0,8,,,,,0,,,79,100
54656,note_off,,,,,128,0,13,,,,,5,,,58,100
54720,note_on,,,,,192,0,16,,,,,7,,,50,100
54720,note_on,,,,,64,0,8,,,,,0,,,78,85
54720,note_on,,,,,192,0,14,,,,,6,,,38,85
54720,note_on,,,,,0,0,15,,,,,7,,,66,100
54720,note_on,,,,,192,0,15,,,,,7,,,72,100
54720,note_on,,,,,64,0,13,,,,,5,,,57,85
54908,note_off,,,,,188,0,8,,,,,0,,,78,100
54908,note_off,,,,,188,0,13,,,,,5,,,57,100
54912,note_on,,,,,4,0,13,,,,,5,,,60,85
54912,note_on,,,,,4,0,8,,,,,0,,,81,85
55100,note_off,,,,,188,0,13,,,,,5,,,60,100
55100,note_off,,,,,188,0,8,,,,,0,,,81,100
55104,note_off,,,,,0,0,15,,,,,7,,,66,100
55104,note_off,,,,,384,0,14,,,,,6,,,38,100
55104,note_off,,,,,384,0,15,,,,,7,,,72,100
55104,note_on,,,,,4,0,8,,,,,0,,,79,85
55104,note_on,,,,,4,0,13,,,,,5,,,58,85
55104,note_off,,,,,384,0,16,,,,,7,,,50,100
55232,note_off,,,,,128,0,13,,,,,5,,,58,100
55232,note_off,,,,,128,0,8,,,,,0,,,79,100
55296,note_on,,,,,192,0,14,,,,,6,,,38,85
55296,note_on,,,,,0,0,15,,,,,7,,,72,100
55296,note_on,,,,,64,0,8,,,,,0,,,81,85
55296,note_on,,,,,192,0,15,,,,,7,,,66,100
55296,note_on,,,,,192,0,16,,,,,7,,,50,100
55296,note_on,,,,,64,0,13,,,,,5,,,60,85
55680,note_off,,,,,0,0,15,,,,,7,,,72,100
55680,note_off,,,,,384,0,15,,,,,7,,,66,100
55680,note_off,,,,,384,0,14,,,,,6,,,38,100
55680,note_off,,,,,384,0,16,,,,,7,,,50,100
55808,note_off,,,,,512,0,13,,,,,5,,,60,100
55808,note_off,,,,,512,0,8,,,,,0,,,81,100
56064,note_on,,,,,256,0,8,,,,,0,,,79,85
56064,note_on,,,,,256,0,13,,,,,5,,,58,85
56252,note_off,,,,,188,0,13,,,,,5,,,58,100
56252,note_off,,,,,188,0,8,,,,,0,,,79,100
56256,note_on,,,,,4,0,13,,,,,5,,,57,85
56256,note_on,,,,,4,0,8,,,,,0,,,78,85
56384,note_off,,,,,128,0,13,,,,,5,,,57,100
56384,note_off,,,,,128,0,8,,,,,0,,,78,100
56448,note_on,,,,,768,0,14,,,,,6,,,43,85
56448,note_on,,,,,0,0,15,,,,,7,,,74,100
56448,note_on,,,,,768,0,15,,,,,7,,,70,100
56448,note_on,,,,,768,0,16,,,,,7,,,55,100
56448,note_on,,,,,64,0,13,,,,,5,,,62,85
56448,note_on,,,,,64,0,8,,,,,0,,,82,85
56832,note_off,,,,,384,0,16,,,,,7,,,55,100
56832,note_off,,,,,384,0,14,,,,,6,,,43,100
56832,note_off,,,,,0,0,15,,,,,7,,,74,100
56832,note_off,,,,,384,0,15,,,,,7,,,70,100
56960,note_off,,,,,512,0,13,,,,,5,,,62,100
56960,note_off,,,,,512,0,8,,,,,0,,,82,100
57216,note_on,,,,,256,0,13,,,,,5,,,60,85
57216,note_on,,,,,256,0,8,,,,,0,,,81,85
57404,note_off,,,,,188,0,13,,,,,5,,,60,100
57404,note_off,,,,,188,0,8,,,,,0,,,81,100
57408,note_on,,,,,4,0,13,,,,,5,,,58,85
57408,note_on,,,,,4,0,8,,,,,0,,,79,85
57536,note_off,,,,,128,0,13,,,,,5,,,58,100
57536,note_off,,,,,128,0,8,,,,,0,,,79,100
57600,note_on,,,,,768,0,16,,,,,7,,,63,100
57600,note_on,,,,,64,0,13,,,,,5,,,63,85
57600,note_on,,,,,768,0,15,,,,,7,,,72,100
57600,note_on,,,,,0,0,15,,,,,7,,,67,100
57600,note_on,,,,,768,0,14,,,,,6,,,51,85
57600,note_on,,,,,64,0,8,,,,,0,,,84,85
57788,note_off,,,,,188,0,13,,,,,5,,,63,100
57788,note_off,,,,,188,0,8,,,,,0,,,84,100
57792,note_on,,,,,4,0,13,,,,,5,,,62,85
57792,note_on,,,,,4,0,8,,,,,0,,,82,85
57980,note_off,,,,,188,0,13,,,,,5,,,62,100
57980,note_off,,,,,188,0,8,,,,,0,,,82,100
57984,note_on,,,,,4,0,8,,,,,0,,,84,85
57984,note_off,,,,,384,0,16,,,,,7,,,63,100
57984,note_on,,,,,4,0,13,,,,,5,,,63,85
57984,note_off,,,,,384,0,14,,,,,6,,,51,100
57984,note_off,,,,,0,0,15,,,,,7,,,67,100
57984,note_off,,,,,384,0,15,,,,,7,,,72,100
58112,note_off,,,,,128,0,13,,,,,5,,,63,100
58112,note_off,,,,,128,0,8,,,,,0,,,84,100
58176,note_on,,,,,192,0,16,,,,,7,,,54,100
58176,note_on,,,,,0,0,15,,,,,7,,,63,100
58176,note_on,,,,,192,0,15,,,,,7,,,72,100
58176,note_on,,,,,64,0,13,,,,,5,,,60,85
58176,note_on,,,,,192,0,14,,,,,6,,,42,85
58176,note_on,,,,,64,0,8,,,,,0,,,81,85
58364,note_off,,,,,188,0,13,,,,,5,,,60,100
58364,note_off,,,,,188,0,8,,,,,0,,,81,100
58368,note_on,,,,,4,0,8,,,,,0,,,82,85
58368,note_on,,,,,4,0,13,,,,,5,,,62,85
58556,note_off,,,,,188,0,13,,,,,5,,,62,100
58556,note_off,,,,,188,0,8,,,,,0,,,82,100
58560,note_off,,,,,384,0,16,,,,,7,,,54,100
58560,note_on,,,,,4,0,13,,,,,5,,,63,85
58560,note_off,,,,,384,0,15,,,,,7,,,72,100
58560,note_off,,,,,384,0,14,,,,,6,,,42,100
58560,note_on,,,,,4,0,8,,,,,0,,,84,85
58560,note_off,,,,,0,0,15,,,,,7,,,63,100
58688,note_off,,,,,128,0,8,,,,,0,,,84,100
58688,note_off,,,,,128,0,13,,,,,5,,,63,100
58752,note_on,,,,,192,0,16,,,,,7,,,55,100
58752,note_on,,,,,192,0,15,,,,,7,,,74,100
58752,note_on,,,,,192,0,14,,,,,6,,,43,85
58752,note_on,,,,,6528,0,12,,,,,4,,,67,85
58752,note_on,,,,,0,0,15,,,,,7,,,70,100
58752,note_on,,,,,6400,0,11,,,,,3,,,70,85
58752,note_on,,,,,64,0,13,,,,,5,,,62,85
58752,note_on,,,,,64,0,8,,,,,0,,,82,85
58752,note_on,,,,,6400,0,10,,,,,2,,,74,85
58752,note_on,,,,,0,0,12,,,,,4,,,70,85
58940,note_off,,,,,188,0,13,,,,,5,,,62,100
58940,note_off,,,,,188,0,8,,,,,0,,,82,100
58944,note_on,,,,,4,0,13,,,,,5,,,60,85
58944,note_on,,,,,4,0,8,,,,,0,,,81,85
59132,note_off,,,,,188,0,8,,,,,0,,,81,100
59132,note_off,,,,,188,0,13,,,,,5,,,60,100
59136,note_off,,,,,384,0,14,,,,,6,,,43,100
59136,note_off,,,,,384,0,16,,,,,7,,,55,100
59136,note_off,,,,,384,0,12,,,,,4,,,67,100
59136,note_off,,,,,0,0,12,,,,,4,,,70,100
59136,note_on,,,,,4,0,8,,,,,0,,,82,85
59136,note_on,,,,,4,0,13,,,,,5,,,62,85
59136,note_off,,,,,384,0,10,,,,,2,,,74,100
59136,note_off,,,,,384,0,11,,,,,3,,,70,100
59136,note_off,,,,,384,0,15,,,,,7,,,74,100
59136,note_off,,,,,0,0,15,,,,,7,,,70,100
59264,note_off,,,,,128,0,8,,,,,0,,,82,100
59264,note_off,,,,,128,0,13,,,,,5,,,62,100
59328,note_on,,,,,64,0,13,,,,,5,,,58,85
59328,note_on,,,,,64,0,8,,,,,0,,,79,85
59516,note_off,,,,,188,0,8,,,,,0,,,79,100
59516,note_off,,,,,188,0,13,,,,,5,,,58,100
59520,note_on,,,,,4,0,13,,,,,5,,,60,85
59520,note_on,,,,,4,0,8,,,,,0,,,81,85
59708,note_off,,,,,188,0,8,,,,,0,,,81,100
59708,note_off,,,,,188,0,13,,,,,5,,,60,100
59712,note_on,,,,,4,0,13,,,,,5,,,62,85
59712,note_on,,,,,4,0,8,,,,,0,,,82,85
59840,note_off,,,,,128,0,8,,,,,0,,,82,100
59840,note_off,,,,,128,0,13,,,,,5,,,62,100
59904,note_on,,,,,768,0,16,,,,,7,,,54,100
59904,note_on,,,,,768,0,10,,,,,2,,,75,60
59904,note_on,,,,,64,0,8,,,,,0,,,84,60
59904,note_on,,,,,768,0,12,,,,,4,,,69,60
59904,note_on,,,,,0,0,15,,,,,7,,,72,100
59904,note_on,,,,,768,0,15,,,,,7,,,63,100
59904,note_on,,,,,0,0,12,,,,,4,,,60,60
59904,note_on,,,,,768,0,11,,,,,3,,,69,60
59904,note_on,,,,,768,0,14,,,,,6,,,42,60
59904,note_on,,,,,64,0,13,,,,,5,,,63,60
60092,note_off,,,,,188,0,13,,,,,5,,,63,100
60092,note_off,,,,,188,0,8,,,,,0,,,84,100
60096,note_on,,,,,4,0,13,,,,,5,,,62,63
60096,note_on,,,,,4,0,8,,,,,0,,,82,63
60284,note_off,,,,,188,0,8,,,,,0,,,82,100
60284,note_off,,,,,188,0,13,,,,,5,,,62,100
60288,note_off,,,,,384,0,12,,,,,4,,,69,100
60288,note_off,,,,,384,0,15,,,,,7,,,63,100
60288,note_off,,,,,0,0,15,,,,,7,,,72,100
60288,note_off,,,,,384,0,11,,,,,3,,,69,100
60288,note_on,,,,,4,0,13,,,,,5,,,63,66
60288,note_off,,,,,384,0,10,,,,,2,,,75,100
60288,note_off,,,,,384,0,14,,,,,6,,,42,100
60288,note_off,,,,,0,0,12,,,,,4,,,60,100
60288,note_off,,,,,384,0,16,,,,,7,,,54,100
60288,note_on,,,,,4,0,8,,,,,0,,,84,66
60416,note_off,,,,,128,0,13,,,,,5,,,63,100
60416,note_off,,,,,128,0,8,,,,,0,,,84,100
60480,note_on,,,,,64,0,13,,,,,5,,,60,69
60480,note_on,,,,,64,0,8,,,,,0,,,81,69
60668,note_off,,,,,188,0,8,,,,,0,,,81,100
60668,note_off,,,,,188,0,13,,,,,5,,,60,100
60672,note_on,,,,,4,0,8,,,,,0,,,82,73
60672,note_on,,,,,4,0,13,,,,,5,,,62,73
60860,note_off,,,,,188,0,13,,,,,5,,,62,100
60860,note_off,,,,,188,0,8,,,,,0,,,82,100
60864,note_on,,,,,4,0,8,,,,,0,,,84,76
60864,note_on,,,,,4,0,13,,,,,5,,,63,76
60992,note_off,,,,,128,0,8,,,,,0,,,84,100
60992,note_off,,,,,128,0,13,,,,,5,,,63,100
61056,note_on,,,,,768,0,16,,,,,7,,,55,100
61056,note_on,,,,,768,0,12,,,,,4,,,70,79
61056,note_on,,,,,0,0,12,,,,,4,,,67,79
61056,note_on,,,,,64,0,8,,,,,0,,,82,79
61056,note_on,,,,,768,0,15,,,,,7,,,70,100
61056,note_on,,,,,0,0,15,,,,,7,,,74,100
61056,note_on,,,,,768,0,14,,,,,6,,,43,79
61056,note_on,,,,,64,0,13,,,,,5,,,62,79
61056,note_on,,,,,768,0,10,,,,,2,,,74,79
61056,note_on,,,,,768,0,11,,,,,3,,,70,79
61244,note_off,,,,,188,0,8,,,,,0,,,82,100
61244,note_off,,,,,188,0,13,,,,,5,,,62,100
61248,note_on,,,,,4,0,8,,,,,0,,,81,83
61248,note_on,,,,,4,0,13,,,,,5,,,60,83
61436,note_off,,,,,188,0,8,,,,,0,,,81,100
61436,note_off,,,,,188,0,13,,,,,5,,,60,100
61440,note_on,,,,,4,0,13,,,,,5,,,62,86
61440,note_off,,,,,0,0,12,,,,,4,,,67,100
61440,note_off,,,,,384,0,15,,,,,7,,,70,100
61440,note_off,,,,,0,0,15,,,,,7,,,74,100
61440,note_off,,,,,384,0,10,,,,,2,,,74,100
61440,note_off,,,,,384,0,16,,,,,7,,,55,100
61440,note_off,,,,,384,0,12,,,,,4,,,70,100
61440,note_off,,,,,384,0,11,,,,,3,,,70,100
61440,note_off,,,,,384,0,14,,,,,6,,,43,100
61440,note_on,,,,,4,0,8,,,,,0,,,82,86
61568,note_off,,,,,128,0,8,,,,,0,,,82,100
61568,note_off,,,,,128,0,13,,,,,5,,,62,100
61632,note_on,,,,,64,0,13,,,,,5,,,58,89
61632,note_on,,,,,64,0,8,,,,,0,,,79,89
61820,note_off,,,,,188,0,8,,,,,0,,,79,100
61820,note_off,,,,,188,0,13,,,,,5,,,58,100
61824,note_on,,,,,4,0,8,,,,,0,,,81,93
61824,note_on,,,,,4,0,13,,,,,5,,,60,93
62012,note_off,,,,,188,0,13,,,,,5,,,60,100
62012,note_off,,,,,188,0,8,,,,,0,,,81,100
62016,note_on,,,,,4,0,8,,,,,0,,,82,96
62016,note_on,,,,,4,0,13,,,,,5,,,62,96
62144,note_off,,,,,128,0,8,,,,,0,,,82,100
62144,note_off,,,,,128,0,13,,,,,5,,,62,100
62208,note_on,,,,,768,0,16,,,,,7,,,54,100
62208,note_on,,,,,64,0,8,,,,,0,,,84,99
62208,note_on,,,,,64,0,13,,,,,5,,,63,99
62208,note_on,,,,,768,0,10,,,,,2,,,75,99
62208,note_on,,,,,768,0,11,,,,,3,,,69,99
62208,note_on,,,,,768,0,15,,,,,7,,,63,100
62208,note_on,,,,,0,0,15,,,,,7,,,72,100
62208,note_on,,,,,768,0,14,,,,,6,,,42,99
62208,note_on,,,,,0,0,12,,,,,4,,,60,99
62208,note_on,,,,,768,0,12,,,,,4,,,69,99
62396,note_off,,,,,188,0,8,,,,,0,,,84,100
62396,note_off,,,,,188,0,13,,,,,5,,,63,100
62400,note_on,,,,,4,0,8,,,,,0,,,82,100
62400,note_on,,,,,4,0,13,,,,,5,,,62,100
62588,note_off,,,,,188,0,8,,,,,0,,,82,100
62588,note_off,,,,,188,0,13,,,,,5,,,62,100
62592,note_off,,,,,384,0,15,,,,,7,,,63,100
62592,note_off,,,,,384,0,12,,,,,4,,,69,100
62592,note_off,,,,,384,0,11,,,,,3,,,69,100
62592,note_off,,,,,384,0,14,,,,,6,,,42,100
62592,note_on,,,,,4,0,13,,,,,5,,,63,100
62592,note_off,,,,,0,0,12,,,,,4,,,60,100
62592,note_off,,,,,384,0,16,,,,,7,,,54,100
62592,note_off,,,,,384,0,10,,,,,2,,,75,100
62592,note_on,,,,,4,0,8,,,,,0,,,84,100
62592,note_off,,,,,0,0,15,,,,,7,,,72,100
62720,note_off,,,,,128,0,13,,,,,5,,,63,100
62720,note_off,,,,,128,0,8,,,,,0,,,84,100
62784,note_on,,,,,64,0,8,,,,,0,,,81,100
62784,note_on,,,,,64,0,13,,,,,5,,,60,100
62972,note_off,,,,,188,0,8,,,,,0,,,81,100
62972,note_off,,,,,188,0,13,,,,,5,,,60,100
62976,note_on,,,,,4,0,8,,,,,0,,,82,100
62976,note_on,,,,,4,0,13,,,,,5,,,62,100
63164,note_off,,,,,188,0,8,,,,,0,,,82,100
63164,note_off,,,,,188,0,13,,,,,5,,,62,100
63168,note_on,,,,,4,0,8,,,,,0,,,84,100
63168,note_on,,,,,4,0,13,,,,,5,,,63,100
63296,note_off,,,,,128,0,13,,,,,5,,,63,100
63296,note_off,,,,,128,0,8,,,,,0,,,84,100
63360,note_on,,,,,768,0,15,,,,,7,,,62,100
63360,note_on,,,,,768,0,10,,,,,2,,,74,100
63360,note_on,,,,,0,0,15,,,,,7,,,70,100
63360,note_on,,,,,768,0,11,,,,,3,,,70,100
63360,note_on,,,,,64,0,8,,,,,0,,,82,100
63360,note_on,,,,,768,0,16,,,,,7,,,55,100
63360,note_on,,,,,0,0,12,,,,,4,,,67,100
63360,note_on,,,,,768,0,12,,,,,4,,,70,100
63360,note_on,,,,,64,0,13,,,,,5,,,62,100
63360,note_on,,,,,768,0,14,,,,,6,,,43,100
63548,note_off,,,,,188,0,8,,,,,0,,,82,100
63552,note_on,,,,,4,0,8,,,,,0,,,81,100
63740,note_off,,,,,188,0,8,,,,,0,,,81,100
63744,note_off,,,,,384,0,10,,,,,2,,,74,100
63744,program_change,,,,,0,0,13,,,,,5,48,,,
63744,note_on,,,,,4,0,8,,,,,0,,,82,100
63744,note_off,,,,,384,0,14,,,,,6,,,43,100
63744,note_off,,,,,0,0,12,,,,,4,,,67,100
63744,note_off,,,,,384,0,12,,,,,4,,,70,100
63744,note_off,,,,,384,0,15,,,,,7,,,62,100
63744,note_off,,,,,0,0,15,,,,,7,,,70,100
63744,note_off,,,,,384,0,13,,,,,5,,,62,100
63744,note_off,,,,,384,0,16,,,,,7,,,55,100
63744,note_off,,,,,384,0,11,,,,,3,,,70,100
63872,note_off,,,,,128,0,8,,,,,0,,,82,100
63936,note_on,,,,,192,0,14,,,,,6,,,45,100
63936,note_on,,,,,0,0,15,,,,,7,,,72,100
63936,note_on,,,,,64,0,8,,,,,0,,,81,100
63936,note_on,,,,,192,0,16,,,,,7,,,57,100
63936,note_on,,,,,192,0,15,,,,,7,,,64,100
63936,note_on,,,,,192,0,13,,,,,5,,,57,100
64124,note_off,,,,,188,0,8,,,,,0,,,81,100
64128,note_on,,,,,4,0,8,,,,,0,,,79,100
64316,note_off,,,,,188,0,8,,,,,0,,,79,100
64320,note_off,,,,,384,0,16,,,,,7,,,57,100
64320,note_off,,,,,384,0,15,,,,,7,,,64,100
64320,note_off,,,,,0,0,15,,,,,7,,,72,100
64320,note_off,,,,,384,0,14,,,,,6,,,45,100
64320,note_on,,,,,4,0,8,,,,,0,,,81,100
64320,note_off,,,,,384,0,13,,,,,5,,,57,100
64448,note_off,,,,,128,0,8,,,,,0,,,81,100
64512,note_on,,,,,192,0,15,,,,,7,,,67,100
64512,note_on,,,,,192,0,16,,,,,7,,,58,100
64512,note_on,,,,,0,0,15,,,,,7,,,74,100
64512,note_on,,,,,192,0,13,,,,,5,,,58,100
64512,note_on,,,,,192,0,14,,,,,6,,,46,100
64512,note_on,,,,,64,0,8,,,,,0,,,79,100
64700,note_off,,,,,188,0,8,,,,,0,,,79,100
64704,note_on,,,,,4,0,8,,,,,0,,,77,99
64892,note_off,,,,,188,0,8,,,,,0,,,77,100
64896,note_off,,,,,384,0,13,,,,,5,,,58,100
64896,note_off,,,,,384,0,14,,,,,6,,,46,100
64896,note_off,,,,,384,0,15,,,,,7,,,67,100
64896,note_off,,,,,384,0,16,,,,,7,,,58,100
64896,note_off,,,,,0,0,15,,,,,7,,,74,100
64896,note_on,,,,,4,0,8,,,,,0,,,79,97
65024,note_off,,,,,128,0,8,,,,,0,,,79,100
65088,note_on,,,,,192,0,14,,,,,6,,,47,100
65088,note_on,,,,,0,0,15,,,,,7,,,67,100
65088,note_on,,,,,192,0,15,,,,,7,,,65,100
65088,note_on,,,,,192,0,16,,,,,7,,,59,100
65088,note_on,,,,,192,0,13,,,,,5,,,59,100
65088,note_on,,,,,64,0,8,,,,,0,,,77,95
65276,note_off,,,,,188,0,8,,,,,0,,,77,100
65280,note_on,,,,,4,0,8,,,,,0,,,76,93
65468,note_off,,,,,188,0,8,,,,,0,,,76,100
65472,note_on,,,,,4,0,8,,,,,0,,,77,91
65472,note_off,,,,,384,0,14,,,,,6,,,47,100
65472,note_off,,,,,0,0,15,,,,,7,,,67,100
65472,note_off,,,,,384,0,16,,,,,7,,,59,100
65472,note_off,,,,,384,0,13,,,,,5,,,59,100
65472,note_off,,,,,384,0,15,,,,,7,,,65,100
65600,note_off,,,,,128,0,8,,,,,0,,,77,100
65664,note_on,,,,,192,0,15,,,,,7,,,64,100
65664,note_on,,,,,0,0,15,,,,,7,,,67,100
65664,note_on,,,,,192,0,16,,,,,7,,,60,100
65664,note_on,,,,,192,0,14,,,,,6,,,48,100
65664,note_on,,,,,192,0,13,,,,,5,,,60,100
65664,note_on,,,,,64,0,8,,,,,0,,,76,89
65852,note_off,,,,,188,0,8,,,,,0,,,76,100
65856,note_on,,,,,4,0,8,,,,,0,,,74,87
66044,note_off,,,,,188,0,8,,,,,0,,,74,100
66048,note_on,,,,,4,0,8,,,,,0,,,76,85
66048,note_off,,,,,384,0,14,,,,,6,,,48,100
66048,note_off,,,,,0,0,15,,,,,7,,,67,100
66048,note_off,,,,,384,0,15,,,,,7,,,64,100
66048,note_off,,,,,384,0,16,,,,,7,,,60,100
66048,note_off,,,,,384,0,13,,,,,5,,,60,100
66176,note_off,,,,,128,0,8,,,,,0,,,76,100
66240,note_on,,,,,64,0,8,,,,,0,,,76,85
66428,note_off,,,,,188,0,8,,,,,0,,,76,100
66432,note_on,,,,,4,0,8,,,,,0,,,77,85
66620,note_off,,,,,188,0,8,,,,,0,,,77,100
66624,note_on,,,,,4,0,8,,,,,0,,,79,85
66752,note_off,,,,,128,0,8,,,,,0,,,79,100
66816,note_on,,,,,64,0,8,,,,,0,,,81,86
66816,note_on,,,,,768,0,13,,,,,5,,,61,100
66816,note_on,,,,,768,0,16,,,,,7,,,61,100
66816,note_on,,,,,768,0,15,,,,,7,,,76,100
66816,note_on,,,,,0,0,15,,,,,7,,,69,100
66816,note_on,,,,,768,0,14,,,,,6,,,49,100
67004,note_off,,,,,188,0,8,,,,,0,,,81,100
67008,note_on,,,,,4,0,8,,,,,0,,,79,86
67196,note_off,,,,,188,0,8,,,,,0,,,79,100
67200,note_off,,,,,384,0,13,,,,,5,,,61,100
67200,note_on,,,,,4,0,8,,,,,0,,,81,86
67200,note_off,,,,,384,0,15,,,,,7,,,76,100
67200,note_off,,,,,0,0,15,,,,,7,,,69,100
67200,note_off,,,,,384,0,14,,,,,6,,,49,100
67200,note_off,,,,,384,0,16,,,,,7,,,61,100
67328,note_off,,,,,128,0,8,,,,,0,,,81,100
67392,note_on,,,,,64,0,8,,,,,0,,,79,87
67392,note_on,,,,,192,0,15,,,,,7,,,67,100
67392,note_on,,,,,0,0,15,,,,,7,,,69,100
67392,note_on,,,,,192,0,13,,,,,5,,,49,100
67392,note_on,,,,,192,0,14,,,,,6,,,37,100
67392,note_on,,,,,192,0,16,,,,,7,,,49,100
67580,note_off,,,,,188,0,8,,,,,0,,,79,100
67584,note_on,,,,,4,0,8,,,,,0,,,78,87
67772,note_off,,,,,188,0,8,,,,,0,,,78,100
67776,note_off,,,,,384,0,13,,,,,5,,,49,100
67776,note_off,,,,,384,0,14,,,,,6,,,37,100
67776,note_off,,,,,0,0,15,,,,,7,,,69,100
67776,note_off,,,,,384,0,15,,,,,7,,,67,100
67776,note_on,,,,,4,0,8,,,,,0,,,79,87
67776,note_off,,,,,384,0,16,,,,,7,,,49,100
67904,note_off,,,,,128,0,8,,,,,0,,,79,100
67968,note_on,,,,,192,0,13,,,,,5,,,50,100
67968,note_on,,,,,192,0,14,,,,,6,,,38,100
67968,note_on,,,,,192,0,15,,,,,7,,,65,100
67968,note_on,,,,,0,0,15,,,,,7,,,69,100
67968,note_on,,,,,64,0,8,,,,,0,,,78,88
67968,note_on,,,,,192,0,16,,,,,7,,,50,100
68156,note_off,,,,,188,0,8,,,,,0,,,78,100
68160,note_on,,,,,4,0,8,,,,,0,,,76,88
68348,note_off,,,,,188,0,8,,,,,0,,,76,100
68352,note_off,,,,,384,0,15,,,,,7,,,65,100
68352,note_off,,,,,0,0,15,,,,,7,,,69,100
68352,note_off,,,,,384,0,14,,,,,6,,,38,100
68352,note_off,,,,,384,0,13,,,,,5,,,50,100
68352,note_off,,,,,384,0,16,,,,,7,,,50,100
68352,note_on,,,,,4,0,8,,,,,0,,,78,88
68480,note_off,,,,,128,0,8,,,,,0,,,78,100
68544,note_on,,,,,64,0,8,,,,,0,,,78,89
68732,note_off,,,,,188,0,8,,,,,0,,,78,100
68736,note_on,,,,,4,0,8,,,,,0,,,79,89
68924,note_off,,,,,188,0,8,,,,,0,,,79,100
68928,note_on,,,,,4,0,8,,,,,0,,,81,89
69056,note_off,,,,,128,0,8,,,,,0,,,81,100
69120,note_on,,,,,768,0,13,,,,,5,,,62,100
69120,note_on,,,,,768,0,16,,,,,7,,,62,100
69120,note_on,,,,,768,0,15,,,,,7,,,70,100
69120,note_on,,,,,0,0,15,,,,,7,,,65,100
69120,note_on,,,,,64,0,8,,,,,0,,,82,89
69120,note_on,,,,,768,0,14,,,,,6,,,50,100
69308,note_off,,,,,188,0,8,,,,,0,,,82,100
69312,note_on,,,,,4,0,8,,,,,0,,,81,90
69500,note_off,,,,,188,0,8,,,,,0,,,81,100
69504,note_off,,,,,384,0,16,,,,,7,,,62,100
69504,note_on,,,,,4,0,8,,,,,0,,,82,90
69504,note_off,,,,,384,0,15,,,,,7,,,70,100
69504,note_off,,,,,0,0,15,,,,,7,,,65,100
69504,note_off,,,,,384,0,14,,,,,6,,,50,100
69504,note_off,,,,,384,0,13,,,,,5,,,62,100
69632,note_off,,,,,128,0,8,,,,,0,,,82,100
69696,note_on,,,,,0,0,15,,,,,7,,,70,100
69696,note_on,,,,,64,0,8,,,,,0,,,81,90
69696,note_on,,,,,192,0,13,,,,,5,,,50,100
69696,note_on,,,,,192,0,15,,,,,7,,,69,100
69696,note_on,,,,,192,0,14,,,,,6,,,38,100
69696,note_on,,,,,192,0,16,,,,,7,,,50,100
69884,note_off,,,,,188,0,8,,,,,0,,,81,100
69888,note_on,,,,,4,0,8,,,,,0,,,79,91
70076,note_off,,,,,188,0,8,,,,,0,,,79,100
70080,note_off,,,,,0,0,15,,,,,7,,,70,100
70080,note_off,,,,,384,0,15,,,,,7,,,69,100
70080,note_off,,,,,384,0,14,,,,,6,,,38,100
70080,note_off,,,,,384,0,13,,,,,5,,,50,100
70080,note_off,,,,,384,0,16,,,,,7,,,50,100
70080,note_on,,,,,4,0,8,,,,,0,,,81,91
70208,note_off,,,,,128,0,8,,,,,0,,,81,100
70272,note_on,,,,,0,0,15,,,,,7,,,70,100
70272,note_on,,,,,64,0,8,,,,,0,,,79,91
70272,note_on,,,,,192,0,13,,,,,5,,,51,100
70272,note_on,,,,,192,0,14,,,,,6,,,39,100
70272,note_on,,,,,192,0,15,,,,,7,,,67,100
70272,note_on,,,,,192,0,16,,,,,7,,,51,100
70460,note_off,,,,,188,0,8,,,,,0,,,79,100
70464,note_on,,,,,4,0,8,,,,,0,,,78,92
70652,note_off,,,,,188,0,8,,,,,0,,,78,100
70656,note_on,,,,,4,0,8,,,,,0,,,79,92
70656,note_off,,,,,384,0,15,,,,,7,,,67,100
70656,note_off,,,,,384,0,16,,,,,7,,,51,100
70656,note_off,,,,,384,0,13,,,,,5,,,51,100
70656,note_off,,,,,0,0,15,,,,,7,,,70,100
70656,note_off,,,,,384,0,14,,,,,6,,,39,100
70784,note_off,,,,,128,0,8,,,,,0,,,79,100
70848,note_on,,,,,64,0,8,,,,,0,,,79,92
71036,note_off,,,,,188,0,8,,,,,0,,,79,100
71040,note_on,,,,,4,0,8,,,,,0,,,81,93
71228,note_off,,,,,188,0,8,,,,,0,,,81,100
71232,note_on,,,,,4,0,8,,,,,0,,,82,93
71360,note_off,,,,,128,0,8,,,,,0,,,82,100
71424,note_on,,,,,768,0,14,,,,,6,,,52,100
71424,note_on,,,,,0,0,15,,,,,7,,,67,100
71424,note_on,,,,,64,0,8,,,,,0,,,84,93
71424,note_on,,,,,768,0,13,,,,,5,,,64,100
71424,note_on,,,,,768,0,16,,,,,7,,,64,100
71424,note_on,,,,,768,0,15,,,,,7,,,72,100
71612,note_off,,,,,188,0,8,,,,,0,,,84,100
71616,note_on,,,,,4,0,8,,,,,0,,,82,94
71804,note_off,,,,,188,0,8,,,,,0,,,82,100
71808,note_off,,,,,384,0,15,,,,,7,,,72,100
71808,note_off,,,,,0,0,15,,,,,7,,,67,100
71808,note_off,,,,,384,0,13,,,,,5,,,64,100
71808,note_off,,,,,384,0,16,,,,,7,,,64,100
71808,note_on,,,,,4,0,8,,,,,0,,,84,94
71808,note_off,,,,,384,0,14,,,,,6,,,52,100
71936,note_off,,,,,128,0,8,,,,,0,,,84,100
72000,note_on,,,,,192,0,14,,,,,6,,,40,100
72000,note_on,,,,,192,0,13,,,,,5,,,52,100
72000,note_on,,,,,192,0,16,,,,,7,,,52,100
72000,note_on,,,,,64,0,8,,,,,0,,,82,94
72000,note_on,,,,,0,0,15,,,,,7,,,72,100
72000,note_on,,,,,192,0,15,,,,,7,,,70,100
72188,note_off,,,,,188,0,8,,,,,0,,,82,100
72192,note_on,,,,,4,0,8,,,,,0,,,81,94
72380,note_off,,,,,188,0,8,,,,,0,,,81,100
72384,note_off,,,,,0,0,15,,,,,7,,,72,100
72384,note_off,,,,,384,0,14,,,,,6,,,40,100
72384,note_off,,,,,384,0,16,,,,,7,,,52,100
72384,note_on,,,,,4,0,8,,,,,0,,,82,95
72384,note_off,,,,,384,0,13,,,,,5,,,52,100
72384,note_off,,,,,384,0,15,,,,,7,,,70,100
72512,note_off,,,,,128,0,8,,,,,0,,,82,100
72576,note_on,,,,,192,0,15,,,,,7,,,69,100
72576,note_on,,,,,192,0,14,,,,,6,,,41,100
72576,note_on,,,,,0,0,15,,,,,7,,,72,100
72576,note_on,,,,,64,0,8,,,,,0,,,81,95
72576,note_on,,,,,192,0,16,,,,,7,,,53,100
72576,note_on,,,,,192,0,13,,,,,5,,,53,100
72764,note_off,,,,,188,0,8,,,,,0,,,81,100
72768,note_on,,,,,4,0,8,,,,,0,,,79,95
72956,note_off,,,,,188,0,8,,,,,0,,,79,100
72960,note_off,,,,,0,0,15,,,,,7,,,72,100
72960,note_off,,,,,384,0,15,,,,,7,,,69,100
72960,note_off,,,,,384,0,14,,,,,6,,,41,100
72960,note_on,,,,,4,0,8,,,,,0,,,81,96
72960,note_off,,,,,384,0,16,,,,,7,,,53,100
72960,note_off,,,,,384,0,13,,,,,5,,,53,100
73088,note_off,,,,,128,0,8,,,,,0,,,81,100
73152,note_on,,,,,64,0,8,,,,,0,,,81,96
73340,note_off,,,,,188,0,8,,,,,0,,,81,100
73344,note_on,,,,,4,0,8,,,,,0,,,82,96
73532,note_off,,,,,188,0,8,,,,,0,,,82,100
73536,note_on,,,,,4,0,8,,,,,0,,,84,97
73664,note_off,,,,,128,0,8,,,,,0,,,84,100
73728,note_on,,,,,768,0,15,,,,,7,,,74,100
73728,note_on,,,,,0,0,15,,,,,7,,,69,100
73728,note_on,,,,,768,0,13,,,,,5,,,54,100
73728,note_on,,,,,768,0,14,,,,,6,,,42,100
73728,note_on,,,,,64,0,8,,,,,0,,,86,97
73728,note_on,,,,,768,0,16,,,,,7,,,54,100
73916,note_off,,,,,188,0,8,,,,,0,,,86,100
73920,note_on,,,,,4,0,8,,,,,0,,,84,97
74108,note_off,,,,,188,0,8,,,,,0,,,84,100
74112,note_off,,,,,384,0,13,,,,,5,,,54,100
74112,note_off,,,,,384,0,16,,,,,7,,,54,100
74112,note_off,,,,,384,0,14,,,,,6,,,42,100
74112,note_off,,,,,0,0,15,,,,,7,,,69,100
74112,note_off,,,,,384,0,15,,,,,7,,,74,100
74112,note_on,,,,,4,0,8,,,,,0,,,86,98
74240,note_off,,,,,128,0,8,,,,,0,,,86,100
74304,note_on,,,,,192,0,16,,,,,7,,,54,100
74304,note_on,,,,,64,0,8,,,,,0,,,84,98
74304,note_on,,,,,192,0,13,,,,,5,,,42,100
74304,note_on,,,,,0,0,15,,,,,7,,,72,100
74304,note_on,,,,,192,0,14,,,,,6,,,42,100
74304,note_on,,,,,192,0,15,,,,,7,,,74,100
74492,note_off,,,,,188,0,8,,,,,0,,,84,100
74496,note_on,,,,,4,0,8,,,,,0,,,82,98
74684,note_off,,,,,188,0,8,,,,,0,,,82,100
74688,note_off,,,,,0,0,15,,,,,7,,,72,100
74688,note_off,,,,,384,0,14,,,,,6,,,42,100
74688,note_on,,,,,4,0,8,,,,,0,,,84,99
74688,note_off,,,,,384,0,13,,,,,5,,,42,100
74688,note_off,,,,,384,0,16,,,,,7,,,54,100
74688,note_off,,,,,384,0,15,,,,,7,,,74,100
74816,note_off,,,,,128,0,8,,,,,0,,,84,100
74880,note_on,,,,,192,0,15,,,,,7,,,70,100
74880,note_on,,,,,192,0,14,,,,,6,,,43,100
74880,note_on,,,,,192,0,13,,,,,5,,,43,100
74880,note_on,,,,,192,0,16,,,,,7,,,55,100
74880,note_on,,,,,0,0,15,,,,,7,,,74,100
74880,note_on,,,,,64,0,8,,,,,0,,,82,99
75068,note_off,,,,,188,0,8,,,,,0,,,82,100
75072,note_on,,,,,4,0,8,,,,,0,,,81,99
75260,note_off,,,,,188,0,8,,,,,0,,,81,100
75264,note_off,,,,,384,0,13,,,,,5,,,43,100
75264,note_off,,,,,384,0,15,,,,,7,,,70,100
75264,note_off,,,,,384,0,16,,,,,7,,,55,100
75264,note_off,,,,,384,0,14,,,,,6,,,43,100
75264,note_off,,,,,0,0,15,,,,,7,,,74,100
75264,note_on,,,,,4,0,8,,,,,0,,,82,99
75392,note_off,,,,,128,0,8,,,,,0,,,82,100
75456,note_on,,,,,0,0,15,,,,,7,,,58,100
75456,note_on,,,,,192,0,15,,,,,7,,,63,100
75456,note_on,,,,,192,0,14,,,,,6,,,36,100
75456,note_on,,,,,192,0,16,,,,,7,,,48,100
75456,note_on,,,,,64,0,8,,,,,0,,,87,100
75456,note_on,,,,,192,0,13,,,,,5,,,48,100
75712,note_off,,,,,256,0,8,,,,,0,,,87,100
75840,note_off,,,,,0,0,15,,,,,7,,,58,100
75840,note_off,,,,,384,0,15,,,,,7,,,63,100
75840,note_off,,,,,384,0,14,,,,,6,,,36,100
75840,note_off,,,,,384,0,16,,,,,7,,,48,100
75840,note_off,,,,,384,0,13,,,,,5,,,48,100
75840,note_on,,,,,128,0,8,,,,,0,,,82,100
75968,note_off,,,,,128,0,8,,,,,0,,,82,100
76032,note_on,,,,,64,0,8,,,,,0,,,81,100
76032,note_on,,,,,192,0,15,,,,,7,,,63,100
76032,note_on,,,,,192,0,13,,,,,5,,,53,100
76032,note_on,,,,,192,0,16,,,,,7,,,53,100
76032,note_on,,,,,0,0,15,,,,,7,,,60,100
76032,note_on,,,,,192,0,14,,,,,6,,,41,100
76220,note_off,,,,,188,0,8,,,,,0,,,81,100
76224,note_on,,,,,4,0,8,,,,,0,,,79,100
76352,note_off,,,,,128,0,8,,,,,0,,,79,100
76416,note_off,,,,,384,0,13,,,,,5,,,53,100
76416,note_on,,,,,64,0,8,,,,,0,,,81,100
76416,note_off,,,,,384,0,14,,,,,6,,,41,100
76416,note_off,,,,,384,0,16,,,,,7,,,53,100
76416,note_off,,,,,0,0,15,,,,,7,,,60,100
76416,note_off,,,,,384,0,15,,,,,7,,,63,100
76544,note_off,,,,,128,0,8,,,,,0,,,81,100
76608,note_on,,,,,192,0,14,,,,,6,,,34,100
76608,note_on,,,,,64,0,8,,,,,0,,,86,100
76608,note_on,,,,,0,0,15,,,,,7,,,69,100
76608,note_on,,,,,192,0,15,,,,,7,,,65,100
76608,note_on,,,,,192,0,13,,,,,5,,,46,100
76608,note_on,,,,,192,0,16,,,,,7,,,46,100
76864,note_off,,,,,256,0,8,,,,,0,,,86,100
76992,note_off,,,,,384,0,14,,,,,6,,,34,100
76992,note_off,,,,,384,0,15,,,,,7,,,65,100
76992,note_off,,,,,0,0,15,,,,,7,,,69,100
76992,note_off,,,,,384,0,16,,,,,7,,,46,100
76992,note_off,,,,,384,0,13,,,,,5,,,46,100
76992,note_on,,,,,128,0,8,,,,,0,,,81,100
77120,note_off,,,,,128,0,8,,,,,0,,,81,100
77184,note_on,,,,,192,0,14,,,,,6,,,39,100
77184,note_on,,,,,64,0,8,,,,,0,,,79,100
77184,note_on,,,,,192,0,13,,,,,5,,,51,100
77184,note_on,,,,,0,0,15,,,,,7,,,62,100
77184,note_on,,,,,192,0,15,,,,,7,,,58,100
77184,note_on,,,,,192,0,16,,,,,7,,,51,100
77372,note_off,,,,,188,0,8,,,,,0,,,79,100
77376,note_on,,,,,4,0,8,,,,,0,,,78,100
77504,note_off,,,,,128,0,8,,,,,0,,,78,100
77568,note_on,,,,,64,0,8,,,,,0,,,79,100
77568,note_off,,,,,384,0,14,,,,,6,,,39,100
77568,note_off,,,,,384,0,15,,,,,7,,,58,100
77568,note_off,,,,,384,0,13,,,,,5,,,51,100
77568,note_off,,,,,0,0,15,,,,,7,,,62,100
77568,note_off,,,,,384,0,16,,,,,7,,,51,100
77696,note_off,,,,,128,0,8,,,,,0,,,79,100
77760,note_on,,,,,192,0,15,,,,,7,,,63,100
77760,note_on,,,,,0,0,15,,,,,7,,,67,100
77760,note_on,,,,,64,0,8,,,,,0,,,84,100
77760,note_on,,,,,192,0,14,,,,,6,,,33,100
77760,note_on,,,,,192,0,13,,,,,5,,,45,100
77760,note_on,,,,,192,0,16,,,,,7,,,45,100
78016,note_off,,,,,256,0,8,,,,,0,,,84,100
78144,note_off,,,,,384,0,14,,,,,6,,,33,100
78144,note_on,,,,,128,0,8,,,,,0,,,79,100
78144,note_off,,,,,384,0,16,,,,,7,,,45,100
78144,note_off,,,,,384,0,15,,,,,7,,,63,100
78144,note_off,,,,,0,0,15,,,,,7,,,67,100
78144,note_off,,,,,384,0,13,,,,,5,,,45,100
78272,note_off,,,,,128,0,8,,,,,0,,,79,100
78336,note_on,,,,,192,0,13,,,,,5,,,50,100
78336,note_on,,,,,64,0,8,,,,,0,,,77,100
78336,note_on,,,,,192,0,16,,,,,7,,,50,100
78336,note_on,,,,,192,0,15,,,,,7,,,69,100
78336,note_on,,,,,192,0,14,,,,,6,,,38,100
78336,note_on,,,,,0,0,15,,,,,7,,,65,100
78524,note_off,,,,,188,0,8,,,,,0,,,77,100
78528,note_on,,,,,4,0,8,,,,,0,,,76,100
78656,note_off,,,,,128,0,8,,,,,0,,,76,100
78720,note_on,,,,,64,0,8,,,,,0,,,77,100
78720,note_off,,,,,384,0,13,,,,,5,,,50,100
78720,note_off,,,,,384,0,16,,,,,7,,,50,100
78720,note_off,,,,,384,0,14,,,,,6,,,38,100
78720,note_off,,,,,0,0,15,,,,,7,,,65,100
78720,note_off,,,,,384,0,15,,,,,7,,,69,100
78848,note_off,,,,,128,0,8,,,,,0,,,77,100
78912,note_on,,,,,0,0,15,,,,,7,,,65,100
78912,note_on,,,,,192,0,16,,,,,7,,,55,100
78912,note_on,,,,,192,0,15,,,,,7,,,62,100
78912,note_on,,,,,64,0,8,,,,,0,,,82,100
78912,note_on,,,,,192,0,13,,,,,5,,,55,100
78912,note_on,,,,,192,0,14,,,,,6,,,43,100
79168,note_off,,,,,256,0,8,,,,,0,,,82,100
79296,note_on,,,,,128,0,8,,,,,0,,,77,100
79296,note_off,,,,,0,0,15,,,,,7,,,65,100
79296,note_off,,,,,384,0,15,,,,,7,,,62,100
79424,note_off,,,,,128,0,8,,,,,0,,,77,100
79488,note_on,,,,,64,0,8,,,,,0,,,75,100
79488,note_on,,,,,0,0,15,,,,,7,,,58,100
79488,note_on,,,,,192,0,15,,,,,7,,,63,100
79676,note_off,,,,,188,0,8,,,,,0,,,75,100
79680,note_off,,,,,768,0,16,,,,,7,,,55,100
79680,note_on,,,,,4,0,8,,,,,0,,,74,100
79680,note_off,,,,,768,0,14,,,,,6,,,43,100
79680,note_off,,,,,768,0,13,,,,,5,,,55,100
79868,note_off,,,,,188,0,8,,,,,0,,,74,100
79872,note_off,,,,,0,0,15,,,,,7,,,58,100
79872,note_off,,,,,384,0,15,,,,,7,,,63,100
79872,note_on,,,,,4,0,8,,,,,0,,,75,100
80000,note_off,,,,,128,0,8,,,,,0,,,75,100
80064,note_on,,,,,384,0,14,,,,,6,,,43,100
80064,note_on,,,,,384,0,13,,,,,5,,,55,100
80064,note_on,,,,,384,0,16,,,,,7,,,55,100
80064,note_on,,,,,64,0,8,,,,,0,,,74,100
80064,note_on,,,,,192,0,15,,,,,7,,,62,100
80064,note_on,,,,,0,0,15,,,,,7,,,63,100
80252,note_off,,,,,188,0,8,,,,,0,,,74,100
80256,note_on,,,,,4,0,8,,,,,0,,,73,100
80444,note_off,,,,,188,0,8,,,,,0,,,73,100
80448,note_off,,,,,384,0,16,,,,,7,,,55,100
80448,note_on,,,,,4,0,8,,,,,0,,,74,100
80448,note_off,,,,,384,0,15,,,,,7,,,62,100
80448,note_off,,,,,384,0,14,,,,,6,,,43,100
80448,note_off,,,,,0,0,15,,,,,7,,,63,100
80448,note_off,,,,,384,0,13,,,,,5,,,55,100
80576,note_off,,,,,128,0,8,,,,,0,,,74,100
80640,note_on,,,,,192,0,15,,,,,7,,,64,100
80640,note_on,,,,,0,0,15,,,,,7,,,61,100
80640,note_on,,,,,192,0,13,,,,,5,,,57,100
80640,note_on,,,,,64,0,8,,,,,0,,,73,100
80640,note_on,,,,,192,0,14,,,,,6,,,45,100
80640,note_on,,,,,192,0,16,,,,,7,,,57,100
80828,note_off,,,,,188,0,8,,,,,0,,,73,100
80832,note_on,,,,,4,0,8,,,,,0,,,69,100
81020,note_off,,,,,188,0,8,,,,,0,,,69,100
81024,note_on,,,,,4,0,8,,,,,0,,,71,100
81024,note_off,,,,,384,0,14,,,,,6,,,45,100
81024,note_off,,,,,384,0,16,,,,,7,,,57,100
81024,note_off,,,,,384,0,15,,,,,7,,,64,100
81024,note_off,,,,,0,0,15,,,,,7,,,61,100
81024,note_off,,,,,384,0,13,,,,,5,,,57,100
81152,note_off,,,,,128,0,8,,,,,0,,,71,100
81216,note_on,,,,,64,0,8,,,,,0,,,73,100
81404,note_off,,,,,188,0,8,,,,,0,,,73,100
81408,note_on,,,,,4,0,8,,,,,0,,,71,100
81596,note_off,,,,,188,0,8,,,,,0,,,71,100
81600,note_on,,,,,4,0,8,,,,,0,,,69,100
81728,note_off,,,,,128,0,8,,,,,0,,,69,100
81792,note_on,,,,,768,0,13,,,,,5,,,57,100
81792,note_on,,,,,768,0,15,,,,,7,,,64,100
81792,note_on,,,,,0,0,15,,,,,7,,,61,100
81792,note_on,,,,,64,0,8,,,,,0,,,76,100
81792,note_on,,,,,768,0,14,,,,,6,,,45,100
81792,note_on,,,,,768,0,16,,,,,7,,,57,100
81980,note_off,,,,,188,0,8,,,,,0,,,76,100
81984,note_on,,,,,4,0,8,,,,,0,,,69,100
82172,note_off,,,,,188,0,8,,,,,0,,,69,100
82176,note_off,,,,,384,0,13,,,,,5,,,57,100
82176,note_off,,,,,0,0,15,,,,,7,,,61,100
82176,note_off,,,,,384,0,15,,,,,7,,,64,100
82176,note_off,,,,,384,0,16,,,,,7,,,57,100
82176,note_off,,,,,384,0,14,,,,,6,,,45,100
82176,note_on,,,,,4,0,8,,,,,0,,,71,100
82304,note_off,,,,,128,0,8,,,,,0,,,71,100
82368,note_on,,,,,64,0,8,,,,,0,,,73,100
82556,note_off,,,,,188,0,8,,,,,0,,,73,100
82560,note_on,,,,,4,0,8,,,,,0,,,71,100
82748,note_off,,,,,188,0,8,,,,,0,,,71,100
82752,note_on,,,,,4,0,8,,,,,0,,,69,100
82880,note_off,,,,,128,0,8,,,,,0,,,69,100
82944,note_on,,,,,768,0,14,,,,,6,,,45,100
82944,note_on,,,,,768,0,16,,,,,7,,,57,100
82944,note_on,,,,,768,0,15,,,,,7,,,64,100
82944,note_on,,,,,768,0,13,,,,,5,,,57,100
82944,note_on,,,,,0,0,15,,,,,7,,,67,100
82944,note_on,,,,,64,0,8,,,,,0,,,79,100
83072,note_off,,,,,128,0,13,,,,,5,,,57,100
83072,note_off,,,,,128,0,16,,,,,7,,,57,100
83072,note_off,,,,,128,0,14,,,,,6,,,45,100
83136,note_on,,,,,64,0,16,,,,,7,,,45,100
83136,note_on,,,,,64,0,13,,,,,5,,,45,100
83136,note_on,,,,,64,0,14,,,,,6,,,33,100
83264,note_off,,,,,128,0,14,,,,,6,,,33,100
83264,note_off,,,,,128,0,13,,,,,5,,,45,100
83264,note_off,,,,,128,0,16,,,,,7,,,45,100
83328,note_on,,,,,64,0,14,,,,,6,,,35,100
83328,note_on,,,,,64,0,16,,,,,7,,,47,100
83328,note_off,,,,,0,0,15,,,,,7,,,67,100
83328,note_off,,,,,384,0,15,,,,,7,,,64,100
83328,note_on,,,,,64,0,13,,,,,5,,,47,100
83456,note_off,,,,,128,0,16,,,,,7,,,47,100
83456,note_off,,,,,128,0,14,,,,,6,,,35,100
83456,note_off,,,,,128,0,13,,,,,5,,,47,100
83520,note_on,,,,,64,0,14,,,,,6,,,37,100
83520,note_on,,,,,0,0,15,,,,,7,,,67,100
83520,note_on,,,,,64,0,16,,,,,7,,,49,100
83520,note_on,,,,,64,0,13,,,,,5,,,49,100
83520,note_on,,,,,192,0,15,,,,,7,,,64,100
83648,note_off,,,,,128,0,14,,,,,6,,,37,100
83648,note_off,,,,,128,0,16,,,,,7,,,49,100
83648,note_off,,,,,128,0,13,,,,,5,,,49,100
83708,note_off,,,,,764,0,8,,,,,0,,,79,100
83712,note_on,,,,,64,0,16,,,,,7,,,47,100
83712,note_on,,,,,64,0,13,,,,,5,,,47,100
83712,note_on,,,,,64,0,14,,,,,6,,,35,100
83840,note_off,,,,,128,0,13,,,,,5,,,47,100
83840,note_off,,,,,128,0,16,,,,,7,,,47,100
83840,note_off,,,,,128,0,14,,,,,6,,,35,100
83904,note_on,,,,,64,0,16,,,,,7,,,45,100
83904,note_on,,,,,196,0,8,,,,,0,,,69,100
83904,note_on,,,,,64,0,13,,,,,5,,,45,100
83904,note_off,,,,,0,0,15,,,,,7,,,67,100
83904,note_off,,,,,384,0,15,,,,,7,,,64,100
83904,note_on,,,,,64,0,14,,,,,6,,,33,100
84032,note_off,,,,,128,0,13,,,,,5,,,45,100
84032,note_off,,,,,128,0,14,,,,,6,,,33,100
84032,note_off,,,,,128,0,16,,,,,7,,,45,100
84032,note_off,,,,,128,0,8,,,,,0,,,69,100
84096,note_on,,,,,0,0,15,,,,,7,,,69,100
84096,note_on,,,,,64,0,8,,,,,0,,,77,100
84096,note_on,,,,,64,0,16,,,,,7,,,50,100
84096,note_on,,,,,64,0,13,,,,,5,,,50,100
84096,note_on,,,,,192,0,15,,,,,7,,,65,100
84096,note_on,,,,,64,0,14,,,,,6,,,38,100
84284,note_off,,,,,188,0,8,,,,,0,,,77,100
84288,note_on,,,,,4,0,8,,,,,0,,,76,100
84352,note_off,,,,,256,0,15,,,,,7,,,65,100
84352,note_off,,,,,256,0,16,,,,,7,,,50,100
84352,note_off,,,,,0,0,15,,,,,7,,,69,100
84352,note_off,,,,,256,0,13,,,,,5,,,50,100
84352,note_off,,,,,256,0,14,,,,,6,,,38,100
84416,note_off,,,,,128,0,8,,,,,0,,,76,100
84480,note_on,,,,,0,0,15,,,,,7,,,71,100
84480,note_on,,,,,128,0,15,,,,,7,,,62,100
84480,note_on,,,,,128,0,13,,,,,5,,,55,100
84480,note_on,,,,,128,0,16,,,,,7,,,55,100
84480,note_on,,,,,64,0,8,,,,,0,,,74,100
84480,note_on,,,,,128,0,14,,,,,6,,,43,100
84608,note_off,,,,,128,0,13,,,,,5,,,55,100
84608,note_off,,,,,128,0,15,,,,,7,,,62,100
84608,note_off,,,,,128,0,16,,,,,7,,,55,100
84608,note_off,,,,,0,0,15,,,,,7,,,71,100
84608,note_off,,,,,128,0,8,,,,,0,,,74,100
84608,note_off,,,,,128,0,14,,,,,6,,,43,100
84672,note_on,,,,,64,0,8,,,,,0,,,69,100
84672,note_on,,,,,64,0,13,,,,,5,,,57,100
84672,note_on,,,,,64,0,15,,,,,7,,,74,100
84672,note_on,,,,,0,0,15,,,,,7,,,64,100
84672,note_on,,,,,64,0,14,,,,,6,,,45,100
84672,note_on,,,,,64,0,16,,,,,7,,,57,100
84860,note_off,,,,,188,0,8,,,,,0,,,69,100
84864,note_on,,,,,4,0,8,,,,,0,,,74,100
84928,note_off,,,,,256,0,14,,,,,6,,,45,100
84928,note_off,,,,,0,0,15,,,,,7,,,64,100
84928,note_off,,,,,256,0,15,,,,,7,,,74,100
84928,note_off,,,,,256,0,16,,,,,7,,,57,100
84928,note_off,,,,,256,0,13,,,,,5,,,57,100
84992,note_off,,,,,128,0,8,,,,,0,,,74,100
85056,note_on,,,,,0,0,15,,,,,7,,,64,100
85056,note_on,,,,,128,0,14,,,,,6,,,33,100
85056,note_on,,,,,64,0,8,,,,,0,,,73,100
85056,note_on,,,,,128,0,16,,,,,7,,,45,100
85056,note_on,,,,,128,0,13,,,,,5,,,45,100
85056,note_on,,,,,128,0,15,,,,,7,,,61,100
85184,note_off,,,,,128,0,15,,,,,7,,,61,100
85184,note_off,,,,,128,0,16,,,,,7,,,45,100
85184,note_off,,,,,128,0,13,,,,,5,,,45,100
85184,note_off,,,,,128,0,8,,,,,0,,,73,100
85184,note_off,,,,,0,0,15,,,,,7,,,64,100
85184,note_off,,,,,128,0,14,,,,,6,,,33,100
85246,program_change,,,,,21502,0,10,,,,,2,48,,,
85248,note_on,,,,,64,0,8,,,,,0,,,74,100
85248,note_on,,,,,0,0,15,,,,,7,,,69,100
85248,note_on,,,,,64,0,15,,,,,7,,,65,100
85248,note_on,,,,,64,0,14,,,,,6,,,38,100
85248,note_on,,,,,64,0,13,,,,,5,,,50,100
85248,note_on,,,,,2,0,10,,,,,2,,,74,110
85248,note_on,,,,,0,0,12,,,,,4,,,65,100
85248,note_on,,,,,21504,0,12,,,,,4,,,57,100
85248,note_on,,,,,21504,0,11,,,,,3,,,74,50
85248,note_on,,,,,64,0,16,,,,,7,,,50,100
85436,note_off,,,,,188,0,8,,,,,0,,,74,100
85436,note_off,,,,,188,0,11,,,,,3,,,74,100
85436,note_off,,,,,188,0,10,,,,,2,,,74,100
85440,note_on,,,,,4,0,10,,,,,2,,,72,110
85440,note_on,,,,,4,0,11,,,,,3,,,72,50
85568,note_off,,,,,128,0,11,,,,,3,,,72,100
85568,note_off,,,,,128,0,10,,,,,2,,,72,100
85632,note_off,,,,,384,0,16,,,,,7,,,50,100
85632,note_off,,,,,0,0,15,,,,,7,,,69,100
85632,note_off,,,,,384,0,15,,,,,7,,,65,100
85632,note_off,,,,,384,0,14,,,,,6,,,38,100
85632,note_off,,,,,384,0,12,,,,,4,,,57,100
85632,note_on,,,,,64,0,10,,,,,2,,,70,110
85632,note_on,,,,,64,0,11,,,,,3,,,70,50
85632,note_off,,,,,0,0,12,,,,,4,,,65,100
85632,note_off,,,,,384,0,13,,,,,5,,,50,100
85760,note_off,,,,,128,0,10,,,,,2,,,70,100
85760,note_off,,,,,128,0,11,,,,,3,,,70,100
85824,note_on,,,,,64,0,11,,,,,3,,,69,50
85824,note_on,,,,,64,0,10,,,,,2,,,69,110
85824,note_on,,,,,192,0,12,,,,,4,,,61,100
85824,note_on,,,,,0,0,12,,,,,4,,,64,100
85824,note_on,,,,,192,0,13,,,,,5,,,49,100
85824,note_on,,,,,192,0,14,,,,,6,,,37,100
85824,note_on,,,,,0,0,15,,,,,7,,,64,100
85824,note_on,,,,,192,0,15,,,,,7,,,69,100
85824,note_on,,,,,192,0,16,,,,,7,,,49,100
86080,note_off,,,,,0,0,15,,,,,7,,,64,100
86080,note_off,,,,,256,0,15,,,,,7,,,69,100
86080,note_off,,,,,256,0,10,,,,,2,,,69,100
86080,note_off,,,,,256,0,11,,,,,3,,,69,100
86208,note_off,,,,,384,0,14,,,,,6,,,37,100
86208,note_on,,,,,128,0,11,,,,,3,,,67,50
86208,note_off,,,,,384,0,16,,,,,7,,,49,100
86208,note_off,,,,,384,0,13,,,,,5,,,49,100
86208,note_on,,,,,0,0,15,,,,,7,,,64,100
86208,note_on,,,,,128,0,10,,,,,2,,,67,110
86208,note_on,,,,,128,0,15,,,,,7,,,67,100
86208,note_off,,,,,384,0,12,,,,,4,,,61,100
86208,note_off,,,,,0,0,12,,,,,4,,,64,100
86336,note_off,,,,,0,0,15,,,,,7,,,64,100
86336,note_off,,,,,128,0,11,,,,,3,,,67,100
86336,note_off,,,,,128,0,15,,,,,7,,,67,100
86336,note_off,,,,,128,0,10,,,,,2,,,67,100
86400,note_on,,,,,0,0,12,,,,,4,,,62,100
86400,note_on,,,,,192,0,12,,,,,4,,,57,100
86400,note_on,,,,,192,0,14,,,,,6,,,38,100
86400,note_on,,,,,192,0,13,,,,,5,,,50,100
86400,note_on,,,,,0,0,15,,,,,7,,,69,100
86400,note_on,,,,,64,0,15,,,,,7,,,65,100
86400,note_on,,,,,64,0,11,,,,,3,,,65,50
86400,note_on,,,,,64,0,10,,,,,2,,,65,110
86400,note_on,,,,,192,0,16,,,,,7,,,50,100
86528,note_off,,,,,128,0,10,,,,,2,,,65,100
86528,note_off,,,,,128,0,11,,,,,3,,,65,100
86592,note_on,,,,,64,0,10,,,,,2,,,64,110
86592,note_on,,,,,64,0,11,,,,,3,,,64,50
86720,note_off,,,,,128,0,10,,,,,2,,,64,100
86720,note_off,,,,,128,0,11,,,,,3,,,64,100
86784,note_on,,,,,64,0,11,,,,,3,,,62,50
86784,note_on,,,,,64,0,10,,,,,2,,,62,110
86784,note_off,,,,,0,0,15,,,,,7,,,69,100
86784,note_off,,,,,384,0,15,,,,,7,,,65,100
86784,note_off,,,,,384,0,16,,,,,7,,,50,100
86784,note_off,,,,,384,0,13,,,,,5,,,50,100
86784,note_off,,,,,0,0,12,,,,,4,,,62,100
86784,note_off,,,,,384,0,12,,,,,4,,,57,100
86784,note_off,,,,,384,0,14,,,,,6,,,38,100
86912,note_off,,,,,128,0,11,,,,,3,,,62,100
86912,note_off,,,,,128,0,10,,,,,2,,,62,100
87360,note_on,,,,,576,0,14,,,,,6,,,38,100
87360,note_on,,,,,448,0,11,,,,,3,,,77,50
87360,note_on,,,,,576,0,13,,,,,5,,,50,100
87360,note_on,,,,,576,0,16,,,,,7,,,50,100
87360,note_on,,,,,0,0,15,,,,,7,,,69,100
87360,note_on,,,,,576,0,15,,,,,7,,,65,100
87360,note_on,,,,,0,0,12,,,,,4,,,69,100
87360,note_on,,,,,448,0,10,,,,,2,,,77,110
87360,note_on,,,,,576,0,12,,,,,4,,,57,100
87488,note_off,,,,,128,0,11,,,,,3,,,77,100
87488,note_off,,,,,128,0,14,,,,,6,,,38,100
87488,note_off,,,,,0,0,12,,,,,4,,,69,100
87488,note_off,,,,,128,0,10,,,,,2,,,77,100
87488,note_off,,,,,128,0,15,,,,,7,,,65,100
87488,note_off,,,,,128,0,13,,,,,5,,,50,100
87488,note_off,,,,,128,0,16,,,,,7,,,50,100
87488,note_off,,,,,128,0,12,,,,,4,,,57,100
87488,note_off,,,,,0,0,15,,,,,7,,,69,100
87552,note_on,,,,,64,0,14,,,,,6,,,37,100
87552,note_on,,,,,0,0,15,,,,,7,,,69,100
87552,note_on,,,,,64,0,15,,,,,7,,,64,100
87552,note_on,,,,,64,0,13,,,,,5,,,49,100
87552,note_on,,,,,64,0,10,,,,,2,,,76,110
87552,note_on,,,,,0,0,12,,,,,4,,,61,100
87552,note_on,,,,,64,0,12,,,,,4,,,69,100
87552,note_on,,,,,64,0,16,,,,,7,,,49,100
87552,note_on,,,,,64,0,11,,,,,3,,,76,50
87808,note_off,,,,,256,0,11,,,,,3,,,76,100
87808,note_off,,,,,256,0,10,,,,,2,,,76,100
87936,note_off,,,,,384,0,14,,,,,6,,,37,100
87936,note_off,,,,,384,0,16,,,,,7,,,49,100
87936,note_off,,,,,0,0,15,,,,,7,,,69,100
87936,note_on,,,,,128,0,11,,,,,3,,,81,50
87936,note_off,,,,,384,0,13,,,,,5,,,49,100
87936,note_off,,,,,384,0,15,,,,,7,,,64,100
87936,note_on,,,,,128,0,10,,,,,2,,,81,110
87936,note_off,,,,,384,0,12,,,,,4,,,61,100
88064,note_off,,,,,128,0,10,,,,,2,,,81,100
88064,note_off,,,,,128,0,11,,,,,3,,,81,100
88128,note_on,,,,,192,0,12,,,,,4,,,57,100
88128,note_on,,,,,192,0,16,,,,,7,,,50,100
88128,note_on,,,,,64,0,11,,,,,3,,,77,50
88128,note_on,,,,,64,0,10,,,,,2,,,77,110
88128,note_on,,,,,192,0,14,,,,,6,,,38,100
88128,note_on,,,,,192,0,13,,,,,5,,,50,100
88128,note_on,,,,,192,0,15,,,,,7,,,65,100
88128,note_on,,,,,0,0,15,,,,,7,,,69,100
88316,note_off,,,,,188,0,12,,,,,4,,,69,100
88316,note_off,,,,,188,0,11,,,,,3,,,77,100
88316,note_off,,,,,188,0,10,,,,,2,,,77,100
88320,note_on,,,,,4,0,11,,,,,3,,,76,50
88320,note_on,,,,,4,0,10,,,,,2,,,76,110
88384,note_off,,,,,256,0,15,,,,,7,,,65,100
88384,note_off,,,,,256,0,16,,,,,7,,,50,100
88384,note_off,,,,,256,0,14,,,,,6,,,38,100
88384,note_off,,,,,68,0,12,,,,,4,,,57,100
88384,note_off,,,,,0,0,15,,,,,7,,,69,100
88384,note_off,,,,,256,0,13,,,,,5,,,50,100
88448,note_off,,,,,128,0,10,,,,,2,,,76,100
88448,note_off,,,,,128,0,11,,,,,3,,,76,100
88512,note_on,,,,,128,0,13,,,,,5,,,44,100
88512,note_on,,,,,128,0,16,,,,,7,,,56,100
88512,note_on,,,,,128,0,12,,,,,4,,,64,100
88512,note_on,,,,,128,0,14,,,,,6,,,44,100
88512,note_on,,,,,64,0,11,,,,,3,,,74,50
88512,note_on,,,,,0,0,12,,,,,4,,,71,100
88512,note_on,,,,,64,0,10,,,,,2,,,74,110
88512,note_on,,,,,128,0,15,,,,,7,,,62,100
88512,note_on,,,,,0,0,15,,,,,7,,,65,100
88640,note_off,,,,,128,0,11,,,,,3,,,74,100
88640,note_off,,,,,128,0,14,,,,,6,,,44,100
88640,note_off,,,,,128,0,16,,,,,7,,,56,100
88640,note_off,,,,,0,0,12,,,,,4,,,71,100
88640,note_off,,,,,128,0,13,,,,,5,,,44,100
88640,note_off,,,,,0,0,15,,,,,7,,,65,100
88640,note_off,,,,,128,0,12,,,,,4,,,64,100
88640,note_off,,,,,128,0,15,,,,,7,,,62,100
88640,note_off,,,,,128,0,10,,,,,2,,,74,100
88704,note_on,,,,,64,0,13,,,,,5,,,45,100
88704,note_on,,,,,64,0,11,,,,,3,,,73,50
88704,note_on,,,,,64,0,15,,,,,7,,,64,100
88704,note_on,,,,,64,0,10,,,,,2,,,73,110
88704,note_on,,,,,64,0,12,,,,,4,,,64,100
88704,note_on,,,,,64,0,16,,,,,7,,,57,100
88704,note_on,,,,,0,0,15,,,,,7,,,61,100
88704,note_on,,,,,64,0,14,,,,,6,,,45,100
88832,note_off,,,,,128,0,10,,,,,2,,,73,100
88832,note_off,,,,,128,0,11,,,,,3,,,73,100
88896,note_on,,,,,64,0,10,,,,,2,,,71,110
88896,note_on,,,,,64,0,11,,,,,3,,,71,50
89024,note_off,,,,,128,0,10,,,,,2,,,71,100
89024,note_off,,,,,128,0,11,,,,,3,,,71,100
89088,note_off,,,,,0,0,15,,,,,7,,,61,100
89088,note_off,,,,,384,0,15,,,,,7,,,64,100
89088,note_off,,,,,384,0,12,,,,,4,,,64,100
89088,note_off,,,,,384,0,16,,,,,7,,,57,100
89088,note_on,,,,,64,0,11,,,,,3,,,69,50
89088,note_off,,,,,384,0,14,,,,,6,,,45,100
89088,note_off,,,,,384,0,13,,,,,5,,,45,100
89088,note_on,,,,,64,0,10,,,,,2,,,69,110
89216,note_off,,,,,128,0,11,,,,,3,,,69,100
89216,note_off,,,,,128,0,10,,,,,2,,,69,100
89280,note_on,,,,,192,0,13,,,,,5,,,45,85
89280,note_on,,,,,192,0,16,,,,,7,,,45,100
89280,note_on,,,,,192,0,14,,,,,6,,,33,85
89280,note_on,,,,,192,0,15,,,,,7,,,61,100
89280,note_on,,,,,0,0,15,,,,,7,,,67,100
89472,note_on,,,,,4036,0,8,,,,,0,,,79,85
89472,note_on,,,,,47616,0,9,,,,,1,,,76,85
89600,note_off,,,,,128,0,8,,,,,0,,,79,100
89600,note_off,,,,,128,0,9,,,,,1,,,76,100
89664,note_on,,,,,64,0,9,,,,,1,,,74,85
89664,note_off,,,,,0,0,15,,,,,7,,,67,100
89664,note_on,,,,,64,0,8,,,,,0,,,77,85
89664,note_off,,,,,384,0,15,,,,,7,,,61,100
89664,note_off,,,,,384,0,16,,,,,7,,,45,100
89664,note_off,,,,,384,0,14,,,,,6,,,33,100
89664,note_off,,,,,384,0,13,,,,,5,,,45,100
89792,note_off,,,,,128,0,8,,,,,0,,,77,100
89792,note_off,,,,,128,0,9,,,,,1,,,74,100
89856,note_on,,,,,192,0,16,,,,,7,,,45,100
89856,note_on,,,,,192,0,15,,,,,7,,,61,100
89856,note_on,,,,,0,0,15,,,,,7,,,67,100
89856,note_on,,,,,192,0,14,,,,,6,,,33,85
89856,note_on,,,,,192,0,13,,,,,5,,,45,85
89856,note_on,,,,,64,0,8,,,,,0,,,76,85
89856,note_on,,,,,64,0,9,,,,,1,,,73,85
90044,note_off,,,,,188,0,8,,,,,0,,,76,100
90044,note_off,,,,,188,0,9,,,,,1,,,73,100
90048,note_on,,,,,4,0,8,,,,,0,,,79,85
90048,note_on,,,,,4,0,9,,,,,1,,,76,85
90236,note_off,,,,,188,0,9,,,,,1,,,76,100
90236,note_off,,,,,188,0,8,,,,,0,,,79,100
90240,note_off,,,,,0,0,15,,,,,7,,,67,100
90240,note_on,,,,,4,0,8,,,,,0,,,77,85
90240,note_off,,,,,384,0,16,,,,,7,,,45,100
90240,note_off,,,,,384,0,13,,,,,5,,,45,100
90240,note_off,,,,,384,0,15,,,,,7,,,61,100
90240,note_off,,,,,384,0,14,,,,,6,,,33,100
90240,note_on,,,,,4,0,9,,,,,1,,,74,85
90368,note_off,,,,,128,0,8,,,,,0,,,77,100
90368,note_off,,,,,128,0,9,,,,,1,,,74,100
90432,note_on,,,,,192,0,13,,,,,5,,,45,85
90432,note_on,,,,,192,0,14,,,,,6,,,33,85
90432,note_on,,,,,0,0,15,,,,,7,,,67,100
90432,note_on,,,,,192,0,15,,,,,7,,,61,100
90432,note_on,,,,,64,0,8,,,,,0,,,76,85
90432,note_on,,,,,192,0,16,,,,,7,,,45,100
90432,note_on,,,,,64,0,9,,,,,1,,,73,85
90620,note_off,,,,,188,0,8,,,,,0,,,76,100
90620,note_off,,,,,188,0,9,,,,,1,,,73,100
90624,note_on,,,,,4,0,9,,,,,1,,,76,85
90624,note_on,,,,,4,0,8,,,,,0,,,79,85
90812,note_off,,,,,188,0,9,,,,,1,,,76,100
90812,note_off,,,,,188,0,8,,,,,0,,,79,100
90816,note_on,,,,,4,0,9,,,,,1,,,74,85
90816,note_off,,,,,384,0,16,,,,,7,,,45,100
90816,note_off,,,,,384,0,13,,,,,5,,,45,100
90816,note_off,,,,,0,0,15,,,,,7,,,67,100
90816,note_off,,,,,384,0,15,,,,,7,,,61,100
90816,note_on,,,,,4,0,8,,,,,0,,,77,85
90816,note_off,,,,,384,0,14,,,,,6,,,33,100
90944,note_off,,,,,128,0,8,,,,,0,,,77,100
90944,note_off,,,,,128,0,9,,,,,1,,,74,100
91008,note_on,,,,,192,0,14,,,,,6,,,33,85
91008,note_on,,,,,64,0,8,,,,,0,,,76,85
91008,note_on,,,,,192,0,15,,,,,7,,,61,100
91008,note_on,,,,,0,0,15,,,,,7,,,67,100
91008,note_on,,,,,64,0,9,,,,,1,,,73,85
91008,note_on,,,,,192,0,16,,,,,7,,,45,100
91008,note_on,,,,,192,0,13,,,,,5,,,45,85
91196,note_off,,,,,188,0,9,,,,,1,,,73,100
91196,note_off,,,,,188,0,8,,,,,0,,,76,100
91200,note_on,,,,,4,0,8,,,,,0,,,79,85
91200,note_on,,,,,4,0,9,,,,,1,,,76,85
91388,note_off,,,,,188,0,8,,,,,0,,,79,100
91388,note_off,,,,,188,0,9,,,,,1,,,76,100
91392,note_off,,,,,0,0,15,,,,,7,,,67,100
91392,note_off,,,,,384,0,14,,,,,6,,,33,100
91392,note_on,,,,,4,0,8,,,,,0,,,77,85
91392,note_off,,,,,384,0,15,,,,,7,,,61,100
91392,note_off,,,,,384,0,13,,,,,5,,,45,100
91392,note_off,,,,,384,0,16,,,,,7,,,45,100
91392,note_on,,,,,4,0,9,,,,,1,,,74,85
91520,note_off,,,,,128,0,8,,,,,0,,,77,100
91520,note_off,,,,,128,0,9,,,,,1,,,74,100
91584,note_on,,,,,64,0,9,,,,,1,,,73,85
91584,note_on,,,,,0,0,15,,,,,7,,,67,100
91584,note_on,,,,,192,0,15,,,,,7,,,61,100
91584,note_on,,,,,192,0,13,,,,,5,,,45,85
91584,note_on,,,,,192,0,16,,,,,7,,,45,100
91584,note_on,,,,,192,0,14,,,,,6,,,33,85
91584,note_on,,,,,64,0,8,,,,,0,,,76,85
91772,note_off,,,,,188,0,8,,,,,0,,,76,100
91772,note_off,,,,,188,0,9,,,,,1,,,73,100
91776,note_on,,,,,4,0,8,,,,,0,,,77,85
91776,note_on,,,,,4,0,9,,,,,1,,,74,85
91964,note_off,,,,,188,0,9,,,,,1,,,74,100
91964,note_off,,,,,188,0,8,,,,,0,,,77,100
91968,note_off,,,,,384,0,13,,,,,5,,,45,100
91968,note_off,,,,,384,0,15,,,,,7,,,61,100
91968,note_off,,,,,0,0,15,,,,,7,,,67,100
91968,note_off,,,,,384,0,16,,,,,7,,,45,100
91968,note_on,,,,,4,0,8,,,,,0,,,79,85
91968,note_off,,,,,384,0,14,,,,,6,,,33,100
91968,note_on,,,,,4,0,9,,,,,1,,,76,85
92096,note_off,,,,,128,0,9,,,,,1,,,76,100
92096,note_off,,,,,128,0,8,,,,,0,,,79,100
92160,note_on,,,,,64,0,8,,,,,0,,,77,85
92160,note_on,,,,,192,0,15,,,,,7,,,69,100
92160,note_on,,,,,192,0,16,,,,,7,,,50,100
92160,note_on,,,,,0,0,15,,,,,7,,,65,100
92160,note_on,,,,,192,0,14,,,,,6,,,38,85
92160,note_on,,,,,192,0,13,,,,,5,,,50,85
92160,note_on,,,,,64,0,9,,,,,1,,,74,85
92348,note_off,,,,,188,0,9,,,,,1,,,74,100
92348,note_off,,,,,188,0,8,,,,,0,,,77,100
92352,note_on,,,,,4,0,9,,,,,1,,,73,85
92352,note_on,,,,,4,0,8,,,,,0,,,76,85
92540,note_off,,,,,188,0,9,,,,,1,,,73,100
92540,note_off,,,,,188,0,8,,,,,0,,,76,100
92544,note_off,,,,,0,0,15,,,,,7,,,65,100
92544,note_off,,,,,384,0,13,,,,,5,,,50,100
92544,note_on,,,,,4,0,8,,,,,0,,,77,85
92544,note_off,,,,,384,0,16,,,,,7,,,50,100
92544,note_on,,,,,4,0,9,,,,,1,,,74,85
92544,note_off,,,,,384,0,15,,,,,7,,,69,100
92544,note_off,,,,,384,0,14,,,,,6,,,38,100
92672,note_off,,,,,128,0,9,,,,,1,,,74,100
92672,note_off,,,,,128,0,8,,,,,0,,,77,100
92736,note_on,,,,,3520,0,10,,,,,2,,,74,70
92736,note_on,,,,,3648,0,12,,,,,4,,,74,70
92736,note_on,,,,,3520,0,11,,,,,3,,,74,20
93120,note_off,,,,,384,0,10,,,,,2,,,74,100
93120,note_on,,,,,448,0,9,,,,,1,,,74,85
93120,note_off,,,,,384,0,12,,,,,4,,,74,100
93120,note_on,,,,,448,0,8,,,,,0,,,77,85
93120,note_off,,,,,384,0,11,,,,,3,,,74,100
93248,note_off,,,,,128,0,9,,,,,1,,,74,100
93248,note_off,,,,,128,0,8,,,,,0,,,77,100
93312,note_on,,,,,64,0,8,,,,,0,,,82,85
93312,note_on,,,,,192,0,12,,,,,4,,,74,70
93312,note_on,,,,,192,0,11,,,,,3,,,74,20
93312,note_on,,,,,192,0,10,,,,,2,,,74,70
93312,note_on,,,,,64,0,9,,,,,1,,,77,85
93500,note_off,,,,,188,0,9,,,,,1,,,77,100
93504,note_on,,,,,4,0,9,,,,,1,,,76,85
93568,note_off,,,,,256,0,8,,,,,0,,,82,100
93632,note_off,,,,,128,0,9,,,,,1,,,76,100
93696,note_on,,,,,64,0,9,,,,,1,,,77,85
93696,note_on,,,,,128,0,8,,,,,0,,,82,85
93696,note_off,,,,,384,0,11,,,,,3,,,74,100
93696,note_off,,,,,384,0,12,,,,,4,,,74,100
93696,note_off,,,,,384,0,10,,,,,2,,,74,100
93824,note_off,,,,,128,0,8,,,,,0,,,82,100
93824,note_off,,,,,128,0,9,,,,,1,,,77,100
93888,note_on,,,,,192,0,10,,,,,2,,,74,70
93888,note_on,,,,,64,0,8,,,,,0,,,82,85
93888,note_on,,,,,192,0,12,,,,,4,,,74,70
93888,note_on,,,,,64,0,9,,,,,1,,,74,85
93888,note_on,,,,,192,0,11,,,,,3,,,74,20
94144,note_off,,,,,256,0,8,,,,,0,,,82,100
94144,note_off,,,,,256,0,9,,,,,1,,,74,100
94272,note_on,,,,,128,0,9,,,,,1,,,77,85
94272,note_off,,,,,384,0,10,,,,,2,,,74,100
94272,note_off,,,,,384,0,12,,,,,4,,,74,100
94272,note_off,,,,,384,0,11,,,,,3,,,74,100
94272,note_on,,,,,128,0,8,,,,,0,,,82,85
94400,note_off,,,,,128,0,9,,,,,1,,,77,100
94400,note_off,,,,,128,0,8,,,,,0,,,82,100
94464,note_on,,,,,64,0,8,,,,,0,,,82,85
94464,note_on,,,,,192,0,11,,,,,3,,,73,20
94464,note_on,,,,,192,0,12,,,,,4,,,73,70
94464,note_on,,,,,64,0,9,,,,,1,,,79,85
94464,note_on,,,,,192,0,10,,,,,2,,,73,70
94652,note_off,,,,,188,0,9,,,,,1,,,79,100
94652,note_off,,,,,188,0,8,,,,,0,,,82,100
94656,note_on,,,,,4,0,8,,,,,0,,,81,85
94656,note_on,,,,,4,0,9,,,,,1,,,77,85
94784,note_off,,,,,128,0,8,,,,,0,,,81,100
94784,note_off,,,,,128,0,9,,,,,1,,,77,100
94848,note_on,,,,,64,0,8,,,,,0,,,82,85
94848,note_on,,,,,64,0,9,,,,,1,,,79,85
94848,note_off,,,,,384,0,12,,,,,4,,,73,100
94848,note_off,,,,,384,0,11,,,,,3,,,73,100
94848,note_off,,,,,384,0,10,,,,,2,,,73,100
94976,note_off,,,,,128,0,8,,,,,0,,,82,100
94976,note_off,,,,,128,0,9,,,,,1,,,79,100
95040,note_on,,,,,192,0,10,,,,,2,,,73,70
95040,note_on,,,,,192,0,12,,,,,4,,,73,70
95040,note_on,,,,,64,0,8,,,,,0,,,79,85
95040,note_on,,,,,64,0,9,,,,,1,,,76,85
95040,note_on,,,,,192,0,11,,,,,3,,,73,20
95296,note_off,,,,,256,0,9,,,,,1,,,76,100
95296,note_off,,,,,256,0,8,,,,,0,,,79,100
95424,note_on,,,,,128,0,9,,,,,1,,,73,85
95424,note_on,,,,,128,0,8,,,,,0,,,76,85
95424,note_off,,,,,384,0,11,,,,,3,,,73,100
95424,note_off,,,,,384,0,10,,,,,2,,,73,100
95424,note_off,,,,,384,0,12,,,,,4,,,73,100
95552,note_off,,,,,128,0,8,,,,,0,,,76,100
95552,note_off,,,,,128,0,9,,,,,1,,,73,100
95616,note_on,,,,,64,0,9,,,,,1,,,76,85
95616,note_on,,,,,192,0,11,,,,,3,,,72,20
95616,note_on,,,,,192,0,12,,,,,4,,,72,70
95616,note_on,,,,,64,0,8,,,,,0,,,81,85
95616,note_on,,,,,192,0,10,,,,,2,,,72,70
95804,note_off,,,,,188,0,9,,,,,1,,,76,100
95808,note_on,,,,,4,0,9,,,,,1,,,74,85
95872,note_off,,,,,256,0,8,,,,,0,,,81,100
95936,note_off,,,,,128,0,9,,,,,1,,,74,100
96000,note_off,,,,,384,0,12,,,,,4,,,72,100
96000,note_off,,,,,384,0,11,,,,,3,,,72,100
96000,note_off,,,,,384,0,10,,,,,2,,,72,100
96000,note_on,,,,,64,0,9,,,,,1,,,76,85
96000,note_on,,,,,128,0,8,,,,,0,,,81,85
96128,note_off,,,,,128,0,8,,,,,0,,,81,100
96128,note_off,,,,,128,0,9,,,,,1,,,76,100
96192,note_on,,,,,192,0,10,,,,,2,,,72,70
96192,note_on,,,,,192,0,12,,,,,4,,,72,70
96192,note_on,,,,,64,0,8,,,,,0,,,81,85
96192,note_on,,,,,64,0,9,,,,,1,,,72,85
96192,note_on,,,,,192,0,11,,,,,3,,,72,20
96448,note_off,,,,,256,0,8,,,,,0,,,81,100
96448,note_off,,,,,256,0,9,,,,,1,,,72,100
96576,note_off,,,,,384,0,12,,,,,4,,,72,100
96576,note_off,,,,,384,0,11,,,,,3,,,72,100
96576,note_off,,,,,384,0,10,,,,,2,,,72,100
96576,note_on,,,,,128,0,9,,,,,1,,,76,85
96576,note_on,,,,,128,0,8,,,,,0,,,81,85
96704,note_off,,,,,128,0,9,,,,,1,,,76,100
96704,note_off,,,,,128,0,8,,,,,0,,,81,100
96768,note_on,,,,,192,0,10,,,,,2,,,71,70
96768,note_on,,,,,64,0,8,,,,,0,,,81,85
96768,note_on,,,,,192,0,11,,,,,3,,,71,20
96768,note_on,,,,,192,0,12,,,,,4,,,71,70
96768,note_on,,,,,64,0,9,,,,,1,,,77,85
96956,note_off,,,,,188,0,8,,,,,0,,,81,100
96956,note_off,,,,,188,0,9,,,,,1,,,77,100
96960,note_on,,,,,4,0,9,,,,,1,,,76,85
96960,note_on,,,,,4,0,8,,,,,0,,,79,85
97088,note_off,,,,,128,0,8,,,,,0,,,79,100
97088,note_off,,,,,128,0,9,,,,,1,,,76,100
97152,note_on,,,,,64,0,9,,,,,1,,,77,85
97152,note_off,,,,,384,0,10,,,,,2,,,71,100
97152,note_off,,,,,384,0,11,,,,,3,,,71,100
97152,note_on,,,,,64,0,8,,,,,0,,,81,85
97152,note_off,,,,,384,0,12,,,,,4,,,71,100
97280,note_off,,,,,128,0,8,,,,,0,,,81,100
97280,note_off,,,,,128,0,9,,,,,1,,,77,100
97344,note_on,,,,,192,0,12,,,,,4,,,71,70
97344,note_on,,,,,64,0,9,,,,,1,,,74,85
97344,note_on,,,,,64,0,8,,,,,0,,,77,85
97344,note_on,,,,,192,0,11,,,,,3,,,71,20
97344,note_on,,,,,192,0,10,,,,,2,,,71,70
97600,note_off,,,,,256,0,8,,,,,0,,,77,100
97600,note_off,,,,,256,0,9,,,,,1,,,74,100
97728,note_on,,,,,128,0,8,,,,,0,,,74,85
97728,note_off,,,,,384,0,10,,,,,2,,,71,100
97728,note_off,,,,,384,0,12,,,,,4,,,71,100
97728,note_off,,,,,384,0,11,,,,,3,,,71,100
97728,note_on,,,,,128,0,9,,,,,1,,,71,85
97856,note_off,,,,,128,0,8,,,,,0,,,74,100
97856,note_off,,,,,128,0,9,,,,,1,,,71,100
97920,note_on,,,,,192,0,12,,,,,4,,,70,70
97920,note_on,,,,,192,0,11,,,,,3,,,70,20
97920,note_on,,,,,192,0,10,,,,,2,,,70,70
97920,note_on,,,,,64,0,9,,,,,1,,,74,85
97920,note_on,,,,,64,0,8,,,,,0,,,79,85
98108,note_off,,,,,188,0,9,,,,,1,,,74,100
98112,note_on,,,,,4,0,9,,,,,1,,,72,85
98176,note_off,,,,,256,0,8,,,,,0,,,79,100
98240,note_off,,,,,128,0,9,,,,,1,,,72,100
98304,note_on,,,,,128,0,8,,,,,0,,,79,85
98304,note_off,,,,,384,0,11,,,,,3,,,70,100
98304,note_off,,,,,384,0,10,,,,,2,,,70,100
98304,note_off,,,,,384,0,12,,,,,4,,,70,100
98304,note_on,,,,,64,0,9,,,,,1,,,74,85
98432,note_off,,,,,128,0,9,,,,,1,,,74,100
98432,note_off,,,,,128,0,8,,,,,0,,,79,100
98496,note_on,,,,,192,0,11,,,,,3,,,70,20
98496,note_on,,,,,64,0,9,,,,,1,,,70,85
98496,note_on,,,,,192,0,12,,,,,4,,,70,70
98496,note_on,,,,,64,0,8,,,,,0,,,79,85
98496,note_on,,,,,192,0,10,,,,,2,,,70,70
98752,note_off,,,,,256,0,8,,,,,0,,,79,100
98752,note_off,,,,,256,0,9,,,,,1,,,70,100
98880,note_off,,,,,384,0,10,,,,,2,,,70,100
98880,note_off,,,,,384,0,12,,,,,4,,,70,100
98880,note_off,,,,,384,0,11,,,,,3,,,70,100
98880,note_on,,,,,128,0,8,,,,,0,,,79,85
98880,note_on,,,,,128,0,9,,,,,1,,,74,85
99008,note_off,,,,,128,0,8,,,,,0,,,79,100
99008,note_off,,,,,128,0,9,,,,,1,,,74,100
99072,note_on,,,,,192,0,10,,,,,2,,,69,70
99072,note_on,,,,,64,0,8,,,,,0,,,79,85
99072,note_on,,,,,192,0,11,,,,,3,,,69,20
99072,note_on,,,,,192,0,12,,,,,4,,,69,70
99072,note_on,,,,,64,0,9,,,,,1,,,76,85
99260,note_off,,,,,188,0,8,,,,,0,,,79,100
99260,note_off,,,,,188,0,9,,,,,1,,,76,100
99264,note_on,,,,,4,0,8,,,,,0,,,77,85
99264,note_on,,,,,4,0,9,,,,,1,,,74,85
99392,note_off,,,,,128,0,8,,,,,0,,,77,100
99392,note_off,,,,,128,0,9,,,,,1,,,74,100
99456,note_off,,,,,384,0,12,,,,,4,,,69,100
99456,note_off,,,,,384,0,10,,,,,2,,,69,100
99456,note_on,,,,,64,0,8,,,,,0,,,79,85
99456,note_on,,,,,64,0,9,,,,,1,,,76,85
99456,note_off,,,,,384,0,11,,,,,3,,,69,100
99584,note_off,,,,,128,0,9,,,,,1,,,76,100
99584,note_off,,,,,128,0,8,,,,,0,,,79,100
99648,note_on,,,,,64,0,9,,,,,1,,,72,85
99648,note_on,,,,,192,0,10,,,,,2,,,69,70
99648,note_on,,,,,64,0,8,,,,,0,,,76,85
99648,note_on,,,,,192,0,11,,,,,3,,,69,20
99648,note_on,,,,,192,0,12,,,,,4,,,69,70
99836,note_off,,,,,188,0,8,,,,,0,,,76,100
99836,note_off,,,,,188,0,9,,,,,1,,,72,100
99840,note_on,,,,,4,0,9,,,,,1,,,74,85
99840,note_on,,,,,4,0,8,,,,,0,,,77,85
99968,note_off,,,,,128,0,9,,,,,1,,,74,100
99968,note_off,,,,,128,0,8,,,,,0,,,77,100
100032,note_off,,,,,384,0,11,,,,,3,,,69,100
100032,note_off,,,,,384,0,12,,,,,4,,,69,100
100032,note_on,,,,,64,0,9,,,,,1,,,76,85
100032,note_off,,,,,384,0,10,,,,,2,,,69,100
100032,note_on,,,,,64,0,8,,,,,0,,,79,85
100160,note_off,,,,,128,0,8,,,,,0,,,79,100
100160,note_off,,,,,128,0,9,,,,,1,,,76,100
100224,note_on,,,,,192,0,12,,,,,4,,,62,70
100224,note_on,,,,,64,0,8,,,,,0,,,77,85
100224,note_on,,,,,192,0,11,,,,,3,,,62,20
100224,note_on,,,,,64,0,9,,,,,1,,,74,85
100224,note_on,,,,,192,0,10,,,,,2,,,62,70
100412,note_off,,,,,188,0,8,,,,,0,,,77,100
100416,note_on,,,,,4,0,8,,,,,0,,,81,85
100604,note_off,,,,,188,0,8,,,,,0,,,81,100
100608,note_off,,,,,384,0,12,,,,,4,,,62,100
100608,note_off,,,,,384,0,11,,,,,3,,,62,100
100608,note_off,,,,,384,0,9,,,,,1,,,74,100
100608,note_on,,,,,4,0,8,,,,,0,,,79,85
100608,note_off,,,,,384,0,10,,,,,2,,,62,100
100736,note_off,,,,,128,0,8,,,,,0,,,79,100
100800,note_on,,,,,64,0,8,,,,,0,,,77,85
100800,note_on,,,,,192,0,9,,,,,1,,,81,85
100988,note_off,,,,,188,0,8,,,,,0,,,77,100
100992,note_on,,,,,4,0,8,,,,,0,,,76,85
101056,note_off,,,,,256,0,9,,,,,1,,,81,100
101180,note_off,,,,,188,0,8,,,,,0,,,76,100
101184,note_on,,,,,4,0,8,,,,,0,,,74,85
101312,note_off,,,,,128,0,8,,,,,0,,,74,100
101376,note_on,,,,,64,0,8,,,,,0,,,69,85
101376,note_on,,,,,768,0,12,,,,,4,,,61,85
101376,note_on,,,,,320,0,9,,,,,1,,,81,85
101376,note_on,,,,,768,0,10,,,,,2,,,64,85
101376,note_on,,,,,768,0,11,,,,,3,,,64,35
101564,note_off,,,,,188,0,8,,,,,0,,,69,100
101568,note_on,,,,,4,0,8,,,,,0,,,81,85
101632,note_off,,,,,256,0,9,,,,,1,,,81,100
101756,note_off,,,,,188,0,8,,,,,0,,,81,100
101760,note_off,,,,,384,0,11,,,,,3,,,64,100
101760,note_on,,,,,4,0,8,,,,,0,,,79,85
101760,note_off,,,,,384,0,12,,,,,4,,,61,100
101760,note_off,,,,,384,0,10,,,,,2,,,64,100
101888,note_off,,,,,128,0,8,,,,,0,,,79,100
101952,note_on,,,,,64,0,8,,,,,0,,,77,85
101952,note_on,,,,,320,0,9,,,,,1,,,81,85
101952,note_on,,,,,192,0,11,,,,,3,,,65,35
101952,note_on,,,,,192,0,12,,,,,4,,,62,85
101952,note_on,,,,,192,0,10,,,,,2,,,65,85
102140,note_off,,,,,188,0,8,,,,,0,,,77,100
102144,note_on,,,,,4,0,8,,,,,0,,,76,85
102208,note_off,,,,,256,0,9,,,,,1,,,81,100
102332,note_off,,,,,188,0,8,,,,,0,,,76,100
102336,note_on,,,,,4,0,8,,,,,0,,,74,85
102336,note_off,,,,,384,0,11,,,,,3,,,65,100
102336,note_off,,,,,384,0,10,,,,,2,,,65,100
102336,note_off,,,,,384,0,12,,,,,4,,,62,100
102464,note_off,,,,,128,0,8,,,,,0,,,74,100
102528,note_on,,,,,192,0,10,,,,,2,,,64,85
102528,note_on,,,,,64,0,8,,,,,0,,,69,85
102528,note_on,,,,,320,0,9,,,,,1,,,81,85
102528,note_on,,,,,192,0,12,,,,,4,,,61,85
102528,note_on,,,,,192,0,11,,,,,3,,,64,35
102656,note_off,,,,,128,0,9,,,,,1,,,81,100
102720,note_on,,,,,64,0,9,,,,,1,,,81,85
102784,note_off,,,,,256,0,8,,,,,0,,,69,100
102908,note_off,,,,,188,0,9,,,,,1,,,81,100
102912,note_off,,,,,384,0,11,,,,,3,,,64,100
102912,note_off,,,,,384,0,12,,,,,4,,,61,100
102912,note_on,,,,,4,0,9,,,,,1,,,79,85
102912,note_off,,,,,384,0,10,,,,,2,,,64,100
103040,note_off,,,,,128,0,9,,,,,1,,,79,100
103104,note_on,,,,,192,0,11,,,,,3,,,65,35
103104,note_on,,,,,64,0,9,,,,,1,,,77,85
103104,note_on,,,,,320,0,8,,,,,0,,,81,85
103104,note_on,,,,,192,0,12,,,,,4,,,62,85
103104,note_on,,,,,192,0,10,,,,,2,,,65,85
103292,note_off,,,,,188,0,9,,,,,1,,,77,100
103296,note_on,,,,,4,0,9,,,,,1,,,76,85
103360,note_off,,,,,256,0,8,,,,,0,,,81,100
103484,note_off,,,,,188,0,9,,,,,1,,,76,100
103488,note_on,,,,,4,0,9,,,,,1,,,74,85
103488,note_off,,,,,384,0,11,,,,,3,,,65,100
103488,note_off,,,,,384,0,12,,,,,4,,,62,100
103488,note_off,,,,,384,0,10,,,,,2,,,65,100
103616,note_off,,,,,128,0,9,,,,,1,,,74,100
103680,note_on,,,,,192,0,10,,,,,2,,,64,85
103680,note_on,,,,,192,0,11,,,,,3,,,64,35
103680,note_on,,,,,320,0,8,,,,,0,,,81,85
103680,note_on,,,,,192,0,12,,,,,4,,,61,85
103680,note_on,,,,,64,0,9,,,,,1,,,69,85
103868,note_off,,,,,188,0,9,,,,,1,,,69,100
103872,note_on,,,,,4,0,9,,,,,1,,,81,85
103936,note_off,,,,,256,0,8,,,,,0,,,81,100
104060,note_off,,,,,188,0,9,,,,,1,,,81,100
104064,note_off,,,,,384,0,10,,,,,2,,,64,100
104064,note_off,,,,,384,0,11,,,,,3,,,64,100
104064,note_on,,,,,4,0,9,,,,,1,,,79,85
104064,note_off,,,,,384,0,12,,,,,4,,,61,100
104192,note_off,,,,,128,0,9,,,,,1,,,79,100
104256,note_on,,,,,192,0,10,,,,,2,,,65,85
104256,note_on,,,,,192,0,11,,,,,3,,,65,35
104256,note_on,,,,,192,0,12,,,,,4,,,62,85
104256,note_on,,,,,64,0,9,,,,,1,,,77,85
104256,note_on,,,,,320,0,8,,,,,0,,,81,85
104444,note_off,,,,,188,0,9,,,,,1,,,77,100
104448,note_on,,,,,4,0,9,,,,,1,,,76,85
104512,note_off,,,,,256,0,8,,,,,0,,,81,100
104636,note_off,,,,,188,0,9,,,,,1,,,76,100
104640,note_off,,,,,384,0,10,,,,,2,,,65,100
104640,note_off,,,,,384,0,12,,,,,4,,,62,100
104640,note_on,,,,,4,0,9,,,,,1,,,74,85
104640,note_off,,,,,384,0,11,,,,,3,,,65,100
104768,note_off,,,,,128,0,9,,,,,1,,,74,100
104832,note_on,,,,,192,0,10,,,,,2,,,64,85
104832,note_on,,,,,320,0,8,,,,,0,,,81,85
104832,note_on,,,,,192,0,12,,,,,4,,,61,85
104832,note_on,,,,,192,0,11,,,,,3,,,64,35
104832,note_on,,,,,64,0,9,,,,,1,,,69,85
104960,note_off,,,,,128,0,8,,,,,0,,,81,100
105024,note_on,,,,,64,0,8,,,,,0,,,81,85
105212,note_off,,,,,188,0,8,,,,,0,,,81,100
105216,note_off,,,,,384,0,11,,,,,3,,,64,100
105216,note_off,,,,,384,0,12,,,,,4,,,61,100
105216,note_off,,,,,384,0,9,,,,,1,,,69,100
105216,note_on,,,,,4,0,8,,,,,0,,,79,85
105216,note_off,,,,,384,0,10,,,,,2,,,64,100
105404,note_off,,,,,188,0,8,,,,,0,,,79,100
105408,note_on,,,,,12864,0,13,,,,,5,,,50,85
105408,note_on,,,,,4,0,8,,,,,0,,,78,85
105408,note_on,,,,,12864,0,16,,,,,7,,,50,100
105408,note_on,,,,,12864,0,14,,,,,6,,,38,85
105408,note_on,,,,,0,0,15,,,,,7,,,69,100
105408,note_on,,,,,12864,0,15,,,,,7,,,66,100
105596,note_off,,,,,188,0,8,,,,,0,,,78,100
105600,note_on,,,,,4,0,8,,,,,0,,,76,85
105788,note_off,,,,,188,0,8,,,,,0,,,76,100
105792,note_off,,,,,384,0,15,,,,,7,,,66,100
105792,note_off,,,,,0,0,15,,,,,7,,,69,100
105792,note_on,,,,,4,0,8,,,,,0,,,74,85
105792,note_off,,,,,384,0,16,,,,,7,,,50,100
105792,note_off,,,,,384,0,14,,,,,6,,,38,100
105792,note_off,,,,,384,0,13,,,,,5,,,50,100
105920,note_off,,,,,128,0,8,,,,,0,,,74,100
105984,note_on,,,,,192,0,14,,,,,6,,,43,85
105984,note_on,,,,,192,0,16,,,,,7,,,55,100
105984,note_on,,,,,64,0,8,,,,,0,,,82,85
105984,note_on,,,,,192,0,13,,,,,5,,,55,85
105984,note_on,,,,,0,0,15,,,,,7,,,74,100
105984,note_on,,,,,192,0,15,,,,,7,,,70,100
106176,note_on,,,,,960,0,9,,,,,1,,,74,85
106364,note_off,,,,,188,0,9,,,,,1,,,74,100
106368,note_on,,,,,4,0,9,,,,,1,,,72,85
106368,note_off,,,,,0,0,15,,,,,7,,,74,100
106368,note_off,,,,,384,0,14,,,,,6,,,43,100
106368,note_off,,,,,384,0,13,,,,,5,,,55,100
106368,note_off,,,,,384,0,16,,,,,7,,,55,100
106368,note_off,,,,,384,0,15,,,,,7,,,70,100
106556,note_off,,,,,188,0,9,,,,,1,,,72,100
106560,note_on,,,,,4,0,9,,,,,1,,,70,85
106560,note_on,,,,,192,0,16,,,,,7,,,43,100
106560,note_on,,,,,192,0,15,,,,,7,,,62,100
106560,note_on,,,,,0,0,15,,,,,7,,,70,100
106560,note_on,,,,,192,0,13,,,,,5,,,43,85
106560,note_on,,,,,192,0,14,,,,,6,,,43,85
106748,note_off,,,,,188,0,9,,,,,1,,,70,100
106752,note_on,,,,,4,0,9,,,,,1,,,69,85
106940,note_off,,,,,188,0,9,,,,,1,,,69,100
106944,note_off,,,,,0,0,15,,,,,7,,,70,100
106944,note_off,,,,,384,0,13,,,,,5,,,43,100
106944,note_on,,,,,4,0,9,,,,,1,,,67,85
106944,note_off,,,,,384,0,16,,,,,7,,,43,100
106944,note_off,,,,,384,0,15,,,,,7,,,62,100
106944,note_off,,,,,384,0,14,,,,,6,,,43,100
107072,note_off,,,,,128,0,9,,,,,1,,,67,100
107136,note_on,,,,,192,0,15,,,,,7,,,63,100
107136,note_on,,,,,192,0,16,,,,,7,,,60,100
107136,note_on,,,,,192,0,13,,,,,5,,,60,85
107136,note_on,,,,,0,0,15,,,,,7,,,70,100
107136,note_on,,,,,64,0,9,,,,,1,,,75,85
107136,note_on,,,,,192,0,14,,,,,6,,,48,85
107324,note_off,,,,,1340,0,8,,,,,0,,,82,100
107328,note_on,,,,,4,0,8,,,,,0,,,79,85
107516,note_off,,,,,188,0,8,,,,,0,,,79,100
107520,note_on,,,,,4,0,8,,,,,0,,,77,85
107520,note_off,,,,,384,0,13,,,,,5,,,60,100
107520,note_off,,,,,384,0,16,,,,,7,,,60,100
107520,note_off,,,,,384,0,15,,,,,7,,,63,100
107520,note_off,,,,,384,0,14,,,,,6,,,48,100
107520,note_off,,,,,0,0,15,,,,,7,,,70,100
107708,note_off,,,,,188,0,8,,,,,0,,,77,100
107712,note_on,,,,,192,0,16,,,,,7,,,48,100
107712,note_on,,,,,192,0,14,,,,,6,,,36,85
107712,note_on,,,,,4,0,8,,,,,0,,,75,85
107712,note_on,,,,,192,0,15,,,,,7,,,67,100
107712,note_on,,,,,0,0,15,,,,,7,,,63,100
107712,note_on,,,,,192,0,13,,,,,5,,,48,85
107900,note_off,,,,,188,0,8,,,,,0,,,75,100
107904,note_on,,,,,4,0,8,,,,,0,,,74,85
108092,note_off,,,,,188,0,8,,,,,0,,,74,100
108096,note_off,,,,,384,0,13,,,,,5,,,48,100
108096,note_off,,,,,384,0,16,,,,,7,,,48,100
108096,note_off,,,,,384,0,15,,,,,7,,,67,100
108096,note_off,,,,,0,0,15,,,,,7,,,63,100
108096,note_on,,,,,4,0,8,,,,,0,,,72,85
108096,note_off,,,,,384,0,14,,,,,6,,,36,100
108224,note_off,,,,,128,0,8,,,,,0,,,72,100
108288,note_on,,,,,64,0,8,,,,,0,,,81,85
108288,note_on,,,,,192,0,14,,,,,6,,,41,85
108288,note_on,,,,,192,0,16,,,,,7,,,53,100
108288,note_on,,,,,192,0,13,,,,,5,,,53,85
108288,note_on,,,,,192,0,15,,,,,7,,,72,100
108288,note_on,,,,,0,0,15,,,,,7,,,63,100
108476,note_off,,,,,1340,0,9,,,,,1,,,75,100
108480,note_on,,,,,4,0,9,,,,,1,,,72,85
108668,note_off,,,,,188,0,9,,,,,1,,,72,100
108672,note_off,,,,,0,0,15,,,,,7,,,63,100
108672,note_off,,,,,384,0,15,,,,,7,,,72,100
108672,note_off,,,,,384,0,13,,,,,5,,,53,100
108672,note_on,,,,,4,0,9,,,,,1,,,70,85
108672,note_off,,,,,384,0,14,,,,,6,,,41,100
108672,note_off,,,,,384,0,16,,,,,7,,,53,100
108860,note_off,,,,,188,0,9,,,,,1,,,70,100
108864,note_on,,,,,0,0,15,,,,,7,,,63,100
108864,note_on,,,,,4,0,9,,,,,1,,,69,85
108864,note_on,,,,,192,0,16,,,,,7,,,41,100
108864,note_on,,,,,192,0,14,,,,,6,,,41,85
108864,note_on,,,,,192,0,13,,,,,5,,,41,85
108864,note_on,,,,,192,0,15,,,,,7,,,60,100
109052,note_off,,,,,188,0,9,,,,,1,,,69,100
109056,note_on,,,,,4,0,9,,,,,1,,,67,85
109244,note_off,,,,,188,0,9,,,,,1,,,67,100
109248,note_off,,,,,384,0,13,,,,,5,,,41,100
109248,note_on,,,,,4,0,9,,,,,1,,,65,85
109248,note_off,,,,,0,0,15,,,,,7,,,63,100
109248,note_off,,,,,384,0,15,,,,,7,,,60,100
109248,note_off,,,,,384,0,14,,,,,6,,,41,100
109248,note_off,,,,,384,0,16,,,,,7,,,41,100
109376,note_off,,,,,128,0,9,,,,,1,,,65,100
109440,note_on,,,,,64,0,9,,,,,1,,,74,85
109440,note_on,,,,,0,0,15,,,,,7,,,65,100
109440,note_on,,,,,192,0,15,,,,,7,,,74,100
109440,note_on,,,,,192,0,14,,,,,6,,,46,85
109440,note_on,,,,,192,0,13,,,,,5,,,58,85
109440,note_on,,,,,192,0,16,,,,,7,,,58,100
109628,note_off,,,,,1340,0,8,,,,,0,,,81,100
109632,note_on,,,,,4,0,8,,,,,0,,,77,85
109820,note_off,,,,,188,0,8,,,,,0,,,77,100
109824,note_off,,,,,384,0,13,,,,,5,,,58,100
109824,note_off,,,,,384,0,14,,,,,6,,,46,100
109824,note_off,,,,,0,0,15,,,,,7,,,65,100
109824,note_off,,,,,384,0,16,,,,,7,,,58,100
109824,note_off,,,,,384,0,15,,,,,7,,,74,100
109824,note_on,,,,,4,0,8,,,,,0,,,75,85
110012,note_off,,,,,188,0,8,,,,,0,,,75,100
110016,note_on,,,,,192,0,13,,,,,5,,,46,85
110016,note_on,,,,,4,0,8,,,,,0,,,74,85
110016,note_on,,,,,192,0,16,,,,,7,,,46,100
110016,note_on,,,,,192,0,15,,,,,7,,,62,100
110016,note_on,,,,,0,0,15,,,,,7,,,65,100
110016,note_on,,,,,192,0,14,,,,,6,,,34,85
110204,note_off,,,,,188,0,8,,,,,0,,,74,100
110208,note_on,,,,,4,0,8,,,,,0,,,72,85
110396,note_off,,,,,188,0,8,,,,,0,,,72,100
110400,note_off,,,,,384,0,15,,,,,7,,,62,100
110400,note_off,,,,,0,0,15,,,,,7,,,65,100
110400,note_off,,,,,384,0,16,,,,,7,,,46,100
110400,note_on,,,,,4,0,8,,,,,0,,,70,85
110400,note_off,,,,,384,0,13,,,,,5,,,46,100
110400,note_off,,,,,384,0,14,,,,,6,,,34,100
110528,note_off,,,,,128,0,8,,,,,0,,,70,100
110592,note_on,,,,,0,0,15,,,,,7,,,62,100
110592,note_on,,,,,192,0,15,,,,,7,,,70,100
110592,note_on,,,,,192,0,14,,,,,6,,,39,85
110592,note_on,,,,,192,0,13,,,,,5,,,51,85
110592,note_on,,,,,192,0,16,,,,,7,,,51,100
110592,note_on,,,,,64,0,8,,,,,0,,,79,85
110780,note_off,,,,,1340,0,9,,,,,1,,,74,100
110784,note_on,,,,,4,0,9,,,,,1,,,70,85
110972,note_off,,,,,188,0,9,,,,,1,,,70,100
110976,note_off,,,,,384,0,16,,,,,7,,,51,100
110976,note_off,,,,,0,0,15,,,,,7,,,62,100
110976,note_on,,,,,4,0,9,,,,,1,,,69,85
110976,note_off,,,,,384,0,15,,,,,7,,,70,100
110976,note_off,,,,,384,0,14,,,,,6,,,39,100
110976,note_off,,,,,384,0,13,,,,,5,,,51,100
111164,note_off,,,,,188,0,9,,,,,1,,,69,100
111168,note_on,,,,,0,0,15,,,,,7,,,70,100
111168,note_on,,,,,192,0,16,,,,,7,,,63,100
111168,note_on,,,,,4,0,9,,,,,1,,,67,85
111168,note_on,,,,,192,0,15,,,,,7,,,67,100
111168,note_on,,,,,192,0,13,,,,,5,,,63,85
111168,note_on,,,,,192,0,14,,,,,6,,,51,85
111356,note_off,,,,,188,0,9,,,,,1,,,67,100
111360,note_on,,,,,4,0,9,,,,,1,,,65,85
111548,note_off,,,,,188,0,9,,,,,1,,,65,100
111552,note_off,,,,,384,0,13,,,,,5,,,63,100
111552,note_off,,,,,384,0,16,,,,,7,,,63,100
111552,note_off,,,,,384,0,14,,,,,6,,,51,100
111552,note_off,,,,,384,0,15,,,,,7,,,67,100
111552,note_off,,,,,0,0,15,,,,,7,,,70,100
111552,note_on,,,,,4,0,9,,,,,1,,,63,85
111680,note_off,,,,,128,0,9,,,,,1,,,63,100
111744,note_on,,,,,64,0,9,,,,,1,,,72,85
111744,note_on,,,,,192,0,13,,,,,5,,,57,85
111744,note_on,,,,,192,0,15,,,,,7,,,63,100
111744,note_on,,,,,192,0,14,,,,,6,,,45,85
111744,note_on,,,,,0,0,15,,,,,7,,,70,100
111744,note_on,,,,,192,0,16,,,,,7,,,57,100
111932,note_off,,,,,1340,0,8,,,,,0,,,79,100
111936,note_on,,,,,4,0,8,,,,,0,,,75,85
112124,note_off,,,,,188,0,8,,,,,0,,,75,100
112128,note_off,,,,,0,0,15,,,,,7,,,70,100
112128,note_off,,,,,384,0,15,,,,,7,,,63,100
112128,note_on,,,,,4,0,8,,,,,0,,,74,85
112128,note_off,,,,,384,0,16,,,,,7,,,57,100
112128,note_off,,,,,384,0,14,,,,,6,,,45,100
112128,note_off,,,,,384,0,13,,,,,5,,,57,100
112316,note_off,,,,,188,0,8,,,,,0,,,74,100
112320,note_on,,,,,192,0,13,,,,,5,,,45,85
112320,note_on,,,,,192,0,15,,,,,7,,,60,100
112320,note_on,,,,,0,0,15,,,,,7,,,63,100
112320,note_on,,,,,192,0,14,,,,,6,,,33,85
112320,note_on,,,,,192,0,16,,,,,7,,,45,100
112320,note_on,,,,,4,0,8,,,,,0,,,72,85
112508,note_off,,,,,188,0,8,,,,,0,,,72,64
112512,note_on,,,,,4,0,8,,,,,0,,,70,85
112700,note_off,,,,,188,0,8,,,,,0,,,70,100
112704,note_off,,,,,384,0,15,,,,,7,,,60,100
112704,note_off,,,,,384,0,14,,,,,6,,,33,100
112704,note_off,,,,,0,0,15,,,,,7,,,63,100
112704,note_off,,,,,384,0,13,,,,,5,,,45,100
112704,note_off,,,,,384,0,16,,,,,7,,,45,100
112704,note_on,,,,,4,0,8,,,,,0,,,69,85
112832,note_off,,,,,128,0,8,,,,,0,,,69,100
112896,note_on,,,,,192,0,14,,,,,6,,,38,85
112896,note_on,,,,,0,0,15,,,,,7,,,66,100
112896,note_on,,,,,192,0,16,,,,,7,,,50,100
112896,note_on,,,,,64,0,8,,,,,0,,,78,85
112896,note_on,,,,,192,0,13,,,,,5,,,50,85
112896,note_on,,,,,192,0,15,,,,,7,,,72,100
113084,note_off,,,,,188,0,8,,,,,0,,,78,100
113088,note_on,,,,,4,0,8,,,,,0,,,76,85
113276,note_off,,,,,188,0,8,,,,,0,,,76,100
113276,note_off,,,,,1532,0,9,,,,,1,,,72,100
113280,note_off,,,,,384,0,14,,,,,6,,,38,100
113280,note_on,,,,,4,0,8,,,,,0,,,74,85
113280,note_off,,,,,384,0,13,,,,,5,,,50,100
113280,note_off,,,,,0,0,15,,,,,7,,,66,100
113280,note_off,,,,,384,0,16,,,,,7,,,50,100
113280,note_off,,,,,384,0,15,,,,,7,,,72,100
113408,note_off,,,,,128,0,8,,,,,0,,,74,100
113472,note_on,,,,,192,0,13,,,,,5,,,51,85
113472,note_on,,,,,196,0,9,,,,,1,,,70,85
113472,note_on,,,,,64,0,8,,,,,0,,,79,85
113472,note_on,,,,,192,0,14,,,,,6,,,39,85
113472,note_on,,,,,192,0,16,,,,,7,,,51,100
113472,note_on,,,,,192,0,15,,,,,7,,,67,100
113472,note_on,,,,,0,0,15,,,,,7,,,70,100
113660,note_off,,,,,188,0,8,,,,,0,,,79,100
113664,note_on,,,,,4,0,8,,,,,0,,,78,85
113852,note_off,,,,,188,0,8,,,,,0,,,78,100
113856,note_off,,,,,384,0,16,,,,,7,,,51,100
113856,note_on,,,,,4,0,8,,,,,0,,,79,85
113856,note_off,,,,,384,0,13,,,,,5,,,51,100
113856,note_off,,,,,384,0,15,,,,,7,,,67,100
113856,note_off,,,,,384,0,14,,,,,6,,,39,100
113856,note_off,,,,,384,0,9,,,,,1,,,70,100
113856,note_off,,,,,0,0,15,,,,,7,,,70,100
113984,note_off,,,,,128,0,8,,,,,0,,,79,100
114048,note_on,,,,,0,0,15,,,,,7,,,63,100
114048,note_on,,,,,192,0,14,,,,,6,,,36,85
114048,note_on,,,,,192,0,13,,,,,5,,,48,85
114048,note_on,,,,,192,0,16,,,,,7,,,48,100
114048,note_on,,,,,192,0,9,,,,,1,,,79,85
114048,note_on,,,,,192,0,15,,,,,7,,,67,100
114236,note_off,,,,,188,0,9,,,,,1,,,79,100
114240,note_on,,,,,4,0,9,,,,,1,,,78,85
114428,note_off,,,,,188,0,9,,,,,1,,,78,100
114432,note_off,,,,,384,0,14,,,,,6,,,36,100
114432,note_off,,,,,384,0,15,,,,,7,,,67,100
114432,note_off,,,,,384,0,13,,,,,5,,,48,100
114432,note_on,,,,,4,0,9,,,,,1,,,79,85
114432,note_off,,,,,0,0,15,,,,,7,,,63,100
114432,note_off,,,,,384,0,16,,,,,7,,,48,100
114560,note_off,,,,,128,0,9,,,,,1,,,79,100
114624,note_on,,,,,640,0,8,,,,,0,,,79,85
114624,note_on,,,,,192,0,15,,,,,7,,,67,100
114624,note_on,,,,,192,0,16,,,,,7,,,50,100
114624,note_on,,,,,192,0,14,,,,,6,,,38,85
114624,note_on,,,,,192,0,13,,,,,5,,,50,85
114812,note_off,,,,,188,0,8,,,,,0,,,79,100
114816,note_on,,,,,4,0,8,,,,,0,,,78,85
115004,note_off,,,,,188,0,8,,,,,0,,,78,100
115008,note_off,,,,,384,0,16,,,,,7,,,50,100
115008,note_off,,,,,384,0,14,,,,,6,,,38,100
115008,note_on,,,,,4,0,8,,,,,0,,,79,85
115008,note_off,,,,,384,0,13,,,,,5,,,50,100
115008,note_off,,,,,384,0,15,,,,,7,,,67,100
115136,note_off,,,,,128,0,8,,,,,0,,,79,100
115200,note_on,,,,,640,0,9,,,,,1,,,79,85
115200,note_on,,,,,192,0,16,,,,,7,,,51,100
115200,note_on,,,,,192,0,13,,,,,5,,,51,85
115200,note_on,,,,,0,0,15,,,,,7,,,67,100
115200,note_on,,,,,192,0,14,,,,,6,,,39,85
115200,note_on,,,,,192,0,15,,,,,7,,,70,100
115388,note_off,,,,,188,0,9,,,,,1,,,79,100
115392,note_on,,,,,4,0,9,,,,,1,,,78,85
115520,note_off,,,,,128,0,9,,,,,1,,,78,100
115584,note_off,,,,,384,0,15,,,,,7,,,70,100
115584,note_on,,,,,64,0,9,,,,,1,,,79,85
115584,note_off,,,,,0,0,15,,,,,7,,,67,100
115584,note_off,,,,,384,0,16,,,,,7,,,51,100
115584,note_off,,,,,384,0,14,,,,,6,,,39,100
115584,note_off,,,,,384,0,13,,,,,5,,,51,100
115712,note_off,,,,,128,0,9,,,,,1,,,79,100
115776,note_on,,,,,192,0,14,,,,,6,,,34,85
115776,note_on,,,,,192,0,13,,,,,5,,,46,85
115776,note_on,,,,,192,0,15,,,,,7,,,67,100
115776,note_on,,,,,192,0,16,,,,,7,,,46,100
115776,note_on,,,,,640,0,8,,,,,0,,,79,85
115776,note_on,,,,,0,0,15,,,,,7,,,62,100
115964,note_off,,,,,188,0,8,,,,,0,,,79,100
115968,note_on,,,,,4,0,8,,,,,0,,,78,85
116096,note_off,,,,,128,0,8,,,,,0,,,78,100
116160,note_on,,,,,64,0,8,,,,,0,,,79,85
116160,note_off,,,,,384,0,15,,,,,7,,,67,100
116160,note_off,,,,,0,0,15,,,,,7,,,62,100
116160,note_off,,,,,384,0,13,,,,,5,,,46,100
116160,note_off,,,,,384,0,16,,,,,7,,,46,100
116160,note_off,,,,,384,0,14,,,,,6,,,34,100
116288,note_off,,,,,128,0,8,,,,,0,,,79,100
116352,note_on,,,,,192,0,16,,,,,7,,,48,100
116352,note_on,,,,,192,0,14,,,,,6,,,36,85
116352,note_on,,,,,192,0,13,,,,,5,,,48,85
116352,note_on,,,,,0,0,15,,,,,7,,,70,100
116352,note_on,,,,,192,0,15,,,,,7,,,67,100
116352,note_on,,,,,64,0,8,,,,,0,,,79,85
116352,note_on,,,,,640,0,9,,,,,1,,,70,85
116540,note_off,,,,,188,0,8,,,,,0,,,79,100
116540,note_off,,,,,188,0,9,,,,,1,,,70,100
116544,note_on,,,,,4,0,8,,,,,0,,,78,85
116544,note_on,,,,,4,0,9,,,,,1,,,69,85
116672,note_off,,,,,128,0,9,,,,,1,,,69,100
116672,note_off,,,,,128,0,8,,,,,0,,,78,100
116736,note_off,,,,,384,0,14,,,,,6,,,36,100
116736,note_on,,,,,64,0,9,,,,,1,,,70,85
116736,note_off,,,,,384,0,15,,,,,7,,,67,100
116736,note_off,,,,,0,0,15,,,,,7,,,70,100
116736,note_off,,,,,384,0,13,,,,,5,,,48,100
116736,note_off,,,,,384,0,16,,,,,7,,,48,100
116736,note_on,,,,,64,0,8,,,,,0,,,79,85
116864,note_off,,,,,128,0,8,,,,,0,,,79,100
116864,note_off,,,,,128,0,9,,,,,1,,,70,100
116928,note_on,,,,,64,0,9,,,,,1,,,69,85
116928,note_on,,,,,64,0,8,,,,,0,,,78,85
116928,note_on,,,,,192,0,13,,,,,5,,,50,85
116928,note_on,,,,,192,0,16,,,,,7,,,50,100
116928,note_on,,,,,192,0,14,,,,,6,,,38,85
116928,note_on,,,,,0,0,15,,,,,7,,,69,100
116928,note_on,,,,,192,0,15,,,,,7,,,66,100
117116,note_off,,,,,188,0,8,,,,,0,,,78,100
117120,note_on,,,,,4,0,8,,,,,0,,,76,85
117184,note_off,,,,,256,0,9,,,,,1,,,69,100
117248,note_off,,,,,128,0,8,,,,,0,,,76,100
117312,note_on,,,,,64,0,8,,,,,0,,,78,85
117312,note_on,,,,,128,0,9,,,,,1,,,69,85
117312,note_off,,,,,384,0,13,,,,,5,,,50,100
117312,note_off,,,,,384,0,15,,,,,7,,,66,100
117312,note_off,,,,,0,0,15,,,,,7,,,69,100
117312,note_off,,,,,384,0,14,,,,,6,,,38,100
117312,note_off,,,,,384,0,16,,,,,7,,,50,100
117440,note_off,,,,,128,0,9,,,,,1,,,69,100
117440,note_off,,,,,128,0,8,,,,,0,,,78,100
117504,note_on,,,,,64,0,8,,,,,0,,,79,85
117504,note_on,,,,,192,0,16,,,,,7,,,55,100
117504,note_on,,,,,0,0,12,,,,,4,,,62,85
117504,note_on,,,,,192,0,15,,,,,7,,,70,100
117504,note_on,,,,,192,0,14,,,,,6,,,43,85
117504,note_on,,,,,12288,0,12,,,,,4,,,70,85
117504,note_on,,,,,192,0,13,,,,,5,,,55,85
117504,note_on,,,,,64,0,9,,,,,1,,,79,85
117504,note_on,,,,,12288,0,11,,,,,3,,,79,35
117504,note_on,,,,,12288,0,10,,,,,2,,,79,95
117504,note_on,,,,,0,0,15,,,,,7,,,74,100
117632,note_off,,,,,128,0,9,,,,,1,,,79,100
117632,note_off,,,,,128,0,8,,,,,0,,,79,100
117692,note_off,,,,,188,0,10,,,,,2,,,79,100
117692,note_off,,,,,188,0,11,,,,,3,,,79,100
117696,note_on,,,,,4,0,11,,,,,3,,,77,35
117696,note_on,,,,,4,0,10,,,,,2,,,77,95
117824,note_off,,,,,128,0,10,,,,,2,,,77,100
117824,note_off,,,,,128,0,11,,,,,3,,,77,100
117888,note_off,,,,,384,0,14,,,,,6,,,43,100
117888,note_off,,,,,0,0,15,,,,,7,,,74,100
117888,note_off,,,,,384,0,15,,,,,7,,,70,100
117888,note_off,,,,,384,0,12,,,,,4,,,70,100
117888,note_on,,,,,64,0,11,,,,,3,,,75,35
117888,note_off,,,,,384,0,16,,,,,7,,,55,100
117888,note_off,,,,,0,0,12,,,,,4,,,62,100
117888,note_off,,,,,384,0,13,,,,,5,,,55,100
117888,note_on,,,,,64,0,10,,,,,2,,,75,95
118016,note_off,,,,,128,0,10,,,,,2,,,75,100
118016,note_off,,,,,128,0,11,,,,,3,,,75,100
118080,note_on,,,,,192,0,13,,,,,5,,,54,85
118080,note_on,,,,,192,0,16,,,,,7,,,54,100
118080,note_on,,,,,192,0,15,,,,,7,,,74,100
118080,note_on,,,,,192,0,14,,,,,6,,,42,85
118080,note_on,,,,,64,0,11,,,,,3,,,74,35
118080,note_on,,,,,64,0,10,,,,,2,,,74,95
118080,note_on,,,,,0,0,15,,,,,7,,,69,100
118080,note_on,,,,,0,0,12,,,,,4,,,66,85
118080,note_on,,,,,192,0,12,,,,,4,,,69,85
118336,note_off,,,,,256,0,11,,,,,3,,,74,100
118336,note_off,,,,,256,0,10,,,,,2,,,74,100
118464,note_on,,,,,128,0,10,,,,,2,,,72,95
118464,note_off,,,,,384,0,14,,,,,6,,,42,100
118464,note_on,,,,,128,0,11,,,,,3,,,72,35
118464,note_off,,,,,384,0,16,,,,,7,,,54,100
118464,note_off,,,,,0,0,12,,,,,4,,,66,100
118464,note_off,,,,,0,0,15,,,,,7,,,69,100
118464,note_off,,,,,384,0,15,,,,,7,,,74,100
118464,note_off,,,,,384,0,12,,,,,4,,,69,100
118464,note_off,,,,,384,0,13,,,,,5,,,54,100
118592,note_off,,,,,128,0,11,,,,,3,,,72,100
118592,note_off,,,,,128,0,10,,,,,2,,,72,100
118656,note_on,,,,,192,0,16,,,,,7,,,55,100
118656,note_on,,,,,64,0,11,,,,,3,,,70,35
118656,note_on,,,,,192,0,12,,,,,4,,,67,85
118656,note_on,,,,,0,0,12,,,,,4,,,62,85
118656,note_on,,,,,192,0,14,,,,,6,,,43,85
118656,note_on,,,,,192,0,15,,,,,7,,,70,100
118656,note_on,,,,,0,0,15,,,,,7,,,74,100
118656,note_on,,,,,192,0,13,,,,,5,,,55,85
118656,note_on,,,,,64,0,10,,,,,2,,,70,95
118784,note_off,,,,,128,0,11,,,,,3,,,70,100
118784,note_off,,,,,128,0,10,,,,,2,,,70,100
118848,note_on,,,,,64,0,10,,,,,2,,,69,95
118848,note_on,,,,,64,0,11,,,,,3,,,69,35
118976,note_off,,,,,128,0,11,,,,,3,,,69,100
118976,note_off,,,,,128,0,10,,,,,2,,,69,100
119040,note_off,,,,,384,0,13,,,,,5,,,55,100
119040,note_on,,,,,64,0,10,,,,,2,,,67,95
119040,note_off,,,,,384,0,16,,,,,7,,,55,100
119040,note_on,,,,,64,0,11,,,,,3,,,67,35
119040,note_off,,,,,0,0,15,,,,,7,,,74,100
119040,note_off,,,,,384,0,15,,,,,7,,,70,100
119040,note_off,,,,,0,0,12,,,,,4,,,62,100
119040,note_off,,,,,384,0,12,,,,,4,,,67,100
119040,note_off,,,,,384,0,14,,,,,6,,,43,100
119168,note_off,,,,,128,0,11,,,,,3,,,67,100
119168,note_off,,,,,128,0,10,,,,,2,,,67,100
119616,note_on,,,,,576,0,14,,,,,6,,,43,85
119616,note_on,,,,,576,0,13,,,,,5,,,55,85
119616,note_on,,,,,448,0,11,,,,,3,,,82,35
119616,note_on,,,,,576,0,16,,,,,7,,,55,100
119616,note_on,,,,,576,0,12,,,,,4,,,74,85
119616,note_on,,,,,0,0,12,,,,,4,,,62,85
119616,note_on,,,,,0,0,15,,,,,7,,,74,100
119616,note_on,,,,,576,0,15,,,,,7,,,70,100
119616,note_on,,,,,448,0,10,,,,,2,,,82,95
119744,note_off,,,,,128,0,10,,,,,2,,,82,100
119744,note_off,,,,,0,0,12,,,,,4,,,62,100
119744,note_off,,,,,128,0,12,,,,,4,,,74,100
119744,note_off,,,,,128,0,16,,,,,7,,,55,100
119744,note_off,,,,,128,0,14,,,,,6,,,43,100
119744,note_off,,,,,128,0,11,,,,,3,,,82,100
119744,note_off,,,,,0,0,15,,,,,7,,,74,100
119744,note_off,,,,,128,0,15,,,,,7,,,70,100
119744,note_off,,,,,128,0,13,,,,,5,,,55,100
119808,note_on,,,,,64,0,14,,,,,6,,,42,85
119808,note_on,,,,,64,0,10,,,,,2,,,81,95
119808,note_on,,,,,0,0,12,,,,,4,,,66,85
119808,note_on,,,,,64,0,12,,,,,4,,,74,85
119808,note_on,,,,,64,0,15,,,,,7,,,69,100
119808,note_on,,,,,0,0,15,,,,,7,,,74,100
119808,note_on,,,,,64,0,11,,,,,3,,,81,35
119808,note_on,,,,,64,0,16,,,,,7,,,54,100
119808,note_on,,,,,64,0,13,,,,,5,,,54,85
120064,note_off,,,,,256,0,10,,,,,2,,,81,100
120064,note_off,,,,,256,0,11,,,,,3,,,81,100
120192,note_off,,,,,384,0,16,,,,,7,,,54,100
120192,note_off,,,,,384,0,13,,,,,5,,,54,100
120192,note_off,,,,,384,0,12,,,,,4,,,66,100
120192,note_off,,,,,0,0,15,,,,,7,,,74,100
120192,note_off,,,,,384,0,14,,,,,6,,,42,100
120192,note_on,,,,,128,0,11,,,,,3,,,86,35
120192,note_on,,,,,128,0,10,,,,,2,,,86,95
120192,note_off,,,,,384,0,15,,,,,7,,,69,100
120320,note_off,,,,,128,0,10,,,,,2,,,86,100
120320,note_off,,,,,128,0,11,,,,,3,,,86,100
120384,note_on,,,,,192,0,12,,,,,4,,,62,85
120384,note_on,,,,,192,0,14,,,,,6,,,43,85
120384,note_on,,,,,0,0,15,,,,,7,,,74,100
120384,note_on,,,,,192,0,13,,,,,5,,,55,85
120384,note_on,,,,,192,0,15,,,,,7,,,70,100
120384,note_on,,,,,192,0,16,,,,,7,,,55,100
120384,note_on,,,,,64,0,10,,,,,2,,,82,95
120384,note_on,,,,,64,0,11,,,,,3,,,82,35
120572,note_off,,,,,188,0,11,,,,,3,,,82,100
120572,note_off,,,,,188,0,12,,,,,4,,,74,100
120572,note_off,,,,,188,0,10,,,,,2,,,82,100
120576,note_on,,,,,4,0,10,,,,,2,,,81,95
120576,note_on,,,,,4,0,11,,,,,3,,,81,35
120640,note_off,,,,,256,0,14,,,,,6,,,43,100
120640,note_off,,,,,256,0,13,,,,,5,,,55,100
120640,note_off,,,,,256,0,16,,,,,7,,,55,100
120640,note_off,,,,,68,0,12,,,,,4,,,62,100
120640,note_off,,,,,256,0,15,,,,,7,,,70,100
120640,note_off,,,,,0,0,15,,,,,7,,,74,100
120704,note_off,,,,,128,0,10,,,,,2,,,81,100
120704,note_off,,,,,128,0,11,,,,,3,,,81,100
120768,note_on,,,,,0,0,15,,,,,7,,,70,100
120768,note_on,,,,,128,0,12,,,,,4,,,69,85
120768,note_on,,,,,0,0,12,,,,,4,,,76,85
120768,note_on,,,,,128,0,15,,,,,7,,,67,100
120768,note_on,,,,,128,0,14,,,,,6,,,37,85
120768,note_on,,,,,128,0,16,,,,,7,,,49,100
120768,note_on,,,,,64,0,10,,,,,2,,,79,95
120768,note_on,,,,,64,0,11,,,,,3,,,79,35
120768,note_on,,,,,128,0,13,,,,,5,,,49,85
120896,note_off,,,,,128,0,16,,,,,7,,,49,100
120896,note_off,,,,,128,0,14,,,,,6,,,37,100
120896,note_off,,,,,128,0,11,,,,,3,,,79,100
120896,note_off,,,,,128,0,15,,,,,7,,,67,100
120896,note_off,,,,,0,0,15,,,,,7,,,70,100
120896,note_off,,,,,0,0,12,,,,,4,,,76,100
120896,note_off,,,,,128,0,12,,,,,4,,,69,100
120896,note_off,,,,,128,0,13,,,,,5,,,49,100
120896,note_off,,,,,128,0,10,,,,,2,,,79,100
120960,note_on,,,,,64,0,10,,,,,2,,,78,95
120960,note_on,,,,,64,0,13,,,,,5,,,50,85
120960,note_on,,,,,64,0,15,,,,,7,,,69,100
120960,note_on,,,,,0,0,15,,,,,7,,,66,100
120960,note_on,,,,,64,0,14,,,,,6,,,38,85
120960,note_on,,,,,64,0,11,,,,,3,,,78,35
120960,note_on,,,,,64,0,12,,,,,4,,,69,85
120960,note_on,,,,,64,0,16,,,,,7,,,50,100
121088,note_off,,,,,128,0,10,,,,,2,,,78,100
121088,note_off,,,,,128,0,11,,,,,3,,,78,100
121152,note_on,,,,,64,0,10,,,,,2,,,76,95
121152,note_on,,,,,64,0,11,,,,,3,,,76,35
121280,note_off,,,,,128,0,10,,,,,2,,,76,100
121280,note_off,,,,,128,0,11,,,,,3,,,76,100
121344,note_on,,,,,64,0,10,,,,,2,,,74,95
121344,note_on,,,,,64,0,11,,,,,3,,,74,35
121344,note_off,,,,,384,0,16,,,,,7,,,50,100
121344,note_off,,,,,384,0,13,,,,,5,,,50,100
121344,note_off,,,,,0,0,15,,,,,7,,,66,100
121344,note_off,,,,,384,0,14,,,,,6,,,38,100
121344,note_off,,,,,384,0,15,,,,,7,,,69,100
121344,note_off,,,,,384,0,12,,,,,4,,,69,100
121472,note_off,,,,,128,0,10,,,,,2,,,74,100
121472,note_off,,,,,128,0,11,,,,,3,,,74,100
121536,note_on,,,,,0,0,15,,,,,7,,,69,100
121536,note_on,,,,,192,0,14,,,,,6,,,50,85
121536,note_on,,,,,192,0,15,,,,,7,,,74,100
121536,note_on,,,,,192,0,13,,,,,5,,,62,85
121536,note_on,,,,,192,0,16,,,,,7,,,62,100
121792,note_off,,,,,256,0,14,,,,,6,,,50,100
121792,note_off,,,,,256,0,16,,,,,7,,,62,100
121792,note_off,,,,,256,0,13,,,,,5,,,62,100
121792,note_off,,,,,256,0,15,,,,,7,,,74,100
121792,note_off,,,,,0,0,15,,,,,7,,,69,100
121920,note_on,,,,,448,0,10,,,,,2,,,78,85
121920,note_on,,,,,128,0,14,,,,,6,,,48,85
121920,note_on,,,,,576,0,12,,,,,4,,,69,85
121920,note_on,,,,,128,0,15,,,,,7,,,66,100
121920,note_on,,,,,0,0,15,,,,,7,,,62,100
121920,note_on,,,,,128,0,16,,,,,7,,,60,100
121920,note_on,,,,,128,0,13,,,,,5,,,60,85
122048,note_off,,,,,128,0,12,,,,,4,,,69,100
122048,note_off,,,,,128,0,15,,,,,7,,,66,100
122048,note_off,,,,,128,0,16,,,,,7,,,60,100
122048,note_off,,,,,0,0,15,,,,,7,,,62,100
122048,note_off,,,,,128,0,14,,,,,6,,,48,100
122048,note_off,,,,,128,0,13,,,,,5,,,60,100
122048,note_off,,,,,128,0,10,,,,,2,,,78,100
122112,note_on,,,,,64,0,13,,,,,5,,,58,85
122112,note_on,,,,,64,0,16,,,,,7,,,58,100
122112,note_on,,,,,64,0,10,,,,,2,,,79,85
122112,note_on,,,,,64,0,14,,,,,6,,,46,85
122112,note_on,,,,,64,0,12,,,,,4,,,74,85
122112,note_on,,,,,0,0,15,,,,,7,,,62,100
122112,note_on,,,,,64,0,15,,,,,7,,,67,100
122300,note_off,,,,,188,0,10,,,,,2,,,79,100
122304,note_on,,,,,4,0,10,,,,,2,,,78,85
122432,note_off,,,,,128,0,10,,,,,2,,,78,100
122496,note_off,,,,,0,0,15,,,,,7,,,62,100
122496,note_off,,,,,384,0,12,,,,,4,,,74,100
122496,note_on,,,,,64,0,10,,,,,2,,,79,85
122496,note_off,,,,,384,0,15,,,,,7,,,67,100
122496,note_off,,,,,384,0,13,,,,,5,,,58,100
122496,note_off,,,,,384,0,16,,,,,7,,,58,100
122496,note_off,,,,,384,0,14,,,,,6,,,46,100
122624,note_off,,,,,128,0,10,,,,,2,,,79,100
122688,note_on,,,,,192,0,16,,,,,7,,,55,100
122688,note_on,,,,,192,0,13,,,,,5,,,55,85
122688,note_on,,,,,0,0,15,,,,,7,,,62,100
122688,note_on,,,,,192,0,15,,,,,7,,,70,100
122688,note_on,,,,,192,0,14,,,,,6,,,43,85
122688,note_on,,,,,192,0,12,,,,,4,,,70,85
122688,note_on,,,,,64,0,10,,,,,2,,,67,85
122944,note_off,,,,,256,0,10,,,,,2,,,67,100
123072,note_off,,,,,384,0,14,,,,,6,,,43,100
123072,note_off,,,,,384,0,12,,,,,4,,,70,100
123072,note_on,,,,,128,0,10,,,,,2,,,79,85
123072,note_off,,,,,384,0,15,,,,,7,,,70,100
123072,note_off,,,,,0,0,15,,,,,7,,,62,100
123072,note_off,,,,,384,0,13,,,,,5,,,55,100
123072,note_off,,,,,384,0,16,,,,,7,,,55,100
123200,note_off,,,,,128,0,10,,,,,2,,,79,100
123264,note_on,,,,,0,0,15,,,,,7,,,69,100
123264,note_on,,,,,192,0,16,,,,,7,,,50,100
123264,note_on,,,,,192,0,15,,,,,7,,,67,100
123264,note_on,,,,,192,0,13,,,,,5,,,50,85
123264,note_on,,,,,192,0,12,,,,,4,,,69,85
123264,note_on,,,,,1792,0,11,,,,,3,,,74,85
123264,note_on,,,,,192,0,14,,,,,6,,,38,85
123264,note_on,,,,,64,0,10,,,,,2,,,79,85
123308,note_off,,,,,44,0,10,,,,,2,,,79,100
123312,note_on,,,,,4,0,10,,,,,2,,,81,85
123356,note_off,,,,,44,0,10,,,,,2,,,81,100
123360,note_on,,,,,4,0,10,,,,,2,,,79,85
123404,note_off,,,,,44,0,10,,,,,2,,,79,100
123408,note_on,,,,,4,0,10,,,,,2,,,81,85
123452,note_off,,,,,188,0,11,,,,,3,,,74,100
123452,note_off,,,,,44,0,10,,,,,2,,,81,100
123456,note_on,,,,,4,0,10,,,,,2,,,79,85
123456,note_on,,,,,4,0,11,,,,,3,,,73,85
123500,note_off,,,,,44,0,10,,,,,2,,,79,100
123504,note_on,,,,,4,0,10,,,,,2,,,81,85
123548,note_off,,,,,44,0,10,,,,,2,,,81,100
123552,note_on,,,,,4,0,10,,,,,2,,,79,85
123584,note_off,,,,,128,0,11,,,,,3,,,73,100
123596,note_off,,,,,44,0,10,,,,,2,,,79,100
123600,note_on,,,,,4,0,10,,,,,2,,,81,85
123644,note_off,,,,,44,0,10,,,,,2,,,81,100
123648,note_off,,,,,384,0,15,,,,,7,,,67,100
123648,note_off,,,,,0,0,15,,,,,7,,,69,100
123648,note_off,,,,,384,0,16,,,,,7,,,50,100
123648,note_off,,,,,384,0,14,,,,,6,,,38,100
123648,note_on,,,,,4,0,10,,,,,2,,,79,85
123648,note_off,,,,,384,0,13,,,,,5,,,50,100
123648,note_on,,,,,64,0,11,,,,,3,,,74,85
123776,note_off,,,,,128,0,10,,,,,2,,,79,100
123776,note_off,,,,,128,0,11,,,,,3,,,74,100
123840,note_on,,,,,64,0,10,,,,,2,,,78,85
123840,note_on,,,,,64,0,11,,,,,3,,,62,85
124032,note_off,,,,,768,0,12,,,,,4,,,69,100
124096,note_off,,,,,256,0,11,,,,,3,,,62,100
124224,note_on,,,,,576,0,14,,,,,6,,,50,85
124224,note_off,,,,,384,0,10,,,,,2,,,78,100
124224,note_on,,,,,576,0,16,,,,,7,,,62,100
124224,note_on,,,,,576,0,13,,,,,5,,,62,85
124224,note_on,,,,,128,0,11,,,,,3,,,74,85
124224,note_on,,,,,0,0,15,,,,,7,,,69,100
124224,note_on,,,,,576,0,15,,,,,7,,,66,100
124352,note_off,,,,,128,0,11,,,,,3,,,74,100
124352,note_off,,,,,128,0,13,,,,,5,,,62,100
124352,note_off,,,,,128,0,16,,,,,7,,,62,100
124352,note_off,,,,,128,0,14,,,,,6,,,50,100
124352,note_off,,,,,0,0,15,,,,,7,,,69,100
124352,note_off,,,,,128,0,15,,,,,7,,,66,100
124416,note_on,,,,,64,0,15,,,,,7,,,65,100
124416,note_on,,,,,384,0,12,,,,,4,,,67,85
124416,note_on,,,,,0,0,15,,,,,7,,,67,100
124416,note_on,,,,,64,0,13,,,,,5,,,59,85
124416,note_on,,,,,192,0,10,,,,,2,,,77,85
124416,note_on,,,,,64,0,16,,,,,7,,,59,100
124416,note_on,,,,,64,0,11,,,,,3,,,74,85
124416,note_on,,,,,64,0,14,,,,,6,,,47,85
124604,note_off,,,,,188,0,11,,,,,3,,,74,100
124604,note_off,,,,,188,0,10,,,,,2,,,77,100
124608,note_on,,,,,4,0,10,,,,,2,,,76,85
124608,note_on,,,,,4,0,11,,,,,3,,,72,85
124736,note_off,,,,,128,0,10,,,,,2,,,76,100
124736,note_off,,,,,128,0,11,,,,,3,,,72,100
124800,note_off,,,,,384,0,15,,,,,7,,,65,100
124800,note_on,,,,,64,0,10,,,,,2,,,77,85
124800,note_off,,,,,384,0,13,,,,,5,,,59,100
124800,note_on,,,,,64,0,11,,,,,3,,,74,85
124800,note_off,,,,,0,0,15,,,,,7,,,67,100
124800,note_off,,,,,384,0,16,,,,,7,,,59,100
124800,note_off,,,,,384,0,14,,,,,6,,,47,100
124928,note_off,,,,,128,0,11,,,,,3,,,74,100
124928,note_off,,,,,128,0,10,,,,,2,,,77,100
124992,note_on,,,,,192,0,13,,,,,5,,,55,85
124992,note_on,,,,,64,0,10,,,,,2,,,65,85
124992,note_on,,,,,192,0,15,,,,,7,,,59,100
124992,note_on,,,,,192,0,16,,,,,7,,,55,100
124992,note_on,,,,,64,0,11,,,,,3,,,62,85
124992,note_on,,,,,0,0,15,,,,,7,,,65,100
124992,note_on,,,,,192,0,14,,,,,6,,,43,85
125248,note_off,,,,,256,0,10,,,,,2,,,65,100
125248,note_off,,,,,256,0,11,,,,,3,,,62,100
125376,note_off,,,,,384,0,15,,,,,7,,,59,100
125376,note_off,,,,,0,0,15,,,,,7,,,65,100
125376,note_off,,,,,384,0,16,,,,,7,,,55,100
125376,note_on,,,,,128,0,11,,,,,3,,,74,85
125376,note_on,,,,,128,0,10,,,,,2,,,77,85
125376,note_off,,,,,384,0,13,,,,,5,,,55,100
125376,note_off,,,,,384,0,14,,,,,6,,,43,100
125504,note_off,,,,,128,0,11,,,,,3,,,74,100
125504,note_off,,,,,128,0,10,,,,,2,,,77,100
125568,note_on,,,,,64,0,11,,,,,3,,,74,85
125568,note_on,,,,,0,0,15,,,,,7,,,74,100
125568,note_on,,,,,192,0,15,,,,,7,,,65,100
125568,note_on,,,,,192,0,14,,,,,6,,,48,85
125568,note_on,,,,,192,0,13,,,,,5,,,60,85
125568,note_on,,,,,192,0,16,,,,,7,,,60,100
125568,note_on,,,,,64,0,10,,,,,2,,,77,85
125612,note_off,,,,,44,0,11,,,,,3,,,74,100
125612,note_off,,,,,44,0,10,,,,,2,,,77,100
125616,note_on,,,,,4,0,11,,,,,3,,,76,85
125616,note_on,,,,,4,0,10,,,,,2,,,79,85
125660,note_off,,,,,44,0,11,,,,,3,,,76,100
125660,note_off,,,,,44,0,10,,,,,2,,,79,100
125664,note_on,,,,,4,0,11,,,,,3,,,74,85
125664,note_on,,,,,4,0,10,,,,,2,,,77,85
125696,note_off,,,,,128,0,16,,,,,7,,,60,100
125696,note_off,,,,,128,0,14,,,,,6,,,48,100
125696,note_off,,,,,128,0,13,,,,,5,,,60,100
125708,note_off,,,,,44,0,11,,,,,3,,,74,100
125708,note_off,,,,,44,0,10,,,,,2,,,77,100
125712,note_on,,,,,4,0,10,,,,,2,,,79,85
125712,note_on,,,,,4,0,11,,,,,3,,,76,85
125756,note_off,,,,,44,0,10,,,,,2,,,79,100
125756,note_off,,,,,44,0,11,,,,,3,,,76,100
125760,note_on,,,,,4,0,11,,,,,3,,,74,85
125760,note_on,,,,,64,0,14,,,,,6,,,47,85
125760,note_on,,,,,64,0,13,,,,,5,,,59,85
125760,note_on,,,,,64,0,16,,,,,7,,,59,100
125760,note_on,,,,,4,0,10,,,,,2,,,77,85
125804,note_off,,,,,44,0,11,,,,,3,,,74,100
125804,note_off,,,,,44,0,10,,,,,2,,,77,100
125808,note_on,,,,,4,0,11,,,,,3,,,76,85
125808,note_on,,,,,4,0,10,,,,,2,,,79,85
125852,note_off,,,,,44,0,10,,,,,2,,,79,100
125852,note_off,,,,,44,0,11,,,,,3,,,76,100
125856,note_on,,,,,4,0,10,,,,,2,,,77,85
125856,note_on,,,,,4,0,11,,,,,3,,,74,85
125888,note_off,,,,,128,0,16,,,,,7,,,59,100
125888,note_off,,,,,128,0,13,,,,,5,,,59,100
125888,note_off,,,,,128,0,14,,,,,6,,,47,100
125900,note_off,,,,,44,0,10,,,,,2,,,77,100
125900,note_off,,,,,44,0,11,,,,,3,,,74,100
125904,note_on,,,,,4,0,11,,,,,3,,,76,85
125904,note_on,,,,,4,0,10,,,,,2,,,79,85
125948,note_off,,,,,44,0,11,,,,,3,,,76,100
125948,note_off,,,,,44,0,10,,,,,2,,,79,100
125952,note_on,,,,,64,0,13,,,,,5,,,60,85
125952,note_on,,,,,4,0,11,,,,,3,,,74,85
125952,note_off,,,,,384,0,15,,,,,7,,,65,100
125952,note_on,,,,,64,0,14,,,,,6,,,48,85
125952,note_off,,,,,1536,0,12,,,,,4,,,67,100
125952,note_on,,,,,64,0,16,,,,,7,,,60,100
125952,note_off,,,,,0,0,15,,,,,7,,,74,100
125952,note_on,,,,,4,0,10,,,,,2,,,77,85
126080,note_off,,,,,128,0,10,,,,,2,,,77,100
126080,note_off,,,,,128,0,14,,,,,6,,,48,100
126080,note_off,,,,,128,0,16,,,,,7,,,60,100
126080,note_off,,,,,128,0,13,,,,,5,,,60,100
126080,note_off,,,,,128,0,11,,,,,3,,,74,100
126144,note_on,,,,,64,0,11,,,,,3,,,72,85
126144,note_on,,,,,192,0,15,,,,,7,,,64,100
126144,note_on,,,,,64,0,10,,,,,2,,,76,85
126144,note_on,,,,,64,0,16,,,,,7,,,48,100
126144,note_on,,,,,64,0,14,,,,,6,,,36,85
126144,note_on,,,,,64,0,13,,,,,5,,,48,85
126144,note_on,,,,,0,0,15,,,,,7,,,72,100
126400,note_off,,,,,256,0,14,,,,,6,,,36,100
126400,note_off,,,,,256,0,13,,,,,5,,,48,100
126400,note_off,,,,,256,0,16,,,,,7,,,48,100
126528,note_off,,,,,0,0,15,,,,,7,,,72,100
126528,note_on,,,,,128,0,14,,,,,6,,,48,85
126528,note_off,,,,,384,0,10,,,,,2,,,76,100
126528,note_off,,,,,384,0,11,,,,,3,,,72,100
126528,note_on,,,,,128,0,16,,,,,7,,,60,100
126528,note_on,,,,,128,0,13,,,,,5,,,60,85
126528,note_off,,,,,384,0,15,,,,,7,,,64,100
126656,note_off,,,,,128,0,14,,,,,6,,,48,100
126656,note_off,,,,,128,0,13,,,,,5,,,60,100
126656,note_off,,,,,128,0,16,,,,,7,,,60,100
126720,note_on,,,,,64,0,16,,,,,7,,,57,100
126720,note_on,,,,,768,0,12,,,,,4,,,65,85
126720,note_on,,,,,64,0,14,,,,,6,,,45,85
126720,note_on,,,,,192,0,10,,,,,2,,,75,85
126720,note_on,,,,,192,0,11,,,,,3,,,72,85
126720,note_on,,,,,192,0,15,,,,,7,,,63,100
126720,note_on,,,,,0,0,15,,,,,7,,,65,100
126720,note_on,,,,,64,0,13,,,,,5,,,57,85
126908,note_off,,,,,188,0,11,,,,,3,,,72,100
126908,note_off,,,,,188,0,10,,,,,2,,,75,100
126912,note_on,,,,,4,0,11,,,,,3,,,70,85
126912,note_on,,,,,4,0,10,,,,,2,,,74,85
127040,note_off,,,,,128,0,10,,,,,2,,,74,100
127040,note_off,,,,,128,0,11,,,,,3,,,70,100
127104,note_off,,,,,384,0,14,,,,,6,,,45,100
127104,note_off,,,,,0,0,15,,,,,7,,,65,100
127104,note_on,,,,,64,0,11,,,,,3,,,72,85
127104,note_off,,,,,384,0,13,,,,,5,,,57,100
127104,note_off,,,,,384,0,15,,,,,7,,,63,100
127104,note_off,,,,,384,0,16,,,,,7,,,57,100
127104,note_on,,,,,64,0,10,,,,,2,,,75,85
127232,note_off,,,,,128,0,10,,,,,2,,,75,100
127232,note_off,,,,,128,0,11,,,,,3,,,72,100
127296,note_on,,,,,192,0,14,,,,,6,,,41,85
127296,note_on,,,,,64,0,10,,,,,2,,,63,85
127296,note_on,,,,,64,0,11,,,,,3,,,60,85
127296,note_on,,,,,192,0,15,,,,,7,,,60,100
127296,note_on,,,,,0,0,15,,,,,7,,,63,100
127296,note_on,,,,,192,0,13,,,,,5,,,53,85
127296,note_on,,,,,192,0,16,,,,,7,,,53,100
127552,note_off,,,,,256,0,11,,,,,3,,,60,100
127552,note_off,,,,,256,0,10,,,,,2,,,63,100
127680,note_on,,,,,128,0,10,,,,,2,,,75,85
127680,note_on,,,,,128,0,11,,,,,3,,,72,85
127680,note_off,,,,,384,0,13,,,,,5,,,53,100
127680,note_off,,,,,384,0,15,,,,,7,,,60,100
127680,note_off,,,,,0,0,15,,,,,7,,,63,100
127680,note_off,,,,,384,0,16,,,,,7,,,53,100
127680,note_off,,,,,384,0,14,,,,,6,,,41,100
127808,note_off,,,,,128,0,11,,,,,3,,,72,100
127808,note_off,,,,,128,0,10,,,,,2,,,75,100
127872,note_on,,,,,192,0,15,,,,,7,,,63,100
127872,note_on,,,,,192,0,14,,,,,6,,,46,85
127872,note_on,,,,,0,0,15,,,,,7,,,72,100
127872,note_on,,,,,64,0,10,,,,,2,,,75,85
127872,note_on,,,,,192,0,16,,,,,7,,,58,100
127872,note_on,,,,,192,0,13,,,,,5,,,58,85
127872,note_on,,,,,64,0,11,,,,,3,,,72,85
127916,note_off,,,,,44,0,10,,,,,2,,,75,100
127916,note_off,,,,,44,0,11,,,,,3,,,72,100
127920,note_on,,,,,4,0,11,,,,,3,,,74,85
127920,note_on,,,,,4,0,10,,,,,2,,,77,85
127964,note_off,,,,,44,0,10,,,,,2,,,77,100
127964,note_off,,,,,44,0,11,,,,,3,,,74,100
127968,note_on,,,,,4,0,10,,,,,2,,,75,85
127968,note_on,,,,,4,0,11,,,,,3,,,72,85
128000,note_off,,,,,128,0,14,,,,,6,,,46,100
128000,note_off,,,,,128,0,13,,,,,5,,,58,100
128000,note_off,,,,,128,0,16,,,,,7,,,58,100
128012,note_off,,,,,44,0,10,,,,,2,,,75,100
128012,note_off,,,,,44,0,11,,,,,3,,,72,100
128016,note_on,,,,,4,0,10,,,,,2,,,77,85
128016,note_on,,,,,4,0,11,,,,,3,,,74,85
128060,note_off,,,,,44,0,10,,,,,2,,,77,100
128060,note_off,,,,,44,0,11,,,,,3,,,74,100
128064,note_on,,,,,64,0,14,,,,,6,,,45,85
128064,note_on,,,,,4,0,10,,,,,2,,,75,85
128064,note_on,,,,,64,0,13,,,,,5,,,57,85
128064,note_on,,,,,64,0,16,,,,,7,,,57,100
128064,note_on,,,,,4,0,11,,,,,3,,,72,85
128108,note_off,,,,,44,0,11,,,,,3,,,72,100
128108,note_off,,,,,44,0,10,,,,,2,,,75,100
128112,note_on,,,,,4,0,11,,,,,3,,,74,85
128112,note_on,,,,,4,0,10,,,,,2,,,77,85
128156,note_off,,,,,44,0,11,,,,,3,,,74,100
128156,note_off,,,,,44,0,10,,,,,2,,,77,100
128160,note_on,,,,,4,0,10,,,,,2,,,75,85
128160,note_on,,,,,4,0,11,,,,,3,,,72,85
128192,note_off,,,,,128,0,13,,,,,5,,,57,100
128192,note_off,,,,,128,0,16,,,,,7,,,57,100
128192,note_off,,,,,128,0,14,,,,,6,,,45,100
128204,note_off,,,,,44,0,10,,,,,2,,,75,100
128204,note_off,,,,,44,0,11,,,,,3,,,72,100
128208,note_on,,,,,4,0,11,,,,,3,,,74,85
128208,note_on,,,,,4,0,10,,,,,2,,,77,85
128252,note_off,,,,,44,0,11,,,,,3,,,74,100
128252,note_off,,,,,44,0,10,,,,,2,,,77,100
128256,note_on,,,,,64,0,13,,,,,5,,,58,85
128256,note_off,,,,,384,0,15,,,,,7,,,63,100
128256,note_on,,,,,64,0,16,,,,,7,,,58,100
128256,note_off,,,,,0,0,15,,,,,7,,,72,100
128256,note_on,,,,,4,0,11,,,,,3,,,72,85
128256,note_on,,,,,4,0,10,,,,,2,,,75,85
128256,note_on,,,,,64,0,14,,,,,6,,,46,85
128260,note_off,,,,,1540,0,12,,,,,4,,,65,100
128384,note_off,,,,,128,0,10,,,,,2,,,75,100
128384,note_off,,,,,128,0,11,,,,,3,,,72,100
128384,note_off,,,,,128,0,13,,,,,5,,,58,100
128384,note_off,,,,,128,0,14,,,,,6,,,46,100
128384,note_off,,,,,128,0,16,,,,,7,,,58,100
128448,note_on,,,,,0,0,15,,,,,7,,,70,100
128448,note_on,,,,,64,0,11,,,,,3,,,70,85
128448,note_on,,,,,192,0,15,,,,,7,,,62,100
128448,note_on,,,,,64,0,13,,,,,5,,,46,85
128448,note_on,,,,,64,0,10,,,,,2,,,74,85
128448,note_on,,,,,64,0,16,,,,,7,,,46,100
128448,note_on,,,,,64,0,14,,,,,6,,,34,85
128704,note_off,,,,,256,0,16,,,,,7,,,46,100
128704,note_off,,,,,256,0,14,,,,,6,,,34,100
128704,note_off,,,,,256,0,13,,,,,5,,,46,100
128832,note_on,,,,,128,0,13,,,,,5,,,58,85
128832,note_off,,,,,384,0,11,,,,,3,,,70,100
128832,note_on,,,,,128,0,16,,,,,7,,,58,100
128832,note_off,,,,,384,0,10,,,,,2,,,74,100
128832,note_on,,,,,128,0,14,,,,,6,,,46,85
128832,note_off,,,,,384,0,15,,,,,7,,,62,100
128832,note_off,,,,,0,0,15,,,,,7,,,70,100
128960,note_off,,,,,128,0,14,,,,,6,,,46,100
128960,note_off,,,,,128,0,13,,,,,5,,,58,100
128960,note_off,,,,,128,0,16,,,,,7,,,58,100
129024,note_on,,,,,192,0,15,,,,,7,,,63,100
129024,note_on,,,,,64,0,13,,,,,5,,,55,85
129024,note_on,,,,,192,0,11,,,,,3,,,70,85
129024,note_on,,,,,64,0,14,,,,,6,,,43,85
129024,note_on,,,,,0,0,15,,,,,7,,,62,100
129024,note_on,,,,,764,0,12,,,,,4,,,63,85
129024,note_on,,,,,192,0,10,,,,,2,,,74,85
129024,note_on,,,,,64,0,16,,,,,7,,,55,100
129212,note_off,,,,,188,0,11,,,,,3,,,70,100
129212,note_off,,,,,188,0,10,,,,,2,,,74,100
129216,note_on,,,,,4,0,10,,,,,2,,,72,85
129216,note_on,,,,,4,0,11,,,,,3,,,69,85
129344,note_off,,,,,128,0,10,,,,,2,,,72,100
129344,note_off,,,,,128,0,11,,,,,3,,,69,100
129408,note_off,,,,,0,0,15,,,,,7,,,62,100
129408,note_off,,,,,384,0,15,,,,,7,,,63,100
129408,note_on,,,,,64,0,10,,,,,2,,,74,85
129408,note_on,,,,,64,0,11,,,,,3,,,70,85
129408,note_off,,,,,384,0,16,,,,,7,,,55,100
129408,note_off,,,,,384,0,14,,,,,6,,,43,100
129408,note_off,,,,,384,0,13,,,,,5,,,55,100
129536,note_off,,,,,128,0,11,,,,,3,,,70,100
129536,note_off,,,,,128,0,10,,,,,2,,,74,100
129600,note_on,,,,,192,0,13,,,,,5,,,51,85
129600,note_on,,,,,64,0,11,,,,,3,,,58,85
129600,note_on,,,,,192,0,16,,,,,7,,,51,100
129600,note_on,,,,,192,0,14,,,,,6,,,39,85
129600,note_on,,,,,192,0,15,,,,,7,,,58,100
129600,note_on,,,,,0,0,15,,,,,7,,,62,100
129600,note_on,,,,,64,0,10,,,,,2,,,62,85
129856,note_off,,,,,256,0,11,,,,,3,,,58,100
129856,note_off,,,,,256,0,10,,,,,2,,,62,100
129984,note_off,,,,,384,0,16,,,,,7,,,51,100
129984,note_off,,,,,384,0,13,,,,,5,,,51,100
129984,note_on,,,,,128,0,10,,,,,2,,,74,85
129984,note_off,,,,,384,0,15,,,,,7,,,58,100
129984,note_off,,,,,0,0,15,,,,,7,,,62,100
129984,note_on,,,,,128,0,11,,,,,3,,,70,85
129984,note_off,,,,,384,0,14,,,,,6,,,39,100
130112,note_off,,,,,128,0,10,,,,,2,,,74,100
130112,note_off,,,,,128,0,11,,,,,3,,,70,100
130176,note_on,,,,,192,0,14,,,,,6,,,45,85
130176,note_on,,,,,64,0,10,,,,,2,,,74,85
130176,note_on,,,,,192,0,15,,,,,7,,,62,100
130176,note_on,,,,,0,0,15,,,,,7,,,70,100
130176,note_on,,,,,64,0,11,,,,,3,,,70,85
130176,note_on,,,,,192,0,16,,,,,7,,,57,100
130176,note_on,,,,,192,0,13,,,,,5,,,57,85
130220,note_off,,,,,44,0,10,,,,,2,,,74,100
130220,note_off,,,,,44,0,11,,,,,3,,,70,100
130224,note_on,,,,,4,0,10,,,,,2,,,75,85
130224,note_on,,,,,4,0,11,,,,,3,,,72,85
130268,note_off,,,,,44,0,10,,,,,2,,,75,100
130268,note_off,,,,,44,0,11,,,,,3,,,72,100
130272,note_on,,,,,4,0,10,,,,,2,,,74,85
130272,note_on,,,,,4,0,11,,,,,3,,,70,85
130304,note_off,,,,,128,0,14,,,,,6,,,45,100
130304,note_off,,,,,128,0,16,,,,,7,,,57,100
130304,note_off,,,,,128,0,13,,,,,5,,,57,100
130316,note_off,,,,,44,0,10,,,,,2,,,74,100
130316,note_off,,,,,44,0,11,,,,,3,,,70,100
130320,note_on,,,,,4,0,11,,,,,3,,,72,85
130320,note_on,,,,,4,0,10,,,,,2,,,75,85
130364,note_off,,,,,44,0,11,,,,,3,,,72,100
130364,note_off,,,,,44,0,10,,,,,2,,,75,100
130368,note_on,,,,,64,0,14,,,,,6,,,43,85
130368,note_on,,,,,4,0,11,,,,,3,,,70,85
130368,note_on,,,,,64,0,13,,,,,5,,,55,85
130368,note_on,,,,,4,0,10,,,,,2,,,74,85
130368,note_on,,,,,64,0,16,,,,,7,,,55,100
130412,note_off,,,,,44,0,11,,,,,3,,,70,100
130412,note_off,,,,,44,0,10,,,,,2,,,74,100
130416,note_on,,,,,4,0,11,,,,,3,,,72,85
130416,note_on,,,,,4,0,10,,,,,2,,,75,85
130460,note_off,,,,,44,0,11,,,,,3,,,72,100
130460,note_off,,,,,44,0,10,,,,,2,,,75,100
130464,note_on,,,,,4,0,10,,,,,2,,,74,85
130464,note_on,,,,,4,0,11,,,,,3,,,70,85
130496,note_off,,,,,128,0,14,,,,,6,,,43,100
130496,note_off,,,,,128,0,16,,,,,7,,,55,100
130496,note_off,,,,,128,0,13,,,,,5,,,55,100
130508,note_off,,,,,44,0,11,,,,,3,,,70,100
130508,note_off,,,,,44,0,10,,,,,2,,,74,100
130512,note_on,,,,,4,0,11,,,,,3,,,72,85
130512,note_on,,,,,4,0,10,,,,,2,,,75,85
130556,note_off,,,,,44,0,10,,,,,2,,,75,100
130556,note_off,,,,,44,0,11,,,,,3,,,72,100
130560,note_on,,,,,64,0,14,,,,,6,,,45,85
130560,note_on,,,,,64,0,13,,,,,5,,,57,85
130560,note_on,,,,,4,0,10,,,,,2,,,74,85
130560,note_on,,,,,64,0,16,,,,,7,,,57,100
130560,note_off,,,,,384,0,15,,,,,7,,,62,100
130560,note_off,,,,,0,0,15,,,,,7,,,70,100
130560,note_on,,,,,4,0,11,,,,,3,,,70,85
130564,note_off,,,,,1540,0,12,,,,,4,,,63,100
130688,note_off,,,,,128,0,10,,,,,2,,,74,100
130688,note_off,,,,,128,0,13,,,,,5,,,57,100
130688,note_off,,,,,128,0,14,,,,,6,,,45,100
130688,note_off,,,,,128,0,16,,,,,7,,,57,100
130688,note_off,,,,,128,0,11,,,,,3,,,70,100
130752,note_on,,,,,64,0,16,,,,,7,,,45,100
130752,note_on,,,,,0,0,15,,,,,7,,,69,100
130752,note_on,,,,,192,0,15,,,,,7,,,60,100
130752,note_on,,,,,64,0,14,,,,,6,,,33,85
130752,note_on,,,,,64,0,13,,,,,5,,,45,85
130752,note_on,,,,,64,0,11,,,,,3,,,69,85
130752,note_on,,,,,64,0,10,,,,,2,,,72,85
131008,note_off,,,,,256,0,14,,,,,6,,,33,100
131008,note_off,,,,,256,0,16,,,,,7,,,45,100
131008,note_off,,,,,256,0,13,,,,,5,,,45,100
131136,note_on,,,,,128,0,14,,,,,6,,,45,85
131136,note_off,,,,,384,0,11,,,,,3,,,69,100
131136,note_off,,,,,0,0,15,,,,,7,,,69,100
131136,note_off,,,,,384,0,15,,,,,7,,,60,100
131136,note_on,,,,,128,0,16,,,,,7,,,57,100
131136,note_on,,,,,128,0,13,,,,,5,,,57,85
131136,note_off,,,,,384,0,10,,,,,2,,,72,100
131264,note_off,,,,,128,0,16,,,,,7,,,57,100
131264,note_off,,,,,128,0,14,,,,,6,,,45,100
131264,note_off,,,,,128,0,13,,,,,5,,,57,100
131328,note_on,,,,,192,0,11,,,,,3,,,69,85
131328,note_on,,,,,64,0,14,,,,,6,,,42,85
131328,note_on,,,,,64,0,13,,,,,5,,,54,85
131328,note_on,,,,,64,0,16,,,,,7,,,54,100
131328,note_on,,,,,764,0,12,,,,,4,,,62,85
131328,note_on,,,,,192,0,15,,,,,7,,,60,100
131328,note_on,,,,,0,0,15,,,,,7,,,62,100
131328,note_on,,,,,192,0,10,,,,,2,,,72,85
131516,note_off,,,,,188,0,11,,,,,3,,,69,100
131516,note_off,,,,,188,0,10,,,,,2,,,72,100
131520,note_on,,,,,4,0,11,,,,,3,,,67,85
131520,note_on,,,,,4,0,10,,,,,2,,,70,85
131648,note_off,,,,,128,0,10,,,,,2,,,70,100
131648,note_off,,,,,128,0,11,,,,,3,,,67,100
131712,note_off,,,,,384,0,14,,,,,6,,,42,100
131712,note_on,,,,,64,0,10,,,,,2,,,72,85
131712,note_off,,,,,384,0,13,,,,,5,,,54,100
131712,note_off,,,,,384,0,16,,,,,7,,,54,100
131712,note_off,,,,,0,0,15,,,,,7,,,62,100
131712,note_on,,,,,64,0,11,,,,,3,,,69,85
131712,note_off,,,,,384,0,15,,,,,7,,,60,100
131840,note_off,,,,,128,0,10,,,,,2,,,72,100
131840,note_off,,,,,128,0,11,,,,,3,,,69,100
131904,note_on,,,,,64,0,10,,,,,2,,,60,85
131904,note_on,,,,,192,0,14,,,,,6,,,38,85
131904,note_on,,,,,192,0,15,,,,,7,,,66,100
131904,note_on,,,,,192,0,13,,,,,5,,,50,85
131904,note_on,,,,,0,0,15,,,,,7,,,60,100
131904,note_on,,,,,64,0,11,,,,,3,,,57,85
131904,note_on,,,,,192,0,16,,,,,7,,,50,100
132160,note_off,,,,,256,0,11,,,,,3,,,57,100
132160,note_off,,,,,256,0,10,,,,,2,,,60,100
132288,note_off,,,,,384,0,16,,,,,7,,,50,100
132288,note_off,,,,,384,0,13,,,,,5,,,50,100
132288,note_on,,,,,128,0,10,,,,,2,,,72,85
132288,note_off,,,,,384,0,15,,,,,7,,,66,100
132288,note_off,,,,,0,0,15,,,,,7,,,60,100
132288,note_off,,,,,384,0,14,,,,,6,,,38,100
132288,note_on,,,,,128,0,11,,,,,3,,,69,85
132416,note_off,,,,,128,0,10,,,,,2,,,72,100
132416,note_off,,,,,128,0,11,,,,,3,,,69,100
132480,note_on,,,,,192,0,15,,,,,7,,,62,100
132480,note_on,,,,,192,0,14,,,,,6,,,43,85
132480,note_on,,,,,192,0,16,,,,,7,,,55,100
132480,note_on,,,,,192,0,13,,,,,5,,,55,85
132480,note_on,,,,,64,0,11,,,,,3,,,67,85
132480,note_on,,,,,64,0,10,,,,,2,,,70,85
132480,note_on,,,,,0,0,15,,,,,7,,,70,100
132608,note_off,,,,,128,0,10,,,,,2,,,70,100
132672,note_on,,,,,64,0,10,,,,,2,,,69,85
132800,note_off,,,,,128,0,10,,,,,2,,,69,100
132864,note_off,,,,,0,0,15,,,,,7,,,70,100
132864,note_off,,,,,384,0,15,,,,,7,,,62,100
132864,note_off,,,,,384,0,14,,,,,6,,,43,100
132864,note_off,,,,,384,0,16,,,,,7,,,55,100
132864,note_off,,,,,384,0,11,,,,,3,,,67,100
132864,note_on,,,,,64,0,10,,,,,2,,,67,85
132864,note_off,,,,,384,0,13,,,,,5,,,55,100
132868,note_off,,,,,1540,0,12,,,,,4,,,62,100
132992,note_off,,,,,128,0,10,,,,,2,,,67,100
133056,note_on,,,,,192,0,15,,,,,7,,,58,100
133056,note_on,,,,,0,0,15,,,,,7,,,62,100
133056,note_on,,,,,192,0,13,,,,,5,,,43,85
133056,note_on,,,,,192,0,14,,,,,6,,,43,85
133056,program_change,,,,,15424,0,8,,,,,0,40,,,
133056,program_change,,,,,15424,0,9,,,,,1,40,,,
133056,note_on,,,,,192,0,16,,,,,7,,,55,100
133058,note_on,,,,,2,0,8,,,,,0,,,82,85
133058,note_on,,,,,2,0,9,,,,,1,,,79,85
133246,note_off,,,,,188,0,9,,,,,1,,,79,100
133246,note_off,,,,,188,0,8,,,,,0,,,82,100
133250,note_on,,,,,4,0,9,,,,,1,,,81,80
133250,note_on,,,,,4,0,8,,,,,0,,,84,80
133378,note_off,,,,,128,0,9,,,,,1,,,81,100
133378,note_off,,,,,128,0,8,,,,,0,,,84,100
133440,note_off,,,,,384,0,16,,,,,7,,,55,100
133440,note_off,,,,,0,0,15,,,,,7,,,62,100
133440,note_off,,,,,384,0,13,,,,,5,,,43,100
133440,note_off,,,,,384,0,14,,,,,6,,,43,100
133440,note_off,,,,,384,0,15,,,,,7,,,58,100
133442,note_on,,,,,64,0,8,,,,,0,,,82,75
133442,note_on,,,,,64,0,9,,,,,1,,,79,75
133570,note_off,,,,,128,0,8,,,,,0,,,82,100
133570,note_off,,,,,128,0,9,,,,,1,,,79,100
133632,note_on,,,,,192,0,16,,,,,7,,,50,100
133632,note_on,,,,,192,0,15,,,,,7,,,66,100
133632,note_on,,,,,0,0,15,,,,,7,,,69,100
133632,note_on,,,,,192,0,13,,,,,5,,,50,85
133632,note_on,,,,,192,0,14,,,,,6,,,38,85
133634,note_on,,,,,64,0,9,,,,,1,,,78,71
133634,note_on,,,,,64,0,8,,,,,0,,,81,71
133822,note_off,,,,,188,0,9,,,,,1,,,78,100
133822,note_off,,,,,188,0,8,,,,,0,,,81,100
133826,note_on,,,,,4,0,8,,,,,0,,,82,66
133826,note_on,,,,,4,0,9,,,,,1,,,79,66
133954,note_off,,,,,128,0,9,,,,,1,,,79,100
133954,note_off,,,,,128,0,8,,,,,0,,,82,100
134016,note_off,,,,,384,0,14,,,,,6,,,38,100
134016,note_off,,,,,384,0,13,,,,,5,,,50,100
134016,note_off,,,,,0,0,15,,,,,7,,,69,100
134016,note_off,,,,,384,0,15,,,,,7,,,66,100
134016,note_off,,,,,384,0,16,,,,,7,,,50,100
134018,note_on,,,,,64,0,8,,,,,0,,,81,61
134018,note_on,,,,,64,0,9,,,,,1,,,78,61
134146,note_off,,,,,128,0,9,,,,,1,,,78,100
134146,note_off,,,,,128,0,8,,,,,0,,,81,100
134208,note_on,,,,,192,0,14,,,,,6,,,43,85
134208,note_on,,,,,192,0,16,,,,,7,,,43,100
134208,note_on,,,,,0,0,15,,,,,7,,,70,100
134208,note_on,,,,,192,0,13,,,,,5,,,43,85
134208,note_on,,,,,192,0,15,,,,,7,,,62,100
134210,note_on,,,,,64,0,9,,,,,1,,,79,60
134210,note_on,,,,,64,0,8,,,,,0,,,82,60
134398,note_off,,,,,188,0,9,,,,,1,,,79,100
134398,note_off,,,,,188,0,8,,,,,0,,,82,100
134402,note_on,,,,,4,0,9,,,,,1,,,81,66
134402,note_on,,,,,4,0,8,,,,,0,,,84,66
134530,note_off,,,,,128,0,9,,,,,1,,,81,100
134530,note_off,,,,,128,0,8,,,,,0,,,84,100
134592,note_off,,,,,384,0,15,,,,,7,,,62,100
134592,note_off,,,,,0,0,15,,,,,7,,,70,100
134592,note_off,,,,,384,0,16,,,,,7,,,43,100
134592,note_off,,,,,384,0,14,,,,,6,,,43,100
134592,note_off,,,,,384,0,13,,,,,5,,,43,100
134594,note_on,,,,,64,0,8,,,,,0,,,82,73
134594,note_on,,,,,64,0,9,,,,,1,,,79,73
134722,note_off,,,,,128,0,8,,,,,0,,,82,100
134722,note_off,,,,,128,0,9,,,,,1,,,79,100
134784,note_on,,,,,192,0,16,,,,,7,,,50,100
134784,note_on,,,,,192,0,13,,,,,5,,,50,85
134784,note_on,,,,,0,0,15,,,,,7,,,69,100
134784,note_on,,,,,192,0,14,,,,,6,,,38,85
134784,note_on,,,,,192,0,15,,,,,7,,,66,100
134786,note_on,,,,,64,0,8,,,,,0,,,81,79
134786,note_on,,,,,64,0,9,,,,,1,,,78,79
134974,note_off,,,,,188,0,8,,,,,0,,,81,100
134974,note_off,,,,,188,0,9,,,,,1,,,78,100
134978,note_on,,,,,4,0,8,,,,,0,,,82,86
134978,note_on,,,,,4,0,9,,,,,1,,,79,86
135106,note_off,,,,,128,0,9,,,,,1,,,79,100
135106,note_off,,,,,128,0,8,,,,,0,,,82,100
135168,note_off,,,,,384,0,15,,,,,7,,,66,100
135168,note_off,,,,,384,0,13,,,,,5,,,50,100
135168,note_off,,,,,384,0,16,,,,,7,,,50,100
135168,note_off,,,,,384,0,14,,,,,6,,,38,100
135168,note_off,,,,,0,0,15,,,,,7,,,69,100
135170,note_on,,,,,64,0,8,,,,,0,,,81,93
135170,note_on,,,,,64,0,9,,,,,1,,,78,93
135298,note_off,,,,,128,0,8,,,,,0,,,81,100
135298,note_off,,,,,128,0,9,,,,,1,,,78,100
135360,note_on,,,,,192,0,14,,,,,6,,,43,85
135360,note_on,,,,,192,0,15,,,,,7,,,62,100
135360,note_on,,,,,0,0,15,,,,,7,,,70,100
135360,note_on,,,,,192,0,16,,,,,7,,,43,100
135360,note_on,,,,,192,0,13,,,,,5,,,43,85
135362,note_on,,,,,64,0,8,,,,,0,,,82,99
135362,note_on,,,,,64,0,9,,,,,1,,,79,99
135550,note_off,,,,,188,0,9,,,,,1,,,79,100
135550,note_off,,,,,188,0,8,,,,,0,,,82,100
135554,note_on,,,,,4,0,9,,,,,1,,,81,100
135554,note_on,,,,,4,0,8,,,,,0,,,84,100
135682,note_off,,,,,128,0,8,,,,,0,,,84,100
135682,note_off,,,,,128,0,9,,,,,1,,,81,100
135744,note_off,,,,,0,0,15,,,,,7,,,70,100
135744,note_off,,,,,384,0,16,,,,,7,,,43,100
135744,note_off,,,,,384,0,13,,,,,5,,,43,100
135744,note_off,,,,,384,0,15,,,,,7,,,62,100
135744,note_off,,,,,384,0,14,,,,,6,,,43,100
135746,note_on,,,,,64,0,8,,,,,0,,,82,100
135746,note_on,,,,,64,0,9,,,,,1,,,79,100
135874,note_off,,,,,128,0,8,,,,,0,,,82,100
135874,note_off,,,,,128,0,9,,,,,1,,,79,100
135936,note_on,,,,,192,0,14,,,,,6,,,38,85
135936,note_on,,,,,192,0,13,,,,,5,,,50,85
135936,note_on,,,,,192,0,16,,,,,7,,,50,100
135936,note_on,,,,,192,0,15,,,,,7,,,66,100
135936,note_on,,,,,0,0,15,,,,,7,,,72,100
135938,note_on,,,,,64,0,8,,,,,0,,,81,100
135938,note_on,,,,,64,0,9,,,,,1,,,78,100
136126,note_off,,,,,188,0,8,,,,,0,,,81,100
136126,note_off,,,,,188,0,9,,,,,1,,,78,100
136130,note_on,,,,,4,0,8,,,,,0,,,84,100
136130,note_on,,,,,4,0,9,,,,,1,,,81,100
136318,note_off,,,,,188,0,8,,,,,0,,,84,100
136318,note_off,,,,,188,0,9,,,,,1,,,81,100
136320,note_off,,,,,384,0,14,,,,,6,,,38,100
136320,note_off,,,,,384,0,13,,,,,5,,,50,100
136320,note_off,,,,,384,0,16,,,,,7,,,50,100
136320,note_off,,,,,384,0,15,,,,,7,,,66,100
136320,note_off,,,,,0,0,15,,,,,7,,,72,100
136322,note_on,,,,,4,0,8,,,,,0,,,82,100
136322,note_on,,,,,4,0,9,,,,,1,,,79,100
136450,note_off,,,,,128,0,9,,,,,1,,,79,100
136450,note_off,,,,,128,0,8,,,,,0,,,82,100
136512,note_on,,,,,192,0,15,,,,,7,,,66,100
136512,note_on,,,,,0,0,15,,,,,7,,,72,100
136512,note_on,,,,,192,0,14,,,,,6,,,38,85
136512,note_on,,,,,192,0,13,,,,,5,,,50,85
136512,note_on,,,,,192,0,16,,,,,7,,,50,100
136514,note_on,,,,,64,0,8,,,,,0,,,82,60
136514,note_on,,,,,64,0,9,,,,,1,,,79,60
136702,note_off,,,,,188,0,8,,,,,0,,,82,100
136702,note_off,,,,,188,0,9,,,,,1,,,79,100
136706,note_on,,,,,4,0,8,,,,,0,,,84,66
136706,note_on,,,,,4,0,9,,,,,1,,,81,66
136834,note_off,,,,,128,0,9,,,,,1,,,81,100
136834,note_off,,,,,128,0,8,,,,,0,,,84,100
136896,note_off,,,,,384,0,13,,,,,5,,,50,100
136896,note_off,,,,,384,0,14,,,,,6,,,38,100
136896,note_off,,,,,0,0,15,,,,,7,,,72,100
136896,note_off,,,,,384,0,16,,,,,7,,,50,100
136896,note_off,,,,,384,0,15,,,,,7,,,66,100
136898,note_on,,,,,64,0,8,,,,,0,,,82,73
136898,note_on,,,,,64,0,9,,,,,1,,,79,73
137026,note_off,,,,,128,0,8,,,,,0,,,82,100
137026,note_off,,,,,128,0,9,,,,,1,,,79,100
137088,note_on,,,,,192,0,16,,,,,7,,,50,100
137088,note_on,,,,,192,0,13,,,,,5,,,50,85
137088,note_on,,,,,192,0,14,,,,,6,,,38,85
137088,note_on,,,,,192,0,15,,,,,7,,,66,100
137088,note_on,,,,,0,0,15,,,,,7,,,72,100
137090,note_on,,,,,64,0,9,,,,,1,,,78,79
137090,note_on,,,,,64,0,8,,,,,0,,,81,79
137278,note_off,,,,,188,0,8,,,,,0,,,81,100
137278,note_off,,,,,188,0,9,,,,,1,,,78,100
137282,note_on,,,,,4,0,8,,,,,0,,,84,86
137282,note_on,,,,,4,0,9,,,,,1,,,81,86
137470,note_off,,,,,188,0,9,,,,,1,,,81,100
137470,note_off,,,,,188,0,8,,,,,0,,,84,100
137472,note_off,,,,,384,0,16,,,,,7,,,50,100
137472,note_off,,,,,0,0,15,,,,,7,,,72,100
137472,note_off,,,,,384,0,15,,,,,7,,,66,100
137472,note_off,,,,,384,0,14,,,,,6,,,38,100
137472,note_off,,,,,384,0,13,,,,,5,,,50,100
137474,note_on,,,,,4,0,8,,,,,0,,,82,93
137474,note_on,,,,,4,0,9,,,,,1,,,79,93
137602,note_off,,,,,128,0,8,,,,,0,,,82,100
137602,note_off,,,,,128,0,9,,,,,1,,,79,100
137664,note_on,,,,,0,0,15,,,,,7,,,72,100
137664,note_on,,,,,192,0,16,,,,,7,,,50,100
137664,note_on,,,,,192,0,14,,,,,6,,,38,85
137664,note_on,,,,,192,0,13,,,,,5,,,50,85
137664,note_on,,,,,192,0,15,,,,,7,,,66,100
137666,note_on,,,,,64,0,8,,,,,0,,,82,99
137666,note_on,,,,,64,0,9,,,,,1,,,79,99
137854,note_off,,,,,188,0,8,,,,,0,,,82,100
137854,note_off,,,,,188,0,9,,,,,1,,,79,100
137858,note_on,,,,,4,0,8,,,,,0,,,84,100
137858,note_on,,,,,4,0,9,,,,,1,,,81,100
137986,note_off,,,,,128,0,8,,,,,0,,,84,100
137986,note_off,,,,,128,0,9,,,,,1,,,81,100
138048,note_off,,,,,384,0,13,,,,,5,,,50,100
138048,note_off,,,,,384,0,15,,,,,7,,,66,100
138048,note_off,,,,,384,0,14,,,,,6,,,38,100
138048,note_off,,,,,384,0,16,,,,,7,,,50,100
138048,note_off,,,,,0,0,15,,,,,7,,,72,100
138050,note_on,,,,,64,0,9,,,,,1,,,79,100
138050,note_on,,,,,64,0,8,,,,,0,,,82,100
138178,note_off,,,,,128,0,8,,,,,0,,,82,100
138178,note_off,,,,,128,0,9,,,,,1,,,79,100
138240,note_on,,,,,192,0,14,,,,,6,,,38,85
138240,note_on,,,,,192,0,16,,,,,7,,,50,100
138240,note_on,,,,,192,0,13,,,,,5,,,50,85
138240,note_on,,,,,0,0,15,,,,,7,,,72,100
138240,note_on,,,,,192,0,15,,,,,7,,,66,100
138242,note_on,,,,,64,0,9,,,,,1,,,81,100
138242,note_on,,,,,64,0,8,,,,,0,,,84,100
138624,note_off,,,,,0,0,15,,,,,7,,,72,100
138624,note_off,,,,,384,0,15,,,,,7,,,66,100
138624,note_off,,,,,384,0,13,,,,,5,,,50,100
138624,note_off,,,,,384,0,16,,,,,7,,,50,100
138624,note_off,,,,,384,0,14,,,,,6,,,38,100
138754,note_off,,,,,512,0,8,,,,,0,,,84,100
138754,note_off,,,,,512,0,9,,,,,1,,,81,100
139010,note_on,,,,,256,0,8,,,,,0,,,82,100
139010,note_on,,,,,256,0,9,,,,,1,,,79,100
139198,note_off,,,,,188,0,8,,,,,0,,,82,100
139198,note_off,,,,,188,0,9,,,,,1,,,79,100
139202,note_on,,,,,4,0,9,,,,,1,,,78,100
139202,note_on,,,,,4,0,8,,,,,0,,,81,100
139330,note_off,,,,,128,0,8,,,,,0,,,81,100
139330,note_off,,,,,128,0,9,,,,,1,,,78,100
139392,note_on,,,,,768,0,13,,,,,5,,,43,85
139392,note_on,,,,,0,0,15,,,,,7,,,62,100
139392,note_on,,,,,768,0,15,,,,,7,,,58,100
139392,note_on,,,,,768,0,14,,,,,6,,,43,85
139392,note_on,,,,,768,0,16,,,,,7,,,43,100
139394,note_on,,,,,64,0,8,,,,,0,,,82,100
139394,note_on,,,,,64,0,9,,,,,1,,,82,100
139776,note_off,,,,,0,0,15,,,,,7,,,62,100
139776,note_off,,,,,384,0,13,,,,,5,,,43,100
139776,note_off,,,,,384,0,15,,,,,7,,,58,100
139776,note_off,,,,,384,0,14,,,,,6,,,43,100
139776,note_off,,,,,384,0,16,,,,,7,,,43,100
139906,note_off,,,,,512,0,9,,,,,1,,,82,100
139906,note_off,,,,,512,0,8,,,,,0,,,82,100
140162,note_on,,,,,256,0,8,,,,,0,,,81,100
140162,note_on,,,,,256,0,9,,,,,1,,,81,100
140350,note_off,,,,,188,0,9,,,,,1,,,81,100
140350,note_off,,,,,188,0,8,,,,,0,,,81,100
140354,note_on,,,,,4,0,9,,,,,1,,,79,100
140354,note_on,,,,,4,0,8,,,,,0,,,79,100
140482,note_off,,,,,128,0,9,,,,,1,,,79,100
140482,note_off,,,,,128,0,8,,,,,0,,,79,100
140544,note_on,,,,,0,0,15,,,,,7,,,72,100
140544,note_on,,,,,62,0,9,,,,,1,,,81,100
140544,note_on,,,,,768,0,14,,,,,6,,,38,85
140544,note_on,,,,,62,0,8,,,,,0,,,84,100
140544,note_on,,,,,768,0,15,,,,,7,,,66,100
140544,note_on,,,,,768,0,13,,,,,5,,,50,85
140544,note_on,,,,,768,0,16,,,,,7,,,50,100
140928,note_off,,,,,384,0,16,,,,,7,,,50,100
140928,note_off,,,,,384,0,13,,,,,5,,,50,100
140928,note_off,,,,,384,0,15,,,,,7,,,66,100
140928,note_off,,,,,0,0,15,,,,,7,,,72,100
140928,note_off,,,,,384,0,14,,,,,6,,,38,100
141056,note_off,,,,,512,0,9,,,,,1,,,81,100
141056,note_off,,,,,512,0,8,,,,,0,,,84,100
141312,note_on,,,,,256,0,9,,,,,1,,,79,100
141312,note_on,,,,,256,0,8,,,,,0,,,82,100
141500,note_off,,,,,188,0,8,,,,,0,,,82,100
141500,note_off,,,,,188,0,9,,,,,1,,,79,100
141504,note_on,,,,,4,0,9,,,,,1,,,78,100
141504,note_on,,,,,4,0,8,,,,,0,,,81,100
141632,note_off,,,,,128,0,9,,,,,1,,,78,100
141632,note_off,,,,,128,0,8,,,,,0,,,81,100
141696,note_on,,,,,768,0,13,,,,,5,,,43,85
141696,note_on,,,,,0,0,15,,,,,7,,,62,100
141696,note_on,,,,,768,0,15,,,,,7,,,58,100
141696,note_on,,,,,64,0,8,,,,,0,,,86,100
141696,note_on,,,,,768,0,16,,,,,7,,,43,100
141696,note_on,,,,,64,0,9,,,,,1,,,82,100
141696,note_on,,,,,768,0,14,,,,,6,,,43,85
141884,note_off,,,,,188,0,8,,,,,0,,,86,100
141884,note_off,,,,,188,0,9,,,,,1,,,82,100
141888,note_on,,,,,4,0,9,,,,,1,,,81,100
141888,note_on,,,,,4,0,8,,,,,0,,,84,100
142076,note_off,,,,,188,0,8,,,,,0,,,84,100
142076,note_off,,,,,188,0,9,,,,,1,,,81,100
142080,note_off,,,,,384,0,13,,,,,5,,,43,100
142080,note_on,,,,,4,0,9,,,,,1,,,79,100
142080,note_off,,,,,384,0,15,,,,,7,,,58,100
142080,note_off,,,,,0,0,15,,,,,7,,,62,100
142080,note_on,,,,,4,0,8,,,,,0,,,82,100
142080,note_off,,,,,384,0,16,,,,,7,,,43,100
142080,note_off,,,,,384,0,14,,,,,6,,,43,100
142208,note_off,,,,,128,0,9,,,,,1,,,79,100
142208,note_off,,,,,128,0,8,,,,,0,,,82,100
142272,note_on,,,,,0,0,15,,,,,7,,,62,100
142272,note_on,,,,,192,0,15,,,,,7,,,58,100
142272,note_on,,,,,64,0,8,,,,,0,,,86,100
142272,note_on,,,,,192,0,16,,,,,7,,,43,100
142272,note_on,,,,,192,0,13,,,,,5,,,43,85
142272,note_on,,,,,64,0,9,,,,,1,,,82,100
142272,note_on,,,,,192,0,14,,,,,6,,,43,85
142460,note_off,,,,,188,0,8,,,,,0,,,86,100
142460,note_off,,,,,188,0,9,,,,,1,,,82,100
142464,note_on,,,,,4,0,8,,,,,0,,,84,100
142464,note_on,,,,,4,0,9,,,,,1,,,81,100
142652,note_off,,,,,188,0,9,,,,,1,,,81,100
142652,note_off,,,,,188,0,8,,,,,0,,,84,100
142656,note_off,,,,,0,0,15,,,,,7,,,62,100
142656,note_off,,,,,384,0,15,,,,,7,,,58,100
142656,note_on,,,,,4,0,9,,,,,1,,,79,100
142656,note_off,,,,,384,0,13,,,,,5,,,43,100
142656,note_off,,,,,384,0,14,,,,,6,,,43,100
142656,note_on,,,,,4,0,8,,,,,0,,,82,100
142656,note_off,,,,,384,0,16,,,,,7,,,43,100
142784,note_off,,,,,128,0,9,,,,,1,,,79,100
142784,note_off,,,,,128,0,8,,,,,0,,,82,100
142848,note_on,,,,,0,0,15,,,,,7,,,62,100
142848,note_on,,,,,192,0,15,,,,,7,,,58,100
142848,note_on,,,,,64,0,9,,,,,1,,,82,60
142848,note_on,,,,,192,0,13,,,,,5,,,43,85
142848,note_on,,,,,192,0,14,,,,,6,,,43,85
142848,note_on,,,,,64,0,8,,,,,0,,,86,60
142848,note_on,,,,,192,0,16,,,,,7,,,43,100
143036,note_off,,,,,188,0,8,,,,,0,,,86,100
143036,note_off,,,,,188,0,9,,,,,1,,,82,100
143040,note_on,,,,,4,0,8,,,,,0,,,84,60
143040,note_on,,,,,4,0,9,,,,,1,,,81,60
143228,note_off,,,,,188,0,9,,,,,1,,,81,100
143228,note_off,,,,,188,0,8,,,,,0,,,84,100
143232,note_off,,,,,384,0,15,,,,,7,,,58,100
143232,note_on,,,,,4,0,9,,,,,1,,,79,60
143232,note_on,,,,,4,0,8,,,,,0,,,82,60
143232,note_off,,,,,0,0,15,,,,,7,,,62,100
143232,note_off,,,,,384,0,14,,,,,6,,,43,100
143232,note_off,,,,,384,0,13,,,,,5,,,43,100
143232,note_off,,,,,384,0,16,,,,,7,,,43,100
143360,note_off,,,,,128,0,9,,,,,1,,,79,100
143360,note_off,,,,,128,0,8,,,,,0,,,82,100
143424,note_on,,,,,64,0,9,,,,,1,,,82,60
143424,note_on,,,,,192,0,14,,,,,6,,,43,85
143424,note_on,,,,,64,0,8,,,,,0,,,86,60
143424,note_on,,,,,192,0,13,,,,,5,,,43,85
143424,note_on,,,,,192,0,16,,,,,7,,,43,100
143424,note_on,,,,,192,0,15,,,,,7,,,58,100
143424,note_on,,,,,0,0,15,,,,,7,,,62,100
143612,note_off,,,,,188,0,8,,,,,0,,,86,100
143612,note_off,,,,,188,0,9,,,,,1,,,82,100
143616,note_on,,,,,4,0,8,,,,,0,,,84,60
143616,note_on,,,,,4,0,9,,,,,1,,,81,60
143804,note_off,,,,,188,0,9,,,,,1,,,81,100
143804,note_off,,,,,188,0,8,,,,,0,,,84,100
143808,note_on,,,,,4,0,9,,,,,1,,,79,60
143808,note_off,,,,,0,0,15,,,,,7,,,62,100
143808,note_off,,,,,384,0,14,,,,,6,,,43,100
143808,note_off,,,,,384,0,16,,,,,7,,,43,100
143808,note_on,,,,,4,0,8,,,,,0,,,82,60
143808,note_off,,,,,384,0,13,,,,,5,,,43,100
143808,note_off,,,,,384,0,15,,,,,7,,,58,100
143936,note_off,,,,,128,0,9,,,,,1,,,79,100
143936,note_off,,,,,128,0,8,,,,,0,,,82,100
144000,note_on,,,,,64,0,9,,,,,1,,,82,100
144000,note_on,,,,,64,0,8,,,,,0,,,86,100
144000,note_on,,,,,0,0,15,,,,,7,,,62,100
144000,note_on,,,,,192,0,16,,,,,7,,,43,100
144000,note_on,,,,,192,0,15,,,,,7,,,58,100
144000,note_on,,,,,192,0,14,,,,,6,,,43,85
144000,note_on,,,,,192,0,13,,,,,5,,,43,85
144188,note_off,,,,,188,0,8,,,,,0,,,86,100
144188,note_off,,,,,188,0,9,,,,,1,,,82,100
144192,note_on,,,,,4,0,8,,,,,0,,,84,100
144192,note_on,,,,,4,0,9,,,,,1,,,81,100
144256,note_off,,,,,256,0,14,,,,,6,,,43,100
144256,note_off,,,,,256,0,16,,,,,7,,,43,100
144256,note_off,,,,,256,0,13,,,,,5,,,43,100
144256,note_off,,,,,0,0,15,,,,,7,,,62,100
144256,note_off,,,,,256,0,15,,,,,7,,,58,100
144380,note_off,,,,,188,0,8,,,,,0,,,84,100
144380,note_off,,,,,188,0,9,,,,,1,,,81,100
144384,note_on,,,,,4,0,9,,,,,1,,,79,100
144384,note_on,,,,,0,0,15,,,,,7,,,70,100
144384,note_on,,,,,128,0,15,,,,,7,,,67,100
144384,note_on,,,,,128,0,16,,,,,7,,,48,100
144384,note_on,,,,,4,0,8,,,,,0,,,82,100
144384,note_on,,,,,128,0,14,,,,,6,,,36,85
144384,note_on,,,,,128,0,13,,,,,5,,,48,85
144512,note_off,,,,,128,0,13,,,,,5,,,48,100
144512,note_off,,,,,128,0,16,,,,,7,,,48,100
144512,note_off,,,,,128,0,8,,,,,0,,,82,100
144512,note_off,,,,,128,0,9,,,,,1,,,79,100
144512,note_off,,,,,128,0,14,,,,,6,,,36,100
144512,note_off,,,,,128,0,15,,,,,7,,,67,100
144512,note_off,,,,,0,0,15,,,,,7,,,70,100
144576,note_on,,,,,64,0,9,,,,,1,,,79,100
144576,note_on,,,,,64,0,16,,,,,7,,,50,100
144576,note_on,,,,,0,0,15,,,,,7,,,67,100
144576,note_on,,,,,64,0,8,,,,,0,,,82,100
144576,note_on,,,,,64,0,13,,,,,5,,,50,85
144576,note_on,,,,,64,0,14,,,,,6,,,38,85
144576,note_on,,,,,64,0,15,,,,,7,,,70,100
144620,note_off,,,,,44,0,8,,,,,0,,,82,100
144620,note_off,,,,,44,0,9,,,,,1,,,79,100
144624,note_on,,,,,4,0,8,,,,,0,,,84,100
144624,note_on,,,,,4,0,9,,,,,1,,,81,100
144668,note_off,,,,,44,0,9,,,,,1,,,81,100
144668,note_off,,,,,44,0,8,,,,,0,,,84,100
144672,note_on,,,,,4,0,8,,,,,0,,,82,100
144672,note_on,,,,,4,0,9,,,,,1,,,79,100
144716,note_off,,,,,44,0,9,,,,,1,,,79,100
144716,note_off,,,,,44,0,8,,,,,0,,,82,100
144720,note_on,,,,,4,0,8,,,,,0,,,84,100
144720,note_on,,,,,4,0,9,,,,,1,,,81,100
144764,note_off,,,,,44,0,8,,,,,0,,,84,100
144764,note_off,,,,,44,0,9,,,,,1,,,81,100
144768,note_on,,,,,4,0,8,,,,,0,,,82,100
144768,note_on,,,,,4,0,9,,,,,1,,,79,100
144832,note_off,,,,,256,0,16,,,,,7,,,50,100
144832,note_off,,,,,0,0,15,,,,,7,,,67,100
144832,note_off,,,,,256,0,15,,,,,7,,,70,100
144832,note_off,,,,,256,0,14,,,,,6,,,38,100
144832,note_off,,,,,256,0,13,,,,,5,,,50,100
144896,note_off,,,,,128,0,8,,,,,0,,,82,100
144896,note_off,,,,,128,0,9,,,,,1,,,79,100
144960,note_on,,,,,128,0,13,,,,,5,,,38,85
144960,note_on,,,,,64,0,9,,,,,1,,,78,100
144960,note_on,,,,,64,0,8,,,,,0,,,81,100
144960,note_on,,,,,128,0,16,,,,,7,,,38,100
144960,note_on,,,,,128,0,14,,,,,6,,,38,85
144960,note_on,,,,,0,0,15,,,,,7,,,69,100
144960,note_on,,,,,128,0,15,,,,,7,,,66,100
145088,note_off,,,,,0,0,15,,,,,7,,,69,100
145088,note_off,,,,,128,0,14,,,,,6,,,38,100
145088,note_off,,,,,128,0,9,,,,,1,,,78,100
145088,note_off,,,,,128,0,8,,,,,0,,,81,100
145088,note_off,,,,,128,0,13,,,,,5,,,38,100
145088,note_off,,,,,128,0,16,,,,,7,,,38,100
145088,note_off,,,,,128,0,15,,,,,7,,,66,100
145152,note_on,,,,,64,0,15,,,,,7,,,62,100
145152,note_on,,,,,64,0,9,,,,,1,,,79,100
145152,note_on,,,,,64,0,14,,,,,6,,,43,85
145152,note_on,,,,,0,0,15,,,,,7,,,70,100
145152,note_on,,,,,64,0,16,,,,,7,,,43,100
145152,note_on,,,,,64,0,8,,,,,0,,,79,100
145152,note_on,,,,,64,0,13,,,,,5,,,43,85
145280,note_off,,,,,128,0,16,,,,,7,,,43,100
145280,note_off,,,,,128,0,14,,,,,6,,,43,100
145280,note_off,,,,,128,0,13,,,,,5,,,43,100
145344,note_on,,,,,64,0,14,,,,,6,,,43,85
145344,note_on,,,,,64,0,16,,,,,7,,,55,100
145344,note_on,,,,,64,0,13,,,,,5,,,55,85
145472,note_off,,,,,128,0,14,,,,,6,,,43,100
145472,note_off,,,,,128,0,16,,,,,7,,,55,100
145472,note_off,,,,,128,0,13,,,,,5,,,55,100
145536,program_change,,,,,12544,0,10,,,,,2,48,,,
145536,note_off,,,,,384,0,9,,,,,1,,,79,100
145536,note_off,,,,,384,0,15,,,,,7,,,62,100
145536,note_off,,,,,0,0,15,,,,,7,,,70,100
145536,end_of_track,,,,,0,1,8,,,,,,,,,
145536,end_of_track,,,,,0,1,9,,,,,,,,,
145536,note_on,,,,,64,0,16,,,,,7,,,57,100
145536,note_on,,,,,64,0,13,,,,,5,,,57,85
145536,note_off,,,,,384,0,8,,,,,0,,,79,100
145536,program_change,,,,,12672,0,11,,,,,3,48,,,
145536,note_on,,,,,64,0,14,,,,,6,,,45,85
145664,note_off,,,,,128,0,16,,,,,7,,,57,100
145664,note_off,,,,,128,0,13,,,,,5,,,57,100
145664,note_off,,,,,128,0,14,,,,,6,,,45,100
145728,note_on,,,,,64,0,14,,,,,6,,,46,85
145728,note_on,,,,,64,0,16,,,,,7,,,58,100
145728,note_on,,,,,64,0,13,,,,,5,,,58,85
145774,note_on,,,,,238,0,15,,,,,7,,,65,100
145822,note_on,,,,,48,0,15,,,,,7,,,70,100
145856,note_off,,,,,128,0,14,,,,,6,,,46,100
145856,note_off,,,,,128,0,16,,,,,7,,,58,100
145856,note_off,,,,,128,0,13,,,,,5,,,58,100
145870,note_on,,,,,48,0,15,,,,,7,,,74,100
145920,note_on,,,,,64,0,13,,,,,5,,,54,85
145920,note_on,,,,,384,0,10,,,,,2,,,74,95
145920,note_on,,,,,13052,0,12,,,,,4,,,69,85
145920,note_on,,,,,384,0,11,,,,,3,,,74,35
145920,note_on,,,,,64,0,14,,,,,6,,,42,85
145920,note_on,,,,,64,0,16,,,,,7,,,54,100
146048,note_off,,,,,128,0,11,,,,,3,,,74,100
146048,note_off,,,,,128,0,12,,,,,4,,,69,100
146048,note_off,,,,,128,0,10,,,,,2,,,74,100
146048,note_off,,,,,128,0,13,,,,,5,,,54,100
146048,note_off,,,,,128,0,14,,,,,6,,,42,100
146048,note_off,,,,,128,0,16,,,,,7,,,54,100
146112,note_on,,,,,64,0,13,,,,,5,,,57,85
146112,note_on,,,,,64,0,14,,,,,6,,,45,85
146112,note_on,,,,,64,0,16,,,,,7,,,57,100
146112,note_on,,,,,64,0,12,,,,,4,,,66,85
146112,note_on,,,,,64,0,11,,,,,3,,,72,35
146112,note_on,,,,,64,0,10,,,,,2,,,72,95
146158,note_off,,,,,288,0,15,,,,,7,,,65,100
146206,note_off,,,,,48,0,15,,,,,7,,,70,100
146240,note_off,,,,,128,0,13,,,,,5,,,57,100
146240,note_off,,,,,128,0,10,,,,,2,,,72,100
146240,note_off,,,,,128,0,14,,,,,6,,,45,100
146240,note_off,,,,,128,0,12,,,,,4,,,66,100
146240,note_off,,,,,128,0,16,,,,,7,,,57,100
146240,note_off,,,,,128,0,11,,,,,3,,,72,100
146254,note_off,,,,,48,0,15,,,,,7,,,74,100
146304,note_on,,,,,64,0,16,,,,,7,,,55,100
146304,note_on,,,,,50,0,15,,,,,7,,,74,100
146304,note_on,,,,,64,0,14,,,,,6,,,43,86
146304,note_on,,,,,64,0,11,,,,,3,,,70,36
146304,note_on,,,,,64,0,10,,,,,2,,,70,96
146304,note_on,,,,,64,0,13,,,,,5,,,55,86
146304,note_on,,,,,64,0,12,,,,,4,,,62,86
146304,note_on,,,,,0,0,15,,,,,7,,,70,100
146492,note_off,,,,,188,0,11,,,,,3,,,70,100
146492,note_off,,,,,188,0,10,,,,,2,,,70,100
146496,note_on,,,,,4,0,11,,,,,3,,,69,37
146496,note_on,,,,,4,0,10,,,,,2,,,69,97
146560,note_off,,,,,256,0,16,,,,,7,,,55,100
146560,note_off,,,,,256,0,13,,,,,5,,,55,100
146560,note_off,,,,,256,0,14,,,,,6,,,43,100
146684,note_off,,,,,188,0,11,,,,,3,,,69,100
146684,note_off,,,,,188,0,10,,,,,2,,,69,100
146688,note_on,,,,,4,0,11,,,,,3,,,67,38
146688,note_on,,,,,128,0,13,,,,,5,,,43,88
146688,note_on,,,,,4,0,10,,,,,2,,,67,98
146688,note_off,,,,,384,0,15,,,,,7,,,74,100
146688,note_off,,,,,0,0,15,,,,,7,,,70,100
146688,note_on,,,,,128,0,16,,,,,7,,,43,100
146688,note_on,,,,,128,0,14,,,,,6,,,43,88
146816,note_off,,,,,128,0,10,,,,,2,,,67,100
146816,note_off,,,,,128,0,14,,,,,6,,,43,100
146816,note_off,,,,,128,0,16,,,,,7,,,43,100
146816,note_off,,,,,128,0,13,,,,,5,,,43,100
146816,note_off,,,,,128,0,11,,,,,3,,,67,100
146880,note_on,,,,,64,0,11,,,,,3,,,71,39
146880,note_on,,,,,64,0,10,,,,,2,,,71,99
147072,note_on,,,,,256,0,13,,,,,5,,,55,90
147072,note_on,,,,,0,0,15,,,,,7,,,74,100
147072,note_off,,,,,768,0,12,,,,,4,,,62,100
147072,note_on,,,,,384,0,15,,,,,7,,,71,100
147072,note_on,,,,,256,0,16,,,,,7,,,55,100
147072,note_on,,,,,256,0,14,,,,,6,,,43,90
147200,note_off,,,,,128,0,14,,,,,6,,,43,100
147200,note_off,,,,,128,0,13,,,,,5,,,55,100
147200,note_off,,,,,128,0,16,,,,,7,,,55,100
147264,note_on,,,,,64,0,13,,,,,5,,,53,91
147264,note_on,,,,,64,0,14,,,,,6,,,41,91
147264,note_on,,,,,64,0,16,,,,,7,,,53,100
147264,note_off,,,,,384,0,10,,,,,2,,,71,100
147264,note_off,,,,,384,0,11,,,,,3,,,71,100
147328,note_off,,,,,0,0,15,,,,,7,,,74,100
147328,note_off,,,,,256,0,15,,,,,7,,,71,100
147392,note_off,,,,,128,0,16,,,,,7,,,53,100
147392,note_off,,,,,128,0,14,,,,,6,,,41,100
147392,note_off,,,,,128,0,13,,,,,5,,,53,100
147456,note_on,,,,,64,0,16,,,,,7,,,51,100
147456,note_on,,,,,192,0,11,,,,,3,,,72,42
147456,note_on,,,,,64,0,14,,,,,6,,,39,92
147456,note_on,,,,,0,0,15,,,,,7,,,67,100
147456,note_on,,,,,128,0,15,,,,,7,,,72,100
147456,note_on,,,,,384,0,12,,,,,4,,,67,92
147456,note_on,,,,,64,0,13,,,,,5,,,51,92
147456,note_on,,,,,192,0,10,,,,,2,,,72,102
147584,note_off,,,,,128,0,16,,,,,7,,,51,100
147584,note_off,,,,,128,0,13,,,,,5,,,51,100
147584,note_off,,,,,128,0,14,,,,,6,,,39,100
147648,note_on,,,,,64,0,13,,,,,5,,,50,93
147648,note_on,,,,,64,0,16,,,,,7,,,50,100
147648,note_on,,,,,64,0,14,,,,,6,,,38,93
147776,note_off,,,,,128,0,16,,,,,7,,,50,100
147776,note_off,,,,,128,0,14,,,,,6,,,38,100
147776,note_off,,,,,128,0,13,,,,,5,,,50,100
147840,note_off,,,,,384,0,10,,,,,2,,,72,100
147840,note_on,,,,,64,0,14,,,,,6,,,36,94
147840,note_off,,,,,384,0,11,,,,,3,,,72,100
147840,note_on,,,,,64,0,16,,,,,7,,,48,100
147840,note_off,,,,,384,0,15,,,,,7,,,72,100
147840,note_off,,,,,0,0,15,,,,,7,,,67,100
147840,note_on,,,,,64,0,13,,,,,5,,,48,94
147968,note_off,,,,,128,0,14,,,,,6,,,36,100
147968,note_off,,,,,128,0,16,,,,,7,,,48,100
147968,note_off,,,,,128,0,13,,,,,5,,,48,100
148032,note_on,,,,,64,0,14,,,,,6,,,40,95
148032,note_on,,,,,192,0,11,,,,,3,,,73,45
148032,note_on,,,,,192,0,15,,,,,7,,,67,100
148032,note_on,,,,,192,0,10,,,,,2,,,73,105
148032,note_on,,,,,0,0,15,,,,,7,,,73,100
148032,note_on,,,,,64,0,13,,,,,5,,,52,95
148032,note_on,,,,,64,0,16,,,,,7,,,52,100
148224,note_off,,,,,768,0,12,,,,,4,,,67,100
148416,note_off,,,,,384,0,14,,,,,6,,,40,100
148416,note_off,,,,,384,0,11,,,,,3,,,73,100
148416,note_off,,,,,384,0,13,,,,,5,,,52,100
148416,note_off,,,,,384,0,16,,,,,7,,,52,100
148416,note_off,,,,,384,0,15,,,,,7,,,67,100
148416,note_off,,,,,384,0,10,,,,,2,,,73,100
148416,note_off,,,,,0,0,15,,,,,7,,,73,100
148608,note_on,,,,,192,0,11,,,,,3,,,74,48
148608,note_on,,,,,192,0,14,,,,,6,,,42,98
148608,note_on,,,,,192,0,10,,,,,2,,,74,108
148608,note_on,,,,,384,0,12,,,,,4,,,69,98
148608,note_on,,,,,0,0,15,,,,,7,,,69,100
148608,note_on,,,,,192,0,15,,,,,7,,,74,100
148608,note_on,,,,,192,0,16,,,,,7,,,54,100
148608,note_on,,,,,192,0,13,,,,,5,,,54,98
148736,note_off,,,,,128,0,14,,,,,6,,,42,100
148736,note_off,,,,,128,0,16,,,,,7,,,54,100
148736,note_off,,,,,128,0,13,,,,,5,,,54,100
148800,note_on,,,,,64,0,14,,,,,6,,,50,99
148800,note_on,,,,,64,0,13,,,,,5,,,62,99
148800,note_on,,,,,64,0,16,,,,,7,,,62,100
148864,note_off,,,,,256,0,15,,,,,7,,,74,100
148864,note_off,,,,,0,0,15,,,,,7,,,69,100
148864,note_off,,,,,256,0,10,,,,,2,,,74,100
148864,note_off,,,,,256,0,11,,,,,3,,,74,100
148928,note_off,,,,,128,0,14,,,,,6,,,50,100
148928,note_off,,,,,128,0,16,,,,,7,,,62,100
148928,note_off,,,,,128,0,13,,,,,5,,,62,100
148992,note_on,,,,,64,0,13,,,,,5,,,60,99
148992,note_on,,,,,0,0,15,,,,,7,,,67,100
148992,note_on,,,,,128,0,11,,,,,3,,,62,49
148992,note_off,,,,,384,0,12,,,,,4,,,69,100
148992,note_on,,,,,64,0,14,,,,,6,,,48,99
148992,note_on,,,,,64,0,16,,,,,7,,,60,100
148992,note_on,,,,,128,0,15,,,,,7,,,64,100
148992,note_on,,,,,128,0,10,,,,,2,,,62,109
149120,note_off,,,,,0,0,15,,,,,7,,,67,100
149120,note_off,,,,,128,0,13,,,,,5,,,60,100
149120,note_off,,,,,128,0,11,,,,,3,,,62,100
149120,note_off,,,,,128,0,10,,,,,2,,,62,100
149120,note_off,,,,,128,0,14,,,,,6,,,48,100
149120,note_off,,,,,128,0,16,,,,,7,,,60,100
149120,note_off,,,,,128,0,15,,,,,7,,,64,100
149184,note_on,,,,,64,0,16,,,,,7,,,59,100
149184,note_on,,,,,64,0,15,,,,,7,,,67,100
149184,note_on,,,,,0,0,15,,,,,7,,,74,100
149184,note_on,,,,,64,0,13,,,,,5,,,59,85
149184,note_on,,,,,64,0,14,,,,,6,,,47,85
149312,note_off,,,,,128,0,14,,,,,6,,,47,100
149312,note_off,,,,,128,0,16,,,,,7,,,59,100
149312,note_off,,,,,128,0,13,,,,,5,,,59,100
149376,note_on,,,,,64,0,13,,,,,5,,,55,85
149376,note_on,,,,,256,0,11,,,,,3,,,79,35
149376,note_on,,,,,384,0,12,,,,,4,,,71,85
149376,note_on,,,,,256,0,10,,,,,2,,,79,95
149376,note_on,,,,,64,0,16,,,,,7,,,55,100
149376,note_on,,,,,64,0,14,,,,,6,,,43,85
149504,note_off,,,,,128,0,14,,,,,6,,,43,100
149504,note_off,,,,,128,0,16,,,,,7,,,55,100
149504,note_off,,,,,128,0,10,,,,,2,,,79,100
149504,note_off,,,,,128,0,11,,,,,3,,,79,100
149504,note_off,,,,,128,0,13,,,,,5,,,55,100
149504,note_off,,,,,128,0,12,,,,,4,,,71,100
149568,note_on,,,,,64,0,10,,,,,2,,,77,96
149568,note_on,,,,,64,0,11,,,,,3,,,77,36
149568,note_on,,,,,64,0,14,,,,,6,,,47,86
149568,note_on,,,,,64,0,12,,,,,4,,,74,86
149568,note_off,,,,,384,0,15,,,,,7,,,67,100
149568,note_off,,,,,0,0,15,,,,,7,,,74,100
149568,note_on,,,,,64,0,16,,,,,7,,,59,100
149568,note_on,,,,,64,0,13,,,,,5,,,59,86
149696,note_off,,,,,128,0,13,,,,,5,,,59,100
149696,note_off,,,,,128,0,12,,,,,4,,,74,100
149696,note_off,,,,,128,0,11,,,,,3,,,77,100
149696,note_off,,,,,128,0,10,,,,,2,,,77,100
149696,note_off,,,,,128,0,16,,,,,7,,,59,100
149696,note_off,,,,,128,0,14,,,,,6,,,47,100
149760,note_on,,,,,64,0,12,,,,,4,,,67,87
149760,note_on,,,,,64,0,10,,,,,2,,,75,97
149760,note_on,,,,,192,0,15,,,,,7,,,75,100
149760,note_on,,,,,0,0,15,,,,,7,,,67,100
149760,note_on,,,,,64,0,13,,,,,5,,,60,87
149760,note_on,,,,,64,0,14,,,,,6,,,48,87
149760,note_on,,,,,64,0,11,,,,,3,,,75,37
149760,note_on,,,,,64,0,16,,,,,7,,,60,100
149888,note_off,,,,,128,0,10,,,,,2,,,75,100
149888,note_off,,,,,128,0,11,,,,,3,,,75,100
149952,note_on,,,,,64,0,10,,,,,2,,,74,98
149952,note_on,,,,,64,0,11,,,,,3,,,74,38
150016,note_off,,,,,256,0,16,,,,,7,,,60,100
150016,note_off,,,,,256,0,14,,,,,6,,,48,100
150016,note_off,,,,,256,0,13,,,,,5,,,60,100
150080,note_off,,,,,128,0,10,,,,,2,,,74,100
150080,note_off,,,,,128,0,11,,,,,3,,,74,100
150144,note_off,,,,,384,0,15,,,,,7,,,75,100
150144,note_off,,,,,0,0,15,,,,,7,,,67,100
150144,note_on,,,,,64,0,10,,,,,2,,,72,99
150144,note_on,,,,,128,0,14,,,,,6,,,36,89
150144,note_on,,,,,64,0,11,,,,,3,,,72,39
150144,note_on,,,,,128,0,13,,,,,5,,,48,89
150144,note_on,,,,,128,0,16,,,,,7,,,48,100
150272,note_off,,,,,128,0,10,,,,,2,,,72,100
150272,note_off,,,,,128,0,13,,,,,5,,,48,100
150272,note_off,,,,,128,0,14,,,,,6,,,36,100
150272,note_off,,,,,128,0,11,,,,,3,,,72,100
150272,note_off,,,,,128,0,16,,,,,7,,,48,100
150336,note_on,,,,,64,0,10,,,,,2,,,76,100
150336,note_on,,,,,64,0,11,,,,,3,,,76,40
150528,note_on,,,,,256,0,16,,,,,7,,,60,100
150528,note_on,,,,,256,0,13,,,,,5,,,60,91
150528,note_off,,,,,768,0,12,,,,,4,,,67,100
150528,note_on,,,,,0,0,15,,,,,7,,,76,100
150528,note_on,,,,,384,0,15,,,,,7,,,67,100
150528,note_on,,,,,256,0,14,,,,,6,,,48,91
150656,note_off,,,,,128,0,14,,,,,6,,,48,100
150656,note_off,,,,,128,0,16,,,,,7,,,60,100
150656,note_off,,,,,128,0,13,,,,,5,,,60,100
150720,note_off,,,,,384,0,11,,,,,3,,,76,100
150720,note_on,,,,,64,0,14,,,,,6,,,46,92
150720,note_off,,,,,384,0,10,,,,,2,,,76,100
150720,note_on,,,,,64,0,13,,,,,5,,,58,92
150720,note_on,,,,,64,0,16,,,,,7,,,58,100
150784,note_off,,,,,0,0,15,,,,,7,,,76,100
150784,note_off,,,,,256,0,15,,,,,7,,,67,100
150848,note_off,,,,,128,0,14,,,,,6,,,46,100
150848,note_off,,,,,128,0,16,,,,,7,,,58,100
150848,note_off,,,,,128,0,13,,,,,5,,,58,100
150912,note_on,,,,,64,0,16,,,,,7,,,56,100
150912,note_on,,,,,0,0,15,,,,,7,,,72,100
150912,note_on,,,,,64,0,14,,,,,6,,,44,93
150912,note_on,,,,,128,0,15,,,,,7,,,65,100
150912,note_on,,,,,384,0,12,,,,,4,,,60,93
150912,note_on,,,,,192,0,11,,,,,3,,,77,43
150912,note_on,,,,,64,0,13,,,,,5,,,56,93
150912,note_on,,,,,192,0,10,,,,,2,,,77,103
151040,note_off,,,,,128,0,14,,,,,6,,,44,100
151040,note_off,,,,,128,0,13,,,,,5,,,56,100
151040,note_off,,,,,128,0,16,,,,,7,,,56,100
151104,note_on,,,,,64,0,14,,,,,6,,,43,94
151104,note_on,,,,,64,0,13,,,,,5,,,55,94
151104,note_on,,,,,64,0,16,,,,,7,,,55,100
151232,note_off,,,,,128,0,14,,,,,6,,,43,100
151232,note_off,,,,,128,0,13,,,,,5,,,55,100
151232,note_off,,,,,128,0,16,,,,,7,,,55,100
151296,note_off,,,,,384,0,15,,,,,7,,,65,100
151296,note_off,,,,,0,0,15,,,,,7,,,72,100
151296,note_off,,,,,384,0,11,,,,,3,,,77,100
151296,note_on,,,,,64,0,16,,,,,7,,,53,100
151296,note_off,,,,,384,0,10,,,,,2,,,77,100
151296,note_on,,,,,64,0,14,,,,,6,,,41,95
151296,note_on,,,,,64,0,13,,,,,5,,,53,95
151424,note_off,,,,,128,0,13,,,,,5,,,53,100
151424,note_off,,,,,128,0,16,,,,,7,,,53,100
151424,note_off,,,,,128,0,14,,,,,6,,,41,100
151488,note_on,,,,,64,0,13,,,,,5,,,57,96
151488,note_on,,,,,64,0,16,,,,,7,,,57,100
151488,note_on,,,,,192,0,10,,,,,2,,,78,106
151488,note_on,,,,,0,0,15,,,,,7,,,72,100
151488,note_on,,,,,192,0,15,,,,,7,,,66,100
151488,note_on,,,,,192,0,11,,,,,3,,,78,46
151488,note_on,,,,,64,0,14,,,,,6,,,45,96
151680,note_off,,,,,768,0,12,,,,,4,,,60,100
151872,note_off,,,,,384,0,13,,,,,5,,,57,100
151872,note_off,,,,,0,0,15,,,,,7,,,72,100
151872,note_off,,,,,384,0,16,,,,,7,,,57,100
151872,note_off,,,,,384,0,10,,,,,2,,,78,100
151872,note_off,,,,,384,0,15,,,,,7,,,66,100
151872,note_off,,,,,384,0,11,,,,,3,,,78,100
151872,note_off,,,,,384,0,14,,,,,6,,,45,100
152064,note_on,,,,,192,0,15,,,,,7,,,67,100
152064,note_on,,,,,192,0,16,,,,,7,,,58,100
152064,note_on,,,,,192,0,10,,,,,2,,,79,109
152064,note_on,,,,,192,0,11,,,,,3,,,79,49
152064,note_on,,,,,384,0,12,,,,,4,,,62,99
152064,note_on,,,,,192,0,13,,,,,5,,,58,99
152064,note_on,,,,,0,0,15,,,,,7,,,74,100
152064,note_on,,,,,192,0,14,,,,,6,,,46,99
152320,note_off,,,,,0,0,15,,,,,7,,,74,100
152320,note_off,,,,,256,0,11,,,,,3,,,79,100
152320,note_off,,,,,256,0,10,,,,,2,,,79,100
152320,note_off,,,,,256,0,15,,,,,7,,,67,100
152320,note_off,,,,,256,0,14,,,,,6,,,46,100
152320,note_off,,,,,256,0,13,,,,,5,,,58,100
152320,note_off,,,,,256,0,16,,,,,7,,,58,100
152320,note_off,,,,,256,0,12,,,,,4,,,62,100
152448,note_on,,,,,128,0,11,,,,,3,,,74,50
152448,note_on,,,,,128,0,16,,,,,7,,,54,100
152448,note_on,,,,,128,0,15,,,,,7,,,69,100
152448,note_on,,,,,0,0,15,,,,,7,,,72,100
152448,note_on,,,,,128,0,13,,,,,5,,,54,100
152448,note_on,,,,,128,0,10,,,,,2,,,74,110
152448,note_on,,,,,128,0,14,,,,,6,,,42,100
152448,note_on,,,,,128,0,12,,,,,4,,,69,100
152576,note_off,,,,,128,0,11,,,,,3,,,74,100
152576,note_off,,,,,128,0,13,,,,,5,,,54,100
152576,note_off,,,,,128,0,10,,,,,2,,,74,100
152576,note_off,,,,,128,0,16,,,,,7,,,54,100
152576,note_off,,,,,128,0,14,,,,,6,,,42,100
152576,note_off,,,,,0,0,15,,,,,7,,,72,100
152576,note_off,,,,,128,0,15,,,,,7,,,69,100
152576,note_off,,,,,128,0,12,,,,,4,,,69,100
152640,note_on,,,,,64,0,16,,,,,7,,,55,100
152640,note_on,,,,,64,0,11,,,,,3,,,75,50
152640,note_on,,,,,64,0,10,,,,,2,,,75,110
152640,note_on,,,,,64,0,13,,,,,5,,,55,100
152640,note_on,,,,,0,0,15,,,,,7,,,74,100
152640,note_on,,,,,64,0,15,,,,,7,,,63,100
152640,note_on,,,,,64,0,14,,,,,6,,,43,100
152640,note_on,,,,,64,0,12,,,,,4,,,70,100
152828,note_off,,,,,188,0,11,,,,,3,,,75,100
152828,note_off,,,,,188,0,10,,,,,2,,,75,100
152832,note_on,,,,,4,0,10,,,,,2,,,74,110
152832,note_on,,,,,4,0,11,,,,,3,,,74,50
152896,note_off,,,,,256,0,15,,,,,7,,,63,100
152896,note_off,,,,,256,0,14,,,,,6,,,43,100
152896,note_off,,,,,256,0,12,,,,,4,,,70,100
152896,note_off,,,,,256,0,16,,,,,7,,,55,100
152896,note_off,,,,,0,0,15,,,,,7,,,74,100
152896,note_off,,,,,256,0,13,,,,,5,,,55,100
153020,note_off,,,,,188,0,10,,,,,2,,,74,100
153020,note_off,,,,,188,0,11,,,,,3,,,74,100
153024,note_on,,,,,4,0,11,,,,,3,,,73,50
153024,note_on,,,,,128,0,12,,,,,4,,,64,100
153024,note_on,,,,,128,0,16,,,,,7,,,57,100
153024,note_on,,,,,128,0,15,,,,,7,,,64,100
153024,note_on,,,,,4,0,10,,,,,2,,,73,110
153024,note_on,,,,,0,0,15,,,,,7,,,73,100
153024,note_on,,,,,128,0,13,,,,,5,,,57,100
153024,note_on,,,,,128,0,14,,,,,6,,,45,100
153152,note_off,,,,,128,0,14,,,,,6,,,45,100
153152,note_off,,,,,128,0,11,,,,,3,,,73,100
153152,note_off,,,,,128,0,13,,,,,5,,,57,100
153152,note_off,,,,,128,0,16,,,,,7,,,57,100
153152,note_off,,,,,0,0,15,,,,,7,,,73,100
153152,note_off,,,,,128,0,10,,,,,2,,,73,100
153152,note_off,,,,,128,0,15,,,,,7,,,64,100
153152,note_off,,,,,128,0,12,,,,,4,,,64,100
153216,note_on,,,,,64,0,12,,,,,4,,,69,100
153216,note_on,,,,,64,0,16,,,,,7,,,54,100
153216,note_on,,,,,64,0,10,,,,,2,,,74,110
153216,note_on,,,,,64,0,15,,,,,7,,,74,100
153216,note_on,,,,,0,0,15,,,,,7,,,69,100
153216,note_on,,,,,64,0,13,,,,,5,,,54,100
153216,note_on,,,,,64,0,14,,,,,6,,,42,100
153216,note_on,,,,,64,0,11,,,,,3,,,74,50
153344,note_off,,,,,128,0,16,,,,,7,,,54,100
153344,note_off,,,,,128,0,13,,,,,5,,,54,100
153344,note_off,,,,,128,0,14,,,,,6,,,42,100
153408,note_on,,,,,64,0,14,,,,,6,,,40,85
153408,note_on,,,,,64,0,16,,,,,7,,,52,100
153408,note_on,,,,,64,0,13,,,,,5,,,52,85
153536,note_off,,,,,128,0,14,,,,,6,,,40,100
153536,note_off,,,,,128,0,13,,,,,5,,,52,100
153536,note_off,,,,,128,0,16,,,,,7,,,52,100
153600,note_off,,,,,384,0,11,,,,,3,,,74,100
153600,note_off,,,,,0,0,15,,,,,7,,,69,100
153600,note_off,,,,,384,0,15,,,,,7,,,74,100
153600,note_on,,,,,64,0,14,,,,,6,,,38,85
153600,note_on,,,,,64,0,13,,,,,5,,,50,85
153600,note_off,,,,,384,0,12,,,,,4,,,69,100
153600,note_off,,,,,384,0,10,,,,,2,,,74,100
153600,note_on,,,,,64,0,16,,,,,7,,,50,100
153728,note_off,,,,,128,0,16,,,,,7,,,50,100
153728,note_off,,,,,128,0,13,,,,,5,,,50,100
153728,note_off,,,,,128,0,14,,,,,6,,,38,100
153792,note_on,,,,,64,0,14,,,,,6,,,43,70
153792,note_on,,,,,64,0,16,,,,,7,,,55,100
153792,note_on,,,,,192,0,12,,,,,4,,,70,70
153792,note_on,,,,,0,0,15,,,,,7,,,74,100
153792,note_on,,,,,192,0,15,,,,,7,,,63,100
153792,note_on,,,,,192,0,11,,,,,3,,,75,20
153792,note_on,,,,,192,0,10,,,,,2,,,75,80
153792,note_on,,,,,64,0,13,,,,,5,,,55,70
153980,note_off,,,,,188,0,10,,,,,2,,,75,100
153980,note_off,,,,,188,0,11,,,,,3,,,75,100
153984,note_on,,,,,4,0,11,,,,,3,,,74,23
153984,note_on,,,,,4,0,10,,,,,2,,,74,83
154048,note_off,,,,,256,0,16,,,,,7,,,55,100
154048,note_off,,,,,256,0,13,,,,,5,,,55,100
154048,note_off,,,,,256,0,14,,,,,6,,,43,100
154048,note_off,,,,,256,0,15,,,,,7,,,63,100
154048,note_off,,,,,0,0,15,,,,,7,,,74,100
154048,note_off,,,,,256,0,12,,,,,4,,,70,100
154172,note_off,,,,,188,0,10,,,,,2,,,74,100
154172,note_off,,,,,188,0,11,,,,,3,,,74,100
154176,note_on,,,,,4,0,11,,,,,3,,,73,26
154176,note_on,,,,,4,0,10,,,,,2,,,73,86
154176,note_on,,,,,128,0,15,,,,,7,,,64,100
154176,note_on,,,,,128,0,12,,,,,4,,,64,76
154176,note_on,,,,,128,0,14,,,,,6,,,45,76
154176,note_on,,,,,128,0,16,,,,,7,,,57,100
154176,note_on,,,,,0,0,15,,,,,7,,,73,100
154176,note_on,,,,,128,0,13,,,,,5,,,57,76
154304,note_off,,,,,128,0,12,,,,,4,,,64,100
154304,note_off,,,,,128,0,16,,,,,7,,,57,100
154304,note_off,,,,,128,0,11,,,,,3,,,73,100
154304,note_off,,,,,128,0,13,,,,,5,,,57,100
154304,note_off,,,,,128,0,10,,,,,2,,,73,100
154304,note_off,,,,,128,0,14,,,,,6,,,45,100
154304,note_off,,,,,0,0,15,,,,,7,,,73,100
154304,note_off,,,,,128,0,15,,,,,7,,,64,100
154368,note_on,,,,,64,0,13,,,,,5,,,54,79
154368,note_on,,,,,64,0,15,,,,,7,,,62,100
154368,note_on,,,,,64,0,10,,,,,2,,,74,89
154368,note_on,,,,,64,0,16,,,,,7,,,54,100
154368,note_on,,,,,64,0,11,,,,,3,,,74,29
154368,note_on,,,,,64,0,14,,,,,6,,,42,79
154368,note_on,,,,,0,0,15,,,,,7,,,72,100
154368,note_on,,,,,64,0,12,,,,,4,,,69,79
154556,note_off,,,,,188,0,10,,,,,2,,,74,100
154556,note_off,,,,,188,0,11,,,,,3,,,74,100
154560,note_on,,,,,4,0,10,,,,,2,,,72,93
154560,note_on,,,,,4,0,11,,,,,3,,,72,33
154624,note_off,,,,,256,0,13,,,,,5,,,54,100
154624,note_off,,,,,256,0,14,,,,,6,,,42,100
154624,note_off,,,,,256,0,15,,,,,7,,,62,100
154624,note_off,,,,,256,0,16,,,,,7,,,54,100
154624,note_off,,,,,256,0,12,,,,,4,,,69,100
154624,note_off,,,,,0,0,15,,,,,7,,,72,100
154748,note_off,,,,,188,0,10,,,,,2,,,72,100
154748,note_off,,,,,188,0,11,,,,,3,,,72,100
154752,note_on,,,,,128,0,12,,,,,4,,,62,86
154752,note_on,,,,,4,0,10,,,,,2,,,70,96
154752,note_on,,,,,128,0,13,,,,,5,,,55,86
154752,note_on,,,,,0,0,15,,,,,7,,,70,100
154752,note_on,,,,,128,0,16,,,,,7,,,55,100
154752,note_on,,,,,128,0,14,,,,,6,,,43,86
154752,note_on,,,,,128,0,15,,,,,7,,,62,100
154752,note_on,,,,,4,0,11,,,,,3,,,70,36
154880,note_off,,,,,128,0,16,,,,,7,,,55,100
154880,note_off,,,,,128,0,12,,,,,4,,,62,100
154880,note_off,,,,,128,0,10,,,,,2,,,70,100
154880,note_off,,,,,128,0,11,,,,,3,,,70,100
154880,note_off,,,,,0,0,15,,,,,7,,,70,100
154880,note_off,,,,,128,0,13,,,,,5,,,55,100
154880,note_off,,,,,128,0,14,,,,,6,,,43,100
154880,note_off,,,,,128,0,15,,,,,7,,,62,100
154944,note_on,,,,,64,0,14,,,,,6,,,37,89
154944,note_on,,,,,64,0,11,,,,,3,,,69,39
154944,note_on,,,,,0,0,15,,,,,7,,,69,100
154944,note_on,,,,,64,0,15,,,,,7,,,67,100
154944,note_on,,,,,64,0,10,,,,,2,,,69,99
154944,note_on,,,,,64,0,12,,,,,4,,,64,89
154944,note_on,,,,,64,0,16,,,,,7,,,49,100
154944,note_on,,,,,64,0,13,,,,,5,,,49,89
155132,note_off,,,,,188,0,10,,,,,2,,,69,100
155132,note_off,,,,,188,0,11,,,,,3,,,69,100
155136,note_on,,,,,4,0,11,,,,,3,,,70,43
155136,note_on,,,,,4,0,10,,,,,2,,,70,103
155324,note_off,,,,,188,0,10,,,,,2,,,70,100
155324,note_off,,,,,188,0,11,,,,,3,,,70,100
155328,note_off,,,,,0,0,15,,,,,7,,,69,100
155328,note_off,,,,,384,0,15,,,,,7,,,67,100
155328,note_off,,,,,384,0,14,,,,,6,,,37,100
155328,note_off,,,,,384,0,13,,,,,5,,,49,100
155328,note_off,,,,,384,0,16,,,,,7,,,49,100
155328,note_on,,,,,4,0,11,,,,,3,,,67,46
155328,note_on,,,,,4,0,10,,,,,2,,,67,106
155328,note_off,,,,,384,0,12,,,,,4,,,64,100
155456,note_off,,,,,128,0,10,,,,,2,,,67,100
155456,note_off,,,,,128,0,11,,,,,3,,,67,100
155520,note_on,,,,,192,0,13,,,,,5,,,50,99
155520,note_on,,,,,192,0,16,,,,,7,,,50,100
155520,note_on,,,,,64,0,10,,,,,2,,,62,109
155520,note_on,,,,,64,0,11,,,,,3,,,62,49
155520,note_on,,,,,192,0,15,,,,,7,,,69,100
155520,note_on,,,,,0,0,15,,,,,7,,,66,100
155520,note_on,,,,,192,0,12,,,,,4,,,66,99
155520,note_on,,,,,192,0,14,,,,,6,,,38,99
155520,note_on,,,,,0,0,12,,,,,4,,,57,99
155648,note_off,,,,,128,0,16,,,,,7,,,50,100
155648,note_off,,,,,128,0,14,,,,,6,,,38,100
155648,note_off,,,,,128,0,13,,,,,5,,,50,100
155712,note_on,,,,,64,0,16,,,,,7,,,52,100
155712,note_on,,,,,64,0,14,,,,,6,,,40,85
155712,note_on,,,,,64,0,13,,,,,5,,,52,85
155776,note_off,,,,,256,0,12,,,,,4,,,66,100
155776,note_off,,,,,0,0,12,,,,,4,,,57,100
155840,note_off,,,,,128,0,13,,,,,5,,,52,100
155840,note_off,,,,,128,0,16,,,,,7,,,52,100
155840,note_off,,,,,128,0,14,,,,,6,,,40,100
155904,note_on,,,,,128,0,12,,,,,4,,,62,85
155904,note_off,,,,,384,0,10,,,,,2,,,62,100
155904,note_off,,,,,384,0,15,,,,,7,,,69,100
155904,note_off,,,,,0,0,15,,,,,7,,,66,100
155904,note_on,,,,,64,0,14,,,,,6,,,42,85
155904,note_on,,,,,64,0,13,,,,,5,,,54,85
155904,note_on,,,,,64,0,16,,,,,7,,,54,100
155904,note_off,,,,,384,0,11,,,,,3,,,62,100
156032,note_off,,,,,128,0,12,,,,,4,,,62,100
156032,note_off,,,,,128,0,16,,,,,7,,,54,100
156032,note_off,,,,,128,0,14,,,,,6,,,42,100
156032,note_off,,,,,128,0,13,,,,,5,,,54,100
156096,note_on,,,,,0,0,15,,,,,7,,,74,100
156096,note_on,,,,,192,0,15,,,,,7,,,70,100
156096,note_on,,,,,64,0,14,,,,,6,,,43,85
156096,note_on,,,,,192,0,11,,,,,3,,,70,35
156096,note_on,,,,,192,0,10,,,,,2,,,70,95
156096,note_on,,,,,64,0,12,,,,,4,,,62,85
156096,note_on,,,,,64,0,13,,,,,5,,,55,85
156096,note_on,,,,,64,0,16,,,,,7,,,55,100
156224,note_off,,,,,128,0,12,,,,,4,,,62,100
156284,note_off,,,,,188,0,11,,,,,3,,,70,100
156284,note_off,,,,,188,0,10,,,,,2,,,70,100
156288,note_on,,,,,64,0,12,,,,,4,,,60,85
156288,note_on,,,,,4,0,10,,,,,2,,,69,95
156288,note_on,,,,,4,0,11,,,,,3,,,69,35
156416,note_off,,,,,128,0,12,,,,,4,,,60,100
156476,note_off,,,,,188,0,11,,,,,3,,,69,100
156476,note_off,,,,,188,0,10,,,,,2,,,69,100
156480,note_on,,,,,4,0,11,,,,,3,,,67,35
156480,note_off,,,,,384,0,14,,,,,6,,,43,100
156480,note_on,,,,,4,0,10,,,,,2,,,67,95
156480,note_off,,,,,384,0,16,,,,,7,,,55,100
156480,note_on,,,,,64,0,12,,,,,4,,,58,85
156480,note_off,,,,,384,0,13,,,,,5,,,55,100
156480,note_off,,,,,0,0,15,,,,,7,,,74,100
156480,note_off,,,,,384,0,15,,,,,7,,,70,100
156608,note_off,,,,,128,0,12,,,,,4,,,58,100
156608,note_off,,,,,128,0,10,,,,,2,,,67,100
156608,note_off,,,,,128,0,11,,,,,3,,,67,100
156672,note_on,,,,,64,0,12,,,,,4,,,57,85
156672,note_on,,,,,0,0,15,,,,,7,,,69,100
156672,note_on,,,,,192,0,15,,,,,7,,,74,100
156672,note_on,,,,,192,0,14,,,,,6,,,42,85
156672,note_on,,,,,64,0,10,,,,,2,,,62,95
156672,note_on,,,,,192,0,13,,,,,5,,,54,85
156672,note_on,,,,,192,0,16,,,,,7,,,54,100
156672,note_on,,,,,64,0,11,,,,,3,,,62,35
156800,note_off,,,,,128,0,13,,,,,5,,,54,100
156800,note_off,,,,,128,0,16,,,,,7,,,54,100
156800,note_off,,,,,128,0,14,,,,,6,,,42,100
156864,note_on,,,,,64,0,16,,,,,7,,,52,100
156864,note_on,,,,,64,0,14,,,,,6,,,40,85
156864,note_on,,,,,64,0,13,,,,,5,,,52,85
156928,note_off,,,,,256,0,12,,,,,4,,,57,100
156992,note_off,,,,,128,0,14,,,,,6,,,40,100
156992,note_off,,,,,128,0,16,,,,,7,,,52,100
156992,note_off,,,,,128,0,13,,,,,5,,,52,100
157056,note_off,,,,,384,0,11,,,,,3,,,62,100
157056,note_on,,,,,64,0,14,,,,,6,,,38,85
157056,note_off,,,,,384,0,15,,,,,7,,,74,100
157056,note_off,,,,,0,0,15,,,,,7,,,69,100
157056,note_off,,,,,384,0,10,,,,,2,,,62,100
157056,note_on,,,,,128,0,12,,,,,4,,,62,85
157056,note_on,,,,,64,0,16,,,,,7,,,50,100
157056,note_on,,,,,64,0,13,,,,,5,,,50,85
157184,note_off,,,,,128,0,14,,,,,6,,,38,100
157184,note_off,,,,,128,0,16,,,,,7,,,50,100
157184,note_off,,,,,128,0,13,,,,,5,,,50,100
157184,note_off,,,,,128,0,12,,,,,4,,,62,100
157248,note_on,,,,,64,0,12,,,,,4,,,62,85
157248,note_on,,,,,0,0,15,,,,,7,,,74,100
157248,note_on,,,,,192,0,15,,,,,7,,,70,100
157248,note_on,,,,,64,0,16,,,,,7,,,55,100
157248,note_on,,,,,192,0,10,,,,,2,,,70,95
157248,note_on,,,,,192,0,11,,,,,3,,,70,35
157248,note_on,,,,,64,0,14,,,,,6,,,43,85
157248,note_on,,,,,64,0,13,,,,,5,,,55,85
157376,note_off,,,,,128,0,12,,,,,4,,,62,100
157436,note_off,,,,,188,0,10,,,,,2,,,70,100
157436,note_off,,,,,188,0,11,,,,,3,,,70,100
157440,note_on,,,,,64,0,12,,,,,4,,,60,85
157440,note_on,,,,,4,0,10,,,,,2,,,69,95
157440,note_on,,,,,4,0,11,,,,,3,,,69,35
157568,note_off,,,,,128,0,12,,,,,4,,,60,100
157628,note_off,,,,,188,0,10,,,,,2,,,69,100
157628,note_off,,,,,188,0,11,,,,,3,,,69,100
157632,note_on,,,,,64,0,12,,,,,4,,,58,85
157632,note_on,,,,,4,0,10,,,,,2,,,67,95
157632,note_off,,,,,384,0,14,,,,,6,,,43,100
157632,note_on,,,,,4,0,11,,,,,3,,,67,35
157632,note_off,,,,,384,0,15,,,,,7,,,70,100
157632,note_off,,,,,0,0,15,,,,,7,,,74,100
157632,note_off,,,,,384,0,16,,,,,7,,,55,100
157632,note_off,,,,,384,0,13,,,,,5,,,55,100
157760,note_off,,,,,128,0,10,,,,,2,,,67,100
157760,note_off,,,,,128,0,11,,,,,3,,,67,100
157760,note_off,,,,,128,0,12,,,,,4,,,58,100
157824,note_on,,,,,64,0,10,,,,,2,,,60,95
157824,note_on,,,,,64,0,11,,,,,3,,,60,35
157824,note_on,,,,,64,0,12,,,,,4,,,57,85
157824,note_on,,,,,192,0,13,,,,,5,,,54,85
157824,note_on,,,,,192,0,14,,,,,6,,,42,85
157824,note_on,,,,,0,0,15,,,,,7,,,74,100
157824,note_on,,,,,192,0,16,,,,,7,,,54,100
157824,note_on,,,,,192,0,15,,,,,7,,,72,100
157952,note_off,,,,,128,0,16,,,,,7,,,54,100
157952,note_off,,,,,128,0,14,,,,,6,,,42,100
157952,note_off,,,,,128,0,13,,,,,5,,,54,100
158016,note_on,,,,,64,0,16,,,,,7,,,52,100
158016,note_on,,,,,64,0,14,,,,,6,,,40,85
158016,note_on,,,,,64,0,13,,,,,5,,,52,85
158080,note_off,,,,,256,0,12,,,,,4,,,57,100
158144,note_off,,,,,128,0,14,,,,,6,,,40,100
158144,note_off,,,,,128,0,13,,,,,5,,,52,100
158144,note_off,,,,,128,0,16,,,,,7,,,52,100
158208,note_off,,,,,384,0,10,,,,,2,,,60,100
158208,note_on,,,,,128,0,12,,,,,4,,,62,85
158208,note_on,,,,,64,0,16,,,,,7,,,50,100
158208,note_on,,,,,64,0,14,,,,,6,,,38,85
158208,note_off,,,,,0,0,15,,,,,7,,,74,100
158208,note_off,,,,,384,0,15,,,,,7,,,72,100
158208,note_on,,,,,64,0,13,,,,,5,,,50,85
158208,note_off,,,,,384,0,11,,,,,3,,,60,100
158336,note_off,,,,,128,0,12,,,,,4,,,62,100
158336,note_off,,,,,128,0,16,,,,,7,,,50,100
158336,note_off,,,,,128,0,13,,,,,5,,,50,100
158336,note_off,,,,,128,0,14,,,,,6,,,38,100
158400,note_on,,,,,64,0,13,,,,,5,,,55,85
158400,note_on,,,,,64,0,16,,,,,7,,,55,100
158400,note_on,,,,,64,0,14,,,,,6,,,43,85
158400,note_on,,,,,0,0,15,,,,,7,,,74,100
158400,note_on,,,,,192,0,15,,,,,7,,,70,100
158400,note_on,,,,,64,0,12,,,,,4,,,62,85
158400,note_on,,,,,192,0,10,,,,,2,,,70,95
158400,note_on,,,,,192,0,11,,,,,3,,,70,35
158528,note_off,,,,,128,0,12,,,,,4,,,62,100
158588,note_off,,,,,188,0,11,,,,,3,,,70,100
158588,note_off,,,,,188,0,10,,,,,2,,,70,100
158592,note_on,,,,,4,0,11,,,,,3,,,69,35
158592,note_on,,,,,64,0,12,,,,,4,,,60,85
158592,note_on,,,,,4,0,10,,,,,2,,,69,95
158720,note_off,,,,,128,0,12,,,,,4,,,60,100
158780,note_off,,,,,188,0,10,,,,,2,,,69,100
158780,note_off,,,,,188,0,11,,,,,3,,,69,100
158784,note_on,,,,,4,0,11,,,,,3,,,67,35
158784,note_off,,,,,384,0,16,,,,,7,,,55,100
158784,note_on,,,,,4,0,10,,,,,2,,,67,95
158784,note_off,,,,,0,0,15,,,,,7,,,74,100
158784,note_off,,,,,384,0,15,,,,,7,,,70,100
158784,note_off,,,,,384,0,14,,,,,6,,,43,100
158784,note_off,,,,,384,0,13,,,,,5,,,55,100
158784,note_on,,,,,64,0,12,,,,,4,,,58,85
158912,note_off,,,,,128,0,11,,,,,3,,,67,100
158912,note_off,,,,,128,0,10,,,,,2,,,67,100
158912,note_off,,,,,128,0,12,,,,,4,,,58,100
158976,note_on,,,,,64,0,10,,,,,2,,,73,95
158976,note_on,,,,,192,0,16,,,,,7,,,57,100
158976,note_on,,,,,192,0,14,,,,,6,,,45,85
158976,note_on,,,,,192,0,13,,,,,5,,,57,85
158976,note_on,,,,,192,0,15,,,,,7,,,64,100
158976,note_on,,,,,0,0,15,,,,,7,,,73,100
158976,note_on,,,,,64,0,11,,,,,3,,,73,35
158976,note_on,,,,,64,0,12,,,,,4,,,64,85
158976,set_tempo,,,,,158976,1,0,,333333,,,,,,,
159026,set_tempo,,,,,50,1,0,,335195,,,,,,,
159078,set_tempo,,,,,52,1,0,,335195,,,,,,,
159128,set_tempo,,,,,50,1,0,,337078,,,,,,,
159180,set_tempo,,,,,52,1,0,,337078,,,,,,,
159230,set_tempo,,,,,50,1,0,,338983,,,,,,,
159232,note_off,,,,,256,0,16,,,,,7,,,57,100
159232,note_off,,,,,256,0,14,,,,,6,,,45,100
159232,note_off,,,,,256,0,13,,,,,5,,,57,100
159282,set_tempo,,,,,52,1,0,,338983,,,,,,,
159334,set_tempo,,,,,52,1,0,,340909,,,,,,,
159360,note_on,,,,,128,0,13,,,,,5,,,58,85
159360,note_off,,,,,0,0,15,,,,,7,,,73,100
159360,note_on,,,,,128,0,14,,,,,6,,,46,85
159360,note_off,,,,,384,0,15,,,,,7,,,64,100
159360,note_on,,,,,128,0,16,,,,,7,,,58,100
159384,set_tempo,,,,,50,1,0,,340909,,,,,,,
159436,set_tempo,,,,,52,1,0,,342857,,,,,,,
159486,set_tempo,,,,,50,1,0,,342857,,,,,,,
159488,note_off,,,,,128,0,13,,,,,5,,,58,100
159488,note_off,,,,,512,0,11,,,,,3,,,73,100
159488,note_off,,,,,512,0,10,,,,,2,,,73,100
159488,note_off,,,,,128,0,14,,,,,6,,,46,100
159488,note_off,,,,,128,0,16,,,,,7,,,58,100
159538,set_tempo,,,,,52,1,0,,344827,,,,,,,
159552,note_on,,,,,192,0,15,,,,,7,,,64,100
159552,note_on,,,,,0,0,15,,,,,7,,,73,100
159552,note_on,,,,,64,0,16,,,,,7,,,57,100
159552,note_on,,,,,64,0,14,,,,,6,,,45,85
159552,note_on,,,,,64,0,13,,,,,5,,,57,85
159588,set_tempo,,,,,50,1,0,,344827,,,,,,,
159640,set_tempo,,,,,52,1,0,,346820,,,,,,,
159692,set_tempo,,,,,52,1,0,,346820,,,,,,,
159740,note_off,,,,,764,0,12,,,,,4,,,64,100
159742,set_tempo,,,,,50,1,0,,348837,,,,,,,
159744,note_on,,,,,256,0,11,,,,,3,,,74,35
159744,note_on,,,,,256,0,10,,,,,2,,,74,95
159794,set_tempo,,,,,52,1,0,,348837,,,,,,,
159808,note_off,,,,,256,0,16,,,,,7,,,57,100
159808,note_off,,,,,256,0,13,,,,,5,,,57,100
159808,note_off,,,,,256,0,14,,,,,6,,,45,100
159844,set_tempo,,,,,50,1,0,,350877,,,,,,,
159872,note_off,,,,,128,0,11,,,,,3,,,74,100
159872,note_off,,,,,128,0,10,,,,,2,,,74,100
159896,set_tempo,,,,,52,1,0,,350877,,,,,,,
159936,note_on,,,,,196,0,12,,,,,4,,,61,85
159936,note_on,,,,,128,0,16,,,,,7,,,55,100
159936,note_on,,,,,64,0,10,,,,,2,,,76,95
159936,note_on,,,,,128,0,13,,,,,5,,,55,85
159936,note_off,,,,,0,0,15,,,,,7,,,73,100
159936,note_off,,,,,384,0,15,,,,,7,,,64,100
159936,note_on,,,,,128,0,14,,,,,6,,,43,85
159936,note_on,,,,,64,0,11,,,,,3,,,76,35
159946,set_tempo,,,,,50,1,0,,352941,,,,,,,
159998,set_tempo,,,,,52,1,0,,352941,,,,,,,
160050,set_tempo,,,,,52,1,0,,355029,,,,,,,
160064,note_off,,,,,128,0,12,,,,,4,,,61,100
160064,note_off,,,,,128,0,13,,,,,5,,,55,100
160064,note_off,,,,,128,0,10,,,,,2,,,76,100
160064,note_off,,,,,128,0,14,,,,,6,,,43,100
160064,note_off,,,,,128,0,16,,,,,7,,,55,100
160064,note_off,,,,,128,0,11,,,,,3,,,76,100
160100,set_tempo,,,,,50,1,0,,355029,,,,,,,
160128,note_on,,,,,64,0,14,,,,,6,,,42,85
160128,note_on,,,,,64,0,13,,,,,5,,,54,85
160128,note_on,,,,,64,0,12,,,,,4,,,62,85
160128,note_on,,,,,64,0,16,,,,,7,,,54,100
160128,note_on,,,,,64,0,11,,,,,3,,,69,35
160128,note_on,,,,,64,0,10,,,,,2,,,69,95
160128,note_on,,,,,192,0,15,,,,,7,,,74,100
160128,note_on,,,,,0,0,15,,,,,7,,,69,100
160152,set_tempo,,,,,52,1,0,,357142,,,,,,,
160254,set_tempo,,,,,102,1,0,,359281,,,,,,,
160356,set_tempo,,,,,102,1,0,,361445,,,,,,,
160384,note_off,,,,,0,0,15,,,,,7,,,69,100
160384,note_off,,,,,256,0,14,,,,,6,,,42,100
160384,note_off,,,,,256,0,16,,,,,7,,,54,100
160384,note_off,,,,,256,0,13,,,,,5,,,54,100
160384,note_off,,,,,256,0,10,,,,,2,,,69,100
160384,note_off,,,,,256,0,12,,,,,4,,,62,100
160384,note_off,,,,,256,0,15,,,,,7,,,74,100
160384,note_off,,,,,256,0,11,,,,,3,,,69,100
160458,set_tempo,,,,,102,1,0,,363636,,,,,,,
160512,note_on,,,,,128,0,13,,,,,5,,,55,85
160512,note_on,,,,,128,0,15,,,,,7,,,74,100
160512,note_on,,,,,0,0,15,,,,,7,,,70,100
160512,note_on,,,,,128,0,16,,,,,7,,,55,100
160512,note_on,,,,,128,0,14,,,,,6,,,43,85
160512,note_on,,,,,128,0,10,,,,,2,,,74,95
160512,note_on,,,,,128,0,12,,,,,4,,,62,85
160512,note_on,,,,,128,0,11,,,,,3,,,70,35
160560,set_tempo,,,,,102,1,0,,365853,,,,,,,
160640,note_off,,,,,128,0,11,,,,,3,,,70,100
160640,note_off,,,,,0,0,15,,,,,7,,,70,100
160640,note_off,,,,,128,0,15,,,,,7,,,74,100
160640,note_off,,,,,128,0,16,,,,,7,,,55,100
160640,note_off,,,,,128,0,14,,,,,6,,,43,100
160640,note_off,,,,,128,0,10,,,,,2,,,74,100
160640,note_off,,,,,128,0,12,,,,,4,,,62,100
160640,note_off,,,,,128,0,13,,,,,5,,,55,100
160704,note_on,,,,,64,0,12,,,,,4,,,63,85
160704,note_on,,,,,64,0,16,,,,,7,,,60,100
160704,note_on,,,,,0,0,15,,,,,7,,,70,100
160704,note_on,,,,,64,0,13,,,,,5,,,60,85
160704,note_on,,,,,64,0,10,,,,,2,,,70,95
160704,note_on,,,,,64,0,14,,,,,6,,,48,85
160704,note_on,,,,,64,0,15,,,,,7,,,67,100
160704,note_on,,,,,64,0,11,,,,,3,,,67,35
160714,set_tempo,,,,,154,1,0,,368098,,,,,,,
160816,set_tempo,,,,,102,1,0,,370370,,,,,,,
160826,set_tempo,,,,,10,1,0,,740740,,,,,,,
160832,note_off,,,,,128,0,12,,,,,4,,,63,100
160868,set_tempo,,,,,42,1,0,,372670,,,,,,,
160896,note_off,,,,,192,0,10,,,,,2,,,70,100
160896,note_on,,,,,64,0,12,,,,,4,,,57,85
160896,note_off,,,,,192,0,11,,,,,3,,,67,100
160918,set_tempo,,,,,50,1,0,,372670,,,,,,,
160960,note_off,,,,,0,0,15,,,,,7,,,70,100
160960,note_off,,,,,256,0,15,,,,,7,,,67,100
160960,note_off,,,,,256,0,14,,,,,6,,,48,100
160960,note_off,,,,,256,0,16,,,,,7,,,60,100
160960,note_off,,,,,256,0,13,,,,,5,,,60,100
160970,set_tempo,,,,,52,1,0,,375000,,,,,,,
161022,set_tempo,,,,,52,1,0,,375000,,,,,,,
161024,note_off,,,,,128,0,12,,,,,4,,,57,100
161072,set_tempo,,,,,50,1,0,,377358,,,,,,,
161088,note_on,,,,,128,0,15,,,,,7,,,78,100
161088,note_on,,,,,128,0,13,,,,,5,,,62,85
161088,note_on,,,,,64,0,12,,,,,4,,,62,85
161088,note_on,,,,,192,0,10,,,,,2,,,69,95
161088,note_on,,,,,0,0,15,,,,,7,,,69,100
161088,note_on,,,,,128,0,16,,,,,7,,,62,100
161088,note_on,,,,,192,0,11,,,,,3,,,66,35
161088,note_on,,,,,128,0,14,,,,,6,,,50,85
161124,set_tempo,,,,,52,1,0,,377358,,,,,,,
161174,set_tempo,,,,,50,1,0,,379746,,,,,,,
161216,note_off,,,,,128,0,11,,,,,3,,,66,100
161216,note_off,,,,,128,0,16,,,,,7,,,62,100
161216,note_off,,,,,128,0,15,,,,,7,,,78,100
161216,note_off,,,,,128,0,13,,,,,5,,,62,100
161216,note_off,,,,,128,0,12,,,,,4,,,62,100
161216,note_off,,,,,0,0,15,,,,,7,,,69,100
161216,note_off,,,,,128,0,10,,,,,2,,,69,100
161216,note_off,,,,,128,0,14,,,,,6,,,50,100
161226,set_tempo,,,,,52,1,0,,379746,,,,,,,
161278,set_tempo,,,,,52,1,0,,382165,,,,,,,
161280,note_on,,,,,64,0,14,,,,,6,,,43,85
161280,note_on,,,,,64,0,11,,,,,3,,,67,35
161280,note_on,,,,,64,0,12,,,,,4,,,58,85
161280,note_on,,,,,0,0,12,,,,,4,,,62,85
161280,note_on,,,,,64,0,10,,,,,2,,,67,95
161280,set_tempo,,,,,2,1,0,,731707,,,,,,,
161280,note_on,,,,,64,0,16,,,,,7,,,55,100
161280,note_on,,,,,64,0,15,,,,,7,,,74,100
161280,note_on,,,,,0,0,15,,,,,7,,,70,100
161280,note_on,,,,,64,0,13,,,,,5,,,55,85
161318,set_tempo,,,,,38,1,0,,401337,,,,,,,
161356,set_tempo,,,,,38,1,0,,402684,,,,,,,
161394,set_tempo,,,,,38,1,0,,404040,,,,,,,
161432,set_tempo,,,,,38,1,0,,405405,,,,,,,
161472,set_tempo,,,,,40,1,0,,406779,,,,,,,
161510,set_tempo,,,,,38,1,0,,408163,,,,,,,
161536,note_off,,,,,256,0,14,,,,,6,,,43,100
161536,note_off,,,,,256,0,11,,,,,3,,,67,100
161536,note_off,,,,,256,0,13,,,,,5,,,55,100
161536,note_off,,,,,256,0,16,,,,,7,,,55,100
161536,note_off,,,,,256,0,10,,,,,2,,,67,100
161536,note_off,,,,,256,0,12,,,,,4,,,58,100
161536,note_off,,,,,0,0,12,,,,,4,,,62,100
161548,set_tempo,,,,,38,1,0,,409556,,,,,,,
161586,set_tempo,,,,,38,1,0,,410958,,,,,,,
161624,set_tempo,,,,,38,1,0,,412371,,,,,,,
161664,note_off,,,,,384,0,15,,,,,7,,,74,100
161664,note_on,,,,,128,0,10,,,,,2,,,79,125
161664,note_on,,,,,0,0,12,,,,,4,,,70,115
161664,note_on,,,,,128,0,16,,,,,7,,,46,100
161664,note_on,,,,,128,0,14,,,,,6,,,34,115
161664,note_on,,,,,128,0,12,,,,,4,,,62,115
161664,note_on,,,,,128,0,11,,,,,3,,,79,65
161664,note_on,,,,,128,0,13,,,,,5,,,46,115
161664,note_off,,,,,0,0,15,,,,,7,,,70,100
161664,note_on,,,,,0,0,15,,,,,7,,,67,100
161664,note_on,,,,,0,0,15,,,,,7,,,70,100
161664,note_on,,,,,0,0,15,,,,,7,,,62,100
161664,set_tempo,,,,,40,1,0,,413793,,,,,,,
161702,set_tempo,,,,,38,1,0,,415224,,,,,,,
161740,set_tempo,,,,,38,1,0,,416666,,,,,,,
161778,set_tempo,,,,,38,1,0,,418118,,,,,,,
161792,note_off,,,,,128,0,13,,,,,5,,,46,100
161792,note_off,,,,,128,0,12,,,,,4,,,62,100
161792,note_off,,,,,0,0,12,,,,,4,,,70,100
161792,note_off,,,,,128,0,14,,,,,6,,,34,100
161792,note_off,,,,,128,0,16,,,,,7,,,46,100
161792,note_off,,,,,128,0,11,,,,,3,,,79,100
161792,note_off,,,,,128,0,10,,,,,2,,,79,100
161792,note_off,,,,,0,0,15,,,,,7,,,62,100
161792,note_off,,,,,0,0,15,,,,,7,,,70,100
161792,note_off,,,,,128,0,15,,,,,7,,,67,100
161816,set_tempo,,,,,38,1,0,,419580,,,,,,,
161856,note_on,,,,,0,0,15,,,,,7,,,63,100
161856,note_on,,,,,0,0,12,,,,,4,,,63,115
161856,note_on,,,,,64,0,12,,,,,4,,,69,115
161856,note_on,,,,,64,0,13,,,,,5,,,48,115
161856,note_on,,,,,64,0,14,,,,,6,,,36,115
161856,note_on,,,,,64,0,15,,,,,7,,,69,100
161856,note_on,,,,,64,0,16,,,,,7,,,48,100
161856,note_on,,,,,0,0,15,,,,,7,,,67,100
161856,note_on,,,,,64,0,11,,,,,3,,,69,65
161856,set_tempo,,,,,40,1,0,,428571,,,,,,,
161856,note_on,,,,,64,0,10,,,,,2,,,69,125
161866,set_tempo,,,,,10,1,0,,430107,,,,,,,
161876,set_tempo,,,,,10,1,0,,431654,,,,,,,
161888,set_tempo,,,,,12,1,0,,433212,,,,,,,
161898,set_tempo,,,,,10,1,0,,434782,,,,,,,
161910,set_tempo,,,,,12,1,0,,436363,,,,,,,
161920,set_tempo,,,,,10,1,0,,437956,,,,,,,
161930,set_tempo,,,,,10,1,0,,439560,,,,,,,
161942,set_tempo,,,,,12,1,0,,441176,,,,,,,
161952,set_tempo,,,,,10,1,0,,442804,,,,,,,
161964,set_tempo,,,,,12,1,0,,444444,,,,,,,
161974,set_tempo,,,,,10,1,0,,446096,,,,,,,
161984,set_tempo,,,,,10,1,0,,447761,,,,,,,
161996,set_tempo,,,,,12,1,0,,449438,,,,,,,
162006,set_tempo,,,,,10,1,0,,451127,,,,,,,
162018,set_tempo,,,,,12,1,0,,452830,,,,,,,
162028,set_tempo,,,,,10,1,0,,454545,,,,,,,
162038,set_tempo,,,,,10,1,0,,456273,,,,,,,
162050,set_tempo,,,,,12,1,0,,458015,,,,,,,
162060,set_tempo,,,,,10,1,0,,459770,,,,,,,
162072,set_tempo,,,,,12,1,0,,461538,,,,,,,
162082,set_tempo,,,,,10,1,0,,463320,,,,,,,
162092,set_tempo,,,,,10,1,0,,465116,,,,,,,
162104,set_tempo,,,,,12,1,0,,466926,,,,,,,
162112,note_off,,,,,256,0,13,,,,,5,,,48,100
162112,note_off,,,,,256,0,10,,,,,2,,,69,100
162112,note_off,,,,,256,0,11,,,,,3,,,69,100
162112,note_off,,,,,0,0,15,,,,,7,,,63,100
162112,note_off,,,,,256,0,14,,,,,6,,,36,100
162112,note_off,,,,,0,0,15,,,,,7,,,67,100
162112,note_off,,,,,0,0,12,,,,,4,,,63,100
162112,note_off,,,,,256,0,16,,,,,7,,,48,100
162112,note_off,,,,,256,0,12,,,,,4,,,69,100
162112,note_off,,,,,256,0,15,,,,,7,,,69,100
162114,set_tempo,,,,,10,1,0,,468750,,,,,,,
162126,set_tempo,,,,,12,1,0,,470588,,,,,,,
162136,set_tempo,,,,,10,1,0,,472440,,,,,,,
162146,set_tempo,,,,,10,1,0,,474308,,,,,,,
162158,set_tempo,,,,,12,1,0,,476190,,,,,,,
162168,set_tempo,,,,,10,1,0,,478087,,,,,,,
162180,set_tempo,,,,,12,1,0,,480000,,,,,,,
162190,set_tempo,,,,,10,1,0,,481927,,,,,,,
162200,set_tempo,,,,,10,1,0,,483870,,,,,,,
162212,set_tempo,,,,,12,1,0,,485829,,,,,,,
162222,set_tempo,,,,,10,1,0,,487804,,,,,,,
162234,set_tempo,,,,,12,1,0,,489795,,,,,,,
162240,note_on,,,,,128,0,14,,,,,6,,,38,115
162240,note_on,,,,,128,0,11,,,,,3,,,78,65
162240,note_on,,,,,128,0,15,,,,,7,,,69,100
162240,note_on,,,,,0,0,15,,,,,7,,,66,100
162240,note_on,,,,,0,0,15,,,,,7,,,62,100
162240,note_on,,,,,128,0,16,,,,,7,,,50,100
162240,note_on,,,,,128,0,10,,,,,2,,,78,125
162240,note_on,,,,,128,0,13,,,,,5,,,50,115
162240,note_on,,,,,128,0,12,,,,,4,,,62,115
162240,note_on,,,,,0,0,12,,,,,4,,,69,115
162244,set_tempo,,,,,10,1,0,,491803,,,,,,,
162254,set_tempo,,,,,10,1,0,,493827,,,,,,,
162266,set_tempo,,,,,12,1,0,,495867,,,,,,,
162276,set_tempo,,,,,10,1,0,,497925,,,,,,,
162288,set_tempo,,,,,12,1,0,,500000,,,,,,,
162298,set_tempo,,,,,10,1,0,,502092,,,,,,,
162308,set_tempo,,,,,10,1,0,,504201,,,,,,,
162320,set_tempo,,,,,12,1,0,,506329,,,,,,,
162330,set_tempo,,,,,10,1,0,,508474,,,,,,,
162342,set_tempo,,,,,12,1,0,,510638,,,,,,,
162352,set_tempo,,,,,10,1,0,,512820,,,,,,,
162362,set_tempo,,,,,10,1,0,,515021,,,,,,,
162368,note_off,,,,,0,0,12,,,,,4,,,69,100
162368,note_off,,,,,128,0,14,,,,,6,,,38,100
162368,note_off,,,,,128,0,11,,,,,3,,,78,100
162368,note_off,,,,,0,0,15,,,,,7,,,62,100
162368,note_off,,,,,0,0,15,,,,,7,,,66,100
162368,note_off,,,,,128,0,15,,,,,7,,,69,100
162368,note_off,,,,,128,0,12,,,,,4,,,62,100
162368,note_off,,,,,128,0,16,,,,,7,,,50,100
162368,note_off,,,,,128,0,10,,,,,2,,,78,100
162368,note_off,,,,,128,0,13,,,,,5,,,50,100
162374,set_tempo,,,,,12,1,0,,517241,,,,,,,
162384,set_tempo,,,,,10,1,0,,519480,,,,,,,
162396,set_tempo,,,,,12,1,0,,521739,,,,,,,
162406,set_tempo,,,,,10,1,0,,524017,,,,,,,
162416,set_tempo,,,,,10,1,0,,526315,,,,,,,
162428,set_tempo,,,,,12,1,0,,528634,,,,,,,
162432,note_on,,,,,64,0,13,,,,,5,,,43,115
162432,note_on,,,,,64,0,10,,,,,2,,,79,125
162432,note_on,,,,,64,0,16,,,,,7,,,43,100
162432,note_on,,,,,0,0,12,,,,,4,,,62,115
162432,note_on,,,,,64,0,11,,,,,3,,,79,65
162432,note_on,,,,,64,0,14,,,,,6,,,31,115
162432,note_on,,,,,64,0,12,,,,,4,,,70,115
162438,end_of_track,,,,,0,1,0,,,,,,,,,
162438,set_tempo,,,,,10,1,0,,1000000,,,,,,,
162478,note_on,,,,,110,0,15,,,,,7,,,62,100
162526,note_on,,,,,48,0,15,,,,,7,,,67,100
162574,note_on,,,,,48,0,15,,,,,7,,,70,100
163200,note_off,,,,,768,0,14,,,,,6,,,31,100
163200,end_of_track,,,,,0,1,16,,,,,,,,,
163200,end_of_track,,,,,0,1,13,,,,,,,,,
163200,note_off,,,,,768,0,11,,,,,3,,,79,100
163200,end_of_track,,,,,0,1,11,,,,,,,,,
163200,note_off,,,,,768,0,12,,,,,4,,,70,100
163200,note_off,,,,,0,0,12,,,,,4,,,62,100
163200,end_of_track,,,,,0,1,12,,,,,,,,,
163200,note_off,,,,,768,0,13,,,,,5,,,43,100
163200,note_off,,,,,768,0,10,,,,,2,,,79,100
163200,end_of_track,,,,,0,1,14,,,,,,,,,
163200,note_off,,,,,768,0,16,,,,,7,,,43,100
163246,note_off,,,,,672,0,15,,,,,7,,,62,100
163294,note_off,,,,,48,0,15,,,,,7,,,67,100
163342,note_off,,,,,48,0,15,,,,,7,,,70,100
163342,end_of_track,,,,,0,1,15,,,,,,,,,
164160,end_of_track,,,,,0,1,10,,,,,,,,,
164160,program_change,,,,,960,0,10,,,,,2,48,,,
