tick,type,numerator,denominator,clocks_per_click,notated_32nd_notes_per_beat,time,meta,track,data,tempo,control,value,channel,program,key,note,velocity
0,time_signature,3,4,96,8,0,1,0,,,,,,,,,
0,end_of_track,,,,,0,1,7,,,,,,,,,
0,track_name,,,,,0,1,8,,,,,,,,,
0,control_change,,,,,0,0,8,,,0,0,0,,,,
0,program_change,,,,,0,0,8,,,,,0,40,,,
0,control_change,,,,,0,0,8,,,7,100,0,,,,
0,control_change,,,,,0,0,8,,,10,64,0,,,,
0,control_change,,,,,0,0,8,,,91,64,0,,,,
0,key_signature,,,,,0,1,8,,,,,,,A,,
0,note_on,,,,,0,0,16,,,,,7,,,45,100
0,key_signature,,,,,0,1,16,,,,,,,A,,
0,control_change,,,,,0,0,16,,,91,60,7,,,,
0,control_change,,,,,0,0,16,,,7,55,7,,,,
0,program_change,,,,,0,0,16,,,,,7,6,,,
0,control_change,,,,,0,0,16,,,0,0,7,,,,
0,track_name,,,,,0,1,16,,,,,,,,,
0,note_on,,,,,0,0,15,,,,,7,,,64,100
0,note_on,,,,,0,0,15,,,,,7,,,61,100
0,key_signature,,,,,0,1,15,,,,,,,A,,
0,control_change,,,,,0,0,15,,,91,60,7,,,,
0,key_signature,,,,,0,1,7,,,,,,,A,,
0,control_change,,,,,0,0,7,,,91,64,0,,,,
0,control_change,,,,,0,0,7,,,10,64,0,,,,
0,control_change,,,,,0,0,7,,,7,100,0,,,,
0,end_of_track,,,,,0,1,4,,,,,,,,,
0,track_name,,,,,0,1,5,,,,,,,,,
0,control_change,,,,,0,0,5,,,0,0,0,,,,
0,program_change,,,,,0,0,5,,,,,0,40,,,
0,control_change,,,,,0,0,5,,,7,100,0,,,,
0,control_change,,,,,0,0,5,,,10,64,0,,,,
0,control_change,,,,,0,0,5,,,91,64,0,,,,
0,key_signature,,,,,0,1,5,,,,,,,A,,
0,end_of_track,,,,,0,1,5,,,,,,,,,
0,control_change,,,,,0,0,15,,,7,55,7,,,,
0,track_name,,,,,0,1,6,,,,,,,,,
0,program_change,,,,,0,0,6,,,,,0,40,,,
0,control_change,,,,,0,0,6,,,7,100,0,,,,
0,control_change,,,,,0,0,6,,,10,64,0,,,,
0,control_change,,,,,0,0,6,,,91,64,0,,,,
0,key_signature,,,,,0,1,6,,,,,,,A,,
0,end_of_track,,,,,0,1,6,,,,,,,,,
0,track_name,,,,,0,1,7,,,,,,,,,
0,control_change,,,,,0,0,7,,,0,0,0,,,,
0,program_change,,,,,0,0,7,,,,,0,40,,,
0,control_change,,,,,0,0,6,,,0,0,0,,,,
0,program_change,,,,,0,0,15,,,,,7,6,,,
0,control_change,,,,,0,0,15,,,0,0,7,,,,
0,track_name,,,,,0,1,15,,,,,,,,,
0,track_name,,,,,0,1,12,,,,,,,,,
0,track_name,,,,,0,1,9,,,,,,,,,
0,control_change,,,,,0,0,9,,,0,0,1,,,,
0,program_change,,,,,0,0,9,,,,,1,40,,,
0,control_change,,,,,0,0,9,,,7,100,1,,,,
0,control_change,,,,,0,0,9,,,10,49,1,,,,
0,control_change,,,,,0,0,9,,,91,65,1,,,,
0,key_signature,,,,,0,1,9,,,,,,,A,,
0,key_signature,,,,,0,1,11,,,,,,,A,,
0,control_change,,,,,0,0,12,,,0,0,4,,,,
0,control_change,,,,,0,0,11,,,91,64,3,,,,
0,control_change,,,,,0,0,11,,,7,100,3,,,,
0,program_change,,,,,0,0,11,,,,,3,48,,,
0,control_change,,,,,0,0,11,,,0,0,3,,,,
0,track_name,,,,,0,1,11,,,,,,,,,
0,key_signature,,,,,0,1,10,,,,,,,A,,
0,control_change,,,,,0,0,10,,,91,64,2,,,,
0,control_change,,,,,0,0,10,,,10,52,2,,,,
0,control_change,,,,,0,0,10,,,7,100,2,,,,
0,program_change,,,,,0,0,10,,,,,2,48,,,
0,control_change,,,,,0,0,11,,,10,38,3,,,,
0,key_signature,,,,,0,1,4,,,,,,,A,,
0,program_change,,,,,0,0,12,,,,,4,48,,,
0,control_change,,,,,0,0,12,,,10,68,4,,,,
0,control_change,,,,,0,0,10,,,0,0,2,,,,
0,note_on,,,,,0,0,14,,,,,6,,,33,100
0,key_signature,,,,,0,1,14,,,,,,,A,,
0,control_change,,,,,0,0,14,,,91,63,6,,,,
0,control_change,,,,,0,0,14,,,10,96,6,,,,
0,control_change,,,,,0,0,14,,,7,77,6,,,,
0,program_change,,,,,0,0,14,,,,,6,48,,,
0,control_change,,,,,0,0,14,,,0,0,6,,,,
0,track_name,,,,,0,1,14,,,,,,,,,
0,control_change,,,,,0,0,12,,,7,95,4,,,,
0,note_on,,,,,0,0,13,,,,,5,,,45,100
0,control_change,,,,,0,0,13,,,91,60,5,,,,
0,control_change,,,,,0,0,13,,,10,82,5,,,,
0,control_change,,,,,0,0,13,,,7,82,5,,,,
0,program_change,,,,,0,0,13,,,,,5,48,,,
0,control_change,,,,,0,0,13,,,0,0,5,,,,
0,track_name,,,,,0,1,13,,,,,,,,,
0,note_on,,,,,0,0,12,,,,,4,,,64,100
0,key_signature,,,,,0,1,12,,,,,,,A,,
0,control_change,,,,,0,0,12,,,91,61,4,,,,
0,key_signature,,,,,0,1,13,,,,,,,A,,
0,control_change,,,,,0,0,4,,,91,64,0,,,,
0,track_name,,,,,0,1,10,,,,,,,,,
0,control_change,,,,,0,0,4,,,7,100,0,,,,
0,set_tempo,,,,,0,1,0,,500000,,,,,,,
0,sequencer_specific,,,,,0,1,0,"(0, 0, 119, 14, 1)",,,,,,,,
0,sequencer_specific,,,,,0,1,0,"(0, 0, 65)",,,,,,,,
0,track_name,,,,,0,1,1,,,,,,,,,
0,end_of_track,,,,,0,1,1,,,,,,,,,
0,track_name,,,,,0,1,2,,,,,,,,,
0,end_of_track,,,,,0,1,2,,,,,,,,,
0,track_name,,,,,0,1,3,,,,,,,,,
0,control_change,,,,,0,0,3,,,0,0,0,,,,
0,control_change,,,,,0,0,4,,,10,64,0,,,,
0,control_change,,,,,0,0,3,,,10,64,0,,,,
0,control_change,,,,,0,0,3,,,91,64,0,,,,
0,program_change,,,,,0,0,3,,,,,0,40,,,
0,key_signature,,,,,0,1,3,,,,,,,A,,
0,end_of_track,,,,,0,1,3,,,,,,,,,
0,track_name,,,,,0,1,4,,,,,,,,,
0,control_change,,,,,0,0,4,,,0,0,0,,,,
0,program_change,,,,,0,0,4,,,,,0,40,,,
0,control_change,,,,,0,0,3,,,7,100,0,,,,
192,note_on,,,,,192,0,10,,,,,2,,,69,100
256,note_off,,,,,256,0,14,,,,,6,,,33,100
256,note_off,,,,,256,0,12,,,,,4,,,64,100
256,note_off,,,,,0,0,15,,,,,7,,,64,100
256,note_off,,,,,256,0,15,,,,,7,,,61,100
256,note_off,,,,,256,0,13,,,,,5,,,45,100
256,note_off,,,,,256,0,16,,,,,7,,,45,100
320,note_off,,,,,128,0,10,,,,,2,,,69,100
384,note_on,,,,,64,0,10,,,,,2,,,73,100
384,note_on,,,,,384,0,11,,,,,3,,,76,100
512,note_off,,,,,128,0,10,,,,,2,,,73,100
576,note_on,,,,,320,0,14,,,,,6,,,33,100
576,note_on,,,,,320,0,16,,,,,7,,,45,100
576,note_on,,,,,320,0,15,,,,,7,,,61,100
576,note_on,,,,,0,0,15,,,,,7,,,64,100
576,note_on,,,,,320,0,13,,,,,5,,,45,100
576,note_on,,,,,64,0,10,,,,,2,,,76,100
640,note_off,,,,,256,0,11,,,,,3,,,76,100
704,note_off,,,,,0,0,15,,,,,7,,,64,100
704,note_off,,,,,128,0,14,,,,,6,,,33,100
704,note_off,,,,,128,0,13,,,,,5,,,45,100
704,note_off,,,,,128,0,10,,,,,2,,,76,100
704,note_off,,,,,128,0,16,,,,,7,,,45,100
704,note_off,,,,,128,0,15,,,,,7,,,61,100
768,note_on,,,,,64,0,10,,,,,2,,,69,100
768,note_on,,,,,64,0,14,,,,,6,,,37,100
768,note_on,,,,,64,0,15,,,,,7,,,69,100
768,note_on,,,,,0,0,15,,,,,7,,,64,100
768,note_on,,,,,512,0,12,,,,,4,,,64,100
768,note_on,,,,,64,0,16,,,,,7,,,49,100
768,note_on,,,,,128,0,11,,,,,3,,,76,100
768,note_on,,,,,64,0,13,,,,,5,,,49,100
896,note_off,,,,,128,0,14,,,,,6,,,37,100
896,note_off,,,,,128,0,13,,,,,5,,,49,100
896,note_off,,,,,128,0,15,,,,,7,,,69,100
896,note_off,,,,,128,0,16,,,,,7,,,49,100
896,note_off,,,,,0,0,15,,,,,7,,,64,100
896,note_off,,,,,128,0,10,,,,,2,,,69,100
960,note_on,,,,,64,0,13,,,,,5,,,45,100
960,note_on,,,,,0,0,15,,,,,7,,,64,100
960,note_on,,,,,64,0,10,,,,,2,,,73,100
960,note_on,,,,,64,0,16,,,,,7,,,45,100
960,note_on,,,,,64,0,14,,,,,6,,,33,100
960,note_on,,,,,64,0,15,,,,,7,,,61,100
1024,note_off,,,,,256,0,11,,,,,3,,,76,100
1024,note_off,,,,,256,0,12,,,,,4,,,64,100
1088,note_off,,,,,128,0,16,,,,,7,,,45,100
1088,note_off,,,,,128,0,10,,,,,2,,,73,100
1088,note_off,,,,,128,0,15,,,,,7,,,61,100
1088,note_off,,,,,0,0,15,,,,,7,,,64,100
1088,note_off,,,,,128,0,14,,,,,6,,,33,100
1088,note_off,,,,,128,0,13,,,,,5,,,45,100
1152,note_on,,,,,64,0,15,,,,,7,,,68,100
1152,note_on,,,,,64,0,16,,,,,7,,,52,100
1152,note_on,,,,,64,0,14,,,,,6,,,40,100
1152,note_on,,,,,0,0,15,,,,,7,,,71,100
1152,note_on,,,,,64,0,13,,,,,5,,,52,100
1152,note_on,,,,,128,0,12,,,,,4,,,68,100
1152,note_on,,,,,128,0,11,,,,,3,,,76,100
1152,note_on,,,,,64,0,10,,,,,2,,,71,100
1280,note_off,,,,,128,0,10,,,,,2,,,71,100
1344,note_on,,,,,64,0,10,,,,,2,,,64,100
1408,note_off,,,,,256,0,12,,,,,4,,,68,100
1408,note_off,,,,,256,0,11,,,,,3,,,76,100
1408,note_off,,,,,256,0,13,,,,,5,,,52,100
1408,note_off,,,,,0,0,15,,,,,7,,,71,100
1408,note_off,,,,,256,0,16,,,,,7,,,52,100
1408,note_off,,,,,256,0,15,,,,,7,,,68,100
1408,note_off,,,,,256,0,14,,,,,6,,,40,100
1472,note_off,,,,,128,0,10,,,,,2,,,64,100
1536,note_on,,,,,128,0,11,,,,,3,,,76,100
1536,note_on,,,,,64,0,10,,,,,2,,,68,100
1664,note_off,,,,,128,0,10,,,,,2,,,68,100
1728,note_on,,,,,320,0,16,,,,,7,,,52,100
1728,note_on,,,,,320,0,13,,,,,5,,,52,100
1728,note_on,,,,,320,0,15,,,,,7,,,59,100
1728,note_on,,,,,0,0,15,,,,,7,,,68,100
1728,note_on,,,,,320,0,12,,,,,4,,,68,100
1728,note_on,,,,,320,0,14,,,,,6,,,40,100
1728,note_on,,,,,64,0,10,,,,,2,,,71,100
1792,note_off,,,,,256,0,11,,,,,3,,,76,100
1856,note_off,,,,,128,0,15,,,,,7,,,59,100
1856,note_off,,,,,0,0,15,,,,,7,,,68,100
1856,note_off,,,,,128,0,10,,,,,2,,,71,100
1856,note_off,,,,,128,0,12,,,,,4,,,68,100
1856,note_off,,,,,128,0,14,,,,,6,,,40,100
1856,note_off,,,,,128,0,16,,,,,7,,,52,100
1856,note_off,,,,,128,0,13,,,,,5,,,52,100
1920,note_on,,,,,64,0,14,,,,,6,,,44,100
1920,note_on,,,,,64,0,12,,,,,4,,,71,100
1920,note_on,,,,,64,0,13,,,,,5,,,56,100
1920,note_on,,,,,0,0,15,,,,,7,,,71,100
1920,note_on,,,,,64,0,10,,,,,2,,,76,100
1920,note_on,,,,,128,0,11,,,,,3,,,76,100
1920,note_on,,,,,64,0,16,,,,,7,,,56,100
1920,note_on,,,,,64,0,15,,,,,7,,,64,100
2048,note_off,,,,,0,0,15,,,,,7,,,71,100
2048,note_off,,,,,128,0,15,,,,,7,,,64,100
2048,note_off,,,,,128,0,12,,,,,4,,,71,100
2048,note_off,,,,,128,0,16,,,,,7,,,56,100
2048,note_off,,,,,128,0,10,,,,,2,,,76,100
2048,note_off,,,,,128,0,14,,,,,6,,,44,100
2048,note_off,,,,,128,0,13,,,,,5,,,56,100
2112,note_on,,,,,64,0,16,,,,,7,,,52,100
2112,note_on,,,,,64,0,10,,,,,2,,,71,100
2112,note_on,,,,,64,0,13,,,,,5,,,52,100
2112,note_on,,,,,64,0,15,,,,,7,,,59,100
2112,note_on,,,,,64,0,12,,,,,4,,,68,100
2112,note_on,,,,,64,0,14,,,,,6,,,40,100
2112,note_on,,,,,0,0,15,,,,,7,,,68,100
2176,note_off,,,,,256,0,11,,,,,3,,,76,100
2240,note_off,,,,,128,0,15,,,,,7,,,59,100
2240,note_off,,,,,128,0,13,,,,,5,,,52,100
2240,note_off,,,,,128,0,16,,,,,7,,,52,100
2240,note_off,,,,,128,0,12,,,,,4,,,68,100
2240,note_off,,,,,128,0,14,,,,,6,,,40,100
2240,note_off,,,,,128,0,10,,,,,2,,,71,100
2240,note_off,,,,,0,0,15,,,,,7,,,68,100
2304,note_on,,,,,64,0,10,,,,,2,,,73,100
2304,note_on,,,,,64,0,12,,,,,4,,,64,100
2304,note_on,,,,,0,0,15,,,,,7,,,73,100
2304,note_on,,,,,64,0,13,,,,,5,,,57,100
2304,note_on,,,,,64,0,15,,,,,7,,,64,100
2304,note_on,,,,,128,0,11,,,,,3,,,76,100
2304,note_on,,,,,64,0,16,,,,,7,,,57,100
2304,note_on,,,,,64,0,14,,,,,6,,,45,100
2432,note_off,,,,,128,0,11,,,,,3,,,76,100
2496,note_on,,,,,64,0,11,,,,,3,,,69,90
2560,note_off,,,,,256,0,14,,,,,6,,,45,100
2560,note_off,,,,,0,0,15,,,,,7,,,73,100
2560,note_off,,,,,256,0,12,,,,,4,,,64,100
2560,note_off,,,,,256,0,13,,,,,5,,,57,100
2560,note_off,,,,,256,0,10,,,,,2,,,73,100
2560,note_off,,,,,256,0,15,,,,,7,,,64,100
2560,note_off,,,,,256,0,16,,,,,7,,,57,100
2624,note_off,,,,,128,0,11,,,,,3,,,69,100
2688,note_on,,,,,128,0,10,,,,,2,,,76,90
2688,note_on,,,,,64,0,11,,,,,3,,,73,90
2816,note_off,,,,,128,0,11,,,,,3,,,73,100
2880,note_on,,,,,320,0,16,,,,,7,,,45,100
2880,note_on,,,,,0,0,15,,,,,7,,,64,100
2880,note_on,,,,,64,0,11,,,,,3,,,76,90
2880,note_on,,,,,320,0,14,,,,,6,,,33,90
2880,note_on,,,,,320,0,15,,,,,7,,,61,100
2880,note_on,,,,,320,0,13,,,,,5,,,45,90
2944,note_off,,,,,256,0,10,,,,,2,,,76,100
3008,note_off,,,,,128,0,14,,,,,6,,,33,100
3008,note_off,,,,,128,0,13,,,,,5,,,45,100
3008,note_off,,,,,128,0,11,,,,,3,,,76,100
3008,note_off,,,,,128,0,15,,,,,7,,,61,100
3008,note_off,,,,,128,0,16,,,,,7,,,45,100
3008,note_off,,,,,0,0,15,,,,,7,,,64,100
3072,note_on,,,,,64,0,14,,,,,6,,,37,90
3072,note_on,,,,,0,0,15,,,,,7,,,64,100
3072,note_on,,,,,64,0,13,,,,,5,,,49,90
3072,note_on,,,,,64,0,15,,,,,7,,,69,100
3072,note_on,,,,,512,0,12,,,,,4,,,64,90
3072,note_on,,,,,64,0,16,,,,,7,,,49,100
3072,note_on,,,,,128,0,10,,,,,2,,,76,90
3072,note_on,,,,,64,0,11,,,,,3,,,69,90
3200,note_off,,,,,128,0,14,,,,,6,,,37,100
3200,note_off,,,,,128,0,15,,,,,7,,,69,100
3200,note_off,,,,,128,0,13,,,,,5,,,49,100
3200,note_off,,,,,128,0,16,,,,,7,,,49,100
3200,note_off,,,,,128,0,11,,,,,3,,,69,100
3200,note_off,,,,,0,0,15,,,,,7,,,64,100
3264,note_on,,,,,64,0,15,,,,,7,,,61,100
3264,note_on,,,,,0,0,15,,,,,7,,,64,100
3264,note_on,,,,,64,0,11,,,,,3,,,73,90
3264,note_on,,,,,64,0,16,,,,,7,,,45,100
3264,note_on,,,,,64,0,13,,,,,5,,,45,90
3264,note_on,,,,,64,0,14,,,,,6,,,33,90
3328,note_off,,,,,256,0,10,,,,,2,,,76,100
3328,note_off,,,,,256,0,12,,,,,4,,,64,100
3392,note_off,,,,,128,0,16,,,,,7,,,45,100
3392,note_off,,,,,128,0,13,,,,,5,,,45,100
3392,note_off,,,,,128,0,11,,,,,3,,,73,100
3392,note_off,,,,,128,0,14,,,,,6,,,33,100
3392,note_off,,,,,0,0,15,,,,,7,,,64,100
3392,note_off,,,,,128,0,15,,,,,7,,,61,100
3456,note_on,,,,,128,0,12,,,,,4,,,68,90
3456,note_on,,,,,0,0,15,,,,,7,,,68,100
3456,note_on,,,,,64,0,15,,,,,7,,,71,100
3456,note_on,,,,,128,0,10,,,,,2,,,76,90
3456,note_on,,,,,64,0,13,,,,,5,,,52,90
3456,note_on,,,,,64,0,14,,,,,6,,,40,90
3456,note_on,,,,,64,0,11,,,,,3,,,71,90
3456,note_on,,,,,64,0,16,,,,,7,,,52,100
3584,note_off,,,,,128,0,11,,,,,3,,,71,100
3648,note_on,,,,,64,0,11,,,,,3,,,64,90
3712,note_off,,,,,256,0,10,,,,,2,,,76,100
3712,note_off,,,,,256,0,15,,,,,7,,,71,100
3712,note_off,,,,,0,0,15,,,,,7,,,68,100
3712,note_off,,,,,256,0,14,,,,,6,,,40,100
3712,note_off,,,,,256,0,16,,,,,7,,,52,100
3712,note_off,,,,,256,0,13,,,,,5,,,52,100
3712,note_off,,,,,256,0,12,,,,,4,,,68,100
3776,note_off,,,,,128,0,11,,,,,3,,,64,100
3840,note_on,,,,,64,0,11,,,,,3,,,68,90
3840,note_on,,,,,128,0,10,,,,,2,,,76,90
3968,note_off,,,,,128,0,11,,,,,3,,,68,100
4032,note_on,,,,,64,0,11,,,,,3,,,71,92
4032,note_on,,,,,320,0,15,,,,,7,,,59,100
4032,note_on,,,,,0,0,15,,,,,7,,,68,100
4032,note_on,,,,,320,0,14,,,,,6,,,40,92
4032,note_on,,,,,320,0,12,,,,,4,,,68,92
4032,note_on,,,,,320,0,13,,,,,5,,,52,92
4032,note_on,,,,,320,0,16,,,,,7,,,52,100
4096,note_off,,,,,256,0,10,,,,,2,,,76,100
4160,note_off,,,,,128,0,13,,,,,5,,,52,100
4160,note_off,,,,,128,0,16,,,,,7,,,52,100
4160,note_off,,,,,0,0,15,,,,,7,,,68,100
4160,note_off,,,,,128,0,15,,,,,7,,,59,100
4160,note_off,,,,,128,0,11,,,,,3,,,71,100
4160,note_off,,,,,128,0,14,,,,,6,,,40,100
4160,note_off,,,,,128,0,12,,,,,4,,,68,100
4224,note_on,,,,,64,0,16,,,,,7,,,56,100
4224,note_on,,,,,64,0,13,,,,,5,,,56,94
4224,note_on,,,,,64,0,11,,,,,3,,,76,94
4224,note_on,,,,,64,0,12,,,,,4,,,71,94
4224,note_on,,,,,64,0,14,,,,,6,,,44,94
4224,note_on,,,,,0,0,15,,,,,7,,,71,100
4224,note_on,,,,,64,0,15,,,,,7,,,64,100
4224,note_on,,,,,128,0,10,,,,,2,,,76,94
4352,note_off,,,,,128,0,15,,,,,7,,,64,100
4352,note_off,,,,,128,0,12,,,,,4,,,71,100
4352,note_off,,,,,128,0,16,,,,,7,,,56,100
4352,note_off,,,,,128,0,14,,,,,6,,,44,100
4352,note_off,,,,,128,0,11,,,,,3,,,76,100
4352,note_off,,,,,0,0,15,,,,,7,,,71,100
4352,note_off,,,,,128,0,13,,,,,5,,,56,100
4416,note_on,,,,,64,0,16,,,,,7,,,52,100
4416,note_on,,,,,64,0,15,,,,,7,,,59,100
4416,note_on,,,,,0,0,15,,,,,7,,,68,100
4416,note_on,,,,,64,0,13,,,,,5,,,52,97
4416,note_on,,,,,64,0,11,,,,,3,,,71,97
4416,note_on,,,,,64,0,14,,,,,6,,,40,97
4416,note_on,,,,,64,0,12,,,,,4,,,68,97
4480,note_off,,,,,256,0,10,,,,,2,,,76,100
4544,note_off,,,,,128,0,15,,,,,7,,,59,100
4544,note_off,,,,,0,0,15,,,,,7,,,68,100
4544,note_off,,,,,128,0,14,,,,,6,,,40,100
4544,note_off,,,,,128,0,12,,,,,4,,,68,100
4544,note_off,,,,,128,0,11,,,,,3,,,71,100
4544,note_off,,,,,128,0,16,,,,,7,,,52,100
4544,note_off,,,,,128,0,13,,,,,5,,,52,100
4608,note_on,,,,,64,0,12,,,,,4,,,64,99
4608,note_on,,,,,64,0,14,,,,,6,,,45,99
4608,note_on,,,,,64,0,11,,,,,3,,,73,99
4608,note_on,,,,,64,0,16,,,,,7,,,57,100
4608,note_on,,,,,64,0,13,,,,,5,,,57,99
4608,note_on,,,,,64,0,15,,,,,7,,,64,100
4608,note_on,,,,,0,0,15,,,,,7,,,73,100
4608,note_on,,,,,128,0,10,,,,,2,,,76,99
4736,note_off,,,,,128,0,10,,,,,2,,,76,100
4800,note_on,,,,,64,0,10,,,,,2,,,69,70
4864,note_off,,,,,256,0,11,,,,,3,,,73,100
4864,note_off,,,,,256,0,13,,,,,5,,,57,100
4864,note_off,,,,,256,0,14,,,,,6,,,45,100
4864,note_off,,,,,256,0,15,,,,,7,,,64,100
4864,note_off,,,,,0,0,15,,,,,7,,,73,100
4864,note_off,,,,,256,0,12,,,,,4,,,64,100
4864,note_off,,,,,256,0,16,,,,,7,,,57,100
4928,note_off,,,,,128,0,10,,,,,2,,,69,100
4992,note_on,,,,,64,0,10,,,,,2,,,73,70
4992,note_on,,,,,128,0,11,,,,,3,,,76,70
5120,note_off,,,,,128,0,10,,,,,2,,,73,100
5184,note_on,,,,,0,0,15,,,,,7,,,64,100
5184,note_on,,,,,320,0,15,,,,,7,,,61,100
5184,note_on,,,,,320,0,13,,,,,5,,,45,70
5184,note_on,,,,,320,0,16,,,,,7,,,45,100
5184,note_on,,,,,320,0,14,,,,,6,,,33,70
5184,note_on,,,,,64,0,10,,,,,2,,,76,70
5248,note_off,,,,,256,0,11,,,,,3,,,76,100
5312,note_off,,,,,128,0,15,,,,,7,,,61,100
5312,note_off,,,,,0,0,15,,,,,7,,,64,100
5312,note_off,,,,,128,0,13,,,,,5,,,45,100
5312,note_off,,,,,128,0,10,,,,,2,,,76,100
5312,note_off,,,,,128,0,14,,,,,6,,,33,100
5312,note_off,,,,,128,0,16,,,,,7,,,45,100
5376,note_on,,,,,64,0,14,,,,,6,,,37,70
5376,note_on,,,,,64,0,10,,,,,2,,,69,70
5376,note_on,,,,,512,0,12,,,,,4,,,64,70
5376,note_on,,,,,0,0,15,,,,,7,,,64,100
5376,note_on,,,,,64,0,13,,,,,5,,,49,70
5376,note_on,,,,,128,0,11,,,,,3,,,76,70
5376,note_on,,,,,64,0,15,,,,,7,,,69,100
5376,note_on,,,,,64,0,16,,,,,7,,,49,100
5504,note_off,,,,,0,0,15,,,,,7,,,64,100
5504,note_off,,,,,128,0,15,,,,,7,,,69,100
5504,note_off,,,,,128,0,14,,,,,6,,,37,100
5504,note_off,,,,,128,0,10,,,,,2,,,69,100
5504,note_off,,,,,128,0,16,,,,,7,,,49,100
5504,note_off,,,,,128,0,13,,,,,5,,,49,100
5568,note_on,,,,,0,0,15,,,,,7,,,64,100
5568,note_on,,,,,64,0,10,,,,,2,,,73,70
5568,note_on,,,,,64,0,13,,,,,5,,,45,70
5568,note_on,,,,,64,0,15,,,,,7,,,61,100
5568,note_on,,,,,64,0,14,,,,,6,,,33,70
5568,note_on,,,,,64,0,16,,,,,7,,,45,100
5632,note_off,,,,,256,0,11,,,,,3,,,76,100
5632,note_off,,,,,256,0,12,,,,,4,,,64,100
5696,note_off,,,,,128,0,10,,,,,2,,,73,100
5696,note_off,,,,,0,0,15,,,,,7,,,64,100
5696,note_off,,,,,128,0,16,,,,,7,,,45,100
5696,note_off,,,,,128,0,14,,,,,6,,,33,100
5696,note_off,,,,,128,0,13,,,,,5,,,45,100
5696,note_off,,,,,128,0,15,,,,,7,,,61,100
5760,note_on,,,,,64,0,16,,,,,7,,,52,100
5760,note_on,,,,,64,0,15,,,,,7,,,71,100
5760,note_on,,,,,0,0,15,,,,,7,,,68,100
5760,note_on,,,,,128,0,12,,,,,4,,,68,70
5760,note_on,,,,,64,0,14,,,,,6,,,40,70
5760,note_on,,,,,64,0,13,,,,,5,,,52,70
5760,note_on,,,,,128,0,11,,,,,3,,,76,70
5760,note_on,,,,,64,0,10,,,,,2,,,71,70
5888,note_off,,,,,128,0,10,,,,,2,,,71,100
5952,note_on,,,,,64,0,10,,,,,2,,,64,70
6016,note_off,,,,,256,0,12,,,,,4,,,68,100
6016,note_off,,,,,256,0,14,,,,,6,,,40,100
6016,note_off,,,,,256,0,16,,,,,7,,,52,100
6016,note_off,,,,,256,0,15,,,,,7,,,71,100
6016,note_off,,,,,256,0,11,,,,,3,,,76,100
6016,note_off,,,,,256,0,13,,,,,5,,,52,100
6016,note_off,,,,,0,0,15,,,,,7,,,68,100
6080,note_off,,,,,128,0,10,,,,,2,,,64,100
6144,note_on,,,,,64,0,10,,,,,2,,,68,70
6144,note_on,,,,,128,0,11,,,,,3,,,76,70
6272,note_off,,,,,128,0,10,,,,,2,,,68,100
6336,note_on,,,,,64,0,10,,,,,2,,,71,70
6336,note_on,,,,,0,0,15,,,,,7,,,68,100
6336,note_on,,,,,320,0,15,,,,,7,,,59,100
6336,note_on,,,,,320,0,13,,,,,5,,,52,70
6336,note_on,,,,,320,0,12,,,,,4,,,68,70
6336,note_on,,,,,320,0,14,,,,,6,,,40,70
6336,note_on,,,,,320,0,16,,,,,7,,,52,100
6400,note_off,,,,,256,0,11,,,,,3,,,76,100
6464,note_off,,,,,128,0,16,,,,,7,,,52,100
6464,note_off,,,,,128,0,14,,,,,6,,,40,100
6464,note_off,,,,,128,0,13,,,,,5,,,52,100
6464,note_off,,,,,128,0,10,,,,,2,,,71,100
6464,note_off,,,,,128,0,15,,,,,7,,,59,100
6464,note_off,,,,,128,0,12,,,,,4,,,68,100
6464,note_off,,,,,0,0,15,,,,,7,,,68,100
6528,note_on,,,,,64,0,12,,,,,4,,,71,70
6528,note_on,,,,,64,0,13,,,,,5,,,56,70
6528,note_on,,,,,64,0,10,,,,,2,,,76,70
6528,note_on,,,,,64,0,14,,,,,6,,,44,70
6528,note_on,,,,,128,0,11,,,,,3,,,76,70
6528,note_on,,,,,0,0,15,,,,,7,,,71,100
6528,note_on,,,,,64,0,16,,,,,7,,,56,100
6528,note_on,,,,,64,0,15,,,,,7,,,64,100
6656,note_off,,,,,128,0,15,,,,,7,,,64,100
6656,note_off,,,,,128,0,13,,,,,5,,,56,100
6656,note_off,,,,,128,0,10,,,,,2,,,76,100
6656,note_off,,,,,128,0,16,,,,,7,,,56,100
6656,note_off,,,,,128,0,12,,,,,4,,,71,100
6656,note_off,,,,,0,0,15,,,,,7,,,71,100
6656,note_off,,,,,128,0,14,,,,,6,,,44,100
6720,note_on,,,,,64,0,10,,,,,2,,,71,70
6720,note_on,,,,,0,0,15,,,,,7,,,68,100
6720,note_on,,,,,64,0,12,,,,,4,,,68,70
6720,note_on,,,,,64,0,16,,,,,7,,,52,100
6720,note_on,,,,,64,0,15,,,,,7,,,59,100
6720,note_on,,,,,64,0,14,,,,,6,,,40,70
6720,note_on,,,,,64,0,13,,,,,5,,,52,70
6784,note_off,,,,,256,0,11,,,,,3,,,76,100
6848,note_off,,,,,128,0,10,,,,,2,,,71,100
6848,note_off,,,,,128,0,14,,,,,6,,,40,100
6848,note_off,,,,,128,0,13,,,,,5,,,52,100
6848,note_off,,,,,128,0,12,,,,,4,,,68,100
6848,note_off,,,,,0,0,15,,,,,7,,,68,100
6848,note_off,,,,,128,0,16,,,,,7,,,52,100
6848,note_off,,,,,128,0,15,,,,,7,,,59,100
6912,note_on,,,,,64,0,12,,,,,4,,,64,70
6912,note_on,,,,,64,0,14,,,,,6,,,45,70
6912,note_on,,,,,64,0,13,,,,,5,,,57,70
6912,note_on,,,,,128,0,11,,,,,3,,,76,70
6912,set_tempo,,,,,6912,1,0,,500000,,,,,,,
6912,note_on,,,,,64,0,16,,,,,7,,,57,100
6912,note_on,,,,,64,0,15,,,,,7,,,64,100
6912,note_on,,,,,0,0,15,,,,,7,,,73,100
6912,note_on,,,,,64,0,10,,,,,2,,,73,70
7040,note_off,,,,,128,0,11,,,,,3,,,76,100
7104,note_on,,,,,64,0,11,,,,,3,,,69,60
7168,note_off,,,,,256,0,16,,,,,7,,,57,100
7168,note_off,,,,,256,0,14,,,,,6,,,45,100
7168,note_off,,,,,256,0,15,,,,,7,,,64,100
7168,note_off,,,,,0,0,15,,,,,7,,,73,100
7168,note_off,,,,,256,0,13,,,,,5,,,57,100
7168,note_off,,,,,256,0,10,,,,,2,,,73,100
7168,note_off,,,,,256,0,12,,,,,4,,,64,100
7232,note_off,,,,,128,0,11,,,,,3,,,69,100
7296,note_on,,,,,128,0,10,,,,,2,,,76,60
7296,note_on,,,,,64,0,11,,,,,3,,,73,60
7424,note_off,,,,,128,0,11,,,,,3,,,73,100
7488,note_on,,,,,64,0,11,,,,,3,,,76,60
7488,note_on,,,,,320,0,16,,,,,7,,,45,100
7488,note_on,,,,,320,0,13,,,,,5,,,45,60
7488,note_on,,,,,320,0,14,,,,,6,,,33,60
7488,note_on,,,,,0,0,15,,,,,7,,,64,100
7488,note_on,,,,,320,0,15,,,,,7,,,61,100
7552,note_off,,,,,256,0,10,,,,,2,,,76,100
7616,note_off,,,,,128,0,11,,,,,3,,,76,100
7616,note_off,,,,,128,0,15,,,,,7,,,61,100
7616,note_off,,,,,0,0,15,,,,,7,,,64,100
7616,note_off,,,,,128,0,13,,,,,5,,,45,100
7616,note_off,,,,,128,0,16,,,,,7,,,45,100
7616,note_off,,,,,128,0,14,,,,,6,,,33,100
7680,note_on,,,,,64,0,16,,,,,7,,,49,100
7680,note_on,,,,,64,0,13,,,,,5,,,49,60
7680,note_on,,,,,512,0,12,,,,,4,,,64,60
7680,note_on,,,,,128,0,10,,,,,2,,,76,60
7680,note_on,,,,,64,0,11,,,,,3,,,69,60
7680,note_on,,,,,0,0,15,,,,,7,,,64,100
7680,note_on,,,,,64,0,14,,,,,6,,,37,60
7680,note_on,,,,,64,0,15,,,,,7,,,69,100
7808,note_off,,,,,128,0,14,,,,,6,,,37,100
7808,note_off,,,,,128,0,16,,,,,7,,,49,100
7808,note_off,,,,,128,0,15,,,,,7,,,69,100
7808,note_off,,,,,0,0,15,,,,,7,,,64,100
7808,note_off,,,,,128,0,13,,,,,5,,,49,100
7808,note_off,,,,,128,0,11,,,,,3,,,69,100
7872,note_on,,,,,64,0,15,,,,,7,,,61,100
7872,note_on,,,,,64,0,13,,,,,5,,,45,60
7872,note_on,,,,,0,0,15,,,,,7,,,64,100
7872,note_on,,,,,64,0,11,,,,,3,,,73,60
7872,note_on,,,,,64,0,14,,,,,6,,,33,60
7872,note_on,,,,,64,0,16,,,,,7,,,45,100
7936,note_off,,,,,256,0,12,,,,,4,,,64,100
7936,note_off,,,,,256,0,10,,,,,2,,,76,100
8000,note_off,,,,,128,0,14,,,,,6,,,33,100
8000,note_off,,,,,128,0,16,,,,,7,,,45,100
8000,note_off,,,,,128,0,11,,,,,3,,,73,100
8000,note_off,,,,,128,0,13,,,,,5,,,45,100
8000,note_off,,,,,0,0,15,,,,,7,,,64,100
8000,note_off,,,,,128,0,15,,,,,7,,,61,100
8064,note_on,,,,,64,0,15,,,,,7,,,71,100
8064,note_on,,,,,64,0,14,,,,,6,,,40,60
8064,note_on,,,,,0,0,15,,,,,7,,,68,100
8064,note_on,,,,,128,0,12,,,,,4,,,68,60
8064,note_on,,,,,64,0,16,,,,,7,,,52,100
8064,note_on,,,,,128,0,10,,,,,2,,,76,60
8064,note_on,,,,,64,0,11,,,,,3,,,71,60
8064,note_on,,,,,64,0,13,,,,,5,,,52,60
8192,note_off,,,,,128,0,11,,,,,3,,,71,100
8256,note_on,,,,,64,0,11,,,,,3,,,64,60
8320,note_off,,,,,256,0,15,,,,,7,,,71,100
8320,note_off,,,,,256,0,13,,,,,5,,,52,100
8320,note_off,,,,,0,0,15,,,,,7,,,68,100
8320,note_off,,,,,256,0,10,,,,,2,,,76,100
8320,note_off,,,,,256,0,12,,,,,4,,,68,100
8320,note_off,,,,,256,0,16,,,,,7,,,52,100
8320,note_off,,,,,256,0,14,,,,,6,,,40,100
8384,note_off,,,,,128,0,11,,,,,3,,,64,100
8448,note_on,,,,,64,0,11,,,,,3,,,68,60
8448,note_on,,,,,128,0,10,,,,,2,,,76,60
8576,note_off,,,,,128,0,11,,,,,3,,,68,100
8640,note_on,,,,,320,0,12,,,,,4,,,68,62
8640,note_on,,,,,0,0,15,,,,,7,,,68,100
8640,note_on,,,,,320,0,15,,,,,7,,,59,100
8640,note_on,,,,,320,0,14,,,,,6,,,40,62
8640,note_on,,,,,320,0,16,,,,,7,,,52,100
8640,note_on,,,,,64,0,11,,,,,3,,,71,62
8640,note_on,,,,,320,0,13,,,,,5,,,52,62
8704,note_off,,,,,256,0,10,,,,,2,,,76,100
8768,note_off,,,,,128,0,11,,,,,3,,,71,100
8768,note_off,,,,,128,0,16,,,,,7,,,52,100
8768,note_off,,,,,128,0,12,,,,,4,,,68,100
8768,note_off,,,,,128,0,15,,,,,7,,,59,100
8768,note_off,,,,,128,0,13,,,,,5,,,52,100
8768,note_off,,,,,128,0,14,,,,,6,,,40,100
8768,note_off,,,,,0,0,15,,,,,7,,,68,100
8832,note_on,,,,,64,0,13,,,,,5,,,56,64
8832,note_on,,,,,128,0,10,,,,,2,,,76,64
8832,note_on,,,,,64,0,16,,,,,7,,,56,100
8832,note_on,,,,,64,0,11,,,,,3,,,76,64
8832,note_on,,,,,64,0,15,,,,,7,,,64,100
8832,note_on,,,,,0,0,15,,,,,7,,,71,100
8832,note_on,,,,,64,0,12,,,,,4,,,71,64
8832,note_on,,,,,64,0,14,,,,,6,,,44,64
8960,note_off,,,,,128,0,14,,,,,6,,,44,100
8960,note_off,,,,,128,0,12,,,,,4,,,71,100
8960,note_off,,,,,128,0,13,,,,,5,,,56,100
8960,note_off,,,,,0,0,15,,,,,7,,,71,100
8960,note_off,,,,,128,0,11,,,,,3,,,76,100
8960,note_off,,,,,128,0,16,,,,,7,,,56,100
8960,note_off,,,,,128,0,15,,,,,7,,,64,100
9024,note_on,,,,,64,0,12,,,,,4,,,68,67
9024,note_on,,,,,64,0,14,,,,,6,,,40,67
9024,note_on,,,,,64,0,16,,,,,7,,,52,100
9024,note_on,,,,,0,0,15,,,,,7,,,68,100
9024,note_on,,,,,64,0,15,,,,,7,,,59,100
9024,note_on,,,,,64,0,11,,,,,3,,,71,67
9024,note_on,,,,,64,0,13,,,,,5,,,52,67
9088,note_off,,,,,256,0,10,,,,,2,,,76,100
9152,note_off,,,,,128,0,15,,,,,7,,,59,100
9152,note_off,,,,,128,0,13,,,,,5,,,52,100
9152,note_off,,,,,128,0,12,,,,,4,,,68,100
9152,note_off,,,,,128,0,14,,,,,6,,,40,100
9152,note_off,,,,,128,0,11,,,,,3,,,71,100
9152,note_off,,,,,128,0,16,,,,,7,,,52,100
9152,note_off,,,,,0,0,15,,,,,7,,,68,100
9216,note_on,,,,,64,0,16,,,,,7,,,57,100
9216,note_on,,,,,64,0,13,,,,,5,,,57,69
9216,note_on,,,,,64,0,14,,,,,6,,,45,69
9216,note_on,,,,,128,0,10,,,,,2,,,76,69
9216,note_on,,,,,9216,0,8,,,,,0,,,76,100
9216,note_on,,,,,64,0,11,,,,,3,,,73,69
9216,note_on,,,,,0,0,15,,,,,7,,,73,100
9216,note_on,,,,,64,0,12,,,,,4,,,64,69
9216,note_on,,,,,64,0,15,,,,,7,,,64,100
9280,note_off,,,,,64,0,8,,,,,0,,,76,100
9312,note_on,,,,,32,0,8,,,,,0,,,78,100
9376,note_off,,,,,64,0,8,,,,,0,,,78,100
9408,note_on,,,,,32,0,8,,,,,0,,,76,100
9472,note_off,,,,,256,0,14,,,,,6,,,45,100
9472,note_off,,,,,256,0,15,,,,,7,,,64,100
9472,note_off,,,,,64,0,8,,,,,0,,,76,100
9472,note_off,,,,,256,0,12,,,,,4,,,64,100
9472,note_off,,,,,0,0,15,,,,,7,,,73,100
9472,note_off,,,,,256,0,16,,,,,7,,,57,100
9472,note_off,,,,,256,0,13,,,,,5,,,57,100
9472,note_off,,,,,256,0,10,,,,,2,,,76,100
9472,note_off,,,,,256,0,11,,,,,3,,,73,100
9504,note_on,,,,,32,0,8,,,,,0,,,78,100
9568,note_off,,,,,64,0,8,,,,,0,,,78,100
9600,note_on,,,,,32,0,8,,,,,0,,,76,99
9664,note_off,,,,,64,0,8,,,,,0,,,76,100
9696,note_on,,,,,32,0,8,,,,,0,,,78,99
9760,note_off,,,,,64,0,8,,,,,0,,,78,100
9792,note_on,,,,,32,0,8,,,,,0,,,76,99
9856,note_off,,,,,64,0,8,,,,,0,,,76,100
9888,note_on,,,,,32,0,8,,,,,0,,,78,98
9952,note_off,,,,,64,0,8,,,,,0,,,78,100
9984,note_on,,,,,32,0,8,,,,,0,,,76,98
10048,note_off,,,,,64,0,8,,,,,0,,,76,100
10080,note_on,,,,,32,0,8,,,,,0,,,78,98
10144,note_off,,,,,64,0,8,,,,,0,,,78,100
10176,note_on,,,,,32,0,8,,,,,0,,,76,97
10240,note_off,,,,,64,0,8,,,,,0,,,76,100
10272,note_on,,,,,32,0,8,,,,,0,,,78,97
10336,note_off,,,,,64,0,8,,,,,0,,,78,100
10368,note_on,,,,,32,0,8,,,,,0,,,74,97
10432,note_off,,,,,64,0,8,,,,,0,,,74,100
10464,note_on,,,,,32,0,8,,,,,0,,,76,96
10528,note_off,,,,,64,0,8,,,,,0,,,76,100
10560,note_on,,,,,32,0,8,,,,,0,,,74,96
10624,note_off,,,,,64,0,8,,,,,0,,,74,100
10656,note_on,,,,,32,0,8,,,,,0,,,76,96
10720,note_off,,,,,64,0,8,,,,,0,,,76,100
10752,note_on,,,,,32,0,8,,,,,0,,,74,96
10816,note_off,,,,,64,0,8,,,,,0,,,74,100
10848,note_on,,,,,32,0,8,,,,,0,,,76,95
10912,note_off,,,,,64,0,8,,,,,0,,,76,100
10944,note_on,,,,,32,0,8,,,,,0,,,74,95
11008,note_off,,,,,64,0,8,,,,,0,,,74,100
11040,note_on,,,,,32,0,8,,,,,0,,,76,95
11104,note_off,,,,,64,0,8,,,,,0,,,76,100
11136,note_on,,,,,32,0,8,,,,,0,,,74,94
11200,note_off,,,,,64,0,8,,,,,0,,,74,100
11232,note_on,,,,,32,0,8,,,,,0,,,76,94
11296,note_off,,,,,64,0,8,,,,,0,,,76,100
11328,note_on,,,,,32,0,8,,,,,0,,,74,94
11392,note_off,,,,,64,0,8,,,,,0,,,74,100
11424,note_on,,,,,32,0,8,,,,,0,,,76,93
11488,note_off,,,,,64,0,8,,,,,0,,,76,100
11520,note_on,,,,,32,0,8,,,,,0,,,73,93
11520,note_on,,,,,11520,0,9,,,,,1,,,76,100
11584,note_off,,,,,64,0,9,,,,,1,,,76,100
11584,note_off,,,,,64,0,8,,,,,0,,,73,100
11616,note_on,,,,,32,0,9,,,,,1,,,78,100
11616,note_on,,,,,32,0,8,,,,,0,,,74,93
11680,note_off,,,,,64,0,9,,,,,1,,,78,100
11680,note_off,,,,,64,0,8,,,,,0,,,74,100
11712,note_on,,,,,32,0,9,,,,,1,,,76,99
11712,note_on,,,,,32,0,8,,,,,0,,,73,92
11776,note_off,,,,,64,0,8,,,,,0,,,73,100
11776,note_off,,,,,64,0,9,,,,,1,,,76,100
11808,note_on,,,,,32,0,8,,,,,0,,,74,92
11808,note_on,,,,,32,0,9,,,,,1,,,78,99
11872,note_off,,,,,64,0,8,,,,,0,,,74,100
11872,note_off,,,,,64,0,9,,,,,1,,,78,100
11904,note_on,,,,,32,0,8,,,,,0,,,73,92
11904,note_on,,,,,32,0,9,,,,,1,,,76,98
11968,note_off,,,,,64,0,8,,,,,0,,,73,100
11968,note_off,,,,,64,0,9,,,,,1,,,76,100
12000,note_on,,,,,32,0,9,,,,,1,,,78,97
12000,note_on,,,,,32,0,8,,,,,0,,,74,91
12064,note_off,,,,,64,0,8,,,,,0,,,74,100
12064,note_off,,,,,64,0,9,,,,,1,,,78,100
12096,note_on,,,,,32,0,8,,,,,0,,,73,91
12096,note_on,,,,,32,0,9,,,,,1,,,76,97
12160,note_off,,,,,64,0,9,,,,,1,,,76,100
12160,note_off,,,,,64,0,8,,,,,0,,,73,100
12192,note_on,,,,,32,0,9,,,,,1,,,78,96
12192,note_on,,,,,32,0,8,,,,,0,,,74,91
12256,note_off,,,,,64,0,9,,,,,1,,,78,100
12256,note_off,,,,,64,0,8,,,,,0,,,74,100
12288,note_on,,,,,32,0,9,,,,,1,,,76,96
12288,note_on,,,,,32,0,8,,,,,0,,,73,91
12352,note_off,,,,,64,0,8,,,,,0,,,73,100
12352,note_off,,,,,64,0,9,,,,,1,,,76,100
12384,note_on,,,,,32,0,9,,,,,1,,,78,95
12384,note_on,,,,,32,0,8,,,,,0,,,74,90
12448,note_off,,,,,64,0,8,,,,,0,,,74,100
12448,note_off,,,,,64,0,9,,,,,1,,,78,100
12480,note_on,,,,,32,0,9,,,,,1,,,76,94
12480,note_on,,,,,32,0,8,,,,,0,,,73,90
12544,note_off,,,,,64,0,8,,,,,0,,,73,100
12544,note_off,,,,,64,0,9,,,,,1,,,76,100
12576,note_on,,,,,32,0,9,,,,,1,,,78,94
12576,note_on,,,,,32,0,8,,,,,0,,,74,90
12640,note_off,,,,,64,0,9,,,,,1,,,78,100
12640,note_off,,,,,64,0,8,,,,,0,,,74,100
12672,note_on,,,,,32,0,8,,,,,0,,,71,89
12672,note_on,,,,,32,0,9,,,,,1,,,74,93
12736,note_off,,,,,64,0,8,,,,,0,,,71,100
12736,note_off,,,,,64,0,9,,,,,1,,,74,100
12768,note_on,,,,,32,0,9,,,,,1,,,76,92
12768,note_on,,,,,32,0,8,,,,,0,,,73,89
12832,note_off,,,,,64,0,8,,,,,0,,,73,100
12832,note_off,,,,,64,0,9,,,,,1,,,76,100
12864,note_on,,,,,32,0,8,,,,,0,,,71,89
12864,note_on,,,,,32,0,9,,,,,1,,,74,92
12928,note_off,,,,,64,0,8,,,,,0,,,71,100
12928,note_off,,,,,64,0,9,,,,,1,,,74,100
12960,note_on,,,,,32,0,8,,,,,0,,,73,88
12960,note_on,,,,,32,0,9,,,,,1,,,76,91
13024,note_off,,,,,64,0,8,,,,,0,,,73,100
13024,note_off,,,,,64,0,9,,,,,1,,,76,100
13056,note_on,,,,,32,0,8,,,,,0,,,71,88
13056,note_on,,,,,32,0,9,,,,,1,,,74,91
13120,note_off,,,,,64,0,8,,,,,0,,,71,100
13120,note_off,,,,,64,0,9,,,,,1,,,74,100
13152,note_on,,,,,32,0,9,,,,,1,,,76,90
13152,note_on,,,,,32,0,8,,,,,0,,,73,88
13216,note_off,,,,,64,0,8,,,,,0,,,73,100
13216,note_off,,,,,64,0,9,,,,,1,,,76,100
13248,note_on,,,,,32,0,9,,,,,1,,,74,89
13248,note_on,,,,,32,0,8,,,,,0,,,71,87
13312,note_off,,,,,64,0,8,,,,,0,,,71,100
13312,note_off,,,,,64,0,9,,,,,1,,,74,100
13344,note_on,,,,,32,0,9,,,,,1,,,76,89
13344,note_on,,,,,32,0,8,,,,,0,,,73,87
13408,note_off,,,,,64,0,9,,,,,1,,,76,100
13408,note_off,,,,,64,0,8,,,,,0,,,73,100
13440,note_on,,,,,32,0,9,,,,,1,,,74,88
13440,note_on,,,,,32,0,8,,,,,0,,,71,87
13504,note_off,,,,,64,0,9,,,,,1,,,74,100
13504,note_off,,,,,64,0,8,,,,,0,,,71,100
13536,note_on,,,,,32,0,9,,,,,1,,,76,87
13536,note_on,,,,,32,0,8,,,,,0,,,73,86
13600,note_off,,,,,64,0,9,,,,,1,,,76,100
13600,note_off,,,,,64,0,8,,,,,0,,,73,100
13632,note_on,,,,,32,0,9,,,,,1,,,74,87
13632,note_on,,,,,32,0,8,,,,,0,,,71,86
13696,note_off,,,,,64,0,8,,,,,0,,,71,100
13696,note_off,,,,,64,0,9,,,,,1,,,74,100
13728,note_on,,,,,32,0,9,,,,,1,,,76,86
13728,note_on,,,,,32,0,8,,,,,0,,,73,86
13792,note_off,,,,,64,0,8,,,,,0,,,73,100
13792,note_off,,,,,64,0,9,,,,,1,,,76,100
13824,note_on,,,,,4352,0,12,,,,,4,,,64,90
13824,note_on,,,,,4352,0,14,,,,,6,,,33,90
13824,note_on,,,,,32,0,9,,,,,1,,,73,86
13824,note_on,,,,,4352,0,13,,,,,5,,,45,90
13824,note_on,,,,,4352,0,16,,,,,7,,,45,100
13824,note_on,,,,,4352,0,15,,,,,7,,,61,100
13824,note_on,,,,,0,0,15,,,,,7,,,64,100
13824,note_on,,,,,32,0,8,,,,,0,,,69,86
14016,note_on,,,,,4544,0,10,,,,,2,,,69,100
14080,note_off,,,,,256,0,8,,,,,0,,,69,100
14080,note_off,,,,,256,0,16,,,,,7,,,45,100
14080,note_off,,,,,256,0,15,,,,,7,,,61,100
14080,note_off,,,,,256,0,9,,,,,1,,,73,100
14080,note_off,,,,,0,0,15,,,,,7,,,64,100
14080,note_off,,,,,256,0,14,,,,,6,,,33,100
14080,note_off,,,,,256,0,13,,,,,5,,,45,100
14080,note_off,,,,,256,0,12,,,,,4,,,64,100
14144,note_off,,,,,128,0,10,,,,,2,,,69,100
14208,note_on,,,,,4736,0,11,,,,,3,,,76,100
14208,note_on,,,,,64,0,10,,,,,2,,,73,100
14336,note_off,,,,,128,0,10,,,,,2,,,73,100
14400,note_on,,,,,320,0,13,,,,,5,,,45,85
14400,note_on,,,,,320,0,14,,,,,6,,,33,85
14400,note_on,,,,,320,0,16,,,,,7,,,45,100
14400,note_on,,,,,64,0,10,,,,,2,,,76,100
14400,note_on,,,,,0,0,15,,,,,7,,,64,100
14400,note_on,,,,,320,0,15,,,,,7,,,61,100
14464,note_off,,,,,256,0,11,,,,,3,,,76,100
14528,note_off,,,,,128,0,16,,,,,7,,,45,100
14528,note_off,,,,,128,0,10,,,,,2,,,76,100
14528,note_off,,,,,128,0,13,,,,,5,,,45,100
14528,note_off,,,,,0,0,15,,,,,7,,,64,100
14528,note_off,,,,,128,0,14,,,,,6,,,33,100
14528,note_off,,,,,128,0,15,,,,,7,,,61,100
14592,note_on,,,,,64,0,10,,,,,2,,,69,100
14592,note_on,,,,,64,0,15,,,,,7,,,69,100
14592,note_on,,,,,0,0,15,,,,,7,,,64,100
14592,note_on,,,,,64,0,13,,,,,5,,,49,85
14592,note_on,,,,,512,0,12,,,,,4,,,64,85
14592,note_on,,,,,64,0,14,,,,,6,,,37,85
14592,note_on,,,,,128,0,11,,,,,3,,,76,100
14592,note_on,,,,,64,0,16,,,,,7,,,49,100
14720,note_off,,,,,128,0,15,,,,,7,,,69,100
14720,note_off,,,,,128,0,14,,,,,6,,,37,100
14720,note_off,,,,,128,0,13,,,,,5,,,49,100
14720,note_off,,,,,0,0,15,,,,,7,,,64,100
14720,note_off,,,,,128,0,10,,,,,2,,,69,100
14720,note_off,,,,,128,0,16,,,,,7,,,49,100
14784,note_on,,,,,0,0,15,,,,,7,,,64,100
14784,note_on,,,,,64,0,16,,,,,7,,,45,100
14784,note_on,,,,,64,0,15,,,,,7,,,61,100
14784,note_on,,,,,64,0,13,,,,,5,,,45,85
14784,note_on,,,,,64,0,10,,,,,2,,,73,100
14784,note_on,,,,,64,0,14,,,,,6,,,33,85
14848,note_off,,,,,256,0,12,,,,,4,,,64,100
14848,note_off,,,,,256,0,11,,,,,3,,,76,100
14912,note_off,,,,,0,0,15,,,,,7,,,64,100
14912,note_off,,,,,128,0,10,,,,,2,,,73,100
14912,note_off,,,,,128,0,15,,,,,7,,,61,100
14912,note_off,,,,,128,0,13,,,,,5,,,45,100
14912,note_off,,,,,128,0,14,,,,,6,,,33,100
14912,note_off,,,,,128,0,16,,,,,7,,,45,100
14976,note_on,,,,,64,0,10,,,,,2,,,71,100
14976,note_on,,,,,64,0,16,,,,,7,,,52,100
14976,note_on,,,,,0,0,15,,,,,7,,,71,100
14976,note_on,,,,,128,0,11,,,,,3,,,76,100
14976,note_on,,,,,64,0,13,,,,,5,,,52,85
14976,note_on,,,,,128,0,12,,,,,4,,,68,85
14976,note_on,,,,,64,0,14,,,,,6,,,40,85
14976,note_on,,,,,64,0,15,,,,,7,,,68,100
15104,note_off,,,,,128,0,10,,,,,2,,,71,100
15168,note_on,,,,,64,0,10,,,,,2,,,64,100
15232,note_off,,,,,256,0,12,,,,,4,,,68,100
15232,note_off,,,,,256,0,16,,,,,7,,,52,100
15232,note_off,,,,,256,0,15,,,,,7,,,68,100
15232,note_off,,,,,256,0,13,,,,,5,,,52,100
15232,note_off,,,,,0,0,15,,,,,7,,,71,100
15232,note_off,,,,,256,0,11,,,,,3,,,76,100
15232,note_off,,,,,256,0,14,,,,,6,,,40,100
15296,note_off,,,,,128,0,10,,,,,2,,,64,100
15360,note_on,,,,,128,0,11,,,,,3,,,76,100
15360,note_on,,,,,64,0,10,,,,,2,,,68,100
15488,note_off,,,,,128,0,10,,,,,2,,,68,100
15552,note_on,,,,,320,0,14,,,,,6,,,40,85
15552,note_on,,,,,320,0,15,,,,,7,,,59,100
15552,note_on,,,,,0,0,15,,,,,7,,,68,100
15552,note_on,,,,,320,0,13,,,,,5,,,52,85
15552,note_on,,,,,320,0,12,,,,,4,,,68,85
15552,note_on,,,,,64,0,10,,,,,2,,,71,100
15552,note_on,,,,,320,0,16,,,,,7,,,52,100
15616,note_off,,,,,256,0,11,,,,,3,,,76,100
15680,note_off,,,,,128,0,13,,,,,5,,,52,100
15680,note_off,,,,,128,0,16,,,,,7,,,52,100
15680,note_off,,,,,128,0,14,,,,,6,,,40,100
15680,note_off,,,,,128,0,12,,,,,4,,,68,100
15680,note_off,,,,,128,0,10,,,,,2,,,71,100
15680,note_off,,,,,128,0,15,,,,,7,,,59,100
15680,note_off,,,,,0,0,15,,,,,7,,,68,100
15744,note_on,,,,,64,0,13,,,,,5,,,56,85
15744,note_on,,,,,64,0,16,,,,,7,,,56,100
15744,note_on,,,,,64,0,12,,,,,4,,,71,85
15744,note_on,,,,,0,0,15,,,,,7,,,71,100
15744,note_on,,,,,64,0,14,,,,,6,,,44,85
15744,note_on,,,,,128,0,11,,,,,3,,,76,100
15744,note_on,,,,,64,0,10,,,,,2,,,76,100
15744,note_on,,,,,64,0,15,,,,,7,,,64,100
15872,note_off,,,,,128,0,12,,,,,4,,,71,100
15872,note_off,,,,,128,0,15,,,,,7,,,64,100
15872,note_off,,,,,0,0,15,,,,,7,,,71,100
15872,note_off,,,,,128,0,10,,,,,2,,,76,100
15872,note_off,,,,,128,0,13,,,,,5,,,56,100
15872,note_off,,,,,128,0,14,,,,,6,,,44,100
15872,note_off,,,,,128,0,16,,,,,7,,,56,100
15936,note_on,,,,,64,0,16,,,,,7,,,52,100
15936,note_on,,,,,64,0,12,,,,,4,,,68,85
15936,note_on,,,,,64,0,10,,,,,2,,,71,100
15936,note_on,,,,,0,0,15,,,,,7,,,68,100
15936,note_on,,,,,64,0,15,,,,,7,,,59,100
15936,note_on,,,,,64,0,13,,,,,5,,,52,85
15936,note_on,,,,,64,0,14,,,,,6,,,40,85
16000,note_off,,,,,256,0,11,,,,,3,,,76,100
16064,note_off,,,,,128,0,16,,,,,7,,,52,100
16064,note_off,,,,,0,0,15,,,,,7,,,68,100
16064,note_off,,,,,128,0,15,,,,,7,,,59,100
16064,note_off,,,,,128,0,14,,,,,6,,,40,100
16064,note_off,,,,,128,0,13,,,,,5,,,52,100
16064,note_off,,,,,128,0,12,,,,,4,,,68,100
16064,note_off,,,,,128,0,10,,,,,2,,,71,100
16128,note_on,,,,,64,0,16,,,,,7,,,57,100
16128,note_on,,,,,64,0,13,,,,,5,,,57,85
16128,note_on,,,,,128,0,11,,,,,3,,,76,100
16128,note_on,,,,,64,0,12,,,,,4,,,64,85
16128,note_on,,,,,64,0,14,,,,,6,,,45,85
16128,note_on,,,,,0,0,15,,,,,7,,,73,100
16128,note_on,,,,,64,0,10,,,,,2,,,73,100
16128,note_on,,,,,64,0,15,,,,,7,,,64,100
16256,note_off,,,,,128,0,11,,,,,3,,,76,100
16320,note_on,,,,,64,0,11,,,,,3,,,69,90
16384,note_off,,,,,256,0,16,,,,,7,,,57,100
16384,note_off,,,,,256,0,14,,,,,6,,,45,100
16384,note_off,,,,,256,0,10,,,,,2,,,73,100
16384,note_off,,,,,256,0,12,,,,,4,,,64,100
16384,note_off,,,,,0,0,15,,,,,7,,,73,100
16384,note_off,,,,,256,0,15,,,,,7,,,64,100
16384,note_off,,,,,256,0,13,,,,,5,,,57,100
16448,note_off,,,,,128,0,11,,,,,3,,,69,100
16512,note_on,,,,,64,0,11,,,,,3,,,73,90
16512,note_on,,,,,128,0,10,,,,,2,,,76,90
16640,note_off,,,,,128,0,11,,,,,3,,,73,100
16704,note_on,,,,,64,0,11,,,,,3,,,76,90
16704,note_on,,,,,320,0,16,,,,,7,,,45,100
16704,note_on,,,,,320,0,15,,,,,7,,,61,100
16704,note_on,,,,,320,0,13,,,,,5,,,45,90
16704,note_on,,,,,320,0,14,,,,,6,,,33,90
16704,note_on,,,,,0,0,15,,,,,7,,,64,100
16768,note_off,,,,,256,0,10,,,,,2,,,76,100
16832,note_off,,,,,128,0,14,,,,,6,,,33,100
16832,note_off,,,,,128,0,11,,,,,3,,,76,100
16832,note_off,,,,,128,0,16,,,,,7,,,45,100
16832,note_off,,,,,128,0,13,,,,,5,,,45,100
16832,note_off,,,,,0,0,15,,,,,7,,,64,100
16832,note_off,,,,,128,0,15,,,,,7,,,61,100
16896,note_on,,,,,64,0,11,,,,,3,,,69,90
16896,note_on,,,,,64,0,15,,,,,7,,,69,100
16896,note_on,,,,,64,0,13,,,,,5,,,49,90
16896,note_on,,,,,0,0,15,,,,,7,,,64,100
16896,note_on,,,,,64,0,16,,,,,7,,,49,100
16896,note_on,,,,,64,0,14,,,,,6,,,37,90
16896,note_on,,,,,512,0,12,,,,,4,,,64,90
16896,note_on,,,,,128,0,10,,,,,2,,,76,90
17024,note_off,,,,,128,0,15,,,,,7,,,69,100
17024,note_off,,,,,0,0,15,,,,,7,,,64,100
17024,note_off,,,,,128,0,13,,,,,5,,,49,100
17024,note_off,,,,,128,0,16,,,,,7,,,49,100
17024,note_off,,,,,128,0,14,,,,,6,,,37,100
17024,note_off,,,,,128,0,11,,,,,3,,,69,100
17088,note_on,,,,,64,0,11,,,,,3,,,73,90
17088,note_on,,,,,0,0,15,,,,,7,,,64,100
17088,note_on,,,,,64,0,15,,,,,7,,,61,100
17088,note_on,,,,,64,0,16,,,,,7,,,45,100
17088,note_on,,,,,64,0,13,,,,,5,,,45,90
17088,note_on,,,,,64,0,14,,,,,6,,,33,90
17152,note_off,,,,,256,0,12,,,,,4,,,64,100
17152,note_off,,,,,256,0,10,,,,,2,,,76,100
17216,note_off,,,,,128,0,11,,,,,3,,,73,100
17216,note_off,,,,,0,0,15,,,,,7,,,64,100
17216,note_off,,,,,128,0,15,,,,,7,,,61,100
17216,note_off,,,,,128,0,13,,,,,5,,,45,100
17216,note_off,,,,,128,0,14,,,,,6,,,33,100
17216,note_off,,,,,128,0,16,,,,,7,,,45,100
17280,note_on,,,,,64,0,13,,,,,5,,,52,90
17280,note_on,,,,,64,0,16,,,,,7,,,52,100
17280,note_on,,,,,64,0,14,,,,,6,,,40,90
17280,note_on,,,,,64,0,15,,,,,7,,,71,100
17280,note_on,,,,,0,0,15,,,,,7,,,68,100
17280,note_on,,,,,128,0,12,,,,,4,,,68,90
17280,note_on,,,,,128,0,10,,,,,2,,,76,90
17280,note_on,,,,,64,0,11,,,,,3,,,71,90
17408,note_off,,,,,128,0,11,,,,,3,,,71,100
17472,note_on,,,,,64,0,11,,,,,3,,,64,90
17536,note_off,,,,,256,0,12,,,,,4,,,68,100
17536,note_off,,,,,256,0,13,,,,,5,,,52,100
17536,note_off,,,,,256,0,10,,,,,2,,,76,100
17536,note_off,,,,,256,0,16,,,,,7,,,52,100
17536,note_off,,,,,256,0,14,,,,,6,,,40,100
17536,note_off,,,,,256,0,15,,,,,7,,,71,100
17536,note_off,,,,,0,0,15,,,,,7,,,68,100
17600,note_off,,,,,128,0,11,,,,,3,,,64,100
17664,note_on,,,,,128,0,10,,,,,2,,,76,90
17664,note_on,,,,,64,0,11,,,,,3,,,68,90
17792,note_off,,,,,128,0,11,,,,,3,,,68,100
17856,note_on,,,,,64,0,11,,,,,3,,,71,90
17856,note_on,,,,,320,0,14,,,,,6,,,40,90
17856,note_on,,,,,320,0,12,,,,,4,,,68,90
17856,note_on,,,,,320,0,15,,,,,7,,,59,100
17856,note_on,,,,,0,0,15,,,,,7,,,68,100
17856,note_on,,,,,320,0,16,,,,,7,,,52,100
17856,note_on,,,,,320,0,13,,,,,5,,,52,90
17920,note_off,,,,,256,0,10,,,,,2,,,76,100
17984,note_off,,,,,128,0,13,,,,,5,,,52,100
17984,note_off,,,,,128,0,11,,,,,3,,,71,100
17984,note_off,,,,,128,0,16,,,,,7,,,52,100
17984,note_off,,,,,128,0,14,,,,,6,,,40,100
17984,note_off,,,,,128,0,15,,,,,7,,,59,100
17984,note_off,,,,,128,0,12,,,,,4,,,68,100
17984,note_off,,,,,0,0,15,,,,,7,,,68,100
18048,note_on,,,,,0,0,15,,,,,7,,,71,100
18048,note_on,,,,,64,0,14,,,,,6,,,44,90
18048,note_on,,,,,64,0,11,,,,,3,,,76,90
18048,note_on,,,,,64,0,15,,,,,7,,,64,100
18048,note_on,,,,,64,0,13,,,,,5,,,56,90
18048,note_on,,,,,64,0,16,,,,,7,,,56,100
18048,note_on,,,,,128,0,10,,,,,2,,,76,90
18048,note_on,,,,,64,0,12,,,,,4,,,71,90
18176,note_off,,,,,0,0,15,,,,,7,,,71,100
18176,note_off,,,,,128,0,15,,,,,7,,,64,100
18176,note_off,,,,,128,0,14,,,,,6,,,44,100
18176,note_off,,,,,128,0,16,,,,,7,,,56,100
18176,note_off,,,,,128,0,13,,,,,5,,,56,100
18176,note_off,,,,,128,0,12,,,,,4,,,71,100
18176,note_off,,,,,128,0,11,,,,,3,,,76,100
18240,note_on,,,,,64,0,15,,,,,7,,,59,100
18240,note_on,,,,,64,0,14,,,,,6,,,40,90
18240,note_on,,,,,0,0,15,,,,,7,,,68,100
18240,note_on,,,,,64,0,11,,,,,3,,,71,90
18240,note_on,,,,,64,0,12,,,,,4,,,68,90
18240,note_on,,,,,64,0,13,,,,,5,,,52,90
18240,note_on,,,,,64,0,16,,,,,7,,,52,100
18304,note_off,,,,,256,0,10,,,,,2,,,76,100
18368,note_off,,,,,128,0,11,,,,,3,,,71,100
18368,note_off,,,,,128,0,12,,,,,4,,,68,100
18368,note_off,,,,,128,0,14,,,,,6,,,40,100
18368,note_off,,,,,128,0,16,,,,,7,,,52,100
18368,note_off,,,,,0,0,15,,,,,7,,,68,100
18368,note_off,,,,,128,0,13,,,,,5,,,52,100
18368,note_off,,,,,128,0,15,,,,,7,,,59,100
18432,note_on,,,,,64,0,15,,,,,7,,,64,100
18432,note_on,,,,,64,0,14,,,,,6,,,45,90
18432,note_on,,,,,0,0,15,,,,,7,,,73,100
18432,note_on,,,,,128,0,10,,,,,2,,,76,90
18432,note_on,,,,,64,0,11,,,,,3,,,73,90
18432,note_on,,,,,64,0,16,,,,,7,,,57,100
18432,note_on,,,,,64,0,13,,,,,5,,,57,90
18432,note_on,,,,,64,0,12,,,,,4,,,64,90
18560,note_off,,,,,128,0,10,,,,,2,,,76,100
18624,note_on,,,,,64,0,10,,,,,2,,,76,85
18688,note_off,,,,,256,0,13,,,,,5,,,57,100
18688,note_off,,,,,256,0,15,,,,,7,,,64,100
18688,note_off,,,,,256,0,11,,,,,3,,,73,100
18688,note_off,,,,,256,0,16,,,,,7,,,57,100
18688,note_off,,,,,0,0,15,,,,,7,,,73,100
18688,note_off,,,,,256,0,14,,,,,6,,,45,100
18688,note_off,,,,,64,0,10,,,,,2,,,76,100
18688,note_off,,,,,256,0,12,,,,,4,,,64,100
18720,note_on,,,,,32,0,10,,,,,2,,,74,85
18784,note_off,,,,,64,0,10,,,,,2,,,74,100
18816,note_on,,,,,128,0,11,,,,,3,,,76,85
18816,note_on,,,,,32,0,10,,,,,2,,,73,85
18944,note_off,,,,,128,0,10,,,,,2,,,73,100
18944,note_off,,,,,128,0,11,,,,,3,,,76,100
19008,note_on,,,,,64,0,10,,,,,2,,,71,85
19008,note_on,,,,,64,0,11,,,,,3,,,74,85
19136,note_off,,,,,128,0,10,,,,,2,,,71,100
19136,note_off,,,,,128,0,11,,,,,3,,,74,100
19200,note_on,,,,,0,0,15,,,,,7,,,64,100
19200,note_on,,,,,512,0,14,,,,,6,,,37,85
19200,note_on,,,,,512,0,13,,,,,5,,,49,85
19200,note_on,,,,,512,0,16,,,,,7,,,49,100
19200,note_on,,,,,64,0,10,,,,,2,,,69,85
19200,note_on,,,,,64,0,11,,,,,3,,,73,85
19200,note_on,,,,,512,0,12,,,,,4,,,64,85
19200,note_on,,,,,512,0,15,,,,,7,,,69,100
19328,note_off,,,,,128,0,10,,,,,2,,,69,100
19328,note_off,,,,,128,0,11,,,,,3,,,73,100
19392,note_on,,,,,64,0,10,,,,,2,,,68,85
19392,note_on,,,,,64,0,11,,,,,3,,,71,85
19456,note_off,,,,,256,0,13,,,,,5,,,49,100
19456,note_off,,,,,256,0,15,,,,,7,,,69,100
19456,note_off,,,,,0,0,15,,,,,7,,,64,100
19456,note_off,,,,,256,0,14,,,,,6,,,37,100
19456,note_off,,,,,256,0,16,,,,,7,,,49,100
19456,note_off,,,,,256,0,12,,,,,4,,,64,100
19520,note_off,,,,,128,0,11,,,,,3,,,71,100
19520,note_off,,,,,128,0,10,,,,,2,,,68,100
19584,note_on,,,,,128,0,14,,,,,6,,,38,85
19584,note_on,,,,,128,0,13,,,,,5,,,50,85
19584,note_on,,,,,64,0,11,,,,,3,,,69,85
19584,note_on,,,,,128,0,16,,,,,7,,,50,100
19584,note_on,,,,,128,0,12,,,,,4,,,66,85
19584,note_on,,,,,128,0,15,,,,,7,,,66,100
19584,note_on,,,,,64,0,10,,,,,2,,,66,85
19584,note_on,,,,,0,0,15,,,,,7,,,69,100
19712,note_off,,,,,128,0,10,,,,,2,,,66,100
19776,note_on,,,,,64,0,10,,,,,2,,,78,85
19840,note_off,,,,,256,0,15,,,,,7,,,66,100
19840,note_off,,,,,256,0,14,,,,,6,,,38,100
19840,note_off,,,,,256,0,13,,,,,5,,,50,100
19840,note_off,,,,,0,0,15,,,,,7,,,69,100
19840,note_off,,,,,256,0,16,,,,,7,,,50,100
19840,note_off,,,,,256,0,11,,,,,3,,,69,100
19840,note_off,,,,,256,0,12,,,,,4,,,66,100
19840,note_off,,,,,64,0,10,,,,,2,,,78,100
19872,note_on,,,,,32,0,10,,,,,2,,,76,85
19936,note_off,,,,,64,0,10,,,,,2,,,76,100
19968,note_on,,,,,32,0,10,,,,,2,,,74,86
19968,note_on,,,,,128,0,11,,,,,3,,,78,86
20096,note_off,,,,,128,0,10,,,,,2,,,74,100
20096,note_off,,,,,128,0,11,,,,,3,,,78,100
20160,note_on,,,,,64,0,10,,,,,2,,,73,86
20160,note_on,,,,,64,0,11,,,,,3,,,76,86
20288,note_off,,,,,128,0,10,,,,,2,,,73,100
20288,note_off,,,,,128,0,11,,,,,3,,,76,100
20352,note_on,,,,,0,0,15,,,,,7,,,69,100
20352,note_on,,,,,512,0,15,,,,,7,,,71,100
20352,note_on,,,,,512,0,12,,,,,4,,,66,87
20352,note_on,,,,,512,0,14,,,,,6,,,38,87
20352,note_on,,,,,64,0,11,,,,,3,,,74,87
20352,note_on,,,,,512,0,16,,,,,7,,,50,100
20352,note_on,,,,,512,0,13,,,,,5,,,50,87
20352,note_on,,,,,64,0,10,,,,,2,,,71,87
20480,note_off,,,,,128,0,11,,,,,3,,,74,100
20480,note_off,,,,,128,0,10,,,,,2,,,71,100
20544,note_on,,,,,64,0,10,,,,,2,,,69,88
20544,note_on,,,,,64,0,11,,,,,3,,,73,88
20608,note_off,,,,,256,0,13,,,,,5,,,50,100
20608,note_off,,,,,256,0,15,,,,,7,,,71,100
20608,note_off,,,,,0,0,15,,,,,7,,,69,100
20608,note_off,,,,,256,0,12,,,,,4,,,66,100
20608,note_off,,,,,256,0,16,,,,,7,,,50,100
20608,note_off,,,,,256,0,14,,,,,6,,,38,100
20672,note_off,,,,,128,0,10,,,,,2,,,69,100
20672,note_off,,,,,128,0,11,,,,,3,,,73,100
20736,note_on,,,,,64,0,10,,,,,2,,,68,88
20736,note_on,,,,,128,0,13,,,,,5,,,52,88
20736,note_on,,,,,64,0,11,,,,,3,,,71,88
20736,note_on,,,,,128,0,15,,,,,7,,,68,100
20736,note_on,,,,,0,0,15,,,,,7,,,71,100
20736,note_on,,,,,128,0,16,,,,,7,,,52,100
20736,note_on,,,,,128,0,12,,,,,4,,,68,88
20736,note_on,,,,,128,0,14,,,,,6,,,40,88
20864,note_off,,,,,128,0,10,,,,,2,,,68,100
20928,note_on,,,,,64,0,10,,,,,2,,,80,89
20992,note_off,,,,,256,0,15,,,,,7,,,68,100
20992,note_off,,,,,0,0,15,,,,,7,,,71,100
20992,note_off,,,,,256,0,11,,,,,3,,,71,100
20992,note_off,,,,,256,0,16,,,,,7,,,52,100
20992,note_off,,,,,256,0,14,,,,,6,,,40,100
20992,note_off,,,,,64,0,10,,,,,2,,,80,100
20992,note_off,,,,,256,0,13,,,,,5,,,52,100
20992,note_off,,,,,256,0,12,,,,,4,,,68,100
21024,note_on,,,,,32,0,10,,,,,2,,,78,89
21088,note_off,,,,,64,0,10,,,,,2,,,78,100
21120,note_on,,,,,32,0,10,,,,,2,,,76,89
21120,note_on,,,,,128,0,11,,,,,3,,,80,89
21248,note_off,,,,,128,0,10,,,,,2,,,76,100
21248,note_off,,,,,128,0,11,,,,,3,,,80,100
21312,note_on,,,,,64,0,10,,,,,2,,,74,90
21312,note_on,,,,,64,0,11,,,,,3,,,78,90
21440,note_off,,,,,128,0,10,,,,,2,,,74,100
21440,note_off,,,,,128,0,11,,,,,3,,,78,100
21504,note_on,,,,,512,0,16,,,,,7,,,52,100
21504,note_on,,,,,512,0,15,,,,,7,,,71,100
21504,note_on,,,,,512,0,14,,,,,6,,,40,91
21504,note_on,,,,,0,0,15,,,,,7,,,73,100
21504,note_on,,,,,64,0,11,,,,,3,,,76,91
21504,note_on,,,,,512,0,12,,,,,4,,,68,91
21504,note_on,,,,,512,0,13,,,,,5,,,52,91
21504,note_on,,,,,64,0,10,,,,,2,,,73,91
21632,note_off,,,,,128,0,10,,,,,2,,,73,100
21632,note_off,,,,,128,0,11,,,,,3,,,76,100
21696,note_on,,,,,64,0,10,,,,,2,,,71,91
21696,note_on,,,,,64,0,11,,,,,3,,,74,91
21760,note_off,,,,,256,0,13,,,,,5,,,52,100
21760,note_off,,,,,0,0,15,,,,,7,,,73,100
21760,note_off,,,,,256,0,12,,,,,4,,,68,100
21760,note_off,,,,,256,0,14,,,,,6,,,40,100
21760,note_off,,,,,256,0,16,,,,,7,,,52,100
21760,note_off,,,,,256,0,15,,,,,7,,,71,100
21824,note_off,,,,,128,0,10,,,,,2,,,71,100
21824,note_off,,,,,128,0,11,,,,,3,,,74,100
21888,note_on,,,,,128,0,15,,,,,7,,,69,100
21888,note_on,,,,,0,0,15,,,,,7,,,73,100
21888,note_on,,,,,128,0,12,,,,,4,,,69,92
21888,note_on,,,,,64,0,10,,,,,2,,,69,92
21888,note_on,,,,,128,0,16,,,,,7,,,54,100
21888,note_on,,,,,64,0,11,,,,,3,,,73,92
21888,note_on,,,,,128,0,14,,,,,6,,,42,92
21888,note_on,,,,,128,0,13,,,,,5,,,54,92
22016,note_off,,,,,128,0,10,,,,,2,,,69,100
22080,note_on,,,,,64,0,10,,,,,2,,,81,93
22144,note_off,,,,,256,0,11,,,,,3,,,73,100
22144,note_off,,,,,256,0,14,,,,,6,,,42,100
22144,note_off,,,,,256,0,16,,,,,7,,,54,100
22144,note_off,,,,,256,0,15,,,,,7,,,69,100
22144,note_off,,,,,0,0,15,,,,,7,,,73,100
22144,note_off,,,,,256,0,12,,,,,4,,,69,100
22144,note_off,,,,,64,0,10,,,,,2,,,81,100
22144,note_off,,,,,256,0,13,,,,,5,,,54,100
22176,note_on,,,,,32,0,10,,,,,2,,,80,93
22240,note_off,,,,,64,0,10,,,,,2,,,80,100
22272,note_on,,,,,128,0,11,,,,,3,,,81,93
22272,note_on,,,,,32,0,10,,,,,2,,,78,93
22400,note_off,,,,,128,0,11,,,,,3,,,81,100
22400,note_off,,,,,128,0,10,,,,,2,,,78,100
22464,note_on,,,,,64,0,10,,,,,2,,,76,94
22464,note_on,,,,,64,0,11,,,,,3,,,80,94
22592,note_off,,,,,128,0,11,,,,,3,,,80,100
22592,note_off,,,,,128,0,10,,,,,2,,,76,100
22656,note_on,,,,,512,0,13,,,,,5,,,54,94
22656,note_on,,,,,512,0,16,,,,,7,,,54,100
22656,note_on,,,,,64,0,10,,,,,2,,,74,94
22656,note_on,,,,,512,0,14,,,,,6,,,42,94
22656,note_on,,,,,64,0,11,,,,,3,,,78,94
22656,note_on,,,,,512,0,12,,,,,4,,,69,94
22656,note_on,,,,,512,0,15,,,,,7,,,73,100
22656,note_on,,,,,0,0,15,,,,,7,,,74,100
22784,note_off,,,,,128,0,11,,,,,3,,,78,100
22784,note_off,,,,,128,0,10,,,,,2,,,74,100
22848,note_on,,,,,64,0,10,,,,,2,,,73,95
22848,note_on,,,,,64,0,11,,,,,3,,,76,95
22912,note_off,,,,,256,0,12,,,,,4,,,69,100
22912,note_off,,,,,256,0,14,,,,,6,,,42,100
22912,note_off,,,,,256,0,15,,,,,7,,,73,100
22912,note_off,,,,,256,0,16,,,,,7,,,54,100
22912,note_off,,,,,0,0,15,,,,,7,,,74,100
22912,note_off,,,,,256,0,13,,,,,5,,,54,100
22976,note_off,,,,,128,0,10,,,,,2,,,73,100
22976,note_off,,,,,128,0,11,,,,,3,,,76,100
23040,note_on,,,,,128,0,12,,,,,4,,,71,96
23040,note_on,,,,,64,0,10,,,,,2,,,71,96
23040,note_on,,,,,128,0,14,,,,,6,,,44,96
23040,note_on,,,,,64,0,11,,,,,3,,,74,96
23040,note_on,,,,,128,0,16,,,,,7,,,56,100
23040,note_on,,,,,128,0,13,,,,,5,,,56,96
23040,note_on,,,,,0,0,15,,,,,7,,,74,100
23040,note_on,,,,,128,0,15,,,,,7,,,71,100
23168,note_off,,,,,128,0,10,,,,,2,,,71,100
23232,note_on,,,,,64,0,10,,,,,2,,,83,96
23296,note_off,,,,,0,0,15,,,,,7,,,74,100
23296,note_off,,,,,256,0,13,,,,,5,,,56,100
23296,note_off,,,,,64,0,10,,,,,2,,,83,100
23296,note_off,,,,,256,0,16,,,,,7,,,56,100
23296,note_off,,,,,256,0,11,,,,,3,,,74,100
23296,note_off,,,,,256,0,15,,,,,7,,,71,100
23296,note_off,,,,,256,0,12,,,,,4,,,71,100
23296,note_off,,,,,256,0,14,,,,,6,,,44,100
23328,note_on,,,,,32,0,10,,,,,2,,,81,97
23392,note_off,,,,,64,0,10,,,,,2,,,81,100
23424,note_on,,,,,128,0,11,,,,,3,,,83,97
23424,note_on,,,,,32,0,10,,,,,2,,,80,97
23552,note_off,,,,,128,0,10,,,,,2,,,80,100
23552,note_off,,,,,128,0,11,,,,,3,,,83,100
23616,note_on,,,,,64,0,10,,,,,2,,,78,98
23616,note_on,,,,,64,0,11,,,,,3,,,81,98
23744,note_off,,,,,128,0,10,,,,,2,,,78,100
23744,note_off,,,,,128,0,11,,,,,3,,,81,100
23808,note_on,,,,,64,0,10,,,,,2,,,76,98
23808,note_on,,,,,512,0,12,,,,,4,,,71,98
23808,note_on,,,,,512,0,13,,,,,5,,,56,98
23808,note_on,,,,,512,0,14,,,,,6,,,44,98
23808,note_on,,,,,512,0,15,,,,,7,,,76,100
23808,note_on,,,,,0,0,15,,,,,7,,,74,100
23808,note_on,,,,,512,0,16,,,,,7,,,56,100
23808,note_on,,,,,64,0,11,,,,,3,,,80,98
23936,note_off,,,,,128,0,11,,,,,3,,,80,100
23936,note_off,,,,,128,0,10,,,,,2,,,76,100
24000,note_on,,,,,64,0,11,,,,,3,,,78,99
24000,note_on,,,,,64,0,10,,,,,2,,,74,99
24064,note_off,,,,,256,0,12,,,,,4,,,71,100
24064,note_off,,,,,256,0,15,,,,,7,,,76,100
24064,note_off,,,,,0,0,15,,,,,7,,,74,100
24064,note_off,,,,,256,0,14,,,,,6,,,44,100
24064,note_off,,,,,256,0,13,,,,,5,,,56,100
24064,note_off,,,,,256,0,16,,,,,7,,,56,100
24128,note_off,,,,,128,0,10,,,,,2,,,74,100
24128,note_off,,,,,128,0,11,,,,,3,,,78,100
24192,note_on,,,,,128,0,16,,,,,7,,,57,100
24192,note_on,,,,,64,0,10,,,,,2,,,73,99
24192,note_on,,,,,128,0,13,,,,,5,,,57,99
24192,note_on,,,,,128,0,12,,,,,4,,,64,99
24192,note_on,,,,,64,0,11,,,,,3,,,76,99
24192,note_on,,,,,128,0,14,,,,,6,,,45,99
24192,note_on,,,,,128,0,15,,,,,7,,,73,100
24192,note_on,,,,,0,0,15,,,,,7,,,76,100
24320,note_off,,,,,128,0,10,,,,,2,,,73,100
24320,note_off,,,,,128,0,11,,,,,3,,,76,100
24384,note_on,,,,,64,0,11,,,,,3,,,69,60
24384,note_on,,,,,64,0,10,,,,,2,,,69,110
24448,note_off,,,,,256,0,14,,,,,6,,,45,100
24448,note_off,,,,,256,0,13,,,,,5,,,57,100
24448,note_off,,,,,256,0,12,,,,,4,,,64,100
24448,note_off,,,,,256,0,16,,,,,7,,,57,100
24448,note_off,,,,,256,0,15,,,,,7,,,73,100
24448,note_off,,,,,0,0,15,,,,,7,,,76,100
24512,note_off,,,,,128,0,10,,,,,2,,,69,100
24512,note_off,,,,,128,0,11,,,,,3,,,69,100
24576,note_on,,,,,128,0,16,,,,,7,,,57,100
24576,note_on,,,,,64,0,10,,,,,2,,,69,110
24576,note_on,,,,,128,0,13,,,,,5,,,57,100
24576,note_on,,,,,128,0,12,,,,,4,,,73,100
24576,note_on,,,,,64,0,11,,,,,3,,,69,60
24576,note_on,,,,,128,0,15,,,,,7,,,73,100
24576,note_on,,,,,128,0,14,,,,,6,,,45,100
24576,note_on,,,,,0,0,15,,,,,7,,,76,100
24704,note_off,,,,,128,0,11,,,,,3,,,69,100
24704,note_off,,,,,128,0,10,,,,,2,,,69,100
24768,note_on,,,,,64,0,10,,,,,2,,,69,110
24768,note_on,,,,,64,0,11,,,,,3,,,69,60
24832,note_off,,,,,256,0,13,,,,,5,,,57,100
24832,note_off,,,,,256,0,15,,,,,7,,,73,100
24832,note_off,,,,,0,0,15,,,,,7,,,76,100
24832,note_off,,,,,256,0,14,,,,,6,,,45,100
24832,note_off,,,,,256,0,12,,,,,4,,,73,100
24832,note_off,,,,,256,0,16,,,,,7,,,57,100
24896,note_off,,,,,128,0,11,,,,,3,,,69,100
24896,note_off,,,,,128,0,10,,,,,2,,,69,100
24960,note_on,,,,,0,0,15,,,,,7,,,74,100
24960,note_on,,,,,128,0,14,,,,,6,,,44,100
24960,note_on,,,,,64,0,10,,,,,2,,,81,110
24960,note_on,,,,,128,0,15,,,,,7,,,71,100
24960,note_on,,,,,128,0,12,,,,,4,,,71,100
24960,note_on,,,,,128,0,13,,,,,5,,,56,100
24960,note_on,,,,,64,0,11,,,,,3,,,81,60
24960,note_on,,,,,128,0,16,,,,,7,,,56,100
25088,note_off,,,,,128,0,10,,,,,2,,,81,100
25088,note_off,,,,,128,0,11,,,,,3,,,81,100
25152,note_on,,,,,64,0,10,,,,,2,,,69,110
25152,note_on,,,,,64,0,11,,,,,3,,,69,60
25216,note_off,,,,,256,0,12,,,,,4,,,71,100
25216,note_off,,,,,256,0,14,,,,,6,,,44,100
25216,note_off,,,,,0,0,15,,,,,7,,,74,100
25216,note_off,,,,,256,0,15,,,,,7,,,71,100
25216,note_off,,,,,256,0,13,,,,,5,,,56,100
25216,note_off,,,,,256,0,16,,,,,7,,,56,100
25280,note_off,,,,,128,0,10,,,,,2,,,69,100
25280,note_off,,,,,128,0,11,,,,,3,,,69,100
25344,note_on,,,,,0,0,15,,,,,7,,,73,100
25344,note_on,,,,,128,0,15,,,,,7,,,69,100
25344,note_on,,,,,128,0,16,,,,,7,,,54,100
25344,note_on,,,,,64,0,10,,,,,2,,,69,110
25344,note_on,,,,,128,0,12,,,,,4,,,69,100
25344,note_on,,,,,128,0,13,,,,,5,,,54,100
25344,note_on,,,,,128,0,14,,,,,6,,,42,100
25344,note_on,,,,,64,0,11,,,,,3,,,69,60
25472,note_off,,,,,128,0,11,,,,,3,,,69,100
25472,note_off,,,,,128,0,10,,,,,2,,,69,100
25536,note_on,,,,,64,0,11,,,,,3,,,69,60
25536,note_on,,,,,64,0,10,,,,,2,,,69,110
25600,note_off,,,,,256,0,13,,,,,5,,,54,100
25600,note_off,,,,,256,0,16,,,,,7,,,54,100
25600,note_off,,,,,256,0,12,,,,,4,,,69,100
25600,note_off,,,,,256,0,14,,,,,6,,,42,100
25600,note_off,,,,,256,0,15,,,,,7,,,69,100
25600,note_off,,,,,0,0,15,,,,,7,,,73,100
25664,note_off,,,,,128,0,10,,,,,2,,,69,100
25664,note_off,,,,,128,0,11,,,,,3,,,69,100
25728,note_on,,,,,0,0,15,,,,,7,,,71,100
25728,note_on,,,,,64,0,10,,,,,2,,,69,110
25728,note_on,,,,,128,0,12,,,,,4,,,68,100
25728,note_on,,,,,128,0,13,,,,,5,,,52,100
25728,note_on,,,,,128,0,14,,,,,6,,,40,100
25728,note_on,,,,,128,0,16,,,,,7,,,52,100
25728,note_on,,,,,64,0,11,,,,,3,,,69,60
25728,note_on,,,,,128,0,15,,,,,7,,,68,100
25856,note_off,,,,,128,0,11,,,,,3,,,69,100
25856,note_off,,,,,128,0,10,,,,,2,,,69,100
25920,note_on,,,,,64,0,10,,,,,2,,,69,110
25920,note_on,,,,,64,0,11,,,,,3,,,69,60
25984,note_off,,,,,256,0,12,,,,,4,,,68,100
25984,note_off,,,,,256,0,14,,,,,6,,,40,100
25984,note_off,,,,,256,0,16,,,,,7,,,52,100
25984,note_off,,,,,256,0,15,,,,,7,,,68,100
25984,note_off,,,,,0,0,15,,,,,7,,,71,100
25984,note_off,,,,,256,0,13,,,,,5,,,52,100
26048,note_off,,,,,128,0,10,,,,,2,,,69,100
26048,note_off,,,,,128,0,11,,,,,3,,,69,100
26112,note_on,,,,,0,0,15,,,,,7,,,69,100
26112,note_on,,,,,64,0,11,,,,,3,,,81,60
26112,note_on,,,,,128,0,14,,,,,6,,,38,100
26112,note_on,,,,,128,0,15,,,,,7,,,66,100
26112,note_on,,,,,128,0,12,,,,,4,,,66,100
26112,note_on,,,,,64,0,10,,,,,2,,,81,110
26112,note_on,,,,,128,0,16,,,,,7,,,50,100
26112,note_on,,,,,128,0,13,,,,,5,,,50,100
26240,note_off,,,,,128,0,10,,,,,2,,,81,100
26240,note_off,,,,,128,0,11,,,,,3,,,81,100
26304,note_on,,,,,64,0,10,,,,,2,,,69,110
26304,note_on,,,,,64,0,11,,,,,3,,,69,60
26368,note_off,,,,,256,0,15,,,,,7,,,66,100
26368,note_off,,,,,256,0,12,,,,,4,,,66,100
26368,note_off,,,,,0,0,15,,,,,7,,,69,100
26368,note_off,,,,,256,0,16,,,,,7,,,50,100
26368,note_off,,,,,256,0,13,,,,,5,,,50,100
26368,note_off,,,,,256,0,14,,,,,6,,,38,100
26432,note_off,,,,,128,0,11,,,,,3,,,69,100
26432,note_off,,,,,128,0,10,,,,,2,,,69,100
26496,note_on,,,,,64,0,10,,,,,2,,,69,110
26496,note_on,,,,,128,0,13,,,,,5,,,49,100
26496,note_on,,,,,128,0,15,,,,,7,,,64,100
26496,note_on,,,,,0,0,15,,,,,7,,,69,100
26496,note_on,,,,,64,0,11,,,,,3,,,69,60
26496,note_on,,,,,128,0,14,,,,,6,,,37,100
26496,note_on,,,,,128,0,16,,,,,7,,,49,100
26496,note_on,,,,,128,0,12,,,,,4,,,64,100
26624,note_off,,,,,128,0,10,,,,,2,,,69,100
26624,note_off,,,,,128,0,11,,,,,3,,,69,100
26688,note_on,,,,,64,0,11,,,,,3,,,69,60
26688,note_on,,,,,64,0,10,,,,,2,,,69,110
26752,note_off,,,,,256,0,16,,,,,7,,,49,100
26752,note_off,,,,,256,0,12,,,,,4,,,64,100
26752,note_off,,,,,0,0,15,,,,,7,,,69,100
26752,note_off,,,,,256,0,15,,,,,7,,,64,100
26752,note_off,,,,,256,0,13,,,,,5,,,49,100
26752,note_off,,,,,256,0,14,,,,,6,,,37,100
26816,note_off,,,,,128,0,10,,,,,2,,,69,100
26816,note_off,,,,,128,0,11,,,,,3,,,69,100
26880,note_on,,,,,64,0,11,,,,,3,,,69,60
26880,note_on,,,,,64,0,10,,,,,2,,,69,110
27008,note_off,,,,,128,0,11,,,,,3,,,69,100
27008,note_off,,,,,128,0,10,,,,,2,,,69,100
27072,note_on,,,,,64,0,11,,,,,3,,,69,60
27072,note_on,,,,,64,0,10,,,,,2,,,69,110
27200,note_off,,,,,128,0,11,,,,,3,,,69,100
27200,note_off,,,,,128,0,10,,,,,2,,,69,100
27264,note_on,,,,,512,0,16,,,,,7,,,45,100
27264,note_on,,,,,512,0,15,,,,,7,,,64,100
27264,note_on,,,,,64,0,10,,,,,2,,,81,110
27264,note_on,,,,,512,0,12,,,,,4,,,61,100
27264,note_on,,,,,0,0,15,,,,,7,,,61,100
27264,note_on,,,,,512,0,14,,,,,6,,,33,100
27264,note_on,,,,,512,0,13,,,,,5,,,45,100
27264,note_on,,,,,64,0,11,,,,,3,,,81,60
27392,note_off,,,,,128,0,11,,,,,3,,,81,100
27392,note_off,,,,,128,0,10,,,,,2,,,81,100
27456,note_on,,,,,64,0,11,,,,,3,,,69,60
27456,note_on,,,,,64,0,10,,,,,2,,,69,110
27520,note_off,,,,,256,0,16,,,,,7,,,45,100
27520,note_off,,,,,256,0,12,,,,,4,,,61,100
27520,note_off,,,,,256,0,15,,,,,7,,,64,100
27520,note_off,,,,,0,0,15,,,,,7,,,61,100
27520,note_off,,,,,256,0,13,,,,,5,,,45,100
27520,note_off,,,,,256,0,14,,,,,6,,,33,100
27584,note_off,,,,,128,0,11,,,,,3,,,69,100
27584,note_off,,,,,128,0,10,,,,,2,,,69,100
27648,note_on,,,,,64,0,10,,,,,2,,,81,110
27648,note_on,,,,,128,0,12,,,,,4,,,66,100
27648,note_on,,,,,128,0,14,,,,,6,,,38,100
27648,note_on,,,,,128,0,15,,,,,7,,,69,100
27648,note_on,,,,,128,0,16,,,,,7,,,50,100
27648,note_on,,,,,64,0,11,,,,,3,,,81,60
27648,note_on,,,,,0,0,15,,,,,7,,,71,100
27648,note_on,,,,,128,0,13,,,,,5,,,50,100
27776,note_off,,,,,128,0,10,,,,,2,,,81,100
27776,note_off,,,,,128,0,11,,,,,3,,,81,100
27840,note_on,,,,,64,0,10,,,,,2,,,71,110
27840,note_on,,,,,64,0,11,,,,,3,,,71,60
27904,note_off,,,,,0,0,15,,,,,7,,,71,100
27904,note_off,,,,,256,0,13,,,,,5,,,50,100
27904,note_off,,,,,256,0,14,,,,,6,,,38,100
27904,note_off,,,,,256,0,15,,,,,7,,,69,100
27904,note_off,,,,,256,0,12,,,,,4,,,66,100
27904,note_off,,,,,256,0,16,,,,,7,,,50,100
27968,note_off,,,,,128,0,10,,,,,2,,,71,100
27968,note_off,,,,,128,0,11,,,,,3,,,71,100
28032,note_on,,,,,128,0,15,,,,,7,,,68,100
28032,note_on,,,,,0,0,15,,,,,7,,,71,100
28032,note_on,,,,,128,0,13,,,,,5,,,52,100
28032,note_on,,,,,128,0,14,,,,,6,,,40,100
28032,note_on,,,,,128,0,12,,,,,4,,,64,100
28032,note_on,,,,,64,0,11,,,,,3,,,71,60
28032,note_on,,,,,64,0,10,,,,,2,,,71,110
28032,note_on,,,,,128,0,16,,,,,7,,,52,100
28160,note_off,,,,,128,0,11,,,,,3,,,71,100
28160,note_off,,,,,128,0,10,,,,,2,,,71,100
28224,note_on,,,,,64,0,11,,,,,3,,,71,60
28224,note_on,,,,,64,0,10,,,,,2,,,71,110
28288,note_off,,,,,0,0,15,,,,,7,,,71,100
28288,note_off,,,,,256,0,15,,,,,7,,,68,100
28288,note_off,,,,,256,0,14,,,,,6,,,40,100
28288,note_off,,,,,256,0,16,,,,,7,,,52,100
28288,note_off,,,,,256,0,12,,,,,4,,,64,100
28288,note_off,,,,,256,0,13,,,,,5,,,52,100
28352,note_off,,,,,128,0,10,,,,,2,,,71,100
28352,note_off,,,,,128,0,11,,,,,3,,,71,100
28416,note_on,,,,,128,0,14,,,,,6,,,40,100
28416,note_on,,,,,128,0,12,,,,,4,,,64,100
28416,note_on,,,,,0,0,15,,,,,7,,,68,100
28416,note_on,,,,,128,0,13,,,,,5,,,40,100
28416,note_on,,,,,64,0,10,,,,,2,,,80,110
28416,note_on,,,,,64,0,11,,,,,3,,,80,60
28416,note_on,,,,,128,0,15,,,,,7,,,59,100
28416,note_on,,,,,128,0,16,,,,,7,,,40,100
28544,note_off,,,,,128,0,10,,,,,2,,,80,100
28544,note_off,,,,,128,0,11,,,,,3,,,80,100
28608,note_on,,,,,64,0,10,,,,,2,,,71,110
28608,note_on,,,,,64,0,11,,,,,3,,,71,60
28672,note_off,,,,,0,0,15,,,,,7,,,68,100
28672,note_off,,,,,256,0,16,,,,,7,,,40,100
28672,note_off,,,,,256,0,14,,,,,6,,,40,100
28672,note_off,,,,,256,0,13,,,,,5,,,40,100
28672,note_off,,,,,256,0,15,,,,,7,,,59,100
28672,note_off,,,,,256,0,12,,,,,4,,,64,100
28736,note_off,,,,,128,0,10,,,,,2,,,71,100
28736,note_off,,,,,128,0,11,,,,,3,,,71,100
28800,note_on,,,,,128,0,15,,,,,7,,,61,100
28800,note_on,,,,,64,0,11,,,,,3,,,73,60
28800,note_on,,,,,128,0,12,,,,,4,,,64,100
28800,note_on,,,,,64,0,10,,,,,2,,,69,110
28800,note_on,,,,,128,0,16,,,,,7,,,45,100
28800,note_on,,,,,0,0,15,,,,,7,,,69,100
28800,note_on,,,,,128,0,13,,,,,5,,,45,100
28800,note_on,,,,,128,0,14,,,,,6,,,33,100
28800,note_on,,,,,14720,0,8,,,,,0,,,69,100
28928,note_off,,,,,128,0,8,,,,,0,,,69,100
28992,note_on,,,,,64,0,8,,,,,0,,,69,100
29056,note_off,,,,,256,0,12,,,,,4,,,64,100
29056,note_off,,,,,256,0,13,,,,,5,,,45,100
29056,note_off,,,,,256,0,16,,,,,7,,,45,100
29056,note_off,,,,,0,0,15,,,,,7,,,69,100
29056,note_off,,,,,256,0,11,,,,,3,,,73,100
29056,note_off,,,,,64,0,8,,,,,0,,,69,100
29056,note_off,,,,,256,0,10,,,,,2,,,69,100
29056,note_off,,,,,256,0,14,,,,,6,,,33,100
29056,note_off,,,,,256,0,15,,,,,7,,,61,100
29088,note_on,,,,,32,0,8,,,,,0,,,71,100
29152,note_off,,,,,64,0,8,,,,,0,,,71,100
29184,note_on,,,,,32,0,8,,,,,0,,,73,100
29312,note_off,,,,,128,0,8,,,,,0,,,73,100
29376,note_on,,,,,320,0,13,,,,,5,,,57,85
29376,note_on,,,,,320,0,14,,,,,6,,,45,85
29376,note_on,,,,,320,0,15,,,,,7,,,61,100
29376,note_on,,,,,320,0,16,,,,,7,,,57,100
29376,note_on,,,,,64,0,8,,,,,0,,,73,100
29376,note_on,,,,,0,0,15,,,,,7,,,64,100
29440,note_off,,,,,64,0,8,,,,,0,,,73,100
29472,note_on,,,,,32,0,8,,,,,0,,,74,100
29504,note_off,,,,,128,0,15,,,,,7,,,61,100
29504,note_off,,,,,0,0,15,,,,,7,,,64,100
29504,note_off,,,,,128,0,13,,,,,5,,,57,100
29504,note_off,,,,,128,0,14,,,,,6,,,45,100
29504,note_off,,,,,128,0,16,,,,,7,,,57,100
29536,note_off,,,,,64,0,8,,,,,0,,,74,100
29568,note_on,,,,,32,0,8,,,,,0,,,76,100
29568,note_on,,,,,0,0,15,,,,,7,,,69,100
29568,note_on,,,,,64,0,15,,,,,7,,,64,100
29568,note_on,,,,,64,0,14,,,,,6,,,49,85
29568,note_on,,,,,64,0,13,,,,,5,,,61,85
29568,note_on,,,,,64,0,16,,,,,7,,,61,100
29696,note_off,,,,,128,0,16,,,,,7,,,61,100
29696,note_off,,,,,128,0,8,,,,,0,,,76,100
29696,note_off,,,,,0,0,15,,,,,7,,,69,100
29696,note_off,,,,,128,0,15,,,,,7,,,64,100
29696,note_off,,,,,128,0,14,,,,,6,,,49,100
29696,note_off,,,,,128,0,13,,,,,5,,,61,100
29760,note_on,,,,,64,0,14,,,,,6,,,52,85
29760,note_on,,,,,64,0,15,,,,,7,,,69,100
29760,note_on,,,,,64,0,13,,,,,5,,,64,85
29760,note_on,,,,,64,0,8,,,,,0,,,78,100
29760,note_on,,,,,64,0,16,,,,,7,,,64,100
29760,note_on,,,,,0,0,15,,,,,7,,,73,100
29824,note_off,,,,,64,0,8,,,,,0,,,78,100
29856,note_on,,,,,32,0,8,,,,,0,,,80,100
29888,note_off,,,,,0,0,15,,,,,7,,,73,100
29888,note_off,,,,,128,0,13,,,,,5,,,64,100
29888,note_off,,,,,128,0,14,,,,,6,,,52,100
29888,note_off,,,,,128,0,16,,,,,7,,,64,100
29888,note_off,,,,,128,0,15,,,,,7,,,69,100
29920,note_off,,,,,64,0,8,,,,,0,,,80,100
29952,note_on,,,,,32,0,8,,,,,0,,,81,100
29952,note_on,,,,,0,0,15,,,,,7,,,73,100
29952,note_on,,,,,64,0,14,,,,,6,,,45,85
29952,note_on,,,,,64,0,13,,,,,5,,,57,85
29952,note_on,,,,,64,0,15,,,,,7,,,64,100
29952,note_on,,,,,64,0,16,,,,,7,,,57,100
30016,note_off,,,,,64,0,8,,,,,0,,,81,100
30048,note_on,,,,,32,0,8,,,,,0,,,69,100
30112,note_off,,,,,64,0,8,,,,,0,,,69,100
30144,note_on,,,,,32,0,8,,,,,0,,,71,100
30208,note_off,,,,,256,0,15,,,,,7,,,64,100
30208,note_off,,,,,256,0,16,,,,,7,,,57,100
30208,note_off,,,,,256,0,13,,,,,5,,,57,100
30208,note_off,,,,,0,0,15,,,,,7,,,73,100
30208,note_off,,,,,256,0,14,,,,,6,,,45,100
30208,note_off,,,,,64,0,8,,,,,0,,,71,100
30240,note_on,,,,,32,0,8,,,,,0,,,73,99
30304,note_off,,,,,64,0,8,,,,,0,,,73,100
30336,note_on,,,,,32,0,8,,,,,0,,,74,98
30400,note_off,,,,,64,0,8,,,,,0,,,74,100
30432,note_on,,,,,32,0,8,,,,,0,,,76,97
30496,note_off,,,,,64,0,8,,,,,0,,,76,100
30528,note_on,,,,,0,0,15,,,,,7,,,64,100
30528,note_on,,,,,320,0,16,,,,,7,,,57,100
30528,note_on,,,,,320,0,15,,,,,7,,,61,100
30528,note_on,,,,,320,0,14,,,,,6,,,45,85
30528,note_on,,,,,320,0,13,,,,,5,,,57,85
30528,note_on,,,,,32,0,8,,,,,0,,,78,96
30592,note_off,,,,,64,0,8,,,,,0,,,78,100
30624,note_on,,,,,32,0,8,,,,,0,,,80,95
30656,note_off,,,,,128,0,13,,,,,5,,,57,100
30656,note_off,,,,,128,0,15,,,,,7,,,61,100
30656,note_off,,,,,128,0,16,,,,,7,,,57,100
30656,note_off,,,,,0,0,15,,,,,7,,,64,100
30656,note_off,,,,,128,0,14,,,,,6,,,45,100
30688,note_off,,,,,64,0,8,,,,,0,,,80,100
30720,note_on,,,,,64,0,16,,,,,7,,,61,100
30720,note_on,,,,,64,0,15,,,,,7,,,64,100
30720,note_on,,,,,32,0,8,,,,,0,,,81,94
30720,note_on,,,,,64,0,13,,,,,5,,,61,85
30720,note_on,,,,,64,0,14,,,,,6,,,49,85
30720,note_on,,,,,0,0,15,,,,,7,,,69,100
30848,note_off,,,,,128,0,16,,,,,7,,,61,100
30848,note_off,,,,,128,0,13,,,,,5,,,61,100
30848,note_off,,,,,128,0,8,,,,,0,,,81,100
30848,note_off,,,,,128,0,14,,,,,6,,,49,100
30848,note_off,,,,,128,0,15,,,,,7,,,64,100
30848,note_off,,,,,0,0,15,,,,,7,,,69,100
30912,note_on,,,,,64,0,16,,,,,7,,,57,100
30912,note_on,,,,,64,0,13,,,,,5,,,57,85
30912,note_on,,,,,64,0,14,,,,,6,,,45,85
30912,note_on,,,,,64,0,8,,,,,0,,,73,92
30912,note_on,,,,,0,0,15,,,,,7,,,64,100
30912,note_on,,,,,64,0,15,,,,,7,,,61,100
31040,note_off,,,,,128,0,14,,,,,6,,,45,100
31040,note_off,,,,,128,0,15,,,,,7,,,61,100
31040,note_off,,,,,0,0,15,,,,,7,,,64,100
31040,note_off,,,,,128,0,13,,,,,5,,,57,100
31040,note_off,,,,,128,0,16,,,,,7,,,57,100
31040,note_off,,,,,128,0,8,,,,,0,,,73,100
31104,note_on,,,,,64,0,15,,,,,7,,,59,100
31104,note_on,,,,,64,0,13,,,,,5,,,56,100
31104,note_on,,,,,64,0,16,,,,,7,,,56,100
31104,note_on,,,,,64,0,8,,,,,0,,,71,91
31104,note_on,,,,,64,0,14,,,,,6,,,44,100
31104,note_on,,,,,0,0,15,,,,,7,,,64,100
31168,note_off,,,,,64,0,8,,,,,0,,,71,100
31200,note_on,,,,,32,0,8,,,,,0,,,64,90
31264,note_off,,,,,64,0,8,,,,,0,,,64,100
31296,note_on,,,,,32,0,8,,,,,0,,,66,90
31360,note_off,,,,,256,0,15,,,,,7,,,59,100
31360,note_off,,,,,256,0,13,,,,,5,,,56,100
31360,note_off,,,,,256,0,16,,,,,7,,,56,100
31360,note_off,,,,,256,0,14,,,,,6,,,44,100
31360,note_off,,,,,64,0,8,,,,,0,,,66,100
31360,note_off,,,,,0,0,15,,,,,7,,,64,100
31392,note_on,,,,,32,0,8,,,,,0,,,68,91
31456,note_off,,,,,64,0,8,,,,,0,,,68,100
31488,note_on,,,,,32,0,8,,,,,0,,,69,92
31552,note_off,,,,,64,0,8,,,,,0,,,69,100
31584,note_on,,,,,32,0,8,,,,,0,,,71,93
31648,note_off,,,,,64,0,8,,,,,0,,,71,100
31680,note_on,,,,,320,0,16,,,,,7,,,52,100
31680,note_on,,,,,320,0,15,,,,,7,,,59,100
31680,note_on,,,,,32,0,8,,,,,0,,,73,94
31680,note_on,,,,,0,0,15,,,,,7,,,68,100
31680,note_on,,,,,320,0,14,,,,,6,,,40,100
31680,note_on,,,,,320,0,13,,,,,5,,,52,100
31744,note_off,,,,,64,0,8,,,,,0,,,73,100
31776,note_on,,,,,32,0,8,,,,,0,,,74,95
31808,note_off,,,,,128,0,16,,,,,7,,,52,100
31808,note_off,,,,,128,0,14,,,,,6,,,40,100
31808,note_off,,,,,128,0,15,,,,,7,,,59,100
31808,note_off,,,,,0,0,15,,,,,7,,,68,100
31808,note_off,,,,,128,0,13,,,,,5,,,52,100
31840,note_off,,,,,64,0,8,,,,,0,,,74,100
31872,note_on,,,,,32,0,8,,,,,0,,,76,96
31872,note_on,,,,,64,0,13,,,,,5,,,56,100
31872,note_on,,,,,64,0,15,,,,,7,,,68,100
31872,note_on,,,,,64,0,14,,,,,6,,,44,100
31872,note_on,,,,,64,0,16,,,,,7,,,56,100
31872,note_on,,,,,0,0,15,,,,,7,,,71,100
32000,note_off,,,,,128,0,13,,,,,5,,,56,100
32000,note_off,,,,,128,0,14,,,,,6,,,44,100
32000,note_off,,,,,128,0,16,,,,,7,,,56,100
32000,note_off,,,,,128,0,8,,,,,0,,,76,100
32000,note_off,,,,,128,0,15,,,,,7,,,68,100
32000,note_off,,,,,0,0,15,,,,,7,,,71,100
32064,note_on,,,,,64,0,16,,,,,7,,,52,100
32064,note_on,,,,,64,0,14,,,,,6,,,40,100
32064,note_on,,,,,64,0,15,,,,,7,,,59,100
32064,note_on,,,,,0,0,15,,,,,7,,,68,100
32064,note_on,,,,,64,0,13,,,,,5,,,52,100
32064,note_on,,,,,64,0,8,,,,,0,,,71,98
32192,note_off,,,,,128,0,14,,,,,6,,,40,100
32192,note_off,,,,,128,0,13,,,,,5,,,52,100
32192,note_off,,,,,128,0,16,,,,,7,,,52,100
32192,note_off,,,,,128,0,15,,,,,7,,,59,100
32192,note_off,,,,,128,0,8,,,,,0,,,71,100
32192,note_off,,,,,0,0,15,,,,,7,,,68,100
32256,note_on,,,,,64,0,15,,,,,7,,,64,100
32256,note_on,,,,,64,0,14,,,,,6,,,33,85
32256,note_on,,,,,64,0,16,,,,,7,,,45,100
32256,note_on,,,,,64,0,8,,,,,0,,,73,99
32256,note_on,,,,,18176,0,9,,,,,1,,,69,85
32256,note_on,,,,,64,0,13,,,,,5,,,45,85
32256,note_on,,,,,0,0,15,,,,,7,,,61,100
32384,note_off,,,,,128,0,9,,,,,1,,,69,100
32448,note_on,,,,,64,0,9,,,,,1,,,69,85
32512,note_off,,,,,256,0,16,,,,,7,,,45,100
32512,note_off,,,,,256,0,13,,,,,5,,,45,100
32512,note_off,,,,,256,0,8,,,,,0,,,73,100
32512,note_off,,,,,64,0,9,,,,,1,,,69,100
32512,note_off,,,,,256,0,15,,,,,7,,,64,100
32512,note_off,,,,,256,0,14,,,,,6,,,33,100
32512,note_off,,,,,0,0,15,,,,,7,,,61,100
32544,note_on,,,,,32,0,9,,,,,1,,,71,85
32608,note_off,,,,,64,0,9,,,,,1,,,71,100
32640,note_on,,,,,32,0,9,,,,,1,,,73,85
32768,note_off,,,,,128,0,9,,,,,1,,,73,100
32832,note_on,,,,,320,0,14,,,,,6,,,45,70
32832,note_on,,,,,64,0,9,,,,,1,,,73,85
32832,note_on,,,,,320,0,16,,,,,7,,,57,100
32832,note_on,,,,,320,0,13,,,,,5,,,57,70
32832,note_on,,,,,320,0,15,,,,,7,,,61,100
32832,note_on,,,,,0,0,15,,,,,7,,,64,100
32896,note_off,,,,,64,0,9,,,,,1,,,73,100
32928,note_on,,,,,32,0,9,,,,,1,,,74,85
32960,note_off,,,,,128,0,13,,,,,5,,,57,100
32960,note_off,,,,,128,0,15,,,,,7,,,61,100
32960,note_off,,,,,0,0,15,,,,,7,,,64,100
32960,note_off,,,,,128,0,16,,,,,7,,,57,100
32960,note_off,,,,,128,0,14,,,,,6,,,45,100
32992,note_off,,,,,64,0,9,,,,,1,,,74,100
33024,note_on,,,,,32,0,9,,,,,1,,,76,85
33024,note_on,,,,,64,0,16,,,,,7,,,61,100
33024,note_on,,,,,64,0,13,,,,,5,,,61,70
33024,note_on,,,,,0,0,15,,,,,7,,,69,100
33024,note_on,,,,,64,0,15,,,,,7,,,64,100
33024,note_on,,,,,64,0,14,,,,,6,,,49,70
33152,note_off,,,,,128,0,13,,,,,5,,,61,100
33152,note_off,,,,,128,0,16,,,,,7,,,61,100
33152,note_off,,,,,128,0,14,,,,,6,,,49,100
33152,note_off,,,,,128,0,15,,,,,7,,,64,100
33152,note_off,,,,,128,0,9,,,,,1,,,76,100
33152,note_off,,,,,0,0,15,,,,,7,,,69,100
33216,note_on,,,,,64,0,15,,,,,7,,,69,100
33216,note_on,,,,,0,0,15,,,,,7,,,73,100
33216,note_on,,,,,64,0,9,,,,,1,,,78,85
33216,note_on,,,,,64,0,13,,,,,5,,,64,70
33216,note_on,,,,,64,0,14,,,,,6,,,52,70
33216,note_on,,,,,64,0,16,,,,,7,,,64,100
33280,note_off,,,,,64,0,9,,,,,1,,,78,100
33312,note_on,,,,,32,0,9,,,,,1,,,80,85
33344,note_off,,,,,128,0,13,,,,,5,,,64,100
33344,note_off,,,,,128,0,15,,,,,7,,,69,100
33344,note_off,,,,,0,0,15,,,,,7,,,73,100
33344,note_off,,,,,128,0,16,,,,,7,,,64,100
33344,note_off,,,,,128,0,14,,,,,6,,,52,100
33376,note_off,,,,,64,0,9,,,,,1,,,80,100
33408,note_on,,,,,32,0,9,,,,,1,,,81,85
33408,note_on,,,,,64,0,14,,,,,6,,,45,70
33408,note_on,,,,,64,0,15,,,,,7,,,64,100
33408,note_on,,,,,64,0,16,,,,,7,,,57,100
33408,note_on,,,,,64,0,13,,,,,5,,,57,70
33408,note_on,,,,,0,0,15,,,,,7,,,73,100
33472,note_off,,,,,64,0,9,,,,,1,,,81,100
33504,note_on,,,,,32,0,9,,,,,1,,,69,85
33568,note_off,,,,,64,0,9,,,,,1,,,69,100
33600,note_on,,,,,32,0,9,,,,,1,,,71,85
33664,note_off,,,,,256,0,13,,,,,5,,,57,100
33664,note_off,,,,,64,0,9,,,,,1,,,71,100
33664,note_off,,,,,256,0,16,,,,,7,,,57,100
33664,note_off,,,,,256,0,15,,,,,7,,,64,100
33664,note_off,,,,,0,0,15,,,,,7,,,73,100
33664,note_off,,,,,256,0,14,,,,,6,,,45,100
33696,note_on,,,,,32,0,9,,,,,1,,,73,84
33760,note_off,,,,,64,0,9,,,,,1,,,73,100
33792,note_on,,,,,32,0,9,,,,,1,,,74,83
33856,note_off,,,,,64,0,9,,,,,1,,,74,100
33888,note_on,,,,,32,0,9,,,,,1,,,76,82
33952,note_off,,,,,64,0,9,,,,,1,,,76,100
33984,note_on,,,,,320,0,13,,,,,5,,,57,70
33984,note_on,,,,,32,0,9,,,,,1,,,78,81
33984,note_on,,,,,320,0,16,,,,,7,,,57,100
33984,note_on,,,,,320,0,14,,,,,6,,,45,70
33984,note_on,,,,,320,0,15,,,,,7,,,61,100
33984,note_on,,,,,0,0,15,,,,,7,,,64,100
34048,note_off,,,,,64,0,9,,,,,1,,,78,100
34080,note_on,,,,,32,0,9,,,,,1,,,80,80
34112,note_off,,,,,128,0,13,,,,,5,,,57,100
34112,note_off,,,,,128,0,15,,,,,7,,,61,100
34112,note_off,,,,,0,0,15,,,,,7,,,64,100
34112,note_off,,,,,128,0,16,,,,,7,,,57,100
34112,note_off,,,,,128,0,14,,,,,6,,,45,100
34144,note_off,,,,,64,0,9,,,,,1,,,80,100
34176,note_on,,,,,0,0,15,,,,,7,,,69,100
34176,note_on,,,,,64,0,15,,,,,7,,,64,100
34176,note_on,,,,,64,0,16,,,,,7,,,61,100
34176,note_on,,,,,32,0,9,,,,,1,,,81,79
34176,note_on,,,,,64,0,13,,,,,5,,,61,70
34176,note_on,,,,,64,0,14,,,,,6,,,49,70
34304,note_off,,,,,128,0,15,,,,,7,,,64,100
34304,note_off,,,,,128,0,16,,,,,7,,,61,100
34304,note_off,,,,,128,0,13,,,,,5,,,61,100
34304,note_off,,,,,128,0,14,,,,,6,,,49,100
34304,note_off,,,,,128,0,9,,,,,1,,,81,100
34304,note_off,,,,,0,0,15,,,,,7,,,69,100
34368,note_on,,,,,64,0,9,,,,,1,,,73,77
34368,note_on,,,,,64,0,16,,,,,7,,,57,100
34368,note_on,,,,,64,0,15,,,,,7,,,61,100
34368,note_on,,,,,64,0,13,,,,,5,,,57,70
34368,note_on,,,,,64,0,14,,,,,6,,,45,70
34368,note_on,,,,,0,0,15,,,,,7,,,64,100
34496,note_off,,,,,128,0,14,,,,,6,,,45,100
34496,note_off,,,,,128,0,13,,,,,5,,,57,100
34496,note_off,,,,,128,0,9,,,,,1,,,73,100
34496,note_off,,,,,128,0,16,,,,,7,,,57,100
34496,note_off,,,,,0,0,15,,,,,7,,,64,100
34496,note_off,,,,,128,0,15,,,,,7,,,61,100
34560,note_on,,,,,64,0,14,,,,,6,,,44,70
34560,note_on,,,,,64,0,16,,,,,7,,,56,100
34560,note_on,,,,,64,0,15,,,,,7,,,59,100
34560,note_on,,,,,0,0,15,,,,,7,,,64,100
34560,note_on,,,,,64,0,13,,,,,5,,,56,70
34560,note_on,,,,,64,0,9,,,,,1,,,71,76
34624,note_off,,,,,64,0,9,,,,,1,,,71,100
34656,note_on,,,,,32,0,9,,,,,1,,,64,75
34720,note_off,,,,,64,0,9,,,,,1,,,64,100
34752,note_on,,,,,32,0,9,,,,,1,,,66,76
34816,note_off,,,,,256,0,15,,,,,7,,,59,100
34816,note_off,,,,,0,0,15,,,,,7,,,64,100
34816,note_off,,,,,64,0,9,,,,,1,,,66,100
34816,note_off,,,,,256,0,16,,,,,7,,,56,100
34816,note_off,,,,,256,0,14,,,,,6,,,44,100
34816,note_off,,,,,256,0,13,,,,,5,,,56,100
34848,note_on,,,,,32,0,9,,,,,1,,,68,77
34912,note_off,,,,,64,0,9,,,,,1,,,68,100
34944,note_on,,,,,32,0,9,,,,,1,,,69,79
35008,note_off,,,,,64,0,9,,,,,1,,,69,100
35040,note_on,,,,,32,0,9,,,,,1,,,71,80
35104,note_off,,,,,64,0,9,,,,,1,,,71,100
35136,note_on,,,,,320,0,13,,,,,5,,,52,70
35136,note_on,,,,,320,0,15,,,,,7,,,59,100
35136,note_on,,,,,0,0,15,,,,,7,,,68,100
35136,note_on,,,,,320,0,16,,,,,7,,,52,100
35136,note_on,,,,,320,0,14,,,,,6,,,40,70
35136,note_on,,,,,32,0,9,,,,,1,,,73,81
35200,note_off,,,,,64,0,9,,,,,1,,,73,100
35232,note_on,,,,,32,0,9,,,,,1,,,74,83
35264,note_off,,,,,128,0,16,,,,,7,,,52,100
35264,note_off,,,,,128,0,15,,,,,7,,,59,100
35264,note_off,,,,,128,0,14,,,,,6,,,40,100
35264,note_off,,,,,0,0,15,,,,,7,,,68,100
35264,note_off,,,,,128,0,13,,,,,5,,,52,100
35296,note_off,,,,,64,0,9,,,,,1,,,74,100
35328,note_on,,,,,64,0,14,,,,,6,,,44,76
35328,note_on,,,,,64,0,16,,,,,7,,,56,100
35328,note_on,,,,,64,0,13,,,,,5,,,56,76
35328,note_on,,,,,64,0,15,,,,,7,,,68,100
35328,note_on,,,,,32,0,9,,,,,1,,,76,84
35328,note_on,,,,,0,0,15,,,,,7,,,71,100
35456,note_off,,,,,128,0,16,,,,,7,,,56,100
35456,note_off,,,,,128,0,14,,,,,6,,,44,100
35456,note_off,,,,,128,0,13,,,,,5,,,56,100
35456,note_off,,,,,128,0,9,,,,,1,,,76,100
35456,note_off,,,,,128,0,15,,,,,7,,,68,100
35456,note_off,,,,,0,0,15,,,,,7,,,71,100
35520,note_on,,,,,64,0,14,,,,,6,,,40,83
35520,note_on,,,,,64,0,13,,,,,5,,,52,83
35520,note_on,,,,,64,0,16,,,,,7,,,52,100
35520,note_on,,,,,0,0,15,,,,,7,,,68,100
35520,note_on,,,,,64,0,9,,,,,1,,,71,87
35520,note_on,,,,,64,0,15,,,,,7,,,59,100
35648,note_off,,,,,128,0,9,,,,,1,,,71,100
35648,note_off,,,,,128,0,14,,,,,6,,,40,100
35648,note_off,,,,,128,0,13,,,,,5,,,52,100
35648,note_off,,,,,128,0,15,,,,,7,,,59,100
35648,note_off,,,,,0,0,15,,,,,7,,,68,100
35648,note_off,,,,,128,0,16,,,,,7,,,52,100
35712,note_on,,,,,6656,0,12,,,,,4,,,64,85
35712,note_on,,,,,64,0,15,,,,,7,,,64,100
35712,note_on,,,,,64,0,16,,,,,7,,,45,100
35712,note_on,,,,,64,0,14,,,,,6,,,33,89
35712,note_on,,,,,64,0,13,,,,,5,,,45,89
35712,note_on,,,,,64,0,9,,,,,1,,,73,89
35712,note_on,,,,,0,0,15,,,,,7,,,61,100
35904,note_on,,,,,6848,0,10,,,,,2,,,69,100
35968,note_off,,,,,256,0,15,,,,,7,,,64,100
35968,note_off,,,,,256,0,14,,,,,6,,,33,100
35968,note_off,,,,,256,0,13,,,,,5,,,45,100
35968,note_off,,,,,256,0,9,,,,,1,,,73,100
35968,note_off,,,,,0,0,15,,,,,7,,,61,100
35968,note_off,,,,,256,0,12,,,,,4,,,64,100
35968,note_off,,,,,256,0,16,,,,,7,,,45,100
36032,note_off,,,,,128,0,10,,,,,2,,,69,100
36096,note_on,,,,,64,0,10,,,,,2,,,73,100
36096,note_on,,,,,7040,0,11,,,,,3,,,76,100
36224,note_off,,,,,128,0,10,,,,,2,,,73,100
36288,note_on,,,,,320,0,15,,,,,7,,,61,100
36288,note_on,,,,,0,0,15,,,,,7,,,64,100
36288,note_on,,,,,320,0,14,,,,,6,,,33,85
36288,note_on,,,,,320,0,16,,,,,7,,,45,100
36288,note_on,,,,,320,0,13,,,,,5,,,45,85
36288,note_on,,,,,64,0,10,,,,,2,,,76,100
36352,note_off,,,,,256,0,11,,,,,3,,,76,100
36416,note_off,,,,,128,0,10,,,,,2,,,76,100
36416,note_off,,,,,128,0,16,,,,,7,,,45,100
36416,note_off,,,,,128,0,13,,,,,5,,,45,100
36416,note_off,,,,,128,0,14,,,,,6,,,33,100
36416,note_off,,,,,128,0,15,,,,,7,,,61,100
36416,note_off,,,,,0,0,15,,,,,7,,,64,100
36480,note_on,,,,,128,0,11,,,,,3,,,76,100
36480,note_on,,,,,64,0,15,,,,,7,,,69,100
36480,note_on,,,,,64,0,16,,,,,7,,,49,100
36480,note_on,,,,,64,0,13,,,,,5,,,49,85
36480,note_on,,,,,512,0,12,,,,,4,,,64,85
36480,note_on,,,,,64,0,14,,,,,6,,,37,85
36480,note_on,,,,,64,0,10,,,,,2,,,69,100
36480,note_on,,,,,0,0,15,,,,,7,,,64,100
36608,note_off,,,,,128,0,16,,,,,7,,,49,100
36608,note_off,,,,,128,0,15,,,,,7,,,69,100
36608,note_off,,,,,0,0,15,,,,,7,,,64,100
36608,note_off,,,,,128,0,14,,,,,6,,,37,100
36608,note_off,,,,,128,0,10,,,,,2,,,69,100
36608,note_off,,,,,128,0,13,,,,,5,,,49,100
36672,note_on,,,,,0,0,15,,,,,7,,,64,100
36672,note_on,,,,,64,0,13,,,,,5,,,45,85
36672,note_on,,,,,64,0,16,,,,,7,,,45,100
36672,note_on,,,,,64,0,14,,,,,6,,,33,85
36672,note_on,,,,,64,0,15,,,,,7,,,61,100
36672,note_on,,,,,64,0,10,,,,,2,,,73,100
36736,note_off,,,,,256,0,12,,,,,4,,,64,100
36736,note_off,,,,,256,0,11,,,,,3,,,76,100
36800,note_off,,,,,0,0,15,,,,,7,,,64,100
36800,note_off,,,,,128,0,10,,,,,2,,,73,100
36800,note_off,,,,,128,0,14,,,,,6,,,33,100
36800,note_off,,,,,128,0,15,,,,,7,,,61,100
36800,note_off,,,,,128,0,16,,,,,7,,,45,100
36800,note_off,,,,,128,0,13,,,,,5,,,45,100
36864,note_on,,,,,64,0,15,,,,,7,,,68,100
36864,note_on,,,,,0,0,15,,,,,7,,,71,100
36864,note_on,,,,,128,0,12,,,,,4,,,68,85
36864,note_on,,,,,64,0,16,,,,,7,,,52,100
36864,note_on,,,,,64,0,14,,,,,6,,,40,85
36864,note_on,,,,,128,0,11,,,,,3,,,76,100
36864,note_on,,,,,64,0,10,,,,,2,,,71,100
36864,note_on,,,,,64,0,13,,,,,5,,,52,85
36992,note_off,,,,,128,0,10,,,,,2,,,71,100
37056,note_on,,,,,64,0,10,,,,,2,,,64,100
37120,note_off,,,,,0,0,15,,,,,7,,,71,100
37120,note_off,,,,,256,0,16,,,,,7,,,52,100
37120,note_off,,,,,256,0,11,,,,,3,,,76,100
37120,note_off,,,,,256,0,12,,,,,4,,,68,100
37120,note_off,,,,,256,0,13,,,,,5,,,52,100
37120,note_off,,,,,256,0,15,,,,,7,,,68,100
37120,note_off,,,,,256,0,14,,,,,6,,,40,100
37184,note_off,,,,,128,0,10,,,,,2,,,64,100
37248,note_on,,,,,128,0,11,,,,,3,,,76,100
37248,note_on,,,,,64,0,10,,,,,2,,,68,100
37376,note_off,,,,,128,0,10,,,,,2,,,68,100
37440,note_on,,,,,320,0,12,,,,,4,,,68,85
37440,note_on,,,,,320,0,14,,,,,6,,,40,85
37440,note_on,,,,,320,0,16,,,,,7,,,52,100
37440,note_on,,,,,0,0,15,,,,,7,,,68,100
37440,note_on,,,,,320,0,15,,,,,7,,,59,100
37440,note_on,,,,,320,0,13,,,,,5,,,52,85
37440,note_on,,,,,64,0,10,,,,,2,,,71,100
37504,note_off,,,,,256,0,11,,,,,3,,,76,100
37568,note_off,,,,,128,0,14,,,,,6,,,40,100
37568,note_off,,,,,128,0,16,,,,,7,,,52,100
37568,note_off,,,,,128,0,12,,,,,4,,,68,100
37568,note_off,,,,,128,0,10,,,,,2,,,71,100
37568,note_off,,,,,128,0,13,,,,,5,,,52,100
37568,note_off,,,,,128,0,15,,,,,7,,,59,100
37568,note_off,,,,,0,0,15,,,,,7,,,68,100
37632,note_on,,,,,64,0,13,,,,,5,,,56,85
37632,note_on,,,,,64,0,12,,,,,4,,,71,85
37632,note_on,,,,,64,0,16,,,,,7,,,56,100
37632,note_on,,,,,64,0,15,,,,,7,,,64,100
37632,note_on,,,,,0,0,15,,,,,7,,,71,100
37632,note_on,,,,,64,0,10,,,,,2,,,76,100
37632,note_on,,,,,64,0,14,,,,,6,,,44,85
37632,note_on,,,,,128,0,11,,,,,3,,,76,100
37760,note_off,,,,,128,0,13,,,,,5,,,56,100
37760,note_off,,,,,128,0,16,,,,,7,,,56,100
37760,note_off,,,,,128,0,14,,,,,6,,,44,100
37760,note_off,,,,,128,0,15,,,,,7,,,64,100
37760,note_off,,,,,0,0,15,,,,,7,,,71,100
37760,note_off,,,,,128,0,10,,,,,2,,,76,100
37760,note_off,,,,,128,0,12,,,,,4,,,71,100
37824,note_on,,,,,0,0,15,,,,,7,,,68,100
37824,note_on,,,,,64,0,13,,,,,5,,,52,85
37824,note_on,,,,,64,0,12,,,,,4,,,68,85
37824,note_on,,,,,64,0,14,,,,,6,,,40,85
37824,note_on,,,,,64,0,10,,,,,2,,,71,100
37824,note_on,,,,,64,0,15,,,,,7,,,59,100
37824,note_on,,,,,64,0,16,,,,,7,,,52,100
37888,note_off,,,,,256,0,11,,,,,3,,,76,100
37952,note_off,,,,,128,0,12,,,,,4,,,68,100
37952,note_off,,,,,128,0,13,,,,,5,,,52,100
37952,note_off,,,,,128,0,14,,,,,6,,,40,100
37952,note_off,,,,,128,0,16,,,,,7,,,52,100
37952,note_off,,,,,0,0,15,,,,,7,,,68,100
37952,note_off,,,,,128,0,15,,,,,7,,,59,100
37952,note_off,,,,,128,0,10,,,,,2,,,71,100
38016,note_on,,,,,64,0,12,,,,,4,,,64,85
38016,note_on,,,,,64,0,13,,,,,5,,,57,85
38016,note_on,,,,,64,0,10,,,,,2,,,73,100
38016,note_on,,,,,64,0,14,,,,,6,,,45,85
38016,note_on,,,,,128,0,11,,,,,3,,,76,100
38016,note_on,,,,,0,0,15,,,,,7,,,73,100
38016,note_on,,,,,64,0,15,,,,,7,,,64,100
38016,note_on,,,,,64,0,16,,,,,7,,,57,100
38144,note_off,,,,,128,0,11,,,,,3,,,76,100
38208,note_on,,,,,64,0,11,,,,,3,,,69,90
38272,note_off,,,,,256,0,16,,,,,7,,,57,100
38272,note_off,,,,,256,0,10,,,,,2,,,73,100
38272,note_off,,,,,256,0,13,,,,,5,,,57,100
38272,note_off,,,,,256,0,15,,,,,7,,,64,100
38272,note_off,,,,,0,0,15,,,,,7,,,73,100
38272,note_off,,,,,256,0,12,,,,,4,,,64,100
38272,note_off,,,,,256,0,14,,,,,6,,,45,100
38336,note_off,,,,,128,0,11,,,,,3,,,69,100
38400,note_on,,,,,128,0,10,,,,,2,,,76,90
38400,note_on,,,,,64,0,11,,,,,3,,,73,90
38528,note_off,,,,,128,0,11,,,,,3,,,73,100
38592,note_on,,,,,320,0,16,,,,,7,,,45,100
38592,note_on,,,,,64,0,11,,,,,3,,,76,90
38592,note_on,,,,,320,0,14,,,,,6,,,33,90
38592,note_on,,,,,320,0,13,,,,,5,,,45,90
38592,note_on,,,,,320,0,15,,,,,7,,,61,100
38592,note_on,,,,,0,0,15,,,,,7,,,64,100
38656,note_off,,,,,256,0,10,,,,,2,,,76,100
38720,note_off,,,,,128,0,16,,,,,7,,,45,100
38720,note_off,,,,,128,0,14,,,,,6,,,33,100
38720,note_off,,,,,0,0,15,,,,,7,,,64,100
38720,note_off,,,,,128,0,13,,,,,5,,,45,100
38720,note_off,,,,,128,0,15,,,,,7,,,61,100
38720,note_off,,,,,128,0,11,,,,,3,,,76,100
38784,note_on,,,,,64,0,16,,,,,7,,,49,100
38784,note_on,,,,,64,0,14,,,,,6,,,37,90
38784,note_on,,,,,128,0,10,,,,,2,,,76,90
38784,note_on,,,,,64,0,11,,,,,3,,,69,90
38784,note_on,,,,,0,0,15,,,,,7,,,64,100
38784,note_on,,,,,512,0,12,,,,,4,,,64,90
38784,note_on,,,,,64,0,15,,,,,7,,,69,100
38784,note_on,,,,,64,0,13,,,,,5,,,49,90
38912,note_off,,,,,128,0,11,,,,,3,,,69,100
38912,note_off,,,,,128,0,16,,,,,7,,,49,100
38912,note_off,,,,,128,0,14,,,,,6,,,37,100
38912,note_off,,,,,128,0,15,,,,,7,,,69,100
38912,note_off,,,,,128,0,13,,,,,5,,,49,100
38912,note_off,,,,,0,0,15,,,,,7,,,64,100
38976,note_on,,,,,64,0,14,,,,,6,,,33,90
38976,note_on,,,,,64,0,11,,,,,3,,,73,90
38976,note_on,,,,,64,0,13,,,,,5,,,45,90
38976,note_on,,,,,0,0,15,,,,,7,,,64,100
38976,note_on,,,,,64,0,15,,,,,7,,,61,100
38976,note_on,,,,,64,0,16,,,,,7,,,45,100
39040,note_off,,,,,256,0,12,,,,,4,,,64,100
39040,note_off,,,,,256,0,10,,,,,2,,,76,100
39104,note_off,,,,,128,0,11,,,,,3,,,73,100
39104,note_off,,,,,128,0,15,,,,,7,,,61,100
39104,note_off,,,,,0,0,15,,,,,7,,,64,100
39104,note_off,,,,,128,0,16,,,,,7,,,45,100
39104,note_off,,,,,128,0,14,,,,,6,,,33,100
39104,note_off,,,,,128,0,13,,,,,5,,,45,100
39168,note_on,,,,,128,0,12,,,,,4,,,68,90
39168,note_on,,,,,64,0,11,,,,,3,,,71,90
39168,note_on,,,,,0,0,15,,,,,7,,,68,100
39168,note_on,,,,,64,0,13,,,,,5,,,52,90
39168,note_on,,,,,64,0,15,,,,,7,,,71,100
39168,note_on,,,,,64,0,14,,,,,6,,,40,90
39168,note_on,,,,,64,0,16,,,,,7,,,52,100
39168,note_on,,,,,128,0,10,,,,,2,,,76,90
39296,note_off,,,,,128,0,11,,,,,3,,,71,100
39360,note_on,,,,,64,0,11,,,,,3,,,64,90
39424,note_off,,,,,256,0,16,,,,,7,,,52,100
39424,note_off,,,,,256,0,12,,,,,4,,,68,100
39424,note_off,,,,,0,0,15,,,,,7,,,68,100
39424,note_off,,,,,256,0,15,,,,,7,,,71,100
39424,note_off,,,,,256,0,10,,,,,2,,,76,100
39424,note_off,,,,,256,0,13,,,,,5,,,52,100
39424,note_off,,,,,256,0,14,,,,,6,,,40,100
39488,note_off,,,,,128,0,11,,,,,3,,,64,100
39552,note_on,,,,,64,0,11,,,,,3,,,68,90
39552,note_on,,,,,128,0,10,,,,,2,,,76,90
39680,note_off,,,,,128,0,11,,,,,3,,,68,100
39744,note_on,,,,,320,0,12,,,,,4,,,68,90
39744,note_on,,,,,320,0,14,,,,,6,,,40,90
39744,note_on,,,,,64,0,11,,,,,3,,,71,90
39744,note_on,,,,,320,0,15,,,,,7,,,59,100
39744,note_on,,,,,0,0,15,,,,,7,,,68,100
39744,note_on,,,,,320,0,13,,,,,5,,,52,90
39744,note_on,,,,,320,0,16,,,,,7,,,52,100
39808,note_off,,,,,256,0,10,,,,,2,,,76,100
39872,note_off,,,,,128,0,16,,,,,7,,,52,100
39872,note_off,,,,,0,0,15,,,,,7,,,68,100
39872,note_off,,,,,128,0,15,,,,,7,,,59,100
39872,note_off,,,,,128,0,11,,,,,3,,,71,100
39872,note_off,,,,,128,0,13,,,,,5,,,52,100
39872,note_off,,,,,128,0,12,,,,,4,,,68,100
39872,note_off,,,,,128,0,14,,,,,6,,,40,100
39936,note_on,,,,,64,0,16,,,,,7,,,56,100
39936,note_on,,,,,128,0,10,,,,,2,,,76,90
39936,note_on,,,,,64,0,12,,,,,4,,,71,90
39936,note_on,,,,,0,0,15,,,,,7,,,71,100
39936,note_on,,,,,64,0,15,,,,,7,,,64,100
39936,note_on,,,,,64,0,11,,,,,3,,,76,90
39936,note_on,,,,,64,0,13,,,,,5,,,56,90
39936,note_on,,,,,64,0,14,,,,,6,,,44,90
40064,note_off,,,,,128,0,12,,,,,4,,,71,100
40064,note_off,,,,,0,0,15,,,,,7,,,71,100
40064,note_off,,,,,128,0,11,,,,,3,,,76,100
40064,note_off,,,,,128,0,16,,,,,7,,,56,100
40064,note_off,,,,,128,0,13,,,,,5,,,56,100
40064,note_off,,,,,128,0,14,,,,,6,,,44,100
40064,note_off,,,,,128,0,15,,,,,7,,,64,100
40128,note_on,,,,,0,0,15,,,,,7,,,68,100
40128,note_on,,,,,64,0,15,,,,,7,,,59,100
40128,note_on,,,,,64,0,14,,,,,6,,,40,90
40128,note_on,,,,,64,0,16,,,,,7,,,52,100
40128,note_on,,,,,64,0,12,,,,,4,,,68,90
40128,note_on,,,,,64,0,11,,,,,3,,,71,90
40128,note_on,,,,,64,0,13,,,,,5,,,52,90
40192,note_off,,,,,256,0,10,,,,,2,,,76,100
40256,note_off,,,,,0,0,15,,,,,7,,,68,100
40256,note_off,,,,,128,0,12,,,,,4,,,68,100
40256,note_off,,,,,128,0,16,,,,,7,,,52,100
40256,note_off,,,,,128,0,11,,,,,3,,,71,100
40256,note_off,,,,,128,0,14,,,,,6,,,40,100
40256,note_off,,,,,128,0,13,,,,,5,,,52,100
40256,note_off,,,,,128,0,15,,,,,7,,,59,100
40320,note_on,,,,,64,0,13,,,,,5,,,57,90
40320,note_on,,,,,64,0,11,,,,,3,,,73,90
40320,note_on,,,,,64,0,16,,,,,7,,,57,100
40320,note_on,,,,,64,0,15,,,,,7,,,64,100
40320,note_on,,,,,64,0,12,,,,,4,,,64,90
40320,note_on,,,,,0,0,15,,,,,7,,,73,100
40320,note_on,,,,,64,0,14,,,,,6,,,45,90
40320,note_on,,,,,7808,0,8,,,,,0,,,76,90
40320,note_on,,,,,128,0,10,,,,,2,,,76,90
40384,note_off,,,,,64,0,8,,,,,0,,,76,100
40416,note_on,,,,,32,0,8,,,,,0,,,78,100
40480,note_off,,,,,64,0,8,,,,,0,,,78,100
40512,note_on,,,,,32,0,8,,,,,0,,,76,100
40576,note_off,,,,,256,0,10,,,,,2,,,76,100
40576,note_off,,,,,256,0,14,,,,,6,,,45,100
40576,note_off,,,,,256,0,13,,,,,5,,,57,100
40576,note_off,,,,,256,0,11,,,,,3,,,73,100
40576,note_off,,,,,256,0,12,,,,,4,,,64,100
40576,note_off,,,,,64,0,8,,,,,0,,,76,100
40576,note_off,,,,,256,0,15,,,,,7,,,64,100
40576,note_off,,,,,0,0,15,,,,,7,,,73,100
40576,note_off,,,,,256,0,16,,,,,7,,,57,100
40608,note_on,,,,,32,0,8,,,,,0,,,78,100
40672,note_off,,,,,64,0,8,,,,,0,,,78,100
40704,note_on,,,,,32,0,8,,,,,0,,,76,100
40768,note_off,,,,,64,0,8,,,,,0,,,76,100
40800,note_on,,,,,32,0,8,,,,,0,,,78,100
40864,note_off,,,,,64,0,8,,,,,0,,,78,100
40896,note_on,,,,,32,0,8,,,,,0,,,76,100
40960,note_off,,,,,64,0,8,,,,,0,,,76,100
40992,note_on,,,,,32,0,8,,,,,0,,,78,100
41056,note_off,,,,,64,0,8,,,,,0,,,78,100
41088,note_on,,,,,32,0,8,,,,,0,,,76,100
41152,note_off,,,,,64,0,8,,,,,0,,,76,100
41184,note_on,,,,,32,0,8,,,,,0,,,78,100
41248,note_off,,,,,64,0,8,,,,,0,,,78,100
41280,note_on,,,,,32,0,8,,,,,0,,,76,100
41344,note_off,,,,,64,0,8,,,,,0,,,76,100
41376,note_on,,,,,32,0,8,,,,,0,,,78,100
41440,note_off,,,,,64,0,8,,,,,0,,,78,100
41472,note_on,,,,,32,0,8,,,,,0,,,74,100
41536,note_off,,,,,64,0,8,,,,,0,,,74,100
41568,note_on,,,,,32,0,8,,,,,0,,,76,100
41632,note_off,,,,,64,0,8,,,,,0,,,76,100
41664,note_on,,,,,32,0,8,,,,,0,,,74,100
41728,note_off,,,,,64,0,8,,,,,0,,,74,100
41760,note_on,,,,,32,0,8,,,,,0,,,76,100
41824,note_off,,,,,64,0,8,,,,,0,,,76,100
41856,note_on,,,,,32,0,8,,,,,0,,,74,100
41920,note_off,,,,,64,0,8,,,,,0,,,74,100
41952,note_on,,,,,32,0,8,,,,,0,,,76,100
42016,note_off,,,,,64,0,8,,,,,0,,,76,100
42048,note_on,,,,,32,0,8,,,,,0,,,74,100
42112,note_off,,,,,64,0,8,,,,,0,,,74,100
42144,note_on,,,,,32,0,8,,,,,0,,,76,100
42208,note_off,,,,,64,0,8,,,,,0,,,76,100
42240,note_on,,,,,32,0,8,,,,,0,,,74,100
42304,note_off,,,,,64,0,8,,,,,0,,,74,100
42336,note_on,,,,,32,0,8,,,,,0,,,76,100
42400,note_off,,,,,64,0,8,,,,,0,,,76,100
42432,note_on,,,,,32,0,8,,,,,0,,,74,100
42496,note_off,,,,,64,0,8,,,,,0,,,74,100
42528,note_on,,,,,32,0,8,,,,,0,,,76,100
42592,note_off,,,,,64,0,8,,,,,0,,,76,100
42624,note_on,,,,,32,0,8,,,,,0,,,73,100
42624,note_on,,,,,6656,0,9,,,,,1,,,76,100
42688,note_off,,,,,64,0,9,,,,,1,,,76,100
42720,note_on,,,,,32,0,9,,,,,1,,,78,100
42752,note_off,,,,,128,0,8,,,,,0,,,73,100
42784,note_off,,,,,64,0,9,,,,,1,,,78,100
42816,note_on,,,,,64,0,8,,,,,0,,,81,100
42816,note_on,,,,,32,0,9,,,,,1,,,76,100
42880,note_off,,,,,64,0,9,,,,,1,,,76,100
42912,note_on,,,,,32,0,9,,,,,1,,,78,100
42944,note_off,,,,,128,0,8,,,,,0,,,81,100
42976,note_off,,,,,64,0,9,,,,,1,,,78,100
43008,note_on,,,,,64,0,8,,,,,0,,,76,100
43008,note_on,,,,,32,0,9,,,,,1,,,76,100
43072,note_off,,,,,64,0,9,,,,,1,,,76,100
43104,note_on,,,,,32,0,9,,,,,1,,,78,100
43136,note_off,,,,,128,0,8,,,,,0,,,76,100
43168,note_off,,,,,64,0,9,,,,,1,,,78,100
43200,note_on,,,,,32,0,9,,,,,1,,,76,100
43200,note_on,,,,,64,0,8,,,,,0,,,73,100
43264,note_off,,,,,64,0,9,,,,,1,,,76,100
43296,note_on,,,,,32,0,9,,,,,1,,,78,100
43328,note_off,,,,,128,0,8,,,,,0,,,73,100
43360,note_off,,,,,64,0,9,,,,,1,,,78,100
43392,note_on,,,,,64,0,8,,,,,0,,,69,100
43392,note_on,,,,,32,0,9,,,,,1,,,76,100
43456,note_off,,,,,64,0,9,,,,,1,,,76,100
43488,note_on,,,,,32,0,9,,,,,1,,,78,100
43520,note_off,,,,,128,0,8,,,,,0,,,69,100
43552,note_off,,,,,64,0,9,,,,,1,,,78,100
43584,note_on,,,,,32,0,9,,,,,1,,,76,100
43584,note_on,,,,,64,0,8,,,,,0,,,85,100
43648,note_off,,,,,64,0,9,,,,,1,,,76,100
43680,note_on,,,,,32,0,9,,,,,1,,,78,100
43712,note_off,,,,,128,0,8,,,,,0,,,85,100
43744,note_off,,,,,64,0,9,,,,,1,,,78,100
43776,note_on,,,,,64,0,8,,,,,0,,,83,100
43776,note_on,,,,,32,0,9,,,,,1,,,74,100
43840,note_off,,,,,64,0,8,,,,,0,,,83,100
43840,note_off,,,,,64,0,9,,,,,1,,,74,100
43872,note_on,,,,,32,0,8,,,,,0,,,85,100
43872,note_on,,,,,32,0,9,,,,,1,,,76,100
43936,note_off,,,,,64,0,8,,,,,0,,,85,100
43936,note_off,,,,,64,0,9,,,,,1,,,76,100
43968,note_on,,,,,32,0,9,,,,,1,,,74,100
43968,note_on,,,,,32,0,8,,,,,0,,,83,100
44032,note_off,,,,,64,0,8,,,,,0,,,83,100
44032,note_off,,,,,64,0,9,,,,,1,,,74,100
44064,note_on,,,,,32,0,8,,,,,0,,,85,100
44064,note_on,,,,,32,0,9,,,,,1,,,76,100
44128,note_off,,,,,64,0,8,,,,,0,,,85,100
44128,note_off,,,,,64,0,9,,,,,1,,,76,100
44160,note_on,,,,,32,0,8,,,,,0,,,83,100
44160,note_on,,,,,32,0,9,,,,,1,,,74,100
44224,note_off,,,,,64,0,8,,,,,0,,,83,100
44224,note_off,,,,,64,0,9,,,,,1,,,74,100
44256,note_on,,,,,32,0,9,,,,,1,,,76,100
44256,note_on,,,,,32,0,8,,,,,0,,,85,100
44320,note_off,,,,,64,0,9,,,,,1,,,76,100
44320,note_off,,,,,64,0,8,,,,,0,,,85,100
44352,note_on,,,,,32,0,9,,,,,1,,,74,100
44352,note_on,,,,,32,0,8,,,,,0,,,83,100
44416,note_off,,,,,64,0,9,,,,,1,,,74,100
44416,note_off,,,,,64,0,8,,,,,0,,,83,100
44448,note_on,,,,,32,0,8,,,,,0,,,85,100
44448,note_on,,,,,32,0,9,,,,,1,,,76,100
44512,note_off,,,,,64,0,9,,,,,1,,,76,100
44512,note_off,,,,,64,0,8,,,,,0,,,85,100
44544,note_on,,,,,32,0,9,,,,,1,,,74,100
44544,note_on,,,,,32,0,8,,,,,0,,,83,100
44608,note_off,,,,,64,0,8,,,,,0,,,83,100
44608,note_off,,,,,64,0,9,,,,,1,,,74,100
44640,note_on,,,,,32,0,9,,,,,1,,,76,100
44640,note_on,,,,,32,0,8,,,,,0,,,85,100
44704,note_off,,,,,64,0,9,,,,,1,,,76,100
44704,note_off,,,,,64,0,8,,,,,0,,,85,100
44736,note_on,,,,,32,0,9,,,,,1,,,74,100
44736,note_on,,,,,32,0,8,,,,,0,,,83,100
44800,note_off,,,,,64,0,9,,,,,1,,,74,100
44800,note_off,,,,,64,0,8,,,,,0,,,83,100
44832,note_on,,,,,32,0,9,,,,,1,,,76,100
44832,note_on,,,,,32,0,8,,,,,0,,,85,100
44896,note_off,,,,,64,0,9,,,,,1,,,76,100
44896,note_off,,,,,64,0,8,,,,,0,,,85,100
44928,note_on,,,,,32,0,9,,,,,1,,,73,100
44928,note_on,,,,,32,0,8,,,,,0,,,81,100
44992,note_off,,,,,64,0,8,,,,,0,,,81,100
45024,note_on,,,,,32,0,8,,,,,0,,,83,100
45056,note_off,,,,,128,0,9,,,,,1,,,73,100
45088,note_off,,,,,64,0,8,,,,,0,,,83,100
45120,note_on,,,,,32,0,8,,,,,0,,,81,100
45120,note_on,,,,,64,0,9,,,,,1,,,81,100
45216,note_on,,,,,96,0,8,,,,,0,,,83,100
45248,note_off,,,,,32,0,8,,,,,0,,,81,100
45248,note_off,,,,,128,0,9,,,,,1,,,81,100
45280,note_off,,,,,32,0,8,,,,,0,,,83,100
45312,note_on,,,,,64,0,9,,,,,1,,,76,100
45312,note_on,,,,,32,0,8,,,,,0,,,81,100
45376,note_off,,,,,64,0,8,,,,,0,,,81,100
45408,note_on,,,,,32,0,8,,,,,0,,,83,100
45440,note_off,,,,,128,0,9,,,,,1,,,76,100
45472,note_off,,,,,64,0,8,,,,,0,,,83,100
45504,note_on,,,,,64,0,9,,,,,1,,,73,100
45504,note_on,,,,,32,0,8,,,,,0,,,81,100
45568,note_off,,,,,64,0,8,,,,,0,,,81,100
45600,note_on,,,,,32,0,8,,,,,0,,,83,100
45632,note_off,,,,,128,0,9,,,,,1,,,73,100
45664,note_off,,,,,64,0,8,,,,,0,,,83,100
45696,note_on,,,,,32,0,8,,,,,0,,,81,100
45696,note_on,,,,,64,0,9,,,,,1,,,69,100
45760,note_off,,,,,64,0,8,,,,,0,,,81,100
45792,note_on,,,,,32,0,8,,,,,0,,,83,100
45824,note_off,,,,,128,0,9,,,,,1,,,69,100
45856,note_off,,,,,64,0,8,,,,,0,,,83,100
45888,note_on,,,,,32,0,8,,,,,0,,,81,100
45888,note_on,,,,,64,0,9,,,,,1,,,85,100
45952,note_off,,,,,64,0,8,,,,,0,,,81,100
45984,note_on,,,,,32,0,8,,,,,0,,,83,100
46016,note_off,,,,,128,0,9,,,,,1,,,85,100
46048,note_off,,,,,64,0,8,,,,,0,,,83,100
46080,note_on,,,,,32,0,8,,,,,0,,,80,100
46080,note_on,,,,,5504,0,12,,,,,4,,,59,85
46080,note_on,,,,,5504,0,16,,,,,7,,,52,100
46080,note_on,,,,,5504,0,14,,,,,6,,,40,85
46080,note_on,,,,,5504,0,13,,,,,5,,,52,85
46080,note_on,,,,,0,0,15,,,,,7,,,71,100
46080,note_on,,,,,5504,0,15,,,,,7,,,68,100
46080,note_on,,,,,64,0,9,,,,,1,,,83,100
46272,note_on,,,,,5696,0,10,,,,,2,,,76,100
46336,note_off,,,,,256,0,9,,,,,1,,,83,100
46336,note_off,,,,,0,0,15,,,,,7,,,71,100
46336,note_off,,,,,256,0,15,,,,,7,,,68,100
46336,note_off,,,,,256,0,8,,,,,0,,,80,100
46336,note_off,,,,,256,0,13,,,,,5,,,52,100
46336,note_off,,,,,256,0,14,,,,,6,,,40,100
46336,note_off,,,,,256,0,12,,,,,4,,,59,100
46336,note_off,,,,,256,0,16,,,,,7,,,52,100
46400,note_off,,,,,128,0,10,,,,,2,,,76,100
46464,note_on,,,,,64,0,10,,,,,2,,,80,100
46464,note_on,,,,,5888,0,11,,,,,3,,,83,100
46592,note_off,,,,,128,0,10,,,,,2,,,80,100
46656,note_on,,,,,320,0,15,,,,,7,,,68,100
46656,note_on,,,,,0,0,15,,,,,7,,,71,100
46656,note_on,,,,,320,0,16,,,,,7,,,52,100
46656,note_on,,,,,320,0,14,,,,,6,,,40,85
46656,note_on,,,,,64,0,10,,,,,2,,,83,100
46656,note_on,,,,,320,0,13,,,,,5,,,52,85
46720,note_off,,,,,256,0,11,,,,,3,,,83,100
46784,note_off,,,,,128,0,14,,,,,6,,,40,100
46784,note_off,,,,,128,0,16,,,,,7,,,52,100
46784,note_off,,,,,128,0,15,,,,,7,,,68,100
46784,note_off,,,,,128,0,13,,,,,5,,,52,100
46784,note_off,,,,,0,0,15,,,,,7,,,71,100
46784,note_off,,,,,128,0,10,,,,,2,,,83,100
46848,note_on,,,,,64,0,10,,,,,2,,,76,100
46848,note_on,,,,,64,0,14,,,,,6,,,44,85
46848,note_on,,,,,128,0,11,,,,,3,,,83,100
46848,note_on,,,,,64,0,16,,,,,7,,,56,100
46848,note_on,,,,,64,0,15,,,,,7,,,76,100
46848,note_on,,,,,0,0,15,,,,,7,,,71,100
46848,note_on,,,,,64,0,13,,,,,5,,,56,85
46848,note_on,,,,,512,0,12,,,,,4,,,59,85
46976,note_off,,,,,128,0,14,,,,,6,,,44,100
46976,note_off,,,,,128,0,10,,,,,2,,,76,100
46976,note_off,,,,,128,0,13,,,,,5,,,56,100
46976,note_off,,,,,128,0,15,,,,,7,,,76,100
46976,note_off,,,,,0,0,15,,,,,7,,,71,100
46976,note_off,,,,,128,0,16,,,,,7,,,56,100
47040,note_on,,,,,0,0,15,,,,,7,,,71,100
47040,note_on,,,,,64,0,10,,,,,2,,,80,100
47040,note_on,,,,,64,0,16,,,,,7,,,52,100
47040,note_on,,,,,64,0,14,,,,,6,,,40,85
47040,note_on,,,,,64,0,15,,,,,7,,,68,100
47040,note_on,,,,,64,0,13,,,,,5,,,52,85
47104,note_off,,,,,256,0,11,,,,,3,,,83,100
47104,note_off,,,,,256,0,12,,,,,4,,,59,100
47168,note_off,,,,,0,0,15,,,,,7,,,71,100
47168,note_off,,,,,128,0,10,,,,,2,,,80,100
47168,note_off,,,,,128,0,15,,,,,7,,,68,100
47168,note_off,,,,,128,0,16,,,,,7,,,52,100
47168,note_off,,,,,128,0,13,,,,,5,,,52,100
47168,note_off,,,,,128,0,14,,,,,6,,,40,100
47232,note_on,,,,,64,0,13,,,,,5,,,59,85
47232,note_on,,,,,64,0,15,,,,,7,,,75,100
47232,note_on,,,,,64,0,14,,,,,6,,,47,85
47232,note_on,,,,,64,0,10,,,,,2,,,78,100
47232,note_on,,,,,0,0,15,,,,,7,,,78,100
47232,note_on,,,,,64,0,16,,,,,7,,,59,100
47232,note_on,,,,,128,0,12,,,,,4,,,63,85
47232,note_on,,,,,128,0,11,,,,,3,,,83,100
47360,note_off,,,,,128,0,10,,,,,2,,,78,100
47424,note_on,,,,,64,0,10,,,,,2,,,71,100
47488,note_off,,,,,256,0,12,,,,,4,,,63,100
47488,note_off,,,,,256,0,16,,,,,7,,,59,100
47488,note_off,,,,,256,0,11,,,,,3,,,83,100
47488,note_off,,,,,256,0,14,,,,,6,,,47,100
47488,note_off,,,,,256,0,13,,,,,5,,,59,100
47488,note_off,,,,,0,0,15,,,,,7,,,78,100
47488,note_off,,,,,256,0,15,,,,,7,,,75,100
47552,note_off,,,,,128,0,10,,,,,2,,,71,100
47616,note_on,,,,,128,0,11,,,,,3,,,83,100
47616,note_on,,,,,64,0,10,,,,,2,,,75,100
47744,note_off,,,,,128,0,10,,,,,2,,,75,100
47808,note_on,,,,,0,0,15,,,,,7,,,75,100
47808,note_on,,,,,320,0,16,,,,,7,,,47,100
47808,note_on,,,,,320,0,15,,,,,7,,,66,100
47808,note_on,,,,,320,0,13,,,,,5,,,47,85
47808,note_on,,,,,320,0,12,,,,,4,,,63,85
47808,note_on,,,,,64,0,10,,,,,2,,,78,100
47808,note_on,,,,,320,0,14,,,,,6,,,35,85
47872,note_off,,,,,256,0,11,,,,,3,,,83,100
47936,note_off,,,,,0,0,15,,,,,7,,,75,100
47936,note_off,,,,,128,0,15,,,,,7,,,66,100
47936,note_off,,,,,128,0,13,,,,,5,,,47,100
47936,note_off,,,,,128,0,14,,,,,6,,,35,100
47936,note_off,,,,,128,0,16,,,,,7,,,47,100
47936,note_off,,,,,128,0,10,,,,,2,,,78,100
47936,note_off,,,,,128,0,12,,,,,4,,,63,100
48000,note_on,,,,,128,0,11,,,,,3,,,83,100
48000,note_on,,,,,64,0,10,,,,,2,,,83,100
48000,note_on,,,,,64,0,13,,,,,5,,,51,85
48000,note_on,,,,,64,0,14,,,,,6,,,39,85
48000,note_on,,,,,64,0,12,,,,,4,,,66,85
48000,note_on,,,,,64,0,15,,,,,7,,,71,100
48000,note_on,,,,,64,0,16,,,,,7,,,51,100
48000,note_on,,,,,0,0,15,,,,,7,,,78,100
48128,note_off,,,,,128,0,10,,,,,2,,,83,100
48128,note_off,,,,,128,0,12,,,,,4,,,66,100
48128,note_off,,,,,128,0,15,,,,,7,,,71,100
48128,note_off,,,,,128,0,14,,,,,6,,,39,100
48128,note_off,,,,,0,0,15,,,,,7,,,78,100
48128,note_off,,,,,128,0,13,,,,,5,,,51,100
48128,note_off,,,,,128,0,16,,,,,7,,,51,100
48192,note_on,,,,,0,0,15,,,,,7,,,75,100
48192,note_on,,,,,64,0,15,,,,,7,,,66,100
48192,note_on,,,,,64,0,10,,,,,2,,,78,100
48192,note_on,,,,,64,0,13,,,,,5,,,47,85
48192,note_on,,,,,64,0,16,,,,,7,,,47,100
48192,note_on,,,,,64,0,12,,,,,4,,,63,85
48192,note_on,,,,,64,0,14,,,,,6,,,35,85
48256,note_off,,,,,256,0,11,,,,,3,,,83,100
48320,note_off,,,,,128,0,16,,,,,7,,,47,100
48320,note_off,,,,,128,0,12,,,,,4,,,63,100
48320,note_off,,,,,128,0,10,,,,,2,,,78,100
48320,note_off,,,,,128,0,14,,,,,6,,,35,100
48320,note_off,,,,,128,0,15,,,,,7,,,66,100
48320,note_off,,,,,0,0,15,,,,,7,,,75,100
48320,note_off,,,,,128,0,13,,,,,5,,,47,100
48384,note_on,,,,,64,0,16,,,,,7,,,52,100
48384,note_on,,,,,64,0,10,,,,,2,,,80,100
48384,note_on,,,,,64,0,14,,,,,6,,,40,85
48384,note_on,,,,,64,0,15,,,,,7,,,71,100
48384,note_on,,,,,0,0,15,,,,,7,,,80,100
48384,note_on,,,,,64,0,12,,,,,4,,,59,85
48384,note_on,,,,,128,0,11,,,,,3,,,83,100
48384,note_on,,,,,64,0,13,,,,,5,,,52,85
48512,note_off,,,,,128,0,11,,,,,3,,,83,100
48576,note_on,,,,,64,0,11,,,,,3,,,76,90
48640,note_off,,,,,0,0,15,,,,,7,,,80,100
48640,note_off,,,,,256,0,14,,,,,6,,,40,100
48640,note_off,,,,,256,0,10,,,,,2,,,80,100
48640,note_off,,,,,256,0,12,,,,,4,,,59,100
48640,note_off,,,,,256,0,13,,,,,5,,,52,100
48640,note_off,,,,,256,0,15,,,,,7,,,71,100
48640,note_off,,,,,256,0,16,,,,,7,,,52,100
48704,note_off,,,,,128,0,11,,,,,3,,,76,100
48768,note_on,,,,,64,0,11,,,,,3,,,80,90
48768,note_on,,,,,128,0,10,,,,,2,,,83,90
48896,note_off,,,,,128,0,11,,,,,3,,,80,100
48960,note_on,,,,,320,0,13,,,,,5,,,52,90
48960,note_on,,,,,320,0,14,,,,,6,,,40,90
48960,note_on,,,,,320,0,16,,,,,7,,,52,100
48960,note_on,,,,,320,0,15,,,,,7,,,68,100
48960,note_on,,,,,64,0,11,,,,,3,,,83,90
48960,note_on,,,,,0,0,15,,,,,7,,,71,100
49024,note_off,,,,,256,0,10,,,,,2,,,83,100
49088,note_off,,,,,128,0,13,,,,,5,,,52,100
49088,note_off,,,,,128,0,11,,,,,3,,,83,100
49088,note_off,,,,,128,0,15,,,,,7,,,68,100
49088,note_off,,,,,128,0,14,,,,,6,,,40,100
49088,note_off,,,,,128,0,16,,,,,7,,,52,100
49088,note_off,,,,,0,0,15,,,,,7,,,71,100
49152,note_on,,,,,128,0,10,,,,,2,,,83,90
49152,note_on,,,,,512,0,12,,,,,4,,,59,90
49152,note_on,,,,,64,0,14,,,,,6,,,44,90
49152,note_on,,,,,0,0,15,,,,,7,,,71,100
49152,note_on,,,,,64,0,16,,,,,7,,,56,100
49152,note_on,,,,,64,0,13,,,,,5,,,56,90
49152,note_on,,,,,64,0,11,,,,,3,,,76,90
49152,note_on,,,,,64,0,15,,,,,7,,,76,100
49280,note_off,,,,,128,0,16,,,,,7,,,56,100
49280,note_off,,,,,128,0,14,,,,,6,,,44,100
49280,note_off,,,,,128,0,11,,,,,3,,,76,100
49280,note_off,,,,,128,0,15,,,,,7,,,76,100
49280,note_off,,,,,128,0,13,,,,,5,,,56,100
49280,note_off,,,,,0,0,15,,,,,7,,,71,100
49344,note_on,,,,,64,0,13,,,,,5,,,52,90
49344,note_on,,,,,64,0,14,,,,,6,,,40,90
49344,note_on,,,,,64,0,11,,,,,3,,,80,90
49344,note_on,,,,,64,0,16,,,,,7,,,52,100
49344,note_on,,,,,0,0,15,,,,,7,,,71,100
49344,note_on,,,,,64,0,15,,,,,7,,,68,100
49408,note_off,,,,,256,0,10,,,,,2,,,83,100
49408,note_off,,,,,256,0,12,,,,,4,,,59,100
49472,note_off,,,,,128,0,15,,,,,7,,,68,100
49472,note_off,,,,,0,0,15,,,,,7,,,71,100
49472,note_off,,,,,128,0,13,,,,,5,,,52,100
49472,note_off,,,,,128,0,11,,,,,3,,,80,100
49472,note_off,,,,,128,0,14,,,,,6,,,40,100
49472,note_off,,,,,128,0,16,,,,,7,,,52,100
49536,note_on,,,,,64,0,11,,,,,3,,,78,90
49536,note_on,,,,,64,0,16,,,,,7,,,59,100
49536,note_on,,,,,64,0,13,,,,,5,,,59,90
49536,note_on,,,,,128,0,12,,,,,4,,,63,90
49536,note_on,,,,,0,0,15,,,,,7,,,75,100
49536,note_on,,,,,64,0,15,,,,,7,,,78,100
49536,note_on,,,,,128,0,10,,,,,2,,,83,90
49536,note_on,,,,,64,0,14,,,,,6,,,47,90
49664,note_off,,,,,128,0,11,,,,,3,,,78,100
49728,note_on,,,,,64,0,11,,,,,3,,,71,90
49792,note_off,,,,,256,0,14,,,,,6,,,47,100
49792,note_off,,,,,256,0,12,,,,,4,,,63,100
49792,note_off,,,,,256,0,16,,,,,7,,,59,100
49792,note_off,,,,,256,0,13,,,,,5,,,59,100
49792,note_off,,,,,256,0,15,,,,,7,,,78,100
49792,note_off,,,,,0,0,15,,,,,7,,,75,100
49792,note_off,,,,,256,0,10,,,,,2,,,83,100
49856,note_off,,,,,128,0,11,,,,,3,,,71,100
49920,note_on,,,,,128,0,10,,,,,2,,,83,90
49920,note_on,,,,,64,0,11,,,,,3,,,75,90
50048,note_off,,,,,128,0,11,,,,,3,,,75,100
50112,note_on,,,,,320,0,12,,,,,4,,,63,90
50112,note_on,,,,,320,0,16,,,,,7,,,47,100
50112,note_on,,,,,320,0,15,,,,,7,,,66,100
50112,note_on,,,,,0,0,15,,,,,7,,,75,100
50112,note_on,,,,,320,0,14,,,,,6,,,35,90
50112,note_on,,,,,64,0,11,,,,,3,,,78,90
50112,note_on,,,,,320,0,13,,,,,5,,,47,90
50176,note_off,,,,,256,0,10,,,,,2,,,83,100
50240,note_off,,,,,128,0,12,,,,,4,,,63,100
50240,note_off,,,,,128,0,15,,,,,7,,,66,100
50240,note_off,,,,,128,0,14,,,,,6,,,35,100
50240,note_off,,,,,0,0,15,,,,,7,,,75,100
50240,note_off,,,,,128,0,13,,,,,5,,,47,100
50240,note_off,,,,,128,0,11,,,,,3,,,78,100
50240,note_off,,,,,128,0,16,,,,,7,,,47,100
50304,note_on,,,,,64,0,15,,,,,7,,,71,100
50304,note_on,,,,,128,0,10,,,,,2,,,83,93
50304,note_on,,,,,64,0,11,,,,,3,,,83,93
50304,note_on,,,,,64,0,14,,,,,6,,,39,93
50304,note_on,,,,,64,0,16,,,,,7,,,51,100
50304,note_on,,,,,64,0,12,,,,,4,,,66,93
50304,note_on,,,,,64,0,13,,,,,5,,,51,93
50304,note_on,,,,,0,0,15,,,,,7,,,78,100
50432,note_off,,,,,0,0,15,,,,,7,,,78,100
50432,note_off,,,,,128,0,16,,,,,7,,,51,100
50432,note_off,,,,,128,0,13,,,,,5,,,51,100
50432,note_off,,,,,128,0,15,,,,,7,,,71,100
50432,note_off,,,,,128,0,12,,,,,4,,,66,100
50432,note_off,,,,,128,0,11,,,,,3,,,83,100
50432,note_off,,,,,128,0,14,,,,,6,,,39,100
50496,note_on,,,,,64,0,15,,,,,7,,,66,100
50496,note_on,,,,,0,0,15,,,,,7,,,75,100
50496,note_on,,,,,64,0,12,,,,,4,,,63,96
50496,note_on,,,,,64,0,16,,,,,7,,,47,100
50496,note_on,,,,,64,0,13,,,,,5,,,47,96
50496,note_on,,,,,64,0,11,,,,,3,,,78,96
50496,note_on,,,,,64,0,14,,,,,6,,,35,96
50560,note_off,,,,,256,0,10,,,,,2,,,83,100
50624,note_off,,,,,0,0,15,,,,,7,,,75,100
50624,note_off,,,,,128,0,15,,,,,7,,,66,100
50624,note_off,,,,,128,0,13,,,,,5,,,47,100
50624,note_off,,,,,128,0,11,,,,,3,,,78,100
50624,note_off,,,,,128,0,16,,,,,7,,,47,100
50624,note_off,,,,,128,0,14,,,,,6,,,35,100
50624,note_off,,,,,128,0,12,,,,,4,,,63,100
50688,note_on,,,,,128,0,10,,,,,2,,,83,99
50688,note_on,,,,,64,0,13,,,,,5,,,52,99
50688,note_on,,,,,64,0,16,,,,,7,,,52,100
50688,note_on,,,,,64,0,12,,,,,4,,,59,99
50688,note_on,,,,,64,0,14,,,,,6,,,40,99
50688,note_on,,,,,0,0,15,,,,,7,,,80,100
50688,note_on,,,,,64,0,11,,,,,3,,,80,99
50688,note_on,,,,,64,0,15,,,,,7,,,71,100
50816,note_off,,,,,128,0,10,,,,,2,,,83,100
50880,note_on,,,,,64,0,10,,,,,2,,,76,70
50944,note_off,,,,,0,0,15,,,,,7,,,80,100
50944,note_off,,,,,256,0,15,,,,,7,,,71,100
50944,note_off,,,,,256,0,13,,,,,5,,,52,100
50944,note_off,,,,,256,0,14,,,,,6,,,40,100
50944,note_off,,,,,256,0,11,,,,,3,,,80,100
50944,note_off,,,,,256,0,16,,,,,7,,,52,100
50944,note_off,,,,,256,0,12,,,,,4,,,59,100
51008,note_off,,,,,128,0,10,,,,,2,,,76,100
51072,note_on,,,,,64,0,10,,,,,2,,,80,70
51072,note_on,,,,,128,0,11,,,,,3,,,83,70
51200,note_off,,,,,128,0,10,,,,,2,,,80,100
51264,note_on,,,,,320,0,15,,,,,7,,,68,100
51264,note_on,,,,,320,0,13,,,,,5,,,52,70
51264,note_on,,,,,64,0,10,,,,,2,,,83,70
51264,note_on,,,,,320,0,16,,,,,7,,,52,100
51264,note_on,,,,,320,0,14,,,,,6,,,40,70
51264,note_on,,,,,0,0,15,,,,,7,,,71,100
51328,note_off,,,,,256,0,11,,,,,3,,,83,100
51392,note_off,,,,,128,0,16,,,,,7,,,52,100
51392,note_off,,,,,0,0,15,,,,,7,,,71,100
51392,note_off,,,,,128,0,10,,,,,2,,,83,100
51392,note_off,,,,,128,0,13,,,,,5,,,52,100
51392,note_off,,,,,128,0,14,,,,,6,,,40,100
51392,note_off,,,,,128,0,15,,,,,7,,,68,100
51456,note_on,,,,,64,0,16,,,,,7,,,56,100
51456,note_on,,,,,64,0,10,,,,,2,,,76,70
51456,note_on,,,,,128,0,11,,,,,3,,,83,70
51456,note_on,,,,,64,0,14,,,,,6,,,44,70
51456,note_on,,,,,512,0,12,,,,,4,,,59,70
51456,note_on,,,,,64,0,15,,,,,7,,,76,100
51456,note_on,,,,,0,0,15,,,,,7,,,71,100
51456,note_on,,,,,64,0,13,,,,,5,,,56,70
51584,note_off,,,,,0,0,15,,,,,7,,,71,100
51584,note_off,,,,,128,0,15,,,,,7,,,76,100
51584,note_off,,,,,128,0,16,,,,,7,,,56,100
51584,note_off,,,,,128,0,13,,,,,5,,,56,100
51584,note_off,,,,,128,0,14,,,,,6,,,44,100
51584,note_off,,,,,128,0,10,,,,,2,,,76,100
51648,note_on,,,,,64,0,15,,,,,7,,,68,100
51648,note_on,,,,,64,0,10,,,,,2,,,80,70
51648,note_on,,,,,64,0,14,,,,,6,,,40,70
51648,note_on,,,,,64,0,16,,,,,7,,,52,100
51648,note_on,,,,,64,0,13,,,,,5,,,52,70
51648,note_on,,,,,0,0,15,,,,,7,,,71,100
51712,note_off,,,,,256,0,11,,,,,3,,,83,100
51712,note_off,,,,,256,0,12,,,,,4,,,59,100
51776,note_off,,,,,128,0,15,,,,,7,,,68,100
51776,note_off,,,,,0,0,15,,,,,7,,,71,100
51776,note_off,,,,,128,0,13,,,,,5,,,52,100
51776,note_off,,,,,128,0,10,,,,,2,,,80,100
51776,note_off,,,,,128,0,14,,,,,6,,,40,100
51776,note_off,,,,,128,0,16,,,,,7,,,52,100
51840,note_on,,,,,128,0,11,,,,,3,,,83,70
51840,note_on,,,,,64,0,13,,,,,5,,,59,70
51840,note_on,,,,,64,0,10,,,,,2,,,78,70
51840,note_on,,,,,64,0,15,,,,,7,,,78,100
51840,note_on,,,,,128,0,12,,,,,4,,,63,70
51840,note_on,,,,,0,0,15,,,,,7,,,75,100
51840,note_on,,,,,64,0,14,,,,,6,,,47,70
51840,note_on,,,,,64,0,16,,,,,7,,,59,100
51968,note_off,,,,,128,0,10,,,,,2,,,78,100
52032,note_on,,,,,64,0,10,,,,,2,,,71,70
52096,note_off,,,,,256,0,12,,,,,4,,,63,100
52096,note_off,,,,,256,0,11,,,,,3,,,83,100
52096,note_off,,,,,256,0,13,,,,,5,,,59,100
52096,note_off,,,,,0,0,15,,,,,7,,,75,100
52096,note_off,,,,,256,0,15,,,,,7,,,78,100
52096,note_off,,,,,256,0,16,,,,,7,,,59,100
52096,note_off,,,,,256,0,14,,,,,6,,,47,100
52160,note_off,,,,,128,0,10,,,,,2,,,71,100
52224,note_on,,,,,64,0,10,,,,,2,,,75,70
52224,note_on,,,,,128,0,11,,,,,3,,,83,70
52352,note_off,,,,,128,0,10,,,,,2,,,75,100
52416,note_on,,,,,320,0,16,,,,,7,,,47,100
52416,note_on,,,,,320,0,12,,,,,4,,,63,70
52416,note_on,,,,,320,0,13,,,,,5,,,47,70
52416,note_on,,,,,320,0,15,,,,,7,,,66,100
52416,note_on,,,,,0,0,15,,,,,7,,,75,100
52416,note_on,,,,,320,0,14,,,,,6,,,35,70
52416,note_on,,,,,64,0,10,,,,,2,,,78,70
52480,note_off,,,,,256,0,11,,,,,3,,,83,100
52544,note_off,,,,,0,0,15,,,,,7,,,75,100
52544,note_off,,,,,128,0,15,,,,,7,,,66,100
52544,note_off,,,,,128,0,12,,,,,4,,,63,100
52544,note_off,,,,,128,0,14,,,,,6,,,35,100
52544,note_off,,,,,128,0,16,,,,,7,,,47,100
52544,note_off,,,,,128,0,10,,,,,2,,,78,100
52544,note_off,,,,,128,0,13,,,,,5,,,47,100
52608,note_on,,,,,0,0,15,,,,,7,,,78,100
52608,note_on,,,,,64,0,15,,,,,7,,,71,100
52608,note_on,,,,,128,0,11,,,,,3,,,83,70
52608,note_on,,,,,64,0,13,,,,,5,,,51,70
52608,note_on,,,,,64,0,16,,,,,7,,,51,100
52608,note_on,,,,,64,0,12,,,,,4,,,66,70
52608,note_on,,,,,64,0,10,,,,,2,,,83,70
52608,note_on,,,,,64,0,14,,,,,6,,,39,70
52736,note_off,,,,,128,0,12,,,,,4,,,66,100
52736,note_off,,,,,0,0,15,,,,,7,,,78,100
52736,note_off,,,,,128,0,15,,,,,7,,,71,100
52736,note_off,,,,,128,0,13,,,,,5,,,51,100
52736,note_off,,,,,128,0,10,,,,,2,,,83,100
52736,note_off,,,,,128,0,16,,,,,7,,,51,100
52736,note_off,,,,,128,0,14,,,,,6,,,39,100
52800,note_on,,,,,64,0,16,,,,,7,,,47,100
52800,note_on,,,,,64,0,10,,,,,2,,,78,70
52800,note_on,,,,,64,0,13,,,,,5,,,47,70
52800,note_on,,,,,64,0,12,,,,,4,,,63,70
52800,note_on,,,,,64,0,15,,,,,7,,,66,100
52800,note_on,,,,,0,0,15,,,,,7,,,75,100
52800,note_on,,,,,64,0,14,,,,,6,,,35,70
52864,note_off,,,,,256,0,11,,,,,3,,,83,100
52928,note_off,,,,,128,0,13,,,,,5,,,47,100
52928,note_off,,,,,0,0,15,,,,,7,,,75,100
52928,note_off,,,,,128,0,12,,,,,4,,,63,100
52928,note_off,,,,,128,0,15,,,,,7,,,66,100
52928,note_off,,,,,128,0,14,,,,,6,,,35,100
52928,note_off,,,,,128,0,10,,,,,2,,,78,100
52928,note_off,,,,,128,0,16,,,,,7,,,47,100
52992,note_on,,,,,64,0,10,,,,,2,,,80,70
52992,note_on,,,,,64,0,14,,,,,6,,,40,70
52992,note_on,,,,,128,0,11,,,,,3,,,83,70
52992,note_on,,,,,64,0,12,,,,,4,,,59,70
52992,note_on,,,,,0,0,15,,,,,7,,,80,100
52992,note_on,,,,,64,0,13,,,,,5,,,52,70
52992,note_on,,,,,64,0,16,,,,,7,,,52,100
52992,note_on,,,,,64,0,15,,,,,7,,,71,100
53120,note_off,,,,,128,0,11,,,,,3,,,83,100
53184,note_on,,,,,64,0,11,,,,,3,,,76,60
53248,note_off,,,,,256,0,10,,,,,2,,,80,100
53248,note_off,,,,,256,0,14,,,,,6,,,40,100
53248,note_off,,,,,256,0,15,,,,,7,,,71,100
53248,note_off,,,,,256,0,16,,,,,7,,,52,100
53248,note_off,,,,,256,0,12,,,,,4,,,59,100
53248,note_off,,,,,0,0,15,,,,,7,,,80,100
53248,note_off,,,,,256,0,13,,,,,5,,,52,100
53312,note_off,,,,,128,0,11,,,,,3,,,76,100
53376,note_on,,,,,64,0,11,,,,,3,,,80,60
53376,note_on,,,,,128,0,10,,,,,2,,,83,60
53504,note_off,,,,,128,0,11,,,,,3,,,80,100
53568,note_on,,,,,320,0,16,,,,,7,,,52,100
53568,note_on,,,,,0,0,15,,,,,7,,,71,100
53568,note_on,,,,,320,0,14,,,,,6,,,40,60
53568,note_on,,,,,320,0,13,,,,,5,,,52,60
53568,note_on,,,,,320,0,15,,,,,7,,,68,100
53568,note_on,,,,,64,0,11,,,,,3,,,83,60
53632,note_off,,,,,256,0,10,,,,,2,,,83,100
53696,note_off,,,,,0,0,15,,,,,7,,,71,100
53696,note_off,,,,,128,0,11,,,,,3,,,83,100
53696,note_off,,,,,128,0,13,,,,,5,,,52,100
53696,note_off,,,,,128,0,15,,,,,7,,,68,100
53696,note_off,,,,,128,0,14,,,,,6,,,40,100
53696,note_off,,,,,128,0,16,,,,,7,,,52,100
53760,note_on,,,,,64,0,15,,,,,7,,,76,100
53760,note_on,,,,,64,0,11,,,,,3,,,76,60
53760,note_on,,,,,64,0,16,,,,,7,,,56,100
53760,note_on,,,,,64,0,13,,,,,5,,,56,60
53760,note_on,,,,,64,0,14,,,,,6,,,44,60
53760,note_on,,,,,128,0,10,,,,,2,,,83,60
53760,note_on,,,,,512,0,12,,,,,4,,,59,60
53760,note_on,,,,,0,0,15,,,,,7,,,71,100
53888,note_off,,,,,128,0,16,,,,,7,,,56,100
53888,note_off,,,,,128,0,14,,,,,6,,,44,100
53888,note_off,,,,,128,0,13,,,,,5,,,56,100
53888,note_off,,,,,128,0,11,,,,,3,,,76,100
53888,note_off,,,,,128,0,15,,,,,7,,,76,100
53888,note_off,,,,,0,0,15,,,,,7,,,71,100
53952,note_on,,,,,64,0,15,,,,,7,,,68,100
53952,note_on,,,,,64,0,11,,,,,3,,,80,60
53952,note_on,,,,,64,0,14,,,,,6,,,40,60
53952,note_on,,,,,0,0,15,,,,,7,,,71,100
53952,note_on,,,,,64,0,16,,,,,7,,,52,100
53952,note_on,,,,,64,0,13,,,,,5,,,52,60
54016,note_off,,,,,256,0,10,,,,,2,,,83,100
54016,note_off,,,,,256,0,12,,,,,4,,,59,100
54080,note_off,,,,,128,0,15,,,,,7,,,68,100
54080,note_off,,,,,0,0,15,,,,,7,,,71,100
54080,note_off,,,,,128,0,14,,,,,6,,,40,100
54080,note_off,,,,,128,0,11,,,,,3,,,80,100
54080,note_off,,,,,128,0,16,,,,,7,,,52,100
54080,note_off,,,,,128,0,13,,,,,5,,,52,100
54144,note_on,,,,,64,0,15,,,,,7,,,78,100
54144,note_on,,,,,0,0,15,,,,,7,,,75,100
54144,note_on,,,,,128,0,10,,,,,2,,,83,60
54144,note_on,,,,,64,0,11,,,,,3,,,78,60
54144,note_on,,,,,64,0,16,,,,,7,,,59,100
54144,note_on,,,,,128,0,12,,,,,4,,,63,60
54144,note_on,,,,,64,0,14,,,,,6,,,47,60
54144,note_on,,,,,64,0,13,,,,,5,,,59,60
54272,note_off,,,,,128,0,11,,,,,3,,,78,100
54336,note_on,,,,,64,0,11,,,,,3,,,71,60
54400,note_off,,,,,256,0,16,,,,,7,,,59,100
54400,note_off,,,,,256,0,10,,,,,2,,,83,100
54400,note_off,,,,,256,0,13,,,,,5,,,59,100
54400,note_off,,,,,0,0,15,,,,,7,,,75,100
54400,note_off,,,,,256,0,15,,,,,7,,,78,100
54400,note_off,,,,,256,0,12,,,,,4,,,63,100
54400,note_off,,,,,256,0,14,,,,,6,,,47,100
54464,note_off,,,,,128,0,11,,,,,3,,,71,100
54528,note_on,,,,,64,0,11,,,,,3,,,75,60
54528,note_on,,,,,128,0,10,,,,,2,,,83,60
54656,note_off,,,,,128,0,11,,,,,3,,,75,100
54720,note_on,,,,,0,0,15,,,,,7,,,75,100
54720,note_on,,,,,64,0,11,,,,,3,,,78,62
54720,note_on,,,,,320,0,16,,,,,7,,,47,100
54720,note_on,,,,,320,0,13,,,,,5,,,47,62
54720,note_on,,,,,320,0,14,,,,,6,,,35,62
54720,note_on,,,,,320,0,15,,,,,7,,,66,100
54720,note_on,,,,,320,0,12,,,,,4,,,63,62
54784,note_off,,,,,256,0,10,,,,,2,,,83,100
54848,note_off,,,,,128,0,11,,,,,3,,,78,100
54848,note_off,,,,,128,0,16,,,,,7,,,47,100
54848,note_off,,,,,128,0,13,,,,,5,,,47,100
54848,note_off,,,,,128,0,15,,,,,7,,,66,100
54848,note_off,,,,,0,0,15,,,,,7,,,75,100
54848,note_off,,,,,128,0,14,,,,,6,,,35,100
54848,note_off,,,,,128,0,12,,,,,4,,,63,100
54912,note_on,,,,,64,0,12,,,,,4,,,66,64
54912,note_on,,,,,64,0,15,,,,,7,,,71,100
54912,note_on,,,,,0,0,15,,,,,7,,,78,100
54912,note_on,,,,,64,0,11,,,,,3,,,83,64
54912,note_on,,,,,64,0,16,,,,,7,,,51,100
54912,note_on,,,,,128,0,10,,,,,2,,,83,64
54912,note_on,,,,,64,0,13,,,,,5,,,51,64
54912,note_on,,,,,64,0,14,,,,,6,,,39,64
55040,note_off,,,,,0,0,15,,,,,7,,,78,100
55040,note_off,,,,,128,0,15,,,,,7,,,71,100
55040,note_off,,,,,128,0,16,,,,,7,,,51,100
55040,note_off,,,,,128,0,11,,,,,3,,,83,100
55040,note_off,,,,,128,0,14,,,,,6,,,39,100
55040,note_off,,,,,128,0,12,,,,,4,,,66,100
55040,note_off,,,,,128,0,13,,,,,5,,,51,100
55104,note_on,,,,,64,0,13,,,,,5,,,47,67
55104,note_on,,,,,64,0,12,,,,,4,,,63,67
55104,note_on,,,,,64,0,11,,,,,3,,,78,67
55104,note_on,,,,,64,0,14,,,,,6,,,35,67
55104,note_on,,,,,64,0,16,,,,,7,,,47,100
55104,note_on,,,,,0,0,15,,,,,7,,,75,100
55104,note_on,,,,,64,0,15,,,,,7,,,66,100
55168,note_off,,,,,256,0,10,,,,,2,,,83,100
55232,note_off,,,,,128,0,11,,,,,3,,,78,100
55232,note_off,,,,,0,0,15,,,,,7,,,75,100
55232,note_off,,,,,128,0,13,,,,,5,,,47,100
55232,note_off,,,,,128,0,15,,,,,7,,,66,100
55232,note_off,,,,,128,0,12,,,,,4,,,63,100
55232,note_off,,,,,128,0,16,,,,,7,,,47,100
55232,note_off,,,,,128,0,14,,,,,6,,,35,100
55296,note_on,,,,,64,0,11,,,,,3,,,80,69
55296,note_on,,,,,64,0,13,,,,,5,,,52,69
55296,note_on,,,,,64,0,14,,,,,6,,,40,69
55296,note_on,,,,,128,0,10,,,,,2,,,83,69
55296,note_on,,,,,64,0,15,,,,,7,,,71,100
55296,note_on,,,,,0,0,15,,,,,7,,,80,100
55296,note_on,,,,,64,0,16,,,,,7,,,52,100
55296,note_on,,,,,64,0,12,,,,,4,,,64,69
55392,note_on,,,,,9056,0,8,,,,,0,,,83,100
55456,note_off,,,,,64,0,8,,,,,0,,,83,100
55488,note_on,,,,,32,0,8,,,,,0,,,81,100
55552,note_off,,,,,256,0,10,,,,,2,,,83,100
55552,note_off,,,,,256,0,16,,,,,7,,,52,100
55552,note_off,,,,,256,0,12,,,,,4,,,64,100
55552,note_off,,,,,256,0,11,,,,,3,,,80,100
55552,note_off,,,,,256,0,13,,,,,5,,,52,100
55552,note_off,,,,,256,0,14,,,,,6,,,40,100
55552,note_off,,,,,0,0,15,,,,,7,,,80,100
55552,note_off,,,,,256,0,15,,,,,7,,,71,100
55552,note_off,,,,,64,0,8,,,,,0,,,81,100
55584,note_on,,,,,32,0,8,,,,,0,,,83,100
55648,note_off,,,,,64,0,8,,,,,0,,,83,100
55680,note_on,,,,,32,0,8,,,,,0,,,80,100
55744,note_off,,,,,64,0,8,,,,,0,,,80,100
55776,note_on,,,,,32,0,8,,,,,0,,,81,100
55840,note_off,,,,,64,0,8,,,,,0,,,81,100
55872,note_on,,,,,32,0,8,,,,,0,,,78,100
55872,note_on,,,,,320,0,14,,,,,6,,,40,85
55872,note_on,,,,,320,0,16,,,,,7,,,52,100
55872,note_on,,,,,320,0,15,,,,,7,,,68,100
55872,note_on,,,,,0,0,15,,,,,7,,,71,100
55872,note_on,,,,,320,0,13,,,,,5,,,52,85
55936,note_off,,,,,64,0,8,,,,,0,,,78,100
55968,note_on,,,,,32,0,8,,,,,0,,,80,100
56000,note_off,,,,,128,0,13,,,,,5,,,52,100
56000,note_off,,,,,128,0,15,,,,,7,,,68,100
56000,note_off,,,,,128,0,14,,,,,6,,,40,100
56000,note_off,,,,,128,0,16,,,,,7,,,52,100
56000,note_off,,,,,0,0,15,,,,,7,,,71,100
56032,note_off,,,,,64,0,8,,,,,0,,,80,100
56064,note_on,,,,,0,0,15,,,,,7,,,76,100
56064,note_on,,,,,64,0,15,,,,,7,,,71,100
56064,note_on,,,,,64,0,13,,,,,5,,,56,85
56064,note_on,,,,,64,0,14,,,,,6,,,44,85
56064,note_on,,,,,32,0,8,,,,,0,,,76,100
56064,note_on,,,,,64,0,16,,,,,7,,,56,100
56128,note_off,,,,,64,0,8,,,,,0,,,76,100
56160,note_on,,,,,32,0,8,,,,,0,,,78,100
56192,note_off,,,,,128,0,13,,,,,5,,,56,100
56192,note_off,,,,,128,0,15,,,,,7,,,71,100
56192,note_off,,,,,0,0,15,,,,,7,,,76,100
56192,note_off,,,,,128,0,16,,,,,7,,,56,100
56192,note_off,,,,,128,0,14,,,,,6,,,44,100
56224,note_off,,,,,64,0,8,,,,,0,,,78,100
56256,note_on,,,,,64,0,16,,,,,7,,,52,100
56256,note_on,,,,,32,0,8,,,,,0,,,74,100
56256,note_on,,,,,64,0,15,,,,,7,,,68,100
56256,note_on,,,,,64,0,14,,,,,6,,,40,85
56256,note_on,,,,,0,0,15,,,,,7,,,71,100
56256,note_on,,,,,64,0,13,,,,,5,,,52,85
56320,note_off,,,,,64,0,8,,,,,0,,,74,100
56352,note_on,,,,,32,0,8,,,,,0,,,76,100
56384,note_off,,,,,128,0,15,,,,,7,,,68,100
56384,note_off,,,,,0,0,15,,,,,7,,,71,100
56384,note_off,,,,,128,0,16,,,,,7,,,52,100
56384,note_off,,,,,128,0,14,,,,,6,,,40,100
56384,note_off,,,,,128,0,13,,,,,5,,,52,100
56416,note_off,,,,,64,0,8,,,,,0,,,76,100
56448,note_on,,,,,64,0,13,,,,,5,,,45,85
56448,note_on,,,,,64,0,15,,,,,7,,,64,100
56448,note_on,,,,,896,0,11,,,,,3,,,80,85
56448,note_on,,,,,896,0,12,,,,,4,,,64,85
56448,note_on,,,,,32,0,8,,,,,0,,,73,100
56448,note_on,,,,,64,0,14,,,,,6,,,33,85
56448,note_on,,,,,0,0,15,,,,,7,,,68,100
56448,note_on,,,,,64,0,16,,,,,7,,,45,100
56448,note_on,,,,,896,0,10,,,,,2,,,85,85
56544,note_on,,,,,10208,0,9,,,,,1,,,76,100
56608,note_off,,,,,64,0,9,,,,,1,,,76,100
56640,note_on,,,,,32,0,9,,,,,1,,,74,100
56704,note_off,,,,,256,0,11,,,,,3,,,80,100
56704,note_off,,,,,256,0,13,,,,,5,,,45,100
56704,note_off,,,,,256,0,10,,,,,2,,,85,100
56704,note_off,,,,,256,0,14,,,,,6,,,33,100
56704,note_off,,,,,64,0,9,,,,,1,,,74,100
56704,note_off,,,,,256,0,8,,,,,0,,,73,100
56704,note_off,,,,,256,0,12,,,,,4,,,64,100
56704,note_off,,,,,256,0,15,,,,,7,,,64,100
56704,note_off,,,,,0,0,15,,,,,7,,,68,100
56704,note_off,,,,,256,0,16,,,,,7,,,45,100
56736,note_on,,,,,32,0,9,,,,,1,,,76,100
56800,note_off,,,,,64,0,9,,,,,1,,,76,100
56832,note_on,,,,,32,0,9,,,,,1,,,73,100
56896,note_off,,,,,64,0,9,,,,,1,,,73,100
56928,note_on,,,,,32,0,9,,,,,1,,,74,100
56992,note_off,,,,,64,0,9,,,,,1,,,74,100
57024,note_on,,,,,320,0,16,,,,,7,,,57,100
57024,note_on,,,,,32,0,9,,,,,1,,,71,100
57024,note_on,,,,,0,0,15,,,,,7,,,73,100
57024,note_on,,,,,320,0,15,,,,,7,,,64,100
57024,note_on,,,,,320,0,13,,,,,5,,,57,85
57024,note_on,,,,,320,0,14,,,,,6,,,45,85
57088,note_off,,,,,64,0,9,,,,,1,,,71,100
57120,note_on,,,,,32,0,9,,,,,1,,,73,100
57152,note_off,,,,,128,0,13,,,,,5,,,57,100
57152,note_off,,,,,128,0,15,,,,,7,,,64,100
57152,note_off,,,,,0,0,15,,,,,7,,,73,100
57152,note_off,,,,,128,0,14,,,,,6,,,45,100
57152,note_off,,,,,128,0,16,,,,,7,,,57,100
57184,note_off,,,,,64,0,9,,,,,1,,,73,100
57216,note_on,,,,,32,0,9,,,,,1,,,69,100
57216,note_on,,,,,64,0,14,,,,,6,,,49,85
57216,note_on,,,,,64,0,16,,,,,7,,,61,100
57216,note_on,,,,,64,0,13,,,,,5,,,61,85
57216,note_on,,,,,0,0,15,,,,,7,,,76,100
57216,note_on,,,,,64,0,15,,,,,7,,,73,100
57280,note_off,,,,,64,0,9,,,,,1,,,69,100
57312,note_on,,,,,32,0,9,,,,,1,,,71,100
57344,note_off,,,,,0,0,15,,,,,7,,,76,100
57344,note_off,,,,,128,0,16,,,,,7,,,61,100
57344,note_off,,,,,128,0,15,,,,,7,,,73,100
57344,note_off,,,,,128,0,13,,,,,5,,,61,100
57344,note_off,,,,,128,0,14,,,,,6,,,49,100
57376,note_off,,,,,64,0,9,,,,,1,,,71,100
57408,note_on,,,,,64,0,14,,,,,6,,,45,85
57408,note_on,,,,,32,0,9,,,,,1,,,68,100
57408,note_on,,,,,0,0,15,,,,,7,,,73,100
57408,note_on,,,,,64,0,15,,,,,7,,,64,100
57408,note_on,,,,,64,0,13,,,,,5,,,57,85
57408,note_on,,,,,64,0,16,,,,,7,,,57,100
57472,note_off,,,,,64,0,9,,,,,1,,,68,100
57504,note_on,,,,,32,0,9,,,,,1,,,69,100
57536,note_off,,,,,0,0,15,,,,,7,,,73,100
57536,note_off,,,,,128,0,14,,,,,6,,,45,100
57536,note_off,,,,,128,0,15,,,,,7,,,64,100
57536,note_off,,,,,128,0,13,,,,,5,,,57,100
57536,note_off,,,,,128,0,16,,,,,7,,,57,100
57568,note_off,,,,,64,0,9,,,,,1,,,69,100
57600,note_on,,,,,896,0,10,,,,,2,,,85,85
57600,note_on,,,,,64,0,16,,,,,7,,,50,100
57600,note_on,,,,,896,0,12,,,,,4,,,62,85
57600,note_on,,,,,64,0,14,,,,,6,,,38,85
57600,note_on,,,,,64,0,13,,,,,5,,,50,85
57600,note_on,,,,,0,0,15,,,,,7,,,69,100
57600,note_on,,,,,64,0,15,,,,,7,,,61,100
57600,note_on,,,,,32,0,9,,,,,1,,,66,100
57600,note_on,,,,,896,0,11,,,,,3,,,78,85
57696,note_on,,,,,992,0,8,,,,,0,,,81,100
57760,note_off,,,,,64,0,8,,,,,0,,,81,100
57792,note_on,,,,,32,0,8,,,,,0,,,80,100
57856,note_off,,,,,256,0,10,,,,,2,,,85,100
57856,note_off,,,,,256,0,16,,,,,7,,,50,100
57856,note_off,,,,,256,0,14,,,,,6,,,38,100
57856,note_off,,,,,256,0,9,,,,,1,,,66,100
57856,note_off,,,,,256,0,11,,,,,3,,,78,100
57856,note_off,,,,,64,0,8,,,,,0,,,80,100
57856,note_off,,,,,256,0,15,,,,,7,,,61,100
57856,note_off,,,,,256,0,13,,,,,5,,,50,100
57856,note_off,,,,,256,0,12,,,,,4,,,62,100
57856,note_off,,,,,0,0,15,,,,,7,,,69,100
57888,note_on,,,,,32,0,8,,,,,0,,,81,100
57952,note_off,,,,,64,0,8,,,,,0,,,81,100
57984,note_on,,,,,32,0,8,,,,,0,,,78,100
58048,note_off,,,,,64,0,8,,,,,0,,,78,100
58080,note_on,,,,,32,0,8,,,,,0,,,80,100
58144,note_off,,,,,64,0,8,,,,,0,,,80,100
58176,note_on,,,,,320,0,14,,,,,6,,,38,85
58176,note_on,,,,,32,0,8,,,,,0,,,76,100
58176,note_on,,,,,320,0,16,,,,,7,,,50,100
58176,note_on,,,,,320,0,13,,,,,5,,,50,85
58176,note_on,,,,,320,0,15,,,,,7,,,66,100
58176,note_on,,,,,0,0,15,,,,,7,,,69,100
58240,note_off,,,,,64,0,8,,,,,0,,,76,100
58272,note_on,,,,,32,0,8,,,,,0,,,78,100
58304,note_off,,,,,0,0,15,,,,,7,,,69,100
58304,note_off,,,,,128,0,14,,,,,6,,,38,100
58304,note_off,,,,,128,0,16,,,,,7,,,50,100
58304,note_off,,,,,128,0,13,,,,,5,,,50,100
58304,note_off,,,,,128,0,15,,,,,7,,,66,100
58336,note_off,,,,,64,0,8,,,,,0,,,78,100
58368,note_on,,,,,64,0,14,,,,,6,,,42,85
58368,note_on,,,,,64,0,13,,,,,5,,,54,85
58368,note_on,,,,,64,0,16,,,,,7,,,54,100
58368,note_on,,,,,32,0,8,,,,,0,,,74,100
58368,note_on,,,,,64,0,15,,,,,7,,,69,100
58368,note_on,,,,,0,0,15,,,,,7,,,74,100
58432,note_off,,,,,64,0,8,,,,,0,,,74,100
58464,note_on,,,,,32,0,8,,,,,0,,,76,100
58496,note_off,,,,,128,0,16,,,,,7,,,54,100
58496,note_off,,,,,128,0,15,,,,,7,,,69,100
58496,note_off,,,,,128,0,14,,,,,6,,,42,100
58496,note_off,,,,,0,0,15,,,,,7,,,74,100
58496,note_off,,,,,128,0,13,,,,,5,,,54,100
58528,note_off,,,,,64,0,8,,,,,0,,,76,100
58560,note_on,,,,,64,0,15,,,,,7,,,66,100
58560,note_on,,,,,64,0,16,,,,,7,,,50,100
58560,note_on,,,,,0,0,15,,,,,7,,,69,100
58560,note_on,,,,,64,0,14,,,,,6,,,38,85
58560,note_on,,,,,64,0,13,,,,,5,,,50,85
58560,note_on,,,,,32,0,8,,,,,0,,,73,100
58624,note_off,,,,,64,0,8,,,,,0,,,73,100
58656,note_on,,,,,32,0,8,,,,,0,,,74,100
58688,note_off,,,,,128,0,15,,,,,7,,,66,100
58688,note_off,,,,,0,0,15,,,,,7,,,69,100
58688,note_off,,,,,128,0,16,,,,,7,,,50,100
58688,note_off,,,,,128,0,14,,,,,6,,,38,100
58688,note_off,,,,,128,0,13,,,,,5,,,50,100
58720,note_off,,,,,64,0,8,,,,,0,,,74,100
58752,note_on,,,,,64,0,13,,,,,5,,,44,85
58752,note_on,,,,,64,0,16,,,,,7,,,44,100
58752,note_on,,,,,32,0,8,,,,,0,,,71,100
58752,note_on,,,,,896,0,11,,,,,3,,,78,85
58752,note_on,,,,,896,0,10,,,,,2,,,83,85
58752,note_on,,,,,64,0,15,,,,,7,,,62,100
58752,note_on,,,,,896,0,12,,,,,4,,,62,85
58752,note_on,,,,,64,0,14,,,,,6,,,44,85
58752,note_on,,,,,0,0,15,,,,,7,,,66,100
58848,note_on,,,,,992,0,9,,,,,1,,,74,100
58912,note_off,,,,,64,0,9,,,,,1,,,74,100
58944,note_on,,,,,32,0,9,,,,,1,,,73,100
59008,note_off,,,,,256,0,14,,,,,6,,,44,100
59008,note_off,,,,,64,0,9,,,,,1,,,73,100
59008,note_off,,,,,256,0,12,,,,,4,,,62,100
59008,note_off,,,,,256,0,8,,,,,0,,,71,100
59008,note_off,,,,,0,0,15,,,,,7,,,66,100
59008,note_off,,,,,256,0,11,,,,,3,,,78,100
59008,note_off,,,,,256,0,16,,,,,7,,,44,100
59008,note_off,,,,,256,0,13,,,,,5,,,44,100
59008,note_off,,,,,256,0,10,,,,,2,,,83,100
59008,note_off,,,,,256,0,15,,,,,7,,,62,100
59040,note_on,,,,,32,0,9,,,,,1,,,74,100
59104,note_off,,,,,64,0,9,,,,,1,,,74,100
59136,note_on,,,,,32,0,9,,,,,1,,,71,100
59200,note_off,,,,,64,0,9,,,,,1,,,71,100
59232,note_on,,,,,32,0,9,,,,,1,,,73,100
59296,note_off,,,,,64,0,9,,,,,1,,,73,100
59328,note_on,,,,,32,0,9,,,,,1,,,69,100
59328,note_on,,,,,320,0,16,,,,,7,,,56,100
59328,note_on,,,,,320,0,14,,,,,6,,,44,85
59328,note_on,,,,,0,0,15,,,,,7,,,62,100
59328,note_on,,,,,320,0,15,,,,,7,,,71,100
59328,note_on,,,,,320,0,13,,,,,5,,,56,85
59392,note_off,,,,,64,0,9,,,,,1,,,69,100
59424,note_on,,,,,32,0,9,,,,,1,,,71,100
59456,note_off,,,,,128,0,16,,,,,7,,,56,100
59456,note_off,,,,,128,0,15,,,,,7,,,71,100
59456,note_off,,,,,0,0,15,,,,,7,,,62,100
59456,note_off,,,,,128,0,13,,,,,5,,,56,100
59456,note_off,,,,,128,0,14,,,,,6,,,44,100
59488,note_off,,,,,64,0,9,,,,,1,,,71,100
59520,note_on,,,,,0,0,15,,,,,7,,,74,100
59520,note_on,,,,,64,0,13,,,,,5,,,59,85
59520,note_on,,,,,32,0,9,,,,,1,,,68,100
59520,note_on,,,,,64,0,15,,,,,7,,,71,100
59520,note_on,,,,,64,0,16,,,,,7,,,59,100
59520,note_on,,,,,64,0,14,,,,,6,,,47,85
59584,note_off,,,,,64,0,9,,,,,1,,,68,100
59616,note_on,,,,,32,0,9,,,,,1,,,69,100
59648,note_off,,,,,128,0,13,,,,,5,,,59,100
59648,note_off,,,,,128,0,16,,,,,7,,,59,100
59648,note_off,,,,,128,0,14,,,,,6,,,47,100
59648,note_off,,,,,0,0,15,,,,,7,,,74,100
59648,note_off,,,,,128,0,15,,,,,7,,,71,100
59680,note_off,,,,,64,0,9,,,,,1,,,69,100
59712,note_on,,,,,32,0,9,,,,,1,,,66,100
59712,note_on,,,,,64,0,13,,,,,5,,,56,85
59712,note_on,,,,,64,0,16,,,,,7,,,56,100
59712,note_on,,,,,64,0,14,,,,,6,,,44,85
59712,note_on,,,,,0,0,15,,,,,7,,,62,100
59712,note_on,,,,,64,0,15,,,,,7,,,71,100
59776,note_off,,,,,64,0,9,,,,,1,,,66,100
59808,note_on,,,,,32,0,9,,,,,1,,,68,100
59840,note_off,,,,,128,0,14,,,,,6,,,44,100
59840,note_off,,,,,0,0,15,,,,,7,,,62,100
59840,note_off,,,,,128,0,13,,,,,5,,,56,100
59840,note_off,,,,,128,0,16,,,,,7,,,56,100
59840,note_off,,,,,128,0,15,,,,,7,,,71,100
59872,note_off,,,,,64,0,9,,,,,1,,,68,100
59904,note_on,,,,,64,0,14,,,,,6,,,37,85
59904,note_on,,,,,64,0,15,,,,,7,,,68,100
59904,note_on,,,,,0,0,15,,,,,7,,,71,100
59904,note_on,,,,,64,0,16,,,,,7,,,49,100
59904,note_on,,,,,896,0,11,,,,,3,,,76,85
59904,note_on,,,,,64,0,13,,,,,5,,,49,85
59904,note_on,,,,,32,0,9,,,,,1,,,64,100
59904,note_on,,,,,896,0,10,,,,,2,,,83,85
59904,note_on,,,,,896,0,12,,,,,4,,,61,85
60000,note_on,,,,,992,0,8,,,,,0,,,80,100
60064,note_off,,,,,64,0,8,,,,,0,,,80,100
60096,note_on,,,,,32,0,8,,,,,0,,,78,100
60160,note_off,,,,,256,0,14,,,,,6,,,37,100
60160,note_off,,,,,256,0,11,,,,,3,,,76,100
60160,note_off,,,,,256,0,16,,,,,7,,,49,100
60160,note_off,,,,,256,0,10,,,,,2,,,83,100
60160,note_off,,,,,64,0,8,,,,,0,,,78,100
60160,note_off,,,,,256,0,13,,,,,5,,,49,100
60160,note_off,,,,,256,0,15,,,,,7,,,68,100
60160,note_off,,,,,0,0,15,,,,,7,,,71,100
60160,note_off,,,,,256,0,12,,,,,4,,,61,100
60160,note_off,,,,,256,0,9,,,,,1,,,64,100
60192,note_on,,,,,32,0,8,,,,,0,,,80,100
60256,note_off,,,,,64,0,8,,,,,0,,,80,100
60288,note_on,,,,,32,0,8,,,,,0,,,76,100
60352,note_off,,,,,64,0,8,,,,,0,,,76,100
60384,note_on,,,,,32,0,8,,,,,0,,,78,100
60448,note_off,,,,,64,0,8,,,,,0,,,78,100
60480,note_on,,,,,320,0,13,,,,,5,,,49,85
60480,note_on,,,,,0,0,15,,,,,7,,,68,100
60480,note_on,,,,,320,0,15,,,,,7,,,64,100
60480,note_on,,,,,32,0,8,,,,,0,,,74,100
60480,note_on,,,,,320,0,16,,,,,7,,,49,100
60480,note_on,,,,,320,0,14,,,,,6,,,37,85
60544,note_off,,,,,64,0,8,,,,,0,,,74,100
60576,note_on,,,,,32,0,8,,,,,0,,,76,100
60608,note_off,,,,,128,0,16,,,,,7,,,49,100
60608,note_off,,,,,0,0,15,,,,,7,,,68,100
60608,note_off,,,,,128,0,13,,,,,5,,,49,100
60608,note_off,,,,,128,0,15,,,,,7,,,64,100
60608,note_off,,,,,128,0,14,,,,,6,,,37,100
60640,note_off,,,,,64,0,8,,,,,0,,,76,100
60672,note_on,,,,,64,0,14,,,,,6,,,40,85
60672,note_on,,,,,32,0,8,,,,,0,,,73,100
60672,note_on,,,,,0,0,15,,,,,7,,,68,100
60672,note_on,,,,,64,0,15,,,,,7,,,73,100
60672,note_on,,,,,64,0,13,,,,,5,,,52,85
60672,note_on,,,,,64,0,16,,,,,7,,,52,100
60736,note_off,,,,,64,0,8,,,,,0,,,73,100
60768,note_on,,,,,32,0,8,,,,,0,,,74,100
60800,note_off,,,,,128,0,13,,,,,5,,,52,100
60800,note_off,,,,,128,0,14,,,,,6,,,40,100
60800,note_off,,,,,128,0,16,,,,,7,,,52,100
60800,note_off,,,,,128,0,15,,,,,7,,,73,100
60800,note_off,,,,,0,0,15,,,,,7,,,68,100
60832,note_off,,,,,64,0,8,,,,,0,,,74,100
60864,note_on,,,,,64,0,14,,,,,6,,,37,85
60864,note_on,,,,,64,0,15,,,,,7,,,64,100
60864,note_on,,,,,64,0,13,,,,,5,,,49,85
60864,note_on,,,,,0,0,15,,,,,7,,,68,100
60864,note_on,,,,,32,0,8,,,,,0,,,71,100
60864,note_on,,,,,64,0,16,,,,,7,,,49,100
60928,note_off,,,,,64,0,8,,,,,0,,,71,100
60960,note_on,,,,,32,0,8,,,,,0,,,73,100
60992,note_off,,,,,128,0,15,,,,,7,,,64,100
60992,note_off,,,,,0,0,15,,,,,7,,,68,100
60992,note_off,,,,,128,0,13,,,,,5,,,49,100
60992,note_off,,,,,128,0,14,,,,,6,,,37,100
60992,note_off,,,,,128,0,16,,,,,7,,,49,100
61024,note_off,,,,,64,0,8,,,,,0,,,73,100
61056,note_on,,,,,64,0,14,,,,,6,,,42,85
61056,note_on,,,,,896,0,10,,,,,2,,,81,85
61056,note_on,,,,,0,0,15,,,,,7,,,64,100
61056,note_on,,,,,64,0,15,,,,,7,,,61,100
61056,note_on,,,,,64,0,13,,,,,5,,,42,85
61056,note_on,,,,,64,0,16,,,,,7,,,42,100
61056,note_on,,,,,896,0,11,,,,,3,,,76,85
61056,note_on,,,,,32,0,8,,,,,0,,,69,100
61056,note_on,,,,,896,0,12,,,,,4,,,61,85
61152,note_on,,,,,992,0,9,,,,,1,,,73,100
61216,note_off,,,,,64,0,9,,,,,1,,,73,100
61248,note_on,,,,,32,0,9,,,,,1,,,71,100
61312,note_off,,,,,256,0,16,,,,,7,,,42,100
61312,note_off,,,,,0,0,15,,,,,7,,,64,100
61312,note_off,,,,,256,0,12,,,,,4,,,61,100
61312,note_off,,,,,256,0,15,,,,,7,,,61,100
61312,note_off,,,,,256,0,10,,,,,2,,,81,100
61312,note_off,,,,,256,0,11,,,,,3,,,76,100
61312,note_off,,,,,256,0,14,,,,,6,,,42,100
61312,note_off,,,,,256,0,13,,,,,5,,,42,100
61312,note_off,,,,,256,0,8,,,,,0,,,69,100
61312,note_off,,,,,64,0,9,,,,,1,,,71,100
61344,note_on,,,,,32,0,9,,,,,1,,,73,100
61408,note_off,,,,,64,0,9,,,,,1,,,73,100
61440,note_on,,,,,32,0,9,,,,,1,,,69,100
61504,note_off,,,,,64,0,9,,,,,1,,,69,100
61536,note_on,,,,,32,0,9,,,,,1,,,71,100
61600,note_off,,,,,64,0,9,,,,,1,,,71,100
61632,note_on,,,,,0,0,15,,,,,7,,,69,100
61632,note_on,,,,,320,0,14,,,,,6,,,42,85
61632,note_on,,,,,320,0,13,,,,,5,,,54,85
61632,note_on,,,,,32,0,9,,,,,1,,,68,100
61632,note_on,,,,,320,0,16,,,,,7,,,54,100
61632,note_on,,,,,320,0,15,,,,,7,,,73,100
61696,note_off,,,,,64,0,9,,,,,1,,,68,100
61728,note_on,,,,,32,0,9,,,,,1,,,69,100
61760,note_off,,,,,0,0,15,,,,,7,,,69,100
61760,note_off,,,,,128,0,13,,,,,5,,,54,100
61760,note_off,,,,,128,0,16,,,,,7,,,54,100
61760,note_off,,,,,128,0,14,,,,,6,,,42,100
61760,note_off,,,,,128,0,15,,,,,7,,,73,100
61792,note_off,,,,,64,0,9,,,,,1,,,69,100
61824,note_on,,,,,64,0,16,,,,,7,,,57,100
61824,note_on,,,,,64,0,13,,,,,5,,,57,85
61824,note_on,,,,,32,0,9,,,,,1,,,66,100
61824,note_on,,,,,64,0,14,,,,,6,,,45,85
61824,note_on,,,,,0,0,15,,,,,7,,,78,100
61824,note_on,,,,,64,0,15,,,,,7,,,73,100
61888,note_off,,,,,64,0,9,,,,,1,,,66,100
61920,note_on,,,,,32,0,9,,,,,1,,,68,100
61952,note_off,,,,,128,0,14,,,,,6,,,45,100
61952,note_off,,,,,0,0,15,,,,,7,,,78,100
61952,note_off,,,,,128,0,15,,,,,7,,,73,100
61952,note_off,,,,,128,0,16,,,,,7,,,57,100
61952,note_off,,,,,128,0,13,,,,,5,,,57,100
61984,note_off,,,,,64,0,9,,,,,1,,,68,100
62016,note_on,,,,,64,0,14,,,,,6,,,42,85
62016,note_on,,,,,32,0,9,,,,,1,,,64,100
62016,note_on,,,,,64,0,15,,,,,7,,,69,100
62016,note_on,,,,,0,0,15,,,,,7,,,73,100
62016,note_on,,,,,64,0,16,,,,,7,,,54,100
62016,note_on,,,,,64,0,13,,,,,5,,,54,85
62080,note_off,,,,,64,0,9,,,,,1,,,64,100
62112,note_on,,,,,32,0,9,,,,,1,,,66,100
62144,note_off,,,,,128,0,13,,,,,5,,,54,100
62144,note_off,,,,,0,0,15,,,,,7,,,73,100
62144,note_off,,,,,128,0,15,,,,,7,,,69,100
62144,note_off,,,,,128,0,16,,,,,7,,,54,100
62144,note_off,,,,,128,0,14,,,,,6,,,42,100
62176,note_off,,,,,64,0,9,,,,,1,,,66,100
62208,note_on,,,,,896,0,11,,,,,3,,,74,85
62208,note_on,,,,,896,0,12,,,,,4,,,59,85
62208,note_on,,,,,32,0,9,,,,,1,,,62,100
62208,note_on,,,,,64,0,13,,,,,5,,,47,85
62208,note_on,,,,,896,0,10,,,,,2,,,81,85
62208,note_on,,,,,64,0,16,,,,,7,,,47,100
62208,note_on,,,,,64,0,14,,,,,6,,,35,85
62208,note_on,,,,,0,0,15,,,,,7,,,69,100
62208,note_on,,,,,64,0,15,,,,,7,,,66,100
62304,note_on,,,,,992,0,8,,,,,0,,,78,100
62368,note_off,,,,,64,0,8,,,,,0,,,78,100
62400,note_on,,,,,32,0,8,,,,,0,,,76,100
62464,note_off,,,,,256,0,15,,,,,7,,,66,100
62464,note_off,,,,,256,0,10,,,,,2,,,81,100
62464,note_off,,,,,256,0,16,,,,,7,,,47,100
62464,note_off,,,,,256,0,13,,,,,5,,,47,100
62464,note_off,,,,,64,0,8,,,,,0,,,76,100
62464,note_off,,,,,256,0,9,,,,,1,,,62,100
62464,note_off,,,,,256,0,12,,,,,4,,,59,100
62464,note_off,,,,,256,0,11,,,,,3,,,74,100
62464,note_off,,,,,256,0,14,,,,,6,,,35,100
62464,note_off,,,,,0,0,15,,,,,7,,,69,100
62496,note_on,,,,,32,0,8,,,,,0,,,78,100
62560,note_off,,,,,64,0,8,,,,,0,,,78,100
62592,note_on,,,,,32,0,8,,,,,0,,,74,100
62656,note_off,,,,,64,0,8,,,,,0,,,74,100
62688,note_on,,,,,32,0,8,,,,,0,,,76,100
62752,note_off,,,,,64,0,8,,,,,0,,,76,100
62784,note_on,,,,,320,0,13,,,,,5,,,47,85
62784,note_on,,,,,320,0,14,,,,,6,,,35,85
62784,note_on,,,,,32,0,8,,,,,0,,,73,100
62784,note_on,,,,,0,0,15,,,,,7,,,62,100
62784,note_on,,,,,320,0,16,,,,,7,,,47,100
62784,note_on,,,,,320,0,15,,,,,7,,,66,100
62848,note_off,,,,,64,0,8,,,,,0,,,73,100
62880,note_on,,,,,32,0,8,,,,,0,,,74,100
62912,note_off,,,,,0,0,15,,,,,7,,,62,100
62912,note_off,,,,,128,0,15,,,,,7,,,66,100
62912,note_off,,,,,128,0,16,,,,,7,,,47,100
62912,note_off,,,,,128,0,13,,,,,5,,,47,100
62912,note_off,,,,,128,0,14,,,,,6,,,35,100
62944,note_off,,,,,64,0,8,,,,,0,,,74,100
62976,note_on,,,,,64,0,15,,,,,7,,,66,100
62976,note_on,,,,,64,0,16,,,,,7,,,50,100
62976,note_on,,,,,64,0,13,,,,,5,,,50,85
62976,note_on,,,,,64,0,14,,,,,6,,,38,85
62976,note_on,,,,,32,0,8,,,,,0,,,71,100
62976,note_on,,,,,0,0,15,,,,,7,,,71,100
63040,note_off,,,,,64,0,8,,,,,0,,,71,100
63072,note_on,,,,,32,0,8,,,,,0,,,73,100
63104,note_off,,,,,0,0,15,,,,,7,,,71,100
63104,note_off,,,,,128,0,14,,,,,6,,,38,100
63104,note_off,,,,,128,0,16,,,,,7,,,50,100
63104,note_off,,,,,128,0,13,,,,,5,,,50,100
63104,note_off,,,,,128,0,15,,,,,7,,,66,100
63136,note_off,,,,,64,0,8,,,,,0,,,73,100
63168,note_on,,,,,32,0,8,,,,,0,,,69,100
63168,note_on,,,,,64,0,15,,,,,7,,,62,100
63168,note_on,,,,,0,0,15,,,,,7,,,66,100
63168,note_on,,,,,64,0,13,,,,,5,,,47,85
63168,note_on,,,,,64,0,14,,,,,6,,,35,85
63168,note_on,,,,,64,0,16,,,,,7,,,47,100
63232,note_off,,,,,64,0,8,,,,,0,,,69,100
63264,note_on,,,,,32,0,8,,,,,0,,,71,100
63296,note_off,,,,,128,0,14,,,,,6,,,35,100
63296,note_off,,,,,128,0,13,,,,,5,,,47,100
63296,note_off,,,,,0,0,15,,,,,7,,,66,100
63296,note_off,,,,,128,0,15,,,,,7,,,62,100
63296,note_off,,,,,128,0,16,,,,,7,,,47,100
63328,note_off,,,,,64,0,8,,,,,0,,,71,100
63360,note_on,,,,,64,0,16,,,,,7,,,40,100
63360,note_on,,,,,896,0,11,,,,,3,,,74,85
63360,note_on,,,,,896,0,12,,,,,4,,,59,85
63360,note_on,,,,,64,0,13,,,,,5,,,40,85
63360,note_on,,,,,32,0,8,,,,,0,,,68,100
63360,note_on,,,,,0,0,15,,,,,7,,,62,100
63360,note_on,,,,,896,0,10,,,,,2,,,80,85
63360,note_on,,,,,64,0,15,,,,,7,,,59,100
63360,note_on,,,,,64,0,14,,,,,6,,,40,85
63456,note_on,,,,,992,0,9,,,,,1,,,71,100
63520,note_off,,,,,64,0,9,,,,,1,,,71,100
63552,note_on,,,,,32,0,9,,,,,1,,,69,100
63616,note_off,,,,,256,0,13,,,,,5,,,40,100
63616,note_off,,,,,256,0,12,,,,,4,,,59,100
63616,note_off,,,,,0,0,15,,,,,7,,,62,100
63616,note_off,,,,,256,0,8,,,,,0,,,68,100
63616,note_off,,,,,64,0,9,,,,,1,,,69,100
63616,note_off,,,,,256,0,11,,,,,3,,,74,100
63616,note_off,,,,,256,0,10,,,,,2,,,80,100
63616,note_off,,,,,256,0,14,,,,,6,,,40,100
63616,note_off,,,,,256,0,15,,,,,7,,,59,100
63616,note_off,,,,,256,0,16,,,,,7,,,40,100
63648,note_on,,,,,32,0,9,,,,,1,,,71,100
63712,note_off,,,,,64,0,9,,,,,1,,,71,100
63744,note_on,,,,,32,0,9,,,,,1,,,68,100
63808,note_off,,,,,64,0,9,,,,,1,,,68,100
63840,note_on,,,,,32,0,9,,,,,1,,,69,100
63904,note_off,,,,,64,0,9,,,,,1,,,69,100
63936,note_on,,,,,320,0,15,,,,,7,,,71,100
63936,note_on,,,,,32,0,9,,,,,1,,,66,100
63936,note_on,,,,,0,0,15,,,,,7,,,68,100
63936,note_on,,,,,320,0,14,,,,,6,,,40,85
63936,note_on,,,,,320,0,13,,,,,5,,,52,85
63936,note_on,,,,,320,0,16,,,,,7,,,52,100
64000,note_off,,,,,64,0,9,,,,,1,,,66,100
64032,note_on,,,,,32,0,9,,,,,1,,,68,100
64064,note_off,,,,,128,0,14,,,,,6,,,40,100
64064,note_off,,,,,0,0,15,,,,,7,,,68,100
64064,note_off,,,,,128,0,16,,,,,7,,,52,100
64064,note_off,,,,,128,0,15,,,,,7,,,71,100
64064,note_off,,,,,128,0,13,,,,,5,,,52,100
64096,note_off,,,,,64,0,9,,,,,1,,,68,100
64128,note_on,,,,,64,0,16,,,,,7,,,56,100
64128,note_on,,,,,32,0,9,,,,,1,,,64,100
64128,note_on,,,,,64,0,15,,,,,7,,,76,100
64128,note_on,,,,,0,0,15,,,,,7,,,71,100
64128,note_on,,,,,64,0,14,,,,,6,,,44,85
64128,note_on,,,,,64,0,13,,,,,5,,,56,85
64192,note_off,,,,,64,0,9,,,,,1,,,64,100
64224,note_on,,,,,32,0,9,,,,,1,,,66,100
64256,note_off,,,,,128,0,15,,,,,7,,,76,100
64256,note_off,,,,,0,0,15,,,,,7,,,71,100
64256,note_off,,,,,128,0,13,,,,,5,,,56,100
64256,note_off,,,,,128,0,16,,,,,7,,,56,100
64256,note_off,,,,,128,0,14,,,,,6,,,44,100
64288,note_off,,,,,64,0,9,,,,,1,,,66,100
64320,note_on,,,,,64,0,16,,,,,7,,,52,100
64320,note_on,,,,,64,0,13,,,,,5,,,52,85
64320,note_on,,,,,64,0,14,,,,,6,,,40,85
64320,note_on,,,,,32,0,9,,,,,1,,,62,100
64320,note_on,,,,,0,0,15,,,,,7,,,71,100
64320,note_on,,,,,64,0,15,,,,,7,,,68,100
64384,note_off,,,,,64,0,9,,,,,1,,,62,100
64416,note_on,,,,,32,0,9,,,,,1,,,64,100
64448,note_off,,,,,128,0,13,,,,,5,,,52,100
64448,note_off,,,,,128,0,16,,,,,7,,,52,100
64448,note_off,,,,,128,0,14,,,,,6,,,40,100
64448,note_off,,,,,0,0,15,,,,,7,,,71,100
64448,note_off,,,,,128,0,15,,,,,7,,,68,100
64480,note_off,,,,,64,0,9,,,,,1,,,64,100
64512,note_on,,,,,0,0,15,,,,,7,,,64,100
64512,note_on,,,,,896,0,10,,,,,2,,,81,85
64512,note_on,,,,,896,0,12,,,,,4,,,64,85
64512,note_on,,,,,32,0,9,,,,,1,,,61,85
64512,note_on,,,,,64,0,15,,,,,7,,,61,100
64512,note_on,,,,,896,0,11,,,,,3,,,73,85
64512,note_on,,,,,64,0,16,,,,,7,,,45,100
64512,note_on,,,,,64,0,14,,,,,6,,,33,85
64512,note_on,,,,,64,0,13,,,,,5,,,45,85
64640,note_off,,,,,128,0,10,,,,,2,,,81,100
64704,note_on,,,,,64,0,10,,,,,2,,,69,100
64768,note_off,,,,,0,0,15,,,,,7,,,64,100
64768,note_off,,,,,256,0,15,,,,,7,,,61,100
64768,note_off,,,,,256,0,11,,,,,3,,,73,100
64768,note_off,,,,,256,0,13,,,,,5,,,45,100
64768,note_off,,,,,256,0,12,,,,,4,,,64,100
64768,note_off,,,,,256,0,16,,,,,7,,,45,100
64768,note_off,,,,,256,0,14,,,,,6,,,33,100
64768,note_off,,,,,256,0,9,,,,,1,,,61,100
64832,note_off,,,,,128,0,10,,,,,2,,,69,100
64896,note_on,,,,,64,0,10,,,,,2,,,73,100
64896,note_on,,,,,128,0,11,,,,,3,,,76,100
65024,note_off,,,,,128,0,10,,,,,2,,,73,100
65088,note_on,,,,,64,0,10,,,,,2,,,76,100
65088,note_on,,,,,320,0,13,,,,,5,,,45,85
65088,note_on,,,,,320,0,16,,,,,7,,,45,100
65088,note_on,,,,,320,0,15,,,,,7,,,61,100
65088,note_on,,,,,0,0,15,,,,,7,,,64,100
65088,note_on,,,,,320,0,14,,,,,6,,,33,85
65152,note_off,,,,,256,0,11,,,,,3,,,76,100
65216,note_off,,,,,128,0,14,,,,,6,,,33,100
65216,note_off,,,,,128,0,10,,,,,2,,,76,100
65216,note_off,,,,,128,0,15,,,,,7,,,61,100
65216,note_off,,,,,0,0,15,,,,,7,,,64,100
65216,note_off,,,,,128,0,13,,,,,5,,,45,100
65216,note_off,,,,,128,0,16,,,,,7,,,45,100
65280,note_on,,,,,64,0,14,,,,,6,,,37,85
65280,note_on,,,,,128,0,11,,,,,3,,,76,100
65280,note_on,,,,,64,0,13,,,,,5,,,49,85
65280,note_on,,,,,512,0,12,,,,,4,,,64,85
65280,note_on,,,,,64,0,10,,,,,2,,,69,100
65280,note_on,,,,,64,0,15,,,,,7,,,69,100
65280,note_on,,,,,0,0,15,,,,,7,,,64,100
65280,note_on,,,,,64,0,16,,,,,7,,,49,100
65408,note_off,,,,,128,0,16,,,,,7,,,49,100
65408,note_off,,,,,128,0,13,,,,,5,,,49,100
65408,note_off,,,,,128,0,14,,,,,6,,,37,100
65408,note_off,,,,,0,0,15,,,,,7,,,64,100
65408,note_off,,,,,128,0,15,,,,,7,,,69,100
65408,note_off,,,,,128,0,10,,,,,2,,,69,100
65472,note_on,,,,,64,0,15,,,,,7,,,61,100
65472,note_on,,,,,64,0,10,,,,,2,,,73,100
65472,note_on,,,,,64,0,14,,,,,6,,,33,85
65472,note_on,,,,,64,0,13,,,,,5,,,45,85
65472,note_on,,,,,64,0,16,,,,,7,,,45,100
65472,note_on,,,,,0,0,15,,,,,7,,,64,100
65536,note_off,,,,,256,0,11,,,,,3,,,76,100
65536,note_off,,,,,256,0,12,,,,,4,,,64,100
65600,note_off,,,,,128,0,13,,,,,5,,,45,100
65600,note_off,,,,,128,0,14,,,,,6,,,33,100
65600,note_off,,,,,128,0,16,,,,,7,,,45,100
65600,note_off,,,,,0,0,15,,,,,7,,,64,100
65600,note_off,,,,,128,0,15,,,,,7,,,61,100
65600,note_off,,,,,128,0,10,,,,,2,,,73,100
65664,note_on,,,,,64,0,16,,,,,7,,,52,100
65664,note_on,,,,,64,0,14,,,,,6,,,40,85
65664,note_on,,,,,128,0,11,,,,,3,,,76,100
65664,note_on,,,,,64,0,13,,,,,5,,,52,85
65664,note_on,,,,,0,0,15,,,,,7,,,71,100
65664,note_on,,,,,64,0,15,,,,,7,,,68,100
65664,note_on,,,,,64,0,10,,,,,2,,,71,100
65664,note_on,,,,,128,0,12,,,,,4,,,68,85
65792,note_off,,,,,128,0,10,,,,,2,,,71,100
65856,note_on,,,,,64,0,10,,,,,2,,,64,100
65920,note_off,,,,,256,0,11,,,,,3,,,76,100
65920,note_off,,,,,256,0,13,,,,,5,,,52,100
65920,note_off,,,,,256,0,15,,,,,7,,,68,100
65920,note_off,,,,,0,0,15,,,,,7,,,71,100
65920,note_off,,,,,256,0,14,,,,,6,,,40,100
65920,note_off,,,,,256,0,12,,,,,4,,,68,100
65920,note_off,,,,,256,0,16,,,,,7,,,52,100
65984,note_off,,,,,128,0,10,,,,,2,,,64,100
66048,note_on,,,,,128,0,11,,,,,3,,,76,100
66048,note_on,,,,,64,0,10,,,,,2,,,68,100
66176,note_off,,,,,128,0,10,,,,,2,,,68,100
66240,note_on,,,,,320,0,16,,,,,7,,,52,100
66240,note_on,,,,,320,0,13,,,,,5,,,52,85
66240,note_on,,,,,320,0,14,,,,,6,,,40,85
66240,note_on,,,,,64,0,10,,,,,2,,,71,100
66240,note_on,,,,,320,0,12,,,,,4,,,68,85
66240,note_on,,,,,320,0,15,,,,,7,,,59,100
66240,note_on,,,,,0,0,15,,,,,7,,,68,100
66304,note_off,,,,,256,0,11,,,,,3,,,76,100
66368,note_off,,,,,128,0,14,,,,,6,,,40,100
66368,note_off,,,,,128,0,12,,,,,4,,,68,100
66368,note_off,,,,,0,0,15,,,,,7,,,68,100
66368,note_off,,,,,128,0,15,,,,,7,,,59,100
66368,note_off,,,,,128,0,13,,,,,5,,,52,100
66368,note_off,,,,,128,0,10,,,,,2,,,71,100
66368,note_off,,,,,128,0,16,,,,,7,,,52,100
66432,note_on,,,,,64,0,15,,,,,7,,,64,100
66432,note_on,,,,,128,0,11,,,,,3,,,76,100
66432,note_on,,,,,64,0,12,,,,,4,,,71,85
66432,note_on,,,,,64,0,10,,,,,2,,,76,100
66432,note_on,,,,,0,0,15,,,,,7,,,71,100
66432,note_on,,,,,64,0,14,,,,,6,,,44,85
66432,note_on,,,,,64,0,13,,,,,5,,,56,85
66432,note_on,,,,,64,0,16,,,,,7,,,56,100
66560,note_off,,,,,128,0,16,,,,,7,,,56,100
66560,note_off,,,,,0,0,15,,,,,7,,,71,100
66560,note_off,,,,,128,0,10,,,,,2,,,76,100
66560,note_off,,,,,128,0,12,,,,,4,,,71,100
66560,note_off,,,,,128,0,13,,,,,5,,,56,100
66560,note_off,,,,,128,0,14,,,,,6,,,44,100
66560,note_off,,,,,128,0,15,,,,,7,,,64,100
66624,note_on,,,,,64,0,10,,,,,2,,,71,100
66624,note_on,,,,,64,0,13,,,,,5,,,52,85
66624,note_on,,,,,64,0,14,,,,,6,,,40,85
66624,note_on,,,,,64,0,12,,,,,4,,,68,85
66624,note_on,,,,,0,0,15,,,,,7,,,68,100
66624,note_on,,,,,64,0,15,,,,,7,,,59,100
66624,note_on,,,,,64,0,16,,,,,7,,,52,100
66688,note_off,,,,,256,0,11,,,,,3,,,76,100
66752,note_off,,,,,128,0,14,,,,,6,,,40,100
66752,note_off,,,,,128,0,13,,,,,5,,,52,100
66752,note_off,,,,,128,0,16,,,,,7,,,52,100
66752,note_off,,,,,128,0,10,,,,,2,,,71,100
66752,note_off,,,,,128,0,12,,,,,4,,,68,100
66752,note_off,,,,,128,0,15,,,,,7,,,59,100
66752,note_off,,,,,0,0,15,,,,,7,,,68,100
66816,note_on,,,,,64,0,14,,,,,6,,,45,85
66816,note_on,,,,,64,0,16,,,,,7,,,57,100
66816,note_on,,,,,0,0,15,,,,,7,,,73,100
66816,note_on,,,,,64,0,12,,,,,4,,,64,85
66816,note_on,,,,,128,0,11,,,,,3,,,76,100
66816,note_on,,,,,64,0,10,,,,,2,,,73,100
66816,note_on,,,,,64,0,13,,,,,5,,,57,85
66816,note_on,,,,,64,0,15,,,,,7,,,64,100
66944,note_off,,,,,128,0,11,,,,,3,,,76,100
67008,note_on,,,,,64,0,11,,,,,3,,,69,90
67072,note_off,,,,,256,0,13,,,,,5,,,57,100
67072,note_off,,,,,256,0,10,,,,,2,,,73,100
67072,note_off,,,,,256,0,12,,,,,4,,,64,100
67072,note_off,,,,,256,0,16,,,,,7,,,57,100
67072,note_off,,,,,256,0,15,,,,,7,,,64,100
67072,note_off,,,,,0,0,15,,,,,7,,,73,100
67072,note_off,,,,,256,0,14,,,,,6,,,45,100
67136,note_off,,,,,128,0,11,,,,,3,,,69,100
67200,note_on,,,,,64,0,11,,,,,3,,,73,90
67200,note_on,,,,,128,0,10,,,,,2,,,76,90
67328,note_off,,,,,128,0,11,,,,,3,,,73,100
67392,note_on,,,,,320,0,16,,,,,7,,,45,100
67392,note_on,,,,,64,0,11,,,,,3,,,76,90
67392,note_on,,,,,0,0,15,,,,,7,,,64,100
67392,note_on,,,,,320,0,15,,,,,7,,,61,100
67392,note_on,,,,,320,0,14,,,,,6,,,33,90
67392,note_on,,,,,320,0,13,,,,,5,,,45,90
67456,note_off,,,,,256,0,10,,,,,2,,,76,100
67520,note_off,,,,,128,0,14,,,,,6,,,33,100
67520,note_off,,,,,128,0,11,,,,,3,,,76,100
67520,note_off,,,,,128,0,13,,,,,5,,,45,100
67520,note_off,,,,,128,0,15,,,,,7,,,61,100
67520,note_off,,,,,128,0,16,,,,,7,,,45,100
67520,note_off,,,,,0,0,15,,,,,7,,,64,100
67584,note_on,,,,,64,0,15,,,,,7,,,69,100
67584,note_on,,,,,64,0,13,,,,,5,,,49,90
67584,note_on,,,,,0,0,15,,,,,7,,,64,100
67584,note_on,,,,,128,0,10,,,,,2,,,76,90
67584,note_on,,,,,64,0,16,,,,,7,,,49,100
67584,note_on,,,,,64,0,14,,,,,6,,,37,90
67584,note_on,,,,,512,0,12,,,,,4,,,64,90
67584,note_on,,,,,64,0,11,,,,,3,,,69,90
67712,note_off,,,,,128,0,16,,,,,7,,,49,100
67712,note_off,,,,,128,0,15,,,,,7,,,69,100
67712,note_off,,,,,128,0,11,,,,,3,,,69,100
67712,note_off,,,,,128,0,14,,,,,6,,,37,100
67712,note_off,,,,,128,0,13,,,,,5,,,49,100
67712,note_off,,,,,0,0,15,,,,,7,,,64,100
67776,note_on,,,,,64,0,11,,,,,3,,,73,90
67776,note_on,,,,,64,0,16,,,,,7,,,45,100
67776,note_on,,,,,64,0,15,,,,,7,,,61,100
67776,note_on,,,,,64,0,13,,,,,5,,,45,90
67776,note_on,,,,,64,0,14,,,,,6,,,33,90
67776,note_on,,,,,0,0,15,,,,,7,,,64,100
67840,note_off,,,,,256,0,10,,,,,2,,,76,100
67840,note_off,,,,,256,0,12,,,,,4,,,64,100
67904,note_off,,,,,128,0,14,,,,,6,,,33,100
67904,note_off,,,,,128,0,15,,,,,7,,,61,100
67904,note_off,,,,,128,0,16,,,,,7,,,45,100
67904,note_off,,,,,128,0,11,,,,,3,,,73,100
67904,note_off,,,,,128,0,13,,,,,5,,,45,100
67904,note_off,,,,,0,0,15,,,,,7,,,64,100
67968,note_on,,,,,64,0,11,,,,,3,,,71,90
67968,note_on,,,,,64,0,14,,,,,6,,,40,90
67968,note_on,,,,,64,0,16,,,,,7,,,52,100
67968,note_on,,,,,0,0,15,,,,,7,,,68,100
67968,note_on,,,,,64,0,13,,,,,5,,,52,90
67968,note_on,,,,,128,0,10,,,,,2,,,76,90
67968,note_on,,,,,128,0,12,,,,,4,,,68,90
67968,note_on,,,,,64,0,15,,,,,7,,,71,100
68096,note_off,,,,,128,0,11,,,,,3,,,71,100
68160,note_on,,,,,64,0,11,,,,,3,,,64,90
68224,note_off,,,,,256,0,13,,,,,5,,,52,100
68224,note_off,,,,,256,0,12,,,,,4,,,68,100
68224,note_off,,,,,256,0,10,,,,,2,,,76,100
68224,note_off,,,,,256,0,14,,,,,6,,,40,100
68224,note_off,,,,,256,0,15,,,,,7,,,71,100
68224,note_off,,,,,256,0,16,,,,,7,,,52,100
68224,note_off,,,,,0,0,15,,,,,7,,,68,100
68288,note_off,,,,,128,0,11,,,,,3,,,64,100
68352,note_on,,,,,64,0,11,,,,,3,,,68,90
68352,note_on,,,,,128,0,10,,,,,2,,,76,90
68480,note_off,,,,,128,0,11,,,,,3,,,68,100
68544,note_on,,,,,320,0,15,,,,,7,,,59,100
68544,note_on,,,,,320,0,13,,,,,5,,,52,92
68544,note_on,,,,,0,0,15,,,,,7,,,68,100
68544,note_on,,,,,320,0,16,,,,,7,,,52,100
68544,note_on,,,,,320,0,14,,,,,6,,,40,92
68544,note_on,,,,,64,0,11,,,,,3,,,71,92
68544,note_on,,,,,320,0,12,,,,,4,,,68,92
68608,note_off,,,,,256,0,10,,,,,2,,,76,100
68672,note_off,,,,,0,0,15,,,,,7,,,68,100
68672,note_off,,,,,128,0,14,,,,,6,,,40,100
68672,note_off,,,,,128,0,16,,,,,7,,,52,100
68672,note_off,,,,,128,0,11,,,,,3,,,71,100
68672,note_off,,,,,128,0,12,,,,,4,,,68,100
68672,note_off,,,,,128,0,15,,,,,7,,,59,100
68672,note_off,,,,,128,0,13,,,,,5,,,52,100
68736,note_on,,,,,64,0,14,,,,,6,,,44,94
68736,note_on,,,,,128,0,10,,,,,2,,,76,94
68736,note_on,,,,,64,0,15,,,,,7,,,64,100
68736,note_on,,,,,64,0,12,,,,,4,,,71,94
68736,note_on,,,,,0,0,15,,,,,7,,,71,100
68736,note_on,,,,,64,0,11,,,,,3,,,76,94
68736,note_on,,,,,64,0,13,,,,,5,,,56,94
68736,note_on,,,,,64,0,16,,,,,7,,,56,100
68864,note_off,,,,,128,0,13,,,,,5,,,56,100
68864,note_off,,,,,128,0,14,,,,,6,,,44,100
68864,note_off,,,,,128,0,15,,,,,7,,,64,100
68864,note_off,,,,,128,0,16,,,,,7,,,56,100
68864,note_off,,,,,128,0,11,,,,,3,,,76,100
68864,note_off,,,,,0,0,15,,,,,7,,,71,100
68864,note_off,,,,,128,0,12,,,,,4,,,71,100
68928,note_on,,,,,64,0,14,,,,,6,,,40,97
68928,note_on,,,,,64,0,11,,,,,3,,,71,97
68928,note_on,,,,,64,0,12,,,,,4,,,68,97
68928,note_on,,,,,64,0,16,,,,,7,,,52,100
68928,note_on,,,,,64,0,15,,,,,7,,,59,100
68928,note_on,,,,,0,0,15,,,,,7,,,68,100
68928,note_on,,,,,64,0,13,,,,,5,,,52,97
68992,note_off,,,,,256,0,10,,,,,2,,,76,100
69056,note_off,,,,,0,0,15,,,,,7,,,68,100
69056,note_off,,,,,128,0,12,,,,,4,,,68,100
69056,note_off,,,,,128,0,11,,,,,3,,,71,100
69056,note_off,,,,,128,0,13,,,,,5,,,52,100
69056,note_off,,,,,128,0,14,,,,,6,,,40,100
69056,note_off,,,,,128,0,15,,,,,7,,,59,100
69056,note_off,,,,,128,0,16,,,,,7,,,52,100
69120,note_on,,,,,64,0,16,,,,,7,,,45,100
69120,note_on,,,,,64,0,14,,,,,6,,,33,99
69120,note_on,,,,,64,0,15,,,,,7,,,61,100
69120,note_on,,,,,64,0,12,,,,,4,,,64,99
69120,note_on,,,,,0,0,15,,,,,7,,,64,100
69120,note_on,,,,,64,0,11,,,,,3,,,73,99
69120,note_on,,,,,64,0,13,,,,,5,,,45,99
69120,note_on,,,,,128,0,10,,,,,2,,,76,99
69248,note_off,,,,,128,0,10,,,,,2,,,76,100
69312,note_on,,,,,64,0,10,,,,,2,,,69,85
69376,note_off,,,,,0,0,15,,,,,7,,,64,100
69376,note_off,,,,,256,0,13,,,,,5,,,45,100
69376,note_off,,,,,256,0,14,,,,,6,,,33,100
69376,note_off,,,,,256,0,16,,,,,7,,,45,100
69376,note_off,,,,,256,0,15,,,,,7,,,61,100
69376,note_off,,,,,256,0,12,,,,,4,,,64,100
69376,note_off,,,,,256,0,11,,,,,3,,,73,100
69440,note_off,,,,,128,0,10,,,,,2,,,69,100
69504,note_on,,,,,64,0,10,,,,,2,,,73,85
69632,note_off,,,,,128,0,10,,,,,2,,,73,100
69696,note_on,,,,,320,0,12,,,,,4,,,61,85
69696,note_on,,,,,320,0,14,,,,,6,,,37,85
69696,note_on,,,,,320,0,16,,,,,7,,,49,100
69696,note_on,,,,,320,0,15,,,,,7,,,69,100
69696,note_on,,,,,0,0,15,,,,,7,,,64,100
69696,note_on,,,,,320,0,13,,,,,5,,,49,85
69696,note_on,,,,,64,0,10,,,,,2,,,76,85
69824,note_off,,,,,128,0,12,,,,,4,,,61,100
69824,note_off,,,,,128,0,16,,,,,7,,,49,100
69824,note_off,,,,,128,0,15,,,,,7,,,69,100
69824,note_off,,,,,128,0,14,,,,,6,,,37,100
69824,note_off,,,,,128,0,10,,,,,2,,,76,100
69824,note_off,,,,,128,0,13,,,,,5,,,49,100
69824,note_off,,,,,0,0,15,,,,,7,,,64,100
69888,note_on,,,,,64,0,10,,,,,2,,,81,85
69888,note_on,,,,,64,0,16,,,,,7,,,49,100
69888,note_on,,,,,64,0,12,,,,,4,,,64,85
69888,note_on,,,,,64,0,15,,,,,7,,,69,100
69888,note_on,,,,,0,0,15,,,,,7,,,64,100
69888,note_on,,,,,64,0,13,,,,,5,,,49,85
69888,note_on,,,,,64,0,14,,,,,6,,,37,85
70016,note_off,,,,,128,0,15,,,,,7,,,69,100
70016,note_off,,,,,0,0,15,,,,,7,,,64,100
70016,note_off,,,,,128,0,13,,,,,5,,,49,100
70016,note_off,,,,,128,0,10,,,,,2,,,81,100
70016,note_off,,,,,128,0,12,,,,,4,,,64,100
70016,note_off,,,,,128,0,14,,,,,6,,,37,100
70016,note_off,,,,,128,0,16,,,,,7,,,49,100
70080,note_on,,,,,64,0,13,,,,,5,,,49,85
70080,note_on,,,,,64,0,10,,,,,2,,,76,85
70080,note_on,,,,,64,0,14,,,,,6,,,37,85
70080,note_on,,,,,64,0,16,,,,,7,,,49,100
70080,note_on,,,,,64,0,12,,,,,4,,,61,85
70080,note_on,,,,,0,0,15,,,,,7,,,64,100
70080,note_on,,,,,64,0,15,,,,,7,,,69,100
70208,note_off,,,,,128,0,12,,,,,4,,,61,100
70208,note_off,,,,,128,0,14,,,,,6,,,37,100
70208,note_off,,,,,128,0,10,,,,,2,,,76,100
70208,note_off,,,,,0,0,15,,,,,7,,,64,100
70208,note_off,,,,,128,0,15,,,,,7,,,69,100
70208,note_off,,,,,128,0,16,,,,,7,,,49,100
70208,note_off,,,,,128,0,13,,,,,5,,,49,100
70272,note_on,,,,,0,0,15,,,,,7,,,69,100
70272,note_on,,,,,64,0,15,,,,,7,,,66,100
70272,note_on,,,,,64,0,13,,,,,5,,,50,85
70272,note_on,,,,,64,0,16,,,,,7,,,50,100
70272,note_on,,,,,64,0,12,,,,,4,,,57,85
70272,note_on,,,,,64,0,10,,,,,2,,,78,85
70272,note_on,,,,,64,0,14,,,,,6,,,38,85
70464,note_on,,,,,1088,0,11,,,,,3,,,62,85
70528,note_off,,,,,0,0,15,,,,,7,,,69,100
70528,note_off,,,,,256,0,15,,,,,7,,,66,100
70528,note_off,,,,,256,0,16,,,,,7,,,50,100
70528,note_off,,,,,256,0,13,,,,,5,,,50,100
70528,note_off,,,,,256,0,12,,,,,4,,,57,100
70528,note_off,,,,,256,0,14,,,,,6,,,38,100
70528,note_off,,,,,256,0,10,,,,,2,,,78,100
70592,note_off,,,,,128,0,11,,,,,3,,,62,100
70656,note_on,,,,,64,0,11,,,,,3,,,66,85
70784,note_off,,,,,128,0,11,,,,,3,,,66,100
70848,note_on,,,,,320,0,14,,,,,6,,,38,85
70848,note_on,,,,,320,0,13,,,,,5,,,50,85
70848,note_on,,,,,64,0,11,,,,,3,,,69,85
70848,note_on,,,,,320,0,12,,,,,4,,,66,85
70848,note_on,,,,,0,0,15,,,,,7,,,69,100
70848,note_on,,,,,320,0,15,,,,,7,,,66,100
70848,note_on,,,,,320,0,16,,,,,7,,,50,100
70848,note_on,,,,,320,0,10,,,,,2,,,81,85
70976,note_off,,,,,128,0,10,,,,,2,,,81,100
70976,note_off,,,,,128,0,13,,,,,5,,,50,100
70976,note_off,,,,,0,0,15,,,,,7,,,69,100
70976,note_off,,,,,128,0,15,,,,,7,,,66,100
70976,note_off,,,,,128,0,16,,,,,7,,,50,100
70976,note_off,,,,,128,0,14,,,,,6,,,38,100
70976,note_off,,,,,128,0,12,,,,,4,,,66,100
70976,note_off,,,,,128,0,11,,,,,3,,,69,100
71040,note_on,,,,,64,0,14,,,,,6,,,38,85
71040,note_on,,,,,64,0,10,,,,,2,,,81,85
71040,note_on,,,,,64,0,12,,,,,4,,,69,85
71040,note_on,,,,,64,0,15,,,,,7,,,66,100
71040,note_on,,,,,0,0,15,,,,,7,,,69,100
71040,note_on,,,,,64,0,13,,,,,5,,,50,85
71040,note_on,,,,,64,0,11,,,,,3,,,74,85
71040,note_on,,,,,64,0,16,,,,,7,,,50,100
71168,note_off,,,,,128,0,14,,,,,6,,,38,100
71168,note_off,,,,,0,0,15,,,,,7,,,69,100
71168,note_off,,,,,128,0,10,,,,,2,,,81,100
71168,note_off,,,,,128,0,11,,,,,3,,,74,100
71168,note_off,,,,,128,0,12,,,,,4,,,69,100
71168,note_off,,,,,128,0,13,,,,,5,,,50,100
71168,note_off,,,,,128,0,15,,,,,7,,,66,100
71168,note_off,,,,,128,0,16,,,,,7,,,50,100
71232,note_on,,,,,0,0,15,,,,,7,,,69,100
71232,note_on,,,,,64,0,15,,,,,7,,,66,100
71232,note_on,,,,,64,0,14,,,,,6,,,38,86
71232,note_on,,,,,64,0,16,,,,,7,,,50,100
71232,note_on,,,,,64,0,13,,,,,5,,,50,86
71232,note_on,,,,,64,0,12,,,,,4,,,66,86
71232,note_on,,,,,64,0,11,,,,,3,,,69,86
71232,note_on,,,,,64,0,10,,,,,2,,,81,86
71360,note_off,,,,,128,0,11,,,,,3,,,69,100
71360,note_off,,,,,128,0,15,,,,,7,,,66,100
71360,note_off,,,,,128,0,14,,,,,6,,,38,100
71360,note_off,,,,,0,0,15,,,,,7,,,69,100
71360,note_off,,,,,128,0,10,,,,,2,,,81,100
71360,note_off,,,,,128,0,12,,,,,4,,,66,100
71360,note_off,,,,,128,0,13,,,,,5,,,50,100
71360,note_off,,,,,128,0,16,,,,,7,,,50,100
71424,note_on,,,,,64,0,11,,,,,3,,,71,87
71424,note_on,,,,,64,0,12,,,,,4,,,63,87
71424,note_on,,,,,64,0,14,,,,,6,,,39,87
71424,note_on,,,,,64,0,15,,,,,7,,,66,100
71424,note_on,,,,,64,0,13,,,,,5,,,51,87
71424,note_on,,,,,64,0,10,,,,,2,,,78,87
71424,note_on,,,,,0,0,15,,,,,7,,,71,100
71424,note_on,,,,,64,0,16,,,,,7,,,51,100
71552,note_off,,,,,128,0,10,,,,,2,,,78,100
71616,note_on,,,,,64,0,10,,,,,2,,,71,87
71680,note_off,,,,,256,0,13,,,,,5,,,51,100
71680,note_off,,,,,0,0,15,,,,,7,,,71,100
71680,note_off,,,,,256,0,14,,,,,6,,,39,100
71680,note_off,,,,,256,0,16,,,,,7,,,51,100
71680,note_off,,,,,256,0,15,,,,,7,,,66,100
71680,note_off,,,,,256,0,12,,,,,4,,,63,100
71680,note_off,,,,,256,0,11,,,,,3,,,71,100
71744,note_off,,,,,128,0,10,,,,,2,,,71,100
71808,note_on,,,,,64,0,10,,,,,2,,,75,88
71936,note_off,,,,,128,0,10,,,,,2,,,75,100
72000,note_on,,,,,0,0,15,,,,,7,,,71,100
72000,note_on,,,,,320,0,14,,,,,6,,,39,89
72000,note_on,,,,,320,0,11,,,,,3,,,75,89
72000,note_on,,,,,64,0,10,,,,,2,,,78,89
72000,note_on,,,,,320,0,13,,,,,5,,,51,89
72000,note_on,,,,,320,0,16,,,,,7,,,51,100
72000,note_on,,,,,320,0,12,,,,,4,,,63,89
72000,note_on,,,,,320,0,15,,,,,7,,,66,100
72128,note_off,,,,,0,0,15,,,,,7,,,71,100
72128,note_off,,,,,128,0,15,,,,,7,,,66,100
72128,note_off,,,,,128,0,10,,,,,2,,,78,100
72128,note_off,,,,,128,0,14,,,,,6,,,39,100
72128,note_off,,,,,128,0,11,,,,,3,,,75,100
72128,note_off,,,,,128,0,16,,,,,7,,,51,100
72128,note_off,,,,,128,0,12,,,,,4,,,63,100
72128,note_off,,,,,128,0,13,,,,,5,,,51,100
72192,note_on,,,,,64,0,15,,,,,7,,,66,100
72192,note_on,,,,,0,0,15,,,,,7,,,71,100
72192,note_on,,,,,64,0,13,,,,,5,,,51,89
72192,note_on,,,,,64,0,14,,,,,6,,,39,89
72192,note_on,,,,,64,0,11,,,,,3,,,75,89
72192,note_on,,,,,64,0,16,,,,,7,,,51,100
72192,note_on,,,,,64,0,10,,,,,2,,,83,89
72192,note_on,,,,,64,0,12,,,,,4,,,66,89
72320,note_off,,,,,128,0,13,,,,,5,,,51,100
72320,note_off,,,,,128,0,10,,,,,2,,,83,100
72320,note_off,,,,,128,0,16,,,,,7,,,51,100
72320,note_off,,,,,128,0,12,,,,,4,,,66,100
72320,note_off,,,,,128,0,11,,,,,3,,,75,100
72320,note_off,,,,,128,0,14,,,,,6,,,39,100
72320,note_off,,,,,0,0,15,,,,,7,,,71,100
72320,note_off,,,,,128,0,15,,,,,7,,,66,100
72384,note_on,,,,,64,0,12,,,,,4,,,59,90
72384,note_on,,,,,64,0,16,,,,,7,,,51,100
72384,note_on,,,,,64,0,11,,,,,3,,,75,90
72384,note_on,,,,,64,0,13,,,,,5,,,51,90
72384,note_on,,,,,64,0,14,,,,,6,,,39,90
72384,note_on,,,,,64,0,15,,,,,7,,,66,100
72384,note_on,,,,,64,0,10,,,,,2,,,78,90
72384,note_on,,,,,0,0,15,,,,,7,,,71,100
72512,note_off,,,,,128,0,15,,,,,7,,,66,100
72512,note_off,,,,,0,0,15,,,,,7,,,71,100
72512,note_off,,,,,128,0,11,,,,,3,,,75,100
72512,note_off,,,,,128,0,14,,,,,6,,,39,100
72512,note_off,,,,,128,0,10,,,,,2,,,78,100
72512,note_off,,,,,128,0,12,,,,,4,,,59,100
72512,note_off,,,,,128,0,13,,,,,5,,,51,100
72512,note_off,,,,,128,0,16,,,,,7,,,51,100
72576,note_on,,,,,64,0,10,,,,,2,,,80,91
72576,note_on,,,,,64,0,12,,,,,4,,,59,91
72576,note_on,,,,,64,0,13,,,,,5,,,52,91
72576,note_on,,,,,0,0,15,,,,,7,,,71,100
72576,note_on,,,,,64,0,11,,,,,3,,,71,91
72576,note_on,,,,,64,0,15,,,,,7,,,68,100
72576,note_on,,,,,64,0,16,,,,,7,,,52,100
72576,note_on,,,,,64,0,14,,,,,6,,,40,91
72704,note_off,,,,,128,0,11,,,,,3,,,71,100
72768,note_on,,,,,64,0,11,,,,,3,,,64,92
72832,note_off,,,,,256,0,10,,,,,2,,,80,100
72832,note_off,,,,,256,0,16,,,,,7,,,52,100
72832,note_off,,,,,256,0,14,,,,,6,,,40,100
72832,note_off,,,,,256,0,13,,,,,5,,,52,100
72832,note_off,,,,,256,0,15,,,,,7,,,68,100
72832,note_off,,,,,0,0,15,,,,,7,,,71,100
72832,note_off,,,,,256,0,12,,,,,4,,,59,100
72896,note_off,,,,,128,0,11,,,,,3,,,64,100
72960,note_on,,,,,64,0,11,,,,,3,,,68,92
73088,note_off,,,,,128,0,11,,,,,3,,,68,100
73152,note_on,,,,,320,0,15,,,,,7,,,68,100
73152,note_on,,,,,0,0,15,,,,,7,,,71,100
73152,note_on,,,,,320,0,10,,,,,2,,,83,93
73152,note_on,,,,,64,0,11,,,,,3,,,71,93
73152,note_on,,,,,320,0,14,,,,,6,,,40,93
73152,note_on,,,,,320,0,12,,,,,4,,,68,93
73152,note_on,,,,,320,0,13,,,,,5,,,52,93
73152,note_on,,,,,320,0,16,,,,,7,,,52,100
73280,note_off,,,,,128,0,11,,,,,3,,,71,100
73280,note_off,,,,,128,0,16,,,,,7,,,52,100
73280,note_off,,,,,128,0,10,,,,,2,,,83,100
73280,note_off,,,,,0,0,15,,,,,7,,,71,100
73280,note_off,,,,,128,0,15,,,,,7,,,68,100
73280,note_off,,,,,128,0,13,,,,,5,,,52,100
73280,note_off,,,,,128,0,12,,,,,4,,,68,100
73280,note_off,,,,,128,0,14,,,,,6,,,40,100
73344,note_on,,,,,64,0,14,,,,,6,,,40,94
73344,note_on,,,,,64,0,16,,,,,7,,,52,100
73344,note_on,,,,,64,0,12,,,,,4,,,71,94
73344,note_on,,,,,64,0,13,,,,,5,,,52,94
73344,note_on,,,,,64,0,15,,,,,7,,,71,100
73344,note_on,,,,,0,0,15,,,,,7,,,68,100
73344,note_on,,,,,64,0,11,,,,,3,,,76,94
73344,note_on,,,,,64,0,10,,,,,2,,,83,94
73472,note_off,,,,,128,0,10,,,,,2,,,83,100
73472,note_off,,,,,128,0,13,,,,,5,,,52,100
73472,note_off,,,,,128,0,16,,,,,7,,,52,100
73472,note_off,,,,,128,0,11,,,,,3,,,76,100
73472,note_off,,,,,128,0,12,,,,,4,,,71,100
73472,note_off,,,,,128,0,15,,,,,7,,,71,100
73472,note_off,,,,,0,0,15,,,,,7,,,68,100
73472,note_off,,,,,128,0,14,,,,,6,,,40,100
73536,note_on,,,,,64,0,12,,,,,4,,,68,94
73536,note_on,,,,,0,0,15,,,,,7,,,71,100
73536,note_on,,,,,64,0,15,,,,,7,,,68,100
73536,note_on,,,,,64,0,11,,,,,3,,,71,94
73536,note_on,,,,,64,0,13,,,,,5,,,52,94
73536,note_on,,,,,64,0,10,,,,,2,,,83,94
73536,note_on,,,,,64,0,14,,,,,6,,,40,94
73536,note_on,,,,,64,0,16,,,,,7,,,52,100
73664,note_off,,,,,128,0,12,,,,,4,,,68,100
73664,note_off,,,,,128,0,11,,,,,3,,,71,100
73664,note_off,,,,,128,0,15,,,,,7,,,68,100
73664,note_off,,,,,0,0,15,,,,,7,,,71,100
73664,note_off,,,,,128,0,16,,,,,7,,,52,100
73664,note_off,,,,,128,0,13,,,,,5,,,52,100
73664,note_off,,,,,128,0,10,,,,,2,,,83,100
73664,note_off,,,,,128,0,14,,,,,6,,,40,100
73728,note_on,,,,,64,0,12,,,,,4,,,65,95
73728,note_on,,,,,64,0,13,,,,,5,,,53,95
73728,note_on,,,,,0,0,15,,,,,7,,,68,100
73728,note_on,,,,,64,0,15,,,,,7,,,73,100
73728,note_on,,,,,64,0,14,,,,,6,,,41,95
73728,note_on,,,,,64,0,11,,,,,3,,,73,95
73728,note_on,,,,,64,0,10,,,,,2,,,80,95
73728,note_on,,,,,64,0,16,,,,,7,,,53,100
73856,note_off,,,,,128,0,10,,,,,2,,,80,100
73920,note_on,,,,,64,0,10,,,,,2,,,73,96
73984,note_off,,,,,256,0,12,,,,,4,,,65,100
73984,note_off,,,,,0,0,15,,,,,7,,,68,100
73984,note_off,,,,,256,0,15,,,,,7,,,73,100
73984,note_off,,,,,256,0,14,,,,,6,,,41,100
73984,note_off,,,,,256,0,11,,,,,3,,,73,100
73984,note_off,,,,,256,0,16,,,,,7,,,53,100
73984,note_off,,,,,256,0,13,,,,,5,,,53,100
74048,note_off,,,,,128,0,10,,,,,2,,,73,100
74112,note_on,,,,,64,0,10,,,,,2,,,77,97
74240,note_off,,,,,128,0,10,,,,,2,,,77,100
74304,note_on,,,,,320,0,12,,,,,4,,,65,97
74304,note_on,,,,,320,0,16,,,,,7,,,53,100
74304,note_on,,,,,320,0,11,,,,,3,,,77,97
74304,note_on,,,,,64,0,10,,,,,2,,,80,97
74304,note_on,,,,,320,0,15,,,,,7,,,68,100
74304,note_on,,,,,320,0,14,,,,,6,,,41,97
74304,note_on,,,,,320,0,13,,,,,5,,,53,97
74304,note_on,,,,,0,0,15,,,,,7,,,73,100
74432,note_off,,,,,128,0,10,,,,,2,,,80,100
74432,note_off,,,,,0,0,15,,,,,7,,,73,100
74432,note_off,,,,,128,0,13,,,,,5,,,53,100
74432,note_off,,,,,128,0,15,,,,,7,,,68,100
74432,note_off,,,,,128,0,12,,,,,4,,,65,100
74432,note_off,,,,,128,0,14,,,,,6,,,41,100
74432,note_off,,,,,128,0,16,,,,,7,,,53,100
74432,note_off,,,,,128,0,11,,,,,3,,,77,100
74496,note_on,,,,,0,0,15,,,,,7,,,73,100
74496,note_on,,,,,64,0,10,,,,,2,,,85,98
74496,note_on,,,,,64,0,13,,,,,5,,,53,98
74496,note_on,,,,,64,0,12,,,,,4,,,68,98
74496,note_on,,,,,64,0,11,,,,,3,,,77,98
74496,note_on,,,,,64,0,14,,,,,6,,,41,98
74496,note_on,,,,,64,0,16,,,,,7,,,53,100
74496,note_on,,,,,64,0,15,,,,,7,,,68,100
74624,note_off,,,,,128,0,15,,,,,7,,,68,100
74624,note_off,,,,,128,0,14,,,,,6,,,41,100
74624,note_off,,,,,128,0,16,,,,,7,,,53,100
74624,note_off,,,,,128,0,12,,,,,4,,,68,100
74624,note_off,,,,,128,0,10,,,,,2,,,85,100
74624,note_off,,,,,128,0,11,,,,,3,,,77,100
74624,note_off,,,,,128,0,13,,,,,5,,,53,100
74624,note_off,,,,,0,0,15,,,,,7,,,73,100
74688,note_on,,,,,64,0,12,,,,,4,,,61,99
74688,note_on,,,,,64,0,14,,,,,6,,,41,99
74688,note_on,,,,,64,0,13,,,,,5,,,53,99
74688,note_on,,,,,64,0,11,,,,,3,,,77,99
74688,note_on,,,,,64,0,10,,,,,2,,,80,99
74688,note_on,,,,,64,0,16,,,,,7,,,53,100
74688,note_on,,,,,0,0,15,,,,,7,,,73,100
74688,note_on,,,,,64,0,15,,,,,7,,,68,100
74816,note_off,,,,,128,0,11,,,,,3,,,77,100
74816,note_off,,,,,128,0,13,,,,,5,,,53,100
74816,note_off,,,,,0,0,15,,,,,7,,,73,100
74816,note_off,,,,,128,0,12,,,,,4,,,61,100
74816,note_off,,,,,128,0,15,,,,,7,,,68,100
74816,note_off,,,,,128,0,14,,,,,6,,,41,100
74816,note_off,,,,,128,0,10,,,,,2,,,80,100
74816,note_off,,,,,128,0,16,,,,,7,,,53,100
74880,note_on,,,,,64,0,10,,,,,2,,,81,100
74880,note_on,,,,,64,0,12,,,,,4,,,61,100
74880,note_on,,,,,64,0,14,,,,,6,,,42,100
74880,note_on,,,,,64,0,11,,,,,3,,,73,100
74880,note_on,,,,,0,0,15,,,,,7,,,73,100
74880,note_on,,,,,64,0,15,,,,,7,,,69,100
74880,note_on,,,,,64,0,13,,,,,5,,,54,100
74880,note_on,,,,,64,0,16,,,,,7,,,54,100
75008,note_off,,,,,128,0,10,,,,,2,,,81,100
75008,note_off,,,,,128,0,11,,,,,3,,,73,100
75072,note_on,,,,,64,0,10,,,,,2,,,73,110
75072,note_on,,,,,64,0,11,,,,,3,,,73,60
75136,note_off,,,,,256,0,16,,,,,7,,,54,100
75136,note_off,,,,,256,0,15,,,,,7,,,69,100
75136,note_off,,,,,0,0,15,,,,,7,,,73,100
75136,note_off,,,,,256,0,14,,,,,6,,,42,100
75136,note_off,,,,,256,0,13,,,,,5,,,54,100
75136,note_off,,,,,256,0,12,,,,,4,,,61,100
75200,note_off,,,,,128,0,11,,,,,3,,,73,100
75200,note_off,,,,,128,0,10,,,,,2,,,73,100
75264,note_on,,,,,64,0,11,,,,,3,,,73,60
75264,note_on,,,,,64,0,10,,,,,2,,,73,110
75392,note_off,,,,,128,0,10,,,,,2,,,73,100
75392,note_off,,,,,128,0,11,,,,,3,,,73,100
75456,note_on,,,,,0,0,15,,,,,7,,,73,100
75456,note_on,,,,,320,0,15,,,,,7,,,69,100
75456,note_on,,,,,64,0,11,,,,,3,,,73,60
75456,note_on,,,,,320,0,13,,,,,5,,,54,100
75456,note_on,,,,,320,0,12,,,,,4,,,61,100
75456,note_on,,,,,64,0,10,,,,,2,,,73,110
75456,note_on,,,,,320,0,16,,,,,7,,,54,100
75456,note_on,,,,,320,0,14,,,,,6,,,42,100
75584,note_off,,,,,128,0,14,,,,,6,,,42,100
75584,note_off,,,,,128,0,10,,,,,2,,,73,100
75584,note_off,,,,,128,0,13,,,,,5,,,54,100
75584,note_off,,,,,0,0,15,,,,,7,,,73,100
75584,note_off,,,,,128,0,12,,,,,4,,,61,100
75584,note_off,,,,,128,0,16,,,,,7,,,54,100
75584,note_off,,,,,128,0,11,,,,,3,,,73,100
75584,note_off,,,,,128,0,15,,,,,7,,,69,100
75648,note_on,,,,,64,0,12,,,,,4,,,61,100
75648,note_on,,,,,0,0,15,,,,,7,,,73,100
75648,note_on,,,,,64,0,16,,,,,7,,,54,100
75648,note_on,,,,,64,0,10,,,,,2,,,81,110
75648,note_on,,,,,64,0,11,,,,,3,,,81,60
75648,note_on,,,,,64,0,15,,,,,7,,,69,100
75648,note_on,,,,,64,0,13,,,,,5,,,54,100
75648,note_on,,,,,64,0,14,,,,,6,,,42,100
75776,note_off,,,,,128,0,12,,,,,4,,,61,100
75776,note_off,,,,,128,0,10,,,,,2,,,81,100
75776,note_off,,,,,128,0,11,,,,,3,,,81,100
75776,note_off,,,,,128,0,14,,,,,6,,,42,100
75776,note_off,,,,,128,0,15,,,,,7,,,69,100
75776,note_off,,,,,0,0,15,,,,,7,,,73,100
75776,note_off,,,,,128,0,16,,,,,7,,,54,100
75776,note_off,,,,,128,0,13,,,,,5,,,54,100
75840,note_on,,,,,64,0,16,,,,,7,,,54,100
75840,note_on,,,,,64,0,12,,,,,4,,,61,100
75840,note_on,,,,,64,0,15,,,,,7,,,69,100
75840,note_on,,,,,64,0,14,,,,,6,,,42,100
75840,note_on,,,,,64,0,13,,,,,5,,,54,100
75840,note_on,,,,,64,0,10,,,,,2,,,73,110
75840,note_on,,,,,0,0,15,,,,,7,,,73,100
75840,note_on,,,,,64,0,11,,,,,3,,,73,60
75968,note_off,,,,,128,0,13,,,,,5,,,54,100
75968,note_off,,,,,128,0,16,,,,,7,,,54,100
75968,note_off,,,,,0,0,15,,,,,7,,,73,100
75968,note_off,,,,,128,0,11,,,,,3,,,73,100
75968,note_off,,,,,128,0,15,,,,,7,,,69,100
75968,note_off,,,,,128,0,12,,,,,4,,,61,100
75968,note_off,,,,,128,0,14,,,,,6,,,42,100
75968,note_off,,,,,128,0,10,,,,,2,,,73,100
76032,note_on,,,,,64,0,16,,,,,7,,,49,100
76032,note_on,,,,,64,0,10,,,,,2,,,80,110
76032,note_on,,,,,0,0,15,,,,,7,,,68,100
76032,note_on,,,,,64,0,15,,,,,7,,,65,100
76032,note_on,,,,,64,0,13,,,,,5,,,49,100
76032,note_on,,,,,64,0,14,,,,,6,,,37,100
76032,note_on,,,,,64,0,11,,,,,3,,,80,60
76032,note_on,,,,,64,0,12,,,,,4,,,65,100
76160,note_off,,,,,128,0,10,,,,,2,,,80,100
76160,note_off,,,,,128,0,11,,,,,3,,,80,100
76224,note_on,,,,,64,0,10,,,,,2,,,73,110
76224,note_on,,,,,64,0,11,,,,,3,,,73,60
76288,note_off,,,,,0,0,15,,,,,7,,,68,100
76288,note_off,,,,,256,0,13,,,,,5,,,49,100
76288,note_off,,,,,256,0,14,,,,,6,,,37,100
76288,note_off,,,,,256,0,15,,,,,7,,,65,100
76288,note_off,,,,,256,0,16,,,,,7,,,49,100
76288,note_off,,,,,256,0,12,,,,,4,,,65,100
76352,note_off,,,,,128,0,11,,,,,3,,,73,100
76352,note_off,,,,,128,0,10,,,,,2,,,73,100
76416,note_on,,,,,64,0,10,,,,,2,,,73,110
76416,note_on,,,,,64,0,11,,,,,3,,,73,60
76544,note_off,,,,,128,0,11,,,,,3,,,73,100
76544,note_off,,,,,128,0,10,,,,,2,,,73,100
76608,note_on,,,,,320,0,15,,,,,7,,,65,100
76608,note_on,,,,,320,0,14,,,,,6,,,37,100
76608,note_on,,,,,320,0,13,,,,,5,,,49,100
76608,note_on,,,,,64,0,10,,,,,2,,,73,110
76608,note_on,,,,,0,0,15,,,,,7,,,68,100
76608,note_on,,,,,320,0,16,,,,,7,,,49,100
76608,note_on,,,,,320,0,12,,,,,4,,,65,100
76608,note_on,,,,,64,0,11,,,,,3,,,73,60
76736,note_off,,,,,128,0,10,,,,,2,,,73,100
76736,note_off,,,,,128,0,12,,,,,4,,,65,100
76736,note_off,,,,,128,0,14,,,,,6,,,37,100
76736,note_off,,,,,128,0,16,,,,,7,,,49,100
76736,note_off,,,,,128,0,11,,,,,3,,,73,100
76736,note_off,,,,,128,0,13,,,,,5,,,49,100
76736,note_off,,,,,128,0,15,,,,,7,,,65,100
76736,note_off,,,,,0,0,15,,,,,7,,,68,100
76800,note_on,,,,,64,0,10,,,,,2,,,80,110
76800,note_on,,,,,64,0,16,,,,,7,,,49,100
76800,note_on,,,,,64,0,11,,,,,3,,,80,60
76800,note_on,,,,,64,0,13,,,,,5,,,49,100
76800,note_on,,,,,64,0,15,,,,,7,,,65,100
76800,note_on,,,,,0,0,15,,,,,7,,,68,100
76800,note_on,,,,,64,0,12,,,,,4,,,65,100
76800,note_on,,,,,64,0,14,,,,,6,,,37,100
76928,note_off,,,,,128,0,16,,,,,7,,,49,100
76928,note_off,,,,,128,0,12,,,,,4,,,65,100
76928,note_off,,,,,128,0,15,,,,,7,,,65,100
76928,note_off,,,,,128,0,10,,,,,2,,,80,100
76928,note_off,,,,,128,0,14,,,,,6,,,37,100
76928,note_off,,,,,128,0,13,,,,,5,,,49,100
76928,note_off,,,,,0,0,15,,,,,7,,,68,100
76928,note_off,,,,,128,0,11,,,,,3,,,80,100
76992,note_on,,,,,64,0,13,,,,,5,,,49,100
76992,note_on,,,,,64,0,14,,,,,6,,,37,100
76992,note_on,,,,,64,0,11,,,,,3,,,73,60
76992,note_on,,,,,64,0,15,,,,,7,,,65,100
76992,note_on,,,,,64,0,16,,,,,7,,,49,100
76992,note_on,,,,,0,0,15,,,,,7,,,68,100
76992,note_on,,,,,64,0,10,,,,,2,,,73,110
76992,note_on,,,,,64,0,12,,,,,4,,,65,100
77120,note_off,,,,,128,0,15,,,,,7,,,65,100
77120,note_off,,,,,128,0,14,,,,,6,,,37,100
77120,note_off,,,,,128,0,11,,,,,3,,,73,100
77120,note_off,,,,,128,0,13,,,,,5,,,49,100
77120,note_off,,,,,128,0,16,,,,,7,,,49,100
77120,note_off,,,,,0,0,15,,,,,7,,,68,100
77120,note_off,,,,,128,0,12,,,,,4,,,65,100
77120,note_off,,,,,128,0,10,,,,,2,,,73,100
77184,note_on,,,,,64,0,13,,,,,5,,,49,100
77184,note_on,,,,,64,0,10,,,,,2,,,80,110
77184,note_on,,,,,0,0,15,,,,,7,,,71,100
77184,note_on,,,,,0,0,15,,,,,7,,,68,100
77184,note_on,,,,,64,0,15,,,,,7,,,65,100
77184,note_on,,,,,64,0,11,,,,,3,,,80,60
77184,note_on,,,,,64,0,16,,,,,7,,,49,100
77184,note_on,,,,,64,0,12,,,,,4,,,65,100
77184,note_on,,,,,64,0,14,,,,,6,,,37,100
77312,note_off,,,,,128,0,10,,,,,2,,,80,100
77312,note_off,,,,,128,0,11,,,,,3,,,80,100
77376,note_on,,,,,64,0,11,,,,,3,,,71,60
77376,note_on,,,,,64,0,10,,,,,2,,,71,110
77440,note_off,,,,,256,0,15,,,,,7,,,65,100
77440,note_off,,,,,0,0,15,,,,,7,,,68,100
77440,note_off,,,,,256,0,13,,,,,5,,,49,100
77440,note_off,,,,,0,0,15,,,,,7,,,71,100
77440,note_off,,,,,256,0,12,,,,,4,,,65,100
77440,note_off,,,,,256,0,16,,,,,7,,,49,100
77440,note_off,,,,,256,0,14,,,,,6,,,37,100
77504,note_off,,,,,128,0,10,,,,,2,,,71,100
77504,note_off,,,,,128,0,11,,,,,3,,,71,100
77568,note_on,,,,,64,0,10,,,,,2,,,71,110
77568,note_on,,,,,64,0,11,,,,,3,,,71,60
77696,note_off,,,,,128,0,10,,,,,2,,,71,100
77696,note_off,,,,,128,0,11,,,,,3,,,71,100
77760,note_on,,,,,320,0,12,,,,,4,,,65,100
77760,note_on,,,,,0,0,15,,,,,7,,,68,100
77760,note_on,,,,,64,0,10,,,,,2,,,71,110
77760,note_on,,,,,320,0,15,,,,,7,,,65,100
77760,note_on,,,,,320,0,13,,,,,5,,,49,100
77760,note_on,,,,,64,0,11,,,,,3,,,71,60
77760,note_on,,,,,320,0,14,,,,,6,,,37,100
77760,note_on,,,,,0,0,15,,,,,7,,,71,100
77760,note_on,,,,,320,0,16,,,,,7,,,49,100
77888,note_off,,,,,128,0,12,,,,,4,,,65,100
77888,note_off,,,,,128,0,11,,,,,3,,,71,100
77888,note_off,,,,,128,0,10,,,,,2,,,71,100
77888,note_off,,,,,128,0,13,,,,,5,,,49,100
77888,note_off,,,,,0,0,15,,,,,7,,,71,100
77888,note_off,,,,,0,0,15,,,,,7,,,68,100
77888,note_off,,,,,128,0,15,,,,,7,,,65,100
77888,note_off,,,,,128,0,16,,,,,7,,,49,100
77888,note_off,,,,,128,0,14,,,,,6,,,37,100
77952,note_on,,,,,64,0,14,,,,,6,,,37,100
77952,note_on,,,,,64,0,12,,,,,4,,,65,100
77952,note_on,,,,,64,0,16,,,,,7,,,49,100
77952,note_on,,,,,64,0,13,,,,,5,,,49,100
77952,note_on,,,,,64,0,15,,,,,7,,,65,100
77952,note_on,,,,,0,0,15,,,,,7,,,68,100
77952,note_on,,,,,0,0,15,,,,,7,,,71,100
77952,note_on,,,,,64,0,11,,,,,3,,,80,60
77952,note_on,,,,,64,0,10,,,,,2,,,80,110
78080,note_off,,,,,128,0,10,,,,,2,,,80,100
78080,note_off,,,,,128,0,14,,,,,6,,,37,100
78080,note_off,,,,,128,0,16,,,,,7,,,49,100
78080,note_off,,,,,128,0,15,,,,,7,,,65,100
78080,note_off,,,,,0,0,15,,,,,7,,,71,100
78080,note_off,,,,,0,0,15,,,,,7,,,68,100
78080,note_off,,,,,128,0,13,,,,,5,,,49,100
78080,note_off,,,,,128,0,11,,,,,3,,,80,100
78080,note_off,,,,,128,0,12,,,,,4,,,65,100
78144,note_on,,,,,64,0,15,,,,,7,,,65,100
78144,note_on,,,,,64,0,11,,,,,3,,,71,60
78144,note_on,,,,,0,0,15,,,,,7,,,71,100
78144,note_on,,,,,64,0,13,,,,,5,,,49,100
78144,note_on,,,,,64,0,16,,,,,7,,,49,100
78144,note_on,,,,,64,0,14,,,,,6,,,37,100
78144,note_on,,,,,0,0,15,,,,,7,,,68,100
78144,note_on,,,,,64,0,10,,,,,2,,,71,110
78144,note_on,,,,,64,0,12,,,,,4,,,65,100
78272,note_off,,,,,128,0,16,,,,,7,,,49,100
78272,note_off,,,,,128,0,14,,,,,6,,,37,100
78272,note_off,,,,,128,0,13,,,,,5,,,49,100
78272,note_off,,,,,128,0,10,,,,,2,,,71,100
78272,note_off,,,,,0,0,15,,,,,7,,,71,100
78272,note_off,,,,,0,0,15,,,,,7,,,68,100
78272,note_off,,,,,128,0,15,,,,,7,,,65,100
78272,note_off,,,,,128,0,11,,,,,3,,,71,100
78272,note_off,,,,,128,0,12,,,,,4,,,65,100
78336,note_on,,,,,0,0,15,,,,,7,,,73,100
78336,note_on,,,,,0,0,15,,,,,7,,,69,100
78336,note_on,,,,,64,0,15,,,,,7,,,66,100
78336,note_on,,,,,64,0,16,,,,,7,,,54,100
78336,note_on,,,,,64,0,14,,,,,6,,,42,100
78336,note_on,,,,,64,0,12,,,,,4,,,61,100
78336,note_on,,,,,64,0,10,,,,,2,,,69,110
78336,note_on,,,,,64,0,11,,,,,3,,,69,60
78336,note_on,,,,,64,0,13,,,,,5,,,54,100
78592,note_off,,,,,256,0,10,,,,,2,,,69,100
78592,note_off,,,,,256,0,11,,,,,3,,,69,100
78592,note_off,,,,,256,0,14,,,,,6,,,42,100
78592,note_off,,,,,256,0,15,,,,,7,,,66,100
78592,note_off,,,,,0,0,15,,,,,7,,,69,100
78592,note_off,,,,,0,0,15,,,,,7,,,73,100
78592,note_off,,,,,256,0,13,,,,,5,,,54,100
78592,note_off,,,,,256,0,16,,,,,7,,,54,100
78592,note_off,,,,,256,0,12,,,,,4,,,61,100
79104,note_on,,,,,512,0,10,,,,,2,,,78,100
79104,note_on,,,,,512,0,11,,,,,3,,,69,100
79104,note_on,,,,,512,0,15,,,,,7,,,69,100
79104,note_on,,,,,0,0,15,,,,,7,,,73,100
79104,note_on,,,,,512,0,13,,,,,5,,,54,100
79104,note_on,,,,,512,0,16,,,,,7,,,54,100
79104,note_on,,,,,512,0,12,,,,,4,,,61,100
79104,note_on,,,,,512,0,14,,,,,6,,,42,100
79360,note_off,,,,,256,0,16,,,,,7,,,54,100
79360,note_off,,,,,256,0,13,,,,,5,,,54,100
79360,note_off,,,,,256,0,11,,,,,3,,,69,100
79360,note_off,,,,,0,0,15,,,,,7,,,73,100
79360,note_off,,,,,256,0,10,,,,,2,,,78,100
79360,note_off,,,,,256,0,15,,,,,7,,,69,100
79360,note_off,,,,,256,0,12,,,,,4,,,61,100
79360,note_off,,,,,256,0,14,,,,,6,,,42,100
79488,note_on,,,,,128,0,15,,,,,7,,,66,100
79488,note_on,,,,,128,0,10,,,,,2,,,78,100
79488,note_on,,,,,128,0,14,,,,,6,,,35,100
79488,note_on,,,,,128,0,13,,,,,5,,,47,100
79488,note_on,,,,,128,0,12,,,,,4,,,62,100
79488,note_on,,,,,128,0,16,,,,,7,,,47,100
79488,note_on,,,,,0,0,15,,,,,7,,,68,100
79488,note_on,,,,,128,0,11,,,,,3,,,68,100
79744,note_off,,,,,256,0,10,,,,,2,,,78,100
79744,note_off,,,,,0,0,15,,,,,7,,,68,100
79744,note_off,,,,,256,0,11,,,,,3,,,68,100
79744,note_off,,,,,256,0,13,,,,,5,,,47,100
79744,note_off,,,,,256,0,12,,,,,4,,,62,100
79744,note_off,,,,,256,0,14,,,,,6,,,35,100
79744,note_off,,,,,256,0,15,,,,,7,,,66,100
79744,note_off,,,,,256,0,16,,,,,7,,,47,100
80256,note_on,,,,,512,0,13,,,,,5,,,49,100
80256,note_on,,,,,512,0,12,,,,,4,,,61,100
80256,note_on,,,,,512,0,10,,,,,2,,,77,100
80256,note_on,,,,,512,0,14,,,,,6,,,37,100
80256,note_on,,,,,0,0,15,,,,,7,,,68,100
80256,note_on,,,,,512,0,15,,,,,7,,,65,100
80256,note_on,,,,,512,0,11,,,,,3,,,68,100
80256,note_on,,,,,512,0,16,,,,,7,,,49,100
80512,note_off,,,,,256,0,15,,,,,7,,,65,100
80512,note_off,,,,,0,0,15,,,,,7,,,68,100
80512,note_off,,,,,256,0,10,,,,,2,,,77,100
80512,note_off,,,,,256,0,12,,,,,4,,,61,100
80512,note_off,,,,,256,0,14,,,,,6,,,37,100
80512,note_off,,,,,256,0,11,,,,,3,,,68,100
80512,note_off,,,,,256,0,13,,,,,5,,,49,100
80512,note_off,,,,,256,0,16,,,,,7,,,49,100
80640,note_on,,,,,128,0,14,,,,,6,,,42,100
80640,note_on,,,,,17024,0,8,,,,,0,,,78,100
80640,note_on,,,,,128,0,12,,,,,4,,,61,100
80640,note_on,,,,,128,0,11,,,,,3,,,66,100
80640,note_on,,,,,128,0,16,,,,,7,,,54,100
80640,note_on,,,,,0,0,15,,,,,7,,,69,100
80640,note_on,,,,,128,0,15,,,,,7,,,61,100
80640,note_on,,,,,128,0,13,,,,,5,,,54,100
80640,note_on,,,,,128,0,10,,,,,2,,,78,100
80732,note_off,,,,,92,0,8,,,,,0,,,78,100
80736,note_on,,,,,4,0,8,,,,,0,,,80,100
80828,note_off,,,,,92,0,8,,,,,0,,,80,100
80832,note_on,,,,,4,0,8,,,,,0,,,81,100
80896,note_off,,,,,0,0,15,,,,,7,,,69,100
80896,note_off,,,,,256,0,14,,,,,6,,,42,100
80896,note_off,,,,,256,0,12,,,,,4,,,61,100
80896,note_off,,,,,256,0,16,,,,,7,,,54,100
80896,note_off,,,,,256,0,10,,,,,2,,,78,100
80896,note_off,,,,,256,0,13,,,,,5,,,54,100
80896,note_off,,,,,256,0,11,,,,,3,,,66,100
80896,note_off,,,,,64,0,8,,,,,0,,,81,100
80896,note_off,,,,,256,0,15,,,,,7,,,61,100
80928,note_on,,,,,32,0,8,,,,,0,,,80,100
80992,note_off,,,,,64,0,8,,,,,0,,,80,100
81024,note_on,,,,,32,0,8,,,,,0,,,78,100
81116,note_off,,,,,92,0,8,,,,,0,,,78,100
81120,note_on,,,,,4,0,8,,,,,0,,,80,100
81212,note_off,,,,,92,0,8,,,,,0,,,80,100
81216,note_on,,,,,320,0,16,,,,,7,,,54,100
81216,note_on,,,,,320,0,15,,,,,7,,,69,100
81216,note_on,,,,,0,0,15,,,,,7,,,73,100
81216,note_on,,,,,320,0,14,,,,,6,,,42,85
81216,note_on,,,,,4,0,8,,,,,0,,,81,100
81216,note_on,,,,,320,0,13,,,,,5,,,54,85
81280,note_off,,,,,64,0,8,,,,,0,,,81,100
81312,note_on,,,,,32,0,8,,,,,0,,,80,100
81344,note_off,,,,,128,0,16,,,,,7,,,54,100
81344,note_off,,,,,128,0,14,,,,,6,,,42,100
81344,note_off,,,,,128,0,15,,,,,7,,,69,100
81344,note_off,,,,,0,0,15,,,,,7,,,73,100
81344,note_off,,,,,128,0,13,,,,,5,,,54,100
81376,note_off,,,,,64,0,8,,,,,0,,,80,100
81408,note_on,,,,,64,0,15,,,,,7,,,61,100
81408,note_on,,,,,0,0,15,,,,,7,,,69,100
81408,note_on,,,,,64,0,14,,,,,6,,,42,85
81408,note_on,,,,,64,0,16,,,,,7,,,42,100
81408,note_on,,,,,32,0,8,,,,,0,,,78,100
81408,note_on,,,,,64,0,13,,,,,5,,,42,85
81500,note_off,,,,,92,0,8,,,,,0,,,78,100
81504,note_on,,,,,4,0,8,,,,,0,,,80,100
81536,note_off,,,,,128,0,14,,,,,6,,,42,100
81536,note_off,,,,,0,0,15,,,,,7,,,69,100
81536,note_off,,,,,128,0,15,,,,,7,,,61,100
81536,note_off,,,,,128,0,13,,,,,5,,,42,100
81536,note_off,,,,,128,0,16,,,,,7,,,42,100
81596,note_off,,,,,92,0,8,,,,,0,,,80,100
81600,note_on,,,,,4,0,8,,,,,0,,,78,100
81600,note_on,,,,,64,0,14,,,,,6,,,42,85
81600,note_on,,,,,64,0,13,,,,,5,,,54,85
81600,note_on,,,,,64,0,15,,,,,7,,,69,100
81600,note_on,,,,,0,0,15,,,,,7,,,73,100
81600,note_on,,,,,64,0,16,,,,,7,,,54,100
81664,note_off,,,,,64,0,8,,,,,0,,,78,100
81696,note_on,,,,,32,0,8,,,,,0,,,76,100
81728,note_off,,,,,128,0,14,,,,,6,,,42,100
81728,note_off,,,,,128,0,16,,,,,7,,,54,100
81728,note_off,,,,,128,0,15,,,,,7,,,69,100
81728,note_off,,,,,0,0,15,,,,,7,,,73,100
81728,note_off,,,,,128,0,13,,,,,5,,,54,100
81760,note_off,,,,,64,0,8,,,,,0,,,76,100
81792,note_on,,,,,64,0,16,,,,,7,,,47,100
81792,note_on,,,,,0,0,15,,,,,7,,,69,100
81792,note_on,,,,,64,0,14,,,,,6,,,35,85
81792,note_on,,,,,32,0,8,,,,,0,,,75,100
81792,note_on,,,,,64,0,15,,,,,7,,,63,100
81792,note_on,,,,,64,0,13,,,,,5,,,47,85
81856,note_off,,,,,64,0,8,,,,,0,,,75,100
81888,note_on,,,,,32,0,8,,,,,0,,,78,100
81952,note_off,,,,,64,0,8,,,,,0,,,78,100
81984,note_on,,,,,32,0,8,,,,,0,,,75,100
82048,note_off,,,,,64,0,8,,,,,0,,,75,100
82048,note_off,,,,,0,0,15,,,,,7,,,69,100
82048,note_off,,,,,256,0,13,,,,,5,,,47,100
82048,note_off,,,,,256,0,14,,,,,6,,,35,100
82048,note_off,,,,,256,0,16,,,,,7,,,47,100
82048,note_off,,,,,256,0,15,,,,,7,,,63,100
82080,note_on,,,,,32,0,8,,,,,0,,,78,100
82144,note_off,,,,,64,0,8,,,,,0,,,78,100
82176,note_on,,,,,32,0,8,,,,,0,,,71,100
82240,note_off,,,,,64,0,8,,,,,0,,,71,100
82272,note_on,,,,,32,0,8,,,,,0,,,78,100
82336,note_off,,,,,64,0,8,,,,,0,,,78,100
82368,note_on,,,,,320,0,16,,,,,7,,,59,100
82368,note_on,,,,,32,0,8,,,,,0,,,75,100
82368,note_on,,,,,320,0,15,,,,,7,,,75,100
82368,note_on,,,,,0,0,15,,,,,7,,,66,100
82368,note_on,,,,,320,0,14,,,,,6,,,47,85
82368,note_on,,,,,320,0,13,,,,,5,,,59,85
82432,note_off,,,,,64,0,8,,,,,0,,,75,100
82464,note_on,,,,,32,0,8,,,,,0,,,78,100
82496,note_off,,,,,128,0,15,,,,,7,,,75,100
82496,note_off,,,,,0,0,15,,,,,7,,,66,100
82496,note_off,,,,,128,0,14,,,,,6,,,47,100
82496,note_off,,,,,128,0,13,,,,,5,,,59,100
82496,note_off,,,,,128,0,16,,,,,7,,,59,100
82528,note_off,,,,,64,0,8,,,,,0,,,78,100
82560,note_on,,,,,64,0,16,,,,,7,,,47,100
82560,note_on,,,,,0,0,15,,,,,7,,,66,100
82560,note_on,,,,,64,0,15,,,,,7,,,63,100
82560,note_on,,,,,64,0,14,,,,,6,,,35,85
82560,note_on,,,,,32,0,8,,,,,0,,,71,100
82560,note_on,,,,,64,0,13,,,,,5,,,47,85
82624,note_off,,,,,64,0,8,,,,,0,,,71,100
82656,note_on,,,,,32,0,8,,,,,0,,,78,100
82688,note_off,,,,,128,0,13,,,,,5,,,47,100
82688,note_off,,,,,0,0,15,,,,,7,,,66,100
82688,note_off,,,,,128,0,15,,,,,7,,,63,100
82688,note_off,,,,,128,0,16,,,,,7,,,47,100
82688,note_off,,,,,128,0,14,,,,,6,,,35,100
82720,note_off,,,,,64,0,8,,,,,0,,,78,100
82752,note_on,,,,,64,0,13,,,,,5,,,59,85
82752,note_on,,,,,64,0,14,,,,,6,,,47,85
82752,note_on,,,,,64,0,15,,,,,7,,,75,100
82752,note_on,,,,,64,0,16,,,,,7,,,59,100
82752,note_on,,,,,0,0,15,,,,,7,,,66,100
82752,note_on,,,,,32,0,8,,,,,0,,,75,100
82816,note_off,,,,,64,0,8,,,,,0,,,75,100
82848,note_on,,,,,32,0,8,,,,,0,,,78,100
82880,note_off,,,,,128,0,15,,,,,7,,,75,100
82880,note_off,,,,,0,0,15,,,,,7,,,66,100
82880,note_off,,,,,128,0,13,,,,,5,,,59,100
82880,note_off,,,,,128,0,14,,,,,6,,,47,100
82880,note_off,,,,,128,0,16,,,,,7,,,59,100
82912,note_off,,,,,64,0,8,,,,,0,,,78,100
82944,note_on,,,,,64,0,16,,,,,7,,,52,100
82944,note_on,,,,,32,0,8,,,,,0,,,80,100
82944,note_on,,,,,64,0,13,,,,,5,,,52,85
82944,note_on,,,,,64,0,15,,,,,7,,,68,100
82944,note_on,,,,,64,0,14,,,,,6,,,40,85
82944,note_on,,,,,0,0,15,,,,,7,,,71,100
83036,note_off,,,,,92,0,8,,,,,0,,,80,100
83040,note_on,,,,,4,0,8,,,,,0,,,81,100
83132,note_off,,,,,92,0,8,,,,,0,,,81,100
83136,note_on,,,,,4,0,8,,,,,0,,,83,100
83200,note_off,,,,,256,0,15,,,,,7,,,68,100
83200,note_off,,,,,0,0,15,,,,,7,,,71,100
83200,note_off,,,,,64,0,8,,,,,0,,,83,100
83200,note_off,,,,,256,0,16,,,,,7,,,52,100
83200,note_off,,,,,256,0,13,,,,,5,,,52,100
83200,note_off,,,,,256,0,14,,,,,6,,,40,100
83232,note_on,,,,,32,0,8,,,,,0,,,81,100
83296,note_off,,,,,64,0,8,,,,,0,,,81,100
83328,note_on,,,,,32,0,8,,,,,0,,,80,100
83420,note_off,,,,,92,0,8,,,,,0,,,80,100
83424,note_on,,,,,4,0,8,,,,,0,,,81,100
83516,note_off,,,,,92,0,8,,,,,0,,,81,100
83520,note_on,,,,,320,0,16,,,,,7,,,52,100
83520,note_on,,,,,320,0,15,,,,,7,,,68,100
83520,note_on,,,,,0,0,15,,,,,7,,,71,100
83520,note_on,,,,,4,0,8,,,,,0,,,83,100
83520,note_on,,,,,320,0,13,,,,,5,,,52,85
83520,note_on,,,,,320,0,14,,,,,6,,,40,85
83584,note_off,,,,,64,0,8,,,,,0,,,83,100
83616,note_on,,,,,32,0,8,,,,,0,,,81,100
83648,note_off,,,,,128,0,15,,,,,7,,,68,100
83648,note_off,,,,,128,0,13,,,,,5,,,52,100
83648,note_off,,,,,128,0,14,,,,,6,,,40,100
83648,note_off,,,,,128,0,16,,,,,7,,,52,100
83648,note_off,,,,,0,0,15,,,,,7,,,71,100
83680,note_off,,,,,64,0,8,,,,,0,,,81,100
83712,note_on,,,,,64,0,16,,,,,7,,,40,100
83712,note_on,,,,,64,0,13,,,,,5,,,40,85
83712,note_on,,,,,0,0,15,,,,,7,,,68,100
83712,note_on,,,,,64,0,15,,,,,7,,,59,100
83712,note_on,,,,,64,0,14,,,,,6,,,40,85
83712,note_on,,,,,32,0,8,,,,,0,,,80,100
83804,note_off,,,,,92,0,8,,,,,0,,,80,100
83808,note_on,,,,,4,0,8,,,,,0,,,78,100
83840,note_off,,,,,128,0,15,,,,,7,,,59,100
83840,note_off,,,,,128,0,16,,,,,7,,,40,100
83840,note_off,,,,,128,0,13,,,,,5,,,40,100
83840,note_off,,,,,0,0,15,,,,,7,,,68,100
83840,note_off,,,,,128,0,14,,,,,6,,,40,100
83900,note_off,,,,,92,0,8,,,,,0,,,78,100
83904,note_on,,,,,64,0,16,,,,,7,,,52,100
83904,note_on,,,,,4,0,8,,,,,0,,,76,100
83904,note_on,,,,,64,0,13,,,,,5,,,52,85
83904,note_on,,,,,0,0,15,,,,,7,,,68,100
83904,note_on,,,,,64,0,15,,,,,7,,,71,100
83904,note_on,,,,,64,0,14,,,,,6,,,40,85
83968,note_off,,,,,64,0,8,,,,,0,,,76,100
84000,note_on,,,,,32,0,8,,,,,0,,,74,100
84032,note_off,,,,,128,0,15,,,,,7,,,71,100
84032,note_off,,,,,0,0,15,,,,,7,,,68,100
84032,note_off,,,,,128,0,13,,,,,5,,,52,100
84032,note_off,,,,,128,0,14,,,,,6,,,40,100
84032,note_off,,,,,128,0,16,,,,,7,,,52,100
84064,note_off,,,,,64,0,8,,,,,0,,,74,100
84096,note_on,,,,,64,0,14,,,,,6,,,33,85
84096,note_on,,,,,64,0,15,,,,,7,,,64,100
84096,note_on,,,,,0,0,15,,,,,7,,,67,100
84096,note_on,,,,,32,0,8,,,,,0,,,73,100
84096,note_on,,,,,64,0,16,,,,,7,,,45,100
84096,note_on,,,,,64,0,13,,,,,5,,,45,85
84160,note_off,,,,,64,0,8,,,,,0,,,73,100
84192,note_on,,,,,32,0,8,,,,,0,,,76,100
84256,note_off,,,,,64,0,8,,,,,0,,,76,100
84288,note_on,,,,,32,0,8,,,,,0,,,73,100
84352,note_off,,,,,256,0,14,,,,,6,,,33,100
84352,note_off,,,,,0,0,15,,,,,7,,,67,100
84352,note_off,,,,,256,0,13,,,,,5,,,45,100
84352,note_off,,,,,256,0,16,,,,,7,,,45,100
84352,note_off,,,,,64,0,8,,,,,0,,,73,100
84352,note_off,,,,,256,0,15,,,,,7,,,64,100
84384,note_on,,,,,32,0,8,,,,,0,,,76,100
84448,note_off,,,,,64,0,8,,,,,0,,,76,100
84480,note_on,,,,,32,0,8,,,,,0,,,69,100
84544,note_off,,,,,64,0,8,,,,,0,,,69,100
84576,note_on,,,,,32,0,8,,,,,0,,,76,100
84640,note_off,,,,,64,0,8,,,,,0,,,76,100
84672,note_on,,,,,320,0,13,,,,,5,,,57,85
84672,note_on,,,,,320,0,15,,,,,7,,,64,100
84672,note_on,,,,,0,0,15,,,,,7,,,73,100
84672,note_on,,,,,32,0,8,,,,,0,,,73,100
84672,note_on,,,,,320,0,16,,,,,7,,,57,100
84672,note_on,,,,,320,0,14,,,,,6,,,45,85
84736,note_off,,,,,64,0,8,,,,,0,,,73,100
84768,note_on,,,,,32,0,8,,,,,0,,,76,100
84800,note_off,,,,,128,0,15,,,,,7,,,64,100
84800,note_off,,,,,0,0,15,,,,,7,,,73,100
84800,note_off,,,,,128,0,16,,,,,7,,,57,100
84800,note_off,,,,,128,0,14,,,,,6,,,45,100
84800,note_off,,,,,128,0,13,,,,,5,,,57,100
84832,note_off,,,,,64,0,8,,,,,0,,,76,100
84864,note_on,,,,,64,0,16,,,,,7,,,45,100
84864,note_on,,,,,64,0,14,,,,,6,,,33,85
84864,note_on,,,,,64,0,13,,,,,5,,,45,85
84864,note_on,,,,,64,0,15,,,,,7,,,61,100
84864,note_on,,,,,0,0,15,,,,,7,,,64,100
84864,note_on,,,,,32,0,8,,,,,0,,,69,100
84928,note_off,,,,,64,0,8,,,,,0,,,69,100
84960,note_on,,,,,32,0,8,,,,,0,,,76,100
84992,note_off,,,,,128,0,15,,,,,7,,,61,100
84992,note_off,,,,,128,0,13,,,,,5,,,45,100
84992,note_off,,,,,0,0,15,,,,,7,,,64,100
84992,note_off,,,,,128,0,14,,,,,6,,,33,100
84992,note_off,,,,,128,0,16,,,,,7,,,45,100
85024,note_off,,,,,64,0,8,,,,,0,,,76,100
85056,note_on,,,,,64,0,13,,,,,5,,,57,85
85056,note_on,,,,,64,0,15,,,,,7,,,73,100
85056,note_on,,,,,0,0,15,,,,,7,,,64,100
85056,note_on,,,,,64,0,14,,,,,6,,,45,85
85056,note_on,,,,,32,0,8,,,,,0,,,73,100
85056,note_on,,,,,64,0,16,,,,,7,,,57,100
85120,note_off,,,,,64,0,8,,,,,0,,,73,100
85152,note_on,,,,,32,0,8,,,,,0,,,76,100
85184,note_off,,,,,128,0,16,,,,,7,,,57,100
85184,note_off,,,,,128,0,15,,,,,7,,,73,100
85184,note_off,,,,,128,0,13,,,,,5,,,57,100
85184,note_off,,,,,0,0,15,,,,,7,,,64,100
85184,note_off,,,,,128,0,14,,,,,6,,,45,100
85216,note_off,,,,,64,0,8,,,,,0,,,76,100
85248,note_on,,,,,64,0,13,,,,,5,,,50,85
85248,note_on,,,,,32,0,8,,,,,0,,,78,100
85248,note_on,,,,,64,0,16,,,,,7,,,50,100
85248,note_on,,,,,0,0,15,,,,,7,,,69,100
85248,note_on,,,,,64,0,15,,,,,7,,,66,100
85248,note_on,,,,,64,0,14,,,,,6,,,38,85
85340,note_off,,,,,92,0,8,,,,,0,,,78,100
85344,note_on,,,,,4,0,8,,,,,0,,,80,100
85436,note_off,,,,,92,0,8,,,,,0,,,80,100
85440,note_on,,,,,4,0,8,,,,,0,,,81,100
85504,note_off,,,,,256,0,14,,,,,6,,,38,100
85504,note_off,,,,,256,0,16,,,,,7,,,50,100
85504,note_off,,,,,256,0,13,,,,,5,,,50,100
85504,note_off,,,,,64,0,8,,,,,0,,,81,100
85504,note_off,,,,,256,0,15,,,,,7,,,66,100
85504,note_off,,,,,0,0,15,,,,,7,,,69,100
85536,note_on,,,,,32,0,8,,,,,0,,,80,100
85600,note_off,,,,,64,0,8,,,,,0,,,80,100
85632,note_on,,,,,32,0,8,,,,,0,,,78,100
85724,note_off,,,,,92,0,8,,,,,0,,,78,100
85728,note_on,,,,,4,0,8,,,,,0,,,80,100
85820,note_off,,,,,92,0,8,,,,,0,,,80,100
85824,note_on,,,,,320,0,15,,,,,7,,,78,100
85824,note_on,,,,,0,0,15,,,,,7,,,69,100
85824,note_on,,,,,320,0,14,,,,,6,,,50,85
85824,note_on,,,,,4,0,8,,,,,0,,,81,100
85824,note_on,,,,,320,0,13,,,,,5,,,62,85
85824,note_on,,,,,320,0,16,,,,,7,,,62,100
85888,note_off,,,,,64,0,8,,,,,0,,,81,100
85920,note_on,,,,,32,0,8,,,,,0,,,80,100
85952,note_off,,,,,128,0,13,,,,,5,,,62,100
85952,note_off,,,,,128,0,16,,,,,7,,,62,100
85952,note_off,,,,,0,0,15,,,,,7,,,69,100
85952,note_off,,,,,128,0,15,,,,,7,,,78,100
85952,note_off,,,,,128,0,14,,,,,6,,,50,100
85984,note_off,,,,,64,0,8,,,,,0,,,80,100
86016,note_on,,,,,32,0,8,,,,,0,,,78,100
86016,note_on,,,,,64,0,16,,,,,7,,,50,100
86016,note_on,,,,,64,0,15,,,,,7,,,66,100
86016,note_on,,,,,0,0,15,,,,,7,,,69,100
86016,note_on,,,,,64,0,13,,,,,5,,,50,85
86016,note_on,,,,,64,0,14,,,,,6,,,38,85
86108,note_off,,,,,92,0,8,,,,,0,,,78,100
86112,note_on,,,,,4,0,8,,,,,0,,,76,100
86144,note_off,,,,,128,0,16,,,,,7,,,50,100
86144,note_off,,,,,128,0,15,,,,,7,,,66,100
86144,note_off,,,,,128,0,13,,,,,5,,,50,100
86144,note_off,,,,,128,0,14,,,,,6,,,38,100
86144,note_off,,,,,0,0,15,,,,,7,,,69,100
86204,note_off,,,,,92,0,8,,,,,0,,,76,100
86208,note_on,,,,,64,0,14,,,,,6,,,50,85
86208,note_on,,,,,4,0,8,,,,,0,,,74,100
86208,note_on,,,,,64,0,13,,,,,5,,,62,85
86208,note_on,,,,,64,0,15,,,,,7,,,78,100
86208,note_on,,,,,0,0,15,,,,,7,,,69,100
86208,note_on,,,,,64,0,16,,,,,7,,,62,100
86272,note_off,,,,,64,0,8,,,,,0,,,74,100
86304,note_on,,,,,32,0,8,,,,,0,,,73,100
86336,note_off,,,,,128,0,13,,,,,5,,,62,100
86336,note_off,,,,,128,0,15,,,,,7,,,78,100
86336,note_off,,,,,0,0,15,,,,,7,,,69,100
86336,note_off,,,,,128,0,14,,,,,6,,,50,100
86336,note_off,,,,,128,0,16,,,,,7,,,62,100
86368,note_off,,,,,64,0,8,,,,,0,,,73,100
86400,note_on,,,,,0,0,15,,,,,7,,,69,100
86400,note_on,,,,,64,0,13,,,,,5,,,50,85
86400,note_on,,,,,64,0,15,,,,,7,,,66,100
86400,note_on,,,,,64,0,16,,,,,7,,,50,100
86400,note_on,,,,,32,0,8,,,,,0,,,74,100
86400,note_on,,,,,64,0,14,,,,,6,,,38,85
86492,note_off,,,,,92,0,8,,,,,0,,,74,100
86496,note_on,,,,,4,0,8,,,,,0,,,76,100
86588,note_off,,,,,92,0,8,,,,,0,,,76,100
86592,note_on,,,,,4,0,8,,,,,0,,,78,100
86656,note_off,,,,,256,0,13,,,,,5,,,50,100
86656,note_off,,,,,256,0,16,,,,,7,,,50,100
86656,note_off,,,,,0,0,15,,,,,7,,,69,100
86656,note_off,,,,,256,0,14,,,,,6,,,38,100
86656,note_off,,,,,64,0,8,,,,,0,,,78,100
86656,note_off,,,,,256,0,15,,,,,7,,,66,100
86688,note_on,,,,,32,0,8,,,,,0,,,76,100
86752,note_off,,,,,64,0,8,,,,,0,,,76,100
86784,note_on,,,,,32,0,8,,,,,0,,,74,100
86876,note_off,,,,,92,0,8,,,,,0,,,74,100
86880,note_on,,,,,4,0,8,,,,,0,,,76,100
86972,note_off,,,,,92,0,8,,,,,0,,,76,100
86976,note_on,,,,,320,0,16,,,,,7,,,62,100
86976,note_on,,,,,320,0,14,,,,,6,,,50,85
86976,note_on,,,,,320,0,15,,,,,7,,,78,100
86976,note_on,,,,,0,0,15,,,,,7,,,69,100
86976,note_on,,,,,4,0,8,,,,,0,,,78,100
86976,note_on,,,,,320,0,13,,,,,5,,,62,85
87040,note_off,,,,,64,0,8,,,,,0,,,78,100
87072,note_on,,,,,32,0,8,,,,,0,,,76,100
87104,note_off,,,,,128,0,13,,,,,5,,,62,100
87104,note_off,,,,,128,0,16,,,,,7,,,62,100
87104,note_off,,,,,0,0,15,,,,,7,,,69,100
87104,note_off,,,,,128,0,15,,,,,7,,,78,100
87104,note_off,,,,,128,0,14,,,,,6,,,50,100
87136,note_off,,,,,64,0,8,,,,,0,,,76,100
87168,note_on,,,,,32,0,8,,,,,0,,,74,100
87168,note_on,,,,,64,0,16,,,,,7,,,50,100
87168,note_on,,,,,64,0,14,,,,,6,,,38,85
87168,note_on,,,,,0,0,15,,,,,7,,,69,100
87168,note_on,,,,,64,0,13,,,,,5,,,50,85
87168,note_on,,,,,64,0,15,,,,,7,,,66,100
87260,note_off,,,,,92,0,8,,,,,0,,,74,100
87264,note_on,,,,,4,0,8,,,,,0,,,73,100
87296,note_off,,,,,128,0,14,,,,,6,,,38,100
87296,note_off,,,,,128,0,16,,,,,7,,,50,100
87296,note_off,,,,,128,0,13,,,,,5,,,50,100
87296,note_off,,,,,128,0,15,,,,,7,,,66,100
87296,note_off,,,,,0,0,15,,,,,7,,,69,100
87356,note_off,,,,,92,0,8,,,,,0,,,73,100
87360,note_on,,,,,4,0,8,,,,,0,,,71,100
87360,note_on,,,,,0,0,15,,,,,7,,,69,100
87360,note_on,,,,,64,0,16,,,,,7,,,62,100
87360,note_on,,,,,64,0,15,,,,,7,,,78,100
87360,note_on,,,,,64,0,13,,,,,5,,,62,85
87360,note_on,,,,,64,0,14,,,,,6,,,50,85
87424,note_off,,,,,64,0,8,,,,,0,,,71,100
87456,note_on,,,,,32,0,8,,,,,0,,,69,100
87488,note_off,,,,,128,0,15,,,,,7,,,78,100
87488,note_off,,,,,0,0,15,,,,,7,,,69,100
87488,note_off,,,,,128,0,13,,,,,5,,,62,100
87488,note_off,,,,,128,0,16,,,,,7,,,62,100
87488,note_off,,,,,128,0,14,,,,,6,,,50,100
87520,note_off,,,,,64,0,8,,,,,0,,,69,100
87552,note_on,,,,,64,0,13,,,,,5,,,50,85
87552,note_on,,,,,64,0,16,,,,,7,,,50,100
87552,note_on,,,,,0,0,15,,,,,7,,,66,100
87552,note_on,,,,,64,0,15,,,,,7,,,71,100
87552,note_on,,,,,32,0,8,,,,,0,,,71,100
87552,note_on,,,,,64,0,14,,,,,6,,,38,85
87644,note_off,,,,,92,0,8,,,,,0,,,71,100
87648,note_on,,,,,4,0,8,,,,,0,,,73,100
87740,note_off,,,,,92,0,8,,,,,0,,,73,100
87744,note_on,,,,,4,0,8,,,,,0,,,74,100
87808,note_off,,,,,256,0,13,,,,,5,,,50,100
87808,note_off,,,,,256,0,16,,,,,7,,,50,100
87808,note_off,,,,,0,0,15,,,,,7,,,66,100
87808,note_off,,,,,256,0,15,,,,,7,,,71,100
87808,note_off,,,,,256,0,14,,,,,6,,,38,100
87808,note_off,,,,,64,0,8,,,,,0,,,74,100
87840,note_on,,,,,32,0,8,,,,,0,,,73,100
87904,note_off,,,,,64,0,8,,,,,0,,,73,100
87936,note_on,,,,,32,0,8,,,,,0,,,71,100
88028,note_off,,,,,92,0,8,,,,,0,,,71,100
88032,note_on,,,,,4,0,8,,,,,0,,,73,100
88124,note_off,,,,,92,0,8,,,,,0,,,73,100
88128,note_on,,,,,4,0,8,,,,,0,,,74,100
88128,note_on,,,,,0,0,15,,,,,7,,,69,100
88128,note_on,,,,,320,0,13,,,,,5,,,62,85
88128,note_on,,,,,320,0,14,,,,,6,,,50,85
88128,note_on,,,,,320,0,16,,,,,7,,,62,100
88128,note_on,,,,,320,0,15,,,,,7,,,78,100
88192,note_off,,,,,64,0,8,,,,,0,,,74,100
88224,note_on,,,,,32,0,8,,,,,0,,,73,100
88256,note_off,,,,,0,0,15,,,,,7,,,69,100
88256,note_off,,,,,128,0,14,,,,,6,,,50,100
88256,note_off,,,,,128,0,13,,,,,5,,,62,100
88256,note_off,,,,,128,0,16,,,,,7,,,62,100
88256,note_off,,,,,128,0,15,,,,,7,,,78,100
88288,note_off,,,,,64,0,8,,,,,0,,,73,100
88320,note_on,,,,,0,0,15,,,,,7,,,69,100
88320,note_on,,,,,64,0,16,,,,,7,,,50,100
88320,note_on,,,,,32,0,8,,,,,0,,,71,100
88320,note_on,,,,,64,0,15,,,,,7,,,66,100
88320,note_on,,,,,64,0,14,,,,,6,,,38,85
88320,note_on,,,,,64,0,13,,,,,5,,,50,85
88412,note_off,,,,,92,0,8,,,,,0,,,71,100
88416,note_on,,,,,4,0,8,,,,,0,,,69,100
88448,note_off,,,,,128,0,16,,,,,7,,,50,100
88448,note_off,,,,,128,0,15,,,,,7,,,66,100
88448,note_off,,,,,128,0,13,,,,,5,,,50,100
88448,note_off,,,,,0,0,15,,,,,7,,,69,100
88448,note_off,,,,,128,0,14,,,,,6,,,38,100
88508,note_off,,,,,92,0,8,,,,,0,,,69,100
88512,note_on,,,,,4,0,8,,,,,0,,,68,100
88512,note_on,,,,,64,0,15,,,,,7,,,78,100
88512,note_on,,,,,64,0,16,,,,,7,,,62,100
88512,note_on,,,,,64,0,14,,,,,6,,,50,85
88512,note_on,,,,,64,0,13,,,,,5,,,62,85
88512,note_on,,,,,0,0,15,,,,,7,,,69,100
88576,note_off,,,,,64,0,8,,,,,0,,,68,100
88608,note_on,,,,,32,0,8,,,,,0,,,66,100
88640,note_off,,,,,128,0,15,,,,,7,,,78,100
88640,note_off,,,,,128,0,14,,,,,6,,,50,100
88640,note_off,,,,,128,0,16,,,,,7,,,62,100
88640,note_off,,,,,128,0,13,,,,,5,,,62,100
88640,note_off,,,,,0,0,15,,,,,7,,,69,100
88672,note_off,,,,,64,0,8,,,,,0,,,66,100
88704,note_on,,,,,64,0,13,,,,,5,,,52,85
88704,note_on,,,,,0,0,15,,,,,7,,,71,100
88704,note_on,,,,,32,0,8,,,,,0,,,68,100
88704,note_on,,,,,64,0,16,,,,,7,,,52,100
88704,note_on,,,,,64,0,15,,,,,7,,,68,100
88704,note_on,,,,,64,0,14,,,,,6,,,40,85
88796,note_off,,,,,92,0,8,,,,,0,,,68,100
88800,note_on,,,,,4,0,8,,,,,0,,,66,100
88892,note_off,,,,,92,0,8,,,,,0,,,66,100
88896,note_on,,,,,4,0,8,,,,,0,,,64,100
88960,note_off,,,,,0,0,15,,,,,7,,,71,100
88960,note_off,,,,,256,0,14,,,,,6,,,40,100
88960,note_off,,,,,256,0,16,,,,,7,,,52,100
88960,note_off,,,,,256,0,13,,,,,5,,,52,100
88960,note_off,,,,,256,0,15,,,,,7,,,68,100
88960,note_off,,,,,64,0,8,,,,,0,,,64,100
88992,note_on,,,,,32,0,8,,,,,0,,,66,100
89056,note_off,,,,,64,0,8,,,,,0,,,66,100
89088,note_on,,,,,32,0,8,,,,,0,,,68,100
89180,note_off,,,,,92,0,8,,,,,0,,,68,100
89184,note_on,,,,,4,0,8,,,,,0,,,69,100
89276,note_off,,,,,92,0,8,,,,,0,,,69,100
89280,note_on,,,,,320,0,13,,,,,5,,,64,85
89280,note_on,,,,,320,0,15,,,,,7,,,74,100
89280,note_on,,,,,0,0,15,,,,,7,,,71,100
89280,note_on,,,,,4,0,8,,,,,0,,,71,100
89280,note_on,,,,,320,0,16,,,,,7,,,64,100
89280,note_on,,,,,320,0,14,,,,,6,,,52,85
89344,note_off,,,,,64,0,8,,,,,0,,,71,100
89376,note_on,,,,,32,0,8,,,,,0,,,73,100
89408,note_off,,,,,128,0,13,,,,,5,,,64,100
89408,note_off,,,,,128,0,14,,,,,6,,,52,100
89408,note_off,,,,,128,0,15,,,,,7,,,74,100
89408,note_off,,,,,0,0,15,,,,,7,,,71,100
89408,note_off,,,,,128,0,16,,,,,7,,,64,100
89440,note_off,,,,,64,0,8,,,,,0,,,73,100
89472,note_on,,,,,64,0,14,,,,,6,,,40,85
89472,note_on,,,,,64,0,15,,,,,7,,,62,100
89472,note_on,,,,,64,0,13,,,,,5,,,52,85
89472,note_on,,,,,64,0,16,,,,,7,,,52,100
89472,note_on,,,,,32,0,8,,,,,0,,,74,100
89472,note_on,,,,,0,0,15,,,,,7,,,71,100
89536,note_off,,,,,64,0,8,,,,,0,,,74,100
89568,note_on,,,,,32,0,8,,,,,0,,,71,100
89600,note_off,,,,,128,0,13,,,,,5,,,52,100
89600,note_off,,,,,128,0,14,,,,,6,,,40,100
89600,note_off,,,,,0,0,15,,,,,7,,,71,100
89600,note_off,,,,,128,0,15,,,,,7,,,62,100
89600,note_off,,,,,128,0,16,,,,,7,,,52,100
89632,note_off,,,,,64,0,8,,,,,0,,,71,100
89664,note_on,,,,,64,0,14,,,,,6,,,52,85
89664,note_on,,,,,64,0,13,,,,,5,,,64,85
89664,note_on,,,,,0,0,15,,,,,7,,,71,100
89664,note_on,,,,,64,0,15,,,,,7,,,74,100
89664,note_on,,,,,32,0,8,,,,,0,,,73,100
89664,note_on,,,,,64,0,16,,,,,7,,,64,100
89728,note_off,,,,,64,0,8,,,,,0,,,73,100
89760,note_on,,,,,32,0,8,,,,,0,,,74,100
89792,note_off,,,,,128,0,14,,,,,6,,,52,100
89792,note_off,,,,,128,0,16,,,,,7,,,64,100
89792,note_off,,,,,128,0,15,,,,,7,,,74,100
89792,note_off,,,,,0,0,15,,,,,7,,,71,100
89792,note_off,,,,,128,0,13,,,,,5,,,64,100
89824,note_off,,,,,64,0,8,,,,,0,,,74,100
89856,note_on,,,,,64,0,13,,,,,5,,,45,85
89856,note_on,,,,,8960,0,12,,,,,4,,,64,85
89856,note_on,,,,,64,0,15,,,,,7,,,64,100
89856,note_on,,,,,0,0,15,,,,,7,,,73,100
89856,note_on,,,,,64,0,14,,,,,6,,,33,85
89856,note_on,,,,,64,0,16,,,,,7,,,45,100
89856,note_on,,,,,32,0,8,,,,,0,,,73,100
90048,note_on,,,,,9152,0,10,,,,,2,,,69,100
90112,note_off,,,,,256,0,8,,,,,0,,,73,100
90112,note_off,,,,,256,0,12,,,,,4,,,64,100
90112,note_off,,,,,256,0,13,,,,,5,,,45,100
90112,note_off,,,,,0,0,15,,,,,7,,,73,100
90112,note_off,,,,,256,0,15,,,,,7,,,64,100
90112,note_off,,,,,256,0,14,,,,,6,,,33,100
90112,note_off,,,,,256,0,16,,,,,7,,,45,100
90176,note_off,,,,,128,0,10,,,,,2,,,69,100
90240,note_on,,,,,9344,0,11,,,,,3,,,76,100
90240,note_on,,,,,64,0,10,,,,,2,,,73,100
90368,note_off,,,,,128,0,10,,,,,2,,,73,100
90432,note_on,,,,,320,0,16,,,,,7,,,45,100
90432,note_on,,,,,320,0,13,,,,,5,,,45,85
90432,note_on,,,,,64,0,10,,,,,2,,,76,100
90432,note_on,,,,,320,0,15,,,,,7,,,61,100
90432,note_on,,,,,0,0,15,,,,,7,,,64,100
90432,note_on,,,,,320,0,14,,,,,6,,,33,85
90496,note_off,,,,,256,0,11,,,,,3,,,76,100
90560,note_off,,,,,128,0,16,,,,,7,,,45,100
90560,note_off,,,,,128,0,13,,,,,5,,,45,100
90560,note_off,,,,,128,0,14,,,,,6,,,33,100
90560,note_off,,,,,128,0,15,,,,,7,,,61,100
90560,note_off,,,,,128,0,10,,,,,2,,,76,100
90560,note_off,,,,,0,0,15,,,,,7,,,64,100
90624,note_on,,,,,64,0,15,,,,,7,,,69,100
90624,note_on,,,,,64,0,14,,,,,6,,,37,85
90624,note_on,,,,,64,0,16,,,,,7,,,49,100
90624,note_on,,,,,512,0,12,,,,,4,,,64,85
90624,note_on,,,,,64,0,13,,,,,5,,,49,85
90624,note_on,,,,,64,0,10,,,,,2,,,69,100
90624,note_on,,,,,128,0,11,,,,,3,,,76,100
90624,note_on,,,,,0,0,15,,,,,7,,,64,100
90752,note_off,,,,,128,0,14,,,,,6,,,37,100
90752,note_off,,,,,128,0,10,,,,,2,,,69,100
90752,note_off,,,,,128,0,16,,,,,7,,,49,100
90752,note_off,,,,,128,0,15,,,,,7,,,69,100
90752,note_off,,,,,128,0,13,,,,,5,,,49,100
90752,note_off,,,,,0,0,15,,,,,7,,,64,100
90816,note_on,,,,,64,0,16,,,,,7,,,45,100
90816,note_on,,,,,64,0,15,,,,,7,,,61,100
90816,note_on,,,,,0,0,15,,,,,7,,,64,100
90816,note_on,,,,,64,0,13,,,,,5,,,45,85
90816,note_on,,,,,64,0,14,,,,,6,,,33,85
90816,note_on,,,,,64,0,10,,,,,2,,,73,100
90880,note_off,,,,,256,0,12,,,,,4,,,64,100
90880,note_off,,,,,256,0,11,,,,,3,,,76,100
90944,note_off,,,,,0,0,15,,,,,7,,,64,100
90944,note_off,,,,,128,0,15,,,,,7,,,61,100
90944,note_off,,,,,128,0,16,,,,,7,,,45,100
90944,note_off,,,,,128,0,13,,,,,5,,,45,100
90944,note_off,,,,,128,0,10,,,,,2,,,73,100
90944,note_off,,,,,128,0,14,,,,,6,,,33,100
91008,note_on,,,,,64,0,10,,,,,2,,,71,100
91008,note_on,,,,,64,0,14,,,,,6,,,40,85
91008,note_on,,,,,0,0,15,,,,,7,,,71,100
91008,note_on,,,,,128,0,12,,,,,4,,,68,85
91008,note_on,,,,,128,0,11,,,,,3,,,76,100
91008,note_on,,,,,64,0,16,,,,,7,,,52,100
91008,note_on,,,,,64,0,15,,,,,7,,,68,100
91008,note_on,,,,,64,0,13,,,,,5,,,52,85
91136,note_off,,,,,128,0,10,,,,,2,,,71,100
91200,note_on,,,,,64,0,10,,,,,2,,,64,100
91264,note_off,,,,,256,0,11,,,,,3,,,76,100
91264,note_off,,,,,256,0,16,,,,,7,,,52,100
91264,note_off,,,,,256,0,12,,,,,4,,,68,100
91264,note_off,,,,,256,0,14,,,,,6,,,40,100
91264,note_off,,,,,256,0,15,,,,,7,,,68,100
91264,note_off,,,,,0,0,15,,,,,7,,,71,100
91264,note_off,,,,,256,0,13,,,,,5,,,52,100
91328,note_off,,,,,128,0,10,,,,,2,,,64,100
91392,note_on,,,,,64,0,10,,,,,2,,,68,100
91392,note_on,,,,,128,0,11,,,,,3,,,76,100
91520,note_off,,,,,128,0,10,,,,,2,,,68,100
91584,note_on,,,,,320,0,15,,,,,7,,,59,100
91584,note_on,,,,,0,0,15,,,,,7,,,68,100
91584,note_on,,,,,320,0,12,,,,,4,,,68,85
91584,note_on,,,,,320,0,14,,,,,6,,,40,85
91584,note_on,,,,,320,0,16,,,,,7,,,52,100
91584,note_on,,,,,320,0,13,,,,,5,,,52,85
91584,note_on,,,,,64,0,10,,,,,2,,,71,100
91648,note_off,,,,,256,0,11,,,,,3,,,76,100
91712,note_off,,,,,128,0,13,,,,,5,,,52,100
91712,note_off,,,,,128,0,16,,,,,7,,,52,100
91712,note_off,,,,,128,0,15,,,,,7,,,59,100
91712,note_off,,,,,0,0,15,,,,,7,,,68,100
91712,note_off,,,,,128,0,14,,,,,6,,,40,100
91712,note_off,,,,,128,0,10,,,,,2,,,71,100
91712,note_off,,,,,128,0,12,,,,,4,,,68,100
91776,note_on,,,,,64,0,10,,,,,2,,,76,100
91776,note_on,,,,,64,0,15,,,,,7,,,64,100
91776,note_on,,,,,0,0,15,,,,,7,,,71,100
91776,note_on,,,,,64,0,13,,,,,5,,,56,85
91776,note_on,,,,,64,0,16,,,,,7,,,56,100
91776,note_on,,,,,64,0,12,,,,,4,,,71,85
91776,note_on,,,,,128,0,11,,,,,3,,,76,100
91776,note_on,,,,,64,0,14,,,,,6,,,44,85
91904,note_off,,,,,128,0,16,,,,,7,,,56,100
91904,note_off,,,,,128,0,13,,,,,5,,,56,100
91904,note_off,,,,,0,0,15,,,,,7,,,71,100
91904,note_off,,,,,128,0,15,,,,,7,,,64,100
91904,note_off,,,,,128,0,14,,,,,6,,,44,100
91904,note_off,,,,,128,0,10,,,,,2,,,76,100
91904,note_off,,,,,128,0,12,,,,,4,,,71,100
91968,note_on,,,,,0,0,15,,,,,7,,,68,100
91968,note_on,,,,,64,0,15,,,,,7,,,59,100
91968,note_on,,,,,64,0,14,,,,,6,,,40,85
91968,note_on,,,,,64,0,16,,,,,7,,,52,100
91968,note_on,,,,,64,0,10,,,,,2,,,71,100
91968,note_on,,,,,64,0,12,,,,,4,,,68,85
91968,note_on,,,,,64,0,13,,,,,5,,,52,85
92032,note_off,,,,,256,0,11,,,,,3,,,76,100
92096,note_off,,,,,128,0,15,,,,,7,,,59,100
92096,note_off,,,,,128,0,14,,,,,6,,,40,100
92096,note_off,,,,,128,0,13,,,,,5,,,52,100
92096,note_off,,,,,128,0,12,,,,,4,,,68,100
92096,note_off,,,,,128,0,10,,,,,2,,,71,100
92096,note_off,,,,,0,0,15,,,,,7,,,68,100
92096,note_off,,,,,128,0,16,,,,,7,,,52,100
92160,note_on,,,,,64,0,13,,,,,5,,,57,85
92160,note_on,,,,,64,0,12,,,,,4,,,64,85
92160,note_on,,,,,64,0,16,,,,,7,,,57,100
92160,note_on,,,,,128,0,11,,,,,3,,,76,100
92160,note_on,,,,,64,0,15,,,,,7,,,64,100
92160,note_on,,,,,0,0,15,,,,,7,,,73,100
92160,note_on,,,,,64,0,10,,,,,2,,,73,100
92160,note_on,,,,,64,0,14,,,,,6,,,45,85
92288,note_off,,,,,128,0,11,,,,,3,,,76,100
92352,note_on,,,,,64,0,11,,,,,3,,,69,90
92416,note_off,,,,,256,0,10,,,,,2,,,73,100
92416,note_off,,,,,256,0,13,,,,,5,,,57,100
92416,note_off,,,,,256,0,12,,,,,4,,,64,100
92416,note_off,,,,,0,0,15,,,,,7,,,73,100
92416,note_off,,,,,256,0,14,,,,,6,,,45,100
92416,note_off,,,,,256,0,15,,,,,7,,,64,100
92416,note_off,,,,,256,0,16,,,,,7,,,57,100
92480,note_off,,,,,128,0,11,,,,,3,,,69,100
92544,note_on,,,,,128,0,10,,,,,2,,,76,90
92544,note_on,,,,,64,0,11,,,,,3,,,73,90
92672,note_off,,,,,128,0,11,,,,,3,,,73,100
92736,note_on,,,,,320,0,13,,,,,5,,,45,90
92736,note_on,,,,,320,0,15,,,,,7,,,61,100
92736,note_on,,,,,320,0,16,,,,,7,,,45,100
92736,note_on,,,,,0,0,15,,,,,7,,,64,100
92736,note_on,,,,,64,0,11,,,,,3,,,76,90
92736,note_on,,,,,320,0,14,,,,,6,,,33,90
92800,note_off,,,,,256,0,10,,,,,2,,,76,100
92864,note_off,,,,,128,0,16,,,,,7,,,45,100
92864,note_off,,,,,128,0,15,,,,,7,,,61,100
92864,note_off,,,,,128,0,11,,,,,3,,,76,100
92864,note_off,,,,,128,0,14,,,,,6,,,33,100
92864,note_off,,,,,128,0,13,,,,,5,,,45,100
92864,note_off,,,,,0,0,15,,,,,7,,,64,100
92928,note_on,,,,,0,0,15,,,,,7,,,64,100
92928,note_on,,,,,64,0,15,,,,,7,,,69,100
92928,note_on,,,,,64,0,16,,,,,7,,,49,100
92928,note_on,,,,,512,0,12,,,,,4,,,64,90
92928,note_on,,,,,64,0,11,,,,,3,,,69,90
92928,note_on,,,,,128,0,10,,,,,2,,,76,90
92928,note_on,,,,,64,0,14,,,,,6,,,37,90
92928,note_on,,,,,64,0,13,,,,,5,,,49,90
93056,note_off,,,,,0,0,15,,,,,7,,,64,100
93056,note_off,,,,,128,0,15,,,,,7,,,69,100
93056,note_off,,,,,128,0,14,,,,,6,,,37,100
93056,note_off,,,,,128,0,11,,,,,3,,,69,100
93056,note_off,,,,,128,0,16,,,,,7,,,49,100
93056,note_off,,,,,128,0,13,,,,,5,,,49,100
93120,note_on,,,,,64,0,14,,,,,6,,,33,90
93120,note_on,,,,,64,0,13,,,,,5,,,45,90
93120,note_on,,,,,64,0,11,,,,,3,,,73,90
93120,note_on,,,,,64,0,15,,,,,7,,,61,100
93120,note_on,,,,,64,0,16,,,,,7,,,45,100
93120,note_on,,,,,0,0,15,,,,,7,,,64,100
93184,note_off,,,,,256,0,12,,,,,4,,,64,100
93184,note_off,,,,,256,0,10,,,,,2,,,76,100
93248,note_off,,,,,128,0,13,,,,,5,,,45,100
93248,note_off,,,,,128,0,16,,,,,7,,,45,100
93248,note_off,,,,,128,0,15,,,,,7,,,61,100
93248,note_off,,,,,0,0,15,,,,,7,,,64,100
93248,note_off,,,,,128,0,11,,,,,3,,,73,100
93248,note_off,,,,,128,0,14,,,,,6,,,33,100
93312,note_on,,,,,64,0,16,,,,,7,,,52,100
93312,note_on,,,,,128,0,10,,,,,2,,,76,90
93312,note_on,,,,,128,0,12,,,,,4,,,68,90
93312,note_on,,,,,64,0,15,,,,,7,,,71,100
93312,note_on,,,,,0,0,15,,,,,7,,,68,100
93312,note_on,,,,,64,0,11,,,,,3,,,71,90
93312,note_on,,,,,64,0,13,,,,,5,,,52,90
93312,note_on,,,,,64,0,14,,,,,6,,,40,90
93440,note_off,,,,,128,0,11,,,,,3,,,71,100
93504,note_on,,,,,64,0,11,,,,,3,,,64,90
93568,note_off,,,,,256,0,10,,,,,2,,,76,100
93568,note_off,,,,,256,0,16,,,,,7,,,52,100
93568,note_off,,,,,256,0,12,,,,,4,,,68,100
93568,note_off,,,,,0,0,15,,,,,7,,,68,100
93568,note_off,,,,,256,0,13,,,,,5,,,52,100
93568,note_off,,,,,256,0,15,,,,,7,,,71,100
93568,note_off,,,,,256,0,14,,,,,6,,,40,100
93632,note_off,,,,,128,0,11,,,,,3,,,64,100
93696,note_on,,,,,128,0,10,,,,,2,,,76,90
93696,note_on,,,,,64,0,11,,,,,3,,,68,90
93824,note_off,,,,,128,0,11,,,,,3,,,68,100
93888,note_on,,,,,0,0,15,,,,,7,,,68,100
93888,note_on,,,,,320,0,14,,,,,6,,,40,90
93888,note_on,,,,,320,0,15,,,,,7,,,59,100
93888,note_on,,,,,320,0,16,,,,,7,,,52,100
93888,note_on,,,,,320,0,13,,,,,5,,,52,90
93888,note_on,,,,,64,0,11,,,,,3,,,71,90
93888,note_on,,,,,320,0,12,,,,,4,,,68,90
93952,note_off,,,,,256,0,10,,,,,2,,,76,100
94016,note_off,,,,,128,0,14,,,,,6,,,40,100
94016,note_off,,,,,128,0,15,,,,,7,,,59,100
94016,note_off,,,,,128,0,13,,,,,5,,,52,100
94016,note_off,,,,,128,0,12,,,,,4,,,68,100
94016,note_off,,,,,128,0,16,,,,,7,,,52,100
94016,note_off,,,,,0,0,15,,,,,7,,,68,100
94016,note_off,,,,,128,0,11,,,,,3,,,71,100
94080,note_on,,,,,64,0,11,,,,,3,,,76,90
94080,note_on,,,,,64,0,13,,,,,5,,,56,90
94080,note_on,,,,,64,0,12,,,,,4,,,71,90
94080,note_on,,,,,0,0,15,,,,,7,,,71,100
94080,note_on,,,,,64,0,15,,,,,7,,,64,100
94080,note_on,,,,,64,0,16,,,,,7,,,56,100
94080,note_on,,,,,128,0,10,,,,,2,,,76,90
94080,note_on,,,,,64,0,14,,,,,6,,,44,90
94208,note_off,,,,,128,0,13,,,,,5,,,56,100
94208,note_off,,,,,128,0,12,,,,,4,,,71,100
94208,note_off,,,,,0,0,15,,,,,7,,,71,100
94208,note_off,,,,,128,0,15,,,,,7,,,64,100
94208,note_off,,,,,128,0,14,,,,,6,,,44,100
94208,note_off,,,,,128,0,16,,,,,7,,,56,100
94208,note_off,,,,,128,0,11,,,,,3,,,76,100
94272,note_on,,,,,64,0,11,,,,,3,,,71,90
94272,note_on,,,,,64,0,13,,,,,5,,,52,90
94272,note_on,,,,,64,0,12,,,,,4,,,68,90
94272,note_on,,,,,0,0,15,,,,,7,,,68,100
94272,note_on,,,,,64,0,16,,,,,7,,,52,100
94272,note_on,,,,,64,0,14,,,,,6,,,40,90
94272,note_on,,,,,64,0,15,,,,,7,,,59,100
94336,note_off,,,,,256,0,10,,,,,2,,,76,100
94400,note_off,,,,,128,0,11,,,,,3,,,71,100
94400,note_off,,,,,128,0,14,,,,,6,,,40,100
94400,note_off,,,,,0,0,15,,,,,7,,,68,100
94400,note_off,,,,,128,0,15,,,,,7,,,59,100
94400,note_off,,,,,128,0,12,,,,,4,,,68,100
94400,note_off,,,,,128,0,13,,,,,5,,,52,100
94400,note_off,,,,,128,0,16,,,,,7,,,52,100
94464,note_on,,,,,64,0,16,,,,,7,,,45,100
94464,note_on,,,,,64,0,14,,,,,6,,,33,90
94464,note_on,,,,,128,0,10,,,,,2,,,76,90
94464,note_on,,,,,29696,0,9,,,,,1,,,73,70
94464,note_on,,,,,64,0,12,,,,,4,,,64,90
94464,note_on,,,,,4352,0,8,,,,,0,,,76,70
94464,note_on,,,,,0,0,15,,,,,7,,,73,100
94464,note_on,,,,,64,0,13,,,,,5,,,45,90
94464,note_on,,,,,64,0,11,,,,,3,,,73,90
94464,note_on,,,,,64,0,15,,,,,7,,,64,100
94528,note_off,,,,,64,0,8,,,,,0,,,76,100
94528,note_off,,,,,64,0,9,,,,,1,,,73,100
94560,note_on,,,,,32,0,9,,,,,1,,,74,70
94560,note_on,,,,,32,0,8,,,,,0,,,78,70
94624,note_off,,,,,64,0,9,,,,,1,,,74,100
94624,note_off,,,,,64,0,8,,,,,0,,,78,100
94656,note_on,,,,,32,0,8,,,,,0,,,76,70
94656,note_on,,,,,32,0,9,,,,,1,,,73,70
94720,note_off,,,,,256,0,11,,,,,3,,,73,100
94720,note_off,,,,,256,0,16,,,,,7,,,45,100
94720,note_off,,,,,256,0,12,,,,,4,,,64,100
94720,note_off,,,,,256,0,14,,,,,6,,,33,100
94720,note_off,,,,,64,0,9,,,,,1,,,73,100
94720,note_off,,,,,256,0,13,,,,,5,,,45,100
94720,note_off,,,,,256,0,10,,,,,2,,,76,100
94720,note_off,,,,,0,0,15,,,,,7,,,73,100
94720,note_off,,,,,256,0,15,,,,,7,,,64,100
94720,note_off,,,,,64,0,8,,,,,0,,,76,100
94752,note_on,,,,,32,0,8,,,,,0,,,78,70
94752,note_on,,,,,32,0,9,,,,,1,,,74,70
94816,note_off,,,,,64,0,8,,,,,0,,,78,100
94816,note_off,,,,,64,0,9,,,,,1,,,74,100
94848,note_on,,,,,32,0,8,,,,,0,,,76,70
94848,note_on,,,,,32,0,9,,,,,1,,,73,70
94912,note_off,,,,,64,0,9,,,,,1,,,73,100
94912,note_off,,,,,64,0,8,,,,,0,,,76,100
94944,note_on,,,,,32,0,8,,,,,0,,,78,69
94944,note_on,,,,,32,0,9,,,,,1,,,74,69
95008,note_off,,,,,64,0,8,,,,,0,,,78,100
95008,note_off,,,,,64,0,9,,,,,1,,,74,100
95040,note_on,,,,,32,0,8,,,,,0,,,76,69
95040,note_on,,,,,32,0,9,,,,,1,,,73,69
95104,note_off,,,,,64,0,8,,,,,0,,,76,100
95104,note_off,,,,,64,0,9,,,,,1,,,73,100
95136,note_on,,,,,32,0,9,,,,,1,,,74,69
95136,note_on,,,,,32,0,8,,,,,0,,,78,69
95200,note_off,,,,,64,0,9,,,,,1,,,74,100
95200,note_off,,,,,64,0,8,,,,,0,,,78,100
95232,note_on,,,,,32,0,8,,,,,0,,,76,69
95232,note_on,,,,,32,0,9,,,,,1,,,73,69
95296,note_off,,,,,64,0,8,,,,,0,,,76,100
95296,note_off,,,,,64,0,9,,,,,1,,,73,100
95328,note_on,,,,,32,0,8,,,,,0,,,78,69
95328,note_on,,,,,32,0,9,,,,,1,,,74,69
95392,note_off,,,,,64,0,9,,,,,1,,,74,100
95392,note_off,,,,,64,0,8,,,,,0,,,78,100
95424,note_on,,,,,32,0,9,,,,,1,,,73,68
95424,note_on,,,,,32,0,8,,,,,0,,,76,68
95488,note_off,,,,,64,0,9,,,,,1,,,73,100
95488,note_off,,,,,64,0,8,,,,,0,,,76,100
95520,note_on,,,,,32,0,9,,,,,1,,,74,68
95520,note_on,,,,,32,0,8,,,,,0,,,78,68
95584,note_off,,,,,64,0,8,,,,,0,,,78,100
95584,note_off,,,,,64,0,9,,,,,1,,,74,100
95616,note_on,,,,,32,0,9,,,,,1,,,71,68
95616,note_on,,,,,32,0,8,,,,,0,,,74,68
95680,note_off,,,,,64,0,8,,,,,0,,,74,100
95680,note_off,,,,,64,0,9,,,,,1,,,71,100
95712,note_on,,,,,32,0,8,,,,,0,,,76,68
95712,note_on,,,,,32,0,9,,,,,1,,,73,68
95776,note_off,,,,,64,0,8,,,,,0,,,76,100
95776,note_off,,,,,64,0,9,,,,,1,,,73,100
95808,note_on,,,,,32,0,8,,,,,0,,,74,68
95808,note_on,,,,,32,0,9,,,,,1,,,71,68
95872,note_off,,,,,64,0,9,,,,,1,,,71,100
95872,note_off,,,,,64,0,8,,,,,0,,,74,100
95904,note_on,,,,,32,0,9,,,,,1,,,73,67
95904,note_on,,,,,32,0,8,,,,,0,,,76,67
95968,note_off,,,,,64,0,9,,,,,1,,,73,100
95968,note_off,,,,,64,0,8,,,,,0,,,76,100
96000,note_on,,,,,32,0,9,,,,,1,,,71,67
96000,note_on,,,,,32,0,8,,,,,0,,,74,67
96064,note_off,,,,,64,0,9,,,,,1,,,71,100
96064,note_off,,,,,64,0,8,,,,,0,,,74,100
96096,note_on,,,,,32,0,9,,,,,1,,,73,67
96096,note_on,,,,,32,0,8,,,,,0,,,76,67
96160,note_off,,,,,64,0,8,,,,,0,,,76,100
96160,note_off,,,,,64,0,9,,,,,1,,,73,100
96192,note_on,,,,,32,0,9,,,,,1,,,71,67
96192,note_on,,,,,32,0,8,,,,,0,,,74,67
96256,note_off,,,,,64,0,9,,,,,1,,,71,100
96256,note_off,,,,,64,0,8,,,,,0,,,74,100
96288,note_on,,,,,32,0,9,,,,,1,,,73,67
96288,note_on,,,,,32,0,8,,,,,0,,,76,67
96352,note_off,,,,,64,0,9,,,,,1,,,73,100
96352,note_off,,,,,64,0,8,,,,,0,,,76,100
96384,note_on,,,,,32,0,9,,,,,1,,,71,66
96384,note_on,,,,,32,0,8,,,,,0,,,74,66
96448,note_off,,,,,64,0,8,,,,,0,,,74,100
96448,note_off,,,,,64,0,9,,,,,1,,,71,100
96480,note_on,,,,,32,0,8,,,,,0,,,76,66
96480,note_on,,,,,32,0,9,,,,,1,,,73,66
96544,note_off,,,,,64,0,8,,,,,0,,,76,100
96544,note_off,,,,,64,0,9,,,,,1,,,73,100
96576,note_on,,,,,32,0,9,,,,,1,,,71,66
96576,note_on,,,,,32,0,8,,,,,0,,,74,66
96640,note_off,,,,,64,0,8,,,,,0,,,74,100
96640,note_off,,,,,64,0,9,,,,,1,,,71,100
96672,note_on,,,,,32,0,8,,,,,0,,,76,66
96672,note_on,,,,,32,0,9,,,,,1,,,73,66
96736,note_off,,,,,64,0,9,,,,,1,,,73,100
96736,note_off,,,,,64,0,8,,,,,0,,,76,100
96768,note_on,,,,,32,0,9,,,,,1,,,69,66
96768,note_on,,,,,0,0,15,,,,,7,,,64,100
96768,note_on,,,,,2048,0,16,,,,,7,,,45,100
96768,note_on,,,,,32,0,8,,,,,0,,,73,66
96768,note_on,,,,,2048,0,13,,,,,5,,,45,70
96768,note_on,,,,,2048,0,15,,,,,7,,,61,100
96768,note_on,,,,,2048,0,14,,,,,6,,,33,70
96768,note_on,,,,,2048,0,12,,,,,4,,,73,70
96960,note_on,,,,,2240,0,10,,,,,2,,,76,81
96960,note_on,,,,,2240,0,11,,,,,3,,,76,31
97024,note_off,,,,,256,0,16,,,,,7,,,45,100
97024,note_off,,,,,256,0,12,,,,,4,,,73,100
97024,note_off,,,,,256,0,13,,,,,5,,,45,100
97024,note_off,,,,,256,0,14,,,,,6,,,33,100
97024,note_off,,,,,256,0,15,,,,,7,,,61,100
97024,note_off,,,,,0,0,15,,,,,7,,,64,100
97024,note_off,,,,,256,0,9,,,,,1,,,69,100
97024,note_off,,,,,256,0,8,,,,,0,,,73,100
97088,note_off,,,,,128,0,10,,,,,2,,,76,100
97088,note_off,,,,,128,0,11,,,,,3,,,76,100
97152,note_on,,,,,64,0,11,,,,,3,,,81,32
97152,note_on,,,,,64,0,10,,,,,2,,,81,82
97280,note_off,,,,,128,0,10,,,,,2,,,81,100
97280,note_off,,,,,128,0,11,,,,,3,,,81,100
97344,note_on,,,,,64,0,10,,,,,2,,,76,84
97344,note_on,,,,,0,0,15,,,,,7,,,64,100
97344,note_on,,,,,320,0,15,,,,,7,,,73,100
97344,note_on,,,,,64,0,11,,,,,3,,,76,34
97344,note_on,,,,,320,0,16,,,,,7,,,57,100
97344,note_on,,,,,320,0,12,,,,,4,,,73,74
97344,note_on,,,,,320,0,13,,,,,5,,,57,74
97344,note_on,,,,,320,0,14,,,,,6,,,45,74
97472,note_off,,,,,128,0,11,,,,,3,,,76,100
97472,note_off,,,,,128,0,16,,,,,7,,,57,100
97472,note_off,,,,,128,0,15,,,,,7,,,73,100
97472,note_off,,,,,128,0,12,,,,,4,,,73,100
97472,note_off,,,,,128,0,13,,,,,5,,,57,100
97472,note_off,,,,,128,0,14,,,,,6,,,45,100
97472,note_off,,,,,0,0,15,,,,,7,,,64,100
97472,note_off,,,,,128,0,10,,,,,2,,,76,100
97536,note_on,,,,,64,0,14,,,,,6,,,45,75
97536,note_on,,,,,64,0,16,,,,,7,,,57,100
97536,note_on,,,,,64,0,12,,,,,4,,,73,75
97536,note_on,,,,,0,0,15,,,,,7,,,64,100
97536,note_on,,,,,64,0,15,,,,,7,,,73,100
97536,note_on,,,,,64,0,13,,,,,5,,,57,75
97536,note_on,,,,,64,0,11,,,,,3,,,73,35
97536,note_on,,,,,64,0,10,,,,,2,,,73,85
97664,note_off,,,,,128,0,16,,,,,7,,,57,100
97664,note_off,,,,,128,0,11,,,,,3,,,73,100
97664,note_off,,,,,128,0,14,,,,,6,,,45,100
97664,note_off,,,,,0,0,15,,,,,7,,,64,100
97664,note_off,,,,,128,0,15,,,,,7,,,73,100
97664,note_off,,,,,128,0,13,,,,,5,,,57,100
97664,note_off,,,,,128,0,10,,,,,2,,,73,100
97664,note_off,,,,,128,0,12,,,,,4,,,73,100
97728,note_on,,,,,64,0,14,,,,,6,,,45,76
97728,note_on,,,,,64,0,11,,,,,3,,,81,36
97728,note_on,,,,,64,0,13,,,,,5,,,57,76
97728,note_on,,,,,64,0,12,,,,,4,,,73,76
97728,note_on,,,,,64,0,16,,,,,7,,,57,100
97728,note_on,,,,,0,0,15,,,,,7,,,64,100
97728,note_on,,,,,64,0,15,,,,,7,,,73,100
97728,note_on,,,,,64,0,10,,,,,2,,,81,86
97856,note_off,,,,,128,0,13,,,,,5,,,57,100
97856,note_off,,,,,0,0,15,,,,,7,,,64,100
97856,note_off,,,,,128,0,15,,,,,7,,,73,100
97856,note_off,,,,,128,0,10,,,,,2,,,81,100
97856,note_off,,,,,128,0,11,,,,,3,,,81,100
97856,note_off,,,,,128,0,12,,,,,4,,,73,100
97856,note_off,,,,,128,0,16,,,,,7,,,57,100
97856,note_off,,,,,128,0,14,,,,,6,,,45,100
97920,note_on,,,,,64,0,15,,,,,7,,,78,100
97920,note_on,,,,,64,0,10,,,,,2,,,78,88
97920,note_on,,,,,64,0,12,,,,,4,,,69,78
97920,note_on,,,,,0,0,15,,,,,7,,,69,100
97920,note_on,,,,,64,0,16,,,,,7,,,62,100
97920,note_on,,,,,64,0,13,,,,,5,,,62,78
97920,note_on,,,,,64,0,11,,,,,3,,,78,38
97920,note_on,,,,,64,0,14,,,,,6,,,50,78
98048,note_off,,,,,128,0,11,,,,,3,,,78,100
98048,note_off,,,,,128,0,10,,,,,2,,,78,100
98112,note_on,,,,,64,0,11,,,,,3,,,74,39
98112,note_on,,,,,64,0,10,,,,,2,,,74,89
98176,note_off,,,,,256,0,15,,,,,7,,,78,100
98176,note_off,,,,,0,0,15,,,,,7,,,69,100
98176,note_off,,,,,256,0,13,,,,,5,,,62,100
98176,note_off,,,,,256,0,12,,,,,4,,,69,100
98176,note_off,,,,,256,0,16,,,,,7,,,62,100
98176,note_off,,,,,256,0,14,,,,,6,,,50,100
98240,note_off,,,,,128,0,10,,,,,2,,,74,100
98240,note_off,,,,,128,0,11,,,,,3,,,74,100
98304,note_on,,,,,64,0,11,,,,,3,,,78,40
98304,note_on,,,,,64,0,10,,,,,2,,,78,90
98432,note_off,,,,,128,0,11,,,,,3,,,78,100
98432,note_off,,,,,128,0,10,,,,,2,,,78,100
98496,note_on,,,,,320,0,12,,,,,4,,,69,82
98496,note_on,,,,,320,0,16,,,,,7,,,50,100
98496,note_on,,,,,320,0,14,,,,,6,,,38,82
98496,note_on,,,,,320,0,13,,,,,5,,,50,82
98496,note_on,,,,,0,0,15,,,,,7,,,69,100
98496,note_on,,,,,64,0,11,,,,,3,,,81,42
98496,note_on,,,,,320,0,15,,,,,7,,,66,100
98496,note_on,,,,,64,0,10,,,,,2,,,81,92
98624,note_off,,,,,128,0,14,,,,,6,,,38,100
98624,note_off,,,,,128,0,11,,,,,3,,,81,100
98624,note_off,,,,,128,0,16,,,,,7,,,50,100
98624,note_off,,,,,128,0,12,,,,,4,,,69,100
98624,note_off,,,,,128,0,13,,,,,5,,,50,100
98624,note_off,,,,,128,0,15,,,,,7,,,66,100
98624,note_off,,,,,128,0,10,,,,,2,,,81,100
98624,note_off,,,,,0,0,15,,,,,7,,,69,100
98688,note_on,,,,,64,0,14,,,,,6,,,38,83
98688,note_on,,,,,64,0,12,,,,,4,,,66,83
98688,note_on,,,,,0,0,15,,,,,7,,,71,100
98688,note_on,,,,,64,0,16,,,,,7,,,50,100
98688,note_on,,,,,64,0,15,,,,,7,,,66,100
98688,note_on,,,,,64,0,11,,,,,3,,,83,43
98688,note_on,,,,,64,0,10,,,,,2,,,83,93
98688,note_on,,,,,64,0,13,,,,,5,,,50,83
98816,note_off,,,,,128,0,10,,,,,2,,,83,100
98816,note_off,,,,,128,0,13,,,,,5,,,50,100
98816,note_off,,,,,128,0,11,,,,,3,,,83,100
98816,note_off,,,,,128,0,12,,,,,4,,,66,100
98816,note_off,,,,,128,0,16,,,,,7,,,50,100
98816,note_off,,,,,0,0,15,,,,,7,,,71,100
98816,note_off,,,,,128,0,15,,,,,7,,,66,100
98816,note_off,,,,,128,0,14,,,,,6,,,38,100
98880,note_on,,,,,64,0,10,,,,,2,,,78,94
98880,note_on,,,,,64,0,13,,,,,5,,,50,84
98880,note_on,,,,,0,0,15,,,,,7,,,71,100
98880,note_on,,,,,64,0,14,,,,,6,,,38,84
98880,note_on,,,,,64,0,15,,,,,7,,,66,100
98880,note_on,,,,,64,0,12,,,,,4,,,66,84
98880,note_on,,,,,64,0,11,,,,,3,,,78,44
98880,note_on,,,,,64,0,16,,,,,7,,,50,100
99008,note_off,,,,,0,0,15,,,,,7,,,71,100
99008,note_off,,,,,128,0,13,,,,,5,,,50,100
99008,note_off,,,,,128,0,15,,,,,7,,,66,100
99008,note_off,,,,,128,0,10,,,,,2,,,78,100
99008,note_off,,,,,128,0,16,,,,,7,,,50,100
99008,note_off,,,,,128,0,14,,,,,6,,,38,100
99008,note_off,,,,,128,0,11,,,,,3,,,78,100
99008,note_off,,,,,128,0,12,,,,,4,,,66,100
99072,note_on,,,,,64,0,10,,,,,2,,,80,95
99072,note_on,,,,,64,0,14,,,,,6,,,38,85
99072,note_on,,,,,64,0,15,,,,,7,,,64,100
99072,note_on,,,,,0,0,15,,,,,7,,,68,100
99072,note_on,,,,,64,0,12,,,,,4,,,71,85
99072,note_on,,,,,64,0,13,,,,,5,,,50,85
99072,note_on,,,,,64,0,16,,,,,7,,,50,100
99072,note_on,,,,,64,0,11,,,,,3,,,80,45
99200,note_off,,,,,128,0,11,,,,,3,,,80,100
99200,note_off,,,,,128,0,10,,,,,2,,,80,100
99264,note_on,,,,,64,0,11,,,,,3,,,76,45
99264,note_on,,,,,64,0,10,,,,,2,,,76,95
99328,note_off,,,,,256,0,14,,,,,6,,,38,100
99328,note_off,,,,,256,0,13,,,,,5,,,50,100
99328,note_off,,,,,256,0,15,,,,,7,,,64,100
99328,note_off,,,,,256,0,12,,,,,4,,,71,100
99328,note_off,,,,,256,0,16,,,,,7,,,50,100
99328,note_off,,,,,0,0,15,,,,,7,,,68,100
99392,note_off,,,,,128,0,11,,,,,3,,,76,100
99392,note_off,,,,,128,0,10,,,,,2,,,76,100
99456,note_on,,,,,64,0,11,,,,,3,,,81,45
99456,note_on,,,,,64,0,10,,,,,2,,,81,95
99584,note_off,,,,,128,0,10,,,,,2,,,81,100
99584,note_off,,,,,128,0,11,,,,,3,,,81,100
99648,note_on,,,,,320,0,12,,,,,4,,,64,85
99648,note_on,,,,,64,0,10,,,,,2,,,76,95
99648,note_on,,,,,320,0,16,,,,,7,,,49,100
99648,note_on,,,,,64,0,11,,,,,3,,,76,45
99648,note_on,,,,,320,0,13,,,,,5,,,49,85
99648,note_on,,,,,0,0,15,,,,,7,,,64,100
99648,note_on,,,,,320,0,15,,,,,7,,,69,100
99648,note_on,,,,,320,0,14,,,,,6,,,37,85
99776,note_off,,,,,0,0,15,,,,,7,,,64,100
99776,note_off,,,,,128,0,11,,,,,3,,,76,100
99776,note_off,,,,,128,0,13,,,,,5,,,49,100
99776,note_off,,,,,128,0,14,,,,,6,,,37,100
99776,note_off,,,,,128,0,16,,,,,7,,,49,100
99776,note_off,,,,,128,0,12,,,,,4,,,64,100
99776,note_off,,,,,128,0,15,,,,,7,,,69,100
99776,note_off,,,,,128,0,10,,,,,2,,,76,100
99840,note_on,,,,,64,0,12,,,,,4,,,64,85
99840,note_on,,,,,64,0,10,,,,,2,,,73,95
99840,note_on,,,,,64,0,11,,,,,3,,,73,45
99840,note_on,,,,,64,0,16,,,,,7,,,49,100
99840,note_on,,,,,64,0,15,,,,,7,,,69,100
99840,note_on,,,,,0,0,15,,,,,7,,,64,100
99840,note_on,,,,,64,0,14,,,,,6,,,37,85
99840,note_on,,,,,64,0,13,,,,,5,,,49,85
99968,note_off,,,,,128,0,13,,,,,5,,,49,100
99968,note_off,,,,,128,0,10,,,,,2,,,73,100
99968,note_off,,,,,128,0,16,,,,,7,,,49,100
99968,note_off,,,,,128,0,11,,,,,3,,,73,100
99968,note_off,,,,,0,0,15,,,,,7,,,64,100
99968,note_off,,,,,128,0,15,,,,,7,,,69,100
99968,note_off,,,,,128,0,14,,,,,6,,,37,100
99968,note_off,,,,,128,0,12,,,,,4,,,64,100
100032,note_on,,,,,64,0,11,,,,,3,,,81,46
100032,note_on,,,,,64,0,12,,,,,4,,,64,86
100032,note_on,,,,,64,0,15,,,,,7,,,69,100
100032,note_on,,,,,64,0,14,,,,,6,,,37,86
100032,note_on,,,,,64,0,10,,,,,2,,,81,96
100032,note_on,,,,,64,0,13,,,,,5,,,49,86
100032,note_on,,,,,64,0,16,,,,,7,,,49,100
100032,note_on,,,,,0,0,15,,,,,7,,,64,100
100160,note_off,,,,,128,0,13,,,,,5,,,49,100
100160,note_off,,,,,0,0,15,,,,,7,,,64,100
100160,note_off,,,,,128,0,14,,,,,6,,,37,100
100160,note_off,,,,,128,0,15,,,,,7,,,69,100
100160,note_off,,,,,128,0,16,,,,,7,,,49,100
100160,note_off,,,,,128,0,12,,,,,4,,,64,100
100160,note_off,,,,,128,0,10,,,,,2,,,81,100
100160,note_off,,,,,128,0,11,,,,,3,,,81,100
100224,note_on,,,,,64,0,15,,,,,7,,,71,100
100224,note_on,,,,,64,0,10,,,,,2,,,71,98
100224,note_on,,,,,0,0,15,,,,,7,,,69,100
100224,note_on,,,,,64,0,12,,,,,4,,,66,88
100224,note_on,,,,,64,0,14,,,,,6,,,38,88
100224,note_on,,,,,64,0,11,,,,,3,,,71,48
100224,note_on,,,,,64,0,16,,,,,7,,,50,100
100224,note_on,,,,,64,0,13,,,,,5,,,50,88
100352,note_off,,,,,128,0,11,,,,,3,,,71,100
100352,note_off,,,,,128,0,10,,,,,2,,,71,100
100416,note_on,,,,,64,0,11,,,,,3,,,81,50
100416,note_on,,,,,64,0,10,,,,,2,,,81,100
100480,note_off,,,,,256,0,12,,,,,4,,,66,100
100480,note_off,,,,,0,0,15,,,,,7,,,69,100
100480,note_off,,,,,256,0,15,,,,,7,,,71,100
100480,note_off,,,,,256,0,14,,,,,6,,,38,100
100480,note_off,,,,,256,0,16,,,,,7,,,50,100
100480,note_off,,,,,256,0,13,,,,,5,,,50,100
100544,note_off,,,,,128,0,11,,,,,3,,,81,100
100544,note_off,,,,,128,0,10,,,,,2,,,81,100
100608,note_on,,,,,64,0,10,,,,,2,,,71,102
100608,note_on,,,,,64,0,11,,,,,3,,,71,52
100736,note_off,,,,,128,0,10,,,,,2,,,71,100
100736,note_off,,,,,128,0,11,,,,,3,,,71,100
100800,note_on,,,,,64,0,10,,,,,2,,,81,104
100800,note_on,,,,,0,0,15,,,,,7,,,71,100
100800,note_on,,,,,320,0,15,,,,,7,,,68,100
100800,note_on,,,,,320,0,14,,,,,6,,,40,94
100800,note_on,,,,,64,0,11,,,,,3,,,81,54
100800,note_on,,,,,320,0,13,,,,,5,,,52,94
100800,note_on,,,,,320,0,12,,,,,4,,,64,94
100800,note_on,,,,,320,0,16,,,,,7,,,52,100
100928,note_off,,,,,128,0,15,,,,,7,,,68,100
100928,note_off,,,,,128,0,14,,,,,6,,,40,100
100928,note_off,,,,,128,0,13,,,,,5,,,52,100
100928,note_off,,,,,128,0,16,,,,,7,,,52,100
100928,note_off,,,,,0,0,15,,,,,7,,,71,100
100928,note_off,,,,,128,0,10,,,,,2,,,81,100
100928,note_off,,,,,128,0,11,,,,,3,,,81,100
100928,note_off,,,,,128,0,12,,,,,4,,,64,100
100992,note_on,,,,,64,0,10,,,,,2,,,71,106
100992,note_on,,,,,64,0,14,,,,,6,,,40,96
100992,note_on,,,,,64,0,13,,,,,5,,,52,96
100992,note_on,,,,,64,0,12,,,,,4,,,64,96
100992,note_on,,,,,64,0,16,,,,,7,,,52,100
100992,note_on,,,,,64,0,15,,,,,7,,,68,100
100992,note_on,,,,,0,0,15,,,,,7,,,71,100
100992,note_on,,,,,64,0,11,,,,,3,,,71,56
101120,note_off,,,,,128,0,13,,,,,5,,,52,100
101120,note_off,,,,,128,0,14,,,,,6,,,40,100
101120,note_off,,,,,128,0,11,,,,,3,,,71,100
101120,note_off,,,,,128,0,12,,,,,4,,,64,100
101120,note_off,,,,,128,0,16,,,,,7,,,52,100
101120,note_off,,,,,0,0,15,,,,,7,,,71,100
101120,note_off,,,,,128,0,15,,,,,7,,,68,100
101120,note_off,,,,,128,0,10,,,,,2,,,71,100
101184,note_on,,,,,0,0,15,,,,,7,,,71,100
101184,note_on,,,,,64,0,13,,,,,5,,,52,98
101184,note_on,,,,,64,0,10,,,,,2,,,80,108
101184,note_on,,,,,64,0,14,,,,,6,,,40,98
101184,note_on,,,,,64,0,15,,,,,7,,,68,100
101184,note_on,,,,,64,0,12,,,,,4,,,64,98
101184,note_on,,,,,64,0,16,,,,,7,,,52,100
101184,note_on,,,,,64,0,11,,,,,3,,,80,58
101312,note_off,,,,,128,0,14,,,,,6,,,40,100
101312,note_off,,,,,128,0,13,,,,,5,,,52,100
101312,note_off,,,,,128,0,15,,,,,7,,,68,100
101312,note_off,,,,,0,0,15,,,,,7,,,71,100
101312,note_off,,,,,128,0,10,,,,,2,,,80,100
101312,note_off,,,,,128,0,11,,,,,3,,,80,100
101312,note_off,,,,,128,0,16,,,,,7,,,52,100
101312,note_off,,,,,128,0,12,,,,,4,,,64,100
101376,note_on,,,,,64,0,13,,,,,5,,,45,99
101376,note_on,,,,,64,0,15,,,,,7,,,69,100
101376,note_on,,,,,64,0,10,,,,,2,,,81,109
101376,note_on,,,,,64,0,16,,,,,7,,,45,100
101376,note_on,,,,,64,0,11,,,,,3,,,81,59
101376,note_on,,,,,4352,0,8,,,,,0,,,69,99
101376,note_on,,,,,64,0,12,,,,,4,,,61,99
101376,note_on,,,,,0,0,15,,,,,7,,,64,100
101376,note_on,,,,,0,0,15,,,,,7,,,61,100
101376,note_on,,,,,64,0,14,,,,,6,,,33,99
101440,note_off,,,,,64,0,8,,,,,0,,,69,100
101472,note_on,,,,,32,0,8,,,,,0,,,81,100
101536,note_off,,,,,64,0,8,,,,,0,,,81,100
101568,note_on,,,,,32,0,8,,,,,0,,,81,100
101632,note_off,,,,,256,0,13,,,,,5,,,45,100
101632,note_off,,,,,256,0,14,,,,,6,,,33,100
101632,note_off,,,,,256,0,16,,,,,7,,,45,100
101632,note_off,,,,,256,0,10,,,,,2,,,81,100
101632,note_off,,,,,256,0,11,,,,,3,,,81,100
101632,note_off,,,,,64,0,8,,,,,0,,,81,100
101632,note_off,,,,,256,0,12,,,,,4,,,61,100
101632,note_off,,,,,256,0,15,,,,,7,,,69,100
101632,note_off,,,,,0,0,15,,,,,7,,,64,100
101632,note_off,,,,,0,0,15,,,,,7,,,61,100
101664,note_on,,,,,32,0,8,,,,,0,,,81,100
101728,note_off,,,,,64,0,8,,,,,0,,,81,100
101760,note_on,,,,,32,0,8,,,,,0,,,71,100
101824,note_off,,,,,64,0,8,,,,,0,,,71,100
101856,note_on,,,,,32,0,8,,,,,0,,,81,100
101920,note_off,,,,,64,0,8,,,,,0,,,81,100
101952,note_on,,,,,32,0,8,,,,,0,,,81,100
102016,note_off,,,,,64,0,8,,,,,0,,,81,100
102048,note_on,,,,,32,0,8,,,,,0,,,81,100
102112,note_off,,,,,64,0,8,,,,,0,,,81,100
102144,note_on,,,,,32,0,8,,,,,0,,,73,100
102208,note_off,,,,,64,0,8,,,,,0,,,73,100
102240,note_on,,,,,32,0,8,,,,,0,,,81,100
102304,note_off,,,,,64,0,8,,,,,0,,,81,100
102336,note_on,,,,,32,0,8,,,,,0,,,81,100
102400,note_off,,,,,64,0,8,,,,,0,,,81,100
102432,note_on,,,,,32,0,8,,,,,0,,,81,100
102496,note_off,,,,,64,0,8,,,,,0,,,81,100
102528,note_on,,,,,32,0,8,,,,,0,,,74,100
102592,note_off,,,,,64,0,8,,,,,0,,,74,100
102624,note_on,,,,,32,0,8,,,,,0,,,81,100
102688,note_off,,,,,64,0,8,,,,,0,,,81,100
102720,note_on,,,,,32,0,8,,,,,0,,,81,100
102784,note_off,,,,,64,0,8,,,,,0,,,81,100
102816,note_on,,,,,32,0,8,,,,,0,,,81,100
102880,note_off,,,,,64,0,8,,,,,0,,,81,100
102912,note_on,,,,,32,0,8,,,,,0,,,73,100
102976,note_off,,,,,64,0,8,,,,,0,,,73,100
103008,note_on,,,,,32,0,8,,,,,0,,,81,100
103072,note_off,,,,,64,0,8,,,,,0,,,81,100
103104,note_on,,,,,32,0,8,,,,,0,,,81,100
103168,note_off,,,,,64,0,8,,,,,0,,,81,100
103200,note_on,,,,,32,0,8,,,,,0,,,81,100
103264,note_off,,,,,64,0,8,,,,,0,,,81,100
103296,note_on,,,,,32,0,8,,,,,0,,,71,100
103360,note_off,,,,,64,0,8,,,,,0,,,71,100
103392,note_on,,,,,32,0,8,,,,,0,,,81,100
103456,note_off,,,,,64,0,8,,,,,0,,,81,100
103488,note_on,,,,,32,0,8,,,,,0,,,81,100
103552,note_off,,,,,64,0,8,,,,,0,,,81,100
103584,note_on,,,,,32,0,8,,,,,0,,,81,100
103648,note_off,,,,,64,0,8,,,,,0,,,81,100
103680,note_on,,,,,2048,0,13,,,,,5,,,45,85
103680,note_on,,,,,2048,0,15,,,,,7,,,61,100
103680,note_on,,,,,2048,0,12,,,,,4,,,73,85
103680,note_on,,,,,2048,0,16,,,,,7,,,45,100
103680,note_on,,,,,2048,0,11,,,,,3,,,76,85
103680,note_on,,,,,32,0,8,,,,,0,,,69,85
103680,note_on,,,,,2048,0,14,,,,,6,,,33,85
103680,note_on,,,,,0,0,15,,,,,7,,,64,100
103680,note_on,,,,,2048,0,10,,,,,2,,,81,85
103744,note_off,,,,,64,0,8,,,,,0,,,69,100
103776,note_on,,,,,32,0,8,,,,,0,,,81,85
103840,note_off,,,,,64,0,8,,,,,0,,,81,100
103872,note_on,,,,,32,0,8,,,,,0,,,81,85
103936,note_off,,,,,256,0,12,,,,,4,,,73,100
103936,note_off,,,,,0,0,15,,,,,7,,,64,100
103936,note_off,,,,,256,0,11,,,,,3,,,76,100
103936,note_off,,,,,256,0,10,,,,,2,,,81,100
103936,note_off,,,,,256,0,16,,,,,7,,,45,100
103936,note_off,,,,,256,0,14,,,,,6,,,33,100
103936,note_off,,,,,64,0,8,,,,,0,,,81,100
103936,note_off,,,,,256,0,13,,,,,5,,,45,100
103936,note_off,,,,,256,0,15,,,,,7,,,61,100
103968,note_on,,,,,32,0,8,,,,,0,,,81,85
104032,note_off,,,,,64,0,8,,,,,0,,,81,100
104064,note_on,,,,,32,0,8,,,,,0,,,71,85
104128,note_off,,,,,64,0,8,,,,,0,,,71,100
104160,note_on,,,,,32,0,8,,,,,0,,,81,85
104224,note_off,,,,,64,0,8,,,,,0,,,81,100
104256,note_on,,,,,32,0,8,,,,,0,,,81,85
104320,note_off,,,,,64,0,8,,,,,0,,,81,100
104352,note_on,,,,,32,0,8,,,,,0,,,81,85
104416,note_off,,,,,64,0,8,,,,,0,,,81,100
104448,note_on,,,,,32,0,8,,,,,0,,,73,85
104512,note_off,,,,,64,0,8,,,,,0,,,73,100
104544,note_on,,,,,32,0,8,,,,,0,,,81,85
104608,note_off,,,,,64,0,8,,,,,0,,,81,100
104640,note_on,,,,,32,0,8,,,,,0,,,81,85
104704,note_off,,,,,64,0,8,,,,,0,,,81,100
104736,note_on,,,,,32,0,8,,,,,0,,,81,85
104800,note_off,,,,,64,0,8,,,,,0,,,81,100
104832,note_on,,,,,32,0,8,,,,,0,,,74,85
104896,note_off,,,,,64,0,8,,,,,0,,,74,100
104928,note_on,,,,,32,0,8,,,,,0,,,81,85
104992,note_off,,,,,64,0,8,,,,,0,,,81,100
105024,note_on,,,,,32,0,8,,,,,0,,,81,85
105088,note_off,,,,,64,0,8,,,,,0,,,81,100
105120,note_on,,,,,32,0,8,,,,,0,,,81,85
105184,note_off,,,,,64,0,8,,,,,0,,,81,100
105216,note_on,,,,,32,0,8,,,,,0,,,73,85
105280,note_off,,,,,64,0,8,,,,,0,,,73,100
105312,note_on,,,,,32,0,8,,,,,0,,,81,85
105376,note_off,,,,,64,0,8,,,,,0,,,81,100
105408,note_on,,,,,32,0,8,,,,,0,,,81,85
105472,note_off,,,,,64,0,8,,,,,0,,,81,100
105504,note_on,,,,,32,0,8,,,,,0,,,81,85
105568,note_off,,,,,64,0,8,,,,,0,,,81,100
105600,note_on,,,,,32,0,8,,,,,0,,,71,85
105664,note_off,,,,,64,0,8,,,,,0,,,71,100
105696,note_on,,,,,32,0,8,,,,,0,,,81,85
105760,note_off,,,,,64,0,8,,,,,0,,,81,100
105792,note_on,,,,,32,0,8,,,,,0,,,81,85
105856,note_off,,,,,64,0,8,,,,,0,,,81,100
105888,note_on,,,,,32,0,8,,,,,0,,,81,85
105952,note_off,,,,,64,0,8,,,,,0,,,81,100
105984,note_on,,,,,2048,0,14,,,,,6,,,33,70
105984,note_on,,,,,2048,0,10,,,,,2,,,81,70
105984,note_on,,,,,2048,0,13,,,,,5,,,45,70
105984,note_on,,,,,2048,0,12,,,,,4,,,73,70
105984,note_on,,,,,2048,0,15,,,,,7,,,61,100
105984,note_on,,,,,0,0,15,,,,,7,,,64,100
105984,note_on,,,,,2048,0,11,,,,,3,,,76,70
105984,note_on,,,,,2048,0,16,,,,,7,,,45,100
105984,note_on,,,,,8960,0,9,,,,,1,,,69,85
105984,note_on,,,,,32,0,8,,,,,0,,,69,85
106048,note_off,,,,,64,0,9,,,,,1,,,69,100
106080,note_on,,,,,32,0,9,,,,,1,,,81,85
106144,note_off,,,,,64,0,9,,,,,1,,,81,100
106176,note_on,,,,,32,0,9,,,,,1,,,81,85
106240,note_off,,,,,256,0,8,,,,,0,,,69,100
106240,note_off,,,,,0,0,15,,,,,7,,,64,100
106240,note_off,,,,,256,0,15,,,,,7,,,61,100
106240,note_off,,,,,256,0,12,,,,,4,,,73,100
106240,note_off,,,,,256,0,14,,,,,6,,,33,100
106240,note_off,,,,,256,0,13,,,,,5,,,45,100
106240,note_off,,,,,256,0,16,,,,,7,,,45,100
106240,note_off,,,,,256,0,11,,,,,3,,,76,100
106240,note_off,,,,,64,0,9,,,,,1,,,81,100
106240,note_off,,,,,256,0,10,,,,,2,,,81,100
106272,note_on,,,,,32,0,9,,,,,1,,,81,85
106336,note_off,,,,,64,0,9,,,,,1,,,81,100
106368,note_on,,,,,32,0,9,,,,,1,,,71,85
106432,note_off,,,,,64,0,9,,,,,1,,,71,100
106464,note_on,,,,,32,0,9,,,,,1,,,81,85
106528,note_off,,,,,64,0,9,,,,,1,,,81,100
106560,note_on,,,,,32,0,9,,,,,1,,,81,85
106624,note_off,,,,,64,0,9,,,,,1,,,81,100
106656,note_on,,,,,32,0,9,,,,,1,,,81,85
106720,note_off,,,,,64,0,9,,,,,1,,,81,100
106752,note_on,,,,,32,0,9,,,,,1,,,73,85
106816,note_off,,,,,64,0,9,,,,,1,,,73,100
106848,note_on,,,,,32,0,9,,,,,1,,,81,85
106912,note_off,,,,,64,0,9,,,,,1,,,81,100
106944,note_on,,,,,32,0,9,,,,,1,,,81,85
107008,note_off,,,,,64,0,9,,,,,1,,,81,100
107040,note_on,,,,,32,0,9,,,,,1,,,81,85
107104,note_off,,,,,64,0,9,,,,,1,,,81,100
107136,note_on,,,,,32,0,9,,,,,1,,,74,85
107200,note_off,,,,,64,0,9,,,,,1,,,74,100
107232,note_on,,,,,32,0,9,,,,,1,,,81,85
107296,note_off,,,,,64,0,9,,,,,1,,,81,100
107328,note_on,,,,,32,0,9,,,,,1,,,81,85
107392,note_off,,,,,64,0,9,,,,,1,,,81,100
107424,note_on,,,,,32,0,9,,,,,1,,,81,85
107488,note_off,,,,,64,0,9,,,,,1,,,81,100
107520,note_on,,,,,32,0,9,,,,,1,,,73,85
107584,note_off,,,,,64,0,9,,,,,1,,,73,100
107616,note_on,,,,,32,0,9,,,,,1,,,81,85
107680,note_off,,,,,64,0,9,,,,,1,,,81,100
107712,note_on,,,,,32,0,9,,,,,1,,,81,85
107776,note_off,,,,,64,0,9,,,,,1,,,81,100
107808,note_on,,,,,32,0,9,,,,,1,,,81,85
107872,note_off,,,,,64,0,9,,,,,1,,,81,100
107904,note_on,,,,,32,0,9,,,,,1,,,71,85
107968,note_off,,,,,64,0,9,,,,,1,,,71,100
108000,note_on,,,,,32,0,9,,,,,1,,,81,85
108064,note_off,,,,,64,0,9,,,,,1,,,81,100
108096,note_on,,,,,32,0,9,,,,,1,,,81,85
108160,note_off,,,,,64,0,9,,,,,1,,,81,100
108192,note_on,,,,,32,0,9,,,,,1,,,81,85
108256,note_off,,,,,64,0,9,,,,,1,,,81,100
108288,note_on,,,,,2048,0,11,,,,,3,,,76,70
108288,note_on,,,,,2048,0,16,,,,,7,,,45,100
108288,note_on,,,,,2048,0,13,,,,,5,,,45,70
108288,note_on,,,,,32,0,9,,,,,1,,,69,70
108288,note_on,,,,,2048,0,14,,,,,6,,,33,70
108288,note_on,,,,,2048,0,12,,,,,4,,,73,70
108288,note_on,,,,,2048,0,10,,,,,2,,,81,70
108288,note_on,,,,,0,0,15,,,,,7,,,64,100
108288,note_on,,,,,2048,0,15,,,,,7,,,61,100
108352,note_off,,,,,64,0,9,,,,,1,,,69,100
108384,note_on,,,,,32,0,9,,,,,1,,,81,70
108448,note_off,,,,,64,0,9,,,,,1,,,81,100
108480,note_on,,,,,32,0,9,,,,,1,,,81,70
108544,note_off,,,,,256,0,13,,,,,5,,,45,100
108544,note_off,,,,,256,0,16,,,,,7,,,45,100
108544,note_off,,,,,256,0,11,,,,,3,,,76,100
108544,note_off,,,,,64,0,9,,,,,1,,,81,100
108544,note_off,,,,,0,0,15,,,,,7,,,64,100
108544,note_off,,,,,256,0,15,,,,,7,,,61,100
108544,note_off,,,,,256,0,12,,,,,4,,,73,100
108544,note_off,,,,,256,0,10,,,,,2,,,81,100
108544,note_off,,,,,256,0,14,,,,,6,,,33,100
108576,note_on,,,,,32,0,9,,,,,1,,,81,70
108640,note_off,,,,,64,0,9,,,,,1,,,81,100
108672,note_on,,,,,32,0,9,,,,,1,,,71,70
108736,note_off,,,,,64,0,9,,,,,1,,,71,100
108768,note_on,,,,,32,0,9,,,,,1,,,81,70
108832,note_off,,,,,64,0,9,,,,,1,,,81,100
108864,note_on,,,,,32,0,9,,,,,1,,,81,70
108928,note_off,,,,,64,0,9,,,,,1,,,81,100
108960,note_on,,,,,32,0,9,,,,,1,,,81,70
109024,note_off,,,,,64,0,9,,,,,1,,,81,100
109056,note_on,,,,,32,0,9,,,,,1,,,73,70
109120,note_off,,,,,64,0,9,,,,,1,,,73,100
109152,note_on,,,,,32,0,9,,,,,1,,,81,70
109216,note_off,,,,,64,0,9,,,,,1,,,81,100
109248,note_on,,,,,32,0,9,,,,,1,,,81,70
109312,note_off,,,,,64,0,9,,,,,1,,,81,100
109344,note_on,,,,,32,0,9,,,,,1,,,81,70
109408,note_off,,,,,64,0,9,,,,,1,,,81,100
109440,note_on,,,,,32,0,9,,,,,1,,,74,70
109504,note_off,,,,,64,0,9,,,,,1,,,74,100
109536,note_on,,,,,32,0,9,,,,,1,,,81,70
109600,note_off,,,,,64,0,9,,,,,1,,,81,100
109632,note_on,,,,,32,0,9,,,,,1,,,81,70
109696,note_off,,,,,64,0,9,,,,,1,,,81,100
109728,note_on,,,,,32,0,9,,,,,1,,,81,70
109792,note_off,,,,,64,0,9,,,,,1,,,81,100
109824,note_on,,,,,32,0,9,,,,,1,,,73,70
109888,note_off,,,,,64,0,9,,,,,1,,,73,100
109920,note_on,,,,,32,0,9,,,,,1,,,81,70
109984,note_off,,,,,64,0,9,,,,,1,,,81,100
110016,note_on,,,,,32,0,9,,,,,1,,,81,70
110080,note_off,,,,,64,0,9,,,,,1,,,81,100
110112,note_on,,,,,32,0,9,,,,,1,,,81,70
110176,note_off,,,,,64,0,9,,,,,1,,,81,100
110208,note_on,,,,,32,0,9,,,,,1,,,71,70
110272,note_off,,,,,64,0,9,,,,,1,,,71,100
110304,note_on,,,,,32,0,9,,,,,1,,,81,70
110368,note_off,,,,,64,0,9,,,,,1,,,81,100
110400,note_on,,,,,32,0,9,,,,,1,,,81,70
110464,note_off,,,,,64,0,9,,,,,1,,,81,100
110496,note_on,,,,,32,0,9,,,,,1,,,81,70
110560,note_off,,,,,64,0,9,,,,,1,,,81,100
110592,note_on,,,,,2048,0,10,,,,,2,,,81,70
110592,note_on,,,,,0,0,15,,,,,7,,,64,100
110592,note_on,,,,,2048,0,15,,,,,7,,,61,100
110592,note_on,,,,,32,0,9,,,,,1,,,69,70
110592,note_on,,,,,2048,0,12,,,,,4,,,73,70
110592,note_on,,,,,2048,0,13,,,,,5,,,45,70
110592,note_on,,,,,2048,0,14,,,,,6,,,33,70
110592,note_on,,,,,2048,0,16,,,,,7,,,45,100
110592,note_on,,,,,2048,0,11,,,,,3,,,76,70
110592,note_on,,,,,4352,0,8,,,,,0,,,81,85
110656,note_off,,,,,64,0,8,,,,,0,,,81,100
110688,note_on,,,,,32,0,8,,,,,0,,,69,86
110752,note_off,,,,,64,0,8,,,,,0,,,69,100
110784,note_on,,,,,32,0,8,,,,,0,,,73,88
110848,note_off,,,,,256,0,10,,,,,2,,,81,100
110848,note_off,,,,,0,0,15,,,,,7,,,64,100
110848,note_off,,,,,256,0,15,,,,,7,,,61,100
110848,note_off,,,,,256,0,11,,,,,3,,,76,100
110848,note_off,,,,,256,0,12,,,,,4,,,73,100
110848,note_off,,,,,256,0,9,,,,,1,,,69,100
110848,note_off,,,,,256,0,13,,,,,5,,,45,100
110848,note_off,,,,,256,0,14,,,,,6,,,33,100
110848,note_off,,,,,256,0,16,,,,,7,,,45,100
110848,note_off,,,,,64,0,8,,,,,0,,,73,100
110880,note_on,,,,,32,0,8,,,,,0,,,76,89
110944,note_off,,,,,64,0,8,,,,,0,,,76,100
110976,note_on,,,,,32,0,8,,,,,0,,,81,91
111040,note_off,,,,,64,0,8,,,,,0,,,81,100
111072,note_on,,,,,32,0,8,,,,,0,,,69,93
111136,note_off,,,,,64,0,8,,,,,0,,,69,100
111168,note_on,,,,,32,0,8,,,,,0,,,73,94
111232,note_off,,,,,64,0,8,,,,,0,,,73,100
111264,note_on,,,,,32,0,8,,,,,0,,,76,96
111328,note_off,,,,,64,0,8,,,,,0,,,76,100
111360,note_on,,,,,32,0,8,,,,,0,,,81,98
111424,note_off,,,,,64,0,8,,,,,0,,,81,100
111456,note_on,,,,,32,0,8,,,,,0,,,69,99
111520,note_off,,,,,64,0,8,,,,,0,,,69,100
111552,note_on,,,,,32,0,8,,,,,0,,,73,101
111616,note_off,,,,,64,0,8,,,,,0,,,73,100
111648,note_on,,,,,32,0,8,,,,,0,,,76,103
111712,note_off,,,,,64,0,8,,,,,0,,,76,100
111744,note_on,,,,,896,0,16,,,,,7,,,45,100
111744,note_on,,,,,896,0,9,,,,,1,,,81,85
111744,note_on,,,,,896,0,15,,,,,7,,,61,100
111744,note_on,,,,,896,0,11,,,,,3,,,76,70
111744,note_on,,,,,896,0,10,,,,,2,,,81,70
111744,note_on,,,,,32,0,8,,,,,0,,,81,104
111744,note_on,,,,,0,0,15,,,,,7,,,64,100
111744,note_on,,,,,896,0,13,,,,,5,,,45,70
111744,note_on,,,,,896,0,12,,,,,4,,,73,70
111744,note_on,,,,,896,0,14,,,,,6,,,33,70
111808,note_off,,,,,64,0,9,,,,,1,,,81,100
111840,note_on,,,,,32,0,9,,,,,1,,,69,86
111904,note_off,,,,,64,0,9,,,,,1,,,69,100
111936,note_on,,,,,32,0,9,,,,,1,,,73,88
112000,note_off,,,,,256,0,11,,,,,3,,,76,100
112000,note_off,,,,,64,0,9,,,,,1,,,73,100
112000,note_off,,,,,256,0,15,,,,,7,,,61,100
112000,note_off,,,,,256,0,8,,,,,0,,,81,100
112000,note_off,,,,,256,0,16,,,,,7,,,45,100
112000,note_off,,,,,256,0,14,,,,,6,,,33,100
112000,note_off,,,,,256,0,10,,,,,2,,,81,100
112000,note_off,,,,,256,0,13,,,,,5,,,45,100
112000,note_off,,,,,256,0,12,,,,,4,,,73,100
112000,note_off,,,,,0,0,15,,,,,7,,,64,100
112032,note_on,,,,,32,0,9,,,,,1,,,76,89
112096,note_off,,,,,64,0,9,,,,,1,,,76,100
112128,note_on,,,,,32,0,9,,,,,1,,,81,91
112192,note_off,,,,,64,0,9,,,,,1,,,81,100
112224,note_on,,,,,32,0,9,,,,,1,,,69,93
112288,note_off,,,,,64,0,9,,,,,1,,,69,100
112320,note_on,,,,,32,0,9,,,,,1,,,73,94
112384,note_off,,,,,64,0,9,,,,,1,,,73,100
112416,note_on,,,,,32,0,9,,,,,1,,,76,96
112480,note_off,,,,,64,0,9,,,,,1,,,76,100
112512,note_on,,,,,32,0,9,,,,,1,,,81,98
112576,note_off,,,,,64,0,9,,,,,1,,,81,100
112608,note_on,,,,,32,0,9,,,,,1,,,69,99
112672,note_off,,,,,64,0,9,,,,,1,,,69,100
112704,note_on,,,,,32,0,9,,,,,1,,,73,101
112768,note_off,,,,,64,0,9,,,,,1,,,73,100
112800,note_on,,,,,32,0,9,,,,,1,,,76,103
112864,note_off,,,,,64,0,9,,,,,1,,,76,100
112896,note_on,,,,,0,0,15,,,,,7,,,64,100
112896,note_on,,,,,896,0,11,,,,,3,,,76,70
112896,note_on,,,,,896,0,16,,,,,7,,,45,100
112896,note_on,,,,,32,0,9,,,,,1,,,81,104
112896,note_on,,,,,896,0,10,,,,,2,,,81,70
112896,note_on,,,,,896,0,13,,,,,5,,,45,70
112896,note_on,,,,,896,0,12,,,,,4,,,73,70
112896,note_on,,,,,896,0,14,,,,,6,,,33,70
112896,note_on,,,,,896,0,15,,,,,7,,,61,100
112992,note_on,,,,,992,0,8,,,,,0,,,81,85
113056,note_off,,,,,64,0,8,,,,,0,,,81,100
113088,note_on,,,,,32,0,8,,,,,0,,,80,86
113152,note_off,,,,,256,0,16,,,,,7,,,45,100
113152,note_off,,,,,256,0,14,,,,,6,,,33,100
113152,note_off,,,,,256,0,12,,,,,4,,,73,100
113152,note_off,,,,,256,0,13,,,,,5,,,45,100
113152,note_off,,,,,256,0,10,,,,,2,,,81,100
113152,note_off,,,,,64,0,8,,,,,0,,,80,100
113152,note_off,,,,,256,0,9,,,,,1,,,81,100
113152,note_off,,,,,256,0,11,,,,,3,,,76,100
113152,note_off,,,,,0,0,15,,,,,7,,,64,100
113152,note_off,,,,,256,0,15,,,,,7,,,61,100
113184,note_on,,,,,32,0,8,,,,,0,,,78,87
113248,note_off,,,,,64,0,8,,,,,0,,,78,100
113280,note_on,,,,,32,0,8,,,,,0,,,76,89
113344,note_off,,,,,64,0,8,,,,,0,,,76,100
113376,note_on,,,,,32,0,8,,,,,0,,,81,90
113440,note_off,,,,,64,0,8,,,,,0,,,81,100
113472,note_on,,,,,32,0,8,,,,,0,,,80,91
113536,note_off,,,,,64,0,8,,,,,0,,,80,100
113568,note_on,,,,,32,0,8,,,,,0,,,78,93
113632,note_off,,,,,64,0,8,,,,,0,,,78,100
113664,note_on,,,,,32,0,8,,,,,0,,,76,94
113728,note_off,,,,,64,0,8,,,,,0,,,76,100
113760,note_on,,,,,32,0,8,,,,,0,,,74,95
113824,note_off,,,,,64,0,8,,,,,0,,,74,100
113856,note_on,,,,,32,0,8,,,,,0,,,73,97
113920,note_off,,,,,64,0,8,,,,,0,,,73,100
113952,note_on,,,,,32,0,8,,,,,0,,,71,98
114016,note_off,,,,,64,0,8,,,,,0,,,71,100
114048,note_on,,,,,896,0,15,,,,,7,,,61,100
114048,note_on,,,,,896,0,11,,,,,3,,,76,70
114048,note_on,,,,,32,0,8,,,,,0,,,69,99
114048,note_on,,,,,0,0,15,,,,,7,,,64,100
114048,note_on,,,,,896,0,14,,,,,6,,,33,70
114048,note_on,,,,,896,0,10,,,,,2,,,81,70
114048,note_on,,,,,896,0,12,,,,,4,,,73,70
114048,note_on,,,,,896,0,13,,,,,5,,,45,70
114048,note_on,,,,,896,0,16,,,,,7,,,45,100
114144,note_on,,,,,992,0,9,,,,,1,,,69,85
114208,note_off,,,,,64,0,9,,,,,1,,,69,100
114240,note_on,,,,,32,0,9,,,,,1,,,68,86
114304,note_off,,,,,256,0,13,,,,,5,,,45,100
114304,note_off,,,,,256,0,12,,,,,4,,,73,100
114304,note_off,,,,,256,0,10,,,,,2,,,81,100
114304,note_off,,,,,0,0,15,,,,,7,,,64,100
114304,note_off,,,,,256,0,14,,,,,6,,,33,100
114304,note_off,,,,,256,0,16,,,,,7,,,45,100
114304,note_off,,,,,256,0,15,,,,,7,,,61,100
114304,note_off,,,,,256,0,11,,,,,3,,,76,100
114304,note_off,,,,,256,0,8,,,,,0,,,69,100
114304,end_of_track,,,,,0,1,8,,,,,,,,,
114304,note_off,,,,,64,0,9,,,,,1,,,68,100
114336,note_on,,,,,32,0,9,,,,,1,,,66,87
114400,note_off,,,,,64,0,9,,,,,1,,,66,100
114432,note_on,,,,,32,0,9,,,,,1,,,64,89
114496,note_off,,,,,64,0,9,,,,,1,,,64,100
114528,note_on,,,,,32,0,9,,,,,1,,,69,90
114592,note_off,,,,,64,0,9,,,,,1,,,69,100
114624,note_on,,,,,32,0,9,,,,,1,,,68,91
114688,note_off,,,,,64,0,9,,,,,1,,,68,100
114720,note_on,,,,,32,0,9,,,,,1,,,66,93
114784,note_off,,,,,64,0,9,,,,,1,,,66,100
114816,note_on,,,,,32,0,9,,,,,1,,,64,94
114880,note_off,,,,,64,0,9,,,,,1,,,64,100
114912,note_on,,,,,32,0,9,,,,,1,,,62,95
114976,note_off,,,,,64,0,9,,,,,1,,,62,100
115008,note_on,,,,,32,0,9,,,,,1,,,61,97
115072,note_off,,,,,64,0,9,,,,,1,,,61,100
115104,note_on,,,,,32,0,9,,,,,1,,,59,98
115168,note_off,,,,,64,0,9,,,,,1,,,59,100
115200,note_on,,,,,896,0,14,,,,,6,,,33,85
115200,note_on,,,,,896,0,12,,,,,4,,,64,85
115200,note_on,,,,,896,0,16,,,,,7,,,45,100
115200,note_on,,,,,896,0,15,,,,,7,,,61,100
115200,note_on,,,,,0,0,15,,,,,7,,,64,100
115200,note_on,,,,,896,0,11,,,,,3,,,76,85
115200,note_on,,,,,896,0,10,,,,,2,,,81,85
115200,note_on,,,,,896,0,13,,,,,5,,,45,85
115200,note_on,,,,,32,0,9,,,,,1,,,57,99
115328,note_off,,,,,128,0,10,,,,,2,,,81,100
115392,note_on,,,,,64,0,10,,,,,2,,,69,100
115456,note_off,,,,,256,0,16,,,,,7,,,45,100
115456,note_off,,,,,256,0,11,,,,,3,,,76,100
115456,note_off,,,,,256,0,13,,,,,5,,,45,100
115456,end_of_track,,,,,0,1,9,,,,,,,,,
115456,note_off,,,,,256,0,9,,,,,1,,,57,100
115456,note_off,,,,,256,0,15,,,,,7,,,61,100
115456,note_off,,,,,256,0,12,,,,,4,,,64,100
115456,note_off,,,,,256,0,14,,,,,6,,,33,100
115456,note_off,,,,,0,0,15,,,,,7,,,64,100
115520,note_off,,,,,128,0,10,,,,,2,,,69,100
115584,note_on,,,,,64,0,10,,,,,2,,,73,100
115584,note_on,,,,,128,0,11,,,,,3,,,76,100
115712,note_off,,,,,128,0,10,,,,,2,,,73,100
115776,note_on,,,,,64,0,10,,,,,2,,,76,100
115776,note_on,,,,,0,0,15,,,,,7,,,64,100
115776,note_on,,,,,320,0,13,,,,,5,,,45,85
115776,note_on,,,,,320,0,15,,,,,7,,,61,100
115776,note_on,,,,,320,0,14,,,,,6,,,33,85
115776,note_on,,,,,320,0,16,,,,,7,,,45,100
115840,note_off,,,,,256,0,11,,,,,3,,,76,100
115904,note_off,,,,,128,0,10,,,,,2,,,76,100
115904,note_off,,,,,128,0,15,,,,,7,,,61,100
115904,note_off,,,,,0,0,15,,,,,7,,,64,100
115904,note_off,,,,,128,0,16,,,,,7,,,45,100
115904,note_off,,,,,128,0,14,,,,,6,,,33,100
115904,note_off,,,,,128,0,13,,,,,5,,,45,100
115968,note_on,,,,,128,0,11,,,,,3,,,76,100
115968,note_on,,,,,64,0,13,,,,,5,,,49,85
115968,note_on,,,,,64,0,10,,,,,2,,,69,100
115968,note_on,,,,,0,0,15,,,,,7,,,64,100
115968,note_on,,,,,64,0,15,,,,,7,,,69,100
115968,note_on,,,,,64,0,14,,,,,6,,,37,85
115968,note_on,,,,,512,0,12,,,,,4,,,64,85
115968,note_on,,,,,64,0,16,,,,,7,,,49,100
116096,note_off,,,,,128,0,10,,,,,2,,,69,100
116096,note_off,,,,,128,0,14,,,,,6,,,37,100
116096,note_off,,,,,128,0,13,,,,,5,,,49,100
116096,note_off,,,,,128,0,16,,,,,7,,,49,100
116096,note_off,,,,,128,0,15,,,,,7,,,69,100
116096,note_off,,,,,0,0,15,,,,,7,,,64,100
116160,note_on,,,,,0,0,15,,,,,7,,,64,100
116160,note_on,,,,,64,0,16,,,,,7,,,45,100
116160,note_on,,,,,64,0,10,,,,,2,,,73,100
116160,note_on,,,,,64,0,13,,,,,5,,,45,85
116160,note_on,,,,,64,0,14,,,,,6,,,33,85
116160,note_on,,,,,64,0,15,,,,,7,,,61,100
116224,note_off,,,,,256,0,12,,,,,4,,,64,100
116224,note_off,,,,,256,0,11,,,,,3,,,76,100
116288,note_off,,,,,128,0,16,,,,,7,,,45,100
116288,note_off,,,,,128,0,14,,,,,6,,,33,100
116288,note_off,,,,,128,0,10,,,,,2,,,73,100
116288,note_off,,,,,0,0,15,,,,,7,,,64,100
116288,note_off,,,,,128,0,15,,,,,7,,,61,100
116288,note_off,,,,,128,0,13,,,,,5,,,45,100
116352,note_on,,,,,128,0,11,,,,,3,,,76,100
116352,note_on,,,,,64,0,10,,,,,2,,,71,100
116352,note_on,,,,,64,0,15,,,,,7,,,68,100
116352,note_on,,,,,0,0,15,,,,,7,,,71,100
116352,note_on,,,,,64,0,13,,,,,5,,,52,85
116352,note_on,,,,,64,0,16,,,,,7,,,52,100
116352,note_on,,,,,128,0,12,,,,,4,,,68,85
116352,note_on,,,,,64,0,14,,,,,6,,,40,85
116480,note_off,,,,,128,0,10,,,,,2,,,71,100
116544,note_on,,,,,64,0,10,,,,,2,,,64,100
116608,note_off,,,,,256,0,11,,,,,3,,,76,100
116608,note_off,,,,,256,0,13,,,,,5,,,52,100
116608,note_off,,,,,256,0,16,,,,,7,,,52,100
116608,note_off,,,,,256,0,15,,,,,7,,,68,100
116608,note_off,,,,,0,0,15,,,,,7,,,71,100
116608,note_off,,,,,256,0,14,,,,,6,,,40,100
116608,note_off,,,,,256,0,12,,,,,4,,,68,100
116672,note_off,,,,,128,0,10,,,,,2,,,64,100
116736,note_on,,,,,128,0,11,,,,,3,,,76,100
116736,note_on,,,,,64,0,10,,,,,2,,,68,100
116864,note_off,,,,,128,0,10,,,,,2,,,68,100
116928,note_on,,,,,320,0,13,,,,,5,,,52,85
116928,note_on,,,,,0,0,15,,,,,7,,,68,100
116928,note_on,,,,,320,0,15,,,,,7,,,59,100
116928,note_on,,,,,320,0,14,,,,,6,,,40,85
116928,note_on,,,,,64,0,10,,,,,2,,,71,100
116928,note_on,,,,,320,0,16,,,,,7,,,52,100
116928,note_on,,,,,320,0,12,,,,,4,,,68,85
116992,note_off,,,,,256,0,11,,,,,3,,,76,100
117056,note_off,,,,,128,0,13,,,,,5,,,52,100
117056,note_off,,,,,128,0,10,,,,,2,,,71,100
117056,note_off,,,,,128,0,16,,,,,7,,,52,100
117056,note_off,,,,,0,0,15,,,,,7,,,68,100
117056,note_off,,,,,128,0,14,,,,,6,,,40,100
117056,note_off,,,,,128,0,15,,,,,7,,,59,100
117056,note_off,,,,,128,0,12,,,,,4,,,68,100
117120,note_on,,,,,64,0,12,,,,,4,,,71,85
117120,note_on,,,,,0,0,15,,,,,7,,,71,100
117120,note_on,,,,,64,0,14,,,,,6,,,44,85
117120,note_on,,,,,64,0,15,,,,,7,,,64,100
117120,note_on,,,,,128,0,11,,,,,3,,,76,100
117120,note_on,,,,,64,0,16,,,,,7,,,56,100
117120,note_on,,,,,64,0,13,,,,,5,,,56,85
117120,note_on,,,,,64,0,10,,,,,2,,,76,100
117248,note_off,,,,,0,0,15,,,,,7,,,71,100
117248,note_off,,,,,128,0,15,,,,,7,,,64,100
117248,note_off,,,,,128,0,13,,,,,5,,,56,100
117248,note_off,,,,,128,0,10,,,,,2,,,76,100
117248,note_off,,,,,128,0,14,,,,,6,,,44,100
117248,note_off,,,,,128,0,16,,,,,7,,,56,100
117248,note_off,,,,,128,0,12,,,,,4,,,71,100
117312,note_on,,,,,64,0,14,,,,,6,,,40,85
117312,note_on,,,,,64,0,15,,,,,7,,,59,100
117312,note_on,,,,,64,0,16,,,,,7,,,52,100
117312,note_on,,,,,64,0,10,,,,,2,,,71,100
117312,note_on,,,,,0,0,15,,,,,7,,,68,100
117312,note_on,,,,,64,0,12,,,,,4,,,68,85
117312,note_on,,,,,64,0,13,,,,,5,,,52,85
117376,note_off,,,,,256,0,11,,,,,3,,,76,100
117440,note_off,,,,,128,0,12,,,,,4,,,68,100
117440,note_off,,,,,0,0,15,,,,,7,,,68,100
117440,note_off,,,,,128,0,16,,,,,7,,,52,100
117440,note_off,,,,,128,0,15,,,,,7,,,59,100
117440,note_off,,,,,128,0,13,,,,,5,,,52,100
117440,note_off,,,,,128,0,10,,,,,2,,,71,100
117440,note_off,,,,,128,0,14,,,,,6,,,40,100
117504,note_on,,,,,64,0,16,,,,,7,,,57,100
117504,note_on,,,,,64,0,13,,,,,5,,,57,85
117504,note_on,,,,,64,0,14,,,,,6,,,45,85
117504,note_on,,,,,64,0,15,,,,,7,,,64,100
117504,note_on,,,,,0,0,15,,,,,7,,,73,100
117504,note_on,,,,,64,0,12,,,,,4,,,64,85
117504,note_on,,,,,128,0,11,,,,,3,,,76,100
117504,note_on,,,,,64,0,10,,,,,2,,,73,100
117632,note_off,,,,,128,0,11,,,,,3,,,76,100
117696,note_on,,,,,64,0,11,,,,,3,,,69,90
117760,note_off,,,,,256,0,15,,,,,7,,,64,100
117760,note_off,,,,,256,0,12,,,,,4,,,64,100
117760,note_off,,,,,0,0,15,,,,,7,,,73,100
117760,note_off,,,,,256,0,14,,,,,6,,,45,100
117760,note_off,,,,,256,0,13,,,,,5,,,57,100
117760,note_off,,,,,256,0,10,,,,,2,,,73,100
117760,note_off,,,,,256,0,16,,,,,7,,,57,100
117824,note_off,,,,,128,0,11,,,,,3,,,69,100
117888,note_on,,,,,64,0,11,,,,,3,,,73,90
117888,note_on,,,,,128,0,10,,,,,2,,,76,90
118016,note_off,,,,,128,0,11,,,,,3,,,73,100
118080,note_on,,,,,320,0,15,,,,,7,,,61,100
118080,note_on,,,,,0,0,15,,,,,7,,,64,100
118080,note_on,,,,,320,0,13,,,,,5,,,45,90
118080,note_on,,,,,64,0,11,,,,,3,,,76,90
118080,note_on,,,,,320,0,14,,,,,6,,,33,90
118080,note_on,,,,,320,0,16,,,,,7,,,45,100
118144,note_off,,,,,256,0,10,,,,,2,,,76,100
118208,note_off,,,,,128,0,15,,,,,7,,,61,100
118208,note_off,,,,,0,0,15,,,,,7,,,64,100
118208,note_off,,,,,128,0,14,,,,,6,,,33,100
118208,note_off,,,,,128,0,11,,,,,3,,,76,100
118208,note_off,,,,,128,0,13,,,,,5,,,45,100
118208,note_off,,,,,128,0,16,,,,,7,,,45,100
118272,note_on,,,,,512,0,12,,,,,4,,,64,90
118272,note_on,,,,,64,0,15,,,,,7,,,69,100
118272,note_on,,,,,0,0,15,,,,,7,,,64,100
118272,note_on,,,,,64,0,11,,,,,3,,,69,90
118272,note_on,,,,,64,0,16,,,,,7,,,49,100
118272,note_on,,,,,128,0,10,,,,,2,,,76,90
118272,note_on,,,,,64,0,13,,,,,5,,,49,90
118272,note_on,,,,,64,0,14,,,,,6,,,37,90
118400,note_off,,,,,128,0,11,,,,,3,,,69,100
118400,note_off,,,,,128,0,14,,,,,6,,,37,100
118400,note_off,,,,,128,0,16,,,,,7,,,49,100
118400,note_off,,,,,128,0,15,,,,,7,,,69,100
118400,note_off,,,,,128,0,13,,,,,5,,,49,100
118400,note_off,,,,,0,0,15,,,,,7,,,64,100
118464,note_on,,,,,64,0,11,,,,,3,,,73,90
118464,note_on,,,,,64,0,16,,,,,7,,,45,100
118464,note_on,,,,,64,0,14,,,,,6,,,33,90
118464,note_on,,,,,64,0,15,,,,,7,,,61,100
118464,note_on,,,,,64,0,13,,,,,5,,,45,90
118464,note_on,,,,,0,0,15,,,,,7,,,64,100
118528,note_off,,,,,256,0,10,,,,,2,,,76,100
118528,note_off,,,,,256,0,12,,,,,4,,,64,100
118592,note_off,,,,,0,0,15,,,,,7,,,64,100
118592,note_off,,,,,128,0,14,,,,,6,,,33,100
118592,note_off,,,,,128,0,11,,,,,3,,,73,100
118592,note_off,,,,,128,0,16,,,,,7,,,45,100
118592,note_off,,,,,128,0,15,,,,,7,,,61,100
118592,note_off,,,,,128,0,13,,,,,5,,,45,100
118656,note_on,,,,,64,0,15,,,,,7,,,71,100
118656,note_on,,,,,64,0,16,,,,,7,,,52,100
118656,note_on,,,,,64,0,13,,,,,5,,,52,90
118656,note_on,,,,,0,0,15,,,,,7,,,68,100
118656,note_on,,,,,64,0,11,,,,,3,,,71,90
118656,note_on,,,,,128,0,10,,,,,2,,,76,90
118656,note_on,,,,,64,0,14,,,,,6,,,40,90
118656,note_on,,,,,128,0,12,,,,,4,,,68,90
118784,note_off,,,,,128,0,11,,,,,3,,,71,100
118848,note_on,,,,,64,0,11,,,,,3,,,64,90
118912,note_off,,,,,256,0,10,,,,,2,,,76,100
118912,note_off,,,,,256,0,16,,,,,7,,,52,100
118912,note_off,,,,,256,0,12,,,,,4,,,68,100
118912,note_off,,,,,256,0,14,,,,,6,,,40,100
118912,note_off,,,,,256,0,13,,,,,5,,,52,100
118912,note_off,,,,,0,0,15,,,,,7,,,68,100
118912,note_off,,,,,256,0,15,,,,,7,,,71,100
118976,note_off,,,,,128,0,11,,,,,3,,,64,100
119040,note_on,,,,,64,0,11,,,,,3,,,68,90
119040,note_on,,,,,128,0,10,,,,,2,,,76,90
119168,note_off,,,,,128,0,11,,,,,3,,,68,100
119232,note_on,,,,,320,0,14,,,,,6,,,40,90
119232,note_on,,,,,0,0,15,,,,,7,,,68,100
119232,note_on,,,,,320,0,15,,,,,7,,,59,100
119232,note_on,,,,,64,0,11,,,,,3,,,71,90
119232,note_on,,,,,320,0,16,,,,,7,,,52,100
119232,note_on,,,,,320,0,13,,,,,5,,,52,90
119232,note_on,,,,,320,0,12,,,,,4,,,68,90
119296,note_off,,,,,256,0,10,,,,,2,,,76,100
119360,note_off,,,,,128,0,13,,,,,5,,,52,100
119360,note_off,,,,,128,0,14,,,,,6,,,40,100
119360,note_off,,,,,0,0,15,,,,,7,,,68,100
119360,note_off,,,,,128,0,11,,,,,3,,,71,100
119360,note_off,,,,,128,0,16,,,,,7,,,52,100
119360,note_off,,,,,128,0,12,,,,,4,,,68,100
119360,note_off,,,,,128,0,15,,,,,7,,,59,100
119424,note_on,,,,,64,0,14,,,,,6,,,44,90
119424,note_on,,,,,64,0,13,,,,,5,,,56,90
119424,note_on,,,,,64,0,11,,,,,3,,,76,90
119424,note_on,,,,,128,0,10,,,,,2,,,76,90
119424,note_on,,,,,0,0,15,,,,,7,,,71,100
119424,note_on,,,,,64,0,12,,,,,4,,,71,90
119424,note_on,,,,,64,0,16,,,,,7,,,56,100
119424,note_on,,,,,64,0,15,,,,,7,,,64,100
119552,note_off,,,,,128,0,14,,,,,6,,,44,100
119552,note_off,,,,,128,0,11,,,,,3,,,76,100
119552,note_off,,,,,128,0,16,,,,,7,,,56,100
119552,note_off,,,,,128,0,13,,,,,5,,,56,100
119552,note_off,,,,,128,0,12,,,,,4,,,71,100
119552,note_off,,,,,0,0,15,,,,,7,,,71,100
119552,note_off,,,,,128,0,15,,,,,7,,,64,100
119616,note_on,,,,,64,0,12,,,,,4,,,68,90
119616,note_on,,,,,64,0,16,,,,,7,,,52,100
119616,note_on,,,,,64,0,14,,,,,6,,,40,90
119616,note_on,,,,,0,0,15,,,,,7,,,68,100
119616,note_on,,,,,64,0,15,,,,,7,,,59,100
119616,note_on,,,,,64,0,11,,,,,3,,,71,90
119616,note_on,,,,,64,0,13,,,,,5,,,52,90
119680,note_off,,,,,256,0,10,,,,,2,,,76,100
119744,note_off,,,,,128,0,14,,,,,6,,,40,100
119744,note_off,,,,,128,0,12,,,,,4,,,68,100
119744,note_off,,,,,128,0,13,,,,,5,,,52,100
119744,note_off,,,,,128,0,16,,,,,7,,,52,100
119744,note_off,,,,,128,0,15,,,,,7,,,59,100
119744,note_off,,,,,128,0,11,,,,,3,,,71,100
119744,note_off,,,,,0,0,15,,,,,7,,,68,100
119808,note_on,,,,,64,0,13,,,,,5,,,57,90
119808,note_on,,,,,64,0,16,,,,,7,,,57,100
119808,note_on,,,,,128,0,10,,,,,2,,,76,90
119808,note_on,,,,,64,0,14,,,,,6,,,45,90
119808,note_on,,,,,64,0,11,,,,,3,,,73,90
119808,note_on,,,,,0,0,15,,,,,7,,,73,100
119808,note_on,,,,,64,0,15,,,,,7,,,64,100
119808,note_on,,,,,64,0,12,,,,,4,,,64,90
119936,note_off,,,,,128,0,10,,,,,2,,,76,100
120000,note_on,,,,,64,0,10,,,,,2,,,76,85
120064,note_off,,,,,256,0,15,,,,,7,,,64,100
120064,note_off,,,,,256,0,12,,,,,4,,,64,100
120064,note_off,,,,,256,0,13,,,,,5,,,57,100
120064,note_off,,,,,256,0,14,,,,,6,,,45,100
120064,note_off,,,,,64,0,10,,,,,2,,,76,100
120064,note_off,,,,,0,0,15,,,,,7,,,73,100
120064,note_off,,,,,256,0,16,,,,,7,,,57,100
120064,note_off,,,,,256,0,11,,,,,3,,,73,100
120096,note_on,,,,,32,0,10,,,,,2,,,74,85
120160,note_off,,,,,64,0,10,,,,,2,,,74,100
120192,note_on,,,,,32,0,10,,,,,2,,,73,85
120192,note_on,,,,,128,0,11,,,,,3,,,76,85
120320,note_off,,,,,128,0,10,,,,,2,,,73,100
120320,note_off,,,,,128,0,11,,,,,3,,,76,100
120384,note_on,,,,,64,0,11,,,,,3,,,74,85
120384,note_on,,,,,64,0,10,,,,,2,,,71,85
120512,note_off,,,,,128,0,11,,,,,3,,,74,100
120512,note_off,,,,,128,0,10,,,,,2,,,71,100
120576,note_on,,,,,64,0,10,,,,,2,,,69,85
120576,note_on,,,,,64,0,11,,,,,3,,,73,85
120576,note_on,,,,,512,0,14,,,,,6,,,37,85
120576,note_on,,,,,0,0,15,,,,,7,,,64,100
120576,note_on,,,,,512,0,12,,,,,4,,,64,85
120576,note_on,,,,,512,0,16,,,,,7,,,49,100
120576,note_on,,,,,512,0,15,,,,,7,,,69,100
120576,note_on,,,,,512,0,13,,,,,5,,,49,85
120704,note_off,,,,,128,0,11,,,,,3,,,73,100
120704,note_off,,,,,128,0,10,,,,,2,,,69,100
120768,note_on,,,,,64,0,11,,,,,3,,,71,85
120768,note_on,,,,,64,0,10,,,,,2,,,68,85
120832,note_off,,,,,256,0,14,,,,,6,,,37,100
120832,note_off,,,,,256,0,12,,,,,4,,,64,100
120832,note_off,,,,,256,0,16,,,,,7,,,49,100
120832,note_off,,,,,256,0,13,,,,,5,,,49,100
120832,note_off,,,,,0,0,15,,,,,7,,,64,100
120832,note_off,,,,,256,0,15,,,,,7,,,69,100
120896,note_off,,,,,128,0,10,,,,,2,,,68,100
120896,note_off,,,,,128,0,11,,,,,3,,,71,100
120960,note_on,,,,,128,0,14,,,,,6,,,38,100
120960,note_on,,,,,128,0,12,,,,,4,,,66,100
120960,note_on,,,,,128,0,15,,,,,7,,,66,100
120960,note_on,,,,,64,0,11,,,,,3,,,69,100
120960,note_on,,,,,128,0,16,,,,,7,,,50,100
120960,note_on,,,,,128,0,13,,,,,5,,,50,100
120960,note_on,,,,,0,0,15,,,,,7,,,69,100
120960,note_on,,,,,64,0,10,,,,,2,,,66,100
121088,note_off,,,,,128,0,10,,,,,2,,,66,100
121152,note_on,,,,,64,0,10,,,,,2,,,78,100
121216,note_off,,,,,64,0,10,,,,,2,,,78,100
121216,note_off,,,,,256,0,16,,,,,7,,,50,100
121216,note_off,,,,,256,0,13,,,,,5,,,50,100
121216,note_off,,,,,256,0,12,,,,,4,,,66,100
121216,note_off,,,,,256,0,11,,,,,3,,,69,100
121216,note_off,,,,,256,0,14,,,,,6,,,38,100
121216,note_off,,,,,0,0,15,,,,,7,,,69,100
121216,note_off,,,,,256,0,15,,,,,7,,,66,100
121248,note_on,,,,,32,0,10,,,,,2,,,76,100
121312,note_off,,,,,64,0,10,,,,,2,,,76,100
121344,note_on,,,,,32,0,10,,,,,2,,,74,100
121344,note_on,,,,,128,0,11,,,,,3,,,78,100
121472,note_off,,,,,128,0,10,,,,,2,,,74,100
121472,note_off,,,,,128,0,11,,,,,3,,,78,100
121536,note_on,,,,,64,0,10,,,,,2,,,73,100
121536,note_on,,,,,64,0,11,,,,,3,,,76,100
121664,note_off,,,,,128,0,11,,,,,3,,,76,100
121664,note_off,,,,,128,0,10,,,,,2,,,73,100
121728,note_on,,,,,512,0,13,,,,,5,,,50,100
121728,note_on,,,,,512,0,15,,,,,7,,,71,100
121728,note_on,,,,,64,0,10,,,,,2,,,71,100
121728,note_on,,,,,0,0,15,,,,,7,,,69,100
121728,note_on,,,,,512,0,12,,,,,4,,,66,100
121728,note_on,,,,,64,0,11,,,,,3,,,74,100
121728,note_on,,,,,512,0,16,,,,,7,,,50,100
121728,note_on,,,,,512,0,14,,,,,6,,,38,100
121856,note_off,,,,,128,0,10,,,,,2,,,71,100
121856,note_off,,,,,128,0,11,,,,,3,,,74,100
121920,note_on,,,,,64,0,10,,,,,2,,,69,100
121920,note_on,,,,,64,0,11,,,,,3,,,73,100
121984,note_off,,,,,256,0,13,,,,,5,,,50,100
121984,note_off,,,,,256,0,16,,,,,7,,,50,100
121984,note_off,,,,,0,0,15,,,,,7,,,69,100
121984,note_off,,,,,256,0,15,,,,,7,,,71,100
121984,note_off,,,,,256,0,12,,,,,4,,,66,100
121984,note_off,,,,,256,0,14,,,,,6,,,38,100
122048,note_off,,,,,128,0,10,,,,,2,,,69,100
122048,note_off,,,,,128,0,11,,,,,3,,,73,100
122112,note_on,,,,,128,0,15,,,,,7,,,68,100
122112,note_on,,,,,128,0,12,,,,,4,,,68,100
122112,note_on,,,,,0,0,15,,,,,7,,,71,100
122112,note_on,,,,,128,0,16,,,,,7,,,52,100
122112,note_on,,,,,64,0,11,,,,,3,,,71,100
122112,note_on,,,,,128,0,14,,,,,6,,,40,100
122112,note_on,,,,,128,0,13,,,,,5,,,52,100
122112,note_on,,,,,64,0,10,,,,,2,,,68,100
122240,note_off,,,,,128,0,10,,,,,2,,,68,100
122304,note_on,,,,,64,0,10,,,,,2,,,80,100
122368,note_off,,,,,256,0,11,,,,,3,,,71,100
122368,note_off,,,,,0,0,15,,,,,7,,,71,100
122368,note_off,,,,,256,0,15,,,,,7,,,68,100
122368,note_off,,,,,256,0,16,,,,,7,,,52,100
122368,note_off,,,,,64,0,10,,,,,2,,,80,100
122368,note_off,,,,,256,0,12,,,,,4,,,68,100
122368,note_off,,,,,256,0,14,,,,,6,,,40,100
122368,note_off,,,,,256,0,13,,,,,5,,,52,100
122400,note_on,,,,,32,0,10,,,,,2,,,78,100
122464,note_off,,,,,64,0,10,,,,,2,,,78,100
122496,note_on,,,,,128,0,11,,,,,3,,,80,100
122496,note_on,,,,,32,0,10,,,,,2,,,76,100
122624,note_off,,,,,128,0,10,,,,,2,,,76,100
122624,note_off,,,,,128,0,11,,,,,3,,,80,100
122688,note_on,,,,,64,0,11,,,,,3,,,78,100
122688,note_on,,,,,64,0,10,,,,,2,,,74,100
122816,note_off,,,,,128,0,10,,,,,2,,,74,100
122816,note_off,,,,,128,0,11,,,,,3,,,78,100
122880,note_on,,,,,512,0,13,,,,,5,,,52,100
122880,note_on,,,,,0,0,15,,,,,7,,,73,100
122880,note_on,,,,,512,0,16,,,,,7,,,52,100
122880,note_on,,,,,512,0,15,,,,,7,,,71,100
122880,note_on,,,,,64,0,11,,,,,3,,,76,100
122880,note_on,,,,,64,0,10,,,,,2,,,73,100
122880,note_on,,,,,512,0,12,,,,,4,,,68,100
122880,note_on,,,,,512,0,14,,,,,6,,,40,100
123008,note_off,,,,,128,0,10,,,,,2,,,73,100
123008,note_off,,,,,128,0,11,,,,,3,,,76,100
123072,note_on,,,,,64,0,11,,,,,3,,,74,100
123072,note_on,,,,,64,0,10,,,,,2,,,71,100
123136,note_off,,,,,256,0,14,,,,,6,,,40,100
123136,note_off,,,,,256,0,15,,,,,7,,,71,100
123136,note_off,,,,,256,0,16,,,,,7,,,52,100
123136,note_off,,,,,256,0,13,,,,,5,,,52,100
123136,note_off,,,,,256,0,12,,,,,4,,,68,100
123136,note_off,,,,,0,0,15,,,,,7,,,73,100
123200,note_off,,,,,128,0,11,,,,,3,,,74,100
123200,note_off,,,,,128,0,10,,,,,2,,,71,100
123264,note_on,,,,,64,0,11,,,,,3,,,73,100
123264,note_on,,,,,128,0,15,,,,,7,,,69,100
123264,note_on,,,,,128,0,12,,,,,4,,,69,100
123264,note_on,,,,,128,0,13,,,,,5,,,54,100
123264,note_on,,,,,64,0,10,,,,,2,,,69,100
123264,note_on,,,,,0,0,15,,,,,7,,,73,100
123264,note_on,,,,,128,0,16,,,,,7,,,54,100
123264,note_on,,,,,128,0,14,,,,,6,,,42,100
123392,note_off,,,,,128,0,10,,,,,2,,,69,100
123456,note_on,,,,,64,0,10,,,,,2,,,81,100
123520,note_off,,,,,256,0,11,,,,,3,,,73,100
123520,note_off,,,,,64,0,10,,,,,2,,,81,100
123520,note_off,,,,,256,0,14,,,,,6,,,42,100
123520,note_off,,,,,256,0,16,,,,,7,,,54,100
123520,note_off,,,,,256,0,12,,,,,4,,,69,100
123520,note_off,,,,,256,0,15,,,,,7,,,69,100
123520,note_off,,,,,0,0,15,,,,,7,,,73,100
123520,note_off,,,,,256,0,13,,,,,5,,,54,100
123552,note_on,,,,,32,0,10,,,,,2,,,80,100
123616,note_off,,,,,64,0,10,,,,,2,,,80,100
123648,note_on,,,,,128,0,11,,,,,3,,,81,100
123648,note_on,,,,,32,0,10,,,,,2,,,78,100
123776,note_off,,,,,128,0,11,,,,,3,,,81,100
123776,note_off,,,,,128,0,10,,,,,2,,,78,100
123840,note_on,,,,,64,0,10,,,,,2,,,76,100
123840,note_on,,,,,64,0,11,,,,,3,,,80,100
123968,note_off,,,,,128,0,10,,,,,2,,,76,100
123968,note_off,,,,,128,0,11,,,,,3,,,80,100
124032,note_on,,,,,512,0,12,,,,,4,,,69,100
124032,note_on,,,,,0,0,15,,,,,7,,,74,100
124032,note_on,,,,,512,0,16,,,,,7,,,54,100
124032,note_on,,,,,512,0,13,,,,,5,,,54,100
124032,note_on,,,,,64,0,10,,,,,2,,,74,100
124032,note_on,,,,,64,0,11,,,,,3,,,78,100
124032,note_on,,,,,512,0,14,,,,,6,,,42,100
124032,note_on,,,,,512,0,15,,,,,7,,,73,100
124160,note_off,,,,,128,0,11,,,,,3,,,78,100
124160,note_off,,,,,128,0,10,,,,,2,,,74,100
124224,note_on,,,,,64,0,10,,,,,2,,,73,100
124224,note_on,,,,,64,0,11,,,,,3,,,76,100
124288,note_off,,,,,0,0,15,,,,,7,,,74,100
124288,note_off,,,,,256,0,13,,,,,5,,,54,100
124288,note_off,,,,,256,0,12,,,,,4,,,69,100
124288,note_off,,,,,256,0,14,,,,,6,,,42,100
124288,note_off,,,,,256,0,15,,,,,7,,,73,100
124288,note_off,,,,,256,0,16,,,,,7,,,54,100
124352,note_off,,,,,128,0,10,,,,,2,,,73,100
124352,note_off,,,,,128,0,11,,,,,3,,,76,100
124416,note_on,,,,,0,0,15,,,,,7,,,74,100
124416,note_on,,,,,64,0,10,,,,,2,,,71,100
124416,note_on,,,,,64,0,11,,,,,3,,,74,100
124416,note_on,,,,,128,0,14,,,,,6,,,44,100
124416,note_on,,,,,128,0,12,,,,,4,,,71,100
124416,note_on,,,,,128,0,16,,,,,7,,,56,100
124416,note_on,,,,,128,0,15,,,,,7,,,71,100
124416,note_on,,,,,128,0,13,,,,,5,,,56,100
124544,note_off,,,,,128,0,10,,,,,2,,,71,100
124608,note_on,,,,,64,0,10,,,,,2,,,83,100
124672,note_off,,,,,256,0,15,,,,,7,,,71,100
124672,note_off,,,,,256,0,11,,,,,3,,,74,100
124672,note_off,,,,,256,0,12,,,,,4,,,71,100
124672,note_off,,,,,256,0,14,,,,,6,,,44,100
124672,note_off,,,,,64,0,10,,,,,2,,,83,100
124672,note_off,,,,,0,0,15,,,,,7,,,74,100
124672,note_off,,,,,256,0,13,,,,,5,,,56,100
124672,note_off,,,,,256,0,16,,,,,7,,,56,100
124704,note_on,,,,,32,0,10,,,,,2,,,81,100
124768,note_off,,,,,64,0,10,,,,,2,,,81,100
124800,note_on,,,,,32,0,10,,,,,2,,,80,100
124800,note_on,,,,,128,0,11,,,,,3,,,83,100
124928,note_off,,,,,128,0,10,,,,,2,,,80,100
124928,note_off,,,,,128,0,11,,,,,3,,,83,100
124992,note_on,,,,,64,0,10,,,,,2,,,78,100
124992,note_on,,,,,64,0,11,,,,,3,,,81,100
125120,note_off,,,,,128,0,10,,,,,2,,,78,100
125120,note_off,,,,,128,0,11,,,,,3,,,81,100
125184,note_on,,,,,64,0,10,,,,,2,,,76,100
125184,note_on,,,,,512,0,15,,,,,7,,,76,100
125184,note_on,,,,,0,0,15,,,,,7,,,74,100
125184,note_on,,,,,512,0,14,,,,,6,,,44,100
125184,note_on,,,,,512,0,12,,,,,4,,,71,100
125184,note_on,,,,,512,0,13,,,,,5,,,56,100
125184,note_on,,,,,512,0,16,,,,,7,,,56,100
125184,note_on,,,,,64,0,11,,,,,3,,,80,100
125312,note_off,,,,,128,0,11,,,,,3,,,80,100
125312,note_off,,,,,128,0,10,,,,,2,,,76,100
125376,note_on,,,,,64,0,11,,,,,3,,,78,100
125376,note_on,,,,,64,0,10,,,,,2,,,74,100
125440,note_off,,,,,256,0,12,,,,,4,,,71,100
125440,note_off,,,,,256,0,15,,,,,7,,,76,100
125440,note_off,,,,,256,0,16,,,,,7,,,56,100
125440,note_off,,,,,256,0,13,,,,,5,,,56,100
125440,note_off,,,,,256,0,14,,,,,6,,,44,100
125440,note_off,,,,,0,0,15,,,,,7,,,74,100
125504,note_off,,,,,128,0,11,,,,,3,,,78,100
125504,note_off,,,,,128,0,10,,,,,2,,,74,100
125568,note_on,,,,,0,0,15,,,,,7,,,76,100
125568,note_on,,,,,128,0,15,,,,,7,,,73,100
125568,note_on,,,,,128,0,14,,,,,6,,,45,100
125568,note_on,,,,,128,0,16,,,,,7,,,57,100
125568,note_on,,,,,128,0,12,,,,,4,,,64,100
125568,note_on,,,,,64,0,11,,,,,3,,,76,100
125568,note_on,,,,,64,0,10,,,,,2,,,73,100
125568,note_on,,,,,128,0,13,,,,,5,,,57,100
125696,note_off,,,,,128,0,10,,,,,2,,,73,100
125696,note_off,,,,,128,0,11,,,,,3,,,76,100
125760,note_on,,,,,64,0,11,,,,,3,,,69,60
125760,note_on,,,,,64,0,10,,,,,2,,,69,110
125824,note_off,,,,,256,0,14,,,,,6,,,45,100
125824,note_off,,,,,256,0,15,,,,,7,,,73,100
125824,note_off,,,,,0,0,15,,,,,7,,,76,100
125824,note_off,,,,,256,0,13,,,,,5,,,57,100
125824,note_off,,,,,256,0,16,,,,,7,,,57,100
125824,note_off,,,,,256,0,12,,,,,4,,,64,100
125888,note_off,,,,,128,0,10,,,,,2,,,69,100
125888,note_off,,,,,128,0,11,,,,,3,,,69,100
125952,note_on,,,,,128,0,14,,,,,6,,,45,100
125952,note_on,,,,,64,0,11,,,,,3,,,69,60
125952,note_on,,,,,128,0,15,,,,,7,,,73,100
125952,note_on,,,,,128,0,13,,,,,5,,,57,100
125952,note_on,,,,,128,0,12,,,,,4,,,73,100
125952,note_on,,,,,128,0,16,,,,,7,,,57,100
125952,note_on,,,,,0,0,15,,,,,7,,,76,100
125952,note_on,,,,,64,0,10,,,,,2,,,69,110
126080,note_off,,,,,128,0,10,,,,,2,,,69,100
126080,note_off,,,,,128,0,11,,,,,3,,,69,100
126144,note_on,,,,,64,0,11,,,,,3,,,69,60
126144,note_on,,,,,64,0,10,,,,,2,,,69,110
126208,note_off,,,,,256,0,13,,,,,5,,,57,100
126208,note_off,,,,,0,0,15,,,,,7,,,76,100
126208,note_off,,,,,256,0,14,,,,,6,,,45,100
126208,note_off,,,,,256,0,12,,,,,4,,,73,100
126208,note_off,,,,,256,0,15,,,,,7,,,73,100
126208,note_off,,,,,256,0,16,,,,,7,,,57,100
126272,note_off,,,,,128,0,10,,,,,2,,,69,100
126272,note_off,,,,,128,0,11,,,,,3,,,69,100
126336,note_on,,,,,128,0,12,,,,,4,,,71,100
126336,note_on,,,,,64,0,11,,,,,3,,,81,60
126336,note_on,,,,,128,0,16,,,,,7,,,56,100
126336,note_on,,,,,128,0,14,,,,,6,,,44,100
126336,note_on,,,,,128,0,15,,,,,7,,,71,100
126336,note_on,,,,,64,0,10,,,,,2,,,81,110
126336,note_on,,,,,128,0,13,,,,,5,,,56,100
126336,note_on,,,,,0,0,15,,,,,7,,,74,100
126464,note_off,,,,,128,0,10,,,,,2,,,81,100
126464,note_off,,,,,128,0,11,,,,,3,,,81,100
126528,note_on,,,,,64,0,10,,,,,2,,,69,110
126528,note_on,,,,,64,0,11,,,,,3,,,69,60
126592,note_off,,,,,256,0,12,,,,,4,,,71,100
126592,note_off,,,,,0,0,15,,,,,7,,,74,100
126592,note_off,,,,,256,0,15,,,,,7,,,71,100
126592,note_off,,,,,256,0,16,,,,,7,,,56,100
126592,note_off,,,,,256,0,13,,,,,5,,,56,100
126592,note_off,,,,,256,0,14,,,,,6,,,44,100
126656,note_off,,,,,128,0,10,,,,,2,,,69,100
126656,note_off,,,,,128,0,11,,,,,3,,,69,100
126720,note_on,,,,,64,0,11,,,,,3,,,69,60
126720,note_on,,,,,128,0,14,,,,,6,,,42,100
126720,note_on,,,,,128,0,15,,,,,7,,,69,100
126720,note_on,,,,,64,0,10,,,,,2,,,69,110
126720,note_on,,,,,0,0,15,,,,,7,,,73,100
126720,note_on,,,,,128,0,16,,,,,7,,,54,100
126720,note_on,,,,,128,0,12,,,,,4,,,69,100
126720,note_on,,,,,128,0,13,,,,,5,,,54,100
126848,note_off,,,,,128,0,11,,,,,3,,,69,100
126848,note_off,,,,,128,0,10,,,,,2,,,69,100
126912,note_on,,,,,64,0,11,,,,,3,,,69,60
126912,note_on,,,,,64,0,10,,,,,2,,,69,110
126976,note_off,,,,,256,0,12,,,,,4,,,69,100
126976,note_off,,,,,256,0,16,,,,,7,,,54,100
126976,note_off,,,,,256,0,14,,,,,6,,,42,100
126976,note_off,,,,,256,0,13,,,,,5,,,54,100
126976,note_off,,,,,0,0,15,,,,,7,,,73,100
126976,note_off,,,,,256,0,15,,,,,7,,,69,100
127040,note_off,,,,,128,0,10,,,,,2,,,69,100
127040,note_off,,,,,128,0,11,,,,,3,,,69,100
127104,note_on,,,,,128,0,13,,,,,5,,,52,100
127104,note_on,,,,,128,0,12,,,,,4,,,68,100
127104,note_on,,,,,0,0,15,,,,,7,,,71,100
127104,note_on,,,,,128,0,15,,,,,7,,,68,100
127104,note_on,,,,,64,0,10,,,,,2,,,69,110
127104,note_on,,,,,128,0,16,,,,,7,,,52,100
127104,note_on,,,,,64,0,11,,,,,3,,,69,60
127104,note_on,,,,,128,0,14,,,,,6,,,40,100
127232,note_off,,,,,128,0,11,,,,,3,,,69,100
127232,note_off,,,,,128,0,10,,,,,2,,,69,100
127296,note_on,,,,,64,0,10,,,,,2,,,69,110
127296,note_on,,,,,64,0,11,,,,,3,,,69,60
127360,note_off,,,,,0,0,15,,,,,7,,,71,100
127360,note_off,,,,,256,0,16,,,,,7,,,52,100
127360,note_off,,,,,256,0,12,,,,,4,,,68,100
127360,note_off,,,,,256,0,13,,,,,5,,,52,100
127360,note_off,,,,,256,0,14,,,,,6,,,40,100
127360,note_off,,,,,256,0,15,,,,,7,,,68,100
127424,note_off,,,,,128,0,11,,,,,3,,,69,100
127424,note_off,,,,,128,0,10,,,,,2,,,69,100
127488,note_on,,,,,128,0,13,,,,,5,,,50,100
127488,note_on,,,,,128,0,12,,,,,4,,,66,100
127488,note_on,,,,,128,0,14,,,,,6,,,38,100
127488,note_on,,,,,128,0,16,,,,,7,,,50,100
127488,note_on,,,,,128,0,15,,,,,7,,,66,100
127488,note_on,,,,,0,0,15,,,,,7,,,69,100
127488,note_on,,,,,64,0,10,,,,,2,,,81,110
127488,note_on,,,,,64,0,11,,,,,3,,,81,60
127616,note_off,,,,,128,0,11,,,,,3,,,81,100
127616,note_off,,,,,128,0,10,,,,,2,,,81,100
127680,note_on,,,,,64,0,11,,,,,3,,,69,60
127680,note_on,,,,,64,0,10,,,,,2,,,69,110
127744,note_off,,,,,256,0,15,,,,,7,,,66,100
127744,note_off,,,,,0,0,15,,,,,7,,,69,100
127744,note_off,,,,,256,0,14,,,,,6,,,38,100
127744,note_off,,,,,256,0,13,,,,,5,,,50,100
127744,note_off,,,,,256,0,16,,,,,7,,,50,100
127744,note_off,,,,,256,0,12,,,,,4,,,66,100
127808,note_off,,,,,128,0,11,,,,,3,,,69,100
127808,note_off,,,,,128,0,10,,,,,2,,,69,100
127872,note_on,,,,,128,0,16,,,,,7,,,49,100
127872,note_on,,,,,64,0,11,,,,,3,,,69,60
127872,note_on,,,,,128,0,13,,,,,5,,,49,100
127872,note_on,,,,,0,0,15,,,,,7,,,69,100
127872,note_on,,,,,128,0,15,,,,,7,,,64,100
127872,note_on,,,,,128,0,14,,,,,6,,,37,100
127872,note_on,,,,,128,0,12,,,,,4,,,64,100
127872,note_on,,,,,64,0,10,,,,,2,,,69,110
128000,note_off,,,,,128,0,11,,,,,3,,,69,100
128000,note_off,,,,,128,0,10,,,,,2,,,69,100
128064,note_on,,,,,64,0,11,,,,,3,,,69,60
128064,note_on,,,,,64,0,10,,,,,2,,,69,110
128128,note_off,,,,,256,0,15,,,,,7,,,64,100
128128,note_off,,,,,256,0,16,,,,,7,,,49,100
128128,note_off,,,,,256,0,13,,,,,5,,,49,100
128128,note_off,,,,,0,0,15,,,,,7,,,69,100
128128,note_off,,,,,256,0,14,,,,,6,,,37,100
128128,note_off,,,,,256,0,12,,,,,4,,,64,100
128192,note_off,,,,,128,0,10,,,,,2,,,69,100
128192,note_off,,,,,128,0,11,,,,,3,,,69,100
128256,note_on,,,,,64,0,11,,,,,3,,,69,60
128256,note_on,,,,,64,0,10,,,,,2,,,69,110
128384,note_off,,,,,128,0,11,,,,,3,,,69,100
128384,note_off,,,,,128,0,10,,,,,2,,,69,100
128448,note_on,,,,,64,0,11,,,,,3,,,69,60
128448,note_on,,,,,64,0,10,,,,,2,,,69,110
128576,note_off,,,,,128,0,11,,,,,3,,,69,100
128576,note_off,,,,,128,0,10,,,,,2,,,69,100
128640,note_on,,,,,512,0,14,,,,,6,,,33,100
128640,note_on,,,,,512,0,13,,,,,5,,,45,100
128640,note_on,,,,,512,0,12,,,,,4,,,61,100
128640,note_on,,,,,64,0,10,,,,,2,,,81,110
128640,note_on,,,,,0,0,15,,,,,7,,,61,100
128640,note_on,,,,,512,0,16,,,,,7,,,45,100
128640,note_on,,,,,512,0,15,,,,,7,,,64,100
128640,note_on,,,,,64,0,11,,,,,3,,,81,60
128768,note_off,,,,,128,0,10,,,,,2,,,81,100
128768,note_off,,,,,128,0,11,,,,,3,,,81,100
128832,note_on,,,,,64,0,10,,,,,2,,,69,110
128832,note_on,,,,,64,0,11,,,,,3,,,69,60
128896,note_off,,,,,256,0,16,,,,,7,,,45,100
128896,note_off,,,,,256,0,12,,,,,4,,,61,100
128896,note_off,,,,,0,0,15,,,,,7,,,61,100
128896,note_off,,,,,256,0,13,,,,,5,,,45,100
128896,note_off,,,,,256,0,15,,,,,7,,,64,100
128896,note_off,,,,,256,0,14,,,,,6,,,33,100
128960,note_off,,,,,128,0,11,,,,,3,,,69,100
128960,note_off,,,,,128,0,10,,,,,2,,,69,100
129024,note_on,,,,,128,0,16,,,,,7,,,50,100
129024,note_on,,,,,64,0,11,,,,,3,,,81,60
129024,note_on,,,,,128,0,13,,,,,5,,,50,100
129024,note_on,,,,,128,0,14,,,,,6,,,38,100
129024,note_on,,,,,64,0,10,,,,,2,,,81,110
129024,note_on,,,,,0,0,15,,,,,7,,,71,100
129024,note_on,,,,,128,0,15,,,,,7,,,69,100
129024,note_on,,,,,128,0,12,,,,,4,,,66,100
129152,note_off,,,,,128,0,10,,,,,2,,,81,100
129152,note_off,,,,,128,0,11,,,,,3,,,81,100
129216,note_on,,,,,64,0,10,,,,,2,,,71,110
129216,note_on,,,,,64,0,11,,,,,3,,,71,60
129280,note_off,,,,,256,0,12,,,,,4,,,66,100
129280,note_off,,,,,256,0,14,,,,,6,,,38,100
129280,note_off,,,,,0,0,15,,,,,7,,,71,100
129280,note_off,,,,,256,0,13,,,,,5,,,50,100
129280,note_off,,,,,256,0,15,,,,,7,,,69,100
129280,note_off,,,,,256,0,16,,,,,7,,,50,100
129344,note_off,,,,,128,0,11,,,,,3,,,71,100
129344,note_off,,,,,128,0,10,,,,,2,,,71,100
129408,note_on,,,,,128,0,12,,,,,4,,,64,100
129408,note_on,,,,,64,0,11,,,,,3,,,71,60
129408,note_on,,,,,128,0,13,,,,,5,,,52,100
129408,note_on,,,,,128,0,15,,,,,7,,,68,100
129408,note_on,,,,,64,0,10,,,,,2,,,71,110
129408,note_on,,,,,128,0,14,,,,,6,,,40,100
129408,note_on,,,,,0,0,15,,,,,7,,,71,100
129408,note_on,,,,,128,0,16,,,,,7,,,52,100
129536,note_off,,,,,128,0,11,,,,,3,,,71,100
129536,note_off,,,,,128,0,10,,,,,2,,,71,100
129600,note_on,,,,,64,0,10,,,,,2,,,71,110
129600,note_on,,,,,64,0,11,,,,,3,,,71,60
129664,note_off,,,,,256,0,13,,,,,5,,,52,100
129664,note_off,,,,,256,0,15,,,,,7,,,68,100
129664,note_off,,,,,256,0,14,,,,,6,,,40,100
129664,note_off,,,,,256,0,12,,,,,4,,,64,100
129664,note_off,,,,,0,0,15,,,,,7,,,71,100
129664,note_off,,,,,256,0,16,,,,,7,,,52,100
129728,note_off,,,,,128,0,10,,,,,2,,,71,100
129728,note_off,,,,,128,0,11,,,,,3,,,71,100
129792,note_on,,,,,64,0,11,,,,,3,,,80,60
129792,note_on,,,,,128,0,12,,,,,4,,,64,100
129792,note_on,,,,,128,0,13,,,,,5,,,40,100
129792,note_on,,,,,128,0,15,,,,,7,,,59,100
129792,note_on,,,,,128,0,14,,,,,6,,,40,100
129792,note_on,,,,,128,0,16,,,,,7,,,40,100
129792,note_on,,,,,0,0,15,,,,,7,,,68,100
129792,note_on,,,,,64,0,10,,,,,2,,,80,110
129920,note_off,,,,,128,0,11,,,,,3,,,80,100
129920,note_off,,,,,128,0,10,,,,,2,,,80,100
129984,note_on,,,,,64,0,10,,,,,2,,,71,110
129984,note_on,,,,,64,0,11,,,,,3,,,71,60
130048,note_off,,,,,256,0,14,,,,,6,,,40,100
130048,note_off,,,,,256,0,15,,,,,7,,,59,100
130048,note_off,,,,,256,0,13,,,,,5,,,40,100
130048,note_off,,,,,0,0,15,,,,,7,,,68,100
130048,note_off,,,,,256,0,16,,,,,7,,,40,100
130048,note_off,,,,,256,0,12,,,,,4,,,64,100
130112,note_off,,,,,128,0,11,,,,,3,,,71,100
130112,note_off,,,,,128,0,10,,,,,2,,,71,100
130176,note_on,,,,,128,0,14,,,,,6,,,33,100
130176,note_on,,,,,128,0,15,,,,,7,,,61,100
130176,note_on,,,,,0,0,15,,,,,7,,,64,100
130176,note_on,,,,,64,0,11,,,,,3,,,69,60
130176,note_on,,,,,64,0,10,,,,,2,,,69,110
130176,note_on,,,,,128,0,12,,,,,4,,,61,100
130176,note_on,,,,,128,0,16,,,,,7,,,45,100
130176,note_on,,,,,128,0,13,,,,,5,,,45,100
130304,note_off,,,,,128,0,12,,,,,4,,,61,100
130304,note_off,,,,,128,0,13,,,,,5,,,45,100
130304,note_off,,,,,0,0,15,,,,,7,,,64,100
130304,note_off,,,,,128,0,14,,,,,6,,,33,100
130304,note_off,,,,,128,0,16,,,,,7,,,45,100
130304,note_off,,,,,128,0,15,,,,,7,,,61,100
130304,note_off,,,,,128,0,10,,,,,2,,,69,100
130304,note_off,,,,,128,0,11,,,,,3,,,69,100
130368,note_on,,,,,64,0,12,,,,,4,,,69,100
130368,note_on,,,,,64,0,16,,,,,7,,,57,100
130368,note_on,,,,,64,0,10,,,,,2,,,69,110
130368,note_on,,,,,64,0,15,,,,,7,,,69,100
130368,note_on,,,,,64,0,13,,,,,5,,,57,100
130368,note_on,,,,,64,0,11,,,,,3,,,69,60
130368,note_on,,,,,64,0,14,,,,,6,,,45,100
130496,note_off,,,,,128,0,16,,,,,7,,,57,100
130496,note_off,,,,,128,0,13,,,,,5,,,57,100
130496,note_off,,,,,128,0,12,,,,,4,,,69,100
130496,note_off,,,,,128,0,11,,,,,3,,,69,100
130496,note_off,,,,,128,0,14,,,,,6,,,45,100
130496,note_off,,,,,128,0,10,,,,,2,,,69,100
130496,note_off,,,,,128,0,15,,,,,7,,,69,100
130560,note_on,,,,,64,0,11,,,,,3,,,68,60
130560,note_on,,,,,64,0,16,,,,,7,,,56,100
130560,note_on,,,,,64,0,10,,,,,2,,,68,110
130560,note_on,,,,,64,0,12,,,,,4,,,68,100
130560,note_on,,,,,64,0,13,,,,,5,,,56,100
130560,note_on,,,,,64,0,14,,,,,6,,,44,100
130560,note_on,,,,,64,0,15,,,,,7,,,68,100
130688,note_off,,,,,128,0,12,,,,,4,,,68,100
130688,note_off,,,,,128,0,10,,,,,2,,,68,100
130688,note_off,,,,,128,0,14,,,,,6,,,44,100
130688,note_off,,,,,128,0,11,,,,,3,,,68,100
130688,note_off,,,,,128,0,16,,,,,7,,,56,100
130688,note_off,,,,,128,0,13,,,,,5,,,56,100
130688,note_off,,,,,128,0,15,,,,,7,,,68,100
130752,note_on,,,,,64,0,15,,,,,7,,,66,100
130752,note_on,,,,,64,0,14,,,,,6,,,42,100
130752,note_on,,,,,64,0,11,,,,,3,,,66,60
130752,note_on,,,,,64,0,13,,,,,5,,,54,100
130752,note_on,,,,,64,0,12,,,,,4,,,66,100
130752,note_on,,,,,64,0,10,,,,,2,,,66,110
130752,note_on,,,,,64,0,16,,,,,7,,,54,100
130880,note_off,,,,,128,0,16,,,,,7,,,54,100
130880,note_off,,,,,128,0,12,,,,,4,,,66,100
130880,note_off,,,,,128,0,14,,,,,6,,,42,100
130880,note_off,,,,,128,0,15,,,,,7,,,66,100
130880,note_off,,,,,128,0,13,,,,,5,,,54,100
130880,note_off,,,,,128,0,10,,,,,2,,,66,100
130880,note_off,,,,,128,0,11,,,,,3,,,66,100
130944,note_on,,,,,64,0,10,,,,,2,,,64,110
130944,note_on,,,,,64,0,12,,,,,4,,,64,100
130944,note_on,,,,,64,0,13,,,,,5,,,52,100
130944,note_on,,,,,64,0,14,,,,,6,,,40,100
130944,note_on,,,,,64,0,15,,,,,7,,,64,100
130944,note_on,,,,,64,0,11,,,,,3,,,64,60
130944,note_on,,,,,64,0,16,,,,,7,,,52,100
131072,note_off,,,,,128,0,16,,,,,7,,,52,100
131072,note_off,,,,,128,0,14,,,,,6,,,40,100
131072,note_off,,,,,128,0,11,,,,,3,,,64,100
131072,note_off,,,,,128,0,13,,,,,5,,,52,100
131072,note_off,,,,,128,0,10,,,,,2,,,64,100
131072,note_off,,,,,128,0,12,,,,,4,,,64,100
131072,note_off,,,,,128,0,15,,,,,7,,,64,100
131136,note_on,,,,,64,0,11,,,,,3,,,62,60
131136,note_on,,,,,64,0,15,,,,,7,,,62,100
131136,note_on,,,,,64,0,13,,,,,5,,,50,100
131136,note_on,,,,,64,0,14,,,,,6,,,38,100
131136,note_on,,,,,64,0,16,,,,,7,,,50,100
131136,note_on,,,,,64,0,10,,,,,2,,,62,110
131136,note_on,,,,,64,0,12,,,,,4,,,62,100
131264,note_off,,,,,128,0,14,,,,,6,,,38,100
131264,note_off,,,,,128,0,13,,,,,5,,,50,100
131264,note_off,,,,,128,0,12,,,,,4,,,62,100
131264,note_off,,,,,128,0,10,,,,,2,,,62,100
131264,note_off,,,,,128,0,16,,,,,7,,,50,100
131264,note_off,,,,,128,0,11,,,,,3,,,62,100
131264,note_off,,,,,128,0,15,,,,,7,,,62,100
131328,note_on,,,,,64,0,10,,,,,2,,,61,110
131328,note_on,,,,,64,0,16,,,,,7,,,49,100
131328,note_on,,,,,64,0,11,,,,,3,,,61,60
131328,note_on,,,,,0,0,15,,,,,7,,,64,100
131328,note_on,,,,,64,0,15,,,,,7,,,61,100
131328,note_on,,,,,64,0,12,,,,,4,,,61,100
131328,note_on,,,,,64,0,13,,,,,5,,,49,100
131328,note_on,,,,,64,0,14,,,,,6,,,37,100
131456,note_off,,,,,128,0,10,,,,,2,,,61,100
131456,note_off,,,,,128,0,12,,,,,4,,,61,100
131456,note_off,,,,,128,0,16,,,,,7,,,49,100
131456,note_off,,,,,128,0,11,,,,,3,,,61,100
131456,note_off,,,,,128,0,13,,,,,5,,,49,100
131456,note_off,,,,,128,0,14,,,,,6,,,37,100
131456,note_off,,,,,0,0,15,,,,,7,,,64,100
131456,note_off,,,,,128,0,15,,,,,7,,,61,100
131520,note_on,,,,,64,0,16,,,,,7,,,54,100
131520,note_on,,,,,64,0,11,,,,,3,,,66,60
131520,note_on,,,,,64,0,10,,,,,2,,,66,110
131520,note_on,,,,,64,0,13,,,,,5,,,54,100
131520,note_on,,,,,64,0,15,,,,,7,,,66,100
131520,note_on,,,,,64,0,14,,,,,6,,,42,100
131520,note_on,,,,,64,0,12,,,,,4,,,66,100
131648,note_off,,,,,128,0,16,,,,,7,,,54,100
131648,note_off,,,,,128,0,14,,,,,6,,,42,100
131648,note_off,,,,,128,0,12,,,,,4,,,66,100
131648,note_off,,,,,128,0,11,,,,,3,,,66,100
131648,note_off,,,,,128,0,13,,,,,5,,,54,100
131648,note_off,,,,,128,0,10,,,,,2,,,66,100
131648,note_off,,,,,128,0,15,,,,,7,,,66,100
131712,note_on,,,,,64,0,12,,,,,4,,,64,100
131712,note_on,,,,,64,0,11,,,,,3,,,64,60
131712,note_on,,,,,64,0,15,,,,,7,,,64,100
131712,note_on,,,,,64,0,16,,,,,7,,,52,100
131712,note_on,,,,,64,0,10,,,,,2,,,64,110
131712,note_on,,,,,64,0,14,,,,,6,,,40,100
131712,note_on,,,,,64,0,13,,,,,5,,,52,100
131840,note_off,,,,,128,0,10,,,,,2,,,64,100
131840,note_off,,,,,128,0,14,,,,,6,,,40,100
131840,note_off,,,,,128,0,15,,,,,7,,,64,100
131840,note_off,,,,,128,0,11,,,,,3,,,64,100
131840,note_off,,,,,128,0,12,,,,,4,,,64,100
131840,note_off,,,,,128,0,16,,,,,7,,,52,100
131840,note_off,,,,,128,0,13,,,,,5,,,52,100
131904,note_on,,,,,64,0,13,,,,,5,,,50,100
131904,note_on,,,,,64,0,12,,,,,4,,,62,100
131904,note_on,,,,,64,0,14,,,,,6,,,38,100
131904,note_on,,,,,64,0,16,,,,,7,,,50,100
131904,note_on,,,,,64,0,15,,,,,7,,,62,100
131904,note_on,,,,,64,0,11,,,,,3,,,62,60
131904,note_on,,,,,64,0,10,,,,,2,,,62,110
132032,note_off,,,,,128,0,12,,,,,4,,,62,100
132032,note_off,,,,,128,0,14,,,,,6,,,38,100
132032,note_off,,,,,128,0,11,,,,,3,,,62,100
132032,note_off,,,,,128,0,10,,,,,2,,,62,100
132032,note_off,,,,,128,0,16,,,,,7,,,50,100
132032,note_off,,,,,128,0,15,,,,,7,,,62,100
132032,note_off,,,,,128,0,13,,,,,5,,,50,100
132096,note_on,,,,,64,0,15,,,,,7,,,61,100
132096,note_on,,,,,64,0,11,,,,,3,,,61,60
132096,note_on,,,,,64,0,10,,,,,2,,,61,110
132096,note_on,,,,,64,0,12,,,,,4,,,61,100
132096,note_on,,,,,64,0,16,,,,,7,,,49,100
132096,note_on,,,,,64,0,13,,,,,5,,,49,100
132096,note_on,,,,,64,0,14,,,,,6,,,37,100
132224,note_off,,,,,128,0,12,,,,,4,,,61,100
132224,note_off,,,,,128,0,10,,,,,2,,,61,100
132224,note_off,,,,,128,0,15,,,,,7,,,61,100
132224,note_off,,,,,128,0,11,,,,,3,,,61,100
132224,note_off,,,,,128,0,16,,,,,7,,,49,100
132224,note_off,,,,,128,0,14,,,,,6,,,37,100
132224,note_off,,,,,128,0,13,,,,,5,,,49,100
132288,note_on,,,,,64,0,10,,,,,2,,,59,110
132288,note_on,,,,,64,0,11,,,,,3,,,59,60
132288,note_on,,,,,64,0,14,,,,,6,,,35,100
132288,note_on,,,,,64,0,15,,,,,7,,,59,100
132288,note_on,,,,,64,0,12,,,,,4,,,59,100
132288,note_on,,,,,64,0,13,,,,,5,,,47,100
132288,note_on,,,,,64,0,16,,,,,7,,,47,100
132416,note_off,,,,,128,0,16,,,,,7,,,47,100
132416,note_off,,,,,128,0,11,,,,,3,,,59,100
132416,note_off,,,,,128,0,14,,,,,6,,,35,100
132416,note_off,,,,,128,0,12,,,,,4,,,59,100
132416,note_off,,,,,128,0,13,,,,,5,,,47,100
132416,note_off,,,,,128,0,15,,,,,7,,,59,100
132416,note_off,,,,,128,0,10,,,,,2,,,59,100
132480,note_on,,,,,64,0,14,,,,,6,,,33,100
132480,note_on,,,,,64,0,13,,,,,5,,,45,100
132480,set_tempo,,,,,125568,1,0,,500000,,,,,,,
132480,note_on,,,,,64,0,15,,,,,7,,,57,100
132480,note_on,,,,,0,0,15,,,,,7,,,61,100
132480,note_on,,,,,0,0,15,,,,,7,,,64,100
132480,note_on,,,,,64,0,10,,,,,2,,,57,110
132480,note_on,,,,,64,0,16,,,,,7,,,45,100
132480,note_on,,,,,64,0,12,,,,,4,,,57,100
132480,note_on,,,,,64,0,11,,,,,3,,,57,60
132556,set_tempo,,,,,76,1,0,,504201,,,,,,,
132632,set_tempo,,,,,76,1,0,,508474,,,,,,,
132708,set_tempo,,,,,76,1,0,,512820,,,,,,,
132736,note_off,,,,,256,0,12,,,,,4,,,57,100
132736,note_off,,,,,256,0,14,,,,,6,,,33,100
132736,note_off,,,,,256,0,10,,,,,2,,,57,100
132736,note_off,,,,,256,0,15,,,,,7,,,57,100
132736,note_off,,,,,0,0,15,,,,,7,,,61,100
132736,note_off,,,,,256,0,11,,,,,3,,,57,100
132736,note_off,,,,,0,0,15,,,,,7,,,64,100
132736,note_off,,,,,256,0,16,,,,,7,,,45,100
132736,note_off,,,,,256,0,13,,,,,5,,,45,100
132784,set_tempo,,,,,76,1,0,,517241,,,,,,,
132864,note_on,,,,,128,0,15,,,,,7,,,69,100
132864,note_on,,,,,0,0,15,,,,,7,,,61,100
132864,note_on,,,,,128,0,10,,,,,2,,,81,115
132864,note_on,,,,,0,0,15,,,,,7,,,64,100
132864,note_on,,,,,128,0,11,,,,,3,,,73,115
132864,note_on,,,,,128,0,12,,,,,4,,,64,115
132864,note_on,,,,,128,0,14,,,,,6,,,33,115
132864,set_tempo,,,,,80,1,0,,521739,,,,,,,
132864,note_on,,,,,128,0,16,,,,,7,,,45,100
132864,note_on,,,,,128,0,13,,,,,5,,,45,115
132940,set_tempo,,,,,76,1,0,,526315,,,,,,,
133016,set_tempo,,,,,76,1,0,,530973,,,,,,,
133092,set_tempo,,,,,76,1,0,,535714,,,,,,,
133120,note_off,,,,,256,0,10,,,,,2,,,81,100
133120,note_off,,,,,256,0,12,,,,,4,,,64,100
133120,note_off,,,,,0,0,15,,,,,7,,,61,100
133120,note_off,,,,,0,0,15,,,,,7,,,64,100
133120,note_off,,,,,256,0,15,,,,,7,,,69,100
133120,note_off,,,,,256,0,16,,,,,7,,,45,100
133120,note_off,,,,,256,0,14,,,,,6,,,33,100
133120,note_off,,,,,256,0,13,,,,,5,,,45,100
133120,note_off,,,,,256,0,11,,,,,3,,,73,100
133168,set_tempo,,,,,76,1,0,,540540,,,,,,,
133248,note_on,,,,,0,0,15,,,,,7,,,61,100
133248,note_on,,,,,0,0,15,,,,,7,,,64,100
133248,note_on,,,,,128,0,11,,,,,3,,,73,115
133248,note_on,,,,,128,0,16,,,,,7,,,45,100
133248,note_on,,,,,128,0,15,,,,,7,,,69,100
133248,note_on,,,,,128,0,12,,,,,4,,,64,115
133248,set_tempo,,,,,80,1,0,,545454,,,,,,,
133248,note_on,,,,,128,0,10,,,,,2,,,81,115
133248,note_on,,,,,128,0,14,,,,,6,,,33,115
133248,note_on,,,,,128,0,13,,,,,5,,,45,115
133324,set_tempo,,,,,76,1,0,,550458,,,,,,,
133400,set_tempo,,,,,76,1,0,,555555,,,,,,,
133476,set_tempo,,,,,76,1,0,,560747,,,,,,,
133504,note_off,,,,,0,0,15,,,,,7,,,64,100
133504,note_off,,,,,0,0,15,,,,,7,,,61,100
133504,note_off,,,,,256,0,15,,,,,7,,,69,100
133504,note_off,,,,,256,0,10,,,,,2,,,81,100
133504,note_off,,,,,256,0,13,,,,,5,,,45,100
133504,note_off,,,,,256,0,11,,,,,3,,,73,100
133504,note_off,,,,,256,0,12,,,,,4,,,64,100
133504,note_off,,,,,256,0,14,,,,,6,,,33,100
133504,note_off,,,,,256,0,16,,,,,7,,,45,100
133552,set_tempo,,,,,76,1,0,,566037,,,,,,,
133632,note_on,,,,,128,0,10,,,,,2,,,81,115
133632,note_on,,,,,128,0,14,,,,,6,,,38,115
133632,set_tempo,,,,,80,1,0,,571428,,,,,,,
133632,note_on,,,,,0,0,15,,,,,7,,,62,100
133632,note_on,,,,,0,0,15,,,,,7,,,69,100
133632,note_on,,,,,128,0,15,,,,,7,,,71,100
133632,note_on,,,,,128,0,16,,,,,7,,,50,100
133632,note_on,,,,,128,0,12,,,,,4,,,66,115
133632,note_on,,,,,128,0,13,,,,,5,,,50,115
133632,note_on,,,,,128,0,11,,,,,3,,,71,115
133860,set_tempo,,,,,228,1,0,,576923,,,,,,,
133888,note_off,,,,,256,0,16,,,,,7,,,50,100
133888,note_off,,,,,256,0,10,,,,,2,,,81,100
133888,note_off,,,,,256,0,13,,,,,5,,,50,100
133888,note_off,,,,,256,0,15,,,,,7,,,71,100
133888,note_off,,,,,0,0,15,,,,,7,,,69,100
133888,note_off,,,,,256,0,14,,,,,6,,,38,100
133888,note_off,,,,,256,0,11,,,,,3,,,71,100
133888,note_off,,,,,0,0,15,,,,,7,,,62,100
133888,note_off,,,,,256,0,12,,,,,4,,,66,100
133900,set_tempo,,,,,40,1,0,,582524,,,,,,,
133936,set_tempo,,,,,36,1,0,,588235,,,,,,,
133976,set_tempo,,,,,40,1,0,,594059,,,,,,,
134016,note_on,,,,,0,0,15,,,,,7,,,68,100
134016,note_on,,,,,0,0,15,,,,,7,,,64,100
134016,note_on,,,,,128,0,10,,,,,2,,,80,115
134016,note_on,,,,,128,0,14,,,,,6,,,40,115
134016,note_on,,,,,128,0,12,,,,,4,,,64,115
134016,note_on,,,,,128,0,11,,,,,3,,,71,115
134016,note_on,,,,,128,0,16,,,,,7,,,52,100
134016,note_on,,,,,128,0,15,,,,,7,,,71,100
134016,set_tempo,,,,,40,1,0,,600000,,,,,,,
134016,note_on,,,,,128,0,13,,,,,5,,,52,115
134032,set_tempo,,,,,16,1,0,,606060,,,,,,,
134052,set_tempo,,,,,20,1,0,,612244,,,,,,,
134072,set_tempo,,,,,20,1,0,,618556,,,,,,,
134092,set_tempo,,,,,20,1,0,,625000,,,,,,,
134112,set_tempo,,,,,20,1,0,,631578,,,,,,,
134128,set_tempo,,,,,16,1,0,,638297,,,,,,,
134148,set_tempo,,,,,20,1,0,,645161,,,,,,,
134168,set_tempo,,,,,20,1,0,,652173,,,,,,,
134188,set_tempo,,,,,20,1,0,,659340,,,,,,,
134208,set_tempo,,,,,20,1,0,,666666,,,,,,,
134224,set_tempo,,,,,16,1,0,,674157,,,,,,,
134244,set_tempo,,,,,20,1,0,,681818,,,,,,,
134264,set_tempo,,,,,20,1,0,,689655,,,,,,,
134272,note_off,,,,,256,0,11,,,,,3,,,71,100
134272,note_off,,,,,256,0,16,,,,,7,,,52,100
134272,note_off,,,,,256,0,14,,,,,6,,,40,100
134272,note_off,,,,,256,0,10,,,,,2,,,80,100
134272,note_off,,,,,256,0,12,,,,,4,,,64,100
134272,note_off,,,,,256,0,15,,,,,7,,,71,100
134272,note_off,,,,,0,0,15,,,,,7,,,64,100
134272,note_off,,,,,0,0,15,,,,,7,,,68,100
134272,note_off,,,,,256,0,13,,,,,5,,,52,100
134284,set_tempo,,,,,20,1,0,,697674,,,,,,,
134304,set_tempo,,,,,20,1,0,,705882,,,,,,,
134320,set_tempo,,,,,16,1,0,,714285,,,,,,,
134340,set_tempo,,,,,20,1,0,,722891,,,,,,,
134360,set_tempo,,,,,20,1,0,,731707,,,,,,,
134380,set_tempo,,,,,20,1,0,,740740,,,,,,,
134400,note_on,,,,,128,0,13,,,,,5,,,40,115
134400,note_on,,,,,128,0,11,,,,,3,,,71,115
134400,note_on,,,,,128,0,14,,,,,6,,,40,115
134400,note_on,,,,,128,0,12,,,,,4,,,64,115
134400,note_on,,,,,0,0,15,,,,,7,,,64,100
134400,set_tempo,,,,,20,1,0,,750000,,,,,,,
134400,note_on,,,,,128,0,16,,,,,7,,,40,100
134400,note_on,,,,,128,0,15,,,,,7,,,59,100
134400,note_on,,,,,128,0,10,,,,,2,,,80,115
134400,note_on,,,,,0,0,15,,,,,7,,,68,100
134412,set_tempo,,,,,12,1,0,,759493,,,,,,,
134424,set_tempo,,,,,12,1,0,,769230,,,,,,,
134436,set_tempo,,,,,12,1,0,,779220,,,,,,,
134448,set_tempo,,,,,12,1,0,,789473,,,,,,,
134464,set_tempo,,,,,16,1,0,,800000,,,,,,,
134476,set_tempo,,,,,12,1,0,,810810,,,,,,,
134488,set_tempo,,,,,12,1,0,,821917,,,,,,,
134500,set_tempo,,,,,12,1,0,,833333,,,,,,,
134512,set_tempo,,,,,12,1,0,,845070,,,,,,,
134528,set_tempo,,,,,16,1,0,,857142,,,,,,,
134540,set_tempo,,,,,12,1,0,,869565,,,,,,,
134552,set_tempo,,,,,12,1,0,,882352,,,,,,,
134564,set_tempo,,,,,12,1,0,,895522,,,,,,,
134576,set_tempo,,,,,12,1,0,,909090,,,,,,,
134592,set_tempo,,,,,16,1,0,,923076,,,,,,,
134604,set_tempo,,,,,12,1,0,,937500,,,,,,,
134616,set_tempo,,,,,12,1,0,,952380,,,,,,,
134628,set_tempo,,,,,12,1,0,,967741,,,,,,,
134640,set_tempo,,,,,12,1,0,,983606,,,,,,,
134656,note_off,,,,,256,0,16,,,,,7,,,40,100
134656,note_off,,,,,256,0,13,,,,,5,,,40,100
134656,note_off,,,,,256,0,11,,,,,3,,,71,100
134656,note_off,,,,,256,0,14,,,,,6,,,40,100
134656,set_tempo,,,,,16,1,0,,1000000,,,,,,,
134656,note_off,,,,,256,0,15,,,,,7,,,59,100
134656,note_off,,,,,0,0,15,,,,,7,,,64,100
134656,note_off,,,,,0,0,15,,,,,7,,,68,100
134656,note_off,,,,,256,0,12,,,,,4,,,64,100
134656,note_off,,,,,256,0,10,,,,,2,,,80,100
134668,set_tempo,,,,,12,1,0,,1016949,,,,,,,
134680,set_tempo,,,,,12,1,0,,1034482,,,,,,,
134692,set_tempo,,,,,12,1,0,,1052631,,,,,,,
134704,set_tempo,,,,,12,1,0,,1071428,,,,,,,
134720,set_tempo,,,,,16,1,0,,1090909,,,,,,,
134732,set_tempo,,,,,12,1,0,,1111111,,,,,,,
134744,set_tempo,,,,,12,1,0,,1132075,,,,,,,
134756,set_tempo,,,,,12,1,0,,1153846,,,,,,,
134768,set_tempo,,,,,12,1,0,,1176470,,,,,,,
134784,note_on,,,,,128,0,13,,,,,5,,,45,115
134784,note_on,,,,,128,0,14,,,,,6,,,33,115
134784,note_on,,,,,128,0,11,,,,,3,,,73,115
134784,set_tempo,,,,,16,1,0,,1200000,,,,,,,
134784,note_on,,,,,128,0,10,,,,,2,,,81,115
134784,note_on,,,,,128,0,16,,,,,7,,,45,100
134784,end_of_track,,,,,0,1,0,,,,,,,,,
134784,note_on,,,,,128,0,12,,,,,4,,,61,115
134820,note_on,,,,,164,0,15,,,,,7,,,57,100
134860,note_on,,,,,40,0,15,,,,,7,,,61,100
134900,note_on,,,,,40,0,15,,,,,7,,,64,100
134940,note_on,,,,,40,0,15,,,,,7,,,69,100
135552,note_off,,,,,768,0,10,,,,,2,,,81,100
135552,note_off,,,,,768,0,11,,,,,3,,,73,100
135552,end_of_track,,,,,0,1,11,,,,,,,,,
135552,end_of_track,,,,,0,1,14,,,,,,,,,
135552,end_of_track,,,,,0,1,12,,,,,,,,,
135552,note_off,,,,,768,0,16,,,,,7,,,45,100
135552,note_off,,,,,768,0,13,,,,,5,,,45,100
135552,end_of_track,,,,,0,1,13,,,,,,,,,
135552,note_off,,,,,768,0,14,,,,,6,,,33,100
135552,note_off,,,,,768,0,12,,,,,4,,,61,100
135552,end_of_track,,,,,0,1,16,,,,,,,,,
135588,note_off,,,,,648,0,15,,,,,7,,,57,100
135628,note_off,,,,,40,0,15,,,,,7,,,61,100
135668,note_off,,,,,40,0,15,,,,,7,,,64,100
135708,note_off,,,,,40,0,15,,,,,7,,,69,100
135708,end_of_track,,,,,0,1,15,,,,,,,,,
137088,end_of_track,,,,,0,1,10,,,,,,,,,
137088,program_change,,,,,1536,0,10,,,,,2,48,,,
