tick,type,numerator,denominator,clocks_per_click,notated_32nd_notes_per_beat,time,meta,track,data,tempo,control,value,channel,program,key,note,velocity
0,time_signature,4,4,96,8,0,1,0,,,,,,,,,
0,control_change,,,,,0,0,16,,,7,45,7,,,,
0,program_change,,,,,0,0,16,,,,,7,16,,,
0,control_change,,,,,0,0,16,,,0,0,7,,,,
0,track_name,,,,,0,1,16,,,,,,,,,
0,key_signature,,,,,0,1,15,,,,,,,Bb,,
0,control_change,,,,,0,0,15,,,91,105,7,,,,
0,control_change,,,,,0,0,15,,,7,45,7,,,,
0,control_change,,,,,0,0,16,,,91,105,7,,,,
0,program_change,,,,,0,0,15,,,,,7,16,,,
0,track_name,,,,,0,1,15,,,,,,,,,
0,track_name,,,,,0,1,8,,,,,,,,,
0,control_change,,,,,0,0,8,,,0,0,1,,,,
0,program_change,,,,,0,0,8,,,,,1,48,,,
0,control_change,,,,,0,0,8,,,7,100,1,,,,
0,control_change,,,,,0,0,8,,,10,49,1,,,,
0,control_change,,,,,0,0,8,,,91,107,1,,,,
0,control_change,,,,,0,0,15,,,0,0,7,,,,
0,key_signature,,,,,0,1,8,,,,,,,Bb,,
0,key_signature,,,,,0,1,16,,,,,,,Bb,,
0,control_change,,,,,0,0,7,,,91,107,0,,,,
0,program_change,,,,,0,0,5,,,,,0,40,,,
0,control_change,,,,,0,0,5,,,7,100,0,,,,
0,control_change,,,,,0,0,5,,,91,107,0,,,,
0,key_signature,,,,,0,1,5,,,,,,,Bb,,
0,end_of_track,,,,,0,1,5,,,,,,,,,
0,track_name,,,,,0,1,6,,,,,,,,,
0,control_change,,,,,0,0,6,,,0,0,0,,,,
0,key_signature,,,,,0,1,7,,,,,,,Bb,,
0,program_change,,,,,0,0,6,,,,,0,40,,,
0,control_change,,,,,0,0,6,,,91,107,0,,,,
0,key_signature,,,,,0,1,6,,,,,,,Bb,,
0,end_of_track,,,,,0,1,6,,,,,,,,,
0,track_name,,,,,0,1,7,,,,,,,,,
0,control_change,,,,,0,0,7,,,0,0,0,,,,
0,program_change,,,,,0,0,7,,,,,0,40,,,
0,control_change,,,,,0,0,7,,,7,100,0,,,,
0,control_change,,,,,0,0,6,,,7,100,0,,,,
0,key_signature,,,,,0,1,14,,,,,,,Bb,,
0,control_change,,,,,0,0,14,,,91,107,6,,,,
0,control_change,,,,,0,0,14,,,10,77,6,,,,
0,control_change,,,,,0,0,12,,,10,90,5,,,,
0,control_change,,,,,0,0,12,,,7,72,5,,,,
0,program_change,,,,,0,0,12,,,,,5,48,,,
0,control_change,,,,,0,0,12,,,0,0,5,,,,
0,track_name,,,,,0,1,12,,,,,,,,,
0,track_name,,,,,0,1,10,,,,,,,,,
0,control_change,,,,,0,0,10,,,0,0,3,,,,
0,control_change,,,,,0,0,12,,,91,108,5,,,,
0,program_change,,,,,0,0,10,,,,,3,48,,,
0,control_change,,,,,0,0,10,,,91,108,3,,,,
0,key_signature,,,,,0,1,10,,,,,,,Bb,,
0,key_signature,,,,,0,1,11,,,,,,,Bb,,
0,control_change,,,,,0,0,11,,,91,107,4,,,,
0,control_change,,,,,0,0,11,,,10,79,4,,,,
0,control_change,,,,,0,0,11,,,7,82,4,,,,
0,program_change,,,,,0,0,11,,,,,4,48,,,
0,control_change,,,,,0,0,10,,,7,92,3,,,,
0,key_signature,,,,,0,1,12,,,,,,,Bb,,
0,track_name,,,,,0,1,13,,,,,,,,,
0,control_change,,,,,0,0,13,,,0,0,6,,,,
0,control_change,,,,,0,0,14,,,7,45,6,,,,
0,program_change,,,,,0,0,14,,,,,6,6,,,
0,control_change,,,,,0,0,14,,,0,0,6,,,,
0,track_name,,,,,0,1,14,,,,,,,,,
0,control_change,,,,,0,0,11,,,0,0,4,,,,
0,track_name,,,,,0,1,9,,,,,,,,,
0,control_change,,,,,0,0,9,,,0,0,2,,,,
0,program_change,,,,,0,0,9,,,,,2,48,,,
0,control_change,,,,,0,0,9,,,7,96,2,,,,
0,control_change,,,,,0,0,9,,,10,36,2,,,,
0,control_change,,,,,0,0,9,,,91,108,2,,,,
0,key_signature,,,,,0,1,9,,,,,,,Bb,,
0,key_signature,,,,,0,1,13,,,,,,,Bb,,
0,control_change,,,,,0,0,13,,,91,107,6,,,,
0,control_change,,,,,0,0,13,,,10,77,6,,,,
0,control_change,,,,,0,0,13,,,7,45,6,,,,
0,program_change,,,,,0,0,13,,,,,6,6,,,
0,control_change,,,,,0,0,5,,,0,0,0,,,,
0,track_name,,,,,0,1,5,,,,,,,,,
0,track_name,,,,,0,1,11,,,,,,,,,
0,key_signature,,,,,0,1,4,,,,,,,Bb,,
0,set_tempo,,,,,0,1,0,,555555,,,,,,,
0,sequencer_specific,,,,,0,1,0,"(0, 0, 119, 14, 1)",,,,,,,,
0,sequencer_specific,,,,,0,1,0,"(0, 0, 65)",,,,,,,,
0,track_name,,,,,0,1,1,,,,,,,,,
0,end_of_track,,,,,0,1,1,,,,,,,,,
0,track_name,,,,,0,1,2,,,,,,,,,
0,end_of_track,,,,,0,1,2,,,,,,,,,
0,track_name,,,,,0,1,3,,,,,,,,,
0,control_change,,,,,0,0,3,,,0,0,0,,,,
0,end_of_track,,,,,0,1,4,,,,,,,,,
0,control_change,,,,,0,0,3,,,91,107,0,,,,
0,control_change,,,,,0,0,3,,,7,100,0,,,,
0,control_change,,,,,0,0,4,,,91,107,0,,,,
0,control_change,,,,,0,0,4,,,7,100,0,,,,
0,control_change,,,,,0,0,4,,,0,0,0,,,,
0,program_change,,,,,0,0,4,,,,,0,40,,,
0,end_of_track,,,,,0,1,3,,,,,,,,,
0,key_signature,,,,,0,1,3,,,,,,,Bb,,
0,program_change,,,,,0,0,3,,,,,0,40,,,
0,track_name,,,,,0,1,4,,,,,,,,,
1344,note_on,,,,,0,0,13,,,,,6,,,65,100
1344,note_on,,,,,1344,0,10,,,,,3,,,62,100
1344,note_on,,,,,1344,0,12,,,,,5,,,34,100
1344,note_on,,,,,1344,0,16,,,,,7,,,46,100
1344,note_on,,,,,1344,0,11,,,,,4,,,46,100
1344,note_on,,,,,1344,0,14,,,,,6,,,46,100
1344,note_on,,,,,1344,0,13,,,,,6,,,62,100
1344,note_on,,,,,1344,0,8,,,,,1,,,65,100
1444,note_off,,,,,100,0,10,,,,,3,,,62,100
1444,note_off,,,,,100,0,11,,,,,4,,,46,100
1444,note_off,,,,,100,0,14,,,,,6,,,46,100
1444,note_off,,,,,100,0,8,,,,,1,,,65,100
1444,note_off,,,,,100,0,12,,,,,5,,,34,100
1472,note_off,,,,,128,0,13,,,,,6,,,62,100
1472,note_off,,,,,128,0,16,,,,,7,,,46,100
1472,note_off,,,,,0,0,13,,,,,6,,,65,100
1536,note_on,,,,,92,0,14,,,,,6,,,46,100
1536,note_on,,,,,92,0,8,,,,,1,,,70,100
1536,note_on,,,,,64,0,16,,,,,7,,,46,100
1536,note_on,,,,,92,0,10,,,,,3,,,62,100
1536,note_on,,,,,64,0,13,,,,,6,,,62,100
1536,note_on,,,,,0,0,13,,,,,6,,,65,100
1536,note_on,,,,,1536,0,15,,,,,7,,,62,100
1536,note_on,,,,,92,0,12,,,,,5,,,34,100
1536,note_on,,,,,0,0,15,,,,,7,,,65,100
1536,set_tempo,,,,,1536,1,0,,555555,,,,,,,
1536,note_on,,,,,92,0,11,,,,,4,,,46,100
1536,note_on,,,,,0,0,15,,,,,7,,,70,100
1636,note_off,,,,,100,0,8,,,,,1,,,70,100
1636,note_off,,,,,100,0,12,,,,,5,,,34,100
1636,note_off,,,,,100,0,14,,,,,6,,,46,100
1636,note_off,,,,,100,0,10,,,,,3,,,62,100
1636,note_off,,,,,100,0,11,,,,,4,,,46,100
1664,note_off,,,,,128,0,16,,,,,7,,,46,100
1728,note_on,,,,,92,0,10,,,,,3,,,58,100
1728,note_on,,,,,92,0,8,,,,,1,,,70,100
1728,note_on,,,,,92,0,14,,,,,6,,,58,100
1728,note_on,,,,,192,0,13,,,,,6,,,70,100
1728,note_on,,,,,64,0,16,,,,,7,,,58,100
1728,note_on,,,,,92,0,12,,,,,5,,,46,100
1728,note_on,,,,,92,0,11,,,,,4,,,58,100
1792,note_off,,,,,0,0,13,,,,,6,,,65,100
1792,note_off,,,,,64,0,13,,,,,6,,,62,100
1792,note_off,,,,,0,0,13,,,,,6,,,70,100
1824,note_on,,,,,32,0,13,,,,,6,,,69,100
1828,note_off,,,,,100,0,14,,,,,6,,,58,100
1828,note_off,,,,,100,0,10,,,,,3,,,58,100
1828,note_off,,,,,100,0,8,,,,,1,,,70,100
1828,note_off,,,,,100,0,11,,,,,4,,,58,100
1828,note_off,,,,,100,0,12,,,,,5,,,46,100
1856,note_off,,,,,128,0,16,,,,,7,,,58,100
1888,note_off,,,,,64,0,13,,,,,6,,,69,100
1920,note_on,,,,,92,0,12,,,,,5,,,46,100
1920,note_on,,,,,92,0,14,,,,,6,,,58,100
1920,note_on,,,,,92,0,8,,,,,1,,,70,100
1920,note_on,,,,,92,0,10,,,,,3,,,62,100
1920,note_on,,,,,92,0,11,,,,,4,,,58,100
1920,note_on,,,,,64,0,16,,,,,7,,,58,100
1920,note_on,,,,,32,0,13,,,,,6,,,70,100
1984,note_off,,,,,64,0,13,,,,,6,,,70,100
2016,note_on,,,,,32,0,13,,,,,6,,,65,100
2020,note_off,,,,,100,0,12,,,,,5,,,46,100
2020,note_off,,,,,100,0,11,,,,,4,,,58,100
2020,note_off,,,,,100,0,10,,,,,3,,,62,100
2020,note_off,,,,,100,0,8,,,,,1,,,70,100
2020,note_off,,,,,100,0,14,,,,,6,,,58,100
2048,note_off,,,,,128,0,16,,,,,7,,,58,100
2080,note_off,,,,,64,0,13,,,,,6,,,65,100
2112,note_on,,,,,32,0,13,,,,,6,,,62,100
2112,note_on,,,,,92,0,14,,,,,6,,,46,100
2112,note_on,,,,,92,0,12,,,,,5,,,34,100
2112,note_on,,,,,64,0,16,,,,,7,,,46,100
2112,note_on,,,,,2112,0,9,,,,,2,,,65,100
2112,note_on,,,,,92,0,10,,,,,3,,,65,100
2112,note_on,,,,,92,0,11,,,,,4,,,46,100
2112,note_on,,,,,92,0,8,,,,,1,,,70,100
2176,note_off,,,,,64,0,13,,,,,6,,,62,100
2208,note_on,,,,,32,0,13,,,,,6,,,65,100
2212,note_off,,,,,100,0,11,,,,,4,,,46,100
2212,note_off,,,,,100,0,14,,,,,6,,,46,100
2212,note_off,,,,,100,0,12,,,,,5,,,34,100
2212,note_off,,,,,100,0,8,,,,,1,,,70,100
2212,note_off,,,,,100,0,10,,,,,3,,,65,100
2212,note_off,,,,,100,0,9,,,,,2,,,65,100
2224,note_off,,,,,0,0,15,,,,,7,,,70,100
2224,note_off,,,,,688,0,15,,,,,7,,,62,100
2224,note_off,,,,,0,0,15,,,,,7,,,65,100
2240,note_off,,,,,128,0,16,,,,,7,,,46,100
2272,note_off,,,,,64,0,13,,,,,6,,,65,100
2304,note_on,,,,,80,0,15,,,,,7,,,62,100
2304,note_on,,,,,0,0,15,,,,,7,,,65,100
2304,note_on,,,,,64,0,16,,,,,7,,,46,100
2304,note_on,,,,,92,0,10,,,,,3,,,62,100
2304,note_on,,,,,92,0,8,,,,,1,,,70,100
2304,note_on,,,,,92,0,14,,,,,6,,,46,100
2304,note_on,,,,,0,0,15,,,,,7,,,70,100
2304,note_on,,,,,32,0,13,,,,,6,,,58,100
2304,note_on,,,,,92,0,11,,,,,4,,,46,100
2304,note_on,,,,,92,0,12,,,,,5,,,34,100
2304,note_on,,,,,92,0,9,,,,,2,,,70,100
2368,note_off,,,,,64,0,13,,,,,6,,,58,100
2368,note_off,,,,,64,0,8,,,,,1,,,70,100
2400,note_on,,,,,32,0,8,,,,,1,,,65,100
2400,note_on,,,,,32,0,13,,,,,6,,,65,100
2404,note_off,,,,,100,0,14,,,,,6,,,46,100
2404,note_off,,,,,100,0,12,,,,,5,,,34,100
2404,note_off,,,,,100,0,9,,,,,2,,,70,100
2404,note_off,,,,,100,0,11,,,,,4,,,46,100
2404,note_off,,,,,100,0,10,,,,,3,,,62,100
2432,note_off,,,,,128,0,16,,,,,7,,,46,100
2464,note_off,,,,,64,0,13,,,,,6,,,65,100
2464,note_off,,,,,64,0,8,,,,,1,,,65,100
2496,note_on,,,,,92,0,11,,,,,4,,,58,100
2496,note_on,,,,,64,0,16,,,,,7,,,58,100
2496,note_on,,,,,32,0,8,,,,,1,,,62,100
2496,note_on,,,,,92,0,12,,,,,5,,,46,100
2496,note_on,,,,,92,0,14,,,,,6,,,58,100
2496,note_on,,,,,32,0,13,,,,,6,,,62,100
2496,note_on,,,,,92,0,10,,,,,3,,,58,100
2496,note_on,,,,,92,0,9,,,,,2,,,70,100
2560,note_off,,,,,64,0,13,,,,,6,,,62,100
2560,note_off,,,,,64,0,8,,,,,1,,,62,100
2592,note_on,,,,,32,0,8,,,,,1,,,65,100
2592,note_on,,,,,32,0,13,,,,,6,,,65,100
2596,note_off,,,,,100,0,11,,,,,4,,,58,100
2596,note_off,,,,,100,0,10,,,,,3,,,58,100
2596,note_off,,,,,100,0,9,,,,,2,,,70,100
2596,note_off,,,,,100,0,12,,,,,5,,,46,100
2596,note_off,,,,,100,0,14,,,,,6,,,58,100
2624,note_off,,,,,128,0,16,,,,,7,,,58,100
2656,note_off,,,,,64,0,8,,,,,1,,,65,100
2656,note_off,,,,,64,0,13,,,,,6,,,65,100
2688,note_on,,,,,32,0,8,,,,,1,,,70,100
2688,note_on,,,,,64,0,16,,,,,7,,,58,100
2688,note_on,,,,,32,0,13,,,,,6,,,70,100
2688,note_on,,,,,92,0,12,,,,,5,,,46,100
2688,note_on,,,,,92,0,10,,,,,3,,,62,100
2688,note_on,,,,,92,0,14,,,,,6,,,58,100
2688,note_on,,,,,92,0,9,,,,,2,,,70,100
2688,note_on,,,,,92,0,11,,,,,4,,,58,100
2752,note_off,,,,,64,0,13,,,,,6,,,70,100
2752,note_off,,,,,64,0,8,,,,,1,,,70,100
2784,note_on,,,,,32,0,13,,,,,6,,,65,100
2784,note_on,,,,,32,0,8,,,,,1,,,65,100
2788,note_off,,,,,100,0,11,,,,,4,,,58,100
2788,note_off,,,,,100,0,9,,,,,2,,,70,100
2788,note_off,,,,,100,0,14,,,,,6,,,58,100
2788,note_off,,,,,100,0,10,,,,,3,,,62,100
2788,note_off,,,,,100,0,12,,,,,5,,,46,100
2816,note_off,,,,,128,0,16,,,,,7,,,58,100
2848,note_off,,,,,64,0,8,,,,,1,,,65,100
2848,note_off,,,,,64,0,13,,,,,6,,,65,100
2880,note_on,,,,,92,0,10,,,,,3,,,65,100
2880,note_on,,,,,92,0,14,,,,,6,,,46,100
2880,note_on,,,,,32,0,13,,,,,6,,,62,100
2880,note_on,,,,,64,0,16,,,,,7,,,46,100
2880,note_on,,,,,32,0,8,,,,,1,,,62,100
2880,note_on,,,,,92,0,12,,,,,5,,,34,100
2880,note_on,,,,,92,0,9,,,,,2,,,70,100
2880,note_on,,,,,92,0,11,,,,,4,,,46,100
2944,note_off,,,,,64,0,13,,,,,6,,,62,100
2944,note_off,,,,,64,0,8,,,,,1,,,62,100
2976,note_on,,,,,32,0,8,,,,,1,,,65,100
2976,note_on,,,,,32,0,13,,,,,6,,,65,100
2980,note_off,,,,,100,0,9,,,,,2,,,70,100
2980,note_off,,,,,100,0,12,,,,,5,,,34,100
2980,note_off,,,,,100,0,14,,,,,6,,,46,100
2980,note_off,,,,,100,0,11,,,,,4,,,46,100
2980,note_off,,,,,100,0,10,,,,,3,,,65,100
2992,note_off,,,,,0,0,15,,,,,7,,,70,100
2992,note_off,,,,,0,0,15,,,,,7,,,65,100
2992,note_off,,,,,688,0,15,,,,,7,,,62,100
3008,note_off,,,,,128,0,16,,,,,7,,,46,100
3040,note_off,,,,,64,0,13,,,,,6,,,65,100
3040,note_off,,,,,64,0,8,,,,,1,,,65,100
3072,note_on,,,,,32,0,8,,,,,1,,,70,100
3072,note_on,,,,,92,0,10,,,,,3,,,62,100
3072,note_on,,,,,92,0,12,,,,,5,,,34,100
3072,note_on,,,,,92,0,11,,,,,4,,,46,100
3072,note_on,,,,,92,0,9,,,,,2,,,70,100
3072,note_on,,,,,64,0,16,,,,,7,,,46,100
3072,note_on,,,,,92,0,14,,,,,6,,,46,100
3072,note_on,,,,,80,0,15,,,,,7,,,62,100
3072,note_on,,,,,0,0,15,,,,,7,,,65,100
3072,note_on,,,,,0,0,15,,,,,7,,,70,100
3072,note_on,,,,,32,0,13,,,,,6,,,58,100
3136,note_off,,,,,64,0,9,,,,,2,,,70,100
3136,note_off,,,,,64,0,13,,,,,6,,,58,100
3168,note_on,,,,,32,0,9,,,,,2,,,65,100
3168,note_on,,,,,32,0,13,,,,,6,,,65,100
3172,note_off,,,,,100,0,12,,,,,5,,,34,100
3172,note_off,,,,,100,0,14,,,,,6,,,46,100
3172,note_off,,,,,100,0,11,,,,,4,,,46,100
3172,note_off,,,,,100,0,8,,,,,1,,,70,100
3172,note_off,,,,,100,0,10,,,,,3,,,62,100
3200,note_off,,,,,128,0,16,,,,,7,,,46,100
3232,note_off,,,,,64,0,13,,,,,6,,,65,100
3232,note_off,,,,,64,0,9,,,,,2,,,65,100
3264,note_on,,,,,64,0,16,,,,,7,,,58,100
3264,note_on,,,,,92,0,10,,,,,3,,,58,100
3264,note_on,,,,,32,0,13,,,,,6,,,62,100
3264,note_on,,,,,92,0,8,,,,,1,,,70,100
3264,note_on,,,,,92,0,14,,,,,6,,,58,100
3264,note_on,,,,,92,0,11,,,,,4,,,58,100
3264,note_on,,,,,92,0,12,,,,,5,,,46,100
3264,note_on,,,,,32,0,9,,,,,2,,,62,100
3328,note_off,,,,,64,0,13,,,,,6,,,62,100
3328,note_off,,,,,64,0,9,,,,,2,,,62,100
3360,note_on,,,,,32,0,13,,,,,6,,,65,100
3360,note_on,,,,,32,0,9,,,,,2,,,65,100
3364,note_off,,,,,100,0,11,,,,,4,,,58,100
3364,note_off,,,,,100,0,14,,,,,6,,,58,100
3364,note_off,,,,,100,0,12,,,,,5,,,46,100
3364,note_off,,,,,100,0,10,,,,,3,,,58,100
3364,note_off,,,,,100,0,8,,,,,1,,,70,100
3392,note_off,,,,,128,0,16,,,,,7,,,58,100
3424,note_off,,,,,64,0,9,,,,,2,,,65,100
3424,note_off,,,,,64,0,13,,,,,6,,,65,100
3456,note_on,,,,,32,0,9,,,,,2,,,70,100
3456,note_on,,,,,92,0,12,,,,,5,,,46,100
3456,note_on,,,,,92,0,11,,,,,4,,,58,100
3456,note_on,,,,,92,0,14,,,,,6,,,58,100
3456,note_on,,,,,92,0,8,,,,,1,,,70,100
3456,note_on,,,,,32,0,13,,,,,6,,,70,100
3456,note_on,,,,,92,0,10,,,,,3,,,62,100
3456,note_on,,,,,64,0,16,,,,,7,,,58,100
3520,note_off,,,,,64,0,13,,,,,6,,,70,100
3520,note_off,,,,,64,0,9,,,,,2,,,70,100
3552,note_on,,,,,32,0,9,,,,,2,,,65,100
3552,note_on,,,,,32,0,13,,,,,6,,,65,100
3556,note_off,,,,,100,0,14,,,,,6,,,58,100
3556,note_off,,,,,100,0,12,,,,,5,,,46,100
3556,note_off,,,,,100,0,11,,,,,4,,,58,100
3556,note_off,,,,,100,0,10,,,,,3,,,62,100
3556,note_off,,,,,100,0,8,,,,,1,,,70,100
3584,note_off,,,,,128,0,16,,,,,7,,,58,100
3616,note_off,,,,,64,0,9,,,,,2,,,65,100
3616,note_off,,,,,64,0,13,,,,,6,,,65,100
3648,note_on,,,,,64,0,16,,,,,7,,,46,100
3648,note_on,,,,,32,0,13,,,,,6,,,62,100
3648,note_on,,,,,92,0,10,,,,,3,,,65,100
3648,note_on,,,,,92,0,12,,,,,5,,,34,100
3648,note_on,,,,,92,0,14,,,,,6,,,46,100
3648,note_on,,,,,92,0,8,,,,,1,,,70,100
3648,note_on,,,,,92,0,11,,,,,4,,,46,100
3648,note_on,,,,,32,0,9,,,,,2,,,62,100
3712,note_off,,,,,64,0,9,,,,,2,,,62,100
3712,note_off,,,,,64,0,13,,,,,6,,,62,100
3744,note_on,,,,,32,0,9,,,,,2,,,65,100
3744,note_on,,,,,32,0,13,,,,,6,,,65,100
3748,note_off,,,,,100,0,14,,,,,6,,,46,100
3748,note_off,,,,,100,0,12,,,,,5,,,34,100
3748,note_off,,,,,100,0,10,,,,,3,,,65,100
3748,note_off,,,,,100,0,11,,,,,4,,,46,100
3748,note_off,,,,,100,0,8,,,,,1,,,70,100
3760,note_off,,,,,0,0,15,,,,,7,,,65,100
3760,note_off,,,,,0,0,15,,,,,7,,,70,100
3760,note_off,,,,,688,0,15,,,,,7,,,62,100
3776,note_off,,,,,128,0,16,,,,,7,,,46,100
3808,note_off,,,,,64,0,13,,,,,6,,,65,100
3808,note_off,,,,,64,0,9,,,,,2,,,65,100
3840,note_on,,,,,0,0,15,,,,,7,,,65,100
3840,note_on,,,,,32,0,13,,,,,6,,,58,100
3840,note_on,,,,,92,0,11,,,,,4,,,46,100
3840,note_on,,,,,92,0,12,,,,,5,,,34,100
3840,note_on,,,,,32,0,9,,,,,2,,,70,100
3840,note_on,,,,,64,0,16,,,,,7,,,46,100
3840,note_on,,,,,92,0,8,,,,,1,,,70,100
3840,note_on,,,,,92,0,14,,,,,6,,,46,100
3840,note_on,,,,,80,0,15,,,,,7,,,62,100
3840,note_on,,,,,92,0,10,,,,,3,,,62,100
3840,note_on,,,,,0,0,15,,,,,7,,,70,100
3904,note_off,,,,,64,0,8,,,,,1,,,70,100
3904,note_off,,,,,64,0,13,,,,,6,,,58,100
3936,note_on,,,,,32,0,8,,,,,1,,,65,100
3936,note_on,,,,,32,0,13,,,,,6,,,65,100
3940,note_off,,,,,100,0,12,,,,,5,,,34,100
3940,note_off,,,,,100,0,10,,,,,3,,,62,100
3940,note_off,,,,,100,0,11,,,,,4,,,46,100
3940,note_off,,,,,100,0,14,,,,,6,,,46,100
3940,note_off,,,,,100,0,9,,,,,2,,,70,100
3968,note_off,,,,,128,0,16,,,,,7,,,46,100
4000,note_off,,,,,64,0,8,,,,,1,,,65,100
4000,note_off,,,,,64,0,13,,,,,6,,,65,100
4032,note_on,,,,,92,0,9,,,,,2,,,70,100
4032,note_on,,,,,92,0,10,,,,,3,,,58,100
4032,note_on,,,,,92,0,14,,,,,6,,,58,100
4032,note_on,,,,,92,0,11,,,,,4,,,58,100
4032,note_on,,,,,64,0,16,,,,,7,,,58,100
4032,note_on,,,,,32,0,13,,,,,6,,,62,100
4032,note_on,,,,,32,0,8,,,,,1,,,62,100
4032,note_on,,,,,92,0,12,,,,,5,,,46,100
4096,note_off,,,,,64,0,8,,,,,1,,,62,100
4096,note_off,,,,,64,0,13,,,,,6,,,62,100
4128,note_on,,,,,32,0,8,,,,,1,,,65,100
4128,note_on,,,,,32,0,13,,,,,6,,,65,100
4132,note_off,,,,,100,0,9,,,,,2,,,70,100
4132,note_off,,,,,100,0,12,,,,,5,,,46,100
4132,note_off,,,,,100,0,11,,,,,4,,,58,100
4132,note_off,,,,,100,0,10,,,,,3,,,58,100
4132,note_off,,,,,100,0,14,,,,,6,,,58,100
4160,note_off,,,,,128,0,16,,,,,7,,,58,100
4192,note_off,,,,,64,0,13,,,,,6,,,65,100
4192,note_off,,,,,64,0,8,,,,,1,,,65,100
4224,note_on,,,,,92,0,10,,,,,3,,,62,100
4224,note_on,,,,,92,0,14,,,,,6,,,58,100
4224,note_on,,,,,64,0,16,,,,,7,,,58,100
4224,note_on,,,,,92,0,12,,,,,5,,,46,100
4224,note_on,,,,,32,0,8,,,,,1,,,70,100
4224,note_on,,,,,92,0,9,,,,,2,,,70,100
4224,note_on,,,,,32,0,13,,,,,6,,,70,100
4224,note_on,,,,,92,0,11,,,,,4,,,58,100
4288,note_off,,,,,64,0,8,,,,,1,,,70,100
4288,note_off,,,,,64,0,13,,,,,6,,,70,100
4320,note_on,,,,,32,0,13,,,,,6,,,65,100
4320,note_on,,,,,32,0,8,,,,,1,,,65,100
4324,note_off,,,,,100,0,10,,,,,3,,,62,100
4324,note_off,,,,,100,0,14,,,,,6,,,58,100
4324,note_off,,,,,100,0,11,,,,,4,,,58,100
4324,note_off,,,,,100,0,9,,,,,2,,,70,100
4324,note_off,,,,,100,0,12,,,,,5,,,46,100
4352,note_off,,,,,128,0,16,,,,,7,,,58,100
4384,note_off,,,,,64,0,13,,,,,6,,,65,100
4384,note_off,,,,,64,0,8,,,,,1,,,65,100
4416,note_on,,,,,92,0,14,,,,,6,,,46,100
4416,note_on,,,,,92,0,12,,,,,5,,,34,100
4416,note_on,,,,,92,0,11,,,,,4,,,46,100
4416,note_on,,,,,64,0,16,,,,,7,,,46,100
4416,note_on,,,,,32,0,8,,,,,1,,,62,100
4416,note_on,,,,,92,0,10,,,,,3,,,65,100
4416,note_on,,,,,32,0,13,,,,,6,,,62,100
4416,note_on,,,,,92,0,9,,,,,2,,,70,100
4480,note_off,,,,,64,0,8,,,,,1,,,62,100
4480,note_off,,,,,64,0,13,,,,,6,,,62,100
4512,note_on,,,,,32,0,8,,,,,1,,,65,100
4512,note_on,,,,,32,0,13,,,,,6,,,65,100
4516,note_off,,,,,100,0,9,,,,,2,,,70,100
4516,note_off,,,,,100,0,12,,,,,5,,,34,100
4516,note_off,,,,,100,0,11,,,,,4,,,46,100
4516,note_off,,,,,100,0,10,,,,,3,,,65,100
4516,note_off,,,,,100,0,14,,,,,6,,,46,100
4528,note_off,,,,,688,0,15,,,,,7,,,62,100
4528,note_off,,,,,0,0,15,,,,,7,,,65,100
4528,note_off,,,,,0,0,15,,,,,7,,,70,100
4544,note_off,,,,,128,0,16,,,,,7,,,46,100
4576,note_off,,,,,64,0,13,,,,,6,,,65,100
4576,note_off,,,,,64,0,8,,,,,1,,,65,100
4608,note_on,,,,,64,0,16,,,,,7,,,46,100
4608,note_on,,,,,92,0,9,,,,,2,,,74,105
4608,note_on,,,,,92,0,12,,,,,5,,,34,105
4608,note_on,,,,,92,0,10,,,,,3,,,65,105
4608,note_on,,,,,92,0,11,,,,,4,,,46,105
4608,note_on,,,,,80,0,15,,,,,7,,,62,100
4608,note_on,,,,,0,0,15,,,,,7,,,65,100
4608,note_on,,,,,32,0,8,,,,,1,,,70,105
4608,note_on,,,,,0,0,15,,,,,7,,,70,100
4608,note_on,,,,,0,0,13,,,,,6,,,65,100
4608,note_on,,,,,92,0,14,,,,,6,,,46,100
4608,note_on,,,,,32,0,13,,,,,6,,,70,100
4608,note_on,,,,,0,0,13,,,,,6,,,62,100
4708,note_off,,,,,100,0,14,,,,,6,,,46,100
4708,note_off,,,,,100,0,12,,,,,5,,,34,100
4708,note_off,,,,,100,0,11,,,,,4,,,46,100
4708,note_off,,,,,100,0,10,,,,,3,,,65,100
4736,note_off,,,,,128,0,8,,,,,1,,,70,100
4736,note_off,,,,,128,0,9,,,,,2,,,74,100
4736,note_off,,,,,128,0,13,,,,,6,,,70,100
4736,note_off,,,,,128,0,16,,,,,7,,,46,100
4800,note_on,,,,,92,0,11,,,,,4,,,58,104
4800,note_on,,,,,92,0,10,,,,,3,,,65,104
4800,note_on,,,,,64,0,13,,,,,6,,,74,100
4800,note_on,,,,,64,0,16,,,,,7,,,58,100
4800,note_on,,,,,92,0,12,,,,,5,,,46,104
4800,note_on,,,,,192,0,15,,,,,7,,,74,100
4800,note_on,,,,,64,0,9,,,,,2,,,75,104
4800,note_on,,,,,64,0,8,,,,,1,,,72,104
4800,note_on,,,,,92,0,14,,,,,6,,,58,100
4864,note_off,,,,,0,0,15,,,,,7,,,70,100
4864,note_off,,,,,64,0,8,,,,,1,,,72,100
4864,note_off,,,,,64,0,15,,,,,7,,,62,100
4864,note_off,,,,,0,0,13,,,,,6,,,65,100
4864,note_off,,,,,0,0,15,,,,,7,,,65,100
4864,note_off,,,,,64,0,9,,,,,2,,,75,100
4864,note_off,,,,,64,0,13,,,,,6,,,62,100
4896,note_on,,,,,32,0,9,,,,,2,,,77,103
4896,note_on,,,,,32,0,8,,,,,1,,,74,103
4900,note_off,,,,,100,0,10,,,,,3,,,65,100
4900,note_off,,,,,100,0,14,,,,,6,,,58,100
4900,note_off,,,,,100,0,11,,,,,4,,,58,100
4900,note_off,,,,,100,0,12,,,,,5,,,46,100
4928,note_off,,,,,128,0,16,,,,,7,,,58,100
4928,note_off,,,,,64,0,15,,,,,7,,,74,100
4928,note_off,,,,,64,0,13,,,,,6,,,74,100
4960,note_off,,,,,64,0,9,,,,,2,,,77,100
4960,note_off,,,,,64,0,8,,,,,1,,,74,100
4992,note_on,,,,,64,0,15,,,,,7,,,60,100
4992,note_on,,,,,64,0,16,,,,,7,,,51,100
4992,note_on,,,,,32,0,9,,,,,2,,,75,102
4992,note_on,,,,,92,0,14,,,,,6,,,51,100
4992,note_on,,,,,92,0,11,,,,,4,,,51,102
4992,note_on,,,,,32,0,8,,,,,1,,,72,102
4992,note_on,,,,,0,0,13,,,,,6,,,67,100
4992,note_on,,,,,0,0,13,,,,,6,,,60,100
4992,note_on,,,,,64,0,13,,,,,6,,,72,100
4992,note_on,,,,,92,0,10,,,,,3,,,67,102
4992,note_on,,,,,0,0,15,,,,,7,,,67,100
4992,note_on,,,,,0,0,15,,,,,7,,,72,100
4992,note_on,,,,,92,0,12,,,,,5,,,39,102
5092,note_off,,,,,100,0,10,,,,,3,,,67,100
5092,note_off,,,,,100,0,8,,,,,1,,,72,100
5092,note_off,,,,,100,0,9,,,,,2,,,75,100
5120,note_off,,,,,128,0,11,,,,,4,,,51,100
5120,note_off,,,,,128,0,15,,,,,7,,,72,100
5120,note_off,,,,,128,0,16,,,,,7,,,51,100
5120,note_off,,,,,128,0,14,,,,,6,,,51,100
5120,note_off,,,,,128,0,12,,,,,5,,,39,100
5120,note_off,,,,,128,0,13,,,,,6,,,72,100
5184,note_on,,,,,64,0,16,,,,,7,,,52,100
5184,note_on,,,,,92,0,8,,,,,1,,,70,101
5184,note_on,,,,,64,0,14,,,,,6,,,52,100
5184,note_on,,,,,64,0,12,,,,,5,,,40,101
5184,note_on,,,,,92,0,10,,,,,3,,,67,101
5184,note_on,,,,,64,0,11,,,,,4,,,52,101
5184,note_on,,,,,64,0,15,,,,,7,,,62,100
5184,note_on,,,,,64,0,13,,,,,6,,,70,100
5184,note_on,,,,,92,0,9,,,,,2,,,74,101
5184,note_on,,,,,0,0,15,,,,,7,,,70,100
5248,note_off,,,,,0,0,13,,,,,6,,,67,100
5248,note_off,,,,,64,0,13,,,,,6,,,60,100
5248,note_off,,,,,0,0,15,,,,,7,,,67,100
5248,note_off,,,,,64,0,15,,,,,7,,,60,100
5284,note_off,,,,,100,0,9,,,,,2,,,74,100
5284,note_off,,,,,100,0,10,,,,,3,,,67,100
5284,note_off,,,,,100,0,8,,,,,1,,,70,100
5312,note_off,,,,,64,0,15,,,,,7,,,62,100
5312,note_off,,,,,64,0,13,,,,,6,,,70,100
5312,note_off,,,,,128,0,12,,,,,5,,,40,100
5312,note_off,,,,,0,0,15,,,,,7,,,70,100
5312,note_off,,,,,128,0,11,,,,,4,,,52,100
5312,note_off,,,,,128,0,14,,,,,6,,,52,100
5312,note_off,,,,,128,0,16,,,,,7,,,52,100
5376,note_on,,,,,92,0,9,,,,,2,,,72,99
5376,note_on,,,,,0,0,13,,,,,6,,,69,100
5376,note_on,,,,,64,0,15,,,,,7,,,69,100
5376,note_on,,,,,92,0,8,,,,,1,,,69,99
5376,note_on,,,,,64,0,12,,,,,5,,,41,99
5376,note_on,,,,,0,0,15,,,,,7,,,60,100
5376,note_on,,,,,64,0,13,,,,,6,,,60,100
5376,note_on,,,,,64,0,14,,,,,6,,,41,100
5376,note_on,,,,,92,0,10,,,,,3,,,69,99
5376,note_on,,,,,64,0,11,,,,,4,,,41,99
5376,note_on,,,,,0,0,13,,,,,6,,,65,100
5376,note_on,,,,,0,0,15,,,,,7,,,65,100
5376,note_on,,,,,64,0,16,,,,,7,,,41,100
5440,note_off,,,,,64,0,9,,,,,2,,,72,100
5472,note_on,,,,,32,0,9,,,,,2,,,69,99
5476,note_off,,,,,100,0,10,,,,,3,,,69,100
5476,note_off,,,,,100,0,12,,,,,5,,,41,100
5476,note_off,,,,,100,0,14,,,,,6,,,41,100
5476,note_off,,,,,100,0,11,,,,,4,,,41,100
5476,note_off,,,,,100,0,8,,,,,1,,,69,100
5504,note_off,,,,,128,0,16,,,,,7,,,41,100
5536,note_off,,,,,64,0,9,,,,,2,,,69,100
5568,note_on,,,,,92,0,10,,,,,3,,,60,98
5568,note_on,,,,,92,0,8,,,,,1,,,65,98
5568,note_on,,,,,92,0,11,,,,,4,,,53,98
5568,note_on,,,,,32,0,9,,,,,2,,,65,98
5568,note_on,,,,,92,0,12,,,,,5,,,41,98
5568,note_on,,,,,64,0,16,,,,,7,,,53,100
5568,note_on,,,,,92,0,14,,,,,6,,,53,100
5632,note_off,,,,,0,0,13,,,,,6,,,69,100
5632,note_off,,,,,0,0,13,,,,,6,,,65,100
5632,note_off,,,,,64,0,9,,,,,2,,,65,100
5632,note_off,,,,,256,0,13,,,,,6,,,60,100
5664,note_on,,,,,32,0,9,,,,,2,,,69,97
5668,note_off,,,,,100,0,10,,,,,3,,,60,100
5668,note_off,,,,,100,0,11,,,,,4,,,53,100
5668,note_off,,,,,100,0,14,,,,,6,,,53,100
5668,note_off,,,,,100,0,8,,,,,1,,,65,100
5668,note_off,,,,,100,0,12,,,,,5,,,41,100
5696,note_off,,,,,128,0,16,,,,,7,,,53,100
5728,note_off,,,,,64,0,9,,,,,2,,,69,100
5760,note_on,,,,,92,0,14,,,,,6,,,53,100
5760,note_on,,,,,92,0,12,,,,,5,,,41,95
5760,note_on,,,,,92,0,11,,,,,4,,,53,95
5760,note_on,,,,,64,0,16,,,,,7,,,53,100
5760,note_on,,,,,32,0,9,,,,,2,,,72,95
5824,note_off,,,,,64,0,9,,,,,2,,,72,100
5856,note_on,,,,,32,0,9,,,,,2,,,69,96
5860,note_off,,,,,100,0,11,,,,,4,,,53,100
5860,note_off,,,,,100,0,12,,,,,5,,,41,100
5860,note_off,,,,,100,0,14,,,,,6,,,53,100
5888,note_off,,,,,128,0,16,,,,,7,,,53,100
5920,note_off,,,,,64,0,9,,,,,2,,,69,100
5952,note_on,,,,,32,0,9,,,,,2,,,65,98
5952,note_on,,,,,320,0,13,,,,,6,,,69,100
5952,note_on,,,,,284,0,10,,,,,3,,,65,98
5952,note_on,,,,,64,0,16,,,,,7,,,41,100
5952,note_on,,,,,284,0,8,,,,,1,,,72,98
5952,note_on,,,,,0,0,13,,,,,6,,,72,100
5952,note_on,,,,,92,0,14,,,,,6,,,41,100
5952,note_on,,,,,92,0,12,,,,,5,,,41,98
5952,note_on,,,,,92,0,11,,,,,4,,,41,98
6016,note_off,,,,,64,0,9,,,,,2,,,65,100
6048,note_on,,,,,32,0,9,,,,,2,,,69,99
6052,note_off,,,,,100,0,11,,,,,4,,,41,100
6052,note_off,,,,,100,0,14,,,,,6,,,41,100
6052,note_off,,,,,100,0,10,,,,,3,,,65,100
6052,note_off,,,,,100,0,12,,,,,5,,,41,100
6052,note_off,,,,,100,0,8,,,,,1,,,72,100
6064,note_off,,,,,0,0,15,,,,,7,,,60,100
6064,note_off,,,,,0,0,15,,,,,7,,,65,100
6064,note_off,,,,,688,0,15,,,,,7,,,69,100
6080,note_off,,,,,0,0,13,,,,,6,,,72,100
6080,note_off,,,,,128,0,16,,,,,7,,,41,100
6080,note_off,,,,,128,0,13,,,,,6,,,69,100
6112,note_off,,,,,64,0,9,,,,,2,,,69,100
6144,note_on,,,,,64,0,13,,,,,6,,,69,100
6144,note_on,,,,,0,0,13,,,,,6,,,72,100
6144,note_on,,,,,64,0,16,,,,,7,,,41,100
6144,note_on,,,,,92,0,10,,,,,3,,,69,100
6144,note_on,,,,,32,0,9,,,,,2,,,72,100
6144,note_on,,,,,92,0,14,,,,,6,,,41,100
6144,note_on,,,,,92,0,12,,,,,5,,,41,100
6144,note_on,,,,,0,0,15,,,,,7,,,72,100
6144,note_on,,,,,92,0,11,,,,,4,,,41,100
6144,note_on,,,,,80,0,15,,,,,7,,,65,100
6144,note_on,,,,,92,0,8,,,,,1,,,77,100
6144,note_on,,,,,0,0,15,,,,,7,,,69,100
6244,note_off,,,,,100,0,10,,,,,3,,,69,100
6244,note_off,,,,,100,0,11,,,,,4,,,41,100
6244,note_off,,,,,100,0,8,,,,,1,,,77,100
6244,note_off,,,,,100,0,14,,,,,6,,,41,100
6244,note_off,,,,,100,0,12,,,,,5,,,41,100
6272,note_off,,,,,128,0,16,,,,,7,,,41,100
6336,note_on,,,,,64,0,16,,,,,7,,,53,100
6336,note_on,,,,,92,0,8,,,,,1,,,77,100
6336,note_on,,,,,92,0,14,,,,,6,,,53,100
6336,note_on,,,,,92,0,12,,,,,5,,,41,100
6336,note_on,,,,,192,0,13,,,,,6,,,77,100
6336,note_on,,,,,92,0,10,,,,,3,,,65,100
6336,note_on,,,,,92,0,11,,,,,4,,,53,100
6400,note_off,,,,,0,0,13,,,,,6,,,72,100
6400,note_off,,,,,0,0,13,,,,,6,,,77,100
6400,note_off,,,,,64,0,13,,,,,6,,,69,100
6400,note_off,,,,,256,0,9,,,,,2,,,72,100
6432,note_on,,,,,32,0,13,,,,,6,,,76,100
6436,note_off,,,,,100,0,14,,,,,6,,,53,100
6436,note_off,,,,,100,0,12,,,,,5,,,41,100
6436,note_off,,,,,100,0,11,,,,,4,,,53,100
6436,note_off,,,,,100,0,10,,,,,3,,,65,100
6436,note_off,,,,,100,0,8,,,,,1,,,77,100
6464,note_off,,,,,128,0,16,,,,,7,,,53,100
6496,note_off,,,,,64,0,13,,,,,6,,,76,100
6528,note_on,,,,,92,0,8,,,,,1,,,77,100
6528,note_on,,,,,92,0,12,,,,,5,,,41,100
6528,note_on,,,,,92,0,11,,,,,4,,,53,100
6528,note_on,,,,,92,0,10,,,,,3,,,69,100
6528,note_on,,,,,92,0,14,,,,,6,,,53,100
6528,note_on,,,,,32,0,13,,,,,6,,,77,100
6528,note_on,,,,,64,0,16,,,,,7,,,53,100
6592,note_off,,,,,64,0,13,,,,,6,,,77,100
6624,note_on,,,,,32,0,13,,,,,6,,,72,100
6628,note_off,,,,,100,0,11,,,,,4,,,53,100
6628,note_off,,,,,100,0,12,,,,,5,,,41,100
6628,note_off,,,,,100,0,8,,,,,1,,,77,100
6628,note_off,,,,,100,0,14,,,,,6,,,53,100
6628,note_off,,,,,100,0,10,,,,,3,,,69,100
6656,note_off,,,,,128,0,16,,,,,7,,,53,100
6688,note_off,,,,,64,0,13,,,,,6,,,72,100
6720,note_on,,,,,320,0,9,,,,,2,,,72,100
6720,note_on,,,,,92,0,11,,,,,4,,,41,100
6720,note_on,,,,,92,0,8,,,,,1,,,77,100
6720,note_on,,,,,32,0,13,,,,,6,,,69,100
6720,note_on,,,,,92,0,12,,,,,5,,,41,100
6720,note_on,,,,,92,0,14,,,,,6,,,41,100
6720,note_on,,,,,64,0,16,,,,,7,,,41,100
6720,note_on,,,,,92,0,10,,,,,3,,,72,100
6784,note_off,,,,,64,0,13,,,,,6,,,69,100
6816,note_on,,,,,32,0,13,,,,,6,,,72,100
6820,note_off,,,,,100,0,11,,,,,4,,,41,100
6820,note_off,,,,,100,0,12,,,,,5,,,41,100
6820,note_off,,,,,100,0,8,,,,,1,,,77,100
6820,note_off,,,,,100,0,9,,,,,2,,,72,100
6820,note_off,,,,,100,0,10,,,,,3,,,72,100
6820,note_off,,,,,100,0,14,,,,,6,,,41,100
6832,note_off,,,,,688,0,15,,,,,7,,,65,100
6832,note_off,,,,,0,0,15,,,,,7,,,69,100
6832,note_off,,,,,0,0,15,,,,,7,,,72,100
6848,note_off,,,,,128,0,16,,,,,7,,,41,100
6880,note_off,,,,,64,0,13,,,,,6,,,72,100
6912,note_on,,,,,32,0,13,,,,,6,,,65,100
6912,note_on,,,,,92,0,11,,,,,4,,,41,100
6912,note_on,,,,,64,0,16,,,,,7,,,41,100
6912,note_on,,,,,92,0,9,,,,,2,,,77,100
6912,note_on,,,,,92,0,8,,,,,1,,,77,100
6912,note_on,,,,,92,0,14,,,,,6,,,41,100
6912,note_on,,,,,92,0,10,,,,,3,,,69,100
6912,note_on,,,,,0,0,15,,,,,7,,,72,100
6912,note_on,,,,,0,0,15,,,,,7,,,69,100
6912,note_on,,,,,80,0,15,,,,,7,,,65,100
6912,note_on,,,,,92,0,12,,,,,5,,,41,100
6976,note_off,,,,,64,0,8,,,,,1,,,77,100
6976,note_off,,,,,64,0,13,,,,,6,,,65,100
7008,note_on,,,,,32,0,13,,,,,6,,,72,100
7008,note_on,,,,,32,0,8,,,,,1,,,72,100
7012,note_off,,,,,100,0,12,,,,,5,,,41,100
7012,note_off,,,,,100,0,10,,,,,3,,,69,100
7012,note_off,,,,,100,0,11,,,,,4,,,41,100
7012,note_off,,,,,100,0,9,,,,,2,,,77,100
7012,note_off,,,,,100,0,14,,,,,6,,,41,100
7040,note_off,,,,,128,0,16,,,,,7,,,41,100
7072,note_off,,,,,64,0,8,,,,,1,,,72,100
7072,note_off,,,,,64,0,13,,,,,6,,,72,100
7104,note_on,,,,,32,0,13,,,,,6,,,69,100
7104,note_on,,,,,92,0,10,,,,,3,,,65,100
7104,note_on,,,,,92,0,12,,,,,5,,,41,100
7104,note_on,,,,,92,0,11,,,,,4,,,53,100
7104,note_on,,,,,32,0,8,,,,,1,,,69,100
7104,note_on,,,,,64,0,16,,,,,7,,,53,100
7104,note_on,,,,,92,0,9,,,,,2,,,77,100
7104,note_on,,,,,92,0,14,,,,,6,,,53,100
7168,note_off,,,,,64,0,8,,,,,1,,,69,100
7168,note_off,,,,,64,0,13,,,,,6,,,69,100
7200,note_on,,,,,32,0,8,,,,,1,,,72,100
7200,note_on,,,,,32,0,13,,,,,6,,,72,100
7204,note_off,,,,,100,0,9,,,,,2,,,77,100
7204,note_off,,,,,100,0,14,,,,,6,,,53,100
7204,note_off,,,,,100,0,12,,,,,5,,,41,100
7204,note_off,,,,,100,0,10,,,,,3,,,65,100
7204,note_off,,,,,100,0,11,,,,,4,,,53,100
7232,note_off,,,,,128,0,16,,,,,7,,,53,100
7264,note_off,,,,,64,0,8,,,,,1,,,72,100
7264,note_off,,,,,64,0,13,,,,,6,,,72,100
7296,note_on,,,,,32,0,8,,,,,1,,,77,100
7296,note_on,,,,,64,0,16,,,,,7,,,53,100
7296,note_on,,,,,92,0,12,,,,,5,,,41,100
7296,note_on,,,,,32,0,13,,,,,6,,,77,100
7296,note_on,,,,,92,0,9,,,,,2,,,77,100
7296,note_on,,,,,92,0,10,,,,,3,,,69,100
7296,note_on,,,,,92,0,14,,,,,6,,,53,100
7296,note_on,,,,,92,0,11,,,,,4,,,53,100
7360,note_off,,,,,64,0,13,,,,,6,,,77,100
7360,note_off,,,,,64,0,8,,,,,1,,,77,100
7392,note_on,,,,,32,0,13,,,,,6,,,72,100
7392,note_on,,,,,32,0,8,,,,,1,,,72,100
7396,note_off,,,,,100,0,12,,,,,5,,,41,100
7396,note_off,,,,,100,0,11,,,,,4,,,53,100
7396,note_off,,,,,100,0,10,,,,,3,,,69,100
7396,note_off,,,,,100,0,14,,,,,6,,,53,100
7396,note_off,,,,,100,0,9,,,,,2,,,77,100
7424,note_off,,,,,128,0,16,,,,,7,,,53,100
7456,note_off,,,,,64,0,8,,,,,1,,,72,100
7456,note_off,,,,,64,0,13,,,,,6,,,72,100
7488,note_on,,,,,92,0,11,,,,,4,,,41,100
7488,note_on,,,,,92,0,9,,,,,2,,,77,100
7488,note_on,,,,,92,0,10,,,,,3,,,72,100
7488,note_on,,,,,92,0,12,,,,,5,,,41,100
7488,note_on,,,,,64,0,16,,,,,7,,,41,100
7488,note_on,,,,,92,0,14,,,,,6,,,41,100
7488,note_on,,,,,32,0,8,,,,,1,,,69,100
7488,note_on,,,,,32,0,13,,,,,6,,,69,100
7552,note_off,,,,,64,0,8,,,,,1,,,69,100
7552,note_off,,,,,64,0,13,,,,,6,,,69,100
7584,note_on,,,,,32,0,13,,,,,6,,,72,100
7584,note_on,,,,,32,0,8,,,,,1,,,72,100
7588,note_off,,,,,100,0,10,,,,,3,,,72,100
7588,note_off,,,,,100,0,14,,,,,6,,,41,100
7588,note_off,,,,,100,0,9,,,,,2,,,77,100
7588,note_off,,,,,100,0,11,,,,,4,,,41,100
7588,note_off,,,,,100,0,12,,,,,5,,,41,100
7600,note_off,,,,,688,0,15,,,,,7,,,65,100
7600,note_off,,,,,0,0,15,,,,,7,,,69,100
7600,note_off,,,,,0,0,15,,,,,7,,,72,100
7616,note_off,,,,,128,0,16,,,,,7,,,41,100
7648,note_off,,,,,64,0,13,,,,,6,,,72,100
7648,note_off,,,,,64,0,8,,,,,1,,,72,100
7680,note_on,,,,,92,0,9,,,,,2,,,77,100
7680,note_on,,,,,92,0,11,,,,,4,,,41,100
7680,note_on,,,,,64,0,16,,,,,7,,,41,100
7680,note_on,,,,,0,0,15,,,,,7,,,72,100
7680,note_on,,,,,0,0,15,,,,,7,,,69,100
7680,note_on,,,,,92,0,14,,,,,6,,,41,100
7680,note_on,,,,,80,0,15,,,,,7,,,65,100
7680,note_on,,,,,92,0,12,,,,,5,,,41,100
7680,note_on,,,,,92,0,10,,,,,3,,,69,100
7680,note_on,,,,,32,0,8,,,,,1,,,77,100
7680,note_on,,,,,32,0,13,,,,,6,,,65,100
7744,note_off,,,,,64,0,13,,,,,6,,,65,100
7744,note_off,,,,,64,0,9,,,,,2,,,77,100
7776,note_on,,,,,32,0,9,,,,,2,,,72,100
7776,note_on,,,,,32,0,13,,,,,6,,,72,100
7780,note_off,,,,,100,0,12,,,,,5,,,41,100
7780,note_off,,,,,100,0,10,,,,,3,,,69,100
7780,note_off,,,,,100,0,14,,,,,6,,,41,100
7780,note_off,,,,,100,0,11,,,,,4,,,41,100
7780,note_off,,,,,100,0,8,,,,,1,,,77,100
7808,note_off,,,,,128,0,16,,,,,7,,,41,100
7840,note_off,,,,,64,0,13,,,,,6,,,72,100
7840,note_off,,,,,64,0,9,,,,,2,,,72,100
7872,note_on,,,,,32,0,13,,,,,6,,,69,100
7872,note_on,,,,,32,0,9,,,,,2,,,69,99
7872,note_on,,,,,92,0,10,,,,,3,,,65,99
7872,note_on,,,,,92,0,8,,,,,1,,,77,99
7872,note_on,,,,,92,0,14,,,,,6,,,53,100
7872,note_on,,,,,92,0,12,,,,,5,,,41,99
7872,note_on,,,,,64,0,16,,,,,7,,,53,100
7872,note_on,,,,,92,0,11,,,,,4,,,53,99
7936,note_off,,,,,64,0,9,,,,,2,,,69,100
7936,note_off,,,,,64,0,13,,,,,6,,,69,100
7968,note_on,,,,,32,0,9,,,,,2,,,72,99
7968,note_on,,,,,32,0,13,,,,,6,,,72,100
7972,note_off,,,,,100,0,12,,,,,5,,,41,100
7972,note_off,,,,,100,0,11,,,,,4,,,53,100
7972,note_off,,,,,100,0,8,,,,,1,,,77,100
7972,note_off,,,,,100,0,14,,,,,6,,,53,100
7972,note_off,,,,,100,0,10,,,,,3,,,65,100
8000,note_off,,,,,128,0,16,,,,,7,,,53,100
8032,note_off,,,,,64,0,13,,,,,6,,,72,100
8032,note_off,,,,,64,0,9,,,,,2,,,72,100
8064,note_on,,,,,92,0,11,,,,,4,,,53,98
8064,note_on,,,,,92,0,14,,,,,6,,,53,100
8064,note_on,,,,,92,0,12,,,,,5,,,41,98
8064,note_on,,,,,64,0,16,,,,,7,,,53,100
8064,note_on,,,,,92,0,10,,,,,3,,,69,98
8064,note_on,,,,,32,0,13,,,,,6,,,77,100
8064,note_on,,,,,92,0,8,,,,,1,,,77,98
8064,note_on,,,,,32,0,9,,,,,2,,,77,98
8128,note_off,,,,,64,0,13,,,,,6,,,77,100
8128,note_off,,,,,64,0,9,,,,,2,,,77,100
8160,note_on,,,,,32,0,13,,,,,6,,,72,100
8160,note_on,,,,,32,0,9,,,,,2,,,72,97
8164,note_off,,,,,100,0,10,,,,,3,,,69,100
8164,note_off,,,,,100,0,8,,,,,1,,,77,100
8164,note_off,,,,,100,0,11,,,,,4,,,53,100
8164,note_off,,,,,100,0,14,,,,,6,,,53,100
8164,note_off,,,,,100,0,12,,,,,5,,,41,100
8192,note_off,,,,,128,0,16,,,,,7,,,53,100
8224,note_off,,,,,64,0,13,,,,,6,,,72,100
8224,note_off,,,,,64,0,9,,,,,2,,,72,100
8256,note_on,,,,,92,0,8,,,,,1,,,77,97
8256,note_on,,,,,92,0,11,,,,,4,,,41,97
8256,note_on,,,,,92,0,10,,,,,3,,,72,97
8256,note_on,,,,,32,0,13,,,,,6,,,69,100
8256,note_on,,,,,64,0,16,,,,,7,,,41,100
8256,note_on,,,,,92,0,14,,,,,6,,,41,100
8256,note_on,,,,,32,0,9,,,,,2,,,69,97
8256,note_on,,,,,92,0,12,,,,,5,,,41,97
8320,note_off,,,,,64,0,9,,,,,2,,,69,100
8320,note_off,,,,,64,0,13,,,,,6,,,69,100
8352,note_on,,,,,32,0,9,,,,,2,,,72,96
8352,note_on,,,,,32,0,13,,,,,6,,,72,100
8356,note_off,,,,,100,0,12,,,,,5,,,41,100
8356,note_off,,,,,100,0,14,,,,,6,,,41,100
8356,note_off,,,,,100,0,10,,,,,3,,,72,100
8356,note_off,,,,,100,0,11,,,,,4,,,41,100
8356,note_off,,,,,100,0,8,,,,,1,,,77,100
8368,note_off,,,,,0,0,15,,,,,7,,,72,100
8368,note_off,,,,,0,0,15,,,,,7,,,69,100
8368,note_off,,,,,688,0,15,,,,,7,,,65,100
8384,note_off,,,,,128,0,16,,,,,7,,,41,100
8416,note_off,,,,,64,0,9,,,,,2,,,72,100
8416,note_off,,,,,64,0,13,,,,,6,,,72,100
8448,note_on,,,,,80,0,15,,,,,7,,,65,100
8448,note_on,,,,,92,0,12,,,,,5,,,41,95
8448,note_on,,,,,92,0,14,,,,,6,,,41,100
8448,note_on,,,,,32,0,13,,,,,6,,,65,100
8448,note_on,,,,,0,0,15,,,,,7,,,72,100
8448,note_on,,,,,92,0,11,,,,,4,,,41,95
8448,note_on,,,,,0,0,15,,,,,7,,,69,100
8448,note_on,,,,,64,0,16,,,,,7,,,41,100
8448,note_on,,,,,32,0,9,,,,,2,,,77,95
8448,note_on,,,,,92,0,8,,,,,1,,,77,95
8448,note_on,,,,,92,0,10,,,,,3,,,69,95
8512,note_off,,,,,64,0,13,,,,,6,,,65,100
8512,note_off,,,,,64,0,8,,,,,1,,,77,100
8544,note_on,,,,,32,0,13,,,,,6,,,72,100
8544,note_on,,,,,32,0,8,,,,,1,,,72,95
8548,note_off,,,,,100,0,14,,,,,6,,,41,100
8548,note_off,,,,,100,0,9,,,,,2,,,77,100
8548,note_off,,,,,100,0,12,,,,,5,,,41,100
8548,note_off,,,,,100,0,10,,,,,3,,,69,100
8548,note_off,,,,,100,0,11,,,,,4,,,41,100
8576,note_off,,,,,128,0,16,,,,,7,,,41,100
8608,note_off,,,,,64,0,13,,,,,6,,,72,100
8608,note_off,,,,,64,0,8,,,,,1,,,72,100
8640,note_on,,,,,92,0,14,,,,,6,,,53,100
8640,note_on,,,,,92,0,9,,,,,2,,,77,94
8640,note_on,,,,,64,0,16,,,,,7,,,53,100
8640,note_on,,,,,92,0,10,,,,,3,,,65,94
8640,note_on,,,,,92,0,12,,,,,5,,,41,94
8640,note_on,,,,,32,0,13,,,,,6,,,69,100
8640,note_on,,,,,32,0,8,,,,,1,,,69,94
8640,note_on,,,,,92,0,11,,,,,4,,,53,94
8704,note_off,,,,,64,0,13,,,,,6,,,69,100
8704,note_off,,,,,64,0,8,,,,,1,,,69,100
8736,note_on,,,,,32,0,13,,,,,6,,,72,100
8736,note_on,,,,,32,0,8,,,,,1,,,72,93
8740,note_off,,,,,100,0,12,,,,,5,,,41,100
8740,note_off,,,,,100,0,9,,,,,2,,,77,100
8740,note_off,,,,,100,0,14,,,,,6,,,53,100
8740,note_off,,,,,100,0,10,,,,,3,,,65,100
8740,note_off,,,,,100,0,11,,,,,4,,,53,100
8768,note_off,,,,,128,0,16,,,,,7,,,53,100
8800,note_off,,,,,64,0,13,,,,,6,,,72,100
8800,note_off,,,,,64,0,8,,,,,1,,,72,100
8832,note_on,,,,,92,0,9,,,,,2,,,77,93
8832,note_on,,,,,92,0,11,,,,,4,,,53,93
8832,note_on,,,,,32,0,8,,,,,1,,,77,93
8832,note_on,,,,,64,0,16,,,,,7,,,53,100
8832,note_on,,,,,92,0,14,,,,,6,,,53,100
8832,note_on,,,,,92,0,12,,,,,5,,,41,93
8832,note_on,,,,,32,0,13,,,,,6,,,77,100
8832,note_on,,,,,92,0,10,,,,,3,,,69,93
8896,note_off,,,,,64,0,8,,,,,1,,,77,100
8896,note_off,,,,,64,0,13,,,,,6,,,77,100
8928,note_on,,,,,32,0,8,,,,,1,,,72,92
8928,note_on,,,,,32,0,13,,,,,6,,,72,100
8932,note_off,,,,,100,0,14,,,,,6,,,53,100
8932,note_off,,,,,100,0,12,,,,,5,,,41,100
8932,note_off,,,,,100,0,9,,,,,2,,,77,100
8932,note_off,,,,,100,0,11,,,,,4,,,53,100
8932,note_off,,,,,100,0,10,,,,,3,,,69,100
8960,note_off,,,,,128,0,16,,,,,7,,,53,100
8992,note_off,,,,,64,0,13,,,,,6,,,72,100
8992,note_off,,,,,64,0,8,,,,,1,,,72,100
9024,note_on,,,,,92,0,14,,,,,6,,,41,100
9024,note_on,,,,,92,0,10,,,,,3,,,72,91
9024,note_on,,,,,92,0,12,,,,,5,,,41,91
9024,note_on,,,,,64,0,16,,,,,7,,,41,100
9024,note_on,,,,,32,0,13,,,,,6,,,69,100
9024,note_on,,,,,92,0,11,,,,,4,,,41,91
9024,note_on,,,,,32,0,8,,,,,1,,,69,91
9024,note_on,,,,,92,0,9,,,,,2,,,77,91
9088,note_off,,,,,64,0,8,,,,,1,,,69,100
9088,note_off,,,,,64,0,13,,,,,6,,,69,100
9120,note_on,,,,,32,0,8,,,,,1,,,72,91
9120,note_on,,,,,32,0,13,,,,,6,,,72,100
9124,note_off,,,,,100,0,10,,,,,3,,,72,100
9124,note_off,,,,,100,0,12,,,,,5,,,41,100
9124,note_off,,,,,100,0,9,,,,,2,,,77,100
9124,note_off,,,,,100,0,14,,,,,6,,,41,100
9124,note_off,,,,,100,0,11,,,,,4,,,41,100
9136,note_off,,,,,0,0,15,,,,,7,,,72,100
9136,note_off,,,,,0,0,15,,,,,7,,,69,100
9136,note_off,,,,,688,0,15,,,,,7,,,65,100
9152,note_off,,,,,128,0,16,,,,,7,,,41,100
9184,note_off,,,,,64,0,8,,,,,1,,,72,100
9184,note_off,,,,,64,0,13,,,,,6,,,72,100
9216,note_on,,,,,0,0,13,,,,,6,,,69,100
9216,note_on,,,,,64,0,16,,,,,7,,,41,100
9216,note_on,,,,,32,0,13,,,,,6,,,77,100
9216,note_on,,,,,92,0,9,,,,,2,,,81,100
9216,note_on,,,,,32,0,8,,,,,1,,,77,100
9216,note_on,,,,,92,0,11,,,,,4,,,41,100
9216,note_on,,,,,92,0,12,,,,,5,,,41,100
9216,note_on,,,,,0,0,15,,,,,7,,,65,100
9216,note_on,,,,,92,0,10,,,,,3,,,72,100
9216,note_on,,,,,92,0,14,,,,,6,,,41,100
9216,note_on,,,,,80,0,15,,,,,7,,,72,100
9216,note_on,,,,,0,0,13,,,,,6,,,72,100
9216,note_on,,,,,0,0,15,,,,,7,,,69,100
9316,note_off,,,,,100,0,11,,,,,4,,,41,100
9316,note_off,,,,,100,0,12,,,,,5,,,41,100
9316,note_off,,,,,100,0,14,,,,,6,,,41,100
9316,note_off,,,,,100,0,10,,,,,3,,,72,100
9344,note_off,,,,,128,0,16,,,,,7,,,41,100
9344,note_off,,,,,128,0,9,,,,,2,,,81,100
9344,note_off,,,,,128,0,13,,,,,6,,,77,100
9344,note_off,,,,,128,0,8,,,,,1,,,77,100
9408,note_on,,,,,64,0,16,,,,,7,,,53,100
9408,note_on,,,,,92,0,12,,,,,5,,,41,98
9408,note_on,,,,,92,0,10,,,,,3,,,72,98
9408,note_on,,,,,64,0,9,,,,,2,,,82,98
9408,note_on,,,,,92,0,11,,,,,4,,,53,98
9408,note_on,,,,,64,0,8,,,,,1,,,79,98
9408,note_on,,,,,64,0,13,,,,,6,,,81,100
9408,note_on,,,,,92,0,14,,,,,6,,,53,100
9472,note_off,,,,,64,0,8,,,,,1,,,79,100
9472,note_off,,,,,256,0,15,,,,,7,,,72,100
9472,note_off,,,,,64,0,13,,,,,6,,,69,100
9472,note_off,,,,,0,0,13,,,,,6,,,72,100
9472,note_off,,,,,64,0,9,,,,,2,,,82,100
9472,note_off,,,,,0,0,15,,,,,7,,,69,100
9472,note_off,,,,,0,0,15,,,,,7,,,65,100
9504,note_on,,,,,32,0,8,,,,,1,,,81,96
9504,note_on,,,,,32,0,9,,,,,2,,,84,96
9508,note_off,,,,,100,0,12,,,,,5,,,41,100
9508,note_off,,,,,100,0,11,,,,,4,,,53,100
9508,note_off,,,,,100,0,14,,,,,6,,,53,100
9508,note_off,,,,,100,0,10,,,,,3,,,72,100
9536,note_off,,,,,64,0,13,,,,,6,,,81,100
9536,note_off,,,,,128,0,16,,,,,7,,,53,100
9568,note_off,,,,,64,0,8,,,,,1,,,81,100
9568,note_off,,,,,64,0,9,,,,,2,,,84,100
9600,note_on,,,,,92,0,11,,,,,4,,,46,95
9600,note_on,,,,,32,0,8,,,,,1,,,79,95
9600,note_on,,,,,0,0,15,,,,,7,,,67,100
9600,note_on,,,,,128,0,15,,,,,7,,,74,100
9600,note_on,,,,,64,0,13,,,,,6,,,79,100
9600,note_on,,,,,0,0,13,,,,,6,,,67,100
9600,note_on,,,,,0,0,13,,,,,6,,,74,100
9600,note_on,,,,,0,0,15,,,,,7,,,67,100
9600,note_on,,,,,92,0,10,,,,,3,,,62,95
9600,note_on,,,,,92,0,14,,,,,6,,,46,100
9600,note_on,,,,,32,0,9,,,,,2,,,82,95
9600,note_on,,,,,92,0,12,,,,,5,,,34,95
9600,note_on,,,,,64,0,16,,,,,7,,,46,100
9700,note_off,,,,,100,0,8,,,,,1,,,79,100
9700,note_off,,,,,100,0,14,,,,,6,,,46,100
9700,note_off,,,,,100,0,9,,,,,2,,,82,100
9700,note_off,,,,,100,0,10,,,,,3,,,62,100
9728,note_off,,,,,128,0,11,,,,,4,,,46,100
9728,note_off,,,,,128,0,13,,,,,6,,,79,100
9728,note_off,,,,,128,0,12,,,,,5,,,34,100
9728,note_off,,,,,128,0,15,,,,,7,,,67,100
9728,note_off,,,,,128,0,16,,,,,7,,,46,100
9792,note_on,,,,,64,0,13,,,,,6,,,77,100
9792,note_on,,,,,92,0,9,,,,,2,,,81,92
9792,note_on,,,,,64,0,12,,,,,5,,,35,92
9792,note_on,,,,,92,0,8,,,,,1,,,77,92
9792,note_on,,,,,92,0,10,,,,,3,,,62,92
9792,note_on,,,,,64,0,15,,,,,7,,,69,100
9792,note_on,,,,,0,0,15,,,,,7,,,65,100
9792,note_on,,,,,64,0,16,,,,,7,,,47,100
9792,note_on,,,,,64,0,11,,,,,4,,,47,92
9792,note_on,,,,,92,0,14,,,,,6,,,47,100
9856,note_off,,,,,0,0,13,,,,,6,,,74,100
9856,note_off,,,,,64,0,15,,,,,7,,,74,100
9856,note_off,,,,,0,0,15,,,,,7,,,67,100
9856,note_off,,,,,64,0,13,,,,,6,,,67,100
9892,note_off,,,,,100,0,8,,,,,1,,,77,100
9892,note_off,,,,,100,0,10,,,,,3,,,62,100
9892,note_off,,,,,100,0,9,,,,,2,,,81,100
9920,note_off,,,,,128,0,14,,,,,6,,,47,100
9920,note_off,,,,,128,0,12,,,,,5,,,35,100
9920,note_off,,,,,128,0,11,,,,,4,,,47,100
9920,note_off,,,,,64,0,13,,,,,6,,,77,100
9920,note_off,,,,,128,0,16,,,,,7,,,47,100
9920,note_off,,,,,64,0,15,,,,,7,,,69,100
9920,note_off,,,,,0,0,15,,,,,7,,,65,100
9984,note_on,,,,,64,0,12,,,,,5,,,36,92
9984,note_on,,,,,64,0,16,,,,,7,,,48,100
9984,note_on,,,,,64,0,14,,,,,6,,,48,100
9984,note_on,,,,,92,0,8,,,,,1,,,76,92
9984,note_on,,,,,64,0,15,,,,,7,,,60,100
9984,note_on,,,,,0,0,15,,,,,7,,,64,100
9984,note_on,,,,,0,0,15,,,,,7,,,67,100
9984,note_on,,,,,64,0,11,,,,,4,,,48,92
9984,note_on,,,,,92,0,9,,,,,2,,,79,92
9984,note_on,,,,,92,0,10,,,,,3,,,64,92
9984,note_on,,,,,64,0,13,,,,,6,,,67,100
9984,note_on,,,,,0,0,13,,,,,6,,,72,100
9984,note_on,,,,,0,0,13,,,,,6,,,76,100
10048,note_off,,,,,64,0,9,,,,,2,,,79,100
10080,note_on,,,,,32,0,9,,,,,2,,,76,90
10112,note_off,,,,,128,0,14,,,,,6,,,48,100
10112,note_off,,,,,128,0,8,,,,,1,,,76,100
10112,note_off,,,,,128,0,12,,,,,5,,,36,100
10112,note_off,,,,,128,0,16,,,,,7,,,48,100
10112,note_off,,,,,128,0,11,,,,,4,,,48,100
10144,note_off,,,,,64,0,9,,,,,2,,,76,100
10176,note_on,,,,,64,0,14,,,,,6,,,60,100
10176,note_on,,,,,64,0,8,,,,,1,,,72,88
10176,note_on,,,,,64,0,12,,,,,5,,,48,88
10176,note_on,,,,,32,0,9,,,,,2,,,72,88
10176,note_on,,,,,64,0,11,,,,,4,,,60,88
10176,note_on,,,,,64,0,16,,,,,7,,,60,100
10240,note_off,,,,,64,0,9,,,,,2,,,72,100
10240,note_off,,,,,0,0,13,,,,,6,,,76,100
10240,note_off,,,,,256,0,10,,,,,3,,,64,100
10240,note_off,,,,,0,0,13,,,,,6,,,72,100
10240,note_off,,,,,256,0,13,,,,,6,,,67,100
10272,note_on,,,,,32,0,9,,,,,2,,,76,86
10276,note_off,,,,,100,0,12,,,,,5,,,48,100
10276,note_off,,,,,100,0,11,,,,,4,,,60,100
10276,note_off,,,,,100,0,14,,,,,6,,,60,100
10304,note_off,,,,,128,0,16,,,,,7,,,60,100
10304,note_off,,,,,128,0,8,,,,,1,,,72,100
10336,note_off,,,,,64,0,9,,,,,2,,,76,100
10368,note_on,,,,,92,0,14,,,,,6,,,58,100
10368,note_on,,,,,64,0,16,,,,,7,,,58,100
10368,note_on,,,,,0,0,13,,,,,6,,,67,100
10368,note_on,,,,,92,0,12,,,,,5,,,46,84
10368,note_on,,,,,92,0,11,,,,,4,,,58,84
10368,note_on,,,,,32,0,9,,,,,2,,,79,84
10368,note_on,,,,,128,0,13,,,,,6,,,64,100
10432,note_off,,,,,64,0,9,,,,,2,,,79,100
10464,note_on,,,,,32,0,9,,,,,2,,,76,82
10468,note_off,,,,,100,0,11,,,,,4,,,58,100
10468,note_off,,,,,100,0,12,,,,,5,,,46,100
10468,note_off,,,,,100,0,14,,,,,6,,,58,100
10496,note_off,,,,,128,0,16,,,,,7,,,58,100
10528,note_off,,,,,64,0,9,,,,,2,,,76,100
10560,note_on,,,,,92,0,12,,,,,5,,,34,80
10560,note_on,,,,,256,0,8,,,,,1,,,72,80
10560,note_on,,,,,32,0,9,,,,,2,,,72,80
10560,note_on,,,,,92,0,11,,,,,4,,,46,80
10560,note_on,,,,,320,0,10,,,,,3,,,67,80
10560,note_on,,,,,92,0,14,,,,,6,,,46,100
10560,note_on,,,,,64,0,16,,,,,7,,,46,100
10624,note_off,,,,,64,0,9,,,,,2,,,72,100
10624,note_off,,,,,256,0,13,,,,,6,,,64,100
10624,note_off,,,,,0,0,13,,,,,6,,,67,100
10656,note_on,,,,,32,0,9,,,,,2,,,76,78
10660,note_off,,,,,100,0,11,,,,,4,,,46,100
10660,note_off,,,,,100,0,12,,,,,5,,,34,100
10660,note_off,,,,,100,0,10,,,,,3,,,67,100
10660,note_off,,,,,100,0,14,,,,,6,,,46,100
10672,note_off,,,,,688,0,15,,,,,7,,,60,100
10672,note_off,,,,,0,0,15,,,,,7,,,64,100
10672,note_off,,,,,0,0,15,,,,,7,,,67,100
10688,note_off,,,,,128,0,8,,,,,1,,,72,100
10688,note_off,,,,,128,0,16,,,,,7,,,46,100
10720,note_off,,,,,64,0,9,,,,,2,,,76,100
10752,note_on,,,,,32,0,9,,,,,2,,,72,75
10752,note_on,,,,,80,0,15,,,,,7,,,77,100
10752,note_on,,,,,0,0,15,,,,,7,,,72,100
10752,note_on,,,,,0,0,15,,,,,7,,,65,100
10752,note_on,,,,,92,0,14,,,,,6,,,45,100
10752,note_on,,,,,64,0,16,,,,,7,,,45,100
10752,note_on,,,,,64,0,8,,,,,1,,,77,75
10752,note_on,,,,,92,0,10,,,,,3,,,69,75
10752,note_on,,,,,0,0,13,,,,,6,,,72,100
10752,note_on,,,,,0,0,13,,,,,6,,,77,100
10752,note_on,,,,,92,0,12,,,,,5,,,33,75
10752,note_on,,,,,92,0,11,,,,,4,,,45,75
10752,note_on,,,,,128,0,13,,,,,6,,,65,100
10816,note_off,,,,,64,0,8,,,,,1,,,77,100
10848,note_on,,,,,32,0,8,,,,,1,,,72,75
10852,note_off,,,,,100,0,16,,,,,7,,,45,100
10852,note_off,,,,,100,0,12,,,,,5,,,33,100
10852,note_off,,,,,100,0,10,,,,,3,,,69,100
10852,note_off,,,,,100,0,11,,,,,4,,,45,100
10884,note_off,,,,,132,0,14,,,,,6,,,45,100
10912,note_off,,,,,64,0,8,,,,,1,,,72,100
10940,note_off,,,,,188,0,9,,,,,2,,,72,100
10944,note_on,,,,,60,0,14,,,,,6,,,57,100
10944,note_on,,,,,4,0,9,,,,,2,,,77,76
10944,note_on,,,,,92,0,12,,,,,5,,,45,76
10944,note_on,,,,,32,0,8,,,,,1,,,69,76
10944,note_on,,,,,92,0,10,,,,,3,,,60,76
10944,note_on,,,,,92,0,16,,,,,7,,,57,100
10944,note_on,,,,,92,0,11,,,,,4,,,57,76
11008,note_off,,,,,64,0,8,,,,,1,,,69,100
11040,note_on,,,,,32,0,8,,,,,1,,,72,76
11044,note_off,,,,,100,0,10,,,,,3,,,60,100
11044,note_off,,,,,100,0,12,,,,,5,,,45,100
11044,note_off,,,,,100,0,11,,,,,4,,,57,100
11044,note_off,,,,,100,0,16,,,,,7,,,57,100
11072,note_off,,,,,128,0,9,,,,,2,,,77,100
11076,note_off,,,,,132,0,14,,,,,6,,,57,100
11104,note_off,,,,,64,0,8,,,,,1,,,72,100
11136,note_on,,,,,92,0,12,,,,,5,,,45,77
11136,note_on,,,,,32,0,8,,,,,1,,,77,77
11136,note_on,,,,,92,0,10,,,,,3,,,60,77
11136,note_on,,,,,60,0,14,,,,,6,,,57,100
11136,note_on,,,,,92,0,16,,,,,7,,,57,100
11136,note_on,,,,,92,0,11,,,,,4,,,57,77
11200,note_off,,,,,64,0,8,,,,,1,,,77,100
11232,note_on,,,,,32,0,8,,,,,1,,,72,78
11236,note_off,,,,,100,0,12,,,,,5,,,45,100
11236,note_off,,,,,100,0,11,,,,,4,,,57,100
11236,note_off,,,,,100,0,16,,,,,7,,,57,100
11264,note_off,,,,,0,0,13,,,,,6,,,72,100
11264,note_off,,,,,512,0,13,,,,,6,,,65,100
11264,note_off,,,,,0,0,13,,,,,6,,,77,100
11268,note_off,,,,,132,0,14,,,,,6,,,57,100
11296,note_off,,,,,64,0,8,,,,,1,,,72,100
11324,note_off,,,,,188,0,10,,,,,3,,,60,100
11328,note_on,,,,,32,0,8,,,,,1,,,69,78
11328,note_on,,,,,256,0,9,,,,,2,,,72,78
11328,note_on,,,,,92,0,11,,,,,4,,,45,78
11328,note_on,,,,,4,0,10,,,,,3,,,65,78
11328,note_on,,,,,92,0,16,,,,,7,,,45,100
11328,note_on,,,,,60,0,14,,,,,6,,,45,100
11328,note_on,,,,,92,0,12,,,,,5,,,33,78
11392,note_off,,,,,64,0,8,,,,,1,,,69,100
11424,note_on,,,,,32,0,8,,,,,1,,,72,79
11428,note_off,,,,,100,0,16,,,,,7,,,45,100
11428,note_off,,,,,100,0,11,,,,,4,,,45,100
11428,note_off,,,,,100,0,12,,,,,5,,,33,100
11428,note_off,,,,,100,0,9,,,,,2,,,72,100
11440,note_off,,,,,688,0,15,,,,,7,,,77,100
11440,note_off,,,,,0,0,15,,,,,7,,,65,100
11440,note_off,,,,,0,0,15,,,,,7,,,72,100
11456,note_off,,,,,128,0,10,,,,,3,,,65,100
11460,note_off,,,,,132,0,14,,,,,6,,,45,100
11488,note_off,,,,,64,0,8,,,,,1,,,72,100
11520,note_on,,,,,92,0,11,,,,,4,,,46,79
11520,note_on,,,,,92,0,16,,,,,7,,,46,100
11520,note_on,,,,,92,0,9,,,,,2,,,74,79
11520,note_on,,,,,92,0,12,,,,,5,,,34,79
11520,note_on,,,,,0,0,15,,,,,7,,,74,100
11520,note_on,,,,,80,0,15,,,,,7,,,77,100
11520,note_on,,,,,0,0,15,,,,,7,,,70,100
11520,note_on,,,,,0,0,13,,,,,6,,,74,100
11520,note_on,,,,,0,0,13,,,,,6,,,77,100
11520,note_on,,,,,32,0,8,,,,,1,,,77,79
11520,note_on,,,,,60,0,14,,,,,6,,,46,100
11520,note_on,,,,,256,0,13,,,,,6,,,70,100
11584,note_off,,,,,64,0,8,,,,,1,,,77,100
11616,note_on,,,,,32,0,8,,,,,1,,,74,80
11620,note_off,,,,,100,0,12,,,,,5,,,34,100
11620,note_off,,,,,100,0,16,,,,,7,,,46,100
11620,note_off,,,,,100,0,11,,,,,4,,,46,100
11652,note_off,,,,,132,0,14,,,,,6,,,46,100
11680,note_off,,,,,64,0,8,,,,,1,,,74,100
11708,note_off,,,,,188,0,9,,,,,2,,,74,100
11712,note_on,,,,,32,0,8,,,,,1,,,70,81
11712,note_on,,,,,92,0,12,,,,,5,,,46,81
11712,note_on,,,,,256,0,10,,,,,3,,,62,81
11712,note_on,,,,,60,0,14,,,,,6,,,58,100
11712,note_on,,,,,92,0,16,,,,,7,,,58,100
11712,note_on,,,,,92,0,11,,,,,4,,,58,81
11712,note_on,,,,,4,0,9,,,,,2,,,77,81
11776,note_off,,,,,64,0,8,,,,,1,,,70,100
11808,note_on,,,,,32,0,8,,,,,1,,,74,81
11812,note_off,,,,,100,0,10,,,,,3,,,62,100
11812,note_off,,,,,100,0,11,,,,,4,,,58,100
11812,note_off,,,,,100,0,16,,,,,7,,,58,100
11812,note_off,,,,,100,0,12,,,,,5,,,46,100
11840,note_off,,,,,128,0,9,,,,,2,,,77,100
11844,note_off,,,,,132,0,14,,,,,6,,,58,100
11872,note_off,,,,,64,0,8,,,,,1,,,74,100
11904,note_on,,,,,92,0,16,,,,,7,,,58,100
11904,note_on,,,,,92,0,10,,,,,3,,,62,82
11904,note_on,,,,,32,0,8,,,,,1,,,77,82
11904,note_on,,,,,60,0,14,,,,,6,,,58,100
11904,note_on,,,,,92,0,11,,,,,4,,,58,82
11904,note_on,,,,,92,0,12,,,,,5,,,46,82
11968,note_off,,,,,64,0,8,,,,,1,,,77,100
12000,note_on,,,,,32,0,8,,,,,1,,,74,83
12004,note_off,,,,,100,0,16,,,,,7,,,58,100
12004,note_off,,,,,100,0,12,,,,,5,,,46,100
12004,note_off,,,,,100,0,11,,,,,4,,,58,100
12032,note_off,,,,,0,0,13,,,,,6,,,77,100
12032,note_off,,,,,512,0,13,,,,,6,,,70,100
12032,note_off,,,,,0,0,13,,,,,6,,,74,100
12036,note_off,,,,,132,0,14,,,,,6,,,58,100
12064,note_off,,,,,64,0,8,,,,,1,,,74,100
12092,note_off,,,,,188,0,10,,,,,3,,,62,100
12096,note_on,,,,,32,0,8,,,,,1,,,70,83
12096,note_on,,,,,92,0,11,,,,,4,,,46,83
12096,note_on,,,,,60,0,14,,,,,6,,,46,100
12096,note_on,,,,,4,0,10,,,,,3,,,65,83
12096,note_on,,,,,92,0,12,,,,,5,,,34,83
12096,note_on,,,,,256,0,9,,,,,2,,,74,83
12096,note_on,,,,,92,0,16,,,,,7,,,46,100
12160,note_off,,,,,64,0,8,,,,,1,,,70,100
12192,note_on,,,,,32,0,8,,,,,1,,,74,84
12196,note_off,,,,,100,0,16,,,,,7,,,46,100
12196,note_off,,,,,100,0,9,,,,,2,,,74,100
12196,note_off,,,,,100,0,11,,,,,4,,,46,100
12196,note_off,,,,,100,0,12,,,,,5,,,34,100
12208,note_off,,,,,0,0,15,,,,,7,,,74,100
12208,note_off,,,,,0,0,15,,,,,7,,,70,100
12208,note_off,,,,,688,0,15,,,,,7,,,77,100
12224,note_off,,,,,128,0,10,,,,,3,,,65,100
12228,note_off,,,,,132,0,14,,,,,6,,,46,100
12256,note_off,,,,,64,0,8,,,,,1,,,74,100
12288,note_on,,,,,80,0,15,,,,,7,,,79,100
12288,note_on,,,,,92,0,12,,,,,5,,,35,84
12288,note_on,,,,,92,0,9,,,,,2,,,74,84
12288,note_on,,,,,92,0,16,,,,,7,,,47,100
12288,note_on,,,,,60,0,14,,,,,6,,,47,100
12288,note_on,,,,,0,0,15,,,,,7,,,74,100
12288,note_on,,,,,92,0,11,,,,,4,,,47,84
12288,note_on,,,,,32,0,8,,,,,1,,,79,84
12288,note_on,,,,,0,0,15,,,,,7,,,67,100
12288,note_on,,,,,0,0,13,,,,,6,,,74,100
12288,note_on,,,,,256,0,13,,,,,6,,,67,100
12288,note_on,,,,,0,0,13,,,,,6,,,79,100
12352,note_off,,,,,64,0,8,,,,,1,,,79,100
12384,note_on,,,,,32,0,8,,,,,1,,,74,85
12388,note_off,,,,,100,0,12,,,,,5,,,35,100
12388,note_off,,,,,100,0,11,,,,,4,,,47,100
12388,note_off,,,,,100,0,16,,,,,7,,,47,100
12420,note_off,,,,,132,0,14,,,,,6,,,47,100
12448,note_off,,,,,64,0,8,,,,,1,,,74,100
12476,note_off,,,,,188,0,9,,,,,2,,,74,100
12480,note_on,,,,,92,0,12,,,,,5,,,47,86
12480,note_on,,,,,4,0,9,,,,,2,,,79,86
12480,note_on,,,,,256,0,10,,,,,3,,,62,86
12480,note_on,,,,,60,0,14,,,,,6,,,59,100
12480,note_on,,,,,92,0,11,,,,,4,,,59,86
12480,note_on,,,,,92,0,16,,,,,7,,,59,100
12480,note_on,,,,,32,0,8,,,,,1,,,71,86
12544,note_off,,,,,64,0,8,,,,,1,,,71,100
12576,note_on,,,,,32,0,8,,,,,1,,,74,86
12580,note_off,,,,,100,0,12,,,,,5,,,47,100
12580,note_off,,,,,100,0,16,,,,,7,,,59,100
12580,note_off,,,,,100,0,11,,,,,4,,,59,100
12580,note_off,,,,,100,0,10,,,,,3,,,62,100
12608,note_off,,,,,128,0,9,,,,,2,,,79,100
12612,note_off,,,,,132,0,14,,,,,6,,,59,100
12640,note_off,,,,,64,0,8,,,,,1,,,74,100
12672,note_on,,,,,92,0,16,,,,,7,,,59,100
12672,note_on,,,,,60,0,14,,,,,6,,,59,100
12672,note_on,,,,,32,0,8,,,,,1,,,79,87
12672,note_on,,,,,92,0,11,,,,,4,,,59,87
12672,note_on,,,,,92,0,10,,,,,3,,,62,87
12672,note_on,,,,,92,0,12,,,,,5,,,47,87
12736,note_off,,,,,64,0,8,,,,,1,,,79,100
12768,note_on,,,,,32,0,8,,,,,1,,,74,88
12772,note_off,,,,,100,0,12,,,,,5,,,47,100
12772,note_off,,,,,100,0,11,,,,,4,,,59,100
12772,note_off,,,,,100,0,16,,,,,7,,,59,100
12800,note_off,,,,,512,0,13,,,,,6,,,67,100
12800,note_off,,,,,0,0,13,,,,,6,,,74,100
12800,note_off,,,,,0,0,13,,,,,6,,,79,100
12804,note_off,,,,,132,0,14,,,,,6,,,59,100
12832,note_off,,,,,64,0,8,,,,,1,,,74,100
12860,note_off,,,,,188,0,10,,,,,3,,,62,100
12864,note_on,,,,,92,0,16,,,,,7,,,47,100
12864,note_on,,,,,60,0,14,,,,,6,,,47,100
12864,note_on,,,,,92,0,12,,,,,5,,,35,88
12864,note_on,,,,,92,0,11,,,,,4,,,47,88
12864,note_on,,,,,4,0,10,,,,,3,,,67,88
12864,note_on,,,,,32,0,8,,,,,1,,,71,88
12864,note_on,,,,,256,0,9,,,,,2,,,74,88
12928,note_off,,,,,64,0,8,,,,,1,,,71,100
12960,note_on,,,,,32,0,8,,,,,1,,,74,89
12964,note_off,,,,,100,0,11,,,,,4,,,47,100
12964,note_off,,,,,100,0,16,,,,,7,,,47,100
12964,note_off,,,,,100,0,9,,,,,2,,,74,100
12964,note_off,,,,,100,0,12,,,,,5,,,35,100
12976,note_off,,,,,688,0,15,,,,,7,,,79,100
12976,note_off,,,,,0,0,15,,,,,7,,,74,100
12976,note_off,,,,,0,0,15,,,,,7,,,67,100
12992,note_off,,,,,128,0,10,,,,,3,,,67,100
12996,note_off,,,,,132,0,14,,,,,6,,,47,100
13024,note_off,,,,,64,0,8,,,,,1,,,74,100
13056,note_on,,,,,0,0,15,,,,,7,,,79,100
13056,note_on,,,,,80,0,15,,,,,7,,,72,100
13056,note_on,,,,,92,0,11,,,,,4,,,48,89
13056,note_on,,,,,60,0,14,,,,,6,,,48,100
13056,note_on,,,,,0,0,15,,,,,7,,,76,100
13056,note_on,,,,,32,0,8,,,,,1,,,79,89
13056,note_on,,,,,0,0,13,,,,,6,,,79,100
13056,note_on,,,,,256,0,13,,,,,6,,,72,100
13056,note_on,,,,,92,0,9,,,,,2,,,76,89
13056,note_on,,,,,92,0,16,,,,,7,,,48,100
13056,note_on,,,,,92,0,12,,,,,5,,,36,89
13056,note_on,,,,,0,0,13,,,,,6,,,76,100
13120,note_off,,,,,64,0,8,,,,,1,,,79,100
13152,note_on,,,,,32,0,8,,,,,1,,,76,90
13156,note_off,,,,,100,0,11,,,,,4,,,48,100
13156,note_off,,,,,100,0,12,,,,,5,,,36,100
13156,note_off,,,,,100,0,16,,,,,7,,,48,100
13188,note_off,,,,,132,0,14,,,,,6,,,48,100
13216,note_off,,,,,64,0,8,,,,,1,,,76,100
13244,note_off,,,,,188,0,9,,,,,2,,,76,100
13248,note_on,,,,,92,0,12,,,,,5,,,48,91
13248,note_on,,,,,92,0,16,,,,,7,,,60,100
13248,note_on,,,,,32,0,8,,,,,1,,,72,91
13248,note_on,,,,,60,0,14,,,,,6,,,60,100
13248,note_on,,,,,4,0,9,,,,,2,,,79,91
13248,note_on,,,,,256,0,10,,,,,3,,,64,91
13248,note_on,,,,,92,0,11,,,,,4,,,60,91
13312,note_off,,,,,64,0,8,,,,,1,,,72,100
13344,note_on,,,,,32,0,8,,,,,1,,,76,91
13348,note_off,,,,,100,0,16,,,,,7,,,60,100
13348,note_off,,,,,100,0,12,,,,,5,,,48,100
13348,note_off,,,,,100,0,10,,,,,3,,,64,100
13348,note_off,,,,,100,0,11,,,,,4,,,60,100
13376,note_off,,,,,128,0,9,,,,,2,,,79,100
13380,note_off,,,,,132,0,14,,,,,6,,,60,100
13408,note_off,,,,,64,0,8,,,,,1,,,76,100
13440,note_on,,,,,92,0,16,,,,,7,,,60,100
13440,note_on,,,,,92,0,11,,,,,4,,,60,92
13440,note_on,,,,,92,0,10,,,,,3,,,64,92
13440,note_on,,,,,60,0,14,,,,,6,,,60,100
13440,note_on,,,,,92,0,12,,,,,5,,,48,92
13440,note_on,,,,,32,0,8,,,,,1,,,79,92
13504,note_off,,,,,64,0,8,,,,,1,,,79,100
13536,note_on,,,,,32,0,8,,,,,1,,,76,93
13540,note_off,,,,,100,0,12,,,,,5,,,48,100
13540,note_off,,,,,100,0,11,,,,,4,,,60,100
13540,note_off,,,,,100,0,16,,,,,7,,,60,100
13568,note_off,,,,,0,0,13,,,,,6,,,76,100
13568,note_off,,,,,512,0,13,,,,,6,,,72,100
13568,note_off,,,,,0,0,13,,,,,6,,,79,100
13572,note_off,,,,,132,0,14,,,,,6,,,60,100
13600,note_off,,,,,64,0,8,,,,,1,,,76,100
13628,note_off,,,,,188,0,10,,,,,3,,,64,100
13632,note_on,,,,,92,0,11,,,,,4,,,48,93
13632,note_on,,,,,32,0,8,,,,,1,,,72,93
13632,note_on,,,,,92,0,12,,,,,5,,,36,93
13632,note_on,,,,,92,0,16,,,,,7,,,48,100
13632,note_on,,,,,256,0,9,,,,,2,,,76,93
13632,note_on,,,,,60,0,14,,,,,6,,,48,100
13632,note_on,,,,,4,0,10,,,,,3,,,67,93
13696,note_off,,,,,64,0,8,,,,,1,,,72,100
13728,note_on,,,,,32,0,8,,,,,1,,,76,94
13732,note_off,,,,,100,0,16,,,,,7,,,48,100
13732,note_off,,,,,100,0,12,,,,,5,,,36,100
13732,note_off,,,,,100,0,9,,,,,2,,,76,100
13732,note_off,,,,,100,0,11,,,,,4,,,48,100
13744,note_off,,,,,688,0,15,,,,,7,,,72,100
13744,note_off,,,,,0,0,15,,,,,7,,,76,100
13744,note_off,,,,,0,0,15,,,,,7,,,79,100
13760,note_off,,,,,128,0,10,,,,,3,,,67,100
13764,note_off,,,,,132,0,14,,,,,6,,,48,100
13792,note_off,,,,,64,0,8,,,,,1,,,76,100
13824,note_on,,,,,32,0,8,,,,,1,,,81,94
13824,note_on,,,,,256,0,13,,,,,6,,,69,100
13824,note_on,,,,,60,0,14,,,,,6,,,49,100
13824,note_on,,,,,0,0,13,,,,,6,,,81,100
13824,note_on,,,,,80,0,15,,,,,7,,,69,100
13824,note_on,,,,,92,0,11,,,,,4,,,49,94
13824,note_on,,,,,0,0,15,,,,,7,,,76,100
13824,note_on,,,,,0,0,15,,,,,7,,,81,100
13824,note_on,,,,,92,0,16,,,,,7,,,49,100
13824,note_on,,,,,92,0,9,,,,,2,,,76,94
13824,note_on,,,,,92,0,12,,,,,5,,,37,94
13824,note_on,,,,,0,0,13,,,,,6,,,76,100
13888,note_off,,,,,64,0,8,,,,,1,,,81,100
13920,note_on,,,,,32,0,8,,,,,1,,,76,95
13924,note_off,,,,,100,0,11,,,,,4,,,49,100
13924,note_off,,,,,100,0,12,,,,,5,,,37,100
13924,note_off,,,,,100,0,16,,,,,7,,,49,100
13956,note_off,,,,,132,0,14,,,,,6,,,49,100
13984,note_off,,,,,64,0,8,,,,,1,,,76,100
14012,note_off,,,,,188,0,9,,,,,2,,,76,100
14016,note_on,,,,,4,0,9,,,,,2,,,81,96
14016,note_on,,,,,32,0,8,,,,,1,,,73,96
14016,note_on,,,,,256,0,10,,,,,3,,,64,96
14016,note_on,,,,,92,0,11,,,,,4,,,61,96
14016,note_on,,,,,92,0,12,,,,,5,,,49,96
14016,note_on,,,,,92,0,16,,,,,7,,,61,100
14016,note_on,,,,,60,0,14,,,,,6,,,61,100
14080,note_off,,,,,64,0,8,,,,,1,,,73,100
14112,note_on,,,,,32,0,8,,,,,1,,,76,96
14116,note_off,,,,,100,0,11,,,,,4,,,61,100
14116,note_off,,,,,100,0,10,,,,,3,,,64,100
14116,note_off,,,,,100,0,16,,,,,7,,,61,100
14116,note_off,,,,,100,0,12,,,,,5,,,49,100
14144,note_off,,,,,128,0,9,,,,,2,,,81,100
14148,note_off,,,,,132,0,14,,,,,6,,,61,100
14176,note_off,,,,,64,0,8,,,,,1,,,76,100
14208,note_on,,,,,32,0,8,,,,,1,,,81,97
14208,note_on,,,,,92,0,10,,,,,3,,,64,97
14208,note_on,,,,,92,0,16,,,,,7,,,61,100
14208,note_on,,,,,92,0,11,,,,,4,,,61,97
14208,note_on,,,,,92,0,12,,,,,5,,,49,97
14208,note_on,,,,,60,0,14,,,,,6,,,61,100
14272,note_off,,,,,64,0,8,,,,,1,,,81,100
14304,note_on,,,,,32,0,8,,,,,1,,,76,98
14308,note_off,,,,,100,0,16,,,,,7,,,61,100
14308,note_off,,,,,100,0,12,,,,,5,,,49,100
14308,note_off,,,,,100,0,11,,,,,4,,,61,100
14336,note_off,,,,,512,0,13,,,,,6,,,69,100
14336,note_off,,,,,0,0,13,,,,,6,,,76,100
14336,note_off,,,,,0,0,13,,,,,6,,,81,100
14340,note_off,,,,,132,0,14,,,,,6,,,61,100
14368,note_off,,,,,64,0,8,,,,,1,,,76,100
14396,note_off,,,,,188,0,10,,,,,3,,,64,100
14400,note_on,,,,,60,0,14,,,,,6,,,49,100
14400,note_on,,,,,92,0,11,,,,,4,,,49,98
14400,note_on,,,,,4,0,10,,,,,3,,,69,98
14400,note_on,,,,,92,0,12,,,,,5,,,37,98
14400,note_on,,,,,92,0,16,,,,,7,,,49,100
14400,note_on,,,,,32,0,8,,,,,1,,,73,98
14400,note_on,,,,,256,0,9,,,,,2,,,76,98
14464,note_off,,,,,64,0,8,,,,,1,,,73,100
14496,note_on,,,,,32,0,8,,,,,1,,,76,99
14500,note_off,,,,,100,0,12,,,,,5,,,37,100
14500,note_off,,,,,100,0,9,,,,,2,,,76,100
14500,note_off,,,,,100,0,16,,,,,7,,,49,100
14500,note_off,,,,,100,0,11,,,,,4,,,49,100
14512,note_off,,,,,0,0,15,,,,,7,,,76,100
14512,note_off,,,,,688,0,15,,,,,7,,,69,100
14512,note_off,,,,,0,0,15,,,,,7,,,81,100
14528,note_off,,,,,128,0,10,,,,,3,,,69,100
14532,note_off,,,,,132,0,14,,,,,6,,,49,100
14560,note_off,,,,,64,0,8,,,,,1,,,76,100
14592,note_on,,,,,60,0,14,,,,,6,,,50,100
14592,note_on,,,,,92,0,12,,,,,5,,,38,99
14592,note_on,,,,,32,0,8,,,,,1,,,81,99
14592,note_on,,,,,0,0,13,,,,,6,,,81,100
14592,note_on,,,,,0,0,13,,,,,6,,,77,100
14592,note_on,,,,,80,0,15,,,,,7,,,74,100
14592,note_on,,,,,0,0,15,,,,,7,,,77,100
14592,note_on,,,,,256,0,13,,,,,6,,,74,100
14592,note_on,,,,,92,0,16,,,,,7,,,50,100
14592,note_on,,,,,92,0,11,,,,,4,,,50,99
14592,note_on,,,,,0,0,15,,,,,7,,,81,100
14592,note_on,,,,,92,0,9,,,,,2,,,77,99
14656,note_off,,,,,64,0,8,,,,,1,,,81,100
14688,note_on,,,,,32,0,8,,,,,1,,,77,100
14692,note_off,,,,,100,0,16,,,,,7,,,50,100
14692,note_off,,,,,100,0,11,,,,,4,,,50,100
14692,note_off,,,,,100,0,12,,,,,5,,,38,100
14724,note_off,,,,,132,0,14,,,,,6,,,50,100
14752,note_off,,,,,64,0,8,,,,,1,,,77,100
14780,note_off,,,,,188,0,9,,,,,2,,,77,100
14784,note_on,,,,,256,0,10,,,,,3,,,65,101
14784,note_on,,,,,92,0,12,,,,,5,,,50,101
14784,note_on,,,,,60,0,14,,,,,6,,,62,100
14784,note_on,,,,,32,0,8,,,,,1,,,74,101
14784,note_on,,,,,92,0,16,,,,,7,,,62,100
14784,note_on,,,,,92,0,11,,,,,4,,,62,101
14784,note_on,,,,,4,0,9,,,,,2,,,81,101
14848,note_off,,,,,64,0,8,,,,,1,,,74,100
14880,note_on,,,,,32,0,8,,,,,1,,,77,101
14884,note_off,,,,,100,0,10,,,,,3,,,65,100
14884,note_off,,,,,100,0,11,,,,,4,,,62,100
14884,note_off,,,,,100,0,12,,,,,5,,,50,100
14884,note_off,,,,,100,0,16,,,,,7,,,62,100
14912,note_off,,,,,128,0,9,,,,,2,,,81,100
14916,note_off,,,,,132,0,14,,,,,6,,,62,100
14944,note_off,,,,,64,0,8,,,,,1,,,77,100
14976,note_on,,,,,92,0,11,,,,,4,,,62,102
14976,note_on,,,,,92,0,12,,,,,5,,,50,102
14976,note_on,,,,,32,0,8,,,,,1,,,81,102
14976,note_on,,,,,92,0,10,,,,,3,,,65,102
14976,note_on,,,,,60,0,14,,,,,6,,,62,100
14976,note_on,,,,,92,0,16,,,,,7,,,62,100
15040,note_off,,,,,64,0,8,,,,,1,,,81,100
15072,note_on,,,,,32,0,8,,,,,1,,,77,103
15076,note_off,,,,,100,0,11,,,,,4,,,62,100
15076,note_off,,,,,100,0,12,,,,,5,,,50,100
15076,note_off,,,,,100,0,16,,,,,7,,,62,100
15104,note_off,,,,,512,0,13,,,,,6,,,74,100
15104,note_off,,,,,0,0,13,,,,,6,,,77,100
15104,note_off,,,,,0,0,13,,,,,6,,,81,100
15108,note_off,,,,,132,0,14,,,,,6,,,62,100
15136,note_off,,,,,64,0,8,,,,,1,,,77,100
15164,note_off,,,,,188,0,10,,,,,3,,,65,100
15168,note_on,,,,,92,0,16,,,,,7,,,50,100
15168,note_on,,,,,32,0,8,,,,,1,,,74,103
15168,note_on,,,,,60,0,14,,,,,6,,,50,100
15168,note_on,,,,,92,0,12,,,,,5,,,38,103
15168,note_on,,,,,4,0,10,,,,,3,,,69,103
15168,note_on,,,,,92,0,11,,,,,4,,,50,103
15168,note_on,,,,,256,0,9,,,,,2,,,77,103
15232,note_off,,,,,64,0,8,,,,,1,,,74,100
15264,note_on,,,,,32,0,8,,,,,1,,,77,104
15268,note_off,,,,,100,0,11,,,,,4,,,50,100
15268,note_off,,,,,100,0,9,,,,,2,,,77,100
15268,note_off,,,,,100,0,16,,,,,7,,,50,100
15268,note_off,,,,,100,0,12,,,,,5,,,38,100
15280,note_off,,,,,688,0,15,,,,,7,,,74,100
15280,note_off,,,,,0,0,15,,,,,7,,,77,100
15280,note_off,,,,,0,0,15,,,,,7,,,81,100
15296,note_off,,,,,128,0,10,,,,,3,,,69,100
15300,note_off,,,,,132,0,14,,,,,6,,,50,100
15328,note_off,,,,,64,0,8,,,,,1,,,77,100
15360,note_on,,,,,92,0,9,,,,,2,,,77,104
15360,note_on,,,,,60,0,14,,,,,6,,,50,100
15360,note_on,,,,,0,0,13,,,,,6,,,70,100
15360,note_on,,,,,0,0,13,,,,,6,,,77,100
15360,note_on,,,,,256,0,13,,,,,6,,,82,100
15360,note_on,,,,,92,0,11,,,,,4,,,50,104
15360,note_on,,,,,0,0,15,,,,,7,,,82,100
15360,note_on,,,,,92,0,12,,,,,5,,,38,104
15360,note_on,,,,,32,0,8,,,,,1,,,82,104
15360,note_on,,,,,92,0,16,,,,,7,,,50,100
15360,note_on,,,,,80,0,15,,,,,7,,,70,100
15360,note_on,,,,,0,0,15,,,,,7,,,77,100
15424,note_off,,,,,64,0,8,,,,,1,,,82,100
15456,note_on,,,,,32,0,8,,,,,1,,,77,105
15460,note_off,,,,,100,0,12,,,,,5,,,38,100
15460,note_off,,,,,100,0,11,,,,,4,,,50,100
15460,note_off,,,,,100,0,14,,,,,6,,,50,100
15492,note_off,,,,,132,0,16,,,,,7,,,50,100
15520,note_off,,,,,64,0,8,,,,,1,,,77,100
15548,note_off,,,,,188,0,9,,,,,2,,,77,100
15552,note_on,,,,,92,0,12,,,,,5,,,50,104
15552,note_on,,,,,60,0,16,,,,,7,,,62,100
15552,note_on,,,,,92,0,14,,,,,6,,,62,100
15552,note_on,,,,,256,0,10,,,,,3,,,65,104
15552,note_on,,,,,92,0,11,,,,,4,,,62,104
15552,note_on,,,,,4,0,9,,,,,2,,,82,104
15552,note_on,,,,,32,0,8,,,,,1,,,74,104
15616,note_off,,,,,64,0,8,,,,,1,,,74,100
15648,note_on,,,,,32,0,8,,,,,1,,,77,103
15652,note_off,,,,,100,0,14,,,,,6,,,62,100
15652,note_off,,,,,100,0,12,,,,,5,,,50,100
15652,note_off,,,,,100,0,9,,,,,2,,,82,100
15652,note_off,,,,,100,0,11,,,,,4,,,62,100
15652,note_off,,,,,100,0,10,,,,,3,,,65,100
15684,note_off,,,,,132,0,16,,,,,7,,,62,100
15712,note_off,,,,,64,0,8,,,,,1,,,77,100
15744,note_on,,,,,92,0,12,,,,,5,,,50,103
15744,note_on,,,,,92,0,14,,,,,6,,,62,100
15744,note_on,,,,,60,0,16,,,,,7,,,62,100
15744,note_on,,,,,92,0,11,,,,,4,,,62,103
15744,note_on,,,,,32,0,8,,,,,1,,,82,103
15744,note_on,,,,,92,0,10,,,,,3,,,65,103
15808,note_off,,,,,64,0,8,,,,,1,,,82,100
15840,note_on,,,,,32,0,8,,,,,1,,,77,102
15844,note_off,,,,,100,0,11,,,,,4,,,62,100
15844,note_off,,,,,100,0,14,,,,,6,,,62,100
15844,note_off,,,,,100,0,12,,,,,5,,,50,100
15872,note_off,,,,,512,0,13,,,,,6,,,82,100
15872,note_off,,,,,0,0,13,,,,,6,,,70,100
15872,note_off,,,,,0,0,13,,,,,6,,,77,100
15876,note_off,,,,,132,0,16,,,,,7,,,62,100
15904,note_off,,,,,64,0,8,,,,,1,,,77,100
15932,note_off,,,,,188,0,10,,,,,3,,,65,100
15936,note_on,,,,,92,0,14,,,,,6,,,50,100
15936,note_on,,,,,60,0,16,,,,,7,,,50,100
15936,note_on,,,,,32,0,8,,,,,1,,,74,101
15936,note_on,,,,,4,0,10,,,,,3,,,70,101
15936,note_on,,,,,284,0,9,,,,,2,,,77,101
15936,note_on,,,,,92,0,11,,,,,4,,,50,101
15936,note_on,,,,,92,0,12,,,,,5,,,38,101
16000,note_off,,,,,64,0,8,,,,,1,,,74,100
16032,note_on,,,,,32,0,8,,,,,1,,,77,101
16036,note_off,,,,,100,0,12,,,,,5,,,38,100
16036,note_off,,,,,100,0,9,,,,,2,,,77,100
16036,note_off,,,,,100,0,14,,,,,6,,,50,100
16036,note_off,,,,,100,0,11,,,,,4,,,50,100
16048,note_off,,,,,0,0,15,,,,,7,,,82,100
16048,note_off,,,,,0,0,15,,,,,7,,,77,100
16048,note_off,,,,,688,0,15,,,,,7,,,70,100
16064,note_off,,,,,128,0,10,,,,,3,,,70,100
16068,note_off,,,,,132,0,16,,,,,7,,,50,100
16096,note_off,,,,,64,0,8,,,,,1,,,77,100
16128,note_on,,,,,80,0,15,,,,,7,,,79,100
16128,note_on,,,,,0,0,13,,,,,6,,,72,100
16128,note_on,,,,,0,0,13,,,,,6,,,76,100
16128,note_on,,,,,92,0,9,,,,,2,,,79,100
16128,note_on,,,,,256,0,13,,,,,6,,,79,100
16128,note_on,,,,,60,0,16,,,,,7,,,48,100
16128,note_on,,,,,0,0,15,,,,,7,,,72,100
16128,note_on,,,,,92,0,12,,,,,5,,,36,100
16128,note_on,,,,,32,0,8,,,,,1,,,76,100
16128,note_on,,,,,92,0,11,,,,,4,,,48,100
16128,note_on,,,,,64,0,10,,,,,3,,,67,100
16128,note_on,,,,,92,0,14,,,,,6,,,48,100
16128,note_on,,,,,0,0,15,,,,,7,,,76,100
16192,note_off,,,,,64,0,9,,,,,2,,,79,100
16224,note_on,,,,,32,0,9,,,,,2,,,72,100
16228,note_off,,,,,100,0,10,,,,,3,,,67,100
16228,note_off,,,,,100,0,11,,,,,4,,,48,100
16228,note_off,,,,,100,0,12,,,,,5,,,36,100
16228,note_off,,,,,100,0,14,,,,,6,,,48,100
16228,note_off,,,,,100,0,8,,,,,1,,,76,100
16260,note_off,,,,,132,0,16,,,,,7,,,48,100
16288,note_off,,,,,64,0,9,,,,,2,,,72,100
16320,note_on,,,,,60,0,16,,,,,7,,,46,100
16320,note_on,,,,,92,0,12,,,,,5,,,34,101
16320,note_on,,,,,92,0,11,,,,,4,,,46,101
16320,note_on,,,,,92,0,10,,,,,3,,,67,101
16320,note_on,,,,,32,0,9,,,,,2,,,76,101
16320,note_on,,,,,92,0,8,,,,,1,,,72,101
16320,note_on,,,,,92,0,14,,,,,6,,,46,100
16384,note_off,,,,,0,0,15,,,,,7,,,76,100
16384,note_off,,,,,0,0,15,,,,,7,,,72,100
16384,note_off,,,,,64,0,9,,,,,2,,,76,100
16384,note_off,,,,,256,0,15,,,,,7,,,79,100
16384,note_off,,,,,0,0,13,,,,,6,,,72,100
16384,note_off,,,,,0,0,13,,,,,6,,,76,100
16384,note_off,,,,,256,0,13,,,,,6,,,79,100
16416,note_on,,,,,32,0,9,,,,,2,,,79,101
16420,note_off,,,,,100,0,8,,,,,1,,,72,100
16420,note_off,,,,,100,0,10,,,,,3,,,67,100
16420,note_off,,,,,100,0,12,,,,,5,,,34,100
16420,note_off,,,,,100,0,11,,,,,4,,,46,100
16420,note_off,,,,,100,0,14,,,,,6,,,46,100
16452,note_off,,,,,132,0,16,,,,,7,,,46,100
16480,note_off,,,,,64,0,9,,,,,2,,,79,100
16512,note_on,,,,,128,0,13,,,,,6,,,72,100
16512,note_on,,,,,128,0,15,,,,,7,,,72,100
16512,note_on,,,,,32,0,9,,,,,2,,,81,102
16512,note_on,,,,,92,0,12,,,,,5,,,33,102
16512,note_on,,,,,92,0,14,,,,,6,,,45,100
16512,note_on,,,,,92,0,8,,,,,1,,,77,102
16512,note_on,,,,,92,0,11,,,,,4,,,45,102
16512,note_on,,,,,92,0,10,,,,,3,,,60,102
16512,note_on,,,,,60,0,16,,,,,7,,,45,100
16512,note_on,,,,,0,0,13,,,,,6,,,77,100
16512,note_on,,,,,0,0,15,,,,,7,,,77,100
16576,note_off,,,,,64,0,9,,,,,2,,,81,100
16608,note_on,,,,,32,0,9,,,,,2,,,69,103
16612,note_off,,,,,100,0,8,,,,,1,,,77,100
16612,note_off,,,,,100,0,12,,,,,5,,,33,100
16612,note_off,,,,,100,0,10,,,,,3,,,60,100
16612,note_off,,,,,100,0,11,,,,,4,,,45,100
16612,note_off,,,,,100,0,14,,,,,6,,,45,100
16640,note_off,,,,,128,0,13,,,,,6,,,72,100
16640,note_off,,,,,128,0,15,,,,,7,,,72,100
16644,note_off,,,,,132,0,16,,,,,7,,,45,100
16672,note_off,,,,,64,0,9,,,,,2,,,69,100
16704,note_on,,,,,92,0,12,,,,,5,,,41,103
16704,note_on,,,,,92,0,10,,,,,3,,,60,103
16704,note_on,,,,,60,0,16,,,,,7,,,41,100
16704,note_on,,,,,64,0,13,,,,,6,,,69,100
16704,note_on,,,,,64,0,15,,,,,7,,,69,100
16704,note_on,,,,,92,0,8,,,,,1,,,69,103
16704,note_on,,,,,92,0,11,,,,,4,,,41,103
16704,note_on,,,,,92,0,14,,,,,6,,,41,100
16704,note_on,,,,,32,0,9,,,,,2,,,72,103
16768,note_off,,,,,64,0,9,,,,,2,,,72,100
16800,note_on,,,,,32,0,9,,,,,2,,,77,104
16804,note_off,,,,,100,0,8,,,,,1,,,69,100
16804,note_off,,,,,100,0,11,,,,,4,,,41,100
16804,note_off,,,,,100,0,10,,,,,3,,,60,100
16804,note_off,,,,,100,0,12,,,,,5,,,41,100
16804,note_off,,,,,100,0,14,,,,,6,,,41,100
16832,note_off,,,,,128,0,13,,,,,6,,,69,100
16832,note_off,,,,,128,0,15,,,,,7,,,69,100
16836,note_off,,,,,132,0,16,,,,,7,,,41,100
16864,note_off,,,,,64,0,9,,,,,2,,,77,100
16896,note_on,,,,,92,0,12,,,,,5,,,31,105
16896,note_on,,,,,92,0,14,,,,,6,,,43,100
16896,note_on,,,,,60,0,16,,,,,7,,,43,100
16896,note_on,,,,,92,0,11,,,,,4,,,43,105
16896,note_on,,,,,32,0,9,,,,,2,,,77,105
16896,note_on,,,,,92,0,10,,,,,3,,,58,105
16896,note_on,,,,,92,0,8,,,,,1,,,70,105
16896,note_on,,,,,64,0,15,,,,,7,,,70,100
16896,note_on,,,,,64,0,13,,,,,6,,,70,100
16960,note_off,,,,,64,0,9,,,,,2,,,77,100
16992,note_on,,,,,32,0,9,,,,,2,,,74,105
16996,note_off,,,,,100,0,8,,,,,1,,,70,100
16996,note_off,,,,,100,0,10,,,,,3,,,58,100
17024,note_off,,,,,128,0,13,,,,,6,,,70,100
17024,note_off,,,,,128,0,15,,,,,7,,,70,100
17056,note_off,,,,,64,0,9,,,,,2,,,74,100
17088,note_on,,,,,64,0,13,,,,,6,,,67,100
17088,note_on,,,,,32,0,9,,,,,2,,,70,104
17088,note_on,,,,,92,0,8,,,,,1,,,77,104
17088,note_on,,,,,92,0,10,,,,,3,,,62,104
17088,note_on,,,,,64,0,15,,,,,7,,,67,100
17152,note_off,,,,,64,0,15,,,,,7,,,77,100
17152,note_off,,,,,256,0,16,,,,,7,,,43,100
17152,note_off,,,,,256,0,12,,,,,5,,,31,100
17152,note_off,,,,,64,0,9,,,,,2,,,70,100
17152,note_off,,,,,256,0,11,,,,,4,,,43,100
17152,note_off,,,,,64,0,13,,,,,6,,,77,100
17152,note_off,,,,,256,0,14,,,,,6,,,43,100
17184,note_on,,,,,32,0,9,,,,,2,,,74,103
17188,note_off,,,,,100,0,10,,,,,3,,,62,100
17188,note_off,,,,,100,0,8,,,,,1,,,77,100
17248,note_off,,,,,64,0,9,,,,,2,,,74,100
17280,note_on,,,,,128,0,14,,,,,6,,,48,100
17280,note_on,,,,,128,0,11,,,,,4,,,48,102
17280,note_on,,,,,128,0,12,,,,,5,,,36,102
17280,note_on,,,,,92,0,10,,,,,3,,,64,102
17280,note_on,,,,,128,0,15,,,,,7,,,76,100
17280,note_on,,,,,128,0,16,,,,,7,,,48,100
17280,note_on,,,,,128,0,13,,,,,6,,,76,100
17280,note_on,,,,,32,0,9,,,,,2,,,72,102
17280,note_on,,,,,92,0,8,,,,,1,,,72,102
17344,note_off,,,,,64,0,13,,,,,6,,,67,100
17344,note_off,,,,,64,0,9,,,,,2,,,72,100
17344,note_off,,,,,64,0,15,,,,,7,,,67,100
17376,note_on,,,,,32,0,9,,,,,2,,,67,102
17380,note_off,,,,,100,0,10,,,,,3,,,64,100
17380,note_off,,,,,100,0,8,,,,,1,,,72,100
17440,note_off,,,,,64,0,9,,,,,2,,,67,100
17472,note_on,,,,,92,0,8,,,,,1,,,76,101
17472,note_on,,,,,128,0,15,,,,,7,,,72,100
17472,note_on,,,,,32,0,9,,,,,2,,,64,101
17472,note_on,,,,,128,0,13,,,,,6,,,72,100
17472,note_on,,,,,92,0,10,,,,,3,,,60,101
17536,note_off,,,,,256,0,12,,,,,5,,,36,100
17536,note_off,,,,,256,0,14,,,,,6,,,48,100
17536,note_off,,,,,64,0,13,,,,,6,,,76,100
17536,note_off,,,,,256,0,11,,,,,4,,,48,100
17536,note_off,,,,,256,0,16,,,,,7,,,48,100
17536,note_off,,,,,64,0,9,,,,,2,,,64,100
17536,note_off,,,,,64,0,15,,,,,7,,,76,100
17568,note_on,,,,,32,0,9,,,,,2,,,72,100
17572,note_off,,,,,100,0,8,,,,,1,,,76,100
17572,note_off,,,,,100,0,10,,,,,3,,,60,100
17600,note_off,,,,,64,0,13,,,,,6,,,72,100
17600,note_off,,,,,64,0,15,,,,,7,,,72,100
17632,note_off,,,,,64,0,9,,,,,2,,,72,100
17664,note_on,,,,,64,0,13,,,,,6,,,69,100
17664,note_on,,,,,0,0,13,,,,,6,,,77,100
17664,note_on,,,,,128,0,11,,,,,4,,,41,100
17664,note_on,,,,,32,0,9,,,,,2,,,69,100
17664,note_on,,,,,128,0,14,,,,,6,,,41,100
17664,note_on,,,,,64,0,15,,,,,7,,,69,100
17664,note_on,,,,,0,0,15,,,,,7,,,77,100
17664,note_on,,,,,128,0,16,,,,,7,,,41,100
17664,note_on,,,,,92,0,8,,,,,1,,,77,100
17664,note_on,,,,,92,0,10,,,,,3,,,60,100
17664,note_on,,,,,128,0,12,,,,,5,,,41,100
17728,note_off,,,,,64,0,9,,,,,2,,,69,100
17760,note_on,,,,,32,0,9,,,,,2,,,72,99
17764,note_off,,,,,100,0,14,,,,,6,,,41,100
17764,note_off,,,,,100,0,11,,,,,4,,,41,100
17764,note_off,,,,,100,0,12,,,,,5,,,41,100
17792,note_off,,,,,128,0,10,,,,,3,,,60,100
17796,note_off,,,,,132,0,16,,,,,7,,,41,100
17824,note_off,,,,,64,0,9,,,,,2,,,72,100
17856,note_on,,,,,32,0,9,,,,,2,,,77,97
17856,note_on,,,,,64,0,10,,,,,3,,,60,97
17856,note_on,,,,,92,0,11,,,,,4,,,53,97
17856,note_on,,,,,92,0,14,,,,,6,,,53,100
17856,note_on,,,,,92,0,12,,,,,5,,,41,97
17856,note_on,,,,,60,0,16,,,,,7,,,53,100
17920,note_off,,,,,256,0,13,,,,,6,,,69,100
17920,note_off,,,,,64,0,9,,,,,2,,,77,100
17920,note_off,,,,,256,0,8,,,,,1,,,77,100
17920,note_off,,,,,0,0,15,,,,,7,,,77,100
17920,note_off,,,,,0,0,13,,,,,6,,,77,100
17920,note_off,,,,,256,0,15,,,,,7,,,69,100
17952,note_on,,,,,32,0,9,,,,,2,,,72,95
17956,note_off,,,,,100,0,12,,,,,5,,,41,100
17956,note_off,,,,,100,0,14,,,,,6,,,53,100
17956,note_off,,,,,100,0,11,,,,,4,,,53,100
17984,note_off,,,,,128,0,10,,,,,3,,,60,100
17988,note_off,,,,,132,0,16,,,,,7,,,53,100
18016,note_off,,,,,64,0,9,,,,,2,,,72,100
18048,note_on,,,,,128,0,15,,,,,7,,,72,100
18048,note_on,,,,,0,0,15,,,,,7,,,69,100
18048,note_on,,,,,92,0,14,,,,,6,,,51,100
18048,note_on,,,,,92,0,11,,,,,4,,,51,93
18048,note_on,,,,,0,0,13,,,,,6,,,69,100
18048,note_on,,,,,64,0,10,,,,,3,,,60,93
18048,note_on,,,,,32,0,9,,,,,2,,,69,93
18048,note_on,,,,,92,0,12,,,,,5,,,39,93
18048,note_on,,,,,128,0,13,,,,,6,,,72,100
18048,note_on,,,,,60,0,16,,,,,7,,,51,100
18112,note_off,,,,,64,0,9,,,,,2,,,69,100
18144,note_on,,,,,32,0,9,,,,,2,,,72,91
18148,note_off,,,,,100,0,12,,,,,5,,,39,100
18148,note_off,,,,,100,0,14,,,,,6,,,51,100
18148,note_off,,,,,100,0,11,,,,,4,,,51,100
18176,note_off,,,,,128,0,15,,,,,7,,,72,100
18176,note_off,,,,,128,0,13,,,,,6,,,72,100
18176,note_off,,,,,128,0,10,,,,,3,,,60,100
18180,note_off,,,,,132,0,16,,,,,7,,,51,100
18208,note_off,,,,,64,0,9,,,,,2,,,72,100
18240,note_on,,,,,32,0,9,,,,,2,,,77,89
18240,note_on,,,,,60,0,16,,,,,7,,,39,100
18240,note_on,,,,,64,0,10,,,,,3,,,60,89
18240,note_on,,,,,92,0,11,,,,,4,,,39,89
18240,note_on,,,,,320,0,8,,,,,1,,,77,89
18240,note_on,,,,,92,0,14,,,,,6,,,39,100
18240,note_on,,,,,64,0,13,,,,,6,,,77,100
18240,note_on,,,,,92,0,12,,,,,5,,,39,89
18240,note_on,,,,,64,0,15,,,,,7,,,65,100
18304,note_off,,,,,64,0,13,,,,,6,,,69,100
18304,note_off,,,,,64,0,9,,,,,2,,,77,100
18304,note_off,,,,,64,0,15,,,,,7,,,69,100
18336,note_on,,,,,32,0,9,,,,,2,,,72,87
18340,note_off,,,,,100,0,11,,,,,4,,,39,100
18340,note_off,,,,,100,0,14,,,,,6,,,39,100
18340,note_off,,,,,100,0,12,,,,,5,,,39,100
18340,note_off,,,,,100,0,8,,,,,1,,,77,100
18368,note_off,,,,,128,0,10,,,,,3,,,60,100
18368,note_off,,,,,64,0,15,,,,,7,,,65,100
18368,note_off,,,,,64,0,13,,,,,6,,,77,100
18372,note_off,,,,,132,0,16,,,,,7,,,39,100
18400,note_off,,,,,64,0,9,,,,,2,,,72,100
18432,note_on,,,,,64,0,10,,,,,3,,,62,85
18432,note_on,,,,,0,0,15,,,,,7,,,65,100
18432,note_on,,,,,0,0,15,,,,,7,,,62,100
18432,note_on,,,,,64,0,15,,,,,7,,,70,100
18432,note_on,,,,,92,0,11,,,,,4,,,38,85
18432,note_on,,,,,92,0,8,,,,,1,,,77,85
18432,note_on,,,,,32,0,9,,,,,2,,,70,85
18432,note_on,,,,,92,0,14,,,,,6,,,38,100
18432,note_on,,,,,92,0,12,,,,,5,,,38,85
18432,note_on,,,,,60,0,16,,,,,7,,,38,100
18432,note_on,,,,,64,0,13,,,,,6,,,70,100
18432,note_on,,,,,0,0,13,,,,,6,,,65,100
18496,note_off,,,,,64,0,9,,,,,2,,,70,100
18528,note_on,,,,,32,0,9,,,,,2,,,72,85
18532,note_off,,,,,100,0,11,,,,,4,,,38,100
18532,note_off,,,,,100,0,14,,,,,6,,,38,100
18532,note_off,,,,,100,0,12,,,,,5,,,38,100
18560,note_off,,,,,128,0,13,,,,,6,,,70,100
18560,note_off,,,,,128,0,10,,,,,3,,,62,100
18564,note_off,,,,,132,0,16,,,,,7,,,38,100
18592,note_off,,,,,64,0,9,,,,,2,,,72,100
18620,note_off,,,,,188,0,8,,,,,1,,,77,100
18624,note_on,,,,,92,0,14,,,,,6,,,50,100
18624,note_on,,,,,92,0,11,,,,,4,,,50,86
18624,note_on,,,,,32,0,9,,,,,2,,,74,86
18624,note_on,,,,,4,0,8,,,,,1,,,70,86
18624,note_on,,,,,64,0,10,,,,,3,,,62,86
18624,note_on,,,,,60,0,16,,,,,7,,,50,100
18624,note_on,,,,,92,0,12,,,,,5,,,38,86
18624,note_on,,,,,64,0,13,,,,,6,,,77,100
18688,note_off,,,,,64,0,9,,,,,2,,,74,100
18720,note_on,,,,,32,0,9,,,,,2,,,75,87
18724,note_off,,,,,100,0,14,,,,,6,,,50,100
18724,note_off,,,,,100,0,12,,,,,5,,,38,100
18724,note_off,,,,,100,0,11,,,,,4,,,50,100
18752,note_off,,,,,128,0,8,,,,,1,,,70,100
18752,note_off,,,,,128,0,13,,,,,6,,,77,100
18752,note_off,,,,,128,0,10,,,,,3,,,62,100
18756,note_off,,,,,132,0,16,,,,,7,,,50,100
18784,note_off,,,,,64,0,9,,,,,2,,,75,100
18812,note_off,,,,,380,0,15,,,,,7,,,70,100
18816,note_on,,,,,64,0,13,,,,,6,,,74,100
18816,note_on,,,,,60,0,16,,,,,7,,,58,100
18816,note_on,,,,,92,0,12,,,,,5,,,46,87
18816,note_on,,,,,4,0,15,,,,,7,,,68,100
18816,note_on,,,,,32,0,9,,,,,2,,,77,87
18816,note_on,,,,,92,0,11,,,,,4,,,58,87
18816,note_on,,,,,92,0,14,,,,,6,,,58,100
18816,note_on,,,,,64,0,10,,,,,3,,,62,87
18908,note_off,,,,,92,0,13,,,,,6,,,74,100
18912,note_on,,,,,4,0,13,,,,,6,,,72,100
18916,note_off,,,,,100,0,12,,,,,5,,,46,100
18916,note_off,,,,,100,0,11,,,,,4,,,58,100
18916,note_off,,,,,100,0,14,,,,,6,,,58,100
18944,note_off,,,,,128,0,10,,,,,3,,,62,100
18944,note_off,,,,,128,0,9,,,,,2,,,77,100
18944,note_off,,,,,32,0,13,,,,,6,,,65,100
18948,note_off,,,,,132,0,16,,,,,7,,,58,100
19004,note_off,,,,,60,0,13,,,,,6,,,72,100
19008,note_on,,,,,256,0,8,,,,,1,,,80,89
19008,note_on,,,,,4,0,13,,,,,6,,,70,100
19008,note_on,,,,,92,0,12,,,,,5,,,38,89
19008,note_on,,,,,92,0,14,,,,,6,,,38,100
19008,note_on,,,,,92,0,11,,,,,4,,,38,89
19008,note_on,,,,,64,0,9,,,,,2,,,70,89
19008,note_on,,,,,60,0,16,,,,,7,,,38,100
19008,note_on,,,,,64,0,10,,,,,3,,,65,89
19072,note_off,,,,,256,0,15,,,,,7,,,68,100
19100,note_off,,,,,92,0,13,,,,,6,,,70,100
19104,note_on,,,,,4,0,13,,,,,6,,,68,100
19108,note_off,,,,,100,0,14,,,,,6,,,38,100
19108,note_off,,,,,100,0,12,,,,,5,,,38,100
19108,note_off,,,,,100,0,11,,,,,4,,,38,100
19108,note_off,,,,,100,0,9,,,,,2,,,70,100
19108,note_off,,,,,100,0,8,,,,,1,,,80,100
19120,note_off,,,,,48,0,15,,,,,7,,,62,100
19120,note_off,,,,,0,0,15,,,,,7,,,65,100
19136,note_off,,,,,128,0,10,,,,,3,,,65,100
19140,note_off,,,,,132,0,16,,,,,7,,,38,100
19168,note_off,,,,,64,0,13,,,,,6,,,68,100
19200,note_on,,,,,80,0,15,,,,,7,,,68,100
19200,note_on,,,,,0,0,13,,,,,6,,,58,100
19200,note_on,,,,,32,0,13,,,,,6,,,68,100
19200,note_on,,,,,0,0,15,,,,,7,,,63,100
19200,note_on,,,,,92,0,12,,,,,5,,,39,90
19200,note_on,,,,,0,0,15,,,,,7,,,58,100
19200,note_on,,,,,64,0,10,,,,,3,,,63,90
19200,note_on,,,,,60,0,16,,,,,7,,,39,100
19200,note_on,,,,,92,0,14,,,,,6,,,39,100
19200,note_on,,,,,92,0,8,,,,,1,,,80,90
19200,note_on,,,,,92,0,11,,,,,4,,,39,90
19200,note_on,,,,,92,0,9,,,,,2,,,70,90
19220,note_off,,,,,20,0,8,,,,,1,,,80,100
19248,note_on,,,,,28,0,8,,,,,1,,,82,90
19268,note_off,,,,,20,0,8,,,,,1,,,82,100
19296,note_on,,,,,28,0,8,,,,,1,,,80,91
19300,note_off,,,,,100,0,14,,,,,6,,,39,100
19300,note_off,,,,,100,0,9,,,,,2,,,70,100
19300,note_off,,,,,100,0,11,,,,,4,,,39,100
19300,note_off,,,,,100,0,12,,,,,5,,,39,100
19328,note_off,,,,,128,0,10,,,,,3,,,63,100
19332,note_off,,,,,132,0,16,,,,,7,,,39,100
19388,note_off,,,,,188,0,13,,,,,6,,,68,100
19388,note_off,,,,,188,0,15,,,,,7,,,68,100
19388,note_off,,,,,92,0,8,,,,,1,,,80,100
19392,note_on,,,,,60,0,16,,,,,7,,,51,100
19392,note_on,,,,,4,0,13,,,,,6,,,67,100
19392,note_on,,,,,64,0,10,,,,,3,,,63,91
19392,note_on,,,,,4,0,15,,,,,7,,,67,100
19392,note_on,,,,,92,0,11,,,,,4,,,51,91
19392,note_on,,,,,92,0,9,,,,,2,,,70,91
19392,note_on,,,,,92,0,14,,,,,6,,,51,100
19392,note_on,,,,,92,0,12,,,,,5,,,39,91
19392,note_on,,,,,4,0,8,,,,,1,,,79,91
19456,note_off,,,,,64,0,13,,,,,6,,,58,100
19492,note_off,,,,,100,0,9,,,,,2,,,70,100
19492,note_off,,,,,100,0,12,,,,,5,,,39,100
19492,note_off,,,,,100,0,14,,,,,6,,,51,100
19492,note_off,,,,,100,0,11,,,,,4,,,51,100
19520,note_off,,,,,128,0,8,,,,,1,,,79,100
19520,note_off,,,,,64,0,13,,,,,6,,,67,100
19520,note_off,,,,,128,0,10,,,,,3,,,63,100
19524,note_off,,,,,132,0,16,,,,,7,,,51,100
19584,note_on,,,,,92,0,12,,,,,5,,,39,93
19584,note_on,,,,,92,0,14,,,,,6,,,51,100
19584,note_on,,,,,92,0,11,,,,,4,,,51,93
19584,note_on,,,,,0,0,13,,,,,6,,,67,100
19584,note_on,,,,,92,0,9,,,,,2,,,70,93
19584,note_on,,,,,60,0,16,,,,,7,,,51,100
19584,note_on,,,,,64,0,10,,,,,3,,,67,93
19584,note_on,,,,,64,0,13,,,,,6,,,75,100
19648,note_off,,,,,64,0,9,,,,,2,,,70,100
19680,note_on,,,,,32,0,9,,,,,2,,,75,93
19684,note_off,,,,,100,0,14,,,,,6,,,51,100
19684,note_off,,,,,100,0,12,,,,,5,,,39,100
19684,note_off,,,,,100,0,11,,,,,4,,,51,100
19712,note_off,,,,,128,0,13,,,,,6,,,75,100
19712,note_off,,,,,128,0,10,,,,,3,,,67,100
19716,note_off,,,,,132,0,16,,,,,7,,,51,100
19744,note_off,,,,,64,0,9,,,,,2,,,75,100
19776,note_on,,,,,256,0,8,,,,,1,,,79,94
19776,note_on,,,,,60,0,16,,,,,7,,,39,100
19776,note_off,,,,,384,0,15,,,,,7,,,67,100
19776,note_on,,,,,92,0,11,,,,,4,,,39,94
19776,note_on,,,,,92,0,14,,,,,6,,,39,100
19776,note_on,,,,,32,0,9,,,,,2,,,79,94
19776,note_on,,,,,64,0,13,,,,,6,,,79,100
19776,note_on,,,,,92,0,12,,,,,5,,,39,94
19776,note_on,,,,,64,0,10,,,,,3,,,70,94
19840,note_off,,,,,64,0,9,,,,,2,,,79,100
19840,note_off,,,,,64,0,13,,,,,6,,,67,100
19872,note_on,,,,,32,0,9,,,,,2,,,75,95
19876,note_off,,,,,100,0,12,,,,,5,,,39,100
19876,note_off,,,,,100,0,14,,,,,6,,,39,100
19876,note_off,,,,,100,0,8,,,,,1,,,79,100
19876,note_off,,,,,100,0,11,,,,,4,,,39,100
19888,note_off,,,,,112,0,15,,,,,7,,,63,100
19888,note_off,,,,,0,0,15,,,,,7,,,58,100
19904,note_off,,,,,64,0,13,,,,,6,,,79,100
19904,note_off,,,,,128,0,10,,,,,3,,,70,100
19908,note_off,,,,,132,0,16,,,,,7,,,39,100
19936,note_off,,,,,64,0,9,,,,,2,,,75,100
19968,note_on,,,,,92,0,11,,,,,4,,,40,95
19968,note_on,,,,,64,0,10,,,,,3,,,64,95
19968,note_on,,,,,92,0,12,,,,,5,,,40,95
19968,note_on,,,,,0,0,15,,,,,7,,,64,100
19968,note_on,,,,,80,0,15,,,,,7,,,72,100
19968,note_on,,,,,92,0,14,,,,,6,,,40,100
19968,note_on,,,,,64,0,13,,,,,6,,,72,100
19968,note_on,,,,,0,0,13,,,,,6,,,67,100
19968,note_on,,,,,60,0,16,,,,,7,,,40,100
19968,note_on,,,,,92,0,8,,,,,1,,,79,95
19968,note_on,,,,,32,0,9,,,,,2,,,72,95
19968,note_on,,,,,0,0,15,,,,,7,,,67,100
20032,note_off,,,,,64,0,9,,,,,2,,,72,100
20064,note_on,,,,,32,0,9,,,,,2,,,74,96
20068,note_off,,,,,100,0,12,,,,,5,,,40,100
20068,note_off,,,,,100,0,11,,,,,4,,,40,100
20068,note_off,,,,,100,0,14,,,,,6,,,40,100
20096,note_off,,,,,128,0,10,,,,,3,,,64,100
20096,note_off,,,,,128,0,13,,,,,6,,,72,100
20100,note_off,,,,,132,0,16,,,,,7,,,40,100
20128,note_off,,,,,64,0,9,,,,,2,,,74,100
20156,note_off,,,,,188,0,8,,,,,1,,,79,100
20160,note_on,,,,,60,0,16,,,,,7,,,52,100
20160,note_on,,,,,4,0,8,,,,,1,,,72,97
20160,note_on,,,,,32,0,9,,,,,2,,,76,97
20160,note_on,,,,,64,0,13,,,,,6,,,79,100
20160,note_on,,,,,92,0,12,,,,,5,,,40,97
20160,note_on,,,,,92,0,11,,,,,4,,,52,97
20160,note_on,,,,,92,0,14,,,,,6,,,52,100
20160,note_on,,,,,64,0,10,,,,,3,,,64,97
20224,note_off,,,,,64,0,9,,,,,2,,,76,100
20256,note_on,,,,,32,0,9,,,,,2,,,77,97
20260,note_off,,,,,100,0,11,,,,,4,,,52,100
20260,note_off,,,,,100,0,14,,,,,6,,,52,100
20260,note_off,,,,,100,0,12,,,,,5,,,40,100
20288,note_off,,,,,128,0,10,,,,,3,,,64,100
20288,note_off,,,,,128,0,13,,,,,6,,,79,100
20288,note_off,,,,,128,0,8,,,,,1,,,72,100
20292,note_off,,,,,132,0,16,,,,,7,,,52,100
20320,note_off,,,,,64,0,9,,,,,2,,,77,100
20348,note_off,,,,,380,0,15,,,,,7,,,72,100
20352,note_on,,,,,4,0,15,,,,,7,,,70,100
20352,note_on,,,,,60,0,16,,,,,7,,,60,100
20352,note_on,,,,,64,0,10,,,,,3,,,64,98
20352,note_on,,,,,92,0,14,,,,,6,,,60,100
20352,note_on,,,,,32,0,9,,,,,2,,,79,98
20352,note_on,,,,,92,0,11,,,,,4,,,60,98
20352,note_on,,,,,92,0,12,,,,,5,,,48,98
20352,note_on,,,,,64,0,13,,,,,6,,,76,100
20444,note_off,,,,,92,0,13,,,,,6,,,76,100
20448,note_on,,,,,4,0,13,,,,,6,,,74,100
20452,note_off,,,,,100,0,14,,,,,6,,,60,100
20452,note_off,,,,,100,0,11,,,,,4,,,60,100
20452,note_off,,,,,100,0,12,,,,,5,,,48,100
20480,note_off,,,,,32,0,13,,,,,6,,,67,100
20480,note_off,,,,,128,0,9,,,,,2,,,79,100
20480,note_off,,,,,128,0,10,,,,,3,,,64,100
20484,note_off,,,,,132,0,16,,,,,7,,,60,100
20540,note_off,,,,,60,0,13,,,,,6,,,74,100
20544,note_on,,,,,60,0,16,,,,,7,,,40,100
20544,note_on,,,,,64,0,9,,,,,2,,,72,100
20544,note_on,,,,,92,0,12,,,,,5,,,40,100
20544,note_on,,,,,92,0,11,,,,,4,,,40,100
20544,note_on,,,,,92,0,14,,,,,6,,,40,100
20544,note_on,,,,,64,0,10,,,,,3,,,67,100
20544,note_on,,,,,256,0,8,,,,,1,,,82,100
20544,note_on,,,,,4,0,13,,,,,6,,,72,100
20608,note_off,,,,,256,0,15,,,,,7,,,70,100
20636,note_off,,,,,92,0,13,,,,,6,,,72,100
20640,note_on,,,,,4,0,13,,,,,6,,,70,100
20644,note_off,,,,,100,0,8,,,,,1,,,82,100
20644,note_off,,,,,100,0,9,,,,,2,,,72,100
20644,note_off,,,,,100,0,14,,,,,6,,,40,100
20644,note_off,,,,,100,0,12,,,,,5,,,40,100
20644,note_off,,,,,100,0,11,,,,,4,,,40,100
20656,note_off,,,,,48,0,15,,,,,7,,,64,100
20656,note_off,,,,,0,0,15,,,,,7,,,67,100
20672,note_off,,,,,128,0,10,,,,,3,,,67,100
20676,note_off,,,,,132,0,16,,,,,7,,,40,100
20704,note_off,,,,,64,0,13,,,,,6,,,70,100
20736,note_on,,,,,80,0,15,,,,,7,,,70,100
20736,note_on,,,,,92,0,9,,,,,2,,,72,95
20736,note_on,,,,,92,0,8,,,,,1,,,82,95
20736,note_on,,,,,60,0,16,,,,,7,,,41,100
20736,note_on,,,,,0,0,13,,,,,6,,,60,100
20736,note_on,,,,,32,0,13,,,,,6,,,70,100
20736,note_on,,,,,0,0,15,,,,,7,,,65,100
20736,note_on,,,,,92,0,12,,,,,5,,,41,95
20736,note_on,,,,,0,0,15,,,,,7,,,60,100
20736,note_on,,,,,64,0,10,,,,,3,,,65,95
20736,note_on,,,,,92,0,11,,,,,4,,,41,95
20736,note_on,,,,,92,0,14,,,,,6,,,41,100
20756,note_off,,,,,20,0,8,,,,,1,,,82,100
20784,note_on,,,,,28,0,8,,,,,1,,,84,93
20804,note_off,,,,,20,0,8,,,,,1,,,84,100
20832,note_on,,,,,28,0,8,,,,,1,,,82,92
20836,note_off,,,,,100,0,9,,,,,2,,,72,100
20836,note_off,,,,,100,0,11,,,,,4,,,41,100
20836,note_off,,,,,100,0,14,,,,,6,,,41,100
20836,note_off,,,,,100,0,12,,,,,5,,,41,100
20864,note_off,,,,,128,0,10,,,,,3,,,65,100
20868,note_off,,,,,132,0,16,,,,,7,,,41,100
20924,note_off,,,,,92,0,8,,,,,1,,,82,100
20924,note_off,,,,,188,0,15,,,,,7,,,70,100
20924,note_off,,,,,188,0,13,,,,,6,,,70,100
20928,note_on,,,,,92,0,14,,,,,6,,,53,100
20928,note_on,,,,,92,0,12,,,,,5,,,41,89
20928,note_on,,,,,60,0,16,,,,,7,,,53,100
20928,note_on,,,,,92,0,9,,,,,2,,,72,89
20928,note_on,,,,,4,0,13,,,,,6,,,69,100
20928,note_on,,,,,64,0,10,,,,,3,,,65,89
20928,note_on,,,,,4,0,8,,,,,1,,,81,89
20928,note_on,,,,,92,0,11,,,,,4,,,53,89
20928,note_on,,,,,4,0,15,,,,,7,,,69,100
20992,note_off,,,,,64,0,13,,,,,6,,,60,100
21028,note_off,,,,,100,0,9,,,,,2,,,72,100
21028,note_off,,,,,100,0,11,,,,,4,,,53,100
21028,note_off,,,,,100,0,12,,,,,5,,,41,100
21028,note_off,,,,,100,0,14,,,,,6,,,53,100
21056,note_off,,,,,128,0,8,,,,,1,,,81,100
21056,note_off,,,,,64,0,13,,,,,6,,,69,100
21056,note_off,,,,,128,0,10,,,,,3,,,65,100
21060,note_off,,,,,132,0,16,,,,,7,,,53,100
21120,note_on,,,,,92,0,11,,,,,4,,,51,83
21120,note_on,,,,,64,0,13,,,,,6,,,72,100
21120,note_on,,,,,92,0,12,,,,,5,,,39,83
21120,note_on,,,,,64,0,10,,,,,3,,,69,83
21120,note_on,,,,,0,0,13,,,,,6,,,69,100
21120,note_on,,,,,92,0,14,,,,,6,,,51,100
21120,note_on,,,,,92,0,9,,,,,2,,,69,83
21120,note_on,,,,,60,0,16,,,,,7,,,51,100
21184,note_off,,,,,64,0,9,,,,,2,,,69,100
21216,note_on,,,,,32,0,9,,,,,2,,,72,80
21220,note_off,,,,,100,0,11,,,,,4,,,51,100
21220,note_off,,,,,100,0,12,,,,,5,,,39,100
21220,note_off,,,,,100,0,14,,,,,6,,,51,100
21248,note_off,,,,,128,0,13,,,,,6,,,72,100
21248,note_off,,,,,128,0,10,,,,,3,,,69,100
21252,note_off,,,,,132,0,16,,,,,7,,,51,100
21280,note_off,,,,,64,0,9,,,,,2,,,72,100
21312,note_off,,,,,384,0,15,,,,,7,,,69,100
21312,note_on,,,,,92,0,14,,,,,6,,,39,100
21312,note_on,,,,,64,0,10,,,,,3,,,72,77
21312,note_on,,,,,32,0,9,,,,,2,,,77,77
21312,note_on,,,,,92,0,11,,,,,4,,,39,77
21312,note_on,,,,,60,0,16,,,,,7,,,39,100
21312,note_on,,,,,92,0,12,,,,,5,,,39,77
21312,note_on,,,,,64,0,13,,,,,6,,,77,100
21312,note_on,,,,,256,0,8,,,,,1,,,77,77
21376,note_off,,,,,64,0,13,,,,,6,,,69,100
21376,note_off,,,,,64,0,9,,,,,2,,,77,100
21408,note_on,,,,,32,0,9,,,,,2,,,72,75
21412,note_off,,,,,100,0,11,,,,,4,,,39,100
21412,note_off,,,,,100,0,14,,,,,6,,,39,100
21412,note_off,,,,,100,0,8,,,,,1,,,77,100
21412,note_off,,,,,100,0,12,,,,,5,,,39,100
21424,note_off,,,,,0,0,15,,,,,7,,,60,100
21424,note_off,,,,,112,0,15,,,,,7,,,65,100
21440,note_off,,,,,64,0,13,,,,,6,,,77,100
21440,note_off,,,,,128,0,10,,,,,3,,,72,100
21444,note_off,,,,,132,0,16,,,,,7,,,39,100
21472,note_off,,,,,64,0,9,,,,,2,,,72,100
21504,note_on,,,,,60,0,16,,,,,7,,,38,100
21504,note_on,,,,,64,0,10,,,,,3,,,62,75
21504,note_on,,,,,80,0,15,,,,,7,,,70,100
21504,note_on,,,,,0,0,15,,,,,7,,,65,100
21504,note_on,,,,,32,0,9,,,,,2,,,70,75
21504,note_on,,,,,92,0,14,,,,,6,,,38,100
21504,note_on,,,,,92,0,8,,,,,1,,,77,75
21504,note_on,,,,,64,0,13,,,,,6,,,70,100
21504,note_on,,,,,0,0,13,,,,,6,,,65,100
21504,note_on,,,,,92,0,12,,,,,5,,,38,75
21504,note_on,,,,,92,0,11,,,,,4,,,38,75
21504,note_on,,,,,0,0,15,,,,,7,,,62,100
21568,note_off,,,,,64,0,9,,,,,2,,,70,100
21600,note_on,,,,,32,0,9,,,,,2,,,72,74
21604,note_off,,,,,100,0,11,,,,,4,,,38,100
21604,note_off,,,,,100,0,14,,,,,6,,,38,100
21604,note_off,,,,,100,0,12,,,,,5,,,38,100
21632,note_off,,,,,128,0,10,,,,,3,,,62,100
21632,note_off,,,,,128,0,13,,,,,6,,,70,100
21636,note_off,,,,,132,0,16,,,,,7,,,38,100
21664,note_off,,,,,64,0,9,,,,,2,,,72,100
21692,note_off,,,,,188,0,8,,,,,1,,,77,100
21696,note_on,,,,,32,0,9,,,,,2,,,74,73
21696,note_on,,,,,92,0,14,,,,,6,,,50,100
21696,note_on,,,,,64,0,13,,,,,6,,,77,100
21696,note_on,,,,,92,0,12,,,,,5,,,38,73
21696,note_on,,,,,64,0,10,,,,,3,,,62,73
21696,note_on,,,,,92,0,11,,,,,4,,,50,73
21696,note_on,,,,,60,0,16,,,,,7,,,50,100
21696,note_on,,,,,4,0,8,,,,,1,,,70,73
21760,note_off,,,,,64,0,9,,,,,2,,,74,100
21792,note_on,,,,,32,0,9,,,,,2,,,75,72
21796,note_off,,,,,100,0,12,,,,,5,,,38,100
21796,note_off,,,,,100,0,14,,,,,6,,,50,100
21796,note_off,,,,,100,0,11,,,,,4,,,50,100
21824,note_off,,,,,128,0,8,,,,,1,,,70,100
21824,note_off,,,,,128,0,13,,,,,6,,,77,100
21824,note_off,,,,,128,0,10,,,,,3,,,62,100
21828,note_off,,,,,132,0,16,,,,,7,,,50,100
21856,note_off,,,,,64,0,9,,,,,2,,,75,100
21884,note_off,,,,,380,0,15,,,,,7,,,70,100
21888,note_on,,,,,64,0,13,,,,,6,,,74,100
21888,note_on,,,,,4,0,15,,,,,7,,,68,100
21888,note_on,,,,,60,0,16,,,,,7,,,58,100
21888,note_on,,,,,92,0,11,,,,,4,,,58,71
21888,note_on,,,,,64,0,10,,,,,3,,,62,71
21888,note_on,,,,,92,0,12,,,,,5,,,46,71
21888,note_on,,,,,32,0,9,,,,,2,,,77,71
21888,note_on,,,,,92,0,14,,,,,6,,,58,100
21980,note_off,,,,,92,0,13,,,,,6,,,74,100
21984,note_on,,,,,4,0,13,,,,,6,,,72,100
21988,note_off,,,,,100,0,11,,,,,4,,,58,100
21988,note_off,,,,,100,0,12,,,,,5,,,46,100
21988,note_off,,,,,100,0,14,,,,,6,,,58,100
22016,note_off,,,,,32,0,13,,,,,6,,,65,100
22016,note_off,,,,,128,0,10,,,,,3,,,62,100
22016,note_off,,,,,128,0,9,,,,,2,,,77,100
22020,note_off,,,,,132,0,16,,,,,7,,,58,100
22076,note_off,,,,,60,0,13,,,,,6,,,72,100
22080,note_on,,,,,92,0,11,,,,,4,,,38,70
22080,note_on,,,,,4,0,13,,,,,6,,,70,100
22080,note_on,,,,,256,0,8,,,,,1,,,68,70
22080,note_on,,,,,92,0,12,,,,,5,,,38,70
22080,note_on,,,,,64,0,10,,,,,3,,,58,70
22080,note_on,,,,,64,0,9,,,,,2,,,65,70
22080,note_on,,,,,92,0,14,,,,,6,,,38,100
22080,note_on,,,,,60,0,16,,,,,7,,,38,100
22144,note_off,,,,,256,0,15,,,,,7,,,68,100
22172,note_off,,,,,92,0,13,,,,,6,,,70,100
22176,note_on,,,,,4,0,13,,,,,6,,,68,100
22180,note_off,,,,,100,0,14,,,,,6,,,38,100
22180,note_off,,,,,100,0,12,,,,,5,,,38,100
22180,note_off,,,,,100,0,9,,,,,2,,,65,100
22180,note_off,,,,,100,0,11,,,,,4,,,38,100
22180,note_off,,,,,100,0,8,,,,,1,,,68,100
22192,note_off,,,,,0,0,15,,,,,7,,,65,100
22192,note_off,,,,,48,0,15,,,,,7,,,62,100
22208,note_off,,,,,128,0,10,,,,,3,,,58,100
22212,note_off,,,,,132,0,16,,,,,7,,,38,100
22240,note_off,,,,,64,0,13,,,,,6,,,68,100
22272,note_on,,,,,0,0,15,,,,,7,,,63,100
22272,note_on,,,,,64,0,10,,,,,3,,,58,71
22272,note_on,,,,,80,0,15,,,,,7,,,68,100
22272,note_on,,,,,0,0,15,,,,,7,,,58,100
22272,note_on,,,,,92,0,11,,,,,4,,,39,71
22272,note_on,,,,,60,0,16,,,,,7,,,39,100
22272,note_on,,,,,92,0,8,,,,,1,,,68,71
22272,note_on,,,,,92,0,9,,,,,2,,,63,71
22272,note_on,,,,,32,0,13,,,,,6,,,63,100
22272,note_on,,,,,92,0,12,,,,,5,,,39,71
22272,note_on,,,,,92,0,14,,,,,6,,,39,100
22272,note_on,,,,,0,0,13,,,,,6,,,68,100
22292,note_off,,,,,20,0,8,,,,,1,,,68,100
22320,note_on,,,,,28,0,8,,,,,1,,,70,72
22340,note_off,,,,,20,0,8,,,,,1,,,70,100
22368,note_on,,,,,28,0,8,,,,,1,,,68,72
22372,note_off,,,,,100,0,9,,,,,2,,,63,100
22372,note_off,,,,,100,0,14,,,,,6,,,39,100
22372,note_off,,,,,100,0,11,,,,,4,,,39,100
22372,note_off,,,,,100,0,12,,,,,5,,,39,100
22400,note_off,,,,,128,0,10,,,,,3,,,58,100
22404,note_off,,,,,132,0,16,,,,,7,,,39,100
22460,note_off,,,,,188,0,13,,,,,6,,,68,100
22460,note_off,,,,,92,0,8,,,,,1,,,68,100
22460,note_off,,,,,188,0,15,,,,,7,,,68,100
22464,note_on,,,,,4,0,8,,,,,1,,,67,73
22464,note_on,,,,,4,0,13,,,,,6,,,67,100
22464,note_on,,,,,92,0,12,,,,,5,,,39,73
22464,note_on,,,,,64,0,10,,,,,3,,,58,73
22464,note_on,,,,,92,0,11,,,,,4,,,51,73
22464,note_on,,,,,92,0,9,,,,,2,,,63,73
22464,note_on,,,,,4,0,15,,,,,7,,,67,100
22464,note_on,,,,,92,0,14,,,,,6,,,51,100
22464,note_on,,,,,60,0,16,,,,,7,,,51,100
22528,note_off,,,,,64,0,13,,,,,6,,,63,100
22564,note_off,,,,,100,0,9,,,,,2,,,63,100
22564,note_off,,,,,100,0,14,,,,,6,,,51,100
22564,note_off,,,,,100,0,12,,,,,5,,,39,100
22564,note_off,,,,,100,0,11,,,,,4,,,51,100
22592,note_off,,,,,128,0,8,,,,,1,,,67,100
22592,note_off,,,,,128,0,10,,,,,3,,,58,100
22592,note_off,,,,,64,0,13,,,,,6,,,67,100
22596,note_off,,,,,132,0,16,,,,,7,,,51,100
22656,note_on,,,,,92,0,12,,,,,5,,,39,74
22656,note_on,,,,,92,0,11,,,,,4,,,51,74
22656,note_on,,,,,64,0,10,,,,,3,,,67,74
22656,note_on,,,,,0,0,13,,,,,6,,,67,100
22656,note_on,,,,,60,0,16,,,,,7,,,51,100
22656,note_on,,,,,92,0,14,,,,,6,,,51,100
22656,note_on,,,,,92,0,9,,,,,2,,,70,74
22656,note_on,,,,,64,0,13,,,,,6,,,75,100
22720,note_off,,,,,64,0,9,,,,,2,,,70,100
22752,note_on,,,,,32,0,9,,,,,2,,,75,75
22756,note_off,,,,,100,0,14,,,,,6,,,51,100
22756,note_off,,,,,100,0,11,,,,,4,,,51,100
22756,note_off,,,,,100,0,12,,,,,5,,,39,100
22784,note_off,,,,,128,0,10,,,,,3,,,67,100
22784,note_off,,,,,128,0,13,,,,,6,,,75,100
22788,note_off,,,,,132,0,16,,,,,7,,,51,100
22816,note_off,,,,,64,0,9,,,,,2,,,75,100
22848,note_on,,,,,256,0,8,,,,,1,,,79,76
22848,note_on,,,,,92,0,11,,,,,4,,,39,76
22848,note_off,,,,,384,0,15,,,,,7,,,67,100
22848,note_on,,,,,64,0,13,,,,,6,,,79,100
22848,note_on,,,,,60,0,16,,,,,7,,,39,100
22848,note_on,,,,,32,0,9,,,,,2,,,79,76
22848,note_on,,,,,64,0,10,,,,,3,,,70,76
22848,note_on,,,,,92,0,12,,,,,5,,,39,76
22848,note_on,,,,,92,0,14,,,,,6,,,39,100
22912,note_off,,,,,64,0,13,,,,,6,,,67,100
22912,note_off,,,,,64,0,9,,,,,2,,,79,100
22944,note_on,,,,,32,0,9,,,,,2,,,75,77
22948,note_off,,,,,100,0,12,,,,,5,,,39,100
22948,note_off,,,,,100,0,8,,,,,1,,,79,100
22948,note_off,,,,,100,0,14,,,,,6,,,39,100
22948,note_off,,,,,100,0,11,,,,,4,,,39,100
22960,note_off,,,,,112,0,15,,,,,7,,,63,100
22960,note_off,,,,,0,0,15,,,,,7,,,58,100
22976,note_off,,,,,64,0,13,,,,,6,,,79,100
22976,note_off,,,,,128,0,10,,,,,3,,,70,100
22980,note_off,,,,,132,0,16,,,,,7,,,39,100
23008,note_off,,,,,64,0,9,,,,,2,,,75,100
23040,note_on,,,,,92,0,8,,,,,1,,,79,78
23040,note_on,,,,,32,0,9,,,,,2,,,72,78
23040,note_on,,,,,64,0,13,,,,,6,,,72,100
23040,note_on,,,,,0,0,13,,,,,6,,,67,100
23040,note_on,,,,,64,0,10,,,,,3,,,64,78
23040,note_on,,,,,92,0,14,,,,,6,,,40,100
23040,note_on,,,,,80,0,15,,,,,7,,,72,100
23040,note_on,,,,,0,0,15,,,,,7,,,67,100
23040,note_on,,,,,60,0,16,,,,,7,,,40,100
23040,note_on,,,,,92,0,12,,,,,5,,,40,78
23040,note_on,,,,,0,0,15,,,,,7,,,64,100
23040,note_on,,,,,92,0,11,,,,,4,,,40,78
23104,note_off,,,,,64,0,9,,,,,2,,,72,100
23136,note_on,,,,,32,0,9,,,,,2,,,74,79
23140,note_off,,,,,100,0,14,,,,,6,,,40,100
23140,note_off,,,,,100,0,12,,,,,5,,,40,100
23140,note_off,,,,,100,0,11,,,,,4,,,40,100
23168,note_off,,,,,128,0,10,,,,,3,,,64,100
23168,note_off,,,,,128,0,13,,,,,6,,,72,100
23172,note_off,,,,,132,0,16,,,,,7,,,40,100
23200,note_off,,,,,64,0,9,,,,,2,,,74,100
23228,note_off,,,,,188,0,8,,,,,1,,,79,100
23232,note_on,,,,,92,0,14,,,,,6,,,52,100
23232,note_on,,,,,64,0,10,,,,,3,,,64,79
23232,note_on,,,,,92,0,11,,,,,4,,,52,79
23232,note_on,,,,,64,0,13,,,,,6,,,79,100
23232,note_on,,,,,60,0,16,,,,,7,,,52,100
23232,note_on,,,,,32,0,9,,,,,2,,,76,79
23232,note_on,,,,,4,0,8,,,,,1,,,72,79
23232,note_on,,,,,92,0,12,,,,,5,,,40,79
23296,note_off,,,,,64,0,9,,,,,2,,,76,100
23328,note_on,,,,,32,0,9,,,,,2,,,77,80
23332,note_off,,,,,100,0,14,,,,,6,,,52,100
23332,note_off,,,,,100,0,11,,,,,4,,,52,100
23332,note_off,,,,,100,0,12,,,,,5,,,40,100
23360,note_off,,,,,128,0,10,,,,,3,,,64,100
23360,note_off,,,,,128,0,13,,,,,6,,,79,100
23360,note_off,,,,,128,0,8,,,,,1,,,72,100
23364,note_off,,,,,132,0,16,,,,,7,,,52,100
23392,note_off,,,,,64,0,9,,,,,2,,,77,100
23420,note_off,,,,,380,0,15,,,,,7,,,72,100
23424,note_on,,,,,60,0,16,,,,,7,,,60,100
23424,note_on,,,,,92,0,12,,,,,5,,,48,81
23424,note_on,,,,,92,0,11,,,,,4,,,60,81
23424,note_on,,,,,32,0,9,,,,,2,,,79,81
23424,note_on,,,,,92,0,14,,,,,6,,,60,100
23424,note_on,,,,,4,0,15,,,,,7,,,70,100
23424,note_on,,,,,64,0,13,,,,,6,,,76,100
23424,note_on,,,,,64,0,10,,,,,3,,,64,81
23516,note_off,,,,,92,0,13,,,,,6,,,76,100
23520,note_on,,,,,4,0,13,,,,,6,,,74,100
23524,note_off,,,,,100,0,11,,,,,4,,,60,100
23524,note_off,,,,,100,0,14,,,,,6,,,60,100
23524,note_off,,,,,100,0,12,,,,,5,,,48,100
23552,note_off,,,,,128,0,10,,,,,3,,,64,100
23552,note_off,,,,,32,0,13,,,,,6,,,67,100
23552,note_off,,,,,128,0,9,,,,,2,,,79,100
23556,note_off,,,,,132,0,16,,,,,7,,,60,100
23612,note_off,,,,,60,0,13,,,,,6,,,74,100
23616,note_on,,,,,256,0,8,,,,,1,,,70,83
23616,note_on,,,,,64,0,9,,,,,2,,,67,83
23616,note_on,,,,,60,0,16,,,,,7,,,40,100
23616,note_on,,,,,92,0,14,,,,,6,,,40,100
23616,note_on,,,,,92,0,11,,,,,4,,,40,83
23616,note_on,,,,,92,0,12,,,,,5,,,40,83
23616,note_on,,,,,4,0,13,,,,,6,,,72,100
23616,note_on,,,,,64,0,10,,,,,3,,,60,83
23680,note_off,,,,,256,0,15,,,,,7,,,70,100
23708,note_off,,,,,92,0,13,,,,,6,,,72,100
23712,note_on,,,,,4,0,13,,,,,6,,,70,100
23716,note_off,,,,,100,0,9,,,,,2,,,67,100
23716,note_off,,,,,100,0,12,,,,,5,,,40,100
23716,note_off,,,,,100,0,8,,,,,1,,,70,100
23716,note_off,,,,,100,0,11,,,,,4,,,40,100
23716,note_off,,,,,100,0,14,,,,,6,,,40,100
23728,note_off,,,,,0,0,15,,,,,7,,,67,100
23728,note_off,,,,,48,0,15,,,,,7,,,64,100
23744,note_off,,,,,128,0,10,,,,,3,,,60,100
23748,note_off,,,,,132,0,16,,,,,7,,,40,100
23776,note_off,,,,,64,0,13,,,,,6,,,70,100
23808,note_on,,,,,92,0,9,,,,,2,,,65,84
23808,note_on,,,,,92,0,14,,,,,6,,,41,100
23808,note_on,,,,,0,0,13,,,,,6,,,60,100
23808,note_on,,,,,64,0,10,,,,,3,,,60,84
23808,note_on,,,,,0,0,15,,,,,7,,,60,100
23808,note_on,,,,,0,0,15,,,,,7,,,65,100
23808,note_on,,,,,80,0,15,,,,,7,,,70,100
23808,note_on,,,,,32,0,13,,,,,6,,,70,100
23808,note_on,,,,,92,0,11,,,,,4,,,41,84
23808,note_on,,,,,92,0,12,,,,,5,,,41,84
23808,note_on,,,,,60,0,16,,,,,7,,,41,100
23808,note_on,,,,,92,0,8,,,,,1,,,70,84
23828,note_off,,,,,20,0,8,,,,,1,,,70,100
23856,note_on,,,,,28,0,8,,,,,1,,,72,83
23876,note_off,,,,,20,0,8,,,,,1,,,72,100
23904,note_on,,,,,28,0,8,,,,,1,,,70,83
23908,note_off,,,,,100,0,9,,,,,2,,,65,100
23908,note_off,,,,,100,0,12,,,,,5,,,41,100
23908,note_off,,,,,100,0,14,,,,,6,,,41,100
23908,note_off,,,,,100,0,11,,,,,4,,,41,100
23936,note_off,,,,,128,0,10,,,,,3,,,60,100
23940,note_off,,,,,132,0,16,,,,,7,,,41,100
23996,note_off,,,,,188,0,15,,,,,7,,,70,100
23996,note_off,,,,,92,0,8,,,,,1,,,70,100
23996,note_off,,,,,188,0,13,,,,,6,,,70,100
24000,note_on,,,,,64,0,10,,,,,3,,,60,84
24000,note_on,,,,,92,0,14,,,,,6,,,53,100
24000,note_on,,,,,60,0,16,,,,,7,,,53,100
24000,note_on,,,,,4,0,13,,,,,6,,,69,100
24000,note_on,,,,,92,0,11,,,,,4,,,53,84
24000,note_on,,,,,4,0,8,,,,,1,,,69,84
24000,note_on,,,,,4,0,15,,,,,7,,,69,100
24000,note_on,,,,,92,0,9,,,,,2,,,65,84
24000,note_on,,,,,92,0,12,,,,,5,,,41,84
24064,note_off,,,,,64,0,13,,,,,6,,,60,100
24100,note_off,,,,,100,0,9,,,,,2,,,65,100
24100,note_off,,,,,100,0,14,,,,,6,,,53,100
24100,note_off,,,,,100,0,11,,,,,4,,,53,100
24100,note_off,,,,,100,0,12,,,,,5,,,41,100
24128,note_off,,,,,128,0,8,,,,,1,,,69,100
24128,note_off,,,,,128,0,10,,,,,3,,,60,100
24128,note_off,,,,,64,0,13,,,,,6,,,69,100
24132,note_off,,,,,132,0,16,,,,,7,,,53,100
24192,note_on,,,,,92,0,11,,,,,4,,,53,85
24192,note_on,,,,,60,0,16,,,,,7,,,53,100
24192,note_on,,,,,92,0,9,,,,,2,,,69,85
24192,note_on,,,,,92,0,14,,,,,6,,,53,100
24192,note_on,,,,,64,0,10,,,,,3,,,60,85
24192,note_on,,,,,92,0,12,,,,,5,,,41,85
24256,note_off,,,,,64,0,9,,,,,2,,,69,100
24288,note_on,,,,,32,0,9,,,,,2,,,72,89
24292,note_off,,,,,100,0,11,,,,,4,,,53,100
24292,note_off,,,,,100,0,12,,,,,5,,,41,100
24292,note_off,,,,,100,0,14,,,,,6,,,53,100
24320,note_off,,,,,128,0,10,,,,,3,,,60,100
24324,note_off,,,,,132,0,16,,,,,7,,,53,100
24352,note_off,,,,,64,0,9,,,,,2,,,72,100
24384,note_on,,,,,60,0,16,,,,,7,,,41,100
24384,note_on,,,,,32,0,9,,,,,2,,,77,94
24384,note_on,,,,,256,0,8,,,,,1,,,77,94
24384,note_on,,,,,92,0,11,,,,,4,,,41,94
24384,note_on,,,,,92,0,14,,,,,6,,,41,100
24384,note_off,,,,,384,0,15,,,,,7,,,69,100
24384,note_on,,,,,64,0,10,,,,,3,,,57,94
24384,note_on,,,,,92,0,12,,,,,5,,,41,94
24448,note_off,,,,,64,0,9,,,,,2,,,77,100
24480,note_on,,,,,32,0,9,,,,,2,,,72,99
24484,note_off,,,,,100,0,14,,,,,6,,,41,100
24484,note_off,,,,,100,0,8,,,,,1,,,77,100
24484,note_off,,,,,100,0,11,,,,,4,,,41,100
24484,note_off,,,,,100,0,12,,,,,5,,,41,100
24496,note_off,,,,,112,0,15,,,,,7,,,65,100
24496,note_off,,,,,0,0,15,,,,,7,,,60,100
24512,note_off,,,,,128,0,10,,,,,3,,,57,100
24516,note_off,,,,,132,0,16,,,,,7,,,41,100
24544,note_off,,,,,64,0,9,,,,,2,,,72,100
24576,note_on,,,,,92,0,8,,,,,1,,,72,105
24576,note_on,,,,,92,0,14,,,,,6,,,41,100
24576,note_on,,,,,0,0,15,,,,,7,,,69,100
24576,note_on,,,,,64,0,10,,,,,3,,,53,105
24576,note_on,,,,,0,0,13,,,,,6,,,65,100
24576,note_on,,,,,92,0,12,,,,,5,,,41,105
24576,note_on,,,,,0,0,15,,,,,7,,,72,100
24576,note_on,,,,,92,0,11,,,,,4,,,41,105
24576,note_on,,,,,60,0,16,,,,,7,,,41,100
24576,note_on,,,,,0,0,13,,,,,6,,,69,100
24576,note_on,,,,,448,0,13,,,,,6,,,72,100
24576,note_on,,,,,80,0,15,,,,,7,,,65,100
24576,note_on,,,,,32,0,9,,,,,2,,,69,105
24640,note_off,,,,,64,0,8,,,,,1,,,72,100
24672,note_on,,,,,32,0,8,,,,,1,,,70,105
24676,note_off,,,,,100,0,10,,,,,3,,,53,100
24676,note_off,,,,,100,0,12,,,,,5,,,41,100
24676,note_off,,,,,100,0,14,,,,,6,,,41,100
24676,note_off,,,,,100,0,11,,,,,4,,,41,100
24676,note_off,,,,,100,0,9,,,,,2,,,69,100
24708,note_off,,,,,132,0,16,,,,,7,,,41,100
24736,note_off,,,,,64,0,8,,,,,1,,,70,100
24768,note_on,,,,,32,0,8,,,,,1,,,72,105
24768,note_on,,,,,92,0,9,,,,,2,,,65,105
24768,note_on,,,,,92,0,14,,,,,6,,,53,100
24768,note_on,,,,,92,0,10,,,,,3,,,57,105
24768,note_on,,,,,92,0,12,,,,,5,,,41,105
24768,note_on,,,,,60,0,16,,,,,7,,,53,100
24768,note_on,,,,,92,0,11,,,,,4,,,53,105
24832,note_off,,,,,256,0,13,,,,,6,,,72,100
24832,note_off,,,,,0,0,13,,,,,6,,,65,100
24832,note_off,,,,,64,0,8,,,,,1,,,72,100
24832,note_off,,,,,256,0,15,,,,,7,,,72,100
24832,note_off,,,,,0,0,15,,,,,7,,,69,100
24832,note_off,,,,,0,0,13,,,,,6,,,69,100
24864,note_on,,,,,32,0,8,,,,,1,,,69,105
24868,note_off,,,,,100,0,10,,,,,3,,,57,100
24868,note_off,,,,,100,0,14,,,,,6,,,53,100
24868,note_off,,,,,100,0,9,,,,,2,,,65,100
24868,note_off,,,,,100,0,11,,,,,4,,,53,100
24868,note_off,,,,,100,0,12,,,,,5,,,41,100
24900,note_off,,,,,132,0,16,,,,,7,,,53,100
24928,note_off,,,,,64,0,8,,,,,1,,,69,100
24960,note_on,,,,,92,0,14,,,,,6,,,53,100
24960,note_on,,,,,60,0,16,,,,,7,,,53,100
24960,note_on,,,,,128,0,13,,,,,6,,,74,100
24960,note_on,,,,,0,0,13,,,,,6,,,70,100
24960,note_on,,,,,92,0,11,,,,,4,,,53,104
24960,note_on,,,,,0,0,13,,,,,6,,,65,100
24960,note_on,,,,,32,0,8,,,,,1,,,74,104
24960,note_on,,,,,128,0,15,,,,,7,,,74,100
24960,note_on,,,,,0,0,15,,,,,7,,,70,100
24960,note_on,,,,,92,0,9,,,,,2,,,70,104
24960,note_on,,,,,92,0,10,,,,,3,,,53,104
24960,note_on,,,,,92,0,12,,,,,5,,,41,104
25024,note_off,,,,,64,0,8,,,,,1,,,74,100
25056,note_on,,,,,32,0,8,,,,,1,,,72,104
25060,note_off,,,,,100,0,14,,,,,6,,,53,100
25060,note_off,,,,,100,0,11,,,,,4,,,53,100
25060,note_off,,,,,100,0,9,,,,,2,,,70,100
25060,note_off,,,,,100,0,10,,,,,3,,,53,100
25060,note_off,,,,,100,0,12,,,,,5,,,41,100
25092,note_off,,,,,132,0,16,,,,,7,,,53,100
25120,note_off,,,,,64,0,8,,,,,1,,,72,100
25152,note_on,,,,,92,0,11,,,,,4,,,41,104
25152,note_on,,,,,92,0,9,,,,,2,,,65,104
25152,note_on,,,,,92,0,12,,,,,5,,,41,104
25152,note_on,,,,,60,0,16,,,,,7,,,41,100
25152,note_on,,,,,92,0,10,,,,,3,,,58,104
25152,note_on,,,,,32,0,8,,,,,1,,,74,104
25152,note_on,,,,,92,0,14,,,,,6,,,41,100
25216,note_off,,,,,0,0,13,,,,,6,,,70,100
25216,note_off,,,,,0,0,15,,,,,7,,,70,100
25216,note_off,,,,,256,0,15,,,,,7,,,74,100
25216,note_off,,,,,64,0,8,,,,,1,,,74,100
25216,note_off,,,,,0,0,13,,,,,6,,,65,100
25216,note_off,,,,,256,0,13,,,,,6,,,74,100
25248,note_on,,,,,32,0,8,,,,,1,,,70,103
25252,note_off,,,,,100,0,10,,,,,3,,,58,100
25252,note_off,,,,,100,0,12,,,,,5,,,41,100
25252,note_off,,,,,100,0,14,,,,,6,,,41,100
25252,note_off,,,,,100,0,11,,,,,4,,,41,100
25252,note_off,,,,,100,0,9,,,,,2,,,65,100
25264,note_off,,,,,48,0,15,,,,,7,,,65,100
25284,note_off,,,,,132,0,16,,,,,7,,,41,100
25312,note_off,,,,,64,0,8,,,,,1,,,70,100
25344,note_on,,,,,0,0,15,,,,,7,,,72,100
25344,note_on,,,,,60,0,16,,,,,7,,,41,100
25344,note_on,,,,,128,0,13,,,,,6,,,75,100
25344,note_on,,,,,0,0,13,,,,,6,,,65,100
25344,note_on,,,,,0,0,13,,,,,6,,,72,100
25344,note_on,,,,,0,0,15,,,,,7,,,75,100
25344,note_on,,,,,80,0,15,,,,,7,,,65,100
25344,note_on,,,,,32,0,8,,,,,1,,,75,103
25344,note_on,,,,,92,0,12,,,,,5,,,41,103
25344,note_on,,,,,92,0,10,,,,,3,,,53,103
25344,note_on,,,,,92,0,14,,,,,6,,,41,100
25344,note_on,,,,,92,0,11,,,,,4,,,41,103
25344,note_on,,,,,92,0,9,,,,,2,,,72,103
25408,note_off,,,,,64,0,8,,,,,1,,,75,100
25440,note_on,,,,,32,0,8,,,,,1,,,74,102
25444,note_off,,,,,100,0,10,,,,,3,,,53,100
25444,note_off,,,,,100,0,14,,,,,6,,,41,100
25444,note_off,,,,,100,0,11,,,,,4,,,41,100
25444,note_off,,,,,100,0,12,,,,,5,,,41,100
25444,note_off,,,,,100,0,9,,,,,2,,,72,100
25476,note_off,,,,,132,0,16,,,,,7,,,41,100
25504,note_off,,,,,64,0,8,,,,,1,,,74,100
25536,note_on,,,,,92,0,11,,,,,4,,,53,101
25536,note_on,,,,,92,0,12,,,,,5,,,41,101
25536,note_on,,,,,60,0,16,,,,,7,,,53,100
25536,note_on,,,,,92,0,14,,,,,6,,,53,100
25536,note_on,,,,,92,0,10,,,,,3,,,60,101
25536,note_on,,,,,92,0,9,,,,,2,,,65,101
25536,note_on,,,,,32,0,8,,,,,1,,,75,101
25600,note_off,,,,,64,0,8,,,,,1,,,75,100
25600,note_off,,,,,256,0,13,,,,,6,,,75,100
25600,note_off,,,,,0,0,13,,,,,6,,,72,100
25600,note_off,,,,,0,0,13,,,,,6,,,65,100
25600,note_off,,,,,0,0,15,,,,,7,,,72,100
25600,note_off,,,,,256,0,15,,,,,7,,,75,100
25632,note_on,,,,,32,0,8,,,,,1,,,72,99
25636,note_off,,,,,100,0,11,,,,,4,,,53,100
25636,note_off,,,,,100,0,12,,,,,5,,,41,100
25636,note_off,,,,,100,0,9,,,,,2,,,65,100
25636,note_off,,,,,100,0,14,,,,,6,,,53,100
25636,note_off,,,,,100,0,10,,,,,3,,,60,100
25668,note_off,,,,,132,0,16,,,,,7,,,53,100
25696,note_off,,,,,64,0,8,,,,,1,,,72,100
25728,note_on,,,,,32,0,8,,,,,1,,,74,98
25728,note_on,,,,,92,0,9,,,,,2,,,70,98
25728,note_on,,,,,128,0,13,,,,,6,,,74,100
25728,note_on,,,,,128,0,15,,,,,7,,,74,100
25728,note_on,,,,,92,0,12,,,,,5,,,41,98
25728,note_on,,,,,0,0,15,,,,,7,,,70,100
25728,note_on,,,,,92,0,11,,,,,4,,,53,98
25728,note_on,,,,,0,0,13,,,,,6,,,70,100
25728,note_on,,,,,0,0,13,,,,,6,,,65,100
25728,note_on,,,,,92,0,10,,,,,3,,,53,98
25728,note_on,,,,,92,0,14,,,,,6,,,53,100
25728,note_on,,,,,60,0,16,,,,,7,,,53,100
25792,note_off,,,,,64,0,8,,,,,1,,,74,100
25824,note_on,,,,,32,0,8,,,,,1,,,72,96
25828,note_off,,,,,100,0,12,,,,,5,,,41,100
25828,note_off,,,,,100,0,11,,,,,4,,,53,100
25828,note_off,,,,,100,0,14,,,,,6,,,53,100
25828,note_off,,,,,100,0,10,,,,,3,,,53,100
25828,note_off,,,,,100,0,9,,,,,2,,,70,100
25860,note_off,,,,,132,0,16,,,,,7,,,53,100
25888,note_off,,,,,64,0,8,,,,,1,,,72,100
25920,note_on,,,,,92,0,10,,,,,3,,,58,95
25920,note_on,,,,,92,0,12,,,,,5,,,41,95
25920,note_on,,,,,92,0,11,,,,,4,,,41,95
25920,note_on,,,,,92,0,14,,,,,6,,,41,100
25920,note_on,,,,,60,0,16,,,,,7,,,41,100
25920,note_on,,,,,32,0,8,,,,,1,,,74,95
25920,note_on,,,,,92,0,9,,,,,2,,,65,95
25984,note_off,,,,,64,0,8,,,,,1,,,74,100
25984,note_off,,,,,0,0,15,,,,,7,,,70,100
25984,note_off,,,,,0,0,13,,,,,6,,,65,100
25984,note_off,,,,,256,0,13,,,,,6,,,74,100
25984,note_off,,,,,256,0,15,,,,,7,,,74,100
25984,note_off,,,,,0,0,13,,,,,6,,,70,100
26016,note_on,,,,,32,0,8,,,,,1,,,70,94
26020,note_off,,,,,100,0,11,,,,,4,,,41,100
26020,note_off,,,,,100,0,10,,,,,3,,,58,100
26020,note_off,,,,,100,0,14,,,,,6,,,41,100
26020,note_off,,,,,100,0,9,,,,,2,,,65,100
26020,note_off,,,,,100,0,12,,,,,5,,,41,100
26032,note_off,,,,,48,0,15,,,,,7,,,65,100
26052,note_off,,,,,132,0,16,,,,,7,,,41,100
26080,note_off,,,,,64,0,8,,,,,1,,,70,100
26112,note_on,,,,,92,0,11,,,,,4,,,41,85
26112,note_on,,,,,0,0,13,,,,,6,,,69,100
26112,note_on,,,,,128,0,13,,,,,6,,,72,100
26112,note_on,,,,,32,0,8,,,,,1,,,72,85
26112,note_on,,,,,60,0,16,,,,,7,,,41,100
26112,note_on,,,,,0,0,13,,,,,6,,,65,100
26112,note_on,,,,,92,0,10,,,,,3,,,53,85
26112,note_on,,,,,92,0,9,,,,,2,,,69,85
26112,note_on,,,,,0,0,15,,,,,7,,,69,100
26112,note_on,,,,,0,0,15,,,,,7,,,72,100
26112,note_on,,,,,92,0,12,,,,,5,,,41,85
26112,note_on,,,,,80,0,15,,,,,7,,,65,100
26112,note_on,,,,,92,0,14,,,,,6,,,41,100
26176,note_off,,,,,64,0,8,,,,,1,,,72,100
26208,note_on,,,,,32,0,8,,,,,1,,,70,85
26212,note_off,,,,,100,0,12,,,,,5,,,41,100
26212,note_off,,,,,100,0,10,,,,,3,,,53,100
26212,note_off,,,,,100,0,9,,,,,2,,,69,100
26212,note_off,,,,,100,0,14,,,,,6,,,41,100
26212,note_off,,,,,100,0,11,,,,,4,,,41,100
26244,note_off,,,,,132,0,16,,,,,7,,,41,100
26272,note_off,,,,,64,0,8,,,,,1,,,70,100
26304,note_on,,,,,92,0,11,,,,,4,,,53,85
26304,note_on,,,,,60,0,16,,,,,7,,,53,100
26304,note_on,,,,,92,0,14,,,,,6,,,53,100
26304,note_on,,,,,92,0,9,,,,,2,,,65,85
26304,note_on,,,,,92,0,10,,,,,3,,,57,85
26304,note_on,,,,,92,0,12,,,,,5,,,41,85
26304,note_on,,,,,32,0,8,,,,,1,,,72,85
26368,note_off,,,,,64,0,8,,,,,1,,,72,100
26368,note_off,,,,,0,0,15,,,,,7,,,69,100
26368,note_off,,,,,256,0,15,,,,,7,,,72,100
26368,note_off,,,,,256,0,13,,,,,6,,,72,100
26368,note_off,,,,,0,0,13,,,,,6,,,69,100
26368,note_off,,,,,0,0,13,,,,,6,,,65,100
26400,note_on,,,,,32,0,8,,,,,1,,,69,85
26404,note_off,,,,,100,0,10,,,,,3,,,57,100
26404,note_off,,,,,100,0,9,,,,,2,,,65,100
26404,note_off,,,,,100,0,12,,,,,5,,,41,100
26404,note_off,,,,,100,0,14,,,,,6,,,53,100
26404,note_off,,,,,100,0,11,,,,,4,,,53,100
26436,note_off,,,,,132,0,16,,,,,7,,,53,100
26464,note_off,,,,,64,0,8,,,,,1,,,69,100
26496,note_on,,,,,128,0,13,,,,,6,,,74,100
26496,note_on,,,,,0,0,15,,,,,7,,,70,100
26496,note_on,,,,,128,0,15,,,,,7,,,74,100
26496,note_on,,,,,92,0,10,,,,,3,,,53,85
26496,note_on,,,,,32,0,8,,,,,1,,,74,85
26496,note_on,,,,,92,0,9,,,,,2,,,70,85
26496,note_on,,,,,92,0,12,,,,,5,,,41,85
26496,note_on,,,,,0,0,13,,,,,6,,,65,100
26496,note_on,,,,,92,0,14,,,,,6,,,53,100
26496,note_on,,,,,0,0,13,,,,,6,,,70,100
26496,note_on,,,,,92,0,11,,,,,4,,,53,85
26496,note_on,,,,,60,0,16,,,,,7,,,53,100
26560,note_off,,,,,64,0,8,,,,,1,,,74,100
26592,note_on,,,,,32,0,8,,,,,1,,,72,85
26596,note_off,,,,,100,0,14,,,,,6,,,53,100
26596,note_off,,,,,100,0,10,,,,,3,,,53,100
26596,note_off,,,,,100,0,12,,,,,5,,,41,100
26596,note_off,,,,,100,0,9,,,,,2,,,70,100
26596,note_off,,,,,100,0,11,,,,,4,,,53,100
26628,note_off,,,,,132,0,16,,,,,7,,,53,100
26656,note_off,,,,,64,0,8,,,,,1,,,72,100
26688,note_on,,,,,92,0,10,,,,,3,,,58,85
26688,note_on,,,,,60,0,16,,,,,7,,,41,100
26688,note_on,,,,,32,0,8,,,,,1,,,74,85
26688,note_on,,,,,92,0,11,,,,,4,,,41,85
26688,note_on,,,,,92,0,9,,,,,2,,,65,85
26688,note_on,,,,,92,0,12,,,,,5,,,41,85
26688,note_on,,,,,92,0,14,,,,,6,,,41,100
26752,note_off,,,,,256,0,13,,,,,6,,,74,100
26752,note_off,,,,,64,0,8,,,,,1,,,74,100
26752,note_off,,,,,0,0,13,,,,,6,,,70,100
26752,note_off,,,,,0,0,13,,,,,6,,,65,100
26752,note_off,,,,,256,0,15,,,,,7,,,74,100
26752,note_off,,,,,0,0,15,,,,,7,,,70,100
26784,note_on,,,,,32,0,8,,,,,1,,,70,85
26788,note_off,,,,,100,0,9,,,,,2,,,65,100
26788,note_off,,,,,100,0,14,,,,,6,,,41,100
26788,note_off,,,,,100,0,11,,,,,4,,,41,100
26788,note_off,,,,,100,0,10,,,,,3,,,58,100
26788,note_off,,,,,100,0,12,,,,,5,,,41,100
26800,note_off,,,,,48,0,15,,,,,7,,,65,100
26820,note_off,,,,,132,0,16,,,,,7,,,41,100
26848,note_off,,,,,64,0,8,,,,,1,,,70,100
26880,note_on,,,,,92,0,9,,,,,2,,,72,85
26880,note_on,,,,,92,0,12,,,,,5,,,41,85
26880,note_on,,,,,0,0,13,,,,,6,,,65,100
26880,note_on,,,,,0,0,13,,,,,6,,,72,100
26880,note_on,,,,,128,0,13,,,,,6,,,75,100
26880,note_on,,,,,32,0,8,,,,,1,,,75,85
26880,note_on,,,,,0,0,15,,,,,7,,,72,100
26880,note_on,,,,,0,0,15,,,,,7,,,75,100
26880,note_on,,,,,80,0,15,,,,,7,,,65,100
26880,note_on,,,,,92,0,10,,,,,3,,,53,85
26880,note_on,,,,,92,0,14,,,,,6,,,41,100
26880,note_on,,,,,60,0,16,,,,,7,,,41,100
26880,note_on,,,,,92,0,11,,,,,4,,,41,85
26944,note_off,,,,,64,0,8,,,,,1,,,75,100
26976,note_on,,,,,32,0,8,,,,,1,,,74,85
26980,note_off,,,,,100,0,11,,,,,4,,,41,100
26980,note_off,,,,,100,0,9,,,,,2,,,72,100
26980,note_off,,,,,100,0,12,,,,,5,,,41,100
26980,note_off,,,,,100,0,14,,,,,6,,,41,100
26980,note_off,,,,,100,0,10,,,,,3,,,53,100
27012,note_off,,,,,132,0,16,,,,,7,,,41,100
27040,note_off,,,,,64,0,8,,,,,1,,,74,100
27072,note_on,,,,,92,0,12,,,,,5,,,41,85
27072,note_on,,,,,92,0,10,,,,,3,,,60,85
27072,note_on,,,,,32,0,8,,,,,1,,,75,85
27072,note_on,,,,,92,0,14,,,,,6,,,53,100
27072,note_on,,,,,60,0,16,,,,,7,,,53,100
27072,note_on,,,,,92,0,9,,,,,2,,,65,85
27072,note_on,,,,,92,0,11,,,,,4,,,53,85
27136,note_off,,,,,64,0,8,,,,,1,,,75,100
27136,note_off,,,,,256,0,13,,,,,6,,,75,100
27136,note_off,,,,,0,0,13,,,,,6,,,72,100
27136,note_off,,,,,0,0,13,,,,,6,,,65,100
27136,note_off,,,,,0,0,15,,,,,7,,,72,100
27136,note_off,,,,,256,0,15,,,,,7,,,75,100
27168,note_on,,,,,32,0,8,,,,,1,,,72,85
27172,note_off,,,,,100,0,14,,,,,6,,,53,100
27172,note_off,,,,,100,0,12,,,,,5,,,41,100
27172,note_off,,,,,100,0,11,,,,,4,,,53,100
27172,note_off,,,,,100,0,9,,,,,2,,,65,100
27172,note_off,,,,,100,0,10,,,,,3,,,60,100
27204,note_off,,,,,132,0,16,,,,,7,,,53,100
27232,note_off,,,,,64,0,8,,,,,1,,,72,100
27264,note_on,,,,,92,0,12,,,,,5,,,41,85
27264,note_on,,,,,92,0,9,,,,,2,,,70,85
27264,note_on,,,,,92,0,10,,,,,3,,,53,85
27264,note_on,,,,,92,0,14,,,,,6,,,53,100
27264,note_on,,,,,32,0,8,,,,,1,,,74,85
27264,note_on,,,,,128,0,15,,,,,7,,,74,100
27264,note_on,,,,,0,0,15,,,,,7,,,70,100
27264,note_on,,,,,92,0,11,,,,,4,,,53,85
27264,note_on,,,,,0,0,13,,,,,6,,,65,100
27264,note_on,,,,,0,0,13,,,,,6,,,70,100
27264,note_on,,,,,128,0,13,,,,,6,,,74,100
27264,note_on,,,,,60,0,16,,,,,7,,,53,100
27328,note_off,,,,,64,0,8,,,,,1,,,74,100
27360,note_on,,,,,32,0,8,,,,,1,,,72,85
27364,note_off,,,,,100,0,14,,,,,6,,,53,100
27364,note_off,,,,,100,0,10,,,,,3,,,53,100
27364,note_off,,,,,100,0,9,,,,,2,,,70,100
27364,note_off,,,,,100,0,11,,,,,4,,,53,100
27364,note_off,,,,,100,0,12,,,,,5,,,41,100
27396,note_off,,,,,132,0,16,,,,,7,,,53,100
27424,note_off,,,,,64,0,8,,,,,1,,,72,100
27456,note_on,,,,,60,0,16,,,,,7,,,41,100
27456,note_on,,,,,92,0,11,,,,,4,,,41,85
27456,note_on,,,,,92,0,10,,,,,3,,,58,85
27456,note_on,,,,,32,0,8,,,,,1,,,74,85
27456,note_on,,,,,92,0,9,,,,,2,,,65,85
27456,note_on,,,,,92,0,12,,,,,5,,,41,85
27456,note_on,,,,,92,0,14,,,,,6,,,41,100
27520,note_off,,,,,0,0,13,,,,,6,,,70,100
27520,note_off,,,,,0,0,13,,,,,6,,,65,100
27520,note_off,,,,,256,0,13,,,,,6,,,74,100
27520,note_off,,,,,64,0,8,,,,,1,,,74,100
27520,note_off,,,,,256,0,15,,,,,7,,,74,100
27520,note_off,,,,,0,0,15,,,,,7,,,70,100
27552,note_on,,,,,32,0,8,,,,,1,,,70,85
27556,note_off,,,,,100,0,9,,,,,2,,,65,100
27556,note_off,,,,,100,0,12,,,,,5,,,41,100
27556,note_off,,,,,100,0,11,,,,,4,,,41,100
27556,note_off,,,,,100,0,10,,,,,3,,,58,100
27556,note_off,,,,,100,0,14,,,,,6,,,41,100
27568,note_off,,,,,48,0,15,,,,,7,,,65,100
27588,note_off,,,,,132,0,16,,,,,7,,,41,100
27616,note_off,,,,,64,0,8,,,,,1,,,70,100
27648,note_on,,,,,92,0,9,,,,,2,,,69,95
27648,note_on,,,,,60,0,16,,,,,7,,,53,100
27648,note_on,,,,,128,0,13,,,,,6,,,72,100
27648,note_on,,,,,0,0,13,,,,,6,,,65,100
27648,note_on,,,,,0,0,13,,,,,6,,,69,100
27648,note_on,,,,,0,0,15,,,,,7,,,65,100
27648,note_on,,,,,80,0,15,,,,,7,,,72,100
27648,note_on,,,,,92,0,11,,,,,4,,,53,95
27648,note_on,,,,,0,0,15,,,,,7,,,69,100
27648,note_on,,,,,92,0,12,,,,,5,,,41,95
27648,note_on,,,,,92,0,10,,,,,3,,,53,95
27648,note_on,,,,,32,0,8,,,,,1,,,72,95
27648,note_on,,,,,92,0,14,,,,,6,,,53,100
27712,note_off,,,,,64,0,9,,,,,2,,,69,100
27744,note_on,,,,,32,0,9,,,,,2,,,65,95
27748,note_off,,,,,100,0,12,,,,,5,,,41,100
27748,note_off,,,,,100,0,11,,,,,4,,,53,100
27748,note_off,,,,,100,0,14,,,,,6,,,53,100
27748,note_off,,,,,100,0,8,,,,,1,,,72,100
27776,note_off,,,,,128,0,15,,,,,7,,,72,100
27776,note_off,,,,,128,0,13,,,,,6,,,72,100
27780,note_off,,,,,132,0,16,,,,,7,,,53,100
27808,note_off,,,,,64,0,9,,,,,2,,,65,100
27840,note_on,,,,,60,0,16,,,,,7,,,51,100
27840,note_on,,,,,92,0,8,,,,,1,,,69,96
27840,note_on,,,,,64,0,13,,,,,6,,,77,100
27840,note_on,,,,,92,0,14,,,,,6,,,51,100
27840,note_on,,,,,92,0,11,,,,,4,,,51,96
27840,note_on,,,,,64,0,15,,,,,7,,,77,100
27840,note_on,,,,,32,0,9,,,,,2,,,69,96
27840,note_on,,,,,92,0,12,,,,,5,,,39,96
27904,note_off,,,,,256,0,10,,,,,3,,,53,100
27904,note_off,,,,,64,0,13,,,,,6,,,65,100
27904,note_off,,,,,64,0,9,,,,,2,,,69,100
27904,note_off,,,,,64,0,15,,,,,7,,,65,100
27904,note_off,,,,,0,0,13,,,,,6,,,69,100
27904,note_off,,,,,0,0,15,,,,,7,,,69,100
27936,note_on,,,,,32,0,9,,,,,2,,,72,96
27940,note_off,,,,,100,0,8,,,,,1,,,69,100
27940,note_off,,,,,100,0,11,,,,,4,,,51,100
27940,note_off,,,,,100,0,12,,,,,5,,,39,100
27940,note_off,,,,,100,0,14,,,,,6,,,51,100
27972,note_off,,,,,132,0,16,,,,,7,,,51,100
28000,note_off,,,,,64,0,9,,,,,2,,,72,100
28032,note_on,,,,,32,0,9,,,,,2,,,74,97
28032,note_on,,,,,60,0,16,,,,,7,,,50,100
28032,note_on,,,,,0,0,13,,,,,6,,,70,100
28032,note_on,,,,,0,0,15,,,,,7,,,70,100
28032,note_on,,,,,128,0,15,,,,,7,,,65,100
28032,note_on,,,,,92,0,8,,,,,1,,,70,97
28032,note_on,,,,,92,0,11,,,,,4,,,50,97
28032,note_on,,,,,128,0,13,,,,,6,,,65,100
28032,note_on,,,,,92,0,12,,,,,5,,,38,97
28032,note_on,,,,,92,0,14,,,,,6,,,50,100
28096,note_off,,,,,64,0,9,,,,,2,,,74,100
28096,note_off,,,,,64,0,15,,,,,7,,,77,100
28096,note_off,,,,,64,0,13,,,,,6,,,77,100
28128,note_on,,,,,32,0,9,,,,,2,,,70,98
28132,note_off,,,,,100,0,11,,,,,4,,,50,100
28132,note_off,,,,,100,0,12,,,,,5,,,38,100
28132,note_off,,,,,100,0,14,,,,,6,,,50,100
28132,note_off,,,,,100,0,8,,,,,1,,,70,100
28164,note_off,,,,,132,0,16,,,,,7,,,50,100
28192,note_off,,,,,64,0,9,,,,,2,,,70,100
28224,note_on,,,,,92,0,11,,,,,4,,,46,98
28224,note_on,,,,,128,0,15,,,,,7,,,74,100
28224,note_on,,,,,32,0,9,,,,,2,,,65,98
28224,note_on,,,,,128,0,13,,,,,6,,,74,100
28224,note_on,,,,,92,0,8,,,,,1,,,62,98
28224,note_on,,,,,60,0,16,,,,,7,,,46,100
28224,note_on,,,,,92,0,12,,,,,5,,,34,98
28224,note_on,,,,,320,0,10,,,,,3,,,58,98
28224,note_on,,,,,92,0,14,,,,,6,,,46,100
28288,note_off,,,,,0,0,15,,,,,7,,,70,100
28288,note_off,,,,,64,0,15,,,,,7,,,65,100
28288,note_off,,,,,64,0,9,,,,,2,,,65,100
28288,note_off,,,,,64,0,13,,,,,6,,,65,100
28288,note_off,,,,,0,0,13,,,,,6,,,70,100
28320,note_on,,,,,32,0,9,,,,,2,,,70,99
28324,note_off,,,,,100,0,10,,,,,3,,,58,100
28324,note_off,,,,,100,0,8,,,,,1,,,62,100
28324,note_off,,,,,100,0,14,,,,,6,,,46,100
28324,note_off,,,,,100,0,12,,,,,5,,,34,100
28324,note_off,,,,,100,0,11,,,,,4,,,46,100
28352,note_off,,,,,64,0,15,,,,,7,,,74,100
28352,note_off,,,,,64,0,13,,,,,6,,,74,100
28356,note_off,,,,,132,0,16,,,,,7,,,46,100
28384,note_off,,,,,64,0,9,,,,,2,,,70,100
28416,note_on,,,,,32,0,9,,,,,2,,,67,99
28416,note_on,,,,,0,0,15,,,,,7,,,70,100
28416,note_on,,,,,64,0,15,,,,,7,,,63,100
28416,note_on,,,,,92,0,14,,,,,6,,,48,100
28416,note_on,,,,,92,0,8,,,,,1,,,63,99
28416,note_on,,,,,60,0,16,,,,,7,,,48,100
28416,note_on,,,,,92,0,12,,,,,5,,,36,99
28416,note_on,,,,,64,0,13,,,,,6,,,63,100
28416,note_on,,,,,0,0,13,,,,,6,,,70,100
28416,note_on,,,,,0,0,15,,,,,7,,,72,100
28416,note_on,,,,,92,0,10,,,,,3,,,58,99
28416,note_on,,,,,92,0,11,,,,,4,,,48,99
28416,note_on,,,,,0,0,13,,,,,6,,,72,100
28480,note_off,,,,,64,0,9,,,,,2,,,67,100
28512,note_on,,,,,32,0,9,,,,,2,,,63,100
28516,note_off,,,,,100,0,8,,,,,1,,,63,100
28576,note_off,,,,,64,0,9,,,,,2,,,63,100
28608,note_on,,,,,32,0,9,,,,,2,,,60,100
28608,note_on,,,,,92,0,8,,,,,1,,,70,100
28672,note_off,,,,,256,0,13,,,,,6,,,63,100
28672,note_off,,,,,0,0,15,,,,,7,,,70,100
28672,note_off,,,,,256,0,10,,,,,3,,,58,100
28672,note_off,,,,,256,0,14,,,,,6,,,48,100
28672,note_off,,,,,0,0,13,,,,,6,,,72,100
28672,note_off,,,,,0,0,15,,,,,7,,,72,100
28672,note_off,,,,,256,0,15,,,,,7,,,63,100
28672,note_off,,,,,256,0,12,,,,,5,,,36,100
28672,note_off,,,,,0,0,13,,,,,6,,,70,100
28672,note_off,,,,,256,0,16,,,,,7,,,48,100
28672,note_off,,,,,64,0,9,,,,,2,,,60,100
28672,note_off,,,,,256,0,11,,,,,4,,,48,100
28704,note_on,,,,,32,0,9,,,,,2,,,63,100
28708,note_off,,,,,100,0,8,,,,,1,,,70,100
28768,note_off,,,,,64,0,9,,,,,2,,,63,100
28800,note_on,,,,,32,0,9,,,,,2,,,65,100
28800,note_on,,,,,128,0,11,,,,,4,,,53,100
28800,note_on,,,,,0,0,13,,,,,6,,,60,100
28800,note_on,,,,,0,0,13,,,,,6,,,69,100
28800,note_on,,,,,128,0,10,,,,,3,,,57,100
28800,note_on,,,,,128,0,15,,,,,7,,,72,100
28800,note_on,,,,,0,0,15,,,,,7,,,69,100
28800,note_on,,,,,92,0,8,,,,,1,,,65,100
28800,note_on,,,,,0,0,15,,,,,7,,,60,100
28800,note_on,,,,,128,0,12,,,,,5,,,41,100
28800,note_on,,,,,128,0,16,,,,,7,,,53,100
28800,note_on,,,,,128,0,13,,,,,6,,,72,100
28800,note_on,,,,,128,0,14,,,,,6,,,53,100
28864,note_off,,,,,64,0,9,,,,,2,,,65,100
28896,note_on,,,,,32,0,9,,,,,2,,,60,100
28900,note_off,,,,,100,0,8,,,,,1,,,65,100
28900,note_off,,,,,100,0,10,,,,,3,,,57,100
28960,note_off,,,,,64,0,9,,,,,2,,,60,100
28992,note_on,,,,,92,0,10,,,,,3,,,53,100
28992,note_on,,,,,32,0,9,,,,,2,,,57,100
28992,note_on,,,,,92,0,8,,,,,1,,,69,100
29056,note_off,,,,,64,0,9,,,,,2,,,57,100
29056,note_off,,,,,256,0,12,,,,,5,,,41,100
29056,note_off,,,,,256,0,16,,,,,7,,,53,100
29056,note_off,,,,,0,0,15,,,,,7,,,60,100
29056,note_off,,,,,0,0,15,,,,,7,,,69,100
29056,note_off,,,,,256,0,15,,,,,7,,,72,100
29056,note_off,,,,,256,0,14,,,,,6,,,53,100
29056,note_off,,,,,256,0,11,,,,,4,,,53,100
29056,note_off,,,,,256,0,13,,,,,6,,,72,100
29056,note_off,,,,,0,0,13,,,,,6,,,69,100
29056,note_off,,,,,0,0,13,,,,,6,,,60,100
29088,note_on,,,,,32,0,9,,,,,2,,,65,100
29092,note_off,,,,,100,0,8,,,,,1,,,69,100
29092,note_off,,,,,100,0,10,,,,,3,,,53,100
29152,note_off,,,,,64,0,9,,,,,2,,,65,100
29184,note_on,,,,,128,0,14,,,,,6,,,46,100
29184,note_on,,,,,92,0,8,,,,,1,,,70,100
29184,note_on,,,,,128,0,16,,,,,7,,,46,100
29184,note_on,,,,,0,0,15,,,,,7,,,70,100
29184,note_on,,,,,0,0,15,,,,,7,,,65,100
29184,note_on,,,,,128,0,15,,,,,7,,,62,100
29184,note_on,,,,,0,0,13,,,,,6,,,70,100
29184,note_on,,,,,0,0,13,,,,,6,,,65,100
29184,note_on,,,,,128,0,13,,,,,6,,,62,100
29184,note_on,,,,,128,0,11,,,,,4,,,46,100
29184,note_on,,,,,92,0,10,,,,,3,,,53,100
29184,note_on,,,,,128,0,12,,,,,5,,,34,100
29184,note_on,,,,,32,0,9,,,,,2,,,62,100
29440,note_off,,,,,256,0,14,,,,,6,,,46,100
29440,note_off,,,,,256,0,10,,,,,3,,,53,100
29440,note_off,,,,,256,0,12,,,,,5,,,34,100
29440,note_off,,,,,0,0,15,,,,,7,,,70,100
29440,note_off,,,,,0,0,15,,,,,7,,,65,100
29440,note_off,,,,,256,0,8,,,,,1,,,70,100
29440,note_off,,,,,256,0,16,,,,,7,,,46,100
29440,note_off,,,,,256,0,11,,,,,4,,,46,100
29440,note_off,,,,,256,0,13,,,,,6,,,62,100
29440,note_off,,,,,0,0,13,,,,,6,,,65,100
29440,note_off,,,,,256,0,15,,,,,7,,,62,100
29440,note_off,,,,,0,0,13,,,,,6,,,70,100
29440,note_off,,,,,256,0,9,,,,,2,,,62,100
29760,note_on,,,,,320,0,10,,,,,3,,,62,100
29760,note_on,,,,,320,0,11,,,,,4,,,46,100
29760,note_on,,,,,320,0,13,,,,,6,,,62,100
29760,note_on,,,,,0,0,13,,,,,6,,,65,100
29760,note_on,,,,,320,0,8,,,,,1,,,65,100
29760,note_on,,,,,320,0,12,,,,,5,,,34,100
29760,note_on,,,,,320,0,14,,,,,6,,,46,100
29760,note_on,,,,,320,0,16,,,,,7,,,46,100
29860,note_off,,,,,100,0,8,,,,,1,,,65,100
29860,note_off,,,,,100,0,12,,,,,5,,,34,100
29860,note_off,,,,,100,0,11,,,,,4,,,46,100
29860,note_off,,,,,100,0,14,,,,,6,,,46,100
29860,note_off,,,,,100,0,10,,,,,3,,,62,100
29888,note_off,,,,,0,0,13,,,,,6,,,65,100
29888,note_off,,,,,128,0,16,,,,,7,,,46,100
29888,note_off,,,,,128,0,13,,,,,6,,,62,100
29952,note_on,,,,,92,0,12,,,,,5,,,34,100
29952,note_on,,,,,92,0,10,,,,,3,,,62,100
29952,note_on,,,,,92,0,11,,,,,4,,,46,100
29952,note_on,,,,,0,0,13,,,,,6,,,65,100
29952,note_on,,,,,64,0,13,,,,,6,,,62,100
29952,note_on,,,,,92,0,8,,,,,1,,,70,100
29952,note_on,,,,,64,0,16,,,,,7,,,46,100
29952,note_on,,,,,512,0,15,,,,,7,,,62,100
29952,note_on,,,,,0,0,15,,,,,7,,,65,100
29952,note_on,,,,,92,0,14,,,,,6,,,46,100
29952,note_on,,,,,0,0,15,,,,,7,,,70,100
30052,note_off,,,,,100,0,10,,,,,3,,,62,100
30052,note_off,,,,,100,0,14,,,,,6,,,46,100
30052,note_off,,,,,100,0,12,,,,,5,,,34,100
30052,note_off,,,,,100,0,8,,,,,1,,,70,100
30052,note_off,,,,,100,0,11,,,,,4,,,46,100
30080,note_off,,,,,128,0,16,,,,,7,,,46,100
30144,note_on,,,,,92,0,8,,,,,1,,,70,100
30144,note_on,,,,,92,0,11,,,,,4,,,58,100
30144,note_on,,,,,92,0,12,,,,,5,,,46,100
30144,note_on,,,,,64,0,16,,,,,7,,,58,100
30144,note_on,,,,,92,0,10,,,,,3,,,58,100
30144,note_on,,,,,192,0,13,,,,,6,,,70,100
30144,note_on,,,,,92,0,14,,,,,6,,,58,100
30208,note_off,,,,,0,0,13,,,,,6,,,70,100
30208,note_off,,,,,64,0,13,,,,,6,,,62,100
30208,note_off,,,,,0,0,13,,,,,6,,,65,100
30240,note_on,,,,,32,0,13,,,,,6,,,69,100
30244,note_off,,,,,100,0,11,,,,,4,,,58,100
30244,note_off,,,,,100,0,10,,,,,3,,,58,100
30244,note_off,,,,,100,0,14,,,,,6,,,58,100
30244,note_off,,,,,100,0,12,,,,,5,,,46,100
30244,note_off,,,,,100,0,8,,,,,1,,,70,100
30272,note_off,,,,,128,0,16,,,,,7,,,58,100
30304,note_off,,,,,64,0,13,,,,,6,,,69,100
30336,note_on,,,,,92,0,8,,,,,1,,,70,100
30336,note_on,,,,,64,0,16,,,,,7,,,58,100
30336,note_on,,,,,92,0,12,,,,,5,,,46,100
30336,note_on,,,,,92,0,10,,,,,3,,,62,100
30336,note_on,,,,,92,0,14,,,,,6,,,58,100
30336,note_on,,,,,32,0,13,,,,,6,,,70,100
30336,note_on,,,,,92,0,11,,,,,4,,,58,100
30400,note_off,,,,,64,0,13,,,,,6,,,70,100
30432,note_on,,,,,32,0,13,,,,,6,,,65,100
30436,note_off,,,,,100,0,10,,,,,3,,,62,100
30436,note_off,,,,,100,0,8,,,,,1,,,70,100
30436,note_off,,,,,100,0,12,,,,,5,,,46,100
30436,note_off,,,,,100,0,14,,,,,6,,,58,100
30436,note_off,,,,,100,0,11,,,,,4,,,58,100
30464,note_off,,,,,128,0,16,,,,,7,,,58,100
30496,note_off,,,,,64,0,13,,,,,6,,,65,100
30528,note_on,,,,,92,0,12,,,,,5,,,34,100
30528,note_on,,,,,32,0,13,,,,,6,,,62,100
30528,note_on,,,,,64,0,16,,,,,7,,,46,100
30528,note_on,,,,,92,0,11,,,,,4,,,46,100
30528,note_on,,,,,92,0,8,,,,,1,,,70,100
30528,note_on,,,,,1088,0,9,,,,,2,,,65,100
30528,note_on,,,,,92,0,10,,,,,3,,,65,100
30528,note_on,,,,,92,0,14,,,,,6,,,46,100
30592,note_off,,,,,64,0,13,,,,,6,,,62,100
30624,note_on,,,,,32,0,13,,,,,6,,,65,100
30628,note_off,,,,,100,0,8,,,,,1,,,70,100
30628,note_off,,,,,100,0,10,,,,,3,,,65,100
30628,note_off,,,,,100,0,14,,,,,6,,,46,100
30628,note_off,,,,,100,0,9,,,,,2,,,65,100
30628,note_off,,,,,100,0,12,,,,,5,,,34,100
30628,note_off,,,,,100,0,11,,,,,4,,,46,100
30640,note_off,,,,,688,0,15,,,,,7,,,62,100
30640,note_off,,,,,0,0,15,,,,,7,,,65,100
30640,note_off,,,,,0,0,15,,,,,7,,,70,100
30656,note_off,,,,,128,0,16,,,,,7,,,46,100
30688,note_off,,,,,64,0,13,,,,,6,,,65,100
30720,note_on,,,,,0,0,15,,,,,7,,,70,100
30720,note_on,,,,,92,0,9,,,,,2,,,70,100
30720,note_on,,,,,92,0,12,,,,,5,,,34,100
30720,note_on,,,,,64,0,16,,,,,7,,,46,100
30720,note_on,,,,,92,0,11,,,,,4,,,46,100
30720,note_on,,,,,92,0,10,,,,,3,,,62,100
30720,note_on,,,,,92,0,8,,,,,1,,,70,100
30720,note_on,,,,,32,0,13,,,,,6,,,58,100
30720,note_on,,,,,80,0,15,,,,,7,,,62,100
30720,note_on,,,,,92,0,14,,,,,6,,,46,100
30720,note_on,,,,,0,0,15,,,,,7,,,65,100
30784,note_off,,,,,64,0,8,,,,,1,,,70,100
30784,note_off,,,,,64,0,13,,,,,6,,,58,100
30816,note_on,,,,,32,0,8,,,,,1,,,65,100
30816,note_on,,,,,32,0,13,,,,,6,,,65,100
30820,note_off,,,,,100,0,11,,,,,4,,,46,100
30820,note_off,,,,,100,0,14,,,,,6,,,46,100
30820,note_off,,,,,100,0,9,,,,,2,,,70,100
30820,note_off,,,,,100,0,12,,,,,5,,,34,100
30820,note_off,,,,,100,0,10,,,,,3,,,62,100
30848,note_off,,,,,128,0,16,,,,,7,,,46,100
30880,note_off,,,,,64,0,8,,,,,1,,,65,100
30880,note_off,,,,,64,0,13,,,,,6,,,65,100
30912,note_on,,,,,92,0,12,,,,,5,,,46,100
30912,note_on,,,,,92,0,10,,,,,3,,,58,100
30912,note_on,,,,,32,0,8,,,,,1,,,62,100
30912,note_on,,,,,64,0,16,,,,,7,,,58,100
30912,note_on,,,,,32,0,13,,,,,6,,,62,100
30912,note_on,,,,,92,0,11,,,,,4,,,58,100
30912,note_on,,,,,92,0,14,,,,,6,,,58,100
30912,note_on,,,,,92,0,9,,,,,2,,,70,100
30976,note_off,,,,,64,0,8,,,,,1,,,62,100
30976,note_off,,,,,64,0,13,,,,,6,,,62,100
31008,note_on,,,,,32,0,8,,,,,1,,,65,100
31008,note_on,,,,,32,0,13,,,,,6,,,65,100
31012,note_off,,,,,100,0,11,,,,,4,,,58,100
31012,note_off,,,,,100,0,9,,,,,2,,,70,100
31012,note_off,,,,,100,0,10,,,,,3,,,58,100
31012,note_off,,,,,100,0,14,,,,,6,,,58,100
31012,note_off,,,,,100,0,12,,,,,5,,,46,100
31040,note_off,,,,,128,0,16,,,,,7,,,58,100
31072,note_off,,,,,64,0,13,,,,,6,,,65,100
31072,note_off,,,,,64,0,8,,,,,1,,,65,100
31104,note_on,,,,,64,0,16,,,,,7,,,58,100
31104,note_on,,,,,92,0,10,,,,,3,,,62,100
31104,note_on,,,,,92,0,9,,,,,2,,,70,100
31104,note_on,,,,,92,0,14,,,,,6,,,58,100
31104,note_on,,,,,92,0,11,,,,,4,,,58,100
31104,note_on,,,,,92,0,12,,,,,5,,,46,100
31104,note_on,,,,,32,0,8,,,,,1,,,70,100
31104,note_on,,,,,32,0,13,,,,,6,,,70,100
31168,note_off,,,,,64,0,13,,,,,6,,,70,100
31168,note_off,,,,,64,0,8,,,,,1,,,70,100
31200,note_on,,,,,32,0,13,,,,,6,,,65,100
31200,note_on,,,,,32,0,8,,,,,1,,,65,100
31204,note_off,,,,,100,0,9,,,,,2,,,70,100
31204,note_off,,,,,100,0,11,,,,,4,,,58,100
31204,note_off,,,,,100,0,12,,,,,5,,,46,100
31204,note_off,,,,,100,0,10,,,,,3,,,62,100
31204,note_off,,,,,100,0,14,,,,,6,,,58,100
31232,note_off,,,,,128,0,16,,,,,7,,,58,100
31264,note_off,,,,,64,0,8,,,,,1,,,65,100
31264,note_off,,,,,64,0,13,,,,,6,,,65,100
31296,note_on,,,,,64,0,16,,,,,7,,,46,100
31296,note_on,,,,,92,0,10,,,,,3,,,65,100
31296,note_on,,,,,32,0,13,,,,,6,,,62,100
31296,note_on,,,,,92,0,12,,,,,5,,,34,100
31296,note_on,,,,,92,0,14,,,,,6,,,46,100
31296,note_on,,,,,92,0,11,,,,,4,,,46,100
31296,note_on,,,,,92,0,9,,,,,2,,,70,100
31296,note_on,,,,,32,0,8,,,,,1,,,62,100
31360,note_off,,,,,64,0,13,,,,,6,,,62,100
31360,note_off,,,,,64,0,8,,,,,1,,,62,100
31392,note_on,,,,,32,0,13,,,,,6,,,65,100
31392,note_on,,,,,32,0,8,,,,,1,,,65,100
31396,note_off,,,,,100,0,12,,,,,5,,,34,100
31396,note_off,,,,,100,0,9,,,,,2,,,70,100
31396,note_off,,,,,100,0,11,,,,,4,,,46,100
31396,note_off,,,,,100,0,14,,,,,6,,,46,100
31396,note_off,,,,,100,0,10,,,,,3,,,65,100
31408,note_off,,,,,0,0,15,,,,,7,,,65,100
31408,note_off,,,,,0,0,15,,,,,7,,,70,100
31408,note_off,,,,,688,0,15,,,,,7,,,62,100
31424,note_off,,,,,128,0,16,,,,,7,,,46,100
31456,note_off,,,,,64,0,8,,,,,1,,,65,100
31456,note_off,,,,,64,0,13,,,,,6,,,65,100
31488,note_on,,,,,0,0,15,,,,,7,,,65,100
31488,note_on,,,,,92,0,9,,,,,2,,,70,100
31488,note_on,,,,,64,0,16,,,,,7,,,46,100
31488,note_on,,,,,0,0,15,,,,,7,,,70,100
31488,note_on,,,,,92,0,10,,,,,3,,,62,100
31488,note_on,,,,,92,0,12,,,,,5,,,34,100
31488,note_on,,,,,92,0,14,,,,,6,,,46,100
31488,note_on,,,,,32,0,13,,,,,6,,,58,100
31488,note_on,,,,,92,0,11,,,,,4,,,46,100
31488,note_on,,,,,80,0,15,,,,,7,,,62,100
31488,note_on,,,,,32,0,8,,,,,1,,,70,100
31552,note_off,,,,,64,0,13,,,,,6,,,58,100
31552,note_off,,,,,64,0,9,,,,,2,,,70,100
31584,note_on,,,,,32,0,9,,,,,2,,,65,100
31584,note_on,,,,,32,0,13,,,,,6,,,65,100
31588,note_off,,,,,100,0,8,,,,,1,,,70,100
31588,note_off,,,,,100,0,14,,,,,6,,,46,100
31588,note_off,,,,,100,0,10,,,,,3,,,62,100
31588,note_off,,,,,100,0,11,,,,,4,,,46,100
31588,note_off,,,,,100,0,12,,,,,5,,,34,100
31616,note_off,,,,,128,0,16,,,,,7,,,46,100
31648,note_off,,,,,64,0,9,,,,,2,,,65,100
31648,note_off,,,,,64,0,13,,,,,6,,,65,100
31680,note_on,,,,,32,0,9,,,,,2,,,62,100
31680,note_on,,,,,92,0,8,,,,,1,,,70,100
31680,note_on,,,,,92,0,12,,,,,5,,,46,100
31680,note_on,,,,,32,0,13,,,,,6,,,62,100
31680,note_on,,,,,92,0,11,,,,,4,,,58,100
31680,note_on,,,,,64,0,16,,,,,7,,,58,100
31680,note_on,,,,,92,0,10,,,,,3,,,58,100
31680,note_on,,,,,92,0,14,,,,,6,,,58,100
31744,note_off,,,,,64,0,9,,,,,2,,,62,100
31744,note_off,,,,,64,0,13,,,,,6,,,62,100
31776,note_on,,,,,32,0,9,,,,,2,,,65,100
31776,note_on,,,,,32,0,13,,,,,6,,,65,100
31780,note_off,,,,,100,0,10,,,,,3,,,58,100
31780,note_off,,,,,100,0,12,,,,,5,,,46,100
31780,note_off,,,,,100,0,14,,,,,6,,,58,100
31780,note_off,,,,,100,0,8,,,,,1,,,70,100
31780,note_off,,,,,100,0,11,,,,,4,,,58,100
31808,note_off,,,,,128,0,16,,,,,7,,,58,100
31840,note_off,,,,,64,0,13,,,,,6,,,65,100
31840,note_off,,,,,64,0,9,,,,,2,,,65,100
31872,note_on,,,,,64,0,16,,,,,7,,,58,100
31872,note_on,,,,,32,0,13,,,,,6,,,70,100
31872,note_on,,,,,92,0,8,,,,,1,,,70,100
31872,note_on,,,,,32,0,9,,,,,2,,,70,100
31872,note_on,,,,,92,0,12,,,,,5,,,46,100
31872,note_on,,,,,92,0,14,,,,,6,,,58,100
31872,note_on,,,,,92,0,10,,,,,3,,,62,100
31872,note_on,,,,,92,0,11,,,,,4,,,58,100
31936,note_off,,,,,64,0,13,,,,,6,,,70,100
31936,note_off,,,,,64,0,9,,,,,2,,,70,100
31968,note_on,,,,,32,0,13,,,,,6,,,65,100
31968,note_on,,,,,32,0,9,,,,,2,,,65,100
31972,note_off,,,,,100,0,11,,,,,4,,,58,100
31972,note_off,,,,,100,0,8,,,,,1,,,70,100
31972,note_off,,,,,100,0,12,,,,,5,,,46,100
31972,note_off,,,,,100,0,10,,,,,3,,,62,100
31972,note_off,,,,,100,0,14,,,,,6,,,58,100
32000,note_off,,,,,128,0,16,,,,,7,,,58,100
32032,note_off,,,,,64,0,13,,,,,6,,,65,100
32032,note_off,,,,,64,0,9,,,,,2,,,65,100
32064,note_on,,,,,92,0,10,,,,,3,,,65,100
32064,note_on,,,,,92,0,11,,,,,4,,,46,100
32064,note_on,,,,,32,0,9,,,,,2,,,62,100
32064,note_on,,,,,92,0,8,,,,,1,,,70,100
32064,note_on,,,,,92,0,14,,,,,6,,,46,100
32064,note_on,,,,,92,0,12,,,,,5,,,34,100
32064,note_on,,,,,32,0,13,,,,,6,,,62,100
32064,note_on,,,,,64,0,16,,,,,7,,,46,100
32128,note_off,,,,,64,0,13,,,,,6,,,62,100
32128,note_off,,,,,64,0,9,,,,,2,,,62,100
32160,note_on,,,,,32,0,13,,,,,6,,,65,100
32160,note_on,,,,,32,0,9,,,,,2,,,65,100
32164,note_off,,,,,100,0,11,,,,,4,,,46,100
32164,note_off,,,,,100,0,14,,,,,6,,,46,100
32164,note_off,,,,,100,0,8,,,,,1,,,70,100
32164,note_off,,,,,100,0,10,,,,,3,,,65,100
32164,note_off,,,,,100,0,12,,,,,5,,,34,100
32176,note_off,,,,,688,0,15,,,,,7,,,62,100
32176,note_off,,,,,0,0,15,,,,,7,,,65,100
32176,note_off,,,,,0,0,15,,,,,7,,,70,100
32192,note_off,,,,,128,0,16,,,,,7,,,46,100
32224,note_off,,,,,64,0,9,,,,,2,,,65,100
32224,note_off,,,,,64,0,13,,,,,6,,,65,100
32256,note_on,,,,,0,0,15,,,,,7,,,65,100
32256,note_on,,,,,32,0,13,,,,,6,,,58,100
32256,note_on,,,,,32,0,9,,,,,2,,,70,100
32256,note_on,,,,,92,0,14,,,,,6,,,46,100
32256,note_on,,,,,80,0,15,,,,,7,,,62,100
32256,note_on,,,,,92,0,12,,,,,5,,,34,100
32256,note_on,,,,,92,0,8,,,,,1,,,70,100
32256,note_on,,,,,92,0,11,,,,,4,,,46,100
32256,note_on,,,,,92,0,10,,,,,3,,,62,100
32256,note_on,,,,,64,0,16,,,,,7,,,46,100
32256,note_on,,,,,0,0,15,,,,,7,,,70,100
32320,note_off,,,,,64,0,8,,,,,1,,,70,100
32320,note_off,,,,,64,0,13,,,,,6,,,58,100
32352,note_on,,,,,32,0,13,,,,,6,,,65,100
32352,note_on,,,,,32,0,8,,,,,1,,,65,100
32356,note_off,,,,,100,0,12,,,,,5,,,34,100
32356,note_off,,,,,100,0,10,,,,,3,,,62,100
32356,note_off,,,,,100,0,9,,,,,2,,,70,100
32356,note_off,,,,,100,0,11,,,,,4,,,46,100
32356,note_off,,,,,100,0,14,,,,,6,,,46,100
32384,note_off,,,,,128,0,16,,,,,7,,,46,100
32416,note_off,,,,,64,0,13,,,,,6,,,65,100
32416,note_off,,,,,64,0,8,,,,,1,,,65,100
32448,note_on,,,,,92,0,12,,,,,5,,,46,100
32448,note_on,,,,,32,0,8,,,,,1,,,62,100
32448,note_on,,,,,32,0,13,,,,,6,,,62,100
32448,note_on,,,,,64,0,16,,,,,7,,,58,100
32448,note_on,,,,,92,0,11,,,,,4,,,58,100
32448,note_on,,,,,92,0,9,,,,,2,,,70,100
32448,note_on,,,,,92,0,14,,,,,6,,,58,100
32448,note_on,,,,,92,0,10,,,,,3,,,58,100
32512,note_off,,,,,64,0,13,,,,,6,,,62,100
32512,note_off,,,,,64,0,8,,,,,1,,,62,100
32544,note_on,,,,,32,0,8,,,,,1,,,65,100
32544,note_on,,,,,32,0,13,,,,,6,,,65,100
32548,note_off,,,,,100,0,10,,,,,3,,,58,100
32548,note_off,,,,,100,0,12,,,,,5,,,46,100
32548,note_off,,,,,100,0,11,,,,,4,,,58,100
32548,note_off,,,,,100,0,14,,,,,6,,,58,100
32548,note_off,,,,,100,0,9,,,,,2,,,70,100
32576,note_off,,,,,128,0,16,,,,,7,,,58,100
32608,note_off,,,,,64,0,8,,,,,1,,,65,100
32608,note_off,,,,,64,0,13,,,,,6,,,65,100
32640,note_on,,,,,92,0,12,,,,,5,,,46,100
32640,note_on,,,,,92,0,11,,,,,4,,,58,100
32640,note_on,,,,,32,0,13,,,,,6,,,70,100
32640,note_on,,,,,32,0,8,,,,,1,,,70,100
32640,note_on,,,,,92,0,10,,,,,3,,,62,100
32640,note_on,,,,,92,0,9,,,,,2,,,70,100
32640,note_on,,,,,64,0,16,,,,,7,,,58,100
32640,note_on,,,,,92,0,14,,,,,6,,,58,100
32704,note_off,,,,,64,0,8,,,,,1,,,70,100
32704,note_off,,,,,64,0,13,,,,,6,,,70,100
32736,note_on,,,,,32,0,8,,,,,1,,,65,100
32736,note_on,,,,,32,0,13,,,,,6,,,65,100
32740,note_off,,,,,100,0,14,,,,,6,,,58,100
32740,note_off,,,,,100,0,10,,,,,3,,,62,100
32740,note_off,,,,,100,0,12,,,,,5,,,46,100
32740,note_off,,,,,100,0,11,,,,,4,,,58,100
32740,note_off,,,,,100,0,9,,,,,2,,,70,100
32768,note_off,,,,,128,0,16,,,,,7,,,58,100
32800,note_off,,,,,64,0,8,,,,,1,,,65,100
32800,note_off,,,,,64,0,13,,,,,6,,,65,100
32832,note_on,,,,,32,0,13,,,,,6,,,62,100
32832,note_on,,,,,92,0,11,,,,,4,,,46,100
32832,note_on,,,,,92,0,9,,,,,2,,,70,100
32832,note_on,,,,,92,0,10,,,,,3,,,65,100
32832,note_on,,,,,92,0,14,,,,,6,,,46,100
32832,note_on,,,,,32,0,8,,,,,1,,,62,100
32832,note_on,,,,,92,0,12,,,,,5,,,34,100
32832,note_on,,,,,64,0,16,,,,,7,,,46,100
32896,note_off,,,,,64,0,8,,,,,1,,,62,100
32896,note_off,,,,,64,0,13,,,,,6,,,62,100
32928,note_on,,,,,32,0,8,,,,,1,,,65,100
32928,note_on,,,,,32,0,13,,,,,6,,,65,100
32932,note_off,,,,,100,0,14,,,,,6,,,46,100
32932,note_off,,,,,100,0,9,,,,,2,,,70,100
32932,note_off,,,,,100,0,11,,,,,4,,,46,100
32932,note_off,,,,,100,0,10,,,,,3,,,65,100
32932,note_off,,,,,100,0,12,,,,,5,,,34,100
32944,note_off,,,,,688,0,15,,,,,7,,,62,100
32944,note_off,,,,,0,0,15,,,,,7,,,70,100
32944,note_off,,,,,0,0,15,,,,,7,,,65,100
32960,note_off,,,,,128,0,16,,,,,7,,,46,100
32992,note_off,,,,,64,0,13,,,,,6,,,65,100
32992,note_off,,,,,64,0,8,,,,,1,,,65,100
33024,note_on,,,,,92,0,11,,,,,4,,,46,105
33024,note_on,,,,,80,0,15,,,,,7,,,62,100
33024,note_on,,,,,0,0,15,,,,,7,,,65,100
33024,note_on,,,,,92,0,9,,,,,2,,,74,105
33024,note_on,,,,,0,0,15,,,,,7,,,70,100
33024,note_on,,,,,92,0,14,,,,,6,,,46,100
33024,note_on,,,,,0,0,13,,,,,6,,,65,100
33024,note_on,,,,,0,0,13,,,,,6,,,62,100
33024,note_on,,,,,32,0,13,,,,,6,,,70,100
33024,note_on,,,,,64,0,16,,,,,7,,,46,100
33024,note_on,,,,,92,0,12,,,,,5,,,34,105
33024,note_on,,,,,92,0,10,,,,,3,,,65,105
33024,note_on,,,,,32,0,8,,,,,1,,,70,105
33124,note_off,,,,,100,0,11,,,,,4,,,46,100
33124,note_off,,,,,100,0,14,,,,,6,,,46,100
33124,note_off,,,,,100,0,12,,,,,5,,,34,100
33124,note_off,,,,,100,0,10,,,,,3,,,65,100
33152,note_off,,,,,128,0,8,,,,,1,,,70,100
33152,note_off,,,,,128,0,13,,,,,6,,,70,100
33152,note_off,,,,,128,0,9,,,,,2,,,74,100
33152,note_off,,,,,128,0,16,,,,,7,,,46,100
33216,note_on,,,,,92,0,14,,,,,6,,,58,100
33216,note_on,,,,,64,0,8,,,,,1,,,72,102
33216,note_on,,,,,192,0,15,,,,,7,,,74,100
33216,note_on,,,,,64,0,16,,,,,7,,,58,100
33216,note_on,,,,,92,0,11,,,,,4,,,58,102
33216,note_on,,,,,64,0,13,,,,,6,,,74,100
33216,note_on,,,,,92,0,10,,,,,3,,,65,102
33216,note_on,,,,,64,0,9,,,,,2,,,75,102
33216,note_on,,,,,92,0,12,,,,,5,,,46,102
33280,note_off,,,,,0,0,13,,,,,6,,,65,100
33280,note_off,,,,,64,0,9,,,,,2,,,75,100
33280,note_off,,,,,64,0,8,,,,,1,,,72,100
33280,note_off,,,,,64,0,13,,,,,6,,,62,100
33280,note_off,,,,,0,0,15,,,,,7,,,70,100
33280,note_off,,,,,0,0,15,,,,,7,,,65,100
33280,note_off,,,,,64,0,15,,,,,7,,,62,100
33312,note_on,,,,,32,0,8,,,,,1,,,74,100
33312,note_on,,,,,32,0,9,,,,,2,,,77,100
33316,note_off,,,,,100,0,14,,,,,6,,,58,100
33316,note_off,,,,,100,0,12,,,,,5,,,46,100
33316,note_off,,,,,100,0,10,,,,,3,,,65,100
33316,note_off,,,,,100,0,11,,,,,4,,,58,100
33344,note_off,,,,,64,0,13,,,,,6,,,74,100
33344,note_off,,,,,128,0,16,,,,,7,,,58,100
33344,note_off,,,,,64,0,15,,,,,7,,,74,100
33376,note_off,,,,,64,0,9,,,,,2,,,77,100
33376,note_off,,,,,64,0,8,,,,,1,,,74,100
33408,note_on,,,,,92,0,10,,,,,3,,,67,98
33408,note_on,,,,,0,0,13,,,,,6,,,60,100
33408,note_on,,,,,64,0,15,,,,,7,,,60,100
33408,note_on,,,,,0,0,15,,,,,7,,,72,100
33408,note_on,,,,,0,0,15,,,,,7,,,67,100
33408,note_on,,,,,64,0,16,,,,,7,,,51,100
33408,note_on,,,,,64,0,13,,,,,6,,,72,100
33408,note_on,,,,,0,0,13,,,,,6,,,67,100
33408,note_on,,,,,92,0,12,,,,,5,,,39,98
33408,note_on,,,,,32,0,9,,,,,2,,,75,98
33408,note_on,,,,,32,0,8,,,,,1,,,72,98
33408,note_on,,,,,92,0,11,,,,,4,,,51,98
33408,note_on,,,,,92,0,14,,,,,6,,,51,100
33508,note_off,,,,,100,0,10,,,,,3,,,67,100
33508,note_off,,,,,100,0,9,,,,,2,,,75,100
33508,note_off,,,,,100,0,8,,,,,1,,,72,100
33536,note_off,,,,,128,0,15,,,,,7,,,72,100
33536,note_off,,,,,128,0,13,,,,,6,,,72,100
33536,note_off,,,,,128,0,14,,,,,6,,,51,100
33536,note_off,,,,,128,0,12,,,,,5,,,39,100
33536,note_off,,,,,128,0,11,,,,,4,,,51,100
33536,note_off,,,,,128,0,16,,,,,7,,,51,100
33600,note_on,,,,,92,0,10,,,,,3,,,67,94
33600,note_on,,,,,64,0,16,,,,,7,,,52,100
33600,note_on,,,,,0,0,15,,,,,7,,,70,100
33600,note_on,,,,,92,0,8,,,,,1,,,70,94
33600,note_on,,,,,64,0,15,,,,,7,,,62,100
33600,note_on,,,,,64,0,14,,,,,6,,,52,100
33600,note_on,,,,,64,0,13,,,,,6,,,70,100
33600,note_on,,,,,92,0,9,,,,,2,,,74,94
33600,note_on,,,,,64,0,11,,,,,4,,,52,94
33600,note_on,,,,,64,0,12,,,,,5,,,40,94
33664,note_off,,,,,64,0,15,,,,,7,,,60,100
33664,note_off,,,,,64,0,13,,,,,6,,,60,100
33664,note_off,,,,,0,0,15,,,,,7,,,67,100
33664,note_off,,,,,0,0,13,,,,,6,,,67,100
33700,note_off,,,,,100,0,8,,,,,1,,,70,100
33700,note_off,,,,,100,0,10,,,,,3,,,67,100
33700,note_off,,,,,100,0,9,,,,,2,,,74,100
33728,note_off,,,,,128,0,14,,,,,6,,,52,100
33728,note_off,,,,,64,0,13,,,,,6,,,70,100
33728,note_off,,,,,64,0,15,,,,,7,,,62,100
33728,note_off,,,,,128,0,16,,,,,7,,,52,100
33728,note_off,,,,,0,0,15,,,,,7,,,70,100
33728,note_off,,,,,128,0,12,,,,,5,,,40,100
33728,note_off,,,,,128,0,11,,,,,4,,,52,100
33792,note_on,,,,,0,0,13,,,,,6,,,65,100
33792,note_on,,,,,0,0,13,,,,,6,,,60,100
33792,note_on,,,,,64,0,16,,,,,7,,,53,100
33792,note_on,,,,,64,0,12,,,,,5,,,41,90
33792,note_on,,,,,0,0,15,,,,,7,,,69,100
33792,note_on,,,,,64,0,13,,,,,6,,,69,100
33792,note_on,,,,,64,0,15,,,,,7,,,60,100
33792,note_on,,,,,92,0,9,,,,,2,,,72,85
33792,note_on,,,,,64,0,11,,,,,4,,,53,85
33792,note_on,,,,,92,0,10,,,,,3,,,69,90
33792,note_on,,,,,0,0,15,,,,,7,,,65,100
33792,note_on,,,,,92,0,8,,,,,1,,,69,90
33792,note_on,,,,,64,0,14,,,,,6,,,53,100
33796,program_change,,,,,4,0,9,,,,,2,40,,,
33796,program_change,,,,,4,0,11,,,,,4,42,,,
33888,note_on,,,,,92,0,9,,,,,2,,,77,85
33892,note_off,,,,,100,0,8,,,,,1,,,69,100
33920,note_off,,,,,128,0,14,,,,,6,,,53,100
33952,note_off,,,,,64,0,9,,,,,2,,,77,100
33984,note_on,,,,,64,0,14,,,,,6,,,55,100
33984,note_on,,,,,32,0,9,,,,,2,,,81,85
33984,note_on,,,,,92,0,8,,,,,1,,,65,86
33984,note_on,,,,,188,0,11,,,,,4,,,55,85
34048,note_off,,,,,0,0,9,,,,,2,,,81,100
34048,note_off,,,,,64,0,9,,,,,2,,,72,100
34048,note_off,,,,,256,0,15,,,,,7,,,60,100
34048,note_off,,,,,256,0,12,,,,,5,,,41,100
34048,note_off,,,,,0,0,15,,,,,7,,,69,100
34048,note_off,,,,,64,0,11,,,,,4,,,53,100
34048,note_off,,,,,256,0,16,,,,,7,,,53,100
34048,note_off,,,,,256,0,10,,,,,3,,,69,100
34048,note_off,,,,,0,0,15,,,,,7,,,65,100
34080,note_on,,,,,32,0,9,,,,,2,,,77,85
34084,note_off,,,,,100,0,8,,,,,1,,,65,100
34112,note_off,,,,,64,0,11,,,,,4,,,55,100
34112,note_off,,,,,128,0,14,,,,,6,,,55,100
34144,note_off,,,,,64,0,9,,,,,2,,,77,100
34176,note_on,,,,,64,0,14,,,,,6,,,53,100
34176,note_on,,,,,32,0,9,,,,,2,,,72,85
34176,note_on,,,,,64,0,11,,,,,4,,,53,85
34240,note_off,,,,,64,0,9,,,,,2,,,72,100
34272,note_on,,,,,32,0,9,,,,,2,,,77,85
34304,note_off,,,,,512,0,13,,,,,6,,,69,100
34304,note_off,,,,,128,0,14,,,,,6,,,53,100
34304,note_off,,,,,128,0,11,,,,,4,,,53,100
34304,note_off,,,,,0,0,13,,,,,6,,,60,100
34304,note_off,,,,,0,0,13,,,,,6,,,65,100
34336,note_off,,,,,64,0,9,,,,,2,,,77,100
34368,note_on,,,,,64,0,11,,,,,4,,,51,85
34368,note_on,,,,,34368,0,7,,,,,0,,,77,95
34368,note_on,,,,,32,0,9,,,,,2,,,81,85
34368,note_on,,,,,64,0,14,,,,,6,,,51,100
34432,note_off,,,,,64,0,9,,,,,2,,,81,100
34464,note_on,,,,,32,0,9,,,,,2,,,77,85
34468,note_off,,,,,100,0,7,,,,,0,,,77,100
34496,note_off,,,,,128,0,14,,,,,6,,,51,100
34496,note_off,,,,,128,0,11,,,,,4,,,51,100
34528,note_off,,,,,64,0,9,,,,,2,,,77,100
34560,note_on,,,,,92,0,7,,,,,0,,,77,95
34560,note_on,,,,,64,0,14,,,,,6,,,50,100
34560,note_on,,,,,32,0,9,,,,,2,,,70,86
34560,note_on,,,,,64,0,11,,,,,4,,,50,86
34560,note_on,,,,,256,0,13,,,,,6,,,58,100
34588,note_on,,,,,28,0,13,,,,,6,,,65,100
34620,note_on,,,,,32,0,13,,,,,6,,,70,100
34624,note_off,,,,,64,0,7,,,,,0,,,77,100
34656,note_on,,,,,32,0,7,,,,,0,,,82,95
34660,note_off,,,,,100,0,9,,,,,2,,,70,100
34720,note_off,,,,,64,0,7,,,,,0,,,82,100
34748,note_off,,,,,188,0,14,,,,,6,,,50,100
34748,note_off,,,,,188,0,11,,,,,4,,,50,100
34752,note_on,,,,,4,0,14,,,,,6,,,46,100
34752,note_on,,,,,32,0,7,,,,,0,,,77,95
34752,note_on,,,,,4,0,11,,,,,4,,,46,85
34752,note_on,,,,,92,0,9,,,,,2,,,70,85
34816,note_off,,,,,64,0,7,,,,,0,,,77,100
34848,note_on,,,,,32,0,7,,,,,0,,,82,95
34852,note_off,,,,,100,0,9,,,,,2,,,70,100
34880,note_off,,,,,128,0,11,,,,,4,,,46,100
34880,note_off,,,,,128,0,14,,,,,6,,,46,100
34912,note_off,,,,,64,0,7,,,,,0,,,82,100
34944,note_on,,,,,92,0,9,,,,,2,,,74,85
34944,note_on,,,,,32,0,7,,,,,0,,,77,95
35008,note_off,,,,,64,0,7,,,,,0,,,77,100
35040,note_on,,,,,32,0,7,,,,,0,,,82,95
35072,note_off,,,,,452,0,13,,,,,6,,,58,100
35100,note_off,,,,,28,0,13,,,,,6,,,65,100
35104,note_off,,,,,64,0,7,,,,,0,,,82,100
35132,note_off,,,,,32,0,13,,,,,6,,,70,100
35132,note_off,,,,,188,0,9,,,,,2,,,74,100
35136,note_on,,,,,256,0,14,,,,,6,,,50,100
35136,note_on,,,,,256,0,11,,,,,4,,,50,85
35136,note_on,,,,,32,0,7,,,,,0,,,77,95
35136,note_on,,,,,4,0,9,,,,,2,,,70,85
35200,note_off,,,,,64,0,7,,,,,0,,,77,100
35232,note_on,,,,,32,0,7,,,,,0,,,82,95
35236,note_off,,,,,100,0,14,,,,,6,,,50,100
35236,note_off,,,,,100,0,11,,,,,4,,,50,100
35264,note_off,,,,,128,0,9,,,,,2,,,70,100
35296,note_off,,,,,64,0,7,,,,,0,,,82,100
35328,note_on,,,,,92,0,14,,,,,6,,,51,100
35328,note_on,,,,,32,0,7,,,,,0,,,79,95
35328,note_on,,,,,92,0,11,,,,,4,,,51,85
35328,note_on,,,,,196,0,13,,,,,6,,,58,100
35356,note_on,,,,,28,0,13,,,,,6,,,63,100
35388,note_on,,,,,32,0,13,,,,,6,,,67,100
35392,note_off,,,,,64,0,7,,,,,0,,,79,100
35424,note_on,,,,,32,0,7,,,,,0,,,82,95
35488,note_off,,,,,64,0,7,,,,,0,,,82,100
35516,note_off,,,,,188,0,14,,,,,6,,,51,100
35516,note_off,,,,,188,0,11,,,,,4,,,51,100
35520,note_on,,,,,4,0,14,,,,,6,,,39,100
35520,note_on,,,,,32,0,7,,,,,0,,,79,95
35520,note_on,,,,,256,0,9,,,,,2,,,70,85
35520,note_on,,,,,4,0,11,,,,,4,,,39,85
35584,note_off,,,,,64,0,7,,,,,0,,,79,100
35616,note_on,,,,,32,0,7,,,,,0,,,82,95
35620,note_off,,,,,100,0,9,,,,,2,,,70,100
35648,note_off,,,,,128,0,14,,,,,6,,,39,100
35648,note_off,,,,,128,0,11,,,,,4,,,39,100
35680,note_off,,,,,64,0,7,,,,,0,,,82,100
35712,note_on,,,,,32,0,7,,,,,0,,,79,95
35712,note_on,,,,,92,0,9,,,,,2,,,75,85
35776,note_off,,,,,64,0,7,,,,,0,,,79,100
35808,note_on,,,,,32,0,7,,,,,0,,,82,95
35840,note_off,,,,,452,0,13,,,,,6,,,58,100
35868,note_off,,,,,28,0,13,,,,,6,,,63,100
35872,note_off,,,,,64,0,7,,,,,0,,,82,100
35900,note_off,,,,,188,0,9,,,,,2,,,75,100
35900,note_off,,,,,32,0,13,,,,,6,,,67,100
35904,note_on,,,,,4,0,9,,,,,2,,,70,85
35904,note_on,,,,,256,0,11,,,,,4,,,51,85
35904,note_on,,,,,32,0,7,,,,,0,,,79,95
35904,note_on,,,,,256,0,14,,,,,6,,,51,100
35968,note_off,,,,,64,0,7,,,,,0,,,79,100
36000,note_on,,,,,32,0,7,,,,,0,,,82,95
36004,note_off,,,,,100,0,14,,,,,6,,,51,100
36004,note_off,,,,,100,0,11,,,,,4,,,51,100
36032,note_off,,,,,128,0,9,,,,,2,,,70,100
36064,note_off,,,,,64,0,7,,,,,0,,,82,100
36096,note_on,,,,,32,0,7,,,,,0,,,77,95
36096,note_on,,,,,92,0,14,,,,,6,,,50,100
36096,note_on,,,,,92,0,11,,,,,4,,,50,85
36096,note_on,,,,,196,0,13,,,,,6,,,58,100
36124,note_on,,,,,28,0,13,,,,,6,,,65,100
36156,note_on,,,,,32,0,13,,,,,6,,,70,100
36160,note_off,,,,,64,0,7,,,,,0,,,77,100
36192,note_on,,,,,32,0,7,,,,,0,,,82,95
36256,note_off,,,,,64,0,7,,,,,0,,,82,100
36284,note_off,,,,,188,0,14,,,,,6,,,50,100
36284,note_off,,,,,188,0,11,,,,,4,,,50,100
36288,note_on,,,,,32,0,7,,,,,0,,,77,95
36288,note_on,,,,,4,0,11,,,,,4,,,46,85
36288,note_on,,,,,4,0,14,,,,,6,,,46,100
36288,note_on,,,,,256,0,9,,,,,2,,,70,85
36352,note_off,,,,,64,0,7,,,,,0,,,77,100
36384,note_on,,,,,32,0,7,,,,,0,,,82,95
36388,note_off,,,,,100,0,9,,,,,2,,,70,100
36416,note_off,,,,,128,0,14,,,,,6,,,46,100
36416,note_off,,,,,128,0,11,,,,,4,,,46,100
36448,note_off,,,,,64,0,7,,,,,0,,,82,100
36480,note_on,,,,,92,0,9,,,,,2,,,74,85
36480,note_on,,,,,32,0,7,,,,,0,,,77,95
36544,note_off,,,,,64,0,7,,,,,0,,,77,100
36576,note_on,,,,,32,0,7,,,,,0,,,82,95
36608,note_off,,,,,452,0,13,,,,,6,,,58,100
36636,note_off,,,,,28,0,13,,,,,6,,,65,100
36640,note_off,,,,,64,0,7,,,,,0,,,82,100
36668,note_off,,,,,188,0,9,,,,,2,,,74,100
36668,note_off,,,,,32,0,13,,,,,6,,,70,100
36672,note_on,,,,,256,0,14,,,,,6,,,50,100
36672,note_on,,,,,256,0,11,,,,,4,,,50,85
36672,note_on,,,,,4,0,9,,,,,2,,,70,85
36672,note_on,,,,,32,0,7,,,,,0,,,77,95
36736,note_off,,,,,64,0,7,,,,,0,,,77,100
36768,note_on,,,,,32,0,7,,,,,0,,,82,95
36772,note_off,,,,,100,0,14,,,,,6,,,50,100
36772,note_off,,,,,100,0,11,,,,,4,,,50,100
36800,note_off,,,,,128,0,9,,,,,2,,,70,100
36832,note_off,,,,,64,0,7,,,,,0,,,82,100
36864,note_on,,,,,32,0,7,,,,,0,,,80,95
36864,note_on,,,,,92,0,11,,,,,4,,,51,85
36864,note_on,,,,,196,0,13,,,,,6,,,63,100
36864,note_on,,,,,92,0,14,,,,,6,,,51,100
36872,note_on,,,,,72,0,9,,,,,2,,,70,85
36892,note_on,,,,,28,0,13,,,,,6,,,67,100
36924,note_on,,,,,32,0,13,,,,,6,,,70,100
36936,note_off,,,,,64,0,9,,,,,2,,,70,100
36960,note_on,,,,,24,0,9,,,,,2,,,75,85
36964,note_off,,,,,100,0,11,,,,,4,,,51,100
36964,note_off,,,,,100,0,14,,,,,6,,,51,100
37024,note_off,,,,,64,0,9,,,,,2,,,75,100
37052,note_off,,,,,188,0,7,,,,,0,,,80,100
37056,note_on,,,,,92,0,11,,,,,4,,,53,85
37056,note_on,,,,,4,0,7,,,,,0,,,79,95
37056,note_on,,,,,92,0,14,,,,,6,,,53,100
37056,note_on,,,,,32,0,9,,,,,2,,,79,85
37120,note_off,,,,,64,0,9,,,,,2,,,79,100
37152,note_on,,,,,32,0,9,,,,,2,,,75,85
37156,note_off,,,,,100,0,14,,,,,6,,,53,100
37156,note_off,,,,,100,0,11,,,,,4,,,53,100
37184,note_off,,,,,128,0,7,,,,,0,,,79,100
37216,note_off,,,,,64,0,9,,,,,2,,,75,100
37248,note_on,,,,,92,0,11,,,,,4,,,55,85
37248,note_on,,,,,32,0,9,,,,,2,,,70,85
37248,note_on,,,,,92,0,14,,,,,6,,,55,100
37312,note_off,,,,,64,0,9,,,,,2,,,70,100
37344,note_on,,,,,32,0,9,,,,,2,,,75,85
37348,note_off,,,,,100,0,14,,,,,6,,,55,100
37348,note_off,,,,,100,0,11,,,,,4,,,55,100
37376,note_off,,,,,452,0,13,,,,,6,,,63,100
37404,note_off,,,,,28,0,13,,,,,6,,,67,100
37408,note_off,,,,,64,0,9,,,,,2,,,75,100
37436,note_off,,,,,32,0,13,,,,,6,,,70,100
37440,note_on,,,,,92,0,11,,,,,4,,,53,85
37440,note_on,,,,,92,0,14,,,,,6,,,53,100
37440,note_on,,,,,256,0,7,,,,,0,,,79,95
37440,note_on,,,,,32,0,9,,,,,2,,,79,85
37504,note_off,,,,,64,0,9,,,,,2,,,79,100
37536,note_on,,,,,32,0,9,,,,,2,,,75,85
37540,note_off,,,,,100,0,11,,,,,4,,,53,100
37540,note_off,,,,,100,0,14,,,,,6,,,53,100
37540,note_off,,,,,100,0,7,,,,,0,,,79,100
37600,note_off,,,,,64,0,9,,,,,2,,,75,100
37632,note_on,,,,,196,0,13,,,,,6,,,60,100
37632,note_on,,,,,92,0,14,,,,,6,,,52,100
37632,note_on,,,,,92,0,11,,,,,4,,,52,85
37632,note_on,,,,,92,0,7,,,,,0,,,79,95
37632,note_on,,,,,32,0,9,,,,,2,,,72,85
37660,note_on,,,,,28,0,13,,,,,6,,,67,100
37692,note_on,,,,,32,0,13,,,,,6,,,72,100
37696,note_off,,,,,64,0,7,,,,,0,,,79,100
37728,note_on,,,,,32,0,7,,,,,0,,,84,95
37732,note_off,,,,,100,0,9,,,,,2,,,72,100
37792,note_off,,,,,64,0,7,,,,,0,,,84,100
37820,note_off,,,,,188,0,11,,,,,4,,,52,100
37820,note_off,,,,,188,0,14,,,,,6,,,52,100
37824,note_on,,,,,32,0,7,,,,,0,,,79,95
37824,note_on,,,,,4,0,14,,,,,6,,,48,100
37824,note_on,,,,,4,0,11,,,,,4,,,48,85
37824,note_on,,,,,92,0,9,,,,,2,,,72,85
37888,note_off,,,,,64,0,7,,,,,0,,,79,100
37920,note_on,,,,,32,0,7,,,,,0,,,84,95
37924,note_off,,,,,100,0,9,,,,,2,,,72,100
37952,note_off,,,,,128,0,14,,,,,6,,,48,100
37952,note_off,,,,,128,0,11,,,,,4,,,48,100
37984,note_off,,,,,64,0,7,,,,,0,,,84,100
38016,note_on,,,,,32,0,7,,,,,0,,,79,95
38016,note_on,,,,,92,0,9,,,,,2,,,76,85
38080,note_off,,,,,64,0,7,,,,,0,,,79,100
38112,note_on,,,,,32,0,7,,,,,0,,,84,95
38144,note_off,,,,,452,0,13,,,,,6,,,60,100
38172,note_off,,,,,28,0,13,,,,,6,,,67,100
38176,note_off,,,,,64,0,7,,,,,0,,,84,100
38204,note_off,,,,,188,0,9,,,,,2,,,76,100
38204,note_off,,,,,32,0,13,,,,,6,,,72,100
38208,note_on,,,,,256,0,11,,,,,4,,,52,85
38208,note_on,,,,,4,0,9,,,,,2,,,72,85
38208,note_on,,,,,256,0,14,,,,,6,,,52,100
38208,note_on,,,,,32,0,7,,,,,0,,,79,95
38272,note_off,,,,,64,0,7,,,,,0,,,79,100
38304,note_on,,,,,32,0,7,,,,,0,,,84,95
38308,note_off,,,,,100,0,14,,,,,6,,,52,100
38308,note_off,,,,,100,0,11,,,,,4,,,52,100
38336,note_off,,,,,128,0,9,,,,,2,,,72,100
38368,note_off,,,,,64,0,7,,,,,0,,,84,100
38400,note_on,,,,,92,0,14,,,,,6,,,53,100
38400,note_on,,,,,196,0,13,,,,,6,,,65,100
38400,note_on,,,,,32,0,7,,,,,0,,,81,95
38400,note_on,,,,,92,0,11,,,,,4,,,53,85
38428,note_on,,,,,28,0,13,,,,,6,,,69,100
38460,note_on,,,,,32,0,13,,,,,6,,,72,100
38464,note_off,,,,,64,0,7,,,,,0,,,81,100
38496,note_on,,,,,32,0,7,,,,,0,,,84,95
38560,note_off,,,,,64,0,7,,,,,0,,,84,100
38588,note_off,,,,,188,0,14,,,,,6,,,53,100
38588,note_off,,,,,188,0,11,,,,,4,,,53,100
38592,note_on,,,,,4,0,11,,,,,4,,,41,85
38592,note_on,,,,,4,0,14,,,,,6,,,41,100
38592,note_on,,,,,256,0,9,,,,,2,,,72,85
38592,note_on,,,,,32,0,7,,,,,0,,,81,95
38656,note_off,,,,,64,0,7,,,,,0,,,81,100
38688,note_on,,,,,32,0,7,,,,,0,,,84,95
38692,note_off,,,,,100,0,9,,,,,2,,,72,100
38720,note_off,,,,,128,0,14,,,,,6,,,41,100
38720,note_off,,,,,128,0,11,,,,,4,,,41,100
38752,note_off,,,,,64,0,7,,,,,0,,,84,100
38784,note_on,,,,,32,0,7,,,,,0,,,81,95
38784,note_on,,,,,92,0,9,,,,,2,,,77,85
38848,note_off,,,,,64,0,7,,,,,0,,,81,100
38880,note_on,,,,,32,0,7,,,,,0,,,84,95
38912,note_off,,,,,452,0,13,,,,,6,,,65,100
38940,note_off,,,,,28,0,13,,,,,6,,,69,100
38944,note_off,,,,,64,0,7,,,,,0,,,84,100
38972,note_off,,,,,32,0,13,,,,,6,,,72,100
38972,note_off,,,,,188,0,9,,,,,2,,,77,100
38976,note_on,,,,,256,0,11,,,,,4,,,53,85
38976,note_on,,,,,32,0,7,,,,,0,,,81,95
38976,note_on,,,,,4,0,9,,,,,2,,,72,85
38976,note_on,,,,,256,0,14,,,,,6,,,53,100
39040,note_off,,,,,64,0,7,,,,,0,,,81,100
39072,note_on,,,,,32,0,7,,,,,0,,,84,95
39076,note_off,,,,,100,0,11,,,,,4,,,53,100
39076,note_off,,,,,100,0,14,,,,,6,,,53,100
39104,note_off,,,,,128,0,9,,,,,2,,,72,100
39136,note_off,,,,,64,0,7,,,,,0,,,84,100
39168,note_on,,,,,196,0,13,,,,,6,,,60,100
39168,note_on,,,,,92,0,14,,,,,6,,,52,100
39168,note_on,,,,,92,0,11,,,,,4,,,52,85
39168,note_on,,,,,32,0,7,,,,,0,,,79,95
39196,note_on,,,,,28,0,13,,,,,6,,,67,100
39228,note_on,,,,,32,0,13,,,,,6,,,72,100
39232,note_off,,,,,64,0,7,,,,,0,,,79,100
39264,note_on,,,,,32,0,7,,,,,0,,,84,95
39328,note_off,,,,,64,0,7,,,,,0,,,84,100
39356,note_off,,,,,188,0,14,,,,,6,,,52,100
39356,note_off,,,,,188,0,11,,,,,4,,,52,100
39360,note_on,,,,,256,0,9,,,,,2,,,72,85
39360,note_on,,,,,32,0,7,,,,,0,,,79,95
39360,note_on,,,,,4,0,11,,,,,4,,,48,85
39360,note_on,,,,,4,0,14,,,,,6,,,48,100
39424,note_off,,,,,64,0,7,,,,,0,,,79,100
39456,note_on,,,,,32,0,7,,,,,0,,,84,95
39460,note_off,,,,,100,0,9,,,,,2,,,72,100
39488,note_off,,,,,128,0,11,,,,,4,,,48,100
39488,note_off,,,,,128,0,14,,,,,6,,,48,100
39520,note_off,,,,,64,0,7,,,,,0,,,84,100
39552,note_on,,,,,92,0,9,,,,,2,,,76,85
39552,note_on,,,,,32,0,7,,,,,0,,,79,95
39616,note_off,,,,,64,0,7,,,,,0,,,79,100
39648,note_on,,,,,32,0,7,,,,,0,,,84,95
39680,note_off,,,,,452,0,13,,,,,6,,,60,100
39708,note_off,,,,,28,0,13,,,,,6,,,67,100
39712,note_off,,,,,64,0,7,,,,,0,,,84,100
39740,note_off,,,,,188,0,9,,,,,2,,,76,100
39740,note_off,,,,,32,0,13,,,,,6,,,72,100
39744,note_on,,,,,4,0,9,,,,,2,,,72,85
39744,note_on,,,,,256,0,11,,,,,4,,,52,85
39744,note_on,,,,,256,0,14,,,,,6,,,52,100
39744,note_on,,,,,32,0,7,,,,,0,,,79,95
39808,note_off,,,,,64,0,7,,,,,0,,,79,100
39840,note_on,,,,,32,0,7,,,,,0,,,84,95
39844,note_off,,,,,100,0,11,,,,,4,,,52,100
39844,note_off,,,,,100,0,14,,,,,6,,,52,100
39872,note_off,,,,,128,0,9,,,,,2,,,72,100
39904,note_off,,,,,64,0,7,,,,,0,,,84,100
39936,note_on,,,,,92,0,14,,,,,6,,,53,100
39936,note_on,,,,,32,0,7,,,,,0,,,82,95
39936,note_on,,,,,196,0,13,,,,,6,,,65,100
39936,note_on,,,,,92,0,11,,,,,4,,,53,85
39944,note_on,,,,,72,0,9,,,,,2,,,72,85
39964,note_on,,,,,28,0,13,,,,,6,,,69,100
39996,note_on,,,,,32,0,13,,,,,6,,,72,100
40008,note_off,,,,,64,0,9,,,,,2,,,72,100
40032,note_on,,,,,24,0,9,,,,,2,,,77,85
40036,note_off,,,,,100,0,14,,,,,6,,,53,100
40036,note_off,,,,,100,0,11,,,,,4,,,53,100
40096,note_off,,,,,64,0,9,,,,,2,,,77,100
40124,note_off,,,,,188,0,7,,,,,0,,,82,100
40128,note_on,,,,,92,0,14,,,,,6,,,55,100
40128,note_on,,,,,92,0,11,,,,,4,,,55,85
40128,note_on,,,,,4,0,7,,,,,0,,,81,95
40128,note_on,,,,,32,0,9,,,,,2,,,81,85
40192,note_off,,,,,64,0,9,,,,,2,,,81,100
40224,note_on,,,,,32,0,9,,,,,2,,,77,85
40228,note_off,,,,,100,0,11,,,,,4,,,55,100
40228,note_off,,,,,100,0,14,,,,,6,,,55,100
40256,note_off,,,,,128,0,7,,,,,0,,,81,100
40288,note_off,,,,,64,0,9,,,,,2,,,77,100
40320,note_on,,,,,92,0,11,,,,,4,,,57,85
40320,note_on,,,,,92,0,14,,,,,6,,,57,100
40320,note_on,,,,,32,0,9,,,,,2,,,72,85
40384,note_off,,,,,64,0,9,,,,,2,,,72,100
40416,note_on,,,,,32,0,9,,,,,2,,,77,85
40420,note_off,,,,,100,0,11,,,,,4,,,57,100
40420,note_off,,,,,100,0,14,,,,,6,,,57,100
40448,note_off,,,,,452,0,13,,,,,6,,,65,100
40476,note_off,,,,,28,0,13,,,,,6,,,69,100
40480,note_off,,,,,64,0,9,,,,,2,,,77,100
40508,note_off,,,,,32,0,13,,,,,6,,,72,100
40512,note_on,,,,,92,0,11,,,,,4,,,55,85
40512,note_on,,,,,92,0,14,,,,,6,,,55,100
40512,note_on,,,,,256,0,7,,,,,0,,,81,95
40512,note_on,,,,,32,0,9,,,,,2,,,81,85
40576,note_off,,,,,64,0,9,,,,,2,,,81,100
40608,note_on,,,,,32,0,9,,,,,2,,,77,85
40612,note_off,,,,,100,0,11,,,,,4,,,55,100
40612,note_off,,,,,100,0,7,,,,,0,,,81,100
40612,note_off,,,,,100,0,14,,,,,6,,,55,100
40672,note_off,,,,,64,0,9,,,,,2,,,77,100
40704,note_on,,,,,196,0,13,,,,,6,,,62,100
40704,note_on,,,,,92,0,7,,,,,0,,,81,95
40704,note_on,,,,,92,0,14,,,,,6,,,54,100
40704,note_on,,,,,92,0,11,,,,,4,,,54,85
40704,note_on,,,,,32,0,9,,,,,2,,,74,85
40732,note_on,,,,,28,0,13,,,,,6,,,69,100
40764,note_on,,,,,32,0,13,,,,,6,,,74,100
40768,note_off,,,,,64,0,7,,,,,0,,,81,100
40800,note_on,,,,,32,0,7,,,,,0,,,86,95
40804,note_off,,,,,100,0,9,,,,,2,,,74,100
40864,note_off,,,,,64,0,7,,,,,0,,,86,100
40892,note_off,,,,,188,0,14,,,,,6,,,54,100
40892,note_off,,,,,188,0,11,,,,,4,,,54,100
40896,note_on,,,,,4,0,11,,,,,4,,,50,85
40896,note_on,,,,,4,0,14,,,,,6,,,50,100
40896,note_on,,,,,92,0,9,,,,,2,,,74,85
40896,note_on,,,,,32,0,7,,,,,0,,,81,95
40960,note_off,,,,,64,0,7,,,,,0,,,81,100
40992,note_on,,,,,32,0,7,,,,,0,,,86,95
40996,note_off,,,,,100,0,9,,,,,2,,,74,100
41024,note_off,,,,,128,0,14,,,,,6,,,50,100
41024,note_off,,,,,128,0,11,,,,,4,,,50,100
41056,note_off,,,,,64,0,7,,,,,0,,,86,100
41088,note_on,,,,,92,0,9,,,,,2,,,78,85
41088,note_on,,,,,32,0,7,,,,,0,,,81,95
41152,note_off,,,,,64,0,7,,,,,0,,,81,100
41184,note_on,,,,,32,0,7,,,,,0,,,86,95
41216,note_off,,,,,452,0,13,,,,,6,,,62,100
41244,note_off,,,,,28,0,13,,,,,6,,,69,100
41248,note_off,,,,,64,0,7,,,,,0,,,86,100
41276,note_off,,,,,188,0,9,,,,,2,,,78,100
41276,note_off,,,,,32,0,13,,,,,6,,,74,100
41280,note_on,,,,,32,0,7,,,,,0,,,81,95
41280,note_on,,,,,4,0,9,,,,,2,,,74,85
41280,note_on,,,,,256,0,14,,,,,6,,,54,100
41280,note_on,,,,,256,0,11,,,,,4,,,54,85
41344,note_off,,,,,64,0,7,,,,,0,,,81,100
41376,note_on,,,,,32,0,7,,,,,0,,,86,95
41380,note_off,,,,,100,0,11,,,,,4,,,54,100
41380,note_off,,,,,100,0,14,,,,,6,,,54,100
41408,note_off,,,,,128,0,9,,,,,2,,,74,100
41440,note_off,,,,,64,0,7,,,,,0,,,86,100
41472,note_on,,,,,92,0,14,,,,,6,,,55,100
41472,note_on,,,,,92,0,11,,,,,4,,,55,85
41472,note_on,,,,,32,0,7,,,,,0,,,82,95
41472,note_on,,,,,196,0,13,,,,,6,,,62,100
41500,note_on,,,,,28,0,13,,,,,6,,,67,100
41532,note_on,,,,,32,0,13,,,,,6,,,70,100
41536,note_off,,,,,64,0,7,,,,,0,,,82,100
41568,note_on,,,,,32,0,7,,,,,0,,,86,95
41632,note_off,,,,,64,0,7,,,,,0,,,86,100
41660,note_off,,,,,188,0,11,,,,,4,,,55,100
41660,note_off,,,,,188,0,14,,,,,6,,,55,100
41664,note_on,,,,,256,0,9,,,,,2,,,74,85
41664,note_on,,,,,32,0,7,,,,,0,,,82,95
41664,note_on,,,,,4,0,11,,,,,4,,,43,85
41664,note_on,,,,,4,0,14,,,,,6,,,43,100
41728,note_off,,,,,64,0,7,,,,,0,,,82,100
41760,note_on,,,,,32,0,7,,,,,0,,,86,95
41764,note_off,,,,,100,0,9,,,,,2,,,74,100
41792,note_off,,,,,128,0,14,,,,,6,,,43,100
41792,note_off,,,,,128,0,11,,,,,4,,,43,100
41824,note_off,,,,,64,0,7,,,,,0,,,86,100
41856,note_on,,,,,32,0,7,,,,,0,,,82,95
41856,note_on,,,,,92,0,9,,,,,2,,,79,85
41920,note_off,,,,,64,0,7,,,,,0,,,82,100
41952,note_on,,,,,32,0,7,,,,,0,,,86,95
41984,note_off,,,,,452,0,13,,,,,6,,,62,100
42012,note_off,,,,,28,0,13,,,,,6,,,67,100
42016,note_off,,,,,64,0,7,,,,,0,,,86,100
42044,note_off,,,,,32,0,13,,,,,6,,,70,100
42044,note_off,,,,,188,0,9,,,,,2,,,79,100
42048,note_on,,,,,32,0,7,,,,,0,,,82,95
42048,note_on,,,,,256,0,11,,,,,4,,,55,85
42048,note_on,,,,,256,0,14,,,,,6,,,55,100
42048,note_on,,,,,4,0,9,,,,,2,,,74,85
42112,note_off,,,,,64,0,7,,,,,0,,,82,100
42144,note_on,,,,,32,0,7,,,,,0,,,86,95
42148,note_off,,,,,100,0,11,,,,,4,,,55,100
42148,note_off,,,,,100,0,14,,,,,6,,,55,100
42176,note_off,,,,,128,0,9,,,,,2,,,74,100
42208,note_off,,,,,64,0,7,,,,,0,,,86,100
42240,note_on,,,,,196,0,13,,,,,6,,,62,100
42240,note_on,,,,,92,0,14,,,,,6,,,54,100
42240,note_on,,,,,32,0,7,,,,,0,,,81,95
42240,note_on,,,,,92,0,11,,,,,4,,,54,85
42268,note_on,,,,,28,0,13,,,,,6,,,69,100
42300,note_on,,,,,32,0,13,,,,,6,,,74,100
42304,note_off,,,,,64,0,7,,,,,0,,,81,100
42336,note_on,,,,,32,0,7,,,,,0,,,86,95
42400,note_off,,,,,64,0,7,,,,,0,,,86,100
42428,note_off,,,,,188,0,11,,,,,4,,,54,100
42428,note_off,,,,,188,0,14,,,,,6,,,54,100
42432,note_on,,,,,4,0,11,,,,,4,,,50,85
42432,note_on,,,,,32,0,7,,,,,0,,,81,95
42432,note_on,,,,,256,0,9,,,,,2,,,74,85
42432,note_on,,,,,4,0,14,,,,,6,,,50,100
42496,note_off,,,,,64,0,7,,,,,0,,,81,100
42528,note_on,,,,,32,0,7,,,,,0,,,86,95
42532,note_off,,,,,100,0,9,,,,,2,,,74,100
42560,note_off,,,,,128,0,14,,,,,6,,,50,100
42560,note_off,,,,,128,0,11,,,,,4,,,50,100
42592,note_off,,,,,64,0,7,,,,,0,,,86,100
42624,note_on,,,,,32,0,7,,,,,0,,,81,95
42624,note_on,,,,,92,0,9,,,,,2,,,78,85
42688,note_off,,,,,64,0,7,,,,,0,,,81,100
42720,note_on,,,,,32,0,7,,,,,0,,,86,95
42752,note_off,,,,,452,0,13,,,,,6,,,62,100
42780,note_off,,,,,28,0,13,,,,,6,,,69,100
42784,note_off,,,,,64,0,7,,,,,0,,,86,100
42812,note_off,,,,,32,0,13,,,,,6,,,74,100
42812,note_off,,,,,188,0,9,,,,,2,,,78,100
42816,note_on,,,,,4,0,9,,,,,2,,,74,85
42816,note_on,,,,,32,0,7,,,,,0,,,81,95
42816,note_on,,,,,256,0,11,,,,,4,,,54,85
42816,note_on,,,,,256,0,14,,,,,6,,,54,100
42880,note_off,,,,,64,0,7,,,,,0,,,81,100
42912,note_on,,,,,32,0,7,,,,,0,,,86,95
42916,note_off,,,,,100,0,11,,,,,4,,,54,100
42916,note_off,,,,,100,0,14,,,,,6,,,54,100
42944,note_off,,,,,128,0,9,,,,,2,,,74,100
42976,note_off,,,,,64,0,7,,,,,0,,,86,100
43008,program_change,,,,,8924,0,8,,,,,1,40,,,
43008,note_on,,,,,92,0,11,,,,,4,,,55,85
43008,note_on,,,,,64,0,9,,,,,2,,,74,85
43008,note_on,,,,,196,0,13,,,,,6,,,67,100
43008,note_on,,,,,92,0,14,,,,,6,,,55,100
43008,note_on,,,,,32,0,7,,,,,0,,,84,95
43036,note_on,,,,,28,0,13,,,,,6,,,70,100
43068,note_on,,,,,32,0,13,,,,,6,,,74,100
43072,note_off,,,,,64,0,9,,,,,2,,,74,100
43104,note_on,,,,,32,0,9,,,,,2,,,79,85
43136,note_off,,,,,128,0,14,,,,,6,,,55,100
43136,note_off,,,,,128,0,11,,,,,4,,,55,100
43168,note_off,,,,,64,0,9,,,,,2,,,79,100
43196,note_off,,,,,188,0,7,,,,,0,,,84,100
43200,note_on,,,,,32,0,9,,,,,2,,,82,85
43200,note_on,,,,,64,0,11,,,,,4,,,55,85
43200,note_on,,,,,64,0,14,,,,,6,,,55,100
43200,note_on,,,,,4,0,7,,,,,0,,,82,95
43264,note_off,,,,,64,0,9,,,,,2,,,82,100
43296,note_on,,,,,32,0,9,,,,,2,,,79,85
43328,note_off,,,,,128,0,7,,,,,0,,,82,100
43328,note_off,,,,,128,0,11,,,,,4,,,55,100
43328,note_off,,,,,128,0,14,,,,,6,,,55,100
43360,note_off,,,,,64,0,9,,,,,2,,,79,100
43392,note_on,,,,,64,0,11,,,,,4,,,55,85
43392,note_on,,,,,64,0,14,,,,,6,,,55,100
43392,note_on,,,,,32,0,9,,,,,2,,,74,85
43456,note_off,,,,,64,0,9,,,,,2,,,74,100
43488,note_on,,,,,32,0,9,,,,,2,,,79,85
43520,note_off,,,,,128,0,14,,,,,6,,,55,100
43520,note_off,,,,,128,0,11,,,,,4,,,55,100
43520,note_off,,,,,452,0,13,,,,,6,,,67,100
43548,note_off,,,,,28,0,13,,,,,6,,,70,100
43552,note_off,,,,,64,0,9,,,,,2,,,79,100
43580,note_off,,,,,32,0,13,,,,,6,,,74,100
43584,note_on,,,,,64,0,14,,,,,6,,,55,100
43584,note_on,,,,,256,0,7,,,,,0,,,82,95
43584,note_on,,,,,32,0,9,,,,,2,,,82,85
43584,note_on,,,,,64,0,11,,,,,4,,,55,85
43648,note_off,,,,,64,0,9,,,,,2,,,82,100
43680,note_on,,,,,32,0,9,,,,,2,,,79,85
43712,note_off,,,,,128,0,14,,,,,6,,,55,100
43712,note_off,,,,,128,0,11,,,,,4,,,55,100
43712,note_off,,,,,128,0,7,,,,,0,,,82,100
43744,note_off,,,,,64,0,9,,,,,2,,,79,100
43776,note_on,,,,,196,0,13,,,,,6,,,63,100
43776,note_on,,,,,64,0,11,,,,,4,,,55,85
43776,note_on,,,,,32,0,9,,,,,2,,,75,85
43776,note_on,,,,,64,0,7,,,,,0,,,82,95
43776,note_on,,,,,64,0,14,,,,,6,,,55,100
43804,note_on,,,,,28,0,13,,,,,6,,,70,100
43836,note_on,,,,,32,0,13,,,,,6,,,75,100
43840,note_off,,,,,64,0,7,,,,,0,,,82,100
43872,note_on,,,,,32,0,7,,,,,0,,,87,95
43904,note_off,,,,,128,0,14,,,,,6,,,55,100
43904,note_off,,,,,128,0,11,,,,,4,,,55,100
43936,note_off,,,,,64,0,7,,,,,0,,,87,100
43968,note_on,,,,,64,0,14,,,,,6,,,55,100
43968,note_on,,,,,64,0,11,,,,,4,,,55,85
43968,note_on,,,,,32,0,7,,,,,0,,,82,95
44032,note_off,,,,,64,0,7,,,,,0,,,82,100
44064,note_on,,,,,32,0,7,,,,,0,,,87,95
44096,note_off,,,,,128,0,14,,,,,6,,,55,100
44096,note_off,,,,,128,0,11,,,,,4,,,55,100
44128,note_off,,,,,64,0,7,,,,,0,,,87,100
44160,note_on,,,,,64,0,11,,,,,4,,,55,85
44160,note_on,,,,,64,0,14,,,,,6,,,55,100
44160,note_on,,,,,32,0,7,,,,,0,,,82,95
44224,note_off,,,,,64,0,7,,,,,0,,,82,100
44256,note_on,,,,,32,0,7,,,,,0,,,87,95
44288,note_off,,,,,128,0,14,,,,,6,,,55,100
44288,note_off,,,,,128,0,11,,,,,4,,,55,100
44288,note_off,,,,,452,0,13,,,,,6,,,63,100
44316,note_off,,,,,28,0,13,,,,,6,,,70,100
44320,note_off,,,,,64,0,7,,,,,0,,,87,100
44348,note_off,,,,,32,0,13,,,,,6,,,75,100
44352,note_on,,,,,32,0,7,,,,,0,,,82,95
44352,note_on,,,,,64,0,14,,,,,6,,,55,100
44352,note_on,,,,,64,0,11,,,,,4,,,55,85
44416,note_off,,,,,64,0,7,,,,,0,,,82,100
44448,note_on,,,,,32,0,7,,,,,0,,,87,95
44480,note_off,,,,,128,0,11,,,,,4,,,55,100
44480,note_off,,,,,128,0,14,,,,,6,,,55,100
44512,note_off,,,,,64,0,7,,,,,0,,,87,100
44544,note_on,,,,,196,0,13,,,,,6,,,65,100
44544,note_on,,,,,1536,0,8,,,,,1,,,81,85
44544,note_on,,,,,32,0,7,,,,,0,,,81,95
44544,note_on,,,,,64,0,11,,,,,4,,,53,85
44544,note_on,,,,,64,0,14,,,,,6,,,53,100
44572,note_on,,,,,28,0,13,,,,,6,,,69,100
44604,note_on,,,,,32,0,13,,,,,6,,,75,100
44608,note_off,,,,,64,0,7,,,,,0,,,81,100
44640,note_on,,,,,32,0,7,,,,,0,,,84,95
44672,note_off,,,,,128,0,14,,,,,6,,,53,100
44672,note_off,,,,,128,0,11,,,,,4,,,53,100
44672,note_off,,,,,896,0,9,,,,,2,,,75,100
44704,note_off,,,,,64,0,7,,,,,0,,,84,100
44736,note_on,,,,,64,0,9,,,,,2,,,65,85
44736,note_on,,,,,64,0,11,,,,,4,,,53,85
44736,note_on,,,,,32,0,7,,,,,0,,,81,95
44736,note_on,,,,,64,0,14,,,,,6,,,53,100
44800,note_off,,,,,64,0,7,,,,,0,,,81,100
44832,note_on,,,,,32,0,7,,,,,0,,,84,95
44864,note_off,,,,,128,0,11,,,,,4,,,53,100
44864,note_off,,,,,128,0,9,,,,,2,,,65,100
44864,note_off,,,,,128,0,14,,,,,6,,,53,100
44896,note_off,,,,,64,0,7,,,,,0,,,84,100
44928,note_on,,,,,32,0,7,,,,,0,,,81,95
44928,note_on,,,,,64,0,11,,,,,4,,,53,85
44928,note_on,,,,,64,0,14,,,,,6,,,53,100
44928,note_on,,,,,64,0,9,,,,,2,,,72,85
44992,note_off,,,,,64,0,7,,,,,0,,,81,100
45024,note_on,,,,,32,0,7,,,,,0,,,84,96
45056,note_off,,,,,128,0,11,,,,,4,,,53,100
45056,note_off,,,,,452,0,13,,,,,6,,,65,100
45056,note_off,,,,,128,0,9,,,,,2,,,72,100
45056,note_off,,,,,128,0,14,,,,,6,,,53,100
45084,note_off,,,,,28,0,13,,,,,6,,,69,100
45088,note_off,,,,,64,0,7,,,,,0,,,84,100
45116,note_off,,,,,32,0,13,,,,,6,,,75,100
45120,note_on,,,,,64,0,14,,,,,6,,,53,100
45120,note_on,,,,,32,0,7,,,,,0,,,81,96
45120,note_on,,,,,64,0,11,,,,,4,,,53,86
45120,note_on,,,,,64,0,9,,,,,2,,,75,86
45184,note_off,,,,,64,0,7,,,,,0,,,81,100
45216,note_on,,,,,32,0,7,,,,,0,,,84,96
45248,note_off,,,,,128,0,9,,,,,2,,,75,100
45248,note_off,,,,,128,0,11,,,,,4,,,53,100
45248,note_off,,,,,128,0,14,,,,,6,,,53,100
45280,note_off,,,,,64,0,7,,,,,0,,,84,100
45312,note_on,,,,,64,0,9,,,,,2,,,74,86
45312,note_off,,,,,768,0,8,,,,,1,,,81,100
45312,note_on,,,,,64,0,11,,,,,4,,,46,86
45312,note_on,,,,,64,0,14,,,,,6,,,46,100
45312,note_on,,,,,196,0,13,,,,,6,,,65,100
45312,note_on,,,,,32,0,7,,,,,0,,,81,96
45340,note_on,,,,,28,0,13,,,,,6,,,69,100
45372,note_on,,,,,32,0,13,,,,,6,,,74,100
45376,note_off,,,,,64,0,7,,,,,0,,,81,100
45408,note_on,,,,,32,0,7,,,,,0,,,86,96
45440,note_off,,,,,128,0,11,,,,,4,,,46,100
45440,note_off,,,,,128,0,14,,,,,6,,,46,100
45472,note_off,,,,,64,0,7,,,,,0,,,86,100
45504,note_on,,,,,192,0,8,,,,,1,,,70,87
45504,note_on,,,,,64,0,14,,,,,6,,,46,100
45504,note_on,,,,,64,0,11,,,,,4,,,46,87
45504,note_on,,,,,32,0,7,,,,,0,,,81,97
45568,note_off,,,,,64,0,7,,,,,0,,,81,100
45600,note_on,,,,,32,0,7,,,,,0,,,86,97
45632,note_off,,,,,128,0,8,,,,,1,,,70,100
45632,note_off,,,,,128,0,11,,,,,4,,,46,100
45632,note_off,,,,,128,0,14,,,,,6,,,46,100
45664,note_off,,,,,64,0,7,,,,,0,,,86,100
45696,note_on,,,,,32,0,7,,,,,0,,,81,97
45696,note_on,,,,,64,0,11,,,,,4,,,46,87
45696,note_on,,,,,64,0,8,,,,,1,,,77,87
45696,note_on,,,,,64,0,14,,,,,6,,,46,100
45760,note_off,,,,,64,0,7,,,,,0,,,81,100
45792,note_on,,,,,32,0,7,,,,,0,,,86,97
45824,note_off,,,,,128,0,8,,,,,1,,,77,100
45824,note_off,,,,,452,0,13,,,,,6,,,65,100
45824,note_off,,,,,128,0,11,,,,,4,,,46,100
45824,note_off,,,,,128,0,14,,,,,6,,,46,100
45852,note_off,,,,,28,0,13,,,,,6,,,69,100
45856,note_off,,,,,64,0,7,,,,,0,,,86,100
45884,note_off,,,,,32,0,13,,,,,6,,,74,100
45888,note_on,,,,,64,0,14,,,,,6,,,46,100
45888,note_on,,,,,64,0,11,,,,,4,,,46,87
45888,note_on,,,,,32,0,7,,,,,0,,,81,97
45888,note_on,,,,,64,0,8,,,,,1,,,81,87
45952,note_off,,,,,64,0,7,,,,,0,,,81,100
45984,note_on,,,,,32,0,7,,,,,0,,,86,98
46016,note_off,,,,,128,0,14,,,,,6,,,46,100
46016,note_off,,,,,128,0,8,,,,,1,,,81,100
46016,note_off,,,,,128,0,11,,,,,4,,,46,100
46048,note_off,,,,,64,0,7,,,,,0,,,86,100
46080,note_on,,,,,32,0,7,,,,,0,,,79,98
46080,note_on,,,,,196,0,13,,,,,6,,,63,100
46080,note_on,,,,,64,0,14,,,,,6,,,51,100
46080,note_on,,,,,64,0,11,,,,,4,,,51,88
46080,note_on,,,,,64,0,8,,,,,1,,,79,88
46108,note_on,,,,,28,0,13,,,,,6,,,67,100
46140,note_on,,,,,32,0,13,,,,,6,,,74,100
46144,note_off,,,,,64,0,7,,,,,0,,,79,100
46176,note_on,,,,,32,0,7,,,,,0,,,82,98
46208,note_off,,,,,128,0,11,,,,,4,,,51,100
46208,note_off,,,,,128,0,14,,,,,6,,,51,100
46208,note_off,,,,,896,0,9,,,,,2,,,74,100
46240,note_off,,,,,64,0,7,,,,,0,,,82,100
46272,note_on,,,,,64,0,14,,,,,6,,,51,100
46272,note_on,,,,,32,0,7,,,,,0,,,79,98
46272,note_on,,,,,64,0,9,,,,,2,,,63,88
46272,note_on,,,,,64,0,11,,,,,4,,,51,88
46336,note_off,,,,,64,0,7,,,,,0,,,79,100
46368,note_on,,,,,32,0,7,,,,,0,,,82,99
46400,note_off,,,,,128,0,9,,,,,2,,,63,100
46400,note_off,,,,,128,0,14,,,,,6,,,51,100
46400,note_off,,,,,128,0,11,,,,,4,,,51,100
46432,note_off,,,,,64,0,7,,,,,0,,,82,100
46464,note_on,,,,,64,0,14,,,,,6,,,51,100
46464,note_on,,,,,64,0,11,,,,,4,,,51,89
46464,note_on,,,,,32,0,7,,,,,0,,,79,99
46464,note_on,,,,,64,0,9,,,,,2,,,70,89
46528,note_off,,,,,64,0,7,,,,,0,,,79,100
46560,note_on,,,,,32,0,7,,,,,0,,,82,99
46592,note_off,,,,,452,0,13,,,,,6,,,63,100
46592,note_off,,,,,128,0,11,,,,,4,,,51,100
46592,note_off,,,,,128,0,9,,,,,2,,,70,100
46592,note_off,,,,,128,0,14,,,,,6,,,51,100
46620,note_off,,,,,28,0,13,,,,,6,,,67,100
46624,note_off,,,,,64,0,7,,,,,0,,,82,100
46652,note_off,,,,,32,0,13,,,,,6,,,74,100
46656,note_on,,,,,64,0,11,,,,,4,,,51,89
46656,note_on,,,,,64,0,14,,,,,6,,,51,100
46656,note_on,,,,,64,0,9,,,,,2,,,74,89
46656,note_on,,,,,32,0,7,,,,,0,,,79,99
46720,note_off,,,,,64,0,7,,,,,0,,,79,100
46752,note_on,,,,,32,0,7,,,,,0,,,82,99
46784,note_off,,,,,128,0,11,,,,,4,,,51,100
46784,note_off,,,,,128,0,14,,,,,6,,,51,100
46784,note_off,,,,,128,0,9,,,,,2,,,74,100
46816,note_off,,,,,64,0,7,,,,,0,,,82,100
46848,note_on,,,,,32,0,7,,,,,0,,,79,100
46848,note_off,,,,,768,0,8,,,,,1,,,79,100
46848,note_on,,,,,196,0,13,,,,,6,,,63,100
46848,note_on,,,,,64,0,14,,,,,6,,,45,100
46848,note_on,,,,,64,0,9,,,,,2,,,72,90
46848,note_on,,,,,64,0,11,,,,,4,,,45,90
46876,note_on,,,,,28,0,13,,,,,6,,,67,100
46908,note_on,,,,,32,0,13,,,,,6,,,72,100
46912,note_off,,,,,64,0,7,,,,,0,,,79,100
46944,note_on,,,,,32,0,7,,,,,0,,,84,100
46976,note_off,,,,,128,0,14,,,,,6,,,45,100
46976,note_off,,,,,128,0,11,,,,,4,,,45,100
47008,note_off,,,,,64,0,7,,,,,0,,,84,100
47040,note_on,,,,,192,0,8,,,,,1,,,69,90
47040,note_on,,,,,64,0,11,,,,,4,,,45,90
47040,note_on,,,,,32,0,7,,,,,0,,,79,100
47040,note_on,,,,,64,0,14,,,,,6,,,45,100
47104,note_off,,,,,64,0,7,,,,,0,,,79,100
47136,note_on,,,,,32,0,7,,,,,0,,,84,100
47168,note_off,,,,,128,0,14,,,,,6,,,45,100
47168,note_off,,,,,128,0,8,,,,,1,,,69,100
47168,note_off,,,,,128,0,11,,,,,4,,,45,100
47200,note_off,,,,,64,0,7,,,,,0,,,84,100
47232,note_on,,,,,64,0,14,,,,,6,,,45,100
47232,note_on,,,,,64,0,11,,,,,4,,,45,90
47232,note_on,,,,,32,0,7,,,,,0,,,79,100
47232,note_on,,,,,64,0,8,,,,,1,,,75,90
47296,note_off,,,,,64,0,7,,,,,0,,,79,100
47328,note_on,,,,,32,0,7,,,,,0,,,84,101
47360,note_off,,,,,128,0,14,,,,,6,,,45,100
47360,note_off,,,,,128,0,11,,,,,4,,,45,100
47360,note_off,,,,,452,0,13,,,,,6,,,63,100
47360,note_off,,,,,128,0,8,,,,,1,,,75,100
47388,note_off,,,,,28,0,13,,,,,6,,,67,100
47392,note_off,,,,,64,0,7,,,,,0,,,84,100
47420,note_off,,,,,32,0,13,,,,,6,,,72,100
47424,note_on,,,,,32,0,7,,,,,0,,,79,101
47424,note_on,,,,,64,0,11,,,,,4,,,45,91
47424,note_on,,,,,64,0,14,,,,,6,,,45,100
47424,note_on,,,,,64,0,8,,,,,1,,,79,91
47488,note_off,,,,,64,0,7,,,,,0,,,79,100
47520,note_on,,,,,32,0,7,,,,,0,,,84,101
47552,note_off,,,,,128,0,8,,,,,1,,,79,100
47552,note_off,,,,,128,0,11,,,,,4,,,45,100
47552,note_off,,,,,128,0,14,,,,,6,,,45,100
47584,note_off,,,,,64,0,7,,,,,0,,,84,100
47616,note_on,,,,,64,0,11,,,,,4,,,50,91
47616,note_on,,,,,32,0,7,,,,,0,,,77,101
47616,note_on,,,,,64,0,14,,,,,6,,,50,100
47616,note_on,,,,,196,0,13,,,,,6,,,62,100
47616,note_on,,,,,64,0,8,,,,,1,,,77,91
47644,note_on,,,,,28,0,13,,,,,6,,,65,100
47676,note_on,,,,,32,0,13,,,,,6,,,72,100
47680,note_off,,,,,64,0,7,,,,,0,,,77,100
47712,note_on,,,,,32,0,7,,,,,0,,,81,102
47744,note_off,,,,,128,0,14,,,,,6,,,50,100
47744,note_off,,,,,896,0,9,,,,,2,,,72,100
47744,note_off,,,,,128,0,11,,,,,4,,,50,100
47776,note_off,,,,,64,0,7,,,,,0,,,81,100
47808,note_on,,,,,64,0,14,,,,,6,,,50,100
47808,note_on,,,,,64,0,11,,,,,4,,,50,92
47808,note_on,,,,,32,0,7,,,,,0,,,77,102
47808,note_on,,,,,64,0,9,,,,,2,,,62,92
47872,note_off,,,,,64,0,7,,,,,0,,,77,100
47904,note_on,,,,,32,0,7,,,,,0,,,81,102
47936,note_off,,,,,128,0,9,,,,,2,,,62,100
47936,note_off,,,,,128,0,14,,,,,6,,,50,100
47936,note_off,,,,,128,0,11,,,,,4,,,50,100
47968,note_off,,,,,64,0,7,,,,,0,,,81,100
48000,note_on,,,,,64,0,14,,,,,6,,,50,100
48000,note_on,,,,,64,0,9,,,,,2,,,69,92
48000,note_on,,,,,32,0,7,,,,,0,,,77,102
48000,note_on,,,,,64,0,11,,,,,4,,,50,92
48064,note_off,,,,,64,0,7,,,,,0,,,77,100
48096,note_on,,,,,32,0,7,,,,,0,,,81,102
48128,note_off,,,,,128,0,11,,,,,4,,,50,100
48128,note_off,,,,,128,0,14,,,,,6,,,50,100
48128,note_off,,,,,128,0,9,,,,,2,,,69,100
48128,note_off,,,,,452,0,13,,,,,6,,,62,100
48156,note_off,,,,,28,0,13,,,,,6,,,65,100
48160,note_off,,,,,64,0,7,,,,,0,,,81,100
48188,note_off,,,,,32,0,13,,,,,6,,,72,100
48192,note_on,,,,,32,0,7,,,,,0,,,77,103
48192,note_on,,,,,64,0,11,,,,,4,,,50,93
48192,note_on,,,,,64,0,14,,,,,6,,,50,100
48192,note_on,,,,,64,0,9,,,,,2,,,72,93
48256,note_off,,,,,64,0,7,,,,,0,,,77,100
48288,note_on,,,,,32,0,7,,,,,0,,,81,103
48320,note_off,,,,,128,0,14,,,,,6,,,50,100
48320,note_off,,,,,128,0,11,,,,,4,,,50,100
48320,note_off,,,,,128,0,9,,,,,2,,,72,100
48352,note_off,,,,,64,0,7,,,,,0,,,81,100
48384,note_on,,,,,64,0,9,,,,,2,,,70,93
48384,note_on,,,,,196,0,13,,,,,6,,,62,100
48384,note_on,,,,,64,0,14,,,,,6,,,43,100
48384,note_on,,,,,32,0,7,,,,,0,,,77,103
48384,note_on,,,,,64,0,11,,,,,4,,,43,93
48384,note_off,,,,,768,0,8,,,,,1,,,77,100
48412,note_on,,,,,28,0,13,,,,,6,,,65,100
48444,note_on,,,,,32,0,13,,,,,6,,,70,100
48448,note_off,,,,,64,0,7,,,,,0,,,77,100
48480,note_on,,,,,32,0,7,,,,,0,,,82,103
48512,note_off,,,,,128,0,14,,,,,6,,,43,100
48512,note_off,,,,,128,0,11,,,,,4,,,43,100
48544,note_off,,,,,64,0,7,,,,,0,,,82,100
48576,note_on,,,,,64,0,14,,,,,6,,,43,100
48576,note_on,,,,,32,0,7,,,,,0,,,77,103
48576,note_on,,,,,64,0,11,,,,,4,,,43,93
48576,note_on,,,,,192,0,8,,,,,1,,,67,93
48640,note_off,,,,,64,0,7,,,,,0,,,77,100
48672,note_on,,,,,32,0,7,,,,,0,,,82,104
48704,note_off,,,,,128,0,11,,,,,4,,,43,100
48704,note_off,,,,,128,0,8,,,,,1,,,67,100
48704,note_off,,,,,128,0,14,,,,,6,,,43,100
48736,note_off,,,,,64,0,7,,,,,0,,,82,100
48768,note_on,,,,,64,0,14,,,,,6,,,43,100
48768,note_on,,,,,64,0,8,,,,,1,,,74,95
48768,note_on,,,,,32,0,7,,,,,0,,,77,105
48768,note_on,,,,,64,0,11,,,,,4,,,43,95
48832,note_off,,,,,64,0,7,,,,,0,,,77,100
48864,note_on,,,,,32,0,7,,,,,0,,,82,104
48896,note_off,,,,,128,0,8,,,,,1,,,74,100
48896,note_off,,,,,452,0,13,,,,,6,,,62,100
48896,note_off,,,,,128,0,11,,,,,4,,,43,100
48896,note_off,,,,,128,0,14,,,,,6,,,43,100
48924,note_off,,,,,28,0,13,,,,,6,,,65,100
48928,note_off,,,,,64,0,7,,,,,0,,,82,100
48956,note_off,,,,,32,0,13,,,,,6,,,70,100
48960,note_on,,,,,64,0,8,,,,,1,,,77,93
48960,note_on,,,,,32,0,7,,,,,0,,,77,103
48960,note_on,,,,,64,0,14,,,,,6,,,43,100
48960,note_on,,,,,64,0,11,,,,,4,,,43,93
49024,note_off,,,,,64,0,7,,,,,0,,,77,100
49056,note_on,,,,,32,0,7,,,,,0,,,82,101
49088,note_off,,,,,128,0,11,,,,,4,,,43,100
49088,note_off,,,,,128,0,14,,,,,6,,,43,100
49088,note_off,,,,,128,0,8,,,,,1,,,77,100
49120,note_off,,,,,64,0,7,,,,,0,,,82,100
49152,note_on,,,,,64,0,11,,,,,4,,,48,90
49152,note_on,,,,,196,0,13,,,,,6,,,60,100
49152,note_on,,,,,64,0,14,,,,,6,,,48,100
49152,note_on,,,,,64,0,8,,,,,1,,,76,90
49152,note_on,,,,,32,0,7,,,,,0,,,76,100
49180,note_on,,,,,28,0,13,,,,,6,,,64,100
49196,note_off,,,,,44,0,7,,,,,0,,,76,100
49200,note_on,,,,,4,0,7,,,,,0,,,74,99
49212,note_on,,,,,32,0,13,,,,,6,,,70,100
49244,note_off,,,,,44,0,7,,,,,0,,,74,100
49248,note_on,,,,,4,0,7,,,,,0,,,76,98
49280,note_off,,,,,896,0,9,,,,,2,,,70,100
49280,note_off,,,,,128,0,11,,,,,4,,,48,100
49280,note_off,,,,,128,0,14,,,,,6,,,48,100
49340,note_off,,,,,92,0,7,,,,,0,,,76,100
49344,note_on,,,,,64,0,14,,,,,6,,,48,100
49344,note_on,,,,,64,0,11,,,,,4,,,48,87
49344,note_on,,,,,4,0,7,,,,,0,,,72,97
49344,note_on,,,,,64,0,9,,,,,2,,,60,87
49472,note_off,,,,,128,0,11,,,,,4,,,48,100
49472,note_off,,,,,128,0,7,,,,,0,,,72,100
49472,note_off,,,,,128,0,14,,,,,6,,,48,100
49472,note_off,,,,,128,0,9,,,,,2,,,60,100
49536,note_on,,,,,64,0,11,,,,,4,,,48,84
49536,note_on,,,,,64,0,14,,,,,6,,,48,100
49536,note_on,,,,,64,0,9,,,,,2,,,67,84
49664,note_off,,,,,128,0,9,,,,,2,,,67,100
49664,note_off,,,,,452,0,13,,,,,6,,,60,100
49664,note_off,,,,,128,0,11,,,,,4,,,48,100
49664,note_off,,,,,128,0,14,,,,,6,,,48,100
49692,note_off,,,,,28,0,13,,,,,6,,,64,100
49724,note_off,,,,,32,0,13,,,,,6,,,70,100
49728,note_on,,,,,64,0,14,,,,,6,,,48,100
49728,note_on,,,,,64,0,9,,,,,2,,,70,81
49728,note_on,,,,,256,0,7,,,,,0,,,72,91
49728,note_on,,,,,64,0,11,,,,,4,,,48,81
49856,note_off,,,,,128,0,9,,,,,2,,,70,100
49856,note_off,,,,,128,0,14,,,,,6,,,48,100
49856,note_off,,,,,128,0,7,,,,,0,,,72,100
49856,note_off,,,,,128,0,11,,,,,4,,,48,100
49920,note_on,,,,,64,0,11,,,,,4,,,48,80
49920,note_off,,,,,768,0,8,,,,,1,,,76,100
49920,note_on,,,,,64,0,14,,,,,6,,,48,100
49920,note_on,,,,,64,0,9,,,,,2,,,70,80
49920,note_on,,,,,64,0,7,,,,,0,,,76,90
49920,note_on,,,,,196,0,13,,,,,6,,,64,100
49948,note_on,,,,,28,0,13,,,,,6,,,67,100
49980,note_on,,,,,32,0,13,,,,,6,,,70,100
50012,note_off,,,,,92,0,7,,,,,0,,,76,100
50016,note_on,,,,,4,0,7,,,,,0,,,72,90
50048,note_off,,,,,128,0,14,,,,,6,,,48,100
50048,note_off,,,,,128,0,11,,,,,4,,,48,100
50108,note_off,,,,,92,0,7,,,,,0,,,72,100
50112,note_on,,,,,4,0,7,,,,,0,,,70,91
50112,note_on,,,,,64,0,14,,,,,6,,,48,100
50112,note_on,,,,,64,0,11,,,,,4,,,48,81
50112,note_on,,,,,192,0,8,,,,,1,,,76,81
50176,note_off,,,,,256,0,9,,,,,2,,,70,100
50204,note_off,,,,,92,0,7,,,,,0,,,70,100
50208,note_on,,,,,4,0,7,,,,,0,,,72,92
50240,note_off,,,,,128,0,14,,,,,6,,,48,100
50240,note_off,,,,,128,0,11,,,,,4,,,48,100
50240,note_off,,,,,128,0,8,,,,,1,,,76,100
50272,note_off,,,,,64,0,7,,,,,0,,,72,100
50304,note_on,,,,,64,0,14,,,,,6,,,48,100
50304,note_on,,,,,64,0,11,,,,,4,,,48,83
50304,note_on,,,,,64,0,8,,,,,1,,,72,83
50304,note_on,,,,,32,0,7,,,,,0,,,76,93
50396,note_off,,,,,92,0,7,,,,,0,,,76,100
50400,note_on,,,,,4,0,7,,,,,0,,,72,94
50432,note_off,,,,,128,0,14,,,,,6,,,48,100
50432,note_off,,,,,128,0,11,,,,,4,,,48,100
50432,note_off,,,,,452,0,13,,,,,6,,,64,100
50432,note_off,,,,,128,0,8,,,,,1,,,72,100
50460,note_off,,,,,28,0,13,,,,,6,,,67,100
50492,note_off,,,,,92,0,7,,,,,0,,,72,100
50492,note_off,,,,,32,0,13,,,,,6,,,70,100
50496,note_on,,,,,4,0,7,,,,,0,,,70,94
50496,note_on,,,,,320,0,9,,,,,2,,,76,84
50496,note_on,,,,,64,0,14,,,,,6,,,48,100
50496,note_on,,,,,64,0,8,,,,,1,,,76,84
50496,note_on,,,,,64,0,11,,,,,4,,,48,84
50588,note_off,,,,,92,0,7,,,,,0,,,70,100
50592,note_on,,,,,4,0,7,,,,,0,,,72,95
50596,note_off,,,,,100,0,9,,,,,2,,,76,100
50624,note_off,,,,,128,0,11,,,,,4,,,48,100
50624,note_off,,,,,128,0,14,,,,,6,,,48,100
50624,note_off,,,,,128,0,8,,,,,1,,,76,100
50656,note_off,,,,,64,0,7,,,,,0,,,72,100
50688,note_on,,,,,32,0,7,,,,,0,,,79,96
50688,note_on,,,,,92,0,9,,,,,2,,,72,86
50688,note_on,,,,,64,0,11,,,,,4,,,48,86
50688,note_on,,,,,64,0,14,,,,,6,,,48,100
50688,note_on,,,,,196,0,13,,,,,6,,,67,100
50716,note_on,,,,,28,0,13,,,,,6,,,70,100
50748,note_on,,,,,32,0,13,,,,,6,,,76,100
50780,note_off,,,,,92,0,7,,,,,0,,,79,100
50784,note_on,,,,,4,0,7,,,,,0,,,72,97
50816,note_off,,,,,128,0,11,,,,,4,,,48,100
50816,note_off,,,,,128,0,14,,,,,6,,,48,100
50876,note_off,,,,,188,0,9,,,,,2,,,72,100
50876,note_off,,,,,92,0,7,,,,,0,,,72,100
50880,note_on,,,,,4,0,7,,,,,0,,,70,98
50880,note_on,,,,,4,0,9,,,,,2,,,76,88
50880,note_on,,,,,64,0,11,,,,,4,,,48,88
50880,note_on,,,,,64,0,14,,,,,6,,,48,100
50880,note_on,,,,,256,0,8,,,,,1,,,79,88
50972,note_off,,,,,92,0,7,,,,,0,,,70,100
50976,note_on,,,,,4,0,7,,,,,0,,,72,99
50980,note_off,,,,,100,0,8,,,,,1,,,79,100
51008,note_off,,,,,128,0,11,,,,,4,,,48,100
51008,note_off,,,,,128,0,9,,,,,2,,,76,100
51008,note_off,,,,,128,0,14,,,,,6,,,48,100
51040,note_off,,,,,64,0,7,,,,,0,,,72,100
51072,note_on,,,,,64,0,14,,,,,6,,,48,100
51072,note_on,,,,,64,0,11,,,,,4,,,48,89
51072,note_on,,,,,92,0,8,,,,,1,,,72,89
51072,note_on,,,,,32,0,7,,,,,0,,,79,99
51164,note_off,,,,,92,0,7,,,,,0,,,79,100
51168,note_on,,,,,4,0,7,,,,,0,,,72,100
51200,note_off,,,,,452,0,13,,,,,6,,,67,100
51200,note_off,,,,,128,0,14,,,,,6,,,48,100
51200,note_off,,,,,128,0,11,,,,,4,,,48,100
51228,note_off,,,,,28,0,13,,,,,6,,,70,100
51260,note_off,,,,,32,0,13,,,,,6,,,76,100
51260,note_off,,,,,92,0,7,,,,,0,,,72,100
51260,note_off,,,,,188,0,8,,,,,1,,,72,100
51264,note_on,,,,,4,0,7,,,,,0,,,70,101
51264,note_on,,,,,64,0,11,,,,,4,,,48,91
51264,note_on,,,,,64,0,14,,,,,6,,,48,100
51264,note_on,,,,,4,0,8,,,,,1,,,79,91
51264,note_on,,,,,256,0,9,,,,,2,,,79,91
51356,note_off,,,,,92,0,7,,,,,0,,,70,100
51360,note_on,,,,,4,0,7,,,,,0,,,72,102
51364,note_off,,,,,100,0,9,,,,,2,,,79,100
51392,note_off,,,,,128,0,8,,,,,1,,,79,100
51392,note_off,,,,,128,0,11,,,,,4,,,48,100
51392,note_off,,,,,128,0,14,,,,,6,,,48,100
51424,note_off,,,,,64,0,7,,,,,0,,,72,100
51456,note_on,,,,,92,0,9,,,,,2,,,72,93
51456,note_on,,,,,196,0,13,,,,,6,,,70,100
51456,note_on,,,,,32,0,7,,,,,0,,,82,103
51456,note_on,,,,,64,0,11,,,,,4,,,48,93
51456,note_on,,,,,64,0,14,,,,,6,,,48,100
51484,note_on,,,,,28,0,13,,,,,6,,,76,100
51516,note_on,,,,,32,0,13,,,,,6,,,79,100
51548,note_off,,,,,92,0,7,,,,,0,,,82,100
51552,note_on,,,,,4,0,7,,,,,0,,,72,104
51584,note_off,,,,,128,0,11,,,,,4,,,48,100
51584,note_off,,,,,128,0,14,,,,,6,,,48,100
51644,note_off,,,,,188,0,9,,,,,2,,,72,100
51644,note_off,,,,,92,0,7,,,,,0,,,72,100
51648,note_on,,,,,64,0,11,,,,,4,,,48,94
51648,note_on,,,,,4,0,7,,,,,0,,,70,104
51648,note_on,,,,,4,0,9,,,,,2,,,79,94
51648,note_on,,,,,64,0,14,,,,,6,,,48,100
51648,note_on,,,,,256,0,8,,,,,1,,,82,94
51740,note_off,,,,,92,0,7,,,,,0,,,70,100
51744,note_on,,,,,4,0,7,,,,,0,,,72,105
51748,note_off,,,,,100,0,8,,,,,1,,,82,100
51776,note_off,,,,,128,0,9,,,,,2,,,79,100
51776,note_off,,,,,128,0,14,,,,,6,,,48,100
51776,note_off,,,,,128,0,11,,,,,4,,,48,100
51808,note_off,,,,,64,0,7,,,,,0,,,72,100
51840,note_on,,,,,32,0,7,,,,,0,,,82,106
51840,note_on,,,,,64,0,11,,,,,4,,,48,96
51840,note_on,,,,,64,0,14,,,,,6,,,48,100
51840,note_on,,,,,92,0,8,,,,,1,,,72,96
51932,note_off,,,,,92,0,7,,,,,0,,,82,100
51936,note_on,,,,,4,0,7,,,,,0,,,72,107
51968,note_off,,,,,452,0,13,,,,,6,,,70,100
51968,note_off,,,,,128,0,14,,,,,6,,,48,100
51968,note_off,,,,,128,0,11,,,,,4,,,48,100
51996,note_off,,,,,28,0,13,,,,,6,,,76,100
52028,note_off,,,,,188,0,8,,,,,1,,,72,100
52028,note_off,,,,,32,0,13,,,,,6,,,79,100
52028,note_off,,,,,92,0,7,,,,,0,,,72,100
52032,note_on,,,,,4,0,7,,,,,0,,,70,108
52032,note_on,,,,,4,0,8,,,,,1,,,82,98
52032,note_on,,,,,256,0,9,,,,,2,,,76,98
52032,note_on,,,,,64,0,14,,,,,6,,,48,100
52032,note_on,,,,,64,0,11,,,,,4,,,48,98
52124,note_off,,,,,92,0,7,,,,,0,,,70,100
52128,note_on,,,,,4,0,7,,,,,0,,,72,109
52132,note_off,,,,,100,0,9,,,,,2,,,76,100
52160,note_off,,,,,128,0,11,,,,,4,,,48,100
52160,note_off,,,,,128,0,8,,,,,1,,,82,100
52160,note_off,,,,,128,0,14,,,,,6,,,48,100
52192,note_off,,,,,64,0,7,,,,,0,,,72,100
52224,note_on,,,,,92,0,9,,,,,2,,,77,99
52224,note_on,,,,,196,0,13,,,,,6,,,77,100
52224,note_on,,,,,64,0,14,,,,,6,,,53,100
52224,note_on,,,,,32,0,7,,,,,0,,,81,109
52224,note_on,,,,,0,0,13,,,,,6,,,72,100
52224,note_on,,,,,0,0,13,,,,,6,,,69,100
52224,note_on,,,,,64,0,11,,,,,4,,,53,99
52288,note_off,,,,,64,0,7,,,,,0,,,81,100
52320,note_on,,,,,32,0,7,,,,,0,,,72,110
52320,note_on,,,,,160,0,8,,,,,1,,,69,100
52324,note_off,,,,,100,0,11,,,,,4,,,53,100
52324,note_off,,,,,100,0,14,,,,,6,,,53,100
52352,note_off,,,,,0,0,13,,,,,6,,,69,100
52352,note_off,,,,,0,0,13,,,,,6,,,72,100
52352,note_off,,,,,128,0,13,,,,,6,,,77,100
52384,note_off,,,,,64,0,8,,,,,1,,,69,100
52384,note_off,,,,,64,0,7,,,,,0,,,72,100
52416,note_on,,,,,0,0,13,,,,,6,,,67,100
52416,note_on,,,,,92,0,14,,,,,6,,,58,100
52416,note_on,,,,,0,0,13,,,,,6,,,74,100
52416,note_on,,,,,92,0,11,,,,,4,,,58,100
52416,note_on,,,,,32,0,7,,,,,0,,,70,110
52416,note_on,,,,,32,0,8,,,,,1,,,67,100
52416,note_on,,,,,64,0,13,,,,,6,,,79,100
52480,note_off,,,,,256,0,9,,,,,2,,,77,100
52480,note_off,,,,,64,0,7,,,,,0,,,70,100
52480,note_off,,,,,64,0,8,,,,,1,,,67,100
52512,note_on,,,,,32,0,7,,,,,0,,,69,110
52512,note_on,,,,,32,0,8,,,,,1,,,65,100
52516,note_off,,,,,100,0,14,,,,,6,,,58,100
52516,note_off,,,,,100,0,11,,,,,4,,,58,100
52544,note_off,,,,,0,0,13,,,,,6,,,67,100
52544,note_off,,,,,128,0,13,,,,,6,,,79,100
52544,note_off,,,,,0,0,13,,,,,6,,,74,100
52576,note_off,,,,,64,0,8,,,,,1,,,65,100
52576,note_off,,,,,64,0,7,,,,,0,,,69,100
52608,note_on,,,,,32,0,8,,,,,1,,,64,100
52608,note_on,,,,,92,0,11,,,,,4,,,60,100
52608,note_on,,,,,32,0,7,,,,,0,,,67,110
52608,note_on,,,,,64,0,13,,,,,6,,,64,100
52608,note_on,,,,,0,0,13,,,,,6,,,67,100
52608,note_on,,,,,92,0,14,,,,,6,,,60,100
52608,note_on,,,,,0,0,13,,,,,6,,,72,100
52708,note_off,,,,,100,0,14,,,,,6,,,60,100
52708,note_off,,,,,100,0,8,,,,,1,,,64,100
52708,note_off,,,,,100,0,11,,,,,4,,,60,100
52708,note_off,,,,,100,0,7,,,,,0,,,67,100
52756,program_change,,,,,48,0,8,,,,,1,48,,,
52800,note_on,,,,,92,0,14,,,,,6,,,48,100
52800,note_on,,,,,92,0,7,,,,,0,,,76,110
52800,note_on,,,,,92,0,11,,,,,4,,,48,100
52800,note_on,,,,,320,0,9,,,,,2,,,67,100
52800,note_on,,,,,44,0,8,,,,,1,,,72,100
52864,note_off,,,,,0,0,13,,,,,6,,,72,100
52864,note_off,,,,,0,0,13,,,,,6,,,67,100
52864,note_off,,,,,256,0,13,,,,,6,,,64,100
52900,note_off,,,,,100,0,7,,,,,0,,,76,100
52900,note_off,,,,,100,0,8,,,,,1,,,72,100
52900,note_off,,,,,100,0,11,,,,,4,,,48,100
52900,note_off,,,,,100,0,14,,,,,6,,,48,100
52928,note_off,,,,,128,0,9,,,,,2,,,67,100
52992,note_on,,,,,92,0,8,,,,,1,,,77,100
52992,note_on,,,,,0,0,13,,,,,6,,,69,100
52992,note_on,,,,,128,0,13,,,,,6,,,65,100
52992,program_change,,,,,92,0,11,,,,,4,48,,,
52992,note_on,,,,,18944,0,10,,,,,3,,,60,100
52992,note_on,,,,,0,0,15,,,,,7,,,72,100
52992,note_on,,,,,92,0,14,,,,,6,,,41,100
52992,note_on,,,,,18944,0,15,,,,,7,,,69,100
52992,note_on,,,,,18944,0,16,,,,,7,,,41,100
52992,note_on,,,,,64,0,9,,,,,2,,,69,100
52992,note_on,,,,,0,0,15,,,,,7,,,77,100
52992,note_on,,,,,92,0,7,,,,,0,,,77,110
52996,note_on,,,,,18948,0,12,,,,,5,,,41,100
52996,note_on,,,,,4,0,11,,,,,4,,,41,100
53092,note_off,,,,,100,0,14,,,,,6,,,41,100
53092,note_off,,,,,100,0,8,,,,,1,,,77,100
53096,note_off,,,,,100,0,11,,,,,4,,,41,100
53096,note_off,,,,,100,0,12,,,,,5,,,41,100
53120,note_off,,,,,128,0,7,,,,,0,,,77,100
53120,note_off,,,,,128,0,16,,,,,7,,,41,100
53184,note_on,,,,,64,0,16,,,,,7,,,53,100
53184,note_on,,,,,92,0,8,,,,,1,,,77,100
53184,note_on,,,,,192,0,13,,,,,6,,,77,100
53184,note_on,,,,,92,0,14,,,,,6,,,53,100
53188,note_on,,,,,92,0,12,,,,,5,,,41,100
53188,note_on,,,,,92,0,11,,,,,4,,,53,100
53248,note_off,,,,,64,0,13,,,,,6,,,65,100
53248,note_off,,,,,256,0,10,,,,,3,,,60,100
53248,note_off,,,,,256,0,9,,,,,2,,,69,100
53248,note_off,,,,,0,0,13,,,,,6,,,77,100
53248,note_off,,,,,0,0,13,,,,,6,,,69,100
53280,note_on,,,,,32,0,13,,,,,6,,,76,100
53284,note_off,,,,,100,0,8,,,,,1,,,77,100
53284,note_off,,,,,100,0,14,,,,,6,,,53,100
53288,note_off,,,,,100,0,12,,,,,5,,,41,100
53288,note_off,,,,,100,0,11,,,,,4,,,53,100
53312,note_off,,,,,128,0,16,,,,,7,,,53,100
53344,note_off,,,,,64,0,13,,,,,6,,,76,100
53376,note_on,,,,,92,0,8,,,,,1,,,77,100
53376,note_on,,,,,64,0,16,,,,,7,,,53,100
53376,program_change,,,,,128,0,9,,,,,2,48,,,
53376,note_on,,,,,32,0,13,,,,,6,,,77,100
53376,note_on,,,,,92,0,14,,,,,6,,,53,100
53380,note_on,,,,,92,0,12,,,,,5,,,41,100
53380,note_on,,,,,92,0,11,,,,,4,,,53,100
53440,note_off,,,,,64,0,13,,,,,6,,,77,100
53472,note_on,,,,,32,0,13,,,,,6,,,72,100
53476,note_off,,,,,100,0,14,,,,,6,,,53,100
53476,note_off,,,,,100,0,8,,,,,1,,,77,100
53480,note_off,,,,,100,0,11,,,,,4,,,53,100
53480,note_off,,,,,100,0,12,,,,,5,,,41,100
53504,note_off,,,,,128,0,16,,,,,7,,,53,100
53536,note_off,,,,,64,0,13,,,,,6,,,72,100
53568,note_on,,,,,64,0,16,,,,,7,,,41,100
53568,note_on,,,,,320,0,10,,,,,3,,,69,100
53568,note_on,,,,,92,0,8,,,,,1,,,77,100
53568,note_on,,,,,192,0,9,,,,,2,,,72,100
53568,note_on,,,,,92,0,14,,,,,6,,,41,100
53568,note_on,,,,,32,0,13,,,,,6,,,69,100
53572,note_on,,,,,92,0,11,,,,,4,,,41,100
53572,note_on,,,,,92,0,12,,,,,5,,,41,100
53632,note_off,,,,,64,0,13,,,,,6,,,69,100
53664,note_on,,,,,32,0,13,,,,,6,,,72,100
53668,note_off,,,,,100,0,10,,,,,3,,,69,100
53668,note_off,,,,,100,0,14,,,,,6,,,41,100
53668,note_off,,,,,100,0,8,,,,,1,,,77,100
53668,note_off,,,,,100,0,9,,,,,2,,,72,100
53672,note_off,,,,,100,0,11,,,,,4,,,41,100
53672,note_off,,,,,100,0,12,,,,,5,,,41,100
53680,note_off,,,,,688,0,15,,,,,7,,,69,100
53680,note_off,,,,,0,0,15,,,,,7,,,72,100
53680,note_off,,,,,0,0,15,,,,,7,,,77,100
53696,note_off,,,,,128,0,16,,,,,7,,,41,100
53728,note_off,,,,,64,0,13,,,,,6,,,72,100
53760,note_on,,,,,92,0,10,,,,,3,,,69,100
53760,note_on,,,,,0,0,15,,,,,7,,,77,100
53760,note_on,,,,,0,0,15,,,,,7,,,72,100
53760,note_on,,,,,32,0,13,,,,,6,,,65,100
53760,note_on,,,,,92,0,9,,,,,2,,,77,100
53760,note_on,,,,,92,0,14,,,,,6,,,41,100
53760,note_on,,,,,64,0,16,,,,,7,,,41,100
53760,note_on,,,,,92,0,8,,,,,1,,,77,100
53760,note_on,,,,,80,0,15,,,,,7,,,69,100
53764,note_on,,,,,92,0,12,,,,,5,,,41,100
53764,note_on,,,,,92,0,11,,,,,4,,,41,100
53824,note_off,,,,,64,0,13,,,,,6,,,65,100
53824,note_off,,,,,64,0,8,,,,,1,,,77,100
53856,note_on,,,,,32,0,8,,,,,1,,,72,100
53856,note_on,,,,,32,0,13,,,,,6,,,72,100
53860,note_off,,,,,100,0,14,,,,,6,,,41,100
53860,note_off,,,,,100,0,9,,,,,2,,,77,100
53860,note_off,,,,,100,0,10,,,,,3,,,69,100
53864,note_off,,,,,100,0,12,,,,,5,,,41,100
53864,note_off,,,,,100,0,11,,,,,4,,,41,100
53888,note_off,,,,,128,0,16,,,,,7,,,41,100
53920,note_off,,,,,64,0,13,,,,,6,,,72,100
53920,note_off,,,,,64,0,8,,,,,1,,,72,100
53952,note_on,,,,,32,0,8,,,,,1,,,69,100
53952,note_on,,,,,32,0,13,,,,,6,,,69,100
53952,note_on,,,,,92,0,9,,,,,2,,,77,100
53952,note_on,,,,,64,0,16,,,,,7,,,53,100
53952,note_on,,,,,92,0,14,,,,,6,,,53,100
53952,note_on,,,,,92,0,10,,,,,3,,,65,100
53956,note_on,,,,,92,0,12,,,,,5,,,41,100
53956,note_on,,,,,92,0,11,,,,,4,,,53,100
54016,note_off,,,,,64,0,8,,,,,1,,,69,100
54016,note_off,,,,,64,0,13,,,,,6,,,69,100
54048,note_on,,,,,32,0,8,,,,,1,,,72,100
54048,note_on,,,,,32,0,13,,,,,6,,,72,100
54052,note_off,,,,,100,0,14,,,,,6,,,53,100
54052,note_off,,,,,100,0,9,,,,,2,,,77,100
54052,note_off,,,,,100,0,10,,,,,3,,,65,100
54056,note_off,,,,,100,0,11,,,,,4,,,53,100
54056,note_off,,,,,100,0,12,,,,,5,,,41,100
54080,note_off,,,,,128,0,16,,,,,7,,,53,100
54112,note_off,,,,,64,0,8,,,,,1,,,72,100
54112,note_off,,,,,64,0,13,,,,,6,,,72,100
54144,note_on,,,,,92,0,14,,,,,6,,,53,100
54144,note_on,,,,,32,0,8,,,,,1,,,77,100
54144,note_on,,,,,92,0,10,,,,,3,,,69,100
54144,note_on,,,,,32,0,13,,,,,6,,,77,100
54144,note_on,,,,,64,0,16,,,,,7,,,53,100
54144,note_on,,,,,92,0,9,,,,,2,,,77,100
54148,note_on,,,,,92,0,12,,,,,5,,,41,100
54148,note_on,,,,,92,0,11,,,,,4,,,53,100
54208,note_off,,,,,64,0,13,,,,,6,,,77,100
54208,note_off,,,,,64,0,8,,,,,1,,,77,100
54240,note_on,,,,,32,0,13,,,,,6,,,72,100
54240,note_on,,,,,32,0,8,,,,,1,,,72,100
54244,note_off,,,,,100,0,9,,,,,2,,,77,100
54244,note_off,,,,,100,0,14,,,,,6,,,53,100
54244,note_off,,,,,100,0,10,,,,,3,,,69,100
54248,note_off,,,,,100,0,12,,,,,5,,,41,100
54248,note_off,,,,,100,0,11,,,,,4,,,53,100
54272,note_off,,,,,128,0,16,,,,,7,,,53,100
54304,note_off,,,,,64,0,13,,,,,6,,,72,100
54304,note_off,,,,,64,0,8,,,,,1,,,72,100
54336,note_on,,,,,92,0,9,,,,,2,,,77,100
54336,note_on,,,,,32,0,13,,,,,6,,,69,100
54336,note_on,,,,,92,0,14,,,,,6,,,41,100
54336,note_on,,,,,64,0,16,,,,,7,,,41,100
54336,note_on,,,,,32,0,8,,,,,1,,,69,100
54336,note_on,,,,,92,0,10,,,,,3,,,72,100
54340,note_on,,,,,92,0,12,,,,,5,,,41,100
54340,note_on,,,,,92,0,11,,,,,4,,,41,100
54400,note_off,,,,,64,0,8,,,,,1,,,69,100
54400,note_off,,,,,64,0,13,,,,,6,,,69,100
54432,note_on,,,,,32,0,13,,,,,6,,,72,100
54432,note_on,,,,,32,0,8,,,,,1,,,72,100
54436,note_off,,,,,100,0,14,,,,,6,,,41,100
54436,note_off,,,,,100,0,10,,,,,3,,,72,100
54436,note_off,,,,,100,0,9,,,,,2,,,77,100
54440,note_off,,,,,100,0,11,,,,,4,,,41,100
54440,note_off,,,,,100,0,12,,,,,5,,,41,100
54448,note_off,,,,,688,0,15,,,,,7,,,69,100
54448,note_off,,,,,0,0,15,,,,,7,,,77,100
54448,note_off,,,,,0,0,15,,,,,7,,,72,100
54464,note_off,,,,,128,0,16,,,,,7,,,41,100
54496,note_off,,,,,64,0,8,,,,,1,,,72,100
54496,note_off,,,,,64,0,13,,,,,6,,,72,100
54528,note_on,,,,,32,0,8,,,,,1,,,77,100
54528,note_on,,,,,64,0,16,,,,,7,,,41,100
54528,note_on,,,,,92,0,14,,,,,6,,,41,100
54528,note_on,,,,,80,0,15,,,,,7,,,69,100
54528,note_on,,,,,0,0,15,,,,,7,,,72,100
54528,note_on,,,,,0,0,15,,,,,7,,,77,100
54528,note_on,,,,,92,0,10,,,,,3,,,69,100
54528,note_on,,,,,92,0,9,,,,,2,,,77,100
54528,note_on,,,,,32,0,13,,,,,6,,,65,100
54532,note_on,,,,,92,0,11,,,,,4,,,41,100
54532,note_on,,,,,92,0,12,,,,,5,,,41,100
54592,note_off,,,,,64,0,13,,,,,6,,,65,100
54592,note_off,,,,,64,0,9,,,,,2,,,77,100
54624,note_on,,,,,32,0,13,,,,,6,,,72,100
54624,note_on,,,,,32,0,9,,,,,2,,,72,100
54628,note_off,,,,,100,0,14,,,,,6,,,41,100
54628,note_off,,,,,100,0,10,,,,,3,,,69,100
54628,note_off,,,,,100,0,8,,,,,1,,,77,100
54632,note_off,,,,,100,0,12,,,,,5,,,41,100
54632,note_off,,,,,100,0,11,,,,,4,,,41,100
54656,note_off,,,,,128,0,16,,,,,7,,,41,100
54688,note_off,,,,,64,0,13,,,,,6,,,72,100
54688,note_off,,,,,64,0,9,,,,,2,,,72,100
54720,note_on,,,,,64,0,16,,,,,7,,,53,100
54720,note_on,,,,,92,0,8,,,,,1,,,77,100
54720,note_on,,,,,32,0,13,,,,,6,,,69,100
54720,note_on,,,,,92,0,10,,,,,3,,,65,100
54720,note_on,,,,,32,0,9,,,,,2,,,69,100
54720,note_on,,,,,92,0,14,,,,,6,,,53,100
54724,note_on,,,,,92,0,12,,,,,5,,,41,100
54724,note_on,,,,,92,0,11,,,,,4,,,53,100
54784,note_off,,,,,64,0,13,,,,,6,,,69,100
54784,note_off,,,,,64,0,9,,,,,2,,,69,100
54816,note_on,,,,,32,0,13,,,,,6,,,72,100
54816,note_on,,,,,32,0,9,,,,,2,,,72,100
54820,note_off,,,,,100,0,14,,,,,6,,,53,100
54820,note_off,,,,,100,0,10,,,,,3,,,65,100
54820,note_off,,,,,100,0,8,,,,,1,,,77,100
54824,note_off,,,,,100,0,11,,,,,4,,,53,100
54824,note_off,,,,,100,0,12,,,,,5,,,41,100
54848,note_off,,,,,128,0,16,,,,,7,,,53,100
54880,note_off,,,,,64,0,9,,,,,2,,,72,100
54880,note_off,,,,,64,0,13,,,,,6,,,72,100
54912,note_on,,,,,92,0,8,,,,,1,,,77,100
54912,note_on,,,,,64,0,16,,,,,7,,,53,100
54912,note_on,,,,,32,0,13,,,,,6,,,77,100
54912,note_on,,,,,92,0,10,,,,,3,,,69,100
54912,note_on,,,,,92,0,14,,,,,6,,,53,100
54912,note_on,,,,,32,0,9,,,,,2,,,77,100
54916,note_on,,,,,92,0,11,,,,,4,,,53,100
54916,note_on,,,,,92,0,12,,,,,5,,,41,100
54976,note_off,,,,,64,0,9,,,,,2,,,77,100
54976,note_off,,,,,64,0,13,,,,,6,,,77,100
55008,note_on,,,,,32,0,13,,,,,6,,,72,100
55008,note_on,,,,,32,0,9,,,,,2,,,72,100
55012,note_off,,,,,100,0,10,,,,,3,,,69,100
55012,note_off,,,,,100,0,14,,,,,6,,,53,100
55012,note_off,,,,,100,0,8,,,,,1,,,77,100
55016,note_off,,,,,100,0,12,,,,,5,,,41,100
55016,note_off,,,,,100,0,11,,,,,4,,,53,100
55040,note_off,,,,,128,0,16,,,,,7,,,53,100
55072,note_off,,,,,64,0,13,,,,,6,,,72,100
55072,note_off,,,,,64,0,9,,,,,2,,,72,100
55104,note_on,,,,,92,0,14,,,,,6,,,41,100
55104,note_on,,,,,32,0,13,,,,,6,,,69,100
55104,note_on,,,,,64,0,16,,,,,7,,,41,100
55104,note_on,,,,,92,0,8,,,,,1,,,77,100
55104,note_on,,,,,92,0,10,,,,,3,,,72,100
55104,note_on,,,,,32,0,9,,,,,2,,,69,100
55108,note_on,,,,,92,0,12,,,,,5,,,41,100
55108,note_on,,,,,92,0,11,,,,,4,,,41,100
55168,note_off,,,,,64,0,13,,,,,6,,,69,100
55168,note_off,,,,,64,0,9,,,,,2,,,69,100
55200,note_on,,,,,32,0,13,,,,,6,,,72,100
55200,note_on,,,,,32,0,9,,,,,2,,,72,100
55204,note_off,,,,,100,0,8,,,,,1,,,77,100
55204,note_off,,,,,100,0,10,,,,,3,,,72,100
55204,note_off,,,,,100,0,14,,,,,6,,,41,100
55208,note_off,,,,,100,0,12,,,,,5,,,41,100
55208,note_off,,,,,100,0,11,,,,,4,,,41,100
55216,note_off,,,,,0,0,15,,,,,7,,,72,100
55216,note_off,,,,,0,0,15,,,,,7,,,77,100
55216,note_off,,,,,688,0,15,,,,,7,,,69,100
55232,note_off,,,,,128,0,16,,,,,7,,,41,100
55264,note_off,,,,,64,0,13,,,,,6,,,72,100
55264,note_off,,,,,64,0,9,,,,,2,,,72,100
55296,note_on,,,,,92,0,8,,,,,1,,,77,100
55296,note_on,,,,,92,0,10,,,,,3,,,69,100
55296,note_on,,,,,32,0,13,,,,,6,,,65,100
55296,note_on,,,,,64,0,16,,,,,7,,,41,100
55296,note_on,,,,,92,0,14,,,,,6,,,41,100
55296,note_on,,,,,0,0,15,,,,,7,,,77,100
55296,note_on,,,,,0,0,15,,,,,7,,,72,100
55296,note_on,,,,,80,0,15,,,,,7,,,69,100
55296,note_on,,,,,32,0,9,,,,,2,,,77,100
55300,note_on,,,,,92,0,11,,,,,4,,,41,100
55300,note_on,,,,,92,0,12,,,,,5,,,41,100
55360,note_off,,,,,64,0,13,,,,,6,,,65,100
55360,note_off,,,,,64,0,8,,,,,1,,,77,100
55392,note_on,,,,,32,0,8,,,,,1,,,72,100
55392,note_on,,,,,32,0,13,,,,,6,,,72,100
55396,note_off,,,,,100,0,10,,,,,3,,,69,100
55396,note_off,,,,,100,0,14,,,,,6,,,41,100
55396,note_off,,,,,100,0,9,,,,,2,,,77,100
55400,note_off,,,,,100,0,12,,,,,5,,,41,100
55400,note_off,,,,,100,0,11,,,,,4,,,41,100
55424,note_off,,,,,128,0,16,,,,,7,,,41,100
55456,note_off,,,,,64,0,13,,,,,6,,,72,100
55456,note_off,,,,,64,0,8,,,,,1,,,72,100
55488,note_on,,,,,32,0,8,,,,,1,,,69,100
55488,note_on,,,,,32,0,13,,,,,6,,,69,100
55488,note_on,,,,,92,0,9,,,,,2,,,77,100
55488,note_on,,,,,92,0,14,,,,,6,,,53,100
55488,note_on,,,,,92,0,10,,,,,3,,,65,100
55488,note_on,,,,,64,0,16,,,,,7,,,53,100
55492,note_on,,,,,92,0,12,,,,,5,,,41,100
55492,note_on,,,,,92,0,11,,,,,4,,,53,100
55552,note_off,,,,,64,0,8,,,,,1,,,69,100
55552,note_off,,,,,64,0,13,,,,,6,,,69,100
55584,note_on,,,,,32,0,8,,,,,1,,,72,100
55584,note_on,,,,,32,0,13,,,,,6,,,72,100
55588,note_off,,,,,100,0,14,,,,,6,,,53,100
55588,note_off,,,,,100,0,9,,,,,2,,,77,100
55588,note_off,,,,,100,0,10,,,,,3,,,65,100
55592,note_off,,,,,100,0,11,,,,,4,,,53,100
55592,note_off,,,,,100,0,12,,,,,5,,,41,100
55616,note_off,,,,,128,0,16,,,,,7,,,53,100
55648,note_off,,,,,64,0,8,,,,,1,,,72,100
55648,note_off,,,,,64,0,13,,,,,6,,,72,100
55680,note_on,,,,,32,0,8,,,,,1,,,77,100
55680,note_on,,,,,32,0,13,,,,,6,,,77,100
55680,note_on,,,,,64,0,16,,,,,7,,,53,100
55680,note_on,,,,,92,0,14,,,,,6,,,53,100
55680,note_on,,,,,92,0,9,,,,,2,,,77,100
55680,note_on,,,,,92,0,10,,,,,3,,,69,100
55684,note_on,,,,,92,0,11,,,,,4,,,53,100
55684,note_on,,,,,92,0,12,,,,,5,,,41,100
55744,note_off,,,,,64,0,8,,,,,1,,,77,100
55744,note_off,,,,,64,0,13,,,,,6,,,77,100
55776,note_on,,,,,32,0,13,,,,,6,,,72,100
55776,note_on,,,,,32,0,8,,,,,1,,,72,100
55780,note_off,,,,,100,0,14,,,,,6,,,53,100
55780,note_off,,,,,100,0,10,,,,,3,,,69,100
55780,note_off,,,,,100,0,9,,,,,2,,,77,100
55784,note_off,,,,,100,0,12,,,,,5,,,41,100
55784,note_off,,,,,100,0,11,,,,,4,,,53,100
55808,note_off,,,,,128,0,16,,,,,7,,,53,100
55840,note_off,,,,,64,0,8,,,,,1,,,72,100
55840,note_off,,,,,64,0,13,,,,,6,,,72,100
55872,note_on,,,,,32,0,8,,,,,1,,,69,100
55872,note_on,,,,,92,0,14,,,,,6,,,41,100
55872,note_on,,,,,32,0,13,,,,,6,,,69,100
55872,note_on,,,,,92,0,10,,,,,3,,,72,100
55872,note_on,,,,,64,0,16,,,,,7,,,41,100
55872,note_on,,,,,92,0,9,,,,,2,,,77,100
55876,note_on,,,,,92,0,11,,,,,4,,,41,100
55876,note_on,,,,,92,0,12,,,,,5,,,41,100
55936,note_off,,,,,64,0,13,,,,,6,,,69,100
55936,note_off,,,,,64,0,8,,,,,1,,,69,100
55968,note_on,,,,,32,0,8,,,,,1,,,72,100
55968,note_on,,,,,32,0,13,,,,,6,,,72,100
55972,note_off,,,,,100,0,10,,,,,3,,,72,100
55972,note_off,,,,,100,0,9,,,,,2,,,77,100
55972,note_off,,,,,100,0,14,,,,,6,,,41,100
55976,note_off,,,,,100,0,11,,,,,4,,,41,100
55976,note_off,,,,,100,0,12,,,,,5,,,41,100
55984,note_off,,,,,688,0,15,,,,,7,,,69,100
55984,note_off,,,,,0,0,15,,,,,7,,,72,100
55984,note_off,,,,,0,0,15,,,,,7,,,77,100
56000,note_off,,,,,128,0,16,,,,,7,,,41,100
56032,note_off,,,,,64,0,8,,,,,1,,,72,100
56032,note_off,,,,,64,0,13,,,,,6,,,72,100
56064,note_on,,,,,80,0,15,,,,,7,,,69,100
56064,note_on,,,,,64,0,16,,,,,7,,,41,100
56064,note_on,,,,,0,0,15,,,,,7,,,72,100
56064,note_on,,,,,0,0,15,,,,,7,,,77,100
56064,note_on,,,,,92,0,10,,,,,3,,,72,105
56064,note_on,,,,,32,0,8,,,,,1,,,77,105
56064,note_on,,,,,92,0,9,,,,,2,,,81,105
56064,note_on,,,,,92,0,14,,,,,6,,,41,100
56064,note_on,,,,,32,0,13,,,,,6,,,65,100
56068,note_on,,,,,92,0,12,,,,,5,,,41,105
56068,note_on,,,,,92,0,11,,,,,4,,,41,105
56164,note_off,,,,,100,0,14,,,,,6,,,41,100
56164,note_off,,,,,100,0,10,,,,,3,,,72,100
56168,note_off,,,,,100,0,12,,,,,5,,,41,100
56168,note_off,,,,,100,0,11,,,,,4,,,41,100
56192,note_off,,,,,128,0,16,,,,,7,,,41,100
56192,note_off,,,,,128,0,9,,,,,2,,,81,100
56192,note_off,,,,,128,0,8,,,,,1,,,77,100
56192,note_off,,,,,128,0,13,,,,,6,,,65,100
56256,note_on,,,,,0,0,13,,,,,6,,,69,100
56256,note_on,,,,,64,0,13,,,,,6,,,72,100
56256,note_on,,,,,92,0,14,,,,,6,,,53,100
56256,note_on,,,,,64,0,9,,,,,2,,,82,104
56256,note_on,,,,,64,0,16,,,,,7,,,53,100
56256,note_on,,,,,192,0,15,,,,,7,,,81,100
56256,note_on,,,,,92,0,10,,,,,3,,,72,104
56256,note_on,,,,,64,0,8,,,,,1,,,79,104
56260,note_on,,,,,92,0,11,,,,,4,,,53,104
56260,note_on,,,,,92,0,12,,,,,5,,,41,104
56320,note_off,,,,,64,0,8,,,,,1,,,79,100
56320,note_off,,,,,0,0,15,,,,,7,,,77,100
56320,note_off,,,,,64,0,15,,,,,7,,,69,100
56320,note_off,,,,,64,0,9,,,,,2,,,82,100
56320,note_off,,,,,0,0,15,,,,,7,,,72,100
56352,note_on,,,,,32,0,8,,,,,1,,,81,103
56352,note_on,,,,,32,0,9,,,,,2,,,84,103
56356,note_off,,,,,100,0,10,,,,,3,,,72,100
56356,note_off,,,,,100,0,14,,,,,6,,,53,100
56360,note_off,,,,,100,0,12,,,,,5,,,41,100
56360,note_off,,,,,100,0,11,,,,,4,,,53,100
56384,note_off,,,,,128,0,16,,,,,7,,,53,100
56384,note_off,,,,,64,0,15,,,,,7,,,81,100
56384,note_off,,,,,128,0,13,,,,,6,,,72,100
56384,note_off,,,,,0,0,13,,,,,6,,,69,100
56416,note_off,,,,,64,0,9,,,,,2,,,84,100
56416,note_off,,,,,64,0,8,,,,,1,,,81,100
56448,note_on,,,,,92,0,14,,,,,6,,,46,100
56448,note_on,,,,,32,0,9,,,,,2,,,82,102
56448,note_on,,,,,0,0,15,,,,,7,,,74,100
56448,note_on,,,,,0,0,15,,,,,7,,,79,100
56448,note_on,,,,,64,0,15,,,,,7,,,67,100
56448,note_on,,,,,0,0,13,,,,,6,,,74,100
56448,note_on,,,,,64,0,16,,,,,7,,,46,100
56448,note_on,,,,,92,0,10,,,,,3,,,62,102
56448,note_on,,,,,64,0,13,,,,,6,,,67,100
56448,note_on,,,,,32,0,8,,,,,1,,,79,102
56452,note_on,,,,,92,0,11,,,,,4,,,46,102
56452,note_on,,,,,92,0,12,,,,,5,,,34,102
56548,note_off,,,,,100,0,9,,,,,2,,,82,100
56548,note_off,,,,,100,0,10,,,,,3,,,62,100
56548,note_off,,,,,100,0,8,,,,,1,,,79,100
56576,note_off,,,,,128,0,13,,,,,6,,,67,100
56576,note_off,,,,,128,0,14,,,,,6,,,46,100
56576,note_off,,,,,128,0,16,,,,,7,,,46,100
56576,note_off,,,,,128,0,15,,,,,7,,,79,100
56580,note_off,,,,,128,0,11,,,,,4,,,46,100
56580,note_off,,,,,128,0,12,,,,,5,,,34,100
56640,note_on,,,,,92,0,9,,,,,2,,,81,101
56640,note_on,,,,,64,0,16,,,,,7,,,47,100
56640,note_on,,,,,64,0,14,,,,,6,,,47,100
56640,note_on,,,,,64,0,15,,,,,7,,,69,100
56640,note_on,,,,,0,0,15,,,,,7,,,77,100
56640,note_on,,,,,92,0,10,,,,,3,,,62,101
56640,note_on,,,,,64,0,13,,,,,6,,,65,100
56640,note_on,,,,,92,0,8,,,,,1,,,77,101
56644,note_on,,,,,64,0,11,,,,,4,,,47,101
56644,note_on,,,,,64,0,12,,,,,5,,,35,101
56704,note_off,,,,,64,0,13,,,,,6,,,74,100
56704,note_off,,,,,0,0,15,,,,,7,,,74,100
56704,note_off,,,,,64,0,15,,,,,7,,,67,100
56740,note_off,,,,,100,0,9,,,,,2,,,81,100
56740,note_off,,,,,100,0,8,,,,,1,,,77,100
56740,note_off,,,,,100,0,10,,,,,3,,,62,100
56768,note_off,,,,,128,0,16,,,,,7,,,47,100
56768,note_off,,,,,0,0,15,,,,,7,,,77,100
56768,note_off,,,,,64,0,15,,,,,7,,,69,100
56768,note_off,,,,,64,0,13,,,,,6,,,65,100
56768,note_off,,,,,128,0,14,,,,,6,,,47,100
56772,note_off,,,,,128,0,11,,,,,4,,,47,100
56772,note_off,,,,,128,0,12,,,,,5,,,35,100
56832,program_change,,,,,60,0,12,,,,,5,48,,,
56832,note_on,,,,,0,0,13,,,,,6,,,72,100
56832,note_on,,,,,92,0,9,,,,,2,,,79,100
56832,note_on,,,,,64,0,13,,,,,6,,,64,100
56832,program_change,,,,,60,0,11,,,,,4,48,,,
56832,note_on,,,,,64,0,15,,,,,7,,,72,100
56832,note_on,,,,,0,0,15,,,,,7,,,76,100
56832,note_on,,,,,0,0,15,,,,,7,,,79,100
56832,note_on,,,,,92,0,10,,,,,3,,,64,100
56832,note_on,,,,,92,0,8,,,,,1,,,76,100
56836,note_on,,,,,68,0,16,,,,,7,,,48,100
56836,note_on,,,,,4,0,12,,,,,5,,,36,100
56836,note_on,,,,,68,0,14,,,,,6,,,48,100
56836,note_on,,,,,4,0,11,,,,,4,,,48,100
56896,note_off,,,,,0,0,13,,,,,6,,,72,100
56896,note_off,,,,,64,0,13,,,,,6,,,64,100
56896,note_off,,,,,64,0,8,,,,,1,,,76,100
56928,note_on,,,,,32,0,8,,,,,1,,,72,100
56928,note_on,,,,,32,0,13,,,,,6,,,79,100
56932,note_off,,,,,100,0,9,,,,,2,,,79,100
56932,note_off,,,,,100,0,10,,,,,3,,,64,100
56936,note_off,,,,,100,0,16,,,,,7,,,48,100
56936,note_off,,,,,100,0,11,,,,,4,,,48,100
56936,note_off,,,,,100,0,12,,,,,5,,,36,100
56936,note_off,,,,,100,0,14,,,,,6,,,48,100
56992,note_off,,,,,64,0,8,,,,,1,,,72,100
56992,note_off,,,,,64,0,13,,,,,6,,,79,100
57024,note_on,,,,,32,0,8,,,,,1,,,76,100
57024,note_on,,,,,92,0,9,,,,,2,,,82,100
57024,note_on,,,,,32,0,13,,,,,6,,,76,100
57024,note_on,,,,,92,0,10,,,,,3,,,67,100
57028,note_on,,,,,92,0,16,,,,,7,,,60,100
57028,note_on,,,,,92,0,11,,,,,4,,,60,100
57028,note_on,,,,,92,0,14,,,,,6,,,60,100
57028,note_on,,,,,92,0,12,,,,,5,,,48,100
57088,note_off,,,,,64,0,8,,,,,1,,,76,100
57088,note_off,,,,,64,0,13,,,,,6,,,76,100
57120,note_on,,,,,32,0,8,,,,,1,,,79,100
57120,note_on,,,,,32,0,13,,,,,6,,,79,100
57124,note_off,,,,,100,0,10,,,,,3,,,67,100
57124,note_off,,,,,100,0,9,,,,,2,,,82,100
57128,note_off,,,,,100,0,12,,,,,5,,,48,100
57128,note_off,,,,,100,0,16,,,,,7,,,60,100
57128,note_off,,,,,100,0,14,,,,,6,,,60,100
57128,note_off,,,,,100,0,11,,,,,4,,,60,100
57184,note_off,,,,,64,0,13,,,,,6,,,79,100
57184,note_off,,,,,64,0,8,,,,,1,,,79,100
57216,note_on,,,,,32,0,8,,,,,1,,,76,100
57216,note_on,,,,,32,0,13,,,,,6,,,84,100
57216,note_on,,,,,92,0,10,,,,,3,,,67,100
57216,note_on,,,,,92,0,9,,,,,2,,,82,100
57220,note_on,,,,,92,0,16,,,,,7,,,60,100
57220,note_on,,,,,92,0,14,,,,,6,,,60,100
57220,note_on,,,,,92,0,12,,,,,5,,,48,100
57220,note_on,,,,,92,0,11,,,,,4,,,60,100
57280,note_off,,,,,64,0,8,,,,,1,,,76,100
57280,note_off,,,,,64,0,13,,,,,6,,,84,100
57312,note_on,,,,,32,0,8,,,,,1,,,72,100
57312,note_on,,,,,32,0,13,,,,,6,,,79,100
57316,note_off,,,,,100,0,9,,,,,2,,,82,100
57316,note_off,,,,,100,0,10,,,,,3,,,67,100
57320,note_off,,,,,100,0,12,,,,,5,,,48,100
57320,note_off,,,,,100,0,11,,,,,4,,,60,100
57320,note_off,,,,,100,0,14,,,,,6,,,60,100
57320,note_off,,,,,100,0,16,,,,,7,,,60,100
57376,note_off,,,,,64,0,13,,,,,6,,,79,100
57376,note_off,,,,,64,0,8,,,,,1,,,72,100
57408,note_on,,,,,92,0,9,,,,,2,,,82,100
57408,note_on,,,,,92,0,10,,,,,3,,,72,100
57408,note_on,,,,,32,0,13,,,,,6,,,76,100
57408,note_on,,,,,32,0,8,,,,,1,,,76,100
57412,note_on,,,,,92,0,16,,,,,7,,,48,100
57412,note_on,,,,,92,0,14,,,,,6,,,48,100
57412,note_on,,,,,92,0,11,,,,,4,,,48,100
57412,note_on,,,,,92,0,12,,,,,5,,,36,100
57472,note_off,,,,,64,0,8,,,,,1,,,76,100
57472,note_off,,,,,64,0,13,,,,,6,,,76,100
57504,note_on,,,,,32,0,13,,,,,6,,,79,100
57504,note_on,,,,,32,0,8,,,,,1,,,79,100
57508,note_off,,,,,100,0,9,,,,,2,,,82,100
57508,note_off,,,,,100,0,10,,,,,3,,,72,100
57512,note_off,,,,,100,0,11,,,,,4,,,48,100
57512,note_off,,,,,100,0,14,,,,,6,,,48,100
57512,note_off,,,,,100,0,12,,,,,5,,,36,100
57512,note_off,,,,,100,0,16,,,,,7,,,48,100
57520,note_off,,,,,0,0,15,,,,,7,,,79,100
57520,note_off,,,,,0,0,15,,,,,7,,,76,100
57520,note_off,,,,,688,0,15,,,,,7,,,72,100
57568,note_off,,,,,64,0,13,,,,,6,,,79,100
57568,note_off,,,,,64,0,8,,,,,1,,,79,100
57600,note_on,,,,,32,0,8,,,,,1,,,82,100
57600,note_on,,,,,32,0,13,,,,,6,,,72,100
57600,note_on,,,,,92,0,9,,,,,2,,,76,100
57600,note_on,,,,,92,0,10,,,,,3,,,67,100
57600,note_on,,,,,0,0,15,,,,,7,,,79,100
57600,note_on,,,,,0,0,15,,,,,7,,,76,100
57600,note_on,,,,,80,0,15,,,,,7,,,70,100
57604,note_on,,,,,92,0,11,,,,,4,,,48,100
57604,note_on,,,,,92,0,16,,,,,7,,,48,100
57604,note_on,,,,,92,0,14,,,,,6,,,48,100
57604,note_on,,,,,92,0,12,,,,,5,,,36,100
57664,note_off,,,,,64,0,13,,,,,6,,,72,100
57664,note_off,,,,,64,0,9,,,,,2,,,76,100
57696,note_on,,,,,32,0,9,,,,,2,,,72,99
57696,note_on,,,,,32,0,13,,,,,6,,,79,100
57700,note_off,,,,,100,0,10,,,,,3,,,67,100
57700,note_off,,,,,100,0,8,,,,,1,,,82,100
57704,note_off,,,,,100,0,11,,,,,4,,,48,100
57704,note_off,,,,,100,0,12,,,,,5,,,36,100
57704,note_off,,,,,100,0,14,,,,,6,,,48,100
57704,note_off,,,,,100,0,16,,,,,7,,,48,100
57760,note_off,,,,,64,0,9,,,,,2,,,72,100
57760,note_off,,,,,64,0,13,,,,,6,,,79,100
57792,note_on,,,,,92,0,10,,,,,3,,,64,98
57792,note_on,,,,,32,0,13,,,,,6,,,76,100
57792,note_on,,,,,92,0,8,,,,,1,,,82,98
57792,note_on,,,,,32,0,9,,,,,2,,,76,98
57796,note_on,,,,,92,0,16,,,,,7,,,60,100
57796,note_on,,,,,92,0,11,,,,,4,,,60,98
57796,note_on,,,,,92,0,14,,,,,6,,,60,100
57796,note_on,,,,,92,0,12,,,,,5,,,48,98
57856,note_off,,,,,64,0,13,,,,,6,,,76,100
57856,note_off,,,,,64,0,9,,,,,2,,,76,100
57888,note_on,,,,,32,0,9,,,,,2,,,79,97
57888,note_on,,,,,32,0,13,,,,,6,,,79,100
57892,note_off,,,,,100,0,10,,,,,3,,,64,100
57892,note_off,,,,,100,0,8,,,,,1,,,82,100
57896,note_off,,,,,100,0,16,,,,,7,,,60,100
57896,note_off,,,,,100,0,12,,,,,5,,,48,100
57896,note_off,,,,,100,0,11,,,,,4,,,60,100
57896,note_off,,,,,100,0,14,,,,,6,,,60,100
57952,note_off,,,,,64,0,9,,,,,2,,,79,100
57952,note_off,,,,,64,0,13,,,,,6,,,79,100
57984,note_on,,,,,92,0,8,,,,,1,,,82,95
57984,note_on,,,,,32,0,13,,,,,6,,,82,100
57984,note_on,,,,,92,0,10,,,,,3,,,67,95
57984,note_on,,,,,32,0,9,,,,,2,,,76,95
57988,note_on,,,,,92,0,11,,,,,4,,,60,95
57988,note_on,,,,,92,0,16,,,,,7,,,60,100
57988,note_on,,,,,92,0,12,,,,,5,,,48,95
57988,note_on,,,,,92,0,14,,,,,6,,,60,100
58048,note_off,,,,,64,0,13,,,,,6,,,82,100
58048,note_off,,,,,64,0,9,,,,,2,,,76,100
58080,note_on,,,,,32,0,13,,,,,6,,,79,100
58080,note_on,,,,,32,0,9,,,,,2,,,72,94
58084,note_off,,,,,100,0,8,,,,,1,,,82,100
58084,note_off,,,,,100,0,10,,,,,3,,,67,100
58088,note_off,,,,,100,0,12,,,,,5,,,48,100
58088,note_off,,,,,100,0,16,,,,,7,,,60,100
58088,note_off,,,,,100,0,11,,,,,4,,,60,100
58088,note_off,,,,,100,0,14,,,,,6,,,60,100
58144,note_off,,,,,64,0,9,,,,,2,,,72,100
58144,note_off,,,,,64,0,13,,,,,6,,,79,100
58176,note_on,,,,,32,0,9,,,,,2,,,76,93
58176,note_on,,,,,92,0,10,,,,,3,,,72,93
58176,note_on,,,,,92,0,8,,,,,1,,,82,93
58176,note_on,,,,,32,0,13,,,,,6,,,76,100
58180,note_on,,,,,92,0,14,,,,,6,,,48,100
58180,note_on,,,,,92,0,12,,,,,5,,,36,92
58180,note_on,,,,,92,0,16,,,,,7,,,48,100
58180,note_on,,,,,92,0,11,,,,,4,,,48,92
58240,note_off,,,,,64,0,13,,,,,6,,,76,100
58240,note_off,,,,,64,0,9,,,,,2,,,76,100
58272,note_on,,,,,32,0,9,,,,,2,,,79,87
58272,note_on,,,,,32,0,13,,,,,6,,,79,100
58276,note_off,,,,,100,0,10,,,,,3,,,72,100
58276,note_off,,,,,100,0,8,,,,,1,,,82,100
58280,note_off,,,,,100,0,12,,,,,5,,,36,100
58280,note_off,,,,,100,0,16,,,,,7,,,48,100
58280,note_off,,,,,100,0,14,,,,,6,,,48,100
58280,note_off,,,,,100,0,11,,,,,4,,,48,100
58288,note_off,,,,,688,0,15,,,,,7,,,70,100
58288,note_off,,,,,0,0,15,,,,,7,,,76,100
58288,note_off,,,,,0,0,15,,,,,7,,,79,100
58336,note_off,,,,,64,0,9,,,,,2,,,79,100
58336,note_off,,,,,64,0,13,,,,,6,,,79,100
58368,note_on,,,,,92,0,10,,,,,3,,,67,85
58368,note_on,,,,,32,0,13,,,,,6,,,72,100
58368,note_on,,,,,32,0,9,,,,,2,,,82,85
58368,note_on,,,,,92,0,8,,,,,1,,,76,85
58368,note_on,,,,,0,0,15,,,,,7,,,76,100
58368,note_on,,,,,0,0,15,,,,,7,,,79,100
58368,note_on,,,,,80,0,15,,,,,7,,,70,100
58372,note_on,,,,,92,0,11,,,,,4,,,48,85
58372,note_on,,,,,92,0,14,,,,,6,,,48,100
58372,note_on,,,,,92,0,16,,,,,7,,,48,100
58372,note_on,,,,,92,0,12,,,,,5,,,36,85
58432,note_off,,,,,64,0,8,,,,,1,,,76,100
58432,note_off,,,,,64,0,13,,,,,6,,,72,100
58464,note_on,,,,,32,0,13,,,,,6,,,79,100
58464,note_on,,,,,32,0,8,,,,,1,,,72,85
58468,note_off,,,,,100,0,9,,,,,2,,,82,100
58468,note_off,,,,,100,0,10,,,,,3,,,67,100
58472,note_off,,,,,100,0,16,,,,,7,,,48,100
58472,note_off,,,,,100,0,14,,,,,6,,,48,100
58472,note_off,,,,,100,0,12,,,,,5,,,36,100
58472,note_off,,,,,100,0,11,,,,,4,,,48,100
58528,note_off,,,,,64,0,13,,,,,6,,,79,100
58528,note_off,,,,,64,0,8,,,,,1,,,72,100
58560,note_on,,,,,32,0,8,,,,,1,,,76,85
58560,note_on,,,,,92,0,9,,,,,2,,,82,85
58560,note_on,,,,,32,0,13,,,,,6,,,76,100
58560,note_on,,,,,92,0,10,,,,,3,,,64,85
58564,note_on,,,,,92,0,11,,,,,4,,,60,85
58564,note_on,,,,,92,0,14,,,,,6,,,60,100
58564,note_on,,,,,92,0,12,,,,,5,,,48,85
58564,note_on,,,,,92,0,16,,,,,7,,,60,100
58624,note_off,,,,,64,0,8,,,,,1,,,76,100
58624,note_off,,,,,64,0,13,,,,,6,,,76,100
58656,note_on,,,,,32,0,8,,,,,1,,,79,85
58656,note_on,,,,,32,0,13,,,,,6,,,79,100
58660,note_off,,,,,100,0,10,,,,,3,,,64,100
58660,note_off,,,,,100,0,9,,,,,2,,,82,100
58664,note_off,,,,,100,0,12,,,,,5,,,48,100
58664,note_off,,,,,100,0,16,,,,,7,,,60,100
58664,note_off,,,,,100,0,11,,,,,4,,,60,100
58664,note_off,,,,,100,0,14,,,,,6,,,60,100
58720,note_off,,,,,64,0,8,,,,,1,,,79,100
58720,note_off,,,,,64,0,13,,,,,6,,,79,100
58752,note_on,,,,,92,0,9,,,,,2,,,82,85
58752,note_on,,,,,32,0,13,,,,,6,,,82,100
58752,note_on,,,,,32,0,8,,,,,1,,,76,85
58752,note_on,,,,,92,0,10,,,,,3,,,67,85
58756,note_on,,,,,92,0,12,,,,,5,,,48,85
58756,note_on,,,,,92,0,11,,,,,4,,,60,85
58756,note_on,,,,,92,0,16,,,,,7,,,60,100
58756,note_on,,,,,92,0,14,,,,,6,,,60,100
58816,note_off,,,,,64,0,8,,,,,1,,,76,100
58816,note_off,,,,,64,0,13,,,,,6,,,82,100
58848,note_on,,,,,32,0,8,,,,,1,,,72,85
58848,note_on,,,,,32,0,13,,,,,6,,,79,100
58852,note_off,,,,,100,0,9,,,,,2,,,82,100
58852,note_off,,,,,100,0,10,,,,,3,,,67,100
58856,note_off,,,,,100,0,11,,,,,4,,,60,100
58856,note_off,,,,,100,0,12,,,,,5,,,48,100
58856,note_off,,,,,100,0,16,,,,,7,,,60,100
58856,note_off,,,,,100,0,14,,,,,6,,,60,100
58912,note_off,,,,,64,0,8,,,,,1,,,72,100
58912,note_off,,,,,64,0,13,,,,,6,,,79,100
58944,note_on,,,,,92,0,10,,,,,3,,,72,85
58944,note_on,,,,,32,0,8,,,,,1,,,76,85
58944,note_on,,,,,92,0,9,,,,,2,,,82,85
58944,note_on,,,,,32,0,13,,,,,6,,,76,100
58948,note_on,,,,,92,0,16,,,,,7,,,48,100
58948,note_on,,,,,92,0,11,,,,,4,,,48,85
58948,note_on,,,,,92,0,14,,,,,6,,,48,100
58948,note_on,,,,,92,0,12,,,,,5,,,36,85
59008,note_off,,,,,64,0,8,,,,,1,,,76,100
59008,note_off,,,,,64,0,13,,,,,6,,,76,100
59040,note_on,,,,,32,0,8,,,,,1,,,79,85
59040,note_on,,,,,32,0,13,,,,,6,,,79,100
59044,note_off,,,,,100,0,10,,,,,3,,,72,100
59044,note_off,,,,,100,0,9,,,,,2,,,82,100
59048,note_off,,,,,100,0,12,,,,,5,,,36,100
59048,note_off,,,,,100,0,14,,,,,6,,,48,100
59048,note_off,,,,,100,0,11,,,,,4,,,48,100
59048,note_off,,,,,100,0,16,,,,,7,,,48,100
59056,note_off,,,,,0,0,15,,,,,7,,,79,100
59056,note_off,,,,,688,0,15,,,,,7,,,70,100
59056,note_off,,,,,0,0,15,,,,,7,,,76,100
59104,note_off,,,,,64,0,13,,,,,6,,,79,100
59104,note_off,,,,,64,0,8,,,,,1,,,79,100
59136,note_on,,,,,92,0,10,,,,,3,,,67,85
59136,note_on,,,,,32,0,13,,,,,6,,,72,100
59136,note_on,,,,,32,0,8,,,,,1,,,82,85
59136,note_on,,,,,80,0,15,,,,,7,,,70,100
59136,note_on,,,,,0,0,15,,,,,7,,,76,100
59136,note_on,,,,,0,0,15,,,,,7,,,79,100
59136,note_on,,,,,92,0,9,,,,,2,,,76,85
59140,note_on,,,,,92,0,11,,,,,4,,,48,85
59140,note_on,,,,,92,0,16,,,,,7,,,48,100
59140,note_on,,,,,92,0,12,,,,,5,,,36,85
59140,note_on,,,,,92,0,14,,,,,6,,,48,100
59200,note_off,,,,,64,0,9,,,,,2,,,76,100
59200,note_off,,,,,64,0,13,,,,,6,,,72,100
59232,note_on,,,,,32,0,9,,,,,2,,,72,86
59232,note_on,,,,,32,0,13,,,,,6,,,79,100
59236,note_off,,,,,100,0,10,,,,,3,,,67,100
59236,note_off,,,,,100,0,8,,,,,1,,,82,100
59240,note_off,,,,,100,0,14,,,,,6,,,48,100
59240,note_off,,,,,100,0,11,,,,,4,,,48,100
59240,note_off,,,,,100,0,12,,,,,5,,,36,100
59240,note_off,,,,,100,0,16,,,,,7,,,48,100
59296,note_off,,,,,64,0,9,,,,,2,,,72,100
59296,note_off,,,,,64,0,13,,,,,6,,,79,100
59328,note_on,,,,,92,0,10,,,,,3,,,72,87
59328,note_on,,,,,32,0,13,,,,,6,,,76,100
59328,note_on,,,,,92,0,8,,,,,1,,,82,87
59328,note_on,,,,,32,0,9,,,,,2,,,76,87
59332,note_on,,,,,92,0,12,,,,,5,,,48,87
59332,note_on,,,,,92,0,14,,,,,6,,,60,100
59332,note_on,,,,,92,0,16,,,,,7,,,60,100
59332,note_on,,,,,92,0,11,,,,,4,,,60,87
59392,note_off,,,,,64,0,9,,,,,2,,,76,100
59392,note_off,,,,,64,0,13,,,,,6,,,76,100
59424,note_on,,,,,32,0,13,,,,,6,,,79,100
59424,note_on,,,,,32,0,9,,,,,2,,,79,88
59428,note_off,,,,,100,0,10,,,,,3,,,72,100
59428,note_off,,,,,100,0,8,,,,,1,,,82,100
59432,note_off,,,,,100,0,12,,,,,5,,,48,100
59432,note_off,,,,,100,0,11,,,,,4,,,60,100
59432,note_off,,,,,100,0,14,,,,,6,,,60,100
59432,note_off,,,,,100,0,16,,,,,7,,,60,100
59488,note_off,,,,,64,0,9,,,,,2,,,79,100
59488,note_off,,,,,64,0,13,,,,,6,,,79,100
59520,note_on,,,,,92,0,8,,,,,1,,,82,89
59520,note_on,,,,,32,0,9,,,,,2,,,76,89
59520,note_on,,,,,32,0,13,,,,,6,,,82,100
59520,note_on,,,,,92,0,10,,,,,3,,,67,89
59524,note_on,,,,,92,0,16,,,,,7,,,60,100
59524,note_on,,,,,92,0,12,,,,,5,,,48,90
59524,note_on,,,,,92,0,14,,,,,6,,,60,100
59524,note_on,,,,,92,0,11,,,,,4,,,60,90
59584,note_off,,,,,64,0,9,,,,,2,,,76,100
59584,note_off,,,,,64,0,13,,,,,6,,,82,100
59616,note_on,,,,,32,0,9,,,,,2,,,72,91
59616,note_on,,,,,32,0,13,,,,,6,,,79,100
59620,note_off,,,,,100,0,8,,,,,1,,,82,100
59620,note_off,,,,,100,0,10,,,,,3,,,67,100
59624,note_off,,,,,100,0,14,,,,,6,,,60,100
59624,note_off,,,,,100,0,11,,,,,4,,,60,100
59624,note_off,,,,,100,0,12,,,,,5,,,48,100
59624,note_off,,,,,100,0,16,,,,,7,,,60,100
59680,note_off,,,,,64,0,13,,,,,6,,,79,100
59680,note_off,,,,,64,0,9,,,,,2,,,72,100
59712,note_on,,,,,32,0,9,,,,,2,,,76,92
59712,note_on,,,,,92,0,10,,,,,3,,,64,92
59712,note_on,,,,,32,0,13,,,,,6,,,76,100
59712,note_on,,,,,92,0,8,,,,,1,,,82,92
59716,note_on,,,,,92,0,11,,,,,4,,,48,92
59716,note_on,,,,,92,0,12,,,,,5,,,36,92
59716,note_on,,,,,92,0,14,,,,,6,,,48,100
59716,note_on,,,,,92,0,16,,,,,7,,,48,100
59776,note_off,,,,,64,0,9,,,,,2,,,76,100
59776,note_off,,,,,64,0,13,,,,,6,,,76,100
59808,note_on,,,,,32,0,9,,,,,2,,,79,93
59808,note_on,,,,,32,0,13,,,,,6,,,79,100
59812,note_off,,,,,100,0,10,,,,,3,,,64,100
59812,note_off,,,,,100,0,8,,,,,1,,,82,100
59816,note_off,,,,,100,0,16,,,,,7,,,48,100
59816,note_off,,,,,100,0,12,,,,,5,,,36,100
59816,note_off,,,,,100,0,14,,,,,6,,,48,100
59816,note_off,,,,,100,0,11,,,,,4,,,48,100
59824,note_off,,,,,0,0,15,,,,,7,,,76,100
59824,note_off,,,,,0,0,15,,,,,7,,,79,100
59824,note_off,,,,,688,0,15,,,,,7,,,70,100
59872,note_off,,,,,64,0,9,,,,,2,,,79,100
59872,note_off,,,,,64,0,13,,,,,6,,,79,100
59904,note_on,,,,,88,0,16,,,,,7,,,41,100
59904,note_on,,,,,32,0,13,,,,,6,,,72,100
59904,note_on,,,,,32,0,9,,,,,2,,,77,95
59904,note_on,,,,,92,0,8,,,,,1,,,81,95
59904,note_on,,,,,0,0,15,,,,,7,,,77,100
59904,note_on,,,,,80,0,15,,,,,7,,,69,100
59904,note_on,,,,,88,0,12,,,,,5,,,41,95
59904,note_on,,,,,88,0,14,,,,,6,,,41,100
59904,note_on,,,,,92,0,10,,,,,3,,,60,95
59904,note_on,,,,,0,0,15,,,,,7,,,72,100
59904,note_on,,,,,88,0,11,,,,,4,,,41,95
59932,note_on,,,,,28,0,13,,,,,6,,,77,100
59964,note_on,,,,,32,0,13,,,,,6,,,81,100
59968,note_off,,,,,64,0,9,,,,,2,,,77,100
60000,note_on,,,,,32,0,9,,,,,2,,,72,94
60004,note_off,,,,,100,0,10,,,,,3,,,60,100
60004,note_off,,,,,100,0,8,,,,,1,,,81,100
60064,note_off,,,,,64,0,9,,,,,2,,,72,100
60096,note_on,,,,,32,0,9,,,,,2,,,69,93
60096,note_on,,,,,92,0,10,,,,,3,,,65,70
60096,note_on,,,,,92,0,8,,,,,1,,,77,93
60160,note_off,,,,,256,0,16,,,,,7,,,41,100
60160,note_off,,,,,64,0,9,,,,,2,,,69,100
60160,note_off,,,,,196,0,13,,,,,6,,,72,100
60160,note_off,,,,,0,0,15,,,,,7,,,77,100
60160,note_off,,,,,0,0,15,,,,,7,,,72,100
60160,note_off,,,,,256,0,15,,,,,7,,,69,100
60160,note_off,,,,,256,0,11,,,,,4,,,41,100
60160,note_off,,,,,256,0,14,,,,,6,,,41,100
60160,note_off,,,,,256,0,12,,,,,5,,,41,100
60188,note_off,,,,,28,0,13,,,,,6,,,77,100
60192,note_on,,,,,32,0,9,,,,,2,,,72,92
60196,note_off,,,,,100,0,8,,,,,1,,,77,100
60196,note_off,,,,,100,0,10,,,,,3,,,65,100
60220,note_off,,,,,32,0,13,,,,,6,,,81,100
60256,note_off,,,,,64,0,9,,,,,2,,,72,100
60288,note_on,,,,,32,0,9,,,,,2,,,65,91
60288,note_on,,,,,92,0,10,,,,,3,,,63,70
60388,note_off,,,,,100,0,10,,,,,3,,,63,100
60480,note_on,,,,,7360,0,7,,,,,0,,,65,85
60480,note_on,,,,,92,0,10,,,,,3,,,63,71
60544,note_off,,,,,256,0,9,,,,,2,,,65,100
60580,note_off,,,,,100,0,7,,,,,0,,,65,100
60580,note_off,,,,,100,0,10,,,,,3,,,63,100
60672,program_change,,,,,128,0,9,,,,,2,40,,,
60672,note_on,,,,,92,0,10,,,,,3,,,62,71
60672,note_on,,,,,92,0,7,,,,,0,,,70,85
60764,note_off,,,,,92,0,7,,,,,0,,,70,100
60768,note_on,,,,,4,0,7,,,,,0,,,65,85
60800,note_off,,,,,128,0,10,,,,,3,,,62,100
60860,note_off,,,,,92,0,7,,,,,0,,,65,100
60864,note_on,,,,,4,0,7,,,,,0,,,63,85
60864,note_on,,,,,192,0,9,,,,,2,,,70,80
60864,note_on,,,,,64,0,10,,,,,3,,,62,72
60956,note_off,,,,,92,0,7,,,,,0,,,63,100
60960,note_on,,,,,4,0,7,,,,,0,,,65,85
60964,note_off,,,,,100,0,9,,,,,2,,,70,100
60992,note_off,,,,,128,0,10,,,,,3,,,62,100
61024,note_off,,,,,64,0,7,,,,,0,,,65,100
61056,note_on,,,,,92,0,9,,,,,2,,,77,80
61056,note_on,,,,,64,0,10,,,,,3,,,62,73
61056,note_on,,,,,32,0,7,,,,,0,,,70,85
61148,note_off,,,,,92,0,7,,,,,0,,,70,100
61152,note_on,,,,,4,0,7,,,,,0,,,65,85
61184,note_off,,,,,128,0,10,,,,,3,,,62,100
61244,note_off,,,,,92,0,7,,,,,0,,,65,100
61248,note_on,,,,,64,0,10,,,,,3,,,62,73
61248,note_on,,,,,4,0,7,,,,,0,,,63,85
61340,note_off,,,,,92,0,7,,,,,0,,,63,100
61344,note_on,,,,,4,0,7,,,,,0,,,65,85
61376,note_off,,,,,128,0,10,,,,,3,,,62,100
61408,note_off,,,,,64,0,7,,,,,0,,,65,100
61440,note_on,,,,,32,0,7,,,,,0,,,70,85
61440,note_on,,,,,64,0,10,,,,,3,,,62,74
61504,note_off,,,,,64,0,7,,,,,0,,,70,100
61536,note_on,,,,,32,0,7,,,,,0,,,72,85
61568,note_off,,,,,128,0,10,,,,,3,,,62,100
61568,note_off,,,,,512,0,9,,,,,2,,,77,100
61600,note_off,,,,,64,0,7,,,,,0,,,72,100
61632,note_on,,,,,64,0,9,,,,,2,,,65,80
61632,note_on,,,,,64,0,10,,,,,3,,,62,75
61632,note_on,,,,,32,0,7,,,,,0,,,74,85
61696,note_off,,,,,64,0,7,,,,,0,,,74,100
61728,note_on,,,,,32,0,7,,,,,0,,,75,85
61760,note_off,,,,,128,0,9,,,,,2,,,65,100
61760,note_off,,,,,128,0,10,,,,,3,,,62,100
61792,note_off,,,,,64,0,7,,,,,0,,,75,100
61824,note_on,,,,,64,0,9,,,,,2,,,70,81
61824,note_on,,,,,32,0,7,,,,,0,,,77,86
61824,note_on,,,,,64,0,10,,,,,3,,,62,75
61888,note_off,,,,,64,0,9,,,,,2,,,70,100
61920,note_on,,,,,32,0,9,,,,,2,,,72,82
61924,note_off,,,,,100,0,7,,,,,0,,,77,100
61952,note_off,,,,,128,0,10,,,,,3,,,62,100
61984,note_off,,,,,64,0,9,,,,,2,,,72,100
62016,note_on,,,,,92,0,7,,,,,0,,,68,86
62016,note_on,,,,,64,0,10,,,,,3,,,62,76
62016,note_on,,,,,32,0,9,,,,,2,,,74,82
62080,note_off,,,,,64,0,9,,,,,2,,,74,100
62112,note_on,,,,,32,0,9,,,,,2,,,72,82
62116,note_off,,,,,100,0,7,,,,,0,,,68,100
62144,note_off,,,,,128,0,10,,,,,3,,,62,100
62176,note_off,,,,,64,0,9,,,,,2,,,72,100
62208,note_on,,,,,64,0,10,,,,,3,,,63,77
62208,note_on,,,,,32,0,9,,,,,2,,,70,83
62208,note_on,,,,,92,0,7,,,,,0,,,67,87
62300,note_off,,,,,92,0,7,,,,,0,,,67,100
62304,note_on,,,,,4,0,7,,,,,0,,,63,87
62336,note_off,,,,,128,0,9,,,,,2,,,70,100
62336,note_off,,,,,128,0,10,,,,,3,,,63,100
62396,note_off,,,,,92,0,7,,,,,0,,,63,100
62400,note_on,,,,,64,0,10,,,,,3,,,63,77
62400,note_on,,,,,64,0,9,,,,,2,,,67,84
62400,note_on,,,,,4,0,7,,,,,0,,,62,88
62492,note_off,,,,,92,0,7,,,,,0,,,62,100
62496,note_on,,,,,4,0,7,,,,,0,,,63,88
62500,note_off,,,,,100,0,9,,,,,2,,,67,100
62528,note_off,,,,,128,0,10,,,,,3,,,63,100
62560,note_off,,,,,64,0,7,,,,,0,,,63,100
62592,note_on,,,,,92,0,9,,,,,2,,,79,84
62592,note_on,,,,,64,0,10,,,,,3,,,63,78
62592,note_on,,,,,32,0,7,,,,,0,,,67,88
62684,note_off,,,,,92,0,7,,,,,0,,,67,100
62688,note_on,,,,,4,0,7,,,,,0,,,63,89
62720,note_off,,,,,128,0,10,,,,,3,,,63,100
62780,note_off,,,,,92,0,7,,,,,0,,,63,100
62784,note_on,,,,,4,0,7,,,,,0,,,62,89
62784,note_on,,,,,64,0,10,,,,,3,,,63,79
62876,note_off,,,,,92,0,7,,,,,0,,,62,100
62880,note_on,,,,,4,0,7,,,,,0,,,63,89
62912,note_off,,,,,128,0,10,,,,,3,,,63,100
62944,note_off,,,,,64,0,7,,,,,0,,,63,100
62976,note_on,,,,,64,0,10,,,,,3,,,64,79
62976,note_on,,,,,32,0,7,,,,,0,,,72,89
63040,note_off,,,,,64,0,7,,,,,0,,,72,100
63072,note_on,,,,,32,0,7,,,,,0,,,74,90
63104,note_off,,,,,128,0,10,,,,,3,,,64,100
63104,note_off,,,,,512,0,9,,,,,2,,,79,100
63136,note_off,,,,,64,0,7,,,,,0,,,74,100
63168,note_on,,,,,32,0,7,,,,,0,,,76,90
63168,note_on,,,,,64,0,10,,,,,3,,,64,80
63168,note_on,,,,,64,0,9,,,,,2,,,67,87
63232,note_off,,,,,64,0,7,,,,,0,,,76,100
63264,note_on,,,,,32,0,7,,,,,0,,,77,90
63296,note_off,,,,,128,0,9,,,,,2,,,67,100
63296,note_off,,,,,128,0,10,,,,,3,,,64,100
63328,note_off,,,,,64,0,7,,,,,0,,,77,100
63360,note_on,,,,,64,0,9,,,,,2,,,72,88
63360,note_on,,,,,32,0,7,,,,,0,,,79,91
63360,note_on,,,,,64,0,10,,,,,3,,,64,80
63424,note_off,,,,,64,0,9,,,,,2,,,72,100
63456,note_on,,,,,32,0,9,,,,,2,,,74,88
63460,note_off,,,,,100,0,7,,,,,0,,,79,100
63488,note_off,,,,,128,0,10,,,,,3,,,64,100
63520,note_off,,,,,64,0,9,,,,,2,,,74,100
63552,note_on,,,,,64,0,10,,,,,3,,,64,81
63552,note_on,,,,,32,0,9,,,,,2,,,76,89
63552,note_on,,,,,92,0,7,,,,,0,,,70,91
63616,note_off,,,,,64,0,9,,,,,2,,,76,100
63648,note_on,,,,,32,0,9,,,,,2,,,74,89
63652,note_off,,,,,100,0,7,,,,,0,,,70,100
63680,note_off,,,,,128,0,10,,,,,3,,,64,100
63712,note_off,,,,,64,0,9,,,,,2,,,74,100
63744,note_on,,,,,64,0,10,,,,,3,,,65,82
63744,note_on,,,,,32,0,9,,,,,2,,,72,89
63744,note_on,,,,,92,0,7,,,,,0,,,69,92
63836,note_off,,,,,92,0,7,,,,,0,,,69,100
63840,note_on,,,,,4,0,7,,,,,0,,,65,92
63872,note_off,,,,,128,0,9,,,,,2,,,72,100
63872,note_off,,,,,128,0,10,,,,,3,,,65,100
63932,note_off,,,,,92,0,7,,,,,0,,,65,100
63936,note_on,,,,,64,0,9,,,,,2,,,69,90
63936,note_on,,,,,64,0,10,,,,,3,,,65,82
63936,note_on,,,,,4,0,7,,,,,0,,,64,93
64028,note_off,,,,,92,0,7,,,,,0,,,64,100
64032,note_on,,,,,4,0,7,,,,,0,,,65,93
64036,note_off,,,,,100,0,9,,,,,2,,,69,100
64064,note_off,,,,,128,0,10,,,,,3,,,65,100
64096,note_off,,,,,64,0,7,,,,,0,,,65,100
64128,note_on,,,,,64,0,10,,,,,3,,,65,83
64128,note_on,,,,,32,0,7,,,,,0,,,69,93
64128,note_on,,,,,92,0,9,,,,,2,,,81,91
64220,note_off,,,,,92,0,7,,,,,0,,,69,100
64224,note_on,,,,,4,0,7,,,,,0,,,65,94
64256,note_off,,,,,128,0,10,,,,,3,,,65,100
64316,note_off,,,,,92,0,7,,,,,0,,,65,100
64320,note_on,,,,,4,0,7,,,,,0,,,64,94
64320,note_on,,,,,64,0,10,,,,,3,,,65,84
64412,note_off,,,,,92,0,7,,,,,0,,,64,100
64416,note_on,,,,,4,0,7,,,,,0,,,65,94
64448,note_off,,,,,128,0,10,,,,,3,,,65,100
64480,note_off,,,,,64,0,7,,,,,0,,,65,100
64512,note_on,,,,,32,0,7,,,,,0,,,74,94
64512,note_on,,,,,64,0,10,,,,,3,,,66,84
64576,note_off,,,,,64,0,7,,,,,0,,,74,100
64608,note_on,,,,,32,0,7,,,,,0,,,76,95
64640,note_off,,,,,128,0,10,,,,,3,,,66,100
64640,note_off,,,,,512,0,9,,,,,2,,,81,100
64672,note_off,,,,,64,0,7,,,,,0,,,76,100
64704,note_on,,,,,64,0,10,,,,,3,,,66,85
64704,note_on,,,,,32,0,7,,,,,0,,,78,95
64704,note_on,,,,,64,0,9,,,,,2,,,69,94
64768,note_off,,,,,64,0,7,,,,,0,,,78,100
64800,note_on,,,,,32,0,7,,,,,0,,,79,95
64832,note_off,,,,,128,0,10,,,,,3,,,66,100
64832,note_off,,,,,128,0,9,,,,,2,,,69,100
64864,note_off,,,,,64,0,7,,,,,0,,,79,100
64896,note_on,,,,,32,0,7,,,,,0,,,81,96
64896,note_on,,,,,64,0,9,,,,,2,,,74,94
64896,note_on,,,,,64,0,10,,,,,3,,,66,86
64960,note_off,,,,,64,0,9,,,,,2,,,74,100
64992,note_on,,,,,32,0,9,,,,,2,,,76,95
64996,note_off,,,,,100,0,7,,,,,0,,,81,100
65024,note_off,,,,,128,0,10,,,,,3,,,66,100
65056,note_off,,,,,64,0,9,,,,,2,,,76,100
65088,note_on,,,,,64,0,10,,,,,3,,,66,86
65088,note_on,,,,,92,0,7,,,,,0,,,72,96
65088,note_on,,,,,32,0,9,,,,,2,,,78,95
65152,note_off,,,,,64,0,9,,,,,2,,,78,100
65184,note_on,,,,,32,0,9,,,,,2,,,76,96
65188,note_off,,,,,100,0,7,,,,,0,,,72,100
65216,note_off,,,,,128,0,10,,,,,3,,,66,100
65248,note_off,,,,,64,0,9,,,,,2,,,76,100
65280,note_on,,,,,92,0,7,,,,,0,,,70,97
65280,note_on,,,,,32,0,9,,,,,2,,,74,96
65280,note_on,,,,,64,0,10,,,,,3,,,67,87
65372,note_off,,,,,92,0,7,,,,,0,,,70,100
65376,note_on,,,,,4,0,7,,,,,0,,,67,97
65408,note_off,,,,,128,0,9,,,,,2,,,74,100
65408,note_off,,,,,128,0,10,,,,,3,,,67,100
65468,note_off,,,,,92,0,7,,,,,0,,,67,100
65472,note_on,,,,,64,0,10,,,,,3,,,67,88
65472,note_on,,,,,64,0,9,,,,,2,,,70,97
65472,note_on,,,,,4,0,7,,,,,0,,,66,98
65564,note_off,,,,,92,0,7,,,,,0,,,66,100
65568,note_on,,,,,4,0,7,,,,,0,,,67,98
65572,note_off,,,,,100,0,9,,,,,2,,,70,100
65600,note_off,,,,,128,0,10,,,,,3,,,67,100
65632,note_off,,,,,64,0,7,,,,,0,,,67,100
65664,note_on,,,,,32,0,7,,,,,0,,,70,98
65664,note_on,,,,,64,0,10,,,,,3,,,67,88
65664,note_on,,,,,92,0,9,,,,,2,,,82,98
65756,note_off,,,,,92,0,7,,,,,0,,,70,100
65760,note_on,,,,,4,0,7,,,,,0,,,67,99
65792,note_off,,,,,128,0,10,,,,,3,,,67,100
65852,note_off,,,,,92,0,7,,,,,0,,,67,100
65856,note_on,,,,,64,0,10,,,,,3,,,67,89
65856,note_on,,,,,4,0,7,,,,,0,,,66,99
65948,note_off,,,,,92,0,7,,,,,0,,,66,100
65952,note_on,,,,,4,0,7,,,,,0,,,67,99
65984,note_off,,,,,128,0,10,,,,,3,,,67,100
66016,note_off,,,,,64,0,7,,,,,0,,,67,100
66048,note_on,,,,,64,0,10,,,,,3,,,55,85
66048,note_on,,,,,32,0,7,,,,,0,,,76,99
66048,program_change,,,,,5888,0,11,,,,,4,42,,,
66112,note_off,,,,,448,0,9,,,,,2,,,82,100
66112,note_off,,,,,64,0,7,,,,,0,,,76,100
66144,note_on,,,,,32,0,7,,,,,0,,,77,100
66144,note_on,,,,,32,0,9,,,,,2,,,81,100
66176,note_off,,,,,128,0,10,,,,,3,,,55,100
66208,note_off,,,,,64,0,7,,,,,0,,,77,100
66208,note_off,,,,,64,0,9,,,,,2,,,81,100
66240,note_on,,,,,32,0,7,,,,,0,,,79,100
66240,note_on,,,,,32,0,9,,,,,2,,,79,100
66240,note_on,,,,,64,0,10,,,,,3,,,55,86
66304,note_off,,,,,64,0,7,,,,,0,,,79,100
66304,note_off,,,,,64,0,9,,,,,2,,,79,100
66336,note_on,,,,,32,0,9,,,,,2,,,77,100
66336,note_on,,,,,32,0,7,,,,,0,,,81,100
66368,note_off,,,,,128,0,10,,,,,3,,,55,100
66400,note_off,,,,,64,0,9,,,,,2,,,77,100
66400,note_off,,,,,64,0,7,,,,,0,,,81,100
66432,note_on,,,,,32,0,9,,,,,2,,,79,100
66432,note_on,,,,,64,0,10,,,,,3,,,55,87
66432,note_on,,,,,32,0,7,,,,,0,,,82,100
66532,note_off,,,,,100,0,9,,,,,2,,,79,100
66532,note_off,,,,,100,0,7,,,,,0,,,82,100
66560,note_off,,,,,128,0,10,,,,,3,,,55,100
66624,note_on,,,,,64,0,10,,,,,3,,,55,88
66624,note_on,,,,,92,0,9,,,,,2,,,82,95
66624,note_on,,,,,92,0,7,,,,,0,,,74,95
66724,note_off,,,,,100,0,9,,,,,2,,,82,100
66724,note_off,,,,,100,0,7,,,,,0,,,74,100
66752,note_off,,,,,128,0,10,,,,,3,,,55,100
66816,note_on,,,,,0,0,13,,,,,6,,,64,100
66816,note_on,,,,,64,0,10,,,,,3,,,57,89
66816,note_on,,,,,6596,0,13,,,,,6,,,61,100
66816,note_on,,,,,92,0,9,,,,,2,,,76,89
66816,note_on,,,,,768,0,11,,,,,4,,,45,90
66816,note_on,,,,,6656,0,14,,,,,6,,,45,100
66816,note_on,,,,,92,0,7,,,,,0,,,73,89
66908,note_off,,,,,92,0,7,,,,,0,,,73,100
66912,note_on,,,,,4,0,7,,,,,0,,,69,86
66916,note_off,,,,,100,0,11,,,,,4,,,45,100
66916,note_off,,,,,100,0,14,,,,,6,,,45,100
67004,note_off,,,,,92,0,7,,,,,0,,,69,100
67008,note_on,,,,,92,0,14,,,,,6,,,57,100
67008,note_on,,,,,92,0,11,,,,,4,,,57,90
67008,note_on,,,,,4,0,7,,,,,0,,,70,83
67072,note_off,,,,,256,0,9,,,,,2,,,76,100
67072,note_off,,,,,256,0,10,,,,,3,,,57,100
67072,note_off,,,,,0,0,13,,,,,6,,,64,100
67072,note_off,,,,,256,0,13,,,,,6,,,61,100
67100,note_off,,,,,92,0,7,,,,,0,,,70,100
67104,note_on,,,,,4,0,7,,,,,0,,,69,81
67108,note_off,,,,,100,0,14,,,,,6,,,57,100
67108,note_off,,,,,100,0,11,,,,,4,,,57,100
67168,note_off,,,,,64,0,7,,,,,0,,,69,100
67200,note_on,,,,,0,0,13,,,,,6,,,64,100
67200,note_on,,,,,128,0,13,,,,,6,,,73,100
67200,note_on,,,,,92,0,14,,,,,6,,,57,100
67200,note_on,,,,,32,0,7,,,,,0,,,76,80
67200,note_on,,,,,92,0,11,,,,,4,,,57,89
67292,note_off,,,,,92,0,7,,,,,0,,,76,100
67296,note_on,,,,,4,0,7,,,,,0,,,69,80
67300,note_off,,,,,100,0,14,,,,,6,,,57,100
67300,note_off,,,,,100,0,11,,,,,4,,,57,100
67388,note_off,,,,,92,0,7,,,,,0,,,69,100
67392,note_on,,,,,92,0,14,,,,,6,,,45,100
67392,note_on,,,,,4,0,7,,,,,0,,,70,80
67392,note_on,,,,,320,0,9,,,,,2,,,73,80
67392,note_on,,,,,92,0,11,,,,,4,,,45,89
67456,note_off,,,,,0,0,13,,,,,6,,,64,100
67456,note_off,,,,,256,0,13,,,,,6,,,73,100
67484,note_off,,,,,92,0,7,,,,,0,,,70,100
67488,note_on,,,,,4,0,7,,,,,0,,,69,80
67492,note_off,,,,,100,0,14,,,,,6,,,45,100
67492,note_off,,,,,100,0,11,,,,,4,,,45,100
67552,note_off,,,,,64,0,7,,,,,0,,,69,100
67584,note_on,,,,,92,0,11,,,,,4,,,45,88
67584,note_on,,,,,0,0,13,,,,,6,,,76,100
67584,note_on,,,,,92,0,14,,,,,6,,,45,100
67584,note_on,,,,,128,0,13,,,,,6,,,67,100
67584,note_on,,,,,32,0,7,,,,,0,,,67,80
67676,note_off,,,,,92,0,7,,,,,0,,,67,100
67680,note_on,,,,,4,0,7,,,,,0,,,69,80
67684,note_off,,,,,100,0,11,,,,,4,,,45,100
67684,note_off,,,,,100,0,14,,,,,6,,,45,100
67712,note_off,,,,,320,0,9,,,,,2,,,73,100
67772,note_off,,,,,92,0,7,,,,,0,,,69,100
67776,note_on,,,,,92,0,14,,,,,6,,,57,100
67776,note_on,,,,,92,0,11,,,,,4,,,57,87
67776,note_on,,,,,64,0,9,,,,,2,,,67,80
67776,note_on,,,,,4,0,7,,,,,0,,,70,80
67840,note_off,,,,,0,0,13,,,,,6,,,76,100
67840,note_off,,,,,256,0,13,,,,,6,,,67,100
67840,note_off,,,,,64,0,7,,,,,0,,,70,100
67872,note_on,,,,,32,0,7,,,,,0,,,69,80
67876,note_off,,,,,100,0,14,,,,,6,,,57,100
67876,note_off,,,,,100,0,11,,,,,4,,,57,100
67936,note_off,,,,,64,0,7,,,,,0,,,69,100
67968,note_on,,,,,128,0,13,,,,,6,,,64,100
67968,note_on,,,,,92,0,11,,,,,4,,,57,87
67968,note_on,,,,,0,0,13,,,,,6,,,73,100
67968,note_on,,,,,32,0,7,,,,,0,,,76,80
67968,note_on,,,,,92,0,14,,,,,6,,,57,100
68032,note_off,,,,,256,0,9,,,,,2,,,67,100
68060,note_off,,,,,92,0,7,,,,,0,,,76,100
68064,note_on,,,,,4,0,7,,,,,0,,,69,80
68068,note_off,,,,,100,0,14,,,,,6,,,57,100
68068,note_off,,,,,100,0,11,,,,,4,,,57,100
68156,note_off,,,,,92,0,7,,,,,0,,,69,100
68160,note_on,,,,,4,0,7,,,,,0,,,70,80
68160,note_on,,,,,92,0,14,,,,,6,,,45,100
68160,note_on,,,,,92,0,11,,,,,4,,,45,86
68160,note_on,,,,,128,0,9,,,,,2,,,64,80
68224,note_off,,,,,64,0,7,,,,,0,,,70,100
68224,note_off,,,,,256,0,13,,,,,6,,,64,100
68224,note_off,,,,,0,0,13,,,,,6,,,73,100
68256,note_on,,,,,32,0,7,,,,,0,,,69,80
68260,note_off,,,,,100,0,14,,,,,6,,,45,100
68260,note_off,,,,,100,0,11,,,,,4,,,45,100
68320,note_off,,,,,64,0,7,,,,,0,,,69,100
68352,note_on,,,,,92,0,14,,,,,6,,,45,100
68352,note_on,,,,,0,0,13,,,,,6,,,69,100
68352,note_on,,,,,32,0,7,,,,,0,,,67,80
68352,note_on,,,,,92,0,11,,,,,4,,,45,85
68352,note_on,,,,,128,0,13,,,,,6,,,61,100
68416,note_off,,,,,256,0,9,,,,,2,,,64,100
68444,note_off,,,,,92,0,7,,,,,0,,,67,100
68448,note_on,,,,,4,0,7,,,,,0,,,69,80
68452,note_off,,,,,100,0,14,,,,,6,,,45,100
68452,note_off,,,,,100,0,11,,,,,4,,,45,100
68540,note_off,,,,,92,0,7,,,,,0,,,69,100
68544,note_on,,,,,92,0,14,,,,,6,,,57,100
68544,note_on,,,,,128,0,9,,,,,2,,,67,80
68544,note_on,,,,,92,0,11,,,,,4,,,57,85
68544,note_on,,,,,4,0,7,,,,,0,,,70,80
68608,note_off,,,,,256,0,13,,,,,6,,,61,100
68608,note_off,,,,,0,0,13,,,,,6,,,69,100
68608,note_off,,,,,64,0,7,,,,,0,,,70,100
68640,note_on,,,,,32,0,7,,,,,0,,,69,80
68644,note_off,,,,,100,0,14,,,,,6,,,57,100
68644,note_off,,,,,100,0,11,,,,,4,,,57,100
68704,note_off,,,,,64,0,7,,,,,0,,,69,100
68736,note_on,,,,,0,0,13,,,,,6,,,76,100
68736,note_on,,,,,92,0,14,,,,,6,,,57,100
68736,note_on,,,,,32,0,7,,,,,0,,,76,80
68736,note_on,,,,,92,0,11,,,,,4,,,57,84
68736,note_on,,,,,128,0,13,,,,,6,,,67,100
68800,note_off,,,,,256,0,9,,,,,2,,,67,100
68828,note_off,,,,,92,0,7,,,,,0,,,76,100
68832,note_on,,,,,4,0,7,,,,,0,,,69,81
68836,note_off,,,,,100,0,14,,,,,6,,,57,100
68836,note_off,,,,,100,0,11,,,,,4,,,57,100
68924,note_off,,,,,92,0,7,,,,,0,,,69,100
68928,note_on,,,,,92,0,14,,,,,6,,,45,100
68928,note_on,,,,,128,0,9,,,,,2,,,73,82
68928,note_on,,,,,92,0,11,,,,,4,,,45,83
68928,note_on,,,,,4,0,7,,,,,0,,,70,82
68992,note_off,,,,,0,0,13,,,,,6,,,76,100
68992,note_off,,,,,256,0,13,,,,,6,,,67,100
68992,note_off,,,,,64,0,7,,,,,0,,,70,100
69024,note_on,,,,,32,0,7,,,,,0,,,69,83
69028,note_off,,,,,100,0,11,,,,,4,,,45,100
69028,note_off,,,,,100,0,14,,,,,6,,,45,100
69088,note_off,,,,,64,0,7,,,,,0,,,69,100
69120,note_on,,,,,92,0,14,,,,,6,,,45,100
69120,note_on,,,,,0,0,13,,,,,6,,,73,100
69120,note_on,,,,,128,0,13,,,,,6,,,64,100
69120,note_on,,,,,92,0,11,,,,,4,,,45,83
69120,note_on,,,,,32,0,7,,,,,0,,,79,84
69212,note_off,,,,,92,0,7,,,,,0,,,79,100
69216,note_on,,,,,4,0,7,,,,,0,,,69,86
69220,note_off,,,,,100,0,11,,,,,4,,,45,100
69220,note_off,,,,,100,0,14,,,,,6,,,45,100
69248,note_off,,,,,320,0,9,,,,,2,,,73,100
69308,note_off,,,,,92,0,7,,,,,0,,,69,100
69312,note_on,,,,,92,0,11,,,,,4,,,57,82
69312,note_on,,,,,4,0,7,,,,,0,,,70,87
69312,note_on,,,,,64,0,9,,,,,2,,,76,87
69312,note_on,,,,,92,0,14,,,,,6,,,57,100
69376,note_off,,,,,256,0,13,,,,,6,,,64,100
69376,note_off,,,,,64,0,7,,,,,0,,,70,100
69376,note_off,,,,,0,0,13,,,,,6,,,73,100
69408,note_on,,,,,32,0,7,,,,,0,,,69,88
69412,note_off,,,,,100,0,14,,,,,6,,,57,100
69412,note_off,,,,,100,0,11,,,,,4,,,57,100
69472,note_off,,,,,64,0,7,,,,,0,,,69,100
69504,note_on,,,,,32,0,7,,,,,0,,,79,89
69504,note_on,,,,,128,0,13,,,,,6,,,69,100
69504,note_on,,,,,92,0,14,,,,,6,,,57,100
69504,note_on,,,,,92,0,11,,,,,4,,,57,81
69504,note_on,,,,,0,0,13,,,,,6,,,61,100
69568,note_off,,,,,256,0,9,,,,,2,,,76,100
69596,note_off,,,,,92,0,7,,,,,0,,,79,100
69600,note_on,,,,,4,0,7,,,,,0,,,69,91
69604,note_off,,,,,100,0,11,,,,,4,,,57,100
69604,note_off,,,,,100,0,14,,,,,6,,,57,100
69632,note_off,,,,,128,0,13,,,,,6,,,69,100
69692,note_off,,,,,92,0,7,,,,,0,,,69,100
69696,note_on,,,,,64,0,13,,,,,6,,,76,100
69696,note_on,,,,,92,0,14,,,,,6,,,45,100
69696,note_on,,,,,4,0,7,,,,,0,,,70,92
69696,note_on,,,,,128,0,9,,,,,2,,,73,92
69696,note_on,,,,,92,0,11,,,,,4,,,45,80
69760,note_off,,,,,64,0,7,,,,,0,,,70,100
69760,note_off,,,,,64,0,13,,,,,6,,,61,100
69792,note_on,,,,,32,0,7,,,,,0,,,69,93
69796,note_off,,,,,100,0,14,,,,,6,,,45,100
69796,note_off,,,,,100,0,11,,,,,4,,,45,100
69824,note_off,,,,,128,0,9,,,,,2,,,73,100
69824,note_off,,,,,64,0,13,,,,,6,,,76,100
69856,note_off,,,,,64,0,7,,,,,0,,,69,100
69888,note_on,,,,,32,0,7,,,,,0,,,77,94
69888,note_on,,,,,92,0,14,,,,,6,,,50,100
69888,note_on,,,,,92,0,11,,,,,4,,,50,84
69888,note_on,,,,,64,0,9,,,,,2,,,74,94
69888,note_on,,,,,0,0,13,,,,,6,,,74,100
69888,note_on,,,,,64,0,13,,,,,6,,,65,100
69952,note_off,,,,,64,0,9,,,,,2,,,74,100
69984,note_on,,,,,32,0,9,,,,,2,,,69,96
69988,note_off,,,,,100,0,11,,,,,4,,,50,100
69988,note_off,,,,,100,0,14,,,,,6,,,50,100
70016,note_off,,,,,128,0,7,,,,,0,,,77,100
70016,note_off,,,,,128,0,13,,,,,6,,,65,100
70048,note_off,,,,,64,0,9,,,,,2,,,69,100
70080,note_on,,,,,64,0,13,,,,,6,,,64,100
70080,note_on,,,,,92,0,14,,,,,6,,,55,100
70080,note_on,,,,,64,0,7,,,,,0,,,76,97
70080,note_on,,,,,32,0,9,,,,,2,,,67,97
70080,note_on,,,,,92,0,11,,,,,4,,,55,89
70144,note_off,,,,,64,0,9,,,,,2,,,67,100
70144,note_off,,,,,64,0,13,,,,,6,,,74,100
70144,note_off,,,,,64,0,7,,,,,0,,,76,100
70176,note_on,,,,,32,0,7,,,,,0,,,74,98
70176,note_on,,,,,32,0,9,,,,,2,,,65,98
70180,note_off,,,,,100,0,11,,,,,4,,,55,100
70180,note_off,,,,,100,0,14,,,,,6,,,55,100
70240,note_off,,,,,64,0,9,,,,,2,,,65,100
70240,note_off,,,,,64,0,7,,,,,0,,,74,100
70272,note_on,,,,,92,0,14,,,,,6,,,57,100
70272,note_on,,,,,32,0,7,,,,,0,,,74,99
70272,note_on,,,,,128,0,13,,,,,6,,,73,100
70272,note_on,,,,,32,0,9,,,,,2,,,65,99
70272,note_on,,,,,92,0,11,,,,,4,,,57,94
70336,note_off,,,,,64,0,13,,,,,6,,,64,100
70364,note_off,,,,,92,0,9,,,,,2,,,65,100
70364,note_off,,,,,92,0,7,,,,,0,,,74,100
70368,note_on,,,,,4,0,9,,,,,2,,,64,101
70368,note_on,,,,,4,0,7,,,,,0,,,73,101
70372,note_off,,,,,100,0,14,,,,,6,,,57,100
70372,note_off,,,,,100,0,11,,,,,4,,,57,100
70412,note_off,,,,,44,0,7,,,,,0,,,73,100
70412,note_off,,,,,44,0,9,,,,,2,,,64,100
70416,note_on,,,,,4,0,7,,,,,0,,,74,101
70416,note_on,,,,,4,0,9,,,,,2,,,65,101
70460,note_off,,,,,44,0,7,,,,,0,,,74,100
70460,note_off,,,,,44,0,9,,,,,2,,,65,100
70464,note_on,,,,,10268,0,8,,,,,1,,,69,102
70464,note_on,,,,,4,0,7,,,,,0,,,73,102
70464,note_on,,,,,92,0,11,,,,,4,,,45,99
70464,note_on,,,,,92,0,14,,,,,6,,,45,100
70464,note_on,,,,,128,0,13,,,,,6,,,69,100
70464,note_on,,,,,4,0,9,,,,,2,,,64,102
70528,note_off,,,,,64,0,7,,,,,0,,,73,100
70528,note_off,,,,,64,0,13,,,,,6,,,73,100
70528,note_off,,,,,64,0,9,,,,,2,,,64,100
70560,note_on,,,,,32,0,7,,,,,0,,,74,103
70560,note_on,,,,,32,0,9,,,,,2,,,65,103
70564,note_off,,,,,100,0,8,,,,,1,,,69,100
70564,note_off,,,,,100,0,14,,,,,6,,,45,100
70564,note_off,,,,,100,0,11,,,,,4,,,45,100
70592,note_off,,,,,64,0,13,,,,,6,,,69,100
70624,note_off,,,,,64,0,7,,,,,0,,,74,100
70624,note_off,,,,,64,0,9,,,,,2,,,65,100
70652,program_change,,,,,88,0,11,,,,,4,48,,,
70656,note_on,,,,,92,0,8,,,,,1,,,74,100
70656,note_on,,,,,10496,0,12,,,,,5,,,38,100
70656,note_on,,,,,32,0,7,,,,,0,,,74,104
70656,note_on,,,,,0,0,15,,,,,7,,,69,100
70656,note_on,,,,,4,0,11,,,,,4,,,38,100
70656,note_on,,,,,0,0,13,,,,,6,,,74,100
70656,note_on,,,,,64,0,13,,,,,6,,,65,100
70656,note_on,,,,,0,0,15,,,,,7,,,74,100
70656,note_on,,,,,10496,0,15,,,,,7,,,65,100
70656,note_on,,,,,92,0,14,,,,,6,,,38,100
70656,note_on,,,,,10496,0,16,,,,,7,,,38,100
70656,note_on,,,,,32,0,9,,,,,2,,,62,104
70756,note_off,,,,,100,0,12,,,,,5,,,38,100
70756,note_off,,,,,100,0,8,,,,,1,,,74,100
70756,note_off,,,,,100,0,14,,,,,6,,,38,100
70756,note_off,,,,,100,0,11,,,,,4,,,38,100
70784,note_off,,,,,0,0,13,,,,,6,,,74,100
70784,note_off,,,,,128,0,13,,,,,6,,,65,100
70792,note_off,,,,,136,0,16,,,,,7,,,38,100
70848,note_on,,,,,92,0,14,,,,,6,,,62,100
70848,note_on,,,,,3776,0,10,,,,,3,,,65,100
70848,note_on,,,,,92,0,11,,,,,4,,,62,100
70848,note_on,,,,,92,0,8,,,,,1,,,74,100
70848,note_on,,,,,64,0,13,,,,,6,,,74,100
70848,note_on,,,,,92,0,12,,,,,5,,,50,100
70848,note_on,,,,,56,0,16,,,,,7,,,62,100
70912,note_off,,,,,256,0,7,,,,,0,,,74,100
70912,note_off,,,,,256,0,9,,,,,2,,,62,100
70940,note_off,,,,,92,0,13,,,,,6,,,74,100
70944,note_on,,,,,4,0,13,,,,,6,,,73,100
70948,note_off,,,,,100,0,11,,,,,4,,,62,100
70948,note_off,,,,,100,0,14,,,,,6,,,62,100
70948,note_off,,,,,100,0,12,,,,,5,,,50,100
70948,note_off,,,,,100,0,8,,,,,1,,,74,100
70948,note_off,,,,,100,0,10,,,,,3,,,65,100
70984,note_off,,,,,136,0,16,,,,,7,,,62,100
71036,note_off,,,,,92,0,13,,,,,6,,,73,100
71040,note_on,,,,,92,0,11,,,,,4,,,62,100
71040,note_on,,,,,92,0,8,,,,,1,,,74,100
71040,program_change,,,,,128,0,9,,,,,2,48,,,
71040,note_on,,,,,92,0,14,,,,,6,,,62,100
71040,note_on,,,,,4,0,13,,,,,6,,,74,100
71040,note_on,,,,,92,0,12,,,,,5,,,50,100
71040,note_on,,,,,56,0,16,,,,,7,,,62,100
71040,note_on,,,,,92,0,10,,,,,3,,,65,100
71132,note_off,,,,,92,0,13,,,,,6,,,74,100
71136,note_on,,,,,4,0,13,,,,,6,,,69,100
71140,note_off,,,,,100,0,10,,,,,3,,,65,100
71140,note_off,,,,,100,0,14,,,,,6,,,62,100
71140,note_off,,,,,100,0,8,,,,,1,,,74,100
71140,note_off,,,,,100,0,12,,,,,5,,,50,100
71140,note_off,,,,,100,0,11,,,,,4,,,62,100
71176,note_off,,,,,136,0,16,,,,,7,,,62,100
71228,note_off,,,,,92,0,13,,,,,6,,,69,100
71232,note_on,,,,,56,0,16,,,,,7,,,50,100
71232,note_on,,,,,92,0,8,,,,,1,,,74,100
71232,note_on,,,,,92,0,12,,,,,5,,,38,100
71232,note_on,,,,,192,0,9,,,,,2,,,69,100
71232,note_on,,,,,4,0,13,,,,,6,,,65,100
71232,note_on,,,,,92,0,14,,,,,6,,,50,100
71232,note_on,,,,,92,0,10,,,,,3,,,69,100
71232,note_on,,,,,92,0,11,,,,,4,,,50,100
71324,note_off,,,,,92,0,13,,,,,6,,,65,100
71328,note_on,,,,,4,0,13,,,,,6,,,69,100
71332,note_off,,,,,100,0,14,,,,,6,,,50,100
71332,note_off,,,,,100,0,12,,,,,5,,,38,100
71332,note_off,,,,,100,0,11,,,,,4,,,50,100
71332,note_off,,,,,100,0,8,,,,,1,,,74,100
71332,note_off,,,,,100,0,10,,,,,3,,,69,100
71332,note_off,,,,,100,0,9,,,,,2,,,69,100
71344,note_off,,,,,0,0,15,,,,,7,,,74,100
71344,note_off,,,,,688,0,15,,,,,7,,,65,100
71344,note_off,,,,,0,0,15,,,,,7,,,69,100
71368,note_off,,,,,136,0,16,,,,,7,,,50,100
71420,note_off,,,,,92,0,13,,,,,6,,,69,100
71424,note_on,,,,,92,0,14,,,,,6,,,38,100
71424,note_on,,,,,4,0,13,,,,,6,,,62,100
71424,note_on,,,,,92,0,9,,,,,2,,,74,100
71424,note_on,,,,,92,0,12,,,,,5,,,38,100
71424,note_on,,,,,92,0,8,,,,,1,,,74,100
71424,note_on,,,,,0,0,15,,,,,7,,,69,100
71424,note_on,,,,,56,0,16,,,,,7,,,38,100
71424,note_on,,,,,0,0,15,,,,,7,,,74,100
71424,note_on,,,,,92,0,11,,,,,4,,,38,100
71424,note_on,,,,,80,0,15,,,,,7,,,65,100
71424,note_on,,,,,92,0,10,,,,,3,,,65,100
71488,note_off,,,,,64,0,8,,,,,1,,,74,100
71516,note_off,,,,,92,0,13,,,,,6,,,62,100
71520,note_on,,,,,32,0,8,,,,,1,,,69,100
71520,note_on,,,,,4,0,13,,,,,6,,,69,100
71524,note_off,,,,,100,0,12,,,,,5,,,38,100
71524,note_off,,,,,100,0,11,,,,,4,,,38,100
71524,note_off,,,,,100,0,14,,,,,6,,,38,100
71524,note_off,,,,,100,0,9,,,,,2,,,74,100
71524,note_off,,,,,100,0,10,,,,,3,,,65,100
71560,note_off,,,,,136,0,16,,,,,7,,,38,100
71584,note_off,,,,,64,0,8,,,,,1,,,69,100
71612,note_off,,,,,92,0,13,,,,,6,,,69,100
71616,note_on,,,,,92,0,14,,,,,6,,,62,100
71616,note_on,,,,,56,0,16,,,,,7,,,62,100
71616,note_on,,,,,92,0,12,,,,,5,,,50,100
71616,note_on,,,,,4,0,13,,,,,6,,,65,100
71616,note_on,,,,,32,0,8,,,,,1,,,65,100
71616,note_on,,,,,92,0,9,,,,,2,,,74,100
71616,note_on,,,,,92,0,11,,,,,4,,,62,100
71616,note_on,,,,,92,0,10,,,,,3,,,62,100
71680,note_off,,,,,64,0,8,,,,,1,,,65,100
71708,note_off,,,,,92,0,13,,,,,6,,,65,100
71712,note_on,,,,,4,0,13,,,,,6,,,69,100
71712,note_on,,,,,32,0,8,,,,,1,,,69,100
71716,note_off,,,,,100,0,14,,,,,6,,,62,100
71716,note_off,,,,,100,0,9,,,,,2,,,74,100
71716,note_off,,,,,100,0,11,,,,,4,,,62,100
71716,note_off,,,,,100,0,12,,,,,5,,,50,100
71716,note_off,,,,,100,0,10,,,,,3,,,62,100
71752,note_off,,,,,136,0,16,,,,,7,,,62,100
71776,note_off,,,,,64,0,8,,,,,1,,,69,100
71804,note_off,,,,,92,0,13,,,,,6,,,69,100
71808,note_on,,,,,4,0,13,,,,,6,,,74,100
71808,note_on,,,,,92,0,14,,,,,6,,,62,100
71808,note_on,,,,,56,0,16,,,,,7,,,62,100
71808,note_on,,,,,92,0,11,,,,,4,,,62,100
71808,note_on,,,,,92,0,10,,,,,3,,,65,100
71808,note_on,,,,,32,0,8,,,,,1,,,74,100
71808,note_on,,,,,92,0,9,,,,,2,,,74,100
71808,note_on,,,,,92,0,12,,,,,5,,,50,100
71872,note_off,,,,,64,0,8,,,,,1,,,74,100
71900,note_off,,,,,92,0,13,,,,,6,,,74,100
71904,note_on,,,,,32,0,8,,,,,1,,,69,100
71904,note_on,,,,,4,0,13,,,,,6,,,69,100
71908,note_off,,,,,100,0,9,,,,,2,,,74,100
71908,note_off,,,,,100,0,10,,,,,3,,,65,100
71908,note_off,,,,,100,0,11,,,,,4,,,62,100
71908,note_off,,,,,100,0,12,,,,,5,,,50,100
71908,note_off,,,,,100,0,14,,,,,6,,,62,100
71944,note_off,,,,,136,0,16,,,,,7,,,62,100
71968,note_off,,,,,64,0,8,,,,,1,,,69,100
71996,note_off,,,,,92,0,13,,,,,6,,,69,100
72000,note_on,,,,,4,0,13,,,,,6,,,65,100
72000,note_on,,,,,56,0,16,,,,,7,,,50,100
72000,note_on,,,,,92,0,10,,,,,3,,,69,100
72000,note_on,,,,,32,0,8,,,,,1,,,65,100
72000,note_on,,,,,92,0,12,,,,,5,,,38,100
72000,note_on,,,,,92,0,11,,,,,4,,,50,100
72000,note_on,,,,,92,0,9,,,,,2,,,74,100
72000,note_on,,,,,92,0,14,,,,,6,,,50,100
72064,note_off,,,,,64,0,8,,,,,1,,,65,100
72092,note_off,,,,,92,0,13,,,,,6,,,65,100
72096,note_on,,,,,32,0,8,,,,,1,,,69,100
72096,note_on,,,,,4,0,13,,,,,6,,,69,100
72100,note_off,,,,,100,0,12,,,,,5,,,38,100
72100,note_off,,,,,100,0,11,,,,,4,,,50,100
72100,note_off,,,,,100,0,10,,,,,3,,,69,100
72100,note_off,,,,,100,0,9,,,,,2,,,74,100
72100,note_off,,,,,100,0,14,,,,,6,,,50,100
72112,note_off,,,,,0,0,15,,,,,7,,,74,100
72112,note_off,,,,,688,0,15,,,,,7,,,65,100
72112,note_off,,,,,0,0,15,,,,,7,,,69,100
72136,note_off,,,,,136,0,16,,,,,7,,,50,100
72160,note_off,,,,,64,0,8,,,,,1,,,69,100
72188,note_off,,,,,92,0,13,,,,,6,,,69,100
72192,note_on,,,,,80,0,15,,,,,7,,,65,100
72192,note_on,,,,,0,0,15,,,,,7,,,74,100
72192,note_on,,,,,92,0,11,,,,,4,,,38,100
72192,note_on,,,,,92,0,12,,,,,5,,,38,100
72192,note_on,,,,,92,0,14,,,,,6,,,38,100
72192,note_on,,,,,0,0,15,,,,,7,,,69,100
72192,note_on,,,,,32,0,8,,,,,1,,,74,100
72192,note_on,,,,,92,0,10,,,,,3,,,65,100
72192,note_on,,,,,56,0,16,,,,,7,,,38,100
72192,note_on,,,,,4,0,13,,,,,6,,,62,100
72192,note_on,,,,,92,0,9,,,,,2,,,74,100
72256,note_off,,,,,64,0,9,,,,,2,,,74,100
72284,note_off,,,,,92,0,13,,,,,6,,,62,100
72288,note_on,,,,,32,0,9,,,,,2,,,69,100
72288,note_on,,,,,4,0,13,,,,,6,,,69,100
72292,note_off,,,,,100,0,11,,,,,4,,,38,100
72292,note_off,,,,,100,0,10,,,,,3,,,65,100
72292,note_off,,,,,100,0,12,,,,,5,,,38,100
72292,note_off,,,,,100,0,14,,,,,6,,,38,100
72292,note_off,,,,,100,0,8,,,,,1,,,74,100
72328,note_off,,,,,136,0,16,,,,,7,,,38,100
72352,note_off,,,,,64,0,9,,,,,2,,,69,100
72380,note_off,,,,,92,0,13,,,,,6,,,69,100
72384,note_on,,,,,32,0,9,,,,,2,,,65,100
72384,note_on,,,,,92,0,11,,,,,4,,,62,100
72384,note_on,,,,,92,0,12,,,,,5,,,50,100
72384,note_on,,,,,4,0,13,,,,,6,,,74,100
72384,note_on,,,,,56,0,16,,,,,7,,,62,100
72384,note_on,,,,,92,0,14,,,,,6,,,62,100
72384,note_on,,,,,92,0,8,,,,,1,,,74,100
72384,note_on,,,,,92,0,10,,,,,3,,,62,100
72448,note_off,,,,,64,0,9,,,,,2,,,65,100
72476,note_off,,,,,92,0,13,,,,,6,,,74,100
72480,note_on,,,,,4,0,13,,,,,6,,,73,100
72480,note_on,,,,,32,0,9,,,,,2,,,69,100
72484,note_off,,,,,100,0,11,,,,,4,,,62,100
72484,note_off,,,,,100,0,10,,,,,3,,,62,100
72484,note_off,,,,,100,0,8,,,,,1,,,74,100
72484,note_off,,,,,100,0,14,,,,,6,,,62,100
72484,note_off,,,,,100,0,12,,,,,5,,,50,100
72520,note_off,,,,,136,0,16,,,,,7,,,62,100
72544,note_off,,,,,64,0,9,,,,,2,,,69,100
72572,note_off,,,,,92,0,13,,,,,6,,,73,100
72576,note_on,,,,,56,0,16,,,,,7,,,62,100
72576,note_on,,,,,92,0,10,,,,,3,,,65,100
72576,note_on,,,,,32,0,9,,,,,2,,,74,100
72576,note_on,,,,,92,0,11,,,,,4,,,62,100
72576,note_on,,,,,4,0,13,,,,,6,,,74,100
72576,note_on,,,,,92,0,12,,,,,5,,,50,100
72576,note_on,,,,,92,0,8,,,,,1,,,74,100
72576,note_on,,,,,92,0,14,,,,,6,,,62,100
72640,note_off,,,,,64,0,9,,,,,2,,,74,100
72668,note_off,,,,,92,0,13,,,,,6,,,74,100
72672,note_on,,,,,4,0,13,,,,,6,,,69,100
72672,note_on,,,,,32,0,9,,,,,2,,,69,100
72676,note_off,,,,,100,0,11,,,,,4,,,62,100
72676,note_off,,,,,100,0,14,,,,,6,,,62,100
72676,note_off,,,,,100,0,8,,,,,1,,,74,100
72676,note_off,,,,,100,0,12,,,,,5,,,50,100
72676,note_off,,,,,100,0,10,,,,,3,,,65,100
72712,note_off,,,,,136,0,16,,,,,7,,,62,100
72736,note_off,,,,,64,0,9,,,,,2,,,69,100
72764,note_off,,,,,92,0,13,,,,,6,,,69,100
72768,note_on,,,,,4,0,13,,,,,6,,,65,100
72768,note_on,,,,,92,0,12,,,,,5,,,38,100
72768,note_on,,,,,92,0,8,,,,,1,,,74,100
72768,note_on,,,,,32,0,9,,,,,2,,,65,100
72768,note_on,,,,,56,0,16,,,,,7,,,50,100
72768,note_on,,,,,92,0,11,,,,,4,,,50,100
72768,note_on,,,,,92,0,10,,,,,3,,,69,100
72768,note_on,,,,,92,0,14,,,,,6,,,50,100
72832,note_off,,,,,64,0,9,,,,,2,,,65,100
72860,note_off,,,,,92,0,13,,,,,6,,,65,100
72864,note_on,,,,,4,0,13,,,,,6,,,69,100
72864,note_on,,,,,32,0,9,,,,,2,,,69,100
72868,note_off,,,,,100,0,12,,,,,5,,,38,100
72868,note_off,,,,,100,0,10,,,,,3,,,69,100
72868,note_off,,,,,100,0,14,,,,,6,,,50,100
72868,note_off,,,,,100,0,8,,,,,1,,,74,100
72868,note_off,,,,,100,0,11,,,,,4,,,50,100
72880,note_off,,,,,688,0,15,,,,,7,,,65,100
72880,note_off,,,,,0,0,15,,,,,7,,,69,100
72880,note_off,,,,,0,0,15,,,,,7,,,74,100
72904,note_off,,,,,136,0,16,,,,,7,,,50,100
72928,note_off,,,,,64,0,9,,,,,2,,,69,100
72956,note_off,,,,,92,0,13,,,,,6,,,69,100
72960,note_on,,,,,92,0,12,,,,,5,,,38,100
72960,note_on,,,,,92,0,8,,,,,1,,,74,100
72960,note_on,,,,,80,0,15,,,,,7,,,65,100
72960,note_on,,,,,0,0,15,,,,,7,,,69,100
72960,note_on,,,,,0,0,15,,,,,7,,,74,100
72960,note_on,,,,,56,0,16,,,,,7,,,38,100
72960,note_on,,,,,92,0,14,,,,,6,,,38,100
72960,note_on,,,,,32,0,9,,,,,2,,,74,100
72960,note_on,,,,,4,0,13,,,,,6,,,62,100
72960,note_on,,,,,92,0,11,,,,,4,,,38,100
72960,note_on,,,,,92,0,10,,,,,3,,,65,100
73024,note_off,,,,,64,0,8,,,,,1,,,74,100
73052,note_off,,,,,92,0,13,,,,,6,,,62,100
73056,note_on,,,,,4,0,13,,,,,6,,,69,100
73056,note_on,,,,,32,0,8,,,,,1,,,69,100
73060,note_off,,,,,100,0,9,,,,,2,,,74,100
73060,note_off,,,,,100,0,10,,,,,3,,,65,100
73060,note_off,,,,,100,0,11,,,,,4,,,38,100
73060,note_off,,,,,100,0,12,,,,,5,,,38,100
73060,note_off,,,,,100,0,14,,,,,6,,,38,100
73096,note_off,,,,,136,0,16,,,,,7,,,38,100
73120,note_off,,,,,64,0,8,,,,,1,,,69,100
73148,note_off,,,,,92,0,13,,,,,6,,,69,100
73152,note_on,,,,,32,0,8,,,,,1,,,65,100
73152,note_on,,,,,92,0,14,,,,,6,,,62,100
73152,note_on,,,,,92,0,9,,,,,2,,,74,100
73152,note_on,,,,,92,0,10,,,,,3,,,62,100
73152,note_on,,,,,92,0,11,,,,,4,,,62,100
73152,note_on,,,,,92,0,12,,,,,5,,,50,100
73152,note_on,,,,,56,0,16,,,,,7,,,62,100
73152,note_on,,,,,4,0,13,,,,,6,,,65,100
73216,note_off,,,,,64,0,8,,,,,1,,,65,100
73244,note_off,,,,,92,0,13,,,,,6,,,65,100
73248,note_on,,,,,32,0,8,,,,,1,,,69,100
73248,note_on,,,,,4,0,13,,,,,6,,,69,100
73252,note_off,,,,,100,0,10,,,,,3,,,62,100
73252,note_off,,,,,100,0,11,,,,,4,,,62,100
73252,note_off,,,,,100,0,12,,,,,5,,,50,100
73252,note_off,,,,,100,0,14,,,,,6,,,62,100
73252,note_off,,,,,100,0,9,,,,,2,,,74,100
73288,note_off,,,,,136,0,16,,,,,7,,,62,100
73312,note_off,,,,,64,0,8,,,,,1,,,69,100
73340,note_off,,,,,92,0,13,,,,,6,,,69,100
73344,note_on,,,,,92,0,10,,,,,3,,,65,100
73344,note_on,,,,,92,0,11,,,,,4,,,62,100
73344,note_on,,,,,92,0,12,,,,,5,,,50,100
73344,note_on,,,,,32,0,8,,,,,1,,,74,100
73344,note_on,,,,,92,0,14,,,,,6,,,62,100
73344,note_on,,,,,4,0,13,,,,,6,,,74,100
73344,note_on,,,,,56,0,16,,,,,7,,,62,100
73344,note_on,,,,,92,0,9,,,,,2,,,74,100
73408,note_off,,,,,64,0,8,,,,,1,,,74,100
73436,note_off,,,,,92,0,13,,,,,6,,,74,100
73440,note_on,,,,,32,0,8,,,,,1,,,69,100
73440,note_on,,,,,4,0,13,,,,,6,,,69,100
73444,note_off,,,,,100,0,11,,,,,4,,,62,100
73444,note_off,,,,,100,0,9,,,,,2,,,74,100
73444,note_off,,,,,100,0,14,,,,,6,,,62,100
73444,note_off,,,,,100,0,10,,,,,3,,,65,100
73444,note_off,,,,,100,0,12,,,,,5,,,50,100
73480,note_off,,,,,136,0,16,,,,,7,,,62,100
73504,note_off,,,,,64,0,8,,,,,1,,,69,100
73532,note_off,,,,,92,0,13,,,,,6,,,69,100
73536,note_on,,,,,32,0,8,,,,,1,,,65,100
73536,note_on,,,,,92,0,12,,,,,5,,,38,100
73536,note_on,,,,,92,0,14,,,,,6,,,50,100
73536,note_on,,,,,4,0,13,,,,,6,,,65,100
73536,note_on,,,,,56,0,16,,,,,7,,,50,100
73536,note_on,,,,,92,0,9,,,,,2,,,74,100
73536,note_on,,,,,92,0,10,,,,,3,,,69,100
73536,note_on,,,,,92,0,11,,,,,4,,,50,100
73600,note_off,,,,,64,0,8,,,,,1,,,65,100
73628,note_off,,,,,92,0,13,,,,,6,,,65,100
73632,note_on,,,,,4,0,13,,,,,6,,,74,100
73632,note_on,,,,,32,0,8,,,,,1,,,74,100
73636,note_off,,,,,100,0,12,,,,,5,,,38,100
73636,note_off,,,,,100,0,9,,,,,2,,,74,100
73636,note_off,,,,,100,0,14,,,,,6,,,50,100
73636,note_off,,,,,100,0,10,,,,,3,,,69,100
73636,note_off,,,,,100,0,11,,,,,4,,,50,100
73648,note_off,,,,,688,0,15,,,,,7,,,65,100
73648,note_off,,,,,0,0,15,,,,,7,,,74,100
73648,note_off,,,,,0,0,15,,,,,7,,,69,100
73672,note_off,,,,,136,0,16,,,,,7,,,50,100
73696,note_off,,,,,64,0,8,,,,,1,,,74,100
73724,note_off,,,,,92,0,13,,,,,6,,,74,100
73728,note_on,,,,,32,0,8,,,,,1,,,76,100
73728,note_on,,,,,4,0,13,,,,,6,,,73,100
73728,note_on,,,,,80,0,15,,,,,7,,,64,100
73728,note_on,,,,,56,0,16,,,,,7,,,45,100
73728,note_on,,,,,0,0,15,,,,,7,,,69,100
73728,note_on,,,,,92,0,9,,,,,2,,,73,100
73728,note_on,,,,,0,0,15,,,,,7,,,73,100
73728,note_on,,,,,92,0,11,,,,,4,,,45,100
73728,note_on,,,,,92,0,12,,,,,5,,,33,100
73728,note_on,,,,,92,0,14,,,,,6,,,45,100
73728,note_on,,,,,92,0,10,,,,,3,,,69,100
73792,note_off,,,,,64,0,9,,,,,2,,,73,100
73820,note_off,,,,,92,0,13,,,,,6,,,73,100
73824,note_on,,,,,4,0,13,,,,,6,,,76,100
73824,note_on,,,,,32,0,9,,,,,2,,,69,100
73828,note_off,,,,,100,0,8,,,,,1,,,76,100
73828,note_off,,,,,100,0,14,,,,,6,,,45,100
73828,note_off,,,,,100,0,11,,,,,4,,,45,100
73828,note_off,,,,,100,0,12,,,,,5,,,33,100
73864,note_off,,,,,136,0,16,,,,,7,,,45,100
73888,note_off,,,,,64,0,9,,,,,2,,,69,100
73916,note_off,,,,,92,0,13,,,,,6,,,76,100
73920,note_on,,,,,4,0,13,,,,,6,,,69,100
73920,note_on,,,,,56,0,16,,,,,7,,,57,100
73920,note_on,,,,,92,0,12,,,,,5,,,45,100
73920,note_on,,,,,92,0,14,,,,,6,,,57,100
73920,note_on,,,,,92,0,8,,,,,1,,,76,100
73920,note_on,,,,,32,0,9,,,,,2,,,64,100
73920,note_on,,,,,92,0,11,,,,,4,,,57,100
73984,note_off,,,,,64,0,9,,,,,2,,,64,100
73984,note_off,,,,,256,0,10,,,,,3,,,69,100
74012,note_off,,,,,92,0,13,,,,,6,,,69,100
74016,note_on,,,,,4,0,13,,,,,6,,,68,100
74016,note_on,,,,,32,0,9,,,,,2,,,69,100
74020,note_off,,,,,100,0,14,,,,,6,,,57,100
74020,note_off,,,,,100,0,8,,,,,1,,,76,100
74020,note_off,,,,,100,0,11,,,,,4,,,57,100
74020,note_off,,,,,100,0,12,,,,,5,,,45,100
74056,note_off,,,,,136,0,16,,,,,7,,,57,100
74080,note_off,,,,,64,0,9,,,,,2,,,69,100
74108,note_off,,,,,92,0,13,,,,,6,,,68,100
74112,note_on,,,,,92,0,8,,,,,1,,,76,100
74112,note_on,,,,,4,0,13,,,,,6,,,69,100
74112,note_on,,,,,92,0,14,,,,,6,,,57,100
74112,note_on,,,,,92,0,11,,,,,4,,,57,100
74112,note_on,,,,,56,0,16,,,,,7,,,57,100
74112,note_on,,,,,92,0,12,,,,,5,,,45,100
74112,note_on,,,,,32,0,9,,,,,2,,,73,100
74176,note_off,,,,,64,0,9,,,,,2,,,73,100
74204,note_off,,,,,92,0,13,,,,,6,,,69,100
74208,note_on,,,,,32,0,9,,,,,2,,,69,100
74208,note_on,,,,,4,0,13,,,,,6,,,64,100
74212,note_off,,,,,100,0,8,,,,,1,,,76,100
74212,note_off,,,,,100,0,14,,,,,6,,,57,100
74212,note_off,,,,,100,0,12,,,,,5,,,45,100
74212,note_off,,,,,100,0,11,,,,,4,,,57,100
74248,note_off,,,,,136,0,16,,,,,7,,,57,100
74272,note_off,,,,,64,0,9,,,,,2,,,69,100
74300,note_off,,,,,92,0,13,,,,,6,,,64,100
74304,note_on,,,,,32,0,9,,,,,2,,,64,100
74304,note_on,,,,,92,0,12,,,,,5,,,33,100
74304,note_on,,,,,56,0,16,,,,,7,,,45,100
74304,note_on,,,,,92,0,8,,,,,1,,,76,100
74304,note_on,,,,,320,0,10,,,,,3,,,57,100
74304,note_on,,,,,92,0,11,,,,,4,,,45,100
74304,note_on,,,,,4,0,13,,,,,6,,,61,100
74304,note_on,,,,,92,0,14,,,,,6,,,45,100
74368,note_off,,,,,64,0,9,,,,,2,,,64,100
74396,note_off,,,,,92,0,13,,,,,6,,,61,100
74400,note_on,,,,,4,0,13,,,,,6,,,64,100
74400,note_on,,,,,32,0,9,,,,,2,,,69,100
74404,note_off,,,,,100,0,10,,,,,3,,,57,100
74404,note_off,,,,,100,0,12,,,,,5,,,33,100
74404,note_off,,,,,100,0,11,,,,,4,,,45,100
74404,note_off,,,,,100,0,8,,,,,1,,,76,100
74404,note_off,,,,,100,0,14,,,,,6,,,45,100
74416,note_off,,,,,688,0,15,,,,,7,,,64,100
74416,note_off,,,,,0,0,15,,,,,7,,,69,100
74416,note_off,,,,,0,0,15,,,,,7,,,73,100
74440,note_off,,,,,136,0,16,,,,,7,,,45,100
74464,note_off,,,,,64,0,9,,,,,2,,,69,100
74492,note_off,,,,,92,0,13,,,,,6,,,64,100
74496,note_on,,,,,92,0,12,,,,,5,,,33,100
74496,note_on,,,,,92,0,8,,,,,1,,,76,100
74496,note_on,,,,,80,0,15,,,,,7,,,64,100
74496,note_on,,,,,0,0,15,,,,,7,,,69,100
74496,note_on,,,,,0,0,15,,,,,7,,,73,100
74496,note_on,,,,,92,0,11,,,,,4,,,45,100
74496,note_on,,,,,92,0,10,,,,,3,,,61,100
74496,note_on,,,,,32,0,9,,,,,2,,,76,100
74496,note_on,,,,,92,0,14,,,,,6,,,45,100
74496,note_on,,,,,56,0,16,,,,,7,,,45,100
74496,note_on,,,,,4,0,13,,,,,6,,,57,100
74560,note_off,,,,,64,0,8,,,,,1,,,76,100
74588,note_off,,,,,92,0,13,,,,,6,,,57,100
74592,note_on,,,,,32,0,8,,,,,1,,,73,100
74592,note_on,,,,,4,0,13,,,,,6,,,64,100
74596,note_off,,,,,100,0,11,,,,,4,,,45,100
74596,note_off,,,,,100,0,9,,,,,2,,,76,100
74596,note_off,,,,,100,0,12,,,,,5,,,33,100
74596,note_off,,,,,100,0,14,,,,,6,,,45,100
74596,note_off,,,,,100,0,10,,,,,3,,,61,100
74632,note_off,,,,,136,0,16,,,,,7,,,45,100
74656,note_off,,,,,64,0,8,,,,,1,,,73,100
74684,note_off,,,,,92,0,13,,,,,6,,,64,100
74688,note_on,,,,,56,0,16,,,,,7,,,57,100
74688,note_on,,,,,92,0,10,,,,,3,,,64,99
74688,note_on,,,,,92,0,12,,,,,5,,,45,99
74688,note_on,,,,,4,0,13,,,,,6,,,61,100
74688,note_on,,,,,92,0,14,,,,,6,,,57,100
74688,note_on,,,,,32,0,8,,,,,1,,,69,99
74688,note_on,,,,,92,0,9,,,,,2,,,76,99
74688,note_on,,,,,92,0,11,,,,,4,,,57,99
74752,note_off,,,,,64,0,8,,,,,1,,,69,100
74780,note_off,,,,,92,0,13,,,,,6,,,61,100
74784,note_on,,,,,4,0,13,,,,,6,,,64,100
74784,note_on,,,,,32,0,8,,,,,1,,,73,98
74788,note_off,,,,,100,0,14,,,,,6,,,57,100
74788,note_off,,,,,100,0,9,,,,,2,,,76,100
74788,note_off,,,,,100,0,10,,,,,3,,,64,100
74788,note_off,,,,,100,0,12,,,,,5,,,45,100
74788,note_off,,,,,100,0,11,,,,,4,,,57,100
74824,note_off,,,,,136,0,16,,,,,7,,,57,100
74848,note_off,,,,,64,0,8,,,,,1,,,73,100
74876,note_off,,,,,92,0,13,,,,,6,,,64,100
74880,note_on,,,,,56,0,16,,,,,7,,,57,100
74880,note_on,,,,,92,0,10,,,,,3,,,69,98
74880,note_on,,,,,92,0,9,,,,,2,,,76,98
74880,note_on,,,,,32,0,8,,,,,1,,,76,98
74880,note_on,,,,,92,0,12,,,,,5,,,45,98
74880,note_on,,,,,4,0,13,,,,,6,,,69,100
74880,note_on,,,,,92,0,14,,,,,6,,,57,100
74880,note_on,,,,,92,0,11,,,,,4,,,57,98
74944,note_off,,,,,64,0,8,,,,,1,,,76,100
74972,note_off,,,,,92,0,13,,,,,6,,,69,100
74976,note_on,,,,,32,0,8,,,,,1,,,73,97
74976,note_on,,,,,4,0,13,,,,,6,,,64,100
74980,note_off,,,,,100,0,9,,,,,2,,,76,100
74980,note_off,,,,,100,0,12,,,,,5,,,45,100
74980,note_off,,,,,100,0,14,,,,,6,,,57,100
74980,note_off,,,,,100,0,11,,,,,4,,,57,100
74980,note_off,,,,,100,0,10,,,,,3,,,69,100
75016,note_off,,,,,136,0,16,,,,,7,,,57,100
75040,note_off,,,,,64,0,8,,,,,1,,,73,100
75068,note_off,,,,,92,0,13,,,,,6,,,64,100
75072,note_on,,,,,92,0,9,,,,,2,,,76,96
75072,note_on,,,,,56,0,16,,,,,7,,,45,100
75072,note_on,,,,,4,0,13,,,,,6,,,61,100
75072,note_on,,,,,92,0,10,,,,,3,,,64,96
75072,note_on,,,,,92,0,11,,,,,4,,,45,96
75072,note_on,,,,,92,0,12,,,,,5,,,33,96
75072,note_on,,,,,92,0,14,,,,,6,,,45,100
75072,note_on,,,,,32,0,8,,,,,1,,,69,96
75136,note_off,,,,,64,0,8,,,,,1,,,69,100
75164,note_off,,,,,92,0,13,,,,,6,,,61,100
75168,note_on,,,,,32,0,8,,,,,1,,,73,96
75168,note_on,,,,,4,0,13,,,,,6,,,64,100
75172,note_off,,,,,100,0,14,,,,,6,,,45,100
75172,note_off,,,,,100,0,9,,,,,2,,,76,100
75172,note_off,,,,,100,0,12,,,,,5,,,33,100
75172,note_off,,,,,100,0,11,,,,,4,,,45,100
75172,note_off,,,,,100,0,10,,,,,3,,,64,100
75184,note_off,,,,,0,0,15,,,,,7,,,69,100
75184,note_off,,,,,688,0,15,,,,,7,,,64,100
75184,note_off,,,,,0,0,15,,,,,7,,,73,100
75208,note_off,,,,,136,0,16,,,,,7,,,45,100
75232,note_off,,,,,64,0,8,,,,,1,,,73,100
75260,note_off,,,,,92,0,13,,,,,6,,,64,100
75264,note_on,,,,,4,0,13,,,,,6,,,57,100
75264,note_on,,,,,92,0,14,,,,,6,,,45,100
75264,note_on,,,,,92,0,9,,,,,2,,,76,95
75264,note_on,,,,,32,0,8,,,,,1,,,76,95
75264,note_on,,,,,92,0,12,,,,,5,,,33,95
75264,note_on,,,,,92,0,10,,,,,3,,,61,95
75264,note_on,,,,,92,0,11,,,,,4,,,45,95
75264,note_on,,,,,56,0,16,,,,,7,,,45,100
75264,note_on,,,,,0,0,15,,,,,7,,,73,100
75264,note_on,,,,,0,0,15,,,,,7,,,69,100
75264,note_on,,,,,80,0,15,,,,,7,,,64,100
75328,note_off,,,,,64,0,9,,,,,2,,,76,100
75356,note_off,,,,,92,0,13,,,,,6,,,57,100
75360,note_on,,,,,4,0,13,,,,,6,,,64,100
75360,note_on,,,,,32,0,9,,,,,2,,,73,95
75364,note_off,,,,,100,0,12,,,,,5,,,33,100
75364,note_off,,,,,100,0,8,,,,,1,,,76,100
75364,note_off,,,,,100,0,11,,,,,4,,,45,100
75364,note_off,,,,,100,0,14,,,,,6,,,45,100
75364,note_off,,,,,100,0,10,,,,,3,,,61,100
75400,note_off,,,,,136,0,16,,,,,7,,,45,100
75424,note_off,,,,,64,0,9,,,,,2,,,73,100
75452,note_off,,,,,92,0,13,,,,,6,,,64,100
75456,note_on,,,,,32,0,9,,,,,2,,,69,95
75456,note_on,,,,,92,0,10,,,,,3,,,64,95
75456,note_on,,,,,4,0,13,,,,,6,,,69,100
75456,note_on,,,,,56,0,16,,,,,7,,,57,100
75456,note_on,,,,,92,0,14,,,,,6,,,57,100
75456,note_on,,,,,92,0,8,,,,,1,,,76,95
75456,note_on,,,,,92,0,11,,,,,4,,,57,95
75456,note_on,,,,,92,0,12,,,,,5,,,45,95
75520,note_off,,,,,64,0,9,,,,,2,,,69,100
75548,note_off,,,,,92,0,13,,,,,6,,,69,100
75552,note_on,,,,,4,0,13,,,,,6,,,68,100
75552,note_on,,,,,32,0,9,,,,,2,,,73,96
75556,note_off,,,,,100,0,8,,,,,1,,,76,100
75556,note_off,,,,,100,0,14,,,,,6,,,57,100
75556,note_off,,,,,100,0,12,,,,,5,,,45,100
75556,note_off,,,,,100,0,11,,,,,4,,,57,100
75556,note_off,,,,,100,0,10,,,,,3,,,64,100
75592,note_off,,,,,136,0,16,,,,,7,,,57,100
75616,note_off,,,,,64,0,9,,,,,2,,,73,100
75644,note_off,,,,,92,0,13,,,,,6,,,68,100
75648,note_on,,,,,92,0,8,,,,,1,,,76,96
75648,note_on,,,,,4,0,13,,,,,6,,,69,100
75648,note_on,,,,,92,0,14,,,,,6,,,57,100
75648,note_on,,,,,92,0,10,,,,,3,,,69,96
75648,note_on,,,,,92,0,12,,,,,5,,,45,96
75648,note_on,,,,,92,0,11,,,,,4,,,57,96
75648,note_on,,,,,32,0,9,,,,,2,,,76,96
75648,note_on,,,,,56,0,16,,,,,7,,,57,100
75712,note_off,,,,,64,0,9,,,,,2,,,76,100
75740,note_off,,,,,92,0,13,,,,,6,,,69,100
75744,note_on,,,,,32,0,9,,,,,2,,,73,97
75744,note_on,,,,,4,0,13,,,,,6,,,64,100
75748,note_off,,,,,100,0,10,,,,,3,,,69,100
75748,note_off,,,,,100,0,12,,,,,5,,,45,100
75748,note_off,,,,,100,0,8,,,,,1,,,76,100
75748,note_off,,,,,100,0,11,,,,,4,,,57,100
75748,note_off,,,,,100,0,14,,,,,6,,,57,100
75784,note_off,,,,,136,0,16,,,,,7,,,57,100
75808,note_off,,,,,64,0,9,,,,,2,,,73,100
75836,note_off,,,,,92,0,13,,,,,6,,,64,100
75840,note_on,,,,,4,0,13,,,,,6,,,61,100
75840,note_on,,,,,92,0,14,,,,,6,,,45,100
75840,note_on,,,,,56,0,16,,,,,7,,,45,100
75840,note_on,,,,,92,0,12,,,,,5,,,33,97
75840,note_on,,,,,92,0,11,,,,,4,,,45,97
75840,note_on,,,,,92,0,8,,,,,1,,,76,97
75840,note_on,,,,,92,0,10,,,,,3,,,64,97
75840,note_on,,,,,32,0,9,,,,,2,,,69,97
75904,note_off,,,,,64,0,9,,,,,2,,,69,100
75932,note_off,,,,,92,0,13,,,,,6,,,61,100
75936,note_on,,,,,32,0,9,,,,,2,,,73,98
75936,note_on,,,,,4,0,13,,,,,6,,,64,100
75940,note_off,,,,,100,0,11,,,,,4,,,45,100
75940,note_off,,,,,100,0,8,,,,,1,,,76,100
75940,note_off,,,,,100,0,12,,,,,5,,,33,100
75940,note_off,,,,,100,0,14,,,,,6,,,45,100
75940,note_off,,,,,100,0,10,,,,,3,,,64,100
75952,note_off,,,,,0,0,15,,,,,7,,,73,100
75952,note_off,,,,,0,0,15,,,,,7,,,69,100
75952,note_off,,,,,688,0,15,,,,,7,,,64,100
75976,note_off,,,,,136,0,16,,,,,7,,,45,100
76000,note_off,,,,,64,0,9,,,,,2,,,73,100
76028,note_off,,,,,92,0,13,,,,,6,,,64,100
76032,note_on,,,,,0,0,15,,,,,7,,,69,100
76032,note_on,,,,,32,0,9,,,,,2,,,76,98
76032,note_on,,,,,0,0,15,,,,,7,,,73,100
76032,note_on,,,,,92,0,11,,,,,4,,,45,98
76032,note_on,,,,,56,0,16,,,,,7,,,45,100
76032,note_on,,,,,92,0,12,,,,,5,,,33,98
76032,note_on,,,,,92,0,10,,,,,3,,,61,98
76032,note_on,,,,,92,0,8,,,,,1,,,76,98
76032,note_on,,,,,4,0,13,,,,,6,,,57,100
76032,note_on,,,,,80,0,15,,,,,7,,,64,100
76032,note_on,,,,,92,0,14,,,,,6,,,45,100
76096,note_off,,,,,64,0,8,,,,,1,,,76,100
76124,note_off,,,,,92,0,13,,,,,6,,,57,100
76128,note_on,,,,,4,0,13,,,,,6,,,64,100
76128,note_on,,,,,32,0,8,,,,,1,,,73,99
76132,note_off,,,,,100,0,11,,,,,4,,,45,100
76132,note_off,,,,,100,0,9,,,,,2,,,76,100
76132,note_off,,,,,100,0,10,,,,,3,,,61,100
76132,note_off,,,,,100,0,14,,,,,6,,,45,100
76132,note_off,,,,,100,0,12,,,,,5,,,33,100
76168,note_off,,,,,136,0,16,,,,,7,,,45,100
76192,note_off,,,,,64,0,8,,,,,1,,,73,100
76220,note_off,,,,,92,0,13,,,,,6,,,64,100
76224,note_on,,,,,92,0,12,,,,,5,,,45,99
76224,note_on,,,,,92,0,14,,,,,6,,,57,100
76224,note_on,,,,,32,0,8,,,,,1,,,69,99
76224,note_on,,,,,56,0,16,,,,,7,,,57,100
76224,note_on,,,,,92,0,11,,,,,4,,,57,99
76224,note_on,,,,,4,0,13,,,,,6,,,61,100
76224,note_on,,,,,92,0,10,,,,,3,,,64,99
76224,note_on,,,,,92,0,9,,,,,2,,,76,99
76288,note_off,,,,,64,0,8,,,,,1,,,69,100
76316,note_off,,,,,92,0,13,,,,,6,,,61,100
76320,note_on,,,,,32,0,8,,,,,1,,,73,100
76320,note_on,,,,,4,0,13,,,,,6,,,64,100
76324,note_off,,,,,100,0,10,,,,,3,,,64,100
76324,note_off,,,,,100,0,14,,,,,6,,,57,100
76324,note_off,,,,,100,0,9,,,,,2,,,76,100
76324,note_off,,,,,100,0,11,,,,,4,,,57,100
76324,note_off,,,,,100,0,12,,,,,5,,,45,100
76360,note_off,,,,,136,0,16,,,,,7,,,57,100
76384,note_off,,,,,64,0,8,,,,,1,,,73,100
76412,note_off,,,,,92,0,13,,,,,6,,,64,100
76416,note_on,,,,,92,0,14,,,,,6,,,57,100
76416,note_on,,,,,32,0,8,,,,,1,,,76,100
76416,note_on,,,,,56,0,16,,,,,7,,,57,100
76416,note_on,,,,,92,0,12,,,,,5,,,45,100
76416,note_on,,,,,92,0,11,,,,,4,,,57,100
76416,note_on,,,,,4,0,13,,,,,6,,,69,100
76416,note_on,,,,,92,0,9,,,,,2,,,76,100
76416,note_on,,,,,92,0,10,,,,,3,,,69,100
76480,note_off,,,,,64,0,8,,,,,1,,,76,100
76508,note_off,,,,,92,0,13,,,,,6,,,69,100
76512,note_on,,,,,4,0,13,,,,,6,,,64,100
76512,note_on,,,,,32,0,8,,,,,1,,,73,101
76516,note_off,,,,,100,0,9,,,,,2,,,76,100
76516,note_off,,,,,100,0,10,,,,,3,,,69,100
76516,note_off,,,,,100,0,11,,,,,4,,,57,100
76516,note_off,,,,,100,0,12,,,,,5,,,45,100
76516,note_off,,,,,100,0,14,,,,,6,,,57,100
76552,note_off,,,,,136,0,16,,,,,7,,,57,100
76576,note_off,,,,,64,0,8,,,,,1,,,73,100
76604,note_off,,,,,92,0,13,,,,,6,,,64,100
76608,note_on,,,,,32,0,8,,,,,1,,,69,101
76608,note_on,,,,,92,0,9,,,,,2,,,76,101
76608,note_on,,,,,92,0,14,,,,,6,,,45,100
76608,note_on,,,,,92,0,12,,,,,5,,,33,101
76608,note_on,,,,,56,0,16,,,,,7,,,45,100
76608,note_on,,,,,92,0,10,,,,,3,,,61,101
76608,note_on,,,,,92,0,11,,,,,4,,,45,101
76608,note_on,,,,,4,0,13,,,,,6,,,61,100
76672,note_off,,,,,64,0,8,,,,,1,,,69,100
76700,note_off,,,,,92,0,13,,,,,6,,,61,100
76704,note_on,,,,,4,0,13,,,,,6,,,64,100
76704,note_on,,,,,32,0,8,,,,,1,,,76,102
76708,note_off,,,,,100,0,9,,,,,2,,,76,100
76708,note_off,,,,,100,0,12,,,,,5,,,33,100
76708,note_off,,,,,100,0,10,,,,,3,,,61,100
76708,note_off,,,,,100,0,11,,,,,4,,,45,100
76708,note_off,,,,,100,0,14,,,,,6,,,45,100
76720,note_off,,,,,0,0,15,,,,,7,,,69,100
76720,note_off,,,,,688,0,15,,,,,7,,,64,100
76720,note_off,,,,,0,0,15,,,,,7,,,73,100
76744,note_off,,,,,136,0,16,,,,,7,,,45,100
76768,note_off,,,,,64,0,8,,,,,1,,,76,100
76796,note_off,,,,,92,0,13,,,,,6,,,64,100
76800,note_on,,,,,0,0,13,,,,,6,,,65,100
76800,note_on,,,,,32,0,8,,,,,1,,,77,102
76800,note_on,,,,,92,0,11,,,,,4,,,50,102
76800,note_on,,,,,92,0,12,,,,,5,,,38,102
76800,note_on,,,,,92,0,14,,,,,6,,,50,100
76800,note_on,,,,,4,0,13,,,,,6,,,62,100
76800,note_on,,,,,80,0,15,,,,,7,,,74,100
76800,note_on,,,,,92,0,10,,,,,3,,,57,102
76800,note_on,,,,,0,0,15,,,,,7,,,65,100
76800,note_on,,,,,0,0,15,,,,,7,,,62,100
76800,note_on,,,,,56,0,16,,,,,7,,,50,100
76800,note_on,,,,,92,0,9,,,,,2,,,74,102
76900,note_off,,,,,100,0,11,,,,,4,,,50,100
76900,note_off,,,,,100,0,14,,,,,6,,,50,100
76900,note_off,,,,,100,0,12,,,,,5,,,38,100
76900,note_off,,,,,100,0,8,,,,,1,,,77,100
76936,note_off,,,,,136,0,16,,,,,7,,,50,100
76992,note_on,,,,,56,0,16,,,,,7,,,62,100
76992,note_on,,,,,92,0,12,,,,,5,,,50,100
76992,note_on,,,,,92,0,14,,,,,6,,,62,100
76992,note_on,,,,,92,0,8,,,,,1,,,74,100
76992,note_on,,,,,92,0,11,,,,,4,,,62,100
77056,note_off,,,,,256,0,13,,,,,6,,,62,100
77056,note_off,,,,,0,0,13,,,,,6,,,65,100
77056,note_off,,,,,256,0,10,,,,,3,,,57,100
77056,note_off,,,,,256,0,9,,,,,2,,,74,100
77056,note_off,,,,,256,0,15,,,,,7,,,74,100
77092,note_off,,,,,100,0,11,,,,,4,,,62,100
77092,note_off,,,,,100,0,8,,,,,1,,,74,100
77092,note_off,,,,,100,0,14,,,,,6,,,62,100
77092,note_off,,,,,100,0,12,,,,,5,,,50,100
77100,note_off,,,,,44,0,15,,,,,7,,,62,100
77100,note_off,,,,,0,0,15,,,,,7,,,65,100
77128,note_off,,,,,136,0,16,,,,,7,,,62,100
77184,note_on,,,,,92,0,14,,,,,6,,,62,100
77184,note_on,,,,,56,0,16,,,,,7,,,62,100
77184,note_on,,,,,92,0,11,,,,,4,,,62,100
77184,note_on,,,,,84,0,15,,,,,7,,,65,100
77184,note_on,,,,,0,0,15,,,,,7,,,69,100
77184,note_on,,,,,0,0,13,,,,,6,,,69,100
77184,note_on,,,,,128,0,13,,,,,6,,,65,100
77184,note_on,,,,,92,0,12,,,,,5,,,50,100
77284,note_off,,,,,100,0,12,,,,,5,,,50,100
77284,note_off,,,,,100,0,14,,,,,6,,,62,100
77284,note_off,,,,,100,0,11,,,,,4,,,62,100
77320,note_off,,,,,136,0,16,,,,,7,,,62,100
77376,note_on,,,,,56,0,16,,,,,7,,,50,100
77376,note_on,,,,,92,0,11,,,,,4,,,50,100
77376,note_on,,,,,284,0,8,,,,,1,,,77,100
77376,note_on,,,,,92,0,12,,,,,5,,,38,100
77376,note_on,,,,,92,0,14,,,,,6,,,50,100
77440,note_off,,,,,256,0,13,,,,,6,,,65,100
77440,note_off,,,,,0,0,13,,,,,6,,,69,100
77476,note_off,,,,,100,0,11,,,,,4,,,50,100
77476,note_off,,,,,100,0,12,,,,,5,,,38,100
77476,note_off,,,,,100,0,14,,,,,6,,,50,100
77484,note_off,,,,,0,0,15,,,,,7,,,69,100
77484,note_off,,,,,300,0,15,,,,,7,,,65,100
77504,note_off,,,,,128,0,8,,,,,1,,,77,100
77512,note_off,,,,,136,0,16,,,,,7,,,50,100
77568,note_on,,,,,56,0,16,,,,,7,,,43,100
77568,note_on,,,,,92,0,14,,,,,6,,,43,100
77568,note_on,,,,,92,0,11,,,,,4,,,43,101
77568,note_on,,,,,84,0,15,,,,,7,,,62,100
77568,note_on,,,,,92,0,12,,,,,5,,,31,101
77568,note_on,,,,,64,0,8,,,,,1,,,82,101
77568,note_on,,,,,128,0,13,,,,,6,,,62,100
77568,note_on,,,,,0,0,13,,,,,6,,,70,100
77568,note_on,,,,,0,0,15,,,,,7,,,70,100
77668,note_off,,,,,100,0,11,,,,,4,,,43,100
77668,note_off,,,,,100,0,14,,,,,6,,,43,100
77668,note_off,,,,,100,0,12,,,,,5,,,31,100
77696,note_off,,,,,128,0,8,,,,,1,,,82,100
77704,note_off,,,,,136,0,16,,,,,7,,,43,100
77760,note_on,,,,,92,0,12,,,,,5,,,43,102
77760,note_on,,,,,704,0,10,,,,,3,,,67,102
77760,note_on,,,,,56,0,16,,,,,7,,,55,100
77760,note_on,,,,,92,0,14,,,,,6,,,55,100
77760,note_on,,,,,64,0,8,,,,,1,,,82,102
77760,note_on,,,,,92,0,11,,,,,4,,,55,102
77824,note_off,,,,,0,0,13,,,,,6,,,70,100
77824,note_off,,,,,256,0,13,,,,,6,,,62,100
77860,note_off,,,,,100,0,12,,,,,5,,,43,100
77860,note_off,,,,,100,0,14,,,,,6,,,55,100
77860,note_off,,,,,100,0,11,,,,,4,,,55,100
77860,note_off,,,,,100,0,10,,,,,3,,,67,100
77868,note_off,,,,,0,0,15,,,,,7,,,70,100
77868,note_off,,,,,300,0,15,,,,,7,,,62,100
77888,note_off,,,,,128,0,8,,,,,1,,,82,100
77896,note_off,,,,,136,0,16,,,,,7,,,55,100
77952,note_on,,,,,92,0,14,,,,,6,,,55,100
77952,note_on,,,,,64,0,8,,,,,1,,,82,104
77952,note_on,,,,,0,0,13,,,,,6,,,74,100
77952,note_on,,,,,128,0,13,,,,,6,,,70,100
77952,note_on,,,,,0,0,15,,,,,7,,,74,100
77952,note_on,,,,,84,0,15,,,,,7,,,70,100
77952,note_on,,,,,92,0,11,,,,,4,,,55,104
77952,note_on,,,,,56,0,16,,,,,7,,,55,100
77952,note_on,,,,,92,0,10,,,,,3,,,74,104
77952,note_on,,,,,92,0,12,,,,,5,,,43,104
78052,note_off,,,,,100,0,10,,,,,3,,,74,100
78052,note_off,,,,,100,0,11,,,,,4,,,55,100
78052,note_off,,,,,100,0,14,,,,,6,,,55,100
78052,note_off,,,,,100,0,12,,,,,5,,,43,100
78080,note_off,,,,,128,0,8,,,,,1,,,82,100
78088,note_off,,,,,136,0,16,,,,,7,,,55,100
78144,note_on,,,,,92,0,11,,,,,4,,,43,105
78144,note_on,,,,,1088,0,9,,,,,2,,,70,105
78144,note_on,,,,,56,0,16,,,,,7,,,43,100
78144,note_on,,,,,92,0,10,,,,,3,,,67,105
78144,note_on,,,,,92,0,14,,,,,6,,,43,100
78144,note_on,,,,,92,0,12,,,,,5,,,31,105
78144,note_on,,,,,64,0,8,,,,,1,,,82,105
78208,note_off,,,,,256,0,13,,,,,6,,,74,100
78244,note_off,,,,,100,0,14,,,,,6,,,43,100
78244,note_off,,,,,100,0,12,,,,,5,,,31,100
78244,note_off,,,,,100,0,10,,,,,3,,,67,100
78244,note_off,,,,,100,0,11,,,,,4,,,43,100
78252,note_off,,,,,300,0,15,,,,,7,,,74,100
78272,note_off,,,,,128,0,9,,,,,2,,,70,100
78272,note_off,,,,,128,0,8,,,,,1,,,82,100
78280,note_off,,,,,136,0,16,,,,,7,,,43,100
78336,note_on,,,,,92,0,12,,,,,5,,,36,107
78336,note_on,,,,,92,0,11,,,,,4,,,48,107
78336,note_on,,,,,128,0,13,,,,,6,,,75,100
78336,note_on,,,,,92,0,14,,,,,6,,,48,100
78336,note_on,,,,,84,0,15,,,,,7,,,75,100
78336,note_on,,,,,92,0,10,,,,,3,,,67,107
78336,note_on,,,,,56,0,16,,,,,7,,,48,100
78336,note_on,,,,,64,0,8,,,,,1,,,82,107
78336,note_on,,,,,64,0,9,,,,,2,,,75,107
78400,note_off,,,,,64,0,8,,,,,1,,,82,100
78432,note_on,,,,,32,0,8,,,,,1,,,79,107
78436,note_off,,,,,100,0,12,,,,,5,,,36,100
78436,note_off,,,,,100,0,14,,,,,6,,,48,100
78436,note_off,,,,,100,0,10,,,,,3,,,67,100
78436,note_off,,,,,100,0,11,,,,,4,,,48,100
78464,note_off,,,,,128,0,9,,,,,2,,,75,100
78472,note_off,,,,,136,0,16,,,,,7,,,48,100
78496,note_off,,,,,64,0,8,,,,,1,,,79,100
78528,note_on,,,,,64,0,9,,,,,2,,,75,106
78528,note_on,,,,,32,0,8,,,,,1,,,75,106
78528,note_on,,,,,92,0,10,,,,,3,,,67,106
78528,note_on,,,,,92,0,14,,,,,6,,,60,100
78528,note_on,,,,,92,0,12,,,,,5,,,48,106
78528,note_on,,,,,56,0,16,,,,,7,,,60,100
78528,note_on,,,,,92,0,11,,,,,4,,,60,106
78592,note_off,,,,,64,0,8,,,,,1,,,75,100
78592,note_off,,,,,256,0,13,,,,,6,,,70,100
78624,note_on,,,,,32,0,8,,,,,1,,,79,105
78628,note_off,,,,,100,0,11,,,,,4,,,60,100
78628,note_off,,,,,100,0,10,,,,,3,,,67,100
78628,note_off,,,,,100,0,12,,,,,5,,,48,100
78628,note_off,,,,,100,0,14,,,,,6,,,60,100
78636,note_off,,,,,300,0,15,,,,,7,,,70,100
78656,note_off,,,,,128,0,9,,,,,2,,,75,100
78664,note_off,,,,,136,0,16,,,,,7,,,60,100
78688,note_off,,,,,64,0,8,,,,,1,,,79,100
78720,note_on,,,,,92,0,10,,,,,3,,,67,104
78720,note_on,,,,,32,0,8,,,,,1,,,82,104
78720,note_on,,,,,84,0,15,,,,,7,,,67,100
78720,note_on,,,,,92,0,11,,,,,4,,,60,104
78720,note_on,,,,,64,0,9,,,,,2,,,75,104
78720,note_on,,,,,56,0,16,,,,,7,,,60,100
78720,note_on,,,,,92,0,14,,,,,6,,,60,100
78720,note_on,,,,,128,0,13,,,,,6,,,67,100
78720,note_on,,,,,92,0,12,,,,,5,,,48,104
78784,note_off,,,,,64,0,8,,,,,1,,,82,100
78816,note_on,,,,,32,0,8,,,,,1,,,79,103
78820,note_off,,,,,100,0,11,,,,,4,,,60,100
78820,note_off,,,,,100,0,12,,,,,5,,,48,100
78820,note_off,,,,,100,0,14,,,,,6,,,60,100
78848,note_off,,,,,128,0,9,,,,,2,,,75,100
78856,note_off,,,,,136,0,16,,,,,7,,,60,100
78880,note_off,,,,,64,0,8,,,,,1,,,79,100
78908,note_off,,,,,188,0,10,,,,,3,,,67,100
78912,note_on,,,,,4,0,10,,,,,3,,,60,102
78912,note_on,,,,,92,0,12,,,,,5,,,36,102
78912,note_on,,,,,56,0,16,,,,,7,,,48,100
78912,note_on,,,,,92,0,11,,,,,4,,,48,102
78912,note_off,,,,,192,0,13,,,,,6,,,67,100
78912,note_on,,,,,92,0,14,,,,,6,,,48,100
78912,note_on,,,,,0,0,13,,,,,6,,,70,100
78912,note_on,,,,,0,0,15,,,,,7,,,70,100
78912,note_off,,,,,192,0,15,,,,,7,,,67,100
78912,note_on,,,,,64,0,9,,,,,2,,,75,102
78912,note_on,,,,,32,0,8,,,,,1,,,75,102
78976,note_off,,,,,64,0,8,,,,,1,,,75,100
79008,note_on,,,,,32,0,8,,,,,1,,,79,101
79012,note_off,,,,,100,0,11,,,,,4,,,48,100
79012,note_off,,,,,100,0,14,,,,,6,,,48,100
79012,note_off,,,,,100,0,12,,,,,5,,,36,100
79040,note_off,,,,,128,0,9,,,,,2,,,75,100
79040,note_off,,,,,128,0,10,,,,,3,,,60,100
79048,note_off,,,,,136,0,16,,,,,7,,,48,100
79072,note_off,,,,,64,0,8,,,,,1,,,79,100
79104,note_on,,,,,64,0,9,,,,,2,,,75,105
79104,note_on,,,,,64,0,10,,,,,3,,,60,105
79104,note_on,,,,,32,0,8,,,,,1,,,81,105
79104,note_on,,,,,92,0,14,,,,,6,,,41,100
79104,note_on,,,,,56,0,16,,,,,7,,,41,100
79104,note_off,,,,,192,0,15,,,,,7,,,75,100
79104,note_off,,,,,0,0,15,,,,,7,,,70,100
79104,note_on,,,,,92,0,11,,,,,4,,,41,105
79104,note_on,,,,,0,0,15,,,,,7,,,69,100
79104,note_on,,,,,92,0,12,,,,,5,,,41,105
79104,note_on,,,,,0,0,13,,,,,6,,,69,100
79104,note_off,,,,,0,0,13,,,,,6,,,70,100
79104,note_off,,,,,192,0,13,,,,,6,,,75,100
79168,note_off,,,,,64,0,9,,,,,2,,,75,100
79200,note_on,,,,,32,0,9,,,,,2,,,72,104
79204,note_off,,,,,100,0,11,,,,,4,,,41,100
79204,note_off,,,,,100,0,10,,,,,3,,,60,100
79204,note_off,,,,,100,0,12,,,,,5,,,41,100
79204,note_off,,,,,100,0,14,,,,,6,,,41,100
79232,note_off,,,,,128,0,8,,,,,1,,,81,100
79240,note_off,,,,,136,0,16,,,,,7,,,41,100
79264,note_off,,,,,64,0,9,,,,,2,,,72,100
79296,note_on,,,,,64,0,8,,,,,1,,,81,103
79296,note_on,,,,,92,0,12,,,,,5,,,41,103
79296,note_on,,,,,92,0,14,,,,,6,,,53,100
79296,note_on,,,,,92,0,11,,,,,4,,,53,103
79296,note_on,,,,,56,0,16,,,,,7,,,53,100
79296,note_on,,,,,32,0,9,,,,,2,,,69,103
79296,note_on,,,,,92,0,10,,,,,3,,,60,103
79360,note_off,,,,,64,0,9,,,,,2,,,69,100
79392,note_on,,,,,32,0,9,,,,,2,,,72,102
79396,note_off,,,,,100,0,14,,,,,6,,,53,100
79396,note_off,,,,,100,0,11,,,,,4,,,53,100
79396,note_off,,,,,100,0,10,,,,,3,,,60,100
79396,note_off,,,,,100,0,12,,,,,5,,,41,100
79424,note_off,,,,,128,0,8,,,,,1,,,81,100
79432,note_off,,,,,136,0,16,,,,,7,,,53,100
79456,note_off,,,,,64,0,9,,,,,2,,,72,100
79488,note_on,,,,,32,0,9,,,,,2,,,75,101
79488,note_on,,,,,56,0,16,,,,,7,,,53,100
79488,note_on,,,,,92,0,14,,,,,6,,,53,100
79488,note_on,,,,,384,0,15,,,,,7,,,72,100
79488,note_on,,,,,92,0,12,,,,,5,,,41,101
79488,note_on,,,,,64,0,8,,,,,1,,,81,101
79488,note_on,,,,,92,0,11,,,,,4,,,53,101
79488,note_on,,,,,92,0,10,,,,,3,,,60,101
79488,note_on,,,,,384,0,13,,,,,6,,,72,100
79552,note_off,,,,,64,0,9,,,,,2,,,75,100
79584,note_on,,,,,32,0,9,,,,,2,,,72,100
79588,note_off,,,,,100,0,11,,,,,4,,,53,100
79588,note_off,,,,,100,0,14,,,,,6,,,53,100
79588,note_off,,,,,100,0,12,,,,,5,,,41,100
79616,note_off,,,,,128,0,8,,,,,1,,,81,100
79624,note_off,,,,,136,0,16,,,,,7,,,53,100
79648,note_off,,,,,64,0,9,,,,,2,,,72,100
79676,note_off,,,,,188,0,10,,,,,3,,,60,100
79680,note_on,,,,,92,0,11,,,,,4,,,41,99
79680,note_on,,,,,92,0,14,,,,,6,,,41,100
79680,note_on,,,,,32,0,9,,,,,2,,,69,99
79680,note_on,,,,,92,0,12,,,,,5,,,41,99
79680,note_off,,,,,192,0,13,,,,,6,,,72,100
79680,note_on,,,,,56,0,16,,,,,7,,,41,100
79680,note_on,,,,,64,0,8,,,,,1,,,81,99
79680,note_on,,,,,4,0,10,,,,,3,,,65,99
79680,note_on,,,,,0,0,13,,,,,6,,,75,100
79680,note_on,,,,,0,0,15,,,,,7,,,75,100
79680,note_off,,,,,192,0,15,,,,,7,,,72,100
79744,note_off,,,,,64,0,9,,,,,2,,,69,100
79776,note_on,,,,,32,0,9,,,,,2,,,72,100
79780,note_off,,,,,100,0,12,,,,,5,,,41,100
79780,note_off,,,,,100,0,14,,,,,6,,,41,100
79780,note_off,,,,,100,0,11,,,,,4,,,41,100
79808,note_off,,,,,128,0,8,,,,,1,,,81,100
79808,note_off,,,,,128,0,10,,,,,3,,,65,100
79816,note_off,,,,,136,0,16,,,,,7,,,41,100
79840,note_off,,,,,64,0,9,,,,,2,,,72,100
79872,note_off,,,,,192,0,15,,,,,7,,,75,100
79872,note_on,,,,,0,0,13,,,,,6,,,74,100
79872,note_on,,,,,0,0,15,,,,,7,,,74,100
79872,note_on,,,,,32,0,9,,,,,2,,,74,103
79872,note_off,,,,,192,0,13,,,,,6,,,75,100
79872,note_on,,,,,92,0,14,,,,,6,,,46,100
79872,note_on,,,,,64,0,8,,,,,1,,,81,103
79872,note_on,,,,,92,0,11,,,,,4,,,46,103
79872,note_on,,,,,92,0,12,,,,,5,,,34,103
79872,note_on,,,,,56,0,16,,,,,7,,,46,100
79872,note_on,,,,,64,0,10,,,,,3,,,65,103
79936,note_off,,,,,64,0,8,,,,,1,,,81,100
79968,note_on,,,,,32,0,8,,,,,1,,,77,103
79972,note_off,,,,,100,0,14,,,,,6,,,46,100
79972,note_off,,,,,100,0,11,,,,,4,,,46,100
79972,note_off,,,,,100,0,10,,,,,3,,,65,100
79972,note_off,,,,,100,0,12,,,,,5,,,34,100
80000,note_off,,,,,128,0,9,,,,,2,,,74,100
80008,note_off,,,,,136,0,16,,,,,7,,,46,100
80032,note_off,,,,,64,0,8,,,,,1,,,77,100
80064,note_on,,,,,64,0,9,,,,,2,,,74,102
80064,note_on,,,,,92,0,14,,,,,6,,,58,100
80064,note_on,,,,,56,0,16,,,,,7,,,58,100
80064,note_on,,,,,92,0,12,,,,,5,,,46,102
80064,note_on,,,,,32,0,8,,,,,1,,,74,102
80064,note_on,,,,,92,0,11,,,,,4,,,58,102
80064,note_on,,,,,92,0,10,,,,,3,,,65,102
80128,note_off,,,,,256,0,13,,,,,6,,,69,100
80128,note_off,,,,,64,0,8,,,,,1,,,74,100
80160,note_on,,,,,32,0,8,,,,,1,,,77,101
80164,note_off,,,,,100,0,12,,,,,5,,,46,100
80164,note_off,,,,,100,0,11,,,,,4,,,58,100
80164,note_off,,,,,100,0,10,,,,,3,,,65,100
80164,note_off,,,,,100,0,14,,,,,6,,,58,100
80172,note_off,,,,,300,0,15,,,,,7,,,69,100
80192,note_off,,,,,128,0,9,,,,,2,,,74,100
80200,note_off,,,,,136,0,16,,,,,7,,,58,100
80224,note_off,,,,,64,0,8,,,,,1,,,77,100
80256,note_on,,,,,92,0,14,,,,,6,,,58,100
80256,note_on,,,,,128,0,13,,,,,6,,,65,100
80256,note_on,,,,,64,0,9,,,,,2,,,74,100
80256,note_on,,,,,32,0,8,,,,,1,,,81,100
80256,note_on,,,,,92,0,11,,,,,4,,,58,100
80256,note_on,,,,,84,0,15,,,,,7,,,65,100
80256,note_on,,,,,56,0,16,,,,,7,,,58,100
80256,note_on,,,,,92,0,12,,,,,5,,,46,100
80256,note_on,,,,,92,0,10,,,,,3,,,65,100
80320,note_off,,,,,64,0,8,,,,,1,,,81,100
80352,note_on,,,,,32,0,8,,,,,1,,,77,99
80356,note_off,,,,,100,0,12,,,,,5,,,46,100
80356,note_off,,,,,100,0,11,,,,,4,,,58,100
80356,note_off,,,,,100,0,14,,,,,6,,,58,100
80384,note_off,,,,,128,0,9,,,,,2,,,74,100
80392,note_off,,,,,136,0,16,,,,,7,,,58,100
80416,note_off,,,,,64,0,8,,,,,1,,,77,100
80444,note_off,,,,,188,0,10,,,,,3,,,65,100
80448,note_on,,,,,0,0,13,,,,,6,,,69,100
80448,note_on,,,,,0,0,15,,,,,7,,,69,100
80448,note_off,,,,,192,0,15,,,,,7,,,65,100
80448,note_on,,,,,32,0,8,,,,,1,,,74,98
80448,note_on,,,,,92,0,14,,,,,6,,,46,100
80448,note_on,,,,,64,0,9,,,,,2,,,74,98
80448,note_on,,,,,92,0,11,,,,,4,,,46,98
80448,note_on,,,,,56,0,16,,,,,7,,,46,100
80448,note_on,,,,,92,0,12,,,,,5,,,34,98
80448,note_on,,,,,4,0,10,,,,,3,,,58,98
80448,note_off,,,,,192,0,13,,,,,6,,,65,100
80512,note_off,,,,,64,0,8,,,,,1,,,74,100
80544,note_on,,,,,32,0,8,,,,,1,,,77,97
80548,note_off,,,,,100,0,11,,,,,4,,,46,100
80548,note_off,,,,,100,0,14,,,,,6,,,46,100
80548,note_off,,,,,100,0,12,,,,,5,,,34,100
80576,note_off,,,,,128,0,10,,,,,3,,,58,100
80576,note_off,,,,,128,0,9,,,,,2,,,74,100
80584,note_off,,,,,136,0,16,,,,,7,,,46,100
80608,note_off,,,,,64,0,8,,,,,1,,,77,100
80640,note_on,,,,,64,0,9,,,,,2,,,74,101
80640,note_off,,,,,0,0,13,,,,,6,,,69,100
80640,note_off,,,,,192,0,13,,,,,6,,,74,100
80640,note_on,,,,,92,0,11,,,,,4,,,39,101
80640,note_on,,,,,0,0,15,,,,,7,,,67,100
80640,note_on,,,,,56,0,16,,,,,7,,,39,100
80640,note_on,,,,,0,0,13,,,,,6,,,67,100
80640,note_on,,,,,92,0,14,,,,,6,,,39,100
80640,note_off,,,,,192,0,15,,,,,7,,,74,100
80640,note_off,,,,,0,0,15,,,,,7,,,69,100
80640,note_on,,,,,92,0,12,,,,,5,,,39,101
80640,note_on,,,,,64,0,10,,,,,3,,,58,101
80640,note_on,,,,,32,0,8,,,,,1,,,79,101
80704,note_off,,,,,64,0,9,,,,,2,,,74,100
80736,note_on,,,,,32,0,9,,,,,2,,,70,100
80740,note_off,,,,,100,0,10,,,,,3,,,58,100
80740,note_off,,,,,100,0,12,,,,,5,,,39,100
80740,note_off,,,,,100,0,14,,,,,6,,,39,100
80740,note_off,,,,,100,0,11,,,,,4,,,39,100
80768,note_off,,,,,128,0,8,,,,,1,,,79,100
80776,note_off,,,,,136,0,16,,,,,7,,,39,100
80800,note_off,,,,,64,0,9,,,,,2,,,70,100
80832,note_on,,,,,64,0,8,,,,,1,,,79,99
80832,note_on,,,,,92,0,11,,,,,4,,,51,99
80832,note_on,,,,,92,0,14,,,,,6,,,51,100
80832,note_on,,,,,56,0,16,,,,,7,,,51,100
80832,note_on,,,,,92,0,12,,,,,5,,,39,99
80832,note_on,,,,,92,0,10,,,,,3,,,58,99
80832,note_on,,,,,32,0,9,,,,,2,,,67,99
80896,note_off,,,,,64,0,9,,,,,2,,,67,100
80928,note_on,,,,,32,0,9,,,,,2,,,70,98
80932,note_off,,,,,100,0,10,,,,,3,,,58,100
80932,note_off,,,,,100,0,12,,,,,5,,,39,100
80932,note_off,,,,,100,0,14,,,,,6,,,51,100
80932,note_off,,,,,100,0,11,,,,,4,,,51,100
80960,note_off,,,,,128,0,8,,,,,1,,,79,100
80968,note_off,,,,,136,0,16,,,,,7,,,51,100
80992,note_off,,,,,64,0,9,,,,,2,,,70,100
81024,note_on,,,,,32,0,9,,,,,2,,,74,97
81024,note_on,,,,,384,0,13,,,,,6,,,70,100
81024,note_on,,,,,56,0,16,,,,,7,,,51,100
81024,note_on,,,,,92,0,14,,,,,6,,,51,100
81024,note_on,,,,,384,0,15,,,,,7,,,70,100
81024,note_on,,,,,92,0,12,,,,,5,,,39,97
81024,note_on,,,,,64,0,8,,,,,1,,,79,97
81024,note_on,,,,,92,0,10,,,,,3,,,58,97
81024,note_on,,,,,92,0,11,,,,,4,,,51,97
81088,note_off,,,,,64,0,9,,,,,2,,,74,100
81120,note_on,,,,,32,0,9,,,,,2,,,70,96
81124,note_off,,,,,100,0,14,,,,,6,,,51,100
81124,note_off,,,,,100,0,12,,,,,5,,,39,100
81124,note_off,,,,,100,0,11,,,,,4,,,51,100
81152,note_off,,,,,128,0,8,,,,,1,,,79,100
81160,note_off,,,,,136,0,16,,,,,7,,,51,100
81184,note_off,,,,,64,0,9,,,,,2,,,70,100
81212,note_off,,,,,188,0,10,,,,,3,,,58,100
81216,note_off,,,,,192,0,13,,,,,6,,,70,100
81216,note_on,,,,,0,0,13,,,,,6,,,74,100
81216,note_on,,,,,92,0,11,,,,,4,,,39,95
81216,note_on,,,,,64,0,8,,,,,1,,,79,95
81216,note_on,,,,,4,0,10,,,,,3,,,63,95
81216,note_on,,,,,32,0,9,,,,,2,,,67,95
81216,note_on,,,,,56,0,16,,,,,7,,,39,100
81216,note_on,,,,,0,0,15,,,,,7,,,74,100
81216,note_off,,,,,192,0,15,,,,,7,,,70,100
81216,note_on,,,,,92,0,12,,,,,5,,,39,95
81216,note_on,,,,,92,0,14,,,,,6,,,39,100
81280,note_off,,,,,64,0,9,,,,,2,,,67,100
81312,note_on,,,,,32,0,9,,,,,2,,,70,95
81316,note_off,,,,,100,0,14,,,,,6,,,39,100
81316,note_off,,,,,100,0,11,,,,,4,,,39,100
81316,note_off,,,,,100,0,12,,,,,5,,,39,100
81344,note_off,,,,,128,0,10,,,,,3,,,63,100
81344,note_off,,,,,128,0,8,,,,,1,,,79,100
81352,note_off,,,,,136,0,16,,,,,7,,,39,100
81376,note_off,,,,,64,0,9,,,,,2,,,70,100
81408,note_off,,,,,192,0,15,,,,,7,,,74,100
81408,note_on,,,,,92,0,14,,,,,6,,,45,100
81408,note_on,,,,,0,0,15,,,,,7,,,72,100
81408,note_on,,,,,92,0,12,,,,,5,,,33,99
81408,note_on,,,,,64,0,8,,,,,1,,,79,99
81408,note_on,,,,,92,0,11,,,,,4,,,45,99
81408,note_on,,,,,64,0,10,,,,,3,,,63,99
81408,note_on,,,,,0,0,13,,,,,6,,,72,100
81408,note_off,,,,,192,0,13,,,,,6,,,74,100
81408,note_on,,,,,32,0,9,,,,,2,,,72,99
81408,note_on,,,,,56,0,16,,,,,7,,,45,100
81472,note_off,,,,,64,0,8,,,,,1,,,79,100
81504,note_on,,,,,32,0,8,,,,,1,,,75,99
81508,note_off,,,,,100,0,10,,,,,3,,,63,100
81508,note_off,,,,,100,0,11,,,,,4,,,45,100
81508,note_off,,,,,100,0,14,,,,,6,,,45,100
81508,note_off,,,,,100,0,12,,,,,5,,,33,100
81536,note_off,,,,,128,0,9,,,,,2,,,72,100
81544,note_off,,,,,136,0,16,,,,,7,,,45,100
81568,note_off,,,,,64,0,8,,,,,1,,,75,100
81600,note_on,,,,,92,0,11,,,,,4,,,57,98
81600,note_on,,,,,32,0,8,,,,,1,,,72,98
81600,note_on,,,,,92,0,12,,,,,5,,,45,98
81600,note_on,,,,,64,0,9,,,,,2,,,72,98
81600,note_on,,,,,92,0,10,,,,,3,,,63,98
81600,note_on,,,,,92,0,14,,,,,6,,,57,100
81600,note_on,,,,,56,0,16,,,,,7,,,57,100
81664,note_off,,,,,256,0,13,,,,,6,,,67,100
81664,note_off,,,,,256,0,15,,,,,7,,,67,100
81664,note_off,,,,,64,0,8,,,,,1,,,72,100
81696,note_on,,,,,32,0,8,,,,,1,,,75,97
81700,note_off,,,,,100,0,14,,,,,6,,,57,100
81700,note_off,,,,,100,0,10,,,,,3,,,63,100
81700,note_off,,,,,100,0,11,,,,,4,,,57,100
81700,note_off,,,,,100,0,12,,,,,5,,,45,100
81728,note_off,,,,,128,0,9,,,,,2,,,72,100
81736,note_off,,,,,136,0,16,,,,,7,,,57,100
81760,note_off,,,,,64,0,8,,,,,1,,,75,100
81792,note_on,,,,,64,0,9,,,,,2,,,72,96
81792,note_on,,,,,32,0,8,,,,,1,,,79,96
81792,note_on,,,,,92,0,11,,,,,4,,,57,96
81792,note_on,,,,,128,0,15,,,,,7,,,63,100
81792,note_on,,,,,128,0,13,,,,,6,,,63,100
81792,note_on,,,,,92,0,12,,,,,5,,,45,96
81792,note_on,,,,,92,0,14,,,,,6,,,57,100
81792,note_on,,,,,92,0,10,,,,,3,,,63,96
81792,note_on,,,,,56,0,16,,,,,7,,,57,100
81856,note_off,,,,,64,0,8,,,,,1,,,79,100
81888,note_on,,,,,32,0,8,,,,,1,,,75,95
81892,note_off,,,,,100,0,14,,,,,6,,,57,100
81892,note_off,,,,,100,0,11,,,,,4,,,57,100
81892,note_off,,,,,100,0,12,,,,,5,,,45,100
81920,note_off,,,,,128,0,9,,,,,2,,,72,100
81928,note_off,,,,,136,0,16,,,,,7,,,57,100
81952,note_off,,,,,64,0,8,,,,,1,,,75,100
81980,note_off,,,,,188,0,10,,,,,3,,,63,100
81984,note_on,,,,,92,0,14,,,,,6,,,45,100
81984,note_off,,,,,192,0,13,,,,,6,,,63,100
81984,note_on,,,,,92,0,11,,,,,4,,,45,94
81984,note_on,,,,,32,0,8,,,,,1,,,72,94
81984,note_on,,,,,0,0,13,,,,,6,,,67,100
81984,note_on,,,,,64,0,9,,,,,2,,,72,94
81984,note_on,,,,,92,0,12,,,,,5,,,33,94
81984,note_on,,,,,0,0,15,,,,,7,,,67,100
81984,note_on,,,,,56,0,16,,,,,7,,,45,100
81984,note_off,,,,,192,0,15,,,,,7,,,63,100
81984,note_on,,,,,4,0,10,,,,,3,,,57,94
82048,note_off,,,,,64,0,8,,,,,1,,,72,100
82080,note_on,,,,,32,0,8,,,,,1,,,75,93
82084,note_off,,,,,100,0,11,,,,,4,,,45,100
82084,note_off,,,,,100,0,12,,,,,5,,,33,100
82084,note_off,,,,,100,0,14,,,,,6,,,45,100
82112,note_off,,,,,128,0,10,,,,,3,,,57,100
82112,note_off,,,,,128,0,9,,,,,2,,,72,100
82120,note_off,,,,,136,0,16,,,,,7,,,45,100
82144,note_off,,,,,64,0,8,,,,,1,,,75,100
82176,note_off,,,,,0,0,13,,,,,6,,,67,100
82176,note_on,,,,,92,0,12,,,,,5,,,38,97
82176,note_on,,,,,64,0,9,,,,,2,,,72,97
82176,note_on,,,,,0,0,13,,,,,6,,,65,100
82176,note_on,,,,,56,0,16,,,,,7,,,38,100
82176,note_on,,,,,92,0,11,,,,,4,,,38,97
82176,note_on,,,,,32,0,8,,,,,1,,,77,97
82176,note_off,,,,,192,0,13,,,,,6,,,72,100
82176,note_on,,,,,64,0,10,,,,,3,,,57,97
82176,note_on,,,,,92,0,14,,,,,6,,,38,100
82176,note_off,,,,,192,0,15,,,,,7,,,72,100
82176,note_off,,,,,0,0,15,,,,,7,,,67,100
82176,note_on,,,,,0,0,15,,,,,7,,,65,100
82240,note_off,,,,,64,0,9,,,,,2,,,72,100
82272,note_on,,,,,32,0,9,,,,,2,,,69,97
82276,note_off,,,,,100,0,14,,,,,6,,,38,100
82276,note_off,,,,,100,0,10,,,,,3,,,57,100
82276,note_off,,,,,100,0,12,,,,,5,,,38,100
82276,note_off,,,,,100,0,11,,,,,4,,,38,100
82304,note_off,,,,,128,0,8,,,,,1,,,77,100
82312,note_off,,,,,136,0,16,,,,,7,,,38,100
82336,note_off,,,,,64,0,9,,,,,2,,,69,100
82368,note_on,,,,,32,0,9,,,,,2,,,65,96
82368,note_on,,,,,64,0,8,,,,,1,,,77,96
82368,note_on,,,,,92,0,12,,,,,5,,,38,96
82368,note_on,,,,,56,0,16,,,,,7,,,50,100
82368,note_on,,,,,92,0,10,,,,,3,,,57,96
82368,note_on,,,,,92,0,14,,,,,6,,,50,100
82368,note_on,,,,,92,0,11,,,,,4,,,50,96
82432,note_off,,,,,64,0,9,,,,,2,,,65,100
82464,note_on,,,,,32,0,9,,,,,2,,,69,95
82468,note_off,,,,,100,0,12,,,,,5,,,38,100
82468,note_off,,,,,100,0,10,,,,,3,,,57,100
82468,note_off,,,,,100,0,11,,,,,4,,,50,100
82468,note_off,,,,,100,0,14,,,,,6,,,50,100
82496,note_off,,,,,128,0,8,,,,,1,,,77,100
82504,note_off,,,,,136,0,16,,,,,7,,,50,100
82528,note_off,,,,,64,0,9,,,,,2,,,69,100
82560,note_on,,,,,56,0,16,,,,,7,,,50,100
82560,note_on,,,,,384,0,15,,,,,7,,,69,100
82560,note_on,,,,,32,0,9,,,,,2,,,72,94
82560,note_on,,,,,64,0,8,,,,,1,,,77,94
82560,note_on,,,,,92,0,12,,,,,5,,,38,94
82560,note_on,,,,,92,0,10,,,,,3,,,57,94
82560,note_on,,,,,384,0,13,,,,,6,,,69,100
82560,note_on,,,,,92,0,14,,,,,6,,,50,100
82560,note_on,,,,,92,0,11,,,,,4,,,50,94
82624,note_off,,,,,64,0,9,,,,,2,,,72,100
82656,note_on,,,,,32,0,9,,,,,2,,,69,93
82660,note_off,,,,,100,0,12,,,,,5,,,38,100
82660,note_off,,,,,100,0,11,,,,,4,,,50,100
82660,note_off,,,,,100,0,14,,,,,6,,,50,100
82688,note_off,,,,,128,0,8,,,,,1,,,77,100
82696,note_off,,,,,136,0,16,,,,,7,,,50,100
82720,note_off,,,,,64,0,9,,,,,2,,,69,100
82748,note_off,,,,,188,0,10,,,,,3,,,57,100
82752,note_on,,,,,56,0,16,,,,,7,,,38,100
82752,note_on,,,,,64,0,8,,,,,1,,,77,92
82752,note_on,,,,,4,0,10,,,,,3,,,62,92
82752,note_on,,,,,92,0,11,,,,,4,,,38,92
82752,note_on,,,,,92,0,12,,,,,5,,,38,92
82752,note_on,,,,,32,0,9,,,,,2,,,65,92
82752,note_on,,,,,0,0,13,,,,,6,,,72,100
82752,note_off,,,,,192,0,13,,,,,6,,,69,100
82752,note_off,,,,,192,0,15,,,,,7,,,69,100
82752,note_on,,,,,0,0,15,,,,,7,,,72,100
82752,note_on,,,,,92,0,14,,,,,6,,,38,100
82816,note_off,,,,,64,0,9,,,,,2,,,65,100
82848,note_on,,,,,32,0,9,,,,,2,,,69,91
82852,note_off,,,,,100,0,14,,,,,6,,,38,100
82852,note_off,,,,,100,0,12,,,,,5,,,38,100
82852,note_off,,,,,100,0,11,,,,,4,,,38,100
82880,note_off,,,,,128,0,10,,,,,3,,,62,100
82880,note_off,,,,,128,0,8,,,,,1,,,77,100
82888,note_off,,,,,136,0,16,,,,,7,,,38,100
82912,note_off,,,,,64,0,9,,,,,2,,,69,100
82944,note_on,,,,,92,0,12,,,,,5,,,31,95
82944,note_on,,,,,92,0,14,,,,,6,,,43,100
82944,note_on,,,,,0,0,13,,,,,6,,,70,100
82944,note_off,,,,,192,0,13,,,,,6,,,72,100
82944,note_off,,,,,192,0,15,,,,,7,,,72,100
82944,note_on,,,,,64,0,10,,,,,3,,,62,95
82944,note_on,,,,,56,0,16,,,,,7,,,43,100
82944,note_on,,,,,0,0,15,,,,,7,,,70,100
82944,note_on,,,,,32,0,9,,,,,2,,,70,95
82944,note_on,,,,,64,0,8,,,,,1,,,77,95
82944,note_on,,,,,92,0,11,,,,,4,,,43,95
83008,note_off,,,,,64,0,8,,,,,1,,,77,100
83040,note_on,,,,,32,0,8,,,,,1,,,74,95
83044,note_off,,,,,100,0,14,,,,,6,,,43,100
83044,note_off,,,,,100,0,10,,,,,3,,,62,100
83044,note_off,,,,,100,0,11,,,,,4,,,43,100
83044,note_off,,,,,100,0,12,,,,,5,,,31,100
83072,note_off,,,,,128,0,9,,,,,2,,,70,100
83080,note_off,,,,,136,0,16,,,,,7,,,43,100
83104,note_off,,,,,64,0,8,,,,,1,,,74,100
83136,note_on,,,,,64,0,9,,,,,2,,,70,94
83136,note_on,,,,,92,0,14,,,,,6,,,55,100
83136,note_on,,,,,92,0,11,,,,,4,,,55,94
83136,note_on,,,,,32,0,8,,,,,1,,,70,94
83136,note_on,,,,,92,0,12,,,,,5,,,43,94
83136,note_on,,,,,92,0,10,,,,,3,,,62,94
83136,note_on,,,,,56,0,16,,,,,7,,,55,100
83200,note_off,,,,,64,0,8,,,,,1,,,70,100
83200,note_off,,,,,256,0,13,,,,,6,,,65,100
83200,note_off,,,,,256,0,15,,,,,7,,,65,100
83232,note_on,,,,,32,0,8,,,,,1,,,74,93
83236,note_off,,,,,100,0,14,,,,,6,,,55,100
83236,note_off,,,,,100,0,10,,,,,3,,,62,100
83236,note_off,,,,,100,0,12,,,,,5,,,43,100
83236,note_off,,,,,100,0,11,,,,,4,,,55,100
83264,note_off,,,,,128,0,9,,,,,2,,,70,100
83272,note_off,,,,,136,0,16,,,,,7,,,55,100
83296,note_off,,,,,64,0,8,,,,,1,,,74,100
83328,note_on,,,,,92,0,11,,,,,4,,,55,92
83328,note_on,,,,,92,0,10,,,,,3,,,62,92
83328,note_on,,,,,128,0,15,,,,,7,,,62,100
83328,note_on,,,,,128,0,13,,,,,6,,,62,100
83328,note_on,,,,,32,0,8,,,,,1,,,77,92
83328,note_on,,,,,64,0,9,,,,,2,,,70,92
83328,note_on,,,,,56,0,16,,,,,7,,,55,100
83328,note_on,,,,,92,0,12,,,,,5,,,43,92
83328,note_on,,,,,92,0,14,,,,,6,,,55,100
83392,note_off,,,,,64,0,8,,,,,1,,,77,100
83424,note_on,,,,,32,0,8,,,,,1,,,74,91
83428,note_off,,,,,100,0,12,,,,,5,,,43,100
83428,note_off,,,,,100,0,11,,,,,4,,,55,100
83428,note_off,,,,,100,0,14,,,,,6,,,55,100
83456,note_off,,,,,128,0,9,,,,,2,,,70,100
83464,note_off,,,,,136,0,16,,,,,7,,,55,100
83488,note_off,,,,,64,0,8,,,,,1,,,74,100
83516,note_off,,,,,188,0,10,,,,,3,,,62,100
83520,note_on,,,,,4,0,10,,,,,3,,,55,90
83520,note_on,,,,,0,0,15,,,,,7,,,65,100
83520,note_on,,,,,64,0,9,,,,,2,,,70,90
83520,note_off,,,,,192,0,15,,,,,7,,,62,100
83520,note_on,,,,,32,0,8,,,,,1,,,70,90
83520,note_off,,,,,192,0,13,,,,,6,,,62,100
83520,note_on,,,,,0,0,13,,,,,6,,,65,100
83520,note_on,,,,,92,0,14,,,,,6,,,43,100
83520,note_on,,,,,56,0,16,,,,,7,,,43,100
83520,note_on,,,,,92,0,11,,,,,4,,,43,90
83520,note_on,,,,,92,0,12,,,,,5,,,31,90
83584,note_off,,,,,64,0,8,,,,,1,,,70,100
83616,note_on,,,,,32,0,8,,,,,1,,,74,89
83620,note_off,,,,,100,0,14,,,,,6,,,43,100
83620,note_off,,,,,100,0,12,,,,,5,,,31,100
83620,note_off,,,,,100,0,11,,,,,4,,,43,100
83648,note_off,,,,,128,0,9,,,,,2,,,70,100
83648,note_off,,,,,128,0,10,,,,,3,,,55,100
83656,note_off,,,,,136,0,16,,,,,7,,,43,100
83680,note_off,,,,,64,0,8,,,,,1,,,74,100
83712,note_on,,,,,92,0,11,,,,,4,,,36,93
83712,note_off,,,,,192,0,13,,,,,6,,,70,100
83712,note_off,,,,,0,0,13,,,,,6,,,65,100
83712,note_on,,,,,92,0,14,,,,,6,,,36,100
83712,note_on,,,,,64,0,9,,,,,2,,,70,93
83712,note_on,,,,,0,0,13,,,,,6,,,63,100
83712,note_on,,,,,56,0,16,,,,,7,,,36,100
83712,note_on,,,,,64,0,10,,,,,3,,,55,93
83712,note_off,,,,,192,0,15,,,,,7,,,70,100
83712,note_on,,,,,32,0,8,,,,,1,,,75,93
83712,note_off,,,,,0,0,15,,,,,7,,,65,100
83712,note_on,,,,,92,0,12,,,,,5,,,36,93
83712,note_on,,,,,0,0,15,,,,,7,,,63,100
83776,note_off,,,,,64,0,9,,,,,2,,,70,100
83808,note_on,,,,,32,0,9,,,,,2,,,67,93
83812,note_off,,,,,100,0,12,,,,,5,,,36,100
83812,note_off,,,,,100,0,14,,,,,6,,,36,100
83812,note_off,,,,,100,0,11,,,,,4,,,36,100
83812,note_off,,,,,100,0,10,,,,,3,,,55,100
83840,note_off,,,,,128,0,8,,,,,1,,,75,100
83848,note_off,,,,,136,0,16,,,,,7,,,36,100
83872,note_off,,,,,64,0,9,,,,,2,,,67,100
83904,note_on,,,,,92,0,11,,,,,4,,,48,92
83904,note_on,,,,,32,0,9,,,,,2,,,63,92
83904,note_on,,,,,92,0,14,,,,,6,,,48,100
83904,note_on,,,,,64,0,8,,,,,1,,,75,92
83904,note_on,,,,,92,0,10,,,,,3,,,55,92
83904,note_on,,,,,92,0,12,,,,,5,,,36,92
83904,note_on,,,,,56,0,16,,,,,7,,,48,100
83968,note_off,,,,,64,0,9,,,,,2,,,63,100
84000,note_on,,,,,32,0,9,,,,,2,,,67,91
84004,note_off,,,,,100,0,11,,,,,4,,,48,100
84004,note_off,,,,,100,0,10,,,,,3,,,55,100
84004,note_off,,,,,100,0,12,,,,,5,,,36,100
84004,note_off,,,,,100,0,14,,,,,6,,,48,100
84032,note_off,,,,,128,0,8,,,,,1,,,75,100
84040,note_off,,,,,136,0,16,,,,,7,,,48,100
84064,note_off,,,,,64,0,9,,,,,2,,,67,100
84096,note_on,,,,,32,0,9,,,,,2,,,70,90
84096,note_on,,,,,64,0,8,,,,,1,,,75,90
84096,note_on,,,,,384,0,13,,,,,6,,,67,100
84096,note_on,,,,,56,0,16,,,,,7,,,48,100
84096,note_on,,,,,92,0,12,,,,,5,,,36,90
84096,note_on,,,,,384,0,15,,,,,7,,,67,100
84096,note_on,,,,,92,0,11,,,,,4,,,48,90
84096,note_on,,,,,92,0,10,,,,,3,,,55,90
84096,note_on,,,,,92,0,14,,,,,6,,,48,100
84160,note_off,,,,,64,0,9,,,,,2,,,70,100
84192,note_on,,,,,32,0,9,,,,,2,,,67,89
84196,note_off,,,,,100,0,14,,,,,6,,,48,100
84196,note_off,,,,,100,0,12,,,,,5,,,36,100
84196,note_off,,,,,100,0,11,,,,,4,,,48,100
84224,note_off,,,,,128,0,8,,,,,1,,,75,100
84232,note_off,,,,,136,0,16,,,,,7,,,48,100
84256,note_off,,,,,64,0,9,,,,,2,,,67,100
84284,note_off,,,,,188,0,10,,,,,3,,,55,100
84288,note_on,,,,,0,0,15,,,,,7,,,70,100
84288,note_on,,,,,0,0,13,,,,,6,,,70,100
84288,note_on,,,,,4,0,10,,,,,3,,,60,88
84288,note_on,,,,,92,0,14,,,,,6,,,36,100
84288,note_on,,,,,64,0,8,,,,,1,,,75,88
84288,note_off,,,,,192,0,15,,,,,7,,,67,100
84288,note_on,,,,,32,0,9,,,,,2,,,63,88
84288,note_off,,,,,192,0,13,,,,,6,,,67,100
84288,note_on,,,,,92,0,11,,,,,4,,,36,88
84288,note_on,,,,,92,0,12,,,,,5,,,36,88
84288,note_on,,,,,56,0,16,,,,,7,,,36,100
84352,note_off,,,,,64,0,9,,,,,2,,,63,100
84384,note_on,,,,,32,0,9,,,,,2,,,67,87
84388,note_off,,,,,100,0,14,,,,,6,,,36,100
84388,note_off,,,,,100,0,12,,,,,5,,,36,100
84388,note_off,,,,,100,0,11,,,,,4,,,36,100
84416,note_off,,,,,128,0,10,,,,,3,,,60,100
84416,note_off,,,,,128,0,8,,,,,1,,,75,100
84424,note_off,,,,,136,0,16,,,,,7,,,36,100
84448,note_off,,,,,64,0,9,,,,,2,,,67,100
84480,note_on,,,,,92,0,11,,,,,4,,,41,88
84480,note_on,,,,,64,0,10,,,,,3,,,57,88
84480,note_off,,,,,192,0,13,,,,,6,,,70,100
84480,note_on,,,,,32,0,9,,,,,2,,,72,88
84480,note_on,,,,,64,0,8,,,,,1,,,75,88
84480,note_on,,,,,0,0,15,,,,,7,,,69,100
84480,note_off,,,,,192,0,15,,,,,7,,,70,100
84480,note_on,,,,,92,0,14,,,,,6,,,41,100
84480,note_on,,,,,56,0,16,,,,,7,,,41,100
84480,note_on,,,,,0,0,13,,,,,6,,,69,100
84480,note_on,,,,,92,0,12,,,,,5,,,41,88
84544,note_off,,,,,64,0,9,,,,,2,,,72,100
84544,note_off,,,,,64,0,8,,,,,1,,,75,100
84576,note_on,,,,,32,0,8,,,,,1,,,72,90
84576,note_on,,,,,32,0,9,,,,,2,,,69,90
84580,note_off,,,,,100,0,10,,,,,3,,,57,100
84580,note_off,,,,,100,0,11,,,,,4,,,41,100
84580,note_off,,,,,100,0,12,,,,,5,,,41,100
84580,note_off,,,,,100,0,14,,,,,6,,,41,100
84580,note_off,,,,,100,0,16,,,,,7,,,41,100
84640,note_off,,,,,64,0,9,,,,,2,,,69,100
84640,note_off,,,,,64,0,8,,,,,1,,,72,100
84672,note_on,,,,,92,0,10,,,,,3,,,57,92
84672,note_on,,,,,32,0,9,,,,,2,,,65,92
84672,note_on,,,,,92,0,14,,,,,6,,,53,100
84672,note_on,,,,,92,0,12,,,,,5,,,41,92
84672,note_on,,,,,92,0,11,,,,,4,,,53,92
84672,note_on,,,,,32,0,8,,,,,1,,,69,92
84672,note_on,,,,,92,0,16,,,,,7,,,53,100
84736,note_off,,,,,256,0,13,,,,,6,,,63,100
84736,note_off,,,,,256,0,15,,,,,7,,,63,100
84736,note_off,,,,,64,0,8,,,,,1,,,69,100
84736,note_off,,,,,64,0,9,,,,,2,,,65,100
84768,note_on,,,,,32,0,8,,,,,1,,,72,94
84768,note_on,,,,,32,0,9,,,,,2,,,69,94
84772,note_off,,,,,100,0,14,,,,,6,,,53,100
84772,note_off,,,,,100,0,12,,,,,5,,,41,100
84772,note_off,,,,,100,0,16,,,,,7,,,53,100
84772,note_off,,,,,100,0,10,,,,,3,,,57,100
84772,note_off,,,,,100,0,11,,,,,4,,,53,100
84832,note_off,,,,,64,0,9,,,,,2,,,69,100
84832,note_off,,,,,64,0,8,,,,,1,,,72,100
84864,note_on,,,,,92,0,12,,,,,5,,,41,96
84864,note_on,,,,,92,0,11,,,,,4,,,53,96
84864,note_on,,,,,128,0,15,,,,,7,,,60,100
84864,note_on,,,,,128,0,13,,,,,6,,,60,100
84864,note_on,,,,,32,0,9,,,,,2,,,72,96
84864,note_on,,,,,92,0,16,,,,,7,,,53,100
84864,note_on,,,,,92,0,14,,,,,6,,,53,100
84864,note_on,,,,,92,0,10,,,,,3,,,57,96
84864,note_on,,,,,32,0,8,,,,,1,,,75,96
84928,note_off,,,,,64,0,9,,,,,2,,,72,100
84928,note_off,,,,,64,0,8,,,,,1,,,75,100
84960,note_on,,,,,32,0,8,,,,,1,,,72,98
84960,note_on,,,,,32,0,9,,,,,2,,,69,98
84964,note_off,,,,,100,0,10,,,,,3,,,57,100
84964,note_off,,,,,100,0,14,,,,,6,,,53,100
84964,note_off,,,,,100,0,16,,,,,7,,,53,100
84964,note_off,,,,,100,0,11,,,,,4,,,53,100
84964,note_off,,,,,100,0,12,,,,,5,,,41,100
84992,note_off,,,,,128,0,13,,,,,6,,,69,100
85024,note_off,,,,,64,0,8,,,,,1,,,72,100
85024,note_off,,,,,64,0,9,,,,,2,,,69,100
85052,note_off,,,,,188,0,15,,,,,7,,,60,100
85052,note_off,,,,,60,0,13,,,,,6,,,60,100
85056,note_on,,,,,92,0,16,,,,,7,,,41,100
85056,note_on,,,,,32,0,9,,,,,2,,,65,100
85056,note_on,,,,,32,0,8,,,,,1,,,69,100
85056,note_on,,,,,92,0,14,,,,,6,,,41,100
85056,note_on,,,,,92,0,11,,,,,4,,,41,100
85056,note_on,,,,,92,0,12,,,,,5,,,41,100
85056,note_on,,,,,4,0,13,,,,,6,,,63,100
85056,note_on,,,,,92,0,10,,,,,3,,,57,100
85056,note_on,,,,,4,0,15,,,,,7,,,63,100
85120,note_off,,,,,64,0,9,,,,,2,,,65,100
85120,note_off,,,,,64,0,8,,,,,1,,,69,100
85152,note_on,,,,,32,0,9,,,,,2,,,72,102
85152,note_on,,,,,32,0,8,,,,,1,,,75,102
85156,note_off,,,,,100,0,10,,,,,3,,,57,100
85156,note_off,,,,,100,0,11,,,,,4,,,41,100
85156,note_off,,,,,100,0,16,,,,,7,,,41,100
85156,note_off,,,,,100,0,12,,,,,5,,,41,100
85156,note_off,,,,,100,0,14,,,,,6,,,41,100
85216,note_off,,,,,64,0,9,,,,,2,,,72,100
85216,note_off,,,,,64,0,8,,,,,1,,,75,100
85244,note_off,,,,,188,0,13,,,,,6,,,63,100
85244,note_off,,,,,188,0,15,,,,,7,,,69,100
85244,note_off,,,,,0,0,15,,,,,7,,,63,100
85248,note_on,,,,,4,0,15,,,,,7,,,62,100
85248,note_on,,,,,92,0,16,,,,,7,,,46,100
85248,note_on,,,,,4,0,13,,,,,6,,,62,100
85248,note_on,,,,,0,0,13,,,,,6,,,70,100
85248,note_on,,,,,92,0,12,,,,,5,,,34,104
85248,note_on,,,,,92,0,10,,,,,3,,,53,104
85248,note_on,,,,,0,0,15,,,,,7,,,70,100
85248,note_on,,,,,32,0,9,,,,,2,,,70,104
85248,note_on,,,,,32,0,8,,,,,1,,,74,104
85248,note_on,,,,,92,0,14,,,,,6,,,46,100
85248,note_on,,,,,92,0,11,,,,,4,,,46,104
85440,note_on,,,,,14528,0,7,,,,,0,,,70,80
85504,note_off,,,,,256,0,16,,,,,7,,,46,100
85504,note_off,,,,,256,0,13,,,,,6,,,62,100
85504,note_off,,,,,64,0,7,,,,,0,,,70,100
85504,note_off,,,,,256,0,10,,,,,3,,,53,100
85504,note_off,,,,,256,0,14,,,,,6,,,46,100
85504,note_off,,,,,256,0,9,,,,,2,,,70,100
85504,note_off,,,,,256,0,15,,,,,7,,,62,100
85504,note_off,,,,,0,0,15,,,,,7,,,70,100
85504,note_off,,,,,0,0,13,,,,,6,,,70,100
85504,note_off,,,,,256,0,8,,,,,1,,,74,100
85504,note_off,,,,,256,0,11,,,,,4,,,46,100
85504,note_off,,,,,256,0,12,,,,,5,,,34,100
85536,note_on,,,,,32,0,7,,,,,0,,,72,80
85600,note_off,,,,,64,0,7,,,,,0,,,72,100
85632,note_on,,,,,32,0,7,,,,,0,,,74,80
85696,note_off,,,,,64,0,7,,,,,0,,,74,100
85728,note_on,,,,,32,0,7,,,,,0,,,75,80
85792,note_off,,,,,64,0,7,,,,,0,,,75,100
85824,note_on,,,,,32,0,7,,,,,0,,,77,80
85888,note_off,,,,,64,0,7,,,,,0,,,77,100
85920,note_on,,,,,32,0,7,,,,,0,,,79,80
85984,note_off,,,,,64,0,7,,,,,0,,,79,100
86016,note_on,,,,,32,0,7,,,,,0,,,77,80
86080,note_off,,,,,64,0,7,,,,,0,,,77,100
86112,note_on,,,,,32,0,7,,,,,0,,,75,80
86176,note_off,,,,,64,0,7,,,,,0,,,75,100
86208,note_on,,,,,32,0,7,,,,,0,,,74,80
86272,note_off,,,,,64,0,7,,,,,0,,,74,100
86304,note_on,,,,,32,0,7,,,,,0,,,72,80
86368,note_off,,,,,64,0,7,,,,,0,,,72,100
86400,note_on,,,,,32,0,7,,,,,0,,,70,80
86528,note_off,,,,,128,0,7,,,,,0,,,70,100
86592,note_on,,,,,1088,0,9,,,,,2,,,77,80
86592,note_on,,,,,1088,0,15,,,,,7,,,68,100
86592,note_on,,,,,1088,0,11,,,,,4,,,50,80
86592,note_on,,,,,1088,0,16,,,,,7,,,50,100
86592,note_on,,,,,0,0,13,,,,,6,,,58,100
86592,note_on,,,,,1088,0,13,,,,,6,,,68,100
86592,note_on,,,,,1088,0,12,,,,,5,,,38,80
86592,note_on,,,,,1088,0,14,,,,,6,,,50,100
86592,note_on,,,,,0,0,15,,,,,7,,,58,100
86592,note_on,,,,,1088,0,8,,,,,1,,,80,80
86592,note_on,,,,,1088,0,10,,,,,3,,,70,80
86692,note_off,,,,,100,0,9,,,,,2,,,77,100
86692,note_off,,,,,100,0,10,,,,,3,,,70,100
86692,note_off,,,,,100,0,11,,,,,4,,,50,100
86692,note_off,,,,,100,0,8,,,,,1,,,80,100
86692,note_off,,,,,100,0,16,,,,,7,,,50,100
86692,note_off,,,,,100,0,14,,,,,6,,,50,100
86692,note_off,,,,,100,0,12,,,,,5,,,38,100
86720,note_off,,,,,128,0,13,,,,,6,,,68,100
86720,note_off,,,,,0,0,13,,,,,6,,,58,100
86720,note_off,,,,,0,0,15,,,,,7,,,58,100
86720,note_off,,,,,128,0,15,,,,,7,,,68,100
86784,note_on,,,,,64,0,15,,,,,7,,,68,100
86784,note_on,,,,,92,0,11,,,,,4,,,51,80
86784,note_on,,,,,92,0,8,,,,,1,,,80,80
86784,note_on,,,,,0,0,15,,,,,7,,,58,100
86784,note_on,,,,,92,0,10,,,,,3,,,70,80
86784,note_on,,,,,92,0,9,,,,,2,,,75,80
86784,note_on,,,,,64,0,13,,,,,6,,,68,100
86784,note_on,,,,,92,0,14,,,,,6,,,51,100
86784,note_on,,,,,92,0,16,,,,,7,,,51,100
86784,note_on,,,,,92,0,12,,,,,5,,,39,80
86784,note_on,,,,,0,0,13,,,,,6,,,58,100
86828,note_off,,,,,44,0,8,,,,,1,,,80,100
86832,note_on,,,,,4,0,8,,,,,1,,,82,80
86876,note_off,,,,,44,0,8,,,,,1,,,82,100
86880,note_on,,,,,4,0,8,,,,,1,,,80,80
86884,note_off,,,,,100,0,10,,,,,3,,,70,100
86972,note_off,,,,,188,0,9,,,,,2,,,75,100
86972,note_off,,,,,188,0,12,,,,,5,,,39,100
86972,note_off,,,,,188,0,13,,,,,6,,,68,100
86972,note_off,,,,,188,0,11,,,,,4,,,51,100
86972,note_off,,,,,188,0,16,,,,,7,,,51,100
86972,note_off,,,,,92,0,8,,,,,1,,,80,100
86972,note_off,,,,,188,0,14,,,,,6,,,51,100
86972,note_off,,,,,188,0,15,,,,,7,,,68,100
86976,note_on,,,,,4,0,15,,,,,7,,,67,100
86976,note_on,,,,,4,0,14,,,,,6,,,39,100
86976,note_on,,,,,4,0,8,,,,,1,,,79,80
86976,note_on,,,,,4,0,13,,,,,6,,,67,100
86976,note_on,,,,,92,0,10,,,,,3,,,70,80
86976,note_on,,,,,4,0,9,,,,,2,,,70,80
86976,note_on,,,,,4,0,12,,,,,5,,,39,80
86976,note_on,,,,,4,0,11,,,,,4,,,39,80
86976,note_on,,,,,4,0,16,,,,,7,,,39,100
87040,note_off,,,,,64,0,15,,,,,7,,,58,100
87040,note_off,,,,,64,0,13,,,,,6,,,58,100
87076,note_off,,,,,100,0,10,,,,,3,,,70,100
87104,note_off,,,,,64,0,13,,,,,6,,,67,100
87104,note_off,,,,,128,0,14,,,,,6,,,39,100
87104,note_off,,,,,64,0,15,,,,,7,,,67,100
87104,note_off,,,,,128,0,9,,,,,2,,,70,100
87104,note_off,,,,,128,0,8,,,,,1,,,79,100
87104,note_off,,,,,128,0,12,,,,,5,,,39,100
87104,note_off,,,,,128,0,11,,,,,4,,,39,100
87104,note_off,,,,,128,0,16,,,,,7,,,39,100
87168,note_on,,,,,640,0,7,,,,,0,,,72,90
87232,note_off,,,,,64,0,7,,,,,0,,,72,100
87264,note_on,,,,,32,0,7,,,,,0,,,74,90
87328,note_off,,,,,64,0,7,,,,,0,,,74,100
87360,note_on,,,,,32,0,7,,,,,0,,,76,90
87424,note_off,,,,,64,0,7,,,,,0,,,76,100
87456,note_on,,,,,32,0,7,,,,,0,,,77,90
87520,note_off,,,,,64,0,7,,,,,0,,,77,100
87552,note_on,,,,,32,0,7,,,,,0,,,79,90
87616,note_off,,,,,64,0,7,,,,,0,,,79,100
87648,note_on,,,,,32,0,7,,,,,0,,,77,90
87712,note_off,,,,,64,0,7,,,,,0,,,77,100
87744,note_on,,,,,32,0,7,,,,,0,,,76,90
87808,note_off,,,,,64,0,7,,,,,0,,,76,100
87840,note_on,,,,,32,0,7,,,,,0,,,74,90
87904,note_off,,,,,64,0,7,,,,,0,,,74,100
87936,note_on,,,,,32,0,7,,,,,0,,,72,90
88064,note_off,,,,,128,0,7,,,,,0,,,72,100
88128,note_on,,,,,1024,0,13,,,,,6,,,70,100
88128,note_on,,,,,1024,0,15,,,,,7,,,70,100
88128,note_on,,,,,1024,0,16,,,,,7,,,52,100
88128,note_on,,,,,1052,0,10,,,,,3,,,72,90
88128,note_on,,,,,0,0,15,,,,,7,,,60,100
88128,note_on,,,,,1024,0,9,,,,,2,,,79,90
88128,note_on,,,,,1024,0,11,,,,,4,,,52,90
88128,note_on,,,,,1024,0,8,,,,,1,,,82,90
88128,note_on,,,,,1024,0,12,,,,,5,,,40,90
88128,note_on,,,,,1024,0,14,,,,,6,,,52,100
88128,note_on,,,,,0,0,13,,,,,6,,,60,100
88228,note_off,,,,,100,0,12,,,,,5,,,40,100
88228,note_off,,,,,100,0,10,,,,,3,,,72,100
88228,note_off,,,,,100,0,8,,,,,1,,,82,100
88228,note_off,,,,,100,0,11,,,,,4,,,52,100
88228,note_off,,,,,100,0,9,,,,,2,,,79,100
88228,note_off,,,,,100,0,16,,,,,7,,,52,100
88228,note_off,,,,,100,0,14,,,,,6,,,52,100
88256,note_off,,,,,128,0,13,,,,,6,,,70,100
88256,note_off,,,,,0,0,13,,,,,6,,,60,100
88256,note_off,,,,,128,0,15,,,,,7,,,70,100
88256,note_off,,,,,0,0,15,,,,,7,,,60,100
88320,note_on,,,,,64,0,13,,,,,6,,,70,100
88320,note_on,,,,,0,0,13,,,,,6,,,60,100
88320,note_on,,,,,92,0,9,,,,,2,,,77,90
88320,note_on,,,,,64,0,15,,,,,7,,,70,100
88320,note_on,,,,,0,0,15,,,,,7,,,60,100
88320,note_on,,,,,92,0,16,,,,,7,,,53,100
88320,note_on,,,,,92,0,10,,,,,3,,,72,90
88320,note_on,,,,,92,0,11,,,,,4,,,53,90
88320,note_on,,,,,92,0,8,,,,,1,,,82,90
88320,note_on,,,,,92,0,12,,,,,5,,,41,90
88320,note_on,,,,,92,0,14,,,,,6,,,53,100
88364,note_off,,,,,44,0,8,,,,,1,,,82,100
88368,note_on,,,,,4,0,8,,,,,1,,,84,90
88412,note_off,,,,,44,0,8,,,,,1,,,84,100
88416,note_on,,,,,4,0,8,,,,,1,,,82,90
88420,note_off,,,,,100,0,10,,,,,3,,,72,100
88508,note_off,,,,,92,0,8,,,,,1,,,82,100
88508,note_off,,,,,188,0,16,,,,,7,,,53,100
88508,note_off,,,,,188,0,13,,,,,6,,,70,100
88508,note_off,,,,,188,0,15,,,,,7,,,70,100
88508,note_off,,,,,188,0,9,,,,,2,,,77,100
88508,note_off,,,,,188,0,11,,,,,4,,,53,100
88508,note_off,,,,,188,0,14,,,,,6,,,53,100
88508,note_off,,,,,188,0,12,,,,,5,,,41,100
88512,note_on,,,,,4,0,13,,,,,6,,,69,100
88512,note_on,,,,,4,0,9,,,,,2,,,72,90
88512,note_on,,,,,4,0,14,,,,,6,,,41,100
88512,note_on,,,,,92,0,10,,,,,3,,,72,90
88512,note_on,,,,,4,0,11,,,,,4,,,41,90
88512,note_on,,,,,4,0,12,,,,,5,,,41,90
88512,note_on,,,,,4,0,8,,,,,1,,,81,90
88512,note_on,,,,,4,0,16,,,,,7,,,41,100
88512,note_on,,,,,4,0,15,,,,,7,,,69,100
88576,note_off,,,,,64,0,13,,,,,6,,,60,100
88576,note_off,,,,,64,0,15,,,,,7,,,60,100
88612,note_off,,,,,100,0,10,,,,,3,,,72,100
88640,note_off,,,,,128,0,9,,,,,2,,,72,100
88640,note_off,,,,,128,0,11,,,,,4,,,41,100
88640,note_off,,,,,128,0,8,,,,,1,,,81,100
88640,note_off,,,,,64,0,15,,,,,7,,,69,100
88640,note_off,,,,,128,0,12,,,,,5,,,41,100
88640,note_off,,,,,64,0,13,,,,,6,,,69,100
88640,note_off,,,,,128,0,16,,,,,7,,,41,100
88640,note_off,,,,,128,0,14,,,,,6,,,41,100
88704,note_on,,,,,640,0,7,,,,,0,,,74,100
88768,note_off,,,,,64,0,7,,,,,0,,,74,100
88800,note_on,,,,,32,0,7,,,,,0,,,76,100
88864,note_off,,,,,64,0,7,,,,,0,,,76,100
88896,note_on,,,,,32,0,7,,,,,0,,,78,100
88960,note_off,,,,,64,0,7,,,,,0,,,78,100
88992,note_on,,,,,32,0,7,,,,,0,,,79,100
89056,note_off,,,,,64,0,7,,,,,0,,,79,100
89088,note_on,,,,,32,0,7,,,,,0,,,81,100
89152,note_off,,,,,64,0,7,,,,,0,,,81,100
89184,note_on,,,,,32,0,7,,,,,0,,,79,100
89248,note_off,,,,,64,0,7,,,,,0,,,79,100
89280,note_on,,,,,32,0,7,,,,,0,,,78,100
89344,note_off,,,,,64,0,7,,,,,0,,,78,100
89376,note_on,,,,,32,0,7,,,,,0,,,76,100
89440,note_off,,,,,64,0,7,,,,,0,,,76,100
89472,note_on,,,,,32,0,7,,,,,0,,,74,100
89600,note_off,,,,,128,0,7,,,,,0,,,74,100
89664,note_on,,,,,1024,0,12,,,,,5,,,42,100
89664,note_on,,,,,0,0,13,,,,,6,,,62,100
89664,note_on,,,,,1024,0,13,,,,,6,,,72,100
89664,note_on,,,,,1024,0,14,,,,,6,,,54,100
89664,note_on,,,,,0,0,15,,,,,7,,,62,100
89664,note_on,,,,,1024,0,15,,,,,7,,,72,100
89664,note_on,,,,,1024,0,8,,,,,1,,,84,100
89664,note_on,,,,,1024,0,16,,,,,7,,,54,100
89664,note_on,,,,,1052,0,10,,,,,3,,,74,100
89664,note_on,,,,,1024,0,9,,,,,2,,,81,100
89664,note_on,,,,,1024,0,11,,,,,4,,,54,100
89764,note_off,,,,,100,0,9,,,,,2,,,81,100
89764,note_off,,,,,100,0,16,,,,,7,,,54,100
89764,note_off,,,,,100,0,10,,,,,3,,,74,100
89764,note_off,,,,,100,0,12,,,,,5,,,42,100
89764,note_off,,,,,100,0,14,,,,,6,,,54,100
89764,note_off,,,,,100,0,8,,,,,1,,,84,100
89764,note_off,,,,,100,0,11,,,,,4,,,54,100
89792,note_off,,,,,0,0,15,,,,,7,,,62,100
89792,note_off,,,,,128,0,15,,,,,7,,,72,100
89792,note_off,,,,,0,0,13,,,,,6,,,62,100
89792,note_off,,,,,128,0,13,,,,,6,,,72,100
89856,note_on,,,,,92,0,12,,,,,5,,,43,100
89856,note_on,,,,,92,0,9,,,,,2,,,79,100
89856,note_on,,,,,92,0,11,,,,,4,,,55,100
89856,note_on,,,,,92,0,8,,,,,1,,,84,100
89856,note_on,,,,,64,0,15,,,,,7,,,72,100
89856,note_on,,,,,92,0,14,,,,,6,,,55,100
89856,note_on,,,,,92,0,10,,,,,3,,,74,100
89856,note_on,,,,,64,0,13,,,,,6,,,72,100
89856,note_on,,,,,92,0,16,,,,,7,,,55,100
89856,note_on,,,,,0,0,13,,,,,6,,,62,100
89856,note_on,,,,,0,0,15,,,,,7,,,62,100
89900,note_off,,,,,44,0,8,,,,,1,,,84,100
89904,note_on,,,,,4,0,8,,,,,1,,,86,100
89948,note_off,,,,,44,0,8,,,,,1,,,86,100
89952,note_on,,,,,4,0,8,,,,,1,,,84,100
89956,note_off,,,,,100,0,10,,,,,3,,,74,100
90044,note_off,,,,,188,0,12,,,,,5,,,43,100
90044,note_off,,,,,188,0,14,,,,,6,,,55,100
90044,note_off,,,,,188,0,9,,,,,2,,,79,100
90044,note_off,,,,,188,0,11,,,,,4,,,55,100
90044,note_off,,,,,92,0,8,,,,,1,,,84,100
90044,note_off,,,,,188,0,16,,,,,7,,,55,100
90044,note_off,,,,,188,0,13,,,,,6,,,72,100
90044,note_off,,,,,188,0,15,,,,,7,,,72,100
90048,note_on,,,,,4,0,12,,,,,5,,,31,100
90048,note_on,,,,,92,0,10,,,,,3,,,74,100
90048,note_on,,,,,4,0,8,,,,,1,,,82,100
90048,note_on,,,,,4,0,13,,,,,6,,,70,100
90048,note_on,,,,,4,0,14,,,,,6,,,43,100
90048,note_on,,,,,4,0,16,,,,,7,,,43,100
90048,note_on,,,,,4,0,11,,,,,4,,,43,100
90048,note_on,,,,,4,0,9,,,,,2,,,74,100
90048,note_on,,,,,4,0,15,,,,,7,,,70,100
90112,note_off,,,,,64,0,13,,,,,6,,,62,100
90112,note_off,,,,,64,0,15,,,,,7,,,62,100
90148,note_off,,,,,100,0,10,,,,,3,,,74,100
90176,note_off,,,,,64,0,13,,,,,6,,,70,100
90176,note_off,,,,,128,0,12,,,,,5,,,31,100
90176,note_off,,,,,128,0,11,,,,,4,,,43,100
90176,note_off,,,,,128,0,14,,,,,6,,,43,100
90176,note_off,,,,,128,0,16,,,,,7,,,43,100
90176,note_off,,,,,64,0,15,,,,,7,,,70,100
90176,note_off,,,,,128,0,8,,,,,1,,,82,100
90176,note_off,,,,,128,0,9,,,,,2,,,74,100
90236,program_change,,,,,60,0,8,,,,,1,40,,,
90236,program_change,,,,,60,0,9,,,,,2,40,,,
90236,program_change,,,,,60,0,11,,,,,4,42,,,
90240,note_on,,,,,64,0,14,,,,,6,,,48,100
90240,note_on,,,,,4,0,11,,,,,4,,,48,100
90240,note_on,,,,,640,0,7,,,,,0,,,75,95
90240,note_on,,,,,64,0,13,,,,,6,,,75,100
90304,note_off,,,,,64,0,7,,,,,0,,,75,100
90336,note_on,,,,,32,0,7,,,,,0,,,86,94
90400,note_off,,,,,64,0,7,,,,,0,,,86,100
90432,note_on,,,,,32,0,7,,,,,0,,,84,93
90432,note_on,,,,,196,0,9,,,,,2,,,75,70
90432,note_on,,,,,196,0,8,,,,,1,,,75,70
90432,note_on,,,,,192,0,13,,,,,6,,,67,100
90496,note_off,,,,,256,0,11,,,,,4,,,48,100
90496,note_off,,,,,64,0,7,,,,,0,,,84,100
90496,note_off,,,,,64,0,9,,,,,2,,,75,100
90496,note_off,,,,,256,0,14,,,,,6,,,48,100
90528,note_on,,,,,32,0,7,,,,,0,,,82,91
90528,note_on,,,,,32,0,9,,,,,2,,,74,70
90592,note_off,,,,,64,0,9,,,,,2,,,74,100
90592,note_off,,,,,64,0,7,,,,,0,,,82,100
90620,note_off,,,,,188,0,13,,,,,6,,,67,100
90624,note_on,,,,,128,0,11,,,,,4,,,53,70
90624,note_on,,,,,4,0,13,,,,,6,,,69,100
90624,note_on,,,,,32,0,7,,,,,0,,,81,90
90624,note_on,,,,,128,0,14,,,,,6,,,53,100
90624,note_on,,,,,32,0,9,,,,,2,,,72,70
90716,note_off,,,,,92,0,7,,,,,0,,,81,100
90720,note_on,,,,,4,0,7,,,,,0,,,79,88
90724,note_off,,,,,100,0,9,,,,,2,,,72,100
90752,note_off,,,,,128,0,13,,,,,6,,,75,100
90752,note_off,,,,,320,0,8,,,,,1,,,75,100
90812,note_off,,,,,92,0,7,,,,,0,,,79,100
90816,note_on,,,,,64,0,8,,,,,1,,,81,69
90816,note_on,,,,,92,0,9,,,,,2,,,77,69
90816,note_on,,,,,64,0,13,,,,,6,,,72,100
90816,note_on,,,,,4,0,7,,,,,0,,,77,87
90880,note_off,,,,,256,0,11,,,,,4,,,53,100
90880,note_off,,,,,256,0,14,,,,,6,,,53,100
90908,note_off,,,,,92,0,7,,,,,0,,,77,100
90912,note_on,,,,,4,0,7,,,,,0,,,75,86
90916,note_off,,,,,100,0,9,,,,,2,,,77,100
90976,note_off,,,,,64,0,7,,,,,0,,,75,100
91004,note_off,,,,,188,0,13,,,,,6,,,72,100
91008,note_on,,,,,128,0,11,,,,,4,,,46,69
91008,note_on,,,,,128,0,14,,,,,6,,,46,100
91008,note_on,,,,,4,0,13,,,,,6,,,74,100
91008,note_on,,,,,32,0,7,,,,,0,,,74,93
91072,note_off,,,,,64,0,7,,,,,0,,,74,100
91072,note_off,,,,,256,0,8,,,,,1,,,81,100
91104,note_on,,,,,32,0,7,,,,,0,,,84,92
91168,note_off,,,,,64,0,7,,,,,0,,,84,100
91196,note_off,,,,,188,0,13,,,,,6,,,69,100
91200,note_on,,,,,32,0,7,,,,,0,,,82,91
91200,note_on,,,,,4,0,13,,,,,6,,,65,100
91200,note_on,,,,,128,0,8,,,,,1,,,74,68
91200,note_on,,,,,284,0,9,,,,,2,,,74,68
91264,note_off,,,,,256,0,14,,,,,6,,,46,100
91264,note_off,,,,,64,0,9,,,,,2,,,74,100
91264,note_off,,,,,256,0,11,,,,,4,,,46,100
91264,note_off,,,,,64,0,7,,,,,0,,,82,100
91296,note_on,,,,,32,0,9,,,,,2,,,72,68
91296,note_on,,,,,32,0,7,,,,,0,,,81,89
91360,note_off,,,,,64,0,7,,,,,0,,,81,100
91360,note_off,,,,,64,0,9,,,,,2,,,72,100
91388,note_off,,,,,188,0,13,,,,,6,,,65,100
91392,note_off,,,,,4,0,13,,,,,6,,,74,100
91392,note_on,,,,,128,0,11,,,,,4,,,51,68
91392,note_on,,,,,128,0,14,,,,,6,,,51,100
91392,note_on,,,,,32,0,7,,,,,0,,,79,88
91392,note_on,,,,,0,0,13,,,,,6,,,67,100
91392,note_on,,,,,32,0,9,,,,,2,,,70,68
91456,note_off,,,,,256,0,8,,,,,1,,,74,100
91484,note_off,,,,,92,0,7,,,,,0,,,79,100
91488,note_on,,,,,4,0,7,,,,,0,,,77,86
91492,note_off,,,,,100,0,9,,,,,2,,,70,100
91580,note_off,,,,,92,0,7,,,,,0,,,77,100
91584,note_on,,,,,92,0,9,,,,,2,,,75,67
91584,note_on,,,,,4,0,7,,,,,0,,,75,85
91584,note_on,,,,,128,0,8,,,,,1,,,79,67
91584,note_on,,,,,192,0,13,,,,,6,,,70,100
91648,note_off,,,,,256,0,14,,,,,6,,,51,100
91648,note_off,,,,,256,0,11,,,,,4,,,51,100
91676,note_off,,,,,92,0,7,,,,,0,,,75,100
91680,note_on,,,,,4,0,7,,,,,0,,,74,84
91684,note_off,,,,,100,0,9,,,,,2,,,75,100
91744,note_off,,,,,64,0,7,,,,,0,,,74,100
91772,note_off,,,,,188,0,13,,,,,6,,,70,100
91776,note_on,,,,,128,0,14,,,,,6,,,45,100
91776,note_on,,,,,128,0,11,,,,,4,,,45,66
91776,note_on,,,,,32,0,7,,,,,0,,,72,91
91776,note_on,,,,,4,0,13,,,,,6,,,72,100
91840,note_off,,,,,64,0,7,,,,,0,,,72,100
91840,note_off,,,,,256,0,8,,,,,1,,,79,100
91872,note_on,,,,,32,0,7,,,,,0,,,82,90
91936,note_off,,,,,64,0,7,,,,,0,,,82,100
91964,note_off,,,,,188,0,13,,,,,6,,,67,100
91968,note_on,,,,,32,0,7,,,,,0,,,81,89
91968,note_on,,,,,284,0,9,,,,,2,,,72,66
91968,note_on,,,,,128,0,8,,,,,1,,,72,66
91968,note_on,,,,,4,0,13,,,,,6,,,63,100
92032,note_off,,,,,256,0,11,,,,,4,,,45,100
92032,note_off,,,,,256,0,14,,,,,6,,,45,100
92032,note_off,,,,,64,0,7,,,,,0,,,81,100
92032,note_off,,,,,64,0,9,,,,,2,,,72,100
92064,note_on,,,,,32,0,7,,,,,0,,,79,87
92064,note_on,,,,,32,0,9,,,,,2,,,70,66
92128,note_off,,,,,64,0,7,,,,,0,,,79,100
92128,note_off,,,,,64,0,9,,,,,2,,,70,100
92156,note_off,,,,,188,0,13,,,,,6,,,63,100
92160,note_on,,,,,32,0,9,,,,,2,,,69,65
92160,note_on,,,,,128,0,14,,,,,6,,,50,100
92160,note_on,,,,,128,0,11,,,,,4,,,50,65
92160,note_on,,,,,4,0,13,,,,,6,,,65,100
92160,note_on,,,,,32,0,7,,,,,0,,,77,86
92252,note_off,,,,,92,0,7,,,,,0,,,77,100
92256,note_on,,,,,4,0,7,,,,,0,,,75,84
92260,note_off,,,,,100,0,9,,,,,2,,,69,100
92288,note_off,,,,,128,0,13,,,,,6,,,72,100
92288,note_off,,,,,320,0,8,,,,,1,,,72,100
92348,note_off,,,,,92,0,7,,,,,0,,,75,100
92352,note_on,,,,,64,0,8,,,,,1,,,77,65
92352,note_on,,,,,64,0,13,,,,,6,,,69,100
92352,note_on,,,,,92,0,9,,,,,2,,,74,65
92352,note_on,,,,,4,0,7,,,,,0,,,74,83
92416,note_off,,,,,256,0,14,,,,,6,,,50,100
92416,note_off,,,,,256,0,11,,,,,4,,,50,100
92444,note_off,,,,,92,0,7,,,,,0,,,74,100
92448,note_on,,,,,4,0,7,,,,,0,,,72,82
92452,note_off,,,,,100,0,9,,,,,2,,,74,100
92512,note_off,,,,,64,0,7,,,,,0,,,72,100
92540,note_off,,,,,188,0,13,,,,,6,,,69,100
92544,note_on,,,,,32,0,7,,,,,0,,,70,89
92544,note_on,,,,,128,0,11,,,,,4,,,43,64
92544,note_on,,,,,128,0,14,,,,,6,,,43,100
92544,note_on,,,,,4,0,13,,,,,6,,,70,100
92608,note_off,,,,,256,0,8,,,,,1,,,77,100
92608,note_off,,,,,64,0,7,,,,,0,,,70,100
92640,note_on,,,,,32,0,7,,,,,0,,,81,88
92704,note_off,,,,,64,0,7,,,,,0,,,81,100
92732,note_off,,,,,188,0,13,,,,,6,,,65,100
92736,note_on,,,,,4,0,13,,,,,6,,,62,100
92736,note_on,,,,,32,0,7,,,,,0,,,79,87
92736,note_on,,,,,128,0,8,,,,,1,,,70,63
92736,note_on,,,,,284,0,9,,,,,2,,,70,63
92800,note_off,,,,,256,0,14,,,,,6,,,43,100
92800,note_off,,,,,64,0,7,,,,,0,,,79,100
92800,note_off,,,,,256,0,11,,,,,4,,,43,100
92800,note_off,,,,,64,0,9,,,,,2,,,70,100
92832,note_on,,,,,32,0,9,,,,,2,,,69,63
92832,note_on,,,,,32,0,7,,,,,0,,,77,85
92896,note_off,,,,,64,0,9,,,,,2,,,69,100
92896,note_off,,,,,64,0,7,,,,,0,,,77,100
92924,note_off,,,,,188,0,13,,,,,6,,,62,100
92928,note_on,,,,,32,0,9,,,,,2,,,67,63
92928,note_on,,,,,32,0,7,,,,,0,,,75,84
92928,note_on,,,,,128,0,11,,,,,4,,,48,63
92928,note_on,,,,,0,0,13,,,,,6,,,63,100
92928,note_on,,,,,128,0,14,,,,,6,,,48,100
92928,note_off,,,,,4,0,13,,,,,6,,,70,100
92992,note_off,,,,,256,0,8,,,,,1,,,70,100
93020,note_off,,,,,92,0,7,,,,,0,,,75,100
93024,note_on,,,,,4,0,7,,,,,0,,,74,82
93028,note_off,,,,,100,0,9,,,,,2,,,67,100
93116,note_off,,,,,92,0,7,,,,,0,,,74,100
93120,note_on,,,,,128,0,8,,,,,1,,,75,62
93120,note_on,,,,,4,0,7,,,,,0,,,72,81
93120,note_on,,,,,92,0,9,,,,,2,,,72,62
93120,note_on,,,,,192,0,13,,,,,6,,,67,100
93184,note_off,,,,,256,0,14,,,,,6,,,48,100
93184,note_off,,,,,256,0,11,,,,,4,,,48,100
93212,note_off,,,,,92,0,7,,,,,0,,,72,100
93216,note_on,,,,,4,0,7,,,,,0,,,70,80
93220,note_off,,,,,100,0,9,,,,,2,,,72,100
93280,note_off,,,,,64,0,7,,,,,0,,,70,100
93308,note_off,,,,,188,0,13,,,,,6,,,67,100
93312,note_on,,,,,4,0,13,,,,,6,,,69,100
93312,note_on,,,,,128,0,14,,,,,6,,,41,100
93312,note_on,,,,,32,0,7,,,,,0,,,69,87
93312,note_on,,,,,128,0,11,,,,,4,,,41,62
93376,note_off,,,,,64,0,7,,,,,0,,,69,100
93376,note_off,,,,,256,0,8,,,,,1,,,75,100
93408,note_on,,,,,32,0,7,,,,,0,,,79,87
93472,note_off,,,,,64,0,7,,,,,0,,,79,100
93500,note_off,,,,,188,0,13,,,,,6,,,63,100
93504,note_on,,,,,284,0,9,,,,,2,,,69,61
93504,note_on,,,,,128,0,8,,,,,1,,,69,61
93504,note_on,,,,,4,0,13,,,,,6,,,60,100
93504,note_on,,,,,32,0,7,,,,,0,,,77,87
93568,note_off,,,,,64,0,13,,,,,6,,,69,100
93568,note_off,,,,,256,0,11,,,,,4,,,41,100
93568,note_off,,,,,64,0,7,,,,,0,,,77,100
93568,note_off,,,,,64,0,9,,,,,2,,,69,100
93568,note_off,,,,,256,0,14,,,,,6,,,41,100
93600,note_on,,,,,32,0,9,,,,,2,,,67,61
93600,note_on,,,,,32,0,7,,,,,0,,,75,86
93604,note_off,,,,,100,0,8,,,,,1,,,69,100
93664,note_off,,,,,64,0,7,,,,,0,,,75,100
93664,note_off,,,,,64,0,9,,,,,2,,,67,100
93692,note_off,,,,,124,0,13,,,,,6,,,60,100
93696,note_on,,,,,4,0,13,,,,,6,,,70,100
93696,note_on,,,,,92,0,8,,,,,1,,,70,61
93696,note_on,,,,,128,0,11,,,,,4,,,46,61
93696,note_on,,,,,32,0,7,,,,,0,,,74,85
93696,note_on,,,,,32,0,9,,,,,2,,,65,61
93696,note_on,,,,,0,0,13,,,,,6,,,62,100
93696,note_on,,,,,128,0,14,,,,,6,,,46,100
93788,note_off,,,,,92,0,7,,,,,0,,,74,100
93792,note_on,,,,,4,0,7,,,,,0,,,70,85
93796,note_off,,,,,100,0,9,,,,,2,,,65,100
93796,note_off,,,,,100,0,8,,,,,1,,,70,100
93856,note_off,,,,,64,0,7,,,,,0,,,70,100
93880,program_change,,,,,84,0,9,,,,,2,48,,,
93880,program_change,,,,,84,0,8,,,,,1,48,,,
93888,program_change,,,,,8,0,9,,,,,2,48,,,
93888,note_on,,,,,8,0,8,,,,,1,,,58,60
93888,note_on,,,,,32,0,7,,,,,0,,,74,86
93896,note_on,,,,,8,0,9,,,,,2,,,58,60
93952,note_off,,,,,0,0,13,,,,,6,,,62,100
93952,note_off,,,,,256,0,14,,,,,6,,,46,100
93952,note_off,,,,,256,0,11,,,,,4,,,46,100
93952,note_off,,,,,256,0,13,,,,,6,,,70,100
93980,note_off,,,,,92,0,7,,,,,0,,,74,100
93984,note_on,,,,,4,0,7,,,,,0,,,70,87
94016,note_off,,,,,128,0,8,,,,,1,,,58,100
94024,note_off,,,,,128,0,9,,,,,2,,,58,100
94048,note_off,,,,,64,0,7,,,,,0,,,70,100
94076,program_change,,,,,124,0,11,,,,,4,48,,,
94080,note_on,,,,,64,0,8,,,,,1,,,58,60
94080,note_on,,,,,32,0,7,,,,,0,,,74,87
94088,note_on,,,,,64,0,9,,,,,2,,,58,60
94172,note_off,,,,,92,0,7,,,,,0,,,74,100
94176,note_on,,,,,4,0,7,,,,,0,,,70,88
94208,note_off,,,,,128,0,8,,,,,1,,,58,100
94216,note_off,,,,,128,0,9,,,,,2,,,58,100
94240,note_off,,,,,64,0,7,,,,,0,,,70,100
94272,note_on,,,,,64,0,8,,,,,1,,,58,60
94272,note_on,,,,,32,0,7,,,,,0,,,74,89
94280,note_on,,,,,64,0,9,,,,,2,,,58,60
94364,note_off,,,,,92,0,7,,,,,0,,,74,100
94368,note_on,,,,,4,0,7,,,,,0,,,70,90
94400,note_off,,,,,128,0,8,,,,,1,,,58,100
94408,note_off,,,,,128,0,9,,,,,2,,,58,100
94432,note_off,,,,,64,0,7,,,,,0,,,70,100
94464,note_on,,,,,64,0,8,,,,,1,,,60,60
94464,note_on,,,,,32,0,7,,,,,0,,,75,90
94472,note_on,,,,,64,0,9,,,,,2,,,60,60
94556,note_off,,,,,92,0,7,,,,,0,,,75,100
94560,note_on,,,,,4,0,7,,,,,0,,,70,90
94592,note_off,,,,,128,0,8,,,,,1,,,60,100
94600,note_off,,,,,128,0,9,,,,,2,,,60,100
94624,note_off,,,,,64,0,7,,,,,0,,,70,100
94656,note_on,,,,,64,0,8,,,,,1,,,60,60
94656,note_on,,,,,32,0,7,,,,,0,,,74,90
94664,note_on,,,,,64,0,9,,,,,2,,,60,60
94748,note_off,,,,,92,0,7,,,,,0,,,74,100
94752,note_on,,,,,4,0,7,,,,,0,,,70,90
94784,note_off,,,,,128,0,8,,,,,1,,,60,100
94792,note_off,,,,,128,0,9,,,,,2,,,60,100
94816,note_off,,,,,64,0,7,,,,,0,,,70,100
94848,note_on,,,,,32,0,7,,,,,0,,,77,90
94848,note_on,,,,,64,0,8,,,,,1,,,62,60
94856,note_on,,,,,64,0,9,,,,,2,,,62,60
94940,note_off,,,,,92,0,7,,,,,0,,,77,100
94944,note_on,,,,,4,0,7,,,,,0,,,70,90
94976,note_off,,,,,128,0,8,,,,,1,,,62,100
94984,note_off,,,,,128,0,9,,,,,2,,,62,100
95008,note_off,,,,,64,0,7,,,,,0,,,70,100
95040,note_on,,,,,32,0,7,,,,,0,,,74,90
95040,note_on,,,,,64,0,8,,,,,1,,,62,60
95048,note_on,,,,,64,0,9,,,,,2,,,62,60
95132,note_off,,,,,92,0,7,,,,,0,,,74,100
95136,note_on,,,,,4,0,7,,,,,0,,,70,90
95168,note_off,,,,,128,0,8,,,,,1,,,62,100
95176,note_off,,,,,128,0,9,,,,,2,,,62,100
95200,note_off,,,,,64,0,7,,,,,0,,,70,100
95232,note_on,,,,,32,0,7,,,,,0,,,79,90
95232,note_on,,,,,64,0,8,,,,,1,,,63,60
95240,note_on,,,,,64,0,9,,,,,2,,,63,60
95324,note_off,,,,,92,0,7,,,,,0,,,79,100
95328,note_on,,,,,4,0,7,,,,,0,,,70,89
95360,note_off,,,,,128,0,8,,,,,1,,,63,100
95368,note_off,,,,,128,0,9,,,,,2,,,63,100
95392,note_off,,,,,64,0,7,,,,,0,,,70,100
95424,note_on,,,,,32,0,7,,,,,0,,,74,88
95424,note_on,,,,,64,0,8,,,,,1,,,63,60
95432,note_on,,,,,64,0,9,,,,,2,,,63,60
95516,note_off,,,,,92,0,7,,,,,0,,,74,100
95520,note_on,,,,,4,0,7,,,,,0,,,70,86
95552,note_off,,,,,128,0,8,,,,,1,,,63,100
95560,note_off,,,,,128,0,9,,,,,2,,,63,100
95584,note_off,,,,,64,0,7,,,,,0,,,70,100
95616,note_on,,,,,64,0,8,,,,,1,,,58,60
95616,note_on,,,,,32,0,7,,,,,0,,,74,85
95624,note_on,,,,,64,0,9,,,,,2,,,58,60
95708,note_off,,,,,92,0,7,,,,,0,,,74,100
95712,note_on,,,,,4,0,7,,,,,0,,,70,83
95744,note_off,,,,,128,0,8,,,,,1,,,58,100
95752,note_off,,,,,128,0,9,,,,,2,,,58,100
95776,note_off,,,,,64,0,7,,,,,0,,,70,100
95808,note_on,,,,,64,0,8,,,,,1,,,58,60
95808,note_on,,,,,32,0,7,,,,,0,,,74,82
95816,note_on,,,,,64,0,9,,,,,2,,,58,60
95900,note_off,,,,,92,0,7,,,,,0,,,74,100
95904,note_on,,,,,4,0,7,,,,,0,,,70,81
95936,note_off,,,,,128,0,8,,,,,1,,,58,100
95944,note_off,,,,,128,0,9,,,,,2,,,58,100
95968,note_off,,,,,64,0,7,,,,,0,,,70,100
96000,note_on,,,,,32,0,7,,,,,0,,,75,80
96000,note_on,,,,,64,0,8,,,,,1,,,60,60
96008,note_on,,,,,64,0,9,,,,,2,,,60,60
96092,note_off,,,,,92,0,7,,,,,0,,,75,100
96096,note_on,,,,,4,0,7,,,,,0,,,70,80
96128,note_off,,,,,128,0,8,,,,,1,,,60,100
96136,note_off,,,,,128,0,9,,,,,2,,,60,100
96160,note_off,,,,,64,0,7,,,,,0,,,70,100
96192,note_on,,,,,64,0,8,,,,,1,,,60,60
96192,note_on,,,,,32,0,7,,,,,0,,,74,80
96200,note_on,,,,,64,0,9,,,,,2,,,60,60
96284,note_off,,,,,92,0,7,,,,,0,,,74,100
96288,note_on,,,,,4,0,7,,,,,0,,,70,80
96320,note_off,,,,,128,0,8,,,,,1,,,60,100
96328,note_off,,,,,128,0,9,,,,,2,,,60,100
96352,note_off,,,,,64,0,7,,,,,0,,,70,100
96384,note_on,,,,,32,0,7,,,,,0,,,77,80
96384,note_on,,,,,64,0,8,,,,,1,,,62,60
96392,note_on,,,,,64,0,9,,,,,2,,,62,60
96476,note_off,,,,,92,0,7,,,,,0,,,77,100
96480,note_on,,,,,4,0,7,,,,,0,,,70,80
96512,note_off,,,,,128,0,8,,,,,1,,,62,100
96520,note_off,,,,,128,0,9,,,,,2,,,62,100
96544,note_off,,,,,64,0,7,,,,,0,,,70,100
96576,note_on,,,,,64,0,8,,,,,1,,,62,60
96576,note_on,,,,,32,0,7,,,,,0,,,74,80
96584,note_on,,,,,64,0,9,,,,,2,,,62,60
96668,note_off,,,,,92,0,7,,,,,0,,,74,100
96672,note_on,,,,,4,0,7,,,,,0,,,70,80
96704,note_off,,,,,128,0,8,,,,,1,,,62,100
96712,note_off,,,,,128,0,9,,,,,2,,,62,100
96736,note_off,,,,,64,0,7,,,,,0,,,70,100
96768,note_on,,,,,32,0,7,,,,,0,,,79,80
96768,note_on,,,,,64,0,8,,,,,1,,,63,60
96776,note_on,,,,,64,0,9,,,,,2,,,63,60
96860,note_off,,,,,92,0,7,,,,,0,,,79,100
96864,note_on,,,,,4,0,7,,,,,0,,,70,83
96896,note_off,,,,,128,0,8,,,,,1,,,63,100
96904,note_off,,,,,128,0,9,,,,,2,,,63,100
96928,note_off,,,,,64,0,7,,,,,0,,,70,100
96960,note_on,,,,,32,0,7,,,,,0,,,74,87
96960,note_on,,,,,64,0,8,,,,,1,,,63,60
96968,note_on,,,,,64,0,9,,,,,2,,,63,60
97052,note_off,,,,,92,0,7,,,,,0,,,74,100
97056,note_on,,,,,4,0,7,,,,,0,,,70,91
97088,note_off,,,,,128,0,8,,,,,1,,,63,100
97096,note_off,,,,,128,0,9,,,,,2,,,63,100
97120,note_off,,,,,64,0,7,,,,,0,,,70,100
97152,note_on,,,,,64,0,8,,,,,1,,,58,60
97152,note_on,,,,,32,0,7,,,,,0,,,62,95
97160,note_on,,,,,64,0,9,,,,,2,,,58,60
97244,note_off,,,,,92,0,7,,,,,0,,,62,100
97248,note_on,,,,,4,0,7,,,,,0,,,70,95
97280,note_off,,,,,128,0,8,,,,,1,,,58,100
97288,note_off,,,,,128,0,9,,,,,2,,,58,100
97312,note_off,,,,,64,0,7,,,,,0,,,70,100
97344,note_on,,,,,64,0,8,,,,,1,,,58,60
97344,note_on,,,,,32,0,7,,,,,0,,,74,95
97352,note_on,,,,,64,0,9,,,,,2,,,58,60
97436,note_off,,,,,92,0,7,,,,,0,,,74,100
97440,note_on,,,,,4,0,7,,,,,0,,,70,95
97472,note_off,,,,,128,0,8,,,,,1,,,58,100
97480,note_off,,,,,128,0,9,,,,,2,,,58,100
97504,note_off,,,,,64,0,7,,,,,0,,,70,100
97536,note_on,,,,,32,0,7,,,,,0,,,63,95
97536,note_on,,,,,64,0,8,,,,,1,,,60,60
97544,note_on,,,,,64,0,9,,,,,2,,,60,60
97628,note_off,,,,,92,0,7,,,,,0,,,63,100
97632,note_on,,,,,4,0,7,,,,,0,,,70,95
97664,note_off,,,,,128,0,8,,,,,1,,,60,100
97672,note_off,,,,,128,0,9,,,,,2,,,60,100
97696,note_off,,,,,64,0,7,,,,,0,,,70,100
97728,note_on,,,,,32,0,7,,,,,0,,,74,95
97728,note_on,,,,,64,0,8,,,,,1,,,60,60
97736,note_on,,,,,64,0,9,,,,,2,,,60,60
97820,note_off,,,,,92,0,7,,,,,0,,,74,100
97824,note_on,,,,,4,0,7,,,,,0,,,70,95
97856,note_off,,,,,128,0,8,,,,,1,,,60,100
97864,note_off,,,,,128,0,9,,,,,2,,,60,100
97888,note_off,,,,,64,0,7,,,,,0,,,70,100
97920,note_on,,,,,64,0,8,,,,,1,,,62,60
97920,note_on,,,,,32,0,7,,,,,0,,,65,95
97928,note_on,,,,,64,0,9,,,,,2,,,62,60
98012,note_off,,,,,92,0,7,,,,,0,,,65,100
98016,note_on,,,,,4,0,7,,,,,0,,,70,95
98048,note_off,,,,,128,0,8,,,,,1,,,62,100
98056,note_off,,,,,128,0,9,,,,,2,,,62,100
98080,note_off,,,,,64,0,7,,,,,0,,,70,100
98112,note_on,,,,,64,0,8,,,,,1,,,62,60
98112,note_on,,,,,32,0,7,,,,,0,,,74,95
98120,note_on,,,,,64,0,9,,,,,2,,,62,60
98204,note_off,,,,,92,0,7,,,,,0,,,74,100
98208,note_on,,,,,4,0,7,,,,,0,,,70,95
98240,note_off,,,,,128,0,8,,,,,1,,,62,100
98248,note_off,,,,,128,0,9,,,,,2,,,62,100
98272,note_off,,,,,64,0,7,,,,,0,,,70,100
98304,note_on,,,,,64,0,8,,,,,1,,,63,60
98304,note_on,,,,,32,0,7,,,,,0,,,67,95
98312,note_on,,,,,64,0,9,,,,,2,,,63,60
98396,note_off,,,,,92,0,7,,,,,0,,,67,100
98400,note_on,,,,,4,0,7,,,,,0,,,70,95
98432,note_off,,,,,128,0,8,,,,,1,,,63,100
98440,note_off,,,,,128,0,9,,,,,2,,,63,100
98464,note_off,,,,,64,0,7,,,,,0,,,70,100
98496,note_on,,,,,32,0,7,,,,,0,,,74,95
98496,note_on,,,,,64,0,8,,,,,1,,,63,60
98504,note_on,,,,,64,0,9,,,,,2,,,63,60
98588,note_off,,,,,92,0,7,,,,,0,,,74,100
98592,note_on,,,,,4,0,7,,,,,0,,,70,95
98624,note_off,,,,,128,0,8,,,,,1,,,63,100
98632,note_off,,,,,128,0,9,,,,,2,,,63,100
98656,note_off,,,,,64,0,7,,,,,0,,,70,100
98688,note_on,,,,,32,0,7,,,,,0,,,62,85
98688,note_on,,,,,64,0,8,,,,,1,,,58,50
98696,note_on,,,,,64,0,9,,,,,2,,,58,50
98780,note_off,,,,,92,0,7,,,,,0,,,62,100
98784,note_on,,,,,4,0,7,,,,,0,,,70,85
98816,note_off,,,,,128,0,8,,,,,1,,,58,100
98824,note_off,,,,,128,0,9,,,,,2,,,58,100
98848,note_off,,,,,64,0,7,,,,,0,,,70,100
98880,note_on,,,,,32,0,7,,,,,0,,,74,85
98880,note_on,,,,,64,0,8,,,,,1,,,58,50
98888,note_on,,,,,64,0,9,,,,,2,,,58,50
98972,note_off,,,,,92,0,7,,,,,0,,,74,100
98976,note_on,,,,,4,0,7,,,,,0,,,70,85
99008,note_off,,,,,128,0,8,,,,,1,,,58,100
99016,note_off,,,,,128,0,9,,,,,2,,,58,100
99040,note_off,,,,,64,0,7,,,,,0,,,70,100
99072,note_on,,,,,64,0,8,,,,,1,,,60,50
99072,note_on,,,,,32,0,7,,,,,0,,,63,85
99080,note_on,,,,,64,0,9,,,,,2,,,60,50
99164,note_off,,,,,92,0,7,,,,,0,,,63,100
99168,note_on,,,,,4,0,7,,,,,0,,,70,85
99200,note_off,,,,,128,0,8,,,,,1,,,60,100
99208,note_off,,,,,128,0,9,,,,,2,,,60,100
99232,note_off,,,,,64,0,7,,,,,0,,,70,100
99264,note_on,,,,,32,0,7,,,,,0,,,74,85
99264,note_on,,,,,64,0,8,,,,,1,,,60,50
99272,note_on,,,,,64,0,9,,,,,2,,,60,50
99356,note_off,,,,,92,0,7,,,,,0,,,74,100
99360,note_on,,,,,4,0,7,,,,,0,,,70,85
99392,note_off,,,,,128,0,8,,,,,1,,,60,100
99400,note_off,,,,,128,0,9,,,,,2,,,60,100
99424,note_off,,,,,64,0,7,,,,,0,,,70,100
99456,note_on,,,,,64,0,8,,,,,1,,,62,50
99456,note_on,,,,,32,0,7,,,,,0,,,65,85
99464,note_on,,,,,64,0,9,,,,,2,,,62,50
99548,note_off,,,,,92,0,7,,,,,0,,,65,100
99552,note_on,,,,,4,0,7,,,,,0,,,70,85
99584,note_off,,,,,128,0,8,,,,,1,,,62,100
99592,note_off,,,,,128,0,9,,,,,2,,,62,100
99616,note_off,,,,,64,0,7,,,,,0,,,70,100
99648,note_on,,,,,64,0,8,,,,,1,,,62,50
99648,note_on,,,,,32,0,7,,,,,0,,,74,85
99656,note_on,,,,,64,0,9,,,,,2,,,62,50
99740,note_off,,,,,92,0,7,,,,,0,,,74,100
99744,note_on,,,,,4,0,7,,,,,0,,,70,85
99776,note_off,,,,,128,0,8,,,,,1,,,62,100
99784,note_off,,,,,128,0,9,,,,,2,,,62,100
99808,note_off,,,,,64,0,7,,,,,0,,,70,100
99840,note_on,,,,,64,0,8,,,,,1,,,63,50
99840,note_on,,,,,32,0,7,,,,,0,,,67,85
99848,note_on,,,,,64,0,9,,,,,2,,,63,50
99932,note_off,,,,,92,0,7,,,,,0,,,67,100
99936,note_on,,,,,4,0,7,,,,,0,,,70,85
99968,note_off,,,,,128,0,8,,,,,1,,,63,100
99976,note_off,,,,,128,0,9,,,,,2,,,63,100
100000,note_off,,,,,64,0,7,,,,,0,,,70,100
100032,note_on,,,,,64,0,8,,,,,1,,,63,50
100032,note_on,,,,,32,0,7,,,,,0,,,74,85
100040,note_on,,,,,64,0,9,,,,,2,,,63,50
100124,note_off,,,,,92,0,7,,,,,0,,,74,100
100128,note_on,,,,,4,0,7,,,,,0,,,70,85
100160,note_off,,,,,128,0,8,,,,,1,,,63,100
100168,note_off,,,,,128,0,9,,,,,2,,,63,100
100192,note_off,,,,,64,0,7,,,,,0,,,70,100
100224,note_on,,,,,32,0,7,,,,,0,,,62,85
100224,note_on,,,,,64,0,8,,,,,1,,,58,60
100232,note_on,,,,,64,0,9,,,,,2,,,58,60
100316,note_off,,,,,92,0,7,,,,,0,,,62,100
100320,note_on,,,,,4,0,7,,,,,0,,,70,86
100352,note_off,,,,,128,0,8,,,,,1,,,58,100
100360,note_off,,,,,128,0,9,,,,,2,,,58,100
100384,note_off,,,,,64,0,7,,,,,0,,,70,100
100416,note_on,,,,,32,0,7,,,,,0,,,74,87
100416,note_on,,,,,64,0,8,,,,,1,,,58,66
100424,note_on,,,,,64,0,9,,,,,2,,,58,66
100508,note_off,,,,,92,0,7,,,,,0,,,74,100
100512,note_on,,,,,4,0,7,,,,,0,,,70,88
100544,note_off,,,,,128,0,8,,,,,1,,,58,100
100552,note_off,,,,,128,0,9,,,,,2,,,58,100
100576,note_off,,,,,64,0,7,,,,,0,,,70,100
100608,note_on,,,,,64,0,8,,,,,1,,,60,73
100608,note_on,,,,,32,0,7,,,,,0,,,63,89
100616,note_on,,,,,64,0,9,,,,,2,,,60,73
100700,note_off,,,,,92,0,7,,,,,0,,,63,100
100704,note_on,,,,,4,0,7,,,,,0,,,70,91
100736,note_off,,,,,128,0,8,,,,,1,,,60,100
100744,note_off,,,,,128,0,9,,,,,2,,,60,100
100768,note_off,,,,,64,0,7,,,,,0,,,70,100
100800,note_on,,,,,64,0,8,,,,,1,,,60,79
100800,note_on,,,,,32,0,7,,,,,0,,,74,92
100808,note_on,,,,,64,0,9,,,,,2,,,60,80
100892,note_off,,,,,92,0,7,,,,,0,,,74,100
100896,note_on,,,,,4,0,7,,,,,0,,,70,93
100928,note_off,,,,,128,0,8,,,,,1,,,60,100
100936,note_off,,,,,128,0,9,,,,,2,,,60,100
100960,note_off,,,,,64,0,7,,,,,0,,,70,100
100992,note_on,,,,,32,0,7,,,,,0,,,65,94
100992,note_on,,,,,64,0,8,,,,,1,,,65,86
101000,note_on,,,,,64,0,9,,,,,2,,,65,86
101084,note_off,,,,,92,0,7,,,,,0,,,65,100
101088,note_on,,,,,4,0,7,,,,,0,,,69,96
101120,note_off,,,,,128,0,8,,,,,1,,,65,100
101128,note_off,,,,,128,0,9,,,,,2,,,65,100
101152,note_off,,,,,64,0,7,,,,,0,,,69,100
101184,note_on,,,,,64,0,8,,,,,1,,,65,93
101184,note_on,,,,,32,0,7,,,,,0,,,72,97
101192,note_on,,,,,64,0,9,,,,,2,,,65,93
101276,note_off,,,,,92,0,7,,,,,0,,,72,100
101280,note_on,,,,,4,0,7,,,,,0,,,69,98
101312,note_off,,,,,128,0,8,,,,,1,,,65,100
101320,note_off,,,,,128,0,9,,,,,2,,,65,100
101344,note_off,,,,,64,0,7,,,,,0,,,69,100
101376,note_on,,,,,0,0,15,,,,,7,,,65,100
101376,note_on,,,,,32,0,7,,,,,0,,,70,99
101376,note_on,,,,,7424,0,14,,,,,6,,,46,100
101376,note_on,,,,,11200,0,12,,,,,5,,,34,100
101376,note_on,,,,,0,0,15,,,,,7,,,70,100
101376,note_on,,,,,11200,0,16,,,,,7,,,46,100
101376,note_on,,,,,11200,0,15,,,,,7,,,62,100
101376,note_on,,,,,11228,0,10,,,,,3,,,62,100
101376,note_on,,,,,64,0,8,,,,,1,,,70,99
101376,note_on,,,,,56,0,9,,,,,2,,,58,99
101376,note_on,,,,,0,0,13,,,,,6,,,65,100
101376,note_on,,,,,7424,0,13,,,,,6,,,62,100
101376,note_on,,,,,7300,0,11,,,,,4,,,46,100
101476,note_off,,,,,100,0,8,,,,,1,,,70,100
101476,note_off,,,,,100,0,14,,,,,6,,,46,100
101476,note_off,,,,,100,0,11,,,,,4,,,46,100
101476,note_off,,,,,100,0,10,,,,,3,,,62,100
101476,note_off,,,,,100,0,12,,,,,5,,,34,100
101504,note_off,,,,,128,0,7,,,,,0,,,70,100
101504,note_off,,,,,128,0,16,,,,,7,,,46,100
101568,note_on,,,,,192,0,13,,,,,6,,,70,100
101568,note_on,,,,,92,0,10,,,,,3,,,58,100
101568,note_on,,,,,92,0,8,,,,,1,,,70,100
101568,note_on,,,,,92,0,11,,,,,4,,,58,100
101568,note_on,,,,,64,0,16,,,,,7,,,58,100
101568,note_on,,,,,92,0,12,,,,,5,,,46,100
101568,note_on,,,,,92,0,14,,,,,6,,,58,100
101632,note_off,,,,,256,0,9,,,,,2,,,58,100
101632,note_off,,,,,0,0,13,,,,,6,,,70,100
101632,note_off,,,,,0,0,13,,,,,6,,,65,100
101632,note_off,,,,,64,0,13,,,,,6,,,62,100
101664,note_on,,,,,32,0,13,,,,,6,,,69,100
101668,note_off,,,,,100,0,11,,,,,4,,,58,100
101668,note_off,,,,,100,0,14,,,,,6,,,58,100
101668,note_off,,,,,100,0,12,,,,,5,,,46,100
101668,note_off,,,,,100,0,8,,,,,1,,,70,100
101668,note_off,,,,,100,0,10,,,,,3,,,58,100
101696,note_off,,,,,128,0,16,,,,,7,,,58,100
101728,note_off,,,,,64,0,13,,,,,6,,,69,100
101760,note_on,,,,,92,0,11,,,,,4,,,58,100
101760,note_on,,,,,92,0,8,,,,,1,,,70,100
101760,note_on,,,,,64,0,16,,,,,7,,,58,100
101760,note_on,,,,,92,0,12,,,,,5,,,46,100
101760,note_on,,,,,92,0,10,,,,,3,,,62,100
101760,note_on,,,,,92,0,14,,,,,6,,,58,100
101760,note_on,,,,,32,0,13,,,,,6,,,70,100
101824,note_off,,,,,64,0,13,,,,,6,,,70,100
101856,note_on,,,,,32,0,13,,,,,6,,,65,100
101860,note_off,,,,,100,0,12,,,,,5,,,46,100
101860,note_off,,,,,100,0,8,,,,,1,,,70,100
101860,note_off,,,,,100,0,10,,,,,3,,,62,100
101860,note_off,,,,,100,0,14,,,,,6,,,58,100
101860,note_off,,,,,100,0,11,,,,,4,,,58,100
101888,note_off,,,,,128,0,16,,,,,7,,,58,100
101920,note_off,,,,,64,0,13,,,,,6,,,65,100
101952,note_on,,,,,92,0,11,,,,,4,,,46,100
101952,note_on,,,,,32,0,13,,,,,6,,,62,100
101952,note_on,,,,,92,0,12,,,,,5,,,34,100
101952,note_on,,,,,92,0,14,,,,,6,,,46,100
101952,note_on,,,,,64,0,16,,,,,7,,,46,100
101952,note_on,,,,,92,0,10,,,,,3,,,65,100
101952,note_on,,,,,320,0,9,,,,,2,,,65,100
101952,note_on,,,,,92,0,8,,,,,1,,,70,100
102016,note_off,,,,,64,0,13,,,,,6,,,62,100
102048,note_on,,,,,32,0,13,,,,,6,,,65,100
102052,note_off,,,,,100,0,10,,,,,3,,,65,100
102052,note_off,,,,,100,0,9,,,,,2,,,65,100
102052,note_off,,,,,100,0,12,,,,,5,,,34,100
102052,note_off,,,,,100,0,11,,,,,4,,,46,100
102052,note_off,,,,,100,0,14,,,,,6,,,46,100
102052,note_off,,,,,100,0,8,,,,,1,,,70,100
102064,note_off,,,,,0,0,15,,,,,7,,,65,100
102064,note_off,,,,,0,0,15,,,,,7,,,70,100
102064,note_off,,,,,688,0,15,,,,,7,,,62,100
102080,note_off,,,,,128,0,16,,,,,7,,,46,100
102112,note_off,,,,,64,0,13,,,,,6,,,65,100
102144,note_on,,,,,92,0,8,,,,,1,,,70,100
102144,note_on,,,,,80,0,15,,,,,7,,,62,100
102144,note_on,,,,,0,0,15,,,,,7,,,65,100
102144,note_on,,,,,0,0,15,,,,,7,,,70,100
102144,note_on,,,,,92,0,10,,,,,3,,,62,100
102144,note_on,,,,,64,0,16,,,,,7,,,46,100
102144,note_on,,,,,92,0,12,,,,,5,,,34,100
102144,note_on,,,,,92,0,11,,,,,4,,,46,100
102144,note_on,,,,,92,0,14,,,,,6,,,46,100
102144,note_on,,,,,32,0,13,,,,,6,,,58,100
102144,note_on,,,,,92,0,9,,,,,2,,,70,100
102208,note_off,,,,,64,0,13,,,,,6,,,58,100
102208,note_off,,,,,64,0,8,,,,,1,,,70,100
102240,note_on,,,,,32,0,13,,,,,6,,,65,100
102240,note_on,,,,,32,0,8,,,,,1,,,65,100
102244,note_off,,,,,100,0,14,,,,,6,,,46,100
102244,note_off,,,,,100,0,10,,,,,3,,,62,100
102244,note_off,,,,,100,0,9,,,,,2,,,70,100
102244,note_off,,,,,100,0,12,,,,,5,,,34,100
102244,note_off,,,,,100,0,11,,,,,4,,,46,100
102272,note_off,,,,,128,0,16,,,,,7,,,46,100
102304,note_off,,,,,64,0,13,,,,,6,,,65,100
102304,note_off,,,,,64,0,8,,,,,1,,,65,100
102336,note_on,,,,,92,0,14,,,,,6,,,58,100
102336,note_on,,,,,92,0,12,,,,,5,,,46,100
102336,note_on,,,,,32,0,13,,,,,6,,,62,100
102336,note_on,,,,,92,0,9,,,,,2,,,70,100
102336,note_on,,,,,64,0,16,,,,,7,,,58,100
102336,note_on,,,,,92,0,10,,,,,3,,,58,100
102336,note_on,,,,,32,0,8,,,,,1,,,62,100
102336,note_on,,,,,92,0,11,,,,,4,,,58,100
102400,note_off,,,,,64,0,13,,,,,6,,,62,100
102400,note_off,,,,,64,0,8,,,,,1,,,62,100
102432,note_on,,,,,32,0,13,,,,,6,,,65,100
102432,note_on,,,,,32,0,8,,,,,1,,,65,100
102436,note_off,,,,,100,0,11,,,,,4,,,58,100
102436,note_off,,,,,100,0,12,,,,,5,,,46,100
102436,note_off,,,,,100,0,10,,,,,3,,,58,100
102436,note_off,,,,,100,0,9,,,,,2,,,70,100
102436,note_off,,,,,100,0,14,,,,,6,,,58,100
102464,note_off,,,,,128,0,16,,,,,7,,,58,100
102496,note_off,,,,,64,0,13,,,,,6,,,65,100
102496,note_off,,,,,64,0,8,,,,,1,,,65,100
102528,note_on,,,,,92,0,11,,,,,4,,,58,100
102528,note_on,,,,,32,0,8,,,,,1,,,70,100
102528,note_on,,,,,32,0,13,,,,,6,,,70,100
102528,note_on,,,,,64,0,16,,,,,7,,,58,100
102528,note_on,,,,,92,0,10,,,,,3,,,62,100
102528,note_on,,,,,92,0,12,,,,,5,,,46,100
102528,note_on,,,,,92,0,9,,,,,2,,,70,100
102528,note_on,,,,,92,0,14,,,,,6,,,58,100
102592,note_off,,,,,64,0,8,,,,,1,,,70,100
102592,note_off,,,,,64,0,13,,,,,6,,,70,100
102624,note_on,,,,,32,0,13,,,,,6,,,65,100
102624,note_on,,,,,32,0,8,,,,,1,,,65,100
102628,note_off,,,,,100,0,10,,,,,3,,,62,100
102628,note_off,,,,,100,0,14,,,,,6,,,58,100
102628,note_off,,,,,100,0,9,,,,,2,,,70,100
102628,note_off,,,,,100,0,12,,,,,5,,,46,100
102628,note_off,,,,,100,0,11,,,,,4,,,58,100
102656,note_off,,,,,128,0,16,,,,,7,,,58,100
102688,note_off,,,,,64,0,13,,,,,6,,,65,100
102688,note_off,,,,,64,0,8,,,,,1,,,65,100
102720,note_on,,,,,64,0,16,,,,,7,,,46,100
102720,note_on,,,,,92,0,14,,,,,6,,,46,100
102720,note_on,,,,,92,0,9,,,,,2,,,70,100
102720,note_on,,,,,32,0,8,,,,,1,,,62,100
102720,note_on,,,,,32,0,13,,,,,6,,,62,100
102720,note_on,,,,,92,0,11,,,,,4,,,46,100
102720,note_on,,,,,92,0,12,,,,,5,,,34,100
102720,note_on,,,,,92,0,10,,,,,3,,,65,100
102784,note_off,,,,,64,0,8,,,,,1,,,62,100
102784,note_off,,,,,64,0,13,,,,,6,,,62,100
102816,note_on,,,,,32,0,13,,,,,6,,,65,100
102816,note_on,,,,,32,0,8,,,,,1,,,65,100
102820,note_off,,,,,100,0,14,,,,,6,,,46,100
102820,note_off,,,,,100,0,11,,,,,4,,,46,100
102820,note_off,,,,,100,0,12,,,,,5,,,34,100
102820,note_off,,,,,100,0,10,,,,,3,,,65,100
102820,note_off,,,,,100,0,9,,,,,2,,,70,100
102832,note_off,,,,,0,0,15,,,,,7,,,70,100
102832,note_off,,,,,688,0,15,,,,,7,,,62,100
102832,note_off,,,,,0,0,15,,,,,7,,,65,100
102848,note_off,,,,,128,0,16,,,,,7,,,46,100
102880,note_off,,,,,64,0,13,,,,,6,,,65,100
102880,note_off,,,,,64,0,8,,,,,1,,,65,100
102912,note_on,,,,,0,0,15,,,,,7,,,70,100
102912,note_on,,,,,64,0,16,,,,,7,,,46,100
102912,note_on,,,,,32,0,8,,,,,1,,,70,100
102912,note_on,,,,,92,0,9,,,,,2,,,70,100
102912,note_on,,,,,92,0,12,,,,,5,,,34,100
102912,note_on,,,,,92,0,11,,,,,4,,,46,100
102912,note_on,,,,,92,0,14,,,,,6,,,46,100
102912,note_on,,,,,92,0,10,,,,,3,,,62,100
102912,note_on,,,,,80,0,15,,,,,7,,,62,100
102912,note_on,,,,,0,0,15,,,,,7,,,65,100
102912,note_on,,,,,32,0,13,,,,,6,,,58,100
102976,note_off,,,,,64,0,13,,,,,6,,,58,100
102976,note_off,,,,,64,0,9,,,,,2,,,70,100
103008,note_on,,,,,32,0,9,,,,,2,,,65,100
103008,note_on,,,,,32,0,13,,,,,6,,,65,100
103012,note_off,,,,,100,0,11,,,,,4,,,46,100
103012,note_off,,,,,100,0,8,,,,,1,,,70,100
103012,note_off,,,,,100,0,12,,,,,5,,,34,100
103012,note_off,,,,,100,0,14,,,,,6,,,46,100
103012,note_off,,,,,100,0,10,,,,,3,,,62,100
103040,note_off,,,,,128,0,16,,,,,7,,,46,100
103072,note_off,,,,,64,0,9,,,,,2,,,65,100
103072,note_off,,,,,64,0,13,,,,,6,,,65,100
103104,note_on,,,,,92,0,14,,,,,6,,,58,100
103104,note_on,,,,,64,0,16,,,,,7,,,58,100
103104,note_on,,,,,32,0,13,,,,,6,,,62,100
103104,note_on,,,,,92,0,12,,,,,5,,,46,100
103104,note_on,,,,,32,0,9,,,,,2,,,62,100
103104,note_on,,,,,92,0,10,,,,,3,,,58,100
103104,note_on,,,,,92,0,11,,,,,4,,,58,100
103104,note_on,,,,,92,0,8,,,,,1,,,70,100
103168,note_off,,,,,64,0,13,,,,,6,,,62,100
103168,note_off,,,,,64,0,9,,,,,2,,,62,100
103200,note_on,,,,,32,0,9,,,,,2,,,65,100
103200,note_on,,,,,32,0,13,,,,,6,,,65,100
103204,note_off,,,,,100,0,10,,,,,3,,,58,100
103204,note_off,,,,,100,0,14,,,,,6,,,58,100
103204,note_off,,,,,100,0,8,,,,,1,,,70,100
103204,note_off,,,,,100,0,12,,,,,5,,,46,100
103204,note_off,,,,,100,0,11,,,,,4,,,58,100
103232,note_off,,,,,128,0,16,,,,,7,,,58,100
103264,note_off,,,,,64,0,9,,,,,2,,,65,100
103264,note_off,,,,,64,0,13,,,,,6,,,65,100
103296,note_on,,,,,64,0,16,,,,,7,,,58,100
103296,note_on,,,,,92,0,10,,,,,3,,,62,100
103296,note_on,,,,,92,0,14,,,,,6,,,58,100
103296,note_on,,,,,32,0,9,,,,,2,,,70,100
103296,note_on,,,,,92,0,12,,,,,5,,,46,100
103296,note_on,,,,,32,0,13,,,,,6,,,70,100
103296,note_on,,,,,92,0,11,,,,,4,,,58,100
103296,note_on,,,,,92,0,8,,,,,1,,,70,100
103360,note_off,,,,,64,0,9,,,,,2,,,70,100
103360,note_off,,,,,64,0,13,,,,,6,,,70,100
103392,note_on,,,,,32,0,13,,,,,6,,,65,100
103392,note_on,,,,,32,0,9,,,,,2,,,65,100
103396,note_off,,,,,100,0,14,,,,,6,,,58,100
103396,note_off,,,,,100,0,11,,,,,4,,,58,100
103396,note_off,,,,,100,0,12,,,,,5,,,46,100
103396,note_off,,,,,100,0,8,,,,,1,,,70,100
103396,note_off,,,,,100,0,10,,,,,3,,,62,100
103424,note_off,,,,,128,0,16,,,,,7,,,58,100
103456,note_off,,,,,64,0,9,,,,,2,,,65,100
103456,note_off,,,,,64,0,13,,,,,6,,,65,100
103488,note_on,,,,,32,0,13,,,,,6,,,62,100
103488,note_on,,,,,92,0,12,,,,,5,,,34,100
103488,note_on,,,,,32,0,9,,,,,2,,,62,100
103488,note_on,,,,,92,0,11,,,,,4,,,46,100
103488,note_on,,,,,64,0,16,,,,,7,,,46,100
103488,note_on,,,,,92,0,14,,,,,6,,,46,100
103488,note_on,,,,,92,0,10,,,,,3,,,65,100
103488,note_on,,,,,92,0,8,,,,,1,,,70,100
103552,note_off,,,,,64,0,13,,,,,6,,,62,100
103552,note_off,,,,,64,0,9,,,,,2,,,62,100
103584,note_on,,,,,32,0,13,,,,,6,,,65,100
103584,note_on,,,,,32,0,9,,,,,2,,,65,100
103588,note_off,,,,,100,0,8,,,,,1,,,70,100
103588,note_off,,,,,100,0,11,,,,,4,,,46,100
103588,note_off,,,,,100,0,14,,,,,6,,,46,100
103588,note_off,,,,,100,0,12,,,,,5,,,34,100
103588,note_off,,,,,100,0,10,,,,,3,,,65,100
103600,note_off,,,,,688,0,15,,,,,7,,,62,100
103600,note_off,,,,,0,0,15,,,,,7,,,65,100
103600,note_off,,,,,0,0,15,,,,,7,,,70,100
103616,note_off,,,,,128,0,16,,,,,7,,,46,100
103648,note_off,,,,,64,0,9,,,,,2,,,65,100
103648,note_off,,,,,64,0,13,,,,,6,,,65,100
103680,note_on,,,,,32,0,9,,,,,2,,,70,100
103680,note_on,,,,,0,0,15,,,,,7,,,65,100
103680,note_on,,,,,32,0,13,,,,,6,,,58,100
103680,note_on,,,,,92,0,14,,,,,6,,,46,100
103680,note_on,,,,,0,0,15,,,,,7,,,70,100
103680,note_on,,,,,92,0,11,,,,,4,,,46,100
103680,note_on,,,,,64,0,16,,,,,7,,,46,100
103680,note_on,,,,,92,0,12,,,,,5,,,34,100
103680,note_on,,,,,92,0,10,,,,,3,,,62,100
103680,note_on,,,,,80,0,15,,,,,7,,,62,100
103680,note_on,,,,,92,0,8,,,,,1,,,70,100
103744,note_off,,,,,64,0,8,,,,,1,,,70,100
103744,note_off,,,,,64,0,13,,,,,6,,,58,100
103776,note_on,,,,,32,0,13,,,,,6,,,65,100
103776,note_on,,,,,32,0,8,,,,,1,,,65,100
103780,note_off,,,,,100,0,9,,,,,2,,,70,100
103780,note_off,,,,,100,0,14,,,,,6,,,46,100
103780,note_off,,,,,100,0,12,,,,,5,,,34,100
103780,note_off,,,,,100,0,10,,,,,3,,,62,100
103780,note_off,,,,,100,0,11,,,,,4,,,46,100
103808,note_off,,,,,128,0,16,,,,,7,,,46,100
103840,note_off,,,,,64,0,8,,,,,1,,,65,100
103840,note_off,,,,,64,0,13,,,,,6,,,65,100
103872,note_on,,,,,92,0,9,,,,,2,,,70,100
103872,note_on,,,,,32,0,8,,,,,1,,,62,100
103872,note_on,,,,,92,0,11,,,,,4,,,58,100
103872,note_on,,,,,32,0,13,,,,,6,,,62,100
103872,note_on,,,,,92,0,14,,,,,6,,,58,100
103872,note_on,,,,,92,0,10,,,,,3,,,58,100
103872,note_on,,,,,92,0,12,,,,,5,,,46,100
103872,note_on,,,,,64,0,16,,,,,7,,,58,100
103936,note_off,,,,,64,0,13,,,,,6,,,62,100
103936,note_off,,,,,64,0,8,,,,,1,,,62,100
103968,note_on,,,,,32,0,13,,,,,6,,,65,100
103968,note_on,,,,,32,0,8,,,,,1,,,65,100
103972,note_off,,,,,100,0,14,,,,,6,,,58,100
103972,note_off,,,,,100,0,11,,,,,4,,,58,100
103972,note_off,,,,,100,0,12,,,,,5,,,46,100
103972,note_off,,,,,100,0,10,,,,,3,,,58,100
103972,note_off,,,,,100,0,9,,,,,2,,,70,100
104000,note_off,,,,,128,0,16,,,,,7,,,58,100
104032,note_off,,,,,64,0,8,,,,,1,,,65,100
104032,note_off,,,,,64,0,13,,,,,6,,,65,100
104064,note_on,,,,,92,0,12,,,,,5,,,46,100
104064,note_on,,,,,92,0,11,,,,,4,,,58,100
104064,note_on,,,,,92,0,9,,,,,2,,,70,100
104064,note_on,,,,,32,0,13,,,,,6,,,70,100
104064,note_on,,,,,92,0,14,,,,,6,,,58,100
104064,note_on,,,,,92,0,10,,,,,3,,,62,100
104064,note_on,,,,,32,0,8,,,,,1,,,70,100
104064,note_on,,,,,64,0,16,,,,,7,,,58,100
104128,note_off,,,,,64,0,8,,,,,1,,,70,100
104128,note_off,,,,,64,0,13,,,,,6,,,70,100
104160,note_on,,,,,32,0,8,,,,,1,,,65,100
104160,note_on,,,,,32,0,13,,,,,6,,,65,100
104164,note_off,,,,,100,0,9,,,,,2,,,70,100
104164,note_off,,,,,100,0,11,,,,,4,,,58,100
104164,note_off,,,,,100,0,12,,,,,5,,,46,100
104164,note_off,,,,,100,0,10,,,,,3,,,62,100
104164,note_off,,,,,100,0,14,,,,,6,,,58,100
104192,note_off,,,,,128,0,16,,,,,7,,,58,100
104224,note_off,,,,,64,0,8,,,,,1,,,65,100
104224,note_off,,,,,64,0,13,,,,,6,,,65,100
104256,note_on,,,,,92,0,12,,,,,5,,,34,100
104256,note_on,,,,,32,0,13,,,,,6,,,62,100
104256,note_on,,,,,32,0,8,,,,,1,,,62,100
104256,note_on,,,,,92,0,10,,,,,3,,,65,100
104256,note_on,,,,,92,0,9,,,,,2,,,70,100
104256,note_on,,,,,64,0,16,,,,,7,,,46,100
104256,note_on,,,,,92,0,14,,,,,6,,,46,100
104256,note_on,,,,,92,0,11,,,,,4,,,46,100
104320,note_off,,,,,64,0,13,,,,,6,,,62,100
104320,note_off,,,,,64,0,8,,,,,1,,,62,100
104352,note_on,,,,,32,0,8,,,,,1,,,65,100
104352,note_on,,,,,32,0,13,,,,,6,,,65,100
104356,note_off,,,,,100,0,14,,,,,6,,,46,100
104356,note_off,,,,,100,0,12,,,,,5,,,34,100
104356,note_off,,,,,100,0,10,,,,,3,,,65,100
104356,note_off,,,,,100,0,11,,,,,4,,,46,100
104356,note_off,,,,,100,0,9,,,,,2,,,70,100
104368,note_off,,,,,0,0,15,,,,,7,,,70,100
104368,note_off,,,,,688,0,15,,,,,7,,,62,100
104368,note_off,,,,,0,0,15,,,,,7,,,65,100
104384,note_off,,,,,128,0,16,,,,,7,,,46,100
104416,note_off,,,,,64,0,8,,,,,1,,,65,100
104416,note_off,,,,,64,0,13,,,,,6,,,65,100
104448,note_on,,,,,92,0,12,,,,,5,,,34,105
104448,note_on,,,,,32,0,8,,,,,1,,,70,105
104448,note_on,,,,,0,0,15,,,,,7,,,70,100
104448,note_on,,,,,92,0,10,,,,,3,,,65,105
104448,note_on,,,,,32,0,13,,,,,6,,,70,100
104448,note_on,,,,,0,0,15,,,,,7,,,65,100
104448,note_on,,,,,0,0,13,,,,,6,,,62,100
104448,note_on,,,,,0,0,13,,,,,6,,,65,100
104448,note_on,,,,,92,0,11,,,,,4,,,46,105
104448,note_on,,,,,64,0,16,,,,,7,,,46,100
104448,note_on,,,,,92,0,14,,,,,6,,,46,100
104448,note_on,,,,,92,0,9,,,,,2,,,74,105
104448,note_on,,,,,80,0,15,,,,,7,,,62,100
104548,note_off,,,,,100,0,11,,,,,4,,,46,100
104548,note_off,,,,,100,0,10,,,,,3,,,65,100
104548,note_off,,,,,100,0,14,,,,,6,,,46,100
104548,note_off,,,,,100,0,12,,,,,5,,,34,100
104576,note_off,,,,,128,0,8,,,,,1,,,70,100
104576,note_off,,,,,128,0,9,,,,,2,,,74,100
104576,note_off,,,,,128,0,13,,,,,6,,,70,100
104576,note_off,,,,,128,0,16,,,,,7,,,46,100
104640,note_on,,,,,64,0,8,,,,,1,,,72,104
104640,note_on,,,,,64,0,16,,,,,7,,,58,100
104640,note_on,,,,,92,0,14,,,,,6,,,58,100
104640,note_on,,,,,92,0,12,,,,,5,,,46,104
104640,note_on,,,,,192,0,15,,,,,7,,,74,100
104640,note_on,,,,,64,0,13,,,,,6,,,74,100
104640,note_on,,,,,92,0,10,,,,,3,,,65,104
104640,note_on,,,,,64,0,9,,,,,2,,,75,104
104640,note_on,,,,,92,0,11,,,,,4,,,58,104
104704,note_off,,,,,0,0,15,,,,,7,,,65,100
104704,note_off,,,,,64,0,15,,,,,7,,,62,100
104704,note_off,,,,,64,0,8,,,,,1,,,72,100
104704,note_off,,,,,0,0,13,,,,,6,,,65,100
104704,note_off,,,,,0,0,15,,,,,7,,,70,100
104704,note_off,,,,,64,0,9,,,,,2,,,75,100
104704,note_off,,,,,64,0,13,,,,,6,,,62,100
104736,note_on,,,,,32,0,8,,,,,1,,,74,103
104736,note_on,,,,,32,0,9,,,,,2,,,77,103
104740,note_off,,,,,100,0,11,,,,,4,,,58,100
104740,note_off,,,,,100,0,10,,,,,3,,,65,100
104740,note_off,,,,,100,0,12,,,,,5,,,46,100
104740,note_off,,,,,100,0,14,,,,,6,,,58,100
104768,note_off,,,,,64,0,13,,,,,6,,,74,100
104768,note_off,,,,,128,0,16,,,,,7,,,58,100
104768,note_off,,,,,64,0,15,,,,,7,,,74,100
104800,note_off,,,,,64,0,9,,,,,2,,,77,100
104800,note_off,,,,,64,0,8,,,,,1,,,74,100
104832,note_on,,,,,0,0,15,,,,,7,,,72,100
104832,note_on,,,,,92,0,10,,,,,3,,,67,102
104832,note_on,,,,,92,0,12,,,,,5,,,39,102
104832,note_on,,,,,92,0,11,,,,,4,,,51,102
104832,note_on,,,,,92,0,14,,,,,6,,,51,100
104832,note_on,,,,,64,0,13,,,,,6,,,72,100
104832,note_on,,,,,32,0,9,,,,,2,,,75,102
104832,note_on,,,,,0,0,13,,,,,6,,,67,100
104832,note_on,,,,,0,0,13,,,,,6,,,60,100
104832,note_on,,,,,64,0,15,,,,,7,,,60,100
104832,note_on,,,,,64,0,16,,,,,7,,,51,100
104832,note_on,,,,,32,0,8,,,,,1,,,72,102
104832,note_on,,,,,0,0,15,,,,,7,,,67,100
104932,note_off,,,,,100,0,8,,,,,1,,,72,100
104932,note_off,,,,,100,0,10,,,,,3,,,67,100
104932,note_off,,,,,100,0,9,,,,,2,,,75,100
104960,note_off,,,,,128,0,13,,,,,6,,,72,100
104960,note_off,,,,,128,0,16,,,,,7,,,51,100
104960,note_off,,,,,128,0,14,,,,,6,,,51,100
104960,note_off,,,,,128,0,11,,,,,4,,,51,100
104960,note_off,,,,,128,0,12,,,,,5,,,39,100
104960,note_off,,,,,128,0,15,,,,,7,,,72,100
105024,note_on,,,,,92,0,10,,,,,3,,,67,101
105024,note_on,,,,,64,0,11,,,,,4,,,52,101
105024,note_on,,,,,64,0,16,,,,,7,,,52,100
105024,note_on,,,,,92,0,8,,,,,1,,,70,101
105024,note_on,,,,,64,0,12,,,,,5,,,40,101
105024,note_on,,,,,64,0,15,,,,,7,,,62,100
105024,note_on,,,,,0,0,15,,,,,7,,,70,100
105024,note_on,,,,,64,0,14,,,,,6,,,52,100
105024,note_on,,,,,64,0,13,,,,,6,,,70,100
105024,note_on,,,,,92,0,9,,,,,2,,,74,101
105088,note_off,,,,,0,0,13,,,,,6,,,67,100
105088,note_off,,,,,64,0,13,,,,,6,,,60,100
105088,note_off,,,,,0,0,15,,,,,7,,,67,100
105088,note_off,,,,,64,0,15,,,,,7,,,60,100
105124,note_off,,,,,100,0,9,,,,,2,,,74,100
105124,note_off,,,,,100,0,8,,,,,1,,,70,100
105124,note_off,,,,,100,0,10,,,,,3,,,67,100
105152,note_off,,,,,128,0,14,,,,,6,,,52,100
105152,note_off,,,,,128,0,12,,,,,5,,,40,100
105152,note_off,,,,,128,0,16,,,,,7,,,52,100
105152,note_off,,,,,128,0,11,,,,,4,,,52,100
105152,note_off,,,,,64,0,13,,,,,6,,,70,100
105152,note_off,,,,,64,0,15,,,,,7,,,62,100
105152,note_off,,,,,0,0,15,,,,,7,,,70,100
105216,note_on,,,,,92,0,10,,,,,3,,,69,100
105216,note_on,,,,,64,0,13,,,,,6,,,69,100
105216,note_on,,,,,0,0,13,,,,,6,,,65,100
105216,note_on,,,,,0,0,13,,,,,6,,,60,100
105216,note_on,,,,,64,0,16,,,,,7,,,53,100
105216,note_on,,,,,0,0,15,,,,,7,,,60,100
105216,note_on,,,,,0,0,15,,,,,7,,,65,100
105216,note_on,,,,,64,0,14,,,,,6,,,53,100
105216,note_on,,,,,64,0,15,,,,,7,,,69,100
105216,note_on,,,,,64,0,11,,,,,4,,,53,100
105216,note_on,,,,,92,0,9,,,,,2,,,72,100
105216,note_on,,,,,3712,0,7,,,,,0,,,69,60
105216,note_on,,,,,92,0,8,,,,,1,,,69,100
105216,note_on,,,,,64,0,12,,,,,5,,,41,100
105344,note_off,,,,,128,0,7,,,,,0,,,69,100
105408,note_on,,,,,64,0,7,,,,,0,,,75,60
105472,note_off,,,,,0,0,13,,,,,6,,,65,100
105472,note_off,,,,,0,0,13,,,,,6,,,60,100
105472,note_off,,,,,256,0,13,,,,,6,,,69,100
105472,note_off,,,,,0,0,15,,,,,7,,,65,100
105472,note_off,,,,,256,0,14,,,,,6,,,53,100
105472,note_off,,,,,256,0,10,,,,,3,,,69,100
105472,note_off,,,,,0,0,15,,,,,7,,,60,100
105472,note_off,,,,,256,0,16,,,,,7,,,53,100
105472,note_off,,,,,256,0,15,,,,,7,,,69,100
105472,note_off,,,,,256,0,8,,,,,1,,,69,100
105472,note_off,,,,,256,0,9,,,,,2,,,72,100
105472,note_off,,,,,256,0,11,,,,,4,,,53,100
105472,note_off,,,,,256,0,12,,,,,5,,,41,100
105596,note_off,,,,,188,0,7,,,,,0,,,75,100
105600,note_on,,,,,4,0,7,,,,,0,,,74,60
105788,note_off,,,,,188,0,7,,,,,0,,,74,100
105792,note_on,,,,,4,0,7,,,,,0,,,72,60
105920,note_off,,,,,128,0,7,,,,,0,,,72,100
105984,note_on,,,,,512,0,8,,,,,1,,,65,50
105984,note_on,,,,,512,0,9,,,,,2,,,65,50
106176,note_on,,,,,256,0,7,,,,,0,,,81,65
106176,set_tempo,,,,,104640,1,0,,555555,,,,,,,
106240,note_off,,,,,256,0,8,,,,,1,,,65,100
106240,note_off,,,,,256,0,9,,,,,2,,,65,100
106364,note_off,,,,,188,0,7,,,,,0,,,81,100
106368,note_on,,,,,4,0,7,,,,,0,,,79,65
106556,note_off,,,,,188,0,7,,,,,0,,,79,100
106560,note_on,,,,,4,0,7,,,,,0,,,77,65
106688,note_off,,,,,128,0,7,,,,,0,,,77,100
106704,set_tempo,,,,,528,1,0,,560747,,,,,,,
106752,note_on,,,,,512,0,8,,,,,1,,,65,50
106752,note_on,,,,,512,0,9,,,,,2,,,65,50
106944,note_on,,,,,256,0,7,,,,,0,,,84,70
107008,note_off,,,,,256,0,8,,,,,1,,,65,100
107008,note_off,,,,,256,0,9,,,,,2,,,65,100
107132,note_off,,,,,188,0,7,,,,,0,,,84,100
107136,note_on,,,,,4,0,7,,,,,0,,,82,70
107232,set_tempo,,,,,528,1,0,,566037,,,,,,,
107324,note_off,,,,,188,0,7,,,,,0,,,82,100
107328,note_on,,,,,4,0,7,,,,,0,,,81,70
107456,note_off,,,,,128,0,7,,,,,0,,,81,100
107520,note_on,,,,,512,0,9,,,,,2,,,65,50
107520,note_on,,,,,512,0,8,,,,,1,,,65,50
107712,note_on,,,,,256,0,7,,,,,0,,,87,75
107760,set_tempo,,,,,528,1,0,,571428,,,,,,,
107776,note_off,,,,,256,0,9,,,,,2,,,65,100
107776,note_off,,,,,256,0,8,,,,,1,,,65,100
107900,note_off,,,,,188,0,7,,,,,0,,,87,100
107904,note_on,,,,,4,0,7,,,,,0,,,85,75
108092,note_off,,,,,188,0,7,,,,,0,,,85,100
108096,note_on,,,,,4,0,7,,,,,0,,,84,75
108284,note_off,,,,,188,0,7,,,,,0,,,84,100
108288,note_on,,,,,512,0,8,,,,,1,,,65,50
108288,set_tempo,,,,,528,1,0,,555555,,,,,,,
108288,note_on,,,,,4,0,7,,,,,0,,,85,75
108288,note_on,,,,,512,0,9,,,,,2,,,65,50
108416,note_off,,,,,128,0,9,,,,,2,,,65,100
108416,note_off,,,,,128,0,8,,,,,1,,,65,100
108416,note_off,,,,,128,0,7,,,,,0,,,85,100
108480,note_on,,,,,64,0,7,,,,,0,,,78,70
108480,note_on,,,,,64,0,9,,,,,2,,,65,50
108480,note_on,,,,,64,0,8,,,,,1,,,65,50
108608,note_off,,,,,128,0,8,,,,,1,,,65,100
108608,note_off,,,,,128,0,9,,,,,2,,,65,100
108668,note_off,,,,,188,0,7,,,,,0,,,78,100
108672,note_on,,,,,64,0,9,,,,,2,,,65,50
108672,note_on,,,,,4,0,7,,,,,0,,,77,69
108672,note_on,,,,,64,0,8,,,,,1,,,65,50
108800,note_off,,,,,128,0,8,,,,,1,,,65,100
108800,note_off,,,,,128,0,9,,,,,2,,,65,100
108860,note_off,,,,,188,0,7,,,,,0,,,77,100
108864,note_on,,,,,64,0,9,,,,,2,,,65,50
108864,note_on,,,,,64,0,8,,,,,1,,,65,50
108864,note_on,,,,,4,0,7,,,,,0,,,76,67
108992,note_off,,,,,128,0,8,,,,,1,,,65,100
108992,note_off,,,,,128,0,9,,,,,2,,,65,100
109052,note_off,,,,,188,0,7,,,,,0,,,76,100
109056,note_on,,,,,64,0,9,,,,,2,,,65,50
109056,note_on,,,,,4,0,7,,,,,0,,,77,66
109056,note_on,,,,,64,0,8,,,,,1,,,65,50
109184,note_off,,,,,128,0,9,,,,,2,,,65,100
109184,note_off,,,,,128,0,8,,,,,1,,,65,100
109184,note_off,,,,,128,0,7,,,,,0,,,77,100
109248,note_on,,,,,64,0,9,,,,,2,,,65,50
109248,note_on,,,,,64,0,8,,,,,1,,,65,50
109248,note_on,,,,,64,0,7,,,,,0,,,72,66
109376,note_off,,,,,128,0,8,,,,,1,,,65,100
109376,note_off,,,,,128,0,9,,,,,2,,,65,100
109436,note_off,,,,,188,0,7,,,,,0,,,72,100
109440,note_on,,,,,64,0,8,,,,,1,,,65,50
109440,note_on,,,,,4,0,7,,,,,0,,,70,65
109440,note_on,,,,,64,0,9,,,,,2,,,65,50
109568,note_off,,,,,128,0,9,,,,,2,,,65,100
109568,note_off,,,,,128,0,8,,,,,1,,,65,100
109628,note_off,,,,,188,0,7,,,,,0,,,70,100
109632,note_on,,,,,64,0,9,,,,,2,,,65,50
109632,note_on,,,,,64,0,8,,,,,1,,,65,50
109632,note_on,,,,,4,0,7,,,,,0,,,69,64
109760,note_off,,,,,128,0,9,,,,,2,,,65,100
109760,note_off,,,,,128,0,8,,,,,1,,,65,100
109820,note_off,,,,,188,0,7,,,,,0,,,69,100
109824,note_on,,,,,64,0,8,,,,,1,,,65,50
109824,note_on,,,,,4,0,7,,,,,0,,,70,64
109824,note_on,,,,,64,0,9,,,,,2,,,65,50
109952,note_off,,,,,128,0,8,,,,,1,,,65,100
109952,note_off,,,,,128,0,7,,,,,0,,,70,100
109952,note_off,,,,,128,0,9,,,,,2,,,65,100
110016,note_on,,,,,64,0,7,,,,,0,,,66,63
110016,note_on,,,,,64,0,9,,,,,2,,,65,50
110016,note_on,,,,,64,0,8,,,,,1,,,65,50
110144,note_off,,,,,128,0,9,,,,,2,,,65,100
110144,note_off,,,,,128,0,8,,,,,1,,,65,100
110204,note_off,,,,,188,0,7,,,,,0,,,66,100
110208,note_on,,,,,64,0,8,,,,,1,,,65,50
110208,note_on,,,,,64,0,9,,,,,2,,,65,50
110208,note_on,,,,,4,0,7,,,,,0,,,65,62
110336,note_off,,,,,128,0,9,,,,,2,,,65,100
110336,note_off,,,,,128,0,8,,,,,1,,,65,100
110396,note_off,,,,,188,0,7,,,,,0,,,65,100
110400,note_on,,,,,4,0,7,,,,,0,,,64,62
110400,note_on,,,,,64,0,9,,,,,2,,,65,50
110400,note_on,,,,,64,0,8,,,,,1,,,65,50
110528,note_off,,,,,128,0,8,,,,,1,,,65,100
110528,note_off,,,,,128,0,7,,,,,0,,,64,100
110528,note_off,,,,,128,0,9,,,,,2,,,65,100
110592,note_on,,,,,64,0,9,,,,,2,,,65,50
110592,note_on,,,,,64,0,7,,,,,0,,,65,60
110592,note_on,,,,,64,0,8,,,,,1,,,65,50
110684,note_off,,,,,92,0,7,,,,,0,,,65,100
110688,note_on,,,,,4,0,7,,,,,0,,,69,60
110720,note_off,,,,,128,0,9,,,,,2,,,65,100
110720,note_off,,,,,128,0,8,,,,,1,,,65,100
110780,note_off,,,,,92,0,7,,,,,0,,,69,100
110784,note_on,,,,,64,0,8,,,,,1,,,65,50
110784,note_on,,,,,4,0,7,,,,,0,,,67,61
110784,note_on,,,,,64,0,9,,,,,2,,,65,50
110876,note_off,,,,,92,0,7,,,,,0,,,67,100
110880,note_on,,,,,4,0,7,,,,,0,,,65,61
110912,note_off,,,,,128,0,9,,,,,2,,,65,100
110912,note_off,,,,,128,0,8,,,,,1,,,65,100
110944,note_off,,,,,64,0,7,,,,,0,,,65,100
110976,note_on,,,,,64,0,8,,,,,1,,,65,50
110976,note_on,,,,,64,0,9,,,,,2,,,65,50
110976,note_on,,,,,32,0,7,,,,,0,,,72,62
111068,note_off,,,,,92,0,7,,,,,0,,,72,100
111072,note_on,,,,,4,0,7,,,,,0,,,69,62
111104,note_off,,,,,128,0,8,,,,,1,,,65,100
111104,note_off,,,,,128,0,9,,,,,2,,,65,100
111164,note_off,,,,,92,0,7,,,,,0,,,69,100
111168,note_on,,,,,64,0,8,,,,,1,,,65,50
111168,note_on,,,,,64,0,9,,,,,2,,,65,50
111168,note_on,,,,,4,0,7,,,,,0,,,67,63
111260,note_off,,,,,92,0,7,,,,,0,,,67,100
111264,note_on,,,,,4,0,7,,,,,0,,,65,63
111296,note_off,,,,,128,0,9,,,,,2,,,65,100
111296,note_off,,,,,128,0,8,,,,,1,,,65,100
111328,note_off,,,,,64,0,7,,,,,0,,,65,100
111360,note_on,,,,,64,0,8,,,,,1,,,65,50
111360,note_on,,,,,64,0,9,,,,,2,,,65,50
111360,note_on,,,,,32,0,7,,,,,0,,,75,64
111452,note_off,,,,,92,0,7,,,,,0,,,75,100
111456,note_on,,,,,4,0,7,,,,,0,,,72,64
111488,note_off,,,,,128,0,8,,,,,1,,,65,100
111488,note_off,,,,,128,0,9,,,,,2,,,65,100
111548,note_off,,,,,92,0,7,,,,,0,,,72,100
111552,note_on,,,,,64,0,9,,,,,2,,,65,50
111552,note_on,,,,,64,0,8,,,,,1,,,65,50
111552,note_on,,,,,4,0,7,,,,,0,,,70,65
111644,note_off,,,,,92,0,7,,,,,0,,,70,100
111648,note_on,,,,,4,0,7,,,,,0,,,69,65
111680,note_off,,,,,128,0,9,,,,,2,,,65,100
111680,note_off,,,,,128,0,8,,,,,1,,,65,100
111712,note_off,,,,,64,0,7,,,,,0,,,69,100
111744,note_on,,,,,64,0,8,,,,,1,,,65,50
111744,note_on,,,,,64,0,9,,,,,2,,,65,50
111744,note_on,,,,,32,0,7,,,,,0,,,77,66
111836,note_off,,,,,92,0,7,,,,,0,,,77,100
111840,note_on,,,,,4,0,7,,,,,0,,,73,66
111872,note_off,,,,,128,0,8,,,,,1,,,65,100
111872,note_off,,,,,128,0,9,,,,,2,,,65,100
111932,note_off,,,,,92,0,7,,,,,0,,,73,100
111936,note_on,,,,,64,0,9,,,,,2,,,65,50
111936,note_on,,,,,4,0,7,,,,,0,,,72,67
111936,note_on,,,,,64,0,8,,,,,1,,,65,50
112028,note_off,,,,,92,0,7,,,,,0,,,72,100
112032,note_on,,,,,4,0,7,,,,,0,,,70,67
112064,note_off,,,,,128,0,9,,,,,2,,,65,100
112064,note_off,,,,,128,0,8,,,,,1,,,65,100
112096,note_off,,,,,64,0,7,,,,,0,,,70,100
112128,note_on,,,,,64,0,9,,,,,2,,,65,50
112128,note_on,,,,,32,0,7,,,,,0,,,85,78
112128,note_on,,,,,64,0,8,,,,,1,,,65,50
112256,note_off,,,,,128,0,8,,,,,1,,,65,100
112256,note_off,,,,,128,0,9,,,,,2,,,65,100
112320,note_on,,,,,64,0,9,,,,,2,,,65,50
112320,note_on,,,,,64,0,8,,,,,1,,,65,50
112448,note_off,,,,,128,0,9,,,,,2,,,65,100
112448,note_off,,,,,128,0,8,,,,,1,,,65,100
112512,note_on,,,,,64,0,9,,,,,2,,,65,50
112512,note_on,,,,,64,0,8,,,,,1,,,65,50
112640,note_off,,,,,128,0,9,,,,,2,,,65,100
112640,note_off,,,,,128,0,8,,,,,1,,,65,100
112704,note_on,,,,,64,0,9,,,,,2,,,65,50
112704,note_on,,,,,64,0,8,,,,,1,,,65,50
112832,note_off,,,,,128,0,9,,,,,2,,,65,100
112832,note_off,,,,,128,0,8,,,,,1,,,65,100
112896,note_off,,,,,768,0,7,,,,,0,,,85,100
112896,note_on,,,,,64,0,8,,,,,1,,,65,50
112896,note_on,,,,,64,0,9,,,,,2,,,65,50
112992,note_on,,,,,96,0,7,,,,,0,,,84,69
113024,note_off,,,,,128,0,8,,,,,1,,,65,100
113024,note_off,,,,,128,0,9,,,,,2,,,65,100
113084,note_off,,,,,92,0,7,,,,,0,,,84,100
113088,note_on,,,,,64,0,9,,,,,2,,,65,50
113088,note_on,,,,,64,0,8,,,,,1,,,65,50
113088,note_on,,,,,4,0,7,,,,,0,,,82,68
113180,note_off,,,,,92,0,7,,,,,0,,,82,100
113184,note_on,,,,,4,0,7,,,,,0,,,81,68
113216,note_off,,,,,128,0,8,,,,,1,,,65,100
113216,note_off,,,,,128,0,9,,,,,2,,,65,100
113276,note_off,,,,,92,0,7,,,,,0,,,81,100
113280,note_on,,,,,4,0,7,,,,,0,,,82,67
113280,note_on,,,,,64,0,9,,,,,2,,,65,50
113280,note_on,,,,,64,0,8,,,,,1,,,65,50
113344,note_off,,,,,64,0,7,,,,,0,,,82,100
113376,note_on,,,,,32,0,7,,,,,0,,,78,67
113408,note_off,,,,,128,0,8,,,,,1,,,65,100
113408,note_off,,,,,128,0,9,,,,,2,,,65,100
113468,note_off,,,,,92,0,7,,,,,0,,,78,100
113472,note_on,,,,,64,0,8,,,,,1,,,65,50
113472,note_on,,,,,64,0,9,,,,,2,,,65,50
113472,note_on,,,,,4,0,7,,,,,0,,,77,66
113564,note_off,,,,,92,0,7,,,,,0,,,77,100
113568,note_on,,,,,4,0,7,,,,,0,,,76,66
113600,note_off,,,,,128,0,9,,,,,2,,,65,100
113600,note_off,,,,,128,0,8,,,,,1,,,65,100
113660,note_off,,,,,92,0,7,,,,,0,,,76,100
113664,note_on,,,,,64,0,8,,,,,1,,,65,50
113664,note_on,,,,,64,0,9,,,,,2,,,65,50
113664,note_on,,,,,4,0,7,,,,,0,,,77,65
113728,note_off,,,,,64,0,7,,,,,0,,,77,100
113760,note_on,,,,,32,0,7,,,,,0,,,84,73
113792,note_off,,,,,128,0,8,,,,,1,,,65,100
113792,note_off,,,,,128,0,9,,,,,2,,,65,100
113852,note_off,,,,,92,0,7,,,,,0,,,84,100
113856,note_on,,,,,64,0,9,,,,,2,,,65,50
113856,note_on,,,,,4,0,7,,,,,0,,,82,73
113856,note_on,,,,,64,0,8,,,,,1,,,65,50
113948,note_off,,,,,92,0,7,,,,,0,,,82,100
113952,note_on,,,,,4,0,7,,,,,0,,,81,72
113984,note_off,,,,,128,0,9,,,,,2,,,65,100
113984,note_off,,,,,128,0,8,,,,,1,,,65,100
114044,note_off,,,,,92,0,7,,,,,0,,,81,100
114048,note_on,,,,,64,0,8,,,,,1,,,65,50
114048,note_on,,,,,4,0,7,,,,,0,,,82,72
114048,note_on,,,,,64,0,9,,,,,2,,,65,50
114112,note_off,,,,,64,0,7,,,,,0,,,82,100
114144,note_on,,,,,32,0,7,,,,,0,,,78,71
114176,note_off,,,,,128,0,9,,,,,2,,,65,100
114176,note_off,,,,,128,0,8,,,,,1,,,65,100
114236,note_off,,,,,92,0,7,,,,,0,,,78,100
114240,note_on,,,,,64,0,9,,,,,2,,,65,50
114240,note_on,,,,,64,0,8,,,,,1,,,65,50
114240,note_on,,,,,4,0,7,,,,,0,,,77,71
114332,note_off,,,,,92,0,7,,,,,0,,,77,100
114336,note_on,,,,,4,0,7,,,,,0,,,76,70
114368,note_off,,,,,128,0,9,,,,,2,,,65,100
114368,note_off,,,,,128,0,8,,,,,1,,,65,100
114428,note_off,,,,,92,0,7,,,,,0,,,76,100
114432,note_on,,,,,4,0,7,,,,,0,,,77,70
114432,note_on,,,,,64,0,9,,,,,2,,,65,50
114432,note_on,,,,,64,0,8,,,,,1,,,65,50
114496,note_off,,,,,64,0,7,,,,,0,,,77,100
114528,note_on,,,,,32,0,7,,,,,0,,,75,69
114560,note_off,,,,,128,0,9,,,,,2,,,65,100
114560,note_off,,,,,128,0,8,,,,,1,,,65,100
114620,note_off,,,,,92,0,7,,,,,0,,,75,100
114624,note_on,,,,,64,0,8,,,,,1,,,65,50
114624,note_on,,,,,4,0,7,,,,,0,,,73,68
114624,note_on,,,,,64,0,9,,,,,2,,,65,50
114716,note_off,,,,,92,0,7,,,,,0,,,73,100
114720,note_on,,,,,4,0,7,,,,,0,,,72,68
114752,note_off,,,,,128,0,9,,,,,2,,,65,100
114752,note_off,,,,,128,0,8,,,,,1,,,65,100
114812,note_off,,,,,92,0,7,,,,,0,,,72,100
114816,note_on,,,,,4,0,7,,,,,0,,,73,67
114816,note_on,,,,,64,0,8,,,,,1,,,65,50
114816,note_on,,,,,64,0,9,,,,,2,,,65,50
114880,note_off,,,,,64,0,7,,,,,0,,,73,100
114912,note_on,,,,,32,0,7,,,,,0,,,72,67
114944,note_off,,,,,128,0,8,,,,,1,,,65,100
114944,note_off,,,,,128,0,9,,,,,2,,,65,100
115004,note_off,,,,,92,0,7,,,,,0,,,72,100
115008,note_on,,,,,64,0,9,,,,,2,,,65,50
115008,note_on,,,,,64,0,8,,,,,1,,,65,50
115008,note_on,,,,,4,0,7,,,,,0,,,70,66
115100,note_off,,,,,92,0,7,,,,,0,,,70,100
115104,note_on,,,,,4,0,7,,,,,0,,,69,66
115136,note_off,,,,,128,0,8,,,,,1,,,65,100
115136,note_off,,,,,128,0,9,,,,,2,,,65,100
115196,note_off,,,,,92,0,7,,,,,0,,,69,100
115200,note_on,,,,,64,0,8,,,,,1,,,65,50
115200,note_on,,,,,64,0,9,,,,,2,,,65,50
115200,note_on,,,,,4,0,7,,,,,0,,,70,65
115328,note_off,,,,,128,0,8,,,,,1,,,65,100
115328,note_off,,,,,128,0,7,,,,,0,,,70,100
115328,note_off,,,,,128,0,9,,,,,2,,,65,100
115392,note_on,,,,,64,0,9,,,,,2,,,65,50
115392,note_on,,,,,64,0,8,,,,,1,,,65,50
115392,note_on,,,,,64,0,7,,,,,0,,,85,72
115520,note_off,,,,,128,0,8,,,,,1,,,65,100
115520,note_off,,,,,128,0,9,,,,,2,,,65,100
115520,note_off,,,,,128,0,7,,,,,0,,,85,100
115584,note_on,,,,,64,0,7,,,,,0,,,87,80
115584,note_on,,,,,64,0,8,,,,,1,,,65,50
115584,note_on,,,,,64,0,9,,,,,2,,,65,50
115712,note_off,,,,,128,0,9,,,,,2,,,65,100
115712,note_off,,,,,128,0,8,,,,,1,,,65,100
115776,note_on,,,,,64,0,8,,,,,1,,,65,50
115776,note_on,,,,,64,0,9,,,,,2,,,65,50
115904,note_off,,,,,128,0,9,,,,,2,,,65,100
115904,note_off,,,,,128,0,8,,,,,1,,,65,100
115968,note_on,,,,,64,0,8,,,,,1,,,65,50
115968,note_off,,,,,384,0,7,,,,,0,,,87,100
115968,note_on,,,,,64,0,9,,,,,2,,,65,50
116096,note_off,,,,,128,0,8,,,,,1,,,65,100
116096,note_off,,,,,128,0,9,,,,,2,,,65,100
116096,note_on,,,,,128,0,7,,,,,0,,,85,72
116160,note_on,,,,,64,0,8,,,,,1,,,65,50
116160,note_on,,,,,64,0,9,,,,,2,,,65,50
116220,note_off,,,,,124,0,7,,,,,0,,,85,100
116224,note_on,,,,,4,0,7,,,,,0,,,84,71
116288,note_off,,,,,128,0,9,,,,,2,,,65,100
116288,note_off,,,,,128,0,8,,,,,1,,,65,100
116348,note_off,,,,,124,0,7,,,,,0,,,84,100
116352,note_on,,,,,64,0,8,,,,,1,,,65,50
116352,note_on,,,,,64,0,9,,,,,2,,,65,50
116352,note_on,,,,,4,0,7,,,,,0,,,82,70
116476,note_off,,,,,124,0,7,,,,,0,,,82,100
116480,note_on,,,,,4,0,7,,,,,0,,,81,69
116480,note_off,,,,,128,0,9,,,,,2,,,65,100
116480,note_off,,,,,128,0,8,,,,,1,,,65,100
116544,note_on,,,,,64,0,9,,,,,2,,,65,50
116544,note_on,,,,,64,0,8,,,,,1,,,65,50
116604,note_off,,,,,124,0,7,,,,,0,,,81,100
116608,note_on,,,,,4,0,7,,,,,0,,,82,68
116672,note_off,,,,,128,0,8,,,,,1,,,65,100
116672,note_off,,,,,128,0,9,,,,,2,,,65,100
116692,note_off,,,,,84,0,7,,,,,0,,,82,100
116736,note_on,,,,,64,0,8,,,,,1,,,65,50
116736,note_on,,,,,44,0,7,,,,,0,,,81,75
116736,note_on,,,,,64,0,9,,,,,2,,,65,50
116828,note_off,,,,,92,0,7,,,,,0,,,81,100
116832,note_on,,,,,4,0,7,,,,,0,,,79,74
116864,note_off,,,,,128,0,9,,,,,2,,,65,100
116864,note_off,,,,,128,0,8,,,,,1,,,65,100
116924,note_off,,,,,92,0,7,,,,,0,,,79,100
116928,note_on,,,,,4,0,7,,,,,0,,,77,72
116928,note_on,,,,,64,0,8,,,,,1,,,65,50
116928,note_on,,,,,64,0,9,,,,,2,,,65,50
116992,note_off,,,,,64,0,7,,,,,0,,,77,100
117024,note_on,,,,,32,0,7,,,,,0,,,76,70
117056,note_off,,,,,128,0,8,,,,,1,,,65,100
117056,note_off,,,,,128,0,9,,,,,2,,,65,100
117088,note_off,,,,,64,0,7,,,,,0,,,76,100
117120,note_on,,,,,64,0,8,,,,,1,,,65,50
117120,note_on,,,,,32,0,7,,,,,0,,,77,68
117120,note_on,,,,,64,0,9,,,,,2,,,65,50
117248,note_off,,,,,128,0,8,,,,,1,,,65,100
117248,note_off,,,,,128,0,9,,,,,2,,,65,100
117312,note_on,,,,,64,0,8,,,,,1,,,65,50
117312,note_on,,,,,64,0,9,,,,,2,,,65,50
117376,note_off,,,,,256,0,7,,,,,0,,,77,100
117440,note_off,,,,,128,0,9,,,,,2,,,65,100
117440,note_off,,,,,128,0,8,,,,,1,,,65,100
117504,note_on,,,,,64,0,8,,,,,1,,,65,50
117504,note_on,,,,,64,0,9,,,,,2,,,65,50
117632,note_off,,,,,128,0,8,,,,,1,,,65,100
117632,note_off,,,,,128,0,9,,,,,2,,,65,100
117696,note_on,,,,,64,0,9,,,,,2,,,65,50
117696,note_on,,,,,64,0,8,,,,,1,,,65,50
117696,note_on,,,,,320,0,7,,,,,0,,,73,65
117824,note_off,,,,,128,0,8,,,,,1,,,65,100
117824,note_off,,,,,128,0,9,,,,,2,,,65,100
117824,note_off,,,,,128,0,7,,,,,0,,,73,100
117888,note_on,,,,,64,0,7,,,,,0,,,75,66
117888,note_on,,,,,64,0,9,,,,,2,,,65,50
117888,note_on,,,,,64,0,8,,,,,1,,,65,50
118016,note_off,,,,,128,0,8,,,,,1,,,65,100
118016,note_off,,,,,128,0,9,,,,,2,,,65,100
118080,note_on,,,,,64,0,9,,,,,2,,,65,50
118080,note_on,,,,,64,0,8,,,,,1,,,65,50
118208,note_off,,,,,128,0,8,,,,,1,,,65,100
118208,note_off,,,,,128,0,9,,,,,2,,,65,100
118272,note_on,,,,,64,0,8,,,,,1,,,65,50
118272,note_on,,,,,64,0,9,,,,,2,,,65,50
118356,note_off,,,,,468,0,7,,,,,0,,,75,100
118400,note_off,,,,,128,0,9,,,,,2,,,65,100
118400,note_on,,,,,44,0,7,,,,,0,,,73,70
118400,note_off,,,,,128,0,8,,,,,1,,,65,100
118464,note_on,,,,,64,0,8,,,,,1,,,65,50
118464,note_on,,,,,64,0,9,,,,,2,,,65,50
118524,note_off,,,,,124,0,7,,,,,0,,,73,100
118528,note_on,,,,,4,0,7,,,,,0,,,72,71
118592,note_off,,,,,128,0,8,,,,,1,,,65,100
118592,note_off,,,,,128,0,9,,,,,2,,,65,100
118652,note_off,,,,,124,0,7,,,,,0,,,72,100
118656,note_on,,,,,64,0,8,,,,,1,,,65,50
118656,note_on,,,,,64,0,9,,,,,2,,,65,50
118656,note_on,,,,,4,0,7,,,,,0,,,70,72
118780,note_off,,,,,124,0,7,,,,,0,,,70,100
118784,note_on,,,,,4,0,7,,,,,0,,,69,73
118784,note_off,,,,,128,0,9,,,,,2,,,65,100
118784,note_off,,,,,128,0,8,,,,,1,,,65,100
118848,note_on,,,,,64,0,9,,,,,2,,,65,50
118848,note_on,,,,,64,0,8,,,,,1,,,65,50
118908,note_off,,,,,124,0,7,,,,,0,,,69,100
118912,note_on,,,,,4,0,7,,,,,0,,,70,74
118976,note_off,,,,,128,0,9,,,,,2,,,65,100
118976,note_off,,,,,128,0,8,,,,,1,,,65,100
118996,note_off,,,,,84,0,7,,,,,0,,,70,100
119040,note_on,,,,,64,0,8,,,,,1,,,65,50
119040,note_on,,,,,64,0,9,,,,,2,,,65,50
119040,note_on,,,,,44,0,7,,,,,0,,,77,77
119168,note_off,,,,,128,0,8,,,,,1,,,65,100
119168,note_off,,,,,128,0,9,,,,,2,,,65,100
119232,note_off,,,,,192,0,7,,,,,0,,,77,100
119232,note_on,,,,,64,0,8,,,,,1,,,65,50
119232,note_on,,,,,64,0,9,,,,,2,,,65,50
119328,note_on,,,,,96,0,7,,,,,0,,,75,79
119360,note_off,,,,,128,0,8,,,,,1,,,65,100
119360,note_off,,,,,128,0,9,,,,,2,,,65,100
119420,note_off,,,,,92,0,7,,,,,0,,,75,100
119424,note_on,,,,,64,0,9,,,,,2,,,65,50
119424,note_on,,,,,64,0,8,,,,,1,,,65,50
119424,note_on,,,,,4,0,7,,,,,0,,,73,80
119552,note_off,,,,,128,0,9,,,,,2,,,65,100
119552,note_off,,,,,128,0,8,,,,,1,,,65,100
119552,note_off,,,,,128,0,7,,,,,0,,,73,100
119616,note_on,,,,,64,0,9,,,,,2,,,65,52
119616,note_on,,,,,64,0,8,,,,,1,,,65,52
119616,note_on,,,,,64,0,7,,,,,0,,,72,82
119708,note_off,,,,,92,0,7,,,,,0,,,72,100
119712,note_on,,,,,4,0,7,,,,,0,,,70,83
119744,note_off,,,,,128,0,9,,,,,2,,,65,100
119744,note_off,,,,,128,0,8,,,,,1,,,65,100
119776,note_off,,,,,64,0,7,,,,,0,,,70,100
119808,note_on,,,,,32,0,7,,,,,0,,,74,85
119808,note_on,,,,,64,0,8,,,,,1,,,65,55
119808,note_on,,,,,64,0,9,,,,,2,,,65,55
119808,set_tempo,,,,,11520,1,0,,555555,,,,,,,
119904,set_tempo,,,,,96,1,0,,560747,,,,,,,
119936,note_off,,,,,128,0,9,,,,,2,,,65,100
119936,note_off,,,,,128,0,8,,,,,1,,,65,100
120000,note_on,,,,,64,0,8,,,,,1,,,65,58
120000,note_on,,,,,64,0,9,,,,,2,,,65,58
120000,set_tempo,,,,,96,1,0,,566037,,,,,,,
120096,set_tempo,,,,,96,1,0,,571428,,,,,,,
120128,note_off,,,,,128,0,9,,,,,2,,,65,100
120128,note_off,,,,,128,0,8,,,,,1,,,65,100
120188,note_off,,,,,380,0,7,,,,,0,,,74,100
120192,set_tempo,,,,,96,1,0,,576923,,,,,,,
120192,note_on,,,,,64,0,8,,,,,1,,,65,61
120192,note_on,,,,,64,0,9,,,,,2,,,65,61
120192,note_on,,,,,4,0,7,,,,,0,,,72,91
120236,note_off,,,,,44,0,7,,,,,0,,,72,100
120240,note_on,,,,,4,0,7,,,,,0,,,74,92
120284,note_off,,,,,44,0,7,,,,,0,,,74,100
120288,note_on,,,,,4,0,7,,,,,0,,,72,93
120288,set_tempo,,,,,96,1,0,,582524,,,,,,,
120320,note_off,,,,,128,0,8,,,,,1,,,65,100
120320,note_off,,,,,128,0,9,,,,,2,,,65,100
120332,note_off,,,,,44,0,7,,,,,0,,,72,100
120336,note_on,,,,,4,0,7,,,,,0,,,74,93
120380,note_off,,,,,44,0,7,,,,,0,,,74,100
120384,note_on,,,,,64,0,8,,,,,1,,,65,64
120384,note_on,,,,,64,0,9,,,,,2,,,65,64
120384,set_tempo,,,,,96,1,0,,588235,,,,,,,
120384,note_on,,,,,4,0,7,,,,,0,,,72,94
120448,note_off,,,,,64,0,7,,,,,0,,,72,100
120480,note_on,,,,,32,0,7,,,,,0,,,70,96
120480,set_tempo,,,,,96,1,0,,594059,,,,,,,
120512,note_off,,,,,128,0,9,,,,,2,,,65,100
120512,note_off,,,,,128,0,8,,,,,1,,,65,100
120544,note_off,,,,,64,0,7,,,,,0,,,70,100
120576,note_on,,,,,64,0,9,,,,,2,,,70,100
120576,note_on,,,,,15104,0,11,,,,,4,,,46,100
120576,note_on,,,,,15104,0,16,,,,,7,,,46,100
120576,note_on,,,,,15104,0,15,,,,,7,,,62,100
120576,note_on,,,,,15104,0,10,,,,,3,,,62,100
120576,note_on,,,,,0,0,15,,,,,7,,,65,100
120576,note_on,,,,,15104,0,13,,,,,6,,,58,100
120576,note_on,,,,,15104,0,14,,,,,6,,,46,100
120576,note_on,,,,,15104,0,12,,,,,5,,,34,100
120576,note_on,,,,,64,0,8,,,,,1,,,70,100
120576,note_on,,,,,32,0,7,,,,,0,,,70,97
120576,set_tempo,,,,,96,1,0,,555555,,,,,,,
120576,note_on,,,,,0,0,15,,,,,7,,,70,100
120640,note_off,,,,,64,0,8,,,,,1,,,70,100
120640,note_off,,,,,64,0,13,,,,,6,,,58,100
120672,note_on,,,,,32,0,8,,,,,1,,,65,100
120672,note_on,,,,,32,0,13,,,,,6,,,65,100
120676,note_off,,,,,100,0,14,,,,,6,,,46,100
120676,note_off,,,,,100,0,12,,,,,5,,,34,100
120676,note_off,,,,,100,0,10,,,,,3,,,62,100
120676,note_off,,,,,100,0,11,,,,,4,,,46,100
120676,note_off,,,,,100,0,9,,,,,2,,,70,100
120704,note_off,,,,,128,0,7,,,,,0,,,70,100
120704,end_of_track,,,,,0,1,7,,,,,,,,,
120704,note_off,,,,,128,0,16,,,,,7,,,46,100
120736,note_off,,,,,64,0,13,,,,,6,,,65,100
120736,note_off,,,,,64,0,8,,,,,1,,,65,100
120768,note_on,,,,,32,0,13,,,,,6,,,62,100
120768,note_on,,,,,92,0,11,,,,,4,,,58,100
120768,note_on,,,,,64,0,16,,,,,7,,,58,100
120768,note_on,,,,,92,0,10,,,,,3,,,58,100
120768,note_on,,,,,92,0,12,,,,,5,,,46,100
120768,note_on,,,,,32,0,8,,,,,1,,,62,100
120768,note_on,,,,,92,0,14,,,,,6,,,58,100
120768,note_on,,,,,92,0,9,,,,,2,,,70,100
120832,note_off,,,,,64,0,13,,,,,6,,,62,100
120832,note_off,,,,,64,0,8,,,,,1,,,62,100
120864,note_on,,,,,32,0,13,,,,,6,,,65,100
120864,note_on,,,,,32,0,8,,,,,1,,,65,100
120868,note_off,,,,,100,0,12,,,,,5,,,46,100
120868,note_off,,,,,100,0,14,,,,,6,,,58,100
120868,note_off,,,,,100,0,9,,,,,2,,,70,100
120868,note_off,,,,,100,0,11,,,,,4,,,58,100
120868,note_off,,,,,100,0,10,,,,,3,,,58,100
120896,note_off,,,,,128,0,16,,,,,7,,,58,100
120928,note_off,,,,,64,0,13,,,,,6,,,65,100
120928,note_off,,,,,64,0,8,,,,,1,,,65,100
120960,note_on,,,,,92,0,12,,,,,5,,,46,100
120960,note_on,,,,,32,0,13,,,,,6,,,70,100
120960,note_on,,,,,64,0,16,,,,,7,,,58,100
120960,note_on,,,,,92,0,11,,,,,4,,,58,100
120960,note_on,,,,,32,0,8,,,,,1,,,70,100
120960,note_on,,,,,92,0,9,,,,,2,,,70,100
120960,note_on,,,,,92,0,14,,,,,6,,,58,100
120960,note_on,,,,,92,0,10,,,,,3,,,62,100
121024,note_off,,,,,64,0,13,,,,,6,,,70,100
121024,note_off,,,,,64,0,8,,,,,1,,,70,100
121056,note_on,,,,,32,0,8,,,,,1,,,65,100
121056,note_on,,,,,32,0,13,,,,,6,,,65,100
121060,note_off,,,,,100,0,10,,,,,3,,,62,100
121060,note_off,,,,,100,0,14,,,,,6,,,58,100
121060,note_off,,,,,100,0,11,,,,,4,,,58,100
121060,note_off,,,,,100,0,9,,,,,2,,,70,100
121060,note_off,,,,,100,0,12,,,,,5,,,46,100
121088,note_off,,,,,128,0,16,,,,,7,,,58,100
121120,note_off,,,,,64,0,8,,,,,1,,,65,100
121120,note_off,,,,,64,0,13,,,,,6,,,65,100
121152,note_on,,,,,92,0,9,,,,,2,,,70,100
121152,note_on,,,,,32,0,13,,,,,6,,,62,100
121152,note_on,,,,,92,0,14,,,,,6,,,46,100
121152,note_on,,,,,92,0,12,,,,,5,,,34,100
121152,note_on,,,,,32,0,8,,,,,1,,,62,100
121152,note_on,,,,,92,0,11,,,,,4,,,46,100
121152,note_on,,,,,64,0,16,,,,,7,,,46,100
121152,note_on,,,,,92,0,10,,,,,3,,,65,100
121216,note_off,,,,,64,0,13,,,,,6,,,62,100
121216,note_off,,,,,64,0,8,,,,,1,,,62,100
121248,note_on,,,,,32,0,13,,,,,6,,,65,100
121248,note_on,,,,,32,0,8,,,,,1,,,65,100
121252,note_off,,,,,100,0,11,,,,,4,,,46,100
121252,note_off,,,,,100,0,10,,,,,3,,,65,100
121252,note_off,,,,,100,0,9,,,,,2,,,70,100
121252,note_off,,,,,100,0,14,,,,,6,,,46,100
121252,note_off,,,,,100,0,12,,,,,5,,,34,100
121264,note_off,,,,,0,0,15,,,,,7,,,65,100
121264,note_off,,,,,688,0,15,,,,,7,,,62,100
121264,note_off,,,,,0,0,15,,,,,7,,,70,100
121280,note_off,,,,,128,0,16,,,,,7,,,46,100
121312,note_off,,,,,64,0,8,,,,,1,,,65,100
121312,note_off,,,,,64,0,13,,,,,6,,,65,100
121344,note_on,,,,,92,0,14,,,,,6,,,46,100
121344,note_on,,,,,32,0,8,,,,,1,,,70,100
121344,note_on,,,,,92,0,11,,,,,4,,,46,100
121344,note_on,,,,,0,0,15,,,,,7,,,65,100
121344,note_on,,,,,0,0,15,,,,,7,,,70,100
121344,note_on,,,,,80,0,15,,,,,7,,,62,100
121344,note_on,,,,,32,0,13,,,,,6,,,58,100
121344,note_on,,,,,92,0,12,,,,,5,,,34,100
121344,note_on,,,,,64,0,16,,,,,7,,,46,100
121344,note_on,,,,,92,0,9,,,,,2,,,70,100
121344,note_on,,,,,92,0,10,,,,,3,,,62,100
121408,note_off,,,,,64,0,9,,,,,2,,,70,100
121408,note_off,,,,,64,0,13,,,,,6,,,58,100
121440,note_on,,,,,32,0,9,,,,,2,,,65,100
121440,note_on,,,,,32,0,13,,,,,6,,,65,100
121444,note_off,,,,,100,0,11,,,,,4,,,46,100
121444,note_off,,,,,100,0,10,,,,,3,,,62,100
121444,note_off,,,,,100,0,8,,,,,1,,,70,100
121444,note_off,,,,,100,0,12,,,,,5,,,34,100
121444,note_off,,,,,100,0,14,,,,,6,,,46,100
121472,note_off,,,,,128,0,16,,,,,7,,,46,100
121504,note_off,,,,,64,0,9,,,,,2,,,65,100
121504,note_off,,,,,64,0,13,,,,,6,,,65,100
121536,note_on,,,,,92,0,10,,,,,3,,,58,100
121536,note_on,,,,,32,0,13,,,,,6,,,62,100
121536,note_on,,,,,92,0,8,,,,,1,,,70,100
121536,note_on,,,,,92,0,11,,,,,4,,,58,100
121536,note_on,,,,,32,0,9,,,,,2,,,62,100
121536,note_on,,,,,64,0,16,,,,,7,,,58,100
121536,note_on,,,,,92,0,14,,,,,6,,,58,100
121536,note_on,,,,,92,0,12,,,,,5,,,46,100
121600,note_off,,,,,64,0,13,,,,,6,,,62,100
121600,note_off,,,,,64,0,9,,,,,2,,,62,100
121632,note_on,,,,,32,0,9,,,,,2,,,65,100
121632,note_on,,,,,32,0,13,,,,,6,,,65,100
121636,note_off,,,,,100,0,11,,,,,4,,,58,100
121636,note_off,,,,,100,0,8,,,,,1,,,70,100
121636,note_off,,,,,100,0,10,,,,,3,,,58,100
121636,note_off,,,,,100,0,14,,,,,6,,,58,100
121636,note_off,,,,,100,0,12,,,,,5,,,46,100
121664,note_off,,,,,128,0,16,,,,,7,,,58,100
121696,note_off,,,,,64,0,9,,,,,2,,,65,100
121696,note_off,,,,,64,0,13,,,,,6,,,65,100
121728,note_on,,,,,92,0,14,,,,,6,,,58,100
121728,note_on,,,,,92,0,8,,,,,1,,,70,100
121728,note_on,,,,,64,0,16,,,,,7,,,58,100
121728,note_on,,,,,32,0,13,,,,,6,,,70,100
121728,note_on,,,,,92,0,12,,,,,5,,,46,100
121728,note_on,,,,,92,0,10,,,,,3,,,62,100
121728,note_on,,,,,32,0,9,,,,,2,,,70,100
121728,note_on,,,,,92,0,11,,,,,4,,,58,100
121792,note_off,,,,,64,0,9,,,,,2,,,70,100
121792,note_off,,,,,64,0,13,,,,,6,,,70,100
121824,note_on,,,,,32,0,13,,,,,6,,,65,100
121824,note_on,,,,,32,0,9,,,,,2,,,65,100
121828,note_off,,,,,100,0,8,,,,,1,,,70,100
121828,note_off,,,,,100,0,14,,,,,6,,,58,100
121828,note_off,,,,,100,0,10,,,,,3,,,62,100
121828,note_off,,,,,100,0,12,,,,,5,,,46,100
121828,note_off,,,,,100,0,11,,,,,4,,,58,100
121856,note_off,,,,,128,0,16,,,,,7,,,58,100
121888,note_off,,,,,64,0,13,,,,,6,,,65,100
121888,note_off,,,,,64,0,9,,,,,2,,,65,100
121920,note_on,,,,,92,0,8,,,,,1,,,70,100
121920,note_on,,,,,92,0,12,,,,,5,,,34,100
121920,note_on,,,,,64,0,16,,,,,7,,,46,100
121920,note_on,,,,,92,0,14,,,,,6,,,46,100
121920,note_on,,,,,32,0,13,,,,,6,,,62,100
121920,note_on,,,,,92,0,10,,,,,3,,,65,100
121920,note_on,,,,,92,0,11,,,,,4,,,46,100
121920,note_on,,,,,32,0,9,,,,,2,,,62,100
121984,note_off,,,,,64,0,13,,,,,6,,,62,100
121984,note_off,,,,,64,0,9,,,,,2,,,62,100
122016,note_on,,,,,32,0,13,,,,,6,,,65,100
122016,note_on,,,,,32,0,9,,,,,2,,,65,100
122020,note_off,,,,,100,0,8,,,,,1,,,70,100
122020,note_off,,,,,100,0,11,,,,,4,,,46,100
122020,note_off,,,,,100,0,10,,,,,3,,,65,100
122020,note_off,,,,,100,0,12,,,,,5,,,34,100
122020,note_off,,,,,100,0,14,,,,,6,,,46,100
122032,note_off,,,,,0,0,15,,,,,7,,,70,100
122032,note_off,,,,,688,0,15,,,,,7,,,62,100
122032,note_off,,,,,0,0,15,,,,,7,,,65,100
122048,note_off,,,,,128,0,16,,,,,7,,,46,100
122080,note_off,,,,,64,0,13,,,,,6,,,65,100
122080,note_off,,,,,64,0,9,,,,,2,,,65,100
122112,note_on,,,,,92,0,14,,,,,6,,,46,100
122112,note_on,,,,,92,0,8,,,,,1,,,70,100
122112,note_on,,,,,92,0,10,,,,,3,,,62,100
122112,note_on,,,,,92,0,12,,,,,5,,,34,100
122112,note_on,,,,,32,0,9,,,,,2,,,70,100
122112,note_on,,,,,80,0,15,,,,,7,,,62,100
122112,note_on,,,,,92,0,11,,,,,4,,,46,100
122112,note_on,,,,,32,0,13,,,,,6,,,58,100
122112,note_on,,,,,0,0,15,,,,,7,,,65,100
122112,note_on,,,,,64,0,16,,,,,7,,,46,100
122112,note_on,,,,,0,0,15,,,,,7,,,70,100
122176,note_off,,,,,64,0,13,,,,,6,,,58,100
122176,note_off,,,,,64,0,8,,,,,1,,,70,100
122208,note_on,,,,,32,0,8,,,,,1,,,65,100
122208,note_on,,,,,32,0,13,,,,,6,,,65,100
122212,note_off,,,,,100,0,10,,,,,3,,,62,100
122212,note_off,,,,,100,0,11,,,,,4,,,46,100
122212,note_off,,,,,100,0,12,,,,,5,,,34,100
122212,note_off,,,,,100,0,9,,,,,2,,,70,100
122212,note_off,,,,,100,0,14,,,,,6,,,46,100
122240,note_off,,,,,128,0,16,,,,,7,,,46,100
122272,note_off,,,,,64,0,13,,,,,6,,,65,100
122272,note_off,,,,,64,0,8,,,,,1,,,65,100
122304,note_on,,,,,32,0,13,,,,,6,,,62,100
122304,note_on,,,,,92,0,14,,,,,6,,,58,100
122304,note_on,,,,,92,0,10,,,,,3,,,58,100
122304,note_on,,,,,92,0,9,,,,,2,,,70,100
122304,note_on,,,,,32,0,8,,,,,1,,,62,100
122304,note_on,,,,,92,0,11,,,,,4,,,58,100
122304,note_on,,,,,92,0,12,,,,,5,,,46,100
122304,note_on,,,,,64,0,16,,,,,7,,,58,100
122368,note_off,,,,,64,0,8,,,,,1,,,62,100
122368,note_off,,,,,64,0,13,,,,,6,,,62,100
122400,note_on,,,,,32,0,13,,,,,6,,,65,100
122400,note_on,,,,,32,0,8,,,,,1,,,65,100
122404,note_off,,,,,100,0,12,,,,,5,,,46,100
122404,note_off,,,,,100,0,14,,,,,6,,,58,100
122404,note_off,,,,,100,0,9,,,,,2,,,70,100
122404,note_off,,,,,100,0,10,,,,,3,,,58,100
122404,note_off,,,,,100,0,11,,,,,4,,,58,100
122432,note_off,,,,,128,0,16,,,,,7,,,58,100
122464,note_off,,,,,64,0,13,,,,,6,,,65,100
122464,note_off,,,,,64,0,8,,,,,1,,,65,100
122496,note_on,,,,,92,0,10,,,,,3,,,62,100
122496,note_on,,,,,92,0,12,,,,,5,,,46,100
122496,note_on,,,,,92,0,9,,,,,2,,,70,100
122496,note_on,,,,,32,0,13,,,,,6,,,70,100
122496,note_on,,,,,32,0,8,,,,,1,,,70,100
122496,note_on,,,,,92,0,11,,,,,4,,,58,100
122496,note_on,,,,,64,0,16,,,,,7,,,58,100
122496,note_on,,,,,92,0,14,,,,,6,,,58,100
122560,note_off,,,,,64,0,8,,,,,1,,,70,100
122560,note_off,,,,,64,0,13,,,,,6,,,70,100
122592,note_on,,,,,32,0,13,,,,,6,,,65,100
122592,note_on,,,,,32,0,8,,,,,1,,,65,100
122596,note_off,,,,,100,0,11,,,,,4,,,58,100
122596,note_off,,,,,100,0,9,,,,,2,,,70,100
122596,note_off,,,,,100,0,12,,,,,5,,,46,100
122596,note_off,,,,,100,0,14,,,,,6,,,58,100
122596,note_off,,,,,100,0,10,,,,,3,,,62,100
122624,note_off,,,,,128,0,16,,,,,7,,,58,100
122656,note_off,,,,,64,0,13,,,,,6,,,65,100
122656,note_off,,,,,64,0,8,,,,,1,,,65,100
122688,note_on,,,,,92,0,10,,,,,3,,,65,100
122688,note_on,,,,,32,0,13,,,,,6,,,62,100
122688,note_on,,,,,64,0,16,,,,,7,,,46,100
122688,note_on,,,,,92,0,11,,,,,4,,,46,100
122688,note_on,,,,,92,0,12,,,,,5,,,34,100
122688,note_on,,,,,92,0,14,,,,,6,,,46,100
122688,note_on,,,,,92,0,9,,,,,2,,,70,100
122688,note_on,,,,,32,0,8,,,,,1,,,62,100
122752,note_off,,,,,64,0,13,,,,,6,,,62,100
122752,note_off,,,,,64,0,8,,,,,1,,,62,100
122784,note_on,,,,,32,0,8,,,,,1,,,65,100
122784,note_on,,,,,32,0,13,,,,,6,,,65,100
122788,note_off,,,,,100,0,14,,,,,6,,,46,100
122788,note_off,,,,,100,0,9,,,,,2,,,70,100
122788,note_off,,,,,100,0,11,,,,,4,,,46,100
122788,note_off,,,,,100,0,12,,,,,5,,,34,100
122788,note_off,,,,,100,0,10,,,,,3,,,65,100
122800,note_off,,,,,0,0,15,,,,,7,,,65,100
122800,note_off,,,,,0,0,15,,,,,7,,,70,100
122800,note_off,,,,,688,0,15,,,,,7,,,62,100
122816,note_off,,,,,128,0,16,,,,,7,,,46,100
122848,note_off,,,,,64,0,8,,,,,1,,,65,100
122848,note_off,,,,,64,0,13,,,,,6,,,65,100
122880,note_on,,,,,92,0,11,,,,,4,,,46,105
122880,note_on,,,,,32,0,8,,,,,1,,,70,105
122880,note_on,,,,,0,0,15,,,,,7,,,65,100
122880,note_on,,,,,92,0,10,,,,,3,,,65,105
122880,note_on,,,,,0,0,15,,,,,7,,,70,100
122880,note_on,,,,,92,0,9,,,,,2,,,74,105
122880,note_on,,,,,80,0,15,,,,,7,,,62,100
122880,note_on,,,,,64,0,16,,,,,7,,,46,100
122880,note_on,,,,,32,0,13,,,,,6,,,70,100
122880,note_on,,,,,0,0,13,,,,,6,,,62,100
122880,note_on,,,,,0,0,13,,,,,6,,,65,100
122880,note_on,,,,,92,0,14,,,,,6,,,46,100
122880,note_on,,,,,92,0,12,,,,,5,,,34,105
122980,note_off,,,,,100,0,14,,,,,6,,,46,100
122980,note_off,,,,,100,0,10,,,,,3,,,65,100
122980,note_off,,,,,100,0,12,,,,,5,,,34,100
122980,note_off,,,,,100,0,11,,,,,4,,,46,100
123008,note_off,,,,,128,0,16,,,,,7,,,46,100
123008,note_off,,,,,128,0,8,,,,,1,,,70,100
123008,note_off,,,,,128,0,13,,,,,6,,,70,100
123008,note_off,,,,,128,0,9,,,,,2,,,74,100
123072,note_on,,,,,64,0,13,,,,,6,,,74,100
123072,note_on,,,,,64,0,16,,,,,7,,,58,100
123072,note_on,,,,,92,0,10,,,,,3,,,65,104
123072,note_on,,,,,92,0,14,,,,,6,,,58,100
123072,note_on,,,,,92,0,11,,,,,4,,,58,104
123072,note_on,,,,,92,0,12,,,,,5,,,46,104
123072,note_on,,,,,64,0,9,,,,,2,,,75,104
123072,note_on,,,,,64,0,8,,,,,1,,,72,104
123072,note_on,,,,,192,0,15,,,,,7,,,74,100
123136,note_off,,,,,64,0,15,,,,,7,,,62,100
123136,note_off,,,,,0,0,13,,,,,6,,,65,100
123136,note_off,,,,,0,0,15,,,,,7,,,70,100
123136,note_off,,,,,64,0,13,,,,,6,,,62,100
123136,note_off,,,,,64,0,9,,,,,2,,,75,100
123136,note_off,,,,,0,0,15,,,,,7,,,65,100
123136,note_off,,,,,64,0,8,,,,,1,,,72,100
123168,note_on,,,,,32,0,8,,,,,1,,,74,103
123168,note_on,,,,,32,0,9,,,,,2,,,77,103
123172,note_off,,,,,100,0,14,,,,,6,,,58,100
123172,note_off,,,,,100,0,12,,,,,5,,,46,100
123172,note_off,,,,,100,0,11,,,,,4,,,58,100
123172,note_off,,,,,100,0,10,,,,,3,,,65,100
123200,note_off,,,,,64,0,13,,,,,6,,,74,100
123200,note_off,,,,,128,0,16,,,,,7,,,58,100
123200,note_off,,,,,64,0,15,,,,,7,,,74,100
123232,note_off,,,,,64,0,9,,,,,2,,,77,100
123232,note_off,,,,,64,0,8,,,,,1,,,74,100
123264,note_on,,,,,64,0,13,,,,,6,,,72,100
123264,note_on,,,,,0,0,13,,,,,6,,,60,100
123264,note_on,,,,,0,0,13,,,,,6,,,67,100
123264,note_on,,,,,32,0,9,,,,,2,,,75,102
123264,note_on,,,,,92,0,11,,,,,4,,,51,102
123264,note_on,,,,,92,0,10,,,,,3,,,67,102
123264,note_on,,,,,0,0,15,,,,,7,,,67,100
123264,note_on,,,,,0,0,15,,,,,7,,,72,100
123264,note_on,,,,,64,0,16,,,,,7,,,51,100
123264,note_on,,,,,64,0,15,,,,,7,,,60,100
123264,note_on,,,,,92,0,12,,,,,5,,,39,102
123264,note_on,,,,,92,0,14,,,,,6,,,51,100
123264,note_on,,,,,32,0,8,,,,,1,,,72,102
123364,note_off,,,,,100,0,8,,,,,1,,,72,100
123364,note_off,,,,,100,0,10,,,,,3,,,67,100
123364,note_off,,,,,100,0,9,,,,,2,,,75,100
123392,note_off,,,,,128,0,11,,,,,4,,,51,100
123392,note_off,,,,,128,0,16,,,,,7,,,51,100
123392,note_off,,,,,128,0,15,,,,,7,,,72,100
123392,note_off,,,,,128,0,13,,,,,6,,,72,100
123392,note_off,,,,,128,0,12,,,,,5,,,39,100
123392,note_off,,,,,128,0,14,,,,,6,,,51,100
123456,note_on,,,,,64,0,13,,,,,6,,,70,100
123456,note_on,,,,,64,0,16,,,,,7,,,52,100
123456,note_on,,,,,64,0,12,,,,,5,,,40,101
123456,note_on,,,,,0,0,15,,,,,7,,,70,100
123456,note_on,,,,,64,0,15,,,,,7,,,62,100
123456,note_on,,,,,92,0,10,,,,,3,,,67,101
123456,note_on,,,,,64,0,11,,,,,4,,,52,101
123456,note_on,,,,,92,0,9,,,,,2,,,74,101
123456,note_on,,,,,92,0,8,,,,,1,,,70,101
123456,note_on,,,,,64,0,14,,,,,6,,,52,100
123520,note_off,,,,,64,0,15,,,,,7,,,60,100
123520,note_off,,,,,0,0,15,,,,,7,,,67,100
123520,note_off,,,,,0,0,13,,,,,6,,,67,100
123520,note_off,,,,,64,0,13,,,,,6,,,60,100
123556,note_off,,,,,100,0,9,,,,,2,,,74,100
123556,note_off,,,,,100,0,8,,,,,1,,,70,100
123556,note_off,,,,,100,0,10,,,,,3,,,67,100
123584,note_off,,,,,128,0,14,,,,,6,,,52,100
123584,note_off,,,,,0,0,15,,,,,7,,,70,100
123584,note_off,,,,,128,0,16,,,,,7,,,52,100
123584,note_off,,,,,128,0,12,,,,,5,,,40,100
123584,note_off,,,,,64,0,15,,,,,7,,,62,100
123584,note_off,,,,,128,0,11,,,,,4,,,52,100
123584,note_off,,,,,64,0,13,,,,,6,,,70,100
123648,note_on,,,,,0,0,15,,,,,7,,,60,100
123648,note_on,,,,,0,0,15,,,,,7,,,65,100
123648,note_on,,,,,64,0,15,,,,,7,,,69,100
123648,note_on,,,,,64,0,16,,,,,7,,,41,100
123648,note_on,,,,,64,0,14,,,,,6,,,41,100
123648,note_on,,,,,64,0,13,,,,,6,,,60,100
123648,note_on,,,,,0,0,13,,,,,6,,,65,100
123648,note_on,,,,,92,0,8,,,,,1,,,69,100
123648,note_on,,,,,64,0,12,,,,,5,,,41,100
123648,note_on,,,,,0,0,13,,,,,6,,,69,100
123648,note_on,,,,,64,0,11,,,,,4,,,41,100
123648,note_on,,,,,92,0,9,,,,,2,,,72,100
123648,note_on,,,,,92,0,10,,,,,3,,,69,100
123712,note_off,,,,,64,0,9,,,,,2,,,72,100
123744,note_on,,,,,32,0,9,,,,,2,,,72,99
123748,note_off,,,,,100,0,11,,,,,4,,,41,100
123748,note_off,,,,,100,0,10,,,,,3,,,69,100
123748,note_off,,,,,100,0,14,,,,,6,,,41,100
123748,note_off,,,,,100,0,8,,,,,1,,,69,100
123748,note_off,,,,,100,0,12,,,,,5,,,41,100
123776,note_off,,,,,128,0,16,,,,,7,,,41,100
123808,note_off,,,,,64,0,9,,,,,2,,,72,100
123840,note_on,,,,,92,0,11,,,,,4,,,53,97
123840,note_on,,,,,32,0,9,,,,,2,,,77,97
123840,note_on,,,,,92,0,14,,,,,6,,,53,100
123840,note_on,,,,,64,0,16,,,,,7,,,53,100
123840,note_on,,,,,92,0,12,,,,,5,,,41,97
123840,note_on,,,,,92,0,10,,,,,3,,,60,97
123840,note_on,,,,,92,0,8,,,,,1,,,65,97
123904,note_off,,,,,64,0,9,,,,,2,,,77,100
123904,note_off,,,,,0,0,13,,,,,6,,,65,100
123904,note_off,,,,,0,0,13,,,,,6,,,69,100
123904,note_off,,,,,256,0,13,,,,,6,,,60,100
123936,note_on,,,,,32,0,9,,,,,2,,,72,95
123940,note_off,,,,,100,0,12,,,,,5,,,41,100
123940,note_off,,,,,100,0,10,,,,,3,,,60,100
123940,note_off,,,,,100,0,8,,,,,1,,,65,100
123940,note_off,,,,,100,0,11,,,,,4,,,53,100
123940,note_off,,,,,100,0,14,,,,,6,,,53,100
123968,note_off,,,,,128,0,16,,,,,7,,,53,100
124000,note_off,,,,,64,0,9,,,,,2,,,72,100
124032,note_on,,,,,92,0,14,,,,,6,,,51,100
124032,note_on,,,,,64,0,16,,,,,7,,,51,100
124032,note_on,,,,,92,0,10,,,,,3,,,60,93
124032,note_on,,,,,0,0,13,,,,,6,,,72,100
124032,note_on,,,,,128,0,13,,,,,6,,,69,100
124032,note_on,,,,,92,0,11,,,,,4,,,51,93
124032,note_on,,,,,92,0,12,,,,,5,,,39,93
124032,note_on,,,,,32,0,9,,,,,2,,,69,93
124096,note_off,,,,,64,0,9,,,,,2,,,69,100
124128,note_on,,,,,32,0,9,,,,,2,,,72,91
124132,note_off,,,,,100,0,10,,,,,3,,,60,100
124132,note_off,,,,,100,0,12,,,,,5,,,39,100
124132,note_off,,,,,100,0,11,,,,,4,,,51,100
124132,note_off,,,,,100,0,14,,,,,6,,,51,100
124160,note_off,,,,,128,0,16,,,,,7,,,51,100
124192,note_off,,,,,64,0,9,,,,,2,,,72,100
124224,note_on,,,,,92,0,11,,,,,4,,,39,89
124224,note_on,,,,,92,0,10,,,,,3,,,60,89
124224,note_on,,,,,284,0,8,,,,,1,,,77,89
124224,note_on,,,,,92,0,12,,,,,5,,,39,89
124224,note_on,,,,,32,0,9,,,,,2,,,75,89
124224,note_on,,,,,64,0,16,,,,,7,,,39,100
124224,note_on,,,,,92,0,14,,,,,6,,,39,100
124288,note_off,,,,,256,0,13,,,,,6,,,69,100
124288,note_off,,,,,64,0,9,,,,,2,,,75,100
124288,note_off,,,,,0,0,13,,,,,6,,,72,100
124320,note_on,,,,,32,0,9,,,,,2,,,72,87
124324,note_off,,,,,100,0,10,,,,,3,,,60,100
124324,note_off,,,,,100,0,12,,,,,5,,,39,100
124324,note_off,,,,,100,0,11,,,,,4,,,39,100
124324,note_off,,,,,100,0,8,,,,,1,,,77,100
124324,note_off,,,,,100,0,14,,,,,6,,,39,100
124336,note_off,,,,,0,0,15,,,,,7,,,60,100
124336,note_off,,,,,0,0,15,,,,,7,,,65,100
124336,note_off,,,,,688,0,15,,,,,7,,,69,100
124352,note_off,,,,,128,0,16,,,,,7,,,39,100
124384,note_off,,,,,64,0,9,,,,,2,,,72,100
124416,note_on,,,,,0,0,13,,,,,6,,,65,100
124416,note_on,,,,,128,0,13,,,,,6,,,70,100
124416,note_on,,,,,92,0,10,,,,,3,,,62,86
124416,note_on,,,,,32,0,9,,,,,2,,,70,86
124416,note_on,,,,,0,0,15,,,,,7,,,62,100
124416,note_on,,,,,0,0,15,,,,,7,,,65,100
124416,note_on,,,,,64,0,16,,,,,7,,,38,100
124416,note_on,,,,,92,0,11,,,,,4,,,38,86
124416,note_on,,,,,92,0,12,,,,,5,,,38,86
124416,note_on,,,,,80,0,15,,,,,7,,,70,100
124416,note_on,,,,,92,0,8,,,,,1,,,77,86
124416,note_on,,,,,92,0,14,,,,,6,,,38,100
124480,note_off,,,,,64,0,9,,,,,2,,,70,100
124512,note_on,,,,,32,0,9,,,,,2,,,72,85
124516,note_off,,,,,100,0,12,,,,,5,,,38,100
124516,note_off,,,,,100,0,11,,,,,4,,,38,100
124516,note_off,,,,,100,0,14,,,,,6,,,38,100
124544,note_off,,,,,128,0,13,,,,,6,,,70,100
124544,note_off,,,,,128,0,10,,,,,3,,,62,100
124548,note_off,,,,,132,0,16,,,,,7,,,38,100
124576,note_off,,,,,64,0,9,,,,,2,,,72,100
124604,note_off,,,,,188,0,8,,,,,1,,,77,100
124608,note_on,,,,,92,0,14,,,,,6,,,50,100
124608,note_on,,,,,64,0,10,,,,,3,,,62,86
124608,note_on,,,,,60,0,16,,,,,7,,,50,100
124608,note_on,,,,,4,0,8,,,,,1,,,70,86
124608,note_on,,,,,92,0,11,,,,,4,,,50,86
124608,note_on,,,,,92,0,12,,,,,5,,,38,86
124608,note_on,,,,,64,0,13,,,,,6,,,77,100
124608,note_on,,,,,32,0,9,,,,,2,,,74,86
124672,note_off,,,,,64,0,9,,,,,2,,,74,100
124704,note_on,,,,,32,0,9,,,,,2,,,75,87
124708,note_off,,,,,100,0,11,,,,,4,,,50,100
124708,note_off,,,,,100,0,12,,,,,5,,,38,100
124708,note_off,,,,,100,0,14,,,,,6,,,50,100
124736,note_off,,,,,128,0,8,,,,,1,,,70,100
124736,note_off,,,,,128,0,13,,,,,6,,,77,100
124736,note_off,,,,,128,0,10,,,,,3,,,62,100
124740,note_off,,,,,132,0,16,,,,,7,,,50,100
124768,note_off,,,,,64,0,9,,,,,2,,,75,100
124796,note_off,,,,,380,0,15,,,,,7,,,70,100
124800,note_on,,,,,92,0,11,,,,,4,,,58,87
124800,note_on,,,,,4,0,15,,,,,7,,,68,100
124800,note_on,,,,,92,0,14,,,,,6,,,58,100
124800,note_on,,,,,60,0,16,,,,,7,,,58,100
124800,note_on,,,,,32,0,9,,,,,2,,,77,87
124800,note_on,,,,,64,0,13,,,,,6,,,74,100
124800,note_on,,,,,64,0,10,,,,,3,,,62,87
124800,note_on,,,,,92,0,12,,,,,5,,,46,87
124892,note_off,,,,,92,0,13,,,,,6,,,74,100
124896,note_on,,,,,4,0,13,,,,,6,,,72,100
124900,note_off,,,,,100,0,12,,,,,5,,,46,100
124900,note_off,,,,,100,0,14,,,,,6,,,58,100
124900,note_off,,,,,100,0,11,,,,,4,,,58,100
124928,note_off,,,,,32,0,13,,,,,6,,,65,100
124928,note_off,,,,,128,0,10,,,,,3,,,62,100
124928,note_off,,,,,128,0,9,,,,,2,,,77,100
124932,note_off,,,,,132,0,16,,,,,7,,,58,100
124988,note_off,,,,,60,0,13,,,,,6,,,72,100
124992,note_on,,,,,60,0,16,,,,,7,,,38,100
124992,note_on,,,,,256,0,8,,,,,1,,,80,89
124992,note_on,,,,,4,0,13,,,,,6,,,70,100
124992,note_on,,,,,92,0,12,,,,,5,,,38,89
124992,note_on,,,,,64,0,9,,,,,2,,,70,89
124992,note_on,,,,,92,0,14,,,,,6,,,38,100
124992,note_on,,,,,92,0,11,,,,,4,,,38,89
124992,note_on,,,,,64,0,10,,,,,3,,,65,89
125056,note_off,,,,,256,0,15,,,,,7,,,68,100
125084,note_off,,,,,92,0,13,,,,,6,,,70,100
125088,note_on,,,,,4,0,13,,,,,6,,,68,100
125092,note_off,,,,,100,0,12,,,,,5,,,38,100
125092,note_off,,,,,100,0,14,,,,,6,,,38,100
125092,note_off,,,,,100,0,11,,,,,4,,,38,100
125092,note_off,,,,,100,0,9,,,,,2,,,70,100
125092,note_off,,,,,100,0,8,,,,,1,,,80,100
125104,note_off,,,,,0,0,15,,,,,7,,,65,100
125104,note_off,,,,,48,0,15,,,,,7,,,62,100
125120,note_off,,,,,128,0,10,,,,,3,,,65,100
125124,note_off,,,,,132,0,16,,,,,7,,,38,100
125152,note_off,,,,,64,0,13,,,,,6,,,68,100
125184,note_on,,,,,92,0,12,,,,,5,,,39,90
125184,note_on,,,,,0,0,13,,,,,6,,,58,100
125184,note_on,,,,,32,0,13,,,,,6,,,68,100
125184,note_on,,,,,0,0,15,,,,,7,,,63,100
125184,note_on,,,,,92,0,11,,,,,4,,,39,90
125184,note_on,,,,,80,0,15,,,,,7,,,68,100
125184,note_on,,,,,0,0,15,,,,,7,,,58,100
125184,note_on,,,,,92,0,14,,,,,6,,,39,100
125184,note_on,,,,,60,0,16,,,,,7,,,39,100
125184,note_on,,,,,64,0,10,,,,,3,,,63,90
125184,note_on,,,,,92,0,9,,,,,2,,,70,90
125184,note_on,,,,,92,0,8,,,,,1,,,80,90
125204,note_off,,,,,20,0,8,,,,,1,,,80,100
125232,note_on,,,,,28,0,8,,,,,1,,,82,90
125252,note_off,,,,,20,0,8,,,,,1,,,82,100
125280,note_on,,,,,28,0,8,,,,,1,,,80,91
125284,note_off,,,,,100,0,11,,,,,4,,,39,100
125284,note_off,,,,,100,0,12,,,,,5,,,39,100
125284,note_off,,,,,100,0,9,,,,,2,,,70,100
125284,note_off,,,,,100,0,14,,,,,6,,,39,100
125312,note_off,,,,,128,0,10,,,,,3,,,63,100
125316,note_off,,,,,132,0,16,,,,,7,,,39,100
125372,note_off,,,,,188,0,15,,,,,7,,,68,100
125372,note_off,,,,,92,0,8,,,,,1,,,80,100
125372,note_off,,,,,188,0,13,,,,,6,,,68,100
125376,note_on,,,,,60,0,16,,,,,7,,,51,100
125376,note_on,,,,,92,0,14,,,,,6,,,51,100
125376,note_on,,,,,92,0,12,,,,,5,,,39,91
125376,note_on,,,,,4,0,8,,,,,1,,,79,91
125376,note_on,,,,,4,0,13,,,,,6,,,67,100
125376,note_on,,,,,92,0,11,,,,,4,,,51,91
125376,note_on,,,,,64,0,10,,,,,3,,,63,91
125376,note_on,,,,,92,0,9,,,,,2,,,70,91
125376,note_on,,,,,4,0,15,,,,,7,,,67,100
125440,note_off,,,,,64,0,13,,,,,6,,,58,100
125476,note_off,,,,,100,0,11,,,,,4,,,51,100
125476,note_off,,,,,100,0,12,,,,,5,,,39,100
125476,note_off,,,,,100,0,9,,,,,2,,,70,100
125476,note_off,,,,,100,0,14,,,,,6,,,51,100
125504,note_off,,,,,64,0,13,,,,,6,,,67,100
125504,note_off,,,,,128,0,10,,,,,3,,,63,100
125504,note_off,,,,,128,0,8,,,,,1,,,79,100
125508,note_off,,,,,132,0,16,,,,,7,,,51,100
125568,note_on,,,,,92,0,9,,,,,2,,,70,93
125568,note_on,,,,,92,0,12,,,,,5,,,39,93
125568,note_on,,,,,64,0,13,,,,,6,,,75,100
125568,note_on,,,,,92,0,11,,,,,4,,,51,93
125568,note_on,,,,,92,0,14,,,,,6,,,51,100
125568,note_on,,,,,64,0,10,,,,,3,,,67,93
125568,note_on,,,,,60,0,16,,,,,7,,,51,100
125568,note_on,,,,,0,0,13,,,,,6,,,67,100
125632,note_off,,,,,64,0,9,,,,,2,,,70,100
125664,note_on,,,,,32,0,9,,,,,2,,,75,93
125668,note_off,,,,,100,0,14,,,,,6,,,51,100
125668,note_off,,,,,100,0,11,,,,,4,,,51,100
125668,note_off,,,,,100,0,12,,,,,5,,,39,100
125696,note_off,,,,,128,0,13,,,,,6,,,75,100
125696,note_off,,,,,128,0,10,,,,,3,,,67,100
125700,note_off,,,,,132,0,16,,,,,7,,,51,100
125728,note_off,,,,,64,0,9,,,,,2,,,75,100
125760,note_on,,,,,60,0,16,,,,,7,,,39,100
125760,note_on,,,,,256,0,8,,,,,1,,,79,94
125760,note_on,,,,,92,0,12,,,,,5,,,39,94
125760,note_on,,,,,92,0,11,,,,,4,,,39,94
125760,note_on,,,,,32,0,9,,,,,2,,,79,94
125760,note_on,,,,,92,0,14,,,,,6,,,39,100
125760,note_on,,,,,64,0,10,,,,,3,,,70,94
125760,note_off,,,,,384,0,15,,,,,7,,,67,100
125760,note_on,,,,,64,0,13,,,,,6,,,79,100
125824,note_off,,,,,64,0,9,,,,,2,,,79,100
125824,note_off,,,,,64,0,13,,,,,6,,,67,100
125856,note_on,,,,,32,0,9,,,,,2,,,75,95
125860,note_off,,,,,100,0,14,,,,,6,,,39,100
125860,note_off,,,,,100,0,11,,,,,4,,,39,100
125860,note_off,,,,,100,0,8,,,,,1,,,79,100
125860,note_off,,,,,100,0,12,,,,,5,,,39,100
125872,note_off,,,,,112,0,15,,,,,7,,,63,100
125872,note_off,,,,,0,0,15,,,,,7,,,58,100
125888,note_off,,,,,64,0,13,,,,,6,,,79,100
125888,note_off,,,,,128,0,10,,,,,3,,,70,100
125892,note_off,,,,,132,0,16,,,,,7,,,39,100
125920,note_off,,,,,64,0,9,,,,,2,,,75,100
125952,note_on,,,,,80,0,15,,,,,7,,,72,100
125952,note_on,,,,,0,0,15,,,,,7,,,64,100
125952,note_on,,,,,0,0,15,,,,,7,,,67,100
125952,note_on,,,,,60,0,16,,,,,7,,,40,100
125952,note_on,,,,,92,0,8,,,,,1,,,79,95
125952,note_on,,,,,92,0,11,,,,,4,,,40,95
125952,note_on,,,,,92,0,14,,,,,6,,,40,100
125952,note_on,,,,,32,0,9,,,,,2,,,72,95
125952,note_on,,,,,0,0,13,,,,,6,,,67,100
125952,note_on,,,,,64,0,13,,,,,6,,,72,100
125952,note_on,,,,,92,0,12,,,,,5,,,40,95
125952,note_on,,,,,64,0,10,,,,,3,,,64,95
126016,note_off,,,,,64,0,9,,,,,2,,,72,100
126048,note_on,,,,,32,0,9,,,,,2,,,74,96
126052,note_off,,,,,100,0,11,,,,,4,,,40,100
126052,note_off,,,,,100,0,12,,,,,5,,,40,100
126052,note_off,,,,,100,0,14,,,,,6,,,40,100
126080,note_off,,,,,128,0,10,,,,,3,,,64,100
126080,note_off,,,,,128,0,13,,,,,6,,,72,100
126084,note_off,,,,,132,0,16,,,,,7,,,40,100
126112,note_off,,,,,64,0,9,,,,,2,,,74,100
126140,note_off,,,,,188,0,8,,,,,1,,,79,100
126144,note_on,,,,,60,0,16,,,,,7,,,52,100
126144,note_on,,,,,92,0,12,,,,,5,,,40,97
126144,note_on,,,,,64,0,10,,,,,3,,,64,97
126144,note_on,,,,,92,0,14,,,,,6,,,52,100
126144,note_on,,,,,4,0,8,,,,,1,,,72,97
126144,note_on,,,,,64,0,13,,,,,6,,,79,100
126144,note_on,,,,,32,0,9,,,,,2,,,76,97
126144,note_on,,,,,92,0,11,,,,,4,,,52,97
126208,note_off,,,,,64,0,9,,,,,2,,,76,100
126240,note_on,,,,,32,0,9,,,,,2,,,77,97
126244,note_off,,,,,100,0,14,,,,,6,,,52,100
126244,note_off,,,,,100,0,12,,,,,5,,,40,100
126244,note_off,,,,,100,0,11,,,,,4,,,52,100
126272,note_off,,,,,128,0,10,,,,,3,,,64,100
126272,note_off,,,,,128,0,8,,,,,1,,,72,100
126272,note_off,,,,,128,0,13,,,,,6,,,79,100
126276,note_off,,,,,132,0,16,,,,,7,,,52,100
126304,note_off,,,,,64,0,9,,,,,2,,,77,100
126332,note_off,,,,,380,0,15,,,,,7,,,72,100
126336,note_on,,,,,64,0,13,,,,,6,,,76,100
126336,note_on,,,,,60,0,16,,,,,7,,,60,100
126336,note_on,,,,,64,0,10,,,,,3,,,64,98
126336,note_on,,,,,92,0,14,,,,,6,,,60,100
126336,note_on,,,,,92,0,12,,,,,5,,,48,98
126336,note_on,,,,,32,0,9,,,,,2,,,79,98
126336,note_on,,,,,92,0,11,,,,,4,,,60,98
126336,note_on,,,,,4,0,15,,,,,7,,,70,100
126428,note_off,,,,,92,0,13,,,,,6,,,76,100
126432,note_on,,,,,4,0,13,,,,,6,,,74,100
126436,note_off,,,,,100,0,11,,,,,4,,,60,100
126436,note_off,,,,,100,0,14,,,,,6,,,60,100
126436,note_off,,,,,100,0,12,,,,,5,,,48,100
126464,note_off,,,,,128,0,10,,,,,3,,,64,100
126464,note_off,,,,,32,0,13,,,,,6,,,67,100
126464,note_off,,,,,128,0,9,,,,,2,,,79,100
126468,note_off,,,,,132,0,16,,,,,7,,,60,100
126524,note_off,,,,,60,0,13,,,,,6,,,74,100
126528,note_on,,,,,64,0,10,,,,,3,,,67,100
126528,note_on,,,,,92,0,11,,,,,4,,,40,100
126528,note_on,,,,,64,0,9,,,,,2,,,72,100
126528,note_on,,,,,92,0,14,,,,,6,,,40,100
126528,note_on,,,,,4,0,13,,,,,6,,,72,100
126528,note_on,,,,,60,0,16,,,,,7,,,40,100
126528,note_on,,,,,256,0,8,,,,,1,,,82,100
126528,note_on,,,,,92,0,12,,,,,5,,,40,100
126592,note_off,,,,,256,0,15,,,,,7,,,70,100
126620,note_off,,,,,92,0,13,,,,,6,,,72,100
126624,note_on,,,,,4,0,13,,,,,6,,,70,100
126628,note_off,,,,,100,0,12,,,,,5,,,40,100
126628,note_off,,,,,100,0,11,,,,,4,,,40,100
126628,note_off,,,,,100,0,9,,,,,2,,,72,100
126628,note_off,,,,,100,0,8,,,,,1,,,82,100
126628,note_off,,,,,100,0,14,,,,,6,,,40,100
126640,note_off,,,,,0,0,15,,,,,7,,,67,100
126640,note_off,,,,,48,0,15,,,,,7,,,64,100
126656,note_off,,,,,128,0,10,,,,,3,,,67,100
126660,note_off,,,,,132,0,16,,,,,7,,,40,100
126688,note_off,,,,,64,0,13,,,,,6,,,70,100
126720,note_on,,,,,92,0,9,,,,,2,,,72,95
126720,note_on,,,,,92,0,11,,,,,4,,,41,95
126720,note_on,,,,,80,0,15,,,,,7,,,70,100
126720,note_on,,,,,64,0,10,,,,,3,,,65,95
126720,note_on,,,,,92,0,12,,,,,5,,,41,95
126720,note_on,,,,,60,0,16,,,,,7,,,41,100
126720,note_on,,,,,0,0,15,,,,,7,,,60,100
126720,note_on,,,,,0,0,15,,,,,7,,,65,100
126720,note_on,,,,,92,0,8,,,,,1,,,82,95
126720,note_on,,,,,0,0,13,,,,,6,,,60,100
126720,note_on,,,,,92,0,14,,,,,6,,,41,100
126720,note_on,,,,,32,0,13,,,,,6,,,70,100
126740,note_off,,,,,20,0,8,,,,,1,,,82,100
126768,note_on,,,,,28,0,8,,,,,1,,,84,93
126788,note_off,,,,,20,0,8,,,,,1,,,84,100
126816,note_on,,,,,28,0,8,,,,,1,,,82,92
126820,note_off,,,,,100,0,12,,,,,5,,,41,100
126820,note_off,,,,,100,0,11,,,,,4,,,41,100
126820,note_off,,,,,100,0,9,,,,,2,,,72,100
126820,note_off,,,,,100,0,14,,,,,6,,,41,100
126848,note_off,,,,,128,0,10,,,,,3,,,65,100
126852,note_off,,,,,132,0,16,,,,,7,,,41,100
126908,note_off,,,,,188,0,13,,,,,6,,,70,100
126908,note_off,,,,,92,0,8,,,,,1,,,82,100
126908,note_off,,,,,188,0,15,,,,,7,,,70,100
126912,note_on,,,,,92,0,12,,,,,5,,,41,89
126912,note_on,,,,,60,0,16,,,,,7,,,53,100
126912,note_on,,,,,4,0,15,,,,,7,,,69,100
126912,note_on,,,,,64,0,10,,,,,3,,,65,89
126912,note_on,,,,,4,0,13,,,,,6,,,69,100
126912,note_on,,,,,92,0,14,,,,,6,,,53,100
126912,note_on,,,,,4,0,8,,,,,1,,,81,89
126912,note_on,,,,,92,0,11,,,,,4,,,53,89
126912,note_on,,,,,92,0,9,,,,,2,,,72,89
126976,note_off,,,,,64,0,13,,,,,6,,,60,100
127012,note_off,,,,,100,0,12,,,,,5,,,41,100
127012,note_off,,,,,100,0,11,,,,,4,,,53,100
127012,note_off,,,,,100,0,9,,,,,2,,,72,100
127012,note_off,,,,,100,0,14,,,,,6,,,53,100
127040,note_off,,,,,64,0,13,,,,,6,,,69,100
127040,note_off,,,,,128,0,8,,,,,1,,,81,100
127040,note_off,,,,,128,0,10,,,,,3,,,65,100
127044,note_off,,,,,132,0,16,,,,,7,,,53,100
127104,note_on,,,,,92,0,9,,,,,2,,,69,83
127104,note_on,,,,,92,0,14,,,,,6,,,51,100
127104,note_on,,,,,60,0,16,,,,,7,,,51,100
127104,note_on,,,,,64,0,10,,,,,3,,,69,83
127104,note_on,,,,,64,0,13,,,,,6,,,72,100
127104,note_on,,,,,92,0,11,,,,,4,,,51,83
127104,note_on,,,,,92,0,12,,,,,5,,,39,83
127104,note_on,,,,,0,0,13,,,,,6,,,69,100
127168,note_off,,,,,64,0,9,,,,,2,,,69,100
127200,note_on,,,,,32,0,9,,,,,2,,,72,80
127204,note_off,,,,,100,0,12,,,,,5,,,39,100
127204,note_off,,,,,100,0,14,,,,,6,,,51,100
127204,note_off,,,,,100,0,11,,,,,4,,,51,100
127232,note_off,,,,,128,0,13,,,,,6,,,72,100
127232,note_off,,,,,128,0,10,,,,,3,,,69,100
127236,note_off,,,,,132,0,16,,,,,7,,,51,100
127264,note_off,,,,,64,0,9,,,,,2,,,72,100
127296,note_on,,,,,92,0,11,,,,,4,,,39,77
127296,note_on,,,,,64,0,13,,,,,6,,,77,100
127296,note_on,,,,,64,0,10,,,,,3,,,72,77
127296,note_on,,,,,92,0,14,,,,,6,,,39,100
127296,note_on,,,,,60,0,16,,,,,7,,,39,100
127296,note_on,,,,,256,0,8,,,,,1,,,77,77
127296,note_on,,,,,92,0,12,,,,,5,,,39,77
127296,note_on,,,,,32,0,9,,,,,2,,,77,77
127296,note_off,,,,,384,0,15,,,,,7,,,69,100
127360,note_off,,,,,64,0,9,,,,,2,,,77,100
127360,note_off,,,,,64,0,13,,,,,6,,,69,100
127392,note_on,,,,,32,0,9,,,,,2,,,72,75
127396,note_off,,,,,100,0,11,,,,,4,,,39,100
127396,note_off,,,,,100,0,12,,,,,5,,,39,100
127396,note_off,,,,,100,0,8,,,,,1,,,77,100
127396,note_off,,,,,100,0,14,,,,,6,,,39,100
127408,note_off,,,,,112,0,15,,,,,7,,,65,100
127408,note_off,,,,,0,0,15,,,,,7,,,60,100
127424,note_off,,,,,128,0,10,,,,,3,,,72,100
127424,note_off,,,,,64,0,13,,,,,6,,,77,100
127428,note_off,,,,,132,0,16,,,,,7,,,39,100
127456,note_off,,,,,64,0,9,,,,,2,,,72,100
127488,note_on,,,,,0,0,15,,,,,7,,,65,100
127488,note_on,,,,,0,0,15,,,,,7,,,62,100
127488,note_on,,,,,92,0,12,,,,,5,,,38,75
127488,note_on,,,,,64,0,13,,,,,6,,,70,100
127488,note_on,,,,,92,0,8,,,,,1,,,77,75
127488,note_on,,,,,80,0,15,,,,,7,,,70,100
127488,note_on,,,,,32,0,9,,,,,2,,,70,75
127488,note_on,,,,,92,0,11,,,,,4,,,38,75
127488,note_on,,,,,92,0,14,,,,,6,,,38,100
127488,note_on,,,,,60,0,16,,,,,7,,,38,100
127488,note_on,,,,,64,0,10,,,,,3,,,62,75
127488,note_on,,,,,0,0,13,,,,,6,,,65,100
127552,note_off,,,,,64,0,9,,,,,2,,,70,100
127584,note_on,,,,,32,0,9,,,,,2,,,72,74
127588,note_off,,,,,100,0,12,,,,,5,,,38,100
127588,note_off,,,,,100,0,14,,,,,6,,,38,100
127588,note_off,,,,,100,0,11,,,,,4,,,38,100
127616,note_off,,,,,128,0,13,,,,,6,,,70,100
127616,note_off,,,,,128,0,10,,,,,3,,,62,100
127620,note_off,,,,,132,0,16,,,,,7,,,38,100
127648,note_off,,,,,64,0,9,,,,,2,,,72,100
127676,note_off,,,,,188,0,8,,,,,1,,,77,100
127680,note_on,,,,,92,0,12,,,,,5,,,38,73
127680,note_on,,,,,4,0,8,,,,,1,,,70,73
127680,note_on,,,,,92,0,14,,,,,6,,,50,100
127680,note_on,,,,,92,0,11,,,,,4,,,50,73
127680,note_on,,,,,64,0,13,,,,,6,,,77,100
127680,note_on,,,,,32,0,9,,,,,2,,,74,73
127680,note_on,,,,,60,0,16,,,,,7,,,50,100
127680,note_on,,,,,64,0,10,,,,,3,,,62,73
127744,note_off,,,,,64,0,9,,,,,2,,,74,100
127776,note_on,,,,,32,0,9,,,,,2,,,75,72
127780,note_off,,,,,100,0,14,,,,,6,,,50,100
127780,note_off,,,,,100,0,12,,,,,5,,,38,100
127780,note_off,,,,,100,0,11,,,,,4,,,50,100
127808,note_off,,,,,128,0,13,,,,,6,,,77,100
127808,note_off,,,,,128,0,10,,,,,3,,,62,100
127808,note_off,,,,,128,0,8,,,,,1,,,70,100
127812,note_off,,,,,132,0,16,,,,,7,,,50,100
127840,note_off,,,,,64,0,9,,,,,2,,,75,100
127868,note_off,,,,,380,0,15,,,,,7,,,70,100
127872,note_on,,,,,64,0,10,,,,,3,,,62,71
127872,note_on,,,,,60,0,16,,,,,7,,,58,100
127872,note_on,,,,,32,0,9,,,,,2,,,77,71
127872,note_on,,,,,4,0,15,,,,,7,,,68,100
127872,note_on,,,,,64,0,13,,,,,6,,,74,100
127872,note_on,,,,,92,0,14,,,,,6,,,58,100
127872,note_on,,,,,92,0,11,,,,,4,,,58,71
127872,note_on,,,,,92,0,12,,,,,5,,,46,71
127964,note_off,,,,,92,0,13,,,,,6,,,74,100
127968,note_on,,,,,4,0,13,,,,,6,,,72,100
127972,note_off,,,,,100,0,11,,,,,4,,,58,100
127972,note_off,,,,,100,0,12,,,,,5,,,46,100
127972,note_off,,,,,100,0,14,,,,,6,,,58,100
128000,note_off,,,,,32,0,13,,,,,6,,,65,100
128000,note_off,,,,,128,0,9,,,,,2,,,77,100
128000,note_off,,,,,128,0,10,,,,,3,,,62,100
128004,note_off,,,,,132,0,16,,,,,7,,,58,100
128060,note_off,,,,,60,0,13,,,,,6,,,72,100
128064,note_on,,,,,92,0,12,,,,,5,,,38,70
128064,note_on,,,,,60,0,16,,,,,7,,,38,100
128064,note_on,,,,,92,0,14,,,,,6,,,38,100
128064,note_on,,,,,64,0,9,,,,,2,,,65,70
128064,note_on,,,,,92,0,11,,,,,4,,,38,70
128064,note_on,,,,,64,0,10,,,,,3,,,58,70
128064,note_on,,,,,256,0,8,,,,,1,,,68,70
128064,note_on,,,,,4,0,13,,,,,6,,,70,100
128128,note_off,,,,,256,0,15,,,,,7,,,68,100
128156,note_off,,,,,92,0,13,,,,,6,,,70,100
128160,note_on,,,,,4,0,13,,,,,6,,,68,100
128164,note_off,,,,,100,0,8,,,,,1,,,68,100
128164,note_off,,,,,100,0,11,,,,,4,,,38,100
128164,note_off,,,,,100,0,9,,,,,2,,,65,100
128164,note_off,,,,,100,0,12,,,,,5,,,38,100
128164,note_off,,,,,100,0,14,,,,,6,,,38,100
128176,note_off,,,,,0,0,15,,,,,7,,,65,100
128176,note_off,,,,,48,0,15,,,,,7,,,62,100
128192,note_off,,,,,128,0,10,,,,,3,,,58,100
128196,note_off,,,,,132,0,16,,,,,7,,,38,100
128224,note_off,,,,,64,0,13,,,,,6,,,68,100
128256,note_on,,,,,64,0,10,,,,,3,,,58,71
128256,note_on,,,,,92,0,12,,,,,5,,,39,71
128256,note_on,,,,,0,0,15,,,,,7,,,63,100
128256,note_on,,,,,0,0,15,,,,,7,,,58,100
128256,note_on,,,,,92,0,8,,,,,1,,,68,71
128256,note_on,,,,,60,0,16,,,,,7,,,39,100
128256,note_on,,,,,92,0,9,,,,,2,,,63,71
128256,note_on,,,,,92,0,11,,,,,4,,,39,71
128256,note_on,,,,,92,0,14,,,,,6,,,39,100
128256,note_on,,,,,80,0,15,,,,,7,,,68,100
128256,note_on,,,,,32,0,13,,,,,6,,,63,100
128256,note_on,,,,,0,0,13,,,,,6,,,68,100
128276,note_off,,,,,20,0,8,,,,,1,,,68,100
128304,note_on,,,,,28,0,8,,,,,1,,,70,72
128324,note_off,,,,,20,0,8,,,,,1,,,70,100
128352,note_on,,,,,28,0,8,,,,,1,,,68,72
128356,note_off,,,,,100,0,9,,,,,2,,,63,100
128356,note_off,,,,,100,0,11,,,,,4,,,39,100
128356,note_off,,,,,100,0,14,,,,,6,,,39,100
128356,note_off,,,,,100,0,12,,,,,5,,,39,100
128384,note_off,,,,,128,0,10,,,,,3,,,58,100
128388,note_off,,,,,132,0,16,,,,,7,,,39,100
128444,note_off,,,,,92,0,8,,,,,1,,,68,100
128444,note_off,,,,,188,0,15,,,,,7,,,68,100
128444,note_off,,,,,188,0,13,,,,,6,,,68,100
128448,note_on,,,,,92,0,11,,,,,4,,,51,73
128448,note_on,,,,,4,0,13,,,,,6,,,67,100
128448,note_on,,,,,64,0,10,,,,,3,,,58,73
128448,note_on,,,,,60,0,16,,,,,7,,,51,100
128448,note_on,,,,,4,0,8,,,,,1,,,67,73
128448,note_on,,,,,92,0,9,,,,,2,,,63,73
128448,note_on,,,,,4,0,15,,,,,7,,,67,100
128448,note_on,,,,,92,0,14,,,,,6,,,51,100
128448,note_on,,,,,92,0,12,,,,,5,,,39,73
128512,note_off,,,,,64,0,13,,,,,6,,,63,100
128548,note_off,,,,,100,0,9,,,,,2,,,63,100
128548,note_off,,,,,100,0,11,,,,,4,,,51,100
128548,note_off,,,,,100,0,12,,,,,5,,,39,100
128548,note_off,,,,,100,0,14,,,,,6,,,51,100
128576,note_off,,,,,128,0,8,,,,,1,,,67,100
128576,note_off,,,,,64,0,13,,,,,6,,,67,100
128576,note_off,,,,,128,0,10,,,,,3,,,58,100
128580,note_off,,,,,132,0,16,,,,,7,,,51,100
128640,note_on,,,,,64,0,13,,,,,6,,,75,100
128640,note_on,,,,,92,0,11,,,,,4,,,51,74
128640,note_on,,,,,92,0,14,,,,,6,,,51,100
128640,note_on,,,,,92,0,12,,,,,5,,,39,74
128640,note_on,,,,,0,0,13,,,,,6,,,67,100
128640,note_on,,,,,92,0,9,,,,,2,,,70,74
128640,note_on,,,,,64,0,10,,,,,3,,,67,74
128640,note_on,,,,,60,0,16,,,,,7,,,51,100
128704,note_off,,,,,64,0,9,,,,,2,,,70,100
128736,note_on,,,,,32,0,9,,,,,2,,,75,75
128740,note_off,,,,,100,0,14,,,,,6,,,51,100
128740,note_off,,,,,100,0,11,,,,,4,,,51,100
128740,note_off,,,,,100,0,12,,,,,5,,,39,100
128768,note_off,,,,,128,0,10,,,,,3,,,67,100
128768,note_off,,,,,128,0,13,,,,,6,,,75,100
128772,note_off,,,,,132,0,16,,,,,7,,,51,100
128800,note_off,,,,,64,0,9,,,,,2,,,75,100
128832,note_on,,,,,92,0,14,,,,,6,,,39,100
128832,note_on,,,,,60,0,16,,,,,7,,,39,100
128832,note_off,,,,,384,0,15,,,,,7,,,67,100
128832,note_on,,,,,64,0,13,,,,,6,,,79,100
128832,note_on,,,,,92,0,11,,,,,4,,,39,76
128832,note_on,,,,,92,0,12,,,,,5,,,39,76
128832,note_on,,,,,256,0,8,,,,,1,,,79,76
128832,note_on,,,,,64,0,10,,,,,3,,,70,76
128832,note_on,,,,,32,0,9,,,,,2,,,79,76
128896,note_off,,,,,64,0,13,,,,,6,,,67,100
128896,note_off,,,,,64,0,9,,,,,2,,,79,100
128928,note_on,,,,,32,0,9,,,,,2,,,75,77
128932,note_off,,,,,100,0,11,,,,,4,,,39,100
128932,note_off,,,,,100,0,12,,,,,5,,,39,100
128932,note_off,,,,,100,0,8,,,,,1,,,79,100
128932,note_off,,,,,100,0,14,,,,,6,,,39,100
128944,note_off,,,,,112,0,15,,,,,7,,,63,100
128944,note_off,,,,,0,0,15,,,,,7,,,58,100
128960,note_off,,,,,64,0,13,,,,,6,,,79,100
128960,note_off,,,,,128,0,10,,,,,3,,,70,100
128964,note_off,,,,,132,0,16,,,,,7,,,39,100
128992,note_off,,,,,64,0,9,,,,,2,,,75,100
129024,note_on,,,,,92,0,11,,,,,4,,,40,78
129024,note_on,,,,,32,0,9,,,,,2,,,72,78
129024,note_on,,,,,64,0,10,,,,,3,,,64,78
129024,note_on,,,,,64,0,13,,,,,6,,,72,100
129024,note_on,,,,,92,0,8,,,,,1,,,79,78
129024,note_on,,,,,92,0,14,,,,,6,,,40,100
129024,note_on,,,,,0,0,13,,,,,6,,,67,100
129024,note_on,,,,,0,0,15,,,,,7,,,67,100
129024,note_on,,,,,0,0,15,,,,,7,,,64,100
129024,note_on,,,,,80,0,15,,,,,7,,,72,100
129024,note_on,,,,,92,0,12,,,,,5,,,40,78
129024,note_on,,,,,60,0,16,,,,,7,,,40,100
129088,note_off,,,,,64,0,9,,,,,2,,,72,100
129120,note_on,,,,,32,0,9,,,,,2,,,74,79
129124,note_off,,,,,100,0,12,,,,,5,,,40,100
129124,note_off,,,,,100,0,14,,,,,6,,,40,100
129124,note_off,,,,,100,0,11,,,,,4,,,40,100
129152,note_off,,,,,128,0,13,,,,,6,,,72,100
129152,note_off,,,,,128,0,10,,,,,3,,,64,100
129156,note_off,,,,,132,0,16,,,,,7,,,40,100
129184,note_off,,,,,64,0,9,,,,,2,,,74,100
129212,note_off,,,,,188,0,8,,,,,1,,,79,100
129216,note_on,,,,,64,0,13,,,,,6,,,79,100
129216,note_on,,,,,60,0,16,,,,,7,,,52,100
129216,note_on,,,,,32,0,9,,,,,2,,,76,79
129216,note_on,,,,,92,0,11,,,,,4,,,52,79
129216,note_on,,,,,92,0,12,,,,,5,,,40,79
129216,note_on,,,,,92,0,14,,,,,6,,,52,100
129216,note_on,,,,,64,0,10,,,,,3,,,64,79
129216,note_on,,,,,4,0,8,,,,,1,,,72,79
129280,note_off,,,,,64,0,9,,,,,2,,,76,100
129312,note_on,,,,,32,0,9,,,,,2,,,77,80
129316,note_off,,,,,100,0,12,,,,,5,,,40,100
129316,note_off,,,,,100,0,14,,,,,6,,,52,100
129316,note_off,,,,,100,0,11,,,,,4,,,52,100
129344,note_off,,,,,128,0,13,,,,,6,,,79,100
129344,note_off,,,,,128,0,10,,,,,3,,,64,100
129344,note_off,,,,,128,0,8,,,,,1,,,72,100
129348,note_off,,,,,132,0,16,,,,,7,,,52,100
129376,note_off,,,,,64,0,9,,,,,2,,,77,100
129404,note_off,,,,,380,0,15,,,,,7,,,72,100
129408,note_on,,,,,60,0,16,,,,,7,,,60,100
129408,note_on,,,,,4,0,15,,,,,7,,,70,100
129408,note_on,,,,,32,0,9,,,,,2,,,79,81
129408,note_on,,,,,64,0,10,,,,,3,,,64,81
129408,note_on,,,,,64,0,13,,,,,6,,,76,100
129408,note_on,,,,,92,0,14,,,,,6,,,60,100
129408,note_on,,,,,92,0,11,,,,,4,,,60,81
129408,note_on,,,,,92,0,12,,,,,5,,,48,81
129500,note_off,,,,,92,0,13,,,,,6,,,76,100
129504,note_on,,,,,4,0,13,,,,,6,,,74,100
129508,note_off,,,,,100,0,14,,,,,6,,,60,100
129508,note_off,,,,,100,0,12,,,,,5,,,48,100
129508,note_off,,,,,100,0,11,,,,,4,,,60,100
129536,note_off,,,,,128,0,9,,,,,2,,,79,100
129536,note_off,,,,,32,0,13,,,,,6,,,67,100
129536,note_off,,,,,128,0,10,,,,,3,,,64,100
129540,note_off,,,,,132,0,16,,,,,7,,,60,100
129596,note_off,,,,,60,0,13,,,,,6,,,74,100
129600,note_on,,,,,64,0,10,,,,,3,,,60,83
129600,note_on,,,,,92,0,11,,,,,4,,,40,83
129600,note_on,,,,,60,0,16,,,,,7,,,40,100
129600,note_on,,,,,92,0,12,,,,,5,,,40,83
129600,note_on,,,,,256,0,8,,,,,1,,,70,83
129600,note_on,,,,,4,0,13,,,,,6,,,72,100
129600,note_on,,,,,64,0,9,,,,,2,,,67,83
129600,note_on,,,,,92,0,14,,,,,6,,,40,100
129664,note_off,,,,,256,0,15,,,,,7,,,70,100
129692,note_off,,,,,92,0,13,,,,,6,,,72,100
129696,note_on,,,,,4,0,13,,,,,6,,,70,100
129700,note_off,,,,,100,0,8,,,,,1,,,70,100
129700,note_off,,,,,100,0,9,,,,,2,,,67,100
129700,note_off,,,,,100,0,14,,,,,6,,,40,100
129700,note_off,,,,,100,0,12,,,,,5,,,40,100
129700,note_off,,,,,100,0,11,,,,,4,,,40,100
129712,note_off,,,,,0,0,15,,,,,7,,,67,100
129712,note_off,,,,,48,0,15,,,,,7,,,64,100
129728,note_off,,,,,128,0,10,,,,,3,,,60,100
129732,note_off,,,,,132,0,16,,,,,7,,,40,100
129760,note_off,,,,,64,0,13,,,,,6,,,70,100
129792,note_on,,,,,92,0,9,,,,,2,,,65,84
129792,note_on,,,,,0,0,13,,,,,6,,,60,100
129792,note_on,,,,,92,0,14,,,,,6,,,41,100
129792,note_on,,,,,92,0,11,,,,,4,,,41,84
129792,note_on,,,,,64,0,10,,,,,3,,,60,84
129792,note_on,,,,,92,0,8,,,,,1,,,70,84
129792,note_on,,,,,32,0,13,,,,,6,,,70,100
129792,note_on,,,,,80,0,15,,,,,7,,,70,100
129792,note_on,,,,,0,0,15,,,,,7,,,65,100
129792,note_on,,,,,0,0,15,,,,,7,,,60,100
129792,note_on,,,,,60,0,16,,,,,7,,,41,100
129792,note_on,,,,,92,0,12,,,,,5,,,41,84
129812,note_off,,,,,20,0,8,,,,,1,,,70,100
129840,note_on,,,,,28,0,8,,,,,1,,,72,83
129860,note_off,,,,,20,0,8,,,,,1,,,72,100
129888,note_on,,,,,28,0,8,,,,,1,,,70,83
129892,note_off,,,,,100,0,14,,,,,6,,,41,100
129892,note_off,,,,,100,0,9,,,,,2,,,65,100
129892,note_off,,,,,100,0,12,,,,,5,,,41,100
129892,note_off,,,,,100,0,11,,,,,4,,,41,100
129920,note_off,,,,,128,0,10,,,,,3,,,60,100
129924,note_off,,,,,132,0,16,,,,,7,,,41,100
129980,note_off,,,,,188,0,13,,,,,6,,,70,100
129980,note_off,,,,,188,0,15,,,,,7,,,70,100
129980,note_off,,,,,92,0,8,,,,,1,,,70,100
129984,note_on,,,,,92,0,12,,,,,5,,,41,84
129984,note_on,,,,,4,0,13,,,,,6,,,69,100
129984,note_on,,,,,92,0,14,,,,,6,,,53,100
129984,note_on,,,,,64,0,10,,,,,3,,,60,84
129984,note_on,,,,,92,0,9,,,,,2,,,65,84
129984,note_on,,,,,60,0,16,,,,,7,,,53,100
129984,note_on,,,,,4,0,15,,,,,7,,,69,100
129984,note_on,,,,,92,0,11,,,,,4,,,53,84
129984,note_on,,,,,4,0,8,,,,,1,,,69,84
130048,note_off,,,,,64,0,13,,,,,6,,,60,100
130084,note_off,,,,,100,0,14,,,,,6,,,53,100
130084,note_off,,,,,100,0,9,,,,,2,,,65,100
130084,note_off,,,,,100,0,12,,,,,5,,,41,100
130084,note_off,,,,,100,0,11,,,,,4,,,53,100
130112,note_off,,,,,64,0,13,,,,,6,,,69,100
130112,note_off,,,,,128,0,8,,,,,1,,,69,100
130112,note_off,,,,,128,0,10,,,,,3,,,60,100
130116,note_off,,,,,132,0,16,,,,,7,,,53,100
130176,note_on,,,,,92,0,11,,,,,4,,,53,85
130176,note_on,,,,,92,0,12,,,,,5,,,41,85
130176,note_on,,,,,60,0,16,,,,,7,,,53,100
130176,note_on,,,,,92,0,9,,,,,2,,,69,85
130176,note_on,,,,,64,0,10,,,,,3,,,60,85
130176,note_on,,,,,92,0,14,,,,,6,,,53,100
130240,note_off,,,,,64,0,9,,,,,2,,,69,100
130272,note_on,,,,,32,0,9,,,,,2,,,72,89
130276,note_off,,,,,100,0,12,,,,,5,,,41,100
130276,note_off,,,,,100,0,14,,,,,6,,,53,100
130276,note_off,,,,,100,0,11,,,,,4,,,53,100
130304,note_off,,,,,128,0,10,,,,,3,,,60,100
130308,note_off,,,,,132,0,16,,,,,7,,,53,100
130336,note_off,,,,,64,0,9,,,,,2,,,72,100
130368,note_on,,,,,92,0,14,,,,,6,,,41,100
130368,note_off,,,,,384,0,15,,,,,7,,,69,100
130368,note_on,,,,,64,0,10,,,,,3,,,57,94
130368,note_on,,,,,92,0,12,,,,,5,,,41,94
130368,note_on,,,,,256,0,8,,,,,1,,,77,94
130368,note_on,,,,,32,0,9,,,,,2,,,77,94
130368,note_on,,,,,60,0,16,,,,,7,,,41,100
130368,note_on,,,,,92,0,11,,,,,4,,,41,94
130432,note_off,,,,,64,0,9,,,,,2,,,77,100
130464,note_on,,,,,32,0,9,,,,,2,,,72,99
130468,note_off,,,,,100,0,12,,,,,5,,,41,100
130468,note_off,,,,,100,0,8,,,,,1,,,77,100
130468,note_off,,,,,100,0,14,,,,,6,,,41,100
130468,note_off,,,,,100,0,11,,,,,4,,,41,100
130480,note_off,,,,,0,0,15,,,,,7,,,60,100
130480,note_off,,,,,112,0,15,,,,,7,,,65,100
130496,note_off,,,,,128,0,10,,,,,3,,,57,100
130500,note_off,,,,,132,0,16,,,,,7,,,41,100
130528,note_off,,,,,64,0,9,,,,,2,,,72,100
130560,note_on,,,,,92,0,12,,,,,5,,,41,105
130560,note_on,,,,,92,0,8,,,,,1,,,72,105
130560,note_on,,,,,60,0,16,,,,,7,,,41,100
130560,note_on,,,,,80,0,15,,,,,7,,,65,100
130560,note_on,,,,,0,0,15,,,,,7,,,72,100
130560,note_on,,,,,0,0,15,,,,,7,,,69,100
130560,note_on,,,,,32,0,9,,,,,2,,,69,105
130560,note_on,,,,,64,0,10,,,,,3,,,53,105
130560,note_on,,,,,92,0,14,,,,,6,,,41,100
130560,note_on,,,,,92,0,11,,,,,4,,,41,105
130560,note_on,,,,,0,0,13,,,,,6,,,65,100
130560,note_on,,,,,448,0,13,,,,,6,,,72,100
130560,note_on,,,,,0,0,13,,,,,6,,,69,100
130624,note_off,,,,,64,0,8,,,,,1,,,72,100
130656,note_on,,,,,32,0,8,,,,,1,,,70,105
130660,note_off,,,,,100,0,10,,,,,3,,,53,100
130660,note_off,,,,,100,0,9,,,,,2,,,69,100
130660,note_off,,,,,100,0,14,,,,,6,,,41,100
130660,note_off,,,,,100,0,12,,,,,5,,,41,100
130660,note_off,,,,,100,0,11,,,,,4,,,41,100
130692,note_off,,,,,132,0,16,,,,,7,,,41,100
130720,note_off,,,,,64,0,8,,,,,1,,,70,100
130752,note_on,,,,,92,0,14,,,,,6,,,53,100
130752,note_on,,,,,60,0,16,,,,,7,,,53,100
130752,note_on,,,,,92,0,9,,,,,2,,,65,105
130752,note_on,,,,,32,0,8,,,,,1,,,72,105
130752,note_on,,,,,92,0,11,,,,,4,,,53,105
130752,note_on,,,,,92,0,12,,,,,5,,,41,105
130752,note_on,,,,,92,0,10,,,,,3,,,57,105
130816,note_off,,,,,0,0,15,,,,,7,,,69,100
130816,note_off,,,,,0,0,13,,,,,6,,,69,100
130816,note_off,,,,,64,0,8,,,,,1,,,72,100
130816,note_off,,,,,0,0,13,,,,,6,,,65,100
130816,note_off,,,,,256,0,15,,,,,7,,,72,100
130816,note_off,,,,,256,0,13,,,,,6,,,72,100
130848,note_on,,,,,32,0,8,,,,,1,,,69,105
130852,note_off,,,,,100,0,11,,,,,4,,,53,100
130852,note_off,,,,,100,0,10,,,,,3,,,57,100
130852,note_off,,,,,100,0,12,,,,,5,,,41,100
130852,note_off,,,,,100,0,9,,,,,2,,,65,100
130852,note_off,,,,,100,0,14,,,,,6,,,53,100
130884,note_off,,,,,132,0,16,,,,,7,,,53,100
130912,note_off,,,,,64,0,8,,,,,1,,,69,100
130944,note_on,,,,,92,0,10,,,,,3,,,53,104
130944,note_on,,,,,92,0,9,,,,,2,,,70,104
130944,note_on,,,,,92,0,14,,,,,6,,,53,100
130944,note_on,,,,,92,0,11,,,,,4,,,53,104
130944,note_on,,,,,128,0,15,,,,,7,,,74,100
130944,note_on,,,,,128,0,13,,,,,6,,,74,100
130944,note_on,,,,,0,0,13,,,,,6,,,65,100
130944,note_on,,,,,60,0,16,,,,,7,,,53,100
130944,note_on,,,,,92,0,12,,,,,5,,,41,104
130944,note_on,,,,,32,0,8,,,,,1,,,74,104
130944,note_on,,,,,0,0,15,,,,,7,,,70,100
130944,note_on,,,,,0,0,13,,,,,6,,,70,100
131008,note_off,,,,,64,0,8,,,,,1,,,74,100
131040,note_on,,,,,32,0,8,,,,,1,,,72,104
131044,note_off,,,,,100,0,12,,,,,5,,,41,100
131044,note_off,,,,,100,0,11,,,,,4,,,53,100
131044,note_off,,,,,100,0,9,,,,,2,,,70,100
131044,note_off,,,,,100,0,10,,,,,3,,,53,100
131044,note_off,,,,,100,0,14,,,,,6,,,53,100
131076,note_off,,,,,132,0,16,,,,,7,,,53,100
131104,note_off,,,,,64,0,8,,,,,1,,,72,100
131136,note_on,,,,,60,0,16,,,,,7,,,41,100
131136,note_on,,,,,92,0,14,,,,,6,,,41,100
131136,note_on,,,,,92,0,9,,,,,2,,,65,104
131136,note_on,,,,,92,0,10,,,,,3,,,58,104
131136,note_on,,,,,32,0,8,,,,,1,,,74,104
131136,note_on,,,,,92,0,12,,,,,5,,,41,104
131136,note_on,,,,,92,0,11,,,,,4,,,41,104
131200,note_off,,,,,0,0,13,,,,,6,,,70,100
131200,note_off,,,,,256,0,13,,,,,6,,,74,100
131200,note_off,,,,,0,0,15,,,,,7,,,70,100
131200,note_off,,,,,64,0,8,,,,,1,,,74,100
131200,note_off,,,,,0,0,13,,,,,6,,,65,100
131200,note_off,,,,,256,0,15,,,,,7,,,74,100
131232,note_on,,,,,32,0,8,,,,,1,,,70,103
131236,note_off,,,,,100,0,11,,,,,4,,,41,100
131236,note_off,,,,,100,0,12,,,,,5,,,41,100
131236,note_off,,,,,100,0,9,,,,,2,,,65,100
131236,note_off,,,,,100,0,14,,,,,6,,,41,100
131236,note_off,,,,,100,0,10,,,,,3,,,58,100
131248,note_off,,,,,48,0,15,,,,,7,,,65,100
131268,note_off,,,,,132,0,16,,,,,7,,,41,100
131296,note_off,,,,,64,0,8,,,,,1,,,70,100
131328,note_on,,,,,92,0,14,,,,,6,,,41,100
131328,note_on,,,,,80,0,15,,,,,7,,,65,100
131328,note_on,,,,,0,0,15,,,,,7,,,75,100
131328,note_on,,,,,0,0,15,,,,,7,,,72,100
131328,note_on,,,,,0,0,13,,,,,6,,,65,100
131328,note_on,,,,,92,0,11,,,,,4,,,41,103
131328,note_on,,,,,0,0,13,,,,,6,,,72,100
131328,note_on,,,,,60,0,16,,,,,7,,,41,100
131328,note_on,,,,,92,0,9,,,,,2,,,72,103
131328,note_on,,,,,92,0,12,,,,,5,,,41,103
131328,note_on,,,,,128,0,13,,,,,6,,,75,100
131328,note_on,,,,,32,0,8,,,,,1,,,75,103
131328,note_on,,,,,92,0,10,,,,,3,,,53,103
131392,note_off,,,,,64,0,8,,,,,1,,,75,100
131424,note_on,,,,,32,0,8,,,,,1,,,74,102
131428,note_off,,,,,100,0,10,,,,,3,,,53,100
131428,note_off,,,,,100,0,11,,,,,4,,,41,100
131428,note_off,,,,,100,0,9,,,,,2,,,72,100
131428,note_off,,,,,100,0,12,,,,,5,,,41,100
131428,note_off,,,,,100,0,14,,,,,6,,,41,100
131460,note_off,,,,,132,0,16,,,,,7,,,41,100
131488,note_off,,,,,64,0,8,,,,,1,,,74,100
131520,note_on,,,,,92,0,14,,,,,6,,,53,100
131520,note_on,,,,,92,0,12,,,,,5,,,41,101
131520,note_on,,,,,60,0,16,,,,,7,,,53,100
131520,note_on,,,,,92,0,10,,,,,3,,,60,101
131520,note_on,,,,,92,0,11,,,,,4,,,53,101
131520,note_on,,,,,92,0,9,,,,,2,,,65,101
131520,note_on,,,,,32,0,8,,,,,1,,,75,101
131584,note_off,,,,,0,0,13,,,,,6,,,65,100
131584,note_off,,,,,256,0,13,,,,,6,,,75,100
131584,note_off,,,,,0,0,15,,,,,7,,,72,100
131584,note_off,,,,,0,0,13,,,,,6,,,72,100
131584,note_off,,,,,256,0,15,,,,,7,,,75,100
131584,note_off,,,,,64,0,8,,,,,1,,,75,100
131616,note_on,,,,,32,0,8,,,,,1,,,72,99
131620,note_off,,,,,100,0,11,,,,,4,,,53,100
131620,note_off,,,,,100,0,10,,,,,3,,,60,100
131620,note_off,,,,,100,0,9,,,,,2,,,65,100
131620,note_off,,,,,100,0,12,,,,,5,,,41,100
131620,note_off,,,,,100,0,14,,,,,6,,,53,100
131652,note_off,,,,,132,0,16,,,,,7,,,53,100
131680,note_off,,,,,64,0,8,,,,,1,,,72,100
131712,note_on,,,,,0,0,15,,,,,7,,,70,100
131712,note_on,,,,,0,0,13,,,,,6,,,70,100
131712,note_on,,,,,92,0,10,,,,,3,,,53,98
131712,note_on,,,,,0,0,13,,,,,6,,,65,100
131712,note_on,,,,,128,0,15,,,,,7,,,74,100
131712,note_on,,,,,32,0,8,,,,,1,,,74,98
131712,note_on,,,,,92,0,11,,,,,4,,,53,98
131712,note_on,,,,,92,0,9,,,,,2,,,70,98
131712,note_on,,,,,92,0,12,,,,,5,,,41,98
131712,note_on,,,,,60,0,16,,,,,7,,,53,100
131712,note_on,,,,,128,0,13,,,,,6,,,74,100
131712,note_on,,,,,92,0,14,,,,,6,,,53,100
131776,note_off,,,,,64,0,8,,,,,1,,,74,100
131808,note_on,,,,,32,0,8,,,,,1,,,72,96
131812,note_off,,,,,100,0,12,,,,,5,,,41,100
131812,note_off,,,,,100,0,11,,,,,4,,,53,100
131812,note_off,,,,,100,0,14,,,,,6,,,53,100
131812,note_off,,,,,100,0,9,,,,,2,,,70,100
131812,note_off,,,,,100,0,10,,,,,3,,,53,100
131844,note_off,,,,,132,0,16,,,,,7,,,53,100
131872,note_off,,,,,64,0,8,,,,,1,,,72,100
131904,note_on,,,,,92,0,10,,,,,3,,,58,95
131904,note_on,,,,,60,0,16,,,,,7,,,41,100
131904,note_on,,,,,92,0,14,,,,,6,,,41,100
131904,note_on,,,,,32,0,8,,,,,1,,,74,95
131904,note_on,,,,,92,0,9,,,,,2,,,65,95
131904,note_on,,,,,92,0,11,,,,,4,,,41,95
131904,note_on,,,,,92,0,12,,,,,5,,,41,95
131968,note_off,,,,,256,0,15,,,,,7,,,74,100
131968,note_off,,,,,64,0,8,,,,,1,,,74,100
131968,note_off,,,,,0,0,13,,,,,6,,,65,100
131968,note_off,,,,,0,0,15,,,,,7,,,70,100
131968,note_off,,,,,256,0,13,,,,,6,,,74,100
131968,note_off,,,,,0,0,13,,,,,6,,,70,100
132000,note_on,,,,,32,0,8,,,,,1,,,70,94
132004,note_off,,,,,100,0,12,,,,,5,,,41,100
132004,note_off,,,,,100,0,11,,,,,4,,,41,100
132004,note_off,,,,,100,0,10,,,,,3,,,58,100
132004,note_off,,,,,100,0,14,,,,,6,,,41,100
132004,note_off,,,,,100,0,9,,,,,2,,,65,100
132016,note_off,,,,,48,0,15,,,,,7,,,65,100
132036,note_off,,,,,132,0,16,,,,,7,,,41,100
132064,note_off,,,,,64,0,8,,,,,1,,,70,100
132096,note_on,,,,,92,0,14,,,,,6,,,41,100
132096,note_on,,,,,0,0,15,,,,,7,,,69,100
132096,note_on,,,,,60,0,16,,,,,7,,,41,100
132096,note_on,,,,,0,0,15,,,,,7,,,72,100
132096,note_on,,,,,92,0,9,,,,,2,,,69,85
132096,note_on,,,,,0,0,13,,,,,6,,,69,100
132096,note_on,,,,,128,0,13,,,,,6,,,72,100
132096,note_on,,,,,92,0,11,,,,,4,,,41,85
132096,note_on,,,,,92,0,10,,,,,3,,,53,85
132096,note_on,,,,,92,0,12,,,,,5,,,41,85
132096,note_on,,,,,32,0,8,,,,,1,,,72,85
132096,note_on,,,,,80,0,15,,,,,7,,,65,100
132096,note_on,,,,,0,0,13,,,,,6,,,65,100
132160,note_off,,,,,64,0,8,,,,,1,,,72,100
132192,note_on,,,,,32,0,8,,,,,1,,,70,85
132196,note_off,,,,,100,0,11,,,,,4,,,41,100
132196,note_off,,,,,100,0,9,,,,,2,,,69,100
132196,note_off,,,,,100,0,14,,,,,6,,,41,100
132196,note_off,,,,,100,0,12,,,,,5,,,41,100
132196,note_off,,,,,100,0,10,,,,,3,,,53,100
132228,note_off,,,,,132,0,16,,,,,7,,,41,100
132256,note_off,,,,,64,0,8,,,,,1,,,70,100
132288,note_on,,,,,60,0,16,,,,,7,,,53,100
132288,note_on,,,,,32,0,8,,,,,1,,,72,85
132288,note_on,,,,,92,0,9,,,,,2,,,65,85
132288,note_on,,,,,92,0,12,,,,,5,,,41,85
132288,note_on,,,,,92,0,11,,,,,4,,,53,85
132288,note_on,,,,,92,0,14,,,,,6,,,53,100
132288,note_on,,,,,92,0,10,,,,,3,,,57,85
132352,note_off,,,,,256,0,13,,,,,6,,,72,100
132352,note_off,,,,,0,0,13,,,,,6,,,69,100
132352,note_off,,,,,0,0,13,,,,,6,,,65,100
132352,note_off,,,,,0,0,15,,,,,7,,,69,100
132352,note_off,,,,,256,0,15,,,,,7,,,72,100
132352,note_off,,,,,64,0,8,,,,,1,,,72,100
132384,note_on,,,,,32,0,8,,,,,1,,,69,85
132388,note_off,,,,,100,0,10,,,,,3,,,57,100
132388,note_off,,,,,100,0,11,,,,,4,,,53,100
132388,note_off,,,,,100,0,9,,,,,2,,,65,100
132388,note_off,,,,,100,0,12,,,,,5,,,41,100
132388,note_off,,,,,100,0,14,,,,,6,,,53,100
132420,note_off,,,,,132,0,16,,,,,7,,,53,100
132448,note_off,,,,,64,0,8,,,,,1,,,69,100
132480,note_on,,,,,0,0,13,,,,,6,,,65,100
132480,note_on,,,,,0,0,15,,,,,7,,,70,100
132480,note_on,,,,,128,0,15,,,,,7,,,74,100
132480,note_on,,,,,128,0,13,,,,,6,,,74,100
132480,note_on,,,,,0,0,13,,,,,6,,,70,100
132480,note_on,,,,,60,0,16,,,,,7,,,53,100
132480,note_on,,,,,92,0,9,,,,,2,,,70,85
132480,note_on,,,,,92,0,10,,,,,3,,,53,85
132480,note_on,,,,,32,0,8,,,,,1,,,74,85
132480,note_on,,,,,92,0,12,,,,,5,,,41,85
132480,note_on,,,,,92,0,11,,,,,4,,,53,85
132480,note_on,,,,,92,0,14,,,,,6,,,53,100
132544,note_off,,,,,64,0,8,,,,,1,,,74,100
132576,note_on,,,,,32,0,8,,,,,1,,,72,85
132580,note_off,,,,,100,0,14,,,,,6,,,53,100
132580,note_off,,,,,100,0,10,,,,,3,,,53,100
132580,note_off,,,,,100,0,9,,,,,2,,,70,100
132580,note_off,,,,,100,0,11,,,,,4,,,53,100
132580,note_off,,,,,100,0,12,,,,,5,,,41,100
132612,note_off,,,,,132,0,16,,,,,7,,,53,100
132640,note_off,,,,,64,0,8,,,,,1,,,72,100
132672,note_on,,,,,92,0,9,,,,,2,,,65,85
132672,note_on,,,,,92,0,11,,,,,4,,,41,85
132672,note_on,,,,,92,0,12,,,,,5,,,41,85
132672,note_on,,,,,32,0,8,,,,,1,,,74,85
132672,note_on,,,,,92,0,14,,,,,6,,,41,100
132672,note_on,,,,,92,0,10,,,,,3,,,58,85
132672,note_on,,,,,60,0,16,,,,,7,,,41,100
132736,note_off,,,,,256,0,15,,,,,7,,,74,100
132736,note_off,,,,,0,0,15,,,,,7,,,70,100
132736,note_off,,,,,64,0,8,,,,,1,,,74,100
132736,note_off,,,,,256,0,13,,,,,6,,,74,100
132736,note_off,,,,,0,0,13,,,,,6,,,70,100
132736,note_off,,,,,0,0,13,,,,,6,,,65,100
132768,note_on,,,,,32,0,8,,,,,1,,,70,85
132772,note_off,,,,,100,0,11,,,,,4,,,41,100
132772,note_off,,,,,100,0,10,,,,,3,,,58,100
132772,note_off,,,,,100,0,9,,,,,2,,,65,100
132772,note_off,,,,,100,0,14,,,,,6,,,41,100
132772,note_off,,,,,100,0,12,,,,,5,,,41,100
132784,note_off,,,,,48,0,15,,,,,7,,,65,100
132804,note_off,,,,,132,0,16,,,,,7,,,41,100
132832,note_off,,,,,64,0,8,,,,,1,,,70,100
132864,note_on,,,,,92,0,11,,,,,4,,,41,85
132864,note_on,,,,,92,0,10,,,,,3,,,53,85
132864,note_on,,,,,32,0,8,,,,,1,,,75,85
132864,note_on,,,,,128,0,13,,,,,6,,,75,100
132864,note_on,,,,,92,0,9,,,,,2,,,72,85
132864,note_on,,,,,0,0,13,,,,,6,,,72,100
132864,note_on,,,,,60,0,16,,,,,7,,,41,100
132864,note_on,,,,,0,0,13,,,,,6,,,65,100
132864,note_on,,,,,0,0,15,,,,,7,,,72,100
132864,note_on,,,,,0,0,15,,,,,7,,,75,100
132864,note_on,,,,,80,0,15,,,,,7,,,65,100
132864,note_on,,,,,92,0,12,,,,,5,,,41,85
132864,note_on,,,,,92,0,14,,,,,6,,,41,100
132928,note_off,,,,,64,0,8,,,,,1,,,75,100
132960,note_on,,,,,32,0,8,,,,,1,,,74,85
132964,note_off,,,,,100,0,11,,,,,4,,,41,100
132964,note_off,,,,,100,0,10,,,,,3,,,53,100
132964,note_off,,,,,100,0,9,,,,,2,,,72,100
132964,note_off,,,,,100,0,12,,,,,5,,,41,100
132964,note_off,,,,,100,0,14,,,,,6,,,41,100
132996,note_off,,,,,132,0,16,,,,,7,,,41,100
133024,note_off,,,,,64,0,8,,,,,1,,,74,100
133056,note_on,,,,,60,0,16,,,,,7,,,53,100
133056,note_on,,,,,32,0,8,,,,,1,,,75,85
133056,note_on,,,,,92,0,12,,,,,5,,,41,85
133056,note_on,,,,,92,0,11,,,,,4,,,53,85
133056,note_on,,,,,92,0,14,,,,,6,,,53,100
133056,note_on,,,,,92,0,9,,,,,2,,,65,85
133056,note_on,,,,,92,0,10,,,,,3,,,60,85
133120,note_off,,,,,64,0,8,,,,,1,,,75,100
133120,note_off,,,,,0,0,13,,,,,6,,,65,100
133120,note_off,,,,,0,0,15,,,,,7,,,72,100
133120,note_off,,,,,256,0,15,,,,,7,,,75,100
133120,note_off,,,,,0,0,13,,,,,6,,,72,100
133120,note_off,,,,,256,0,13,,,,,6,,,75,100
133152,note_on,,,,,32,0,8,,,,,1,,,72,85
133156,note_off,,,,,100,0,12,,,,,5,,,41,100
133156,note_off,,,,,100,0,9,,,,,2,,,65,100
133156,note_off,,,,,100,0,14,,,,,6,,,53,100
133156,note_off,,,,,100,0,10,,,,,3,,,60,100
133156,note_off,,,,,100,0,11,,,,,4,,,53,100
133188,note_off,,,,,132,0,16,,,,,7,,,53,100
133216,note_off,,,,,64,0,8,,,,,1,,,72,100
133248,note_on,,,,,128,0,13,,,,,6,,,74,100
133248,note_on,,,,,92,0,14,,,,,6,,,53,100
133248,note_on,,,,,92,0,9,,,,,2,,,70,85
133248,note_on,,,,,0,0,13,,,,,6,,,70,100
133248,note_on,,,,,0,0,13,,,,,6,,,65,100
133248,note_on,,,,,0,0,15,,,,,7,,,70,100
133248,note_on,,,,,128,0,15,,,,,7,,,74,100
133248,note_on,,,,,60,0,16,,,,,7,,,53,100
133248,note_on,,,,,32,0,8,,,,,1,,,74,85
133248,note_on,,,,,92,0,10,,,,,3,,,53,85
133248,note_on,,,,,92,0,12,,,,,5,,,41,85
133248,note_on,,,,,92,0,11,,,,,4,,,53,85
133312,note_off,,,,,64,0,8,,,,,1,,,74,100
133344,note_on,,,,,32,0,8,,,,,1,,,72,85
133348,note_off,,,,,100,0,11,,,,,4,,,53,100
133348,note_off,,,,,100,0,12,,,,,5,,,41,100
133348,note_off,,,,,100,0,14,,,,,6,,,53,100
133348,note_off,,,,,100,0,10,,,,,3,,,53,100
133348,note_off,,,,,100,0,9,,,,,2,,,70,100
133380,note_off,,,,,132,0,16,,,,,7,,,53,100
133408,note_off,,,,,64,0,8,,,,,1,,,72,100
133440,note_on,,,,,92,0,12,,,,,5,,,41,85
133440,note_on,,,,,92,0,11,,,,,4,,,41,85
133440,note_on,,,,,92,0,14,,,,,6,,,41,100
133440,note_on,,,,,92,0,10,,,,,3,,,58,85
133440,note_on,,,,,32,0,8,,,,,1,,,74,85
133440,note_on,,,,,92,0,9,,,,,2,,,65,85
133440,note_on,,,,,60,0,16,,,,,7,,,41,100
133504,note_off,,,,,0,0,13,,,,,6,,,65,100
133504,note_off,,,,,256,0,15,,,,,7,,,74,100
133504,note_off,,,,,0,0,13,,,,,6,,,70,100
133504,note_off,,,,,64,0,8,,,,,1,,,74,100
133504,note_off,,,,,0,0,15,,,,,7,,,70,100
133504,note_off,,,,,256,0,13,,,,,6,,,74,100
133536,note_on,,,,,32,0,8,,,,,1,,,70,85
133540,note_off,,,,,100,0,12,,,,,5,,,41,100
133540,note_off,,,,,100,0,14,,,,,6,,,41,100
133540,note_off,,,,,100,0,10,,,,,3,,,58,100
133540,note_off,,,,,100,0,9,,,,,2,,,65,100
133540,note_off,,,,,100,0,11,,,,,4,,,41,100
133552,note_off,,,,,48,0,15,,,,,7,,,65,100
133572,note_off,,,,,132,0,16,,,,,7,,,41,100
133600,note_off,,,,,64,0,8,,,,,1,,,70,100
133632,note_on,,,,,0,0,13,,,,,6,,,69,100
133632,note_on,,,,,92,0,14,,,,,6,,,53,100
133632,note_on,,,,,0,0,13,,,,,6,,,65,100
133632,note_on,,,,,128,0,13,,,,,6,,,72,100
133632,note_on,,,,,92,0,9,,,,,2,,,69,95
133632,note_on,,,,,32,0,8,,,,,1,,,72,95
133632,note_on,,,,,0,0,15,,,,,7,,,65,100
133632,note_on,,,,,0,0,15,,,,,7,,,69,100
133632,note_on,,,,,92,0,12,,,,,5,,,41,95
133632,note_on,,,,,80,0,15,,,,,7,,,72,100
133632,note_on,,,,,92,0,11,,,,,4,,,53,95
133632,set_tempo,,,,,13056,1,0,,674157,,,,,,,
133632,note_on,,,,,60,0,16,,,,,7,,,53,100
133632,note_on,,,,,92,0,10,,,,,3,,,53,95
133696,note_off,,,,,64,0,9,,,,,2,,,69,100
133708,set_tempo,,,,,76,1,0,,560747,,,,,,,
133728,note_on,,,,,32,0,9,,,,,2,,,65,95
133732,note_off,,,,,100,0,12,,,,,5,,,41,100
133732,note_off,,,,,100,0,14,,,,,6,,,53,100
133732,note_off,,,,,100,0,11,,,,,4,,,53,100
133732,note_off,,,,,100,0,8,,,,,1,,,72,100
133760,note_off,,,,,128,0,15,,,,,7,,,72,100
133760,note_off,,,,,128,0,13,,,,,6,,,72,100
133764,note_off,,,,,132,0,16,,,,,7,,,53,100
133784,set_tempo,,,,,76,1,0,,566037,,,,,,,
133792,note_off,,,,,64,0,9,,,,,2,,,65,100
133824,note_on,,,,,92,0,14,,,,,6,,,51,100
133824,note_on,,,,,64,0,15,,,,,7,,,77,100
133824,note_on,,,,,32,0,9,,,,,2,,,69,96
133824,note_on,,,,,92,0,12,,,,,5,,,39,96
133824,note_on,,,,,92,0,11,,,,,4,,,51,96
133824,note_on,,,,,92,0,8,,,,,1,,,69,96
133824,note_on,,,,,60,0,16,,,,,7,,,51,100
133824,note_on,,,,,64,0,13,,,,,6,,,77,100
133860,set_tempo,,,,,76,1,0,,571428,,,,,,,
133888,note_off,,,,,64,0,9,,,,,2,,,69,100
133888,note_off,,,,,64,0,15,,,,,7,,,65,100
133888,note_off,,,,,0,0,15,,,,,7,,,69,100
133888,note_off,,,,,256,0,10,,,,,3,,,53,100
133888,note_off,,,,,64,0,13,,,,,6,,,65,100
133888,note_off,,,,,0,0,13,,,,,6,,,69,100
133920,note_on,,,,,32,0,9,,,,,2,,,72,96
133924,note_off,,,,,100,0,8,,,,,1,,,69,100
133924,note_off,,,,,100,0,14,,,,,6,,,51,100
133924,note_off,,,,,100,0,12,,,,,5,,,39,100
133924,note_off,,,,,100,0,11,,,,,4,,,51,100
133936,set_tempo,,,,,76,1,0,,576923,,,,,,,
133956,note_off,,,,,132,0,16,,,,,7,,,51,100
133984,note_off,,,,,64,0,9,,,,,2,,,72,100
134016,set_tempo,,,,,80,1,0,,582524,,,,,,,
134016,note_on,,,,,128,0,13,,,,,6,,,65,100
134016,note_on,,,,,0,0,13,,,,,6,,,70,100
134016,note_on,,,,,92,0,8,,,,,1,,,70,97
134016,note_on,,,,,92,0,14,,,,,6,,,50,100
134016,note_on,,,,,92,0,11,,,,,4,,,50,97
134016,note_on,,,,,60,0,16,,,,,7,,,50,100
134016,note_on,,,,,92,0,12,,,,,5,,,38,97
134016,note_on,,,,,128,0,15,,,,,7,,,65,100
134016,note_on,,,,,0,0,15,,,,,7,,,70,100
134016,note_on,,,,,32,0,9,,,,,2,,,74,97
134080,note_off,,,,,64,0,15,,,,,7,,,77,100
134080,note_off,,,,,64,0,13,,,,,6,,,77,100
134080,note_off,,,,,64,0,9,,,,,2,,,74,100
134092,set_tempo,,,,,76,1,0,,588235,,,,,,,
134112,note_on,,,,,32,0,9,,,,,2,,,70,98
134116,note_off,,,,,100,0,12,,,,,5,,,38,100
134116,note_off,,,,,100,0,11,,,,,4,,,50,100
134116,note_off,,,,,100,0,14,,,,,6,,,50,100
134116,note_off,,,,,100,0,8,,,,,1,,,70,100
134148,note_off,,,,,132,0,16,,,,,7,,,50,100
134168,set_tempo,,,,,76,1,0,,594059,,,,,,,
134176,note_off,,,,,64,0,9,,,,,2,,,70,100
134208,note_on,,,,,92,0,8,,,,,1,,,62,98
134208,note_on,,,,,92,0,14,,,,,6,,,46,100
134208,note_on,,,,,60,0,16,,,,,7,,,46,100
134208,note_on,,,,,92,0,11,,,,,4,,,46,98
134208,note_on,,,,,92,0,12,,,,,5,,,34,98
134208,note_on,,,,,320,0,10,,,,,3,,,58,98
134208,note_on,,,,,128,0,13,,,,,6,,,74,100
134208,note_on,,,,,128,0,15,,,,,7,,,74,100
134208,note_on,,,,,32,0,9,,,,,2,,,65,98
134244,set_tempo,,,,,76,1,0,,600000,,,,,,,
134272,note_off,,,,,64,0,9,,,,,2,,,65,100
134272,note_off,,,,,64,0,15,,,,,7,,,65,100
134272,note_off,,,,,0,0,15,,,,,7,,,70,100
134272,note_off,,,,,64,0,13,,,,,6,,,65,100
134272,note_off,,,,,0,0,13,,,,,6,,,70,100
134304,note_on,,,,,32,0,9,,,,,2,,,70,99
134308,note_off,,,,,100,0,12,,,,,5,,,34,100
134308,note_off,,,,,100,0,10,,,,,3,,,58,100
134308,note_off,,,,,100,0,8,,,,,1,,,62,100
134308,note_off,,,,,100,0,14,,,,,6,,,46,100
134308,note_off,,,,,100,0,11,,,,,4,,,46,100
134320,set_tempo,,,,,76,1,0,,606060,,,,,,,
134336,note_off,,,,,64,0,15,,,,,7,,,74,100
134336,note_off,,,,,64,0,13,,,,,6,,,74,100
134340,note_off,,,,,132,0,16,,,,,7,,,46,100
134368,note_off,,,,,64,0,9,,,,,2,,,70,100
134400,note_on,,,,,64,0,15,,,,,7,,,63,100
134400,note_on,,,,,0,0,15,,,,,7,,,70,100
134400,note_on,,,,,0,0,15,,,,,7,,,72,100
134400,note_on,,,,,92,0,11,,,,,4,,,48,99
134400,note_on,,,,,0,0,13,,,,,6,,,70,100
134400,note_on,,,,,92,0,10,,,,,3,,,58,99
134400,note_on,,,,,32,0,9,,,,,2,,,67,99
134400,note_on,,,,,92,0,14,,,,,6,,,48,100
134400,note_on,,,,,60,0,16,,,,,7,,,48,100
134400,note_on,,,,,92,0,12,,,,,5,,,36,99
134400,set_tempo,,,,,80,1,0,,612244,,,,,,,
134400,note_on,,,,,0,0,13,,,,,6,,,72,100
134400,note_on,,,,,92,0,8,,,,,1,,,63,99
134400,note_on,,,,,64,0,13,,,,,6,,,63,100
134436,set_tempo,,,,,36,1,0,,618556,,,,,,,
134464,note_off,,,,,64,0,9,,,,,2,,,67,100
134476,set_tempo,,,,,40,1,0,,625000,,,,,,,
134496,note_on,,,,,32,0,9,,,,,2,,,63,100
134500,note_off,,,,,100,0,8,,,,,1,,,63,100
134512,set_tempo,,,,,36,1,0,,631578,,,,,,,
134552,set_tempo,,,,,40,1,0,,638297,,,,,,,
134560,note_off,,,,,64,0,9,,,,,2,,,63,100
134592,set_tempo,,,,,40,1,0,,645161,,,,,,,
134592,note_on,,,,,32,0,9,,,,,2,,,60,100
134592,note_on,,,,,92,0,8,,,,,1,,,70,100
134628,set_tempo,,,,,36,1,0,,652173,,,,,,,
134656,note_off,,,,,256,0,11,,,,,4,,,48,100
134656,note_off,,,,,64,0,9,,,,,2,,,60,100
134656,note_off,,,,,256,0,10,,,,,3,,,58,100
134656,note_off,,,,,0,0,13,,,,,6,,,70,100
134656,note_off,,,,,0,0,13,,,,,6,,,72,100
134656,note_off,,,,,256,0,16,,,,,7,,,48,100
134656,note_off,,,,,256,0,12,,,,,5,,,36,100
134656,note_off,,,,,0,0,15,,,,,7,,,70,100
134656,note_off,,,,,256,0,15,,,,,7,,,63,100
134656,note_off,,,,,0,0,15,,,,,7,,,72,100
134656,note_off,,,,,256,0,13,,,,,6,,,63,100
134656,note_off,,,,,256,0,14,,,,,6,,,48,100
134668,set_tempo,,,,,40,1,0,,659340,,,,,,,
134688,note_on,,,,,32,0,9,,,,,2,,,63,100
134692,note_off,,,,,100,0,8,,,,,1,,,70,100
134704,set_tempo,,,,,36,1,0,,666666,,,,,,,
134744,set_tempo,,,,,40,1,0,,674157,,,,,,,
134752,note_off,,,,,64,0,9,,,,,2,,,63,100
134784,note_on,,,,,0,0,13,,,,,6,,,69,100
134784,note_on,,,,,0,0,13,,,,,6,,,60,100
134784,set_tempo,,,,,40,1,0,,681818,,,,,,,
134784,note_on,,,,,128,0,13,,,,,6,,,72,100
134784,note_on,,,,,128,0,11,,,,,4,,,53,100
134784,note_on,,,,,92,0,8,,,,,1,,,65,100
134784,note_on,,,,,128,0,10,,,,,3,,,57,100
134784,note_on,,,,,128,0,14,,,,,6,,,53,100
134784,note_on,,,,,128,0,16,,,,,7,,,53,100
134784,note_on,,,,,0,0,15,,,,,7,,,60,100
134784,note_on,,,,,0,0,15,,,,,7,,,69,100
134784,note_on,,,,,128,0,12,,,,,5,,,41,100
134784,note_on,,,,,128,0,15,,,,,7,,,72,100
134784,note_on,,,,,32,0,9,,,,,2,,,65,100
134800,set_tempo,,,,,16,1,0,,689655,,,,,,,
134820,set_tempo,,,,,20,1,0,,697674,,,,,,,
134840,set_tempo,,,,,20,1,0,,705882,,,,,,,
134848,note_off,,,,,64,0,9,,,,,2,,,65,100
134860,set_tempo,,,,,20,1,0,,714285,,,,,,,
134880,set_tempo,,,,,20,1,0,,722891,,,,,,,
134880,note_on,,,,,32,0,9,,,,,2,,,60,100
134884,note_off,,,,,100,0,8,,,,,1,,,65,100
134884,note_off,,,,,100,0,10,,,,,3,,,57,100
134896,set_tempo,,,,,16,1,0,,731707,,,,,,,
134916,set_tempo,,,,,20,1,0,,740740,,,,,,,
134936,set_tempo,,,,,20,1,0,,750000,,,,,,,
134944,note_off,,,,,64,0,9,,,,,2,,,60,100
134956,set_tempo,,,,,20,1,0,,759493,,,,,,,
134976,note_on,,,,,32,0,9,,,,,2,,,57,100
134976,note_on,,,,,92,0,8,,,,,1,,,69,100
134976,note_on,,,,,92,0,10,,,,,3,,,53,100
134976,set_tempo,,,,,20,1,0,,769230,,,,,,,
134984,set_tempo,,,,,8,1,0,,779220,,,,,,,
134996,set_tempo,,,,,12,1,0,,789473,,,,,,,
135008,set_tempo,,,,,12,1,0,,800000,,,,,,,
135016,set_tempo,,,,,8,1,0,,810810,,,,,,,
135028,set_tempo,,,,,12,1,0,,821917,,,,,,,
135040,note_off,,,,,0,0,13,,,,,6,,,60,100
135040,note_off,,,,,0,0,13,,,,,6,,,69,100
135040,note_off,,,,,256,0,13,,,,,6,,,72,100
135040,note_off,,,,,256,0,11,,,,,4,,,53,100
135040,note_off,,,,,64,0,9,,,,,2,,,57,100
135040,note_off,,,,,256,0,15,,,,,7,,,72,100
135040,note_off,,,,,0,0,15,,,,,7,,,69,100
135040,note_off,,,,,0,0,15,,,,,7,,,60,100
135040,note_off,,,,,256,0,16,,,,,7,,,53,100
135040,note_off,,,,,256,0,14,,,,,6,,,53,100
135040,set_tempo,,,,,12,1,0,,833333,,,,,,,
135040,note_off,,,,,256,0,12,,,,,5,,,41,100
135048,set_tempo,,,,,8,1,0,,845070,,,,,,,
135060,set_tempo,,,,,12,1,0,,857142,,,,,,,
135072,note_on,,,,,32,0,9,,,,,2,,,65,100
135072,set_tempo,,,,,12,1,0,,869565,,,,,,,
135076,note_off,,,,,100,0,8,,,,,1,,,69,100
135076,note_off,,,,,100,0,10,,,,,3,,,53,100
135080,set_tempo,,,,,8,1,0,,1500000,,,,,,,
135136,note_off,,,,,64,0,9,,,,,2,,,65,100
135168,note_on,,,,,92,0,8,,,,,1,,,70,100
135168,end_of_track,,,,,0,1,0,,,,,,,,,
135168,set_tempo,,,,,88,1,0,,1000000,,,,,,,
135168,note_on,,,,,92,0,10,,,,,3,,,53,100
135168,note_on,,,,,32,0,9,,,,,2,,,62,100
135168,note_on,,,,,0,0,13,,,,,6,,,70,100
135168,note_on,,,,,128,0,11,,,,,4,,,46,100
135168,note_on,,,,,128,0,12,,,,,5,,,34,100
135168,note_on,,,,,0,0,15,,,,,7,,,70,100
135168,note_on,,,,,128,0,15,,,,,7,,,62,100
135168,note_on,,,,,128,0,14,,,,,6,,,46,100
135168,note_on,,,,,128,0,13,,,,,6,,,62,100
135168,note_on,,,,,0,0,13,,,,,6,,,65,100
135168,note_on,,,,,128,0,16,,,,,7,,,46,100
135168,note_on,,,,,0,0,15,,,,,7,,,65,100
136196,note_off,,,,,0,0,13,,,,,6,,,70,100
136196,end_of_track,,,,,0,1,12,,,,,,,,,
136196,note_off,,,,,0,0,13,,,,,6,,,65,100
136196,note_off,,,,,1028,0,13,,,,,6,,,62,100
136196,note_off,,,,,1028,0,14,,,,,6,,,46,100
136196,end_of_track,,,,,0,1,14,,,,,,,,,
136196,note_off,,,,,1028,0,16,,,,,7,,,46,100
136196,end_of_track,,,,,0,1,13,,,,,,,,,
136196,note_off,,,,,1028,0,15,,,,,7,,,62,100
136196,note_off,,,,,0,0,15,,,,,7,,,65,100
136196,note_off,,,,,0,0,15,,,,,7,,,70,100
136196,end_of_track,,,,,0,1,15,,,,,,,,,
136196,note_off,,,,,1028,0,9,,,,,2,,,62,100
136196,end_of_track,,,,,0,1,9,,,,,,,,,
136196,end_of_track,,,,,0,1,10,,,,,,,,,
136196,note_off,,,,,1028,0,10,,,,,3,,,53,100
136196,note_off,,,,,1028,0,8,,,,,1,,,70,100
136196,note_off,,,,,1028,0,11,,,,,4,,,46,100
136196,end_of_track,,,,,0,1,11,,,,,,,,,
136196,note_off,,,,,1028,0,12,,,,,5,,,34,100
136196,end_of_track,,,,,0,1,16,,,,,,,,,
137472,program_change,,,,,1276,0,8,,,,,1,48,,,
137472,end_of_track,,,,,0,1,8,,,,,,,,,
