tick,type,numerator,denominator,clocks_per_click,notated_32nd_notes_per_beat,time,meta,track,data,tempo,control,value,channel,program,key,note,velocity
0,time_signature,3,4,96,8,0,1,0,,,,,,,,,
0,track_name,,,,,0,1,5,,,,,,,,,
0,end_of_track,,,,,0,1,4,,,,,,,,,
0,key_signature,,,,,0,1,4,,,,,,,Em,,
0,control_change,,,,,0,0,4,,,91,107,0,,,,
0,control_change,,,,,0,0,4,,,7,100,0,,,,
0,program_change,,,,,0,0,4,,,,,0,40,,,
0,control_change,,,,,0,0,4,,,0,0,0,,,,
0,track_name,,,,,0,1,4,,,,,,,,,
0,end_of_track,,,,,0,1,3,,,,,,,,,
0,key_signature,,,,,0,1,3,,,,,,,Em,,
0,program_change,,,,,0,0,3,,,,,0,40,,,
0,control_change,,,,,0,0,3,,,91,107,0,,,,
0,control_change,,,,,0,0,3,,,7,100,0,,,,
0,control_change,,,,,0,0,3,,,0,0,0,,,,
0,track_name,,,,,0,1,3,,,,,,,,,
0,end_of_track,,,,,0,1,2,,,,,,,,,
0,track_name,,,,,0,1,2,,,,,,,,,
0,end_of_track,,,,,0,1,1,,,,,,,,,
0,track_name,,,,,0,1,1,,,,,,,,,
0,key_signature,,,,,0,1,15,,,,,,,Em,,
0,control_change,,,,,0,0,15,,,91,105,7,,,,
0,control_change,,,,,0,0,15,,,7,45,7,,,,
0,program_change,,,,,0,0,15,,,,,7,19,,,
0,control_change,,,,,0,0,15,,,0,0,7,,,,
0,track_name,,,,,0,1,9,,,,,,,,,
0,control_change,,,,,0,0,9,,,0,0,2,,,,
0,program_change,,,,,0,0,9,,,,,2,48,,,
0,control_change,,,,,0,0,5,,,0,0,0,,,,
0,program_change,,,,,0,0,5,,,,,0,40,,,
0,control_change,,,,,0,0,5,,,7,100,0,,,,
0,control_change,,,,,0,0,5,,,91,107,0,,,,
0,key_signature,,,,,0,1,11,,,,,,,Em,,
0,control_change,,,,,0,0,11,,,91,107,4,,,,
0,key_signature,,,,,0,1,16,,,,,,,Em,,
0,control_change,,,,,0,0,16,,,91,105,7,,,,
0,control_change,,,,,0,0,16,,,7,45,7,,,,
0,program_change,,,,,0,0,16,,,,,7,19,,,
0,control_change,,,,,0,0,16,,,0,0,7,,,,
0,track_name,,,,,0,1,16,,,,,,,,,
0,control_change,,,,,0,0,11,,,10,79,4,,,,
0,control_change,,,,,0,0,11,,,7,82,4,,,,
0,program_change,,,,,0,0,11,,,,,4,48,,,
0,control_change,,,,,0,0,11,,,0,0,4,,,,
0,track_name,,,,,0,1,11,,,,,,,,,
0,control_change,,,,,0,0,9,,,7,96,2,,,,
0,key_signature,,,,,0,1,7,,,,,,,Em,,
0,control_change,,,,,0,0,7,,,7,100,0,,,,
0,program_change,,,,,0,0,7,,,,,0,40,,,
0,control_change,,,,,0,0,7,,,0,0,0,,,,
0,track_name,,,,,0,1,7,,,,,,,,,
0,end_of_track,,,,,0,1,6,,,,,,,,,
0,key_signature,,,,,0,1,6,,,,,,,Em,,
0,control_change,,,,,0,0,6,,,91,107,0,,,,
0,control_change,,,,,0,0,6,,,7,100,0,,,,
0,program_change,,,,,0,0,6,,,,,0,40,,,
0,control_change,,,,,0,0,6,,,0,0,0,,,,
0,track_name,,,,,0,1,6,,,,,,,,,
0,end_of_track,,,,,0,1,5,,,,,,,,,
0,key_signature,,,,,0,1,5,,,,,,,Em,,
0,control_change,,,,,0,0,7,,,91,107,0,,,,
0,control_change,,,,,0,0,9,,,10,36,2,,,,
0,track_name,,,,,0,1,15,,,,,,,,,
0,key_signature,,,,,0,1,9,,,,,,,Em,,
0,track_name,,,,,0,1,14,,,,,,,,,
0,control_change,,,,,0,0,14,,,0,0,6,,,,
0,program_change,,,,,0,0,14,,,,,6,6,,,
0,control_change,,,,,0,0,8,,,7,100,1,,,,
0,control_change,,,,,0,0,14,,,10,77,6,,,,
0,control_change,,,,,0,0,14,,,91,107,6,,,,
0,key_signature,,,,,0,1,14,,,,,,,Em,,
0,control_change,,,,,0,0,9,,,91,108,2,,,,
0,set_tempo,,,,,0,1,0,,476190,,,,,,,
0,key_signature,,,,,0,1,10,,,,,,,Em,,
0,control_change,,,,,0,0,10,,,91,108,3,,,,
0,control_change,,,,,0,0,10,,,7,92,3,,,,
0,program_change,,,,,0,0,10,,,,,3,48,,,
0,control_change,,,,,0,0,10,,,0,0,3,,,,
0,track_name,,,,,0,1,10,,,,,,,,,
0,track_name,,,,,0,1,8,,,,,,,,,
0,control_change,,,,,0,0,8,,,0,0,1,,,,
0,note_on,,,,,0,0,8,,,,,1,,,76,100
0,key_signature,,,,,0,1,8,,,,,,,Em,,
0,control_change,,,,,0,0,8,,,91,107,1,,,,
0,control_change,,,,,0,0,8,,,10,49,1,,,,
0,track_name,,,,,0,1,12,,,,,,,,,
0,control_change,,,,,0,0,12,,,0,0,5,,,,
0,control_change,,,,,0,0,14,,,7,45,6,,,,
0,control_change,,,,,0,0,13,,,0,0,6,,,,
0,note_on,,,,,0,0,9,,,,,2,,,71,100
0,sequencer_specific,,,,,0,1,0,"(0, 0, 65)",,,,,,,,
0,key_signature,,,,,0,1,12,,,,,,,Em,,
0,control_change,,,,,0,0,12,,,91,108,5,,,,
0,control_change,,,,,0,0,12,,,10,90,5,,,,
0,control_change,,,,,0,0,12,,,7,65,5,,,,
0,track_name,,,,,0,1,13,,,,,,,,,
0,sequencer_specific,,,,,0,1,0,"(0, 0, 119, 14, 1)",,,,,,,,
0,program_change,,,,,0,0,12,,,,,5,48,,,
0,program_change,,,,,0,0,8,,,,,1,48,,,
0,program_change,,,,,0,0,13,,,,,6,6,,,
0,control_change,,,,,0,0,13,,,7,45,6,,,,
0,key_signature,,,,,0,1,13,,,,,,,Em,,
0,control_change,,,,,0,0,13,,,91,107,6,,,,
0,control_change,,,,,0,0,13,,,10,77,6,,,,
100,note_off,,,,,100,0,8,,,,,1,,,76,100
192,note_on,,,,,192,0,11,,,,,4,,,52,100
192,note_on,,,,,192,0,12,,,,,5,,,40,100
192,note_on,,,,,0,0,15,,,,,7,,,71,100
192,note_on,,,,,192,0,15,,,,,7,,,67,100
192,note_on,,,,,192,0,14,,,,,6,,,52,100
192,note_on,,,,,92,0,8,,,,,1,,,71,100
192,note_on,,,,,0,0,13,,,,,6,,,71,100
192,note_on,,,,,192,0,10,,,,,3,,,67,100
192,note_on,,,,,192,0,16,,,,,7,,,52,100
192,note_on,,,,,192,0,13,,,,,6,,,67,100
256,note_off,,,,,64,0,10,,,,,3,,,67,100
256,note_off,,,,,64,0,12,,,,,5,,,40,100
256,note_off,,,,,64,0,11,,,,,4,,,52,100
256,note_off,,,,,64,0,16,,,,,7,,,52,100
256,note_off,,,,,256,0,9,,,,,2,,,71,100
256,note_off,,,,,64,0,14,,,,,6,,,52,100
284,note_off,,,,,92,0,15,,,,,7,,,67,100
284,note_off,,,,,92,0,13,,,,,6,,,67,100
288,note_on,,,,,32,0,16,,,,,7,,,54,100
288,note_on,,,,,32,0,14,,,,,6,,,54,100
288,note_on,,,,,4,0,15,,,,,7,,,69,100
288,note_on,,,,,32,0,10,,,,,3,,,69,100
288,note_on,,,,,4,0,13,,,,,6,,,69,100
288,note_on,,,,,32,0,12,,,,,5,,,42,100
288,note_on,,,,,32,0,11,,,,,4,,,54,100
292,note_off,,,,,4,0,15,,,,,7,,,71,100
292,note_off,,,,,4,0,13,,,,,6,,,71,100
352,note_off,,,,,64,0,10,,,,,3,,,69,100
352,note_off,,,,,64,0,14,,,,,6,,,54,100
352,note_off,,,,,64,0,12,,,,,5,,,42,100
352,note_off,,,,,60,0,15,,,,,7,,,69,100
352,note_off,,,,,64,0,11,,,,,4,,,54,100
352,note_off,,,,,64,0,16,,,,,7,,,54,100
352,note_off,,,,,60,0,13,,,,,6,,,69,100
384,note_on,,,,,32,0,12,,,,,5,,,43,100
384,note_on,,,,,32,0,11,,,,,4,,,55,100
384,note_on,,,,,0,0,13,,,,,6,,,71,100
384,note_on,,,,,0,0,15,,,,,7,,,71,100
384,note_on,,,,,32,0,15,,,,,7,,,76,100
384,note_on,,,,,32,0,13,,,,,6,,,76,100
384,note_on,,,,,32,0,10,,,,,3,,,71,100
384,note_on,,,,,32,0,14,,,,,6,,,55,100
384,note_on,,,,,32,0,16,,,,,7,,,55,100
448,note_off,,,,,256,0,8,,,,,1,,,71,100
484,note_off,,,,,100,0,13,,,,,6,,,76,100
484,note_off,,,,,100,0,11,,,,,4,,,55,100
484,note_off,,,,,0,0,13,,,,,6,,,71,100
484,note_off,,,,,100,0,14,,,,,6,,,55,100
484,note_off,,,,,100,0,16,,,,,7,,,55,100
484,note_off,,,,,100,0,15,,,,,7,,,76,100
484,note_off,,,,,0,0,15,,,,,7,,,71,100
484,note_off,,,,,100,0,10,,,,,3,,,71,100
484,note_off,,,,,100,0,12,,,,,5,,,43,100
576,note_on,,,,,128,0,8,,,,,1,,,71,100
576,note_on,,,,,0,0,15,,,,,7,,,71,100
576,note_on,,,,,92,0,15,,,,,7,,,67,100
576,note_on,,,,,92,0,11,,,,,4,,,52,100
576,note_on,,,,,92,0,13,,,,,6,,,67,100
576,note_on,,,,,92,0,12,,,,,5,,,40,100
576,note_on,,,,,0,0,13,,,,,6,,,71,100
576,note_on,,,,,92,0,10,,,,,3,,,67,100
576,note_on,,,,,92,0,14,,,,,6,,,52,100
576,note_on,,,,,320,0,9,,,,,2,,,71,100
576,note_on,,,,,92,0,16,,,,,7,,,52,100
676,note_off,,,,,100,0,12,,,,,5,,,40,100
676,note_off,,,,,100,0,13,,,,,6,,,67,100
676,note_off,,,,,0,0,13,,,,,6,,,71,100
676,note_off,,,,,100,0,15,,,,,7,,,67,100
676,note_off,,,,,100,0,9,,,,,2,,,71,100
676,note_off,,,,,100,0,16,,,,,7,,,52,100
676,note_off,,,,,100,0,8,,,,,1,,,71,100
676,note_off,,,,,100,0,10,,,,,3,,,67,100
676,note_off,,,,,100,0,14,,,,,6,,,52,100
676,note_off,,,,,0,0,15,,,,,7,,,71,100
676,note_off,,,,,100,0,11,,,,,4,,,52,100
768,note_on,,,,,92,0,8,,,,,1,,,72,100
768,note_on,,,,,92,0,9,,,,,2,,,69,100
868,note_off,,,,,100,0,8,,,,,1,,,72,100
868,note_off,,,,,100,0,9,,,,,2,,,69,100
960,note_on,,,,,92,0,9,,,,,2,,,67,100
960,note_on,,,,,92,0,8,,,,,1,,,71,100
1060,note_off,,,,,100,0,8,,,,,1,,,71,100
1060,note_off,,,,,100,0,9,,,,,2,,,67,100
1152,set_tempo,,,,,1152,1,0,,476190,,,,,,,
1152,note_on,,,,,92,0,9,,,,,2,,,71,100
1152,note_on,,,,,92,0,8,,,,,1,,,76,100
1252,note_off,,,,,100,0,8,,,,,1,,,76,100
1344,note_on,,,,,0,0,15,,,,,7,,,71,100
1344,note_on,,,,,0,0,13,,,,,6,,,71,100
1344,note_on,,,,,668,0,14,,,,,6,,,52,100
1344,note_on,,,,,92,0,8,,,,,1,,,71,100
1344,note_on,,,,,668,0,15,,,,,7,,,67,100
1344,note_on,,,,,668,0,12,,,,,5,,,40,100
1344,note_on,,,,,668,0,11,,,,,4,,,52,100
1344,note_on,,,,,668,0,10,,,,,3,,,67,100
1344,note_on,,,,,668,0,13,,,,,6,,,67,100
1344,note_on,,,,,668,0,16,,,,,7,,,52,100
1408,note_off,,,,,256,0,9,,,,,2,,,71,100
1408,note_off,,,,,64,0,12,,,,,5,,,40,100
1408,note_off,,,,,64,0,10,,,,,3,,,67,100
1408,note_off,,,,,64,0,14,,,,,6,,,52,100
1408,note_off,,,,,64,0,16,,,,,7,,,52,100
1408,note_off,,,,,64,0,11,,,,,4,,,52,100
1436,note_off,,,,,92,0,13,,,,,6,,,67,100
1436,note_off,,,,,92,0,15,,,,,7,,,67,100
1440,note_on,,,,,4,0,15,,,,,7,,,69,100
1440,note_on,,,,,4,0,13,,,,,6,,,69,100
1440,note_on,,,,,32,0,12,,,,,5,,,42,100
1440,note_on,,,,,32,0,14,,,,,6,,,54,100
1440,note_on,,,,,32,0,10,,,,,3,,,69,100
1440,note_on,,,,,32,0,16,,,,,7,,,54,100
1440,note_on,,,,,32,0,11,,,,,4,,,54,100
1444,note_off,,,,,4,0,15,,,,,7,,,71,100
1444,note_off,,,,,4,0,13,,,,,6,,,71,100
1504,note_off,,,,,64,0,11,,,,,4,,,54,100
1504,note_off,,,,,64,0,10,,,,,3,,,69,100
1504,note_off,,,,,60,0,13,,,,,6,,,69,100
1504,note_off,,,,,64,0,16,,,,,7,,,54,100
1504,note_off,,,,,64,0,12,,,,,5,,,42,100
1504,note_off,,,,,60,0,15,,,,,7,,,69,100
1504,note_off,,,,,64,0,14,,,,,6,,,54,100
1536,note_on,,,,,32,0,14,,,,,6,,,55,100
1536,note_on,,,,,32,0,12,,,,,5,,,43,100
1536,note_on,,,,,32,0,13,,,,,6,,,76,100
1536,note_on,,,,,0,0,13,,,,,6,,,71,100
1536,note_on,,,,,32,0,11,,,,,4,,,55,100
1536,note_on,,,,,32,0,15,,,,,7,,,76,100
1536,note_on,,,,,0,0,15,,,,,7,,,71,100
1536,note_on,,,,,32,0,16,,,,,7,,,55,100
1536,note_on,,,,,32,0,10,,,,,3,,,71,100
1600,note_off,,,,,256,0,8,,,,,1,,,71,100
1636,note_off,,,,,100,0,13,,,,,6,,,76,100
1636,note_off,,,,,100,0,15,,,,,7,,,76,100
1636,note_off,,,,,100,0,16,,,,,7,,,55,100
1636,note_off,,,,,100,0,14,,,,,6,,,55,100
1636,note_off,,,,,100,0,10,,,,,3,,,71,100
1636,note_off,,,,,100,0,11,,,,,4,,,55,100
1636,note_off,,,,,0,0,15,,,,,7,,,71,100
1636,note_off,,,,,0,0,13,,,,,6,,,71,100
1636,note_off,,,,,100,0,12,,,,,5,,,43,100
1728,note_on,,,,,92,0,10,,,,,3,,,67,100
1728,note_on,,,,,92,0,11,,,,,4,,,52,100
1728,note_on,,,,,92,0,14,,,,,6,,,52,100
1728,note_on,,,,,128,0,8,,,,,1,,,71,100
1728,note_on,,,,,92,0,12,,,,,5,,,40,100
1728,note_on,,,,,92,0,16,,,,,7,,,52,100
1728,note_on,,,,,92,0,13,,,,,6,,,67,100
1728,note_on,,,,,0,0,13,,,,,6,,,71,100
1728,note_on,,,,,0,0,15,,,,,7,,,71,100
1728,note_on,,,,,320,0,9,,,,,2,,,71,100
1728,note_on,,,,,92,0,15,,,,,7,,,67,100
1828,note_off,,,,,100,0,8,,,,,1,,,71,100
1828,note_off,,,,,100,0,15,,,,,7,,,67,100
1828,note_off,,,,,0,0,15,,,,,7,,,71,100
1828,note_off,,,,,100,0,11,,,,,4,,,52,100
1828,note_off,,,,,100,0,14,,,,,6,,,52,100
1828,note_off,,,,,100,0,10,,,,,3,,,67,100
1828,note_off,,,,,100,0,16,,,,,7,,,52,100
1828,note_off,,,,,100,0,13,,,,,6,,,67,100
1828,note_off,,,,,0,0,13,,,,,6,,,71,100
1828,note_off,,,,,100,0,9,,,,,2,,,71,100
1828,note_off,,,,,100,0,12,,,,,5,,,40,100
1920,note_on,,,,,92,0,8,,,,,1,,,72,100
1920,note_on,,,,,92,0,9,,,,,2,,,69,100
2020,note_off,,,,,100,0,8,,,,,1,,,72,100
2020,note_off,,,,,100,0,9,,,,,2,,,69,100
2112,note_on,,,,,92,0,8,,,,,1,,,71,100
2112,note_on,,,,,92,0,9,,,,,2,,,67,100
2212,note_off,,,,,100,0,9,,,,,2,,,67,100
2212,note_off,,,,,100,0,8,,,,,1,,,71,100
2304,note_on,,,,,92,0,9,,,,,2,,,75,100
2304,note_on,,,,,92,0,8,,,,,1,,,78,100
2404,note_off,,,,,100,0,8,,,,,1,,,78,100
2496,note_on,,,,,668,0,11,,,,,4,,,47,100
2496,note_on,,,,,668,0,16,,,,,7,,,47,100
2496,note_on,,,,,92,0,8,,,,,1,,,71,100
2496,note_on,,,,,668,0,14,,,,,6,,,47,100
2496,note_on,,,,,668,0,13,,,,,6,,,63,100
2496,note_on,,,,,668,0,10,,,,,3,,,66,100
2496,note_on,,,,,668,0,15,,,,,7,,,63,100
2496,note_on,,,,,0,0,15,,,,,7,,,66,100
2496,note_on,,,,,668,0,12,,,,,5,,,35,100
2496,note_on,,,,,0,0,13,,,,,6,,,66,100
2560,note_off,,,,,64,0,11,,,,,4,,,47,100
2560,note_off,,,,,64,0,10,,,,,3,,,66,100
2560,note_off,,,,,64,0,16,,,,,7,,,47,100
2560,note_off,,,,,256,0,9,,,,,2,,,75,100
2560,note_off,,,,,64,0,14,,,,,6,,,47,100
2560,note_off,,,,,64,0,12,,,,,5,,,35,100
2588,note_off,,,,,92,0,15,,,,,7,,,63,100
2588,note_off,,,,,92,0,13,,,,,6,,,63,100
2592,note_on,,,,,32,0,12,,,,,5,,,37,100
2592,note_on,,,,,32,0,14,,,,,6,,,49,100
2592,note_on,,,,,4,0,15,,,,,7,,,64,100
2592,note_on,,,,,32,0,11,,,,,4,,,49,100
2592,note_on,,,,,32,0,16,,,,,7,,,49,100
2592,note_on,,,,,32,0,10,,,,,3,,,64,100
2592,note_on,,,,,4,0,13,,,,,6,,,64,100
2596,note_off,,,,,4,0,15,,,,,7,,,66,100
2596,note_off,,,,,4,0,13,,,,,6,,,66,100
2656,note_off,,,,,64,0,16,,,,,7,,,49,100
2656,note_off,,,,,60,0,13,,,,,6,,,64,100
2656,note_off,,,,,64,0,11,,,,,4,,,49,100
2656,note_off,,,,,64,0,14,,,,,6,,,49,100
2656,note_off,,,,,64,0,10,,,,,3,,,64,100
2656,note_off,,,,,64,0,12,,,,,5,,,37,100
2656,note_off,,,,,60,0,15,,,,,7,,,64,100
2688,note_on,,,,,32,0,14,,,,,6,,,51,100
2688,note_on,,,,,32,0,15,,,,,7,,,71,100
2688,note_on,,,,,32,0,11,,,,,4,,,51,100
2688,note_on,,,,,0,0,15,,,,,7,,,66,100
2688,note_on,,,,,32,0,13,,,,,6,,,71,100
2688,note_on,,,,,32,0,16,,,,,7,,,51,100
2688,note_on,,,,,32,0,10,,,,,3,,,66,100
2688,note_on,,,,,0,0,13,,,,,6,,,66,100
2688,note_on,,,,,32,0,12,,,,,5,,,39,100
2752,note_off,,,,,256,0,8,,,,,1,,,71,100
2788,note_off,,,,,0,0,13,,,,,6,,,66,100
2788,note_off,,,,,100,0,11,,,,,4,,,51,100
2788,note_off,,,,,100,0,10,,,,,3,,,66,100
2788,note_off,,,,,100,0,14,,,,,6,,,51,100
2788,note_off,,,,,100,0,13,,,,,6,,,71,100
2788,note_off,,,,,0,0,15,,,,,7,,,66,100
2788,note_off,,,,,100,0,15,,,,,7,,,71,100
2788,note_off,,,,,100,0,12,,,,,5,,,39,100
2788,note_off,,,,,100,0,16,,,,,7,,,51,100
2880,note_on,,,,,92,0,16,,,,,7,,,47,100
2880,note_on,,,,,128,0,8,,,,,1,,,71,100
2880,note_on,,,,,0,0,13,,,,,6,,,66,100
2880,note_on,,,,,92,0,13,,,,,6,,,63,100
2880,note_on,,,,,92,0,15,,,,,7,,,63,100
2880,note_on,,,,,320,0,9,,,,,2,,,71,100
2880,note_on,,,,,92,0,12,,,,,5,,,35,100
2880,note_on,,,,,92,0,14,,,,,6,,,47,100
2880,note_on,,,,,0,0,15,,,,,7,,,66,100
2880,note_on,,,,,92,0,11,,,,,4,,,47,100
2880,note_on,,,,,92,0,10,,,,,3,,,63,100
2980,note_off,,,,,100,0,13,,,,,6,,,63,100
2980,note_off,,,,,100,0,11,,,,,4,,,47,100
2980,note_off,,,,,100,0,16,,,,,7,,,47,100
2980,note_off,,,,,100,0,10,,,,,3,,,63,100
2980,note_off,,,,,100,0,15,,,,,7,,,63,100
2980,note_off,,,,,0,0,15,,,,,7,,,66,100
2980,note_off,,,,,100,0,9,,,,,2,,,71,100
2980,note_off,,,,,100,0,12,,,,,5,,,35,100
2980,note_off,,,,,100,0,8,,,,,1,,,71,100
2980,note_off,,,,,100,0,14,,,,,6,,,47,100
2980,note_off,,,,,0,0,13,,,,,6,,,66,100
3072,note_on,,,,,92,0,9,,,,,2,,,69,100
3072,note_on,,,,,92,0,8,,,,,1,,,72,100
3172,note_off,,,,,100,0,8,,,,,1,,,72,100
3172,note_off,,,,,100,0,9,,,,,2,,,69,100
3264,note_on,,,,,92,0,9,,,,,2,,,67,100
3264,note_on,,,,,92,0,8,,,,,1,,,71,100
3364,note_off,,,,,100,0,8,,,,,1,,,71,100
3364,note_off,,,,,100,0,9,,,,,2,,,67,100
3456,note_on,,,,,92,0,8,,,,,1,,,79,100
3456,note_on,,,,,92,0,9,,,,,2,,,76,100
3556,note_off,,,,,100,0,8,,,,,1,,,79,100
3556,note_off,,,,,100,0,9,,,,,2,,,76,100
3648,note_on,,,,,0,0,15,,,,,7,,,66,100
3648,note_on,,,,,668,0,13,,,,,6,,,63,100
3648,note_on,,,,,668,0,15,,,,,7,,,63,100
3648,note_on,,,,,668,0,10,,,,,3,,,66,100
3648,note_on,,,,,0,0,13,,,,,6,,,66,100
3648,note_on,,,,,92,0,8,,,,,1,,,78,100
3648,note_on,,,,,668,0,16,,,,,7,,,47,100
3648,note_on,,,,,92,0,9,,,,,2,,,75,100
3648,note_on,,,,,668,0,14,,,,,6,,,47,100
3648,note_on,,,,,668,0,12,,,,,5,,,35,100
3648,note_on,,,,,668,0,11,,,,,4,,,47,100
3712,note_off,,,,,64,0,16,,,,,7,,,47,100
3712,note_off,,,,,64,0,10,,,,,3,,,66,100
3712,note_off,,,,,64,0,11,,,,,4,,,47,100
3712,note_off,,,,,64,0,14,,,,,6,,,47,100
3712,note_off,,,,,64,0,12,,,,,5,,,35,100
3740,note_off,,,,,92,0,15,,,,,7,,,63,100
3740,note_off,,,,,92,0,13,,,,,6,,,63,100
3744,note_on,,,,,32,0,10,,,,,3,,,64,100
3744,note_on,,,,,32,0,11,,,,,4,,,49,100
3744,note_on,,,,,4,0,15,,,,,7,,,64,100
3744,note_on,,,,,4,0,13,,,,,6,,,64,100
3744,note_on,,,,,32,0,12,,,,,5,,,37,100
3744,note_on,,,,,32,0,14,,,,,6,,,49,100
3744,note_on,,,,,32,0,16,,,,,7,,,49,100
3748,note_off,,,,,4,0,15,,,,,7,,,66,100
3748,note_off,,,,,4,0,13,,,,,6,,,66,100
3808,note_off,,,,,64,0,11,,,,,4,,,49,100
3808,note_off,,,,,64,0,16,,,,,7,,,49,100
3808,note_off,,,,,64,0,14,,,,,6,,,49,100
3808,note_off,,,,,60,0,13,,,,,6,,,64,100
3808,note_off,,,,,60,0,15,,,,,7,,,64,100
3808,note_off,,,,,64,0,12,,,,,5,,,37,100
3808,note_off,,,,,64,0,10,,,,,3,,,64,100
3840,note_on,,,,,0,0,15,,,,,7,,,66,100
3840,note_on,,,,,32,0,12,,,,,5,,,39,100
3840,note_on,,,,,32,0,14,,,,,6,,,51,100
3840,note_on,,,,,32,0,16,,,,,7,,,51,100
3840,note_on,,,,,0,0,13,,,,,6,,,66,100
3840,note_on,,,,,32,0,11,,,,,4,,,51,100
3840,note_on,,,,,32,0,10,,,,,3,,,66,100
3840,note_on,,,,,32,0,13,,,,,6,,,71,100
3840,note_on,,,,,32,0,15,,,,,7,,,71,100
3904,note_off,,,,,256,0,9,,,,,2,,,75,100
3904,note_off,,,,,256,0,8,,,,,1,,,78,100
3940,note_off,,,,,0,0,13,,,,,6,,,66,100
3940,note_off,,,,,100,0,11,,,,,4,,,51,100
3940,note_off,,,,,0,0,15,,,,,7,,,66,100
3940,note_off,,,,,100,0,15,,,,,7,,,71,100
3940,note_off,,,,,100,0,13,,,,,6,,,71,100
3940,note_off,,,,,100,0,16,,,,,7,,,51,100
3940,note_off,,,,,100,0,12,,,,,5,,,39,100
3940,note_off,,,,,100,0,10,,,,,3,,,66,100
3940,note_off,,,,,100,0,14,,,,,6,,,51,100
4032,note_on,,,,,92,0,10,,,,,3,,,63,101
4032,note_on,,,,,92,0,15,,,,,7,,,63,100
4032,note_on,,,,,92,0,13,,,,,6,,,63,100
4032,note_on,,,,,0,0,13,,,,,6,,,66,100
4032,note_on,,,,,92,0,12,,,,,5,,,35,101
4032,note_on,,,,,128,0,9,,,,,2,,,71,101
4032,note_on,,,,,0,0,15,,,,,7,,,66,100
4032,note_on,,,,,92,0,11,,,,,4,,,47,101
4032,note_on,,,,,92,0,16,,,,,7,,,47,100
4032,note_on,,,,,128,0,8,,,,,1,,,71,101
4032,note_on,,,,,92,0,14,,,,,6,,,47,100
4132,note_off,,,,,100,0,8,,,,,1,,,71,100
4132,note_off,,,,,100,0,13,,,,,6,,,63,100
4132,note_off,,,,,0,0,13,,,,,6,,,66,100
4132,note_off,,,,,100,0,10,,,,,3,,,63,100
4132,note_off,,,,,100,0,14,,,,,6,,,47,100
4132,note_off,,,,,100,0,9,,,,,2,,,71,100
4132,note_off,,,,,100,0,16,,,,,7,,,47,100
4132,note_off,,,,,100,0,12,,,,,5,,,35,100
4132,note_off,,,,,100,0,15,,,,,7,,,63,100
4132,note_off,,,,,100,0,11,,,,,4,,,47,100
4132,note_off,,,,,0,0,15,,,,,7,,,66,100
4224,note_on,,,,,92,0,8,,,,,1,,,72,102
4224,note_on,,,,,92,0,9,,,,,2,,,69,102
4324,note_off,,,,,100,0,8,,,,,1,,,72,100
4324,note_off,,,,,100,0,9,,,,,2,,,69,100
4416,note_on,,,,,92,0,9,,,,,2,,,67,103
4416,note_on,,,,,92,0,8,,,,,1,,,71,103
4516,note_off,,,,,100,0,8,,,,,1,,,71,100
4516,note_off,,,,,100,0,9,,,,,2,,,67,100
4608,note_on,,,,,92,0,8,,,,,1,,,81,103
4608,note_on,,,,,92,0,9,,,,,2,,,78,103
4708,note_off,,,,,100,0,9,,,,,2,,,78,100
4708,note_off,,,,,100,0,8,,,,,1,,,81,100
4800,note_on,,,,,668,0,15,,,,,7,,,67,100
4800,note_on,,,,,668,0,13,,,,,6,,,67,100
4800,note_on,,,,,0,0,13,,,,,6,,,71,100
4800,note_on,,,,,668,0,16,,,,,7,,,52,100
4800,note_on,,,,,668,0,12,,,,,5,,,40,104
4800,note_on,,,,,668,0,11,,,,,4,,,52,104
4800,note_on,,,,,0,0,15,,,,,7,,,71,100
4800,note_on,,,,,92,0,8,,,,,1,,,79,104
4800,note_on,,,,,668,0,14,,,,,6,,,52,100
4800,note_on,,,,,668,0,10,,,,,3,,,71,104
4800,note_on,,,,,92,0,9,,,,,2,,,76,104
4864,note_off,,,,,64,0,16,,,,,7,,,52,100
4864,note_off,,,,,64,0,12,,,,,5,,,40,100
4864,note_off,,,,,64,0,10,,,,,3,,,71,100
4864,note_off,,,,,64,0,11,,,,,4,,,52,100
4864,note_off,,,,,64,0,14,,,,,6,,,52,100
4892,note_off,,,,,92,0,13,,,,,6,,,67,100
4892,note_off,,,,,92,0,15,,,,,7,,,67,100
4896,note_on,,,,,4,0,15,,,,,7,,,69,100
4896,note_on,,,,,32,0,14,,,,,6,,,54,100
4896,note_on,,,,,32,0,12,,,,,5,,,42,105
4896,note_on,,,,,32,0,11,,,,,4,,,54,105
4896,note_on,,,,,32,0,16,,,,,7,,,54,100
4896,note_on,,,,,4,0,13,,,,,6,,,69,100
4896,note_on,,,,,32,0,10,,,,,3,,,69,105
4900,note_off,,,,,4,0,13,,,,,6,,,71,100
4900,note_off,,,,,4,0,15,,,,,7,,,71,100
4960,note_off,,,,,60,0,13,,,,,6,,,69,100
4960,note_off,,,,,64,0,16,,,,,7,,,54,100
4960,note_off,,,,,64,0,10,,,,,3,,,69,100
4960,note_off,,,,,64,0,14,,,,,6,,,54,100
4960,note_off,,,,,64,0,11,,,,,4,,,54,100
4960,note_off,,,,,64,0,12,,,,,5,,,42,100
4960,note_off,,,,,60,0,15,,,,,7,,,69,100
4992,note_on,,,,,0,0,15,,,,,7,,,71,100
4992,note_on,,,,,32,0,10,,,,,3,,,71,105
4992,note_on,,,,,32,0,13,,,,,6,,,76,100
4992,note_on,,,,,0,0,13,,,,,6,,,71,100
4992,note_on,,,,,32,0,12,,,,,5,,,43,105
4992,note_on,,,,,32,0,16,,,,,7,,,55,100
4992,note_on,,,,,32,0,15,,,,,7,,,76,100
4992,note_on,,,,,32,0,11,,,,,4,,,55,105
4992,note_on,,,,,32,0,14,,,,,6,,,55,100
5056,note_off,,,,,256,0,9,,,,,2,,,76,100
5056,note_off,,,,,256,0,8,,,,,1,,,79,100
5092,note_off,,,,,100,0,12,,,,,5,,,43,100
5092,note_off,,,,,100,0,16,,,,,7,,,55,100
5092,note_off,,,,,0,0,13,,,,,6,,,71,100
5092,note_off,,,,,100,0,13,,,,,6,,,76,100
5092,note_off,,,,,100,0,14,,,,,6,,,55,100
5092,note_off,,,,,100,0,11,,,,,4,,,55,100
5092,note_off,,,,,100,0,10,,,,,3,,,71,100
5092,note_off,,,,,100,0,15,,,,,7,,,76,100
5092,note_off,,,,,0,0,15,,,,,7,,,71,100
5184,note_on,,,,,92,0,16,,,,,7,,,52,100
5184,note_on,,,,,128,0,8,,,,,1,,,71,106
5184,note_on,,,,,0,0,13,,,,,6,,,71,100
5184,note_on,,,,,92,0,13,,,,,6,,,67,100
5184,note_on,,,,,92,0,12,,,,,5,,,40,106
5184,note_on,,,,,128,0,9,,,,,2,,,71,106
5184,note_on,,,,,92,0,15,,,,,7,,,67,100
5184,note_on,,,,,92,0,10,,,,,3,,,67,106
5184,note_on,,,,,92,0,11,,,,,4,,,52,106
5184,note_on,,,,,0,0,15,,,,,7,,,71,100
5184,note_on,,,,,92,0,14,,,,,6,,,52,100
5284,note_off,,,,,0,0,15,,,,,7,,,71,100
5284,note_off,,,,,100,0,16,,,,,7,,,52,100
5284,note_off,,,,,100,0,9,,,,,2,,,71,100
5284,note_off,,,,,100,0,12,,,,,5,,,40,100
5284,note_off,,,,,100,0,8,,,,,1,,,71,100
5284,note_off,,,,,100,0,14,,,,,6,,,52,100
5284,note_off,,,,,0,0,13,,,,,6,,,71,100
5284,note_off,,,,,100,0,13,,,,,6,,,67,100
5284,note_off,,,,,100,0,10,,,,,3,,,67,100
5284,note_off,,,,,100,0,11,,,,,4,,,52,100
5284,note_off,,,,,100,0,15,,,,,7,,,67,100
5376,note_on,,,,,92,0,9,,,,,2,,,69,107
5376,note_on,,,,,92,0,8,,,,,1,,,72,107
5476,note_off,,,,,100,0,9,,,,,2,,,69,100
5476,note_off,,,,,100,0,8,,,,,1,,,72,100
5568,note_on,,,,,92,0,8,,,,,1,,,71,107
5568,note_on,,,,,92,0,9,,,,,2,,,67,107
5668,note_off,,,,,100,0,8,,,,,1,,,71,100
5668,note_off,,,,,100,0,9,,,,,2,,,67,100
5760,note_on,,,,,92,0,9,,,,,2,,,79,110
5760,note_on,,,,,476,0,10,,,,,3,,,67,110
5760,note_on,,,,,476,0,15,,,,,7,,,76,100
5760,note_on,,,,,0,0,15,,,,,7,,,71,100
5760,note_on,,,,,476,0,11,,,,,4,,,52,110
5760,note_on,,,,,476,0,16,,,,,7,,,52,100
5760,note_on,,,,,0,0,15,,,,,7,,,67,100
5760,note_on,,,,,0,0,13,,,,,6,,,71,100
5760,note_on,,,,,0,0,13,,,,,6,,,67,100
5760,note_on,,,,,476,0,13,,,,,6,,,76,100
5760,note_on,,,,,92,0,8,,,,,1,,,83,110
5760,note_on,,,,,476,0,14,,,,,6,,,52,100
5760,note_on,,,,,476,0,12,,,,,5,,,40,110
5888,note_off,,,,,128,0,8,,,,,1,,,83,100
5888,note_off,,,,,128,0,9,,,,,2,,,79,100
5952,note_on,,,,,64,0,9,,,,,2,,,78,109
5952,note_on,,,,,64,0,8,,,,,1,,,81,109
6016,note_off,,,,,256,0,16,,,,,7,,,52,100
6016,note_off,,,,,64,0,9,,,,,2,,,78,100
6016,note_off,,,,,256,0,12,,,,,5,,,40,100
6016,note_off,,,,,256,0,10,,,,,3,,,67,100
6016,note_off,,,,,256,0,13,,,,,6,,,76,100
6016,note_off,,,,,0,0,13,,,,,6,,,67,100
6016,note_off,,,,,0,0,13,,,,,6,,,71,100
6016,note_off,,,,,256,0,11,,,,,4,,,52,100
6016,note_off,,,,,64,0,8,,,,,1,,,81,100
6016,note_off,,,,,256,0,14,,,,,6,,,52,100
6016,note_off,,,,,256,0,15,,,,,7,,,76,100
6016,note_off,,,,,0,0,15,,,,,7,,,67,100
6016,note_off,,,,,0,0,15,,,,,7,,,71,100
6048,note_on,,,,,32,0,8,,,,,1,,,79,108
6048,note_on,,,,,32,0,9,,,,,2,,,79,108
6112,note_off,,,,,64,0,9,,,,,2,,,79,100
6112,note_off,,,,,64,0,8,,,,,1,,,79,100
6144,note_on,,,,,32,0,9,,,,,2,,,81,107
6144,note_on,,,,,32,0,8,,,,,1,,,78,107
6244,note_off,,,,,100,0,9,,,,,2,,,81,100
6244,note_off,,,,,100,0,8,,,,,1,,,78,100
6336,note_on,,,,,92,0,9,,,,,2,,,79,105
6336,note_on,,,,,92,0,8,,,,,1,,,76,105
6436,note_off,,,,,100,0,9,,,,,2,,,79,100
6436,note_off,,,,,100,0,8,,,,,1,,,76,100
6528,note_on,,,,,92,0,9,,,,,2,,,78,103
6528,note_on,,,,,92,0,8,,,,,1,,,75,103
6628,note_off,,,,,100,0,9,,,,,2,,,78,100
6628,note_off,,,,,100,0,8,,,,,1,,,75,100
6720,note_on,,,,,92,0,8,,,,,1,,,76,101
6720,note_on,,,,,92,0,9,,,,,2,,,76,101
6820,note_off,,,,,100,0,8,,,,,1,,,76,100
6820,note_off,,,,,100,0,9,,,,,2,,,76,100
6912,note_on,,,,,0,0,15,,,,,7,,,78,100
6912,note_on,,,,,0,0,15,,,,,7,,,75,100
6912,note_on,,,,,896,0,15,,,,,7,,,71,100
6912,note_on,,,,,896,0,14,,,,,6,,,59,100
6912,note_on,,,,,896,0,10,,,,,3,,,66,105
6912,note_on,,,,,896,0,13,,,,,6,,,66,100
6912,note_on,,,,,92,0,9,,,,,2,,,75,105
6912,note_on,,,,,896,0,11,,,,,4,,,59,105
6912,note_on,,,,,92,0,8,,,,,1,,,78,105
6912,note_on,,,,,896,0,12,,,,,5,,,47,105
6912,note_on,,,,,896,0,16,,,,,7,,,59,100
6912,note_on,,,,,0,0,13,,,,,6,,,75,100
7040,note_off,,,,,0,0,13,,,,,6,,,75,100
7040,note_off,,,,,128,0,16,,,,,7,,,59,100
7040,note_off,,,,,128,0,14,,,,,6,,,59,100
7040,note_off,,,,,128,0,13,,,,,6,,,66,100
7040,note_off,,,,,128,0,12,,,,,5,,,47,100
7040,note_off,,,,,128,0,11,,,,,4,,,59,100
7040,note_off,,,,,128,0,10,,,,,3,,,66,100
7104,note_on,,,,,64,0,16,,,,,7,,,57,100
7104,note_on,,,,,64,0,13,,,,,6,,,66,100
7104,note_on,,,,,64,0,11,,,,,4,,,57,100
7104,note_on,,,,,0,0,13,,,,,6,,,69,100
7104,note_on,,,,,64,0,14,,,,,6,,,57,100
7104,note_on,,,,,64,0,12,,,,,5,,,45,100
7104,note_on,,,,,64,0,10,,,,,3,,,66,100
7168,note_off,,,,,64,0,13,,,,,6,,,66,100
7168,note_off,,,,,0,0,13,,,,,6,,,69,100
7168,note_off,,,,,64,0,11,,,,,4,,,57,100
7168,note_off,,,,,64,0,10,,,,,3,,,66,100
7168,note_off,,,,,256,0,8,,,,,1,,,78,100
7168,note_off,,,,,64,0,16,,,,,7,,,57,100
7168,note_off,,,,,64,0,14,,,,,6,,,57,100
7168,note_off,,,,,64,0,12,,,,,5,,,45,100
7200,note_on,,,,,32,0,12,,,,,5,,,43,100
7200,note_on,,,,,32,0,16,,,,,7,,,55,100
7200,note_on,,,,,32,0,11,,,,,4,,,55,100
7200,note_on,,,,,32,0,13,,,,,6,,,64,100
7200,note_on,,,,,0,0,13,,,,,6,,,67,100
7200,note_on,,,,,32,0,10,,,,,3,,,67,100
7200,note_on,,,,,32,0,14,,,,,6,,,55,100
7264,note_off,,,,,0,0,13,,,,,6,,,67,100
7264,note_off,,,,,64,0,11,,,,,4,,,55,100
7264,note_off,,,,,64,0,16,,,,,7,,,55,100
7264,note_off,,,,,64,0,13,,,,,6,,,64,100
7264,note_off,,,,,64,0,10,,,,,3,,,67,100
7264,note_off,,,,,64,0,14,,,,,6,,,55,100
7264,note_off,,,,,64,0,12,,,,,5,,,43,100
7296,note_on,,,,,32,0,14,,,,,6,,,54,100
7296,note_on,,,,,32,0,16,,,,,7,,,54,100
7296,note_on,,,,,32,0,11,,,,,4,,,54,100
7296,note_on,,,,,0,0,13,,,,,6,,,69,100
7296,note_on,,,,,32,0,13,,,,,6,,,66,100
7296,note_on,,,,,128,0,8,,,,,1,,,71,100
7296,note_on,,,,,32,0,12,,,,,5,,,42,100
7296,note_on,,,,,32,0,10,,,,,3,,,69,100
7396,note_off,,,,,100,0,14,,,,,6,,,54,100
7396,note_off,,,,,100,0,13,,,,,6,,,66,100
7396,note_off,,,,,0,0,13,,,,,6,,,69,100
7396,note_off,,,,,100,0,10,,,,,3,,,69,100
7396,note_off,,,,,100,0,12,,,,,5,,,42,100
7396,note_off,,,,,100,0,11,,,,,4,,,54,100
7396,note_off,,,,,100,0,16,,,,,7,,,54,100
7424,note_off,,,,,512,0,15,,,,,7,,,71,100
7424,note_off,,,,,0,0,15,,,,,7,,,75,100
7424,note_off,,,,,0,0,15,,,,,7,,,78,100
7488,note_on,,,,,92,0,13,,,,,6,,,64,100
7488,note_on,,,,,0,0,13,,,,,6,,,67,100
7488,note_on,,,,,92,0,10,,,,,3,,,67,100
7488,note_on,,,,,92,0,11,,,,,4,,,52,100
7488,note_on,,,,,92,0,16,,,,,7,,,52,100
7488,note_on,,,,,92,0,12,,,,,5,,,40,100
7488,note_on,,,,,92,0,14,,,,,6,,,52,100
7524,note_off,,,,,612,0,9,,,,,2,,,75,100
7552,note_off,,,,,256,0,8,,,,,1,,,71,100
7588,note_off,,,,,100,0,14,,,,,6,,,52,100
7588,note_off,,,,,100,0,12,,,,,5,,,40,100
7588,note_off,,,,,100,0,16,,,,,7,,,52,100
7588,note_off,,,,,0,0,13,,,,,6,,,67,100
7588,note_off,,,,,100,0,13,,,,,6,,,64,100
7588,note_off,,,,,100,0,10,,,,,3,,,67,100
7588,note_off,,,,,100,0,11,,,,,4,,,52,100
7680,note_on,,,,,92,0,12,,,,,5,,,39,100
7680,note_on,,,,,0,0,13,,,,,6,,,66,100
7680,note_on,,,,,92,0,10,,,,,3,,,66,100
7680,note_on,,,,,92,0,14,,,,,6,,,51,100
7680,note_on,,,,,92,0,16,,,,,7,,,51,100
7680,note_on,,,,,92,0,13,,,,,6,,,63,100
7680,note_on,,,,,92,0,11,,,,,4,,,51,100
7780,note_off,,,,,100,0,16,,,,,7,,,51,100
7780,note_off,,,,,100,0,10,,,,,3,,,66,100
7780,note_off,,,,,100,0,14,,,,,6,,,51,100
7780,note_off,,,,,100,0,11,,,,,4,,,51,100
7780,note_off,,,,,0,0,13,,,,,6,,,66,100
7780,note_off,,,,,100,0,13,,,,,6,,,63,100
7780,note_off,,,,,100,0,12,,,,,5,,,39,100
7872,note_on,,,,,92,0,14,,,,,6,,,49,100
7872,note_on,,,,,92,0,11,,,,,4,,,49,100
7872,note_on,,,,,92,0,12,,,,,5,,,37,100
7872,note_on,,,,,92,0,10,,,,,3,,,64,100
7872,note_on,,,,,92,0,16,,,,,7,,,49,100
7872,note_on,,,,,92,0,13,,,,,6,,,61,100
7872,note_on,,,,,0,0,13,,,,,6,,,64,100
7972,note_off,,,,,100,0,12,,,,,5,,,37,100
7972,note_off,,,,,100,0,16,,,,,7,,,49,100
7972,note_off,,,,,0,0,13,,,,,6,,,64,100
7972,note_off,,,,,100,0,11,,,,,4,,,49,100
7972,note_off,,,,,100,0,10,,,,,3,,,64,100
7972,note_off,,,,,100,0,14,,,,,6,,,49,100
7972,note_off,,,,,100,0,13,,,,,6,,,61,100
8064,note_on,,,,,92,0,10,,,,,3,,,63,100
8064,note_on,,,,,512,0,8,,,,,1,,,71,100
8064,note_on,,,,,92,0,12,,,,,5,,,35,100
8064,note_on,,,,,92,0,14,,,,,6,,,47,100
8064,note_on,,,,,640,0,15,,,,,7,,,59,100
8064,note_on,,,,,0,0,13,,,,,6,,,66,100
8064,note_on,,,,,0,0,13,,,,,6,,,63,100
8064,note_on,,,,,92,0,13,,,,,6,,,59,100
8064,note_on,,,,,92,0,16,,,,,7,,,47,100
8064,note_on,,,,,92,0,11,,,,,4,,,47,100
8064,note_on,,,,,0,0,15,,,,,7,,,63,100
8064,note_on,,,,,0,0,15,,,,,7,,,66,100
8128,note_off,,,,,64,0,8,,,,,1,,,71,100
8160,note_on,,,,,32,0,8,,,,,1,,,73,100
8224,note_off,,,,,64,0,8,,,,,1,,,73,100
8256,note_on,,,,,32,0,8,,,,,1,,,75,101
8320,note_off,,,,,0,0,15,,,,,7,,,63,100
8320,note_off,,,,,0,0,13,,,,,6,,,66,100
8320,note_off,,,,,0,0,13,,,,,6,,,63,100
8320,note_off,,,,,256,0,12,,,,,5,,,35,100
8320,note_off,,,,,64,0,8,,,,,1,,,75,100
8320,note_off,,,,,256,0,11,,,,,4,,,47,100
8320,note_off,,,,,256,0,16,,,,,7,,,47,100
8320,note_off,,,,,256,0,13,,,,,6,,,59,100
8320,note_off,,,,,256,0,14,,,,,6,,,47,100
8320,note_off,,,,,0,0,15,,,,,7,,,66,100
8320,note_off,,,,,256,0,15,,,,,7,,,59,100
8320,note_off,,,,,256,0,10,,,,,3,,,63,100
8352,note_on,,,,,32,0,8,,,,,1,,,76,101
8416,note_off,,,,,64,0,8,,,,,1,,,76,100
8448,note_on,,,,,32,0,8,,,,,1,,,78,102
8512,note_off,,,,,64,0,8,,,,,1,,,78,100
8544,note_on,,,,,32,0,8,,,,,1,,,79,103
8608,note_off,,,,,64,0,8,,,,,1,,,79,100
8640,note_on,,,,,320,0,10,,,,,3,,,66,103
8640,note_on,,,,,320,0,11,,,,,4,,,47,103
8640,note_on,,,,,0,0,13,,,,,6,,,63,100
8640,note_on,,,,,320,0,13,,,,,6,,,66,100
8640,note_on,,,,,32,0,8,,,,,1,,,81,103
8640,note_on,,,,,0,0,15,,,,,7,,,63,100
8640,note_on,,,,,320,0,14,,,,,6,,,47,100
8640,note_on,,,,,320,0,12,,,,,5,,,35,103
8640,note_on,,,,,320,0,16,,,,,7,,,47,100
8640,note_on,,,,,320,0,15,,,,,7,,,66,100
8704,note_off,,,,,64,0,8,,,,,1,,,81,100
8736,note_on,,,,,32,0,8,,,,,1,,,83,104
8740,note_off,,,,,100,0,13,,,,,6,,,66,100
8740,note_off,,,,,0,0,15,,,,,7,,,63,100
8740,note_off,,,,,100,0,15,,,,,7,,,66,100
8740,note_off,,,,,100,0,14,,,,,6,,,47,100
8740,note_off,,,,,100,0,11,,,,,4,,,47,100
8740,note_off,,,,,100,0,12,,,,,5,,,35,100
8740,note_off,,,,,100,0,16,,,,,7,,,47,100
8740,note_off,,,,,100,0,10,,,,,3,,,66,100
8740,note_off,,,,,0,0,13,,,,,6,,,63,100
8800,note_off,,,,,64,0,8,,,,,1,,,83,100
8832,note_on,,,,,32,0,8,,,,,1,,,71,105
8832,note_on,,,,,0,0,13,,,,,6,,,67,100
8832,note_on,,,,,92,0,10,,,,,3,,,67,103
8832,note_on,,,,,92,0,12,,,,,5,,,40,103
8832,note_on,,,,,92,0,13,,,,,6,,,71,100
8832,note_on,,,,,92,0,14,,,,,6,,,52,100
8832,note_on,,,,,0,0,15,,,,,7,,,67,100
8832,note_on,,,,,92,0,16,,,,,7,,,52,100
8832,note_on,,,,,92,0,11,,,,,4,,,52,103
8832,note_on,,,,,92,0,15,,,,,7,,,71,100
8932,note_off,,,,,100,0,14,,,,,6,,,52,100
8932,note_off,,,,,100,0,8,,,,,1,,,71,100
8932,note_off,,,,,100,0,16,,,,,7,,,52,100
8932,note_off,,,,,100,0,10,,,,,3,,,67,100
8932,note_off,,,,,100,0,13,,,,,6,,,71,100
8932,note_off,,,,,0,0,13,,,,,6,,,67,100
8932,note_off,,,,,100,0,15,,,,,7,,,71,100
8932,note_off,,,,,0,0,15,,,,,7,,,67,100
8932,note_off,,,,,100,0,12,,,,,5,,,40,100
8932,note_off,,,,,100,0,11,,,,,4,,,52,100
9024,note_on,,,,,92,0,14,,,,,6,,,55,100
9024,note_on,,,,,92,0,13,,,,,6,,,64,100
9024,note_on,,,,,92,0,16,,,,,7,,,55,100
9024,note_on,,,,,92,0,15,,,,,7,,,64,100
9024,note_on,,,,,92,0,11,,,,,4,,,55,103
9024,note_on,,,,,0,0,15,,,,,7,,,71,100
9024,note_on,,,,,0,0,13,,,,,6,,,71,100
9024,note_on,,,,,92,0,8,,,,,1,,,83,106
9024,note_on,,,,,92,0,10,,,,,3,,,64,103
9024,note_on,,,,,92,0,12,,,,,5,,,43,103
9124,note_off,,,,,100,0,10,,,,,3,,,64,100
9124,note_off,,,,,0,0,13,,,,,6,,,71,100
9124,note_off,,,,,100,0,16,,,,,7,,,55,100
9124,note_off,,,,,100,0,11,,,,,4,,,55,100
9124,note_off,,,,,100,0,14,,,,,6,,,55,100
9124,note_off,,,,,100,0,12,,,,,5,,,43,100
9124,note_off,,,,,0,0,15,,,,,7,,,71,100
9124,note_off,,,,,100,0,15,,,,,7,,,64,100
9124,note_off,,,,,100,0,8,,,,,1,,,83,100
9124,note_off,,,,,100,0,13,,,,,6,,,64,100
9216,note_on,,,,,1692,0,9,,,,,2,,,64,100
9216,note_on,,,,,92,0,15,,,,,7,,,69,100
9216,note_on,,,,,0,0,15,,,,,7,,,72,100
9216,note_on,,,,,92,0,14,,,,,6,,,45,100
9216,note_on,,,,,92,0,12,,,,,5,,,33,102
9216,note_on,,,,,0,0,15,,,,,7,,,64,100
9216,note_on,,,,,92,0,8,,,,,1,,,79,103
9216,note_on,,,,,92,0,10,,,,,3,,,64,102
9216,note_on,,,,,92,0,13,,,,,6,,,60,100
9216,note_on,,,,,0,0,13,,,,,6,,,64,100
9216,note_on,,,,,0,0,13,,,,,6,,,67,100
9216,note_on,,,,,0,0,15,,,,,7,,,67,100
9216,note_on,,,,,92,0,11,,,,,4,,,45,102
9216,note_on,,,,,92,0,16,,,,,7,,,45,100
9280,note_off,,,,,64,0,9,,,,,2,,,64,100
9312,note_on,,,,,32,0,9,,,,,2,,,66,100
9316,note_off,,,,,100,0,10,,,,,3,,,64,100
9376,note_off,,,,,64,0,9,,,,,2,,,66,100
9408,note_on,,,,,32,0,9,,,,,2,,,67,100
9408,note_on,,,,,92,0,10,,,,,3,,,62,102
9472,note_off,,,,,256,0,12,,,,,5,,,33,100
9472,note_off,,,,,256,0,14,,,,,6,,,45,100
9472,note_off,,,,,256,0,11,,,,,4,,,45,100
9472,note_off,,,,,64,0,9,,,,,2,,,67,100
9472,note_off,,,,,256,0,16,,,,,7,,,45,100
9472,note_off,,,,,256,0,13,,,,,6,,,60,100
9472,note_off,,,,,0,0,13,,,,,6,,,64,100
9472,note_off,,,,,0,0,13,,,,,6,,,67,100
9504,note_on,,,,,32,0,9,,,,,2,,,69,101
9508,note_off,,,,,100,0,10,,,,,3,,,62,100
9568,note_off,,,,,64,0,9,,,,,2,,,69,100
9596,note_off,,,,,380,0,8,,,,,1,,,79,100
9600,note_on,,,,,4,0,8,,,,,1,,,76,100
9600,note_on,,,,,92,0,10,,,,,3,,,60,102
9600,note_on,,,,,32,0,9,,,,,2,,,71,101
9664,note_off,,,,,64,0,9,,,,,2,,,71,100
9696,note_on,,,,,32,0,9,,,,,2,,,72,102
9700,note_off,,,,,100,0,10,,,,,3,,,60,100
9760,note_off,,,,,64,0,9,,,,,2,,,72,100
9792,note_on,,,,,320,0,14,,,,,6,,,45,100
9792,note_on,,,,,320,0,12,,,,,5,,,33,101
9792,note_on,,,,,32,0,9,,,,,2,,,74,102
9792,note_on,,,,,320,0,13,,,,,6,,,64,100
9792,note_on,,,,,0,0,13,,,,,6,,,67,100
9792,note_on,,,,,320,0,11,,,,,4,,,45,101
9792,note_on,,,,,320,0,16,,,,,7,,,45,100
9792,note_on,,,,,92,0,10,,,,,3,,,59,101
9856,note_off,,,,,256,0,8,,,,,1,,,76,100
9856,note_off,,,,,64,0,9,,,,,2,,,74,100
9888,note_on,,,,,32,0,9,,,,,2,,,76,103
9892,note_off,,,,,100,0,13,,,,,6,,,64,100
9892,note_off,,,,,100,0,16,,,,,7,,,45,100
9892,note_off,,,,,100,0,14,,,,,6,,,45,100
9892,note_off,,,,,100,0,11,,,,,4,,,45,100
9892,note_off,,,,,100,0,10,,,,,3,,,59,100
9892,note_off,,,,,100,0,12,,,,,5,,,33,100
9892,note_off,,,,,0,0,13,,,,,6,,,67,100
9952,note_off,,,,,64,0,9,,,,,2,,,76,100
9984,note_on,,,,,92,0,10,,,,,3,,,57,101
9984,note_on,,,,,32,0,9,,,,,2,,,64,103
9984,note_on,,,,,92,0,14,,,,,6,,,48,100
9984,note_on,,,,,0,0,13,,,,,6,,,67,100
9984,note_on,,,,,92,0,16,,,,,7,,,48,100
9984,note_on,,,,,92,0,13,,,,,6,,,72,100
9984,note_on,,,,,92,0,11,,,,,4,,,48,101
9984,note_on,,,,,92,0,12,,,,,5,,,36,101
9984,note_on,,,,,128,0,8,,,,,1,,,72,96
10084,note_off,,,,,100,0,9,,,,,2,,,64,100
10084,note_off,,,,,0,0,13,,,,,6,,,67,100
10084,note_off,,,,,100,0,14,,,,,6,,,48,100
10084,note_off,,,,,100,0,12,,,,,5,,,36,100
10084,note_off,,,,,100,0,11,,,,,4,,,48,100
10084,note_off,,,,,100,0,13,,,,,6,,,72,100
10084,note_off,,,,,100,0,16,,,,,7,,,48,100
10136,note_off,,,,,0,0,15,,,,,7,,,72,100
10136,note_off,,,,,920,0,15,,,,,7,,,69,100
10136,note_off,,,,,0,0,15,,,,,7,,,67,100
10136,note_off,,,,,0,0,15,,,,,7,,,64,100
10176,note_on,,,,,92,0,14,,,,,6,,,45,100
10176,note_on,,,,,92,0,9,,,,,2,,,76,104
10176,note_on,,,,,92,0,16,,,,,7,,,45,100
10176,note_on,,,,,92,0,12,,,,,5,,,33,101
10176,note_on,,,,,92,0,13,,,,,6,,,64,100
10176,note_on,,,,,0,0,13,,,,,6,,,67,100
10176,note_on,,,,,92,0,11,,,,,4,,,45,101
10240,note_off,,,,,256,0,10,,,,,3,,,57,100
10240,note_off,,,,,256,0,8,,,,,1,,,72,100
10276,note_off,,,,,100,0,11,,,,,4,,,45,100
10276,note_off,,,,,100,0,13,,,,,6,,,64,100
10276,note_off,,,,,0,0,13,,,,,6,,,67,100
10276,note_off,,,,,100,0,9,,,,,2,,,76,100
10276,note_off,,,,,100,0,12,,,,,5,,,33,100
10276,note_off,,,,,100,0,16,,,,,7,,,45,100
10276,note_off,,,,,100,0,14,,,,,6,,,45,100
10368,note_on,,,,,128,0,8,,,,,1,,,69,98
10368,note_on,,,,,92,0,11,,,,,4,,,50,100
10368,note_on,,,,,92,0,16,,,,,7,,,50,100
10368,note_on,,,,,92,0,12,,,,,5,,,38,100
10368,note_on,,,,,92,0,13,,,,,6,,,62,100
10368,note_on,,,,,0,0,13,,,,,6,,,66,100
10368,note_on,,,,,92,0,9,,,,,2,,,72,101
10368,note_on,,,,,92,0,14,,,,,6,,,50,100
10368,note_on,,,,,128,0,10,,,,,3,,,69,100
10368,note_on,,,,,0,0,15,,,,,7,,,66,100
10368,note_on,,,,,0,0,15,,,,,7,,,69,100
10368,note_on,,,,,232,0,15,,,,,7,,,72,100
10432,note_off,,,,,64,0,8,,,,,1,,,69,100
10464,note_on,,,,,32,0,8,,,,,1,,,71,98
10468,note_off,,,,,100,0,10,,,,,3,,,69,100
10528,note_off,,,,,64,0,8,,,,,1,,,71,100
10560,note_on,,,,,92,0,10,,,,,3,,,67,100
10560,note_on,,,,,32,0,8,,,,,1,,,72,99
10624,note_off,,,,,256,0,16,,,,,7,,,50,100
10624,note_off,,,,,256,0,13,,,,,6,,,62,100
10624,note_off,,,,,64,0,8,,,,,1,,,72,100
10624,note_off,,,,,0,0,13,,,,,6,,,66,100
10624,note_off,,,,,256,0,11,,,,,4,,,50,100
10624,note_off,,,,,256,0,12,,,,,5,,,38,100
10624,note_off,,,,,256,0,14,,,,,6,,,50,100
10656,note_on,,,,,32,0,8,,,,,1,,,74,100
10660,note_off,,,,,100,0,10,,,,,3,,,67,100
10720,note_off,,,,,64,0,8,,,,,1,,,74,100
10748,note_off,,,,,380,0,9,,,,,2,,,72,100
10752,note_on,,,,,4,0,9,,,,,2,,,69,97
10752,note_on,,,,,32,0,8,,,,,1,,,76,101
10752,note_on,,,,,92,0,10,,,,,3,,,66,100
10816,note_off,,,,,64,0,8,,,,,1,,,76,100
10848,note_on,,,,,32,0,8,,,,,1,,,78,101
10852,note_off,,,,,100,0,10,,,,,3,,,66,100
10912,note_off,,,,,64,0,8,,,,,1,,,78,100
10944,note_on,,,,,92,0,10,,,,,3,,,64,99
10944,note_on,,,,,32,0,8,,,,,1,,,79,102
10944,note_on,,,,,320,0,11,,,,,4,,,50,99
10944,note_on,,,,,320,0,13,,,,,6,,,69,100
10944,note_on,,,,,320,0,16,,,,,7,,,50,100
10944,note_on,,,,,0,0,13,,,,,6,,,72,100
10944,note_on,,,,,320,0,12,,,,,5,,,38,99
10944,note_on,,,,,320,0,14,,,,,6,,,50,100
11008,note_off,,,,,64,0,8,,,,,1,,,79,100
11008,note_off,,,,,256,0,9,,,,,2,,,69,100
11040,note_on,,,,,32,0,8,,,,,1,,,81,103
11044,note_off,,,,,100,0,16,,,,,7,,,50,100
11044,note_off,,,,,100,0,13,,,,,6,,,69,100
11044,note_off,,,,,100,0,10,,,,,3,,,64,100
11044,note_off,,,,,100,0,14,,,,,6,,,50,100
11044,note_off,,,,,100,0,12,,,,,5,,,38,100
11044,note_off,,,,,100,0,11,,,,,4,,,50,100
11044,note_off,,,,,0,0,13,,,,,6,,,72,100
11104,note_off,,,,,64,0,8,,,,,1,,,81,100
11136,note_on,,,,,92,0,10,,,,,3,,,62,99
11136,note_on,,,,,92,0,13,,,,,6,,,72,100
11136,note_on,,,,,0,0,13,,,,,6,,,74,100
11136,note_on,,,,,32,0,8,,,,,1,,,69,104
11136,note_on,,,,,92,0,16,,,,,7,,,54,100
11136,note_on,,,,,92,0,11,,,,,4,,,54,99
11136,note_on,,,,,92,0,12,,,,,5,,,42,99
11136,note_on,,,,,92,0,14,,,,,6,,,54,100
11136,note_on,,,,,128,0,9,,,,,2,,,66,92
11236,note_off,,,,,100,0,13,,,,,6,,,72,100
11236,note_off,,,,,100,0,8,,,,,1,,,69,100
11236,note_off,,,,,100,0,14,,,,,6,,,54,100
11236,note_off,,,,,0,0,13,,,,,6,,,74,100
11236,note_off,,,,,100,0,16,,,,,7,,,54,100
11236,note_off,,,,,100,0,12,,,,,5,,,42,100
11236,note_off,,,,,100,0,11,,,,,4,,,54,100
11288,note_off,,,,,920,0,15,,,,,7,,,72,100
11288,note_off,,,,,0,0,15,,,,,7,,,69,100
11288,note_off,,,,,0,0,15,,,,,7,,,66,100
11328,note_on,,,,,92,0,13,,,,,6,,,69,100
11328,note_on,,,,,92,0,11,,,,,4,,,50,99
11328,note_on,,,,,0,0,13,,,,,6,,,72,100
11328,note_on,,,,,92,0,12,,,,,5,,,38,99
11328,note_on,,,,,92,0,16,,,,,7,,,50,100
11328,note_on,,,,,92,0,8,,,,,1,,,81,105
11328,note_on,,,,,92,0,14,,,,,6,,,50,100
11392,note_off,,,,,256,0,10,,,,,3,,,62,100
11392,note_off,,,,,256,0,9,,,,,2,,,66,100
11428,note_off,,,,,100,0,12,,,,,5,,,38,100
11428,note_off,,,,,100,0,13,,,,,6,,,69,100
11428,note_off,,,,,100,0,14,,,,,6,,,50,100
11428,note_off,,,,,100,0,8,,,,,1,,,81,100
11428,note_off,,,,,100,0,11,,,,,4,,,50,100
11428,note_off,,,,,0,0,13,,,,,6,,,72,100
11428,note_off,,,,,100,0,16,,,,,7,,,50,100
11520,note_on,,,,,92,0,13,,,,,6,,,62,100
11520,note_on,,,,,92,0,14,,,,,6,,,43,100
11520,note_on,,,,,128,0,9,,,,,2,,,62,98
11520,note_on,,,,,92,0,12,,,,,5,,,31,98
11520,note_on,,,,,92,0,8,,,,,1,,,78,101
11520,note_on,,,,,92,0,16,,,,,7,,,43,100
11520,note_on,,,,,92,0,11,,,,,4,,,43,98
11520,note_on,,,,,128,0,10,,,,,3,,,62,98
11520,note_on,,,,,0,0,13,,,,,6,,,66,100
11520,note_on,,,,,0,0,15,,,,,7,,,62,100
11520,note_on,,,,,232,0,15,,,,,7,,,71,100
11520,note_on,,,,,0,0,15,,,,,7,,,66,100
11520,note_on,,,,,0,0,13,,,,,6,,,71,100
11584,note_off,,,,,64,0,9,,,,,2,,,62,100
11616,note_on,,,,,32,0,9,,,,,2,,,64,98
11620,note_off,,,,,100,0,10,,,,,3,,,62,100
11680,note_off,,,,,64,0,9,,,,,2,,,64,100
11712,note_on,,,,,32,0,9,,,,,2,,,66,99
11712,note_on,,,,,92,0,10,,,,,3,,,60,98
11776,note_off,,,,,64,0,9,,,,,2,,,66,100
11776,note_off,,,,,256,0,16,,,,,7,,,43,100
11776,note_off,,,,,256,0,14,,,,,6,,,43,100
11776,note_off,,,,,0,0,13,,,,,6,,,66,100
11776,note_off,,,,,0,0,13,,,,,6,,,71,100
11776,note_off,,,,,256,0,11,,,,,4,,,43,100
11776,note_off,,,,,256,0,12,,,,,5,,,31,100
11776,note_off,,,,,256,0,13,,,,,6,,,62,100
11808,note_on,,,,,32,0,9,,,,,2,,,67,100
11812,note_off,,,,,100,0,10,,,,,3,,,60,100
11872,note_off,,,,,64,0,9,,,,,2,,,67,100
11900,note_off,,,,,380,0,8,,,,,1,,,78,100
11904,note_on,,,,,4,0,8,,,,,1,,,74,98
11904,note_on,,,,,32,0,9,,,,,2,,,69,101
11904,note_on,,,,,92,0,10,,,,,3,,,59,98
11968,note_off,,,,,64,0,9,,,,,2,,,69,100
12000,note_on,,,,,32,0,9,,,,,2,,,71,101
12004,note_off,,,,,100,0,10,,,,,3,,,59,100
12064,note_off,,,,,64,0,9,,,,,2,,,71,100
12096,note_on,,,,,320,0,11,,,,,4,,,43,97
12096,note_on,,,,,320,0,14,,,,,6,,,43,100
12096,note_on,,,,,32,0,9,,,,,2,,,72,102
12096,note_on,,,,,320,0,13,,,,,6,,,62,100
12096,note_on,,,,,92,0,10,,,,,3,,,57,97
12096,note_on,,,,,320,0,12,,,,,5,,,31,97
12096,note_on,,,,,320,0,16,,,,,7,,,43,100
12096,note_on,,,,,0,0,13,,,,,6,,,66,100
12160,note_off,,,,,256,0,8,,,,,1,,,74,100
12160,note_off,,,,,64,0,9,,,,,2,,,72,100
12192,note_on,,,,,32,0,9,,,,,2,,,74,103
12196,note_off,,,,,100,0,10,,,,,3,,,57,100
12196,note_off,,,,,100,0,16,,,,,7,,,43,100
12196,note_off,,,,,0,0,13,,,,,6,,,66,100
12196,note_off,,,,,100,0,11,,,,,4,,,43,100
12196,note_off,,,,,100,0,12,,,,,5,,,31,100
12196,note_off,,,,,100,0,13,,,,,6,,,62,100
12196,note_off,,,,,100,0,14,,,,,6,,,43,100
12256,note_off,,,,,64,0,9,,,,,2,,,74,100
12288,note_on,,,,,92,0,14,,,,,6,,,47,100
12288,note_on,,,,,128,0,8,,,,,1,,,71,94
12288,note_on,,,,,92,0,16,,,,,7,,,47,100
12288,note_on,,,,,0,0,13,,,,,6,,,66,100
12288,note_on,,,,,92,0,13,,,,,6,,,71,100
12288,note_on,,,,,92,0,10,,,,,3,,,55,97
12288,note_on,,,,,92,0,11,,,,,4,,,47,97
12288,note_on,,,,,32,0,9,,,,,2,,,62,104
12288,note_on,,,,,92,0,12,,,,,5,,,35,97
12388,note_off,,,,,100,0,14,,,,,6,,,47,100
12388,note_off,,,,,0,0,13,,,,,6,,,66,100
12388,note_off,,,,,100,0,13,,,,,6,,,71,100
12388,note_off,,,,,100,0,11,,,,,4,,,47,100
12388,note_off,,,,,100,0,16,,,,,7,,,47,100
12388,note_off,,,,,100,0,9,,,,,2,,,62,100
12388,note_off,,,,,100,0,12,,,,,5,,,35,100
12440,note_off,,,,,920,0,15,,,,,7,,,71,100
12440,note_off,,,,,0,0,15,,,,,7,,,66,100
12440,note_off,,,,,0,0,15,,,,,7,,,62,100
12480,note_on,,,,,92,0,16,,,,,7,,,43,100
12480,note_on,,,,,92,0,13,,,,,6,,,62,100
12480,note_on,,,,,0,0,13,,,,,6,,,66,100
12480,note_on,,,,,92,0,11,,,,,4,,,43,97
12480,note_on,,,,,92,0,14,,,,,6,,,43,100
12480,note_on,,,,,92,0,9,,,,,2,,,74,105
12480,note_on,,,,,92,0,12,,,,,5,,,31,97
12544,note_off,,,,,256,0,10,,,,,3,,,55,100
12544,note_off,,,,,256,0,8,,,,,1,,,71,100
12580,note_off,,,,,100,0,9,,,,,2,,,74,100
12580,note_off,,,,,100,0,16,,,,,7,,,43,100
12580,note_off,,,,,100,0,14,,,,,6,,,43,100
12580,note_off,,,,,100,0,12,,,,,5,,,31,100
12580,note_off,,,,,100,0,11,,,,,4,,,43,100
12580,note_off,,,,,100,0,13,,,,,6,,,62,100
12580,note_off,,,,,0,0,13,,,,,6,,,66,100
12672,note_on,,,,,128,0,8,,,,,1,,,67,96
12672,note_on,,,,,92,0,9,,,,,2,,,71,99
12672,note_on,,,,,92,0,16,,,,,7,,,48,100
12672,note_on,,,,,92,0,13,,,,,6,,,60,100
12672,note_on,,,,,128,0,10,,,,,3,,,67,96
12672,note_on,,,,,92,0,14,,,,,6,,,48,100
12672,note_on,,,,,92,0,12,,,,,5,,,36,96
12672,note_on,,,,,232,0,15,,,,,7,,,64,100
12672,note_on,,,,,0,0,15,,,,,7,,,67,100
12672,note_on,,,,,92,0,11,,,,,4,,,48,96
12672,note_on,,,,,0,0,13,,,,,6,,,64,100
12672,note_on,,,,,0,0,15,,,,,7,,,71,100
12736,note_off,,,,,64,0,8,,,,,1,,,67,100
12768,note_on,,,,,32,0,8,,,,,1,,,69,96
12772,note_off,,,,,100,0,10,,,,,3,,,67,100
12832,note_off,,,,,64,0,8,,,,,1,,,69,100
12864,note_on,,,,,32,0,8,,,,,1,,,71,97
12864,note_on,,,,,92,0,10,,,,,3,,,66,96
12928,note_off,,,,,0,0,13,,,,,6,,,64,100
12928,note_off,,,,,256,0,14,,,,,6,,,48,100
12928,note_off,,,,,256,0,12,,,,,5,,,36,100
12928,note_off,,,,,64,0,8,,,,,1,,,71,100
12928,note_off,,,,,256,0,16,,,,,7,,,48,100
12928,note_off,,,,,256,0,13,,,,,6,,,60,100
12928,note_off,,,,,256,0,11,,,,,4,,,48,100
12960,note_on,,,,,32,0,8,,,,,1,,,72,97
12964,note_off,,,,,100,0,10,,,,,3,,,66,100
13024,note_off,,,,,64,0,8,,,,,1,,,72,100
13052,note_off,,,,,380,0,9,,,,,2,,,71,100
13056,note_on,,,,,4,0,9,,,,,2,,,67,95
13056,note_on,,,,,32,0,8,,,,,1,,,74,98
13056,note_on,,,,,92,0,10,,,,,3,,,64,96
13120,note_off,,,,,64,0,8,,,,,1,,,74,100
13152,note_on,,,,,32,0,8,,,,,1,,,76,98
13156,note_off,,,,,100,0,10,,,,,3,,,64,100
13216,note_off,,,,,64,0,8,,,,,1,,,76,100
13248,note_on,,,,,92,0,10,,,,,3,,,62,95
13248,note_on,,,,,32,0,8,,,,,1,,,78,99
13248,note_on,,,,,0,0,13,,,,,6,,,67,100
13248,note_on,,,,,320,0,13,,,,,6,,,71,100
13248,note_on,,,,,320,0,12,,,,,5,,,36,95
13248,note_on,,,,,320,0,14,,,,,6,,,48,100
13248,note_on,,,,,320,0,11,,,,,4,,,48,95
13248,note_on,,,,,320,0,16,,,,,7,,,48,100
13312,note_off,,,,,64,0,8,,,,,1,,,78,100
13312,note_off,,,,,256,0,9,,,,,2,,,67,100
13344,note_on,,,,,32,0,8,,,,,1,,,79,100
13348,note_off,,,,,100,0,12,,,,,5,,,36,100
13348,note_off,,,,,0,0,13,,,,,6,,,67,100
13348,note_off,,,,,100,0,16,,,,,7,,,48,100
13348,note_off,,,,,100,0,14,,,,,6,,,48,100
13348,note_off,,,,,100,0,11,,,,,4,,,48,100
13348,note_off,,,,,100,0,10,,,,,3,,,62,100
13348,note_off,,,,,100,0,13,,,,,6,,,71,100
13408,note_off,,,,,64,0,8,,,,,1,,,79,100
13440,note_on,,,,,32,0,8,,,,,1,,,67,100
13440,note_on,,,,,92,0,11,,,,,4,,,52,95
13440,note_on,,,,,92,0,10,,,,,3,,,60,95
13440,note_on,,,,,128,0,9,,,,,2,,,64,90
13440,note_on,,,,,92,0,12,,,,,5,,,40,95
13440,note_on,,,,,0,0,13,,,,,6,,,71,100
13440,note_on,,,,,92,0,13,,,,,6,,,72,100
13440,note_on,,,,,92,0,16,,,,,7,,,52,100
13440,note_on,,,,,92,0,14,,,,,6,,,52,100
13540,note_off,,,,,100,0,11,,,,,4,,,52,100
13540,note_off,,,,,100,0,16,,,,,7,,,52,100
13540,note_off,,,,,100,0,12,,,,,5,,,40,100
13540,note_off,,,,,100,0,13,,,,,6,,,72,100
13540,note_off,,,,,100,0,8,,,,,1,,,67,100
13540,note_off,,,,,100,0,14,,,,,6,,,52,100
13540,note_off,,,,,0,0,13,,,,,6,,,71,100
13592,note_off,,,,,0,0,15,,,,,7,,,71,100
13592,note_off,,,,,920,0,15,,,,,7,,,64,100
13592,note_off,,,,,0,0,15,,,,,7,,,67,100
13632,note_on,,,,,92,0,12,,,,,5,,,36,95
13632,note_on,,,,,92,0,11,,,,,4,,,48,95
13632,note_on,,,,,0,0,13,,,,,6,,,67,100
13632,note_on,,,,,92,0,8,,,,,1,,,79,101
13632,note_on,,,,,92,0,14,,,,,6,,,48,100
13632,note_on,,,,,92,0,16,,,,,7,,,48,100
13632,note_on,,,,,92,0,13,,,,,6,,,71,100
13696,note_off,,,,,256,0,9,,,,,2,,,64,100
13696,note_off,,,,,256,0,10,,,,,3,,,60,100
13732,note_off,,,,,100,0,13,,,,,6,,,71,100
13732,note_off,,,,,0,0,13,,,,,6,,,67,100
13732,note_off,,,,,100,0,14,,,,,6,,,48,100
13732,note_off,,,,,100,0,11,,,,,4,,,48,100
13732,note_off,,,,,100,0,12,,,,,5,,,36,100
13732,note_off,,,,,100,0,16,,,,,7,,,48,100
13732,note_off,,,,,100,0,8,,,,,1,,,79,100
13824,note_on,,,,,0,0,13,,,,,6,,,64,100
13824,note_on,,,,,0,0,13,,,,,6,,,69,100
13824,note_on,,,,,92,0,12,,,,,5,,,42,94
13824,note_on,,,,,92,0,13,,,,,6,,,60,100
13824,note_on,,,,,92,0,16,,,,,7,,,42,100
13824,note_on,,,,,128,0,10,,,,,3,,,60,94
13824,note_on,,,,,92,0,11,,,,,4,,,42,94
13824,note_on,,,,,92,0,8,,,,,1,,,76,97
13824,note_on,,,,,92,0,14,,,,,6,,,42,100
13824,note_on,,,,,128,0,9,,,,,2,,,60,94
13824,note_on,,,,,232,0,15,,,,,7,,,69,100
13824,note_on,,,,,0,0,15,,,,,7,,,64,100
13824,note_on,,,,,0,0,15,,,,,7,,,60,100
13888,note_off,,,,,64,0,9,,,,,2,,,60,100
13920,note_on,,,,,32,0,9,,,,,2,,,62,94
13924,note_off,,,,,100,0,10,,,,,3,,,60,100
13984,note_off,,,,,64,0,9,,,,,2,,,62,100
14016,note_on,,,,,32,0,9,,,,,2,,,64,95
14016,note_on,,,,,92,0,10,,,,,3,,,59,94
14080,note_off,,,,,256,0,13,,,,,6,,,60,100
14080,note_off,,,,,256,0,14,,,,,6,,,42,100
14080,note_off,,,,,256,0,12,,,,,5,,,42,100
14080,note_off,,,,,0,0,13,,,,,6,,,64,100
14080,note_off,,,,,64,0,9,,,,,2,,,64,100
14080,note_off,,,,,0,0,13,,,,,6,,,69,100
14080,note_off,,,,,256,0,11,,,,,4,,,42,100
14080,note_off,,,,,256,0,16,,,,,7,,,42,100
14112,note_on,,,,,32,0,9,,,,,2,,,66,95
14116,note_off,,,,,100,0,10,,,,,3,,,59,100
14176,note_off,,,,,64,0,9,,,,,2,,,66,100
14204,note_off,,,,,380,0,8,,,,,1,,,76,100
14208,note_on,,,,,4,0,8,,,,,1,,,72,94
14208,note_on,,,,,32,0,9,,,,,2,,,67,96
14208,note_on,,,,,92,0,10,,,,,3,,,57,94
14272,note_off,,,,,64,0,9,,,,,2,,,67,100
14304,note_on,,,,,32,0,9,,,,,2,,,69,96
14308,note_off,,,,,100,0,10,,,,,3,,,57,100
14368,note_off,,,,,64,0,9,,,,,2,,,69,100
14400,note_on,,,,,32,0,9,,,,,2,,,71,97
14400,note_on,,,,,0,0,13,,,,,6,,,64,100
14400,note_on,,,,,320,0,13,,,,,6,,,60,100
14400,note_on,,,,,320,0,12,,,,,5,,,42,93
14400,note_on,,,,,320,0,16,,,,,7,,,42,100
14400,note_on,,,,,320,0,14,,,,,6,,,42,100
14400,note_on,,,,,320,0,11,,,,,4,,,42,93
14400,note_on,,,,,92,0,10,,,,,3,,,55,93
14464,note_off,,,,,256,0,8,,,,,1,,,72,100
14464,note_off,,,,,64,0,9,,,,,2,,,71,100
14496,note_on,,,,,32,0,9,,,,,2,,,72,98
14500,note_off,,,,,100,0,11,,,,,4,,,42,100
14500,note_off,,,,,100,0,16,,,,,7,,,42,100
14500,note_off,,,,,0,0,13,,,,,6,,,64,100
14500,note_off,,,,,100,0,10,,,,,3,,,55,100
14500,note_off,,,,,100,0,13,,,,,6,,,60,100
14500,note_off,,,,,100,0,12,,,,,5,,,42,100
14500,note_off,,,,,100,0,14,,,,,6,,,42,100
14560,note_off,,,,,64,0,9,,,,,2,,,72,100
14592,note_on,,,,,92,0,12,,,,,5,,,33,93
14592,note_on,,,,,92,0,14,,,,,6,,,45,100
14592,note_on,,,,,32,0,9,,,,,2,,,60,98
14592,note_on,,,,,92,0,16,,,,,7,,,45,100
14592,note_on,,,,,0,0,13,,,,,6,,,64,100
14592,note_on,,,,,92,0,13,,,,,6,,,69,100
14592,note_on,,,,,128,0,8,,,,,1,,,69,90
14592,note_on,,,,,92,0,11,,,,,4,,,45,93
14592,note_on,,,,,92,0,10,,,,,3,,,54,93
14692,note_off,,,,,100,0,9,,,,,2,,,60,100
14692,note_off,,,,,100,0,13,,,,,6,,,69,100
14692,note_off,,,,,100,0,11,,,,,4,,,45,100
14692,note_off,,,,,0,0,13,,,,,6,,,64,100
14692,note_off,,,,,100,0,14,,,,,6,,,45,100
14692,note_off,,,,,100,0,12,,,,,5,,,33,100
14692,note_off,,,,,100,0,16,,,,,7,,,45,100
14744,note_off,,,,,920,0,15,,,,,7,,,69,100
14744,note_off,,,,,0,0,15,,,,,7,,,60,100
14744,note_off,,,,,0,0,15,,,,,7,,,64,100
14784,note_on,,,,,92,0,9,,,,,2,,,72,99
14784,note_on,,,,,92,0,16,,,,,7,,,42,100
14784,note_on,,,,,92,0,14,,,,,6,,,42,100
14784,note_on,,,,,92,0,13,,,,,6,,,60,100
14784,note_on,,,,,0,0,13,,,,,6,,,64,100
14784,note_on,,,,,92,0,11,,,,,4,,,42,93
14784,note_on,,,,,92,0,12,,,,,5,,,42,93
14848,note_off,,,,,256,0,8,,,,,1,,,69,100
14848,note_off,,,,,256,0,10,,,,,3,,,54,100
14884,note_off,,,,,100,0,16,,,,,7,,,42,100
14884,note_off,,,,,100,0,14,,,,,6,,,42,100
14884,note_off,,,,,100,0,11,,,,,4,,,42,100
14884,note_off,,,,,100,0,12,,,,,5,,,42,100
14884,note_off,,,,,100,0,13,,,,,6,,,60,100
14884,note_off,,,,,100,0,9,,,,,2,,,72,100
14884,note_off,,,,,0,0,13,,,,,6,,,64,100
14976,note_on,,,,,128,0,8,,,,,1,,,66,92
14976,note_on,,,,,0,0,15,,,,,7,,,63,100
14976,note_on,,,,,92,0,14,,,,,6,,,47,100
14976,note_on,,,,,0,0,15,,,,,7,,,69,100
14976,note_on,,,,,0,0,13,,,,,6,,,63,100
14976,note_on,,,,,232,0,15,,,,,7,,,66,100
14976,note_on,,,,,92,0,11,,,,,4,,,47,92
14976,note_on,,,,,128,0,10,,,,,3,,,66,92
14976,note_on,,,,,92,0,13,,,,,6,,,59,100
14976,note_on,,,,,92,0,9,,,,,2,,,69,100
14976,note_on,,,,,92,0,16,,,,,7,,,47,100
14976,note_on,,,,,92,0,12,,,,,5,,,35,92
15040,note_off,,,,,64,0,8,,,,,1,,,66,100
15072,note_on,,,,,32,0,8,,,,,1,,,67,92
15076,note_off,,,,,100,0,10,,,,,3,,,66,100
15136,note_off,,,,,64,0,8,,,,,1,,,67,100
15168,note_on,,,,,32,0,8,,,,,1,,,69,93
15168,note_on,,,,,92,0,10,,,,,3,,,64,92
15232,note_off,,,,,256,0,14,,,,,6,,,47,100
15232,note_off,,,,,256,0,11,,,,,4,,,47,100
15232,note_off,,,,,256,0,16,,,,,7,,,47,100
15232,note_off,,,,,256,0,12,,,,,5,,,35,100
15232,note_off,,,,,64,0,8,,,,,1,,,69,100
15232,note_off,,,,,256,0,13,,,,,6,,,59,100
15232,note_off,,,,,0,0,13,,,,,6,,,63,100
15264,note_on,,,,,32,0,8,,,,,1,,,71,93
15268,note_off,,,,,100,0,10,,,,,3,,,64,100
15328,note_off,,,,,64,0,8,,,,,1,,,71,100
15356,note_off,,,,,380,0,9,,,,,2,,,69,100
15360,note_on,,,,,4,0,9,,,,,2,,,66,97
15360,note_on,,,,,32,0,8,,,,,1,,,73,94
15360,note_on,,,,,92,0,10,,,,,3,,,63,92
15424,note_off,,,,,64,0,8,,,,,1,,,73,100
15456,note_on,,,,,32,0,8,,,,,1,,,75,94
15460,note_off,,,,,100,0,10,,,,,3,,,63,100
15520,note_off,,,,,64,0,8,,,,,1,,,75,100
15552,note_on,,,,,92,0,10,,,,,3,,,61,91
15552,note_on,,,,,320,0,14,,,,,6,,,47,100
15552,note_on,,,,,320,0,12,,,,,5,,,35,91
15552,note_on,,,,,320,0,16,,,,,7,,,47,100
15552,note_on,,,,,320,0,13,,,,,6,,,66,100
15552,note_on,,,,,0,0,13,,,,,6,,,69,100
15552,note_on,,,,,320,0,11,,,,,4,,,47,91
15552,note_on,,,,,32,0,8,,,,,1,,,76,95
15616,note_off,,,,,64,0,8,,,,,1,,,76,100
15616,note_off,,,,,256,0,9,,,,,2,,,66,100
15648,note_on,,,,,32,0,8,,,,,1,,,78,96
15652,note_off,,,,,100,0,12,,,,,5,,,35,100
15652,note_off,,,,,100,0,16,,,,,7,,,47,100
15652,note_off,,,,,100,0,14,,,,,6,,,47,100
15652,note_off,,,,,100,0,10,,,,,3,,,61,100
15652,note_off,,,,,100,0,11,,,,,4,,,47,100
15652,note_off,,,,,100,0,13,,,,,6,,,66,100
15652,note_off,,,,,0,0,13,,,,,6,,,69,100
15712,note_off,,,,,64,0,8,,,,,1,,,78,100
15744,note_on,,,,,32,0,8,,,,,1,,,66,96
15744,note_on,,,,,92,0,10,,,,,3,,,59,91
15744,note_on,,,,,92,0,16,,,,,7,,,51,100
15744,note_on,,,,,92,0,11,,,,,4,,,51,91
15744,note_on,,,,,92,0,12,,,,,5,,,39,91
15744,note_on,,,,,92,0,13,,,,,6,,,71,100
15744,note_on,,,,,0,0,13,,,,,6,,,69,100
15744,note_on,,,,,128,0,9,,,,,2,,,63,94
15744,note_on,,,,,92,0,14,,,,,6,,,51,100
15844,note_off,,,,,0,0,13,,,,,6,,,69,100
15844,note_off,,,,,100,0,8,,,,,1,,,66,100
15844,note_off,,,,,100,0,16,,,,,7,,,51,100
15844,note_off,,,,,100,0,14,,,,,6,,,51,100
15844,note_off,,,,,100,0,11,,,,,4,,,51,100
15844,note_off,,,,,100,0,13,,,,,6,,,71,100
15844,note_off,,,,,100,0,12,,,,,5,,,39,100
15896,note_off,,,,,920,0,15,,,,,7,,,66,100
15896,note_off,,,,,0,0,15,,,,,7,,,63,100
15896,note_off,,,,,0,0,15,,,,,7,,,69,100
15936,note_on,,,,,92,0,8,,,,,1,,,78,95
15936,note_on,,,,,92,0,13,,,,,6,,,66,100
15936,note_on,,,,,92,0,12,,,,,5,,,35,91
15936,note_on,,,,,92,0,14,,,,,6,,,47,100
15936,note_on,,,,,0,0,13,,,,,6,,,69,100
15936,note_on,,,,,92,0,16,,,,,7,,,47,100
15936,note_on,,,,,92,0,11,,,,,4,,,47,91
16000,note_off,,,,,256,0,10,,,,,3,,,59,100
16000,note_off,,,,,256,0,9,,,,,2,,,63,100
16036,note_off,,,,,0,0,13,,,,,6,,,69,100
16036,note_off,,,,,100,0,8,,,,,1,,,78,100
16036,note_off,,,,,100,0,13,,,,,6,,,66,100
16036,note_off,,,,,100,0,16,,,,,7,,,47,100
16036,note_off,,,,,100,0,14,,,,,6,,,47,100
16036,note_off,,,,,100,0,12,,,,,5,,,35,100
16036,note_off,,,,,100,0,11,,,,,4,,,47,100
16128,note_on,,,,,92,0,12,,,,,5,,,40,90
16128,note_on,,,,,232,0,15,,,,,7,,,71,100
16128,note_on,,,,,0,0,15,,,,,7,,,67,100
16128,note_on,,,,,0,0,15,,,,,7,,,64,100
16128,note_on,,,,,92,0,14,,,,,6,,,52,100
16128,note_on,,,,,92,0,8,,,,,1,,,67,93
16128,note_on,,,,,92,0,11,,,,,4,,,52,90
16128,note_on,,,,,128,0,10,,,,,3,,,59,90
16128,note_on,,,,,92,0,16,,,,,7,,,52,100
16128,note_on,,,,,128,0,9,,,,,2,,,59,91
16128,note_on,,,,,0,0,13,,,,,6,,,67,100
16128,note_on,,,,,0,0,13,,,,,6,,,64,100
16128,note_on,,,,,92,0,13,,,,,6,,,71,100
16228,note_off,,,,,100,0,8,,,,,1,,,67,100
16320,note_on,,,,,92,0,8,,,,,1,,,71,91
16384,note_off,,,,,256,0,14,,,,,6,,,52,100
16384,note_off,,,,,0,0,13,,,,,6,,,67,100
16384,note_off,,,,,0,0,13,,,,,6,,,64,100
16384,note_off,,,,,256,0,10,,,,,3,,,59,100
16384,note_off,,,,,256,0,13,,,,,6,,,71,100
16384,note_off,,,,,256,0,12,,,,,5,,,40,100
16384,note_off,,,,,256,0,16,,,,,7,,,52,100
16384,note_off,,,,,256,0,9,,,,,2,,,59,100
16384,note_off,,,,,256,0,11,,,,,4,,,52,100
16420,note_off,,,,,100,0,8,,,,,1,,,71,100
16512,note_on,,,,,92,0,8,,,,,1,,,76,89
16704,note_on,,,,,320,0,10,,,,,3,,,67,85
16704,note_on,,,,,320,0,12,,,,,5,,,40,85
16704,note_on,,,,,320,0,16,,,,,7,,,52,100
16704,note_on,,,,,320,0,9,,,,,2,,,71,85
16704,note_on,,,,,320,0,13,,,,,6,,,64,100
16704,note_on,,,,,0,0,13,,,,,6,,,59,100
16704,note_on,,,,,320,0,14,,,,,6,,,52,100
16704,note_on,,,,,320,0,11,,,,,4,,,52,85
16768,note_off,,,,,256,0,8,,,,,1,,,76,100
16804,note_off,,,,,100,0,11,,,,,4,,,52,100
16804,note_off,,,,,100,0,14,,,,,6,,,52,100
16804,note_off,,,,,100,0,16,,,,,7,,,52,100
16804,note_off,,,,,0,0,13,,,,,6,,,59,100
16804,note_off,,,,,100,0,13,,,,,6,,,64,100
16804,note_off,,,,,100,0,12,,,,,5,,,40,100
16804,note_off,,,,,100,0,10,,,,,3,,,67,100
16804,note_off,,,,,100,0,9,,,,,2,,,71,100
16896,note_on,,,,,0,0,13,,,,,6,,,67,100
16896,note_on,,,,,92,0,13,,,,,6,,,64,100
16896,note_on,,,,,92,0,14,,,,,6,,,55,100
16896,note_on,,,,,92,0,12,,,,,5,,,43,85
16896,note_on,,,,,92,0,10,,,,,3,,,71,85
16896,note_on,,,,,92,0,9,,,,,2,,,76,85
16896,note_on,,,,,92,0,16,,,,,7,,,55,100
16896,note_on,,,,,92,0,11,,,,,4,,,55,85
16996,note_off,,,,,100,0,16,,,,,7,,,55,100
16996,note_off,,,,,100,0,11,,,,,4,,,55,100
16996,note_off,,,,,100,0,13,,,,,6,,,64,100
16996,note_off,,,,,100,0,12,,,,,5,,,43,100
16996,note_off,,,,,100,0,14,,,,,6,,,55,100
16996,note_off,,,,,0,0,13,,,,,6,,,67,100
17048,note_off,,,,,0,0,15,,,,,7,,,67,100
17048,note_off,,,,,0,0,15,,,,,7,,,64,100
17048,note_off,,,,,920,0,15,,,,,7,,,71,100
17088,note_on,,,,,92,0,14,,,,,6,,,52,100
17088,note_on,,,,,92,0,12,,,,,5,,,40,85
17088,note_on,,,,,0,0,13,,,,,6,,,59,100
17088,note_on,,,,,92,0,13,,,,,6,,,64,100
17088,note_on,,,,,92,0,16,,,,,7,,,52,100
17088,note_on,,,,,92,0,11,,,,,4,,,52,85
17088,note_on,,,,,320,0,8,,,,,1,,,79,85
17152,note_off,,,,,256,0,9,,,,,2,,,76,100
17152,note_off,,,,,256,0,10,,,,,3,,,71,100
17188,note_off,,,,,100,0,12,,,,,5,,,40,100
17188,note_off,,,,,100,0,16,,,,,7,,,52,100
17188,note_off,,,,,0,0,13,,,,,6,,,59,100
17188,note_off,,,,,100,0,13,,,,,6,,,64,100
17188,note_off,,,,,100,0,14,,,,,6,,,52,100
17188,note_off,,,,,100,0,11,,,,,4,,,52,100
17188,note_off,,,,,100,0,8,,,,,1,,,79,100
17280,note_on,,,,,0,0,13,,,,,6,,,63,100
17280,note_on,,,,,92,0,13,,,,,6,,,66,100
17280,note_on,,,,,92,0,16,,,,,7,,,47,100
17280,note_on,,,,,128,0,10,,,,,3,,,63,85
17280,note_on,,,,,92,0,12,,,,,5,,,35,85
17280,note_on,,,,,0,0,13,,,,,6,,,59,100
17280,note_on,,,,,92,0,11,,,,,4,,,47,85
17280,note_on,,,,,232,0,15,,,,,7,,,71,100
17280,note_on,,,,,0,0,15,,,,,7,,,66,100
17280,note_on,,,,,0,0,15,,,,,7,,,63,100
17280,note_on,,,,,92,0,14,,,,,6,,,47,100
17280,note_on,,,,,92,0,8,,,,,1,,,78,85
17380,note_off,,,,,100,0,8,,,,,1,,,78,100
17472,note_on,,,,,320,0,9,,,,,2,,,75,85
17472,note_on,,,,,92,0,8,,,,,1,,,71,85
17536,note_off,,,,,0,0,13,,,,,6,,,59,100
17536,note_off,,,,,256,0,14,,,,,6,,,47,100
17536,note_off,,,,,256,0,10,,,,,3,,,63,100
17536,note_off,,,,,0,0,13,,,,,6,,,63,100
17536,note_off,,,,,256,0,11,,,,,4,,,47,100
17536,note_off,,,,,256,0,16,,,,,7,,,47,100
17536,note_off,,,,,256,0,12,,,,,5,,,35,100
17536,note_off,,,,,256,0,13,,,,,6,,,66,100
17572,note_off,,,,,100,0,9,,,,,2,,,75,100
17572,note_off,,,,,100,0,8,,,,,1,,,71,100
17664,note_on,,,,,92,0,9,,,,,2,,,78,85
17664,note_on,,,,,92,0,8,,,,,1,,,63,85
17764,note_off,,,,,100,0,9,,,,,2,,,78,100
17856,note_on,,,,,320,0,11,,,,,4,,,47,86
17856,note_on,,,,,320,0,10,,,,,3,,,63,86
17856,note_on,,,,,320,0,14,,,,,6,,,47,100
17856,note_on,,,,,92,0,9,,,,,2,,,71,86
17856,note_on,,,,,320,0,13,,,,,6,,,63,100
17856,note_on,,,,,320,0,16,,,,,7,,,47,100
17856,note_on,,,,,320,0,12,,,,,5,,,35,86
17856,note_on,,,,,0,0,13,,,,,6,,,66,100
17920,note_off,,,,,256,0,8,,,,,1,,,63,100
17956,note_off,,,,,100,0,11,,,,,4,,,47,100
17956,note_off,,,,,100,0,9,,,,,2,,,71,100
17956,note_off,,,,,100,0,12,,,,,5,,,35,100
17956,note_off,,,,,100,0,10,,,,,3,,,63,100
17956,note_off,,,,,100,0,14,,,,,6,,,47,100
17956,note_off,,,,,100,0,16,,,,,7,,,47,100
17956,note_off,,,,,0,0,13,,,,,6,,,66,100
17956,note_off,,,,,100,0,13,,,,,6,,,63,100
18048,note_on,,,,,92,0,16,,,,,7,,,51,100
18048,note_on,,,,,92,0,10,,,,,3,,,59,87
18048,note_on,,,,,92,0,13,,,,,6,,,66,100
18048,note_on,,,,,92,0,9,,,,,2,,,63,87
18048,note_on,,,,,0,0,13,,,,,6,,,71,100
18048,note_on,,,,,92,0,14,,,,,6,,,51,100
18048,note_on,,,,,92,0,12,,,,,5,,,39,87
18048,note_on,,,,,92,0,11,,,,,4,,,51,87
18148,note_off,,,,,100,0,16,,,,,7,,,51,100
18148,note_off,,,,,100,0,11,,,,,4,,,51,100
18148,note_off,,,,,100,0,12,,,,,5,,,39,100
18148,note_off,,,,,0,0,13,,,,,6,,,71,100
18148,note_off,,,,,100,0,13,,,,,6,,,66,100
18148,note_off,,,,,100,0,10,,,,,3,,,59,100
18148,note_off,,,,,100,0,14,,,,,6,,,51,100
18200,note_off,,,,,0,0,15,,,,,7,,,66,100
18200,note_off,,,,,0,0,15,,,,,7,,,63,100
18200,note_off,,,,,920,0,15,,,,,7,,,71,100
18240,note_on,,,,,92,0,16,,,,,7,,,47,100
18240,note_on,,,,,92,0,12,,,,,5,,,35,88
18240,note_on,,,,,320,0,8,,,,,1,,,78,88
18240,note_on,,,,,92,0,11,,,,,4,,,47,88
18240,note_on,,,,,92,0,10,,,,,3,,,63,88
18240,note_on,,,,,92,0,14,,,,,6,,,47,100
18240,note_on,,,,,92,0,13,,,,,6,,,66,100
18240,note_on,,,,,0,0,13,,,,,6,,,63,100
18304,note_off,,,,,256,0,9,,,,,2,,,63,100
18340,note_off,,,,,100,0,11,,,,,4,,,47,100
18340,note_off,,,,,100,0,13,,,,,6,,,66,100
18340,note_off,,,,,100,0,8,,,,,1,,,78,100
18340,note_off,,,,,0,0,13,,,,,6,,,63,100
18340,note_off,,,,,100,0,12,,,,,5,,,35,100
18340,note_off,,,,,100,0,14,,,,,6,,,47,100
18340,note_off,,,,,100,0,10,,,,,3,,,63,100
18340,note_off,,,,,100,0,16,,,,,7,,,47,100
18432,note_on,,,,,232,0,15,,,,,7,,,71,100
18432,note_on,,,,,92,0,14,,,,,6,,,52,100
18432,note_on,,,,,92,0,13,,,,,6,,,71,100
18432,note_on,,,,,0,0,13,,,,,6,,,67,100
18432,note_on,,,,,92,0,16,,,,,7,,,52,100
18432,note_on,,,,,92,0,8,,,,,1,,,79,89
18432,note_on,,,,,92,0,12,,,,,5,,,40,89
18432,note_on,,,,,0,0,13,,,,,6,,,64,100
18432,note_on,,,,,0,0,15,,,,,7,,,67,100
18432,note_on,,,,,0,0,15,,,,,7,,,64,100
18432,note_on,,,,,92,0,10,,,,,3,,,59,89
18432,note_on,,,,,92,0,11,,,,,4,,,52,89
18532,note_off,,,,,100,0,8,,,,,1,,,79,100
18624,note_on,,,,,320,0,9,,,,,2,,,76,90
18624,note_on,,,,,92,0,8,,,,,1,,,71,90
18688,note_off,,,,,0,0,13,,,,,6,,,67,100
18688,note_off,,,,,0,0,13,,,,,6,,,64,100
18688,note_off,,,,,256,0,13,,,,,6,,,71,100
18688,note_off,,,,,256,0,14,,,,,6,,,52,100
18688,note_off,,,,,256,0,12,,,,,5,,,40,100
18688,note_off,,,,,256,0,16,,,,,7,,,52,100
18688,note_off,,,,,256,0,11,,,,,4,,,52,100
18688,note_off,,,,,256,0,10,,,,,3,,,59,100
18724,note_off,,,,,100,0,9,,,,,2,,,76,100
18724,note_off,,,,,100,0,8,,,,,1,,,71,100
18816,note_on,,,,,92,0,9,,,,,2,,,79,92
18816,note_on,,,,,92,0,8,,,,,1,,,64,92
18916,note_off,,,,,100,0,9,,,,,2,,,79,100
19008,note_on,,,,,320,0,16,,,,,7,,,52,100
19008,note_on,,,,,320,0,14,,,,,6,,,52,100
19008,note_on,,,,,320,0,11,,,,,4,,,52,91
19008,note_on,,,,,320,0,10,,,,,3,,,55,91
19008,note_on,,,,,92,0,9,,,,,2,,,71,91
19008,note_on,,,,,320,0,13,,,,,6,,,64,100
19008,note_on,,,,,320,0,12,,,,,5,,,40,91
19008,note_on,,,,,0,0,13,,,,,6,,,59,100
19072,note_off,,,,,256,0,8,,,,,1,,,64,100
19108,note_off,,,,,100,0,13,,,,,6,,,64,100
19108,note_off,,,,,0,0,13,,,,,6,,,59,100
19108,note_off,,,,,100,0,11,,,,,4,,,52,100
19108,note_off,,,,,100,0,12,,,,,5,,,40,100
19108,note_off,,,,,100,0,14,,,,,6,,,52,100
19108,note_off,,,,,100,0,9,,,,,2,,,71,100
19108,note_off,,,,,100,0,16,,,,,7,,,52,100
19108,note_off,,,,,100,0,10,,,,,3,,,55,100
19200,note_on,,,,,92,0,13,,,,,6,,,64,100
19200,note_on,,,,,0,0,13,,,,,6,,,67,100
19200,note_on,,,,,92,0,16,,,,,7,,,55,100
19200,note_on,,,,,92,0,10,,,,,3,,,59,90
19200,note_on,,,,,92,0,14,,,,,6,,,55,100
19200,note_on,,,,,92,0,9,,,,,2,,,64,90
19200,note_on,,,,,92,0,11,,,,,4,,,55,90
19200,note_on,,,,,92,0,12,,,,,5,,,43,90
19300,note_off,,,,,0,0,13,,,,,6,,,67,100
19300,note_off,,,,,100,0,13,,,,,6,,,64,100
19300,note_off,,,,,100,0,14,,,,,6,,,55,100
19300,note_off,,,,,100,0,12,,,,,5,,,43,100
19300,note_off,,,,,100,0,16,,,,,7,,,55,100
19300,note_off,,,,,100,0,11,,,,,4,,,55,100
19300,note_off,,,,,100,0,10,,,,,3,,,59,100
19352,note_off,,,,,920,0,15,,,,,7,,,71,100
19352,note_off,,,,,0,0,15,,,,,7,,,67,100
19352,note_off,,,,,0,0,15,,,,,7,,,64,100
19392,note_on,,,,,92,0,13,,,,,6,,,64,100
19392,note_on,,,,,92,0,11,,,,,4,,,52,89
19392,note_on,,,,,92,0,14,,,,,6,,,52,100
19392,note_on,,,,,92,0,16,,,,,7,,,52,100
19392,note_on,,,,,0,0,13,,,,,6,,,59,100
19392,note_on,,,,,92,0,12,,,,,5,,,40,89
19392,note_on,,,,,92,0,10,,,,,3,,,59,89
19392,note_on,,,,,320,0,8,,,,,1,,,79,89
19456,note_off,,,,,256,0,9,,,,,2,,,64,100
19492,note_off,,,,,100,0,12,,,,,5,,,40,100
19492,note_off,,,,,0,0,13,,,,,6,,,59,100
19492,note_off,,,,,100,0,13,,,,,6,,,64,100
19492,note_off,,,,,100,0,14,,,,,6,,,52,100
19492,note_off,,,,,100,0,10,,,,,3,,,59,100
19492,note_off,,,,,100,0,8,,,,,1,,,79,100
19492,note_off,,,,,100,0,11,,,,,4,,,52,100
19492,note_off,,,,,100,0,16,,,,,7,,,52,100
19584,note_on,,,,,92,0,14,,,,,6,,,47,100
19584,note_on,,,,,92,0,10,,,,,3,,,63,88
19584,note_on,,,,,92,0,11,,,,,4,,,47,88
19584,note_on,,,,,232,0,15,,,,,7,,,71,100
19584,note_on,,,,,92,0,16,,,,,7,,,47,100
19584,note_on,,,,,0,0,15,,,,,7,,,63,100
19584,note_on,,,,,92,0,12,,,,,5,,,35,88
19584,note_on,,,,,92,0,8,,,,,1,,,78,88
19584,note_on,,,,,0,0,15,,,,,7,,,66,100
19584,note_on,,,,,92,0,13,,,,,6,,,66,100
19584,note_on,,,,,0,0,13,,,,,6,,,59,100
19584,note_on,,,,,0,0,13,,,,,6,,,63,100
19684,note_off,,,,,100,0,8,,,,,1,,,78,100
19776,note_on,,,,,320,0,9,,,,,2,,,75,87
19776,note_on,,,,,92,0,8,,,,,1,,,71,87
19840,note_off,,,,,256,0,12,,,,,5,,,35,100
19840,note_off,,,,,256,0,11,,,,,4,,,47,100
19840,note_off,,,,,256,0,10,,,,,3,,,63,100
19840,note_off,,,,,0,0,13,,,,,6,,,63,100
19840,note_off,,,,,256,0,14,,,,,6,,,47,100
19840,note_off,,,,,0,0,13,,,,,6,,,59,100
19840,note_off,,,,,256,0,13,,,,,6,,,66,100
19840,note_off,,,,,256,0,16,,,,,7,,,47,100
19876,note_off,,,,,100,0,8,,,,,1,,,71,100
19876,note_off,,,,,100,0,9,,,,,2,,,75,100
19968,note_on,,,,,92,0,9,,,,,2,,,78,85
19968,note_on,,,,,92,0,8,,,,,1,,,63,85
20068,note_off,,,,,100,0,9,,,,,2,,,78,100
20160,note_on,,,,,320,0,13,,,,,6,,,63,100
20160,note_on,,,,,0,0,13,,,,,6,,,66,100
20160,note_on,,,,,320,0,14,,,,,6,,,47,100
20160,note_on,,,,,320,0,16,,,,,7,,,47,100
20160,note_on,,,,,320,0,11,,,,,4,,,47,85
20160,note_on,,,,,320,0,12,,,,,5,,,35,85
20160,note_on,,,,,320,0,10,,,,,3,,,63,85
20160,note_on,,,,,92,0,9,,,,,2,,,71,85
20224,note_off,,,,,256,0,8,,,,,1,,,63,100
20260,note_off,,,,,100,0,10,,,,,3,,,63,100
20260,note_off,,,,,100,0,12,,,,,5,,,35,100
20260,note_off,,,,,0,0,13,,,,,6,,,66,100
20260,note_off,,,,,100,0,11,,,,,4,,,47,100
20260,note_off,,,,,100,0,16,,,,,7,,,47,100
20260,note_off,,,,,100,0,13,,,,,6,,,63,100
20260,note_off,,,,,100,0,14,,,,,6,,,47,100
20260,note_off,,,,,100,0,9,,,,,2,,,71,100
20352,note_on,,,,,92,0,13,,,,,6,,,66,100
20352,note_on,,,,,92,0,12,,,,,5,,,39,85
20352,note_on,,,,,92,0,16,,,,,7,,,51,100
20352,note_on,,,,,92,0,11,,,,,4,,,51,85
20352,note_on,,,,,92,0,14,,,,,6,,,51,100
20352,note_on,,,,,92,0,10,,,,,3,,,59,85
20352,note_on,,,,,0,0,13,,,,,6,,,71,100
20352,note_on,,,,,92,0,9,,,,,2,,,63,85
20452,note_off,,,,,100,0,12,,,,,5,,,39,100
20452,note_off,,,,,100,0,11,,,,,4,,,51,100
20452,note_off,,,,,100,0,9,,,,,2,,,63,100
20452,note_off,,,,,100,0,10,,,,,3,,,59,100
20452,note_off,,,,,100,0,14,,,,,6,,,51,100
20452,note_off,,,,,100,0,13,,,,,6,,,66,100
20452,note_off,,,,,100,0,16,,,,,7,,,51,100
20452,note_off,,,,,0,0,13,,,,,6,,,71,100
20504,note_off,,,,,0,0,15,,,,,7,,,63,100
20504,note_off,,,,,0,0,15,,,,,7,,,66,100
20504,note_off,,,,,920,0,15,,,,,7,,,71,100
20544,note_on,,,,,92,0,10,,,,,3,,,63,90
20544,note_on,,,,,92,0,11,,,,,4,,,47,90
20544,note_on,,,,,92,0,16,,,,,7,,,47,100
20544,note_on,,,,,320,0,8,,,,,1,,,78,90
20544,note_on,,,,,0,0,13,,,,,6,,,63,100
20544,note_on,,,,,92,0,12,,,,,5,,,35,90
20544,note_on,,,,,92,0,14,,,,,6,,,47,100
20544,note_on,,,,,92,0,13,,,,,6,,,66,100
20544,note_on,,,,,92,0,9,,,,,2,,,78,90
20644,note_off,,,,,100,0,11,,,,,4,,,47,100
20644,note_off,,,,,100,0,8,,,,,1,,,78,100
20644,note_off,,,,,100,0,12,,,,,5,,,35,100
20644,note_off,,,,,100,0,10,,,,,3,,,63,100
20644,note_off,,,,,100,0,13,,,,,6,,,66,100
20644,note_off,,,,,0,0,13,,,,,6,,,63,100
20644,note_off,,,,,100,0,16,,,,,7,,,47,100
20644,note_off,,,,,100,0,14,,,,,6,,,47,100
20644,note_off,,,,,100,0,9,,,,,2,,,78,100
20736,note_on,,,,,92,0,9,,,,,2,,,79,91
20736,note_on,,,,,92,0,10,,,,,3,,,59,91
20736,note_on,,,,,0,0,13,,,,,6,,,67,100
20736,note_on,,,,,92,0,16,,,,,7,,,52,100
20736,note_on,,,,,92,0,12,,,,,5,,,40,91
20736,note_on,,,,,92,0,13,,,,,6,,,71,100
20736,note_on,,,,,92,0,14,,,,,6,,,52,100
20736,note_on,,,,,92,0,11,,,,,4,,,52,91
20736,note_on,,,,,0,0,13,,,,,6,,,64,100
20736,note_on,,,,,0,0,15,,,,,7,,,64,100
20736,note_on,,,,,0,0,15,,,,,7,,,67,100
20736,note_on,,,,,92,0,8,,,,,1,,,79,91
20736,note_on,,,,,232,0,15,,,,,7,,,71,100
20836,note_off,,,,,100,0,10,,,,,3,,,59,100
20860,note_off,,,,,124,0,9,,,,,2,,,79,100
20860,note_off,,,,,124,0,8,,,,,1,,,79,100
20864,note_on,,,,,4,0,9,,,,,2,,,78,92
20864,note_on,,,,,4,0,8,,,,,1,,,78,92
20928,note_on,,,,,92,0,10,,,,,3,,,71,93
20988,note_off,,,,,124,0,8,,,,,1,,,78,100
20988,note_off,,,,,124,0,9,,,,,2,,,78,100
20992,note_off,,,,,256,0,16,,,,,7,,,52,100
20992,note_on,,,,,4,0,8,,,,,1,,,76,93
20992,note_off,,,,,256,0,12,,,,,5,,,40,100
20992,note_off,,,,,0,0,15,,,,,7,,,67,100
20992,note_off,,,,,0,0,15,,,,,7,,,64,100
20992,note_off,,,,,256,0,11,,,,,4,,,52,100
20992,note_off,,,,,256,0,15,,,,,7,,,71,100
20992,note_off,,,,,0,0,13,,,,,6,,,67,100
20992,note_off,,,,,0,0,13,,,,,6,,,64,100
20992,note_off,,,,,256,0,13,,,,,6,,,71,100
20992,note_off,,,,,256,0,14,,,,,6,,,52,100
20992,note_on,,,,,4,0,9,,,,,2,,,76,93
21028,note_off,,,,,100,0,10,,,,,3,,,71,100
21076,note_off,,,,,84,0,9,,,,,2,,,76,100
21076,note_off,,,,,84,0,8,,,,,1,,,76,100
21120,note_on,,,,,44,0,9,,,,,2,,,81,95
21120,note_on,,,,,128,0,16,,,,,7,,,54,100
21120,note_on,,,,,44,0,8,,,,,1,,,81,95
21120,note_on,,,,,0,0,15,,,,,7,,,66,100
21120,note_on,,,,,128,0,15,,,,,7,,,75,100
21120,note_on,,,,,92,0,10,,,,,3,,,63,95
21120,note_on,,,,,128,0,12,,,,,5,,,42,95
21120,note_on,,,,,0,0,15,,,,,7,,,69,100
21120,note_on,,,,,128,0,13,,,,,6,,,75,100
21120,note_on,,,,,128,0,14,,,,,6,,,54,100
21120,note_on,,,,,0,0,13,,,,,6,,,66,100
21120,note_on,,,,,128,0,11,,,,,4,,,54,95
21120,note_on,,,,,0,0,13,,,,,6,,,69,100
21244,note_off,,,,,124,0,8,,,,,1,,,81,100
21244,note_off,,,,,124,0,9,,,,,2,,,81,100
21248,note_on,,,,,4,0,8,,,,,1,,,79,96
21248,note_on,,,,,4,0,9,,,,,2,,,79,96
21372,note_off,,,,,124,0,9,,,,,2,,,79,100
21372,note_off,,,,,124,0,8,,,,,1,,,79,100
21376,note_off,,,,,0,0,15,,,,,7,,,69,100
21376,note_on,,,,,4,0,9,,,,,2,,,78,97
21376,note_off,,,,,0,0,13,,,,,6,,,66,100
21376,note_off,,,,,256,0,13,,,,,6,,,75,100
21376,note_off,,,,,0,0,13,,,,,6,,,69,100
21376,note_off,,,,,256,0,14,,,,,6,,,54,100
21376,note_off,,,,,0,0,15,,,,,7,,,66,100
21376,note_off,,,,,256,0,15,,,,,7,,,75,100
21376,note_off,,,,,256,0,11,,,,,4,,,54,100
21376,note_off,,,,,256,0,16,,,,,7,,,54,100
21376,note_off,,,,,256,0,12,,,,,5,,,42,100
21376,note_on,,,,,4,0,8,,,,,1,,,78,97
21376,note_off,,,,,256,0,10,,,,,3,,,63,100
21460,note_off,,,,,84,0,9,,,,,2,,,78,100
21460,note_off,,,,,84,0,8,,,,,1,,,78,100
21504,note_on,,,,,44,0,9,,,,,2,,,82,98
21504,note_on,,,,,128,0,11,,,,,4,,,52,98
21504,note_on,,,,,128,0,12,,,,,5,,,40,98
21504,note_on,,,,,128,0,13,,,,,6,,,64,100
21504,note_on,,,,,0,0,13,,,,,6,,,70,100
21504,note_on,,,,,0,0,13,,,,,6,,,73,100
21504,note_on,,,,,0,0,15,,,,,7,,,73,100
21504,note_on,,,,,128,0,10,,,,,3,,,73,98
21504,note_on,,,,,128,0,16,,,,,7,,,52,100
21504,note_on,,,,,44,0,8,,,,,1,,,82,98
21504,note_on,,,,,128,0,15,,,,,7,,,64,100
21504,note_on,,,,,0,0,15,,,,,7,,,70,100
21504,note_on,,,,,128,0,14,,,,,6,,,52,100
21628,note_off,,,,,124,0,8,,,,,1,,,82,100
21628,note_off,,,,,124,0,9,,,,,2,,,82,100
21632,note_on,,,,,4,0,9,,,,,2,,,80,99
21632,note_on,,,,,4,0,8,,,,,1,,,80,99
21756,note_off,,,,,124,0,9,,,,,2,,,80,100
21756,note_off,,,,,124,0,8,,,,,1,,,80,100
21760,note_on,,,,,4,0,9,,,,,2,,,78,100
21760,note_on,,,,,4,0,8,,,,,1,,,78,100
21760,note_off,,,,,256,0,16,,,,,7,,,52,100
21760,note_off,,,,,256,0,14,,,,,6,,,52,100
21760,note_off,,,,,256,0,12,,,,,5,,,40,100
21760,note_off,,,,,0,0,13,,,,,6,,,70,100
21760,note_off,,,,,256,0,13,,,,,6,,,64,100
21760,note_off,,,,,256,0,10,,,,,3,,,73,100
21760,note_off,,,,,0,0,15,,,,,7,,,73,100
21760,note_off,,,,,0,0,15,,,,,7,,,70,100
21760,note_off,,,,,256,0,15,,,,,7,,,64,100
21760,note_off,,,,,256,0,11,,,,,4,,,52,100
21760,note_off,,,,,0,0,13,,,,,6,,,73,100
21844,note_off,,,,,84,0,8,,,,,1,,,78,100
21844,note_off,,,,,84,0,9,,,,,2,,,78,100
21888,note_on,,,,,0,0,15,,,,,7,,,66,100
21888,note_on,,,,,128,0,15,,,,,7,,,63,100
21888,note_on,,,,,0,0,15,,,,,7,,,71,100
21888,note_on,,,,,128,0,12,,,,,5,,,39,101
21888,note_on,,,,,0,0,13,,,,,6,,,66,100
21888,note_on,,,,,128,0,14,,,,,6,,,51,100
21888,note_on,,,,,44,0,8,,,,,1,,,83,101
21888,note_on,,,,,0,0,13,,,,,6,,,71,100
21888,note_on,,,,,128,0,16,,,,,7,,,51,100
21888,note_on,,,,,128,0,11,,,,,4,,,51,101
21888,note_on,,,,,44,0,9,,,,,2,,,83,101
21888,note_on,,,,,128,0,13,,,,,6,,,63,100
21888,note_on,,,,,128,0,10,,,,,3,,,66,101
22144,note_off,,,,,256,0,8,,,,,1,,,83,100
22144,note_off,,,,,256,0,9,,,,,2,,,83,100
22272,note_on,,,,,128,0,8,,,,,1,,,71,95
22272,note_on,,,,,128,0,9,,,,,2,,,71,95
22396,note_off,,,,,124,0,8,,,,,1,,,71,100
22396,note_off,,,,,124,0,9,,,,,2,,,71,100
22400,note_off,,,,,0,0,15,,,,,7,,,66,100
22400,note_off,,,,,512,0,15,,,,,7,,,63,100
22400,note_off,,,,,0,0,13,,,,,6,,,71,100
22400,note_on,,,,,4,0,9,,,,,2,,,83,95
22400,note_off,,,,,512,0,10,,,,,3,,,66,100
22400,note_off,,,,,512,0,16,,,,,7,,,51,100
22400,note_off,,,,,0,0,15,,,,,7,,,71,100
22400,note_off,,,,,512,0,12,,,,,5,,,39,100
22400,note_off,,,,,512,0,11,,,,,4,,,51,100
22400,note_off,,,,,512,0,13,,,,,6,,,63,100
22400,note_on,,,,,4,0,8,,,,,1,,,83,95
22400,note_off,,,,,512,0,14,,,,,6,,,51,100
22400,note_off,,,,,0,0,13,,,,,6,,,66,100
22524,note_off,,,,,124,0,9,,,,,2,,,83,100
22524,note_off,,,,,124,0,8,,,,,1,,,83,100
22528,note_on,,,,,4,0,9,,,,,2,,,81,95
22528,note_on,,,,,4,0,8,,,,,1,,,81,95
22612,note_off,,,,,84,0,9,,,,,2,,,81,100
22612,note_off,,,,,84,0,8,,,,,1,,,81,100
22656,note_on,,,,,256,0,12,,,,,5,,,40,95
22656,note_on,,,,,256,0,10,,,,,3,,,59,95
22656,note_on,,,,,44,0,9,,,,,2,,,79,95
22656,note_on,,,,,44,0,8,,,,,1,,,79,95
22656,note_on,,,,,256,0,14,,,,,6,,,52,100
22656,note_on,,,,,256,0,13,,,,,6,,,71,100
22656,note_on,,,,,0,0,15,,,,,7,,,64,100
22656,note_on,,,,,256,0,11,,,,,4,,,52,95
22656,note_on,,,,,0,0,15,,,,,7,,,67,100
22656,note_on,,,,,256,0,15,,,,,7,,,71,100
22656,note_on,,,,,0,0,13,,,,,6,,,67,100
22656,note_on,,,,,0,0,13,,,,,6,,,64,100
22656,note_on,,,,,256,0,16,,,,,7,,,52,100
22756,note_off,,,,,100,0,10,,,,,3,,,59,100
22780,note_off,,,,,124,0,8,,,,,1,,,79,100
22780,note_off,,,,,124,0,9,,,,,2,,,79,100
22784,note_on,,,,,4,0,8,,,,,1,,,78,95
22784,note_on,,,,,4,0,9,,,,,2,,,78,95
22848,note_on,,,,,92,0,10,,,,,3,,,67,95
22908,note_off,,,,,124,0,9,,,,,2,,,78,100
22908,note_off,,,,,124,0,8,,,,,1,,,78,100
22912,note_on,,,,,4,0,8,,,,,1,,,76,95
22912,note_off,,,,,256,0,12,,,,,5,,,40,100
22912,note_off,,,,,256,0,11,,,,,4,,,52,100
22912,note_off,,,,,256,0,15,,,,,7,,,71,100
22912,note_off,,,,,256,0,14,,,,,6,,,52,100
22912,note_on,,,,,4,0,9,,,,,2,,,76,95
22912,note_off,,,,,0,0,15,,,,,7,,,67,100
22912,note_off,,,,,0,0,15,,,,,7,,,64,100
22912,note_off,,,,,256,0,16,,,,,7,,,52,100
22912,note_off,,,,,256,0,13,,,,,6,,,71,100
22912,note_off,,,,,0,0,13,,,,,6,,,67,100
22912,note_off,,,,,0,0,13,,,,,6,,,64,100
22948,note_off,,,,,100,0,10,,,,,3,,,67,100
22996,note_off,,,,,84,0,8,,,,,1,,,76,100
22996,note_off,,,,,84,0,9,,,,,2,,,76,100
23040,note_on,,,,,128,0,13,,,,,6,,,71,100
23040,note_on,,,,,0,0,13,,,,,6,,,66,100
23040,note_on,,,,,0,0,13,,,,,6,,,63,100
23040,note_on,,,,,128,0,16,,,,,7,,,47,100
23040,note_on,,,,,0,0,15,,,,,7,,,66,100
23040,note_on,,,,,92,0,10,,,,,3,,,66,95
23040,note_on,,,,,44,0,8,,,,,1,,,75,95
23040,note_on,,,,,128,0,14,,,,,6,,,47,100
23040,note_on,,,,,0,0,15,,,,,7,,,63,100
23040,note_on,,,,,128,0,11,,,,,4,,,47,95
23040,note_on,,,,,128,0,15,,,,,7,,,71,100
23040,note_on,,,,,128,0,12,,,,,5,,,35,95
23040,note_on,,,,,44,0,9,,,,,2,,,75,95
23164,note_off,,,,,124,0,8,,,,,1,,,75,100
23164,note_off,,,,,124,0,9,,,,,2,,,75,100
23168,note_on,,,,,4,0,8,,,,,1,,,73,95
23168,note_on,,,,,4,0,9,,,,,2,,,73,95
23292,note_off,,,,,124,0,8,,,,,1,,,73,100
23292,note_off,,,,,124,0,9,,,,,2,,,73,100
23296,note_off,,,,,256,0,14,,,,,6,,,47,100
23296,note_off,,,,,256,0,10,,,,,3,,,66,100
23296,note_off,,,,,256,0,13,,,,,6,,,71,100
23296,note_off,,,,,0,0,13,,,,,6,,,63,100
23296,note_off,,,,,0,0,13,,,,,6,,,66,100
23296,note_off,,,,,256,0,12,,,,,5,,,35,100
23296,note_on,,,,,4,0,8,,,,,1,,,71,95
23296,note_on,,,,,4,0,9,,,,,2,,,71,95
23296,note_off,,,,,256,0,16,,,,,7,,,47,100
23296,note_off,,,,,0,0,15,,,,,7,,,66,100
23296,note_off,,,,,0,0,15,,,,,7,,,63,100
23296,note_off,,,,,256,0,15,,,,,7,,,71,100
23296,note_off,,,,,256,0,11,,,,,4,,,47,100
23380,note_off,,,,,84,0,8,,,,,1,,,71,100
23380,note_off,,,,,84,0,9,,,,,2,,,71,100
23424,note_on,,,,,44,0,8,,,,,1,,,79,100
23424,note_on,,,,,128,0,12,,,,,5,,,34,100
23424,note_on,,,,,128,0,15,,,,,7,,,70,100
23424,note_on,,,,,128,0,11,,,,,4,,,46,100
23424,note_on,,,,,0,0,15,,,,,7,,,64,100
23424,note_on,,,,,0,0,15,,,,,7,,,67,100
23424,note_on,,,,,128,0,10,,,,,3,,,61,100
23424,note_on,,,,,128,0,14,,,,,6,,,46,100
23424,note_on,,,,,44,0,9,,,,,2,,,79,100
23424,note_on,,,,,0,0,13,,,,,6,,,64,100
23424,note_on,,,,,0,0,13,,,,,6,,,67,100
23424,note_on,,,,,128,0,13,,,,,6,,,70,100
23424,note_on,,,,,128,0,16,,,,,7,,,46,100
23804,note_off,,,,,380,0,9,,,,,2,,,79,100
23804,note_off,,,,,380,0,8,,,,,1,,,79,100
23936,note_off,,,,,0,0,13,,,,,6,,,67,100
23936,note_off,,,,,512,0,13,,,,,6,,,70,100
23936,note_off,,,,,512,0,15,,,,,7,,,70,100
23936,note_off,,,,,0,0,15,,,,,7,,,67,100
23936,note_off,,,,,0,0,15,,,,,7,,,64,100
23936,note_on,,,,,132,0,8,,,,,1,,,78,97
23936,note_off,,,,,512,0,16,,,,,7,,,46,100
23936,note_off,,,,,512,0,12,,,,,5,,,34,100
23936,note_off,,,,,512,0,10,,,,,3,,,61,100
23936,note_on,,,,,132,0,9,,,,,2,,,78,97
23936,note_off,,,,,512,0,14,,,,,6,,,46,100
23936,note_off,,,,,512,0,11,,,,,4,,,46,100
23936,note_off,,,,,0,0,13,,,,,6,,,64,100
24060,note_off,,,,,124,0,8,,,,,1,,,78,100
24060,note_off,,,,,124,0,9,,,,,2,,,78,100
24064,note_on,,,,,4,0,9,,,,,2,,,76,96
24064,note_on,,,,,4,0,8,,,,,1,,,76,96
24148,note_off,,,,,84,0,9,,,,,2,,,76,100
24148,note_off,,,,,84,0,8,,,,,1,,,76,100
24192,note_on,,,,,0,0,15,,,,,7,,,66,100
24192,note_on,,,,,256,0,12,,,,,5,,,35,95
24192,note_on,,,,,256,0,14,,,,,6,,,47,100
24192,note_on,,,,,44,0,8,,,,,1,,,75,95
24192,note_on,,,,,44,0,9,,,,,2,,,75,95
24192,note_on,,,,,0,0,13,,,,,6,,,63,100
24192,note_on,,,,,256,0,15,,,,,7,,,71,100
24192,note_on,,,,,256,0,11,,,,,4,,,47,95
24192,note_on,,,,,256,0,10,,,,,3,,,66,95
24192,note_on,,,,,0,0,15,,,,,7,,,63,100
24192,note_on,,,,,0,0,13,,,,,6,,,66,100
24192,note_on,,,,,256,0,16,,,,,7,,,47,100
24192,note_on,,,,,256,0,13,,,,,6,,,71,100
24316,note_off,,,,,124,0,8,,,,,1,,,75,100
24316,note_off,,,,,124,0,9,,,,,2,,,75,100
24320,note_on,,,,,4,0,8,,,,,1,,,73,94
24320,note_on,,,,,4,0,9,,,,,2,,,73,94
24444,note_off,,,,,124,0,9,,,,,2,,,73,100
24444,note_off,,,,,124,0,8,,,,,1,,,73,100
24448,note_off,,,,,0,0,13,,,,,6,,,63,100
24448,note_off,,,,,256,0,11,,,,,4,,,47,100
24448,note_off,,,,,256,0,15,,,,,7,,,71,100
24448,note_off,,,,,256,0,14,,,,,6,,,47,100
24448,note_off,,,,,0,0,15,,,,,7,,,63,100
24448,note_off,,,,,0,0,13,,,,,6,,,66,100
24448,note_off,,,,,256,0,10,,,,,3,,,66,100
24448,note_off,,,,,256,0,12,,,,,5,,,35,100
24448,note_on,,,,,4,0,8,,,,,1,,,71,93
24448,note_off,,,,,256,0,16,,,,,7,,,47,100
24448,note_off,,,,,0,0,15,,,,,7,,,66,100
24448,note_on,,,,,4,0,9,,,,,2,,,71,93
24448,note_off,,,,,256,0,13,,,,,6,,,71,100
24532,note_off,,,,,84,0,8,,,,,1,,,71,100
24532,note_off,,,,,84,0,9,,,,,2,,,71,100
24576,note_on,,,,,128,0,12,,,,,5,,,34,100
24576,note_on,,,,,128,0,10,,,,,3,,,61,100
24576,note_on,,,,,128,0,16,,,,,7,,,46,100
24576,note_on,,,,,128,0,13,,,,,6,,,70,100
24576,note_on,,,,,128,0,11,,,,,4,,,46,100
24576,note_on,,,,,44,0,9,,,,,2,,,79,100
24576,note_on,,,,,0,0,13,,,,,6,,,64,100
24576,note_on,,,,,0,0,13,,,,,6,,,67,100
24576,note_on,,,,,128,0,15,,,,,7,,,70,100
24576,note_on,,,,,0,0,15,,,,,7,,,64,100
24576,note_on,,,,,128,0,14,,,,,6,,,46,100
24576,note_on,,,,,44,0,8,,,,,1,,,79,100
24576,note_on,,,,,0,0,15,,,,,7,,,67,100
24832,note_off,,,,,256,0,10,,,,,3,,,61,100
24956,note_off,,,,,380,0,8,,,,,1,,,79,100
24956,note_off,,,,,380,0,9,,,,,2,,,79,100
24960,note_on,,,,,128,0,10,,,,,3,,,73,98
25088,note_on,,,,,132,0,9,,,,,2,,,78,97
25088,note_off,,,,,512,0,11,,,,,4,,,46,100
25088,note_off,,,,,0,0,13,,,,,6,,,64,100
25088,note_off,,,,,0,0,13,,,,,6,,,67,100
25088,note_off,,,,,512,0,13,,,,,6,,,70,100
25088,note_off,,,,,512,0,16,,,,,7,,,46,100
25088,note_off,,,,,512,0,12,,,,,5,,,34,100
25088,note_off,,,,,512,0,15,,,,,7,,,70,100
25088,note_off,,,,,0,0,15,,,,,7,,,67,100
25088,note_off,,,,,512,0,14,,,,,6,,,46,100
25088,note_off,,,,,0,0,15,,,,,7,,,64,100
25088,note_on,,,,,132,0,8,,,,,1,,,78,97
25212,note_off,,,,,124,0,9,,,,,2,,,78,100
25212,note_off,,,,,124,0,8,,,,,1,,,78,100
25216,note_on,,,,,4,0,8,,,,,1,,,76,96
25216,note_off,,,,,256,0,10,,,,,3,,,73,100
25216,note_on,,,,,4,0,9,,,,,2,,,76,96
25300,note_off,,,,,84,0,8,,,,,1,,,76,100
25300,note_off,,,,,84,0,9,,,,,2,,,76,100
25344,note_on,,,,,256,0,16,,,,,7,,,51,100
25344,note_on,,,,,256,0,11,,,,,4,,,51,95
25344,note_on,,,,,256,0,12,,,,,5,,,39,95
25344,note_on,,,,,256,0,14,,,,,6,,,51,100
25344,note_on,,,,,44,0,9,,,,,2,,,72,95
25344,note_on,,,,,44,0,8,,,,,1,,,72,95
25344,note_on,,,,,0,0,13,,,,,6,,,69,100
25344,note_on,,,,,256,0,13,,,,,6,,,60,100
25344,note_on,,,,,0,0,15,,,,,7,,,69,100
25344,note_on,,,,,256,0,15,,,,,7,,,60,100
25344,note_on,,,,,128,0,10,,,,,3,,,69,95
25468,note_off,,,,,124,0,9,,,,,2,,,72,100
25468,note_off,,,,,124,0,8,,,,,1,,,72,100
25472,note_on,,,,,4,0,9,,,,,2,,,71,94
25472,note_on,,,,,4,0,8,,,,,1,,,71,94
25596,note_off,,,,,124,0,8,,,,,1,,,71,100
25596,note_off,,,,,124,0,9,,,,,2,,,71,100
25600,note_on,,,,,4,0,9,,,,,2,,,69,93
25600,note_on,,,,,4,0,8,,,,,1,,,69,93
25600,note_off,,,,,256,0,10,,,,,3,,,69,100
25684,note_off,,,,,84,0,9,,,,,2,,,69,100
25684,note_off,,,,,84,0,8,,,,,1,,,69,100
25728,note_on,,,,,44,0,9,,,,,2,,,81,100
25728,note_on,,,,,128,0,10,,,,,3,,,66,100
25728,note_on,,,,,44,0,8,,,,,1,,,81,100
26108,note_off,,,,,380,0,9,,,,,2,,,81,100
26108,note_off,,,,,380,0,8,,,,,1,,,81,100
26240,note_on,,,,,132,0,9,,,,,2,,,79,100
26240,note_on,,,,,132,0,8,,,,,1,,,79,100
26240,note_off,,,,,512,0,10,,,,,3,,,66,100
26264,note_off,,,,,0,0,15,,,,,7,,,69,100
26264,note_off,,,,,920,0,16,,,,,7,,,51,100
26264,note_off,,,,,920,0,13,,,,,6,,,60,100
26264,note_off,,,,,0,0,13,,,,,6,,,69,100
26264,note_off,,,,,920,0,11,,,,,4,,,51,100
26264,note_off,,,,,920,0,14,,,,,6,,,51,100
26264,note_off,,,,,920,0,15,,,,,7,,,60,100
26264,note_off,,,,,920,0,12,,,,,5,,,39,100
26364,note_off,,,,,124,0,9,,,,,2,,,79,100
26364,note_off,,,,,124,0,8,,,,,1,,,79,100
26368,note_on,,,,,4,0,8,,,,,1,,,78,100
26368,note_on,,,,,4,0,9,,,,,2,,,78,100
26452,note_off,,,,,84,0,9,,,,,2,,,78,100
26452,note_off,,,,,84,0,8,,,,,1,,,78,100
26496,note_on,,,,,44,0,8,,,,,1,,,79,100
26496,note_on,,,,,232,0,11,,,,,4,,,52,100
26496,note_on,,,,,44,0,9,,,,,2,,,79,100
26496,note_on,,,,,232,0,12,,,,,5,,,40,100
26496,note_on,,,,,232,0,16,,,,,7,,,52,100
26496,note_on,,,,,0,0,13,,,,,6,,,67,100
26496,note_on,,,,,232,0,13,,,,,6,,,59,100
26496,note_on,,,,,256,0,10,,,,,3,,,59,100
26496,note_on,,,,,232,0,14,,,,,6,,,52,100
26496,note_on,,,,,232,0,15,,,,,7,,,59,100
26496,note_on,,,,,0,0,15,,,,,7,,,67,100
26560,note_off,,,,,64,0,9,,,,,2,,,79,100
26560,note_off,,,,,64,0,8,,,,,1,,,79,100
26592,note_on,,,,,32,0,9,,,,,2,,,83,100
26592,note_on,,,,,32,0,8,,,,,1,,,83,100
26656,note_off,,,,,64,0,9,,,,,2,,,83,100
26656,note_off,,,,,64,0,8,,,,,1,,,83,100
26688,note_on,,,,,32,0,9,,,,,2,,,81,100
26688,note_on,,,,,32,0,8,,,,,1,,,81,100
26752,note_off,,,,,256,0,14,,,,,6,,,52,100
26752,note_off,,,,,64,0,9,,,,,2,,,81,100
26752,note_off,,,,,0,0,13,,,,,6,,,67,100
26752,note_off,,,,,256,0,10,,,,,3,,,59,100
26752,note_off,,,,,0,0,15,,,,,7,,,67,100
26752,note_off,,,,,256,0,11,,,,,4,,,52,100
26752,note_off,,,,,256,0,16,,,,,7,,,52,100
26752,note_off,,,,,256,0,12,,,,,5,,,40,100
26752,note_off,,,,,256,0,13,,,,,6,,,59,100
26752,note_off,,,,,64,0,8,,,,,1,,,81,100
26752,note_off,,,,,256,0,15,,,,,7,,,59,100
26784,note_on,,,,,32,0,9,,,,,2,,,79,100
26784,note_on,,,,,32,0,8,,,,,1,,,79,100
26848,note_off,,,,,64,0,8,,,,,1,,,79,100
26848,note_off,,,,,64,0,9,,,,,2,,,79,100
26880,note_on,,,,,32,0,9,,,,,2,,,78,100
26880,note_on,,,,,32,0,8,,,,,1,,,78,100
26944,note_off,,,,,64,0,8,,,,,1,,,78,100
26944,note_off,,,,,64,0,9,,,,,2,,,78,100
26976,note_on,,,,,32,0,9,,,,,2,,,79,100
26976,note_on,,,,,32,0,8,,,,,1,,,79,100
27040,note_off,,,,,64,0,9,,,,,2,,,79,100
27040,note_off,,,,,64,0,8,,,,,1,,,79,100
27072,note_on,,,,,32,0,9,,,,,2,,,78,100
27072,note_on,,,,,32,0,8,,,,,1,,,78,100
27136,note_off,,,,,64,0,9,,,,,2,,,78,100
27136,note_off,,,,,64,0,8,,,,,1,,,78,100
27168,note_on,,,,,32,0,9,,,,,2,,,76,100
27168,note_on,,,,,32,0,8,,,,,1,,,76,100
27232,note_off,,,,,64,0,9,,,,,2,,,76,100
27232,note_off,,,,,64,0,8,,,,,1,,,76,100
27264,note_on,,,,,32,0,9,,,,,2,,,75,100
27264,note_on,,,,,32,0,8,,,,,1,,,75,100
27328,note_off,,,,,64,0,8,,,,,1,,,75,100
27328,note_off,,,,,64,0,9,,,,,2,,,75,100
27360,note_on,,,,,32,0,9,,,,,2,,,76,100
27360,note_on,,,,,32,0,8,,,,,1,,,76,100
27424,note_off,,,,,64,0,9,,,,,2,,,76,100
27424,note_off,,,,,64,0,8,,,,,1,,,76,100
27456,note_on,,,,,32,0,9,,,,,2,,,75,100
27456,note_on,,,,,32,0,8,,,,,1,,,75,100
27520,note_off,,,,,64,0,9,,,,,2,,,75,100
27520,note_off,,,,,64,0,8,,,,,1,,,75,100
27552,note_on,,,,,32,0,9,,,,,2,,,73,100
27552,note_on,,,,,32,0,8,,,,,1,,,73,100
27616,note_off,,,,,64,0,8,,,,,1,,,73,100
27616,note_off,,,,,64,0,9,,,,,2,,,73,100
27648,note_on,,,,,896,0,13,,,,,6,,,71,100
27648,note_on,,,,,0,0,13,,,,,6,,,67,100
27648,note_on,,,,,896,0,11,,,,,4,,,43,100
27648,note_on,,,,,0,0,15,,,,,7,,,67,100
27648,note_on,,,,,896,0,15,,,,,7,,,71,100
27648,note_on,,,,,896,0,12,,,,,5,,,31,100
27648,note_on,,,,,32,0,8,,,,,1,,,71,100
27648,note_on,,,,,32,0,9,,,,,2,,,71,100
27648,note_on,,,,,896,0,14,,,,,6,,,43,100
27648,note_on,,,,,896,0,16,,,,,7,,,43,100
27648,note_on,,,,,896,0,10,,,,,3,,,59,100
27748,note_off,,,,,100,0,9,,,,,2,,,71,100
27748,note_off,,,,,100,0,8,,,,,1,,,71,100
27840,note_on,,,,,92,0,8,,,,,1,,,76,100
27840,note_on,,,,,92,0,9,,,,,2,,,76,100
27904,note_off,,,,,256,0,16,,,,,7,,,43,100
27904,note_off,,,,,256,0,13,,,,,6,,,71,100
27904,note_off,,,,,256,0,14,,,,,6,,,43,100
27904,note_off,,,,,256,0,15,,,,,7,,,71,100
27904,note_off,,,,,256,0,10,,,,,3,,,59,100
27904,note_off,,,,,256,0,12,,,,,5,,,31,100
27904,note_off,,,,,256,0,11,,,,,4,,,43,100
27940,note_off,,,,,100,0,9,,,,,2,,,76,100
27940,note_off,,,,,100,0,8,,,,,1,,,76,100
28032,note_on,,,,,128,0,13,,,,,6,,,69,100
28032,note_on,,,,,0,0,15,,,,,7,,,72,100
28032,note_on,,,,,128,0,15,,,,,7,,,69,100
28032,note_on,,,,,0,0,13,,,,,6,,,72,100
28032,note_on,,,,,92,0,8,,,,,1,,,67,100
28032,note_on,,,,,128,0,12,,,,,5,,,33,100
28032,note_on,,,,,92,0,9,,,,,2,,,67,100
28032,note_on,,,,,128,0,14,,,,,6,,,45,100
28032,note_on,,,,,128,0,16,,,,,7,,,45,100
28032,note_on,,,,,128,0,10,,,,,3,,,60,100
28032,note_on,,,,,128,0,11,,,,,4,,,45,100
28132,note_off,,,,,100,0,8,,,,,1,,,67,100
28132,note_off,,,,,100,0,9,,,,,2,,,67,100
28160,note_off,,,,,128,0,13,,,,,6,,,67,100
28160,note_off,,,,,128,0,15,,,,,7,,,67,100
28224,note_on,,,,,92,0,9,,,,,2,,,76,100
28224,note_on,,,,,92,0,8,,,,,1,,,76,100
28288,note_off,,,,,128,0,13,,,,,6,,,69,100
28288,note_off,,,,,256,0,10,,,,,3,,,60,100
28288,note_off,,,,,128,0,15,,,,,7,,,69,100
28288,note_off,,,,,256,0,11,,,,,4,,,45,100
28288,note_off,,,,,256,0,14,,,,,6,,,45,100
28288,note_off,,,,,256,0,16,,,,,7,,,45,100
28288,note_off,,,,,0,0,15,,,,,7,,,72,100
28288,note_off,,,,,0,0,13,,,,,6,,,72,100
28288,note_off,,,,,256,0,12,,,,,5,,,33,100
28324,note_off,,,,,100,0,8,,,,,1,,,76,100
28324,note_off,,,,,100,0,9,,,,,2,,,76,100
28416,note_on,,,,,0,0,13,,,,,6,,,66,100
28416,note_on,,,,,92,0,8,,,,,1,,,59,100
28416,note_on,,,,,128,0,13,,,,,6,,,63,100
28416,note_on,,,,,128,0,15,,,,,7,,,63,100
28416,note_on,,,,,0,0,15,,,,,7,,,66,100
28416,note_on,,,,,128,0,10,,,,,3,,,59,100
28416,note_on,,,,,92,0,9,,,,,2,,,59,100
28416,note_on,,,,,128,0,11,,,,,4,,,47,100
28416,note_on,,,,,128,0,16,,,,,7,,,47,100
28416,note_on,,,,,128,0,12,,,,,5,,,35,100
28416,note_on,,,,,128,0,14,,,,,6,,,47,100
28516,note_off,,,,,100,0,10,,,,,3,,,59,100
28516,note_off,,,,,100,0,8,,,,,1,,,59,100
28516,note_off,,,,,100,0,9,,,,,2,,,59,100
28608,note_on,,,,,92,0,9,,,,,2,,,75,100
28608,note_on,,,,,92,0,8,,,,,1,,,75,100
28608,note_on,,,,,92,0,10,,,,,3,,,66,100
28672,note_off,,,,,256,0,12,,,,,5,,,35,100
28672,note_off,,,,,256,0,16,,,,,7,,,47,100
28672,note_off,,,,,256,0,15,,,,,7,,,63,100
28672,note_off,,,,,256,0,14,,,,,6,,,47,100
28672,note_off,,,,,256,0,11,,,,,4,,,47,100
28672,note_off,,,,,0,0,13,,,,,6,,,66,100
28672,note_off,,,,,256,0,13,,,,,6,,,63,100
28672,note_off,,,,,0,0,15,,,,,7,,,66,100
28708,note_off,,,,,100,0,10,,,,,3,,,66,100
28708,note_off,,,,,100,0,9,,,,,2,,,75,100
28708,note_off,,,,,100,0,8,,,,,1,,,75,100
28800,note_on,,,,,92,0,9,,,,,2,,,76,100
28800,note_on,,,,,128,0,14,,,,,6,,,40,100
28800,note_on,,,,,128,0,12,,,,,5,,,40,100
28800,note_on,,,,,128,0,16,,,,,7,,,40,100
28800,note_on,,,,,128,0,11,,,,,4,,,40,100
28800,note_on,,,,,0,0,13,,,,,6,,,67,100
28800,note_on,,,,,92,0,10,,,,,3,,,67,100
28800,note_on,,,,,92,0,8,,,,,1,,,76,100
28800,note_on,,,,,128,0,15,,,,,7,,,59,100
28800,note_on,,,,,0,0,15,,,,,7,,,64,100
28800,note_on,,,,,0,0,15,,,,,7,,,67,100
28800,note_on,,,,,0,0,13,,,,,6,,,64,100
28800,note_on,,,,,128,0,13,,,,,6,,,59,100
29104,note_off,,,,,304,0,11,,,,,4,,,40,100
29104,note_off,,,,,0,0,15,,,,,7,,,67,100
29104,note_off,,,,,304,0,13,,,,,6,,,59,100
29104,note_off,,,,,0,0,13,,,,,6,,,64,100
29104,note_off,,,,,304,0,16,,,,,7,,,40,100
29104,note_off,,,,,0,0,15,,,,,7,,,64,100
29104,note_off,,,,,304,0,12,,,,,5,,,40,100
29104,note_off,,,,,0,0,13,,,,,6,,,67,100
29104,note_off,,,,,304,0,15,,,,,7,,,59,100
29104,note_off,,,,,304,0,10,,,,,3,,,67,100
29104,note_off,,,,,304,0,14,,,,,6,,,40,100
29104,note_off,,,,,304,0,8,,,,,1,,,76,100
29104,note_off,,,,,304,0,9,,,,,2,,,76,100
29312,note_on,,,,,29312,0,7,,,,,0,,,83,100
29396,note_off,,,,,84,0,7,,,,,0,,,83,100
29440,note_on,,,,,44,0,7,,,,,0,,,81,100
29524,note_off,,,,,84,0,7,,,,,0,,,81,100
29568,note_on,,,,,44,0,7,,,,,0,,,79,100
29568,program_change,,,,,464,0,11,,,,,4,42,,,
29692,note_off,,,,,124,0,7,,,,,0,,,79,100
29696,note_on,,,,,4,0,7,,,,,0,,,78,99
29820,note_off,,,,,124,0,7,,,,,0,,,78,100
29824,note_on,,,,,4,0,7,,,,,0,,,76,98
29908,note_off,,,,,84,0,7,,,,,0,,,76,100
29952,note_on,,,,,44,0,7,,,,,0,,,74,97
29952,note_on,,,,,0,0,13,,,,,6,,,64,100
29952,note_on,,,,,848,0,13,,,,,6,,,60,100
29952,note_on,,,,,848,0,14,,,,,6,,,57,100
29952,note_on,,,,,384,0,11,,,,,4,,,57,75
30140,note_off,,,,,188,0,7,,,,,0,,,74,100
30144,note_on,,,,,4,0,7,,,,,0,,,72,95
30188,note_off,,,,,44,0,7,,,,,0,,,72,100
30192,note_on,,,,,4,0,7,,,,,0,,,74,94
30236,note_off,,,,,44,0,7,,,,,0,,,74,100
30240,note_on,,,,,4,0,7,,,,,0,,,72,94
30332,note_off,,,,,380,0,11,,,,,4,,,57,100
30332,note_off,,,,,380,0,14,,,,,6,,,57,100
30332,note_off,,,,,380,0,13,,,,,6,,,60,100
30332,note_off,,,,,92,0,7,,,,,0,,,72,100
30336,note_on,,,,,4,0,13,,,,,6,,,59,100
30336,note_on,,,,,4,0,11,,,,,4,,,55,75
30336,note_on,,,,,4,0,14,,,,,6,,,55,100
30336,note_on,,,,,4,0,7,,,,,0,,,71,93
30420,note_off,,,,,84,0,7,,,,,0,,,71,100
30464,note_off,,,,,128,0,13,,,,,6,,,64,100
30464,note_on,,,,,44,0,7,,,,,0,,,83,85
30548,note_off,,,,,84,0,7,,,,,0,,,83,100
30592,note_on,,,,,44,0,7,,,,,0,,,81,85
30592,note_off,,,,,256,0,11,,,,,4,,,55,100
30592,note_off,,,,,128,0,13,,,,,6,,,59,100
30592,note_off,,,,,256,0,14,,,,,6,,,55,100
30676,note_off,,,,,84,0,7,,,,,0,,,81,100
30720,note_on,,,,,44,0,7,,,,,0,,,79,85
30844,note_off,,,,,124,0,7,,,,,0,,,79,100
30848,note_on,,,,,4,0,7,,,,,0,,,78,85
30972,note_off,,,,,124,0,7,,,,,0,,,78,100
30976,note_on,,,,,4,0,7,,,,,0,,,76,85
31060,note_off,,,,,84,0,7,,,,,0,,,76,100
31104,note_on,,,,,0,0,13,,,,,6,,,64,100
31104,note_on,,,,,512,0,14,,,,,6,,,57,100
31104,note_on,,,,,44,0,7,,,,,0,,,74,85
31104,note_on,,,,,512,0,11,,,,,4,,,57,75
31104,note_on,,,,,512,0,13,,,,,6,,,60,100
31292,note_off,,,,,188,0,7,,,,,0,,,74,100
31296,note_on,,,,,4,0,7,,,,,0,,,72,85
31340,note_off,,,,,44,0,7,,,,,0,,,72,100
31344,note_on,,,,,4,0,7,,,,,0,,,74,85
31388,note_off,,,,,44,0,7,,,,,0,,,74,100
31392,note_on,,,,,4,0,7,,,,,0,,,72,85
31484,note_off,,,,,380,0,14,,,,,6,,,57,100
31484,note_off,,,,,380,0,13,,,,,6,,,60,100
31484,note_off,,,,,92,0,7,,,,,0,,,72,100
31484,note_off,,,,,380,0,11,,,,,4,,,57,100
31488,note_on,,,,,4,0,7,,,,,0,,,71,85
31488,note_on,,,,,4,0,14,,,,,6,,,55,100
31488,note_on,,,,,4,0,13,,,,,6,,,59,100
31488,note_on,,,,,4,0,11,,,,,4,,,55,75
31572,note_off,,,,,84,0,7,,,,,0,,,71,100
31616,note_off,,,,,128,0,13,,,,,6,,,64,100
31616,note_on,,,,,44,0,7,,,,,0,,,83,97
31700,note_off,,,,,84,0,7,,,,,0,,,83,100
31744,note_off,,,,,256,0,14,,,,,6,,,55,100
31744,note_off,,,,,256,0,11,,,,,4,,,55,100
31744,note_on,,,,,44,0,7,,,,,0,,,81,97
31744,note_off,,,,,128,0,13,,,,,6,,,59,100
31828,note_off,,,,,84,0,7,,,,,0,,,81,100
31872,note_on,,,,,44,0,7,,,,,0,,,79,98
31996,note_off,,,,,124,0,7,,,,,0,,,79,100
32000,note_on,,,,,4,0,7,,,,,0,,,78,99
32124,note_off,,,,,124,0,7,,,,,0,,,78,100
32128,note_on,,,,,4,0,7,,,,,0,,,76,100
32212,note_off,,,,,84,0,7,,,,,0,,,76,100
32256,note_on,,,,,0,0,13,,,,,6,,,64,100
32256,note_on,,,,,512,0,13,,,,,6,,,71,100
32256,note_on,,,,,512,0,11,,,,,4,,,55,75
32256,note_on,,,,,512,0,14,,,,,6,,,55,100
32256,note_on,,,,,44,0,7,,,,,0,,,88,101
32760,note_off,,,,,504,0,7,,,,,0,,,88,100
32768,note_on,,,,,8,0,7,,,,,0,,,86,100
32892,note_off,,,,,124,0,7,,,,,0,,,86,100
32896,note_on,,,,,4,0,7,,,,,0,,,84,100
33020,note_off,,,,,764,0,13,,,,,6,,,64,100
33020,note_off,,,,,124,0,7,,,,,0,,,84,100
33024,note_on,,,,,4,0,7,,,,,0,,,83,100
33024,note_on,,,,,4,0,13,,,,,6,,,66,100
33148,note_off,,,,,124,0,7,,,,,0,,,83,100
33152,note_on,,,,,4,0,7,,,,,0,,,82,100
33176,note_off,,,,,152,0,13,,,,,6,,,71,100
33276,note_off,,,,,124,0,7,,,,,0,,,82,100
33280,note_on,,,,,4,0,7,,,,,0,,,83,100
33280,note_off,,,,,104,0,13,,,,,6,,,66,100
33292,note_off,,,,,1036,0,11,,,,,4,,,55,100
33292,note_off,,,,,1036,0,14,,,,,6,,,55,100
33364,note_off,,,,,84,0,7,,,,,0,,,83,100
33408,note_on,,,,,116,0,11,,,,,4,,,52,75
33408,note_on,,,,,44,0,7,,,,,0,,,88,104
33408,note_on,,,,,116,0,14,,,,,6,,,52,100
33408,note_on,,,,,128,0,13,,,,,6,,,71,100
33408,note_on,,,,,0,0,13,,,,,6,,,67,100
33532,note_off,,,,,124,0,7,,,,,0,,,88,100
33536,note_on,,,,,4,0,7,,,,,0,,,86,103
33660,note_off,,,,,124,0,7,,,,,0,,,86,100
33664,note_off,,,,,256,0,11,,,,,4,,,52,100
33664,note_off,,,,,256,0,14,,,,,6,,,52,100
33664,note_on,,,,,4,0,7,,,,,0,,,84,102
33788,note_off,,,,,124,0,7,,,,,0,,,84,100
33788,note_off,,,,,380,0,13,,,,,6,,,67,100
33792,note_on,,,,,4,0,13,,,,,6,,,64,100
33792,note_on,,,,,128,0,14,,,,,6,,,55,100
33792,note_on,,,,,4,0,7,,,,,0,,,83,101
33792,note_on,,,,,128,0,11,,,,,4,,,55,75
33916,note_off,,,,,124,0,7,,,,,0,,,83,100
33920,note_on,,,,,4,0,7,,,,,0,,,81,100
34044,note_off,,,,,124,0,7,,,,,0,,,81,100
34048,note_off,,,,,256,0,11,,,,,4,,,55,100
34048,note_off,,,,,256,0,14,,,,,6,,,55,100
34048,note_on,,,,,4,0,7,,,,,0,,,79,99
34132,note_off,,,,,84,0,7,,,,,0,,,79,100
34172,note_off,,,,,380,0,13,,,,,6,,,71,100
34176,note_on,,,,,4,0,13,,,,,6,,,72,100
34176,note_on,,,,,44,0,7,,,,,0,,,78,98
34176,note_on,,,,,128,0,14,,,,,6,,,57,100
34176,note_on,,,,,128,0,11,,,,,4,,,57,75
34300,note_off,,,,,124,0,7,,,,,0,,,78,100
34304,note_on,,,,,4,0,7,,,,,0,,,79,97
34428,note_off,,,,,124,0,7,,,,,0,,,79,100
34432,note_off,,,,,256,0,14,,,,,6,,,57,100
34432,note_off,,,,,256,0,11,,,,,4,,,57,100
34432,note_on,,,,,4,0,7,,,,,0,,,81,96
34516,note_off,,,,,84,0,7,,,,,0,,,81,100
34556,note_off,,,,,380,0,13,,,,,6,,,64,100
34556,note_off,,,,,0,0,13,,,,,6,,,72,100
34560,note_on,,,,,44,0,7,,,,,0,,,76,98
34560,note_on,,,,,0,0,13,,,,,6,,,71,100
34560,note_on,,,,,128,0,14,,,,,6,,,59,100
34560,note_on,,,,,4,0,13,,,,,6,,,66,100
34560,note_on,,,,,0,0,13,,,,,6,,,63,100
34560,note_on,,,,,128,0,11,,,,,4,,,59,75
34748,note_off,,,,,188,0,7,,,,,0,,,76,100
34752,note_off,,,,,192,0,14,,,,,6,,,59,100
34752,note_on,,,,,4,0,7,,,,,0,,,75,96
34752,note_off,,,,,192,0,11,,,,,4,,,59,100
34812,note_off,,,,,60,0,7,,,,,0,,,75,100
34816,note_off,,,,,256,0,13,,,,,6,,,66,100
34816,note_off,,,,,0,0,13,,,,,6,,,63,100
34816,note_off,,,,,0,0,13,,,,,6,,,71,100
34816,note_on,,,,,4,0,7,,,,,0,,,76,96
34848,note_on,,,,,96,0,14,,,,,6,,,60,100
34848,note_on,,,,,96,0,11,,,,,4,,,60,75
34876,note_off,,,,,60,0,7,,,,,0,,,76,100
34880,note_on,,,,,4,0,7,,,,,0,,,75,95
34912,note_off,,,,,64,0,14,,,,,6,,,60,100
34912,note_off,,,,,64,0,11,,,,,4,,,60,100
34940,note_off,,,,,60,0,7,,,,,0,,,75,100
34944,note_on,,,,,4,0,7,,,,,0,,,76,94
34944,note_on,,,,,32,0,14,,,,,6,,,59,100
34944,note_on,,,,,32,0,11,,,,,4,,,59,75
34988,note_off,,,,,44,0,7,,,,,0,,,76,100
34992,note_on,,,,,4,0,7,,,,,0,,,75,94
35036,note_off,,,,,44,0,7,,,,,0,,,75,100
35040,note_on,,,,,4,0,7,,,,,0,,,76,93
35084,note_off,,,,,44,0,7,,,,,0,,,76,100
35088,note_on,,,,,4,0,7,,,,,0,,,75,93
35136,note_off,,,,,192,0,11,,,,,4,,,59,100
35136,note_off,,,,,192,0,14,,,,,6,,,59,100
35232,note_on,,,,,96,0,14,,,,,6,,,57,100
35232,note_on,,,,,96,0,11,,,,,4,,,57,75
35280,note_off,,,,,192,0,7,,,,,0,,,75,100
35296,note_off,,,,,64,0,14,,,,,6,,,57,100
35296,note_off,,,,,64,0,11,,,,,4,,,57,100
35328,note_on,,,,,32,0,11,,,,,4,,,56,75
35328,note_on,,,,,32,0,14,,,,,6,,,56,100
35456,note_off,,,,,128,0,11,,,,,4,,,56,100
35456,note_off,,,,,128,0,14,,,,,6,,,56,100
35520,note_on,,,,,64,0,11,,,,,4,,,54,75
35520,note_on,,,,,64,0,14,,,,,6,,,54,100
35648,note_off,,,,,128,0,11,,,,,4,,,54,100
35648,note_off,,,,,128,0,14,,,,,6,,,54,100
35712,note_on,,,,,64,0,11,,,,,4,,,52,75
35712,note_on,,,,,64,0,14,,,,,6,,,52,100
35740,note_on,,,,,924,0,13,,,,,6,,,68,100
35772,note_on,,,,,32,0,13,,,,,6,,,71,100
35804,note_on,,,,,32,0,13,,,,,6,,,76,100
35840,note_on,,,,,560,0,7,,,,,0,,,83,95
35964,note_off,,,,,124,0,7,,,,,0,,,83,100
35968,note_on,,,,,4,0,7,,,,,0,,,84,95
36092,note_off,,,,,124,0,7,,,,,0,,,84,100
36096,note_on,,,,,4,0,7,,,,,0,,,86,94
36220,note_off,,,,,124,0,7,,,,,0,,,86,100
36224,note_on,,,,,4,0,7,,,,,0,,,83,93
36320,note_off,,,,,516,0,13,,,,,6,,,76,100
36348,note_off,,,,,124,0,7,,,,,0,,,83,100
36352,note_on,,,,,4,0,7,,,,,0,,,81,93
36436,note_off,,,,,84,0,7,,,,,0,,,81,100
36480,note_on,,,,,160,0,13,,,,,6,,,74,100
36480,note_on,,,,,44,0,7,,,,,0,,,80,92
36604,note_off,,,,,124,0,7,,,,,0,,,80,100
36608,note_on,,,,,4,0,7,,,,,0,,,81,91
36628,note_off,,,,,148,0,13,,,,,6,,,68,100
36628,note_off,,,,,0,0,13,,,,,6,,,71,100
36632,note_off,,,,,920,0,11,,,,,4,,,52,100
36632,note_off,,,,,920,0,14,,,,,6,,,52,100
36732,note_off,,,,,124,0,7,,,,,0,,,81,100
36736,note_off,,,,,108,0,13,,,,,6,,,74,100
36736,note_on,,,,,4,0,7,,,,,0,,,83,91
36820,note_off,,,,,84,0,7,,,,,0,,,83,100
36864,note_on,,,,,44,0,7,,,,,0,,,74,94
36864,note_on,,,,,232,0,14,,,,,6,,,56,100
36864,note_on,,,,,128,0,13,,,,,6,,,74,100
36864,note_on,,,,,0,0,13,,,,,6,,,65,100
36864,note_on,,,,,232,0,11,,,,,4,,,56,75
36988,note_off,,,,,124,0,7,,,,,0,,,74,100
36992,note_on,,,,,4,0,7,,,,,0,,,76,94
37116,note_off,,,,,124,0,7,,,,,0,,,76,100
37120,note_on,,,,,4,0,7,,,,,0,,,77,94
37120,note_off,,,,,256,0,13,,,,,6,,,74,100
37204,note_off,,,,,84,0,7,,,,,0,,,77,100
37244,note_off,,,,,124,0,13,,,,,6,,,65,100
37248,note_on,,,,,4,0,13,,,,,6,,,59,100
37248,note_on,,,,,44,0,7,,,,,0,,,77,93
37372,note_off,,,,,124,0,7,,,,,0,,,77,100
37376,note_on,,,,,4,0,7,,,,,0,,,76,93
37500,note_off,,,,,124,0,7,,,,,0,,,76,100
37504,note_on,,,,,4,0,7,,,,,0,,,74,93
37588,note_off,,,,,84,0,7,,,,,0,,,74,100
37628,note_off,,,,,380,0,13,,,,,6,,,59,100
37632,note_on,,,,,4,0,13,,,,,6,,,71,100
37632,note_on,,,,,0,0,13,,,,,6,,,62,100
37632,note_on,,,,,44,0,7,,,,,0,,,74,92
37756,note_off,,,,,124,0,7,,,,,0,,,74,100
37760,note_on,,,,,4,0,7,,,,,0,,,73,92
37784,note_off,,,,,920,0,11,,,,,4,,,56,100
37784,note_off,,,,,920,0,14,,,,,6,,,56,100
37884,note_off,,,,,124,0,7,,,,,0,,,73,100
37888,note_off,,,,,0,0,13,,,,,6,,,62,100
37888,note_on,,,,,4,0,7,,,,,0,,,71,92
37888,note_off,,,,,256,0,13,,,,,6,,,71,100
37972,note_off,,,,,84,0,7,,,,,0,,,71,100
38016,note_on,,,,,232,0,11,,,,,4,,,57,75
38016,note_on,,,,,128,0,13,,,,,6,,,61,100
38016,note_on,,,,,232,0,14,,,,,6,,,57,100
38016,note_on,,,,,0,0,13,,,,,6,,,64,100
38016,note_on,,,,,0,0,13,,,,,6,,,69,100
38016,note_on,,,,,44,0,7,,,,,0,,,73,94
38140,note_off,,,,,124,0,7,,,,,0,,,73,100
38144,note_on,,,,,4,0,7,,,,,0,,,74,94
38268,note_off,,,,,124,0,7,,,,,0,,,74,100
38272,note_on,,,,,4,0,7,,,,,0,,,76,94
38356,note_off,,,,,84,0,7,,,,,0,,,76,100
38400,note_on,,,,,44,0,7,,,,,0,,,76,93
38524,note_off,,,,,124,0,7,,,,,0,,,76,100
38528,note_on,,,,,4,0,7,,,,,0,,,74,93
38628,note_off,,,,,612,0,13,,,,,6,,,64,100
38628,note_off,,,,,0,0,13,,,,,6,,,69,100
38652,note_off,,,,,124,0,7,,,,,0,,,74,100
38656,note_on,,,,,4,0,7,,,,,0,,,73,92
38740,note_off,,,,,84,0,7,,,,,0,,,73,100
38784,note_on,,,,,44,0,7,,,,,0,,,73,92
38784,note_on,,,,,156,0,13,,,,,6,,,67,100
38908,note_off,,,,,124,0,7,,,,,0,,,73,100
38912,note_on,,,,,4,0,7,,,,,0,,,74,91
38936,note_off,,,,,920,0,14,,,,,6,,,57,100
38936,note_off,,,,,920,0,11,,,,,4,,,57,100
38936,note_off,,,,,152,0,13,,,,,6,,,61,100
39036,note_off,,,,,124,0,7,,,,,0,,,74,100
39040,note_on,,,,,4,0,7,,,,,0,,,76,91
39040,note_off,,,,,104,0,13,,,,,6,,,67,100
39124,note_off,,,,,84,0,7,,,,,0,,,76,100
39168,note_on,,,,,232,0,11,,,,,4,,,49,75
39168,note_on,,,,,232,0,14,,,,,6,,,49,100
39168,note_on,,,,,44,0,7,,,,,0,,,67,93
39168,note_on,,,,,0,0,13,,,,,6,,,58,100
39168,note_on,,,,,128,0,13,,,,,6,,,67,100
39292,note_off,,,,,124,0,7,,,,,0,,,67,100
39296,note_on,,,,,4,0,7,,,,,0,,,69,93
39420,note_off,,,,,124,0,7,,,,,0,,,69,100
39424,note_on,,,,,4,0,7,,,,,0,,,70,92
39424,note_off,,,,,256,0,13,,,,,6,,,67,100
39508,note_off,,,,,84,0,7,,,,,0,,,70,100
39548,note_off,,,,,124,0,13,,,,,6,,,58,100
39552,note_on,,,,,44,0,7,,,,,0,,,70,92
39552,note_on,,,,,4,0,13,,,,,6,,,52,100
39676,note_off,,,,,124,0,7,,,,,0,,,70,100
39680,note_on,,,,,4,0,7,,,,,0,,,69,91
39804,note_off,,,,,124,0,7,,,,,0,,,69,100
39808,note_on,,,,,4,0,7,,,,,0,,,67,90
39892,note_off,,,,,84,0,7,,,,,0,,,67,100
39932,note_off,,,,,380,0,13,,,,,6,,,52,100
39936,note_on,,,,,0,0,13,,,,,6,,,55,100
39936,note_on,,,,,44,0,7,,,,,0,,,67,90
39936,note_on,,,,,4,0,13,,,,,6,,,64,100
40060,note_off,,,,,124,0,7,,,,,0,,,67,100
40064,note_on,,,,,4,0,7,,,,,0,,,66,89
40088,note_off,,,,,920,0,11,,,,,4,,,49,100
40088,note_off,,,,,920,0,14,,,,,6,,,49,100
40188,note_off,,,,,124,0,7,,,,,0,,,66,100
40192,note_off,,,,,256,0,13,,,,,6,,,64,100
40192,note_on,,,,,4,0,7,,,,,0,,,64,89
40192,note_off,,,,,0,0,13,,,,,6,,,55,100
40276,note_off,,,,,84,0,7,,,,,0,,,64,100
40320,note_on,,,,,128,0,13,,,,,6,,,62,100
40320,note_on,,,,,0,0,13,,,,,6,,,54,100
40320,note_on,,,,,232,0,11,,,,,4,,,50,75
40320,note_on,,,,,44,0,7,,,,,0,,,66,90
40320,note_on,,,,,232,0,14,,,,,6,,,50,100
40444,note_off,,,,,124,0,7,,,,,0,,,66,100
40448,note_on,,,,,4,0,7,,,,,0,,,78,95
40572,note_off,,,,,124,0,7,,,,,0,,,78,100
40576,note_on,,,,,4,0,7,,,,,0,,,79,95
40660,note_off,,,,,84,0,7,,,,,0,,,79,100
40704,note_on,,,,,44,0,7,,,,,0,,,81,94
40828,note_off,,,,,124,0,7,,,,,0,,,81,100
40832,note_on,,,,,4,0,7,,,,,0,,,79,94
40956,note_off,,,,,124,0,7,,,,,0,,,79,100
40960,note_on,,,,,4,0,7,,,,,0,,,78,93
41044,note_off,,,,,84,0,7,,,,,0,,,78,100
41088,note_on,,,,,768,0,13,,,,,6,,,66,100
41088,note_on,,,,,44,0,7,,,,,0,,,78,93
41212,note_off,,,,,124,0,7,,,,,0,,,78,100
41216,note_on,,,,,4,0,7,,,,,0,,,79,92
41240,note_off,,,,,920,0,14,,,,,6,,,50,100
41240,note_off,,,,,0,0,13,,,,,6,,,54,100
41240,note_off,,,,,152,0,13,,,,,6,,,62,100
41240,note_off,,,,,920,0,11,,,,,4,,,50,100
41340,note_off,,,,,124,0,7,,,,,0,,,79,100
41344,note_on,,,,,4,0,7,,,,,0,,,81,92
41344,note_off,,,,,104,0,13,,,,,6,,,66,100
41428,note_off,,,,,84,0,7,,,,,0,,,81,100
41472,note_on,,,,,44,0,7,,,,,0,,,72,95
41472,note_on,,,,,232,0,14,,,,,6,,,54,100
41472,note_on,,,,,0,0,13,,,,,6,,,60,100
41472,note_on,,,,,0,0,13,,,,,6,,,57,100
41472,note_on,,,,,128,0,13,,,,,6,,,66,100
41472,note_on,,,,,232,0,11,,,,,4,,,54,75
41596,note_off,,,,,124,0,7,,,,,0,,,72,100
41600,note_on,,,,,4,0,7,,,,,0,,,74,95
41724,note_off,,,,,124,0,7,,,,,0,,,74,100
41728,note_on,,,,,4,0,7,,,,,0,,,75,95
41812,note_off,,,,,84,0,7,,,,,0,,,75,100
41856,note_on,,,,,44,0,7,,,,,0,,,75,94
41980,note_off,,,,,124,0,7,,,,,0,,,75,100
41984,note_on,,,,,4,0,7,,,,,0,,,74,94
42108,note_off,,,,,124,0,7,,,,,0,,,74,100
42112,note_on,,,,,4,0,7,,,,,0,,,72,93
42196,note_off,,,,,84,0,7,,,,,0,,,72,100
42240,note_on,,,,,768,0,13,,,,,6,,,62,100
42240,note_on,,,,,44,0,7,,,,,0,,,72,93
42364,note_off,,,,,124,0,7,,,,,0,,,72,100
42368,note_on,,,,,4,0,7,,,,,0,,,71,92
42392,note_off,,,,,0,0,13,,,,,6,,,60,100
42392,note_off,,,,,920,0,14,,,,,6,,,54,100
42392,note_off,,,,,0,0,13,,,,,6,,,57,100
42392,note_off,,,,,152,0,13,,,,,6,,,66,100
42392,note_off,,,,,920,0,11,,,,,4,,,54,100
42492,note_off,,,,,124,0,7,,,,,0,,,71,100
42496,note_on,,,,,4,0,7,,,,,0,,,69,92
42496,note_off,,,,,104,0,13,,,,,6,,,62,100
42580,note_off,,,,,84,0,7,,,,,0,,,69,100
42624,note_on,,,,,0,0,13,,,,,6,,,62,100
42624,note_on,,,,,232,0,11,,,,,4,,,55,75
42624,note_on,,,,,232,0,14,,,,,6,,,55,100
42624,note_on,,,,,44,0,7,,,,,0,,,71,95
42624,note_on,,,,,128,0,13,,,,,6,,,71,100
42748,note_off,,,,,124,0,7,,,,,0,,,71,100
42752,note_on,,,,,4,0,7,,,,,0,,,72,95
42876,note_off,,,,,124,0,7,,,,,0,,,72,100
42880,note_off,,,,,256,0,14,,,,,6,,,55,100
42880,note_off,,,,,256,0,11,,,,,4,,,55,100
42880,note_on,,,,,4,0,7,,,,,0,,,74,96
42964,note_off,,,,,84,0,7,,,,,0,,,74,100
43004,note_off,,,,,380,0,13,,,,,6,,,62,100
43008,note_on,,,,,44,0,7,,,,,0,,,65,96
43008,note_on,,,,,128,0,14,,,,,6,,,47,100
43008,note_on,,,,,128,0,11,,,,,4,,,47,75
43008,note_on,,,,,4,0,13,,,,,6,,,65,100
43132,note_off,,,,,124,0,7,,,,,0,,,65,100
43136,note_on,,,,,4,0,7,,,,,0,,,68,97
43260,note_off,,,,,124,0,7,,,,,0,,,68,100
43264,note_on,,,,,4,0,7,,,,,0,,,67,97
43348,note_off,,,,,84,0,7,,,,,0,,,67,100
43388,note_off,,,,,380,0,13,,,,,6,,,71,100
43392,note_on,,,,,4,0,13,,,,,6,,,68,100
43392,note_on,,,,,44,0,7,,,,,0,,,65,98
43516,note_off,,,,,124,0,7,,,,,0,,,65,100
43520,note_on,,,,,4,0,7,,,,,0,,,64,98
43644,note_off,,,,,124,0,7,,,,,0,,,64,100
43648,note_on,,,,,4,0,7,,,,,0,,,62,99
43696,note_off,,,,,688,0,14,,,,,6,,,47,100
43696,note_off,,,,,688,0,11,,,,,4,,,47,100
43732,note_off,,,,,84,0,7,,,,,0,,,62,100
43772,note_off,,,,,380,0,13,,,,,6,,,65,100
43772,note_off,,,,,0,0,13,,,,,6,,,68,100
43776,note_on,,,,,44,0,7,,,,,0,,,64,99
43776,note_on,,,,,80,0,11,,,,,4,,,48,75
43776,note_on,,,,,4,0,13,,,,,6,,,64,100
43776,note_on,,,,,0,0,13,,,,,6,,,67,100
43776,note_on,,,,,80,0,14,,,,,6,,,48,100
43900,note_off,,,,,124,0,7,,,,,0,,,64,100
43904,note_on,,,,,4,0,7,,,,,0,,,65,100
44028,note_off,,,,,124,0,7,,,,,0,,,65,100
44032,note_off,,,,,256,0,14,,,,,6,,,48,100
44032,note_on,,,,,4,0,7,,,,,0,,,67,101
44032,note_off,,,,,256,0,11,,,,,4,,,48,100
44116,note_off,,,,,84,0,7,,,,,0,,,67,100
44156,note_off,,,,,380,0,13,,,,,6,,,64,100
44160,note_on,,,,,128,0,14,,,,,6,,,52,100
44160,note_on,,,,,4,0,13,,,,,6,,,58,100
44160,note_on,,,,,44,0,7,,,,,0,,,58,101
44160,note_on,,,,,128,0,11,,,,,4,,,52,75
44284,note_off,,,,,124,0,7,,,,,0,,,58,100
44288,note_on,,,,,4,0,7,,,,,0,,,61,102
44412,note_off,,,,,124,0,7,,,,,0,,,61,100
44416,note_on,,,,,4,0,7,,,,,0,,,60,102
44500,note_off,,,,,84,0,7,,,,,0,,,60,100
44540,note_off,,,,,380,0,13,,,,,6,,,67,100
44544,note_on,,,,,44,0,7,,,,,0,,,58,103
44544,note_on,,,,,4,0,13,,,,,6,,,61,100
44668,note_off,,,,,124,0,7,,,,,0,,,58,100
44672,note_on,,,,,4,0,7,,,,,0,,,56,103
44796,note_off,,,,,124,0,7,,,,,0,,,56,100
44800,note_on,,,,,4,0,7,,,,,0,,,55,104
44848,note_off,,,,,688,0,14,,,,,6,,,52,100
44848,note_off,,,,,688,0,11,,,,,4,,,52,100
44884,note_off,,,,,84,0,7,,,,,0,,,55,100
44924,note_off,,,,,0,0,13,,,,,6,,,61,100
44924,note_off,,,,,380,0,13,,,,,6,,,58,100
44928,note_on,,,,,44,0,7,,,,,0,,,56,104
44928,note_on,,,,,80,0,11,,,,,4,,,53,75
44928,note_on,,,,,0,0,13,,,,,6,,,60,100
44928,note_on,,,,,80,0,14,,,,,6,,,53,100
44928,note_on,,,,,0,0,13,,,,,6,,,65,100
44928,note_on,,,,,4,0,13,,,,,6,,,56,100
45052,note_off,,,,,124,0,7,,,,,0,,,56,100
45056,note_on,,,,,4,0,7,,,,,0,,,60,100
45180,note_off,,,,,124,0,7,,,,,0,,,60,100
45184,note_on,,,,,4,0,7,,,,,0,,,58,100
45268,note_off,,,,,84,0,7,,,,,0,,,58,100
45312,note_on,,,,,44,0,7,,,,,0,,,60,100
45436,note_off,,,,,124,0,7,,,,,0,,,60,100
45440,note_on,,,,,4,0,7,,,,,0,,,65,100
45564,note_off,,,,,124,0,7,,,,,0,,,65,100
45568,note_on,,,,,4,0,7,,,,,0,,,64,100
45616,note_off,,,,,0,0,13,,,,,6,,,65,100
45616,note_off,,,,,0,0,13,,,,,6,,,60,100
45616,note_off,,,,,688,0,13,,,,,6,,,56,100
45616,note_off,,,,,688,0,14,,,,,6,,,53,100
45616,note_off,,,,,688,0,11,,,,,4,,,53,100
45652,note_off,,,,,84,0,7,,,,,0,,,64,100
45696,note_on,,,,,44,0,7,,,,,0,,,65,100
45820,note_off,,,,,124,0,7,,,,,0,,,65,100
45824,note_on,,,,,4,0,7,,,,,0,,,68,100
45948,note_off,,,,,124,0,7,,,,,0,,,68,100
45952,note_on,,,,,4,0,7,,,,,0,,,67,100
46036,note_off,,,,,84,0,7,,,,,0,,,67,100
46080,note_on,,,,,0,0,13,,,,,6,,,65,100
46080,note_on,,,,,0,0,13,,,,,6,,,60,100
46080,note_on,,,,,464,0,13,,,,,6,,,56,100
46080,note_on,,,,,464,0,14,,,,,6,,,53,100
46080,note_on,,,,,464,0,11,,,,,4,,,53,75
46080,note_on,,,,,44,0,7,,,,,0,,,68,100
46204,note_off,,,,,124,0,7,,,,,0,,,68,100
46208,note_on,,,,,4,0,7,,,,,0,,,72,100
46332,note_off,,,,,124,0,7,,,,,0,,,72,100
46336,note_on,,,,,4,0,7,,,,,0,,,70,100
46420,note_off,,,,,84,0,7,,,,,0,,,70,100
46464,note_on,,,,,44,0,7,,,,,0,,,72,100
46588,note_off,,,,,124,0,7,,,,,0,,,72,100
46592,note_on,,,,,4,0,7,,,,,0,,,77,100
46716,note_off,,,,,124,0,7,,,,,0,,,77,100
46720,note_on,,,,,4,0,7,,,,,0,,,76,100
46768,note_off,,,,,0,0,13,,,,,6,,,60,100
46768,note_off,,,,,688,0,13,,,,,6,,,56,100
46768,note_off,,,,,0,0,13,,,,,6,,,65,100
46768,note_off,,,,,688,0,11,,,,,4,,,53,100
46768,note_off,,,,,688,0,14,,,,,6,,,53,100
46804,note_off,,,,,84,0,7,,,,,0,,,76,100
46848,note_on,,,,,44,0,7,,,,,0,,,77,100
46972,note_off,,,,,124,0,7,,,,,0,,,77,100
46976,note_on,,,,,4,0,7,,,,,0,,,80,100
47100,note_off,,,,,124,0,7,,,,,0,,,80,100
47104,note_on,,,,,4,0,7,,,,,0,,,79,100
47188,note_off,,,,,84,0,7,,,,,0,,,79,100
47232,note_on,,,,,44,0,7,,,,,0,,,80,100
47232,note_on,,,,,464,0,14,,,,,6,,,53,100
47232,note_on,,,,,464,0,11,,,,,4,,,53,75
47232,note_on,,,,,464,0,13,,,,,6,,,56,100
47232,note_on,,,,,0,0,13,,,,,6,,,60,100
47232,note_on,,,,,0,0,13,,,,,6,,,65,100
47356,note_off,,,,,124,0,7,,,,,0,,,80,100
47360,note_on,,,,,4,0,7,,,,,0,,,84,100
47484,note_off,,,,,124,0,7,,,,,0,,,84,100
47488,note_on,,,,,4,0,7,,,,,0,,,82,100
47572,note_off,,,,,84,0,7,,,,,0,,,82,100
47616,note_on,,,,,44,0,7,,,,,0,,,80,100
47740,note_off,,,,,124,0,7,,,,,0,,,80,100
47744,note_on,,,,,4,0,7,,,,,0,,,82,100
47868,note_off,,,,,124,0,7,,,,,0,,,82,100
47872,note_on,,,,,4,0,7,,,,,0,,,84,100
47920,note_off,,,,,688,0,13,,,,,6,,,56,100
47920,note_off,,,,,688,0,11,,,,,4,,,53,100
47920,note_off,,,,,0,0,13,,,,,6,,,60,100
47920,note_off,,,,,0,0,13,,,,,6,,,65,100
47920,note_off,,,,,688,0,14,,,,,6,,,53,100
47956,note_off,,,,,84,0,7,,,,,0,,,84,100
48000,note_on,,,,,44,0,7,,,,,0,,,80,100
48124,note_off,,,,,124,0,7,,,,,0,,,80,100
48128,note_on,,,,,4,0,7,,,,,0,,,79,100
48252,note_off,,,,,124,0,7,,,,,0,,,79,100
48256,note_on,,,,,4,0,7,,,,,0,,,77,100
48340,note_off,,,,,84,0,7,,,,,0,,,77,100
48384,note_on,,,,,0,0,13,,,,,6,,,65,100
48384,note_on,,,,,464,0,11,,,,,4,,,55,75
48384,note_on,,,,,0,0,13,,,,,6,,,62,100
48384,note_on,,,,,464,0,13,,,,,6,,,59,100
48384,note_on,,,,,464,0,14,,,,,6,,,55,100
48384,note_on,,,,,44,0,7,,,,,0,,,83,104
48768,note_off,,,,,384,0,7,,,,,0,,,83,100
48864,note_on,,,,,96,0,7,,,,,0,,,83,100
48956,note_off,,,,,92,0,7,,,,,0,,,83,100
48960,note_on,,,,,4,0,7,,,,,0,,,84,100
48996,note_off,,,,,612,0,13,,,,,6,,,59,100
49052,note_off,,,,,92,0,7,,,,,0,,,84,100
49056,note_on,,,,,4,0,7,,,,,0,,,86,100
49148,note_off,,,,,92,0,7,,,,,0,,,86,100
49152,note_on,,,,,4,0,7,,,,,0,,,84,100
49152,note_on,,,,,156,0,13,,,,,6,,,74,100
49280,note_off,,,,,128,0,7,,,,,0,,,84,100
49304,note_off,,,,,0,0,13,,,,,6,,,65,100
49304,note_off,,,,,152,0,13,,,,,6,,,62,100
49304,note_off,,,,,920,0,14,,,,,6,,,55,100
49304,note_off,,,,,920,0,11,,,,,4,,,55,100
49344,note_on,,,,,64,0,7,,,,,0,,,83,100
49408,note_off,,,,,104,0,13,,,,,6,,,74,100
49472,note_off,,,,,128,0,7,,,,,0,,,83,100
49536,note_on,,,,,232,0,11,,,,,4,,,48,75
49536,note_on,,,,,0,0,13,,,,,6,,,67,100
49536,note_on,,,,,128,0,13,,,,,6,,,76,100
49536,note_on,,,,,64,0,7,,,,,0,,,84,105
49536,note_on,,,,,232,0,14,,,,,6,,,48,100
49664,note_off,,,,,128,0,7,,,,,0,,,84,100
49724,note_off,,,,,188,0,13,,,,,6,,,76,100
49728,note_on,,,,,64,0,7,,,,,0,,,76,105
49728,note_on,,,,,4,0,13,,,,,6,,,72,100
49792,note_off,,,,,256,0,11,,,,,4,,,48,100
49792,note_off,,,,,256,0,14,,,,,6,,,48,100
49828,note_off,,,,,100,0,7,,,,,0,,,76,100
49916,note_off,,,,,188,0,13,,,,,6,,,67,100
49920,note_on,,,,,128,0,14,,,,,6,,,50,100
49920,note_on,,,,,128,0,11,,,,,4,,,50,75
49920,note_on,,,,,92,0,7,,,,,0,,,78,104
49920,note_on,,,,,4,0,13,,,,,6,,,66,100
50012,note_off,,,,,92,0,7,,,,,0,,,78,100
50016,note_on,,,,,4,0,7,,,,,0,,,81,103
50108,note_off,,,,,92,0,7,,,,,0,,,81,100
50108,note_off,,,,,188,0,13,,,,,6,,,72,100
50112,note_on,,,,,4,0,7,,,,,0,,,82,103
50112,note_on,,,,,4,0,13,,,,,6,,,74,100
50204,note_off,,,,,92,0,7,,,,,0,,,82,100
50208,note_on,,,,,4,0,7,,,,,0,,,84,102
50300,note_off,,,,,92,0,7,,,,,0,,,84,100
50304,note_on,,,,,4,0,7,,,,,0,,,82,102
50404,note_off,,,,,100,0,7,,,,,0,,,82,100
50432,note_off,,,,,320,0,13,,,,,6,,,66,100
50492,note_off,,,,,60,0,13,,,,,6,,,74,100
50496,note_on,,,,,92,0,7,,,,,0,,,81,101
50496,note_on,,,,,4,0,13,,,,,6,,,72,100
50596,note_off,,,,,100,0,7,,,,,0,,,81,100
50608,note_off,,,,,688,0,11,,,,,4,,,50,100
50608,note_off,,,,,688,0,14,,,,,6,,,50,100
50624,note_off,,,,,128,0,13,,,,,6,,,72,100
50688,note_on,,,,,92,0,7,,,,,0,,,82,104
50688,note_on,,,,,80,0,14,,,,,6,,,43,100
50688,note_on,,,,,0,0,13,,,,,6,,,70,100
50688,note_on,,,,,80,0,11,,,,,4,,,43,75
50688,note_on,,,,,0,0,13,,,,,6,,,67,100
50688,note_on,,,,,64,0,13,,,,,6,,,62,100
50812,note_off,,,,,124,0,7,,,,,0,,,82,100
50816,note_on,,,,,4,0,7,,,,,0,,,86,104
50940,note_off,,,,,124,0,7,,,,,0,,,86,100
50944,note_on,,,,,4,0,7,,,,,0,,,84,103
51028,note_off,,,,,84,0,7,,,,,0,,,84,100
51072,note_on,,,,,44,0,7,,,,,0,,,82,102
51196,note_off,,,,,124,0,7,,,,,0,,,82,100
51200,note_on,,,,,4,0,7,,,,,0,,,81,101
51300,note_off,,,,,0,0,13,,,,,6,,,67,100
51300,note_off,,,,,612,0,13,,,,,6,,,62,100
51300,note_off,,,,,0,0,13,,,,,6,,,70,100
51324,note_off,,,,,124,0,7,,,,,0,,,81,100
51328,note_on,,,,,4,0,7,,,,,0,,,79,100
51376,note_off,,,,,688,0,11,,,,,4,,,43,100
51376,note_off,,,,,688,0,14,,,,,6,,,43,100
51412,note_off,,,,,84,0,7,,,,,0,,,79,100
51456,note_on,,,,,44,0,7,,,,,0,,,77,99
51456,note_on,,,,,80,0,14,,,,,6,,,50,100
51456,note_on,,,,,0,0,13,,,,,6,,,69,100
51456,note_on,,,,,80,0,11,,,,,4,,,50,75
51456,note_on,,,,,156,0,13,,,,,6,,,65,100
51580,note_off,,,,,124,0,7,,,,,0,,,77,100
51584,note_on,,,,,4,0,7,,,,,0,,,75,98
51708,note_off,,,,,124,0,7,,,,,0,,,75,100
51712,note_off,,,,,0,0,13,,,,,6,,,69,100
51712,note_off,,,,,256,0,13,,,,,6,,,65,100
51712,note_off,,,,,256,0,11,,,,,4,,,50,100
51712,note_off,,,,,256,0,14,,,,,6,,,50,100
51712,note_on,,,,,4,0,7,,,,,0,,,74,97
51796,note_off,,,,,84,0,7,,,,,0,,,74,100
51840,note_on,,,,,128,0,14,,,,,6,,,52,100
51840,note_on,,,,,0,0,13,,,,,6,,,68,100
51840,note_on,,,,,128,0,13,,,,,6,,,64,100
51840,note_on,,,,,128,0,11,,,,,4,,,52,75
51840,note_on,,,,,44,0,7,,,,,0,,,80,100
52220,note_off,,,,,380,0,13,,,,,6,,,68,100
52224,note_off,,,,,384,0,7,,,,,0,,,80,100
52224,note_on,,,,,4,0,13,,,,,6,,,71,100
52320,note_on,,,,,96,0,7,,,,,0,,,80,96
52412,note_off,,,,,92,0,7,,,,,0,,,80,100
52416,note_on,,,,,4,0,7,,,,,0,,,81,95
52508,note_off,,,,,92,0,7,,,,,0,,,81,100
52512,note_on,,,,,4,0,7,,,,,0,,,83,94
52604,note_off,,,,,92,0,7,,,,,0,,,83,100
52604,note_off,,,,,380,0,13,,,,,6,,,71,100
52608,note_on,,,,,4,0,7,,,,,0,,,81,93
52608,note_on,,,,,4,0,13,,,,,6,,,74,100
52736,note_off,,,,,128,0,7,,,,,0,,,81,100
52800,note_on,,,,,64,0,7,,,,,0,,,80,91
52928,note_off,,,,,128,0,7,,,,,0,,,80,100
52988,note_off,,,,,380,0,13,,,,,6,,,74,100
52992,note_on,,,,,64,0,7,,,,,0,,,74,96
52992,note_on,,,,,4,0,13,,,,,6,,,71,100
53372,note_off,,,,,380,0,13,,,,,6,,,71,100
53376,note_on,,,,,4,0,13,,,,,6,,,68,100
53376,note_off,,,,,384,0,7,,,,,0,,,74,100
53472,note_on,,,,,96,0,7,,,,,0,,,80,94
53564,note_off,,,,,92,0,7,,,,,0,,,80,100
53568,note_on,,,,,4,0,7,,,,,0,,,81,93
53660,note_off,,,,,92,0,7,,,,,0,,,81,100
53664,note_on,,,,,4,0,7,,,,,0,,,83,92
53756,note_off,,,,,380,0,13,,,,,6,,,68,100
53756,note_off,,,,,92,0,7,,,,,0,,,83,100
53760,note_on,,,,,4,0,13,,,,,6,,,74,100
53760,note_on,,,,,4,0,7,,,,,0,,,81,92
53888,note_off,,,,,128,0,7,,,,,0,,,81,100
53912,note_off,,,,,2072,0,11,,,,,4,,,52,100
53912,note_off,,,,,152,0,13,,,,,6,,,64,100
53912,note_off,,,,,2072,0,14,,,,,6,,,52,100
53952,note_on,,,,,64,0,7,,,,,0,,,80,95
54080,note_off,,,,,128,0,7,,,,,0,,,80,100
54140,note_off,,,,,228,0,13,,,,,6,,,74,100
54144,note_on,,,,,232,0,11,,,,,4,,,45,91
54144,note_on,,,,,232,0,14,,,,,6,,,45,100
54144,note_on,,,,,0,0,13,,,,,6,,,72,100
54144,note_on,,,,,64,0,7,,,,,0,,,81,99
54144,note_on,,,,,4,0,13,,,,,6,,,69,100
54272,note_off,,,,,128,0,7,,,,,0,,,81,100
54336,note_on,,,,,64,0,7,,,,,0,,,69,100
54400,note_off,,,,,256,0,13,,,,,6,,,72,100
54400,note_off,,,,,256,0,14,,,,,6,,,45,100
54400,note_off,,,,,256,0,11,,,,,4,,,45,100
54436,note_off,,,,,100,0,7,,,,,0,,,69,100
54528,note_on,,,,,128,0,14,,,,,6,,,52,100
54528,note_on,,,,,128,0,11,,,,,4,,,52,94
54528,note_on,,,,,0,0,7,,,,,0,,,64,105
54528,note_on,,,,,128,0,13,,,,,6,,,71,100
54528,note_on,,,,,92,0,7,,,,,0,,,72,105
54620,note_off,,,,,92,0,7,,,,,0,,,72,100
54624,note_on,,,,,4,0,7,,,,,0,,,71,105
54656,note_off,,,,,128,0,13,,,,,6,,,69,100
54668,note_off,,,,,44,0,7,,,,,0,,,71,100
54672,note_on,,,,,4,0,7,,,,,0,,,72,105
54716,note_off,,,,,44,0,7,,,,,0,,,72,100
54720,note_on,,,,,4,0,7,,,,,0,,,71,104
54764,note_off,,,,,44,0,7,,,,,0,,,71,100
54768,note_on,,,,,4,0,7,,,,,0,,,72,104
54784,note_off,,,,,256,0,11,,,,,4,,,52,100
54784,note_off,,,,,256,0,14,,,,,6,,,52,100
54784,note_off,,,,,128,0,13,,,,,6,,,71,100
54784,note_off,,,,,16,0,7,,,,,0,,,64,100
54812,note_off,,,,,28,0,7,,,,,0,,,72,100
54816,note_on,,,,,4,0,7,,,,,0,,,71,104
54860,note_off,,,,,44,0,7,,,,,0,,,71,100
54864,note_on,,,,,4,0,7,,,,,0,,,72,103
54908,note_off,,,,,44,0,7,,,,,0,,,72,100
54912,note_on,,,,,0,0,13,,,,,6,,,68,100
54912,note_on,,,,,128,0,13,,,,,6,,,71,100
54912,note_on,,,,,128,0,14,,,,,6,,,40,100
54912,note_on,,,,,128,0,11,,,,,4,,,40,97
54912,note_on,,,,,4,0,7,,,,,0,,,71,103
55012,note_off,,,,,100,0,7,,,,,0,,,71,100
55104,note_on,,,,,92,0,7,,,,,0,,,69,102
55168,note_off,,,,,256,0,11,,,,,4,,,40,100
55168,note_off,,,,,256,0,14,,,,,6,,,40,100
55168,note_off,,,,,256,0,13,,,,,6,,,71,100
55168,note_off,,,,,0,0,13,,,,,6,,,68,100
55204,note_off,,,,,100,0,7,,,,,0,,,69,100
55292,program_change,,,,,124,0,11,,,,,4,48,,,
55296,note_on,,,,,0,0,13,,,,,6,,,69,100
55296,note_on,,,,,128,0,13,,,,,6,,,60,100
55296,note_on,,,,,26192,0,16,,,,,7,,,45,100
55296,note_on,,,,,26192,0,9,,,,,2,,,64,100
55296,note_on,,,,,0,0,13,,,,,6,,,64,100
55296,note_on,,,,,128,0,14,,,,,6,,,45,100
55296,note_on,,,,,92,0,7,,,,,0,,,69,101
55296,note_on,,,,,26192,0,12,,,,,5,,,33,100
55296,note_on,,,,,26192,0,8,,,,,1,,,69,100
55296,note_on,,,,,26192,0,15,,,,,7,,,60,100
55296,note_on,,,,,0,0,15,,,,,7,,,64,100
55296,note_on,,,,,0,0,15,,,,,7,,,69,100
55296,note_on,,,,,4,0,11,,,,,4,,,45,99
55296,note_on,,,,,26192,0,10,,,,,3,,,60,100
55396,note_off,,,,,100,0,11,,,,,4,,,45,100
55396,note_off,,,,,100,0,8,,,,,1,,,69,100
55396,note_off,,,,,100,0,16,,,,,7,,,45,100
55396,note_off,,,,,100,0,14,,,,,6,,,45,100
55396,note_off,,,,,100,0,10,,,,,3,,,60,100
55396,note_off,,,,,100,0,12,,,,,5,,,33,100
55424,note_off,,,,,128,0,15,,,,,7,,,60,100
55424,note_off,,,,,0,0,15,,,,,7,,,69,100
55424,note_off,,,,,0,0,13,,,,,6,,,69,100
55424,note_off,,,,,0,0,13,,,,,6,,,64,100
55424,note_off,,,,,0,0,15,,,,,7,,,64,100
55424,note_off,,,,,128,0,13,,,,,6,,,60,100
55488,note_on,,,,,0,0,13,,,,,6,,,64,100
55488,note_on,,,,,64,0,13,,,,,6,,,60,100
55488,note_on,,,,,92,0,8,,,,,1,,,64,100
55488,note_on,,,,,0,0,15,,,,,7,,,64,100
55488,note_on,,,,,92,0,14,,,,,6,,,45,100
55488,note_on,,,,,92,0,11,,,,,4,,,45,100
55488,note_on,,,,,92,0,10,,,,,3,,,60,100
55488,note_on,,,,,64,0,15,,,,,7,,,60,100
55488,note_on,,,,,92,0,12,,,,,5,,,33,100
55488,note_on,,,,,92,0,16,,,,,7,,,45,100
55552,note_off,,,,,64,0,11,,,,,4,,,45,100
55552,note_off,,,,,64,0,12,,,,,5,,,33,100
55552,note_off,,,,,64,0,10,,,,,3,,,60,100
55552,note_off,,,,,64,0,16,,,,,7,,,45,100
55552,note_off,,,,,256,0,7,,,,,0,,,69,100
55552,note_off,,,,,256,0,9,,,,,2,,,64,100
55552,note_off,,,,,64,0,14,,,,,6,,,45,100
55580,note_off,,,,,92,0,15,,,,,7,,,60,100
55580,note_off,,,,,92,0,13,,,,,6,,,60,100
55584,note_on,,,,,4,0,15,,,,,7,,,62,100
55584,note_on,,,,,32,0,12,,,,,5,,,35,100
55584,note_on,,,,,32,0,14,,,,,6,,,47,100
55584,note_on,,,,,4,0,13,,,,,6,,,62,100
55584,note_on,,,,,32,0,16,,,,,7,,,47,100
55584,note_on,,,,,32,0,11,,,,,4,,,47,100
55584,note_on,,,,,32,0,10,,,,,3,,,62,100
55588,note_off,,,,,4,0,13,,,,,6,,,64,100
55588,note_off,,,,,4,0,15,,,,,7,,,64,100
55648,note_off,,,,,64,0,14,,,,,6,,,47,100
55648,note_off,,,,,60,0,15,,,,,7,,,62,100
55648,note_off,,,,,64,0,11,,,,,4,,,47,100
55648,note_off,,,,,64,0,16,,,,,7,,,47,100
55648,note_off,,,,,64,0,10,,,,,3,,,62,100
55648,note_off,,,,,64,0,12,,,,,5,,,35,100
55648,note_off,,,,,60,0,13,,,,,6,,,62,100
55680,note_on,,,,,32,0,14,,,,,6,,,48,100
55680,note_on,,,,,32,0,16,,,,,7,,,48,100
55680,note_on,,,,,32,0,15,,,,,7,,,69,100
55680,note_on,,,,,32,0,12,,,,,5,,,36,100
55680,note_on,,,,,32,0,13,,,,,6,,,69,100
55680,note_on,,,,,32,0,10,,,,,3,,,64,100
55680,note_on,,,,,0,0,13,,,,,6,,,64,100
55680,note_on,,,,,32,0,11,,,,,4,,,48,100
55680,note_on,,,,,0,0,15,,,,,7,,,64,100
55744,note_off,,,,,256,0,8,,,,,1,,,64,100
55780,note_off,,,,,100,0,13,,,,,6,,,69,100
55780,note_off,,,,,100,0,16,,,,,7,,,48,100
55780,note_off,,,,,0,0,13,,,,,6,,,64,100
55780,note_off,,,,,100,0,12,,,,,5,,,36,100
55780,note_off,,,,,100,0,11,,,,,4,,,48,100
55780,note_off,,,,,100,0,10,,,,,3,,,64,100
55780,note_off,,,,,100,0,14,,,,,6,,,48,100
55780,note_off,,,,,0,0,15,,,,,7,,,64,100
55780,note_off,,,,,100,0,15,,,,,7,,,69,100
55872,note_on,,,,,92,0,11,,,,,4,,,45,100
55872,note_on,,,,,92,0,12,,,,,5,,,33,100
55872,note_on,,,,,0,0,15,,,,,7,,,64,100
55872,note_on,,,,,92,0,10,,,,,3,,,60,100
55872,note_on,,,,,128,0,8,,,,,1,,,64,100
55872,note_on,,,,,92,0,16,,,,,7,,,45,100
55872,note_on,,,,,0,0,13,,,,,6,,,64,100
55872,note_on,,,,,92,0,14,,,,,6,,,45,100
55872,note_on,,,,,92,0,15,,,,,7,,,60,100
55872,note_on,,,,,92,0,13,,,,,6,,,60,100
55872,note_on,,,,,320,0,9,,,,,2,,,64,100
55972,note_off,,,,,100,0,9,,,,,2,,,64,100
55972,note_off,,,,,100,0,12,,,,,5,,,33,100
55972,note_off,,,,,0,0,15,,,,,7,,,64,100
55972,note_off,,,,,100,0,14,,,,,6,,,45,100
55972,note_off,,,,,100,0,16,,,,,7,,,45,100
55972,note_off,,,,,100,0,11,,,,,4,,,45,100
55972,note_off,,,,,100,0,8,,,,,1,,,64,100
55972,note_off,,,,,100,0,13,,,,,6,,,60,100
55972,note_off,,,,,0,0,13,,,,,6,,,64,100
55972,note_off,,,,,100,0,15,,,,,7,,,60,100
55972,note_off,,,,,100,0,10,,,,,3,,,60,100
56064,note_on,,,,,92,0,9,,,,,2,,,62,100
56064,note_on,,,,,92,0,8,,,,,1,,,65,100
56164,note_off,,,,,100,0,9,,,,,2,,,62,100
56164,note_off,,,,,100,0,8,,,,,1,,,65,100
56256,note_on,,,,,92,0,9,,,,,2,,,60,100
56256,note_on,,,,,92,0,8,,,,,1,,,64,100
56356,note_off,,,,,100,0,9,,,,,2,,,60,100
56356,note_off,,,,,100,0,8,,,,,1,,,64,100
56448,note_on,,,,,92,0,8,,,,,1,,,69,100
56448,note_on,,,,,92,0,9,,,,,2,,,64,100
56548,note_off,,,,,100,0,8,,,,,1,,,69,100
56640,note_on,,,,,668,0,14,,,,,6,,,45,100
56640,note_on,,,,,668,0,12,,,,,5,,,33,100
56640,note_on,,,,,668,0,13,,,,,6,,,60,100
56640,note_on,,,,,668,0,16,,,,,7,,,45,100
56640,note_on,,,,,668,0,10,,,,,3,,,60,100
56640,note_on,,,,,0,0,13,,,,,6,,,64,100
56640,note_on,,,,,0,0,15,,,,,7,,,64,100
56640,note_on,,,,,92,0,8,,,,,1,,,64,100
56640,note_on,,,,,668,0,11,,,,,4,,,45,100
56640,note_on,,,,,668,0,15,,,,,7,,,60,100
56704,note_off,,,,,64,0,16,,,,,7,,,45,100
56704,note_off,,,,,64,0,12,,,,,5,,,33,100
56704,note_off,,,,,64,0,10,,,,,3,,,60,100
56704,note_off,,,,,256,0,9,,,,,2,,,64,100
56704,note_off,,,,,64,0,14,,,,,6,,,45,100
56704,note_off,,,,,64,0,11,,,,,4,,,45,100
56732,note_off,,,,,92,0,13,,,,,6,,,60,100
56732,note_off,,,,,92,0,15,,,,,7,,,60,100
56736,note_on,,,,,32,0,10,,,,,3,,,62,100
56736,note_on,,,,,32,0,14,,,,,6,,,47,100
56736,note_on,,,,,4,0,13,,,,,6,,,62,100
56736,note_on,,,,,32,0,12,,,,,5,,,35,100
56736,note_on,,,,,32,0,11,,,,,4,,,47,100
56736,note_on,,,,,4,0,15,,,,,7,,,62,100
56736,note_on,,,,,32,0,16,,,,,7,,,47,100
56740,note_off,,,,,4,0,15,,,,,7,,,64,100
56740,note_off,,,,,4,0,13,,,,,6,,,64,100
56800,note_off,,,,,64,0,16,,,,,7,,,47,100
56800,note_off,,,,,64,0,11,,,,,4,,,47,100
56800,note_off,,,,,60,0,15,,,,,7,,,62,100
56800,note_off,,,,,64,0,14,,,,,6,,,47,100
56800,note_off,,,,,64,0,10,,,,,3,,,62,100
56800,note_off,,,,,60,0,13,,,,,6,,,62,100
56800,note_off,,,,,64,0,12,,,,,5,,,35,100
56832,note_on,,,,,32,0,11,,,,,4,,,48,100
56832,note_on,,,,,32,0,15,,,,,7,,,69,100
56832,note_on,,,,,32,0,16,,,,,7,,,48,100
56832,note_on,,,,,32,0,13,,,,,6,,,69,100
56832,note_on,,,,,32,0,12,,,,,5,,,36,100
56832,note_on,,,,,0,0,13,,,,,6,,,64,100
56832,note_on,,,,,0,0,15,,,,,7,,,64,100
56832,note_on,,,,,32,0,14,,,,,6,,,48,100
56832,note_on,,,,,32,0,10,,,,,3,,,64,100
56896,note_off,,,,,256,0,8,,,,,1,,,64,100
56932,note_off,,,,,100,0,13,,,,,6,,,69,100
56932,note_off,,,,,100,0,16,,,,,7,,,48,100
56932,note_off,,,,,100,0,11,,,,,4,,,48,100
56932,note_off,,,,,100,0,10,,,,,3,,,64,100
56932,note_off,,,,,100,0,12,,,,,5,,,36,100
56932,note_off,,,,,0,0,15,,,,,7,,,64,100
56932,note_off,,,,,100,0,14,,,,,6,,,48,100
56932,note_off,,,,,0,0,13,,,,,6,,,64,100
56932,note_off,,,,,100,0,15,,,,,7,,,69,100
57024,note_on,,,,,92,0,11,,,,,4,,,45,100
57024,note_on,,,,,92,0,12,,,,,5,,,33,100
57024,note_on,,,,,320,0,9,,,,,2,,,64,100
57024,note_on,,,,,92,0,10,,,,,3,,,60,100
57024,note_on,,,,,92,0,14,,,,,6,,,45,100
57024,note_on,,,,,0,0,13,,,,,6,,,64,100
57024,note_on,,,,,128,0,8,,,,,1,,,64,100
57024,note_on,,,,,92,0,16,,,,,7,,,45,100
57024,note_on,,,,,92,0,13,,,,,6,,,60,100
57024,note_on,,,,,0,0,15,,,,,7,,,64,100
57024,note_on,,,,,92,0,15,,,,,7,,,60,100
57124,note_off,,,,,100,0,8,,,,,1,,,64,100
57124,note_off,,,,,100,0,16,,,,,7,,,45,100
57124,note_off,,,,,100,0,9,,,,,2,,,64,100
57124,note_off,,,,,100,0,14,,,,,6,,,45,100
57124,note_off,,,,,100,0,12,,,,,5,,,33,100
57124,note_off,,,,,100,0,15,,,,,7,,,60,100
57124,note_off,,,,,100,0,11,,,,,4,,,45,100
57124,note_off,,,,,100,0,10,,,,,3,,,60,100
57124,note_off,,,,,100,0,13,,,,,6,,,60,100
57124,note_off,,,,,0,0,15,,,,,7,,,64,100
57124,note_off,,,,,0,0,13,,,,,6,,,64,100
57216,note_on,,,,,92,0,8,,,,,1,,,65,100
57216,note_on,,,,,92,0,9,,,,,2,,,62,100
57316,note_off,,,,,100,0,9,,,,,2,,,62,100
57316,note_off,,,,,100,0,8,,,,,1,,,65,100
57408,note_on,,,,,92,0,9,,,,,2,,,60,100
57408,note_on,,,,,92,0,8,,,,,1,,,64,100
57508,note_off,,,,,100,0,9,,,,,2,,,60,100
57508,note_off,,,,,100,0,8,,,,,1,,,64,100
57600,note_on,,,,,92,0,9,,,,,2,,,68,100
57600,note_on,,,,,92,0,8,,,,,1,,,71,100
57700,note_off,,,,,100,0,8,,,,,1,,,71,100
57792,note_on,,,,,668,0,10,,,,,3,,,59,100
57792,note_on,,,,,668,0,11,,,,,4,,,52,100
57792,note_on,,,,,0,0,15,,,,,7,,,71,100
57792,note_on,,,,,668,0,14,,,,,6,,,52,100
57792,note_on,,,,,668,0,16,,,,,7,,,52,100
57792,note_on,,,,,668,0,15,,,,,7,,,68,100
57792,note_on,,,,,668,0,12,,,,,5,,,40,100
57792,note_on,,,,,92,0,8,,,,,1,,,64,100
57792,note_on,,,,,668,0,13,,,,,6,,,68,100
57792,note_on,,,,,0,0,13,,,,,6,,,71,100
57856,note_off,,,,,64,0,12,,,,,5,,,40,100
57856,note_off,,,,,64,0,16,,,,,7,,,52,100
57856,note_off,,,,,64,0,11,,,,,4,,,52,100
57856,note_off,,,,,64,0,10,,,,,3,,,59,100
57856,note_off,,,,,256,0,9,,,,,2,,,68,100
57856,note_off,,,,,64,0,14,,,,,6,,,52,100
57884,note_off,,,,,92,0,15,,,,,7,,,68,100
57884,note_off,,,,,92,0,13,,,,,6,,,68,100
57888,note_on,,,,,4,0,15,,,,,7,,,69,100
57888,note_on,,,,,32,0,16,,,,,7,,,54,100
57888,note_on,,,,,32,0,12,,,,,5,,,42,100
57888,note_on,,,,,4,0,13,,,,,6,,,69,100
57888,note_on,,,,,32,0,11,,,,,4,,,54,100
57888,note_on,,,,,32,0,10,,,,,3,,,57,100
57888,note_on,,,,,32,0,14,,,,,6,,,54,100
57892,note_off,,,,,4,0,13,,,,,6,,,71,100
57892,note_off,,,,,4,0,15,,,,,7,,,71,100
57952,note_off,,,,,64,0,11,,,,,4,,,54,100
57952,note_off,,,,,64,0,12,,,,,5,,,42,100
57952,note_off,,,,,64,0,16,,,,,7,,,54,100
57952,note_off,,,,,60,0,13,,,,,6,,,69,100
57952,note_off,,,,,64,0,14,,,,,6,,,54,100
57952,note_off,,,,,60,0,15,,,,,7,,,69,100
57952,note_off,,,,,64,0,10,,,,,3,,,57,100
57984,note_on,,,,,32,0,12,,,,,5,,,44,100
57984,note_on,,,,,32,0,11,,,,,4,,,56,100
57984,note_on,,,,,32,0,14,,,,,6,,,56,100
57984,note_on,,,,,0,0,15,,,,,7,,,71,100
57984,note_on,,,,,32,0,13,,,,,6,,,76,100
57984,note_on,,,,,0,0,13,,,,,6,,,71,100
57984,note_on,,,,,32,0,15,,,,,7,,,76,100
57984,note_on,,,,,32,0,10,,,,,3,,,59,100
57984,note_on,,,,,32,0,16,,,,,7,,,56,100
58048,note_off,,,,,256,0,8,,,,,1,,,64,100
58084,note_off,,,,,100,0,16,,,,,7,,,56,100
58084,note_off,,,,,100,0,15,,,,,7,,,76,100
58084,note_off,,,,,100,0,12,,,,,5,,,44,100
58084,note_off,,,,,100,0,10,,,,,3,,,59,100
58084,note_off,,,,,0,0,13,,,,,6,,,71,100
58084,note_off,,,,,100,0,13,,,,,6,,,76,100
58084,note_off,,,,,100,0,14,,,,,6,,,56,100
58084,note_off,,,,,100,0,11,,,,,4,,,56,100
58084,note_off,,,,,0,0,15,,,,,7,,,71,100
58176,note_on,,,,,128,0,8,,,,,1,,,64,100
58176,note_on,,,,,92,0,10,,,,,3,,,56,100
58176,note_on,,,,,0,0,15,,,,,7,,,71,100
58176,note_on,,,,,92,0,15,,,,,7,,,68,100
58176,note_on,,,,,0,0,13,,,,,6,,,71,100
58176,note_on,,,,,92,0,13,,,,,6,,,68,100
58176,note_on,,,,,92,0,12,,,,,5,,,40,100
58176,note_on,,,,,92,0,16,,,,,7,,,52,100
58176,note_on,,,,,92,0,11,,,,,4,,,52,100
58176,note_on,,,,,320,0,9,,,,,2,,,64,100
58176,note_on,,,,,92,0,14,,,,,6,,,52,100
58276,note_off,,,,,100,0,15,,,,,7,,,68,100
58276,note_off,,,,,100,0,10,,,,,3,,,56,100
58276,note_off,,,,,0,0,13,,,,,6,,,71,100
58276,note_off,,,,,100,0,13,,,,,6,,,68,100
58276,note_off,,,,,100,0,9,,,,,2,,,64,100
58276,note_off,,,,,100,0,11,,,,,4,,,52,100
58276,note_off,,,,,100,0,14,,,,,6,,,52,100
58276,note_off,,,,,100,0,16,,,,,7,,,52,100
58276,note_off,,,,,100,0,12,,,,,5,,,40,100
58276,note_off,,,,,100,0,8,,,,,1,,,64,100
58276,note_off,,,,,0,0,15,,,,,7,,,71,100
58368,note_on,,,,,92,0,8,,,,,1,,,65,100
58368,note_on,,,,,92,0,9,,,,,2,,,62,100
58468,note_off,,,,,100,0,8,,,,,1,,,65,100
58468,note_off,,,,,100,0,9,,,,,2,,,62,100
58560,note_on,,,,,92,0,8,,,,,1,,,64,100
58560,note_on,,,,,92,0,9,,,,,2,,,60,100
58660,note_off,,,,,100,0,8,,,,,1,,,64,100
58660,note_off,,,,,100,0,9,,,,,2,,,60,100
58752,note_on,,,,,92,0,8,,,,,1,,,72,100
58752,note_on,,,,,92,0,9,,,,,2,,,69,100
58852,note_off,,,,,100,0,8,,,,,1,,,72,100
58852,note_off,,,,,100,0,9,,,,,2,,,69,100
58944,note_on,,,,,668,0,16,,,,,7,,,52,100
58944,note_on,,,,,668,0,10,,,,,3,,,59,100
58944,note_on,,,,,668,0,12,,,,,5,,,40,100
58944,note_on,,,,,668,0,14,,,,,6,,,52,100
58944,note_on,,,,,0,0,13,,,,,6,,,71,100
58944,note_on,,,,,92,0,8,,,,,1,,,71,100
58944,note_on,,,,,92,0,9,,,,,2,,,68,100
58944,note_on,,,,,668,0,11,,,,,4,,,52,100
58944,note_on,,,,,668,0,15,,,,,7,,,68,100
58944,note_on,,,,,0,0,15,,,,,7,,,71,100
58944,note_on,,,,,668,0,13,,,,,6,,,68,100
59008,note_off,,,,,64,0,16,,,,,7,,,52,100
59008,note_off,,,,,64,0,14,,,,,6,,,52,100
59008,note_off,,,,,64,0,12,,,,,5,,,40,100
59008,note_off,,,,,64,0,10,,,,,3,,,59,100
59008,note_off,,,,,64,0,11,,,,,4,,,52,100
59036,note_off,,,,,92,0,15,,,,,7,,,68,100
59036,note_off,,,,,92,0,13,,,,,6,,,68,100
59040,note_on,,,,,32,0,16,,,,,7,,,54,100
59040,note_on,,,,,4,0,13,,,,,6,,,69,100
59040,note_on,,,,,32,0,11,,,,,4,,,54,100
59040,note_on,,,,,32,0,12,,,,,5,,,42,100
59040,note_on,,,,,32,0,14,,,,,6,,,54,100
59040,note_on,,,,,4,0,15,,,,,7,,,69,100
59040,note_on,,,,,32,0,10,,,,,3,,,57,100
59044,note_off,,,,,4,0,13,,,,,6,,,71,100
59044,note_off,,,,,4,0,15,,,,,7,,,71,100
59104,note_off,,,,,64,0,12,,,,,5,,,42,100
59104,note_off,,,,,60,0,13,,,,,6,,,69,100
59104,note_off,,,,,60,0,15,,,,,7,,,69,100
59104,note_off,,,,,64,0,16,,,,,7,,,54,100
59104,note_off,,,,,64,0,11,,,,,4,,,54,100
59104,note_off,,,,,64,0,10,,,,,3,,,57,100
59104,note_off,,,,,64,0,14,,,,,6,,,54,100
59136,note_on,,,,,32,0,15,,,,,7,,,76,100
59136,note_on,,,,,32,0,11,,,,,4,,,56,100
59136,note_on,,,,,0,0,13,,,,,6,,,71,100
59136,note_on,,,,,32,0,16,,,,,7,,,56,100
59136,note_on,,,,,32,0,10,,,,,3,,,59,100
59136,note_on,,,,,32,0,13,,,,,6,,,76,100
59136,note_on,,,,,32,0,12,,,,,5,,,44,100
59136,note_on,,,,,0,0,15,,,,,7,,,71,100
59136,note_on,,,,,32,0,14,,,,,6,,,56,100
59200,note_off,,,,,256,0,8,,,,,1,,,71,100
59200,note_off,,,,,256,0,9,,,,,2,,,68,100
59236,note_off,,,,,100,0,16,,,,,7,,,56,100
59236,note_off,,,,,0,0,15,,,,,7,,,71,100
59236,note_off,,,,,100,0,12,,,,,5,,,44,100
59236,note_off,,,,,100,0,13,,,,,6,,,76,100
59236,note_off,,,,,100,0,11,,,,,4,,,56,100
59236,note_off,,,,,100,0,15,,,,,7,,,76,100
59236,note_off,,,,,0,0,13,,,,,6,,,71,100
59236,note_off,,,,,100,0,10,,,,,3,,,59,100
59236,note_off,,,,,100,0,14,,,,,6,,,56,100
59328,note_on,,,,,128,0,8,,,,,1,,,64,100
59328,note_on,,,,,128,0,9,,,,,2,,,64,100
59328,note_on,,,,,92,0,16,,,,,7,,,52,100
59328,note_on,,,,,92,0,13,,,,,6,,,68,100
59328,note_on,,,,,92,0,14,,,,,6,,,52,100
59328,note_on,,,,,0,0,13,,,,,6,,,71,100
59328,note_on,,,,,92,0,11,,,,,4,,,52,100
59328,note_on,,,,,0,0,15,,,,,7,,,71,100
59328,note_on,,,,,92,0,15,,,,,7,,,68,100
59328,note_on,,,,,92,0,12,,,,,5,,,40,100
59328,note_on,,,,,92,0,10,,,,,3,,,56,100
59428,note_off,,,,,0,0,15,,,,,7,,,71,100
59428,note_off,,,,,100,0,9,,,,,2,,,64,100
59428,note_off,,,,,100,0,13,,,,,6,,,68,100
59428,note_off,,,,,100,0,12,,,,,5,,,40,100
59428,note_off,,,,,0,0,13,,,,,6,,,71,100
59428,note_off,,,,,100,0,16,,,,,7,,,52,100
59428,note_off,,,,,100,0,10,,,,,3,,,56,100
59428,note_off,,,,,100,0,15,,,,,7,,,68,100
59428,note_off,,,,,100,0,8,,,,,1,,,64,100
59428,note_off,,,,,100,0,11,,,,,4,,,52,100
59428,note_off,,,,,100,0,14,,,,,6,,,52,100
59520,note_on,,,,,92,0,8,,,,,1,,,65,100
59520,note_on,,,,,92,0,9,,,,,2,,,62,100
59620,note_off,,,,,100,0,9,,,,,2,,,62,100
59620,note_off,,,,,100,0,8,,,,,1,,,65,100
59712,note_on,,,,,92,0,8,,,,,1,,,64,100
59712,note_on,,,,,92,0,9,,,,,2,,,60,100
59812,note_off,,,,,100,0,9,,,,,2,,,60,100
59812,note_off,,,,,100,0,8,,,,,1,,,64,100
59904,note_on,,,,,92,0,9,,,,,2,,,71,100
59904,note_on,,,,,92,0,8,,,,,1,,,74,100
60004,note_off,,,,,100,0,9,,,,,2,,,71,100
60004,note_off,,,,,100,0,8,,,,,1,,,74,100
60096,note_on,,,,,668,0,14,,,,,6,,,45,100
60096,note_on,,,,,92,0,9,,,,,2,,,69,100
60096,note_on,,,,,668,0,11,,,,,4,,,45,100
60096,note_on,,,,,668,0,16,,,,,7,,,45,100
60096,note_on,,,,,668,0,13,,,,,6,,,60,100
60096,note_on,,,,,668,0,10,,,,,3,,,64,100
60096,note_on,,,,,668,0,15,,,,,7,,,60,100
60096,note_on,,,,,0,0,15,,,,,7,,,64,100
60096,note_on,,,,,0,0,13,,,,,6,,,64,100
60096,note_on,,,,,668,0,12,,,,,5,,,33,100
60096,note_on,,,,,92,0,8,,,,,1,,,72,100
60160,note_off,,,,,64,0,16,,,,,7,,,45,100
60160,note_off,,,,,64,0,11,,,,,4,,,45,100
60160,note_off,,,,,64,0,10,,,,,3,,,64,100
60160,note_off,,,,,64,0,14,,,,,6,,,45,100
60160,note_off,,,,,64,0,12,,,,,5,,,33,100
60188,note_off,,,,,92,0,15,,,,,7,,,60,100
60188,note_off,,,,,92,0,13,,,,,6,,,60,100
60192,note_on,,,,,32,0,14,,,,,6,,,47,100
60192,note_on,,,,,32,0,11,,,,,4,,,47,100
60192,note_on,,,,,32,0,12,,,,,5,,,35,100
60192,note_on,,,,,4,0,15,,,,,7,,,62,100
60192,note_on,,,,,32,0,10,,,,,3,,,62,100
60192,note_on,,,,,4,0,13,,,,,6,,,62,100
60192,note_on,,,,,32,0,16,,,,,7,,,47,100
60196,note_off,,,,,4,0,15,,,,,7,,,64,100
60196,note_off,,,,,4,0,13,,,,,6,,,64,100
60256,note_off,,,,,64,0,14,,,,,6,,,47,100
60256,note_off,,,,,60,0,13,,,,,6,,,62,100
60256,note_off,,,,,64,0,11,,,,,4,,,47,100
60256,note_off,,,,,64,0,16,,,,,7,,,47,100
60256,note_off,,,,,60,0,15,,,,,7,,,62,100
60256,note_off,,,,,64,0,10,,,,,3,,,62,100
60256,note_off,,,,,64,0,12,,,,,5,,,35,100
60288,note_on,,,,,0,0,15,,,,,7,,,64,100
60288,note_on,,,,,32,0,15,,,,,7,,,69,100
60288,note_on,,,,,32,0,16,,,,,7,,,48,100
60288,note_on,,,,,32,0,14,,,,,6,,,48,100
60288,note_on,,,,,32,0,10,,,,,3,,,64,100
60288,note_on,,,,,32,0,11,,,,,4,,,48,100
60288,note_on,,,,,32,0,13,,,,,6,,,69,100
60288,note_on,,,,,0,0,13,,,,,6,,,64,100
60288,note_on,,,,,32,0,12,,,,,5,,,36,100
60352,note_off,,,,,256,0,8,,,,,1,,,72,100
60352,note_off,,,,,256,0,9,,,,,2,,,69,100
60388,note_off,,,,,100,0,11,,,,,4,,,48,100
60388,note_off,,,,,100,0,12,,,,,5,,,36,100
60388,note_off,,,,,0,0,13,,,,,6,,,64,100
60388,note_off,,,,,100,0,13,,,,,6,,,69,100
60388,note_off,,,,,100,0,14,,,,,6,,,48,100
60388,note_off,,,,,0,0,15,,,,,7,,,64,100
60388,note_off,,,,,100,0,16,,,,,7,,,48,100
60388,note_off,,,,,100,0,10,,,,,3,,,64,100
60388,note_off,,,,,100,0,15,,,,,7,,,69,100
60480,note_on,,,,,0,0,13,,,,,6,,,64,100
60480,note_on,,,,,92,0,13,,,,,6,,,60,100
60480,note_on,,,,,92,0,16,,,,,7,,,45,100
60480,note_on,,,,,128,0,9,,,,,2,,,64,100
60480,note_on,,,,,128,0,8,,,,,1,,,64,100
60480,note_on,,,,,0,0,15,,,,,7,,,64,100
60480,note_on,,,,,92,0,15,,,,,7,,,60,100
60480,note_on,,,,,92,0,14,,,,,6,,,45,100
60480,note_on,,,,,92,0,12,,,,,5,,,33,100
60480,note_on,,,,,92,0,10,,,,,3,,,60,100
60480,note_on,,,,,92,0,11,,,,,4,,,45,100
60580,note_off,,,,,100,0,8,,,,,1,,,64,100
60580,note_off,,,,,0,0,15,,,,,7,,,64,100
60580,note_off,,,,,100,0,15,,,,,7,,,60,100
60580,note_off,,,,,100,0,10,,,,,3,,,60,100
60580,note_off,,,,,100,0,12,,,,,5,,,33,100
60580,note_off,,,,,0,0,13,,,,,6,,,64,100
60580,note_off,,,,,100,0,9,,,,,2,,,64,100
60580,note_off,,,,,100,0,16,,,,,7,,,45,100
60580,note_off,,,,,100,0,11,,,,,4,,,45,100
60580,note_off,,,,,100,0,14,,,,,6,,,45,100
60580,note_off,,,,,100,0,13,,,,,6,,,60,100
60672,note_on,,,,,92,0,9,,,,,2,,,62,101
60672,note_on,,,,,92,0,8,,,,,1,,,65,101
60772,note_off,,,,,100,0,8,,,,,1,,,65,100
60772,note_off,,,,,100,0,9,,,,,2,,,62,100
60864,note_on,,,,,92,0,9,,,,,2,,,60,103
60864,note_on,,,,,92,0,8,,,,,1,,,64,103
60964,note_off,,,,,100,0,9,,,,,2,,,60,100
60964,note_off,,,,,100,0,8,,,,,1,,,64,100
61056,note_on,,,,,0,0,13,,,,,6,,,64,100
61056,note_on,,,,,92,0,9,,,,,2,,,72,104
61056,note_on,,,,,476,0,14,,,,,6,,,45,100
61056,note_on,,,,,476,0,11,,,,,4,,,45,104
61056,note_on,,,,,476,0,13,,,,,6,,,69,100
61056,note_on,,,,,0,0,13,,,,,6,,,60,100
61056,note_on,,,,,476,0,15,,,,,7,,,69,100
61056,note_on,,,,,476,0,12,,,,,5,,,33,104
61056,note_on,,,,,0,0,15,,,,,7,,,60,100
61056,note_on,,,,,0,0,15,,,,,7,,,64,100
61056,note_on,,,,,92,0,8,,,,,1,,,76,104
61056,note_on,,,,,476,0,16,,,,,7,,,45,100
61056,note_on,,,,,476,0,10,,,,,3,,,60,104
61184,note_off,,,,,128,0,8,,,,,1,,,76,100
61184,note_off,,,,,128,0,9,,,,,2,,,72,100
61248,note_on,,,,,64,0,9,,,,,2,,,71,100
61248,note_on,,,,,64,0,8,,,,,1,,,74,100
61312,note_off,,,,,0,0,15,,,,,7,,,60,100
61312,note_off,,,,,256,0,10,,,,,3,,,60,100
61312,note_off,,,,,64,0,8,,,,,1,,,74,100
61312,note_off,,,,,64,0,9,,,,,2,,,71,100
61312,note_off,,,,,256,0,16,,,,,7,,,45,100
61312,note_off,,,,,256,0,14,,,,,6,,,45,100
61312,note_off,,,,,256,0,15,,,,,7,,,69,100
61312,note_off,,,,,0,0,13,,,,,6,,,64,100
61312,note_off,,,,,0,0,13,,,,,6,,,60,100
61312,note_off,,,,,256,0,13,,,,,6,,,69,100
61312,note_off,,,,,256,0,12,,,,,5,,,33,100
61312,note_off,,,,,0,0,15,,,,,7,,,64,100
61312,note_off,,,,,256,0,11,,,,,4,,,45,100
61344,note_on,,,,,32,0,9,,,,,2,,,72,100
61344,note_on,,,,,32,0,8,,,,,1,,,72,100
61408,note_off,,,,,64,0,9,,,,,2,,,72,100
61408,note_off,,,,,64,0,8,,,,,1,,,72,100
61440,note_on,,,,,32,0,9,,,,,2,,,74,100
61440,note_on,,,,,32,0,8,,,,,1,,,71,100
61540,note_off,,,,,100,0,9,,,,,2,,,74,100
61540,note_off,,,,,100,0,8,,,,,1,,,71,100
61632,note_on,,,,,92,0,8,,,,,1,,,69,100
61632,note_on,,,,,92,0,9,,,,,2,,,72,100
61732,note_off,,,,,100,0,8,,,,,1,,,69,100
61732,note_off,,,,,100,0,9,,,,,2,,,72,100
61824,note_on,,,,,92,0,9,,,,,2,,,71,100
61824,note_on,,,,,92,0,8,,,,,1,,,68,100
61924,note_off,,,,,100,0,8,,,,,1,,,68,100
61924,note_off,,,,,100,0,9,,,,,2,,,71,100
62016,note_on,,,,,92,0,8,,,,,1,,,69,100
62016,note_on,,,,,92,0,9,,,,,2,,,69,100
62116,note_off,,,,,100,0,9,,,,,2,,,69,100
62116,note_off,,,,,100,0,8,,,,,1,,,69,100
62208,note_on,,,,,896,0,10,,,,,3,,,59,100
62208,note_on,,,,,896,0,14,,,,,6,,,52,100
62208,note_on,,,,,896,0,15,,,,,7,,,64,100
62208,note_on,,,,,896,0,12,,,,,5,,,40,100
62208,note_on,,,,,0,0,15,,,,,7,,,68,100
62208,note_on,,,,,92,0,8,,,,,1,,,71,100
62208,note_on,,,,,896,0,13,,,,,6,,,59,100
62208,note_on,,,,,0,0,15,,,,,7,,,71,100
62208,note_on,,,,,896,0,11,,,,,4,,,52,100
62208,note_on,,,,,92,0,9,,,,,2,,,68,100
62208,note_on,,,,,0,0,13,,,,,6,,,68,100
62208,note_on,,,,,896,0,16,,,,,7,,,52,100
62336,note_off,,,,,128,0,10,,,,,3,,,59,100
62336,note_off,,,,,128,0,14,,,,,6,,,52,100
62336,note_off,,,,,128,0,16,,,,,7,,,52,100
62336,note_off,,,,,128,0,12,,,,,5,,,40,100
62336,note_off,,,,,0,0,13,,,,,6,,,68,100
62336,note_off,,,,,128,0,13,,,,,6,,,59,100
62336,note_off,,,,,128,0,11,,,,,4,,,52,100
62400,note_on,,,,,64,0,11,,,,,4,,,50,100
62400,note_on,,,,,64,0,12,,,,,5,,,38,100
62400,note_on,,,,,0,0,13,,,,,6,,,62,100
62400,note_on,,,,,64,0,14,,,,,6,,,50,100
62400,note_on,,,,,64,0,10,,,,,3,,,59,100
62400,note_on,,,,,64,0,13,,,,,6,,,59,100
62400,note_on,,,,,64,0,16,,,,,7,,,50,100
62464,note_off,,,,,256,0,8,,,,,1,,,71,100
62464,note_off,,,,,64,0,11,,,,,4,,,50,100
62464,note_off,,,,,64,0,12,,,,,5,,,38,100
62464,note_off,,,,,64,0,10,,,,,3,,,59,100
62464,note_off,,,,,0,0,13,,,,,6,,,62,100
62464,note_off,,,,,64,0,13,,,,,6,,,59,100
62464,note_off,,,,,64,0,16,,,,,7,,,50,100
62464,note_off,,,,,64,0,14,,,,,6,,,50,100
62496,note_on,,,,,32,0,16,,,,,7,,,48,100
62496,note_on,,,,,32,0,11,,,,,4,,,48,100
62496,note_on,,,,,32,0,10,,,,,3,,,60,100
62496,note_on,,,,,0,0,13,,,,,6,,,60,100
62496,note_on,,,,,32,0,12,,,,,5,,,36,100
62496,note_on,,,,,32,0,13,,,,,6,,,57,100
62496,note_on,,,,,32,0,14,,,,,6,,,48,100
62560,note_off,,,,,0,0,13,,,,,6,,,60,100
62560,note_off,,,,,64,0,13,,,,,6,,,57,100
62560,note_off,,,,,64,0,12,,,,,5,,,36,100
62560,note_off,,,,,64,0,16,,,,,7,,,48,100
62560,note_off,,,,,64,0,10,,,,,3,,,60,100
62560,note_off,,,,,64,0,11,,,,,4,,,48,100
62560,note_off,,,,,64,0,14,,,,,6,,,48,100
62592,note_on,,,,,32,0,11,,,,,4,,,47,101
62592,note_on,,,,,0,0,13,,,,,6,,,62,100
62592,note_on,,,,,32,0,10,,,,,3,,,62,101
62592,note_on,,,,,128,0,8,,,,,1,,,64,101
62592,note_on,,,,,32,0,14,,,,,6,,,47,100
62592,note_on,,,,,32,0,12,,,,,5,,,35,101
62592,note_on,,,,,32,0,16,,,,,7,,,47,100
62592,note_on,,,,,32,0,13,,,,,6,,,59,100
62692,note_off,,,,,0,0,13,,,,,6,,,62,100
62692,note_off,,,,,100,0,11,,,,,4,,,47,100
62692,note_off,,,,,100,0,16,,,,,7,,,47,100
62692,note_off,,,,,100,0,13,,,,,6,,,59,100
62692,note_off,,,,,100,0,10,,,,,3,,,62,100
62692,note_off,,,,,100,0,14,,,,,6,,,47,100
62692,note_off,,,,,100,0,12,,,,,5,,,35,100
62720,note_off,,,,,512,0,15,,,,,7,,,64,100
62720,note_off,,,,,0,0,15,,,,,7,,,68,100
62720,note_off,,,,,0,0,15,,,,,7,,,71,100
62784,note_on,,,,,92,0,12,,,,,5,,,33,103
62784,note_on,,,,,92,0,13,,,,,6,,,57,100
62784,note_on,,,,,0,0,13,,,,,6,,,60,100
62784,note_on,,,,,92,0,16,,,,,7,,,45,100
62784,note_on,,,,,92,0,10,,,,,3,,,60,103
62784,note_on,,,,,92,0,14,,,,,6,,,45,100
62784,note_on,,,,,92,0,11,,,,,4,,,45,103
62820,note_off,,,,,612,0,9,,,,,2,,,68,100
62848,note_off,,,,,256,0,8,,,,,1,,,64,100
62884,note_off,,,,,100,0,16,,,,,7,,,45,100
62884,note_off,,,,,100,0,12,,,,,5,,,33,100
62884,note_off,,,,,100,0,14,,,,,6,,,45,100
62884,note_off,,,,,100,0,13,,,,,6,,,57,100
62884,note_off,,,,,0,0,13,,,,,6,,,60,100
62884,note_off,,,,,100,0,10,,,,,3,,,60,100
62884,note_off,,,,,100,0,11,,,,,4,,,45,100
62976,note_on,,,,,92,0,14,,,,,6,,,44,100
62976,note_on,,,,,92,0,10,,,,,3,,,59,104
62976,note_on,,,,,0,0,13,,,,,6,,,59,100
62976,note_on,,,,,92,0,13,,,,,6,,,56,100
62976,note_on,,,,,92,0,12,,,,,5,,,32,104
62976,note_on,,,,,92,0,16,,,,,7,,,44,100
62976,note_on,,,,,92,0,11,,,,,4,,,44,104
63076,note_off,,,,,100,0,12,,,,,5,,,32,100
63076,note_off,,,,,0,0,13,,,,,6,,,59,100
63076,note_off,,,,,100,0,16,,,,,7,,,44,100
63076,note_off,,,,,100,0,11,,,,,4,,,44,100
63076,note_off,,,,,100,0,14,,,,,6,,,44,100
63076,note_off,,,,,100,0,10,,,,,3,,,59,100
63076,note_off,,,,,100,0,13,,,,,6,,,56,100
63168,note_on,,,,,92,0,16,,,,,7,,,42,100
63168,note_on,,,,,92,0,11,,,,,4,,,42,106
63168,note_on,,,,,92,0,12,,,,,5,,,42,106
63168,note_on,,,,,0,0,13,,,,,6,,,57,100
63168,note_on,,,,,92,0,13,,,,,6,,,54,100
63168,note_on,,,,,92,0,10,,,,,3,,,57,106
63168,note_on,,,,,92,0,14,,,,,6,,,42,100
63268,note_off,,,,,100,0,12,,,,,5,,,42,100
63268,note_off,,,,,100,0,16,,,,,7,,,42,100
63268,note_off,,,,,100,0,14,,,,,6,,,42,100
63268,note_off,,,,,100,0,13,,,,,6,,,54,100
63268,note_off,,,,,100,0,11,,,,,4,,,42,100
63268,note_off,,,,,0,0,13,,,,,6,,,57,100
63268,note_off,,,,,100,0,10,,,,,3,,,57,100
63360,note_on,,,,,92,0,16,,,,,7,,,40,100
63360,note_on,,,,,92,0,11,,,,,4,,,40,108
63360,note_on,,,,,0,0,15,,,,,7,,,68,100
63360,note_on,,,,,92,0,10,,,,,3,,,59,108
63360,note_on,,,,,640,0,15,,,,,7,,,59,100
63360,note_on,,,,,512,0,8,,,,,1,,,80,108
63360,note_on,,,,,540,0,9,,,,,2,,,64,108
63360,note_on,,,,,92,0,13,,,,,6,,,59,100
63360,note_on,,,,,0,0,13,,,,,6,,,52,100
63360,note_on,,,,,0,0,13,,,,,6,,,56,100
63360,note_on,,,,,92,0,14,,,,,6,,,40,100
63360,note_on,,,,,0,0,15,,,,,7,,,64,100
63360,note_on,,,,,92,0,12,,,,,5,,,40,108
63424,note_off,,,,,64,0,9,,,,,2,,,64,100
63456,note_on,,,,,32,0,9,,,,,2,,,66,108
63520,note_off,,,,,64,0,9,,,,,2,,,66,100
63552,note_on,,,,,32,0,9,,,,,2,,,68,108
63616,note_off,,,,,0,0,15,,,,,7,,,68,100
63616,note_off,,,,,0,0,15,,,,,7,,,64,100
63616,note_off,,,,,256,0,15,,,,,7,,,59,100
63616,note_off,,,,,256,0,8,,,,,1,,,80,100
63616,note_off,,,,,0,0,13,,,,,6,,,56,100
63616,note_off,,,,,64,0,9,,,,,2,,,68,100
63616,note_off,,,,,256,0,13,,,,,6,,,59,100
63616,note_off,,,,,256,0,14,,,,,6,,,40,100
63616,note_off,,,,,256,0,12,,,,,5,,,40,100
63616,note_off,,,,,256,0,11,,,,,4,,,40,100
63616,note_off,,,,,256,0,16,,,,,7,,,40,100
63616,note_off,,,,,256,0,10,,,,,3,,,59,100
63616,note_off,,,,,0,0,13,,,,,6,,,52,100
63648,note_on,,,,,32,0,9,,,,,2,,,69,108
63712,note_off,,,,,64,0,9,,,,,2,,,69,100
63744,note_on,,,,,32,0,9,,,,,2,,,71,108
63808,note_off,,,,,64,0,9,,,,,2,,,71,100
63840,note_on,,,,,32,0,9,,,,,2,,,72,108
63904,note_off,,,,,64,0,9,,,,,2,,,72,100
63936,note_on,,,,,0,0,13,,,,,6,,,68,100
63936,note_on,,,,,320,0,11,,,,,4,,,52,108
63936,note_on,,,,,320,0,14,,,,,6,,,52,100
63936,note_on,,,,,0,0,15,,,,,7,,,68,100
63936,note_on,,,,,320,0,15,,,,,7,,,71,100
63936,note_on,,,,,320,0,13,,,,,6,,,71,100
63936,note_on,,,,,320,0,12,,,,,5,,,40,108
63936,note_on,,,,,32,0,9,,,,,2,,,74,108
63936,note_on,,,,,320,0,8,,,,,1,,,80,108
63936,note_on,,,,,320,0,10,,,,,3,,,59,108
63936,note_on,,,,,320,0,16,,,,,7,,,52,100
64000,note_off,,,,,64,0,9,,,,,2,,,74,100
64032,note_on,,,,,32,0,9,,,,,2,,,76,107
64036,note_off,,,,,100,0,11,,,,,4,,,52,100
64036,note_off,,,,,100,0,10,,,,,3,,,59,100
64036,note_off,,,,,100,0,8,,,,,1,,,80,100
64036,note_off,,,,,100,0,13,,,,,6,,,71,100
64036,note_off,,,,,100,0,12,,,,,5,,,40,100
64036,note_off,,,,,100,0,14,,,,,6,,,52,100
64036,note_off,,,,,100,0,15,,,,,7,,,71,100
64036,note_off,,,,,0,0,15,,,,,7,,,68,100
64036,note_off,,,,,0,0,13,,,,,6,,,68,100
64036,note_off,,,,,100,0,16,,,,,7,,,52,100
64096,note_off,,,,,64,0,9,,,,,2,,,76,100
64128,note_on,,,,,0,0,13,,,,,6,,,74,100
64128,note_on,,,,,92,0,16,,,,,7,,,56,100
64128,note_on,,,,,92,0,10,,,,,3,,,64,107
64128,note_on,,,,,92,0,13,,,,,6,,,71,100
64128,note_on,,,,,92,0,14,,,,,6,,,56,100
64128,note_on,,,,,92,0,15,,,,,7,,,71,100
64128,note_on,,,,,0,0,15,,,,,7,,,74,100
64128,note_on,,,,,92,0,12,,,,,5,,,44,107
64128,note_on,,,,,92,0,11,,,,,4,,,56,107
64128,note_on,,,,,92,0,8,,,,,1,,,83,107
64128,note_on,,,,,32,0,9,,,,,2,,,64,107
64228,note_off,,,,,100,0,16,,,,,7,,,56,100
64228,note_off,,,,,100,0,12,,,,,5,,,44,100
64228,note_off,,,,,100,0,8,,,,,1,,,83,100
64228,note_off,,,,,0,0,13,,,,,6,,,74,100
64228,note_off,,,,,100,0,13,,,,,6,,,71,100
64228,note_off,,,,,100,0,10,,,,,3,,,64,100
64228,note_off,,,,,100,0,11,,,,,4,,,56,100
64228,note_off,,,,,100,0,14,,,,,6,,,56,100
64228,note_off,,,,,100,0,9,,,,,2,,,64,100
64228,note_off,,,,,0,0,15,,,,,7,,,74,100
64228,note_off,,,,,100,0,15,,,,,7,,,71,100
64320,note_on,,,,,92,0,9,,,,,2,,,76,107
64320,note_on,,,,,92,0,12,,,,,5,,,40,107
64320,note_on,,,,,92,0,11,,,,,4,,,52,107
64320,note_on,,,,,92,0,10,,,,,3,,,64,107
64320,note_on,,,,,0,0,15,,,,,7,,,68,100
64320,note_on,,,,,92,0,13,,,,,6,,,71,100
64320,note_on,,,,,0,0,13,,,,,6,,,68,100
64320,note_on,,,,,92,0,16,,,,,7,,,52,100
64320,note_on,,,,,92,0,14,,,,,6,,,52,100
64320,note_on,,,,,92,0,8,,,,,1,,,80,107
64320,note_on,,,,,92,0,15,,,,,7,,,71,100
64420,note_off,,,,,100,0,13,,,,,6,,,71,100
64420,note_off,,,,,0,0,13,,,,,6,,,68,100
64420,note_off,,,,,100,0,16,,,,,7,,,52,100
64420,note_off,,,,,100,0,12,,,,,5,,,40,100
64420,note_off,,,,,0,0,15,,,,,7,,,68,100
64420,note_off,,,,,100,0,11,,,,,4,,,52,100
64420,note_off,,,,,100,0,10,,,,,3,,,64,100
64420,note_off,,,,,100,0,15,,,,,7,,,71,100
64420,note_off,,,,,100,0,9,,,,,2,,,76,100
64420,note_off,,,,,100,0,8,,,,,1,,,80,100
64420,note_off,,,,,100,0,14,,,,,6,,,52,100
64512,note_on,,,,,92,0,11,,,,,4,,,45,107
64512,note_on,,,,,92,0,10,,,,,3,,,64,107
64512,note_on,,,,,92,0,13,,,,,6,,,69,100
64512,note_on,,,,,92,0,12,,,,,5,,,33,107
64512,note_on,,,,,92,0,8,,,,,1,,,69,107
64512,note_on,,,,,92,0,9,,,,,2,,,73,107
64512,note_on,,,,,0,0,13,,,,,6,,,61,100
64512,note_on,,,,,0,0,13,,,,,6,,,64,100
64512,note_on,,,,,0,0,15,,,,,7,,,64,100
64512,note_on,,,,,0,0,15,,,,,7,,,73,100
64512,note_on,,,,,92,0,15,,,,,7,,,69,100
64512,note_on,,,,,92,0,16,,,,,7,,,45,100
64512,note_on,,,,,92,0,14,,,,,6,,,45,100
64576,note_off,,,,,64,0,8,,,,,1,,,69,100
64608,note_on,,,,,32,0,8,,,,,1,,,71,106
64672,note_off,,,,,64,0,8,,,,,1,,,71,100
64704,note_on,,,,,32,0,8,,,,,1,,,73,106
64768,note_off,,,,,256,0,16,,,,,7,,,45,100
64768,note_off,,,,,64,0,8,,,,,1,,,73,100
64768,note_off,,,,,256,0,14,,,,,6,,,45,100
64768,note_off,,,,,0,0,13,,,,,6,,,64,100
64768,note_off,,,,,0,0,13,,,,,6,,,61,100
64768,note_off,,,,,256,0,13,,,,,6,,,69,100
64768,note_off,,,,,256,0,11,,,,,4,,,45,100
64768,note_off,,,,,256,0,9,,,,,2,,,73,100
64768,note_off,,,,,256,0,12,,,,,5,,,33,100
64768,note_off,,,,,256,0,10,,,,,3,,,64,100
64800,note_on,,,,,32,0,8,,,,,1,,,74,106
64864,note_off,,,,,64,0,8,,,,,1,,,74,100
64896,note_on,,,,,32,0,8,,,,,1,,,76,106
64960,note_off,,,,,64,0,8,,,,,1,,,76,100
64992,note_on,,,,,32,0,8,,,,,1,,,78,106
65056,note_off,,,,,64,0,8,,,,,1,,,78,100
65088,note_on,,,,,320,0,12,,,,,5,,,33,106
65088,note_on,,,,,0,0,13,,,,,6,,,64,100
65088,note_on,,,,,320,0,13,,,,,6,,,69,100
65088,note_on,,,,,320,0,9,,,,,2,,,73,106
65088,note_on,,,,,32,0,8,,,,,1,,,79,106
65088,note_on,,,,,320,0,11,,,,,4,,,45,106
65088,note_on,,,,,320,0,16,,,,,7,,,45,100
65088,note_on,,,,,320,0,10,,,,,3,,,64,106
65088,note_on,,,,,320,0,14,,,,,6,,,45,100
65152,note_off,,,,,64,0,8,,,,,1,,,79,100
65184,note_on,,,,,32,0,8,,,,,1,,,81,105
65188,note_off,,,,,100,0,10,,,,,3,,,64,100
65188,note_off,,,,,100,0,9,,,,,2,,,73,100
65188,note_off,,,,,100,0,12,,,,,5,,,33,100
65188,note_off,,,,,100,0,11,,,,,4,,,45,100
65188,note_off,,,,,100,0,14,,,,,6,,,45,100
65188,note_off,,,,,100,0,16,,,,,7,,,45,100
65188,note_off,,,,,100,0,13,,,,,6,,,69,100
65188,note_off,,,,,0,0,13,,,,,6,,,64,100
65248,note_off,,,,,64,0,8,,,,,1,,,81,100
65280,note_on,,,,,92,0,10,,,,,3,,,69,105
65280,note_on,,,,,92,0,9,,,,,2,,,76,105
65280,note_on,,,,,32,0,8,,,,,1,,,69,105
65280,note_on,,,,,92,0,16,,,,,7,,,49,100
65280,note_on,,,,,92,0,13,,,,,6,,,69,100
65280,note_on,,,,,0,0,13,,,,,6,,,73,100
65280,note_on,,,,,92,0,14,,,,,6,,,49,100
65280,note_on,,,,,92,0,11,,,,,4,,,49,105
65280,note_on,,,,,92,0,12,,,,,5,,,37,105
65380,note_off,,,,,100,0,16,,,,,7,,,49,100
65380,note_off,,,,,100,0,8,,,,,1,,,69,100
65380,note_off,,,,,100,0,14,,,,,6,,,49,100
65380,note_off,,,,,100,0,11,,,,,4,,,49,100
65380,note_off,,,,,100,0,10,,,,,3,,,69,100
65380,note_off,,,,,100,0,9,,,,,2,,,76,100
65380,note_off,,,,,100,0,13,,,,,6,,,69,100
65380,note_off,,,,,0,0,13,,,,,6,,,73,100
65380,note_off,,,,,100,0,12,,,,,5,,,37,100
65432,note_off,,,,,920,0,15,,,,,7,,,69,100
65432,note_off,,,,,0,0,15,,,,,7,,,64,100
65432,note_off,,,,,0,0,15,,,,,7,,,73,100
65472,note_on,,,,,92,0,16,,,,,7,,,45,100
65472,note_on,,,,,92,0,13,,,,,6,,,69,100
65472,note_on,,,,,92,0,8,,,,,1,,,81,105
65472,note_on,,,,,0,0,13,,,,,6,,,64,100
65472,note_on,,,,,92,0,12,,,,,5,,,33,105
65472,note_on,,,,,92,0,10,,,,,3,,,57,105
65472,note_on,,,,,92,0,11,,,,,4,,,45,105
65472,note_on,,,,,92,0,9,,,,,2,,,73,105
65472,note_on,,,,,92,0,14,,,,,6,,,45,100
65572,note_off,,,,,100,0,9,,,,,2,,,73,100
65572,note_off,,,,,100,0,13,,,,,6,,,69,100
65572,note_off,,,,,0,0,13,,,,,6,,,64,100
65572,note_off,,,,,100,0,11,,,,,4,,,45,100
65572,note_off,,,,,100,0,14,,,,,6,,,45,100
65572,note_off,,,,,100,0,12,,,,,5,,,33,100
65572,note_off,,,,,100,0,8,,,,,1,,,81,100
65572,note_off,,,,,100,0,10,,,,,3,,,57,100
65572,note_off,,,,,100,0,16,,,,,7,,,45,100
65664,note_on,,,,,0,0,13,,,,,6,,,66,100
65664,note_on,,,,,92,0,12,,,,,5,,,38,105
65664,note_on,,,,,92,0,11,,,,,4,,,50,105
65664,note_on,,,,,92,0,13,,,,,6,,,62,100
65664,note_on,,,,,92,0,10,,,,,3,,,57,105
65664,note_on,,,,,92,0,16,,,,,7,,,50,100
65664,note_on,,,,,0,0,15,,,,,7,,,69,100
65664,note_on,,,,,232,0,15,,,,,7,,,74,100
65664,note_on,,,,,92,0,8,,,,,1,,,78,105
65664,note_on,,,,,92,0,9,,,,,2,,,62,105
65664,note_on,,,,,92,0,14,,,,,6,,,50,100
65664,note_on,,,,,0,0,15,,,,,7,,,66,100
65728,note_off,,,,,64,0,9,,,,,2,,,62,100
65760,note_on,,,,,32,0,9,,,,,2,,,64,104
65824,note_off,,,,,64,0,9,,,,,2,,,64,100
65856,note_on,,,,,32,0,9,,,,,2,,,66,104
65920,note_off,,,,,64,0,9,,,,,2,,,66,100
65920,note_off,,,,,256,0,13,,,,,6,,,62,100
65920,note_off,,,,,256,0,14,,,,,6,,,50,100
65920,note_off,,,,,256,0,16,,,,,7,,,50,100
65920,note_off,,,,,256,0,8,,,,,1,,,78,100
65920,note_off,,,,,0,0,13,,,,,6,,,66,100
65920,note_off,,,,,256,0,10,,,,,3,,,57,100
65920,note_off,,,,,256,0,12,,,,,5,,,38,100
65920,note_off,,,,,256,0,11,,,,,4,,,50,100
65952,note_on,,,,,32,0,9,,,,,2,,,67,104
66016,note_off,,,,,64,0,9,,,,,2,,,67,100
66048,note_on,,,,,32,0,9,,,,,2,,,69,104
66112,note_off,,,,,64,0,9,,,,,2,,,69,100
66144,note_on,,,,,32,0,9,,,,,2,,,71,104
66208,note_off,,,,,64,0,9,,,,,2,,,71,100
66240,note_on,,,,,320,0,16,,,,,7,,,50,100
66240,note_on,,,,,320,0,11,,,,,4,,,50,104
66240,note_on,,,,,320,0,13,,,,,6,,,69,100
66240,note_on,,,,,320,0,12,,,,,5,,,38,104
66240,note_on,,,,,0,0,13,,,,,6,,,66,100
66240,note_on,,,,,320,0,14,,,,,6,,,50,100
66240,note_on,,,,,320,0,8,,,,,1,,,78,104
66240,note_on,,,,,32,0,9,,,,,2,,,72,104
66240,note_on,,,,,320,0,10,,,,,3,,,57,104
66304,note_off,,,,,64,0,9,,,,,2,,,72,100
66336,note_on,,,,,32,0,9,,,,,2,,,74,103
66340,note_off,,,,,100,0,10,,,,,3,,,57,100
66340,note_off,,,,,100,0,8,,,,,1,,,78,100
66340,note_off,,,,,0,0,13,,,,,6,,,66,100
66340,note_off,,,,,100,0,12,,,,,5,,,38,100
66340,note_off,,,,,100,0,16,,,,,7,,,50,100
66340,note_off,,,,,100,0,14,,,,,6,,,50,100
66340,note_off,,,,,100,0,11,,,,,4,,,50,100
66340,note_off,,,,,100,0,13,,,,,6,,,69,100
66400,note_off,,,,,64,0,9,,,,,2,,,74,100
66432,note_on,,,,,92,0,8,,,,,1,,,81,103
66432,note_on,,,,,92,0,16,,,,,7,,,54,100
66432,note_on,,,,,32,0,9,,,,,2,,,62,103
66432,note_on,,,,,92,0,14,,,,,6,,,54,100
66432,note_on,,,,,92,0,12,,,,,5,,,42,103
66432,note_on,,,,,92,0,10,,,,,3,,,62,103
66432,note_on,,,,,92,0,13,,,,,6,,,69,100
66432,note_on,,,,,0,0,13,,,,,6,,,74,100
66432,note_on,,,,,92,0,11,,,,,4,,,54,103
66532,note_off,,,,,100,0,16,,,,,7,,,54,100
66532,note_off,,,,,100,0,10,,,,,3,,,62,100
66532,note_off,,,,,100,0,9,,,,,2,,,62,100
66532,note_off,,,,,100,0,11,,,,,4,,,54,100
66532,note_off,,,,,0,0,13,,,,,6,,,74,100
66532,note_off,,,,,100,0,13,,,,,6,,,69,100
66532,note_off,,,,,100,0,12,,,,,5,,,42,100
66532,note_off,,,,,100,0,14,,,,,6,,,54,100
66532,note_off,,,,,100,0,8,,,,,1,,,81,100
66584,note_off,,,,,0,0,15,,,,,7,,,66,100
66584,note_off,,,,,0,0,15,,,,,7,,,69,100
66584,note_off,,,,,920,0,15,,,,,7,,,74,100
66624,note_on,,,,,92,0,11,,,,,4,,,50,103
66624,note_on,,,,,92,0,9,,,,,2,,,74,103
66624,note_on,,,,,92,0,10,,,,,3,,,62,103
66624,note_on,,,,,92,0,14,,,,,6,,,50,100
66624,note_on,,,,,0,0,13,,,,,6,,,69,100
66624,note_on,,,,,92,0,16,,,,,7,,,50,100
66624,note_on,,,,,92,0,13,,,,,6,,,66,100
66624,note_on,,,,,92,0,8,,,,,1,,,78,103
66624,note_on,,,,,92,0,12,,,,,5,,,38,103
66724,note_off,,,,,100,0,14,,,,,6,,,50,100
66724,note_off,,,,,0,0,13,,,,,6,,,69,100
66724,note_off,,,,,100,0,9,,,,,2,,,74,100
66724,note_off,,,,,100,0,16,,,,,7,,,50,100
66724,note_off,,,,,100,0,11,,,,,4,,,50,100
66724,note_off,,,,,100,0,13,,,,,6,,,66,100
66724,note_off,,,,,100,0,10,,,,,3,,,62,100
66724,note_off,,,,,100,0,8,,,,,1,,,78,100
66724,note_off,,,,,100,0,12,,,,,5,,,38,100
66816,note_on,,,,,92,0,16,,,,,7,,,43,100
66816,note_on,,,,,92,0,12,,,,,5,,,31,103
66816,note_on,,,,,0,0,15,,,,,7,,,62,100
66816,note_on,,,,,92,0,13,,,,,6,,,67,100
66816,note_on,,,,,232,0,15,,,,,7,,,67,100
66816,note_on,,,,,0,0,13,,,,,6,,,71,100
66816,note_on,,,,,92,0,14,,,,,6,,,43,100
66816,note_on,,,,,92,0,8,,,,,1,,,67,103
66816,note_on,,,,,92,0,11,,,,,4,,,43,103
66816,note_on,,,,,92,0,9,,,,,2,,,71,103
66816,note_on,,,,,0,0,15,,,,,7,,,71,100
66816,note_on,,,,,92,0,10,,,,,3,,,62,103
66816,note_on,,,,,0,0,13,,,,,6,,,62,100
66880,note_off,,,,,64,0,8,,,,,1,,,67,100
66912,note_on,,,,,32,0,8,,,,,1,,,69,102
66976,note_off,,,,,64,0,8,,,,,1,,,69,100
67008,note_on,,,,,32,0,8,,,,,1,,,71,102
67072,note_off,,,,,256,0,11,,,,,4,,,43,100
67072,note_off,,,,,0,0,13,,,,,6,,,62,100
67072,note_off,,,,,256,0,13,,,,,6,,,67,100
67072,note_off,,,,,256,0,10,,,,,3,,,62,100
67072,note_off,,,,,256,0,16,,,,,7,,,43,100
67072,note_off,,,,,256,0,14,,,,,6,,,43,100
67072,note_off,,,,,0,0,13,,,,,6,,,71,100
67072,note_off,,,,,256,0,9,,,,,2,,,71,100
67072,note_off,,,,,64,0,8,,,,,1,,,71,100
67072,note_off,,,,,256,0,12,,,,,5,,,31,100
67104,note_on,,,,,32,0,8,,,,,1,,,72,102
67168,note_off,,,,,64,0,8,,,,,1,,,72,100
67200,note_on,,,,,32,0,8,,,,,1,,,74,102
67264,note_off,,,,,64,0,8,,,,,1,,,74,100
67296,note_on,,,,,32,0,8,,,,,1,,,76,102
67360,note_off,,,,,64,0,8,,,,,1,,,76,100
67392,note_on,,,,,320,0,16,,,,,7,,,43,100
67392,note_on,,,,,320,0,12,,,,,5,,,31,102
67392,note_on,,,,,320,0,9,,,,,2,,,71,102
67392,note_on,,,,,320,0,10,,,,,3,,,62,102
67392,note_on,,,,,320,0,13,,,,,6,,,67,100
67392,note_on,,,,,320,0,11,,,,,4,,,43,102
67392,note_on,,,,,32,0,8,,,,,1,,,77,102
67392,note_on,,,,,320,0,14,,,,,6,,,43,100
67392,note_on,,,,,0,0,13,,,,,6,,,62,100
67456,note_off,,,,,64,0,8,,,,,1,,,77,100
67488,note_on,,,,,32,0,8,,,,,1,,,79,101
67492,note_off,,,,,100,0,13,,,,,6,,,67,100
67492,note_off,,,,,0,0,13,,,,,6,,,62,100
67492,note_off,,,,,100,0,9,,,,,2,,,71,100
67492,note_off,,,,,100,0,16,,,,,7,,,43,100
67492,note_off,,,,,100,0,11,,,,,4,,,43,100
67492,note_off,,,,,100,0,12,,,,,5,,,31,100
67492,note_off,,,,,100,0,10,,,,,3,,,62,100
67492,note_off,,,,,100,0,14,,,,,6,,,43,100
67552,note_off,,,,,64,0,8,,,,,1,,,79,100
67584,note_on,,,,,92,0,12,,,,,5,,,35,101
67584,note_on,,,,,0,0,13,,,,,6,,,71,100
67584,note_on,,,,,92,0,9,,,,,2,,,74,101
67584,note_on,,,,,92,0,13,,,,,6,,,67,100
67584,note_on,,,,,92,0,10,,,,,3,,,67,101
67584,note_on,,,,,92,0,16,,,,,7,,,47,100
67584,note_on,,,,,92,0,14,,,,,6,,,47,100
67584,note_on,,,,,92,0,11,,,,,4,,,47,101
67584,note_on,,,,,32,0,8,,,,,1,,,67,101
67684,note_off,,,,,100,0,9,,,,,2,,,74,100
67684,note_off,,,,,100,0,13,,,,,6,,,67,100
67684,note_off,,,,,100,0,8,,,,,1,,,67,100
67684,note_off,,,,,0,0,13,,,,,6,,,71,100
67684,note_off,,,,,100,0,14,,,,,6,,,47,100
67684,note_off,,,,,100,0,16,,,,,7,,,47,100
67684,note_off,,,,,100,0,10,,,,,3,,,67,100
67684,note_off,,,,,100,0,12,,,,,5,,,35,100
67684,note_off,,,,,100,0,11,,,,,4,,,47,100
67736,note_off,,,,,0,0,15,,,,,7,,,62,100
67736,note_off,,,,,0,0,15,,,,,7,,,71,100
67736,note_off,,,,,920,0,15,,,,,7,,,67,100
67776,note_on,,,,,0,0,13,,,,,6,,,62,100
67776,note_on,,,,,92,0,13,,,,,6,,,67,100
67776,note_on,,,,,92,0,10,,,,,3,,,55,101
67776,note_on,,,,,92,0,8,,,,,1,,,79,101
67776,note_on,,,,,92,0,14,,,,,6,,,43,100
67776,note_on,,,,,92,0,16,,,,,7,,,43,100
67776,note_on,,,,,92,0,12,,,,,5,,,31,101
67776,note_on,,,,,92,0,9,,,,,2,,,71,101
67776,note_on,,,,,92,0,11,,,,,4,,,43,101
67876,note_off,,,,,100,0,8,,,,,1,,,79,100
67876,note_off,,,,,100,0,14,,,,,6,,,43,100
67876,note_off,,,,,100,0,13,,,,,6,,,67,100
67876,note_off,,,,,100,0,11,,,,,4,,,43,100
67876,note_off,,,,,0,0,13,,,,,6,,,62,100
67876,note_off,,,,,100,0,16,,,,,7,,,43,100
67876,note_off,,,,,100,0,12,,,,,5,,,31,100
67876,note_off,,,,,100,0,9,,,,,2,,,71,100
67876,note_off,,,,,100,0,10,,,,,3,,,55,100
67968,note_on,,,,,92,0,8,,,,,1,,,76,101
67968,note_on,,,,,92,0,10,,,,,3,,,55,101
67968,note_on,,,,,92,0,13,,,,,6,,,60,100
67968,note_on,,,,,0,0,13,,,,,6,,,64,100
67968,note_on,,,,,92,0,16,,,,,7,,,48,100
67968,note_on,,,,,12416,0,7,,,,,0,,,76,101
67968,note_on,,,,,92,0,11,,,,,4,,,48,101
67968,note_on,,,,,92,0,14,,,,,6,,,48,100
67968,note_on,,,,,92,0,9,,,,,2,,,72,101
67968,note_on,,,,,92,0,12,,,,,5,,,36,101
67968,note_on,,,,,0,0,15,,,,,7,,,72,100
67968,note_on,,,,,0,0,15,,,,,7,,,67,100
67968,note_on,,,,,232,0,15,,,,,7,,,64,100
68032,note_off,,,,,64,0,7,,,,,0,,,76,100
68064,note_on,,,,,32,0,7,,,,,0,,,79,100
68156,note_off,,,,,92,0,7,,,,,0,,,79,100
68160,note_on,,,,,4,0,7,,,,,0,,,77,100
68224,note_off,,,,,256,0,12,,,,,5,,,36,100
68224,note_off,,,,,0,0,15,,,,,7,,,72,100
68224,note_off,,,,,0,0,15,,,,,7,,,67,100
68224,note_off,,,,,256,0,16,,,,,7,,,48,100
68224,note_off,,,,,256,0,15,,,,,7,,,64,100
68224,note_off,,,,,0,0,13,,,,,6,,,64,100
68224,note_off,,,,,256,0,13,,,,,6,,,60,100
68224,note_off,,,,,256,0,14,,,,,6,,,48,100
68224,note_off,,,,,256,0,10,,,,,3,,,55,100
68224,note_off,,,,,256,0,11,,,,,4,,,48,100
68224,note_off,,,,,256,0,9,,,,,2,,,72,100
68224,note_off,,,,,256,0,8,,,,,1,,,76,100
68252,note_off,,,,,92,0,7,,,,,0,,,77,100
68256,note_on,,,,,4,0,7,,,,,0,,,76,100
68320,note_off,,,,,64,0,7,,,,,0,,,76,100
68348,program_change,,,,,124,0,11,,,,,4,42,,,
68352,note_on,,,,,4,0,11,,,,,4,,,53,80
68352,note_on,,,,,0,0,13,,,,,6,,,69,100
68352,note_on,,,,,128,0,14,,,,,6,,,53,100
68352,note_on,,,,,32,0,7,,,,,0,,,81,100
68352,note_on,,,,,128,0,13,,,,,6,,,72,100
68416,note_off,,,,,64,0,7,,,,,0,,,81,100
68448,note_on,,,,,32,0,7,,,,,0,,,81,101
68540,note_off,,,,,92,0,7,,,,,0,,,81,100
68544,note_on,,,,,4,0,7,,,,,0,,,79,101
68608,note_off,,,,,256,0,11,,,,,4,,,53,100
68608,note_off,,,,,256,0,13,,,,,6,,,72,100
68608,note_off,,,,,256,0,14,,,,,6,,,53,100
68608,note_off,,,,,0,0,13,,,,,6,,,69,100
68636,note_off,,,,,92,0,7,,,,,0,,,79,100
68640,note_on,,,,,4,0,7,,,,,0,,,77,101
68704,note_off,,,,,64,0,7,,,,,0,,,77,100
68736,note_on,,,,,128,0,13,,,,,6,,,71,100
68736,note_on,,,,,0,0,13,,,,,6,,,74,100
68736,note_on,,,,,128,0,14,,,,,6,,,55,100
68736,note_on,,,,,128,0,11,,,,,4,,,55,80
68736,note_on,,,,,32,0,7,,,,,0,,,83,102
68800,note_off,,,,,64,0,7,,,,,0,,,83,100
68832,note_on,,,,,32,0,7,,,,,0,,,83,102
68924,note_off,,,,,92,0,7,,,,,0,,,83,100
68928,note_on,,,,,4,0,7,,,,,0,,,81,102
68992,note_off,,,,,256,0,13,,,,,6,,,71,100
68992,note_off,,,,,0,0,13,,,,,6,,,74,100
68992,note_off,,,,,256,0,14,,,,,6,,,55,100
68992,note_off,,,,,256,0,11,,,,,4,,,55,100
69020,note_off,,,,,92,0,7,,,,,0,,,81,100
69024,note_on,,,,,4,0,7,,,,,0,,,79,103
69088,note_off,,,,,64,0,7,,,,,0,,,79,100
69120,note_on,,,,,128,0,11,,,,,4,,,57,80
69120,note_on,,,,,128,0,14,,,,,6,,,57,100
69120,note_on,,,,,32,0,7,,,,,0,,,84,103
69120,note_on,,,,,128,0,13,,,,,6,,,76,100
69120,note_on,,,,,0,0,13,,,,,6,,,72,100
69184,note_off,,,,,64,0,7,,,,,0,,,84,100
69216,note_on,,,,,32,0,7,,,,,0,,,84,103
69308,note_off,,,,,92,0,7,,,,,0,,,84,100
69312,note_on,,,,,4,0,7,,,,,0,,,83,104
69376,note_off,,,,,256,0,13,,,,,6,,,76,100
69376,note_off,,,,,0,0,13,,,,,6,,,72,100
69376,note_off,,,,,256,0,14,,,,,6,,,57,100
69376,note_off,,,,,256,0,11,,,,,4,,,57,100
69404,note_off,,,,,92,0,7,,,,,0,,,83,100
69408,note_on,,,,,4,0,7,,,,,0,,,81,104
69472,note_off,,,,,64,0,7,,,,,0,,,81,100
69504,note_on,,,,,32,0,7,,,,,0,,,86,104
69504,note_on,,,,,128,0,11,,,,,4,,,59,80
69504,note_on,,,,,0,0,13,,,,,6,,,74,100
69504,note_on,,,,,128,0,13,,,,,6,,,77,100
69504,note_on,,,,,128,0,14,,,,,6,,,59,100
69568,note_off,,,,,64,0,7,,,,,0,,,86,100
69600,note_on,,,,,32,0,7,,,,,0,,,86,105
69692,note_off,,,,,92,0,7,,,,,0,,,86,100
69696,note_on,,,,,4,0,7,,,,,0,,,84,105
69760,note_off,,,,,256,0,14,,,,,6,,,59,100
69760,note_off,,,,,256,0,13,,,,,6,,,77,100
69760,note_off,,,,,256,0,11,,,,,4,,,59,100
69760,note_off,,,,,0,0,13,,,,,6,,,74,100
69788,note_off,,,,,92,0,7,,,,,0,,,84,100
69792,note_on,,,,,4,0,7,,,,,0,,,83,105
69856,note_off,,,,,64,0,7,,,,,0,,,83,100
69888,note_on,,,,,128,0,11,,,,,4,,,60,80
69888,note_on,,,,,32,0,7,,,,,0,,,88,105
69888,note_on,,,,,128,0,14,,,,,6,,,60,100
69888,note_on,,,,,0,0,13,,,,,6,,,76,100
69888,note_on,,,,,128,0,13,,,,,6,,,79,100
69952,note_off,,,,,64,0,7,,,,,0,,,88,100
69984,note_on,,,,,32,0,7,,,,,0,,,88,104
70076,note_off,,,,,92,0,7,,,,,0,,,88,100
70080,note_on,,,,,4,0,7,,,,,0,,,86,102
70144,note_off,,,,,256,0,11,,,,,4,,,60,100
70144,note_off,,,,,256,0,14,,,,,6,,,60,100
70144,note_off,,,,,256,0,13,,,,,6,,,79,100
70144,note_off,,,,,0,0,13,,,,,6,,,76,100
70172,note_off,,,,,92,0,7,,,,,0,,,86,100
70176,note_on,,,,,4,0,7,,,,,0,,,84,101
70240,note_off,,,,,64,0,7,,,,,0,,,84,100
70272,note_on,,,,,128,0,14,,,,,6,,,55,100
70272,note_on,,,,,32,0,7,,,,,0,,,77,100
70272,note_on,,,,,128,0,11,,,,,4,,,55,80
70272,note_on,,,,,0,0,13,,,,,6,,,77,100
70272,note_on,,,,,128,0,13,,,,,6,,,74,100
70272,note_on,,,,,0,0,13,,,,,6,,,71,100
70336,note_off,,,,,64,0,7,,,,,0,,,77,100
70368,note_on,,,,,32,0,7,,,,,0,,,83,96
70432,note_off,,,,,64,0,7,,,,,0,,,83,100
70464,note_on,,,,,32,0,7,,,,,0,,,84,96
70528,note_off,,,,,256,0,11,,,,,4,,,55,100
70528,note_off,,,,,0,0,13,,,,,6,,,77,100
70528,note_off,,,,,64,0,7,,,,,0,,,84,100
70528,note_off,,,,,0,0,13,,,,,6,,,71,100
70528,note_off,,,,,256,0,14,,,,,6,,,55,100
70528,note_off,,,,,256,0,13,,,,,6,,,74,100
70560,note_on,,,,,32,0,7,,,,,0,,,86,96
70624,note_off,,,,,64,0,7,,,,,0,,,86,100
70656,note_on,,,,,32,0,7,,,,,0,,,77,100
70720,note_off,,,,,64,0,7,,,,,0,,,77,100
70752,note_on,,,,,32,0,7,,,,,0,,,83,96
70816,note_off,,,,,64,0,7,,,,,0,,,83,100
70848,note_on,,,,,32,0,7,,,,,0,,,84,96
70912,note_off,,,,,64,0,7,,,,,0,,,84,100
70944,note_on,,,,,32,0,7,,,,,0,,,86,96
71008,note_off,,,,,64,0,7,,,,,0,,,86,100
71040,note_on,,,,,32,0,7,,,,,0,,,62,100
71104,note_off,,,,,64,0,7,,,,,0,,,62,100
71136,note_on,,,,,32,0,7,,,,,0,,,83,96
71200,note_off,,,,,64,0,7,,,,,0,,,83,100
71232,note_on,,,,,32,0,7,,,,,0,,,84,96
71296,note_off,,,,,64,0,7,,,,,0,,,84,100
71328,note_on,,,,,32,0,7,,,,,0,,,86,96
71392,note_off,,,,,64,0,7,,,,,0,,,86,100
71424,note_on,,,,,0,0,13,,,,,6,,,71,100
71424,note_on,,,,,896,0,13,,,,,6,,,74,100
71424,note_on,,,,,32,0,7,,,,,0,,,55,100
71424,note_on,,,,,896,0,11,,,,,4,,,55,80
71424,note_on,,,,,896,0,14,,,,,6,,,55,100
71424,note_on,,,,,0,0,13,,,,,6,,,77,100
71488,note_off,,,,,64,0,7,,,,,0,,,55,100
71520,note_on,,,,,32,0,7,,,,,0,,,83,96
71584,note_off,,,,,64,0,7,,,,,0,,,83,100
71616,note_on,,,,,32,0,7,,,,,0,,,84,96
71680,note_off,,,,,256,0,13,,,,,6,,,74,100
71680,note_off,,,,,0,0,13,,,,,6,,,71,100
71680,note_off,,,,,64,0,7,,,,,0,,,84,100
71680,note_off,,,,,256,0,11,,,,,4,,,55,100
71680,note_off,,,,,0,0,13,,,,,6,,,77,100
71680,note_off,,,,,256,0,14,,,,,6,,,55,100
71712,note_on,,,,,32,0,7,,,,,0,,,86,96
71776,note_off,,,,,64,0,7,,,,,0,,,86,100
71808,note_on,,,,,32,0,7,,,,,0,,,77,100
71872,note_off,,,,,64,0,7,,,,,0,,,77,100
71904,note_on,,,,,32,0,7,,,,,0,,,83,96
71968,note_off,,,,,64,0,7,,,,,0,,,83,100
72000,note_on,,,,,32,0,7,,,,,0,,,84,96
72064,note_off,,,,,64,0,7,,,,,0,,,84,100
72096,note_on,,,,,32,0,7,,,,,0,,,86,96
72160,note_off,,,,,64,0,7,,,,,0,,,86,100
72192,note_on,,,,,32,0,7,,,,,0,,,62,100
72256,note_off,,,,,64,0,7,,,,,0,,,62,100
72288,note_on,,,,,32,0,7,,,,,0,,,83,96
72352,note_off,,,,,64,0,7,,,,,0,,,83,100
72384,note_on,,,,,32,0,7,,,,,0,,,84,96
72448,note_off,,,,,64,0,7,,,,,0,,,84,100
72480,note_on,,,,,32,0,7,,,,,0,,,86,96
72544,note_off,,,,,64,0,7,,,,,0,,,86,100
72576,note_on,,,,,896,0,14,,,,,6,,,55,100
72576,note_on,,,,,896,0,11,,,,,4,,,55,80
72576,note_on,,,,,896,0,13,,,,,6,,,71,100
72576,note_on,,,,,32,0,7,,,,,0,,,55,100
72676,note_off,,,,,100,0,13,,,,,6,,,71,100
72676,note_off,,,,,100,0,14,,,,,6,,,55,100
72676,note_off,,,,,100,0,11,,,,,4,,,55,100
72768,note_on,,,,,92,0,11,,,,,4,,,53,80
72768,note_on,,,,,92,0,13,,,,,6,,,69,100
72768,note_on,,,,,92,0,14,,,,,6,,,53,100
72832,note_off,,,,,256,0,7,,,,,0,,,55,100
72868,note_off,,,,,100,0,13,,,,,6,,,69,100
72868,note_off,,,,,100,0,11,,,,,4,,,53,100
72868,note_off,,,,,100,0,14,,,,,6,,,53,100
72960,note_on,,,,,92,0,13,,,,,6,,,67,100
72960,note_on,,,,,92,0,11,,,,,4,,,52,80
72960,note_on,,,,,92,0,14,,,,,6,,,52,100
73060,note_off,,,,,100,0,11,,,,,4,,,52,100
73060,note_off,,,,,100,0,14,,,,,6,,,52,100
73060,note_off,,,,,100,0,13,,,,,6,,,67,100
73152,note_on,,,,,92,0,14,,,,,6,,,50,100
73152,note_on,,,,,92,0,11,,,,,4,,,50,80
73152,note_on,,,,,0,0,13,,,,,6,,,65,100
73152,note_on,,,,,92,0,13,,,,,6,,,71,100
73152,note_on,,,,,320,0,7,,,,,0,,,77,92
73252,note_off,,,,,100,0,14,,,,,6,,,50,100
73252,note_off,,,,,100,0,11,,,,,4,,,50,100
73252,note_off,,,,,100,0,13,,,,,6,,,65,100
73340,note_off,,,,,188,0,7,,,,,0,,,77,100
73344,note_on,,,,,92,0,11,,,,,4,,,52,80
73344,note_on,,,,,92,0,13,,,,,6,,,64,100
73344,note_on,,,,,4,0,7,,,,,0,,,79,93
73344,note_on,,,,,92,0,14,,,,,6,,,52,100
73408,note_off,,,,,64,0,13,,,,,6,,,71,100
73444,note_off,,,,,100,0,7,,,,,0,,,79,100
73536,note_on,,,,,128,0,13,,,,,6,,,72,100
73536,note_on,,,,,92,0,7,,,,,0,,,79,94
73600,note_off,,,,,64,0,13,,,,,6,,,64,100
73600,note_off,,,,,256,0,14,,,,,6,,,52,100
73600,note_off,,,,,256,0,11,,,,,4,,,52,100
73724,note_off,,,,,188,0,7,,,,,0,,,79,100
73728,note_on,,,,,128,0,14,,,,,6,,,53,100
73728,note_on,,,,,4,0,7,,,,,0,,,81,95
73728,program_change,,,,,0,0,11,,,,,4,42,,,
73728,note_on,,,,,128,0,11,,,,,4,,,53,80
73728,note_on,,,,,128,0,13,,,,,6,,,69,100
73828,note_off,,,,,100,0,7,,,,,0,,,81,100
73856,note_off,,,,,128,0,13,,,,,6,,,72,100
73920,note_on,,,,,92,0,7,,,,,0,,,81,96
73920,note_on,,,,,64,0,13,,,,,6,,,74,100
73984,note_off,,,,,64,0,13,,,,,6,,,69,100
73984,note_off,,,,,256,0,11,,,,,4,,,53,100
73984,note_off,,,,,256,0,14,,,,,6,,,53,100
74108,note_off,,,,,188,0,7,,,,,0,,,81,100
74112,note_on,,,,,128,0,14,,,,,6,,,55,100
74112,note_on,,,,,128,0,13,,,,,6,,,71,100
74112,note_on,,,,,128,0,11,,,,,4,,,55,80
74112,note_on,,,,,4,0,7,,,,,0,,,83,97
74176,note_off,,,,,64,0,13,,,,,6,,,74,100
74212,note_off,,,,,100,0,7,,,,,0,,,83,100
74304,note_on,,,,,92,0,7,,,,,0,,,83,99
74304,note_on,,,,,128,0,13,,,,,6,,,76,100
74368,note_off,,,,,256,0,14,,,,,6,,,55,100
74368,note_off,,,,,64,0,13,,,,,6,,,71,100
74368,note_off,,,,,256,0,11,,,,,4,,,55,100
74492,note_off,,,,,188,0,7,,,,,0,,,83,100
74496,note_on,,,,,128,0,13,,,,,6,,,72,100
74496,note_on,,,,,4,0,7,,,,,0,,,84,100
74496,note_on,,,,,128,0,11,,,,,4,,,57,80
74496,note_on,,,,,128,0,14,,,,,6,,,57,100
74560,note_off,,,,,64,0,13,,,,,6,,,76,100
74596,note_off,,,,,100,0,7,,,,,0,,,84,100
74688,note_on,,,,,128,0,13,,,,,6,,,77,100
74688,note_on,,,,,92,0,7,,,,,0,,,84,101
74752,note_off,,,,,256,0,14,,,,,6,,,57,100
74752,note_off,,,,,256,0,11,,,,,4,,,57,100
74752,note_off,,,,,64,0,13,,,,,6,,,72,100
74784,note_on,,,,,96,0,7,,,,,0,,,83,102
74788,note_off,,,,,4,0,7,,,,,0,,,84,100
74828,note_off,,,,,40,0,7,,,,,0,,,83,100
74832,note_on,,,,,4,0,7,,,,,0,,,84,102
74876,note_off,,,,,44,0,7,,,,,0,,,84,100
74880,note_on,,,,,128,0,14,,,,,6,,,59,100
74880,note_on,,,,,4,0,7,,,,,0,,,86,102
74880,note_on,,,,,128,0,11,,,,,4,,,59,80
74880,note_on,,,,,128,0,13,,,,,6,,,74,100
75136,note_off,,,,,256,0,13,,,,,6,,,74,100
75136,note_off,,,,,256,0,14,,,,,6,,,59,100
75136,note_off,,,,,256,0,11,,,,,4,,,59,100
75264,note_on,,,,,128,0,13,,,,,6,,,67,100
75264,note_on,,,,,128,0,11,,,,,4,,,47,80
75264,note_on,,,,,128,0,14,,,,,6,,,47,100
75264,note_off,,,,,384,0,7,,,,,0,,,86,100
75360,note_on,,,,,96,0,7,,,,,0,,,84,100
75392,note_off,,,,,128,0,13,,,,,6,,,77,100
75452,note_off,,,,,92,0,7,,,,,0,,,84,100
75456,note_on,,,,,4,0,7,,,,,0,,,83,100
75520,note_off,,,,,64,0,7,,,,,0,,,83,100
75520,note_off,,,,,256,0,14,,,,,6,,,47,100
75520,note_off,,,,,256,0,11,,,,,4,,,47,100
75552,note_on,,,,,32,0,7,,,,,0,,,81,99
75644,note_off,,,,,92,0,7,,,,,0,,,81,100
75648,note_on,,,,,128,0,11,,,,,4,,,59,80
75648,note_on,,,,,128,0,14,,,,,6,,,59,100
75648,note_on,,,,,4,0,7,,,,,0,,,79,99
75648,note_on,,,,,256,0,13,,,,,6,,,74,100
75712,note_off,,,,,64,0,7,,,,,0,,,79,100
75744,note_on,,,,,32,0,7,,,,,0,,,77,98
75776,note_off,,,,,128,0,13,,,,,6,,,67,100
75836,note_off,,,,,92,0,7,,,,,0,,,77,100
75840,note_on,,,,,4,0,7,,,,,0,,,76,97
75904,note_off,,,,,256,0,11,,,,,4,,,59,100
75904,note_off,,,,,256,0,14,,,,,6,,,59,100
75904,note_off,,,,,128,0,13,,,,,6,,,74,100
75904,note_off,,,,,64,0,7,,,,,0,,,76,100
75936,note_on,,,,,32,0,7,,,,,0,,,74,97
76028,note_off,,,,,92,0,7,,,,,0,,,74,100
76032,note_on,,,,,128,0,13,,,,,6,,,64,100
76032,note_on,,,,,128,0,11,,,,,4,,,60,84
76032,note_on,,,,,0,0,13,,,,,6,,,72,100
76032,note_on,,,,,4,0,7,,,,,0,,,76,100
76032,note_on,,,,,128,0,14,,,,,6,,,60,100
76132,note_off,,,,,100,0,11,,,,,4,,,60,100
76132,note_off,,,,,100,0,7,,,,,0,,,76,100
76132,note_off,,,,,100,0,14,,,,,6,,,60,100
76160,note_off,,,,,128,0,13,,,,,6,,,64,100
76224,note_on,,,,,92,0,11,,,,,4,,,57,87
76224,note_on,,,,,92,0,7,,,,,0,,,84,100
76224,note_on,,,,,92,0,14,,,,,6,,,57,100
76224,note_on,,,,,64,0,13,,,,,6,,,60,100
76288,note_off,,,,,64,0,13,,,,,6,,,72,100
76324,note_off,,,,,100,0,14,,,,,6,,,57,100
76324,note_off,,,,,100,0,11,,,,,4,,,57,100
76324,note_off,,,,,100,0,7,,,,,0,,,84,100
76352,note_off,,,,,64,0,13,,,,,6,,,60,100
76416,note_on,,,,,64,0,13,,,,,6,,,71,100
76416,note_on,,,,,0,0,13,,,,,6,,,62,100
76416,note_on,,,,,92,0,11,,,,,4,,,55,89
76416,note_on,,,,,92,0,7,,,,,0,,,76,105
76416,note_on,,,,,92,0,14,,,,,6,,,55,100
76508,note_off,,,,,92,0,7,,,,,0,,,76,100
76512,note_on,,,,,4,0,7,,,,,0,,,74,105
76556,note_off,,,,,44,0,7,,,,,0,,,74,100
76560,note_on,,,,,4,0,7,,,,,0,,,76,105
76604,note_off,,,,,44,0,7,,,,,0,,,76,100
76608,note_on,,,,,4,0,7,,,,,0,,,74,104
76652,note_off,,,,,44,0,7,,,,,0,,,74,100
76656,note_on,,,,,4,0,7,,,,,0,,,76,104
76672,note_off,,,,,256,0,11,,,,,4,,,55,100
76672,note_off,,,,,256,0,14,,,,,6,,,55,100
76672,note_off,,,,,256,0,13,,,,,6,,,71,100
76672,note_off,,,,,0,0,13,,,,,6,,,62,100
76700,note_off,,,,,44,0,7,,,,,0,,,76,100
76704,note_on,,,,,4,0,7,,,,,0,,,74,104
76748,note_off,,,,,44,0,7,,,,,0,,,74,100
76752,note_on,,,,,4,0,7,,,,,0,,,76,103
76796,note_off,,,,,44,0,7,,,,,0,,,76,100
76800,note_on,,,,,4,0,7,,,,,0,,,74,103
76800,note_on,,,,,128,0,11,,,,,4,,,43,94
76800,note_on,,,,,0,0,13,,,,,6,,,67,100
76800,note_on,,,,,0,0,13,,,,,6,,,62,100
76800,note_on,,,,,128,0,13,,,,,6,,,59,100
76800,note_on,,,,,128,0,14,,,,,6,,,43,100
76900,note_off,,,,,100,0,7,,,,,0,,,74,100
76992,note_on,,,,,92,0,7,,,,,0,,,72,102
77056,note_off,,,,,0,0,13,,,,,6,,,67,100
77056,note_off,,,,,256,0,13,,,,,6,,,59,100
77056,note_off,,,,,256,0,11,,,,,4,,,43,100
77056,note_off,,,,,256,0,14,,,,,6,,,43,100
77056,note_off,,,,,0,0,13,,,,,6,,,62,100
77092,note_off,,,,,100,0,7,,,,,0,,,72,100
77180,program_change,,,,,124,0,11,,,,,4,48,,,
77184,note_on,,,,,4,0,11,,,,,4,,,48,99
77184,note_on,,,,,8960,0,10,,,,,3,,,64,100
77184,note_on,,,,,92,0,7,,,,,0,,,72,101
77184,note_on,,,,,0,0,15,,,,,7,,,67,100
77184,note_on,,,,,128,0,14,,,,,6,,,48,100
77184,note_on,,,,,8960,0,12,,,,,5,,,36,100
77184,note_on,,,,,8960,0,16,,,,,7,,,48,100
77184,note_on,,,,,8960,0,15,,,,,7,,,64,100
77184,note_on,,,,,0,0,15,,,,,7,,,72,100
77184,note_on,,,,,8960,0,9,,,,,2,,,67,100
77184,note_on,,,,,8960,0,8,,,,,1,,,72,100
77184,note_on,,,,,128,0,13,,,,,6,,,67,100
77184,note_on,,,,,0,0,13,,,,,6,,,64,100
77184,note_on,,,,,0,0,13,,,,,6,,,60,100
77284,note_off,,,,,100,0,8,,,,,1,,,72,100
77284,note_off,,,,,100,0,12,,,,,5,,,36,100
77284,note_off,,,,,100,0,10,,,,,3,,,64,100
77284,note_off,,,,,100,0,16,,,,,7,,,48,100
77284,note_off,,,,,100,0,14,,,,,6,,,48,100
77284,note_off,,,,,100,0,11,,,,,4,,,48,100
77312,note_off,,,,,128,0,13,,,,,6,,,67,100
77312,note_off,,,,,0,0,13,,,,,6,,,64,100
77312,note_off,,,,,0,0,13,,,,,6,,,60,100
77312,note_off,,,,,0,0,15,,,,,7,,,72,100
77312,note_off,,,,,0,0,15,,,,,7,,,67,100
77312,note_off,,,,,128,0,15,,,,,7,,,64,100
77376,note_on,,,,,0,0,15,,,,,7,,,67,100
77376,note_on,,,,,92,0,8,,,,,1,,,67,100
77376,note_on,,,,,64,0,13,,,,,6,,,64,100
77376,note_on,,,,,64,0,15,,,,,7,,,64,100
77376,note_on,,,,,92,0,12,,,,,5,,,36,100
77376,note_on,,,,,92,0,10,,,,,3,,,64,100
77376,note_on,,,,,92,0,14,,,,,6,,,48,100
77376,note_on,,,,,0,0,13,,,,,6,,,67,100
77376,note_on,,,,,92,0,11,,,,,4,,,48,100
77376,note_on,,,,,92,0,16,,,,,7,,,48,100
77440,note_off,,,,,64,0,10,,,,,3,,,64,100
77440,note_off,,,,,64,0,11,,,,,4,,,48,100
77440,note_off,,,,,64,0,16,,,,,7,,,48,100
77440,note_off,,,,,256,0,9,,,,,2,,,67,100
77440,note_off,,,,,64,0,12,,,,,5,,,36,100
77440,note_off,,,,,64,0,14,,,,,6,,,48,100
77440,note_off,,,,,256,0,7,,,,,0,,,72,100
77468,note_off,,,,,92,0,13,,,,,6,,,64,100
77468,note_off,,,,,92,0,15,,,,,7,,,64,100
77472,note_on,,,,,32,0,11,,,,,4,,,50,100
77472,note_on,,,,,32,0,10,,,,,3,,,65,100
77472,note_on,,,,,32,0,12,,,,,5,,,38,100
77472,note_on,,,,,4,0,15,,,,,7,,,65,100
77472,note_on,,,,,32,0,16,,,,,7,,,50,100
77472,note_on,,,,,32,0,14,,,,,6,,,50,100
77472,note_on,,,,,4,0,13,,,,,6,,,65,100
77476,note_off,,,,,4,0,13,,,,,6,,,67,100
77476,note_off,,,,,4,0,15,,,,,7,,,67,100
77536,note_off,,,,,60,0,13,,,,,6,,,65,100
77536,note_off,,,,,64,0,12,,,,,5,,,38,100
77536,note_off,,,,,64,0,11,,,,,4,,,50,100
77536,note_off,,,,,64,0,14,,,,,6,,,50,100
77536,note_off,,,,,64,0,10,,,,,3,,,65,100
77536,note_off,,,,,64,0,16,,,,,7,,,50,100
77536,note_off,,,,,60,0,15,,,,,7,,,65,100
77568,note_on,,,,,0,0,13,,,,,6,,,67,100
77568,note_on,,,,,32,0,10,,,,,3,,,67,100
77568,note_on,,,,,32,0,11,,,,,4,,,52,100
77568,note_on,,,,,32,0,13,,,,,6,,,72,100
77568,note_on,,,,,32,0,14,,,,,6,,,52,100
77568,note_on,,,,,0,0,15,,,,,7,,,67,100
77568,note_on,,,,,32,0,15,,,,,7,,,72,100
77568,note_on,,,,,32,0,16,,,,,7,,,52,100
77568,note_on,,,,,32,0,12,,,,,5,,,40,100
77632,note_off,,,,,256,0,8,,,,,1,,,67,100
77668,note_off,,,,,100,0,15,,,,,7,,,72,100
77668,note_off,,,,,100,0,11,,,,,4,,,52,100
77668,note_off,,,,,100,0,12,,,,,5,,,40,100
77668,note_off,,,,,100,0,16,,,,,7,,,52,100
77668,note_off,,,,,100,0,10,,,,,3,,,67,100
77668,note_off,,,,,0,0,15,,,,,7,,,67,100
77668,note_off,,,,,0,0,13,,,,,6,,,67,100
77668,note_off,,,,,100,0,13,,,,,6,,,72,100
77668,note_off,,,,,100,0,14,,,,,6,,,52,100
77760,note_on,,,,,128,0,8,,,,,1,,,67,100
77760,note_on,,,,,92,0,13,,,,,6,,,64,100
77760,note_on,,,,,92,0,16,,,,,7,,,48,100
77760,note_on,,,,,92,0,15,,,,,7,,,64,100
77760,note_on,,,,,92,0,14,,,,,6,,,48,100
77760,note_on,,,,,0,0,15,,,,,7,,,67,100
77760,note_on,,,,,92,0,10,,,,,3,,,64,100
77760,note_on,,,,,92,0,12,,,,,5,,,36,100
77760,note_on,,,,,92,0,11,,,,,4,,,48,100
77760,note_on,,,,,0,0,13,,,,,6,,,67,100
77760,note_on,,,,,320,0,9,,,,,2,,,67,100
77860,note_off,,,,,100,0,13,,,,,6,,,64,100
77860,note_off,,,,,0,0,13,,,,,6,,,67,100
77860,note_off,,,,,100,0,12,,,,,5,,,36,100
77860,note_off,,,,,100,0,8,,,,,1,,,67,100
77860,note_off,,,,,100,0,14,,,,,6,,,48,100
77860,note_off,,,,,100,0,10,,,,,3,,,64,100
77860,note_off,,,,,100,0,9,,,,,2,,,67,100
77860,note_off,,,,,100,0,11,,,,,4,,,48,100
77860,note_off,,,,,0,0,15,,,,,7,,,67,100
77860,note_off,,,,,100,0,15,,,,,7,,,64,100
77860,note_off,,,,,100,0,16,,,,,7,,,48,100
77952,note_on,,,,,92,0,8,,,,,1,,,69,100
77952,note_on,,,,,92,0,9,,,,,2,,,65,100
78052,note_off,,,,,100,0,9,,,,,2,,,65,100
78052,note_off,,,,,100,0,8,,,,,1,,,69,100
78144,note_on,,,,,92,0,8,,,,,1,,,67,100
78144,note_on,,,,,92,0,9,,,,,2,,,64,100
78244,note_off,,,,,100,0,9,,,,,2,,,64,100
78244,note_off,,,,,100,0,8,,,,,1,,,67,100
78336,note_on,,,,,92,0,8,,,,,1,,,72,100
78336,note_on,,,,,92,0,9,,,,,2,,,67,100
78436,note_off,,,,,100,0,8,,,,,1,,,72,100
78528,note_on,,,,,0,0,13,,,,,6,,,67,100
78528,note_on,,,,,668,0,16,,,,,7,,,48,100
78528,note_on,,,,,0,0,15,,,,,7,,,67,100
78528,note_on,,,,,668,0,10,,,,,3,,,64,100
78528,note_on,,,,,668,0,12,,,,,5,,,36,100
78528,note_on,,,,,668,0,11,,,,,4,,,48,100
78528,note_on,,,,,92,0,8,,,,,1,,,67,100
78528,note_on,,,,,668,0,15,,,,,7,,,64,100
78528,note_on,,,,,668,0,13,,,,,6,,,64,100
78528,note_on,,,,,668,0,14,,,,,6,,,48,100
78592,note_off,,,,,64,0,16,,,,,7,,,48,100
78592,note_off,,,,,64,0,12,,,,,5,,,36,100
78592,note_off,,,,,256,0,9,,,,,2,,,67,100
78592,note_off,,,,,64,0,10,,,,,3,,,64,100
78592,note_off,,,,,64,0,14,,,,,6,,,48,100
78592,note_off,,,,,64,0,11,,,,,4,,,48,100
78620,note_off,,,,,92,0,15,,,,,7,,,64,100
78620,note_off,,,,,92,0,13,,,,,6,,,64,100
78624,note_on,,,,,32,0,10,,,,,3,,,65,100
78624,note_on,,,,,32,0,12,,,,,5,,,38,100
78624,note_on,,,,,4,0,15,,,,,7,,,65,100
78624,note_on,,,,,32,0,16,,,,,7,,,50,100
78624,note_on,,,,,32,0,14,,,,,6,,,50,100
78624,note_on,,,,,32,0,11,,,,,4,,,50,100
78624,note_on,,,,,4,0,13,,,,,6,,,65,100
78628,note_off,,,,,4,0,13,,,,,6,,,67,100
78628,note_off,,,,,4,0,15,,,,,7,,,67,100
78688,note_off,,,,,64,0,10,,,,,3,,,65,100
78688,note_off,,,,,64,0,11,,,,,4,,,50,100
78688,note_off,,,,,64,0,16,,,,,7,,,50,100
78688,note_off,,,,,64,0,12,,,,,5,,,38,100
78688,note_off,,,,,60,0,13,,,,,6,,,65,100
78688,note_off,,,,,64,0,14,,,,,6,,,50,100
78688,note_off,,,,,60,0,15,,,,,7,,,65,100
78720,note_on,,,,,32,0,13,,,,,6,,,72,100
78720,note_on,,,,,32,0,12,,,,,5,,,40,100
78720,note_on,,,,,32,0,14,,,,,6,,,52,100
78720,note_on,,,,,32,0,11,,,,,4,,,52,100
78720,note_on,,,,,0,0,13,,,,,6,,,67,100
78720,note_on,,,,,32,0,16,,,,,7,,,52,100
78720,note_on,,,,,32,0,15,,,,,7,,,72,100
78720,note_on,,,,,0,0,15,,,,,7,,,67,100
78720,note_on,,,,,32,0,10,,,,,3,,,67,100
78784,note_off,,,,,256,0,8,,,,,1,,,67,100
78820,note_off,,,,,100,0,15,,,,,7,,,72,100
78820,note_off,,,,,100,0,11,,,,,4,,,52,100
78820,note_off,,,,,100,0,13,,,,,6,,,72,100
78820,note_off,,,,,100,0,14,,,,,6,,,52,100
78820,note_off,,,,,0,0,13,,,,,6,,,67,100
78820,note_off,,,,,100,0,12,,,,,5,,,40,100
78820,note_off,,,,,0,0,15,,,,,7,,,67,100
78820,note_off,,,,,100,0,10,,,,,3,,,67,100
78820,note_off,,,,,100,0,16,,,,,7,,,52,100
78912,note_on,,,,,128,0,8,,,,,1,,,67,100
78912,note_on,,,,,92,0,16,,,,,7,,,48,100
78912,note_on,,,,,92,0,15,,,,,7,,,64,100
78912,note_on,,,,,320,0,9,,,,,2,,,67,100
78912,note_on,,,,,0,0,13,,,,,6,,,67,100
78912,note_on,,,,,92,0,13,,,,,6,,,64,100
78912,note_on,,,,,92,0,10,,,,,3,,,64,100
78912,note_on,,,,,92,0,11,,,,,4,,,48,100
78912,note_on,,,,,92,0,14,,,,,6,,,48,100
78912,note_on,,,,,92,0,12,,,,,5,,,36,100
78912,note_on,,,,,0,0,15,,,,,7,,,67,100
79012,note_off,,,,,100,0,9,,,,,2,,,67,100
79012,note_off,,,,,100,0,16,,,,,7,,,48,100
79012,note_off,,,,,100,0,15,,,,,7,,,64,100
79012,note_off,,,,,100,0,10,,,,,3,,,64,100
79012,note_off,,,,,100,0,14,,,,,6,,,48,100
79012,note_off,,,,,0,0,15,,,,,7,,,67,100
79012,note_off,,,,,0,0,13,,,,,6,,,67,100
79012,note_off,,,,,100,0,8,,,,,1,,,67,100
79012,note_off,,,,,100,0,13,,,,,6,,,64,100
79012,note_off,,,,,100,0,11,,,,,4,,,48,100
79012,note_off,,,,,100,0,12,,,,,5,,,36,100
79104,note_on,,,,,92,0,9,,,,,2,,,65,100
79104,note_on,,,,,92,0,8,,,,,1,,,69,100
79204,note_off,,,,,100,0,8,,,,,1,,,69,100
79204,note_off,,,,,100,0,9,,,,,2,,,65,100
79296,note_on,,,,,92,0,8,,,,,1,,,67,100
79296,note_on,,,,,92,0,9,,,,,2,,,64,100
79396,note_off,,,,,100,0,8,,,,,1,,,67,100
79396,note_off,,,,,100,0,9,,,,,2,,,64,100
79488,note_on,,,,,92,0,9,,,,,2,,,71,100
79488,note_on,,,,,92,0,8,,,,,1,,,74,100
79588,note_off,,,,,100,0,8,,,,,1,,,74,100
79680,note_on,,,,,0,0,15,,,,,7,,,62,100
79680,note_on,,,,,668,0,15,,,,,7,,,59,100
79680,note_on,,,,,668,0,11,,,,,4,,,43,100
79680,note_on,,,,,668,0,10,,,,,3,,,62,100
79680,note_on,,,,,668,0,14,,,,,6,,,43,100
79680,note_on,,,,,92,0,8,,,,,1,,,67,100
79680,note_on,,,,,668,0,12,,,,,5,,,31,100
79680,note_on,,,,,668,0,16,,,,,7,,,43,100
79680,note_on,,,,,668,0,13,,,,,6,,,59,100
79680,note_on,,,,,0,0,13,,,,,6,,,62,100
79744,note_off,,,,,64,0,10,,,,,3,,,62,100
79744,note_off,,,,,64,0,14,,,,,6,,,43,100
79744,note_off,,,,,256,0,9,,,,,2,,,71,100
79744,note_off,,,,,64,0,12,,,,,5,,,31,100
79744,note_off,,,,,64,0,16,,,,,7,,,43,100
79744,note_off,,,,,64,0,11,,,,,4,,,43,100
79772,note_off,,,,,92,0,13,,,,,6,,,59,100
79772,note_off,,,,,92,0,15,,,,,7,,,59,100
79776,note_on,,,,,32,0,10,,,,,3,,,60,100
79776,note_on,,,,,4,0,15,,,,,7,,,60,100
79776,note_on,,,,,4,0,13,,,,,6,,,60,100
79776,note_on,,,,,32,0,16,,,,,7,,,45,100
79776,note_on,,,,,32,0,11,,,,,4,,,45,100
79776,note_on,,,,,32,0,12,,,,,5,,,33,100
79776,note_on,,,,,32,0,14,,,,,6,,,45,100
79780,note_off,,,,,4,0,13,,,,,6,,,62,100
79780,note_off,,,,,4,0,15,,,,,7,,,62,100
79840,note_off,,,,,64,0,16,,,,,7,,,45,100
79840,note_off,,,,,60,0,15,,,,,7,,,60,100
79840,note_off,,,,,64,0,11,,,,,4,,,45,100
79840,note_off,,,,,64,0,10,,,,,3,,,60,100
79840,note_off,,,,,64,0,12,,,,,5,,,33,100
79840,note_off,,,,,60,0,13,,,,,6,,,60,100
79840,note_off,,,,,64,0,14,,,,,6,,,45,100
79872,note_on,,,,,32,0,12,,,,,5,,,35,100
79872,note_on,,,,,32,0,15,,,,,7,,,67,100
79872,note_on,,,,,0,0,15,,,,,7,,,62,100
79872,note_on,,,,,32,0,16,,,,,7,,,47,100
79872,note_on,,,,,0,0,13,,,,,6,,,62,100
79872,note_on,,,,,32,0,13,,,,,6,,,67,100
79872,note_on,,,,,32,0,14,,,,,6,,,47,100
79872,note_on,,,,,32,0,11,,,,,4,,,47,100
79872,note_on,,,,,32,0,10,,,,,3,,,62,100
79936,note_off,,,,,256,0,8,,,,,1,,,67,100
79972,note_off,,,,,0,0,15,,,,,7,,,62,100
79972,note_off,,,,,100,0,13,,,,,6,,,67,100
79972,note_off,,,,,100,0,12,,,,,5,,,35,100
79972,note_off,,,,,100,0,14,,,,,6,,,47,100
79972,note_off,,,,,100,0,15,,,,,7,,,67,100
79972,note_off,,,,,100,0,11,,,,,4,,,47,100
79972,note_off,,,,,100,0,10,,,,,3,,,62,100
79972,note_off,,,,,100,0,16,,,,,7,,,47,100
79972,note_off,,,,,0,0,13,,,,,6,,,62,100
80064,note_on,,,,,0,0,15,,,,,7,,,62,100
80064,note_on,,,,,92,0,12,,,,,5,,,31,100
80064,note_on,,,,,92,0,15,,,,,7,,,59,100
80064,note_on,,,,,92,0,16,,,,,7,,,43,100
80064,note_on,,,,,92,0,10,,,,,3,,,59,100
80064,note_on,,,,,92,0,14,,,,,6,,,43,100
80064,note_on,,,,,0,0,13,,,,,6,,,62,100
80064,note_on,,,,,92,0,11,,,,,4,,,43,100
80064,note_on,,,,,320,0,9,,,,,2,,,67,100
80064,note_on,,,,,92,0,13,,,,,6,,,59,100
80064,note_on,,,,,128,0,8,,,,,1,,,67,100
80164,note_off,,,,,100,0,8,,,,,1,,,67,100
80164,note_off,,,,,100,0,10,,,,,3,,,59,100
80164,note_off,,,,,0,0,15,,,,,7,,,62,100
80164,note_off,,,,,100,0,15,,,,,7,,,59,100
80164,note_off,,,,,100,0,16,,,,,7,,,43,100
80164,note_off,,,,,100,0,9,,,,,2,,,67,100
80164,note_off,,,,,0,0,13,,,,,6,,,62,100
80164,note_off,,,,,100,0,13,,,,,6,,,59,100
80164,note_off,,,,,100,0,14,,,,,6,,,43,100
80164,note_off,,,,,100,0,12,,,,,5,,,31,100
80164,note_off,,,,,100,0,11,,,,,4,,,43,100
80256,note_on,,,,,92,0,9,,,,,2,,,65,100
80256,note_on,,,,,92,0,8,,,,,1,,,69,100
80356,note_off,,,,,100,0,9,,,,,2,,,65,100
80356,note_off,,,,,100,0,8,,,,,1,,,69,100
80448,note_on,,,,,92,0,8,,,,,1,,,67,100
80448,note_on,,,,,92,0,9,,,,,2,,,64,100
80548,note_off,,,,,100,0,9,,,,,2,,,64,100
80548,note_off,,,,,100,0,8,,,,,1,,,67,100
80640,note_on,,,,,92,0,8,,,,,1,,,76,100
80640,note_on,,,,,92,0,9,,,,,2,,,72,100
80740,note_off,,,,,100,0,9,,,,,2,,,72,100
80740,note_off,,,,,100,0,8,,,,,1,,,76,100
80832,note_on,,,,,668,0,13,,,,,6,,,59,100
80832,note_on,,,,,668,0,14,,,,,6,,,43,100
80832,note_on,,,,,668,0,11,,,,,4,,,43,100
80832,note_on,,,,,92,0,8,,,,,1,,,74,100
80832,note_on,,,,,668,0,16,,,,,7,,,43,100
80832,note_on,,,,,0,0,13,,,,,6,,,62,100
80832,note_on,,,,,668,0,10,,,,,3,,,62,100
80832,note_on,,,,,668,0,15,,,,,7,,,59,100
80832,note_on,,,,,0,0,15,,,,,7,,,62,100
80832,note_on,,,,,92,0,9,,,,,2,,,71,100
80832,note_on,,,,,668,0,12,,,,,5,,,31,100
80896,note_off,,,,,64,0,10,,,,,3,,,62,100
80896,note_off,,,,,64,0,11,,,,,4,,,43,100
80896,note_off,,,,,64,0,14,,,,,6,,,43,100
80896,note_off,,,,,64,0,12,,,,,5,,,31,100
80896,note_off,,,,,64,0,16,,,,,7,,,43,100
80924,note_off,,,,,92,0,13,,,,,6,,,59,100
80924,note_off,,,,,92,0,15,,,,,7,,,59,100
80928,note_on,,,,,32,0,16,,,,,7,,,45,100
80928,note_on,,,,,32,0,10,,,,,3,,,60,100
80928,note_on,,,,,4,0,15,,,,,7,,,60,100
80928,note_on,,,,,32,0,14,,,,,6,,,45,100
80928,note_on,,,,,32,0,12,,,,,5,,,33,100
80928,note_on,,,,,4,0,13,,,,,6,,,60,100
80928,note_on,,,,,32,0,11,,,,,4,,,45,100
80932,note_off,,,,,4,0,13,,,,,6,,,62,100
80932,note_off,,,,,4,0,15,,,,,7,,,62,100
80992,note_off,,,,,64,0,14,,,,,6,,,45,100
80992,note_off,,,,,64,0,11,,,,,4,,,45,100
80992,note_off,,,,,64,0,12,,,,,5,,,33,100
80992,note_off,,,,,60,0,13,,,,,6,,,60,100
80992,note_off,,,,,64,0,10,,,,,3,,,60,100
80992,note_off,,,,,60,0,15,,,,,7,,,60,100
80992,note_off,,,,,64,0,16,,,,,7,,,45,100
81024,note_on,,,,,0,0,13,,,,,6,,,62,100
81024,note_on,,,,,32,0,12,,,,,5,,,35,100
81024,note_on,,,,,32,0,10,,,,,3,,,62,100
81024,note_on,,,,,32,0,11,,,,,4,,,47,100
81024,note_on,,,,,32,0,16,,,,,7,,,47,100
81024,note_on,,,,,0,0,15,,,,,7,,,62,100
81024,note_on,,,,,32,0,13,,,,,6,,,67,100
81024,note_on,,,,,32,0,14,,,,,6,,,47,100
81024,note_on,,,,,32,0,15,,,,,7,,,67,100
81088,note_off,,,,,256,0,8,,,,,1,,,74,100
81088,note_off,,,,,256,0,9,,,,,2,,,71,100
81124,note_off,,,,,100,0,13,,,,,6,,,67,100
81124,note_off,,,,,100,0,12,,,,,5,,,35,100
81124,note_off,,,,,100,0,14,,,,,6,,,47,100
81124,note_off,,,,,0,0,13,,,,,6,,,62,100
81124,note_off,,,,,100,0,15,,,,,7,,,67,100
81124,note_off,,,,,100,0,11,,,,,4,,,47,100
81124,note_off,,,,,100,0,10,,,,,3,,,62,100
81124,note_off,,,,,100,0,16,,,,,7,,,47,100
81124,note_off,,,,,0,0,15,,,,,7,,,62,100
81216,note_on,,,,,92,0,10,,,,,3,,,59,100
81216,note_on,,,,,92,0,13,,,,,6,,,59,100
81216,note_on,,,,,0,0,13,,,,,6,,,62,100
81216,note_on,,,,,92,0,12,,,,,5,,,31,100
81216,note_on,,,,,92,0,14,,,,,6,,,43,100
81216,note_on,,,,,0,0,15,,,,,7,,,62,100
81216,note_on,,,,,128,0,9,,,,,2,,,67,100
81216,note_on,,,,,128,0,8,,,,,1,,,67,100
81216,note_on,,,,,92,0,16,,,,,7,,,43,100
81216,note_on,,,,,92,0,11,,,,,4,,,43,100
81216,note_on,,,,,92,0,15,,,,,7,,,59,100
81316,note_off,,,,,100,0,11,,,,,4,,,43,100
81316,note_off,,,,,100,0,15,,,,,7,,,59,100
81316,note_off,,,,,0,0,15,,,,,7,,,62,100
81316,note_off,,,,,100,0,9,,,,,2,,,67,100
81316,note_off,,,,,100,0,13,,,,,6,,,59,100
81316,note_off,,,,,100,0,14,,,,,6,,,43,100
81316,note_off,,,,,0,0,13,,,,,6,,,62,100
81316,note_off,,,,,100,0,12,,,,,5,,,31,100
81316,note_off,,,,,100,0,16,,,,,7,,,43,100
81316,note_off,,,,,100,0,8,,,,,1,,,67,100
81316,note_off,,,,,100,0,10,,,,,3,,,59,100
81408,note_on,,,,,92,0,8,,,,,1,,,69,100
81408,note_on,,,,,92,0,9,,,,,2,,,65,100
81508,note_off,,,,,100,0,9,,,,,2,,,65,100
81508,note_off,,,,,100,0,8,,,,,1,,,69,100
81600,note_on,,,,,92,0,9,,,,,2,,,64,100
81600,note_on,,,,,92,0,8,,,,,1,,,67,100
81700,note_off,,,,,100,0,9,,,,,2,,,64,100
81700,note_off,,,,,100,0,8,,,,,1,,,67,100
81792,note_on,,,,,92,0,9,,,,,2,,,74,100
81792,note_on,,,,,92,0,8,,,,,1,,,77,100
81892,note_off,,,,,100,0,8,,,,,1,,,77,100
81892,note_off,,,,,100,0,9,,,,,2,,,74,100
81984,note_on,,,,,92,0,9,,,,,2,,,72,100
81984,note_on,,,,,668,0,16,,,,,7,,,48,100
81984,note_on,,,,,668,0,13,,,,,6,,,64,100
81984,note_on,,,,,0,0,13,,,,,6,,,67,100
81984,note_on,,,,,668,0,11,,,,,4,,,48,100
81984,note_on,,,,,668,0,12,,,,,5,,,36,100
81984,note_on,,,,,668,0,15,,,,,7,,,64,100
81984,note_on,,,,,0,0,15,,,,,7,,,67,100
81984,note_on,,,,,668,0,14,,,,,6,,,48,100
81984,note_on,,,,,668,0,10,,,,,3,,,67,100
81984,note_on,,,,,92,0,8,,,,,1,,,76,100
82048,note_off,,,,,64,0,11,,,,,4,,,48,100
82048,note_off,,,,,64,0,14,,,,,6,,,48,100
82048,note_off,,,,,64,0,10,,,,,3,,,67,100
82048,note_off,,,,,64,0,12,,,,,5,,,36,100
82048,note_off,,,,,64,0,16,,,,,7,,,48,100
82076,note_off,,,,,92,0,15,,,,,7,,,64,100
82076,note_off,,,,,92,0,13,,,,,6,,,64,100
82080,note_on,,,,,4,0,13,,,,,6,,,65,100
82080,note_on,,,,,32,0,11,,,,,4,,,50,100
82080,note_on,,,,,32,0,14,,,,,6,,,50,100
82080,note_on,,,,,32,0,16,,,,,7,,,50,100
82080,note_on,,,,,32,0,12,,,,,5,,,38,100
82080,note_on,,,,,4,0,15,,,,,7,,,65,100
82080,note_on,,,,,32,0,10,,,,,3,,,65,100
82084,note_off,,,,,4,0,13,,,,,6,,,67,100
82084,note_off,,,,,4,0,15,,,,,7,,,67,100
82144,note_off,,,,,64,0,12,,,,,5,,,38,100
82144,note_off,,,,,60,0,15,,,,,7,,,65,100
82144,note_off,,,,,64,0,14,,,,,6,,,50,100
82144,note_off,,,,,64,0,10,,,,,3,,,65,100
82144,note_off,,,,,64,0,16,,,,,7,,,50,100
82144,note_off,,,,,64,0,11,,,,,4,,,50,100
82144,note_off,,,,,60,0,13,,,,,6,,,65,100
82176,note_on,,,,,32,0,13,,,,,6,,,72,100
82176,note_on,,,,,32,0,14,,,,,6,,,52,100
82176,note_on,,,,,0,0,15,,,,,7,,,67,100
82176,note_on,,,,,32,0,15,,,,,7,,,72,100
82176,note_on,,,,,0,0,13,,,,,6,,,67,100
82176,note_on,,,,,32,0,11,,,,,4,,,52,100
82176,note_on,,,,,32,0,16,,,,,7,,,52,100
82176,note_on,,,,,32,0,10,,,,,3,,,67,100
82176,note_on,,,,,32,0,12,,,,,5,,,40,100
82240,note_off,,,,,256,0,9,,,,,2,,,72,100
82240,note_off,,,,,256,0,8,,,,,1,,,76,100
82276,note_off,,,,,0,0,15,,,,,7,,,67,100
82276,note_off,,,,,0,0,13,,,,,6,,,67,100
82276,note_off,,,,,100,0,13,,,,,6,,,72,100
82276,note_off,,,,,100,0,14,,,,,6,,,52,100
82276,note_off,,,,,100,0,10,,,,,3,,,67,100
82276,note_off,,,,,100,0,16,,,,,7,,,52,100
82276,note_off,,,,,100,0,15,,,,,7,,,72,100
82276,note_off,,,,,100,0,12,,,,,5,,,40,100
82276,note_off,,,,,100,0,11,,,,,4,,,52,100
82368,note_on,,,,,0,0,13,,,,,6,,,67,100
82368,note_on,,,,,92,0,10,,,,,3,,,64,100
82368,note_on,,,,,128,0,8,,,,,1,,,67,100
82368,note_on,,,,,92,0,16,,,,,7,,,48,100
82368,note_on,,,,,92,0,11,,,,,4,,,48,100
82368,note_on,,,,,92,0,14,,,,,6,,,48,100
82368,note_on,,,,,92,0,15,,,,,7,,,64,100
82368,note_on,,,,,92,0,12,,,,,5,,,36,100
82368,note_on,,,,,92,0,13,,,,,6,,,64,100
82368,note_on,,,,,128,0,9,,,,,2,,,67,100
82368,note_on,,,,,0,0,15,,,,,7,,,67,100
82468,note_off,,,,,100,0,13,,,,,6,,,64,100
82468,note_off,,,,,100,0,11,,,,,4,,,48,100
82468,note_off,,,,,0,0,15,,,,,7,,,67,100
82468,note_off,,,,,100,0,16,,,,,7,,,48,100
82468,note_off,,,,,100,0,14,,,,,6,,,48,100
82468,note_off,,,,,100,0,12,,,,,5,,,36,100
82468,note_off,,,,,100,0,8,,,,,1,,,67,100
82468,note_off,,,,,100,0,10,,,,,3,,,64,100
82468,note_off,,,,,0,0,13,,,,,6,,,67,100
82468,note_off,,,,,100,0,15,,,,,7,,,64,100
82468,note_off,,,,,100,0,9,,,,,2,,,67,100
82560,note_on,,,,,92,0,8,,,,,1,,,69,100
82560,note_on,,,,,92,0,9,,,,,2,,,65,100
82660,note_off,,,,,100,0,9,,,,,2,,,65,100
82660,note_off,,,,,100,0,8,,,,,1,,,69,100
82752,note_on,,,,,92,0,8,,,,,1,,,67,100
82752,note_on,,,,,92,0,9,,,,,2,,,64,100
82852,note_off,,,,,100,0,9,,,,,2,,,64,100
82852,note_off,,,,,100,0,8,,,,,1,,,67,100
82944,note_on,,,,,476,0,12,,,,,5,,,36,100
82944,note_on,,,,,476,0,14,,,,,6,,,48,100
82944,note_on,,,,,476,0,10,,,,,3,,,64,100
82944,note_on,,,,,476,0,13,,,,,6,,,64,100
82944,note_on,,,,,0,0,13,,,,,6,,,67,100
82944,note_on,,,,,0,0,13,,,,,6,,,72,100
82944,note_on,,,,,476,0,11,,,,,4,,,48,100
82944,note_on,,,,,476,0,16,,,,,7,,,48,100
82944,note_on,,,,,0,0,15,,,,,7,,,72,100
82944,note_on,,,,,92,0,8,,,,,1,,,79,100
82944,note_on,,,,,0,0,15,,,,,7,,,67,100
82944,note_on,,,,,476,0,15,,,,,7,,,64,100
82944,note_on,,,,,92,0,9,,,,,2,,,76,100
83072,note_off,,,,,128,0,9,,,,,2,,,76,100
83072,note_off,,,,,128,0,8,,,,,1,,,79,100
83136,note_on,,,,,64,0,8,,,,,1,,,77,100
83136,note_on,,,,,64,0,9,,,,,2,,,74,100
83200,note_off,,,,,256,0,11,,,,,4,,,48,100
83200,note_off,,,,,256,0,10,,,,,3,,,64,100
83200,note_off,,,,,256,0,12,,,,,5,,,36,100
83200,note_off,,,,,64,0,8,,,,,1,,,77,100
83200,note_off,,,,,256,0,14,,,,,6,,,48,100
83200,note_off,,,,,64,0,9,,,,,2,,,74,100
83200,note_off,,,,,256,0,16,,,,,7,,,48,100
83200,note_off,,,,,0,0,13,,,,,6,,,72,100
83200,note_off,,,,,256,0,13,,,,,6,,,64,100
83200,note_off,,,,,0,0,13,,,,,6,,,67,100
83200,note_off,,,,,256,0,15,,,,,7,,,64,100
83200,note_off,,,,,0,0,15,,,,,7,,,67,100
83200,note_off,,,,,0,0,15,,,,,7,,,72,100
83232,note_on,,,,,32,0,9,,,,,2,,,76,100
83232,note_on,,,,,32,0,8,,,,,1,,,76,100
83296,note_off,,,,,64,0,8,,,,,1,,,76,100
83296,note_off,,,,,64,0,9,,,,,2,,,76,100
83328,note_on,,,,,32,0,8,,,,,1,,,74,100
83328,note_on,,,,,32,0,9,,,,,2,,,77,100
83428,note_off,,,,,100,0,8,,,,,1,,,74,100
83428,note_off,,,,,100,0,9,,,,,2,,,77,100
83520,note_on,,,,,92,0,8,,,,,1,,,72,100
83520,note_on,,,,,92,0,9,,,,,2,,,76,100
83620,note_off,,,,,100,0,8,,,,,1,,,72,100
83620,note_off,,,,,100,0,9,,,,,2,,,76,100
83712,note_on,,,,,92,0,8,,,,,1,,,71,100
83712,note_on,,,,,92,0,9,,,,,2,,,74,100
83812,note_off,,,,,100,0,8,,,,,1,,,71,100
83812,note_off,,,,,100,0,9,,,,,2,,,74,100
83904,note_on,,,,,92,0,9,,,,,2,,,72,97
83904,note_on,,,,,92,0,8,,,,,1,,,72,97
84004,note_off,,,,,100,0,8,,,,,1,,,72,100
84004,note_off,,,,,100,0,9,,,,,2,,,72,100
84096,note_on,,,,,896,0,16,,,,,7,,,55,100
84096,note_on,,,,,896,0,10,,,,,3,,,67,93
84096,note_on,,,,,0,0,15,,,,,7,,,71,100
84096,note_on,,,,,896,0,13,,,,,6,,,74,100
84096,note_on,,,,,6656,0,7,,,,,0,,,67,100
84096,note_on,,,,,0,0,13,,,,,6,,,65,100
84096,note_on,,,,,0,0,13,,,,,6,,,71,100
84096,note_on,,,,,0,0,15,,,,,7,,,65,100
84096,note_on,,,,,92,0,9,,,,,2,,,71,93
84096,note_on,,,,,92,0,8,,,,,1,,,74,93
84096,note_on,,,,,896,0,11,,,,,4,,,55,93
84096,note_on,,,,,896,0,12,,,,,5,,,43,93
84096,note_on,,,,,896,0,15,,,,,7,,,74,100
84096,note_on,,,,,896,0,14,,,,,6,,,55,100
84284,note_off,,,,,188,0,7,,,,,0,,,67,100
84288,note_on,,,,,4,0,7,,,,,0,,,71,99
84352,note_off,,,,,256,0,16,,,,,7,,,55,100
84352,note_off,,,,,0,0,13,,,,,6,,,65,100
84352,note_off,,,,,256,0,14,,,,,6,,,55,100
84352,note_off,,,,,256,0,11,,,,,4,,,55,100
84352,note_off,,,,,256,0,10,,,,,3,,,67,100
84352,note_off,,,,,0,0,15,,,,,7,,,65,100
84352,note_off,,,,,256,0,15,,,,,7,,,74,100
84352,note_off,,,,,256,0,13,,,,,6,,,74,100
84352,note_off,,,,,0,0,13,,,,,6,,,71,100
84352,note_off,,,,,0,0,15,,,,,7,,,71,100
84352,note_off,,,,,256,0,8,,,,,1,,,74,100
84352,note_off,,,,,256,0,12,,,,,5,,,43,100
84352,note_off,,,,,256,0,9,,,,,2,,,71,100
84476,note_off,,,,,188,0,7,,,,,0,,,71,100
84480,note_on,,,,,4,0,7,,,,,0,,,74,97
84668,note_off,,,,,188,0,7,,,,,0,,,74,100
84672,note_on,,,,,4,0,7,,,,,0,,,77,96
84860,note_off,,,,,188,0,7,,,,,0,,,77,100
84864,note_on,,,,,4,0,7,,,,,0,,,79,94
84992,note_off,,,,,128,0,7,,,,,0,,,79,100
85056,note_on,,,,,64,0,7,,,,,0,,,81,93
85184,note_off,,,,,128,0,7,,,,,0,,,81,100
85248,note_on,,,,,896,0,8,,,,,1,,,76,75
85248,note_on,,,,,0,0,15,,,,,7,,,72,100
85248,note_on,,,,,896,0,14,,,,,6,,,48,100
85248,note_on,,,,,64,0,7,,,,,0,,,67,100
85248,note_on,,,,,896,0,11,,,,,4,,,48,75
85248,note_on,,,,,896,0,9,,,,,2,,,72,75
85248,note_on,,,,,896,0,16,,,,,7,,,48,100
85248,note_on,,,,,0,0,15,,,,,7,,,67,100
85248,note_on,,,,,896,0,15,,,,,7,,,64,100
85248,note_on,,,,,896,0,12,,,,,5,,,36,75
85248,note_on,,,,,896,0,13,,,,,6,,,64,100
85248,note_on,,,,,0,0,13,,,,,6,,,67,100
85248,note_on,,,,,0,0,13,,,,,6,,,72,100
85248,note_on,,,,,896,0,10,,,,,3,,,67,75
85436,note_off,,,,,188,0,7,,,,,0,,,67,100
85440,note_on,,,,,4,0,7,,,,,0,,,72,99
85504,note_off,,,,,256,0,9,,,,,2,,,72,100
85504,note_off,,,,,256,0,15,,,,,7,,,64,100
85504,note_off,,,,,256,0,14,,,,,6,,,48,100
85504,note_off,,,,,256,0,16,,,,,7,,,48,100
85504,note_off,,,,,256,0,10,,,,,3,,,67,100
85504,note_off,,,,,256,0,11,,,,,4,,,48,100
85504,note_off,,,,,256,0,12,,,,,5,,,36,100
85504,note_off,,,,,0,0,15,,,,,7,,,67,100
85504,note_off,,,,,0,0,15,,,,,7,,,72,100
85504,note_off,,,,,0,0,13,,,,,6,,,67,100
85504,note_off,,,,,256,0,13,,,,,6,,,64,100
85504,note_off,,,,,0,0,13,,,,,6,,,72,100
85504,note_off,,,,,256,0,8,,,,,1,,,76,100
85628,note_off,,,,,188,0,7,,,,,0,,,72,100
85632,note_on,,,,,4,0,7,,,,,0,,,76,97
85820,note_off,,,,,188,0,7,,,,,0,,,76,100
85824,note_on,,,,,4,0,7,,,,,0,,,79,96
86012,note_off,,,,,188,0,7,,,,,0,,,79,100
86016,note_on,,,,,4,0,7,,,,,0,,,81,94
86144,note_off,,,,,128,0,7,,,,,0,,,81,100
86208,note_on,,,,,64,0,7,,,,,0,,,82,93
86336,note_off,,,,,128,0,7,,,,,0,,,82,100
86400,note_on,,,,,0,0,13,,,,,6,,,65,100
86400,note_on,,,,,0,0,15,,,,,7,,,65,100
86400,note_on,,,,,896,0,12,,,,,5,,,41,75
86400,note_on,,,,,896,0,15,,,,,7,,,72,100
86400,note_on,,,,,0,0,15,,,,,7,,,69,100
86400,note_on,,,,,896,0,14,,,,,6,,,53,100
86400,note_on,,,,,896,0,8,,,,,1,,,81,75
86400,note_on,,,,,896,0,16,,,,,7,,,53,100
86400,note_on,,,,,0,0,13,,,,,6,,,69,100
86400,note_on,,,,,896,0,10,,,,,3,,,65,75
86400,note_on,,,,,896,0,9,,,,,2,,,72,75
86400,note_on,,,,,896,0,13,,,,,6,,,72,100
86400,note_on,,,,,896,0,11,,,,,4,,,53,75
86400,note_on,,,,,64,0,7,,,,,0,,,65,98
86588,note_off,,,,,188,0,7,,,,,0,,,65,100
86592,note_on,,,,,4,0,7,,,,,0,,,69,97
86656,note_off,,,,,256,0,12,,,,,5,,,41,100
86656,note_off,,,,,256,0,8,,,,,1,,,81,100
86656,note_off,,,,,256,0,10,,,,,3,,,65,100
86656,note_off,,,,,256,0,16,,,,,7,,,53,100
86656,note_off,,,,,256,0,11,,,,,4,,,53,100
86656,note_off,,,,,256,0,15,,,,,7,,,72,100
86656,note_off,,,,,0,0,15,,,,,7,,,69,100
86656,note_off,,,,,0,0,15,,,,,7,,,65,100
86656,note_off,,,,,256,0,14,,,,,6,,,53,100
86656,note_off,,,,,256,0,9,,,,,2,,,72,100
86656,note_off,,,,,0,0,13,,,,,6,,,69,100
86656,note_off,,,,,256,0,13,,,,,6,,,72,100
86656,note_off,,,,,0,0,13,,,,,6,,,65,100
86780,note_off,,,,,188,0,7,,,,,0,,,69,100
86784,note_on,,,,,4,0,7,,,,,0,,,72,95
86972,note_off,,,,,188,0,7,,,,,0,,,72,100
86976,note_on,,,,,4,0,7,,,,,0,,,77,94
87164,note_off,,,,,188,0,7,,,,,0,,,77,100
87168,note_on,,,,,4,0,7,,,,,0,,,79,92
87296,note_off,,,,,128,0,7,,,,,0,,,79,100
87360,note_on,,,,,64,0,7,,,,,0,,,81,91
87488,note_off,,,,,128,0,7,,,,,0,,,81,100
87552,note_on,,,,,896,0,8,,,,,1,,,80,75
87552,note_on,,,,,896,0,13,,,,,6,,,68,100
87552,note_on,,,,,0,0,13,,,,,6,,,71,100
87552,note_on,,,,,0,0,13,,,,,6,,,62,100
87552,note_on,,,,,896,0,15,,,,,7,,,68,100
87552,note_on,,,,,896,0,14,,,,,6,,,52,100
87552,note_on,,,,,896,0,12,,,,,5,,,40,75
87552,note_on,,,,,64,0,7,,,,,0,,,68,100
87552,note_on,,,,,0,0,15,,,,,7,,,71,100
87552,note_on,,,,,896,0,10,,,,,3,,,71,75
87552,note_on,,,,,896,0,9,,,,,2,,,74,75
87552,note_on,,,,,896,0,16,,,,,7,,,52,100
87552,note_on,,,,,896,0,11,,,,,4,,,52,75
87552,note_on,,,,,0,0,15,,,,,7,,,62,100
87740,note_off,,,,,188,0,7,,,,,0,,,68,100
87744,note_on,,,,,4,0,7,,,,,0,,,71,99
87808,note_off,,,,,0,0,13,,,,,6,,,62,100
87808,note_off,,,,,0,0,13,,,,,6,,,71,100
87808,note_off,,,,,256,0,12,,,,,5,,,40,100
87808,note_off,,,,,256,0,15,,,,,7,,,68,100
87808,note_off,,,,,256,0,13,,,,,6,,,68,100
87808,note_off,,,,,0,0,15,,,,,7,,,71,100
87808,note_off,,,,,256,0,14,,,,,6,,,52,100
87808,note_off,,,,,256,0,11,,,,,4,,,52,100
87808,note_off,,,,,256,0,10,,,,,3,,,71,100
87808,note_off,,,,,256,0,9,,,,,2,,,74,100
87808,note_off,,,,,256,0,8,,,,,1,,,80,100
87808,note_off,,,,,256,0,16,,,,,7,,,52,100
87808,note_off,,,,,0,0,15,,,,,7,,,62,100
87932,note_off,,,,,188,0,7,,,,,0,,,71,100
87936,note_on,,,,,4,0,7,,,,,0,,,74,97
88124,note_off,,,,,188,0,7,,,,,0,,,74,100
88128,note_on,,,,,4,0,7,,,,,0,,,80,96
88316,note_off,,,,,188,0,7,,,,,0,,,80,100
88320,note_on,,,,,4,0,7,,,,,0,,,81,94
88448,note_off,,,,,128,0,7,,,,,0,,,81,100
88512,note_on,,,,,64,0,7,,,,,0,,,83,93
88640,note_off,,,,,128,0,7,,,,,0,,,83,100
88704,note_on,,,,,0,0,15,,,,,7,,,64,100
88704,note_on,,,,,0,0,15,,,,,7,,,69,100
88704,note_on,,,,,0,0,13,,,,,6,,,64,100
88704,note_on,,,,,64,0,7,,,,,0,,,69,98
88704,note_on,,,,,896,0,15,,,,,7,,,72,100
88704,note_on,,,,,0,0,13,,,,,6,,,69,100
88704,note_on,,,,,896,0,13,,,,,6,,,72,100
88704,note_on,,,,,896,0,12,,,,,5,,,45,75
88704,note_on,,,,,896,0,8,,,,,1,,,81,75
88704,note_on,,,,,896,0,16,,,,,7,,,57,100
88704,note_on,,,,,896,0,9,,,,,2,,,72,75
88704,note_on,,,,,896,0,10,,,,,3,,,64,75
88704,note_on,,,,,896,0,11,,,,,4,,,57,75
88704,note_on,,,,,896,0,14,,,,,6,,,57,100
88892,note_off,,,,,188,0,7,,,,,0,,,69,100
88896,note_on,,,,,4,0,7,,,,,0,,,72,97
88960,note_off,,,,,0,0,13,,,,,6,,,64,100
88960,note_off,,,,,256,0,13,,,,,6,,,72,100
88960,note_off,,,,,256,0,11,,,,,4,,,57,100
88960,note_off,,,,,256,0,15,,,,,7,,,72,100
88960,note_off,,,,,256,0,16,,,,,7,,,57,100
88960,note_off,,,,,256,0,14,,,,,6,,,57,100
88960,note_off,,,,,256,0,8,,,,,1,,,81,100
88960,note_off,,,,,0,0,13,,,,,6,,,69,100
88960,note_off,,,,,256,0,10,,,,,3,,,64,100
88960,note_off,,,,,0,0,15,,,,,7,,,64,100
88960,note_off,,,,,256,0,12,,,,,5,,,45,100
88960,note_off,,,,,256,0,9,,,,,2,,,72,100
88960,note_off,,,,,0,0,15,,,,,7,,,69,100
89084,note_off,,,,,188,0,7,,,,,0,,,72,100
89088,note_on,,,,,4,0,7,,,,,0,,,76,95
89276,note_off,,,,,188,0,7,,,,,0,,,76,100
89280,note_on,,,,,4,0,7,,,,,0,,,81,94
89468,note_off,,,,,188,0,7,,,,,0,,,81,100
89472,note_on,,,,,4,0,7,,,,,0,,,83,92
89600,note_off,,,,,128,0,7,,,,,0,,,83,100
89664,note_on,,,,,64,0,7,,,,,0,,,84,91
89792,note_off,,,,,128,0,7,,,,,0,,,84,100
89856,note_on,,,,,896,0,10,,,,,3,,,66,75
89856,note_on,,,,,896,0,16,,,,,7,,,51,100
89856,note_on,,,,,896,0,11,,,,,4,,,51,75
89856,note_on,,,,,896,0,9,,,,,2,,,71,75
89856,note_on,,,,,896,0,8,,,,,1,,,81,75
89856,note_on,,,,,0,0,15,,,,,7,,,69,100
89856,note_on,,,,,0,0,15,,,,,7,,,71,100
89856,note_on,,,,,896,0,15,,,,,7,,,63,100
89856,note_on,,,,,896,0,14,,,,,6,,,51,100
89856,note_on,,,,,0,0,13,,,,,6,,,69,100
89856,note_on,,,,,0,0,13,,,,,6,,,71,100
89856,note_on,,,,,896,0,13,,,,,6,,,63,100
89856,note_on,,,,,896,0,12,,,,,5,,,39,75
89856,note_on,,,,,64,0,7,,,,,0,,,66,100
90044,note_off,,,,,188,0,7,,,,,0,,,66,100
90048,note_on,,,,,4,0,7,,,,,0,,,71,99
90112,note_off,,,,,256,0,12,,,,,5,,,39,100
90112,note_off,,,,,0,0,13,,,,,6,,,69,100
90112,note_off,,,,,0,0,15,,,,,7,,,69,100
90112,note_off,,,,,0,0,15,,,,,7,,,71,100
90112,note_off,,,,,256,0,15,,,,,7,,,63,100
90112,note_off,,,,,0,0,13,,,,,6,,,71,100
90112,note_off,,,,,256,0,13,,,,,6,,,63,100
90112,note_off,,,,,256,0,14,,,,,6,,,51,100
90112,note_off,,,,,256,0,9,,,,,2,,,71,100
90112,note_off,,,,,256,0,11,,,,,4,,,51,100
90112,note_off,,,,,256,0,8,,,,,1,,,81,100
90112,note_off,,,,,256,0,10,,,,,3,,,66,100
90112,note_off,,,,,256,0,16,,,,,7,,,51,100
90236,note_off,,,,,188,0,7,,,,,0,,,71,100
90240,note_on,,,,,4,0,7,,,,,0,,,75,97
90428,note_off,,,,,188,0,7,,,,,0,,,75,100
90432,note_on,,,,,4,0,7,,,,,0,,,78,96
90620,note_off,,,,,188,0,7,,,,,0,,,78,100
90624,note_on,,,,,4,0,7,,,,,0,,,79,94
90752,note_off,,,,,128,0,7,,,,,0,,,79,100
90816,note_on,,,,,64,0,7,,,,,0,,,81,93
90944,note_off,,,,,128,0,7,,,,,0,,,81,100
91008,note_on,,,,,896,0,10,,,,,3,,,64,75
91008,note_on,,,,,0,0,13,,,,,6,,,64,100
91008,note_on,,,,,0,0,13,,,,,6,,,67,100
91008,note_on,,,,,896,0,13,,,,,6,,,71,100
91008,note_on,,,,,896,0,12,,,,,5,,,40,75
91008,note_on,,,,,0,0,15,,,,,7,,,64,100
91008,note_on,,,,,0,0,15,,,,,7,,,67,100
91008,note_on,,,,,896,0,15,,,,,7,,,71,100
91008,note_on,,,,,896,0,11,,,,,4,,,52,75
91008,note_on,,,,,896,0,8,,,,,1,,,79,75
91008,note_on,,,,,896,0,9,,,,,2,,,71,75
91008,note_on,,,,,64,0,7,,,,,0,,,67,98
91008,note_on,,,,,896,0,16,,,,,7,,,52,100
91008,note_on,,,,,896,0,14,,,,,6,,,52,100
91196,note_off,,,,,188,0,7,,,,,0,,,67,100
91200,note_on,,,,,4,0,7,,,,,0,,,71,97
91264,note_off,,,,,256,0,11,,,,,4,,,52,100
91264,note_off,,,,,256,0,10,,,,,3,,,64,100
91264,note_off,,,,,256,0,9,,,,,2,,,71,100
91264,note_off,,,,,256,0,12,,,,,5,,,40,100
91264,note_off,,,,,0,0,13,,,,,6,,,67,100
91264,note_off,,,,,0,0,15,,,,,7,,,64,100
91264,note_off,,,,,0,0,15,,,,,7,,,67,100
91264,note_off,,,,,256,0,15,,,,,7,,,71,100
91264,note_off,,,,,256,0,14,,,,,6,,,52,100
91264,note_off,,,,,0,0,13,,,,,6,,,64,100
91264,note_off,,,,,256,0,16,,,,,7,,,52,100
91264,note_off,,,,,256,0,8,,,,,1,,,79,100
91264,note_off,,,,,256,0,13,,,,,6,,,71,100
91388,note_off,,,,,188,0,7,,,,,0,,,71,100
91392,note_on,,,,,4,0,7,,,,,0,,,76,95
91580,note_off,,,,,188,0,7,,,,,0,,,76,100
91584,note_on,,,,,4,0,7,,,,,0,,,79,94
91772,note_off,,,,,188,0,7,,,,,0,,,79,100
91776,note_on,,,,,4,0,7,,,,,0,,,81,92
91904,note_off,,,,,128,0,7,,,,,0,,,81,100
91968,note_on,,,,,64,0,7,,,,,0,,,83,91
92096,note_off,,,,,128,0,7,,,,,0,,,83,100
92160,note_on,,,,,0,0,15,,,,,7,,,66,100
92160,note_on,,,,,64,0,7,,,,,0,,,66,98
92160,note_on,,,,,0,0,15,,,,,7,,,64,100
92160,note_on,,,,,896,0,8,,,,,1,,,78,75
92160,note_on,,,,,896,0,12,,,,,5,,,34,75
92160,note_on,,,,,896,0,16,,,,,7,,,46,100
92160,note_on,,,,,896,0,15,,,,,7,,,70,100
92160,note_on,,,,,896,0,13,,,,,6,,,70,100
92160,note_on,,,,,896,0,11,,,,,4,,,46,75
92160,note_on,,,,,896,0,14,,,,,6,,,46,100
92160,note_on,,,,,896,0,9,,,,,2,,,73,75
92160,note_on,,,,,0,0,13,,,,,6,,,66,100
92160,note_on,,,,,0,0,13,,,,,6,,,64,100
92160,note_on,,,,,896,0,10,,,,,3,,,64,75
92348,note_off,,,,,188,0,7,,,,,0,,,66,100
92352,note_on,,,,,4,0,7,,,,,0,,,70,97
92416,note_off,,,,,256,0,16,,,,,7,,,46,100
92416,note_off,,,,,256,0,10,,,,,3,,,64,100
92416,note_off,,,,,256,0,9,,,,,2,,,73,100
92416,note_off,,,,,256,0,12,,,,,5,,,34,100
92416,note_off,,,,,0,0,13,,,,,6,,,64,100
92416,note_off,,,,,256,0,13,,,,,6,,,70,100
92416,note_off,,,,,256,0,8,,,,,1,,,78,100
92416,note_off,,,,,256,0,11,,,,,4,,,46,100
92416,note_off,,,,,0,0,15,,,,,7,,,64,100
92416,note_off,,,,,0,0,15,,,,,7,,,66,100
92416,note_off,,,,,256,0,15,,,,,7,,,70,100
92416,note_off,,,,,256,0,14,,,,,6,,,46,100
92416,note_off,,,,,0,0,13,,,,,6,,,66,100
92540,note_off,,,,,188,0,7,,,,,0,,,70,100
92544,note_on,,,,,4,0,7,,,,,0,,,73,95
92732,note_off,,,,,188,0,7,,,,,0,,,73,100
92736,note_on,,,,,4,0,7,,,,,0,,,76,94
92924,note_off,,,,,188,0,7,,,,,0,,,76,100
92928,note_on,,,,,4,0,7,,,,,0,,,78,92
93056,note_off,,,,,128,0,7,,,,,0,,,78,100
93120,note_on,,,,,64,0,7,,,,,0,,,79,91
93248,note_off,,,,,128,0,7,,,,,0,,,79,100
93312,note_on,,,,,896,0,10,,,,,3,,,62,75
93312,note_on,,,,,0,0,13,,,,,6,,,62,100
93312,note_on,,,,,896,0,9,,,,,2,,,74,75
93312,note_on,,,,,896,0,13,,,,,6,,,71,100
93312,note_on,,,,,896,0,11,,,,,4,,,47,75
93312,note_on,,,,,896,0,14,,,,,6,,,47,100
93312,note_on,,,,,896,0,12,,,,,5,,,35,75
93312,note_on,,,,,896,0,16,,,,,7,,,47,100
93312,note_on,,,,,896,0,15,,,,,7,,,71,100
93312,note_on,,,,,0,0,15,,,,,7,,,66,100
93312,note_on,,,,,896,0,8,,,,,1,,,78,75
93312,note_on,,,,,0,0,15,,,,,7,,,62,100
93312,note_on,,,,,0,0,13,,,,,6,,,66,100
93312,note_on,,,,,64,0,7,,,,,0,,,59,96
93500,note_off,,,,,188,0,7,,,,,0,,,59,100
93504,note_on,,,,,4,0,7,,,,,0,,,62,95
93568,note_off,,,,,0,0,15,,,,,7,,,66,100
93568,note_off,,,,,256,0,11,,,,,4,,,47,100
93568,note_off,,,,,256,0,14,,,,,6,,,47,100
93568,note_off,,,,,0,0,15,,,,,7,,,62,100
93568,note_off,,,,,256,0,15,,,,,7,,,71,100
93568,note_off,,,,,256,0,13,,,,,6,,,71,100
93568,note_off,,,,,0,0,13,,,,,6,,,66,100
93568,note_off,,,,,0,0,13,,,,,6,,,62,100
93568,note_off,,,,,256,0,9,,,,,2,,,74,100
93568,note_off,,,,,256,0,12,,,,,5,,,35,100
93568,note_off,,,,,256,0,16,,,,,7,,,47,100
93568,note_off,,,,,256,0,10,,,,,3,,,62,100
93568,note_off,,,,,256,0,8,,,,,1,,,78,100
93692,note_off,,,,,188,0,7,,,,,0,,,62,100
93696,note_on,,,,,4,0,7,,,,,0,,,66,93
93884,note_off,,,,,188,0,7,,,,,0,,,66,100
93888,note_on,,,,,4,0,7,,,,,0,,,71,92
94076,note_off,,,,,188,0,7,,,,,0,,,71,100
94080,note_on,,,,,4,0,7,,,,,0,,,73,90
94208,note_off,,,,,128,0,7,,,,,0,,,73,100
94272,note_on,,,,,64,0,7,,,,,0,,,74,89
94400,note_off,,,,,128,0,7,,,,,0,,,74,100
94464,note_on,,,,,896,0,16,,,,,7,,,52,100
94464,note_on,,,,,896,0,11,,,,,4,,,52,75
94464,note_on,,,,,896,0,14,,,,,6,,,52,100
94464,note_on,,,,,896,0,13,,,,,6,,,71,100
94464,note_on,,,,,0,0,13,,,,,6,,,67,100
94464,note_on,,,,,0,0,13,,,,,6,,,64,100
94464,note_on,,,,,896,0,8,,,,,1,,,79,75
94464,note_on,,,,,896,0,9,,,,,2,,,71,75
94464,note_on,,,,,896,0,12,,,,,5,,,40,75
94464,note_on,,,,,896,0,10,,,,,3,,,64,75
94464,note_on,,,,,0,0,15,,,,,7,,,64,100
94464,note_on,,,,,0,0,15,,,,,7,,,67,100
94464,note_on,,,,,896,0,15,,,,,7,,,71,100
94464,note_on,,,,,64,0,7,,,,,0,,,64,98
94652,note_off,,,,,188,0,7,,,,,0,,,64,100
94656,note_on,,,,,4,0,7,,,,,0,,,67,97
94720,note_off,,,,,256,0,13,,,,,6,,,71,100
94720,note_off,,,,,0,0,13,,,,,6,,,67,100
94720,note_off,,,,,0,0,13,,,,,6,,,64,100
94720,note_off,,,,,256,0,12,,,,,5,,,40,100
94720,note_off,,,,,256,0,8,,,,,1,,,79,100
94720,note_off,,,,,256,0,14,,,,,6,,,52,100
94720,note_off,,,,,256,0,10,,,,,3,,,64,100
94720,note_off,,,,,256,0,9,,,,,2,,,71,100
94720,note_off,,,,,256,0,11,,,,,4,,,52,100
94720,note_off,,,,,0,0,15,,,,,7,,,64,100
94720,note_off,,,,,256,0,16,,,,,7,,,52,100
94720,note_off,,,,,256,0,15,,,,,7,,,71,100
94720,note_off,,,,,0,0,15,,,,,7,,,67,100
94844,note_off,,,,,188,0,7,,,,,0,,,67,100
94848,note_on,,,,,4,0,7,,,,,0,,,71,95
95036,note_off,,,,,188,0,7,,,,,0,,,71,100
95040,note_on,,,,,4,0,7,,,,,0,,,76,94
95228,note_off,,,,,188,0,7,,,,,0,,,76,100
95232,note_on,,,,,4,0,7,,,,,0,,,78,92
95232,program_change,,,,,512,0,11,,,,,4,42,,,
95360,note_off,,,,,128,0,7,,,,,0,,,78,100
95424,note_on,,,,,64,0,7,,,,,0,,,79,91
95552,note_off,,,,,128,0,7,,,,,0,,,79,100
95616,note_on,,,,,64,0,7,,,,,0,,,79,90
95616,note_on,,,,,896,0,14,,,,,6,,,52,100
95616,note_on,,,,,0,0,13,,,,,6,,,64,100
95616,note_on,,,,,0,0,13,,,,,6,,,67,100
95616,note_on,,,,,896,0,13,,,,,6,,,71,100
95616,note_on,,,,,384,0,11,,,,,4,,,52,75
95740,note_off,,,,,124,0,7,,,,,0,,,79,100
95744,note_on,,,,,4,0,7,,,,,0,,,78,90
95868,note_off,,,,,124,0,7,,,,,0,,,78,100
95872,note_off,,,,,256,0,11,,,,,4,,,52,100
95872,note_off,,,,,256,0,14,,,,,6,,,52,100
95872,note_off,,,,,0,0,13,,,,,6,,,67,100
95872,note_off,,,,,256,0,13,,,,,6,,,71,100
95872,note_on,,,,,4,0,7,,,,,0,,,76,89
95872,note_off,,,,,0,0,13,,,,,6,,,64,100
95956,note_off,,,,,84,0,7,,,,,0,,,76,100
96000,note_on,,,,,44,0,7,,,,,0,,,76,88
96124,note_off,,,,,124,0,7,,,,,0,,,76,100
96128,note_on,,,,,4,0,7,,,,,0,,,74,87
96252,note_off,,,,,124,0,7,,,,,0,,,74,100
96256,note_on,,,,,4,0,7,,,,,0,,,72,86
96340,note_off,,,,,84,0,7,,,,,0,,,72,100
96384,note_on,,,,,44,0,7,,,,,0,,,72,87
96508,note_off,,,,,124,0,7,,,,,0,,,72,100
96512,note_on,,,,,4,0,7,,,,,0,,,74,87
96636,note_off,,,,,124,0,7,,,,,0,,,74,100
96640,note_on,,,,,4,0,7,,,,,0,,,76,88
96724,note_off,,,,,84,0,7,,,,,0,,,76,100
96768,note_on,,,,,896,0,13,,,,,6,,,73,100
96768,note_on,,,,,896,0,14,,,,,6,,,54,100
96768,note_on,,,,,896,0,11,,,,,4,,,54,75
96768,note_on,,,,,0,0,13,,,,,6,,,66,100
96768,note_on,,,,,44,0,7,,,,,0,,,82,94
96768,note_on,,,,,0,0,13,,,,,6,,,70,100
96892,note_off,,,,,124,0,7,,,,,0,,,82,100
96896,note_on,,,,,4,0,7,,,,,0,,,80,89
97020,note_off,,,,,124,0,7,,,,,0,,,80,100
97024,note_off,,,,,0,0,13,,,,,6,,,66,100
97024,note_off,,,,,0,0,13,,,,,6,,,70,100
97024,note_off,,,,,256,0,13,,,,,6,,,73,100
97024,note_on,,,,,4,0,7,,,,,0,,,78,90
97024,note_off,,,,,256,0,11,,,,,4,,,54,100
97024,note_off,,,,,256,0,14,,,,,6,,,54,100
97108,note_off,,,,,84,0,7,,,,,0,,,78,100
97152,note_on,,,,,44,0,7,,,,,0,,,78,91
97276,note_off,,,,,124,0,7,,,,,0,,,78,100
97280,note_on,,,,,4,0,7,,,,,0,,,76,91
97404,note_off,,,,,124,0,7,,,,,0,,,76,100
97408,note_on,,,,,4,0,7,,,,,0,,,74,92
97492,note_off,,,,,84,0,7,,,,,0,,,74,100
97536,note_on,,,,,44,0,7,,,,,0,,,74,93
97660,note_off,,,,,124,0,7,,,,,0,,,74,100
97664,note_on,,,,,4,0,7,,,,,0,,,76,93
97788,note_off,,,,,124,0,7,,,,,0,,,76,100
97792,note_on,,,,,4,0,7,,,,,0,,,78,94
97876,note_off,,,,,84,0,7,,,,,0,,,78,100
97920,note_on,,,,,44,0,7,,,,,0,,,83,100
97920,note_on,,,,,896,0,14,,,,,6,,,55,100
97920,note_on,,,,,896,0,11,,,,,4,,,55,75
97920,note_on,,,,,896,0,13,,,,,6,,,74,100
97920,note_on,,,,,0,0,13,,,,,6,,,71,100
97920,note_on,,,,,0,0,13,,,,,6,,,67,100
98044,note_off,,,,,124,0,7,,,,,0,,,83,100
98048,note_on,,,,,4,0,7,,,,,0,,,81,96
98172,note_off,,,,,124,0,7,,,,,0,,,81,100
98176,note_off,,,,,0,0,13,,,,,6,,,67,100
98176,note_off,,,,,256,0,11,,,,,4,,,55,100
98176,note_off,,,,,0,0,13,,,,,6,,,71,100
98176,note_on,,,,,4,0,7,,,,,0,,,79,96
98176,note_off,,,,,256,0,13,,,,,6,,,74,100
98176,note_off,,,,,256,0,14,,,,,6,,,55,100
98260,note_off,,,,,84,0,7,,,,,0,,,79,100
98304,note_on,,,,,44,0,7,,,,,0,,,79,97
98428,note_off,,,,,124,0,7,,,,,0,,,79,100
98432,note_on,,,,,4,0,7,,,,,0,,,78,98
98556,note_off,,,,,124,0,7,,,,,0,,,78,100
98560,note_on,,,,,4,0,7,,,,,0,,,76,98
98644,note_off,,,,,84,0,7,,,,,0,,,76,100
98688,note_on,,,,,44,0,7,,,,,0,,,76,99
98812,note_off,,,,,124,0,7,,,,,0,,,76,100
98816,note_on,,,,,4,0,7,,,,,0,,,78,100
98940,note_off,,,,,124,0,7,,,,,0,,,78,100
98944,note_on,,,,,4,0,7,,,,,0,,,79,100
99028,note_off,,,,,84,0,7,,,,,0,,,79,100
99072,note_on,,,,,44,0,7,,,,,0,,,85,105
99072,note_on,,,,,896,0,14,,,,,6,,,54,100
99072,note_on,,,,,0,0,13,,,,,6,,,73,100
99072,note_on,,,,,0,0,13,,,,,6,,,70,100
99072,note_on,,,,,896,0,13,,,,,6,,,66,100
99072,note_on,,,,,896,0,11,,,,,4,,,54,75
99196,note_off,,,,,124,0,7,,,,,0,,,85,100
99200,note_on,,,,,4,0,7,,,,,0,,,83,100
99324,note_off,,,,,124,0,7,,,,,0,,,83,100
99328,note_on,,,,,4,0,7,,,,,0,,,82,100
99412,note_off,,,,,84,0,7,,,,,0,,,82,100
99456,note_on,,,,,44,0,7,,,,,0,,,82,100
99580,note_off,,,,,124,0,7,,,,,0,,,82,100
99584,note_on,,,,,4,0,7,,,,,0,,,80,99
99684,note_off,,,,,612,0,14,,,,,6,,,54,100
99684,note_off,,,,,612,0,11,,,,,4,,,54,100
99684,note_off,,,,,612,0,13,,,,,6,,,66,100
99684,note_off,,,,,0,0,13,,,,,6,,,70,100
99684,note_off,,,,,0,0,13,,,,,6,,,73,100
99708,note_off,,,,,124,0,7,,,,,0,,,80,100
99712,note_on,,,,,4,0,7,,,,,0,,,78,98
99796,note_off,,,,,84,0,7,,,,,0,,,78,100
99840,note_on,,,,,156,0,11,,,,,4,,,52,75
99840,note_on,,,,,0,0,13,,,,,6,,,66,100
99840,note_on,,,,,156,0,13,,,,,6,,,70,100
99840,note_on,,,,,156,0,14,,,,,6,,,52,100
99840,note_on,,,,,44,0,7,,,,,0,,,78,97
99964,note_off,,,,,124,0,7,,,,,0,,,78,100
99968,note_on,,,,,4,0,7,,,,,0,,,80,95
100092,note_off,,,,,124,0,7,,,,,0,,,80,100
100096,note_off,,,,,256,0,13,,,,,6,,,70,100
100096,note_off,,,,,0,0,13,,,,,6,,,66,100
100096,note_off,,,,,256,0,14,,,,,6,,,52,100
100096,note_off,,,,,256,0,11,,,,,4,,,52,100
100096,note_on,,,,,4,0,7,,,,,0,,,82,94
100180,note_off,,,,,84,0,7,,,,,0,,,82,100
100224,note_on,,,,,128,0,14,,,,,6,,,50,100
100224,note_on,,,,,128,0,11,,,,,4,,,50,75
100224,note_on,,,,,0,0,13,,,,,6,,,66,100
100224,note_on,,,,,128,0,13,,,,,6,,,71,100
100224,note_on,,,,,44,0,7,,,,,0,,,83,92
100316,note_off,,,,,92,0,7,,,,,0,,,83,100
100320,note_on,,,,,4,0,7,,,,,0,,,78,88
100412,note_off,,,,,92,0,7,,,,,0,,,78,100
100416,note_on,,,,,4,0,7,,,,,0,,,74,89
100480,note_off,,,,,0,0,13,,,,,6,,,66,100
100480,note_off,,,,,256,0,14,,,,,6,,,50,100
100480,note_off,,,,,256,0,13,,,,,6,,,71,100
100480,note_off,,,,,256,0,11,,,,,4,,,50,100
100508,note_off,,,,,92,0,7,,,,,0,,,74,100
100512,note_on,,,,,4,0,7,,,,,0,,,78,90
100576,note_off,,,,,64,0,7,,,,,0,,,78,100
100608,note_on,,,,,32,0,7,,,,,0,,,83,95
100700,note_off,,,,,92,0,7,,,,,0,,,83,100
100704,note_on,,,,,4,0,7,,,,,0,,,78,92
100796,note_off,,,,,92,0,7,,,,,0,,,78,100
100800,note_on,,,,,4,0,7,,,,,0,,,74,93
100892,note_off,,,,,92,0,7,,,,,0,,,74,100
100896,note_on,,,,,4,0,7,,,,,0,,,78,94
100960,note_off,,,,,64,0,7,,,,,0,,,78,100
100992,note_on,,,,,32,0,7,,,,,0,,,83,99
101084,note_off,,,,,92,0,7,,,,,0,,,83,100
101088,note_on,,,,,4,0,7,,,,,0,,,78,96
101180,note_off,,,,,92,0,7,,,,,0,,,78,100
101184,note_on,,,,,4,0,7,,,,,0,,,74,96
101276,note_off,,,,,92,0,7,,,,,0,,,74,100
101280,note_on,,,,,4,0,7,,,,,0,,,78,96
101344,note_off,,,,,64,0,7,,,,,0,,,78,100
101376,note_on,,,,,896,0,11,,,,,4,,,59,75
101376,note_on,,,,,32,0,7,,,,,0,,,86,100
101376,note_on,,,,,0,0,13,,,,,6,,,62,100
101376,note_on,,,,,896,0,13,,,,,6,,,66,100
101376,note_on,,,,,896,0,14,,,,,6,,,59,100
101468,note_off,,,,,92,0,7,,,,,0,,,86,100
101472,note_on,,,,,4,0,7,,,,,0,,,78,96
101564,note_off,,,,,92,0,7,,,,,0,,,78,100
101568,note_on,,,,,4,0,7,,,,,0,,,74,96
101632,note_off,,,,,256,0,11,,,,,4,,,59,100
101632,note_off,,,,,0,0,13,,,,,6,,,62,100
101632,note_off,,,,,256,0,13,,,,,6,,,66,100
101632,note_off,,,,,256,0,14,,,,,6,,,59,100
101660,note_off,,,,,92,0,7,,,,,0,,,74,100
101664,note_on,,,,,4,0,7,,,,,0,,,78,96
101728,note_off,,,,,64,0,7,,,,,0,,,78,100
101760,note_on,,,,,128,0,14,,,,,6,,,62,100
101760,note_on,,,,,128,0,11,,,,,4,,,62,75
101760,note_on,,,,,0,0,13,,,,,6,,,66,100
101760,note_on,,,,,128,0,13,,,,,6,,,71,100
101760,note_on,,,,,32,0,7,,,,,0,,,83,100
101852,note_off,,,,,92,0,7,,,,,0,,,83,100
101856,note_on,,,,,4,0,7,,,,,0,,,78,96
101948,note_off,,,,,92,0,7,,,,,0,,,78,100
101952,note_on,,,,,4,0,7,,,,,0,,,74,96
102016,note_off,,,,,256,0,13,,,,,6,,,71,100
102016,note_off,,,,,256,0,14,,,,,6,,,62,100
102016,note_off,,,,,0,0,13,,,,,6,,,66,100
102016,note_off,,,,,256,0,11,,,,,4,,,62,100
102044,note_off,,,,,92,0,7,,,,,0,,,74,100
102048,note_on,,,,,4,0,7,,,,,0,,,78,96
102112,note_off,,,,,64,0,7,,,,,0,,,78,100
102144,note_on,,,,,128,0,14,,,,,6,,,62,100
102144,note_on,,,,,128,0,11,,,,,4,,,62,75
102144,note_on,,,,,0,0,13,,,,,6,,,66,100
102144,note_on,,,,,128,0,13,,,,,6,,,71,100
102144,note_on,,,,,32,0,7,,,,,0,,,83,100
102236,note_off,,,,,92,0,7,,,,,0,,,83,100
102240,note_on,,,,,4,0,7,,,,,0,,,78,96
102332,note_off,,,,,92,0,7,,,,,0,,,78,100
102336,note_on,,,,,4,0,7,,,,,0,,,74,96
102400,note_off,,,,,256,0,11,,,,,4,,,62,100
102400,note_off,,,,,0,0,13,,,,,6,,,66,100
102400,note_off,,,,,256,0,13,,,,,6,,,71,100
102400,note_off,,,,,256,0,14,,,,,6,,,62,100
102428,note_off,,,,,92,0,7,,,,,0,,,74,100
102432,note_on,,,,,4,0,7,,,,,0,,,78,96
102496,note_off,,,,,64,0,7,,,,,0,,,78,100
102528,note_on,,,,,128,0,11,,,,,4,,,59,75
102528,note_on,,,,,32,0,7,,,,,0,,,86,100
102528,note_on,,,,,0,0,13,,,,,6,,,62,100
102528,note_on,,,,,128,0,14,,,,,6,,,59,100
102528,note_on,,,,,128,0,13,,,,,6,,,66,100
102620,note_off,,,,,92,0,7,,,,,0,,,86,100
102624,note_on,,,,,4,0,7,,,,,0,,,78,96
102716,note_off,,,,,92,0,7,,,,,0,,,78,100
102720,note_on,,,,,4,0,7,,,,,0,,,74,96
102784,note_off,,,,,256,0,14,,,,,6,,,59,100
102784,note_off,,,,,256,0,11,,,,,4,,,59,100
102784,note_off,,,,,256,0,13,,,,,6,,,66,100
102784,note_off,,,,,0,0,13,,,,,6,,,62,100
102812,note_off,,,,,92,0,7,,,,,0,,,74,100
102816,note_on,,,,,4,0,7,,,,,0,,,78,96
102880,note_off,,,,,64,0,7,,,,,0,,,78,100
102912,note_on,,,,,32,0,7,,,,,0,,,83,100
102912,note_on,,,,,0,0,13,,,,,6,,,66,100
102912,note_on,,,,,128,0,11,,,,,4,,,62,75
102912,note_on,,,,,128,0,14,,,,,6,,,62,100
102912,note_on,,,,,128,0,13,,,,,6,,,71,100
103004,note_off,,,,,92,0,7,,,,,0,,,83,100
103008,note_on,,,,,4,0,7,,,,,0,,,78,96
103100,note_off,,,,,92,0,7,,,,,0,,,78,100
103104,note_on,,,,,4,0,7,,,,,0,,,74,96
103168,note_off,,,,,256,0,11,,,,,4,,,62,100
103168,note_off,,,,,0,0,13,,,,,6,,,66,100
103168,note_off,,,,,256,0,14,,,,,6,,,62,100
103168,note_off,,,,,256,0,13,,,,,6,,,71,100
103196,note_off,,,,,92,0,7,,,,,0,,,74,100
103200,note_on,,,,,4,0,7,,,,,0,,,78,96
103264,note_off,,,,,64,0,7,,,,,0,,,78,100
103296,note_on,,,,,0,0,13,,,,,6,,,66,100
103296,note_on,,,,,128,0,11,,,,,4,,,62,75
103296,note_on,,,,,128,0,13,,,,,6,,,71,100
103296,note_on,,,,,128,0,14,,,,,6,,,62,100
103296,note_on,,,,,32,0,7,,,,,0,,,83,100
103388,note_off,,,,,92,0,7,,,,,0,,,83,100
103392,note_on,,,,,4,0,7,,,,,0,,,78,95
103484,note_off,,,,,92,0,7,,,,,0,,,78,100
103488,note_on,,,,,4,0,7,,,,,0,,,74,93
103552,note_off,,,,,0,0,13,,,,,6,,,66,100
103552,note_off,,,,,256,0,13,,,,,6,,,71,100
103552,note_off,,,,,256,0,14,,,,,6,,,62,100
103552,note_off,,,,,256,0,11,,,,,4,,,62,100
103580,note_off,,,,,92,0,7,,,,,0,,,74,100
103584,note_on,,,,,4,0,7,,,,,0,,,78,91
103648,note_off,,,,,64,0,7,,,,,0,,,78,100
103680,note_on,,,,,128,0,14,,,,,6,,,55,100
103680,note_on,,,,,0,0,13,,,,,6,,,67,100
103680,note_on,,,,,0,0,13,,,,,6,,,64,100
103680,note_on,,,,,128,0,11,,,,,4,,,55,75
103680,note_on,,,,,128,0,13,,,,,6,,,59,100
103680,note_on,,,,,32,0,7,,,,,0,,,76,92
103772,note_off,,,,,92,0,7,,,,,0,,,76,100
103776,note_on,,,,,4,0,7,,,,,0,,,71,88
103868,note_off,,,,,92,0,7,,,,,0,,,71,100
103872,note_on,,,,,4,0,7,,,,,0,,,67,88
103936,note_off,,,,,256,0,13,,,,,6,,,59,100
103936,note_off,,,,,0,0,13,,,,,6,,,67,100
103936,note_off,,,,,256,0,14,,,,,6,,,55,100
103936,note_off,,,,,0,0,13,,,,,6,,,64,100
103936,note_off,,,,,256,0,11,,,,,4,,,55,100
103964,note_off,,,,,92,0,7,,,,,0,,,67,100
103968,note_on,,,,,4,0,7,,,,,0,,,71,88
104032,note_off,,,,,64,0,7,,,,,0,,,71,100
104064,note_on,,,,,32,0,7,,,,,0,,,76,92
104156,note_off,,,,,92,0,7,,,,,0,,,76,100
104160,note_on,,,,,4,0,7,,,,,0,,,71,88
104252,note_off,,,,,92,0,7,,,,,0,,,71,100
104256,note_on,,,,,4,0,7,,,,,0,,,67,88
104348,note_off,,,,,92,0,7,,,,,0,,,67,100
104352,note_on,,,,,4,0,7,,,,,0,,,71,88
104416,note_off,,,,,64,0,7,,,,,0,,,71,100
104448,note_on,,,,,32,0,7,,,,,0,,,76,92
104540,note_off,,,,,92,0,7,,,,,0,,,76,100
104544,note_on,,,,,4,0,7,,,,,0,,,71,88
104636,note_off,,,,,92,0,7,,,,,0,,,71,100
104640,note_on,,,,,4,0,7,,,,,0,,,67,88
104732,note_off,,,,,92,0,7,,,,,0,,,67,100
104736,note_on,,,,,4,0,7,,,,,0,,,71,88
104800,note_off,,,,,64,0,7,,,,,0,,,71,100
104832,note_on,,,,,896,0,14,,,,,6,,,52,100
104832,note_on,,,,,32,0,7,,,,,0,,,79,92
104832,note_on,,,,,896,0,13,,,,,6,,,59,100
104832,note_on,,,,,0,0,13,,,,,6,,,55,100
104832,note_on,,,,,896,0,11,,,,,4,,,52,75
104924,note_off,,,,,92,0,7,,,,,0,,,79,100
104928,note_on,,,,,4,0,7,,,,,0,,,71,88
105020,note_off,,,,,92,0,7,,,,,0,,,71,100
105024,note_on,,,,,4,0,7,,,,,0,,,67,88
105088,note_off,,,,,256,0,11,,,,,4,,,52,100
105088,note_off,,,,,0,0,13,,,,,6,,,55,100
105088,note_off,,,,,256,0,13,,,,,6,,,59,100
105088,note_off,,,,,256,0,14,,,,,6,,,52,100
105116,note_off,,,,,92,0,7,,,,,0,,,67,100
105120,note_on,,,,,4,0,7,,,,,0,,,71,88
105184,note_off,,,,,64,0,7,,,,,0,,,71,100
105216,note_on,,,,,0,0,13,,,,,6,,,59,100
105216,note_on,,,,,128,0,13,,,,,6,,,64,100
105216,note_on,,,,,32,0,7,,,,,0,,,76,92
105216,note_on,,,,,128,0,14,,,,,6,,,55,100
105216,note_on,,,,,128,0,11,,,,,4,,,55,75
105308,note_off,,,,,92,0,7,,,,,0,,,76,100
105312,note_on,,,,,4,0,7,,,,,0,,,71,88
105404,note_off,,,,,92,0,7,,,,,0,,,71,100
105408,note_on,,,,,4,0,7,,,,,0,,,67,88
105472,note_off,,,,,256,0,14,,,,,6,,,55,100
105472,note_off,,,,,256,0,11,,,,,4,,,55,100
105472,note_off,,,,,0,0,13,,,,,6,,,59,100
105472,note_off,,,,,256,0,13,,,,,6,,,64,100
105500,note_off,,,,,92,0,7,,,,,0,,,67,100
105504,note_on,,,,,4,0,7,,,,,0,,,71,88
105568,note_off,,,,,64,0,7,,,,,0,,,71,100
105600,note_on,,,,,128,0,14,,,,,6,,,55,100
105600,note_on,,,,,128,0,11,,,,,4,,,55,75
105600,note_on,,,,,128,0,13,,,,,6,,,64,100
105600,note_on,,,,,0,0,13,,,,,6,,,59,100
105600,note_on,,,,,32,0,7,,,,,0,,,76,92
105692,note_off,,,,,92,0,7,,,,,0,,,76,100
105696,note_on,,,,,4,0,7,,,,,0,,,71,88
105788,note_off,,,,,92,0,7,,,,,0,,,71,100
105792,note_on,,,,,4,0,7,,,,,0,,,67,88
105856,note_off,,,,,256,0,14,,,,,6,,,55,100
105856,note_off,,,,,0,0,13,,,,,6,,,59,100
105856,note_off,,,,,256,0,13,,,,,6,,,64,100
105856,note_off,,,,,256,0,11,,,,,4,,,55,100
105884,note_off,,,,,92,0,7,,,,,0,,,67,100
105888,note_on,,,,,4,0,7,,,,,0,,,71,88
105952,note_off,,,,,64,0,7,,,,,0,,,71,100
105984,note_on,,,,,128,0,11,,,,,4,,,52,75
105984,note_on,,,,,128,0,14,,,,,6,,,52,100
105984,note_on,,,,,128,0,13,,,,,6,,,59,100
105984,note_on,,,,,0,0,13,,,,,6,,,55,100
105984,note_on,,,,,32,0,7,,,,,0,,,79,92
106076,note_off,,,,,92,0,7,,,,,0,,,79,100
106080,note_on,,,,,4,0,7,,,,,0,,,71,89
106172,note_off,,,,,92,0,7,,,,,0,,,71,100
106176,note_on,,,,,4,0,7,,,,,0,,,67,90
106240,note_off,,,,,256,0,13,,,,,6,,,59,100
106240,note_off,,,,,0,0,13,,,,,6,,,55,100
106240,note_off,,,,,256,0,14,,,,,6,,,52,100
106240,note_off,,,,,256,0,11,,,,,4,,,52,100
106268,note_off,,,,,92,0,7,,,,,0,,,67,100
106272,note_on,,,,,4,0,7,,,,,0,,,71,91
106336,note_off,,,,,64,0,7,,,,,0,,,71,100
106368,note_on,,,,,32,0,7,,,,,0,,,76,96
106368,note_on,,,,,128,0,13,,,,,6,,,64,100
106368,note_on,,,,,128,0,14,,,,,6,,,55,100
106368,note_on,,,,,0,0,13,,,,,6,,,59,100
106368,note_on,,,,,128,0,11,,,,,4,,,55,75
106460,note_off,,,,,92,0,7,,,,,0,,,76,100
106464,note_on,,,,,4,0,7,,,,,0,,,71,93
106556,note_off,,,,,92,0,7,,,,,0,,,71,100
106560,note_on,,,,,4,0,7,,,,,0,,,67,94
106624,note_off,,,,,256,0,11,,,,,4,,,55,100
106624,note_off,,,,,256,0,14,,,,,6,,,55,100
106624,note_off,,,,,256,0,13,,,,,6,,,64,100
106624,note_off,,,,,0,0,13,,,,,6,,,59,100
106652,note_off,,,,,92,0,7,,,,,0,,,67,100
106656,note_on,,,,,4,0,7,,,,,0,,,71,95
106720,note_off,,,,,64,0,7,,,,,0,,,71,100
106752,note_on,,,,,128,0,13,,,,,6,,,64,100
106752,note_on,,,,,128,0,11,,,,,4,,,55,75
106752,note_on,,,,,128,0,14,,,,,6,,,55,100
106752,note_on,,,,,0,0,13,,,,,6,,,59,100
106752,note_on,,,,,32,0,7,,,,,0,,,76,100
106844,note_off,,,,,92,0,7,,,,,0,,,76,100
106848,note_on,,,,,4,0,7,,,,,0,,,71,97
106940,note_off,,,,,92,0,7,,,,,0,,,71,100
106944,note_on,,,,,4,0,7,,,,,0,,,67,98
107008,note_off,,,,,0,0,13,,,,,6,,,59,100
107008,note_off,,,,,256,0,13,,,,,6,,,64,100
107008,note_off,,,,,256,0,14,,,,,6,,,55,100
107008,note_off,,,,,256,0,11,,,,,4,,,55,100
107036,note_off,,,,,92,0,7,,,,,0,,,67,100
107040,note_on,,,,,4,0,7,,,,,0,,,71,99
107104,note_off,,,,,64,0,7,,,,,0,,,71,100
107136,note_on,,,,,32,0,7,,,,,0,,,81,104
107136,note_on,,,,,128,0,14,,,,,6,,,48,100
107136,note_on,,,,,128,0,13,,,,,6,,,64,100
107136,note_on,,,,,0,0,13,,,,,6,,,57,100
107136,note_on,,,,,0,0,13,,,,,6,,,60,100
107136,note_on,,,,,128,0,11,,,,,4,,,48,75
107228,note_off,,,,,92,0,7,,,,,0,,,81,100
107232,note_on,,,,,4,0,7,,,,,0,,,76,96
107324,note_off,,,,,92,0,7,,,,,0,,,76,100
107328,note_on,,,,,4,0,7,,,,,0,,,72,96
107392,note_off,,,,,0,0,13,,,,,6,,,57,100
107392,note_off,,,,,256,0,13,,,,,6,,,64,100
107392,note_off,,,,,256,0,11,,,,,4,,,48,100
107392,note_off,,,,,0,0,13,,,,,6,,,60,100
107392,note_off,,,,,256,0,14,,,,,6,,,48,100
107420,note_off,,,,,92,0,7,,,,,0,,,72,100
107424,note_on,,,,,4,0,7,,,,,0,,,76,96
107488,note_off,,,,,64,0,7,,,,,0,,,76,100
107520,note_on,,,,,32,0,7,,,,,0,,,81,100
107612,note_off,,,,,92,0,7,,,,,0,,,81,100
107616,note_on,,,,,4,0,7,,,,,0,,,76,96
107708,note_off,,,,,92,0,7,,,,,0,,,76,100
107712,note_on,,,,,4,0,7,,,,,0,,,72,96
107804,note_off,,,,,92,0,7,,,,,0,,,72,100
107808,note_on,,,,,4,0,7,,,,,0,,,76,96
107872,note_off,,,,,64,0,7,,,,,0,,,76,100
107904,note_on,,,,,32,0,7,,,,,0,,,81,100
107996,note_off,,,,,92,0,7,,,,,0,,,81,100
108000,note_on,,,,,4,0,7,,,,,0,,,76,96
108092,note_off,,,,,92,0,7,,,,,0,,,76,100
108096,note_on,,,,,4,0,7,,,,,0,,,72,96
108188,note_off,,,,,92,0,7,,,,,0,,,72,100
108192,note_on,,,,,4,0,7,,,,,0,,,76,96
108256,note_off,,,,,64,0,7,,,,,0,,,76,100
108288,note_on,,,,,896,0,13,,,,,6,,,64,100
108288,note_on,,,,,0,0,13,,,,,6,,,60,100
108288,note_on,,,,,896,0,14,,,,,6,,,57,100
108288,note_on,,,,,896,0,11,,,,,4,,,57,75
108288,note_on,,,,,32,0,7,,,,,0,,,84,100
108380,note_off,,,,,92,0,7,,,,,0,,,84,100
108384,note_on,,,,,4,0,7,,,,,0,,,76,96
108476,note_off,,,,,92,0,7,,,,,0,,,76,100
108480,note_on,,,,,4,0,7,,,,,0,,,72,96
108544,note_off,,,,,256,0,11,,,,,4,,,57,100
108544,note_off,,,,,0,0,13,,,,,6,,,60,100
108544,note_off,,,,,256,0,14,,,,,6,,,57,100
108544,note_off,,,,,256,0,13,,,,,6,,,64,100
108572,note_off,,,,,92,0,7,,,,,0,,,72,100
108576,note_on,,,,,4,0,7,,,,,0,,,76,96
108640,note_off,,,,,64,0,7,,,,,0,,,76,100
108672,note_on,,,,,32,0,7,,,,,0,,,81,100
108672,note_on,,,,,128,0,13,,,,,6,,,69,100
108672,note_on,,,,,128,0,14,,,,,6,,,60,100
108672,note_on,,,,,128,0,11,,,,,4,,,60,75
108672,note_on,,,,,0,0,13,,,,,6,,,64,100
108764,note_off,,,,,92,0,7,,,,,0,,,81,100
108768,note_on,,,,,4,0,7,,,,,0,,,76,96
108860,note_off,,,,,92,0,7,,,,,0,,,76,100
108864,note_on,,,,,4,0,7,,,,,0,,,72,96
108928,note_off,,,,,256,0,14,,,,,6,,,60,100
108928,note_off,,,,,0,0,13,,,,,6,,,64,100
108928,note_off,,,,,256,0,13,,,,,6,,,69,100
108928,note_off,,,,,256,0,11,,,,,4,,,60,100
108956,note_off,,,,,92,0,7,,,,,0,,,72,100
108960,note_on,,,,,4,0,7,,,,,0,,,76,96
109024,note_off,,,,,64,0,7,,,,,0,,,76,100
109056,note_on,,,,,0,0,13,,,,,6,,,64,100
109056,note_on,,,,,128,0,13,,,,,6,,,69,100
109056,note_on,,,,,128,0,11,,,,,4,,,60,75
109056,note_on,,,,,32,0,7,,,,,0,,,81,100
109056,note_on,,,,,128,0,14,,,,,6,,,60,100
109148,note_off,,,,,92,0,7,,,,,0,,,81,100
109152,note_on,,,,,4,0,7,,,,,0,,,76,96
109244,note_off,,,,,92,0,7,,,,,0,,,76,100
109248,note_on,,,,,4,0,7,,,,,0,,,72,96
109312,note_off,,,,,256,0,13,,,,,6,,,69,100
109312,note_off,,,,,256,0,14,,,,,6,,,60,100
109312,note_off,,,,,256,0,11,,,,,4,,,60,100
109312,note_off,,,,,0,0,13,,,,,6,,,64,100
109340,note_off,,,,,92,0,7,,,,,0,,,72,100
109344,note_on,,,,,4,0,7,,,,,0,,,76,96
109408,note_off,,,,,64,0,7,,,,,0,,,76,100
109440,note_on,,,,,32,0,7,,,,,0,,,84,102
109440,note_on,,,,,128,0,13,,,,,6,,,64,100
109440,note_on,,,,,0,0,13,,,,,6,,,60,100
109440,note_on,,,,,128,0,14,,,,,6,,,57,100
109440,note_on,,,,,128,0,11,,,,,4,,,57,75
109532,note_off,,,,,92,0,7,,,,,0,,,84,100
109536,note_on,,,,,4,0,7,,,,,0,,,76,98
109628,note_off,,,,,92,0,7,,,,,0,,,76,100
109632,note_on,,,,,4,0,7,,,,,0,,,72,97
109696,note_off,,,,,256,0,11,,,,,4,,,57,100
109696,note_off,,,,,256,0,14,,,,,6,,,57,100
109696,note_off,,,,,256,0,13,,,,,6,,,64,100
109696,note_off,,,,,0,0,13,,,,,6,,,60,100
109724,note_off,,,,,92,0,7,,,,,0,,,72,100
109728,note_on,,,,,4,0,7,,,,,0,,,76,96
109792,note_off,,,,,64,0,7,,,,,0,,,76,100
109824,note_on,,,,,128,0,11,,,,,4,,,60,75
109824,note_on,,,,,128,0,14,,,,,6,,,60,100
109824,note_on,,,,,32,0,7,,,,,0,,,81,99
109824,note_on,,,,,0,0,13,,,,,6,,,64,100
109824,note_on,,,,,128,0,13,,,,,6,,,69,100
109916,note_off,,,,,92,0,7,,,,,0,,,81,100
109920,note_on,,,,,4,0,7,,,,,0,,,76,94
110012,note_off,,,,,92,0,7,,,,,0,,,76,100
110016,note_on,,,,,4,0,7,,,,,0,,,72,94
110080,note_off,,,,,256,0,11,,,,,4,,,60,100
110080,note_off,,,,,0,0,13,,,,,6,,,64,100
110080,note_off,,,,,256,0,13,,,,,6,,,69,100
110080,note_off,,,,,256,0,14,,,,,6,,,60,100
110108,note_off,,,,,92,0,7,,,,,0,,,72,100
110112,note_on,,,,,4,0,7,,,,,0,,,76,93
110176,note_off,,,,,64,0,7,,,,,0,,,76,100
110208,note_on,,,,,32,0,7,,,,,0,,,81,96
110208,note_on,,,,,128,0,11,,,,,4,,,60,75
110208,note_on,,,,,0,0,13,,,,,6,,,64,100
110208,note_on,,,,,128,0,13,,,,,6,,,69,100
110208,note_on,,,,,128,0,14,,,,,6,,,60,100
110300,note_off,,,,,92,0,7,,,,,0,,,81,100
110304,note_on,,,,,4,0,7,,,,,0,,,76,91
110396,note_off,,,,,92,0,7,,,,,0,,,76,100
110400,note_on,,,,,4,0,7,,,,,0,,,72,90
110464,note_off,,,,,0,0,13,,,,,6,,,64,100
110464,note_off,,,,,256,0,13,,,,,6,,,69,100
110464,note_off,,,,,256,0,14,,,,,6,,,60,100
110464,note_off,,,,,256,0,11,,,,,4,,,60,100
110492,note_off,,,,,92,0,7,,,,,0,,,72,100
110496,note_on,,,,,4,0,7,,,,,0,,,76,89
110560,note_off,,,,,64,0,7,,,,,0,,,76,100
110592,note_on,,,,,128,0,14,,,,,6,,,54,100
110592,note_on,,,,,0,0,13,,,,,6,,,62,100
110592,note_on,,,,,0,0,13,,,,,6,,,57,100
110592,note_on,,,,,32,0,7,,,,,0,,,74,93
110592,note_on,,,,,128,0,11,,,,,4,,,54,75
110592,note_on,,,,,128,0,13,,,,,6,,,66,100
110684,note_off,,,,,92,0,7,,,,,0,,,74,100
110688,note_on,,,,,4,0,7,,,,,0,,,69,88
110780,note_off,,,,,92,0,7,,,,,0,,,69,100
110784,note_on,,,,,4,0,7,,,,,0,,,66,88
110848,note_off,,,,,256,0,11,,,,,4,,,54,100
110848,note_off,,,,,256,0,13,,,,,6,,,66,100
110848,note_off,,,,,0,0,13,,,,,6,,,57,100
110848,note_off,,,,,0,0,13,,,,,6,,,62,100
110848,note_off,,,,,256,0,14,,,,,6,,,54,100
110876,note_off,,,,,92,0,7,,,,,0,,,66,100
110880,note_on,,,,,4,0,7,,,,,0,,,69,88
110944,note_off,,,,,64,0,7,,,,,0,,,69,100
110976,note_on,,,,,32,0,7,,,,,0,,,74,92
111068,note_off,,,,,92,0,7,,,,,0,,,74,100
111072,note_on,,,,,4,0,7,,,,,0,,,69,88
111164,note_off,,,,,92,0,7,,,,,0,,,69,100
111168,note_on,,,,,4,0,7,,,,,0,,,66,88
111260,note_off,,,,,92,0,7,,,,,0,,,66,100
111264,note_on,,,,,4,0,7,,,,,0,,,69,88
111328,note_off,,,,,64,0,7,,,,,0,,,69,100
111360,note_on,,,,,32,0,7,,,,,0,,,74,92
111452,note_off,,,,,92,0,7,,,,,0,,,74,100
111456,note_on,,,,,4,0,7,,,,,0,,,69,88
111548,note_off,,,,,92,0,7,,,,,0,,,69,100
111552,note_on,,,,,4,0,7,,,,,0,,,66,88
111644,note_off,,,,,92,0,7,,,,,0,,,66,100
111648,note_on,,,,,4,0,7,,,,,0,,,69,88
111712,note_off,,,,,64,0,7,,,,,0,,,69,100
111744,note_on,,,,,896,0,14,,,,,6,,,50,100
111744,note_on,,,,,32,0,7,,,,,0,,,78,92
111744,note_on,,,,,896,0,11,,,,,4,,,50,75
111744,note_on,,,,,896,0,13,,,,,6,,,54,100
111744,note_on,,,,,0,0,13,,,,,6,,,57,100
111836,note_off,,,,,92,0,7,,,,,0,,,78,100
111840,note_on,,,,,4,0,7,,,,,0,,,69,88
111932,note_off,,,,,92,0,7,,,,,0,,,69,100
111936,note_on,,,,,4,0,7,,,,,0,,,66,88
112000,note_off,,,,,256,0,13,,,,,6,,,54,100
112000,note_off,,,,,256,0,11,,,,,4,,,50,100
112000,note_off,,,,,0,0,13,,,,,6,,,57,100
112000,note_off,,,,,256,0,14,,,,,6,,,50,100
112028,note_off,,,,,92,0,7,,,,,0,,,66,100
112032,note_on,,,,,4,0,7,,,,,0,,,69,88
112096,note_off,,,,,64,0,7,,,,,0,,,69,100
112128,note_on,,,,,0,0,13,,,,,6,,,57,100
112128,note_on,,,,,32,0,7,,,,,0,,,74,92
112128,note_on,,,,,128,0,14,,,,,6,,,54,100
112128,note_on,,,,,128,0,13,,,,,6,,,62,100
112128,note_on,,,,,128,0,11,,,,,4,,,54,75
112220,note_off,,,,,92,0,7,,,,,0,,,74,100
112224,note_on,,,,,4,0,7,,,,,0,,,69,88
112316,note_off,,,,,92,0,7,,,,,0,,,69,100
112320,note_on,,,,,4,0,7,,,,,0,,,66,88
112384,note_off,,,,,0,0,13,,,,,6,,,57,100
112384,note_off,,,,,256,0,13,,,,,6,,,62,100
112384,note_off,,,,,256,0,11,,,,,4,,,54,100
112384,note_off,,,,,256,0,14,,,,,6,,,54,100
112412,note_off,,,,,92,0,7,,,,,0,,,66,100
112416,note_on,,,,,4,0,7,,,,,0,,,69,88
112480,note_off,,,,,64,0,7,,,,,0,,,69,100
112512,note_on,,,,,32,0,7,,,,,0,,,74,92
112512,note_on,,,,,128,0,11,,,,,4,,,54,75
112512,note_on,,,,,128,0,13,,,,,6,,,62,100
112512,note_on,,,,,0,0,13,,,,,6,,,57,100
112512,note_on,,,,,128,0,14,,,,,6,,,54,100
112604,note_off,,,,,92,0,7,,,,,0,,,74,100
112608,note_on,,,,,4,0,7,,,,,0,,,69,88
112700,note_off,,,,,92,0,7,,,,,0,,,69,100
112704,note_on,,,,,4,0,7,,,,,0,,,66,88
112768,note_off,,,,,256,0,11,,,,,4,,,54,100
112768,note_off,,,,,256,0,14,,,,,6,,,54,100
112768,note_off,,,,,0,0,13,,,,,6,,,57,100
112768,note_off,,,,,256,0,13,,,,,6,,,62,100
112796,note_off,,,,,92,0,7,,,,,0,,,66,100
112800,note_on,,,,,4,0,7,,,,,0,,,69,88
112864,note_off,,,,,64,0,7,,,,,0,,,69,100
112896,note_on,,,,,128,0,11,,,,,4,,,50,75
112896,note_on,,,,,32,0,7,,,,,0,,,78,92
112896,note_on,,,,,0,0,13,,,,,6,,,57,100
112896,note_on,,,,,128,0,14,,,,,6,,,50,100
112896,note_on,,,,,128,0,13,,,,,6,,,54,100
112988,note_off,,,,,92,0,7,,,,,0,,,78,100
112992,note_on,,,,,4,0,7,,,,,0,,,69,88
113084,note_off,,,,,92,0,7,,,,,0,,,69,100
113088,note_on,,,,,4,0,7,,,,,0,,,66,89
113152,note_off,,,,,0,0,13,,,,,6,,,57,100
113152,note_off,,,,,256,0,11,,,,,4,,,50,100
113152,note_off,,,,,256,0,13,,,,,6,,,54,100
113152,note_off,,,,,256,0,14,,,,,6,,,50,100
113180,note_off,,,,,92,0,7,,,,,0,,,66,100
113184,note_on,,,,,4,0,7,,,,,0,,,69,90
113248,note_off,,,,,64,0,7,,,,,0,,,69,100
113280,note_on,,,,,128,0,11,,,,,4,,,54,75
113280,note_on,,,,,128,0,14,,,,,6,,,54,100
113280,note_on,,,,,0,0,13,,,,,6,,,57,100
113280,note_on,,,,,128,0,13,,,,,6,,,62,100
113280,note_on,,,,,32,0,7,,,,,0,,,74,94
113372,note_off,,,,,92,0,7,,,,,0,,,74,100
113376,note_on,,,,,4,0,7,,,,,0,,,69,91
113468,note_off,,,,,92,0,7,,,,,0,,,69,100
113472,note_on,,,,,4,0,7,,,,,0,,,66,92
113536,note_off,,,,,256,0,14,,,,,6,,,54,100
113536,note_off,,,,,0,0,13,,,,,6,,,57,100
113536,note_off,,,,,256,0,13,,,,,6,,,62,100
113536,note_off,,,,,256,0,11,,,,,4,,,54,100
113564,note_off,,,,,92,0,7,,,,,0,,,66,100
113568,note_on,,,,,4,0,7,,,,,0,,,69,93
113632,note_off,,,,,64,0,7,,,,,0,,,69,100
113664,note_on,,,,,32,0,7,,,,,0,,,74,97
113664,note_on,,,,,0,0,13,,,,,6,,,57,100
113664,note_on,,,,,128,0,11,,,,,4,,,54,75
113664,note_on,,,,,128,0,13,,,,,6,,,62,100
113664,note_on,,,,,128,0,14,,,,,6,,,54,100
113756,note_off,,,,,92,0,7,,,,,0,,,74,100
113760,note_on,,,,,4,0,7,,,,,0,,,69,94
113852,note_off,,,,,92,0,7,,,,,0,,,69,100
113856,note_on,,,,,4,0,7,,,,,0,,,66,95
113920,note_off,,,,,256,0,14,,,,,6,,,54,100
113920,note_off,,,,,256,0,11,,,,,4,,,54,100
113920,note_off,,,,,256,0,13,,,,,6,,,62,100
113920,note_off,,,,,0,0,13,,,,,6,,,57,100
113948,note_off,,,,,92,0,7,,,,,0,,,66,100
113952,note_on,,,,,4,0,7,,,,,0,,,69,96
114016,note_off,,,,,64,0,7,,,,,0,,,69,100
114048,note_on,,,,,128,0,14,,,,,6,,,47,100
114048,note_on,,,,,128,0,11,,,,,4,,,47,75
114048,note_on,,,,,0,0,13,,,,,6,,,55,100
114048,note_on,,,,,0,0,13,,,,,6,,,62,100
114048,note_on,,,,,32,0,7,,,,,0,,,79,100
114048,note_on,,,,,128,0,13,,,,,6,,,59,100
114140,note_off,,,,,92,0,7,,,,,0,,,79,100
114144,note_on,,,,,4,0,7,,,,,0,,,74,96
114236,note_off,,,,,92,0,7,,,,,0,,,74,100
114240,note_on,,,,,4,0,7,,,,,0,,,71,96
114304,note_off,,,,,256,0,13,,,,,6,,,59,100
114304,note_off,,,,,0,0,13,,,,,6,,,62,100
114304,note_off,,,,,0,0,13,,,,,6,,,55,100
114304,note_off,,,,,256,0,14,,,,,6,,,47,100
114304,note_off,,,,,256,0,11,,,,,4,,,47,100
114332,note_off,,,,,92,0,7,,,,,0,,,71,100
114336,note_on,,,,,4,0,7,,,,,0,,,74,96
114400,note_off,,,,,64,0,7,,,,,0,,,74,100
114432,note_on,,,,,32,0,7,,,,,0,,,79,100
114524,note_off,,,,,92,0,7,,,,,0,,,79,100
114528,note_on,,,,,4,0,7,,,,,0,,,74,96
114620,note_off,,,,,92,0,7,,,,,0,,,74,100
114624,note_on,,,,,4,0,7,,,,,0,,,71,96
114716,note_off,,,,,92,0,7,,,,,0,,,71,100
114720,note_on,,,,,4,0,7,,,,,0,,,74,96
114784,note_off,,,,,64,0,7,,,,,0,,,74,100
114816,note_on,,,,,32,0,7,,,,,0,,,79,100
114908,note_off,,,,,92,0,7,,,,,0,,,79,100
114912,note_on,,,,,4,0,7,,,,,0,,,74,96
115004,note_off,,,,,92,0,7,,,,,0,,,74,100
115008,note_on,,,,,4,0,7,,,,,0,,,71,96
115100,note_off,,,,,92,0,7,,,,,0,,,71,100
115104,note_on,,,,,4,0,7,,,,,0,,,74,96
115168,note_off,,,,,64,0,7,,,,,0,,,74,100
115200,note_on,,,,,896,0,11,,,,,4,,,55,75
115200,note_on,,,,,32,0,7,,,,,0,,,83,100
115200,note_on,,,,,0,0,13,,,,,6,,,62,100
115200,note_on,,,,,896,0,14,,,,,6,,,55,100
115200,note_on,,,,,896,0,13,,,,,6,,,59,100
115292,note_off,,,,,92,0,7,,,,,0,,,83,100
115296,note_on,,,,,4,0,7,,,,,0,,,74,96
115388,note_off,,,,,92,0,7,,,,,0,,,74,100
115392,note_on,,,,,4,0,7,,,,,0,,,71,96
115456,note_off,,,,,256,0,14,,,,,6,,,55,100
115456,note_off,,,,,0,0,13,,,,,6,,,62,100
115456,note_off,,,,,256,0,11,,,,,4,,,55,100
115456,note_off,,,,,256,0,13,,,,,6,,,59,100
115484,note_off,,,,,92,0,7,,,,,0,,,71,100
115488,note_on,,,,,4,0,7,,,,,0,,,74,96
115552,note_off,,,,,64,0,7,,,,,0,,,74,100
115584,note_on,,,,,0,0,13,,,,,6,,,62,100
115584,note_on,,,,,128,0,11,,,,,4,,,59,75
115584,note_on,,,,,128,0,13,,,,,6,,,67,100
115584,note_on,,,,,128,0,14,,,,,6,,,59,100
115584,note_on,,,,,32,0,7,,,,,0,,,79,100
115676,note_off,,,,,92,0,7,,,,,0,,,79,100
115680,note_on,,,,,4,0,7,,,,,0,,,74,96
115772,note_off,,,,,92,0,7,,,,,0,,,74,100
115776,note_on,,,,,4,0,7,,,,,0,,,71,96
115840,note_off,,,,,256,0,14,,,,,6,,,59,100
115840,note_off,,,,,256,0,11,,,,,4,,,59,100
115840,note_off,,,,,256,0,13,,,,,6,,,67,100
115840,note_off,,,,,0,0,13,,,,,6,,,62,100
115868,note_off,,,,,92,0,7,,,,,0,,,71,100
115872,note_on,,,,,4,0,7,,,,,0,,,74,96
115936,note_off,,,,,64,0,7,,,,,0,,,74,100
115968,note_on,,,,,128,0,13,,,,,6,,,67,100
115968,note_on,,,,,128,0,14,,,,,6,,,59,100
115968,note_on,,,,,0,0,13,,,,,6,,,62,100
115968,note_on,,,,,32,0,7,,,,,0,,,79,100
115968,note_on,,,,,128,0,11,,,,,4,,,59,75
116060,note_off,,,,,92,0,7,,,,,0,,,79,100
116064,note_on,,,,,4,0,7,,,,,0,,,74,96
116156,note_off,,,,,92,0,7,,,,,0,,,74,100
116160,note_on,,,,,4,0,7,,,,,0,,,71,96
116224,note_off,,,,,256,0,14,,,,,6,,,59,100
116224,note_off,,,,,0,0,13,,,,,6,,,62,100
116224,note_off,,,,,256,0,11,,,,,4,,,59,100
116224,note_off,,,,,256,0,13,,,,,6,,,67,100
116252,note_off,,,,,92,0,7,,,,,0,,,71,100
116256,note_on,,,,,4,0,7,,,,,0,,,74,96
116320,note_off,,,,,64,0,7,,,,,0,,,74,100
116352,note_on,,,,,128,0,13,,,,,6,,,59,100
116352,note_on,,,,,32,0,7,,,,,0,,,83,100
116352,note_on,,,,,0,0,13,,,,,6,,,62,100
116352,note_on,,,,,128,0,14,,,,,6,,,55,100
116352,note_on,,,,,128,0,11,,,,,4,,,55,75
116444,note_off,,,,,92,0,7,,,,,0,,,83,100
116448,note_on,,,,,4,0,7,,,,,0,,,74,96
116540,note_off,,,,,92,0,7,,,,,0,,,74,100
116544,note_on,,,,,4,0,7,,,,,0,,,71,95
116608,note_off,,,,,0,0,13,,,,,6,,,62,100
116608,note_off,,,,,256,0,13,,,,,6,,,59,100
116608,note_off,,,,,256,0,11,,,,,4,,,55,100
116608,note_off,,,,,256,0,14,,,,,6,,,55,100
116636,note_off,,,,,92,0,7,,,,,0,,,71,100
116640,note_on,,,,,4,0,7,,,,,0,,,74,95
116704,note_off,,,,,64,0,7,,,,,0,,,74,100
116736,note_on,,,,,32,0,7,,,,,0,,,79,98
116736,note_on,,,,,128,0,11,,,,,4,,,59,75
116736,note_on,,,,,128,0,13,,,,,6,,,67,100
116736,note_on,,,,,0,0,13,,,,,6,,,62,100
116736,note_on,,,,,128,0,14,,,,,6,,,59,100
116828,note_off,,,,,92,0,7,,,,,0,,,79,100
116832,note_on,,,,,4,0,7,,,,,0,,,74,93
116924,note_off,,,,,92,0,7,,,,,0,,,74,100
116928,note_on,,,,,4,0,7,,,,,0,,,71,93
116992,note_off,,,,,256,0,13,,,,,6,,,67,100
116992,note_off,,,,,256,0,11,,,,,4,,,59,100
116992,note_off,,,,,256,0,14,,,,,6,,,59,100
116992,note_off,,,,,0,0,13,,,,,6,,,62,100
117020,note_off,,,,,92,0,7,,,,,0,,,71,100
117024,note_on,,,,,4,0,7,,,,,0,,,74,92
117088,note_off,,,,,64,0,7,,,,,0,,,74,100
117120,note_on,,,,,128,0,13,,,,,6,,,67,100
117120,note_on,,,,,128,0,11,,,,,4,,,59,75
117120,note_on,,,,,128,0,14,,,,,6,,,59,100
117120,note_on,,,,,32,0,7,,,,,0,,,79,95
117120,note_on,,,,,0,0,13,,,,,6,,,62,100
117212,note_off,,,,,92,0,7,,,,,0,,,79,100
117216,note_on,,,,,4,0,7,,,,,0,,,74,91
117308,note_off,,,,,92,0,7,,,,,0,,,74,100
117312,note_on,,,,,4,0,7,,,,,0,,,71,90
117376,note_off,,,,,256,0,11,,,,,4,,,59,100
117376,note_off,,,,,256,0,14,,,,,6,,,59,100
117376,note_off,,,,,0,0,13,,,,,6,,,62,100
117376,note_off,,,,,256,0,13,,,,,6,,,67,100
117404,note_off,,,,,92,0,7,,,,,0,,,71,100
117408,note_on,,,,,4,0,7,,,,,0,,,74,89
117472,note_off,,,,,64,0,7,,,,,0,,,74,100
117504,note_on,,,,,128,0,14,,,,,6,,,48,100
117504,note_on,,,,,0,0,13,,,,,6,,,60,100
117504,note_on,,,,,0,0,13,,,,,6,,,55,100
117504,note_on,,,,,128,0,13,,,,,6,,,64,100
117504,note_on,,,,,32,0,7,,,,,0,,,76,93
117504,note_on,,,,,128,0,11,,,,,4,,,48,75
117596,note_off,,,,,92,0,7,,,,,0,,,76,100
117600,note_on,,,,,4,0,7,,,,,0,,,72,88
117692,note_off,,,,,92,0,7,,,,,0,,,72,100
117696,note_on,,,,,4,0,7,,,,,0,,,71,88
117760,note_off,,,,,256,0,14,,,,,6,,,48,100
117760,note_off,,,,,256,0,11,,,,,4,,,48,100
117760,note_off,,,,,0,0,13,,,,,6,,,60,100
117760,note_off,,,,,0,0,13,,,,,6,,,55,100
117760,note_off,,,,,256,0,13,,,,,6,,,64,100
117788,note_off,,,,,92,0,7,,,,,0,,,71,100
117792,note_on,,,,,4,0,7,,,,,0,,,72,88
117856,note_off,,,,,64,0,7,,,,,0,,,72,100
117888,note_on,,,,,32,0,7,,,,,0,,,76,92
117980,note_off,,,,,92,0,7,,,,,0,,,76,100
117984,note_on,,,,,4,0,7,,,,,0,,,72,88
118076,note_off,,,,,92,0,7,,,,,0,,,72,100
118080,note_on,,,,,4,0,7,,,,,0,,,71,88
118172,note_off,,,,,92,0,7,,,,,0,,,71,100
118176,note_on,,,,,4,0,7,,,,,0,,,72,88
118240,note_off,,,,,64,0,7,,,,,0,,,72,100
118272,note_on,,,,,32,0,7,,,,,0,,,76,92
118364,note_off,,,,,92,0,7,,,,,0,,,76,100
118368,note_on,,,,,4,0,7,,,,,0,,,72,88
118460,note_off,,,,,92,0,7,,,,,0,,,72,100
118464,note_on,,,,,4,0,7,,,,,0,,,71,88
118556,note_off,,,,,92,0,7,,,,,0,,,71,100
118560,note_on,,,,,4,0,7,,,,,0,,,72,88
118624,note_off,,,,,64,0,7,,,,,0,,,72,100
118656,note_on,,,,,896,0,11,,,,,4,,,57,75
118656,note_on,,,,,896,0,14,,,,,6,,,57,100
118656,note_on,,,,,896,0,13,,,,,6,,,64,100
118656,note_on,,,,,0,0,13,,,,,6,,,60,100
118656,note_on,,,,,32,0,7,,,,,0,,,81,92
118748,note_off,,,,,92,0,7,,,,,0,,,81,100
118752,note_on,,,,,4,0,7,,,,,0,,,72,88
118844,note_off,,,,,92,0,7,,,,,0,,,72,100
118848,note_on,,,,,4,0,7,,,,,0,,,69,89
118912,note_off,,,,,0,0,13,,,,,6,,,60,100
118912,note_off,,,,,256,0,13,,,,,6,,,64,100
118912,note_off,,,,,256,0,14,,,,,6,,,57,100
118912,note_off,,,,,256,0,11,,,,,4,,,57,100
118940,note_off,,,,,92,0,7,,,,,0,,,69,100
118944,note_on,,,,,4,0,7,,,,,0,,,72,90
119008,note_off,,,,,64,0,7,,,,,0,,,72,100
119040,note_on,,,,,128,0,13,,,,,6,,,69,100
119040,note_on,,,,,0,0,13,,,,,6,,,64,100
119040,note_on,,,,,32,0,7,,,,,0,,,76,95
119040,note_on,,,,,128,0,14,,,,,6,,,60,100
119040,note_on,,,,,128,0,11,,,,,4,,,60,75
119132,note_off,,,,,92,0,7,,,,,0,,,76,100
119136,note_on,,,,,4,0,7,,,,,0,,,72,92
119228,note_off,,,,,92,0,7,,,,,0,,,72,100
119232,note_on,,,,,4,0,7,,,,,0,,,69,92
119296,note_off,,,,,256,0,13,,,,,6,,,69,100
119296,note_off,,,,,0,0,13,,,,,6,,,64,100
119296,note_off,,,,,256,0,14,,,,,6,,,60,100
119296,note_off,,,,,256,0,11,,,,,4,,,60,100
119324,note_off,,,,,92,0,7,,,,,0,,,69,100
119328,note_on,,,,,4,0,7,,,,,0,,,72,93
119392,note_off,,,,,64,0,7,,,,,0,,,72,100
119424,note_on,,,,,128,0,13,,,,,6,,,69,100
119424,note_on,,,,,0,0,13,,,,,6,,,64,100
119424,note_on,,,,,128,0,14,,,,,6,,,60,100
119424,note_on,,,,,128,0,11,,,,,4,,,60,75
119424,note_on,,,,,32,0,7,,,,,0,,,76,98
119516,note_off,,,,,92,0,7,,,,,0,,,76,100
119520,note_on,,,,,4,0,7,,,,,0,,,72,95
119612,note_off,,,,,92,0,7,,,,,0,,,72,100
119616,note_on,,,,,4,0,7,,,,,0,,,69,96
119680,note_off,,,,,256,0,11,,,,,4,,,60,100
119680,note_off,,,,,256,0,13,,,,,6,,,69,100
119680,note_off,,,,,256,0,14,,,,,6,,,60,100
119680,note_off,,,,,0,0,13,,,,,6,,,64,100
119708,note_off,,,,,92,0,7,,,,,0,,,69,100
119712,note_on,,,,,4,0,7,,,,,0,,,72,97
119776,note_off,,,,,64,0,7,,,,,0,,,72,100
119808,note_on,,,,,32,0,7,,,,,0,,,81,101
119808,note_on,,,,,128,0,14,,,,,6,,,48,100
119808,note_on,,,,,128,0,11,,,,,4,,,48,75
119808,note_on,,,,,128,0,13,,,,,6,,,57,100
119808,note_on,,,,,0,0,13,,,,,6,,,64,100
119996,note_off,,,,,188,0,7,,,,,0,,,81,100
120000,note_on,,,,,4,0,7,,,,,0,,,79,100
120064,note_off,,,,,256,0,14,,,,,6,,,48,100
120064,note_off,,,,,256,0,11,,,,,4,,,48,100
120064,note_off,,,,,0,0,13,,,,,6,,,64,100
120064,note_off,,,,,256,0,13,,,,,6,,,57,100
120128,note_off,,,,,128,0,7,,,,,0,,,79,100
120192,note_on,,,,,128,0,14,,,,,6,,,45,100
120192,note_on,,,,,0,0,13,,,,,6,,,60,100
120192,note_on,,,,,128,0,13,,,,,6,,,64,100
120192,note_on,,,,,64,0,7,,,,,0,,,78,100
120192,note_on,,,,,128,0,11,,,,,4,,,45,75
120380,note_off,,,,,188,0,7,,,,,0,,,78,100
120384,note_on,,,,,4,0,7,,,,,0,,,76,100
120448,note_off,,,,,0,0,13,,,,,6,,,60,100
120448,note_off,,,,,256,0,14,,,,,6,,,45,100
120448,note_off,,,,,256,0,13,,,,,6,,,64,100
120448,note_off,,,,,256,0,11,,,,,4,,,45,100
120512,note_off,,,,,128,0,7,,,,,0,,,76,100
120576,note_on,,,,,64,0,7,,,,,0,,,84,101
120576,note_on,,,,,128,0,13,,,,,6,,,64,100
120576,note_on,,,,,0,0,13,,,,,6,,,60,100
120576,note_on,,,,,128,0,14,,,,,6,,,45,100
120576,note_on,,,,,128,0,11,,,,,4,,,45,75
120676,note_off,,,,,100,0,7,,,,,0,,,84,100
120768,note_on,,,,,92,0,7,,,,,0,,,76,103
120832,note_off,,,,,256,0,14,,,,,6,,,45,100
120832,note_off,,,,,256,0,13,,,,,6,,,64,100
120832,note_off,,,,,256,0,11,,,,,4,,,45,100
120832,note_off,,,,,0,0,13,,,,,6,,,60,100
120868,note_off,,,,,100,0,7,,,,,0,,,76,100
120956,program_change,,,,,124,0,11,,,,,4,48,,,
120960,note_on,,,,,26240,0,12,,,,,5,,,35,100
120960,note_on,,,,,26240,0,10,,,,,3,,,66,100
120960,note_on,,,,,26240,0,16,,,,,7,,,47,100
120960,note_on,,,,,128,0,14,,,,,6,,,47,100
120960,note_on,,,,,26240,0,9,,,,,2,,,71,100
120960,note_on,,,,,128,0,13,,,,,6,,,66,100
120960,note_on,,,,,0,0,15,,,,,7,,,63,100
120960,note_on,,,,,0,0,15,,,,,7,,,66,100
120960,note_on,,,,,26240,0,15,,,,,7,,,71,100
120960,note_on,,,,,26240,0,8,,,,,1,,,75,100
120960,note_on,,,,,0,0,13,,,,,6,,,63,100
120960,note_on,,,,,4,0,11,,,,,4,,,47,100
120960,note_on,,,,,92,0,7,,,,,0,,,75,104
121060,note_off,,,,,100,0,14,,,,,6,,,47,100
121060,note_off,,,,,100,0,8,,,,,1,,,75,100
121060,note_off,,,,,100,0,10,,,,,3,,,66,100
121060,note_off,,,,,100,0,12,,,,,5,,,35,100
121060,note_off,,,,,100,0,11,,,,,4,,,47,100
121060,note_off,,,,,100,0,16,,,,,7,,,47,100
121088,note_off,,,,,0,0,15,,,,,7,,,66,100
121088,note_off,,,,,0,0,13,,,,,6,,,63,100
121088,note_off,,,,,128,0,13,,,,,6,,,66,100
121088,note_off,,,,,128,0,15,,,,,7,,,71,100
121088,note_off,,,,,0,0,15,,,,,7,,,63,100
121152,note_on,,,,,64,0,13,,,,,6,,,63,100
121152,note_on,,,,,0,0,13,,,,,6,,,66,100
121152,note_on,,,,,92,0,14,,,,,6,,,47,100
121152,note_on,,,,,92,0,16,,,,,7,,,47,100
121152,note_on,,,,,92,0,10,,,,,3,,,66,100
121152,note_on,,,,,92,0,12,,,,,5,,,35,100
121152,note_on,,,,,92,0,8,,,,,1,,,71,100
121152,note_on,,,,,0,0,15,,,,,7,,,66,100
121152,note_on,,,,,92,0,11,,,,,4,,,47,100
121152,note_on,,,,,64,0,15,,,,,7,,,63,100
121216,note_off,,,,,64,0,11,,,,,4,,,47,100
121216,note_off,,,,,64,0,12,,,,,5,,,35,100
121216,note_off,,,,,64,0,16,,,,,7,,,47,100
121216,note_off,,,,,64,0,14,,,,,6,,,47,100
121216,note_off,,,,,64,0,10,,,,,3,,,66,100
121216,note_off,,,,,256,0,9,,,,,2,,,71,100
121216,note_off,,,,,256,0,7,,,,,0,,,75,100
121244,note_off,,,,,92,0,15,,,,,7,,,63,100
121244,note_off,,,,,92,0,13,,,,,6,,,63,100
121248,note_on,,,,,4,0,15,,,,,7,,,64,100
121248,note_on,,,,,32,0,11,,,,,4,,,49,100
121248,note_on,,,,,4,0,13,,,,,6,,,64,100
121248,note_on,,,,,32,0,12,,,,,5,,,37,100
121248,note_on,,,,,32,0,16,,,,,7,,,49,100
121248,note_on,,,,,32,0,10,,,,,3,,,64,100
121248,note_on,,,,,32,0,14,,,,,6,,,49,100
121252,note_off,,,,,4,0,15,,,,,7,,,66,100
121252,note_off,,,,,4,0,13,,,,,6,,,66,100
121312,note_off,,,,,60,0,13,,,,,6,,,64,100
121312,note_off,,,,,64,0,16,,,,,7,,,49,100
121312,note_off,,,,,64,0,14,,,,,6,,,49,100
121312,note_off,,,,,64,0,11,,,,,4,,,49,100
121312,note_off,,,,,64,0,10,,,,,3,,,64,100
121312,note_off,,,,,60,0,15,,,,,7,,,64,100
121312,note_off,,,,,64,0,12,,,,,5,,,37,100
121344,note_on,,,,,32,0,11,,,,,4,,,51,100
121344,note_on,,,,,32,0,15,,,,,7,,,71,100
121344,note_on,,,,,0,0,15,,,,,7,,,66,100
121344,note_on,,,,,0,0,13,,,,,6,,,66,100
121344,note_on,,,,,32,0,13,,,,,6,,,71,100
121344,note_on,,,,,32,0,16,,,,,7,,,51,100
121344,note_on,,,,,32,0,10,,,,,3,,,66,100
121344,note_on,,,,,32,0,12,,,,,5,,,39,100
121344,note_on,,,,,32,0,14,,,,,6,,,51,100
121408,note_off,,,,,256,0,8,,,,,1,,,71,100
121444,note_off,,,,,100,0,15,,,,,7,,,71,100
121444,note_off,,,,,100,0,16,,,,,7,,,51,100
121444,note_off,,,,,100,0,14,,,,,6,,,51,100
121444,note_off,,,,,0,0,15,,,,,7,,,66,100
121444,note_off,,,,,100,0,11,,,,,4,,,51,100
121444,note_off,,,,,100,0,10,,,,,3,,,66,100
121444,note_off,,,,,100,0,12,,,,,5,,,39,100
121444,note_off,,,,,100,0,13,,,,,6,,,71,100
121444,note_off,,,,,0,0,13,,,,,6,,,66,100
121536,note_on,,,,,92,0,14,,,,,6,,,47,100
121536,note_on,,,,,92,0,10,,,,,3,,,63,100
121536,note_on,,,,,320,0,9,,,,,2,,,71,100
121536,note_on,,,,,92,0,16,,,,,7,,,47,100
121536,note_on,,,,,0,0,15,,,,,7,,,66,100
121536,note_on,,,,,92,0,13,,,,,6,,,63,100
121536,note_on,,,,,92,0,12,,,,,5,,,35,100
121536,note_on,,,,,92,0,15,,,,,7,,,63,100
121536,note_on,,,,,128,0,8,,,,,1,,,71,100
121536,note_on,,,,,0,0,13,,,,,6,,,66,100
121536,note_on,,,,,92,0,11,,,,,4,,,47,100
121636,note_off,,,,,100,0,13,,,,,6,,,63,100
121636,note_off,,,,,0,0,13,,,,,6,,,66,100
121636,note_off,,,,,100,0,9,,,,,2,,,71,100
121636,note_off,,,,,100,0,8,,,,,1,,,71,100
121636,note_off,,,,,0,0,15,,,,,7,,,66,100
121636,note_off,,,,,100,0,14,,,,,6,,,47,100
121636,note_off,,,,,100,0,10,,,,,3,,,63,100
121636,note_off,,,,,100,0,16,,,,,7,,,47,100
121636,note_off,,,,,100,0,11,,,,,4,,,47,100
121636,note_off,,,,,100,0,15,,,,,7,,,63,100
121636,note_off,,,,,100,0,12,,,,,5,,,35,100
121728,note_on,,,,,92,0,9,,,,,2,,,69,100
121728,note_on,,,,,92,0,8,,,,,1,,,72,100
121828,note_off,,,,,100,0,9,,,,,2,,,69,100
121828,note_off,,,,,100,0,8,,,,,1,,,72,100
121920,note_on,,,,,92,0,9,,,,,2,,,67,100
121920,note_on,,,,,92,0,8,,,,,1,,,71,100
122020,note_off,,,,,100,0,9,,,,,2,,,67,100
122020,note_off,,,,,100,0,8,,,,,1,,,71,100
122112,note_on,,,,,92,0,9,,,,,2,,,71,100
122112,note_on,,,,,92,0,8,,,,,1,,,76,100
122212,note_off,,,,,100,0,8,,,,,1,,,76,100
122304,note_on,,,,,668,0,15,,,,,7,,,67,100
122304,note_on,,,,,668,0,10,,,,,3,,,67,100
122304,note_on,,,,,668,0,12,,,,,5,,,40,100
122304,note_on,,,,,668,0,14,,,,,6,,,52,100
122304,note_on,,,,,0,0,15,,,,,7,,,71,100
122304,note_on,,,,,92,0,8,,,,,1,,,71,100
122304,note_on,,,,,668,0,11,,,,,4,,,52,100
122304,note_on,,,,,668,0,16,,,,,7,,,52,100
122304,note_on,,,,,668,0,13,,,,,6,,,67,100
122304,note_on,,,,,0,0,13,,,,,6,,,71,100
122368,note_off,,,,,64,0,11,,,,,4,,,52,100
122368,note_off,,,,,64,0,14,,,,,6,,,52,100
122368,note_off,,,,,256,0,9,,,,,2,,,71,100
122368,note_off,,,,,64,0,10,,,,,3,,,67,100
122368,note_off,,,,,64,0,12,,,,,5,,,40,100
122368,note_off,,,,,64,0,16,,,,,7,,,52,100
122396,note_off,,,,,92,0,15,,,,,7,,,67,100
122396,note_off,,,,,92,0,13,,,,,6,,,67,100
122400,note_on,,,,,32,0,10,,,,,3,,,69,100
122400,note_on,,,,,4,0,15,,,,,7,,,69,100
122400,note_on,,,,,32,0,11,,,,,4,,,54,100
122400,note_on,,,,,32,0,14,,,,,6,,,54,100
122400,note_on,,,,,4,0,13,,,,,6,,,69,100
122400,note_on,,,,,32,0,16,,,,,7,,,54,100
122400,note_on,,,,,32,0,12,,,,,5,,,42,100
122404,note_off,,,,,4,0,13,,,,,6,,,71,100
122404,note_off,,,,,4,0,15,,,,,7,,,71,100
122464,note_off,,,,,64,0,14,,,,,6,,,54,100
122464,note_off,,,,,64,0,10,,,,,3,,,69,100
122464,note_off,,,,,60,0,15,,,,,7,,,69,100
122464,note_off,,,,,64,0,16,,,,,7,,,54,100
122464,note_off,,,,,64,0,11,,,,,4,,,54,100
122464,note_off,,,,,64,0,12,,,,,5,,,42,100
122464,note_off,,,,,60,0,13,,,,,6,,,69,100
122496,note_on,,,,,32,0,11,,,,,4,,,55,100
122496,note_on,,,,,32,0,10,,,,,3,,,71,100
122496,note_on,,,,,32,0,15,,,,,7,,,76,100
122496,note_on,,,,,0,0,15,,,,,7,,,71,100
122496,note_on,,,,,0,0,13,,,,,6,,,71,100
122496,note_on,,,,,32,0,13,,,,,6,,,76,100
122496,note_on,,,,,32,0,14,,,,,6,,,55,100
122496,note_on,,,,,32,0,16,,,,,7,,,55,100
122496,note_on,,,,,32,0,12,,,,,5,,,43,100
122560,note_off,,,,,256,0,8,,,,,1,,,71,100
122596,note_off,,,,,100,0,15,,,,,7,,,76,100
122596,note_off,,,,,0,0,15,,,,,7,,,71,100
122596,note_off,,,,,100,0,11,,,,,4,,,55,100
122596,note_off,,,,,100,0,16,,,,,7,,,55,100
122596,note_off,,,,,100,0,12,,,,,5,,,43,100
122596,note_off,,,,,100,0,14,,,,,6,,,55,100
122596,note_off,,,,,100,0,13,,,,,6,,,76,100
122596,note_off,,,,,0,0,13,,,,,6,,,71,100
122596,note_off,,,,,100,0,10,,,,,3,,,71,100
122688,note_on,,,,,92,0,14,,,,,6,,,52,100
122688,note_on,,,,,320,0,9,,,,,2,,,71,100
122688,note_on,,,,,0,0,15,,,,,7,,,71,100
122688,note_on,,,,,92,0,11,,,,,4,,,52,100
122688,note_on,,,,,128,0,8,,,,,1,,,71,100
122688,note_on,,,,,92,0,12,,,,,5,,,40,100
122688,note_on,,,,,92,0,10,,,,,3,,,67,100
122688,note_on,,,,,0,0,13,,,,,6,,,71,100
122688,note_on,,,,,92,0,13,,,,,6,,,67,100
122688,note_on,,,,,92,0,16,,,,,7,,,52,100
122688,note_on,,,,,92,0,15,,,,,7,,,67,100
122788,note_off,,,,,100,0,9,,,,,2,,,71,100
122788,note_off,,,,,100,0,10,,,,,3,,,67,100
122788,note_off,,,,,100,0,8,,,,,1,,,71,100
122788,note_off,,,,,100,0,12,,,,,5,,,40,100
122788,note_off,,,,,0,0,15,,,,,7,,,71,100
122788,note_off,,,,,100,0,15,,,,,7,,,67,100
122788,note_off,,,,,100,0,11,,,,,4,,,52,100
122788,note_off,,,,,0,0,13,,,,,6,,,71,100
122788,note_off,,,,,100,0,13,,,,,6,,,67,100
122788,note_off,,,,,100,0,16,,,,,7,,,52,100
122788,note_off,,,,,100,0,14,,,,,6,,,52,100
122880,note_on,,,,,92,0,9,,,,,2,,,69,100
122880,note_on,,,,,92,0,8,,,,,1,,,72,100
122980,note_off,,,,,100,0,9,,,,,2,,,69,100
122980,note_off,,,,,100,0,8,,,,,1,,,72,100
123072,note_on,,,,,92,0,9,,,,,2,,,67,100
123072,note_on,,,,,92,0,8,,,,,1,,,71,100
123172,note_off,,,,,100,0,8,,,,,1,,,71,100
123172,note_off,,,,,100,0,9,,,,,2,,,67,100
123264,note_on,,,,,92,0,9,,,,,2,,,75,100
123264,note_on,,,,,92,0,8,,,,,1,,,78,100
123364,note_off,,,,,100,0,8,,,,,1,,,78,100
123456,note_on,,,,,0,0,13,,,,,6,,,66,100
123456,note_on,,,,,668,0,13,,,,,6,,,63,100
123456,note_on,,,,,668,0,15,,,,,7,,,63,100
123456,note_on,,,,,0,0,15,,,,,7,,,66,100
123456,note_on,,,,,668,0,16,,,,,7,,,47,100
123456,note_on,,,,,668,0,10,,,,,3,,,66,100
123456,note_on,,,,,668,0,14,,,,,6,,,47,100
123456,note_on,,,,,92,0,8,,,,,1,,,71,100
123456,note_on,,,,,668,0,12,,,,,5,,,35,100
123456,note_on,,,,,668,0,11,,,,,4,,,47,100
123520,note_off,,,,,64,0,14,,,,,6,,,47,100
123520,note_off,,,,,256,0,9,,,,,2,,,75,100
123520,note_off,,,,,64,0,12,,,,,5,,,35,100
123520,note_off,,,,,64,0,16,,,,,7,,,47,100
123520,note_off,,,,,64,0,10,,,,,3,,,66,100
123520,note_off,,,,,64,0,11,,,,,4,,,47,100
123548,note_off,,,,,92,0,15,,,,,7,,,63,100
123548,note_off,,,,,92,0,13,,,,,6,,,63,100
123552,note_on,,,,,32,0,14,,,,,6,,,49,100
123552,note_on,,,,,32,0,11,,,,,4,,,49,100
123552,note_on,,,,,32,0,12,,,,,5,,,37,100
123552,note_on,,,,,32,0,10,,,,,3,,,64,100
123552,note_on,,,,,4,0,15,,,,,7,,,64,100
123552,note_on,,,,,32,0,16,,,,,7,,,49,100
123552,note_on,,,,,4,0,13,,,,,6,,,64,100
123556,note_off,,,,,4,0,13,,,,,6,,,66,100
123556,note_off,,,,,4,0,15,,,,,7,,,66,100
123616,note_off,,,,,64,0,14,,,,,6,,,49,100
123616,note_off,,,,,64,0,10,,,,,3,,,64,100
123616,note_off,,,,,60,0,15,,,,,7,,,64,100
123616,note_off,,,,,64,0,11,,,,,4,,,49,100
123616,note_off,,,,,64,0,12,,,,,5,,,37,100
123616,note_off,,,,,64,0,16,,,,,7,,,49,100
123616,note_off,,,,,60,0,13,,,,,6,,,64,100
123648,note_on,,,,,32,0,12,,,,,5,,,39,100
123648,note_on,,,,,32,0,11,,,,,4,,,51,100
123648,note_on,,,,,32,0,14,,,,,6,,,51,100
123648,note_on,,,,,0,0,15,,,,,7,,,66,100
123648,note_on,,,,,32,0,10,,,,,3,,,66,100
123648,note_on,,,,,0,0,13,,,,,6,,,66,100
123648,note_on,,,,,32,0,16,,,,,7,,,51,100
123648,note_on,,,,,32,0,13,,,,,6,,,71,100
123648,note_on,,,,,32,0,15,,,,,7,,,71,100
123712,note_off,,,,,256,0,8,,,,,1,,,71,100
123748,note_off,,,,,0,0,15,,,,,7,,,66,100
123748,note_off,,,,,100,0,15,,,,,7,,,71,100
123748,note_off,,,,,0,0,13,,,,,6,,,66,100
123748,note_off,,,,,100,0,13,,,,,6,,,71,100
123748,note_off,,,,,100,0,12,,,,,5,,,39,100
123748,note_off,,,,,100,0,16,,,,,7,,,51,100
123748,note_off,,,,,100,0,10,,,,,3,,,66,100
123748,note_off,,,,,100,0,11,,,,,4,,,51,100
123748,note_off,,,,,100,0,14,,,,,6,,,51,100
123840,note_on,,,,,92,0,12,,,,,5,,,35,100
123840,note_on,,,,,92,0,14,,,,,6,,,47,100
123840,note_on,,,,,92,0,16,,,,,7,,,47,100
123840,note_on,,,,,92,0,11,,,,,4,,,47,100
123840,note_on,,,,,92,0,10,,,,,3,,,63,100
123840,note_on,,,,,128,0,8,,,,,1,,,71,100
123840,note_on,,,,,0,0,13,,,,,6,,,66,100
123840,note_on,,,,,92,0,15,,,,,7,,,63,100
123840,note_on,,,,,320,0,9,,,,,2,,,71,100
123840,note_on,,,,,92,0,13,,,,,6,,,63,100
123840,note_on,,,,,0,0,15,,,,,7,,,66,100
123940,note_off,,,,,100,0,12,,,,,5,,,35,100
123940,note_off,,,,,100,0,15,,,,,7,,,63,100
123940,note_off,,,,,0,0,15,,,,,7,,,66,100
123940,note_off,,,,,0,0,13,,,,,6,,,66,100
123940,note_off,,,,,100,0,14,,,,,6,,,47,100
123940,note_off,,,,,100,0,9,,,,,2,,,71,100
123940,note_off,,,,,100,0,11,,,,,4,,,47,100
123940,note_off,,,,,100,0,13,,,,,6,,,63,100
123940,note_off,,,,,100,0,16,,,,,7,,,47,100
123940,note_off,,,,,100,0,10,,,,,3,,,63,100
123940,note_off,,,,,100,0,8,,,,,1,,,71,100
124032,note_on,,,,,92,0,8,,,,,1,,,72,100
124032,note_on,,,,,92,0,9,,,,,2,,,69,100
124132,note_off,,,,,100,0,8,,,,,1,,,72,100
124132,note_off,,,,,100,0,9,,,,,2,,,69,100
124224,note_on,,,,,92,0,9,,,,,2,,,67,100
124224,note_on,,,,,92,0,8,,,,,1,,,71,100
124324,note_off,,,,,100,0,9,,,,,2,,,67,100
124324,note_off,,,,,100,0,8,,,,,1,,,71,100
124416,note_on,,,,,92,0,9,,,,,2,,,76,100
124416,note_on,,,,,92,0,8,,,,,1,,,79,100
124516,note_off,,,,,100,0,9,,,,,2,,,76,100
124516,note_off,,,,,100,0,8,,,,,1,,,79,100
124608,note_on,,,,,668,0,15,,,,,7,,,63,100
124608,note_on,,,,,668,0,10,,,,,3,,,66,100
124608,note_on,,,,,92,0,8,,,,,1,,,78,100
124608,note_on,,,,,0,0,15,,,,,7,,,66,100
124608,note_on,,,,,0,0,13,,,,,6,,,66,100
124608,note_on,,,,,668,0,13,,,,,6,,,63,100
124608,note_on,,,,,668,0,16,,,,,7,,,47,100
124608,note_on,,,,,92,0,9,,,,,2,,,75,100
124608,note_on,,,,,668,0,12,,,,,5,,,35,100
124608,note_on,,,,,668,0,11,,,,,4,,,47,100
124608,note_on,,,,,668,0,14,,,,,6,,,47,100
124672,note_off,,,,,64,0,12,,,,,5,,,35,100
124672,note_off,,,,,64,0,11,,,,,4,,,47,100
124672,note_off,,,,,64,0,16,,,,,7,,,47,100
124672,note_off,,,,,64,0,14,,,,,6,,,47,100
124672,note_off,,,,,64,0,10,,,,,3,,,66,100
124700,note_off,,,,,92,0,13,,,,,6,,,63,100
124700,note_off,,,,,92,0,15,,,,,7,,,63,100
124704,note_on,,,,,32,0,10,,,,,3,,,64,100
124704,note_on,,,,,32,0,14,,,,,6,,,49,100
124704,note_on,,,,,32,0,16,,,,,7,,,49,100
124704,note_on,,,,,4,0,15,,,,,7,,,64,100
124704,note_on,,,,,32,0,11,,,,,4,,,49,100
124704,note_on,,,,,4,0,13,,,,,6,,,64,100
124704,note_on,,,,,32,0,12,,,,,5,,,37,100
124708,note_off,,,,,4,0,13,,,,,6,,,66,100
124708,note_off,,,,,4,0,15,,,,,7,,,66,100
124768,note_off,,,,,64,0,12,,,,,5,,,37,100
124768,note_off,,,,,64,0,11,,,,,4,,,49,100
124768,note_off,,,,,64,0,10,,,,,3,,,64,100
124768,note_off,,,,,64,0,16,,,,,7,,,49,100
124768,note_off,,,,,64,0,14,,,,,6,,,49,100
124768,note_off,,,,,60,0,13,,,,,6,,,64,100
124768,note_off,,,,,60,0,15,,,,,7,,,64,100
124800,note_on,,,,,32,0,16,,,,,7,,,51,100
124800,note_on,,,,,32,0,14,,,,,6,,,51,100
124800,note_on,,,,,32,0,10,,,,,3,,,66,100
124800,note_on,,,,,32,0,12,,,,,5,,,39,100
124800,note_on,,,,,32,0,11,,,,,4,,,51,100
124800,note_on,,,,,0,0,13,,,,,6,,,66,100
124800,note_on,,,,,32,0,13,,,,,6,,,71,100
124800,note_on,,,,,32,0,15,,,,,7,,,71,100
124800,note_on,,,,,0,0,15,,,,,7,,,66,100
124864,note_off,,,,,256,0,8,,,,,1,,,78,100
124864,note_off,,,,,256,0,9,,,,,2,,,75,100
124900,note_off,,,,,100,0,16,,,,,7,,,51,100
124900,note_off,,,,,0,0,13,,,,,6,,,66,100
124900,note_off,,,,,100,0,13,,,,,6,,,71,100
124900,note_off,,,,,100,0,11,,,,,4,,,51,100
124900,note_off,,,,,100,0,15,,,,,7,,,71,100
124900,note_off,,,,,100,0,12,,,,,5,,,39,100
124900,note_off,,,,,100,0,10,,,,,3,,,66,100
124900,note_off,,,,,100,0,14,,,,,6,,,51,100
124900,note_off,,,,,0,0,15,,,,,7,,,66,100
124992,note_on,,,,,92,0,10,,,,,3,,,63,100
124992,note_on,,,,,92,0,13,,,,,6,,,63,100
124992,note_on,,,,,0,0,13,,,,,6,,,66,100
124992,note_on,,,,,92,0,14,,,,,6,,,47,100
124992,note_on,,,,,92,0,15,,,,,7,,,63,100
124992,note_on,,,,,128,0,8,,,,,1,,,71,100
124992,note_on,,,,,0,0,15,,,,,7,,,66,100
124992,note_on,,,,,92,0,12,,,,,5,,,35,100
124992,note_on,,,,,128,0,9,,,,,2,,,71,100
124992,note_on,,,,,92,0,16,,,,,7,,,47,100
124992,note_on,,,,,92,0,11,,,,,4,,,47,100
125092,note_off,,,,,100,0,10,,,,,3,,,63,100
125092,note_off,,,,,100,0,15,,,,,7,,,63,100
125092,note_off,,,,,0,0,13,,,,,6,,,66,100
125092,note_off,,,,,100,0,13,,,,,6,,,63,100
125092,note_off,,,,,100,0,8,,,,,1,,,71,100
125092,note_off,,,,,0,0,15,,,,,7,,,66,100
125092,note_off,,,,,100,0,12,,,,,5,,,35,100
125092,note_off,,,,,100,0,11,,,,,4,,,47,100
125092,note_off,,,,,100,0,9,,,,,2,,,71,100
125092,note_off,,,,,100,0,14,,,,,6,,,47,100
125092,note_off,,,,,100,0,16,,,,,7,,,47,100
125184,note_on,,,,,92,0,8,,,,,1,,,72,100
125184,note_on,,,,,92,0,9,,,,,2,,,69,100
125284,note_off,,,,,100,0,8,,,,,1,,,72,100
125284,note_off,,,,,100,0,9,,,,,2,,,69,100
125376,note_on,,,,,92,0,9,,,,,2,,,67,100
125376,note_on,,,,,92,0,8,,,,,1,,,71,100
125476,note_off,,,,,100,0,8,,,,,1,,,71,100
125476,note_off,,,,,100,0,9,,,,,2,,,67,100
125568,note_on,,,,,92,0,9,,,,,2,,,78,100
125568,note_on,,,,,92,0,8,,,,,1,,,81,100
125668,note_off,,,,,100,0,8,,,,,1,,,81,100
125668,note_off,,,,,100,0,9,,,,,2,,,78,100
125760,note_on,,,,,92,0,8,,,,,1,,,79,100
125760,note_on,,,,,92,0,9,,,,,2,,,76,100
125760,note_on,,,,,668,0,14,,,,,6,,,52,100
125760,note_on,,,,,668,0,13,,,,,6,,,67,100
125760,note_on,,,,,0,0,13,,,,,6,,,71,100
125760,note_on,,,,,668,0,16,,,,,7,,,52,100
125760,note_on,,,,,668,0,15,,,,,7,,,67,100
125760,note_on,,,,,0,0,15,,,,,7,,,71,100
125760,note_on,,,,,668,0,10,,,,,3,,,71,100
125760,note_on,,,,,668,0,11,,,,,4,,,52,100
125760,note_on,,,,,668,0,12,,,,,5,,,40,100
125824,note_off,,,,,64,0,12,,,,,5,,,40,100
125824,note_off,,,,,64,0,14,,,,,6,,,52,100
125824,note_off,,,,,64,0,10,,,,,3,,,71,100
125824,note_off,,,,,64,0,11,,,,,4,,,52,100
125824,note_off,,,,,64,0,16,,,,,7,,,52,100
125852,note_off,,,,,92,0,15,,,,,7,,,67,100
125852,note_off,,,,,92,0,13,,,,,6,,,67,100
125856,note_on,,,,,32,0,10,,,,,3,,,69,100
125856,note_on,,,,,32,0,14,,,,,6,,,54,100
125856,note_on,,,,,32,0,12,,,,,5,,,42,100
125856,note_on,,,,,4,0,15,,,,,7,,,69,100
125856,note_on,,,,,4,0,13,,,,,6,,,69,100
125856,note_on,,,,,32,0,16,,,,,7,,,54,100
125856,note_on,,,,,32,0,11,,,,,4,,,54,100
125860,note_off,,,,,4,0,13,,,,,6,,,71,100
125860,note_off,,,,,4,0,15,,,,,7,,,71,100
125920,note_off,,,,,64,0,11,,,,,4,,,54,100
125920,note_off,,,,,64,0,14,,,,,6,,,54,100
125920,note_off,,,,,60,0,13,,,,,6,,,69,100
125920,note_off,,,,,64,0,10,,,,,3,,,69,100
125920,note_off,,,,,60,0,15,,,,,7,,,69,100
125920,note_off,,,,,64,0,16,,,,,7,,,54,100
125920,note_off,,,,,64,0,12,,,,,5,,,42,100
125952,note_on,,,,,32,0,16,,,,,7,,,55,100
125952,note_on,,,,,32,0,12,,,,,5,,,43,100
125952,note_on,,,,,32,0,11,,,,,4,,,55,100
125952,note_on,,,,,0,0,15,,,,,7,,,71,100
125952,note_on,,,,,32,0,15,,,,,7,,,76,100
125952,note_on,,,,,32,0,14,,,,,6,,,55,100
125952,note_on,,,,,32,0,13,,,,,6,,,76,100
125952,note_on,,,,,0,0,13,,,,,6,,,71,100
125952,note_on,,,,,32,0,10,,,,,3,,,71,100
126016,note_off,,,,,256,0,9,,,,,2,,,76,100
126016,note_off,,,,,256,0,8,,,,,1,,,79,100
126052,note_off,,,,,0,0,15,,,,,7,,,71,100
126052,note_off,,,,,100,0,15,,,,,7,,,76,100
126052,note_off,,,,,100,0,10,,,,,3,,,71,100
126052,note_off,,,,,100,0,16,,,,,7,,,55,100
126052,note_off,,,,,100,0,12,,,,,5,,,43,100
126052,note_off,,,,,100,0,11,,,,,4,,,55,100
126052,note_off,,,,,0,0,13,,,,,6,,,71,100
126052,note_off,,,,,100,0,13,,,,,6,,,76,100
126052,note_off,,,,,100,0,14,,,,,6,,,55,100
126144,note_on,,,,,92,0,13,,,,,6,,,67,100
126144,note_on,,,,,0,0,13,,,,,6,,,71,100
126144,note_on,,,,,92,0,15,,,,,7,,,67,100
126144,note_on,,,,,92,0,11,,,,,4,,,52,100
126144,note_on,,,,,92,0,16,,,,,7,,,52,100
126144,note_on,,,,,92,0,12,,,,,5,,,40,100
126144,note_on,,,,,92,0,14,,,,,6,,,52,100
126144,note_on,,,,,92,0,10,,,,,3,,,67,100
126144,note_on,,,,,128,0,9,,,,,2,,,71,100
126144,note_on,,,,,128,0,8,,,,,1,,,71,100
126144,note_on,,,,,0,0,15,,,,,7,,,71,100
126244,note_off,,,,,100,0,12,,,,,5,,,40,100
126244,note_off,,,,,100,0,15,,,,,7,,,67,100
126244,note_off,,,,,100,0,9,,,,,2,,,71,100
126244,note_off,,,,,100,0,16,,,,,7,,,52,100
126244,note_off,,,,,0,0,13,,,,,6,,,71,100
126244,note_off,,,,,100,0,11,,,,,4,,,52,100
126244,note_off,,,,,0,0,15,,,,,7,,,71,100
126244,note_off,,,,,100,0,14,,,,,6,,,52,100
126244,note_off,,,,,100,0,13,,,,,6,,,67,100
126244,note_off,,,,,100,0,8,,,,,1,,,71,100
126244,note_off,,,,,100,0,10,,,,,3,,,67,100
126336,note_on,,,,,92,0,9,,,,,2,,,69,101
126336,note_on,,,,,92,0,8,,,,,1,,,72,101
126436,note_off,,,,,100,0,8,,,,,1,,,72,100
126436,note_off,,,,,100,0,9,,,,,2,,,69,100
126528,note_on,,,,,92,0,9,,,,,2,,,67,103
126528,note_on,,,,,92,0,8,,,,,1,,,71,103
126628,note_off,,,,,100,0,9,,,,,2,,,67,100
126628,note_off,,,,,100,0,8,,,,,1,,,71,100
126720,note_on,,,,,476,0,13,,,,,6,,,71,100
126720,note_on,,,,,476,0,16,,,,,7,,,52,100
126720,note_on,,,,,0,0,15,,,,,7,,,64,100
126720,note_on,,,,,0,0,15,,,,,7,,,67,100
126720,note_on,,,,,476,0,15,,,,,7,,,71,100
126720,note_on,,,,,476,0,10,,,,,3,,,67,105
126720,note_on,,,,,476,0,11,,,,,4,,,52,105
126720,note_on,,,,,92,0,8,,,,,1,,,83,105
126720,note_on,,,,,0,0,13,,,,,6,,,67,100
126720,note_on,,,,,0,0,13,,,,,6,,,64,100
126720,note_on,,,,,92,0,9,,,,,2,,,79,105
126720,note_on,,,,,476,0,14,,,,,6,,,52,100
126720,note_on,,,,,476,0,12,,,,,5,,,40,105
126848,note_off,,,,,128,0,8,,,,,1,,,83,100
126848,note_off,,,,,128,0,9,,,,,2,,,79,100
126912,note_on,,,,,64,0,9,,,,,2,,,78,100
126912,note_on,,,,,64,0,8,,,,,1,,,81,100
126976,note_off,,,,,64,0,9,,,,,2,,,78,100
126976,note_off,,,,,256,0,16,,,,,7,,,52,100
126976,note_off,,,,,256,0,10,,,,,3,,,67,100
126976,note_off,,,,,0,0,15,,,,,7,,,64,100
126976,note_off,,,,,256,0,14,,,,,6,,,52,100
126976,note_off,,,,,0,0,13,,,,,6,,,64,100
126976,note_off,,,,,0,0,13,,,,,6,,,67,100
126976,note_off,,,,,256,0,13,,,,,6,,,71,100
126976,note_off,,,,,256,0,12,,,,,5,,,40,100
126976,note_off,,,,,64,0,8,,,,,1,,,81,100
126976,note_off,,,,,256,0,15,,,,,7,,,71,100
126976,note_off,,,,,256,0,11,,,,,4,,,52,100
126976,note_off,,,,,0,0,15,,,,,7,,,67,100
127008,note_on,,,,,32,0,9,,,,,2,,,79,100
127008,note_on,,,,,32,0,8,,,,,1,,,79,100
127072,note_off,,,,,64,0,9,,,,,2,,,79,100
127072,note_off,,,,,64,0,8,,,,,1,,,79,100
127104,note_on,,,,,32,0,8,,,,,1,,,78,100
127104,note_on,,,,,32,0,9,,,,,2,,,81,100
127204,note_off,,,,,100,0,9,,,,,2,,,81,100
127204,note_off,,,,,100,0,8,,,,,1,,,78,100
127296,note_on,,,,,92,0,8,,,,,1,,,76,100
127296,note_on,,,,,92,0,9,,,,,2,,,79,100
127396,note_off,,,,,100,0,9,,,,,2,,,79,100
127396,note_off,,,,,100,0,8,,,,,1,,,76,100
127488,note_on,,,,,92,0,9,,,,,2,,,78,99
127488,note_on,,,,,92,0,8,,,,,1,,,75,99
127588,note_off,,,,,100,0,9,,,,,2,,,78,100
127588,note_off,,,,,100,0,8,,,,,1,,,75,100
127680,note_on,,,,,92,0,9,,,,,2,,,76,97
127680,note_on,,,,,92,0,8,,,,,1,,,76,97
127780,note_off,,,,,100,0,9,,,,,2,,,76,100
127780,note_off,,,,,100,0,8,,,,,1,,,76,100
127872,note_on,,,,,0,0,13,,,,,6,,,71,100
127872,note_on,,,,,896,0,10,,,,,3,,,66,96
127872,note_on,,,,,896,0,13,,,,,6,,,63,100
127872,note_on,,,,,896,0,16,,,,,7,,,47,100
127872,note_on,,,,,896,0,11,,,,,4,,,47,96
127872,note_on,,,,,0,0,13,,,,,6,,,66,100
127872,note_on,,,,,896,0,15,,,,,7,,,63,100
127872,note_on,,,,,0,0,15,,,,,7,,,66,100
127872,note_on,,,,,0,0,15,,,,,7,,,71,100
127872,note_on,,,,,6656,0,7,,,,,0,,,78,100
127872,note_on,,,,,92,0,9,,,,,2,,,75,96
127872,note_on,,,,,92,0,8,,,,,1,,,78,96
127872,note_on,,,,,896,0,12,,,,,5,,,35,96
127872,note_on,,,,,896,0,14,,,,,6,,,47,100
127936,note_off,,,,,64,0,7,,,,,0,,,78,100
127968,note_on,,,,,32,0,7,,,,,0,,,75,100
128032,note_off,,,,,64,0,7,,,,,0,,,75,100
128064,note_on,,,,,32,0,7,,,,,0,,,75,99
128128,note_off,,,,,256,0,9,,,,,2,,,75,100
128128,note_off,,,,,256,0,12,,,,,5,,,35,100
128128,note_off,,,,,0,0,15,,,,,7,,,71,100
128128,note_off,,,,,256,0,10,,,,,3,,,66,100
128128,note_off,,,,,256,0,16,,,,,7,,,47,100
128128,note_off,,,,,64,0,7,,,,,0,,,75,100
128128,note_off,,,,,256,0,11,,,,,4,,,47,100
128128,note_off,,,,,256,0,15,,,,,7,,,63,100
128128,note_off,,,,,0,0,13,,,,,6,,,71,100
128128,note_off,,,,,0,0,13,,,,,6,,,66,100
128128,note_off,,,,,0,0,15,,,,,7,,,66,100
128128,note_off,,,,,256,0,14,,,,,6,,,47,100
128128,note_off,,,,,256,0,13,,,,,6,,,63,100
128128,note_off,,,,,256,0,8,,,,,1,,,78,100
128160,note_on,,,,,32,0,7,,,,,0,,,71,98
128224,note_off,,,,,64,0,7,,,,,0,,,71,100
128256,note_on,,,,,32,0,7,,,,,0,,,71,97
128320,note_off,,,,,64,0,7,,,,,0,,,71,100
128352,note_on,,,,,32,0,7,,,,,0,,,66,96
128416,note_off,,,,,64,0,7,,,,,0,,,66,100
128448,note_on,,,,,32,0,7,,,,,0,,,66,95
128512,note_off,,,,,64,0,7,,,,,0,,,66,100
128544,note_on,,,,,32,0,7,,,,,0,,,63,94
128608,note_off,,,,,64,0,7,,,,,0,,,63,100
128640,note_on,,,,,32,0,7,,,,,0,,,63,93
128704,note_off,,,,,64,0,7,,,,,0,,,63,100
128736,note_on,,,,,32,0,7,,,,,0,,,59,93
128800,note_off,,,,,64,0,7,,,,,0,,,59,100
128832,note_on,,,,,32,0,7,,,,,0,,,59,92
128896,note_off,,,,,64,0,7,,,,,0,,,59,100
128928,note_on,,,,,32,0,7,,,,,0,,,63,92
128992,note_off,,,,,64,0,7,,,,,0,,,63,100
129024,note_on,,,,,32,0,7,,,,,0,,,63,93
129088,note_off,,,,,64,0,7,,,,,0,,,63,100
129120,note_on,,,,,32,0,7,,,,,0,,,66,93
129184,note_off,,,,,64,0,7,,,,,0,,,66,100
129216,note_on,,,,,32,0,7,,,,,0,,,66,94
129280,note_off,,,,,64,0,7,,,,,0,,,66,100
129312,note_on,,,,,32,0,7,,,,,0,,,71,94
129376,note_off,,,,,64,0,7,,,,,0,,,71,100
129408,note_on,,,,,32,0,7,,,,,0,,,71,95
129472,note_off,,,,,64,0,7,,,,,0,,,71,100
129504,note_on,,,,,32,0,7,,,,,0,,,75,95
129568,note_off,,,,,64,0,7,,,,,0,,,75,100
129600,note_on,,,,,32,0,7,,,,,0,,,75,96
129664,note_off,,,,,64,0,7,,,,,0,,,75,100
129696,note_on,,,,,32,0,7,,,,,0,,,78,97
129760,note_off,,,,,64,0,7,,,,,0,,,78,100
129792,note_on,,,,,32,0,7,,,,,0,,,78,97
129856,note_off,,,,,64,0,7,,,,,0,,,78,100
129888,note_on,,,,,32,0,7,,,,,0,,,81,98
129952,note_off,,,,,64,0,7,,,,,0,,,81,100
129984,note_on,,,,,32,0,7,,,,,0,,,81,98
130048,note_off,,,,,64,0,7,,,,,0,,,81,100
130080,note_on,,,,,32,0,7,,,,,0,,,80,99
130144,note_off,,,,,64,0,7,,,,,0,,,80,100
130176,note_on,,,,,2048,0,11,,,,,4,,,52,80
130176,note_on,,,,,0,0,13,,,,,6,,,76,100
130176,note_on,,,,,0,0,13,,,,,6,,,71,100
130176,note_on,,,,,2048,0,13,,,,,6,,,68,100
130176,note_on,,,,,32,0,7,,,,,0,,,80,100
130176,note_on,,,,,2048,0,14,,,,,6,,,52,100
130176,note_on,,,,,2048,0,8,,,,,1,,,80,80
130176,note_on,,,,,2048,0,16,,,,,7,,,52,100
130176,note_on,,,,,2048,0,12,,,,,5,,,40,80
130176,note_on,,,,,2048,0,9,,,,,2,,,76,80
130176,note_on,,,,,2048,0,15,,,,,7,,,68,100
130176,note_on,,,,,2048,0,10,,,,,3,,,71,80
130176,note_on,,,,,0,0,15,,,,,7,,,76,100
130176,note_on,,,,,0,0,15,,,,,7,,,71,100
130240,note_off,,,,,64,0,7,,,,,0,,,80,100
130272,note_on,,,,,32,0,7,,,,,0,,,76,99
130336,note_off,,,,,64,0,7,,,,,0,,,76,100
130368,note_on,,,,,32,0,7,,,,,0,,,76,98
130432,note_off,,,,,256,0,11,,,,,4,,,52,100
130432,note_off,,,,,256,0,10,,,,,3,,,71,100
130432,note_off,,,,,64,0,7,,,,,0,,,76,100
130432,note_off,,,,,0,0,13,,,,,6,,,76,100
130432,note_off,,,,,0,0,13,,,,,6,,,71,100
130432,note_off,,,,,256,0,13,,,,,6,,,68,100
130432,note_off,,,,,256,0,9,,,,,2,,,76,100
130432,note_off,,,,,256,0,16,,,,,7,,,52,100
130432,note_off,,,,,0,0,15,,,,,7,,,76,100
130432,note_off,,,,,0,0,15,,,,,7,,,71,100
130432,note_off,,,,,256,0,12,,,,,5,,,40,100
130432,note_off,,,,,256,0,8,,,,,1,,,80,100
130432,note_off,,,,,256,0,14,,,,,6,,,52,100
130432,note_off,,,,,256,0,15,,,,,7,,,68,100
130464,note_on,,,,,32,0,7,,,,,0,,,71,97
130528,note_off,,,,,64,0,7,,,,,0,,,71,100
130560,note_on,,,,,32,0,7,,,,,0,,,71,96
130624,note_off,,,,,64,0,7,,,,,0,,,71,100
130656,note_on,,,,,32,0,7,,,,,0,,,68,95
130720,note_off,,,,,64,0,7,,,,,0,,,68,100
130752,note_on,,,,,32,0,7,,,,,0,,,68,94
130816,note_off,,,,,64,0,7,,,,,0,,,68,100
130848,note_on,,,,,32,0,7,,,,,0,,,64,93
130912,note_off,,,,,64,0,7,,,,,0,,,64,100
130944,note_on,,,,,32,0,7,,,,,0,,,64,92
131008,note_off,,,,,64,0,7,,,,,0,,,64,100
131040,note_on,,,,,32,0,7,,,,,0,,,68,92
131104,note_off,,,,,64,0,7,,,,,0,,,68,100
131136,note_on,,,,,32,0,7,,,,,0,,,68,93
131200,note_off,,,,,64,0,7,,,,,0,,,68,100
131232,note_on,,,,,32,0,7,,,,,0,,,71,93
131296,note_off,,,,,64,0,7,,,,,0,,,71,100
131328,note_on,,,,,32,0,7,,,,,0,,,71,94
131392,note_off,,,,,64,0,7,,,,,0,,,71,100
131424,note_on,,,,,32,0,7,,,,,0,,,76,95
131488,note_off,,,,,64,0,7,,,,,0,,,76,100
131520,note_on,,,,,32,0,7,,,,,0,,,76,95
131584,note_off,,,,,64,0,7,,,,,0,,,76,100
131616,note_on,,,,,32,0,7,,,,,0,,,80,96
131680,note_off,,,,,64,0,7,,,,,0,,,80,100
131712,note_on,,,,,32,0,7,,,,,0,,,80,96
131776,note_off,,,,,64,0,7,,,,,0,,,80,100
131808,note_on,,,,,32,0,7,,,,,0,,,83,97
131872,note_off,,,,,64,0,7,,,,,0,,,83,100
131904,note_on,,,,,32,0,7,,,,,0,,,83,98
131968,note_off,,,,,64,0,7,,,,,0,,,83,100
132000,note_on,,,,,32,0,7,,,,,0,,,86,98
132064,note_off,,,,,64,0,7,,,,,0,,,86,100
132096,note_on,,,,,32,0,7,,,,,0,,,86,99
132160,note_off,,,,,64,0,7,,,,,0,,,86,100
132192,note_on,,,,,32,0,7,,,,,0,,,83,100
132256,note_off,,,,,64,0,7,,,,,0,,,83,100
132288,note_on,,,,,32,0,7,,,,,0,,,83,100
132352,note_off,,,,,64,0,7,,,,,0,,,83,100
132384,note_on,,,,,32,0,7,,,,,0,,,85,101
132448,note_off,,,,,64,0,7,,,,,0,,,85,100
132480,note_on,,,,,0,0,15,,,,,7,,,73,100
132480,note_on,,,,,2048,0,8,,,,,1,,,81,80
132480,note_on,,,,,2048,0,12,,,,,5,,,33,80
132480,note_on,,,,,2048,0,10,,,,,3,,,73,80
132480,note_on,,,,,2048,0,9,,,,,2,,,76,80
132480,note_on,,,,,2048,0,15,,,,,7,,,76,100
132480,note_on,,,,,2048,0,14,,,,,6,,,45,100
132480,note_on,,,,,2048,0,16,,,,,7,,,45,100
132480,note_on,,,,,0,0,15,,,,,7,,,69,100
132480,note_on,,,,,0,0,13,,,,,6,,,69,100
132480,note_on,,,,,0,0,13,,,,,6,,,73,100
132480,note_on,,,,,2048,0,11,,,,,4,,,45,80
132480,note_on,,,,,32,0,7,,,,,0,,,85,101
132480,note_on,,,,,2048,0,13,,,,,6,,,76,100
132544,note_off,,,,,64,0,7,,,,,0,,,85,100
132576,note_on,,,,,32,0,7,,,,,0,,,69,100
132640,note_off,,,,,64,0,7,,,,,0,,,69,100
132672,note_on,,,,,32,0,7,,,,,0,,,69,99
132736,note_off,,,,,256,0,9,,,,,2,,,76,100
132736,note_off,,,,,0,0,13,,,,,6,,,69,100
132736,note_off,,,,,256,0,11,,,,,4,,,45,100
132736,note_off,,,,,256,0,10,,,,,3,,,73,100
132736,note_off,,,,,256,0,8,,,,,1,,,81,100
132736,note_off,,,,,256,0,12,,,,,5,,,33,100
132736,note_off,,,,,0,0,13,,,,,6,,,73,100
132736,note_off,,,,,256,0,16,,,,,7,,,45,100
132736,note_off,,,,,256,0,15,,,,,7,,,76,100
132736,note_off,,,,,0,0,15,,,,,7,,,73,100
132736,note_off,,,,,0,0,15,,,,,7,,,69,100
132736,note_off,,,,,64,0,7,,,,,0,,,69,100
132736,note_off,,,,,256,0,14,,,,,6,,,45,100
132736,note_off,,,,,256,0,13,,,,,6,,,76,100
132768,note_on,,,,,32,0,7,,,,,0,,,64,98
132832,note_off,,,,,64,0,7,,,,,0,,,64,100
132864,note_on,,,,,32,0,7,,,,,0,,,64,97
132928,note_off,,,,,64,0,7,,,,,0,,,64,100
132960,note_on,,,,,32,0,7,,,,,0,,,61,95
133024,note_off,,,,,64,0,7,,,,,0,,,61,100
133056,note_on,,,,,32,0,7,,,,,0,,,61,94
133120,note_off,,,,,64,0,7,,,,,0,,,61,100
133152,note_on,,,,,32,0,7,,,,,0,,,57,93
133216,note_off,,,,,64,0,7,,,,,0,,,57,100
133248,note_on,,,,,32,0,7,,,,,0,,,57,92
133312,note_off,,,,,64,0,7,,,,,0,,,57,100
133344,note_on,,,,,32,0,7,,,,,0,,,61,92
133408,note_off,,,,,64,0,7,,,,,0,,,61,100
133440,note_on,,,,,32,0,7,,,,,0,,,61,92
133504,note_off,,,,,64,0,7,,,,,0,,,61,100
133536,note_on,,,,,32,0,7,,,,,0,,,64,93
133600,note_off,,,,,64,0,7,,,,,0,,,64,100
133632,note_on,,,,,32,0,7,,,,,0,,,64,93
133696,note_off,,,,,64,0,7,,,,,0,,,64,100
133728,note_on,,,,,32,0,7,,,,,0,,,69,94
133792,note_off,,,,,64,0,7,,,,,0,,,69,100
133824,note_on,,,,,32,0,7,,,,,0,,,69,94
133888,note_off,,,,,64,0,7,,,,,0,,,69,100
133920,note_on,,,,,32,0,7,,,,,0,,,73,95
133984,note_off,,,,,64,0,7,,,,,0,,,73,100
134016,note_on,,,,,32,0,7,,,,,0,,,73,95
134080,note_off,,,,,64,0,7,,,,,0,,,73,100
134112,note_on,,,,,32,0,7,,,,,0,,,76,96
134176,note_off,,,,,64,0,7,,,,,0,,,76,100
134208,note_on,,,,,32,0,7,,,,,0,,,76,96
134272,note_off,,,,,64,0,7,,,,,0,,,76,100
134304,note_on,,,,,32,0,7,,,,,0,,,79,97
134368,note_off,,,,,64,0,7,,,,,0,,,79,100
134400,note_on,,,,,32,0,7,,,,,0,,,79,97
134464,note_off,,,,,64,0,7,,,,,0,,,79,100
134496,note_on,,,,,32,0,7,,,,,0,,,76,98
134560,note_off,,,,,64,0,7,,,,,0,,,76,100
134592,note_on,,,,,32,0,7,,,,,0,,,76,98
134656,note_off,,,,,64,0,7,,,,,0,,,76,100
134688,note_on,,,,,32,0,7,,,,,0,,,78,99
134752,note_off,,,,,64,0,7,,,,,0,,,78,100
134784,note_on,,,,,2048,0,10,,,,,3,,,69,80
134784,note_on,,,,,0,0,15,,,,,7,,,74,100
134784,note_on,,,,,0,0,15,,,,,7,,,69,100
134784,note_on,,,,,2048,0,15,,,,,7,,,66,100
134784,note_on,,,,,0,0,13,,,,,6,,,69,100
134784,note_on,,,,,2048,0,13,,,,,6,,,66,100
134784,note_on,,,,,2048,0,11,,,,,4,,,50,80
134784,note_on,,,,,2048,0,8,,,,,1,,,78,80
134784,note_on,,,,,2048,0,16,,,,,7,,,50,100
134784,note_on,,,,,2048,0,12,,,,,5,,,38,80
134784,note_on,,,,,2048,0,9,,,,,2,,,74,80
134784,note_on,,,,,2048,0,14,,,,,6,,,50,100
134784,note_on,,,,,32,0,7,,,,,0,,,78,100
134784,note_on,,,,,0,0,13,,,,,6,,,74,100
134848,note_off,,,,,64,0,7,,,,,0,,,78,100
134880,note_on,,,,,32,0,7,,,,,0,,,74,99
134944,note_off,,,,,64,0,7,,,,,0,,,74,100
134976,note_on,,,,,32,0,7,,,,,0,,,74,98
135040,note_off,,,,,256,0,11,,,,,4,,,50,100
135040,note_off,,,,,0,0,15,,,,,7,,,74,100
135040,note_off,,,,,256,0,9,,,,,2,,,74,100
135040,note_off,,,,,256,0,14,,,,,6,,,50,100
135040,note_off,,,,,0,0,13,,,,,6,,,74,100
135040,note_off,,,,,0,0,13,,,,,6,,,69,100
135040,note_off,,,,,256,0,16,,,,,7,,,50,100
135040,note_off,,,,,256,0,12,,,,,5,,,38,100
135040,note_off,,,,,64,0,7,,,,,0,,,74,100
135040,note_off,,,,,256,0,10,,,,,3,,,69,100
135040,note_off,,,,,0,0,15,,,,,7,,,69,100
135040,note_off,,,,,256,0,15,,,,,7,,,66,100
135040,note_off,,,,,256,0,13,,,,,6,,,66,100
135040,note_off,,,,,256,0,8,,,,,1,,,78,100
135072,note_on,,,,,32,0,7,,,,,0,,,69,97
135136,note_off,,,,,64,0,7,,,,,0,,,69,100
135168,note_on,,,,,32,0,7,,,,,0,,,69,96
135232,note_off,,,,,64,0,7,,,,,0,,,69,100
135264,note_on,,,,,32,0,7,,,,,0,,,66,95
135328,note_off,,,,,64,0,7,,,,,0,,,66,100
135360,note_on,,,,,32,0,7,,,,,0,,,66,94
135424,note_off,,,,,64,0,7,,,,,0,,,66,100
135456,note_on,,,,,32,0,7,,,,,0,,,62,93
135520,note_off,,,,,64,0,7,,,,,0,,,62,100
135552,note_on,,,,,32,0,7,,,,,0,,,62,92
135616,note_off,,,,,64,0,7,,,,,0,,,62,100
135648,note_on,,,,,32,0,7,,,,,0,,,66,92
135712,note_off,,,,,64,0,7,,,,,0,,,66,100
135744,note_on,,,,,32,0,7,,,,,0,,,66,93
135808,note_off,,,,,64,0,7,,,,,0,,,66,100
135840,note_on,,,,,32,0,7,,,,,0,,,69,93
135904,note_off,,,,,64,0,7,,,,,0,,,69,100
135936,note_on,,,,,32,0,7,,,,,0,,,69,94
136000,note_off,,,,,64,0,7,,,,,0,,,69,100
136032,note_on,,,,,32,0,7,,,,,0,,,72,95
136096,note_off,,,,,64,0,7,,,,,0,,,72,100
136128,note_on,,,,,32,0,7,,,,,0,,,72,95
136192,note_off,,,,,64,0,7,,,,,0,,,72,100
136224,note_on,,,,,32,0,7,,,,,0,,,78,96
136288,note_off,,,,,64,0,7,,,,,0,,,78,100
136320,note_on,,,,,32,0,7,,,,,0,,,78,96
136384,note_off,,,,,64,0,7,,,,,0,,,78,100
136416,note_on,,,,,32,0,7,,,,,0,,,81,97
136480,note_off,,,,,64,0,7,,,,,0,,,81,100
136512,note_on,,,,,32,0,7,,,,,0,,,81,98
136576,note_off,,,,,64,0,7,,,,,0,,,81,100
136608,note_on,,,,,32,0,7,,,,,0,,,84,98
136672,note_off,,,,,64,0,7,,,,,0,,,84,100
136704,note_on,,,,,32,0,7,,,,,0,,,84,99
136768,note_off,,,,,64,0,7,,,,,0,,,84,100
136800,note_on,,,,,32,0,7,,,,,0,,,81,100
136864,note_off,,,,,64,0,7,,,,,0,,,81,100
136896,note_on,,,,,32,0,7,,,,,0,,,81,100
136960,note_off,,,,,64,0,7,,,,,0,,,81,100
136992,note_on,,,,,32,0,7,,,,,0,,,83,101
137056,note_off,,,,,64,0,7,,,,,0,,,83,100
137088,note_on,,,,,32,0,7,,,,,0,,,83,101
137088,note_on,,,,,2048,0,8,,,,,1,,,79,80
137088,note_on,,,,,0,0,13,,,,,6,,,67,100
137088,note_on,,,,,0,0,13,,,,,6,,,71,100
137088,note_on,,,,,2048,0,13,,,,,6,,,74,100
137088,note_on,,,,,2048,0,12,,,,,5,,,31,80
137088,note_on,,,,,0,0,15,,,,,7,,,67,100
137088,note_on,,,,,2048,0,16,,,,,7,,,43,100
137088,note_on,,,,,2048,0,14,,,,,6,,,43,100
137088,note_on,,,,,2048,0,10,,,,,3,,,71,80
137088,note_on,,,,,2048,0,11,,,,,4,,,43,80
137088,note_on,,,,,0,0,15,,,,,7,,,71,100
137088,note_on,,,,,2048,0,9,,,,,2,,,74,80
137088,note_on,,,,,2048,0,15,,,,,7,,,74,100
137152,note_off,,,,,64,0,7,,,,,0,,,83,100
137184,note_on,,,,,32,0,7,,,,,0,,,67,100
137248,note_off,,,,,64,0,7,,,,,0,,,67,100
137280,note_on,,,,,32,0,7,,,,,0,,,67,99
137344,note_off,,,,,256,0,11,,,,,4,,,43,100
137344,note_off,,,,,64,0,7,,,,,0,,,67,100
137344,note_off,,,,,256,0,8,,,,,1,,,79,100
137344,note_off,,,,,256,0,16,,,,,7,,,43,100
137344,note_off,,,,,256,0,14,,,,,6,,,43,100
137344,note_off,,,,,256,0,10,,,,,3,,,71,100
137344,note_off,,,,,256,0,9,,,,,2,,,74,100
137344,note_off,,,,,0,0,13,,,,,6,,,67,100
137344,note_off,,,,,256,0,13,,,,,6,,,74,100
137344,note_off,,,,,0,0,15,,,,,7,,,67,100
137344,note_off,,,,,0,0,15,,,,,7,,,71,100
137344,note_off,,,,,256,0,15,,,,,7,,,74,100
137344,note_off,,,,,256,0,12,,,,,5,,,31,100
137344,note_off,,,,,0,0,13,,,,,6,,,71,100
137376,note_on,,,,,32,0,7,,,,,0,,,62,98
137440,note_off,,,,,64,0,7,,,,,0,,,62,100
137472,note_on,,,,,32,0,7,,,,,0,,,62,97
137536,note_off,,,,,64,0,7,,,,,0,,,62,100
137568,note_on,,,,,32,0,7,,,,,0,,,59,95
137632,note_off,,,,,64,0,7,,,,,0,,,59,100
137664,note_on,,,,,32,0,7,,,,,0,,,59,94
137728,note_off,,,,,64,0,7,,,,,0,,,59,100
137760,note_on,,,,,32,0,7,,,,,0,,,55,93
137824,note_off,,,,,64,0,7,,,,,0,,,55,100
137856,note_on,,,,,32,0,7,,,,,0,,,55,92
137920,note_off,,,,,64,0,7,,,,,0,,,55,100
137952,note_on,,,,,32,0,7,,,,,0,,,59,92
138016,note_off,,,,,64,0,7,,,,,0,,,59,100
138048,note_on,,,,,32,0,7,,,,,0,,,59,92
138112,note_off,,,,,64,0,7,,,,,0,,,59,100
138144,note_on,,,,,32,0,7,,,,,0,,,62,93
138208,note_off,,,,,64,0,7,,,,,0,,,62,100
138240,note_on,,,,,32,0,7,,,,,0,,,62,93
138304,note_off,,,,,64,0,7,,,,,0,,,62,100
138336,note_on,,,,,32,0,7,,,,,0,,,65,94
138400,note_off,,,,,64,0,7,,,,,0,,,65,100
138432,note_on,,,,,32,0,7,,,,,0,,,65,94
138496,note_off,,,,,64,0,7,,,,,0,,,65,100
138528,note_on,,,,,32,0,7,,,,,0,,,71,95
138592,note_off,,,,,64,0,7,,,,,0,,,71,100
138624,note_on,,,,,32,0,7,,,,,0,,,71,95
138688,note_off,,,,,64,0,7,,,,,0,,,71,100
138720,note_on,,,,,32,0,7,,,,,0,,,74,96
138784,note_off,,,,,64,0,7,,,,,0,,,74,100
138816,note_on,,,,,32,0,7,,,,,0,,,74,96
138880,note_off,,,,,64,0,7,,,,,0,,,74,100
138912,note_on,,,,,32,0,7,,,,,0,,,77,97
138976,note_off,,,,,64,0,7,,,,,0,,,77,100
139008,note_on,,,,,32,0,7,,,,,0,,,77,97
139072,note_off,,,,,64,0,7,,,,,0,,,77,100
139104,note_on,,,,,32,0,7,,,,,0,,,74,98
139168,note_off,,,,,64,0,7,,,,,0,,,74,100
139200,note_on,,,,,32,0,7,,,,,0,,,74,98
139264,note_off,,,,,64,0,7,,,,,0,,,74,100
139296,note_on,,,,,32,0,7,,,,,0,,,76,99
139360,note_off,,,,,64,0,7,,,,,0,,,76,100
139392,note_on,,,,,32,0,7,,,,,0,,,76,100
139392,note_on,,,,,0,0,13,,,,,6,,,67,100
139392,note_on,,,,,0,0,13,,,,,6,,,72,100
139392,note_on,,,,,2048,0,9,,,,,2,,,72,80
139392,note_on,,,,,2048,0,13,,,,,6,,,64,100
139392,note_on,,,,,2048,0,16,,,,,7,,,48,100
139392,note_on,,,,,2048,0,14,,,,,6,,,48,100
139392,note_on,,,,,2048,0,12,,,,,5,,,36,80
139392,note_on,,,,,0,0,15,,,,,7,,,72,100
139392,note_on,,,,,2048,0,10,,,,,3,,,67,80
139392,note_on,,,,,2048,0,11,,,,,4,,,48,80
139392,note_on,,,,,2048,0,8,,,,,1,,,76,80
139392,note_on,,,,,0,0,15,,,,,7,,,67,100
139392,note_on,,,,,2048,0,15,,,,,7,,,64,100
139456,note_off,,,,,64,0,7,,,,,0,,,76,100
139488,note_on,,,,,32,0,7,,,,,0,,,72,99
139552,note_off,,,,,64,0,7,,,,,0,,,72,100
139584,note_on,,,,,32,0,7,,,,,0,,,72,98
139648,note_off,,,,,256,0,9,,,,,2,,,72,100
139648,note_off,,,,,256,0,8,,,,,1,,,76,100
139648,note_off,,,,,256,0,11,,,,,4,,,48,100
139648,note_off,,,,,256,0,10,,,,,3,,,67,100
139648,note_off,,,,,256,0,13,,,,,6,,,64,100
139648,note_off,,,,,256,0,14,,,,,6,,,48,100
139648,note_off,,,,,0,0,13,,,,,6,,,67,100
139648,note_off,,,,,0,0,15,,,,,7,,,72,100
139648,note_off,,,,,0,0,15,,,,,7,,,67,100
139648,note_off,,,,,256,0,12,,,,,5,,,36,100
139648,note_off,,,,,256,0,16,,,,,7,,,48,100
139648,note_off,,,,,256,0,15,,,,,7,,,64,100
139648,note_off,,,,,64,0,7,,,,,0,,,72,100
139648,note_off,,,,,0,0,13,,,,,6,,,72,100
139680,note_on,,,,,32,0,7,,,,,0,,,67,97
139744,note_off,,,,,64,0,7,,,,,0,,,67,100
139776,note_on,,,,,32,0,7,,,,,0,,,67,96
139840,note_off,,,,,64,0,7,,,,,0,,,67,100
139872,note_on,,,,,32,0,7,,,,,0,,,64,95
139936,note_off,,,,,64,0,7,,,,,0,,,64,100
139968,note_on,,,,,32,0,7,,,,,0,,,64,94
140032,note_off,,,,,64,0,7,,,,,0,,,64,100
140064,note_on,,,,,32,0,7,,,,,0,,,60,93
140128,note_off,,,,,64,0,7,,,,,0,,,60,100
140160,note_on,,,,,32,0,7,,,,,0,,,60,92
140224,note_off,,,,,64,0,7,,,,,0,,,60,100
140256,note_on,,,,,32,0,7,,,,,0,,,64,92
140320,note_off,,,,,64,0,7,,,,,0,,,64,100
140352,note_on,,,,,32,0,7,,,,,0,,,64,93
140416,note_off,,,,,64,0,7,,,,,0,,,64,100
140448,note_on,,,,,32,0,7,,,,,0,,,67,93
140512,note_off,,,,,64,0,7,,,,,0,,,67,100
140544,note_on,,,,,32,0,7,,,,,0,,,67,94
140608,note_off,,,,,64,0,7,,,,,0,,,67,100
140640,note_on,,,,,32,0,7,,,,,0,,,72,95
140704,note_off,,,,,64,0,7,,,,,0,,,72,100
140736,note_on,,,,,32,0,7,,,,,0,,,72,95
140800,note_off,,,,,64,0,7,,,,,0,,,72,100
140832,note_on,,,,,32,0,7,,,,,0,,,76,96
140896,note_off,,,,,64,0,7,,,,,0,,,76,100
140928,note_on,,,,,32,0,7,,,,,0,,,76,96
140992,note_off,,,,,64,0,7,,,,,0,,,76,100
141024,note_on,,,,,32,0,7,,,,,0,,,79,97
141088,note_off,,,,,64,0,7,,,,,0,,,79,100
141120,note_on,,,,,32,0,7,,,,,0,,,79,98
141184,note_off,,,,,64,0,7,,,,,0,,,79,100
141216,note_on,,,,,32,0,7,,,,,0,,,84,98
141280,note_off,,,,,64,0,7,,,,,0,,,84,100
141312,note_on,,,,,32,0,7,,,,,0,,,84,99
141376,note_off,,,,,64,0,7,,,,,0,,,84,100
141408,note_on,,,,,32,0,7,,,,,0,,,76,100
141472,note_off,,,,,64,0,7,,,,,0,,,76,100
141504,note_on,,,,,32,0,7,,,,,0,,,76,100
141568,note_off,,,,,64,0,7,,,,,0,,,76,100
141600,note_on,,,,,32,0,7,,,,,0,,,75,101
141664,note_off,,,,,64,0,7,,,,,0,,,75,100
141696,note_on,,,,,0,0,15,,,,,7,,,71,100
141696,note_on,,,,,2048,0,13,,,,,6,,,63,100
141696,note_on,,,,,0,0,13,,,,,6,,,66,100
141696,note_on,,,,,0,0,13,,,,,6,,,71,100
141696,note_on,,,,,0,0,15,,,,,7,,,66,100
141696,note_on,,,,,2048,0,8,,,,,1,,,78,80
141696,note_on,,,,,2048,0,14,,,,,6,,,47,100
141696,note_on,,,,,2048,0,10,,,,,3,,,71,80
141696,note_on,,,,,32,0,7,,,,,0,,,75,101
141696,note_on,,,,,2048,0,9,,,,,2,,,75,80
141696,note_on,,,,,2048,0,16,,,,,7,,,47,100
141696,note_on,,,,,2048,0,12,,,,,5,,,35,80
141696,note_on,,,,,2048,0,11,,,,,4,,,47,80
141696,note_on,,,,,2048,0,15,,,,,7,,,63,100
141884,note_off,,,,,188,0,7,,,,,0,,,75,100
141888,note_on,,,,,4,0,7,,,,,0,,,69,100
141952,note_off,,,,,256,0,13,,,,,6,,,63,100
141952,note_off,,,,,0,0,13,,,,,6,,,66,100
141952,note_off,,,,,0,0,13,,,,,6,,,71,100
141952,note_off,,,,,256,0,14,,,,,6,,,47,100
141952,note_off,,,,,256,0,12,,,,,5,,,35,100
141952,note_off,,,,,0,0,15,,,,,7,,,66,100
141952,note_off,,,,,256,0,11,,,,,4,,,47,100
141952,note_off,,,,,256,0,16,,,,,7,,,47,100
141952,note_off,,,,,256,0,9,,,,,2,,,75,100
141952,note_off,,,,,256,0,10,,,,,3,,,71,100
141952,note_off,,,,,256,0,15,,,,,7,,,63,100
141952,note_off,,,,,0,0,15,,,,,7,,,71,100
141952,note_off,,,,,256,0,8,,,,,1,,,78,100
142076,note_off,,,,,188,0,7,,,,,0,,,69,100
142080,note_on,,,,,4,0,7,,,,,0,,,75,99
142268,note_off,,,,,188,0,7,,,,,0,,,75,100
142272,note_on,,,,,4,0,7,,,,,0,,,78,98
142460,note_off,,,,,188,0,7,,,,,0,,,78,100
142464,note_on,,,,,4,0,7,,,,,0,,,81,96
142592,note_off,,,,,128,0,7,,,,,0,,,81,100
142656,note_on,,,,,64,0,7,,,,,0,,,84,95
142784,note_off,,,,,128,0,7,,,,,0,,,84,100
142848,note_on,,,,,64,0,7,,,,,0,,,75,90
142848,note_on,,,,,896,0,11,,,,,4,,,47,70
142848,note_on,,,,,0,0,15,,,,,7,,,71,100
142848,note_on,,,,,0,0,15,,,,,7,,,66,100
142848,note_on,,,,,896,0,16,,,,,7,,,47,100
142848,note_on,,,,,896,0,13,,,,,6,,,63,100
142848,note_on,,,,,896,0,9,,,,,2,,,75,70
142848,note_on,,,,,896,0,15,,,,,7,,,63,100
142848,note_on,,,,,896,0,10,,,,,3,,,71,70
142848,note_on,,,,,0,0,13,,,,,6,,,71,100
142848,note_on,,,,,0,0,13,,,,,6,,,66,100
142848,note_on,,,,,896,0,8,,,,,1,,,78,70
142848,note_on,,,,,896,0,12,,,,,5,,,35,70
142848,note_on,,,,,896,0,14,,,,,6,,,47,100
143036,note_off,,,,,188,0,7,,,,,0,,,75,100
143040,note_on,,,,,4,0,7,,,,,0,,,69,90
143104,note_off,,,,,256,0,14,,,,,6,,,47,100
143104,note_off,,,,,256,0,8,,,,,1,,,78,100
143104,note_off,,,,,0,0,15,,,,,7,,,71,100
143104,note_off,,,,,0,0,15,,,,,7,,,66,100
143104,note_off,,,,,256,0,15,,,,,7,,,63,100
143104,note_off,,,,,256,0,10,,,,,3,,,71,100
143104,note_off,,,,,256,0,9,,,,,2,,,75,100
143104,note_off,,,,,256,0,16,,,,,7,,,47,100
143104,note_off,,,,,256,0,12,,,,,5,,,35,100
143104,note_off,,,,,256,0,11,,,,,4,,,47,100
143104,note_off,,,,,0,0,13,,,,,6,,,71,100
143104,note_off,,,,,256,0,13,,,,,6,,,63,100
143104,note_off,,,,,0,0,13,,,,,6,,,66,100
143228,note_off,,,,,188,0,7,,,,,0,,,69,100
143232,note_on,,,,,4,0,7,,,,,0,,,75,89
143420,note_off,,,,,188,0,7,,,,,0,,,75,100
143424,note_on,,,,,4,0,7,,,,,0,,,78,88
143612,note_off,,,,,188,0,7,,,,,0,,,78,100
143616,note_on,,,,,4,0,7,,,,,0,,,81,86
143744,note_off,,,,,128,0,7,,,,,0,,,81,100
143808,note_on,,,,,64,0,7,,,,,0,,,84,85
143936,note_off,,,,,128,0,7,,,,,0,,,84,100
144000,note_on,,,,,896,0,11,,,,,4,,,52,80
144000,note_on,,,,,896,0,16,,,,,7,,,52,100
144000,note_on,,,,,896,0,12,,,,,5,,,40,80
144000,note_on,,,,,896,0,9,,,,,2,,,76,80
144000,note_on,,,,,0,0,15,,,,,7,,,67,100
144000,note_on,,,,,896,0,8,,,,,1,,,79,80
144000,note_on,,,,,0,0,15,,,,,7,,,64,100
144000,note_on,,,,,0,0,13,,,,,6,,,64,100
144000,note_on,,,,,896,0,15,,,,,7,,,71,100
144000,note_on,,,,,896,0,14,,,,,6,,,52,100
144000,note_on,,,,,0,0,13,,,,,6,,,67,100
144000,note_on,,,,,896,0,13,,,,,6,,,71,100
144000,note_on,,,,,896,0,10,,,,,3,,,71,80
144000,note_on,,,,,64,0,7,,,,,0,,,83,100
144124,note_off,,,,,124,0,7,,,,,0,,,83,100
144128,note_on,,,,,4,0,7,,,,,0,,,88,100
144252,note_off,,,,,124,0,7,,,,,0,,,88,100
144256,note_off,,,,,256,0,13,,,,,6,,,71,100
144256,note_off,,,,,0,0,13,,,,,6,,,67,100
144256,note_off,,,,,256,0,15,,,,,7,,,71,100
144256,note_off,,,,,0,0,15,,,,,7,,,67,100
144256,note_off,,,,,0,0,15,,,,,7,,,64,100
144256,note_off,,,,,0,0,13,,,,,6,,,64,100
144256,note_off,,,,,256,0,11,,,,,4,,,52,100
144256,note_off,,,,,256,0,16,,,,,7,,,52,100
144256,note_off,,,,,256,0,9,,,,,2,,,76,100
144256,note_off,,,,,256,0,12,,,,,5,,,40,100
144256,note_off,,,,,256,0,10,,,,,3,,,71,100
144256,note_off,,,,,256,0,14,,,,,6,,,52,100
144256,note_on,,,,,4,0,7,,,,,0,,,86,99
144256,note_off,,,,,256,0,8,,,,,1,,,79,100
144380,note_off,,,,,124,0,7,,,,,0,,,86,100
144384,note_on,,,,,4,0,7,,,,,0,,,84,98
144508,note_off,,,,,124,0,7,,,,,0,,,84,100
144512,note_on,,,,,4,0,7,,,,,0,,,83,97
144636,note_off,,,,,124,0,7,,,,,0,,,83,100
144640,note_on,,,,,4,0,7,,,,,0,,,81,96
144764,note_off,,,,,124,0,7,,,,,0,,,81,100
144768,program_change,,,,,512,0,11,,,,,4,42,,,
144768,note_on,,,,,4,0,7,,,,,0,,,79,95
144892,note_off,,,,,124,0,7,,,,,0,,,79,100
144896,note_on,,,,,4,0,7,,,,,0,,,78,94
145020,note_off,,,,,124,0,7,,,,,0,,,78,100
145024,note_on,,,,,4,0,7,,,,,0,,,76,93
145108,note_off,,,,,84,0,7,,,,,0,,,76,100
145152,note_on,,,,,896,0,14,,,,,6,,,52,100
145152,note_on,,,,,44,0,7,,,,,0,,,83,95
145152,note_on,,,,,0,0,13,,,,,6,,,64,100
145152,note_on,,,,,0,0,13,,,,,6,,,67,100
145152,note_on,,,,,896,0,13,,,,,6,,,71,100
145152,note_on,,,,,384,0,11,,,,,4,,,52,80
145276,note_off,,,,,124,0,7,,,,,0,,,83,100
145280,note_on,,,,,4,0,7,,,,,0,,,88,95
145404,note_off,,,,,124,0,7,,,,,0,,,88,100
145408,note_off,,,,,256,0,11,,,,,4,,,52,100
145408,note_on,,,,,4,0,7,,,,,0,,,86,94
145408,note_off,,,,,256,0,14,,,,,6,,,52,100
145408,note_off,,,,,0,0,13,,,,,6,,,67,100
145408,note_off,,,,,0,0,13,,,,,6,,,64,100
145408,note_off,,,,,256,0,13,,,,,6,,,71,100
145532,note_off,,,,,124,0,7,,,,,0,,,86,100
145536,note_on,,,,,4,0,7,,,,,0,,,84,93
145660,note_off,,,,,124,0,7,,,,,0,,,84,100
145664,note_on,,,,,4,0,7,,,,,0,,,83,92
145788,note_off,,,,,124,0,7,,,,,0,,,83,100
145792,note_on,,,,,4,0,7,,,,,0,,,81,91
145916,note_off,,,,,124,0,7,,,,,0,,,81,100
145920,note_on,,,,,4,0,7,,,,,0,,,79,90
146044,note_off,,,,,124,0,7,,,,,0,,,79,100
146048,note_on,,,,,4,0,7,,,,,0,,,78,89
146172,note_off,,,,,124,0,7,,,,,0,,,78,100
146176,note_on,,,,,4,0,7,,,,,0,,,76,88
146260,note_off,,,,,84,0,7,,,,,0,,,76,100
146304,note_on,,,,,896,0,11,,,,,4,,,57,80
146304,note_on,,,,,896,0,14,,,,,6,,,57,100
146304,note_on,,,,,44,0,7,,,,,0,,,85,95
146304,note_on,,,,,0,0,13,,,,,6,,,73,100
146304,note_on,,,,,896,0,13,,,,,6,,,76,100
146688,note_off,,,,,384,0,7,,,,,0,,,85,100
146880,note_on,,,,,192,0,7,,,,,0,,,87,95
146916,note_off,,,,,612,0,13,,,,,6,,,76,100
146972,note_off,,,,,92,0,7,,,,,0,,,87,100
146976,note_on,,,,,4,0,7,,,,,0,,,85,96
147040,note_off,,,,,64,0,7,,,,,0,,,85,100
147072,note_on,,,,,32,0,7,,,,,0,,,87,98
147072,note_on,,,,,156,0,13,,,,,6,,,78,100
147164,note_off,,,,,92,0,7,,,,,0,,,87,100
147168,note_on,,,,,4,0,7,,,,,0,,,85,99
147224,note_off,,,,,152,0,13,,,,,6,,,73,100
147224,note_off,,,,,920,0,11,,,,,4,,,57,100
147224,note_off,,,,,920,0,14,,,,,6,,,57,100
147232,note_off,,,,,64,0,7,,,,,0,,,85,100
147264,note_on,,,,,32,0,7,,,,,0,,,83,101
147356,note_off,,,,,92,0,7,,,,,0,,,83,100
147360,note_on,,,,,4,0,7,,,,,0,,,85,103
147424,note_off,,,,,64,0,7,,,,,0,,,85,100
147456,note_on,,,,,232,0,13,,,,,6,,,75,100
147456,note_on,,,,,232,0,11,,,,,4,,,59,80
147456,note_on,,,,,232,0,14,,,,,6,,,59,100
147456,note_on,,,,,32,0,7,,,,,0,,,87,104
147712,note_off,,,,,0,0,13,,,,,6,,,75,100
147712,note_off,,,,,256,0,13,,,,,6,,,78,100
147840,note_off,,,,,384,0,7,,,,,0,,,87,100
147840,note_on,,,,,128,0,13,,,,,6,,,71,100
147840,note_on,,,,,0,0,13,,,,,6,,,63,100
148032,note_on,,,,,192,0,7,,,,,0,,,88,98
148068,note_off,,,,,612,0,11,,,,,4,,,59,100
148068,note_off,,,,,612,0,14,,,,,6,,,59,100
148124,note_off,,,,,92,0,7,,,,,0,,,88,100
148128,note_on,,,,,4,0,7,,,,,0,,,87,99
148192,note_off,,,,,64,0,7,,,,,0,,,87,100
148224,note_on,,,,,32,0,7,,,,,0,,,88,100
148224,note_on,,,,,156,0,11,,,,,4,,,57,80
148224,note_on,,,,,156,0,14,,,,,6,,,57,100
148316,note_off,,,,,92,0,7,,,,,0,,,88,100
148320,note_on,,,,,4,0,7,,,,,0,,,87,102
148384,note_off,,,,,64,0,7,,,,,0,,,87,100
148416,note_on,,,,,32,0,7,,,,,0,,,85,103
148480,note_off,,,,,256,0,11,,,,,4,,,57,100
148480,note_off,,,,,256,0,14,,,,,6,,,57,100
148508,note_off,,,,,92,0,7,,,,,0,,,85,100
148512,note_on,,,,,4,0,7,,,,,0,,,87,105
148576,note_off,,,,,64,0,7,,,,,0,,,87,100
148604,note_off,,,,,764,0,13,,,,,6,,,63,100
148608,note_on,,,,,128,0,11,,,,,4,,,55,84
148608,note_on,,,,,128,0,14,,,,,6,,,55,100
148608,note_on,,,,,4,0,13,,,,,6,,,64,100
148608,note_on,,,,,32,0,7,,,,,0,,,88,106
148736,note_off,,,,,128,0,11,,,,,4,,,55,100
148736,note_off,,,,,128,0,13,,,,,6,,,71,100
148736,note_off,,,,,0,0,13,,,,,6,,,64,100
148736,note_off,,,,,128,0,7,,,,,0,,,88,100
148736,note_off,,,,,128,0,14,,,,,6,,,55,100
148800,note_on,,,,,64,0,7,,,,,0,,,76,100
148800,note_on,,,,,64,0,11,,,,,4,,,52,87
148800,note_on,,,,,64,0,13,,,,,6,,,71,100
148800,note_on,,,,,0,0,13,,,,,6,,,67,100
148800,note_on,,,,,64,0,14,,,,,6,,,52,100
148900,note_off,,,,,100,0,7,,,,,0,,,76,100
148928,note_off,,,,,128,0,11,,,,,4,,,52,100
148928,note_off,,,,,0,0,13,,,,,6,,,67,100
148928,note_off,,,,,128,0,14,,,,,6,,,52,100
148928,note_off,,,,,128,0,13,,,,,6,,,71,100
148992,note_on,,,,,64,0,14,,,,,6,,,59,100
148992,note_on,,,,,64,0,13,,,,,6,,,66,100
148992,note_on,,,,,0,0,13,,,,,6,,,75,100
148992,note_on,,,,,92,0,7,,,,,0,,,79,105
148992,note_on,,,,,64,0,11,,,,,4,,,59,89
149084,note_off,,,,,92,0,7,,,,,0,,,79,100
149088,note_on,,,,,4,0,7,,,,,0,,,78,105
149132,note_off,,,,,44,0,7,,,,,0,,,78,100
149136,note_on,,,,,4,0,7,,,,,0,,,79,105
149180,note_off,,,,,44,0,7,,,,,0,,,79,100
149184,note_on,,,,,4,0,7,,,,,0,,,78,104
149228,note_off,,,,,44,0,7,,,,,0,,,78,100
149232,note_on,,,,,4,0,7,,,,,0,,,79,104
149248,note_off,,,,,0,0,13,,,,,6,,,75,100
149248,note_off,,,,,256,0,13,,,,,6,,,66,100
149248,note_off,,,,,256,0,11,,,,,4,,,59,100
149248,note_off,,,,,256,0,14,,,,,6,,,59,100
149276,note_off,,,,,44,0,7,,,,,0,,,79,100
149280,note_on,,,,,4,0,7,,,,,0,,,78,104
149324,note_off,,,,,44,0,7,,,,,0,,,78,100
149328,note_on,,,,,4,0,7,,,,,0,,,79,103
149372,note_off,,,,,44,0,7,,,,,0,,,79,100
149376,note_on,,,,,128,0,11,,,,,4,,,47,94
149376,note_on,,,,,0,0,13,,,,,6,,,66,100
149376,note_on,,,,,128,0,13,,,,,6,,,63,100
149376,note_on,,,,,128,0,14,,,,,6,,,47,100
149376,note_on,,,,,4,0,7,,,,,0,,,78,103
149376,note_on,,,,,0,0,13,,,,,6,,,71,100
149476,note_off,,,,,100,0,7,,,,,0,,,78,100
149568,note_on,,,,,92,0,7,,,,,0,,,76,102
149632,note_off,,,,,0,0,13,,,,,6,,,66,100
149632,note_off,,,,,256,0,13,,,,,6,,,63,100
149632,note_off,,,,,256,0,11,,,,,4,,,47,100
149632,note_off,,,,,256,0,14,,,,,6,,,47,100
149632,note_off,,,,,0,0,13,,,,,6,,,71,100
149668,note_off,,,,,100,0,7,,,,,0,,,76,100
149756,program_change,,,,,124,0,11,,,,,4,48,,,
149760,note_on,,,,,5504,0,12,,,,,5,,,40,100
149760,note_on,,,,,5504,0,10,,,,,3,,,67,100
149760,note_on,,,,,5504,0,16,,,,,7,,,52,100
149760,note_on,,,,,4,0,11,,,,,4,,,52,99
149760,note_on,,,,,0,0,15,,,,,7,,,67,100
149760,note_on,,,,,128,0,14,,,,,6,,,52,100
149760,note_on,,,,,0,0,15,,,,,7,,,71,100
149760,note_on,,,,,128,0,13,,,,,6,,,64,100
149760,note_on,,,,,5504,0,9,,,,,2,,,71,100
149760,note_on,,,,,5504,0,8,,,,,1,,,76,100
149760,note_on,,,,,0,0,13,,,,,6,,,71,100
149760,note_on,,,,,92,0,7,,,,,0,,,76,101
149760,note_on,,,,,0,0,13,,,,,6,,,67,100
149760,note_on,,,,,5504,0,15,,,,,7,,,64,100
149860,note_off,,,,,100,0,8,,,,,1,,,76,100
149860,note_off,,,,,100,0,12,,,,,5,,,40,100
149860,note_off,,,,,100,0,10,,,,,3,,,67,100
149860,note_off,,,,,100,0,11,,,,,4,,,52,100
149888,note_off,,,,,0,0,15,,,,,7,,,71,100
149888,note_off,,,,,128,0,13,,,,,6,,,64,100
149888,note_off,,,,,128,0,14,,,,,6,,,52,100
149888,note_off,,,,,0,0,15,,,,,7,,,67,100
149888,note_off,,,,,0,0,13,,,,,6,,,71,100
149888,note_off,,,,,0,0,13,,,,,6,,,67,100
149888,note_off,,,,,128,0,16,,,,,7,,,52,100
149888,note_off,,,,,128,0,15,,,,,7,,,64,100
149952,note_on,,,,,64,0,13,,,,,6,,,67,100
149952,note_on,,,,,92,0,12,,,,,5,,,40,100
149952,note_on,,,,,92,0,8,,,,,1,,,71,100
149952,note_on,,,,,0,0,13,,,,,6,,,71,100
149952,note_on,,,,,64,0,14,,,,,6,,,52,100
149952,note_on,,,,,92,0,11,,,,,4,,,52,100
149952,note_on,,,,,64,0,15,,,,,7,,,67,100
149952,note_on,,,,,64,0,16,,,,,7,,,52,100
149952,note_on,,,,,0,0,15,,,,,7,,,71,100
149952,note_on,,,,,92,0,10,,,,,3,,,67,100
150016,note_off,,,,,64,0,11,,,,,4,,,52,100
150016,note_off,,,,,64,0,12,,,,,5,,,40,100
150016,end_of_track,,,,,0,1,7,,,,,,,,,
150016,note_off,,,,,256,0,7,,,,,0,,,76,100
150016,note_off,,,,,64,0,14,,,,,6,,,52,100
150016,note_off,,,,,64,0,10,,,,,3,,,67,100
150016,note_off,,,,,64,0,16,,,,,7,,,52,100
150016,note_off,,,,,256,0,9,,,,,2,,,71,100
150044,note_off,,,,,92,0,13,,,,,6,,,67,100
150044,note_off,,,,,92,0,15,,,,,7,,,67,100
150048,note_on,,,,,32,0,10,,,,,3,,,69,100
150048,note_on,,,,,32,0,16,,,,,7,,,54,100
150048,note_on,,,,,4,0,13,,,,,6,,,69,100
150048,note_on,,,,,32,0,11,,,,,4,,,54,100
150048,note_on,,,,,32,0,12,,,,,5,,,42,100
150048,note_on,,,,,32,0,14,,,,,6,,,54,100
150048,note_on,,,,,4,0,15,,,,,7,,,69,100
150052,note_off,,,,,4,0,13,,,,,6,,,71,100
150052,note_off,,,,,4,0,15,,,,,7,,,71,100
150112,note_off,,,,,64,0,16,,,,,7,,,54,100
150112,note_off,,,,,64,0,10,,,,,3,,,69,100
150112,note_off,,,,,64,0,14,,,,,6,,,54,100
150112,note_off,,,,,60,0,13,,,,,6,,,69,100
150112,note_off,,,,,64,0,11,,,,,4,,,54,100
150112,note_off,,,,,64,0,12,,,,,5,,,42,100
150112,note_off,,,,,60,0,15,,,,,7,,,69,100
150144,note_on,,,,,32,0,14,,,,,6,,,55,100
150144,note_on,,,,,0,0,13,,,,,6,,,71,100
150144,note_on,,,,,32,0,15,,,,,7,,,76,100
150144,note_on,,,,,32,0,13,,,,,6,,,76,100
150144,note_on,,,,,32,0,12,,,,,5,,,43,100
150144,note_on,,,,,32,0,11,,,,,4,,,55,100
150144,note_on,,,,,32,0,16,,,,,7,,,55,100
150144,note_on,,,,,0,0,15,,,,,7,,,71,100
150144,note_on,,,,,32,0,10,,,,,3,,,71,100
150208,note_off,,,,,256,0,8,,,,,1,,,71,100
150244,note_off,,,,,100,0,11,,,,,4,,,55,100
150244,note_off,,,,,0,0,15,,,,,7,,,71,100
150244,note_off,,,,,100,0,15,,,,,7,,,76,100
150244,note_off,,,,,100,0,10,,,,,3,,,71,100
150244,note_off,,,,,100,0,14,,,,,6,,,55,100
150244,note_off,,,,,100,0,16,,,,,7,,,55,100
150244,note_off,,,,,0,0,13,,,,,6,,,71,100
150244,note_off,,,,,100,0,13,,,,,6,,,76,100
150244,note_off,,,,,100,0,12,,,,,5,,,43,100
150336,note_on,,,,,92,0,16,,,,,7,,,52,100
150336,note_on,,,,,92,0,11,,,,,4,,,52,100
150336,note_on,,,,,320,0,9,,,,,2,,,71,100
150336,note_on,,,,,92,0,13,,,,,6,,,67,100
150336,note_on,,,,,0,0,13,,,,,6,,,71,100
150336,note_on,,,,,92,0,14,,,,,6,,,52,100
150336,note_on,,,,,92,0,12,,,,,5,,,40,100
150336,note_on,,,,,92,0,15,,,,,7,,,67,100
150336,note_on,,,,,92,0,10,,,,,3,,,67,100
150336,note_on,,,,,128,0,8,,,,,1,,,71,100
150336,note_on,,,,,0,0,15,,,,,7,,,71,100
150436,note_off,,,,,100,0,16,,,,,7,,,52,100
150436,note_off,,,,,100,0,14,,,,,6,,,52,100
150436,note_off,,,,,0,0,15,,,,,7,,,71,100
150436,note_off,,,,,100,0,11,,,,,4,,,52,100
150436,note_off,,,,,100,0,9,,,,,2,,,71,100
150436,note_off,,,,,100,0,8,,,,,1,,,71,100
150436,note_off,,,,,0,0,13,,,,,6,,,71,100
150436,note_off,,,,,100,0,13,,,,,6,,,67,100
150436,note_off,,,,,100,0,12,,,,,5,,,40,100
150436,note_off,,,,,100,0,15,,,,,7,,,67,100
150436,note_off,,,,,100,0,10,,,,,3,,,67,100
150528,note_on,,,,,92,0,8,,,,,1,,,72,100
150528,note_on,,,,,92,0,9,,,,,2,,,69,100
150628,note_off,,,,,100,0,9,,,,,2,,,69,100
150628,note_off,,,,,100,0,8,,,,,1,,,72,100
150720,note_on,,,,,92,0,8,,,,,1,,,71,100
150720,note_on,,,,,92,0,9,,,,,2,,,67,100
150820,note_off,,,,,100,0,8,,,,,1,,,71,100
150820,note_off,,,,,100,0,9,,,,,2,,,67,100
150912,note_on,,,,,92,0,9,,,,,2,,,75,100
150912,note_on,,,,,92,0,8,,,,,1,,,78,100
151012,note_off,,,,,100,0,8,,,,,1,,,78,100
151104,note_on,,,,,668,0,10,,,,,3,,,66,100
151104,note_on,,,,,668,0,11,,,,,4,,,47,100
151104,note_on,,,,,668,0,15,,,,,7,,,63,100
151104,note_on,,,,,0,0,15,,,,,7,,,66,100
151104,note_on,,,,,668,0,13,,,,,6,,,63,100
151104,note_on,,,,,0,0,13,,,,,6,,,66,100
151104,note_on,,,,,668,0,12,,,,,5,,,35,100
151104,note_on,,,,,668,0,16,,,,,7,,,47,100
151104,note_on,,,,,92,0,8,,,,,1,,,71,100
151104,note_on,,,,,668,0,14,,,,,6,,,47,100
151168,note_off,,,,,64,0,16,,,,,7,,,47,100
151168,note_off,,,,,64,0,12,,,,,5,,,35,100
151168,note_off,,,,,64,0,14,,,,,6,,,47,100
151168,note_off,,,,,64,0,11,,,,,4,,,47,100
151168,note_off,,,,,256,0,9,,,,,2,,,75,100
151168,note_off,,,,,64,0,10,,,,,3,,,66,100
151196,note_off,,,,,92,0,13,,,,,6,,,63,100
151196,note_off,,,,,92,0,15,,,,,7,,,63,100
151200,note_on,,,,,32,0,10,,,,,3,,,64,100
151200,note_on,,,,,4,0,15,,,,,7,,,64,100
151200,note_on,,,,,32,0,14,,,,,6,,,49,100
151200,note_on,,,,,32,0,11,,,,,4,,,49,100
151200,note_on,,,,,32,0,12,,,,,5,,,37,100
151200,note_on,,,,,4,0,13,,,,,6,,,64,100
151200,note_on,,,,,32,0,16,,,,,7,,,49,100
151204,note_off,,,,,4,0,13,,,,,6,,,66,100
151204,note_off,,,,,4,0,15,,,,,7,,,66,100
151264,note_off,,,,,60,0,15,,,,,7,,,64,100
151264,note_off,,,,,64,0,14,,,,,6,,,49,100
151264,note_off,,,,,60,0,13,,,,,6,,,64,100
151264,note_off,,,,,64,0,16,,,,,7,,,49,100
151264,note_off,,,,,64,0,12,,,,,5,,,37,100
151264,note_off,,,,,64,0,10,,,,,3,,,64,100
151264,note_off,,,,,64,0,11,,,,,4,,,49,100
151296,note_on,,,,,32,0,16,,,,,7,,,51,100
151296,note_on,,,,,32,0,12,,,,,5,,,39,100
151296,note_on,,,,,0,0,13,,,,,6,,,66,100
151296,note_on,,,,,32,0,13,,,,,6,,,71,100
151296,note_on,,,,,32,0,10,,,,,3,,,66,100
151296,note_on,,,,,32,0,14,,,,,6,,,51,100
151296,note_on,,,,,0,0,15,,,,,7,,,66,100
151296,note_on,,,,,32,0,15,,,,,7,,,71,100
151296,note_on,,,,,32,0,11,,,,,4,,,51,100
151360,note_off,,,,,256,0,8,,,,,1,,,71,100
151396,note_off,,,,,100,0,11,,,,,4,,,51,100
151396,note_off,,,,,100,0,14,,,,,6,,,51,100
151396,note_off,,,,,0,0,15,,,,,7,,,66,100
151396,note_off,,,,,100,0,16,,,,,7,,,51,100
151396,note_off,,,,,100,0,12,,,,,5,,,39,100
151396,note_off,,,,,100,0,15,,,,,7,,,71,100
151396,note_off,,,,,100,0,13,,,,,6,,,71,100
151396,note_off,,,,,0,0,13,,,,,6,,,66,100
151396,note_off,,,,,100,0,10,,,,,3,,,66,100
151488,note_on,,,,,92,0,16,,,,,7,,,47,100
151488,note_on,,,,,92,0,13,,,,,6,,,63,100
151488,note_on,,,,,128,0,8,,,,,1,,,71,100
151488,note_on,,,,,320,0,9,,,,,2,,,71,100
151488,note_on,,,,,92,0,12,,,,,5,,,35,100
151488,note_on,,,,,92,0,10,,,,,3,,,63,100
151488,note_on,,,,,0,0,15,,,,,7,,,66,100
151488,note_on,,,,,92,0,14,,,,,6,,,47,100
151488,note_on,,,,,92,0,11,,,,,4,,,47,100
151488,note_on,,,,,92,0,15,,,,,7,,,63,100
151488,note_on,,,,,0,0,13,,,,,6,,,66,100
151588,note_off,,,,,100,0,9,,,,,2,,,71,100
151588,note_off,,,,,0,0,13,,,,,6,,,66,100
151588,note_off,,,,,100,0,10,,,,,3,,,63,100
151588,note_off,,,,,100,0,16,,,,,7,,,47,100
151588,note_off,,,,,100,0,8,,,,,1,,,71,100
151588,note_off,,,,,100,0,13,,,,,6,,,63,100
151588,note_off,,,,,100,0,11,,,,,4,,,47,100
151588,note_off,,,,,100,0,12,,,,,5,,,35,100
151588,note_off,,,,,100,0,15,,,,,7,,,63,100
151588,note_off,,,,,100,0,14,,,,,6,,,47,100
151588,note_off,,,,,0,0,15,,,,,7,,,66,100
151680,note_on,,,,,92,0,9,,,,,2,,,69,100
151680,note_on,,,,,92,0,8,,,,,1,,,72,100
151780,note_off,,,,,100,0,8,,,,,1,,,72,100
151780,note_off,,,,,100,0,9,,,,,2,,,69,100
151872,note_on,,,,,92,0,8,,,,,1,,,71,100
151872,note_on,,,,,92,0,9,,,,,2,,,67,100
151972,note_off,,,,,100,0,9,,,,,2,,,67,100
151972,note_off,,,,,100,0,8,,,,,1,,,71,100
152064,note_on,,,,,92,0,9,,,,,2,,,76,100
152064,note_on,,,,,92,0,8,,,,,1,,,79,100
152164,note_off,,,,,100,0,9,,,,,2,,,76,100
152164,note_off,,,,,100,0,8,,,,,1,,,79,100
152256,note_on,,,,,668,0,14,,,,,6,,,47,100
152256,note_on,,,,,668,0,12,,,,,5,,,35,100
152256,note_on,,,,,668,0,11,,,,,4,,,47,100
152256,note_on,,,,,92,0,9,,,,,2,,,75,100
152256,note_on,,,,,0,0,13,,,,,6,,,66,100
152256,note_on,,,,,668,0,10,,,,,3,,,66,100
152256,note_on,,,,,668,0,15,,,,,7,,,63,100
152256,note_on,,,,,0,0,15,,,,,7,,,66,100
152256,note_on,,,,,668,0,13,,,,,6,,,63,100
152256,note_on,,,,,92,0,8,,,,,1,,,78,100
152256,note_on,,,,,668,0,16,,,,,7,,,47,100
152320,note_off,,,,,64,0,14,,,,,6,,,47,100
152320,note_off,,,,,64,0,12,,,,,5,,,35,100
152320,note_off,,,,,64,0,16,,,,,7,,,47,100
152320,note_off,,,,,64,0,10,,,,,3,,,66,100
152320,note_off,,,,,64,0,11,,,,,4,,,47,100
152348,note_off,,,,,92,0,13,,,,,6,,,63,100
152348,note_off,,,,,92,0,15,,,,,7,,,63,100
152352,note_on,,,,,32,0,11,,,,,4,,,49,100
152352,note_on,,,,,32,0,16,,,,,7,,,49,100
152352,note_on,,,,,32,0,10,,,,,3,,,64,100
152352,note_on,,,,,4,0,13,,,,,6,,,64,100
152352,note_on,,,,,32,0,14,,,,,6,,,49,100
152352,note_on,,,,,4,0,15,,,,,7,,,64,100
152352,note_on,,,,,32,0,12,,,,,5,,,37,100
152356,note_off,,,,,4,0,13,,,,,6,,,66,100
152356,note_off,,,,,4,0,15,,,,,7,,,66,100
152416,note_off,,,,,64,0,12,,,,,5,,,37,100
152416,note_off,,,,,64,0,14,,,,,6,,,49,100
152416,note_off,,,,,64,0,11,,,,,4,,,49,100
152416,note_off,,,,,60,0,15,,,,,7,,,64,100
152416,note_off,,,,,64,0,10,,,,,3,,,64,100
152416,note_off,,,,,60,0,13,,,,,6,,,64,100
152416,note_off,,,,,64,0,16,,,,,7,,,49,100
152448,note_on,,,,,32,0,12,,,,,5,,,39,100
152448,note_on,,,,,32,0,16,,,,,7,,,51,100
152448,note_on,,,,,32,0,15,,,,,7,,,71,100
152448,note_on,,,,,0,0,15,,,,,7,,,66,100
152448,note_on,,,,,32,0,13,,,,,6,,,71,100
152448,note_on,,,,,32,0,11,,,,,4,,,51,100
152448,note_on,,,,,32,0,14,,,,,6,,,51,100
152448,note_on,,,,,0,0,13,,,,,6,,,66,100
152448,note_on,,,,,32,0,10,,,,,3,,,66,100
152512,note_off,,,,,256,0,8,,,,,1,,,78,100
152512,note_off,,,,,256,0,9,,,,,2,,,75,100
152548,note_off,,,,,100,0,12,,,,,5,,,39,100
152548,note_off,,,,,100,0,14,,,,,6,,,51,100
152548,note_off,,,,,100,0,13,,,,,6,,,71,100
152548,note_off,,,,,0,0,13,,,,,6,,,66,100
152548,note_off,,,,,100,0,10,,,,,3,,,66,100
152548,note_off,,,,,100,0,11,,,,,4,,,51,100
152548,note_off,,,,,100,0,16,,,,,7,,,51,100
152548,note_off,,,,,100,0,15,,,,,7,,,71,100
152548,note_off,,,,,0,0,15,,,,,7,,,66,100
152640,note_on,,,,,92,0,10,,,,,3,,,63,100
152640,note_on,,,,,128,0,9,,,,,2,,,71,100
152640,note_on,,,,,92,0,16,,,,,7,,,47,100
152640,note_on,,,,,92,0,12,,,,,5,,,35,100
152640,note_on,,,,,0,0,13,,,,,6,,,66,100
152640,note_on,,,,,92,0,13,,,,,6,,,63,100
152640,note_on,,,,,92,0,14,,,,,6,,,47,100
152640,note_on,,,,,92,0,15,,,,,7,,,63,100
152640,note_on,,,,,92,0,11,,,,,4,,,47,100
152640,note_on,,,,,0,0,15,,,,,7,,,66,100
152640,note_on,,,,,128,0,8,,,,,1,,,71,100
152740,note_off,,,,,100,0,13,,,,,6,,,63,100
152740,note_off,,,,,0,0,15,,,,,7,,,66,100
152740,note_off,,,,,100,0,15,,,,,7,,,63,100
152740,note_off,,,,,100,0,14,,,,,6,,,47,100
152740,note_off,,,,,100,0,16,,,,,7,,,47,100
152740,note_off,,,,,100,0,12,,,,,5,,,35,100
152740,note_off,,,,,0,0,13,,,,,6,,,66,100
152740,note_off,,,,,100,0,11,,,,,4,,,47,100
152740,note_off,,,,,100,0,8,,,,,1,,,71,100
152740,note_off,,,,,100,0,10,,,,,3,,,63,100
152740,note_off,,,,,100,0,9,,,,,2,,,71,100
152832,note_on,,,,,92,0,8,,,,,1,,,72,100
152832,note_on,,,,,92,0,9,,,,,2,,,69,100
152932,note_off,,,,,100,0,9,,,,,2,,,69,100
152932,note_off,,,,,100,0,8,,,,,1,,,72,100
153024,note_on,,,,,92,0,9,,,,,2,,,67,100
153024,note_on,,,,,92,0,8,,,,,1,,,71,100
153124,note_off,,,,,100,0,9,,,,,2,,,67,100
153124,note_off,,,,,100,0,8,,,,,1,,,71,100
153216,note_on,,,,,92,0,9,,,,,2,,,78,100
153216,note_on,,,,,92,0,8,,,,,1,,,81,100
153316,note_off,,,,,100,0,8,,,,,1,,,81,100
153316,note_off,,,,,100,0,9,,,,,2,,,78,100
153408,note_on,,,,,668,0,13,,,,,6,,,67,100
153408,note_on,,,,,668,0,12,,,,,5,,,40,100
153408,note_on,,,,,92,0,9,,,,,2,,,76,100
153408,note_on,,,,,0,0,13,,,,,6,,,71,100
153408,note_on,,,,,668,0,11,,,,,4,,,52,100
153408,note_on,,,,,668,0,14,,,,,6,,,52,100
153408,note_on,,,,,668,0,10,,,,,3,,,71,100
153408,note_on,,,,,668,0,16,,,,,7,,,52,100
153408,note_on,,,,,0,0,15,,,,,7,,,71,100
153408,note_on,,,,,668,0,15,,,,,7,,,67,100
153408,note_on,,,,,92,0,8,,,,,1,,,79,100
153472,note_off,,,,,64,0,11,,,,,4,,,52,100
153472,note_off,,,,,64,0,16,,,,,7,,,52,100
153472,note_off,,,,,64,0,12,,,,,5,,,40,100
153472,note_off,,,,,64,0,10,,,,,3,,,71,100
153472,note_off,,,,,64,0,14,,,,,6,,,52,100
153500,note_off,,,,,92,0,13,,,,,6,,,67,100
153500,note_off,,,,,92,0,15,,,,,7,,,67,100
153504,note_on,,,,,4,0,13,,,,,6,,,69,100
153504,note_on,,,,,32,0,16,,,,,7,,,54,100
153504,note_on,,,,,32,0,14,,,,,6,,,54,100
153504,note_on,,,,,4,0,15,,,,,7,,,69,100
153504,note_on,,,,,32,0,12,,,,,5,,,42,100
153504,note_on,,,,,32,0,11,,,,,4,,,54,100
153504,note_on,,,,,32,0,10,,,,,3,,,69,100
153508,note_off,,,,,4,0,15,,,,,7,,,71,100
153508,note_off,,,,,4,0,13,,,,,6,,,71,100
153568,note_off,,,,,64,0,11,,,,,4,,,54,100
153568,note_off,,,,,60,0,15,,,,,7,,,69,100
153568,note_off,,,,,64,0,16,,,,,7,,,54,100
153568,note_off,,,,,60,0,13,,,,,6,,,69,100
153568,note_off,,,,,64,0,12,,,,,5,,,42,100
153568,note_off,,,,,64,0,14,,,,,6,,,54,100
153568,note_off,,,,,64,0,10,,,,,3,,,69,100
153600,note_on,,,,,32,0,16,,,,,7,,,55,100
153600,note_on,,,,,32,0,12,,,,,5,,,43,100
153600,note_on,,,,,32,0,14,,,,,6,,,55,100
153600,note_on,,,,,0,0,13,,,,,6,,,71,100
153600,note_on,,,,,32,0,13,,,,,6,,,76,100
153600,note_on,,,,,0,0,15,,,,,7,,,71,100
153600,note_on,,,,,32,0,15,,,,,7,,,76,100
153600,note_on,,,,,32,0,10,,,,,3,,,71,100
153600,note_on,,,,,32,0,11,,,,,4,,,55,100
153664,note_off,,,,,256,0,9,,,,,2,,,76,100
153664,note_off,,,,,256,0,8,,,,,1,,,79,100
153700,note_off,,,,,100,0,15,,,,,7,,,76,100
153700,note_off,,,,,100,0,14,,,,,6,,,55,100
153700,note_off,,,,,100,0,10,,,,,3,,,71,100
153700,note_off,,,,,100,0,13,,,,,6,,,76,100
153700,note_off,,,,,100,0,16,,,,,7,,,55,100
153700,note_off,,,,,100,0,11,,,,,4,,,55,100
153700,note_off,,,,,0,0,13,,,,,6,,,71,100
153700,note_off,,,,,0,0,15,,,,,7,,,71,100
153700,note_off,,,,,100,0,12,,,,,5,,,43,100
153792,note_on,,,,,92,0,16,,,,,7,,,52,100
153792,note_on,,,,,92,0,10,,,,,3,,,67,100
153792,note_on,,,,,92,0,11,,,,,4,,,52,100
153792,note_on,,,,,128,0,9,,,,,2,,,71,100
153792,note_on,,,,,128,0,8,,,,,1,,,71,100
153792,note_on,,,,,92,0,13,,,,,6,,,67,100
153792,note_on,,,,,0,0,13,,,,,6,,,71,100
153792,note_on,,,,,92,0,14,,,,,6,,,52,100
153792,note_on,,,,,92,0,15,,,,,7,,,67,100
153792,note_on,,,,,0,0,15,,,,,7,,,71,100
153792,note_on,,,,,92,0,12,,,,,5,,,40,100
153892,note_off,,,,,100,0,8,,,,,1,,,71,100
153892,note_off,,,,,100,0,9,,,,,2,,,71,100
153892,note_off,,,,,100,0,11,,,,,4,,,52,100
153892,note_off,,,,,100,0,13,,,,,6,,,67,100
153892,note_off,,,,,0,0,13,,,,,6,,,71,100
153892,note_off,,,,,100,0,10,,,,,3,,,67,100
153892,note_off,,,,,100,0,15,,,,,7,,,67,100
153892,note_off,,,,,100,0,12,,,,,5,,,40,100
153892,note_off,,,,,100,0,16,,,,,7,,,52,100
153892,note_off,,,,,0,0,15,,,,,7,,,71,100
153892,note_off,,,,,100,0,14,,,,,6,,,52,100
153984,note_on,,,,,92,0,8,,,,,1,,,72,100
153984,note_on,,,,,92,0,9,,,,,2,,,69,100
154084,note_off,,,,,100,0,9,,,,,2,,,69,100
154084,note_off,,,,,100,0,8,,,,,1,,,72,100
154176,note_on,,,,,92,0,9,,,,,2,,,67,100
154176,note_on,,,,,92,0,8,,,,,1,,,71,100
154276,note_off,,,,,100,0,9,,,,,2,,,67,100
154276,note_off,,,,,100,0,8,,,,,1,,,71,100
154368,note_on,,,,,476,0,16,,,,,7,,,52,100
154368,note_on,,,,,476,0,13,,,,,6,,,76,100
154368,note_on,,,,,92,0,9,,,,,2,,,79,105
154368,note_on,,,,,0,0,15,,,,,7,,,71,100
154368,note_on,,,,,0,0,15,,,,,7,,,67,100
154368,note_on,,,,,476,0,15,,,,,7,,,76,100
154368,note_on,,,,,92,0,8,,,,,1,,,83,105
154368,note_on,,,,,476,0,14,,,,,6,,,52,100
154368,note_on,,,,,0,0,13,,,,,6,,,71,100
154368,note_on,,,,,0,0,13,,,,,6,,,67,100
154368,note_on,,,,,476,0,11,,,,,4,,,52,105
154368,note_on,,,,,476,0,10,,,,,3,,,67,105
154368,note_on,,,,,476,0,12,,,,,5,,,40,105
154496,note_off,,,,,128,0,8,,,,,1,,,83,100
154496,note_off,,,,,128,0,9,,,,,2,,,79,100
154560,note_on,,,,,64,0,8,,,,,1,,,81,104
154560,note_on,,,,,64,0,9,,,,,2,,,78,104
154624,note_off,,,,,256,0,16,,,,,7,,,52,100
154624,note_off,,,,,256,0,15,,,,,7,,,76,100
154624,note_off,,,,,64,0,9,,,,,2,,,78,100
154624,note_off,,,,,64,0,8,,,,,1,,,81,100
154624,note_off,,,,,256,0,14,,,,,6,,,52,100
154624,note_off,,,,,0,0,13,,,,,6,,,71,100
154624,note_off,,,,,0,0,13,,,,,6,,,67,100
154624,note_off,,,,,256,0,13,,,,,6,,,76,100
154624,note_off,,,,,0,0,15,,,,,7,,,67,100
154624,note_off,,,,,0,0,15,,,,,7,,,71,100
154624,note_off,,,,,256,0,11,,,,,4,,,52,100
154624,note_off,,,,,256,0,12,,,,,5,,,40,100
154624,note_off,,,,,256,0,10,,,,,3,,,67,100
154656,note_on,,,,,32,0,9,,,,,2,,,79,103
154656,note_on,,,,,32,0,8,,,,,1,,,79,103
154720,note_off,,,,,64,0,9,,,,,2,,,79,100
154720,note_off,,,,,64,0,8,,,,,1,,,79,100
154752,note_on,,,,,32,0,9,,,,,2,,,81,102
154752,note_on,,,,,32,0,8,,,,,1,,,78,102
154852,note_off,,,,,100,0,9,,,,,2,,,81,100
154852,note_off,,,,,100,0,8,,,,,1,,,78,100
154944,note_on,,,,,92,0,8,,,,,1,,,76,100
154944,note_on,,,,,92,0,9,,,,,2,,,79,100
155044,note_off,,,,,100,0,8,,,,,1,,,76,100
155044,note_off,,,,,100,0,9,,,,,2,,,79,100
155136,note_on,,,,,92,0,9,,,,,2,,,78,98
155136,note_on,,,,,92,0,8,,,,,1,,,75,98
155236,note_off,,,,,100,0,8,,,,,1,,,75,100
155236,note_off,,,,,100,0,9,,,,,2,,,78,100
155328,note_on,,,,,92,0,8,,,,,1,,,73,97
155328,note_on,,,,,92,0,9,,,,,2,,,76,97
155428,note_off,,,,,100,0,9,,,,,2,,,76,100
155428,note_off,,,,,100,0,8,,,,,1,,,73,100
155520,note_on,,,,,92,0,9,,,,,2,,,75,95
155520,note_on,,,,,92,0,8,,,,,1,,,71,95
155520,note_on,,,,,896,0,10,,,,,3,,,66,95
155520,note_on,,,,,896,0,14,,,,,6,,,47,100
155520,note_on,,,,,896,0,16,,,,,7,,,47,100
155520,note_on,,,,,0,0,15,,,,,7,,,63,100
155520,note_on,,,,,0,0,15,,,,,7,,,66,100
155520,note_on,,,,,0,0,13,,,,,6,,,63,100
155520,note_on,,,,,896,0,13,,,,,6,,,59,100
155520,note_on,,,,,896,0,11,,,,,4,,,47,95
155520,note_on,,,,,896,0,12,,,,,5,,,35,95
155520,note_on,,,,,896,0,15,,,,,7,,,59,100
155520,note_on,,,,,0,0,13,,,,,6,,,66,100
155584,note_off,,,,,64,0,8,,,,,1,,,71,100
155616,note_on,,,,,32,0,8,,,,,1,,,73,95
155680,note_off,,,,,64,0,8,,,,,1,,,73,100
155712,note_on,,,,,32,0,8,,,,,1,,,75,96
155776,note_off,,,,,256,0,13,,,,,6,,,59,100
155776,note_off,,,,,256,0,11,,,,,4,,,47,100
155776,note_off,,,,,0,0,13,,,,,6,,,66,100
155776,note_off,,,,,0,0,13,,,,,6,,,63,100
155776,note_off,,,,,256,0,14,,,,,6,,,47,100
155776,note_off,,,,,256,0,10,,,,,3,,,66,100
155776,note_off,,,,,256,0,9,,,,,2,,,75,100
155776,note_off,,,,,256,0,12,,,,,5,,,35,100
155776,note_off,,,,,256,0,16,,,,,7,,,47,100
155776,note_off,,,,,0,0,15,,,,,7,,,66,100
155776,note_off,,,,,0,0,15,,,,,7,,,63,100
155776,note_off,,,,,256,0,15,,,,,7,,,59,100
155776,note_off,,,,,64,0,8,,,,,1,,,75,100
155808,note_on,,,,,32,0,8,,,,,1,,,76,97
155872,note_off,,,,,64,0,8,,,,,1,,,76,100
155904,note_on,,,,,32,0,8,,,,,1,,,78,98
155968,note_off,,,,,64,0,8,,,,,1,,,78,100
156000,note_on,,,,,32,0,8,,,,,1,,,79,99
156064,note_off,,,,,64,0,8,,,,,1,,,79,100
156096,note_on,,,,,320,0,11,,,,,4,,,47,99
156096,note_on,,,,,320,0,13,,,,,6,,,66,100
156096,note_on,,,,,0,0,13,,,,,6,,,63,100
156096,note_on,,,,,0,0,15,,,,,7,,,63,100
156096,note_on,,,,,320,0,12,,,,,5,,,35,99
156096,note_on,,,,,320,0,9,,,,,2,,,75,99
156096,note_on,,,,,32,0,8,,,,,1,,,81,99
156096,note_on,,,,,320,0,10,,,,,3,,,66,99
156096,note_on,,,,,320,0,16,,,,,7,,,47,100
156096,note_on,,,,,320,0,15,,,,,7,,,66,100
156096,note_on,,,,,320,0,14,,,,,6,,,47,100
156160,note_off,,,,,64,0,8,,,,,1,,,81,100
156192,note_on,,,,,32,0,8,,,,,1,,,83,100
156196,note_off,,,,,0,0,15,,,,,7,,,63,100
156196,note_off,,,,,100,0,15,,,,,7,,,66,100
156196,note_off,,,,,100,0,12,,,,,5,,,35,100
156196,note_off,,,,,100,0,11,,,,,4,,,47,100
156196,note_off,,,,,100,0,9,,,,,2,,,75,100
156196,note_off,,,,,100,0,13,,,,,6,,,66,100
156196,note_off,,,,,0,0,13,,,,,6,,,63,100
156196,note_off,,,,,100,0,10,,,,,3,,,66,100
156196,note_off,,,,,100,0,14,,,,,6,,,47,100
156196,note_off,,,,,100,0,16,,,,,7,,,47,100
156256,note_off,,,,,64,0,8,,,,,1,,,83,100
156288,note_on,,,,,92,0,9,,,,,2,,,78,101
156288,note_on,,,,,92,0,10,,,,,3,,,71,101
156288,note_on,,,,,32,0,8,,,,,1,,,71,101
156288,note_on,,,,,92,0,15,,,,,7,,,66,100
156288,note_on,,,,,92,0,13,,,,,6,,,66,100
156288,note_on,,,,,0,0,15,,,,,7,,,71,100
156288,note_on,,,,,92,0,14,,,,,6,,,51,100
156288,note_on,,,,,92,0,12,,,,,5,,,39,101
156288,note_on,,,,,0,0,13,,,,,6,,,71,100
156288,note_on,,,,,92,0,16,,,,,7,,,51,100
156288,note_on,,,,,92,0,11,,,,,4,,,51,101
156388,note_off,,,,,100,0,8,,,,,1,,,71,100
156388,note_off,,,,,100,0,14,,,,,6,,,51,100
156388,note_off,,,,,100,0,13,,,,,6,,,66,100
156388,note_off,,,,,100,0,10,,,,,3,,,71,100
156388,note_off,,,,,100,0,16,,,,,7,,,51,100
156388,note_off,,,,,0,0,13,,,,,6,,,71,100
156388,note_off,,,,,100,0,12,,,,,5,,,39,100
156388,note_off,,,,,0,0,15,,,,,7,,,71,100
156388,note_off,,,,,100,0,15,,,,,7,,,66,100
156388,note_off,,,,,100,0,9,,,,,2,,,78,100
156388,note_off,,,,,100,0,11,,,,,4,,,51,100
156480,note_on,,,,,92,0,9,,,,,2,,,75,103
156480,note_on,,,,,92,0,11,,,,,4,,,47,103
156480,note_on,,,,,92,0,12,,,,,5,,,35,103
156480,note_on,,,,,92,0,16,,,,,7,,,47,100
156480,note_on,,,,,92,0,14,,,,,6,,,47,100
156480,note_on,,,,,0,0,15,,,,,7,,,66,100
156480,note_on,,,,,92,0,15,,,,,7,,,63,100
156480,note_on,,,,,92,0,8,,,,,1,,,83,103
156480,note_on,,,,,0,0,13,,,,,6,,,66,100
156480,note_on,,,,,92,0,13,,,,,6,,,63,100
156480,note_on,,,,,92,0,10,,,,,3,,,66,103
156580,note_off,,,,,100,0,11,,,,,4,,,47,100
156580,note_off,,,,,100,0,14,,,,,6,,,47,100
156580,note_off,,,,,0,0,15,,,,,7,,,66,100
156580,note_off,,,,,100,0,16,,,,,7,,,47,100
156580,note_off,,,,,100,0,12,,,,,5,,,35,100
156580,note_off,,,,,100,0,15,,,,,7,,,63,100
156580,note_off,,,,,100,0,8,,,,,1,,,83,100
156580,note_off,,,,,100,0,13,,,,,6,,,63,100
156580,note_off,,,,,0,0,13,,,,,6,,,66,100
156580,note_off,,,,,100,0,10,,,,,3,,,66,100
156580,note_off,,,,,100,0,9,,,,,2,,,75,100
156672,note_on,,,,,0,0,13,,,,,6,,,67,100
156672,note_on,,,,,0,0,13,,,,,6,,,64,100
156672,note_on,,,,,92,0,12,,,,,5,,,40,105
156672,note_on,,,,,92,0,10,,,,,3,,,59,105
156672,note_on,,,,,92,0,9,,,,,2,,,76,105
156672,note_on,,,,,92,0,11,,,,,4,,,52,105
156672,note_on,,,,,92,0,13,,,,,6,,,71,100
156672,note_on,,,,,92,0,14,,,,,6,,,52,100
156672,note_on,,,,,92,0,16,,,,,7,,,52,100
156672,note_on,,,,,0,0,15,,,,,7,,,64,100
156672,note_on,,,,,0,0,15,,,,,7,,,67,100
156672,note_on,,,,,92,0,15,,,,,7,,,71,100
156672,note_on,,,,,92,0,8,,,,,1,,,79,105
156736,note_off,,,,,64,0,9,,,,,2,,,76,100
156736,note_off,,,,,64,0,8,,,,,1,,,79,100
156768,note_on,,,,,32,0,9,,,,,2,,,79,105
156768,note_on,,,,,32,0,8,,,,,1,,,83,105
156832,note_off,,,,,64,0,8,,,,,1,,,83,100
156832,note_off,,,,,64,0,9,,,,,2,,,79,100
156864,note_on,,,,,32,0,9,,,,,2,,,81,105
156864,note_on,,,,,32,0,8,,,,,1,,,81,105
156928,note_off,,,,,64,0,8,,,,,1,,,81,100
156928,note_off,,,,,256,0,11,,,,,4,,,52,100
156928,note_off,,,,,256,0,13,,,,,6,,,71,100
156928,note_off,,,,,0,0,13,,,,,6,,,67,100
156928,note_off,,,,,0,0,13,,,,,6,,,64,100
156928,note_off,,,,,0,0,15,,,,,7,,,67,100
156928,note_off,,,,,64,0,9,,,,,2,,,81,100
156928,note_off,,,,,256,0,14,,,,,6,,,52,100
156928,note_off,,,,,0,0,15,,,,,7,,,64,100
156928,note_off,,,,,256,0,10,,,,,3,,,59,100
156928,note_off,,,,,256,0,15,,,,,7,,,71,100
156928,note_off,,,,,256,0,12,,,,,5,,,40,100
156928,note_off,,,,,256,0,16,,,,,7,,,52,100
156960,note_on,,,,,32,0,9,,,,,2,,,83,104
156960,note_on,,,,,32,0,8,,,,,1,,,79,104
157024,note_off,,,,,64,0,9,,,,,2,,,83,100
157024,note_off,,,,,64,0,8,,,,,1,,,79,100
157056,note_on,,,,,32,0,9,,,,,2,,,81,104
157056,set_tempo,,,,,155904,1,0,,476190,,,,,,,
157056,note_on,,,,,32,0,8,,,,,1,,,78,104
157120,note_off,,,,,64,0,8,,,,,1,,,78,100
157120,note_off,,,,,64,0,9,,,,,2,,,81,100
157152,note_on,,,,,32,0,9,,,,,2,,,83,103
157152,note_on,,,,,32,0,8,,,,,1,,,79,103
157216,note_off,,,,,64,0,9,,,,,2,,,83,100
157216,note_off,,,,,64,0,8,,,,,1,,,79,100
157248,note_on,,,,,32,0,8,,,,,1,,,78,103
157248,note_on,,,,,32,0,9,,,,,2,,,81,103
157248,set_tempo,,,,,192,1,0,,480000,,,,,,,
157312,note_off,,,,,64,0,9,,,,,2,,,81,100
157312,note_off,,,,,64,0,8,,,,,1,,,78,100
157344,note_on,,,,,32,0,8,,,,,1,,,76,103
157344,note_on,,,,,32,0,9,,,,,2,,,79,103
157408,note_off,,,,,64,0,8,,,,,1,,,76,100
157408,note_off,,,,,64,0,9,,,,,2,,,79,100
157440,note_on,,,,,512,0,12,,,,,5,,,42,102
157440,set_tempo,,,,,192,1,0,,483870,,,,,,,
157440,note_on,,,,,512,0,14,,,,,6,,,42,100
157440,note_on,,,,,0,0,15,,,,,7,,,63,100
157440,note_on,,,,,0,0,15,,,,,7,,,69,100
157440,note_on,,,,,512,0,15,,,,,7,,,66,100
157440,note_on,,,,,512,0,10,,,,,3,,,57,102
157440,note_on,,,,,32,0,8,,,,,1,,,75,102
157440,note_on,,,,,512,0,13,,,,,6,,,66,100
157440,note_on,,,,,512,0,16,,,,,7,,,42,100
157440,note_on,,,,,32,0,9,,,,,2,,,78,102
157440,note_on,,,,,512,0,11,,,,,4,,,42,102
157440,note_on,,,,,0,0,13,,,,,6,,,63,100
157440,note_on,,,,,0,0,13,,,,,6,,,69,100
157504,note_off,,,,,64,0,8,,,,,1,,,75,100
157504,note_off,,,,,64,0,9,,,,,2,,,78,100
157536,note_on,,,,,32,0,9,,,,,2,,,79,102
157536,note_on,,,,,32,0,8,,,,,1,,,76,102
157600,note_off,,,,,64,0,9,,,,,2,,,79,100
157600,note_off,,,,,64,0,8,,,,,1,,,76,100
157632,set_tempo,,,,,192,1,0,,487804,,,,,,,
157632,note_on,,,,,32,0,8,,,,,1,,,75,101
157632,note_on,,,,,32,0,9,,,,,2,,,78,101
157696,note_off,,,,,256,0,14,,,,,6,,,42,100
157696,note_off,,,,,256,0,11,,,,,4,,,42,100
157696,note_off,,,,,256,0,15,,,,,7,,,66,100
157696,note_off,,,,,0,0,15,,,,,7,,,69,100
157696,note_off,,,,,0,0,15,,,,,7,,,63,100
157696,note_off,,,,,256,0,12,,,,,5,,,42,100
157696,note_off,,,,,0,0,13,,,,,6,,,69,100
157696,note_off,,,,,0,0,13,,,,,6,,,63,100
157696,note_off,,,,,256,0,16,,,,,7,,,42,100
157696,note_off,,,,,256,0,13,,,,,6,,,66,100
157696,note_off,,,,,256,0,10,,,,,3,,,57,100
157696,note_off,,,,,64,0,8,,,,,1,,,75,100
157696,note_off,,,,,64,0,9,,,,,2,,,78,100
157728,note_on,,,,,32,0,9,,,,,2,,,76,101
157728,note_on,,,,,32,0,8,,,,,1,,,73,101
157792,note_off,,,,,64,0,8,,,,,1,,,73,100
157792,note_off,,,,,64,0,9,,,,,2,,,76,100
157824,set_tempo,,,,,192,1,0,,594059,,,,,,,
157824,note_on,,,,,128,0,13,,,,,6,,,67,100
157824,note_on,,,,,0,0,13,,,,,6,,,64,100
157824,note_on,,,,,128,0,14,,,,,6,,,43,100
157824,note_on,,,,,128,0,10,,,,,3,,,59,101
157824,note_on,,,,,128,0,16,,,,,7,,,43,100
157824,note_on,,,,,32,0,8,,,,,1,,,71,101
157824,note_on,,,,,32,0,9,,,,,2,,,76,101
157824,note_on,,,,,128,0,15,,,,,7,,,67,100
157824,note_on,,,,,0,0,15,,,,,7,,,64,100
157824,note_on,,,,,128,0,12,,,,,5,,,31,101
157824,note_on,,,,,128,0,11,,,,,4,,,43,101
157876,set_tempo,,,,,52,1,0,,495867,,,,,,,
157924,note_off,,,,,100,0,9,,,,,2,,,76,100
157924,note_off,,,,,100,0,8,,,,,1,,,71,100
157932,set_tempo,,,,,56,1,0,,500000,,,,,,,
157988,set_tempo,,,,,56,1,0,,504201,,,,,,,
158016,note_on,,,,,92,0,9,,,,,2,,,76,102
158016,note_on,,,,,92,0,8,,,,,1,,,76,102
158040,set_tempo,,,,,52,1,0,,508474,,,,,,,
158080,note_off,,,,,256,0,10,,,,,3,,,59,100
158080,note_off,,,,,256,0,11,,,,,4,,,43,100
158080,note_off,,,,,0,0,13,,,,,6,,,64,100
158080,note_off,,,,,256,0,13,,,,,6,,,67,100
158080,note_off,,,,,0,0,15,,,,,7,,,64,100
158080,note_off,,,,,256,0,15,,,,,7,,,67,100
158080,note_off,,,,,256,0,14,,,,,6,,,43,100
158080,note_off,,,,,256,0,12,,,,,5,,,31,100
158080,note_off,,,,,256,0,16,,,,,7,,,43,100
158096,set_tempo,,,,,56,1,0,,512820,,,,,,,
158116,note_off,,,,,100,0,8,,,,,1,,,76,100
158116,note_off,,,,,100,0,9,,,,,2,,,76,100
158152,set_tempo,,,,,56,1,0,,517241,,,,,,,
158208,set_tempo,,,,,56,1,0,,521739,,,,,,,
158208,note_on,,,,,128,0,14,,,,,6,,,45,100
158208,note_on,,,,,128,0,15,,,,,7,,,69,100
158208,note_on,,,,,0,0,15,,,,,7,,,64,100
158208,note_on,,,,,128,0,16,,,,,7,,,45,100
158208,note_on,,,,,128,0,12,,,,,5,,,33,102
158208,note_on,,,,,0,0,15,,,,,7,,,67,100
158208,note_on,,,,,128,0,10,,,,,3,,,60,102
158208,note_on,,,,,128,0,11,,,,,4,,,45,102
158208,note_on,,,,,92,0,8,,,,,1,,,67,102
158208,note_on,,,,,0,0,13,,,,,6,,,67,100
158208,note_on,,,,,0,0,13,,,,,6,,,64,100
158208,note_on,,,,,128,0,13,,,,,6,,,69,100
158208,note_on,,,,,92,0,9,,,,,2,,,67,102
158232,set_tempo,,,,,24,1,0,,526315,,,,,,,
158256,set_tempo,,,,,24,1,0,,530973,,,,,,,
158284,set_tempo,,,,,28,1,0,,535714,,,,,,,
158308,note_off,,,,,100,0,8,,,,,1,,,67,100
158308,set_tempo,,,,,24,1,0,,540540,,,,,,,
158308,note_off,,,,,100,0,9,,,,,2,,,67,100
158336,set_tempo,,,,,28,1,0,,545454,,,,,,,
158360,set_tempo,,,,,24,1,0,,550458,,,,,,,
158384,set_tempo,,,,,24,1,0,,555555,,,,,,,
158400,note_on,,,,,92,0,9,,,,,2,,,76,103
158400,note_on,,,,,92,0,8,,,,,1,,,76,103
158412,set_tempo,,,,,28,1,0,,560747,,,,,,,
158436,set_tempo,,,,,24,1,0,,566037,,,,,,,
158464,note_off,,,,,256,0,16,,,,,7,,,45,100
158464,note_off,,,,,256,0,10,,,,,3,,,60,100
158464,note_off,,,,,256,0,15,,,,,7,,,69,100
158464,note_off,,,,,0,0,15,,,,,7,,,64,100
158464,note_off,,,,,256,0,11,,,,,4,,,45,100
158464,note_off,,,,,0,0,15,,,,,7,,,67,100
158464,note_off,,,,,256,0,13,,,,,6,,,69,100
158464,note_off,,,,,0,0,13,,,,,6,,,64,100
158464,note_off,,,,,0,0,13,,,,,6,,,67,100
158464,note_off,,,,,256,0,12,,,,,5,,,33,100
158464,note_off,,,,,256,0,14,,,,,6,,,45,100
158464,set_tempo,,,,,28,1,0,,571428,,,,,,,
158488,set_tempo,,,,,24,1,0,,576923,,,,,,,
158500,note_off,,,,,100,0,8,,,,,1,,,76,100
158500,note_off,,,,,100,0,9,,,,,2,,,76,100
158512,set_tempo,,,,,24,1,0,,582524,,,,,,,
158540,set_tempo,,,,,28,1,0,,588235,,,,,,,
158564,set_tempo,,,,,24,1,0,,594059,,,,,,,
158592,note_on,,,,,92,0,8,,,,,1,,,59,104
158592,note_on,,,,,128,0,16,,,,,7,,,47,100
158592,note_on,,,,,128,0,10,,,,,3,,,59,104
158592,note_on,,,,,92,0,9,,,,,2,,,59,104
158592,set_tempo,,,,,28,1,0,,600000,,,,,,,
158592,note_on,,,,,128,0,11,,,,,4,,,47,104
158592,note_on,,,,,128,0,15,,,,,7,,,59,100
158592,note_on,,,,,128,0,13,,,,,6,,,59,100
158592,note_on,,,,,128,0,14,,,,,6,,,47,100
158592,note_on,,,,,0,0,13,,,,,6,,,66,100
158592,note_on,,,,,0,0,15,,,,,7,,,63,100
158592,note_on,,,,,0,0,15,,,,,7,,,66,100
158592,note_on,,,,,128,0,12,,,,,5,,,35,104
158592,note_on,,,,,0,0,13,,,,,6,,,63,100
158604,set_tempo,,,,,12,1,0,,606060,,,,,,,
158616,set_tempo,,,,,12,1,0,,612244,,,,,,,
158628,set_tempo,,,,,12,1,0,,618556,,,,,,,
158640,set_tempo,,,,,12,1,0,,625000,,,,,,,
158656,set_tempo,,,,,16,1,0,,631578,,,,,,,
158668,set_tempo,,,,,12,1,0,,638297,,,,,,,
158680,set_tempo,,,,,12,1,0,,645161,,,,,,,
158692,note_off,,,,,100,0,10,,,,,3,,,59,100
158692,note_off,,,,,100,0,9,,,,,2,,,59,100
158692,set_tempo,,,,,12,1,0,,652173,,,,,,,
158692,note_off,,,,,100,0,8,,,,,1,,,59,100
158704,set_tempo,,,,,12,1,0,,659340,,,,,,,
158720,set_tempo,,,,,16,1,0,,666666,,,,,,,
158732,set_tempo,,,,,12,1,0,,674157,,,,,,,
158744,set_tempo,,,,,12,1,0,,681818,,,,,,,
158756,set_tempo,,,,,12,1,0,,689655,,,,,,,
158768,set_tempo,,,,,12,1,0,,697674,,,,,,,
158784,note_on,,,,,92,0,10,,,,,3,,,66,105
158784,note_on,,,,,92,0,9,,,,,2,,,75,105
158784,set_tempo,,,,,16,1,0,,705882,,,,,,,
158784,note_on,,,,,92,0,8,,,,,1,,,75,105
158788,set_tempo,,,,,4,1,0,,714285,,,,,,,
158796,set_tempo,,,,,8,1,0,,722891,,,,,,,
158804,set_tempo,,,,,8,1,0,,731707,,,,,,,
158812,set_tempo,,,,,8,1,0,,740740,,,,,,,
158820,set_tempo,,,,,8,1,0,,750000,,,,,,,
158828,set_tempo,,,,,8,1,0,,759493,,,,,,,
158836,set_tempo,,,,,8,1,0,,769230,,,,,,,
158844,set_tempo,,,,,8,1,0,,779220,,,,,,,
158848,note_off,,,,,256,0,12,,,,,5,,,35,100
158848,note_off,,,,,0,0,15,,,,,7,,,66,100
158848,note_off,,,,,0,0,15,,,,,7,,,63,100
158848,note_off,,,,,256,0,15,,,,,7,,,59,100
158848,note_off,,,,,0,0,13,,,,,6,,,63,100
158848,note_off,,,,,256,0,13,,,,,6,,,59,100
158848,note_off,,,,,256,0,14,,,,,6,,,47,100
158848,note_off,,,,,256,0,11,,,,,4,,,47,100
158848,note_off,,,,,256,0,16,,,,,7,,,47,100
158848,note_off,,,,,0,0,13,,,,,6,,,66,100
158852,set_tempo,,,,,8,1,0,,789473,,,,,,,
158860,set_tempo,,,,,8,1,0,,800000,,,,,,,
158868,set_tempo,,,,,8,1,0,,810810,,,,,,,
158876,set_tempo,,,,,8,1,0,,821917,,,,,,,
158880,set_tempo,,,,,4,1,0,,833333,,,,,,,
158884,note_off,,,,,100,0,10,,,,,3,,,66,100
158884,note_off,,,,,100,0,9,,,,,2,,,75,100
158884,note_off,,,,,100,0,8,,,,,1,,,75,100
158888,set_tempo,,,,,8,1,0,,845070,,,,,,,
158896,set_tempo,,,,,8,1,0,,857142,,,,,,,
158904,set_tempo,,,,,8,1,0,,869565,,,,,,,
158912,set_tempo,,,,,8,1,0,,882352,,,,,,,
158920,set_tempo,,,,,8,1,0,,895522,,,,,,,
158928,set_tempo,,,,,8,1,0,,909090,,,,,,,
158936,set_tempo,,,,,8,1,0,,923076,,,,,,,
158944,set_tempo,,,,,8,1,0,,937500,,,,,,,
158952,set_tempo,,,,,8,1,0,,952380,,,,,,,
158960,set_tempo,,,,,8,1,0,,967741,,,,,,,
158968,set_tempo,,,,,8,1,0,,983606,,,,,,,
158976,note_on,,,,,0,0,15,,,,,7,,,64,100
158976,note_on,,,,,0,0,15,,,,,7,,,59,100
158976,note_on,,,,,128,0,12,,,,,5,,,40,102
158976,note_on,,,,,92,0,8,,,,,1,,,76,102
158976,note_on,,,,,0,0,15,,,,,7,,,55,100
158976,note_on,,,,,92,0,9,,,,,2,,,76,102
158976,set_tempo,,,,,8,1,0,,1000000,,,,,,,
158976,end_of_track,,,,,0,1,0,,,,,,,,,
158976,note_on,,,,,128,0,13,,,,,6,,,52,100
158976,note_on,,,,,128,0,16,,,,,7,,,40,100
158976,note_on,,,,,128,0,11,,,,,4,,,40,102
158976,note_on,,,,,92,0,10,,,,,3,,,67,102
158976,note_on,,,,,128,0,15,,,,,7,,,52,100
158976,note_on,,,,,128,0,14,,,,,6,,,40,100
159004,note_on,,,,,28,0,13,,,,,6,,,55,100
159036,note_on,,,,,32,0,13,,,,,6,,,59,100
159068,note_on,,,,,32,0,13,,,,,6,,,64,100
159740,note_off,,,,,672,0,13,,,,,6,,,55,100
159740,note_off,,,,,0,0,13,,,,,6,,,59,100
159740,note_off,,,,,0,0,13,,,,,6,,,64,100
159744,note_off,,,,,768,0,12,,,,,5,,,40,100
159744,note_off,,,,,0,0,15,,,,,7,,,64,100
159744,end_of_track,,,,,0,1,11,,,,,,,,,
159744,note_off,,,,,768,0,11,,,,,4,,,40,100
159744,note_off,,,,,4,0,13,,,,,6,,,52,100
159744,end_of_track,,,,,0,1,13,,,,,,,,,
159744,note_off,,,,,768,0,16,,,,,7,,,40,100
159744,end_of_track,,,,,0,1,10,,,,,,,,,
159744,note_off,,,,,768,0,10,,,,,3,,,67,100
159744,end_of_track,,,,,0,1,9,,,,,,,,,
159744,end_of_track,,,,,0,1,15,,,,,,,,,
159744,note_off,,,,,768,0,9,,,,,2,,,76,100
159744,note_off,,,,,768,0,8,,,,,1,,,76,100
159744,end_of_track,,,,,0,1,12,,,,,,,,,
159744,note_off,,,,,768,0,14,,,,,6,,,40,100
159744,end_of_track,,,,,0,1,14,,,,,,,,,
159744,note_off,,,,,768,0,15,,,,,7,,,52,100
159744,note_off,,,,,0,0,15,,,,,7,,,55,100
159744,note_off,,,,,0,0,15,,,,,7,,,59,100
159744,end_of_track,,,,,0,1,16,,,,,,,,,
161280,program_change,,,,,1536,0,8,,,,,1,48,,,
161280,end_of_track,,,,,0,1,8,,,,,,,,,
