tick,type,numerator,denominator,clocks_per_click,notated_32nd_notes_per_beat,time,meta,track,data,tempo,control,value,channel,program,key,note,velocity
0,time_signature,4,4,96,8,0,1,0,,,,,,,,,
0,control_change,,,,,0,0,6,,,0,0,0,,,,
0,program_change,,,,,0,0,6,,,,,0,48,,,
0,control_change,,,,,0,0,6,,,7,100,0,,,,
0,control_change,,,,,0,0,6,,,10,58,0,,,,
0,control_change,,,,,0,0,6,,,91,65,0,,,,
0,end_of_track,,,,,0,1,6,,,,,,,,,
0,track_name,,,,,0,1,6,,,,,,,,,
0,track_name,,,,,0,1,7,,,,,,,,,
0,program_change,,,,,0,0,7,,,,,0,48,,,
0,control_change,,,,,0,0,7,,,7,100,0,,,,
0,control_change,,,,,0,0,7,,,10,58,0,,,,
0,control_change,,,,,0,0,7,,,91,65,0,,,,
0,key_signature,,,,,0,1,7,,,,,,,C,,
0,note_on,,,,,0,0,7,,,,,0,,,81,120
0,control_change,,,,,0,0,7,,,0,0,0,,,,
0,control_change,,,,,0,0,8,,,0,0,1,,,,
0,end_of_track,,,,,0,1,5,,,,,,,,,
0,control_change,,,,,0,0,5,,,10,58,0,,,,
0,control_change,,,,,0,0,3,,,91,65,0,,,,
0,program_change,,,,,0,0,3,,,,,0,48,,,
0,end_of_track,,,,,0,1,3,,,,,,,,,
0,track_name,,,,,0,1,4,,,,,,,,,
0,control_change,,,,,0,0,4,,,0,0,0,,,,
0,program_change,,,,,0,0,4,,,,,0,48,,,
0,control_change,,,,,0,0,5,,,91,65,0,,,,
0,control_change,,,,,0,0,4,,,7,100,0,,,,
0,control_change,,,,,0,0,4,,,91,65,0,,,,
0,end_of_track,,,,,0,1,4,,,,,,,,,
0,track_name,,,,,0,1,5,,,,,,,,,
0,control_change,,,,,0,0,5,,,0,0,0,,,,
0,program_change,,,,,0,0,5,,,,,0,48,,,
0,control_change,,,,,0,0,5,,,7,100,0,,,,
0,control_change,,,,,0,0,4,,,10,58,0,,,,
0,control_change,,,,,0,0,3,,,10,58,0,,,,
0,control_change,,,,,0,0,12,,,91,64,5,,,,
0,control_change,,,,,0,0,12,,,7,82,5,,,,
0,note_on,,,,,0,0,9,,,,,2,,,81,60
0,key_signature,,,,,0,1,9,,,,,,,C,,
0,control_change,,,,,0,0,9,,,91,65,2,,,,
0,control_change,,,,,0,0,9,,,10,56,2,,,,
0,control_change,,,,,0,0,9,,,7,100,2,,,,
0,program_change,,,,,0,0,9,,,,,2,48,,,
0,track_name,,,,,0,1,10,,,,,,,,,
0,control_change,,,,,0,0,9,,,0,0,2,,,,
0,note_on,,,,,0,0,8,,,,,1,,,81,60
0,key_signature,,,,,0,1,8,,,,,,,C,,
0,control_change,,,,,0,0,8,,,91,64,1,,,,
0,control_change,,,,,0,0,8,,,10,42,1,,,,
0,control_change,,,,,0,0,8,,,7,100,1,,,,
0,program_change,,,,,0,0,8,,,,,1,48,,,
0,track_name,,,,,0,1,9,,,,,,,,,
0,control_change,,,,,0,0,12,,,10,75,5,,,,
0,control_change,,,,,0,0,10,,,0,0,3,,,,
0,control_change,,,,,0,0,10,,,7,100,3,,,,
0,program_change,,,,,0,0,12,,,,,5,48,,,
0,control_change,,,,,0,0,12,,,0,0,5,,,,
0,track_name,,,,,0,1,12,,,,,,,,,
0,note_on,,,,,0,0,11,,,,,4,,,72,110
0,key_signature,,,,,0,1,11,,,,,,,C,,
0,control_change,,,,,0,0,11,,,91,62,4,,,,
0,program_change,,,,,0,0,10,,,,,3,48,,,
0,control_change,,,,,0,0,11,,,7,95,4,,,,
0,control_change,,,,,0,0,11,,,0,0,4,,,,
0,track_name,,,,,0,1,11,,,,,,,,,
0,note_on,,,,,0,0,10,,,,,3,,,81,60
0,key_signature,,,,,0,1,10,,,,,,,C,,
0,control_change,,,,,0,0,10,,,91,64,3,,,,
0,control_change,,,,,0,0,10,,,10,40,3,,,,
0,program_change,,,,,0,0,11,,,,,4,48,,,
0,control_change,,,,,0,0,3,,,7,100,0,,,,
0,track_name,,,,,0,1,8,,,,,,,,,
0,track_name,,,,,0,1,3,,,,,,,,,
0,control_change,,,,,0,0,14,,,0,0,7,,,,
0,program_change,,,,,0,0,14,,,,,7,6,,,
0,control_change,,,,,0,0,14,,,7,55,7,,,,
0,control_change,,,,,0,0,14,,,10,61,7,,,,
0,control_change,,,,,0,0,3,,,0,0,0,,,,
0,control_change,,,,,0,0,14,,,91,62,7,,,,
0,track_name,,,,,0,1,15,,,,,,,,,
0,track_name,,,,,0,1,14,,,,,,,,,
0,note_on,,,,,0,0,15,,,,,7,,,45,100
0,control_change,,,,,0,0,15,,,91,62,7,,,,
0,key_signature,,,,,0,1,14,,,,,,,C,,
0,note_on,,,,,0,0,14,,,,,7,,,60,100
0,note_on,,,,,0,0,14,,,,,7,,,64,100
0,control_change,,,,,0,0,15,,,10,61,7,,,,
0,control_change,,,,,0,0,15,,,0,0,7,,,,
0,program_change,,,,,0,0,15,,,,,7,6,,,
0,key_signature,,,,,0,1,15,,,,,,,C,,
0,note_on,,,,,0,0,13,,,,,6,,,33,110
0,control_change,,,,,0,0,15,,,7,55,7,,,,
0,control_change,,,,,0,0,13,,,91,88,6,,,,
0,key_signature,,,,,0,1,13,,,,,,,C,,
0,sequencer_specific,,,,,0,1,0,"(0, 0, 119, 14, 1)",,,,,,,,
0,note_on,,,,,0,0,12,,,,,5,,,45,110
0,key_signature,,,,,0,1,12,,,,,,,C,,
0,track_name,,,,,0,1,1,,,,,,,,,
0,set_tempo,,,,,0,1,0,,500000,,,,,,,
0,track_name,,,,,0,1,13,,,,,,,,,
0,sequencer_specific,,,,,0,1,0,"(0, 0, 65)",,,,,,,,
0,control_change,,,,,0,0,13,,,0,0,6,,,,
0,control_change,,,,,0,0,13,,,7,77,6,,,,
0,end_of_track,,,,,0,1,1,,,,,,,,,
0,track_name,,,,,0,1,2,,,,,,,,,
0,end_of_track,,,,,0,1,2,,,,,,,,,
0,program_change,,,,,0,0,13,,,,,6,48,,,
256,note_off,,,,,256,0,14,,,,,7,,,60,100
256,note_off,,,,,0,0,14,,,,,7,,,64,100
256,note_off,,,,,256,0,9,,,,,2,,,81,100
256,note_off,,,,,256,0,11,,,,,4,,,72,100
256,note_off,,,,,256,0,12,,,,,5,,,45,100
256,note_off,,,,,256,0,10,,,,,3,,,81,100
256,note_off,,,,,256,0,15,,,,,7,,,45,100
256,note_off,,,,,256,0,7,,,,,0,,,81,100
256,note_off,,,,,256,0,13,,,,,6,,,33,100
256,note_off,,,,,256,0,8,,,,,1,,,81,100
384,note_on,,,,,128,0,11,,,,,4,,,71,110
384,note_on,,,,,128,0,9,,,,,2,,,80,60
384,note_on,,,,,128,0,10,,,,,3,,,80,60
384,note_on,,,,,128,0,14,,,,,7,,,68,100
384,note_on,,,,,128,0,8,,,,,1,,,80,60
384,note_on,,,,,128,0,7,,,,,0,,,80,120
384,note_on,,,,,0,0,14,,,,,7,,,71,100
384,note_on,,,,,128,0,12,,,,,5,,,52,110
384,note_on,,,,,128,0,15,,,,,7,,,52,100
384,note_on,,,,,128,0,13,,,,,6,,,40,110
640,note_off,,,,,256,0,14,,,,,7,,,68,100
640,note_off,,,,,256,0,13,,,,,6,,,40,100
640,note_off,,,,,0,0,14,,,,,7,,,71,100
640,note_off,,,,,256,0,12,,,,,5,,,52,100
640,note_off,,,,,256,0,10,,,,,3,,,80,100
640,note_off,,,,,256,0,15,,,,,7,,,52,100
640,note_off,,,,,256,0,9,,,,,2,,,80,100
640,note_off,,,,,256,0,11,,,,,4,,,71,100
640,note_off,,,,,256,0,7,,,,,0,,,80,100
640,note_off,,,,,256,0,8,,,,,1,,,80,100
768,note_on,,,,,128,0,8,,,,,1,,,81,60
768,note_on,,,,,128,0,9,,,,,2,,,81,60
768,note_on,,,,,0,0,14,,,,,7,,,64,100
768,note_on,,,,,128,0,13,,,,,6,,,33,110
768,note_on,,,,,128,0,11,,,,,4,,,72,110
768,note_on,,,,,128,0,7,,,,,0,,,81,120
768,note_on,,,,,128,0,15,,,,,7,,,45,100
768,note_on,,,,,128,0,12,,,,,5,,,45,110
768,note_on,,,,,128,0,14,,,,,7,,,60,100
768,note_on,,,,,128,0,10,,,,,3,,,81,60
832,note_off,,,,,64,0,10,,,,,3,,,81,100
832,note_off,,,,,64,0,9,,,,,2,,,81,100
832,note_off,,,,,64,0,8,,,,,1,,,81,100
832,note_off,,,,,64,0,7,,,,,0,,,81,100
864,note_on,,,,,32,0,9,,,,,2,,,79,59
864,note_on,,,,,32,0,10,,,,,3,,,79,59
864,note_on,,,,,32,0,7,,,,,0,,,79,119
864,note_on,,,,,32,0,8,,,,,1,,,79,59
928,note_off,,,,,64,0,8,,,,,1,,,79,100
928,note_off,,,,,64,0,9,,,,,2,,,79,100
928,note_off,,,,,64,0,7,,,,,0,,,79,100
928,note_off,,,,,64,0,10,,,,,3,,,79,100
960,note_on,,,,,32,0,9,,,,,2,,,77,58
960,note_on,,,,,32,0,8,,,,,1,,,77,58
960,note_on,,,,,32,0,7,,,,,0,,,77,118
960,note_on,,,,,32,0,10,,,,,3,,,77,58
1024,note_off,,,,,256,0,13,,,,,6,,,33,100
1024,note_off,,,,,256,0,12,,,,,5,,,45,100
1024,note_off,,,,,256,0,11,,,,,4,,,72,100
1024,note_off,,,,,256,0,14,,,,,7,,,60,100
1024,note_off,,,,,0,0,14,,,,,7,,,64,100
1024,note_off,,,,,64,0,7,,,,,0,,,77,100
1024,note_off,,,,,64,0,10,,,,,3,,,77,100
1024,note_off,,,,,64,0,8,,,,,1,,,77,100
1024,note_off,,,,,64,0,9,,,,,2,,,77,100
1024,note_off,,,,,256,0,15,,,,,7,,,45,100
1056,note_on,,,,,32,0,7,,,,,0,,,76,117
1056,note_on,,,,,32,0,10,,,,,3,,,76,57
1056,note_on,,,,,32,0,8,,,,,1,,,76,57
1056,note_on,,,,,32,0,9,,,,,2,,,76,57
1120,note_off,,,,,64,0,8,,,,,1,,,76,100
1120,note_off,,,,,64,0,7,,,,,0,,,76,100
1120,note_off,,,,,64,0,10,,,,,3,,,76,100
1120,note_off,,,,,64,0,9,,,,,2,,,76,100
1152,note_on,,,,,32,0,8,,,,,1,,,74,56
1152,note_on,,,,,32,0,10,,,,,3,,,74,56
1152,note_on,,,,,32,0,7,,,,,0,,,74,116
1152,note_on,,,,,32,0,9,,,,,2,,,74,56
1216,note_off,,,,,64,0,9,,,,,2,,,74,100
1216,note_off,,,,,64,0,8,,,,,1,,,74,100
1216,note_off,,,,,64,0,10,,,,,3,,,74,100
1216,note_off,,,,,64,0,7,,,,,0,,,74,100
1248,note_on,,,,,32,0,7,,,,,0,,,72,114
1248,note_on,,,,,32,0,8,,,,,1,,,72,54
1248,note_on,,,,,32,0,10,,,,,3,,,72,54
1248,note_on,,,,,32,0,9,,,,,2,,,72,54
1312,note_off,,,,,64,0,7,,,,,0,,,72,100
1312,note_off,,,,,64,0,8,,,,,1,,,72,100
1312,note_off,,,,,64,0,10,,,,,3,,,72,100
1312,note_off,,,,,64,0,9,,,,,2,,,72,100
1344,note_on,,,,,320,0,14,,,,,7,,,76,100
1344,note_on,,,,,320,0,12,,,,,5,,,57,103
1344,note_on,,,,,320,0,11,,,,,4,,,72,103
1344,note_on,,,,,320,0,15,,,,,7,,,57,100
1344,note_on,,,,,0,0,14,,,,,7,,,72,100
1344,note_on,,,,,320,0,13,,,,,6,,,45,103
1344,note_on,,,,,32,0,8,,,,,1,,,71,53
1344,note_on,,,,,32,0,7,,,,,0,,,71,113
1344,note_on,,,,,32,0,10,,,,,3,,,71,53
1344,note_on,,,,,32,0,9,,,,,2,,,71,53
1408,note_off,,,,,64,0,9,,,,,2,,,71,100
1408,note_off,,,,,64,0,8,,,,,1,,,71,100
1408,note_off,,,,,64,0,10,,,,,3,,,71,100
1408,note_off,,,,,64,0,7,,,,,0,,,71,100
1440,note_on,,,,,32,0,9,,,,,2,,,69,52
1440,note_on,,,,,32,0,10,,,,,3,,,69,52
1440,note_on,,,,,32,0,8,,,,,1,,,69,52
1440,note_on,,,,,32,0,7,,,,,0,,,69,112
1472,note_off,,,,,0,0,14,,,,,7,,,72,100
1472,note_off,,,,,128,0,13,,,,,6,,,45,100
1472,note_off,,,,,128,0,14,,,,,7,,,76,100
1472,note_off,,,,,128,0,15,,,,,7,,,57,100
1472,note_off,,,,,128,0,12,,,,,5,,,57,100
1472,note_off,,,,,128,0,11,,,,,4,,,72,100
1504,note_off,,,,,64,0,9,,,,,2,,,69,100
1504,note_off,,,,,64,0,8,,,,,1,,,69,100
1504,note_off,,,,,64,0,10,,,,,3,,,69,100
1504,note_off,,,,,64,0,7,,,,,0,,,69,100
1536,note_on,,,,,64,0,13,,,,,6,,,44,100
1536,note_on,,,,,32,0,10,,,,,3,,,76,50
1536,note_on,,,,,64,0,12,,,,,5,,,56,100
1536,note_on,,,,,32,0,7,,,,,0,,,76,110
1536,note_on,,,,,0,0,14,,,,,7,,,76,100
1536,note_on,,,,,32,0,8,,,,,1,,,76,50
1536,note_on,,,,,64,0,14,,,,,7,,,71,100
1536,note_on,,,,,64,0,11,,,,,4,,,71,100
1536,note_on,,,,,32,0,9,,,,,2,,,76,50
1536,note_on,,,,,64,0,15,,,,,7,,,56,100
1664,note_off,,,,,128,0,8,,,,,1,,,76,100
1664,note_off,,,,,128,0,9,,,,,2,,,76,100
1664,note_off,,,,,128,0,10,,,,,3,,,76,100
1664,note_off,,,,,128,0,7,,,,,0,,,76,100
1728,note_off,,,,,192,0,12,,,,,5,,,56,100
1728,note_off,,,,,192,0,14,,,,,7,,,71,100
1728,note_off,,,,,192,0,13,,,,,6,,,44,100
1728,note_on,,,,,64,0,8,,,,,1,,,64,50
1728,note_on,,,,,64,0,10,,,,,3,,,64,50
1728,note_off,,,,,192,0,11,,,,,4,,,71,100
1728,note_off,,,,,0,0,14,,,,,7,,,76,100
1728,note_on,,,,,64,0,7,,,,,0,,,64,110
1728,note_on,,,,,64,0,9,,,,,2,,,64,50
1728,note_off,,,,,192,0,15,,,,,7,,,56,100
1824,note_on,,,,,96,0,12,,,,,5,,,54,100
1824,note_on,,,,,96,0,11,,,,,4,,,69,100
1824,note_on,,,,,96,0,14,,,,,7,,,69,100
1824,note_on,,,,,0,0,14,,,,,7,,,72,100
1824,note_on,,,,,96,0,13,,,,,6,,,42,100
1824,note_on,,,,,96,0,15,,,,,7,,,54,100
1856,note_off,,,,,128,0,9,,,,,2,,,64,100
1856,note_off,,,,,128,0,8,,,,,1,,,64,100
1856,note_off,,,,,128,0,10,,,,,3,,,64,100
1856,note_off,,,,,128,0,7,,,,,0,,,64,100
1888,note_off,,,,,64,0,11,,,,,4,,,69,100
1888,note_off,,,,,64,0,14,,,,,7,,,69,100
1888,note_off,,,,,0,0,14,,,,,7,,,72,100
1888,note_off,,,,,64,0,15,,,,,7,,,54,100
1888,note_off,,,,,64,0,12,,,,,5,,,54,100
1888,note_off,,,,,64,0,13,,,,,6,,,42,100
1920,note_on,,,,,32,0,15,,,,,7,,,52,100
1920,note_on,,,,,64,0,7,,,,,0,,,64,109
1920,note_on,,,,,32,0,13,,,,,6,,,40,99
1920,note_on,,,,,0,0,14,,,,,7,,,71,100
1920,note_on,,,,,32,0,12,,,,,5,,,52,99
1920,note_on,,,,,64,0,9,,,,,2,,,64,49
1920,note_on,,,,,64,0,10,,,,,3,,,64,49
1920,note_on,,,,,32,0,14,,,,,7,,,68,100
1920,note_on,,,,,32,0,11,,,,,4,,,68,99
1920,note_on,,,,,64,0,8,,,,,1,,,64,49
2048,note_off,,,,,128,0,11,,,,,4,,,68,100
2048,note_off,,,,,128,0,9,,,,,2,,,64,100
2048,note_off,,,,,128,0,8,,,,,1,,,64,100
2048,note_off,,,,,128,0,7,,,,,0,,,64,100
2048,note_off,,,,,0,0,14,,,,,7,,,71,100
2048,note_off,,,,,128,0,14,,,,,7,,,68,100
2048,note_off,,,,,128,0,10,,,,,3,,,64,100
2048,note_off,,,,,128,0,12,,,,,5,,,52,100
2048,note_off,,,,,128,0,13,,,,,6,,,40,100
2048,note_off,,,,,128,0,15,,,,,7,,,52,100
2112,note_on,,,,,64,0,8,,,,,1,,,66,49
2112,note_on,,,,,64,0,14,,,,,7,,,66,100
2112,note_on,,,,,0,0,14,,,,,7,,,69,100
2112,note_on,,,,,64,0,15,,,,,7,,,50,100
2112,note_on,,,,,64,0,11,,,,,4,,,69,99
2112,note_on,,,,,64,0,9,,,,,2,,,66,49
2112,note_on,,,,,64,0,12,,,,,5,,,50,99
2112,note_on,,,,,64,0,10,,,,,3,,,66,49
2112,note_on,,,,,64,0,7,,,,,0,,,66,109
2112,note_on,,,,,64,0,13,,,,,6,,,38,99
2176,note_off,,,,,64,0,7,,,,,0,,,66,100
2176,note_off,,,,,64,0,8,,,,,1,,,66,100
2176,note_off,,,,,64,0,11,,,,,4,,,69,100
2176,note_off,,,,,64,0,9,,,,,2,,,66,100
2176,note_off,,,,,64,0,10,,,,,3,,,66,100
2208,note_on,,,,,32,0,9,,,,,2,,,68,48
2208,note_on,,,,,32,0,10,,,,,3,,,68,48
2208,note_on,,,,,32,0,7,,,,,0,,,68,108
2208,note_on,,,,,32,0,11,,,,,4,,,71,98
2208,note_on,,,,,32,0,8,,,,,1,,,68,48
2240,note_off,,,,,128,0,13,,,,,6,,,38,100
2240,note_off,,,,,128,0,12,,,,,5,,,50,100
2240,note_off,,,,,128,0,15,,,,,7,,,50,100
2240,note_off,,,,,128,0,14,,,,,7,,,66,100
2240,note_off,,,,,0,0,14,,,,,7,,,69,100
2272,note_off,,,,,64,0,7,,,,,0,,,68,100
2272,note_off,,,,,64,0,10,,,,,3,,,68,100
2272,note_off,,,,,64,0,9,,,,,2,,,68,100
2272,note_off,,,,,64,0,11,,,,,4,,,71,100
2272,note_off,,,,,64,0,8,,,,,1,,,68,100
2304,note_on,,,,,0,0,14,,,,,7,,,64,100
2304,note_on,,,,,32,0,10,,,,,3,,,69,48
2304,note_on,,,,,32,0,7,,,,,0,,,69,108
2304,note_on,,,,,64,0,12,,,,,5,,,48,98
2304,note_on,,,,,64,0,14,,,,,7,,,69,100
2304,note_on,,,,,32,0,11,,,,,4,,,64,98
2304,note_on,,,,,32,0,9,,,,,2,,,69,48
2304,note_on,,,,,64,0,15,,,,,7,,,48,100
2304,note_on,,,,,32,0,8,,,,,1,,,69,48
2304,note_on,,,,,64,0,13,,,,,6,,,36,98
2432,note_off,,,,,128,0,7,,,,,0,,,69,100
2432,note_off,,,,,128,0,10,,,,,3,,,69,100
2432,note_off,,,,,128,0,9,,,,,2,,,69,100
2432,note_off,,,,,128,0,8,,,,,1,,,69,100
2496,note_on,,,,,64,0,10,,,,,3,,,69,47
2496,note_on,,,,,64,0,9,,,,,2,,,69,47
2496,note_off,,,,,192,0,12,,,,,5,,,48,100
2496,note_on,,,,,64,0,8,,,,,1,,,69,47
2496,note_on,,,,,64,0,7,,,,,0,,,69,107
2496,note_off,,,,,192,0,15,,,,,7,,,48,100
2496,note_off,,,,,192,0,14,,,,,7,,,69,100
2496,note_off,,,,,0,0,14,,,,,7,,,64,100
2496,note_off,,,,,192,0,13,,,,,6,,,36,100
2560,note_off,,,,,64,0,10,,,,,3,,,69,100
2560,note_off,,,,,64,0,7,,,,,0,,,69,100
2560,note_off,,,,,64,0,9,,,,,2,,,69,100
2560,note_off,,,,,64,0,8,,,,,1,,,69,100
2592,note_on,,,,,96,0,13,,,,,6,,,35,97
2592,note_on,,,,,96,0,15,,,,,7,,,47,100
2592,note_on,,,,,32,0,9,,,,,2,,,71,47
2592,note_on,,,,,96,0,12,,,,,5,,,47,97
2592,note_on,,,,,96,0,14,,,,,7,,,66,100
2592,note_on,,,,,32,0,7,,,,,0,,,71,107
2592,note_on,,,,,32,0,8,,,,,1,,,71,47
2592,note_on,,,,,0,0,14,,,,,7,,,62,100
2592,note_on,,,,,32,0,10,,,,,3,,,71,47
2656,note_off,,,,,64,0,12,,,,,5,,,47,100
2656,note_off,,,,,64,0,14,,,,,7,,,66,100
2656,note_off,,,,,64,0,10,,,,,3,,,71,100
2656,note_off,,,,,0,0,14,,,,,7,,,62,100
2656,note_off,,,,,64,0,8,,,,,1,,,71,100
2656,note_off,,,,,64,0,13,,,,,6,,,35,100
2656,note_off,,,,,64,0,7,,,,,0,,,71,100
2656,note_off,,,,,64,0,15,,,,,7,,,47,100
2656,note_off,,,,,64,0,9,,,,,2,,,71,100
2688,note_on,,,,,32,0,10,,,,,3,,,72,47
2688,note_on,,,,,32,0,8,,,,,1,,,72,47
2688,note_on,,,,,32,0,15,,,,,7,,,45,100
2688,note_on,,,,,32,0,14,,,,,7,,,60,100
2688,note_on,,,,,0,0,14,,,,,7,,,64,100
2688,note_off,,,,,384,0,11,,,,,4,,,64,100
2688,note_on,,,,,32,0,7,,,,,0,,,72,107
2688,note_on,,,,,32,0,9,,,,,2,,,72,47
2688,note_on,,,,,32,0,12,,,,,5,,,45,97
2688,note_on,,,,,32,0,13,,,,,6,,,33,97
2816,note_off,,,,,128,0,13,,,,,6,,,33,100
2816,note_off,,,,,128,0,10,,,,,3,,,72,100
2816,note_off,,,,,128,0,8,,,,,1,,,72,100
2816,note_off,,,,,128,0,7,,,,,0,,,72,100
2816,note_off,,,,,128,0,12,,,,,5,,,45,100
2816,note_off,,,,,128,0,9,,,,,2,,,72,100
2816,note_off,,,,,0,0,14,,,,,7,,,64,100
2816,note_off,,,,,128,0,14,,,,,7,,,60,100
2816,note_off,,,,,128,0,15,,,,,7,,,45,100
2880,note_on,,,,,0,0,14,,,,,7,,,72,100
2880,note_on,,,,,64,0,15,,,,,7,,,57,100
2880,note_on,,,,,64,0,9,,,,,2,,,72,46
2880,note_on,,,,,64,0,7,,,,,0,,,72,106
2880,note_on,,,,,64,0,8,,,,,1,,,72,46
2880,note_on,,,,,64,0,10,,,,,3,,,72,46
2880,note_on,,,,,64,0,14,,,,,7,,,76,100
2880,note_on,,,,,192,0,11,,,,,4,,,64,96
2880,note_on,,,,,64,0,13,,,,,6,,,45,96
2880,note_on,,,,,64,0,12,,,,,5,,,57,96
2944,note_off,,,,,64,0,10,,,,,3,,,72,100
2944,note_off,,,,,64,0,8,,,,,1,,,72,100
2944,note_off,,,,,64,0,9,,,,,2,,,72,100
2944,note_off,,,,,64,0,7,,,,,0,,,72,100
2976,note_on,,,,,32,0,9,,,,,2,,,74,46
2976,note_on,,,,,32,0,8,,,,,1,,,74,46
2976,note_on,,,,,32,0,7,,,,,0,,,74,106
2976,note_on,,,,,32,0,10,,,,,3,,,74,46
3008,note_off,,,,,0,0,14,,,,,7,,,72,100
3008,note_off,,,,,128,0,12,,,,,5,,,57,100
3008,note_off,,,,,128,0,11,,,,,4,,,64,100
3008,note_off,,,,,128,0,15,,,,,7,,,57,100
3008,note_off,,,,,128,0,14,,,,,7,,,76,100
3008,note_off,,,,,128,0,13,,,,,6,,,45,100
3040,note_off,,,,,64,0,9,,,,,2,,,74,100
3040,note_off,,,,,64,0,7,,,,,0,,,74,100
3040,note_off,,,,,64,0,10,,,,,3,,,74,100
3040,note_off,,,,,64,0,8,,,,,1,,,74,100
3072,note_on,,,,,32,0,9,,,,,2,,,76,35
3072,note_on,,,,,32,0,7,,,,,0,,,76,95
3072,note_on,,,,,64,0,12,,,,,5,,,56,85
3072,note_on,,,,,64,0,13,,,,,6,,,44,85
3072,note_on,,,,,0,0,14,,,,,7,,,76,100
3072,note_on,,,,,32,0,8,,,,,1,,,76,35
3072,note_on,,,,,64,0,14,,,,,7,,,71,100
3072,note_on,,,,,64,0,11,,,,,4,,,71,85
3072,note_on,,,,,32,0,10,,,,,3,,,76,35
3072,note_on,,,,,64,0,15,,,,,7,,,56,100
3200,note_off,,,,,128,0,10,,,,,3,,,76,100
3200,note_off,,,,,128,0,7,,,,,0,,,76,100
3200,note_off,,,,,128,0,9,,,,,2,,,76,100
3200,note_off,,,,,128,0,8,,,,,1,,,76,100
3264,note_on,,,,,64,0,10,,,,,3,,,64,35
3264,note_off,,,,,0,0,14,,,,,7,,,76,100
3264,note_off,,,,,192,0,11,,,,,4,,,71,100
3264,note_off,,,,,192,0,15,,,,,7,,,56,100
3264,note_off,,,,,192,0,14,,,,,7,,,71,100
3264,note_off,,,,,192,0,13,,,,,6,,,44,100
3264,note_on,,,,,64,0,9,,,,,2,,,64,35
3264,note_on,,,,,64,0,7,,,,,0,,,64,95
3264,note_on,,,,,64,0,8,,,,,1,,,64,35
3264,note_off,,,,,192,0,12,,,,,5,,,56,100
3360,note_on,,,,,96,0,13,,,,,6,,,42,85
3360,note_on,,,,,96,0,11,,,,,4,,,69,85
3360,note_on,,,,,96,0,15,,,,,7,,,54,100
3360,note_on,,,,,96,0,12,,,,,5,,,54,85
3360,note_on,,,,,0,0,14,,,,,7,,,72,100
3360,note_on,,,,,96,0,14,,,,,7,,,69,100
3392,note_off,,,,,128,0,7,,,,,0,,,64,100
3392,note_off,,,,,128,0,9,,,,,2,,,64,100
3392,note_off,,,,,128,0,8,,,,,1,,,64,100
3392,note_off,,,,,128,0,10,,,,,3,,,64,100
3424,note_off,,,,,64,0,13,,,,,6,,,42,100
3424,note_off,,,,,64,0,11,,,,,4,,,69,100
3424,note_off,,,,,64,0,12,,,,,5,,,54,100
3424,note_off,,,,,0,0,14,,,,,7,,,72,100
3424,note_off,,,,,64,0,15,,,,,7,,,54,100
3424,note_off,,,,,64,0,14,,,,,7,,,69,100
3456,note_on,,,,,32,0,14,,,,,7,,,68,100
3456,note_on,,,,,0,0,14,,,,,7,,,71,100
3456,note_on,,,,,64,0,8,,,,,1,,,64,35
3456,note_on,,,,,32,0,11,,,,,4,,,68,85
3456,note_on,,,,,32,0,12,,,,,5,,,52,85
3456,note_on,,,,,64,0,9,,,,,2,,,64,35
3456,note_on,,,,,32,0,15,,,,,7,,,52,100
3456,note_on,,,,,32,0,13,,,,,6,,,40,85
3456,note_on,,,,,64,0,7,,,,,0,,,64,95
3456,note_on,,,,,64,0,10,,,,,3,,,64,35
3584,note_off,,,,,128,0,11,,,,,4,,,68,100
3584,note_off,,,,,128,0,13,,,,,6,,,40,100
3584,note_off,,,,,128,0,15,,,,,7,,,52,100
3584,note_off,,,,,0,0,14,,,,,7,,,71,100
3584,note_off,,,,,128,0,12,,,,,5,,,52,100
3584,note_off,,,,,128,0,7,,,,,0,,,64,100
3584,note_off,,,,,128,0,14,,,,,7,,,68,100
3584,note_off,,,,,128,0,10,,,,,3,,,64,100
3584,note_off,,,,,128,0,8,,,,,1,,,64,100
3584,note_off,,,,,128,0,9,,,,,2,,,64,100
3648,note_on,,,,,64,0,8,,,,,1,,,66,35
3648,note_on,,,,,64,0,12,,,,,5,,,50,85
3648,note_on,,,,,64,0,11,,,,,4,,,69,85
3648,note_on,,,,,64,0,13,,,,,6,,,38,85
3648,note_on,,,,,64,0,9,,,,,2,,,66,35
3648,note_on,,,,,64,0,15,,,,,7,,,50,100
3648,note_on,,,,,64,0,10,,,,,3,,,66,35
3648,note_on,,,,,0,0,14,,,,,7,,,69,100
3648,note_on,,,,,64,0,7,,,,,0,,,66,95
3648,note_on,,,,,64,0,14,,,,,7,,,66,100
3712,note_off,,,,,64,0,9,,,,,2,,,66,100
3712,note_off,,,,,64,0,10,,,,,3,,,66,100
3712,note_off,,,,,64,0,7,,,,,0,,,66,100
3712,note_off,,,,,64,0,8,,,,,1,,,66,100
3712,note_off,,,,,64,0,11,,,,,4,,,69,100
3744,note_on,,,,,32,0,7,,,,,0,,,68,95
3744,note_on,,,,,32,0,9,,,,,2,,,68,35
3744,note_on,,,,,32,0,10,,,,,3,,,68,35
3744,note_on,,,,,32,0,8,,,,,1,,,68,35
3744,note_on,,,,,32,0,11,,,,,4,,,71,85
3776,note_off,,,,,128,0,12,,,,,5,,,50,100
3776,note_off,,,,,128,0,15,,,,,7,,,50,100
3776,note_off,,,,,128,0,13,,,,,6,,,38,100
3776,note_off,,,,,128,0,14,,,,,7,,,66,100
3776,note_off,,,,,0,0,14,,,,,7,,,69,100
3808,note_off,,,,,64,0,9,,,,,2,,,68,100
3808,note_off,,,,,64,0,8,,,,,1,,,68,100
3808,note_off,,,,,64,0,7,,,,,0,,,68,100
3808,note_off,,,,,64,0,10,,,,,3,,,68,100
3808,note_off,,,,,64,0,11,,,,,4,,,71,100
3840,note_on,,,,,64,0,13,,,,,6,,,36,85
3840,note_on,,,,,64,0,12,,,,,5,,,48,85
3840,note_on,,,,,32,0,9,,,,,2,,,69,35
3840,note_on,,,,,32,0,11,,,,,4,,,64,85
3840,note_on,,,,,64,0,15,,,,,7,,,48,100
3840,note_on,,,,,0,0,14,,,,,7,,,64,100
3840,note_on,,,,,32,0,10,,,,,3,,,69,35
3840,note_on,,,,,64,0,14,,,,,7,,,69,100
3840,note_on,,,,,32,0,8,,,,,1,,,69,35
3840,note_on,,,,,32,0,7,,,,,0,,,69,95
3968,note_off,,,,,128,0,7,,,,,0,,,69,100
3968,note_off,,,,,128,0,10,,,,,3,,,69,100
3968,note_off,,,,,128,0,9,,,,,2,,,69,100
3968,note_off,,,,,128,0,8,,,,,1,,,69,100
4032,note_off,,,,,192,0,15,,,,,7,,,48,100
4032,note_off,,,,,192,0,14,,,,,7,,,69,100
4032,note_off,,,,,0,0,14,,,,,7,,,64,100
4032,note_off,,,,,192,0,13,,,,,6,,,36,100
4032,note_on,,,,,64,0,9,,,,,2,,,69,35
4032,note_on,,,,,64,0,10,,,,,3,,,69,35
4032,note_off,,,,,192,0,12,,,,,5,,,48,100
4032,note_on,,,,,64,0,7,,,,,0,,,69,95
4032,note_on,,,,,64,0,8,,,,,1,,,69,35
4096,note_off,,,,,64,0,10,,,,,3,,,69,100
4096,note_off,,,,,64,0,9,,,,,2,,,69,100
4096,note_off,,,,,64,0,8,,,,,1,,,69,100
4096,note_off,,,,,64,0,7,,,,,0,,,69,100
4128,note_on,,,,,32,0,9,,,,,2,,,71,35
4128,note_on,,,,,96,0,15,,,,,7,,,47,100
4128,note_on,,,,,96,0,13,,,,,6,,,35,85
4128,note_on,,,,,0,0,14,,,,,7,,,62,100
4128,note_on,,,,,32,0,7,,,,,0,,,71,95
4128,note_on,,,,,32,0,10,,,,,3,,,71,35
4128,note_on,,,,,96,0,12,,,,,5,,,47,85
4128,note_on,,,,,32,0,8,,,,,1,,,71,35
4128,note_on,,,,,96,0,14,,,,,7,,,66,100
4192,note_off,,,,,0,0,14,,,,,7,,,62,100
4192,note_off,,,,,64,0,10,,,,,3,,,71,100
4192,note_off,,,,,64,0,15,,,,,7,,,47,100
4192,note_off,,,,,64,0,12,,,,,5,,,47,100
4192,note_off,,,,,64,0,14,,,,,7,,,66,100
4192,note_off,,,,,64,0,8,,,,,1,,,71,100
4192,note_off,,,,,64,0,13,,,,,6,,,35,100
4192,note_off,,,,,64,0,9,,,,,2,,,71,100
4192,note_off,,,,,64,0,7,,,,,0,,,71,100
4224,note_on,,,,,32,0,13,,,,,6,,,33,85
4224,note_on,,,,,0,0,14,,,,,7,,,64,100
4224,note_on,,,,,32,0,14,,,,,7,,,60,100
4224,note_on,,,,,32,0,12,,,,,5,,,45,85
4224,note_on,,,,,32,0,15,,,,,7,,,45,100
4224,note_on,,,,,32,0,8,,,,,1,,,72,35
4224,note_on,,,,,32,0,9,,,,,2,,,72,35
4224,note_on,,,,,32,0,10,,,,,3,,,72,35
4224,note_off,,,,,384,0,11,,,,,4,,,64,100
4224,note_on,,,,,32,0,7,,,,,0,,,72,95
4352,note_off,,,,,128,0,8,,,,,1,,,72,100
4352,note_off,,,,,128,0,10,,,,,3,,,72,100
4352,note_off,,,,,128,0,7,,,,,0,,,72,100
4352,note_off,,,,,128,0,9,,,,,2,,,72,100
4352,note_off,,,,,128,0,15,,,,,7,,,45,100
4352,note_off,,,,,128,0,12,,,,,5,,,45,100
4352,note_off,,,,,128,0,13,,,,,6,,,33,100
4352,note_off,,,,,128,0,14,,,,,7,,,60,100
4352,note_off,,,,,0,0,14,,,,,7,,,64,100
4416,note_on,,,,,64,0,7,,,,,0,,,72,95
4416,note_on,,,,,64,0,10,,,,,3,,,72,35
4416,note_on,,,,,192,0,11,,,,,4,,,64,85
4416,note_on,,,,,64,0,12,,,,,5,,,57,85
4416,note_on,,,,,0,0,14,,,,,7,,,72,100
4416,note_on,,,,,64,0,8,,,,,1,,,72,35
4416,note_on,,,,,64,0,9,,,,,2,,,72,35
4416,note_on,,,,,64,0,14,,,,,7,,,76,100
4416,note_on,,,,,64,0,13,,,,,6,,,45,85
4416,note_on,,,,,64,0,15,,,,,7,,,57,100
4480,note_off,,,,,64,0,7,,,,,0,,,72,100
4480,note_off,,,,,64,0,10,,,,,3,,,72,100
4480,note_off,,,,,64,0,8,,,,,1,,,72,100
4480,note_off,,,,,64,0,9,,,,,2,,,72,100
4512,note_on,,,,,32,0,8,,,,,1,,,74,35
4512,note_on,,,,,32,0,7,,,,,0,,,74,95
4512,note_on,,,,,32,0,10,,,,,3,,,74,35
4512,note_on,,,,,32,0,9,,,,,2,,,74,35
4544,note_off,,,,,128,0,11,,,,,4,,,64,100
4544,note_off,,,,,128,0,13,,,,,6,,,45,100
4544,note_off,,,,,128,0,14,,,,,7,,,76,100
4544,note_off,,,,,0,0,14,,,,,7,,,72,100
4544,note_off,,,,,128,0,15,,,,,7,,,57,100
4544,note_off,,,,,128,0,12,,,,,5,,,57,100
4576,note_off,,,,,64,0,7,,,,,0,,,74,100
4576,note_off,,,,,64,0,10,,,,,3,,,74,100
4576,note_off,,,,,64,0,9,,,,,2,,,74,100
4576,note_off,,,,,64,0,8,,,,,1,,,74,100
4608,note_on,,,,,32,0,9,,,,,2,,,76,40
4608,note_on,,,,,32,0,8,,,,,1,,,76,40
4608,note_on,,,,,32,0,10,,,,,3,,,76,40
4608,note_on,,,,,32,0,7,,,,,0,,,76,100
4608,note_on,,,,,64,0,12,,,,,5,,,56,90
4608,note_on,,,,,64,0,11,,,,,4,,,71,90
4608,note_on,,,,,0,0,14,,,,,7,,,71,100
4608,note_on,,,,,64,0,14,,,,,7,,,76,100
4608,note_on,,,,,64,0,13,,,,,6,,,44,90
4608,note_on,,,,,64,0,15,,,,,7,,,56,100
4736,note_off,,,,,0,0,14,,,,,7,,,71,100
4736,note_off,,,,,128,0,11,,,,,4,,,71,100
4736,note_off,,,,,128,0,12,,,,,5,,,56,100
4736,note_off,,,,,128,0,9,,,,,2,,,76,100
4736,note_off,,,,,128,0,13,,,,,6,,,44,100
4736,note_off,,,,,128,0,7,,,,,0,,,76,100
4736,note_off,,,,,128,0,15,,,,,7,,,56,100
4736,note_off,,,,,128,0,8,,,,,1,,,76,100
4736,note_off,,,,,128,0,10,,,,,3,,,76,100
4736,note_off,,,,,128,0,14,,,,,7,,,76,100
4800,note_on,,,,,64,0,10,,,,,3,,,71,94
4800,note_on,,,,,64,0,11,,,,,4,,,68,94
4800,note_on,,,,,64,0,13,,,,,6,,,40,94
4800,note_on,,,,,64,0,9,,,,,2,,,76,94
4800,note_on,,,,,64,0,8,,,,,1,,,64,94
4800,note_on,,,,,64,0,15,,,,,7,,,52,100
4800,note_on,,,,,0,0,14,,,,,7,,,71,100
4800,note_on,,,,,64,0,7,,,,,0,,,64,94
4800,note_on,,,,,64,0,14,,,,,7,,,68,100
4800,note_on,,,,,64,0,12,,,,,5,,,52,94
4864,note_off,,,,,0,0,14,,,,,7,,,71,100
4864,note_off,,,,,64,0,12,,,,,5,,,52,100
4864,note_off,,,,,64,0,15,,,,,7,,,52,100
4864,note_off,,,,,64,0,13,,,,,6,,,40,100
4864,note_off,,,,,64,0,14,,,,,7,,,68,100
4864,note_off,,,,,64,0,11,,,,,4,,,68,100
4896,note_on,,,,,32,0,13,,,,,6,,,42,97
4896,note_on,,,,,32,0,15,,,,,7,,,54,100
4896,note_on,,,,,32,0,11,,,,,4,,,69,97
4896,note_on,,,,,32,0,12,,,,,5,,,54,97
4896,note_on,,,,,32,0,14,,,,,7,,,69,100
4896,note_on,,,,,0,0,14,,,,,7,,,72,100
4928,note_off,,,,,128,0,10,,,,,3,,,71,100
4928,note_off,,,,,128,0,9,,,,,2,,,76,100
4928,note_off,,,,,128,0,7,,,,,0,,,64,100
4928,note_off,,,,,128,0,8,,,,,1,,,64,100
4960,note_off,,,,,64,0,13,,,,,6,,,42,100
4960,note_off,,,,,64,0,11,,,,,4,,,69,100
4960,note_off,,,,,0,0,14,,,,,7,,,72,100
4960,note_off,,,,,64,0,14,,,,,7,,,69,100
4960,note_off,,,,,64,0,15,,,,,7,,,54,100
4960,note_off,,,,,64,0,12,,,,,5,,,54,100
4992,note_on,,,,,32,0,11,,,,,4,,,71,99
4992,note_on,,,,,64,0,9,,,,,2,,,76,99
4992,note_on,,,,,32,0,15,,,,,7,,,56,100
4992,note_on,,,,,32,0,12,,,,,5,,,56,99
4992,note_on,,,,,32,0,13,,,,,6,,,44,99
4992,note_on,,,,,64,0,10,,,,,3,,,71,99
4992,note_on,,,,,32,0,14,,,,,7,,,71,100
4992,note_on,,,,,0,0,14,,,,,7,,,76,100
5056,note_off,,,,,64,0,9,,,,,2,,,76,100
5088,note_on,,,,,32,0,9,,,,,2,,,77,100
5120,note_off,,,,,0,0,14,,,,,7,,,76,100
5120,note_off,,,,,128,0,13,,,,,6,,,44,100
5120,note_off,,,,,128,0,15,,,,,7,,,56,100
5120,note_off,,,,,128,0,11,,,,,4,,,71,100
5120,note_off,,,,,128,0,12,,,,,5,,,56,100
5120,note_off,,,,,128,0,14,,,,,7,,,71,100
5152,note_off,,,,,64,0,9,,,,,2,,,77,100
5184,note_on,,,,,64,0,15,,,,,7,,,52,100
5184,note_on,,,,,64,0,14,,,,,7,,,68,100
5184,note_on,,,,,256,0,8,,,,,1,,,71,100
5184,note_on,,,,,0,0,14,,,,,7,,,71,100
5184,note_on,,,,,64,0,11,,,,,4,,,68,100
5184,note_on,,,,,256,0,7,,,,,0,,,76,100
5184,note_on,,,,,64,0,12,,,,,5,,,52,100
5184,note_on,,,,,32,0,9,,,,,2,,,76,100
5184,note_on,,,,,64,0,13,,,,,6,,,40,100
5248,note_off,,,,,256,0,10,,,,,3,,,71,100
5312,note_off,,,,,128,0,15,,,,,7,,,52,100
5312,note_off,,,,,128,0,9,,,,,2,,,76,100
5312,note_off,,,,,128,0,11,,,,,4,,,68,100
5312,note_off,,,,,128,0,12,,,,,5,,,52,100
5312,note_off,,,,,128,0,8,,,,,1,,,71,100
5312,note_off,,,,,128,0,7,,,,,0,,,76,100
5312,note_off,,,,,0,0,14,,,,,7,,,71,100
5312,note_off,,,,,128,0,14,,,,,7,,,68,100
5312,note_off,,,,,128,0,13,,,,,6,,,40,100
5376,note_on,,,,,64,0,14,,,,,7,,,76,100
5376,note_on,,,,,64,0,7,,,,,0,,,76,100
5376,note_on,,,,,64,0,12,,,,,5,,,57,100
5376,note_on,,,,,0,0,14,,,,,7,,,72,100
5376,note_on,,,,,64,0,15,,,,,7,,,57,100
5376,note_on,,,,,64,0,11,,,,,4,,,64,100
5376,note_on,,,,,64,0,8,,,,,1,,,72,100
5376,note_on,,,,,64,0,13,,,,,6,,,45,100
5440,note_off,,,,,64,0,7,,,,,0,,,76,100
5440,note_off,,,,,64,0,8,,,,,1,,,72,100
5472,note_on,,,,,32,0,7,,,,,0,,,77,100
5472,note_on,,,,,32,0,8,,,,,1,,,74,100
5504,note_off,,,,,128,0,14,,,,,7,,,76,100
5504,note_off,,,,,128,0,13,,,,,6,,,45,100
5504,note_off,,,,,0,0,14,,,,,7,,,72,100
5504,note_off,,,,,128,0,15,,,,,7,,,57,100
5504,note_off,,,,,128,0,12,,,,,5,,,57,100
5536,note_off,,,,,64,0,8,,,,,1,,,74,100
5536,note_off,,,,,64,0,7,,,,,0,,,77,100
5568,note_on,,,,,64,0,14,,,,,7,,,72,100
5568,note_on,,,,,64,0,12,,,,,5,,,57,100
5568,note_on,,,,,32,0,7,,,,,0,,,76,100
5568,note_on,,,,,64,0,15,,,,,7,,,57,100
5568,note_on,,,,,64,0,13,,,,,6,,,45,100
5568,note_on,,,,,256,0,9,,,,,2,,,76,100
5568,note_on,,,,,32,0,8,,,,,1,,,72,100
5568,note_on,,,,,320,0,10,,,,,3,,,72,100
5632,note_off,,,,,64,0,15,,,,,7,,,57,100
5632,note_off,,,,,64,0,13,,,,,6,,,45,100
5632,note_off,,,,,256,0,11,,,,,4,,,64,100
5632,note_off,,,,,64,0,14,,,,,7,,,72,100
5632,note_off,,,,,64,0,12,,,,,5,,,57,100
5664,note_on,,,,,32,0,15,,,,,7,,,59,100
5664,note_on,,,,,32,0,13,,,,,6,,,47,100
5664,note_on,,,,,32,0,12,,,,,5,,,59,100
5664,note_on,,,,,32,0,14,,,,,7,,,74,100
5696,note_off,,,,,128,0,9,,,,,2,,,76,100
5696,note_off,,,,,128,0,7,,,,,0,,,76,100
5696,note_off,,,,,128,0,10,,,,,3,,,72,100
5696,note_off,,,,,128,0,8,,,,,1,,,72,100
5728,note_off,,,,,64,0,14,,,,,7,,,74,100
5728,note_off,,,,,64,0,12,,,,,5,,,59,100
5728,note_off,,,,,64,0,15,,,,,7,,,59,100
5728,note_off,,,,,64,0,13,,,,,6,,,47,100
5760,note_on,,,,,32,0,14,,,,,7,,,76,100
5760,note_on,,,,,64,0,9,,,,,2,,,76,100
5760,note_on,,,,,32,0,12,,,,,5,,,60,100
5760,note_on,,,,,32,0,15,,,,,7,,,60,100
5760,note_on,,,,,32,0,13,,,,,6,,,48,100
5760,note_on,,,,,64,0,10,,,,,3,,,72,100
5824,note_off,,,,,64,0,10,,,,,3,,,72,100
5824,note_off,,,,,64,0,9,,,,,2,,,76,100
5856,note_on,,,,,32,0,10,,,,,3,,,74,100
5856,note_on,,,,,32,0,9,,,,,2,,,77,100
5888,note_off,,,,,128,0,15,,,,,7,,,60,100
5888,note_off,,,,,128,0,14,,,,,7,,,76,100
5888,note_off,,,,,128,0,12,,,,,5,,,60,100
5888,note_off,,,,,128,0,13,,,,,6,,,48,100
5920,note_off,,,,,64,0,9,,,,,2,,,77,100
5920,note_off,,,,,64,0,10,,,,,3,,,74,100
5952,note_on,,,,,64,0,13,,,,,6,,,45,100
5952,note_on,,,,,64,0,15,,,,,7,,,57,100
5952,note_on,,,,,256,0,8,,,,,1,,,72,100
5952,note_on,,,,,32,0,9,,,,,2,,,76,100
5952,note_on,,,,,64,0,14,,,,,7,,,72,100
5952,note_on,,,,,32,0,10,,,,,3,,,72,100
5952,note_on,,,,,64,0,12,,,,,5,,,57,100
5952,note_on,,,,,320,0,11,,,,,4,,,69,100
5952,note_on,,,,,256,0,7,,,,,0,,,76,100
6080,note_off,,,,,128,0,7,,,,,0,,,76,100
6080,note_off,,,,,128,0,13,,,,,6,,,45,100
6080,note_off,,,,,128,0,9,,,,,2,,,76,100
6080,note_off,,,,,128,0,10,,,,,3,,,72,100
6080,note_off,,,,,128,0,11,,,,,4,,,69,100
6080,note_off,,,,,128,0,14,,,,,7,,,72,100
6080,note_off,,,,,128,0,15,,,,,7,,,57,100
6080,note_off,,,,,128,0,8,,,,,1,,,72,100
6080,note_off,,,,,128,0,12,,,,,5,,,57,100
6144,note_on,,,,,64,0,14,,,,,7,,,76,100
6144,note_on,,,,,0,0,14,,,,,7,,,71,100
6144,note_on,,,,,64,0,15,,,,,7,,,56,100
6144,note_on,,,,,64,0,11,,,,,4,,,71,85
6144,note_on,,,,,64,0,8,,,,,1,,,71,100
6144,note_on,,,,,64,0,12,,,,,5,,,56,85
6144,note_on,,,,,64,0,7,,,,,0,,,76,100
6144,note_on,,,,,64,0,13,,,,,6,,,44,85
6208,note_off,,,,,64,0,7,,,,,0,,,76,100
6240,note_on,,,,,32,0,7,,,,,0,,,77,100
6272,note_off,,,,,128,0,11,,,,,4,,,71,100
6272,note_off,,,,,128,0,15,,,,,7,,,56,100
6272,note_off,,,,,128,0,14,,,,,7,,,76,100
6272,note_off,,,,,0,0,14,,,,,7,,,71,100
6272,note_off,,,,,128,0,12,,,,,5,,,56,100
6272,note_off,,,,,128,0,13,,,,,6,,,44,100
6304,note_off,,,,,64,0,7,,,,,0,,,77,100
6336,note_on,,,,,64,0,11,,,,,4,,,68,85
6336,note_on,,,,,64,0,12,,,,,5,,,52,85
6336,note_on,,,,,64,0,13,,,,,6,,,40,85
6336,note_on,,,,,0,0,14,,,,,7,,,71,100
6336,note_on,,,,,64,0,14,,,,,7,,,68,100
6336,note_on,,,,,32,0,7,,,,,0,,,76,100
6336,note_on,,,,,256,0,10,,,,,3,,,71,85
6336,note_on,,,,,64,0,15,,,,,7,,,52,100
6336,note_on,,,,,256,0,9,,,,,2,,,76,85
6400,note_off,,,,,0,0,14,,,,,7,,,71,100
6400,note_off,,,,,64,0,14,,,,,7,,,68,100
6400,note_off,,,,,256,0,8,,,,,1,,,71,100
6400,note_off,,,,,64,0,13,,,,,6,,,40,100
6400,note_off,,,,,64,0,15,,,,,7,,,52,100
6400,note_off,,,,,64,0,11,,,,,4,,,68,100
6400,note_off,,,,,64,0,12,,,,,5,,,52,100
6432,note_on,,,,,32,0,15,,,,,7,,,54,100
6432,note_on,,,,,32,0,14,,,,,7,,,69,100
6432,note_on,,,,,32,0,13,,,,,6,,,42,85
6432,note_on,,,,,0,0,14,,,,,7,,,72,100
6432,note_on,,,,,32,0,11,,,,,4,,,69,85
6432,note_on,,,,,32,0,12,,,,,5,,,54,85
6464,note_off,,,,,128,0,7,,,,,0,,,76,100
6464,note_off,,,,,128,0,9,,,,,2,,,76,100
6464,note_off,,,,,128,0,10,,,,,3,,,71,100
6496,note_off,,,,,64,0,15,,,,,7,,,54,100
6496,note_off,,,,,0,0,14,,,,,7,,,72,100
6496,note_off,,,,,64,0,14,,,,,7,,,69,100
6496,note_off,,,,,64,0,13,,,,,6,,,42,100
6496,note_off,,,,,64,0,12,,,,,5,,,54,100
6496,note_off,,,,,64,0,11,,,,,4,,,69,100
6528,note_on,,,,,32,0,12,,,,,5,,,56,85
6528,note_on,,,,,0,0,14,,,,,7,,,76,100
6528,note_on,,,,,64,0,9,,,,,2,,,76,85
6528,note_on,,,,,32,0,15,,,,,7,,,56,100
6528,note_on,,,,,32,0,14,,,,,7,,,71,100
6528,note_on,,,,,64,0,10,,,,,3,,,71,85
6528,note_on,,,,,32,0,11,,,,,4,,,71,85
6528,note_on,,,,,32,0,13,,,,,6,,,44,85
6592,note_off,,,,,64,0,9,,,,,2,,,76,100
6624,note_on,,,,,32,0,9,,,,,2,,,77,85
6656,note_off,,,,,128,0,12,,,,,5,,,56,100
6656,note_off,,,,,128,0,11,,,,,4,,,71,100
6656,note_off,,,,,128,0,13,,,,,6,,,44,100
6656,note_off,,,,,128,0,14,,,,,7,,,71,100
6656,note_off,,,,,0,0,14,,,,,7,,,76,100
6656,note_off,,,,,128,0,15,,,,,7,,,56,100
6688,note_off,,,,,64,0,9,,,,,2,,,77,100
6720,note_on,,,,,64,0,12,,,,,5,,,52,85
6720,note_on,,,,,320,0,8,,,,,1,,,71,85
6720,note_on,,,,,64,0,15,,,,,7,,,52,100
6720,note_on,,,,,32,0,9,,,,,2,,,76,85
6720,note_on,,,,,64,0,11,,,,,4,,,68,85
6720,note_on,,,,,0,0,14,,,,,7,,,71,100
6720,note_on,,,,,64,0,14,,,,,7,,,68,100
6720,note_on,,,,,256,0,7,,,,,0,,,76,85
6720,note_on,,,,,64,0,13,,,,,6,,,40,85
6784,note_off,,,,,256,0,10,,,,,3,,,71,100
6848,note_off,,,,,128,0,8,,,,,1,,,71,100
6848,note_off,,,,,128,0,11,,,,,4,,,68,100
6848,note_off,,,,,0,0,14,,,,,7,,,71,100
6848,note_off,,,,,128,0,14,,,,,7,,,68,100
6848,note_off,,,,,128,0,15,,,,,7,,,52,100
6848,note_off,,,,,128,0,9,,,,,2,,,76,100
6848,note_off,,,,,128,0,13,,,,,6,,,40,100
6848,note_off,,,,,128,0,7,,,,,0,,,76,100
6848,note_off,,,,,128,0,12,,,,,5,,,52,100
6912,note_on,,,,,64,0,13,,,,,6,,,45,85
6912,note_on,,,,,64,0,12,,,,,5,,,57,85
6912,note_on,,,,,64,0,7,,,,,0,,,76,85
6912,note_on,,,,,64,0,8,,,,,1,,,72,85
6912,note_on,,,,,0,0,14,,,,,7,,,72,100
6912,note_on,,,,,64,0,11,,,,,4,,,64,85
6912,note_on,,,,,64,0,14,,,,,7,,,76,100
6912,note_on,,,,,64,0,15,,,,,7,,,57,100
6976,note_off,,,,,64,0,8,,,,,1,,,72,100
6976,note_off,,,,,64,0,7,,,,,0,,,76,100
7008,note_on,,,,,32,0,7,,,,,0,,,77,86
7008,note_on,,,,,32,0,8,,,,,1,,,74,86
7040,note_off,,,,,128,0,15,,,,,7,,,57,100
7040,note_off,,,,,0,0,14,,,,,7,,,72,100
7040,note_off,,,,,128,0,14,,,,,7,,,76,100
7040,note_off,,,,,128,0,12,,,,,5,,,57,100
7040,note_off,,,,,128,0,13,,,,,6,,,45,100
7072,note_off,,,,,64,0,8,,,,,1,,,74,100
7072,note_off,,,,,64,0,7,,,,,0,,,77,100
7104,note_on,,,,,64,0,15,,,,,7,,,57,100
7104,note_on,,,,,256,0,9,,,,,2,,,76,88
7104,note_on,,,,,64,0,13,,,,,6,,,45,88
7104,note_on,,,,,320,0,10,,,,,3,,,72,88
7104,note_on,,,,,64,0,14,,,,,7,,,72,100
7104,note_on,,,,,32,0,8,,,,,1,,,72,88
7104,note_on,,,,,64,0,12,,,,,5,,,57,88
7104,note_on,,,,,32,0,7,,,,,0,,,76,88
7168,note_off,,,,,64,0,14,,,,,7,,,72,100
7168,note_off,,,,,64,0,13,,,,,6,,,45,100
7168,note_off,,,,,256,0,11,,,,,4,,,64,100
7168,note_off,,,,,64,0,15,,,,,7,,,57,100
7168,note_off,,,,,64,0,12,,,,,5,,,57,100
7200,note_on,,,,,32,0,14,,,,,7,,,74,100
7200,note_on,,,,,32,0,13,,,,,6,,,47,89
7200,note_on,,,,,32,0,12,,,,,5,,,59,89
7200,note_on,,,,,32,0,15,,,,,7,,,59,100
7232,note_off,,,,,128,0,7,,,,,0,,,76,100
7232,note_off,,,,,128,0,9,,,,,2,,,76,100
7232,note_off,,,,,128,0,10,,,,,3,,,72,100
7232,note_off,,,,,128,0,8,,,,,1,,,72,100
7264,note_off,,,,,64,0,15,,,,,7,,,59,100
7264,note_off,,,,,64,0,13,,,,,6,,,47,100
7264,note_off,,,,,64,0,12,,,,,5,,,59,100
7264,note_off,,,,,64,0,14,,,,,7,,,74,100
7296,note_on,,,,,32,0,13,,,,,6,,,48,91
7296,note_on,,,,,64,0,9,,,,,2,,,76,91
7296,note_on,,,,,32,0,12,,,,,5,,,60,91
7296,note_on,,,,,64,0,10,,,,,3,,,72,91
7296,note_on,,,,,32,0,15,,,,,7,,,60,100
7296,note_on,,,,,32,0,14,,,,,7,,,76,100
7360,note_off,,,,,64,0,9,,,,,2,,,76,100
7360,note_off,,,,,64,0,10,,,,,3,,,72,100
7392,note_on,,,,,32,0,10,,,,,3,,,74,93
7392,note_on,,,,,32,0,9,,,,,2,,,77,93
7424,note_off,,,,,128,0,14,,,,,7,,,76,100
7424,note_off,,,,,128,0,12,,,,,5,,,60,100
7424,note_off,,,,,128,0,13,,,,,6,,,48,100
7424,note_off,,,,,128,0,15,,,,,7,,,60,100
7456,note_off,,,,,64,0,10,,,,,3,,,74,100
7456,note_off,,,,,64,0,9,,,,,2,,,77,100
7488,note_on,,,,,32,0,10,,,,,3,,,72,94
7488,note_on,,,,,64,0,12,,,,,5,,,57,94
7488,note_on,,,,,320,0,11,,,,,4,,,69,94
7488,note_on,,,,,32,0,9,,,,,2,,,76,94
7488,note_on,,,,,256,0,7,,,,,0,,,76,94
7488,note_on,,,,,256,0,8,,,,,1,,,72,94
7488,note_on,,,,,64,0,13,,,,,6,,,45,94
7488,note_on,,,,,64,0,14,,,,,7,,,72,100
7488,note_on,,,,,64,0,15,,,,,7,,,57,100
7616,note_off,,,,,128,0,9,,,,,2,,,76,100
7616,note_off,,,,,128,0,8,,,,,1,,,72,100
7616,note_off,,,,,128,0,10,,,,,3,,,72,100
7616,note_off,,,,,128,0,11,,,,,4,,,69,100
7616,note_off,,,,,128,0,7,,,,,0,,,76,100
7616,note_off,,,,,128,0,15,,,,,7,,,57,100
7616,note_off,,,,,128,0,13,,,,,6,,,45,100
7616,note_off,,,,,128,0,14,,,,,7,,,72,100
7616,note_off,,,,,128,0,12,,,,,5,,,57,100
7680,note_on,,,,,64,0,12,,,,,5,,,62,105
7680,note_on,,,,,64,0,15,,,,,7,,,62,100
7680,note_on,,,,,64,0,13,,,,,6,,,50,105
7680,note_on,,,,,64,0,11,,,,,4,,,69,105
7680,note_on,,,,,64,0,8,,,,,1,,,74,105
7680,note_on,,,,,64,0,10,,,,,3,,,74,55
7680,note_on,,,,,64,0,7,,,,,0,,,77,115
7680,set_tempo,,,,,7680,1,0,,500000,,,,,,,
7680,note_on,,,,,0,0,14,,,,,7,,,77,100
7680,note_on,,,,,64,0,14,,,,,7,,,69,100
7680,note_on,,,,,64,0,9,,,,,2,,,77,55
7744,note_off,,,,,64,0,9,,,,,2,,,77,100
7744,note_off,,,,,64,0,7,,,,,0,,,77,100
7744,note_off,,,,,64,0,8,,,,,1,,,74,100
7744,note_off,,,,,64,0,10,,,,,3,,,74,100
7776,note_on,,,,,32,0,9,,,,,2,,,79,54
7776,note_on,,,,,32,0,10,,,,,3,,,76,54
7776,note_on,,,,,32,0,8,,,,,1,,,76,104
7776,note_on,,,,,32,0,7,,,,,0,,,79,114
7840,note_off,,,,,64,0,8,,,,,1,,,76,100
7840,note_off,,,,,64,0,10,,,,,3,,,76,100
7840,note_off,,,,,64,0,7,,,,,0,,,79,100
7840,note_off,,,,,64,0,9,,,,,2,,,79,100
7872,note_on,,,,,32,0,7,,,,,0,,,77,113
7872,note_on,,,,,32,0,10,,,,,3,,,74,53
7872,note_on,,,,,32,0,8,,,,,1,,,74,103
7872,note_on,,,,,32,0,9,,,,,2,,,77,53
7936,note_off,,,,,256,0,15,,,,,7,,,62,100
7936,note_off,,,,,256,0,13,,,,,6,,,50,100
7936,note_off,,,,,256,0,14,,,,,7,,,69,100
7936,note_off,,,,,64,0,7,,,,,0,,,77,100
7936,note_off,,,,,64,0,9,,,,,2,,,77,100
7936,note_off,,,,,0,0,14,,,,,7,,,77,100
7936,note_off,,,,,64,0,10,,,,,3,,,74,100
7936,note_off,,,,,64,0,8,,,,,1,,,74,100
7936,note_off,,,,,256,0,12,,,,,5,,,62,100
7968,note_on,,,,,32,0,7,,,,,0,,,79,112
7968,note_on,,,,,32,0,10,,,,,3,,,76,52
7968,note_on,,,,,32,0,8,,,,,1,,,76,102
7968,note_on,,,,,32,0,9,,,,,2,,,79,52
8032,note_off,,,,,64,0,10,,,,,3,,,76,100
8032,note_off,,,,,64,0,7,,,,,0,,,79,100
8032,note_off,,,,,64,0,9,,,,,2,,,79,100
8032,note_off,,,,,64,0,8,,,,,1,,,76,100
8064,note_on,,,,,32,0,7,,,,,0,,,77,111
8064,note_on,,,,,32,0,10,,,,,3,,,74,51
8064,note_on,,,,,32,0,8,,,,,1,,,74,101
8064,note_on,,,,,128,0,12,,,,,5,,,50,101
8064,note_on,,,,,32,0,9,,,,,2,,,77,51
8064,note_on,,,,,0,0,14,,,,,7,,,69,100
8064,note_on,,,,,128,0,13,,,,,6,,,38,101
8064,note_on,,,,,128,0,14,,,,,7,,,65,100
8064,note_on,,,,,128,0,15,,,,,7,,,50,100
8128,note_off,,,,,64,0,9,,,,,2,,,77,100
8128,note_off,,,,,64,0,8,,,,,1,,,74,100
8128,note_off,,,,,64,0,10,,,,,3,,,74,100
8128,note_off,,,,,64,0,7,,,,,0,,,77,100
8160,note_on,,,,,32,0,8,,,,,1,,,76,100
8160,note_on,,,,,32,0,10,,,,,3,,,76,50
8160,note_on,,,,,32,0,7,,,,,0,,,79,110
8160,note_on,,,,,32,0,9,,,,,2,,,79,50
8192,note_off,,,,,512,0,11,,,,,4,,,69,100
8224,note_off,,,,,64,0,8,,,,,1,,,76,100
8224,note_off,,,,,64,0,9,,,,,2,,,79,100
8224,note_off,,,,,64,0,10,,,,,3,,,76,100
8224,note_off,,,,,64,0,7,,,,,0,,,79,100
8256,note_on,,,,,32,0,9,,,,,2,,,77,49
8256,note_on,,,,,32,0,10,,,,,3,,,74,49
8256,note_on,,,,,32,0,8,,,,,1,,,74,99
8256,note_on,,,,,32,0,7,,,,,0,,,77,109
8320,note_off,,,,,256,0,13,,,,,6,,,38,100
8320,note_off,,,,,64,0,7,,,,,0,,,77,100
8320,note_off,,,,,256,0,14,,,,,7,,,65,100
8320,note_off,,,,,0,0,14,,,,,7,,,69,100
8320,note_off,,,,,64,0,9,,,,,2,,,77,100
8320,note_off,,,,,256,0,12,,,,,5,,,50,100
8320,note_off,,,,,64,0,8,,,,,1,,,74,100
8320,note_off,,,,,64,0,10,,,,,3,,,74,100
8320,note_off,,,,,256,0,15,,,,,7,,,50,100
8352,note_on,,,,,32,0,9,,,,,2,,,79,48
8352,note_on,,,,,32,0,8,,,,,1,,,76,98
8352,note_on,,,,,32,0,10,,,,,3,,,76,48
8352,note_on,,,,,32,0,7,,,,,0,,,79,108
8416,note_off,,,,,64,0,8,,,,,1,,,76,100
8416,note_off,,,,,64,0,10,,,,,3,,,76,100
8416,note_off,,,,,64,0,9,,,,,2,,,79,100
8416,note_off,,,,,64,0,7,,,,,0,,,79,100
8448,note_on,,,,,128,0,12,,,,,5,,,55,97
8448,note_on,,,,,32,0,9,,,,,2,,,77,47
8448,note_on,,,,,256,0,11,,,,,4,,,71,97
8448,note_on,,,,,32,0,8,,,,,1,,,74,97
8448,note_on,,,,,32,0,7,,,,,0,,,77,107
8448,note_on,,,,,128,0,14,,,,,7,,,74,100
8448,note_on,,,,,0,0,14,,,,,7,,,77,100
8448,note_on,,,,,128,0,13,,,,,6,,,43,97
8448,note_on,,,,,32,0,10,,,,,3,,,74,47
8448,note_on,,,,,128,0,15,,,,,7,,,55,100
8576,note_off,,,,,128,0,7,,,,,0,,,77,100
8576,note_off,,,,,128,0,9,,,,,2,,,77,100
8576,note_off,,,,,128,0,10,,,,,3,,,74,100
8576,note_off,,,,,128,0,8,,,,,1,,,74,100
8640,note_on,,,,,64,0,8,,,,,1,,,77,95
8640,note_on,,,,,64,0,7,,,,,0,,,74,105
8640,note_on,,,,,64,0,9,,,,,2,,,74,45
8640,note_on,,,,,64,0,10,,,,,3,,,77,45
8704,note_off,,,,,0,0,14,,,,,7,,,77,100
8704,note_off,,,,,256,0,14,,,,,7,,,74,100
8704,note_off,,,,,256,0,13,,,,,6,,,43,100
8704,note_off,,,,,256,0,15,,,,,7,,,55,100
8704,note_off,,,,,256,0,12,,,,,5,,,55,100
8768,note_off,,,,,128,0,10,,,,,3,,,77,100
8768,note_off,,,,,128,0,7,,,,,0,,,74,100
8768,note_off,,,,,128,0,8,,,,,1,,,77,100
8768,note_off,,,,,128,0,9,,,,,2,,,74,100
8832,note_on,,,,,64,0,7,,,,,0,,,71,103
8832,note_on,,,,,128,0,15,,,,,7,,,43,100
8832,note_on,,,,,128,0,12,,,,,5,,,43,93
8832,note_on,,,,,64,0,8,,,,,1,,,74,93
8832,note_on,,,,,128,0,13,,,,,6,,,43,93
8832,note_on,,,,,0,0,14,,,,,7,,,74,100
8832,note_on,,,,,128,0,14,,,,,7,,,65,100
8832,note_on,,,,,64,0,9,,,,,2,,,71,43
8832,note_on,,,,,64,0,10,,,,,3,,,74,43
8960,note_off,,,,,128,0,10,,,,,3,,,74,100
8960,note_off,,,,,128,0,8,,,,,1,,,74,100
8960,note_off,,,,,128,0,9,,,,,2,,,71,100
8960,note_off,,,,,512,0,11,,,,,4,,,71,100
8960,note_off,,,,,128,0,7,,,,,0,,,71,100
9024,note_on,,,,,64,0,10,,,,,3,,,71,41
9024,note_on,,,,,64,0,9,,,,,2,,,67,41
9024,note_on,,,,,64,0,7,,,,,0,,,67,101
9024,note_on,,,,,64,0,8,,,,,1,,,71,91
9088,note_off,,,,,0,0,14,,,,,7,,,74,100
9088,note_off,,,,,256,0,14,,,,,7,,,65,100
9088,note_off,,,,,256,0,13,,,,,6,,,43,100
9088,note_off,,,,,256,0,12,,,,,5,,,43,100
9088,note_off,,,,,256,0,15,,,,,7,,,43,100
9152,note_off,,,,,128,0,10,,,,,3,,,71,100
9152,note_off,,,,,128,0,7,,,,,0,,,67,100
9152,note_off,,,,,128,0,8,,,,,1,,,71,100
9152,note_off,,,,,128,0,9,,,,,2,,,67,100
9216,note_on,,,,,64,0,7,,,,,0,,,76,110
9216,note_on,,,,,128,0,15,,,,,7,,,60,100
9216,note_on,,,,,0,0,14,,,,,7,,,71,100
9216,note_on,,,,,128,0,14,,,,,7,,,67,100
9216,note_on,,,,,128,0,13,,,,,6,,,48,100
9216,note_on,,,,,128,0,12,,,,,5,,,60,100
9216,note_on,,,,,256,0,11,,,,,4,,,67,100
9216,note_on,,,,,64,0,8,,,,,1,,,72,100
9216,note_on,,,,,64,0,10,,,,,3,,,72,50
9216,note_on,,,,,64,0,9,,,,,2,,,76,50
9280,note_off,,,,,64,0,8,,,,,1,,,72,100
9280,note_off,,,,,64,0,7,,,,,0,,,76,100
9280,note_off,,,,,64,0,10,,,,,3,,,72,100
9280,note_off,,,,,64,0,9,,,,,2,,,76,100
9312,note_on,,,,,32,0,10,,,,,3,,,74,49
9312,note_on,,,,,32,0,9,,,,,2,,,77,49
9312,note_on,,,,,32,0,7,,,,,0,,,77,109
9312,note_on,,,,,32,0,8,,,,,1,,,74,99
9376,note_off,,,,,64,0,7,,,,,0,,,77,100
9376,note_off,,,,,64,0,9,,,,,2,,,77,100
9376,note_off,,,,,64,0,10,,,,,3,,,74,100
9376,note_off,,,,,64,0,8,,,,,1,,,74,100
9408,note_on,,,,,32,0,7,,,,,0,,,76,108
9408,note_on,,,,,32,0,9,,,,,2,,,76,48
9408,note_on,,,,,32,0,10,,,,,3,,,72,48
9408,note_on,,,,,32,0,8,,,,,1,,,72,98
9472,note_off,,,,,0,0,14,,,,,7,,,71,100
9472,note_off,,,,,64,0,8,,,,,1,,,72,100
9472,note_off,,,,,256,0,13,,,,,6,,,48,100
9472,note_off,,,,,256,0,12,,,,,5,,,60,100
9472,note_off,,,,,256,0,15,,,,,7,,,60,100
9472,note_off,,,,,64,0,10,,,,,3,,,72,100
9472,note_off,,,,,64,0,9,,,,,2,,,76,100
9472,note_off,,,,,64,0,7,,,,,0,,,76,100
9472,note_off,,,,,256,0,14,,,,,7,,,67,100
9504,note_on,,,,,32,0,10,,,,,3,,,74,47
9504,note_on,,,,,32,0,8,,,,,1,,,74,97
9504,note_on,,,,,32,0,7,,,,,0,,,77,107
9504,note_on,,,,,32,0,9,,,,,2,,,77,47
9568,note_off,,,,,64,0,7,,,,,0,,,77,100
9568,note_off,,,,,64,0,8,,,,,1,,,74,100
9568,note_off,,,,,64,0,9,,,,,2,,,77,100
9568,note_off,,,,,64,0,10,,,,,3,,,74,100
9600,note_on,,,,,128,0,13,,,,,6,,,36,96
9600,note_on,,,,,128,0,15,,,,,7,,,48,100
9600,note_on,,,,,128,0,12,,,,,5,,,48,96
9600,note_on,,,,,32,0,8,,,,,1,,,72,96
9600,note_on,,,,,32,0,10,,,,,3,,,72,46
9600,note_on,,,,,0,0,14,,,,,7,,,67,100
9600,note_on,,,,,32,0,9,,,,,2,,,76,46
9600,note_on,,,,,32,0,7,,,,,0,,,76,106
9600,note_on,,,,,128,0,14,,,,,7,,,59,100
9664,note_off,,,,,64,0,8,,,,,1,,,72,100
9664,note_off,,,,,64,0,7,,,,,0,,,76,100
9664,note_off,,,,,64,0,9,,,,,2,,,76,100
9664,note_off,,,,,64,0,10,,,,,3,,,72,100
9696,note_on,,,,,32,0,7,,,,,0,,,77,105
9696,note_on,,,,,32,0,8,,,,,1,,,74,95
9696,note_on,,,,,32,0,9,,,,,2,,,77,45
9696,note_on,,,,,32,0,10,,,,,3,,,74,45
9728,note_off,,,,,512,0,11,,,,,4,,,67,100
9760,note_off,,,,,64,0,8,,,,,1,,,74,100
9760,note_off,,,,,64,0,10,,,,,3,,,74,100
9760,note_off,,,,,64,0,7,,,,,0,,,77,100
9760,note_off,,,,,64,0,9,,,,,2,,,77,100
9792,note_on,,,,,32,0,10,,,,,3,,,72,44
9792,note_on,,,,,32,0,9,,,,,2,,,76,44
9792,note_on,,,,,32,0,7,,,,,0,,,76,104
9792,note_on,,,,,32,0,8,,,,,1,,,72,94
9856,note_off,,,,,256,0,14,,,,,7,,,59,100
9856,note_off,,,,,256,0,15,,,,,7,,,48,100
9856,note_off,,,,,64,0,7,,,,,0,,,76,100
9856,note_off,,,,,0,0,14,,,,,7,,,67,100
9856,note_off,,,,,64,0,10,,,,,3,,,72,100
9856,note_off,,,,,256,0,13,,,,,6,,,36,100
9856,note_off,,,,,64,0,8,,,,,1,,,72,100
9856,note_off,,,,,256,0,12,,,,,5,,,48,100
9856,note_off,,,,,64,0,9,,,,,2,,,76,100
9888,note_on,,,,,32,0,8,,,,,1,,,74,93
9888,note_on,,,,,32,0,9,,,,,2,,,77,43
9888,note_on,,,,,32,0,7,,,,,0,,,77,103
9888,note_on,,,,,32,0,10,,,,,3,,,74,43
9952,note_off,,,,,64,0,8,,,,,1,,,74,100
9952,note_off,,,,,64,0,9,,,,,2,,,77,100
9952,note_off,,,,,64,0,7,,,,,0,,,77,100
9952,note_off,,,,,64,0,10,,,,,3,,,74,100
9984,note_on,,,,,32,0,9,,,,,2,,,76,42
9984,note_on,,,,,32,0,10,,,,,3,,,72,42
9984,note_on,,,,,32,0,7,,,,,0,,,76,102
9984,note_on,,,,,128,0,15,,,,,7,,,53,100
9984,note_on,,,,,256,0,11,,,,,4,,,69,92
9984,note_on,,,,,32,0,8,,,,,1,,,72,92
9984,note_on,,,,,128,0,12,,,,,5,,,53,92
9984,note_on,,,,,0,0,14,,,,,7,,,76,100
9984,note_on,,,,,128,0,14,,,,,7,,,72,100
9984,note_on,,,,,128,0,13,,,,,6,,,41,92
10112,note_off,,,,,128,0,9,,,,,2,,,76,100
10112,note_off,,,,,128,0,8,,,,,1,,,72,100
10112,note_off,,,,,128,0,10,,,,,3,,,72,100
10112,note_off,,,,,128,0,7,,,,,0,,,76,100
10176,note_on,,,,,64,0,9,,,,,2,,,72,40
10176,note_on,,,,,64,0,8,,,,,1,,,76,90
10176,note_on,,,,,64,0,7,,,,,0,,,72,100
10176,note_on,,,,,64,0,10,,,,,3,,,76,40
10240,note_off,,,,,256,0,12,,,,,5,,,53,100
10240,note_off,,,,,0,0,14,,,,,7,,,76,100
10240,note_off,,,,,256,0,14,,,,,7,,,72,100
10240,note_off,,,,,256,0,13,,,,,6,,,41,100
10240,note_off,,,,,256,0,15,,,,,7,,,53,100
10304,note_off,,,,,128,0,9,,,,,2,,,72,100
10304,note_off,,,,,128,0,7,,,,,0,,,72,100
10304,note_off,,,,,128,0,10,,,,,3,,,76,100
10304,note_off,,,,,128,0,8,,,,,1,,,76,100
10368,note_on,,,,,128,0,12,,,,,5,,,41,88
10368,note_on,,,,,64,0,9,,,,,2,,,69,38
10368,note_on,,,,,128,0,15,,,,,7,,,41,100
10368,note_on,,,,,64,0,8,,,,,1,,,72,88
10368,note_on,,,,,128,0,13,,,,,6,,,41,88
10368,note_on,,,,,128,0,14,,,,,7,,,64,100
10368,note_on,,,,,64,0,10,,,,,3,,,72,38
10368,note_on,,,,,64,0,7,,,,,0,,,69,98
10368,note_on,,,,,0,0,14,,,,,7,,,72,100
10496,note_off,,,,,512,0,11,,,,,4,,,69,100
10496,note_off,,,,,128,0,10,,,,,3,,,72,100
10496,note_off,,,,,128,0,9,,,,,2,,,69,100
10496,note_off,,,,,128,0,8,,,,,1,,,72,100
10496,note_off,,,,,128,0,7,,,,,0,,,69,100
10560,note_on,,,,,64,0,10,,,,,3,,,69,36
10560,note_on,,,,,64,0,7,,,,,0,,,65,96
10560,note_on,,,,,64,0,8,,,,,1,,,69,86
10560,note_on,,,,,64,0,9,,,,,2,,,65,36
10624,note_off,,,,,0,0,14,,,,,7,,,72,100
10624,note_off,,,,,256,0,15,,,,,7,,,41,100
10624,note_off,,,,,256,0,12,,,,,5,,,41,100
10624,note_off,,,,,256,0,14,,,,,7,,,64,100
10624,note_off,,,,,256,0,13,,,,,6,,,41,100
10688,note_off,,,,,128,0,8,,,,,1,,,69,100
10688,note_off,,,,,128,0,9,,,,,2,,,65,100
10688,note_off,,,,,128,0,10,,,,,3,,,69,100
10688,note_off,,,,,128,0,7,,,,,0,,,65,100
10752,note_on,,,,,64,0,8,,,,,1,,,71,95
10752,note_on,,,,,256,0,11,,,,,4,,,66,95
10752,note_on,,,,,64,0,10,,,,,3,,,71,45
10752,note_on,,,,,128,0,13,,,,,6,,,47,95
10752,note_on,,,,,64,0,9,,,,,2,,,74,45
10752,note_on,,,,,128,0,12,,,,,5,,,59,95
10752,note_on,,,,,128,0,15,,,,,7,,,59,100
10752,note_on,,,,,64,0,7,,,,,0,,,74,105
10752,note_on,,,,,128,0,14,,,,,7,,,66,100
10752,note_on,,,,,0,0,14,,,,,7,,,69,100
10816,note_off,,,,,64,0,8,,,,,1,,,71,100
10816,note_off,,,,,64,0,10,,,,,3,,,71,100
10816,note_off,,,,,64,0,9,,,,,2,,,74,100
10816,note_off,,,,,64,0,7,,,,,0,,,74,100
10848,note_on,,,,,32,0,8,,,,,1,,,72,94
10848,note_on,,,,,32,0,10,,,,,3,,,72,44
10848,note_on,,,,,32,0,9,,,,,2,,,76,44
10848,note_on,,,,,32,0,7,,,,,0,,,76,104
10912,note_off,,,,,64,0,10,,,,,3,,,72,100
10912,note_off,,,,,64,0,8,,,,,1,,,72,100
10912,note_off,,,,,64,0,9,,,,,2,,,76,100
10912,note_off,,,,,64,0,7,,,,,0,,,76,100
10944,note_on,,,,,32,0,9,,,,,2,,,74,43
10944,note_on,,,,,32,0,10,,,,,3,,,71,43
10944,note_on,,,,,32,0,7,,,,,0,,,74,103
10944,note_on,,,,,32,0,8,,,,,1,,,71,93
11008,note_off,,,,,64,0,8,,,,,1,,,71,100
11008,note_off,,,,,256,0,15,,,,,7,,,59,100
11008,note_off,,,,,0,0,14,,,,,7,,,69,100
11008,note_off,,,,,64,0,9,,,,,2,,,74,100
11008,note_off,,,,,256,0,13,,,,,6,,,47,100
11008,note_off,,,,,64,0,10,,,,,3,,,71,100
11008,note_off,,,,,64,0,7,,,,,0,,,74,100
11008,note_off,,,,,256,0,14,,,,,7,,,66,100
11008,note_off,,,,,256,0,12,,,,,5,,,59,100
11040,note_on,,,,,32,0,8,,,,,1,,,72,92
11040,note_on,,,,,32,0,10,,,,,3,,,72,42
11040,note_on,,,,,32,0,7,,,,,0,,,76,102
11040,note_on,,,,,32,0,9,,,,,2,,,76,42
11104,note_off,,,,,64,0,9,,,,,2,,,76,100
11104,note_off,,,,,64,0,8,,,,,1,,,72,100
11104,note_off,,,,,64,0,7,,,,,0,,,76,100
11104,note_off,,,,,64,0,10,,,,,3,,,72,100
11136,note_on,,,,,32,0,8,,,,,1,,,71,91
11136,note_on,,,,,0,0,14,,,,,7,,,66,100
11136,note_on,,,,,32,0,7,,,,,0,,,74,101
11136,note_on,,,,,128,0,14,,,,,7,,,57,100
11136,note_on,,,,,32,0,9,,,,,2,,,74,41
11136,note_on,,,,,128,0,12,,,,,5,,,47,91
11136,note_on,,,,,32,0,10,,,,,3,,,71,41
11136,note_on,,,,,128,0,15,,,,,7,,,47,100
11136,note_on,,,,,128,0,13,,,,,6,,,35,91
11200,note_off,,,,,64,0,9,,,,,2,,,74,100
11200,note_off,,,,,64,0,10,,,,,3,,,71,100
11200,note_off,,,,,64,0,8,,,,,1,,,71,100
11200,note_off,,,,,64,0,7,,,,,0,,,74,100
11232,note_on,,,,,32,0,10,,,,,3,,,72,40
11232,note_on,,,,,32,0,9,,,,,2,,,76,40
11232,note_on,,,,,32,0,8,,,,,1,,,72,90
11232,note_on,,,,,32,0,7,,,,,0,,,76,100
11264,note_off,,,,,512,0,11,,,,,4,,,66,100
11296,note_off,,,,,64,0,8,,,,,1,,,72,100
11296,note_off,,,,,64,0,9,,,,,2,,,76,100
11296,note_off,,,,,64,0,7,,,,,0,,,76,100
11296,note_off,,,,,64,0,10,,,,,3,,,72,100
11328,note_on,,,,,32,0,8,,,,,1,,,71,89
11328,note_on,,,,,32,0,9,,,,,2,,,74,39
11328,note_on,,,,,32,0,7,,,,,0,,,74,99
11328,note_on,,,,,32,0,10,,,,,3,,,71,39
11392,note_off,,,,,64,0,9,,,,,2,,,74,100
11392,note_off,,,,,256,0,13,,,,,6,,,35,100
11392,note_off,,,,,64,0,10,,,,,3,,,71,100
11392,note_off,,,,,64,0,7,,,,,0,,,74,100
11392,note_off,,,,,64,0,8,,,,,1,,,71,100
11392,note_off,,,,,0,0,14,,,,,7,,,66,100
11392,note_off,,,,,256,0,15,,,,,7,,,47,100
11392,note_off,,,,,256,0,12,,,,,5,,,47,100
11392,note_off,,,,,256,0,14,,,,,7,,,57,100
11424,note_on,,,,,32,0,10,,,,,3,,,72,38
11424,note_on,,,,,32,0,7,,,,,0,,,76,98
11424,note_on,,,,,32,0,9,,,,,2,,,76,38
11424,note_on,,,,,32,0,8,,,,,1,,,72,88
11488,note_off,,,,,64,0,10,,,,,3,,,72,100
11488,note_off,,,,,64,0,9,,,,,2,,,76,100
11488,note_off,,,,,64,0,8,,,,,1,,,72,100
11488,note_off,,,,,64,0,7,,,,,0,,,76,100
11520,note_on,,,,,128,0,14,,,,,7,,,68,100
11520,note_on,,,,,32,0,8,,,,,1,,,71,87
11520,note_on,,,,,32,0,9,,,,,2,,,74,37
11520,note_on,,,,,32,0,10,,,,,3,,,71,37
11520,note_on,,,,,128,0,15,,,,,7,,,52,100
11520,note_on,,,,,0,0,14,,,,,7,,,74,100
11520,note_on,,,,,256,0,11,,,,,4,,,68,87
11520,note_on,,,,,128,0,13,,,,,6,,,40,87
11520,note_on,,,,,32,0,7,,,,,0,,,74,97
11520,note_on,,,,,128,0,12,,,,,5,,,52,87
11648,note_off,,,,,128,0,10,,,,,3,,,71,100
11648,note_off,,,,,128,0,9,,,,,2,,,74,100
11648,note_off,,,,,128,0,8,,,,,1,,,71,100
11648,note_off,,,,,128,0,7,,,,,0,,,74,100
11712,note_on,,,,,64,0,8,,,,,1,,,74,85
11712,note_on,,,,,64,0,10,,,,,3,,,74,35
11712,note_on,,,,,64,0,9,,,,,2,,,71,35
11712,note_on,,,,,64,0,7,,,,,0,,,71,95
11776,note_off,,,,,0,0,14,,,,,7,,,74,100
11776,note_off,,,,,256,0,12,,,,,5,,,52,100
11776,note_off,,,,,256,0,14,,,,,7,,,68,100
11776,note_off,,,,,256,0,15,,,,,7,,,52,100
11776,note_off,,,,,256,0,13,,,,,6,,,40,100
11840,note_off,,,,,128,0,9,,,,,2,,,71,100
11840,note_off,,,,,128,0,10,,,,,3,,,74,100
11840,note_off,,,,,128,0,7,,,,,0,,,71,100
11840,note_off,,,,,128,0,8,,,,,1,,,74,100
11904,note_on,,,,,64,0,8,,,,,1,,,71,83
11904,note_on,,,,,64,0,7,,,,,0,,,68,93
11904,note_on,,,,,64,0,10,,,,,3,,,71,33
11904,note_on,,,,,0,0,14,,,,,7,,,68,100
11904,note_on,,,,,128,0,14,,,,,7,,,62,100
11904,note_on,,,,,128,0,12,,,,,5,,,40,83
11904,note_on,,,,,128,0,15,,,,,7,,,40,100
11904,note_on,,,,,128,0,13,,,,,6,,,40,83
11904,note_on,,,,,64,0,9,,,,,2,,,68,33
12032,note_off,,,,,128,0,10,,,,,3,,,71,100
12032,note_off,,,,,128,0,8,,,,,1,,,71,100
12032,note_off,,,,,512,0,11,,,,,4,,,68,100
12032,note_off,,,,,128,0,9,,,,,2,,,68,100
12032,note_off,,,,,128,0,7,,,,,0,,,68,100
12096,note_on,,,,,64,0,10,,,,,3,,,68,31
12096,note_on,,,,,64,0,8,,,,,1,,,68,81
12096,note_on,,,,,64,0,9,,,,,2,,,64,31
12096,note_on,,,,,64,0,7,,,,,0,,,64,91
12160,note_off,,,,,0,0,14,,,,,7,,,68,100
12160,note_off,,,,,256,0,14,,,,,7,,,62,100
12160,note_off,,,,,256,0,12,,,,,5,,,40,100
12160,note_off,,,,,256,0,13,,,,,6,,,40,100
12160,note_off,,,,,256,0,15,,,,,7,,,40,100
12224,note_off,,,,,128,0,7,,,,,0,,,64,100
12224,note_off,,,,,128,0,10,,,,,3,,,68,100
12224,note_off,,,,,128,0,9,,,,,2,,,64,100
12224,note_off,,,,,128,0,8,,,,,1,,,68,100
12288,note_on,,,,,256,0,11,,,,,4,,,64,80
12288,note_on,,,,,0,0,14,,,,,7,,,72,100
12288,note_on,,,,,64,0,9,,,,,2,,,72,30
12288,note_on,,,,,128,0,14,,,,,7,,,76,100
12288,note_on,,,,,64,0,7,,,,,0,,,72,90
12288,note_on,,,,,128,0,15,,,,,7,,,57,100
12288,note_on,,,,,128,0,13,,,,,6,,,45,80
12288,note_on,,,,,64,0,10,,,,,3,,,69,30
12288,note_on,,,,,128,0,12,,,,,5,,,57,80
12288,note_on,,,,,64,0,8,,,,,1,,,69,80
12416,note_off,,,,,128,0,8,,,,,1,,,69,100
12416,note_off,,,,,128,0,7,,,,,0,,,72,100
12416,note_off,,,,,128,0,15,,,,,7,,,57,100
12416,note_off,,,,,0,0,14,,,,,7,,,72,100
12416,note_off,,,,,128,0,9,,,,,2,,,72,100
12416,note_off,,,,,128,0,13,,,,,6,,,45,100
12416,note_off,,,,,128,0,14,,,,,7,,,76,100
12416,note_off,,,,,128,0,12,,,,,5,,,57,100
12416,note_off,,,,,128,0,10,,,,,3,,,69,100
12480,note_on,,,,,64,0,10,,,,,3,,,72,29
12480,note_on,,,,,64,0,14,,,,,7,,,72,100
12480,note_on,,,,,64,0,7,,,,,0,,,69,89
12480,note_on,,,,,64,0,9,,,,,2,,,69,29
12480,note_on,,,,,64,0,8,,,,,1,,,72,79
12480,note_on,,,,,64,0,15,,,,,7,,,57,100
12480,note_on,,,,,64,0,13,,,,,6,,,45,79
12480,note_on,,,,,64,0,12,,,,,5,,,57,79
12544,note_off,,,,,64,0,8,,,,,1,,,72,100
12544,note_off,,,,,64,0,13,,,,,6,,,45,100
12544,note_off,,,,,64,0,14,,,,,7,,,72,100
12544,note_off,,,,,64,0,15,,,,,7,,,57,100
12544,note_off,,,,,64,0,10,,,,,3,,,72,100
12544,note_off,,,,,64,0,12,,,,,5,,,57,100
12544,note_off,,,,,256,0,11,,,,,4,,,64,100
12576,note_on,,,,,32,0,8,,,,,1,,,74,79
12576,note_on,,,,,32,0,13,,,,,6,,,47,79
12576,note_on,,,,,32,0,15,,,,,7,,,59,100
12576,note_on,,,,,32,0,14,,,,,7,,,74,100
12576,note_on,,,,,32,0,12,,,,,5,,,59,79
12576,note_on,,,,,32,0,10,,,,,3,,,74,29
12608,note_off,,,,,128,0,7,,,,,0,,,69,100
12608,note_off,,,,,128,0,9,,,,,2,,,69,100
12640,note_off,,,,,64,0,12,,,,,5,,,59,100
12640,note_off,,,,,64,0,8,,,,,1,,,74,100
12640,note_off,,,,,64,0,14,,,,,7,,,74,100
12640,note_off,,,,,64,0,15,,,,,7,,,59,100
12640,note_off,,,,,64,0,13,,,,,6,,,47,100
12640,note_off,,,,,64,0,10,,,,,3,,,74,100
12672,note_on,,,,,32,0,13,,,,,6,,,48,78
12672,note_on,,,,,32,0,14,,,,,7,,,76,100
12672,note_on,,,,,32,0,8,,,,,1,,,76,78
12672,note_on,,,,,32,0,15,,,,,7,,,60,100
12672,note_on,,,,,32,0,12,,,,,5,,,60,78
12672,note_on,,,,,32,0,10,,,,,3,,,76,28
12800,note_off,,,,,128,0,10,,,,,3,,,76,100
12800,note_off,,,,,128,0,12,,,,,5,,,60,100
12800,note_off,,,,,128,0,8,,,,,1,,,76,100
12800,note_off,,,,,128,0,13,,,,,6,,,48,100
12800,note_off,,,,,128,0,14,,,,,7,,,76,100
12800,note_off,,,,,128,0,15,,,,,7,,,60,100
12864,note_on,,,,,64,0,15,,,,,7,,,57,100
12864,note_on,,,,,64,0,12,,,,,5,,,57,77
12864,note_on,,,,,64,0,8,,,,,1,,,72,77
12864,note_on,,,,,64,0,14,,,,,7,,,72,100
12864,note_on,,,,,64,0,13,,,,,6,,,45,77
12864,note_on,,,,,256,0,7,,,,,0,,,76,87
12864,note_on,,,,,256,0,9,,,,,2,,,76,27
12864,note_on,,,,,64,0,10,,,,,3,,,72,27
12864,note_on,,,,,320,0,11,,,,,4,,,64,77
12992,note_off,,,,,128,0,10,,,,,3,,,72,100
12992,note_off,,,,,128,0,15,,,,,7,,,57,100
12992,note_off,,,,,128,0,12,,,,,5,,,57,100
12992,note_off,,,,,128,0,8,,,,,1,,,72,100
12992,note_off,,,,,128,0,14,,,,,7,,,72,100
12992,note_off,,,,,128,0,13,,,,,6,,,45,100
12992,note_off,,,,,128,0,7,,,,,0,,,76,100
12992,note_off,,,,,128,0,9,,,,,2,,,76,100
12992,note_off,,,,,128,0,11,,,,,4,,,64,100
13056,note_on,,,,,0,0,14,,,,,7,,,71,100
13056,note_on,,,,,64,0,9,,,,,2,,,76,25
13056,note_on,,,,,64,0,10,,,,,3,,,74,25
13056,note_on,,,,,64,0,15,,,,,7,,,52,100
13056,note_on,,,,,64,0,12,,,,,5,,,56,75
13056,note_on,,,,,64,0,14,,,,,7,,,68,100
13056,note_on,,,,,64,0,13,,,,,6,,,40,75
13056,note_on,,,,,0,0,14,,,,,7,,,74,100
13056,note_on,,,,,64,0,7,,,,,0,,,76,85
13056,note_on,,,,,64,0,8,,,,,1,,,74,75
13056,note_on,,,,,64,0,11,,,,,4,,,71,75
13244,note_off,,,,,188,0,9,,,,,2,,,76,100
13244,note_off,,,,,188,0,7,,,,,0,,,76,100
13248,note_on,,,,,4,0,9,,,,,2,,,74,25
13248,note_on,,,,,4,0,7,,,,,0,,,74,85
13376,note_off,,,,,128,0,7,,,,,0,,,74,100
13376,note_off,,,,,128,0,9,,,,,2,,,74,100
13440,note_on,,,,,64,0,7,,,,,0,,,80,85
13440,note_on,,,,,64,0,9,,,,,2,,,80,25
13568,note_off,,,,,0,0,14,,,,,7,,,71,100
13568,note_off,,,,,0,0,14,,,,,7,,,74,100
13568,note_off,,,,,512,0,14,,,,,7,,,68,100
13628,note_off,,,,,188,0,7,,,,,0,,,80,100
13628,note_off,,,,,188,0,9,,,,,2,,,80,100
13632,note_on,,,,,4,0,7,,,,,0,,,74,85
13632,note_on,,,,,4,0,9,,,,,2,,,74,25
13760,note_off,,,,,128,0,9,,,,,2,,,74,64
13760,note_off,,,,,128,0,7,,,,,0,,,74,64
13824,note_on,,,,,0,0,14,,,,,7,,,71,100
13824,note_on,,,,,64,0,7,,,,,0,,,83,85
13824,note_on,,,,,256,0,14,,,,,7,,,68,100
13824,note_on,,,,,64,0,9,,,,,2,,,83,25
13824,note_on,,,,,0,0,14,,,,,7,,,74,100
14012,note_off,,,,,188,0,9,,,,,2,,,83,100
14012,note_off,,,,,188,0,7,,,,,0,,,83,100
14016,note_on,,,,,4,0,9,,,,,2,,,74,25
14016,note_on,,,,,4,0,7,,,,,0,,,74,85
14144,note_off,,,,,128,0,9,,,,,2,,,74,100
14144,note_off,,,,,128,0,7,,,,,0,,,74,100
14208,note_on,,,,,64,0,7,,,,,0,,,77,85
14208,note_on,,,,,64,0,9,,,,,2,,,77,25
14396,note_off,,,,,188,0,9,,,,,2,,,77,100
14396,note_off,,,,,188,0,7,,,,,0,,,77,100
14400,note_on,,,,,4,0,9,,,,,2,,,74,25
14400,note_on,,,,,4,0,7,,,,,0,,,74,85
14528,note_off,,,,,128,0,7,,,,,0,,,74,100
14528,note_off,,,,,128,0,9,,,,,2,,,74,100
14592,note_on,,,,,64,0,9,,,,,2,,,76,25
14592,note_on,,,,,64,0,7,,,,,0,,,76,85
14780,note_off,,,,,188,0,9,,,,,2,,,76,100
14780,note_off,,,,,188,0,7,,,,,0,,,76,100
14784,note_on,,,,,4,0,7,,,,,0,,,74,85
14784,note_on,,,,,4,0,9,,,,,2,,,74,25
14852,note_off,,,,,1028,0,14,,,,,7,,,68,100
14852,note_off,,,,,0,0,14,,,,,7,,,71,100
14852,note_off,,,,,0,0,14,,,,,7,,,74,100
14912,note_off,,,,,128,0,7,,,,,0,,,74,100
14912,note_off,,,,,128,0,9,,,,,2,,,74,100
14976,note_on,,,,,64,0,9,,,,,2,,,77,25
14976,note_on,,,,,64,0,7,,,,,0,,,77,85
15164,note_off,,,,,188,0,7,,,,,0,,,77,100
15164,note_off,,,,,188,0,9,,,,,2,,,77,100
15168,note_on,,,,,4,0,7,,,,,0,,,74,85
15168,note_on,,,,,4,0,9,,,,,2,,,74,25
15296,note_off,,,,,128,0,9,,,,,2,,,74,64
15296,note_off,,,,,128,0,7,,,,,0,,,74,64
15360,note_on,,,,,0,0,14,,,,,7,,,71,100
15360,note_on,,,,,0,0,14,,,,,7,,,74,100
15360,note_on,,,,,508,0,14,,,,,7,,,68,100
15360,note_on,,,,,64,0,9,,,,,2,,,80,25
15360,note_on,,,,,64,0,7,,,,,0,,,80,85
15548,note_off,,,,,188,0,7,,,,,0,,,80,100
15548,note_off,,,,,188,0,9,,,,,2,,,80,100
15552,note_on,,,,,4,0,7,,,,,0,,,74,85
15552,note_on,,,,,4,0,9,,,,,2,,,74,25
15680,note_off,,,,,128,0,9,,,,,2,,,74,100
15680,note_off,,,,,128,0,7,,,,,0,,,74,100
15744,note_on,,,,,64,0,7,,,,,0,,,83,85
15744,note_on,,,,,64,0,9,,,,,2,,,83,25
15932,note_off,,,,,188,0,7,,,,,0,,,83,100
15932,note_off,,,,,188,0,9,,,,,2,,,83,100
15936,note_on,,,,,4,0,7,,,,,0,,,74,85
15936,note_on,,,,,4,0,9,,,,,2,,,74,25
16064,note_off,,,,,128,0,9,,,,,2,,,74,100
16064,note_off,,,,,128,0,7,,,,,0,,,74,100
16128,note_on,,,,,64,0,7,,,,,0,,,76,85
16128,note_on,,,,,64,0,9,,,,,2,,,76,25
16316,note_off,,,,,188,0,7,,,,,0,,,76,100
16316,note_off,,,,,188,0,9,,,,,2,,,76,100
16320,note_on,,,,,4,0,9,,,,,2,,,74,25
16320,note_on,,,,,4,0,7,,,,,0,,,74,85
16388,note_off,,,,,1028,0,14,,,,,7,,,68,100
16388,note_off,,,,,0,0,14,,,,,7,,,71,100
16388,note_off,,,,,0,0,14,,,,,7,,,74,100
16448,note_off,,,,,128,0,7,,,,,0,,,74,100
16448,note_off,,,,,128,0,9,,,,,2,,,74,100
16512,note_on,,,,,64,0,9,,,,,2,,,83,25
16512,note_on,,,,,64,0,7,,,,,0,,,83,85
16700,note_off,,,,,188,0,7,,,,,0,,,83,100
16700,note_off,,,,,188,0,9,,,,,2,,,83,100
16704,note_on,,,,,4,0,9,,,,,2,,,74,25
16704,note_on,,,,,4,0,7,,,,,0,,,74,85
16832,note_off,,,,,128,0,7,,,,,0,,,74,64
16832,note_off,,,,,128,0,9,,,,,2,,,74,64
16896,note_on,,,,,64,0,7,,,,,0,,,76,85
16896,note_on,,,,,0,0,14,,,,,7,,,74,100
16896,note_on,,,,,0,0,14,,,,,7,,,71,100
16896,note_on,,,,,508,0,14,,,,,7,,,68,100
16896,note_on,,,,,64,0,9,,,,,2,,,76,25
17084,note_off,,,,,188,0,9,,,,,2,,,76,100
17084,note_off,,,,,188,0,7,,,,,0,,,76,100
17088,note_on,,,,,4,0,9,,,,,2,,,74,29
17088,note_on,,,,,4,0,7,,,,,0,,,74,89
17216,note_off,,,,,128,0,9,,,,,2,,,74,100
17216,note_off,,,,,128,0,7,,,,,0,,,74,100
17280,note_on,,,,,64,0,9,,,,,2,,,77,33
17280,note_on,,,,,64,0,7,,,,,0,,,77,93
17408,note_off,,,,,0,0,14,,,,,7,,,74,100
17408,note_off,,,,,0,0,14,,,,,7,,,71,100
17408,note_off,,,,,4352,0,12,,,,,5,,,56,100
17408,note_off,,,,,4352,0,15,,,,,7,,,52,100
17408,note_off,,,,,4352,0,13,,,,,6,,,40,100
17408,note_off,,,,,512,0,14,,,,,7,,,68,100
17468,note_off,,,,,188,0,7,,,,,0,,,77,100
17468,note_off,,,,,188,0,9,,,,,2,,,77,100
17472,note_on,,,,,4,0,9,,,,,2,,,74,37
17472,note_on,,,,,4,0,7,,,,,0,,,74,97
17600,note_off,,,,,128,0,9,,,,,2,,,74,100
17600,note_off,,,,,128,0,7,,,,,0,,,74,100
17664,note_on,,,,,256,0,15,,,,,7,,,52,100
17664,note_on,,,,,64,0,7,,,,,0,,,80,101
17664,note_on,,,,,0,0,14,,,,,7,,,74,100
17664,note_on,,,,,256,0,14,,,,,7,,,68,100
17664,note_on,,,,,256,0,12,,,,,5,,,52,91
17664,note_on,,,,,0,0,14,,,,,7,,,71,100
17664,note_on,,,,,256,0,13,,,,,6,,,40,91
17664,note_on,,,,,64,0,9,,,,,2,,,80,41
17792,note_off,,,,,128,0,9,,,,,2,,,80,100
17792,note_off,,,,,128,0,7,,,,,0,,,80,100
17856,note_on,,,,,64,0,9,,,,,2,,,76,45
17856,note_on,,,,,64,0,7,,,,,0,,,76,105
17920,note_off,,,,,256,0,13,,,,,6,,,40,100
17920,note_off,,,,,256,0,14,,,,,7,,,68,100
17920,note_off,,,,,0,0,14,,,,,7,,,71,100
17920,note_off,,,,,0,0,14,,,,,7,,,74,100
17920,note_off,,,,,256,0,12,,,,,5,,,52,100
17920,note_off,,,,,256,0,15,,,,,7,,,52,100
17924,note_off,,,,,4868,0,11,,,,,4,,,71,100
17924,note_off,,,,,4868,0,8,,,,,1,,,74,64
17924,note_off,,,,,4868,0,10,,,,,3,,,74,64
17984,note_off,,,,,128,0,7,,,,,0,,,76,100
17984,note_off,,,,,128,0,9,,,,,2,,,76,100
18048,note_on,,,,,124,0,8,,,,,1,,,72,99
18048,note_on,,,,,124,0,10,,,,,3,,,72,49
18048,note_on,,,,,64,0,9,,,,,2,,,81,49
18048,note_on,,,,,64,0,7,,,,,0,,,81,109
18048,note_on,,,,,124,0,11,,,,,4,,,64,99
18176,note_off,,,,,128,0,8,,,,,1,,,72,100
18176,note_off,,,,,128,0,9,,,,,2,,,81,100
18176,note_off,,,,,128,0,7,,,,,0,,,81,100
18176,note_off,,,,,128,0,10,,,,,3,,,72,100
18240,note_on,,,,,0,0,14,,,,,7,,,76,100
18240,note_on,,,,,320,0,14,,,,,7,,,72,100
18240,note_on,,,,,64,0,8,,,,,1,,,81,100
18240,note_on,,,,,64,0,7,,,,,0,,,72,110
18240,note_on,,,,,64,0,10,,,,,3,,,81,50
18240,note_on,,,,,320,0,13,,,,,6,,,45,100
18240,note_on,,,,,320,0,12,,,,,5,,,57,100
18240,note_on,,,,,64,0,9,,,,,2,,,72,50
18240,note_on,,,,,320,0,15,,,,,7,,,57,100
18304,note_off,,,,,256,0,11,,,,,4,,,64,100
18368,note_off,,,,,0,0,14,,,,,7,,,76,100
18368,note_off,,,,,128,0,8,,,,,1,,,81,100
18368,note_off,,,,,128,0,12,,,,,5,,,57,100
18368,note_off,,,,,128,0,15,,,,,7,,,57,100
18368,note_off,,,,,128,0,9,,,,,2,,,72,100
18368,note_off,,,,,128,0,10,,,,,3,,,81,100
18368,note_off,,,,,128,0,13,,,,,6,,,45,100
18368,note_off,,,,,128,0,7,,,,,0,,,72,100
18368,note_off,,,,,128,0,14,,,,,7,,,72,100
18432,note_on,,,,,128,0,11,,,,,4,,,65,100
18432,note_on,,,,,64,0,13,,,,,6,,,38,100
18432,note_on,,,,,64,0,8,,,,,1,,,81,100
18432,note_on,,,,,64,0,7,,,,,0,,,71,100
18432,note_on,,,,,64,0,9,,,,,2,,,71,50
18432,note_on,,,,,64,0,10,,,,,3,,,81,50
18432,note_on,,,,,64,0,14,,,,,7,,,71,100
18432,note_on,,,,,64,0,15,,,,,7,,,50,100
18432,note_on,,,,,64,0,12,,,,,5,,,50,100
18432,note_on,,,,,0,0,14,,,,,7,,,69,100
18560,note_off,,,,,128,0,10,,,,,3,,,81,100
18560,note_off,,,,,128,0,11,,,,,4,,,65,100
18560,note_off,,,,,128,0,8,,,,,1,,,81,100
18560,note_off,,,,,128,0,9,,,,,2,,,71,100
18560,note_off,,,,,128,0,7,,,,,0,,,71,100
18624,note_on,,,,,64,0,9,,,,,2,,,81,50
18624,note_on,,,,,64,0,10,,,,,3,,,77,50
18624,note_on,,,,,64,0,11,,,,,4,,,62,100
18624,note_on,,,,,64,0,7,,,,,0,,,81,100
18624,note_on,,,,,64,0,8,,,,,1,,,77,100
18688,note_off,,,,,256,0,13,,,,,6,,,38,100
18688,note_off,,,,,0,0,14,,,,,7,,,69,100
18688,note_off,,,,,256,0,12,,,,,5,,,50,100
18688,note_off,,,,,256,0,15,,,,,7,,,50,100
18688,note_off,,,,,256,0,14,,,,,7,,,71,100
18752,note_off,,,,,128,0,11,,,,,4,,,62,100
18752,note_off,,,,,128,0,8,,,,,1,,,77,100
18752,note_off,,,,,128,0,7,,,,,0,,,81,100
18752,note_off,,,,,128,0,10,,,,,3,,,77,100
18752,note_off,,,,,128,0,9,,,,,2,,,81,100
18816,note_on,,,,,64,0,7,,,,,0,,,71,100
18816,note_on,,,,,0,0,14,,,,,7,,,71,100
18816,note_on,,,,,128,0,15,,,,,7,,,52,100
18816,note_on,,,,,128,0,14,,,,,7,,,68,100
18816,note_on,,,,,128,0,13,,,,,6,,,40,100
18816,note_on,,,,,64,0,11,,,,,4,,,59,100
18816,note_on,,,,,64,0,10,,,,,3,,,76,50
18816,note_on,,,,,64,0,9,,,,,2,,,71,50
18816,note_on,,,,,128,0,12,,,,,5,,,52,100
18816,note_on,,,,,64,0,8,,,,,1,,,76,100
18944,note_off,,,,,128,0,9,,,,,2,,,71,100
18944,note_off,,,,,128,0,7,,,,,0,,,71,100
18944,note_off,,,,,128,0,11,,,,,4,,,59,100
19008,note_off,,,,,192,0,10,,,,,3,,,76,100
19008,note_on,,,,,64,0,9,,,,,2,,,80,50
19008,note_on,,,,,64,0,7,,,,,0,,,80,100
19008,note_off,,,,,192,0,8,,,,,1,,,76,100
19008,note_on,,,,,64,0,11,,,,,4,,,64,100
19072,note_off,,,,,256,0,13,,,,,6,,,40,100
19072,note_off,,,,,256,0,12,,,,,5,,,52,100
19072,note_off,,,,,256,0,14,,,,,7,,,68,100
19072,note_off,,,,,0,0,14,,,,,7,,,71,100
19072,note_off,,,,,256,0,15,,,,,7,,,52,100
19104,note_on,,,,,96,0,8,,,,,1,,,74,100
19104,note_on,,,,,96,0,10,,,,,3,,,74,50
19136,note_off,,,,,128,0,9,,,,,2,,,80,100
19136,note_off,,,,,128,0,7,,,,,0,,,80,100
19136,note_off,,,,,128,0,11,,,,,4,,,64,100
19168,note_off,,,,,64,0,8,,,,,1,,,74,100
19168,note_off,,,,,64,0,10,,,,,3,,,74,100
19200,note_on,,,,,32,0,8,,,,,1,,,72,100
19200,note_on,,,,,0,0,14,,,,,7,,,72,100
19200,note_on,,,,,128,0,14,,,,,7,,,64,100
19200,note_on,,,,,32,0,10,,,,,3,,,72,50
19200,note_on,,,,,64,0,7,,,,,0,,,81,100
19200,note_on,,,,,64,0,11,,,,,4,,,64,100
19200,note_on,,,,,128,0,15,,,,,7,,,45,100
19200,note_on,,,,,128,0,12,,,,,5,,,45,100
19200,note_on,,,,,128,0,13,,,,,6,,,33,100
19200,note_on,,,,,64,0,9,,,,,2,,,81,50
19328,note_off,,,,,128,0,15,,,,,7,,,45,100
19328,note_off,,,,,128,0,11,,,,,4,,,64,100
19328,note_off,,,,,0,0,14,,,,,7,,,72,100
19328,note_off,,,,,128,0,13,,,,,6,,,33,100
19328,note_off,,,,,128,0,14,,,,,7,,,64,100
19328,note_off,,,,,128,0,12,,,,,5,,,45,100
19392,note_on,,,,,64,0,12,,,,,5,,,57,98
19392,note_on,,,,,64,0,13,,,,,6,,,45,98
19392,note_on,,,,,64,0,11,,,,,4,,,72,98
19392,note_on,,,,,64,0,14,,,,,7,,,72,100
19392,note_on,,,,,64,0,15,,,,,7,,,57,100
19456,note_off,,,,,64,0,12,,,,,5,,,57,100
19456,note_off,,,,,64,0,14,,,,,7,,,72,100
19456,note_off,,,,,64,0,15,,,,,7,,,57,100
19456,note_off,,,,,256,0,10,,,,,3,,,72,100
19456,note_off,,,,,256,0,7,,,,,0,,,81,100
19456,note_off,,,,,64,0,11,,,,,4,,,72,100
19456,note_off,,,,,256,0,8,,,,,1,,,72,100
19456,note_off,,,,,256,0,9,,,,,2,,,81,100
19456,note_off,,,,,64,0,13,,,,,6,,,45,100
19488,note_on,,,,,32,0,11,,,,,4,,,71,97
19488,note_on,,,,,32,0,14,,,,,7,,,74,100
19488,note_on,,,,,32,0,12,,,,,5,,,59,97
19488,note_on,,,,,32,0,13,,,,,6,,,47,97
19488,note_on,,,,,32,0,15,,,,,7,,,59,100
19552,note_off,,,,,64,0,14,,,,,7,,,74,100
19552,note_off,,,,,64,0,13,,,,,6,,,47,100
19552,note_off,,,,,64,0,11,,,,,4,,,71,100
19552,note_off,,,,,64,0,15,,,,,7,,,59,100
19552,note_off,,,,,64,0,12,,,,,5,,,59,100
19584,note_on,,,,,32,0,15,,,,,7,,,60,100
19584,note_on,,,,,32,0,14,,,,,7,,,76,100
19584,note_on,,,,,32,0,13,,,,,6,,,48,96
19584,note_on,,,,,32,0,11,,,,,4,,,69,96
19584,note_on,,,,,32,0,12,,,,,5,,,60,96
19712,note_off,,,,,128,0,14,,,,,7,,,76,100
19712,note_off,,,,,128,0,13,,,,,6,,,48,100
19712,note_off,,,,,128,0,11,,,,,4,,,69,100
19712,note_off,,,,,128,0,12,,,,,5,,,60,100
19712,note_off,,,,,128,0,15,,,,,7,,,60,100
19776,note_on,,,,,64,0,14,,,,,7,,,76,100
19776,note_on,,,,,320,0,10,,,,,3,,,76,43
19776,note_on,,,,,320,0,9,,,,,2,,,76,43
19776,note_on,,,,,64,0,11,,,,,4,,,72,93
19776,note_on,,,,,64,0,13,,,,,6,,,45,93
19776,note_on,,,,,64,0,12,,,,,5,,,57,93
19776,note_on,,,,,320,0,7,,,,,0,,,76,93
19776,note_on,,,,,64,0,15,,,,,7,,,57,100
19776,note_on,,,,,0,0,14,,,,,7,,,72,100
19776,note_on,,,,,320,0,8,,,,,1,,,76,43
19904,note_off,,,,,128,0,9,,,,,2,,,76,100
19904,note_off,,,,,128,0,11,,,,,4,,,72,100
19904,note_off,,,,,128,0,13,,,,,6,,,45,100
19904,note_off,,,,,128,0,7,,,,,0,,,76,100
19904,note_off,,,,,128,0,10,,,,,3,,,76,100
19904,note_off,,,,,128,0,8,,,,,1,,,76,100
19904,note_off,,,,,128,0,14,,,,,7,,,76,100
19904,note_off,,,,,128,0,15,,,,,7,,,57,100
19904,note_off,,,,,128,0,12,,,,,5,,,57,100
19904,note_off,,,,,0,0,14,,,,,7,,,72,100
19968,note_on,,,,,64,0,13,,,,,6,,,38,91
19968,note_on,,,,,64,0,9,,,,,2,,,77,41
19968,note_on,,,,,64,0,15,,,,,7,,,50,100
19968,note_on,,,,,64,0,7,,,,,0,,,77,90
19968,note_on,,,,,64,0,12,,,,,5,,,50,91
19968,note_on,,,,,64,0,8,,,,,1,,,77,41
19968,note_on,,,,,64,0,10,,,,,3,,,77,41
19968,note_on,,,,,64,0,14,,,,,7,,,70,100
19968,note_on,,,,,0,0,14,,,,,7,,,65,100
19968,note_on,,,,,64,0,11,,,,,4,,,70,91
20156,note_off,,,,,188,0,8,,,,,1,,,77,100
20156,note_off,,,,,188,0,7,,,,,0,,,77,100
20156,note_off,,,,,188,0,10,,,,,3,,,77,100
20156,note_off,,,,,188,0,9,,,,,2,,,77,100
20160,note_on,,,,,4,0,7,,,,,0,,,70,92
20160,note_on,,,,,4,0,9,,,,,2,,,70,50
20160,note_on,,,,,4,0,10,,,,,3,,,70,50
20160,note_on,,,,,4,0,8,,,,,1,,,70,50
20224,note_off,,,,,256,0,11,,,,,4,,,70,100
20288,note_off,,,,,128,0,9,,,,,2,,,70,100
20288,note_off,,,,,128,0,8,,,,,1,,,70,100
20288,note_off,,,,,128,0,7,,,,,0,,,70,100
20288,note_off,,,,,128,0,10,,,,,3,,,70,100
20352,note_on,,,,,64,0,8,,,,,1,,,77,50
20352,note_on,,,,,64,0,7,,,,,0,,,77,94
20352,note_on,,,,,128,0,11,,,,,4,,,62,100
20352,note_on,,,,,64,0,9,,,,,2,,,77,50
20352,note_on,,,,,64,0,10,,,,,3,,,77,50
20480,note_off,,,,,0,0,14,,,,,7,,,65,100
20480,note_off,,,,,512,0,14,,,,,7,,,70,100
20480,note_off,,,,,512,0,15,,,,,7,,,50,100
20480,note_off,,,,,512,0,12,,,,,5,,,50,100
20480,note_off,,,,,512,0,13,,,,,6,,,38,100
20540,note_off,,,,,188,0,10,,,,,3,,,77,100
20540,note_off,,,,,188,0,9,,,,,2,,,77,100
20540,note_off,,,,,188,0,8,,,,,1,,,77,100
20540,note_off,,,,,188,0,7,,,,,0,,,77,100
20544,note_on,,,,,4,0,10,,,,,3,,,70,50
20544,note_on,,,,,4,0,8,,,,,1,,,70,50
20544,note_on,,,,,4,0,9,,,,,2,,,70,50
20544,note_on,,,,,4,0,7,,,,,0,,,70,97
20608,note_off,,,,,256,0,11,,,,,4,,,62,100
20672,note_off,,,,,128,0,10,,,,,3,,,70,100
20672,note_off,,,,,128,0,7,,,,,0,,,70,100
20672,note_off,,,,,128,0,8,,,,,1,,,70,100
20672,note_off,,,,,128,0,9,,,,,2,,,70,100
20736,note_on,,,,,0,0,14,,,,,7,,,70,100
20736,note_on,,,,,256,0,14,,,,,7,,,67,100
20736,note_on,,,,,64,0,9,,,,,2,,,76,50
20736,note_on,,,,,256,0,13,,,,,6,,,37,100
20736,note_on,,,,,64,0,10,,,,,3,,,76,50
20736,note_on,,,,,256,0,15,,,,,7,,,49,100
20736,note_on,,,,,64,0,8,,,,,1,,,76,50
20736,note_on,,,,,256,0,12,,,,,5,,,49,100
20736,note_on,,,,,128,0,11,,,,,4,,,67,100
20736,note_on,,,,,64,0,7,,,,,0,,,76,100
20924,note_off,,,,,188,0,8,,,,,1,,,76,100
20924,note_off,,,,,188,0,7,,,,,0,,,76,100
20924,note_off,,,,,188,0,9,,,,,2,,,76,100
20924,note_off,,,,,188,0,10,,,,,3,,,76,100
20928,note_on,,,,,4,0,8,,,,,1,,,70,48
20928,note_on,,,,,4,0,9,,,,,2,,,70,48
20928,note_on,,,,,4,0,7,,,,,0,,,70,98
20928,note_on,,,,,4,0,10,,,,,3,,,70,48
21056,note_off,,,,,128,0,9,,,,,2,,,70,100
21056,note_off,,,,,128,0,10,,,,,3,,,70,100
21056,note_off,,,,,128,0,8,,,,,1,,,70,100
21056,note_off,,,,,128,0,7,,,,,0,,,70,100
21120,note_on,,,,,64,0,9,,,,,2,,,76,46
21120,note_on,,,,,64,0,10,,,,,3,,,76,46
21120,note_on,,,,,64,0,8,,,,,1,,,76,46
21120,note_on,,,,,64,0,7,,,,,0,,,76,96
21248,note_off,,,,,512,0,12,,,,,5,,,49,100
21248,note_off,,,,,0,0,14,,,,,7,,,70,100
21248,note_off,,,,,512,0,14,,,,,7,,,67,100
21248,note_off,,,,,512,0,11,,,,,4,,,67,100
21248,note_off,,,,,512,0,15,,,,,7,,,49,100
21248,note_off,,,,,512,0,13,,,,,6,,,37,100
21308,note_off,,,,,188,0,8,,,,,1,,,76,100
21308,note_off,,,,,188,0,9,,,,,2,,,76,100
21308,note_off,,,,,188,0,10,,,,,3,,,76,100
21308,note_off,,,,,188,0,7,,,,,0,,,76,100
21312,note_on,,,,,4,0,7,,,,,0,,,70,94
21312,note_on,,,,,4,0,9,,,,,2,,,70,44
21312,note_on,,,,,4,0,10,,,,,3,,,70,44
21312,note_on,,,,,4,0,8,,,,,1,,,70,44
21440,note_off,,,,,128,0,7,,,,,0,,,70,100
21440,note_off,,,,,128,0,9,,,,,2,,,70,100
21440,note_off,,,,,128,0,10,,,,,3,,,70,100
21440,note_off,,,,,128,0,8,,,,,1,,,70,100
21504,note_on,,,,,256,0,15,,,,,7,,,48,100
21504,note_on,,,,,64,0,9,,,,,2,,,76,42
21504,note_on,,,,,256,0,11,,,,,4,,,69,92
21504,note_on,,,,,64,0,10,,,,,3,,,76,42
21504,note_on,,,,,256,0,12,,,,,5,,,48,92
21504,note_on,,,,,64,0,7,,,,,0,,,76,92
21504,note_on,,,,,0,0,14,,,,,7,,,69,100
21504,note_on,,,,,256,0,14,,,,,7,,,64,100
21504,note_on,,,,,64,0,8,,,,,1,,,76,42
21504,note_on,,,,,256,0,13,,,,,6,,,36,92
21692,note_off,,,,,188,0,9,,,,,2,,,76,100
21692,note_off,,,,,188,0,7,,,,,0,,,76,100
21692,note_off,,,,,188,0,8,,,,,1,,,76,100
21692,note_off,,,,,188,0,10,,,,,3,,,76,100
21696,note_on,,,,,4,0,9,,,,,2,,,69,40
21696,note_on,,,,,4,0,8,,,,,1,,,69,40
21696,note_on,,,,,4,0,10,,,,,3,,,69,40
21696,note_on,,,,,4,0,7,,,,,0,,,69,90
21824,note_off,,,,,128,0,9,,,,,2,,,69,100
21824,note_off,,,,,128,0,7,,,,,0,,,69,100
21824,note_off,,,,,128,0,8,,,,,1,,,69,100
21824,note_off,,,,,128,0,10,,,,,3,,,69,100
21888,note_off,,,,,384,0,13,,,,,6,,,36,100
21888,note_off,,,,,384,0,14,,,,,7,,,64,100
21888,note_off,,,,,0,0,14,,,,,7,,,69,100
21888,note_off,,,,,384,0,11,,,,,4,,,69,100
21888,note_on,,,,,64,0,7,,,,,0,,,76,88
21888,note_on,,,,,64,0,10,,,,,3,,,76,38
21888,note_off,,,,,384,0,12,,,,,5,,,48,100
21888,note_off,,,,,384,0,15,,,,,7,,,48,100
21888,note_on,,,,,64,0,9,,,,,2,,,76,38
21888,note_on,,,,,64,0,8,,,,,1,,,76,38
22076,note_off,,,,,188,0,10,,,,,3,,,76,100
22076,note_off,,,,,188,0,8,,,,,1,,,76,100
22076,note_off,,,,,188,0,9,,,,,2,,,76,100
22076,note_off,,,,,188,0,7,,,,,0,,,76,100
22080,note_on,,,,,0,0,14,,,,,7,,,69,100
22080,note_on,,,,,192,0,13,,,,,6,,,38,86
22080,note_on,,,,,4,0,8,,,,,1,,,69,36
22080,note_on,,,,,192,0,14,,,,,7,,,65,100
22080,note_on,,,,,4,0,10,,,,,3,,,69,36
22080,note_on,,,,,192,0,12,,,,,5,,,50,86
22080,note_on,,,,,192,0,15,,,,,7,,,50,100
22080,note_on,,,,,4,0,9,,,,,2,,,69,36
22080,note_on,,,,,4,0,7,,,,,0,,,69,86
22080,note_on,,,,,192,0,11,,,,,4,,,65,86
22208,note_off,,,,,128,0,10,,,,,3,,,69,100
22208,note_off,,,,,128,0,15,,,,,7,,,50,100
22208,note_off,,,,,128,0,14,,,,,7,,,65,100
22208,note_off,,,,,128,0,8,,,,,1,,,69,100
22208,note_off,,,,,128,0,13,,,,,6,,,38,100
22208,note_off,,,,,0,0,14,,,,,7,,,69,100
22208,note_off,,,,,128,0,7,,,,,0,,,69,100
22208,note_off,,,,,128,0,12,,,,,5,,,50,100
22208,note_off,,,,,128,0,9,,,,,2,,,69,100
22208,note_off,,,,,128,0,11,,,,,4,,,65,100
22272,note_on,,,,,64,0,13,,,,,6,,,40,85
22272,note_on,,,,,64,0,7,,,,,0,,,68,85
22272,note_on,,,,,64,0,12,,,,,5,,,52,85
22272,note_on,,,,,64,0,15,,,,,7,,,52,100
22272,note_on,,,,,64,0,8,,,,,1,,,68,35
22272,note_on,,,,,0,0,14,,,,,7,,,71,100
22272,note_on,,,,,64,0,11,,,,,4,,,59,85
22272,note_on,,,,,64,0,9,,,,,2,,,68,35
22272,note_on,,,,,64,0,14,,,,,7,,,68,100
22272,note_on,,,,,64,0,10,,,,,3,,,68,35
22400,note_off,,,,,128,0,13,,,,,6,,,40,100
22400,note_off,,,,,128,0,8,,,,,1,,,68,100
22400,note_off,,,,,128,0,7,,,,,0,,,68,100
22400,note_off,,,,,128,0,12,,,,,5,,,52,100
22400,note_off,,,,,128,0,14,,,,,7,,,68,100
22400,note_off,,,,,128,0,15,,,,,7,,,52,100
22400,note_off,,,,,128,0,10,,,,,3,,,68,100
22400,note_off,,,,,128,0,9,,,,,2,,,68,100
22400,note_off,,,,,0,0,14,,,,,7,,,71,100
22464,note_on,,,,,64,0,9,,,,,2,,,64,36
22464,note_on,,,,,64,0,15,,,,,7,,,50,100
22464,note_on,,,,,64,0,14,,,,,7,,,65,100
22464,note_on,,,,,0,0,14,,,,,7,,,69,100
22464,note_on,,,,,64,0,13,,,,,6,,,38,86
22464,note_on,,,,,64,0,8,,,,,1,,,64,36
22464,note_on,,,,,64,0,12,,,,,5,,,50,86
22464,note_on,,,,,64,0,7,,,,,0,,,64,86
22464,note_on,,,,,64,0,10,,,,,3,,,64,36
22528,note_off,,,,,256,0,11,,,,,4,,,59,100
22592,note_off,,,,,128,0,7,,,,,0,,,64,100
22592,note_off,,,,,128,0,10,,,,,3,,,64,100
22592,note_off,,,,,128,0,9,,,,,2,,,64,100
22592,note_off,,,,,0,0,14,,,,,7,,,69,100
22592,note_off,,,,,128,0,14,,,,,7,,,65,100
22592,note_off,,,,,128,0,15,,,,,7,,,50,100
22592,note_off,,,,,128,0,8,,,,,1,,,64,100
22592,note_off,,,,,128,0,13,,,,,6,,,38,100
22592,note_off,,,,,128,0,12,,,,,5,,,50,100
22656,note_on,,,,,64,0,7,,,,,0,,,69,88
22656,note_on,,,,,64,0,15,,,,,7,,,48,100
22656,note_on,,,,,64,0,9,,,,,2,,,69,38
22656,note_on,,,,,64,0,8,,,,,1,,,69,38
22656,note_on,,,,,64,0,14,,,,,7,,,64,100
22656,note_on,,,,,0,0,14,,,,,7,,,69,100
22656,note_on,,,,,64,0,13,,,,,6,,,36,88
22656,note_on,,,,,64,0,10,,,,,3,,,69,38
22656,note_on,,,,,64,0,12,,,,,5,,,48,88
22656,note_on,,,,,128,0,11,,,,,4,,,52,88
22784,note_off,,,,,128,0,9,,,,,2,,,69,100
22784,note_off,,,,,128,0,7,,,,,0,,,69,100
22784,note_off,,,,,128,0,14,,,,,7,,,64,100
22784,note_off,,,,,128,0,10,,,,,3,,,69,100
22784,note_off,,,,,128,0,15,,,,,7,,,48,100
22784,note_off,,,,,128,0,13,,,,,6,,,36,100
22784,note_off,,,,,128,0,8,,,,,1,,,69,100
22784,note_off,,,,,128,0,12,,,,,5,,,48,100
22784,note_off,,,,,0,0,14,,,,,7,,,69,100
22848,note_on,,,,,64,0,10,,,,,3,,,60,40
22848,note_on,,,,,64,0,15,,,,,7,,,45,100
22848,note_on,,,,,64,0,9,,,,,2,,,60,40
22848,note_on,,,,,0,0,14,,,,,7,,,64,100
22848,note_on,,,,,64,0,14,,,,,7,,,60,100
22848,note_on,,,,,64,0,13,,,,,6,,,33,90
22848,note_on,,,,,64,0,12,,,,,5,,,45,90
22848,note_on,,,,,64,0,8,,,,,1,,,60,40
22848,note_on,,,,,64,0,7,,,,,0,,,60,90
22912,note_off,,,,,256,0,11,,,,,4,,,52,100
22976,note_off,,,,,128,0,15,,,,,7,,,45,100
22976,note_off,,,,,0,0,14,,,,,7,,,64,100
22976,note_off,,,,,128,0,14,,,,,7,,,60,100
22976,note_off,,,,,128,0,10,,,,,3,,,60,100
22976,note_off,,,,,128,0,12,,,,,5,,,45,100
22976,note_off,,,,,128,0,7,,,,,0,,,60,100
22976,note_off,,,,,128,0,8,,,,,1,,,60,100
22976,note_off,,,,,128,0,13,,,,,6,,,33,100
22976,note_off,,,,,128,0,9,,,,,2,,,60,100
23040,note_on,,,,,64,0,13,,,,,6,,,38,92
23040,note_on,,,,,64,0,15,,,,,7,,,50,100
23040,note_on,,,,,64,0,8,,,,,1,,,59,42
23040,note_on,,,,,128,0,11,,,,,4,,,53,92
23040,note_on,,,,,64,0,10,,,,,3,,,59,42
23040,note_on,,,,,64,0,7,,,,,0,,,59,92
23040,note_on,,,,,0,0,14,,,,,7,,,69,100
23040,note_on,,,,,64,0,12,,,,,5,,,50,92
23040,note_on,,,,,64,0,9,,,,,2,,,59,42
23040,note_on,,,,,64,0,14,,,,,7,,,59,100
23168,note_off,,,,,128,0,9,,,,,2,,,59,100
23168,note_off,,,,,128,0,8,,,,,1,,,59,100
23168,note_off,,,,,128,0,12,,,,,5,,,50,100
23168,note_off,,,,,128,0,14,,,,,7,,,59,100
23168,note_off,,,,,0,0,14,,,,,7,,,69,100
23168,note_off,,,,,128,0,7,,,,,0,,,59,100
23168,note_off,,,,,128,0,15,,,,,7,,,50,100
23168,note_off,,,,,128,0,10,,,,,3,,,59,100
23168,note_off,,,,,128,0,13,,,,,6,,,38,100
23232,note_on,,,,,64,0,15,,,,,7,,,47,100
23232,note_on,,,,,0,0,14,,,,,7,,,62,100
23232,note_on,,,,,64,0,13,,,,,6,,,35,94
23232,note_on,,,,,64,0,14,,,,,7,,,65,100
23232,note_on,,,,,64,0,7,,,,,0,,,69,94
23232,note_on,,,,,64,0,9,,,,,2,,,69,44
23232,note_on,,,,,64,0,12,,,,,5,,,47,94
23232,note_on,,,,,64,0,8,,,,,1,,,69,44
23232,note_on,,,,,64,0,10,,,,,3,,,69,44
23296,note_off,,,,,256,0,11,,,,,4,,,53,100
23360,note_off,,,,,0,0,14,,,,,7,,,62,100
23360,note_off,,,,,128,0,14,,,,,7,,,65,100
23360,note_off,,,,,128,0,8,,,,,1,,,69,100
23360,note_off,,,,,128,0,13,,,,,6,,,35,100
23360,note_off,,,,,128,0,7,,,,,0,,,69,100
23360,note_off,,,,,128,0,12,,,,,5,,,47,100
23360,note_off,,,,,128,0,9,,,,,2,,,69,100
23360,note_off,,,,,128,0,15,,,,,7,,,47,100
23360,note_off,,,,,128,0,10,,,,,3,,,69,100
23424,note_on,,,,,64,0,13,,,,,6,,,40,96
23424,note_on,,,,,64,0,8,,,,,1,,,59,46
23424,note_on,,,,,128,0,11,,,,,4,,,52,96
23424,note_on,,,,,64,0,9,,,,,2,,,59,46
23424,note_on,,,,,64,0,14,,,,,7,,,68,100
23424,note_on,,,,,0,0,14,,,,,7,,,71,100
23424,note_on,,,,,64,0,12,,,,,5,,,52,96
23424,note_on,,,,,64,0,7,,,,,0,,,59,96
23424,note_on,,,,,64,0,10,,,,,3,,,59,46
23424,note_on,,,,,64,0,15,,,,,7,,,52,100
23552,note_off,,,,,128,0,9,,,,,2,,,59,100
23552,note_off,,,,,128,0,7,,,,,0,,,59,100
23552,note_off,,,,,128,0,8,,,,,1,,,59,100
23552,note_off,,,,,128,0,15,,,,,7,,,52,100
23552,note_off,,,,,128,0,13,,,,,6,,,40,100
23552,note_off,,,,,128,0,12,,,,,5,,,52,100
23552,note_off,,,,,0,0,14,,,,,7,,,71,100
23552,note_off,,,,,128,0,14,,,,,7,,,68,100
23552,note_off,,,,,128,0,10,,,,,3,,,59,100
23616,note_on,,,,,64,0,9,,,,,2,,,68,48
23616,note_on,,,,,64,0,7,,,,,0,,,68,98
23616,note_on,,,,,64,0,13,,,,,6,,,40,98
23616,note_on,,,,,0,0,14,,,,,7,,,68,100
23616,note_on,,,,,64,0,12,,,,,5,,,40,98
23616,note_on,,,,,64,0,14,,,,,7,,,59,100
23616,note_on,,,,,64,0,10,,,,,3,,,68,48
23616,note_on,,,,,64,0,8,,,,,1,,,68,48
23616,note_on,,,,,64,0,15,,,,,7,,,40,100
23680,note_off,,,,,256,0,11,,,,,4,,,52,100
23744,note_off,,,,,128,0,15,,,,,7,,,40,100
23744,note_off,,,,,128,0,9,,,,,2,,,68,100
23744,note_off,,,,,128,0,12,,,,,5,,,40,100
23744,note_off,,,,,128,0,13,,,,,6,,,40,100
23744,note_off,,,,,128,0,10,,,,,3,,,68,100
23744,note_off,,,,,0,0,14,,,,,7,,,68,100
23744,note_off,,,,,128,0,14,,,,,7,,,59,100
23744,note_off,,,,,128,0,8,,,,,1,,,68,100
23744,note_off,,,,,128,0,7,,,,,0,,,68,100
23808,note_on,,,,,64,0,14,,,,,7,,,69,100
23808,note_on,,,,,0,0,14,,,,,7,,,64,100
23808,note_on,,,,,0,0,14,,,,,7,,,60,100
23808,note_on,,,,,64,0,13,,,,,6,,,33,99
23808,note_on,,,,,128,0,11,,,,,4,,,52,99
23808,note_on,,,,,64,0,8,,,,,1,,,69,49
23808,note_on,,,,,64,0,12,,,,,5,,,45,99
23808,note_on,,,,,64,0,7,,,,,0,,,69,99
23808,note_on,,,,,64,0,15,,,,,7,,,45,100
23808,note_on,,,,,64,0,10,,,,,3,,,69,49
23808,note_on,,,,,64,0,9,,,,,2,,,69,49
23812,program_change,,,,,4,0,7,,,,,0,40,,,
23812,program_change,,,,,4,0,8,,,,,1,40,,,
23816,note_on,,,,,4,0,7,,,,,0,,,69,99
23816,note_on,,,,,4,0,8,,,,,1,,,69,49
24008,note_off,,,,,192,0,8,,,,,1,,,69,100
24008,note_off,,,,,192,0,7,,,,,0,,,69,100
24064,note_off,,,,,56,0,7,,,,,0,,,69,100
24064,note_off,,,,,256,0,9,,,,,2,,,69,100
24064,note_off,,,,,256,0,15,,,,,7,,,45,100
24064,note_off,,,,,256,0,12,,,,,5,,,45,100
24064,note_off,,,,,256,0,14,,,,,7,,,69,100
24064,note_off,,,,,256,0,10,,,,,3,,,69,100
24064,note_off,,,,,0,0,14,,,,,7,,,64,100
24064,note_off,,,,,256,0,13,,,,,6,,,33,100
24064,note_off,,,,,0,0,14,,,,,7,,,60,100
24064,note_off,,,,,256,0,11,,,,,4,,,52,100
24064,note_off,,,,,56,0,8,,,,,1,,,69,100
24096,note_on,,,,,32,0,8,,,,,1,,,68,100
24096,note_on,,,,,32,0,7,,,,,0,,,71,100
24160,note_off,,,,,64,0,8,,,,,1,,,68,100
24160,note_off,,,,,64,0,7,,,,,0,,,71,100
24192,note_on,,,,,32,0,7,,,,,0,,,72,100
24192,note_on,,,,,32,0,8,,,,,1,,,69,100
24384,note_off,,,,,192,0,8,,,,,1,,,69,100
24384,note_off,,,,,192,0,7,,,,,0,,,72,100
24480,note_on,,,,,96,0,7,,,,,0,,,74,100
24480,note_on,,,,,96,0,8,,,,,1,,,71,100
24544,note_off,,,,,64,0,8,,,,,1,,,71,100
24544,note_off,,,,,64,0,7,,,,,0,,,74,100
24576,note_on,,,,,512,0,9,,,,,2,,,69,20
24576,note_on,,,,,32,0,8,,,,,1,,,72,100
24576,note_on,,,,,512,0,10,,,,,3,,,69,70
24576,note_on,,,,,32,0,7,,,,,0,,,76,100
24576,note_on,,,,,512,0,11,,,,,4,,,69,70
24704,note_off,,,,,128,0,7,,,,,0,,,76,100
24768,note_on,,,,,64,0,7,,,,,0,,,69,100
24832,note_off,,,,,256,0,9,,,,,2,,,69,100
24832,note_off,,,,,256,0,11,,,,,4,,,69,100
24832,note_off,,,,,256,0,10,,,,,3,,,69,100
24896,note_off,,,,,128,0,7,,,,,0,,,69,100
24960,note_off,,,,,384,0,8,,,,,1,,,72,100
24960,note_on,,,,,64,0,7,,,,,0,,,69,100
25088,note_off,,,,,128,0,7,,,,,0,,,69,100
25152,note_on,,,,,320,0,11,,,,,4,,,69,70
25152,note_on,,,,,320,0,10,,,,,3,,,69,70
25152,note_on,,,,,192,0,8,,,,,1,,,72,100
25152,note_on,,,,,320,0,9,,,,,2,,,69,20
25152,note_on,,,,,64,0,7,,,,,0,,,76,100
25280,note_off,,,,,128,0,7,,,,,0,,,76,100
25280,note_off,,,,,128,0,11,,,,,4,,,69,100
25280,note_off,,,,,128,0,9,,,,,2,,,69,100
25280,note_off,,,,,128,0,10,,,,,3,,,69,100
25280,note_off,,,,,128,0,8,,,,,1,,,72,100
25344,note_on,,,,,64,0,10,,,,,3,,,62,70
25344,note_on,,,,,64,0,8,,,,,1,,,74,100
25344,note_on,,,,,64,0,11,,,,,4,,,62,70
25344,note_on,,,,,64,0,9,,,,,2,,,62,20
25344,note_on,,,,,64,0,7,,,,,0,,,77,100
25472,note_off,,,,,128,0,8,,,,,1,,,74,100
25472,note_off,,,,,128,0,7,,,,,0,,,77,100
25536,note_on,,,,,64,0,8,,,,,1,,,74,100
25536,note_on,,,,,64,0,7,,,,,0,,,77,100
25600,note_off,,,,,256,0,10,,,,,3,,,62,100
25600,note_off,,,,,256,0,9,,,,,2,,,62,100
25600,note_off,,,,,256,0,11,,,,,4,,,62,100
25664,note_off,,,,,128,0,7,,,,,0,,,77,100
25664,note_off,,,,,128,0,8,,,,,1,,,74,100
25728,note_on,,,,,64,0,7,,,,,0,,,77,100
25728,note_on,,,,,64,0,8,,,,,1,,,74,100
25772,note_off,,,,,44,0,7,,,,,0,,,77,100
25772,note_off,,,,,44,0,8,,,,,1,,,74,100
25776,note_on,,,,,4,0,7,,,,,0,,,79,100
25776,note_on,,,,,4,0,8,,,,,1,,,76,100
25820,note_off,,,,,44,0,7,,,,,0,,,79,100
25820,note_off,,,,,44,0,8,,,,,1,,,76,100
25824,note_on,,,,,4,0,8,,,,,1,,,74,100
25824,note_on,,,,,4,0,7,,,,,0,,,77,100
25888,note_off,,,,,64,0,7,,,,,0,,,77,100
25888,note_off,,,,,64,0,8,,,,,1,,,74,100
25920,note_on,,,,,320,0,11,,,,,4,,,62,70
25920,note_on,,,,,32,0,8,,,,,1,,,72,100
25920,note_on,,,,,32,0,7,,,,,0,,,76,100
25920,note_on,,,,,320,0,10,,,,,3,,,62,70
25920,note_on,,,,,320,0,9,,,,,2,,,62,20
25984,note_off,,,,,64,0,7,,,,,0,,,76,100
25984,note_off,,,,,64,0,8,,,,,1,,,72,100
26016,note_on,,,,,32,0,8,,,,,1,,,71,100
26016,note_on,,,,,32,0,7,,,,,0,,,74,100
26048,note_off,,,,,128,0,11,,,,,4,,,62,100
26048,note_off,,,,,128,0,9,,,,,2,,,62,100
26048,note_off,,,,,128,0,10,,,,,3,,,62,100
26080,note_off,,,,,64,0,8,,,,,1,,,71,100
26080,note_off,,,,,64,0,7,,,,,0,,,74,100
26112,note_on,,,,,64,0,11,,,,,4,,,69,70
26112,note_on,,,,,64,0,9,,,,,2,,,69,20
26112,note_on,,,,,32,0,8,,,,,1,,,72,100
26112,note_on,,,,,64,0,10,,,,,3,,,69,70
26112,note_on,,,,,32,0,7,,,,,0,,,76,100
26240,note_off,,,,,128,0,7,,,,,0,,,76,100
26304,note_on,,,,,64,0,7,,,,,0,,,69,100
26368,note_off,,,,,256,0,10,,,,,3,,,69,100
26368,note_off,,,,,256,0,9,,,,,2,,,69,100
26368,note_off,,,,,256,0,11,,,,,4,,,69,100
26432,note_off,,,,,128,0,7,,,,,0,,,69,100
26496,note_on,,,,,64,0,7,,,,,0,,,69,100
26496,note_off,,,,,384,0,8,,,,,1,,,72,100
26624,note_off,,,,,128,0,7,,,,,0,,,69,100
26688,note_on,,,,,64,0,7,,,,,0,,,76,85
26688,note_on,,,,,320,0,10,,,,,3,,,69,70
26688,note_on,,,,,192,0,8,,,,,1,,,72,85
26688,note_on,,,,,320,0,9,,,,,2,,,69,20
26688,note_on,,,,,320,0,11,,,,,4,,,69,70
26816,note_off,,,,,128,0,7,,,,,0,,,76,100
26816,note_off,,,,,128,0,8,,,,,1,,,72,100
26816,note_off,,,,,128,0,11,,,,,4,,,69,100
26816,note_off,,,,,128,0,9,,,,,2,,,69,100
26816,note_off,,,,,128,0,10,,,,,3,,,69,100
26880,note_on,,,,,64,0,8,,,,,1,,,74,85
26880,note_on,,,,,64,0,9,,,,,2,,,62,20
26880,note_on,,,,,64,0,10,,,,,3,,,62,70
26880,note_on,,,,,64,0,7,,,,,0,,,77,85
26880,note_on,,,,,64,0,11,,,,,4,,,62,70
27008,note_off,,,,,128,0,8,,,,,1,,,74,100
27008,note_off,,,,,128,0,7,,,,,0,,,77,100
27072,note_on,,,,,64,0,8,,,,,1,,,74,85
27072,note_on,,,,,64,0,7,,,,,0,,,77,85
27136,note_off,,,,,256,0,9,,,,,2,,,62,100
27136,note_off,,,,,256,0,10,,,,,3,,,62,100
27136,note_off,,,,,256,0,11,,,,,4,,,62,100
27200,note_off,,,,,128,0,7,,,,,0,,,77,100
27200,note_off,,,,,128,0,8,,,,,1,,,74,100
27264,note_on,,,,,64,0,8,,,,,1,,,74,85
27264,note_on,,,,,64,0,7,,,,,0,,,77,85
27308,note_off,,,,,44,0,8,,,,,1,,,74,100
27308,note_off,,,,,44,0,7,,,,,0,,,77,100
27312,note_on,,,,,4,0,8,,,,,1,,,76,85
27312,note_on,,,,,4,0,7,,,,,0,,,79,85
27356,note_off,,,,,44,0,8,,,,,1,,,76,100
27356,note_off,,,,,44,0,7,,,,,0,,,79,100
27360,note_on,,,,,4,0,8,,,,,1,,,74,85
27360,note_on,,,,,4,0,7,,,,,0,,,77,85
27424,note_off,,,,,64,0,7,,,,,0,,,77,100
27424,note_off,,,,,64,0,8,,,,,1,,,74,100
27456,note_on,,,,,32,0,8,,,,,1,,,72,85
27456,note_on,,,,,320,0,10,,,,,3,,,62,70
27456,note_on,,,,,320,0,9,,,,,2,,,62,20
27456,note_on,,,,,320,0,11,,,,,4,,,62,70
27456,note_on,,,,,32,0,7,,,,,0,,,76,85
27520,note_off,,,,,64,0,7,,,,,0,,,76,100
27520,note_off,,,,,64,0,8,,,,,1,,,72,100
27552,note_on,,,,,32,0,7,,,,,0,,,74,85
27552,note_on,,,,,32,0,8,,,,,1,,,71,85
27584,note_off,,,,,128,0,10,,,,,3,,,62,100
27584,note_off,,,,,128,0,9,,,,,2,,,62,100
27584,note_off,,,,,128,0,11,,,,,4,,,62,100
27616,note_off,,,,,64,0,8,,,,,1,,,71,100
27616,note_off,,,,,64,0,7,,,,,0,,,74,100
27648,note_on,,,,,64,0,11,,,,,4,,,69,70
27648,note_on,,,,,32,0,7,,,,,0,,,76,85
27648,note_on,,,,,64,0,9,,,,,2,,,72,35
27648,note_on,,,,,32,0,8,,,,,1,,,72,85
27648,note_on,,,,,64,0,10,,,,,3,,,69,70
27776,note_off,,,,,128,0,7,,,,,0,,,76,100
27776,note_off,,,,,128,0,11,,,,,4,,,69,100
27776,note_off,,,,,128,0,10,,,,,3,,,69,100
27840,note_on,,,,,64,0,10,,,,,3,,,57,70
27840,note_on,,,,,64,0,11,,,,,4,,,57,70
27840,note_on,,,,,64,0,7,,,,,0,,,69,85
27904,note_off,,,,,256,0,9,,,,,2,,,72,100
27904,note_off,,,,,256,0,8,,,,,1,,,72,100
27968,note_off,,,,,128,0,7,,,,,0,,,69,100
27968,note_off,,,,,128,0,11,,,,,4,,,57,100
27968,note_off,,,,,128,0,10,,,,,3,,,57,100
28032,program_change,,,,,128,0,8,,,,,1,48,,,
28032,note_on,,,,,64,0,10,,,,,3,,,57,70
28032,note_on,,,,,64,0,11,,,,,4,,,57,70
28160,note_off,,,,,128,0,10,,,,,3,,,57,100
28160,note_off,,,,,128,0,11,,,,,4,,,57,100
28224,note_on,,,,,64,0,11,,,,,4,,,57,70
28224,note_on,,,,,192,0,8,,,,,1,,,72,70
28224,note_on,,,,,256,0,7,,,,,0,,,76,100
28224,note_on,,,,,320,0,9,,,,,2,,,72,20
28224,note_on,,,,,64,0,10,,,,,3,,,57,70
28352,note_off,,,,,128,0,8,,,,,1,,,72,100
28352,note_off,,,,,128,0,10,,,,,3,,,57,100
28352,note_off,,,,,128,0,7,,,,,0,,,76,100
28352,note_off,,,,,128,0,9,,,,,2,,,72,100
28352,note_off,,,,,128,0,11,,,,,4,,,57,100
28416,note_on,,,,,64,0,7,,,,,0,,,77,100
28416,note_on,,,,,64,0,8,,,,,1,,,74,70
28416,note_on,,,,,64,0,9,,,,,2,,,74,20
28416,note_on,,,,,64,0,11,,,,,4,,,62,70
28416,note_on,,,,,64,0,10,,,,,3,,,62,70
28480,note_off,,,,,64,0,8,,,,,1,,,74,100
28480,note_off,,,,,64,0,7,,,,,0,,,77,100
28480,note_off,,,,,64,0,9,,,,,2,,,74,100
28512,note_on,,,,,32,0,8,,,,,1,,,72,70
28512,note_on,,,,,32,0,9,,,,,2,,,72,20
28512,note_on,,,,,32,0,7,,,,,0,,,76,100
28576,note_off,,,,,64,0,7,,,,,0,,,76,100
28576,note_off,,,,,64,0,8,,,,,1,,,72,100
28576,note_off,,,,,64,0,9,,,,,2,,,72,100
28608,note_on,,,,,32,0,9,,,,,2,,,74,20
28608,note_on,,,,,32,0,8,,,,,1,,,74,70
28608,note_on,,,,,32,0,7,,,,,0,,,77,100
28672,note_off,,,,,256,0,11,,,,,4,,,62,100
28672,note_off,,,,,256,0,10,,,,,3,,,62,100
28736,note_off,,,,,128,0,7,,,,,0,,,77,100
28736,note_off,,,,,128,0,9,,,,,2,,,74,100
28736,note_off,,,,,128,0,8,,,,,1,,,74,100
28896,note_on,,,,,160,0,7,,,,,0,,,74,100
28960,note_off,,,,,64,0,7,,,,,0,,,74,100
28992,note_on,,,,,320,0,11,,,,,4,,,59,70
28992,note_on,,,,,256,0,9,,,,,2,,,74,20
28992,note_on,,,,,256,0,8,,,,,1,,,74,70
28992,note_on,,,,,320,0,10,,,,,3,,,59,70
28992,note_on,,,,,32,0,7,,,,,0,,,79,100
29056,note_off,,,,,64,0,7,,,,,0,,,79,100
29088,note_on,,,,,32,0,7,,,,,0,,,77,100
29120,note_off,,,,,128,0,9,,,,,2,,,74,100
29120,note_off,,,,,128,0,10,,,,,3,,,59,100
29120,note_off,,,,,128,0,11,,,,,4,,,59,100
29120,note_off,,,,,128,0,8,,,,,1,,,74,100
29152,note_off,,,,,64,0,7,,,,,0,,,77,100
29184,note_on,,,,,64,0,11,,,,,4,,,60,70
29184,note_on,,,,,32,0,7,,,,,0,,,76,100
29184,note_on,,,,,64,0,8,,,,,1,,,67,70
29184,note_on,,,,,64,0,10,,,,,3,,,60,70
29184,note_on,,,,,64,0,9,,,,,2,,,67,20
29248,note_off,,,,,64,0,7,,,,,0,,,76,100
29280,note_on,,,,,32,0,7,,,,,0,,,74,100
29344,note_off,,,,,64,0,7,,,,,0,,,74,100
29376,note_on,,,,,32,0,7,,,,,0,,,76,100
29504,note_off,,,,,128,0,7,,,,,0,,,76,100
29564,note_off,,,,,380,0,10,,,,,3,,,60,100
29564,note_off,,,,,380,0,9,,,,,2,,,67,100
29564,note_off,,,,,380,0,8,,,,,1,,,67,100
29564,note_off,,,,,380,0,11,,,,,4,,,60,100
29664,note_on,,,,,160,0,7,,,,,0,,,72,100
29728,note_off,,,,,64,0,7,,,,,0,,,72,100
29760,note_on,,,,,196,0,10,,,,,3,,,57,70
29760,note_on,,,,,32,0,7,,,,,0,,,77,100
29760,note_on,,,,,196,0,8,,,,,1,,,72,70
29760,note_on,,,,,196,0,9,,,,,2,,,72,20
29760,note_on,,,,,196,0,11,,,,,4,,,57,70
29824,note_off,,,,,64,0,7,,,,,0,,,77,100
29856,note_on,,,,,32,0,7,,,,,0,,,76,100
29888,note_off,,,,,128,0,9,,,,,2,,,72,100
29888,note_off,,,,,128,0,10,,,,,3,,,57,100
29888,note_off,,,,,128,0,8,,,,,1,,,72,100
29888,note_off,,,,,128,0,11,,,,,4,,,57,100
29920,note_off,,,,,64,0,7,,,,,0,,,76,100
29952,note_on,,,,,64,0,8,,,,,1,,,65,70
29952,note_on,,,,,32,0,7,,,,,0,,,74,100
29952,note_on,,,,,64,0,11,,,,,4,,,59,70
29952,note_on,,,,,64,0,10,,,,,3,,,59,70
29952,note_on,,,,,64,0,9,,,,,2,,,65,20
30016,note_off,,,,,64,0,7,,,,,0,,,74,100
30048,note_on,,,,,32,0,7,,,,,0,,,72,100
30112,note_off,,,,,64,0,7,,,,,0,,,72,100
30144,note_on,,,,,32,0,7,,,,,0,,,74,100
30272,note_off,,,,,128,0,7,,,,,0,,,74,100
30332,note_off,,,,,380,0,9,,,,,2,,,65,100
30332,note_off,,,,,380,0,8,,,,,1,,,65,100
30332,note_off,,,,,380,0,10,,,,,3,,,59,100
30332,note_off,,,,,380,0,11,,,,,4,,,59,100
30432,note_on,,,,,160,0,7,,,,,0,,,71,100
30496,note_off,,,,,64,0,7,,,,,0,,,71,100
30528,note_on,,,,,196,0,11,,,,,4,,,56,70
30528,note_on,,,,,196,0,8,,,,,1,,,71,70
30528,note_on,,,,,32,0,7,,,,,0,,,76,100
30528,note_on,,,,,196,0,10,,,,,3,,,56,70
30528,note_on,,,,,196,0,9,,,,,2,,,71,20
30592,note_off,,,,,64,0,7,,,,,0,,,76,100
30624,note_on,,,,,32,0,7,,,,,0,,,74,100
30656,note_off,,,,,128,0,11,,,,,4,,,56,100
30656,note_off,,,,,128,0,10,,,,,3,,,56,100
30656,note_off,,,,,128,0,9,,,,,2,,,71,100
30656,note_off,,,,,128,0,8,,,,,1,,,71,100
30688,note_off,,,,,64,0,7,,,,,0,,,74,100
30720,note_on,,,,,64,0,9,,,,,2,,,64,20
30720,note_on,,,,,64,0,8,,,,,1,,,64,70
30720,note_on,,,,,64,0,11,,,,,4,,,57,70
30720,note_on,,,,,64,0,10,,,,,3,,,57,70
30720,note_on,,,,,32,0,7,,,,,0,,,72,100
30784,note_off,,,,,64,0,7,,,,,0,,,72,100
30816,note_on,,,,,32,0,7,,,,,0,,,71,100
30880,note_off,,,,,64,0,7,,,,,0,,,71,100
30912,note_on,,,,,32,0,7,,,,,0,,,69,100
30976,note_off,,,,,256,0,9,,,,,2,,,64,100
30976,note_off,,,,,256,0,8,,,,,1,,,64,100
30976,note_off,,,,,64,0,7,,,,,0,,,69,100
30976,note_off,,,,,256,0,11,,,,,4,,,57,100
30976,note_off,,,,,256,0,10,,,,,3,,,57,100
31008,note_on,,,,,32,0,7,,,,,0,,,71,100
31072,note_off,,,,,64,0,7,,,,,0,,,71,100
31104,note_on,,,,,32,0,7,,,,,0,,,72,100
31168,note_off,,,,,64,0,7,,,,,0,,,72,100
31200,note_on,,,,,32,0,7,,,,,0,,,74,100
31264,note_off,,,,,64,0,7,,,,,0,,,74,100
31296,note_on,,,,,320,0,10,,,,,3,,,56,70
31296,note_on,,,,,320,0,11,,,,,4,,,56,70
31296,note_on,,,,,32,0,7,,,,,0,,,76,100
31296,note_on,,,,,320,0,8,,,,,1,,,71,70
31296,note_on,,,,,320,0,9,,,,,2,,,71,20
31360,note_off,,,,,64,0,7,,,,,0,,,76,100
31392,note_on,,,,,32,0,7,,,,,0,,,74,100
31424,note_off,,,,,128,0,11,,,,,4,,,56,100
31424,note_off,,,,,128,0,10,,,,,3,,,56,100
31424,note_off,,,,,128,0,8,,,,,1,,,71,100
31424,note_off,,,,,128,0,9,,,,,2,,,71,100
31456,note_off,,,,,64,0,7,,,,,0,,,74,100
31488,note_on,,,,,64,0,8,,,,,1,,,64,70
31488,note_on,,,,,64,0,9,,,,,2,,,64,20
31488,note_on,,,,,64,0,11,,,,,4,,,57,70
31488,note_on,,,,,64,0,10,,,,,3,,,57,70
31488,note_on,,,,,32,0,7,,,,,0,,,72,85
31552,note_off,,,,,64,0,7,,,,,0,,,72,100
31584,note_on,,,,,32,0,7,,,,,0,,,71,85
31648,note_off,,,,,64,0,7,,,,,0,,,71,100
31680,note_on,,,,,32,0,7,,,,,0,,,69,85
31744,note_off,,,,,64,0,7,,,,,0,,,69,100
31744,note_off,,,,,256,0,8,,,,,1,,,64,100
31744,note_off,,,,,256,0,9,,,,,2,,,64,100
31744,note_off,,,,,256,0,10,,,,,3,,,57,100
31744,note_off,,,,,256,0,11,,,,,4,,,57,100
31776,note_on,,,,,32,0,7,,,,,0,,,71,85
31840,note_off,,,,,64,0,7,,,,,0,,,71,100
31872,note_on,,,,,32,0,7,,,,,0,,,72,85
31936,note_off,,,,,64,0,7,,,,,0,,,72,100
31968,note_on,,,,,32,0,7,,,,,0,,,74,85
32032,note_off,,,,,64,0,7,,,,,0,,,74,100
32064,note_on,,,,,320,0,11,,,,,4,,,56,70
32064,note_on,,,,,320,0,10,,,,,3,,,56,70
32064,note_on,,,,,320,0,9,,,,,2,,,71,20
32064,note_on,,,,,320,0,8,,,,,1,,,71,70
32064,note_on,,,,,32,0,7,,,,,0,,,76,85
32128,note_off,,,,,64,0,7,,,,,0,,,76,100
32160,note_on,,,,,32,0,7,,,,,0,,,74,85
32192,note_off,,,,,128,0,11,,,,,4,,,56,100
32192,note_off,,,,,128,0,9,,,,,2,,,71,100
32192,note_off,,,,,128,0,10,,,,,3,,,56,100
32192,note_off,,,,,128,0,8,,,,,1,,,71,100
32224,note_off,,,,,64,0,7,,,,,0,,,74,100
32256,note_on,,,,,64,0,11,,,,,4,,,57,70
32256,note_on,,,,,64,0,9,,,,,2,,,64,20
32256,note_on,,,,,64,0,10,,,,,3,,,57,70
32256,note_on,,,,,64,0,8,,,,,1,,,64,70
32256,note_on,,,,,32,0,7,,,,,0,,,72,100
32320,note_off,,,,,64,0,7,,,,,0,,,72,100
32352,note_on,,,,,32,0,7,,,,,0,,,71,100
32416,note_off,,,,,64,0,7,,,,,0,,,71,100
32448,note_on,,,,,32,0,7,,,,,0,,,69,100
32512,note_off,,,,,64,0,7,,,,,0,,,69,100
32512,note_off,,,,,256,0,8,,,,,1,,,64,100
32512,note_off,,,,,256,0,10,,,,,3,,,57,100
32512,note_off,,,,,256,0,11,,,,,4,,,57,100
32512,note_off,,,,,256,0,9,,,,,2,,,64,100
32544,note_on,,,,,32,0,7,,,,,0,,,71,100
32608,note_off,,,,,64,0,7,,,,,0,,,71,100
32640,note_on,,,,,32,0,7,,,,,0,,,72,100
32704,note_off,,,,,64,0,7,,,,,0,,,72,100
32736,note_on,,,,,32,0,7,,,,,0,,,74,100
32800,note_off,,,,,64,0,7,,,,,0,,,74,100
32832,note_on,,,,,320,0,11,,,,,4,,,56,70
32832,note_on,,,,,320,0,8,,,,,1,,,71,70
32832,note_on,,,,,32,0,7,,,,,0,,,76,100
32832,note_on,,,,,320,0,9,,,,,2,,,71,20
32832,note_on,,,,,320,0,10,,,,,3,,,56,70
32896,note_off,,,,,64,0,7,,,,,0,,,76,100
32928,note_on,,,,,32,0,7,,,,,0,,,74,100
32960,note_off,,,,,128,0,8,,,,,1,,,71,100
32960,note_off,,,,,128,0,10,,,,,3,,,56,100
32960,note_off,,,,,128,0,11,,,,,4,,,56,100
32960,note_off,,,,,128,0,9,,,,,2,,,71,100
32992,note_off,,,,,64,0,7,,,,,0,,,74,100
33024,note_on,,,,,32,0,7,,,,,0,,,72,100
33024,note_on,,,,,64,0,11,,,,,4,,,57,70
33024,note_on,,,,,8960,0,15,,,,,7,,,45,100
33024,note_on,,,,,8960,0,12,,,,,5,,,45,100
33024,note_on,,,,,64,0,8,,,,,1,,,64,70
33024,note_on,,,,,64,0,10,,,,,3,,,57,70
33024,note_on,,,,,0,0,14,,,,,7,,,72,100
33024,note_on,,,,,8960,0,13,,,,,6,,,33,100
33024,note_on,,,,,64,0,9,,,,,2,,,64,20
33024,note_on,,,,,8960,0,14,,,,,7,,,64,100
33152,note_off,,,,,128,0,15,,,,,7,,,45,100
33152,note_off,,,,,128,0,14,,,,,7,,,64,100
33152,note_off,,,,,0,0,14,,,,,7,,,72,100
33152,note_off,,,,,128,0,13,,,,,6,,,33,100
33152,note_off,,,,,128,0,11,,,,,4,,,57,100
33152,note_off,,,,,128,0,12,,,,,5,,,45,100
33152,note_off,,,,,128,0,7,,,,,0,,,72,100
33216,note_on,,,,,64,0,13,,,,,6,,,45,100
33216,note_on,,,,,64,0,7,,,,,0,,,69,100
33216,note_on,,,,,64,0,14,,,,,7,,,72,100
33216,note_on,,,,,64,0,11,,,,,4,,,72,100
33216,note_on,,,,,64,0,15,,,,,7,,,57,100
33216,note_on,,,,,64,0,12,,,,,5,,,57,100
33280,note_off,,,,,64,0,11,,,,,4,,,72,100
33280,note_off,,,,,64,0,13,,,,,6,,,45,100
33280,note_off,,,,,64,0,15,,,,,7,,,57,100
33280,note_off,,,,,256,0,9,,,,,2,,,64,100
33280,note_off,,,,,64,0,14,,,,,7,,,72,100
33280,note_off,,,,,256,0,10,,,,,3,,,57,100
33280,note_off,,,,,64,0,12,,,,,5,,,57,100
33280,note_off,,,,,256,0,8,,,,,1,,,64,100
33312,note_on,,,,,32,0,14,,,,,7,,,74,100
33312,note_on,,,,,32,0,13,,,,,6,,,47,100
33312,note_on,,,,,32,0,12,,,,,5,,,59,100
33312,note_on,,,,,32,0,15,,,,,7,,,59,100
33312,note_on,,,,,32,0,11,,,,,4,,,71,100
33344,note_off,,,,,128,0,7,,,,,0,,,69,100
33376,note_off,,,,,64,0,11,,,,,4,,,71,100
33376,note_off,,,,,64,0,13,,,,,6,,,47,100
33376,note_off,,,,,64,0,12,,,,,5,,,59,100
33376,note_off,,,,,64,0,15,,,,,7,,,59,100
33376,note_off,,,,,64,0,14,,,,,7,,,74,100
33408,note_on,,,,,32,0,11,,,,,4,,,69,100
33408,note_on,,,,,32,0,13,,,,,6,,,48,100
33408,note_on,,,,,32,0,15,,,,,7,,,60,100
33408,program_change,,,,,64,0,7,,,,,0,48,,,
33408,note_on,,,,,32,0,12,,,,,5,,,60,100
33408,note_on,,,,,32,0,14,,,,,7,,,76,100
33536,note_off,,,,,128,0,13,,,,,6,,,48,100
33536,note_off,,,,,128,0,11,,,,,4,,,69,100
33536,note_off,,,,,128,0,14,,,,,7,,,76,100
33536,note_off,,,,,128,0,12,,,,,5,,,60,100
33536,note_off,,,,,128,0,15,,,,,7,,,60,100
33600,note_on,,,,,64,0,13,,,,,6,,,45,100
33600,note_on,,,,,64,0,12,,,,,5,,,57,100
33600,note_on,,,,,320,0,9,,,,,2,,,76,43
33600,note_on,,,,,64,0,11,,,,,4,,,72,100
33600,note_on,,,,,64,0,14,,,,,7,,,76,100
33600,note_on,,,,,320,0,10,,,,,3,,,76,43
33600,note_on,,,,,320,0,8,,,,,1,,,76,43
33600,note_on,,,,,64,0,15,,,,,7,,,57,100
33600,note_on,,,,,192,0,7,,,,,0,,,76,93
33600,note_on,,,,,0,0,14,,,,,7,,,72,100
33728,note_off,,,,,128,0,11,,,,,4,,,72,100
33728,note_off,,,,,128,0,14,,,,,7,,,76,100
33728,note_off,,,,,128,0,15,,,,,7,,,57,100
33728,note_off,,,,,0,0,14,,,,,7,,,72,100
33728,note_off,,,,,128,0,13,,,,,6,,,45,100
33728,note_off,,,,,128,0,7,,,,,0,,,76,100
33728,note_off,,,,,128,0,8,,,,,1,,,76,100
33728,note_off,,,,,128,0,10,,,,,3,,,76,100
33728,note_off,,,,,128,0,9,,,,,2,,,76,100
33728,note_off,,,,,128,0,12,,,,,5,,,57,100
33792,note_on,,,,,0,0,14,,,,,7,,,65,100
33792,note_on,,,,,64,0,11,,,,,4,,,70,100
33792,note_on,,,,,64,0,10,,,,,3,,,77,41
33792,note_on,,,,,64,0,14,,,,,7,,,70,100
33792,note_on,,,,,64,0,8,,,,,1,,,77,41
33792,note_on,,,,,64,0,12,,,,,5,,,50,100
33792,note_on,,,,,64,0,9,,,,,2,,,77,41
33792,note_on,,,,,64,0,13,,,,,6,,,38,100
33792,note_on,,,,,64,0,15,,,,,7,,,50,100
33792,note_on,,,,,64,0,7,,,,,0,,,77,90
33980,note_off,,,,,188,0,10,,,,,3,,,77,100
33980,note_off,,,,,188,0,9,,,,,2,,,77,100
33980,note_off,,,,,188,0,8,,,,,1,,,77,100
33980,note_off,,,,,188,0,7,,,,,0,,,77,100
33984,note_on,,,,,4,0,8,,,,,1,,,70,50
33984,note_on,,,,,4,0,10,,,,,3,,,70,50
33984,note_on,,,,,4,0,9,,,,,2,,,70,50
33984,note_on,,,,,4,0,7,,,,,0,,,70,92
34048,note_off,,,,,256,0,11,,,,,4,,,70,100
34112,note_off,,,,,128,0,9,,,,,2,,,70,100
34112,note_off,,,,,128,0,8,,,,,1,,,70,100
34112,note_off,,,,,128,0,10,,,,,3,,,70,100
34112,note_off,,,,,128,0,7,,,,,0,,,70,100
34176,note_on,,,,,64,0,7,,,,,0,,,77,94
34176,note_on,,,,,64,0,10,,,,,3,,,77,50
34176,note_on,,,,,64,0,8,,,,,1,,,77,50
34176,note_on,,,,,64,0,9,,,,,2,,,77,50
34176,note_on,,,,,128,0,11,,,,,4,,,62,100
34304,note_off,,,,,0,0,14,,,,,7,,,65,100
34304,note_off,,,,,512,0,14,,,,,7,,,70,100
34304,note_off,,,,,512,0,15,,,,,7,,,50,100
34304,note_off,,,,,512,0,13,,,,,6,,,38,100
34304,note_off,,,,,512,0,12,,,,,5,,,50,100
34364,note_off,,,,,188,0,9,,,,,2,,,77,100
34364,note_off,,,,,188,0,8,,,,,1,,,77,100
34364,note_off,,,,,188,0,10,,,,,3,,,77,100
34364,note_off,,,,,188,0,7,,,,,0,,,77,100
34368,note_on,,,,,4,0,9,,,,,2,,,70,50
34368,note_on,,,,,4,0,8,,,,,1,,,70,50
34368,note_on,,,,,4,0,7,,,,,0,,,70,97
34368,note_on,,,,,4,0,10,,,,,3,,,70,50
34432,note_off,,,,,256,0,11,,,,,4,,,62,100
34496,note_off,,,,,128,0,10,,,,,3,,,70,100
34496,note_off,,,,,128,0,7,,,,,0,,,70,100
34496,note_off,,,,,128,0,8,,,,,1,,,70,100
34496,note_off,,,,,128,0,9,,,,,2,,,70,100
34560,note_on,,,,,64,0,10,,,,,3,,,76,50
34560,note_on,,,,,64,0,8,,,,,1,,,76,50
34560,note_on,,,,,128,0,11,,,,,4,,,67,100
34560,note_on,,,,,0,0,14,,,,,7,,,70,100
34560,note_on,,,,,256,0,13,,,,,6,,,37,100
34560,note_on,,,,,64,0,7,,,,,0,,,76,100
34560,note_on,,,,,64,0,9,,,,,2,,,76,50
34560,note_on,,,,,256,0,12,,,,,5,,,49,100
34560,note_on,,,,,256,0,15,,,,,7,,,49,100
34560,note_on,,,,,256,0,14,,,,,7,,,67,100
34748,note_off,,,,,188,0,7,,,,,0,,,76,100
34748,note_off,,,,,188,0,9,,,,,2,,,76,100
34748,note_off,,,,,188,0,10,,,,,3,,,76,100
34748,note_off,,,,,188,0,8,,,,,1,,,76,100
34752,note_on,,,,,4,0,10,,,,,3,,,70,48
34752,note_on,,,,,4,0,9,,,,,2,,,70,48
34752,note_on,,,,,4,0,7,,,,,0,,,70,98
34752,note_on,,,,,4,0,8,,,,,1,,,70,48
34880,note_off,,,,,128,0,7,,,,,0,,,70,100
34880,note_off,,,,,128,0,8,,,,,1,,,70,100
34880,note_off,,,,,128,0,10,,,,,3,,,70,100
34880,note_off,,,,,128,0,9,,,,,2,,,70,100
34944,note_on,,,,,64,0,9,,,,,2,,,76,46
34944,note_on,,,,,64,0,8,,,,,1,,,76,46
34944,note_on,,,,,64,0,7,,,,,0,,,76,96
34944,note_on,,,,,64,0,10,,,,,3,,,76,46
35072,note_off,,,,,512,0,13,,,,,6,,,37,100
35072,note_off,,,,,512,0,12,,,,,5,,,49,100
35072,note_off,,,,,512,0,15,,,,,7,,,49,100
35072,note_off,,,,,512,0,11,,,,,4,,,67,100
35072,note_off,,,,,0,0,14,,,,,7,,,70,100
35072,note_off,,,,,512,0,14,,,,,7,,,67,100
35132,note_off,,,,,188,0,9,,,,,2,,,76,100
35132,note_off,,,,,188,0,10,,,,,3,,,76,100
35132,note_off,,,,,188,0,8,,,,,1,,,76,100
35132,note_off,,,,,188,0,7,,,,,0,,,76,100
35136,note_on,,,,,4,0,10,,,,,3,,,70,44
35136,note_on,,,,,4,0,8,,,,,1,,,70,44
35136,note_on,,,,,4,0,9,,,,,2,,,70,44
35136,note_on,,,,,4,0,7,,,,,0,,,70,94
35264,note_off,,,,,128,0,10,,,,,3,,,70,100
35264,note_off,,,,,128,0,9,,,,,2,,,70,100
35264,note_off,,,,,128,0,7,,,,,0,,,70,100
35264,note_off,,,,,128,0,8,,,,,1,,,70,100
35328,note_on,,,,,64,0,9,,,,,2,,,76,42
35328,note_on,,,,,64,0,7,,,,,0,,,76,92
35328,note_on,,,,,256,0,11,,,,,4,,,69,100
35328,note_on,,,,,256,0,15,,,,,7,,,48,100
35328,note_on,,,,,256,0,12,,,,,5,,,48,100
35328,note_on,,,,,0,0,14,,,,,7,,,69,100
35328,note_on,,,,,64,0,8,,,,,1,,,76,42
35328,note_on,,,,,64,0,10,,,,,3,,,76,42
35328,note_on,,,,,256,0,14,,,,,7,,,64,100
35328,note_on,,,,,256,0,13,,,,,6,,,36,100
35516,note_off,,,,,188,0,8,,,,,1,,,76,100
35516,note_off,,,,,188,0,7,,,,,0,,,76,100
35516,note_off,,,,,188,0,10,,,,,3,,,76,100
35516,note_off,,,,,188,0,9,,,,,2,,,76,100
35520,note_on,,,,,4,0,10,,,,,3,,,69,40
35520,note_on,,,,,4,0,7,,,,,0,,,69,90
35520,note_on,,,,,4,0,9,,,,,2,,,69,40
35520,note_on,,,,,4,0,8,,,,,1,,,69,40
35648,note_off,,,,,128,0,7,,,,,0,,,69,100
35648,note_off,,,,,128,0,8,,,,,1,,,69,100
35648,note_off,,,,,128,0,9,,,,,2,,,69,100
35648,note_off,,,,,128,0,10,,,,,3,,,69,100
35712,note_on,,,,,64,0,8,,,,,1,,,76,38
35712,note_off,,,,,0,0,14,,,,,7,,,69,100
35712,note_off,,,,,384,0,14,,,,,7,,,64,100
35712,note_on,,,,,64,0,9,,,,,2,,,76,38
35712,note_off,,,,,384,0,11,,,,,4,,,69,100
35712,note_off,,,,,384,0,12,,,,,5,,,48,100
35712,note_off,,,,,384,0,13,,,,,6,,,36,100
35712,note_on,,,,,64,0,10,,,,,3,,,76,38
35712,note_on,,,,,64,0,7,,,,,0,,,76,88
35712,note_off,,,,,384,0,15,,,,,7,,,48,100
35900,note_off,,,,,188,0,7,,,,,0,,,76,100
35900,note_off,,,,,188,0,10,,,,,3,,,76,100
35900,note_off,,,,,188,0,9,,,,,2,,,76,100
35900,note_off,,,,,188,0,8,,,,,1,,,76,100
35904,note_on,,,,,192,0,12,,,,,5,,,50,100
35904,note_on,,,,,4,0,10,,,,,3,,,69,36
35904,note_on,,,,,0,0,14,,,,,7,,,69,100
35904,note_on,,,,,192,0,15,,,,,7,,,50,100
35904,note_on,,,,,192,0,11,,,,,4,,,65,100
35904,note_on,,,,,192,0,13,,,,,6,,,38,100
35904,note_on,,,,,4,0,9,,,,,2,,,69,36
35904,note_on,,,,,192,0,14,,,,,7,,,65,100
35904,note_on,,,,,4,0,8,,,,,1,,,69,36
35904,note_on,,,,,4,0,7,,,,,0,,,69,86
36032,note_off,,,,,128,0,14,,,,,7,,,65,100
36032,note_off,,,,,128,0,8,,,,,1,,,69,100
36032,note_off,,,,,128,0,13,,,,,6,,,38,100
36032,note_off,,,,,128,0,11,,,,,4,,,65,100
36032,note_off,,,,,128,0,9,,,,,2,,,69,100
36032,note_off,,,,,0,0,14,,,,,7,,,69,100
36032,note_off,,,,,128,0,7,,,,,0,,,69,100
36032,note_off,,,,,128,0,12,,,,,5,,,50,100
36032,note_off,,,,,128,0,15,,,,,7,,,50,100
36032,note_off,,,,,128,0,10,,,,,3,,,69,100
36096,note_on,,,,,64,0,13,,,,,6,,,40,100
36096,note_on,,,,,64,0,10,,,,,3,,,68,35
36096,note_on,,,,,64,0,9,,,,,2,,,68,35
36096,note_on,,,,,64,0,15,,,,,7,,,52,100
36096,note_on,,,,,64,0,12,,,,,5,,,52,100
36096,note_on,,,,,64,0,8,,,,,1,,,68,35
36096,note_on,,,,,64,0,11,,,,,4,,,59,100
36096,note_on,,,,,64,0,7,,,,,0,,,68,85
36096,note_on,,,,,64,0,14,,,,,7,,,68,100
36096,note_on,,,,,0,0,14,,,,,7,,,71,100
36224,note_off,,,,,128,0,12,,,,,5,,,52,100
36224,note_off,,,,,128,0,8,,,,,1,,,68,100
36224,note_off,,,,,128,0,15,,,,,7,,,52,100
36224,note_off,,,,,128,0,7,,,,,0,,,68,100
36224,note_off,,,,,128,0,9,,,,,2,,,68,100
36224,note_off,,,,,128,0,13,,,,,6,,,40,100
36224,note_off,,,,,0,0,14,,,,,7,,,71,100
36224,note_off,,,,,128,0,14,,,,,7,,,68,100
36224,note_off,,,,,128,0,10,,,,,3,,,68,100
36288,note_on,,,,,64,0,12,,,,,5,,,50,100
36288,note_on,,,,,0,0,14,,,,,7,,,69,100
36288,note_on,,,,,64,0,15,,,,,7,,,50,100
36288,note_on,,,,,64,0,7,,,,,0,,,64,86
36288,note_on,,,,,64,0,13,,,,,6,,,38,100
36288,note_on,,,,,64,0,10,,,,,3,,,64,36
36288,note_on,,,,,64,0,9,,,,,2,,,64,36
36288,note_on,,,,,64,0,14,,,,,7,,,65,100
36288,note_on,,,,,64,0,8,,,,,1,,,64,36
36352,note_off,,,,,256,0,11,,,,,4,,,59,100
36416,note_off,,,,,128,0,9,,,,,2,,,64,100
36416,note_off,,,,,128,0,7,,,,,0,,,64,100
36416,note_off,,,,,128,0,15,,,,,7,,,50,100
36416,note_off,,,,,128,0,14,,,,,7,,,65,100
36416,note_off,,,,,0,0,14,,,,,7,,,69,100
36416,note_off,,,,,128,0,12,,,,,5,,,50,100
36416,note_off,,,,,128,0,13,,,,,6,,,38,100
36416,note_off,,,,,128,0,8,,,,,1,,,64,100
36416,note_off,,,,,128,0,10,,,,,3,,,64,100
36480,note_on,,,,,64,0,15,,,,,7,,,48,100
36480,note_on,,,,,64,0,13,,,,,6,,,36,100
36480,note_on,,,,,64,0,12,,,,,5,,,48,100
36480,note_on,,,,,64,0,9,,,,,2,,,69,38
36480,note_on,,,,,64,0,8,,,,,1,,,69,38
36480,note_on,,,,,0,0,14,,,,,7,,,69,100
36480,note_on,,,,,64,0,14,,,,,7,,,64,100
36480,note_on,,,,,128,0,11,,,,,4,,,52,100
36480,note_on,,,,,64,0,7,,,,,0,,,69,88
36480,note_on,,,,,64,0,10,,,,,3,,,69,38
36608,note_off,,,,,128,0,9,,,,,2,,,69,100
36608,note_off,,,,,128,0,12,,,,,5,,,48,100
36608,note_off,,,,,0,0,14,,,,,7,,,69,100
36608,note_off,,,,,128,0,14,,,,,7,,,64,100
36608,note_off,,,,,128,0,7,,,,,0,,,69,100
36608,note_off,,,,,128,0,10,,,,,3,,,69,100
36608,note_off,,,,,128,0,13,,,,,6,,,36,100
36608,note_off,,,,,128,0,15,,,,,7,,,48,100
36608,note_off,,,,,128,0,8,,,,,1,,,69,100
36672,note_on,,,,,64,0,7,,,,,0,,,60,90
36672,note_on,,,,,64,0,12,,,,,5,,,45,100
36672,note_on,,,,,64,0,10,,,,,3,,,60,40
36672,note_on,,,,,64,0,15,,,,,7,,,45,100
36672,note_on,,,,,64,0,8,,,,,1,,,60,40
36672,note_on,,,,,64,0,9,,,,,2,,,60,40
36672,note_on,,,,,0,0,14,,,,,7,,,64,100
36672,note_on,,,,,64,0,14,,,,,7,,,60,100
36672,note_on,,,,,64,0,13,,,,,6,,,33,100
36736,note_off,,,,,256,0,11,,,,,4,,,52,100
36800,note_off,,,,,128,0,12,,,,,5,,,45,100
36800,note_off,,,,,128,0,7,,,,,0,,,60,100
36800,note_off,,,,,128,0,15,,,,,7,,,45,100
36800,note_off,,,,,128,0,9,,,,,2,,,60,100
36800,note_off,,,,,128,0,10,,,,,3,,,60,100
36800,note_off,,,,,128,0,8,,,,,1,,,60,100
36800,note_off,,,,,0,0,14,,,,,7,,,64,100
36800,note_off,,,,,128,0,14,,,,,7,,,60,100
36800,note_off,,,,,128,0,13,,,,,6,,,33,100
36864,note_on,,,,,64,0,13,,,,,6,,,38,100
36864,note_on,,,,,64,0,7,,,,,0,,,59,92
36864,note_on,,,,,64,0,8,,,,,1,,,59,42
36864,note_on,,,,,64,0,12,,,,,5,,,50,100
36864,note_on,,,,,64,0,14,,,,,7,,,59,100
36864,note_on,,,,,64,0,10,,,,,3,,,59,42
36864,note_on,,,,,64,0,15,,,,,7,,,50,100
36864,note_on,,,,,64,0,9,,,,,2,,,59,42
36864,note_on,,,,,128,0,11,,,,,4,,,53,100
36864,note_on,,,,,0,0,14,,,,,7,,,69,100
36992,note_off,,,,,128,0,7,,,,,0,,,59,100
36992,note_off,,,,,128,0,15,,,,,7,,,50,100
36992,note_off,,,,,128,0,10,,,,,3,,,59,100
36992,note_off,,,,,128,0,14,,,,,7,,,59,100
36992,note_off,,,,,128,0,12,,,,,5,,,50,100
36992,note_off,,,,,128,0,8,,,,,1,,,59,100
36992,note_off,,,,,0,0,14,,,,,7,,,69,100
36992,note_off,,,,,128,0,13,,,,,6,,,38,100
36992,note_off,,,,,128,0,9,,,,,2,,,59,100
37056,note_on,,,,,64,0,7,,,,,0,,,69,94
37056,note_on,,,,,0,0,14,,,,,7,,,62,100
37056,note_on,,,,,64,0,10,,,,,3,,,69,44
37056,note_on,,,,,64,0,14,,,,,7,,,65,100
37056,note_on,,,,,64,0,13,,,,,6,,,35,100
37056,note_on,,,,,64,0,15,,,,,7,,,47,100
37056,note_on,,,,,64,0,12,,,,,5,,,47,100
37056,note_on,,,,,64,0,8,,,,,1,,,69,44
37056,note_on,,,,,64,0,9,,,,,2,,,69,44
37120,note_off,,,,,256,0,11,,,,,4,,,53,100
37184,note_off,,,,,128,0,10,,,,,3,,,69,100
37184,note_off,,,,,128,0,9,,,,,2,,,69,100
37184,note_off,,,,,0,0,14,,,,,7,,,62,100
37184,note_off,,,,,128,0,7,,,,,0,,,69,100
37184,note_off,,,,,128,0,15,,,,,7,,,47,100
37184,note_off,,,,,128,0,13,,,,,6,,,35,100
37184,note_off,,,,,128,0,12,,,,,5,,,47,100
37184,note_off,,,,,128,0,14,,,,,7,,,65,100
37184,note_off,,,,,128,0,8,,,,,1,,,69,100
37248,note_on,,,,,128,0,11,,,,,4,,,52,100
37248,note_on,,,,,64,0,7,,,,,0,,,59,96
37248,note_on,,,,,64,0,15,,,,,7,,,52,100
37248,note_on,,,,,64,0,12,,,,,5,,,52,100
37248,note_on,,,,,64,0,8,,,,,1,,,59,46
37248,note_on,,,,,64,0,10,,,,,3,,,59,46
37248,note_on,,,,,64,0,9,,,,,2,,,59,46
37248,note_on,,,,,64,0,14,,,,,7,,,68,100
37248,note_on,,,,,0,0,14,,,,,7,,,71,100
37248,note_on,,,,,64,0,13,,,,,6,,,40,100
37376,note_off,,,,,128,0,10,,,,,3,,,59,100
37376,note_off,,,,,128,0,9,,,,,2,,,59,100
37376,note_off,,,,,128,0,15,,,,,7,,,52,100
37376,note_off,,,,,128,0,13,,,,,6,,,40,100
37376,note_off,,,,,128,0,7,,,,,0,,,59,100
37376,note_off,,,,,128,0,8,,,,,1,,,59,100
37376,note_off,,,,,128,0,14,,,,,7,,,68,100
37376,note_off,,,,,128,0,12,,,,,5,,,52,100
37376,note_off,,,,,0,0,14,,,,,7,,,71,100
37440,note_on,,,,,64,0,9,,,,,2,,,68,48
37440,note_on,,,,,64,0,12,,,,,5,,,40,100
37440,note_on,,,,,0,0,14,,,,,7,,,68,100
37440,note_on,,,,,64,0,13,,,,,6,,,40,100
37440,note_on,,,,,64,0,15,,,,,7,,,40,100
37440,note_on,,,,,64,0,8,,,,,1,,,68,48
37440,note_on,,,,,64,0,10,,,,,3,,,68,48
37440,note_on,,,,,64,0,7,,,,,0,,,68,98
37440,note_on,,,,,64,0,14,,,,,7,,,59,100
37504,note_off,,,,,256,0,11,,,,,4,,,52,100
37568,note_off,,,,,0,0,14,,,,,7,,,68,100
37568,note_off,,,,,128,0,14,,,,,7,,,59,100
37568,note_off,,,,,128,0,13,,,,,6,,,40,100
37568,note_off,,,,,128,0,12,,,,,5,,,40,100
37568,note_off,,,,,128,0,7,,,,,0,,,68,100
37568,note_off,,,,,128,0,9,,,,,2,,,68,100
37568,note_off,,,,,128,0,15,,,,,7,,,40,100
37568,note_off,,,,,128,0,10,,,,,3,,,68,100
37568,note_off,,,,,128,0,8,,,,,1,,,68,100
37632,note_on,,,,,64,0,12,,,,,5,,,45,100
37632,note_on,,,,,64,0,10,,,,,3,,,69,49
37632,note_on,,,,,64,0,15,,,,,7,,,45,100
37632,note_on,,,,,128,0,11,,,,,4,,,52,100
37632,note_on,,,,,64,0,9,,,,,2,,,69,49
37632,note_on,,,,,64,0,13,,,,,6,,,33,100
37632,note_on,,,,,64,0,8,,,,,1,,,69,49
37632,note_on,,,,,64,0,7,,,,,0,,,69,99
37632,note_on,,,,,64,0,14,,,,,7,,,69,100
37632,note_on,,,,,0,0,14,,,,,7,,,64,100
37632,note_on,,,,,0,0,14,,,,,7,,,60,100
37636,program_change,,,,,4,0,8,,,,,1,40,,,
37636,program_change,,,,,4,0,7,,,,,0,40,,,
37640,note_on,,,,,4,0,7,,,,,0,,,69,99
37640,note_on,,,,,4,0,8,,,,,1,,,69,49
37832,note_off,,,,,192,0,7,,,,,0,,,69,100
37832,note_off,,,,,192,0,8,,,,,1,,,69,100
37888,note_off,,,,,256,0,15,,,,,7,,,45,100
37888,note_off,,,,,256,0,10,,,,,3,,,69,100
37888,note_off,,,,,256,0,13,,,,,6,,,33,100
37888,note_off,,,,,56,0,7,,,,,0,,,69,100
37888,note_off,,,,,0,0,14,,,,,7,,,64,100
37888,note_off,,,,,256,0,14,,,,,7,,,69,100
37888,note_off,,,,,256,0,9,,,,,2,,,69,100
37888,note_off,,,,,256,0,11,,,,,4,,,52,100
37888,note_off,,,,,56,0,8,,,,,1,,,69,100
37888,note_off,,,,,0,0,14,,,,,7,,,60,100
37888,note_off,,,,,256,0,12,,,,,5,,,45,100
37920,note_on,,,,,32,0,8,,,,,1,,,71,100
37920,note_on,,,,,32,0,7,,,,,0,,,68,100
37984,note_off,,,,,64,0,8,,,,,1,,,71,100
37984,note_off,,,,,64,0,7,,,,,0,,,68,100
38016,note_on,,,,,32,0,8,,,,,1,,,72,100
38016,note_on,,,,,32,0,7,,,,,0,,,69,100
38208,note_off,,,,,192,0,7,,,,,0,,,69,100
38208,note_off,,,,,192,0,8,,,,,1,,,72,100
38304,note_on,,,,,96,0,8,,,,,1,,,74,100
38304,note_on,,,,,96,0,7,,,,,0,,,71,100
38368,note_off,,,,,64,0,8,,,,,1,,,74,100
38368,note_off,,,,,64,0,7,,,,,0,,,71,100
38400,note_on,,,,,512,0,9,,,,,2,,,69,20
38400,note_on,,,,,512,0,11,,,,,4,,,69,70
38400,note_on,,,,,512,0,10,,,,,3,,,69,70
38400,note_on,,,,,32,0,8,,,,,1,,,76,100
38400,note_on,,,,,32,0,7,,,,,0,,,72,100
38656,note_off,,,,,256,0,9,,,,,2,,,69,100
38656,note_off,,,,,256,0,10,,,,,3,,,69,100
38656,note_off,,,,,256,0,11,,,,,4,,,69,100
38784,note_off,,,,,384,0,8,,,,,1,,,76,100
38784,note_off,,,,,384,0,7,,,,,0,,,72,100
38976,note_on,,,,,320,0,9,,,,,2,,,69,20
38976,note_on,,,,,320,0,11,,,,,4,,,69,70
38976,note_on,,,,,192,0,7,,,,,0,,,72,100
38976,note_on,,,,,320,0,10,,,,,3,,,69,70
38976,note_on,,,,,192,0,8,,,,,1,,,76,100
39104,note_off,,,,,128,0,9,,,,,2,,,69,100
39104,note_off,,,,,128,0,11,,,,,4,,,69,100
39104,note_off,,,,,128,0,10,,,,,3,,,69,100
39104,note_off,,,,,128,0,7,,,,,0,,,72,100
39104,note_off,,,,,128,0,8,,,,,1,,,76,100
39168,note_on,,,,,64,0,7,,,,,0,,,74,100
39168,note_on,,,,,64,0,9,,,,,2,,,62,20
39168,note_on,,,,,64,0,8,,,,,1,,,77,100
39168,note_on,,,,,64,0,11,,,,,4,,,62,70
39168,note_on,,,,,64,0,10,,,,,3,,,62,70
39296,note_off,,,,,128,0,8,,,,,1,,,77,100
39296,note_off,,,,,128,0,7,,,,,0,,,74,100
39360,note_on,,,,,64,0,8,,,,,1,,,77,100
39360,note_on,,,,,64,0,7,,,,,0,,,74,100
39424,note_off,,,,,256,0,9,,,,,2,,,62,100
39424,note_off,,,,,256,0,10,,,,,3,,,62,100
39424,note_off,,,,,256,0,11,,,,,4,,,62,100
39488,note_off,,,,,128,0,8,,,,,1,,,77,100
39488,note_off,,,,,128,0,7,,,,,0,,,74,100
39552,note_on,,,,,64,0,8,,,,,1,,,77,100
39552,note_on,,,,,64,0,7,,,,,0,,,74,100
39596,note_off,,,,,44,0,8,,,,,1,,,77,100
39596,note_off,,,,,44,0,7,,,,,0,,,74,100
39600,note_on,,,,,4,0,8,,,,,1,,,79,100
39600,note_on,,,,,4,0,7,,,,,0,,,76,100
39644,note_off,,,,,44,0,7,,,,,0,,,76,100
39644,note_off,,,,,44,0,8,,,,,1,,,79,100
39648,note_on,,,,,4,0,8,,,,,1,,,77,100
39648,note_on,,,,,4,0,7,,,,,0,,,74,100
39712,note_off,,,,,64,0,8,,,,,1,,,77,100
39712,note_off,,,,,64,0,7,,,,,0,,,74,100
39744,note_on,,,,,32,0,8,,,,,1,,,76,100
39744,note_on,,,,,320,0,10,,,,,3,,,62,70
39744,note_on,,,,,32,0,7,,,,,0,,,72,100
39744,note_on,,,,,320,0,9,,,,,2,,,62,20
39744,note_on,,,,,320,0,11,,,,,4,,,62,70
39808,note_off,,,,,64,0,8,,,,,1,,,76,100
39808,note_off,,,,,64,0,7,,,,,0,,,72,100
39840,note_on,,,,,32,0,8,,,,,1,,,74,100
39840,note_on,,,,,32,0,7,,,,,0,,,71,100
39872,note_off,,,,,128,0,9,,,,,2,,,62,100
39872,note_off,,,,,128,0,10,,,,,3,,,62,100
39872,note_off,,,,,128,0,11,,,,,4,,,62,100
39904,note_off,,,,,64,0,8,,,,,1,,,74,100
39904,note_off,,,,,64,0,7,,,,,0,,,71,100
39936,note_on,,,,,64,0,9,,,,,2,,,69,20
39936,note_on,,,,,32,0,7,,,,,0,,,72,100
39936,note_on,,,,,64,0,10,,,,,3,,,69,70
39936,note_on,,,,,32,0,8,,,,,1,,,76,100
39936,note_on,,,,,64,0,11,,,,,4,,,69,70
40064,note_off,,,,,128,0,8,,,,,1,,,76,100
40128,note_on,,,,,64,0,8,,,,,1,,,69,100
40192,note_off,,,,,256,0,9,,,,,2,,,69,100
40192,note_off,,,,,256,0,10,,,,,3,,,69,100
40192,note_off,,,,,256,0,11,,,,,4,,,69,100
40256,note_off,,,,,128,0,8,,,,,1,,,69,100
40320,note_off,,,,,384,0,7,,,,,0,,,72,100
40320,note_on,,,,,64,0,8,,,,,1,,,69,100
40448,note_off,,,,,128,0,8,,,,,1,,,69,100
40512,note_on,,,,,320,0,10,,,,,3,,,69,70
40512,note_on,,,,,320,0,9,,,,,2,,,69,20
40512,note_on,,,,,192,0,7,,,,,0,,,72,85
40512,note_on,,,,,320,0,11,,,,,4,,,69,70
40512,note_on,,,,,64,0,8,,,,,1,,,76,85
40640,note_off,,,,,128,0,11,,,,,4,,,69,100
40640,note_off,,,,,128,0,9,,,,,2,,,69,100
40640,note_off,,,,,128,0,8,,,,,1,,,76,100
40640,note_off,,,,,128,0,10,,,,,3,,,69,100
40640,note_off,,,,,128,0,7,,,,,0,,,72,100
40704,note_on,,,,,64,0,11,,,,,4,,,62,70
40704,note_on,,,,,64,0,9,,,,,2,,,62,20
40704,note_on,,,,,64,0,7,,,,,0,,,74,85
40704,note_on,,,,,64,0,10,,,,,3,,,62,70
40704,note_on,,,,,64,0,8,,,,,1,,,77,85
40832,note_off,,,,,128,0,7,,,,,0,,,74,100
40832,note_off,,,,,128,0,8,,,,,1,,,77,100
40896,note_on,,,,,64,0,7,,,,,0,,,74,85
40896,note_on,,,,,64,0,8,,,,,1,,,77,85
40960,note_off,,,,,256,0,10,,,,,3,,,62,100
40960,note_off,,,,,256,0,11,,,,,4,,,62,100
40960,note_off,,,,,256,0,9,,,,,2,,,62,100
41024,note_off,,,,,128,0,7,,,,,0,,,74,100
41024,note_off,,,,,128,0,8,,,,,1,,,77,100
41088,note_on,,,,,64,0,7,,,,,0,,,74,85
41088,note_on,,,,,64,0,8,,,,,1,,,77,85
41132,note_off,,,,,44,0,7,,,,,0,,,74,100
41132,note_off,,,,,44,0,8,,,,,1,,,77,100
41136,note_on,,,,,4,0,7,,,,,0,,,76,85
41136,note_on,,,,,4,0,8,,,,,1,,,79,85
41180,note_off,,,,,44,0,8,,,,,1,,,79,100
41180,note_off,,,,,44,0,7,,,,,0,,,76,100
41184,note_on,,,,,4,0,8,,,,,1,,,77,85
41184,note_on,,,,,4,0,7,,,,,0,,,74,85
41248,note_off,,,,,64,0,7,,,,,0,,,74,100
41248,note_off,,,,,64,0,8,,,,,1,,,77,100
41280,note_on,,,,,320,0,11,,,,,4,,,62,70
41280,note_on,,,,,320,0,10,,,,,3,,,62,70
41280,note_on,,,,,320,0,9,,,,,2,,,62,20
41280,note_on,,,,,32,0,8,,,,,1,,,76,85
41280,note_on,,,,,32,0,7,,,,,0,,,72,85
41344,note_off,,,,,64,0,8,,,,,1,,,76,100
41344,note_off,,,,,64,0,7,,,,,0,,,72,100
41376,note_on,,,,,32,0,8,,,,,1,,,74,85
41376,note_on,,,,,32,0,7,,,,,0,,,71,85
41408,note_off,,,,,128,0,11,,,,,4,,,62,100
41408,note_off,,,,,128,0,9,,,,,2,,,62,100
41408,note_off,,,,,128,0,10,,,,,3,,,62,100
41440,note_off,,,,,64,0,8,,,,,1,,,74,100
41440,note_off,,,,,64,0,7,,,,,0,,,71,100
41472,note_on,,,,,64,0,9,,,,,2,,,69,20
41472,note_on,,,,,64,0,10,,,,,3,,,69,70
41472,note_on,,,,,64,0,11,,,,,4,,,69,70
41472,note_on,,,,,32,0,8,,,,,1,,,76,85
41472,note_on,,,,,32,0,7,,,,,0,,,72,85
41600,note_off,,,,,128,0,10,,,,,3,,,69,100
41600,note_off,,,,,128,0,8,,,,,1,,,76,100
41600,note_off,,,,,128,0,11,,,,,4,,,69,100
41664,note_on,,,,,64,0,8,,,,,1,,,69,85
41664,note_on,,,,,64,0,11,,,,,4,,,57,70
41664,note_on,,,,,64,0,10,,,,,3,,,57,70
41728,note_off,,,,,256,0,7,,,,,0,,,72,100
41728,note_off,,,,,256,0,9,,,,,2,,,69,100
41792,note_off,,,,,128,0,11,,,,,4,,,57,100
41792,note_off,,,,,128,0,8,,,,,1,,,69,100
41792,note_off,,,,,128,0,10,,,,,3,,,57,100
41856,note_on,,,,,64,0,10,,,,,3,,,57,70
41856,note_on,,,,,64,0,11,,,,,4,,,57,70
41856,program_change,,,,,128,0,7,,,,,0,48,,,
41984,note_off,,,,,128,0,11,,,,,4,,,57,100
41984,note_off,,,,,128,0,10,,,,,3,,,57,100
42048,note_on,,,,,64,0,10,,,,,3,,,57,70
42048,note_on,,,,,64,0,11,,,,,4,,,57,70
42048,note_on,,,,,320,0,9,,,,,2,,,72,70
42048,note_on,,,,,256,0,8,,,,,1,,,76,100
42048,note_on,,,,,192,0,7,,,,,0,,,72,20
42176,note_off,,,,,128,0,11,,,,,4,,,57,100
42176,note_off,,,,,128,0,8,,,,,1,,,76,100
42176,note_off,,,,,128,0,10,,,,,3,,,57,100
42176,note_off,,,,,128,0,9,,,,,2,,,72,100
42176,note_off,,,,,128,0,7,,,,,0,,,72,100
42240,note_on,,,,,64,0,10,,,,,3,,,59,70
42240,note_on,,,,,64,0,9,,,,,2,,,74,70
42240,note_on,,,,,64,0,8,,,,,1,,,77,100
42240,note_on,,,,,64,0,7,,,,,0,,,74,20
42240,note_on,,,,,64,0,11,,,,,4,,,59,70
42304,note_off,,,,,64,0,8,,,,,1,,,77,100
42336,note_on,,,,,32,0,8,,,,,1,,,76,100
42400,note_off,,,,,64,0,8,,,,,1,,,76,100
42432,note_on,,,,,32,0,8,,,,,1,,,74,100
42496,note_off,,,,,256,0,9,,,,,2,,,74,100
42496,note_off,,,,,64,0,8,,,,,1,,,74,100
42496,note_off,,,,,256,0,10,,,,,3,,,59,100
42496,note_off,,,,,256,0,7,,,,,0,,,74,100
42496,note_off,,,,,256,0,11,,,,,4,,,59,100
42528,note_on,,,,,32,0,8,,,,,1,,,76,100
42592,note_off,,,,,64,0,8,,,,,1,,,76,100
42624,note_on,,,,,32,0,8,,,,,1,,,77,100
42688,note_off,,,,,64,0,8,,,,,1,,,77,100
42720,note_on,,,,,32,0,8,,,,,1,,,81,100
42784,note_off,,,,,64,0,8,,,,,1,,,81,100
42816,note_on,,,,,320,0,7,,,,,0,,,74,20
42816,note_on,,,,,32,0,8,,,,,1,,,79,100
42816,note_on,,,,,320,0,9,,,,,2,,,74,70
42816,note_on,,,,,320,0,10,,,,,3,,,59,70
42816,note_on,,,,,320,0,11,,,,,4,,,59,70
42880,note_off,,,,,64,0,8,,,,,1,,,79,100
42912,note_on,,,,,32,0,8,,,,,1,,,77,100
42944,note_off,,,,,128,0,9,,,,,2,,,74,100
42944,note_off,,,,,128,0,11,,,,,4,,,59,100
42944,note_off,,,,,128,0,7,,,,,0,,,74,100
42944,note_off,,,,,128,0,10,,,,,3,,,59,100
42976,note_off,,,,,64,0,8,,,,,1,,,77,100
43008,note_on,,,,,64,0,9,,,,,2,,,67,70
43008,note_on,,,,,32,0,8,,,,,1,,,76,100
43008,note_on,,,,,64,0,7,,,,,0,,,67,20
43008,note_on,,,,,64,0,11,,,,,4,,,60,70
43008,note_on,,,,,64,0,10,,,,,3,,,60,70
43072,note_off,,,,,64,0,8,,,,,1,,,76,100
43104,note_on,,,,,32,0,8,,,,,1,,,74,100
43168,note_off,,,,,64,0,8,,,,,1,,,74,100
43200,note_on,,,,,32,0,8,,,,,1,,,72,100
43264,note_off,,,,,256,0,9,,,,,2,,,67,100
43264,note_off,,,,,256,0,7,,,,,0,,,67,100
43264,note_off,,,,,256,0,11,,,,,4,,,60,100
43264,note_off,,,,,256,0,10,,,,,3,,,60,100
43264,note_off,,,,,64,0,8,,,,,1,,,72,100
43296,note_on,,,,,32,0,8,,,,,1,,,74,100
43360,note_off,,,,,64,0,8,,,,,1,,,74,100
43392,note_on,,,,,32,0,8,,,,,1,,,76,100
43456,note_off,,,,,64,0,8,,,,,1,,,76,100
43488,note_on,,,,,32,0,8,,,,,1,,,79,100
43552,note_off,,,,,64,0,8,,,,,1,,,79,100
43584,note_on,,,,,320,0,10,,,,,3,,,57,70
43584,note_on,,,,,320,0,11,,,,,4,,,57,70
43584,note_on,,,,,32,0,8,,,,,1,,,77,100
43584,note_on,,,,,320,0,9,,,,,2,,,72,70
43584,note_on,,,,,320,0,7,,,,,0,,,72,20
43648,note_off,,,,,64,0,8,,,,,1,,,77,100
43680,note_on,,,,,32,0,8,,,,,1,,,76,100
43712,note_off,,,,,128,0,10,,,,,3,,,57,100
43712,note_off,,,,,128,0,7,,,,,0,,,72,100
43712,note_off,,,,,128,0,9,,,,,2,,,72,100
43712,note_off,,,,,128,0,11,,,,,4,,,57,100
43744,note_off,,,,,64,0,8,,,,,1,,,76,100
43776,note_on,,,,,32,0,8,,,,,1,,,74,100
43776,note_on,,,,,64,0,11,,,,,4,,,59,70
43776,note_on,,,,,64,0,10,,,,,3,,,59,70
43776,note_on,,,,,64,0,7,,,,,0,,,65,20
43776,note_on,,,,,64,0,9,,,,,2,,,65,70
43840,note_off,,,,,64,0,8,,,,,1,,,74,100
43872,note_on,,,,,32,0,8,,,,,1,,,72,100
43936,note_off,,,,,64,0,8,,,,,1,,,72,100
43968,note_on,,,,,32,0,8,,,,,1,,,71,100
44032,note_off,,,,,256,0,11,,,,,4,,,59,100
44032,note_off,,,,,256,0,7,,,,,0,,,65,100
44032,note_off,,,,,256,0,10,,,,,3,,,59,100
44032,note_off,,,,,256,0,9,,,,,2,,,65,100
44032,note_off,,,,,64,0,8,,,,,1,,,71,100
44064,note_on,,,,,32,0,8,,,,,1,,,72,100
44128,note_off,,,,,64,0,8,,,,,1,,,72,100
44160,note_on,,,,,32,0,8,,,,,1,,,74,100
44224,note_off,,,,,64,0,8,,,,,1,,,74,100
44256,note_on,,,,,32,0,8,,,,,1,,,77,100
44320,note_off,,,,,64,0,8,,,,,1,,,77,100
44352,note_on,,,,,320,0,9,,,,,2,,,71,70
44352,note_on,,,,,320,0,10,,,,,3,,,56,70
44352,note_on,,,,,320,0,7,,,,,0,,,71,20
44352,note_on,,,,,320,0,11,,,,,4,,,56,70
44352,note_on,,,,,32,0,8,,,,,1,,,76,100
44416,note_off,,,,,64,0,8,,,,,1,,,76,100
44448,note_on,,,,,32,0,8,,,,,1,,,74,100
44480,note_off,,,,,128,0,7,,,,,0,,,71,100
44480,note_off,,,,,128,0,10,,,,,3,,,56,100
44480,note_off,,,,,128,0,9,,,,,2,,,71,100
44480,note_off,,,,,128,0,11,,,,,4,,,56,100
44512,note_off,,,,,64,0,8,,,,,1,,,74,100
44536,program_change,,,,,56,0,7,,,,,0,40,,,
44544,note_on,,,,,6656,0,12,,,,,5,,,57,85
44544,note_on,,,,,64,0,11,,,,,4,,,57,70
44544,note_on,,,,,32,0,8,,,,,1,,,72,100
44544,note_on,,,,,64,0,10,,,,,3,,,57,70
44544,note_on,,,,,0,0,14,,,,,7,,,67,100
44544,note_on,,,,,6656,0,14,,,,,7,,,76,100
44544,note_on,,,,,8,0,7,,,,,0,,,64,100
44544,note_on,,,,,6656,0,13,,,,,6,,,45,85
44544,note_on,,,,,64,0,9,,,,,2,,,64,70
44544,note_on,,,,,6656,0,15,,,,,7,,,57,100
44608,note_off,,,,,64,0,8,,,,,1,,,72,100
44640,note_on,,,,,32,0,8,,,,,1,,,71,100
44672,note_off,,,,,128,0,13,,,,,6,,,45,100
44672,note_off,,,,,128,0,15,,,,,7,,,57,100
44672,note_off,,,,,128,0,14,,,,,7,,,76,100
44672,note_off,,,,,0,0,14,,,,,7,,,67,100
44672,note_off,,,,,128,0,12,,,,,5,,,57,100
44704,note_off,,,,,64,0,8,,,,,1,,,71,100
44736,note_on,,,,,64,0,15,,,,,7,,,45,100
44736,note_on,,,,,64,0,14,,,,,7,,,64,100
44736,note_on,,,,,0,0,14,,,,,7,,,67,100
44736,note_on,,,,,64,0,12,,,,,5,,,45,85
44736,note_on,,,,,64,0,13,,,,,6,,,33,85
44736,note_on,,,,,32,0,8,,,,,1,,,69,100
44736,note_off,,,,,192,0,7,,,,,0,,,64,100
44800,note_off,,,,,256,0,10,,,,,3,,,57,100
44800,note_off,,,,,256,0,11,,,,,4,,,57,100
44800,note_off,,,,,256,0,9,,,,,2,,,64,100
44832,note_on,,,,,96,0,7,,,,,0,,,76,100
44864,note_off,,,,,128,0,12,,,,,5,,,45,100
44864,note_off,,,,,128,0,8,,,,,1,,,69,100
44864,note_off,,,,,128,0,13,,,,,6,,,33,100
44864,note_off,,,,,0,0,14,,,,,7,,,67,100
44864,note_off,,,,,128,0,14,,,,,7,,,64,100
44864,note_off,,,,,128,0,15,,,,,7,,,45,100
44896,note_off,,,,,64,0,7,,,,,0,,,76,100
44928,note_on,,,,,32,0,7,,,,,0,,,81,100
44992,note_off,,,,,64,0,7,,,,,0,,,81,100
45024,note_on,,,,,32,0,7,,,,,0,,,72,100
45088,note_off,,,,,64,0,7,,,,,0,,,72,100
45120,note_on,,,,,256,0,12,,,,,5,,,57,85
45120,note_on,,,,,256,0,13,,,,,6,,,45,85
45120,note_on,,,,,0,0,14,,,,,7,,,69,100
45120,note_on,,,,,256,0,14,,,,,7,,,76,100
45120,note_on,,,,,32,0,7,,,,,0,,,81,100
45120,note_on,,,,,256,0,15,,,,,7,,,57,100
45184,note_off,,,,,64,0,7,,,,,0,,,81,100
45216,note_on,,,,,32,0,7,,,,,0,,,72,100
45248,note_off,,,,,128,0,12,,,,,5,,,57,100
45248,note_off,,,,,0,0,14,,,,,7,,,69,100
45248,note_off,,,,,128,0,14,,,,,7,,,76,100
45248,note_off,,,,,128,0,13,,,,,6,,,45,100
45248,note_off,,,,,128,0,15,,,,,7,,,57,100
45280,note_off,,,,,64,0,7,,,,,0,,,72,100
45312,note_on,,,,,64,0,15,,,,,7,,,59,100
45312,note_on,,,,,32,0,7,,,,,0,,,74,100
45312,note_on,,,,,64,0,12,,,,,5,,,59,85
45312,note_on,,,,,0,0,14,,,,,7,,,69,100
45312,note_on,,,,,64,0,14,,,,,7,,,77,100
45312,note_on,,,,,64,0,13,,,,,6,,,47,85
45404,note_off,,,,,92,0,7,,,,,0,,,74,100
45408,note_on,,,,,4,0,7,,,,,0,,,72,100
45440,note_off,,,,,128,0,13,,,,,6,,,47,100
45440,note_off,,,,,128,0,14,,,,,7,,,77,100
45440,note_off,,,,,0,0,14,,,,,7,,,69,100
45440,note_off,,,,,128,0,15,,,,,7,,,59,100
45440,note_off,,,,,128,0,12,,,,,5,,,59,100
45500,note_off,,,,,92,0,7,,,,,0,,,72,100
45504,note_on,,,,,64,0,12,,,,,5,,,47,85
45504,note_on,,,,,64,0,15,,,,,7,,,47,100
45504,note_on,,,,,4,0,7,,,,,0,,,71,100
45504,note_on,,,,,64,0,13,,,,,6,,,35,85
45504,note_on,,,,,64,0,14,,,,,7,,,65,100
45504,note_on,,,,,0,0,14,,,,,7,,,69,100
45568,note_off,,,,,64,0,7,,,,,0,,,71,100
45600,note_on,,,,,32,0,7,,,,,0,,,74,100
45632,note_off,,,,,128,0,12,,,,,5,,,47,100
45632,note_off,,,,,128,0,13,,,,,6,,,35,100
45632,note_off,,,,,128,0,15,,,,,7,,,47,100
45632,note_off,,,,,0,0,14,,,,,7,,,69,100
45632,note_off,,,,,128,0,14,,,,,7,,,65,100
45664,note_off,,,,,64,0,7,,,,,0,,,74,100
45696,note_on,,,,,32,0,7,,,,,0,,,79,100
45760,note_off,,,,,64,0,7,,,,,0,,,79,100
45792,note_on,,,,,32,0,7,,,,,0,,,71,100
45856,note_off,,,,,64,0,7,,,,,0,,,71,100
45888,note_on,,,,,32,0,7,,,,,0,,,79,100
45888,note_on,,,,,256,0,14,,,,,7,,,74,100
45888,note_on,,,,,256,0,13,,,,,6,,,47,85
45888,note_on,,,,,256,0,12,,,,,5,,,59,85
45888,note_on,,,,,256,0,15,,,,,7,,,59,100
45888,note_on,,,,,0,0,14,,,,,7,,,67,100
45952,note_off,,,,,64,0,7,,,,,0,,,79,100
45984,note_on,,,,,32,0,7,,,,,0,,,71,100
46016,note_off,,,,,128,0,12,,,,,5,,,59,100
46016,note_off,,,,,128,0,13,,,,,6,,,47,100
46016,note_off,,,,,128,0,15,,,,,7,,,59,100
46016,note_off,,,,,128,0,14,,,,,7,,,74,100
46016,note_off,,,,,0,0,14,,,,,7,,,67,100
46048,note_off,,,,,64,0,7,,,,,0,,,71,100
46080,note_on,,,,,64,0,12,,,,,5,,,57,85
46080,note_on,,,,,64,0,15,,,,,7,,,57,100
46080,note_on,,,,,64,0,13,,,,,6,,,45,85
46080,note_on,,,,,64,0,14,,,,,7,,,67,100
46080,note_on,,,,,0,0,14,,,,,7,,,76,100
46080,note_on,,,,,32,0,7,,,,,0,,,72,100
46172,note_off,,,,,92,0,7,,,,,0,,,72,100
46176,note_on,,,,,4,0,7,,,,,0,,,71,100
46208,note_off,,,,,128,0,13,,,,,6,,,45,100
46208,note_off,,,,,128,0,15,,,,,7,,,57,100
46208,note_off,,,,,0,0,14,,,,,7,,,76,100
46208,note_off,,,,,128,0,14,,,,,7,,,67,100
46208,note_off,,,,,128,0,12,,,,,5,,,57,100
46268,note_off,,,,,92,0,7,,,,,0,,,71,100
46272,note_on,,,,,64,0,14,,,,,7,,,64,100
46272,note_on,,,,,64,0,15,,,,,7,,,45,100
46272,note_on,,,,,4,0,7,,,,,0,,,69,100
46272,note_on,,,,,0,0,14,,,,,7,,,67,100
46272,note_on,,,,,64,0,13,,,,,6,,,33,85
46272,note_on,,,,,64,0,12,,,,,5,,,45,85
46336,note_off,,,,,64,0,7,,,,,0,,,69,100
46368,note_on,,,,,32,0,7,,,,,0,,,72,100
46400,note_off,,,,,128,0,15,,,,,7,,,45,100
46400,note_off,,,,,128,0,13,,,,,6,,,33,100
46400,note_off,,,,,128,0,14,,,,,7,,,64,100
46400,note_off,,,,,0,0,14,,,,,7,,,67,100
46400,note_off,,,,,128,0,12,,,,,5,,,45,100
46432,note_off,,,,,64,0,7,,,,,0,,,72,100
46464,note_on,,,,,32,0,7,,,,,0,,,77,100
46528,note_off,,,,,64,0,7,,,,,0,,,77,100
46560,note_on,,,,,32,0,7,,,,,0,,,69,100
46624,note_off,,,,,64,0,7,,,,,0,,,69,100
46656,note_on,,,,,32,0,7,,,,,0,,,77,100
46656,note_on,,,,,256,0,14,,,,,7,,,65,100
46656,note_on,,,,,0,0,14,,,,,7,,,72,100
46656,note_on,,,,,256,0,15,,,,,7,,,57,100
46656,note_on,,,,,256,0,13,,,,,6,,,45,85
46656,note_on,,,,,256,0,12,,,,,5,,,57,85
46720,note_off,,,,,64,0,7,,,,,0,,,77,100
46752,note_on,,,,,32,0,7,,,,,0,,,69,100
46784,note_off,,,,,0,0,14,,,,,7,,,72,100
46784,note_off,,,,,128,0,15,,,,,7,,,57,100
46784,note_off,,,,,128,0,12,,,,,5,,,57,100
46784,note_off,,,,,128,0,14,,,,,7,,,65,100
46784,note_off,,,,,128,0,13,,,,,6,,,45,100
46816,note_off,,,,,64,0,7,,,,,0,,,69,100
46848,note_on,,,,,64,0,13,,,,,6,,,43,85
46848,note_on,,,,,64,0,15,,,,,7,,,55,100
46848,note_on,,,,,64,0,14,,,,,7,,,67,100
46848,note_on,,,,,0,0,14,,,,,7,,,74,100
46848,note_on,,,,,64,0,12,,,,,5,,,55,85
46848,note_on,,,,,32,0,7,,,,,0,,,71,100
46940,note_off,,,,,92,0,7,,,,,0,,,71,100
46944,note_on,,,,,4,0,7,,,,,0,,,69,100
46976,note_off,,,,,0,0,14,,,,,7,,,74,100
46976,note_off,,,,,128,0,14,,,,,7,,,67,100
46976,note_off,,,,,128,0,13,,,,,6,,,43,100
46976,note_off,,,,,128,0,15,,,,,7,,,55,100
46976,note_off,,,,,128,0,12,,,,,5,,,55,100
47036,note_off,,,,,92,0,7,,,,,0,,,69,100
47040,note_on,,,,,64,0,14,,,,,7,,,62,100
47040,note_on,,,,,64,0,15,,,,,7,,,43,100
47040,note_on,,,,,64,0,13,,,,,6,,,43,85
47040,note_on,,,,,4,0,7,,,,,0,,,67,100
47040,note_on,,,,,64,0,12,,,,,5,,,43,85
47040,note_on,,,,,0,0,14,,,,,7,,,67,100
47104,note_off,,,,,64,0,7,,,,,0,,,67,100
47136,note_on,,,,,32,0,7,,,,,0,,,71,100
47168,note_off,,,,,128,0,15,,,,,7,,,43,100
47168,note_off,,,,,128,0,14,,,,,7,,,62,100
47168,note_off,,,,,0,0,14,,,,,7,,,67,100
47168,note_off,,,,,128,0,12,,,,,5,,,43,100
47168,note_off,,,,,128,0,13,,,,,6,,,43,100
47200,note_off,,,,,64,0,7,,,,,0,,,71,100
47232,note_on,,,,,32,0,7,,,,,0,,,76,100
47296,note_off,,,,,64,0,7,,,,,0,,,76,100
47328,note_on,,,,,32,0,7,,,,,0,,,67,100
47392,note_off,,,,,64,0,7,,,,,0,,,67,100
47424,note_on,,,,,256,0,13,,,,,6,,,43,85
47424,note_on,,,,,256,0,15,,,,,7,,,55,100
47424,note_on,,,,,256,0,12,,,,,5,,,55,85
47424,note_on,,,,,0,0,14,,,,,7,,,64,100
47424,note_on,,,,,256,0,14,,,,,7,,,71,100
47424,note_on,,,,,32,0,7,,,,,0,,,76,100
47488,note_off,,,,,64,0,7,,,,,0,,,76,100
47520,note_on,,,,,32,0,7,,,,,0,,,67,100
47552,note_off,,,,,128,0,15,,,,,7,,,55,100
47552,note_off,,,,,0,0,14,,,,,7,,,64,100
47552,note_off,,,,,128,0,14,,,,,7,,,71,100
47552,note_off,,,,,128,0,13,,,,,6,,,43,100
47552,note_off,,,,,128,0,12,,,,,5,,,55,100
47584,note_off,,,,,64,0,7,,,,,0,,,67,100
47616,note_on,,,,,64,0,12,,,,,5,,,53,85
47616,note_on,,,,,0,0,14,,,,,7,,,64,100
47616,note_on,,,,,64,0,13,,,,,6,,,41,85
47616,note_on,,,,,64,0,15,,,,,7,,,53,100
47616,note_on,,,,,32,0,7,,,,,0,,,69,100
47616,note_on,,,,,64,0,14,,,,,7,,,72,100
47708,note_off,,,,,92,0,7,,,,,0,,,69,100
47712,note_on,,,,,4,0,7,,,,,0,,,67,100
47744,note_off,,,,,0,0,14,,,,,7,,,64,100
47744,note_off,,,,,128,0,14,,,,,7,,,72,100
47744,note_off,,,,,128,0,15,,,,,7,,,53,100
47744,note_off,,,,,128,0,12,,,,,5,,,53,100
47744,note_off,,,,,128,0,13,,,,,6,,,41,100
47804,note_off,,,,,92,0,7,,,,,0,,,67,100
47808,note_on,,,,,64,0,13,,,,,6,,,41,85
47808,note_on,,,,,4,0,7,,,,,0,,,65,100
47808,note_on,,,,,64,0,15,,,,,7,,,41,100
47808,note_on,,,,,64,0,12,,,,,5,,,41,85
47808,note_on,,,,,64,0,14,,,,,7,,,60,100
47808,note_on,,,,,0,0,14,,,,,7,,,64,100
47872,note_off,,,,,64,0,7,,,,,0,,,65,100
47904,note_on,,,,,32,0,7,,,,,0,,,69,100
47936,note_off,,,,,128,0,14,,,,,7,,,60,100
47936,note_off,,,,,128,0,12,,,,,5,,,41,100
47936,note_off,,,,,128,0,15,,,,,7,,,41,100
47936,note_off,,,,,0,0,14,,,,,7,,,64,100
47936,note_off,,,,,128,0,13,,,,,6,,,41,100
47968,note_off,,,,,64,0,7,,,,,0,,,69,100
48000,note_on,,,,,32,0,7,,,,,0,,,74,100
48064,note_off,,,,,64,0,7,,,,,0,,,74,100
48096,note_on,,,,,32,0,7,,,,,0,,,76,100
48160,note_off,,,,,64,0,7,,,,,0,,,76,100
48192,note_on,,,,,256,0,13,,,,,6,,,41,85
48192,note_on,,,,,256,0,14,,,,,7,,,69,100
48192,note_on,,,,,256,0,15,,,,,7,,,53,100
48192,note_on,,,,,256,0,12,,,,,5,,,53,85
48192,note_on,,,,,0,0,14,,,,,7,,,74,100
48192,note_on,,,,,32,0,7,,,,,0,,,74,100
48256,note_off,,,,,64,0,7,,,,,0,,,74,100
48288,note_on,,,,,32,0,7,,,,,0,,,72,100
48320,note_off,,,,,128,0,13,,,,,6,,,41,100
48320,note_off,,,,,128,0,14,,,,,7,,,69,100
48320,note_off,,,,,0,0,14,,,,,7,,,74,100
48320,note_off,,,,,128,0,15,,,,,7,,,53,100
48320,note_off,,,,,128,0,12,,,,,5,,,53,100
48352,note_off,,,,,64,0,7,,,,,0,,,72,100
48384,note_on,,,,,32,0,7,,,,,0,,,71,100
48384,note_on,,,,,64,0,15,,,,,7,,,55,100
48384,note_on,,,,,64,0,12,,,,,5,,,55,85
48384,note_on,,,,,64,0,14,,,,,7,,,71,100
48384,note_on,,,,,64,0,13,,,,,6,,,43,85
48476,note_off,,,,,92,0,7,,,,,0,,,71,100
48480,note_on,,,,,4,0,7,,,,,0,,,69,100
48512,note_off,,,,,128,0,12,,,,,5,,,55,100
48512,note_off,,,,,128,0,14,,,,,7,,,71,100
48512,note_off,,,,,128,0,13,,,,,6,,,43,100
48512,note_off,,,,,128,0,15,,,,,7,,,55,100
48572,note_off,,,,,92,0,7,,,,,0,,,69,100
48576,note_on,,,,,64,0,15,,,,,7,,,57,100
48576,note_on,,,,,64,0,12,,,,,5,,,57,85
48576,note_on,,,,,4,0,7,,,,,0,,,67,100
48576,note_on,,,,,64,0,14,,,,,7,,,72,100
48576,note_on,,,,,64,0,13,,,,,6,,,45,85
48640,note_off,,,,,64,0,7,,,,,0,,,67,100
48672,note_on,,,,,32,0,7,,,,,0,,,74,100
48704,note_off,,,,,128,0,12,,,,,5,,,57,100
48704,note_off,,,,,128,0,15,,,,,7,,,57,100
48704,note_off,,,,,128,0,13,,,,,6,,,45,100
48704,note_off,,,,,128,0,14,,,,,7,,,72,100
48736,note_off,,,,,64,0,7,,,,,0,,,74,100
48768,note_on,,,,,64,0,14,,,,,7,,,74,100
48768,note_on,,,,,64,0,15,,,,,7,,,59,100
48768,note_on,,,,,32,0,7,,,,,0,,,79,100
48768,note_on,,,,,64,0,12,,,,,5,,,59,85
48768,note_on,,,,,64,0,13,,,,,6,,,47,85
48832,note_off,,,,,64,0,7,,,,,0,,,79,100
48864,note_on,,,,,32,0,7,,,,,0,,,81,100
48896,note_off,,,,,128,0,12,,,,,5,,,59,100
48896,note_off,,,,,128,0,15,,,,,7,,,59,100
48896,note_off,,,,,128,0,14,,,,,7,,,74,100
48896,note_off,,,,,128,0,13,,,,,6,,,47,100
48928,note_off,,,,,64,0,7,,,,,0,,,81,100
48960,note_on,,,,,32,0,7,,,,,0,,,79,100
48960,note_on,,,,,64,0,15,,,,,7,,,55,100
48960,note_on,,,,,64,0,12,,,,,5,,,55,85
48960,note_on,,,,,64,0,14,,,,,7,,,71,100
48960,note_on,,,,,64,0,13,,,,,6,,,43,85
49024,note_off,,,,,64,0,7,,,,,0,,,79,100
49056,note_on,,,,,32,0,7,,,,,0,,,77,100
49088,note_off,,,,,128,0,12,,,,,5,,,55,100
49088,note_off,,,,,128,0,14,,,,,7,,,71,100
49088,note_off,,,,,128,0,15,,,,,7,,,55,100
49088,note_off,,,,,128,0,13,,,,,6,,,43,100
49120,note_off,,,,,64,0,7,,,,,0,,,77,100
49152,note_on,,,,,64,0,12,,,,,5,,,48,85
49152,note_on,,,,,32,0,7,,,,,0,,,76,100
49152,note_on,,,,,64,0,14,,,,,7,,,64,100
49152,note_on,,,,,64,0,15,,,,,7,,,48,100
49152,note_on,,,,,64,0,13,,,,,6,,,36,85
49244,note_off,,,,,92,0,7,,,,,0,,,76,100
49248,note_on,,,,,4,0,7,,,,,0,,,74,100
49280,note_off,,,,,128,0,13,,,,,6,,,36,100
49280,note_off,,,,,128,0,12,,,,,5,,,48,100
49280,note_off,,,,,128,0,14,,,,,7,,,64,100
49280,note_off,,,,,128,0,15,,,,,7,,,48,100
49340,note_off,,,,,92,0,7,,,,,0,,,74,100
49344,note_on,,,,,4,0,7,,,,,0,,,72,100
49344,note_on,,,,,64,0,14,,,,,7,,,65,100
49344,note_on,,,,,64,0,13,,,,,6,,,38,85
49344,note_on,,,,,64,0,12,,,,,5,,,50,85
49344,note_on,,,,,64,0,15,,,,,7,,,50,100
49408,note_off,,,,,64,0,7,,,,,0,,,72,100
49440,note_on,,,,,32,0,7,,,,,0,,,67,100
49472,note_off,,,,,128,0,15,,,,,7,,,50,100
49472,note_off,,,,,128,0,12,,,,,5,,,50,100
49472,note_off,,,,,128,0,13,,,,,6,,,38,100
49472,note_off,,,,,128,0,14,,,,,7,,,65,100
49504,note_off,,,,,64,0,7,,,,,0,,,67,100
49536,note_on,,,,,64,0,13,,,,,6,,,40,85
49536,note_on,,,,,64,0,14,,,,,7,,,67,100
49536,note_on,,,,,64,0,15,,,,,7,,,52,100
49536,note_on,,,,,32,0,7,,,,,0,,,72,100
49536,note_on,,,,,64,0,12,,,,,5,,,52,85
49600,note_off,,,,,64,0,7,,,,,0,,,72,100
49632,note_on,,,,,32,0,7,,,,,0,,,74,100
49664,note_off,,,,,128,0,15,,,,,7,,,52,100
49664,note_off,,,,,128,0,13,,,,,6,,,40,100
49664,note_off,,,,,128,0,12,,,,,5,,,52,100
49664,note_off,,,,,128,0,14,,,,,7,,,67,100
49696,note_off,,,,,64,0,7,,,,,0,,,74,100
49728,note_on,,,,,32,0,7,,,,,0,,,72,100
49728,note_on,,,,,64,0,13,,,,,6,,,36,85
49728,note_on,,,,,64,0,12,,,,,5,,,48,85
49728,note_on,,,,,64,0,14,,,,,7,,,64,100
49728,note_on,,,,,64,0,15,,,,,7,,,48,100
49792,note_off,,,,,64,0,7,,,,,0,,,72,100
49824,note_on,,,,,32,0,7,,,,,0,,,71,100
49856,note_off,,,,,128,0,14,,,,,7,,,64,100
49856,note_off,,,,,128,0,12,,,,,5,,,48,100
49856,note_off,,,,,128,0,13,,,,,6,,,36,100
49856,note_off,,,,,128,0,15,,,,,7,,,48,100
49888,note_off,,,,,64,0,7,,,,,0,,,71,100
49920,note_on,,,,,64,0,12,,,,,5,,,53,85
49920,note_on,,,,,64,0,15,,,,,7,,,53,100
49920,note_on,,,,,64,0,13,,,,,6,,,41,85
49920,note_on,,,,,64,0,14,,,,,7,,,74,100
49920,note_on,,,,,32,0,7,,,,,0,,,69,100
50012,note_off,,,,,92,0,7,,,,,0,,,69,100
50016,note_on,,,,,4,0,7,,,,,0,,,67,100
50048,note_off,,,,,128,0,13,,,,,6,,,41,100
50048,note_off,,,,,128,0,15,,,,,7,,,53,100
50048,note_off,,,,,128,0,12,,,,,5,,,53,100
50048,note_off,,,,,128,0,14,,,,,7,,,74,100
50108,note_off,,,,,92,0,7,,,,,0,,,67,100
50112,note_on,,,,,64,0,14,,,,,7,,,72,100
50112,note_on,,,,,64,0,13,,,,,6,,,40,85
50112,note_on,,,,,64,0,12,,,,,5,,,52,85
50112,note_on,,,,,64,0,15,,,,,7,,,52,100
50112,note_on,,,,,4,0,7,,,,,0,,,65,100
50176,note_off,,,,,64,0,7,,,,,0,,,65,100
50208,note_on,,,,,32,0,7,,,,,0,,,69,100
50240,note_off,,,,,128,0,13,,,,,6,,,40,100
50240,note_off,,,,,128,0,12,,,,,5,,,52,100
50240,note_off,,,,,128,0,14,,,,,7,,,72,100
50240,note_off,,,,,128,0,15,,,,,7,,,52,100
50272,note_off,,,,,64,0,7,,,,,0,,,69,100
50304,note_on,,,,,64,0,12,,,,,5,,,54,85
50304,note_on,,,,,64,0,15,,,,,7,,,54,100
50304,note_on,,,,,64,0,14,,,,,7,,,74,100
50304,note_on,,,,,32,0,7,,,,,0,,,74,100
50304,note_on,,,,,64,0,13,,,,,6,,,42,85
50368,note_off,,,,,64,0,7,,,,,0,,,74,100
50400,note_on,,,,,32,0,7,,,,,0,,,76,100
50432,note_off,,,,,128,0,15,,,,,7,,,54,100
50432,note_off,,,,,128,0,13,,,,,6,,,42,100
50432,note_off,,,,,128,0,12,,,,,5,,,54,100
50432,note_off,,,,,128,0,14,,,,,7,,,74,100
50464,note_off,,,,,64,0,7,,,,,0,,,76,100
50496,note_on,,,,,0,0,14,,,,,7,,,66,100
50496,note_on,,,,,64,0,14,,,,,7,,,72,100
50496,note_on,,,,,64,0,13,,,,,6,,,38,85
50496,note_on,,,,,32,0,7,,,,,0,,,74,100
50496,note_on,,,,,64,0,12,,,,,5,,,50,85
50496,note_on,,,,,64,0,15,,,,,7,,,50,100
50560,note_off,,,,,64,0,7,,,,,0,,,74,100
50592,note_on,,,,,32,0,7,,,,,0,,,72,100
50624,note_off,,,,,128,0,15,,,,,7,,,50,100
50624,note_off,,,,,0,0,14,,,,,7,,,66,100
50624,note_off,,,,,128,0,12,,,,,5,,,50,100
50624,note_off,,,,,128,0,14,,,,,7,,,72,100
50624,note_off,,,,,128,0,13,,,,,6,,,38,100
50656,note_off,,,,,64,0,7,,,,,0,,,72,100
50688,note_on,,,,,0,0,14,,,,,7,,,67,100
50688,note_on,,,,,64,0,14,,,,,7,,,71,100
50688,note_on,,,,,64,0,15,,,,,7,,,55,100
50688,note_on,,,,,64,0,13,,,,,6,,,43,85
50688,note_on,,,,,32,0,7,,,,,0,,,71,100
50688,note_on,,,,,64,0,12,,,,,5,,,55,85
50752,note_off,,,,,64,0,7,,,,,0,,,71,100
50784,note_on,,,,,32,0,7,,,,,0,,,69,100
50848,note_off,,,,,64,0,7,,,,,0,,,69,100
50880,note_on,,,,,32,0,7,,,,,0,,,67,100
50944,note_off,,,,,256,0,14,,,,,7,,,71,100
50944,note_off,,,,,256,0,15,,,,,7,,,55,100
50944,note_off,,,,,256,0,13,,,,,6,,,43,100
50944,note_off,,,,,0,0,14,,,,,7,,,67,100
50944,note_off,,,,,64,0,7,,,,,0,,,67,100
50944,note_off,,,,,256,0,12,,,,,5,,,55,100
50976,note_on,,,,,32,0,7,,,,,0,,,71,100
51040,note_off,,,,,64,0,7,,,,,0,,,71,100
51072,note_on,,,,,128,0,12,,,,,5,,,60,85
51072,note_on,,,,,32,0,7,,,,,0,,,72,100
51136,note_off,,,,,64,0,7,,,,,0,,,72,100
51168,note_on,,,,,32,0,7,,,,,0,,,64,100
51200,note_off,,,,,128,0,12,,,,,5,,,60,100
51232,note_off,,,,,64,0,7,,,,,0,,,64,100
51264,note_on,,,,,64,0,12,,,,,5,,,60,85
51264,note_on,,,,,32,0,7,,,,,0,,,72,100
51328,note_off,,,,,64,0,7,,,,,0,,,72,100
51360,note_on,,,,,32,0,7,,,,,0,,,64,100
51392,note_off,,,,,128,0,12,,,,,5,,,60,100
51424,note_off,,,,,64,0,7,,,,,0,,,64,100
51456,note_on,,,,,64,0,12,,,,,5,,,62,85
51456,note_on,,,,,32,0,7,,,,,0,,,65,100
51520,note_off,,,,,64,0,7,,,,,0,,,65,100
51552,note_on,,,,,32,0,7,,,,,0,,,72,100
51584,note_off,,,,,128,0,12,,,,,5,,,62,100
51616,note_off,,,,,64,0,7,,,,,0,,,72,100
51648,note_on,,,,,32,0,7,,,,,0,,,65,100
51648,note_on,,,,,64,0,12,,,,,5,,,62,85
51712,note_off,,,,,64,0,7,,,,,0,,,65,100
51744,note_on,,,,,32,0,7,,,,,0,,,72,100
51776,note_off,,,,,128,0,12,,,,,5,,,62,100
51808,note_off,,,,,64,0,7,,,,,0,,,72,100
51840,note_on,,,,,64,0,12,,,,,5,,,64,85
51840,note_on,,,,,32,0,7,,,,,0,,,67,100
51904,note_off,,,,,64,0,7,,,,,0,,,67,100
51936,note_on,,,,,32,0,7,,,,,0,,,72,100
51968,note_off,,,,,128,0,12,,,,,5,,,64,100
52000,note_off,,,,,64,0,7,,,,,0,,,72,100
52032,note_on,,,,,64,0,12,,,,,5,,,64,85
52032,note_on,,,,,32,0,7,,,,,0,,,67,100
52096,note_off,,,,,64,0,7,,,,,0,,,67,100
52128,note_on,,,,,32,0,7,,,,,0,,,72,100
52160,note_off,,,,,128,0,12,,,,,5,,,64,100
52192,note_off,,,,,64,0,7,,,,,0,,,72,100
52224,note_on,,,,,32,0,7,,,,,0,,,69,100
52224,note_on,,,,,64,0,12,,,,,5,,,65,85
52288,note_off,,,,,64,0,7,,,,,0,,,69,100
52320,note_on,,,,,32,0,7,,,,,0,,,72,100
52352,note_off,,,,,128,0,12,,,,,5,,,65,100
52384,note_off,,,,,64,0,7,,,,,0,,,72,100
52416,note_on,,,,,64,0,12,,,,,5,,,65,85
52416,note_on,,,,,32,0,7,,,,,0,,,69,100
52480,note_off,,,,,64,0,7,,,,,0,,,69,100
52512,note_on,,,,,32,0,7,,,,,0,,,72,100
52544,note_off,,,,,128,0,12,,,,,5,,,65,100
52576,note_off,,,,,64,0,7,,,,,0,,,72,100
52608,note_on,,,,,32,0,7,,,,,0,,,64,80
52608,note_on,,,,,64,0,12,,,,,5,,,60,85
52672,note_off,,,,,64,0,7,,,,,0,,,64,100
52704,note_on,,,,,32,0,7,,,,,0,,,72,80
52736,note_off,,,,,128,0,12,,,,,5,,,60,100
52768,note_off,,,,,64,0,7,,,,,0,,,72,100
52800,note_on,,,,,32,0,7,,,,,0,,,64,80
52800,note_on,,,,,64,0,12,,,,,5,,,60,85
52864,note_off,,,,,64,0,7,,,,,0,,,64,100
52896,note_on,,,,,32,0,7,,,,,0,,,72,80
52928,note_off,,,,,128,0,12,,,,,5,,,60,100
52960,note_off,,,,,64,0,7,,,,,0,,,72,100
52992,note_on,,,,,64,0,12,,,,,5,,,62,85
52992,note_on,,,,,32,0,7,,,,,0,,,65,80
53056,note_off,,,,,64,0,7,,,,,0,,,65,100
53088,note_on,,,,,32,0,7,,,,,0,,,72,80
53120,note_off,,,,,128,0,12,,,,,5,,,62,100
53152,note_off,,,,,64,0,7,,,,,0,,,72,100
53184,note_on,,,,,32,0,7,,,,,0,,,65,80
53184,note_on,,,,,64,0,12,,,,,5,,,62,85
53248,note_off,,,,,64,0,7,,,,,0,,,65,100
53280,note_on,,,,,32,0,7,,,,,0,,,72,80
53312,note_off,,,,,128,0,12,,,,,5,,,62,100
53344,note_off,,,,,64,0,7,,,,,0,,,72,100
53376,note_on,,,,,64,0,12,,,,,5,,,64,85
53376,note_on,,,,,32,0,7,,,,,0,,,67,80
53440,note_off,,,,,64,0,7,,,,,0,,,67,100
53472,note_on,,,,,32,0,7,,,,,0,,,72,80
53504,note_off,,,,,128,0,12,,,,,5,,,64,100
53536,note_off,,,,,64,0,7,,,,,0,,,72,100
53568,note_on,,,,,32,0,7,,,,,0,,,67,80
53568,note_on,,,,,64,0,12,,,,,5,,,64,85
53632,note_off,,,,,64,0,7,,,,,0,,,67,100
53664,note_on,,,,,32,0,7,,,,,0,,,72,80
53696,note_off,,,,,128,0,12,,,,,5,,,64,100
53728,note_off,,,,,64,0,7,,,,,0,,,72,100
53760,note_on,,,,,64,0,12,,,,,5,,,65,85
53760,note_on,,,,,32,0,7,,,,,0,,,69,80
53824,note_off,,,,,64,0,7,,,,,0,,,69,100
53856,note_on,,,,,32,0,7,,,,,0,,,72,80
53888,note_off,,,,,128,0,12,,,,,5,,,65,100
53920,note_off,,,,,64,0,7,,,,,0,,,72,100
53952,note_on,,,,,64,0,12,,,,,5,,,65,85
53952,note_on,,,,,32,0,7,,,,,0,,,69,80
54016,note_off,,,,,64,0,7,,,,,0,,,69,100
54048,note_on,,,,,32,0,7,,,,,0,,,72,80
54080,note_off,,,,,128,0,12,,,,,5,,,65,100
54112,note_off,,,,,64,0,7,,,,,0,,,72,100
54144,note_on,,,,,3200,0,15,,,,,7,,,60,100
54144,note_on,,,,,3200,0,14,,,,,7,,,64,100
54144,note_on,,,,,0,0,14,,,,,7,,,67,100
54144,note_on,,,,,32,0,7,,,,,0,,,64,95
54144,note_on,,,,,64,0,12,,,,,5,,,60,85
54144,note_on,,,,,3200,0,13,,,,,6,,,48,85
54208,note_off,,,,,64,0,7,,,,,0,,,64,100
54240,note_on,,,,,32,0,7,,,,,0,,,72,95
54272,note_off,,,,,128,0,14,,,,,7,,,64,100
54272,note_off,,,,,128,0,12,,,,,5,,,60,100
54272,note_off,,,,,128,0,15,,,,,7,,,60,100
54272,note_off,,,,,0,0,14,,,,,7,,,67,100
54272,note_off,,,,,128,0,13,,,,,6,,,48,100
54304,note_off,,,,,64,0,7,,,,,0,,,72,100
54336,note_on,,,,,32,0,7,,,,,0,,,64,96
54336,note_on,,,,,64,0,12,,,,,5,,,60,85
54336,note_on,,,,,64,0,14,,,,,7,,,64,100
54336,note_on,,,,,64,0,15,,,,,7,,,60,100
54336,note_on,,,,,0,0,14,,,,,7,,,67,100
54336,note_on,,,,,64,0,13,,,,,6,,,48,85
54400,note_off,,,,,64,0,7,,,,,0,,,64,100
54432,note_on,,,,,32,0,7,,,,,0,,,72,97
54464,note_off,,,,,128,0,14,,,,,7,,,64,100
54464,note_off,,,,,128,0,13,,,,,6,,,48,100
54464,note_off,,,,,128,0,15,,,,,7,,,60,100
54464,note_off,,,,,128,0,12,,,,,5,,,60,100
54464,note_off,,,,,0,0,14,,,,,7,,,67,100
54496,note_off,,,,,64,0,7,,,,,0,,,72,100
54528,note_on,,,,,0,0,14,,,,,7,,,72,100
54528,note_on,,,,,64,0,12,,,,,5,,,62,85
54528,note_on,,,,,64,0,14,,,,,7,,,69,100
54528,note_on,,,,,64,0,13,,,,,6,,,50,85
54528,note_on,,,,,64,0,15,,,,,7,,,62,100
54528,note_on,,,,,32,0,7,,,,,0,,,65,98
54592,note_off,,,,,64,0,7,,,,,0,,,65,100
54624,note_on,,,,,32,0,7,,,,,0,,,72,99
54656,note_off,,,,,128,0,14,,,,,7,,,69,100
54656,note_off,,,,,128,0,12,,,,,5,,,62,100
54656,note_off,,,,,128,0,15,,,,,7,,,62,100
54656,note_off,,,,,128,0,13,,,,,6,,,50,100
54656,note_off,,,,,0,0,14,,,,,7,,,72,100
54688,note_off,,,,,64,0,7,,,,,0,,,72,100
54720,note_on,,,,,64,0,12,,,,,5,,,62,85
54720,note_on,,,,,64,0,15,,,,,7,,,62,100
54720,note_on,,,,,64,0,13,,,,,6,,,50,85
54720,note_on,,,,,0,0,14,,,,,7,,,72,100
54720,note_on,,,,,64,0,14,,,,,7,,,69,100
54720,note_on,,,,,32,0,7,,,,,0,,,65,99
54784,note_off,,,,,64,0,7,,,,,0,,,65,100
54816,note_on,,,,,32,0,7,,,,,0,,,72,100
54848,note_off,,,,,0,0,14,,,,,7,,,72,100
54848,note_off,,,,,128,0,13,,,,,6,,,50,100
54848,note_off,,,,,128,0,15,,,,,7,,,62,100
54848,note_off,,,,,128,0,14,,,,,7,,,69,100
54848,note_off,,,,,128,0,12,,,,,5,,,62,100
54880,note_off,,,,,64,0,7,,,,,0,,,72,100
54912,note_on,,,,,64,0,13,,,,,6,,,43,85
54912,note_on,,,,,64,0,12,,,,,5,,,55,85
54912,note_on,,,,,64,0,15,,,,,7,,,55,100
54912,note_on,,,,,32,0,7,,,,,0,,,67,101
54912,note_on,,,,,0,0,14,,,,,7,,,71,100
54912,note_on,,,,,64,0,14,,,,,7,,,62,100
54976,note_off,,,,,64,0,7,,,,,0,,,67,100
55008,note_on,,,,,32,0,7,,,,,0,,,71,102
55040,note_off,,,,,0,0,14,,,,,7,,,71,100
55040,note_off,,,,,128,0,13,,,,,6,,,43,100
55040,note_off,,,,,128,0,12,,,,,5,,,55,100
55040,note_off,,,,,128,0,14,,,,,7,,,62,100
55040,note_off,,,,,128,0,15,,,,,7,,,55,100
55072,note_off,,,,,64,0,7,,,,,0,,,71,100
55104,note_on,,,,,64,0,14,,,,,7,,,62,100
55104,note_on,,,,,64,0,13,,,,,6,,,43,85
55104,note_on,,,,,32,0,7,,,,,0,,,67,103
55104,note_on,,,,,64,0,15,,,,,7,,,55,100
55104,note_on,,,,,64,0,12,,,,,5,,,55,85
55104,note_on,,,,,0,0,14,,,,,7,,,71,100
55168,note_off,,,,,64,0,7,,,,,0,,,67,100
55200,note_on,,,,,32,0,7,,,,,0,,,71,104
55232,note_off,,,,,128,0,14,,,,,7,,,62,100
55232,note_off,,,,,128,0,12,,,,,5,,,55,100
55232,note_off,,,,,128,0,15,,,,,7,,,55,100
55232,note_off,,,,,0,0,14,,,,,7,,,71,100
55232,note_off,,,,,128,0,13,,,,,6,,,43,100
55264,note_off,,,,,64,0,7,,,,,0,,,71,100
55296,note_on,,,,,32,0,7,,,,,0,,,72,104
55296,note_on,,,,,10496,0,11,,,,,4,,,64,100
55296,note_on,,,,,64,0,14,,,,,7,,,64,100
55296,note_on,,,,,64,0,15,,,,,7,,,48,100
55296,note_on,,,,,64,0,12,,,,,5,,,48,100
55296,note_on,,,,,64,0,13,,,,,6,,,36,100
55296,note_on,,,,,0,0,14,,,,,7,,,72,100
55356,program_change,,,,,60,0,7,,,,,0,48,,,
55360,note_off,,,,,4,0,7,,,,,0,,,72,100
55392,note_on,,,,,32,0,7,,,,,0,,,79,110
55392,note_on,,,,,10592,0,10,,,,,3,,,79,50
55392,note_on,,,,,10528,0,8,,,,,1,,,79,50
55392,note_on,,,,,10592,0,9,,,,,2,,,79,50
55424,note_off,,,,,128,0,14,,,,,7,,,64,100
55424,note_off,,,,,0,0,14,,,,,7,,,72,100
55424,note_off,,,,,128,0,11,,,,,4,,,64,100
55424,note_off,,,,,128,0,15,,,,,7,,,48,100
55424,note_off,,,,,128,0,13,,,,,6,,,36,100
55424,note_off,,,,,128,0,12,,,,,5,,,48,100
55456,note_off,,,,,64,0,8,,,,,1,,,79,100
55456,note_off,,,,,64,0,10,,,,,3,,,79,100
55456,note_off,,,,,64,0,7,,,,,0,,,79,100
55456,note_off,,,,,64,0,9,,,,,2,,,79,100
55488,note_on,,,,,64,0,13,,,,,6,,,38,100
55488,note_on,,,,,32,0,8,,,,,1,,,72,50
55488,note_on,,,,,32,0,10,,,,,3,,,72,50
55488,note_on,,,,,64,0,12,,,,,5,,,50,100
55488,note_on,,,,,32,0,7,,,,,0,,,72,110
55488,note_on,,,,,64,0,11,,,,,4,,,65,100
55488,note_on,,,,,32,0,9,,,,,2,,,72,50
55488,note_on,,,,,64,0,14,,,,,7,,,65,100
55488,note_on,,,,,64,0,15,,,,,7,,,50,100
55552,note_off,,,,,64,0,9,,,,,2,,,72,100
55552,note_off,,,,,64,0,8,,,,,1,,,72,100
55552,note_off,,,,,64,0,7,,,,,0,,,72,100
55552,note_off,,,,,64,0,10,,,,,3,,,72,100
55584,note_on,,,,,32,0,7,,,,,0,,,79,110
55584,note_on,,,,,32,0,8,,,,,1,,,79,50
55584,note_on,,,,,32,0,9,,,,,2,,,79,50
55584,note_on,,,,,32,0,10,,,,,3,,,79,50
55616,note_off,,,,,128,0,11,,,,,4,,,65,100
55616,note_off,,,,,128,0,14,,,,,7,,,65,100
55616,note_off,,,,,128,0,15,,,,,7,,,50,100
55616,note_off,,,,,128,0,12,,,,,5,,,50,100
55616,note_off,,,,,128,0,13,,,,,6,,,38,100
55648,note_off,,,,,64,0,10,,,,,3,,,79,100
55648,note_off,,,,,64,0,7,,,,,0,,,79,100
55648,note_off,,,,,64,0,8,,,,,1,,,79,100
55648,note_off,,,,,64,0,9,,,,,2,,,79,100
55680,note_on,,,,,64,0,14,,,,,7,,,67,100
55680,note_on,,,,,64,0,12,,,,,5,,,52,100
55680,note_on,,,,,64,0,15,,,,,7,,,52,100
55680,note_on,,,,,64,0,13,,,,,6,,,40,100
55680,note_on,,,,,64,0,11,,,,,4,,,67,100
55680,note_on,,,,,32,0,9,,,,,2,,,72,50
55680,note_on,,,,,32,0,10,,,,,3,,,72,50
55680,note_on,,,,,32,0,7,,,,,0,,,72,110
55680,note_on,,,,,32,0,8,,,,,1,,,72,50
55744,note_off,,,,,64,0,7,,,,,0,,,72,100
55744,note_off,,,,,64,0,10,,,,,3,,,72,100
55744,note_off,,,,,64,0,8,,,,,1,,,72,100
55744,note_off,,,,,64,0,9,,,,,2,,,72,100
55776,note_on,,,,,32,0,10,,,,,3,,,79,50
55776,note_on,,,,,32,0,9,,,,,2,,,79,50
55776,note_on,,,,,32,0,8,,,,,1,,,79,50
55776,note_on,,,,,32,0,7,,,,,0,,,79,110
55808,note_off,,,,,128,0,13,,,,,6,,,40,100
55808,note_off,,,,,128,0,14,,,,,7,,,67,100
55808,note_off,,,,,128,0,15,,,,,7,,,52,100
55808,note_off,,,,,128,0,12,,,,,5,,,52,100
55808,note_off,,,,,128,0,11,,,,,4,,,67,100
55840,note_off,,,,,64,0,7,,,,,0,,,79,100
55840,note_off,,,,,64,0,10,,,,,3,,,79,100
55840,note_off,,,,,64,0,9,,,,,2,,,79,100
55840,note_off,,,,,64,0,8,,,,,1,,,79,100
55872,note_on,,,,,64,0,15,,,,,7,,,48,100
55872,note_on,,,,,64,0,13,,,,,6,,,36,100
55872,note_on,,,,,32,0,9,,,,,2,,,72,50
55872,note_on,,,,,64,0,11,,,,,4,,,64,100
55872,note_on,,,,,64,0,14,,,,,7,,,64,100
55872,note_on,,,,,64,0,12,,,,,5,,,48,100
55872,note_on,,,,,32,0,7,,,,,0,,,72,110
55872,note_on,,,,,32,0,8,,,,,1,,,72,50
55872,note_on,,,,,32,0,10,,,,,3,,,72,50
55936,note_off,,,,,64,0,9,,,,,2,,,72,100
55936,note_off,,,,,64,0,7,,,,,0,,,72,100
55936,note_off,,,,,64,0,8,,,,,1,,,72,100
55936,note_off,,,,,64,0,10,,,,,3,,,72,100
55968,note_on,,,,,32,0,7,,,,,0,,,79,110
55968,note_on,,,,,32,0,10,,,,,3,,,79,50
55968,note_on,,,,,32,0,9,,,,,2,,,79,50
55968,note_on,,,,,32,0,8,,,,,1,,,79,50
56000,note_off,,,,,128,0,11,,,,,4,,,64,100
56000,note_off,,,,,128,0,14,,,,,7,,,64,100
56000,note_off,,,,,128,0,12,,,,,5,,,48,100
56000,note_off,,,,,128,0,13,,,,,6,,,36,100
56000,note_off,,,,,128,0,15,,,,,7,,,48,100
56032,note_off,,,,,64,0,10,,,,,3,,,79,100
56032,note_off,,,,,64,0,9,,,,,2,,,79,100
56032,note_off,,,,,64,0,8,,,,,1,,,79,100
56032,note_off,,,,,64,0,7,,,,,0,,,79,100
56064,note_on,,,,,32,0,9,,,,,2,,,72,50
56064,note_on,,,,,32,0,8,,,,,1,,,72,50
56064,note_on,,,,,64,0,13,,,,,6,,,41,100
56064,note_on,,,,,32,0,10,,,,,3,,,72,50
56064,note_on,,,,,32,0,7,,,,,0,,,72,110
56064,note_on,,,,,64,0,14,,,,,7,,,69,100
56064,note_on,,,,,64,0,12,,,,,5,,,53,100
56064,note_on,,,,,64,0,11,,,,,4,,,57,100
56064,note_on,,,,,64,0,15,,,,,7,,,53,100
56128,note_off,,,,,64,0,9,,,,,2,,,72,100
56128,note_off,,,,,64,0,8,,,,,1,,,72,100
56128,note_off,,,,,64,0,10,,,,,3,,,72,100
56128,note_off,,,,,64,0,7,,,,,0,,,72,100
56160,note_on,,,,,32,0,7,,,,,0,,,81,110
56160,note_on,,,,,32,0,8,,,,,1,,,81,50
56160,note_on,,,,,32,0,9,,,,,2,,,81,50
56160,note_on,,,,,32,0,10,,,,,3,,,81,50
56192,note_off,,,,,128,0,13,,,,,6,,,41,100
56192,note_off,,,,,128,0,14,,,,,7,,,69,100
56192,note_off,,,,,128,0,11,,,,,4,,,57,100
56192,note_off,,,,,128,0,15,,,,,7,,,53,100
56192,note_off,,,,,128,0,12,,,,,5,,,53,100
56224,note_off,,,,,64,0,10,,,,,3,,,81,100
56224,note_off,,,,,64,0,8,,,,,1,,,81,100
56224,note_off,,,,,64,0,9,,,,,2,,,81,100
56224,note_off,,,,,64,0,7,,,,,0,,,81,100
56256,note_on,,,,,32,0,10,,,,,3,,,72,50
56256,note_on,,,,,64,0,12,,,,,5,,,55,100
56256,note_on,,,,,32,0,8,,,,,1,,,72,50
56256,note_on,,,,,64,0,13,,,,,6,,,43,100
56256,note_on,,,,,64,0,14,,,,,7,,,71,100
56256,note_on,,,,,32,0,7,,,,,0,,,72,110
56256,note_on,,,,,64,0,15,,,,,7,,,55,100
56256,note_on,,,,,64,0,11,,,,,4,,,59,100
56256,note_on,,,,,32,0,9,,,,,2,,,72,50
56320,note_off,,,,,64,0,9,,,,,2,,,72,100
56320,note_off,,,,,64,0,8,,,,,1,,,72,100
56320,note_off,,,,,64,0,10,,,,,3,,,72,100
56320,note_off,,,,,64,0,7,,,,,0,,,72,100
56352,note_on,,,,,32,0,8,,,,,1,,,81,50
56352,note_on,,,,,32,0,10,,,,,3,,,81,50
56352,note_on,,,,,32,0,7,,,,,0,,,81,110
56352,note_on,,,,,32,0,9,,,,,2,,,81,50
56384,note_off,,,,,128,0,15,,,,,7,,,55,100
56384,note_off,,,,,128,0,13,,,,,6,,,43,100
56384,note_off,,,,,128,0,14,,,,,7,,,71,100
56384,note_off,,,,,128,0,11,,,,,4,,,59,100
56384,note_off,,,,,128,0,12,,,,,5,,,55,100
56416,note_off,,,,,64,0,10,,,,,3,,,81,100
56416,note_off,,,,,64,0,7,,,,,0,,,81,100
56416,note_off,,,,,64,0,9,,,,,2,,,81,100
56416,note_off,,,,,64,0,8,,,,,1,,,81,100
56448,note_on,,,,,64,0,11,,,,,4,,,60,100
56448,note_on,,,,,64,0,13,,,,,6,,,45,100
56448,note_on,,,,,64,0,15,,,,,7,,,57,100
56448,note_on,,,,,32,0,8,,,,,1,,,72,50
56448,note_on,,,,,32,0,10,,,,,3,,,72,50
56448,note_on,,,,,64,0,14,,,,,7,,,72,100
56448,note_on,,,,,32,0,9,,,,,2,,,72,50
56448,note_on,,,,,64,0,12,,,,,5,,,57,100
56448,note_on,,,,,32,0,7,,,,,0,,,72,110
56512,note_off,,,,,64,0,8,,,,,1,,,72,100
56512,note_off,,,,,64,0,10,,,,,3,,,72,100
56512,note_off,,,,,64,0,9,,,,,2,,,72,100
56512,note_off,,,,,64,0,7,,,,,0,,,72,100
56544,note_on,,,,,32,0,7,,,,,0,,,81,110
56544,note_on,,,,,32,0,10,,,,,3,,,81,50
56544,note_on,,,,,32,0,8,,,,,1,,,81,50
56544,note_on,,,,,32,0,9,,,,,2,,,81,50
56576,note_off,,,,,128,0,13,,,,,6,,,45,100
56576,note_off,,,,,128,0,14,,,,,7,,,72,100
56576,note_off,,,,,128,0,11,,,,,4,,,60,100
56576,note_off,,,,,128,0,12,,,,,5,,,57,100
56576,note_off,,,,,128,0,15,,,,,7,,,57,100
56608,note_off,,,,,64,0,7,,,,,0,,,81,100
56608,note_off,,,,,64,0,9,,,,,2,,,81,100
56608,note_off,,,,,64,0,10,,,,,3,,,81,100
56608,note_off,,,,,64,0,8,,,,,1,,,81,100
56640,note_on,,,,,64,0,15,,,,,7,,,53,100
56640,note_on,,,,,32,0,10,,,,,3,,,72,50
56640,note_on,,,,,32,0,7,,,,,0,,,72,110
56640,note_on,,,,,64,0,14,,,,,7,,,69,100
56640,note_on,,,,,32,0,8,,,,,1,,,72,50
56640,note_on,,,,,32,0,9,,,,,2,,,72,50
56640,note_on,,,,,64,0,13,,,,,6,,,41,100
56640,note_on,,,,,64,0,11,,,,,4,,,57,100
56640,note_on,,,,,64,0,12,,,,,5,,,53,100
56704,note_off,,,,,64,0,10,,,,,3,,,72,100
56704,note_off,,,,,64,0,7,,,,,0,,,72,100
56704,note_off,,,,,64,0,9,,,,,2,,,72,100
56704,note_off,,,,,64,0,8,,,,,1,,,72,100
56736,note_on,,,,,32,0,9,,,,,2,,,81,50
56736,note_on,,,,,32,0,10,,,,,3,,,81,50
56736,note_on,,,,,32,0,8,,,,,1,,,81,50
56736,note_on,,,,,32,0,7,,,,,0,,,81,110
56768,note_off,,,,,128,0,12,,,,,5,,,53,100
56768,note_off,,,,,128,0,14,,,,,7,,,69,100
56768,note_off,,,,,128,0,15,,,,,7,,,53,100
56768,note_off,,,,,128,0,11,,,,,4,,,57,100
56768,note_off,,,,,128,0,13,,,,,6,,,41,100
56800,note_off,,,,,64,0,8,,,,,1,,,81,100
56800,note_off,,,,,64,0,9,,,,,2,,,81,100
56800,note_off,,,,,64,0,7,,,,,0,,,81,100
56800,note_off,,,,,64,0,10,,,,,3,,,81,100
56832,note_on,,,,,32,0,7,,,,,0,,,72,95
56832,note_on,,,,,32,0,8,,,,,1,,,72,35
56832,note_on,,,,,32,0,10,,,,,3,,,72,35
56832,note_on,,,,,64,0,11,,,,,4,,,64,85
56832,note_on,,,,,64,0,15,,,,,7,,,48,100
56832,note_on,,,,,64,0,13,,,,,6,,,36,85
56832,note_on,,,,,64,0,14,,,,,7,,,64,100
56832,note_on,,,,,64,0,12,,,,,5,,,48,85
56832,note_on,,,,,32,0,9,,,,,2,,,72,35
56896,note_off,,,,,64,0,9,,,,,2,,,72,100
56896,note_off,,,,,64,0,8,,,,,1,,,72,100
56896,note_off,,,,,64,0,7,,,,,0,,,72,100
56896,note_off,,,,,64,0,10,,,,,3,,,72,100
56928,note_on,,,,,32,0,10,,,,,3,,,79,35
56928,note_on,,,,,32,0,9,,,,,2,,,79,35
56928,note_on,,,,,32,0,7,,,,,0,,,79,95
56928,note_on,,,,,32,0,8,,,,,1,,,79,35
56960,note_off,,,,,128,0,14,,,,,7,,,64,100
56960,note_off,,,,,128,0,12,,,,,5,,,48,100
56960,note_off,,,,,128,0,13,,,,,6,,,36,100
56960,note_off,,,,,128,0,11,,,,,4,,,64,100
56960,note_off,,,,,128,0,15,,,,,7,,,48,100
56992,note_off,,,,,64,0,8,,,,,1,,,79,100
56992,note_off,,,,,64,0,7,,,,,0,,,79,100
56992,note_off,,,,,64,0,10,,,,,3,,,79,100
56992,note_off,,,,,64,0,9,,,,,2,,,79,100
57024,note_on,,,,,32,0,10,,,,,3,,,72,35
57024,note_on,,,,,32,0,8,,,,,1,,,72,35
57024,note_on,,,,,32,0,7,,,,,0,,,72,95
57024,note_on,,,,,32,0,9,,,,,2,,,72,35
57024,note_on,,,,,64,0,12,,,,,5,,,50,85
57024,note_on,,,,,64,0,11,,,,,4,,,65,85
57024,note_on,,,,,64,0,14,,,,,7,,,65,100
57024,note_on,,,,,64,0,13,,,,,6,,,38,85
57024,note_on,,,,,64,0,15,,,,,7,,,50,100
57088,note_off,,,,,64,0,7,,,,,0,,,72,100
57088,note_off,,,,,64,0,9,,,,,2,,,72,100
57088,note_off,,,,,64,0,8,,,,,1,,,72,100
57088,note_off,,,,,64,0,10,,,,,3,,,72,100
57120,note_on,,,,,32,0,7,,,,,0,,,79,95
57120,note_on,,,,,32,0,9,,,,,2,,,79,35
57120,note_on,,,,,32,0,10,,,,,3,,,79,35
57120,note_on,,,,,32,0,8,,,,,1,,,79,35
57152,note_off,,,,,128,0,13,,,,,6,,,38,100
57152,note_off,,,,,128,0,14,,,,,7,,,65,100
57152,note_off,,,,,128,0,15,,,,,7,,,50,100
57152,note_off,,,,,128,0,11,,,,,4,,,65,100
57152,note_off,,,,,128,0,12,,,,,5,,,50,100
57184,note_off,,,,,64,0,7,,,,,0,,,79,100
57184,note_off,,,,,64,0,8,,,,,1,,,79,100
57184,note_off,,,,,64,0,9,,,,,2,,,79,100
57184,note_off,,,,,64,0,10,,,,,3,,,79,100
57216,note_on,,,,,32,0,8,,,,,1,,,72,35
57216,note_on,,,,,64,0,15,,,,,7,,,52,100
57216,note_on,,,,,32,0,10,,,,,3,,,72,35
57216,note_on,,,,,64,0,14,,,,,7,,,67,100
57216,note_on,,,,,32,0,7,,,,,0,,,72,95
57216,note_on,,,,,64,0,12,,,,,5,,,52,85
57216,note_on,,,,,64,0,11,,,,,4,,,67,85
57216,note_on,,,,,64,0,13,,,,,6,,,40,85
57216,note_on,,,,,32,0,9,,,,,2,,,72,35
57280,note_off,,,,,64,0,7,,,,,0,,,72,100
57280,note_off,,,,,64,0,8,,,,,1,,,72,100
57280,note_off,,,,,64,0,10,,,,,3,,,72,100
57280,note_off,,,,,64,0,9,,,,,2,,,72,100
57312,note_on,,,,,32,0,8,,,,,1,,,79,35
57312,note_on,,,,,32,0,7,,,,,0,,,79,95
57312,note_on,,,,,32,0,10,,,,,3,,,79,35
57312,note_on,,,,,32,0,9,,,,,2,,,79,35
57344,note_off,,,,,128,0,12,,,,,5,,,52,100
57344,note_off,,,,,128,0,14,,,,,7,,,67,100
57344,note_off,,,,,128,0,11,,,,,4,,,67,100
57344,note_off,,,,,128,0,15,,,,,7,,,52,100
57344,note_off,,,,,128,0,13,,,,,6,,,40,100
57376,note_off,,,,,64,0,10,,,,,3,,,79,100
57376,note_off,,,,,64,0,8,,,,,1,,,79,100
57376,note_off,,,,,64,0,9,,,,,2,,,79,100
57376,note_off,,,,,64,0,7,,,,,0,,,79,100
57408,note_on,,,,,64,0,11,,,,,4,,,64,85
57408,note_on,,,,,64,0,14,,,,,7,,,64,100
57408,note_on,,,,,64,0,13,,,,,6,,,36,85
57408,note_on,,,,,32,0,9,,,,,2,,,72,35
57408,note_on,,,,,64,0,12,,,,,5,,,48,85
57408,note_on,,,,,32,0,8,,,,,1,,,72,35
57408,note_on,,,,,32,0,7,,,,,0,,,72,95
57408,note_on,,,,,64,0,15,,,,,7,,,48,100
57408,note_on,,,,,32,0,10,,,,,3,,,72,35
57472,note_off,,,,,64,0,7,,,,,0,,,72,100
57472,note_off,,,,,64,0,10,,,,,3,,,72,100
57472,note_off,,,,,64,0,9,,,,,2,,,72,100
57472,note_off,,,,,64,0,8,,,,,1,,,72,100
57504,note_on,,,,,32,0,9,,,,,2,,,79,35
57504,note_on,,,,,32,0,10,,,,,3,,,79,35
57504,note_on,,,,,32,0,7,,,,,0,,,79,95
57504,note_on,,,,,32,0,8,,,,,1,,,79,35
57536,note_off,,,,,128,0,14,,,,,7,,,64,100
57536,note_off,,,,,128,0,12,,,,,5,,,48,100
57536,note_off,,,,,128,0,13,,,,,6,,,36,100
57536,note_off,,,,,128,0,11,,,,,4,,,64,100
57536,note_off,,,,,128,0,15,,,,,7,,,48,100
57568,note_off,,,,,64,0,9,,,,,2,,,79,100
57568,note_off,,,,,64,0,8,,,,,1,,,79,100
57568,note_off,,,,,64,0,10,,,,,3,,,79,100
57568,note_off,,,,,64,0,7,,,,,0,,,79,100
57600,note_on,,,,,32,0,8,,,,,1,,,72,35
57600,note_on,,,,,64,0,11,,,,,4,,,57,85
57600,note_on,,,,,32,0,9,,,,,2,,,72,35
57600,note_on,,,,,64,0,13,,,,,6,,,41,85
57600,note_on,,,,,64,0,14,,,,,7,,,69,100
57600,note_on,,,,,64,0,15,,,,,7,,,53,100
57600,note_on,,,,,32,0,10,,,,,3,,,72,35
57600,note_on,,,,,32,0,7,,,,,0,,,72,95
57600,note_on,,,,,64,0,12,,,,,5,,,53,85
57664,note_off,,,,,64,0,9,,,,,2,,,72,100
57664,note_off,,,,,64,0,10,,,,,3,,,72,100
57664,note_off,,,,,64,0,7,,,,,0,,,72,100
57664,note_off,,,,,64,0,8,,,,,1,,,72,100
57696,note_on,,,,,32,0,10,,,,,3,,,81,35
57696,note_on,,,,,32,0,9,,,,,2,,,81,35
57696,note_on,,,,,32,0,7,,,,,0,,,81,95
57696,note_on,,,,,32,0,8,,,,,1,,,81,35
57728,note_off,,,,,128,0,12,,,,,5,,,53,100
57728,note_off,,,,,128,0,15,,,,,7,,,53,100
57728,note_off,,,,,128,0,13,,,,,6,,,41,100
57728,note_off,,,,,128,0,14,,,,,7,,,69,100
57728,note_off,,,,,128,0,11,,,,,4,,,57,100
57760,note_off,,,,,64,0,10,,,,,3,,,81,100
57760,note_off,,,,,64,0,8,,,,,1,,,81,100
57760,note_off,,,,,64,0,9,,,,,2,,,81,100
57760,note_off,,,,,64,0,7,,,,,0,,,81,100
57792,note_on,,,,,32,0,10,,,,,3,,,72,35
57792,note_on,,,,,32,0,9,,,,,2,,,72,35
57792,note_on,,,,,32,0,8,,,,,1,,,72,35
57792,note_on,,,,,64,0,12,,,,,5,,,55,85
57792,note_on,,,,,64,0,15,,,,,7,,,55,100
57792,note_on,,,,,64,0,14,,,,,7,,,71,100
57792,note_on,,,,,64,0,11,,,,,4,,,59,85
57792,note_on,,,,,64,0,13,,,,,6,,,43,85
57792,note_on,,,,,32,0,7,,,,,0,,,72,95
57856,note_off,,,,,64,0,9,,,,,2,,,72,100
57856,note_off,,,,,64,0,10,,,,,3,,,72,100
57856,note_off,,,,,64,0,8,,,,,1,,,72,100
57856,note_off,,,,,64,0,7,,,,,0,,,72,100
57888,note_on,,,,,32,0,8,,,,,1,,,81,35
57888,note_on,,,,,32,0,7,,,,,0,,,81,95
57888,note_on,,,,,32,0,10,,,,,3,,,81,35
57888,note_on,,,,,32,0,9,,,,,2,,,81,35
57920,note_off,,,,,128,0,15,,,,,7,,,55,100
57920,note_off,,,,,128,0,12,,,,,5,,,55,100
57920,note_off,,,,,128,0,13,,,,,6,,,43,100
57920,note_off,,,,,128,0,14,,,,,7,,,71,100
57920,note_off,,,,,128,0,11,,,,,4,,,59,100
57952,note_off,,,,,64,0,7,,,,,0,,,81,100
57952,note_off,,,,,64,0,10,,,,,3,,,81,100
57952,note_off,,,,,64,0,9,,,,,2,,,81,100
57952,note_off,,,,,64,0,8,,,,,1,,,81,100
57984,note_on,,,,,64,0,13,,,,,6,,,45,85
57984,note_on,,,,,64,0,15,,,,,7,,,57,100
57984,note_on,,,,,64,0,12,,,,,5,,,57,85
57984,note_on,,,,,64,0,11,,,,,4,,,60,85
57984,note_on,,,,,32,0,7,,,,,0,,,72,95
57984,note_on,,,,,32,0,10,,,,,3,,,72,35
57984,note_on,,,,,32,0,9,,,,,2,,,72,35
57984,note_on,,,,,64,0,14,,,,,7,,,72,100
57984,note_on,,,,,32,0,8,,,,,1,,,72,35
58048,note_off,,,,,64,0,7,,,,,0,,,72,100
58048,note_off,,,,,64,0,8,,,,,1,,,72,100
58048,note_off,,,,,64,0,10,,,,,3,,,72,100
58048,note_off,,,,,64,0,9,,,,,2,,,72,100
58080,note_on,,,,,32,0,10,,,,,3,,,81,35
58080,note_on,,,,,32,0,9,,,,,2,,,81,35
58080,note_on,,,,,32,0,8,,,,,1,,,81,35
58080,note_on,,,,,32,0,7,,,,,0,,,81,95
58112,note_off,,,,,128,0,15,,,,,7,,,57,100
58112,note_off,,,,,128,0,12,,,,,5,,,57,100
58112,note_off,,,,,128,0,14,,,,,7,,,72,100
58112,note_off,,,,,128,0,11,,,,,4,,,60,100
58112,note_off,,,,,128,0,13,,,,,6,,,45,100
58144,note_off,,,,,64,0,9,,,,,2,,,81,100
58144,note_off,,,,,64,0,8,,,,,1,,,81,100
58144,note_off,,,,,64,0,7,,,,,0,,,81,100
58144,note_off,,,,,64,0,10,,,,,3,,,81,100
58176,note_on,,,,,32,0,9,,,,,2,,,72,35
58176,note_on,,,,,32,0,10,,,,,3,,,72,35
58176,note_on,,,,,32,0,7,,,,,0,,,72,95
58176,note_on,,,,,64,0,13,,,,,6,,,41,85
58176,note_on,,,,,64,0,12,,,,,5,,,53,85
58176,note_on,,,,,32,0,8,,,,,1,,,72,35
58176,note_on,,,,,64,0,15,,,,,7,,,53,100
58176,note_on,,,,,64,0,11,,,,,4,,,57,85
58176,note_on,,,,,64,0,14,,,,,7,,,69,100
58240,note_off,,,,,64,0,7,,,,,0,,,72,100
58240,note_off,,,,,64,0,8,,,,,1,,,72,100
58240,note_off,,,,,64,0,10,,,,,3,,,72,100
58240,note_off,,,,,64,0,9,,,,,2,,,72,100
58272,note_on,,,,,32,0,7,,,,,0,,,81,95
58272,note_on,,,,,32,0,8,,,,,1,,,81,35
58272,note_on,,,,,32,0,10,,,,,3,,,81,35
58272,note_on,,,,,32,0,9,,,,,2,,,81,35
58304,note_off,,,,,128,0,14,,,,,7,,,69,100
58304,note_off,,,,,128,0,15,,,,,7,,,53,100
58304,note_off,,,,,128,0,13,,,,,6,,,41,100
58304,note_off,,,,,128,0,11,,,,,4,,,57,100
58304,note_off,,,,,128,0,12,,,,,5,,,53,100
58336,note_off,,,,,64,0,10,,,,,3,,,81,100
58336,note_off,,,,,64,0,9,,,,,2,,,81,100
58336,note_off,,,,,64,0,8,,,,,1,,,81,100
58336,note_off,,,,,64,0,7,,,,,0,,,81,100
58368,note_on,,,,,32,0,9,,,,,2,,,79,35
58368,note_on,,,,,64,0,11,,,,,4,,,64,85
58368,note_on,,,,,32,0,8,,,,,1,,,79,35
58368,note_on,,,,,0,0,14,,,,,7,,,67,100
58368,note_on,,,,,64,0,14,,,,,7,,,64,100
58368,note_on,,,,,64,0,15,,,,,7,,,48,100
58368,note_on,,,,,64,0,13,,,,,6,,,36,85
58368,note_on,,,,,32,0,10,,,,,3,,,79,35
58368,note_on,,,,,32,0,7,,,,,0,,,79,95
58368,note_on,,,,,64,0,12,,,,,5,,,48,85
58496,note_off,,,,,128,0,11,,,,,4,,,64,100
58496,note_off,,,,,128,0,8,,,,,1,,,79,100
58496,note_off,,,,,128,0,13,,,,,6,,,36,100
58496,note_off,,,,,128,0,7,,,,,0,,,79,100
58496,note_off,,,,,0,0,14,,,,,7,,,67,100
58496,note_off,,,,,128,0,15,,,,,7,,,48,100
58496,note_off,,,,,128,0,14,,,,,7,,,64,100
58496,note_off,,,,,128,0,10,,,,,3,,,79,100
58496,note_off,,,,,128,0,9,,,,,2,,,79,100
58496,note_off,,,,,128,0,12,,,,,5,,,48,100
58560,note_on,,,,,64,0,14,,,,,7,,,67,100
58560,note_on,,,,,0,0,14,,,,,7,,,64,100
58560,note_on,,,,,64,0,9,,,,,2,,,72,35
58560,note_on,,,,,64,0,8,,,,,1,,,72,35
58560,note_on,,,,,64,0,12,,,,,5,,,48,85
58560,note_on,,,,,64,0,10,,,,,3,,,72,35
58560,note_on,,,,,64,0,15,,,,,7,,,48,100
58560,note_on,,,,,64,0,7,,,,,0,,,72,95
58560,note_on,,,,,64,0,13,,,,,6,,,36,85
58560,note_on,,,,,64,0,11,,,,,4,,,64,85
58624,note_off,,,,,64,0,15,,,,,7,,,48,100
58624,note_off,,,,,0,0,14,,,,,7,,,64,100
58624,note_off,,,,,64,0,13,,,,,6,,,36,100
58624,note_off,,,,,64,0,12,,,,,5,,,48,100
58624,note_off,,,,,64,0,14,,,,,7,,,67,100
58624,note_off,,,,,64,0,11,,,,,4,,,64,100
58656,note_on,,,,,32,0,13,,,,,6,,,38,85
58656,note_on,,,,,32,0,11,,,,,4,,,65,85
58656,note_on,,,,,32,0,12,,,,,5,,,50,85
58656,note_on,,,,,32,0,15,,,,,7,,,50,100
58656,note_on,,,,,0,0,14,,,,,7,,,65,100
58656,note_on,,,,,32,0,14,,,,,7,,,69,100
58688,note_off,,,,,128,0,7,,,,,0,,,72,100
58688,note_off,,,,,128,0,10,,,,,3,,,72,100
58688,note_off,,,,,128,0,8,,,,,1,,,72,100
58688,note_off,,,,,128,0,9,,,,,2,,,72,100
58720,note_off,,,,,64,0,11,,,,,4,,,65,100
58720,note_off,,,,,0,0,14,,,,,7,,,65,100
58720,note_off,,,,,64,0,12,,,,,5,,,50,100
58720,note_off,,,,,64,0,13,,,,,6,,,38,100
58720,note_off,,,,,64,0,14,,,,,7,,,69,100
58720,note_off,,,,,64,0,15,,,,,7,,,50,100
58752,note_on,,,,,32,0,15,,,,,7,,,52,100
58752,note_on,,,,,32,0,12,,,,,5,,,52,85
58752,note_on,,,,,0,0,14,,,,,7,,,72,100
58752,note_on,,,,,32,0,14,,,,,7,,,67,100
58752,note_on,,,,,32,0,13,,,,,6,,,40,85
58752,program_change,,,,,64,0,8,,,,,1,40,,,
58752,note_on,,,,,32,0,11,,,,,4,,,67,85
58752,program_change,,,,,64,0,7,,,,,0,40,,,
58880,note_off,,,,,0,0,14,,,,,7,,,72,100
58880,note_off,,,,,128,0,14,,,,,7,,,67,100
58880,note_off,,,,,128,0,12,,,,,5,,,52,100
58880,note_off,,,,,128,0,13,,,,,6,,,40,100
58880,note_off,,,,,128,0,11,,,,,4,,,67,100
58880,note_off,,,,,128,0,15,,,,,7,,,52,100
58944,note_on,,,,,192,0,7,,,,,0,,,79,100
58944,note_on,,,,,64,0,14,,,,,7,,,64,100
58944,note_on,,,,,64,0,12,,,,,5,,,48,85
58944,note_on,,,,,64,0,13,,,,,6,,,36,85
58944,note_on,,,,,192,0,8,,,,,1,,,76,100
58944,note_on,,,,,64,0,11,,,,,4,,,64,85
58944,note_on,,,,,0,0,14,,,,,7,,,67,100
58944,note_on,,,,,64,0,15,,,,,7,,,48,100
59072,note_off,,,,,128,0,7,,,,,0,,,79,100
59072,note_off,,,,,128,0,13,,,,,6,,,36,100
59072,note_off,,,,,128,0,8,,,,,1,,,76,100
59072,note_off,,,,,128,0,14,,,,,7,,,64,100
59072,note_off,,,,,128,0,15,,,,,7,,,48,100
59072,note_off,,,,,128,0,11,,,,,4,,,64,100
59072,note_off,,,,,0,0,14,,,,,7,,,67,100
59072,note_off,,,,,128,0,12,,,,,5,,,48,100
59136,note_on,,,,,64,0,14,,,,,7,,,65,100
59136,note_on,,,,,0,0,14,,,,,7,,,69,100
59136,note_on,,,,,64,0,8,,,,,1,,,77,100
59136,note_on,,,,,64,0,13,,,,,6,,,41,100
59136,note_on,,,,,64,0,7,,,,,0,,,81,100
59136,note_on,,,,,64,0,15,,,,,7,,,53,100
59136,note_on,,,,,64,0,11,,,,,4,,,60,100
59136,note_on,,,,,64,0,12,,,,,5,,,53,100
59200,note_off,,,,,64,0,7,,,,,0,,,81,100
59200,note_off,,,,,64,0,8,,,,,1,,,77,100
59232,note_on,,,,,32,0,7,,,,,0,,,83,99
59232,note_on,,,,,32,0,8,,,,,1,,,79,99
59296,note_off,,,,,64,0,7,,,,,0,,,83,100
59296,note_off,,,,,64,0,8,,,,,1,,,79,100
59328,note_on,,,,,32,0,7,,,,,0,,,81,98
59328,note_on,,,,,32,0,8,,,,,1,,,77,98
59392,note_off,,,,,256,0,15,,,,,7,,,53,100
59392,note_off,,,,,64,0,7,,,,,0,,,81,100
59392,note_off,,,,,256,0,13,,,,,6,,,41,100
59392,note_off,,,,,64,0,8,,,,,1,,,77,100
59392,note_off,,,,,256,0,12,,,,,5,,,53,100
59392,note_off,,,,,0,0,14,,,,,7,,,69,100
59392,note_off,,,,,256,0,14,,,,,7,,,65,100
59392,note_off,,,,,256,0,11,,,,,4,,,60,100
59424,note_on,,,,,32,0,8,,,,,1,,,79,97
59424,note_on,,,,,32,0,7,,,,,0,,,83,97
59488,note_off,,,,,64,0,7,,,,,0,,,83,100
59488,note_off,,,,,64,0,8,,,,,1,,,79,100
59520,note_on,,,,,32,0,7,,,,,0,,,81,96
59520,note_on,,,,,32,0,8,,,,,1,,,77,96
59584,note_off,,,,,64,0,7,,,,,0,,,81,100
59584,note_off,,,,,64,0,8,,,,,1,,,77,100
59616,note_on,,,,,32,0,8,,,,,1,,,79,95
59616,note_on,,,,,32,0,7,,,,,0,,,83,95
59680,note_off,,,,,64,0,8,,,,,1,,,79,100
59680,note_off,,,,,64,0,7,,,,,0,,,83,100
59712,note_on,,,,,32,0,8,,,,,1,,,77,94
59712,note_on,,,,,32,0,7,,,,,0,,,81,94
59776,note_off,,,,,64,0,8,,,,,1,,,77,100
59776,note_off,,,,,64,0,7,,,,,0,,,81,100
59808,note_on,,,,,32,0,8,,,,,1,,,79,93
59808,note_on,,,,,32,0,7,,,,,0,,,83,93
59872,note_off,,,,,64,0,8,,,,,1,,,79,100
59872,note_off,,,,,64,0,7,,,,,0,,,83,100
59896,program_change,,,,,24,0,8,,,,,1,48,,,
59896,program_change,,,,,24,0,7,,,,,0,48,,,
59904,note_on,,,,,512,0,11,,,,,4,,,62,92
59904,note_on,,,,,512,0,15,,,,,7,,,47,100
59904,note_on,,,,,8,0,7,,,,,0,,,81,92
59904,note_on,,,,,1216,0,10,,,,,3,,,77,42
59904,note_on,,,,,512,0,13,,,,,6,,,35,92
59904,note_on,,,,,512,0,12,,,,,5,,,47,92
59904,note_on,,,,,1216,0,9,,,,,2,,,81,42
59904,note_on,,,,,0,0,14,,,,,7,,,57,100
59904,note_on,,,,,8,0,8,,,,,1,,,77,92
59904,note_on,,,,,512,0,14,,,,,7,,,65,100
60032,note_off,,,,,128,0,10,,,,,3,,,77,100
60032,note_off,,,,,128,0,9,,,,,2,,,81,100
60032,note_off,,,,,128,0,7,,,,,0,,,81,100
60032,note_off,,,,,128,0,8,,,,,1,,,77,100
60096,note_on,,,,,64,0,8,,,,,1,,,81,90
60096,note_on,,,,,64,0,7,,,,,0,,,77,90
60096,note_on,,,,,64,0,10,,,,,3,,,81,40
60096,note_on,,,,,64,0,9,,,,,2,,,77,40
60160,note_off,,,,,256,0,14,,,,,7,,,65,100
60160,note_off,,,,,256,0,11,,,,,4,,,62,100
60160,note_off,,,,,256,0,13,,,,,6,,,35,100
60160,note_off,,,,,256,0,12,,,,,5,,,47,100
60160,note_off,,,,,256,0,15,,,,,7,,,47,100
60160,note_off,,,,,0,0,14,,,,,7,,,57,100
60224,note_off,,,,,128,0,9,,,,,2,,,77,100
60224,note_off,,,,,128,0,7,,,,,0,,,77,100
60224,note_off,,,,,128,0,10,,,,,3,,,81,100
60224,note_off,,,,,128,0,8,,,,,1,,,81,100
60288,note_on,,,,,64,0,9,,,,,2,,,74,38
60288,note_on,,,,,128,0,12,,,,,5,,,59,88
60288,note_on,,,,,128,0,11,,,,,4,,,62,88
60288,note_on,,,,,64,0,7,,,,,0,,,74,88
60288,note_on,,,,,64,0,8,,,,,1,,,77,88
60288,note_on,,,,,64,0,10,,,,,3,,,77,38
60288,note_on,,,,,128,0,14,,,,,7,,,65,100
60288,note_on,,,,,0,0,14,,,,,7,,,69,100
60288,note_on,,,,,128,0,13,,,,,6,,,47,88
60288,note_on,,,,,128,0,15,,,,,7,,,59,100
60416,note_off,,,,,128,0,10,,,,,3,,,77,100
60416,note_off,,,,,128,0,8,,,,,1,,,77,100
60416,note_off,,,,,128,0,9,,,,,2,,,74,100
60416,note_off,,,,,128,0,7,,,,,0,,,74,100
60480,note_on,,,,,64,0,8,,,,,1,,,74,86
60480,note_on,,,,,64,0,10,,,,,3,,,74,36
60480,note_on,,,,,64,0,7,,,,,0,,,71,86
60480,note_on,,,,,64,0,9,,,,,2,,,71,36
60544,note_off,,,,,256,0,11,,,,,4,,,62,100
60544,note_off,,,,,256,0,13,,,,,6,,,47,100
60544,note_off,,,,,256,0,15,,,,,7,,,59,100
60544,note_off,,,,,0,0,14,,,,,7,,,69,100
60544,note_off,,,,,256,0,14,,,,,7,,,65,100
60544,note_off,,,,,256,0,12,,,,,5,,,59,100
60608,note_off,,,,,128,0,7,,,,,0,,,71,100
60608,note_off,,,,,128,0,9,,,,,2,,,71,100
60608,note_off,,,,,128,0,10,,,,,3,,,74,100
60608,note_off,,,,,128,0,8,,,,,1,,,74,100
60672,note_on,,,,,64,0,8,,,,,1,,,76,95
60672,note_on,,,,,128,0,13,,,,,6,,,40,95
60672,note_on,,,,,0,0,14,,,,,7,,,67,100
60672,note_on,,,,,64,0,9,,,,,2,,,79,85
60672,note_on,,,,,128,0,14,,,,,7,,,71,100
60672,note_on,,,,,64,0,10,,,,,3,,,76,85
60672,note_on,,,,,128,0,12,,,,,5,,,52,95
60672,note_on,,,,,64,0,7,,,,,0,,,79,95
60672,note_on,,,,,128,0,11,,,,,4,,,59,95
60672,note_on,,,,,128,0,15,,,,,7,,,52,100
60676,program_change,,,,,4,0,8,,,,,1,40,,,
60676,program_change,,,,,4,0,7,,,,,0,40,,,
60680,note_on,,,,,4,0,8,,,,,1,,,76,95
60680,note_on,,,,,4,0,7,,,,,0,,,79,95
60744,note_off,,,,,64,0,7,,,,,0,,,79,100
60744,note_off,,,,,64,0,8,,,,,1,,,76,100
60768,note_on,,,,,24,0,7,,,,,0,,,81,94
60768,note_on,,,,,24,0,8,,,,,1,,,77,94
60832,note_off,,,,,64,0,7,,,,,0,,,81,100
60832,note_off,,,,,64,0,8,,,,,1,,,77,100
60864,note_on,,,,,32,0,7,,,,,0,,,79,93
60864,note_on,,,,,32,0,8,,,,,1,,,76,93
60928,note_off,,,,,256,0,9,,,,,2,,,79,100
60928,note_off,,,,,256,0,13,,,,,6,,,40,100
60928,note_off,,,,,0,0,7,,,,,0,,,79,100
60928,note_off,,,,,64,0,7,,,,,0,,,79,100
60928,note_off,,,,,256,0,11,,,,,4,,,59,100
60928,note_off,,,,,256,0,12,,,,,5,,,52,100
60928,note_off,,,,,256,0,10,,,,,3,,,76,100
60928,note_off,,,,,64,0,8,,,,,1,,,76,100
60928,note_off,,,,,0,0,8,,,,,1,,,76,100
60928,note_off,,,,,256,0,15,,,,,7,,,52,100
60928,note_off,,,,,256,0,14,,,,,7,,,71,100
60928,note_off,,,,,0,0,14,,,,,7,,,67,100
60960,note_on,,,,,32,0,7,,,,,0,,,81,92
60960,note_on,,,,,32,0,8,,,,,1,,,77,92
61024,note_off,,,,,64,0,8,,,,,1,,,77,100
61024,note_off,,,,,64,0,7,,,,,0,,,81,100
61056,note_on,,,,,32,0,7,,,,,0,,,79,91
61056,note_on,,,,,32,0,8,,,,,1,,,76,91
61120,note_off,,,,,64,0,8,,,,,1,,,76,100
61120,note_off,,,,,64,0,7,,,,,0,,,79,100
61152,note_on,,,,,32,0,8,,,,,1,,,77,90
61152,note_on,,,,,32,0,7,,,,,0,,,81,90
61216,note_off,,,,,64,0,8,,,,,1,,,77,100
61216,note_off,,,,,64,0,7,,,,,0,,,81,100
61248,note_on,,,,,32,0,7,,,,,0,,,79,89
61248,note_on,,,,,32,0,8,,,,,1,,,76,89
61312,note_off,,,,,64,0,7,,,,,0,,,79,100
61312,note_off,,,,,64,0,8,,,,,1,,,76,100
61344,note_on,,,,,32,0,8,,,,,1,,,77,88
61344,note_on,,,,,32,0,7,,,,,0,,,81,88
61408,note_off,,,,,64,0,8,,,,,1,,,77,100
61408,note_off,,,,,64,0,7,,,,,0,,,81,100
61432,program_change,,,,,24,0,7,,,,,0,48,,,
61432,program_change,,,,,24,0,8,,,,,1,48,,,
61440,note_on,,,,,0,0,14,,,,,7,,,55,100
61440,note_on,,,,,512,0,11,,,,,4,,,60,87
61440,note_on,,,,,512,0,10,,,,,3,,,76,37
61440,note_on,,,,,512,0,12,,,,,5,,,45,87
61440,note_on,,,,,512,0,13,,,,,6,,,33,87
61440,note_on,,,,,512,0,15,,,,,7,,,45,100
61440,note_on,,,,,8,0,8,,,,,1,,,76,87
61440,note_on,,,,,8,0,7,,,,,0,,,79,87
61440,note_on,,,,,512,0,9,,,,,2,,,79,37
61440,note_on,,,,,512,0,14,,,,,7,,,64,100
61568,note_off,,,,,128,0,8,,,,,1,,,76,100
61568,note_off,,,,,128,0,7,,,,,0,,,79,100
61568,note_off,,,,,128,0,9,,,,,2,,,79,100
61568,note_off,,,,,128,0,10,,,,,3,,,76,100
61632,note_on,,,,,64,0,9,,,,,2,,,76,35
61632,note_on,,,,,64,0,10,,,,,3,,,79,35
61632,note_on,,,,,64,0,7,,,,,0,,,76,85
61632,note_on,,,,,64,0,8,,,,,1,,,79,85
61696,note_off,,,,,256,0,14,,,,,7,,,64,100
61696,note_off,,,,,0,0,14,,,,,7,,,55,100
61696,note_off,,,,,256,0,15,,,,,7,,,45,100
61696,note_off,,,,,256,0,12,,,,,5,,,45,100
61696,note_off,,,,,256,0,13,,,,,6,,,33,100
61696,note_off,,,,,256,0,11,,,,,4,,,60,100
61760,note_off,,,,,128,0,9,,,,,2,,,76,100
61760,note_off,,,,,128,0,8,,,,,1,,,79,100
61760,note_off,,,,,128,0,10,,,,,3,,,79,100
61760,note_off,,,,,128,0,7,,,,,0,,,76,100
61824,note_on,,,,,128,0,12,,,,,5,,,57,83
61824,note_on,,,,,128,0,14,,,,,7,,,64,100
61824,note_on,,,,,128,0,13,,,,,6,,,45,83
61824,note_on,,,,,0,0,14,,,,,7,,,67,100
61824,note_on,,,,,64,0,10,,,,,3,,,76,33
61824,note_on,,,,,64,0,8,,,,,1,,,76,83
61824,note_on,,,,,64,0,7,,,,,0,,,72,83
61824,note_on,,,,,128,0,11,,,,,4,,,60,83
61824,note_on,,,,,128,0,15,,,,,7,,,57,100
61824,note_on,,,,,64,0,9,,,,,2,,,72,33
61952,note_off,,,,,128,0,7,,,,,0,,,72,100
61952,note_off,,,,,128,0,10,,,,,3,,,76,100
61952,note_off,,,,,128,0,8,,,,,1,,,76,100
61952,note_off,,,,,128,0,9,,,,,2,,,72,100
62016,note_on,,,,,64,0,8,,,,,1,,,72,81
62016,note_on,,,,,64,0,7,,,,,0,,,69,81
62016,note_on,,,,,64,0,10,,,,,3,,,72,31
62016,note_on,,,,,64,0,9,,,,,2,,,69,31
62080,note_off,,,,,0,0,14,,,,,7,,,67,100
62080,note_off,,,,,256,0,14,,,,,7,,,64,100
62080,note_off,,,,,256,0,15,,,,,7,,,57,100
62080,note_off,,,,,256,0,11,,,,,4,,,60,100
62080,note_off,,,,,256,0,13,,,,,6,,,45,100
62080,note_off,,,,,256,0,12,,,,,5,,,57,100
62144,note_off,,,,,128,0,10,,,,,3,,,72,100
62144,note_off,,,,,128,0,8,,,,,1,,,72,100
62144,note_off,,,,,128,0,9,,,,,2,,,69,100
62144,note_off,,,,,128,0,7,,,,,0,,,69,100
62208,note_on,,,,,128,0,14,,,,,7,,,65,100
62208,note_on,,,,,128,0,13,,,,,6,,,38,90
62208,note_on,,,,,128,0,12,,,,,5,,,50,90
62208,note_on,,,,,64,0,8,,,,,1,,,74,90
62208,note_on,,,,,64,0,9,,,,,2,,,77,70
62208,note_on,,,,,0,0,14,,,,,7,,,69,100
62208,note_on,,,,,64,0,7,,,,,0,,,77,90
62208,note_on,,,,,64,0,10,,,,,3,,,74,70
62208,note_on,,,,,128,0,11,,,,,4,,,57,90
62208,note_on,,,,,128,0,15,,,,,7,,,50,100
62212,program_change,,,,,4,0,8,,,,,1,40,,,
62212,program_change,,,,,4,0,7,,,,,0,40,,,
62216,note_on,,,,,4,0,8,,,,,1,,,74,90
62216,note_on,,,,,4,0,7,,,,,0,,,77,90
62280,note_off,,,,,64,0,7,,,,,0,,,77,100
62280,note_off,,,,,64,0,8,,,,,1,,,74,100
62304,note_on,,,,,24,0,8,,,,,1,,,76,89
62304,note_on,,,,,24,0,7,,,,,0,,,79,89
62368,note_off,,,,,64,0,8,,,,,1,,,76,100
62368,note_off,,,,,64,0,7,,,,,0,,,79,100
62400,note_on,,,,,32,0,8,,,,,1,,,74,88
62400,note_on,,,,,32,0,7,,,,,0,,,77,88
62464,note_off,,,,,256,0,11,,,,,4,,,57,100
62464,note_off,,,,,256,0,10,,,,,3,,,74,100
62464,note_off,,,,,256,0,12,,,,,5,,,50,100
62464,note_off,,,,,256,0,15,,,,,7,,,50,100
62464,note_off,,,,,256,0,9,,,,,2,,,77,100
62464,note_off,,,,,256,0,13,,,,,6,,,38,100
62464,note_off,,,,,0,0,14,,,,,7,,,69,100
62464,note_off,,,,,256,0,14,,,,,7,,,65,100
62464,note_off,,,,,0,0,7,,,,,0,,,77,100
62464,note_off,,,,,64,0,7,,,,,0,,,77,100
62464,note_off,,,,,64,0,8,,,,,1,,,74,100
62464,note_off,,,,,0,0,8,,,,,1,,,74,100
62496,note_on,,,,,32,0,8,,,,,1,,,76,87
62496,note_on,,,,,32,0,7,,,,,0,,,79,87
62560,note_off,,,,,64,0,8,,,,,1,,,76,100
62560,note_off,,,,,64,0,7,,,,,0,,,79,100
62592,note_on,,,,,32,0,8,,,,,1,,,74,86
62592,note_on,,,,,32,0,7,,,,,0,,,77,86
62656,note_off,,,,,64,0,8,,,,,1,,,74,100
62656,note_off,,,,,64,0,7,,,,,0,,,77,100
62688,note_on,,,,,32,0,8,,,,,1,,,76,85
62688,note_on,,,,,32,0,7,,,,,0,,,79,85
62752,note_off,,,,,64,0,8,,,,,1,,,76,100
62752,note_off,,,,,64,0,7,,,,,0,,,79,100
62784,note_on,,,,,32,0,7,,,,,0,,,77,84
62784,note_on,,,,,32,0,8,,,,,1,,,74,84
62848,note_off,,,,,64,0,7,,,,,0,,,77,100
62848,note_off,,,,,64,0,8,,,,,1,,,74,100
62880,note_on,,,,,32,0,7,,,,,0,,,79,83
62880,note_on,,,,,32,0,8,,,,,1,,,76,83
62944,note_off,,,,,64,0,8,,,,,1,,,76,100
62944,note_off,,,,,64,0,7,,,,,0,,,79,100
62968,program_change,,,,,24,0,7,,,,,0,48,,,
62968,program_change,,,,,24,0,8,,,,,1,48,,,
62976,note_on,,,,,512,0,15,,,,,7,,,43,100
62976,note_on,,,,,512,0,11,,,,,4,,,59,82
62976,note_on,,,,,512,0,9,,,,,2,,,77,32
62976,note_on,,,,,512,0,13,,,,,6,,,43,82
62976,note_on,,,,,512,0,14,,,,,7,,,74,100
62976,note_on,,,,,0,0,14,,,,,7,,,65,100
62976,note_on,,,,,8,0,7,,,,,0,,,77,82
62976,note_on,,,,,512,0,10,,,,,3,,,74,32
62976,note_on,,,,,8,0,8,,,,,1,,,74,82
62976,note_on,,,,,512,0,12,,,,,5,,,43,82
63104,note_off,,,,,128,0,7,,,,,0,,,77,100
63104,note_off,,,,,128,0,8,,,,,1,,,74,100
63104,note_off,,,,,128,0,10,,,,,3,,,74,100
63104,note_off,,,,,128,0,9,,,,,2,,,77,100
63168,note_on,,,,,64,0,7,,,,,0,,,74,80
63168,note_on,,,,,64,0,10,,,,,3,,,77,30
63168,note_on,,,,,64,0,9,,,,,2,,,74,30
63168,note_on,,,,,64,0,8,,,,,1,,,77,80
63232,note_off,,,,,256,0,15,,,,,7,,,43,100
63232,note_off,,,,,256,0,11,,,,,4,,,59,100
63232,note_off,,,,,256,0,14,,,,,7,,,74,100
63232,note_off,,,,,0,0,14,,,,,7,,,65,100
63232,note_off,,,,,256,0,13,,,,,6,,,43,100
63232,note_off,,,,,256,0,12,,,,,5,,,43,100
63296,note_off,,,,,128,0,10,,,,,3,,,77,100
63296,note_off,,,,,128,0,8,,,,,1,,,77,100
63296,note_off,,,,,128,0,9,,,,,2,,,74,100
63296,note_off,,,,,128,0,7,,,,,0,,,74,100
63360,note_on,,,,,64,0,10,,,,,3,,,74,28
63360,note_on,,,,,128,0,11,,,,,4,,,59,78
63360,note_on,,,,,0,0,14,,,,,7,,,74,100
63360,note_on,,,,,64,0,8,,,,,1,,,74,78
63360,note_on,,,,,128,0,14,,,,,7,,,77,100
63360,note_on,,,,,64,0,7,,,,,0,,,71,78
63360,note_on,,,,,128,0,13,,,,,6,,,43,78
63360,note_on,,,,,64,0,9,,,,,2,,,71,28
63360,note_on,,,,,128,0,12,,,,,5,,,55,78
63360,note_on,,,,,128,0,15,,,,,7,,,55,100
63488,note_off,,,,,128,0,7,,,,,0,,,71,100
63488,note_off,,,,,128,0,9,,,,,2,,,71,100
63488,note_off,,,,,128,0,10,,,,,3,,,74,100
63488,note_off,,,,,128,0,8,,,,,1,,,74,100
63552,note_on,,,,,64,0,7,,,,,0,,,67,76
63552,note_on,,,,,64,0,8,,,,,1,,,71,76
63552,note_on,,,,,64,0,9,,,,,2,,,67,26
63552,note_on,,,,,64,0,10,,,,,3,,,71,26
63616,note_off,,,,,0,0,14,,,,,7,,,74,100
63616,note_off,,,,,256,0,15,,,,,7,,,55,100
63616,note_off,,,,,256,0,13,,,,,6,,,43,100
63616,note_off,,,,,256,0,14,,,,,7,,,77,100
63616,note_off,,,,,256,0,11,,,,,4,,,59,100
63616,note_off,,,,,256,0,12,,,,,5,,,55,100
63680,note_off,,,,,128,0,10,,,,,3,,,71,100
63680,note_off,,,,,128,0,8,,,,,1,,,71,100
63680,note_off,,,,,128,0,9,,,,,2,,,67,100
63680,note_off,,,,,128,0,7,,,,,0,,,67,100
63744,note_on,,,,,128,0,13,,,,,6,,,48,75
63744,note_on,,,,,64,0,9,,,,,2,,,76,25
63744,note_on,,,,,128,0,11,,,,,4,,,55,75
63744,note_on,,,,,128,0,15,,,,,7,,,60,100
63744,note_on,,,,,64,0,7,,,,,0,,,76,75
63744,note_on,,,,,64,0,8,,,,,1,,,72,75
63744,note_on,,,,,128,0,12,,,,,5,,,60,75
63744,note_on,,,,,128,0,14,,,,,7,,,76,100
63744,note_on,,,,,64,0,10,,,,,3,,,72,25
63808,note_off,,,,,64,0,9,,,,,2,,,76,100
63808,note_off,,,,,64,0,14,,,,,7,,,76,100
63808,note_off,,,,,64,0,12,,,,,5,,,60,100
63808,note_off,,,,,64,0,7,,,,,0,,,76,100
63808,note_off,,,,,64,0,15,,,,,7,,,60,100
63808,note_off,,,,,64,0,13,,,,,6,,,48,100
63840,note_on,,,,,32,0,12,,,,,5,,,59,76
63840,note_on,,,,,32,0,9,,,,,2,,,74,26
63840,note_on,,,,,32,0,13,,,,,6,,,47,76
63840,note_on,,,,,32,0,15,,,,,7,,,59,100
63840,note_on,,,,,32,0,7,,,,,0,,,74,76
63840,note_on,,,,,32,0,14,,,,,7,,,74,100
63904,note_off,,,,,64,0,13,,,,,6,,,47,100
63904,note_off,,,,,64,0,9,,,,,2,,,74,100
63904,note_off,,,,,64,0,15,,,,,7,,,59,100
63904,note_off,,,,,64,0,14,,,,,7,,,74,100
63904,note_off,,,,,64,0,7,,,,,0,,,74,100
63904,note_off,,,,,64,0,12,,,,,5,,,59,100
63936,note_on,,,,,32,0,14,,,,,7,,,72,100
63936,note_on,,,,,32,0,7,,,,,0,,,72,77
63936,note_on,,,,,32,0,15,,,,,7,,,57,100
63936,note_on,,,,,32,0,12,,,,,5,,,57,77
63936,note_on,,,,,32,0,9,,,,,2,,,72,27
63936,note_on,,,,,32,0,13,,,,,6,,,45,77
64000,note_off,,,,,64,0,9,,,,,2,,,72,100
64000,note_off,,,,,256,0,8,,,,,1,,,72,100
64000,note_off,,,,,64,0,7,,,,,0,,,72,100
64000,note_off,,,,,256,0,11,,,,,4,,,55,100
64000,note_off,,,,,64,0,13,,,,,6,,,45,100
64000,note_off,,,,,256,0,10,,,,,3,,,72,100
64000,note_off,,,,,64,0,12,,,,,5,,,57,100
64000,note_off,,,,,64,0,15,,,,,7,,,57,100
64000,note_off,,,,,64,0,14,,,,,7,,,72,100
64032,note_on,,,,,32,0,13,,,,,6,,,43,78
64032,note_on,,,,,32,0,12,,,,,5,,,55,78
64032,note_on,,,,,32,0,15,,,,,7,,,55,100
64032,note_on,,,,,32,0,7,,,,,0,,,71,78
64032,note_on,,,,,32,0,14,,,,,7,,,71,100
64032,note_on,,,,,32,0,9,,,,,2,,,71,28
64096,note_off,,,,,64,0,14,,,,,7,,,71,100
64096,note_off,,,,,64,0,12,,,,,5,,,55,100
64096,note_off,,,,,64,0,13,,,,,6,,,43,100
64096,note_off,,,,,64,0,7,,,,,0,,,71,100
64096,note_off,,,,,64,0,15,,,,,7,,,55,100
64096,note_off,,,,,64,0,9,,,,,2,,,71,100
64128,note_on,,,,,32,0,9,,,,,2,,,69,29
64128,note_on,,,,,32,0,13,,,,,6,,,41,79
64128,note_on,,,,,32,0,12,,,,,5,,,53,79
64128,note_on,,,,,32,0,15,,,,,7,,,53,100
64128,note_on,,,,,32,0,14,,,,,7,,,69,100
64128,note_on,,,,,32,0,7,,,,,0,,,69,79
64192,note_off,,,,,64,0,14,,,,,7,,,69,100
64192,note_off,,,,,64,0,12,,,,,5,,,53,100
64192,note_off,,,,,64,0,15,,,,,7,,,53,100
64192,note_off,,,,,64,0,9,,,,,2,,,69,100
64192,note_off,,,,,64,0,13,,,,,6,,,41,100
64192,note_off,,,,,64,0,7,,,,,0,,,69,100
64224,note_on,,,,,32,0,14,,,,,7,,,67,100
64224,note_on,,,,,32,0,12,,,,,5,,,52,80
64224,note_on,,,,,32,0,13,,,,,6,,,40,80
64224,note_on,,,,,32,0,7,,,,,0,,,67,80
64224,note_on,,,,,32,0,15,,,,,7,,,52,100
64224,note_on,,,,,32,0,9,,,,,2,,,67,30
64288,note_off,,,,,64,0,7,,,,,0,,,67,100
64288,note_off,,,,,64,0,15,,,,,7,,,52,100
64288,note_off,,,,,64,0,14,,,,,7,,,67,100
64288,note_off,,,,,64,0,12,,,,,5,,,52,100
64288,note_off,,,,,64,0,13,,,,,6,,,40,100
64288,note_off,,,,,64,0,9,,,,,2,,,67,100
64320,note_on,,,,,32,0,7,,,,,0,,,65,81
64320,note_on,,,,,32,0,14,,,,,7,,,65,100
64320,note_on,,,,,32,0,12,,,,,5,,,50,81
64320,note_on,,,,,32,0,15,,,,,7,,,50,100
64320,note_on,,,,,32,0,9,,,,,2,,,65,31
64320,note_on,,,,,32,0,13,,,,,6,,,38,81
64384,note_off,,,,,64,0,9,,,,,2,,,65,100
64384,note_off,,,,,64,0,7,,,,,0,,,65,100
64384,note_off,,,,,64,0,15,,,,,7,,,50,100
64384,note_off,,,,,64,0,13,,,,,6,,,38,100
64384,note_off,,,,,64,0,12,,,,,5,,,50,100
64384,note_off,,,,,64,0,14,,,,,7,,,65,100
64416,note_on,,,,,32,0,12,,,,,5,,,48,82
64416,note_on,,,,,32,0,13,,,,,6,,,36,82
64416,note_on,,,,,32,0,14,,,,,7,,,64,100
64416,note_on,,,,,32,0,15,,,,,7,,,48,100
64416,note_on,,,,,32,0,9,,,,,2,,,64,32
64416,note_on,,,,,32,0,7,,,,,0,,,64,82
64480,note_off,,,,,64,0,14,,,,,7,,,64,100
64480,note_off,,,,,64,0,12,,,,,5,,,48,100
64480,note_off,,,,,64,0,13,,,,,6,,,36,100
64480,note_off,,,,,64,0,9,,,,,2,,,64,100
64480,note_off,,,,,64,0,15,,,,,7,,,48,100
64480,note_off,,,,,64,0,7,,,,,0,,,64,100
64512,note_on,,,,,32,0,9,,,,,2,,,79,33
64512,note_on,,,,,32,0,14,,,,,7,,,64,100
64512,note_on,,,,,32,0,7,,,,,0,,,79,83
64512,note_on,,,,,32,0,12,,,,,5,,,60,83
64512,note_on,,,,,512,0,10,,,,,3,,,76,33
64512,note_on,,,,,512,0,11,,,,,4,,,67,83
64512,note_on,,,,,32,0,13,,,,,6,,,48,83
64512,note_on,,,,,512,0,8,,,,,1,,,76,83
64512,note_on,,,,,0,0,14,,,,,7,,,67,100
64512,note_on,,,,,32,0,15,,,,,7,,,60,100
64576,note_off,,,,,64,0,8,,,,,1,,,76,100
64576,note_off,,,,,64,0,9,,,,,2,,,79,100
64576,note_off,,,,,64,0,7,,,,,0,,,79,100
64576,note_off,,,,,64,0,10,,,,,3,,,76,100
64608,note_on,,,,,32,0,8,,,,,1,,,74,84
64608,note_on,,,,,32,0,10,,,,,3,,,74,34
64608,note_on,,,,,32,0,7,,,,,0,,,77,84
64608,note_on,,,,,32,0,9,,,,,2,,,77,34
64640,note_off,,,,,128,0,15,,,,,7,,,60,100
64640,note_off,,,,,128,0,13,,,,,6,,,48,100
64640,note_off,,,,,128,0,12,,,,,5,,,60,100
64640,note_off,,,,,0,0,14,,,,,7,,,67,100
64640,note_off,,,,,128,0,14,,,,,7,,,64,100
64672,note_off,,,,,64,0,9,,,,,2,,,77,100
64672,note_off,,,,,64,0,7,,,,,0,,,77,100
64672,note_off,,,,,64,0,10,,,,,3,,,74,100
64672,note_off,,,,,64,0,8,,,,,1,,,74,100
64704,note_on,,,,,64,0,15,,,,,7,,,48,100
64704,note_on,,,,,32,0,9,,,,,2,,,76,35
64704,note_on,,,,,32,0,7,,,,,0,,,76,85
64704,note_on,,,,,32,0,10,,,,,3,,,72,35
64704,note_on,,,,,64,0,13,,,,,6,,,36,85
64704,note_on,,,,,64,0,14,,,,,7,,,55,100
64704,note_on,,,,,0,0,14,,,,,7,,,64,100
64704,note_on,,,,,64,0,12,,,,,5,,,48,85
64704,note_on,,,,,32,0,8,,,,,1,,,72,85
64768,note_off,,,,,64,0,8,,,,,1,,,72,100
64768,note_off,,,,,256,0,11,,,,,4,,,67,100
64768,note_off,,,,,64,0,10,,,,,3,,,72,100
64768,note_off,,,,,64,0,9,,,,,2,,,76,100
64768,note_off,,,,,64,0,7,,,,,0,,,76,100
64800,note_on,,,,,32,0,9,,,,,2,,,74,37
64800,note_on,,,,,32,0,10,,,,,3,,,71,37
64800,note_on,,,,,32,0,8,,,,,1,,,71,87
64800,note_on,,,,,32,0,7,,,,,0,,,74,87
64832,note_off,,,,,128,0,15,,,,,7,,,48,100
64832,note_off,,,,,128,0,12,,,,,5,,,48,100
64832,note_off,,,,,0,0,14,,,,,7,,,64,100
64832,note_off,,,,,128,0,14,,,,,7,,,55,100
64832,note_off,,,,,128,0,13,,,,,6,,,36,100
64864,note_off,,,,,64,0,7,,,,,0,,,74,100
64864,note_off,,,,,64,0,10,,,,,3,,,71,100
64864,note_off,,,,,64,0,9,,,,,2,,,74,100
64864,note_off,,,,,64,0,8,,,,,1,,,71,100
64896,note_on,,,,,32,0,10,,,,,3,,,69,38
64896,note_on,,,,,32,0,8,,,,,1,,,69,88
64896,note_on,,,,,32,0,9,,,,,2,,,72,38
64896,note_on,,,,,32,0,7,,,,,0,,,72,88
64960,note_off,,,,,64,0,9,,,,,2,,,72,100
64960,note_off,,,,,64,0,8,,,,,1,,,69,100
64960,note_off,,,,,64,0,10,,,,,3,,,69,100
64960,note_off,,,,,64,0,7,,,,,0,,,72,100
64992,note_on,,,,,32,0,9,,,,,2,,,71,39
64992,note_on,,,,,32,0,10,,,,,3,,,67,39
64992,note_on,,,,,32,0,7,,,,,0,,,71,89
64992,note_on,,,,,32,0,8,,,,,1,,,67,89
65056,note_off,,,,,64,0,8,,,,,1,,,67,100
65056,note_off,,,,,64,0,10,,,,,3,,,67,100
65056,note_off,,,,,64,0,7,,,,,0,,,71,100
65056,note_off,,,,,64,0,9,,,,,2,,,71,100
65088,note_on,,,,,32,0,8,,,,,1,,,65,90
65088,note_on,,,,,32,0,10,,,,,3,,,65,40
65088,note_on,,,,,256,0,15,,,,,7,,,60,100
65088,note_on,,,,,32,0,7,,,,,0,,,69,90
65088,note_on,,,,,320,0,11,,,,,4,,,67,90
65088,note_on,,,,,256,0,12,,,,,5,,,60,90
65088,note_on,,,,,256,0,13,,,,,6,,,48,90
65088,note_on,,,,,256,0,14,,,,,7,,,67,100
65088,note_on,,,,,0,0,14,,,,,7,,,76,100
65088,note_on,,,,,32,0,9,,,,,2,,,69,40
65152,note_off,,,,,64,0,8,,,,,1,,,65,100
65152,note_off,,,,,64,0,7,,,,,0,,,69,100
65152,note_off,,,,,64,0,10,,,,,3,,,65,100
65152,note_off,,,,,64,0,9,,,,,2,,,69,100
65184,note_on,,,,,32,0,9,,,,,2,,,67,41
65184,note_on,,,,,32,0,10,,,,,3,,,64,41
65184,note_on,,,,,32,0,8,,,,,1,,,64,91
65184,note_on,,,,,32,0,7,,,,,0,,,67,91
65216,note_off,,,,,128,0,12,,,,,5,,,60,100
65216,note_off,,,,,128,0,11,,,,,4,,,67,100
65216,note_off,,,,,128,0,13,,,,,6,,,48,100
65216,note_off,,,,,128,0,14,,,,,7,,,67,100
65216,note_off,,,,,0,0,14,,,,,7,,,76,100
65216,note_off,,,,,128,0,15,,,,,7,,,60,100
65248,note_off,,,,,64,0,10,,,,,3,,,64,100
65248,note_off,,,,,64,0,8,,,,,1,,,64,100
65248,note_off,,,,,64,0,7,,,,,0,,,67,100
65248,note_off,,,,,64,0,9,,,,,2,,,67,100
65280,note_on,,,,,64,0,11,,,,,4,,,72,92
65280,note_on,,,,,32,0,8,,,,,1,,,76,92
65280,note_on,,,,,64,0,15,,,,,7,,,60,100
65280,note_on,,,,,64,0,14,,,,,7,,,69,100
65280,note_on,,,,,64,0,12,,,,,5,,,60,92
65280,note_on,,,,,64,0,13,,,,,6,,,48,92
65280,note_on,,,,,32,0,7,,,,,0,,,81,92
65280,note_on,,,,,32,0,9,,,,,2,,,81,42
65280,note_on,,,,,32,0,10,,,,,3,,,76,42
65280,note_on,,,,,0,0,14,,,,,7,,,76,100
65344,note_off,,,,,64,0,11,,,,,4,,,72,100
65344,note_off,,,,,64,0,7,,,,,0,,,81,100
65344,note_off,,,,,64,0,9,,,,,2,,,81,100
65376,note_on,,,,,32,0,7,,,,,0,,,79,93
65376,note_on,,,,,32,0,11,,,,,4,,,71,93
65376,note_on,,,,,32,0,9,,,,,2,,,79,43
65408,note_off,,,,,128,0,8,,,,,1,,,76,100
65408,note_off,,,,,128,0,15,,,,,7,,,60,100
65408,note_off,,,,,128,0,10,,,,,3,,,76,100
65408,note_off,,,,,128,0,12,,,,,5,,,60,100
65408,note_off,,,,,128,0,14,,,,,7,,,69,100
65408,note_off,,,,,0,0,14,,,,,7,,,76,100
65408,note_off,,,,,128,0,13,,,,,6,,,48,100
65440,note_off,,,,,64,0,9,,,,,2,,,79,100
65440,note_off,,,,,64,0,11,,,,,4,,,71,100
65440,note_off,,,,,64,0,7,,,,,0,,,79,100
65472,note_on,,,,,64,0,10,,,,,3,,,64,44
65472,note_on,,,,,64,0,14,,,,,7,,,64,100
65472,note_on,,,,,0,0,14,,,,,7,,,69,100
65472,note_on,,,,,32,0,7,,,,,0,,,77,94
65472,note_on,,,,,32,0,9,,,,,2,,,77,44
65472,note_on,,,,,32,0,11,,,,,4,,,69,94
65472,note_on,,,,,64,0,15,,,,,7,,,48,100
65472,note_on,,,,,64,0,12,,,,,5,,,48,94
65472,note_on,,,,,64,0,8,,,,,1,,,64,94
65472,note_on,,,,,64,0,13,,,,,6,,,36,94
65536,note_off,,,,,64,0,7,,,,,0,,,77,100
65536,note_off,,,,,64,0,9,,,,,2,,,77,100
65536,note_off,,,,,64,0,11,,,,,4,,,69,100
65568,note_on,,,,,32,0,9,,,,,2,,,76,45
65568,note_on,,,,,32,0,11,,,,,4,,,67,95
65568,note_on,,,,,32,0,7,,,,,0,,,76,95
65600,note_off,,,,,128,0,15,,,,,7,,,48,100
65600,note_off,,,,,128,0,8,,,,,1,,,64,100
65600,note_off,,,,,128,0,10,,,,,3,,,64,100
65600,note_off,,,,,128,0,14,,,,,7,,,64,100
65600,note_off,,,,,128,0,12,,,,,5,,,48,100
65600,note_off,,,,,0,0,14,,,,,7,,,69,100
65600,note_off,,,,,128,0,13,,,,,6,,,36,100
65632,note_off,,,,,64,0,9,,,,,2,,,76,100
65632,note_off,,,,,64,0,7,,,,,0,,,76,100
65632,note_off,,,,,64,0,11,,,,,4,,,67,100
65664,note_on,,,,,32,0,11,,,,,4,,,65,96
65664,note_on,,,,,32,0,9,,,,,2,,,74,46
65664,note_on,,,,,32,0,7,,,,,0,,,74,96
65728,note_off,,,,,64,0,7,,,,,0,,,74,100
65728,note_off,,,,,64,0,11,,,,,4,,,65,100
65728,note_off,,,,,64,0,9,,,,,2,,,74,100
65760,note_on,,,,,32,0,11,,,,,4,,,64,97
65760,note_on,,,,,32,0,9,,,,,2,,,72,47
65760,note_on,,,,,32,0,7,,,,,0,,,72,97
65824,note_off,,,,,64,0,7,,,,,0,,,72,100
65824,note_off,,,,,64,0,11,,,,,4,,,64,100
65824,note_off,,,,,64,0,9,,,,,2,,,72,100
65856,note_on,,,,,256,0,12,,,,,5,,,60,99
65856,note_on,,,,,32,0,11,,,,,4,,,62,99
65856,note_on,,,,,256,0,10,,,,,3,,,76,49
65856,note_on,,,,,32,0,9,,,,,2,,,71,49
65856,note_on,,,,,256,0,14,,,,,7,,,69,100
65856,note_on,,,,,256,0,8,,,,,1,,,76,99
65856,note_on,,,,,256,0,15,,,,,7,,,60,100
65856,note_on,,,,,256,0,13,,,,,6,,,48,99
65856,note_on,,,,,32,0,7,,,,,0,,,71,99
65856,note_on,,,,,0,0,14,,,,,7,,,76,100
65920,note_off,,,,,64,0,11,,,,,4,,,62,100
65920,note_off,,,,,64,0,9,,,,,2,,,71,100
65920,note_off,,,,,64,0,7,,,,,0,,,71,100
65952,note_on,,,,,32,0,9,,,,,2,,,69,50
65952,note_on,,,,,32,0,7,,,,,0,,,69,100
65952,note_on,,,,,32,0,11,,,,,4,,,60,100
65984,note_off,,,,,128,0,14,,,,,7,,,69,100
65984,note_off,,,,,128,0,10,,,,,3,,,76,100
65984,note_off,,,,,128,0,15,,,,,7,,,60,100
65984,note_off,,,,,128,0,8,,,,,1,,,76,100
65984,note_off,,,,,128,0,13,,,,,6,,,48,100
65984,note_off,,,,,0,0,14,,,,,7,,,76,100
65984,note_off,,,,,128,0,12,,,,,5,,,60,100
66016,note_off,,,,,64,0,9,,,,,2,,,69,100
66016,note_off,,,,,64,0,11,,,,,4,,,60,100
66016,note_off,,,,,64,0,7,,,,,0,,,69,100
66048,note_on,,,,,64,0,12,,,,,5,,,60,101
66048,note_on,,,,,32,0,11,,,,,4,,,64,101
66048,note_on,,,,,64,0,14,,,,,7,,,76,100
66048,note_on,,,,,64,0,8,,,,,1,,,76,101
66048,note_on,,,,,32,0,9,,,,,2,,,81,51
66048,note_on,,,,,64,0,10,,,,,3,,,76,51
66048,note_on,,,,,64,0,13,,,,,6,,,48,101
66048,note_on,,,,,64,0,15,,,,,7,,,60,100
66048,note_on,,,,,32,0,7,,,,,0,,,81,101
66112,note_off,,,,,64,0,10,,,,,3,,,76,100
66112,note_off,,,,,64,0,14,,,,,7,,,76,100
66112,note_off,,,,,64,0,13,,,,,6,,,48,100
66112,note_off,,,,,64,0,12,,,,,5,,,60,100
66112,note_off,,,,,64,0,8,,,,,1,,,76,100
66112,note_off,,,,,64,0,15,,,,,7,,,60,100
66144,note_on,,,,,32,0,10,,,,,3,,,74,52
66144,note_on,,,,,32,0,13,,,,,6,,,47,102
66144,note_on,,,,,32,0,12,,,,,5,,,59,102
66144,note_on,,,,,32,0,8,,,,,1,,,74,102
66144,note_on,,,,,32,0,15,,,,,7,,,59,100
66144,note_on,,,,,32,0,14,,,,,7,,,74,100
66176,note_off,,,,,128,0,9,,,,,2,,,81,100
66176,note_off,,,,,128,0,7,,,,,0,,,81,100
66208,note_off,,,,,64,0,14,,,,,7,,,74,100
66208,note_off,,,,,64,0,8,,,,,1,,,74,100
66208,note_off,,,,,64,0,13,,,,,6,,,47,100
66208,note_off,,,,,64,0,10,,,,,3,,,74,100
66208,note_off,,,,,64,0,15,,,,,7,,,59,100
66208,note_off,,,,,64,0,12,,,,,5,,,59,100
66240,note_on,,,,,64,0,9,,,,,2,,,69,53
66240,note_on,,,,,32,0,10,,,,,3,,,72,53
66240,note_on,,,,,32,0,13,,,,,6,,,45,103
66240,note_on,,,,,32,0,15,,,,,7,,,57,100
66240,note_on,,,,,32,0,8,,,,,1,,,72,103
66240,note_on,,,,,32,0,12,,,,,5,,,57,103
66240,note_on,,,,,32,0,14,,,,,7,,,72,100
66240,note_on,,,,,64,0,7,,,,,0,,,69,103
66304,note_off,,,,,64,0,15,,,,,7,,,57,100
66304,note_off,,,,,64,0,12,,,,,5,,,57,100
66304,note_off,,,,,64,0,8,,,,,1,,,72,100
66304,note_off,,,,,64,0,10,,,,,3,,,72,100
66304,note_off,,,,,64,0,13,,,,,6,,,45,100
66304,note_off,,,,,256,0,11,,,,,4,,,64,100
66304,note_off,,,,,64,0,14,,,,,7,,,72,100
66336,note_on,,,,,32,0,12,,,,,5,,,55,104
66336,note_on,,,,,32,0,15,,,,,7,,,55,100
66336,note_on,,,,,32,0,13,,,,,6,,,43,104
66336,note_on,,,,,32,0,14,,,,,7,,,71,100
66336,note_on,,,,,32,0,10,,,,,3,,,71,54
66336,note_on,,,,,32,0,8,,,,,1,,,71,104
66368,note_off,,,,,128,0,9,,,,,2,,,69,100
66368,note_off,,,,,128,0,7,,,,,0,,,69,100
66400,note_off,,,,,64,0,13,,,,,6,,,43,100
66400,note_off,,,,,64,0,12,,,,,5,,,55,100
66400,note_off,,,,,64,0,10,,,,,3,,,71,100
66400,note_off,,,,,64,0,14,,,,,7,,,71,100
66400,note_off,,,,,64,0,8,,,,,1,,,71,100
66400,note_off,,,,,64,0,15,,,,,7,,,55,100
66432,note_on,,,,,32,0,15,,,,,7,,,54,100
66432,note_on,,,,,32,0,12,,,,,5,,,54,105
66432,note_on,,,,,32,0,14,,,,,7,,,69,100
66432,note_on,,,,,32,0,13,,,,,6,,,42,105
66432,note_on,,,,,32,0,10,,,,,3,,,69,55
66432,note_on,,,,,32,0,8,,,,,1,,,69,105
66496,note_off,,,,,64,0,10,,,,,3,,,69,100
66496,note_off,,,,,64,0,12,,,,,5,,,54,100
66496,note_off,,,,,64,0,15,,,,,7,,,54,100
66496,note_off,,,,,64,0,8,,,,,1,,,69,100
66496,note_off,,,,,64,0,14,,,,,7,,,69,100
66496,note_off,,,,,64,0,13,,,,,6,,,42,100
66528,note_on,,,,,32,0,13,,,,,6,,,40,106
66528,note_on,,,,,32,0,10,,,,,3,,,67,56
66528,note_on,,,,,32,0,12,,,,,5,,,52,106
66528,note_on,,,,,32,0,15,,,,,7,,,52,100
66528,note_on,,,,,32,0,14,,,,,7,,,67,100
66528,note_on,,,,,32,0,8,,,,,1,,,67,106
66592,note_off,,,,,64,0,8,,,,,1,,,67,100
66592,note_off,,,,,64,0,13,,,,,6,,,40,100
66592,note_off,,,,,64,0,14,,,,,7,,,67,100
66592,note_off,,,,,64,0,15,,,,,7,,,52,100
66592,note_off,,,,,64,0,12,,,,,5,,,52,100
66592,note_off,,,,,64,0,10,,,,,3,,,67,100
66624,note_on,,,,,256,0,7,,,,,0,,,81,107
66624,note_on,,,,,32,0,14,,,,,7,,,66,100
66624,note_on,,,,,256,0,9,,,,,2,,,81,57
66624,note_on,,,,,32,0,12,,,,,5,,,51,107
66624,note_on,,,,,32,0,15,,,,,7,,,51,100
66624,note_on,,,,,32,0,13,,,,,6,,,39,107
66624,note_on,,,,,32,0,8,,,,,1,,,66,107
66624,note_on,,,,,32,0,10,,,,,3,,,66,57
66624,note_on,,,,,320,0,11,,,,,4,,,64,107
66688,note_off,,,,,64,0,10,,,,,3,,,66,100
66688,note_off,,,,,64,0,13,,,,,6,,,39,100
66688,note_off,,,,,64,0,15,,,,,7,,,51,100
66688,note_off,,,,,64,0,8,,,,,1,,,66,100
66688,note_off,,,,,64,0,12,,,,,5,,,51,100
66688,note_off,,,,,64,0,14,,,,,7,,,66,100
66720,note_on,,,,,32,0,15,,,,,7,,,49,100
66720,note_on,,,,,32,0,14,,,,,7,,,64,100
66720,note_on,,,,,32,0,10,,,,,3,,,64,58
66720,note_on,,,,,32,0,13,,,,,6,,,37,108
66720,note_on,,,,,32,0,8,,,,,1,,,64,108
66720,note_on,,,,,32,0,12,,,,,5,,,49,108
66752,note_off,,,,,128,0,9,,,,,2,,,81,100
66752,note_off,,,,,128,0,7,,,,,0,,,81,100
66752,note_off,,,,,128,0,11,,,,,4,,,64,100
66784,note_off,,,,,64,0,14,,,,,7,,,64,100
66784,note_off,,,,,64,0,13,,,,,6,,,37,100
66784,note_off,,,,,64,0,10,,,,,3,,,64,100
66784,note_off,,,,,64,0,15,,,,,7,,,49,100
66784,note_off,,,,,64,0,8,,,,,1,,,64,100
66784,note_off,,,,,64,0,12,,,,,5,,,49,100
66816,note_on,,,,,32,0,8,,,,,1,,,75,109
66816,note_on,,,,,64,0,7,,,,,0,,,81,109
66816,note_on,,,,,0,0,14,,,,,7,,,63,100
66816,note_on,,,,,32,0,14,,,,,7,,,69,100
66816,note_on,,,,,32,0,10,,,,,3,,,75,59
66816,note_on,,,,,64,0,9,,,,,2,,,81,59
66816,note_on,,,,,32,0,12,,,,,5,,,47,109
66816,note_on,,,,,64,0,11,,,,,4,,,66,109
66816,note_on,,,,,32,0,15,,,,,7,,,47,100
66816,note_on,,,,,32,0,13,,,,,6,,,35,109
66880,note_off,,,,,64,0,9,,,,,2,,,81,100
66880,note_off,,,,,64,0,7,,,,,0,,,81,100
66912,note_on,,,,,32,0,9,,,,,2,,,84,50
66912,note_on,,,,,32,0,7,,,,,0,,,84,100
66944,note_off,,,,,128,0,11,,,,,4,,,66,100
66976,note_off,,,,,64,0,7,,,,,0,,,84,100
66976,note_off,,,,,64,0,9,,,,,2,,,84,100
67008,note_on,,,,,32,0,9,,,,,2,,,84,50
67008,note_on,,,,,32,0,7,,,,,0,,,84,100
67008,note_on,,,,,64,0,11,,,,,4,,,71,100
67072,note_off,,,,,256,0,14,,,,,7,,,69,100
67072,note_off,,,,,64,0,7,,,,,0,,,84,100
67072,note_off,,,,,256,0,12,,,,,5,,,47,100
67072,note_off,,,,,64,0,9,,,,,2,,,84,100
67072,note_off,,,,,0,0,14,,,,,7,,,63,100
67072,note_off,,,,,256,0,15,,,,,7,,,47,100
67072,note_off,,,,,256,0,13,,,,,6,,,35,100
67072,note_off,,,,,256,0,8,,,,,1,,,75,100
67072,note_off,,,,,256,0,10,,,,,3,,,75,100
67104,note_on,,,,,32,0,7,,,,,0,,,78,100
67104,note_on,,,,,32,0,9,,,,,2,,,78,50
67136,note_off,,,,,128,0,11,,,,,4,,,71,100
67168,note_off,,,,,64,0,9,,,,,2,,,78,100
67168,note_off,,,,,64,0,7,,,,,0,,,78,100
67200,note_on,,,,,32,0,7,,,,,0,,,78,100
67200,note_on,,,,,64,0,11,,,,,4,,,59,100
67200,note_on,,,,,32,0,9,,,,,2,,,78,50
67264,note_off,,,,,64,0,9,,,,,2,,,78,100
67264,note_off,,,,,64,0,7,,,,,0,,,78,100
67296,note_on,,,,,224,0,10,,,,,3,,,84,50
67296,note_on,,,,,32,0,9,,,,,2,,,81,50
67296,note_on,,,,,32,0,7,,,,,0,,,81,100
67296,note_on,,,,,224,0,8,,,,,1,,,84,100
67360,note_off,,,,,64,0,7,,,,,0,,,81,100
67360,note_off,,,,,64,0,8,,,,,1,,,84,100
67360,note_off,,,,,64,0,10,,,,,3,,,84,100
67360,note_off,,,,,64,0,9,,,,,2,,,81,100
67392,note_on,,,,,32,0,7,,,,,0,,,81,100
67392,note_on,,,,,320,0,13,,,,,6,,,47,100
67392,note_on,,,,,0,0,14,,,,,7,,,75,100
67392,note_on,,,,,320,0,15,,,,,7,,,59,100
67392,note_on,,,,,32,0,8,,,,,1,,,84,100
67392,note_on,,,,,320,0,12,,,,,5,,,59,100
67392,note_on,,,,,32,0,10,,,,,3,,,84,50
67392,note_on,,,,,32,0,9,,,,,2,,,81,50
67392,note_on,,,,,320,0,14,,,,,7,,,66,100
67456,note_off,,,,,64,0,8,,,,,1,,,84,100
67456,note_off,,,,,64,0,10,,,,,3,,,84,100
67456,note_off,,,,,256,0,11,,,,,4,,,59,100
67456,note_off,,,,,64,0,7,,,,,0,,,81,100
67456,note_off,,,,,64,0,9,,,,,2,,,81,100
67488,note_on,,,,,32,0,10,,,,,3,,,78,50
67488,note_on,,,,,32,0,9,,,,,2,,,75,50
67488,note_on,,,,,32,0,8,,,,,1,,,78,100
67488,note_on,,,,,32,0,7,,,,,0,,,75,100
67520,note_off,,,,,128,0,14,,,,,7,,,66,100
67520,note_off,,,,,128,0,13,,,,,6,,,47,100
67520,note_off,,,,,128,0,15,,,,,7,,,59,100
67520,note_off,,,,,0,0,14,,,,,7,,,75,100
67520,note_off,,,,,128,0,12,,,,,5,,,59,100
67552,note_off,,,,,64,0,9,,,,,2,,,75,100
67552,note_off,,,,,64,0,7,,,,,0,,,75,100
67552,note_off,,,,,64,0,8,,,,,1,,,78,100
67552,note_off,,,,,64,0,10,,,,,3,,,78,100
67584,note_on,,,,,64,0,13,,,,,6,,,35,100
67584,note_on,,,,,64,0,12,,,,,5,,,47,100
67584,note_on,,,,,32,0,8,,,,,1,,,78,100
67584,note_on,,,,,32,0,9,,,,,2,,,75,50
67584,note_on,,,,,32,0,7,,,,,0,,,75,100
67584,note_on,,,,,32,0,10,,,,,3,,,78,50
67584,note_on,,,,,0,0,14,,,,,7,,,63,100
67584,note_on,,,,,64,0,14,,,,,7,,,69,100
67584,note_on,,,,,64,0,15,,,,,7,,,47,100
67648,note_off,,,,,64,0,9,,,,,2,,,75,100
67648,note_off,,,,,64,0,8,,,,,1,,,78,100
67648,note_off,,,,,64,0,7,,,,,0,,,75,100
67648,note_off,,,,,64,0,10,,,,,3,,,78,100
67680,note_on,,,,,32,0,9,,,,,2,,,78,50
67680,note_on,,,,,32,0,8,,,,,1,,,81,100
67680,note_on,,,,,32,0,7,,,,,0,,,78,100
67680,note_on,,,,,32,0,10,,,,,3,,,81,50
67744,note_off,,,,,64,0,10,,,,,3,,,81,100
67744,note_off,,,,,64,0,7,,,,,0,,,78,100
67744,note_off,,,,,64,0,8,,,,,1,,,81,100
67744,note_off,,,,,64,0,9,,,,,2,,,78,100
67776,note_on,,,,,32,0,10,,,,,3,,,81,49
67776,note_on,,,,,320,0,11,,,,,4,,,71,99
67776,note_on,,,,,32,0,8,,,,,1,,,81,99
67776,note_on,,,,,32,0,7,,,,,0,,,78,99
67776,note_on,,,,,32,0,9,,,,,2,,,78,49
67840,note_off,,,,,256,0,12,,,,,5,,,47,100
67840,note_off,,,,,64,0,7,,,,,0,,,78,100
67840,note_off,,,,,256,0,14,,,,,7,,,69,100
67840,note_off,,,,,0,0,14,,,,,7,,,63,100
67840,note_off,,,,,64,0,9,,,,,2,,,78,100
67840,note_off,,,,,64,0,8,,,,,1,,,81,100
67840,note_off,,,,,256,0,15,,,,,7,,,47,100
67840,note_off,,,,,64,0,10,,,,,3,,,81,100
67840,note_off,,,,,256,0,13,,,,,6,,,35,100
67872,note_on,,,,,32,0,8,,,,,1,,,75,98
67872,note_on,,,,,32,0,9,,,,,2,,,69,48
67872,note_on,,,,,32,0,10,,,,,3,,,75,48
67872,note_on,,,,,32,0,7,,,,,0,,,69,98
67904,note_off,,,,,128,0,11,,,,,4,,,71,100
67936,note_off,,,,,64,0,9,,,,,2,,,69,100
67936,note_off,,,,,64,0,8,,,,,1,,,75,100
67936,note_off,,,,,64,0,10,,,,,3,,,75,100
67936,note_off,,,,,64,0,7,,,,,0,,,69,100
67968,note_on,,,,,32,0,10,,,,,3,,,75,47
67968,note_on,,,,,32,0,8,,,,,1,,,75,97
67968,note_on,,,,,32,0,7,,,,,0,,,69,97
67968,note_on,,,,,64,0,11,,,,,4,,,59,97
67968,note_on,,,,,32,0,9,,,,,2,,,69,47
68032,note_off,,,,,64,0,9,,,,,2,,,69,100
68032,note_off,,,,,64,0,8,,,,,1,,,75,100
68032,note_off,,,,,64,0,7,,,,,0,,,69,100
68032,note_off,,,,,64,0,10,,,,,3,,,75,100
68064,note_on,,,,,32,0,8,,,,,1,,,78,96
68064,note_on,,,,,32,0,9,,,,,2,,,72,46
68064,note_on,,,,,32,0,7,,,,,0,,,72,96
68064,note_on,,,,,32,0,10,,,,,3,,,78,46
68128,note_off,,,,,64,0,8,,,,,1,,,78,100
68128,note_off,,,,,64,0,10,,,,,3,,,78,100
68128,note_off,,,,,64,0,9,,,,,2,,,72,100
68128,note_off,,,,,64,0,7,,,,,0,,,72,100
68160,note_on,,,,,320,0,13,,,,,6,,,47,95
68160,note_on,,,,,0,0,14,,,,,7,,,75,100
68160,note_on,,,,,32,0,10,,,,,3,,,78,45
68160,note_on,,,,,320,0,15,,,,,7,,,59,100
68160,note_on,,,,,320,0,14,,,,,7,,,66,100
68160,note_on,,,,,320,0,12,,,,,5,,,59,95
68160,note_on,,,,,32,0,8,,,,,1,,,78,95
68160,note_on,,,,,32,0,9,,,,,2,,,72,45
68160,note_on,,,,,32,0,7,,,,,0,,,72,95
68224,note_off,,,,,64,0,10,,,,,3,,,78,100
68224,note_off,,,,,64,0,8,,,,,1,,,78,100
68224,note_off,,,,,64,0,9,,,,,2,,,72,100
68224,note_off,,,,,256,0,11,,,,,4,,,59,100
68224,note_off,,,,,64,0,7,,,,,0,,,72,100
68256,note_on,,,,,32,0,8,,,,,1,,,69,94
68256,note_on,,,,,32,0,9,,,,,2,,,66,44
68256,note_on,,,,,32,0,7,,,,,0,,,66,94
68256,note_on,,,,,32,0,10,,,,,3,,,69,44
68288,note_off,,,,,128,0,13,,,,,6,,,47,100
68288,note_off,,,,,128,0,12,,,,,5,,,59,100
68288,note_off,,,,,0,0,14,,,,,7,,,75,100
68288,note_off,,,,,128,0,14,,,,,7,,,66,100
68288,note_off,,,,,128,0,15,,,,,7,,,59,100
68320,note_off,,,,,64,0,9,,,,,2,,,66,100
68320,note_off,,,,,64,0,7,,,,,0,,,66,100
68320,note_off,,,,,64,0,10,,,,,3,,,69,100
68320,note_off,,,,,64,0,8,,,,,1,,,69,100
68352,note_on,,,,,64,0,12,,,,,5,,,47,93
68352,note_on,,,,,32,0,7,,,,,0,,,66,93
68352,note_on,,,,,32,0,10,,,,,3,,,69,43
68352,note_on,,,,,0,0,14,,,,,7,,,63,100
68352,note_on,,,,,64,0,13,,,,,6,,,35,93
68352,note_on,,,,,64,0,14,,,,,7,,,69,100
68352,note_on,,,,,64,0,15,,,,,7,,,47,100
68352,note_on,,,,,32,0,9,,,,,2,,,66,43
68352,note_on,,,,,32,0,8,,,,,1,,,69,93
68416,note_off,,,,,64,0,8,,,,,1,,,69,100
68416,note_off,,,,,64,0,10,,,,,3,,,69,100
68416,note_off,,,,,64,0,9,,,,,2,,,66,100
68416,note_off,,,,,64,0,7,,,,,0,,,66,100
68448,note_on,,,,,32,0,10,,,,,3,,,72,42
68448,note_on,,,,,32,0,8,,,,,1,,,72,92
68448,note_on,,,,,32,0,9,,,,,2,,,69,42
68448,note_on,,,,,32,0,7,,,,,0,,,69,92
68512,note_off,,,,,64,0,10,,,,,3,,,72,100
68512,note_off,,,,,64,0,8,,,,,1,,,72,100
68512,note_off,,,,,64,0,7,,,,,0,,,69,100
68512,note_off,,,,,64,0,9,,,,,2,,,69,100
68544,note_on,,,,,320,0,11,,,,,4,,,71,91
68544,note_on,,,,,32,0,8,,,,,1,,,72,91
68544,note_on,,,,,32,0,7,,,,,0,,,69,91
68544,note_on,,,,,32,0,9,,,,,2,,,69,41
68544,note_on,,,,,32,0,10,,,,,3,,,72,41
68608,note_off,,,,,256,0,14,,,,,7,,,69,100
68608,note_off,,,,,64,0,8,,,,,1,,,72,100
68608,note_off,,,,,256,0,12,,,,,5,,,47,100
68608,note_off,,,,,64,0,7,,,,,0,,,69,100
68608,note_off,,,,,64,0,9,,,,,2,,,69,100
68608,note_off,,,,,256,0,13,,,,,6,,,35,100
68608,note_off,,,,,64,0,10,,,,,3,,,72,100
68608,note_off,,,,,0,0,14,,,,,7,,,63,100
68608,note_off,,,,,256,0,15,,,,,7,,,47,100
68640,note_on,,,,,32,0,9,,,,,2,,,63,40
68640,note_on,,,,,32,0,8,,,,,1,,,66,90
68640,note_on,,,,,32,0,10,,,,,3,,,66,40
68640,note_on,,,,,32,0,7,,,,,0,,,63,90
68672,note_off,,,,,128,0,11,,,,,4,,,71,100
68704,note_off,,,,,64,0,8,,,,,1,,,66,100
68704,note_off,,,,,64,0,7,,,,,0,,,63,100
68704,note_off,,,,,64,0,10,,,,,3,,,66,100
68704,note_off,,,,,64,0,9,,,,,2,,,63,100
68736,note_on,,,,,32,0,10,,,,,3,,,66,39
68736,note_on,,,,,64,0,11,,,,,4,,,59,89
68736,note_on,,,,,32,0,9,,,,,2,,,63,39
68736,note_on,,,,,32,0,7,,,,,0,,,63,89
68736,note_on,,,,,32,0,8,,,,,1,,,66,89
68800,note_off,,,,,64,0,10,,,,,3,,,66,100
68800,note_off,,,,,64,0,9,,,,,2,,,63,100
68800,note_off,,,,,64,0,8,,,,,1,,,66,100
68800,note_off,,,,,64,0,7,,,,,0,,,63,100
68832,note_on,,,,,32,0,8,,,,,1,,,69,88
68832,note_on,,,,,32,0,9,,,,,2,,,66,38
68832,note_on,,,,,32,0,7,,,,,0,,,66,88
68832,note_on,,,,,32,0,10,,,,,3,,,69,38
68896,note_off,,,,,64,0,9,,,,,2,,,66,100
68896,note_off,,,,,64,0,8,,,,,1,,,69,100
68896,note_off,,,,,64,0,7,,,,,0,,,66,100
68896,note_off,,,,,64,0,10,,,,,3,,,69,100
68928,note_on,,,,,32,0,10,,,,,3,,,69,37
68928,note_on,,,,,320,0,14,,,,,7,,,66,100
68928,note_on,,,,,32,0,8,,,,,1,,,69,87
68928,note_on,,,,,320,0,12,,,,,5,,,59,87
68928,note_on,,,,,320,0,13,,,,,6,,,47,87
68928,note_on,,,,,320,0,15,,,,,7,,,59,100
68928,note_on,,,,,0,0,14,,,,,7,,,75,100
68928,note_on,,,,,32,0,9,,,,,2,,,66,37
68928,note_on,,,,,32,0,7,,,,,0,,,66,87
68992,note_off,,,,,64,0,8,,,,,1,,,69,100
68992,note_off,,,,,64,0,10,,,,,3,,,69,100
68992,note_off,,,,,64,0,9,,,,,2,,,66,100
68992,note_off,,,,,256,0,11,,,,,4,,,59,100
68992,note_off,,,,,64,0,7,,,,,0,,,66,100
69024,note_on,,,,,32,0,10,,,,,3,,,63,36
69024,note_on,,,,,32,0,8,,,,,1,,,63,86
69024,note_on,,,,,32,0,9,,,,,2,,,59,36
69024,note_on,,,,,32,0,7,,,,,0,,,59,86
69056,note_off,,,,,128,0,14,,,,,7,,,66,100
69056,note_off,,,,,0,0,14,,,,,7,,,75,100
69056,note_off,,,,,128,0,13,,,,,6,,,47,100
69056,note_off,,,,,128,0,12,,,,,5,,,59,100
69056,note_off,,,,,128,0,15,,,,,7,,,59,100
69088,note_off,,,,,64,0,9,,,,,2,,,59,100
69088,note_off,,,,,64,0,8,,,,,1,,,63,100
69088,note_off,,,,,64,0,7,,,,,0,,,59,100
69088,note_off,,,,,64,0,10,,,,,3,,,63,100
69120,note_on,,,,,32,0,7,,,,,0,,,59,86
69120,note_on,,,,,64,0,15,,,,,7,,,47,100
69120,note_on,,,,,0,0,14,,,,,7,,,69,100
69120,note_on,,,,,64,0,12,,,,,5,,,47,86
69120,note_on,,,,,32,0,10,,,,,3,,,63,36
69120,note_on,,,,,64,0,14,,,,,7,,,63,100
69120,note_on,,,,,64,0,13,,,,,6,,,35,86
69120,note_on,,,,,32,0,9,,,,,2,,,59,36
69120,note_on,,,,,32,0,8,,,,,1,,,63,86
69120,note_on,,,,,128,0,11,,,,,4,,,66,86
69376,note_off,,,,,256,0,11,,,,,4,,,66,100
69376,note_off,,,,,256,0,12,,,,,5,,,47,100
69376,note_off,,,,,256,0,10,,,,,3,,,63,100
69376,note_off,,,,,256,0,9,,,,,2,,,59,100
69376,note_off,,,,,0,0,14,,,,,7,,,69,100
69376,note_off,,,,,256,0,14,,,,,7,,,63,100
69376,note_off,,,,,256,0,7,,,,,0,,,59,100
69376,note_off,,,,,256,0,15,,,,,7,,,47,100
69376,note_off,,,,,256,0,8,,,,,1,,,63,100
69376,note_off,,,,,256,0,13,,,,,6,,,35,100
69696,note_on,,,,,0,0,14,,,,,7,,,71,100
69696,note_on,,,,,320,0,9,,,,,2,,,78,50
69696,note_on,,,,,320,0,7,,,,,0,,,78,100
69696,note_on,,,,,320,0,14,,,,,7,,,69,100
69696,note_on,,,,,320,0,10,,,,,3,,,83,50
69696,note_on,,,,,320,0,13,,,,,6,,,39,100
69696,note_on,,,,,320,0,8,,,,,1,,,83,100
69696,note_on,,,,,320,0,11,,,,,4,,,66,100
69696,note_on,,,,,320,0,15,,,,,7,,,51,100
69696,note_on,,,,,320,0,12,,,,,5,,,51,100
69824,note_off,,,,,128,0,15,,,,,7,,,51,100
69824,note_off,,,,,128,0,9,,,,,2,,,78,100
69824,note_off,,,,,128,0,12,,,,,5,,,51,100
69824,note_off,,,,,128,0,14,,,,,7,,,71,100
69824,note_off,,,,,128,0,8,,,,,1,,,83,100
69824,note_off,,,,,128,0,11,,,,,4,,,66,100
69824,note_off,,,,,128,0,13,,,,,6,,,39,100
69824,note_off,,,,,128,0,7,,,,,0,,,78,100
69824,note_off,,,,,128,0,10,,,,,3,,,83,100
69888,note_on,,,,,64,0,7,,,,,0,,,79,100
69888,note_on,,,,,64,0,10,,,,,3,,,83,50
69888,note_on,,,,,64,0,8,,,,,1,,,83,100
69888,note_on,,,,,0,0,14,,,,,7,,,71,100
69888,note_on,,,,,64,0,13,,,,,6,,,40,100
69888,note_on,,,,,64,0,9,,,,,2,,,79,50
69888,note_on,,,,,64,0,15,,,,,7,,,52,100
69888,note_on,,,,,64,0,14,,,,,7,,,67,100
69888,note_on,,,,,64,0,11,,,,,4,,,59,100
69888,note_on,,,,,64,0,12,,,,,5,,,52,100
69952,note_off,,,,,64,0,14,,,,,7,,,69,100
70016,note_off,,,,,128,0,7,,,,,0,,,79,100
70016,note_off,,,,,128,0,10,,,,,3,,,83,100
70016,note_off,,,,,128,0,9,,,,,2,,,79,100
70016,note_off,,,,,128,0,8,,,,,1,,,83,100
70080,note_on,,,,,64,0,8,,,,,1,,,81,100
70080,note_on,,,,,64,0,10,,,,,3,,,81,50
70080,note_on,,,,,64,0,7,,,,,0,,,78,100
70080,note_on,,,,,64,0,9,,,,,2,,,78,50
70144,note_off,,,,,192,0,14,,,,,7,,,67,100
70144,note_off,,,,,256,0,11,,,,,4,,,59,100
70144,note_off,,,,,64,0,7,,,,,0,,,78,100
70144,note_off,,,,,256,0,12,,,,,5,,,52,100
70144,note_off,,,,,64,0,9,,,,,2,,,78,100
70144,note_off,,,,,256,0,13,,,,,6,,,40,100
70144,note_off,,,,,0,0,14,,,,,7,,,71,100
70144,note_off,,,,,64,0,10,,,,,3,,,81,100
70144,note_off,,,,,256,0,15,,,,,7,,,52,100
70144,note_off,,,,,64,0,8,,,,,1,,,81,100
70176,note_on,,,,,32,0,10,,,,,3,,,79,50
70176,note_on,,,,,32,0,7,,,,,0,,,76,100
70176,note_on,,,,,32,0,8,,,,,1,,,79,100
70176,note_on,,,,,32,0,9,,,,,2,,,76,50
70240,note_off,,,,,64,0,7,,,,,0,,,76,100
70240,note_off,,,,,64,0,8,,,,,1,,,79,100
70240,note_off,,,,,64,0,9,,,,,2,,,76,100
70240,note_off,,,,,64,0,10,,,,,3,,,79,100
70272,note_on,,,,,128,0,15,,,,,7,,,59,100
70272,note_on,,,,,32,0,8,,,,,1,,,78,100
70272,note_on,,,,,128,0,13,,,,,6,,,47,100
70272,note_on,,,,,128,0,14,,,,,7,,,66,100
70272,note_on,,,,,0,0,14,,,,,7,,,75,100
70272,note_on,,,,,32,0,9,,,,,2,,,75,50
70272,note_on,,,,,128,0,11,,,,,4,,,59,100
70272,note_on,,,,,128,0,12,,,,,5,,,59,100
70272,note_on,,,,,32,0,7,,,,,0,,,75,100
70272,note_on,,,,,32,0,10,,,,,3,,,78,50
70316,note_off,,,,,44,0,7,,,,,0,,,75,100
70316,note_off,,,,,44,0,9,,,,,2,,,75,100
70320,note_on,,,,,4,0,7,,,,,0,,,76,100
70320,note_on,,,,,4,0,9,,,,,2,,,76,50
70364,note_off,,,,,44,0,7,,,,,0,,,76,100
70364,note_off,,,,,44,0,9,,,,,2,,,76,100
70368,note_on,,,,,4,0,9,,,,,2,,,75,50
70368,note_on,,,,,4,0,7,,,,,0,,,75,100
70400,note_off,,,,,128,0,8,,,,,1,,,78,100
70400,note_off,,,,,128,0,10,,,,,3,,,78,100
70412,note_off,,,,,44,0,7,,,,,0,,,75,100
70412,note_off,,,,,44,0,9,,,,,2,,,75,100
70416,note_on,,,,,4,0,9,,,,,2,,,76,50
70416,note_on,,,,,4,0,7,,,,,0,,,76,100
70460,note_off,,,,,44,0,9,,,,,2,,,76,100
70460,note_off,,,,,44,0,7,,,,,0,,,76,100
70464,note_on,,,,,64,0,10,,,,,3,,,83,50
70464,note_on,,,,,4,0,9,,,,,2,,,75,50
70464,note_on,,,,,4,0,7,,,,,0,,,75,100
70464,note_on,,,,,64,0,8,,,,,1,,,83,100
70528,note_off,,,,,64,0,7,,,,,0,,,75,100
70528,note_off,,,,,256,0,13,,,,,6,,,47,100
70528,note_off,,,,,64,0,9,,,,,2,,,75,100
70528,note_off,,,,,256,0,11,,,,,4,,,59,100
70528,note_off,,,,,256,0,14,,,,,7,,,66,100
70528,note_off,,,,,0,0,14,,,,,7,,,75,100
70528,note_off,,,,,256,0,12,,,,,5,,,59,100
70528,note_off,,,,,256,0,15,,,,,7,,,59,100
70560,note_on,,,,,32,0,7,,,,,0,,,76,100
70560,note_on,,,,,32,0,9,,,,,2,,,76,50
70592,note_off,,,,,128,0,10,,,,,3,,,83,100
70592,note_off,,,,,128,0,8,,,,,1,,,83,100
70624,note_off,,,,,64,0,7,,,,,0,,,76,100
70624,note_off,,,,,64,0,9,,,,,2,,,76,100
70656,note_on,,,,,64,0,8,,,,,1,,,79,100
70656,note_on,,,,,64,0,10,,,,,3,,,79,50
70656,note_on,,,,,32,0,9,,,,,2,,,76,50
70656,note_on,,,,,128,0,13,,,,,6,,,40,100
70656,note_on,,,,,32,0,7,,,,,0,,,76,100
70656,note_on,,,,,128,0,11,,,,,4,,,59,100
70656,note_on,,,,,128,0,12,,,,,5,,,52,100
70656,note_on,,,,,128,0,14,,,,,7,,,71,100
70656,note_on,,,,,128,0,15,,,,,7,,,52,100
70656,note_on,,,,,0,0,14,,,,,7,,,67,100
70912,note_off,,,,,256,0,9,,,,,2,,,76,100
70912,note_off,,,,,256,0,13,,,,,6,,,40,100
70912,note_off,,,,,256,0,7,,,,,0,,,76,100
70912,note_off,,,,,256,0,10,,,,,3,,,79,100
70912,note_off,,,,,256,0,11,,,,,4,,,59,100
70912,note_off,,,,,256,0,12,,,,,5,,,52,100
70912,note_off,,,,,256,0,8,,,,,1,,,79,100
70912,note_off,,,,,256,0,15,,,,,7,,,52,100
70912,note_off,,,,,0,0,14,,,,,7,,,67,100
70912,note_off,,,,,256,0,14,,,,,7,,,71,100
71232,note_on,,,,,0,0,14,,,,,7,,,69,100
71232,note_on,,,,,320,0,11,,,,,4,,,64,100
71232,note_on,,,,,320,0,12,,,,,5,,,49,100
71232,note_on,,,,,320,0,10,,,,,3,,,81,50
71232,note_on,,,,,320,0,13,,,,,6,,,37,100
71232,note_on,,,,,320,0,9,,,,,2,,,76,50
71232,note_on,,,,,320,0,8,,,,,1,,,81,100
71232,note_on,,,,,320,0,7,,,,,0,,,76,100
71232,note_on,,,,,320,0,15,,,,,7,,,49,100
71232,note_on,,,,,320,0,14,,,,,7,,,67,100
71360,note_off,,,,,128,0,11,,,,,4,,,64,100
71360,note_off,,,,,0,0,14,,,,,7,,,69,100
71360,note_off,,,,,128,0,13,,,,,6,,,37,100
71360,note_off,,,,,128,0,14,,,,,7,,,67,100
71360,note_off,,,,,128,0,7,,,,,0,,,76,100
71360,note_off,,,,,128,0,8,,,,,1,,,81,100
71360,note_off,,,,,128,0,9,,,,,2,,,76,100
71360,note_off,,,,,128,0,10,,,,,3,,,81,100
71360,note_off,,,,,128,0,15,,,,,7,,,49,100
71360,note_off,,,,,128,0,12,,,,,5,,,49,100
71424,note_on,,,,,64,0,13,,,,,6,,,38,100
71424,note_on,,,,,0,0,14,,,,,7,,,69,100
71424,note_on,,,,,64,0,10,,,,,3,,,81,50
71424,note_on,,,,,64,0,15,,,,,7,,,50,100
71424,note_on,,,,,64,0,12,,,,,5,,,50,100
71424,note_on,,,,,64,0,9,,,,,2,,,77,50
71424,note_on,,,,,64,0,11,,,,,4,,,57,100
71424,note_on,,,,,64,0,7,,,,,0,,,77,100
71424,note_on,,,,,64,0,8,,,,,1,,,81,100
71424,note_on,,,,,64,0,14,,,,,7,,,65,100
71552,note_off,,,,,128,0,7,,,,,0,,,77,100
71552,note_off,,,,,128,0,10,,,,,3,,,81,100
71552,note_off,,,,,128,0,8,,,,,1,,,81,100
71552,note_off,,,,,128,0,9,,,,,2,,,77,100
71616,note_on,,,,,64,0,9,,,,,2,,,76,50
71616,note_on,,,,,64,0,7,,,,,0,,,76,100
71616,note_on,,,,,64,0,10,,,,,3,,,79,50
71616,note_on,,,,,64,0,8,,,,,1,,,79,100
71680,note_off,,,,,64,0,7,,,,,0,,,76,100
71680,note_off,,,,,256,0,13,,,,,6,,,38,100
71680,note_off,,,,,256,0,11,,,,,4,,,57,100
71680,note_off,,,,,64,0,8,,,,,1,,,79,100
71680,note_off,,,,,256,0,15,,,,,7,,,50,100
71680,note_off,,,,,64,0,10,,,,,3,,,79,100
71680,note_off,,,,,256,0,14,,,,,7,,,65,100
71680,note_off,,,,,0,0,14,,,,,7,,,69,100
71680,note_off,,,,,64,0,9,,,,,2,,,76,100
71680,note_off,,,,,256,0,12,,,,,5,,,50,100
71712,note_on,,,,,32,0,10,,,,,3,,,77,50
71712,note_on,,,,,32,0,9,,,,,2,,,74,50
71712,note_on,,,,,32,0,8,,,,,1,,,77,100
71712,note_on,,,,,32,0,7,,,,,0,,,74,100
71776,note_off,,,,,64,0,10,,,,,3,,,77,100
71776,note_off,,,,,64,0,9,,,,,2,,,74,100
71776,note_off,,,,,64,0,8,,,,,1,,,77,100
71776,note_off,,,,,64,0,7,,,,,0,,,74,100
71808,note_on,,,,,128,0,11,,,,,4,,,57,100
71808,note_on,,,,,32,0,8,,,,,1,,,76,100
71808,note_on,,,,,128,0,15,,,,,7,,,57,100
71808,note_on,,,,,128,0,13,,,,,6,,,45,100
71808,note_on,,,,,128,0,14,,,,,7,,,64,100
71808,note_on,,,,,0,0,14,,,,,7,,,73,100
71808,note_on,,,,,32,0,10,,,,,3,,,76,50
71808,note_on,,,,,128,0,12,,,,,5,,,57,100
71808,note_on,,,,,32,0,9,,,,,2,,,73,50
71808,note_on,,,,,32,0,7,,,,,0,,,73,100
71852,note_off,,,,,44,0,9,,,,,2,,,73,100
71852,note_off,,,,,44,0,7,,,,,0,,,73,100
71856,note_on,,,,,4,0,7,,,,,0,,,74,100
71856,note_on,,,,,4,0,9,,,,,2,,,74,50
71900,note_off,,,,,44,0,7,,,,,0,,,74,100
71900,note_off,,,,,44,0,9,,,,,2,,,74,100
71904,note_on,,,,,4,0,7,,,,,0,,,73,100
71904,note_on,,,,,4,0,9,,,,,2,,,73,50
71936,note_off,,,,,128,0,10,,,,,3,,,76,100
71936,note_off,,,,,128,0,8,,,,,1,,,76,100
71948,note_off,,,,,44,0,9,,,,,2,,,73,100
71948,note_off,,,,,44,0,7,,,,,0,,,73,100
71952,note_on,,,,,4,0,9,,,,,2,,,74,50
71952,note_on,,,,,4,0,7,,,,,0,,,74,100
71996,note_off,,,,,44,0,7,,,,,0,,,74,100
71996,note_off,,,,,44,0,9,,,,,2,,,74,100
72000,note_on,,,,,64,0,10,,,,,3,,,81,50
72000,note_on,,,,,64,0,8,,,,,1,,,81,100
72000,note_on,,,,,4,0,7,,,,,0,,,73,100
72000,note_on,,,,,4,0,9,,,,,2,,,73,50
72064,note_off,,,,,256,0,11,,,,,4,,,57,100
72064,note_off,,,,,256,0,12,,,,,5,,,57,100
72064,note_off,,,,,256,0,13,,,,,6,,,45,100
72064,note_off,,,,,0,0,14,,,,,7,,,73,100
72064,note_off,,,,,64,0,9,,,,,2,,,73,100
72064,note_off,,,,,256,0,14,,,,,7,,,64,100
72064,note_off,,,,,256,0,15,,,,,7,,,57,100
72064,note_off,,,,,64,0,7,,,,,0,,,73,100
72096,note_on,,,,,32,0,7,,,,,0,,,74,100
72096,note_on,,,,,32,0,9,,,,,2,,,74,50
72128,note_off,,,,,128,0,8,,,,,1,,,81,100
72128,note_off,,,,,128,0,10,,,,,3,,,81,100
72160,note_off,,,,,64,0,7,,,,,0,,,74,100
72160,note_off,,,,,64,0,9,,,,,2,,,74,100
72184,program_change,,,,,24,0,7,,,,,0,40,,,
72184,program_change,,,,,56,0,8,,,,,1,40,,,
72192,note_on,,,,,8,0,8,,,,,1,,,77,100
72192,note_on,,,,,128,0,13,,,,,6,,,38,100
72192,note_on,,,,,32,0,9,,,,,2,,,74,100
72192,note_on,,,,,128,0,14,,,,,7,,,65,100
72192,note_on,,,,,128,0,11,,,,,4,,,57,100
72192,note_on,,,,,64,0,10,,,,,3,,,77,100
72192,note_on,,,,,128,0,15,,,,,7,,,50,100
72192,note_on,,,,,0,0,14,,,,,7,,,69,100
72192,note_on,,,,,128,0,12,,,,,5,,,50,100
72192,note_on,,,,,8,0,7,,,,,0,,,74,100
72256,note_off,,,,,64,0,8,,,,,1,,,77,100
72288,note_on,,,,,32,0,8,,,,,1,,,69,100
72320,note_off,,,,,128,0,7,,,,,0,,,74,100
72352,note_off,,,,,64,0,8,,,,,1,,,69,100
72384,note_on,,,,,64,0,7,,,,,0,,,74,100
72384,note_on,,,,,32,0,8,,,,,1,,,74,100
72448,note_off,,,,,256,0,13,,,,,6,,,38,100
72448,note_off,,,,,64,0,8,,,,,1,,,74,100
72448,note_off,,,,,0,0,14,,,,,7,,,69,100
72448,note_off,,,,,256,0,14,,,,,7,,,65,100
72448,note_off,,,,,256,0,12,,,,,5,,,50,100
72448,note_off,,,,,256,0,10,,,,,3,,,77,100
72448,note_off,,,,,256,0,15,,,,,7,,,50,100
72448,note_off,,,,,256,0,9,,,,,2,,,74,100
72448,note_off,,,,,256,0,11,,,,,4,,,57,100
72480,note_on,,,,,32,0,8,,,,,1,,,69,100
72512,note_off,,,,,128,0,7,,,,,0,,,74,100
72544,note_off,,,,,64,0,8,,,,,1,,,69,100
72576,note_on,,,,,32,0,8,,,,,1,,,74,100
72576,note_on,,,,,64,0,7,,,,,0,,,74,100
72640,note_off,,,,,64,0,8,,,,,1,,,74,100
72640,note_off,,,,,64,0,7,,,,,0,,,74,100
72672,note_on,,,,,32,0,8,,,,,1,,,69,100
72672,note_on,,,,,32,0,7,,,,,0,,,76,100
72736,note_off,,,,,64,0,7,,,,,0,,,76,100
72736,note_off,,,,,64,0,8,,,,,1,,,69,100
72768,note_on,,,,,32,0,7,,,,,0,,,74,100
72768,note_on,,,,,32,0,8,,,,,1,,,74,100
72832,note_off,,,,,64,0,8,,,,,1,,,74,100
72864,note_on,,,,,32,0,8,,,,,1,,,69,100
72896,note_off,,,,,128,0,7,,,,,0,,,74,100
72928,note_off,,,,,64,0,8,,,,,1,,,69,100
72960,note_on,,,,,32,0,8,,,,,1,,,73,100
73024,note_off,,,,,64,0,8,,,,,1,,,73,100
73056,note_on,,,,,32,0,8,,,,,1,,,69,100
73120,note_off,,,,,64,0,8,,,,,1,,,69,100
73152,note_on,,,,,256,0,7,,,,,0,,,76,100
73152,note_on,,,,,32,0,8,,,,,1,,,73,100
73216,note_off,,,,,64,0,8,,,,,1,,,73,100
73248,note_on,,,,,32,0,8,,,,,1,,,69,100
73280,note_off,,,,,128,0,7,,,,,0,,,76,100
73312,note_off,,,,,64,0,8,,,,,1,,,69,100
73344,note_on,,,,,64,0,7,,,,,0,,,76,100
73344,note_on,,,,,32,0,8,,,,,1,,,73,100
73408,note_off,,,,,64,0,8,,,,,1,,,73,100
73408,note_off,,,,,64,0,7,,,,,0,,,76,100
73440,note_on,,,,,32,0,7,,,,,0,,,77,100
73440,note_on,,,,,32,0,8,,,,,1,,,69,100
73504,note_off,,,,,64,0,7,,,,,0,,,77,100
73504,note_off,,,,,64,0,8,,,,,1,,,69,100
73536,note_on,,,,,32,0,8,,,,,1,,,73,100
73536,note_on,,,,,32,0,7,,,,,0,,,76,100
73600,note_off,,,,,64,0,8,,,,,1,,,73,100
73632,note_on,,,,,32,0,8,,,,,1,,,69,100
73664,note_off,,,,,128,0,7,,,,,0,,,76,100
73696,note_off,,,,,64,0,8,,,,,1,,,69,100
73728,note_on,,,,,32,0,8,,,,,1,,,74,100
73792,note_off,,,,,64,0,8,,,,,1,,,74,100
73824,note_on,,,,,32,0,8,,,,,1,,,69,100
73888,note_off,,,,,64,0,8,,,,,1,,,69,100
73920,note_on,,,,,32,0,8,,,,,1,,,74,100
73920,note_on,,,,,256,0,7,,,,,0,,,77,100
73984,note_off,,,,,64,0,8,,,,,1,,,74,100
74016,note_on,,,,,32,0,8,,,,,1,,,69,100
74048,note_off,,,,,128,0,7,,,,,0,,,77,100
74080,note_off,,,,,64,0,8,,,,,1,,,69,100
74112,note_on,,,,,64,0,7,,,,,0,,,77,100
74112,note_on,,,,,32,0,8,,,,,1,,,74,100
74176,note_off,,,,,64,0,7,,,,,0,,,77,100
74176,note_off,,,,,64,0,8,,,,,1,,,74,100
74208,note_on,,,,,32,0,7,,,,,0,,,79,100
74208,note_on,,,,,32,0,8,,,,,1,,,69,100
74272,note_off,,,,,64,0,7,,,,,0,,,79,100
74272,note_off,,,,,64,0,8,,,,,1,,,69,100
74304,note_on,,,,,32,0,7,,,,,0,,,77,100
74304,note_on,,,,,32,0,8,,,,,1,,,74,100
74368,note_off,,,,,64,0,8,,,,,1,,,74,100
74400,note_on,,,,,32,0,8,,,,,1,,,69,100
74432,note_off,,,,,128,0,7,,,,,0,,,77,100
74464,note_off,,,,,64,0,8,,,,,1,,,69,100
74496,note_on,,,,,32,0,8,,,,,1,,,76,100
74560,note_off,,,,,64,0,8,,,,,1,,,76,100
74592,note_on,,,,,32,0,8,,,,,1,,,69,100
74656,note_off,,,,,64,0,8,,,,,1,,,69,100
74688,note_on,,,,,256,0,7,,,,,0,,,79,100
74688,note_on,,,,,32,0,8,,,,,1,,,76,100
74752,note_off,,,,,64,0,8,,,,,1,,,76,100
74784,note_on,,,,,32,0,8,,,,,1,,,69,100
74816,note_off,,,,,128,0,7,,,,,0,,,79,100
74848,note_off,,,,,64,0,8,,,,,1,,,69,100
74880,note_on,,,,,64,0,7,,,,,0,,,79,100
74880,note_on,,,,,32,0,8,,,,,1,,,76,100
74944,note_off,,,,,64,0,7,,,,,0,,,79,100
74944,note_off,,,,,64,0,8,,,,,1,,,76,100
74976,note_on,,,,,32,0,8,,,,,1,,,69,100
74976,note_on,,,,,32,0,7,,,,,0,,,81,100
75040,note_off,,,,,64,0,8,,,,,1,,,69,100
75040,note_off,,,,,64,0,7,,,,,0,,,81,100
75072,note_on,,,,,32,0,8,,,,,1,,,76,100
75072,note_on,,,,,32,0,7,,,,,0,,,79,100
75136,note_off,,,,,64,0,8,,,,,1,,,76,100
75168,note_on,,,,,32,0,8,,,,,1,,,69,100
75200,note_off,,,,,128,0,7,,,,,0,,,79,100
75232,note_off,,,,,64,0,8,,,,,1,,,69,100
75264,note_on,,,,,32,0,8,,,,,1,,,77,100
75264,note_on,,,,,64,0,7,,,,,0,,,81,100
75328,note_off,,,,,64,0,8,,,,,1,,,77,100
75360,note_on,,,,,32,0,8,,,,,1,,,69,100
75424,note_off,,,,,64,0,8,,,,,1,,,69,100
75456,note_on,,,,,32,0,8,,,,,1,,,77,100
75520,note_off,,,,,64,0,8,,,,,1,,,77,100
75552,note_on,,,,,32,0,8,,,,,1,,,69,100
75616,note_off,,,,,64,0,8,,,,,1,,,69,100
75648,note_off,,,,,384,0,7,,,,,0,,,81,100
75648,note_on,,,,,32,0,8,,,,,1,,,77,100
75712,note_off,,,,,64,0,8,,,,,1,,,77,100
75744,note_on,,,,,96,0,7,,,,,0,,,79,100
75744,note_on,,,,,32,0,8,,,,,1,,,69,100
75808,note_off,,,,,64,0,7,,,,,0,,,79,100
75808,note_off,,,,,64,0,8,,,,,1,,,69,100
75840,note_on,,,,,32,0,7,,,,,0,,,81,100
75840,note_on,,,,,32,0,8,,,,,1,,,77,100
75904,note_off,,,,,64,0,8,,,,,1,,,77,100
75904,note_off,,,,,64,0,7,,,,,0,,,81,100
75936,note_on,,,,,32,0,8,,,,,1,,,69,100
75936,note_on,,,,,32,0,7,,,,,0,,,82,100
76000,note_off,,,,,64,0,8,,,,,1,,,69,100
76000,note_off,,,,,64,0,7,,,,,0,,,82,100
76032,note_on,,,,,32,0,8,,,,,1,,,76,100
76032,note_on,,,,,32,0,7,,,,,0,,,79,100
76096,note_off,,,,,64,0,8,,,,,1,,,76,100
76128,note_on,,,,,32,0,8,,,,,1,,,69,100
76192,note_off,,,,,64,0,8,,,,,1,,,69,100
76224,note_on,,,,,32,0,8,,,,,1,,,76,100
76288,note_off,,,,,64,0,8,,,,,1,,,76,100
76320,note_on,,,,,32,0,8,,,,,1,,,69,100
76384,note_off,,,,,64,0,8,,,,,1,,,69,100
76416,note_off,,,,,384,0,7,,,,,0,,,79,100
76416,note_on,,,,,32,0,8,,,,,1,,,76,100
76480,note_off,,,,,64,0,8,,,,,1,,,76,100
76512,note_on,,,,,32,0,8,,,,,1,,,69,100
76512,note_on,,,,,96,0,7,,,,,0,,,77,100
76576,note_off,,,,,64,0,8,,,,,1,,,69,100
76576,note_off,,,,,64,0,7,,,,,0,,,77,100
76608,note_on,,,,,32,0,7,,,,,0,,,79,100
76608,note_on,,,,,32,0,8,,,,,1,,,76,100
76672,note_off,,,,,64,0,8,,,,,1,,,76,100
76672,note_off,,,,,64,0,7,,,,,0,,,79,100
76704,note_on,,,,,32,0,8,,,,,1,,,69,100
76704,note_on,,,,,32,0,7,,,,,0,,,81,100
76768,note_off,,,,,64,0,8,,,,,1,,,69,100
76768,note_off,,,,,64,0,7,,,,,0,,,81,100
76800,note_on,,,,,32,0,8,,,,,1,,,74,100
76800,note_on,,,,,32,0,7,,,,,0,,,77,100
76864,note_off,,,,,64,0,8,,,,,1,,,74,100
76896,note_on,,,,,32,0,8,,,,,1,,,62,100
76928,note_off,,,,,128,0,7,,,,,0,,,77,100
76960,note_off,,,,,64,0,8,,,,,1,,,62,100
76992,note_on,,,,,64,0,7,,,,,0,,,76,100
76992,note_on,,,,,32,0,8,,,,,1,,,65,100
77056,note_off,,,,,64,0,7,,,,,0,,,76,100
77056,note_off,,,,,64,0,8,,,,,1,,,65,100
77088,note_on,,,,,32,0,7,,,,,0,,,74,100
77088,note_on,,,,,32,0,8,,,,,1,,,67,100
77152,note_off,,,,,64,0,7,,,,,0,,,74,100
77152,note_off,,,,,64,0,8,,,,,1,,,67,100
77184,note_on,,,,,32,0,7,,,,,0,,,73,100
77184,note_on,,,,,32,0,8,,,,,1,,,69,100
77228,note_off,,,,,44,0,7,,,,,0,,,73,100
77232,note_on,,,,,4,0,7,,,,,0,,,74,100
77248,note_off,,,,,64,0,8,,,,,1,,,69,100
77276,note_off,,,,,44,0,7,,,,,0,,,74,100
77280,note_on,,,,,4,0,7,,,,,0,,,73,100
77280,note_on,,,,,32,0,8,,,,,1,,,67,100
77324,note_off,,,,,44,0,7,,,,,0,,,73,100
77328,note_on,,,,,4,0,7,,,,,0,,,74,100
77344,note_off,,,,,64,0,8,,,,,1,,,67,100
77372,note_off,,,,,44,0,7,,,,,0,,,74,100
77376,note_on,,,,,4,0,7,,,,,0,,,73,100
77376,note_on,,,,,32,0,8,,,,,1,,,65,100
77440,note_off,,,,,64,0,7,,,,,0,,,73,100
77440,note_off,,,,,64,0,8,,,,,1,,,65,100
77472,note_on,,,,,32,0,7,,,,,0,,,74,100
77472,note_on,,,,,32,0,8,,,,,1,,,64,100
77536,note_off,,,,,64,0,8,,,,,1,,,64,100
77536,note_off,,,,,64,0,7,,,,,0,,,74,100
77568,note_on,,,,,0,0,14,,,,,7,,,65,100
77568,note_on,,,,,5120,0,12,,,,,5,,,50,100
77568,note_on,,,,,5120,0,14,,,,,7,,,69,100
77568,note_on,,,,,32,0,8,,,,,1,,,62,100
77568,note_on,,,,,5120,0,15,,,,,7,,,50,100
77568,note_on,,,,,5120,0,13,,,,,6,,,38,100
77568,note_on,,,,,5120,0,11,,,,,4,,,65,100
77568,note_on,,,,,32,0,7,,,,,0,,,74,100
77696,note_off,,,,,128,0,8,,,,,1,,,62,100
77696,note_off,,,,,128,0,7,,,,,0,,,74,100
77756,program_change,,,,,60,0,8,,,,,1,48,,,
77756,program_change,,,,,60,0,7,,,,,0,48,,,
77760,note_on,,,,,4,0,8,,,,,1,,,74,50
77760,note_on,,,,,5312,0,10,,,,,3,,,74,50
77760,note_on,,,,,4,0,7,,,,,0,,,74,110
77760,note_on,,,,,5312,0,9,,,,,2,,,74,50
77824,note_off,,,,,256,0,15,,,,,7,,,50,100
77824,note_off,,,,,256,0,12,,,,,5,,,50,100
77824,note_off,,,,,256,0,13,,,,,6,,,38,100
77824,note_off,,,,,256,0,11,,,,,4,,,65,100
77824,note_off,,,,,0,0,14,,,,,7,,,65,100
77824,note_off,,,,,256,0,14,,,,,7,,,69,100
77888,note_off,,,,,128,0,10,,,,,3,,,74,100
77888,note_off,,,,,128,0,7,,,,,0,,,74,100
77888,note_off,,,,,128,0,8,,,,,1,,,74,100
77888,note_off,,,,,128,0,9,,,,,2,,,74,100
77952,note_on,,,,,64,0,9,,,,,2,,,77,50
77952,note_on,,,,,64,0,7,,,,,0,,,77,110
77952,note_on,,,,,64,0,8,,,,,1,,,77,50
77952,note_on,,,,,64,0,10,,,,,3,,,77,50
78080,note_off,,,,,128,0,9,,,,,2,,,77,100
78080,note_off,,,,,128,0,7,,,,,0,,,77,100
78080,note_off,,,,,128,0,10,,,,,3,,,77,100
78080,note_off,,,,,128,0,8,,,,,1,,,77,100
78144,note_on,,,,,64,0,8,,,,,1,,,81,50
78144,note_on,,,,,64,0,7,,,,,0,,,81,110
78144,note_on,,,,,64,0,10,,,,,3,,,81,50
78144,note_on,,,,,64,0,9,,,,,2,,,81,50
78272,note_off,,,,,128,0,8,,,,,1,,,81,100
78272,note_off,,,,,128,0,10,,,,,3,,,81,100
78272,note_off,,,,,128,0,9,,,,,2,,,81,100
78272,note_off,,,,,128,0,7,,,,,0,,,81,100
78336,note_on,,,,,512,0,13,,,,,6,,,38,100
78336,note_on,,,,,64,0,7,,,,,0,,,86,110
78336,note_on,,,,,64,0,8,,,,,1,,,86,50
78336,note_on,,,,,64,0,9,,,,,2,,,86,50
78336,note_on,,,,,512,0,15,,,,,7,,,50,100
78336,note_on,,,,,512,0,11,,,,,4,,,65,100
78336,note_on,,,,,512,0,12,,,,,5,,,50,100
78336,note_on,,,,,512,0,14,,,,,7,,,67,100
78336,note_on,,,,,0,0,14,,,,,7,,,71,100
78336,note_on,,,,,64,0,10,,,,,3,,,86,50
78592,note_off,,,,,256,0,14,,,,,7,,,67,100
78592,note_off,,,,,256,0,11,,,,,4,,,65,100
78592,note_off,,,,,256,0,15,,,,,7,,,50,100
78592,note_off,,,,,256,0,7,,,,,0,,,86,100
78592,note_off,,,,,256,0,9,,,,,2,,,86,100
78592,note_off,,,,,256,0,10,,,,,3,,,86,100
78592,note_off,,,,,256,0,8,,,,,1,,,86,100
78592,note_off,,,,,0,0,14,,,,,7,,,71,100
78592,note_off,,,,,256,0,13,,,,,6,,,38,100
78592,note_off,,,,,256,0,12,,,,,5,,,50,100
78720,note_on,,,,,128,0,12,,,,,5,,,57,100
78720,note_on,,,,,0,0,14,,,,,7,,,73,100
78720,note_on,,,,,128,0,8,,,,,1,,,85,50
78720,note_on,,,,,128,0,13,,,,,6,,,45,100
78720,note_on,,,,,128,0,11,,,,,4,,,64,100
78720,note_on,,,,,128,0,15,,,,,7,,,57,100
78720,note_on,,,,,128,0,9,,,,,2,,,85,50
78720,note_on,,,,,128,0,14,,,,,7,,,76,100
78720,note_on,,,,,128,0,10,,,,,3,,,85,50
78720,note_on,,,,,128,0,7,,,,,0,,,85,110
78976,note_off,,,,,256,0,9,,,,,2,,,85,100
78976,note_off,,,,,256,0,14,,,,,7,,,76,100
78976,note_off,,,,,256,0,11,,,,,4,,,64,100
78976,note_off,,,,,256,0,15,,,,,7,,,57,100
78976,note_off,,,,,256,0,7,,,,,0,,,85,100
78976,note_off,,,,,0,0,14,,,,,7,,,73,100
78976,note_off,,,,,256,0,13,,,,,6,,,45,100
78976,note_off,,,,,256,0,12,,,,,5,,,57,100
78976,note_off,,,,,256,0,10,,,,,3,,,85,100
78976,note_off,,,,,256,0,8,,,,,1,,,85,100
79104,note_on,,,,,128,0,15,,,,,7,,,50,100
79104,note_on,,,,,0,0,14,,,,,7,,,71,100
79104,note_on,,,,,128,0,14,,,,,7,,,67,100
79104,note_on,,,,,128,0,11,,,,,4,,,65,100
79104,note_on,,,,,128,0,8,,,,,1,,,86,50
79104,note_on,,,,,128,0,7,,,,,0,,,86,110
79104,note_on,,,,,128,0,13,,,,,6,,,38,100
79104,note_on,,,,,128,0,9,,,,,2,,,86,50
79104,note_on,,,,,128,0,12,,,,,5,,,50,100
79104,note_on,,,,,128,0,10,,,,,3,,,86,50
79168,note_off,,,,,64,0,7,,,,,0,,,86,100
79168,note_off,,,,,64,0,8,,,,,1,,,86,100
79168,note_off,,,,,64,0,10,,,,,3,,,86,100
79168,note_off,,,,,64,0,9,,,,,2,,,86,100
79200,note_on,,,,,32,0,9,,,,,2,,,84,50
79200,note_on,,,,,32,0,7,,,,,0,,,84,110
79200,note_on,,,,,32,0,10,,,,,3,,,84,50
79200,note_on,,,,,32,0,8,,,,,1,,,84,50
79264,note_off,,,,,64,0,10,,,,,3,,,84,100
79264,note_off,,,,,64,0,8,,,,,1,,,84,100
79264,note_off,,,,,64,0,7,,,,,0,,,84,100
79264,note_off,,,,,64,0,9,,,,,2,,,84,100
79296,note_on,,,,,32,0,8,,,,,1,,,82,50
79296,note_on,,,,,32,0,7,,,,,0,,,82,110
79296,note_on,,,,,32,0,10,,,,,3,,,82,50
79296,note_on,,,,,32,0,9,,,,,2,,,82,50
79360,note_off,,,,,64,0,8,,,,,1,,,82,100
79360,note_off,,,,,0,0,14,,,,,7,,,71,100
79360,note_off,,,,,256,0,14,,,,,7,,,67,100
79360,note_off,,,,,64,0,7,,,,,0,,,82,100
79360,note_off,,,,,256,0,13,,,,,6,,,38,100
79360,note_off,,,,,256,0,12,,,,,5,,,50,100
79360,note_off,,,,,256,0,11,,,,,4,,,65,100
79360,note_off,,,,,256,0,15,,,,,7,,,50,100
79360,note_off,,,,,64,0,10,,,,,3,,,82,100
79360,note_off,,,,,64,0,9,,,,,2,,,82,100
79392,note_on,,,,,32,0,7,,,,,0,,,81,110
79392,note_on,,,,,32,0,10,,,,,3,,,81,50
79392,note_on,,,,,32,0,8,,,,,1,,,81,50
79392,note_on,,,,,32,0,9,,,,,2,,,81,50
79456,note_off,,,,,64,0,10,,,,,3,,,81,100
79456,note_off,,,,,64,0,9,,,,,2,,,81,100
79456,note_off,,,,,64,0,7,,,,,0,,,81,100
79456,note_off,,,,,64,0,8,,,,,1,,,81,100
79488,note_on,,,,,32,0,9,,,,,2,,,79,50
79488,note_on,,,,,32,0,10,,,,,3,,,79,50
79488,note_on,,,,,32,0,8,,,,,1,,,79,50
79488,note_on,,,,,32,0,7,,,,,0,,,79,110
79552,note_off,,,,,64,0,7,,,,,0,,,79,100
79552,note_off,,,,,64,0,10,,,,,3,,,79,100
79552,note_off,,,,,64,0,9,,,,,2,,,79,100
79552,note_off,,,,,64,0,8,,,,,1,,,79,100
79584,note_on,,,,,32,0,7,,,,,0,,,77,110
79584,note_on,,,,,32,0,10,,,,,3,,,77,50
79584,note_on,,,,,32,0,9,,,,,2,,,77,50
79584,note_on,,,,,32,0,8,,,,,1,,,77,50
79648,note_off,,,,,64,0,10,,,,,3,,,77,100
79648,note_off,,,,,64,0,9,,,,,2,,,77,100
79648,note_off,,,,,64,0,8,,,,,1,,,77,100
79648,note_off,,,,,64,0,7,,,,,0,,,77,100
79680,note_on,,,,,32,0,7,,,,,0,,,76,110
79680,note_on,,,,,320,0,11,,,,,4,,,65,100
79680,note_on,,,,,32,0,8,,,,,1,,,76,50
79680,note_on,,,,,320,0,14,,,,,7,,,65,100
79680,note_on,,,,,0,0,14,,,,,7,,,69,100
79680,note_on,,,,,32,0,9,,,,,2,,,76,50
79680,note_on,,,,,320,0,13,,,,,6,,,50,100
79680,note_on,,,,,32,0,10,,,,,3,,,76,50
79680,note_on,,,,,320,0,12,,,,,5,,,62,100
79680,note_on,,,,,320,0,15,,,,,7,,,62,100
79744,note_off,,,,,64,0,9,,,,,2,,,76,100
79744,note_off,,,,,64,0,7,,,,,0,,,76,100
79744,note_off,,,,,64,0,8,,,,,1,,,76,100
79744,note_off,,,,,64,0,10,,,,,3,,,76,100
79776,note_on,,,,,32,0,9,,,,,2,,,74,50
79776,note_on,,,,,32,0,8,,,,,1,,,74,50
79776,note_on,,,,,32,0,10,,,,,3,,,74,50
79776,note_on,,,,,32,0,7,,,,,0,,,74,110
79808,note_off,,,,,128,0,13,,,,,6,,,50,100
79808,note_off,,,,,128,0,11,,,,,4,,,65,100
79808,note_off,,,,,0,0,14,,,,,7,,,69,100
79808,note_off,,,,,128,0,14,,,,,7,,,65,100
79808,note_off,,,,,128,0,15,,,,,7,,,62,100
79808,note_off,,,,,128,0,12,,,,,5,,,62,100
79840,note_off,,,,,64,0,9,,,,,2,,,74,100
79840,note_off,,,,,64,0,10,,,,,3,,,74,100
79840,note_off,,,,,64,0,7,,,,,0,,,74,100
79840,note_off,,,,,64,0,8,,,,,1,,,74,100
79872,note_on,,,,,32,0,8,,,,,1,,,81,50
79872,note_on,,,,,64,0,15,,,,,7,,,61,100
79872,note_on,,,,,64,0,14,,,,,7,,,64,100
79872,note_on,,,,,0,0,14,,,,,7,,,69,100
79872,note_on,,,,,64,0,12,,,,,5,,,61,100
79872,note_on,,,,,64,0,11,,,,,4,,,64,100
79872,note_on,,,,,32,0,10,,,,,3,,,81,50
79872,note_on,,,,,32,0,7,,,,,0,,,81,110
79872,note_on,,,,,64,0,13,,,,,6,,,49,100
79872,note_on,,,,,32,0,9,,,,,2,,,81,50
80000,note_off,,,,,128,0,9,,,,,2,,,81,100
80000,note_off,,,,,128,0,10,,,,,3,,,81,100
80000,note_off,,,,,128,0,7,,,,,0,,,81,100
80000,note_off,,,,,128,0,8,,,,,1,,,81,100
80064,note_off,,,,,192,0,15,,,,,7,,,61,100
80064,note_off,,,,,192,0,12,,,,,5,,,61,100
80064,note_on,,,,,64,0,8,,,,,1,,,69,49
80064,note_off,,,,,0,0,14,,,,,7,,,69,100
80064,note_off,,,,,192,0,13,,,,,6,,,49,100
80064,note_off,,,,,192,0,14,,,,,7,,,64,100
80064,note_on,,,,,64,0,9,,,,,2,,,69,49
80064,note_on,,,,,64,0,10,,,,,3,,,69,49
80064,note_off,,,,,192,0,11,,,,,4,,,64,100
80064,note_on,,,,,64,0,7,,,,,0,,,69,109
80160,note_on,,,,,96,0,14,,,,,7,,,62,100
80160,note_on,,,,,96,0,11,,,,,4,,,62,99
80160,note_on,,,,,0,0,14,,,,,7,,,66,100
80160,note_on,,,,,96,0,12,,,,,5,,,59,99
80160,note_on,,,,,96,0,15,,,,,7,,,59,100
80160,note_on,,,,,96,0,13,,,,,6,,,47,99
80192,note_off,,,,,128,0,9,,,,,2,,,69,100
80192,note_off,,,,,128,0,8,,,,,1,,,69,100
80192,note_off,,,,,128,0,7,,,,,0,,,69,100
80192,note_off,,,,,128,0,10,,,,,3,,,69,100
80224,note_off,,,,,64,0,15,,,,,7,,,59,100
80224,note_off,,,,,64,0,11,,,,,4,,,62,100
80224,note_off,,,,,0,0,14,,,,,7,,,66,100
80224,note_off,,,,,64,0,12,,,,,5,,,59,100
80224,note_off,,,,,64,0,13,,,,,6,,,47,100
80224,note_off,,,,,64,0,14,,,,,7,,,62,100
80256,note_on,,,,,32,0,14,,,,,7,,,61,100
80256,note_on,,,,,32,0,11,,,,,4,,,61,98
80256,note_on,,,,,32,0,15,,,,,7,,,57,100
80256,note_on,,,,,32,0,13,,,,,6,,,45,98
80256,note_on,,,,,0,0,14,,,,,7,,,64,100
80256,note_on,,,,,32,0,12,,,,,5,,,57,98
80256,note_on,,,,,64,0,10,,,,,3,,,69,48
80256,note_on,,,,,64,0,7,,,,,0,,,69,108
80256,note_on,,,,,64,0,8,,,,,1,,,69,48
80256,note_on,,,,,64,0,9,,,,,2,,,69,48
80384,note_off,,,,,128,0,14,,,,,7,,,61,100
80384,note_off,,,,,128,0,13,,,,,6,,,45,100
80384,note_off,,,,,128,0,12,,,,,5,,,57,100
80384,note_off,,,,,128,0,15,,,,,7,,,57,100
80384,note_off,,,,,128,0,11,,,,,4,,,61,100
80384,note_off,,,,,128,0,9,,,,,2,,,69,100
80384,note_off,,,,,128,0,8,,,,,1,,,69,100
80384,note_off,,,,,0,0,14,,,,,7,,,64,100
80384,note_off,,,,,128,0,10,,,,,3,,,69,100
80384,note_off,,,,,128,0,7,,,,,0,,,69,100
80448,note_on,,,,,64,0,11,,,,,4,,,62,97
80448,note_on,,,,,64,0,12,,,,,5,,,55,97
80448,note_on,,,,,64,0,10,,,,,3,,,71,47
80448,note_on,,,,,64,0,7,,,,,0,,,71,107
80448,note_on,,,,,64,0,9,,,,,2,,,71,47
80448,note_on,,,,,64,0,15,,,,,7,,,55,100
80448,note_on,,,,,64,0,8,,,,,1,,,71,47
80448,note_on,,,,,64,0,13,,,,,6,,,43,97
80448,note_on,,,,,64,0,14,,,,,7,,,59,100
80448,note_on,,,,,0,0,14,,,,,7,,,62,100
80512,note_off,,,,,64,0,8,,,,,1,,,71,100
80512,note_off,,,,,64,0,10,,,,,3,,,71,100
80512,note_off,,,,,64,0,7,,,,,0,,,71,100
80512,note_off,,,,,64,0,9,,,,,2,,,71,100
80512,note_off,,,,,64,0,11,,,,,4,,,62,100
80544,note_on,,,,,32,0,8,,,,,1,,,73,46
80544,note_on,,,,,32,0,10,,,,,3,,,73,46
80544,note_on,,,,,32,0,9,,,,,2,,,73,46
80544,note_on,,,,,32,0,11,,,,,4,,,64,96
80544,note_on,,,,,32,0,7,,,,,0,,,73,106
80576,note_off,,,,,128,0,15,,,,,7,,,55,100
80576,note_off,,,,,128,0,12,,,,,5,,,55,100
80576,note_off,,,,,128,0,14,,,,,7,,,59,100
80576,note_off,,,,,0,0,14,,,,,7,,,62,100
80576,note_off,,,,,128,0,13,,,,,6,,,43,100
80608,note_off,,,,,64,0,11,,,,,4,,,64,100
80608,note_off,,,,,64,0,10,,,,,3,,,73,100
80608,note_off,,,,,64,0,7,,,,,0,,,73,100
80608,note_off,,,,,64,0,8,,,,,1,,,73,100
80608,note_off,,,,,64,0,9,,,,,2,,,73,100
80640,note_on,,,,,64,0,14,,,,,7,,,62,100
80640,note_on,,,,,0,0,14,,,,,7,,,57,100
80640,note_on,,,,,64,0,12,,,,,5,,,53,95
80640,note_on,,,,,64,0,13,,,,,6,,,41,95
80640,note_on,,,,,32,0,9,,,,,2,,,74,45
80640,note_on,,,,,32,0,11,,,,,4,,,57,95
80640,note_on,,,,,32,0,8,,,,,1,,,74,45
80640,note_on,,,,,32,0,7,,,,,0,,,74,105
80640,note_on,,,,,32,0,10,,,,,3,,,74,45
80640,note_on,,,,,64,0,15,,,,,7,,,53,100
80768,note_off,,,,,128,0,10,,,,,3,,,74,100
80768,note_off,,,,,128,0,8,,,,,1,,,74,100
80768,note_off,,,,,128,0,7,,,,,0,,,74,100
80768,note_off,,,,,128,0,9,,,,,2,,,74,100
80768,note_off,,,,,128,0,11,,,,,4,,,57,100
80832,note_on,,,,,64,0,9,,,,,2,,,74,44
80832,note_on,,,,,64,0,7,,,,,0,,,74,104
80832,note_off,,,,,0,0,14,,,,,7,,,57,100
80832,note_on,,,,,64,0,11,,,,,4,,,65,94
80832,note_off,,,,,192,0,15,,,,,7,,,53,100
80832,note_off,,,,,192,0,12,,,,,5,,,53,100
80832,note_off,,,,,192,0,13,,,,,6,,,41,100
80832,note_on,,,,,64,0,10,,,,,3,,,74,44
80832,note_on,,,,,64,0,8,,,,,1,,,74,44
80832,note_off,,,,,192,0,14,,,,,7,,,62,100
80896,note_off,,,,,64,0,11,,,,,4,,,65,100
80896,note_off,,,,,64,0,8,,,,,1,,,74,100
80896,note_off,,,,,64,0,9,,,,,2,,,74,100
80896,note_off,,,,,64,0,7,,,,,0,,,74,100
80896,note_off,,,,,64,0,10,,,,,3,,,74,100
80928,note_on,,,,,96,0,15,,,,,7,,,52,100
80928,note_on,,,,,32,0,8,,,,,1,,,76,43
80928,note_on,,,,,32,0,9,,,,,2,,,76,43
80928,note_on,,,,,32,0,11,,,,,4,,,67,93
80928,note_on,,,,,0,0,14,,,,,7,,,55,100
80928,note_on,,,,,32,0,10,,,,,3,,,76,43
80928,note_on,,,,,96,0,14,,,,,7,,,59,100
80928,note_on,,,,,96,0,12,,,,,5,,,52,93
80928,note_on,,,,,96,0,13,,,,,6,,,40,93
80928,note_on,,,,,32,0,7,,,,,0,,,76,103
80992,note_off,,,,,0,0,14,,,,,7,,,55,100
80992,note_off,,,,,64,0,14,,,,,7,,,59,100
80992,note_off,,,,,64,0,12,,,,,5,,,52,100
80992,note_off,,,,,64,0,9,,,,,2,,,76,100
80992,note_off,,,,,64,0,7,,,,,0,,,76,100
80992,note_off,,,,,64,0,15,,,,,7,,,52,100
80992,note_off,,,,,64,0,13,,,,,6,,,40,100
80992,note_off,,,,,64,0,8,,,,,1,,,76,100
80992,note_off,,,,,64,0,10,,,,,3,,,76,100
80992,note_off,,,,,64,0,11,,,,,4,,,67,100
81024,note_on,,,,,32,0,10,,,,,3,,,77,43
81024,note_on,,,,,32,0,8,,,,,1,,,77,43
81024,note_on,,,,,32,0,11,,,,,4,,,69,93
81024,note_on,,,,,32,0,14,,,,,7,,,57,100
81024,note_on,,,,,0,0,14,,,,,7,,,53,100
81024,note_on,,,,,32,0,15,,,,,7,,,50,100
81024,note_on,,,,,32,0,9,,,,,2,,,77,43
81024,note_on,,,,,32,0,7,,,,,0,,,77,103
81024,note_on,,,,,32,0,12,,,,,5,,,50,93
81024,note_on,,,,,32,0,13,,,,,6,,,38,93
81152,note_off,,,,,128,0,7,,,,,0,,,77,100
81152,note_off,,,,,128,0,14,,,,,7,,,57,100
81152,note_off,,,,,0,0,14,,,,,7,,,53,100
81152,note_off,,,,,128,0,12,,,,,5,,,50,100
81152,note_off,,,,,128,0,13,,,,,6,,,38,100
81152,note_off,,,,,128,0,10,,,,,3,,,77,100
81152,note_off,,,,,128,0,8,,,,,1,,,77,100
81152,note_off,,,,,128,0,11,,,,,4,,,69,100
81152,note_off,,,,,128,0,9,,,,,2,,,77,100
81152,note_off,,,,,128,0,15,,,,,7,,,50,100
81216,note_on,,,,,64,0,7,,,,,0,,,77,101
81216,note_on,,,,,64,0,13,,,,,6,,,50,91
81216,note_on,,,,,64,0,8,,,,,1,,,77,41
81216,note_on,,,,,64,0,11,,,,,4,,,65,91
81216,note_on,,,,,64,0,10,,,,,3,,,77,41
81216,note_on,,,,,64,0,14,,,,,7,,,65,100
81216,note_on,,,,,64,0,15,,,,,7,,,62,100
81216,note_on,,,,,0,0,14,,,,,7,,,69,100
81216,note_on,,,,,64,0,9,,,,,2,,,77,41
81216,note_on,,,,,64,0,12,,,,,5,,,62,91
81280,note_off,,,,,64,0,7,,,,,0,,,77,100
81280,note_off,,,,,64,0,10,,,,,3,,,77,100
81280,note_off,,,,,64,0,8,,,,,1,,,77,100
81280,note_off,,,,,64,0,9,,,,,2,,,77,100
81312,note_on,,,,,32,0,7,,,,,0,,,79,101
81312,note_on,,,,,32,0,8,,,,,1,,,79,41
81312,note_on,,,,,32,0,10,,,,,3,,,79,41
81312,note_on,,,,,32,0,9,,,,,2,,,79,41
81344,note_off,,,,,128,0,12,,,,,5,,,62,100
81344,note_off,,,,,128,0,15,,,,,7,,,62,100
81344,note_off,,,,,0,0,14,,,,,7,,,69,100
81344,note_off,,,,,128,0,13,,,,,6,,,50,100
81344,note_off,,,,,128,0,14,,,,,7,,,65,100
81344,note_off,,,,,128,0,11,,,,,4,,,65,100
81376,note_off,,,,,64,0,7,,,,,0,,,79,100
81376,note_off,,,,,64,0,10,,,,,3,,,79,100
81376,note_off,,,,,64,0,8,,,,,1,,,79,100
81376,note_off,,,,,64,0,9,,,,,2,,,79,100
81408,note_on,,,,,32,0,8,,,,,1,,,81,35
81408,note_on,,,,,32,0,10,,,,,3,,,81,35
81408,note_on,,,,,64,0,13,,,,,6,,,49,85
81408,note_on,,,,,64,0,12,,,,,5,,,61,85
81408,note_on,,,,,0,0,14,,,,,7,,,69,100
81408,note_on,,,,,64,0,14,,,,,7,,,64,100
81408,note_on,,,,,32,0,7,,,,,0,,,81,95
81408,note_on,,,,,64,0,15,,,,,7,,,61,100
81408,note_on,,,,,64,0,11,,,,,4,,,64,85
81408,note_on,,,,,32,0,9,,,,,2,,,81,35
81536,note_off,,,,,128,0,10,,,,,3,,,81,100
81536,note_off,,,,,128,0,8,,,,,1,,,81,100
81536,note_off,,,,,128,0,7,,,,,0,,,81,100
81536,note_off,,,,,128,0,9,,,,,2,,,81,100
81600,note_off,,,,,192,0,14,,,,,7,,,64,100
81600,note_off,,,,,0,0,14,,,,,7,,,69,100
81600,note_off,,,,,192,0,12,,,,,5,,,61,100
81600,note_on,,,,,64,0,10,,,,,3,,,69,35
81600,note_on,,,,,64,0,7,,,,,0,,,69,95
81600,note_off,,,,,192,0,13,,,,,6,,,49,100
81600,note_on,,,,,64,0,8,,,,,1,,,69,35
81600,note_off,,,,,192,0,11,,,,,4,,,64,100
81600,note_on,,,,,64,0,9,,,,,2,,,69,35
81600,note_off,,,,,192,0,15,,,,,7,,,61,100
81696,note_on,,,,,96,0,12,,,,,5,,,59,85
81696,note_on,,,,,96,0,13,,,,,6,,,47,85
81696,note_on,,,,,96,0,15,,,,,7,,,59,100
81696,note_on,,,,,96,0,14,,,,,7,,,62,100
81696,note_on,,,,,96,0,11,,,,,4,,,62,85
81696,note_on,,,,,0,0,14,,,,,7,,,66,100
81728,note_off,,,,,128,0,9,,,,,2,,,69,100
81728,note_off,,,,,128,0,8,,,,,1,,,69,100
81728,note_off,,,,,128,0,7,,,,,0,,,69,100
81728,note_off,,,,,128,0,10,,,,,3,,,69,100
81760,note_off,,,,,64,0,15,,,,,7,,,59,100
81760,note_off,,,,,64,0,12,,,,,5,,,59,100
81760,note_off,,,,,64,0,13,,,,,6,,,47,100
81760,note_off,,,,,0,0,14,,,,,7,,,66,100
81760,note_off,,,,,64,0,11,,,,,4,,,62,100
81760,note_off,,,,,64,0,14,,,,,7,,,62,100
81792,note_on,,,,,32,0,14,,,,,7,,,61,100
81792,note_on,,,,,64,0,8,,,,,1,,,69,35
81792,note_on,,,,,64,0,10,,,,,3,,,69,35
81792,note_on,,,,,0,0,14,,,,,7,,,64,100
81792,note_on,,,,,32,0,13,,,,,6,,,45,85
81792,note_on,,,,,32,0,12,,,,,5,,,57,85
81792,note_on,,,,,64,0,9,,,,,2,,,69,35
81792,note_on,,,,,32,0,11,,,,,4,,,61,85
81792,note_on,,,,,32,0,15,,,,,7,,,57,100
81792,note_on,,,,,64,0,7,,,,,0,,,69,95
81920,note_off,,,,,128,0,14,,,,,7,,,61,100
81920,note_off,,,,,128,0,10,,,,,3,,,69,100
81920,note_off,,,,,128,0,7,,,,,0,,,69,100
81920,note_off,,,,,128,0,12,,,,,5,,,57,100
81920,note_off,,,,,128,0,13,,,,,6,,,45,100
81920,note_off,,,,,128,0,9,,,,,2,,,69,100
81920,note_off,,,,,128,0,15,,,,,7,,,57,100
81920,note_off,,,,,0,0,14,,,,,7,,,64,100
81920,note_off,,,,,128,0,11,,,,,4,,,61,100
81920,note_off,,,,,128,0,8,,,,,1,,,69,100
81984,note_on,,,,,64,0,13,,,,,6,,,43,85
81984,note_on,,,,,64,0,11,,,,,4,,,62,85
81984,note_on,,,,,64,0,14,,,,,7,,,59,100
81984,note_on,,,,,64,0,12,,,,,5,,,55,85
81984,note_on,,,,,64,0,15,,,,,7,,,55,100
81984,note_on,,,,,64,0,10,,,,,3,,,71,35
81984,note_on,,,,,64,0,8,,,,,1,,,71,35
81984,note_on,,,,,64,0,9,,,,,2,,,71,35
81984,note_on,,,,,64,0,7,,,,,0,,,71,95
81984,note_on,,,,,0,0,14,,,,,7,,,62,100
82048,note_off,,,,,64,0,11,,,,,4,,,62,100
82048,note_off,,,,,64,0,10,,,,,3,,,71,100
82048,note_off,,,,,64,0,9,,,,,2,,,71,100
82048,note_off,,,,,64,0,7,,,,,0,,,71,100
82048,note_off,,,,,64,0,8,,,,,1,,,71,100
82080,note_on,,,,,32,0,9,,,,,2,,,73,35
82080,note_on,,,,,32,0,10,,,,,3,,,73,35
82080,note_on,,,,,32,0,8,,,,,1,,,73,35
82080,note_on,,,,,32,0,11,,,,,4,,,64,85
82080,note_on,,,,,32,0,7,,,,,0,,,73,95
82112,note_off,,,,,128,0,13,,,,,6,,,43,100
82112,note_off,,,,,0,0,14,,,,,7,,,62,100
82112,note_off,,,,,128,0,12,,,,,5,,,55,100
82112,note_off,,,,,128,0,15,,,,,7,,,55,100
82112,note_off,,,,,128,0,14,,,,,7,,,59,100
82144,note_off,,,,,64,0,11,,,,,4,,,64,100
82144,note_off,,,,,64,0,10,,,,,3,,,73,100
82144,note_off,,,,,64,0,8,,,,,1,,,73,100
82144,note_off,,,,,64,0,9,,,,,2,,,73,100
82144,note_off,,,,,64,0,7,,,,,0,,,73,100
82176,note_on,,,,,64,0,15,,,,,7,,,53,100
82176,note_on,,,,,32,0,10,,,,,3,,,74,35
82176,note_on,,,,,32,0,8,,,,,1,,,74,35
82176,note_on,,,,,32,0,9,,,,,2,,,74,35
82176,note_on,,,,,64,0,14,,,,,7,,,62,100
82176,note_on,,,,,0,0,14,,,,,7,,,57,100
82176,note_on,,,,,32,0,7,,,,,0,,,74,95
82176,note_on,,,,,32,0,11,,,,,4,,,57,85
82176,note_on,,,,,64,0,13,,,,,6,,,41,85
82176,note_on,,,,,64,0,12,,,,,5,,,53,85
82304,note_off,,,,,128,0,9,,,,,2,,,74,100
82304,note_off,,,,,128,0,10,,,,,3,,,74,100
82304,note_off,,,,,128,0,8,,,,,1,,,74,100
82304,note_off,,,,,128,0,11,,,,,4,,,57,100
82304,note_off,,,,,128,0,7,,,,,0,,,74,100
82368,note_on,,,,,64,0,8,,,,,1,,,74,35
82368,note_on,,,,,64,0,7,,,,,0,,,74,95
82368,note_on,,,,,64,0,11,,,,,4,,,65,85
82368,note_off,,,,,192,0,15,,,,,7,,,53,100
82368,note_off,,,,,0,0,14,,,,,7,,,57,100
82368,note_on,,,,,64,0,9,,,,,2,,,74,35
82368,note_off,,,,,192,0,14,,,,,7,,,62,100
82368,note_on,,,,,64,0,10,,,,,3,,,74,35
82368,note_off,,,,,192,0,12,,,,,5,,,53,100
82368,note_off,,,,,192,0,13,,,,,6,,,41,100
82432,note_off,,,,,64,0,9,,,,,2,,,74,100
82432,note_off,,,,,64,0,11,,,,,4,,,65,100
82432,note_off,,,,,64,0,7,,,,,0,,,74,100
82432,note_off,,,,,64,0,10,,,,,3,,,74,100
82432,note_off,,,,,64,0,8,,,,,1,,,74,100
82464,note_on,,,,,32,0,7,,,,,0,,,76,95
82464,note_on,,,,,96,0,12,,,,,5,,,52,85
82464,note_on,,,,,96,0,14,,,,,7,,,59,100
82464,note_on,,,,,32,0,11,,,,,4,,,67,85
82464,note_on,,,,,32,0,8,,,,,1,,,76,35
82464,note_on,,,,,0,0,14,,,,,7,,,55,100
82464,note_on,,,,,32,0,10,,,,,3,,,76,35
82464,note_on,,,,,96,0,15,,,,,7,,,52,100
82464,note_on,,,,,32,0,9,,,,,2,,,76,35
82464,note_on,,,,,96,0,13,,,,,6,,,40,85
82528,note_off,,,,,64,0,9,,,,,2,,,76,100
82528,note_off,,,,,64,0,10,,,,,3,,,76,100
82528,note_off,,,,,64,0,12,,,,,5,,,52,100
82528,note_off,,,,,64,0,14,,,,,7,,,59,100
82528,note_off,,,,,64,0,8,,,,,1,,,76,100
82528,note_off,,,,,0,0,14,,,,,7,,,55,100
82528,note_off,,,,,64,0,15,,,,,7,,,52,100
82528,note_off,,,,,64,0,7,,,,,0,,,76,100
82528,note_off,,,,,64,0,11,,,,,4,,,67,100
82528,note_off,,,,,64,0,13,,,,,6,,,40,100
82560,note_on,,,,,32,0,14,,,,,7,,,57,100
82560,note_on,,,,,0,0,14,,,,,7,,,53,100
82560,note_on,,,,,32,0,15,,,,,7,,,50,100
82560,note_on,,,,,32,0,7,,,,,0,,,77,95
82560,note_on,,,,,32,0,12,,,,,5,,,50,85
82560,note_on,,,,,32,0,11,,,,,4,,,69,85
82560,note_on,,,,,32,0,10,,,,,3,,,77,35
82560,note_on,,,,,32,0,9,,,,,2,,,77,35
82560,note_on,,,,,32,0,13,,,,,6,,,38,85
82560,note_on,,,,,32,0,8,,,,,1,,,77,35
82688,note_off,,,,,128,0,9,,,,,2,,,77,100
82688,note_off,,,,,128,0,8,,,,,1,,,77,100
82688,note_off,,,,,128,0,14,,,,,7,,,57,100
82688,note_off,,,,,0,0,14,,,,,7,,,53,100
82688,note_off,,,,,128,0,13,,,,,6,,,38,100
82688,note_off,,,,,128,0,15,,,,,7,,,50,100
82688,note_off,,,,,128,0,11,,,,,4,,,69,100
82688,note_off,,,,,128,0,12,,,,,5,,,50,100
82688,note_off,,,,,128,0,10,,,,,3,,,77,100
82688,note_off,,,,,128,0,7,,,,,0,,,77,100
82752,note_on,,,,,64,0,14,,,,,7,,,65,100
82752,note_on,,,,,0,0,14,,,,,7,,,69,100
82752,note_on,,,,,64,0,10,,,,,3,,,77,35
82752,note_on,,,,,64,0,15,,,,,7,,,62,100
82752,note_on,,,,,64,0,9,,,,,2,,,77,35
82752,note_on,,,,,64,0,11,,,,,4,,,65,85
82752,note_on,,,,,64,0,12,,,,,5,,,62,85
82752,note_on,,,,,64,0,13,,,,,6,,,50,85
82752,note_on,,,,,64,0,8,,,,,1,,,77,35
82752,note_on,,,,,64,0,7,,,,,0,,,77,95
82816,note_off,,,,,64,0,9,,,,,2,,,77,100
82816,note_off,,,,,64,0,10,,,,,3,,,77,100
82816,note_off,,,,,64,0,8,,,,,1,,,77,100
82816,note_off,,,,,64,0,7,,,,,0,,,77,100
82848,note_on,,,,,32,0,10,,,,,3,,,79,35
82848,note_on,,,,,32,0,7,,,,,0,,,79,95
82848,note_on,,,,,32,0,9,,,,,2,,,79,35
82848,note_on,,,,,32,0,8,,,,,1,,,79,35
82880,note_off,,,,,128,0,12,,,,,5,,,62,100
82880,note_off,,,,,128,0,11,,,,,4,,,65,100
82880,note_off,,,,,128,0,15,,,,,7,,,62,100
82880,note_off,,,,,128,0,13,,,,,6,,,50,100
82880,note_off,,,,,128,0,14,,,,,7,,,65,100
82880,note_off,,,,,0,0,14,,,,,7,,,69,100
82912,note_off,,,,,64,0,9,,,,,2,,,79,100
82912,note_off,,,,,64,0,8,,,,,1,,,79,100
82912,note_off,,,,,64,0,7,,,,,0,,,79,100
82912,note_off,,,,,64,0,10,,,,,3,,,79,100
82936,program_change,,,,,24,0,7,,,,,0,40,,,
82944,note_on,,,,,32,0,9,,,,,2,,,81,50
82944,note_on,,,,,32,0,8,,,,,1,,,81,85
82944,note_on,,,,,64,0,11,,,,,4,,,64,100
82944,note_on,,,,,64,0,12,,,,,5,,,61,100
82944,note_on,,,,,64,0,13,,,,,6,,,49,100
82944,note_on,,,,,64,0,15,,,,,7,,,61,100
82944,note_on,,,,,0,0,14,,,,,7,,,69,100
82944,note_on,,,,,8,0,7,,,,,0,,,81,85
82944,note_on,,,,,32,0,10,,,,,3,,,81,50
82944,note_on,,,,,64,0,14,,,,,7,,,64,100
83008,note_off,,,,,64,0,7,,,,,0,,,81,100
83040,note_on,,,,,32,0,7,,,,,0,,,81,85
83072,note_off,,,,,128,0,11,,,,,4,,,64,100
83072,note_off,,,,,128,0,9,,,,,2,,,81,100
83072,note_off,,,,,128,0,10,,,,,3,,,81,100
83104,note_off,,,,,64,0,7,,,,,0,,,81,100
83136,note_on,,,,,64,0,11,,,,,4,,,69,70
83136,note_on,,,,,32,0,7,,,,,0,,,76,85
83136,note_on,,,,,64,0,9,,,,,2,,,76,70
83136,note_on,,,,,64,0,10,,,,,3,,,73,70
83200,note_off,,,,,256,0,8,,,,,1,,,81,100
83200,note_off,,,,,256,0,14,,,,,7,,,64,100
83200,note_off,,,,,0,0,14,,,,,7,,,69,100
83200,note_off,,,,,256,0,12,,,,,5,,,61,100
83200,note_off,,,,,256,0,13,,,,,6,,,49,100
83200,note_off,,,,,256,0,15,,,,,7,,,61,100
83200,note_off,,,,,64,0,7,,,,,0,,,76,100
83232,note_on,,,,,32,0,7,,,,,0,,,81,85
83264,note_off,,,,,128,0,9,,,,,2,,,76,100
83264,note_off,,,,,128,0,11,,,,,4,,,69,100
83264,note_off,,,,,128,0,10,,,,,3,,,73,100
83296,note_off,,,,,64,0,7,,,,,0,,,81,100
83328,note_on,,,,,64,0,11,,,,,4,,,69,70
83328,program_change,,,,,128,0,8,,,,,1,40,,,
83328,program_change,,,,,32,0,7,,,,,0,40,,,
83328,note_on,,,,,0,0,7,,,,,0,,,73,85
83328,note_on,,,,,64,0,10,,,,,3,,,73,70
83328,note_on,,,,,64,0,9,,,,,2,,,76,70
83392,note_off,,,,,64,0,7,,,,,0,,,73,100
83424,note_on,,,,,32,0,7,,,,,0,,,81,85
83456,note_off,,,,,128,0,9,,,,,2,,,76,100
83456,note_off,,,,,128,0,10,,,,,3,,,73,100
83456,note_off,,,,,128,0,11,,,,,4,,,69,100
83488,note_off,,,,,64,0,7,,,,,0,,,81,100
83520,note_on,,,,,32,0,7,,,,,0,,,76,85
83520,note_on,,,,,64,0,10,,,,,3,,,73,70
83520,note_on,,,,,64,0,11,,,,,4,,,69,70
83520,note_on,,,,,64,0,9,,,,,2,,,76,70
83584,note_off,,,,,64,0,7,,,,,0,,,76,100
83616,note_on,,,,,32,0,7,,,,,0,,,81,85
83648,note_off,,,,,128,0,11,,,,,4,,,69,100
83648,note_off,,,,,128,0,10,,,,,3,,,73,100
83648,note_off,,,,,128,0,9,,,,,2,,,76,100
83680,note_off,,,,,64,0,7,,,,,0,,,81,100
83712,note_on,,,,,64,0,10,,,,,3,,,73,70
83712,note_on,,,,,32,0,7,,,,,0,,,73,85
83712,note_on,,,,,64,0,9,,,,,2,,,76,70
83712,note_on,,,,,64,0,11,,,,,4,,,69,70
83776,note_off,,,,,64,0,7,,,,,0,,,73,100
83808,note_on,,,,,32,0,7,,,,,0,,,81,85
83840,note_off,,,,,128,0,10,,,,,3,,,73,100
83840,note_off,,,,,128,0,9,,,,,2,,,76,100
83840,note_off,,,,,128,0,11,,,,,4,,,69,100
83872,note_off,,,,,64,0,7,,,,,0,,,81,100
83904,note_on,,,,,64,0,9,,,,,2,,,76,70
83904,note_on,,,,,64,0,10,,,,,3,,,73,70
83904,note_on,,,,,64,0,11,,,,,4,,,69,70
83904,note_on,,,,,32,0,7,,,,,0,,,76,85
83968,note_off,,,,,64,0,7,,,,,0,,,76,100
84000,note_on,,,,,32,0,7,,,,,0,,,81,85
84032,note_off,,,,,128,0,10,,,,,3,,,73,100
84032,note_off,,,,,128,0,9,,,,,2,,,76,100
84032,note_off,,,,,128,0,11,,,,,4,,,69,100
84064,note_off,,,,,64,0,7,,,,,0,,,81,100
84096,note_on,,,,,64,0,9,,,,,2,,,76,70
84096,note_on,,,,,32,0,7,,,,,0,,,73,85
84096,note_on,,,,,64,0,10,,,,,3,,,73,70
84096,note_on,,,,,64,0,11,,,,,4,,,69,70
84160,note_off,,,,,64,0,7,,,,,0,,,73,100
84192,note_on,,,,,32,0,7,,,,,0,,,81,85
84224,note_off,,,,,128,0,11,,,,,4,,,69,100
84224,note_off,,,,,128,0,9,,,,,2,,,76,100
84224,note_off,,,,,128,0,10,,,,,3,,,73,100
84256,note_off,,,,,64,0,7,,,,,0,,,81,100
84288,note_on,,,,,64,0,11,,,,,4,,,69,70
84288,note_on,,,,,64,0,9,,,,,2,,,76,70
84288,note_on,,,,,64,0,10,,,,,3,,,73,70
84288,note_on,,,,,32,0,7,,,,,0,,,76,85
84352,note_off,,,,,64,0,7,,,,,0,,,76,100
84384,note_on,,,,,32,0,7,,,,,0,,,81,85
84416,note_off,,,,,128,0,10,,,,,3,,,73,100
84416,note_off,,,,,128,0,9,,,,,2,,,76,100
84416,note_off,,,,,128,0,11,,,,,4,,,69,100
84448,note_off,,,,,64,0,7,,,,,0,,,81,100
84480,note_on,,,,,64,0,10,,,,,3,,,74,70
84480,note_on,,,,,64,0,9,,,,,2,,,77,70
84480,note_on,,,,,32,0,7,,,,,0,,,74,85
84480,note_on,,,,,64,0,11,,,,,4,,,62,70
84544,note_off,,,,,64,0,7,,,,,0,,,74,100
84576,note_on,,,,,32,0,7,,,,,0,,,81,85
84608,note_off,,,,,128,0,10,,,,,3,,,74,100
84608,note_off,,,,,128,0,11,,,,,4,,,62,100
84608,note_off,,,,,128,0,9,,,,,2,,,77,100
84640,note_off,,,,,64,0,7,,,,,0,,,81,100
84672,note_on,,,,,64,0,11,,,,,4,,,62,70
84672,note_on,,,,,64,0,9,,,,,2,,,77,70
84672,note_on,,,,,64,0,10,,,,,3,,,74,70
84672,note_on,,,,,1344,0,8,,,,,1,,,81,100
84672,note_on,,,,,32,0,7,,,,,0,,,77,85
84736,note_off,,,,,64,0,7,,,,,0,,,77,100
84768,note_on,,,,,32,0,7,,,,,0,,,81,85
84800,note_off,,,,,128,0,8,,,,,1,,,81,100
84800,note_off,,,,,128,0,9,,,,,2,,,77,100
84800,note_off,,,,,128,0,10,,,,,3,,,74,100
84800,note_off,,,,,128,0,11,,,,,4,,,62,100
84832,note_off,,,,,64,0,7,,,,,0,,,81,100
84864,note_on,,,,,32,0,7,,,,,0,,,74,85
84864,note_on,,,,,64,0,8,,,,,1,,,81,100
84864,note_on,,,,,64,0,9,,,,,2,,,77,70
84864,note_on,,,,,64,0,10,,,,,3,,,74,70
84864,note_on,,,,,64,0,11,,,,,4,,,62,70
84928,note_off,,,,,64,0,7,,,,,0,,,74,100
84928,note_off,,,,,64,0,8,,,,,1,,,81,100
84960,note_on,,,,,32,0,8,,,,,1,,,82,100
84960,note_on,,,,,32,0,7,,,,,0,,,81,85
84992,note_off,,,,,128,0,9,,,,,2,,,77,100
84992,note_off,,,,,128,0,11,,,,,4,,,62,100
84992,note_off,,,,,128,0,10,,,,,3,,,74,100
85024,note_off,,,,,64,0,8,,,,,1,,,82,100
85024,note_off,,,,,64,0,7,,,,,0,,,81,100
85056,note_on,,,,,64,0,9,,,,,2,,,77,70
85056,note_on,,,,,32,0,7,,,,,0,,,77,85
85056,note_on,,,,,32,0,8,,,,,1,,,81,100
85056,note_on,,,,,64,0,10,,,,,3,,,74,70
85056,note_on,,,,,64,0,11,,,,,4,,,62,70
85120,note_off,,,,,64,0,7,,,,,0,,,77,100
85152,note_on,,,,,32,0,7,,,,,0,,,81,85
85184,note_off,,,,,128,0,10,,,,,3,,,74,100
85184,note_off,,,,,128,0,9,,,,,2,,,77,100
85184,note_off,,,,,128,0,11,,,,,4,,,62,100
85184,note_off,,,,,128,0,8,,,,,1,,,81,100
85216,note_off,,,,,64,0,7,,,,,0,,,81,100
85248,note_on,,,,,64,0,9,,,,,2,,,77,70
85248,note_on,,,,,32,0,7,,,,,0,,,74,85
85248,note_on,,,,,64,0,11,,,,,4,,,62,70
85248,note_on,,,,,64,0,10,,,,,3,,,74,70
85312,note_off,,,,,64,0,7,,,,,0,,,74,100
85344,note_on,,,,,32,0,7,,,,,0,,,81,85
85376,note_off,,,,,128,0,11,,,,,4,,,62,100
85376,note_off,,,,,128,0,9,,,,,2,,,77,100
85376,note_off,,,,,128,0,10,,,,,3,,,74,100
85408,note_off,,,,,64,0,7,,,,,0,,,81,100
85440,note_on,,,,,256,0,8,,,,,1,,,77,100
85440,note_on,,,,,64,0,11,,,,,4,,,62,70
85440,note_on,,,,,64,0,9,,,,,2,,,77,70
85440,note_on,,,,,64,0,10,,,,,3,,,74,70
85440,note_on,,,,,32,0,7,,,,,0,,,77,100
85504,note_off,,,,,64,0,7,,,,,0,,,77,100
85536,note_on,,,,,32,0,7,,,,,0,,,81,85
85568,note_off,,,,,128,0,9,,,,,2,,,77,100
85568,note_off,,,,,128,0,8,,,,,1,,,77,100
85568,note_off,,,,,128,0,11,,,,,4,,,62,100
85568,note_off,,,,,128,0,10,,,,,3,,,74,100
85600,note_off,,,,,64,0,7,,,,,0,,,81,100
85632,note_on,,,,,64,0,10,,,,,3,,,74,70
85632,note_on,,,,,32,0,7,,,,,0,,,74,85
85632,note_on,,,,,64,0,9,,,,,2,,,77,70
85632,note_on,,,,,64,0,8,,,,,1,,,77,100
85632,note_on,,,,,64,0,11,,,,,4,,,62,70
85696,note_off,,,,,64,0,8,,,,,1,,,77,100
85696,note_off,,,,,64,0,7,,,,,0,,,74,100
85728,note_on,,,,,32,0,7,,,,,0,,,81,85
85728,note_on,,,,,32,0,8,,,,,1,,,79,100
85760,note_off,,,,,128,0,10,,,,,3,,,74,100
85760,note_off,,,,,128,0,9,,,,,2,,,77,100
85760,note_off,,,,,128,0,11,,,,,4,,,62,100
85792,note_off,,,,,64,0,7,,,,,0,,,81,100
85792,note_off,,,,,64,0,8,,,,,1,,,79,100
85824,note_on,,,,,64,0,11,,,,,4,,,62,70
85824,note_on,,,,,64,0,10,,,,,3,,,74,70
85824,note_on,,,,,32,0,8,,,,,1,,,77,100
85824,note_on,,,,,32,0,7,,,,,0,,,77,100
85824,note_on,,,,,64,0,9,,,,,2,,,77,70
85888,note_off,,,,,64,0,7,,,,,0,,,77,100
85920,note_on,,,,,32,0,7,,,,,0,,,81,85
85952,note_off,,,,,128,0,10,,,,,3,,,74,100
85952,note_off,,,,,128,0,8,,,,,1,,,77,100
85952,note_off,,,,,128,0,9,,,,,2,,,77,100
85952,note_off,,,,,128,0,11,,,,,4,,,62,100
85984,note_off,,,,,64,0,7,,,,,0,,,81,100
86016,note_on,,,,,32,0,7,,,,,0,,,74,85
86016,note_on,,,,,64,0,10,,,,,3,,,74,70
86016,note_on,,,,,64,0,9,,,,,2,,,77,70
86016,note_on,,,,,64,0,11,,,,,4,,,58,70
86080,note_off,,,,,64,0,7,,,,,0,,,74,100
86112,note_on,,,,,32,0,7,,,,,0,,,82,85
86144,note_off,,,,,128,0,10,,,,,3,,,74,100
86144,note_off,,,,,128,0,9,,,,,2,,,77,100
86144,note_off,,,,,128,0,11,,,,,4,,,58,100
86176,note_off,,,,,64,0,7,,,,,0,,,82,100
86208,note_on,,,,,64,0,11,,,,,4,,,58,70
86208,note_on,,,,,64,0,9,,,,,2,,,77,70
86208,note_on,,,,,256,0,8,,,,,1,,,74,100
86208,note_on,,,,,64,0,10,,,,,3,,,74,70
86208,note_on,,,,,32,0,7,,,,,0,,,77,85
86272,note_off,,,,,64,0,7,,,,,0,,,77,100
86304,note_on,,,,,32,0,7,,,,,0,,,82,85
86336,note_off,,,,,128,0,11,,,,,4,,,58,100
86336,note_off,,,,,128,0,9,,,,,2,,,77,100
86336,note_off,,,,,128,0,8,,,,,1,,,74,100
86336,note_off,,,,,128,0,10,,,,,3,,,74,100
86368,note_off,,,,,64,0,7,,,,,0,,,82,100
86400,note_on,,,,,32,0,7,,,,,0,,,74,85
86400,note_on,,,,,64,0,9,,,,,2,,,77,70
86400,note_on,,,,,64,0,8,,,,,1,,,74,100
86400,note_on,,,,,64,0,10,,,,,3,,,74,70
86400,note_on,,,,,64,0,11,,,,,4,,,58,70
86464,note_off,,,,,64,0,8,,,,,1,,,74,100
86464,note_off,,,,,64,0,7,,,,,0,,,74,100
86496,note_on,,,,,32,0,8,,,,,1,,,76,100
86496,note_on,,,,,32,0,7,,,,,0,,,82,85
86528,note_off,,,,,128,0,10,,,,,3,,,74,100
86528,note_off,,,,,128,0,11,,,,,4,,,58,100
86528,note_off,,,,,128,0,9,,,,,2,,,77,100
86560,note_off,,,,,64,0,7,,,,,0,,,82,100
86560,note_off,,,,,64,0,8,,,,,1,,,76,100
86592,note_on,,,,,32,0,7,,,,,0,,,77,85
86592,note_on,,,,,32,0,8,,,,,1,,,74,100
86592,note_on,,,,,64,0,10,,,,,3,,,74,70
86592,note_on,,,,,64,0,9,,,,,2,,,77,70
86592,note_on,,,,,64,0,11,,,,,4,,,58,70
86656,note_off,,,,,64,0,7,,,,,0,,,77,100
86688,note_on,,,,,32,0,7,,,,,0,,,82,85
86720,note_off,,,,,128,0,8,,,,,1,,,74,100
86720,note_off,,,,,128,0,11,,,,,4,,,58,100
86720,note_off,,,,,128,0,9,,,,,2,,,77,100
86720,note_off,,,,,128,0,10,,,,,3,,,74,100
86752,note_off,,,,,64,0,7,,,,,0,,,82,100
86784,note_on,,,,,32,0,7,,,,,0,,,74,85
86784,note_on,,,,,64,0,9,,,,,2,,,77,70
86784,note_on,,,,,64,0,11,,,,,4,,,58,70
86784,note_on,,,,,64,0,10,,,,,3,,,74,70
86848,note_off,,,,,64,0,7,,,,,0,,,74,100
86880,note_on,,,,,32,0,7,,,,,0,,,82,85
86912,note_off,,,,,128,0,9,,,,,2,,,77,100
86912,note_off,,,,,128,0,11,,,,,4,,,58,100
86912,note_off,,,,,128,0,10,,,,,3,,,74,100
86944,note_off,,,,,64,0,7,,,,,0,,,82,100
86976,note_on,,,,,256,0,8,,,,,1,,,70,100
86976,note_on,,,,,64,0,9,,,,,2,,,77,70
86976,note_on,,,,,32,0,7,,,,,0,,,77,85
86976,note_on,,,,,64,0,11,,,,,4,,,58,70
86976,note_on,,,,,64,0,10,,,,,3,,,74,70
87040,note_off,,,,,64,0,7,,,,,0,,,77,100
87072,note_on,,,,,32,0,7,,,,,0,,,82,85
87104,note_off,,,,,128,0,10,,,,,3,,,74,100
87104,note_off,,,,,128,0,9,,,,,2,,,77,100
87104,note_off,,,,,128,0,8,,,,,1,,,70,100
87104,note_off,,,,,128,0,11,,,,,4,,,58,100
87136,note_off,,,,,64,0,7,,,,,0,,,82,100
87168,note_on,,,,,64,0,9,,,,,2,,,77,70
87168,note_on,,,,,64,0,11,,,,,4,,,58,70
87168,note_on,,,,,64,0,8,,,,,1,,,70,100
87168,note_on,,,,,64,0,10,,,,,3,,,74,70
87168,note_on,,,,,32,0,7,,,,,0,,,74,85
87232,note_off,,,,,64,0,7,,,,,0,,,74,100
87232,note_off,,,,,64,0,8,,,,,1,,,70,100
87264,note_on,,,,,32,0,8,,,,,1,,,72,100
87264,note_on,,,,,32,0,7,,,,,0,,,82,85
87296,note_off,,,,,128,0,10,,,,,3,,,74,100
87296,note_off,,,,,128,0,9,,,,,2,,,77,100
87296,note_off,,,,,128,0,11,,,,,4,,,58,100
87328,note_off,,,,,64,0,7,,,,,0,,,82,100
87328,note_off,,,,,64,0,8,,,,,1,,,72,100
87360,note_on,,,,,64,0,10,,,,,3,,,74,70
87360,note_on,,,,,64,0,11,,,,,4,,,58,70
87360,note_on,,,,,32,0,8,,,,,1,,,70,100
87360,note_on,,,,,64,0,9,,,,,2,,,77,70
87360,note_on,,,,,32,0,7,,,,,0,,,77,85
87424,note_off,,,,,64,0,7,,,,,0,,,77,100
87456,note_on,,,,,32,0,7,,,,,0,,,82,85
87488,note_off,,,,,128,0,8,,,,,1,,,70,100
87488,note_off,,,,,128,0,9,,,,,2,,,77,100
87488,note_off,,,,,128,0,11,,,,,4,,,58,100
87488,note_off,,,,,128,0,10,,,,,3,,,74,100
87520,note_off,,,,,64,0,7,,,,,0,,,82,100
87552,note_on,,,,,64,0,10,,,,,3,,,76,70
87552,note_on,,,,,64,0,11,,,,,4,,,60,70
87552,note_on,,,,,32,0,7,,,,,0,,,72,85
87552,note_on,,,,,64,0,9,,,,,2,,,79,70
87616,note_off,,,,,64,0,7,,,,,0,,,72,100
87648,note_on,,,,,32,0,7,,,,,0,,,82,85
87680,note_off,,,,,128,0,11,,,,,4,,,60,100
87680,note_off,,,,,128,0,9,,,,,2,,,79,100
87680,note_off,,,,,128,0,10,,,,,3,,,76,100
87712,note_off,,,,,64,0,7,,,,,0,,,82,100
87744,note_on,,,,,64,0,9,,,,,2,,,79,70
87744,note_on,,,,,256,0,8,,,,,1,,,79,100
87744,note_on,,,,,64,0,11,,,,,4,,,60,70
87744,note_on,,,,,32,0,7,,,,,0,,,76,85
87744,note_on,,,,,64,0,10,,,,,3,,,76,70
87808,note_off,,,,,64,0,7,,,,,0,,,76,100
87840,note_on,,,,,32,0,7,,,,,0,,,82,85
87872,note_off,,,,,128,0,10,,,,,3,,,76,100
87872,note_off,,,,,128,0,9,,,,,2,,,79,100
87872,note_off,,,,,128,0,8,,,,,1,,,79,100
87872,note_off,,,,,128,0,11,,,,,4,,,60,100
87904,note_off,,,,,64,0,7,,,,,0,,,82,100
87936,note_on,,,,,64,0,11,,,,,4,,,60,70
87936,note_on,,,,,32,0,7,,,,,0,,,72,85
87936,note_on,,,,,64,0,9,,,,,2,,,79,70
87936,note_on,,,,,64,0,10,,,,,3,,,76,70
87936,note_on,,,,,64,0,8,,,,,1,,,79,100
88000,note_off,,,,,64,0,7,,,,,0,,,72,100
88000,note_off,,,,,64,0,8,,,,,1,,,79,100
88032,note_on,,,,,32,0,7,,,,,0,,,82,100
88032,note_on,,,,,32,0,8,,,,,1,,,81,100
88064,note_off,,,,,128,0,9,,,,,2,,,79,100
88064,note_off,,,,,128,0,10,,,,,3,,,76,100
88064,note_off,,,,,128,0,11,,,,,4,,,60,100
88096,note_off,,,,,64,0,8,,,,,1,,,81,100
88096,note_off,,,,,64,0,7,,,,,0,,,82,100
88128,note_on,,,,,64,0,10,,,,,3,,,76,70
88128,note_on,,,,,64,0,9,,,,,2,,,79,70
88128,note_on,,,,,64,0,11,,,,,4,,,60,70
88128,note_on,,,,,32,0,8,,,,,1,,,79,100
88128,note_on,,,,,32,0,7,,,,,0,,,76,85
88192,note_off,,,,,64,0,7,,,,,0,,,76,100
88224,note_on,,,,,32,0,7,,,,,0,,,82,85
88256,note_off,,,,,128,0,10,,,,,3,,,76,100
88256,note_off,,,,,128,0,9,,,,,2,,,79,100
88256,note_off,,,,,128,0,11,,,,,4,,,60,100
88256,note_off,,,,,128,0,8,,,,,1,,,79,100
88288,note_off,,,,,64,0,7,,,,,0,,,82,100
88320,note_on,,,,,32,0,7,,,,,0,,,72,85
88320,note_on,,,,,64,0,10,,,,,3,,,76,70
88320,note_on,,,,,64,0,11,,,,,4,,,60,70
88320,note_on,,,,,64,0,9,,,,,2,,,79,70
88384,note_off,,,,,64,0,7,,,,,0,,,72,100
88416,note_on,,,,,32,0,7,,,,,0,,,82,85
88448,note_off,,,,,128,0,11,,,,,4,,,60,100
88448,note_off,,,,,128,0,10,,,,,3,,,76,100
88448,note_off,,,,,128,0,9,,,,,2,,,79,100
88480,note_off,,,,,64,0,7,,,,,0,,,82,100
88512,note_on,,,,,32,0,7,,,,,0,,,72,85
88512,note_on,,,,,64,0,11,,,,,4,,,60,70
88512,note_on,,,,,256,0,8,,,,,1,,,76,100
88512,note_on,,,,,64,0,10,,,,,3,,,76,70
88512,note_on,,,,,64,0,9,,,,,2,,,79,70
88576,note_off,,,,,64,0,7,,,,,0,,,72,100
88608,note_on,,,,,32,0,7,,,,,0,,,82,85
88640,note_off,,,,,128,0,10,,,,,3,,,76,100
88640,note_off,,,,,128,0,8,,,,,1,,,76,100
88640,note_off,,,,,128,0,11,,,,,4,,,60,100
88640,note_off,,,,,128,0,9,,,,,2,,,79,100
88672,note_off,,,,,64,0,7,,,,,0,,,82,100
88704,note_on,,,,,32,0,7,,,,,0,,,72,85
88704,note_on,,,,,64,0,11,,,,,4,,,60,70
88704,note_on,,,,,64,0,8,,,,,1,,,76,100
88704,note_on,,,,,64,0,9,,,,,2,,,79,70
88704,note_on,,,,,64,0,10,,,,,3,,,76,70
88768,note_off,,,,,64,0,8,,,,,1,,,76,100
88768,note_off,,,,,64,0,7,,,,,0,,,72,100
88800,note_on,,,,,32,0,7,,,,,0,,,82,85
88800,note_on,,,,,32,0,8,,,,,1,,,77,100
88832,note_off,,,,,128,0,9,,,,,2,,,79,100
88832,note_off,,,,,128,0,10,,,,,3,,,76,100
88832,note_off,,,,,128,0,11,,,,,4,,,60,100
88864,note_off,,,,,64,0,7,,,,,0,,,82,100
88864,note_off,,,,,64,0,8,,,,,1,,,77,100
88896,note_on,,,,,64,0,9,,,,,2,,,79,70
88896,note_on,,,,,32,0,7,,,,,0,,,72,85
88896,note_on,,,,,64,0,11,,,,,4,,,60,70
88896,note_on,,,,,64,0,10,,,,,3,,,76,70
88896,note_on,,,,,32,0,8,,,,,1,,,76,100
88960,note_off,,,,,64,0,7,,,,,0,,,72,100
88992,note_on,,,,,32,0,7,,,,,0,,,82,85
89024,note_off,,,,,128,0,11,,,,,4,,,60,100
89024,note_off,,,,,128,0,10,,,,,3,,,76,100
89024,note_off,,,,,128,0,8,,,,,1,,,76,100
89024,note_off,,,,,128,0,9,,,,,2,,,79,100
89056,note_off,,,,,64,0,7,,,,,0,,,82,100
89088,note_on,,,,,64,0,9,,,,,2,,,81,70
89088,note_on,,,,,32,0,7,,,,,0,,,72,85
89088,note_on,,,,,64,0,11,,,,,4,,,65,70
89088,note_on,,,,,64,0,10,,,,,3,,,72,70
89152,note_off,,,,,64,0,7,,,,,0,,,72,100
89184,note_on,,,,,32,0,7,,,,,0,,,81,85
89216,note_off,,,,,128,0,10,,,,,3,,,72,100
89216,note_off,,,,,128,0,9,,,,,2,,,81,100
89216,note_off,,,,,128,0,11,,,,,4,,,65,100
89248,note_off,,,,,64,0,7,,,,,0,,,81,100
89280,note_on,,,,,64,0,11,,,,,4,,,65,70
89280,note_on,,,,,64,0,9,,,,,2,,,81,70
89280,note_on,,,,,32,0,7,,,,,0,,,77,85
89280,note_on,,,,,256,0,8,,,,,1,,,72,100
89280,note_on,,,,,64,0,10,,,,,3,,,72,70
89344,note_off,,,,,64,0,7,,,,,0,,,77,100
89376,note_on,,,,,32,0,7,,,,,0,,,81,85
89408,note_off,,,,,128,0,9,,,,,2,,,81,100
89408,note_off,,,,,128,0,8,,,,,1,,,72,100
89408,note_off,,,,,128,0,10,,,,,3,,,72,100
89408,note_off,,,,,128,0,11,,,,,4,,,65,100
89440,note_off,,,,,64,0,7,,,,,0,,,81,100
89472,note_on,,,,,64,0,11,,,,,4,,,65,70
89472,note_on,,,,,64,0,8,,,,,1,,,72,100
89472,note_on,,,,,64,0,9,,,,,2,,,81,70
89472,note_on,,,,,32,0,7,,,,,0,,,72,85
89472,note_on,,,,,64,0,10,,,,,3,,,72,70
89536,note_off,,,,,64,0,7,,,,,0,,,72,100
89536,note_off,,,,,64,0,8,,,,,1,,,72,100
89568,note_on,,,,,32,0,8,,,,,1,,,74,100
89568,note_on,,,,,32,0,7,,,,,0,,,81,85
89600,note_off,,,,,128,0,10,,,,,3,,,72,100
89600,note_off,,,,,128,0,11,,,,,4,,,65,100
89600,note_off,,,,,128,0,9,,,,,2,,,81,100
89632,note_off,,,,,64,0,7,,,,,0,,,81,100
89632,note_off,,,,,64,0,8,,,,,1,,,74,100
89664,note_on,,,,,64,0,10,,,,,3,,,72,70
89664,note_on,,,,,64,0,11,,,,,4,,,65,70
89664,note_on,,,,,32,0,8,,,,,1,,,72,100
89664,note_on,,,,,64,0,9,,,,,2,,,81,70
89664,note_on,,,,,32,0,7,,,,,0,,,77,85
89728,note_off,,,,,64,0,7,,,,,0,,,77,100
89760,note_on,,,,,32,0,7,,,,,0,,,81,85
89792,note_off,,,,,128,0,11,,,,,4,,,65,100
89792,note_off,,,,,128,0,10,,,,,3,,,72,100
89792,note_off,,,,,128,0,8,,,,,1,,,72,100
89792,note_off,,,,,128,0,9,,,,,2,,,81,100
89824,note_off,,,,,64,0,7,,,,,0,,,81,100
89856,note_on,,,,,64,0,11,,,,,4,,,65,70
89856,note_on,,,,,32,0,7,,,,,0,,,72,85
89856,note_on,,,,,64,0,10,,,,,3,,,72,70
89856,note_on,,,,,64,0,9,,,,,2,,,81,70
89920,note_off,,,,,64,0,7,,,,,0,,,72,100
89952,note_on,,,,,32,0,7,,,,,0,,,81,85
89984,note_off,,,,,128,0,9,,,,,2,,,81,100
89984,note_off,,,,,128,0,11,,,,,4,,,65,100
89984,note_off,,,,,128,0,10,,,,,3,,,72,100
90016,note_off,,,,,64,0,7,,,,,0,,,81,100
90048,note_on,,,,,32,0,7,,,,,0,,,77,85
90048,note_on,,,,,64,0,10,,,,,3,,,72,70
90048,note_on,,,,,64,0,11,,,,,4,,,65,70
90048,note_on,,,,,256,0,8,,,,,1,,,69,100
90048,note_on,,,,,64,0,9,,,,,2,,,81,70
90112,note_off,,,,,64,0,7,,,,,0,,,77,100
90144,note_on,,,,,32,0,7,,,,,0,,,81,85
90176,note_off,,,,,128,0,9,,,,,2,,,81,100
90176,note_off,,,,,128,0,10,,,,,3,,,72,100
90176,note_off,,,,,128,0,11,,,,,4,,,65,100
90176,note_off,,,,,128,0,8,,,,,1,,,69,100
90208,note_off,,,,,64,0,7,,,,,0,,,81,100
90240,note_on,,,,,64,0,10,,,,,3,,,72,70
90240,note_on,,,,,64,0,11,,,,,4,,,65,70
90240,note_on,,,,,32,0,7,,,,,0,,,72,85
90240,note_on,,,,,64,0,8,,,,,1,,,69,100
90240,note_on,,,,,64,0,9,,,,,2,,,81,70
90304,note_off,,,,,64,0,7,,,,,0,,,72,100
90304,note_off,,,,,64,0,8,,,,,1,,,69,100
90336,note_on,,,,,32,0,7,,,,,0,,,81,85
90336,note_on,,,,,32,0,8,,,,,1,,,70,100
90368,note_off,,,,,128,0,10,,,,,3,,,72,100
90368,note_off,,,,,128,0,9,,,,,2,,,81,100
90368,note_off,,,,,128,0,11,,,,,4,,,65,100
90400,note_off,,,,,64,0,7,,,,,0,,,81,100
90400,note_off,,,,,64,0,8,,,,,1,,,70,100
90432,note_on,,,,,64,0,11,,,,,4,,,65,70
90432,note_on,,,,,32,0,8,,,,,1,,,69,100
90432,note_on,,,,,32,0,7,,,,,0,,,77,85
90432,note_on,,,,,64,0,10,,,,,3,,,72,70
90432,note_on,,,,,64,0,9,,,,,2,,,81,70
90496,note_off,,,,,64,0,7,,,,,0,,,77,100
90528,note_on,,,,,32,0,7,,,,,0,,,81,85
90560,note_off,,,,,128,0,8,,,,,1,,,69,100
90560,note_off,,,,,128,0,11,,,,,4,,,65,100
90560,note_off,,,,,128,0,9,,,,,2,,,81,100
90560,note_off,,,,,128,0,10,,,,,3,,,72,100
90592,note_off,,,,,64,0,7,,,,,0,,,81,100
90624,note_on,,,,,64,0,11,,,,,4,,,62,70
90624,note_on,,,,,64,0,9,,,,,2,,,77,70
90624,note_on,,,,,32,0,7,,,,,0,,,70,85
90624,note_on,,,,,64,0,10,,,,,3,,,70,70
90688,note_off,,,,,64,0,7,,,,,0,,,70,100
90720,note_on,,,,,32,0,7,,,,,0,,,81,85
90752,note_off,,,,,128,0,10,,,,,3,,,70,100
90752,note_off,,,,,128,0,11,,,,,4,,,62,100
90752,note_off,,,,,128,0,9,,,,,2,,,77,100
90784,note_off,,,,,64,0,7,,,,,0,,,81,100
90816,note_on,,,,,64,0,10,,,,,3,,,70,70
90816,note_on,,,,,64,0,11,,,,,4,,,62,70
90816,note_on,,,,,64,0,9,,,,,2,,,77,70
90816,note_on,,,,,32,0,7,,,,,0,,,77,85
90816,note_on,,,,,256,0,8,,,,,1,,,81,100
90880,note_off,,,,,64,0,7,,,,,0,,,77,100
90912,note_on,,,,,32,0,7,,,,,0,,,81,85
90944,note_off,,,,,128,0,11,,,,,4,,,62,100
90944,note_off,,,,,128,0,8,,,,,1,,,81,100
90944,note_off,,,,,128,0,9,,,,,2,,,77,100
90944,note_off,,,,,128,0,10,,,,,3,,,70,100
90976,note_off,,,,,64,0,7,,,,,0,,,81,100
91008,note_on,,,,,64,0,9,,,,,2,,,77,70
91008,note_on,,,,,64,0,11,,,,,4,,,62,70
91008,note_on,,,,,32,0,7,,,,,0,,,70,85
91008,note_on,,,,,64,0,10,,,,,3,,,70,70
91008,note_on,,,,,64,0,8,,,,,1,,,81,100
91072,note_off,,,,,64,0,7,,,,,0,,,70,100
91072,note_off,,,,,64,0,8,,,,,1,,,81,100
91104,note_on,,,,,32,0,7,,,,,0,,,81,85
91104,note_on,,,,,32,0,8,,,,,1,,,82,100
91136,note_off,,,,,128,0,9,,,,,2,,,77,100
91136,note_off,,,,,128,0,10,,,,,3,,,70,100
91136,note_off,,,,,128,0,11,,,,,4,,,62,100
91168,note_off,,,,,64,0,7,,,,,0,,,81,100
91168,note_off,,,,,64,0,8,,,,,1,,,82,100
91200,note_on,,,,,64,0,11,,,,,4,,,62,70
91200,note_on,,,,,64,0,10,,,,,3,,,70,70
91200,note_on,,,,,64,0,9,,,,,2,,,77,70
91200,note_on,,,,,32,0,8,,,,,1,,,81,100
91200,note_on,,,,,32,0,7,,,,,0,,,77,85
91264,note_off,,,,,64,0,7,,,,,0,,,77,100
91296,note_on,,,,,32,0,7,,,,,0,,,81,85
91328,note_off,,,,,128,0,11,,,,,4,,,62,100
91328,note_off,,,,,128,0,9,,,,,2,,,77,100
91328,note_off,,,,,128,0,8,,,,,1,,,81,100
91328,note_off,,,,,128,0,10,,,,,3,,,70,100
91360,note_off,,,,,64,0,7,,,,,0,,,81,100
91392,note_on,,,,,32,0,7,,,,,0,,,70,85
91392,note_on,,,,,64,0,9,,,,,2,,,77,70
91392,note_on,,,,,64,0,11,,,,,4,,,62,70
91392,note_on,,,,,64,0,10,,,,,3,,,70,70
91456,note_off,,,,,64,0,7,,,,,0,,,70,100
91488,note_on,,,,,32,0,7,,,,,0,,,81,85
91520,note_off,,,,,128,0,11,,,,,4,,,62,100
91520,note_off,,,,,128,0,9,,,,,2,,,77,100
91520,note_off,,,,,128,0,10,,,,,3,,,70,100
91552,note_off,,,,,64,0,7,,,,,0,,,81,100
91584,note_on,,,,,256,0,8,,,,,1,,,77,100
91584,note_on,,,,,32,0,7,,,,,0,,,77,85
91584,note_on,,,,,64,0,11,,,,,4,,,62,70
91584,note_on,,,,,64,0,9,,,,,2,,,77,70
91584,note_on,,,,,64,0,10,,,,,3,,,70,70
91648,note_off,,,,,64,0,7,,,,,0,,,77,100
91680,note_on,,,,,32,0,7,,,,,0,,,81,85
91712,note_off,,,,,128,0,10,,,,,3,,,70,100
91712,note_off,,,,,128,0,11,,,,,4,,,62,100
91712,note_off,,,,,128,0,9,,,,,2,,,77,100
91712,note_off,,,,,128,0,8,,,,,1,,,77,100
91744,note_off,,,,,64,0,7,,,,,0,,,81,100
91776,note_on,,,,,64,0,11,,,,,4,,,62,70
91776,note_on,,,,,64,0,10,,,,,3,,,70,70
91776,note_on,,,,,64,0,8,,,,,1,,,77,100
91776,note_on,,,,,64,0,9,,,,,2,,,77,70
91776,note_on,,,,,32,0,7,,,,,0,,,70,85
91840,note_off,,,,,64,0,7,,,,,0,,,70,100
91840,note_off,,,,,64,0,8,,,,,1,,,77,100
91872,note_on,,,,,32,0,8,,,,,1,,,79,100
91872,note_on,,,,,32,0,7,,,,,0,,,81,85
91904,note_off,,,,,128,0,10,,,,,3,,,70,100
91904,note_off,,,,,128,0,9,,,,,2,,,77,100
91904,note_off,,,,,128,0,11,,,,,4,,,62,100
91936,note_off,,,,,64,0,8,,,,,1,,,79,100
91936,note_off,,,,,64,0,7,,,,,0,,,81,100
91968,note_on,,,,,32,0,7,,,,,0,,,77,85
91968,note_on,,,,,64,0,11,,,,,4,,,62,70
91968,note_on,,,,,64,0,10,,,,,3,,,70,70
91968,note_on,,,,,64,0,9,,,,,2,,,77,70
91968,note_on,,,,,32,0,8,,,,,1,,,77,100
92032,note_off,,,,,64,0,7,,,,,0,,,77,100
92064,note_on,,,,,32,0,7,,,,,0,,,81,85
92096,note_off,,,,,128,0,10,,,,,3,,,70,100
92096,note_off,,,,,128,0,9,,,,,2,,,77,100
92096,note_off,,,,,128,0,11,,,,,4,,,62,100
92096,note_off,,,,,128,0,8,,,,,1,,,77,100
92128,note_off,,,,,64,0,7,,,,,0,,,81,100
92160,note_on,,,,,64,0,10,,,,,3,,,70,70
92160,note_on,,,,,32,0,7,,,,,0,,,70,85
92160,note_on,,,,,64,0,9,,,,,2,,,74,70
92160,note_on,,,,,64,0,11,,,,,4,,,55,70
92224,note_off,,,,,64,0,7,,,,,0,,,70,100
92256,note_on,,,,,32,0,7,,,,,0,,,79,85
92288,note_off,,,,,128,0,10,,,,,3,,,70,100
92288,note_off,,,,,128,0,11,,,,,4,,,55,100
92288,note_off,,,,,128,0,9,,,,,2,,,74,100
92320,note_off,,,,,64,0,7,,,,,0,,,79,100
92352,note_on,,,,,64,0,11,,,,,4,,,55,70
92352,note_on,,,,,256,0,8,,,,,1,,,74,100
92352,note_on,,,,,32,0,7,,,,,0,,,74,85
92352,note_on,,,,,64,0,9,,,,,2,,,74,70
92352,note_on,,,,,64,0,10,,,,,3,,,70,70
92416,note_off,,,,,64,0,7,,,,,0,,,74,100
92448,note_on,,,,,32,0,7,,,,,0,,,79,85
92480,note_off,,,,,128,0,11,,,,,4,,,55,100
92480,note_off,,,,,128,0,10,,,,,3,,,70,100
92480,note_off,,,,,128,0,9,,,,,2,,,74,100
92480,note_off,,,,,128,0,8,,,,,1,,,74,100
92512,note_off,,,,,64,0,7,,,,,0,,,79,100
92544,note_on,,,,,64,0,10,,,,,3,,,70,70
92544,note_on,,,,,64,0,9,,,,,2,,,74,70
92544,note_on,,,,,64,0,11,,,,,4,,,55,70
92544,note_on,,,,,64,0,8,,,,,1,,,74,100
92544,note_on,,,,,32,0,7,,,,,0,,,70,85
92608,note_off,,,,,64,0,8,,,,,1,,,74,100
92608,note_off,,,,,64,0,7,,,,,0,,,70,100
92640,note_on,,,,,32,0,7,,,,,0,,,79,85
92640,note_on,,,,,32,0,8,,,,,1,,,76,100
92672,note_off,,,,,128,0,9,,,,,2,,,74,100
92672,note_off,,,,,128,0,10,,,,,3,,,70,100
92672,note_off,,,,,128,0,11,,,,,4,,,55,100
92704,note_off,,,,,64,0,8,,,,,1,,,76,100
92704,note_off,,,,,64,0,7,,,,,0,,,79,100
92736,note_on,,,,,32,0,7,,,,,0,,,74,85
92736,note_on,,,,,32,0,8,,,,,1,,,74,100
92736,note_on,,,,,64,0,9,,,,,2,,,74,70
92736,note_on,,,,,64,0,11,,,,,4,,,55,70
92736,note_on,,,,,64,0,10,,,,,3,,,70,70
92800,note_off,,,,,64,0,7,,,,,0,,,74,100
92832,note_on,,,,,32,0,7,,,,,0,,,79,85
92864,note_off,,,,,128,0,9,,,,,2,,,74,100
92864,note_off,,,,,128,0,8,,,,,1,,,74,100
92864,note_off,,,,,128,0,10,,,,,3,,,70,100
92864,note_off,,,,,128,0,11,,,,,4,,,55,100
92896,note_off,,,,,64,0,7,,,,,0,,,79,100
92928,note_on,,,,,64,0,9,,,,,2,,,74,70
92928,note_on,,,,,64,0,10,,,,,3,,,70,70
92928,note_on,,,,,32,0,7,,,,,0,,,70,85
92928,note_on,,,,,64,0,11,,,,,4,,,55,70
92992,note_off,,,,,64,0,7,,,,,0,,,70,100
93024,note_on,,,,,32,0,7,,,,,0,,,79,85
93056,note_off,,,,,128,0,11,,,,,4,,,55,100
93056,note_off,,,,,128,0,9,,,,,2,,,74,100
93056,note_off,,,,,128,0,10,,,,,3,,,70,100
93088,note_off,,,,,64,0,7,,,,,0,,,79,100
93120,note_on,,,,,64,0,11,,,,,4,,,55,70
93120,note_on,,,,,64,0,9,,,,,2,,,74,70
93120,note_on,,,,,64,0,10,,,,,3,,,70,70
93120,note_on,,,,,256,0,8,,,,,1,,,70,100
93120,note_on,,,,,32,0,7,,,,,0,,,74,85
93184,note_off,,,,,64,0,7,,,,,0,,,74,100
93216,note_on,,,,,32,0,7,,,,,0,,,79,85
93248,note_off,,,,,128,0,8,,,,,1,,,70,100
93248,note_off,,,,,128,0,11,,,,,4,,,55,100
93248,note_off,,,,,128,0,10,,,,,3,,,70,100
93248,note_off,,,,,128,0,9,,,,,2,,,74,100
93280,note_off,,,,,64,0,7,,,,,0,,,79,100
93312,note_on,,,,,64,0,9,,,,,2,,,74,70
93312,note_on,,,,,64,0,10,,,,,3,,,70,70
93312,note_on,,,,,32,0,7,,,,,0,,,70,85
93312,note_on,,,,,64,0,8,,,,,1,,,70,100
93312,note_on,,,,,64,0,11,,,,,4,,,55,70
93376,note_off,,,,,64,0,7,,,,,0,,,70,100
93376,note_off,,,,,64,0,8,,,,,1,,,70,100
93408,note_on,,,,,32,0,8,,,,,1,,,72,100
93408,note_on,,,,,32,0,7,,,,,0,,,79,85
93440,note_off,,,,,128,0,10,,,,,3,,,70,100
93440,note_off,,,,,128,0,9,,,,,2,,,74,100
93440,note_off,,,,,128,0,11,,,,,4,,,55,100
93472,note_off,,,,,64,0,7,,,,,0,,,79,100
93472,note_off,,,,,64,0,8,,,,,1,,,72,100
93504,note_on,,,,,64,0,9,,,,,2,,,74,70
93504,note_on,,,,,32,0,7,,,,,0,,,74,85
93504,note_on,,,,,32,0,8,,,,,1,,,70,100
93504,note_on,,,,,64,0,11,,,,,4,,,55,70
93504,note_on,,,,,64,0,10,,,,,3,,,70,70
93568,note_off,,,,,64,0,7,,,,,0,,,74,100
93600,note_on,,,,,32,0,7,,,,,0,,,79,85
93632,note_off,,,,,128,0,9,,,,,2,,,74,100
93632,note_off,,,,,128,0,8,,,,,1,,,70,100
93632,note_off,,,,,128,0,10,,,,,3,,,70,100
93632,note_off,,,,,128,0,11,,,,,4,,,55,100
93664,note_off,,,,,64,0,7,,,,,0,,,79,100
93696,note_on,,,,,64,0,8,,,,,1,,,69,100
93696,note_on,,,,,10496,0,12,,,,,5,,,45,100
93696,note_on,,,,,10496,0,15,,,,,7,,,45,100
93696,note_on,,,,,10496,0,13,,,,,6,,,33,100
93696,note_on,,,,,32,0,7,,,,,0,,,73,100
93696,note_on,,,,,0,0,14,,,,,7,,,73,100
93696,note_on,,,,,10496,0,14,,,,,7,,,76,100
93696,note_on,,,,,64,0,11,,,,,4,,,57,100
93696,note_on,,,,,64,0,10,,,,,3,,,64,100
93696,note_on,,,,,64,0,9,,,,,2,,,73,100
93824,note_off,,,,,128,0,12,,,,,5,,,45,100
93824,note_off,,,,,128,0,15,,,,,7,,,45,100
93824,note_off,,,,,128,0,7,,,,,0,,,73,100
93824,note_off,,,,,128,0,10,,,,,3,,,64,100
93824,note_off,,,,,128,0,8,,,,,1,,,69,100
93824,note_off,,,,,128,0,14,,,,,7,,,76,100
93824,note_off,,,,,0,0,14,,,,,7,,,73,100
93824,note_off,,,,,128,0,13,,,,,6,,,33,100
93884,program_change,,,,,60,0,8,,,,,1,48,,,
93888,note_on,,,,,64,0,12,,,,,5,,,57,94
93888,note_on,,,,,64,0,10,,,,,3,,,73,94
93888,note_on,,,,,4,0,8,,,,,1,,,73,94
93888,note_on,,,,,64,0,7,,,,,0,,,69,94
93888,note_on,,,,,64,0,14,,,,,7,,,73,100
93888,note_on,,,,,64,0,13,,,,,6,,,45,94
93888,note_on,,,,,64,0,15,,,,,7,,,57,100
93952,note_off,,,,,64,0,13,,,,,6,,,45,100
93952,note_off,,,,,64,0,8,,,,,1,,,73,100
93952,note_off,,,,,64,0,10,,,,,3,,,73,100
93952,note_off,,,,,64,0,12,,,,,5,,,57,100
93952,note_off,,,,,64,0,15,,,,,7,,,57,100
93952,note_off,,,,,256,0,9,,,,,2,,,73,100
93952,note_off,,,,,64,0,14,,,,,7,,,73,100
93952,note_off,,,,,256,0,11,,,,,4,,,57,100
93984,note_on,,,,,32,0,14,,,,,7,,,74,100
93984,note_on,,,,,32,0,12,,,,,5,,,59,91
93984,note_on,,,,,32,0,10,,,,,3,,,74,91
93984,note_on,,,,,32,0,15,,,,,7,,,59,100
93984,note_on,,,,,32,0,13,,,,,6,,,47,91
93984,note_on,,,,,32,0,8,,,,,1,,,74,91
94016,note_off,,,,,128,0,7,,,,,0,,,69,100
94048,note_off,,,,,64,0,14,,,,,7,,,74,100
94048,note_off,,,,,64,0,10,,,,,3,,,74,100
94048,note_off,,,,,64,0,13,,,,,6,,,47,100
94048,note_off,,,,,64,0,15,,,,,7,,,59,100
94048,note_off,,,,,64,0,8,,,,,1,,,74,100
94048,note_off,,,,,64,0,12,,,,,5,,,59,100
94080,note_on,,,,,32,0,15,,,,,7,,,61,100
94080,note_on,,,,,32,0,10,,,,,3,,,76,88
94080,note_on,,,,,32,0,13,,,,,6,,,49,88
94080,note_on,,,,,32,0,12,,,,,5,,,61,88
94080,note_on,,,,,32,0,8,,,,,1,,,76,88
94080,note_on,,,,,32,0,14,,,,,7,,,76,100
94080,program_change,,,,,64,0,7,,,,,0,48,,,
94208,note_off,,,,,128,0,14,,,,,7,,,76,100
94208,note_off,,,,,128,0,13,,,,,6,,,49,100
94208,note_off,,,,,128,0,8,,,,,1,,,76,100
94208,note_off,,,,,128,0,10,,,,,3,,,76,100
94208,note_off,,,,,128,0,15,,,,,7,,,61,100
94208,note_off,,,,,128,0,12,,,,,5,,,61,100
94272,note_on,,,,,320,0,9,,,,,2,,,76,82
94272,note_on,,,,,64,0,15,,,,,7,,,57,100
94272,note_on,,,,,192,0,7,,,,,0,,,76,82
94272,note_on,,,,,320,0,11,,,,,4,,,64,82
94272,note_on,,,,,64,0,8,,,,,1,,,73,82
94272,note_on,,,,,64,0,14,,,,,7,,,73,100
94272,note_on,,,,,64,0,10,,,,,3,,,73,82
94272,note_on,,,,,64,0,13,,,,,6,,,45,82
94272,note_on,,,,,64,0,12,,,,,5,,,57,82
94400,note_off,,,,,128,0,12,,,,,5,,,57,100
94400,note_off,,,,,128,0,7,,,,,0,,,76,100
94400,note_off,,,,,128,0,8,,,,,1,,,73,100
94400,note_off,,,,,128,0,13,,,,,6,,,45,100
94400,note_off,,,,,128,0,14,,,,,7,,,73,100
94400,note_off,,,,,128,0,10,,,,,3,,,73,100
94400,note_off,,,,,128,0,11,,,,,4,,,64,100
94400,note_off,,,,,128,0,9,,,,,2,,,76,100
94400,note_off,,,,,128,0,15,,,,,7,,,57,100
94464,note_on,,,,,64,0,8,,,,,1,,,74,75
94464,note_on,,,,,64,0,9,,,,,2,,,76,75
94464,note_on,,,,,64,0,7,,,,,0,,,76,75
94464,note_on,,,,,64,0,11,,,,,4,,,71,75
94464,note_on,,,,,0,0,14,,,,,7,,,74,100
94464,note_on,,,,,0,0,14,,,,,7,,,71,100
94464,note_on,,,,,64,0,14,,,,,7,,,68,100
94464,note_on,,,,,64,0,13,,,,,6,,,40,75
94464,note_on,,,,,64,0,15,,,,,7,,,52,100
94464,note_on,,,,,64,0,10,,,,,3,,,74,75
94464,note_on,,,,,64,0,12,,,,,5,,,56,75
94652,note_off,,,,,188,0,9,,,,,2,,,76,100
94652,note_off,,,,,188,0,7,,,,,0,,,76,100
94656,note_on,,,,,4,0,9,,,,,2,,,74,75
94656,note_on,,,,,4,0,7,,,,,0,,,74,75
94784,note_off,,,,,128,0,7,,,,,0,,,74,100
94784,note_off,,,,,128,0,9,,,,,2,,,74,100
94848,note_on,,,,,64,0,9,,,,,2,,,80,75
94848,note_on,,,,,64,0,7,,,,,0,,,80,75
94976,note_off,,,,,0,0,14,,,,,7,,,71,100
94976,note_off,,,,,0,0,14,,,,,7,,,74,100
94976,note_off,,,,,512,0,14,,,,,7,,,68,100
95036,note_off,,,,,188,0,9,,,,,2,,,80,100
95036,note_off,,,,,188,0,7,,,,,0,,,80,100
95040,note_on,,,,,4,0,7,,,,,0,,,74,75
95040,note_on,,,,,4,0,9,,,,,2,,,74,75
95168,note_off,,,,,128,0,7,,,,,0,,,74,64
95168,note_off,,,,,128,0,9,,,,,2,,,74,64
95232,note_on,,,,,256,0,14,,,,,7,,,68,100
95232,note_on,,,,,64,0,9,,,,,2,,,83,75
95232,note_on,,,,,0,0,14,,,,,7,,,71,100
95232,note_on,,,,,0,0,14,,,,,7,,,74,100
95232,note_on,,,,,64,0,7,,,,,0,,,83,75
95420,note_off,,,,,188,0,7,,,,,0,,,83,100
95420,note_off,,,,,188,0,9,,,,,2,,,83,100
95424,note_on,,,,,4,0,9,,,,,2,,,74,75
95424,note_on,,,,,4,0,7,,,,,0,,,74,75
95552,note_off,,,,,128,0,9,,,,,2,,,74,100
95552,note_off,,,,,128,0,7,,,,,0,,,74,100
95616,note_on,,,,,64,0,7,,,,,0,,,77,75
95616,note_on,,,,,64,0,9,,,,,2,,,77,75
95804,note_off,,,,,188,0,9,,,,,2,,,77,100
95804,note_off,,,,,188,0,7,,,,,0,,,77,100
95808,note_on,,,,,4,0,7,,,,,0,,,74,75
95808,note_on,,,,,4,0,9,,,,,2,,,74,75
95936,note_off,,,,,128,0,7,,,,,0,,,74,100
95936,note_off,,,,,128,0,9,,,,,2,,,74,100
96000,note_on,,,,,64,0,7,,,,,0,,,76,75
96000,note_on,,,,,64,0,9,,,,,2,,,76,75
96188,note_off,,,,,188,0,7,,,,,0,,,76,100
96188,note_off,,,,,188,0,9,,,,,2,,,76,100
96192,note_on,,,,,4,0,9,,,,,2,,,74,75
96192,note_on,,,,,4,0,7,,,,,0,,,74,75
96260,note_off,,,,,0,0,14,,,,,7,,,74,100
96260,note_off,,,,,1028,0,14,,,,,7,,,68,100
96260,note_off,,,,,0,0,14,,,,,7,,,71,100
96320,note_off,,,,,128,0,7,,,,,0,,,74,100
96320,note_off,,,,,128,0,9,,,,,2,,,74,100
96384,note_on,,,,,64,0,9,,,,,2,,,83,75
96384,note_on,,,,,64,0,7,,,,,0,,,83,75
96572,note_off,,,,,188,0,9,,,,,2,,,83,100
96572,note_off,,,,,188,0,7,,,,,0,,,83,100
96576,note_on,,,,,4,0,9,,,,,2,,,74,75
96576,note_on,,,,,4,0,7,,,,,0,,,74,75
96704,note_off,,,,,128,0,7,,,,,0,,,74,64
96704,note_off,,,,,128,0,9,,,,,2,,,74,64
96768,note_on,,,,,64,0,9,,,,,2,,,76,75
96768,note_on,,,,,64,0,7,,,,,0,,,76,75
96768,note_on,,,,,508,0,14,,,,,7,,,68,100
96768,note_on,,,,,0,0,14,,,,,7,,,71,100
96768,note_on,,,,,0,0,14,,,,,7,,,74,100
96956,note_off,,,,,188,0,9,,,,,2,,,76,100
96956,note_off,,,,,188,0,7,,,,,0,,,76,100
96960,note_on,,,,,4,0,9,,,,,2,,,74,78
96960,note_on,,,,,4,0,7,,,,,0,,,74,78
97088,note_off,,,,,128,0,7,,,,,0,,,74,100
97088,note_off,,,,,128,0,9,,,,,2,,,74,100
97152,note_on,,,,,64,0,9,,,,,2,,,83,81
97152,note_on,,,,,64,0,7,,,,,0,,,83,81
97280,note_off,,,,,0,0,14,,,,,7,,,74,100
97280,note_off,,,,,2816,0,12,,,,,5,,,56,100
97280,note_off,,,,,2816,0,15,,,,,7,,,52,100
97280,note_off,,,,,2816,0,13,,,,,6,,,40,100
97280,note_off,,,,,0,0,14,,,,,7,,,71,100
97280,note_off,,,,,512,0,14,,,,,7,,,68,100
97340,note_off,,,,,188,0,7,,,,,0,,,83,100
97340,note_off,,,,,188,0,9,,,,,2,,,83,100
97344,note_on,,,,,4,0,7,,,,,0,,,74,84
97344,note_on,,,,,4,0,9,,,,,2,,,74,84
97472,note_off,,,,,128,0,7,,,,,0,,,74,100
97472,note_off,,,,,128,0,9,,,,,2,,,74,100
97536,note_on,,,,,256,0,12,,,,,5,,,52,87
97536,note_on,,,,,256,0,15,,,,,7,,,52,100
97536,note_on,,,,,256,0,13,,,,,6,,,40,87
97536,note_on,,,,,64,0,9,,,,,2,,,80,87
97536,note_on,,,,,64,0,7,,,,,0,,,80,87
97536,note_on,,,,,256,0,14,,,,,7,,,68,100
97536,note_on,,,,,0,0,14,,,,,7,,,71,100
97536,note_on,,,,,0,0,14,,,,,7,,,74,100
97664,note_off,,,,,128,0,9,,,,,2,,,80,100
97664,note_off,,,,,128,0,7,,,,,0,,,80,100
97728,note_on,,,,,64,0,9,,,,,2,,,76,90
97728,note_on,,,,,64,0,7,,,,,0,,,76,90
97792,note_off,,,,,0,0,14,,,,,7,,,71,100
97792,note_off,,,,,256,0,13,,,,,6,,,40,100
97792,note_off,,,,,0,0,14,,,,,7,,,74,100
97792,note_off,,,,,256,0,14,,,,,7,,,68,100
97792,note_off,,,,,256,0,15,,,,,7,,,52,100
97792,note_off,,,,,256,0,12,,,,,5,,,52,100
97796,note_off,,,,,3332,0,8,,,,,1,,,74,64
97796,note_off,,,,,3332,0,10,,,,,3,,,74,64
97796,note_off,,,,,3332,0,11,,,,,4,,,71,100
97856,note_off,,,,,128,0,9,,,,,2,,,76,100
97856,note_off,,,,,128,0,7,,,,,0,,,76,100
97920,note_on,,,,,124,0,8,,,,,1,,,72,93
97920,note_on,,,,,64,0,9,,,,,2,,,81,93
97920,note_on,,,,,64,0,7,,,,,0,,,81,93
97920,note_on,,,,,124,0,10,,,,,3,,,72,93
97920,note_on,,,,,124,0,11,,,,,4,,,64,93
98048,note_off,,,,,128,0,9,,,,,2,,,81,100
98048,note_off,,,,,128,0,10,,,,,3,,,72,100
98048,note_off,,,,,128,0,8,,,,,1,,,72,100
98048,note_off,,,,,128,0,7,,,,,0,,,81,100
98112,note_on,,,,,320,0,15,,,,,7,,,57,100
98112,note_on,,,,,320,0,13,,,,,6,,,45,96
98112,note_on,,,,,0,0,14,,,,,7,,,76,100
98112,note_on,,,,,64,0,10,,,,,3,,,81,96
98112,note_on,,,,,320,0,14,,,,,7,,,72,100
98112,note_on,,,,,320,0,12,,,,,5,,,57,96
98112,note_on,,,,,64,0,8,,,,,1,,,81,96
98112,note_on,,,,,64,0,9,,,,,2,,,72,96
98112,note_on,,,,,64,0,7,,,,,0,,,72,96
98176,note_off,,,,,256,0,11,,,,,4,,,64,100
98240,note_off,,,,,0,0,14,,,,,7,,,76,100
98240,note_off,,,,,128,0,10,,,,,3,,,81,100
98240,note_off,,,,,128,0,15,,,,,7,,,57,100
98240,note_off,,,,,128,0,9,,,,,2,,,72,100
98240,note_off,,,,,128,0,7,,,,,0,,,72,100
98240,note_off,,,,,128,0,13,,,,,6,,,45,100
98240,note_off,,,,,128,0,8,,,,,1,,,81,100
98240,note_off,,,,,128,0,14,,,,,7,,,72,100
98240,note_off,,,,,128,0,12,,,,,5,,,57,100
98304,note_on,,,,,64,0,10,,,,,3,,,81,99
98304,note_on,,,,,64,0,13,,,,,6,,,38,99
98304,note_on,,,,,64,0,14,,,,,7,,,71,100
98304,note_on,,,,,128,0,11,,,,,4,,,65,99
98304,note_on,,,,,64,0,15,,,,,7,,,50,100
98304,note_on,,,,,64,0,12,,,,,5,,,50,99
98304,note_on,,,,,64,0,9,,,,,2,,,71,99
98304,note_on,,,,,0,0,14,,,,,7,,,69,100
98304,note_on,,,,,64,0,7,,,,,0,,,71,99
98304,note_on,,,,,64,0,8,,,,,1,,,81,99
98432,note_off,,,,,128,0,10,,,,,3,,,81,100
98432,note_off,,,,,128,0,11,,,,,4,,,65,100
98432,note_off,,,,,128,0,7,,,,,0,,,71,100
98432,note_off,,,,,128,0,9,,,,,2,,,71,100
98432,note_off,,,,,128,0,8,,,,,1,,,81,100
98496,note_on,,,,,64,0,9,,,,,2,,,81,50
98496,note_on,,,,,64,0,7,,,,,0,,,81,100
98496,note_on,,,,,64,0,8,,,,,1,,,77,100
98496,note_on,,,,,64,0,10,,,,,3,,,77,50
98496,note_on,,,,,64,0,11,,,,,4,,,62,100
98560,note_off,,,,,0,0,14,,,,,7,,,69,100
98560,note_off,,,,,256,0,12,,,,,5,,,50,100
98560,note_off,,,,,256,0,13,,,,,6,,,38,100
98560,note_off,,,,,256,0,15,,,,,7,,,50,100
98560,note_off,,,,,256,0,14,,,,,7,,,71,100
98624,note_off,,,,,128,0,9,,,,,2,,,81,100
98624,note_off,,,,,128,0,7,,,,,0,,,81,100
98624,note_off,,,,,128,0,11,,,,,4,,,62,100
98624,note_off,,,,,128,0,8,,,,,1,,,77,100
98624,note_off,,,,,128,0,10,,,,,3,,,77,100
98688,note_on,,,,,0,0,14,,,,,7,,,71,100
98688,note_on,,,,,128,0,13,,,,,6,,,40,100
98688,note_on,,,,,64,0,10,,,,,3,,,76,50
98688,note_on,,,,,64,0,8,,,,,1,,,76,100
98688,note_on,,,,,64,0,11,,,,,4,,,59,100
98688,note_on,,,,,64,0,9,,,,,2,,,71,50
98688,note_on,,,,,128,0,12,,,,,5,,,52,100
98688,note_on,,,,,64,0,7,,,,,0,,,71,100
98688,note_on,,,,,128,0,14,,,,,7,,,68,100
98688,note_on,,,,,128,0,15,,,,,7,,,52,100
98752,note_off,,,,,64,0,8,,,,,1,,,76,100
98752,note_off,,,,,64,0,10,,,,,3,,,76,100
98784,note_on,,,,,32,0,10,,,,,3,,,74,50
98784,note_on,,,,,32,0,8,,,,,1,,,74,100
98816,note_off,,,,,128,0,7,,,,,0,,,71,100
98816,note_off,,,,,128,0,11,,,,,4,,,59,100
98816,note_off,,,,,128,0,9,,,,,2,,,71,100
98848,note_off,,,,,64,0,10,,,,,3,,,74,100
98848,note_off,,,,,64,0,8,,,,,1,,,74,100
98880,note_on,,,,,32,0,8,,,,,1,,,72,100
98880,note_on,,,,,64,0,9,,,,,2,,,80,50
98880,note_on,,,,,32,0,10,,,,,3,,,72,50
98880,note_on,,,,,64,0,7,,,,,0,,,80,100
98880,note_on,,,,,64,0,11,,,,,4,,,64,100
98944,note_off,,,,,64,0,8,,,,,1,,,72,100
98944,note_off,,,,,256,0,14,,,,,7,,,68,100
98944,note_off,,,,,256,0,13,,,,,6,,,40,100
98944,note_off,,,,,256,0,12,,,,,5,,,52,100
98944,note_off,,,,,64,0,10,,,,,3,,,72,100
98944,note_off,,,,,256,0,15,,,,,7,,,52,100
98944,note_off,,,,,0,0,14,,,,,7,,,71,100
98976,note_on,,,,,32,0,10,,,,,3,,,71,50
98976,note_on,,,,,32,0,8,,,,,1,,,71,100
99008,note_off,,,,,128,0,9,,,,,2,,,80,100
99008,note_off,,,,,128,0,11,,,,,4,,,64,100
99008,note_off,,,,,128,0,7,,,,,0,,,80,100
99040,note_off,,,,,64,0,8,,,,,1,,,71,100
99040,note_off,,,,,64,0,10,,,,,3,,,71,100
99072,note_on,,,,,128,0,14,,,,,7,,,64,100
99072,note_on,,,,,64,0,11,,,,,4,,,60,100
99072,note_on,,,,,64,0,9,,,,,2,,,69,50
99072,note_on,,,,,128,0,15,,,,,7,,,57,100
99072,note_on,,,,,32,0,8,,,,,1,,,69,49
99072,note_on,,,,,0,0,14,,,,,7,,,72,100
99072,note_on,,,,,128,0,13,,,,,6,,,45,100
99072,note_on,,,,,128,0,12,,,,,5,,,57,100
99072,note_on,,,,,32,0,10,,,,,3,,,69,50
99072,note_on,,,,,64,0,7,,,,,0,,,69,99
99076,program_change,,,,,4,0,7,,,,,0,40,,,
99076,program_change,,,,,4,0,8,,,,,1,40,,,
99080,note_on,,,,,4,0,8,,,,,1,,,69,49
99080,note_on,,,,,4,0,7,,,,,0,,,69,99
99272,note_off,,,,,192,0,8,,,,,1,,,69,100
99272,note_off,,,,,192,0,7,,,,,0,,,69,100
99328,note_off,,,,,256,0,13,,,,,6,,,45,100
99328,note_off,,,,,256,0,9,,,,,2,,,69,100
99328,note_off,,,,,0,0,14,,,,,7,,,72,100
99328,note_off,,,,,256,0,11,,,,,4,,,60,100
99328,note_off,,,,,256,0,12,,,,,5,,,57,100
99328,note_off,,,,,256,0,15,,,,,7,,,57,100
99328,note_off,,,,,256,0,10,,,,,3,,,69,100
99328,note_off,,,,,56,0,8,,,,,1,,,69,100
99328,note_off,,,,,256,0,14,,,,,7,,,64,100
99328,note_off,,,,,56,0,7,,,,,0,,,69,100
99360,note_on,,,,,32,0,7,,,,,0,,,71,100
99360,note_on,,,,,32,0,8,,,,,1,,,68,100
99424,note_off,,,,,64,0,7,,,,,0,,,71,100
99424,note_off,,,,,64,0,8,,,,,1,,,68,100
99456,note_on,,,,,32,0,7,,,,,0,,,72,100
99456,note_on,,,,,32,0,8,,,,,1,,,69,100
99648,note_off,,,,,192,0,7,,,,,0,,,72,100
99648,note_off,,,,,192,0,8,,,,,1,,,69,100
99744,note_on,,,,,96,0,8,,,,,1,,,71,100
99744,note_on,,,,,96,0,7,,,,,0,,,74,100
99808,note_off,,,,,64,0,8,,,,,1,,,71,100
99808,note_off,,,,,64,0,7,,,,,0,,,74,100
99840,note_on,,,,,512,0,10,,,,,3,,,69,70
99840,note_on,,,,,32,0,8,,,,,1,,,72,100
99840,note_on,,,,,32,0,7,,,,,0,,,76,100
99840,note_on,,,,,512,0,11,,,,,4,,,69,70
99840,note_on,,,,,512,0,9,,,,,2,,,69,20
99968,note_off,,,,,128,0,7,,,,,0,,,76,100
100032,note_on,,,,,64,0,7,,,,,0,,,69,100
100096,note_off,,,,,256,0,10,,,,,3,,,69,100
100096,note_off,,,,,256,0,11,,,,,4,,,69,100
100096,note_off,,,,,256,0,9,,,,,2,,,69,100
100160,note_off,,,,,128,0,7,,,,,0,,,69,100
100224,note_on,,,,,64,0,7,,,,,0,,,69,100
100224,note_off,,,,,384,0,8,,,,,1,,,72,100
100352,note_off,,,,,128,0,7,,,,,0,,,69,100
100416,note_on,,,,,64,0,7,,,,,0,,,76,100
100416,note_on,,,,,192,0,8,,,,,1,,,72,100
100416,note_on,,,,,320,0,9,,,,,2,,,69,20
100416,note_on,,,,,320,0,11,,,,,4,,,69,70
100416,note_on,,,,,320,0,10,,,,,3,,,69,70
100544,note_off,,,,,128,0,8,,,,,1,,,72,100
100544,note_off,,,,,128,0,11,,,,,4,,,69,100
100544,note_off,,,,,128,0,10,,,,,3,,,69,100
100544,note_off,,,,,128,0,7,,,,,0,,,76,100
100544,note_off,,,,,128,0,9,,,,,2,,,69,100
100608,note_on,,,,,64,0,7,,,,,0,,,77,100
100608,note_on,,,,,64,0,11,,,,,4,,,62,70
100608,note_on,,,,,64,0,10,,,,,3,,,62,70
100608,note_on,,,,,64,0,9,,,,,2,,,62,20
100608,note_on,,,,,64,0,8,,,,,1,,,74,100
100736,note_off,,,,,128,0,7,,,,,0,,,77,100
100736,note_off,,,,,128,0,8,,,,,1,,,74,100
100800,note_on,,,,,64,0,7,,,,,0,,,77,100
100800,note_on,,,,,64,0,8,,,,,1,,,74,100
100864,note_off,,,,,256,0,10,,,,,3,,,62,100
100864,note_off,,,,,256,0,9,,,,,2,,,62,100
100864,note_off,,,,,256,0,11,,,,,4,,,62,100
100928,note_off,,,,,128,0,7,,,,,0,,,77,100
100928,note_off,,,,,128,0,8,,,,,1,,,74,100
100992,note_on,,,,,64,0,8,,,,,1,,,74,100
100992,note_on,,,,,64,0,7,,,,,0,,,77,100
101036,note_off,,,,,44,0,8,,,,,1,,,74,100
101036,note_off,,,,,44,0,7,,,,,0,,,77,100
101040,note_on,,,,,4,0,7,,,,,0,,,79,100
101040,note_on,,,,,4,0,8,,,,,1,,,76,100
101084,note_off,,,,,44,0,8,,,,,1,,,76,100
101084,note_off,,,,,44,0,7,,,,,0,,,79,100
101088,note_on,,,,,4,0,8,,,,,1,,,74,100
101088,note_on,,,,,4,0,7,,,,,0,,,77,100
101152,note_off,,,,,64,0,8,,,,,1,,,74,100
101152,note_off,,,,,64,0,7,,,,,0,,,77,100
101184,note_on,,,,,320,0,10,,,,,3,,,62,70
101184,note_on,,,,,320,0,11,,,,,4,,,62,70
101184,note_on,,,,,32,0,8,,,,,1,,,72,100
101184,note_on,,,,,320,0,9,,,,,2,,,62,20
101184,note_on,,,,,32,0,7,,,,,0,,,76,100
101248,note_off,,,,,64,0,8,,,,,1,,,72,100
101248,note_off,,,,,64,0,7,,,,,0,,,76,100
101280,note_on,,,,,32,0,7,,,,,0,,,74,100
101280,note_on,,,,,32,0,8,,,,,1,,,71,100
101312,note_off,,,,,128,0,11,,,,,4,,,62,100
101312,note_off,,,,,128,0,10,,,,,3,,,62,100
101312,note_off,,,,,128,0,9,,,,,2,,,62,100
101344,note_off,,,,,64,0,8,,,,,1,,,71,100
101344,note_off,,,,,64,0,7,,,,,0,,,74,100
101376,note_on,,,,,64,0,10,,,,,3,,,69,70
101376,note_on,,,,,32,0,8,,,,,1,,,72,100
101376,note_on,,,,,64,0,9,,,,,2,,,69,20
101376,note_on,,,,,32,0,7,,,,,0,,,76,100
101376,note_on,,,,,64,0,11,,,,,4,,,69,70
101504,note_off,,,,,128,0,7,,,,,0,,,76,100
101568,note_on,,,,,64,0,7,,,,,0,,,69,100
101632,note_off,,,,,256,0,11,,,,,4,,,69,100
101632,note_off,,,,,256,0,9,,,,,2,,,69,100
101632,note_off,,,,,256,0,10,,,,,3,,,69,100
101696,note_off,,,,,128,0,7,,,,,0,,,69,100
101760,note_off,,,,,384,0,8,,,,,1,,,72,100
101760,note_on,,,,,64,0,7,,,,,0,,,69,100
101888,note_off,,,,,128,0,7,,,,,0,,,69,100
101952,note_on,,,,,192,0,8,,,,,1,,,72,85
101952,note_on,,,,,320,0,9,,,,,2,,,69,20
101952,note_on,,,,,320,0,11,,,,,4,,,69,70
101952,note_on,,,,,64,0,7,,,,,0,,,76,85
101952,note_on,,,,,320,0,10,,,,,3,,,69,70
102080,note_off,,,,,128,0,11,,,,,4,,,69,100
102080,note_off,,,,,128,0,8,,,,,1,,,72,100
102080,note_off,,,,,128,0,7,,,,,0,,,76,100
102080,note_off,,,,,128,0,10,,,,,3,,,69,100
102080,note_off,,,,,128,0,9,,,,,2,,,69,100
102144,note_on,,,,,64,0,8,,,,,1,,,74,85
102144,note_on,,,,,64,0,10,,,,,3,,,62,70
102144,note_on,,,,,64,0,7,,,,,0,,,77,85
102144,note_on,,,,,64,0,11,,,,,4,,,62,70
102144,note_on,,,,,64,0,9,,,,,2,,,62,20
102272,note_off,,,,,128,0,8,,,,,1,,,74,100
102272,note_off,,,,,128,0,7,,,,,0,,,77,100
102336,note_on,,,,,64,0,8,,,,,1,,,74,85
102336,note_on,,,,,64,0,7,,,,,0,,,77,85
102400,note_off,,,,,256,0,9,,,,,2,,,62,100
102400,note_off,,,,,256,0,11,,,,,4,,,62,100
102400,note_off,,,,,256,0,10,,,,,3,,,62,100
102464,note_off,,,,,128,0,8,,,,,1,,,74,100
102464,note_off,,,,,128,0,7,,,,,0,,,77,100
102528,note_on,,,,,64,0,7,,,,,0,,,77,85
102528,note_on,,,,,64,0,8,,,,,1,,,74,85
102572,note_off,,,,,44,0,7,,,,,0,,,77,100
102572,note_off,,,,,44,0,8,,,,,1,,,74,100
102576,note_on,,,,,4,0,7,,,,,0,,,79,85
102576,note_on,,,,,4,0,8,,,,,1,,,76,85
102620,note_off,,,,,44,0,7,,,,,0,,,79,100
102620,note_off,,,,,44,0,8,,,,,1,,,76,100
102624,note_on,,,,,4,0,8,,,,,1,,,74,85
102624,note_on,,,,,4,0,7,,,,,0,,,77,85
102688,note_off,,,,,64,0,8,,,,,1,,,74,100
102688,note_off,,,,,64,0,7,,,,,0,,,77,100
102720,note_on,,,,,32,0,8,,,,,1,,,72,85
102720,note_on,,,,,320,0,11,,,,,4,,,62,70
102720,note_on,,,,,320,0,9,,,,,2,,,62,20
102720,note_on,,,,,320,0,10,,,,,3,,,62,70
102720,note_on,,,,,32,0,7,,,,,0,,,76,85
102784,note_off,,,,,64,0,7,,,,,0,,,76,100
102784,note_off,,,,,64,0,8,,,,,1,,,72,100
102816,note_on,,,,,32,0,8,,,,,1,,,71,85
102816,note_on,,,,,32,0,7,,,,,0,,,74,85
102848,note_off,,,,,128,0,9,,,,,2,,,62,100
102848,note_off,,,,,128,0,10,,,,,3,,,62,100
102848,note_off,,,,,128,0,11,,,,,4,,,62,100
102880,note_off,,,,,64,0,8,,,,,1,,,71,100
102880,note_off,,,,,64,0,7,,,,,0,,,74,100
102912,note_on,,,,,3584,0,12,,,,,5,,,45,100
102912,note_on,,,,,3584,0,15,,,,,7,,,45,100
102912,note_on,,,,,32,0,8,,,,,1,,,72,70
102912,note_on,,,,,64,0,10,,,,,3,,,69,50
102912,note_on,,,,,64,0,9,,,,,2,,,69,110
102912,note_on,,,,,0,0,14,,,,,7,,,60,100
102912,note_on,,,,,3584,0,14,,,,,7,,,64,100
102912,note_on,,,,,3584,0,13,,,,,6,,,33,100
102912,note_on,,,,,64,0,11,,,,,4,,,69,100
102912,note_on,,,,,32,0,7,,,,,0,,,76,70
102916,program_change,,,,,4,0,8,,,,,1,48,,,
102916,program_change,,,,,4,0,7,,,,,0,48,,,
102920,note_on,,,,,4,0,8,,,,,1,,,69,50
102920,note_on,,,,,4,0,7,,,,,0,,,69,50
102976,note_off,,,,,64,0,10,,,,,3,,,69,100
102976,note_off,,,,,56,0,7,,,,,0,,,76,100
102976,note_off,,,,,64,0,9,,,,,2,,,69,100
102976,note_off,,,,,56,0,8,,,,,1,,,72,100
102984,note_off,,,,,8,0,7,,,,,0,,,69,100
102984,note_off,,,,,8,0,8,,,,,1,,,69,100
103008,note_on,,,,,24,0,8,,,,,1,,,69,50
103008,note_on,,,,,24,0,7,,,,,0,,,69,50
103008,note_on,,,,,32,0,9,,,,,2,,,69,110
103008,note_on,,,,,32,0,10,,,,,3,,,69,50
103072,note_off,,,,,64,0,8,,,,,1,,,69,100
103072,note_off,,,,,64,0,7,,,,,0,,,69,100
103072,note_off,,,,,64,0,9,,,,,2,,,69,100
103072,note_off,,,,,64,0,10,,,,,3,,,69,100
103104,note_on,,,,,32,0,8,,,,,1,,,71,50
103104,note_on,,,,,32,0,7,,,,,0,,,71,50
103104,note_on,,,,,32,0,9,,,,,2,,,71,110
103104,note_on,,,,,32,0,10,,,,,3,,,71,50
103168,note_off,,,,,64,0,9,,,,,2,,,71,100
103168,note_off,,,,,64,0,8,,,,,1,,,71,100
103168,note_off,,,,,256,0,11,,,,,4,,,69,100
103168,note_off,,,,,0,0,14,,,,,7,,,60,100
103168,note_off,,,,,64,0,7,,,,,0,,,71,100
103168,note_off,,,,,256,0,12,,,,,5,,,45,100
103168,note_off,,,,,256,0,14,,,,,7,,,64,100
103168,note_off,,,,,256,0,13,,,,,6,,,33,100
103168,note_off,,,,,64,0,10,,,,,3,,,71,100
103168,note_off,,,,,256,0,15,,,,,7,,,45,100
103200,note_on,,,,,32,0,7,,,,,0,,,72,50
103200,note_on,,,,,32,0,8,,,,,1,,,72,50
103200,note_on,,,,,32,0,10,,,,,3,,,72,50
103200,note_on,,,,,32,0,9,,,,,2,,,72,110
103264,note_off,,,,,64,0,7,,,,,0,,,72,100
103264,note_off,,,,,64,0,8,,,,,1,,,72,100
103264,note_off,,,,,64,0,10,,,,,3,,,72,100
103264,note_off,,,,,64,0,9,,,,,2,,,72,100
103296,note_on,,,,,32,0,7,,,,,0,,,74,50
103296,note_on,,,,,32,0,9,,,,,2,,,74,110
103296,note_on,,,,,32,0,10,,,,,3,,,74,50
103296,note_on,,,,,32,0,8,,,,,1,,,74,50
103360,note_off,,,,,64,0,8,,,,,1,,,74,100
103360,note_off,,,,,64,0,7,,,,,0,,,74,100
103360,note_off,,,,,64,0,10,,,,,3,,,74,100
103360,note_off,,,,,64,0,9,,,,,2,,,74,100
103392,note_on,,,,,32,0,7,,,,,0,,,76,50
103392,note_on,,,,,32,0,9,,,,,2,,,76,110
103392,note_on,,,,,32,0,10,,,,,3,,,76,50
103392,note_on,,,,,32,0,8,,,,,1,,,76,50
103456,note_off,,,,,64,0,9,,,,,2,,,76,100
103456,note_off,,,,,64,0,10,,,,,3,,,76,100
103456,note_off,,,,,64,0,8,,,,,1,,,76,100
103456,note_off,,,,,64,0,7,,,,,0,,,76,100
103488,note_on,,,,,32,0,9,,,,,2,,,78,110
103488,note_on,,,,,32,0,10,,,,,3,,,78,50
103488,note_on,,,,,32,0,8,,,,,1,,,78,50
103488,note_on,,,,,32,0,7,,,,,0,,,78,50
103552,note_off,,,,,64,0,9,,,,,2,,,78,100
103552,note_off,,,,,64,0,10,,,,,3,,,78,100
103552,note_off,,,,,64,0,7,,,,,0,,,78,100
103552,note_off,,,,,64,0,8,,,,,1,,,78,100
103584,note_on,,,,,32,0,8,,,,,1,,,80,50
103584,note_on,,,,,32,0,7,,,,,0,,,80,50
103584,note_on,,,,,32,0,10,,,,,3,,,80,50
103584,note_on,,,,,32,0,9,,,,,2,,,80,110
103648,note_off,,,,,64,0,7,,,,,0,,,80,100
103648,note_off,,,,,64,0,8,,,,,1,,,80,100
103648,note_off,,,,,64,0,10,,,,,3,,,80,100
103648,note_off,,,,,64,0,9,,,,,2,,,80,100
103680,note_on,,,,,512,0,15,,,,,7,,,45,100
103680,note_on,,,,,32,0,8,,,,,1,,,81,50
103680,note_on,,,,,512,0,12,,,,,5,,,45,100
103680,note_on,,,,,32,0,10,,,,,3,,,81,50
103680,note_on,,,,,0,0,14,,,,,7,,,64,100
103680,note_on,,,,,512,0,11,,,,,4,,,72,100
103680,note_on,,,,,32,0,7,,,,,0,,,81,50
103680,note_on,,,,,512,0,14,,,,,7,,,60,100
103680,note_on,,,,,32,0,9,,,,,2,,,81,110
103680,note_on,,,,,512,0,13,,,,,6,,,33,100
103936,note_off,,,,,256,0,13,,,,,6,,,33,100
103936,note_off,,,,,256,0,11,,,,,4,,,72,100
103936,note_off,,,,,256,0,9,,,,,2,,,81,100
103936,note_off,,,,,256,0,10,,,,,3,,,81,100
103936,note_off,,,,,256,0,14,,,,,7,,,60,100
103936,note_off,,,,,0,0,14,,,,,7,,,64,100
103936,note_off,,,,,256,0,12,,,,,5,,,45,100
103936,note_off,,,,,256,0,8,,,,,1,,,81,100
103936,note_off,,,,,256,0,15,,,,,7,,,45,100
103936,note_off,,,,,256,0,7,,,,,0,,,81,100
104064,note_on,,,,,128,0,8,,,,,1,,,80,50
104064,note_on,,,,,128,0,11,,,,,4,,,71,100
104064,note_on,,,,,128,0,15,,,,,7,,,52,100
104064,note_on,,,,,128,0,12,,,,,5,,,52,100
104064,note_on,,,,,128,0,10,,,,,3,,,80,50
104064,note_on,,,,,128,0,9,,,,,2,,,80,110
104064,note_on,,,,,0,0,14,,,,,7,,,71,100
104064,note_on,,,,,128,0,13,,,,,6,,,40,100
104064,note_on,,,,,128,0,7,,,,,0,,,80,50
104064,note_on,,,,,128,0,14,,,,,7,,,68,100
104320,note_off,,,,,256,0,8,,,,,1,,,80,100
104320,note_off,,,,,256,0,7,,,,,0,,,80,100
104320,note_off,,,,,256,0,9,,,,,2,,,80,100
104320,note_off,,,,,256,0,10,,,,,3,,,80,100
104320,note_off,,,,,256,0,13,,,,,6,,,40,100
104320,note_off,,,,,256,0,12,,,,,5,,,52,100
104320,note_off,,,,,256,0,15,,,,,7,,,52,100
104320,note_off,,,,,256,0,14,,,,,7,,,68,100
104320,note_off,,,,,0,0,14,,,,,7,,,71,100
104320,note_off,,,,,256,0,11,,,,,4,,,71,100
104448,note_on,,,,,128,0,15,,,,,7,,,45,100
104448,note_on,,,,,128,0,13,,,,,6,,,33,100
104448,note_on,,,,,128,0,14,,,,,7,,,60,100
104448,note_on,,,,,128,0,10,,,,,3,,,81,50
104448,note_on,,,,,128,0,8,,,,,1,,,81,50
104448,note_on,,,,,128,0,12,,,,,5,,,45,100
104448,note_on,,,,,128,0,11,,,,,4,,,72,100
104448,note_on,,,,,128,0,9,,,,,2,,,81,110
104448,note_on,,,,,0,0,14,,,,,7,,,64,100
104448,note_on,,,,,128,0,7,,,,,0,,,81,50
104512,note_off,,,,,64,0,8,,,,,1,,,81,100
104512,note_off,,,,,64,0,9,,,,,2,,,81,100
104512,note_off,,,,,64,0,10,,,,,3,,,81,100
104512,note_off,,,,,64,0,7,,,,,0,,,81,100
104544,note_on,,,,,32,0,7,,,,,0,,,79,50
104544,note_on,,,,,32,0,10,,,,,3,,,79,50
104544,note_on,,,,,32,0,8,,,,,1,,,79,50
104544,note_on,,,,,32,0,9,,,,,2,,,79,110
104608,note_off,,,,,64,0,10,,,,,3,,,79,100
104608,note_off,,,,,64,0,8,,,,,1,,,79,100
104608,note_off,,,,,64,0,9,,,,,2,,,79,100
104608,note_off,,,,,64,0,7,,,,,0,,,79,100
104640,note_on,,,,,32,0,8,,,,,1,,,77,50
104640,note_on,,,,,32,0,7,,,,,0,,,77,50
104640,note_on,,,,,32,0,9,,,,,2,,,77,110
104640,note_on,,,,,32,0,10,,,,,3,,,77,50
104704,note_off,,,,,0,0,14,,,,,7,,,64,100
104704,note_off,,,,,64,0,8,,,,,1,,,77,100
104704,note_off,,,,,64,0,10,,,,,3,,,77,100
104704,note_off,,,,,256,0,12,,,,,5,,,45,100
104704,note_off,,,,,256,0,15,,,,,7,,,45,100
104704,note_off,,,,,256,0,11,,,,,4,,,72,100
104704,note_off,,,,,256,0,14,,,,,7,,,60,100
104704,note_off,,,,,256,0,13,,,,,6,,,33,100
104704,note_off,,,,,64,0,9,,,,,2,,,77,100
104704,note_off,,,,,64,0,7,,,,,0,,,77,100
104736,note_on,,,,,32,0,9,,,,,2,,,76,110
104736,note_on,,,,,32,0,7,,,,,0,,,76,50
104736,note_on,,,,,32,0,10,,,,,3,,,76,50
104736,note_on,,,,,32,0,8,,,,,1,,,76,50
104800,note_off,,,,,64,0,9,,,,,2,,,76,100
104800,note_off,,,,,64,0,7,,,,,0,,,76,100
104800,note_off,,,,,64,0,8,,,,,1,,,76,100
104800,note_off,,,,,64,0,10,,,,,3,,,76,100
104832,note_on,,,,,32,0,7,,,,,0,,,74,50
104832,note_on,,,,,32,0,8,,,,,1,,,74,50
104832,note_on,,,,,32,0,10,,,,,3,,,74,50
104832,note_on,,,,,32,0,9,,,,,2,,,74,110
104896,note_off,,,,,64,0,10,,,,,3,,,74,100
104896,note_off,,,,,64,0,9,,,,,2,,,74,100
104896,note_off,,,,,64,0,7,,,,,0,,,74,100
104896,note_off,,,,,64,0,8,,,,,1,,,74,100
104928,note_on,,,,,32,0,8,,,,,1,,,72,50
104928,note_on,,,,,32,0,9,,,,,2,,,72,110
104928,note_on,,,,,32,0,7,,,,,0,,,72,50
104928,note_on,,,,,32,0,10,,,,,3,,,72,50
104992,note_off,,,,,64,0,8,,,,,1,,,72,100
104992,note_off,,,,,64,0,7,,,,,0,,,72,100
104992,note_off,,,,,64,0,9,,,,,2,,,72,100
104992,note_off,,,,,64,0,10,,,,,3,,,72,100
105024,note_on,,,,,32,0,7,,,,,0,,,71,50
105024,note_on,,,,,320,0,15,,,,,7,,,57,100
105024,note_on,,,,,32,0,9,,,,,2,,,71,110
105024,note_on,,,,,320,0,12,,,,,5,,,57,100
105024,note_on,,,,,32,0,8,,,,,1,,,71,50
105024,note_on,,,,,0,0,14,,,,,7,,,72,100
105024,note_on,,,,,320,0,14,,,,,7,,,76,100
105024,note_on,,,,,320,0,11,,,,,4,,,72,100
105024,note_on,,,,,32,0,10,,,,,3,,,71,50
105024,note_on,,,,,320,0,13,,,,,6,,,45,100
105088,note_off,,,,,64,0,9,,,,,2,,,71,100
105088,note_off,,,,,64,0,8,,,,,1,,,71,100
105088,note_off,,,,,64,0,10,,,,,3,,,71,100
105088,note_off,,,,,64,0,7,,,,,0,,,71,100
105120,note_on,,,,,32,0,10,,,,,3,,,69,50
105120,note_on,,,,,32,0,9,,,,,2,,,69,110
105120,note_on,,,,,32,0,7,,,,,0,,,69,50
105120,note_on,,,,,32,0,8,,,,,1,,,69,50
105152,note_off,,,,,128,0,14,,,,,7,,,76,100
105152,note_off,,,,,0,0,14,,,,,7,,,72,100
105152,note_off,,,,,128,0,15,,,,,7,,,57,100
105152,note_off,,,,,128,0,12,,,,,5,,,57,100
105152,note_off,,,,,128,0,11,,,,,4,,,72,100
105152,note_off,,,,,128,0,13,,,,,6,,,45,100
105184,note_off,,,,,64,0,7,,,,,0,,,69,100
105184,note_off,,,,,64,0,8,,,,,1,,,69,100
105184,note_off,,,,,64,0,10,,,,,3,,,69,100
105184,note_off,,,,,64,0,9,,,,,2,,,69,100
105216,note_on,,,,,32,0,8,,,,,1,,,76,50
105216,note_on,,,,,32,0,9,,,,,2,,,76,110
105216,note_on,,,,,64,0,15,,,,,7,,,56,100
105216,note_on,,,,,64,0,14,,,,,7,,,71,100
105216,note_on,,,,,0,0,14,,,,,7,,,76,100
105216,note_on,,,,,64,0,11,,,,,4,,,71,100
105216,note_on,,,,,64,0,12,,,,,5,,,56,100
105216,note_on,,,,,64,0,13,,,,,6,,,44,100
105216,note_on,,,,,32,0,7,,,,,0,,,76,50
105216,note_on,,,,,32,0,10,,,,,3,,,76,50
105344,note_off,,,,,128,0,9,,,,,2,,,76,100
105344,note_off,,,,,128,0,8,,,,,1,,,76,100
105344,note_off,,,,,128,0,10,,,,,3,,,76,100
105344,note_off,,,,,128,0,7,,,,,0,,,76,100
105408,note_off,,,,,0,0,14,,,,,7,,,76,100
105408,note_on,,,,,64,0,9,,,,,2,,,64,109
105408,note_off,,,,,192,0,13,,,,,6,,,44,100
105408,note_on,,,,,64,0,10,,,,,3,,,64,49
105408,note_off,,,,,192,0,12,,,,,5,,,56,100
105408,note_on,,,,,64,0,8,,,,,1,,,64,49
105408,note_on,,,,,64,0,7,,,,,0,,,64,49
105408,note_off,,,,,192,0,14,,,,,7,,,71,100
105408,note_off,,,,,192,0,15,,,,,7,,,56,100
105408,note_off,,,,,192,0,11,,,,,4,,,71,100
105504,note_on,,,,,96,0,13,,,,,6,,,42,99
105504,note_on,,,,,96,0,11,,,,,4,,,69,99
105504,note_on,,,,,96,0,12,,,,,5,,,54,99
105504,note_on,,,,,0,0,14,,,,,7,,,72,100
105504,note_on,,,,,96,0,14,,,,,7,,,69,100
105504,note_on,,,,,96,0,15,,,,,7,,,54,100
105536,note_off,,,,,128,0,9,,,,,2,,,64,100
105536,note_off,,,,,128,0,8,,,,,1,,,64,100
105536,note_off,,,,,128,0,7,,,,,0,,,64,100
105536,note_off,,,,,128,0,10,,,,,3,,,64,100
105568,note_off,,,,,64,0,11,,,,,4,,,69,100
105568,note_off,,,,,0,0,14,,,,,7,,,72,100
105568,note_off,,,,,64,0,14,,,,,7,,,69,100
105568,note_off,,,,,64,0,15,,,,,7,,,54,100
105568,note_off,,,,,64,0,13,,,,,6,,,42,100
105568,note_off,,,,,64,0,12,,,,,5,,,54,100
105600,note_on,,,,,64,0,9,,,,,2,,,64,108
105600,note_on,,,,,64,0,8,,,,,1,,,64,48
105600,note_on,,,,,32,0,13,,,,,6,,,40,98
105600,note_on,,,,,0,0,14,,,,,7,,,71,100
105600,note_on,,,,,64,0,10,,,,,3,,,64,48
105600,note_on,,,,,32,0,15,,,,,7,,,52,100
105600,note_on,,,,,64,0,7,,,,,0,,,64,48
105600,note_on,,,,,32,0,12,,,,,5,,,52,98
105600,note_on,,,,,32,0,11,,,,,4,,,68,98
105600,note_on,,,,,32,0,14,,,,,7,,,68,100
105728,note_off,,,,,128,0,10,,,,,3,,,64,100
105728,note_off,,,,,128,0,15,,,,,7,,,52,100
105728,note_off,,,,,128,0,7,,,,,0,,,64,100
105728,note_off,,,,,128,0,14,,,,,7,,,68,100
105728,note_off,,,,,0,0,14,,,,,7,,,71,100
105728,note_off,,,,,128,0,9,,,,,2,,,64,100
105728,note_off,,,,,128,0,13,,,,,6,,,40,100
105728,note_off,,,,,128,0,8,,,,,1,,,64,100
105728,note_off,,,,,128,0,11,,,,,4,,,68,100
105728,note_off,,,,,128,0,12,,,,,5,,,52,100
105792,note_on,,,,,64,0,8,,,,,1,,,66,47
105792,note_on,,,,,64,0,10,,,,,3,,,66,47
105792,note_on,,,,,64,0,15,,,,,7,,,50,100
105792,note_on,,,,,64,0,12,,,,,5,,,50,97
105792,note_on,,,,,64,0,7,,,,,0,,,66,47
105792,note_on,,,,,64,0,11,,,,,4,,,69,97
105792,note_on,,,,,0,0,14,,,,,7,,,69,100
105792,note_on,,,,,64,0,9,,,,,2,,,66,107
105792,note_on,,,,,64,0,14,,,,,7,,,66,100
105792,note_on,,,,,64,0,13,,,,,6,,,38,97
105856,note_off,,,,,64,0,11,,,,,4,,,69,100
105856,note_off,,,,,64,0,7,,,,,0,,,66,100
105856,note_off,,,,,64,0,9,,,,,2,,,66,100
105856,note_off,,,,,64,0,8,,,,,1,,,66,100
105856,note_off,,,,,64,0,10,,,,,3,,,66,100
105888,note_on,,,,,32,0,8,,,,,1,,,68,46
105888,note_on,,,,,32,0,7,,,,,0,,,68,46
105888,note_on,,,,,32,0,11,,,,,4,,,71,96
105888,note_on,,,,,32,0,9,,,,,2,,,68,106
105888,note_on,,,,,32,0,10,,,,,3,,,68,46
105920,note_off,,,,,128,0,13,,,,,6,,,38,100
105920,note_off,,,,,0,0,14,,,,,7,,,69,100
105920,note_off,,,,,128,0,15,,,,,7,,,50,100
105920,note_off,,,,,128,0,12,,,,,5,,,50,100
105920,note_off,,,,,128,0,14,,,,,7,,,66,100
105952,note_off,,,,,64,0,8,,,,,1,,,68,100
105952,note_off,,,,,64,0,9,,,,,2,,,68,100
105952,note_off,,,,,64,0,7,,,,,0,,,68,100
105952,note_off,,,,,64,0,10,,,,,3,,,68,100
105952,note_off,,,,,64,0,11,,,,,4,,,71,100
105984,note_on,,,,,64,0,14,,,,,7,,,69,100
105984,note_on,,,,,64,0,15,,,,,7,,,48,100
105984,note_on,,,,,0,0,14,,,,,7,,,64,100
105984,note_on,,,,,64,0,13,,,,,6,,,36,95
105984,note_on,,,,,32,0,7,,,,,0,,,69,45
105984,note_on,,,,,32,0,8,,,,,1,,,69,45
105984,note_on,,,,,32,0,9,,,,,2,,,69,105
105984,note_on,,,,,32,0,10,,,,,3,,,69,45
105984,note_on,,,,,64,0,12,,,,,5,,,48,95
105984,note_on,,,,,32,0,11,,,,,4,,,64,95
106112,note_off,,,,,128,0,8,,,,,1,,,69,100
106112,note_off,,,,,128,0,10,,,,,3,,,69,100
106112,note_off,,,,,128,0,9,,,,,2,,,69,100
106112,note_off,,,,,128,0,7,,,,,0,,,69,100
106176,note_on,,,,,64,0,7,,,,,0,,,69,44
106176,note_off,,,,,192,0,12,,,,,5,,,48,100
106176,note_off,,,,,192,0,13,,,,,6,,,36,100
106176,note_off,,,,,0,0,14,,,,,7,,,64,100
106176,note_on,,,,,64,0,8,,,,,1,,,69,44
106176,note_on,,,,,64,0,9,,,,,2,,,69,104
106176,note_on,,,,,64,0,10,,,,,3,,,69,44
106176,note_off,,,,,192,0,14,,,,,7,,,69,100
106176,note_off,,,,,192,0,15,,,,,7,,,48,100
106240,note_off,,,,,64,0,10,,,,,3,,,69,100
106240,note_off,,,,,64,0,7,,,,,0,,,69,100
106240,note_off,,,,,64,0,9,,,,,2,,,69,100
106240,note_off,,,,,64,0,8,,,,,1,,,69,100
106272,note_on,,,,,96,0,14,,,,,7,,,66,100
106272,note_on,,,,,0,0,14,,,,,7,,,62,100
106272,note_on,,,,,96,0,12,,,,,5,,,47,93
106272,note_on,,,,,32,0,7,,,,,0,,,71,43
106272,note_on,,,,,96,0,15,,,,,7,,,47,100
106272,note_on,,,,,32,0,10,,,,,3,,,71,43
106272,note_on,,,,,96,0,13,,,,,6,,,35,93
106272,note_on,,,,,32,0,9,,,,,2,,,71,103
106272,note_on,,,,,32,0,8,,,,,1,,,71,43
106336,note_off,,,,,64,0,7,,,,,0,,,71,100
106336,note_off,,,,,64,0,9,,,,,2,,,71,100
106336,note_off,,,,,64,0,14,,,,,7,,,66,100
106336,note_off,,,,,0,0,14,,,,,7,,,62,100
106336,note_off,,,,,64,0,12,,,,,5,,,47,100
106336,note_off,,,,,64,0,8,,,,,1,,,71,100
106336,note_off,,,,,64,0,13,,,,,6,,,35,100
106336,note_off,,,,,64,0,10,,,,,3,,,71,100
106336,note_off,,,,,64,0,15,,,,,7,,,47,100
106368,note_on,,,,,32,0,14,,,,,7,,,60,100
106368,note_off,,,,,384,0,11,,,,,4,,,64,100
106368,note_on,,,,,32,0,7,,,,,0,,,72,43
106368,note_on,,,,,32,0,12,,,,,5,,,45,93
106368,note_on,,,,,32,0,15,,,,,7,,,45,100
106368,note_on,,,,,32,0,13,,,,,6,,,33,93
106368,note_on,,,,,32,0,10,,,,,3,,,72,43
106368,note_on,,,,,32,0,9,,,,,2,,,72,103
106368,note_on,,,,,32,0,8,,,,,1,,,72,43
106368,note_on,,,,,0,0,14,,,,,7,,,64,100
106496,note_off,,,,,128,0,12,,,,,5,,,45,100
106496,note_off,,,,,128,0,15,,,,,7,,,45,100
106496,note_off,,,,,128,0,10,,,,,3,,,72,100
106496,note_off,,,,,128,0,8,,,,,1,,,72,100
106496,note_off,,,,,128,0,7,,,,,0,,,72,100
106496,note_off,,,,,128,0,13,,,,,6,,,33,100
106496,note_off,,,,,128,0,9,,,,,2,,,72,100
106496,note_off,,,,,0,0,14,,,,,7,,,64,100
106496,note_off,,,,,128,0,14,,,,,7,,,60,100
106560,note_on,,,,,64,0,8,,,,,1,,,72,41
106560,note_on,,,,,64,0,9,,,,,2,,,72,101
106560,note_on,,,,,64,0,7,,,,,0,,,72,41
106560,note_on,,,,,64,0,10,,,,,3,,,72,41
106560,note_on,,,,,64,0,12,,,,,5,,,57,91
106560,note_on,,,,,0,0,14,,,,,7,,,72,100
106560,note_on,,,,,64,0,14,,,,,7,,,76,100
106560,note_on,,,,,64,0,15,,,,,7,,,57,100
106560,note_on,,,,,64,0,13,,,,,6,,,45,91
106560,note_on,,,,,192,0,11,,,,,4,,,64,91
106624,note_off,,,,,64,0,9,,,,,2,,,72,100
106624,note_off,,,,,64,0,10,,,,,3,,,72,100
106624,note_off,,,,,64,0,8,,,,,1,,,72,100
106624,note_off,,,,,64,0,7,,,,,0,,,72,100
106656,note_on,,,,,32,0,9,,,,,2,,,74,101
106656,note_on,,,,,32,0,8,,,,,1,,,74,41
106656,note_on,,,,,32,0,10,,,,,3,,,74,41
106656,note_on,,,,,32,0,7,,,,,0,,,74,41
106688,note_off,,,,,128,0,11,,,,,4,,,64,100
106688,note_off,,,,,128,0,15,,,,,7,,,57,100
106688,note_off,,,,,0,0,14,,,,,7,,,72,100
106688,note_off,,,,,128,0,12,,,,,5,,,57,100
106688,note_off,,,,,128,0,13,,,,,6,,,45,100
106688,note_off,,,,,128,0,14,,,,,7,,,76,100
106720,note_off,,,,,64,0,10,,,,,3,,,74,100
106720,note_off,,,,,64,0,9,,,,,2,,,74,100
106720,note_off,,,,,64,0,7,,,,,0,,,74,100
106720,note_off,,,,,64,0,8,,,,,1,,,74,100
106752,note_on,,,,,32,0,10,,,,,3,,,76,35
106752,note_on,,,,,32,0,7,,,,,0,,,76,35
106752,note_on,,,,,32,0,9,,,,,2,,,76,95
106752,note_on,,,,,64,0,13,,,,,6,,,44,85
106752,note_on,,,,,64,0,14,,,,,7,,,71,100
106752,note_on,,,,,64,0,15,,,,,7,,,56,100
106752,note_on,,,,,32,0,8,,,,,1,,,76,35
106752,note_on,,,,,64,0,11,,,,,4,,,71,85
106752,note_on,,,,,64,0,12,,,,,5,,,56,85
106752,note_on,,,,,0,0,14,,,,,7,,,76,100
106880,note_off,,,,,128,0,8,,,,,1,,,76,100
106880,note_off,,,,,128,0,9,,,,,2,,,76,100
106880,note_off,,,,,128,0,10,,,,,3,,,76,100
106880,note_off,,,,,128,0,7,,,,,0,,,76,100
106944,note_off,,,,,192,0,13,,,,,6,,,44,100
106944,note_on,,,,,64,0,8,,,,,1,,,64,35
106944,note_on,,,,,64,0,9,,,,,2,,,64,95
106944,note_on,,,,,64,0,10,,,,,3,,,64,35
106944,note_off,,,,,192,0,12,,,,,5,,,56,100
106944,note_off,,,,,192,0,15,,,,,7,,,56,100
106944,note_off,,,,,0,0,14,,,,,7,,,76,100
106944,note_off,,,,,192,0,11,,,,,4,,,71,100
106944,note_on,,,,,64,0,7,,,,,0,,,64,35
106944,note_off,,,,,192,0,14,,,,,7,,,71,100
107040,note_on,,,,,96,0,11,,,,,4,,,69,85
107040,note_on,,,,,96,0,14,,,,,7,,,69,100
107040,note_on,,,,,96,0,15,,,,,7,,,54,100
107040,note_on,,,,,96,0,12,,,,,5,,,54,85
107040,note_on,,,,,96,0,13,,,,,6,,,42,85
107040,note_on,,,,,0,0,14,,,,,7,,,72,100
107072,note_off,,,,,128,0,9,,,,,2,,,64,100
107072,note_off,,,,,128,0,8,,,,,1,,,64,100
107072,note_off,,,,,128,0,10,,,,,3,,,64,100
107072,note_off,,,,,128,0,7,,,,,0,,,64,100
107104,note_off,,,,,64,0,14,,,,,7,,,69,100
107104,note_off,,,,,0,0,14,,,,,7,,,72,100
107104,note_off,,,,,64,0,12,,,,,5,,,54,100
107104,note_off,,,,,64,0,15,,,,,7,,,54,100
107104,note_off,,,,,64,0,11,,,,,4,,,69,100
107104,note_off,,,,,64,0,13,,,,,6,,,42,100
107136,note_on,,,,,64,0,9,,,,,2,,,64,95
107136,note_on,,,,,64,0,10,,,,,3,,,64,35
107136,note_on,,,,,32,0,14,,,,,7,,,68,100
107136,note_on,,,,,0,0,14,,,,,7,,,71,100
107136,note_on,,,,,64,0,7,,,,,0,,,64,35
107136,note_on,,,,,64,0,8,,,,,1,,,64,35
107136,note_on,,,,,32,0,12,,,,,5,,,52,85
107136,note_on,,,,,32,0,11,,,,,4,,,68,85
107136,note_on,,,,,32,0,13,,,,,6,,,40,85
107136,note_on,,,,,32,0,15,,,,,7,,,52,100
107264,note_off,,,,,0,0,14,,,,,7,,,71,100
107264,note_off,,,,,128,0,8,,,,,1,,,64,100
107264,note_off,,,,,128,0,9,,,,,2,,,64,100
107264,note_off,,,,,128,0,11,,,,,4,,,68,100
107264,note_off,,,,,128,0,15,,,,,7,,,52,100
107264,note_off,,,,,128,0,14,,,,,7,,,68,100
107264,note_off,,,,,128,0,13,,,,,6,,,40,100
107264,note_off,,,,,128,0,10,,,,,3,,,64,100
107264,note_off,,,,,128,0,7,,,,,0,,,64,100
107264,note_off,,,,,128,0,12,,,,,5,,,52,100
107328,note_on,,,,,0,0,14,,,,,7,,,69,100
107328,note_on,,,,,64,0,15,,,,,7,,,50,100
107328,note_on,,,,,64,0,9,,,,,2,,,66,95
107328,note_on,,,,,64,0,12,,,,,5,,,50,85
107328,note_on,,,,,64,0,14,,,,,7,,,66,100
107328,note_on,,,,,64,0,8,,,,,1,,,66,35
107328,note_on,,,,,64,0,13,,,,,6,,,38,85
107328,note_on,,,,,64,0,10,,,,,3,,,66,35
107328,note_on,,,,,64,0,11,,,,,4,,,69,85
107328,note_on,,,,,64,0,7,,,,,0,,,66,35
107392,note_off,,,,,64,0,8,,,,,1,,,66,100
107392,note_off,,,,,64,0,9,,,,,2,,,66,100
107392,note_off,,,,,64,0,11,,,,,4,,,69,100
107392,note_off,,,,,64,0,10,,,,,3,,,66,100
107392,note_off,,,,,64,0,7,,,,,0,,,66,100
107424,note_on,,,,,32,0,9,,,,,2,,,68,95
107424,note_on,,,,,32,0,8,,,,,1,,,68,35
107424,note_on,,,,,32,0,11,,,,,4,,,71,85
107424,note_on,,,,,32,0,10,,,,,3,,,68,35
107424,note_on,,,,,32,0,7,,,,,0,,,68,35
107456,note_off,,,,,128,0,14,,,,,7,,,66,100
107456,note_off,,,,,128,0,12,,,,,5,,,50,100
107456,note_off,,,,,0,0,14,,,,,7,,,69,100
107456,note_off,,,,,128,0,15,,,,,7,,,50,100
107456,note_off,,,,,128,0,13,,,,,6,,,38,100
107488,note_off,,,,,64,0,10,,,,,3,,,68,100
107488,note_off,,,,,64,0,9,,,,,2,,,68,100
107488,note_off,,,,,64,0,7,,,,,0,,,68,100
107488,note_off,,,,,64,0,8,,,,,1,,,68,100
107488,note_off,,,,,64,0,11,,,,,4,,,71,100
107520,note_on,,,,,32,0,9,,,,,2,,,69,95
107520,note_on,,,,,32,0,11,,,,,4,,,64,85
107520,note_on,,,,,64,0,14,,,,,7,,,69,100
107520,note_on,,,,,64,0,12,,,,,5,,,48,85
107520,note_on,,,,,64,0,15,,,,,7,,,48,100
107520,note_on,,,,,32,0,10,,,,,3,,,69,35
107520,note_on,,,,,0,0,14,,,,,7,,,64,100
107520,note_on,,,,,32,0,8,,,,,1,,,69,35
107520,note_on,,,,,64,0,13,,,,,6,,,36,85
107520,note_on,,,,,32,0,7,,,,,0,,,69,35
107648,note_off,,,,,128,0,10,,,,,3,,,69,100
107648,note_off,,,,,128,0,8,,,,,1,,,69,100
107648,note_off,,,,,128,0,7,,,,,0,,,69,100
107648,note_off,,,,,128,0,9,,,,,2,,,69,100
107712,note_off,,,,,192,0,12,,,,,5,,,48,100
107712,note_off,,,,,192,0,13,,,,,6,,,36,100
107712,note_off,,,,,0,0,14,,,,,7,,,64,100
107712,note_on,,,,,64,0,10,,,,,3,,,69,35
107712,note_off,,,,,192,0,14,,,,,7,,,69,100
107712,note_on,,,,,64,0,8,,,,,1,,,69,35
107712,note_off,,,,,192,0,15,,,,,7,,,48,100
107712,note_on,,,,,64,0,7,,,,,0,,,69,35
107712,note_on,,,,,64,0,9,,,,,2,,,69,95
107776,note_off,,,,,64,0,7,,,,,0,,,69,100
107776,note_off,,,,,64,0,10,,,,,3,,,69,100
107776,note_off,,,,,64,0,8,,,,,1,,,69,100
107776,note_off,,,,,64,0,9,,,,,2,,,69,100
107808,note_on,,,,,32,0,9,,,,,2,,,71,95
107808,note_on,,,,,32,0,8,,,,,1,,,71,35
107808,note_on,,,,,96,0,13,,,,,6,,,35,85
107808,note_on,,,,,0,0,14,,,,,7,,,62,100
107808,note_on,,,,,96,0,14,,,,,7,,,66,100
107808,note_on,,,,,32,0,7,,,,,0,,,71,35
107808,note_on,,,,,96,0,15,,,,,7,,,47,100
107808,note_on,,,,,96,0,12,,,,,5,,,47,85
107808,note_on,,,,,32,0,10,,,,,3,,,71,35
107872,note_off,,,,,64,0,10,,,,,3,,,71,100
107872,note_off,,,,,64,0,7,,,,,0,,,71,100
107872,note_off,,,,,0,0,14,,,,,7,,,62,100
107872,note_off,,,,,64,0,14,,,,,7,,,66,100
107872,note_off,,,,,64,0,13,,,,,6,,,35,100
107872,note_off,,,,,64,0,12,,,,,5,,,47,100
107872,note_off,,,,,64,0,9,,,,,2,,,71,100
107872,note_off,,,,,64,0,8,,,,,1,,,71,100
107872,note_off,,,,,64,0,15,,,,,7,,,47,100
107904,note_on,,,,,32,0,10,,,,,3,,,72,35
107904,note_on,,,,,32,0,9,,,,,2,,,72,95
107904,note_on,,,,,32,0,7,,,,,0,,,72,35
107904,note_on,,,,,32,0,8,,,,,1,,,72,35
107904,note_on,,,,,32,0,13,,,,,6,,,33,85
107904,note_on,,,,,32,0,14,,,,,7,,,60,100
107904,note_on,,,,,0,0,14,,,,,7,,,64,100
107904,note_on,,,,,32,0,12,,,,,5,,,45,85
107904,note_on,,,,,32,0,15,,,,,7,,,45,100
107904,note_off,,,,,384,0,11,,,,,4,,,64,100
108032,note_off,,,,,128,0,8,,,,,1,,,72,100
108032,note_off,,,,,128,0,12,,,,,5,,,45,100
108032,note_off,,,,,128,0,10,,,,,3,,,72,100
108032,note_off,,,,,128,0,15,,,,,7,,,45,100
108032,note_off,,,,,0,0,14,,,,,7,,,64,100
108032,note_off,,,,,128,0,14,,,,,7,,,60,100
108032,note_off,,,,,128,0,9,,,,,2,,,72,100
108032,note_off,,,,,128,0,7,,,,,0,,,72,100
108032,note_off,,,,,128,0,13,,,,,6,,,33,100
108096,note_on,,,,,64,0,8,,,,,1,,,72,35
108096,note_on,,,,,64,0,10,,,,,3,,,72,35
108096,note_on,,,,,64,0,15,,,,,7,,,57,100
108096,note_on,,,,,64,0,7,,,,,0,,,72,35
108096,note_on,,,,,64,0,9,,,,,2,,,72,95
108096,note_on,,,,,192,0,11,,,,,4,,,64,85
108096,note_on,,,,,64,0,12,,,,,5,,,57,85
108096,note_on,,,,,64,0,14,,,,,7,,,76,100
108096,note_on,,,,,0,0,14,,,,,7,,,72,100
108096,note_on,,,,,64,0,13,,,,,6,,,45,85
108160,note_off,,,,,64,0,9,,,,,2,,,72,100
108160,note_off,,,,,64,0,8,,,,,1,,,72,100
108160,note_off,,,,,64,0,10,,,,,3,,,72,100
108160,note_off,,,,,64,0,7,,,,,0,,,72,100
108192,note_on,,,,,32,0,7,,,,,0,,,74,35
108192,note_on,,,,,32,0,8,,,,,1,,,74,35
108192,note_on,,,,,32,0,10,,,,,3,,,74,35
108192,note_on,,,,,32,0,9,,,,,2,,,74,95
108224,note_off,,,,,128,0,15,,,,,7,,,57,100
108224,note_off,,,,,128,0,13,,,,,6,,,45,100
108224,note_off,,,,,128,0,12,,,,,5,,,57,100
108224,note_off,,,,,0,0,14,,,,,7,,,72,100
108224,note_off,,,,,128,0,11,,,,,4,,,64,100
108224,note_off,,,,,128,0,14,,,,,7,,,76,100
108256,note_off,,,,,64,0,8,,,,,1,,,74,100
108256,note_off,,,,,64,0,10,,,,,3,,,74,100
108256,note_off,,,,,64,0,7,,,,,0,,,74,100
108256,note_off,,,,,64,0,9,,,,,2,,,74,100
108280,program_change,,,,,24,0,7,,,,,0,40,,,
108280,program_change,,,,,24,0,8,,,,,1,40,,,
108288,note_on,,,,,64,0,14,,,,,7,,,76,100
108288,note_on,,,,,64,0,13,,,,,6,,,44,85
108288,note_on,,,,,64,0,15,,,,,7,,,56,100
108288,note_on,,,,,8,0,7,,,,,0,,,76,100
108288,note_on,,,,,64,0,12,,,,,5,,,56,85
108288,note_on,,,,,32,0,10,,,,,3,,,76,35
108288,note_on,,,,,64,0,11,,,,,4,,,64,85
108288,note_on,,,,,8,0,8,,,,,1,,,76,100
108288,note_on,,,,,32,0,9,,,,,2,,,76,95
108288,note_on,,,,,0,0,14,,,,,7,,,71,100
108352,note_off,,,,,64,0,7,,,,,0,,,76,100
108384,note_on,,,,,32,0,7,,,,,0,,,71,85
108416,note_off,,,,,128,0,8,,,,,1,,,76,100
108416,note_off,,,,,128,0,11,,,,,4,,,64,100
108448,note_off,,,,,64,0,7,,,,,0,,,71,100
108480,note_on,,,,,64,0,8,,,,,1,,,83,100
108480,note_on,,,,,64,0,11,,,,,4,,,68,70
108480,note_on,,,,,32,0,7,,,,,0,,,71,85
108544,note_off,,,,,256,0,13,,,,,6,,,44,100
108544,note_off,,,,,0,0,14,,,,,7,,,71,100
108544,note_off,,,,,256,0,12,,,,,5,,,56,100
108544,note_off,,,,,64,0,7,,,,,0,,,71,100
108544,note_off,,,,,256,0,15,,,,,7,,,56,100
108544,note_off,,,,,256,0,10,,,,,3,,,76,100
108544,note_off,,,,,256,0,9,,,,,2,,,76,100
108544,note_off,,,,,256,0,14,,,,,7,,,76,100
108576,note_on,,,,,32,0,7,,,,,0,,,76,85
108608,note_off,,,,,128,0,8,,,,,1,,,83,100
108608,note_off,,,,,128,0,11,,,,,4,,,68,100
108640,note_off,,,,,64,0,7,,,,,0,,,76,100
108672,note_on,,,,,64,0,8,,,,,1,,,83,100
108672,note_on,,,,,64,0,11,,,,,4,,,68,70
108672,note_on,,,,,32,0,7,,,,,0,,,76,85
108736,note_off,,,,,64,0,7,,,,,0,,,76,100
108736,note_off,,,,,64,0,8,,,,,1,,,83,100
108768,note_on,,,,,32,0,8,,,,,1,,,84,100
108768,note_on,,,,,32,0,7,,,,,0,,,71,85
108800,note_off,,,,,128,0,11,,,,,4,,,68,100
108832,note_off,,,,,64,0,8,,,,,1,,,84,100
108832,note_off,,,,,64,0,7,,,,,0,,,71,100
108864,note_on,,,,,64,0,11,,,,,4,,,68,70
108864,note_on,,,,,32,0,8,,,,,1,,,83,100
108864,note_on,,,,,32,0,7,,,,,0,,,71,85
108928,note_off,,,,,64,0,7,,,,,0,,,71,100
108960,note_on,,,,,32,0,7,,,,,0,,,76,85
108992,note_off,,,,,128,0,8,,,,,1,,,83,100
108992,note_off,,,,,128,0,11,,,,,4,,,68,100
109024,note_off,,,,,64,0,7,,,,,0,,,76,100
109056,note_on,,,,,512,0,9,,,,,2,,,76,70
109056,note_on,,,,,32,0,7,,,,,0,,,76,85
109056,note_on,,,,,512,0,10,,,,,3,,,71,70
109056,note_on,,,,,64,0,11,,,,,4,,,68,70
109120,note_off,,,,,64,0,7,,,,,0,,,76,100
109152,note_on,,,,,32,0,7,,,,,0,,,71,85
109184,note_off,,,,,128,0,11,,,,,4,,,68,100
109216,note_off,,,,,64,0,7,,,,,0,,,71,100
109248,note_on,,,,,32,0,7,,,,,0,,,71,85
109248,note_on,,,,,64,0,11,,,,,4,,,64,70
109248,note_on,,,,,256,0,8,,,,,1,,,80,100
109312,note_off,,,,,64,0,7,,,,,0,,,71,100
109312,note_off,,,,,256,0,9,,,,,2,,,76,100
109312,note_off,,,,,256,0,10,,,,,3,,,71,100
109344,note_on,,,,,32,0,7,,,,,0,,,76,85
109376,note_off,,,,,128,0,11,,,,,4,,,64,100
109376,note_off,,,,,128,0,8,,,,,1,,,80,100
109408,note_off,,,,,64,0,7,,,,,0,,,76,100
109440,note_on,,,,,64,0,8,,,,,1,,,80,100
109440,note_on,,,,,32,0,7,,,,,0,,,76,85
109440,note_on,,,,,64,0,11,,,,,4,,,64,70
109504,note_off,,,,,64,0,7,,,,,0,,,76,100
109504,note_off,,,,,64,0,8,,,,,1,,,80,100
109536,note_on,,,,,32,0,7,,,,,0,,,71,85
109536,note_on,,,,,32,0,8,,,,,1,,,81,100
109568,note_off,,,,,128,0,11,,,,,4,,,64,100
109600,note_off,,,,,64,0,8,,,,,1,,,81,100
109600,note_off,,,,,64,0,7,,,,,0,,,71,100
109632,note_on,,,,,64,0,11,,,,,4,,,64,70
109632,note_on,,,,,32,0,7,,,,,0,,,71,85
109632,note_on,,,,,32,0,8,,,,,1,,,80,100
109696,note_off,,,,,64,0,7,,,,,0,,,71,100
109728,note_on,,,,,32,0,7,,,,,0,,,76,85
109760,note_off,,,,,128,0,11,,,,,4,,,64,100
109760,note_off,,,,,128,0,8,,,,,1,,,80,100
109792,note_off,,,,,64,0,7,,,,,0,,,76,100
109824,note_on,,,,,512,0,9,,,,,2,,,76,70
109824,note_on,,,,,512,0,10,,,,,3,,,72,70
109824,note_on,,,,,64,0,11,,,,,4,,,69,70
109824,note_on,,,,,32,0,7,,,,,0,,,76,85
109888,note_off,,,,,64,0,7,,,,,0,,,76,100
109920,note_on,,,,,32,0,7,,,,,0,,,72,85
109952,note_off,,,,,128,0,11,,,,,4,,,69,100
109984,note_off,,,,,64,0,7,,,,,0,,,72,100
110016,note_on,,,,,32,0,7,,,,,0,,,72,85
110016,note_on,,,,,256,0,8,,,,,1,,,76,100
110016,note_on,,,,,64,0,11,,,,,4,,,57,70
110080,note_off,,,,,256,0,10,,,,,3,,,72,100
110080,note_off,,,,,64,0,7,,,,,0,,,72,100
110080,note_off,,,,,256,0,9,,,,,2,,,76,100
110112,note_on,,,,,32,0,7,,,,,0,,,76,85
110144,note_off,,,,,128,0,11,,,,,4,,,57,100
110144,note_off,,,,,128,0,8,,,,,1,,,76,100
110176,note_off,,,,,64,0,7,,,,,0,,,76,100
110208,note_on,,,,,64,0,11,,,,,4,,,57,70
110208,note_on,,,,,32,0,7,,,,,0,,,76,85
110208,note_on,,,,,64,0,8,,,,,1,,,76,100
110272,note_off,,,,,64,0,7,,,,,0,,,76,100
110272,note_off,,,,,64,0,8,,,,,1,,,76,100
110304,note_on,,,,,32,0,8,,,,,1,,,77,100
110304,note_on,,,,,32,0,7,,,,,0,,,72,85
110336,note_off,,,,,128,0,11,,,,,4,,,57,100
110368,note_off,,,,,64,0,7,,,,,0,,,72,100
110368,note_off,,,,,64,0,8,,,,,1,,,77,100
110400,note_on,,,,,64,0,11,,,,,4,,,57,70
110400,note_on,,,,,32,0,7,,,,,0,,,72,85
110400,note_on,,,,,32,0,8,,,,,1,,,76,100
110464,note_off,,,,,64,0,7,,,,,0,,,72,100
110496,note_on,,,,,32,0,7,,,,,0,,,76,85
110528,note_off,,,,,128,0,11,,,,,4,,,57,100
110528,note_off,,,,,128,0,8,,,,,1,,,76,100
110560,note_off,,,,,64,0,7,,,,,0,,,76,100
110592,note_on,,,,,64,0,11,,,,,4,,,69,70
110592,note_on,,,,,32,0,7,,,,,0,,,76,85
110592,note_on,,,,,512,0,9,,,,,2,,,76,70
110592,note_on,,,,,512,0,10,,,,,3,,,72,70
110656,note_off,,,,,64,0,7,,,,,0,,,76,100
110688,note_on,,,,,32,0,7,,,,,0,,,72,85
110720,note_off,,,,,128,0,11,,,,,4,,,69,100
110752,note_off,,,,,64,0,7,,,,,0,,,72,100
110784,note_on,,,,,64,0,11,,,,,4,,,57,70
110784,note_on,,,,,32,0,7,,,,,0,,,72,85
110784,note_on,,,,,256,0,8,,,,,1,,,72,100
110848,note_off,,,,,64,0,7,,,,,0,,,72,100
110848,note_off,,,,,256,0,9,,,,,2,,,76,100
110848,note_off,,,,,256,0,10,,,,,3,,,72,100
110880,note_on,,,,,32,0,7,,,,,0,,,76,85
110912,note_off,,,,,128,0,8,,,,,1,,,72,100
110912,note_off,,,,,128,0,11,,,,,4,,,57,100
110944,note_off,,,,,64,0,7,,,,,0,,,76,100
110976,note_on,,,,,64,0,8,,,,,1,,,72,100
110976,note_on,,,,,32,0,7,,,,,0,,,76,85
110976,note_on,,,,,64,0,11,,,,,4,,,57,70
111040,note_off,,,,,64,0,7,,,,,0,,,76,100
111040,note_off,,,,,64,0,8,,,,,1,,,72,100
111072,note_on,,,,,32,0,8,,,,,1,,,74,100
111072,note_on,,,,,32,0,7,,,,,0,,,72,85
111104,note_off,,,,,128,0,11,,,,,4,,,57,100
111136,note_off,,,,,64,0,7,,,,,0,,,72,100
111136,note_off,,,,,64,0,8,,,,,1,,,74,100
111168,note_on,,,,,32,0,8,,,,,1,,,72,100
111168,note_on,,,,,64,0,11,,,,,4,,,57,70
111168,note_on,,,,,32,0,7,,,,,0,,,72,85
111232,note_off,,,,,64,0,7,,,,,0,,,72,100
111264,note_on,,,,,32,0,7,,,,,0,,,76,85
111296,note_off,,,,,128,0,11,,,,,4,,,57,100
111296,note_off,,,,,128,0,8,,,,,1,,,72,100
111328,note_off,,,,,64,0,7,,,,,0,,,76,100
111360,note_on,,,,,512,0,10,,,,,3,,,72,70
111360,note_on,,,,,512,0,9,,,,,2,,,77,70
111360,note_on,,,,,32,0,7,,,,,0,,,77,85
111360,note_on,,,,,64,0,11,,,,,4,,,69,70
111424,note_off,,,,,64,0,7,,,,,0,,,77,100
111456,note_on,,,,,32,0,7,,,,,0,,,72,85
111488,note_off,,,,,128,0,11,,,,,4,,,69,100
111520,note_off,,,,,64,0,7,,,,,0,,,72,100
111552,note_on,,,,,64,0,11,,,,,4,,,57,70
111552,note_on,,,,,256,0,8,,,,,1,,,81,100
111552,note_on,,,,,32,0,7,,,,,0,,,72,85
111616,note_off,,,,,256,0,9,,,,,2,,,77,100
111616,note_off,,,,,256,0,10,,,,,3,,,72,100
111616,note_off,,,,,64,0,7,,,,,0,,,72,100
111648,note_on,,,,,32,0,7,,,,,0,,,77,85
111680,note_off,,,,,128,0,11,,,,,4,,,57,100
111680,note_off,,,,,128,0,8,,,,,1,,,81,100
111712,note_off,,,,,64,0,7,,,,,0,,,77,100
111744,note_on,,,,,64,0,11,,,,,4,,,57,70
111744,note_on,,,,,64,0,8,,,,,1,,,81,100
111744,note_on,,,,,32,0,7,,,,,0,,,77,85
111808,note_off,,,,,64,0,7,,,,,0,,,77,100
111808,note_off,,,,,64,0,8,,,,,1,,,81,100
111840,note_on,,,,,32,0,7,,,,,0,,,72,85
111840,note_on,,,,,32,0,8,,,,,1,,,83,100
111872,note_off,,,,,128,0,11,,,,,4,,,57,100
111904,note_off,,,,,64,0,7,,,,,0,,,72,100
111904,note_off,,,,,64,0,8,,,,,1,,,83,100
111936,note_on,,,,,32,0,8,,,,,1,,,81,100
111936,note_on,,,,,32,0,7,,,,,0,,,72,85
111936,note_on,,,,,64,0,11,,,,,4,,,57,70
112000,note_off,,,,,64,0,7,,,,,0,,,72,100
112032,note_on,,,,,32,0,7,,,,,0,,,77,85
112064,note_off,,,,,128,0,8,,,,,1,,,81,100
112064,note_off,,,,,128,0,11,,,,,4,,,57,100
112096,note_off,,,,,64,0,7,,,,,0,,,77,100
112128,note_on,,,,,32,0,7,,,,,0,,,77,85
112128,note_on,,,,,512,0,9,,,,,2,,,77,70
112128,note_on,,,,,512,0,10,,,,,3,,,72,70
112128,note_on,,,,,64,0,11,,,,,4,,,69,70
112192,note_off,,,,,64,0,7,,,,,0,,,77,100
112224,note_on,,,,,32,0,7,,,,,0,,,72,85
112256,note_off,,,,,128,0,11,,,,,4,,,69,100
112288,note_off,,,,,64,0,7,,,,,0,,,72,100
112320,note_on,,,,,64,0,11,,,,,4,,,57,70
112320,note_on,,,,,256,0,8,,,,,1,,,77,100
112320,note_on,,,,,32,0,7,,,,,0,,,72,85
112384,note_off,,,,,256,0,10,,,,,3,,,72,100
112384,note_off,,,,,256,0,9,,,,,2,,,77,100
112384,note_off,,,,,64,0,7,,,,,0,,,72,100
112416,note_on,,,,,32,0,7,,,,,0,,,77,85
112448,note_off,,,,,128,0,11,,,,,4,,,57,100
112448,note_off,,,,,128,0,8,,,,,1,,,77,100
112480,note_off,,,,,64,0,7,,,,,0,,,77,100
112512,note_on,,,,,32,0,7,,,,,0,,,77,85
112512,note_on,,,,,64,0,11,,,,,4,,,57,70
112512,note_on,,,,,64,0,8,,,,,1,,,77,100
112576,note_off,,,,,64,0,8,,,,,1,,,77,100
112576,note_off,,,,,64,0,7,,,,,0,,,77,100
112608,note_on,,,,,32,0,7,,,,,0,,,72,85
112608,note_on,,,,,32,0,8,,,,,1,,,79,100
112640,note_off,,,,,128,0,11,,,,,4,,,57,100
112672,note_off,,,,,64,0,7,,,,,0,,,72,100
112672,note_off,,,,,64,0,8,,,,,1,,,79,100
112704,note_on,,,,,32,0,8,,,,,1,,,77,100
112704,note_on,,,,,32,0,7,,,,,0,,,72,85
112704,note_on,,,,,64,0,11,,,,,4,,,57,70
112768,note_off,,,,,64,0,7,,,,,0,,,72,100
112800,note_on,,,,,32,0,7,,,,,0,,,77,85
112832,note_off,,,,,128,0,11,,,,,4,,,57,100
112832,note_off,,,,,128,0,8,,,,,1,,,77,100
112864,note_off,,,,,64,0,7,,,,,0,,,77,100
112896,note_on,,,,,64,0,11,,,,,4,,,67,70
112896,note_on,,,,,512,0,9,,,,,2,,,77,70
112896,note_on,,,,,512,0,10,,,,,3,,,71,70
112896,note_on,,,,,32,0,7,,,,,0,,,77,85
112960,note_off,,,,,64,0,7,,,,,0,,,77,100
112992,note_on,,,,,32,0,7,,,,,0,,,71,85
113024,note_off,,,,,128,0,11,,,,,4,,,67,100
113056,note_off,,,,,64,0,7,,,,,0,,,71,100
113088,note_on,,,,,64,0,11,,,,,4,,,55,70
113088,note_on,,,,,256,0,8,,,,,1,,,74,100
113088,note_on,,,,,32,0,7,,,,,0,,,71,85
113152,note_off,,,,,64,0,7,,,,,0,,,71,100
113152,note_off,,,,,256,0,10,,,,,3,,,71,100
113152,note_off,,,,,256,0,9,,,,,2,,,77,100
113184,note_on,,,,,32,0,7,,,,,0,,,77,85
113216,note_off,,,,,128,0,11,,,,,4,,,55,100
113216,note_off,,,,,128,0,8,,,,,1,,,74,100
113248,note_off,,,,,64,0,7,,,,,0,,,77,100
113280,note_on,,,,,32,0,7,,,,,0,,,77,85
113280,note_on,,,,,64,0,11,,,,,4,,,55,70
113280,note_on,,,,,64,0,8,,,,,1,,,74,100
113344,note_off,,,,,64,0,8,,,,,1,,,74,100
113344,note_off,,,,,64,0,7,,,,,0,,,77,100
113376,note_on,,,,,32,0,7,,,,,0,,,71,85
113376,note_on,,,,,32,0,8,,,,,1,,,76,100
113408,note_off,,,,,128,0,11,,,,,4,,,55,100
113440,note_off,,,,,64,0,7,,,,,0,,,71,100
113440,note_off,,,,,64,0,8,,,,,1,,,76,100
113472,note_on,,,,,32,0,8,,,,,1,,,74,100
113472,note_on,,,,,32,0,7,,,,,0,,,71,85
113472,note_on,,,,,64,0,11,,,,,4,,,55,70
113536,note_off,,,,,64,0,7,,,,,0,,,71,100
113568,note_on,,,,,32,0,7,,,,,0,,,77,85
113600,note_off,,,,,128,0,8,,,,,1,,,74,100
113600,note_off,,,,,128,0,11,,,,,4,,,55,100
113632,note_off,,,,,64,0,7,,,,,0,,,77,100
113664,note_on,,,,,512,0,10,,,,,3,,,71,70
113664,note_on,,,,,32,0,7,,,,,0,,,77,85
113664,note_on,,,,,512,0,9,,,,,2,,,77,70
113664,note_on,,,,,64,0,11,,,,,4,,,67,70
113728,note_off,,,,,64,0,7,,,,,0,,,77,100
113760,note_on,,,,,32,0,7,,,,,0,,,71,85
113792,note_off,,,,,128,0,11,,,,,4,,,67,100
113824,note_off,,,,,64,0,7,,,,,0,,,71,100
113856,note_on,,,,,64,0,11,,,,,4,,,55,70
113856,note_on,,,,,256,0,8,,,,,1,,,71,100
113856,note_on,,,,,32,0,7,,,,,0,,,71,85
113920,note_off,,,,,256,0,9,,,,,2,,,77,100
113920,note_off,,,,,256,0,10,,,,,3,,,71,100
113920,note_off,,,,,64,0,7,,,,,0,,,71,100
113952,note_on,,,,,32,0,7,,,,,0,,,77,85
113984,note_off,,,,,128,0,11,,,,,4,,,55,100
113984,note_off,,,,,128,0,8,,,,,1,,,71,100
114016,note_off,,,,,64,0,7,,,,,0,,,77,100
114048,note_on,,,,,64,0,11,,,,,4,,,55,70
114048,note_on,,,,,32,0,7,,,,,0,,,77,85
114048,note_on,,,,,64,0,8,,,,,1,,,71,100
114112,note_off,,,,,64,0,8,,,,,1,,,71,100
114112,note_off,,,,,64,0,7,,,,,0,,,77,100
114144,note_on,,,,,32,0,7,,,,,0,,,71,85
114144,note_on,,,,,32,0,8,,,,,1,,,72,100
114176,note_off,,,,,128,0,11,,,,,4,,,55,100
114208,note_off,,,,,64,0,8,,,,,1,,,72,100
114208,note_off,,,,,64,0,7,,,,,0,,,71,100
114240,note_on,,,,,32,0,7,,,,,0,,,71,85
114240,note_on,,,,,32,0,8,,,,,1,,,71,100
114240,note_on,,,,,64,0,11,,,,,4,,,55,70
114304,note_off,,,,,64,0,7,,,,,0,,,71,100
114336,note_on,,,,,32,0,7,,,,,0,,,77,85
114368,note_off,,,,,128,0,8,,,,,1,,,71,100
114368,note_off,,,,,128,0,11,,,,,4,,,55,100
114400,note_off,,,,,64,0,7,,,,,0,,,77,100
114432,note_on,,,,,32,0,7,,,,,0,,,76,85
114432,note_on,,,,,512,0,9,,,,,2,,,76,70
114432,note_on,,,,,64,0,11,,,,,4,,,67,70
114432,note_on,,,,,512,0,10,,,,,3,,,71,70
114496,note_off,,,,,64,0,7,,,,,0,,,76,100
114528,note_on,,,,,32,0,7,,,,,0,,,71,85
114560,note_off,,,,,128,0,11,,,,,4,,,67,100
114592,note_off,,,,,64,0,7,,,,,0,,,71,100
114624,note_on,,,,,256,0,8,,,,,1,,,79,100
114624,note_on,,,,,32,0,7,,,,,0,,,71,85
114624,note_on,,,,,64,0,11,,,,,4,,,55,70
114688,note_off,,,,,64,0,7,,,,,0,,,71,100
114688,note_off,,,,,256,0,9,,,,,2,,,76,100
114688,note_off,,,,,256,0,10,,,,,3,,,71,100
114720,note_on,,,,,32,0,7,,,,,0,,,76,85
114752,note_off,,,,,128,0,8,,,,,1,,,79,100
114752,note_off,,,,,128,0,11,,,,,4,,,55,100
114784,note_off,,,,,64,0,7,,,,,0,,,76,100
114816,note_on,,,,,32,0,7,,,,,0,,,76,85
114816,note_on,,,,,64,0,11,,,,,4,,,55,70
114816,note_on,,,,,64,0,8,,,,,1,,,79,100
114880,note_off,,,,,64,0,7,,,,,0,,,76,100
114880,note_off,,,,,64,0,8,,,,,1,,,79,100
114912,note_on,,,,,32,0,8,,,,,1,,,81,100
114912,note_on,,,,,32,0,7,,,,,0,,,71,85
114944,note_off,,,,,128,0,11,,,,,4,,,55,100
114976,note_off,,,,,64,0,7,,,,,0,,,71,100
114976,note_off,,,,,64,0,8,,,,,1,,,81,100
115008,note_on,,,,,32,0,8,,,,,1,,,79,100
115008,note_on,,,,,32,0,7,,,,,0,,,71,85
115008,note_on,,,,,64,0,11,,,,,4,,,55,70
115072,note_off,,,,,64,0,7,,,,,0,,,71,100
115104,note_on,,,,,32,0,7,,,,,0,,,76,85
115136,note_off,,,,,128,0,8,,,,,1,,,79,100
115136,note_off,,,,,128,0,11,,,,,4,,,55,100
115168,note_off,,,,,64,0,7,,,,,0,,,76,100
115200,note_on,,,,,64,0,11,,,,,4,,,67,70
115200,note_on,,,,,512,0,9,,,,,2,,,76,70
115200,note_on,,,,,32,0,7,,,,,0,,,76,85
115200,note_on,,,,,512,0,10,,,,,3,,,71,70
115264,note_off,,,,,64,0,7,,,,,0,,,76,100
115296,note_on,,,,,32,0,7,,,,,0,,,71,85
115328,note_off,,,,,128,0,11,,,,,4,,,67,100
115360,note_off,,,,,64,0,7,,,,,0,,,71,100
115392,note_on,,,,,32,0,7,,,,,0,,,71,85
115392,note_on,,,,,256,0,8,,,,,1,,,76,100
115392,note_on,,,,,64,0,11,,,,,4,,,55,70
115456,note_off,,,,,256,0,9,,,,,2,,,76,100
115456,note_off,,,,,64,0,7,,,,,0,,,71,100
115456,note_off,,,,,256,0,10,,,,,3,,,71,100
115488,note_on,,,,,32,0,7,,,,,0,,,76,85
115520,note_off,,,,,128,0,11,,,,,4,,,55,100
115520,note_off,,,,,128,0,8,,,,,1,,,76,100
115552,note_off,,,,,64,0,7,,,,,0,,,76,100
115584,note_on,,,,,32,0,7,,,,,0,,,76,85
115584,note_on,,,,,64,0,11,,,,,4,,,55,70
115584,note_on,,,,,64,0,8,,,,,1,,,76,100
115648,note_off,,,,,64,0,7,,,,,0,,,76,100
115648,note_off,,,,,64,0,8,,,,,1,,,76,100
115680,note_on,,,,,32,0,7,,,,,0,,,71,85
115680,note_on,,,,,32,0,8,,,,,1,,,77,100
115712,note_off,,,,,128,0,11,,,,,4,,,55,100
115744,note_off,,,,,64,0,7,,,,,0,,,71,100
115744,note_off,,,,,64,0,8,,,,,1,,,77,100
115776,note_on,,,,,64,0,11,,,,,4,,,55,70
115776,note_on,,,,,32,0,7,,,,,0,,,71,85
115776,note_on,,,,,32,0,8,,,,,1,,,76,100
115840,note_off,,,,,64,0,7,,,,,0,,,71,100
115872,note_on,,,,,32,0,7,,,,,0,,,76,85
115904,note_off,,,,,128,0,11,,,,,4,,,55,100
115904,note_off,,,,,128,0,8,,,,,1,,,76,100
115936,note_off,,,,,64,0,7,,,,,0,,,76,100
115968,note_on,,,,,512,0,9,,,,,2,,,76,70
115968,note_on,,,,,512,0,10,,,,,3,,,69,70
115968,note_on,,,,,64,0,11,,,,,4,,,65,70
115968,note_on,,,,,32,0,7,,,,,0,,,76,85
116032,note_off,,,,,64,0,7,,,,,0,,,76,100
116064,note_on,,,,,32,0,7,,,,,0,,,69,85
116096,note_off,,,,,128,0,11,,,,,4,,,65,100
116128,note_off,,,,,64,0,7,,,,,0,,,69,100
116160,note_on,,,,,64,0,11,,,,,4,,,53,70
116160,note_on,,,,,256,0,8,,,,,1,,,72,100
116160,note_on,,,,,32,0,7,,,,,0,,,69,85
116224,note_off,,,,,256,0,9,,,,,2,,,76,100
116224,note_off,,,,,256,0,10,,,,,3,,,69,100
116224,note_off,,,,,64,0,7,,,,,0,,,69,100
116256,note_on,,,,,32,0,7,,,,,0,,,76,85
116288,note_off,,,,,128,0,8,,,,,1,,,72,100
116288,note_off,,,,,128,0,11,,,,,4,,,53,100
116320,note_off,,,,,64,0,7,,,,,0,,,76,100
116352,note_on,,,,,64,0,11,,,,,4,,,53,70
116352,note_on,,,,,64,0,8,,,,,1,,,72,100
116352,note_on,,,,,32,0,7,,,,,0,,,76,85
116416,note_off,,,,,64,0,8,,,,,1,,,72,100
116416,note_off,,,,,64,0,7,,,,,0,,,76,100
116448,note_on,,,,,32,0,7,,,,,0,,,69,85
116448,note_on,,,,,32,0,8,,,,,1,,,74,100
116480,note_off,,,,,128,0,11,,,,,4,,,53,100
116512,note_off,,,,,64,0,8,,,,,1,,,74,100
116512,note_off,,,,,64,0,7,,,,,0,,,69,100
116544,note_on,,,,,64,0,11,,,,,4,,,53,70
116544,note_on,,,,,32,0,7,,,,,0,,,69,85
116544,note_on,,,,,32,0,8,,,,,1,,,72,100
116608,note_off,,,,,64,0,7,,,,,0,,,69,100
116640,note_on,,,,,32,0,7,,,,,0,,,76,85
116672,note_off,,,,,128,0,8,,,,,1,,,72,100
116672,note_off,,,,,128,0,11,,,,,4,,,53,100
116704,note_off,,,,,64,0,7,,,,,0,,,76,100
116736,note_on,,,,,32,0,7,,,,,0,,,76,85
116736,note_on,,,,,512,0,10,,,,,3,,,69,70
116736,note_on,,,,,512,0,9,,,,,2,,,76,70
116736,note_on,,,,,64,0,11,,,,,4,,,65,70
116800,note_off,,,,,64,0,7,,,,,0,,,76,100
116832,note_on,,,,,32,0,7,,,,,0,,,69,85
116864,note_off,,,,,128,0,11,,,,,4,,,65,100
116896,note_off,,,,,64,0,7,,,,,0,,,69,100
116928,note_on,,,,,256,0,8,,,,,1,,,69,100
116928,note_on,,,,,32,0,7,,,,,0,,,69,85
116928,note_on,,,,,64,0,11,,,,,4,,,53,70
116992,note_off,,,,,256,0,10,,,,,3,,,69,100
116992,note_off,,,,,64,0,7,,,,,0,,,69,100
116992,note_off,,,,,256,0,9,,,,,2,,,76,100
117024,note_on,,,,,32,0,7,,,,,0,,,76,85
117056,note_off,,,,,128,0,11,,,,,4,,,53,100
117056,note_off,,,,,128,0,8,,,,,1,,,69,100
117088,note_off,,,,,64,0,7,,,,,0,,,76,100
117120,note_on,,,,,32,0,7,,,,,0,,,76,85
117120,note_on,,,,,64,0,8,,,,,1,,,69,100
117120,note_on,,,,,64,0,11,,,,,4,,,53,70
117184,note_off,,,,,64,0,7,,,,,0,,,76,100
117184,note_off,,,,,64,0,8,,,,,1,,,69,100
117216,note_on,,,,,32,0,8,,,,,1,,,71,100
117216,note_on,,,,,32,0,7,,,,,0,,,69,85
117248,note_off,,,,,128,0,11,,,,,4,,,53,100
117280,note_off,,,,,64,0,8,,,,,1,,,71,100
117280,note_off,,,,,64,0,7,,,,,0,,,69,100
117312,note_on,,,,,32,0,8,,,,,1,,,69,100
117312,note_on,,,,,32,0,7,,,,,0,,,69,85
117312,note_on,,,,,64,0,11,,,,,4,,,53,70
117376,note_off,,,,,64,0,7,,,,,0,,,69,100
117408,note_on,,,,,32,0,7,,,,,0,,,76,85
117440,note_off,,,,,128,0,11,,,,,4,,,53,100
117440,note_off,,,,,128,0,8,,,,,1,,,69,100
117472,note_off,,,,,64,0,7,,,,,0,,,76,100
117504,note_on,,,,,512,0,9,,,,,2,,,74,70
117504,note_on,,,,,64,0,11,,,,,4,,,65,70
117504,note_on,,,,,32,0,7,,,,,0,,,74,85
117504,note_on,,,,,512,0,10,,,,,3,,,69,70
117568,note_off,,,,,64,0,7,,,,,0,,,74,100
117600,note_on,,,,,32,0,7,,,,,0,,,69,85
117632,note_off,,,,,128,0,11,,,,,4,,,65,100
117664,note_off,,,,,64,0,7,,,,,0,,,69,100
117696,note_on,,,,,32,0,7,,,,,0,,,69,85
117696,note_on,,,,,64,0,11,,,,,4,,,53,70
117696,note_on,,,,,256,0,8,,,,,1,,,77,100
117760,note_off,,,,,256,0,9,,,,,2,,,74,100
117760,note_off,,,,,256,0,10,,,,,3,,,69,100
117760,note_off,,,,,64,0,7,,,,,0,,,69,100
117792,note_on,,,,,32,0,7,,,,,0,,,74,85
117824,note_off,,,,,128,0,8,,,,,1,,,77,100
117824,note_off,,,,,128,0,11,,,,,4,,,53,100
117856,note_off,,,,,64,0,7,,,,,0,,,74,100
117888,note_on,,,,,64,0,8,,,,,1,,,77,100
117888,note_on,,,,,32,0,7,,,,,0,,,74,85
117888,note_on,,,,,64,0,11,,,,,4,,,53,70
117952,note_off,,,,,64,0,8,,,,,1,,,77,100
117952,note_off,,,,,64,0,7,,,,,0,,,74,100
117984,note_on,,,,,32,0,7,,,,,0,,,69,85
117984,note_on,,,,,32,0,8,,,,,1,,,79,100
118016,note_off,,,,,128,0,11,,,,,4,,,53,100
118048,note_off,,,,,64,0,8,,,,,1,,,79,100
118048,note_off,,,,,64,0,7,,,,,0,,,69,100
118080,note_on,,,,,32,0,8,,,,,1,,,77,100
118080,note_on,,,,,32,0,7,,,,,0,,,69,85
118080,note_on,,,,,64,0,11,,,,,4,,,53,70
118144,note_off,,,,,64,0,7,,,,,0,,,69,100
118176,note_on,,,,,32,0,7,,,,,0,,,74,85
118208,note_off,,,,,128,0,11,,,,,4,,,53,100
118208,note_off,,,,,128,0,8,,,,,1,,,77,100
118240,note_off,,,,,64,0,7,,,,,0,,,74,100
118272,note_on,,,,,512,0,9,,,,,2,,,74,70
118272,note_on,,,,,512,0,10,,,,,3,,,69,70
118272,note_on,,,,,64,0,11,,,,,4,,,65,70
118272,note_on,,,,,32,0,7,,,,,0,,,74,85
118336,note_off,,,,,64,0,7,,,,,0,,,74,100
118368,note_on,,,,,32,0,7,,,,,0,,,69,85
118400,note_off,,,,,128,0,11,,,,,4,,,65,100
118432,note_off,,,,,64,0,7,,,,,0,,,69,100
118464,note_on,,,,,64,0,11,,,,,4,,,53,70
118464,note_on,,,,,32,0,7,,,,,0,,,69,85
118464,note_on,,,,,256,0,8,,,,,1,,,74,100
118528,note_off,,,,,256,0,10,,,,,3,,,69,100
118528,note_off,,,,,256,0,9,,,,,2,,,74,100
118528,note_off,,,,,64,0,7,,,,,0,,,69,100
118560,note_on,,,,,32,0,7,,,,,0,,,74,85
118592,note_off,,,,,128,0,11,,,,,4,,,53,100
118592,note_off,,,,,128,0,8,,,,,1,,,74,100
118624,note_off,,,,,64,0,7,,,,,0,,,74,100
118656,note_on,,,,,32,0,7,,,,,0,,,74,85
118656,note_on,,,,,64,0,11,,,,,4,,,53,70
118656,note_on,,,,,64,0,8,,,,,1,,,74,100
118720,note_off,,,,,64,0,7,,,,,0,,,74,100
118720,note_off,,,,,64,0,8,,,,,1,,,74,100
118752,note_on,,,,,32,0,7,,,,,0,,,69,85
118752,note_on,,,,,32,0,8,,,,,1,,,76,100
118784,note_off,,,,,128,0,11,,,,,4,,,53,100
118816,note_off,,,,,64,0,8,,,,,1,,,76,100
118816,note_off,,,,,64,0,7,,,,,0,,,69,100
118848,note_on,,,,,32,0,7,,,,,0,,,69,85
118848,note_on,,,,,64,0,11,,,,,4,,,53,70
118848,note_on,,,,,32,0,8,,,,,1,,,74,100
118912,note_off,,,,,64,0,7,,,,,0,,,69,100
118944,note_on,,,,,32,0,7,,,,,0,,,74,85
118976,note_off,,,,,128,0,8,,,,,1,,,74,100
118976,note_off,,,,,128,0,11,,,,,4,,,53,100
119008,note_off,,,,,64,0,7,,,,,0,,,74,100
119040,note_on,,,,,10496,0,12,,,,,5,,,52,90
119040,note_on,,,,,10496,0,13,,,,,6,,,40,90
119040,note_on,,,,,32,0,7,,,,,0,,,68,85
119040,note_on,,,,,64,0,11,,,,,4,,,64,90
119040,note_on,,,,,512,0,10,,,,,3,,,68,40
119040,note_on,,,,,10496,0,15,,,,,7,,,56,100
119040,note_on,,,,,10496,0,14,,,,,7,,,76,100
119040,note_on,,,,,0,0,14,,,,,7,,,71,100
119040,note_on,,,,,512,0,9,,,,,2,,,76,40
119040,note_on,,,,,64,0,8,,,,,1,,,71,100
119168,note_off,,,,,128,0,13,,,,,6,,,40,100
119168,note_off,,,,,128,0,9,,,,,2,,,76,100
119168,note_off,,,,,128,0,15,,,,,7,,,56,100
119168,note_off,,,,,128,0,14,,,,,7,,,76,100
119168,note_off,,,,,0,0,14,,,,,7,,,71,100
119168,note_off,,,,,128,0,10,,,,,3,,,68,100
119168,note_off,,,,,128,0,11,,,,,4,,,64,100
119168,note_off,,,,,128,0,7,,,,,0,,,68,100
119168,note_off,,,,,128,0,12,,,,,5,,,52,100
119232,note_on,,,,,64,0,13,,,,,6,,,40,94
119232,note_on,,,,,64,0,11,,,,,4,,,68,94
119232,note_on,,,,,64,0,7,,,,,0,,,64,85
119232,note_on,,,,,64,0,15,,,,,7,,,52,100
119232,note_on,,,,,0,0,14,,,,,7,,,71,100
119232,note_on,,,,,64,0,9,,,,,2,,,76,94
119232,note_on,,,,,64,0,10,,,,,3,,,71,94
119232,note_on,,,,,64,0,14,,,,,7,,,68,100
119232,note_on,,,,,64,0,12,,,,,5,,,52,94
119296,note_off,,,,,256,0,8,,,,,1,,,71,100
119296,note_off,,,,,64,0,12,,,,,5,,,52,100
119296,note_off,,,,,64,0,15,,,,,7,,,52,100
119296,note_off,,,,,64,0,14,,,,,7,,,68,100
119296,note_off,,,,,0,0,14,,,,,7,,,71,100
119296,note_off,,,,,64,0,13,,,,,6,,,40,100
119296,note_off,,,,,64,0,11,,,,,4,,,68,100
119328,note_on,,,,,32,0,14,,,,,7,,,69,100
119328,note_on,,,,,32,0,12,,,,,5,,,54,97
119328,note_on,,,,,32,0,13,,,,,6,,,42,97
119328,note_on,,,,,32,0,15,,,,,7,,,54,100
119328,note_on,,,,,32,0,11,,,,,4,,,69,97
119328,note_on,,,,,0,0,14,,,,,7,,,72,100
119360,note_off,,,,,128,0,7,,,,,0,,,64,100
119360,note_off,,,,,128,0,10,,,,,3,,,71,100
119360,note_off,,,,,128,0,9,,,,,2,,,76,100
119392,note_off,,,,,64,0,12,,,,,5,,,54,100
119392,note_off,,,,,64,0,11,,,,,4,,,69,100
119392,note_off,,,,,64,0,13,,,,,6,,,42,100
119392,note_off,,,,,64,0,14,,,,,7,,,69,100
119392,note_off,,,,,0,0,14,,,,,7,,,72,100
119392,note_off,,,,,64,0,15,,,,,7,,,54,100
119424,note_on,,,,,32,0,15,,,,,7,,,56,100
119424,note_on,,,,,32,0,13,,,,,6,,,44,99
119424,note_on,,,,,64,0,9,,,,,2,,,76,99
119424,note_on,,,,,64,0,10,,,,,3,,,71,99
119424,program_change,,,,,64,0,7,,,,,0,48,,,
119424,note_on,,,,,32,0,14,,,,,7,,,71,100
119424,program_change,,,,,128,0,8,,,,,1,48,,,
119424,note_on,,,,,32,0,11,,,,,4,,,71,99
119424,note_on,,,,,32,0,12,,,,,5,,,56,99
119424,note_on,,,,,0,0,14,,,,,7,,,76,100
119488,note_off,,,,,64,0,9,,,,,2,,,76,100
119520,note_on,,,,,32,0,9,,,,,2,,,77,100
119552,note_off,,,,,128,0,13,,,,,6,,,44,100
119552,note_off,,,,,128,0,14,,,,,7,,,71,100
119552,note_off,,,,,0,0,14,,,,,7,,,76,100
119552,note_off,,,,,128,0,15,,,,,7,,,56,100
119552,note_off,,,,,128,0,12,,,,,5,,,56,100
119552,note_off,,,,,128,0,11,,,,,4,,,71,100
119584,note_off,,,,,64,0,9,,,,,2,,,77,100
119616,note_on,,,,,192,0,7,,,,,0,,,76,100
119616,note_on,,,,,64,0,11,,,,,4,,,68,100
119616,note_on,,,,,64,0,12,,,,,5,,,52,100
119616,note_on,,,,,64,0,15,,,,,7,,,52,100
119616,note_on,,,,,192,0,8,,,,,1,,,71,100
119616,note_on,,,,,0,0,14,,,,,7,,,71,100
119616,note_on,,,,,64,0,14,,,,,7,,,68,100
119616,note_on,,,,,32,0,9,,,,,2,,,76,100
119616,note_on,,,,,64,0,13,,,,,6,,,40,100
119680,note_off,,,,,256,0,10,,,,,3,,,71,100
119744,note_off,,,,,128,0,14,,,,,7,,,68,100
119744,note_off,,,,,128,0,12,,,,,5,,,52,100
119744,note_off,,,,,128,0,9,,,,,2,,,76,100
119744,note_off,,,,,128,0,11,,,,,4,,,68,100
119744,note_off,,,,,0,0,14,,,,,7,,,71,100
119744,note_off,,,,,128,0,15,,,,,7,,,52,100
119744,note_off,,,,,128,0,7,,,,,0,,,76,100
119744,note_off,,,,,128,0,8,,,,,1,,,71,100
119744,note_off,,,,,128,0,13,,,,,6,,,40,100
119808,note_on,,,,,64,0,13,,,,,6,,,45,100
119808,note_on,,,,,64,0,11,,,,,4,,,64,100
119808,note_on,,,,,64,0,7,,,,,0,,,76,100
119808,note_on,,,,,64,0,8,,,,,1,,,72,100
119808,note_on,,,,,64,0,15,,,,,7,,,57,100
119808,note_on,,,,,64,0,14,,,,,7,,,76,100
119808,note_on,,,,,64,0,12,,,,,5,,,57,100
119808,note_on,,,,,0,0,14,,,,,7,,,72,100
119872,note_off,,,,,64,0,7,,,,,0,,,76,100
119872,note_off,,,,,64,0,8,,,,,1,,,72,100
119904,note_on,,,,,32,0,8,,,,,1,,,74,100
119904,note_on,,,,,32,0,7,,,,,0,,,77,100
119936,note_off,,,,,128,0,12,,,,,5,,,57,100
119936,note_off,,,,,128,0,14,,,,,7,,,76,100
119936,note_off,,,,,128,0,13,,,,,6,,,45,100
119936,note_off,,,,,128,0,15,,,,,7,,,57,100
119936,note_off,,,,,0,0,14,,,,,7,,,72,100
119968,note_off,,,,,64,0,8,,,,,1,,,74,100
119968,note_off,,,,,64,0,7,,,,,0,,,77,100
120000,note_on,,,,,64,0,14,,,,,7,,,72,100
120000,note_on,,,,,32,0,8,,,,,1,,,72,100
120000,note_on,,,,,256,0,9,,,,,2,,,76,100
120000,note_on,,,,,320,0,10,,,,,3,,,72,100
120000,note_on,,,,,32,0,7,,,,,0,,,76,100
120000,note_on,,,,,64,0,13,,,,,6,,,45,100
120000,note_on,,,,,64,0,15,,,,,7,,,57,100
120000,note_on,,,,,64,0,12,,,,,5,,,57,100
120064,note_off,,,,,256,0,11,,,,,4,,,64,100
120064,note_off,,,,,64,0,13,,,,,6,,,45,100
120064,note_off,,,,,64,0,15,,,,,7,,,57,100
120064,note_off,,,,,64,0,14,,,,,7,,,72,100
120064,note_off,,,,,64,0,12,,,,,5,,,57,100
120096,note_on,,,,,32,0,15,,,,,7,,,59,100
120096,note_on,,,,,32,0,13,,,,,6,,,47,100
120096,note_on,,,,,32,0,14,,,,,7,,,74,100
120096,note_on,,,,,32,0,12,,,,,5,,,59,100
120128,note_off,,,,,128,0,7,,,,,0,,,76,100
120128,note_off,,,,,128,0,9,,,,,2,,,76,100
120128,note_off,,,,,128,0,10,,,,,3,,,72,100
120128,note_off,,,,,128,0,8,,,,,1,,,72,100
120160,note_off,,,,,64,0,15,,,,,7,,,59,100
120160,note_off,,,,,64,0,14,,,,,7,,,74,100
120160,note_off,,,,,64,0,13,,,,,6,,,47,100
120160,note_off,,,,,64,0,12,,,,,5,,,59,100
120192,note_on,,,,,64,0,10,,,,,3,,,72,100
120192,note_on,,,,,32,0,14,,,,,7,,,76,100
120192,note_on,,,,,32,0,13,,,,,6,,,48,100
120192,note_on,,,,,32,0,12,,,,,5,,,60,100
120192,note_on,,,,,64,0,9,,,,,2,,,76,100
120192,note_on,,,,,32,0,15,,,,,7,,,60,100
120256,note_off,,,,,64,0,10,,,,,3,,,72,100
120256,note_off,,,,,64,0,9,,,,,2,,,76,100
120288,note_on,,,,,32,0,9,,,,,2,,,77,100
120288,note_on,,,,,32,0,10,,,,,3,,,74,100
120320,note_off,,,,,128,0,13,,,,,6,,,48,100
120320,note_off,,,,,128,0,14,,,,,7,,,76,100
120320,note_off,,,,,128,0,12,,,,,5,,,60,100
120352,note_off,,,,,64,0,9,,,,,2,,,77,100
120352,note_off,,,,,64,0,10,,,,,3,,,74,100
120384,note_on,,,,,256,0,7,,,,,0,,,76,100
120384,note_on,,,,,320,0,11,,,,,4,,,69,100
120384,note_on,,,,,64,0,13,,,,,6,,,45,100
120384,note_on,,,,,64,0,12,,,,,5,,,57,100
120384,note_on,,,,,0,0,15,,,,,7,,,57,100
120384,note_on,,,,,32,0,10,,,,,3,,,72,100
120384,note_on,,,,,64,0,14,,,,,7,,,72,100
120384,note_on,,,,,32,0,9,,,,,2,,,76,100
120384,note_on,,,,,256,0,8,,,,,1,,,72,100
120384,note_off,,,,,192,0,15,,,,,7,,,60,100
120512,note_off,,,,,128,0,10,,,,,3,,,72,100
120512,note_off,,,,,128,0,8,,,,,1,,,72,100
120512,note_off,,,,,128,0,11,,,,,4,,,69,100
120512,note_off,,,,,128,0,12,,,,,5,,,57,100
120512,note_off,,,,,128,0,13,,,,,6,,,45,100
120512,note_off,,,,,128,0,15,,,,,7,,,57,100
120512,note_off,,,,,128,0,14,,,,,7,,,72,100
120512,note_off,,,,,128,0,7,,,,,0,,,76,100
120512,note_off,,,,,128,0,9,,,,,2,,,76,100
120576,note_on,,,,,64,0,14,,,,,7,,,76,100
120576,note_on,,,,,0,0,14,,,,,7,,,71,100
120576,note_on,,,,,64,0,13,,,,,6,,,44,85
120576,note_on,,,,,64,0,8,,,,,1,,,71,100
120576,note_on,,,,,64,0,7,,,,,0,,,76,100
120576,note_on,,,,,64,0,11,,,,,4,,,71,85
120576,note_on,,,,,64,0,12,,,,,5,,,56,85
120576,note_on,,,,,64,0,15,,,,,7,,,56,100
120640,note_off,,,,,64,0,7,,,,,0,,,76,100
120672,note_on,,,,,32,0,7,,,,,0,,,77,100
120704,note_off,,,,,128,0,15,,,,,7,,,56,100
120704,note_off,,,,,128,0,11,,,,,4,,,71,100
120704,note_off,,,,,0,0,14,,,,,7,,,71,100
120704,note_off,,,,,128,0,14,,,,,7,,,76,100
120704,note_off,,,,,128,0,13,,,,,6,,,44,100
120704,note_off,,,,,128,0,12,,,,,5,,,56,100
120736,note_off,,,,,64,0,7,,,,,0,,,77,100
120768,note_on,,,,,256,0,10,,,,,3,,,71,85
120768,note_on,,,,,64,0,12,,,,,5,,,52,85
120768,note_on,,,,,32,0,7,,,,,0,,,76,100
120768,note_on,,,,,64,0,11,,,,,4,,,68,85
120768,note_on,,,,,0,0,14,,,,,7,,,71,100
120768,note_on,,,,,64,0,14,,,,,7,,,68,100
120768,note_on,,,,,256,0,9,,,,,2,,,76,85
120768,note_on,,,,,64,0,13,,,,,6,,,40,85
120768,note_on,,,,,64,0,15,,,,,7,,,52,100
120832,note_off,,,,,64,0,13,,,,,6,,,40,100
120832,note_off,,,,,64,0,11,,,,,4,,,68,100
120832,note_off,,,,,256,0,8,,,,,1,,,71,100
120832,note_off,,,,,64,0,14,,,,,7,,,68,100
120832,note_off,,,,,64,0,12,,,,,5,,,52,100
120832,note_off,,,,,64,0,15,,,,,7,,,52,100
120832,note_off,,,,,0,0,14,,,,,7,,,71,100
120864,note_on,,,,,32,0,13,,,,,6,,,42,85
120864,note_on,,,,,32,0,11,,,,,4,,,69,85
120864,note_on,,,,,0,0,14,,,,,7,,,72,100
120864,note_on,,,,,32,0,14,,,,,7,,,69,100
120864,note_on,,,,,32,0,15,,,,,7,,,54,100
120864,note_on,,,,,32,0,12,,,,,5,,,54,85
120896,note_off,,,,,128,0,7,,,,,0,,,76,100
120896,note_off,,,,,128,0,9,,,,,2,,,76,100
120896,note_off,,,,,128,0,10,,,,,3,,,71,100
120928,note_off,,,,,64,0,15,,,,,7,,,54,100
120928,note_off,,,,,0,0,14,,,,,7,,,72,100
120928,note_off,,,,,64,0,13,,,,,6,,,42,100
120928,note_off,,,,,64,0,12,,,,,5,,,54,100
120928,note_off,,,,,64,0,11,,,,,4,,,69,100
120928,note_off,,,,,64,0,14,,,,,7,,,69,100
120960,note_on,,,,,64,0,10,,,,,3,,,71,85
120960,note_on,,,,,32,0,11,,,,,4,,,71,85
120960,note_on,,,,,32,0,15,,,,,7,,,56,100
120960,note_on,,,,,0,0,14,,,,,7,,,76,100
120960,note_on,,,,,32,0,12,,,,,5,,,56,85
120960,note_on,,,,,32,0,14,,,,,7,,,71,100
120960,note_on,,,,,64,0,9,,,,,2,,,76,85
120960,note_on,,,,,32,0,13,,,,,6,,,44,85
121024,note_off,,,,,64,0,9,,,,,2,,,76,100
121056,note_on,,,,,32,0,9,,,,,2,,,77,85
121088,note_off,,,,,128,0,11,,,,,4,,,71,100
121088,note_off,,,,,0,0,14,,,,,7,,,76,100
121088,note_off,,,,,128,0,14,,,,,7,,,71,100
121088,note_off,,,,,128,0,15,,,,,7,,,56,100
121088,note_off,,,,,128,0,12,,,,,5,,,56,100
121088,note_off,,,,,128,0,13,,,,,6,,,44,100
121120,note_off,,,,,64,0,9,,,,,2,,,77,100
121152,note_on,,,,,64,0,12,,,,,5,,,52,85
121152,note_on,,,,,256,0,7,,,,,0,,,76,85
121152,note_on,,,,,320,0,8,,,,,1,,,71,85
121152,note_on,,,,,64,0,11,,,,,4,,,68,85
121152,note_on,,,,,64,0,14,,,,,7,,,68,100
121152,note_on,,,,,32,0,9,,,,,2,,,76,85
121152,note_on,,,,,64,0,15,,,,,7,,,52,100
121152,note_on,,,,,0,0,14,,,,,7,,,71,100
121152,note_on,,,,,64,0,13,,,,,6,,,40,85
121216,note_off,,,,,256,0,10,,,,,3,,,71,100
121280,note_off,,,,,128,0,14,,,,,7,,,68,100
121280,note_off,,,,,128,0,9,,,,,2,,,76,100
121280,note_off,,,,,0,0,14,,,,,7,,,71,100
121280,note_off,,,,,128,0,8,,,,,1,,,71,100
121280,note_off,,,,,128,0,7,,,,,0,,,76,100
121280,note_off,,,,,128,0,12,,,,,5,,,52,100
121280,note_off,,,,,128,0,11,,,,,4,,,68,100
121280,note_off,,,,,128,0,13,,,,,6,,,40,100
121280,note_off,,,,,128,0,15,,,,,7,,,52,100
121344,note_on,,,,,64,0,8,,,,,1,,,72,85
121344,note_on,,,,,64,0,7,,,,,0,,,76,85
121344,note_on,,,,,64,0,11,,,,,4,,,64,85
121344,note_on,,,,,64,0,13,,,,,6,,,45,85
121344,note_on,,,,,64,0,12,,,,,5,,,57,85
121344,note_on,,,,,0,0,14,,,,,7,,,72,100
121344,note_on,,,,,64,0,14,,,,,7,,,76,100
121344,note_on,,,,,64,0,15,,,,,7,,,57,100
121408,note_off,,,,,64,0,8,,,,,1,,,72,100
121408,note_off,,,,,64,0,7,,,,,0,,,76,100
121440,note_on,,,,,32,0,8,,,,,1,,,74,86
121440,note_on,,,,,32,0,7,,,,,0,,,77,86
121472,note_off,,,,,128,0,14,,,,,7,,,76,100
121472,note_off,,,,,128,0,12,,,,,5,,,57,100
121472,note_off,,,,,128,0,13,,,,,6,,,45,100
121472,note_off,,,,,128,0,15,,,,,7,,,57,100
121472,note_off,,,,,0,0,14,,,,,7,,,72,100
121504,note_off,,,,,64,0,7,,,,,0,,,77,100
121504,note_off,,,,,64,0,8,,,,,1,,,74,100
121536,note_on,,,,,64,0,15,,,,,7,,,57,100
121536,note_on,,,,,320,0,10,,,,,3,,,72,88
121536,note_on,,,,,32,0,8,,,,,1,,,72,88
121536,note_on,,,,,64,0,14,,,,,7,,,72,100
121536,note_on,,,,,32,0,7,,,,,0,,,76,88
121536,note_on,,,,,64,0,12,,,,,5,,,57,88
121536,note_on,,,,,256,0,9,,,,,2,,,76,88
121536,note_on,,,,,64,0,13,,,,,6,,,45,88
121600,note_off,,,,,64,0,14,,,,,7,,,72,100
121600,note_off,,,,,256,0,11,,,,,4,,,64,100
121600,note_off,,,,,64,0,13,,,,,6,,,45,100
121600,note_off,,,,,64,0,12,,,,,5,,,57,100
121600,note_off,,,,,64,0,15,,,,,7,,,57,100
121632,note_on,,,,,32,0,15,,,,,7,,,59,100
121632,note_on,,,,,32,0,13,,,,,6,,,47,89
121632,note_on,,,,,32,0,12,,,,,5,,,59,89
121632,note_on,,,,,32,0,14,,,,,7,,,74,100
121664,note_off,,,,,128,0,10,,,,,3,,,72,100
121664,note_off,,,,,128,0,7,,,,,0,,,76,100
121664,note_off,,,,,128,0,9,,,,,2,,,76,100
121664,note_off,,,,,128,0,8,,,,,1,,,72,100
121696,note_off,,,,,64,0,15,,,,,7,,,59,100
121696,note_off,,,,,64,0,14,,,,,7,,,74,100
121696,note_off,,,,,64,0,12,,,,,5,,,59,100
121696,note_off,,,,,64,0,13,,,,,6,,,47,100
121728,note_on,,,,,32,0,15,,,,,7,,,60,100
121728,note_on,,,,,32,0,13,,,,,6,,,48,91
121728,note_on,,,,,64,0,10,,,,,3,,,72,91
121728,note_on,,,,,32,0,14,,,,,7,,,76,100
121728,note_on,,,,,32,0,12,,,,,5,,,60,91
121728,note_on,,,,,64,0,9,,,,,2,,,76,91
121792,note_off,,,,,64,0,10,,,,,3,,,72,100
121792,note_off,,,,,64,0,9,,,,,2,,,76,100
121824,note_on,,,,,32,0,9,,,,,2,,,77,93
121824,note_on,,,,,32,0,10,,,,,3,,,74,93
121856,note_off,,,,,128,0,12,,,,,5,,,60,100
121856,note_off,,,,,128,0,14,,,,,7,,,76,100
121856,note_off,,,,,128,0,13,,,,,6,,,48,100
121888,note_off,,,,,64,0,10,,,,,3,,,74,100
121888,note_off,,,,,64,0,9,,,,,2,,,77,100
121920,note_on,,,,,32,0,9,,,,,2,,,76,94
121920,note_on,,,,,0,0,15,,,,,7,,,57,100
121920,note_on,,,,,256,0,8,,,,,1,,,72,94
121920,note_on,,,,,64,0,12,,,,,5,,,57,94
121920,note_on,,,,,320,0,11,,,,,4,,,69,94
121920,note_off,,,,,192,0,15,,,,,7,,,60,100
121920,note_on,,,,,64,0,14,,,,,7,,,72,100
121920,note_on,,,,,256,0,7,,,,,0,,,76,94
121920,note_on,,,,,64,0,13,,,,,6,,,45,94
121920,note_on,,,,,32,0,10,,,,,3,,,72,94
122048,note_off,,,,,128,0,14,,,,,7,,,72,100
122048,note_off,,,,,128,0,13,,,,,6,,,45,100
122048,note_off,,,,,128,0,8,,,,,1,,,72,100
122048,note_off,,,,,128,0,7,,,,,0,,,76,100
122048,note_off,,,,,128,0,11,,,,,4,,,69,100
122048,note_off,,,,,128,0,10,,,,,3,,,72,100
122048,note_off,,,,,128,0,12,,,,,5,,,57,100
122048,note_off,,,,,128,0,9,,,,,2,,,76,100
122048,note_off,,,,,128,0,15,,,,,7,,,57,100
122112,note_on,,,,,64,0,11,,,,,4,,,69,105
122112,note_on,,,,,64,0,13,,,,,6,,,50,105
122112,note_on,,,,,0,0,14,,,,,7,,,77,100
122112,note_on,,,,,64,0,15,,,,,7,,,62,100
122112,note_on,,,,,64,0,10,,,,,3,,,74,55
122112,note_on,,,,,64,0,14,,,,,7,,,69,100
122112,note_on,,,,,64,0,7,,,,,0,,,77,115
122112,note_on,,,,,64,0,12,,,,,5,,,62,105
122112,note_on,,,,,64,0,9,,,,,2,,,77,55
122112,note_on,,,,,64,0,8,,,,,1,,,74,105
122176,note_off,,,,,64,0,8,,,,,1,,,74,100
122176,note_off,,,,,64,0,10,,,,,3,,,74,100
122176,note_off,,,,,64,0,7,,,,,0,,,77,100
122176,note_off,,,,,64,0,9,,,,,2,,,77,100
122208,note_on,,,,,32,0,8,,,,,1,,,76,104
122208,note_on,,,,,32,0,10,,,,,3,,,76,54
122208,note_on,,,,,32,0,7,,,,,0,,,79,114
122208,note_on,,,,,32,0,9,,,,,2,,,79,54
122272,note_off,,,,,64,0,8,,,,,1,,,76,100
122272,note_off,,,,,64,0,10,,,,,3,,,76,100
122272,note_off,,,,,64,0,7,,,,,0,,,79,100
122272,note_off,,,,,64,0,9,,,,,2,,,79,100
122304,note_on,,,,,32,0,7,,,,,0,,,77,113
122304,note_on,,,,,32,0,10,,,,,3,,,74,53
122304,note_on,,,,,32,0,9,,,,,2,,,77,53
122304,note_on,,,,,32,0,8,,,,,1,,,74,103
122368,note_off,,,,,256,0,14,,,,,7,,,69,100
122368,note_off,,,,,256,0,15,,,,,7,,,62,100
122368,note_off,,,,,256,0,13,,,,,6,,,50,100
122368,note_off,,,,,64,0,9,,,,,2,,,77,100
122368,note_off,,,,,64,0,8,,,,,1,,,74,100
122368,note_off,,,,,256,0,12,,,,,5,,,62,100
122368,note_off,,,,,64,0,10,,,,,3,,,74,100
122368,note_off,,,,,0,0,14,,,,,7,,,77,100
122368,note_off,,,,,64,0,7,,,,,0,,,77,100
122400,note_on,,,,,32,0,9,,,,,2,,,79,52
122400,note_on,,,,,32,0,8,,,,,1,,,76,102
122400,note_on,,,,,32,0,7,,,,,0,,,79,112
122400,note_on,,,,,32,0,10,,,,,3,,,76,52
122464,note_off,,,,,64,0,9,,,,,2,,,79,100
122464,note_off,,,,,64,0,8,,,,,1,,,76,100
122464,note_off,,,,,64,0,10,,,,,3,,,76,100
122464,note_off,,,,,64,0,7,,,,,0,,,79,100
122496,note_on,,,,,32,0,7,,,,,0,,,77,111
122496,note_on,,,,,128,0,12,,,,,5,,,50,101
122496,note_on,,,,,128,0,15,,,,,7,,,50,100
122496,note_on,,,,,32,0,8,,,,,1,,,74,101
122496,note_on,,,,,32,0,10,,,,,3,,,74,51
122496,note_on,,,,,128,0,13,,,,,6,,,38,101
122496,note_on,,,,,0,0,14,,,,,7,,,69,100
122496,note_on,,,,,128,0,14,,,,,7,,,65,100
122496,note_on,,,,,32,0,9,,,,,2,,,77,51
122560,note_off,,,,,64,0,10,,,,,3,,,74,100
122560,note_off,,,,,64,0,8,,,,,1,,,74,100
122560,note_off,,,,,64,0,7,,,,,0,,,77,100
122560,note_off,,,,,64,0,9,,,,,2,,,77,100
122592,note_on,,,,,32,0,7,,,,,0,,,79,110
122592,note_on,,,,,32,0,9,,,,,2,,,79,50
122592,note_on,,,,,32,0,8,,,,,1,,,76,100
122592,note_on,,,,,32,0,10,,,,,3,,,76,50
122624,note_off,,,,,512,0,11,,,,,4,,,69,100
122656,note_off,,,,,64,0,7,,,,,0,,,79,100
122656,note_off,,,,,64,0,8,,,,,1,,,76,100
122656,note_off,,,,,64,0,9,,,,,2,,,79,100
122656,note_off,,,,,64,0,10,,,,,3,,,76,100
122688,note_on,,,,,32,0,8,,,,,1,,,74,99
122688,note_on,,,,,32,0,9,,,,,2,,,77,49
122688,note_on,,,,,32,0,7,,,,,0,,,77,109
122688,note_on,,,,,32,0,10,,,,,3,,,74,49
122752,note_off,,,,,64,0,10,,,,,3,,,74,100
122752,note_off,,,,,64,0,8,,,,,1,,,74,100
122752,note_off,,,,,256,0,14,,,,,7,,,65,100
122752,note_off,,,,,0,0,14,,,,,7,,,69,100
122752,note_off,,,,,256,0,13,,,,,6,,,38,100
122752,note_off,,,,,256,0,15,,,,,7,,,50,100
122752,note_off,,,,,64,0,7,,,,,0,,,77,100
122752,note_off,,,,,64,0,9,,,,,2,,,77,100
122752,note_off,,,,,256,0,12,,,,,5,,,50,100
122784,note_on,,,,,32,0,7,,,,,0,,,79,108
122784,note_on,,,,,32,0,9,,,,,2,,,79,48
122784,note_on,,,,,32,0,8,,,,,1,,,76,98
122784,note_on,,,,,32,0,10,,,,,3,,,76,48
122848,note_off,,,,,64,0,8,,,,,1,,,76,100
122848,note_off,,,,,64,0,9,,,,,2,,,79,100
122848,note_off,,,,,64,0,7,,,,,0,,,79,100
122848,note_off,,,,,64,0,10,,,,,3,,,76,100
122880,note_on,,,,,0,0,14,,,,,7,,,77,100
122880,note_on,,,,,32,0,8,,,,,1,,,74,97
122880,note_on,,,,,32,0,9,,,,,2,,,77,47
122880,note_on,,,,,256,0,11,,,,,4,,,71,97
122880,note_on,,,,,128,0,15,,,,,7,,,55,100
122880,note_on,,,,,128,0,13,,,,,6,,,43,97
122880,note_on,,,,,128,0,12,,,,,5,,,55,97
122880,note_on,,,,,128,0,14,,,,,7,,,74,100
122880,note_on,,,,,32,0,10,,,,,3,,,74,47
122880,note_on,,,,,32,0,7,,,,,0,,,77,107
123008,note_off,,,,,128,0,8,,,,,1,,,74,100
123008,note_off,,,,,128,0,10,,,,,3,,,74,100
123008,note_off,,,,,128,0,9,,,,,2,,,77,100
123008,note_off,,,,,128,0,7,,,,,0,,,77,100
123072,note_on,,,,,64,0,10,,,,,3,,,77,45
123072,note_on,,,,,64,0,8,,,,,1,,,77,95
123072,note_on,,,,,64,0,9,,,,,2,,,74,45
123072,note_on,,,,,64,0,7,,,,,0,,,74,105
123136,note_off,,,,,256,0,14,,,,,7,,,74,100
123136,note_off,,,,,0,0,14,,,,,7,,,77,100
123136,note_off,,,,,256,0,13,,,,,6,,,43,100
123136,note_off,,,,,256,0,12,,,,,5,,,55,100
123136,note_off,,,,,256,0,15,,,,,7,,,55,100
123200,note_off,,,,,128,0,7,,,,,0,,,74,100
123200,note_off,,,,,128,0,10,,,,,3,,,77,100
123200,note_off,,,,,128,0,8,,,,,1,,,77,100
123200,note_off,,,,,128,0,9,,,,,2,,,74,100
123264,note_on,,,,,64,0,7,,,,,0,,,71,103
123264,note_on,,,,,0,0,14,,,,,7,,,74,100
123264,note_on,,,,,128,0,13,,,,,6,,,43,93
123264,note_on,,,,,64,0,9,,,,,2,,,71,43
123264,note_on,,,,,128,0,15,,,,,7,,,43,100
123264,note_on,,,,,128,0,14,,,,,7,,,65,100
123264,note_on,,,,,128,0,12,,,,,5,,,43,93
123264,note_on,,,,,64,0,10,,,,,3,,,74,43
123264,note_on,,,,,64,0,8,,,,,1,,,74,93
123392,note_off,,,,,128,0,7,,,,,0,,,71,100
123392,note_off,,,,,128,0,10,,,,,3,,,74,100
123392,note_off,,,,,128,0,8,,,,,1,,,74,100
123392,note_off,,,,,512,0,11,,,,,4,,,71,100
123392,note_off,,,,,128,0,9,,,,,2,,,71,100
123456,note_on,,,,,64,0,8,,,,,1,,,71,91
123456,note_on,,,,,64,0,9,,,,,2,,,67,41
123456,note_on,,,,,64,0,10,,,,,3,,,71,41
123456,note_on,,,,,64,0,7,,,,,0,,,67,101
123520,note_off,,,,,256,0,12,,,,,5,,,43,100
123520,note_off,,,,,256,0,14,,,,,7,,,65,100
123520,note_off,,,,,0,0,14,,,,,7,,,74,100
123520,note_off,,,,,256,0,13,,,,,6,,,43,100
123520,note_off,,,,,256,0,15,,,,,7,,,43,100
123584,note_off,,,,,128,0,7,,,,,0,,,67,100
123584,note_off,,,,,128,0,10,,,,,3,,,71,100
123584,note_off,,,,,128,0,8,,,,,1,,,71,100
123584,note_off,,,,,128,0,9,,,,,2,,,67,100
123648,note_on,,,,,64,0,10,,,,,3,,,72,50
123648,note_on,,,,,64,0,8,,,,,1,,,72,100
123648,note_on,,,,,128,0,12,,,,,5,,,60,100
123648,note_on,,,,,128,0,14,,,,,7,,,67,100
123648,note_on,,,,,128,0,13,,,,,6,,,48,100
123648,note_on,,,,,64,0,9,,,,,2,,,76,50
123648,note_on,,,,,64,0,7,,,,,0,,,76,110
123648,note_on,,,,,256,0,11,,,,,4,,,67,100
123648,note_on,,,,,128,0,15,,,,,7,,,60,100
123648,note_on,,,,,0,0,14,,,,,7,,,71,100
123712,note_off,,,,,64,0,7,,,,,0,,,76,100
123712,note_off,,,,,64,0,8,,,,,1,,,72,100
123712,note_off,,,,,64,0,10,,,,,3,,,72,100
123712,note_off,,,,,64,0,9,,,,,2,,,76,100
123744,note_on,,,,,32,0,8,,,,,1,,,74,99
123744,note_on,,,,,32,0,7,,,,,0,,,77,109
123744,note_on,,,,,32,0,9,,,,,2,,,77,49
123744,note_on,,,,,32,0,10,,,,,3,,,74,49
123808,note_off,,,,,64,0,8,,,,,1,,,74,100
123808,note_off,,,,,64,0,7,,,,,0,,,77,100
123808,note_off,,,,,64,0,10,,,,,3,,,74,100
123808,note_off,,,,,64,0,9,,,,,2,,,77,100
123840,note_on,,,,,32,0,10,,,,,3,,,72,48
123840,note_on,,,,,32,0,8,,,,,1,,,72,98
123840,note_on,,,,,32,0,9,,,,,2,,,76,48
123840,note_on,,,,,32,0,7,,,,,0,,,76,108
123904,note_off,,,,,64,0,9,,,,,2,,,76,100
123904,note_off,,,,,64,0,8,,,,,1,,,72,100
123904,note_off,,,,,256,0,13,,,,,6,,,48,100
123904,note_off,,,,,256,0,12,,,,,5,,,60,100
123904,note_off,,,,,256,0,15,,,,,7,,,60,100
123904,note_off,,,,,256,0,14,,,,,7,,,67,100
123904,note_off,,,,,64,0,7,,,,,0,,,76,100
123904,note_off,,,,,0,0,14,,,,,7,,,71,100
123904,note_off,,,,,64,0,10,,,,,3,,,72,100
123936,note_on,,,,,32,0,7,,,,,0,,,77,107
123936,note_on,,,,,32,0,9,,,,,2,,,77,47
123936,note_on,,,,,32,0,10,,,,,3,,,74,47
123936,note_on,,,,,32,0,8,,,,,1,,,74,97
124000,note_off,,,,,64,0,7,,,,,0,,,77,100
124000,note_off,,,,,64,0,9,,,,,2,,,77,100
124000,note_off,,,,,64,0,8,,,,,1,,,74,100
124000,note_off,,,,,64,0,10,,,,,3,,,74,100
124032,note_on,,,,,128,0,15,,,,,7,,,48,100
124032,note_on,,,,,32,0,8,,,,,1,,,72,96
124032,note_on,,,,,128,0,14,,,,,7,,,59,100
124032,note_on,,,,,32,0,7,,,,,0,,,76,106
124032,note_on,,,,,128,0,12,,,,,5,,,48,96
124032,note_on,,,,,128,0,13,,,,,6,,,36,96
124032,note_on,,,,,32,0,9,,,,,2,,,76,46
124032,note_on,,,,,32,0,10,,,,,3,,,72,46
124032,note_on,,,,,0,0,14,,,,,7,,,67,100
124096,note_off,,,,,64,0,10,,,,,3,,,72,100
124096,note_off,,,,,64,0,9,,,,,2,,,76,100
124096,note_off,,,,,64,0,8,,,,,1,,,72,100
124096,note_off,,,,,64,0,7,,,,,0,,,76,100
124128,note_on,,,,,32,0,7,,,,,0,,,77,105
124128,note_on,,,,,32,0,9,,,,,2,,,77,45
124128,note_on,,,,,32,0,10,,,,,3,,,74,45
124128,note_on,,,,,32,0,8,,,,,1,,,74,95
124160,note_off,,,,,512,0,11,,,,,4,,,67,100
124192,note_off,,,,,64,0,10,,,,,3,,,74,100
124192,note_off,,,,,64,0,7,,,,,0,,,77,100
124192,note_off,,,,,64,0,8,,,,,1,,,74,100
124192,note_off,,,,,64,0,9,,,,,2,,,77,100
124224,note_on,,,,,32,0,10,,,,,3,,,72,44
124224,note_on,,,,,32,0,8,,,,,1,,,72,94
124224,note_on,,,,,32,0,7,,,,,0,,,76,104
124224,note_on,,,,,32,0,9,,,,,2,,,76,44
124288,note_off,,,,,64,0,7,,,,,0,,,76,100
124288,note_off,,,,,256,0,15,,,,,7,,,48,100
124288,note_off,,,,,64,0,9,,,,,2,,,76,100
124288,note_off,,,,,256,0,14,,,,,7,,,59,100
124288,note_off,,,,,0,0,14,,,,,7,,,67,100
124288,note_off,,,,,256,0,13,,,,,6,,,36,100
124288,note_off,,,,,64,0,10,,,,,3,,,72,100
124288,note_off,,,,,256,0,12,,,,,5,,,48,100
124288,note_off,,,,,64,0,8,,,,,1,,,72,100
124320,note_on,,,,,32,0,9,,,,,2,,,77,43
124320,note_on,,,,,32,0,10,,,,,3,,,74,43
124320,note_on,,,,,32,0,7,,,,,0,,,77,103
124320,note_on,,,,,32,0,8,,,,,1,,,74,93
124384,note_off,,,,,64,0,8,,,,,1,,,74,100
124384,note_off,,,,,64,0,10,,,,,3,,,74,100
124384,note_off,,,,,64,0,9,,,,,2,,,77,100
124384,note_off,,,,,64,0,7,,,,,0,,,77,100
124416,note_on,,,,,256,0,11,,,,,4,,,69,92
124416,note_on,,,,,0,0,14,,,,,7,,,76,100
124416,note_on,,,,,128,0,13,,,,,6,,,41,92
124416,note_on,,,,,128,0,14,,,,,7,,,72,100
124416,note_on,,,,,32,0,9,,,,,2,,,76,42
124416,note_on,,,,,32,0,8,,,,,1,,,72,92
124416,note_on,,,,,128,0,12,,,,,5,,,53,92
124416,note_on,,,,,128,0,15,,,,,7,,,53,100
124416,note_on,,,,,32,0,10,,,,,3,,,72,42
124416,note_on,,,,,32,0,7,,,,,0,,,76,102
124544,note_off,,,,,128,0,9,,,,,2,,,76,100
124544,note_off,,,,,128,0,10,,,,,3,,,72,100
124544,note_off,,,,,128,0,7,,,,,0,,,76,100
124544,note_off,,,,,128,0,8,,,,,1,,,72,100
124608,note_on,,,,,64,0,8,,,,,1,,,76,90
124608,note_on,,,,,64,0,7,,,,,0,,,72,100
124608,note_on,,,,,64,0,10,,,,,3,,,76,40
124608,note_on,,,,,64,0,9,,,,,2,,,72,40
124672,note_off,,,,,256,0,14,,,,,7,,,72,100
124672,note_off,,,,,256,0,13,,,,,6,,,41,100
124672,note_off,,,,,0,0,14,,,,,7,,,76,100
124672,note_off,,,,,256,0,12,,,,,5,,,53,100
124672,note_off,,,,,256,0,15,,,,,7,,,53,100
124736,note_off,,,,,128,0,10,,,,,3,,,76,100
124736,note_off,,,,,128,0,8,,,,,1,,,76,100
124736,note_off,,,,,128,0,7,,,,,0,,,72,100
124736,note_off,,,,,128,0,9,,,,,2,,,72,100
124800,note_on,,,,,64,0,9,,,,,2,,,69,38
124800,note_on,,,,,64,0,10,,,,,3,,,72,38
124800,note_on,,,,,128,0,13,,,,,6,,,41,88
124800,note_on,,,,,64,0,7,,,,,0,,,69,98
124800,note_on,,,,,128,0,12,,,,,5,,,41,88
124800,note_on,,,,,128,0,15,,,,,7,,,41,100
124800,note_on,,,,,0,0,14,,,,,7,,,72,100
124800,note_on,,,,,128,0,14,,,,,7,,,64,100
124800,note_on,,,,,64,0,8,,,,,1,,,72,88
124928,note_off,,,,,128,0,9,,,,,2,,,69,100
124928,note_off,,,,,512,0,11,,,,,4,,,69,100
124928,note_off,,,,,128,0,7,,,,,0,,,69,100
124928,note_off,,,,,128,0,8,,,,,1,,,72,100
124928,note_off,,,,,128,0,10,,,,,3,,,72,100
124992,note_on,,,,,64,0,9,,,,,2,,,65,36
124992,note_on,,,,,64,0,10,,,,,3,,,69,36
124992,note_on,,,,,64,0,8,,,,,1,,,69,86
124992,note_on,,,,,64,0,7,,,,,0,,,65,96
125056,note_off,,,,,256,0,13,,,,,6,,,41,100
125056,note_off,,,,,256,0,14,,,,,7,,,64,100
125056,note_off,,,,,0,0,14,,,,,7,,,72,100
125056,note_off,,,,,256,0,12,,,,,5,,,41,100
125056,note_off,,,,,256,0,15,,,,,7,,,41,100
125120,note_off,,,,,128,0,9,,,,,2,,,65,100
125120,note_off,,,,,128,0,7,,,,,0,,,65,100
125120,note_off,,,,,128,0,10,,,,,3,,,69,100
125120,note_off,,,,,128,0,8,,,,,1,,,69,100
125184,note_on,,,,,256,0,11,,,,,4,,,66,95
125184,note_on,,,,,64,0,10,,,,,3,,,71,45
125184,note_on,,,,,64,0,9,,,,,2,,,74,45
125184,note_on,,,,,128,0,13,,,,,6,,,47,95
125184,note_on,,,,,64,0,8,,,,,1,,,71,95
125184,note_on,,,,,128,0,15,,,,,7,,,59,100
125184,note_on,,,,,128,0,14,,,,,7,,,66,100
125184,note_on,,,,,0,0,14,,,,,7,,,69,100
125184,note_on,,,,,64,0,7,,,,,0,,,74,105
125184,note_on,,,,,128,0,12,,,,,5,,,59,95
125248,note_off,,,,,64,0,9,,,,,2,,,74,100
125248,note_off,,,,,64,0,10,,,,,3,,,71,100
125248,note_off,,,,,64,0,7,,,,,0,,,74,100
125248,note_off,,,,,64,0,8,,,,,1,,,71,100
125280,note_on,,,,,32,0,7,,,,,0,,,76,104
125280,note_on,,,,,32,0,10,,,,,3,,,72,44
125280,note_on,,,,,32,0,9,,,,,2,,,76,44
125280,note_on,,,,,32,0,8,,,,,1,,,72,94
125344,note_off,,,,,64,0,9,,,,,2,,,76,100
125344,note_off,,,,,64,0,7,,,,,0,,,76,100
125344,note_off,,,,,64,0,10,,,,,3,,,72,100
125344,note_off,,,,,64,0,8,,,,,1,,,72,100
125376,note_on,,,,,32,0,7,,,,,0,,,74,103
125376,note_on,,,,,32,0,9,,,,,2,,,74,43
125376,note_on,,,,,32,0,10,,,,,3,,,71,43
125376,note_on,,,,,32,0,8,,,,,1,,,71,93
125440,note_off,,,,,64,0,8,,,,,1,,,71,100
125440,note_off,,,,,256,0,15,,,,,7,,,59,100
125440,note_off,,,,,64,0,7,,,,,0,,,74,100
125440,note_off,,,,,64,0,10,,,,,3,,,71,100
125440,note_off,,,,,64,0,9,,,,,2,,,74,100
125440,note_off,,,,,0,0,14,,,,,7,,,69,100
125440,note_off,,,,,256,0,13,,,,,6,,,47,100
125440,note_off,,,,,256,0,14,,,,,7,,,66,100
125440,note_off,,,,,256,0,12,,,,,5,,,59,100
125472,note_on,,,,,32,0,8,,,,,1,,,72,92
125472,note_on,,,,,32,0,7,,,,,0,,,76,102
125472,note_on,,,,,32,0,9,,,,,2,,,76,42
125472,note_on,,,,,32,0,10,,,,,3,,,72,42
125536,note_off,,,,,64,0,8,,,,,1,,,72,100
125536,note_off,,,,,64,0,9,,,,,2,,,76,100
125536,note_off,,,,,64,0,10,,,,,3,,,72,100
125536,note_off,,,,,64,0,7,,,,,0,,,76,100
125568,note_on,,,,,32,0,8,,,,,1,,,71,91
125568,note_on,,,,,128,0,15,,,,,7,,,47,100
125568,note_on,,,,,32,0,7,,,,,0,,,74,101
125568,note_on,,,,,128,0,14,,,,,7,,,57,100
125568,note_on,,,,,128,0,12,,,,,5,,,47,91
125568,note_on,,,,,32,0,9,,,,,2,,,74,41
125568,note_on,,,,,0,0,14,,,,,7,,,66,100
125568,note_on,,,,,128,0,13,,,,,6,,,35,91
125568,note_on,,,,,32,0,10,,,,,3,,,71,41
125632,note_off,,,,,64,0,8,,,,,1,,,71,100
125632,note_off,,,,,64,0,7,,,,,0,,,74,100
125632,note_off,,,,,64,0,9,,,,,2,,,74,100
125632,note_off,,,,,64,0,10,,,,,3,,,71,100
125664,note_on,,,,,32,0,10,,,,,3,,,72,40
125664,note_on,,,,,32,0,8,,,,,1,,,72,90
125664,note_on,,,,,32,0,9,,,,,2,,,76,40
125664,note_on,,,,,32,0,7,,,,,0,,,76,100
125696,note_off,,,,,512,0,11,,,,,4,,,66,100
125728,note_off,,,,,64,0,10,,,,,3,,,72,100
125728,note_off,,,,,64,0,7,,,,,0,,,76,100
125728,note_off,,,,,64,0,8,,,,,1,,,72,100
125728,note_off,,,,,64,0,9,,,,,2,,,76,100
125760,note_on,,,,,32,0,8,,,,,1,,,71,89
125760,note_on,,,,,32,0,10,,,,,3,,,71,39
125760,note_on,,,,,32,0,9,,,,,2,,,74,39
125760,note_on,,,,,32,0,7,,,,,0,,,74,99
125824,note_off,,,,,256,0,12,,,,,5,,,47,100
125824,note_off,,,,,256,0,15,,,,,7,,,47,100
125824,note_off,,,,,0,0,14,,,,,7,,,66,100
125824,note_off,,,,,256,0,13,,,,,6,,,35,100
125824,note_off,,,,,64,0,7,,,,,0,,,74,100
125824,note_off,,,,,64,0,10,,,,,3,,,71,100
125824,note_off,,,,,256,0,14,,,,,7,,,57,100
125824,note_off,,,,,64,0,8,,,,,1,,,71,100
125824,note_off,,,,,64,0,9,,,,,2,,,74,100
125856,note_on,,,,,32,0,10,,,,,3,,,72,38
125856,note_on,,,,,32,0,8,,,,,1,,,72,88
125856,note_on,,,,,32,0,7,,,,,0,,,76,98
125856,note_on,,,,,32,0,9,,,,,2,,,76,38
125920,note_off,,,,,64,0,7,,,,,0,,,76,100
125920,note_off,,,,,64,0,8,,,,,1,,,72,100
125920,note_off,,,,,64,0,10,,,,,3,,,72,100
125920,note_off,,,,,64,0,9,,,,,2,,,76,100
125952,note_on,,,,,0,0,14,,,,,7,,,74,100
125952,note_on,,,,,32,0,10,,,,,3,,,71,37
125952,note_on,,,,,32,0,9,,,,,2,,,74,37
125952,note_on,,,,,128,0,14,,,,,7,,,68,100
125952,note_on,,,,,128,0,15,,,,,7,,,52,100
125952,note_on,,,,,128,0,12,,,,,5,,,52,87
125952,note_on,,,,,32,0,7,,,,,0,,,74,97
125952,note_on,,,,,128,0,13,,,,,6,,,40,87
125952,note_on,,,,,256,0,11,,,,,4,,,68,87
125952,note_on,,,,,32,0,8,,,,,1,,,71,87
126080,note_off,,,,,128,0,7,,,,,0,,,74,100
126080,note_off,,,,,128,0,9,,,,,2,,,74,100
126080,note_off,,,,,128,0,10,,,,,3,,,71,100
126080,note_off,,,,,128,0,8,,,,,1,,,71,100
126144,note_on,,,,,64,0,7,,,,,0,,,71,95
126144,note_on,,,,,64,0,9,,,,,2,,,71,35
126144,note_on,,,,,64,0,10,,,,,3,,,74,35
126144,note_on,,,,,64,0,8,,,,,1,,,74,85
126208,note_off,,,,,256,0,13,,,,,6,,,40,100
126208,note_off,,,,,0,0,14,,,,,7,,,74,100
126208,note_off,,,,,256,0,12,,,,,5,,,52,100
126208,note_off,,,,,256,0,15,,,,,7,,,52,100
126208,note_off,,,,,256,0,14,,,,,7,,,68,100
126272,note_off,,,,,128,0,9,,,,,2,,,71,100
126272,note_off,,,,,128,0,7,,,,,0,,,71,100
126272,note_off,,,,,128,0,10,,,,,3,,,74,100
126272,note_off,,,,,128,0,8,,,,,1,,,74,100
126336,note_on,,,,,64,0,10,,,,,3,,,71,33
126336,note_on,,,,,128,0,15,,,,,7,,,40,100
126336,note_on,,,,,128,0,12,,,,,5,,,40,83
126336,note_on,,,,,128,0,14,,,,,7,,,62,100
126336,note_on,,,,,0,0,14,,,,,7,,,68,100
126336,note_on,,,,,64,0,9,,,,,2,,,68,33
126336,note_on,,,,,64,0,7,,,,,0,,,68,93
126336,note_on,,,,,128,0,13,,,,,6,,,40,83
126336,note_on,,,,,64,0,8,,,,,1,,,71,83
126464,note_off,,,,,512,0,11,,,,,4,,,68,100
126464,note_off,,,,,128,0,9,,,,,2,,,68,100
126464,note_off,,,,,128,0,8,,,,,1,,,71,100
126464,note_off,,,,,128,0,7,,,,,0,,,68,100
126464,note_off,,,,,128,0,10,,,,,3,,,71,100
126528,note_on,,,,,64,0,10,,,,,3,,,68,31
126528,note_on,,,,,64,0,9,,,,,2,,,64,31
126528,note_on,,,,,64,0,7,,,,,0,,,64,91
126528,note_on,,,,,64,0,8,,,,,1,,,68,81
126592,note_off,,,,,256,0,15,,,,,7,,,40,100
126592,note_off,,,,,256,0,13,,,,,6,,,40,100
126592,note_off,,,,,0,0,14,,,,,7,,,68,100
126592,note_off,,,,,256,0,14,,,,,7,,,62,100
126592,note_off,,,,,256,0,12,,,,,5,,,40,100
126656,note_off,,,,,128,0,7,,,,,0,,,64,100
126656,note_off,,,,,128,0,8,,,,,1,,,68,100
126656,note_off,,,,,128,0,10,,,,,3,,,68,100
126656,note_off,,,,,128,0,9,,,,,2,,,64,100
126720,note_on,,,,,128,0,13,,,,,6,,,33,100
126720,note_on,,,,,64,0,10,,,,,3,,,69,50
126720,note_on,,,,,128,0,12,,,,,5,,,45,100
126720,note_on,,,,,64,0,9,,,,,2,,,72,50
126720,note_on,,,,,256,0,11,,,,,4,,,64,100
126720,note_on,,,,,64,0,8,,,,,1,,,69,100
126720,note_on,,,,,128,0,15,,,,,7,,,45,100
126720,note_on,,,,,64,0,7,,,,,0,,,72,100
126720,note_on,,,,,128,0,14,,,,,7,,,64,100
126720,note_on,,,,,0,0,14,,,,,7,,,72,100
126848,note_off,,,,,128,0,11,,,,,4,,,64,100
126848,note_off,,,,,128,0,13,,,,,6,,,33,100
126848,note_off,,,,,0,0,14,,,,,7,,,72,100
126848,note_off,,,,,128,0,12,,,,,5,,,45,100
126848,note_off,,,,,128,0,14,,,,,7,,,64,100
126848,note_off,,,,,128,0,7,,,,,0,,,72,100
126848,note_off,,,,,128,0,15,,,,,7,,,45,100
126848,note_off,,,,,128,0,9,,,,,2,,,72,100
126912,note_on,,,,,64,0,7,,,,,0,,,69,100
126912,note_on,,,,,64,0,13,,,,,6,,,45,100
126912,note_on,,,,,64,0,14,,,,,7,,,72,100
126912,note_on,,,,,64,0,9,,,,,2,,,69,50
126912,note_on,,,,,64,0,15,,,,,7,,,57,100
126912,note_on,,,,,64,0,11,,,,,4,,,72,100
126912,note_on,,,,,64,0,12,,,,,5,,,57,100
126976,note_off,,,,,64,0,14,,,,,7,,,72,100
126976,note_off,,,,,64,0,15,,,,,7,,,57,100
126976,note_off,,,,,64,0,13,,,,,6,,,45,100
126976,note_off,,,,,64,0,11,,,,,4,,,72,100
126976,note_off,,,,,256,0,8,,,,,1,,,69,100
126976,note_off,,,,,256,0,10,,,,,3,,,69,100
126976,note_off,,,,,64,0,12,,,,,5,,,57,100
127008,note_on,,,,,32,0,12,,,,,5,,,59,100
127008,note_on,,,,,32,0,14,,,,,7,,,74,100
127008,note_on,,,,,32,0,13,,,,,6,,,47,100
127008,note_on,,,,,32,0,15,,,,,7,,,59,100
127008,note_on,,,,,32,0,11,,,,,4,,,71,100
127040,note_off,,,,,128,0,7,,,,,0,,,69,100
127040,note_off,,,,,128,0,9,,,,,2,,,69,100
127072,note_off,,,,,64,0,15,,,,,7,,,59,100
127072,note_off,,,,,64,0,13,,,,,6,,,47,100
127072,note_off,,,,,64,0,12,,,,,5,,,59,100
127072,note_off,,,,,64,0,11,,,,,4,,,71,100
127072,note_off,,,,,64,0,14,,,,,7,,,74,100
127104,note_on,,,,,32,0,11,,,,,4,,,69,100
127104,note_on,,,,,32,0,14,,,,,7,,,76,100
127104,note_on,,,,,32,0,13,,,,,6,,,48,100
127104,note_on,,,,,32,0,15,,,,,7,,,60,100
127104,note_on,,,,,32,0,12,,,,,5,,,60,100
127232,note_off,,,,,128,0,15,,,,,7,,,60,100
127232,note_off,,,,,128,0,14,,,,,7,,,76,100
127232,note_off,,,,,128,0,13,,,,,6,,,48,100
127232,note_off,,,,,128,0,11,,,,,4,,,69,100
127232,note_off,,,,,128,0,12,,,,,5,,,60,100
127296,note_on,,,,,64,0,15,,,,,7,,,57,100
127296,note_on,,,,,64,0,12,,,,,5,,,57,100
127296,note_on,,,,,64,0,14,,,,,7,,,76,100
127296,note_on,,,,,0,0,14,,,,,7,,,72,100
127296,note_on,,,,,320,0,8,,,,,1,,,76,50
127296,note_on,,,,,256,0,7,,,,,0,,,76,110
127296,note_on,,,,,64,0,11,,,,,4,,,72,100
127296,note_on,,,,,320,0,10,,,,,3,,,76,50
127296,note_on,,,,,256,0,9,,,,,2,,,76,50
127296,note_on,,,,,64,0,13,,,,,6,,,45,100
127424,note_off,,,,,128,0,15,,,,,7,,,57,100
127424,note_off,,,,,128,0,10,,,,,3,,,76,100
127424,note_off,,,,,128,0,11,,,,,4,,,72,100
127424,note_off,,,,,128,0,12,,,,,5,,,57,100
127424,note_off,,,,,128,0,13,,,,,6,,,45,100
127424,note_off,,,,,128,0,9,,,,,2,,,76,100
127424,note_off,,,,,0,0,14,,,,,7,,,72,100
127424,note_off,,,,,128,0,7,,,,,0,,,76,100
127424,note_off,,,,,128,0,14,,,,,7,,,76,100
127424,note_off,,,,,128,0,8,,,,,1,,,76,100
127488,note_on,,,,,64,0,11,,,,,4,,,70,100
127488,note_on,,,,,64,0,9,,,,,2,,,77,50
127488,note_on,,,,,64,0,10,,,,,3,,,77,50
127488,note_on,,,,,64,0,14,,,,,7,,,70,100
127488,note_on,,,,,64,0,7,,,,,0,,,77,110
127488,note_on,,,,,64,0,13,,,,,6,,,38,100
127488,note_on,,,,,64,0,8,,,,,1,,,77,50
127488,note_on,,,,,0,0,14,,,,,7,,,65,100
127488,note_on,,,,,64,0,15,,,,,7,,,50,100
127488,note_on,,,,,64,0,12,,,,,5,,,50,100
127676,note_off,,,,,188,0,7,,,,,0,,,77,100
127676,note_off,,,,,188,0,10,,,,,3,,,77,100
127676,note_off,,,,,188,0,9,,,,,2,,,77,100
127676,note_off,,,,,188,0,8,,,,,1,,,77,100
127680,note_on,,,,,4,0,9,,,,,2,,,70,50
127680,note_on,,,,,4,0,7,,,,,0,,,70,110
127680,note_on,,,,,4,0,10,,,,,3,,,70,50
127680,note_on,,,,,4,0,8,,,,,1,,,70,50
127744,note_off,,,,,256,0,11,,,,,4,,,70,100
127808,note_off,,,,,128,0,9,,,,,2,,,70,100
127808,note_off,,,,,128,0,8,,,,,1,,,70,100
127808,note_off,,,,,128,0,7,,,,,0,,,70,100
127808,note_off,,,,,128,0,10,,,,,3,,,70,100
127872,note_on,,,,,128,0,11,,,,,4,,,62,100
127872,note_on,,,,,64,0,9,,,,,2,,,77,50
127872,note_on,,,,,64,0,7,,,,,0,,,77,110
127872,note_on,,,,,64,0,10,,,,,3,,,77,50
127872,note_on,,,,,64,0,8,,,,,1,,,77,50
128000,note_off,,,,,512,0,15,,,,,7,,,50,100
128000,note_off,,,,,512,0,13,,,,,6,,,38,100
128000,note_off,,,,,0,0,14,,,,,7,,,65,100
128000,note_off,,,,,512,0,12,,,,,5,,,50,100
128000,note_off,,,,,512,0,14,,,,,7,,,70,100
128060,note_off,,,,,188,0,10,,,,,3,,,77,100
128060,note_off,,,,,188,0,9,,,,,2,,,77,100
128060,note_off,,,,,188,0,7,,,,,0,,,77,100
128060,note_off,,,,,188,0,8,,,,,1,,,77,100
128064,note_on,,,,,4,0,7,,,,,0,,,70,110
128064,note_on,,,,,4,0,10,,,,,3,,,70,50
128064,note_on,,,,,4,0,9,,,,,2,,,70,50
128064,note_on,,,,,4,0,8,,,,,1,,,70,50
128128,note_off,,,,,256,0,11,,,,,4,,,62,100
128192,note_off,,,,,128,0,10,,,,,3,,,70,100
128192,note_off,,,,,128,0,9,,,,,2,,,70,100
128192,note_off,,,,,128,0,8,,,,,1,,,70,100
128192,note_off,,,,,128,0,7,,,,,0,,,70,100
128256,note_on,,,,,128,0,11,,,,,4,,,67,100
128256,note_on,,,,,256,0,13,,,,,6,,,37,100
128256,note_on,,,,,256,0,14,,,,,7,,,67,100
128256,note_on,,,,,0,0,14,,,,,7,,,70,100
128256,note_on,,,,,64,0,10,,,,,3,,,76,50
128256,note_on,,,,,64,0,9,,,,,2,,,76,50
128256,note_on,,,,,64,0,8,,,,,1,,,76,50
128256,note_on,,,,,256,0,12,,,,,5,,,49,100
128256,note_on,,,,,256,0,15,,,,,7,,,49,100
128256,note_on,,,,,64,0,7,,,,,0,,,76,110
128444,note_off,,,,,188,0,8,,,,,1,,,76,100
128444,note_off,,,,,188,0,10,,,,,3,,,76,100
128444,note_off,,,,,188,0,7,,,,,0,,,76,100
128444,note_off,,,,,188,0,9,,,,,2,,,76,100
128448,note_on,,,,,4,0,7,,,,,0,,,70,110
128448,note_on,,,,,4,0,8,,,,,1,,,70,50
128448,note_on,,,,,4,0,9,,,,,2,,,70,50
128448,note_on,,,,,4,0,10,,,,,3,,,70,50
128576,note_off,,,,,128,0,7,,,,,0,,,70,100
128576,note_off,,,,,128,0,8,,,,,1,,,70,100
128576,note_off,,,,,128,0,9,,,,,2,,,70,100
128576,note_off,,,,,128,0,10,,,,,3,,,70,100
128640,note_on,,,,,64,0,7,,,,,0,,,76,110
128640,note_on,,,,,64,0,8,,,,,1,,,76,50
128640,note_on,,,,,64,0,9,,,,,2,,,76,50
128640,note_on,,,,,64,0,10,,,,,3,,,76,50
128768,note_off,,,,,512,0,13,,,,,6,,,37,100
128768,note_off,,,,,512,0,12,,,,,5,,,49,100
128768,note_off,,,,,0,0,14,,,,,7,,,70,100
128768,note_off,,,,,512,0,15,,,,,7,,,49,100
128768,note_off,,,,,512,0,14,,,,,7,,,67,100
128768,note_off,,,,,512,0,11,,,,,4,,,67,100
128828,note_off,,,,,188,0,10,,,,,3,,,76,100
128828,note_off,,,,,188,0,9,,,,,2,,,76,100
128828,note_off,,,,,188,0,8,,,,,1,,,76,100
128828,note_off,,,,,188,0,7,,,,,0,,,76,100
128832,note_on,,,,,4,0,8,,,,,1,,,70,50
128832,note_on,,,,,4,0,10,,,,,3,,,70,50
128832,note_on,,,,,4,0,9,,,,,2,,,70,50
128832,note_on,,,,,4,0,7,,,,,0,,,70,110
128960,note_off,,,,,128,0,8,,,,,1,,,70,100
128960,note_off,,,,,128,0,9,,,,,2,,,70,100
128960,note_off,,,,,128,0,10,,,,,3,,,70,100
128960,note_off,,,,,128,0,7,,,,,0,,,70,100
129024,note_on,,,,,0,0,14,,,,,7,,,69,100
129024,note_on,,,,,256,0,15,,,,,7,,,48,100
129024,note_on,,,,,256,0,14,,,,,7,,,64,100
129024,note_on,,,,,256,0,12,,,,,5,,,48,100
129024,note_on,,,,,64,0,7,,,,,0,,,76,110
129024,note_on,,,,,256,0,13,,,,,6,,,36,100
129024,note_on,,,,,64,0,10,,,,,3,,,76,50
129024,note_on,,,,,256,0,11,,,,,4,,,69,100
129024,note_on,,,,,64,0,8,,,,,1,,,76,50
129024,note_on,,,,,64,0,9,,,,,2,,,76,50
129212,note_off,,,,,188,0,8,,,,,1,,,76,100
129212,note_off,,,,,188,0,9,,,,,2,,,76,100
129212,note_off,,,,,188,0,10,,,,,3,,,76,100
129212,note_off,,,,,188,0,7,,,,,0,,,76,100
129216,note_on,,,,,4,0,7,,,,,0,,,69,110
129216,note_on,,,,,4,0,10,,,,,3,,,69,50
129216,note_on,,,,,4,0,8,,,,,1,,,69,50
129216,note_on,,,,,4,0,9,,,,,2,,,69,50
129344,note_off,,,,,128,0,10,,,,,3,,,69,100
129344,note_off,,,,,128,0,7,,,,,0,,,69,100
129344,note_off,,,,,128,0,8,,,,,1,,,69,100
129344,note_off,,,,,128,0,9,,,,,2,,,69,100
129408,note_on,,,,,64,0,7,,,,,0,,,76,110
129408,note_off,,,,,384,0,14,,,,,7,,,64,100
129408,note_off,,,,,0,0,14,,,,,7,,,69,100
129408,note_off,,,,,384,0,11,,,,,4,,,69,100
129408,note_off,,,,,384,0,15,,,,,7,,,48,100
129408,note_off,,,,,384,0,13,,,,,6,,,36,100
129408,note_off,,,,,384,0,12,,,,,5,,,48,100
129408,note_on,,,,,64,0,9,,,,,2,,,76,50
129408,note_on,,,,,64,0,8,,,,,1,,,76,50
129408,note_on,,,,,64,0,10,,,,,3,,,76,50
129596,note_off,,,,,188,0,7,,,,,0,,,76,100
129596,note_off,,,,,188,0,8,,,,,1,,,76,100
129596,note_off,,,,,188,0,10,,,,,3,,,76,100
129596,note_off,,,,,188,0,9,,,,,2,,,76,100
129600,note_on,,,,,4,0,9,,,,,2,,,69,50
129600,note_on,,,,,4,0,7,,,,,0,,,69,110
129600,note_on,,,,,192,0,15,,,,,7,,,50,100
129600,note_on,,,,,4,0,10,,,,,3,,,69,50
129600,note_on,,,,,4,0,8,,,,,1,,,69,50
129600,note_on,,,,,192,0,12,,,,,5,,,50,100
129600,note_on,,,,,192,0,13,,,,,6,,,38,100
129600,note_on,,,,,192,0,14,,,,,7,,,65,100
129600,note_on,,,,,0,0,14,,,,,7,,,69,100
129600,note_on,,,,,192,0,11,,,,,4,,,65,100
129728,note_off,,,,,128,0,8,,,,,1,,,69,100
129728,note_off,,,,,128,0,12,,,,,5,,,50,100
129728,note_off,,,,,128,0,13,,,,,6,,,38,100
129728,note_off,,,,,128,0,9,,,,,2,,,69,100
129728,note_off,,,,,128,0,11,,,,,4,,,65,100
129728,note_off,,,,,128,0,14,,,,,7,,,65,100
129728,note_off,,,,,128,0,10,,,,,3,,,69,100
129728,note_off,,,,,128,0,7,,,,,0,,,69,100
129728,note_off,,,,,128,0,15,,,,,7,,,50,100
129728,note_off,,,,,0,0,14,,,,,7,,,69,100
129792,note_on,,,,,0,0,14,,,,,7,,,71,100
129792,note_on,,,,,64,0,15,,,,,7,,,52,100
129792,note_on,,,,,64,0,10,,,,,3,,,68,50
129792,note_on,,,,,64,0,12,,,,,5,,,52,100
129792,note_on,,,,,64,0,8,,,,,1,,,68,50
129792,note_on,,,,,64,0,9,,,,,2,,,68,50
129792,note_on,,,,,64,0,14,,,,,7,,,68,100
129792,note_on,,,,,64,0,13,,,,,6,,,40,100
129792,note_on,,,,,64,0,11,,,,,4,,,59,100
129792,note_on,,,,,64,0,7,,,,,0,,,68,110
129920,note_off,,,,,128,0,13,,,,,6,,,40,100
129920,note_off,,,,,128,0,12,,,,,5,,,52,100
129920,note_off,,,,,128,0,8,,,,,1,,,68,100
129920,note_off,,,,,128,0,9,,,,,2,,,68,100
129920,note_off,,,,,128,0,15,,,,,7,,,52,100
129920,note_off,,,,,128,0,7,,,,,0,,,68,100
129920,note_off,,,,,128,0,14,,,,,7,,,68,100
129920,note_off,,,,,128,0,10,,,,,3,,,68,100
129920,note_off,,,,,0,0,14,,,,,7,,,71,100
129984,note_on,,,,,64,0,7,,,,,0,,,64,110
129984,note_on,,,,,64,0,10,,,,,3,,,64,50
129984,note_on,,,,,64,0,14,,,,,7,,,65,100
129984,note_on,,,,,64,0,9,,,,,2,,,64,50
129984,note_on,,,,,64,0,12,,,,,5,,,50,100
129984,note_on,,,,,64,0,15,,,,,7,,,50,100
129984,note_on,,,,,64,0,8,,,,,1,,,64,50
129984,note_on,,,,,64,0,13,,,,,6,,,38,100
129984,note_on,,,,,0,0,14,,,,,7,,,69,100
130048,note_off,,,,,256,0,11,,,,,4,,,59,100
130112,note_off,,,,,128,0,14,,,,,7,,,65,100
130112,note_off,,,,,0,0,14,,,,,7,,,69,100
130112,note_off,,,,,128,0,15,,,,,7,,,50,100
130112,note_off,,,,,128,0,8,,,,,1,,,64,100
130112,note_off,,,,,128,0,7,,,,,0,,,64,100
130112,note_off,,,,,128,0,13,,,,,6,,,38,100
130112,note_off,,,,,128,0,10,,,,,3,,,64,100
130112,note_off,,,,,128,0,12,,,,,5,,,50,100
130112,note_off,,,,,128,0,9,,,,,2,,,64,100
130176,note_on,,,,,128,0,11,,,,,4,,,52,100
130176,note_on,,,,,64,0,13,,,,,6,,,36,100
130176,note_on,,,,,0,0,14,,,,,7,,,69,100
130176,note_on,,,,,64,0,14,,,,,7,,,64,100
130176,note_on,,,,,64,0,8,,,,,1,,,69,50
130176,note_on,,,,,64,0,12,,,,,5,,,48,100
130176,note_on,,,,,64,0,15,,,,,7,,,48,100
130176,note_on,,,,,64,0,10,,,,,3,,,69,50
130176,note_on,,,,,64,0,9,,,,,2,,,69,50
130176,note_on,,,,,64,0,7,,,,,0,,,69,110
130304,note_off,,,,,128,0,14,,,,,7,,,64,100
130304,note_off,,,,,128,0,12,,,,,5,,,48,100
130304,note_off,,,,,128,0,9,,,,,2,,,69,100
130304,note_off,,,,,128,0,10,,,,,3,,,69,100
130304,note_off,,,,,128,0,7,,,,,0,,,69,100
130304,note_off,,,,,128,0,15,,,,,7,,,48,100
130304,note_off,,,,,128,0,8,,,,,1,,,69,100
130304,note_off,,,,,128,0,13,,,,,6,,,36,100
130304,note_off,,,,,0,0,14,,,,,7,,,69,100
130368,note_on,,,,,64,0,10,,,,,3,,,60,50
130368,note_on,,,,,64,0,7,,,,,0,,,60,110
130368,note_on,,,,,64,0,12,,,,,5,,,45,100
130368,note_on,,,,,64,0,9,,,,,2,,,60,50
130368,note_on,,,,,64,0,15,,,,,7,,,45,100
130368,note_on,,,,,0,0,14,,,,,7,,,64,100
130368,note_on,,,,,64,0,8,,,,,1,,,60,50
130368,note_on,,,,,64,0,13,,,,,6,,,33,100
130368,note_on,,,,,64,0,14,,,,,7,,,60,100
130432,note_off,,,,,256,0,11,,,,,4,,,52,100
130496,note_off,,,,,128,0,14,,,,,7,,,60,100
130496,note_off,,,,,0,0,14,,,,,7,,,64,100
130496,note_off,,,,,128,0,10,,,,,3,,,60,100
130496,note_off,,,,,128,0,8,,,,,1,,,60,100
130496,note_off,,,,,128,0,13,,,,,6,,,33,100
130496,note_off,,,,,128,0,9,,,,,2,,,60,100
130496,note_off,,,,,128,0,7,,,,,0,,,60,100
130496,note_off,,,,,128,0,12,,,,,5,,,45,100
130496,note_off,,,,,128,0,15,,,,,7,,,45,100
130560,note_on,,,,,64,0,10,,,,,3,,,59,50
130560,note_on,,,,,64,0,8,,,,,1,,,59,50
130560,note_on,,,,,64,0,13,,,,,6,,,38,100
130560,note_on,,,,,64,0,12,,,,,5,,,50,100
130560,note_on,,,,,64,0,15,,,,,7,,,50,100
130560,note_on,,,,,128,0,11,,,,,4,,,53,100
130560,note_on,,,,,64,0,14,,,,,7,,,59,100
130560,note_on,,,,,0,0,14,,,,,7,,,69,100
130560,note_on,,,,,64,0,7,,,,,0,,,59,110
130560,note_on,,,,,64,0,9,,,,,2,,,59,50
130688,note_off,,,,,128,0,7,,,,,0,,,59,100
130688,note_off,,,,,128,0,10,,,,,3,,,59,100
130688,note_off,,,,,128,0,8,,,,,1,,,59,100
130688,note_off,,,,,128,0,14,,,,,7,,,59,100
130688,note_off,,,,,0,0,14,,,,,7,,,69,100
130688,note_off,,,,,128,0,9,,,,,2,,,59,100
130688,note_off,,,,,128,0,13,,,,,6,,,38,100
130688,note_off,,,,,128,0,12,,,,,5,,,50,100
130688,note_off,,,,,128,0,15,,,,,7,,,50,100
130752,note_on,,,,,64,0,12,,,,,5,,,47,100
130752,note_on,,,,,64,0,10,,,,,3,,,69,50
130752,note_on,,,,,64,0,15,,,,,7,,,47,100
130752,note_on,,,,,64,0,9,,,,,2,,,69,50
130752,note_on,,,,,64,0,13,,,,,6,,,35,100
130752,note_on,,,,,64,0,7,,,,,0,,,69,110
130752,note_on,,,,,0,0,14,,,,,7,,,62,100
130752,note_on,,,,,64,0,14,,,,,7,,,65,100
130752,note_on,,,,,64,0,8,,,,,1,,,69,50
130816,note_off,,,,,256,0,11,,,,,4,,,53,100
130880,note_off,,,,,128,0,9,,,,,2,,,69,100
130880,note_off,,,,,128,0,14,,,,,7,,,65,100
130880,note_off,,,,,128,0,10,,,,,3,,,69,100
130880,note_off,,,,,128,0,15,,,,,7,,,47,100
130880,note_off,,,,,0,0,14,,,,,7,,,62,100
130880,note_off,,,,,128,0,8,,,,,1,,,69,100
130880,note_off,,,,,128,0,7,,,,,0,,,69,100
130880,note_off,,,,,128,0,12,,,,,5,,,47,100
130880,note_off,,,,,128,0,13,,,,,6,,,35,100
130944,note_on,,,,,64,0,7,,,,,0,,,59,110
130944,note_on,,,,,64,0,8,,,,,1,,,59,50
130944,note_on,,,,,0,0,14,,,,,7,,,71,100
130944,note_on,,,,,64,0,12,,,,,5,,,52,100
130944,note_on,,,,,64,0,15,,,,,7,,,52,100
130944,note_on,,,,,64,0,14,,,,,7,,,68,100
130944,note_on,,,,,64,0,13,,,,,6,,,40,100
130944,note_on,,,,,64,0,10,,,,,3,,,59,50
130944,note_on,,,,,64,0,9,,,,,2,,,59,50
130944,note_on,,,,,128,0,11,,,,,4,,,52,100
131072,note_off,,,,,128,0,13,,,,,6,,,40,100
131072,note_off,,,,,128,0,10,,,,,3,,,59,100
131072,note_off,,,,,128,0,14,,,,,7,,,68,100
131072,note_off,,,,,0,0,14,,,,,7,,,71,100
131072,note_off,,,,,128,0,9,,,,,2,,,59,100
131072,note_off,,,,,128,0,12,,,,,5,,,52,100
131072,note_off,,,,,128,0,7,,,,,0,,,59,100
131072,note_off,,,,,128,0,8,,,,,1,,,59,100
131072,note_off,,,,,128,0,15,,,,,7,,,52,100
131136,note_on,,,,,64,0,8,,,,,1,,,68,50
131136,note_on,,,,,64,0,12,,,,,5,,,40,100
131136,note_on,,,,,64,0,15,,,,,7,,,40,100
131136,note_on,,,,,64,0,9,,,,,2,,,68,50
131136,note_on,,,,,64,0,13,,,,,6,,,40,100
131136,note_on,,,,,64,0,7,,,,,0,,,68,110
131136,note_on,,,,,0,0,14,,,,,7,,,68,100
131136,note_on,,,,,64,0,14,,,,,7,,,59,100
131136,note_on,,,,,64,0,10,,,,,3,,,68,50
131200,note_off,,,,,256,0,11,,,,,4,,,52,100
131264,note_off,,,,,0,0,14,,,,,7,,,68,100
131264,note_off,,,,,128,0,14,,,,,7,,,59,100
131264,note_off,,,,,128,0,15,,,,,7,,,40,100
131264,note_off,,,,,128,0,9,,,,,2,,,68,100
131264,note_off,,,,,128,0,13,,,,,6,,,40,100
131264,note_off,,,,,128,0,12,,,,,5,,,40,100
131264,note_off,,,,,128,0,8,,,,,1,,,68,100
131264,note_off,,,,,128,0,10,,,,,3,,,68,100
131264,note_off,,,,,128,0,7,,,,,0,,,68,100
131320,program_change,,,,,56,0,7,,,,,0,40,,,
131328,note_on,,,,,64,0,13,,,,,6,,,33,100
131328,note_on,,,,,0,0,14,,,,,7,,,64,100
131328,note_on,,,,,64,0,10,,,,,3,,,57,50
131328,note_on,,,,,128,0,11,,,,,4,,,52,100
131328,note_on,,,,,0,0,14,,,,,7,,,60,100
131328,note_on,,,,,64,0,15,,,,,7,,,45,100
131328,note_on,,,,,64,0,8,,,,,1,,,57,50
131328,note_on,,,,,64,0,9,,,,,2,,,57,100
131328,note_on,,,,,64,0,14,,,,,7,,,69,100
131328,note_on,,,,,8,0,7,,,,,0,,,57,100
131328,note_on,,,,,64,0,12,,,,,5,,,45,100
131332,program_change,,,,,4,0,8,,,,,1,40,,,
131336,note_on,,,,,4,0,8,,,,,1,,,69,85
131400,note_off,,,,,64,0,8,,,,,1,,,69,100
131424,note_on,,,,,24,0,8,,,,,1,,,64,85
131456,note_off,,,,,128,0,7,,,,,0,,,57,100
131488,note_off,,,,,64,0,8,,,,,1,,,64,100
131520,note_on,,,,,64,0,7,,,,,0,,,69,100
131520,note_on,,,,,32,0,8,,,,,1,,,69,85
131584,note_off,,,,,256,0,13,,,,,6,,,33,100
131584,note_off,,,,,64,0,8,,,,,1,,,57,100
131584,note_off,,,,,0,0,8,,,,,1,,,69,100
131584,note_off,,,,,256,0,10,,,,,3,,,57,100
131584,note_off,,,,,256,0,9,,,,,2,,,57,100
131584,note_off,,,,,256,0,11,,,,,4,,,52,100
131584,note_off,,,,,256,0,14,,,,,7,,,69,100
131584,note_off,,,,,0,0,14,,,,,7,,,64,100
131584,note_off,,,,,0,0,14,,,,,7,,,60,100
131584,note_off,,,,,256,0,15,,,,,7,,,45,100
131584,note_off,,,,,256,0,12,,,,,5,,,45,100
131616,note_on,,,,,32,0,8,,,,,1,,,64,85
131648,note_off,,,,,128,0,7,,,,,0,,,69,100
131680,note_off,,,,,64,0,8,,,,,1,,,64,100
131712,note_on,,,,,32,0,8,,,,,1,,,69,85
131712,note_on,,,,,64,0,7,,,,,0,,,69,100
131776,note_off,,,,,64,0,7,,,,,0,,,69,100
131776,note_off,,,,,64,0,8,,,,,1,,,69,100
131808,note_on,,,,,32,0,8,,,,,1,,,64,85
131808,note_on,,,,,32,0,7,,,,,0,,,71,100
131872,note_off,,,,,64,0,8,,,,,1,,,64,100
131872,note_off,,,,,64,0,7,,,,,0,,,71,100
131904,note_on,,,,,32,0,7,,,,,0,,,69,100
131904,note_on,,,,,32,0,8,,,,,1,,,69,85
131968,note_off,,,,,64,0,8,,,,,1,,,69,100
132000,note_on,,,,,32,0,8,,,,,1,,,64,85
132032,note_off,,,,,128,0,7,,,,,0,,,69,100
132064,note_off,,,,,64,0,8,,,,,1,,,64,100
132096,note_on,,,,,32,0,8,,,,,1,,,68,85
132160,note_off,,,,,64,0,8,,,,,1,,,68,100
132192,note_on,,,,,32,0,8,,,,,1,,,64,85
132256,note_off,,,,,64,0,8,,,,,1,,,64,100
132288,note_on,,,,,32,0,8,,,,,1,,,68,85
132288,note_on,,,,,256,0,7,,,,,0,,,71,100
132352,note_off,,,,,64,0,8,,,,,1,,,68,100
132384,note_on,,,,,32,0,8,,,,,1,,,64,85
132416,note_off,,,,,128,0,7,,,,,0,,,71,100
132448,note_off,,,,,64,0,8,,,,,1,,,64,100
132480,note_on,,,,,64,0,7,,,,,0,,,71,100
132480,note_on,,,,,32,0,8,,,,,1,,,68,85
132544,note_off,,,,,64,0,8,,,,,1,,,68,100
132544,note_off,,,,,64,0,7,,,,,0,,,71,100
132576,note_on,,,,,32,0,7,,,,,0,,,72,100
132576,note_on,,,,,32,0,8,,,,,1,,,64,85
132640,note_off,,,,,64,0,7,,,,,0,,,72,100
132640,note_off,,,,,64,0,8,,,,,1,,,64,100
132672,note_on,,,,,32,0,8,,,,,1,,,68,85
132672,note_on,,,,,32,0,7,,,,,0,,,71,100
132736,note_off,,,,,64,0,8,,,,,1,,,68,100
132768,note_on,,,,,32,0,8,,,,,1,,,64,85
132800,note_off,,,,,128,0,7,,,,,0,,,71,100
132832,note_off,,,,,64,0,8,,,,,1,,,64,100
132864,note_on,,,,,32,0,8,,,,,1,,,69,85
132928,note_off,,,,,64,0,8,,,,,1,,,69,100
132960,note_on,,,,,32,0,8,,,,,1,,,64,85
133024,note_off,,,,,64,0,8,,,,,1,,,64,100
133056,note_on,,,,,32,0,8,,,,,1,,,69,85
133056,note_on,,,,,256,0,7,,,,,0,,,72,100
133120,note_off,,,,,64,0,8,,,,,1,,,69,100
133152,note_on,,,,,32,0,8,,,,,1,,,64,85
133184,note_off,,,,,128,0,7,,,,,0,,,72,100
133216,note_off,,,,,64,0,8,,,,,1,,,64,100
133248,note_on,,,,,32,0,8,,,,,1,,,69,85
133248,note_on,,,,,64,0,7,,,,,0,,,72,100
133312,note_off,,,,,64,0,7,,,,,0,,,72,100
133312,note_off,,,,,64,0,8,,,,,1,,,69,100
133344,note_on,,,,,32,0,8,,,,,1,,,64,85
133344,note_on,,,,,32,0,7,,,,,0,,,74,100
133408,note_off,,,,,64,0,8,,,,,1,,,64,100
133408,note_off,,,,,64,0,7,,,,,0,,,74,100
133440,note_on,,,,,32,0,8,,,,,1,,,69,85
133440,note_on,,,,,32,0,7,,,,,0,,,72,100
133504,note_off,,,,,64,0,8,,,,,1,,,69,100
133536,note_on,,,,,32,0,8,,,,,1,,,64,85
133568,note_off,,,,,128,0,7,,,,,0,,,72,100
133600,note_off,,,,,64,0,8,,,,,1,,,64,100
133632,note_on,,,,,32,0,8,,,,,1,,,71,85
133696,note_off,,,,,64,0,8,,,,,1,,,71,100
133728,note_on,,,,,32,0,8,,,,,1,,,64,85
133792,note_off,,,,,64,0,8,,,,,1,,,64,100
133824,note_on,,,,,256,0,7,,,,,0,,,74,100
133824,note_on,,,,,32,0,8,,,,,1,,,71,85
133888,note_off,,,,,64,0,8,,,,,1,,,71,100
133920,note_on,,,,,32,0,8,,,,,1,,,64,85
133952,note_off,,,,,128,0,7,,,,,0,,,74,100
133984,note_off,,,,,64,0,8,,,,,1,,,64,100
134016,note_on,,,,,64,0,7,,,,,0,,,74,100
134016,note_on,,,,,32,0,8,,,,,1,,,71,85
134080,note_off,,,,,64,0,7,,,,,0,,,74,100
134080,note_off,,,,,64,0,8,,,,,1,,,71,100
134112,note_on,,,,,32,0,8,,,,,1,,,64,85
134112,note_on,,,,,32,0,7,,,,,0,,,76,100
134176,note_off,,,,,64,0,8,,,,,1,,,64,100
134176,note_off,,,,,64,0,7,,,,,0,,,76,100
134208,note_on,,,,,32,0,7,,,,,0,,,74,100
134208,note_on,,,,,32,0,8,,,,,1,,,71,85
134272,note_off,,,,,64,0,8,,,,,1,,,71,100
134304,note_on,,,,,32,0,8,,,,,1,,,64,85
134336,note_off,,,,,128,0,7,,,,,0,,,74,100
134368,note_off,,,,,64,0,8,,,,,1,,,64,100
134400,note_on,,,,,64,0,7,,,,,0,,,76,100
134400,note_on,,,,,32,0,8,,,,,1,,,72,85
134464,note_off,,,,,64,0,8,,,,,1,,,72,100
134496,note_on,,,,,32,0,8,,,,,1,,,64,85
134560,note_off,,,,,64,0,8,,,,,1,,,64,100
134592,note_on,,,,,32,0,8,,,,,1,,,72,85
134656,note_off,,,,,64,0,8,,,,,1,,,72,100
134688,note_on,,,,,32,0,8,,,,,1,,,64,85
134752,note_off,,,,,64,0,8,,,,,1,,,64,100
134784,note_on,,,,,32,0,8,,,,,1,,,72,85
134784,note_off,,,,,384,0,7,,,,,0,,,76,100
134848,note_off,,,,,64,0,8,,,,,1,,,72,100
134880,note_on,,,,,96,0,7,,,,,0,,,74,100
134880,note_on,,,,,32,0,8,,,,,1,,,64,85
134944,note_off,,,,,64,0,7,,,,,0,,,74,100
134944,note_off,,,,,64,0,8,,,,,1,,,64,100
134976,note_on,,,,,32,0,8,,,,,1,,,72,85
134976,note_on,,,,,32,0,7,,,,,0,,,76,100
135040,note_off,,,,,64,0,8,,,,,1,,,72,100
135040,note_off,,,,,64,0,7,,,,,0,,,76,100
135072,note_on,,,,,32,0,8,,,,,1,,,64,85
135072,note_on,,,,,32,0,7,,,,,0,,,77,100
135136,note_off,,,,,64,0,7,,,,,0,,,77,100
135136,note_off,,,,,64,0,8,,,,,1,,,64,100
135168,note_on,,,,,32,0,8,,,,,1,,,71,85
135168,note_on,,,,,32,0,7,,,,,0,,,74,100
135232,note_off,,,,,64,0,8,,,,,1,,,71,100
135264,note_on,,,,,32,0,8,,,,,1,,,64,85
135328,note_off,,,,,64,0,8,,,,,1,,,64,100
135360,note_on,,,,,32,0,8,,,,,1,,,71,85
135424,note_off,,,,,64,0,8,,,,,1,,,71,100
135456,note_on,,,,,32,0,8,,,,,1,,,64,85
135520,note_off,,,,,64,0,8,,,,,1,,,64,100
135552,note_on,,,,,32,0,8,,,,,1,,,71,85
135552,note_off,,,,,384,0,7,,,,,0,,,74,100
135616,note_off,,,,,64,0,8,,,,,1,,,71,100
135648,note_on,,,,,32,0,8,,,,,1,,,64,85
135648,note_on,,,,,96,0,7,,,,,0,,,72,100
135712,note_off,,,,,64,0,8,,,,,1,,,64,100
135712,note_off,,,,,64,0,7,,,,,0,,,72,100
135744,note_on,,,,,32,0,7,,,,,0,,,74,100
135744,note_on,,,,,32,0,8,,,,,1,,,71,85
135808,note_off,,,,,64,0,7,,,,,0,,,74,100
135808,note_off,,,,,64,0,8,,,,,1,,,71,100
135840,note_on,,,,,32,0,7,,,,,0,,,76,100
135840,note_on,,,,,32,0,8,,,,,1,,,64,85
135904,note_off,,,,,64,0,7,,,,,0,,,76,100
135904,note_off,,,,,64,0,8,,,,,1,,,64,100
135936,note_on,,,,,32,0,7,,,,,0,,,72,100
135936,note_on,,,,,32,0,8,,,,,1,,,69,85
136000,note_off,,,,,64,0,8,,,,,1,,,69,100
136032,note_on,,,,,32,0,8,,,,,1,,,57,85
136064,note_off,,,,,128,0,7,,,,,0,,,72,100
136096,note_off,,,,,64,0,8,,,,,1,,,57,100
136128,note_on,,,,,64,0,7,,,,,0,,,71,100
136128,note_on,,,,,32,0,8,,,,,1,,,60,85
136192,note_off,,,,,64,0,7,,,,,0,,,71,100
136192,note_off,,,,,64,0,8,,,,,1,,,60,100
136224,note_on,,,,,32,0,8,,,,,1,,,62,85
136224,note_on,,,,,32,0,7,,,,,0,,,69,100
136288,note_off,,,,,64,0,7,,,,,0,,,69,100
136288,note_off,,,,,64,0,8,,,,,1,,,62,100
136320,note_on,,,,,32,0,8,,,,,1,,,64,85
136320,note_on,,,,,32,0,7,,,,,0,,,68,100
136364,note_off,,,,,44,0,7,,,,,0,,,68,100
136368,note_on,,,,,4,0,7,,,,,0,,,69,100
136384,note_off,,,,,64,0,8,,,,,1,,,64,100
136412,note_off,,,,,44,0,7,,,,,0,,,69,100
136416,note_on,,,,,32,0,8,,,,,1,,,62,85
136416,note_on,,,,,4,0,7,,,,,0,,,68,100
136460,note_off,,,,,44,0,7,,,,,0,,,68,100
136464,note_on,,,,,4,0,7,,,,,0,,,69,100
136480,note_off,,,,,64,0,8,,,,,1,,,62,100
136508,note_off,,,,,44,0,7,,,,,0,,,69,100
136512,note_on,,,,,32,0,8,,,,,1,,,60,85
136512,note_on,,,,,4,0,7,,,,,0,,,68,100
136576,note_off,,,,,64,0,8,,,,,1,,,60,100
136576,note_off,,,,,64,0,7,,,,,0,,,68,100
136608,note_on,,,,,32,0,8,,,,,1,,,59,85
136608,note_on,,,,,32,0,7,,,,,0,,,69,100
136672,note_off,,,,,64,0,7,,,,,0,,,69,100
136672,note_off,,,,,64,0,8,,,,,1,,,59,100
136704,note_on,,,,,5120,0,13,,,,,6,,,33,100
136704,note_on,,,,,5120,0,14,,,,,7,,,64,100
136704,note_on,,,,,32,0,7,,,,,0,,,69,100
136704,note_on,,,,,5120,0,12,,,,,5,,,45,100
136704,note_on,,,,,0,0,14,,,,,7,,,72,100
136704,note_on,,,,,32,0,8,,,,,1,,,57,85
136704,note_on,,,,,5120,0,15,,,,,7,,,45,100
136704,note_on,,,,,5120,0,11,,,,,4,,,64,100
136832,note_off,,,,,128,0,11,,,,,4,,,64,100
136832,note_off,,,,,128,0,12,,,,,5,,,45,100
136832,note_off,,,,,128,0,15,,,,,7,,,45,100
136832,note_off,,,,,128,0,14,,,,,7,,,64,100
136832,note_off,,,,,0,0,14,,,,,7,,,72,100
136832,note_off,,,,,128,0,13,,,,,6,,,33,100
136896,note_on,,,,,64,0,13,,,,,6,,,45,100
136896,note_on,,,,,64,0,15,,,,,7,,,57,100
136896,note_on,,,,,64,0,11,,,,,4,,,72,100
136896,note_on,,,,,64,0,12,,,,,5,,,57,100
136896,note_on,,,,,64,0,14,,,,,7,,,72,100
136960,note_off,,,,,64,0,11,,,,,4,,,72,100
136960,note_off,,,,,256,0,7,,,,,0,,,69,100
136960,note_off,,,,,64,0,15,,,,,7,,,57,100
136960,note_off,,,,,64,0,12,,,,,5,,,57,100
136960,note_off,,,,,256,0,8,,,,,1,,,57,100
136960,note_off,,,,,64,0,14,,,,,7,,,72,100
136960,note_off,,,,,64,0,13,,,,,6,,,45,100
136992,note_on,,,,,32,0,14,,,,,7,,,74,100
136992,note_on,,,,,32,0,12,,,,,5,,,59,100
136992,note_on,,,,,32,0,15,,,,,7,,,59,100
136992,note_on,,,,,32,0,11,,,,,4,,,71,100
136992,note_on,,,,,32,0,13,,,,,6,,,47,100
137056,note_off,,,,,64,0,12,,,,,5,,,59,100
137056,note_off,,,,,64,0,11,,,,,4,,,71,100
137056,note_off,,,,,64,0,15,,,,,7,,,59,100
137056,note_off,,,,,64,0,14,,,,,7,,,74,100
137056,note_off,,,,,64,0,13,,,,,6,,,47,100
137088,note_on,,,,,32,0,14,,,,,7,,,76,100
137088,note_on,,,,,32,0,15,,,,,7,,,60,100
137088,note_on,,,,,32,0,11,,,,,4,,,69,100
137088,note_on,,,,,32,0,12,,,,,5,,,60,100
137088,program_change,,,,,128,0,8,,,,,1,48,,,
137088,note_on,,,,,32,0,13,,,,,6,,,48,100
137088,program_change,,,,,128,0,7,,,,,0,48,,,
137216,note_off,,,,,128,0,14,,,,,7,,,76,100
137216,note_off,,,,,128,0,11,,,,,4,,,69,100
137216,note_off,,,,,128,0,15,,,,,7,,,60,100
137216,note_off,,,,,128,0,13,,,,,6,,,48,100
137216,note_off,,,,,128,0,12,,,,,5,,,60,100
137280,note_on,,,,,0,0,14,,,,,7,,,72,100
137280,note_on,,,,,64,0,11,,,,,4,,,72,100
137280,note_on,,,,,5696,0,10,,,,,3,,,76,50
137280,note_on,,,,,64,0,13,,,,,6,,,45,100
137280,note_on,,,,,192,0,7,,,,,0,,,76,110
137280,note_on,,,,,64,0,14,,,,,7,,,76,100
137280,note_on,,,,,5696,0,9,,,,,2,,,76,50
137280,note_on,,,,,64,0,15,,,,,7,,,57,100
137280,note_on,,,,,192,0,8,,,,,1,,,76,50
137280,note_on,,,,,64,0,12,,,,,5,,,57,100
137408,note_off,,,,,128,0,7,,,,,0,,,76,100
137408,note_off,,,,,128,0,14,,,,,7,,,76,100
137408,note_off,,,,,0,0,14,,,,,7,,,72,100
137408,note_off,,,,,128,0,11,,,,,4,,,72,100
137408,note_off,,,,,128,0,12,,,,,5,,,57,100
137408,note_off,,,,,128,0,8,,,,,1,,,76,100
137408,note_off,,,,,128,0,15,,,,,7,,,57,100
137408,note_off,,,,,128,0,9,,,,,2,,,76,100
137408,note_off,,,,,128,0,13,,,,,6,,,45,100
137408,note_off,,,,,128,0,10,,,,,3,,,76,100
137472,note_on,,,,,64,0,7,,,,,0,,,77,110
137472,note_on,,,,,64,0,10,,,,,3,,,77,50
137472,note_on,,,,,64,0,13,,,,,6,,,38,100
137472,note_on,,,,,64,0,11,,,,,4,,,70,100
137472,note_on,,,,,64,0,14,,,,,7,,,70,100
137472,note_on,,,,,0,0,14,,,,,7,,,65,100
137472,note_on,,,,,64,0,8,,,,,1,,,77,50
137472,note_on,,,,,64,0,15,,,,,7,,,50,100
137472,note_on,,,,,64,0,9,,,,,2,,,77,50
137472,note_on,,,,,64,0,12,,,,,5,,,50,100
137660,note_off,,,,,188,0,7,,,,,0,,,77,100
137660,note_off,,,,,188,0,10,,,,,3,,,77,100
137660,note_off,,,,,188,0,8,,,,,1,,,77,100
137660,note_off,,,,,188,0,9,,,,,2,,,77,100
137664,note_on,,,,,4,0,10,,,,,3,,,70,50
137664,note_on,,,,,4,0,9,,,,,2,,,70,50
137664,note_on,,,,,4,0,7,,,,,0,,,70,110
137664,note_on,,,,,4,0,8,,,,,1,,,70,50
137728,note_off,,,,,256,0,11,,,,,4,,,70,100
137792,note_off,,,,,128,0,8,,,,,1,,,70,100
137792,note_off,,,,,128,0,7,,,,,0,,,70,100
137792,note_off,,,,,128,0,9,,,,,2,,,70,100
137792,note_off,,,,,128,0,10,,,,,3,,,70,100
137856,note_on,,,,,64,0,7,,,,,0,,,77,110
137856,note_on,,,,,128,0,11,,,,,4,,,62,100
137856,note_on,,,,,64,0,10,,,,,3,,,77,50
137856,note_on,,,,,64,0,8,,,,,1,,,77,50
137856,note_on,,,,,64,0,9,,,,,2,,,77,50
137984,note_off,,,,,0,0,14,,,,,7,,,65,100
137984,note_off,,,,,512,0,14,,,,,7,,,70,100
137984,note_off,,,,,512,0,12,,,,,5,,,50,100
137984,note_off,,,,,512,0,15,,,,,7,,,50,100
137984,note_off,,,,,512,0,13,,,,,6,,,38,100
138044,note_off,,,,,188,0,7,,,,,0,,,77,100
138044,note_off,,,,,188,0,9,,,,,2,,,77,100
138044,note_off,,,,,188,0,10,,,,,3,,,77,100
138044,note_off,,,,,188,0,8,,,,,1,,,77,100
138048,note_on,,,,,4,0,8,,,,,1,,,70,50
138048,note_on,,,,,4,0,7,,,,,0,,,70,110
138048,note_on,,,,,4,0,9,,,,,2,,,70,50
138048,note_on,,,,,4,0,10,,,,,3,,,70,50
138112,note_off,,,,,256,0,11,,,,,4,,,62,100
138176,note_off,,,,,128,0,9,,,,,2,,,70,100
138176,note_off,,,,,128,0,10,,,,,3,,,70,100
138176,note_off,,,,,128,0,8,,,,,1,,,70,100
138176,note_off,,,,,128,0,7,,,,,0,,,70,100
138240,note_on,,,,,64,0,8,,,,,1,,,76,50
138240,note_on,,,,,0,0,14,,,,,7,,,70,100
138240,note_on,,,,,256,0,15,,,,,7,,,49,100
138240,note_on,,,,,256,0,14,,,,,7,,,67,100
138240,note_on,,,,,64,0,9,,,,,2,,,76,50
138240,set_tempo,,,,,130560,1,0,,500000,,,,,,,
138240,note_on,,,,,256,0,13,,,,,6,,,37,100
138240,note_on,,,,,128,0,11,,,,,4,,,67,100
138240,note_on,,,,,64,0,10,,,,,3,,,76,50
138240,note_on,,,,,256,0,12,,,,,5,,,49,100
138240,note_on,,,,,64,0,7,,,,,0,,,76,110
138428,note_off,,,,,188,0,8,,,,,1,,,76,100
138428,note_off,,,,,188,0,7,,,,,0,,,76,100
138428,note_off,,,,,188,0,9,,,,,2,,,76,100
138428,note_off,,,,,188,0,10,,,,,3,,,76,100
138432,note_on,,,,,4,0,7,,,,,0,,,70,110
138432,note_on,,,,,4,0,9,,,,,2,,,70,50
138432,note_on,,,,,4,0,8,,,,,1,,,70,50
138432,note_on,,,,,4,0,10,,,,,3,,,70,50
138560,note_off,,,,,128,0,9,,,,,2,,,70,100
138560,note_off,,,,,128,0,10,,,,,3,,,70,100
138560,note_off,,,,,128,0,8,,,,,1,,,70,100
138560,note_off,,,,,128,0,7,,,,,0,,,70,100
138624,note_on,,,,,64,0,9,,,,,2,,,76,50
138624,note_on,,,,,64,0,7,,,,,0,,,76,110
138624,note_on,,,,,64,0,8,,,,,1,,,76,50
138624,note_on,,,,,64,0,10,,,,,3,,,76,50
138752,note_off,,,,,512,0,15,,,,,7,,,49,100
138752,note_off,,,,,512,0,14,,,,,7,,,67,100
138752,note_off,,,,,0,0,14,,,,,7,,,70,100
138752,note_off,,,,,512,0,13,,,,,6,,,37,100
138752,note_off,,,,,512,0,12,,,,,5,,,49,100
138752,note_off,,,,,512,0,11,,,,,4,,,67,100
138812,note_off,,,,,188,0,9,,,,,2,,,76,100
138812,note_off,,,,,188,0,7,,,,,0,,,76,100
138812,note_off,,,,,188,0,10,,,,,3,,,76,100
138812,note_off,,,,,188,0,8,,,,,1,,,76,100
138816,note_on,,,,,4,0,8,,,,,1,,,70,50
138816,note_on,,,,,4,0,7,,,,,0,,,70,110
138816,note_on,,,,,4,0,9,,,,,2,,,70,50
138816,note_on,,,,,4,0,10,,,,,3,,,70,50
138944,note_off,,,,,128,0,10,,,,,3,,,70,100
138944,note_off,,,,,128,0,9,,,,,2,,,70,100
138944,note_off,,,,,128,0,8,,,,,1,,,70,100
138944,note_off,,,,,128,0,7,,,,,0,,,70,100
139008,note_on,,,,,64,0,9,,,,,2,,,76,50
139008,note_on,,,,,256,0,11,,,,,4,,,69,100
139008,note_on,,,,,256,0,12,,,,,5,,,48,100
139008,note_on,,,,,256,0,13,,,,,6,,,36,100
139008,note_on,,,,,256,0,14,,,,,7,,,64,100
139008,note_on,,,,,0,0,14,,,,,7,,,69,100
139008,note_on,,,,,256,0,15,,,,,7,,,48,100
139008,note_on,,,,,64,0,10,,,,,3,,,76,50
139008,set_tempo,,,,,768,1,0,,500000,,,,,,,
139008,note_on,,,,,64,0,7,,,,,0,,,76,110
139008,note_on,,,,,64,0,8,,,,,1,,,76,50
139084,set_tempo,,,,,76,1,0,,504201,,,,,,,
139160,set_tempo,,,,,76,1,0,,508474,,,,,,,
139196,note_off,,,,,188,0,8,,,,,1,,,76,100
139196,note_off,,,,,188,0,7,,,,,0,,,76,100
139196,note_off,,,,,188,0,10,,,,,3,,,76,100
139196,note_off,,,,,188,0,9,,,,,2,,,76,100
139200,note_on,,,,,4,0,7,,,,,0,,,69,110
139200,note_on,,,,,4,0,10,,,,,3,,,69,50
139200,note_on,,,,,4,0,8,,,,,1,,,69,50
139200,note_on,,,,,4,0,9,,,,,2,,,69,50
139236,set_tempo,,,,,76,1,0,,512820,,,,,,,
139312,set_tempo,,,,,76,1,0,,517241,,,,,,,
139328,note_off,,,,,128,0,8,,,,,1,,,69,100
139328,note_off,,,,,128,0,7,,,,,0,,,69,100
139328,note_off,,,,,128,0,10,,,,,3,,,69,100
139328,note_off,,,,,128,0,9,,,,,2,,,69,100
139392,note_off,,,,,384,0,11,,,,,4,,,69,100
139392,note_off,,,,,384,0,13,,,,,6,,,36,100
139392,note_off,,,,,384,0,14,,,,,7,,,64,100
139392,note_off,,,,,0,0,14,,,,,7,,,69,100
139392,set_tempo,,,,,80,1,0,,521739,,,,,,,
139392,note_off,,,,,384,0,15,,,,,7,,,48,100
139392,note_on,,,,,64,0,7,,,,,0,,,76,110
139392,note_on,,,,,64,0,9,,,,,2,,,76,50
139392,note_on,,,,,64,0,10,,,,,3,,,76,50
139392,note_on,,,,,64,0,8,,,,,1,,,76,50
139392,note_off,,,,,384,0,12,,,,,5,,,48,100
139468,set_tempo,,,,,76,1,0,,526315,,,,,,,
139544,set_tempo,,,,,76,1,0,,530973,,,,,,,
139580,note_off,,,,,188,0,7,,,,,0,,,76,100
139580,note_off,,,,,188,0,9,,,,,2,,,76,100
139580,note_off,,,,,188,0,10,,,,,3,,,76,100
139580,note_off,,,,,188,0,8,,,,,1,,,76,100
139584,note_on,,,,,192,0,15,,,,,7,,,50,100
139584,note_on,,,,,4,0,7,,,,,0,,,69,110
139584,note_on,,,,,0,0,14,,,,,7,,,69,100
139584,note_on,,,,,4,0,10,,,,,3,,,69,50
139584,note_on,,,,,4,0,8,,,,,1,,,69,50
139584,note_on,,,,,192,0,14,,,,,7,,,65,100
139584,note_on,,,,,192,0,13,,,,,6,,,38,100
139584,note_on,,,,,192,0,11,,,,,4,,,65,100
139584,note_on,,,,,4,0,9,,,,,2,,,69,50
139584,note_on,,,,,192,0,12,,,,,5,,,50,100
139620,set_tempo,,,,,76,1,0,,535714,,,,,,,
139696,set_tempo,,,,,76,1,0,,540540,,,,,,,
139712,note_off,,,,,128,0,13,,,,,6,,,38,100
139712,note_off,,,,,0,0,14,,,,,7,,,69,100
139712,note_off,,,,,128,0,14,,,,,7,,,65,100
139712,note_off,,,,,128,0,9,,,,,2,,,69,100
139712,note_off,,,,,128,0,10,,,,,3,,,69,100
139712,note_off,,,,,128,0,15,,,,,7,,,50,100
139712,note_off,,,,,128,0,8,,,,,1,,,69,100
139712,note_off,,,,,128,0,12,,,,,5,,,50,100
139712,note_off,,,,,128,0,7,,,,,0,,,69,100
139712,note_off,,,,,128,0,11,,,,,4,,,65,100
139776,note_on,,,,,64,0,15,,,,,7,,,52,100
139776,set_tempo,,,,,80,1,0,,545454,,,,,,,
139776,note_on,,,,,0,0,14,,,,,7,,,71,100
139776,note_on,,,,,64,0,11,,,,,4,,,59,100
139776,note_on,,,,,64,0,14,,,,,7,,,68,100
139776,note_on,,,,,64,0,12,,,,,5,,,52,100
139776,note_on,,,,,64,0,10,,,,,3,,,68,50
139776,note_on,,,,,64,0,9,,,,,2,,,68,50
139776,note_on,,,,,64,0,8,,,,,1,,,68,50
139776,note_on,,,,,64,0,13,,,,,6,,,40,100
139776,note_on,,,,,64,0,7,,,,,0,,,68,110
139852,set_tempo,,,,,76,1,0,,550458,,,,,,,
139904,note_off,,,,,128,0,15,,,,,7,,,52,100
139904,note_off,,,,,128,0,8,,,,,1,,,68,100
139904,note_off,,,,,128,0,14,,,,,7,,,68,100
139904,note_off,,,,,0,0,14,,,,,7,,,71,100
139904,note_off,,,,,128,0,12,,,,,5,,,52,100
139904,note_off,,,,,128,0,7,,,,,0,,,68,100
139904,note_off,,,,,128,0,9,,,,,2,,,68,100
139904,note_off,,,,,128,0,10,,,,,3,,,68,100
139904,note_off,,,,,128,0,13,,,,,6,,,40,100
139928,set_tempo,,,,,76,1,0,,555555,,,,,,,
139968,note_on,,,,,64,0,13,,,,,6,,,38,100
139968,note_on,,,,,64,0,9,,,,,2,,,64,50
139968,note_on,,,,,64,0,12,,,,,5,,,50,100
139968,note_on,,,,,64,0,8,,,,,1,,,64,50
139968,note_on,,,,,64,0,15,,,,,7,,,50,100
139968,note_on,,,,,0,0,14,,,,,7,,,69,100
139968,note_on,,,,,64,0,7,,,,,0,,,64,110
139968,note_on,,,,,64,0,10,,,,,3,,,64,50
139968,note_on,,,,,64,0,14,,,,,7,,,65,100
140004,set_tempo,,,,,76,1,0,,560747,,,,,,,
140032,note_off,,,,,256,0,11,,,,,4,,,59,100
140080,set_tempo,,,,,76,1,0,,566037,,,,,,,
140096,note_off,,,,,128,0,8,,,,,1,,,64,100
140096,note_off,,,,,128,0,13,,,,,6,,,38,100
140096,note_off,,,,,128,0,10,,,,,3,,,64,100
140096,note_off,,,,,128,0,14,,,,,7,,,65,100
140096,note_off,,,,,128,0,9,,,,,2,,,64,100
140096,note_off,,,,,128,0,12,,,,,5,,,50,100
140096,note_off,,,,,0,0,14,,,,,7,,,69,100
140096,note_off,,,,,128,0,7,,,,,0,,,64,100
140096,note_off,,,,,128,0,15,,,,,7,,,50,100
140160,note_on,,,,,64,0,10,,,,,3,,,69,50
140160,note_on,,,,,64,0,8,,,,,1,,,69,50
140160,note_on,,,,,64,0,15,,,,,7,,,48,100
140160,note_on,,,,,64,0,9,,,,,2,,,69,50
140160,note_on,,,,,64,0,12,,,,,5,,,48,100
140160,note_on,,,,,64,0,7,,,,,0,,,69,110
140160,note_on,,,,,0,0,14,,,,,7,,,69,100
140160,note_on,,,,,64,0,14,,,,,7,,,64,100
140160,set_tempo,,,,,80,1,0,,571428,,,,,,,
140160,note_on,,,,,128,0,11,,,,,4,,,52,100
140160,note_on,,,,,64,0,13,,,,,6,,,36,100
140236,set_tempo,,,,,76,1,0,,576923,,,,,,,
140288,note_off,,,,,128,0,14,,,,,7,,,64,100
140288,note_off,,,,,128,0,10,,,,,3,,,69,100
140288,note_off,,,,,128,0,12,,,,,5,,,48,100
140288,note_off,,,,,128,0,9,,,,,2,,,69,100
140288,note_off,,,,,128,0,13,,,,,6,,,36,100
140288,note_off,,,,,128,0,8,,,,,1,,,69,100
140288,note_off,,,,,128,0,7,,,,,0,,,69,100
140288,note_off,,,,,128,0,15,,,,,7,,,48,100
140288,note_off,,,,,0,0,14,,,,,7,,,69,100
140312,set_tempo,,,,,76,1,0,,582524,,,,,,,
140352,note_on,,,,,64,0,14,,,,,7,,,60,100
140352,note_on,,,,,64,0,9,,,,,2,,,60,50
140352,note_on,,,,,64,0,12,,,,,5,,,45,100
140352,note_on,,,,,64,0,10,,,,,3,,,60,50
140352,note_on,,,,,64,0,8,,,,,1,,,60,50
140352,note_on,,,,,64,0,7,,,,,0,,,60,110
140352,note_on,,,,,0,0,14,,,,,7,,,64,100
140352,note_on,,,,,64,0,15,,,,,7,,,45,100
140352,note_on,,,,,64,0,13,,,,,6,,,33,100
140388,set_tempo,,,,,76,1,0,,588235,,,,,,,
140416,note_off,,,,,256,0,11,,,,,4,,,52,100
140464,set_tempo,,,,,76,1,0,,594059,,,,,,,
140480,note_off,,,,,128,0,15,,,,,7,,,45,100
140480,note_off,,,,,128,0,14,,,,,7,,,60,100
140480,note_off,,,,,0,0,14,,,,,7,,,64,100
140480,note_off,,,,,128,0,13,,,,,6,,,33,100
140480,note_off,,,,,128,0,7,,,,,0,,,60,100
140480,note_off,,,,,128,0,12,,,,,5,,,45,100
140480,note_off,,,,,128,0,9,,,,,2,,,60,100
140480,note_off,,,,,128,0,10,,,,,3,,,60,100
140480,note_off,,,,,128,0,8,,,,,1,,,60,100
140544,note_on,,,,,64,0,15,,,,,7,,,50,100
140544,note_on,,,,,64,0,12,,,,,5,,,50,100
140544,note_on,,,,,64,0,10,,,,,3,,,59,50
140544,note_on,,,,,64,0,14,,,,,7,,,59,100
140544,set_tempo,,,,,80,1,0,,600000,,,,,,,
140544,note_on,,,,,64,0,7,,,,,0,,,59,110
140544,note_on,,,,,64,0,9,,,,,2,,,59,50
140544,note_on,,,,,64,0,8,,,,,1,,,59,50
140544,note_on,,,,,64,0,13,,,,,6,,,38,100
140544,note_on,,,,,128,0,11,,,,,4,,,53,100
140544,note_on,,,,,0,0,14,,,,,7,,,69,100
140580,set_tempo,,,,,36,1,0,,625000,,,,,,,
140640,set_tempo,,,,,60,1,0,,631578,,,,,,,
140672,note_off,,,,,128,0,13,,,,,6,,,38,100
140672,note_off,,,,,0,0,14,,,,,7,,,69,100
140672,note_off,,,,,128,0,14,,,,,7,,,59,100
140672,note_off,,,,,128,0,10,,,,,3,,,59,100
140672,note_off,,,,,128,0,9,,,,,2,,,59,100
140672,note_off,,,,,128,0,8,,,,,1,,,59,100
140672,note_off,,,,,128,0,15,,,,,7,,,50,100
140672,note_off,,,,,128,0,7,,,,,0,,,59,100
140672,note_off,,,,,128,0,12,,,,,5,,,50,100
140696,set_tempo,,,,,56,1,0,,638297,,,,,,,
140736,note_on,,,,,64,0,13,,,,,6,,,35,100
140736,note_on,,,,,64,0,7,,,,,0,,,69,110
140736,note_on,,,,,64,0,9,,,,,2,,,69,50
140736,note_on,,,,,64,0,12,,,,,5,,,47,100
140736,note_on,,,,,64,0,10,,,,,3,,,69,50
140736,note_on,,,,,64,0,14,,,,,7,,,65,100
140736,note_on,,,,,64,0,15,,,,,7,,,47,100
140736,note_on,,,,,64,0,8,,,,,1,,,69,50
140736,note_on,,,,,0,0,14,,,,,7,,,62,100
140752,set_tempo,,,,,56,1,0,,645161,,,,,,,
140800,note_off,,,,,256,0,11,,,,,4,,,53,100
140812,set_tempo,,,,,60,1,0,,652173,,,,,,,
140864,note_off,,,,,128,0,15,,,,,7,,,47,100
140864,note_off,,,,,128,0,8,,,,,1,,,69,100
140864,note_off,,,,,128,0,9,,,,,2,,,69,100
140864,note_off,,,,,128,0,10,,,,,3,,,69,100
140864,note_off,,,,,128,0,13,,,,,6,,,35,100
140864,note_off,,,,,128,0,12,,,,,5,,,47,100
140864,note_off,,,,,0,0,14,,,,,7,,,62,100
140864,note_off,,,,,128,0,14,,,,,7,,,65,100
140864,note_off,,,,,128,0,7,,,,,0,,,69,100
140868,set_tempo,,,,,56,1,0,,659340,,,,,,,
140928,note_on,,,,,0,0,14,,,,,7,,,71,100
140928,note_on,,,,,128,0,11,,,,,4,,,52,100
140928,note_on,,,,,64,0,8,,,,,1,,,59,50
140928,note_on,,,,,64,0,7,,,,,0,,,59,110
140928,set_tempo,,,,,60,1,0,,666666,,,,,,,
140928,note_on,,,,,64,0,14,,,,,7,,,68,100
140928,note_on,,,,,64,0,15,,,,,7,,,52,100
140928,note_on,,,,,64,0,13,,,,,6,,,40,100
140928,note_on,,,,,64,0,9,,,,,2,,,59,50
140928,note_on,,,,,64,0,12,,,,,5,,,52,100
140928,note_on,,,,,64,0,10,,,,,3,,,59,50
140940,set_tempo,,,,,12,1,0,,674157,,,,,,,
140952,set_tempo,,,,,12,1,0,,681818,,,,,,,
140964,set_tempo,,,,,12,1,0,,689655,,,,,,,
140976,set_tempo,,,,,12,1,0,,697674,,,,,,,
140992,set_tempo,,,,,16,1,0,,705882,,,,,,,
141004,set_tempo,,,,,12,1,0,,714285,,,,,,,
141016,set_tempo,,,,,12,1,0,,722891,,,,,,,
141028,set_tempo,,,,,12,1,0,,731707,,,,,,,
141040,set_tempo,,,,,12,1,0,,740740,,,,,,,
141056,note_off,,,,,128,0,10,,,,,3,,,59,100
141056,note_off,,,,,128,0,8,,,,,1,,,59,100
141056,note_off,,,,,0,0,14,,,,,7,,,71,100
141056,note_off,,,,,128,0,14,,,,,7,,,68,100
141056,set_tempo,,,,,16,1,0,,750000,,,,,,,
141056,note_off,,,,,128,0,13,,,,,6,,,40,100
141056,note_off,,,,,128,0,7,,,,,0,,,59,100
141056,note_off,,,,,128,0,9,,,,,2,,,59,100
141056,note_off,,,,,128,0,12,,,,,5,,,52,100
141056,note_off,,,,,128,0,15,,,,,7,,,52,100
141068,set_tempo,,,,,12,1,0,,759493,,,,,,,
141080,set_tempo,,,,,12,1,0,,769230,,,,,,,
141092,set_tempo,,,,,12,1,0,,779220,,,,,,,
141104,set_tempo,,,,,12,1,0,,789473,,,,,,,
141120,note_on,,,,,64,0,7,,,,,0,,,68,110
141120,note_on,,,,,64,0,14,,,,,7,,,59,100
141120,note_on,,,,,0,0,14,,,,,7,,,68,100
141120,set_tempo,,,,,16,1,0,,800000,,,,,,,
141120,note_on,,,,,64,0,8,,,,,1,,,68,50
141120,note_on,,,,,64,0,15,,,,,7,,,40,100
141120,note_on,,,,,64,0,9,,,,,2,,,68,50
141120,note_on,,,,,64,0,12,,,,,5,,,40,100
141120,note_on,,,,,64,0,10,,,,,3,,,68,50
141120,note_on,,,,,64,0,13,,,,,6,,,40,100
141132,set_tempo,,,,,12,1,0,,1016949,,,,,,,
141144,set_tempo,,,,,12,1,0,,1034482,,,,,,,
141156,set_tempo,,,,,12,1,0,,1052631,,,,,,,
141168,set_tempo,,,,,12,1,0,,1071428,,,,,,,
141184,set_tempo,,,,,16,1,0,,1090909,,,,,,,
141184,note_off,,,,,256,0,11,,,,,4,,,52,100
141196,set_tempo,,,,,12,1,0,,1111111,,,,,,,
141208,set_tempo,,,,,12,1,0,,1132075,,,,,,,
141220,set_tempo,,,,,12,1,0,,1153846,,,,,,,
141232,set_tempo,,,,,12,1,0,,1176470,,,,,,,
141248,note_off,,,,,128,0,12,,,,,5,,,40,100
141248,note_off,,,,,128,0,9,,,,,2,,,68,100
141248,note_off,,,,,128,0,7,,,,,0,,,68,100
141248,note_off,,,,,128,0,14,,,,,7,,,59,100
141248,note_off,,,,,0,0,14,,,,,7,,,68,100
141248,note_off,,,,,128,0,13,,,,,6,,,40,100
141248,note_off,,,,,128,0,8,,,,,1,,,68,100
141248,note_off,,,,,128,0,10,,,,,3,,,68,100
141248,set_tempo,,,,,16,1,0,,1200000,,,,,,,
141248,note_off,,,,,128,0,15,,,,,7,,,40,100
141260,set_tempo,,,,,12,1,0,,1224489,,,,,,,
141272,set_tempo,,,,,12,1,0,,1250000,,,,,,,
141284,set_tempo,,,,,12,1,0,,1276595,,,,,,,
141296,set_tempo,,,,,12,1,0,,1304347,,,,,,,
141312,note_on,,,,,64,0,10,,,,,3,,,69,50
141312,note_on,,,,,64,0,13,,,,,6,,,33,100
141312,note_on,,,,,64,0,12,,,,,5,,,45,100
141312,note_on,,,,,64,0,9,,,,,2,,,69,50
141312,set_tempo,,,,,16,1,0,,1000000,,,,,,,
141312,end_of_track,,,,,0,1,0,,,,,,,,,
141312,note_on,,,,,128,0,11,,,,,4,,,60,100
141312,note_on,,,,,64,0,15,,,,,7,,,45,100
141312,note_on,,,,,64,0,7,,,,,0,,,69,110
141312,note_on,,,,,64,0,8,,,,,1,,,69,50
141340,note_on,,,,,92,0,14,,,,,7,,,60,100
141372,note_on,,,,,32,0,14,,,,,7,,,64,100
141404,note_on,,,,,32,0,14,,,,,7,,,69,100
142340,end_of_track,,,,,0,1,12,,,,,,,,,
142340,note_off,,,,,1028,0,12,,,,,5,,,45,100
142340,end_of_track,,,,,0,1,15,,,,,,,,,
142340,end_of_track,,,,,0,1,8,,,,,,,,,
142340,note_off,,,,,1028,0,7,,,,,0,,,69,100
142340,note_off,,,,,1028,0,11,,,,,4,,,60,100
142340,end_of_track,,,,,0,1,11,,,,,,,,,
142340,note_off,,,,,1028,0,9,,,,,2,,,69,100
142340,end_of_track,,,,,0,1,9,,,,,,,,,
142340,note_off,,,,,1028,0,8,,,,,1,,,69,100
142340,note_off,,,,,1028,0,15,,,,,7,,,45,100
142340,note_off,,,,,1028,0,13,,,,,6,,,33,100
142340,end_of_track,,,,,0,1,13,,,,,,,,,
142340,note_off,,,,,1028,0,10,,,,,3,,,69,100
142340,end_of_track,,,,,0,1,10,,,,,,,,,
142368,note_off,,,,,964,0,14,,,,,7,,,60,100
142400,note_off,,,,,32,0,14,,,,,7,,,64,100
142432,end_of_track,,,,,0,1,14,,,,,,,,,
142432,note_off,,,,,32,0,14,,,,,7,,,69,100
143232,end_of_track,,,,,0,1,7,,,,,,,,,
143232,program_change,,,,,892,0,7,,,,,0,48,,,
