tick,type,numerator,denominator,clocks_per_click,notated_32nd_notes_per_beat,time,meta,track,data,tempo,control,value,channel,program,key,note,velocity
0,time_signature,3,4,96,8,0,1,0,,,,,,,,,
0,program_change,,,,,0,0,15,,,,,7,19,,,
0,control_change,,,,,0,0,15,,,0,0,7,,,,
0,track_name,,,,,0,1,15,,,,,,,,,
0,note_on,,,,,0,0,14,,,,,6,,,55,100
0,key_signature,,,,,0,1,14,,,,,,,G,,
0,control_change,,,,,0,0,14,,,91,107,6,,,,
0,control_change,,,,,0,0,14,,,10,77,6,,,,
0,control_change,,,,,0,0,14,,,7,45,6,,,,
0,program_change,,,,,0,0,14,,,,,6,6,,,
0,control_change,,,,,0,0,14,,,0,0,6,,,,
0,track_name,,,,,0,1,14,,,,,,,,,
0,control_change,,,,,0,0,9,,,0,0,2,,,,
0,note_on,,,,,0,0,13,,,,,6,,,67,100
0,note_on,,,,,0,0,13,,,,,6,,,62,100
0,note_on,,,,,0,0,13,,,,,6,,,59,100
0,key_signature,,,,,0,1,13,,,,,,,G,,
0,control_change,,,,,0,0,13,,,91,107,6,,,,
0,control_change,,,,,0,0,15,,,7,45,7,,,,
0,control_change,,,,,0,0,13,,,10,77,6,,,,
0,control_change,,,,,0,0,15,,,91,105,7,,,,
0,note_on,,,,,0,0,15,,,,,7,,,59,100
0,key_signature,,,,,0,1,6,,,,,,,G,,
0,end_of_track,,,,,0,1,6,,,,,,,,,
0,track_name,,,,,0,1,7,,,,,,,,,
0,control_change,,,,,0,0,7,,,0,0,0,,,,
0,program_change,,,,,0,0,7,,,,,0,40,,,
0,control_change,,,,,0,0,7,,,7,100,0,,,,
0,control_change,,,,,0,0,7,,,91,107,0,,,,
0,key_signature,,,,,0,1,7,,,,,,,G,,
0,note_on,,,,,0,0,16,,,,,7,,,55,100
0,key_signature,,,,,0,1,16,,,,,,,G,,
0,control_change,,,,,0,0,16,,,91,105,7,,,,
0,control_change,,,,,0,0,16,,,7,45,7,,,,
0,program_change,,,,,0,0,16,,,,,7,19,,,
0,control_change,,,,,0,0,16,,,0,0,7,,,,
0,track_name,,,,,0,1,16,,,,,,,,,
0,note_on,,,,,0,0,15,,,,,7,,,67,100
0,note_on,,,,,0,0,15,,,,,7,,,62,100
0,key_signature,,,,,0,1,15,,,,,,,G,,
0,control_change,,,,,0,0,6,,,91,107,0,,,,
0,control_change,,,,,0,0,13,,,7,45,6,,,,
0,control_change,,,,,0,0,13,,,0,0,6,,,,
0,control_change,,,,,0,0,8,,,10,49,1,,,,
0,control_change,,,,,0,0,8,,,91,107,1,,,,
0,key_signature,,,,,0,1,8,,,,,,,G,,
0,note_on,,,,,0,0,8,,,,,1,,,71,100
0,note_on,,,,,0,0,10,,,,,3,,,59,100
0,key_signature,,,,,0,1,10,,,,,,,G,,
0,control_change,,,,,0,0,10,,,91,108,3,,,,
0,control_change,,,,,0,0,10,,,7,92,3,,,,
0,program_change,,,,,0,0,10,,,,,3,48,,,
0,control_change,,,,,0,0,10,,,0,0,3,,,,
0,track_name,,,,,0,1,10,,,,,,,,,
0,note_on,,,,,0,0,9,,,,,2,,,74,100
0,key_signature,,,,,0,1,9,,,,,,,G,,
0,control_change,,,,,0,0,9,,,91,108,2,,,,
0,control_change,,,,,0,0,9,,,10,36,2,,,,
0,control_change,,,,,0,0,9,,,7,96,2,,,,
0,program_change,,,,,0,0,9,,,,,2,48,,,
0,control_change,,,,,0,0,8,,,7,104,1,,,,
0,program_change,,,,,0,0,13,,,,,6,6,,,
0,program_change,,,,,0,0,8,,,,,1,48,,,
0,track_name,,,,,0,1,8,,,,,,,,,
0,track_name,,,,,0,1,13,,,,,,,,,
0,note_on,,,,,0,0,12,,,,,5,,,43,100
0,key_signature,,,,,0,1,12,,,,,,,G,,
0,control_change,,,,,0,0,12,,,91,108,5,,,,
0,control_change,,,,,0,0,12,,,10,90,5,,,,
0,control_change,,,,,0,0,12,,,7,72,5,,,,
0,program_change,,,,,0,0,12,,,,,5,48,,,
0,control_change,,,,,0,0,12,,,0,0,5,,,,
0,track_name,,,,,0,1,12,,,,,,,,,
0,note_on,,,,,0,0,11,,,,,4,,,55,100
0,key_signature,,,,,0,1,11,,,,,,,G,,
0,control_change,,,,,0,0,11,,,91,107,4,,,,
0,control_change,,,,,0,0,11,,,10,79,4,,,,
0,control_change,,,,,0,0,11,,,7,82,4,,,,
0,program_change,,,,,0,0,11,,,,,4,48,,,
0,control_change,,,,,0,0,11,,,0,0,4,,,,
0,track_name,,,,,0,1,11,,,,,,,,,
0,control_change,,,,,0,0,8,,,0,0,1,,,,
0,control_change,,,,,0,0,6,,,7,100,0,,,,
0,track_name,,,,,0,1,9,,,,,,,,,
0,control_change,,,,,0,0,6,,,0,0,0,,,,
0,control_change,,,,,0,0,3,,,91,107,0,,,,
0,control_change,,,,,0,0,3,,,7,100,0,,,,
0,control_change,,,,,0,0,3,,,0,0,0,,,,
0,track_name,,,,,0,1,3,,,,,,,,,
0,track_name,,,,,0,1,2,,,,,,,,,
0,end_of_track,,,,,0,1,1,,,,,,,,,
0,track_name,,,,,0,1,1,,,,,,,,,
0,end_of_track,,,,,0,1,3,,,,,,,,,
0,track_name,,,,,0,1,4,,,,,,,,,
0,control_change,,,,,0,0,4,,,0,0,0,,,,
0,program_change,,,,,0,0,4,,,,,0,40,,,
0,control_change,,,,,0,0,4,,,7,100,0,,,,
0,control_change,,,,,0,0,4,,,91,107,0,,,,
0,key_signature,,,,,0,1,4,,,,,,,G,,
0,program_change,,,,,0,0,6,,,,,0,40,,,
0,program_change,,,,,0,0,3,,,,,0,40,,,
0,key_signature,,,,,0,1,3,,,,,,,G,,
0,end_of_track,,,,,0,1,2,,,,,,,,,
0,program_change,,,,,0,0,5,,,,,0,40,,,
0,track_name,,,,,0,1,5,,,,,,,,,
0,end_of_track,,,,,0,1,4,,,,,,,,,
0,control_change,,,,,0,0,5,,,91,107,0,,,,
0,key_signature,,,,,0,1,5,,,,,,,G,,
0,sequencer_specific,,,,,0,1,0,"(0, 0, 65)",,,,,,,,
0,end_of_track,,,,,0,1,5,,,,,,,,,
0,sequencer_specific,,,,,0,1,0,"(0, 0, 119, 14, 1)",,,,,,,,
0,control_change,,,,,0,0,5,,,0,0,0,,,,
0,set_tempo,,,,,0,1,0,,468750,,,,,,,
0,track_name,,,,,0,1,6,,,,,,,,,
0,control_change,,,,,0,0,5,,,7,100,0,,,,
80,note_off,,,,,80,0,9,,,,,2,,,74,100
80,note_off,,,,,80,0,8,,,,,1,,,71,100
192,note_on,,,,,112,0,9,,,,,2,,,71,100
192,note_on,,,,,112,0,8,,,,,1,,,67,100
256,note_off,,,,,0,0,13,,,,,6,,,67,100
256,note_off,,,,,0,0,13,,,,,6,,,62,100
256,note_off,,,,,256,0,13,,,,,6,,,59,100
256,note_off,,,,,256,0,12,,,,,5,,,43,100
256,note_off,,,,,256,0,16,,,,,7,,,55,100
256,note_off,,,,,256,0,11,,,,,4,,,55,100
256,note_off,,,,,256,0,14,,,,,6,,,55,100
256,note_off,,,,,0,0,15,,,,,7,,,67,100
256,note_off,,,,,0,0,15,,,,,7,,,62,100
256,note_off,,,,,256,0,15,,,,,7,,,59,100
256,note_off,,,,,256,0,10,,,,,3,,,59,100
272,note_off,,,,,80,0,9,,,,,2,,,71,100
272,note_off,,,,,80,0,8,,,,,1,,,67,100
384,note_on,,,,,112,0,9,,,,,2,,,67,100
384,note_on,,,,,112,0,8,,,,,1,,,71,100
464,note_off,,,,,80,0,9,,,,,2,,,67,100
464,note_off,,,,,80,0,8,,,,,1,,,71,100
576,note_on,,,,,320,0,16,,,,,7,,,55,100
576,note_on,,,,,0,0,13,,,,,6,,,59,100
576,note_on,,,,,320,0,13,,,,,6,,,67,100
576,note_on,,,,,320,0,12,,,,,5,,,43,100
576,note_on,,,,,320,0,14,,,,,6,,,55,100
576,note_on,,,,,320,0,11,,,,,4,,,55,100
576,note_on,,,,,320,0,15,,,,,7,,,67,100
576,note_on,,,,,0,0,15,,,,,7,,,62,100
576,note_on,,,,,0,0,15,,,,,7,,,59,100
576,note_on,,,,,0,0,13,,,,,6,,,62,100
576,note_on,,,,,112,0,8,,,,,1,,,74,100
576,note_on,,,,,112,0,9,,,,,2,,,71,100
576,note_on,,,,,320,0,10,,,,,3,,,62,100
656,note_off,,,,,80,0,11,,,,,4,,,55,100
656,note_off,,,,,0,0,15,,,,,7,,,59,100
656,note_off,,,,,80,0,15,,,,,7,,,67,100
656,note_off,,,,,0,0,15,,,,,7,,,62,100
656,note_off,,,,,80,0,12,,,,,5,,,43,100
656,note_off,,,,,80,0,16,,,,,7,,,55,100
656,note_off,,,,,80,0,8,,,,,1,,,74,100
656,note_off,,,,,80,0,9,,,,,2,,,71,100
656,note_off,,,,,0,0,13,,,,,6,,,59,100
656,note_off,,,,,80,0,13,,,,,6,,,67,100
656,note_off,,,,,80,0,14,,,,,6,,,55,100
656,note_off,,,,,80,0,10,,,,,3,,,62,100
656,note_off,,,,,0,0,13,,,,,6,,,62,100
768,note_on,,,,,112,0,13,,,,,6,,,66,100
768,note_on,,,,,112,0,16,,,,,7,,,54,100
768,note_on,,,,,0,0,13,,,,,6,,,62,100
768,note_on,,,,,112,0,9,,,,,2,,,74,100
768,note_on,,,,,112,0,14,,,,,6,,,54,100
768,note_on,,,,,112,0,10,,,,,3,,,62,100
768,note_on,,,,,112,0,15,,,,,7,,,66,100
768,note_on,,,,,0,0,13,,,,,6,,,57,100
768,note_on,,,,,0,0,15,,,,,7,,,62,100
768,note_on,,,,,112,0,11,,,,,4,,,54,100
768,note_on,,,,,0,0,15,,,,,7,,,57,100
768,note_on,,,,,112,0,8,,,,,1,,,69,100
768,note_on,,,,,112,0,12,,,,,5,,,42,100
848,note_off,,,,,80,0,11,,,,,4,,,54,100
848,note_off,,,,,80,0,14,,,,,6,,,54,100
848,note_off,,,,,0,0,13,,,,,6,,,62,100
848,note_off,,,,,0,0,13,,,,,6,,,57,100
848,note_off,,,,,80,0,16,,,,,7,,,54,100
848,note_off,,,,,80,0,9,,,,,2,,,74,100
848,note_off,,,,,80,0,10,,,,,3,,,62,100
848,note_off,,,,,80,0,15,,,,,7,,,66,100
848,note_off,,,,,80,0,13,,,,,6,,,66,100
848,note_off,,,,,80,0,8,,,,,1,,,69,100
848,note_off,,,,,0,0,15,,,,,7,,,57,100
848,note_off,,,,,0,0,15,,,,,7,,,62,100
848,note_off,,,,,80,0,12,,,,,5,,,42,100
960,note_on,,,,,112,0,8,,,,,1,,,74,100
960,note_on,,,,,112,0,11,,,,,4,,,54,100
960,note_on,,,,,0,0,13,,,,,6,,,62,100
960,note_on,,,,,0,0,13,,,,,6,,,57,100
960,note_on,,,,,112,0,13,,,,,6,,,66,100
960,note_on,,,,,112,0,16,,,,,7,,,54,100
960,note_on,,,,,112,0,9,,,,,2,,,69,100
960,note_on,,,,,112,0,15,,,,,7,,,66,100
960,note_on,,,,,0,0,15,,,,,7,,,62,100
960,note_on,,,,,0,0,15,,,,,7,,,57,100
960,note_on,,,,,112,0,12,,,,,5,,,42,100
960,note_on,,,,,112,0,14,,,,,6,,,54,100
960,note_on,,,,,112,0,10,,,,,3,,,62,100
1040,note_off,,,,,80,0,14,,,,,6,,,54,100
1040,note_off,,,,,0,0,15,,,,,7,,,57,100
1040,note_off,,,,,80,0,9,,,,,2,,,69,100
1040,note_off,,,,,80,0,15,,,,,7,,,66,100
1040,note_off,,,,,0,0,15,,,,,7,,,62,100
1040,note_off,,,,,0,0,13,,,,,6,,,62,100
1040,note_off,,,,,80,0,16,,,,,7,,,54,100
1040,note_off,,,,,80,0,11,,,,,4,,,54,100
1040,note_off,,,,,80,0,8,,,,,1,,,74,100
1040,note_off,,,,,0,0,13,,,,,6,,,57,100
1040,note_off,,,,,80,0,13,,,,,6,,,66,100
1040,note_off,,,,,80,0,10,,,,,3,,,62,100
1040,note_off,,,,,80,0,12,,,,,5,,,42,100
1152,set_tempo,,,,,1152,1,0,,468750,,,,,,,
1152,note_on,,,,,112,0,11,,,,,4,,,55,95
1152,note_on,,,,,112,0,9,,,,,2,,,74,93
1152,note_on,,,,,0,0,15,,,,,7,,,62,100
1152,note_on,,,,,0,0,15,,,,,7,,,67,100
1152,note_on,,,,,112,0,16,,,,,7,,,55,100
1152,note_on,,,,,112,0,15,,,,,7,,,59,100
1152,note_on,,,,,112,0,14,,,,,6,,,55,100
1152,note_on,,,,,112,0,10,,,,,3,,,62,95
1152,note_on,,,,,112,0,13,,,,,6,,,59,100
1152,note_on,,,,,0,0,13,,,,,6,,,62,100
1152,note_on,,,,,0,0,13,,,,,6,,,67,100
1152,note_on,,,,,112,0,8,,,,,1,,,71,93
1152,note_on,,,,,112,0,12,,,,,5,,,43,95
1232,note_off,,,,,80,0,9,,,,,2,,,74,100
1232,note_off,,,,,80,0,8,,,,,1,,,71,100
1344,note_on,,,,,112,0,8,,,,,1,,,67,70
1344,note_on,,,,,112,0,9,,,,,2,,,71,70
1408,note_off,,,,,256,0,16,,,,,7,,,55,100
1408,note_off,,,,,0,0,13,,,,,6,,,67,100
1408,note_off,,,,,256,0,11,,,,,4,,,55,100
1408,note_off,,,,,256,0,15,,,,,7,,,59,100
1408,note_off,,,,,256,0,10,,,,,3,,,62,100
1408,note_off,,,,,0,0,15,,,,,7,,,62,100
1408,note_off,,,,,256,0,14,,,,,6,,,55,100
1408,note_off,,,,,256,0,13,,,,,6,,,59,100
1408,note_off,,,,,0,0,15,,,,,7,,,67,100
1408,note_off,,,,,0,0,13,,,,,6,,,62,100
1408,note_off,,,,,256,0,12,,,,,5,,,43,100
1424,note_off,,,,,80,0,8,,,,,1,,,67,100
1424,note_off,,,,,80,0,9,,,,,2,,,71,100
1536,note_on,,,,,112,0,8,,,,,1,,,71,70
1536,note_on,,,,,112,0,9,,,,,2,,,67,70
1616,note_off,,,,,80,0,8,,,,,1,,,71,100
1616,note_off,,,,,80,0,9,,,,,2,,,67,100
1728,note_on,,,,,320,0,15,,,,,7,,,59,100
1728,note_on,,,,,320,0,11,,,,,4,,,55,70
1728,note_on,,,,,112,0,8,,,,,1,,,74,70
1728,note_on,,,,,320,0,10,,,,,3,,,62,70
1728,note_on,,,,,112,0,9,,,,,2,,,71,70
1728,note_on,,,,,320,0,14,,,,,6,,,55,100
1728,note_on,,,,,0,0,13,,,,,6,,,62,100
1728,note_on,,,,,320,0,12,,,,,5,,,43,70
1728,note_on,,,,,0,0,15,,,,,7,,,62,100
1728,note_on,,,,,320,0,13,,,,,6,,,59,100
1728,note_on,,,,,320,0,16,,,,,7,,,55,100
1808,note_off,,,,,80,0,14,,,,,6,,,55,100
1808,note_off,,,,,80,0,12,,,,,5,,,43,100
1808,note_off,,,,,80,0,13,,,,,6,,,59,100
1808,note_off,,,,,80,0,16,,,,,7,,,55,100
1808,note_off,,,,,80,0,9,,,,,2,,,71,100
1808,note_off,,,,,80,0,10,,,,,3,,,62,100
1808,note_off,,,,,80,0,11,,,,,4,,,55,100
1808,note_off,,,,,80,0,15,,,,,7,,,59,100
1808,note_off,,,,,0,0,15,,,,,7,,,62,100
1808,note_off,,,,,80,0,8,,,,,1,,,74,100
1808,note_off,,,,,0,0,13,,,,,6,,,62,100
1920,note_on,,,,,112,0,14,,,,,6,,,54,100
1920,note_on,,,,,112,0,10,,,,,3,,,62,70
1920,note_on,,,,,0,0,13,,,,,6,,,62,100
1920,note_on,,,,,112,0,13,,,,,6,,,57,100
1920,note_on,,,,,112,0,15,,,,,7,,,57,100
1920,note_on,,,,,0,0,15,,,,,7,,,62,100
1920,note_on,,,,,112,0,16,,,,,7,,,54,100
1920,note_on,,,,,112,0,8,,,,,1,,,69,70
1920,note_on,,,,,112,0,11,,,,,4,,,54,70
1920,note_on,,,,,112,0,9,,,,,2,,,74,70
1920,note_on,,,,,112,0,12,,,,,5,,,42,70
2000,note_off,,,,,0,0,15,,,,,7,,,62,100
2000,note_off,,,,,80,0,13,,,,,6,,,57,100
2000,note_off,,,,,0,0,13,,,,,6,,,62,100
2000,note_off,,,,,80,0,9,,,,,2,,,74,100
2000,note_off,,,,,80,0,12,,,,,5,,,42,100
2000,note_off,,,,,80,0,15,,,,,7,,,57,100
2000,note_off,,,,,80,0,16,,,,,7,,,54,100
2000,note_off,,,,,80,0,10,,,,,3,,,62,100
2000,note_off,,,,,80,0,8,,,,,1,,,69,100
2000,note_off,,,,,80,0,14,,,,,6,,,54,100
2000,note_off,,,,,80,0,11,,,,,4,,,54,100
2112,note_on,,,,,0,0,13,,,,,6,,,62,100
2112,note_on,,,,,112,0,13,,,,,6,,,57,100
2112,note_on,,,,,0,0,15,,,,,7,,,62,100
2112,note_on,,,,,112,0,15,,,,,7,,,57,100
2112,note_on,,,,,112,0,10,,,,,3,,,62,70
2112,note_on,,,,,112,0,14,,,,,6,,,54,100
2112,note_on,,,,,112,0,16,,,,,7,,,54,100
2112,note_on,,,,,112,0,8,,,,,1,,,74,70
2112,note_on,,,,,112,0,9,,,,,2,,,69,70
2112,note_on,,,,,112,0,11,,,,,4,,,54,70
2112,note_on,,,,,112,0,12,,,,,5,,,42,70
2192,note_off,,,,,80,0,16,,,,,7,,,54,100
2192,note_off,,,,,0,0,13,,,,,6,,,62,100
2192,note_off,,,,,80,0,13,,,,,6,,,57,100
2192,note_off,,,,,80,0,14,,,,,6,,,54,100
2192,note_off,,,,,0,0,15,,,,,7,,,62,100
2192,note_off,,,,,80,0,12,,,,,5,,,42,100
2192,note_off,,,,,80,0,15,,,,,7,,,57,100
2192,note_off,,,,,80,0,8,,,,,1,,,74,100
2192,note_off,,,,,80,0,9,,,,,2,,,69,100
2192,note_off,,,,,80,0,11,,,,,4,,,54,100
2192,note_off,,,,,80,0,10,,,,,3,,,62,100
2304,note_on,,,,,112,0,11,,,,,4,,,55,75
2304,note_on,,,,,112,0,15,,,,,7,,,59,100
2304,note_on,,,,,0,0,15,,,,,7,,,62,100
2304,note_on,,,,,112,0,12,,,,,5,,,43,75
2304,note_on,,,,,112,0,9,,,,,2,,,74,79
2304,note_on,,,,,112,0,13,,,,,6,,,59,100
2304,note_on,,,,,0,0,13,,,,,6,,,62,100
2304,note_on,,,,,112,0,8,,,,,1,,,71,79
2304,note_on,,,,,112,0,14,,,,,6,,,55,100
2304,note_on,,,,,112,0,16,,,,,7,,,55,100
2304,note_on,,,,,112,0,10,,,,,3,,,62,75
2384,note_off,,,,,80,0,9,,,,,2,,,74,100
2384,note_off,,,,,80,0,8,,,,,1,,,71,100
2496,note_on,,,,,112,0,9,,,,,2,,,71,99
2496,note_on,,,,,112,0,8,,,,,1,,,67,99
2560,note_off,,,,,256,0,10,,,,,3,,,62,100
2560,note_off,,,,,256,0,11,,,,,4,,,55,100
2560,note_off,,,,,256,0,14,,,,,6,,,55,100
2560,note_off,,,,,256,0,16,,,,,7,,,55,100
2560,note_off,,,,,0,0,15,,,,,7,,,62,100
2560,note_off,,,,,256,0,13,,,,,6,,,59,100
2560,note_off,,,,,256,0,15,,,,,7,,,59,100
2560,note_off,,,,,0,0,13,,,,,6,,,62,100
2560,note_off,,,,,256,0,12,,,,,5,,,43,100
2576,note_off,,,,,80,0,9,,,,,2,,,71,100
2576,note_off,,,,,80,0,8,,,,,1,,,67,100
2688,note_on,,,,,112,0,9,,,,,2,,,67,100
2688,note_on,,,,,112,0,8,,,,,1,,,71,100
2768,note_off,,,,,80,0,9,,,,,2,,,67,100
2768,note_off,,,,,80,0,8,,,,,1,,,71,100
2880,note_on,,,,,320,0,10,,,,,3,,,62,100
2880,note_on,,,,,320,0,16,,,,,7,,,55,100
2880,note_on,,,,,320,0,14,,,,,6,,,55,100
2880,note_on,,,,,0,0,13,,,,,6,,,62,100
2880,note_on,,,,,320,0,15,,,,,7,,,67,100
2880,note_on,,,,,0,0,15,,,,,7,,,59,100
2880,note_on,,,,,320,0,12,,,,,5,,,43,100
2880,note_on,,,,,0,0,15,,,,,7,,,62,100
2880,note_on,,,,,112,0,9,,,,,2,,,71,100
2880,note_on,,,,,0,0,13,,,,,6,,,59,100
2880,note_on,,,,,320,0,13,,,,,6,,,67,100
2880,note_on,,,,,320,0,11,,,,,4,,,55,100
2880,note_on,,,,,0,0,14,,,,,6,,,55,100
2880,note_on,,,,,112,0,8,,,,,1,,,74,100
2960,note_off,,,,,80,0,12,,,,,5,,,43,100
2960,note_off,,,,,80,0,9,,,,,2,,,71,100
2960,note_off,,,,,80,0,11,,,,,4,,,55,100
2960,note_off,,,,,80,0,8,,,,,1,,,74,100
2960,note_off,,,,,80,0,16,,,,,7,,,55,100
2960,note_off,,,,,0,0,13,,,,,6,,,62,100
2960,note_off,,,,,0,0,13,,,,,6,,,59,100
2960,note_off,,,,,80,0,10,,,,,3,,,62,100
2960,note_off,,,,,0,0,15,,,,,7,,,59,100
2960,note_off,,,,,0,0,15,,,,,7,,,62,100
2960,note_off,,,,,80,0,14,,,,,6,,,55,100
2960,note_off,,,,,80,0,15,,,,,7,,,67,100
2960,note_off,,,,,80,0,13,,,,,6,,,67,100
2960,note_off,,,,,0,0,14,,,,,6,,,55,100
3072,note_on,,,,,0,0,15,,,,,7,,,57,100
3072,note_on,,,,,112,0,12,,,,,5,,,42,100
3072,note_on,,,,,112,0,13,,,,,6,,,66,100
3072,note_on,,,,,0,0,13,,,,,6,,,57,100
3072,note_on,,,,,0,0,13,,,,,6,,,62,100
3072,note_on,,,,,0,0,15,,,,,7,,,62,100
3072,note_on,,,,,112,0,9,,,,,2,,,74,100
3072,note_on,,,,,112,0,15,,,,,7,,,66,100
3072,note_on,,,,,112,0,14,,,,,6,,,54,100
3072,note_on,,,,,112,0,10,,,,,3,,,62,100
3072,note_on,,,,,112,0,8,,,,,1,,,69,100
3072,note_on,,,,,0,0,14,,,,,6,,,54,100
3072,note_on,,,,,112,0,16,,,,,7,,,54,100
3072,note_on,,,,,112,0,11,,,,,4,,,54,100
3152,note_off,,,,,80,0,14,,,,,6,,,54,100
3152,note_off,,,,,80,0,10,,,,,3,,,62,100
3152,note_off,,,,,0,0,13,,,,,6,,,57,100
3152,note_off,,,,,80,0,13,,,,,6,,,66,100
3152,note_off,,,,,0,0,13,,,,,6,,,62,100
3152,note_off,,,,,80,0,8,,,,,1,,,69,100
3152,note_off,,,,,0,0,14,,,,,6,,,54,100
3152,note_off,,,,,80,0,11,,,,,4,,,54,100
3152,note_off,,,,,0,0,15,,,,,7,,,62,100
3152,note_off,,,,,0,0,15,,,,,7,,,57,100
3152,note_off,,,,,80,0,15,,,,,7,,,66,100
3152,note_off,,,,,80,0,9,,,,,2,,,74,100
3152,note_off,,,,,80,0,16,,,,,7,,,54,100
3152,note_off,,,,,80,0,12,,,,,5,,,42,100
3264,note_on,,,,,112,0,16,,,,,7,,,54,100
3264,note_on,,,,,0,0,13,,,,,6,,,62,100
3264,note_on,,,,,0,0,15,,,,,7,,,62,100
3264,note_on,,,,,0,0,15,,,,,7,,,57,100
3264,note_on,,,,,112,0,15,,,,,7,,,66,100
3264,note_on,,,,,112,0,9,,,,,2,,,69,100
3264,note_on,,,,,0,0,13,,,,,6,,,57,100
3264,note_on,,,,,0,0,14,,,,,6,,,54,100
3264,note_on,,,,,112,0,14,,,,,6,,,54,100
3264,note_on,,,,,112,0,12,,,,,5,,,42,100
3264,note_on,,,,,112,0,13,,,,,6,,,66,100
3264,note_on,,,,,112,0,10,,,,,3,,,62,100
3264,note_on,,,,,112,0,11,,,,,4,,,54,100
3264,note_on,,,,,112,0,8,,,,,1,,,74,100
3344,note_off,,,,,0,0,13,,,,,6,,,62,100
3344,note_off,,,,,80,0,12,,,,,5,,,42,100
3344,note_off,,,,,80,0,10,,,,,3,,,62,100
3344,note_off,,,,,80,0,11,,,,,4,,,54,100
3344,note_off,,,,,80,0,15,,,,,7,,,66,100
3344,note_off,,,,,0,0,15,,,,,7,,,57,100
3344,note_off,,,,,80,0,16,,,,,7,,,54,100
3344,note_off,,,,,0,0,13,,,,,6,,,57,100
3344,note_off,,,,,80,0,9,,,,,2,,,69,100
3344,note_off,,,,,0,0,14,,,,,6,,,54,100
3344,note_off,,,,,80,0,14,,,,,6,,,54,100
3344,note_off,,,,,80,0,8,,,,,1,,,74,100
3344,note_off,,,,,80,0,13,,,,,6,,,66,100
3344,note_off,,,,,0,0,15,,,,,7,,,62,100
3456,note_on,,,,,112,0,15,,,,,7,,,59,100
3456,note_on,,,,,0,0,15,,,,,7,,,62,100
3456,note_on,,,,,112,0,11,,,,,4,,,55,100
3456,note_on,,,,,112,0,10,,,,,3,,,62,100
3456,note_on,,,,,0,0,15,,,,,7,,,67,100
3456,note_on,,,,,112,0,12,,,,,5,,,43,100
3456,note_on,,,,,112,0,13,,,,,6,,,59,100
3456,note_on,,,,,0,0,13,,,,,6,,,67,100
3456,note_on,,,,,112,0,16,,,,,7,,,55,100
3456,note_on,,,,,112,0,14,,,,,6,,,55,100
3456,note_on,,,,,112,0,8,,,,,1,,,71,100
3456,note_on,,,,,0,0,13,,,,,6,,,62,100
3456,note_on,,,,,112,0,9,,,,,2,,,74,100
3536,note_off,,,,,80,0,10,,,,,3,,,62,100
3536,note_off,,,,,80,0,11,,,,,4,,,55,100
3536,note_off,,,,,80,0,16,,,,,7,,,55,100
3536,note_off,,,,,80,0,9,,,,,2,,,74,100
3536,note_off,,,,,80,0,14,,,,,6,,,55,100
3536,note_off,,,,,80,0,8,,,,,1,,,71,100
3536,note_off,,,,,80,0,12,,,,,5,,,43,100
3556,note_off,,,,,100,0,13,,,,,6,,,59,100
3556,note_off,,,,,0,0,13,,,,,6,,,62,100
3556,note_off,,,,,0,0,13,,,,,6,,,67,100
3556,note_off,,,,,100,0,15,,,,,7,,,59,100
3556,note_off,,,,,0,0,15,,,,,7,,,62,100
3556,note_off,,,,,0,0,15,,,,,7,,,67,100
3648,note_on,,,,,112,0,16,,,,,7,,,55,100
3648,note_on,,,,,92,0,13,,,,,6,,,67,100
3648,note_on,,,,,112,0,11,,,,,4,,,55,92
3648,note_on,,,,,112,0,14,,,,,6,,,55,100
3648,note_on,,,,,112,0,9,,,,,2,,,67,92
3648,note_on,,,,,112,0,12,,,,,5,,,43,92
3648,note_on,,,,,92,0,15,,,,,7,,,67,100
3648,note_on,,,,,112,0,8,,,,,1,,,67,92
3648,note_on,,,,,112,0,10,,,,,3,,,67,92
3728,note_off,,,,,80,0,13,,,,,6,,,67,100
3728,note_off,,,,,80,0,16,,,,,7,,,55,100
3728,note_off,,,,,80,0,12,,,,,5,,,43,100
3728,note_off,,,,,80,0,15,,,,,7,,,67,100
3728,note_off,,,,,80,0,9,,,,,2,,,67,100
3728,note_off,,,,,80,0,11,,,,,4,,,55,100
3728,note_off,,,,,80,0,14,,,,,6,,,55,100
3728,note_off,,,,,80,0,10,,,,,3,,,67,100
3728,note_off,,,,,80,0,8,,,,,1,,,67,100
3840,note_on,,,,,112,0,8,,,,,1,,,67,93
3840,note_on,,,,,112,0,13,,,,,6,,,67,100
3840,note_on,,,,,112,0,9,,,,,2,,,67,93
3840,note_on,,,,,112,0,14,,,,,6,,,55,100
3840,note_on,,,,,112,0,15,,,,,7,,,67,100
3840,note_on,,,,,112,0,11,,,,,4,,,55,93
3840,note_on,,,,,112,0,12,,,,,5,,,43,93
3840,note_on,,,,,112,0,16,,,,,7,,,55,100
3840,note_on,,,,,112,0,10,,,,,3,,,67,93
3920,note_off,,,,,80,0,9,,,,,2,,,67,100
3920,note_off,,,,,80,0,15,,,,,7,,,67,100
3920,note_off,,,,,80,0,8,,,,,1,,,67,100
3920,note_off,,,,,80,0,11,,,,,4,,,55,100
3920,note_off,,,,,80,0,10,,,,,3,,,67,100
3920,note_off,,,,,80,0,13,,,,,6,,,67,100
3920,note_off,,,,,80,0,12,,,,,5,,,43,100
3920,note_off,,,,,80,0,16,,,,,7,,,55,100
3920,note_off,,,,,80,0,14,,,,,6,,,55,100
4032,note_on,,,,,112,0,13,,,,,6,,,67,100
4032,note_on,,,,,112,0,12,,,,,5,,,43,95
4032,note_on,,,,,112,0,8,,,,,1,,,67,95
4032,note_on,,,,,112,0,10,,,,,3,,,67,95
4032,note_on,,,,,112,0,16,,,,,7,,,55,100
4032,note_on,,,,,112,0,9,,,,,2,,,67,95
4032,note_on,,,,,112,0,15,,,,,7,,,67,100
4032,note_on,,,,,112,0,11,,,,,4,,,55,95
4032,note_on,,,,,112,0,14,,,,,6,,,55,100
4112,note_off,,,,,80,0,8,,,,,1,,,67,100
4112,note_off,,,,,80,0,10,,,,,3,,,67,100
4112,note_off,,,,,80,0,12,,,,,5,,,43,100
4112,note_off,,,,,80,0,11,,,,,4,,,55,100
4112,note_off,,,,,80,0,14,,,,,6,,,55,100
4112,note_off,,,,,80,0,9,,,,,2,,,67,100
4112,note_off,,,,,80,0,15,,,,,7,,,67,100
4112,note_off,,,,,80,0,16,,,,,7,,,55,100
4112,note_off,,,,,80,0,13,,,,,6,,,67,100
4224,note_on,,,,,112,0,8,,,,,1,,,67,97
4224,note_on,,,,,112,0,16,,,,,7,,,55,100
4224,note_on,,,,,112,0,11,,,,,4,,,55,97
4224,note_on,,,,,112,0,15,,,,,7,,,67,100
4224,note_on,,,,,112,0,10,,,,,3,,,67,97
4224,note_on,,,,,112,0,14,,,,,6,,,55,100
4224,note_on,,,,,112,0,9,,,,,2,,,67,97
4224,note_on,,,,,112,0,13,,,,,6,,,67,100
4224,note_on,,,,,112,0,12,,,,,5,,,43,97
4304,note_off,,,,,80,0,15,,,,,7,,,67,100
4304,note_off,,,,,80,0,11,,,,,4,,,55,100
4304,note_off,,,,,80,0,8,,,,,1,,,67,100
4304,note_off,,,,,80,0,13,,,,,6,,,67,100
4304,note_off,,,,,80,0,14,,,,,6,,,55,100
4304,note_off,,,,,80,0,9,,,,,2,,,67,100
4304,note_off,,,,,80,0,10,,,,,3,,,67,100
4304,note_off,,,,,80,0,16,,,,,7,,,55,100
4304,note_off,,,,,80,0,12,,,,,5,,,43,100
4416,note_on,,,,,112,0,15,,,,,7,,,67,100
4416,note_on,,,,,112,0,14,,,,,6,,,55,100
4416,note_on,,,,,112,0,10,,,,,3,,,67,99
4416,note_on,,,,,112,0,12,,,,,5,,,43,99
4416,note_on,,,,,112,0,8,,,,,1,,,67,99
4416,note_on,,,,,112,0,9,,,,,2,,,67,99
4416,note_on,,,,,112,0,11,,,,,4,,,55,99
4416,note_on,,,,,112,0,13,,,,,6,,,67,100
4416,note_on,,,,,112,0,16,,,,,7,,,55,100
4496,note_off,,,,,80,0,10,,,,,3,,,67,100
4496,note_off,,,,,80,0,11,,,,,4,,,55,100
4496,note_off,,,,,80,0,16,,,,,7,,,55,100
4496,note_off,,,,,80,0,15,,,,,7,,,67,100
4496,note_off,,,,,80,0,14,,,,,6,,,55,100
4496,note_off,,,,,80,0,13,,,,,6,,,67,100
4496,note_off,,,,,80,0,12,,,,,5,,,43,100
4496,note_off,,,,,80,0,9,,,,,2,,,67,100
4496,note_off,,,,,80,0,8,,,,,1,,,67,100
4608,note_on,,,,,112,0,9,,,,,2,,,66,101
4608,note_on,,,,,112,0,15,,,,,7,,,66,100
4608,note_on,,,,,112,0,16,,,,,7,,,54,100
4608,note_on,,,,,112,0,11,,,,,4,,,54,101
4608,note_on,,,,,112,0,13,,,,,6,,,66,100
4608,note_on,,,,,112,0,10,,,,,3,,,66,101
4608,note_on,,,,,112,0,12,,,,,5,,,42,101
4608,note_on,,,,,112,0,14,,,,,6,,,54,100
4608,note_on,,,,,112,0,8,,,,,1,,,66,102
4688,note_off,,,,,80,0,15,,,,,7,,,66,100
4688,note_off,,,,,80,0,13,,,,,6,,,66,100
4688,note_off,,,,,80,0,10,,,,,3,,,66,100
4688,note_off,,,,,80,0,9,,,,,2,,,66,100
4688,note_off,,,,,80,0,11,,,,,4,,,54,100
4688,note_off,,,,,80,0,14,,,,,6,,,54,100
4688,note_off,,,,,80,0,16,,,,,7,,,54,100
4688,note_off,,,,,80,0,12,,,,,5,,,42,100
4688,note_off,,,,,80,0,8,,,,,1,,,66,100
4800,note_on,,,,,112,0,8,,,,,1,,,64,101
4800,note_on,,,,,112,0,12,,,,,5,,,40,100
4800,note_on,,,,,112,0,13,,,,,6,,,64,100
4800,note_on,,,,,112,0,11,,,,,4,,,52,100
4800,note_on,,,,,112,0,14,,,,,6,,,52,100
4800,note_on,,,,,112,0,16,,,,,7,,,52,100
4800,note_on,,,,,112,0,15,,,,,7,,,64,100
4800,note_on,,,,,112,0,9,,,,,2,,,64,100
4800,note_on,,,,,112,0,10,,,,,3,,,64,100
4880,note_off,,,,,80,0,8,,,,,1,,,64,100
4880,note_off,,,,,80,0,9,,,,,2,,,64,100
4880,note_off,,,,,80,0,12,,,,,5,,,40,100
4880,note_off,,,,,80,0,13,,,,,6,,,64,100
4880,note_off,,,,,80,0,14,,,,,6,,,52,100
4880,note_off,,,,,80,0,15,,,,,7,,,64,100
4880,note_off,,,,,80,0,10,,,,,3,,,64,100
4880,note_off,,,,,80,0,11,,,,,4,,,52,100
4880,note_off,,,,,80,0,16,,,,,7,,,52,100
4992,note_on,,,,,112,0,12,,,,,5,,,38,100
4992,note_on,,,,,112,0,13,,,,,6,,,62,100
4992,note_on,,,,,112,0,14,,,,,6,,,50,100
4992,note_on,,,,,112,0,11,,,,,4,,,50,100
4992,note_on,,,,,112,0,9,,,,,2,,,62,100
4992,note_on,,,,,112,0,10,,,,,3,,,62,100
4992,note_on,,,,,112,0,8,,,,,1,,,62,100
4992,note_on,,,,,112,0,15,,,,,7,,,62,100
4992,note_on,,,,,112,0,16,,,,,7,,,50,100
5072,note_off,,,,,80,0,12,,,,,5,,,38,100
5072,note_off,,,,,80,0,11,,,,,4,,,50,100
5072,note_off,,,,,80,0,9,,,,,2,,,62,100
5072,note_off,,,,,80,0,15,,,,,7,,,62,100
5072,note_off,,,,,80,0,16,,,,,7,,,50,100
5072,note_off,,,,,80,0,13,,,,,6,,,62,100
5072,note_off,,,,,80,0,10,,,,,3,,,62,100
5072,note_off,,,,,80,0,8,,,,,1,,,62,100
5072,note_off,,,,,80,0,14,,,,,6,,,50,100
5184,note_on,,,,,112,0,11,,,,,4,,,48,100
5184,note_on,,,,,112,0,12,,,,,5,,,36,100
5184,note_on,,,,,112,0,14,,,,,6,,,48,100
5184,note_on,,,,,112,0,16,,,,,7,,,48,100
5184,note_on,,,,,112,0,15,,,,,7,,,60,100
5184,note_on,,,,,112,0,13,,,,,6,,,60,100
5184,note_on,,,,,112,0,10,,,,,3,,,60,100
5184,note_on,,,,,112,0,8,,,,,1,,,60,99
5184,note_on,,,,,112,0,9,,,,,2,,,60,100
5264,note_off,,,,,80,0,11,,,,,4,,,48,100
5264,note_off,,,,,80,0,16,,,,,7,,,48,100
5264,note_off,,,,,80,0,10,,,,,3,,,60,100
5264,note_off,,,,,80,0,12,,,,,5,,,36,100
5264,note_off,,,,,80,0,15,,,,,7,,,60,100
5264,note_off,,,,,80,0,8,,,,,1,,,60,100
5264,note_off,,,,,80,0,14,,,,,6,,,48,100
5264,note_off,,,,,80,0,13,,,,,6,,,60,100
5264,note_off,,,,,80,0,9,,,,,2,,,60,100
5376,note_on,,,,,112,0,12,,,,,5,,,35,100
5376,note_on,,,,,112,0,9,,,,,2,,,59,100
5376,note_on,,,,,112,0,13,,,,,6,,,59,100
5376,note_on,,,,,112,0,11,,,,,4,,,47,100
5376,note_on,,,,,112,0,14,,,,,6,,,47,100
5376,note_on,,,,,112,0,15,,,,,7,,,59,100
5376,note_on,,,,,112,0,16,,,,,7,,,47,100
5376,note_on,,,,,112,0,8,,,,,1,,,59,98
5376,note_on,,,,,112,0,10,,,,,3,,,59,100
5456,note_off,,,,,80,0,16,,,,,7,,,47,100
5456,note_off,,,,,80,0,10,,,,,3,,,59,100
5456,note_off,,,,,80,0,14,,,,,6,,,47,100
5456,note_off,,,,,80,0,9,,,,,2,,,59,100
5456,note_off,,,,,80,0,15,,,,,7,,,59,100
5456,note_off,,,,,80,0,11,,,,,4,,,47,100
5456,note_off,,,,,80,0,13,,,,,6,,,59,100
5456,note_off,,,,,80,0,12,,,,,5,,,35,100
5456,note_off,,,,,80,0,8,,,,,1,,,59,100
5568,note_on,,,,,112,0,14,,,,,6,,,45,100
5568,note_on,,,,,112,0,15,,,,,7,,,57,100
5568,note_on,,,,,112,0,13,,,,,6,,,57,100
5568,note_on,,,,,112,0,9,,,,,2,,,57,100
5568,note_on,,,,,112,0,12,,,,,5,,,33,100
5568,note_on,,,,,112,0,10,,,,,3,,,57,100
5568,note_on,,,,,112,0,16,,,,,7,,,45,100
5568,note_on,,,,,112,0,8,,,,,1,,,57,97
5568,note_on,,,,,112,0,11,,,,,4,,,45,100
5648,note_off,,,,,80,0,14,,,,,6,,,45,100
5648,note_off,,,,,80,0,9,,,,,2,,,57,100
5648,note_off,,,,,80,0,10,,,,,3,,,57,100
5648,note_off,,,,,80,0,8,,,,,1,,,57,100
5648,note_off,,,,,80,0,12,,,,,5,,,33,100
5648,note_off,,,,,80,0,16,,,,,7,,,45,100
5648,note_off,,,,,80,0,15,,,,,7,,,57,100
5648,note_off,,,,,80,0,11,,,,,4,,,45,100
5648,note_off,,,,,80,0,13,,,,,6,,,57,100
5760,note_on,,,,,112,0,8,,,,,1,,,55,96
5760,note_on,,,,,112,0,11,,,,,4,,,43,100
5760,note_on,,,,,112,0,15,,,,,7,,,55,100
5760,note_on,,,,,112,0,16,,,,,7,,,43,100
5760,note_on,,,,,112,0,10,,,,,3,,,55,100
5760,note_on,,,,,112,0,13,,,,,6,,,55,100
5760,note_on,,,,,112,0,12,,,,,5,,,31,100
5760,note_on,,,,,112,0,14,,,,,6,,,43,100
5760,note_on,,,,,112,0,9,,,,,2,,,55,100
5860,note_off,,,,,100,0,8,,,,,1,,,55,100
5952,note_on,,,,,92,0,8,,,,,1,,,67,85
6016,note_off,,,,,256,0,15,,,,,7,,,55,100
6016,note_off,,,,,256,0,14,,,,,6,,,43,100
6016,note_off,,,,,256,0,13,,,,,6,,,55,100
6016,note_off,,,,,256,0,10,,,,,3,,,55,100
6016,note_off,,,,,256,0,11,,,,,4,,,43,100
6016,note_off,,,,,256,0,12,,,,,5,,,31,100
6016,note_off,,,,,256,0,9,,,,,2,,,55,100
6016,note_off,,,,,256,0,16,,,,,7,,,43,100
6032,note_off,,,,,80,0,8,,,,,1,,,67,100
6144,note_on,,,,,112,0,8,,,,,1,,,71,89
6224,note_off,,,,,80,0,8,,,,,1,,,71,100
6336,note_on,,,,,112,0,8,,,,,1,,,74,93
6416,note_off,,,,,80,0,8,,,,,1,,,74,100
6528,note_on,,,,,112,0,8,,,,,1,,,79,97
6608,note_off,,,,,80,0,8,,,,,1,,,79,100
6720,note_on,,,,,112,0,8,,,,,1,,,83,101
6800,note_off,,,,,80,0,8,,,,,1,,,83,100
6912,note_on,,,,,0,0,13,,,,,6,,,74,100
6912,note_on,,,,,896,0,12,,,,,5,,,38,100
6912,note_on,,,,,896,0,14,,,,,6,,,50,100
6912,note_on,,,,,896,0,11,,,,,4,,,50,100
6912,note_on,,,,,0,0,13,,,,,6,,,69,100
6912,note_on,,,,,896,0,15,,,,,7,,,66,100
6912,note_on,,,,,0,0,15,,,,,7,,,69,100
6912,note_on,,,,,0,0,15,,,,,7,,,74,100
6912,note_on,,,,,896,0,9,,,,,2,,,81,100
6912,note_on,,,,,896,0,10,,,,,3,,,69,100
6912,note_on,,,,,896,0,13,,,,,6,,,66,100
6912,note_on,,,,,896,0,16,,,,,7,,,50,100
6912,note_on,,,,,112,0,8,,,,,1,,,78,105
6992,note_off,,,,,80,0,8,,,,,1,,,78,100
6992,note_off,,,,,80,0,9,,,,,2,,,81,100
7104,note_on,,,,,112,0,9,,,,,2,,,78,100
7104,note_on,,,,,112,0,8,,,,,1,,,74,100
7168,note_off,,,,,0,0,13,,,,,6,,,74,100
7168,note_off,,,,,256,0,11,,,,,4,,,50,100
7168,note_off,,,,,256,0,13,,,,,6,,,66,100
7168,note_off,,,,,0,0,13,,,,,6,,,69,100
7168,note_off,,,,,256,0,12,,,,,5,,,38,100
7168,note_off,,,,,256,0,15,,,,,7,,,66,100
7168,note_off,,,,,256,0,10,,,,,3,,,69,100
7168,note_off,,,,,0,0,15,,,,,7,,,69,100
7168,note_off,,,,,256,0,14,,,,,6,,,50,100
7168,note_off,,,,,256,0,16,,,,,7,,,50,100
7168,note_off,,,,,0,0,15,,,,,7,,,74,100
7184,note_off,,,,,80,0,8,,,,,1,,,74,100
7184,note_off,,,,,80,0,9,,,,,2,,,78,100
7296,note_on,,,,,112,0,8,,,,,1,,,78,100
7296,note_on,,,,,112,0,9,,,,,2,,,74,100
7376,note_off,,,,,80,0,8,,,,,1,,,78,100
7376,note_off,,,,,80,0,9,,,,,2,,,74,100
7488,note_on,,,,,320,0,15,,,,,7,,,74,100
7488,note_on,,,,,0,0,15,,,,,7,,,66,100
7488,note_on,,,,,320,0,11,,,,,4,,,62,100
7488,note_on,,,,,112,0,8,,,,,1,,,81,100
7488,note_on,,,,,112,0,9,,,,,2,,,78,100
7488,note_on,,,,,320,0,12,,,,,5,,,50,100
7488,note_on,,,,,320,0,16,,,,,7,,,62,100
7488,note_on,,,,,0,0,15,,,,,7,,,69,100
7488,note_on,,,,,0,0,13,,,,,6,,,69,100
7488,note_on,,,,,320,0,14,,,,,6,,,62,100
7488,note_on,,,,,320,0,13,,,,,6,,,74,100
7488,note_on,,,,,0,0,13,,,,,6,,,66,100
7488,note_on,,,,,320,0,10,,,,,3,,,69,100
7568,note_off,,,,,80,0,14,,,,,6,,,62,100
7568,note_off,,,,,80,0,12,,,,,5,,,50,100
7568,note_off,,,,,80,0,11,,,,,4,,,62,100
7568,note_off,,,,,80,0,16,,,,,7,,,62,100
7568,note_off,,,,,0,0,13,,,,,6,,,66,100
7568,note_off,,,,,80,0,8,,,,,1,,,81,100
7568,note_off,,,,,0,0,13,,,,,6,,,69,100
7568,note_off,,,,,0,0,15,,,,,7,,,69,100
7568,note_off,,,,,80,0,10,,,,,3,,,69,100
7568,note_off,,,,,80,0,15,,,,,7,,,74,100
7568,note_off,,,,,0,0,15,,,,,7,,,66,100
7568,note_off,,,,,80,0,13,,,,,6,,,74,100
7568,note_off,,,,,80,0,9,,,,,2,,,78,100
7680,note_on,,,,,112,0,9,,,,,2,,,81,100
7680,note_on,,,,,0,0,13,,,,,6,,,69,100
7680,note_on,,,,,0,0,13,,,,,6,,,64,100
7680,note_on,,,,,112,0,13,,,,,6,,,73,100
7680,note_on,,,,,112,0,14,,,,,6,,,61,100
7680,note_on,,,,,0,0,15,,,,,7,,,64,100
7680,note_on,,,,,0,0,15,,,,,7,,,69,100
7680,note_on,,,,,112,0,15,,,,,7,,,73,100
7680,note_on,,,,,112,0,16,,,,,7,,,61,100
7680,note_on,,,,,112,0,10,,,,,3,,,69,100
7680,note_on,,,,,112,0,8,,,,,1,,,76,100
7680,note_on,,,,,112,0,11,,,,,4,,,61,100
7680,note_on,,,,,112,0,12,,,,,5,,,49,100
7760,note_off,,,,,0,0,15,,,,,7,,,69,100
7760,note_off,,,,,0,0,13,,,,,6,,,64,100
7760,note_off,,,,,80,0,13,,,,,6,,,73,100
7760,note_off,,,,,80,0,16,,,,,7,,,61,100
7760,note_off,,,,,80,0,10,,,,,3,,,69,100
7760,note_off,,,,,80,0,8,,,,,1,,,76,100
7760,note_off,,,,,80,0,11,,,,,4,,,61,100
7760,note_off,,,,,0,0,13,,,,,6,,,69,100
7760,note_off,,,,,80,0,12,,,,,5,,,49,100
7760,note_off,,,,,0,0,15,,,,,7,,,64,100
7760,note_off,,,,,80,0,14,,,,,6,,,61,100
7760,note_off,,,,,80,0,15,,,,,7,,,73,100
7760,note_off,,,,,80,0,9,,,,,2,,,81,100
7872,note_on,,,,,0,0,13,,,,,6,,,64,100
7872,note_on,,,,,0,0,13,,,,,6,,,69,100
7872,note_on,,,,,112,0,15,,,,,7,,,73,100
7872,note_on,,,,,0,0,15,,,,,7,,,64,100
7872,note_on,,,,,0,0,15,,,,,7,,,69,100
7872,note_on,,,,,112,0,9,,,,,2,,,76,100
7872,note_on,,,,,112,0,10,,,,,3,,,69,100
7872,note_on,,,,,112,0,14,,,,,6,,,61,100
7872,note_on,,,,,112,0,16,,,,,7,,,61,100
7872,note_on,,,,,112,0,13,,,,,6,,,73,100
7872,note_on,,,,,112,0,12,,,,,5,,,49,100
7872,note_on,,,,,112,0,11,,,,,4,,,61,100
7872,note_on,,,,,112,0,8,,,,,1,,,81,100
7952,note_off,,,,,80,0,14,,,,,6,,,61,100
7952,note_off,,,,,80,0,10,,,,,3,,,69,100
7952,note_off,,,,,80,0,8,,,,,1,,,81,100
7952,note_off,,,,,0,0,13,,,,,6,,,64,100
7952,note_off,,,,,0,0,13,,,,,6,,,69,100
7952,note_off,,,,,80,0,15,,,,,7,,,73,100
7952,note_off,,,,,0,0,15,,,,,7,,,64,100
7952,note_off,,,,,80,0,12,,,,,5,,,49,100
7952,note_off,,,,,80,0,9,,,,,2,,,76,100
7952,note_off,,,,,0,0,15,,,,,7,,,69,100
7952,note_off,,,,,80,0,16,,,,,7,,,61,100
7952,note_off,,,,,80,0,13,,,,,6,,,73,100
7952,note_off,,,,,80,0,11,,,,,4,,,61,100
8064,note_on,,,,,112,0,14,,,,,6,,,62,100
8064,note_on,,,,,112,0,15,,,,,7,,,66,100
8064,note_on,,,,,0,0,15,,,,,7,,,69,100
8064,note_on,,,,,112,0,11,,,,,4,,,62,95
8064,note_on,,,,,0,0,15,,,,,7,,,74,100
8064,note_on,,,,,112,0,16,,,,,7,,,62,100
8064,note_on,,,,,112,0,10,,,,,3,,,69,95
8064,note_on,,,,,112,0,9,,,,,2,,,81,92
8064,note_on,,,,,0,0,13,,,,,6,,,74,100
8064,note_on,,,,,0,0,13,,,,,6,,,69,100
8064,note_on,,,,,112,0,13,,,,,6,,,66,100
8064,note_on,,,,,112,0,8,,,,,1,,,78,92
8064,note_on,,,,,112,0,12,,,,,5,,,50,95
8144,note_off,,,,,80,0,9,,,,,2,,,81,100
8144,note_off,,,,,80,0,8,,,,,1,,,78,100
8256,note_on,,,,,112,0,8,,,,,1,,,74,70
8256,note_on,,,,,112,0,9,,,,,2,,,78,70
8320,note_off,,,,,256,0,12,,,,,5,,,50,100
8320,note_off,,,,,0,0,15,,,,,7,,,74,100
8320,note_off,,,,,0,0,15,,,,,7,,,69,100
8320,note_off,,,,,256,0,15,,,,,7,,,66,100
8320,note_off,,,,,256,0,10,,,,,3,,,69,100
8320,note_off,,,,,256,0,16,,,,,7,,,62,100
8320,note_off,,,,,256,0,14,,,,,6,,,62,100
8320,note_off,,,,,256,0,11,,,,,4,,,62,100
8320,note_off,,,,,256,0,13,,,,,6,,,66,100
8320,note_off,,,,,0,0,13,,,,,6,,,74,100
8320,note_off,,,,,0,0,13,,,,,6,,,69,100
8336,note_off,,,,,80,0,9,,,,,2,,,78,100
8336,note_off,,,,,80,0,8,,,,,1,,,74,100
8448,note_on,,,,,112,0,8,,,,,1,,,78,70
8448,note_on,,,,,112,0,9,,,,,2,,,74,70
8528,note_off,,,,,80,0,8,,,,,1,,,78,100
8528,note_off,,,,,80,0,9,,,,,2,,,74,100
8640,note_on,,,,,0,0,15,,,,,7,,,69,100
8640,note_on,,,,,320,0,15,,,,,7,,,66,100
8640,note_on,,,,,112,0,9,,,,,2,,,78,70
8640,note_on,,,,,0,0,13,,,,,6,,,69,100
8640,note_on,,,,,320,0,12,,,,,5,,,50,70
8640,note_on,,,,,320,0,16,,,,,7,,,62,100
8640,note_on,,,,,320,0,14,,,,,6,,,62,100
8640,note_on,,,,,320,0,10,,,,,3,,,69,70
8640,note_on,,,,,320,0,13,,,,,6,,,66,100
8640,note_on,,,,,320,0,11,,,,,4,,,62,70
8640,note_on,,,,,112,0,8,,,,,1,,,81,70
8720,note_off,,,,,80,0,9,,,,,2,,,78,100
8720,note_off,,,,,80,0,15,,,,,7,,,66,100
8720,note_off,,,,,0,0,15,,,,,7,,,69,100
8720,note_off,,,,,80,0,12,,,,,5,,,50,100
8720,note_off,,,,,0,0,13,,,,,6,,,69,100
8720,note_off,,,,,80,0,14,,,,,6,,,62,100
8720,note_off,,,,,80,0,8,,,,,1,,,81,100
8720,note_off,,,,,80,0,13,,,,,6,,,66,100
8720,note_off,,,,,80,0,10,,,,,3,,,69,100
8720,note_off,,,,,80,0,16,,,,,7,,,62,100
8720,note_off,,,,,80,0,11,,,,,4,,,62,100
8832,note_on,,,,,112,0,14,,,,,6,,,61,100
8832,note_on,,,,,112,0,13,,,,,6,,,64,100
8832,note_on,,,,,0,0,13,,,,,6,,,69,100
8832,note_on,,,,,112,0,8,,,,,1,,,76,70
8832,note_on,,,,,112,0,12,,,,,5,,,49,70
8832,note_on,,,,,112,0,9,,,,,2,,,81,70
8832,note_on,,,,,112,0,11,,,,,4,,,61,70
8832,note_on,,,,,112,0,16,,,,,7,,,61,100
8832,note_on,,,,,0,0,15,,,,,7,,,69,100
8832,note_on,,,,,112,0,15,,,,,7,,,64,100
8832,note_on,,,,,112,0,10,,,,,3,,,69,70
8912,note_off,,,,,80,0,16,,,,,7,,,61,100
8912,note_off,,,,,80,0,14,,,,,6,,,61,100
8912,note_off,,,,,0,0,15,,,,,7,,,69,100
8912,note_off,,,,,80,0,13,,,,,6,,,64,100
8912,note_off,,,,,0,0,13,,,,,6,,,69,100
8912,note_off,,,,,80,0,15,,,,,7,,,64,100
8912,note_off,,,,,80,0,11,,,,,4,,,61,100
8912,note_off,,,,,80,0,12,,,,,5,,,49,100
8912,note_off,,,,,80,0,9,,,,,2,,,81,100
8912,note_off,,,,,80,0,10,,,,,3,,,69,100
8912,note_off,,,,,80,0,8,,,,,1,,,76,100
9024,note_on,,,,,112,0,13,,,,,6,,,64,100
9024,note_on,,,,,112,0,10,,,,,3,,,69,70
9024,note_on,,,,,112,0,15,,,,,7,,,64,100
9024,note_on,,,,,0,0,15,,,,,7,,,69,100
9024,note_on,,,,,112,0,11,,,,,4,,,61,70
9024,note_on,,,,,112,0,12,,,,,5,,,49,70
9024,note_on,,,,,0,0,13,,,,,6,,,69,100
9024,note_on,,,,,112,0,9,,,,,2,,,76,70
9024,note_on,,,,,112,0,14,,,,,6,,,61,100
9024,note_on,,,,,112,0,8,,,,,1,,,81,70
9024,note_on,,,,,112,0,16,,,,,7,,,61,100
9104,note_off,,,,,80,0,9,,,,,2,,,76,100
9104,note_off,,,,,80,0,11,,,,,4,,,61,100
9104,note_off,,,,,80,0,16,,,,,7,,,61,100
9104,note_off,,,,,80,0,12,,,,,5,,,49,100
9104,note_off,,,,,80,0,10,,,,,3,,,69,100
9104,note_off,,,,,80,0,8,,,,,1,,,81,100
9104,note_off,,,,,80,0,14,,,,,6,,,61,100
9104,note_off,,,,,0,0,15,,,,,7,,,69,100
9104,note_off,,,,,0,0,13,,,,,6,,,69,100
9104,note_off,,,,,80,0,13,,,,,6,,,64,100
9104,note_off,,,,,80,0,15,,,,,7,,,64,100
9216,note_on,,,,,112,0,8,,,,,1,,,78,79
9216,note_on,,,,,0,0,13,,,,,6,,,69,100
9216,note_on,,,,,112,0,13,,,,,6,,,66,100
9216,note_on,,,,,112,0,12,,,,,5,,,50,75
9216,note_on,,,,,112,0,11,,,,,4,,,62,75
9216,note_on,,,,,112,0,15,,,,,7,,,66,100
9216,note_on,,,,,0,0,15,,,,,7,,,69,100
9216,note_on,,,,,112,0,9,,,,,2,,,81,79
9216,note_on,,,,,112,0,14,,,,,6,,,62,100
9216,note_on,,,,,112,0,16,,,,,7,,,62,100
9216,note_on,,,,,112,0,10,,,,,3,,,69,75
9296,note_off,,,,,80,0,8,,,,,1,,,78,100
9296,note_off,,,,,80,0,9,,,,,2,,,81,100
9408,note_on,,,,,112,0,8,,,,,1,,,74,100
9408,note_on,,,,,112,0,9,,,,,2,,,78,100
9472,note_off,,,,,0,0,15,,,,,7,,,69,100
9472,note_off,,,,,256,0,15,,,,,7,,,66,100
9472,note_off,,,,,256,0,14,,,,,6,,,62,100
9472,note_off,,,,,256,0,13,,,,,6,,,66,100
9472,note_off,,,,,0,0,13,,,,,6,,,69,100
9472,note_off,,,,,256,0,12,,,,,5,,,50,100
9472,note_off,,,,,256,0,11,,,,,4,,,62,100
9472,note_off,,,,,256,0,16,,,,,7,,,62,100
9472,note_off,,,,,256,0,10,,,,,3,,,69,100
9488,note_off,,,,,80,0,8,,,,,1,,,74,100
9488,note_off,,,,,80,0,9,,,,,2,,,78,100
9600,note_on,,,,,112,0,8,,,,,1,,,78,100
9600,note_on,,,,,112,0,9,,,,,2,,,74,100
9680,note_off,,,,,80,0,8,,,,,1,,,78,100
9680,note_off,,,,,80,0,9,,,,,2,,,74,100
9792,note_on,,,,,0,0,15,,,,,7,,,69,100
9792,note_on,,,,,320,0,10,,,,,3,,,69,100
9792,note_on,,,,,0,0,14,,,,,6,,,62,100
9792,note_on,,,,,320,0,15,,,,,7,,,74,100
9792,note_on,,,,,112,0,9,,,,,2,,,78,100
9792,note_on,,,,,320,0,11,,,,,4,,,62,100
9792,note_on,,,,,320,0,16,,,,,7,,,62,100
9792,note_on,,,,,320,0,12,,,,,5,,,50,100
9792,note_on,,,,,112,0,8,,,,,1,,,81,100
9792,note_on,,,,,0,0,13,,,,,6,,,69,100
9792,note_on,,,,,0,0,15,,,,,7,,,66,100
9792,note_on,,,,,320,0,14,,,,,6,,,62,100
9792,note_on,,,,,320,0,13,,,,,6,,,74,100
9792,note_on,,,,,0,0,13,,,,,6,,,66,100
9872,note_off,,,,,80,0,11,,,,,4,,,62,100
9872,note_off,,,,,0,0,15,,,,,7,,,66,100
9872,note_off,,,,,80,0,8,,,,,1,,,81,100
9872,note_off,,,,,80,0,16,,,,,7,,,62,100
9872,note_off,,,,,80,0,9,,,,,2,,,78,100
9872,note_off,,,,,80,0,10,,,,,3,,,69,100
9872,note_off,,,,,80,0,12,,,,,5,,,50,100
9872,note_off,,,,,80,0,15,,,,,7,,,74,100
9872,note_off,,,,,0,0,13,,,,,6,,,69,100
9872,note_off,,,,,0,0,15,,,,,7,,,69,100
9872,note_off,,,,,0,0,13,,,,,6,,,66,100
9872,note_off,,,,,80,0,13,,,,,6,,,74,100
9872,note_off,,,,,0,0,14,,,,,6,,,62,100
9872,note_off,,,,,80,0,14,,,,,6,,,62,100
9984,note_on,,,,,0,0,15,,,,,7,,,64,100
9984,note_on,,,,,0,0,15,,,,,7,,,69,100
9984,note_on,,,,,112,0,12,,,,,5,,,49,100
9984,note_on,,,,,112,0,11,,,,,4,,,61,100
9984,note_on,,,,,112,0,16,,,,,7,,,61,100
9984,note_on,,,,,112,0,8,,,,,1,,,76,100
9984,note_on,,,,,112,0,10,,,,,3,,,69,100
9984,note_on,,,,,112,0,13,,,,,6,,,73,100
9984,note_on,,,,,0,0,13,,,,,6,,,64,100
9984,note_on,,,,,0,0,13,,,,,6,,,69,100
9984,note_on,,,,,112,0,9,,,,,2,,,81,100
9984,note_on,,,,,0,0,14,,,,,6,,,61,100
9984,note_on,,,,,112,0,14,,,,,6,,,61,100
9984,note_on,,,,,112,0,15,,,,,7,,,73,100
10064,note_off,,,,,0,0,13,,,,,6,,,69,100
10064,note_off,,,,,80,0,16,,,,,7,,,61,100
10064,note_off,,,,,0,0,13,,,,,6,,,64,100
10064,note_off,,,,,80,0,12,,,,,5,,,49,100
10064,note_off,,,,,80,0,11,,,,,4,,,61,100
10064,note_off,,,,,80,0,13,,,,,6,,,73,100
10064,note_off,,,,,80,0,10,,,,,3,,,69,100
10064,note_off,,,,,80,0,15,,,,,7,,,73,100
10064,note_off,,,,,0,0,15,,,,,7,,,64,100
10064,note_off,,,,,0,0,15,,,,,7,,,69,100
10064,note_off,,,,,80,0,9,,,,,2,,,81,100
10064,note_off,,,,,80,0,8,,,,,1,,,76,100
10064,note_off,,,,,80,0,14,,,,,6,,,61,100
10064,note_off,,,,,0,0,14,,,,,6,,,61,100
10176,note_on,,,,,112,0,11,,,,,4,,,61,100
10176,note_on,,,,,112,0,13,,,,,6,,,73,100
10176,note_on,,,,,0,0,14,,,,,6,,,61,100
10176,note_on,,,,,112,0,8,,,,,1,,,81,100
10176,note_on,,,,,112,0,15,,,,,7,,,73,100
10176,note_on,,,,,0,0,13,,,,,6,,,64,100
10176,note_on,,,,,112,0,16,,,,,7,,,61,100
10176,note_on,,,,,112,0,14,,,,,6,,,61,100
10176,note_on,,,,,0,0,13,,,,,6,,,69,100
10176,note_on,,,,,0,0,15,,,,,7,,,64,100
10176,note_on,,,,,112,0,9,,,,,2,,,76,100
10176,note_on,,,,,0,0,15,,,,,7,,,69,100
10176,note_on,,,,,112,0,10,,,,,3,,,69,100
10176,note_on,,,,,112,0,12,,,,,5,,,49,100
10256,note_off,,,,,80,0,12,,,,,5,,,49,100
10256,note_off,,,,,0,0,15,,,,,7,,,69,100
10256,note_off,,,,,80,0,13,,,,,6,,,73,100
10256,note_off,,,,,0,0,13,,,,,6,,,64,100
10256,note_off,,,,,0,0,13,,,,,6,,,69,100
10256,note_off,,,,,0,0,15,,,,,7,,,64,100
10256,note_off,,,,,80,0,15,,,,,7,,,73,100
10256,note_off,,,,,80,0,8,,,,,1,,,81,100
10256,note_off,,,,,80,0,10,,,,,3,,,69,100
10256,note_off,,,,,80,0,11,,,,,4,,,61,100
10256,note_off,,,,,80,0,9,,,,,2,,,76,100
10256,note_off,,,,,0,0,14,,,,,6,,,61,100
10256,note_off,,,,,80,0,14,,,,,6,,,61,100
10256,note_off,,,,,80,0,16,,,,,7,,,61,100
10368,note_on,,,,,112,0,16,,,,,7,,,62,100
10368,note_on,,,,,0,0,15,,,,,7,,,69,100
10368,note_on,,,,,112,0,8,,,,,1,,,78,100
10368,note_on,,,,,112,0,12,,,,,5,,,50,100
10368,note_on,,,,,112,0,11,,,,,4,,,62,100
10368,note_on,,,,,112,0,10,,,,,3,,,69,100
10368,note_on,,,,,112,0,14,,,,,6,,,62,100
10368,note_on,,,,,112,0,15,,,,,7,,,66,100
10368,note_on,,,,,0,0,15,,,,,7,,,74,100
10368,note_on,,,,,112,0,9,,,,,2,,,81,100
10368,note_on,,,,,0,0,13,,,,,6,,,74,100
10368,note_on,,,,,0,0,13,,,,,6,,,69,100
10368,note_on,,,,,112,0,13,,,,,6,,,66,100
10448,note_off,,,,,80,0,8,,,,,1,,,78,100
10448,note_off,,,,,80,0,14,,,,,6,,,62,100
10448,note_off,,,,,80,0,12,,,,,5,,,50,100
10448,note_off,,,,,80,0,16,,,,,7,,,62,100
10448,note_off,,,,,80,0,10,,,,,3,,,69,100
10448,note_off,,,,,80,0,9,,,,,2,,,81,100
10448,note_off,,,,,80,0,11,,,,,4,,,62,100
10468,note_off,,,,,0,0,13,,,,,6,,,69,100
10468,note_off,,,,,0,0,13,,,,,6,,,74,100
10468,note_off,,,,,100,0,13,,,,,6,,,66,100
10468,note_off,,,,,0,0,15,,,,,7,,,74,100
10468,note_off,,,,,0,0,15,,,,,7,,,69,100
10468,note_off,,,,,100,0,15,,,,,7,,,66,100
10560,note_on,,,,,92,0,13,,,,,6,,,74,100
10560,note_on,,,,,112,0,9,,,,,2,,,74,90
10560,note_on,,,,,112,0,11,,,,,4,,,62,90
10560,note_on,,,,,112,0,12,,,,,5,,,50,90
10560,note_on,,,,,112,0,10,,,,,3,,,74,90
10560,note_on,,,,,112,0,16,,,,,7,,,62,100
10560,note_on,,,,,112,0,14,,,,,6,,,62,100
10560,note_on,,,,,92,0,15,,,,,7,,,74,100
10560,note_on,,,,,112,0,8,,,,,1,,,74,90
10640,note_off,,,,,80,0,13,,,,,6,,,74,100
10640,note_off,,,,,80,0,9,,,,,2,,,74,100
10640,note_off,,,,,80,0,12,,,,,5,,,50,100
10640,note_off,,,,,80,0,11,,,,,4,,,62,100
10640,note_off,,,,,80,0,14,,,,,6,,,62,100
10640,note_off,,,,,80,0,16,,,,,7,,,62,100
10640,note_off,,,,,80,0,10,,,,,3,,,74,100
10640,note_off,,,,,80,0,8,,,,,1,,,74,100
10640,note_off,,,,,80,0,15,,,,,7,,,74,100
10752,note_on,,,,,112,0,11,,,,,4,,,62,92
10752,note_on,,,,,112,0,9,,,,,2,,,74,92
10752,note_on,,,,,112,0,16,,,,,7,,,62,100
10752,note_on,,,,,112,0,12,,,,,5,,,50,92
10752,note_on,,,,,112,0,14,,,,,6,,,62,100
10752,note_on,,,,,112,0,13,,,,,6,,,74,100
10752,note_on,,,,,112,0,15,,,,,7,,,74,100
10752,note_on,,,,,112,0,8,,,,,1,,,74,92
10752,note_on,,,,,112,0,10,,,,,3,,,74,92
10832,note_off,,,,,80,0,14,,,,,6,,,62,100
10832,note_off,,,,,80,0,9,,,,,2,,,74,100
10832,note_off,,,,,80,0,10,,,,,3,,,74,100
10832,note_off,,,,,80,0,16,,,,,7,,,62,100
10832,note_off,,,,,80,0,8,,,,,1,,,74,100
10832,note_off,,,,,80,0,11,,,,,4,,,62,100
10832,note_off,,,,,80,0,13,,,,,6,,,74,100
10832,note_off,,,,,80,0,15,,,,,7,,,74,100
10832,note_off,,,,,80,0,12,,,,,5,,,50,100
10944,note_on,,,,,112,0,10,,,,,3,,,74,94
10944,note_on,,,,,112,0,14,,,,,6,,,62,100
10944,note_on,,,,,112,0,11,,,,,4,,,62,94
10944,note_on,,,,,112,0,13,,,,,6,,,74,100
10944,note_on,,,,,112,0,9,,,,,2,,,74,94
10944,note_on,,,,,112,0,16,,,,,7,,,62,100
10944,note_on,,,,,112,0,12,,,,,5,,,50,94
10944,note_on,,,,,112,0,15,,,,,7,,,74,100
10944,note_on,,,,,112,0,8,,,,,1,,,74,94
11024,note_off,,,,,80,0,13,,,,,6,,,74,100
11024,note_off,,,,,80,0,12,,,,,5,,,50,100
11024,note_off,,,,,80,0,14,,,,,6,,,62,100
11024,note_off,,,,,80,0,15,,,,,7,,,74,100
11024,note_off,,,,,80,0,8,,,,,1,,,74,100
11024,note_off,,,,,80,0,9,,,,,2,,,74,100
11024,note_off,,,,,80,0,11,,,,,4,,,62,100
11024,note_off,,,,,80,0,10,,,,,3,,,74,100
11024,note_off,,,,,80,0,16,,,,,7,,,62,100
11136,note_on,,,,,112,0,11,,,,,4,,,62,96
11136,note_on,,,,,112,0,15,,,,,7,,,74,100
11136,note_on,,,,,112,0,10,,,,,3,,,74,96
11136,note_on,,,,,112,0,13,,,,,6,,,74,100
11136,note_on,,,,,112,0,12,,,,,5,,,50,96
11136,note_on,,,,,112,0,9,,,,,2,,,74,96
11136,note_on,,,,,112,0,8,,,,,1,,,74,96
11136,note_on,,,,,112,0,14,,,,,6,,,62,100
11136,note_on,,,,,112,0,16,,,,,7,,,62,100
11216,note_off,,,,,80,0,14,,,,,6,,,62,100
11216,note_off,,,,,80,0,13,,,,,6,,,74,100
11216,note_off,,,,,80,0,9,,,,,2,,,74,100
11216,note_off,,,,,80,0,16,,,,,7,,,62,100
11216,note_off,,,,,80,0,11,,,,,4,,,62,100
11216,note_off,,,,,80,0,10,,,,,3,,,74,100
11216,note_off,,,,,80,0,12,,,,,5,,,50,100
11216,note_off,,,,,80,0,15,,,,,7,,,74,100
11216,note_off,,,,,80,0,8,,,,,1,,,74,100
11328,note_on,,,,,112,0,15,,,,,7,,,74,100
11328,note_on,,,,,112,0,13,,,,,6,,,74,100
11328,note_on,,,,,112,0,11,,,,,4,,,62,98
11328,note_on,,,,,112,0,14,,,,,6,,,62,100
11328,note_on,,,,,112,0,16,,,,,7,,,62,100
11328,note_on,,,,,112,0,9,,,,,2,,,74,98
11328,note_on,,,,,112,0,10,,,,,3,,,74,98
11328,note_on,,,,,112,0,8,,,,,1,,,74,98
11328,note_on,,,,,112,0,12,,,,,5,,,50,98
11408,note_off,,,,,80,0,13,,,,,6,,,74,100
11408,note_off,,,,,80,0,9,,,,,2,,,74,100
11408,note_off,,,,,80,0,8,,,,,1,,,74,100
11408,note_off,,,,,80,0,16,,,,,7,,,62,100
11408,note_off,,,,,80,0,10,,,,,3,,,74,100
11408,note_off,,,,,80,0,12,,,,,5,,,50,100
11408,note_off,,,,,80,0,11,,,,,4,,,62,100
11408,note_off,,,,,80,0,15,,,,,7,,,74,100
11408,note_off,,,,,80,0,14,,,,,6,,,62,100
11520,note_on,,,,,112,0,14,,,,,6,,,61,100
11520,note_on,,,,,112,0,11,,,,,4,,,61,102
11520,note_on,,,,,112,0,9,,,,,2,,,73,102
11520,note_on,,,,,112,0,13,,,,,6,,,73,100
11520,note_on,,,,,112,0,16,,,,,7,,,61,100
11520,note_on,,,,,112,0,8,,,,,1,,,73,102
11520,note_on,,,,,112,0,12,,,,,5,,,49,102
11520,note_on,,,,,112,0,10,,,,,3,,,73,102
11520,note_on,,,,,112,0,15,,,,,7,,,73,100
11600,note_off,,,,,80,0,15,,,,,7,,,73,100
11600,note_off,,,,,80,0,9,,,,,2,,,73,100
11600,note_off,,,,,80,0,12,,,,,5,,,49,100
11600,note_off,,,,,80,0,16,,,,,7,,,61,100
11600,note_off,,,,,80,0,10,,,,,3,,,73,100
11600,note_off,,,,,80,0,13,,,,,6,,,73,100
11600,note_off,,,,,80,0,11,,,,,4,,,61,100
11600,note_off,,,,,80,0,8,,,,,1,,,73,100
11600,note_off,,,,,80,0,14,,,,,6,,,61,100
11712,note_on,,,,,112,0,13,,,,,6,,,71,100
11712,note_on,,,,,112,0,8,,,,,1,,,71,101
11712,note_on,,,,,112,0,11,,,,,4,,,59,101
11712,note_on,,,,,112,0,14,,,,,6,,,59,100
11712,note_on,,,,,112,0,10,,,,,3,,,71,101
11712,note_on,,,,,112,0,9,,,,,2,,,71,101
11712,note_on,,,,,112,0,12,,,,,5,,,47,101
11712,note_on,,,,,112,0,16,,,,,7,,,59,100
11712,note_on,,,,,112,0,15,,,,,7,,,71,100
11792,note_off,,,,,80,0,10,,,,,3,,,71,100
11792,note_off,,,,,80,0,15,,,,,7,,,71,100
11792,note_off,,,,,80,0,14,,,,,6,,,59,100
11792,note_off,,,,,80,0,8,,,,,1,,,71,100
11792,note_off,,,,,80,0,11,,,,,4,,,59,100
11792,note_off,,,,,80,0,16,,,,,7,,,59,100
11792,note_off,,,,,80,0,13,,,,,6,,,71,100
11792,note_off,,,,,80,0,12,,,,,5,,,47,100
11792,note_off,,,,,80,0,9,,,,,2,,,71,100
11904,note_on,,,,,112,0,12,,,,,5,,,45,100
11904,note_on,,,,,112,0,14,,,,,6,,,57,100
11904,note_on,,,,,112,0,15,,,,,7,,,69,100
11904,note_on,,,,,112,0,11,,,,,4,,,57,100
11904,note_on,,,,,112,0,10,,,,,3,,,69,100
11904,note_on,,,,,112,0,16,,,,,7,,,57,100
11904,note_on,,,,,112,0,13,,,,,6,,,69,100
11904,note_on,,,,,112,0,8,,,,,1,,,69,100
11904,note_on,,,,,112,0,9,,,,,2,,,69,100
11984,note_off,,,,,80,0,9,,,,,2,,,69,100
11984,note_off,,,,,80,0,13,,,,,6,,,69,100
11984,note_off,,,,,80,0,14,,,,,6,,,57,100
11984,note_off,,,,,80,0,12,,,,,5,,,45,100
11984,note_off,,,,,80,0,8,,,,,1,,,69,100
11984,note_off,,,,,80,0,16,,,,,7,,,57,100
11984,note_off,,,,,80,0,11,,,,,4,,,57,100
11984,note_off,,,,,80,0,15,,,,,7,,,69,100
11984,note_off,,,,,80,0,10,,,,,3,,,69,100
12096,note_on,,,,,112,0,12,,,,,5,,,43,99
12096,note_on,,,,,112,0,13,,,,,6,,,67,100
12096,note_on,,,,,112,0,11,,,,,4,,,55,99
12096,note_on,,,,,112,0,8,,,,,1,,,67,99
12096,note_on,,,,,112,0,16,,,,,7,,,55,100
12096,note_on,,,,,112,0,9,,,,,2,,,67,99
12096,note_on,,,,,112,0,10,,,,,3,,,67,99
12096,note_on,,,,,112,0,14,,,,,6,,,55,100
12096,note_on,,,,,112,0,15,,,,,7,,,67,100
12176,note_off,,,,,80,0,12,,,,,5,,,43,100
12176,note_off,,,,,80,0,10,,,,,3,,,67,100
12176,note_off,,,,,80,0,8,,,,,1,,,67,100
12176,note_off,,,,,80,0,16,,,,,7,,,55,100
12176,note_off,,,,,80,0,13,,,,,6,,,67,100
12176,note_off,,,,,80,0,11,,,,,4,,,55,100
12176,note_off,,,,,80,0,9,,,,,2,,,67,100
12176,note_off,,,,,80,0,14,,,,,6,,,55,100
12176,note_off,,,,,80,0,15,,,,,7,,,67,100
12288,note_on,,,,,112,0,15,,,,,7,,,66,100
12288,note_on,,,,,112,0,11,,,,,4,,,54,97
12288,note_on,,,,,112,0,9,,,,,2,,,66,97
12288,note_on,,,,,112,0,8,,,,,1,,,66,97
12288,note_on,,,,,112,0,14,,,,,6,,,54,100
12288,note_on,,,,,112,0,12,,,,,5,,,42,97
12288,note_on,,,,,112,0,13,,,,,6,,,66,100
12288,note_on,,,,,112,0,10,,,,,3,,,66,97
12288,note_on,,,,,112,0,16,,,,,7,,,54,100
12368,note_off,,,,,80,0,10,,,,,3,,,66,100
12368,note_off,,,,,80,0,15,,,,,7,,,66,100
12368,note_off,,,,,80,0,13,,,,,6,,,66,100
12368,note_off,,,,,80,0,16,,,,,7,,,54,100
12368,note_off,,,,,80,0,14,,,,,6,,,54,100
12368,note_off,,,,,80,0,12,,,,,5,,,42,100
12368,note_off,,,,,80,0,9,,,,,2,,,66,100
12368,note_off,,,,,80,0,8,,,,,1,,,66,100
12368,note_off,,,,,80,0,11,,,,,4,,,54,100
12480,note_on,,,,,112,0,12,,,,,5,,,40,96
12480,note_on,,,,,112,0,15,,,,,7,,,64,100
12480,note_on,,,,,112,0,11,,,,,4,,,52,96
12480,note_on,,,,,112,0,14,,,,,6,,,52,100
12480,note_on,,,,,112,0,9,,,,,2,,,64,96
12480,note_on,,,,,112,0,10,,,,,3,,,64,96
12480,note_on,,,,,112,0,16,,,,,7,,,52,100
12480,note_on,,,,,112,0,13,,,,,6,,,64,100
12480,note_on,,,,,112,0,8,,,,,1,,,64,96
12560,note_off,,,,,80,0,9,,,,,2,,,64,100
12560,note_off,,,,,80,0,14,,,,,6,,,52,100
12560,note_off,,,,,80,0,15,,,,,7,,,64,100
12560,note_off,,,,,80,0,12,,,,,5,,,40,100
12560,note_off,,,,,80,0,11,,,,,4,,,52,100
12560,note_off,,,,,80,0,13,,,,,6,,,64,100
12560,note_off,,,,,80,0,10,,,,,3,,,64,100
12560,note_off,,,,,80,0,16,,,,,7,,,52,100
12560,note_off,,,,,80,0,8,,,,,1,,,64,100
12672,note_on,,,,,112,0,12,,,,,5,,,38,95
12672,note_on,,,,,112,0,14,,,,,6,,,50,100
12672,note_on,,,,,112,0,16,,,,,7,,,50,100
12672,note_on,,,,,112,0,8,,,,,1,,,62,95
12672,note_on,,,,,112,0,10,,,,,3,,,62,95
12672,note_on,,,,,112,0,11,,,,,4,,,50,95
12672,note_on,,,,,112,0,13,,,,,6,,,62,100
12672,note_on,,,,,112,0,15,,,,,7,,,62,100
12672,note_on,,,,,112,0,9,,,,,2,,,62,95
12860,note_off,,,,,188,0,8,,,,,1,,,62,100
12864,note_on,,,,,4,0,8,,,,,1,,,66,91
12928,note_off,,,,,256,0,14,,,,,6,,,50,100
12928,note_off,,,,,256,0,9,,,,,2,,,62,100
12928,note_off,,,,,256,0,16,,,,,7,,,50,100
12928,note_off,,,,,256,0,10,,,,,3,,,62,100
12928,note_off,,,,,256,0,12,,,,,5,,,38,100
12928,note_off,,,,,256,0,13,,,,,6,,,62,100
12928,note_off,,,,,256,0,11,,,,,4,,,50,100
13052,note_off,,,,,188,0,8,,,,,1,,,66,100
13056,note_on,,,,,4,0,8,,,,,1,,,69,86
13156,note_off,,,,,100,0,8,,,,,1,,,69,100
13248,note_on,,,,,320,0,11,,,,,4,,,50,85
13248,note_on,,,,,320,0,13,,,,,6,,,66,100
13248,note_on,,,,,0,0,13,,,,,6,,,69,100
13248,note_on,,,,,320,0,16,,,,,7,,,50,100
13248,note_on,,,,,320,0,14,,,,,6,,,50,100
13248,note_on,,,,,92,0,8,,,,,1,,,74,85
13248,note_on,,,,,320,0,12,,,,,5,,,38,85
13328,note_off,,,,,80,0,16,,,,,7,,,50,100
13328,note_off,,,,,80,0,11,,,,,4,,,50,100
13328,note_off,,,,,80,0,8,,,,,1,,,74,100
13328,note_off,,,,,80,0,14,,,,,6,,,50,100
13328,note_off,,,,,80,0,12,,,,,5,,,38,100
13328,note_off,,,,,0,0,13,,,,,6,,,69,100
13328,note_off,,,,,80,0,13,,,,,6,,,66,100
13440,note_on,,,,,112,0,11,,,,,4,,,48,85
13440,note_on,,,,,112,0,14,,,,,6,,,48,100
13440,note_on,,,,,112,0,13,,,,,6,,,62,100
13440,note_on,,,,,112,0,8,,,,,1,,,78,85
13440,note_on,,,,,0,0,15,,,,,7,,,66,100
13440,note_on,,,,,768,0,15,,,,,7,,,69,100
13440,note_on,,,,,0,0,13,,,,,6,,,69,100
13440,note_on,,,,,112,0,12,,,,,5,,,36,85
13440,note_on,,,,,0,0,13,,,,,6,,,66,100
13440,note_on,,,,,112,0,16,,,,,7,,,48,100
13520,note_off,,,,,80,0,8,,,,,1,,,78,100
13520,note_off,,,,,80,0,16,,,,,7,,,48,100
13520,note_off,,,,,80,0,14,,,,,6,,,48,100
13520,note_off,,,,,80,0,11,,,,,4,,,48,100
13520,note_off,,,,,0,0,13,,,,,6,,,66,100
13520,note_off,,,,,80,0,13,,,,,6,,,62,100
13520,note_off,,,,,80,0,12,,,,,5,,,36,100
13520,note_off,,,,,0,0,13,,,,,6,,,69,100
13632,note_on,,,,,112,0,11,,,,,4,,,48,86
13632,note_on,,,,,0,0,13,,,,,6,,,66,100
13632,note_on,,,,,0,0,13,,,,,6,,,69,100
13632,note_on,,,,,112,0,13,,,,,6,,,62,100
13632,note_on,,,,,112,0,16,,,,,7,,,48,100
13632,note_on,,,,,112,0,14,,,,,6,,,48,100
13632,note_on,,,,,112,0,12,,,,,5,,,36,86
13632,note_on,,,,,112,0,8,,,,,1,,,81,86
13696,note_off,,,,,0,0,15,,,,,7,,,66,100
13696,note_off,,,,,256,0,15,,,,,7,,,69,100
13712,note_off,,,,,80,0,8,,,,,1,,,81,100
13712,note_off,,,,,0,0,13,,,,,6,,,69,100
13712,note_off,,,,,0,0,13,,,,,6,,,66,100
13712,note_off,,,,,80,0,13,,,,,6,,,62,100
13712,note_off,,,,,80,0,14,,,,,6,,,48,100
13712,note_off,,,,,80,0,11,,,,,4,,,48,100
13712,note_off,,,,,80,0,12,,,,,5,,,36,100
13712,note_off,,,,,80,0,16,,,,,7,,,48,100
13824,note_on,,,,,896,0,9,,,,,2,,,67,86
13824,note_on,,,,,112,0,13,,,,,6,,,71,100
13824,note_on,,,,,0,0,13,,,,,6,,,62,100
13824,note_on,,,,,112,0,14,,,,,6,,,47,100
13824,note_on,,,,,112,0,16,,,,,7,,,47,100
13824,note_on,,,,,0,0,15,,,,,7,,,71,100
13824,note_on,,,,,128,0,15,,,,,7,,,67,100
13824,note_on,,,,,112,0,12,,,,,5,,,35,86
13824,note_on,,,,,0,0,13,,,,,6,,,67,100
13824,note_on,,,,,112,0,8,,,,,1,,,79,86
13824,note_on,,,,,112,0,11,,,,,4,,,47,86
13904,note_off,,,,,80,0,8,,,,,1,,,79,100
14016,note_on,,,,,1088,0,10,,,,,3,,,62,87
14016,note_on,,,,,112,0,8,,,,,1,,,71,87
14080,note_off,,,,,256,0,11,,,,,4,,,47,100
14080,note_off,,,,,256,0,16,,,,,7,,,47,100
14080,note_off,,,,,256,0,12,,,,,5,,,35,100
14080,note_off,,,,,0,0,13,,,,,6,,,67,100
14080,note_off,,,,,0,0,13,,,,,6,,,62,100
14080,note_off,,,,,256,0,13,,,,,6,,,71,100
14080,note_off,,,,,256,0,14,,,,,6,,,47,100
14096,note_off,,,,,80,0,8,,,,,1,,,71,100
14096,note_off,,,,,80,0,10,,,,,3,,,62,100
14204,note_off,,,,,380,0,9,,,,,2,,,67,100
14208,note_on,,,,,112,0,8,,,,,1,,,74,87
14208,note_on,,,,,4,0,9,,,,,2,,,71,87
14208,note_on,,,,,112,0,10,,,,,3,,,67,87
14288,note_off,,,,,80,0,10,,,,,3,,,67,100
14288,note_off,,,,,80,0,8,,,,,1,,,74,100
14400,note_on,,,,,320,0,14,,,,,6,,,47,100
14400,note_on,,,,,0,0,13,,,,,6,,,71,100
14400,note_on,,,,,112,0,10,,,,,3,,,62,88
14400,note_on,,,,,320,0,11,,,,,4,,,47,88
14400,note_on,,,,,320,0,16,,,,,7,,,47,100
14400,note_on,,,,,320,0,13,,,,,6,,,62,100
14400,note_on,,,,,320,0,12,,,,,5,,,35,88
14400,note_on,,,,,112,0,8,,,,,1,,,79,88
14400,note_on,,,,,0,0,13,,,,,6,,,67,100
14464,note_off,,,,,256,0,9,,,,,2,,,71,100
14480,note_off,,,,,80,0,14,,,,,6,,,47,100
14480,note_off,,,,,80,0,11,,,,,4,,,47,100
14480,note_off,,,,,80,0,12,,,,,5,,,35,100
14480,note_off,,,,,80,0,8,,,,,1,,,79,100
14480,note_off,,,,,80,0,16,,,,,7,,,47,100
14480,note_off,,,,,80,0,10,,,,,3,,,62,100
14480,note_off,,,,,80,0,13,,,,,6,,,62,100
14480,note_off,,,,,0,0,13,,,,,6,,,67,100
14480,note_off,,,,,0,0,13,,,,,6,,,71,100
14592,note_on,,,,,112,0,11,,,,,4,,,47,88
14592,note_on,,,,,112,0,14,,,,,6,,,47,100
14592,note_on,,,,,112,0,8,,,,,1,,,74,88
14592,note_on,,,,,112,0,10,,,,,3,,,59,88
14592,note_on,,,,,128,0,9,,,,,2,,,79,88
14592,note_on,,,,,112,0,16,,,,,7,,,47,100
14592,note_on,,,,,112,0,12,,,,,5,,,35,88
14592,note_on,,,,,112,0,13,,,,,6,,,62,100
14592,note_on,,,,,0,0,13,,,,,6,,,71,100
14592,note_on,,,,,0,0,13,,,,,6,,,67,100
14672,note_off,,,,,80,0,13,,,,,6,,,62,100
14672,note_off,,,,,80,0,8,,,,,1,,,74,100
14672,note_off,,,,,80,0,10,,,,,3,,,59,100
14672,note_off,,,,,0,0,13,,,,,6,,,67,100
14672,note_off,,,,,80,0,12,,,,,5,,,35,100
14672,note_off,,,,,0,0,13,,,,,6,,,71,100
14672,note_off,,,,,80,0,11,,,,,4,,,47,100
14672,note_off,,,,,80,0,16,,,,,7,,,47,100
14672,note_off,,,,,80,0,14,,,,,6,,,47,100
14784,note_on,,,,,112,0,13,,,,,6,,,62,100
14784,note_on,,,,,0,0,13,,,,,6,,,67,100
14784,note_on,,,,,0,0,13,,,,,6,,,71,100
14784,note_on,,,,,112,0,11,,,,,4,,,47,89
14784,note_on,,,,,112,0,8,,,,,1,,,71,89
14784,note_on,,,,,112,0,14,,,,,6,,,47,100
14784,note_on,,,,,112,0,10,,,,,3,,,55,89
14784,note_on,,,,,112,0,12,,,,,5,,,35,89
14784,note_on,,,,,112,0,16,,,,,7,,,47,100
14848,note_off,,,,,256,0,9,,,,,2,,,79,100
14860,note_off,,,,,0,0,15,,,,,7,,,71,100
14860,note_off,,,,,1036,0,15,,,,,7,,,62,100
14864,note_off,,,,,0,0,13,,,,,6,,,71,100
14864,note_off,,,,,80,0,10,,,,,3,,,55,100
14864,note_off,,,,,80,0,13,,,,,6,,,62,100
14864,note_off,,,,,0,0,13,,,,,6,,,67,100
14864,note_off,,,,,80,0,16,,,,,7,,,47,100
14864,note_off,,,,,80,0,14,,,,,6,,,47,100
14864,note_off,,,,,80,0,11,,,,,4,,,47,100
14864,note_off,,,,,80,0,12,,,,,5,,,35,100
14864,note_off,,,,,80,0,8,,,,,1,,,71,100
14976,note_on,,,,,112,0,11,,,,,4,,,48,89
14976,note_on,,,,,128,0,9,,,,,2,,,79,89
14976,note_on,,,,,112,0,16,,,,,7,,,48,100
14976,note_on,,,,,112,0,12,,,,,5,,,36,89
14976,note_on,,,,,0,0,13,,,,,6,,,67,100
14976,note_on,,,,,112,0,13,,,,,6,,,72,100
14976,note_on,,,,,112,0,8,,,,,1,,,76,89
14976,note_on,,,,,0,0,15,,,,,7,,,72,100
14976,note_on,,,,,0,0,13,,,,,6,,,64,100
14976,note_on,,,,,116,0,15,,,,,7,,,64,100
14976,note_on,,,,,112,0,14,,,,,6,,,48,100
15164,note_off,,,,,188,0,8,,,,,1,,,76,100
15168,note_on,,,,,4,0,8,,,,,1,,,72,90
15168,note_on,,,,,304,0,10,,,,,3,,,55,90
15232,note_off,,,,,256,0,13,,,,,6,,,72,100
15232,note_off,,,,,256,0,12,,,,,5,,,36,100
15232,note_off,,,,,256,0,14,,,,,6,,,48,100
15232,note_off,,,,,256,0,11,,,,,4,,,48,100
15232,note_off,,,,,0,0,13,,,,,6,,,64,100
15232,note_off,,,,,256,0,16,,,,,7,,,48,100
15232,note_off,,,,,0,0,13,,,,,6,,,67,100
15248,note_off,,,,,80,0,10,,,,,3,,,55,100
15356,note_off,,,,,380,0,9,,,,,2,,,79,100
15356,note_off,,,,,188,0,8,,,,,1,,,72,100
15360,note_on,,,,,4,0,8,,,,,1,,,67,90
15360,note_on,,,,,4,0,9,,,,,2,,,76,90
15360,note_on,,,,,112,0,10,,,,,3,,,60,90
15440,note_off,,,,,80,0,10,,,,,3,,,60,100
15460,note_off,,,,,100,0,8,,,,,1,,,67,100
15552,note_on,,,,,320,0,11,,,,,4,,,48,91
15552,note_on,,,,,112,0,10,,,,,3,,,64,91
15552,note_on,,,,,320,0,12,,,,,5,,,36,91
15552,note_on,,,,,320,0,16,,,,,7,,,48,100
15552,note_on,,,,,0,0,13,,,,,6,,,64,100
15552,note_on,,,,,0,0,13,,,,,6,,,67,100
15552,note_on,,,,,92,0,8,,,,,1,,,79,91
15552,note_on,,,,,320,0,13,,,,,6,,,72,100
15552,note_on,,,,,320,0,14,,,,,6,,,48,100
15616,note_off,,,,,256,0,9,,,,,2,,,76,100
15632,note_off,,,,,80,0,10,,,,,3,,,64,100
15632,note_off,,,,,80,0,8,,,,,1,,,79,100
15632,note_off,,,,,80,0,16,,,,,7,,,48,100
15632,note_off,,,,,80,0,14,,,,,6,,,48,100
15632,note_off,,,,,80,0,12,,,,,5,,,36,100
15632,note_off,,,,,80,0,13,,,,,6,,,72,100
15632,note_off,,,,,0,0,13,,,,,6,,,64,100
15632,note_off,,,,,0,0,13,,,,,6,,,67,100
15632,note_off,,,,,80,0,11,,,,,4,,,48,100
15744,note_on,,,,,112,0,16,,,,,7,,,48,100
15744,note_on,,,,,128,0,9,,,,,2,,,72,91
15744,note_on,,,,,112,0,10,,,,,3,,,67,91
15744,note_on,,,,,112,0,12,,,,,5,,,36,91
15744,note_on,,,,,112,0,11,,,,,4,,,48,91
15744,note_on,,,,,112,0,13,,,,,6,,,72,100
15744,note_on,,,,,112,0,14,,,,,6,,,48,100
15744,note_on,,,,,0,0,13,,,,,6,,,64,100
15744,note_on,,,,,0,0,13,,,,,6,,,67,100
15744,note_on,,,,,112,0,8,,,,,1,,,76,91
15824,note_off,,,,,80,0,10,,,,,3,,,67,100
15824,note_off,,,,,80,0,8,,,,,1,,,76,100
15824,note_off,,,,,80,0,12,,,,,5,,,36,100
15824,note_off,,,,,80,0,16,,,,,7,,,48,100
15824,note_off,,,,,0,0,13,,,,,6,,,67,100
15824,note_off,,,,,0,0,13,,,,,6,,,64,100
15824,note_off,,,,,80,0,11,,,,,4,,,48,100
15824,note_off,,,,,80,0,13,,,,,6,,,72,100
15824,note_off,,,,,80,0,14,,,,,6,,,48,100
15936,note_on,,,,,0,0,13,,,,,6,,,67,100
15936,note_on,,,,,0,0,13,,,,,6,,,64,100
15936,note_on,,,,,112,0,13,,,,,6,,,72,100
15936,note_on,,,,,112,0,14,,,,,6,,,48,100
15936,note_on,,,,,112,0,10,,,,,3,,,64,92
15936,note_on,,,,,112,0,12,,,,,5,,,36,92
15936,note_on,,,,,112,0,11,,,,,4,,,48,92
15936,note_on,,,,,112,0,8,,,,,1,,,72,92
15936,note_on,,,,,112,0,16,,,,,7,,,48,100
16000,note_off,,,,,256,0,9,,,,,2,,,72,100
16012,note_off,,,,,0,0,15,,,,,7,,,72,100
16012,note_off,,,,,1036,0,15,,,,,7,,,67,100
16016,note_off,,,,,80,0,14,,,,,6,,,48,100
16016,note_off,,,,,80,0,8,,,,,1,,,72,100
16016,note_off,,,,,80,0,12,,,,,5,,,36,100
16016,note_off,,,,,80,0,16,,,,,7,,,48,100
16016,note_off,,,,,80,0,11,,,,,4,,,48,100
16016,note_off,,,,,0,0,13,,,,,6,,,64,100
16016,note_off,,,,,0,0,13,,,,,6,,,67,100
16016,note_off,,,,,80,0,10,,,,,3,,,64,100
16016,note_off,,,,,80,0,13,,,,,6,,,72,100
16128,note_on,,,,,116,0,15,,,,,7,,,69,100
16128,note_on,,,,,112,0,11,,,,,4,,,49,93
16128,note_on,,,,,112,0,14,,,,,6,,,49,100
16128,note_on,,,,,112,0,8,,,,,1,,,81,93
16128,note_on,,,,,112,0,16,,,,,7,,,49,100
16128,note_on,,,,,112,0,12,,,,,5,,,37,93
16128,note_on,,,,,112,0,13,,,,,6,,,73,100
16128,note_on,,,,,0,0,15,,,,,7,,,73,100
16128,note_on,,,,,0,0,13,,,,,6,,,64,100
16128,note_on,,,,,0,0,13,,,,,6,,,69,100
16128,note_on,,,,,128,0,9,,,,,2,,,69,93
16208,note_off,,,,,80,0,8,,,,,1,,,81,100
16320,note_on,,,,,112,0,8,,,,,1,,,73,93
16320,note_on,,,,,304,0,10,,,,,3,,,64,93
16384,note_off,,,,,256,0,13,,,,,6,,,73,100
16384,note_off,,,,,256,0,14,,,,,6,,,49,100
16384,note_off,,,,,0,0,13,,,,,6,,,64,100
16384,note_off,,,,,0,0,13,,,,,6,,,69,100
16384,note_off,,,,,256,0,12,,,,,5,,,37,100
16384,note_off,,,,,256,0,11,,,,,4,,,49,100
16384,note_off,,,,,256,0,16,,,,,7,,,49,100
16400,note_off,,,,,80,0,8,,,,,1,,,73,100
16400,note_off,,,,,80,0,10,,,,,3,,,64,100
16508,note_off,,,,,380,0,9,,,,,2,,,69,100
16512,note_on,,,,,112,0,8,,,,,1,,,76,94
16512,note_on,,,,,4,0,9,,,,,2,,,73,94
16512,note_on,,,,,112,0,10,,,,,3,,,69,94
16592,note_off,,,,,80,0,10,,,,,3,,,69,100
16592,note_off,,,,,80,0,8,,,,,1,,,76,100
16704,note_on,,,,,320,0,14,,,,,6,,,49,100
16704,note_on,,,,,320,0,13,,,,,6,,,64,100
16704,note_on,,,,,0,0,13,,,,,6,,,69,100
16704,note_on,,,,,112,0,10,,,,,3,,,64,94
16704,note_on,,,,,0,0,13,,,,,6,,,73,100
16704,note_on,,,,,112,0,8,,,,,1,,,81,94
16704,note_on,,,,,320,0,12,,,,,5,,,37,94
16704,note_on,,,,,320,0,11,,,,,4,,,49,94
16704,note_on,,,,,320,0,16,,,,,7,,,49,100
16768,note_off,,,,,256,0,9,,,,,2,,,73,100
16784,note_off,,,,,0,0,13,,,,,6,,,73,100
16784,note_off,,,,,80,0,11,,,,,4,,,49,100
16784,note_off,,,,,80,0,8,,,,,1,,,81,100
16784,note_off,,,,,80,0,12,,,,,5,,,37,100
16784,note_off,,,,,80,0,10,,,,,3,,,64,100
16784,note_off,,,,,80,0,13,,,,,6,,,64,100
16784,note_off,,,,,0,0,13,,,,,6,,,69,100
16784,note_off,,,,,80,0,16,,,,,7,,,49,100
16784,note_off,,,,,80,0,14,,,,,6,,,49,100
16896,note_on,,,,,112,0,12,,,,,5,,,37,95
16896,note_on,,,,,128,0,9,,,,,2,,,81,95
16896,note_on,,,,,112,0,8,,,,,1,,,76,95
16896,note_on,,,,,112,0,16,,,,,7,,,49,100
16896,note_on,,,,,112,0,14,,,,,6,,,49,100
16896,note_on,,,,,112,0,13,,,,,6,,,64,100
16896,note_on,,,,,0,0,13,,,,,6,,,69,100
16896,note_on,,,,,0,0,13,,,,,6,,,73,100
16896,note_on,,,,,112,0,10,,,,,3,,,61,95
16896,note_on,,,,,112,0,11,,,,,4,,,49,95
16976,note_off,,,,,0,0,13,,,,,6,,,73,100
16976,note_off,,,,,80,0,13,,,,,6,,,64,100
16976,note_off,,,,,80,0,14,,,,,6,,,49,100
16976,note_off,,,,,80,0,8,,,,,1,,,76,100
16976,note_off,,,,,80,0,10,,,,,3,,,61,100
16976,note_off,,,,,80,0,11,,,,,4,,,49,100
16976,note_off,,,,,80,0,12,,,,,5,,,37,100
16976,note_off,,,,,0,0,13,,,,,6,,,69,100
16976,note_off,,,,,80,0,16,,,,,7,,,49,100
17088,note_on,,,,,112,0,12,,,,,5,,,37,95
17088,note_on,,,,,112,0,13,,,,,6,,,64,100
17088,note_on,,,,,0,0,13,,,,,6,,,69,100
17088,note_on,,,,,0,0,13,,,,,6,,,73,100
17088,note_on,,,,,112,0,14,,,,,6,,,49,100
17088,note_on,,,,,112,0,16,,,,,7,,,49,100
17088,note_on,,,,,112,0,11,,,,,4,,,49,95
17088,note_on,,,,,112,0,8,,,,,1,,,73,95
17088,note_on,,,,,112,0,10,,,,,3,,,57,95
17152,note_off,,,,,256,0,9,,,,,2,,,81,100
17164,note_off,,,,,0,0,15,,,,,7,,,73,100
17164,note_off,,,,,1036,0,15,,,,,7,,,64,100
17168,note_off,,,,,80,0,11,,,,,4,,,49,100
17168,note_off,,,,,80,0,10,,,,,3,,,57,100
17168,note_off,,,,,80,0,16,,,,,7,,,49,100
17168,note_off,,,,,80,0,8,,,,,1,,,73,100
17168,note_off,,,,,80,0,13,,,,,6,,,64,100
17168,note_off,,,,,80,0,14,,,,,6,,,49,100
17168,note_off,,,,,0,0,13,,,,,6,,,69,100
17168,note_off,,,,,0,0,13,,,,,6,,,73,100
17168,note_off,,,,,80,0,12,,,,,5,,,37,100
17280,note_on,,,,,128,0,9,,,,,2,,,81,96
17280,note_on,,,,,112,0,13,,,,,6,,,74,100
17280,note_on,,,,,112,0,12,,,,,5,,,38,96
17280,note_on,,,,,0,0,13,,,,,6,,,66,100
17280,note_on,,,,,116,0,15,,,,,7,,,66,100
17280,note_on,,,,,0,0,15,,,,,7,,,74,100
17280,note_on,,,,,112,0,8,,,,,1,,,78,96
17280,note_on,,,,,112,0,16,,,,,7,,,50,100
17280,note_on,,,,,112,0,11,,,,,4,,,50,96
17280,note_on,,,,,0,0,13,,,,,6,,,69,100
17280,note_on,,,,,112,0,14,,,,,6,,,50,100
17468,note_off,,,,,188,0,8,,,,,1,,,78,100
17472,note_on,,,,,4,0,8,,,,,1,,,74,96
17472,note_on,,,,,304,0,10,,,,,3,,,57,96
17536,note_off,,,,,256,0,14,,,,,6,,,50,100
17536,note_off,,,,,256,0,16,,,,,7,,,50,100
17536,note_off,,,,,256,0,13,,,,,6,,,74,100
17536,note_off,,,,,256,0,12,,,,,5,,,38,100
17536,note_off,,,,,0,0,13,,,,,6,,,69,100
17536,note_off,,,,,0,0,13,,,,,6,,,66,100
17536,note_off,,,,,256,0,11,,,,,4,,,50,100
17552,note_off,,,,,80,0,10,,,,,3,,,57,100
17660,note_off,,,,,380,0,9,,,,,2,,,81,100
17660,note_off,,,,,188,0,8,,,,,1,,,74,100
17664,note_on,,,,,4,0,8,,,,,1,,,69,97
17664,note_on,,,,,112,0,10,,,,,3,,,62,97
17664,note_on,,,,,4,0,9,,,,,2,,,78,97
17744,note_off,,,,,80,0,10,,,,,3,,,62,100
17764,note_off,,,,,100,0,8,,,,,1,,,69,100
17856,note_on,,,,,320,0,11,,,,,4,,,50,97
17856,note_on,,,,,320,0,12,,,,,5,,,38,97
17856,note_on,,,,,92,0,8,,,,,1,,,81,97
17856,note_on,,,,,0,0,13,,,,,6,,,66,100
17856,note_on,,,,,320,0,13,,,,,6,,,74,100
17856,note_on,,,,,320,0,16,,,,,7,,,50,100
17856,note_on,,,,,0,0,13,,,,,6,,,69,100
17856,note_on,,,,,112,0,10,,,,,3,,,66,97
17856,note_on,,,,,320,0,14,,,,,6,,,50,100
17920,note_off,,,,,256,0,9,,,,,2,,,78,100
17936,note_off,,,,,0,0,13,,,,,6,,,69,100
17936,note_off,,,,,80,0,16,,,,,7,,,50,100
17936,note_off,,,,,80,0,14,,,,,6,,,50,100
17936,note_off,,,,,80,0,13,,,,,6,,,74,100
17936,note_off,,,,,0,0,13,,,,,6,,,66,100
17936,note_off,,,,,80,0,12,,,,,5,,,38,100
17936,note_off,,,,,80,0,10,,,,,3,,,66,100
17936,note_off,,,,,80,0,11,,,,,4,,,50,100
17936,note_off,,,,,80,0,8,,,,,1,,,81,100
18048,note_on,,,,,112,0,13,,,,,6,,,74,100
18048,note_on,,,,,0,0,13,,,,,6,,,66,100
18048,note_on,,,,,0,0,13,,,,,6,,,69,100
18048,note_on,,,,,112,0,14,,,,,6,,,50,100
18048,note_on,,,,,112,0,8,,,,,1,,,78,98
18048,note_on,,,,,112,0,12,,,,,5,,,38,98
18048,note_on,,,,,112,0,16,,,,,7,,,50,100
18048,note_on,,,,,112,0,10,,,,,3,,,69,98
18048,note_on,,,,,112,0,11,,,,,4,,,50,98
18048,note_on,,,,,128,0,9,,,,,2,,,74,98
18128,note_off,,,,,0,0,13,,,,,6,,,66,100
18128,note_off,,,,,80,0,16,,,,,7,,,50,100
18128,note_off,,,,,80,0,12,,,,,5,,,38,100
18128,note_off,,,,,80,0,11,,,,,4,,,50,100
18128,note_off,,,,,80,0,10,,,,,3,,,69,100
18128,note_off,,,,,80,0,13,,,,,6,,,74,100
18128,note_off,,,,,0,0,13,,,,,6,,,69,100
18128,note_off,,,,,80,0,14,,,,,6,,,50,100
18128,note_off,,,,,80,0,8,,,,,1,,,78,100
18240,note_on,,,,,112,0,16,,,,,7,,,50,100
18240,note_on,,,,,112,0,10,,,,,3,,,66,98
18240,note_on,,,,,112,0,8,,,,,1,,,74,98
18240,note_on,,,,,112,0,14,,,,,6,,,50,100
18240,note_on,,,,,112,0,11,,,,,4,,,50,98
18240,note_on,,,,,112,0,12,,,,,5,,,38,98
18240,note_on,,,,,0,0,13,,,,,6,,,69,100
18240,note_on,,,,,0,0,13,,,,,6,,,66,100
18240,note_on,,,,,112,0,13,,,,,6,,,74,100
18304,note_off,,,,,256,0,9,,,,,2,,,74,100
18316,note_off,,,,,1036,0,15,,,,,7,,,69,100
18316,note_off,,,,,0,0,15,,,,,7,,,74,100
18320,note_off,,,,,80,0,12,,,,,5,,,38,100
18320,note_off,,,,,80,0,16,,,,,7,,,50,100
18320,note_off,,,,,80,0,10,,,,,3,,,66,100
18320,note_off,,,,,80,0,13,,,,,6,,,74,100
18320,note_off,,,,,0,0,13,,,,,6,,,69,100
18320,note_off,,,,,80,0,11,,,,,4,,,50,100
18320,note_off,,,,,80,0,14,,,,,6,,,50,100
18320,note_off,,,,,0,0,13,,,,,6,,,66,100
18320,note_off,,,,,80,0,8,,,,,1,,,74,100
18432,note_on,,,,,112,0,11,,,,,4,,,51,99
18432,note_on,,,,,112,0,13,,,,,6,,,75,100
18432,note_on,,,,,116,0,15,,,,,7,,,71,100
18432,note_on,,,,,112,0,14,,,,,6,,,51,100
18432,note_on,,,,,0,0,13,,,,,6,,,66,100
18432,note_on,,,,,0,0,15,,,,,7,,,75,100
18432,note_on,,,,,0,0,13,,,,,6,,,71,100
18432,note_on,,,,,112,0,16,,,,,7,,,51,100
18432,note_on,,,,,112,0,12,,,,,5,,,39,99
18432,note_on,,,,,128,0,9,,,,,2,,,71,99
18432,note_on,,,,,112,0,8,,,,,1,,,83,99
18512,note_off,,,,,80,0,8,,,,,1,,,83,100
18624,note_on,,,,,304,0,10,,,,,3,,,66,100
18624,note_on,,,,,112,0,8,,,,,1,,,75,100
18688,note_off,,,,,0,0,13,,,,,6,,,71,100
18688,note_off,,,,,256,0,16,,,,,7,,,51,100
18688,note_off,,,,,256,0,11,,,,,4,,,51,100
18688,note_off,,,,,256,0,12,,,,,5,,,39,100
18688,note_off,,,,,256,0,14,,,,,6,,,51,100
18688,note_off,,,,,256,0,13,,,,,6,,,75,100
18688,note_off,,,,,0,0,13,,,,,6,,,66,100
18704,note_off,,,,,80,0,8,,,,,1,,,75,100
18704,note_off,,,,,80,0,10,,,,,3,,,66,100
18812,note_off,,,,,380,0,9,,,,,2,,,71,100
18816,note_on,,,,,4,0,9,,,,,2,,,75,100
18816,note_on,,,,,112,0,8,,,,,1,,,78,100
18816,note_on,,,,,112,0,10,,,,,3,,,71,100
18896,note_off,,,,,80,0,10,,,,,3,,,71,100
18896,note_off,,,,,80,0,8,,,,,1,,,78,100
19008,note_on,,,,,0,0,13,,,,,6,,,75,100
19008,note_on,,,,,0,0,13,,,,,6,,,71,100
19008,note_on,,,,,320,0,14,,,,,6,,,51,100
19008,note_on,,,,,112,0,8,,,,,1,,,83,101
19008,note_on,,,,,320,0,11,,,,,4,,,51,101
19008,note_on,,,,,112,0,10,,,,,3,,,66,101
19008,note_on,,,,,320,0,12,,,,,5,,,39,101
19008,note_on,,,,,320,0,13,,,,,6,,,66,100
19008,note_on,,,,,320,0,16,,,,,7,,,51,100
19072,note_off,,,,,256,0,9,,,,,2,,,75,100
19088,note_off,,,,,0,0,13,,,,,6,,,71,100
19088,note_off,,,,,80,0,13,,,,,6,,,66,100
19088,note_off,,,,,80,0,16,,,,,7,,,51,100
19088,note_off,,,,,80,0,11,,,,,4,,,51,100
19088,note_off,,,,,80,0,10,,,,,3,,,66,100
19088,note_off,,,,,80,0,8,,,,,1,,,83,100
19088,note_off,,,,,80,0,14,,,,,6,,,51,100
19088,note_off,,,,,0,0,13,,,,,6,,,75,100
19088,note_off,,,,,80,0,12,,,,,5,,,39,100
19200,note_on,,,,,112,0,13,,,,,6,,,66,100
19200,note_on,,,,,112,0,11,,,,,4,,,51,101
19200,note_on,,,,,0,0,13,,,,,6,,,71,100
19200,note_on,,,,,112,0,12,,,,,5,,,39,101
19200,note_on,,,,,128,0,9,,,,,2,,,83,101
19200,note_on,,,,,112,0,16,,,,,7,,,51,100
19200,note_on,,,,,112,0,10,,,,,3,,,63,101
19200,note_on,,,,,112,0,14,,,,,6,,,51,100
19200,note_on,,,,,112,0,8,,,,,1,,,78,101
19200,note_on,,,,,0,0,13,,,,,6,,,75,100
19280,note_off,,,,,80,0,16,,,,,7,,,51,100
19280,note_off,,,,,0,0,13,,,,,6,,,75,100
19280,note_off,,,,,80,0,8,,,,,1,,,78,100
19280,note_off,,,,,80,0,11,,,,,4,,,51,100
19280,note_off,,,,,80,0,13,,,,,6,,,66,100
19280,note_off,,,,,0,0,13,,,,,6,,,71,100
19280,note_off,,,,,80,0,10,,,,,3,,,63,100
19280,note_off,,,,,80,0,14,,,,,6,,,51,100
19280,note_off,,,,,80,0,12,,,,,5,,,39,100
19392,note_on,,,,,112,0,11,,,,,4,,,51,102
19392,note_on,,,,,0,0,13,,,,,6,,,75,100
19392,note_on,,,,,112,0,10,,,,,3,,,59,102
19392,note_on,,,,,112,0,16,,,,,7,,,51,100
19392,note_on,,,,,112,0,14,,,,,6,,,51,100
19392,note_on,,,,,112,0,13,,,,,6,,,66,100
19392,note_on,,,,,0,0,13,,,,,6,,,71,100
19392,note_on,,,,,112,0,12,,,,,5,,,39,102
19392,note_on,,,,,112,0,8,,,,,1,,,75,102
19456,note_off,,,,,256,0,9,,,,,2,,,83,100
19468,note_off,,,,,0,0,15,,,,,7,,,75,100
19468,note_off,,,,,1036,0,15,,,,,7,,,66,100
19472,note_off,,,,,80,0,11,,,,,4,,,51,100
19472,note_off,,,,,80,0,10,,,,,3,,,59,100
19472,note_off,,,,,80,0,14,,,,,6,,,51,100
19472,note_off,,,,,80,0,8,,,,,1,,,75,100
19472,note_off,,,,,80,0,16,,,,,7,,,51,100
19472,note_off,,,,,80,0,12,,,,,5,,,39,100
19472,note_off,,,,,0,0,13,,,,,6,,,75,100
19472,note_off,,,,,0,0,13,,,,,6,,,71,100
19472,note_off,,,,,80,0,13,,,,,6,,,66,100
19584,note_on,,,,,128,0,9,,,,,2,,,83,102
19584,note_on,,,,,0,0,13,,,,,6,,,76,100
19584,note_on,,,,,112,0,13,,,,,6,,,67,100
19584,note_on,,,,,112,0,16,,,,,7,,,52,100
19584,note_on,,,,,112,0,12,,,,,5,,,40,102
19584,note_on,,,,,116,0,15,,,,,7,,,76,100
19584,note_on,,,,,112,0,11,,,,,4,,,52,102
19584,note_on,,,,,112,0,14,,,,,6,,,52,100
19584,note_on,,,,,112,0,8,,,,,1,,,79,102
19584,note_on,,,,,0,0,13,,,,,6,,,71,100
19584,note_on,,,,,0,0,15,,,,,7,,,67,100
19772,note_off,,,,,188,0,8,,,,,1,,,79,100
19776,note_on,,,,,304,0,10,,,,,3,,,59,103
19776,note_on,,,,,4,0,8,,,,,1,,,76,103
19840,note_off,,,,,256,0,12,,,,,5,,,40,100
19840,note_off,,,,,256,0,14,,,,,6,,,52,100
19840,note_off,,,,,0,0,13,,,,,6,,,76,100
19840,note_off,,,,,0,0,13,,,,,6,,,71,100
19840,note_off,,,,,256,0,13,,,,,6,,,67,100
19840,note_off,,,,,256,0,16,,,,,7,,,52,100
19840,note_off,,,,,256,0,11,,,,,4,,,52,100
19856,note_off,,,,,80,0,10,,,,,3,,,59,100
19964,note_off,,,,,380,0,9,,,,,2,,,83,100
19964,note_off,,,,,188,0,8,,,,,1,,,76,100
19968,note_on,,,,,112,0,10,,,,,3,,,64,103
19968,note_on,,,,,4,0,8,,,,,1,,,71,103
19968,note_on,,,,,4,0,9,,,,,2,,,79,103
20048,note_off,,,,,80,0,10,,,,,3,,,64,100
20068,note_off,,,,,100,0,8,,,,,1,,,71,100
20160,note_on,,,,,320,0,14,,,,,6,,,52,100
20160,note_on,,,,,320,0,11,,,,,4,,,52,104
20160,note_on,,,,,92,0,8,,,,,1,,,83,104
20160,note_on,,,,,0,0,13,,,,,6,,,71,100
20160,note_on,,,,,0,0,13,,,,,6,,,76,100
20160,note_on,,,,,320,0,12,,,,,5,,,40,104
20160,note_on,,,,,320,0,16,,,,,7,,,52,100
20160,note_on,,,,,112,0,10,,,,,3,,,67,104
20160,note_on,,,,,320,0,13,,,,,6,,,67,100
20224,note_off,,,,,256,0,9,,,,,2,,,79,100
20240,note_off,,,,,80,0,13,,,,,6,,,67,100
20240,note_off,,,,,0,0,13,,,,,6,,,76,100
20240,note_off,,,,,0,0,13,,,,,6,,,71,100
20240,note_off,,,,,80,0,8,,,,,1,,,83,100
20240,note_off,,,,,80,0,16,,,,,7,,,52,100
20240,note_off,,,,,80,0,11,,,,,4,,,52,100
20240,note_off,,,,,80,0,10,,,,,3,,,67,100
20240,note_off,,,,,80,0,12,,,,,5,,,40,100
20240,note_off,,,,,80,0,14,,,,,6,,,52,100
20352,note_on,,,,,112,0,10,,,,,3,,,71,104
20352,note_on,,,,,112,0,12,,,,,5,,,40,104
20352,note_on,,,,,112,0,13,,,,,6,,,67,100
20352,note_on,,,,,0,0,13,,,,,6,,,76,100
20352,note_on,,,,,0,0,13,,,,,6,,,71,100
20352,note_on,,,,,112,0,14,,,,,6,,,52,100
20352,note_on,,,,,112,0,16,,,,,7,,,52,100
20352,note_on,,,,,128,0,9,,,,,2,,,76,104
20352,note_on,,,,,112,0,11,,,,,4,,,52,104
20352,note_on,,,,,112,0,8,,,,,1,,,79,104
20432,note_off,,,,,80,0,14,,,,,6,,,52,100
20432,note_off,,,,,80,0,12,,,,,5,,,40,100
20432,note_off,,,,,80,0,13,,,,,6,,,67,100
20432,note_off,,,,,80,0,16,,,,,7,,,52,100
20432,note_off,,,,,0,0,13,,,,,6,,,76,100
20432,note_off,,,,,80,0,11,,,,,4,,,52,100
20432,note_off,,,,,80,0,8,,,,,1,,,79,100
20432,note_off,,,,,0,0,13,,,,,6,,,71,100
20432,note_off,,,,,80,0,10,,,,,3,,,71,100
20544,note_on,,,,,112,0,16,,,,,7,,,52,100
20544,note_on,,,,,112,0,12,,,,,5,,,40,105
20544,note_on,,,,,112,0,11,,,,,4,,,52,105
20544,note_on,,,,,112,0,8,,,,,1,,,76,105
20544,note_on,,,,,0,0,13,,,,,6,,,71,100
20544,note_on,,,,,0,0,13,,,,,6,,,76,100
20544,note_on,,,,,112,0,14,,,,,6,,,52,100
20544,note_on,,,,,112,0,10,,,,,3,,,67,105
20544,note_on,,,,,112,0,13,,,,,6,,,67,100
20608,note_off,,,,,256,0,9,,,,,2,,,76,100
20620,note_off,,,,,1036,0,15,,,,,7,,,71,100
20620,note_off,,,,,0,0,15,,,,,7,,,76,100
20620,note_off,,,,,0,0,15,,,,,7,,,67,100
20624,note_off,,,,,80,0,10,,,,,3,,,67,100
20624,note_off,,,,,80,0,8,,,,,1,,,76,100
20624,note_off,,,,,80,0,16,,,,,7,,,52,100
20624,note_off,,,,,0,0,13,,,,,6,,,76,100
20624,note_off,,,,,80,0,13,,,,,6,,,67,100
20624,note_off,,,,,80,0,11,,,,,4,,,52,100
20624,note_off,,,,,80,0,14,,,,,6,,,52,100
20624,note_off,,,,,80,0,12,,,,,5,,,40,100
20624,note_off,,,,,0,0,13,,,,,6,,,71,100
20736,note_on,,,,,116,0,15,,,,,7,,,69,100
20736,note_on,,,,,112,0,11,,,,,4,,,45,105
20736,note_on,,,,,112,0,12,,,,,5,,,33,105
20736,note_on,,,,,0,0,15,,,,,7,,,76,100
20736,note_on,,,,,112,0,16,,,,,7,,,45,100
20736,note_on,,,,,128,0,9,,,,,2,,,76,105
20736,note_on,,,,,0,0,15,,,,,7,,,72,100
20736,note_on,,,,,0,0,13,,,,,6,,,72,100
20736,note_on,,,,,0,0,13,,,,,6,,,69,100
20736,note_on,,,,,112,0,14,,,,,6,,,45,100
20736,note_on,,,,,112,0,13,,,,,6,,,64,100
20736,note_on,,,,,112,0,8,,,,,1,,,84,105
20816,note_off,,,,,80,0,8,,,,,1,,,84,100
20928,note_on,,,,,304,0,10,,,,,3,,,60,100
20928,note_on,,,,,112,0,8,,,,,1,,,76,100
20992,note_off,,,,,256,0,12,,,,,5,,,33,100
20992,note_off,,,,,256,0,14,,,,,6,,,45,100
20992,note_off,,,,,256,0,13,,,,,6,,,64,100
20992,note_off,,,,,0,0,13,,,,,6,,,69,100
20992,note_off,,,,,0,0,13,,,,,6,,,72,100
20992,note_off,,,,,256,0,11,,,,,4,,,45,100
20992,note_off,,,,,256,0,16,,,,,7,,,45,100
21008,note_off,,,,,80,0,8,,,,,1,,,76,100
21008,note_off,,,,,80,0,10,,,,,3,,,60,100
21116,note_off,,,,,380,0,9,,,,,2,,,76,100
21120,note_on,,,,,112,0,8,,,,,1,,,84,100
21120,note_on,,,,,4,0,9,,,,,2,,,81,100
21120,note_on,,,,,112,0,10,,,,,3,,,64,100
21200,note_off,,,,,80,0,8,,,,,1,,,84,100
21200,note_off,,,,,80,0,10,,,,,3,,,64,100
21312,note_on,,,,,320,0,14,,,,,6,,,45,100
21312,note_on,,,,,320,0,16,,,,,7,,,45,100
21312,note_on,,,,,320,0,12,,,,,5,,,33,100
21312,note_on,,,,,112,0,8,,,,,1,,,76,100
21312,note_on,,,,,0,0,13,,,,,6,,,69,100
21312,note_on,,,,,0,0,13,,,,,6,,,64,100
21312,note_on,,,,,320,0,13,,,,,6,,,60,100
21312,note_on,,,,,320,0,11,,,,,4,,,45,100
21312,note_on,,,,,112,0,10,,,,,3,,,69,100
21376,note_off,,,,,256,0,9,,,,,2,,,81,100
21392,note_off,,,,,80,0,14,,,,,6,,,45,100
21392,note_off,,,,,0,0,13,,,,,6,,,69,100
21392,note_off,,,,,80,0,11,,,,,4,,,45,100
21392,note_off,,,,,80,0,12,,,,,5,,,33,100
21392,note_off,,,,,80,0,13,,,,,6,,,60,100
21392,note_off,,,,,0,0,13,,,,,6,,,64,100
21392,note_off,,,,,80,0,8,,,,,1,,,76,100
21392,note_off,,,,,80,0,10,,,,,3,,,69,100
21392,note_off,,,,,80,0,16,,,,,7,,,45,100
21504,note_on,,,,,112,0,13,,,,,6,,,60,100
21504,note_on,,,,,0,0,13,,,,,6,,,64,100
21504,note_on,,,,,112,0,8,,,,,1,,,84,100
21504,note_on,,,,,112,0,16,,,,,7,,,45,100
21504,note_on,,,,,112,0,10,,,,,3,,,64,100
21504,note_on,,,,,128,0,9,,,,,2,,,72,100
21504,note_on,,,,,112,0,12,,,,,5,,,33,100
21504,note_on,,,,,0,0,13,,,,,6,,,69,100
21504,note_on,,,,,112,0,14,,,,,6,,,45,100
21504,note_on,,,,,112,0,11,,,,,4,,,45,100
21584,note_off,,,,,80,0,16,,,,,7,,,45,100
21584,note_off,,,,,80,0,10,,,,,3,,,64,100
21584,note_off,,,,,80,0,12,,,,,5,,,33,100
21584,note_off,,,,,80,0,14,,,,,6,,,45,100
21584,note_off,,,,,80,0,13,,,,,6,,,60,100
21584,note_off,,,,,0,0,13,,,,,6,,,64,100
21584,note_off,,,,,0,0,13,,,,,6,,,69,100
21584,note_off,,,,,80,0,8,,,,,1,,,84,100
21584,note_off,,,,,80,0,11,,,,,4,,,45,100
21696,note_on,,,,,112,0,16,,,,,7,,,45,100
21696,note_on,,,,,112,0,13,,,,,6,,,60,100
21696,note_on,,,,,0,0,13,,,,,6,,,64,100
21696,note_on,,,,,0,0,13,,,,,6,,,69,100
21696,note_on,,,,,112,0,11,,,,,4,,,45,100
21696,note_on,,,,,112,0,8,,,,,1,,,76,100
21696,note_on,,,,,112,0,14,,,,,6,,,45,100
21696,note_on,,,,,112,0,12,,,,,5,,,33,100
21696,note_on,,,,,112,0,10,,,,,3,,,60,100
21760,note_off,,,,,256,0,9,,,,,2,,,72,100
21772,note_off,,,,,0,0,15,,,,,7,,,76,100
21772,note_off,,,,,1036,0,15,,,,,7,,,69,100
21772,note_off,,,,,0,0,15,,,,,7,,,72,100
21776,note_off,,,,,80,0,14,,,,,6,,,45,100
21776,note_off,,,,,80,0,13,,,,,6,,,60,100
21776,note_off,,,,,80,0,10,,,,,3,,,60,100
21776,note_off,,,,,80,0,16,,,,,7,,,45,100
21776,note_off,,,,,80,0,12,,,,,5,,,33,100
21776,note_off,,,,,80,0,11,,,,,4,,,45,100
21776,note_off,,,,,80,0,8,,,,,1,,,76,100
21776,note_off,,,,,0,0,13,,,,,6,,,69,100
21776,note_off,,,,,0,0,13,,,,,6,,,64,100
21888,note_on,,,,,112,0,8,,,,,1,,,78,100
21888,note_on,,,,,112,0,16,,,,,7,,,50,100
21888,note_on,,,,,112,0,12,,,,,5,,,38,100
21888,note_on,,,,,112,0,14,,,,,6,,,50,100
21888,note_on,,,,,0,0,13,,,,,6,,,69,100
21888,note_on,,,,,0,0,15,,,,,7,,,62,100
21888,note_on,,,,,0,0,15,,,,,7,,,66,100
21888,note_on,,,,,116,0,15,,,,,7,,,69,100
21888,note_on,,,,,112,0,11,,,,,4,,,50,100
21888,note_on,,,,,128,0,9,,,,,2,,,69,100
21888,note_on,,,,,0,0,13,,,,,6,,,66,100
21888,note_on,,,,,112,0,13,,,,,6,,,62,100
21968,note_off,,,,,80,0,8,,,,,1,,,78,100
22080,note_on,,,,,304,0,10,,,,,3,,,66,100
22080,note_on,,,,,112,0,8,,,,,1,,,74,100
22144,note_off,,,,,256,0,12,,,,,5,,,38,100
22144,note_off,,,,,256,0,11,,,,,4,,,50,100
22144,note_off,,,,,0,0,13,,,,,6,,,69,100
22144,note_off,,,,,256,0,14,,,,,6,,,50,100
22144,note_off,,,,,256,0,16,,,,,7,,,50,100
22144,note_off,,,,,256,0,13,,,,,6,,,62,100
22144,note_off,,,,,0,0,13,,,,,6,,,66,100
22160,note_off,,,,,80,0,8,,,,,1,,,74,100
22160,note_off,,,,,80,0,10,,,,,3,,,66,100
22268,note_off,,,,,380,0,9,,,,,2,,,69,100
22272,note_on,,,,,112,0,8,,,,,1,,,78,100
22272,note_on,,,,,112,0,10,,,,,3,,,69,100
22272,note_on,,,,,4,0,9,,,,,2,,,74,100
22352,note_off,,,,,80,0,10,,,,,3,,,69,100
22352,note_off,,,,,80,0,8,,,,,1,,,78,100
22464,note_on,,,,,112,0,10,,,,,3,,,66,100
22464,note_on,,,,,320,0,16,,,,,7,,,50,100
22464,note_on,,,,,320,0,14,,,,,6,,,50,100
22464,note_on,,,,,320,0,11,,,,,4,,,50,100
22464,note_on,,,,,0,0,13,,,,,6,,,69,100
22464,note_on,,,,,112,0,8,,,,,1,,,81,100
22464,note_on,,,,,320,0,12,,,,,5,,,38,100
22464,note_on,,,,,320,0,13,,,,,6,,,62,100
22464,note_on,,,,,0,0,13,,,,,6,,,66,100
22528,note_off,,,,,256,0,9,,,,,2,,,74,100
22544,note_off,,,,,0,0,13,,,,,6,,,66,100
22544,note_off,,,,,80,0,16,,,,,7,,,50,100
22544,note_off,,,,,80,0,14,,,,,6,,,50,100
22544,note_off,,,,,80,0,12,,,,,5,,,38,100
22544,note_off,,,,,80,0,8,,,,,1,,,81,100
22544,note_off,,,,,80,0,13,,,,,6,,,62,100
22544,note_off,,,,,80,0,10,,,,,3,,,66,100
22544,note_off,,,,,80,0,11,,,,,4,,,50,100
22544,note_off,,,,,0,0,13,,,,,6,,,69,100
22656,note_on,,,,,0,0,13,,,,,6,,,69,100
22656,note_on,,,,,112,0,12,,,,,5,,,38,100
22656,note_on,,,,,0,0,13,,,,,6,,,66,100
22656,note_on,,,,,112,0,14,,,,,6,,,50,100
22656,note_on,,,,,112,0,16,,,,,7,,,50,100
22656,note_on,,,,,112,0,11,,,,,4,,,50,100
22656,note_on,,,,,112,0,8,,,,,1,,,78,100
22656,note_on,,,,,128,0,9,,,,,2,,,81,100
22656,note_on,,,,,112,0,10,,,,,3,,,62,100
22656,note_on,,,,,112,0,13,,,,,6,,,62,100
22736,note_off,,,,,80,0,13,,,,,6,,,62,100
22736,note_off,,,,,0,0,13,,,,,6,,,66,100
22736,note_off,,,,,80,0,16,,,,,7,,,50,100
22736,note_off,,,,,0,0,13,,,,,6,,,69,100
22736,note_off,,,,,80,0,10,,,,,3,,,62,100
22736,note_off,,,,,80,0,12,,,,,5,,,38,100
22736,note_off,,,,,80,0,11,,,,,4,,,50,100
22736,note_off,,,,,80,0,14,,,,,6,,,50,100
22736,note_off,,,,,80,0,8,,,,,1,,,78,100
22848,note_on,,,,,112,0,14,,,,,6,,,50,100
22848,note_on,,,,,112,0,13,,,,,6,,,62,100
22848,note_on,,,,,0,0,13,,,,,6,,,66,100
22848,note_on,,,,,112,0,8,,,,,1,,,74,98
22848,note_on,,,,,112,0,10,,,,,3,,,57,98
22848,note_on,,,,,112,0,12,,,,,5,,,38,98
22848,note_on,,,,,112,0,16,,,,,7,,,50,100
22848,note_on,,,,,112,0,11,,,,,4,,,50,98
22848,note_on,,,,,0,0,13,,,,,6,,,69,100
22912,note_off,,,,,256,0,9,,,,,2,,,81,100
22924,note_off,,,,,1036,0,15,,,,,7,,,69,100
22924,note_off,,,,,0,0,15,,,,,7,,,66,100
22924,note_off,,,,,0,0,15,,,,,7,,,62,100
22928,note_off,,,,,80,0,10,,,,,3,,,57,100
22928,note_off,,,,,80,0,16,,,,,7,,,50,100
22928,note_off,,,,,80,0,8,,,,,1,,,74,100
22928,note_off,,,,,80,0,12,,,,,5,,,38,100
22928,note_off,,,,,80,0,13,,,,,6,,,62,100
22928,note_off,,,,,80,0,14,,,,,6,,,50,100
22928,note_off,,,,,80,0,11,,,,,4,,,50,100
22928,note_off,,,,,0,0,13,,,,,6,,,66,100
22928,note_off,,,,,0,0,13,,,,,6,,,69,100
23040,note_on,,,,,0,0,15,,,,,7,,,60,100
23040,note_on,,,,,0,0,15,,,,,7,,,66,100
23040,note_on,,,,,116,0,15,,,,,7,,,69,100
23040,note_on,,,,,112,0,14,,,,,6,,,50,100
23040,note_on,,,,,112,0,16,,,,,7,,,50,100
23040,note_on,,,,,112,0,11,,,,,4,,,50,94
23040,note_on,,,,,112,0,12,,,,,5,,,38,94
23040,note_on,,,,,112,0,13,,,,,6,,,60,100
23040,note_on,,,,,0,0,13,,,,,6,,,66,100
23040,note_on,,,,,0,0,13,,,,,6,,,69,100
23040,note_on,,,,,128,0,9,,,,,2,,,69,94
23040,note_on,,,,,112,0,8,,,,,1,,,78,94
23120,note_off,,,,,80,0,8,,,,,1,,,78,100
23232,note_on,,,,,304,0,10,,,,,3,,,66,96
23232,note_on,,,,,112,0,8,,,,,1,,,72,96
23296,note_off,,,,,256,0,16,,,,,7,,,50,100
23296,note_off,,,,,256,0,14,,,,,6,,,50,100
23296,note_off,,,,,256,0,11,,,,,4,,,50,100
23296,note_off,,,,,256,0,13,,,,,6,,,60,100
23296,note_off,,,,,0,0,13,,,,,6,,,66,100
23296,note_off,,,,,0,0,13,,,,,6,,,69,100
23296,note_off,,,,,256,0,12,,,,,5,,,38,100
23312,note_off,,,,,80,0,8,,,,,1,,,72,100
23312,note_off,,,,,80,0,10,,,,,3,,,66,100
23420,note_off,,,,,380,0,9,,,,,2,,,69,100
23424,note_on,,,,,112,0,8,,,,,1,,,78,99
23424,note_on,,,,,112,0,10,,,,,3,,,69,99
23424,note_on,,,,,4,0,9,,,,,2,,,72,99
23504,note_off,,,,,80,0,10,,,,,3,,,69,100
23504,note_off,,,,,80,0,8,,,,,1,,,78,100
23616,note_on,,,,,320,0,16,,,,,7,,,50,100
23616,note_on,,,,,112,0,10,,,,,3,,,66,101
23616,note_on,,,,,320,0,14,,,,,6,,,50,100
23616,note_on,,,,,320,0,13,,,,,6,,,60,100
23616,note_on,,,,,320,0,11,,,,,4,,,50,101
23616,note_on,,,,,320,0,12,,,,,5,,,38,101
23616,note_on,,,,,0,0,13,,,,,6,,,66,100
23616,note_on,,,,,112,0,8,,,,,1,,,81,101
23616,note_on,,,,,0,0,13,,,,,6,,,69,100
23680,note_off,,,,,256,0,9,,,,,2,,,72,100
23696,note_off,,,,,80,0,14,,,,,6,,,50,100
23696,note_off,,,,,80,0,12,,,,,5,,,38,100
23696,note_off,,,,,80,0,8,,,,,1,,,81,100
23696,note_off,,,,,80,0,16,,,,,7,,,50,100
23696,note_off,,,,,80,0,13,,,,,6,,,60,100
23696,note_off,,,,,80,0,11,,,,,4,,,50,100
23696,note_off,,,,,80,0,10,,,,,3,,,66,100
23696,note_off,,,,,0,0,13,,,,,6,,,66,100
23696,note_off,,,,,0,0,13,,,,,6,,,69,100
23808,note_on,,,,,112,0,10,,,,,3,,,62,101
23808,note_on,,,,,112,0,16,,,,,7,,,50,100
23808,note_on,,,,,0,0,13,,,,,6,,,66,100
23808,note_on,,,,,112,0,11,,,,,4,,,50,101
23808,note_on,,,,,128,0,9,,,,,2,,,81,101
23808,note_on,,,,,112,0,8,,,,,1,,,78,101
23808,note_on,,,,,112,0,14,,,,,6,,,50,100
23808,note_on,,,,,112,0,12,,,,,5,,,38,101
23808,note_on,,,,,112,0,13,,,,,6,,,60,100
23808,note_on,,,,,0,0,13,,,,,6,,,69,100
23888,note_off,,,,,80,0,14,,,,,6,,,50,100
23888,note_off,,,,,80,0,10,,,,,3,,,62,100
23888,note_off,,,,,80,0,12,,,,,5,,,38,100
23888,note_off,,,,,0,0,13,,,,,6,,,66,100
23888,note_off,,,,,0,0,13,,,,,6,,,69,100
23888,note_off,,,,,80,0,11,,,,,4,,,50,100
23888,note_off,,,,,80,0,8,,,,,1,,,78,100
23888,note_off,,,,,80,0,13,,,,,6,,,60,100
23888,note_off,,,,,80,0,16,,,,,7,,,50,100
24000,note_on,,,,,112,0,16,,,,,7,,,50,100
24000,note_on,,,,,112,0,10,,,,,3,,,62,100
24000,note_on,,,,,112,0,14,,,,,6,,,50,100
24000,note_on,,,,,112,0,12,,,,,5,,,38,100
24000,note_on,,,,,112,0,13,,,,,6,,,60,100
24000,note_on,,,,,0,0,13,,,,,6,,,66,100
24000,note_on,,,,,0,0,13,,,,,6,,,69,100
24000,note_on,,,,,112,0,11,,,,,4,,,50,100
24000,note_on,,,,,112,0,8,,,,,1,,,72,100
24064,note_off,,,,,256,0,9,,,,,2,,,81,100
24076,note_off,,,,,0,0,15,,,,,7,,,60,100
24076,note_off,,,,,0,0,15,,,,,7,,,66,100
24076,note_off,,,,,1036,0,15,,,,,7,,,69,100
24080,note_off,,,,,80,0,14,,,,,6,,,50,100
24080,note_off,,,,,80,0,12,,,,,5,,,38,100
24080,note_off,,,,,0,0,13,,,,,6,,,69,100
24080,note_off,,,,,0,0,13,,,,,6,,,66,100
24080,note_off,,,,,80,0,13,,,,,6,,,60,100
24080,note_off,,,,,80,0,16,,,,,7,,,50,100
24080,note_off,,,,,80,0,11,,,,,4,,,50,100
24080,note_off,,,,,80,0,8,,,,,1,,,72,100
24080,note_off,,,,,80,0,10,,,,,3,,,62,100
24192,note_on,,,,,128,0,9,,,,,2,,,79,102
24192,note_on,,,,,0,0,13,,,,,6,,,62,100
24192,note_on,,,,,112,0,8,,,,,1,,,71,102
24192,note_on,,,,,116,0,15,,,,,7,,,67,100
24192,note_on,,,,,112,0,13,,,,,6,,,59,100
24192,note_on,,,,,0,0,15,,,,,7,,,59,100
24192,note_on,,,,,112,0,10,,,,,3,,,62,102
24192,note_on,,,,,112,0,14,,,,,6,,,43,100
24192,note_on,,,,,112,0,12,,,,,5,,,31,102
24192,note_on,,,,,112,0,16,,,,,7,,,43,100
24192,note_on,,,,,0,0,15,,,,,7,,,62,100
24192,note_on,,,,,112,0,11,,,,,4,,,43,102
24192,note_on,,,,,0,0,13,,,,,6,,,67,100
24272,note_off,,,,,80,0,8,,,,,1,,,71,100
24384,note_on,,,,,112,0,8,,,,,1,,,79,101
24448,note_off,,,,,256,0,11,,,,,4,,,43,100
24448,note_off,,,,,256,0,13,,,,,6,,,59,100
24448,note_off,,,,,256,0,16,,,,,7,,,43,100
24448,note_off,,,,,256,0,12,,,,,5,,,31,100
24448,note_off,,,,,256,0,10,,,,,3,,,62,100
24448,note_off,,,,,256,0,14,,,,,6,,,43,100
24448,note_off,,,,,0,0,13,,,,,6,,,67,100
24448,note_off,,,,,0,0,13,,,,,6,,,62,100
24464,note_off,,,,,80,0,8,,,,,1,,,79,100
24572,note_off,,,,,380,0,9,,,,,2,,,79,100
24576,note_on,,,,,112,0,8,,,,,1,,,71,100
24576,note_on,,,,,4,0,9,,,,,2,,,74,100
24656,note_off,,,,,80,0,8,,,,,1,,,71,100
24768,note_on,,,,,320,0,13,,,,,6,,,59,100
24768,note_on,,,,,320,0,12,,,,,5,,,31,98
24768,note_on,,,,,320,0,16,,,,,7,,,43,100
24768,note_on,,,,,320,0,14,,,,,6,,,43,100
24768,note_on,,,,,320,0,10,,,,,3,,,67,98
24768,note_on,,,,,112,0,8,,,,,1,,,79,98
24768,note_on,,,,,0,0,13,,,,,6,,,62,100
24768,note_on,,,,,0,0,13,,,,,6,,,67,100
24768,note_on,,,,,320,0,11,,,,,4,,,43,98
24832,note_off,,,,,256,0,9,,,,,2,,,74,100
24848,note_off,,,,,80,0,8,,,,,1,,,79,100
24848,note_off,,,,,80,0,13,,,,,6,,,59,100
24848,note_off,,,,,80,0,12,,,,,5,,,31,100
24848,note_off,,,,,80,0,14,,,,,6,,,43,100
24848,note_off,,,,,0,0,13,,,,,6,,,62,100
24848,note_off,,,,,80,0,16,,,,,7,,,43,100
24848,note_off,,,,,80,0,11,,,,,4,,,43,100
24848,note_off,,,,,0,0,13,,,,,6,,,67,100
24848,note_off,,,,,80,0,10,,,,,3,,,67,100
24960,note_on,,,,,112,0,16,,,,,7,,,43,100
24960,note_on,,,,,112,0,12,,,,,5,,,31,99
24960,note_on,,,,,112,0,10,,,,,3,,,67,99
24960,note_on,,,,,112,0,11,,,,,4,,,43,99
24960,note_on,,,,,112,0,14,,,,,6,,,43,100
24960,note_on,,,,,128,0,9,,,,,2,,,71,99
24960,note_on,,,,,112,0,13,,,,,6,,,59,100
24960,note_on,,,,,0,0,13,,,,,6,,,67,100
24960,note_on,,,,,0,0,13,,,,,6,,,62,100
24960,note_on,,,,,112,0,8,,,,,1,,,71,99
25040,note_off,,,,,80,0,10,,,,,3,,,67,100
25040,note_off,,,,,80,0,12,,,,,5,,,31,100
25040,note_off,,,,,80,0,11,,,,,4,,,43,100
25040,note_off,,,,,0,0,13,,,,,6,,,67,100
25040,note_off,,,,,0,0,13,,,,,6,,,62,100
25040,note_off,,,,,80,0,13,,,,,6,,,59,100
25040,note_off,,,,,80,0,16,,,,,7,,,43,100
25040,note_off,,,,,80,0,14,,,,,6,,,43,100
25040,note_off,,,,,80,0,8,,,,,1,,,71,100
25152,note_on,,,,,112,0,8,,,,,1,,,79,101
25152,note_on,,,,,112,0,14,,,,,6,,,43,100
25152,note_on,,,,,112,0,16,,,,,7,,,43,100
25152,note_on,,,,,0,0,13,,,,,6,,,67,100
25152,note_on,,,,,112,0,13,,,,,6,,,59,100
25152,note_on,,,,,0,0,13,,,,,6,,,62,100
25152,note_on,,,,,112,0,12,,,,,5,,,31,101
25152,note_on,,,,,112,0,10,,,,,3,,,67,101
25152,note_on,,,,,112,0,11,,,,,4,,,43,101
25216,note_off,,,,,256,0,9,,,,,2,,,71,100
25228,note_off,,,,,0,0,15,,,,,7,,,62,100
25228,note_off,,,,,1036,0,15,,,,,7,,,59,100
25232,note_off,,,,,80,0,10,,,,,3,,,67,100
25232,note_off,,,,,80,0,16,,,,,7,,,43,100
25232,note_off,,,,,80,0,14,,,,,6,,,43,100
25232,note_off,,,,,80,0,12,,,,,5,,,31,100
25232,note_off,,,,,0,0,13,,,,,6,,,67,100
25232,note_off,,,,,0,0,13,,,,,6,,,62,100
25232,note_off,,,,,80,0,13,,,,,6,,,59,100
25232,note_off,,,,,80,0,11,,,,,4,,,43,100
25232,note_off,,,,,80,0,8,,,,,1,,,79,100
25344,note_on,,,,,112,0,11,,,,,4,,,45,102
25344,note_on,,,,,0,0,13,,,,,6,,,67,100
25344,note_on,,,,,0,0,13,,,,,6,,,64,100
25344,note_on,,,,,112,0,13,,,,,6,,,60,100
25344,note_on,,,,,112,0,8,,,,,1,,,72,102
25344,note_on,,,,,112,0,10,,,,,3,,,64,102
25344,note_on,,,,,128,0,9,,,,,2,,,79,102
25344,note_on,,,,,116,0,15,,,,,7,,,64,100
25344,note_on,,,,,0,0,15,,,,,7,,,60,100
25344,note_on,,,,,112,0,12,,,,,5,,,33,102
25344,note_on,,,,,112,0,14,,,,,6,,,45,100
25344,note_on,,,,,112,0,16,,,,,7,,,45,100
25424,note_off,,,,,80,0,8,,,,,1,,,72,100
25536,note_on,,,,,112,0,8,,,,,1,,,79,101
25600,note_off,,,,,256,0,12,,,,,5,,,33,100
25600,note_off,,,,,256,0,14,,,,,6,,,45,100
25600,note_off,,,,,256,0,11,,,,,4,,,45,100
25600,note_off,,,,,256,0,16,,,,,7,,,45,100
25600,note_off,,,,,256,0,10,,,,,3,,,64,100
25600,note_off,,,,,0,0,13,,,,,6,,,64,100
25600,note_off,,,,,0,0,13,,,,,6,,,67,100
25600,note_off,,,,,256,0,13,,,,,6,,,60,100
25616,note_off,,,,,80,0,8,,,,,1,,,79,100
25724,note_off,,,,,380,0,9,,,,,2,,,79,100
25728,note_on,,,,,4,0,9,,,,,2,,,76,100
25728,note_on,,,,,112,0,8,,,,,1,,,72,100
25808,note_off,,,,,80,0,8,,,,,1,,,72,100
25920,note_on,,,,,320,0,13,,,,,6,,,60,100
25920,note_on,,,,,320,0,14,,,,,6,,,45,100
25920,note_on,,,,,320,0,12,,,,,5,,,33,98
25920,note_on,,,,,320,0,10,,,,,3,,,64,98
25920,note_on,,,,,0,0,13,,,,,6,,,64,100
25920,note_on,,,,,112,0,8,,,,,1,,,79,98
25920,note_on,,,,,0,0,13,,,,,6,,,67,100
25920,note_on,,,,,320,0,11,,,,,4,,,45,98
25920,note_on,,,,,320,0,16,,,,,7,,,45,100
25984,note_off,,,,,256,0,9,,,,,2,,,76,100
26000,note_off,,,,,80,0,8,,,,,1,,,79,100
26000,note_off,,,,,80,0,16,,,,,7,,,45,100
26000,note_off,,,,,80,0,11,,,,,4,,,45,100
26000,note_off,,,,,80,0,13,,,,,6,,,60,100
26000,note_off,,,,,80,0,14,,,,,6,,,45,100
26000,note_off,,,,,80,0,10,,,,,3,,,64,100
26000,note_off,,,,,0,0,13,,,,,6,,,64,100
26000,note_off,,,,,0,0,13,,,,,6,,,67,100
26000,note_off,,,,,80,0,12,,,,,5,,,33,100
26112,note_on,,,,,112,0,11,,,,,4,,,45,99
26112,note_on,,,,,112,0,14,,,,,6,,,45,100
26112,note_on,,,,,112,0,8,,,,,1,,,72,99
26112,note_on,,,,,112,0,10,,,,,3,,,64,99
26112,note_on,,,,,112,0,13,,,,,6,,,60,100
26112,note_on,,,,,0,0,13,,,,,6,,,64,100
26112,note_on,,,,,0,0,13,,,,,6,,,67,100
26112,note_on,,,,,112,0,16,,,,,7,,,45,100
26112,note_on,,,,,112,0,12,,,,,5,,,33,99
26112,note_on,,,,,128,0,9,,,,,2,,,72,99
26192,note_off,,,,,80,0,12,,,,,5,,,33,100
26192,note_off,,,,,80,0,8,,,,,1,,,72,100
26192,note_off,,,,,80,0,14,,,,,6,,,45,100
26192,note_off,,,,,80,0,11,,,,,4,,,45,100
26192,note_off,,,,,80,0,16,,,,,7,,,45,100
26192,note_off,,,,,80,0,10,,,,,3,,,64,100
26192,note_off,,,,,0,0,13,,,,,6,,,67,100
26192,note_off,,,,,0,0,13,,,,,6,,,64,100
26192,note_off,,,,,80,0,13,,,,,6,,,60,100
26304,note_on,,,,,112,0,10,,,,,3,,,64,101
26304,note_on,,,,,112,0,12,,,,,5,,,33,101
26304,note_on,,,,,112,0,16,,,,,7,,,45,100
26304,note_on,,,,,112,0,14,,,,,6,,,45,100
26304,note_on,,,,,0,0,13,,,,,6,,,64,100
26304,note_on,,,,,0,0,13,,,,,6,,,67,100
26304,note_on,,,,,112,0,13,,,,,6,,,60,100
26304,note_on,,,,,112,0,11,,,,,4,,,45,101
26304,note_on,,,,,112,0,8,,,,,1,,,79,101
26368,note_off,,,,,256,0,9,,,,,2,,,72,100
26380,note_off,,,,,0,0,15,,,,,7,,,60,100
26380,note_off,,,,,1036,0,15,,,,,7,,,64,100
26384,note_off,,,,,0,0,13,,,,,6,,,64,100
26384,note_off,,,,,80,0,13,,,,,6,,,60,100
26384,note_off,,,,,80,0,8,,,,,1,,,79,100
26384,note_off,,,,,80,0,10,,,,,3,,,64,100
26384,note_off,,,,,80,0,14,,,,,6,,,45,100
26384,note_off,,,,,80,0,12,,,,,5,,,33,100
26384,note_off,,,,,80,0,11,,,,,4,,,45,100
26384,note_off,,,,,80,0,16,,,,,7,,,45,100
26384,note_off,,,,,0,0,13,,,,,6,,,67,100
26496,note_on,,,,,128,0,9,,,,,2,,,79,102
26496,note_on,,,,,116,0,15,,,,,7,,,62,100
26496,note_on,,,,,112,0,16,,,,,7,,,47,100
26496,note_on,,,,,112,0,12,,,,,5,,,35,102
26496,note_on,,,,,112,0,10,,,,,3,,,62,102
26496,note_on,,,,,112,0,8,,,,,1,,,74,102
26496,note_on,,,,,112,0,14,,,,,6,,,47,100
26496,note_on,,,,,112,0,11,,,,,4,,,47,102
26496,note_on,,,,,112,0,13,,,,,6,,,62,100
26496,note_on,,,,,0,0,13,,,,,6,,,67,100
26576,note_off,,,,,80,0,8,,,,,1,,,74,100
26688,note_on,,,,,112,0,8,,,,,1,,,79,101
26752,note_off,,,,,256,0,16,,,,,7,,,47,100
26752,note_off,,,,,256,0,13,,,,,6,,,62,100
26752,note_off,,,,,256,0,14,,,,,6,,,47,100
26752,note_off,,,,,256,0,11,,,,,4,,,47,100
26752,note_off,,,,,256,0,12,,,,,5,,,35,100
26752,note_off,,,,,256,0,10,,,,,3,,,62,100
26752,note_off,,,,,0,0,13,,,,,6,,,67,100
26768,note_off,,,,,80,0,8,,,,,1,,,79,100
26876,note_off,,,,,380,0,9,,,,,2,,,79,100
26880,note_on,,,,,4,0,9,,,,,2,,,74,100
26880,note_on,,,,,112,0,8,,,,,1,,,74,100
26960,note_off,,,,,80,0,8,,,,,1,,,74,100
27072,note_on,,,,,320,0,11,,,,,4,,,47,98
27072,note_on,,,,,0,0,13,,,,,6,,,67,100
27072,note_on,,,,,320,0,13,,,,,6,,,62,100
27072,note_on,,,,,112,0,8,,,,,1,,,79,98
27072,note_on,,,,,320,0,16,,,,,7,,,47,100
27072,note_on,,,,,320,0,10,,,,,3,,,62,98
27072,note_on,,,,,320,0,14,,,,,6,,,47,100
27072,note_on,,,,,320,0,12,,,,,5,,,35,98
27136,note_off,,,,,256,0,9,,,,,2,,,74,100
27152,note_off,,,,,80,0,11,,,,,4,,,47,100
27152,note_off,,,,,80,0,16,,,,,7,,,47,100
27152,note_off,,,,,80,0,13,,,,,6,,,62,100
27152,note_off,,,,,80,0,12,,,,,5,,,35,100
27152,note_off,,,,,80,0,8,,,,,1,,,79,100
27152,note_off,,,,,80,0,10,,,,,3,,,62,100
27152,note_off,,,,,80,0,14,,,,,6,,,47,100
27152,note_off,,,,,0,0,13,,,,,6,,,67,100
27264,note_on,,,,,112,0,14,,,,,6,,,47,100
27264,note_on,,,,,112,0,13,,,,,6,,,62,100
27264,note_on,,,,,112,0,11,,,,,4,,,47,99
27264,note_on,,,,,0,0,13,,,,,6,,,67,100
27264,note_on,,,,,128,0,9,,,,,2,,,71,99
27264,note_on,,,,,112,0,12,,,,,5,,,35,99
27264,note_on,,,,,112,0,16,,,,,7,,,47,100
27264,note_on,,,,,112,0,10,,,,,3,,,62,99
27264,note_on,,,,,112,0,8,,,,,1,,,74,99
27344,note_off,,,,,80,0,13,,,,,6,,,62,100
27344,note_off,,,,,80,0,16,,,,,7,,,47,100
27344,note_off,,,,,0,0,13,,,,,6,,,67,100
27344,note_off,,,,,80,0,12,,,,,5,,,35,100
27344,note_off,,,,,80,0,8,,,,,1,,,74,100
27344,note_off,,,,,80,0,11,,,,,4,,,47,100
27344,note_off,,,,,80,0,10,,,,,3,,,62,100
27344,note_off,,,,,80,0,14,,,,,6,,,47,100
27456,note_on,,,,,112,0,13,,,,,6,,,62,100
27456,note_on,,,,,0,0,13,,,,,6,,,67,100
27456,note_on,,,,,112,0,12,,,,,5,,,35,101
27456,note_on,,,,,112,0,14,,,,,6,,,47,100
27456,note_on,,,,,112,0,10,,,,,3,,,62,101
27456,note_on,,,,,112,0,8,,,,,1,,,79,101
27456,note_on,,,,,112,0,16,,,,,7,,,47,100
27456,note_on,,,,,112,0,11,,,,,4,,,47,101
27520,note_off,,,,,256,0,9,,,,,2,,,71,100
27532,note_off,,,,,1036,0,15,,,,,7,,,62,100
27536,note_off,,,,,80,0,16,,,,,7,,,47,100
27536,note_off,,,,,80,0,8,,,,,1,,,79,100
27536,note_off,,,,,80,0,13,,,,,6,,,62,100
27536,note_off,,,,,0,0,13,,,,,6,,,67,100
27536,note_off,,,,,80,0,10,,,,,3,,,62,100
27536,note_off,,,,,80,0,11,,,,,4,,,47,100
27536,note_off,,,,,80,0,14,,,,,6,,,47,100
27536,note_off,,,,,80,0,12,,,,,5,,,35,100
27648,note_on,,,,,128,0,9,,,,,2,,,79,102
27648,note_on,,,,,112,0,11,,,,,4,,,48,102
27648,note_on,,,,,112,0,10,,,,,3,,,60,102
27648,note_on,,,,,112,0,16,,,,,7,,,48,100
27648,note_on,,,,,112,0,14,,,,,6,,,48,100
27648,note_on,,,,,116,0,15,,,,,7,,,64,100
27648,note_on,,,,,112,0,13,,,,,6,,,64,100
27648,note_on,,,,,112,0,8,,,,,1,,,76,102
27648,note_on,,,,,0,0,13,,,,,6,,,67,100
27648,note_on,,,,,112,0,12,,,,,5,,,36,102
27728,note_off,,,,,80,0,8,,,,,1,,,76,100
27840,note_on,,,,,112,0,8,,,,,1,,,79,101
27904,note_off,,,,,256,0,11,,,,,4,,,48,100
27904,note_off,,,,,256,0,12,,,,,5,,,36,100
27904,note_off,,,,,256,0,14,,,,,6,,,48,100
27904,note_off,,,,,256,0,16,,,,,7,,,48,100
27904,note_off,,,,,0,0,13,,,,,6,,,67,100
27904,note_off,,,,,256,0,13,,,,,6,,,64,100
27904,note_off,,,,,256,0,10,,,,,3,,,60,100
27920,note_off,,,,,80,0,8,,,,,1,,,79,100
28028,note_off,,,,,380,0,9,,,,,2,,,79,100
28032,note_on,,,,,112,0,8,,,,,1,,,76,100
28032,note_on,,,,,4,0,9,,,,,2,,,76,100
28112,note_off,,,,,80,0,8,,,,,1,,,76,100
28224,note_on,,,,,320,0,12,,,,,5,,,36,98
28224,note_on,,,,,320,0,11,,,,,4,,,48,98
28224,note_on,,,,,320,0,10,,,,,3,,,60,98
28224,note_on,,,,,0,0,13,,,,,6,,,64,100
28224,note_on,,,,,320,0,13,,,,,6,,,60,100
28224,note_on,,,,,112,0,8,,,,,1,,,79,98
28224,note_on,,,,,0,0,13,,,,,6,,,67,100
28224,note_on,,,,,320,0,14,,,,,6,,,48,100
28224,note_on,,,,,320,0,16,,,,,7,,,48,100
28288,note_off,,,,,256,0,9,,,,,2,,,76,100
28304,note_off,,,,,80,0,11,,,,,4,,,48,100
28304,note_off,,,,,80,0,14,,,,,6,,,48,100
28304,note_off,,,,,80,0,8,,,,,1,,,79,100
28304,note_off,,,,,80,0,10,,,,,3,,,60,100
28304,note_off,,,,,80,0,12,,,,,5,,,36,100
28304,note_off,,,,,0,0,13,,,,,6,,,67,100
28304,note_off,,,,,0,0,13,,,,,6,,,64,100
28304,note_off,,,,,80,0,13,,,,,6,,,60,100
28304,note_off,,,,,80,0,16,,,,,7,,,48,100
28416,note_on,,,,,112,0,16,,,,,7,,,48,100
28416,note_on,,,,,112,0,11,,,,,4,,,48,99
28416,note_on,,,,,0,0,13,,,,,6,,,67,100
28416,note_on,,,,,0,0,13,,,,,6,,,64,100
28416,note_on,,,,,112,0,13,,,,,6,,,60,100
28416,note_on,,,,,112,0,12,,,,,5,,,36,99
28416,note_on,,,,,128,0,9,,,,,2,,,72,99
28416,note_on,,,,,112,0,8,,,,,1,,,76,99
28416,note_on,,,,,112,0,10,,,,,3,,,60,99
28416,note_on,,,,,768,0,15,,,,,7,,,60,100
28416,note_on,,,,,112,0,14,,,,,6,,,48,100
28496,note_off,,,,,80,0,13,,,,,6,,,60,100
28496,note_off,,,,,80,0,14,,,,,6,,,48,100
28496,note_off,,,,,80,0,10,,,,,3,,,60,100
28496,note_off,,,,,80,0,12,,,,,5,,,36,100
28496,note_off,,,,,80,0,11,,,,,4,,,48,100
28496,note_off,,,,,80,0,8,,,,,1,,,76,100
28496,note_off,,,,,80,0,16,,,,,7,,,48,100
28496,note_off,,,,,0,0,13,,,,,6,,,64,100
28496,note_off,,,,,0,0,13,,,,,6,,,67,100
28608,note_on,,,,,112,0,11,,,,,4,,,48,101
28608,note_on,,,,,0,0,13,,,,,6,,,67,100
28608,note_on,,,,,0,0,13,,,,,6,,,64,100
28608,note_on,,,,,112,0,13,,,,,6,,,60,100
28608,note_on,,,,,112,0,16,,,,,7,,,48,100
28608,note_on,,,,,112,0,14,,,,,6,,,48,100
28608,note_on,,,,,112,0,12,,,,,5,,,36,101
28608,note_on,,,,,112,0,10,,,,,3,,,60,101
28608,note_on,,,,,112,0,8,,,,,1,,,79,101
28672,note_off,,,,,256,0,9,,,,,2,,,72,100
28672,note_off,,,,,256,0,15,,,,,7,,,60,100
28684,note_off,,,,,0,0,15,,,,,7,,,64,100
28684,note_off,,,,,12,0,15,,,,,7,,,67,100
28688,note_off,,,,,80,0,14,,,,,6,,,48,100
28688,note_off,,,,,80,0,12,,,,,5,,,36,100
28688,note_off,,,,,80,0,11,,,,,4,,,48,100
28688,note_off,,,,,80,0,8,,,,,1,,,79,100
28688,note_off,,,,,80,0,10,,,,,3,,,60,100
28688,note_off,,,,,80,0,16,,,,,7,,,48,100
28688,note_off,,,,,0,0,13,,,,,6,,,64,100
28688,note_off,,,,,0,0,13,,,,,6,,,67,100
28688,note_off,,,,,80,0,13,,,,,6,,,60,100
28800,note_on,,,,,0,0,13,,,,,6,,,62,100
28800,note_on,,,,,112,0,11,,,,,4,,,43,102
28800,note_on,,,,,0,0,15,,,,,7,,,67,100
28800,note_on,,,,,0,0,13,,,,,6,,,67,100
28800,note_on,,,,,112,0,14,,,,,6,,,43,100
28800,note_on,,,,,112,0,8,,,,,1,,,71,102
28800,note_on,,,,,128,0,9,,,,,2,,,79,102
28800,note_on,,,,,112,0,16,,,,,7,,,43,100
28800,note_on,,,,,0,0,15,,,,,7,,,62,100
28800,note_on,,,,,112,0,10,,,,,3,,,62,102
28800,note_on,,,,,112,0,12,,,,,5,,,31,102
28800,note_on,,,,,112,0,13,,,,,6,,,59,100
28800,note_on,,,,,116,0,15,,,,,7,,,59,100
28880,note_off,,,,,80,0,8,,,,,1,,,71,100
28992,note_on,,,,,112,0,8,,,,,1,,,79,100
29056,note_off,,,,,256,0,12,,,,,5,,,31,100
29056,note_off,,,,,256,0,14,,,,,6,,,43,100
29056,note_off,,,,,256,0,11,,,,,4,,,43,100
29056,note_off,,,,,256,0,10,,,,,3,,,62,100
29056,note_off,,,,,0,0,13,,,,,6,,,62,100
29056,note_off,,,,,256,0,13,,,,,6,,,59,100
29056,note_off,,,,,0,0,13,,,,,6,,,67,100
29056,note_off,,,,,256,0,16,,,,,7,,,43,100
29072,note_off,,,,,80,0,8,,,,,1,,,79,100
29180,note_off,,,,,380,0,9,,,,,2,,,79,100
29184,note_on,,,,,112,0,8,,,,,1,,,71,100
29184,note_on,,,,,4,0,9,,,,,2,,,74,100
29264,note_off,,,,,80,0,8,,,,,1,,,71,100
29376,note_on,,,,,0,0,13,,,,,6,,,67,100
29376,note_on,,,,,0,0,13,,,,,6,,,62,100
29376,note_on,,,,,320,0,14,,,,,6,,,43,100
29376,note_on,,,,,320,0,13,,,,,6,,,59,100
29376,note_on,,,,,320,0,10,,,,,3,,,62,100
29376,note_on,,,,,112,0,8,,,,,1,,,79,100
29376,note_on,,,,,320,0,16,,,,,7,,,43,100
29376,note_on,,,,,320,0,11,,,,,4,,,43,100
29376,note_on,,,,,320,0,12,,,,,5,,,31,100
29440,note_off,,,,,256,0,9,,,,,2,,,74,100
29456,note_off,,,,,0,0,13,,,,,6,,,67,100
29456,note_off,,,,,80,0,10,,,,,3,,,62,100
29456,note_off,,,,,80,0,13,,,,,6,,,59,100
29456,note_off,,,,,80,0,8,,,,,1,,,79,100
29456,note_off,,,,,80,0,16,,,,,7,,,43,100
29456,note_off,,,,,80,0,12,,,,,5,,,31,100
29456,note_off,,,,,0,0,13,,,,,6,,,62,100
29456,note_off,,,,,80,0,11,,,,,4,,,43,100
29456,note_off,,,,,80,0,14,,,,,6,,,43,100
29568,note_on,,,,,128,0,9,,,,,2,,,71,100
29568,note_on,,,,,112,0,10,,,,,3,,,62,100
29568,note_on,,,,,112,0,13,,,,,6,,,59,100
29568,note_on,,,,,0,0,13,,,,,6,,,62,100
29568,note_on,,,,,0,0,13,,,,,6,,,67,100
29568,note_on,,,,,112,0,16,,,,,7,,,43,100
29568,note_on,,,,,112,0,11,,,,,4,,,43,100
29568,note_on,,,,,112,0,12,,,,,5,,,31,100
29568,note_on,,,,,112,0,8,,,,,1,,,71,100
29568,note_on,,,,,112,0,14,,,,,6,,,43,100
29648,note_off,,,,,80,0,16,,,,,7,,,43,100
29648,note_off,,,,,80,0,11,,,,,4,,,43,100
29648,note_off,,,,,80,0,12,,,,,5,,,31,100
29648,note_off,,,,,80,0,10,,,,,3,,,62,100
29648,note_off,,,,,0,0,13,,,,,6,,,67,100
29648,note_off,,,,,0,0,13,,,,,6,,,62,100
29648,note_off,,,,,80,0,13,,,,,6,,,59,100
29648,note_off,,,,,80,0,8,,,,,1,,,71,100
29648,note_off,,,,,80,0,14,,,,,6,,,43,100
29760,note_on,,,,,112,0,10,,,,,3,,,62,100
29760,note_on,,,,,112,0,12,,,,,5,,,31,100
29760,note_on,,,,,112,0,8,,,,,1,,,79,100
29760,note_on,,,,,112,0,16,,,,,7,,,43,100
29760,note_on,,,,,0,0,13,,,,,6,,,62,100
29760,note_on,,,,,0,0,13,,,,,6,,,67,100
29760,note_on,,,,,112,0,13,,,,,6,,,59,100
29760,note_on,,,,,112,0,14,,,,,6,,,43,100
29760,note_on,,,,,112,0,11,,,,,4,,,43,100
29824,note_off,,,,,1024,0,15,,,,,7,,,59,100
29824,note_off,,,,,256,0,9,,,,,2,,,71,100
29840,note_off,,,,,0,0,13,,,,,6,,,67,100
29840,note_off,,,,,80,0,16,,,,,7,,,43,100
29840,note_off,,,,,80,0,14,,,,,6,,,43,100
29840,note_off,,,,,80,0,12,,,,,5,,,31,100
29840,note_off,,,,,0,0,13,,,,,6,,,62,100
29840,note_off,,,,,80,0,8,,,,,1,,,79,100
29840,note_off,,,,,80,0,13,,,,,6,,,59,100
29840,note_off,,,,,80,0,10,,,,,3,,,62,100
29840,note_off,,,,,80,0,11,,,,,4,,,43,100
29952,note_on,,,,,112,0,10,,,,,3,,,62,100
29952,note_on,,,,,112,0,8,,,,,1,,,69,100
29952,note_on,,,,,112,0,11,,,,,4,,,50,100
29952,note_on,,,,,128,0,9,,,,,2,,,79,100
29952,note_on,,,,,112,0,16,,,,,7,,,50,100
29952,note_on,,,,,112,0,14,,,,,6,,,50,100
29952,note_on,,,,,112,0,12,,,,,5,,,38,100
29952,note_on,,,,,0,0,13,,,,,6,,,62,100
29952,note_on,,,,,0,0,13,,,,,6,,,67,100
29952,note_on,,,,,128,0,15,,,,,7,,,57,100
29952,note_on,,,,,112,0,13,,,,,6,,,57,100
30032,note_off,,,,,80,0,8,,,,,1,,,69,100
30144,note_on,,,,,112,0,8,,,,,1,,,79,96
30208,note_off,,,,,256,0,16,,,,,7,,,50,100
30208,note_off,,,,,256,0,10,,,,,3,,,62,100
30208,note_off,,,,,256,0,11,,,,,4,,,50,100
30208,note_off,,,,,256,0,13,,,,,6,,,57,100
30208,note_off,,,,,0,0,13,,,,,6,,,62,100
30208,note_off,,,,,0,0,13,,,,,6,,,67,100
30208,note_off,,,,,256,0,14,,,,,6,,,50,100
30208,note_off,,,,,256,0,12,,,,,5,,,38,100
30224,note_off,,,,,80,0,8,,,,,1,,,79,100
30332,note_off,,,,,380,0,9,,,,,2,,,79,100
30336,note_on,,,,,112,0,8,,,,,1,,,69,97
30336,note_on,,,,,4,0,9,,,,,2,,,74,97
30416,note_off,,,,,80,0,8,,,,,1,,,69,100
30528,note_on,,,,,320,0,16,,,,,7,,,50,100
30528,note_on,,,,,320,0,11,,,,,4,,,50,99
30528,note_on,,,,,320,0,10,,,,,3,,,62,99
30528,note_on,,,,,112,0,8,,,,,1,,,79,99
30528,note_on,,,,,320,0,12,,,,,5,,,38,99
30528,note_on,,,,,0,0,13,,,,,6,,,67,100
30528,note_on,,,,,320,0,13,,,,,6,,,57,100
30528,note_on,,,,,320,0,14,,,,,6,,,50,100
30528,note_on,,,,,0,0,13,,,,,6,,,62,100
30592,note_off,,,,,256,0,9,,,,,2,,,74,100
30608,note_off,,,,,0,0,13,,,,,6,,,62,100
30608,note_off,,,,,80,0,8,,,,,1,,,79,100
30608,note_off,,,,,80,0,11,,,,,4,,,50,100
30608,note_off,,,,,80,0,14,,,,,6,,,50,100
30608,note_off,,,,,80,0,10,,,,,3,,,62,100
30608,note_off,,,,,80,0,16,,,,,7,,,50,100
30608,note_off,,,,,0,0,13,,,,,6,,,67,100
30608,note_off,,,,,80,0,13,,,,,6,,,57,100
30608,note_off,,,,,80,0,12,,,,,5,,,38,100
30720,note_on,,,,,112,0,11,,,,,4,,,50,101
30720,note_on,,,,,0,0,13,,,,,6,,,67,100
30720,note_on,,,,,112,0,10,,,,,3,,,62,101
30720,note_on,,,,,112,0,16,,,,,7,,,50,100
30720,note_on,,,,,112,0,8,,,,,1,,,69,101
30720,note_on,,,,,112,0,14,,,,,6,,,50,100
30720,note_on,,,,,112,0,12,,,,,5,,,38,101
30720,note_on,,,,,112,0,13,,,,,6,,,57,100
30720,note_on,,,,,128,0,9,,,,,2,,,69,101
30720,note_on,,,,,0,0,13,,,,,6,,,62,100
30800,note_off,,,,,80,0,14,,,,,6,,,50,100
30800,note_off,,,,,80,0,11,,,,,4,,,50,100
30800,note_off,,,,,80,0,13,,,,,6,,,57,100
30800,note_off,,,,,0,0,13,,,,,6,,,67,100
30800,note_off,,,,,80,0,10,,,,,3,,,62,100
30800,note_off,,,,,80,0,8,,,,,1,,,69,100
30800,note_off,,,,,0,0,13,,,,,6,,,62,100
30800,note_off,,,,,80,0,16,,,,,7,,,50,100
30800,note_off,,,,,80,0,12,,,,,5,,,38,100
30912,note_on,,,,,112,0,13,,,,,6,,,57,100
30912,note_on,,,,,112,0,16,,,,,7,,,50,100
30912,note_on,,,,,112,0,11,,,,,4,,,50,103
30912,note_on,,,,,112,0,8,,,,,1,,,79,103
30912,note_on,,,,,0,0,13,,,,,6,,,62,100
30912,note_on,,,,,112,0,12,,,,,5,,,38,103
30912,note_on,,,,,0,0,13,,,,,6,,,67,100
30912,note_on,,,,,112,0,10,,,,,3,,,62,103
30912,note_on,,,,,112,0,14,,,,,6,,,50,100
30976,note_off,,,,,1024,0,15,,,,,7,,,67,100
30976,note_off,,,,,256,0,9,,,,,2,,,69,100
30992,note_off,,,,,80,0,12,,,,,5,,,38,100
30992,note_off,,,,,80,0,14,,,,,6,,,50,100
30992,note_off,,,,,80,0,10,,,,,3,,,62,100
30992,note_off,,,,,80,0,8,,,,,1,,,79,100
30992,note_off,,,,,0,0,13,,,,,6,,,67,100
30992,note_off,,,,,0,0,13,,,,,6,,,62,100
30992,note_off,,,,,80,0,13,,,,,6,,,57,100
30992,note_off,,,,,80,0,16,,,,,7,,,50,100
30992,note_off,,,,,80,0,11,,,,,4,,,50,100
31104,note_on,,,,,112,0,11,,,,,4,,,38,104
31104,note_on,,,,,112,0,10,,,,,3,,,62,104
31104,note_on,,,,,112,0,14,,,,,6,,,38,100
31104,note_on,,,,,128,0,15,,,,,7,,,66,100
31104,note_on,,,,,112,0,8,,,,,1,,,69,104
31104,note_on,,,,,112,0,12,,,,,5,,,38,104
31104,note_on,,,,,0,0,13,,,,,6,,,57,100
31104,note_on,,,,,112,0,16,,,,,7,,,38,100
31104,note_on,,,,,112,0,13,,,,,6,,,66,100
31104,note_on,,,,,128,0,9,,,,,2,,,78,104
31104,note_on,,,,,0,0,13,,,,,6,,,62,100
31184,note_off,,,,,80,0,8,,,,,1,,,69,100
31296,note_on,,,,,112,0,8,,,,,1,,,78,103
31360,note_off,,,,,256,0,14,,,,,6,,,38,100
31360,note_off,,,,,256,0,16,,,,,7,,,38,100
31360,note_off,,,,,256,0,10,,,,,3,,,62,100
31360,note_off,,,,,256,0,11,,,,,4,,,38,100
31360,note_off,,,,,0,0,13,,,,,6,,,62,100
31360,note_off,,,,,0,0,13,,,,,6,,,57,100
31360,note_off,,,,,256,0,13,,,,,6,,,66,100
31360,note_off,,,,,256,0,12,,,,,5,,,38,100
31376,note_off,,,,,80,0,8,,,,,1,,,78,100
31484,note_off,,,,,380,0,9,,,,,2,,,78,100
31488,note_on,,,,,112,0,8,,,,,1,,,69,101
31488,note_on,,,,,4,0,9,,,,,2,,,74,101
31568,note_off,,,,,80,0,8,,,,,1,,,69,100
31680,note_on,,,,,320,0,16,,,,,7,,,38,100
31680,note_on,,,,,320,0,10,,,,,3,,,62,100
31680,note_on,,,,,320,0,14,,,,,6,,,38,100
31680,note_on,,,,,320,0,11,,,,,4,,,38,100
31680,note_on,,,,,320,0,12,,,,,5,,,38,100
31680,note_on,,,,,112,0,8,,,,,1,,,78,100
31680,note_on,,,,,0,0,13,,,,,6,,,57,100
31680,note_on,,,,,0,0,13,,,,,6,,,62,100
31680,note_on,,,,,320,0,13,,,,,6,,,66,100
31744,note_off,,,,,256,0,9,,,,,2,,,74,100
31760,note_off,,,,,0,0,13,,,,,6,,,62,100
31760,note_off,,,,,0,0,13,,,,,6,,,57,100
31760,note_off,,,,,80,0,8,,,,,1,,,78,100
31760,note_off,,,,,80,0,13,,,,,6,,,66,100
31760,note_off,,,,,80,0,16,,,,,7,,,38,100
31760,note_off,,,,,80,0,10,,,,,3,,,62,100
31760,note_off,,,,,80,0,11,,,,,4,,,38,100
31760,note_off,,,,,80,0,12,,,,,5,,,38,100
31760,note_off,,,,,80,0,14,,,,,6,,,38,100
31872,note_on,,,,,128,0,9,,,,,2,,,69,98
31872,note_on,,,,,112,0,13,,,,,6,,,66,100
31872,note_on,,,,,0,0,13,,,,,6,,,62,100
31872,note_on,,,,,112,0,8,,,,,1,,,69,98
31872,note_on,,,,,112,0,10,,,,,3,,,62,98
31872,note_on,,,,,0,0,13,,,,,6,,,57,100
31872,note_on,,,,,112,0,12,,,,,5,,,38,98
31872,note_on,,,,,112,0,16,,,,,7,,,38,100
31872,note_on,,,,,112,0,11,,,,,4,,,38,98
31872,note_on,,,,,112,0,14,,,,,6,,,38,100
31952,note_off,,,,,80,0,14,,,,,6,,,38,100
31952,note_off,,,,,80,0,13,,,,,6,,,66,100
31952,note_off,,,,,80,0,11,,,,,4,,,38,100
31952,note_off,,,,,80,0,12,,,,,5,,,38,100
31952,note_off,,,,,80,0,8,,,,,1,,,69,100
31952,note_off,,,,,80,0,16,,,,,7,,,38,100
31952,note_off,,,,,80,0,10,,,,,3,,,62,100
31952,note_off,,,,,0,0,13,,,,,6,,,62,100
31952,note_off,,,,,0,0,13,,,,,6,,,57,100
32064,note_on,,,,,0,0,13,,,,,6,,,57,100
32064,note_on,,,,,0,0,13,,,,,6,,,62,100
32064,note_on,,,,,112,0,13,,,,,6,,,66,100
32064,note_on,,,,,112,0,16,,,,,7,,,38,100
32064,note_on,,,,,112,0,8,,,,,1,,,78,96
32064,note_on,,,,,112,0,11,,,,,4,,,38,96
32064,note_on,,,,,112,0,14,,,,,6,,,38,100
32064,note_on,,,,,112,0,12,,,,,5,,,38,96
32064,note_on,,,,,112,0,10,,,,,3,,,62,96
32128,note_off,,,,,256,0,9,,,,,2,,,69,100
32128,note_off,,,,,0,0,15,,,,,7,,,66,100
32128,note_off,,,,,0,0,15,,,,,7,,,62,100
32128,note_off,,,,,1024,0,15,,,,,7,,,57,100
32144,note_off,,,,,0,0,13,,,,,6,,,57,100
32144,note_off,,,,,80,0,13,,,,,6,,,66,100
32144,note_off,,,,,0,0,13,,,,,6,,,62,100
32144,note_off,,,,,80,0,14,,,,,6,,,38,100
32144,note_off,,,,,80,0,16,,,,,7,,,38,100
32144,note_off,,,,,80,0,8,,,,,1,,,78,100
32144,note_off,,,,,80,0,11,,,,,4,,,38,100
32144,note_off,,,,,80,0,10,,,,,3,,,62,100
32144,note_off,,,,,80,0,12,,,,,5,,,38,100
32188,note_on,,,,,44,0,13,,,,,6,,,55,100
32220,note_on,,,,,32,0,13,,,,,6,,,59,100
32252,note_on,,,,,32,0,13,,,,,6,,,62,100
32256,note_on,,,,,112,0,11,,,,,4,,,43,95
32256,note_on,,,,,0,0,15,,,,,7,,,67,100
32256,note_on,,,,,0,0,15,,,,,7,,,62,100
32256,note_on,,,,,128,0,9,,,,,2,,,71,95
32256,note_on,,,,,128,0,15,,,,,7,,,59,100
32256,note_on,,,,,112,0,16,,,,,7,,,43,100
32256,note_on,,,,,112,0,8,,,,,1,,,79,95
32256,note_on,,,,,112,0,12,,,,,5,,,31,95
32256,note_on,,,,,112,0,14,,,,,6,,,43,100
32256,note_on,,,,,112,0,10,,,,,3,,,62,95
32284,note_on,,,,,32,0,13,,,,,6,,,67,100
32448,note_on,,,,,32448,0,7,,,,,0,,,79,100
32508,note_off,,,,,224,0,13,,,,,6,,,55,100
32508,note_off,,,,,0,0,13,,,,,6,,,59,100
32508,note_off,,,,,0,0,13,,,,,6,,,62,100
32508,note_off,,,,,0,0,13,,,,,6,,,67,100
32512,note_off,,,,,256,0,9,,,,,2,,,71,100
32512,note_off,,,,,256,0,14,,,,,6,,,43,100
32512,note_off,,,,,256,0,11,,,,,4,,,43,100
32512,note_off,,,,,0,0,15,,,,,7,,,67,100
32512,note_off,,,,,0,0,15,,,,,7,,,62,100
32512,note_off,,,,,256,0,12,,,,,5,,,31,100
32512,note_off,,,,,256,0,15,,,,,7,,,59,100
32512,note_off,,,,,256,0,16,,,,,7,,,43,100
32512,note_off,,,,,256,0,10,,,,,3,,,62,100
32512,note_off,,,,,256,0,8,,,,,1,,,79,100
32548,note_off,,,,,100,0,7,,,,,0,,,79,100
32640,note_on,,,,,92,0,7,,,,,0,,,71,100
32828,note_off,,,,,188,0,7,,,,,0,,,71,100
32832,note_on,,,,,4,0,7,,,,,0,,,72,100
33020,note_off,,,,,188,0,7,,,,,0,,,72,100
33024,note_on,,,,,4,0,7,,,,,0,,,74,100
33124,note_off,,,,,100,0,7,,,,,0,,,74,100
33216,note_on,,,,,704,0,11,,,,,4,,,36,75
33216,note_on,,,,,92,0,7,,,,,0,,,76,100
33216,note_on,,,,,704,0,12,,,,,5,,,36,75
33216,note_on,,,,,704,0,8,,,,,1,,,76,75
33216,note_on,,,,,704,0,9,,,,,2,,,72,75
33216,note_on,,,,,704,0,14,,,,,6,,,36,100
33216,note_on,,,,,0,0,13,,,,,6,,,64,100
33216,note_on,,,,,708,0,13,,,,,6,,,55,100
33216,note_on,,,,,704,0,10,,,,,3,,,67,75
33316,note_off,,,,,100,0,10,,,,,3,,,67,100
33316,note_off,,,,,100,0,7,,,,,0,,,76,100
33316,note_off,,,,,100,0,9,,,,,2,,,72,100
33316,note_off,,,,,100,0,14,,,,,6,,,36,100
33316,note_off,,,,,0,0,13,,,,,6,,,64,100
33316,note_off,,,,,100,0,13,,,,,6,,,55,100
33316,note_off,,,,,100,0,12,,,,,5,,,36,100
33316,note_off,,,,,100,0,8,,,,,1,,,76,100
33316,note_off,,,,,100,0,11,,,,,4,,,36,100
33408,note_on,,,,,92,0,8,,,,,1,,,74,75
33408,note_on,,,,,92,0,10,,,,,3,,,67,75
33408,note_on,,,,,92,0,13,,,,,6,,,59,100
33408,note_on,,,,,0,0,13,,,,,6,,,62,100
33408,note_on,,,,,92,0,9,,,,,2,,,71,75
33408,note_on,,,,,92,0,11,,,,,4,,,43,75
33408,note_on,,,,,92,0,12,,,,,5,,,31,75
33408,note_on,,,,,92,0,14,,,,,6,,,43,100
33408,note_on,,,,,92,0,7,,,,,0,,,74,100
33508,note_off,,,,,100,0,7,,,,,0,,,74,100
33600,note_on,,,,,92,0,7,,,,,0,,,79,80
33608,note_off,,,,,0,0,13,,,,,6,,,62,100
33608,note_off,,,,,200,0,12,,,,,5,,,31,100
33608,note_off,,,,,200,0,14,,,,,6,,,43,100
33608,note_off,,,,,200,0,11,,,,,4,,,43,100
33608,note_off,,,,,200,0,13,,,,,6,,,59,100
33664,note_off,,,,,256,0,8,,,,,1,,,74,100
33664,note_off,,,,,256,0,10,,,,,3,,,67,100
33664,note_off,,,,,256,0,9,,,,,2,,,71,100
33700,note_off,,,,,100,0,7,,,,,0,,,79,100
33792,note_on,,,,,92,0,7,,,,,0,,,71,80
33792,note_on,,,,,184,0,11,,,,,4,,,55,75
33792,note_on,,,,,0,0,13,,,,,6,,,71,100
33792,note_on,,,,,184,0,13,,,,,6,,,62,100
33792,note_on,,,,,184,0,14,,,,,6,,,55,100
33792,note_on,,,,,184,0,12,,,,,5,,,43,75
33980,note_off,,,,,188,0,7,,,,,0,,,71,100
33984,note_on,,,,,4,0,7,,,,,0,,,72,80
34048,note_off,,,,,256,0,12,,,,,5,,,43,100
34048,note_off,,,,,256,0,11,,,,,4,,,55,100
34048,note_off,,,,,256,0,13,,,,,6,,,62,100
34048,note_off,,,,,0,0,13,,,,,6,,,71,100
34048,note_off,,,,,256,0,14,,,,,6,,,55,100
34172,note_off,,,,,188,0,7,,,,,0,,,72,100
34176,note_on,,,,,4,0,7,,,,,0,,,74,80
34276,note_off,,,,,100,0,7,,,,,0,,,74,100
34368,note_on,,,,,92,0,7,,,,,0,,,76,80
34368,note_on,,,,,320,0,14,,,,,6,,,36,100
34368,note_on,,,,,704,0,9,,,,,2,,,72,65
34368,note_on,,,,,704,0,10,,,,,3,,,67,65
34368,note_on,,,,,320,0,13,,,,,6,,,55,100
34368,note_on,,,,,320,0,12,,,,,5,,,36,65
34368,note_on,,,,,320,0,11,,,,,4,,,36,65
34368,note_on,,,,,0,0,13,,,,,6,,,64,100
34368,note_on,,,,,704,0,8,,,,,1,,,76,65
34468,note_off,,,,,100,0,7,,,,,0,,,76,100
34468,note_off,,,,,100,0,9,,,,,2,,,72,100
34468,note_off,,,,,100,0,8,,,,,1,,,76,100
34468,note_off,,,,,100,0,11,,,,,4,,,36,100
34468,note_off,,,,,100,0,10,,,,,3,,,67,100
34468,note_off,,,,,0,0,13,,,,,6,,,64,100
34468,note_off,,,,,100,0,13,,,,,6,,,55,100
34468,note_off,,,,,100,0,12,,,,,5,,,36,100
34468,note_off,,,,,100,0,14,,,,,6,,,36,100
34560,note_on,,,,,92,0,11,,,,,4,,,43,65
34560,note_on,,,,,92,0,10,,,,,3,,,67,65
34560,note_on,,,,,92,0,9,,,,,2,,,71,65
34560,note_on,,,,,92,0,7,,,,,0,,,74,89
34560,note_on,,,,,0,0,13,,,,,6,,,62,100
34560,note_on,,,,,92,0,13,,,,,6,,,59,100
34560,note_on,,,,,92,0,14,,,,,6,,,43,100
34560,note_on,,,,,92,0,12,,,,,5,,,31,65
34560,note_on,,,,,92,0,8,,,,,1,,,74,65
34660,note_off,,,,,100,0,7,,,,,0,,,74,100
34752,note_on,,,,,92,0,7,,,,,0,,,79,99
34760,note_off,,,,,0,0,13,,,,,6,,,62,100
34760,note_off,,,,,200,0,13,,,,,6,,,59,100
34760,note_off,,,,,200,0,14,,,,,6,,,43,100
34760,note_off,,,,,200,0,11,,,,,4,,,43,100
34760,note_off,,,,,200,0,12,,,,,5,,,31,100
34816,note_off,,,,,256,0,10,,,,,3,,,67,100
34816,note_off,,,,,256,0,8,,,,,1,,,74,100
34816,note_off,,,,,256,0,9,,,,,2,,,71,100
34852,note_off,,,,,100,0,7,,,,,0,,,79,100
34944,note_on,,,,,184,0,11,,,,,4,,,55,65
34944,note_on,,,,,184,0,13,,,,,6,,,62,100
34944,note_on,,,,,0,0,13,,,,,6,,,71,100
34944,note_on,,,,,184,0,12,,,,,5,,,43,65
34944,note_on,,,,,92,0,7,,,,,0,,,71,100
34944,note_on,,,,,184,0,14,,,,,6,,,55,100
35132,note_off,,,,,188,0,7,,,,,0,,,71,100
35136,note_on,,,,,4,0,7,,,,,0,,,72,100
35200,note_off,,,,,256,0,13,,,,,6,,,62,100
35200,note_off,,,,,0,0,13,,,,,6,,,71,100
35200,note_off,,,,,256,0,14,,,,,6,,,55,100
35200,note_off,,,,,256,0,12,,,,,5,,,43,100
35200,note_off,,,,,256,0,11,,,,,4,,,55,100
35324,note_off,,,,,188,0,7,,,,,0,,,72,100
35328,note_on,,,,,4,0,7,,,,,0,,,74,100
35428,note_off,,,,,100,0,7,,,,,0,,,74,100
35520,note_on,,,,,704,0,10,,,,,3,,,67,75
35520,note_on,,,,,92,0,7,,,,,0,,,76,100
35520,note_on,,,,,320,0,11,,,,,4,,,36,75
35520,note_on,,,,,320,0,14,,,,,6,,,36,100
35520,note_on,,,,,0,0,13,,,,,6,,,64,100
35520,note_on,,,,,320,0,12,,,,,5,,,36,75
35520,note_on,,,,,704,0,9,,,,,2,,,72,75
35520,note_on,,,,,320,0,13,,,,,6,,,55,100
35520,note_on,,,,,704,0,8,,,,,1,,,76,75
35620,note_off,,,,,100,0,10,,,,,3,,,67,100
35620,note_off,,,,,100,0,8,,,,,1,,,76,100
35620,note_off,,,,,100,0,11,,,,,4,,,36,100
35620,note_off,,,,,100,0,12,,,,,5,,,36,100
35620,note_off,,,,,100,0,9,,,,,2,,,72,100
35620,note_off,,,,,100,0,14,,,,,6,,,36,100
35620,note_off,,,,,0,0,13,,,,,6,,,64,100
35620,note_off,,,,,100,0,13,,,,,6,,,55,100
35620,note_off,,,,,100,0,7,,,,,0,,,76,100
35712,note_on,,,,,92,0,12,,,,,5,,,31,75
35712,note_on,,,,,0,0,13,,,,,6,,,62,100
35712,note_on,,,,,0,0,13,,,,,6,,,59,100
35712,note_on,,,,,92,0,13,,,,,6,,,67,100
35712,note_on,,,,,92,0,8,,,,,1,,,74,75
35712,note_on,,,,,92,0,11,,,,,4,,,43,75
35712,note_on,,,,,92,0,10,,,,,3,,,67,75
35712,note_on,,,,,92,0,9,,,,,2,,,71,75
35712,note_on,,,,,92,0,14,,,,,6,,,43,100
35712,note_on,,,,,92,0,7,,,,,0,,,74,100
35812,note_off,,,,,100,0,7,,,,,0,,,74,100
35904,note_on,,,,,92,0,7,,,,,0,,,67,100
35968,note_off,,,,,256,0,13,,,,,6,,,67,100
35968,note_off,,,,,256,0,11,,,,,4,,,43,100
35968,note_off,,,,,256,0,12,,,,,5,,,31,100
35968,note_off,,,,,0,0,13,,,,,6,,,62,100
35968,note_off,,,,,0,0,13,,,,,6,,,59,100
35968,note_off,,,,,256,0,8,,,,,1,,,74,100
35968,note_off,,,,,256,0,9,,,,,2,,,71,100
35968,note_off,,,,,256,0,14,,,,,6,,,43,100
35968,note_off,,,,,256,0,10,,,,,3,,,67,100
35996,note_off,,,,,92,0,7,,,,,0,,,67,100
36000,note_on,,,,,4,0,7,,,,,0,,,69,100
36092,note_off,,,,,92,0,7,,,,,0,,,69,100
36096,note_on,,,,,4,0,7,,,,,0,,,71,99
36196,note_off,,,,,100,0,7,,,,,0,,,71,100
36288,note_on,,,,,92,0,7,,,,,0,,,71,97
36380,note_off,,,,,92,0,7,,,,,0,,,71,100
36384,note_on,,,,,4,0,7,,,,,0,,,72,97
36476,note_off,,,,,92,0,7,,,,,0,,,72,100
36480,note_on,,,,,4,0,7,,,,,0,,,74,96
36580,note_off,,,,,100,0,7,,,,,0,,,74,100
36672,note_on,,,,,92,0,7,,,,,0,,,76,94
36764,note_off,,,,,92,0,7,,,,,0,,,76,100
36768,note_on,,,,,4,0,7,,,,,0,,,78,93
36860,note_off,,,,,92,0,7,,,,,0,,,78,100
36864,note_on,,,,,896,0,8,,,,,1,,,79,75
36864,note_on,,,,,896,0,9,,,,,2,,,74,75
36864,note_on,,,,,896,0,12,,,,,5,,,31,75
36864,note_on,,,,,896,0,10,,,,,3,,,71,75
36864,note_on,,,,,0,0,13,,,,,6,,,62,100
36864,note_on,,,,,0,0,13,,,,,6,,,59,100
36864,note_on,,,,,4,0,7,,,,,0,,,79,92
36864,note_on,,,,,896,0,11,,,,,4,,,43,75
36864,note_on,,,,,896,0,14,,,,,6,,,43,100
36864,note_on,,,,,896,0,13,,,,,6,,,67,100
36964,note_off,,,,,100,0,7,,,,,0,,,79,100
37056,note_on,,,,,92,0,7,,,,,0,,,74,94
37120,note_off,,,,,256,0,9,,,,,2,,,74,100
37120,note_off,,,,,256,0,10,,,,,3,,,71,100
37120,note_off,,,,,256,0,13,,,,,6,,,67,100
37120,note_off,,,,,0,0,13,,,,,6,,,59,100
37120,note_off,,,,,0,0,13,,,,,6,,,62,100
37120,note_off,,,,,256,0,12,,,,,5,,,31,100
37120,note_off,,,,,256,0,8,,,,,1,,,79,100
37120,note_off,,,,,256,0,14,,,,,6,,,43,100
37120,note_off,,,,,256,0,11,,,,,4,,,43,100
37156,note_off,,,,,100,0,7,,,,,0,,,74,100
37248,note_on,,,,,92,0,7,,,,,0,,,79,97
37348,note_off,,,,,100,0,7,,,,,0,,,79,100
37440,note_on,,,,,92,0,7,,,,,0,,,83,100
37540,note_off,,,,,100,0,7,,,,,0,,,83,100
37632,note_on,,,,,92,0,7,,,,,0,,,86,103
37732,note_off,,,,,100,0,7,,,,,0,,,86,100
37824,note_on,,,,,704,0,11,,,,,4,,,43,75
37824,note_on,,,,,704,0,9,,,,,2,,,79,75
37824,note_on,,,,,704,0,12,,,,,5,,,31,75
37824,note_on,,,,,704,0,14,,,,,6,,,43,100
37824,note_on,,,,,704,0,8,,,,,1,,,83,75
37824,note_on,,,,,704,0,10,,,,,3,,,74,75
37824,note_on,,,,,0,0,13,,,,,6,,,71,100
37824,note_on,,,,,92,0,7,,,,,0,,,83,100
37824,note_on,,,,,704,0,13,,,,,6,,,62,100
37924,note_off,,,,,0,0,13,,,,,6,,,71,100
37924,note_off,,,,,100,0,13,,,,,6,,,62,100
37924,note_off,,,,,100,0,12,,,,,5,,,31,100
37924,note_off,,,,,100,0,8,,,,,1,,,83,100
37924,note_off,,,,,100,0,9,,,,,2,,,79,100
37924,note_off,,,,,100,0,11,,,,,4,,,43,100
37924,note_off,,,,,100,0,10,,,,,3,,,74,100
37924,note_off,,,,,100,0,14,,,,,6,,,43,100
37924,note_off,,,,,100,0,7,,,,,0,,,83,100
38016,note_on,,,,,92,0,9,,,,,2,,,78,75
38016,note_on,,,,,92,0,8,,,,,1,,,81,75
38016,note_on,,,,,92,0,12,,,,,5,,,38,75
38016,note_on,,,,,92,0,11,,,,,4,,,50,75
38016,note_on,,,,,92,0,14,,,,,6,,,50,100
38016,note_on,,,,,92,0,7,,,,,0,,,81,100
38016,note_on,,,,,92,0,10,,,,,3,,,74,75
38016,note_on,,,,,0,0,13,,,,,6,,,69,100
38016,note_on,,,,,92,0,13,,,,,6,,,66,100
38116,note_off,,,,,100,0,7,,,,,0,,,81,100
38208,note_on,,,,,92,0,7,,,,,0,,,86,100
38216,note_off,,,,,200,0,12,,,,,5,,,38,100
38216,note_off,,,,,200,0,13,,,,,6,,,66,100
38216,note_off,,,,,0,0,13,,,,,6,,,69,100
38216,note_off,,,,,200,0,14,,,,,6,,,50,100
38216,note_off,,,,,200,0,11,,,,,4,,,50,100
38272,note_off,,,,,256,0,10,,,,,3,,,74,100
38272,note_off,,,,,256,0,9,,,,,2,,,78,100
38272,note_off,,,,,256,0,8,,,,,1,,,81,100
38308,note_off,,,,,100,0,7,,,,,0,,,86,100
38400,note_on,,,,,184,0,12,,,,,5,,,50,75
38400,note_on,,,,,184,0,11,,,,,4,,,62,75
38400,note_on,,,,,92,0,7,,,,,0,,,78,100
38400,note_on,,,,,0,0,13,,,,,6,,,78,100
38400,note_on,,,,,184,0,14,,,,,6,,,62,100
38400,note_on,,,,,184,0,13,,,,,6,,,69,100
38588,note_off,,,,,188,0,7,,,,,0,,,78,100
38592,note_on,,,,,4,0,7,,,,,0,,,79,100
38656,note_off,,,,,256,0,11,,,,,4,,,62,100
38656,note_off,,,,,256,0,12,,,,,5,,,50,100
38656,note_off,,,,,0,0,13,,,,,6,,,78,100
38656,note_off,,,,,256,0,14,,,,,6,,,62,100
38656,note_off,,,,,256,0,13,,,,,6,,,69,100
38780,note_off,,,,,188,0,7,,,,,0,,,79,100
38784,note_on,,,,,4,0,7,,,,,0,,,81,100
38884,note_off,,,,,100,0,7,,,,,0,,,81,100
38976,note_on,,,,,704,0,9,,,,,2,,,79,65
38976,note_on,,,,,320,0,11,,,,,4,,,43,65
38976,note_on,,,,,320,0,14,,,,,6,,,43,100
38976,note_on,,,,,320,0,12,,,,,5,,,31,65
38976,note_on,,,,,704,0,8,,,,,1,,,83,65
38976,note_on,,,,,92,0,7,,,,,0,,,83,100
38976,note_on,,,,,320,0,13,,,,,6,,,62,100
38976,note_on,,,,,0,0,13,,,,,6,,,71,100
38976,note_on,,,,,704,0,10,,,,,3,,,74,65
39076,note_off,,,,,0,0,13,,,,,6,,,71,100
39076,note_off,,,,,100,0,8,,,,,1,,,83,100
39076,note_off,,,,,100,0,14,,,,,6,,,43,100
39076,note_off,,,,,100,0,11,,,,,4,,,43,100
39076,note_off,,,,,100,0,13,,,,,6,,,62,100
39076,note_off,,,,,100,0,7,,,,,0,,,83,100
39076,note_off,,,,,100,0,10,,,,,3,,,74,100
39076,note_off,,,,,100,0,12,,,,,5,,,31,100
39076,note_off,,,,,100,0,9,,,,,2,,,79,100
39168,note_on,,,,,92,0,12,,,,,5,,,38,65
39168,note_on,,,,,92,0,10,,,,,3,,,74,65
39168,note_on,,,,,92,0,11,,,,,4,,,50,65
39168,note_on,,,,,92,0,8,,,,,1,,,81,65
39168,note_on,,,,,92,0,13,,,,,6,,,66,100
39168,note_on,,,,,0,0,13,,,,,6,,,69,100
39168,note_on,,,,,92,0,9,,,,,2,,,78,65
39168,note_on,,,,,92,0,7,,,,,0,,,81,100
39168,note_on,,,,,92,0,14,,,,,6,,,50,100
39268,note_off,,,,,100,0,7,,,,,0,,,81,100
39360,note_on,,,,,92,0,7,,,,,0,,,86,80
39368,note_off,,,,,200,0,11,,,,,4,,,50,100
39368,note_off,,,,,200,0,12,,,,,5,,,38,100
39368,note_off,,,,,0,0,13,,,,,6,,,69,100
39368,note_off,,,,,200,0,13,,,,,6,,,66,100
39368,note_off,,,,,200,0,14,,,,,6,,,50,100
39424,note_off,,,,,256,0,9,,,,,2,,,78,100
39424,note_off,,,,,256,0,8,,,,,1,,,81,100
39424,note_off,,,,,256,0,10,,,,,3,,,74,100
39460,note_off,,,,,100,0,7,,,,,0,,,86,100
39552,note_on,,,,,184,0,12,,,,,5,,,50,65
39552,note_on,,,,,184,0,11,,,,,4,,,62,65
39552,note_on,,,,,0,0,13,,,,,6,,,78,100
39552,note_on,,,,,184,0,13,,,,,6,,,69,100
39552,note_on,,,,,92,0,7,,,,,0,,,78,80
39552,note_on,,,,,184,0,14,,,,,6,,,62,100
39740,note_off,,,,,188,0,7,,,,,0,,,78,100
39744,note_on,,,,,4,0,7,,,,,0,,,79,80
39808,note_off,,,,,256,0,12,,,,,5,,,50,100
39808,note_off,,,,,256,0,11,,,,,4,,,62,100
39808,note_off,,,,,0,0,13,,,,,6,,,78,100
39808,note_off,,,,,256,0,14,,,,,6,,,62,100
39808,note_off,,,,,256,0,13,,,,,6,,,69,100
39932,note_off,,,,,188,0,7,,,,,0,,,79,100
39936,note_on,,,,,4,0,7,,,,,0,,,81,80
40036,note_off,,,,,100,0,7,,,,,0,,,81,100
40128,note_on,,,,,704,0,8,,,,,1,,,83,75
40128,note_on,,,,,320,0,13,,,,,6,,,62,100
40128,note_on,,,,,0,0,13,,,,,6,,,71,100
40128,note_on,,,,,704,0,9,,,,,2,,,79,75
40128,note_on,,,,,320,0,12,,,,,5,,,31,75
40128,note_on,,,,,320,0,14,,,,,6,,,43,100
40128,note_on,,,,,320,0,11,,,,,4,,,43,75
40128,note_on,,,,,704,0,10,,,,,3,,,74,75
40128,note_on,,,,,92,0,7,,,,,0,,,83,89
40228,note_off,,,,,0,0,13,,,,,6,,,71,100
40228,note_off,,,,,100,0,9,,,,,2,,,79,100
40228,note_off,,,,,100,0,10,,,,,3,,,74,100
40228,note_off,,,,,100,0,8,,,,,1,,,83,100
40228,note_off,,,,,100,0,12,,,,,5,,,31,100
40228,note_off,,,,,100,0,11,,,,,4,,,43,100
40228,note_off,,,,,100,0,13,,,,,6,,,62,100
40228,note_off,,,,,100,0,14,,,,,6,,,43,100
40228,note_off,,,,,100,0,7,,,,,0,,,83,100
40320,note_on,,,,,92,0,7,,,,,0,,,81,99
40320,note_on,,,,,92,0,8,,,,,1,,,81,75
40320,note_on,,,,,92,0,14,,,,,6,,,50,100
40320,note_on,,,,,92,0,10,,,,,3,,,74,75
40320,note_on,,,,,92,0,13,,,,,6,,,74,100
40320,note_on,,,,,92,0,12,,,,,5,,,38,75
40320,note_on,,,,,0,0,13,,,,,6,,,69,100
40320,note_on,,,,,0,0,13,,,,,6,,,66,100
40320,note_on,,,,,92,0,11,,,,,4,,,50,75
40320,note_on,,,,,92,0,9,,,,,2,,,78,75
40420,note_off,,,,,100,0,7,,,,,0,,,81,100
40512,note_on,,,,,92,0,7,,,,,0,,,74,100
40576,note_off,,,,,256,0,14,,,,,6,,,50,100
40576,note_off,,,,,256,0,10,,,,,3,,,74,100
40576,note_off,,,,,256,0,11,,,,,4,,,50,100
40576,note_off,,,,,256,0,9,,,,,2,,,78,100
40576,note_off,,,,,256,0,8,,,,,1,,,81,100
40576,note_off,,,,,256,0,12,,,,,5,,,38,100
40576,note_off,,,,,0,0,13,,,,,6,,,69,100
40576,note_off,,,,,0,0,13,,,,,6,,,66,100
40576,note_off,,,,,256,0,13,,,,,6,,,74,100
40700,note_off,,,,,188,0,7,,,,,0,,,74,100
40704,note_on,,,,,4,0,7,,,,,0,,,78,100
40892,note_off,,,,,188,0,7,,,,,0,,,78,100
40896,note_on,,,,,320,0,10,,,,,3,,,69,75
40896,note_on,,,,,320,0,13,,,,,6,,,66,100
40896,note_on,,,,,0,0,13,,,,,6,,,69,100
40896,note_on,,,,,4,0,7,,,,,0,,,81,100
40896,note_on,,,,,320,0,8,,,,,1,,,81,75
40896,note_on,,,,,320,0,11,,,,,4,,,50,75
40896,note_on,,,,,320,0,12,,,,,5,,,38,75
40896,note_on,,,,,320,0,14,,,,,6,,,50,100
40896,note_on,,,,,320,0,9,,,,,2,,,78,75
40996,note_off,,,,,100,0,14,,,,,6,,,50,100
40996,note_off,,,,,100,0,8,,,,,1,,,81,100
40996,note_off,,,,,100,0,9,,,,,2,,,78,100
40996,note_off,,,,,100,0,13,,,,,6,,,66,100
40996,note_off,,,,,100,0,10,,,,,3,,,69,100
40996,note_off,,,,,0,0,13,,,,,6,,,69,100
40996,note_off,,,,,100,0,11,,,,,4,,,50,100
40996,note_off,,,,,100,0,7,,,,,0,,,81,100
40996,note_off,,,,,100,0,12,,,,,5,,,38,100
41088,note_on,,,,,92,0,7,,,,,0,,,84,100
41088,note_on,,,,,92,0,9,,,,,2,,,81,75
41088,note_on,,,,,92,0,13,,,,,6,,,69,100
41088,note_on,,,,,92,0,12,,,,,5,,,50,75
41088,note_on,,,,,0,0,13,,,,,6,,,72,100
41088,note_on,,,,,92,0,11,,,,,4,,,62,75
41088,note_on,,,,,92,0,14,,,,,6,,,62,100
41088,note_on,,,,,92,0,8,,,,,1,,,84,75
41088,note_on,,,,,92,0,10,,,,,3,,,66,75
41188,note_off,,,,,100,0,14,,,,,6,,,62,100
41188,note_off,,,,,100,0,7,,,,,0,,,84,100
41188,note_off,,,,,100,0,10,,,,,3,,,66,100
41188,note_off,,,,,0,0,13,,,,,6,,,72,100
41188,note_off,,,,,100,0,12,,,,,5,,,50,100
41188,note_off,,,,,100,0,13,,,,,6,,,69,100
41188,note_off,,,,,100,0,11,,,,,4,,,62,100
41188,note_off,,,,,100,0,8,,,,,1,,,84,100
41188,note_off,,,,,100,0,9,,,,,2,,,81,100
41280,note_on,,,,,92,0,11,,,,,4,,,50,75
41280,note_on,,,,,92,0,12,,,,,5,,,38,75
41280,note_on,,,,,92,0,9,,,,,2,,,78,75
41280,note_on,,,,,92,0,10,,,,,3,,,66,75
41280,note_on,,,,,92,0,13,,,,,6,,,66,100
41280,note_on,,,,,92,0,7,,,,,0,,,81,100
41280,note_on,,,,,0,0,13,,,,,6,,,69,100
41280,note_on,,,,,92,0,14,,,,,6,,,50,100
41280,note_on,,,,,92,0,8,,,,,1,,,81,75
41380,note_off,,,,,100,0,8,,,,,1,,,81,100
41380,note_off,,,,,100,0,14,,,,,6,,,50,100
41380,note_off,,,,,100,0,12,,,,,5,,,38,100
41380,note_off,,,,,100,0,13,,,,,6,,,66,100
41380,note_off,,,,,0,0,13,,,,,6,,,69,100
41380,note_off,,,,,100,0,7,,,,,0,,,81,100
41380,note_off,,,,,100,0,11,,,,,4,,,50,100
41380,note_off,,,,,100,0,10,,,,,3,,,66,100
41380,note_off,,,,,100,0,9,,,,,2,,,78,100
41472,note_on,,,,,0,0,13,,,,,6,,,71,100
41472,note_on,,,,,0,0,13,,,,,6,,,67,100
41472,note_on,,,,,92,0,13,,,,,6,,,62,100
41472,note_on,,,,,92,0,14,,,,,6,,,43,100
41472,note_on,,,,,92,0,8,,,,,1,,,83,75
41472,note_on,,,,,92,0,9,,,,,2,,,79,75
41472,note_on,,,,,92,0,10,,,,,3,,,62,75
41472,note_on,,,,,92,0,7,,,,,0,,,83,100
41472,note_on,,,,,92,0,12,,,,,5,,,31,75
41472,note_on,,,,,92,0,11,,,,,4,,,43,75
41572,note_off,,,,,100,0,7,,,,,0,,,83,100
41664,note_on,,,,,92,0,7,,,,,0,,,86,105
41728,note_off,,,,,0,0,13,,,,,6,,,67,100
41728,note_off,,,,,0,0,13,,,,,6,,,71,100
41728,note_off,,,,,256,0,14,,,,,6,,,43,100
41728,note_off,,,,,256,0,12,,,,,5,,,31,100
41728,note_off,,,,,256,0,10,,,,,3,,,62,100
41728,note_off,,,,,256,0,13,,,,,6,,,62,100
41728,note_off,,,,,256,0,11,,,,,4,,,43,100
41728,note_off,,,,,256,0,9,,,,,2,,,79,100
41728,note_off,,,,,256,0,8,,,,,1,,,83,100
41756,note_off,,,,,92,0,7,,,,,0,,,86,100
41760,note_on,,,,,4,0,7,,,,,0,,,84,105
41852,note_off,,,,,92,0,7,,,,,0,,,84,100
41856,note_on,,,,,0,0,13,,,,,6,,,71,100
41856,note_on,,,,,128,0,13,,,,,6,,,67,100
41856,note_on,,,,,128,0,14,,,,,6,,,62,100
41856,note_on,,,,,4,0,7,,,,,0,,,83,104
41856,note_on,,,,,128,0,11,,,,,4,,,62,94
41956,note_off,,,,,100,0,7,,,,,0,,,83,100
41956,note_off,,,,,100,0,14,,,,,6,,,62,100
41956,note_off,,,,,100,0,11,,,,,4,,,62,100
42048,note_on,,,,,92,0,7,,,,,0,,,83,102
42048,note_on,,,,,92,0,11,,,,,4,,,60,92
42048,note_on,,,,,92,0,14,,,,,6,,,60,100
42140,note_off,,,,,92,0,7,,,,,0,,,83,100
42144,note_on,,,,,4,0,7,,,,,0,,,81,101
42148,note_off,,,,,100,0,14,,,,,6,,,60,100
42148,note_off,,,,,100,0,11,,,,,4,,,60,100
42236,note_off,,,,,92,0,7,,,,,0,,,81,100
42240,note_on,,,,,92,0,11,,,,,4,,,59,90
42240,note_on,,,,,92,0,14,,,,,6,,,59,100
42240,note_on,,,,,4,0,7,,,,,0,,,79,100
42340,note_off,,,,,100,0,11,,,,,4,,,59,100
42340,note_off,,,,,100,0,7,,,,,0,,,79,100
42340,note_off,,,,,100,0,14,,,,,6,,,59,100
42368,note_off,,,,,512,0,13,,,,,6,,,67,100
42368,note_off,,,,,0,0,13,,,,,6,,,71,100
42432,note_on,,,,,92,0,11,,,,,4,,,57,88
42432,note_on,,,,,92,0,7,,,,,0,,,79,98
42432,note_on,,,,,92,0,14,,,,,6,,,57,100
42524,note_off,,,,,92,0,7,,,,,0,,,79,100
42528,note_on,,,,,4,0,7,,,,,0,,,78,97
42532,note_off,,,,,100,0,11,,,,,4,,,57,100
42532,note_off,,,,,100,0,14,,,,,6,,,57,100
42620,note_off,,,,,92,0,7,,,,,0,,,78,100
42624,note_on,,,,,4,0,7,,,,,0,,,76,100
42624,note_on,,,,,92,0,14,,,,,6,,,55,100
42624,note_on,,,,,92,0,11,,,,,4,,,55,86
42624,note_on,,,,,0,0,13,,,,,6,,,71,100
42624,note_on,,,,,256,0,13,,,,,6,,,64,100
42724,note_off,,,,,100,0,7,,,,,0,,,76,100
42816,note_on,,,,,92,0,7,,,,,0,,,83,100
42880,note_off,,,,,256,0,11,,,,,4,,,55,100
42880,note_off,,,,,0,0,13,,,,,6,,,71,100
42880,note_off,,,,,256,0,14,,,,,6,,,55,100
42880,note_off,,,,,256,0,13,,,,,6,,,64,100
42908,note_off,,,,,92,0,7,,,,,0,,,83,100
42912,note_on,,,,,4,0,7,,,,,0,,,81,100
43004,note_off,,,,,92,0,7,,,,,0,,,81,100
43008,note_on,,,,,4,0,7,,,,,0,,,79,99
43008,note_on,,,,,128,0,14,,,,,6,,,52,100
43008,note_on,,,,,128,0,13,,,,,6,,,64,100
43008,note_on,,,,,0,0,13,,,,,6,,,67,100
43008,note_on,,,,,128,0,11,,,,,4,,,52,89
43108,note_off,,,,,100,0,7,,,,,0,,,79,100
43108,note_off,,,,,100,0,14,,,,,6,,,52,100
43108,note_off,,,,,100,0,11,,,,,4,,,52,100
43200,note_on,,,,,92,0,7,,,,,0,,,79,97
43200,note_on,,,,,92,0,14,,,,,6,,,50,100
43200,note_on,,,,,92,0,11,,,,,4,,,50,87
43292,note_off,,,,,92,0,7,,,,,0,,,79,100
43296,note_on,,,,,4,0,7,,,,,0,,,78,96
43300,note_off,,,,,100,0,14,,,,,6,,,50,100
43300,note_off,,,,,100,0,11,,,,,4,,,50,100
43388,note_off,,,,,92,0,7,,,,,0,,,78,100
43392,note_on,,,,,92,0,11,,,,,4,,,48,85
43392,note_on,,,,,4,0,7,,,,,0,,,76,95
43392,note_on,,,,,92,0,14,,,,,6,,,48,100
43492,note_off,,,,,100,0,14,,,,,6,,,48,100
43492,note_off,,,,,100,0,7,,,,,0,,,76,100
43492,note_off,,,,,100,0,11,,,,,4,,,48,100
43520,note_off,,,,,0,0,13,,,,,6,,,67,100
43520,note_off,,,,,512,0,13,,,,,6,,,64,100
43584,note_on,,,,,92,0,7,,,,,0,,,76,93
43584,note_on,,,,,92,0,14,,,,,6,,,47,100
43584,note_on,,,,,92,0,11,,,,,4,,,47,83
43676,note_off,,,,,92,0,7,,,,,0,,,76,100
43680,note_on,,,,,4,0,7,,,,,0,,,74,92
43684,note_off,,,,,100,0,14,,,,,6,,,47,100
43684,note_off,,,,,100,0,11,,,,,4,,,47,100
43772,note_off,,,,,92,0,7,,,,,0,,,74,100
43776,note_on,,,,,256,0,13,,,,,6,,,72,100
43776,note_on,,,,,0,0,13,,,,,6,,,64,100
43776,note_on,,,,,92,0,11,,,,,4,,,45,81
43776,note_on,,,,,92,0,14,,,,,6,,,45,100
43776,note_on,,,,,4,0,7,,,,,0,,,72,97
43876,note_off,,,,,100,0,7,,,,,0,,,72,100
43968,note_on,,,,,92,0,7,,,,,0,,,76,97
44032,note_off,,,,,256,0,13,,,,,6,,,72,100
44032,note_off,,,,,0,0,13,,,,,6,,,64,100
44032,note_off,,,,,256,0,14,,,,,6,,,45,100
44032,note_off,,,,,256,0,11,,,,,4,,,45,100
44060,note_off,,,,,92,0,7,,,,,0,,,76,100
44064,note_on,,,,,4,0,7,,,,,0,,,74,97
44156,note_off,,,,,92,0,7,,,,,0,,,74,100
44160,note_on,,,,,4,0,7,,,,,0,,,72,96
44160,note_on,,,,,128,0,11,,,,,4,,,57,86
44160,note_on,,,,,128,0,14,,,,,6,,,57,100
44160,note_on,,,,,128,0,13,,,,,6,,,60,100
44160,note_on,,,,,0,0,13,,,,,6,,,64,100
44260,note_off,,,,,100,0,7,,,,,0,,,72,100
44260,note_off,,,,,100,0,11,,,,,4,,,57,100
44260,note_off,,,,,100,0,14,,,,,6,,,57,100
44352,note_on,,,,,92,0,7,,,,,0,,,72,94
44352,note_on,,,,,92,0,14,,,,,6,,,55,100
44352,note_on,,,,,92,0,11,,,,,4,,,55,84
44444,note_off,,,,,92,0,7,,,,,0,,,72,100
44448,note_on,,,,,4,0,7,,,,,0,,,71,93
44452,note_off,,,,,100,0,14,,,,,6,,,55,100
44452,note_off,,,,,100,0,11,,,,,4,,,55,100
44540,note_off,,,,,92,0,7,,,,,0,,,71,100
44544,note_on,,,,,4,0,7,,,,,0,,,69,92
44544,note_on,,,,,92,0,14,,,,,6,,,54,100
44544,note_on,,,,,92,0,11,,,,,4,,,54,82
44644,note_off,,,,,100,0,7,,,,,0,,,69,100
44644,note_off,,,,,100,0,14,,,,,6,,,54,100
44644,note_off,,,,,100,0,11,,,,,4,,,54,100
44672,note_off,,,,,512,0,13,,,,,6,,,60,100
44672,note_off,,,,,0,0,13,,,,,6,,,64,100
44736,note_on,,,,,92,0,7,,,,,0,,,69,90
44736,note_on,,,,,92,0,14,,,,,6,,,52,100
44736,note_on,,,,,92,0,11,,,,,4,,,52,80
44828,note_off,,,,,92,0,7,,,,,0,,,69,100
44832,note_on,,,,,4,0,7,,,,,0,,,67,89
44836,note_off,,,,,100,0,14,,,,,6,,,52,100
44836,note_off,,,,,100,0,11,,,,,4,,,52,100
44924,note_off,,,,,92,0,7,,,,,0,,,67,100
44928,note_on,,,,,256,0,13,,,,,6,,,66,100
44928,note_on,,,,,92,0,11,,,,,4,,,50,78
44928,note_on,,,,,4,0,7,,,,,0,,,66,95
44928,note_on,,,,,92,0,14,,,,,6,,,50,100
44928,note_on,,,,,0,0,13,,,,,6,,,69,100
45028,note_off,,,,,100,0,7,,,,,0,,,66,100
45120,note_on,,,,,92,0,7,,,,,0,,,69,95
45184,note_off,,,,,0,0,13,,,,,6,,,69,100
45184,note_off,,,,,256,0,13,,,,,6,,,66,100
45184,note_off,,,,,256,0,14,,,,,6,,,50,100
45184,note_off,,,,,256,0,11,,,,,4,,,50,100
45212,note_off,,,,,92,0,7,,,,,0,,,69,100
45216,note_on,,,,,4,0,7,,,,,0,,,67,95
45308,note_off,,,,,92,0,7,,,,,0,,,67,100
45312,note_on,,,,,0,0,13,,,,,6,,,60,100
45312,note_on,,,,,128,0,13,,,,,6,,,62,100
45312,note_on,,,,,128,0,14,,,,,6,,,50,100
45312,note_on,,,,,0,0,13,,,,,6,,,66,100
45312,note_on,,,,,4,0,7,,,,,0,,,66,94
45312,note_on,,,,,128,0,11,,,,,4,,,50,84
45412,note_off,,,,,100,0,14,,,,,6,,,50,100
45412,note_off,,,,,100,0,11,,,,,4,,,50,100
45412,note_off,,,,,100,0,7,,,,,0,,,66,100
45504,note_on,,,,,92,0,11,,,,,4,,,48,82
45504,note_on,,,,,92,0,7,,,,,0,,,66,92
45504,note_on,,,,,92,0,14,,,,,6,,,48,100
45596,note_off,,,,,92,0,7,,,,,0,,,66,100
45600,note_on,,,,,4,0,7,,,,,0,,,64,91
45604,note_off,,,,,100,0,14,,,,,6,,,48,100
45604,note_off,,,,,100,0,11,,,,,4,,,48,100
45692,note_off,,,,,92,0,7,,,,,0,,,64,100
45696,note_on,,,,,92,0,11,,,,,4,,,47,80
45696,note_on,,,,,92,0,14,,,,,6,,,47,100
45696,note_on,,,,,4,0,7,,,,,0,,,62,90
45796,note_off,,,,,100,0,14,,,,,6,,,47,100
45796,note_off,,,,,100,0,7,,,,,0,,,62,100
45796,note_off,,,,,100,0,11,,,,,4,,,47,100
45824,note_off,,,,,512,0,13,,,,,6,,,62,100
45824,note_off,,,,,0,0,13,,,,,6,,,60,100
45824,note_off,,,,,0,0,13,,,,,6,,,66,100
45888,note_on,,,,,92,0,11,,,,,4,,,45,78
45888,note_on,,,,,92,0,7,,,,,0,,,60,92
45888,note_on,,,,,92,0,14,,,,,6,,,45,100
45988,note_off,,,,,100,0,11,,,,,4,,,45,100
45988,note_off,,,,,100,0,7,,,,,0,,,60,100
45988,note_off,,,,,100,0,14,,,,,6,,,45,100
46080,note_on,,,,,92,0,14,,,,,6,,,43,100
46080,note_on,,,,,256,0,13,,,,,6,,,59,100
46080,note_on,,,,,0,0,13,,,,,6,,,62,100
46080,note_on,,,,,0,0,13,,,,,6,,,67,100
46080,note_on,,,,,92,0,7,,,,,0,,,59,94
46080,note_on,,,,,92,0,11,,,,,4,,,43,76
46144,note_off,,,,,64,0,7,,,,,0,,,59,100
46176,note_on,,,,,32,0,7,,,,,0,,,55,100
46240,note_off,,,,,64,0,7,,,,,0,,,55,100
46272,note_on,,,,,32,0,7,,,,,0,,,57,100
46336,note_off,,,,,0,0,13,,,,,6,,,62,100
46336,note_off,,,,,256,0,13,,,,,6,,,59,100
46336,note_off,,,,,0,0,13,,,,,6,,,67,100
46336,note_off,,,,,64,0,7,,,,,0,,,57,100
46336,note_off,,,,,256,0,11,,,,,4,,,43,100
46336,note_off,,,,,256,0,14,,,,,6,,,43,100
46368,note_on,,,,,32,0,7,,,,,0,,,59,99
46432,note_off,,,,,64,0,7,,,,,0,,,59,100
46464,note_on,,,,,32,0,7,,,,,0,,,60,98
46528,note_off,,,,,64,0,7,,,,,0,,,60,100
46560,note_on,,,,,32,0,7,,,,,0,,,62,98
46624,note_off,,,,,64,0,7,,,,,0,,,62,100
46656,note_on,,,,,32,0,7,,,,,0,,,64,97
46720,note_off,,,,,64,0,7,,,,,0,,,64,100
46752,note_on,,,,,32,0,7,,,,,0,,,66,96
46816,note_off,,,,,64,0,7,,,,,0,,,66,100
46848,note_on,,,,,32,0,7,,,,,0,,,67,95
46912,note_off,,,,,64,0,7,,,,,0,,,67,100
46944,note_on,,,,,32,0,7,,,,,0,,,69,95
47008,note_off,,,,,64,0,7,,,,,0,,,69,100
47040,note_on,,,,,32,0,7,,,,,0,,,71,94
47104,note_off,,,,,64,0,7,,,,,0,,,71,100
47136,note_on,,,,,32,0,7,,,,,0,,,72,93
47200,note_off,,,,,64,0,7,,,,,0,,,72,100
47232,note_on,,,,,0,0,13,,,,,6,,,62,100
47232,note_on,,,,,896,0,14,,,,,6,,,43,100
47232,note_on,,,,,5504,0,12,,,,,5,,,31,100
47232,note_on,,,,,896,0,11,,,,,4,,,43,100
47232,note_on,,,,,0,0,15,,,,,7,,,67,100
47232,note_on,,,,,0,0,15,,,,,7,,,62,100
47232,note_on,,,,,14720,0,15,,,,,7,,,59,100
47232,note_on,,,,,5504,0,9,,,,,2,,,74,100
47232,note_on,,,,,5504,0,8,,,,,1,,,71,100
47232,note_on,,,,,14720,0,16,,,,,7,,,43,100
47232,note_on,,,,,32,0,7,,,,,0,,,74,93
47232,note_on,,,,,896,0,13,,,,,6,,,59,100
47232,note_on,,,,,5504,0,10,,,,,3,,,62,100
47232,note_on,,,,,0,0,13,,,,,6,,,67,100
47312,note_off,,,,,80,0,9,,,,,2,,,74,100
47312,note_off,,,,,80,0,7,,,,,0,,,74,100
47312,note_off,,,,,80,0,8,,,,,1,,,71,100
47424,note_on,,,,,112,0,9,,,,,2,,,71,100
47424,note_on,,,,,112,0,8,,,,,1,,,67,100
47488,note_off,,,,,0,0,13,,,,,6,,,62,100
47488,note_off,,,,,0,0,13,,,,,6,,,67,100
47488,note_off,,,,,256,0,12,,,,,5,,,31,100
47488,note_off,,,,,256,0,15,,,,,7,,,59,100
47488,note_off,,,,,0,0,15,,,,,7,,,62,100
47488,note_off,,,,,0,0,15,,,,,7,,,67,100
47488,note_off,,,,,256,0,14,,,,,6,,,43,100
47488,note_off,,,,,256,0,16,,,,,7,,,43,100
47488,note_off,,,,,256,0,10,,,,,3,,,62,100
47488,note_off,,,,,256,0,13,,,,,6,,,59,100
47488,note_off,,,,,256,0,11,,,,,4,,,43,100
47504,note_off,,,,,80,0,9,,,,,2,,,71,100
47504,note_off,,,,,80,0,8,,,,,1,,,67,100
47616,note_on,,,,,112,0,8,,,,,1,,,71,100
47616,note_on,,,,,112,0,9,,,,,2,,,67,100
47696,note_off,,,,,80,0,8,,,,,1,,,71,100
47696,note_off,,,,,80,0,9,,,,,2,,,67,100
47808,note_on,,,,,0,0,13,,,,,6,,,59,100
47808,note_on,,,,,320,0,13,,,,,6,,,67,100
47808,note_on,,,,,320,0,12,,,,,5,,,43,100
47808,note_on,,,,,320,0,16,,,,,7,,,55,100
47808,note_on,,,,,320,0,14,,,,,6,,,55,100
47808,note_on,,,,,112,0,9,,,,,2,,,71,100
47808,note_on,,,,,320,0,15,,,,,7,,,67,100
47808,note_on,,,,,112,0,8,,,,,1,,,74,100
47808,note_on,,,,,0,0,15,,,,,7,,,62,100
47808,note_on,,,,,0,0,13,,,,,6,,,62,100
47808,note_on,,,,,320,0,11,,,,,4,,,55,100
47808,note_on,,,,,320,0,10,,,,,3,,,62,100
47808,note_on,,,,,0,0,15,,,,,7,,,59,100
47888,note_off,,,,,80,0,13,,,,,6,,,67,100
47888,note_off,,,,,80,0,15,,,,,7,,,67,100
47888,note_off,,,,,80,0,16,,,,,7,,,55,100
47888,note_off,,,,,80,0,9,,,,,2,,,71,100
47888,note_off,,,,,0,0,15,,,,,7,,,59,100
47888,note_off,,,,,0,0,13,,,,,6,,,59,100
47888,note_off,,,,,0,0,13,,,,,6,,,62,100
47888,note_off,,,,,0,0,15,,,,,7,,,62,100
47888,note_off,,,,,80,0,8,,,,,1,,,74,100
47888,note_off,,,,,80,0,12,,,,,5,,,43,100
47888,note_off,,,,,80,0,11,,,,,4,,,55,100
47888,note_off,,,,,80,0,10,,,,,3,,,62,100
47888,note_off,,,,,80,0,14,,,,,6,,,55,100
48000,note_on,,,,,0,0,15,,,,,7,,,62,100
48000,note_on,,,,,112,0,10,,,,,3,,,62,100
48000,note_on,,,,,0,0,15,,,,,7,,,57,100
48000,note_on,,,,,112,0,15,,,,,7,,,66,100
48000,note_on,,,,,112,0,16,,,,,7,,,54,100
48000,note_on,,,,,112,0,12,,,,,5,,,42,100
48000,note_on,,,,,112,0,13,,,,,6,,,66,100
48000,note_on,,,,,0,0,13,,,,,6,,,57,100
48000,note_on,,,,,112,0,11,,,,,4,,,54,100
48000,note_on,,,,,0,0,13,,,,,6,,,62,100
48000,note_on,,,,,112,0,9,,,,,2,,,74,100
48000,note_on,,,,,112,0,8,,,,,1,,,69,100
48000,note_on,,,,,112,0,14,,,,,6,,,54,100
48080,note_off,,,,,80,0,9,,,,,2,,,74,100
48080,note_off,,,,,80,0,16,,,,,7,,,54,100
48080,note_off,,,,,0,0,15,,,,,7,,,62,100
48080,note_off,,,,,0,0,15,,,,,7,,,57,100
48080,note_off,,,,,0,0,13,,,,,6,,,62,100
48080,note_off,,,,,80,0,14,,,,,6,,,54,100
48080,note_off,,,,,80,0,11,,,,,4,,,54,100
48080,note_off,,,,,80,0,12,,,,,5,,,42,100
48080,note_off,,,,,80,0,8,,,,,1,,,69,100
48080,note_off,,,,,80,0,13,,,,,6,,,66,100
48080,note_off,,,,,0,0,13,,,,,6,,,57,100
48080,note_off,,,,,80,0,15,,,,,7,,,66,100
48080,note_off,,,,,80,0,10,,,,,3,,,62,100
48192,note_on,,,,,112,0,10,,,,,3,,,62,100
48192,note_on,,,,,112,0,9,,,,,2,,,69,100
48192,note_on,,,,,112,0,11,,,,,4,,,54,100
48192,note_on,,,,,0,0,15,,,,,7,,,57,100
48192,note_on,,,,,0,0,13,,,,,6,,,57,100
48192,note_on,,,,,112,0,16,,,,,7,,,54,100
48192,note_on,,,,,0,0,13,,,,,6,,,62,100
48192,note_on,,,,,112,0,13,,,,,6,,,66,100
48192,note_on,,,,,0,0,15,,,,,7,,,62,100
48192,note_on,,,,,112,0,14,,,,,6,,,54,100
48192,note_on,,,,,112,0,8,,,,,1,,,74,100
48192,note_on,,,,,112,0,12,,,,,5,,,42,100
48192,note_on,,,,,112,0,15,,,,,7,,,66,100
48272,note_off,,,,,80,0,8,,,,,1,,,74,100
48272,note_off,,,,,80,0,11,,,,,4,,,54,100
48272,note_off,,,,,0,0,13,,,,,6,,,62,100
48272,note_off,,,,,80,0,14,,,,,6,,,54,100
48272,note_off,,,,,80,0,16,,,,,7,,,54,100
48272,note_off,,,,,80,0,15,,,,,7,,,66,100
48272,note_off,,,,,0,0,15,,,,,7,,,57,100
48272,note_off,,,,,0,0,13,,,,,6,,,57,100
48272,note_off,,,,,0,0,15,,,,,7,,,62,100
48272,note_off,,,,,80,0,12,,,,,5,,,42,100
48272,note_off,,,,,80,0,13,,,,,6,,,66,100
48272,note_off,,,,,80,0,10,,,,,3,,,62,100
48272,note_off,,,,,80,0,9,,,,,2,,,69,100
48384,note_on,,,,,112,0,14,,,,,6,,,55,100
48384,note_on,,,,,112,0,15,,,,,7,,,59,100
48384,note_on,,,,,0,0,15,,,,,7,,,62,100
48384,note_on,,,,,0,0,15,,,,,7,,,67,100
48384,note_on,,,,,112,0,10,,,,,3,,,62,95
48384,note_on,,,,,0,0,13,,,,,6,,,67,100
48384,note_on,,,,,112,0,11,,,,,4,,,55,95
48384,note_on,,,,,112,0,12,,,,,5,,,43,95
48384,note_on,,,,,112,0,13,,,,,6,,,59,100
48384,note_on,,,,,0,0,13,,,,,6,,,62,100
48384,note_on,,,,,112,0,16,,,,,7,,,55,100
48384,note_on,,,,,112,0,9,,,,,2,,,74,93
48384,note_on,,,,,112,0,8,,,,,1,,,71,93
48464,note_off,,,,,80,0,9,,,,,2,,,74,100
48464,note_off,,,,,80,0,8,,,,,1,,,71,100
48576,note_on,,,,,112,0,8,,,,,1,,,67,70
48576,note_on,,,,,112,0,9,,,,,2,,,71,70
48640,note_off,,,,,256,0,15,,,,,7,,,59,100
48640,note_off,,,,,0,0,15,,,,,7,,,62,100
48640,note_off,,,,,256,0,14,,,,,6,,,55,100
48640,note_off,,,,,256,0,12,,,,,5,,,43,100
48640,note_off,,,,,256,0,16,,,,,7,,,55,100
48640,note_off,,,,,0,0,15,,,,,7,,,67,100
48640,note_off,,,,,256,0,10,,,,,3,,,62,100
48640,note_off,,,,,256,0,13,,,,,6,,,59,100
48640,note_off,,,,,256,0,11,,,,,4,,,55,100
48640,note_off,,,,,0,0,13,,,,,6,,,62,100
48640,note_off,,,,,0,0,13,,,,,6,,,67,100
48656,note_off,,,,,80,0,9,,,,,2,,,71,100
48656,note_off,,,,,80,0,8,,,,,1,,,67,100
48768,note_on,,,,,112,0,8,,,,,1,,,71,70
48768,note_on,,,,,112,0,9,,,,,2,,,67,70
48848,note_off,,,,,80,0,8,,,,,1,,,71,100
48848,note_off,,,,,80,0,9,,,,,2,,,67,100
48960,note_on,,,,,0,0,15,,,,,7,,,62,100
48960,note_on,,,,,320,0,12,,,,,5,,,43,70
48960,note_on,,,,,320,0,15,,,,,7,,,59,100
48960,note_on,,,,,112,0,8,,,,,1,,,74,70
48960,note_on,,,,,320,0,11,,,,,4,,,55,70
48960,note_on,,,,,320,0,14,,,,,6,,,55,100
48960,note_on,,,,,320,0,16,,,,,7,,,55,100
48960,note_on,,,,,112,0,9,,,,,2,,,71,70
48960,note_on,,,,,320,0,13,,,,,6,,,59,100
48960,note_on,,,,,0,0,13,,,,,6,,,62,100
48960,note_on,,,,,320,0,10,,,,,3,,,62,70
49040,note_off,,,,,80,0,14,,,,,6,,,55,100
49040,note_off,,,,,80,0,13,,,,,6,,,59,100
49040,note_off,,,,,80,0,9,,,,,2,,,71,100
49040,note_off,,,,,0,0,15,,,,,7,,,62,100
49040,note_off,,,,,80,0,15,,,,,7,,,59,100
49040,note_off,,,,,0,0,13,,,,,6,,,62,100
49040,note_off,,,,,80,0,12,,,,,5,,,43,100
49040,note_off,,,,,80,0,8,,,,,1,,,74,100
49040,note_off,,,,,80,0,16,,,,,7,,,55,100
49040,note_off,,,,,80,0,10,,,,,3,,,62,100
49040,note_off,,,,,80,0,11,,,,,4,,,55,100
49152,note_on,,,,,112,0,10,,,,,3,,,62,70
49152,note_on,,,,,112,0,8,,,,,1,,,69,70
49152,note_on,,,,,112,0,12,,,,,5,,,42,70
49152,note_on,,,,,112,0,16,,,,,7,,,54,100
49152,note_on,,,,,112,0,9,,,,,2,,,74,70
49152,note_on,,,,,112,0,15,,,,,7,,,57,100
49152,note_on,,,,,0,0,15,,,,,7,,,62,100
49152,note_on,,,,,112,0,13,,,,,6,,,57,100
49152,note_on,,,,,0,0,13,,,,,6,,,62,100
49152,note_on,,,,,112,0,11,,,,,4,,,54,70
49152,note_on,,,,,112,0,14,,,,,6,,,54,100
49232,note_off,,,,,80,0,16,,,,,7,,,54,100
49232,note_off,,,,,80,0,9,,,,,2,,,74,100
49232,note_off,,,,,80,0,8,,,,,1,,,69,100
49232,note_off,,,,,80,0,13,,,,,6,,,57,100
49232,note_off,,,,,0,0,13,,,,,6,,,62,100
49232,note_off,,,,,80,0,10,,,,,3,,,62,100
49232,note_off,,,,,80,0,12,,,,,5,,,42,100
49232,note_off,,,,,80,0,11,,,,,4,,,54,100
49232,note_off,,,,,0,0,15,,,,,7,,,62,100
49232,note_off,,,,,80,0,15,,,,,7,,,57,100
49232,note_off,,,,,80,0,14,,,,,6,,,54,100
49344,note_on,,,,,112,0,9,,,,,2,,,69,70
49344,note_on,,,,,112,0,13,,,,,6,,,57,100
49344,note_on,,,,,0,0,13,,,,,6,,,62,100
49344,note_on,,,,,0,0,15,,,,,7,,,62,100
49344,note_on,,,,,112,0,15,,,,,7,,,57,100
49344,note_on,,,,,112,0,12,,,,,5,,,42,70
49344,note_on,,,,,112,0,10,,,,,3,,,62,70
49344,note_on,,,,,112,0,11,,,,,4,,,54,70
49344,note_on,,,,,112,0,16,,,,,7,,,54,100
49344,note_on,,,,,112,0,8,,,,,1,,,74,70
49344,note_on,,,,,112,0,14,,,,,6,,,54,100
49424,note_off,,,,,0,0,13,,,,,6,,,62,100
49424,note_off,,,,,80,0,13,,,,,6,,,57,100
49424,note_off,,,,,80,0,14,,,,,6,,,54,100
49424,note_off,,,,,80,0,10,,,,,3,,,62,100
49424,note_off,,,,,80,0,16,,,,,7,,,54,100
49424,note_off,,,,,80,0,11,,,,,4,,,54,100
49424,note_off,,,,,80,0,12,,,,,5,,,42,100
49424,note_off,,,,,80,0,15,,,,,7,,,57,100
49424,note_off,,,,,80,0,8,,,,,1,,,74,100
49424,note_off,,,,,80,0,9,,,,,2,,,69,100
49424,note_off,,,,,0,0,15,,,,,7,,,62,100
49536,note_on,,,,,0,0,13,,,,,6,,,62,100
49536,note_on,,,,,112,0,13,,,,,6,,,59,100
49536,note_on,,,,,112,0,11,,,,,4,,,55,75
49536,note_on,,,,,112,0,14,,,,,6,,,55,100
49536,note_on,,,,,112,0,15,,,,,7,,,59,100
49536,note_on,,,,,112,0,10,,,,,3,,,62,75
49536,note_on,,,,,112,0,12,,,,,5,,,43,75
49536,note_on,,,,,112,0,9,,,,,2,,,74,75
49536,note_on,,,,,0,0,15,,,,,7,,,62,100
49536,note_on,,,,,112,0,16,,,,,7,,,55,100
49536,note_on,,,,,112,0,8,,,,,1,,,71,75
49616,note_off,,,,,80,0,8,,,,,1,,,71,100
49616,note_off,,,,,80,0,9,,,,,2,,,74,100
49728,note_on,,,,,112,0,8,,,,,1,,,67,99
49728,note_on,,,,,112,0,9,,,,,2,,,71,99
49792,note_off,,,,,256,0,15,,,,,7,,,59,100
49792,note_off,,,,,256,0,11,,,,,4,,,55,100
49792,note_off,,,,,0,0,15,,,,,7,,,62,100
49792,note_off,,,,,256,0,13,,,,,6,,,59,100
49792,note_off,,,,,0,0,13,,,,,6,,,62,100
49792,note_off,,,,,256,0,10,,,,,3,,,62,100
49792,note_off,,,,,256,0,12,,,,,5,,,43,100
49792,note_off,,,,,256,0,16,,,,,7,,,55,100
49792,note_off,,,,,256,0,14,,,,,6,,,55,100
49808,note_off,,,,,80,0,9,,,,,2,,,71,100
49808,note_off,,,,,80,0,8,,,,,1,,,67,100
49920,note_on,,,,,112,0,9,,,,,2,,,67,100
49920,note_on,,,,,112,0,8,,,,,1,,,71,100
50000,note_off,,,,,80,0,8,,,,,1,,,71,100
50000,note_off,,,,,80,0,9,,,,,2,,,67,100
50112,note_on,,,,,0,0,15,,,,,7,,,62,100
50112,note_on,,,,,0,0,15,,,,,7,,,59,100
50112,note_on,,,,,320,0,15,,,,,7,,,67,100
50112,note_on,,,,,320,0,12,,,,,5,,,43,100
50112,note_on,,,,,320,0,16,,,,,7,,,55,100
50112,note_on,,,,,320,0,14,,,,,6,,,55,100
50112,note_on,,,,,112,0,9,,,,,2,,,71,100
50112,note_on,,,,,112,0,8,,,,,1,,,74,100
50112,note_on,,,,,320,0,13,,,,,6,,,67,100
50112,note_on,,,,,0,0,13,,,,,6,,,59,100
50112,note_on,,,,,0,0,13,,,,,6,,,62,100
50112,note_on,,,,,320,0,10,,,,,3,,,62,100
50112,note_on,,,,,320,0,11,,,,,4,,,55,100
50192,note_off,,,,,80,0,14,,,,,6,,,55,100
50192,note_off,,,,,0,0,15,,,,,7,,,59,100
50192,note_off,,,,,80,0,13,,,,,6,,,67,100
50192,note_off,,,,,0,0,13,,,,,6,,,59,100
50192,note_off,,,,,0,0,13,,,,,6,,,62,100
50192,note_off,,,,,80,0,9,,,,,2,,,71,100
50192,note_off,,,,,80,0,11,,,,,4,,,55,100
50192,note_off,,,,,80,0,15,,,,,7,,,67,100
50192,note_off,,,,,0,0,15,,,,,7,,,62,100
50192,note_off,,,,,80,0,8,,,,,1,,,74,100
50192,note_off,,,,,80,0,10,,,,,3,,,62,100
50192,note_off,,,,,80,0,16,,,,,7,,,55,100
50192,note_off,,,,,80,0,12,,,,,5,,,43,100
50304,note_on,,,,,112,0,13,,,,,6,,,66,100
50304,note_on,,,,,112,0,15,,,,,7,,,66,100
50304,note_on,,,,,0,0,13,,,,,6,,,57,100
50304,note_on,,,,,112,0,14,,,,,6,,,54,100
50304,note_on,,,,,112,0,10,,,,,3,,,62,100
50304,note_on,,,,,112,0,12,,,,,5,,,42,100
50304,note_on,,,,,0,0,15,,,,,7,,,57,100
50304,note_on,,,,,0,0,13,,,,,6,,,62,100
50304,note_on,,,,,112,0,9,,,,,2,,,74,100
50304,note_on,,,,,112,0,16,,,,,7,,,54,100
50304,note_on,,,,,0,0,15,,,,,7,,,62,100
50304,note_on,,,,,112,0,8,,,,,1,,,69,100
50304,note_on,,,,,112,0,11,,,,,4,,,54,100
50384,note_off,,,,,80,0,16,,,,,7,,,54,100
50384,note_off,,,,,80,0,15,,,,,7,,,66,100
50384,note_off,,,,,0,0,15,,,,,7,,,57,100
50384,note_off,,,,,0,0,15,,,,,7,,,62,100
50384,note_off,,,,,80,0,9,,,,,2,,,74,100
50384,note_off,,,,,80,0,13,,,,,6,,,66,100
50384,note_off,,,,,0,0,13,,,,,6,,,57,100
50384,note_off,,,,,80,0,12,,,,,5,,,42,100
50384,note_off,,,,,80,0,14,,,,,6,,,54,100
50384,note_off,,,,,0,0,13,,,,,6,,,62,100
50384,note_off,,,,,80,0,8,,,,,1,,,69,100
50384,note_off,,,,,80,0,11,,,,,4,,,54,100
50384,note_off,,,,,80,0,10,,,,,3,,,62,100
50496,note_on,,,,,112,0,15,,,,,7,,,66,100
50496,note_on,,,,,112,0,8,,,,,1,,,74,100
50496,note_on,,,,,112,0,12,,,,,5,,,42,100
50496,note_on,,,,,112,0,11,,,,,4,,,54,100
50496,note_on,,,,,0,0,15,,,,,7,,,62,100
50496,note_on,,,,,112,0,10,,,,,3,,,62,100
50496,note_on,,,,,112,0,16,,,,,7,,,54,100
50496,note_on,,,,,112,0,13,,,,,6,,,66,100
50496,note_on,,,,,112,0,9,,,,,2,,,69,100
50496,note_on,,,,,112,0,14,,,,,6,,,54,100
50496,note_on,,,,,0,0,13,,,,,6,,,62,100
50496,note_on,,,,,0,0,13,,,,,6,,,57,100
50496,note_on,,,,,0,0,15,,,,,7,,,57,100
50576,note_off,,,,,0,0,15,,,,,7,,,57,100
50576,note_off,,,,,0,0,15,,,,,7,,,62,100
50576,note_off,,,,,80,0,9,,,,,2,,,69,100
50576,note_off,,,,,80,0,13,,,,,6,,,66,100
50576,note_off,,,,,80,0,15,,,,,7,,,66,100
50576,note_off,,,,,80,0,10,,,,,3,,,62,100
50576,note_off,,,,,80,0,12,,,,,5,,,42,100
50576,note_off,,,,,80,0,8,,,,,1,,,74,100
50576,note_off,,,,,80,0,11,,,,,4,,,54,100
50576,note_off,,,,,80,0,14,,,,,6,,,54,100
50576,note_off,,,,,0,0,13,,,,,6,,,57,100
50576,note_off,,,,,80,0,16,,,,,7,,,54,100
50576,note_off,,,,,0,0,13,,,,,6,,,62,100
50688,note_on,,,,,112,0,14,,,,,6,,,55,100
50688,note_on,,,,,112,0,8,,,,,1,,,71,100
50688,note_on,,,,,112,0,10,,,,,3,,,62,100
50688,note_on,,,,,112,0,9,,,,,2,,,67,100
50688,note_on,,,,,112,0,16,,,,,7,,,55,100
50688,note_on,,,,,112,0,11,,,,,4,,,55,100
50688,note_on,,,,,0,0,13,,,,,6,,,62,100
50688,note_on,,,,,0,0,13,,,,,6,,,67,100
50688,note_on,,,,,112,0,15,,,,,7,,,59,100
50688,note_on,,,,,0,0,15,,,,,7,,,62,100
50688,note_on,,,,,0,0,15,,,,,7,,,67,100
50688,note_on,,,,,112,0,12,,,,,5,,,43,100
50688,note_on,,,,,112,0,13,,,,,6,,,59,100
50768,note_off,,,,,80,0,11,,,,,4,,,55,100
50768,note_off,,,,,80,0,8,,,,,1,,,71,100
50768,note_off,,,,,80,0,9,,,,,2,,,67,100
50768,note_off,,,,,80,0,10,,,,,3,,,62,100
50768,note_off,,,,,80,0,12,,,,,5,,,43,100
50768,note_off,,,,,80,0,16,,,,,7,,,55,100
50768,note_off,,,,,80,0,14,,,,,6,,,55,100
50788,note_off,,,,,100,0,15,,,,,7,,,59,100
50788,note_off,,,,,0,0,15,,,,,7,,,62,100
50788,note_off,,,,,0,0,15,,,,,7,,,67,100
50788,note_off,,,,,0,0,13,,,,,6,,,67,100
50788,note_off,,,,,0,0,13,,,,,6,,,62,100
50788,note_off,,,,,100,0,13,,,,,6,,,59,100
50880,note_on,,,,,92,0,13,,,,,6,,,67,100
50880,note_on,,,,,112,0,11,,,,,4,,,55,85
50880,note_on,,,,,112,0,9,,,,,2,,,71,85
50880,note_on,,,,,112,0,16,,,,,7,,,55,100
50880,note_on,,,,,112,0,8,,,,,1,,,74,85
50880,note_on,,,,,112,0,12,,,,,5,,,43,85
50880,note_on,,,,,92,0,15,,,,,7,,,67,100
50880,note_on,,,,,112,0,14,,,,,6,,,55,100
50880,note_on,,,,,112,0,10,,,,,3,,,62,85
50960,note_off,,,,,80,0,13,,,,,6,,,67,100
50960,note_off,,,,,80,0,8,,,,,1,,,74,100
50960,note_off,,,,,80,0,16,,,,,7,,,55,100
50960,note_off,,,,,80,0,11,,,,,4,,,55,100
50960,note_off,,,,,80,0,15,,,,,7,,,67,100
50960,note_off,,,,,80,0,10,,,,,3,,,62,100
50960,note_off,,,,,80,0,14,,,,,6,,,55,100
50960,note_off,,,,,80,0,12,,,,,5,,,43,100
50960,note_off,,,,,80,0,9,,,,,2,,,71,100
51072,note_on,,,,,112,0,8,,,,,1,,,74,86
51072,note_on,,,,,112,0,13,,,,,6,,,67,100
51072,note_on,,,,,112,0,10,,,,,3,,,62,86
51072,note_on,,,,,112,0,16,,,,,7,,,55,100
51072,note_on,,,,,112,0,11,,,,,4,,,55,86
51072,note_on,,,,,112,0,14,,,,,6,,,55,100
51072,note_on,,,,,112,0,12,,,,,5,,,43,86
51072,note_on,,,,,112,0,15,,,,,7,,,67,100
51072,note_on,,,,,112,0,9,,,,,2,,,71,86
51152,note_off,,,,,80,0,8,,,,,1,,,74,100
51152,note_off,,,,,80,0,11,,,,,4,,,55,100
51152,note_off,,,,,80,0,13,,,,,6,,,67,100
51152,note_off,,,,,80,0,10,,,,,3,,,62,100
51152,note_off,,,,,80,0,15,,,,,7,,,67,100
51152,note_off,,,,,80,0,9,,,,,2,,,71,100
51152,note_off,,,,,80,0,16,,,,,7,,,55,100
51152,note_off,,,,,80,0,12,,,,,5,,,43,100
51152,note_off,,,,,80,0,14,,,,,6,,,55,100
51264,note_on,,,,,112,0,16,,,,,7,,,55,100
51264,note_on,,,,,112,0,8,,,,,1,,,74,88
51264,note_on,,,,,112,0,12,,,,,5,,,43,88
51264,note_on,,,,,112,0,15,,,,,7,,,67,100
51264,note_on,,,,,112,0,10,,,,,3,,,62,88
51264,note_on,,,,,112,0,13,,,,,6,,,67,100
51264,note_on,,,,,112,0,11,,,,,4,,,55,88
51264,note_on,,,,,112,0,9,,,,,2,,,71,88
51264,note_on,,,,,112,0,14,,,,,6,,,55,100
51344,note_off,,,,,80,0,13,,,,,6,,,67,100
51344,note_off,,,,,80,0,11,,,,,4,,,55,100
51344,note_off,,,,,80,0,15,,,,,7,,,67,100
51344,note_off,,,,,80,0,9,,,,,2,,,71,100
51344,note_off,,,,,80,0,14,,,,,6,,,55,100
51344,note_off,,,,,80,0,16,,,,,7,,,55,100
51344,note_off,,,,,80,0,8,,,,,1,,,74,100
51344,note_off,,,,,80,0,12,,,,,5,,,43,100
51344,note_off,,,,,80,0,10,,,,,3,,,62,100
51456,note_on,,,,,112,0,8,,,,,1,,,74,90
51456,note_on,,,,,112,0,12,,,,,5,,,43,90
51456,note_on,,,,,112,0,13,,,,,6,,,67,100
51456,note_on,,,,,112,0,9,,,,,2,,,71,90
51456,note_on,,,,,112,0,15,,,,,7,,,67,100
51456,note_on,,,,,112,0,11,,,,,4,,,55,90
51456,note_on,,,,,112,0,10,,,,,3,,,62,90
51456,note_on,,,,,112,0,16,,,,,7,,,55,100
51456,note_on,,,,,112,0,14,,,,,6,,,55,100
51536,note_off,,,,,80,0,14,,,,,6,,,55,100
51536,note_off,,,,,80,0,12,,,,,5,,,43,100
51536,note_off,,,,,80,0,10,,,,,3,,,62,100
51536,note_off,,,,,80,0,11,,,,,4,,,55,100
51536,note_off,,,,,80,0,13,,,,,6,,,67,100
51536,note_off,,,,,80,0,8,,,,,1,,,74,100
51536,note_off,,,,,80,0,15,,,,,7,,,67,100
51536,note_off,,,,,80,0,16,,,,,7,,,55,100
51536,note_off,,,,,80,0,9,,,,,2,,,71,100
51648,note_on,,,,,112,0,15,,,,,7,,,67,100
51648,note_on,,,,,112,0,8,,,,,1,,,74,92
51648,note_on,,,,,112,0,14,,,,,6,,,55,100
51648,note_on,,,,,112,0,11,,,,,4,,,55,92
51648,note_on,,,,,112,0,12,,,,,5,,,43,92
51648,note_on,,,,,112,0,10,,,,,3,,,62,92
51648,note_on,,,,,112,0,16,,,,,7,,,55,100
51648,note_on,,,,,112,0,9,,,,,2,,,71,92
51648,note_on,,,,,112,0,13,,,,,6,,,67,100
51728,note_off,,,,,80,0,13,,,,,6,,,67,100
51728,note_off,,,,,80,0,12,,,,,5,,,43,100
51728,note_off,,,,,80,0,11,,,,,4,,,55,100
51728,note_off,,,,,80,0,16,,,,,7,,,55,100
51728,note_off,,,,,80,0,10,,,,,3,,,62,100
51728,note_off,,,,,80,0,15,,,,,7,,,67,100
51728,note_off,,,,,80,0,8,,,,,1,,,74,100
51728,note_off,,,,,80,0,14,,,,,6,,,55,100
51728,note_off,,,,,80,0,9,,,,,2,,,71,100
51840,note_on,,,,,112,0,14,,,,,6,,,54,100
51840,note_on,,,,,112,0,15,,,,,7,,,63,100
51840,note_on,,,,,112,0,16,,,,,7,,,54,100
51840,note_on,,,,,112,0,11,,,,,4,,,54,95
51840,note_on,,,,,112,0,9,,,,,2,,,69,95
51840,note_on,,,,,112,0,8,,,,,1,,,75,95
51840,note_on,,,,,0,0,15,,,,,7,,,69,100
51840,note_on,,,,,112,0,10,,,,,3,,,66,95
51840,note_on,,,,,112,0,12,,,,,5,,,42,95
51840,note_on,,,,,112,0,13,,,,,6,,,69,100
51840,note_on,,,,,0,0,13,,,,,6,,,63,100
51920,note_off,,,,,80,0,10,,,,,3,,,66,100
51920,note_off,,,,,80,0,16,,,,,7,,,54,100
51920,note_off,,,,,80,0,8,,,,,1,,,75,100
51920,note_off,,,,,80,0,9,,,,,2,,,69,100
51920,note_off,,,,,80,0,11,,,,,4,,,54,100
51920,note_off,,,,,80,0,14,,,,,6,,,54,100
51920,note_off,,,,,80,0,12,,,,,5,,,42,100
51940,note_off,,,,,100,0,13,,,,,6,,,69,100
51940,note_off,,,,,0,0,13,,,,,6,,,63,100
52032,note_on,,,,,0,0,13,,,,,6,,,63,100
52032,note_on,,,,,92,0,13,,,,,6,,,69,100
52032,note_on,,,,,112,0,16,,,,,7,,,54,100
52032,note_on,,,,,112,0,11,,,,,4,,,54,96
52032,note_on,,,,,112,0,10,,,,,3,,,66,96
52032,note_on,,,,,112,0,9,,,,,2,,,69,96
52032,note_on,,,,,112,0,8,,,,,1,,,75,96
52032,note_on,,,,,112,0,12,,,,,5,,,42,96
52032,note_on,,,,,112,0,14,,,,,6,,,54,100
52112,note_off,,,,,80,0,14,,,,,6,,,54,100
52112,note_off,,,,,80,0,11,,,,,4,,,54,100
52112,note_off,,,,,80,0,9,,,,,2,,,69,100
52112,note_off,,,,,80,0,13,,,,,6,,,69,100
52112,note_off,,,,,80,0,10,,,,,3,,,66,100
52112,note_off,,,,,80,0,8,,,,,1,,,75,100
52112,note_off,,,,,0,0,13,,,,,6,,,63,100
52112,note_off,,,,,80,0,16,,,,,7,,,54,100
52112,note_off,,,,,80,0,12,,,,,5,,,42,100
52224,note_on,,,,,112,0,13,,,,,6,,,69,100
52224,note_on,,,,,112,0,9,,,,,2,,,69,97
52224,note_on,,,,,112,0,8,,,,,1,,,75,97
52224,note_on,,,,,112,0,14,,,,,6,,,54,100
52224,note_on,,,,,112,0,16,,,,,7,,,54,100
52224,note_on,,,,,112,0,12,,,,,5,,,42,97
52224,note_on,,,,,112,0,10,,,,,3,,,66,97
52224,note_on,,,,,0,0,13,,,,,6,,,63,100
52224,note_on,,,,,112,0,11,,,,,4,,,54,97
52304,note_off,,,,,0,0,13,,,,,6,,,63,100
52304,note_off,,,,,80,0,10,,,,,3,,,66,100
52304,note_off,,,,,80,0,16,,,,,7,,,54,100
52304,note_off,,,,,80,0,8,,,,,1,,,75,100
52304,note_off,,,,,80,0,14,,,,,6,,,54,100
52304,note_off,,,,,80,0,13,,,,,6,,,69,100
52304,note_off,,,,,80,0,11,,,,,4,,,54,100
52304,note_off,,,,,80,0,9,,,,,2,,,69,100
52304,note_off,,,,,80,0,12,,,,,5,,,42,100
52416,note_on,,,,,112,0,16,,,,,7,,,54,100
52416,note_on,,,,,112,0,9,,,,,2,,,69,99
52416,note_on,,,,,112,0,10,,,,,3,,,66,99
52416,note_on,,,,,112,0,13,,,,,6,,,69,100
52416,note_on,,,,,0,0,13,,,,,6,,,63,100
52416,note_on,,,,,112,0,11,,,,,4,,,54,99
52416,note_on,,,,,112,0,14,,,,,6,,,54,100
52416,note_on,,,,,112,0,8,,,,,1,,,75,99
52416,note_on,,,,,112,0,12,,,,,5,,,42,99
52496,note_off,,,,,80,0,8,,,,,1,,,75,100
52496,note_off,,,,,80,0,16,,,,,7,,,54,100
52496,note_off,,,,,80,0,10,,,,,3,,,66,100
52496,note_off,,,,,80,0,11,,,,,4,,,54,100
52496,note_off,,,,,80,0,12,,,,,5,,,42,100
52496,note_off,,,,,80,0,14,,,,,6,,,54,100
52496,note_off,,,,,0,0,13,,,,,6,,,63,100
52496,note_off,,,,,80,0,13,,,,,6,,,69,100
52496,note_off,,,,,80,0,9,,,,,2,,,69,100
52608,note_on,,,,,0,0,13,,,,,6,,,63,100
52608,note_on,,,,,112,0,10,,,,,3,,,66,100
52608,note_on,,,,,112,0,16,,,,,7,,,54,100
52608,note_on,,,,,112,0,13,,,,,6,,,69,100
52608,note_on,,,,,112,0,9,,,,,2,,,69,100
52608,note_on,,,,,112,0,8,,,,,1,,,75,100
52608,note_on,,,,,112,0,14,,,,,6,,,54,100
52608,note_on,,,,,112,0,11,,,,,4,,,54,100
52608,note_on,,,,,112,0,12,,,,,5,,,42,100
52688,note_off,,,,,80,0,9,,,,,2,,,69,100
52688,note_off,,,,,80,0,14,,,,,6,,,54,100
52688,note_off,,,,,80,0,8,,,,,1,,,75,100
52688,note_off,,,,,80,0,13,,,,,6,,,69,100
52688,note_off,,,,,0,0,13,,,,,6,,,63,100
52688,note_off,,,,,80,0,12,,,,,5,,,42,100
52688,note_off,,,,,80,0,11,,,,,4,,,54,100
52688,note_off,,,,,80,0,10,,,,,3,,,66,100
52688,note_off,,,,,80,0,16,,,,,7,,,54,100
52800,note_on,,,,,0,0,13,,,,,6,,,63,100
52800,note_on,,,,,112,0,10,,,,,3,,,66,102
52800,note_on,,,,,112,0,16,,,,,7,,,54,100
52800,note_on,,,,,112,0,8,,,,,1,,,75,102
52800,note_on,,,,,112,0,11,,,,,4,,,54,102
52800,note_on,,,,,112,0,14,,,,,6,,,54,100
52800,note_on,,,,,112,0,9,,,,,2,,,69,102
52800,note_on,,,,,112,0,12,,,,,5,,,42,102
52800,note_on,,,,,112,0,13,,,,,6,,,69,100
52876,note_off,,,,,0,0,15,,,,,7,,,69,100
52876,note_off,,,,,1036,0,15,,,,,7,,,63,100
52880,note_off,,,,,80,0,14,,,,,6,,,54,100
52880,note_off,,,,,80,0,8,,,,,1,,,75,100
52880,note_off,,,,,80,0,9,,,,,2,,,69,100
52880,note_off,,,,,0,0,13,,,,,6,,,63,100
52880,note_off,,,,,80,0,13,,,,,6,,,69,100
52880,note_off,,,,,80,0,12,,,,,5,,,42,100
52880,note_off,,,,,80,0,11,,,,,4,,,54,100
52880,note_off,,,,,80,0,10,,,,,3,,,66,100
52880,note_off,,,,,80,0,16,,,,,7,,,54,100
52992,note_on,,,,,112,0,12,,,,,5,,,40,103
52992,note_on,,,,,116,0,15,,,,,7,,,64,100
52992,note_on,,,,,0,0,15,,,,,7,,,67,100
52992,note_on,,,,,112,0,8,,,,,1,,,76,103
52992,note_on,,,,,112,0,16,,,,,7,,,52,100
52992,note_on,,,,,0,0,15,,,,,7,,,71,100
52992,note_on,,,,,0,0,13,,,,,6,,,71,100
52992,note_on,,,,,112,0,11,,,,,4,,,52,103
52992,note_on,,,,,112,0,14,,,,,6,,,52,100
52992,note_on,,,,,0,0,13,,,,,6,,,67,100
52992,note_on,,,,,112,0,13,,,,,6,,,64,100
52992,note_on,,,,,112,0,10,,,,,3,,,59,103
52992,note_on,,,,,112,0,9,,,,,2,,,67,103
53072,note_off,,,,,80,0,9,,,,,2,,,67,100
53072,note_off,,,,,80,0,8,,,,,1,,,76,100
53184,note_on,,,,,112,0,9,,,,,2,,,79,100
53184,note_on,,,,,112,0,8,,,,,1,,,71,100
53248,note_off,,,,,256,0,13,,,,,6,,,64,100
53248,note_off,,,,,0,0,13,,,,,6,,,67,100
53248,note_off,,,,,0,0,13,,,,,6,,,71,100
53248,note_off,,,,,256,0,11,,,,,4,,,52,100
53248,note_off,,,,,256,0,16,,,,,7,,,52,100
53248,note_off,,,,,256,0,15,,,,,7,,,64,100
53248,note_off,,,,,256,0,10,,,,,3,,,59,100
53248,note_off,,,,,256,0,12,,,,,5,,,40,100
53248,note_off,,,,,0,0,15,,,,,7,,,67,100
53248,note_off,,,,,0,0,15,,,,,7,,,71,100
53248,note_off,,,,,256,0,14,,,,,6,,,52,100
53264,note_off,,,,,80,0,9,,,,,2,,,79,100
53264,note_off,,,,,80,0,8,,,,,1,,,71,100
53376,note_on,,,,,112,0,9,,,,,2,,,83,100
53376,note_on,,,,,112,0,8,,,,,1,,,76,100
53456,note_off,,,,,80,0,8,,,,,1,,,76,100
53456,note_off,,,,,80,0,9,,,,,2,,,83,100
53568,note_on,,,,,112,0,8,,,,,1,,,79,100
53568,note_on,,,,,320,0,13,,,,,6,,,64,100
53568,note_on,,,,,0,0,13,,,,,6,,,67,100
53568,note_on,,,,,320,0,14,,,,,6,,,52,100
53568,note_on,,,,,0,0,13,,,,,6,,,71,100
53568,note_on,,,,,320,0,11,,,,,4,,,52,100
53568,note_on,,,,,320,0,15,,,,,7,,,64,100
53568,note_on,,,,,0,0,15,,,,,7,,,67,100
53568,note_on,,,,,320,0,10,,,,,3,,,71,100
53568,note_on,,,,,112,0,9,,,,,2,,,79,100
53568,note_on,,,,,320,0,16,,,,,7,,,52,100
53568,note_on,,,,,320,0,12,,,,,5,,,40,100
53568,note_on,,,,,0,0,15,,,,,7,,,71,100
53648,note_off,,,,,80,0,12,,,,,5,,,40,100
53648,note_off,,,,,0,0,13,,,,,6,,,71,100
53648,note_off,,,,,80,0,14,,,,,6,,,52,100
53648,note_off,,,,,80,0,8,,,,,1,,,79,100
53648,note_off,,,,,80,0,9,,,,,2,,,79,100
53648,note_off,,,,,0,0,15,,,,,7,,,71,100
53648,note_off,,,,,80,0,15,,,,,7,,,64,100
53648,note_off,,,,,0,0,13,,,,,6,,,67,100
53648,note_off,,,,,80,0,16,,,,,7,,,52,100
53648,note_off,,,,,80,0,11,,,,,4,,,52,100
53648,note_off,,,,,80,0,10,,,,,3,,,71,100
53648,note_off,,,,,0,0,15,,,,,7,,,67,100
53648,note_off,,,,,80,0,13,,,,,6,,,64,100
53760,note_on,,,,,112,0,16,,,,,7,,,51,100
53760,note_on,,,,,112,0,9,,,,,2,,,83,100
53760,note_on,,,,,112,0,8,,,,,1,,,78,100
53760,note_on,,,,,112,0,10,,,,,3,,,71,100
53760,note_on,,,,,112,0,12,,,,,5,,,39,100
53760,note_on,,,,,112,0,13,,,,,6,,,63,100
53760,note_on,,,,,0,0,13,,,,,6,,,66,100
53760,note_on,,,,,0,0,15,,,,,7,,,71,100
53760,note_on,,,,,0,0,15,,,,,7,,,66,100
53760,note_on,,,,,112,0,15,,,,,7,,,63,100
53760,note_on,,,,,0,0,13,,,,,6,,,71,100
53760,note_on,,,,,112,0,11,,,,,4,,,51,100
53760,note_on,,,,,112,0,14,,,,,6,,,51,100
53840,note_off,,,,,80,0,13,,,,,6,,,63,100
53840,note_off,,,,,0,0,13,,,,,6,,,66,100
53840,note_off,,,,,80,0,16,,,,,7,,,51,100
53840,note_off,,,,,0,0,13,,,,,6,,,71,100
53840,note_off,,,,,80,0,11,,,,,4,,,51,100
53840,note_off,,,,,80,0,10,,,,,3,,,71,100
53840,note_off,,,,,80,0,8,,,,,1,,,78,100
53840,note_off,,,,,80,0,9,,,,,2,,,83,100
53840,note_off,,,,,80,0,14,,,,,6,,,51,100
53840,note_off,,,,,0,0,15,,,,,7,,,66,100
53840,note_off,,,,,0,0,15,,,,,7,,,71,100
53840,note_off,,,,,80,0,12,,,,,5,,,39,100
53840,note_off,,,,,80,0,15,,,,,7,,,63,100
53952,note_on,,,,,112,0,8,,,,,1,,,83,100
53952,note_on,,,,,112,0,11,,,,,4,,,51,100
53952,note_on,,,,,112,0,12,,,,,5,,,39,100
53952,note_on,,,,,112,0,9,,,,,2,,,78,100
53952,note_on,,,,,0,0,15,,,,,7,,,66,100
53952,note_on,,,,,0,0,15,,,,,7,,,71,100
53952,note_on,,,,,112,0,16,,,,,7,,,51,100
53952,note_on,,,,,112,0,14,,,,,6,,,51,100
53952,note_on,,,,,0,0,13,,,,,6,,,71,100
53952,note_on,,,,,112,0,15,,,,,7,,,63,100
53952,note_on,,,,,0,0,13,,,,,6,,,66,100
53952,note_on,,,,,112,0,13,,,,,6,,,63,100
53952,note_on,,,,,112,0,10,,,,,3,,,71,100
54032,note_off,,,,,80,0,10,,,,,3,,,71,100
54032,note_off,,,,,80,0,11,,,,,4,,,51,100
54032,note_off,,,,,80,0,8,,,,,1,,,83,100
54032,note_off,,,,,80,0,14,,,,,6,,,51,100
54032,note_off,,,,,80,0,16,,,,,7,,,51,100
54032,note_off,,,,,80,0,13,,,,,6,,,63,100
54032,note_off,,,,,0,0,13,,,,,6,,,66,100
54032,note_off,,,,,0,0,13,,,,,6,,,71,100
54032,note_off,,,,,80,0,9,,,,,2,,,78,100
54032,note_off,,,,,80,0,15,,,,,7,,,63,100
54032,note_off,,,,,80,0,12,,,,,5,,,39,100
54032,note_off,,,,,0,0,15,,,,,7,,,66,100
54032,note_off,,,,,0,0,15,,,,,7,,,71,100
54144,note_on,,,,,112,0,9,,,,,2,,,83,100
54144,note_on,,,,,112,0,10,,,,,3,,,71,100
54144,note_on,,,,,112,0,8,,,,,1,,,79,100
54144,note_on,,,,,0,0,13,,,,,6,,,71,100
54144,note_on,,,,,112,0,14,,,,,6,,,52,100
54144,note_on,,,,,112,0,16,,,,,7,,,52,100
54144,note_on,,,,,0,0,13,,,,,6,,,67,100
54144,note_on,,,,,112,0,15,,,,,7,,,64,100
54144,note_on,,,,,112,0,11,,,,,4,,,52,100
54144,note_on,,,,,0,0,15,,,,,7,,,67,100
54144,note_on,,,,,0,0,15,,,,,7,,,71,100
54144,note_on,,,,,112,0,13,,,,,6,,,64,100
54144,note_on,,,,,112,0,12,,,,,5,,,40,100
54224,note_off,,,,,80,0,8,,,,,1,,,79,100
54224,note_off,,,,,80,0,9,,,,,2,,,83,100
54336,note_on,,,,,112,0,9,,,,,2,,,79,75
54336,note_on,,,,,112,0,8,,,,,1,,,76,75
54400,note_off,,,,,256,0,16,,,,,7,,,52,100
54400,note_off,,,,,256,0,11,,,,,4,,,52,100
54400,note_off,,,,,256,0,10,,,,,3,,,71,100
54400,note_off,,,,,256,0,13,,,,,6,,,64,100
54400,note_off,,,,,0,0,15,,,,,7,,,71,100
54400,note_off,,,,,0,0,15,,,,,7,,,67,100
54400,note_off,,,,,256,0,15,,,,,7,,,64,100
54400,note_off,,,,,0,0,13,,,,,6,,,67,100
54400,note_off,,,,,0,0,13,,,,,6,,,71,100
54400,note_off,,,,,256,0,14,,,,,6,,,52,100
54400,note_off,,,,,256,0,12,,,,,5,,,40,100
54416,note_off,,,,,80,0,9,,,,,2,,,79,100
54416,note_off,,,,,80,0,8,,,,,1,,,76,100
54528,note_on,,,,,112,0,8,,,,,1,,,79,75
54528,note_on,,,,,112,0,9,,,,,2,,,76,75
54608,note_off,,,,,80,0,9,,,,,2,,,76,100
54608,note_off,,,,,80,0,8,,,,,1,,,79,100
54720,note_on,,,,,112,0,9,,,,,2,,,79,75
54720,note_on,,,,,320,0,16,,,,,7,,,52,100
54720,note_on,,,,,320,0,12,,,,,5,,,40,75
54720,note_on,,,,,0,0,13,,,,,6,,,67,100
54720,note_on,,,,,320,0,13,,,,,6,,,59,100
54720,note_on,,,,,320,0,14,,,,,6,,,52,100
54720,note_on,,,,,0,0,15,,,,,7,,,67,100
54720,note_on,,,,,112,0,8,,,,,1,,,83,75
54720,note_on,,,,,320,0,15,,,,,7,,,59,100
54720,note_on,,,,,320,0,11,,,,,4,,,52,75
54720,note_on,,,,,320,0,10,,,,,3,,,71,75
54800,note_off,,,,,80,0,14,,,,,6,,,52,100
54800,note_off,,,,,0,0,13,,,,,6,,,67,100
54800,note_off,,,,,80,0,13,,,,,6,,,59,100
54800,note_off,,,,,80,0,10,,,,,3,,,71,100
54800,note_off,,,,,80,0,12,,,,,5,,,40,100
54800,note_off,,,,,80,0,11,,,,,4,,,52,100
54800,note_off,,,,,80,0,9,,,,,2,,,79,100
54800,note_off,,,,,80,0,8,,,,,1,,,83,100
54800,note_off,,,,,80,0,15,,,,,7,,,59,100
54800,note_off,,,,,0,0,15,,,,,7,,,67,100
54800,note_off,,,,,80,0,16,,,,,7,,,52,100
54912,note_on,,,,,112,0,15,,,,,7,,,59,100
54912,note_on,,,,,0,0,15,,,,,7,,,66,100
54912,note_on,,,,,112,0,13,,,,,6,,,59,100
54912,note_on,,,,,0,0,13,,,,,6,,,66,100
54912,note_on,,,,,112,0,12,,,,,5,,,39,75
54912,note_on,,,,,112,0,16,,,,,7,,,51,100
54912,note_on,,,,,112,0,10,,,,,3,,,71,75
54912,note_on,,,,,112,0,14,,,,,6,,,51,100
54912,note_on,,,,,112,0,8,,,,,1,,,78,75
54912,note_on,,,,,112,0,9,,,,,2,,,83,75
54912,note_on,,,,,112,0,11,,,,,4,,,51,75
54992,note_off,,,,,80,0,13,,,,,6,,,59,100
54992,note_off,,,,,80,0,12,,,,,5,,,39,100
54992,note_off,,,,,80,0,16,,,,,7,,,51,100
54992,note_off,,,,,80,0,10,,,,,3,,,71,100
54992,note_off,,,,,80,0,14,,,,,6,,,51,100
54992,note_off,,,,,80,0,8,,,,,1,,,78,100
54992,note_off,,,,,80,0,15,,,,,7,,,59,100
54992,note_off,,,,,0,0,13,,,,,6,,,66,100
54992,note_off,,,,,0,0,15,,,,,7,,,66,100
54992,note_off,,,,,80,0,9,,,,,2,,,83,100
54992,note_off,,,,,80,0,11,,,,,4,,,51,100
55104,note_on,,,,,112,0,13,,,,,6,,,59,100
55104,note_on,,,,,112,0,12,,,,,5,,,39,75
55104,note_on,,,,,112,0,16,,,,,7,,,51,100
55104,note_on,,,,,0,0,13,,,,,6,,,66,100
55104,note_on,,,,,112,0,10,,,,,3,,,71,75
55104,note_on,,,,,112,0,14,,,,,6,,,51,100
55104,note_on,,,,,112,0,8,,,,,1,,,83,75
55104,note_on,,,,,112,0,15,,,,,7,,,59,100
55104,note_on,,,,,0,0,15,,,,,7,,,66,100
55104,note_on,,,,,112,0,11,,,,,4,,,51,75
55104,note_on,,,,,112,0,9,,,,,2,,,78,75
55184,note_off,,,,,80,0,13,,,,,6,,,59,100
55184,note_off,,,,,80,0,15,,,,,7,,,59,100
55184,note_off,,,,,80,0,11,,,,,4,,,51,100
55184,note_off,,,,,80,0,10,,,,,3,,,71,100
55184,note_off,,,,,0,0,15,,,,,7,,,66,100
55184,note_off,,,,,80,0,8,,,,,1,,,83,100
55184,note_off,,,,,80,0,9,,,,,2,,,78,100
55184,note_off,,,,,0,0,13,,,,,6,,,66,100
55184,note_off,,,,,80,0,12,,,,,5,,,39,100
55184,note_off,,,,,80,0,16,,,,,7,,,51,100
55184,note_off,,,,,80,0,14,,,,,6,,,51,100
55296,note_on,,,,,0,0,15,,,,,7,,,67,100
55296,note_on,,,,,0,0,13,,,,,6,,,67,100
55296,note_on,,,,,112,0,16,,,,,7,,,52,100
55296,note_on,,,,,112,0,13,,,,,6,,,59,100
55296,note_on,,,,,112,0,14,,,,,6,,,52,100
55296,note_on,,,,,112,0,10,,,,,3,,,71,75
55296,note_on,,,,,112,0,15,,,,,7,,,59,100
55296,note_on,,,,,112,0,8,,,,,1,,,79,75
55296,note_on,,,,,112,0,11,,,,,4,,,52,75
55296,note_on,,,,,112,0,12,,,,,5,,,40,75
55296,note_on,,,,,112,0,9,,,,,2,,,83,75
55376,note_off,,,,,80,0,8,,,,,1,,,79,100
55376,note_off,,,,,80,0,9,,,,,2,,,83,100
55488,note_on,,,,,112,0,8,,,,,1,,,76,95
55488,note_on,,,,,112,0,9,,,,,2,,,79,95
55552,note_off,,,,,256,0,15,,,,,7,,,59,100
55552,note_off,,,,,0,0,15,,,,,7,,,67,100
55552,note_off,,,,,256,0,13,,,,,6,,,59,100
55552,note_off,,,,,256,0,16,,,,,7,,,52,100
55552,note_off,,,,,256,0,12,,,,,5,,,40,100
55552,note_off,,,,,0,0,13,,,,,6,,,67,100
55552,note_off,,,,,256,0,11,,,,,4,,,52,100
55552,note_off,,,,,256,0,10,,,,,3,,,71,100
55552,note_off,,,,,256,0,14,,,,,6,,,52,100
55568,note_off,,,,,80,0,9,,,,,2,,,79,100
55568,note_off,,,,,80,0,8,,,,,1,,,76,100
55680,note_on,,,,,112,0,8,,,,,1,,,79,100
55680,note_on,,,,,112,0,9,,,,,2,,,76,100
55760,note_off,,,,,80,0,8,,,,,1,,,79,100
55760,note_off,,,,,80,0,9,,,,,2,,,76,100
55872,note_on,,,,,0,0,13,,,,,6,,,71,100
55872,note_on,,,,,0,0,13,,,,,6,,,67,100
55872,note_on,,,,,320,0,13,,,,,6,,,64,100
55872,note_on,,,,,320,0,12,,,,,5,,,40,100
55872,note_on,,,,,112,0,8,,,,,1,,,83,100
55872,note_on,,,,,320,0,14,,,,,6,,,52,100
55872,note_on,,,,,320,0,16,,,,,7,,,52,100
55872,note_on,,,,,320,0,10,,,,,3,,,71,100
55872,note_on,,,,,112,0,9,,,,,2,,,79,100
55872,note_on,,,,,320,0,11,,,,,4,,,52,100
55872,note_on,,,,,0,0,15,,,,,7,,,71,100
55872,note_on,,,,,320,0,15,,,,,7,,,64,100
55872,note_on,,,,,0,0,15,,,,,7,,,67,100
55952,note_off,,,,,80,0,15,,,,,7,,,64,100
55952,note_off,,,,,80,0,8,,,,,1,,,83,100
55952,note_off,,,,,0,0,15,,,,,7,,,67,100
55952,note_off,,,,,0,0,15,,,,,7,,,71,100
55952,note_off,,,,,80,0,9,,,,,2,,,79,100
55952,note_off,,,,,80,0,10,,,,,3,,,71,100
55952,note_off,,,,,0,0,13,,,,,6,,,71,100
55952,note_off,,,,,0,0,13,,,,,6,,,67,100
55952,note_off,,,,,80,0,13,,,,,6,,,64,100
55952,note_off,,,,,80,0,16,,,,,7,,,52,100
55952,note_off,,,,,80,0,11,,,,,4,,,52,100
55952,note_off,,,,,80,0,12,,,,,5,,,40,100
55952,note_off,,,,,80,0,14,,,,,6,,,52,100
56064,note_on,,,,,112,0,8,,,,,1,,,78,100
56064,note_on,,,,,112,0,14,,,,,6,,,51,100
56064,note_on,,,,,112,0,15,,,,,7,,,63,100
56064,note_on,,,,,0,0,15,,,,,7,,,66,100
56064,note_on,,,,,0,0,15,,,,,7,,,71,100
56064,note_on,,,,,112,0,9,,,,,2,,,83,100
56064,note_on,,,,,112,0,11,,,,,4,,,51,100
56064,note_on,,,,,112,0,10,,,,,3,,,71,100
56064,note_on,,,,,0,0,13,,,,,6,,,71,100
56064,note_on,,,,,0,0,13,,,,,6,,,66,100
56064,note_on,,,,,112,0,13,,,,,6,,,63,100
56064,note_on,,,,,112,0,12,,,,,5,,,39,100
56064,note_on,,,,,112,0,16,,,,,7,,,51,100
56144,note_off,,,,,80,0,8,,,,,1,,,78,100
56144,note_off,,,,,80,0,12,,,,,5,,,39,100
56144,note_off,,,,,80,0,13,,,,,6,,,63,100
56144,note_off,,,,,80,0,14,,,,,6,,,51,100
56144,note_off,,,,,80,0,16,,,,,7,,,51,100
56144,note_off,,,,,80,0,10,,,,,3,,,71,100
56144,note_off,,,,,0,0,13,,,,,6,,,66,100
56144,note_off,,,,,80,0,15,,,,,7,,,63,100
56144,note_off,,,,,0,0,15,,,,,7,,,66,100
56144,note_off,,,,,0,0,15,,,,,7,,,71,100
56144,note_off,,,,,80,0,9,,,,,2,,,83,100
56144,note_off,,,,,80,0,11,,,,,4,,,51,100
56144,note_off,,,,,0,0,13,,,,,6,,,71,100
56256,note_on,,,,,112,0,13,,,,,6,,,63,100
56256,note_on,,,,,112,0,15,,,,,7,,,63,100
56256,note_on,,,,,112,0,12,,,,,5,,,39,100
56256,note_on,,,,,0,0,15,,,,,7,,,66,100
56256,note_on,,,,,0,0,15,,,,,7,,,71,100
56256,note_on,,,,,112,0,8,,,,,1,,,83,100
56256,note_on,,,,,112,0,11,,,,,4,,,51,100
56256,note_on,,,,,112,0,16,,,,,7,,,51,100
56256,note_on,,,,,112,0,14,,,,,6,,,51,100
56256,note_on,,,,,0,0,13,,,,,6,,,66,100
56256,note_on,,,,,0,0,13,,,,,6,,,71,100
56256,note_on,,,,,112,0,10,,,,,3,,,71,100
56256,note_on,,,,,112,0,9,,,,,2,,,78,100
56336,note_off,,,,,0,0,13,,,,,6,,,71,100
56336,note_off,,,,,80,0,14,,,,,6,,,51,100
56336,note_off,,,,,80,0,12,,,,,5,,,39,100
56336,note_off,,,,,80,0,13,,,,,6,,,63,100
56336,note_off,,,,,0,0,13,,,,,6,,,66,100
56336,note_off,,,,,80,0,15,,,,,7,,,63,100
56336,note_off,,,,,0,0,15,,,,,7,,,66,100
56336,note_off,,,,,0,0,15,,,,,7,,,71,100
56336,note_off,,,,,80,0,8,,,,,1,,,83,100
56336,note_off,,,,,80,0,11,,,,,4,,,51,100
56336,note_off,,,,,80,0,10,,,,,3,,,71,100
56336,note_off,,,,,80,0,9,,,,,2,,,78,100
56336,note_off,,,,,80,0,16,,,,,7,,,51,100
56448,note_on,,,,,112,0,9,,,,,2,,,76,100
56448,note_on,,,,,112,0,15,,,,,7,,,64,100
56448,note_on,,,,,112,0,16,,,,,7,,,52,100
56448,note_on,,,,,112,0,8,,,,,1,,,79,100
56448,note_on,,,,,112,0,10,,,,,3,,,71,100
56448,note_on,,,,,0,0,15,,,,,7,,,71,100
56448,note_on,,,,,112,0,11,,,,,4,,,52,100
56448,note_on,,,,,112,0,12,,,,,5,,,40,100
56448,note_on,,,,,0,0,13,,,,,6,,,71,100
56448,note_on,,,,,0,0,13,,,,,6,,,67,100
56448,note_on,,,,,112,0,14,,,,,6,,,52,100
56448,note_on,,,,,112,0,13,,,,,6,,,64,100
56448,note_on,,,,,0,0,15,,,,,7,,,67,100
56528,note_off,,,,,80,0,11,,,,,4,,,52,100
56528,note_off,,,,,80,0,8,,,,,1,,,79,100
56528,note_off,,,,,80,0,12,,,,,5,,,40,100
56528,note_off,,,,,80,0,16,,,,,7,,,52,100
56528,note_off,,,,,80,0,9,,,,,2,,,76,100
56528,note_off,,,,,80,0,14,,,,,6,,,52,100
56528,note_off,,,,,80,0,10,,,,,3,,,71,100
56548,note_off,,,,,0,0,13,,,,,6,,,71,100
56548,note_off,,,,,100,0,15,,,,,7,,,64,100
56548,note_off,,,,,0,0,15,,,,,7,,,67,100
56548,note_off,,,,,0,0,15,,,,,7,,,71,100
56548,note_off,,,,,0,0,13,,,,,6,,,67,100
56548,note_off,,,,,100,0,13,,,,,6,,,64,100
56640,note_on,,,,,112,0,10,,,,,3,,,71,85
56640,note_on,,,,,92,0,13,,,,,6,,,64,100
56640,note_on,,,,,92,0,15,,,,,7,,,64,100
56640,note_on,,,,,112,0,9,,,,,2,,,76,85
56640,note_on,,,,,112,0,12,,,,,5,,,40,85
56640,note_on,,,,,112,0,16,,,,,7,,,52,100
56640,note_on,,,,,112,0,14,,,,,6,,,52,100
56640,note_on,,,,,112,0,11,,,,,4,,,52,85
56640,note_on,,,,,112,0,8,,,,,1,,,76,85
56720,note_off,,,,,80,0,8,,,,,1,,,76,100
56720,note_off,,,,,80,0,13,,,,,6,,,64,100
56720,note_off,,,,,80,0,10,,,,,3,,,71,100
56720,note_off,,,,,80,0,11,,,,,4,,,52,100
56720,note_off,,,,,80,0,15,,,,,7,,,64,100
56720,note_off,,,,,80,0,12,,,,,5,,,40,100
56720,note_off,,,,,80,0,9,,,,,2,,,76,100
56720,note_off,,,,,80,0,14,,,,,6,,,52,100
56720,note_off,,,,,80,0,16,,,,,7,,,52,100
56832,note_on,,,,,112,0,10,,,,,3,,,71,86
56832,note_on,,,,,112,0,8,,,,,1,,,79,86
56832,note_on,,,,,112,0,16,,,,,7,,,52,100
56832,note_on,,,,,112,0,13,,,,,6,,,64,100
56832,note_on,,,,,112,0,15,,,,,7,,,64,100
56832,note_on,,,,,112,0,12,,,,,5,,,40,86
56832,note_on,,,,,112,0,9,,,,,2,,,76,86
56832,note_on,,,,,112,0,11,,,,,4,,,52,86
56832,note_on,,,,,112,0,14,,,,,6,,,52,100
56912,note_off,,,,,80,0,15,,,,,7,,,64,100
56912,note_off,,,,,80,0,14,,,,,6,,,52,100
56912,note_off,,,,,80,0,13,,,,,6,,,64,100
56912,note_off,,,,,80,0,9,,,,,2,,,76,100
56912,note_off,,,,,80,0,10,,,,,3,,,71,100
56912,note_off,,,,,80,0,12,,,,,5,,,40,100
56912,note_off,,,,,80,0,11,,,,,4,,,52,100
56912,note_off,,,,,80,0,8,,,,,1,,,79,100
56912,note_off,,,,,80,0,16,,,,,7,,,52,100
57024,note_on,,,,,112,0,14,,,,,6,,,52,100
57024,note_on,,,,,112,0,10,,,,,3,,,71,88
57024,note_on,,,,,112,0,15,,,,,7,,,64,100
57024,note_on,,,,,112,0,12,,,,,5,,,40,88
57024,note_on,,,,,112,0,8,,,,,1,,,79,88
57024,note_on,,,,,112,0,16,,,,,7,,,52,100
57024,note_on,,,,,112,0,9,,,,,2,,,76,88
57024,note_on,,,,,112,0,11,,,,,4,,,52,88
57024,note_on,,,,,112,0,13,,,,,6,,,64,100
57104,note_off,,,,,80,0,10,,,,,3,,,71,100
57104,note_off,,,,,80,0,11,,,,,4,,,52,100
57104,note_off,,,,,80,0,12,,,,,5,,,40,100
57104,note_off,,,,,80,0,8,,,,,1,,,79,100
57104,note_off,,,,,80,0,15,,,,,7,,,64,100
57104,note_off,,,,,80,0,9,,,,,2,,,76,100
57104,note_off,,,,,80,0,14,,,,,6,,,52,100
57104,note_off,,,,,80,0,13,,,,,6,,,64,100
57104,note_off,,,,,80,0,16,,,,,7,,,52,100
57216,note_on,,,,,112,0,11,,,,,4,,,52,90
57216,note_on,,,,,112,0,12,,,,,5,,,40,90
57216,note_on,,,,,112,0,9,,,,,2,,,76,90
57216,note_on,,,,,112,0,10,,,,,3,,,71,90
57216,note_on,,,,,112,0,14,,,,,6,,,52,100
57216,note_on,,,,,112,0,8,,,,,1,,,79,90
57216,note_on,,,,,112,0,13,,,,,6,,,64,100
57216,note_on,,,,,112,0,16,,,,,7,,,52,100
57216,note_on,,,,,112,0,15,,,,,7,,,64,100
57296,note_off,,,,,80,0,15,,,,,7,,,64,100
57296,note_off,,,,,80,0,8,,,,,1,,,79,100
57296,note_off,,,,,80,0,13,,,,,6,,,64,100
57296,note_off,,,,,80,0,11,,,,,4,,,52,100
57296,note_off,,,,,80,0,12,,,,,5,,,40,100
57296,note_off,,,,,80,0,16,,,,,7,,,52,100
57296,note_off,,,,,80,0,10,,,,,3,,,71,100
57296,note_off,,,,,80,0,14,,,,,6,,,52,100
57296,note_off,,,,,80,0,9,,,,,2,,,76,100
57408,note_on,,,,,112,0,12,,,,,5,,,40,92
57408,note_on,,,,,112,0,10,,,,,3,,,71,92
57408,note_on,,,,,112,0,11,,,,,4,,,52,92
57408,note_on,,,,,112,0,13,,,,,6,,,64,100
57408,note_on,,,,,112,0,8,,,,,1,,,79,92
57408,note_on,,,,,112,0,14,,,,,6,,,52,100
57408,note_on,,,,,112,0,15,,,,,7,,,64,100
57408,note_on,,,,,112,0,9,,,,,2,,,76,92
57408,note_on,,,,,112,0,16,,,,,7,,,52,100
57488,note_off,,,,,80,0,16,,,,,7,,,52,100
57488,note_off,,,,,80,0,10,,,,,3,,,71,100
57488,note_off,,,,,80,0,15,,,,,7,,,64,100
57488,note_off,,,,,80,0,11,,,,,4,,,52,100
57488,note_off,,,,,80,0,9,,,,,2,,,76,100
57488,note_off,,,,,80,0,13,,,,,6,,,64,100
57488,note_off,,,,,80,0,8,,,,,1,,,79,100
57488,note_off,,,,,80,0,12,,,,,5,,,40,100
57488,note_off,,,,,80,0,14,,,,,6,,,52,100
57600,note_on,,,,,112,0,14,,,,,6,,,52,100
57600,note_on,,,,,112,0,8,,,,,1,,,80,95
57600,note_on,,,,,0,0,15,,,,,7,,,62,100
57600,note_on,,,,,112,0,16,,,,,7,,,52,100
57600,note_on,,,,,112,0,12,,,,,5,,,40,95
57600,note_on,,,,,112,0,9,,,,,2,,,74,95
57600,note_on,,,,,112,0,11,,,,,4,,,52,95
57600,note_on,,,,,0,0,13,,,,,6,,,68,100
57600,note_on,,,,,112,0,13,,,,,6,,,62,100
57600,note_on,,,,,112,0,10,,,,,3,,,71,95
57600,note_on,,,,,112,0,15,,,,,7,,,68,100
57680,note_off,,,,,80,0,12,,,,,5,,,40,100
57680,note_off,,,,,80,0,9,,,,,2,,,74,100
57680,note_off,,,,,80,0,16,,,,,7,,,52,100
57680,note_off,,,,,80,0,11,,,,,4,,,52,100
57680,note_off,,,,,80,0,8,,,,,1,,,80,100
57680,note_off,,,,,80,0,10,,,,,3,,,71,100
57680,note_off,,,,,80,0,14,,,,,6,,,52,100
57700,note_off,,,,,0,0,13,,,,,6,,,68,100
57700,note_off,,,,,100,0,13,,,,,6,,,62,100
57792,note_on,,,,,112,0,12,,,,,5,,,40,96
57792,note_on,,,,,112,0,16,,,,,7,,,52,100
57792,note_on,,,,,92,0,13,,,,,6,,,62,100
57792,note_on,,,,,112,0,8,,,,,1,,,80,96
57792,note_on,,,,,112,0,9,,,,,2,,,74,96
57792,note_on,,,,,112,0,11,,,,,4,,,52,96
57792,note_on,,,,,0,0,13,,,,,6,,,68,100
57792,note_on,,,,,112,0,10,,,,,3,,,71,96
57792,note_on,,,,,112,0,14,,,,,6,,,52,100
57872,note_off,,,,,80,0,9,,,,,2,,,74,100
57872,note_off,,,,,0,0,13,,,,,6,,,68,100
57872,note_off,,,,,80,0,14,,,,,6,,,52,100
57872,note_off,,,,,80,0,16,,,,,7,,,52,100
57872,note_off,,,,,80,0,8,,,,,1,,,80,100
57872,note_off,,,,,80,0,10,,,,,3,,,71,100
57872,note_off,,,,,80,0,11,,,,,4,,,52,100
57872,note_off,,,,,80,0,12,,,,,5,,,40,100
57872,note_off,,,,,80,0,13,,,,,6,,,62,100
57984,note_on,,,,,112,0,14,,,,,6,,,52,100
57984,note_on,,,,,112,0,16,,,,,7,,,52,100
57984,note_on,,,,,112,0,10,,,,,3,,,71,97
57984,note_on,,,,,112,0,13,,,,,6,,,62,100
57984,note_on,,,,,112,0,12,,,,,5,,,40,97
57984,note_on,,,,,0,0,13,,,,,6,,,68,100
57984,note_on,,,,,112,0,11,,,,,4,,,52,97
57984,note_on,,,,,112,0,9,,,,,2,,,74,97
57984,note_on,,,,,112,0,8,,,,,1,,,80,97
58064,note_off,,,,,80,0,14,,,,,6,,,52,100
58064,note_off,,,,,80,0,13,,,,,6,,,62,100
58064,note_off,,,,,80,0,8,,,,,1,,,80,100
58064,note_off,,,,,0,0,13,,,,,6,,,68,100
58064,note_off,,,,,80,0,10,,,,,3,,,71,100
58064,note_off,,,,,80,0,9,,,,,2,,,74,100
58064,note_off,,,,,80,0,16,,,,,7,,,52,100
58064,note_off,,,,,80,0,12,,,,,5,,,40,100
58064,note_off,,,,,80,0,11,,,,,4,,,52,100
58176,note_on,,,,,112,0,9,,,,,2,,,74,99
58176,note_on,,,,,112,0,11,,,,,4,,,52,99
58176,note_on,,,,,112,0,14,,,,,6,,,52,100
58176,note_on,,,,,112,0,13,,,,,6,,,62,100
58176,note_on,,,,,0,0,13,,,,,6,,,68,100
58176,note_on,,,,,112,0,12,,,,,5,,,40,99
58176,note_on,,,,,112,0,8,,,,,1,,,80,99
58176,note_on,,,,,112,0,10,,,,,3,,,71,99
58176,note_on,,,,,112,0,16,,,,,7,,,52,100
58256,note_off,,,,,80,0,8,,,,,1,,,80,100
58256,note_off,,,,,80,0,12,,,,,5,,,40,100
58256,note_off,,,,,80,0,11,,,,,4,,,52,100
58256,note_off,,,,,80,0,10,,,,,3,,,71,100
58256,note_off,,,,,80,0,9,,,,,2,,,74,100
58256,note_off,,,,,80,0,14,,,,,6,,,52,100
58256,note_off,,,,,0,0,13,,,,,6,,,68,100
58256,note_off,,,,,80,0,13,,,,,6,,,62,100
58256,note_off,,,,,80,0,16,,,,,7,,,52,100
58368,note_on,,,,,112,0,8,,,,,1,,,80,100
58368,note_on,,,,,0,0,13,,,,,6,,,68,100
58368,note_on,,,,,112,0,13,,,,,6,,,62,100
58368,note_on,,,,,112,0,16,,,,,7,,,52,100
58368,note_on,,,,,112,0,9,,,,,2,,,74,100
58368,note_on,,,,,112,0,10,,,,,3,,,68,100
58368,note_on,,,,,112,0,14,,,,,6,,,52,100
58368,note_on,,,,,112,0,12,,,,,5,,,40,100
58368,note_on,,,,,112,0,11,,,,,4,,,52,100
58368,note_on,,,,,768,0,15,,,,,7,,,71,100
58448,note_off,,,,,80,0,12,,,,,5,,,40,100
58448,note_off,,,,,80,0,13,,,,,6,,,62,100
58448,note_off,,,,,0,0,13,,,,,6,,,68,100
58448,note_off,,,,,80,0,14,,,,,6,,,52,100
58448,note_off,,,,,80,0,16,,,,,7,,,52,100
58448,note_off,,,,,80,0,8,,,,,1,,,80,100
58448,note_off,,,,,80,0,9,,,,,2,,,74,100
58448,note_off,,,,,80,0,11,,,,,4,,,52,100
58448,note_off,,,,,80,0,10,,,,,3,,,68,100
58560,note_on,,,,,112,0,16,,,,,7,,,52,100
58560,note_on,,,,,112,0,12,,,,,5,,,40,102
58560,note_on,,,,,112,0,8,,,,,1,,,80,102
58560,note_on,,,,,112,0,9,,,,,2,,,74,102
58560,note_on,,,,,0,0,13,,,,,6,,,68,100
58560,note_on,,,,,112,0,13,,,,,6,,,62,100
58560,note_on,,,,,112,0,11,,,,,4,,,52,102
58560,note_on,,,,,112,0,10,,,,,3,,,68,102
58560,note_on,,,,,112,0,14,,,,,6,,,52,100
58624,note_off,,,,,256,0,15,,,,,7,,,71,100
58636,note_off,,,,,12,0,15,,,,,7,,,68,100
58636,note_off,,,,,0,0,15,,,,,7,,,62,100
58640,note_off,,,,,80,0,9,,,,,2,,,74,100
58640,note_off,,,,,80,0,16,,,,,7,,,52,100
58640,note_off,,,,,80,0,14,,,,,6,,,52,100
58640,note_off,,,,,80,0,8,,,,,1,,,80,100
58640,note_off,,,,,80,0,13,,,,,6,,,62,100
58640,note_off,,,,,80,0,11,,,,,4,,,52,100
58640,note_off,,,,,0,0,13,,,,,6,,,68,100
58640,note_off,,,,,80,0,10,,,,,3,,,68,100
58640,note_off,,,,,80,0,12,,,,,5,,,40,100
58752,note_on,,,,,116,0,15,,,,,7,,,60,100
58752,note_on,,,,,0,0,15,,,,,7,,,64,100
58752,note_on,,,,,0,0,15,,,,,7,,,69,100
58752,note_on,,,,,112,0,10,,,,,3,,,64,103
58752,note_on,,,,,112,0,9,,,,,2,,,72,103
58752,note_on,,,,,112,0,11,,,,,4,,,57,103
58752,note_on,,,,,112,0,14,,,,,6,,,57,100
58752,note_on,,,,,0,0,13,,,,,6,,,69,100
58752,note_on,,,,,112,0,16,,,,,7,,,57,100
58752,note_on,,,,,112,0,13,,,,,6,,,60,100
58752,note_on,,,,,112,0,12,,,,,5,,,45,103
58752,note_on,,,,,112,0,8,,,,,1,,,81,103
58752,note_on,,,,,0,0,13,,,,,6,,,64,100
58832,note_off,,,,,80,0,8,,,,,1,,,81,100
58832,note_off,,,,,80,0,9,,,,,2,,,72,100
58944,note_on,,,,,112,0,9,,,,,2,,,72,100
58944,note_on,,,,,112,0,8,,,,,1,,,69,100
59008,note_off,,,,,256,0,10,,,,,3,,,64,100
59008,note_off,,,,,256,0,15,,,,,7,,,60,100
59008,note_off,,,,,0,0,15,,,,,7,,,64,100
59008,note_off,,,,,0,0,15,,,,,7,,,69,100
59008,note_off,,,,,256,0,11,,,,,4,,,57,100
59008,note_off,,,,,256,0,16,,,,,7,,,57,100
59008,note_off,,,,,256,0,12,,,,,5,,,45,100
59008,note_off,,,,,256,0,14,,,,,6,,,57,100
59008,note_off,,,,,0,0,13,,,,,6,,,69,100
59008,note_off,,,,,0,0,13,,,,,6,,,64,100
59008,note_off,,,,,256,0,13,,,,,6,,,60,100
59024,note_off,,,,,80,0,9,,,,,2,,,72,100
59024,note_off,,,,,80,0,8,,,,,1,,,69,100
59136,note_on,,,,,112,0,8,,,,,1,,,72,100
59136,note_on,,,,,112,0,9,,,,,2,,,69,100
59216,note_off,,,,,80,0,8,,,,,1,,,72,100
59216,note_off,,,,,80,0,9,,,,,2,,,69,100
59328,note_on,,,,,320,0,11,,,,,4,,,45,100
59328,note_on,,,,,112,0,9,,,,,2,,,72,100
59328,note_on,,,,,320,0,14,,,,,6,,,45,100
59328,note_on,,,,,320,0,12,,,,,5,,,33,100
59328,note_on,,,,,320,0,15,,,,,7,,,60,100
59328,note_on,,,,,0,0,15,,,,,7,,,64,100
59328,note_on,,,,,0,0,15,,,,,7,,,69,100
59328,note_on,,,,,320,0,10,,,,,3,,,64,100
59328,note_on,,,,,0,0,13,,,,,6,,,69,100
59328,note_on,,,,,0,0,13,,,,,6,,,64,100
59328,note_on,,,,,320,0,13,,,,,6,,,60,100
59328,note_on,,,,,320,0,16,,,,,7,,,45,100
59328,note_on,,,,,112,0,8,,,,,1,,,76,100
59408,note_off,,,,,80,0,15,,,,,7,,,60,100
59408,note_off,,,,,0,0,15,,,,,7,,,69,100
59408,note_off,,,,,80,0,16,,,,,7,,,45,100
59408,note_off,,,,,80,0,12,,,,,5,,,33,100
59408,note_off,,,,,80,0,10,,,,,3,,,64,100
59408,note_off,,,,,0,0,15,,,,,7,,,64,100
59408,note_off,,,,,80,0,14,,,,,6,,,45,100
59408,note_off,,,,,80,0,8,,,,,1,,,76,100
59408,note_off,,,,,0,0,13,,,,,6,,,69,100
59408,note_off,,,,,0,0,13,,,,,6,,,64,100
59408,note_off,,,,,80,0,13,,,,,6,,,60,100
59408,note_off,,,,,80,0,9,,,,,2,,,72,100
59408,note_off,,,,,80,0,11,,,,,4,,,45,100
59520,note_on,,,,,112,0,14,,,,,6,,,44,100
59520,note_on,,,,,112,0,9,,,,,2,,,76,100
59520,note_on,,,,,112,0,13,,,,,6,,,64,100
59520,note_on,,,,,0,0,13,,,,,6,,,59,100
59520,note_on,,,,,112,0,16,,,,,7,,,44,100
59520,note_on,,,,,0,0,13,,,,,6,,,68,100
59520,note_on,,,,,112,0,11,,,,,4,,,44,100
59520,note_on,,,,,112,0,10,,,,,3,,,64,100
59520,note_on,,,,,112,0,8,,,,,1,,,71,100
59520,note_on,,,,,112,0,12,,,,,5,,,32,100
59520,note_on,,,,,0,0,15,,,,,7,,,68,100
59520,note_on,,,,,0,0,15,,,,,7,,,59,100
59520,note_on,,,,,112,0,15,,,,,7,,,64,100
59600,note_off,,,,,0,0,13,,,,,6,,,59,100
59600,note_off,,,,,80,0,13,,,,,6,,,64,100
59600,note_off,,,,,80,0,12,,,,,5,,,32,100
59600,note_off,,,,,80,0,11,,,,,4,,,44,100
59600,note_off,,,,,80,0,10,,,,,3,,,64,100
59600,note_off,,,,,0,0,13,,,,,6,,,68,100
59600,note_off,,,,,80,0,9,,,,,2,,,76,100
59600,note_off,,,,,80,0,14,,,,,6,,,44,100
59600,note_off,,,,,80,0,15,,,,,7,,,64,100
59600,note_off,,,,,0,0,15,,,,,7,,,59,100
59600,note_off,,,,,0,0,15,,,,,7,,,68,100
59600,note_off,,,,,80,0,16,,,,,7,,,44,100
59600,note_off,,,,,80,0,8,,,,,1,,,71,100
59712,note_on,,,,,112,0,11,,,,,4,,,44,100
59712,note_on,,,,,112,0,12,,,,,5,,,32,100
59712,note_on,,,,,112,0,10,,,,,3,,,64,100
59712,note_on,,,,,112,0,15,,,,,7,,,64,100
59712,note_on,,,,,0,0,15,,,,,7,,,59,100
59712,note_on,,,,,0,0,13,,,,,6,,,68,100
59712,note_on,,,,,112,0,8,,,,,1,,,76,100
59712,note_on,,,,,112,0,13,,,,,6,,,64,100
59712,note_on,,,,,112,0,9,,,,,2,,,71,100
59712,note_on,,,,,112,0,14,,,,,6,,,44,100
59712,note_on,,,,,0,0,13,,,,,6,,,59,100
59712,note_on,,,,,112,0,16,,,,,7,,,44,100
59712,note_on,,,,,0,0,15,,,,,7,,,68,100
59792,note_off,,,,,80,0,10,,,,,3,,,64,100
59792,note_off,,,,,0,0,13,,,,,6,,,59,100
59792,note_off,,,,,0,0,13,,,,,6,,,68,100
59792,note_off,,,,,0,0,15,,,,,7,,,59,100
59792,note_off,,,,,80,0,16,,,,,7,,,44,100
59792,note_off,,,,,80,0,15,,,,,7,,,64,100
59792,note_off,,,,,80,0,12,,,,,5,,,32,100
59792,note_off,,,,,80,0,11,,,,,4,,,44,100
59792,note_off,,,,,80,0,8,,,,,1,,,76,100
59792,note_off,,,,,0,0,15,,,,,7,,,68,100
59792,note_off,,,,,80,0,13,,,,,6,,,64,100
59792,note_off,,,,,80,0,9,,,,,2,,,71,100
59792,note_off,,,,,80,0,14,,,,,6,,,44,100
59904,note_on,,,,,0,0,13,,,,,6,,,69,100
59904,note_on,,,,,112,0,11,,,,,4,,,45,100
59904,note_on,,,,,112,0,16,,,,,7,,,45,100
59904,note_on,,,,,112,0,13,,,,,6,,,60,100
59904,note_on,,,,,112,0,12,,,,,5,,,33,100
59904,note_on,,,,,112,0,15,,,,,7,,,60,100
59904,note_on,,,,,0,0,15,,,,,7,,,64,100
59904,note_on,,,,,0,0,13,,,,,6,,,64,100
59904,note_on,,,,,112,0,10,,,,,3,,,64,100
59904,note_on,,,,,0,0,15,,,,,7,,,69,100
59904,note_on,,,,,112,0,14,,,,,6,,,45,100
59904,note_on,,,,,112,0,8,,,,,1,,,72,100
59904,note_on,,,,,112,0,9,,,,,2,,,76,100
59984,note_off,,,,,80,0,8,,,,,1,,,72,100
59984,note_off,,,,,80,0,9,,,,,2,,,76,100
60096,note_on,,,,,112,0,8,,,,,1,,,69,75
60096,note_on,,,,,112,0,9,,,,,2,,,72,75
60160,note_off,,,,,0,0,15,,,,,7,,,64,100
60160,note_off,,,,,256,0,16,,,,,7,,,45,100
60160,note_off,,,,,256,0,15,,,,,7,,,60,100
60160,note_off,,,,,256,0,13,,,,,6,,,60,100
60160,note_off,,,,,0,0,15,,,,,7,,,69,100
60160,note_off,,,,,256,0,12,,,,,5,,,33,100
60160,note_off,,,,,0,0,13,,,,,6,,,64,100
60160,note_off,,,,,256,0,11,,,,,4,,,45,100
60160,note_off,,,,,256,0,14,,,,,6,,,45,100
60160,note_off,,,,,256,0,10,,,,,3,,,64,100
60160,note_off,,,,,0,0,13,,,,,6,,,69,100
60176,note_off,,,,,80,0,8,,,,,1,,,69,100
60176,note_off,,,,,80,0,9,,,,,2,,,72,100
60288,note_on,,,,,112,0,8,,,,,1,,,72,75
60288,note_on,,,,,112,0,9,,,,,2,,,69,75
60368,note_off,,,,,80,0,9,,,,,2,,,69,100
60368,note_off,,,,,80,0,8,,,,,1,,,72,100
60480,note_on,,,,,320,0,14,,,,,6,,,45,100
60480,note_on,,,,,320,0,15,,,,,7,,,60,100
60480,note_on,,,,,112,0,8,,,,,1,,,76,75
60480,note_on,,,,,320,0,10,,,,,3,,,64,75
60480,note_on,,,,,320,0,13,,,,,6,,,60,100
60480,note_on,,,,,320,0,12,,,,,5,,,33,75
60480,note_on,,,,,320,0,11,,,,,4,,,45,75
60480,note_on,,,,,112,0,9,,,,,2,,,72,75
60480,note_on,,,,,0,0,13,,,,,6,,,64,100
60480,note_on,,,,,0,0,15,,,,,7,,,64,100
60480,note_on,,,,,320,0,16,,,,,7,,,45,100
60560,note_off,,,,,80,0,10,,,,,3,,,64,100
60560,note_off,,,,,80,0,9,,,,,2,,,72,100
60560,note_off,,,,,80,0,8,,,,,1,,,76,100
60560,note_off,,,,,80,0,12,,,,,5,,,33,100
60560,note_off,,,,,80,0,15,,,,,7,,,60,100
60560,note_off,,,,,0,0,15,,,,,7,,,64,100
60560,note_off,,,,,80,0,16,,,,,7,,,45,100
60560,note_off,,,,,80,0,14,,,,,6,,,45,100
60560,note_off,,,,,0,0,13,,,,,6,,,64,100
60560,note_off,,,,,80,0,13,,,,,6,,,60,100
60560,note_off,,,,,80,0,11,,,,,4,,,45,100
60672,note_on,,,,,0,0,15,,,,,7,,,64,100
60672,note_on,,,,,0,0,13,,,,,6,,,64,100
60672,note_on,,,,,112,0,13,,,,,6,,,59,100
60672,note_on,,,,,112,0,11,,,,,4,,,44,75
60672,note_on,,,,,112,0,15,,,,,7,,,59,100
60672,note_on,,,,,112,0,16,,,,,7,,,44,100
60672,note_on,,,,,112,0,12,,,,,5,,,32,75
60672,note_on,,,,,112,0,9,,,,,2,,,76,75
60672,note_on,,,,,112,0,14,,,,,6,,,44,100
60672,note_on,,,,,112,0,8,,,,,1,,,71,75
60672,note_on,,,,,112,0,10,,,,,3,,,64,75
60752,note_off,,,,,80,0,12,,,,,5,,,32,100
60752,note_off,,,,,0,0,15,,,,,7,,,64,100
60752,note_off,,,,,80,0,10,,,,,3,,,64,100
60752,note_off,,,,,80,0,9,,,,,2,,,76,100
60752,note_off,,,,,80,0,15,,,,,7,,,59,100
60752,note_off,,,,,80,0,14,,,,,6,,,44,100
60752,note_off,,,,,80,0,16,,,,,7,,,44,100
60752,note_off,,,,,80,0,11,,,,,4,,,44,100
60752,note_off,,,,,80,0,13,,,,,6,,,59,100
60752,note_off,,,,,0,0,13,,,,,6,,,64,100
60752,note_off,,,,,80,0,8,,,,,1,,,71,100
60864,note_on,,,,,112,0,12,,,,,5,,,32,75
60864,note_on,,,,,112,0,13,,,,,6,,,59,100
60864,note_on,,,,,0,0,13,,,,,6,,,64,100
60864,note_on,,,,,112,0,15,,,,,7,,,59,100
60864,note_on,,,,,112,0,9,,,,,2,,,71,75
60864,note_on,,,,,112,0,14,,,,,6,,,44,100
60864,note_on,,,,,112,0,8,,,,,1,,,76,75
60864,note_on,,,,,112,0,11,,,,,4,,,44,75
60864,note_on,,,,,0,0,15,,,,,7,,,64,100
60864,note_on,,,,,112,0,10,,,,,3,,,64,75
60864,note_on,,,,,112,0,16,,,,,7,,,44,100
60944,note_off,,,,,80,0,14,,,,,6,,,44,100
60944,note_off,,,,,80,0,11,,,,,4,,,44,100
60944,note_off,,,,,80,0,10,,,,,3,,,64,100
60944,note_off,,,,,80,0,12,,,,,5,,,32,100
60944,note_off,,,,,80,0,9,,,,,2,,,71,100
60944,note_off,,,,,80,0,15,,,,,7,,,59,100
60944,note_off,,,,,80,0,13,,,,,6,,,59,100
60944,note_off,,,,,0,0,13,,,,,6,,,64,100
60944,note_off,,,,,80,0,8,,,,,1,,,76,100
60944,note_off,,,,,0,0,15,,,,,7,,,64,100
60944,note_off,,,,,80,0,16,,,,,7,,,44,100
61056,note_on,,,,,112,0,15,,,,,7,,,60,100
61056,note_on,,,,,0,0,15,,,,,7,,,64,100
61056,note_on,,,,,112,0,11,,,,,4,,,45,75
61056,note_on,,,,,112,0,13,,,,,6,,,60,100
61056,note_on,,,,,112,0,14,,,,,6,,,45,100
61056,note_on,,,,,112,0,10,,,,,3,,,64,75
61056,note_on,,,,,112,0,9,,,,,2,,,76,75
61056,note_on,,,,,112,0,12,,,,,5,,,33,75
61056,note_on,,,,,0,0,13,,,,,6,,,64,100
61056,note_on,,,,,112,0,8,,,,,1,,,72,75
61056,note_on,,,,,112,0,16,,,,,7,,,45,100
61136,note_off,,,,,80,0,8,,,,,1,,,72,100
61136,note_off,,,,,80,0,9,,,,,2,,,76,100
61248,note_on,,,,,112,0,9,,,,,2,,,72,95
61248,note_on,,,,,112,0,8,,,,,1,,,69,95
61312,note_off,,,,,256,0,16,,,,,7,,,45,100
61312,note_off,,,,,256,0,14,,,,,6,,,45,100
61312,note_off,,,,,256,0,11,,,,,4,,,45,100
61312,note_off,,,,,256,0,13,,,,,6,,,60,100
61312,note_off,,,,,256,0,10,,,,,3,,,64,100
61312,note_off,,,,,256,0,12,,,,,5,,,33,100
61312,note_off,,,,,0,0,13,,,,,6,,,64,100
61312,note_off,,,,,256,0,15,,,,,7,,,60,100
61312,note_off,,,,,0,0,15,,,,,7,,,64,100
61328,note_off,,,,,80,0,9,,,,,2,,,72,100
61328,note_off,,,,,80,0,8,,,,,1,,,69,100
61440,note_on,,,,,112,0,9,,,,,2,,,69,100
61440,note_on,,,,,112,0,8,,,,,1,,,72,100
61520,note_off,,,,,80,0,8,,,,,1,,,72,100
61520,note_off,,,,,80,0,9,,,,,2,,,69,100
61632,note_on,,,,,320,0,13,,,,,6,,,60,100
61632,note_on,,,,,320,0,15,,,,,7,,,60,100
61632,note_on,,,,,0,0,15,,,,,7,,,64,100
61632,note_on,,,,,320,0,10,,,,,3,,,64,100
61632,note_on,,,,,320,0,16,,,,,7,,,45,100
61632,note_on,,,,,0,0,15,,,,,7,,,69,100
61632,note_on,,,,,112,0,9,,,,,2,,,72,100
61632,note_on,,,,,320,0,11,,,,,4,,,45,100
61632,note_on,,,,,0,0,13,,,,,6,,,64,100
61632,note_on,,,,,0,0,13,,,,,6,,,69,100
61632,note_on,,,,,320,0,12,,,,,5,,,33,100
61632,note_on,,,,,320,0,14,,,,,6,,,45,100
61632,note_on,,,,,112,0,8,,,,,1,,,76,100
61712,note_off,,,,,80,0,8,,,,,1,,,76,100
61712,note_off,,,,,0,0,15,,,,,7,,,69,100
61712,note_off,,,,,80,0,13,,,,,6,,,60,100
61712,note_off,,,,,80,0,16,,,,,7,,,45,100
61712,note_off,,,,,0,0,13,,,,,6,,,64,100
61712,note_off,,,,,0,0,15,,,,,7,,,64,100
61712,note_off,,,,,80,0,9,,,,,2,,,72,100
61712,note_off,,,,,80,0,11,,,,,4,,,45,100
61712,note_off,,,,,80,0,14,,,,,6,,,45,100
61712,note_off,,,,,80,0,10,,,,,3,,,64,100
61712,note_off,,,,,80,0,15,,,,,7,,,60,100
61712,note_off,,,,,80,0,12,,,,,5,,,33,100
61712,note_off,,,,,0,0,13,,,,,6,,,69,100
61824,note_on,,,,,112,0,10,,,,,3,,,64,100
61824,note_on,,,,,112,0,11,,,,,4,,,44,100
61824,note_on,,,,,112,0,9,,,,,2,,,76,100
61824,note_on,,,,,0,0,15,,,,,7,,,68,100
61824,note_on,,,,,112,0,13,,,,,6,,,64,100
61824,note_on,,,,,112,0,15,,,,,7,,,64,100
61824,note_on,,,,,0,0,15,,,,,7,,,59,100
61824,note_on,,,,,112,0,16,,,,,7,,,44,100
61824,note_on,,,,,0,0,13,,,,,6,,,59,100
61824,note_on,,,,,0,0,13,,,,,6,,,68,100
61824,note_on,,,,,112,0,8,,,,,1,,,71,100
61824,note_on,,,,,112,0,12,,,,,5,,,32,100
61824,note_on,,,,,112,0,14,,,,,6,,,44,100
61904,note_off,,,,,80,0,12,,,,,5,,,32,100
61904,note_off,,,,,80,0,14,,,,,6,,,44,100
61904,note_off,,,,,80,0,9,,,,,2,,,76,100
61904,note_off,,,,,0,0,15,,,,,7,,,68,100
61904,note_off,,,,,80,0,13,,,,,6,,,64,100
61904,note_off,,,,,80,0,11,,,,,4,,,44,100
61904,note_off,,,,,0,0,15,,,,,7,,,59,100
61904,note_off,,,,,80,0,10,,,,,3,,,64,100
61904,note_off,,,,,80,0,15,,,,,7,,,64,100
61904,note_off,,,,,80,0,16,,,,,7,,,44,100
61904,note_off,,,,,0,0,13,,,,,6,,,59,100
61904,note_off,,,,,0,0,13,,,,,6,,,68,100
61904,note_off,,,,,80,0,8,,,,,1,,,71,100
62016,note_on,,,,,0,0,13,,,,,6,,,59,100
62016,note_on,,,,,0,0,13,,,,,6,,,68,100
62016,note_on,,,,,0,0,15,,,,,7,,,68,100
62016,note_on,,,,,112,0,10,,,,,3,,,64,100
62016,note_on,,,,,0,0,15,,,,,7,,,59,100
62016,note_on,,,,,112,0,8,,,,,1,,,76,100
62016,note_on,,,,,112,0,14,,,,,6,,,44,100
62016,note_on,,,,,112,0,16,,,,,7,,,44,100
62016,note_on,,,,,112,0,15,,,,,7,,,64,100
62016,note_on,,,,,112,0,12,,,,,5,,,32,100
62016,note_on,,,,,112,0,9,,,,,2,,,71,100
62016,note_on,,,,,112,0,13,,,,,6,,,64,100
62016,note_on,,,,,112,0,11,,,,,4,,,44,100
62096,note_off,,,,,80,0,8,,,,,1,,,76,100
62096,note_off,,,,,80,0,13,,,,,6,,,64,100
62096,note_off,,,,,0,0,15,,,,,7,,,68,100
62096,note_off,,,,,80,0,10,,,,,3,,,64,100
62096,note_off,,,,,80,0,12,,,,,5,,,32,100
62096,note_off,,,,,80,0,16,,,,,7,,,44,100
62096,note_off,,,,,80,0,9,,,,,2,,,71,100
62096,note_off,,,,,80,0,14,,,,,6,,,44,100
62096,note_off,,,,,0,0,13,,,,,6,,,59,100
62096,note_off,,,,,0,0,13,,,,,6,,,68,100
62096,note_off,,,,,80,0,11,,,,,4,,,44,100
62096,note_off,,,,,80,0,15,,,,,7,,,64,100
62096,note_off,,,,,0,0,15,,,,,7,,,59,100
62208,note_on,,,,,112,0,13,,,,,6,,,60,100
62208,note_on,,,,,0,0,15,,,,,7,,,64,100
62208,note_on,,,,,0,0,13,,,,,6,,,64,100
62208,note_on,,,,,112,0,9,,,,,2,,,69,100
62208,note_on,,,,,0,0,15,,,,,7,,,69,100
62208,note_on,,,,,112,0,8,,,,,1,,,72,100
62208,note_on,,,,,112,0,11,,,,,4,,,45,100
62208,note_on,,,,,112,0,15,,,,,7,,,60,100
62208,note_on,,,,,112,0,10,,,,,3,,,64,100
62208,note_on,,,,,112,0,14,,,,,6,,,45,100
62208,note_on,,,,,0,0,13,,,,,6,,,69,100
62208,note_on,,,,,112,0,16,,,,,7,,,45,100
62208,note_on,,,,,112,0,12,,,,,5,,,33,100
62288,note_off,,,,,80,0,10,,,,,3,,,64,100
62288,note_off,,,,,80,0,16,,,,,7,,,45,100
62288,note_off,,,,,80,0,9,,,,,2,,,69,100
62288,note_off,,,,,80,0,12,,,,,5,,,33,100
62288,note_off,,,,,80,0,11,,,,,4,,,45,100
62288,note_off,,,,,80,0,14,,,,,6,,,45,100
62288,note_off,,,,,80,0,8,,,,,1,,,72,100
62308,note_off,,,,,100,0,15,,,,,7,,,60,100
62308,note_off,,,,,0,0,15,,,,,7,,,64,100
62308,note_off,,,,,0,0,15,,,,,7,,,69,100
62308,note_off,,,,,0,0,13,,,,,6,,,69,100
62308,note_off,,,,,0,0,13,,,,,6,,,64,100
62308,note_off,,,,,100,0,13,,,,,6,,,60,100
62400,note_on,,,,,112,0,14,,,,,6,,,45,100
62400,note_on,,,,,112,0,10,,,,,3,,,64,85
62400,note_on,,,,,112,0,8,,,,,1,,,69,85
62400,note_on,,,,,92,0,13,,,,,6,,,69,100
62400,note_on,,,,,112,0,16,,,,,7,,,45,100
62400,note_on,,,,,92,0,15,,,,,7,,,69,100
62400,note_on,,,,,112,0,11,,,,,4,,,45,85
62400,note_on,,,,,112,0,9,,,,,2,,,69,85
62400,note_on,,,,,112,0,12,,,,,5,,,33,85
62480,note_off,,,,,80,0,10,,,,,3,,,64,100
62480,note_off,,,,,80,0,11,,,,,4,,,45,100
62480,note_off,,,,,80,0,9,,,,,2,,,69,100
62480,note_off,,,,,80,0,15,,,,,7,,,69,100
62480,note_off,,,,,80,0,13,,,,,6,,,69,100
62480,note_off,,,,,80,0,8,,,,,1,,,69,100
62480,note_off,,,,,80,0,14,,,,,6,,,45,100
62480,note_off,,,,,80,0,12,,,,,5,,,33,100
62480,note_off,,,,,80,0,16,,,,,7,,,45,100
62592,note_on,,,,,112,0,11,,,,,4,,,45,86
62592,note_on,,,,,112,0,16,,,,,7,,,45,100
62592,note_on,,,,,112,0,10,,,,,3,,,64,86
62592,note_on,,,,,112,0,9,,,,,2,,,69,86
62592,note_on,,,,,112,0,12,,,,,5,,,33,86
62592,note_on,,,,,112,0,14,,,,,6,,,45,100
62592,note_on,,,,,112,0,8,,,,,1,,,72,86
62592,note_on,,,,,112,0,15,,,,,7,,,69,100
62592,note_on,,,,,112,0,13,,,,,6,,,69,100
62672,note_off,,,,,80,0,16,,,,,7,,,45,100
62672,note_off,,,,,80,0,10,,,,,3,,,64,100
62672,note_off,,,,,80,0,11,,,,,4,,,45,100
62672,note_off,,,,,80,0,9,,,,,2,,,69,100
62672,note_off,,,,,80,0,12,,,,,5,,,33,100
62672,note_off,,,,,80,0,13,,,,,6,,,69,100
62672,note_off,,,,,80,0,8,,,,,1,,,72,100
62672,note_off,,,,,80,0,15,,,,,7,,,69,100
62672,note_off,,,,,80,0,14,,,,,6,,,45,100
62784,note_on,,,,,112,0,16,,,,,7,,,45,100
62784,note_on,,,,,112,0,10,,,,,3,,,64,88
62784,note_on,,,,,112,0,9,,,,,2,,,69,88
62784,note_on,,,,,112,0,11,,,,,4,,,45,88
62784,note_on,,,,,112,0,13,,,,,6,,,69,100
62784,note_on,,,,,112,0,15,,,,,7,,,69,100
62784,note_on,,,,,112,0,8,,,,,1,,,72,88
62784,note_on,,,,,112,0,12,,,,,5,,,33,88
62784,note_on,,,,,112,0,14,,,,,6,,,45,100
62864,note_off,,,,,80,0,12,,,,,5,,,33,100
62864,note_off,,,,,80,0,16,,,,,7,,,45,100
62864,note_off,,,,,80,0,11,,,,,4,,,45,100
62864,note_off,,,,,80,0,14,,,,,6,,,45,100
62864,note_off,,,,,80,0,10,,,,,3,,,64,100
62864,note_off,,,,,80,0,8,,,,,1,,,72,100
62864,note_off,,,,,80,0,9,,,,,2,,,69,100
62864,note_off,,,,,80,0,15,,,,,7,,,69,100
62864,note_off,,,,,80,0,13,,,,,6,,,69,100
62976,note_on,,,,,112,0,11,,,,,4,,,45,90
62976,note_on,,,,,112,0,9,,,,,2,,,69,90
62976,note_on,,,,,112,0,12,,,,,5,,,33,90
62976,note_on,,,,,112,0,13,,,,,6,,,69,100
62976,note_on,,,,,112,0,16,,,,,7,,,45,100
62976,note_on,,,,,112,0,14,,,,,6,,,45,100
62976,note_on,,,,,112,0,15,,,,,7,,,69,100
62976,note_on,,,,,112,0,10,,,,,3,,,64,90
62976,note_on,,,,,112,0,8,,,,,1,,,72,90
63056,note_off,,,,,80,0,13,,,,,6,,,69,100
63056,note_off,,,,,80,0,16,,,,,7,,,45,100
63056,note_off,,,,,80,0,14,,,,,6,,,45,100
63056,note_off,,,,,80,0,15,,,,,7,,,69,100
63056,note_off,,,,,80,0,9,,,,,2,,,69,100
63056,note_off,,,,,80,0,11,,,,,4,,,45,100
63056,note_off,,,,,80,0,8,,,,,1,,,72,100
63056,note_off,,,,,80,0,12,,,,,5,,,33,100
63056,note_off,,,,,80,0,10,,,,,3,,,64,100
63168,note_on,,,,,112,0,16,,,,,7,,,45,100
63168,note_on,,,,,112,0,9,,,,,2,,,69,92
63168,note_on,,,,,112,0,14,,,,,6,,,45,100
63168,note_on,,,,,112,0,11,,,,,4,,,45,92
63168,note_on,,,,,112,0,12,,,,,5,,,33,92
63168,note_on,,,,,112,0,13,,,,,6,,,69,100
63168,note_on,,,,,112,0,8,,,,,1,,,72,92
63168,note_on,,,,,112,0,15,,,,,7,,,69,100
63168,note_on,,,,,112,0,10,,,,,3,,,64,92
63248,note_off,,,,,80,0,10,,,,,3,,,64,100
63248,note_off,,,,,80,0,11,,,,,4,,,45,100
63248,note_off,,,,,80,0,14,,,,,6,,,45,100
63248,note_off,,,,,80,0,16,,,,,7,,,45,100
63248,note_off,,,,,80,0,15,,,,,7,,,69,100
63248,note_off,,,,,80,0,12,,,,,5,,,33,100
63248,note_off,,,,,80,0,9,,,,,2,,,69,100
63248,note_off,,,,,80,0,13,,,,,6,,,69,100
63248,note_off,,,,,80,0,8,,,,,1,,,72,100
63360,note_on,,,,,0,0,15,,,,,7,,,73,100
63360,note_on,,,,,112,0,15,,,,,7,,,67,100
63360,note_on,,,,,112,0,12,,,,,5,,,33,95
63360,note_on,,,,,112,0,14,,,,,6,,,45,100
63360,note_on,,,,,112,0,13,,,,,6,,,67,100
63360,note_on,,,,,112,0,16,,,,,7,,,45,100
63360,note_on,,,,,112,0,9,,,,,2,,,67,95
63360,note_on,,,,,112,0,10,,,,,3,,,64,95
63360,note_on,,,,,112,0,8,,,,,1,,,73,95
63360,note_on,,,,,112,0,11,,,,,4,,,45,95
63360,note_on,,,,,0,0,13,,,,,6,,,73,100
63440,note_off,,,,,80,0,9,,,,,2,,,67,100
63440,note_off,,,,,80,0,14,,,,,6,,,45,100
63440,note_off,,,,,80,0,10,,,,,3,,,64,100
63440,note_off,,,,,80,0,11,,,,,4,,,45,100
63440,note_off,,,,,80,0,16,,,,,7,,,45,100
63440,note_off,,,,,80,0,12,,,,,5,,,33,100
63440,note_off,,,,,80,0,8,,,,,1,,,73,100
63460,note_off,,,,,100,0,13,,,,,6,,,67,100
63460,note_off,,,,,0,0,13,,,,,6,,,73,100
63552,note_on,,,,,92,0,13,,,,,6,,,67,100
63552,note_on,,,,,112,0,12,,,,,5,,,33,96
63552,note_on,,,,,112,0,16,,,,,7,,,45,100
63552,note_on,,,,,0,0,13,,,,,6,,,73,100
63552,note_on,,,,,112,0,14,,,,,6,,,45,100
63552,note_on,,,,,112,0,9,,,,,2,,,67,96
63552,note_on,,,,,112,0,8,,,,,1,,,73,96
63552,note_on,,,,,112,0,11,,,,,4,,,45,96
63552,note_on,,,,,112,0,10,,,,,3,,,64,96
63632,note_off,,,,,0,0,13,,,,,6,,,73,100
63632,note_off,,,,,80,0,12,,,,,5,,,33,100
63632,note_off,,,,,80,0,9,,,,,2,,,67,100
63632,note_off,,,,,80,0,11,,,,,4,,,45,100
63632,note_off,,,,,80,0,14,,,,,6,,,45,100
63632,note_off,,,,,80,0,16,,,,,7,,,45,100
63632,note_off,,,,,80,0,8,,,,,1,,,73,100
63632,note_off,,,,,80,0,13,,,,,6,,,67,100
63632,note_off,,,,,80,0,10,,,,,3,,,64,100
63744,note_on,,,,,112,0,10,,,,,3,,,64,97
63744,note_on,,,,,112,0,11,,,,,4,,,45,97
63744,note_on,,,,,112,0,16,,,,,7,,,45,100
63744,note_on,,,,,112,0,12,,,,,5,,,33,97
63744,note_on,,,,,112,0,14,,,,,6,,,45,100
63744,note_on,,,,,0,0,13,,,,,6,,,73,100
63744,note_on,,,,,112,0,9,,,,,2,,,67,97
63744,note_on,,,,,112,0,13,,,,,6,,,67,100
63744,note_on,,,,,112,0,8,,,,,1,,,73,97
63824,note_off,,,,,80,0,13,,,,,6,,,67,100
63824,note_off,,,,,80,0,10,,,,,3,,,64,100
63824,note_off,,,,,0,0,13,,,,,6,,,73,100
63824,note_off,,,,,80,0,12,,,,,5,,,33,100
63824,note_off,,,,,80,0,11,,,,,4,,,45,100
63824,note_off,,,,,80,0,16,,,,,7,,,45,100
63824,note_off,,,,,80,0,8,,,,,1,,,73,100
63824,note_off,,,,,80,0,14,,,,,6,,,45,100
63824,note_off,,,,,80,0,9,,,,,2,,,67,100
63936,note_on,,,,,112,0,8,,,,,1,,,73,99
63936,note_on,,,,,0,0,13,,,,,6,,,73,100
63936,note_on,,,,,112,0,12,,,,,5,,,33,99
63936,note_on,,,,,112,0,13,,,,,6,,,67,100
63936,note_on,,,,,112,0,10,,,,,3,,,64,99
63936,note_on,,,,,112,0,11,,,,,4,,,45,99
63936,note_on,,,,,112,0,16,,,,,7,,,45,100
63936,note_on,,,,,112,0,14,,,,,6,,,45,100
63936,note_on,,,,,112,0,9,,,,,2,,,67,99
64016,note_off,,,,,80,0,16,,,,,7,,,45,100
64016,note_off,,,,,80,0,10,,,,,3,,,64,100
64016,note_off,,,,,80,0,8,,,,,1,,,73,100
64016,note_off,,,,,0,0,13,,,,,6,,,73,100
64016,note_off,,,,,80,0,11,,,,,4,,,45,100
64016,note_off,,,,,80,0,13,,,,,6,,,67,100
64016,note_off,,,,,80,0,12,,,,,5,,,33,100
64016,note_off,,,,,80,0,14,,,,,6,,,45,100
64016,note_off,,,,,80,0,9,,,,,2,,,67,100
64128,note_on,,,,,0,0,13,,,,,6,,,73,100
64128,note_on,,,,,112,0,13,,,,,6,,,67,100
64128,note_on,,,,,112,0,12,,,,,5,,,33,100
64128,note_on,,,,,112,0,10,,,,,3,,,61,100
64128,note_on,,,,,112,0,16,,,,,7,,,45,100
64128,note_on,,,,,768,0,15,,,,,7,,,76,100
64128,note_on,,,,,112,0,8,,,,,1,,,73,100
64128,note_on,,,,,112,0,14,,,,,6,,,45,100
64128,note_on,,,,,112,0,11,,,,,4,,,45,100
64128,note_on,,,,,112,0,9,,,,,2,,,67,100
64208,note_off,,,,,80,0,16,,,,,7,,,45,100
64208,note_off,,,,,80,0,11,,,,,4,,,45,100
64208,note_off,,,,,0,0,13,,,,,6,,,73,100
64208,note_off,,,,,80,0,8,,,,,1,,,73,100
64208,note_off,,,,,80,0,10,,,,,3,,,61,100
64208,note_off,,,,,80,0,12,,,,,5,,,33,100
64208,note_off,,,,,80,0,9,,,,,2,,,67,100
64208,note_off,,,,,80,0,14,,,,,6,,,45,100
64208,note_off,,,,,80,0,13,,,,,6,,,67,100
64320,note_on,,,,,112,0,10,,,,,3,,,61,102
64320,note_on,,,,,112,0,9,,,,,2,,,67,102
64320,note_on,,,,,112,0,8,,,,,1,,,73,102
64320,note_on,,,,,112,0,16,,,,,7,,,45,100
64320,note_on,,,,,112,0,12,,,,,5,,,33,102
64320,note_on,,,,,0,0,13,,,,,6,,,73,100
64320,note_on,,,,,112,0,14,,,,,6,,,45,100
64320,note_on,,,,,112,0,11,,,,,4,,,45,102
64320,note_on,,,,,112,0,13,,,,,6,,,67,100
64384,note_off,,,,,256,0,15,,,,,7,,,76,100
64396,note_off,,,,,0,0,15,,,,,7,,,73,100
64396,note_off,,,,,12,0,15,,,,,7,,,67,100
64400,note_off,,,,,80,0,11,,,,,4,,,45,100
64400,note_off,,,,,80,0,9,,,,,2,,,67,100
64400,note_off,,,,,80,0,8,,,,,1,,,73,100
64400,note_off,,,,,80,0,14,,,,,6,,,45,100
64400,note_off,,,,,80,0,10,,,,,3,,,61,100
64400,note_off,,,,,0,0,13,,,,,6,,,73,100
64400,note_off,,,,,80,0,16,,,,,7,,,45,100
64400,note_off,,,,,80,0,12,,,,,5,,,33,100
64400,note_off,,,,,80,0,13,,,,,6,,,67,100
64512,note_on,,,,,112,0,16,,,,,7,,,50,100
64512,note_on,,,,,0,0,15,,,,,7,,,69,100
64512,note_on,,,,,112,0,11,,,,,4,,,50,103
64512,note_on,,,,,112,0,9,,,,,2,,,66,103
64512,note_on,,,,,112,0,10,,,,,3,,,57,103
64512,note_on,,,,,116,0,15,,,,,7,,,66,100
64512,note_on,,,,,112,0,14,,,,,6,,,50,100
64512,note_on,,,,,0,0,15,,,,,7,,,74,100
64512,note_on,,,,,112,0,13,,,,,6,,,66,100
64512,note_on,,,,,0,0,13,,,,,6,,,74,100
64512,note_on,,,,,0,0,13,,,,,6,,,69,100
64512,note_on,,,,,112,0,12,,,,,5,,,38,103
64512,note_on,,,,,112,0,8,,,,,1,,,74,103
64592,note_off,,,,,80,0,9,,,,,2,,,66,100
64592,note_off,,,,,80,0,8,,,,,1,,,74,100
64704,note_on,,,,,112,0,8,,,,,1,,,69,100
64704,note_on,,,,,112,0,9,,,,,2,,,78,100
64768,note_off,,,,,0,0,13,,,,,6,,,74,100
64768,note_off,,,,,256,0,11,,,,,4,,,50,100
64768,note_off,,,,,256,0,10,,,,,3,,,57,100
64768,note_off,,,,,256,0,12,,,,,5,,,38,100
64768,note_off,,,,,0,0,15,,,,,7,,,74,100
64768,note_off,,,,,0,0,15,,,,,7,,,69,100
64768,note_off,,,,,256,0,15,,,,,7,,,66,100
64768,note_off,,,,,256,0,14,,,,,6,,,50,100
64768,note_off,,,,,256,0,16,,,,,7,,,50,100
64768,note_off,,,,,256,0,13,,,,,6,,,66,100
64768,note_off,,,,,0,0,13,,,,,6,,,69,100
64784,note_off,,,,,80,0,9,,,,,2,,,78,100
64784,note_off,,,,,80,0,8,,,,,1,,,69,100
64896,note_on,,,,,112,0,9,,,,,2,,,81,100
64896,note_on,,,,,112,0,8,,,,,1,,,74,100
64976,note_off,,,,,80,0,9,,,,,2,,,81,100
64976,note_off,,,,,80,0,8,,,,,1,,,74,100
65088,note_on,,,,,112,0,8,,,,,1,,,78,100
65088,note_on,,,,,320,0,12,,,,,5,,,38,100
65088,note_on,,,,,320,0,11,,,,,4,,,50,100
65088,note_on,,,,,320,0,10,,,,,3,,,69,100
65088,note_on,,,,,320,0,15,,,,,7,,,74,100
65088,note_on,,,,,320,0,13,,,,,6,,,74,100
65088,note_on,,,,,0,0,13,,,,,6,,,66,100
65088,note_on,,,,,0,0,13,,,,,6,,,69,100
65088,note_on,,,,,320,0,14,,,,,6,,,50,100
65088,note_on,,,,,0,0,15,,,,,7,,,66,100
65088,note_on,,,,,320,0,16,,,,,7,,,50,100
65088,note_on,,,,,112,0,9,,,,,2,,,78,100
65088,note_on,,,,,0,0,15,,,,,7,,,69,100
65168,note_off,,,,,0,0,15,,,,,7,,,69,100
65168,note_off,,,,,0,0,15,,,,,7,,,66,100
65168,note_off,,,,,80,0,15,,,,,7,,,74,100
65168,note_off,,,,,80,0,12,,,,,5,,,38,100
65168,note_off,,,,,80,0,9,,,,,2,,,78,100
65168,note_off,,,,,80,0,13,,,,,6,,,74,100
65168,note_off,,,,,80,0,8,,,,,1,,,78,100
65168,note_off,,,,,80,0,16,,,,,7,,,50,100
65168,note_off,,,,,0,0,13,,,,,6,,,66,100
65168,note_off,,,,,0,0,13,,,,,6,,,69,100
65168,note_off,,,,,80,0,14,,,,,6,,,50,100
65168,note_off,,,,,80,0,10,,,,,3,,,69,100
65168,note_off,,,,,80,0,11,,,,,4,,,50,100
65280,note_on,,,,,112,0,12,,,,,5,,,37,100
65280,note_on,,,,,112,0,8,,,,,1,,,76,100
65280,note_on,,,,,112,0,16,,,,,7,,,49,100
65280,note_on,,,,,112,0,13,,,,,6,,,73,100
65280,note_on,,,,,0,0,13,,,,,6,,,64,100
65280,note_on,,,,,0,0,13,,,,,6,,,69,100
65280,note_on,,,,,112,0,14,,,,,6,,,49,100
65280,note_on,,,,,0,0,15,,,,,7,,,69,100
65280,note_on,,,,,0,0,15,,,,,7,,,64,100
65280,note_on,,,,,112,0,15,,,,,7,,,73,100
65280,note_on,,,,,112,0,10,,,,,3,,,69,100
65280,note_on,,,,,112,0,9,,,,,2,,,81,100
65280,note_on,,,,,112,0,11,,,,,4,,,49,100
65360,note_off,,,,,80,0,10,,,,,3,,,69,100
65360,note_off,,,,,0,0,15,,,,,7,,,69,100
65360,note_off,,,,,0,0,15,,,,,7,,,64,100
65360,note_off,,,,,80,0,15,,,,,7,,,73,100
65360,note_off,,,,,80,0,12,,,,,5,,,37,100
65360,note_off,,,,,0,0,13,,,,,6,,,64,100
65360,note_off,,,,,80,0,13,,,,,6,,,73,100
65360,note_off,,,,,80,0,14,,,,,6,,,49,100
65360,note_off,,,,,80,0,8,,,,,1,,,76,100
65360,note_off,,,,,80,0,11,,,,,4,,,49,100
65360,note_off,,,,,80,0,16,,,,,7,,,49,100
65360,note_off,,,,,0,0,13,,,,,6,,,69,100
65360,note_off,,,,,80,0,9,,,,,2,,,81,100
65472,note_on,,,,,112,0,12,,,,,5,,,37,100
65472,note_on,,,,,112,0,15,,,,,7,,,73,100
65472,note_on,,,,,0,0,15,,,,,7,,,64,100
65472,note_on,,,,,0,0,15,,,,,7,,,69,100
65472,note_on,,,,,112,0,9,,,,,2,,,76,100
65472,note_on,,,,,0,0,13,,,,,6,,,64,100
65472,note_on,,,,,0,0,13,,,,,6,,,69,100
65472,note_on,,,,,112,0,10,,,,,3,,,69,100
65472,note_on,,,,,112,0,11,,,,,4,,,49,100
65472,note_on,,,,,112,0,16,,,,,7,,,49,100
65472,note_on,,,,,112,0,8,,,,,1,,,81,100
65472,note_on,,,,,112,0,13,,,,,6,,,73,100
65472,note_on,,,,,112,0,14,,,,,6,,,49,100
65552,note_off,,,,,80,0,9,,,,,2,,,76,100
65552,note_off,,,,,80,0,14,,,,,6,,,49,100
65552,note_off,,,,,80,0,12,,,,,5,,,37,100
65552,note_off,,,,,80,0,11,,,,,4,,,49,100
65552,note_off,,,,,80,0,13,,,,,6,,,73,100
65552,note_off,,,,,0,0,15,,,,,7,,,69,100
65552,note_off,,,,,80,0,16,,,,,7,,,49,100
65552,note_off,,,,,0,0,13,,,,,6,,,64,100
65552,note_off,,,,,80,0,15,,,,,7,,,73,100
65552,note_off,,,,,80,0,8,,,,,1,,,81,100
65552,note_off,,,,,80,0,10,,,,,3,,,69,100
65552,note_off,,,,,0,0,13,,,,,6,,,69,100
65552,note_off,,,,,0,0,15,,,,,7,,,64,100
65664,note_on,,,,,112,0,13,,,,,6,,,66,100
65664,note_on,,,,,0,0,13,,,,,6,,,69,100
65664,note_on,,,,,112,0,10,,,,,3,,,69,100
65664,note_on,,,,,0,0,13,,,,,6,,,74,100
65664,note_on,,,,,112,0,14,,,,,6,,,50,100
65664,note_on,,,,,0,0,15,,,,,7,,,74,100
65664,note_on,,,,,0,0,15,,,,,7,,,69,100
65664,note_on,,,,,112,0,15,,,,,7,,,66,100
65664,note_on,,,,,112,0,11,,,,,4,,,50,100
65664,note_on,,,,,112,0,16,,,,,7,,,50,100
65664,note_on,,,,,112,0,9,,,,,2,,,81,100
65664,note_on,,,,,112,0,12,,,,,5,,,38,100
65664,note_on,,,,,112,0,8,,,,,1,,,78,100
65744,note_off,,,,,80,0,9,,,,,2,,,81,100
65744,note_off,,,,,80,0,8,,,,,1,,,78,100
65856,note_on,,,,,112,0,9,,,,,2,,,78,75
65856,note_on,,,,,112,0,8,,,,,1,,,74,75
65920,note_off,,,,,0,0,15,,,,,7,,,69,100
65920,note_off,,,,,0,0,15,,,,,7,,,74,100
65920,note_off,,,,,256,0,12,,,,,5,,,38,100
65920,note_off,,,,,256,0,15,,,,,7,,,66,100
65920,note_off,,,,,256,0,16,,,,,7,,,50,100
65920,note_off,,,,,0,0,13,,,,,6,,,74,100
65920,note_off,,,,,256,0,13,,,,,6,,,66,100
65920,note_off,,,,,256,0,11,,,,,4,,,50,100
65920,note_off,,,,,256,0,14,,,,,6,,,50,100
65920,note_off,,,,,256,0,10,,,,,3,,,69,100
65920,note_off,,,,,0,0,13,,,,,6,,,69,100
65936,note_off,,,,,80,0,8,,,,,1,,,74,100
65936,note_off,,,,,80,0,9,,,,,2,,,78,100
66048,note_on,,,,,112,0,9,,,,,2,,,74,75
66048,note_on,,,,,112,0,8,,,,,1,,,78,75
66128,note_off,,,,,80,0,8,,,,,1,,,78,100
66128,note_off,,,,,80,0,9,,,,,2,,,74,100
66240,note_on,,,,,320,0,15,,,,,7,,,66,100
66240,note_on,,,,,320,0,11,,,,,4,,,50,75
66240,note_on,,,,,112,0,9,,,,,2,,,78,75
66240,note_on,,,,,0,0,15,,,,,7,,,69,100
66240,note_on,,,,,0,0,13,,,,,6,,,69,100
66240,note_on,,,,,112,0,8,,,,,1,,,81,75
66240,note_on,,,,,320,0,10,,,,,3,,,69,75
66240,note_on,,,,,320,0,12,,,,,5,,,38,75
66240,note_on,,,,,320,0,14,,,,,6,,,50,100
66240,note_on,,,,,320,0,13,,,,,6,,,66,100
66240,note_on,,,,,320,0,16,,,,,7,,,50,100
66320,note_off,,,,,80,0,11,,,,,4,,,50,100
66320,note_off,,,,,80,0,9,,,,,2,,,78,100
66320,note_off,,,,,80,0,14,,,,,6,,,50,100
66320,note_off,,,,,80,0,16,,,,,7,,,50,100
66320,note_off,,,,,80,0,15,,,,,7,,,66,100
66320,note_off,,,,,0,0,13,,,,,6,,,69,100
66320,note_off,,,,,80,0,13,,,,,6,,,66,100
66320,note_off,,,,,80,0,12,,,,,5,,,38,100
66320,note_off,,,,,80,0,8,,,,,1,,,81,100
66320,note_off,,,,,80,0,10,,,,,3,,,69,100
66320,note_off,,,,,0,0,15,,,,,7,,,69,100
66432,note_on,,,,,0,0,15,,,,,7,,,69,100
66432,note_on,,,,,112,0,16,,,,,7,,,49,100
66432,note_on,,,,,112,0,11,,,,,4,,,49,75
66432,note_on,,,,,112,0,15,,,,,7,,,64,100
66432,note_on,,,,,112,0,10,,,,,3,,,69,75
66432,note_on,,,,,112,0,14,,,,,6,,,49,100
66432,note_on,,,,,112,0,12,,,,,5,,,37,75
66432,note_on,,,,,112,0,8,,,,,1,,,76,75
66432,note_on,,,,,112,0,13,,,,,6,,,64,100
66432,note_on,,,,,112,0,9,,,,,2,,,81,75
66432,note_on,,,,,0,0,13,,,,,6,,,69,100
66512,note_off,,,,,80,0,13,,,,,6,,,64,100
66512,note_off,,,,,0,0,15,,,,,7,,,69,100
66512,note_off,,,,,80,0,15,,,,,7,,,64,100
66512,note_off,,,,,80,0,8,,,,,1,,,76,100
66512,note_off,,,,,80,0,14,,,,,6,,,49,100
66512,note_off,,,,,0,0,13,,,,,6,,,69,100
66512,note_off,,,,,80,0,9,,,,,2,,,81,100
66512,note_off,,,,,80,0,10,,,,,3,,,69,100
66512,note_off,,,,,80,0,12,,,,,5,,,37,100
66512,note_off,,,,,80,0,11,,,,,4,,,49,100
66512,note_off,,,,,80,0,16,,,,,7,,,49,100
66624,note_on,,,,,112,0,8,,,,,1,,,81,75
66624,note_on,,,,,0,0,15,,,,,7,,,69,100
66624,note_on,,,,,112,0,14,,,,,6,,,49,100
66624,note_on,,,,,112,0,15,,,,,7,,,64,100
66624,note_on,,,,,112,0,16,,,,,7,,,49,100
66624,note_on,,,,,112,0,10,,,,,3,,,69,75
66624,note_on,,,,,112,0,13,,,,,6,,,64,100
66624,note_on,,,,,0,0,13,,,,,6,,,69,100
66624,note_on,,,,,112,0,11,,,,,4,,,49,75
66624,note_on,,,,,112,0,9,,,,,2,,,76,75
66624,note_on,,,,,112,0,12,,,,,5,,,37,75
66704,note_off,,,,,80,0,8,,,,,1,,,81,100
66704,note_off,,,,,80,0,16,,,,,7,,,49,100
66704,note_off,,,,,80,0,11,,,,,4,,,49,100
66704,note_off,,,,,80,0,15,,,,,7,,,64,100
66704,note_off,,,,,0,0,13,,,,,6,,,69,100
66704,note_off,,,,,80,0,14,,,,,6,,,49,100
66704,note_off,,,,,80,0,13,,,,,6,,,64,100
66704,note_off,,,,,80,0,10,,,,,3,,,69,100
66704,note_off,,,,,0,0,15,,,,,7,,,69,100
66704,note_off,,,,,80,0,12,,,,,5,,,37,100
66704,note_off,,,,,80,0,9,,,,,2,,,76,100
66816,note_on,,,,,112,0,9,,,,,2,,,81,75
66816,note_on,,,,,112,0,11,,,,,4,,,50,75
66816,note_on,,,,,112,0,15,,,,,7,,,66,100
66816,note_on,,,,,112,0,14,,,,,6,,,50,100
66816,note_on,,,,,0,0,15,,,,,7,,,69,100
66816,note_on,,,,,112,0,13,,,,,6,,,66,100
66816,note_on,,,,,0,0,13,,,,,6,,,69,100
66816,note_on,,,,,112,0,16,,,,,7,,,50,100
66816,note_on,,,,,112,0,12,,,,,5,,,38,75
66816,note_on,,,,,112,0,8,,,,,1,,,78,75
66816,note_on,,,,,112,0,10,,,,,3,,,69,75
66896,note_off,,,,,80,0,9,,,,,2,,,81,100
66896,note_off,,,,,80,0,8,,,,,1,,,78,100
67008,note_on,,,,,112,0,9,,,,,2,,,78,95
67008,note_on,,,,,112,0,8,,,,,1,,,74,95
67072,note_off,,,,,256,0,14,,,,,6,,,50,100
67072,note_off,,,,,256,0,13,,,,,6,,,66,100
67072,note_off,,,,,0,0,13,,,,,6,,,69,100
67072,note_off,,,,,256,0,15,,,,,7,,,66,100
67072,note_off,,,,,256,0,11,,,,,4,,,50,100
67072,note_off,,,,,256,0,12,,,,,5,,,38,100
67072,note_off,,,,,256,0,16,,,,,7,,,50,100
67072,note_off,,,,,0,0,15,,,,,7,,,69,100
67072,note_off,,,,,256,0,10,,,,,3,,,69,100
67088,note_off,,,,,80,0,9,,,,,2,,,78,100
67088,note_off,,,,,80,0,8,,,,,1,,,74,100
67200,note_on,,,,,112,0,8,,,,,1,,,78,100
67200,note_on,,,,,112,0,9,,,,,2,,,74,100
67280,note_off,,,,,80,0,9,,,,,2,,,74,100
67280,note_off,,,,,80,0,8,,,,,1,,,78,100
67392,note_on,,,,,320,0,13,,,,,6,,,74,100
67392,note_on,,,,,320,0,10,,,,,3,,,69,100
67392,note_on,,,,,320,0,12,,,,,5,,,38,100
67392,note_on,,,,,0,0,15,,,,,7,,,66,100
67392,note_on,,,,,0,0,15,,,,,7,,,69,100
67392,note_on,,,,,112,0,8,,,,,1,,,81,100
67392,note_on,,,,,0,0,13,,,,,6,,,66,100
67392,note_on,,,,,0,0,13,,,,,6,,,69,100
67392,note_on,,,,,112,0,9,,,,,2,,,78,100
67392,note_on,,,,,320,0,15,,,,,7,,,74,100
67392,note_on,,,,,320,0,16,,,,,7,,,50,100
67392,note_on,,,,,320,0,14,,,,,6,,,50,100
67392,note_on,,,,,320,0,11,,,,,4,,,50,100
67472,note_off,,,,,0,0,15,,,,,7,,,66,100
67472,note_off,,,,,80,0,15,,,,,7,,,74,100
67472,note_off,,,,,80,0,12,,,,,5,,,38,100
67472,note_off,,,,,80,0,16,,,,,7,,,50,100
67472,note_off,,,,,0,0,15,,,,,7,,,69,100
67472,note_off,,,,,80,0,10,,,,,3,,,69,100
67472,note_off,,,,,80,0,14,,,,,6,,,50,100
67472,note_off,,,,,80,0,9,,,,,2,,,78,100
67472,note_off,,,,,80,0,11,,,,,4,,,50,100
67472,note_off,,,,,80,0,13,,,,,6,,,74,100
67472,note_off,,,,,0,0,13,,,,,6,,,66,100
67472,note_off,,,,,0,0,13,,,,,6,,,69,100
67472,note_off,,,,,80,0,8,,,,,1,,,81,100
67584,note_on,,,,,112,0,12,,,,,5,,,37,98
67584,note_on,,,,,0,0,13,,,,,6,,,64,100
67584,note_on,,,,,0,0,13,,,,,6,,,69,100
67584,note_on,,,,,112,0,15,,,,,7,,,73,100
67584,note_on,,,,,0,0,15,,,,,7,,,64,100
67584,note_on,,,,,0,0,15,,,,,7,,,69,100
67584,note_on,,,,,112,0,14,,,,,6,,,49,100
67584,note_on,,,,,112,0,8,,,,,1,,,76,98
67584,note_on,,,,,112,0,9,,,,,2,,,81,98
67584,note_on,,,,,112,0,10,,,,,3,,,69,98
67584,note_on,,,,,112,0,16,,,,,7,,,49,100
67584,note_on,,,,,112,0,13,,,,,6,,,73,100
67584,note_on,,,,,112,0,11,,,,,4,,,49,98
67664,note_off,,,,,80,0,12,,,,,5,,,37,100
67664,note_off,,,,,80,0,16,,,,,7,,,49,100
67664,note_off,,,,,80,0,13,,,,,6,,,73,100
67664,note_off,,,,,0,0,13,,,,,6,,,64,100
67664,note_off,,,,,80,0,9,,,,,2,,,81,100
67664,note_off,,,,,80,0,8,,,,,1,,,76,100
67664,note_off,,,,,0,0,13,,,,,6,,,69,100
67664,note_off,,,,,0,0,15,,,,,7,,,69,100
67664,note_off,,,,,0,0,15,,,,,7,,,64,100
67664,note_off,,,,,80,0,15,,,,,7,,,73,100
67664,note_off,,,,,80,0,10,,,,,3,,,69,100
67664,note_off,,,,,80,0,14,,,,,6,,,49,100
67664,note_off,,,,,80,0,11,,,,,4,,,49,100
67776,note_on,,,,,112,0,11,,,,,4,,,49,97
67776,note_on,,,,,112,0,13,,,,,6,,,73,100
67776,note_on,,,,,112,0,12,,,,,5,,,37,97
67776,note_on,,,,,112,0,15,,,,,7,,,73,100
67776,note_on,,,,,0,0,15,,,,,7,,,64,100
67776,note_on,,,,,0,0,15,,,,,7,,,69,100
67776,note_on,,,,,112,0,16,,,,,7,,,49,100
67776,note_on,,,,,0,0,13,,,,,6,,,69,100
67776,note_on,,,,,112,0,10,,,,,3,,,69,97
67776,note_on,,,,,0,0,13,,,,,6,,,64,100
67776,note_on,,,,,112,0,9,,,,,2,,,76,97
67776,note_on,,,,,112,0,8,,,,,1,,,81,97
67776,note_on,,,,,112,0,14,,,,,6,,,49,100
67856,note_off,,,,,80,0,8,,,,,1,,,81,100
67856,note_off,,,,,80,0,15,,,,,7,,,73,100
67856,note_off,,,,,0,0,15,,,,,7,,,64,100
67856,note_off,,,,,0,0,15,,,,,7,,,69,100
67856,note_off,,,,,80,0,12,,,,,5,,,37,100
67856,note_off,,,,,80,0,14,,,,,6,,,49,100
67856,note_off,,,,,0,0,13,,,,,6,,,69,100
67856,note_off,,,,,0,0,13,,,,,6,,,64,100
67856,note_off,,,,,80,0,13,,,,,6,,,73,100
67856,note_off,,,,,80,0,11,,,,,4,,,49,100
67856,note_off,,,,,80,0,16,,,,,7,,,49,100
67856,note_off,,,,,80,0,10,,,,,3,,,69,100
67856,note_off,,,,,80,0,9,,,,,2,,,76,100
67968,note_on,,,,,112,0,15,,,,,7,,,66,100
67968,note_on,,,,,0,0,15,,,,,7,,,69,100
67968,note_on,,,,,0,0,15,,,,,7,,,74,100
67968,note_on,,,,,112,0,16,,,,,7,,,50,100
67968,note_on,,,,,112,0,11,,,,,4,,,50,85
67968,note_on,,,,,112,0,9,,,,,2,,,81,96
67968,note_on,,,,,112,0,10,,,,,3,,,69,96
67968,note_on,,,,,112,0,14,,,,,6,,,50,100
67968,note_on,,,,,20656,0,7,,,,,0,,,78,100
67968,note_on,,,,,0,0,13,,,,,6,,,69,100
67968,note_on,,,,,112,0,13,,,,,6,,,66,100
67968,note_on,,,,,112,0,12,,,,,5,,,38,96
67968,note_on,,,,,112,0,8,,,,,1,,,78,96
67968,note_on,,,,,0,0,13,,,,,6,,,74,100
68060,note_off,,,,,92,0,7,,,,,0,,,78,100
68064,note_on,,,,,4,0,7,,,,,0,,,81,100
68156,note_off,,,,,92,0,7,,,,,0,,,81,100
68160,note_on,,,,,4,0,7,,,,,0,,,79,100
68224,note_off,,,,,256,0,12,,,,,5,,,38,100
68224,note_off,,,,,256,0,16,,,,,7,,,50,100
68224,note_off,,,,,256,0,15,,,,,7,,,66,100
68224,note_off,,,,,0,0,15,,,,,7,,,69,100
68224,note_off,,,,,256,0,9,,,,,2,,,81,100
68224,note_off,,,,,0,0,15,,,,,7,,,74,100
68224,note_off,,,,,256,0,10,,,,,3,,,69,100
68224,note_off,,,,,256,0,8,,,,,1,,,78,100
68252,note_off,,,,,92,0,7,,,,,0,,,79,100
68256,note_on,,,,,4,0,7,,,,,0,,,81,100
68348,note_off,,,,,92,0,7,,,,,0,,,81,100
68352,note_on,,,,,4,0,7,,,,,0,,,78,100
68540,note_off,,,,,188,0,7,,,,,0,,,78,100
68544,note_on,,,,,4,0,7,,,,,0,,,76,99
68580,note_off,,,,,612,0,14,,,,,6,,,50,100
68580,note_off,,,,,612,0,11,,,,,4,,,50,100
68580,note_off,,,,,612,0,13,,,,,6,,,66,100
68580,note_off,,,,,0,0,13,,,,,6,,,69,100
68580,note_off,,,,,0,0,13,,,,,6,,,74,100
68644,note_off,,,,,100,0,7,,,,,0,,,76,100
68736,note_on,,,,,156,0,14,,,,,6,,,54,100
68736,note_on,,,,,0,0,13,,,,,6,,,72,100
68736,note_on,,,,,0,0,13,,,,,6,,,69,100
68736,note_on,,,,,156,0,13,,,,,6,,,62,100
68736,note_on,,,,,92,0,7,,,,,0,,,74,97
68736,note_on,,,,,156,0,11,,,,,4,,,54,85
68836,note_off,,,,,100,0,7,,,,,0,,,74,100
68928,note_on,,,,,92,0,7,,,,,0,,,72,95
68992,note_off,,,,,0,0,13,,,,,6,,,69,100
68992,note_off,,,,,0,0,13,,,,,6,,,72,100
68992,note_off,,,,,256,0,14,,,,,6,,,54,100
68992,note_off,,,,,256,0,11,,,,,4,,,54,100
68992,note_off,,,,,256,0,13,,,,,6,,,62,100
69028,note_off,,,,,100,0,7,,,,,0,,,72,100
69120,note_on,,,,,128,0,14,,,,,6,,,55,100
69120,note_on,,,,,0,0,13,,,,,6,,,71,100
69120,note_on,,,,,92,0,7,,,,,0,,,71,100
69120,note_on,,,,,0,0,13,,,,,6,,,62,100
69120,note_on,,,,,128,0,13,,,,,6,,,67,100
69120,note_on,,,,,128,0,11,,,,,4,,,55,85
69212,note_off,,,,,92,0,7,,,,,0,,,71,100
69216,note_on,,,,,4,0,7,,,,,0,,,83,100
69308,note_off,,,,,92,0,7,,,,,0,,,83,100
69312,note_on,,,,,4,0,7,,,,,0,,,81,100
69404,note_off,,,,,92,0,7,,,,,0,,,81,100
69408,note_on,,,,,4,0,7,,,,,0,,,83,99
69500,note_off,,,,,92,0,7,,,,,0,,,83,100
69504,note_on,,,,,4,0,7,,,,,0,,,79,99
69692,note_off,,,,,188,0,7,,,,,0,,,79,100
69696,note_on,,,,,4,0,7,,,,,0,,,78,98
69732,note_off,,,,,612,0,11,,,,,4,,,55,100
69732,note_off,,,,,612,0,13,,,,,6,,,67,100
69732,note_off,,,,,0,0,13,,,,,6,,,62,100
69732,note_off,,,,,0,0,13,,,,,6,,,71,100
69732,note_off,,,,,612,0,14,,,,,6,,,55,100
69796,note_off,,,,,100,0,7,,,,,0,,,78,100
69888,note_on,,,,,156,0,11,,,,,4,,,56,85
69888,note_on,,,,,156,0,13,,,,,6,,,71,100
69888,note_on,,,,,0,0,13,,,,,6,,,64,100
69888,note_on,,,,,0,0,13,,,,,6,,,62,100
69888,note_on,,,,,156,0,14,,,,,6,,,56,100
69888,note_on,,,,,92,0,7,,,,,0,,,76,97
69988,note_off,,,,,100,0,7,,,,,0,,,76,100
70080,note_on,,,,,92,0,7,,,,,0,,,74,96
70144,note_off,,,,,256,0,11,,,,,4,,,56,100
70144,note_off,,,,,256,0,14,,,,,6,,,56,100
70144,note_off,,,,,256,0,13,,,,,6,,,71,100
70144,note_off,,,,,0,0,13,,,,,6,,,62,100
70144,note_off,,,,,0,0,13,,,,,6,,,64,100
70180,note_off,,,,,100,0,7,,,,,0,,,74,100
70272,note_on,,,,,128,0,11,,,,,4,,,57,85
70272,note_on,,,,,0,0,13,,,,,6,,,69,100
70272,note_on,,,,,92,0,7,,,,,0,,,73,95
70272,note_on,,,,,0,0,13,,,,,6,,,64,100
70272,note_on,,,,,128,0,14,,,,,6,,,57,100
70272,note_on,,,,,128,0,13,,,,,6,,,61,100
70336,note_off,,,,,64,0,7,,,,,0,,,73,100
70368,note_on,,,,,32,0,7,,,,,0,,,69,95
70372,note_off,,,,,100,0,11,,,,,4,,,57,100
70372,note_off,,,,,100,0,14,,,,,6,,,57,100
70400,note_off,,,,,128,0,13,,,,,6,,,61,100
70400,note_off,,,,,0,0,13,,,,,6,,,64,100
70400,note_off,,,,,0,0,13,,,,,6,,,69,100
70432,note_off,,,,,64,0,7,,,,,0,,,69,100
70464,note_on,,,,,92,0,11,,,,,4,,,55,85
70464,note_on,,,,,92,0,14,,,,,6,,,55,100
70464,note_on,,,,,64,0,13,,,,,6,,,64,100
70464,note_on,,,,,32,0,7,,,,,0,,,73,95
70528,note_off,,,,,64,0,7,,,,,0,,,73,100
70560,note_on,,,,,32,0,7,,,,,0,,,76,95
70564,note_off,,,,,100,0,14,,,,,6,,,55,100
70564,note_off,,,,,100,0,11,,,,,4,,,55,100
70564,note_off,,,,,100,0,13,,,,,6,,,64,100
70624,note_off,,,,,64,0,7,,,,,0,,,76,100
70656,note_on,,,,,92,0,14,,,,,6,,,57,100
70656,note_on,,,,,92,0,11,,,,,4,,,57,85
70656,note_on,,,,,92,0,13,,,,,6,,,64,100
70656,note_on,,,,,32,0,7,,,,,0,,,73,95
70720,note_off,,,,,64,0,7,,,,,0,,,73,100
70752,note_on,,,,,32,0,7,,,,,0,,,69,95
70756,note_off,,,,,100,0,11,,,,,4,,,57,100
70756,note_off,,,,,100,0,13,,,,,6,,,64,100
70756,note_off,,,,,100,0,14,,,,,6,,,57,100
70816,note_off,,,,,64,0,7,,,,,0,,,69,100
70848,note_on,,,,,32,0,7,,,,,0,,,73,95
70848,note_on,,,,,92,0,13,,,,,6,,,64,100
70848,note_on,,,,,92,0,11,,,,,4,,,59,85
70848,note_on,,,,,92,0,14,,,,,6,,,59,100
70912,note_off,,,,,64,0,7,,,,,0,,,73,100
70944,note_on,,,,,32,0,7,,,,,0,,,76,95
70948,note_off,,,,,100,0,14,,,,,6,,,59,100
70948,note_off,,,,,100,0,11,,,,,4,,,59,100
70948,note_off,,,,,100,0,13,,,,,6,,,64,100
71008,note_off,,,,,64,0,7,,,,,0,,,76,100
71040,note_on,,,,,92,0,14,,,,,6,,,57,100
71040,note_on,,,,,32,0,7,,,,,0,,,73,95
71040,note_on,,,,,92,0,11,,,,,4,,,57,85
71040,note_on,,,,,92,0,13,,,,,6,,,64,100
71104,note_off,,,,,64,0,7,,,,,0,,,73,100
71136,note_on,,,,,32,0,7,,,,,0,,,69,95
71140,note_off,,,,,100,0,14,,,,,6,,,57,100
71140,note_off,,,,,100,0,13,,,,,6,,,64,100
71140,note_off,,,,,100,0,11,,,,,4,,,57,100
71200,note_off,,,,,64,0,7,,,,,0,,,69,100
71232,note_on,,,,,32,0,7,,,,,0,,,73,95
71232,note_on,,,,,92,0,14,,,,,6,,,55,100
71232,note_on,,,,,92,0,13,,,,,6,,,64,100
71232,note_on,,,,,92,0,11,,,,,4,,,55,85
71296,note_off,,,,,64,0,7,,,,,0,,,73,100
71328,note_on,,,,,32,0,7,,,,,0,,,76,95
71332,note_off,,,,,100,0,13,,,,,6,,,64,100
71332,note_off,,,,,100,0,14,,,,,6,,,55,100
71332,note_off,,,,,100,0,11,,,,,4,,,55,100
71392,note_off,,,,,64,0,7,,,,,0,,,76,100
71424,note_on,,,,,0,0,13,,,,,6,,,66,100
71424,note_on,,,,,92,0,11,,,,,4,,,54,85
71424,note_on,,,,,32,0,7,,,,,0,,,74,95
71424,note_on,,,,,92,0,14,,,,,6,,,54,100
71424,note_on,,,,,92,0,13,,,,,6,,,62,100
71424,note_on,,,,,0,0,13,,,,,6,,,69,100
71488,note_off,,,,,64,0,7,,,,,0,,,74,100
71520,note_on,,,,,32,0,7,,,,,0,,,69,95
71524,note_off,,,,,100,0,14,,,,,6,,,54,100
71524,note_off,,,,,100,0,11,,,,,4,,,54,100
71552,note_off,,,,,0,0,13,,,,,6,,,69,100
71552,note_off,,,,,0,0,13,,,,,6,,,66,100
71552,note_off,,,,,128,0,13,,,,,6,,,62,100
71584,note_off,,,,,64,0,7,,,,,0,,,69,100
71616,note_on,,,,,64,0,13,,,,,6,,,66,100
71616,note_on,,,,,92,0,11,,,,,4,,,52,85
71616,note_on,,,,,32,0,7,,,,,0,,,74,95
71616,note_on,,,,,92,0,14,,,,,6,,,52,100
71680,note_off,,,,,64,0,7,,,,,0,,,74,100
71712,note_on,,,,,32,0,7,,,,,0,,,78,95
71716,note_off,,,,,100,0,14,,,,,6,,,52,100
71716,note_off,,,,,100,0,11,,,,,4,,,52,100
71716,note_off,,,,,100,0,13,,,,,6,,,66,100
71776,note_off,,,,,64,0,7,,,,,0,,,78,100
71808,note_on,,,,,92,0,13,,,,,6,,,66,100
71808,note_on,,,,,92,0,11,,,,,4,,,54,85
71808,note_on,,,,,92,0,14,,,,,6,,,54,100
71808,note_on,,,,,32,0,7,,,,,0,,,74,95
71872,note_off,,,,,64,0,7,,,,,0,,,74,100
71904,note_on,,,,,32,0,7,,,,,0,,,69,95
71908,note_off,,,,,100,0,11,,,,,4,,,54,100
71908,note_off,,,,,100,0,14,,,,,6,,,54,100
71908,note_off,,,,,100,0,13,,,,,6,,,66,100
71968,note_off,,,,,64,0,7,,,,,0,,,69,100
72000,note_on,,,,,92,0,14,,,,,6,,,50,100
72000,note_on,,,,,32,0,7,,,,,0,,,74,95
72000,note_on,,,,,92,0,11,,,,,4,,,50,85
72000,note_on,,,,,92,0,13,,,,,6,,,66,100
72064,note_off,,,,,64,0,7,,,,,0,,,74,100
72096,note_on,,,,,32,0,7,,,,,0,,,78,95
72100,note_off,,,,,100,0,13,,,,,6,,,66,100
72100,note_off,,,,,100,0,11,,,,,4,,,50,100
72100,note_off,,,,,100,0,14,,,,,6,,,50,100
72160,note_off,,,,,64,0,7,,,,,0,,,78,100
72192,note_on,,,,,92,0,13,,,,,6,,,66,100
72192,note_on,,,,,32,0,7,,,,,0,,,74,95
72192,note_on,,,,,92,0,11,,,,,4,,,54,85
72192,note_on,,,,,92,0,14,,,,,6,,,54,100
72256,note_off,,,,,64,0,7,,,,,0,,,74,100
72288,note_on,,,,,32,0,7,,,,,0,,,69,95
72292,note_off,,,,,100,0,11,,,,,4,,,54,100
72292,note_off,,,,,100,0,13,,,,,6,,,66,100
72292,note_off,,,,,100,0,14,,,,,6,,,54,100
72352,note_off,,,,,64,0,7,,,,,0,,,69,100
72384,note_on,,,,,92,0,11,,,,,4,,,50,85
72384,note_on,,,,,92,0,14,,,,,6,,,50,100
72384,note_on,,,,,32,0,7,,,,,0,,,74,95
72384,note_on,,,,,92,0,13,,,,,6,,,66,100
72448,note_off,,,,,64,0,7,,,,,0,,,74,100
72480,note_on,,,,,32,0,7,,,,,0,,,78,95
72484,note_off,,,,,100,0,11,,,,,4,,,50,100
72484,note_off,,,,,100,0,14,,,,,6,,,50,100
72484,note_off,,,,,100,0,13,,,,,6,,,66,100
72544,note_off,,,,,64,0,7,,,,,0,,,78,100
72576,note_on,,,,,32,0,7,,,,,0,,,76,95
72576,note_on,,,,,92,0,11,,,,,4,,,49,85
72576,note_on,,,,,0,0,13,,,,,6,,,69,100
72576,note_on,,,,,0,0,13,,,,,6,,,64,100
72576,note_on,,,,,92,0,14,,,,,6,,,49,100
72576,note_on,,,,,92,0,13,,,,,6,,,61,100
72640,note_off,,,,,64,0,7,,,,,0,,,76,100
72672,note_on,,,,,32,0,7,,,,,0,,,69,95
72676,note_off,,,,,100,0,14,,,,,6,,,49,100
72676,note_off,,,,,100,0,11,,,,,4,,,49,100
72704,note_off,,,,,0,0,13,,,,,6,,,69,100
72704,note_off,,,,,0,0,13,,,,,6,,,64,100
72704,note_off,,,,,128,0,13,,,,,6,,,61,100
72736,note_off,,,,,64,0,7,,,,,0,,,69,100
72768,note_on,,,,,92,0,11,,,,,4,,,47,85
72768,note_on,,,,,32,0,7,,,,,0,,,76,95
72768,note_on,,,,,64,0,13,,,,,6,,,64,100
72768,note_on,,,,,92,0,14,,,,,6,,,47,100
72832,note_off,,,,,64,0,7,,,,,0,,,76,100
72864,note_on,,,,,32,0,7,,,,,0,,,79,95
72868,note_off,,,,,100,0,13,,,,,6,,,64,100
72868,note_off,,,,,100,0,14,,,,,6,,,47,100
72868,note_off,,,,,100,0,11,,,,,4,,,47,100
72928,note_off,,,,,64,0,7,,,,,0,,,79,100
72960,note_on,,,,,92,0,13,,,,,6,,,64,100
72960,note_on,,,,,92,0,14,,,,,6,,,49,100
72960,note_on,,,,,32,0,7,,,,,0,,,76,95
72960,note_on,,,,,92,0,11,,,,,4,,,49,85
73024,note_off,,,,,64,0,7,,,,,0,,,76,100
73056,note_on,,,,,32,0,7,,,,,0,,,69,95
73060,note_off,,,,,100,0,14,,,,,6,,,49,100
73060,note_off,,,,,100,0,11,,,,,4,,,49,100
73060,note_off,,,,,100,0,13,,,,,6,,,64,100
73120,note_off,,,,,64,0,7,,,,,0,,,69,100
73152,note_on,,,,,92,0,13,,,,,6,,,64,100
73152,note_on,,,,,32,0,7,,,,,0,,,76,95
73152,note_on,,,,,92,0,14,,,,,6,,,45,100
73152,note_on,,,,,92,0,11,,,,,4,,,45,85
73216,note_off,,,,,64,0,7,,,,,0,,,76,100
73248,note_on,,,,,32,0,7,,,,,0,,,79,95
73252,note_off,,,,,100,0,13,,,,,6,,,64,100
73252,note_off,,,,,100,0,11,,,,,4,,,45,100
73252,note_off,,,,,100,0,14,,,,,6,,,45,100
73312,note_off,,,,,64,0,7,,,,,0,,,79,100
73344,note_on,,,,,92,0,11,,,,,4,,,47,85
73344,note_on,,,,,92,0,14,,,,,6,,,47,100
73344,note_on,,,,,92,0,13,,,,,6,,,64,100
73344,note_on,,,,,32,0,7,,,,,0,,,76,95
73408,note_off,,,,,64,0,7,,,,,0,,,76,100
73440,note_on,,,,,32,0,7,,,,,0,,,69,95
73444,note_off,,,,,100,0,13,,,,,6,,,64,100
73444,note_off,,,,,100,0,11,,,,,4,,,47,100
73444,note_off,,,,,100,0,14,,,,,6,,,47,100
73504,note_off,,,,,64,0,7,,,,,0,,,69,100
73536,note_on,,,,,92,0,13,,,,,6,,,64,100
73536,note_on,,,,,32,0,7,,,,,0,,,76,95
73536,note_on,,,,,92,0,14,,,,,6,,,49,100
73536,note_on,,,,,92,0,11,,,,,4,,,49,85
73600,note_off,,,,,64,0,7,,,,,0,,,76,100
73632,note_on,,,,,32,0,7,,,,,0,,,79,95
73636,note_off,,,,,100,0,13,,,,,6,,,64,100
73636,note_off,,,,,100,0,14,,,,,6,,,49,100
73636,note_off,,,,,100,0,11,,,,,4,,,49,100
73696,note_off,,,,,64,0,7,,,,,0,,,79,100
73728,note_on,,,,,32,0,7,,,,,0,,,78,95
73728,note_on,,,,,92,0,11,,,,,4,,,50,85
73728,note_on,,,,,92,0,13,,,,,6,,,62,100
73728,note_on,,,,,0,0,13,,,,,6,,,66,100
73728,note_on,,,,,0,0,13,,,,,6,,,69,100
73728,note_on,,,,,92,0,14,,,,,6,,,50,100
73792,note_off,,,,,64,0,7,,,,,0,,,78,100
73824,note_on,,,,,32,0,7,,,,,0,,,69,95
73828,note_off,,,,,100,0,11,,,,,4,,,50,100
73828,note_off,,,,,100,0,14,,,,,6,,,50,100
73856,note_off,,,,,128,0,13,,,,,6,,,62,100
73856,note_off,,,,,0,0,13,,,,,6,,,66,100
73856,note_off,,,,,0,0,13,,,,,6,,,69,100
73888,note_off,,,,,64,0,7,,,,,0,,,69,100
73920,note_on,,,,,64,0,13,,,,,6,,,66,100
73920,note_on,,,,,92,0,11,,,,,4,,,52,85
73920,note_on,,,,,92,0,14,,,,,6,,,52,100
73920,note_on,,,,,32,0,7,,,,,0,,,78,95
73984,note_off,,,,,64,0,7,,,,,0,,,78,100
74016,note_on,,,,,32,0,7,,,,,0,,,81,96
74020,note_off,,,,,100,0,13,,,,,6,,,66,100
74020,note_off,,,,,100,0,11,,,,,4,,,52,100
74020,note_off,,,,,100,0,14,,,,,6,,,52,100
74080,note_off,,,,,64,0,7,,,,,0,,,81,100
74112,note_on,,,,,32,0,7,,,,,0,,,78,96
74112,note_on,,,,,92,0,13,,,,,6,,,66,100
74112,note_on,,,,,92,0,14,,,,,6,,,54,100
74112,note_on,,,,,92,0,11,,,,,4,,,54,85
74176,note_off,,,,,64,0,7,,,,,0,,,78,100
74208,note_on,,,,,32,0,7,,,,,0,,,69,97
74212,note_off,,,,,100,0,11,,,,,4,,,54,100
74212,note_off,,,,,100,0,14,,,,,6,,,54,100
74212,note_off,,,,,100,0,13,,,,,6,,,66,100
74272,note_off,,,,,64,0,7,,,,,0,,,69,100
74304,note_on,,,,,32,0,7,,,,,0,,,78,97
74304,note_on,,,,,92,0,14,,,,,6,,,52,100
74304,note_on,,,,,92,0,13,,,,,6,,,66,100
74304,note_on,,,,,92,0,11,,,,,4,,,52,85
74368,note_off,,,,,64,0,7,,,,,0,,,78,100
74400,note_on,,,,,32,0,7,,,,,0,,,81,97
74404,note_off,,,,,100,0,13,,,,,6,,,66,100
74404,note_off,,,,,100,0,14,,,,,6,,,52,100
74404,note_off,,,,,100,0,11,,,,,4,,,52,100
74464,note_off,,,,,64,0,7,,,,,0,,,81,100
74496,note_on,,,,,32,0,7,,,,,0,,,78,98
74496,note_on,,,,,92,0,14,,,,,6,,,54,100
74496,note_on,,,,,92,0,11,,,,,4,,,54,85
74496,note_on,,,,,92,0,13,,,,,6,,,66,100
74560,note_off,,,,,64,0,7,,,,,0,,,78,100
74592,note_on,,,,,32,0,7,,,,,0,,,69,98
74596,note_off,,,,,100,0,14,,,,,6,,,54,100
74596,note_off,,,,,100,0,11,,,,,4,,,54,100
74596,note_off,,,,,100,0,13,,,,,6,,,66,100
74656,note_off,,,,,64,0,7,,,,,0,,,69,100
74688,note_on,,,,,92,0,14,,,,,6,,,50,100
74688,note_on,,,,,32,0,7,,,,,0,,,78,99
74688,note_on,,,,,92,0,11,,,,,4,,,50,85
74688,note_on,,,,,92,0,13,,,,,6,,,66,100
74752,note_off,,,,,64,0,7,,,,,0,,,78,100
74784,note_on,,,,,32,0,7,,,,,0,,,81,99
74788,note_off,,,,,100,0,13,,,,,6,,,66,100
74788,note_off,,,,,100,0,11,,,,,4,,,50,100
74788,note_off,,,,,100,0,14,,,,,6,,,50,100
74848,note_off,,,,,64,0,7,,,,,0,,,81,100
74880,note_on,,,,,32,0,7,,,,,0,,,81,99
74880,note_on,,,,,92,0,14,,,,,6,,,45,100
74880,note_on,,,,,92,0,11,,,,,4,,,45,85
74908,note_on,,,,,120,0,13,,,,,6,,,57,100
74940,note_on,,,,,32,0,13,,,,,6,,,61,100
74944,note_off,,,,,64,0,7,,,,,0,,,81,100
74972,note_on,,,,,32,0,13,,,,,6,,,64,100
74976,note_on,,,,,32,0,7,,,,,0,,,69,95
75004,note_on,,,,,32,0,13,,,,,6,,,69,100
75040,note_off,,,,,64,0,7,,,,,0,,,69,100
75072,note_on,,,,,32,0,7,,,,,0,,,69,95
75136,note_off,,,,,64,0,7,,,,,0,,,69,100
75168,note_on,,,,,32,0,7,,,,,0,,,69,95
75232,note_off,,,,,64,0,7,,,,,0,,,69,100
75264,note_on,,,,,32,0,7,,,,,0,,,81,100
75328,note_off,,,,,64,0,7,,,,,0,,,81,100
75360,note_on,,,,,32,0,7,,,,,0,,,69,95
75424,note_off,,,,,64,0,7,,,,,0,,,69,100
75456,note_on,,,,,32,0,7,,,,,0,,,69,95
75520,note_off,,,,,64,0,7,,,,,0,,,69,100
75552,note_on,,,,,32,0,7,,,,,0,,,69,95
75616,note_off,,,,,64,0,7,,,,,0,,,69,100
75648,note_on,,,,,32,0,7,,,,,0,,,81,100
75712,note_off,,,,,64,0,7,,,,,0,,,81,100
75744,note_on,,,,,32,0,7,,,,,0,,,69,95
75808,note_off,,,,,64,0,7,,,,,0,,,69,100
75840,note_on,,,,,32,0,7,,,,,0,,,69,95
75904,note_off,,,,,64,0,7,,,,,0,,,69,100
75936,note_on,,,,,32,0,7,,,,,0,,,69,95
76000,note_off,,,,,64,0,7,,,,,0,,,69,100
76028,note_off,,,,,0,0,13,,,,,6,,,64,100
76028,note_off,,,,,0,0,13,,,,,6,,,61,100
76028,note_off,,,,,1024,0,13,,,,,6,,,57,100
76028,note_off,,,,,0,0,13,,,,,6,,,69,100
76032,note_on,,,,,32,0,7,,,,,0,,,81,100
76096,note_off,,,,,64,0,7,,,,,0,,,81,100
76128,note_on,,,,,32,0,7,,,,,0,,,71,95
76192,note_off,,,,,64,0,7,,,,,0,,,71,100
76224,note_on,,,,,32,0,7,,,,,0,,,71,95
76288,note_off,,,,,64,0,7,,,,,0,,,71,100
76320,note_on,,,,,32,0,7,,,,,0,,,71,95
76384,note_off,,,,,64,0,7,,,,,0,,,71,100
76416,note_on,,,,,32,0,7,,,,,0,,,81,100
76480,note_off,,,,,64,0,7,,,,,0,,,81,100
76512,note_on,,,,,32,0,7,,,,,0,,,71,95
76576,note_off,,,,,64,0,7,,,,,0,,,71,100
76608,note_on,,,,,32,0,7,,,,,0,,,71,95
76672,note_off,,,,,64,0,7,,,,,0,,,71,100
76704,note_on,,,,,32,0,7,,,,,0,,,71,95
76768,note_off,,,,,64,0,7,,,,,0,,,71,100
76800,note_on,,,,,32,0,7,,,,,0,,,81,100
76864,note_off,,,,,64,0,7,,,,,0,,,81,100
76896,note_on,,,,,32,0,7,,,,,0,,,71,95
76960,note_off,,,,,64,0,7,,,,,0,,,71,100
76992,note_on,,,,,32,0,7,,,,,0,,,71,95
77056,note_off,,,,,64,0,7,,,,,0,,,71,100
77088,note_on,,,,,32,0,7,,,,,0,,,71,95
77152,note_off,,,,,64,0,7,,,,,0,,,71,100
77184,note_on,,,,,32,0,7,,,,,0,,,79,100
77248,note_off,,,,,64,0,7,,,,,0,,,79,100
77280,note_on,,,,,32,0,7,,,,,0,,,71,95
77344,note_off,,,,,64,0,7,,,,,0,,,71,100
77376,note_on,,,,,32,0,7,,,,,0,,,71,95
77440,note_off,,,,,64,0,7,,,,,0,,,71,100
77472,note_on,,,,,32,0,7,,,,,0,,,71,95
77536,note_off,,,,,64,0,7,,,,,0,,,71,100
77568,note_on,,,,,32,0,7,,,,,0,,,79,100
77632,note_off,,,,,64,0,7,,,,,0,,,79,100
77664,note_on,,,,,32,0,7,,,,,0,,,71,95
77728,note_off,,,,,64,0,7,,,,,0,,,71,100
77760,note_on,,,,,32,0,7,,,,,0,,,71,95
77824,note_off,,,,,64,0,7,,,,,0,,,71,100
77856,note_on,,,,,32,0,7,,,,,0,,,71,95
77920,note_off,,,,,64,0,7,,,,,0,,,71,100
77952,note_on,,,,,32,0,7,,,,,0,,,79,100
78016,note_off,,,,,64,0,7,,,,,0,,,79,100
78048,note_on,,,,,32,0,7,,,,,0,,,71,95
78112,note_off,,,,,64,0,7,,,,,0,,,71,100
78144,note_on,,,,,32,0,7,,,,,0,,,71,95
78208,note_off,,,,,64,0,7,,,,,0,,,71,100
78240,note_on,,,,,32,0,7,,,,,0,,,71,95
78304,note_off,,,,,64,0,7,,,,,0,,,71,100
78336,note_on,,,,,32,0,7,,,,,0,,,79,100
78400,note_off,,,,,64,0,7,,,,,0,,,79,100
78432,note_on,,,,,32,0,7,,,,,0,,,69,95
78496,note_off,,,,,64,0,7,,,,,0,,,69,100
78528,note_on,,,,,32,0,7,,,,,0,,,69,95
78592,note_off,,,,,64,0,7,,,,,0,,,69,100
78624,note_on,,,,,32,0,7,,,,,0,,,69,95
78688,note_off,,,,,64,0,7,,,,,0,,,69,100
78720,note_on,,,,,32,0,7,,,,,0,,,79,100
78784,note_off,,,,,64,0,7,,,,,0,,,79,100
78816,note_on,,,,,32,0,7,,,,,0,,,69,95
78880,note_off,,,,,64,0,7,,,,,0,,,69,100
78912,note_on,,,,,32,0,7,,,,,0,,,69,95
78976,note_off,,,,,64,0,7,,,,,0,,,69,100
79008,note_on,,,,,32,0,7,,,,,0,,,69,95
79072,note_off,,,,,64,0,7,,,,,0,,,69,100
79104,note_on,,,,,32,0,7,,,,,0,,,79,100
79168,note_off,,,,,64,0,7,,,,,0,,,79,100
79200,note_on,,,,,32,0,7,,,,,0,,,69,95
79264,note_off,,,,,64,0,7,,,,,0,,,69,100
79296,note_on,,,,,32,0,7,,,,,0,,,69,95
79360,note_off,,,,,64,0,7,,,,,0,,,69,100
79392,note_on,,,,,32,0,7,,,,,0,,,69,95
79456,note_off,,,,,64,0,7,,,,,0,,,69,100
79488,note_on,,,,,32,0,7,,,,,0,,,78,100
79552,note_off,,,,,64,0,7,,,,,0,,,78,100
79584,note_on,,,,,32,0,7,,,,,0,,,69,95
79648,note_off,,,,,64,0,7,,,,,0,,,69,100
79680,note_on,,,,,32,0,7,,,,,0,,,69,95
79744,note_off,,,,,64,0,7,,,,,0,,,69,100
79776,note_on,,,,,32,0,7,,,,,0,,,69,95
79840,note_off,,,,,64,0,7,,,,,0,,,69,100
79872,note_on,,,,,32,0,7,,,,,0,,,78,100
79936,note_off,,,,,64,0,7,,,,,0,,,78,100
79968,note_on,,,,,32,0,7,,,,,0,,,69,95
80032,note_off,,,,,64,0,7,,,,,0,,,69,100
80064,note_on,,,,,32,0,7,,,,,0,,,69,95
80128,note_off,,,,,64,0,7,,,,,0,,,69,100
80160,note_on,,,,,32,0,7,,,,,0,,,69,95
80224,note_off,,,,,64,0,7,,,,,0,,,69,100
80256,note_on,,,,,32,0,7,,,,,0,,,78,100
80320,note_off,,,,,64,0,7,,,,,0,,,78,100
80352,note_on,,,,,32,0,7,,,,,0,,,69,95
80416,note_off,,,,,64,0,7,,,,,0,,,69,100
80448,note_on,,,,,32,0,7,,,,,0,,,69,95
80512,note_off,,,,,64,0,7,,,,,0,,,69,100
80544,note_on,,,,,32,0,7,,,,,0,,,69,95
80608,note_off,,,,,64,0,7,,,,,0,,,69,100
80640,note_on,,,,,32,0,7,,,,,0,,,78,99
80704,note_off,,,,,64,0,7,,,,,0,,,78,100
80736,note_on,,,,,32,0,7,,,,,0,,,67,95
80800,note_off,,,,,64,0,7,,,,,0,,,67,100
80832,note_on,,,,,32,0,7,,,,,0,,,67,95
80896,note_off,,,,,64,0,7,,,,,0,,,67,100
80928,note_on,,,,,32,0,7,,,,,0,,,67,95
80992,note_off,,,,,64,0,7,,,,,0,,,67,100
81024,note_on,,,,,32,0,7,,,,,0,,,78,99
81088,note_off,,,,,64,0,7,,,,,0,,,78,100
81120,note_on,,,,,32,0,7,,,,,0,,,67,94
81184,note_off,,,,,64,0,7,,,,,0,,,67,100
81216,note_on,,,,,32,0,7,,,,,0,,,67,94
81280,note_off,,,,,64,0,7,,,,,0,,,67,100
81312,note_on,,,,,32,0,7,,,,,0,,,67,94
81376,note_off,,,,,64,0,7,,,,,0,,,67,100
81408,note_on,,,,,32,0,7,,,,,0,,,78,98
81472,note_off,,,,,64,0,7,,,,,0,,,78,100
81504,note_on,,,,,32,0,7,,,,,0,,,67,94
81568,note_off,,,,,64,0,7,,,,,0,,,67,100
81600,note_on,,,,,32,0,7,,,,,0,,,67,93
81664,note_off,,,,,64,0,7,,,,,0,,,67,100
81696,note_on,,,,,32,0,7,,,,,0,,,67,93
81760,note_off,,,,,64,0,7,,,,,0,,,67,100
81792,note_on,,,,,32,0,7,,,,,0,,,76,97
81856,note_off,,,,,64,0,7,,,,,0,,,76,100
81888,note_on,,,,,32,0,7,,,,,0,,,67,93
81952,note_off,,,,,64,0,7,,,,,0,,,67,100
81984,note_on,,,,,32,0,7,,,,,0,,,67,92
82048,note_off,,,,,64,0,7,,,,,0,,,67,100
82080,note_on,,,,,32,0,7,,,,,0,,,67,92
82144,note_off,,,,,64,0,7,,,,,0,,,67,100
82176,note_on,,,,,32,0,7,,,,,0,,,76,96
82240,note_off,,,,,64,0,7,,,,,0,,,76,100
82272,note_on,,,,,32,0,7,,,,,0,,,67,92
82336,note_off,,,,,64,0,7,,,,,0,,,67,100
82368,note_on,,,,,32,0,7,,,,,0,,,67,92
82432,note_off,,,,,64,0,7,,,,,0,,,67,100
82464,note_on,,,,,32,0,7,,,,,0,,,67,91
82528,note_off,,,,,64,0,7,,,,,0,,,67,100
82560,note_on,,,,,32,0,7,,,,,0,,,76,95
82624,note_off,,,,,64,0,7,,,,,0,,,76,100
82656,note_on,,,,,32,0,7,,,,,0,,,67,91
82720,note_off,,,,,64,0,7,,,,,0,,,67,100
82752,note_on,,,,,32,0,7,,,,,0,,,67,91
82816,note_off,,,,,64,0,7,,,,,0,,,67,100
82848,note_on,,,,,32,0,7,,,,,0,,,67,90
82912,note_off,,,,,64,0,7,,,,,0,,,67,100
82944,note_on,,,,,32,0,7,,,,,0,,,76,94
83008,note_off,,,,,64,0,7,,,,,0,,,76,100
83040,note_on,,,,,32,0,7,,,,,0,,,66,90
83104,note_off,,,,,64,0,7,,,,,0,,,66,100
83136,note_on,,,,,32,0,7,,,,,0,,,66,90
83200,note_off,,,,,64,0,7,,,,,0,,,66,100
83232,note_on,,,,,32,0,7,,,,,0,,,66,90
83296,note_off,,,,,64,0,7,,,,,0,,,66,100
83328,note_on,,,,,32,0,7,,,,,0,,,76,93
83392,note_off,,,,,64,0,7,,,,,0,,,76,100
83424,note_on,,,,,32,0,7,,,,,0,,,66,89
83488,note_off,,,,,64,0,7,,,,,0,,,66,100
83520,note_on,,,,,32,0,7,,,,,0,,,66,89
83584,note_off,,,,,64,0,7,,,,,0,,,66,100
83616,note_on,,,,,32,0,7,,,,,0,,,66,89
83680,note_off,,,,,64,0,7,,,,,0,,,66,100
83712,note_on,,,,,32,0,7,,,,,0,,,76,92
83776,note_off,,,,,64,0,7,,,,,0,,,76,100
83808,note_on,,,,,32,0,7,,,,,0,,,66,88
83872,note_off,,,,,64,0,7,,,,,0,,,66,100
83904,note_on,,,,,32,0,7,,,,,0,,,66,88
83968,note_off,,,,,64,0,7,,,,,0,,,66,100
84000,note_on,,,,,32,0,7,,,,,0,,,66,88
84064,note_off,,,,,64,0,7,,,,,0,,,66,100
84096,note_on,,,,,32,0,7,,,,,0,,,74,91
84160,note_off,,,,,64,0,7,,,,,0,,,74,100
84192,note_on,,,,,32,0,7,,,,,0,,,66,87
84256,note_off,,,,,64,0,7,,,,,0,,,66,100
84288,note_on,,,,,32,0,7,,,,,0,,,66,87
84352,note_off,,,,,64,0,7,,,,,0,,,66,100
84384,note_on,,,,,32,0,7,,,,,0,,,66,88
84448,note_off,,,,,64,0,7,,,,,0,,,66,100
84480,note_on,,,,,32,0,7,,,,,0,,,74,92
84544,note_off,,,,,64,0,7,,,,,0,,,74,100
84576,note_on,,,,,32,0,7,,,,,0,,,66,89
84640,note_off,,,,,64,0,7,,,,,0,,,66,100
84672,note_on,,,,,32,0,7,,,,,0,,,66,89
84736,note_off,,,,,64,0,7,,,,,0,,,66,100
84768,note_on,,,,,32,0,7,,,,,0,,,66,90
84832,note_off,,,,,64,0,7,,,,,0,,,66,100
84864,note_on,,,,,32,0,7,,,,,0,,,74,94
84928,note_off,,,,,64,0,7,,,,,0,,,74,100
84960,note_on,,,,,32,0,7,,,,,0,,,66,90
85024,note_off,,,,,64,0,7,,,,,0,,,66,100
85056,note_on,,,,,32,0,7,,,,,0,,,66,91
85120,note_off,,,,,64,0,7,,,,,0,,,66,100
85152,note_on,,,,,32,0,7,,,,,0,,,66,91
85216,note_off,,,,,64,0,7,,,,,0,,,66,100
85248,control_change,,,,,10368,0,11,,,7,83,4,,,,
85248,note_on,,,,,32,0,7,,,,,0,,,74,96
85312,note_off,,,,,64,0,7,,,,,0,,,74,100
85344,note_on,,,,,32,0,7,,,,,0,,,64,92
85408,note_off,,,,,64,0,7,,,,,0,,,64,100
85440,note_on,,,,,32,0,7,,,,,0,,,64,93
85440,control_change,,,,,192,0,11,,,7,84,4,,,,
85504,note_off,,,,,64,0,7,,,,,0,,,64,100
85536,note_on,,,,,32,0,7,,,,,0,,,64,93
85600,note_off,,,,,64,0,7,,,,,0,,,64,100
85632,note_on,,,,,32,0,7,,,,,0,,,74,97
85632,control_change,,,,,192,0,11,,,7,86,4,,,,
85696,note_off,,,,,64,0,7,,,,,0,,,74,100
85728,note_on,,,,,32,0,7,,,,,0,,,64,94
85792,note_off,,,,,64,0,7,,,,,0,,,64,100
85824,note_on,,,,,32,0,7,,,,,0,,,64,94
85824,control_change,,,,,192,0,11,,,7,87,4,,,,
85888,note_off,,,,,64,0,7,,,,,0,,,64,100
85920,note_on,,,,,32,0,7,,,,,0,,,64,95
85984,note_off,,,,,64,0,7,,,,,0,,,64,100
86016,note_on,,,,,32,0,7,,,,,0,,,74,99
86016,control_change,,,,,192,0,11,,,7,88,4,,,,
86080,note_off,,,,,64,0,7,,,,,0,,,74,100
86112,note_on,,,,,32,0,7,,,,,0,,,64,96
86176,note_off,,,,,64,0,7,,,,,0,,,64,100
86208,control_change,,,,,192,0,11,,,7,90,4,,,,
86208,note_on,,,,,32,0,7,,,,,0,,,64,96
86272,note_off,,,,,64,0,7,,,,,0,,,64,100
86304,note_on,,,,,32,0,7,,,,,0,,,64,96
86368,note_off,,,,,64,0,7,,,,,0,,,64,100
86400,note_on,,,,,32,0,7,,,,,0,,,73,101
86400,control_change,,,,,192,0,11,,,7,91,4,,,,
86464,note_off,,,,,64,0,7,,,,,0,,,73,100
86496,note_on,,,,,32,0,7,,,,,0,,,64,97
86560,note_off,,,,,64,0,7,,,,,0,,,64,100
86592,note_on,,,,,32,0,7,,,,,0,,,64,98
86592,control_change,,,,,192,0,11,,,7,92,4,,,,
86656,note_off,,,,,64,0,7,,,,,0,,,64,100
86688,note_on,,,,,32,0,7,,,,,0,,,64,98
86752,note_off,,,,,64,0,7,,,,,0,,,64,100
86784,control_change,,,,,192,0,11,,,7,94,4,,,,
86784,note_on,,,,,32,0,7,,,,,0,,,73,103
86848,note_off,,,,,64,0,7,,,,,0,,,73,100
86880,note_on,,,,,32,0,7,,,,,0,,,64,100
86944,note_off,,,,,64,0,7,,,,,0,,,64,100
86976,control_change,,,,,192,0,11,,,7,95,4,,,,
86976,note_on,,,,,32,0,7,,,,,0,,,64,100
87040,note_off,,,,,64,0,7,,,,,0,,,64,100
87072,note_on,,,,,32,0,7,,,,,0,,,64,101
87136,note_off,,,,,64,0,7,,,,,0,,,64,100
87168,control_change,,,,,192,0,11,,,7,96,4,,,,
87168,note_on,,,,,32,0,7,,,,,0,,,73,106
87232,note_off,,,,,64,0,7,,,,,0,,,73,100
87232,control_change,,,,,64,0,11,,,7,97,4,,,,
87264,note_on,,,,,32,0,7,,,,,0,,,64,102
87300,control_change,,,,,68,0,11,,,7,98,4,,,,
87328,note_off,,,,,64,0,7,,,,,0,,,64,100
87360,note_on,,,,,32,0,7,,,,,0,,,64,103
87360,control_change,,,,,60,0,11,,,7,99,4,,,,
87424,note_off,,,,,12544,0,14,,,,,6,,,45,100
87424,note_off,,,,,64,0,7,,,,,0,,,64,100
87424,note_off,,,,,64,0,11,,,,,4,,,45,100
87456,note_on,,,,,32,0,7,,,,,0,,,64,104
87520,note_off,,,,,64,0,7,,,,,0,,,64,100
87552,note_on,,,,,11524,0,13,,,,,6,,,66,100
87552,note_on,,,,,0,0,15,,,,,7,,,69,100
87552,note_on,,,,,19328,0,15,,,,,7,,,66,100
87552,note_on,,,,,0,0,13,,,,,6,,,74,100
87552,control_change,,,,,128,0,11,,,7,82,4,,,,
87552,note_on,,,,,0,0,15,,,,,7,,,74,100
87552,note_on,,,,,19328,0,16,,,,,7,,,50,100
87552,note_on,,,,,128,0,14,,,,,6,,,50,100
87552,note_on,,,,,0,0,11,,,,,4,,,50,100
87552,note_on,,,,,19328,0,10,,,,,3,,,69,100
87552,note_on,,,,,0,0,13,,,,,6,,,69,100
87552,note_on,,,,,19328,0,12,,,,,5,,,38,100
87552,note_on,,,,,32,0,7,,,,,0,,,62,100
87552,note_on,,,,,19328,0,9,,,,,2,,,81,100
87632,note_off,,,,,80,0,9,,,,,2,,,81,100
87744,note_on,,,,,112,0,9,,,,,2,,,78,98
87744,note_on,,,,,19520,0,8,,,,,1,,,74,98
87752,note_off,,,,,200,0,7,,,,,0,,,62,100
87808,note_off,,,,,0,0,13,,,,,6,,,74,100
87808,note_off,,,,,0,0,13,,,,,6,,,69,100
87808,note_off,,,,,0,0,15,,,,,7,,,74,100
87808,note_off,,,,,0,0,15,,,,,7,,,69,100
87808,note_off,,,,,256,0,15,,,,,7,,,66,100
87808,note_off,,,,,256,0,16,,,,,7,,,50,100
87808,note_off,,,,,256,0,13,,,,,6,,,66,100
87808,note_off,,,,,256,0,14,,,,,6,,,50,100
87808,note_off,,,,,256,0,11,,,,,4,,,50,100
87808,note_off,,,,,256,0,10,,,,,3,,,69,100
87808,note_off,,,,,256,0,12,,,,,5,,,38,100
87824,note_off,,,,,80,0,9,,,,,2,,,78,100
87824,note_off,,,,,80,0,8,,,,,1,,,74,100
87936,note_on,,,,,112,0,8,,,,,1,,,78,95
87936,note_on,,,,,112,0,9,,,,,2,,,74,95
88016,note_off,,,,,80,0,8,,,,,1,,,78,100
88016,note_off,,,,,80,0,9,,,,,2,,,74,100
88128,note_on,,,,,0,0,13,,,,,6,,,69,100
88128,note_on,,,,,320,0,10,,,,,3,,,69,96
88128,note_on,,,,,320,0,11,,,,,4,,,50,96
88128,note_on,,,,,112,0,8,,,,,1,,,81,96
88128,note_on,,,,,320,0,16,,,,,7,,,50,100
88128,note_on,,,,,320,0,13,,,,,6,,,74,100
88128,note_on,,,,,0,0,13,,,,,6,,,66,100
88128,note_on,,,,,0,0,15,,,,,7,,,69,100
88128,note_on,,,,,0,0,15,,,,,7,,,66,100
88128,note_on,,,,,320,0,15,,,,,7,,,74,100
88128,note_on,,,,,320,0,12,,,,,5,,,38,96
88128,note_on,,,,,112,0,9,,,,,2,,,78,96
88128,note_on,,,,,320,0,14,,,,,6,,,50,100
88208,note_off,,,,,80,0,8,,,,,1,,,81,100
88208,note_off,,,,,0,0,13,,,,,6,,,66,100
88208,note_off,,,,,80,0,13,,,,,6,,,74,100
88208,note_off,,,,,0,0,15,,,,,7,,,66,100
88208,note_off,,,,,80,0,10,,,,,3,,,69,100
88208,note_off,,,,,0,0,15,,,,,7,,,69,100
88208,note_off,,,,,80,0,11,,,,,4,,,50,100
88208,note_off,,,,,80,0,16,,,,,7,,,50,100
88208,note_off,,,,,80,0,14,,,,,6,,,50,100
88208,note_off,,,,,0,0,13,,,,,6,,,69,100
88208,note_off,,,,,80,0,12,,,,,5,,,38,100
88208,note_off,,,,,80,0,15,,,,,7,,,74,100
88208,note_off,,,,,80,0,9,,,,,2,,,78,100
88320,note_on,,,,,112,0,8,,,,,1,,,76,98
88320,note_on,,,,,112,0,12,,,,,5,,,37,98
88320,note_on,,,,,0,0,13,,,,,6,,,64,100
88320,note_on,,,,,0,0,13,,,,,6,,,69,100
88320,note_on,,,,,112,0,10,,,,,3,,,69,98
88320,note_on,,,,,112,0,15,,,,,7,,,73,100
88320,note_on,,,,,0,0,15,,,,,7,,,64,100
88320,note_on,,,,,0,0,15,,,,,7,,,69,100
88320,note_on,,,,,112,0,16,,,,,7,,,49,100
88320,note_on,,,,,112,0,13,,,,,6,,,73,100
88320,note_on,,,,,112,0,11,,,,,4,,,49,98
88320,note_on,,,,,112,0,14,,,,,6,,,49,100
88320,note_on,,,,,112,0,9,,,,,2,,,81,98
88400,note_off,,,,,0,0,15,,,,,7,,,69,100
88400,note_off,,,,,80,0,12,,,,,5,,,37,100
88400,note_off,,,,,80,0,9,,,,,2,,,81,100
88400,note_off,,,,,80,0,11,,,,,4,,,49,100
88400,note_off,,,,,80,0,13,,,,,6,,,73,100
88400,note_off,,,,,0,0,13,,,,,6,,,64,100
88400,note_off,,,,,0,0,13,,,,,6,,,69,100
88400,note_off,,,,,80,0,10,,,,,3,,,69,100
88400,note_off,,,,,80,0,16,,,,,7,,,49,100
88400,note_off,,,,,80,0,15,,,,,7,,,73,100
88400,note_off,,,,,80,0,14,,,,,6,,,49,100
88400,note_off,,,,,0,0,15,,,,,7,,,64,100
88400,note_off,,,,,80,0,8,,,,,1,,,76,100
88512,note_on,,,,,0,0,15,,,,,7,,,64,100
88512,note_on,,,,,112,0,11,,,,,4,,,49,100
88512,note_on,,,,,112,0,10,,,,,3,,,69,100
88512,note_on,,,,,112,0,15,,,,,7,,,73,100
88512,note_on,,,,,112,0,14,,,,,6,,,49,100
88512,note_on,,,,,112,0,8,,,,,1,,,81,100
88512,note_on,,,,,0,0,15,,,,,7,,,69,100
88512,note_on,,,,,112,0,12,,,,,5,,,37,100
88512,note_on,,,,,112,0,9,,,,,2,,,76,100
88512,note_on,,,,,112,0,13,,,,,6,,,73,100
88512,note_on,,,,,0,0,13,,,,,6,,,64,100
88512,note_on,,,,,0,0,13,,,,,6,,,69,100
88512,note_on,,,,,112,0,16,,,,,7,,,49,100
88592,note_off,,,,,0,0,15,,,,,7,,,64,100
88592,note_off,,,,,0,0,15,,,,,7,,,69,100
88592,note_off,,,,,80,0,12,,,,,5,,,37,100
88592,note_off,,,,,80,0,9,,,,,2,,,76,100
88592,note_off,,,,,80,0,16,,,,,7,,,49,100
88592,note_off,,,,,80,0,15,,,,,7,,,73,100
88592,note_off,,,,,80,0,11,,,,,4,,,49,100
88592,note_off,,,,,80,0,8,,,,,1,,,81,100
88592,note_off,,,,,0,0,13,,,,,6,,,69,100
88592,note_off,,,,,0,0,13,,,,,6,,,64,100
88592,note_off,,,,,80,0,13,,,,,6,,,73,100
88592,note_off,,,,,80,0,14,,,,,6,,,49,100
88592,note_off,,,,,80,0,10,,,,,3,,,69,100
88704,note_on,,,,,112,0,11,,,,,4,,,50,101
88704,note_on,,,,,112,0,14,,,,,6,,,50,100
88704,note_on,,,,,112,0,8,,,,,1,,,78,101
88704,note_on,,,,,112,0,15,,,,,7,,,66,100
88704,note_on,,,,,0,0,15,,,,,7,,,69,100
88704,note_on,,,,,0,0,15,,,,,7,,,74,100
88704,note_on,,,,,112,0,12,,,,,5,,,38,101
88704,note_on,,,,,0,0,13,,,,,6,,,74,100
88704,note_on,,,,,112,0,13,,,,,6,,,66,100
88704,note_on,,,,,112,0,9,,,,,2,,,81,101
88704,note_on,,,,,112,0,16,,,,,7,,,50,100
88704,note_on,,,,,0,0,13,,,,,6,,,69,100
88704,note_on,,,,,112,0,10,,,,,3,,,69,101
88784,note_off,,,,,80,0,8,,,,,1,,,78,100
88896,note_on,,,,,112,0,8,,,,,1,,,74,90
88960,note_off,,,,,256,0,13,,,,,6,,,66,100
88960,note_off,,,,,0,0,13,,,,,6,,,69,100
88960,note_off,,,,,256,0,12,,,,,5,,,38,100
88960,note_off,,,,,0,0,15,,,,,7,,,69,100
88960,note_off,,,,,256,0,9,,,,,2,,,81,100
88960,note_off,,,,,256,0,16,,,,,7,,,50,100
88960,note_off,,,,,256,0,15,,,,,7,,,66,100
88960,note_off,,,,,256,0,14,,,,,6,,,50,100
88960,note_off,,,,,256,0,10,,,,,3,,,69,100
88960,note_off,,,,,0,0,13,,,,,6,,,74,100
88960,note_off,,,,,256,0,11,,,,,4,,,50,100
88960,note_off,,,,,0,0,15,,,,,7,,,74,100
88976,note_off,,,,,80,0,8,,,,,1,,,74,100
89088,note_on,,,,,112,0,8,,,,,1,,,78,91
89168,note_off,,,,,80,0,8,,,,,1,,,78,100
89280,note_on,,,,,112,0,8,,,,,1,,,81,93
89360,note_off,,,,,80,0,8,,,,,1,,,81,100
89472,note_on,,,,,112,0,8,,,,,1,,,78,95
89552,note_off,,,,,80,0,8,,,,,1,,,78,100
89664,note_on,,,,,112,0,8,,,,,1,,,74,97
89744,note_off,,,,,80,0,8,,,,,1,,,74,100
89856,note_on,,,,,896,0,12,,,,,5,,,39,99
89856,note_on,,,,,0,0,15,,,,,7,,,66,100
89856,note_on,,,,,896,0,14,,,,,6,,,51,100
89856,note_on,,,,,0,0,15,,,,,7,,,75,100
89856,note_on,,,,,896,0,11,,,,,4,,,51,99
89856,note_on,,,,,112,0,8,,,,,1,,,83,99
89856,note_on,,,,,896,0,9,,,,,2,,,71,99
89856,note_on,,,,,0,0,13,,,,,6,,,66,100
89856,note_on,,,,,896,0,16,,,,,7,,,51,100
89856,note_on,,,,,896,0,15,,,,,7,,,71,100
89856,note_on,,,,,0,0,13,,,,,6,,,75,100
89856,note_on,,,,,896,0,13,,,,,6,,,71,100
89936,note_off,,,,,80,0,8,,,,,1,,,83,100
90048,note_on,,,,,112,0,8,,,,,1,,,75,96
90048,note_on,,,,,1088,0,10,,,,,3,,,66,96
90112,note_off,,,,,256,0,16,,,,,7,,,51,100
90112,note_off,,,,,256,0,14,,,,,6,,,51,100
90112,note_off,,,,,0,0,13,,,,,6,,,75,100
90112,note_off,,,,,0,0,13,,,,,6,,,66,100
90112,note_off,,,,,256,0,12,,,,,5,,,39,100
90112,note_off,,,,,256,0,11,,,,,4,,,51,100
90112,note_off,,,,,256,0,13,,,,,6,,,71,100
90128,note_off,,,,,80,0,8,,,,,1,,,75,100
90128,note_off,,,,,80,0,10,,,,,3,,,66,100
90236,note_off,,,,,380,0,9,,,,,2,,,71,100
90240,note_on,,,,,4,0,9,,,,,2,,,75,98
90240,note_on,,,,,112,0,10,,,,,3,,,71,98
90240,note_on,,,,,112,0,8,,,,,1,,,78,98
90320,note_off,,,,,80,0,8,,,,,1,,,78,100
90320,note_off,,,,,80,0,10,,,,,3,,,71,100
90432,note_on,,,,,0,0,13,,,,,6,,,75,100
90432,note_on,,,,,0,0,13,,,,,6,,,66,100
90432,note_on,,,,,112,0,8,,,,,1,,,83,99
90432,note_on,,,,,112,0,10,,,,,3,,,66,99
90432,note_on,,,,,320,0,14,,,,,6,,,51,100
90432,note_on,,,,,320,0,11,,,,,4,,,51,99
90432,note_on,,,,,320,0,13,,,,,6,,,71,100
90432,note_on,,,,,320,0,12,,,,,5,,,39,99
90432,note_on,,,,,320,0,16,,,,,7,,,51,100
90496,note_off,,,,,256,0,9,,,,,2,,,75,100
90512,note_off,,,,,80,0,10,,,,,3,,,66,100
90512,note_off,,,,,0,0,13,,,,,6,,,75,100
90512,note_off,,,,,80,0,11,,,,,4,,,51,100
90512,note_off,,,,,80,0,12,,,,,5,,,39,100
90512,note_off,,,,,0,0,13,,,,,6,,,66,100
90512,note_off,,,,,80,0,14,,,,,6,,,51,100
90512,note_off,,,,,80,0,16,,,,,7,,,51,100
90512,note_off,,,,,80,0,13,,,,,6,,,71,100
90512,note_off,,,,,80,0,8,,,,,1,,,83,100
90624,note_on,,,,,128,0,9,,,,,2,,,83,101
90624,note_on,,,,,112,0,14,,,,,6,,,51,100
90624,note_on,,,,,112,0,13,,,,,6,,,66,100
90624,note_on,,,,,0,0,13,,,,,6,,,71,100
90624,note_on,,,,,0,0,13,,,,,6,,,75,100
90624,note_on,,,,,112,0,16,,,,,7,,,51,100
90624,note_on,,,,,112,0,10,,,,,3,,,63,101
90624,note_on,,,,,112,0,8,,,,,1,,,78,101
90624,note_on,,,,,112,0,11,,,,,4,,,51,101
90624,note_on,,,,,112,0,12,,,,,5,,,39,101
90704,note_off,,,,,0,0,13,,,,,6,,,71,100
90704,note_off,,,,,80,0,16,,,,,7,,,51,100
90704,note_off,,,,,80,0,12,,,,,5,,,39,100
90704,note_off,,,,,80,0,13,,,,,6,,,66,100
90704,note_off,,,,,0,0,13,,,,,6,,,75,100
90704,note_off,,,,,80,0,11,,,,,4,,,51,100
90704,note_off,,,,,80,0,8,,,,,1,,,78,100
90704,note_off,,,,,80,0,10,,,,,3,,,63,100
90704,note_off,,,,,80,0,14,,,,,6,,,51,100
90816,note_on,,,,,112,0,11,,,,,4,,,51,103
90816,note_on,,,,,0,0,13,,,,,6,,,71,100
90816,note_on,,,,,0,0,13,,,,,6,,,75,100
90816,note_on,,,,,112,0,8,,,,,1,,,75,103
90816,note_on,,,,,112,0,12,,,,,5,,,39,103
90816,note_on,,,,,112,0,10,,,,,3,,,59,103
90816,note_on,,,,,112,0,16,,,,,7,,,51,100
90816,note_on,,,,,112,0,13,,,,,6,,,66,100
90816,note_on,,,,,112,0,14,,,,,6,,,51,100
90880,note_off,,,,,256,0,9,,,,,2,,,83,100
90892,note_off,,,,,0,0,15,,,,,7,,,75,100
90892,note_off,,,,,1036,0,15,,,,,7,,,66,100
90896,note_off,,,,,80,0,14,,,,,6,,,51,100
90896,note_off,,,,,80,0,11,,,,,4,,,51,100
90896,note_off,,,,,80,0,12,,,,,5,,,39,100
90896,note_off,,,,,80,0,10,,,,,3,,,59,100
90896,note_off,,,,,0,0,13,,,,,6,,,75,100
90896,note_off,,,,,0,0,13,,,,,6,,,71,100
90896,note_off,,,,,80,0,13,,,,,6,,,66,100
90896,note_off,,,,,80,0,8,,,,,1,,,75,100
90896,note_off,,,,,80,0,16,,,,,7,,,51,100
91008,note_on,,,,,0,0,13,,,,,6,,,71,100
91008,note_on,,,,,0,0,15,,,,,7,,,76,100
91008,note_on,,,,,116,0,15,,,,,7,,,67,100
91008,note_on,,,,,128,0,9,,,,,2,,,83,100
91008,note_on,,,,,0,0,13,,,,,6,,,67,100
91008,note_on,,,,,112,0,13,,,,,6,,,76,100
91008,note_on,,,,,112,0,14,,,,,6,,,52,100
91008,note_on,,,,,112,0,16,,,,,7,,,52,100
91008,note_on,,,,,112,0,11,,,,,4,,,52,100
91008,note_on,,,,,112,0,8,,,,,1,,,79,100
91008,note_on,,,,,112,0,12,,,,,5,,,40,100
91196,note_off,,,,,188,0,8,,,,,1,,,79,100
91200,note_on,,,,,4,0,8,,,,,1,,,76,98
91200,note_on,,,,,304,0,10,,,,,3,,,59,98
91264,note_off,,,,,256,0,14,,,,,6,,,52,100
91264,note_off,,,,,256,0,11,,,,,4,,,52,100
91264,note_off,,,,,256,0,13,,,,,6,,,76,100
91264,note_off,,,,,256,0,16,,,,,7,,,52,100
91264,note_off,,,,,0,0,13,,,,,6,,,67,100
91264,note_off,,,,,0,0,13,,,,,6,,,71,100
91264,note_off,,,,,256,0,12,,,,,5,,,40,100
91280,note_off,,,,,80,0,10,,,,,3,,,59,100
91388,note_off,,,,,188,0,8,,,,,1,,,76,100
91388,note_off,,,,,380,0,9,,,,,2,,,83,100
91392,note_on,,,,,4,0,8,,,,,1,,,71,95
91392,note_on,,,,,4,0,9,,,,,2,,,79,95
91392,note_on,,,,,112,0,10,,,,,3,,,64,95
91472,note_off,,,,,80,0,10,,,,,3,,,64,100
91492,note_off,,,,,100,0,8,,,,,1,,,71,100
91584,note_on,,,,,320,0,14,,,,,6,,,52,100
91584,note_on,,,,,320,0,11,,,,,4,,,52,92
91584,note_on,,,,,92,0,8,,,,,1,,,83,92
91584,note_on,,,,,320,0,16,,,,,7,,,52,100
91584,note_on,,,,,320,0,12,,,,,5,,,40,92
91584,note_on,,,,,320,0,13,,,,,6,,,76,100
91584,note_on,,,,,0,0,13,,,,,6,,,71,100
91584,note_on,,,,,0,0,13,,,,,6,,,67,100
91584,note_on,,,,,112,0,10,,,,,3,,,67,92
91648,note_off,,,,,256,0,9,,,,,2,,,79,100
91664,note_off,,,,,80,0,10,,,,,3,,,67,100
91664,note_off,,,,,80,0,16,,,,,7,,,52,100
91664,note_off,,,,,80,0,14,,,,,6,,,52,100
91664,note_off,,,,,80,0,12,,,,,5,,,40,100
91664,note_off,,,,,0,0,13,,,,,6,,,71,100
91664,note_off,,,,,0,0,13,,,,,6,,,67,100
91664,note_off,,,,,80,0,8,,,,,1,,,83,100
91664,note_off,,,,,80,0,13,,,,,6,,,76,100
91664,note_off,,,,,80,0,11,,,,,4,,,52,100
91776,note_on,,,,,112,0,14,,,,,6,,,52,100
91776,note_on,,,,,0,0,13,,,,,6,,,67,100
91776,note_on,,,,,0,0,13,,,,,6,,,71,100
91776,note_on,,,,,128,0,9,,,,,2,,,76,90
91776,note_on,,,,,112,0,12,,,,,5,,,40,90
91776,note_on,,,,,112,0,13,,,,,6,,,76,100
91776,note_on,,,,,112,0,10,,,,,3,,,71,90
91776,note_on,,,,,112,0,8,,,,,1,,,79,90
91776,note_on,,,,,112,0,16,,,,,7,,,52,100
91776,note_on,,,,,112,0,11,,,,,4,,,52,90
91856,note_off,,,,,0,0,13,,,,,6,,,67,100
91856,note_off,,,,,80,0,13,,,,,6,,,76,100
91856,note_off,,,,,80,0,14,,,,,6,,,52,100
91856,note_off,,,,,80,0,10,,,,,3,,,71,100
91856,note_off,,,,,80,0,16,,,,,7,,,52,100
91856,note_off,,,,,0,0,13,,,,,6,,,71,100
91856,note_off,,,,,80,0,11,,,,,4,,,52,100
91856,note_off,,,,,80,0,12,,,,,5,,,40,100
91856,note_off,,,,,80,0,8,,,,,1,,,79,100
91968,note_on,,,,,112,0,8,,,,,1,,,76,87
91968,note_on,,,,,112,0,10,,,,,3,,,67,87
91968,note_on,,,,,112,0,12,,,,,5,,,40,87
91968,note_on,,,,,112,0,11,,,,,4,,,52,87
91968,note_on,,,,,112,0,14,,,,,6,,,52,100
91968,note_on,,,,,112,0,13,,,,,6,,,76,100
91968,note_on,,,,,0,0,13,,,,,6,,,67,100
91968,note_on,,,,,0,0,13,,,,,6,,,71,100
91968,note_on,,,,,112,0,16,,,,,7,,,52,100
92032,note_off,,,,,256,0,9,,,,,2,,,76,100
92044,note_off,,,,,1036,0,15,,,,,7,,,71,100
92044,note_off,,,,,0,0,15,,,,,7,,,67,100
92044,note_off,,,,,0,0,15,,,,,7,,,76,100
92048,note_off,,,,,80,0,13,,,,,6,,,76,100
92048,note_off,,,,,80,0,8,,,,,1,,,76,100
92048,note_off,,,,,80,0,10,,,,,3,,,67,100
92048,note_off,,,,,0,0,13,,,,,6,,,71,100
92048,note_off,,,,,0,0,13,,,,,6,,,67,100
92048,note_off,,,,,80,0,11,,,,,4,,,52,100
92048,note_off,,,,,80,0,16,,,,,7,,,52,100
92048,note_off,,,,,80,0,12,,,,,5,,,40,100
92048,note_off,,,,,80,0,14,,,,,6,,,52,100
92160,note_on,,,,,112,0,11,,,,,4,,,49,85
92160,note_on,,,,,112,0,16,,,,,7,,,49,100
92160,note_on,,,,,128,0,9,,,,,2,,,69,85
92160,note_on,,,,,112,0,13,,,,,6,,,69,100
92160,note_on,,,,,116,0,15,,,,,7,,,69,100
92160,note_on,,,,,0,0,13,,,,,6,,,64,100
92160,note_on,,,,,0,0,13,,,,,6,,,73,100
92160,note_on,,,,,0,0,15,,,,,7,,,64,100
92160,note_on,,,,,0,0,15,,,,,7,,,73,100
92160,note_on,,,,,112,0,14,,,,,6,,,49,100
92160,note_on,,,,,112,0,12,,,,,5,,,37,85
92160,note_on,,,,,112,0,8,,,,,1,,,81,85
92240,note_off,,,,,80,0,8,,,,,1,,,81,100
92352,note_on,,,,,112,0,8,,,,,1,,,73,86
92352,note_on,,,,,304,0,10,,,,,3,,,64,86
92416,note_off,,,,,256,0,11,,,,,4,,,49,100
92416,note_off,,,,,256,0,12,,,,,5,,,37,100
92416,note_off,,,,,256,0,14,,,,,6,,,49,100
92416,note_off,,,,,256,0,13,,,,,6,,,69,100
92416,note_off,,,,,0,0,13,,,,,6,,,64,100
92416,note_off,,,,,256,0,16,,,,,7,,,49,100
92416,note_off,,,,,0,0,13,,,,,6,,,73,100
92432,note_off,,,,,80,0,8,,,,,1,,,73,100
92432,note_off,,,,,80,0,10,,,,,3,,,64,100
92540,note_off,,,,,380,0,9,,,,,2,,,69,100
92544,note_on,,,,,112,0,8,,,,,1,,,76,88
92544,note_on,,,,,4,0,9,,,,,2,,,73,88
92544,note_on,,,,,112,0,10,,,,,3,,,69,88
92624,note_off,,,,,80,0,8,,,,,1,,,76,100
92624,note_off,,,,,80,0,10,,,,,3,,,69,100
92736,note_on,,,,,320,0,13,,,,,6,,,69,100
92736,note_on,,,,,320,0,12,,,,,5,,,37,89
92736,note_on,,,,,320,0,16,,,,,7,,,49,100
92736,note_on,,,,,0,0,13,,,,,6,,,64,100
92736,note_on,,,,,0,0,13,,,,,6,,,73,100
92736,note_on,,,,,112,0,8,,,,,1,,,81,89
92736,note_on,,,,,320,0,11,,,,,4,,,49,89
92736,note_on,,,,,112,0,10,,,,,3,,,64,89
92736,note_on,,,,,320,0,14,,,,,6,,,49,100
92800,note_off,,,,,256,0,9,,,,,2,,,73,100
92816,note_off,,,,,80,0,16,,,,,7,,,49,100
92816,note_off,,,,,80,0,14,,,,,6,,,49,100
92816,note_off,,,,,80,0,8,,,,,1,,,81,100
92816,note_off,,,,,0,0,13,,,,,6,,,73,100
92816,note_off,,,,,80,0,10,,,,,3,,,64,100
92816,note_off,,,,,0,0,13,,,,,6,,,64,100
92816,note_off,,,,,80,0,13,,,,,6,,,69,100
92816,note_off,,,,,80,0,11,,,,,4,,,49,100
92816,note_off,,,,,80,0,12,,,,,5,,,37,100
92928,note_on,,,,,112,0,8,,,,,1,,,76,91
92928,note_on,,,,,112,0,12,,,,,5,,,37,91
92928,note_on,,,,,112,0,16,,,,,7,,,49,100
92928,note_on,,,,,112,0,10,,,,,3,,,61,91
92928,note_on,,,,,112,0,14,,,,,6,,,49,100
92928,note_on,,,,,0,0,13,,,,,6,,,73,100
92928,note_on,,,,,0,0,13,,,,,6,,,69,100
92928,note_on,,,,,112,0,11,,,,,4,,,49,91
92928,note_on,,,,,112,0,13,,,,,6,,,64,100
92928,note_on,,,,,128,0,9,,,,,2,,,81,91
93008,note_off,,,,,80,0,13,,,,,6,,,64,100
93008,note_off,,,,,80,0,16,,,,,7,,,49,100
93008,note_off,,,,,80,0,11,,,,,4,,,49,100
93008,note_off,,,,,80,0,8,,,,,1,,,76,100
93008,note_off,,,,,80,0,14,,,,,6,,,49,100
93008,note_off,,,,,0,0,13,,,,,6,,,69,100
93008,note_off,,,,,0,0,13,,,,,6,,,73,100
93008,note_off,,,,,80,0,10,,,,,3,,,61,100
93008,note_off,,,,,80,0,12,,,,,5,,,37,100
93120,note_on,,,,,112,0,13,,,,,6,,,64,100
93120,note_on,,,,,0,0,13,,,,,6,,,69,100
93120,note_on,,,,,0,0,13,,,,,6,,,73,100
93120,note_on,,,,,112,0,10,,,,,3,,,57,93
93120,note_on,,,,,112,0,16,,,,,7,,,49,100
93120,note_on,,,,,112,0,14,,,,,6,,,49,100
93120,note_on,,,,,112,0,11,,,,,4,,,49,93
93120,note_on,,,,,112,0,8,,,,,1,,,73,93
93120,note_on,,,,,112,0,12,,,,,5,,,37,93
93184,note_off,,,,,256,0,9,,,,,2,,,81,100
93196,note_off,,,,,1036,0,15,,,,,7,,,64,100
93196,note_off,,,,,0,0,15,,,,,7,,,73,100
93200,note_off,,,,,80,0,16,,,,,7,,,49,100
93200,note_off,,,,,80,0,14,,,,,6,,,49,100
93200,note_off,,,,,80,0,8,,,,,1,,,73,100
93200,note_off,,,,,80,0,13,,,,,6,,,64,100
93200,note_off,,,,,0,0,13,,,,,6,,,73,100
93200,note_off,,,,,80,0,10,,,,,3,,,57,100
93200,note_off,,,,,0,0,13,,,,,6,,,69,100
93200,note_off,,,,,80,0,12,,,,,5,,,37,100
93200,note_off,,,,,80,0,11,,,,,4,,,49,100
93312,note_on,,,,,112,0,8,,,,,1,,,78,95
93312,note_on,,,,,112,0,13,,,,,6,,,74,100
93312,note_on,,,,,112,0,16,,,,,7,,,50,100
93312,note_on,,,,,128,0,9,,,,,2,,,81,95
93312,note_on,,,,,0,0,15,,,,,7,,,74,100
93312,note_on,,,,,112,0,11,,,,,4,,,50,95
93312,note_on,,,,,116,0,15,,,,,7,,,66,100
93312,note_on,,,,,112,0,12,,,,,5,,,38,95
93312,note_on,,,,,112,0,14,,,,,6,,,50,100
93312,note_on,,,,,0,0,13,,,,,6,,,66,100
93312,note_on,,,,,0,0,13,,,,,6,,,69,100
93500,note_off,,,,,188,0,8,,,,,1,,,78,100
93504,note_on,,,,,304,0,10,,,,,3,,,57,93
93504,note_on,,,,,4,0,8,,,,,1,,,74,93
93568,note_off,,,,,256,0,14,,,,,6,,,50,100
93568,note_off,,,,,256,0,16,,,,,7,,,50,100
93568,note_off,,,,,0,0,13,,,,,6,,,66,100
93568,note_off,,,,,0,0,13,,,,,6,,,69,100
93568,note_off,,,,,256,0,12,,,,,5,,,38,100
93568,note_off,,,,,256,0,13,,,,,6,,,74,100
93568,note_off,,,,,256,0,11,,,,,4,,,50,100
93584,note_off,,,,,80,0,10,,,,,3,,,57,100
93692,note_off,,,,,188,0,8,,,,,1,,,74,100
93692,note_off,,,,,380,0,9,,,,,2,,,81,100
93696,note_on,,,,,4,0,8,,,,,1,,,69,91
93696,note_on,,,,,4,0,9,,,,,2,,,78,91
93696,note_on,,,,,112,0,10,,,,,3,,,62,91
93776,note_off,,,,,80,0,10,,,,,3,,,62,100
93796,note_off,,,,,100,0,8,,,,,1,,,69,100
93888,note_on,,,,,92,0,8,,,,,1,,,81,88
93888,note_on,,,,,320,0,16,,,,,7,,,50,100
93888,note_on,,,,,320,0,12,,,,,5,,,38,88
93888,note_on,,,,,0,0,13,,,,,6,,,66,100
93888,note_on,,,,,320,0,14,,,,,6,,,50,100
93888,note_on,,,,,320,0,13,,,,,6,,,74,100
93888,note_on,,,,,112,0,10,,,,,3,,,66,88
93888,note_on,,,,,0,0,13,,,,,6,,,69,100
93888,note_on,,,,,320,0,11,,,,,4,,,50,88
93952,note_off,,,,,256,0,9,,,,,2,,,78,100
93968,note_off,,,,,80,0,12,,,,,5,,,38,100
93968,note_off,,,,,80,0,8,,,,,1,,,81,100
93968,note_off,,,,,80,0,16,,,,,7,,,50,100
93968,note_off,,,,,80,0,11,,,,,4,,,50,100
93968,note_off,,,,,80,0,10,,,,,3,,,66,100
93968,note_off,,,,,80,0,13,,,,,6,,,74,100
93968,note_off,,,,,0,0,13,,,,,6,,,69,100
93968,note_off,,,,,0,0,13,,,,,6,,,66,100
93968,note_off,,,,,80,0,14,,,,,6,,,50,100
94080,note_on,,,,,112,0,12,,,,,5,,,38,86
94080,note_on,,,,,128,0,9,,,,,2,,,74,86
94080,note_on,,,,,112,0,16,,,,,7,,,50,100
94080,note_on,,,,,112,0,13,,,,,6,,,74,100
94080,note_on,,,,,112,0,10,,,,,3,,,69,86
94080,note_on,,,,,0,0,13,,,,,6,,,66,100
94080,note_on,,,,,112,0,14,,,,,6,,,50,100
94080,note_on,,,,,112,0,11,,,,,4,,,50,86
94080,note_on,,,,,0,0,13,,,,,6,,,69,100
94080,note_on,,,,,112,0,8,,,,,1,,,78,86
94160,note_off,,,,,0,0,13,,,,,6,,,69,100
94160,note_off,,,,,80,0,8,,,,,1,,,78,100
94160,note_off,,,,,80,0,13,,,,,6,,,74,100
94160,note_off,,,,,0,0,13,,,,,6,,,66,100
94160,note_off,,,,,80,0,14,,,,,6,,,50,100
94160,note_off,,,,,80,0,12,,,,,5,,,38,100
94160,note_off,,,,,80,0,11,,,,,4,,,50,100
94160,note_off,,,,,80,0,10,,,,,3,,,69,100
94160,note_off,,,,,80,0,16,,,,,7,,,50,100
94272,note_on,,,,,112,0,13,,,,,6,,,74,100
94272,note_on,,,,,112,0,11,,,,,4,,,50,83
94272,note_on,,,,,112,0,16,,,,,7,,,50,100
94272,note_on,,,,,0,0,13,,,,,6,,,69,100
94272,note_on,,,,,112,0,12,,,,,5,,,38,83
94272,note_on,,,,,0,0,13,,,,,6,,,66,100
94272,note_on,,,,,112,0,14,,,,,6,,,50,100
94272,note_on,,,,,112,0,10,,,,,3,,,66,83
94272,note_on,,,,,112,0,8,,,,,1,,,74,83
94336,note_off,,,,,256,0,9,,,,,2,,,74,100
94348,note_off,,,,,0,0,15,,,,,7,,,74,100
94348,note_off,,,,,0,0,15,,,,,7,,,66,100
94348,note_off,,,,,1036,0,15,,,,,7,,,69,100
94352,note_off,,,,,80,0,12,,,,,5,,,38,100
94352,note_off,,,,,80,0,14,,,,,6,,,50,100
94352,note_off,,,,,80,0,16,,,,,7,,,50,100
94352,note_off,,,,,0,0,13,,,,,6,,,69,100
94352,note_off,,,,,80,0,8,,,,,1,,,74,100
94352,note_off,,,,,0,0,13,,,,,6,,,66,100
94352,note_off,,,,,80,0,13,,,,,6,,,74,100
94352,note_off,,,,,80,0,11,,,,,4,,,50,100
94352,note_off,,,,,80,0,10,,,,,3,,,66,100
94464,note_on,,,,,112,0,16,,,,,7,,,47,100
94464,note_on,,,,,112,0,13,,,,,6,,,67,100
94464,note_on,,,,,0,0,13,,,,,6,,,71,100
94464,note_on,,,,,112,0,11,,,,,4,,,47,80
94464,note_on,,,,,0,0,13,,,,,6,,,62,100
94464,note_on,,,,,0,0,15,,,,,7,,,71,100
94464,note_on,,,,,112,0,14,,,,,6,,,47,100
94464,note_on,,,,,0,0,15,,,,,7,,,62,100
94464,note_on,,,,,128,0,9,,,,,2,,,67,80
94464,note_on,,,,,112,0,8,,,,,1,,,79,80
94464,note_on,,,,,112,0,12,,,,,5,,,35,80
94464,note_on,,,,,116,0,15,,,,,7,,,67,100
94544,note_off,,,,,80,0,8,,,,,1,,,79,100
94656,note_on,,,,,112,0,8,,,,,1,,,71,81
94656,note_on,,,,,304,0,10,,,,,3,,,62,81
94720,note_off,,,,,256,0,16,,,,,7,,,47,100
94720,note_off,,,,,0,0,13,,,,,6,,,71,100
94720,note_off,,,,,256,0,13,,,,,6,,,67,100
94720,note_off,,,,,0,0,13,,,,,6,,,62,100
94720,note_off,,,,,256,0,12,,,,,5,,,35,100
94720,note_off,,,,,256,0,14,,,,,6,,,47,100
94720,note_off,,,,,256,0,11,,,,,4,,,47,100
94736,note_off,,,,,80,0,10,,,,,3,,,62,100
94736,note_off,,,,,80,0,8,,,,,1,,,71,100
94844,note_off,,,,,380,0,9,,,,,2,,,67,100
94848,note_on,,,,,112,0,8,,,,,1,,,74,83
94848,note_on,,,,,4,0,9,,,,,2,,,71,83
94848,note_on,,,,,112,0,10,,,,,3,,,67,83
94928,note_off,,,,,80,0,10,,,,,3,,,67,100
94928,note_off,,,,,80,0,8,,,,,1,,,74,100
95040,note_on,,,,,320,0,11,,,,,4,,,47,84
95040,note_on,,,,,320,0,16,,,,,7,,,47,100
95040,note_on,,,,,0,0,13,,,,,6,,,62,100
95040,note_on,,,,,320,0,14,,,,,6,,,47,100
95040,note_on,,,,,112,0,8,,,,,1,,,79,84
95040,note_on,,,,,112,0,10,,,,,3,,,62,84
95040,note_on,,,,,320,0,13,,,,,6,,,67,100
95040,note_on,,,,,0,0,13,,,,,6,,,71,100
95040,note_on,,,,,320,0,12,,,,,5,,,35,84
95104,note_off,,,,,256,0,9,,,,,2,,,71,100
95120,note_off,,,,,80,0,12,,,,,5,,,35,100
95120,note_off,,,,,80,0,13,,,,,6,,,67,100
95120,note_off,,,,,0,0,13,,,,,6,,,71,100
95120,note_off,,,,,80,0,10,,,,,3,,,62,100
95120,note_off,,,,,0,0,13,,,,,6,,,62,100
95120,note_off,,,,,80,0,8,,,,,1,,,79,100
95120,note_off,,,,,80,0,16,,,,,7,,,47,100
95120,note_off,,,,,80,0,14,,,,,6,,,47,100
95120,note_off,,,,,80,0,11,,,,,4,,,47,100
95232,note_on,,,,,112,0,12,,,,,5,,,35,86
95232,note_on,,,,,0,0,13,,,,,6,,,71,100
95232,note_on,,,,,0,0,13,,,,,6,,,67,100
95232,note_on,,,,,112,0,11,,,,,4,,,47,86
95232,note_on,,,,,112,0,16,,,,,7,,,47,100
95232,note_on,,,,,112,0,14,,,,,6,,,47,100
95232,note_on,,,,,112,0,8,,,,,1,,,74,86
95232,note_on,,,,,128,0,9,,,,,2,,,79,86
95232,note_on,,,,,112,0,13,,,,,6,,,62,100
95232,note_on,,,,,112,0,10,,,,,3,,,59,86
95312,note_off,,,,,80,0,8,,,,,1,,,74,100
95312,note_off,,,,,80,0,10,,,,,3,,,59,100
95312,note_off,,,,,80,0,16,,,,,7,,,47,100
95312,note_off,,,,,80,0,11,,,,,4,,,47,100
95312,note_off,,,,,0,0,13,,,,,6,,,71,100
95312,note_off,,,,,0,0,13,,,,,6,,,67,100
95312,note_off,,,,,80,0,13,,,,,6,,,62,100
95312,note_off,,,,,80,0,14,,,,,6,,,47,100
95312,note_off,,,,,80,0,12,,,,,5,,,35,100
95424,note_on,,,,,0,0,13,,,,,6,,,71,100
95424,note_on,,,,,112,0,11,,,,,4,,,47,88
95424,note_on,,,,,112,0,13,,,,,6,,,62,100
95424,note_on,,,,,112,0,16,,,,,7,,,47,100
95424,note_on,,,,,112,0,10,,,,,3,,,55,88
95424,note_on,,,,,112,0,8,,,,,1,,,71,88
95424,note_on,,,,,112,0,12,,,,,5,,,35,88
95424,note_on,,,,,0,0,13,,,,,6,,,67,100
95424,note_on,,,,,112,0,14,,,,,6,,,47,100
95488,note_off,,,,,256,0,9,,,,,2,,,79,100
95500,note_off,,,,,1036,0,15,,,,,7,,,62,100
95500,note_off,,,,,0,0,15,,,,,7,,,71,100
95504,note_off,,,,,80,0,16,,,,,7,,,47,100
95504,note_off,,,,,80,0,12,,,,,5,,,35,100
95504,note_off,,,,,80,0,13,,,,,6,,,62,100
95504,note_off,,,,,0,0,13,,,,,6,,,67,100
95504,note_off,,,,,0,0,13,,,,,6,,,71,100
95504,note_off,,,,,80,0,8,,,,,1,,,71,100
95504,note_off,,,,,80,0,14,,,,,6,,,47,100
95504,note_off,,,,,80,0,10,,,,,3,,,55,100
95504,note_off,,,,,80,0,11,,,,,4,,,47,100
95616,note_on,,,,,112,0,14,,,,,6,,,52,100
95616,note_on,,,,,116,0,15,,,,,7,,,64,100
95616,note_on,,,,,0,0,15,,,,,7,,,73,100
95616,note_on,,,,,112,0,11,,,,,4,,,52,90
95616,note_on,,,,,112,0,12,,,,,5,,,40,90
95616,note_on,,,,,128,0,9,,,,,2,,,79,90
95616,note_on,,,,,112,0,8,,,,,1,,,76,90
95616,note_on,,,,,112,0,16,,,,,7,,,52,100
95616,note_on,,,,,112,0,13,,,,,6,,,73,100
95616,note_on,,,,,0,0,13,,,,,6,,,64,100
95616,note_on,,,,,0,0,13,,,,,6,,,67,100
95696,note_off,,,,,80,0,8,,,,,1,,,76,100
95808,note_on,,,,,112,0,8,,,,,1,,,73,88
95808,note_on,,,,,304,0,10,,,,,3,,,64,88
95872,note_off,,,,,256,0,16,,,,,7,,,52,100
95872,note_off,,,,,0,0,13,,,,,6,,,67,100
95872,note_off,,,,,0,0,13,,,,,6,,,64,100
95872,note_off,,,,,256,0,13,,,,,6,,,73,100
95872,note_off,,,,,256,0,12,,,,,5,,,40,100
95872,note_off,,,,,256,0,11,,,,,4,,,52,100
95872,note_off,,,,,256,0,14,,,,,6,,,52,100
95888,note_off,,,,,80,0,10,,,,,3,,,64,100
95888,note_off,,,,,80,0,8,,,,,1,,,73,100
95996,note_off,,,,,380,0,9,,,,,2,,,79,100
96000,note_on,,,,,112,0,8,,,,,1,,,76,86
96000,note_on,,,,,4,0,9,,,,,2,,,76,86
96000,note_on,,,,,112,0,10,,,,,3,,,67,86
96080,note_off,,,,,80,0,8,,,,,1,,,76,100
96080,note_off,,,,,80,0,10,,,,,3,,,67,100
96192,note_on,,,,,320,0,13,,,,,6,,,73,100
96192,note_on,,,,,0,0,13,,,,,6,,,64,100
96192,note_on,,,,,320,0,12,,,,,5,,,40,84
96192,note_on,,,,,112,0,10,,,,,3,,,73,84
96192,note_on,,,,,0,0,13,,,,,6,,,67,100
96192,note_on,,,,,320,0,11,,,,,4,,,52,84
96192,note_on,,,,,320,0,14,,,,,6,,,52,100
96192,note_on,,,,,320,0,16,,,,,7,,,52,100
96192,note_on,,,,,112,0,8,,,,,1,,,79,84
96256,note_off,,,,,256,0,9,,,,,2,,,76,100
96272,note_off,,,,,80,0,11,,,,,4,,,52,100
96272,note_off,,,,,80,0,12,,,,,5,,,40,100
96272,note_off,,,,,0,0,13,,,,,6,,,67,100
96272,note_off,,,,,0,0,13,,,,,6,,,64,100
96272,note_off,,,,,80,0,13,,,,,6,,,73,100
96272,note_off,,,,,80,0,10,,,,,3,,,73,100
96272,note_off,,,,,80,0,16,,,,,7,,,52,100
96272,note_off,,,,,80,0,14,,,,,6,,,52,100
96272,note_off,,,,,80,0,8,,,,,1,,,79,100
96384,note_on,,,,,112,0,14,,,,,6,,,52,100
96384,note_on,,,,,0,0,13,,,,,6,,,67,100
96384,note_on,,,,,112,0,12,,,,,5,,,40,81
96384,note_on,,,,,112,0,16,,,,,7,,,52,100
96384,note_on,,,,,112,0,10,,,,,3,,,67,81
96384,note_on,,,,,112,0,13,,,,,6,,,73,100
96384,note_on,,,,,0,0,13,,,,,6,,,64,100
96384,note_on,,,,,112,0,11,,,,,4,,,52,81
96384,note_on,,,,,112,0,8,,,,,1,,,76,81
96384,note_on,,,,,128,0,9,,,,,2,,,73,81
96464,note_off,,,,,80,0,8,,,,,1,,,76,100
96464,note_off,,,,,80,0,12,,,,,5,,,40,100
96464,note_off,,,,,80,0,16,,,,,7,,,52,100
96464,note_off,,,,,80,0,13,,,,,6,,,73,100
96464,note_off,,,,,80,0,11,,,,,4,,,52,100
96464,note_off,,,,,80,0,10,,,,,3,,,67,100
96464,note_off,,,,,0,0,13,,,,,6,,,64,100
96464,note_off,,,,,0,0,13,,,,,6,,,67,100
96464,note_off,,,,,80,0,14,,,,,6,,,52,100
96576,note_on,,,,,112,0,14,,,,,6,,,52,100
96576,note_on,,,,,112,0,11,,,,,4,,,52,79
96576,note_on,,,,,112,0,10,,,,,3,,,64,79
96576,note_on,,,,,112,0,12,,,,,5,,,40,79
96576,note_on,,,,,0,0,13,,,,,6,,,67,100
96576,note_on,,,,,0,0,13,,,,,6,,,64,100
96576,note_on,,,,,112,0,8,,,,,1,,,73,79
96576,note_on,,,,,112,0,16,,,,,7,,,52,100
96576,note_on,,,,,112,0,13,,,,,6,,,73,100
96640,note_off,,,,,256,0,9,,,,,2,,,73,100
96652,note_off,,,,,0,0,15,,,,,7,,,73,100
96652,note_off,,,,,0,0,15,,,,,7,,,64,100
96652,note_off,,,,,1036,0,15,,,,,7,,,67,100
96656,note_off,,,,,80,0,13,,,,,6,,,73,100
96656,note_off,,,,,80,0,10,,,,,3,,,64,100
96656,note_off,,,,,80,0,11,,,,,4,,,52,100
96656,note_off,,,,,0,0,13,,,,,6,,,67,100
96656,note_off,,,,,80,0,8,,,,,1,,,73,100
96656,note_off,,,,,80,0,16,,,,,7,,,52,100
96656,note_off,,,,,0,0,13,,,,,6,,,64,100
96656,note_off,,,,,80,0,12,,,,,5,,,40,100
96656,note_off,,,,,80,0,14,,,,,6,,,52,100
96768,note_on,,,,,112,0,12,,,,,5,,,42,75
96768,note_on,,,,,116,0,15,,,,,7,,,61,100
96768,note_on,,,,,0,0,15,,,,,7,,,70,100
96768,note_on,,,,,112,0,8,,,,,1,,,78,75
96768,note_on,,,,,128,0,9,,,,,2,,,66,75
96768,note_on,,,,,0,0,13,,,,,6,,,61,100
96768,note_on,,,,,112,0,16,,,,,7,,,54,100
96768,note_on,,,,,112,0,14,,,,,6,,,54,100
96768,note_on,,,,,112,0,13,,,,,6,,,70,100
96768,note_on,,,,,112,0,11,,,,,4,,,54,75
96848,note_off,,,,,80,0,8,,,,,1,,,78,100
96960,note_on,,,,,112,0,8,,,,,1,,,70,76
96960,note_on,,,,,304,0,10,,,,,3,,,61,76
97024,note_off,,,,,256,0,16,,,,,7,,,54,100
97024,note_off,,,,,256,0,12,,,,,5,,,42,100
97024,note_off,,,,,256,0,11,,,,,4,,,54,100
97024,note_off,,,,,0,0,13,,,,,6,,,61,100
97024,note_off,,,,,256,0,14,,,,,6,,,54,100
97024,note_off,,,,,256,0,13,,,,,6,,,70,100
97040,note_off,,,,,80,0,10,,,,,3,,,61,100
97040,note_off,,,,,80,0,8,,,,,1,,,70,100
97148,note_off,,,,,380,0,9,,,,,2,,,66,100
97152,note_on,,,,,4,0,9,,,,,2,,,70,78
97152,note_on,,,,,112,0,8,,,,,1,,,73,78
97152,note_on,,,,,112,0,10,,,,,3,,,66,78
97232,note_off,,,,,80,0,8,,,,,1,,,73,100
97232,note_off,,,,,80,0,10,,,,,3,,,66,100
97344,note_on,,,,,320,0,14,,,,,6,,,54,100
97344,note_on,,,,,112,0,8,,,,,1,,,78,79
97344,note_on,,,,,320,0,12,,,,,5,,,42,79
97344,note_on,,,,,320,0,11,,,,,4,,,54,79
97344,note_on,,,,,320,0,16,,,,,7,,,54,100
97344,note_on,,,,,320,0,13,,,,,6,,,70,100
97344,note_on,,,,,0,0,13,,,,,6,,,61,100
97344,note_on,,,,,112,0,10,,,,,3,,,61,79
97408,note_off,,,,,256,0,9,,,,,2,,,70,100
97424,note_off,,,,,80,0,12,,,,,5,,,42,100
97424,note_off,,,,,80,0,14,,,,,6,,,54,100
97424,note_off,,,,,0,0,13,,,,,6,,,61,100
97424,note_off,,,,,80,0,11,,,,,4,,,54,100
97424,note_off,,,,,80,0,10,,,,,3,,,61,100
97424,note_off,,,,,80,0,16,,,,,7,,,54,100
97424,note_off,,,,,80,0,13,,,,,6,,,70,100
97424,note_off,,,,,80,0,8,,,,,1,,,78,100
97536,note_on,,,,,112,0,11,,,,,4,,,54,81
97536,note_on,,,,,112,0,14,,,,,6,,,54,100
97536,note_on,,,,,112,0,12,,,,,5,,,42,81
97536,note_on,,,,,128,0,9,,,,,2,,,78,81
97536,note_on,,,,,112,0,13,,,,,6,,,70,100
97536,note_on,,,,,0,0,13,,,,,6,,,61,100
97536,note_on,,,,,112,0,8,,,,,1,,,73,81
97536,note_on,,,,,112,0,10,,,,,3,,,58,81
97536,note_on,,,,,112,0,16,,,,,7,,,54,100
97616,note_off,,,,,0,0,13,,,,,6,,,61,100
97616,note_off,,,,,80,0,8,,,,,1,,,73,100
97616,note_off,,,,,80,0,11,,,,,4,,,54,100
97616,note_off,,,,,80,0,14,,,,,6,,,54,100
97616,note_off,,,,,80,0,13,,,,,6,,,70,100
97616,note_off,,,,,80,0,12,,,,,5,,,42,100
97616,note_off,,,,,80,0,16,,,,,7,,,54,100
97728,note_on,,,,,112,0,12,,,,,5,,,42,83
97728,note_on,,,,,112,0,14,,,,,6,,,54,100
97728,note_on,,,,,112,0,16,,,,,7,,,54,100
97728,note_on,,,,,0,0,13,,,,,6,,,61,100
97728,note_on,,,,,112,0,13,,,,,6,,,70,100
97728,note_on,,,,,112,0,11,,,,,4,,,54,83
97728,note_on,,,,,112,0,8,,,,,1,,,70,83
97792,note_off,,,,,256,0,9,,,,,2,,,78,100
97792,note_off,,,,,256,0,10,,,,,3,,,58,100
97804,note_off,,,,,1036,0,15,,,,,7,,,61,100
97804,note_off,,,,,0,0,15,,,,,7,,,70,100
97808,note_off,,,,,80,0,8,,,,,1,,,70,100
97808,note_off,,,,,80,0,14,,,,,6,,,54,100
97808,note_off,,,,,80,0,12,,,,,5,,,42,100
97808,note_off,,,,,0,0,13,,,,,6,,,61,100
97808,note_off,,,,,80,0,13,,,,,6,,,70,100
97808,note_off,,,,,80,0,11,,,,,4,,,54,100
97808,note_off,,,,,80,0,16,,,,,7,,,54,100
97920,note_on,,,,,112,0,8,,,,,1,,,74,84
97920,note_on,,,,,128,0,9,,,,,2,,,78,84
97920,note_on,,,,,112,0,12,,,,,5,,,35,84
97920,note_on,,,,,116,0,15,,,,,7,,,62,100
97920,note_on,,,,,0,0,15,,,,,7,,,71,100
97920,note_on,,,,,128,0,10,,,,,3,,,59,84
97920,note_on,,,,,112,0,16,,,,,7,,,47,100
97920,note_on,,,,,112,0,11,,,,,4,,,47,84
97920,note_on,,,,,112,0,13,,,,,6,,,62,100
97920,note_on,,,,,0,0,13,,,,,6,,,71,100
97920,note_on,,,,,112,0,14,,,,,6,,,47,100
98000,note_off,,,,,80,0,8,,,,,1,,,74,100
98000,note_off,,,,,80,0,9,,,,,2,,,78,100
98112,note_on,,,,,112,0,9,,,,,2,,,74,80
98112,note_on,,,,,112,0,8,,,,,1,,,71,80
98176,note_off,,,,,0,0,15,,,,,7,,,71,100
98176,note_off,,,,,256,0,15,,,,,7,,,62,100
98176,note_off,,,,,256,0,16,,,,,7,,,47,100
98176,note_off,,,,,256,0,11,,,,,4,,,47,100
98176,note_off,,,,,256,0,13,,,,,6,,,62,100
98176,note_off,,,,,256,0,10,,,,,3,,,59,100
98176,note_off,,,,,0,0,13,,,,,6,,,71,100
98176,note_off,,,,,256,0,14,,,,,6,,,47,100
98176,note_off,,,,,256,0,12,,,,,5,,,35,100
98192,note_off,,,,,80,0,9,,,,,2,,,74,100
98192,note_off,,,,,80,0,8,,,,,1,,,71,100
98304,note_on,,,,,112,0,8,,,,,1,,,74,80
98304,note_on,,,,,112,0,9,,,,,2,,,71,80
98384,note_off,,,,,80,0,8,,,,,1,,,74,100
98384,note_off,,,,,80,0,9,,,,,2,,,71,100
98496,note_on,,,,,320,0,15,,,,,7,,,71,100
98496,note_on,,,,,320,0,11,,,,,4,,,47,80
98496,note_on,,,,,0,0,13,,,,,6,,,62,100
98496,note_on,,,,,320,0,14,,,,,6,,,47,100
98496,note_on,,,,,320,0,12,,,,,5,,,35,80
98496,note_on,,,,,112,0,8,,,,,1,,,78,80
98496,note_on,,,,,320,0,16,,,,,7,,,47,100
98496,note_on,,,,,320,0,13,,,,,6,,,71,100
98496,note_on,,,,,0,0,15,,,,,7,,,62,100
98496,note_on,,,,,112,0,9,,,,,2,,,74,80
98496,note_on,,,,,320,0,10,,,,,3,,,66,80
98576,note_off,,,,,80,0,16,,,,,7,,,47,100
98576,note_off,,,,,0,0,13,,,,,6,,,62,100
98576,note_off,,,,,80,0,8,,,,,1,,,78,100
98576,note_off,,,,,80,0,13,,,,,6,,,71,100
98576,note_off,,,,,80,0,14,,,,,6,,,47,100
98576,note_off,,,,,0,0,15,,,,,7,,,62,100
98576,note_off,,,,,80,0,15,,,,,7,,,71,100
98576,note_off,,,,,80,0,9,,,,,2,,,74,100
98576,note_off,,,,,80,0,11,,,,,4,,,47,100
98576,note_off,,,,,80,0,12,,,,,5,,,35,100
98576,note_off,,,,,80,0,10,,,,,3,,,66,100
98688,note_on,,,,,112,0,10,,,,,3,,,66,80
98688,note_on,,,,,112,0,13,,,,,6,,,70,100
98688,note_on,,,,,0,0,13,,,,,6,,,61,100
98688,note_on,,,,,112,0,9,,,,,2,,,78,80
98688,note_on,,,,,112,0,15,,,,,7,,,70,100
98688,note_on,,,,,112,0,16,,,,,7,,,46,100
98688,note_on,,,,,112,0,14,,,,,6,,,46,100
98688,note_on,,,,,0,0,15,,,,,7,,,61,100
98688,note_on,,,,,112,0,11,,,,,4,,,46,80
98688,note_on,,,,,112,0,12,,,,,5,,,34,80
98688,note_on,,,,,112,0,8,,,,,1,,,73,80
98768,note_off,,,,,80,0,9,,,,,2,,,78,100
98768,note_off,,,,,80,0,14,,,,,6,,,46,100
98768,note_off,,,,,0,0,13,,,,,6,,,61,100
98768,note_off,,,,,80,0,13,,,,,6,,,70,100
98768,note_off,,,,,80,0,8,,,,,1,,,73,100
98768,note_off,,,,,80,0,12,,,,,5,,,34,100
98768,note_off,,,,,80,0,11,,,,,4,,,46,100
98768,note_off,,,,,80,0,15,,,,,7,,,70,100
98768,note_off,,,,,0,0,15,,,,,7,,,61,100
98768,note_off,,,,,80,0,16,,,,,7,,,46,100
98768,note_off,,,,,80,0,10,,,,,3,,,66,100
98880,note_on,,,,,112,0,16,,,,,7,,,46,100
98880,note_on,,,,,112,0,8,,,,,1,,,78,80
98880,note_on,,,,,112,0,13,,,,,6,,,70,100
98880,note_on,,,,,112,0,10,,,,,3,,,66,80
98880,note_on,,,,,112,0,14,,,,,6,,,46,100
98880,note_on,,,,,112,0,12,,,,,5,,,34,80
98880,note_on,,,,,112,0,11,,,,,4,,,46,80
98880,note_on,,,,,0,0,13,,,,,6,,,61,100
98880,note_on,,,,,112,0,15,,,,,7,,,70,100
98880,note_on,,,,,0,0,15,,,,,7,,,61,100
98880,note_on,,,,,112,0,9,,,,,2,,,73,80
98960,note_off,,,,,80,0,9,,,,,2,,,73,100
98960,note_off,,,,,80,0,8,,,,,1,,,78,100
98960,note_off,,,,,80,0,12,,,,,5,,,34,100
98960,note_off,,,,,80,0,11,,,,,4,,,46,100
98960,note_off,,,,,80,0,16,,,,,7,,,46,100
98960,note_off,,,,,80,0,15,,,,,7,,,70,100
98960,note_off,,,,,0,0,15,,,,,7,,,61,100
98960,note_off,,,,,80,0,14,,,,,6,,,46,100
98960,note_off,,,,,80,0,10,,,,,3,,,66,100
98960,note_off,,,,,0,0,13,,,,,6,,,61,100
98960,note_off,,,,,80,0,13,,,,,6,,,70,100
99072,note_on,,,,,112,0,10,,,,,3,,,66,80
99072,note_on,,,,,112,0,8,,,,,1,,,74,80
99072,note_on,,,,,112,0,9,,,,,2,,,78,80
99072,note_on,,,,,112,0,12,,,,,5,,,35,80
99072,note_on,,,,,112,0,11,,,,,4,,,47,80
99072,note_on,,,,,112,0,16,,,,,7,,,47,100
99072,note_on,,,,,112,0,13,,,,,6,,,71,100
99072,note_on,,,,,0,0,15,,,,,7,,,62,100
99072,note_on,,,,,112,0,15,,,,,7,,,71,100
99072,note_on,,,,,112,0,14,,,,,6,,,47,100
99072,note_on,,,,,0,0,13,,,,,6,,,62,100
99152,note_off,,,,,80,0,8,,,,,1,,,74,100
99152,note_off,,,,,80,0,9,,,,,2,,,78,100
99264,note_on,,,,,112,0,8,,,,,1,,,71,70
99264,note_on,,,,,112,0,9,,,,,2,,,74,70
99328,note_off,,,,,256,0,14,,,,,6,,,47,100
99328,note_off,,,,,256,0,12,,,,,5,,,35,100
99328,note_off,,,,,256,0,11,,,,,4,,,47,100
99328,note_off,,,,,256,0,10,,,,,3,,,66,100
99328,note_off,,,,,256,0,16,,,,,7,,,47,100
99328,note_off,,,,,256,0,15,,,,,7,,,71,100
99328,note_off,,,,,0,0,15,,,,,7,,,62,100
99328,note_off,,,,,256,0,13,,,,,6,,,71,100
99328,note_off,,,,,0,0,13,,,,,6,,,62,100
99344,note_off,,,,,80,0,8,,,,,1,,,71,100
99344,note_off,,,,,80,0,9,,,,,2,,,74,100
99456,note_on,,,,,112,0,9,,,,,2,,,71,70
99456,note_on,,,,,112,0,8,,,,,1,,,74,70
99536,note_off,,,,,80,0,9,,,,,2,,,71,100
99536,note_off,,,,,80,0,8,,,,,1,,,74,100
99648,note_on,,,,,320,0,15,,,,,7,,,62,100
99648,note_on,,,,,320,0,14,,,,,6,,,47,100
99648,note_on,,,,,320,0,11,,,,,4,,,47,70
99648,note_on,,,,,0,0,15,,,,,7,,,66,100
99648,note_on,,,,,320,0,10,,,,,3,,,66,70
99648,note_on,,,,,112,0,8,,,,,1,,,78,70
99648,note_on,,,,,320,0,16,,,,,7,,,47,100
99648,note_on,,,,,320,0,12,,,,,5,,,35,70
99648,note_on,,,,,112,0,9,,,,,2,,,74,70
99648,note_on,,,,,0,0,13,,,,,6,,,66,100
99648,note_on,,,,,320,0,13,,,,,6,,,62,100
99728,note_off,,,,,80,0,12,,,,,5,,,35,100
99728,note_off,,,,,80,0,10,,,,,3,,,66,100
99728,note_off,,,,,80,0,9,,,,,2,,,74,100
99728,note_off,,,,,80,0,14,,,,,6,,,47,100
99728,note_off,,,,,0,0,15,,,,,7,,,66,100
99728,note_off,,,,,80,0,11,,,,,4,,,47,100
99728,note_off,,,,,0,0,13,,,,,6,,,66,100
99728,note_off,,,,,80,0,13,,,,,6,,,62,100
99728,note_off,,,,,80,0,15,,,,,7,,,62,100
99728,note_off,,,,,80,0,16,,,,,7,,,47,100
99728,note_off,,,,,80,0,8,,,,,1,,,78,100
99840,note_on,,,,,112,0,14,,,,,6,,,46,100
99840,note_on,,,,,112,0,12,,,,,5,,,34,70
99840,note_on,,,,,112,0,10,,,,,3,,,66,70
99840,note_on,,,,,112,0,9,,,,,2,,,78,70
99840,note_on,,,,,112,0,16,,,,,7,,,46,100
99840,note_on,,,,,0,0,15,,,,,7,,,66,100
99840,note_on,,,,,112,0,15,,,,,7,,,61,100
99840,note_on,,,,,112,0,11,,,,,4,,,46,70
99840,note_on,,,,,112,0,8,,,,,1,,,73,70
99840,note_on,,,,,112,0,13,,,,,6,,,61,100
99840,note_on,,,,,0,0,13,,,,,6,,,66,100
99920,note_off,,,,,80,0,14,,,,,6,,,46,100
99920,note_off,,,,,80,0,9,,,,,2,,,78,100
99920,note_off,,,,,80,0,13,,,,,6,,,61,100
99920,note_off,,,,,80,0,10,,,,,3,,,66,100
99920,note_off,,,,,0,0,15,,,,,7,,,66,100
99920,note_off,,,,,80,0,8,,,,,1,,,73,100
99920,note_off,,,,,0,0,13,,,,,6,,,66,100
99920,note_off,,,,,80,0,16,,,,,7,,,46,100
99920,note_off,,,,,80,0,12,,,,,5,,,34,100
99920,note_off,,,,,80,0,15,,,,,7,,,61,100
99920,note_off,,,,,80,0,11,,,,,4,,,46,100
100032,note_on,,,,,112,0,12,,,,,5,,,34,70
100032,note_on,,,,,0,0,15,,,,,7,,,66,100
100032,note_on,,,,,112,0,11,,,,,4,,,46,70
100032,note_on,,,,,112,0,8,,,,,1,,,78,70
100032,note_on,,,,,0,0,13,,,,,6,,,66,100
100032,note_on,,,,,112,0,10,,,,,3,,,66,70
100032,note_on,,,,,112,0,9,,,,,2,,,73,70
100032,note_on,,,,,112,0,13,,,,,6,,,61,100
100032,note_on,,,,,112,0,15,,,,,7,,,61,100
100032,note_on,,,,,112,0,14,,,,,6,,,46,100
100032,note_on,,,,,112,0,16,,,,,7,,,46,100
100112,note_off,,,,,80,0,8,,,,,1,,,78,100
100112,note_off,,,,,80,0,14,,,,,6,,,46,100
100112,note_off,,,,,80,0,15,,,,,7,,,61,100
100112,note_off,,,,,80,0,16,,,,,7,,,46,100
100112,note_off,,,,,80,0,13,,,,,6,,,61,100
100112,note_off,,,,,80,0,12,,,,,5,,,34,100
100112,note_off,,,,,0,0,15,,,,,7,,,66,100
100112,note_off,,,,,80,0,11,,,,,4,,,46,100
100112,note_off,,,,,80,0,9,,,,,2,,,73,100
100112,note_off,,,,,0,0,13,,,,,6,,,66,100
100112,note_off,,,,,80,0,10,,,,,3,,,66,100
100224,note_on,,,,,112,0,10,,,,,3,,,66,70
100224,note_on,,,,,112,0,12,,,,,5,,,35,70
100224,note_on,,,,,0,0,15,,,,,7,,,66,100
100224,note_on,,,,,112,0,11,,,,,4,,,47,70
100224,note_on,,,,,112,0,15,,,,,7,,,62,100
100224,note_on,,,,,112,0,14,,,,,6,,,47,100
100224,note_on,,,,,112,0,8,,,,,1,,,74,70
100224,note_on,,,,,0,0,13,,,,,6,,,66,100
100224,note_on,,,,,112,0,13,,,,,6,,,62,100
100224,note_on,,,,,112,0,16,,,,,7,,,47,100
100224,note_on,,,,,112,0,9,,,,,2,,,78,70
100304,note_off,,,,,80,0,9,,,,,2,,,78,100
100412,note_off,,,,,188,0,8,,,,,1,,,74,100
100416,note_on,,,,,4,0,8,,,,,1,,,78,79
100416,note_on,,,,,112,0,9,,,,,2,,,71,79
100480,note_off,,,,,256,0,10,,,,,3,,,66,100
100480,note_off,,,,,256,0,13,,,,,6,,,62,100
100480,note_off,,,,,256,0,14,,,,,6,,,47,100
100480,note_off,,,,,256,0,16,,,,,7,,,47,100
100480,note_off,,,,,256,0,15,,,,,7,,,62,100
100480,note_off,,,,,0,0,15,,,,,7,,,66,100
100480,note_off,,,,,256,0,11,,,,,4,,,47,100
100480,note_off,,,,,256,0,12,,,,,5,,,35,100
100480,note_off,,,,,0,0,13,,,,,6,,,66,100
100496,note_off,,,,,80,0,9,,,,,2,,,71,100
100604,note_off,,,,,188,0,8,,,,,1,,,78,100
100608,note_on,,,,,112,0,9,,,,,2,,,74,89
100608,note_on,,,,,4,0,8,,,,,1,,,83,89
100688,note_off,,,,,80,0,9,,,,,2,,,74,100
100708,note_off,,,,,100,0,8,,,,,1,,,83,100
100800,note_on,,,,,320,0,15,,,,,7,,,71,100
100800,note_on,,,,,320,0,10,,,,,3,,,66,95
100800,note_on,,,,,320,0,11,,,,,4,,,47,95
100800,note_on,,,,,0,0,13,,,,,6,,,62,100
100800,note_on,,,,,0,0,15,,,,,7,,,62,100
100800,note_on,,,,,320,0,13,,,,,6,,,71,100
100800,note_on,,,,,92,0,8,,,,,1,,,74,95
100800,note_on,,,,,320,0,14,,,,,6,,,47,100
100800,note_on,,,,,112,0,9,,,,,2,,,78,95
100800,note_on,,,,,320,0,16,,,,,7,,,47,100
100800,note_on,,,,,320,0,12,,,,,5,,,35,95
100880,note_off,,,,,80,0,15,,,,,7,,,71,100
100880,note_off,,,,,0,0,15,,,,,7,,,62,100
100880,note_off,,,,,80,0,16,,,,,7,,,47,100
100880,note_off,,,,,80,0,12,,,,,5,,,35,100
100880,note_off,,,,,80,0,9,,,,,2,,,78,100
100880,note_off,,,,,80,0,10,,,,,3,,,66,100
100880,note_off,,,,,80,0,11,,,,,4,,,47,100
100880,note_off,,,,,0,0,13,,,,,6,,,62,100
100880,note_off,,,,,80,0,13,,,,,6,,,71,100
100880,note_off,,,,,80,0,14,,,,,6,,,47,100
100880,note_off,,,,,80,0,8,,,,,1,,,74,100
100992,note_on,,,,,112,0,10,,,,,3,,,66,95
100992,note_on,,,,,112,0,13,,,,,6,,,61,100
100992,note_on,,,,,112,0,11,,,,,4,,,54,95
100992,note_on,,,,,112,0,8,,,,,1,,,73,95
100992,note_on,,,,,112,0,12,,,,,5,,,42,95
100992,note_on,,,,,112,0,16,,,,,7,,,54,100
100992,note_on,,,,,112,0,14,,,,,6,,,54,100
100992,note_on,,,,,112,0,9,,,,,2,,,70,95
100992,note_on,,,,,0,0,13,,,,,6,,,70,100
100992,note_on,,,,,0,0,15,,,,,7,,,70,100
100992,note_on,,,,,112,0,15,,,,,7,,,61,100
101072,note_off,,,,,80,0,10,,,,,3,,,66,100
101072,note_off,,,,,0,0,15,,,,,7,,,70,100
101072,note_off,,,,,80,0,15,,,,,7,,,61,100
101072,note_off,,,,,80,0,12,,,,,5,,,42,100
101072,note_off,,,,,80,0,13,,,,,6,,,61,100
101072,note_off,,,,,0,0,13,,,,,6,,,70,100
101072,note_off,,,,,80,0,8,,,,,1,,,73,100
101072,note_off,,,,,80,0,11,,,,,4,,,54,100
101072,note_off,,,,,80,0,9,,,,,2,,,70,100
101072,note_off,,,,,80,0,16,,,,,7,,,54,100
101072,note_off,,,,,80,0,14,,,,,6,,,54,100
101184,note_on,,,,,112,0,14,,,,,6,,,42,100
101184,note_on,,,,,112,0,11,,,,,4,,,42,95
101184,note_on,,,,,112,0,16,,,,,7,,,42,100
101184,note_on,,,,,112,0,8,,,,,1,,,82,95
101184,note_on,,,,,112,0,15,,,,,7,,,58,100
101184,note_on,,,,,0,0,13,,,,,6,,,61,100
101184,note_on,,,,,112,0,9,,,,,2,,,73,95
101184,note_on,,,,,112,0,13,,,,,6,,,58,100
101184,note_on,,,,,112,0,12,,,,,5,,,42,95
101184,note_on,,,,,112,0,10,,,,,3,,,66,95
101184,note_on,,,,,0,0,15,,,,,7,,,61,100
101264,note_off,,,,,80,0,8,,,,,1,,,82,100
101264,note_off,,,,,80,0,12,,,,,5,,,42,100
101264,note_off,,,,,80,0,16,,,,,7,,,42,100
101264,note_off,,,,,80,0,14,,,,,6,,,42,100
101264,note_off,,,,,80,0,15,,,,,7,,,58,100
101264,note_off,,,,,0,0,15,,,,,7,,,61,100
101264,note_off,,,,,80,0,11,,,,,4,,,42,100
101264,note_off,,,,,80,0,10,,,,,3,,,66,100
101264,note_off,,,,,0,0,13,,,,,6,,,61,100
101264,note_off,,,,,80,0,13,,,,,6,,,58,100
101264,note_off,,,,,80,0,9,,,,,2,,,73,100
101376,note_on,,,,,0,0,13,,,,,6,,,59,100
101376,note_on,,,,,112,0,12,,,,,5,,,35,95
101376,note_on,,,,,112,0,10,,,,,3,,,66,95
101376,note_on,,,,,112,0,13,,,,,6,,,62,100
101376,note_on,,,,,112,0,9,,,,,2,,,74,95
101376,note_on,,,,,0,0,15,,,,,7,,,71,100
101376,note_on,,,,,112,0,15,,,,,7,,,62,100
101376,note_on,,,,,112,0,8,,,,,1,,,83,95
101376,note_on,,,,,112,0,16,,,,,7,,,47,100
101376,note_on,,,,,0,0,15,,,,,7,,,59,100
101376,note_on,,,,,112,0,11,,,,,4,,,47,95
101376,note_on,,,,,13624,0,7,,,,,0,,,83,100
101376,note_on,,,,,112,0,14,,,,,6,,,47,100
101376,note_on,,,,,0,0,13,,,,,6,,,71,100
101476,note_off,,,,,100,0,7,,,,,0,,,83,100
101568,note_on,,,,,92,0,7,,,,,0,,,71,100
101632,note_off,,,,,256,0,8,,,,,1,,,83,100
101632,note_off,,,,,256,0,9,,,,,2,,,74,100
101632,note_off,,,,,256,0,16,,,,,7,,,47,100
101632,note_off,,,,,256,0,14,,,,,6,,,47,100
101632,note_off,,,,,0,0,13,,,,,6,,,59,100
101632,note_off,,,,,0,0,13,,,,,6,,,71,100
101632,note_off,,,,,256,0,13,,,,,6,,,62,100
101632,note_off,,,,,256,0,10,,,,,3,,,66,100
101632,note_off,,,,,256,0,12,,,,,5,,,35,100
101632,note_off,,,,,256,0,11,,,,,4,,,47,100
101632,note_off,,,,,256,0,15,,,,,7,,,62,100
101632,note_off,,,,,0,0,15,,,,,7,,,71,100
101632,note_off,,,,,0,0,15,,,,,7,,,59,100
101756,note_off,,,,,188,0,7,,,,,0,,,71,100
101760,note_on,,,,,4,0,7,,,,,0,,,73,100
101948,note_off,,,,,188,0,7,,,,,0,,,73,100
101952,note_on,,,,,320,0,14,,,,,6,,,47,100
101952,note_on,,,,,0,0,13,,,,,6,,,66,100
101952,note_on,,,,,320,0,13,,,,,6,,,62,100
101952,note_on,,,,,320,0,11,,,,,4,,,47,85
101952,note_on,,,,,4,0,7,,,,,0,,,71,100
102052,note_off,,,,,100,0,11,,,,,4,,,47,100
102052,note_off,,,,,100,0,7,,,,,0,,,71,100
102052,note_off,,,,,100,0,14,,,,,6,,,47,100
102072,note_off,,,,,120,0,13,,,,,6,,,62,100
102072,note_off,,,,,0,0,13,,,,,6,,,66,100
102144,note_on,,,,,92,0,11,,,,,4,,,52,85
102144,note_on,,,,,0,0,13,,,,,6,,,71,100
102144,note_on,,,,,92,0,7,,,,,0,,,79,100
102144,note_on,,,,,92,0,14,,,,,6,,,52,100
102144,note_on,,,,,72,0,13,,,,,6,,,67,100
102244,note_off,,,,,100,0,14,,,,,6,,,52,100
102244,note_off,,,,,100,0,11,,,,,4,,,52,100
102264,note_off,,,,,120,0,13,,,,,6,,,67,100
102264,note_off,,,,,0,0,13,,,,,6,,,71,100
102336,note_on,,,,,0,0,13,,,,,6,,,70,100
102336,note_on,,,,,72,0,13,,,,,6,,,67,100
102336,note_on,,,,,92,0,11,,,,,4,,,46,78
102336,note_on,,,,,92,0,14,,,,,6,,,46,100
102400,note_off,,,,,256,0,7,,,,,0,,,79,100
102436,note_off,,,,,100,0,11,,,,,4,,,46,100
102436,note_off,,,,,100,0,14,,,,,6,,,46,100
102456,note_off,,,,,120,0,13,,,,,6,,,67,100
102456,note_off,,,,,0,0,13,,,,,6,,,70,100
102528,note_on,,,,,128,0,7,,,,,0,,,78,84
102528,note_on,,,,,92,0,14,,,,,6,,,47,100
102528,note_on,,,,,92,0,11,,,,,4,,,47,71
102528,note_on,,,,,72,0,13,,,,,6,,,66,100
102528,note_on,,,,,0,0,13,,,,,6,,,62,100
102528,note_on,,,,,0,0,13,,,,,6,,,71,100
102628,note_off,,,,,100,0,7,,,,,0,,,78,100
102720,note_on,,,,,92,0,7,,,,,0,,,71,80
102784,note_off,,,,,256,0,14,,,,,6,,,47,100
102784,note_off,,,,,0,0,13,,,,,6,,,71,100
102784,note_off,,,,,0,0,13,,,,,6,,,62,100
102784,note_off,,,,,256,0,13,,,,,6,,,66,100
102784,note_off,,,,,256,0,11,,,,,4,,,47,100
102908,note_off,,,,,188,0,7,,,,,0,,,71,100
102912,note_on,,,,,4,0,7,,,,,0,,,73,80
103100,note_off,,,,,188,0,7,,,,,0,,,73,100
103104,note_on,,,,,0,0,13,,,,,6,,,66,100
103104,note_on,,,,,320,0,14,,,,,6,,,47,100
103104,note_on,,,,,4,0,7,,,,,0,,,71,80
103104,note_on,,,,,320,0,13,,,,,6,,,62,100
103104,note_on,,,,,320,0,11,,,,,4,,,47,70
103204,note_off,,,,,100,0,7,,,,,0,,,71,100
103204,note_off,,,,,100,0,11,,,,,4,,,47,100
103204,note_off,,,,,100,0,14,,,,,6,,,47,100
103224,note_off,,,,,120,0,13,,,,,6,,,62,100
103224,note_off,,,,,0,0,13,,,,,6,,,66,100
103296,note_on,,,,,72,0,13,,,,,6,,,67,100
103296,note_on,,,,,92,0,7,,,,,0,,,79,80
103296,note_on,,,,,92,0,11,,,,,4,,,52,70
103296,note_on,,,,,0,0,13,,,,,6,,,71,100
103296,note_on,,,,,92,0,14,,,,,6,,,52,100
103396,note_off,,,,,100,0,11,,,,,4,,,52,100
103396,note_off,,,,,100,0,14,,,,,6,,,52,100
103416,note_off,,,,,120,0,13,,,,,6,,,67,100
103416,note_off,,,,,0,0,13,,,,,6,,,71,100
103488,note_on,,,,,0,0,13,,,,,6,,,70,100
103488,note_on,,,,,92,0,11,,,,,4,,,46,76
103488,note_on,,,,,92,0,14,,,,,6,,,46,100
103488,note_on,,,,,72,0,13,,,,,6,,,67,100
103552,note_off,,,,,256,0,7,,,,,0,,,79,100
103588,note_off,,,,,100,0,14,,,,,6,,,46,100
103588,note_off,,,,,100,0,11,,,,,4,,,46,100
103608,note_off,,,,,120,0,13,,,,,6,,,67,100
103608,note_off,,,,,0,0,13,,,,,6,,,70,100
103680,note_on,,,,,0,0,13,,,,,6,,,62,100
103680,note_on,,,,,92,0,11,,,,,4,,,47,83
103680,note_on,,,,,72,0,13,,,,,6,,,66,100
103680,note_on,,,,,92,0,14,,,,,6,,,47,100
103680,note_on,,,,,0,0,13,,,,,6,,,71,100
103680,note_on,,,,,128,0,7,,,,,0,,,78,95
103780,note_off,,,,,100,0,7,,,,,0,,,78,100
103872,note_on,,,,,92,0,7,,,,,0,,,71,96
103936,note_off,,,,,0,0,13,,,,,6,,,62,100
103936,note_off,,,,,256,0,11,,,,,4,,,47,100
103936,note_off,,,,,0,0,13,,,,,6,,,71,100
103936,note_off,,,,,256,0,14,,,,,6,,,47,100
103936,note_off,,,,,256,0,13,,,,,6,,,66,100
104060,note_off,,,,,188,0,7,,,,,0,,,71,100
104064,note_on,,,,,4,0,7,,,,,0,,,73,98
104252,note_off,,,,,188,0,7,,,,,0,,,73,100
104256,note_on,,,,,320,0,14,,,,,6,,,47,100
104256,note_on,,,,,320,0,13,,,,,6,,,62,100
104256,note_on,,,,,4,0,7,,,,,0,,,71,100
104256,note_on,,,,,320,0,11,,,,,4,,,47,82
104256,note_on,,,,,0,0,13,,,,,6,,,66,100
104356,note_off,,,,,100,0,14,,,,,6,,,47,100
104356,note_off,,,,,0,0,13,,,,,6,,,66,100
104356,note_off,,,,,100,0,7,,,,,0,,,71,100
104356,note_off,,,,,100,0,11,,,,,4,,,47,100
104356,note_off,,,,,100,0,13,,,,,6,,,62,100
104448,note_on,,,,,92,0,14,,,,,6,,,50,100
104448,note_on,,,,,92,0,11,,,,,4,,,50,83
104448,note_on,,,,,0,0,13,,,,,6,,,66,100
104448,note_on,,,,,92,0,7,,,,,0,,,83,101
104448,note_on,,,,,92,0,13,,,,,6,,,71,100
104548,note_off,,,,,100,0,14,,,,,6,,,50,100
104548,note_off,,,,,0,0,13,,,,,6,,,66,100
104548,note_off,,,,,100,0,13,,,,,6,,,71,100
104548,note_off,,,,,100,0,11,,,,,4,,,50,100
104640,note_on,,,,,92,0,14,,,,,6,,,52,100
104640,note_on,,,,,0,0,13,,,,,6,,,67,100
104640,note_on,,,,,92,0,13,,,,,6,,,71,100
104640,note_on,,,,,92,0,11,,,,,4,,,52,85
104704,note_off,,,,,256,0,7,,,,,0,,,83,100
104740,note_off,,,,,0,0,13,,,,,6,,,67,100
104740,note_off,,,,,100,0,14,,,,,6,,,52,100
104740,note_off,,,,,100,0,13,,,,,6,,,71,100
104740,note_off,,,,,100,0,11,,,,,4,,,52,100
104832,note_on,,,,,92,0,11,,,,,4,,,54,88
104832,note_on,,,,,0,0,13,,,,,6,,,73,100
104832,note_on,,,,,128,0,7,,,,,0,,,83,104
104832,note_on,,,,,0,0,13,,,,,6,,,70,100
104832,note_on,,,,,92,0,14,,,,,6,,,54,100
104832,note_on,,,,,92,0,13,,,,,6,,,66,100
104924,note_off,,,,,92,0,7,,,,,0,,,83,100
104928,note_on,,,,,4,0,7,,,,,0,,,82,103
104972,note_off,,,,,44,0,7,,,,,0,,,82,100
104976,note_on,,,,,4,0,7,,,,,0,,,83,103
105020,note_off,,,,,44,0,7,,,,,0,,,83,100
105024,note_on,,,,,4,0,7,,,,,0,,,82,102
105068,note_off,,,,,44,0,7,,,,,0,,,82,100
105072,note_on,,,,,4,0,7,,,,,0,,,83,102
105116,note_off,,,,,44,0,7,,,,,0,,,83,100
105120,note_on,,,,,4,0,7,,,,,0,,,82,101
105164,note_off,,,,,44,0,7,,,,,0,,,82,100
105168,note_on,,,,,4,0,7,,,,,0,,,83,101
105212,note_off,,,,,44,0,7,,,,,0,,,83,100
105216,note_off,,,,,0,0,13,,,,,6,,,73,100
105216,note_off,,,,,0,0,13,,,,,6,,,70,100
105216,note_off,,,,,384,0,13,,,,,6,,,66,100
105216,note_off,,,,,384,0,14,,,,,6,,,54,100
105216,note_off,,,,,384,0,11,,,,,4,,,54,100
105216,note_on,,,,,4,0,7,,,,,0,,,82,100
105316,note_off,,,,,100,0,7,,,,,0,,,82,100
105408,note_on,,,,,192,0,11,,,,,4,,,52,87
105408,note_on,,,,,92,0,7,,,,,0,,,80,98
105408,note_on,,,,,192,0,13,,,,,6,,,68,100
105408,note_on,,,,,192,0,14,,,,,6,,,52,100
105508,note_off,,,,,100,0,14,,,,,6,,,52,100
105508,note_off,,,,,100,0,11,,,,,4,,,52,100
105536,note_off,,,,,128,0,13,,,,,6,,,68,100
105536,note_off,,,,,128,0,7,,,,,0,,,80,100
105600,note_on,,,,,92,0,11,,,,,4,,,50,87
105600,note_on,,,,,92,0,14,,,,,6,,,50,100
105600,note_on,,,,,64,0,7,,,,,0,,,78,96
105600,note_on,,,,,64,0,13,,,,,6,,,66,100
105700,note_off,,,,,100,0,11,,,,,4,,,50,100
105700,note_off,,,,,100,0,14,,,,,6,,,50,100
105700,note_off,,,,,100,0,13,,,,,6,,,66,100
105792,note_on,,,,,92,0,13,,,,,6,,,64,100
105792,note_on,,,,,92,0,11,,,,,4,,,49,86
105792,note_on,,,,,92,0,14,,,,,6,,,49,100
105856,note_off,,,,,256,0,7,,,,,0,,,78,100
105892,note_off,,,,,100,0,14,,,,,6,,,49,100
105892,note_off,,,,,100,0,13,,,,,6,,,64,100
105892,note_off,,,,,100,0,11,,,,,4,,,49,100
105984,note_on,,,,,92,0,14,,,,,6,,,47,100
105984,note_on,,,,,4352,0,9,,,,,2,,,78,65
105984,note_on,,,,,0,0,13,,,,,6,,,62,100
105984,note_on,,,,,92,0,13,,,,,6,,,59,100
105984,note_on,,,,,4352,0,10,,,,,3,,,74,65
105984,note_on,,,,,4352,0,8,,,,,1,,,83,65
105984,note_on,,,,,92,0,11,,,,,4,,,47,85
106176,note_on,,,,,320,0,7,,,,,0,,,86,105
106240,note_off,,,,,0,0,13,,,,,6,,,62,100
106240,note_off,,,,,256,0,13,,,,,6,,,59,100
106240,note_off,,,,,256,0,11,,,,,4,,,47,100
106240,note_off,,,,,256,0,10,,,,,3,,,74,100
106240,note_off,,,,,256,0,14,,,,,6,,,47,100
106240,note_off,,,,,256,0,8,,,,,1,,,83,100
106240,note_off,,,,,256,0,9,,,,,2,,,78,100
106364,note_off,,,,,188,0,7,,,,,0,,,86,100
106368,note_on,,,,,128,0,9,,,,,2,,,78,63
106368,note_on,,,,,4,0,7,,,,,0,,,83,105
106368,note_on,,,,,128,0,10,,,,,3,,,74,63
106368,note_on,,,,,128,0,8,,,,,1,,,83,63
106556,note_off,,,,,188,0,7,,,,,0,,,83,100
106560,note_on,,,,,4,0,7,,,,,0,,,81,104
106624,note_off,,,,,256,0,9,,,,,2,,,78,100
106624,note_off,,,,,256,0,8,,,,,1,,,83,100
106624,note_off,,,,,256,0,10,,,,,3,,,74,100
106748,note_off,,,,,188,0,7,,,,,0,,,81,100
106752,note_on,,,,,4,0,7,,,,,0,,,79,103
106752,note_on,,,,,128,0,9,,,,,2,,,78,61
106752,note_on,,,,,128,0,10,,,,,3,,,74,61
106752,note_on,,,,,128,0,8,,,,,1,,,83,61
106940,note_off,,,,,188,0,7,,,,,0,,,79,100
106944,note_on,,,,,4,0,7,,,,,0,,,78,102
107008,note_off,,,,,256,0,8,,,,,1,,,83,100
107008,note_off,,,,,256,0,9,,,,,2,,,78,100
107008,note_off,,,,,256,0,10,,,,,3,,,74,100
107132,note_off,,,,,188,0,7,,,,,0,,,78,100
107136,note_on,,,,,128,0,9,,,,,2,,,79,60
107136,note_on,,,,,128,0,10,,,,,3,,,73,60
107136,note_on,,,,,128,0,8,,,,,1,,,83,60
107136,note_on,,,,,4,0,7,,,,,0,,,76,101
107236,note_off,,,,,100,0,7,,,,,0,,,76,100
107328,note_on,,,,,92,0,7,,,,,0,,,76,95
107392,note_off,,,,,256,0,8,,,,,1,,,83,100
107392,note_off,,,,,256,0,10,,,,,3,,,73,100
107392,note_off,,,,,256,0,9,,,,,2,,,79,100
107420,note_off,,,,,92,0,7,,,,,0,,,76,100
107424,note_on,,,,,4,0,7,,,,,0,,,78,95
107516,note_off,,,,,92,0,7,,,,,0,,,78,100
107520,note_on,,,,,4,0,7,,,,,0,,,79,96
107520,note_on,,,,,128,0,8,,,,,1,,,83,60
107520,note_on,,,,,128,0,9,,,,,2,,,79,60
107520,note_on,,,,,128,0,10,,,,,3,,,73,60
107708,note_off,,,,,188,0,7,,,,,0,,,79,100
107712,note_on,,,,,4,0,7,,,,,0,,,76,98
107776,note_off,,,,,256,0,10,,,,,3,,,73,100
107776,note_off,,,,,256,0,8,,,,,1,,,83,100
107776,note_off,,,,,256,0,9,,,,,2,,,79,100
107804,note_off,,,,,92,0,7,,,,,0,,,76,100
107808,note_on,,,,,4,0,7,,,,,0,,,78,99
107900,note_off,,,,,92,0,7,,,,,0,,,78,100
107904,note_on,,,,,4,0,7,,,,,0,,,79,100
107904,note_on,,,,,128,0,8,,,,,1,,,83,60
107904,note_on,,,,,128,0,9,,,,,2,,,79,60
107904,note_on,,,,,128,0,10,,,,,3,,,73,60
108092,note_off,,,,,188,0,7,,,,,0,,,79,100
108096,note_on,,,,,4,0,7,,,,,0,,,81,102
108160,note_off,,,,,256,0,8,,,,,1,,,83,100
108160,note_off,,,,,256,0,9,,,,,2,,,79,100
108160,note_off,,,,,256,0,10,,,,,3,,,73,100
108188,note_off,,,,,92,0,7,,,,,0,,,81,100
108192,note_on,,,,,4,0,7,,,,,0,,,83,103
108284,note_off,,,,,92,0,7,,,,,0,,,83,100
108288,note_on,,,,,128,0,9,,,,,2,,,76,60
108288,note_on,,,,,4,0,7,,,,,0,,,85,104
108288,note_on,,,,,128,0,8,,,,,1,,,81,60
108288,note_on,,,,,128,0,10,,,,,3,,,73,60
108388,note_off,,,,,100,0,7,,,,,0,,,85,100
108480,note_on,,,,,92,0,7,,,,,0,,,85,105
108544,note_off,,,,,256,0,8,,,,,1,,,81,100
108544,note_off,,,,,256,0,10,,,,,3,,,73,100
108544,note_off,,,,,256,0,9,,,,,2,,,76,100
108668,note_off,,,,,188,0,7,,,,,0,,,85,100
108672,note_on,,,,,128,0,8,,,,,1,,,81,60
108672,note_on,,,,,128,0,9,,,,,2,,,76,60
108672,note_on,,,,,128,0,10,,,,,3,,,73,60
108672,note_on,,,,,4,0,7,,,,,0,,,81,104
108860,note_off,,,,,188,0,7,,,,,0,,,81,100
108864,note_on,,,,,4,0,7,,,,,0,,,79,102
108928,note_off,,,,,256,0,10,,,,,3,,,73,100
108928,note_off,,,,,256,0,9,,,,,2,,,76,100
108928,note_off,,,,,256,0,8,,,,,1,,,81,100
109052,note_off,,,,,188,0,7,,,,,0,,,79,100
109056,note_on,,,,,128,0,8,,,,,1,,,81,60
109056,note_on,,,,,128,0,9,,,,,2,,,76,60
109056,note_on,,,,,128,0,10,,,,,3,,,73,60
109056,note_on,,,,,4,0,7,,,,,0,,,78,101
109244,note_off,,,,,188,0,7,,,,,0,,,78,100
109248,note_on,,,,,4,0,7,,,,,0,,,76,99
109312,note_off,,,,,256,0,8,,,,,1,,,81,100
109312,note_off,,,,,256,0,9,,,,,2,,,76,100
109312,note_off,,,,,256,0,10,,,,,3,,,73,100
109436,note_off,,,,,188,0,7,,,,,0,,,76,100
109440,note_on,,,,,4,0,7,,,,,0,,,74,98
109440,note_on,,,,,128,0,9,,,,,2,,,78,60
109440,note_on,,,,,128,0,10,,,,,3,,,71,60
109440,note_on,,,,,128,0,8,,,,,1,,,81,60
109540,note_off,,,,,100,0,7,,,,,0,,,74,100
109632,note_on,,,,,92,0,7,,,,,0,,,74,92
109696,note_off,,,,,256,0,9,,,,,2,,,78,100
109696,note_off,,,,,256,0,10,,,,,3,,,71,100
109696,note_off,,,,,256,0,8,,,,,1,,,81,100
109724,note_off,,,,,92,0,7,,,,,0,,,74,100
109728,note_on,,,,,4,0,7,,,,,0,,,76,92
109820,note_off,,,,,92,0,7,,,,,0,,,76,100
109824,note_on,,,,,128,0,10,,,,,3,,,71,60
109824,note_on,,,,,128,0,9,,,,,2,,,78,60
109824,note_on,,,,,4,0,7,,,,,0,,,78,93
109824,note_on,,,,,128,0,8,,,,,1,,,81,60
110012,note_off,,,,,188,0,7,,,,,0,,,78,100
110016,note_on,,,,,4,0,7,,,,,0,,,74,95
110080,note_off,,,,,256,0,8,,,,,1,,,81,100
110080,note_off,,,,,256,0,9,,,,,2,,,78,100
110080,note_off,,,,,256,0,10,,,,,3,,,71,100
110108,note_off,,,,,92,0,7,,,,,0,,,74,100
110112,note_on,,,,,4,0,7,,,,,0,,,76,96
110204,note_off,,,,,92,0,7,,,,,0,,,76,100
110208,note_on,,,,,128,0,8,,,,,1,,,81,60
110208,note_on,,,,,128,0,10,,,,,3,,,71,60
110208,note_on,,,,,128,0,9,,,,,2,,,78,60
110208,note_on,,,,,4,0,7,,,,,0,,,78,97
110396,note_off,,,,,188,0,7,,,,,0,,,78,100
110400,note_on,,,,,4,0,7,,,,,0,,,79,99
110464,note_off,,,,,256,0,9,,,,,2,,,78,100
110464,note_off,,,,,256,0,8,,,,,1,,,81,100
110464,note_off,,,,,256,0,10,,,,,3,,,71,100
110492,note_off,,,,,92,0,7,,,,,0,,,79,100
110496,note_on,,,,,4,0,7,,,,,0,,,81,100
110588,note_off,,,,,92,0,7,,,,,0,,,81,100
110592,note_on,,,,,128,0,9,,,,,2,,,74,60
110592,note_on,,,,,128,0,8,,,,,1,,,79,60
110592,note_on,,,,,128,0,10,,,,,3,,,71,60
110592,note_on,,,,,4,0,7,,,,,0,,,83,101
110692,note_off,,,,,100,0,7,,,,,0,,,83,100
110784,note_on,,,,,92,0,7,,,,,0,,,83,102
110848,note_off,,,,,256,0,8,,,,,1,,,79,100
110848,note_off,,,,,256,0,9,,,,,2,,,74,100
110848,note_off,,,,,256,0,10,,,,,3,,,71,100
110972,note_off,,,,,188,0,7,,,,,0,,,83,100
110976,note_on,,,,,128,0,9,,,,,2,,,74,60
110976,note_on,,,,,128,0,8,,,,,1,,,79,60
110976,note_on,,,,,128,0,10,,,,,3,,,71,60
110976,note_on,,,,,4,0,7,,,,,0,,,79,101
111164,note_off,,,,,188,0,7,,,,,0,,,79,100
111168,note_on,,,,,4,0,7,,,,,0,,,78,99
111232,note_off,,,,,256,0,9,,,,,2,,,74,100
111232,note_off,,,,,256,0,8,,,,,1,,,79,100
111232,note_off,,,,,256,0,10,,,,,3,,,71,100
111356,note_off,,,,,188,0,7,,,,,0,,,78,100
111360,note_on,,,,,4,0,7,,,,,0,,,76,98
111360,note_on,,,,,128,0,10,,,,,3,,,71,60
111360,note_on,,,,,128,0,9,,,,,2,,,74,60
111360,note_on,,,,,128,0,8,,,,,1,,,79,60
111548,note_off,,,,,188,0,7,,,,,0,,,76,100
111552,note_on,,,,,4,0,7,,,,,0,,,74,96
111616,note_off,,,,,256,0,8,,,,,1,,,79,100
111616,note_off,,,,,256,0,9,,,,,2,,,74,100
111616,note_off,,,,,256,0,10,,,,,3,,,71,100
111740,note_off,,,,,188,0,7,,,,,0,,,74,100
111744,note_on,,,,,4,0,7,,,,,0,,,73,95
111744,note_on,,,,,128,0,8,,,,,1,,,79,60
111744,note_on,,,,,128,0,9,,,,,2,,,76,60
111744,note_on,,,,,128,0,10,,,,,3,,,69,60
111844,note_off,,,,,100,0,7,,,,,0,,,73,100
111936,note_on,,,,,92,0,7,,,,,0,,,73,89
112000,note_off,,,,,256,0,10,,,,,3,,,69,100
112000,note_off,,,,,256,0,9,,,,,2,,,76,100
112000,note_off,,,,,256,0,8,,,,,1,,,79,100
112028,note_off,,,,,92,0,7,,,,,0,,,73,100
112032,note_on,,,,,4,0,7,,,,,0,,,74,90
112124,note_off,,,,,92,0,7,,,,,0,,,74,100
112128,note_on,,,,,4,0,7,,,,,0,,,76,91
112128,note_on,,,,,128,0,10,,,,,3,,,69,60
112128,note_on,,,,,128,0,9,,,,,2,,,76,60
112128,note_on,,,,,128,0,8,,,,,1,,,79,60
112316,note_off,,,,,188,0,7,,,,,0,,,76,100
112320,note_on,,,,,4,0,7,,,,,0,,,73,93
112384,note_off,,,,,256,0,10,,,,,3,,,69,100
112384,note_off,,,,,256,0,8,,,,,1,,,79,100
112384,note_off,,,,,256,0,9,,,,,2,,,76,100
112412,note_off,,,,,92,0,7,,,,,0,,,73,100
112416,note_on,,,,,4,0,7,,,,,0,,,74,94
112508,note_off,,,,,92,0,7,,,,,0,,,74,100
112512,note_on,,,,,128,0,8,,,,,1,,,79,60
112512,note_on,,,,,4,0,7,,,,,0,,,76,95
112512,note_on,,,,,128,0,9,,,,,2,,,76,60
112512,note_on,,,,,128,0,10,,,,,3,,,69,60
112700,note_off,,,,,188,0,7,,,,,0,,,76,100
112704,note_on,,,,,4,0,7,,,,,0,,,78,97
112768,note_off,,,,,256,0,9,,,,,2,,,76,100
112768,note_off,,,,,256,0,8,,,,,1,,,79,100
112768,note_off,,,,,256,0,10,,,,,3,,,69,100
112796,note_off,,,,,92,0,7,,,,,0,,,78,100
112800,note_on,,,,,4,0,7,,,,,0,,,79,98
112892,note_off,,,,,92,0,7,,,,,0,,,79,100
112896,note_on,,,,,128,0,8,,,,,1,,,78,60
112896,note_on,,,,,4,0,7,,,,,0,,,81,99
112896,note_on,,,,,128,0,9,,,,,2,,,73,60
112896,note_on,,,,,128,0,10,,,,,3,,,69,60
112996,note_off,,,,,100,0,7,,,,,0,,,81,100
113088,note_on,,,,,92,0,7,,,,,0,,,81,100
113152,note_off,,,,,256,0,10,,,,,3,,,69,100
113152,note_off,,,,,256,0,8,,,,,1,,,78,100
113152,note_off,,,,,256,0,9,,,,,2,,,73,100
113276,note_off,,,,,188,0,7,,,,,0,,,81,100
113280,note_on,,,,,4,0,7,,,,,0,,,78,99
113280,note_on,,,,,128,0,9,,,,,2,,,73,60
113280,note_on,,,,,128,0,8,,,,,1,,,78,60
113280,note_on,,,,,128,0,10,,,,,3,,,69,60
113468,note_off,,,,,188,0,7,,,,,0,,,78,100
113472,note_on,,,,,4,0,7,,,,,0,,,76,97
113536,note_off,,,,,256,0,8,,,,,1,,,78,100
113536,note_off,,,,,256,0,10,,,,,3,,,69,100
113536,note_off,,,,,256,0,9,,,,,2,,,73,100
113660,note_off,,,,,188,0,7,,,,,0,,,76,100
113664,note_on,,,,,4,0,7,,,,,0,,,74,96
113664,note_on,,,,,128,0,9,,,,,2,,,73,60
113664,note_on,,,,,128,0,8,,,,,1,,,78,60
113664,note_on,,,,,128,0,10,,,,,3,,,69,60
113852,note_off,,,,,188,0,7,,,,,0,,,74,100
113856,note_on,,,,,4,0,7,,,,,0,,,73,94
113920,note_off,,,,,256,0,8,,,,,1,,,78,100
113920,note_off,,,,,256,0,9,,,,,2,,,73,100
113920,note_off,,,,,256,0,10,,,,,3,,,69,100
113984,note_off,,,,,128,0,7,,,,,0,,,73,100
114048,note_on,,,,,128,0,8,,,,,1,,,78,60
114048,note_on,,,,,64,0,7,,,,,0,,,71,93
114048,note_on,,,,,128,0,9,,,,,2,,,74,60
114048,note_on,,,,,7808,0,13,,,,,6,,,66,100
114048,note_on,,,,,0,0,13,,,,,6,,,74,100
114048,note_on,,,,,7808,0,14,,,,,6,,,59,100
114048,note_on,,,,,7808,0,11,,,,,4,,,59,83
114048,note_on,,,,,12416,0,12,,,,,5,,,47,83
114048,note_on,,,,,128,0,10,,,,,3,,,71,60
114148,note_off,,,,,100,0,7,,,,,0,,,71,100
114240,note_on,,,,,92,0,7,,,,,0,,,79,100
114304,note_off,,,,,256,0,14,,,,,6,,,59,100
114304,note_off,,,,,256,0,10,,,,,3,,,71,100
114304,note_off,,,,,256,0,12,,,,,5,,,47,100
114304,note_off,,,,,256,0,9,,,,,2,,,74,100
114304,note_off,,,,,256,0,8,,,,,1,,,78,100
114304,note_off,,,,,256,0,11,,,,,4,,,59,100
114304,note_off,,,,,0,0,13,,,,,6,,,74,100
114304,note_off,,,,,256,0,13,,,,,6,,,66,100
114428,note_off,,,,,188,0,7,,,,,0,,,79,100
114432,note_on,,,,,128,0,11,,,,,4,,,55,81
114432,note_on,,,,,128,0,12,,,,,5,,,43,81
114432,note_on,,,,,0,0,13,,,,,6,,,71,100
114432,note_on,,,,,128,0,13,,,,,6,,,64,100
114432,note_on,,,,,128,0,14,,,,,6,,,55,100
114432,note_on,,,,,4,0,7,,,,,0,,,76,99
114620,note_off,,,,,188,0,7,,,,,0,,,76,100
114624,note_on,,,,,4,0,7,,,,,0,,,74,97
114688,note_off,,,,,0,0,13,,,,,6,,,71,100
114688,note_off,,,,,256,0,14,,,,,6,,,55,100
114688,note_off,,,,,256,0,12,,,,,5,,,43,100
114688,note_off,,,,,256,0,13,,,,,6,,,64,100
114688,note_off,,,,,256,0,11,,,,,4,,,55,100
114812,note_off,,,,,188,0,7,,,,,0,,,74,100
114816,note_on,,,,,128,0,11,,,,,4,,,53,79
114816,note_on,,,,,0,0,13,,,,,6,,,71,100
114816,note_on,,,,,128,0,12,,,,,5,,,41,79
114816,note_on,,,,,128,0,14,,,,,6,,,53,100
114816,note_on,,,,,4,0,7,,,,,0,,,73,95
114816,note_on,,,,,128,0,13,,,,,6,,,73,100
115004,note_off,,,,,188,0,7,,,,,0,,,73,100
115008,note_on,,,,,4,0,7,,,,,0,,,71,93
115072,note_off,,,,,256,0,13,,,,,6,,,73,100
115072,note_off,,,,,0,0,13,,,,,6,,,71,100
115072,note_off,,,,,256,0,12,,,,,5,,,41,100
115072,note_off,,,,,256,0,14,,,,,6,,,53,100
115072,note_off,,,,,256,0,11,,,,,4,,,53,100
115136,note_off,,,,,128,0,7,,,,,0,,,71,100
115200,note_on,,,,,128,0,13,,,,,6,,,73,100
115200,note_on,,,,,896,0,10,,,,,3,,,66,60
115200,note_on,,,,,128,0,12,,,,,5,,,42,77
115200,note_on,,,,,64,0,7,,,,,0,,,66,91
115200,note_on,,,,,128,0,11,,,,,4,,,54,77
115200,note_on,,,,,896,0,8,,,,,1,,,73,60
115200,note_on,,,,,0,0,13,,,,,6,,,70,100
115200,note_on,,,,,128,0,14,,,,,6,,,54,100
115200,note_on,,,,,896,0,9,,,,,2,,,70,60
115292,note_off,,,,,92,0,7,,,,,0,,,66,100
115296,note_on,,,,,4,0,7,,,,,0,,,70,87
115300,note_off,,,,,100,0,10,,,,,3,,,66,100
115300,note_off,,,,,100,0,9,,,,,2,,,70,100
115300,note_off,,,,,100,0,8,,,,,1,,,73,100
115360,note_off,,,,,64,0,7,,,,,0,,,70,100
115392,note_on,,,,,92,0,9,,,,,2,,,70,60
115392,note_on,,,,,32,0,7,,,,,0,,,73,87
115392,note_on,,,,,92,0,8,,,,,1,,,73,60
115392,note_on,,,,,92,0,10,,,,,3,,,66,60
115456,note_off,,,,,256,0,14,,,,,6,,,54,100
115456,note_off,,,,,256,0,11,,,,,4,,,54,100
115456,note_off,,,,,256,0,12,,,,,5,,,42,100
115456,note_off,,,,,0,0,13,,,,,6,,,70,100
115456,note_off,,,,,256,0,13,,,,,6,,,73,100
115484,note_off,,,,,92,0,7,,,,,0,,,73,100
115488,note_on,,,,,4,0,7,,,,,0,,,70,87
115492,note_off,,,,,100,0,9,,,,,2,,,70,100
115492,note_off,,,,,100,0,10,,,,,3,,,66,100
115492,note_off,,,,,100,0,8,,,,,1,,,73,100
115552,note_off,,,,,64,0,7,,,,,0,,,70,100
115584,note_on,,,,,92,0,8,,,,,1,,,73,60
115584,note_on,,,,,92,0,10,,,,,3,,,66,60
115584,note_on,,,,,92,0,9,,,,,2,,,70,60
115584,note_on,,,,,32,0,7,,,,,0,,,73,87
115676,note_off,,,,,92,0,7,,,,,0,,,73,100
115680,note_on,,,,,4,0,7,,,,,0,,,70,87
115684,note_off,,,,,100,0,10,,,,,3,,,66,100
115684,note_off,,,,,100,0,8,,,,,1,,,73,100
115684,note_off,,,,,100,0,9,,,,,2,,,70,100
115744,note_off,,,,,64,0,7,,,,,0,,,70,100
115776,note_on,,,,,92,0,10,,,,,3,,,66,60
115776,note_on,,,,,92,0,8,,,,,1,,,73,60
115776,note_on,,,,,92,0,9,,,,,2,,,70,60
115776,note_on,,,,,32,0,7,,,,,0,,,73,87
115868,note_off,,,,,92,0,7,,,,,0,,,73,100
115872,note_on,,,,,4,0,7,,,,,0,,,70,87
115876,note_off,,,,,100,0,10,,,,,3,,,66,100
115876,note_off,,,,,100,0,9,,,,,2,,,70,100
115876,note_off,,,,,100,0,8,,,,,1,,,73,100
115936,note_off,,,,,64,0,7,,,,,0,,,70,100
115968,note_on,,,,,92,0,10,,,,,3,,,66,60
115968,note_on,,,,,32,0,7,,,,,0,,,66,87
115968,note_on,,,,,92,0,8,,,,,1,,,73,60
115968,note_on,,,,,92,0,9,,,,,2,,,70,60
116060,note_off,,,,,92,0,7,,,,,0,,,66,100
116064,note_on,,,,,4,0,7,,,,,0,,,70,87
116068,note_off,,,,,100,0,8,,,,,1,,,73,100
116068,note_off,,,,,100,0,10,,,,,3,,,66,100
116068,note_off,,,,,100,0,9,,,,,2,,,70,100
116128,note_off,,,,,64,0,7,,,,,0,,,70,100
116160,note_on,,,,,92,0,9,,,,,2,,,70,60
116160,note_on,,,,,32,0,7,,,,,0,,,73,87
116160,note_on,,,,,92,0,8,,,,,1,,,73,60
116160,note_on,,,,,92,0,10,,,,,3,,,66,60
116252,note_off,,,,,92,0,7,,,,,0,,,73,100
116256,note_on,,,,,4,0,7,,,,,0,,,70,87
116260,note_off,,,,,100,0,9,,,,,2,,,70,100
116260,note_off,,,,,100,0,8,,,,,1,,,73,100
116260,note_off,,,,,100,0,10,,,,,3,,,66,100
116320,note_off,,,,,64,0,7,,,,,0,,,70,100
116352,note_on,,,,,896,0,11,,,,,4,,,54,80
116352,note_on,,,,,32,0,7,,,,,0,,,66,91
116352,note_on,,,,,896,0,13,,,,,6,,,73,100
116352,note_on,,,,,92,0,9,,,,,2,,,70,60
116352,note_on,,,,,0,0,13,,,,,6,,,70,100
116352,note_on,,,,,896,0,14,,,,,6,,,54,100
116352,note_on,,,,,92,0,8,,,,,1,,,73,60
116352,note_on,,,,,92,0,10,,,,,3,,,66,60
116352,note_on,,,,,896,0,12,,,,,5,,,42,80
116444,note_off,,,,,92,0,7,,,,,0,,,66,100
116448,note_on,,,,,4,0,7,,,,,0,,,70,87
116452,note_off,,,,,100,0,9,,,,,2,,,70,100
116452,note_off,,,,,100,0,10,,,,,3,,,66,100
116452,note_off,,,,,100,0,8,,,,,1,,,73,100
116512,note_off,,,,,64,0,7,,,,,0,,,70,100
116544,note_on,,,,,92,0,8,,,,,1,,,73,60
116544,note_on,,,,,92,0,9,,,,,2,,,70,60
116544,note_on,,,,,92,0,10,,,,,3,,,66,60
116544,note_on,,,,,32,0,7,,,,,0,,,73,87
116608,note_off,,,,,256,0,14,,,,,6,,,54,100
116608,note_off,,,,,0,0,13,,,,,6,,,70,100
116608,note_off,,,,,256,0,11,,,,,4,,,54,100
116608,note_off,,,,,256,0,13,,,,,6,,,73,100
116608,note_off,,,,,256,0,12,,,,,5,,,42,100
116636,note_off,,,,,92,0,7,,,,,0,,,73,100
116640,note_on,,,,,4,0,7,,,,,0,,,70,87
116644,note_off,,,,,100,0,8,,,,,1,,,73,100
116644,note_off,,,,,100,0,9,,,,,2,,,70,100
116644,note_off,,,,,100,0,10,,,,,3,,,66,100
116704,note_off,,,,,64,0,7,,,,,0,,,70,100
116736,note_on,,,,,32,0,7,,,,,0,,,73,87
116736,note_on,,,,,92,0,9,,,,,2,,,70,60
116736,note_on,,,,,92,0,10,,,,,3,,,66,60
116736,note_on,,,,,92,0,8,,,,,1,,,73,60
116828,note_off,,,,,92,0,7,,,,,0,,,73,100
116832,note_on,,,,,4,0,7,,,,,0,,,70,87
116836,note_off,,,,,100,0,8,,,,,1,,,73,100
116836,note_off,,,,,100,0,9,,,,,2,,,70,100
116836,note_off,,,,,100,0,10,,,,,3,,,66,100
116896,note_off,,,,,64,0,7,,,,,0,,,70,100
116928,note_on,,,,,32,0,7,,,,,0,,,73,87
116928,note_on,,,,,92,0,9,,,,,2,,,70,60
116928,note_on,,,,,92,0,10,,,,,3,,,66,60
116928,note_on,,,,,92,0,8,,,,,1,,,73,60
117020,note_off,,,,,92,0,7,,,,,0,,,73,100
117024,note_on,,,,,4,0,7,,,,,0,,,70,87
117028,note_off,,,,,100,0,9,,,,,2,,,70,100
117028,note_off,,,,,100,0,10,,,,,3,,,66,100
117028,note_off,,,,,100,0,8,,,,,1,,,73,100
117088,note_off,,,,,64,0,7,,,,,0,,,70,100
117120,note_on,,,,,92,0,10,,,,,3,,,66,60
117120,note_on,,,,,92,0,9,,,,,2,,,70,60
117120,note_on,,,,,92,0,8,,,,,1,,,73,60
117120,note_on,,,,,32,0,7,,,,,0,,,66,87
117212,note_off,,,,,92,0,7,,,,,0,,,66,100
117216,note_on,,,,,4,0,7,,,,,0,,,70,87
117220,note_off,,,,,100,0,8,,,,,1,,,73,100
117220,note_off,,,,,100,0,10,,,,,3,,,66,100
117220,note_off,,,,,100,0,9,,,,,2,,,70,100
117280,note_off,,,,,64,0,7,,,,,0,,,70,100
117312,note_on,,,,,92,0,8,,,,,1,,,73,60
117312,note_on,,,,,92,0,9,,,,,2,,,70,60
117312,note_on,,,,,32,0,7,,,,,0,,,73,87
117312,note_on,,,,,92,0,10,,,,,3,,,66,60
117404,note_off,,,,,92,0,7,,,,,0,,,73,100
117408,note_on,,,,,4,0,7,,,,,0,,,70,87
117412,note_off,,,,,100,0,9,,,,,2,,,70,100
117412,note_off,,,,,100,0,10,,,,,3,,,66,100
117412,note_off,,,,,100,0,8,,,,,1,,,73,100
117472,note_off,,,,,64,0,7,,,,,0,,,70,100
117504,note_on,,,,,896,0,13,,,,,6,,,74,100
117504,note_on,,,,,896,0,14,,,,,6,,,47,100
117504,note_on,,,,,92,0,10,,,,,3,,,66,60
117504,note_on,,,,,896,0,12,,,,,5,,,35,80
117504,note_on,,,,,32,0,7,,,,,0,,,66,91
117504,note_on,,,,,896,0,11,,,,,4,,,47,80
117504,note_on,,,,,0,0,13,,,,,6,,,66,100
117504,note_on,,,,,92,0,8,,,,,1,,,74,60
117504,note_on,,,,,92,0,9,,,,,2,,,71,60
117596,note_off,,,,,92,0,7,,,,,0,,,66,100
117600,note_on,,,,,4,0,7,,,,,0,,,71,87
117604,note_off,,,,,100,0,9,,,,,2,,,71,100
117604,note_off,,,,,100,0,10,,,,,3,,,66,100
117604,note_off,,,,,100,0,8,,,,,1,,,74,100
117664,note_off,,,,,64,0,7,,,,,0,,,71,100
117696,note_on,,,,,92,0,8,,,,,1,,,74,60
117696,note_on,,,,,92,0,9,,,,,2,,,71,60
117696,note_on,,,,,92,0,10,,,,,3,,,66,60
117696,note_on,,,,,32,0,7,,,,,0,,,74,87
117760,note_off,,,,,256,0,13,,,,,6,,,74,100
117760,note_off,,,,,0,0,13,,,,,6,,,66,100
117760,note_off,,,,,256,0,11,,,,,4,,,47,100
117760,note_off,,,,,256,0,12,,,,,5,,,35,100
117760,note_off,,,,,256,0,14,,,,,6,,,47,100
117788,note_off,,,,,92,0,7,,,,,0,,,74,100
117792,note_on,,,,,4,0,7,,,,,0,,,71,87
117796,note_off,,,,,100,0,8,,,,,1,,,74,100
117796,note_off,,,,,100,0,10,,,,,3,,,66,100
117796,note_off,,,,,100,0,9,,,,,2,,,71,100
117856,note_off,,,,,64,0,7,,,,,0,,,71,100
117888,note_on,,,,,32,0,7,,,,,0,,,74,87
117888,note_on,,,,,92,0,8,,,,,1,,,74,60
117888,note_on,,,,,92,0,10,,,,,3,,,66,60
117888,note_on,,,,,92,0,9,,,,,2,,,71,60
117980,note_off,,,,,92,0,7,,,,,0,,,74,100
117984,note_on,,,,,4,0,7,,,,,0,,,71,87
117988,note_off,,,,,100,0,9,,,,,2,,,71,100
117988,note_off,,,,,100,0,8,,,,,1,,,74,100
117988,note_off,,,,,100,0,10,,,,,3,,,66,100
118048,note_off,,,,,64,0,7,,,,,0,,,71,100
118080,note_on,,,,,92,0,8,,,,,1,,,74,60
118080,note_on,,,,,32,0,7,,,,,0,,,74,87
118080,note_on,,,,,92,0,9,,,,,2,,,71,60
118080,note_on,,,,,92,0,10,,,,,3,,,66,60
118172,note_off,,,,,92,0,7,,,,,0,,,74,100
118176,note_on,,,,,4,0,7,,,,,0,,,71,87
118180,note_off,,,,,100,0,8,,,,,1,,,74,100
118180,note_off,,,,,100,0,9,,,,,2,,,71,100
118180,note_off,,,,,100,0,10,,,,,3,,,66,100
118240,note_off,,,,,64,0,7,,,,,0,,,71,100
118272,note_on,,,,,92,0,8,,,,,1,,,74,60
118272,note_on,,,,,32,0,7,,,,,0,,,66,87
118272,note_on,,,,,92,0,10,,,,,3,,,66,60
118272,note_on,,,,,92,0,9,,,,,2,,,71,60
118364,note_off,,,,,92,0,7,,,,,0,,,66,100
118368,note_on,,,,,4,0,7,,,,,0,,,71,87
118372,note_off,,,,,100,0,8,,,,,1,,,74,100
118372,note_off,,,,,100,0,9,,,,,2,,,71,100
118372,note_off,,,,,100,0,10,,,,,3,,,66,100
118432,note_off,,,,,64,0,7,,,,,0,,,71,100
118464,note_on,,,,,92,0,10,,,,,3,,,66,60
118464,note_on,,,,,92,0,8,,,,,1,,,74,60
118464,note_on,,,,,92,0,9,,,,,2,,,71,60
118464,note_on,,,,,32,0,7,,,,,0,,,74,87
118556,note_off,,,,,92,0,7,,,,,0,,,74,100
118560,note_on,,,,,4,0,7,,,,,0,,,71,87
118564,note_off,,,,,100,0,10,,,,,3,,,66,100
118564,note_off,,,,,100,0,8,,,,,1,,,74,100
118564,note_off,,,,,100,0,9,,,,,2,,,71,100
118624,note_off,,,,,64,0,7,,,,,0,,,71,100
118656,note_on,,,,,92,0,10,,,,,3,,,66,60
118656,note_on,,,,,896,0,14,,,,,6,,,47,100
118656,note_on,,,,,92,0,8,,,,,1,,,74,60
118656,note_on,,,,,896,0,13,,,,,6,,,74,100
118656,note_on,,,,,896,0,11,,,,,4,,,47,80
118656,note_on,,,,,896,0,12,,,,,5,,,35,80
118656,note_on,,,,,0,0,13,,,,,6,,,66,100
118656,note_on,,,,,32,0,7,,,,,0,,,66,91
118656,note_on,,,,,92,0,9,,,,,2,,,71,60
118748,note_off,,,,,92,0,7,,,,,0,,,66,100
118752,note_on,,,,,4,0,7,,,,,0,,,71,87
118756,note_off,,,,,100,0,10,,,,,3,,,66,100
118756,note_off,,,,,100,0,8,,,,,1,,,74,100
118756,note_off,,,,,100,0,9,,,,,2,,,71,100
118816,note_off,,,,,64,0,7,,,,,0,,,71,100
118848,note_on,,,,,92,0,8,,,,,1,,,74,60
118848,note_on,,,,,92,0,9,,,,,2,,,71,60
118848,note_on,,,,,32,0,7,,,,,0,,,74,87
118848,note_on,,,,,92,0,10,,,,,3,,,66,60
118912,note_off,,,,,256,0,14,,,,,6,,,47,100
118912,note_off,,,,,256,0,13,,,,,6,,,74,100
118912,note_off,,,,,256,0,12,,,,,5,,,35,100
118912,note_off,,,,,256,0,11,,,,,4,,,47,100
118912,note_off,,,,,0,0,13,,,,,6,,,66,100
118940,note_off,,,,,92,0,7,,,,,0,,,74,100
118944,note_on,,,,,4,0,7,,,,,0,,,71,87
118948,note_off,,,,,100,0,9,,,,,2,,,71,100
118948,note_off,,,,,100,0,10,,,,,3,,,66,100
118948,note_off,,,,,100,0,8,,,,,1,,,74,100
119008,note_off,,,,,64,0,7,,,,,0,,,71,100
119040,note_on,,,,,92,0,10,,,,,3,,,66,60
119040,note_on,,,,,92,0,9,,,,,2,,,71,60
119040,note_on,,,,,32,0,7,,,,,0,,,74,87
119040,note_on,,,,,92,0,8,,,,,1,,,74,60
119132,note_off,,,,,92,0,7,,,,,0,,,74,100
119136,note_on,,,,,4,0,7,,,,,0,,,71,87
119140,note_off,,,,,100,0,9,,,,,2,,,71,100
119140,note_off,,,,,100,0,8,,,,,1,,,74,100
119140,note_off,,,,,100,0,10,,,,,3,,,66,100
119200,note_off,,,,,64,0,7,,,,,0,,,71,100
119232,note_on,,,,,32,0,7,,,,,0,,,74,87
119232,note_on,,,,,92,0,8,,,,,1,,,74,60
119232,note_on,,,,,92,0,9,,,,,2,,,71,60
119232,note_on,,,,,92,0,10,,,,,3,,,66,60
119324,note_off,,,,,92,0,7,,,,,0,,,74,100
119328,note_on,,,,,4,0,7,,,,,0,,,71,87
119332,note_off,,,,,100,0,9,,,,,2,,,71,100
119332,note_off,,,,,100,0,10,,,,,3,,,66,100
119332,note_off,,,,,100,0,8,,,,,1,,,74,100
119392,note_off,,,,,64,0,7,,,,,0,,,71,100
119424,note_on,,,,,92,0,10,,,,,3,,,66,60
119424,note_on,,,,,92,0,9,,,,,2,,,71,60
119424,note_on,,,,,92,0,8,,,,,1,,,74,60
119424,note_on,,,,,32,0,7,,,,,0,,,66,87
119516,note_off,,,,,92,0,7,,,,,0,,,66,100
119520,note_on,,,,,4,0,7,,,,,0,,,71,87
119524,note_off,,,,,100,0,8,,,,,1,,,74,100
119524,note_off,,,,,100,0,10,,,,,3,,,66,100
119524,note_off,,,,,100,0,9,,,,,2,,,71,100
119584,note_off,,,,,64,0,7,,,,,0,,,71,100
119616,note_on,,,,,92,0,9,,,,,2,,,71,60
119616,note_on,,,,,32,0,7,,,,,0,,,74,87
119616,note_on,,,,,92,0,8,,,,,1,,,74,60
119616,note_on,,,,,92,0,10,,,,,3,,,66,60
119708,note_off,,,,,92,0,7,,,,,0,,,74,100
119712,note_on,,,,,4,0,7,,,,,0,,,71,87
119716,note_off,,,,,100,0,10,,,,,3,,,66,100
119716,note_off,,,,,100,0,9,,,,,2,,,71,100
119716,note_off,,,,,100,0,8,,,,,1,,,74,100
119776,note_off,,,,,64,0,7,,,,,0,,,71,100
119808,note_on,,,,,92,0,9,,,,,2,,,71,60
119808,note_on,,,,,92,0,10,,,,,3,,,66,60
119808,note_on,,,,,896,0,13,,,,,6,,,71,100
119808,note_on,,,,,92,0,8,,,,,1,,,73,60
119808,note_on,,,,,896,0,14,,,,,6,,,54,100
119808,note_on,,,,,896,0,12,,,,,5,,,42,80
119808,note_on,,,,,896,0,11,,,,,4,,,54,80
119808,note_on,,,,,32,0,7,,,,,0,,,66,87
119808,note_on,,,,,0,0,13,,,,,6,,,73,100
119900,note_off,,,,,92,0,7,,,,,0,,,66,100
119904,note_on,,,,,4,0,7,,,,,0,,,71,87
119908,note_off,,,,,100,0,10,,,,,3,,,66,100
119908,note_off,,,,,100,0,8,,,,,1,,,73,100
119908,note_off,,,,,100,0,9,,,,,2,,,71,100
119968,note_off,,,,,64,0,7,,,,,0,,,71,100
120000,note_on,,,,,92,0,9,,,,,2,,,71,60
120000,note_on,,,,,92,0,10,,,,,3,,,66,60
120000,note_on,,,,,92,0,8,,,,,1,,,73,60
120000,note_on,,,,,32,0,7,,,,,0,,,73,87
120064,note_off,,,,,256,0,14,,,,,6,,,54,100
120064,note_off,,,,,256,0,13,,,,,6,,,71,100
120064,note_off,,,,,0,0,13,,,,,6,,,73,100
120064,note_off,,,,,256,0,12,,,,,5,,,42,100
120064,note_off,,,,,256,0,11,,,,,4,,,54,100
120092,note_off,,,,,92,0,7,,,,,0,,,73,100
120096,note_on,,,,,4,0,7,,,,,0,,,71,87
120100,note_off,,,,,100,0,10,,,,,3,,,66,100
120100,note_off,,,,,100,0,9,,,,,2,,,71,100
120100,note_off,,,,,100,0,8,,,,,1,,,73,100
120160,note_off,,,,,64,0,7,,,,,0,,,71,100
120192,note_on,,,,,92,0,10,,,,,3,,,66,60
120192,note_on,,,,,32,0,7,,,,,0,,,73,87
120192,note_on,,,,,92,0,8,,,,,1,,,73,60
120192,note_on,,,,,92,0,9,,,,,2,,,71,60
120284,note_off,,,,,92,0,7,,,,,0,,,73,100
120288,note_on,,,,,4,0,7,,,,,0,,,71,88
120292,note_off,,,,,100,0,9,,,,,2,,,71,100
120292,note_off,,,,,100,0,8,,,,,1,,,73,100
120292,note_off,,,,,100,0,10,,,,,3,,,66,100
120352,note_off,,,,,64,0,7,,,,,0,,,71,100
120384,note_on,,,,,32,0,7,,,,,0,,,73,88
120384,note_on,,,,,92,0,8,,,,,1,,,73,60
120384,note_on,,,,,92,0,10,,,,,3,,,66,60
120384,note_on,,,,,92,0,9,,,,,2,,,71,60
120476,note_off,,,,,92,0,7,,,,,0,,,73,100
120480,note_on,,,,,4,0,7,,,,,0,,,71,88
120484,note_off,,,,,100,0,10,,,,,3,,,66,100
120484,note_off,,,,,100,0,8,,,,,1,,,73,100
120484,note_off,,,,,100,0,9,,,,,2,,,71,100
120544,note_off,,,,,64,0,7,,,,,0,,,71,100
120576,note_on,,,,,92,0,8,,,,,1,,,73,60
120576,note_on,,,,,32,0,7,,,,,0,,,66,88
120576,note_on,,,,,92,0,10,,,,,3,,,66,60
120576,note_on,,,,,92,0,9,,,,,2,,,71,60
120668,note_off,,,,,92,0,7,,,,,0,,,66,100
120672,note_on,,,,,4,0,7,,,,,0,,,71,88
120676,note_off,,,,,100,0,8,,,,,1,,,73,100
120676,note_off,,,,,100,0,10,,,,,3,,,66,100
120676,note_off,,,,,100,0,9,,,,,2,,,71,100
120736,note_off,,,,,64,0,7,,,,,0,,,71,100
120768,note_on,,,,,32,0,7,,,,,0,,,73,89
120768,note_on,,,,,92,0,10,,,,,3,,,66,60
120768,note_on,,,,,92,0,9,,,,,2,,,71,60
120768,note_on,,,,,92,0,8,,,,,1,,,73,60
120860,note_off,,,,,92,0,7,,,,,0,,,73,100
120864,note_on,,,,,4,0,7,,,,,0,,,71,89
120868,note_off,,,,,100,0,9,,,,,2,,,71,100
120868,note_off,,,,,100,0,10,,,,,3,,,66,100
120868,note_off,,,,,100,0,8,,,,,1,,,73,100
120928,note_off,,,,,64,0,7,,,,,0,,,71,100
120960,note_on,,,,,896,0,14,,,,,6,,,54,100
120960,note_on,,,,,896,0,13,,,,,6,,,71,100
120960,note_on,,,,,0,0,13,,,,,6,,,73,100
120960,note_on,,,,,92,0,9,,,,,2,,,71,60
120960,note_on,,,,,896,0,12,,,,,5,,,42,80
120960,note_on,,,,,92,0,8,,,,,1,,,73,60
120960,note_on,,,,,896,0,11,,,,,4,,,54,80
120960,note_on,,,,,32,0,7,,,,,0,,,66,89
120960,note_on,,,,,92,0,10,,,,,3,,,66,60
121052,note_off,,,,,92,0,7,,,,,0,,,66,100
121056,note_on,,,,,4,0,7,,,,,0,,,71,89
121060,note_off,,,,,100,0,8,,,,,1,,,73,100
121060,note_off,,,,,100,0,10,,,,,3,,,66,100
121060,note_off,,,,,100,0,9,,,,,2,,,71,100
121120,note_off,,,,,64,0,7,,,,,0,,,71,100
121152,note_on,,,,,92,0,10,,,,,3,,,66,60
121152,note_on,,,,,92,0,8,,,,,1,,,73,60
121152,note_on,,,,,92,0,9,,,,,2,,,71,60
121152,note_on,,,,,32,0,7,,,,,0,,,73,89
121216,note_off,,,,,0,0,13,,,,,6,,,73,100
121216,note_off,,,,,256,0,13,,,,,6,,,71,100
121216,note_off,,,,,256,0,14,,,,,6,,,54,100
121216,note_off,,,,,256,0,11,,,,,4,,,54,100
121216,note_off,,,,,256,0,12,,,,,5,,,42,100
121244,note_off,,,,,92,0,7,,,,,0,,,73,100
121248,note_on,,,,,4,0,7,,,,,0,,,71,90
121252,note_off,,,,,100,0,8,,,,,1,,,73,100
121252,note_off,,,,,100,0,10,,,,,3,,,66,100
121252,note_off,,,,,100,0,9,,,,,2,,,71,100
121312,note_off,,,,,64,0,7,,,,,0,,,71,100
121344,note_on,,,,,32,0,7,,,,,0,,,73,90
121344,note_on,,,,,92,0,8,,,,,1,,,73,60
121344,note_on,,,,,92,0,10,,,,,3,,,66,60
121344,note_on,,,,,92,0,9,,,,,2,,,71,60
121436,note_off,,,,,92,0,7,,,,,0,,,73,100
121440,note_on,,,,,4,0,7,,,,,0,,,71,90
121444,note_off,,,,,100,0,8,,,,,1,,,73,100
121444,note_off,,,,,100,0,9,,,,,2,,,71,100
121444,note_off,,,,,100,0,10,,,,,3,,,66,100
121504,note_off,,,,,64,0,7,,,,,0,,,71,100
121536,note_on,,,,,92,0,8,,,,,1,,,73,60
121536,note_on,,,,,92,0,9,,,,,2,,,71,60
121536,note_on,,,,,92,0,10,,,,,3,,,66,60
121536,note_on,,,,,32,0,7,,,,,0,,,73,90
121628,note_off,,,,,92,0,7,,,,,0,,,73,100
121632,note_on,,,,,4,0,7,,,,,0,,,71,90
121636,note_off,,,,,100,0,9,,,,,2,,,71,100
121636,note_off,,,,,100,0,8,,,,,1,,,73,100
121636,note_off,,,,,100,0,10,,,,,3,,,66,100
121696,note_off,,,,,64,0,7,,,,,0,,,71,100
121728,note_on,,,,,92,0,9,,,,,2,,,71,60
121728,note_on,,,,,92,0,10,,,,,3,,,66,60
121728,note_on,,,,,92,0,8,,,,,1,,,73,60
121728,note_on,,,,,32,0,7,,,,,0,,,66,91
121820,note_off,,,,,92,0,7,,,,,0,,,66,100
121824,note_on,,,,,4,0,7,,,,,0,,,71,91
121828,note_off,,,,,100,0,9,,,,,2,,,71,100
121828,note_off,,,,,100,0,10,,,,,3,,,66,100
121828,note_off,,,,,100,0,8,,,,,1,,,73,100
121888,note_off,,,,,64,0,7,,,,,0,,,71,100
121920,note_on,,,,,92,0,8,,,,,1,,,73,60
121920,note_on,,,,,92,0,9,,,,,2,,,71,60
121920,note_on,,,,,92,0,10,,,,,3,,,66,60
121920,note_on,,,,,32,0,7,,,,,0,,,73,91
122012,note_off,,,,,92,0,7,,,,,0,,,73,100
122016,note_on,,,,,4,0,7,,,,,0,,,71,91
122020,note_off,,,,,100,0,8,,,,,1,,,73,100
122020,note_off,,,,,100,0,10,,,,,3,,,66,100
122020,note_off,,,,,100,0,9,,,,,2,,,71,100
122080,note_off,,,,,64,0,7,,,,,0,,,71,100
122112,note_on,,,,,32,0,7,,,,,0,,,66,91
122112,note_on,,,,,896,0,12,,,,,5,,,42,80
122112,note_on,,,,,0,0,13,,,,,6,,,70,100
122112,note_on,,,,,896,0,13,,,,,6,,,73,100
122112,note_on,,,,,896,0,14,,,,,6,,,42,100
122112,note_on,,,,,92,0,9,,,,,2,,,70,60
122112,note_on,,,,,92,0,10,,,,,3,,,66,60
122112,note_on,,,,,896,0,11,,,,,4,,,42,80
122112,note_on,,,,,92,0,8,,,,,1,,,73,60
122204,note_off,,,,,92,0,7,,,,,0,,,66,100
122208,note_on,,,,,4,0,7,,,,,0,,,70,90
122212,note_off,,,,,100,0,10,,,,,3,,,66,100
122212,note_off,,,,,100,0,9,,,,,2,,,70,100
122212,note_off,,,,,100,0,8,,,,,1,,,73,100
122272,note_off,,,,,64,0,7,,,,,0,,,70,100
122304,note_on,,,,,92,0,8,,,,,1,,,73,61
122304,note_on,,,,,92,0,9,,,,,2,,,70,61
122304,note_on,,,,,92,0,10,,,,,3,,,66,61
122304,note_on,,,,,32,0,7,,,,,0,,,73,90
122368,note_off,,,,,0,0,13,,,,,6,,,70,100
122368,note_off,,,,,256,0,13,,,,,6,,,73,100
122368,note_off,,,,,256,0,14,,,,,6,,,42,100
122368,note_off,,,,,256,0,11,,,,,4,,,42,100
122368,note_off,,,,,256,0,12,,,,,5,,,42,100
122396,note_off,,,,,92,0,7,,,,,0,,,73,100
122400,note_on,,,,,4,0,7,,,,,0,,,70,91
122404,note_off,,,,,100,0,10,,,,,3,,,66,100
122404,note_off,,,,,100,0,8,,,,,1,,,73,100
122404,note_off,,,,,100,0,9,,,,,2,,,70,100
122464,note_off,,,,,64,0,7,,,,,0,,,70,100
122496,note_on,,,,,92,0,8,,,,,1,,,73,62
122496,note_on,,,,,32,0,7,,,,,0,,,73,91
122496,note_on,,,,,92,0,10,,,,,3,,,66,62
122496,note_on,,,,,92,0,9,,,,,2,,,70,62
122588,note_off,,,,,92,0,7,,,,,0,,,73,100
122592,note_on,,,,,4,0,7,,,,,0,,,70,92
122596,note_off,,,,,100,0,9,,,,,2,,,70,100
122596,note_off,,,,,100,0,10,,,,,3,,,66,100
122596,note_off,,,,,100,0,8,,,,,1,,,73,100
122656,note_off,,,,,64,0,7,,,,,0,,,70,100
122688,note_on,,,,,92,0,8,,,,,1,,,73,63
122688,note_on,,,,,92,0,9,,,,,2,,,70,63
122688,note_on,,,,,92,0,10,,,,,3,,,66,63
122688,note_on,,,,,32,0,7,,,,,0,,,73,92
122780,note_off,,,,,92,0,7,,,,,0,,,73,100
122784,note_on,,,,,4,0,7,,,,,0,,,70,93
122788,note_off,,,,,100,0,9,,,,,2,,,70,100
122788,note_off,,,,,100,0,8,,,,,1,,,73,100
122788,note_off,,,,,100,0,10,,,,,3,,,66,100
122848,note_off,,,,,64,0,7,,,,,0,,,70,100
122880,note_on,,,,,92,0,9,,,,,2,,,70,64
122880,note_on,,,,,32,0,7,,,,,0,,,66,93
122880,note_on,,,,,92,0,8,,,,,1,,,73,64
122880,note_on,,,,,92,0,10,,,,,3,,,66,64
122972,note_off,,,,,92,0,7,,,,,0,,,66,100
122976,note_on,,,,,4,0,7,,,,,0,,,70,94
122980,note_off,,,,,100,0,8,,,,,1,,,73,100
122980,note_off,,,,,100,0,9,,,,,2,,,70,100
122980,note_off,,,,,100,0,10,,,,,3,,,66,100
123040,note_off,,,,,64,0,7,,,,,0,,,70,100
123072,note_on,,,,,92,0,9,,,,,2,,,70,66
123072,note_on,,,,,32,0,7,,,,,0,,,73,94
123072,note_on,,,,,92,0,10,,,,,3,,,66,66
123072,note_on,,,,,92,0,8,,,,,1,,,73,66
123164,note_off,,,,,92,0,7,,,,,0,,,73,100
123168,note_on,,,,,4,0,7,,,,,0,,,70,95
123172,note_off,,,,,100,0,8,,,,,1,,,73,100
123172,note_off,,,,,100,0,9,,,,,2,,,70,100
123172,note_off,,,,,100,0,10,,,,,3,,,66,100
123232,note_off,,,,,64,0,7,,,,,0,,,70,100
123264,note_on,,,,,896,0,11,,,,,4,,,42,80
123264,note_on,,,,,0,0,13,,,,,6,,,70,100
123264,note_on,,,,,92,0,10,,,,,3,,,66,67
123264,note_on,,,,,92,0,9,,,,,2,,,70,67
123264,note_on,,,,,32,0,7,,,,,0,,,66,95
123264,note_on,,,,,896,0,13,,,,,6,,,73,100
123264,note_on,,,,,896,0,12,,,,,5,,,42,80
123264,note_on,,,,,896,0,14,,,,,6,,,42,100
123264,note_on,,,,,92,0,8,,,,,1,,,73,67
123356,note_off,,,,,92,0,7,,,,,0,,,66,100
123360,note_on,,,,,4,0,7,,,,,0,,,70,96
123364,note_off,,,,,100,0,8,,,,,1,,,73,100
123364,note_off,,,,,100,0,10,,,,,3,,,66,100
123364,note_off,,,,,100,0,9,,,,,2,,,70,100
123424,note_off,,,,,64,0,7,,,,,0,,,70,100
123456,note_on,,,,,92,0,8,,,,,1,,,73,68
123456,note_on,,,,,92,0,10,,,,,3,,,66,68
123456,note_on,,,,,92,0,9,,,,,2,,,70,68
123456,note_on,,,,,32,0,7,,,,,0,,,73,96
123520,note_off,,,,,0,0,13,,,,,6,,,70,100
123520,note_off,,,,,256,0,13,,,,,6,,,73,100
123520,note_off,,,,,256,0,14,,,,,6,,,42,100
123520,note_off,,,,,256,0,12,,,,,5,,,42,100
123520,note_off,,,,,256,0,11,,,,,4,,,42,100
123548,note_off,,,,,92,0,7,,,,,0,,,73,100
123552,note_on,,,,,4,0,7,,,,,0,,,70,97
123556,note_off,,,,,100,0,8,,,,,1,,,73,100
123556,note_off,,,,,100,0,9,,,,,2,,,70,100
123556,note_off,,,,,100,0,10,,,,,3,,,66,100
123616,note_off,,,,,64,0,7,,,,,0,,,70,100
123648,note_on,,,,,32,0,7,,,,,0,,,73,97
123648,note_on,,,,,92,0,9,,,,,2,,,70,69
123648,note_on,,,,,92,0,8,,,,,1,,,73,69
123648,note_on,,,,,92,0,10,,,,,3,,,66,69
123740,note_off,,,,,92,0,7,,,,,0,,,73,100
123744,note_on,,,,,4,0,7,,,,,0,,,70,98
123748,note_off,,,,,100,0,8,,,,,1,,,73,100
123748,note_off,,,,,100,0,9,,,,,2,,,70,100
123748,note_off,,,,,100,0,10,,,,,3,,,66,100
123808,note_off,,,,,64,0,7,,,,,0,,,70,100
123840,note_on,,,,,32,0,7,,,,,0,,,73,98
123840,note_on,,,,,92,0,9,,,,,2,,,70,71
123840,note_on,,,,,92,0,8,,,,,1,,,73,71
123840,note_on,,,,,92,0,10,,,,,3,,,66,71
123932,note_off,,,,,92,0,7,,,,,0,,,73,100
123936,note_on,,,,,4,0,7,,,,,0,,,70,99
123940,note_off,,,,,100,0,9,,,,,2,,,70,100
123940,note_off,,,,,100,0,8,,,,,1,,,73,100
123940,note_off,,,,,100,0,10,,,,,3,,,66,100
124000,note_off,,,,,64,0,7,,,,,0,,,70,100
124032,note_on,,,,,92,0,9,,,,,2,,,70,72
124032,note_on,,,,,92,0,10,,,,,3,,,66,72
124032,note_on,,,,,32,0,7,,,,,0,,,66,99
124032,note_on,,,,,92,0,8,,,,,1,,,73,72
124124,note_off,,,,,92,0,7,,,,,0,,,66,100
124128,note_on,,,,,4,0,7,,,,,0,,,70,100
124132,note_off,,,,,100,0,9,,,,,2,,,70,100
124132,note_off,,,,,100,0,10,,,,,3,,,66,100
124132,note_off,,,,,100,0,8,,,,,1,,,73,100
124192,note_off,,,,,64,0,7,,,,,0,,,70,100
124224,note_on,,,,,32,0,7,,,,,0,,,73,100
124224,note_on,,,,,92,0,9,,,,,2,,,70,73
124224,note_on,,,,,92,0,8,,,,,1,,,73,73
124224,note_on,,,,,92,0,10,,,,,3,,,66,73
124316,note_off,,,,,92,0,7,,,,,0,,,73,100
124320,note_on,,,,,4,0,7,,,,,0,,,70,101
124324,note_off,,,,,100,0,9,,,,,2,,,70,100
124324,note_off,,,,,100,0,8,,,,,1,,,73,100
124324,note_off,,,,,100,0,10,,,,,3,,,66,100
124384,note_off,,,,,64,0,7,,,,,0,,,70,100
124416,note_on,,,,,0,0,7,,,,,0,,,59,101
124416,note_on,,,,,896,0,12,,,,,5,,,35,85
124416,note_on,,,,,22784,0,15,,,,,7,,,66,100
124416,note_on,,,,,896,0,14,,,,,6,,,47,100
124416,note_on,,,,,0,0,15,,,,,7,,,62,100
124416,note_on,,,,,22784,0,16,,,,,7,,,47,100
124416,note_on,,,,,92,0,10,,,,,3,,,66,85
124416,note_on,,,,,92,0,9,,,,,2,,,71,85
124416,note_on,,,,,896,0,11,,,,,4,,,47,85
124416,note_on,,,,,32,0,7,,,,,0,,,66,101
124416,note_on,,,,,896,0,13,,,,,6,,,74,100
124416,note_on,,,,,0,0,13,,,,,6,,,66,100
124416,note_on,,,,,92,0,8,,,,,1,,,74,85
124460,note_off,,,,,44,0,7,,,,,0,,,59,100
124464,note_on,,,,,4,0,7,,,,,0,,,71,102
124672,note_off,,,,,256,0,14,,,,,6,,,47,100
124672,note_off,,,,,256,0,9,,,,,2,,,71,100
124672,note_off,,,,,256,0,12,,,,,5,,,35,100
124672,note_off,,,,,0,0,13,,,,,6,,,66,100
124672,note_off,,,,,256,0,16,,,,,7,,,47,100
124672,note_off,,,,,256,0,10,,,,,3,,,66,100
124672,note_off,,,,,256,0,13,,,,,6,,,74,100
124672,note_off,,,,,256,0,11,,,,,4,,,47,100
124720,note_off,,,,,256,0,7,,,,,0,,,66,100
124720,note_off,,,,,0,0,7,,,,,0,,,71,100
124796,note_off,,,,,380,0,15,,,,,7,,,66,100
124796,note_off,,,,,0,0,15,,,,,7,,,62,100
124796,note_off,,,,,380,0,8,,,,,1,,,74,100
124800,note_on,,,,,4,0,15,,,,,7,,,71,100
124800,note_on,,,,,4,0,8,,,,,1,,,78,91
124800,note_on,,,,,0,0,15,,,,,7,,,66,100
124992,note_on,,,,,320,0,12,,,,,5,,,35,94
124992,note_on,,,,,320,0,13,,,,,6,,,71,100
124992,note_on,,,,,320,0,14,,,,,6,,,47,100
124992,note_on,,,,,320,0,16,,,,,7,,,47,100
124992,note_on,,,,,0,0,13,,,,,6,,,66,100
124992,note_on,,,,,0,0,13,,,,,6,,,62,100
124992,note_on,,,,,320,0,11,,,,,4,,,47,94
125056,note_off,,,,,0,0,15,,,,,7,,,66,100
125056,note_off,,,,,256,0,8,,,,,1,,,78,100
125056,note_off,,,,,256,0,15,,,,,7,,,71,100
125072,note_off,,,,,80,0,13,,,,,6,,,71,100
125072,note_off,,,,,80,0,12,,,,,5,,,35,100
125072,note_off,,,,,80,0,11,,,,,4,,,47,100
125072,note_off,,,,,80,0,14,,,,,6,,,47,100
125072,note_off,,,,,80,0,16,,,,,7,,,47,100
125072,note_off,,,,,0,0,13,,,,,6,,,66,100
125072,note_off,,,,,0,0,13,,,,,6,,,62,100
125184,note_on,,,,,128,0,15,,,,,7,,,74,100
125184,note_on,,,,,0,0,15,,,,,7,,,71,100
125184,note_on,,,,,112,0,12,,,,,5,,,35,98
125184,note_on,,,,,112,0,16,,,,,7,,,47,100
125184,note_on,,,,,112,0,11,,,,,4,,,47,98
125184,note_on,,,,,0,0,13,,,,,6,,,62,100
125184,note_on,,,,,112,0,13,,,,,6,,,71,100
125184,note_on,,,,,0,0,13,,,,,6,,,66,100
125184,note_on,,,,,112,0,14,,,,,6,,,47,100
125184,note_on,,,,,128,0,8,,,,,1,,,83,98
125264,note_off,,,,,80,0,14,,,,,6,,,47,100
125264,note_off,,,,,80,0,12,,,,,5,,,35,100
125264,note_off,,,,,0,0,13,,,,,6,,,66,100
125264,note_off,,,,,80,0,11,,,,,4,,,47,100
125264,note_off,,,,,80,0,13,,,,,6,,,71,100
125264,note_off,,,,,80,0,16,,,,,7,,,47,100
125264,note_off,,,,,0,0,13,,,,,6,,,62,100
125376,note_on,,,,,112,0,13,,,,,6,,,71,100
125376,note_on,,,,,112,0,11,,,,,4,,,47,101
125376,note_on,,,,,0,0,13,,,,,6,,,62,100
125376,note_on,,,,,0,0,13,,,,,6,,,66,100
125376,note_on,,,,,112,0,14,,,,,6,,,47,100
125376,note_on,,,,,112,0,12,,,,,5,,,35,101
125376,note_on,,,,,112,0,16,,,,,7,,,47,100
125440,note_off,,,,,0,0,15,,,,,7,,,71,100
125440,note_off,,,,,256,0,15,,,,,7,,,74,100
125440,note_off,,,,,256,0,8,,,,,1,,,83,100
125456,note_off,,,,,80,0,11,,,,,4,,,47,100
125456,note_off,,,,,80,0,16,,,,,7,,,47,100
125456,note_off,,,,,0,0,13,,,,,6,,,62,100
125456,note_off,,,,,80,0,12,,,,,5,,,35,100
125456,note_off,,,,,80,0,14,,,,,6,,,47,100
125456,note_off,,,,,0,0,13,,,,,6,,,66,100
125456,note_off,,,,,80,0,13,,,,,6,,,71,100
125568,note_on,,,,,0,0,15,,,,,7,,,67,100
125568,note_on,,,,,0,0,15,,,,,7,,,71,100
125568,note_on,,,,,112,0,11,,,,,4,,,52,105
125568,note_on,,,,,112,0,16,,,,,7,,,52,100
125568,note_on,,,,,0,0,13,,,,,6,,,71,100
125568,note_on,,,,,0,0,13,,,,,6,,,67,100
125568,note_on,,,,,128,0,8,,,,,1,,,83,105
125568,note_on,,,,,128,0,15,,,,,7,,,76,100
125568,note_on,,,,,112,0,13,,,,,6,,,64,100
125568,note_on,,,,,896,0,9,,,,,2,,,67,97
125568,note_on,,,,,112,0,14,,,,,6,,,52,100
125568,note_on,,,,,896,0,10,,,,,3,,,67,105
125568,note_on,,,,,0,0,13,,,,,6,,,64,100
125568,note_on,,,,,112,0,12,,,,,5,,,40,105
125756,note_off,,,,,188,0,10,,,,,3,,,67,100
125756,note_off,,,,,188,0,8,,,,,1,,,83,100
125760,note_on,,,,,4,0,10,,,,,3,,,66,104
125760,note_on,,,,,4,0,8,,,,,1,,,81,104
125824,note_off,,,,,256,0,16,,,,,7,,,52,100
125824,note_off,,,,,0,0,13,,,,,6,,,71,100
125824,note_off,,,,,0,0,13,,,,,6,,,67,100
125824,note_off,,,,,0,0,13,,,,,6,,,64,100
125824,note_off,,,,,256,0,13,,,,,6,,,64,100
125824,note_off,,,,,256,0,14,,,,,6,,,52,100
125824,note_off,,,,,256,0,12,,,,,5,,,40,100
125824,note_off,,,,,256,0,11,,,,,4,,,52,100
125948,note_off,,,,,188,0,8,,,,,1,,,81,100
125948,note_off,,,,,380,0,9,,,,,2,,,67,100
125948,note_off,,,,,188,0,10,,,,,3,,,66,100
125952,note_on,,,,,4,0,9,,,,,2,,,71,99
125952,note_on,,,,,4,0,10,,,,,3,,,64,102
125952,note_on,,,,,4,0,8,,,,,1,,,79,102
126052,note_off,,,,,100,0,10,,,,,3,,,64,100
126052,note_off,,,,,100,0,8,,,,,1,,,79,100
126144,note_on,,,,,320,0,13,,,,,6,,,64,100
126144,note_on,,,,,0,0,13,,,,,6,,,67,100
126144,note_on,,,,,320,0,11,,,,,4,,,52,101
126144,note_on,,,,,320,0,14,,,,,6,,,52,100
126144,note_on,,,,,92,0,10,,,,,3,,,62,101
126144,note_on,,,,,320,0,16,,,,,7,,,52,100
126144,note_on,,,,,92,0,8,,,,,1,,,78,101
126144,note_on,,,,,320,0,12,,,,,5,,,40,101
126144,note_on,,,,,0,0,13,,,,,6,,,71,100
126208,note_off,,,,,256,0,9,,,,,2,,,71,100
126224,note_off,,,,,80,0,10,,,,,3,,,62,100
126224,note_off,,,,,80,0,14,,,,,6,,,52,100
126224,note_off,,,,,80,0,11,,,,,4,,,52,100
126224,note_off,,,,,80,0,12,,,,,5,,,40,100
126224,note_off,,,,,80,0,13,,,,,6,,,64,100
126224,note_off,,,,,80,0,16,,,,,7,,,52,100
126224,note_off,,,,,0,0,13,,,,,6,,,71,100
126224,note_off,,,,,80,0,8,,,,,1,,,78,100
126224,note_off,,,,,0,0,13,,,,,6,,,67,100
126336,note_on,,,,,112,0,10,,,,,3,,,61,99
126336,note_on,,,,,112,0,16,,,,,7,,,52,100
126336,note_on,,,,,112,0,14,,,,,6,,,52,100
126336,note_on,,,,,112,0,8,,,,,1,,,76,99
126336,note_on,,,,,128,0,9,,,,,2,,,76,102
126336,note_on,,,,,112,0,11,,,,,4,,,52,99
126336,note_on,,,,,112,0,12,,,,,5,,,40,99
126336,note_on,,,,,0,0,13,,,,,6,,,67,100
126336,note_on,,,,,112,0,13,,,,,6,,,64,100
126336,note_on,,,,,0,0,13,,,,,6,,,71,100
126416,note_off,,,,,80,0,13,,,,,6,,,64,100
126416,note_off,,,,,80,0,16,,,,,7,,,52,100
126416,note_off,,,,,80,0,11,,,,,4,,,52,100
126416,note_off,,,,,0,0,13,,,,,6,,,67,100
126416,note_off,,,,,0,0,13,,,,,6,,,71,100
126416,note_off,,,,,80,0,12,,,,,5,,,40,100
126416,note_off,,,,,80,0,8,,,,,1,,,76,100
126416,note_off,,,,,80,0,10,,,,,3,,,61,100
126416,note_off,,,,,80,0,14,,,,,6,,,52,100
126528,note_on,,,,,112,0,13,,,,,6,,,64,100
126528,note_on,,,,,0,0,13,,,,,6,,,71,100
126528,note_on,,,,,0,0,13,,,,,6,,,67,100
126528,note_on,,,,,112,0,14,,,,,6,,,52,100
126528,note_on,,,,,112,0,11,,,,,4,,,52,97
126528,note_on,,,,,112,0,10,,,,,3,,,59,97
126528,note_on,,,,,112,0,12,,,,,5,,,40,97
126528,note_on,,,,,112,0,8,,,,,1,,,74,97
126528,note_on,,,,,112,0,16,,,,,7,,,52,100
126592,note_off,,,,,256,0,9,,,,,2,,,76,100
126604,note_off,,,,,0,0,15,,,,,7,,,71,100
126604,note_off,,,,,1036,0,15,,,,,7,,,67,100
126608,note_off,,,,,80,0,11,,,,,4,,,52,100
126608,note_off,,,,,80,0,14,,,,,6,,,52,100
126608,note_off,,,,,80,0,16,,,,,7,,,52,100
126608,note_off,,,,,80,0,8,,,,,1,,,74,100
126608,note_off,,,,,0,0,13,,,,,6,,,67,100
126608,note_off,,,,,0,0,13,,,,,6,,,71,100
126608,note_off,,,,,80,0,13,,,,,6,,,64,100
126608,note_off,,,,,80,0,10,,,,,3,,,59,100
126608,note_off,,,,,80,0,12,,,,,5,,,40,100
126720,note_on,,,,,0,0,13,,,,,6,,,64,100
126720,note_on,,,,,0,0,13,,,,,6,,,69,100
126720,note_on,,,,,112,0,12,,,,,5,,,33,95
126720,note_on,,,,,128,0,9,,,,,2,,,76,104
126720,note_on,,,,,116,0,15,,,,,7,,,69,100
126720,note_on,,,,,112,0,11,,,,,4,,,45,95
126720,note_on,,,,,0,0,15,,,,,7,,,73,100
126720,note_on,,,,,112,0,8,,,,,1,,,73,95
126720,note_on,,,,,112,0,13,,,,,6,,,61,100
126720,note_on,,,,,112,0,16,,,,,7,,,45,100
126720,note_on,,,,,112,0,10,,,,,3,,,73,105
126720,note_on,,,,,112,0,14,,,,,6,,,45,100
126908,note_off,,,,,188,0,9,,,,,2,,,76,100
126908,note_off,,,,,188,0,10,,,,,3,,,73,100
126912,note_on,,,,,4,0,9,,,,,2,,,74,104
126912,note_on,,,,,4,0,10,,,,,3,,,71,104
126976,note_off,,,,,0,0,13,,,,,6,,,69,100
126976,note_off,,,,,0,0,13,,,,,6,,,64,100
126976,note_off,,,,,256,0,13,,,,,6,,,61,100
126976,note_off,,,,,256,0,12,,,,,5,,,33,100
126976,note_off,,,,,256,0,11,,,,,4,,,45,100
126976,note_off,,,,,256,0,14,,,,,6,,,45,100
126976,note_off,,,,,256,0,16,,,,,7,,,45,100
127100,note_off,,,,,188,0,9,,,,,2,,,74,100
127100,note_off,,,,,380,0,8,,,,,1,,,73,100
127100,note_off,,,,,188,0,10,,,,,3,,,71,100
127104,note_on,,,,,4,0,10,,,,,3,,,69,102
127104,note_on,,,,,4,0,8,,,,,1,,,76,97
127104,note_on,,,,,4,0,9,,,,,2,,,73,102
127204,note_off,,,,,100,0,9,,,,,2,,,73,100
127204,note_off,,,,,100,0,10,,,,,3,,,69,100
127296,note_on,,,,,320,0,14,,,,,6,,,45,100
127296,note_on,,,,,0,0,13,,,,,6,,,64,100
127296,note_on,,,,,320,0,11,,,,,4,,,45,98
127296,note_on,,,,,320,0,16,,,,,7,,,45,100
127296,note_on,,,,,320,0,12,,,,,5,,,33,98
127296,note_on,,,,,0,0,13,,,,,6,,,69,100
127296,note_on,,,,,92,0,9,,,,,2,,,71,101
127296,note_on,,,,,92,0,10,,,,,3,,,67,100
127296,note_on,,,,,320,0,13,,,,,6,,,61,100
127360,note_off,,,,,256,0,8,,,,,1,,,76,100
127376,note_off,,,,,80,0,16,,,,,7,,,45,100
127376,note_off,,,,,80,0,12,,,,,5,,,33,100
127376,note_off,,,,,80,0,9,,,,,2,,,71,100
127376,note_off,,,,,0,0,13,,,,,6,,,69,100
127376,note_off,,,,,80,0,13,,,,,6,,,61,100
127376,note_off,,,,,0,0,13,,,,,6,,,64,100
127376,note_off,,,,,80,0,10,,,,,3,,,67,100
127376,note_off,,,,,80,0,14,,,,,6,,,45,100
127376,note_off,,,,,80,0,11,,,,,4,,,45,100
127488,note_on,,,,,112,0,16,,,,,7,,,45,100
127488,note_on,,,,,112,0,10,,,,,3,,,66,98
127488,note_on,,,,,128,0,8,,,,,1,,,81,99
127488,note_on,,,,,0,0,13,,,,,6,,,69,100
127488,note_on,,,,,0,0,13,,,,,6,,,64,100
127488,note_on,,,,,112,0,13,,,,,6,,,61,100
127488,note_on,,,,,112,0,14,,,,,6,,,45,100
127488,note_on,,,,,112,0,12,,,,,5,,,33,99
127488,note_on,,,,,112,0,11,,,,,4,,,45,99
127488,note_on,,,,,112,0,9,,,,,2,,,69,99
127568,note_off,,,,,80,0,16,,,,,7,,,45,100
127568,note_off,,,,,80,0,13,,,,,6,,,61,100
127568,note_off,,,,,0,0,13,,,,,6,,,64,100
127568,note_off,,,,,80,0,9,,,,,2,,,69,100
127568,note_off,,,,,80,0,11,,,,,4,,,45,100
127568,note_off,,,,,0,0,13,,,,,6,,,69,100
127568,note_off,,,,,80,0,12,,,,,5,,,33,100
127568,note_off,,,,,80,0,14,,,,,6,,,45,100
127568,note_off,,,,,80,0,10,,,,,3,,,66,100
127680,note_on,,,,,0,0,13,,,,,6,,,64,100
127680,note_on,,,,,0,0,13,,,,,6,,,69,100
127680,note_on,,,,,112,0,12,,,,,5,,,33,100
127680,note_on,,,,,112,0,14,,,,,6,,,45,100
127680,note_on,,,,,112,0,9,,,,,2,,,67,97
127680,note_on,,,,,112,0,13,,,,,6,,,61,100
127680,note_on,,,,,112,0,10,,,,,3,,,64,96
127680,note_on,,,,,112,0,16,,,,,7,,,45,100
127680,note_on,,,,,112,0,11,,,,,4,,,45,100
127744,note_off,,,,,256,0,8,,,,,1,,,81,100
127756,note_off,,,,,0,0,15,,,,,7,,,73,100
127756,note_off,,,,,0,0,15,,,,,7,,,69,100
127756,note_off,,,,,1036,0,15,,,,,7,,,76,100
127760,note_off,,,,,0,0,13,,,,,6,,,69,100
127760,note_off,,,,,80,0,9,,,,,2,,,67,100
127760,note_off,,,,,80,0,10,,,,,3,,,64,100
127760,note_off,,,,,80,0,14,,,,,6,,,45,100
127760,note_off,,,,,0,0,13,,,,,6,,,64,100
127760,note_off,,,,,80,0,12,,,,,5,,,33,100
127760,note_off,,,,,80,0,16,,,,,7,,,45,100
127760,note_off,,,,,80,0,13,,,,,6,,,61,100
127760,note_off,,,,,80,0,11,,,,,4,,,45,100
127872,note_on,,,,,112,0,12,,,,,5,,,38,102
127872,note_on,,,,,128,0,8,,,,,1,,,81,102
127872,note_on,,,,,112,0,13,,,,,6,,,62,100
127872,note_on,,,,,112,0,10,,,,,3,,,66,102
127872,note_on,,,,,112,0,9,,,,,2,,,66,95
127872,note_on,,,,,0,0,13,,,,,6,,,69,100
127872,note_on,,,,,112,0,14,,,,,6,,,50,100
127872,note_on,,,,,0,0,15,,,,,7,,,69,100
127872,note_on,,,,,0,0,15,,,,,7,,,74,100
127872,note_on,,,,,112,0,11,,,,,4,,,50,102
127872,note_on,,,,,116,0,15,,,,,7,,,66,100
127872,note_on,,,,,112,0,16,,,,,7,,,50,100
127872,note_on,,,,,0,0,13,,,,,6,,,66,100
128060,note_off,,,,,188,0,10,,,,,3,,,66,100
128060,note_off,,,,,188,0,8,,,,,1,,,81,100
128064,note_on,,,,,4,0,10,,,,,3,,,64,101
128064,note_on,,,,,4,0,8,,,,,1,,,79,101
128128,note_off,,,,,256,0,13,,,,,6,,,62,100
128128,note_off,,,,,256,0,14,,,,,6,,,50,100
128128,note_off,,,,,0,0,13,,,,,6,,,66,100
128128,note_off,,,,,256,0,11,,,,,4,,,50,100
128128,note_off,,,,,256,0,12,,,,,5,,,38,100
128128,note_off,,,,,0,0,13,,,,,6,,,69,100
128128,note_off,,,,,256,0,16,,,,,7,,,50,100
128252,note_off,,,,,380,0,9,,,,,2,,,66,100
128252,note_off,,,,,188,0,8,,,,,1,,,79,100
128252,note_off,,,,,188,0,10,,,,,3,,,64,100
128256,note_on,,,,,4,0,9,,,,,2,,,69,97
128256,note_on,,,,,4,0,10,,,,,3,,,62,99
128256,note_on,,,,,4,0,8,,,,,1,,,78,99
128356,note_off,,,,,100,0,10,,,,,3,,,62,100
128356,note_off,,,,,100,0,8,,,,,1,,,78,100
128448,note_on,,,,,0,0,13,,,,,6,,,69,100
128448,note_on,,,,,320,0,12,,,,,5,,,38,98
128448,note_on,,,,,0,0,13,,,,,6,,,66,100
128448,note_on,,,,,320,0,14,,,,,6,,,50,100
128448,note_on,,,,,320,0,13,,,,,6,,,62,100
128448,note_on,,,,,92,0,8,,,,,1,,,76,98
128448,note_on,,,,,320,0,16,,,,,7,,,50,100
128448,note_on,,,,,92,0,10,,,,,3,,,61,98
128448,note_on,,,,,320,0,11,,,,,4,,,50,98
128512,note_off,,,,,256,0,9,,,,,2,,,69,100
128528,note_off,,,,,80,0,11,,,,,4,,,50,100
128528,note_off,,,,,80,0,16,,,,,7,,,50,100
128528,note_off,,,,,80,0,14,,,,,6,,,50,100
128528,note_off,,,,,0,0,13,,,,,6,,,66,100
128528,note_off,,,,,80,0,10,,,,,3,,,61,100
128528,note_off,,,,,80,0,12,,,,,5,,,38,100
128528,note_off,,,,,0,0,13,,,,,6,,,69,100
128528,note_off,,,,,80,0,8,,,,,1,,,76,100
128528,note_off,,,,,80,0,13,,,,,6,,,62,100
128640,note_on,,,,,112,0,10,,,,,3,,,59,96
128640,note_on,,,,,112,0,14,,,,,6,,,50,100
128640,note_on,,,,,128,0,9,,,,,2,,,74,99
128640,note_on,,,,,0,0,13,,,,,6,,,69,100
128640,note_on,,,,,112,0,13,,,,,6,,,62,100
128640,note_on,,,,,0,0,13,,,,,6,,,66,100
128640,note_on,,,,,112,0,16,,,,,7,,,50,100
128640,note_on,,,,,112,0,12,,,,,5,,,38,96
128640,note_on,,,,,112,0,8,,,,,1,,,74,96
128640,note_on,,,,,112,0,11,,,,,4,,,50,96
128720,note_off,,,,,80,0,8,,,,,1,,,74,100
128720,note_off,,,,,80,0,11,,,,,4,,,50,100
128720,note_off,,,,,80,0,16,,,,,7,,,50,100
128720,note_off,,,,,80,0,13,,,,,6,,,62,100
128720,note_off,,,,,0,0,13,,,,,6,,,66,100
128720,note_off,,,,,0,0,13,,,,,6,,,69,100
128720,note_off,,,,,80,0,14,,,,,6,,,50,100
128720,note_off,,,,,80,0,10,,,,,3,,,59,100
128720,note_off,,,,,80,0,12,,,,,5,,,38,100
128832,note_on,,,,,112,0,10,,,,,3,,,57,94
128832,note_on,,,,,112,0,11,,,,,4,,,50,94
128832,note_on,,,,,0,0,13,,,,,6,,,66,100
128832,note_on,,,,,112,0,14,,,,,6,,,50,100
128832,note_on,,,,,0,0,13,,,,,6,,,69,100
128832,note_on,,,,,112,0,16,,,,,7,,,50,100
128832,note_on,,,,,112,0,12,,,,,5,,,38,94
128832,note_on,,,,,112,0,13,,,,,6,,,62,100
128832,note_on,,,,,112,0,8,,,,,1,,,73,94
128896,note_off,,,,,256,0,9,,,,,2,,,74,100
128908,note_off,,,,,1036,0,15,,,,,7,,,66,100
128908,note_off,,,,,0,0,15,,,,,7,,,69,100
128912,note_off,,,,,0,0,13,,,,,6,,,69,100
128912,note_off,,,,,80,0,10,,,,,3,,,57,100
128912,note_off,,,,,0,0,13,,,,,6,,,66,100
128912,note_off,,,,,80,0,11,,,,,4,,,50,100
128912,note_off,,,,,80,0,13,,,,,6,,,62,100
128912,note_off,,,,,80,0,16,,,,,7,,,50,100
128912,note_off,,,,,80,0,8,,,,,1,,,73,100
128912,note_off,,,,,80,0,12,,,,,5,,,38,100
128912,note_off,,,,,80,0,14,,,,,6,,,50,100
129024,note_on,,,,,112,0,10,,,,,3,,,71,102
129024,note_on,,,,,112,0,16,,,,,7,,,55,100
129024,note_on,,,,,116,0,15,,,,,7,,,67,100
129024,note_on,,,,,112,0,8,,,,,1,,,71,92
129024,note_on,,,,,0,0,13,,,,,6,,,67,100
129024,note_on,,,,,0,0,13,,,,,6,,,59,100
129024,note_on,,,,,112,0,13,,,,,6,,,62,100
129024,note_on,,,,,112,0,12,,,,,5,,,43,92
129024,note_on,,,,,0,0,15,,,,,7,,,71,100
129024,note_on,,,,,112,0,14,,,,,6,,,55,100
129024,note_on,,,,,112,0,11,,,,,4,,,55,92
129024,note_on,,,,,128,0,9,,,,,2,,,74,102
129212,note_off,,,,,188,0,10,,,,,3,,,71,100
129212,note_off,,,,,188,0,9,,,,,2,,,74,100
129216,note_on,,,,,4,0,10,,,,,3,,,69,101
129216,note_on,,,,,4,0,9,,,,,2,,,73,101
129280,note_off,,,,,0,0,13,,,,,6,,,59,100
129280,note_off,,,,,256,0,13,,,,,6,,,62,100
129280,note_off,,,,,0,0,13,,,,,6,,,67,100
129280,note_off,,,,,256,0,16,,,,,7,,,55,100
129280,note_off,,,,,256,0,14,,,,,6,,,55,100
129280,note_off,,,,,256,0,12,,,,,5,,,43,100
129280,note_off,,,,,256,0,11,,,,,4,,,55,100
129404,note_off,,,,,380,0,8,,,,,1,,,71,100
129404,note_off,,,,,188,0,9,,,,,2,,,73,100
129404,note_off,,,,,188,0,10,,,,,3,,,69,100
129408,note_on,,,,,4,0,8,,,,,1,,,74,94
129408,note_on,,,,,4,0,9,,,,,2,,,71,99
129408,note_on,,,,,4,0,10,,,,,3,,,67,99
129508,note_off,,,,,100,0,9,,,,,2,,,71,100
129508,note_off,,,,,100,0,10,,,,,3,,,67,100
129600,note_on,,,,,320,0,12,,,,,5,,,43,95
129600,note_on,,,,,0,0,13,,,,,6,,,59,100
129600,note_on,,,,,0,0,13,,,,,6,,,67,100
129600,note_on,,,,,320,0,11,,,,,4,,,55,95
129600,note_on,,,,,320,0,13,,,,,6,,,62,100
129600,note_on,,,,,92,0,9,,,,,2,,,69,97
129600,note_on,,,,,92,0,10,,,,,3,,,66,97
129600,note_on,,,,,320,0,14,,,,,6,,,55,100
129600,note_on,,,,,320,0,16,,,,,7,,,55,100
129664,note_off,,,,,256,0,8,,,,,1,,,74,100
129680,note_off,,,,,80,0,14,,,,,6,,,55,100
129680,note_off,,,,,80,0,11,,,,,4,,,55,100
129680,note_off,,,,,80,0,16,,,,,7,,,55,100
129680,note_off,,,,,80,0,12,,,,,5,,,43,100
129680,note_off,,,,,0,0,13,,,,,6,,,67,100
129680,note_off,,,,,0,0,13,,,,,6,,,59,100
129680,note_off,,,,,80,0,13,,,,,6,,,62,100
129680,note_off,,,,,80,0,10,,,,,3,,,66,100
129680,note_off,,,,,80,0,9,,,,,2,,,69,100
129792,note_on,,,,,128,0,8,,,,,1,,,79,97
129792,note_on,,,,,112,0,12,,,,,5,,,43,97
129792,note_on,,,,,0,0,13,,,,,6,,,59,100
129792,note_on,,,,,112,0,13,,,,,6,,,62,100
129792,note_on,,,,,112,0,9,,,,,2,,,67,95
129792,note_on,,,,,112,0,11,,,,,4,,,55,97
129792,note_on,,,,,0,0,13,,,,,6,,,67,100
129792,note_on,,,,,112,0,14,,,,,6,,,55,100
129792,note_on,,,,,112,0,16,,,,,7,,,55,100
129792,note_on,,,,,112,0,10,,,,,3,,,64,95
129872,note_off,,,,,80,0,13,,,,,6,,,62,100
129872,note_off,,,,,0,0,13,,,,,6,,,59,100
129872,note_off,,,,,0,0,13,,,,,6,,,67,100
129872,note_off,,,,,80,0,14,,,,,6,,,55,100
129872,note_off,,,,,80,0,12,,,,,5,,,43,100
129872,note_off,,,,,80,0,9,,,,,2,,,67,100
129872,note_off,,,,,80,0,10,,,,,3,,,64,100
129872,note_off,,,,,80,0,11,,,,,4,,,55,100
129872,note_off,,,,,80,0,16,,,,,7,,,55,100
129984,note_on,,,,,112,0,9,,,,,2,,,66,93
129984,note_on,,,,,112,0,10,,,,,3,,,62,93
129984,note_on,,,,,112,0,13,,,,,6,,,62,100
129984,note_on,,,,,112,0,12,,,,,5,,,43,98
129984,note_on,,,,,0,0,13,,,,,6,,,67,100
129984,note_on,,,,,0,0,13,,,,,6,,,59,100
129984,note_on,,,,,112,0,11,,,,,4,,,55,98
129984,note_on,,,,,112,0,16,,,,,7,,,55,100
129984,note_on,,,,,112,0,14,,,,,6,,,55,100
130048,note_off,,,,,256,0,8,,,,,1,,,79,100
130060,note_off,,,,,0,0,15,,,,,7,,,71,100
130060,note_off,,,,,0,0,15,,,,,7,,,67,100
130060,note_off,,,,,1036,0,15,,,,,7,,,74,100
130064,note_off,,,,,80,0,12,,,,,5,,,43,100
130064,note_off,,,,,80,0,14,,,,,6,,,55,100
130064,note_off,,,,,80,0,11,,,,,4,,,55,100
130064,note_off,,,,,0,0,13,,,,,6,,,67,100
130064,note_off,,,,,80,0,13,,,,,6,,,62,100
130064,note_off,,,,,0,0,13,,,,,6,,,59,100
130064,note_off,,,,,80,0,9,,,,,2,,,66,100
130064,note_off,,,,,80,0,16,,,,,7,,,55,100
130064,note_off,,,,,80,0,10,,,,,3,,,62,100
130176,note_on,,,,,112,0,13,,,,,6,,,67,100
130176,note_on,,,,,0,0,13,,,,,6,,,64,100
130176,note_on,,,,,112,0,11,,,,,4,,,52,100
130176,note_on,,,,,0,0,13,,,,,6,,,59,100
130176,note_on,,,,,116,0,15,,,,,7,,,76,100
130176,note_on,,,,,112,0,10,,,,,3,,,64,100
130176,note_on,,,,,0,0,15,,,,,7,,,67,100
130176,note_on,,,,,0,0,15,,,,,7,,,71,100
130176,note_on,,,,,112,0,12,,,,,5,,,40,100
130176,note_on,,,,,112,0,16,,,,,7,,,52,100
130176,note_on,,,,,128,0,8,,,,,1,,,83,100
130176,note_on,,,,,112,0,14,,,,,6,,,52,100
130176,note_on,,,,,112,0,9,,,,,2,,,79,100
130364,note_off,,,,,188,0,8,,,,,1,,,83,100
130364,note_off,,,,,188,0,9,,,,,2,,,79,100
130368,note_on,,,,,4,0,8,,,,,1,,,81,99
130368,note_on,,,,,4,0,9,,,,,2,,,78,99
130432,note_off,,,,,256,0,12,,,,,5,,,40,100
130432,note_off,,,,,256,0,11,,,,,4,,,52,100
130432,note_off,,,,,0,0,13,,,,,6,,,59,100
130432,note_off,,,,,256,0,14,,,,,6,,,52,100
130432,note_off,,,,,256,0,13,,,,,6,,,67,100
130432,note_off,,,,,256,0,10,,,,,3,,,64,100
130432,note_off,,,,,0,0,13,,,,,6,,,64,100
130432,note_off,,,,,256,0,16,,,,,7,,,52,100
130556,note_off,,,,,188,0,9,,,,,2,,,78,100
130556,note_off,,,,,188,0,8,,,,,1,,,81,100
130560,note_on,,,,,4,0,8,,,,,1,,,79,98
130560,note_on,,,,,4,0,9,,,,,2,,,76,98
130660,note_off,,,,,100,0,9,,,,,2,,,76,100
130660,note_off,,,,,100,0,8,,,,,1,,,79,100
130752,note_on,,,,,320,0,14,,,,,6,,,52,100
130752,note_on,,,,,320,0,10,,,,,3,,,64,97
130752,note_on,,,,,320,0,11,,,,,4,,,52,97
130752,note_on,,,,,320,0,13,,,,,6,,,67,100
130752,note_on,,,,,92,0,8,,,,,1,,,78,97
130752,note_on,,,,,0,0,13,,,,,6,,,64,100
130752,note_on,,,,,0,0,13,,,,,6,,,59,100
130752,note_on,,,,,92,0,9,,,,,2,,,74,97
130752,note_on,,,,,320,0,16,,,,,7,,,52,100
130752,note_on,,,,,320,0,12,,,,,5,,,40,97
130832,note_off,,,,,80,0,9,,,,,2,,,74,100
130832,note_off,,,,,0,0,13,,,,,6,,,59,100
130832,note_off,,,,,80,0,14,,,,,6,,,52,100
130832,note_off,,,,,0,0,13,,,,,6,,,64,100
130832,note_off,,,,,80,0,11,,,,,4,,,52,100
130832,note_off,,,,,80,0,12,,,,,5,,,40,100
130832,note_off,,,,,80,0,16,,,,,7,,,52,100
130832,note_off,,,,,80,0,13,,,,,6,,,67,100
130832,note_off,,,,,80,0,8,,,,,1,,,78,100
130832,note_off,,,,,80,0,10,,,,,3,,,64,100
130944,note_on,,,,,112,0,8,,,,,1,,,76,96
130944,note_on,,,,,112,0,14,,,,,6,,,52,100
130944,note_on,,,,,112,0,16,,,,,7,,,52,100
130944,note_on,,,,,112,0,11,,,,,4,,,52,96
130944,note_on,,,,,112,0,10,,,,,3,,,64,96
130944,note_on,,,,,112,0,13,,,,,6,,,67,100
130944,note_on,,,,,0,0,13,,,,,6,,,64,100
130944,note_on,,,,,0,0,13,,,,,6,,,59,100
130944,note_on,,,,,112,0,9,,,,,2,,,73,96
130944,note_on,,,,,112,0,12,,,,,5,,,40,96
131024,note_off,,,,,80,0,10,,,,,3,,,64,100
131024,note_off,,,,,80,0,8,,,,,1,,,76,100
131024,note_off,,,,,80,0,11,,,,,4,,,52,100
131024,note_off,,,,,80,0,16,,,,,7,,,52,100
131024,note_off,,,,,80,0,9,,,,,2,,,73,100
131024,note_off,,,,,0,0,13,,,,,6,,,64,100
131024,note_off,,,,,0,0,13,,,,,6,,,59,100
131024,note_off,,,,,80,0,12,,,,,5,,,40,100
131024,note_off,,,,,80,0,13,,,,,6,,,67,100
131024,note_off,,,,,80,0,14,,,,,6,,,52,100
131136,note_on,,,,,112,0,16,,,,,7,,,52,100
131136,note_on,,,,,112,0,10,,,,,3,,,64,95
131136,note_on,,,,,112,0,9,,,,,2,,,71,95
131136,note_on,,,,,112,0,11,,,,,4,,,52,95
131136,note_on,,,,,112,0,13,,,,,6,,,67,100
131136,note_on,,,,,112,0,12,,,,,5,,,40,95
131136,note_on,,,,,0,0,13,,,,,6,,,59,100
131136,note_on,,,,,112,0,8,,,,,1,,,74,95
131136,note_on,,,,,112,0,14,,,,,6,,,52,100
131136,note_on,,,,,0,0,13,,,,,6,,,64,100
131212,note_off,,,,,0,0,15,,,,,7,,,67,100
131212,note_off,,,,,1036,0,15,,,,,7,,,76,100
131212,note_off,,,,,0,0,15,,,,,7,,,71,100
131216,note_off,,,,,80,0,8,,,,,1,,,74,100
131216,note_off,,,,,80,0,9,,,,,2,,,71,100
131216,note_off,,,,,80,0,11,,,,,4,,,52,100
131216,note_off,,,,,80,0,10,,,,,3,,,64,100
131216,note_off,,,,,80,0,16,,,,,7,,,52,100
131216,note_off,,,,,0,0,13,,,,,6,,,59,100
131216,note_off,,,,,80,0,13,,,,,6,,,67,100
131216,note_off,,,,,0,0,13,,,,,6,,,64,100
131216,note_off,,,,,80,0,14,,,,,6,,,52,100
131216,note_off,,,,,80,0,12,,,,,5,,,40,100
131328,note_on,,,,,112,0,11,,,,,4,,,57,95
131328,note_on,,,,,116,0,15,,,,,7,,,69,100
131328,note_on,,,,,112,0,8,,,,,1,,,76,95
131328,note_on,,,,,0,0,15,,,,,7,,,73,100
131328,note_on,,,,,112,0,12,,,,,5,,,45,95
131328,note_on,,,,,112,0,14,,,,,6,,,57,100
131328,note_on,,,,,112,0,10,,,,,3,,,64,95
131328,note_on,,,,,112,0,9,,,,,2,,,73,95
131328,note_on,,,,,0,0,13,,,,,6,,,64,100
131328,note_on,,,,,0,0,13,,,,,6,,,61,100
131328,note_on,,,,,112,0,16,,,,,7,,,57,100
131328,note_on,,,,,112,0,13,,,,,6,,,69,100
131328,note_on,,,,,0,0,15,,,,,7,,,76,100
131408,note_off,,,,,80,0,9,,,,,2,,,73,100
131408,note_off,,,,,80,0,8,,,,,1,,,76,100
131520,note_on,,,,,112,0,9,,,,,2,,,69,92
131520,note_on,,,,,112,0,8,,,,,1,,,73,92
131584,note_off,,,,,256,0,12,,,,,5,,,45,100
131584,note_off,,,,,256,0,10,,,,,3,,,64,100
131584,note_off,,,,,256,0,14,,,,,6,,,57,100
131584,note_off,,,,,256,0,13,,,,,6,,,69,100
131584,note_off,,,,,0,0,13,,,,,6,,,61,100
131584,note_off,,,,,256,0,16,,,,,7,,,57,100
131584,note_off,,,,,256,0,11,,,,,4,,,57,100
131584,note_off,,,,,0,0,13,,,,,6,,,64,100
131600,note_off,,,,,80,0,9,,,,,2,,,69,100
131600,note_off,,,,,80,0,8,,,,,1,,,73,100
131712,note_on,,,,,112,0,8,,,,,1,,,76,93
131712,note_on,,,,,112,0,9,,,,,2,,,73,93
131792,note_off,,,,,80,0,8,,,,,1,,,76,100
131792,note_off,,,,,80,0,9,,,,,2,,,73,100
131904,note_on,,,,,0,0,13,,,,,6,,,61,100
131904,note_on,,,,,320,0,12,,,,,5,,,45,95
131904,note_on,,,,,112,0,8,,,,,1,,,81,95
131904,note_on,,,,,320,0,14,,,,,6,,,57,100
131904,note_on,,,,,320,0,16,,,,,7,,,57,100
131904,note_on,,,,,320,0,13,,,,,6,,,69,100
131904,note_on,,,,,320,0,11,,,,,4,,,57,95
131904,note_on,,,,,320,0,10,,,,,3,,,64,95
131904,note_on,,,,,0,0,13,,,,,6,,,64,100
131904,note_on,,,,,112,0,9,,,,,2,,,76,95
131984,note_off,,,,,80,0,9,,,,,2,,,76,100
131984,note_off,,,,,80,0,12,,,,,5,,,45,100
131984,note_off,,,,,80,0,13,,,,,6,,,69,100
131984,note_off,,,,,0,0,13,,,,,6,,,61,100
131984,note_off,,,,,0,0,13,,,,,6,,,64,100
131984,note_off,,,,,80,0,8,,,,,1,,,81,100
131984,note_off,,,,,80,0,14,,,,,6,,,57,100
131984,note_off,,,,,80,0,16,,,,,7,,,57,100
131984,note_off,,,,,80,0,10,,,,,3,,,64,100
131984,note_off,,,,,80,0,11,,,,,4,,,57,100
132096,note_on,,,,,112,0,13,,,,,6,,,69,100
132096,note_on,,,,,0,0,13,,,,,6,,,61,100
132096,note_on,,,,,112,0,10,,,,,3,,,69,97
132096,note_on,,,,,0,0,13,,,,,6,,,64,100
132096,note_on,,,,,112,0,11,,,,,4,,,55,97
132096,note_on,,,,,112,0,14,,,,,6,,,55,100
132096,note_on,,,,,112,0,16,,,,,7,,,55,100
132096,note_on,,,,,112,0,9,,,,,2,,,73,97
132096,note_on,,,,,768,0,15,,,,,7,,,67,100
132096,note_on,,,,,112,0,8,,,,,1,,,76,97
132096,note_on,,,,,112,0,12,,,,,5,,,43,97
132176,note_off,,,,,80,0,8,,,,,1,,,76,100
132176,note_off,,,,,80,0,9,,,,,2,,,73,100
132176,note_off,,,,,80,0,14,,,,,6,,,55,100
132176,note_off,,,,,0,0,13,,,,,6,,,64,100
132176,note_off,,,,,80,0,12,,,,,5,,,43,100
132176,note_off,,,,,0,0,13,,,,,6,,,61,100
132176,note_off,,,,,80,0,13,,,,,6,,,69,100
132176,note_off,,,,,80,0,16,,,,,7,,,55,100
132176,note_off,,,,,80,0,11,,,,,4,,,55,100
132176,note_off,,,,,80,0,10,,,,,3,,,69,100
132288,note_on,,,,,112,0,13,,,,,6,,,69,100
132288,note_on,,,,,0,0,13,,,,,6,,,64,100
132288,note_on,,,,,112,0,14,,,,,6,,,55,100
132288,note_on,,,,,112,0,9,,,,,2,,,69,99
132288,note_on,,,,,112,0,11,,,,,4,,,55,99
132288,note_on,,,,,112,0,8,,,,,1,,,73,99
132288,note_on,,,,,0,0,13,,,,,6,,,61,100
132288,note_on,,,,,112,0,16,,,,,7,,,55,100
132288,note_on,,,,,112,0,10,,,,,3,,,69,99
132288,note_on,,,,,112,0,12,,,,,5,,,43,99
132352,note_off,,,,,256,0,15,,,,,7,,,67,100
132364,note_off,,,,,0,0,15,,,,,7,,,76,100
132364,note_off,,,,,12,0,15,,,,,7,,,69,100
132364,note_off,,,,,0,0,15,,,,,7,,,73,100
132368,note_off,,,,,80,0,12,,,,,5,,,43,100
132368,note_off,,,,,80,0,16,,,,,7,,,55,100
132368,note_off,,,,,80,0,8,,,,,1,,,73,100
132368,note_off,,,,,80,0,11,,,,,4,,,55,100
132368,note_off,,,,,80,0,10,,,,,3,,,69,100
132368,note_off,,,,,0,0,13,,,,,6,,,61,100
132368,note_off,,,,,0,0,13,,,,,6,,,64,100
132368,note_off,,,,,80,0,13,,,,,6,,,69,100
132368,note_off,,,,,80,0,14,,,,,6,,,55,100
132368,note_off,,,,,80,0,9,,,,,2,,,69,100
132480,note_on,,,,,0,0,13,,,,,6,,,66,100
132480,note_on,,,,,112,0,12,,,,,5,,,42,100
132480,note_on,,,,,112,0,8,,,,,1,,,78,100
132480,note_on,,,,,112,0,11,,,,,4,,,54,100
132480,note_on,,,,,112,0,16,,,,,7,,,54,100
132480,note_on,,,,,0,0,13,,,,,6,,,69,100
132480,note_on,,,,,112,0,9,,,,,2,,,74,100
132480,note_on,,,,,112,0,10,,,,,3,,,69,100
132480,note_on,,,,,0,0,15,,,,,7,,,66,100
132480,note_on,,,,,0,0,15,,,,,7,,,74,100
132480,note_on,,,,,116,0,15,,,,,7,,,69,100
132480,note_on,,,,,112,0,14,,,,,6,,,54,100
132480,note_on,,,,,112,0,13,,,,,6,,,62,100
132668,note_off,,,,,188,0,8,,,,,1,,,78,100
132668,note_off,,,,,188,0,9,,,,,2,,,74,100
132672,note_on,,,,,4,0,9,,,,,2,,,69,100
132672,note_on,,,,,4,0,8,,,,,1,,,74,100
132736,note_off,,,,,256,0,10,,,,,3,,,69,100
132736,note_off,,,,,256,0,13,,,,,6,,,62,100
132736,note_off,,,,,256,0,11,,,,,4,,,54,100
132736,note_off,,,,,256,0,12,,,,,5,,,42,100
132736,note_off,,,,,0,0,13,,,,,6,,,66,100
132736,note_off,,,,,0,0,13,,,,,6,,,69,100
132736,note_off,,,,,256,0,16,,,,,7,,,54,100
132736,note_off,,,,,256,0,14,,,,,6,,,54,100
132860,note_off,,,,,188,0,9,,,,,2,,,69,100
132860,note_off,,,,,188,0,8,,,,,1,,,74,100
132864,note_on,,,,,4,0,8,,,,,1,,,69,100
132864,note_on,,,,,4,0,9,,,,,2,,,66,100
132964,note_off,,,,,100,0,8,,,,,1,,,69,100
132964,note_off,,,,,100,0,9,,,,,2,,,66,100
133056,note_on,,,,,320,0,16,,,,,7,,,54,100
133056,note_on,,,,,92,0,9,,,,,2,,,69,100
133056,note_on,,,,,0,0,13,,,,,6,,,69,100
133056,note_on,,,,,0,0,13,,,,,6,,,66,100
133056,note_on,,,,,320,0,13,,,,,6,,,74,100
133056,note_on,,,,,320,0,10,,,,,3,,,69,100
133056,note_on,,,,,320,0,11,,,,,4,,,54,100
133056,note_on,,,,,92,0,8,,,,,1,,,74,100
133056,note_on,,,,,320,0,12,,,,,5,,,42,100
133056,note_on,,,,,320,0,14,,,,,6,,,54,100
133136,note_off,,,,,80,0,8,,,,,1,,,74,100
133136,note_off,,,,,80,0,9,,,,,2,,,69,100
133136,note_off,,,,,0,0,13,,,,,6,,,69,100
133136,note_off,,,,,0,0,13,,,,,6,,,66,100
133136,note_off,,,,,80,0,14,,,,,6,,,54,100
133136,note_off,,,,,80,0,16,,,,,7,,,54,100
133136,note_off,,,,,80,0,10,,,,,3,,,69,100
133136,note_off,,,,,80,0,12,,,,,5,,,42,100
133136,note_off,,,,,80,0,11,,,,,4,,,54,100
133136,note_off,,,,,80,0,13,,,,,6,,,74,100
133248,note_on,,,,,112,0,14,,,,,6,,,50,100
133248,note_on,,,,,112,0,9,,,,,2,,,74,100
133248,note_on,,,,,112,0,8,,,,,1,,,78,100
133248,note_on,,,,,112,0,12,,,,,5,,,38,100
133248,note_on,,,,,112,0,16,,,,,7,,,50,100
133248,note_on,,,,,112,0,11,,,,,4,,,50,100
133248,note_on,,,,,112,0,10,,,,,3,,,69,100
133248,note_on,,,,,112,0,13,,,,,6,,,74,100
133248,note_on,,,,,0,0,13,,,,,6,,,66,100
133248,note_on,,,,,0,0,13,,,,,6,,,69,100
133328,note_off,,,,,0,0,13,,,,,6,,,66,100
133328,note_off,,,,,80,0,9,,,,,2,,,74,100
133328,note_off,,,,,80,0,16,,,,,7,,,50,100
133328,note_off,,,,,80,0,14,,,,,6,,,50,100
133328,note_off,,,,,80,0,10,,,,,3,,,69,100
133328,note_off,,,,,80,0,13,,,,,6,,,74,100
133328,note_off,,,,,80,0,11,,,,,4,,,50,100
133328,note_off,,,,,80,0,12,,,,,5,,,38,100
133328,note_off,,,,,0,0,13,,,,,6,,,69,100
133328,note_off,,,,,80,0,8,,,,,1,,,78,100
133440,note_on,,,,,112,0,11,,,,,4,,,50,100
133440,note_on,,,,,112,0,16,,,,,7,,,50,100
133440,note_on,,,,,112,0,12,,,,,5,,,38,100
133440,note_on,,,,,0,0,13,,,,,6,,,69,100
133440,note_on,,,,,0,0,13,,,,,6,,,66,100
133440,note_on,,,,,112,0,13,,,,,6,,,74,100
133440,note_on,,,,,112,0,10,,,,,3,,,69,100
133440,note_on,,,,,112,0,9,,,,,2,,,78,100
133440,note_on,,,,,112,0,8,,,,,1,,,81,100
133440,note_on,,,,,112,0,14,,,,,6,,,50,100
133516,note_off,,,,,1036,0,15,,,,,7,,,66,100
133520,note_off,,,,,80,0,16,,,,,7,,,50,100
133520,note_off,,,,,0,0,13,,,,,6,,,66,100
133520,note_off,,,,,0,0,13,,,,,6,,,69,100
133520,note_off,,,,,80,0,13,,,,,6,,,74,100
133520,note_off,,,,,80,0,9,,,,,2,,,78,100
133520,note_off,,,,,80,0,14,,,,,6,,,50,100
133520,note_off,,,,,80,0,10,,,,,3,,,69,100
133520,note_off,,,,,80,0,12,,,,,5,,,38,100
133520,note_off,,,,,80,0,11,,,,,4,,,50,100
133520,note_off,,,,,80,0,8,,,,,1,,,81,100
133632,note_on,,,,,112,0,12,,,,,5,,,45,100
133632,note_on,,,,,112,0,16,,,,,7,,,57,100
133632,note_on,,,,,112,0,9,,,,,2,,,74,100
133632,note_on,,,,,112,0,10,,,,,3,,,69,100
133632,note_on,,,,,116,0,15,,,,,7,,,64,100
133632,note_on,,,,,112,0,8,,,,,1,,,76,100
133632,note_on,,,,,112,0,13,,,,,6,,,64,100
133632,note_on,,,,,0,0,13,,,,,6,,,74,100
133632,note_on,,,,,0,0,13,,,,,6,,,69,100
133632,note_on,,,,,112,0,11,,,,,4,,,57,100
133632,note_on,,,,,112,0,14,,,,,6,,,57,100
133820,note_off,,,,,188,0,8,,,,,1,,,76,100
133820,note_off,,,,,188,0,9,,,,,2,,,74,100
133824,note_on,,,,,4,0,9,,,,,2,,,69,100
133824,note_on,,,,,4,0,8,,,,,1,,,74,100
133888,note_off,,,,,256,0,10,,,,,3,,,69,100
133888,note_off,,,,,256,0,14,,,,,6,,,57,100
133888,note_off,,,,,256,0,13,,,,,6,,,64,100
133888,note_off,,,,,0,0,13,,,,,6,,,74,100
133888,note_off,,,,,0,0,13,,,,,6,,,69,100
133888,note_off,,,,,256,0,11,,,,,4,,,57,100
133888,note_off,,,,,256,0,16,,,,,7,,,57,100
133888,note_off,,,,,256,0,12,,,,,5,,,45,100
134012,note_off,,,,,188,0,8,,,,,1,,,74,100
134012,note_off,,,,,188,0,9,,,,,2,,,69,100
134016,note_on,,,,,4,0,9,,,,,2,,,64,100
134016,note_on,,,,,4,0,8,,,,,1,,,69,100
134116,note_off,,,,,100,0,8,,,,,1,,,69,100
134116,note_off,,,,,100,0,9,,,,,2,,,64,100
134208,note_on,,,,,320,0,16,,,,,7,,,57,100
134208,note_on,,,,,92,0,9,,,,,2,,,69,100
134208,note_on,,,,,320,0,11,,,,,4,,,57,100
134208,note_on,,,,,320,0,14,,,,,6,,,57,100
134208,note_on,,,,,320,0,10,,,,,3,,,69,100
134208,note_on,,,,,320,0,13,,,,,6,,,64,100
134208,note_on,,,,,0,0,13,,,,,6,,,74,100
134208,note_on,,,,,0,0,13,,,,,6,,,69,100
134208,note_on,,,,,92,0,8,,,,,1,,,74,100
134208,note_on,,,,,320,0,12,,,,,5,,,45,100
134288,note_off,,,,,80,0,12,,,,,5,,,45,100
134288,note_off,,,,,80,0,9,,,,,2,,,69,100
134288,note_off,,,,,80,0,8,,,,,1,,,74,100
134288,note_off,,,,,80,0,16,,,,,7,,,57,100
134288,note_off,,,,,80,0,11,,,,,4,,,57,100
134288,note_off,,,,,0,0,13,,,,,6,,,74,100
134288,note_off,,,,,80,0,13,,,,,6,,,64,100
134288,note_off,,,,,80,0,10,,,,,3,,,69,100
134288,note_off,,,,,80,0,14,,,,,6,,,57,100
134288,note_off,,,,,0,0,13,,,,,6,,,69,100
134400,note_on,,,,,112,0,9,,,,,2,,,74,100
134400,note_on,,,,,112,0,10,,,,,3,,,69,100
134400,note_on,,,,,112,0,11,,,,,4,,,57,100
134400,note_on,,,,,112,0,14,,,,,6,,,57,100
134400,note_on,,,,,112,0,8,,,,,1,,,76,100
134400,note_on,,,,,112,0,12,,,,,5,,,45,100
134400,note_on,,,,,0,0,13,,,,,6,,,74,100
134400,note_on,,,,,0,0,13,,,,,6,,,69,100
134400,note_on,,,,,112,0,16,,,,,7,,,57,100
134400,note_on,,,,,112,0,13,,,,,6,,,64,100
134480,note_off,,,,,80,0,11,,,,,4,,,57,100
134480,note_off,,,,,80,0,8,,,,,1,,,76,100
134480,note_off,,,,,80,0,12,,,,,5,,,45,100
134480,note_off,,,,,0,0,13,,,,,6,,,74,100
134480,note_off,,,,,80,0,9,,,,,2,,,74,100
134480,note_off,,,,,80,0,10,,,,,3,,,69,100
134480,note_off,,,,,80,0,14,,,,,6,,,57,100
134480,note_off,,,,,80,0,16,,,,,7,,,57,100
134480,note_off,,,,,80,0,13,,,,,6,,,64,100
134480,note_off,,,,,0,0,13,,,,,6,,,69,100
134592,note_on,,,,,112,0,10,,,,,3,,,69,100
134592,note_on,,,,,112,0,12,,,,,5,,,45,100
134592,note_on,,,,,112,0,9,,,,,2,,,76,100
134592,note_on,,,,,112,0,14,,,,,6,,,57,100
134592,note_on,,,,,112,0,11,,,,,4,,,57,100
134592,note_on,,,,,112,0,13,,,,,6,,,64,100
134592,note_on,,,,,0,0,13,,,,,6,,,74,100
134592,note_on,,,,,0,0,13,,,,,6,,,69,100
134592,note_on,,,,,112,0,8,,,,,1,,,81,100
134592,note_on,,,,,112,0,16,,,,,7,,,57,100
134668,note_off,,,,,1036,0,15,,,,,7,,,74,100
134672,note_off,,,,,80,0,12,,,,,5,,,45,100
134672,note_off,,,,,80,0,10,,,,,3,,,69,100
134672,note_off,,,,,80,0,14,,,,,6,,,57,100
134672,note_off,,,,,0,0,13,,,,,6,,,74,100
134672,note_off,,,,,80,0,9,,,,,2,,,76,100
134672,note_off,,,,,80,0,8,,,,,1,,,81,100
134672,note_off,,,,,80,0,13,,,,,6,,,64,100
134672,note_off,,,,,80,0,16,,,,,7,,,57,100
134672,note_off,,,,,0,0,13,,,,,6,,,69,100
134672,note_off,,,,,80,0,11,,,,,4,,,57,100
134784,note_on,,,,,112,0,16,,,,,7,,,45,100
134784,note_on,,,,,112,0,14,,,,,6,,,45,100
134784,note_on,,,,,112,0,10,,,,,3,,,69,100
134784,note_on,,,,,112,0,12,,,,,5,,,33,100
134784,note_on,,,,,112,0,8,,,,,1,,,76,100
134784,note_on,,,,,112,0,11,,,,,4,,,45,100
134784,note_on,,,,,116,0,15,,,,,7,,,73,100
134784,note_on,,,,,0,0,13,,,,,6,,,64,100
134784,note_on,,,,,0,0,13,,,,,6,,,69,100
134784,note_on,,,,,112,0,9,,,,,2,,,73,100
134784,note_on,,,,,112,0,13,,,,,6,,,73,100
134972,note_off,,,,,188,0,8,,,,,1,,,76,100
134972,note_off,,,,,188,0,9,,,,,2,,,73,100
134976,note_on,,,,,4,0,8,,,,,1,,,73,100
134976,note_on,,,,,4,0,9,,,,,2,,,69,100
135040,note_off,,,,,0,0,13,,,,,6,,,64,100
135040,note_off,,,,,256,0,11,,,,,4,,,45,100
135040,note_off,,,,,256,0,12,,,,,5,,,33,100
135040,note_off,,,,,256,0,10,,,,,3,,,69,100
135040,note_off,,,,,256,0,13,,,,,6,,,73,100
135040,note_off,,,,,0,0,13,,,,,6,,,69,100
135040,note_off,,,,,256,0,16,,,,,7,,,45,100
135040,note_off,,,,,256,0,14,,,,,6,,,45,100
135164,note_off,,,,,188,0,9,,,,,2,,,69,100
135164,note_off,,,,,188,0,8,,,,,1,,,73,100
135168,note_on,,,,,4,0,9,,,,,2,,,64,100
135168,note_on,,,,,4,0,8,,,,,1,,,69,100
135268,note_off,,,,,100,0,8,,,,,1,,,69,100
135268,note_off,,,,,100,0,9,,,,,2,,,64,100
135360,note_on,,,,,0,0,13,,,,,6,,,64,100
135360,note_on,,,,,92,0,8,,,,,1,,,73,99
135360,note_on,,,,,320,0,16,,,,,7,,,45,100
135360,note_on,,,,,92,0,9,,,,,2,,,69,99
135360,note_on,,,,,320,0,10,,,,,3,,,64,99
135360,note_on,,,,,0,0,13,,,,,6,,,69,100
135360,note_on,,,,,320,0,11,,,,,4,,,45,99
135360,note_on,,,,,320,0,14,,,,,6,,,45,100
135360,note_on,,,,,320,0,12,,,,,5,,,33,99
135360,note_on,,,,,320,0,13,,,,,6,,,73,100
135440,note_off,,,,,80,0,14,,,,,6,,,45,100
135440,note_off,,,,,80,0,8,,,,,1,,,73,100
135440,note_off,,,,,80,0,12,,,,,5,,,33,100
135440,note_off,,,,,80,0,10,,,,,3,,,64,100
135440,note_off,,,,,80,0,9,,,,,2,,,69,100
135440,note_off,,,,,80,0,13,,,,,6,,,73,100
135440,note_off,,,,,0,0,13,,,,,6,,,64,100
135440,note_off,,,,,80,0,11,,,,,4,,,45,100
135440,note_off,,,,,80,0,16,,,,,7,,,45,100
135440,note_off,,,,,0,0,13,,,,,6,,,69,100
135552,note_on,,,,,0,0,13,,,,,6,,,69,100
135552,note_on,,,,,112,0,11,,,,,4,,,45,98
135552,note_on,,,,,0,0,13,,,,,6,,,64,100
135552,note_on,,,,,112,0,13,,,,,6,,,73,100
135552,note_on,,,,,112,0,10,,,,,3,,,69,98
135552,note_on,,,,,112,0,9,,,,,2,,,73,98
135552,note_on,,,,,112,0,16,,,,,7,,,45,100
135552,note_on,,,,,112,0,8,,,,,1,,,76,98
135552,note_on,,,,,112,0,14,,,,,6,,,45,100
135552,note_on,,,,,112,0,12,,,,,5,,,33,98
135632,note_off,,,,,80,0,14,,,,,6,,,45,100
135632,note_off,,,,,80,0,13,,,,,6,,,73,100
135632,note_off,,,,,0,0,13,,,,,6,,,64,100
135632,note_off,,,,,80,0,16,,,,,7,,,45,100
135632,note_off,,,,,80,0,12,,,,,5,,,33,100
135632,note_off,,,,,0,0,13,,,,,6,,,69,100
135632,note_off,,,,,80,0,9,,,,,2,,,73,100
135632,note_off,,,,,80,0,11,,,,,4,,,45,100
135632,note_off,,,,,80,0,8,,,,,1,,,76,100
135632,note_off,,,,,80,0,10,,,,,3,,,69,100
135744,note_on,,,,,112,0,10,,,,,3,,,73,96
135744,note_on,,,,,112,0,11,,,,,4,,,45,96
135744,note_on,,,,,112,0,14,,,,,6,,,45,100
135744,note_on,,,,,112,0,8,,,,,1,,,81,96
135744,note_on,,,,,112,0,12,,,,,5,,,33,96
135744,note_on,,,,,112,0,16,,,,,7,,,45,100
135744,note_on,,,,,0,0,13,,,,,6,,,69,100
135744,note_on,,,,,0,0,13,,,,,6,,,64,100
135744,note_on,,,,,112,0,13,,,,,6,,,73,100
135744,note_on,,,,,112,0,9,,,,,2,,,76,96
135820,note_off,,,,,0,0,15,,,,,7,,,73,100
135820,note_off,,,,,1036,0,15,,,,,7,,,64,100
135820,note_off,,,,,0,0,15,,,,,7,,,69,100
135824,note_off,,,,,80,0,8,,,,,1,,,81,100
135824,note_off,,,,,80,0,16,,,,,7,,,45,100
135824,note_off,,,,,80,0,12,,,,,5,,,33,100
135824,note_off,,,,,80,0,10,,,,,3,,,73,100
135824,note_off,,,,,80,0,9,,,,,2,,,76,100
135824,note_off,,,,,0,0,13,,,,,6,,,69,100
135824,note_off,,,,,0,0,13,,,,,6,,,64,100
135824,note_off,,,,,80,0,13,,,,,6,,,73,100
135824,note_off,,,,,80,0,14,,,,,6,,,45,100
135824,note_off,,,,,80,0,11,,,,,4,,,45,100
135936,note_on,,,,,112,0,11,,,,,4,,,50,95
135936,note_on,,,,,112,0,10,,,,,3,,,69,95
135936,note_on,,,,,116,0,15,,,,,7,,,66,100
135936,note_on,,,,,0,0,15,,,,,7,,,69,100
135936,note_on,,,,,0,0,15,,,,,7,,,74,100
135936,note_on,,,,,112,0,16,,,,,7,,,50,100
135936,note_on,,,,,112,0,9,,,,,2,,,74,95
135936,note_on,,,,,112,0,13,,,,,6,,,66,100
135936,note_on,,,,,112,0,14,,,,,6,,,50,100
135936,note_on,,,,,0,0,13,,,,,6,,,69,100
135936,note_on,,,,,0,0,13,,,,,6,,,74,100
135936,note_on,,,,,112,0,12,,,,,5,,,38,95
135936,note_on,,,,,112,0,8,,,,,1,,,78,95
136016,note_off,,,,,80,0,10,,,,,3,,,69,100
136016,note_off,,,,,80,0,9,,,,,2,,,74,100
136016,note_off,,,,,80,0,11,,,,,4,,,50,100
136016,note_off,,,,,80,0,8,,,,,1,,,78,100
136016,note_off,,,,,80,0,16,,,,,7,,,50,100
136016,note_off,,,,,80,0,12,,,,,5,,,38,100
136016,note_off,,,,,80,0,14,,,,,6,,,50,100
136036,note_off,,,,,0,0,13,,,,,6,,,69,100
136036,note_off,,,,,100,0,13,,,,,6,,,66,100
136036,note_off,,,,,100,0,15,,,,,7,,,66,100
136036,note_off,,,,,0,0,15,,,,,7,,,69,100
136036,note_off,,,,,0,0,15,,,,,7,,,74,100
136036,note_off,,,,,0,0,13,,,,,6,,,74,100
136128,note_on,,,,,112,0,9,,,,,2,,,74,85
136128,note_on,,,,,112,0,14,,,,,6,,,62,100
136128,note_on,,,,,112,0,10,,,,,3,,,74,85
136128,note_on,,,,,112,0,12,,,,,5,,,50,85
136128,note_on,,,,,92,0,15,,,,,7,,,74,100
136128,note_on,,,,,112,0,8,,,,,1,,,74,85
136128,note_on,,,,,92,0,13,,,,,6,,,74,100
136128,note_on,,,,,112,0,11,,,,,4,,,62,85
136128,note_on,,,,,112,0,16,,,,,7,,,62,100
136208,note_off,,,,,80,0,9,,,,,2,,,74,100
136208,note_off,,,,,80,0,11,,,,,4,,,62,100
136208,note_off,,,,,80,0,8,,,,,1,,,74,100
136208,note_off,,,,,80,0,14,,,,,6,,,62,100
136208,note_off,,,,,80,0,10,,,,,3,,,74,100
136208,note_off,,,,,80,0,12,,,,,5,,,50,100
136208,note_off,,,,,80,0,16,,,,,7,,,62,100
136208,note_off,,,,,80,0,13,,,,,6,,,74,100
136208,note_off,,,,,80,0,15,,,,,7,,,74,100
136320,note_on,,,,,112,0,12,,,,,5,,,50,88
136320,note_on,,,,,112,0,10,,,,,3,,,74,88
136320,note_on,,,,,112,0,9,,,,,2,,,74,88
136320,note_on,,,,,112,0,15,,,,,7,,,74,100
136320,note_on,,,,,112,0,13,,,,,6,,,74,100
136320,note_on,,,,,112,0,14,,,,,6,,,62,100
136320,note_on,,,,,112,0,11,,,,,4,,,62,88
136320,note_on,,,,,112,0,8,,,,,1,,,74,88
136320,note_on,,,,,112,0,16,,,,,7,,,62,100
136400,note_off,,,,,80,0,12,,,,,5,,,50,100
136400,note_off,,,,,80,0,8,,,,,1,,,74,100
136400,note_off,,,,,80,0,9,,,,,2,,,74,100
136400,note_off,,,,,80,0,14,,,,,6,,,62,100
136400,note_off,,,,,80,0,16,,,,,7,,,62,100
136400,note_off,,,,,80,0,13,,,,,6,,,74,100
136400,note_off,,,,,80,0,15,,,,,7,,,74,100
136400,note_off,,,,,80,0,11,,,,,4,,,62,100
136400,note_off,,,,,80,0,10,,,,,3,,,74,100
136512,note_on,,,,,112,0,16,,,,,7,,,62,100
136512,note_on,,,,,112,0,11,,,,,4,,,62,91
136512,note_on,,,,,112,0,14,,,,,6,,,62,100
136512,note_on,,,,,112,0,12,,,,,5,,,50,91
136512,note_on,,,,,112,0,10,,,,,3,,,74,91
136512,note_on,,,,,112,0,13,,,,,6,,,74,100
136512,note_on,,,,,112,0,15,,,,,7,,,74,100
136512,note_on,,,,,112,0,9,,,,,2,,,74,91
136512,note_on,,,,,112,0,8,,,,,1,,,74,91
136592,note_off,,,,,80,0,14,,,,,6,,,62,100
136592,note_off,,,,,80,0,16,,,,,7,,,62,100
136592,note_off,,,,,80,0,8,,,,,1,,,74,100
136592,note_off,,,,,80,0,9,,,,,2,,,74,100
136592,note_off,,,,,80,0,11,,,,,4,,,62,100
136592,note_off,,,,,80,0,15,,,,,7,,,74,100
136592,note_off,,,,,80,0,10,,,,,3,,,74,100
136592,note_off,,,,,80,0,12,,,,,5,,,50,100
136592,note_off,,,,,80,0,13,,,,,6,,,74,100
136704,note_on,,,,,112,0,15,,,,,7,,,74,100
136704,note_on,,,,,112,0,11,,,,,4,,,62,94
136704,note_on,,,,,112,0,13,,,,,6,,,74,100
136704,note_on,,,,,112,0,14,,,,,6,,,62,100
136704,note_on,,,,,112,0,9,,,,,2,,,74,94
136704,note_on,,,,,112,0,10,,,,,3,,,74,94
136704,note_on,,,,,112,0,16,,,,,7,,,62,100
136704,note_on,,,,,112,0,8,,,,,1,,,74,94
136704,note_on,,,,,112,0,12,,,,,5,,,50,94
136784,note_off,,,,,80,0,12,,,,,5,,,50,100
136784,note_off,,,,,80,0,14,,,,,6,,,62,100
136784,note_off,,,,,80,0,16,,,,,7,,,62,100
136784,note_off,,,,,80,0,13,,,,,6,,,74,100
136784,note_off,,,,,80,0,15,,,,,7,,,74,100
136784,note_off,,,,,80,0,8,,,,,1,,,74,100
136784,note_off,,,,,80,0,9,,,,,2,,,74,100
136784,note_off,,,,,80,0,10,,,,,3,,,74,100
136784,note_off,,,,,80,0,11,,,,,4,,,62,100
136896,note_on,,,,,112,0,15,,,,,7,,,74,100
136896,note_on,,,,,112,0,8,,,,,1,,,74,97
136896,note_on,,,,,112,0,16,,,,,7,,,62,100
136896,note_on,,,,,112,0,10,,,,,3,,,74,97
136896,note_on,,,,,112,0,11,,,,,4,,,62,97
136896,note_on,,,,,112,0,12,,,,,5,,,50,97
136896,note_on,,,,,112,0,14,,,,,6,,,62,100
136896,note_on,,,,,112,0,13,,,,,6,,,74,100
136896,note_on,,,,,112,0,9,,,,,2,,,74,97
136976,note_off,,,,,80,0,10,,,,,3,,,74,100
136976,note_off,,,,,80,0,16,,,,,7,,,62,100
136976,note_off,,,,,80,0,13,,,,,6,,,74,100
136976,note_off,,,,,80,0,9,,,,,2,,,74,100
136976,note_off,,,,,80,0,14,,,,,6,,,62,100
136976,note_off,,,,,80,0,15,,,,,7,,,74,100
136976,note_off,,,,,80,0,11,,,,,4,,,62,100
136976,note_off,,,,,80,0,12,,,,,5,,,50,100
136976,note_off,,,,,80,0,8,,,,,1,,,74,100
137088,note_on,,,,,112,0,10,,,,,3,,,73,102
137088,note_on,,,,,112,0,16,,,,,7,,,61,100
137088,note_on,,,,,112,0,13,,,,,6,,,73,100
137088,note_on,,,,,112,0,15,,,,,7,,,73,100
137088,note_on,,,,,112,0,11,,,,,4,,,61,102
137088,note_on,,,,,112,0,8,,,,,1,,,73,102
137088,note_on,,,,,112,0,14,,,,,6,,,61,100
137088,note_on,,,,,112,0,9,,,,,2,,,73,102
137088,note_on,,,,,112,0,12,,,,,5,,,49,102
137168,note_off,,,,,80,0,14,,,,,6,,,61,100
137168,note_off,,,,,80,0,11,,,,,4,,,61,100
137168,note_off,,,,,80,0,13,,,,,6,,,73,100
137168,note_off,,,,,80,0,8,,,,,1,,,73,100
137168,note_off,,,,,80,0,15,,,,,7,,,73,100
137168,note_off,,,,,80,0,16,,,,,7,,,61,100
137168,note_off,,,,,80,0,9,,,,,2,,,73,100
137168,note_off,,,,,80,0,10,,,,,3,,,73,100
137168,note_off,,,,,80,0,12,,,,,5,,,49,100
137280,note_on,,,,,112,0,14,,,,,6,,,59,100
137280,note_on,,,,,112,0,13,,,,,6,,,71,100
137280,note_on,,,,,112,0,8,,,,,1,,,71,100
137280,note_on,,,,,112,0,9,,,,,2,,,71,100
137280,note_on,,,,,112,0,15,,,,,7,,,71,100
137280,note_on,,,,,112,0,10,,,,,3,,,71,100
137280,note_on,,,,,112,0,16,,,,,7,,,59,100
137280,note_on,,,,,112,0,12,,,,,5,,,47,100
137280,note_on,,,,,112,0,11,,,,,4,,,59,100
137360,note_off,,,,,80,0,13,,,,,6,,,71,100
137360,note_off,,,,,80,0,9,,,,,2,,,71,100
137360,note_off,,,,,80,0,10,,,,,3,,,71,100
137360,note_off,,,,,80,0,15,,,,,7,,,71,100
137360,note_off,,,,,80,0,16,,,,,7,,,59,100
137360,note_off,,,,,80,0,14,,,,,6,,,59,100
137360,note_off,,,,,80,0,12,,,,,5,,,47,100
137360,note_off,,,,,80,0,11,,,,,4,,,59,100
137360,note_off,,,,,80,0,8,,,,,1,,,71,100
137472,note_on,,,,,112,0,14,,,,,6,,,57,100
137472,note_on,,,,,112,0,16,,,,,7,,,57,100
137472,note_on,,,,,112,0,10,,,,,3,,,69,100
137472,note_on,,,,,112,0,11,,,,,4,,,57,100
137472,note_on,,,,,112,0,9,,,,,2,,,69,100
137472,note_on,,,,,112,0,8,,,,,1,,,69,100
137472,note_on,,,,,112,0,13,,,,,6,,,69,100
137472,note_on,,,,,112,0,15,,,,,7,,,69,100
137472,note_on,,,,,112,0,12,,,,,5,,,45,100
137552,note_off,,,,,80,0,16,,,,,7,,,57,100
137552,note_off,,,,,80,0,11,,,,,4,,,57,100
137552,note_off,,,,,80,0,12,,,,,5,,,45,100
137552,note_off,,,,,80,0,9,,,,,2,,,69,100
137552,note_off,,,,,80,0,10,,,,,3,,,69,100
137552,note_off,,,,,80,0,8,,,,,1,,,69,100
137552,note_off,,,,,80,0,14,,,,,6,,,57,100
137552,note_off,,,,,80,0,13,,,,,6,,,69,100
137552,note_off,,,,,80,0,15,,,,,7,,,69,100
137664,note_on,,,,,112,0,10,,,,,3,,,67,99
137664,note_on,,,,,112,0,8,,,,,1,,,67,99
137664,note_on,,,,,112,0,11,,,,,4,,,55,99
137664,note_on,,,,,112,0,15,,,,,7,,,67,100
137664,note_on,,,,,112,0,13,,,,,6,,,67,100
137664,note_on,,,,,112,0,14,,,,,6,,,55,100
137664,note_on,,,,,112,0,9,,,,,2,,,67,99
137664,note_on,,,,,112,0,12,,,,,5,,,43,99
137664,note_on,,,,,112,0,16,,,,,7,,,55,100
137744,note_off,,,,,80,0,9,,,,,2,,,67,100
137744,note_off,,,,,80,0,15,,,,,7,,,67,100
137744,note_off,,,,,80,0,10,,,,,3,,,67,100
137744,note_off,,,,,80,0,8,,,,,1,,,67,100
137744,note_off,,,,,80,0,11,,,,,4,,,55,100
137744,note_off,,,,,80,0,16,,,,,7,,,55,100
137744,note_off,,,,,80,0,12,,,,,5,,,43,100
137744,note_off,,,,,80,0,14,,,,,6,,,55,100
137744,note_off,,,,,80,0,13,,,,,6,,,67,100
137856,note_on,,,,,112,0,11,,,,,4,,,54,98
137856,note_on,,,,,112,0,12,,,,,5,,,42,98
137856,note_on,,,,,112,0,13,,,,,6,,,66,100
137856,note_on,,,,,112,0,10,,,,,3,,,66,98
137856,note_on,,,,,112,0,15,,,,,7,,,66,100
137856,note_on,,,,,112,0,9,,,,,2,,,66,98
137856,note_on,,,,,112,0,8,,,,,1,,,66,98
137856,note_on,,,,,112,0,14,,,,,6,,,54,100
137856,note_on,,,,,112,0,16,,,,,7,,,54,100
137936,note_off,,,,,80,0,16,,,,,7,,,54,100
137936,note_off,,,,,80,0,11,,,,,4,,,54,100
137936,note_off,,,,,80,0,15,,,,,7,,,66,100
137936,note_off,,,,,80,0,10,,,,,3,,,66,100
137936,note_off,,,,,80,0,8,,,,,1,,,66,100
137936,note_off,,,,,80,0,14,,,,,6,,,54,100
137936,note_off,,,,,80,0,9,,,,,2,,,66,100
137936,note_off,,,,,80,0,13,,,,,6,,,66,100
137936,note_off,,,,,80,0,12,,,,,5,,,42,100
138048,note_on,,,,,112,0,16,,,,,7,,,52,100
138048,note_on,,,,,112,0,9,,,,,2,,,64,97
138048,note_on,,,,,112,0,10,,,,,3,,,64,97
138048,note_on,,,,,112,0,15,,,,,7,,,64,100
138048,note_on,,,,,112,0,14,,,,,6,,,52,100
138048,note_on,,,,,112,0,11,,,,,4,,,52,97
138048,note_on,,,,,112,0,8,,,,,1,,,64,97
138048,note_on,,,,,112,0,13,,,,,6,,,64,100
138048,note_on,,,,,112,0,12,,,,,5,,,40,97
138128,note_off,,,,,80,0,15,,,,,7,,,64,100
138128,note_off,,,,,80,0,8,,,,,1,,,64,100
138128,note_off,,,,,80,0,12,,,,,5,,,40,100
138128,note_off,,,,,80,0,13,,,,,6,,,64,100
138128,note_off,,,,,80,0,10,,,,,3,,,64,100
138128,note_off,,,,,80,0,9,,,,,2,,,64,100
138128,note_off,,,,,80,0,14,,,,,6,,,52,100
138128,note_off,,,,,80,0,11,,,,,4,,,52,100
138128,note_off,,,,,80,0,16,,,,,7,,,52,100
138240,note_on,,,,,112,0,12,,,,,5,,,38,96
138240,note_on,,,,,112,0,15,,,,,7,,,62,100
138240,note_on,,,,,112,0,16,,,,,7,,,50,100
138240,note_on,,,,,112,0,13,,,,,6,,,62,100
138240,note_on,,,,,112,0,10,,,,,3,,,62,96
138240,note_on,,,,,112,0,9,,,,,2,,,62,96
138240,note_on,,,,,112,0,8,,,,,1,,,62,96
138240,note_on,,,,,112,0,14,,,,,6,,,50,100
138240,note_on,,,,,112,0,11,,,,,4,,,50,96
138432,note_on,,,,,13712,0,7,,,,,0,,,62,90
138496,note_off,,,,,256,0,8,,,,,1,,,62,100
138496,note_off,,,,,256,0,15,,,,,7,,,62,100
138496,note_off,,,,,256,0,10,,,,,3,,,62,100
138496,note_off,,,,,256,0,14,,,,,6,,,50,100
138496,note_off,,,,,256,0,9,,,,,2,,,62,100
138496,note_off,,,,,256,0,11,,,,,4,,,50,100
138496,note_off,,,,,256,0,13,,,,,6,,,62,100
138496,note_off,,,,,256,0,12,,,,,5,,,38,100
138496,note_off,,,,,256,0,16,,,,,7,,,50,100
138524,note_off,,,,,92,0,7,,,,,0,,,62,100
138528,note_on,,,,,4,0,7,,,,,0,,,64,90
138620,note_off,,,,,92,0,7,,,,,0,,,64,100
138624,note_on,,,,,4,0,7,,,,,0,,,66,90
138724,note_off,,,,,100,0,7,,,,,0,,,66,100
138816,note_on,,,,,92,0,7,,,,,0,,,66,90
138908,note_off,,,,,92,0,7,,,,,0,,,66,100
138912,note_on,,,,,4,0,7,,,,,0,,,67,90
139004,note_off,,,,,92,0,7,,,,,0,,,67,100
139008,note_on,,,,,4,0,7,,,,,0,,,69,90
139108,note_off,,,,,100,0,7,,,,,0,,,69,100
139200,note_on,,,,,92,0,7,,,,,0,,,69,90
139292,note_off,,,,,92,0,7,,,,,0,,,69,100
139296,note_on,,,,,4,0,7,,,,,0,,,71,90
139388,note_off,,,,,92,0,7,,,,,0,,,71,100
139392,note_on,,,,,896,0,13,,,,,6,,,62,100
139392,note_on,,,,,896,0,11,,,,,4,,,50,85
139392,note_on,,,,,896,0,12,,,,,5,,,38,85
139392,note_on,,,,,896,0,14,,,,,6,,,50,100
139392,note_on,,,,,0,0,13,,,,,6,,,69,100
139392,note_on,,,,,0,0,13,,,,,6,,,66,100
139392,note_on,,,,,4,0,7,,,,,0,,,72,90
139492,note_off,,,,,100,0,7,,,,,0,,,72,100
139584,note_on,,,,,92,0,7,,,,,0,,,66,90
139648,note_off,,,,,256,0,13,,,,,6,,,62,100
139648,note_off,,,,,0,0,13,,,,,6,,,66,100
139648,note_off,,,,,256,0,11,,,,,4,,,50,100
139648,note_off,,,,,256,0,14,,,,,6,,,50,100
139648,note_off,,,,,0,0,13,,,,,6,,,69,100
139648,note_off,,,,,256,0,12,,,,,5,,,38,100
139676,note_off,,,,,92,0,7,,,,,0,,,66,100
139680,note_on,,,,,4,0,7,,,,,0,,,67,90
139772,note_off,,,,,92,0,7,,,,,0,,,67,100
139776,note_on,,,,,4,0,7,,,,,0,,,69,91
139876,note_off,,,,,100,0,7,,,,,0,,,69,100
139968,note_on,,,,,92,0,7,,,,,0,,,69,93
140060,note_off,,,,,92,0,7,,,,,0,,,69,100
140064,note_on,,,,,4,0,7,,,,,0,,,71,94
140156,note_off,,,,,92,0,7,,,,,0,,,71,100
140160,note_on,,,,,4,0,7,,,,,0,,,72,95
140260,note_off,,,,,100,0,7,,,,,0,,,72,100
140352,note_on,,,,,92,0,7,,,,,0,,,78,97
140444,note_off,,,,,92,0,7,,,,,0,,,78,100
140448,note_on,,,,,4,0,7,,,,,0,,,79,98
140540,note_off,,,,,92,0,7,,,,,0,,,79,100
140544,note_on,,,,,4,0,7,,,,,0,,,81,99
140544,note_on,,,,,896,0,13,,,,,6,,,62,100
140544,note_on,,,,,896,0,14,,,,,6,,,50,100
140544,note_on,,,,,896,0,12,,,,,5,,,38,85
140544,note_on,,,,,896,0,11,,,,,4,,,50,85
140544,note_on,,,,,0,0,13,,,,,6,,,66,100
140544,note_on,,,,,0,0,13,,,,,6,,,69,100
140644,note_off,,,,,100,0,7,,,,,0,,,81,100
140736,note_on,,,,,92,0,7,,,,,0,,,69,90
140800,note_off,,,,,256,0,12,,,,,5,,,38,100
140800,note_off,,,,,256,0,14,,,,,6,,,50,100
140800,note_off,,,,,0,0,13,,,,,6,,,69,100
140800,note_off,,,,,0,0,13,,,,,6,,,66,100
140800,note_off,,,,,256,0,13,,,,,6,,,62,100
140800,note_off,,,,,256,0,11,,,,,4,,,50,100
140828,note_off,,,,,92,0,7,,,,,0,,,69,100
140832,note_on,,,,,4,0,7,,,,,0,,,71,91
140924,note_off,,,,,92,0,7,,,,,0,,,71,100
140928,note_on,,,,,4,0,7,,,,,0,,,72,92
141028,note_off,,,,,100,0,7,,,,,0,,,72,100
141120,note_on,,,,,92,0,7,,,,,0,,,78,95
141212,note_off,,,,,92,0,7,,,,,0,,,78,100
141216,note_on,,,,,4,0,7,,,,,0,,,79,97
141308,note_off,,,,,92,0,7,,,,,0,,,79,100
141312,note_on,,,,,4,0,7,,,,,0,,,81,98
141412,note_off,,,,,100,0,7,,,,,0,,,81,100
141504,note_on,,,,,92,0,7,,,,,0,,,81,101
141596,note_off,,,,,92,0,7,,,,,0,,,81,100
141600,note_on,,,,,4,0,7,,,,,0,,,83,103
141692,note_off,,,,,92,0,7,,,,,0,,,83,100
141696,note_on,,,,,896,0,11,,,,,4,,,50,85
141696,note_on,,,,,896,0,12,,,,,5,,,38,85
141696,note_on,,,,,0,0,13,,,,,6,,,69,100
141696,note_on,,,,,896,0,14,,,,,6,,,50,100
141696,note_on,,,,,4,0,7,,,,,0,,,84,104
141696,note_on,,,,,0,0,13,,,,,6,,,72,100
141696,note_on,,,,,896,0,13,,,,,6,,,66,100
141796,note_off,,,,,100,0,7,,,,,0,,,84,100
141888,note_on,,,,,92,0,7,,,,,0,,,78,95
141952,note_off,,,,,256,0,13,,,,,6,,,66,100
141952,note_off,,,,,0,0,13,,,,,6,,,69,100
141952,note_off,,,,,256,0,12,,,,,5,,,38,100
141952,note_off,,,,,256,0,14,,,,,6,,,50,100
141952,note_off,,,,,256,0,11,,,,,4,,,50,100
141952,note_off,,,,,0,0,13,,,,,6,,,72,100
141980,note_off,,,,,92,0,7,,,,,0,,,78,100
141984,note_on,,,,,4,0,7,,,,,0,,,79,95
142076,note_off,,,,,92,0,7,,,,,0,,,79,100
142080,note_on,,,,,4,0,7,,,,,0,,,81,96
142180,note_off,,,,,100,0,7,,,,,0,,,81,100
142272,note_on,,,,,92,0,7,,,,,0,,,81,98
142364,note_off,,,,,92,0,7,,,,,0,,,81,100
142368,note_on,,,,,4,0,7,,,,,0,,,83,99
142460,note_off,,,,,92,0,7,,,,,0,,,83,100
142464,note_on,,,,,4,0,7,,,,,0,,,84,100
142564,note_off,,,,,100,0,7,,,,,0,,,84,100
142656,note_on,,,,,92,0,7,,,,,0,,,81,102
142756,note_off,,,,,100,0,7,,,,,0,,,81,100
142848,note_on,,,,,896,0,11,,,,,4,,,43,100
142848,note_on,,,,,4352,0,9,,,,,2,,,79,100
142848,note_on,,,,,896,0,14,,,,,6,,,43,100
142848,note_on,,,,,4352,0,16,,,,,7,,,43,100
142848,note_on,,,,,0,0,15,,,,,7,,,59,100
142848,note_on,,,,,0,0,15,,,,,7,,,62,100
142848,note_on,,,,,4352,0,15,,,,,7,,,67,100
142848,note_on,,,,,896,0,12,,,,,5,,,31,100
142848,note_on,,,,,4352,0,8,,,,,1,,,83,100
142848,note_on,,,,,4352,0,10,,,,,3,,,62,100
142848,note_on,,,,,0,0,13,,,,,6,,,62,100
142848,note_on,,,,,92,0,7,,,,,0,,,83,104
142848,note_on,,,,,0,0,13,,,,,6,,,59,100
142848,note_on,,,,,896,0,13,,,,,6,,,67,100
142928,note_off,,,,,80,0,8,,,,,1,,,83,100
142928,note_off,,,,,80,0,9,,,,,2,,,79,100
142976,note_off,,,,,128,0,7,,,,,0,,,83,100
143040,note_on,,,,,112,0,9,,,,,2,,,74,100
143040,note_on,,,,,112,0,8,,,,,1,,,79,100
143104,note_off,,,,,256,0,10,,,,,3,,,62,100
143104,note_off,,,,,256,0,16,,,,,7,,,43,100
143104,note_off,,,,,0,0,15,,,,,7,,,59,100
143104,note_off,,,,,0,0,15,,,,,7,,,62,100
143104,note_off,,,,,256,0,15,,,,,7,,,67,100
143104,note_off,,,,,256,0,11,,,,,4,,,43,100
143104,note_off,,,,,0,0,13,,,,,6,,,62,100
143104,note_off,,,,,0,0,13,,,,,6,,,59,100
143104,note_off,,,,,256,0,14,,,,,6,,,43,100
143104,note_off,,,,,256,0,12,,,,,5,,,31,100
143104,note_off,,,,,256,0,13,,,,,6,,,67,100
143120,note_off,,,,,80,0,9,,,,,2,,,74,100
143120,note_off,,,,,80,0,8,,,,,1,,,79,100
143232,note_on,,,,,112,0,8,,,,,1,,,74,100
143232,note_on,,,,,112,0,9,,,,,2,,,71,100
143312,note_off,,,,,80,0,9,,,,,2,,,71,100
143312,note_off,,,,,80,0,8,,,,,1,,,74,100
143424,note_on,,,,,320,0,14,,,,,6,,,55,100
143424,note_on,,,,,0,0,13,,,,,6,,,62,100
143424,note_on,,,,,0,0,13,,,,,6,,,67,100
143424,note_on,,,,,320,0,16,,,,,7,,,55,100
143424,note_on,,,,,320,0,13,,,,,6,,,71,100
143424,note_on,,,,,320,0,10,,,,,3,,,62,100
143424,note_on,,,,,112,0,8,,,,,1,,,79,100
143424,note_on,,,,,0,0,15,,,,,7,,,62,100
143424,note_on,,,,,320,0,15,,,,,7,,,71,100
143424,note_on,,,,,112,0,9,,,,,2,,,74,100
143424,note_on,,,,,320,0,12,,,,,5,,,43,100
143424,note_on,,,,,320,0,11,,,,,4,,,55,100
143424,note_on,,,,,0,0,15,,,,,7,,,67,100
143504,note_off,,,,,80,0,11,,,,,4,,,55,100
143504,note_off,,,,,0,0,13,,,,,6,,,67,100
143504,note_off,,,,,80,0,9,,,,,2,,,74,100
143504,note_off,,,,,80,0,13,,,,,6,,,71,100
143504,note_off,,,,,80,0,15,,,,,7,,,71,100
143504,note_off,,,,,80,0,16,,,,,7,,,55,100
143504,note_off,,,,,80,0,8,,,,,1,,,79,100
143504,note_off,,,,,0,0,15,,,,,7,,,67,100
143504,note_off,,,,,80,0,10,,,,,3,,,62,100
143504,note_off,,,,,0,0,13,,,,,6,,,62,100
143504,note_off,,,,,0,0,15,,,,,7,,,62,100
143504,note_off,,,,,80,0,14,,,,,6,,,55,100
143504,note_off,,,,,80,0,12,,,,,5,,,43,100
143616,note_on,,,,,112,0,13,,,,,6,,,71,100
143616,note_on,,,,,0,0,13,,,,,6,,,62,100
143616,note_on,,,,,0,0,13,,,,,6,,,67,100
143616,note_on,,,,,112,0,16,,,,,7,,,55,100
143616,note_on,,,,,112,0,12,,,,,5,,,43,100
143616,note_on,,,,,112,0,15,,,,,7,,,71,100
143616,note_on,,,,,0,0,15,,,,,7,,,62,100
143616,note_on,,,,,112,0,9,,,,,2,,,79,100
143616,note_on,,,,,0,0,15,,,,,7,,,67,100
143616,note_on,,,,,112,0,14,,,,,6,,,55,100
143616,note_on,,,,,112,0,10,,,,,3,,,62,100
143616,note_on,,,,,112,0,8,,,,,1,,,83,100
143616,note_on,,,,,112,0,11,,,,,4,,,55,100
143696,note_off,,,,,80,0,14,,,,,6,,,55,100
143696,note_off,,,,,80,0,10,,,,,3,,,62,100
143696,note_off,,,,,0,0,15,,,,,7,,,67,100
143696,note_off,,,,,0,0,15,,,,,7,,,62,100
143696,note_off,,,,,80,0,11,,,,,4,,,55,100
143696,note_off,,,,,80,0,9,,,,,2,,,79,100
143696,note_off,,,,,80,0,15,,,,,7,,,71,100
143696,note_off,,,,,80,0,12,,,,,5,,,43,100
143696,note_off,,,,,80,0,8,,,,,1,,,83,100
143696,note_off,,,,,80,0,16,,,,,7,,,55,100
143696,note_off,,,,,0,0,13,,,,,6,,,67,100
143696,note_off,,,,,80,0,13,,,,,6,,,71,100
143696,note_off,,,,,0,0,13,,,,,6,,,62,100
143808,note_on,,,,,112,0,9,,,,,2,,,71,100
143808,note_on,,,,,0,0,13,,,,,6,,,62,100
143808,note_on,,,,,112,0,10,,,,,3,,,62,100
143808,note_on,,,,,112,0,11,,,,,4,,,55,100
143808,note_on,,,,,112,0,13,,,,,6,,,71,100
143808,note_on,,,,,112,0,15,,,,,7,,,71,100
143808,note_on,,,,,112,0,14,,,,,6,,,55,100
143808,note_on,,,,,112,0,12,,,,,5,,,43,100
143808,note_on,,,,,0,0,13,,,,,6,,,67,100
143808,note_on,,,,,0,0,15,,,,,7,,,67,100
143808,note_on,,,,,0,0,15,,,,,7,,,62,100
143808,note_on,,,,,112,0,8,,,,,1,,,79,100
143808,note_on,,,,,112,0,16,,,,,7,,,55,100
143888,note_off,,,,,80,0,11,,,,,4,,,55,100
143888,note_off,,,,,0,0,13,,,,,6,,,62,100
143888,note_off,,,,,0,0,15,,,,,7,,,67,100
143888,note_off,,,,,80,0,13,,,,,6,,,71,100
143888,note_off,,,,,80,0,9,,,,,2,,,71,100
143888,note_off,,,,,80,0,15,,,,,7,,,71,100
143888,note_off,,,,,80,0,16,,,,,7,,,55,100
143888,note_off,,,,,0,0,13,,,,,6,,,67,100
143888,note_off,,,,,80,0,12,,,,,5,,,43,100
143888,note_off,,,,,80,0,14,,,,,6,,,55,100
143888,note_off,,,,,80,0,8,,,,,1,,,79,100
143888,note_off,,,,,80,0,10,,,,,3,,,62,100
143888,note_off,,,,,0,0,15,,,,,7,,,62,100
144000,note_on,,,,,112,0,11,,,,,4,,,62,100
144000,note_on,,,,,112,0,15,,,,,7,,,69,100
144000,note_on,,,,,0,0,15,,,,,7,,,66,100
144000,note_on,,,,,0,0,15,,,,,7,,,74,100
144000,note_on,,,,,112,0,14,,,,,6,,,62,100
144000,note_on,,,,,0,0,13,,,,,6,,,74,100
144000,note_on,,,,,0,0,13,,,,,6,,,66,100
144000,note_on,,,,,112,0,13,,,,,6,,,69,100
144000,note_on,,,,,112,0,10,,,,,3,,,62,100
144000,note_on,,,,,112,0,12,,,,,5,,,50,100
144000,note_on,,,,,112,0,8,,,,,1,,,81,100
144000,note_on,,,,,112,0,16,,,,,7,,,62,100
144000,note_on,,,,,112,0,9,,,,,2,,,78,100
144080,note_off,,,,,80,0,8,,,,,1,,,81,100
144080,note_off,,,,,80,0,9,,,,,2,,,78,100
144192,note_on,,,,,112,0,9,,,,,2,,,74,100
144192,note_on,,,,,112,0,8,,,,,1,,,78,100
144256,note_off,,,,,256,0,12,,,,,5,,,50,100
144256,note_off,,,,,256,0,13,,,,,6,,,69,100
144256,note_off,,,,,0,0,15,,,,,7,,,74,100
144256,note_off,,,,,0,0,15,,,,,7,,,66,100
144256,note_off,,,,,256,0,15,,,,,7,,,69,100
144256,note_off,,,,,256,0,11,,,,,4,,,62,100
144256,note_off,,,,,0,0,13,,,,,6,,,66,100
144256,note_off,,,,,0,0,13,,,,,6,,,74,100
144256,note_off,,,,,256,0,10,,,,,3,,,62,100
144256,note_off,,,,,256,0,14,,,,,6,,,62,100
144256,note_off,,,,,256,0,16,,,,,7,,,62,100
144272,note_off,,,,,80,0,8,,,,,1,,,78,100
144272,note_off,,,,,80,0,9,,,,,2,,,74,100
144384,note_on,,,,,112,0,8,,,,,1,,,74,100
144384,note_on,,,,,112,0,9,,,,,2,,,69,100
144464,note_off,,,,,80,0,9,,,,,2,,,69,100
144464,note_off,,,,,80,0,8,,,,,1,,,74,100
144576,note_on,,,,,112,0,9,,,,,2,,,74,100
144576,note_on,,,,,320,0,16,,,,,7,,,50,100
144576,note_on,,,,,320,0,11,,,,,4,,,50,100
144576,note_on,,,,,0,0,13,,,,,6,,,69,100
144576,note_on,,,,,0,0,13,,,,,6,,,66,100
144576,note_on,,,,,320,0,14,,,,,6,,,50,100
144576,note_on,,,,,0,0,15,,,,,7,,,66,100
144576,note_on,,,,,0,0,15,,,,,7,,,69,100
144576,note_on,,,,,320,0,15,,,,,7,,,62,100
144576,note_on,,,,,320,0,12,,,,,5,,,38,100
144576,note_on,,,,,112,0,8,,,,,1,,,78,100
144576,note_on,,,,,320,0,13,,,,,6,,,62,100
144576,note_on,,,,,320,0,10,,,,,3,,,62,100
144656,note_off,,,,,80,0,12,,,,,5,,,38,100
144656,note_off,,,,,80,0,8,,,,,1,,,78,100
144656,note_off,,,,,80,0,13,,,,,6,,,62,100
144656,note_off,,,,,0,0,13,,,,,6,,,69,100
144656,note_off,,,,,0,0,13,,,,,6,,,66,100
144656,note_off,,,,,80,0,16,,,,,7,,,50,100
144656,note_off,,,,,80,0,14,,,,,6,,,50,100
144656,note_off,,,,,80,0,15,,,,,7,,,62,100
144656,note_off,,,,,0,0,15,,,,,7,,,69,100
144656,note_off,,,,,0,0,15,,,,,7,,,66,100
144656,note_off,,,,,80,0,10,,,,,3,,,62,100
144656,note_off,,,,,80,0,9,,,,,2,,,74,100
144656,note_off,,,,,80,0,11,,,,,4,,,50,100
144768,note_on,,,,,112,0,11,,,,,4,,,50,96
144768,note_on,,,,,112,0,9,,,,,2,,,78,96
144768,note_on,,,,,112,0,8,,,,,1,,,81,96
144768,note_on,,,,,112,0,12,,,,,5,,,38,96
144768,note_on,,,,,112,0,15,,,,,7,,,62,100
144768,note_on,,,,,0,0,15,,,,,7,,,69,100
144768,note_on,,,,,112,0,14,,,,,6,,,50,100
144768,note_on,,,,,112,0,13,,,,,6,,,62,100
144768,note_on,,,,,0,0,13,,,,,6,,,69,100
144768,note_on,,,,,0,0,13,,,,,6,,,66,100
144768,note_on,,,,,0,0,15,,,,,7,,,66,100
144768,note_on,,,,,112,0,10,,,,,3,,,62,96
144768,note_on,,,,,112,0,16,,,,,7,,,50,100
144848,note_off,,,,,80,0,15,,,,,7,,,62,100
144848,note_off,,,,,80,0,13,,,,,6,,,62,100
144848,note_off,,,,,80,0,11,,,,,4,,,50,100
144848,note_off,,,,,80,0,16,,,,,7,,,50,100
144848,note_off,,,,,80,0,9,,,,,2,,,78,100
144848,note_off,,,,,0,0,15,,,,,7,,,66,100
144848,note_off,,,,,0,0,13,,,,,6,,,66,100
144848,note_off,,,,,0,0,13,,,,,6,,,69,100
144848,note_off,,,,,80,0,8,,,,,1,,,81,100
144848,note_off,,,,,0,0,15,,,,,7,,,69,100
144848,note_off,,,,,80,0,14,,,,,6,,,50,100
144848,note_off,,,,,80,0,12,,,,,5,,,38,100
144848,note_off,,,,,80,0,10,,,,,3,,,62,100
144960,note_on,,,,,112,0,10,,,,,3,,,62,91
144960,note_on,,,,,112,0,8,,,,,1,,,78,91
144960,note_on,,,,,112,0,11,,,,,4,,,50,91
144960,note_on,,,,,112,0,13,,,,,6,,,62,100
144960,note_on,,,,,0,0,13,,,,,6,,,69,100
144960,note_on,,,,,112,0,16,,,,,7,,,50,100
144960,note_on,,,,,112,0,9,,,,,2,,,81,91
144960,note_on,,,,,112,0,14,,,,,6,,,50,100
144960,note_on,,,,,0,0,15,,,,,7,,,69,100
144960,note_on,,,,,112,0,15,,,,,7,,,62,100
144960,note_on,,,,,112,0,12,,,,,5,,,38,91
144960,note_on,,,,,0,0,13,,,,,6,,,66,100
144960,note_on,,,,,0,0,15,,,,,7,,,66,100
145040,note_off,,,,,80,0,13,,,,,6,,,62,100
145040,note_off,,,,,0,0,13,,,,,6,,,69,100
145040,note_off,,,,,0,0,13,,,,,6,,,66,100
145040,note_off,,,,,80,0,15,,,,,7,,,62,100
145040,note_off,,,,,0,0,15,,,,,7,,,69,100
145040,note_off,,,,,0,0,15,,,,,7,,,66,100
145040,note_off,,,,,80,0,11,,,,,4,,,50,100
145040,note_off,,,,,80,0,14,,,,,6,,,50,100
145040,note_off,,,,,80,0,9,,,,,2,,,81,100
145040,note_off,,,,,80,0,16,,,,,7,,,50,100
145040,note_off,,,,,80,0,12,,,,,5,,,38,100
145040,note_off,,,,,80,0,10,,,,,3,,,62,100
145040,note_off,,,,,80,0,8,,,,,1,,,78,100
145152,note_on,,,,,0,0,15,,,,,7,,,59,100
145152,note_on,,,,,0,0,15,,,,,7,,,62,100
145152,note_on,,,,,112,0,15,,,,,7,,,67,100
145152,note_on,,,,,112,0,11,,,,,4,,,43,80
145152,note_on,,,,,112,0,12,,,,,5,,,31,80
145152,note_on,,,,,112,0,16,,,,,7,,,43,100
145152,note_on,,,,,112,0,14,,,,,6,,,43,100
145152,note_on,,,,,112,0,9,,,,,2,,,79,80
145152,note_on,,,,,112,0,10,,,,,3,,,62,80
145152,note_on,,,,,0,0,13,,,,,6,,,59,100
145152,note_on,,,,,0,0,13,,,,,6,,,62,100
145152,note_on,,,,,112,0,13,,,,,6,,,67,100
145152,note_on,,,,,112,0,8,,,,,1,,,83,80
145232,note_off,,,,,80,0,8,,,,,1,,,83,100
145232,note_off,,,,,80,0,9,,,,,2,,,79,100
145344,note_on,,,,,112,0,8,,,,,1,,,79,80
145344,note_on,,,,,112,0,9,,,,,2,,,74,80
145408,note_off,,,,,256,0,16,,,,,7,,,43,100
145408,note_off,,,,,256,0,13,,,,,6,,,67,100
145408,note_off,,,,,0,0,13,,,,,6,,,59,100
145408,note_off,,,,,0,0,15,,,,,7,,,59,100
145408,note_off,,,,,0,0,13,,,,,6,,,62,100
145408,note_off,,,,,256,0,10,,,,,3,,,62,100
145408,note_off,,,,,256,0,14,,,,,6,,,43,100
145408,note_off,,,,,256,0,11,,,,,4,,,43,100
145408,note_off,,,,,256,0,15,,,,,7,,,67,100
145408,note_off,,,,,0,0,15,,,,,7,,,62,100
145408,note_off,,,,,256,0,12,,,,,5,,,31,100
145424,note_off,,,,,80,0,9,,,,,2,,,74,100
145424,note_off,,,,,80,0,8,,,,,1,,,79,100
145536,note_on,,,,,112,0,9,,,,,2,,,71,80
145536,note_on,,,,,112,0,8,,,,,1,,,74,80
145616,note_off,,,,,80,0,9,,,,,2,,,71,100
145616,note_off,,,,,80,0,8,,,,,1,,,74,100
145728,note_on,,,,,0,0,15,,,,,7,,,67,100
145728,note_on,,,,,320,0,15,,,,,7,,,71,100
145728,note_on,,,,,320,0,11,,,,,4,,,55,80
145728,note_on,,,,,320,0,14,,,,,6,,,55,100
145728,note_on,,,,,0,0,15,,,,,7,,,62,100
145728,note_on,,,,,320,0,12,,,,,5,,,43,80
145728,note_on,,,,,320,0,16,,,,,7,,,55,100
145728,note_on,,,,,320,0,10,,,,,3,,,62,80
145728,note_on,,,,,320,0,13,,,,,6,,,71,100
145728,note_on,,,,,0,0,13,,,,,6,,,62,100
145728,note_on,,,,,0,0,13,,,,,6,,,67,100
145728,note_on,,,,,112,0,9,,,,,2,,,74,80
145728,note_on,,,,,112,0,8,,,,,1,,,79,80
145808,note_off,,,,,80,0,14,,,,,6,,,55,100
145808,note_off,,,,,80,0,11,,,,,4,,,55,100
145808,note_off,,,,,80,0,13,,,,,6,,,71,100
145808,note_off,,,,,0,0,13,,,,,6,,,62,100
145808,note_off,,,,,0,0,13,,,,,6,,,67,100
145808,note_off,,,,,80,0,9,,,,,2,,,74,100
145808,note_off,,,,,0,0,15,,,,,7,,,62,100
145808,note_off,,,,,0,0,15,,,,,7,,,67,100
145808,note_off,,,,,80,0,12,,,,,5,,,43,100
145808,note_off,,,,,80,0,16,,,,,7,,,55,100
145808,note_off,,,,,80,0,10,,,,,3,,,62,100
145808,note_off,,,,,80,0,15,,,,,7,,,71,100
145808,note_off,,,,,80,0,8,,,,,1,,,79,100
145920,note_on,,,,,112,0,8,,,,,1,,,83,80
145920,note_on,,,,,112,0,15,,,,,7,,,71,100
145920,note_on,,,,,0,0,15,,,,,7,,,62,100
145920,note_on,,,,,0,0,15,,,,,7,,,67,100
145920,note_on,,,,,112,0,12,,,,,5,,,43,80
145920,note_on,,,,,112,0,11,,,,,4,,,55,80
145920,note_on,,,,,112,0,9,,,,,2,,,79,80
145920,note_on,,,,,112,0,14,,,,,6,,,55,100
145920,note_on,,,,,112,0,16,,,,,7,,,55,100
145920,note_on,,,,,112,0,10,,,,,3,,,62,80
145920,note_on,,,,,0,0,13,,,,,6,,,67,100
145920,note_on,,,,,0,0,13,,,,,6,,,62,100
145920,note_on,,,,,112,0,13,,,,,6,,,71,100
146000,note_off,,,,,80,0,8,,,,,1,,,83,100
146000,note_off,,,,,80,0,13,,,,,6,,,71,100
146000,note_off,,,,,80,0,15,,,,,7,,,71,100
146000,note_off,,,,,0,0,15,,,,,7,,,67,100
146000,note_off,,,,,80,0,16,,,,,7,,,55,100
146000,note_off,,,,,0,0,13,,,,,6,,,62,100
146000,note_off,,,,,0,0,13,,,,,6,,,67,100
146000,note_off,,,,,80,0,11,,,,,4,,,55,100
146000,note_off,,,,,80,0,10,,,,,3,,,62,100
146000,note_off,,,,,80,0,14,,,,,6,,,55,100
146000,note_off,,,,,80,0,9,,,,,2,,,79,100
146000,note_off,,,,,80,0,12,,,,,5,,,43,100
146000,note_off,,,,,0,0,15,,,,,7,,,62,100
146112,note_on,,,,,112,0,12,,,,,5,,,43,80
146112,note_on,,,,,0,0,13,,,,,6,,,62,100
146112,note_on,,,,,112,0,9,,,,,2,,,71,80
146112,note_on,,,,,0,0,13,,,,,6,,,67,100
146112,note_on,,,,,112,0,11,,,,,4,,,55,80
146112,note_on,,,,,112,0,16,,,,,7,,,55,100
146112,note_on,,,,,112,0,8,,,,,1,,,79,80
146112,note_on,,,,,112,0,15,,,,,7,,,71,100
146112,note_on,,,,,0,0,15,,,,,7,,,62,100
146112,note_on,,,,,0,0,15,,,,,7,,,67,100
146112,note_on,,,,,112,0,14,,,,,6,,,55,100
146112,note_on,,,,,112,0,10,,,,,3,,,62,80
146112,note_on,,,,,112,0,13,,,,,6,,,71,100
146192,note_off,,,,,80,0,12,,,,,5,,,43,100
146192,note_off,,,,,80,0,15,,,,,7,,,71,100
146192,note_off,,,,,80,0,14,,,,,6,,,55,100
146192,note_off,,,,,0,0,15,,,,,7,,,67,100
146192,note_off,,,,,0,0,13,,,,,6,,,62,100
146192,note_off,,,,,80,0,13,,,,,6,,,71,100
146192,note_off,,,,,80,0,9,,,,,2,,,71,100
146192,note_off,,,,,0,0,15,,,,,7,,,62,100
146192,note_off,,,,,80,0,16,,,,,7,,,55,100
146192,note_off,,,,,80,0,8,,,,,1,,,79,100
146192,note_off,,,,,80,0,11,,,,,4,,,55,100
146192,note_off,,,,,80,0,10,,,,,3,,,62,100
146192,note_off,,,,,0,0,13,,,,,6,,,67,100
146304,note_on,,,,,0,0,13,,,,,6,,,74,100
146304,note_on,,,,,112,0,11,,,,,4,,,62,80
146304,note_on,,,,,0,0,15,,,,,7,,,66,100
146304,note_on,,,,,112,0,13,,,,,6,,,69,100
146304,note_on,,,,,0,0,15,,,,,7,,,74,100
146304,note_on,,,,,112,0,10,,,,,3,,,62,80
146304,note_on,,,,,112,0,8,,,,,1,,,81,80
146304,note_on,,,,,112,0,16,,,,,7,,,62,100
146304,note_on,,,,,112,0,15,,,,,7,,,69,100
146304,note_on,,,,,112,0,9,,,,,2,,,78,80
146304,note_on,,,,,112,0,14,,,,,6,,,62,100
146304,note_on,,,,,112,0,12,,,,,5,,,50,80
146304,note_on,,,,,0,0,13,,,,,6,,,66,100
146384,note_off,,,,,80,0,9,,,,,2,,,78,100
146384,note_off,,,,,80,0,8,,,,,1,,,81,100
146496,note_on,,,,,112,0,9,,,,,2,,,74,80
146496,note_on,,,,,112,0,8,,,,,1,,,78,80
146560,note_off,,,,,256,0,13,,,,,6,,,69,100
146560,note_off,,,,,256,0,12,,,,,5,,,50,100
146560,note_off,,,,,0,0,15,,,,,7,,,74,100
146560,note_off,,,,,0,0,15,,,,,7,,,66,100
146560,note_off,,,,,256,0,11,,,,,4,,,62,100
146560,note_off,,,,,256,0,15,,,,,7,,,69,100
146560,note_off,,,,,0,0,13,,,,,6,,,74,100
146560,note_off,,,,,0,0,13,,,,,6,,,66,100
146560,note_off,,,,,256,0,10,,,,,3,,,62,100
146560,note_off,,,,,256,0,16,,,,,7,,,62,100
146560,note_off,,,,,256,0,14,,,,,6,,,62,100
146576,note_off,,,,,80,0,8,,,,,1,,,78,100
146576,note_off,,,,,80,0,9,,,,,2,,,74,100
146688,note_on,,,,,112,0,8,,,,,1,,,74,80
146688,note_on,,,,,112,0,9,,,,,2,,,69,80
146768,note_off,,,,,80,0,9,,,,,2,,,69,100
146768,note_off,,,,,80,0,8,,,,,1,,,74,100
146880,note_on,,,,,320,0,16,,,,,7,,,50,100
146880,note_on,,,,,0,0,15,,,,,7,,,66,100
146880,note_on,,,,,320,0,14,,,,,6,,,50,100
146880,note_on,,,,,320,0,12,,,,,5,,,38,80
146880,note_on,,,,,0,0,13,,,,,6,,,69,100
146880,note_on,,,,,320,0,13,,,,,6,,,62,100
146880,note_on,,,,,0,0,13,,,,,6,,,66,100
146880,note_on,,,,,320,0,15,,,,,7,,,62,100
146880,note_on,,,,,0,0,15,,,,,7,,,69,100
146880,note_on,,,,,320,0,10,,,,,3,,,62,80
146880,note_on,,,,,112,0,8,,,,,1,,,78,80
146880,note_on,,,,,112,0,9,,,,,2,,,74,80
146880,note_on,,,,,320,0,11,,,,,4,,,50,80
146960,note_off,,,,,80,0,15,,,,,7,,,62,100
146960,note_off,,,,,80,0,12,,,,,5,,,38,100
146960,note_off,,,,,80,0,10,,,,,3,,,62,100
146960,note_off,,,,,80,0,11,,,,,4,,,50,100
146960,note_off,,,,,80,0,9,,,,,2,,,74,100
146960,note_off,,,,,0,0,13,,,,,6,,,66,100
146960,note_off,,,,,80,0,13,,,,,6,,,62,100
146960,note_off,,,,,80,0,16,,,,,7,,,50,100
146960,note_off,,,,,0,0,13,,,,,6,,,69,100
146960,note_off,,,,,80,0,8,,,,,1,,,78,100
146960,note_off,,,,,80,0,14,,,,,6,,,50,100
146960,note_off,,,,,0,0,15,,,,,7,,,69,100
146960,note_off,,,,,0,0,15,,,,,7,,,66,100
147072,note_on,,,,,112,0,10,,,,,3,,,62,81
147072,note_on,,,,,0,0,15,,,,,7,,,66,100
147072,note_on,,,,,0,0,13,,,,,6,,,66,100
147072,note_on,,,,,0,0,13,,,,,6,,,69,100
147072,note_on,,,,,112,0,11,,,,,4,,,50,81
147072,note_on,,,,,112,0,8,,,,,1,,,81,81
147072,note_on,,,,,112,0,13,,,,,6,,,62,100
147072,note_on,,,,,112,0,14,,,,,6,,,50,100
147072,note_on,,,,,112,0,15,,,,,7,,,62,100
147072,note_on,,,,,112,0,12,,,,,5,,,38,81
147072,note_on,,,,,0,0,15,,,,,7,,,69,100
147072,note_on,,,,,112,0,9,,,,,2,,,78,81
147072,note_on,,,,,112,0,16,,,,,7,,,50,100
147152,note_off,,,,,80,0,13,,,,,6,,,62,100
147152,note_off,,,,,80,0,8,,,,,1,,,81,100
147152,note_off,,,,,0,0,15,,,,,7,,,69,100
147152,note_off,,,,,80,0,15,,,,,7,,,62,100
147152,note_off,,,,,80,0,10,,,,,3,,,62,100
147152,note_off,,,,,0,0,15,,,,,7,,,66,100
147152,note_off,,,,,0,0,13,,,,,6,,,69,100
147152,note_off,,,,,80,0,16,,,,,7,,,50,100
147152,note_off,,,,,80,0,12,,,,,5,,,38,100
147152,note_off,,,,,80,0,11,,,,,4,,,50,100
147152,note_off,,,,,80,0,14,,,,,6,,,50,100
147152,note_off,,,,,0,0,13,,,,,6,,,66,100
147152,note_off,,,,,80,0,9,,,,,2,,,78,100
147264,note_on,,,,,112,0,12,,,,,5,,,38,83
147264,note_on,,,,,112,0,8,,,,,1,,,78,83
147264,note_on,,,,,0,0,15,,,,,7,,,69,100
147264,note_on,,,,,0,0,13,,,,,6,,,66,100
147264,note_on,,,,,112,0,15,,,,,7,,,62,100
147264,note_on,,,,,112,0,14,,,,,6,,,50,100
147264,note_on,,,,,112,0,16,,,,,7,,,50,100
147264,note_on,,,,,112,0,13,,,,,6,,,62,100
147264,note_on,,,,,0,0,13,,,,,6,,,69,100
147264,note_on,,,,,112,0,11,,,,,4,,,50,83
147264,note_on,,,,,112,0,10,,,,,3,,,62,83
147264,note_on,,,,,112,0,9,,,,,2,,,81,83
147264,note_on,,,,,0,0,15,,,,,7,,,66,100
147344,note_off,,,,,80,0,11,,,,,4,,,50,100
147344,note_off,,,,,0,0,15,,,,,7,,,69,100
147344,note_off,,,,,80,0,15,,,,,7,,,62,100
147344,note_off,,,,,80,0,14,,,,,6,,,50,100
147344,note_off,,,,,0,0,15,,,,,7,,,66,100
147344,note_off,,,,,80,0,12,,,,,5,,,38,100
147344,note_off,,,,,80,0,16,,,,,7,,,50,100
147344,note_off,,,,,80,0,8,,,,,1,,,78,100
147344,note_off,,,,,80,0,13,,,,,6,,,62,100
147344,note_off,,,,,0,0,13,,,,,6,,,69,100
147344,note_off,,,,,80,0,10,,,,,3,,,62,100
147344,note_off,,,,,80,0,9,,,,,2,,,81,100
147344,note_off,,,,,0,0,13,,,,,6,,,66,100
147456,note_on,,,,,0,0,13,,,,,6,,,59,100
147456,note_on,,,,,0,0,15,,,,,7,,,62,100
147456,note_on,,,,,112,0,9,,,,,2,,,83,85
147456,note_on,,,,,112,0,16,,,,,7,,,43,100
147456,note_on,,,,,112,0,8,,,,,1,,,79,85
147456,note_on,,,,,0,0,13,,,,,6,,,67,100
147456,note_on,,,,,112,0,12,,,,,5,,,31,85
147456,note_on,,,,,112,0,10,,,,,3,,,62,85
147456,note_on,,,,,4480,0,7,,,,,0,,,79,90
147456,note_on,,,,,112,0,14,,,,,6,,,43,100
147456,note_on,,,,,112,0,13,,,,,6,,,62,100
147456,note_on,,,,,112,0,11,,,,,4,,,43,85
147456,note_on,,,,,0,0,15,,,,,7,,,59,100
147456,note_on,,,,,112,0,15,,,,,7,,,67,100
147520,note_off,,,,,64,0,7,,,,,0,,,79,100
147552,note_on,,,,,32,0,7,,,,,0,,,71,90
147556,note_off,,,,,100,0,10,,,,,3,,,62,100
147556,note_off,,,,,100,0,8,,,,,1,,,79,100
147616,note_off,,,,,64,0,7,,,,,0,,,71,100
147648,note_on,,,,,32,0,7,,,,,0,,,79,90
147648,note_on,,,,,92,0,8,,,,,1,,,71,85
147648,note_on,,,,,92,0,10,,,,,3,,,62,85
147712,note_off,,,,,256,0,16,,,,,7,,,43,100
147712,note_off,,,,,256,0,14,,,,,6,,,43,100
147712,note_off,,,,,64,0,7,,,,,0,,,79,100
147712,note_off,,,,,256,0,9,,,,,2,,,83,100
147712,note_off,,,,,256,0,12,,,,,5,,,31,100
147712,note_off,,,,,256,0,11,,,,,4,,,43,100
147712,note_off,,,,,0,0,13,,,,,6,,,67,100
147712,note_off,,,,,0,0,13,,,,,6,,,59,100
147712,note_off,,,,,256,0,13,,,,,6,,,62,100
147728,note_off,,,,,80,0,8,,,,,1,,,71,100
147728,note_off,,,,,80,0,10,,,,,3,,,62,100
147744,note_on,,,,,32,0,7,,,,,0,,,71,90
147808,note_off,,,,,64,0,7,,,,,0,,,71,100
147840,note_on,,,,,32,0,7,,,,,0,,,79,90
147840,note_on,,,,,112,0,10,,,,,3,,,67,86
147840,note_on,,,,,112,0,8,,,,,1,,,74,86
147904,note_off,,,,,64,0,7,,,,,0,,,79,100
147920,note_off,,,,,80,0,10,,,,,3,,,67,100
147920,note_off,,,,,80,0,8,,,,,1,,,74,100
147936,note_on,,,,,32,0,7,,,,,0,,,71,91
148000,note_off,,,,,64,0,7,,,,,0,,,71,100
148032,note_on,,,,,320,0,16,,,,,7,,,43,100
148032,note_on,,,,,32,0,7,,,,,0,,,79,91
148032,note_on,,,,,112,0,8,,,,,1,,,79,86
148032,note_on,,,,,320,0,12,,,,,5,,,31,86
148032,note_on,,,,,112,0,10,,,,,3,,,62,86
148032,note_on,,,,,320,0,11,,,,,4,,,43,86
148032,note_on,,,,,320,0,14,,,,,6,,,43,100
148032,note_on,,,,,320,0,13,,,,,6,,,62,100
148032,note_on,,,,,0,0,13,,,,,6,,,59,100
148032,note_on,,,,,0,0,13,,,,,6,,,67,100
148096,note_off,,,,,64,0,7,,,,,0,,,79,100
148112,note_off,,,,,80,0,14,,,,,6,,,43,100
148112,note_off,,,,,80,0,12,,,,,5,,,31,100
148112,note_off,,,,,0,0,13,,,,,6,,,67,100
148112,note_off,,,,,0,0,13,,,,,6,,,59,100
148112,note_off,,,,,80,0,10,,,,,3,,,62,100
148112,note_off,,,,,80,0,8,,,,,1,,,79,100
148112,note_off,,,,,80,0,11,,,,,4,,,43,100
148112,note_off,,,,,80,0,13,,,,,6,,,62,100
148112,note_off,,,,,80,0,16,,,,,7,,,43,100
148128,note_on,,,,,32,0,7,,,,,0,,,71,91
148192,note_off,,,,,64,0,7,,,,,0,,,71,100
148224,note_on,,,,,512,0,9,,,,,2,,,79,87
148224,note_on,,,,,112,0,13,,,,,6,,,62,100
148224,note_on,,,,,0,0,13,,,,,6,,,59,100
148224,note_on,,,,,0,0,13,,,,,6,,,67,100
148224,note_on,,,,,112,0,14,,,,,6,,,43,100
148224,note_on,,,,,112,0,11,,,,,4,,,43,87
148224,note_on,,,,,32,0,7,,,,,0,,,79,91
148224,note_on,,,,,112,0,8,,,,,1,,,74,87
148224,note_on,,,,,112,0,10,,,,,3,,,59,87
148224,note_on,,,,,112,0,12,,,,,5,,,31,87
148224,note_on,,,,,112,0,16,,,,,7,,,43,100
148288,note_off,,,,,64,0,7,,,,,0,,,79,100
148304,note_off,,,,,80,0,16,,,,,7,,,43,100
148304,note_off,,,,,80,0,10,,,,,3,,,59,100
148304,note_off,,,,,80,0,12,,,,,5,,,31,100
148304,note_off,,,,,80,0,8,,,,,1,,,74,100
148304,note_off,,,,,80,0,13,,,,,6,,,62,100
148304,note_off,,,,,80,0,14,,,,,6,,,43,100
148304,note_off,,,,,0,0,13,,,,,6,,,59,100
148304,note_off,,,,,0,0,13,,,,,6,,,67,100
148304,note_off,,,,,80,0,11,,,,,4,,,43,100
148320,note_on,,,,,32,0,7,,,,,0,,,71,91
148384,note_off,,,,,64,0,7,,,,,0,,,71,100
148416,note_on,,,,,112,0,11,,,,,4,,,43,87
148416,note_on,,,,,112,0,8,,,,,1,,,71,87
148416,note_on,,,,,112,0,10,,,,,3,,,55,87
148416,note_on,,,,,112,0,12,,,,,5,,,31,87
148416,note_on,,,,,0,0,13,,,,,6,,,67,100
148416,note_on,,,,,112,0,16,,,,,7,,,43,100
148416,note_on,,,,,32,0,7,,,,,0,,,79,92
148416,note_on,,,,,0,0,13,,,,,6,,,59,100
148416,note_on,,,,,112,0,13,,,,,6,,,62,100
148416,note_on,,,,,112,0,14,,,,,6,,,43,100
148480,note_off,,,,,64,0,7,,,,,0,,,79,100
148480,note_off,,,,,256,0,9,,,,,2,,,79,100
148492,note_off,,,,,0,0,15,,,,,7,,,62,100
148492,note_off,,,,,1036,0,15,,,,,7,,,59,100
148496,note_off,,,,,80,0,14,,,,,6,,,43,100
148496,note_off,,,,,80,0,11,,,,,4,,,43,100
148496,note_off,,,,,80,0,8,,,,,1,,,71,100
148496,note_off,,,,,80,0,13,,,,,6,,,62,100
148496,note_off,,,,,80,0,10,,,,,3,,,55,100
148496,note_off,,,,,0,0,13,,,,,6,,,67,100
148496,note_off,,,,,80,0,16,,,,,7,,,43,100
148496,note_off,,,,,80,0,12,,,,,5,,,31,100
148496,note_off,,,,,0,0,13,,,,,6,,,59,100
148512,note_on,,,,,32,0,7,,,,,0,,,71,92
148576,note_off,,,,,64,0,7,,,,,0,,,71,100
148608,note_on,,,,,112,0,8,,,,,1,,,76,88
148608,note_on,,,,,128,0,9,,,,,2,,,79,88
148608,note_on,,,,,0,0,15,,,,,7,,,64,100
148608,note_on,,,,,112,0,14,,,,,6,,,48,100
148608,note_on,,,,,112,0,16,,,,,7,,,48,100
148608,note_on,,,,,112,0,12,,,,,5,,,36,88
148608,note_on,,,,,32,0,7,,,,,0,,,79,92
148608,note_on,,,,,112,0,11,,,,,4,,,48,88
148608,note_on,,,,,0,0,13,,,,,6,,,67,100
148608,note_on,,,,,0,0,13,,,,,6,,,64,100
148608,note_on,,,,,112,0,13,,,,,6,,,60,100
148608,note_on,,,,,116,0,15,,,,,7,,,60,100
148672,note_off,,,,,64,0,7,,,,,0,,,79,100
148688,note_off,,,,,80,0,8,,,,,1,,,76,100
148704,note_on,,,,,32,0,7,,,,,0,,,72,92
148768,note_off,,,,,64,0,7,,,,,0,,,72,100
148800,note_on,,,,,304,0,10,,,,,3,,,55,88
148800,note_on,,,,,32,0,7,,,,,0,,,79,92
148800,note_on,,,,,112,0,8,,,,,1,,,72,88
148864,note_off,,,,,256,0,11,,,,,4,,,48,100
148864,note_off,,,,,64,0,7,,,,,0,,,79,100
148864,note_off,,,,,256,0,13,,,,,6,,,60,100
148864,note_off,,,,,0,0,13,,,,,6,,,64,100
148864,note_off,,,,,0,0,13,,,,,6,,,67,100
148864,note_off,,,,,256,0,16,,,,,7,,,48,100
148864,note_off,,,,,256,0,14,,,,,6,,,48,100
148864,note_off,,,,,256,0,12,,,,,5,,,36,100
148880,note_off,,,,,80,0,8,,,,,1,,,72,100
148880,note_off,,,,,80,0,10,,,,,3,,,55,100
148896,note_on,,,,,32,0,7,,,,,0,,,72,93
148960,note_off,,,,,64,0,7,,,,,0,,,72,100
148988,note_off,,,,,380,0,9,,,,,2,,,79,100
148992,note_on,,,,,112,0,10,,,,,3,,,60,89
148992,note_on,,,,,4,0,9,,,,,2,,,76,89
148992,note_on,,,,,112,0,8,,,,,1,,,76,89
148992,note_on,,,,,32,0,7,,,,,0,,,79,93
149056,note_off,,,,,64,0,7,,,,,0,,,79,100
149072,note_off,,,,,80,0,10,,,,,3,,,60,100
149072,note_off,,,,,80,0,8,,,,,1,,,76,100
149088,note_on,,,,,32,0,7,,,,,0,,,72,93
149152,note_off,,,,,64,0,7,,,,,0,,,72,100
149184,note_on,,,,,320,0,16,,,,,7,,,52,100
149184,note_on,,,,,112,0,8,,,,,1,,,79,89
149184,note_on,,,,,320,0,12,,,,,5,,,40,89
149184,note_on,,,,,320,0,14,,,,,6,,,52,100
149184,note_on,,,,,32,0,7,,,,,0,,,79,93
149184,note_on,,,,,320,0,11,,,,,4,,,52,89
149184,note_on,,,,,112,0,10,,,,,3,,,64,89
149184,note_on,,,,,320,0,13,,,,,6,,,60,100
149184,note_on,,,,,0,0,13,,,,,6,,,64,100
149184,note_on,,,,,0,0,13,,,,,6,,,67,100
149248,note_off,,,,,64,0,7,,,,,0,,,79,100
149248,note_off,,,,,256,0,9,,,,,2,,,76,100
149264,note_off,,,,,0,0,13,,,,,6,,,67,100
149264,note_off,,,,,80,0,11,,,,,4,,,52,100
149264,note_off,,,,,80,0,13,,,,,6,,,60,100
149264,note_off,,,,,0,0,13,,,,,6,,,64,100
149264,note_off,,,,,80,0,8,,,,,1,,,79,100
149264,note_off,,,,,80,0,14,,,,,6,,,52,100
149264,note_off,,,,,80,0,10,,,,,3,,,64,100
149264,note_off,,,,,80,0,12,,,,,5,,,40,100
149264,note_off,,,,,80,0,16,,,,,7,,,52,100
149280,note_on,,,,,32,0,7,,,,,0,,,72,93
149344,note_off,,,,,64,0,7,,,,,0,,,72,100
149376,note_on,,,,,112,0,10,,,,,3,,,67,90
149376,note_on,,,,,112,0,11,,,,,4,,,52,90
149376,note_on,,,,,112,0,12,,,,,5,,,40,90
149376,note_on,,,,,112,0,8,,,,,1,,,76,90
149376,note_on,,,,,112,0,16,,,,,7,,,52,100
149376,note_on,,,,,0,0,13,,,,,6,,,67,100
149376,note_on,,,,,128,0,9,,,,,2,,,72,90
149376,note_on,,,,,32,0,7,,,,,0,,,79,94
149376,note_on,,,,,112,0,13,,,,,6,,,60,100
149376,note_on,,,,,112,0,14,,,,,6,,,52,100
149376,note_on,,,,,0,0,13,,,,,6,,,64,100
149440,note_off,,,,,64,0,7,,,,,0,,,79,100
149456,note_off,,,,,0,0,13,,,,,6,,,67,100
149456,note_off,,,,,80,0,8,,,,,1,,,76,100
149456,note_off,,,,,80,0,14,,,,,6,,,52,100
149456,note_off,,,,,80,0,12,,,,,5,,,40,100
149456,note_off,,,,,80,0,13,,,,,6,,,60,100
149456,note_off,,,,,80,0,10,,,,,3,,,67,100
149456,note_off,,,,,80,0,11,,,,,4,,,52,100
149456,note_off,,,,,80,0,16,,,,,7,,,52,100
149456,note_off,,,,,0,0,13,,,,,6,,,64,100
149472,note_on,,,,,32,0,7,,,,,0,,,72,94
149536,note_off,,,,,64,0,7,,,,,0,,,72,100
149568,note_on,,,,,112,0,13,,,,,6,,,60,100
149568,note_on,,,,,112,0,10,,,,,3,,,64,91
149568,note_on,,,,,112,0,8,,,,,1,,,72,91
149568,note_on,,,,,112,0,11,,,,,4,,,52,91
149568,note_on,,,,,112,0,12,,,,,5,,,40,91
149568,note_on,,,,,32,0,7,,,,,0,,,79,94
149568,note_on,,,,,112,0,14,,,,,6,,,52,100
149568,note_on,,,,,0,0,13,,,,,6,,,64,100
149568,note_on,,,,,0,0,13,,,,,6,,,67,100
149568,note_on,,,,,112,0,16,,,,,7,,,52,100
149632,note_off,,,,,256,0,9,,,,,2,,,72,100
149632,note_off,,,,,64,0,7,,,,,0,,,79,100
149644,note_off,,,,,1036,0,15,,,,,7,,,67,100
149644,note_off,,,,,0,0,15,,,,,7,,,64,100
149644,note_off,,,,,0,0,15,,,,,7,,,60,100
149648,note_off,,,,,80,0,12,,,,,5,,,40,100
149648,note_off,,,,,80,0,16,,,,,7,,,52,100
149648,note_off,,,,,80,0,11,,,,,4,,,52,100
149648,note_off,,,,,0,0,13,,,,,6,,,67,100
149648,note_off,,,,,80,0,14,,,,,6,,,52,100
149648,note_off,,,,,80,0,13,,,,,6,,,60,100
149648,note_off,,,,,80,0,8,,,,,1,,,72,100
149648,note_off,,,,,80,0,10,,,,,3,,,64,100
149648,note_off,,,,,0,0,13,,,,,6,,,64,100
149664,note_on,,,,,32,0,7,,,,,0,,,72,94
149728,note_off,,,,,64,0,7,,,,,0,,,72,100
149760,note_on,,,,,112,0,13,,,,,6,,,64,100
149760,note_on,,,,,32,0,7,,,,,0,,,81,94
149760,note_on,,,,,0,0,13,,,,,6,,,61,100
149760,note_on,,,,,0,0,13,,,,,6,,,69,100
149760,note_on,,,,,112,0,14,,,,,6,,,49,100
149760,note_on,,,,,112,0,8,,,,,1,,,76,91
149760,note_on,,,,,0,0,15,,,,,7,,,61,100
149760,note_on,,,,,0,0,15,,,,,7,,,64,100
149760,note_on,,,,,128,0,9,,,,,2,,,69,91
149760,note_on,,,,,112,0,16,,,,,7,,,49,100
149760,note_on,,,,,112,0,11,,,,,4,,,49,91
149760,note_on,,,,,116,0,15,,,,,7,,,69,100
149760,note_on,,,,,112,0,12,,,,,5,,,37,91
149824,note_off,,,,,64,0,7,,,,,0,,,81,100
149840,note_off,,,,,80,0,8,,,,,1,,,76,100
149856,note_on,,,,,32,0,7,,,,,0,,,73,95
149920,note_off,,,,,64,0,7,,,,,0,,,73,100
149952,note_on,,,,,32,0,7,,,,,0,,,81,95
149952,note_on,,,,,112,0,8,,,,,1,,,73,92
149952,note_on,,,,,304,0,10,,,,,3,,,64,92
150016,note_off,,,,,64,0,7,,,,,0,,,81,100
150016,note_off,,,,,0,0,13,,,,,6,,,69,100
150016,note_off,,,,,0,0,13,,,,,6,,,61,100
150016,note_off,,,,,256,0,9,,,,,2,,,69,100
150016,note_off,,,,,256,0,13,,,,,6,,,64,100
150016,note_off,,,,,256,0,11,,,,,4,,,49,100
150016,note_off,,,,,256,0,12,,,,,5,,,37,100
150016,note_off,,,,,256,0,14,,,,,6,,,49,100
150016,note_off,,,,,256,0,16,,,,,7,,,49,100
150032,note_off,,,,,80,0,10,,,,,3,,,64,100
150032,note_off,,,,,80,0,8,,,,,1,,,73,100
150048,note_on,,,,,32,0,7,,,,,0,,,73,95
150112,note_off,,,,,64,0,7,,,,,0,,,73,100
150144,note_on,,,,,112,0,8,,,,,1,,,76,92
150144,note_on,,,,,112,0,10,,,,,3,,,69,92
150144,note_on,,,,,32,0,7,,,,,0,,,81,95
150208,note_off,,,,,64,0,7,,,,,0,,,81,100
150224,note_off,,,,,80,0,10,,,,,3,,,69,100
150224,note_off,,,,,80,0,8,,,,,1,,,76,100
150240,note_on,,,,,32,0,7,,,,,0,,,73,96
150304,note_off,,,,,64,0,7,,,,,0,,,73,100
150336,note_on,,,,,0,0,13,,,,,6,,,69,100
150336,note_on,,,,,0,0,13,,,,,6,,,61,100
150336,note_on,,,,,320,0,13,,,,,6,,,64,100
150336,note_on,,,,,112,0,10,,,,,3,,,64,93
150336,note_on,,,,,32,0,7,,,,,0,,,81,96
150336,note_on,,,,,112,0,8,,,,,1,,,81,93
150336,note_on,,,,,320,0,14,,,,,6,,,45,100
150336,note_on,,,,,320,0,11,,,,,4,,,45,93
150336,note_on,,,,,320,0,12,,,,,5,,,33,93
150336,note_on,,,,,320,0,16,,,,,7,,,45,100
150400,note_off,,,,,64,0,7,,,,,0,,,81,100
150416,note_off,,,,,80,0,14,,,,,6,,,45,100
150416,note_off,,,,,80,0,13,,,,,6,,,64,100
150416,note_off,,,,,80,0,16,,,,,7,,,45,100
150416,note_off,,,,,0,0,13,,,,,6,,,61,100
150416,note_off,,,,,80,0,12,,,,,5,,,33,100
150416,note_off,,,,,80,0,11,,,,,4,,,45,100
150416,note_off,,,,,0,0,13,,,,,6,,,69,100
150416,note_off,,,,,80,0,10,,,,,3,,,64,100
150416,note_off,,,,,80,0,8,,,,,1,,,81,100
150432,note_on,,,,,32,0,7,,,,,0,,,73,96
150496,note_off,,,,,64,0,7,,,,,0,,,73,100
150528,note_on,,,,,512,0,9,,,,,2,,,81,93
150528,note_on,,,,,112,0,12,,,,,5,,,33,93
150528,note_on,,,,,112,0,16,,,,,7,,,45,100
150528,note_on,,,,,112,0,11,,,,,4,,,45,93
150528,note_on,,,,,32,0,7,,,,,0,,,81,96
150528,note_on,,,,,112,0,14,,,,,6,,,45,100
150528,note_on,,,,,112,0,10,,,,,3,,,61,93
150528,note_on,,,,,112,0,8,,,,,1,,,76,93
150528,note_on,,,,,112,0,13,,,,,6,,,64,100
150528,note_on,,,,,0,0,13,,,,,6,,,61,100
150528,note_on,,,,,0,0,13,,,,,6,,,69,100
150592,note_off,,,,,64,0,7,,,,,0,,,81,100
150608,note_off,,,,,0,0,13,,,,,6,,,69,100
150608,note_off,,,,,80,0,10,,,,,3,,,61,100
150608,note_off,,,,,0,0,13,,,,,6,,,61,100
150608,note_off,,,,,80,0,11,,,,,4,,,45,100
150608,note_off,,,,,80,0,14,,,,,6,,,45,100
150608,note_off,,,,,80,0,8,,,,,1,,,76,100
150608,note_off,,,,,80,0,13,,,,,6,,,64,100
150608,note_off,,,,,80,0,12,,,,,5,,,33,100
150608,note_off,,,,,80,0,16,,,,,7,,,45,100
150624,note_on,,,,,32,0,7,,,,,0,,,73,96
150688,note_off,,,,,64,0,7,,,,,0,,,73,100
150720,note_on,,,,,0,0,13,,,,,6,,,69,100
150720,note_on,,,,,0,0,13,,,,,6,,,61,100
150720,note_on,,,,,112,0,14,,,,,6,,,45,100
150720,note_on,,,,,112,0,13,,,,,6,,,64,100
150720,note_on,,,,,112,0,10,,,,,3,,,57,94
150720,note_on,,,,,112,0,16,,,,,7,,,45,100
150720,note_on,,,,,112,0,8,,,,,1,,,73,94
150720,note_on,,,,,112,0,12,,,,,5,,,33,94
150720,note_on,,,,,112,0,11,,,,,4,,,45,94
150720,note_on,,,,,32,0,7,,,,,0,,,81,97
150784,note_off,,,,,256,0,9,,,,,2,,,81,100
150784,note_off,,,,,64,0,7,,,,,0,,,81,100
150796,note_off,,,,,1036,0,15,,,,,7,,,61,100
150796,note_off,,,,,0,0,15,,,,,7,,,64,100
150800,note_off,,,,,80,0,16,,,,,7,,,45,100
150800,note_off,,,,,80,0,12,,,,,5,,,33,100
150800,note_off,,,,,80,0,11,,,,,4,,,45,100
150800,note_off,,,,,80,0,13,,,,,6,,,64,100
150800,note_off,,,,,80,0,14,,,,,6,,,45,100
150800,note_off,,,,,0,0,13,,,,,6,,,61,100
150800,note_off,,,,,0,0,13,,,,,6,,,69,100
150800,note_off,,,,,80,0,10,,,,,3,,,57,100
150800,note_off,,,,,80,0,8,,,,,1,,,73,100
150816,note_on,,,,,32,0,7,,,,,0,,,73,97
150880,note_off,,,,,64,0,7,,,,,0,,,73,100
150912,note_on,,,,,0,0,15,,,,,7,,,66,100
150912,note_on,,,,,116,0,15,,,,,7,,,62,100
150912,note_on,,,,,128,0,9,,,,,2,,,81,94
150912,note_on,,,,,112,0,8,,,,,1,,,78,94
150912,note_on,,,,,0,0,13,,,,,6,,,66,100
150912,note_on,,,,,112,0,16,,,,,7,,,50,100
150912,note_on,,,,,112,0,13,,,,,6,,,62,100
150912,note_on,,,,,112,0,12,,,,,5,,,38,94
150912,note_on,,,,,0,0,13,,,,,6,,,69,100
150912,note_on,,,,,32,0,7,,,,,0,,,81,97
150912,note_on,,,,,112,0,14,,,,,6,,,50,100
150912,note_on,,,,,112,0,11,,,,,4,,,50,94
150976,note_off,,,,,64,0,7,,,,,0,,,81,100
150992,note_off,,,,,80,0,8,,,,,1,,,78,100
151008,note_on,,,,,32,0,7,,,,,0,,,74,97
151072,note_off,,,,,64,0,7,,,,,0,,,74,100
151104,note_on,,,,,304,0,10,,,,,3,,,57,95
151104,note_on,,,,,112,0,8,,,,,1,,,74,95
151104,note_on,,,,,32,0,7,,,,,0,,,81,97
151168,note_off,,,,,256,0,12,,,,,5,,,38,100
151168,note_off,,,,,256,0,13,,,,,6,,,62,100
151168,note_off,,,,,256,0,14,,,,,6,,,50,100
151168,note_off,,,,,0,0,13,,,,,6,,,66,100
151168,note_off,,,,,256,0,16,,,,,7,,,50,100
151168,note_off,,,,,256,0,11,,,,,4,,,50,100
151168,note_off,,,,,64,0,7,,,,,0,,,81,100
151168,note_off,,,,,0,0,13,,,,,6,,,69,100
151184,note_off,,,,,80,0,10,,,,,3,,,57,100
151184,note_off,,,,,80,0,8,,,,,1,,,74,100
151200,note_on,,,,,32,0,7,,,,,0,,,74,98
151264,note_off,,,,,64,0,7,,,,,0,,,74,100
151292,note_off,,,,,380,0,9,,,,,2,,,81,100
151296,note_on,,,,,4,0,9,,,,,2,,,78,96
151296,note_on,,,,,112,0,8,,,,,1,,,78,96
151296,note_on,,,,,112,0,10,,,,,3,,,62,96
151296,note_on,,,,,32,0,7,,,,,0,,,81,98
151360,note_off,,,,,64,0,7,,,,,0,,,81,100
151376,note_off,,,,,80,0,8,,,,,1,,,78,100
151376,note_off,,,,,80,0,10,,,,,3,,,62,100
151392,note_on,,,,,32,0,7,,,,,0,,,74,98
151456,note_off,,,,,64,0,7,,,,,0,,,74,100
151488,note_on,,,,,320,0,14,,,,,6,,,54,100
151488,note_on,,,,,320,0,11,,,,,4,,,54,96
151488,note_on,,,,,320,0,12,,,,,5,,,42,96
151488,note_on,,,,,112,0,8,,,,,1,,,81,96
151488,note_on,,,,,112,0,10,,,,,3,,,66,96
151488,note_on,,,,,320,0,13,,,,,6,,,62,100
151488,note_on,,,,,0,0,13,,,,,6,,,66,100
151488,note_on,,,,,0,0,13,,,,,6,,,69,100
151488,note_on,,,,,320,0,16,,,,,7,,,54,100
151488,note_on,,,,,32,0,7,,,,,0,,,81,98
151552,note_off,,,,,256,0,9,,,,,2,,,78,100
151552,note_off,,,,,64,0,7,,,,,0,,,81,100
151568,note_off,,,,,80,0,13,,,,,6,,,62,100
151568,note_off,,,,,80,0,12,,,,,5,,,42,100
151568,note_off,,,,,80,0,14,,,,,6,,,54,100
151568,note_off,,,,,80,0,10,,,,,3,,,66,100
151568,note_off,,,,,80,0,16,,,,,7,,,54,100
151568,note_off,,,,,80,0,8,,,,,1,,,81,100
151568,note_off,,,,,80,0,11,,,,,4,,,54,100
151568,note_off,,,,,0,0,13,,,,,6,,,66,100
151568,note_off,,,,,0,0,13,,,,,6,,,69,100
151584,note_on,,,,,32,0,7,,,,,0,,,74,98
151648,note_off,,,,,64,0,7,,,,,0,,,74,100
151680,note_on,,,,,112,0,10,,,,,3,,,69,97
151680,note_on,,,,,112,0,14,,,,,6,,,54,100
151680,note_on,,,,,32,0,7,,,,,0,,,81,99
151680,note_on,,,,,128,0,9,,,,,2,,,74,97
151680,note_on,,,,,112,0,8,,,,,1,,,78,97
151680,note_on,,,,,112,0,11,,,,,4,,,54,97
151680,note_on,,,,,112,0,12,,,,,5,,,42,97
151680,note_on,,,,,0,0,13,,,,,6,,,66,100
151680,note_on,,,,,0,0,13,,,,,6,,,69,100
151680,note_on,,,,,112,0,16,,,,,7,,,54,100
151680,note_on,,,,,112,0,13,,,,,6,,,62,100
151744,note_off,,,,,64,0,7,,,,,0,,,81,100
151760,note_off,,,,,80,0,11,,,,,4,,,54,100
151760,note_off,,,,,80,0,13,,,,,6,,,62,100
151760,note_off,,,,,80,0,12,,,,,5,,,42,100
151760,note_off,,,,,80,0,16,,,,,7,,,54,100
151760,note_off,,,,,80,0,8,,,,,1,,,78,100
151760,note_off,,,,,80,0,10,,,,,3,,,69,100
151760,note_off,,,,,80,0,14,,,,,6,,,54,100
151760,note_off,,,,,0,0,13,,,,,6,,,69,100
151760,note_off,,,,,0,0,13,,,,,6,,,66,100
151776,note_on,,,,,32,0,7,,,,,0,,,74,99
151840,note_off,,,,,64,0,7,,,,,0,,,74,100
151872,note_on,,,,,112,0,13,,,,,6,,,62,100
151872,note_on,,,,,112,0,16,,,,,7,,,54,100
151872,note_on,,,,,112,0,8,,,,,1,,,74,97
151872,note_on,,,,,32,0,7,,,,,0,,,81,99
151872,note_on,,,,,112,0,11,,,,,4,,,54,97
151872,note_on,,,,,0,0,13,,,,,6,,,66,100
151872,note_on,,,,,112,0,14,,,,,6,,,54,100
151872,note_on,,,,,0,0,13,,,,,6,,,69,100
151872,note_on,,,,,112,0,12,,,,,5,,,42,97
151872,note_on,,,,,112,0,10,,,,,3,,,66,97
151936,note_off,,,,,256,0,9,,,,,2,,,74,100
151936,note_off,,,,,64,0,7,,,,,0,,,81,100
151948,note_off,,,,,1036,0,15,,,,,7,,,69,100
151948,note_off,,,,,0,0,15,,,,,7,,,62,100
151948,note_off,,,,,0,0,15,,,,,7,,,66,100
151952,note_off,,,,,0,0,13,,,,,6,,,69,100
151952,note_off,,,,,80,0,8,,,,,1,,,74,100
151952,note_off,,,,,80,0,16,,,,,7,,,54,100
151952,note_off,,,,,80,0,10,,,,,3,,,66,100
151952,note_off,,,,,80,0,12,,,,,5,,,42,100
151952,note_off,,,,,80,0,13,,,,,6,,,62,100
151952,note_off,,,,,0,0,13,,,,,6,,,66,100
151952,note_off,,,,,80,0,14,,,,,6,,,54,100
151952,note_off,,,,,80,0,11,,,,,4,,,54,100
151968,note_on,,,,,32,0,7,,,,,0,,,74,99
152032,note_off,,,,,64,0,7,,,,,0,,,74,100
152064,note_on,,,,,0,0,15,,,,,7,,,63,100
152064,note_on,,,,,0,0,13,,,,,6,,,71,100
152064,note_on,,,,,0,0,13,,,,,6,,,63,100
152064,note_on,,,,,112,0,13,,,,,6,,,66,100
152064,note_on,,,,,112,0,8,,,,,1,,,78,98
152064,note_on,,,,,112,0,14,,,,,6,,,51,100
152064,note_on,,,,,112,0,16,,,,,7,,,51,100
152064,note_on,,,,,128,0,9,,,,,2,,,71,98
152064,note_on,,,,,112,0,11,,,,,4,,,51,98
152064,note_on,,,,,116,0,15,,,,,7,,,71,100
152064,note_on,,,,,112,0,12,,,,,5,,,39,98
152064,note_on,,,,,32,0,7,,,,,0,,,83,99
152064,note_on,,,,,0,0,15,,,,,7,,,66,100
152128,note_off,,,,,64,0,7,,,,,0,,,83,100
152144,note_off,,,,,80,0,8,,,,,1,,,78,100
152160,note_on,,,,,32,0,7,,,,,0,,,75,100
152224,note_off,,,,,64,0,7,,,,,0,,,75,100
152256,note_on,,,,,112,0,8,,,,,1,,,75,98
152256,note_on,,,,,304,0,10,,,,,3,,,66,98
152256,note_on,,,,,32,0,7,,,,,0,,,83,100
152320,note_off,,,,,0,0,13,,,,,6,,,63,100
152320,note_off,,,,,256,0,12,,,,,5,,,39,100
152320,note_off,,,,,0,0,13,,,,,6,,,71,100
152320,note_off,,,,,256,0,11,,,,,4,,,51,100
152320,note_off,,,,,256,0,9,,,,,2,,,71,100
152320,note_off,,,,,256,0,16,,,,,7,,,51,100
152320,note_off,,,,,64,0,7,,,,,0,,,83,100
152320,note_off,,,,,256,0,13,,,,,6,,,66,100
152320,note_off,,,,,256,0,14,,,,,6,,,51,100
152336,note_off,,,,,80,0,10,,,,,3,,,66,100
152336,note_off,,,,,80,0,8,,,,,1,,,75,100
152352,note_on,,,,,32,0,7,,,,,0,,,75,100
152416,note_off,,,,,64,0,7,,,,,0,,,75,100
152448,note_on,,,,,112,0,8,,,,,1,,,78,99
152448,note_on,,,,,32,0,7,,,,,0,,,83,100
152448,note_on,,,,,112,0,10,,,,,3,,,71,99
152512,note_off,,,,,64,0,7,,,,,0,,,83,100
152528,note_off,,,,,80,0,8,,,,,1,,,78,100
152528,note_off,,,,,80,0,10,,,,,3,,,71,100
152544,note_on,,,,,32,0,7,,,,,0,,,75,101
152608,note_off,,,,,64,0,7,,,,,0,,,75,100
152640,note_on,,,,,112,0,10,,,,,3,,,66,99
152640,note_on,,,,,0,0,13,,,,,6,,,71,100
152640,note_on,,,,,0,0,13,,,,,6,,,63,100
152640,note_on,,,,,320,0,13,,,,,6,,,66,100
152640,note_on,,,,,112,0,8,,,,,1,,,83,99
152640,note_on,,,,,320,0,14,,,,,6,,,47,100
152640,note_on,,,,,320,0,12,,,,,5,,,35,99
152640,note_on,,,,,320,0,16,,,,,7,,,47,100
152640,note_on,,,,,320,0,11,,,,,4,,,47,99
152640,note_on,,,,,32,0,7,,,,,0,,,83,101
152704,note_off,,,,,64,0,7,,,,,0,,,83,100
152720,note_off,,,,,80,0,16,,,,,7,,,47,100
152720,note_off,,,,,80,0,11,,,,,4,,,47,100
152720,note_off,,,,,0,0,13,,,,,6,,,63,100
152720,note_off,,,,,0,0,13,,,,,6,,,71,100
152720,note_off,,,,,80,0,13,,,,,6,,,66,100
152720,note_off,,,,,80,0,12,,,,,5,,,35,100
152720,note_off,,,,,80,0,8,,,,,1,,,83,100
152720,note_off,,,,,80,0,14,,,,,6,,,47,100
152720,note_off,,,,,80,0,10,,,,,3,,,66,100
152736,note_on,,,,,32,0,7,,,,,0,,,75,101
152800,note_off,,,,,64,0,7,,,,,0,,,75,100
152832,note_on,,,,,32,0,7,,,,,0,,,83,101
152832,note_on,,,,,112,0,16,,,,,7,,,47,100
152832,note_on,,,,,112,0,8,,,,,1,,,78,100
152832,note_on,,,,,512,0,9,,,,,2,,,83,100
152832,note_on,,,,,112,0,13,,,,,6,,,66,100
152832,note_on,,,,,112,0,11,,,,,4,,,47,100
152832,note_on,,,,,112,0,14,,,,,6,,,47,100
152832,note_on,,,,,112,0,12,,,,,5,,,35,100
152832,note_on,,,,,0,0,13,,,,,6,,,71,100
152832,note_on,,,,,0,0,13,,,,,6,,,63,100
152832,note_on,,,,,112,0,10,,,,,3,,,63,100
152896,note_off,,,,,64,0,7,,,,,0,,,83,100
152912,note_off,,,,,80,0,10,,,,,3,,,63,100
152912,note_off,,,,,80,0,12,,,,,5,,,35,100
152912,note_off,,,,,0,0,13,,,,,6,,,63,100
152912,note_off,,,,,0,0,13,,,,,6,,,71,100
152912,note_off,,,,,80,0,13,,,,,6,,,66,100
152912,note_off,,,,,80,0,8,,,,,1,,,78,100
152912,note_off,,,,,80,0,14,,,,,6,,,47,100
152912,note_off,,,,,80,0,11,,,,,4,,,47,100
152912,note_off,,,,,80,0,16,,,,,7,,,47,100
152928,note_on,,,,,32,0,7,,,,,0,,,75,101
152992,note_off,,,,,64,0,7,,,,,0,,,75,100
153024,note_on,,,,,112,0,12,,,,,5,,,35,101
153024,note_on,,,,,112,0,14,,,,,6,,,47,100
153024,note_on,,,,,112,0,10,,,,,3,,,59,101
153024,note_on,,,,,112,0,11,,,,,4,,,47,101
153024,note_on,,,,,0,0,13,,,,,6,,,71,100
153024,note_on,,,,,112,0,8,,,,,1,,,75,101
153024,note_on,,,,,0,0,13,,,,,6,,,63,100
153024,note_on,,,,,112,0,16,,,,,7,,,47,100
153024,note_on,,,,,32,0,7,,,,,0,,,83,102
153024,note_on,,,,,112,0,13,,,,,6,,,66,100
153088,note_off,,,,,64,0,7,,,,,0,,,83,100
153088,note_off,,,,,256,0,9,,,,,2,,,83,100
153100,note_off,,,,,0,0,15,,,,,7,,,66,100
153100,note_off,,,,,1036,0,15,,,,,7,,,63,100
153104,note_off,,,,,80,0,16,,,,,7,,,47,100
153104,note_off,,,,,80,0,10,,,,,3,,,59,100
153104,note_off,,,,,0,0,13,,,,,6,,,71,100
153104,note_off,,,,,80,0,14,,,,,6,,,47,100
153104,note_off,,,,,0,0,13,,,,,6,,,63,100
153104,note_off,,,,,80,0,12,,,,,5,,,35,100
153104,note_off,,,,,80,0,11,,,,,4,,,47,100
153104,note_off,,,,,80,0,13,,,,,6,,,66,100
153104,note_off,,,,,80,0,8,,,,,1,,,75,100
153120,note_on,,,,,32,0,7,,,,,0,,,75,102
153184,note_off,,,,,64,0,7,,,,,0,,,75,100
153216,note_on,,,,,112,0,12,,,,,5,,,40,101
153216,note_on,,,,,0,0,15,,,,,7,,,67,100
153216,note_on,,,,,112,0,16,,,,,7,,,52,100
153216,note_on,,,,,112,0,14,,,,,6,,,52,100
153216,note_on,,,,,112,0,13,,,,,6,,,64,100
153216,note_on,,,,,0,0,13,,,,,6,,,67,100
153216,note_on,,,,,0,0,13,,,,,6,,,71,100
153216,note_on,,,,,128,0,9,,,,,2,,,83,101
153216,note_on,,,,,116,0,15,,,,,7,,,64,100
153216,note_on,,,,,112,0,8,,,,,1,,,79,101
153216,note_on,,,,,32,0,7,,,,,0,,,83,102
153216,note_on,,,,,112,0,11,,,,,4,,,52,101
153280,note_off,,,,,64,0,7,,,,,0,,,83,100
153296,note_off,,,,,80,0,8,,,,,1,,,79,100
153312,note_on,,,,,32,0,7,,,,,0,,,76,102
153376,note_off,,,,,64,0,7,,,,,0,,,76,100
153408,note_on,,,,,112,0,8,,,,,1,,,76,102
153408,note_on,,,,,32,0,7,,,,,0,,,83,102
153408,note_on,,,,,304,0,10,,,,,3,,,59,102
153472,note_off,,,,,256,0,16,,,,,7,,,52,100
153472,note_off,,,,,256,0,11,,,,,4,,,52,100
153472,note_off,,,,,256,0,14,,,,,6,,,52,100
153472,note_off,,,,,0,0,13,,,,,6,,,71,100
153472,note_off,,,,,64,0,7,,,,,0,,,83,100
153472,note_off,,,,,256,0,13,,,,,6,,,64,100
153472,note_off,,,,,0,0,13,,,,,6,,,67,100
153472,note_off,,,,,256,0,12,,,,,5,,,40,100
153488,note_off,,,,,80,0,10,,,,,3,,,59,100
153488,note_off,,,,,80,0,8,,,,,1,,,76,100
153504,note_on,,,,,32,0,7,,,,,0,,,76,103
153568,note_off,,,,,64,0,7,,,,,0,,,76,100
153596,note_off,,,,,380,0,9,,,,,2,,,83,100
153600,note_on,,,,,4,0,9,,,,,2,,,79,102
153600,note_on,,,,,112,0,10,,,,,3,,,64,102
153600,note_on,,,,,32,0,7,,,,,0,,,83,103
153600,note_on,,,,,112,0,8,,,,,1,,,79,102
153664,note_off,,,,,64,0,7,,,,,0,,,83,100
153680,note_off,,,,,80,0,10,,,,,3,,,64,100
153680,note_off,,,,,80,0,8,,,,,1,,,79,100
153696,note_on,,,,,32,0,7,,,,,0,,,76,103
153760,note_off,,,,,64,0,7,,,,,0,,,76,100
153792,note_on,,,,,320,0,12,,,,,5,,,40,103
153792,note_on,,,,,0,0,13,,,,,6,,,71,100
153792,note_on,,,,,320,0,13,,,,,6,,,64,100
153792,note_on,,,,,320,0,11,,,,,4,,,52,103
153792,note_on,,,,,0,0,13,,,,,6,,,67,100
153792,note_on,,,,,112,0,8,,,,,1,,,83,103
153792,note_on,,,,,112,0,10,,,,,3,,,67,103
153792,note_on,,,,,320,0,16,,,,,7,,,52,100
153792,note_on,,,,,32,0,7,,,,,0,,,83,103
153792,note_on,,,,,320,0,14,,,,,6,,,52,100
153856,note_off,,,,,64,0,7,,,,,0,,,83,100
153856,note_off,,,,,256,0,9,,,,,2,,,79,100
153872,note_off,,,,,80,0,14,,,,,6,,,52,100
153872,note_off,,,,,80,0,10,,,,,3,,,67,100
153872,note_off,,,,,80,0,12,,,,,5,,,40,100
153872,note_off,,,,,0,0,13,,,,,6,,,71,100
153872,note_off,,,,,80,0,13,,,,,6,,,64,100
153872,note_off,,,,,80,0,11,,,,,4,,,52,100
153872,note_off,,,,,0,0,13,,,,,6,,,67,100
153872,note_off,,,,,80,0,16,,,,,7,,,52,100
153872,note_off,,,,,80,0,8,,,,,1,,,83,100
153888,note_on,,,,,32,0,7,,,,,0,,,76,103
153952,note_off,,,,,64,0,7,,,,,0,,,76,100
153984,note_on,,,,,112,0,8,,,,,1,,,79,103
153984,note_on,,,,,112,0,12,,,,,5,,,40,103
153984,note_on,,,,,128,0,9,,,,,2,,,76,103
153984,note_on,,,,,112,0,10,,,,,3,,,71,103
153984,note_on,,,,,32,0,7,,,,,0,,,83,104
153984,note_on,,,,,0,0,13,,,,,6,,,67,100
153984,note_on,,,,,0,0,13,,,,,6,,,71,100
153984,note_on,,,,,112,0,16,,,,,7,,,52,100
153984,note_on,,,,,112,0,13,,,,,6,,,64,100
153984,note_on,,,,,112,0,11,,,,,4,,,52,103
153984,note_on,,,,,112,0,14,,,,,6,,,52,100
154048,note_off,,,,,64,0,7,,,,,0,,,83,100
154064,note_off,,,,,80,0,14,,,,,6,,,52,100
154064,note_off,,,,,80,0,12,,,,,5,,,40,100
154064,note_off,,,,,80,0,11,,,,,4,,,52,100
154064,note_off,,,,,0,0,13,,,,,6,,,71,100
154064,note_off,,,,,80,0,8,,,,,1,,,79,100
154064,note_off,,,,,0,0,13,,,,,6,,,67,100
154064,note_off,,,,,80,0,16,,,,,7,,,52,100
154064,note_off,,,,,80,0,13,,,,,6,,,64,100
154064,note_off,,,,,80,0,10,,,,,3,,,71,100
154080,note_on,,,,,32,0,7,,,,,0,,,76,104
154144,note_off,,,,,64,0,7,,,,,0,,,76,100
154176,note_on,,,,,0,0,13,,,,,6,,,67,100
154176,note_on,,,,,112,0,13,,,,,6,,,64,100
154176,note_on,,,,,0,0,13,,,,,6,,,71,100
154176,note_on,,,,,112,0,10,,,,,3,,,67,104
154176,note_on,,,,,112,0,8,,,,,1,,,76,104
154176,note_on,,,,,112,0,12,,,,,5,,,40,104
154176,note_on,,,,,112,0,16,,,,,7,,,52,100
154176,note_on,,,,,112,0,11,,,,,4,,,52,104
154176,note_on,,,,,32,0,7,,,,,0,,,83,104
154176,note_on,,,,,112,0,14,,,,,6,,,52,100
154240,note_off,,,,,64,0,7,,,,,0,,,83,100
154240,note_off,,,,,256,0,9,,,,,2,,,76,100
154252,note_off,,,,,1036,0,15,,,,,7,,,71,100
154256,note_off,,,,,0,0,13,,,,,6,,,71,100
154256,note_off,,,,,80,0,16,,,,,7,,,52,100
154256,note_off,,,,,80,0,10,,,,,3,,,67,100
154256,note_off,,,,,80,0,11,,,,,4,,,52,100
154256,note_off,,,,,80,0,8,,,,,1,,,76,100
154256,note_off,,,,,80,0,14,,,,,6,,,52,100
154256,note_off,,,,,80,0,12,,,,,5,,,40,100
154256,note_off,,,,,0,0,13,,,,,6,,,67,100
154256,note_off,,,,,80,0,13,,,,,6,,,64,100
154272,note_on,,,,,32,0,7,,,,,0,,,76,104
154336,note_off,,,,,64,0,7,,,,,0,,,76,100
154368,note_on,,,,,112,0,8,,,,,1,,,79,105
154368,note_on,,,,,112,0,16,,,,,7,,,52,100
154368,note_on,,,,,116,0,15,,,,,7,,,72,100
154368,note_on,,,,,112,0,12,,,,,5,,,40,105
154368,note_on,,,,,32,0,7,,,,,0,,,84,104
154368,note_on,,,,,0,0,13,,,,,6,,,67,100
154368,note_on,,,,,112,0,13,,,,,6,,,72,100
154368,note_on,,,,,0,0,13,,,,,6,,,64,100
154368,note_on,,,,,112,0,11,,,,,4,,,52,105
154368,note_on,,,,,128,0,9,,,,,2,,,72,105
154368,note_on,,,,,112,0,14,,,,,6,,,52,100
154432,note_off,,,,,64,0,7,,,,,0,,,84,100
154448,note_off,,,,,80,0,8,,,,,1,,,79,100
154464,note_on,,,,,32,0,7,,,,,0,,,76,105
154528,note_off,,,,,64,0,7,,,,,0,,,76,100
154560,note_on,,,,,32,0,7,,,,,0,,,84,105
154560,note_on,,,,,112,0,8,,,,,1,,,76,105
154560,note_on,,,,,304,0,10,,,,,3,,,60,105
154624,note_off,,,,,64,0,7,,,,,0,,,84,100
154624,note_off,,,,,256,0,14,,,,,6,,,52,100
154624,note_off,,,,,0,0,13,,,,,6,,,67,100
154624,note_off,,,,,0,0,13,,,,,6,,,64,100
154624,note_off,,,,,256,0,9,,,,,2,,,72,100
154624,note_off,,,,,256,0,13,,,,,6,,,72,100
154624,note_off,,,,,256,0,16,,,,,7,,,52,100
154624,note_off,,,,,256,0,12,,,,,5,,,40,100
154624,note_off,,,,,256,0,11,,,,,4,,,52,100
154640,note_off,,,,,80,0,10,,,,,3,,,60,100
154640,note_off,,,,,80,0,8,,,,,1,,,76,100
154656,note_on,,,,,32,0,7,,,,,0,,,76,105
154720,note_off,,,,,64,0,7,,,,,0,,,76,100
154752,note_on,,,,,112,0,8,,,,,1,,,79,105
154752,note_on,,,,,32,0,7,,,,,0,,,84,105
154752,note_on,,,,,112,0,10,,,,,3,,,64,105
154816,note_off,,,,,64,0,7,,,,,0,,,84,100
154832,note_off,,,,,80,0,10,,,,,3,,,64,100
154832,note_off,,,,,80,0,8,,,,,1,,,79,100
154848,note_on,,,,,32,0,7,,,,,0,,,76,105
154912,note_off,,,,,64,0,7,,,,,0,,,76,100
154944,note_on,,,,,32,0,7,,,,,0,,,84,105
154944,note_on,,,,,112,0,10,,,,,3,,,67,105
154944,note_on,,,,,320,0,13,,,,,6,,,72,100
154944,note_on,,,,,320,0,14,,,,,6,,,52,100
154944,note_on,,,,,0,0,13,,,,,6,,,67,100
154944,note_on,,,,,320,0,12,,,,,5,,,40,105
154944,note_on,,,,,320,0,16,,,,,7,,,52,100
154944,note_on,,,,,320,0,11,,,,,4,,,52,105
154944,note_on,,,,,112,0,8,,,,,1,,,84,105
154944,note_on,,,,,0,0,13,,,,,6,,,64,100
155008,note_off,,,,,64,0,7,,,,,0,,,84,100
155024,note_off,,,,,80,0,10,,,,,3,,,67,100
155024,note_off,,,,,80,0,14,,,,,6,,,52,100
155024,note_off,,,,,80,0,13,,,,,6,,,72,100
155024,note_off,,,,,0,0,13,,,,,6,,,64,100
155024,note_off,,,,,0,0,13,,,,,6,,,67,100
155024,note_off,,,,,80,0,8,,,,,1,,,84,100
155024,note_off,,,,,80,0,11,,,,,4,,,52,100
155024,note_off,,,,,80,0,16,,,,,7,,,52,100
155024,note_off,,,,,80,0,12,,,,,5,,,40,100
155040,note_on,,,,,32,0,7,,,,,0,,,76,105
155104,note_off,,,,,64,0,7,,,,,0,,,76,100
155136,note_on,,,,,112,0,14,,,,,6,,,52,100
155136,note_on,,,,,112,0,10,,,,,3,,,64,104
155136,note_on,,,,,112,0,12,,,,,5,,,40,104
155136,note_on,,,,,112,0,11,,,,,4,,,52,104
155136,note_on,,,,,0,0,13,,,,,6,,,64,100
155136,note_on,,,,,32,0,7,,,,,0,,,84,104
155136,note_on,,,,,112,0,16,,,,,7,,,52,100
155136,note_on,,,,,112,0,13,,,,,6,,,72,100
155136,note_on,,,,,512,0,9,,,,,2,,,72,104
155136,note_on,,,,,0,0,13,,,,,6,,,67,100
155136,note_on,,,,,112,0,8,,,,,1,,,79,104
155200,note_off,,,,,64,0,7,,,,,0,,,84,100
155216,note_off,,,,,80,0,13,,,,,6,,,72,100
155216,note_off,,,,,80,0,12,,,,,5,,,40,100
155216,note_off,,,,,0,0,13,,,,,6,,,64,100
155216,note_off,,,,,80,0,11,,,,,4,,,52,100
155216,note_off,,,,,80,0,16,,,,,7,,,52,100
155216,note_off,,,,,0,0,13,,,,,6,,,67,100
155216,note_off,,,,,80,0,10,,,,,3,,,64,100
155216,note_off,,,,,80,0,8,,,,,1,,,79,100
155216,note_off,,,,,80,0,14,,,,,6,,,52,100
155232,note_on,,,,,32,0,7,,,,,0,,,76,103
155296,note_off,,,,,64,0,7,,,,,0,,,76,100
155328,note_on,,,,,112,0,14,,,,,6,,,52,100
155328,note_on,,,,,112,0,12,,,,,5,,,40,102
155328,note_on,,,,,112,0,11,,,,,4,,,52,102
155328,note_on,,,,,112,0,10,,,,,3,,,60,102
155328,note_on,,,,,112,0,8,,,,,1,,,76,102
155328,note_on,,,,,0,0,13,,,,,6,,,64,100
155328,note_on,,,,,112,0,16,,,,,7,,,52,100
155328,note_on,,,,,0,0,13,,,,,6,,,67,100
155328,note_on,,,,,32,0,7,,,,,0,,,84,102
155328,note_on,,,,,112,0,13,,,,,6,,,72,100
155392,note_off,,,,,256,0,9,,,,,2,,,72,100
155392,note_off,,,,,64,0,7,,,,,0,,,84,100
155404,note_off,,,,,1036,0,15,,,,,7,,,64,100
155404,note_off,,,,,0,0,15,,,,,7,,,72,100
155404,note_off,,,,,0,0,15,,,,,7,,,67,100
155408,note_off,,,,,80,0,10,,,,,3,,,60,100
155408,note_off,,,,,80,0,16,,,,,7,,,52,100
155408,note_off,,,,,80,0,8,,,,,1,,,76,100
155408,note_off,,,,,80,0,14,,,,,6,,,52,100
155408,note_off,,,,,80,0,11,,,,,4,,,52,100
155408,note_off,,,,,0,0,13,,,,,6,,,67,100
155408,note_off,,,,,0,0,13,,,,,6,,,64,100
155408,note_off,,,,,80,0,13,,,,,6,,,72,100
155408,note_off,,,,,80,0,12,,,,,5,,,40,100
155424,note_on,,,,,32,0,7,,,,,0,,,76,101
155488,note_off,,,,,64,0,7,,,,,0,,,76,100
155520,note_on,,,,,112,0,8,,,,,1,,,81,100
155520,note_on,,,,,32,0,7,,,,,0,,,78,100
155520,note_on,,,,,128,0,9,,,,,2,,,69,100
155520,note_on,,,,,112,0,12,,,,,5,,,38,100
155520,note_on,,,,,112,0,11,,,,,4,,,50,100
155520,note_on,,,,,112,0,13,,,,,6,,,62,100
155520,note_on,,,,,0,0,13,,,,,6,,,66,100
155520,note_on,,,,,0,0,13,,,,,6,,,69,100
155520,note_on,,,,,116,0,15,,,,,7,,,62,100
155520,note_on,,,,,0,0,15,,,,,7,,,66,100
155520,note_on,,,,,0,0,15,,,,,7,,,69,100
155520,note_on,,,,,112,0,16,,,,,7,,,50,100
155520,note_on,,,,,112,0,14,,,,,6,,,50,100
155584,note_off,,,,,64,0,7,,,,,0,,,78,100
155616,note_on,,,,,32,0,7,,,,,0,,,74,100
155680,note_off,,,,,64,0,7,,,,,0,,,74,100
155708,note_off,,,,,188,0,8,,,,,1,,,81,100
155712,note_on,,,,,4,0,8,,,,,1,,,78,100
155712,note_on,,,,,304,0,10,,,,,3,,,66,100
155712,note_on,,,,,32,0,7,,,,,0,,,78,100
155776,note_off,,,,,256,0,11,,,,,4,,,50,100
155776,note_off,,,,,256,0,14,,,,,6,,,50,100
155776,note_off,,,,,256,0,13,,,,,6,,,62,100
155776,note_off,,,,,0,0,13,,,,,6,,,66,100
155776,note_off,,,,,0,0,13,,,,,6,,,69,100
155776,note_off,,,,,256,0,12,,,,,5,,,38,100
155776,note_off,,,,,64,0,7,,,,,0,,,78,100
155776,note_off,,,,,256,0,16,,,,,7,,,50,100
155792,note_off,,,,,80,0,10,,,,,3,,,66,100
155808,note_on,,,,,32,0,7,,,,,0,,,74,99
155872,note_off,,,,,64,0,7,,,,,0,,,74,100
155900,note_off,,,,,380,0,9,,,,,2,,,69,100
155900,note_off,,,,,188,0,8,,,,,1,,,78,100
155904,note_on,,,,,4,0,9,,,,,2,,,74,99
155904,note_on,,,,,32,0,7,,,,,0,,,78,99
155904,note_on,,,,,112,0,10,,,,,3,,,69,99
155904,note_on,,,,,4,0,8,,,,,1,,,74,99
155968,note_off,,,,,64,0,7,,,,,0,,,78,100
155984,note_off,,,,,80,0,10,,,,,3,,,69,100
156000,note_on,,,,,32,0,7,,,,,0,,,74,98
156004,note_off,,,,,100,0,8,,,,,1,,,74,100
156064,note_off,,,,,64,0,7,,,,,0,,,74,100
156096,note_on,,,,,320,0,13,,,,,6,,,62,100
156096,note_on,,,,,320,0,16,,,,,7,,,50,100
156096,note_on,,,,,32,0,7,,,,,0,,,78,98
156096,note_on,,,,,320,0,14,,,,,6,,,50,100
156096,note_on,,,,,320,0,11,,,,,4,,,50,98
156096,note_on,,,,,92,0,8,,,,,1,,,81,98
156096,note_on,,,,,0,0,13,,,,,6,,,66,100
156096,note_on,,,,,0,0,13,,,,,6,,,69,100
156096,note_on,,,,,112,0,10,,,,,3,,,66,98
156096,note_on,,,,,320,0,12,,,,,5,,,38,98
156160,note_off,,,,,64,0,7,,,,,0,,,78,100
156160,note_off,,,,,256,0,9,,,,,2,,,74,100
156176,note_off,,,,,80,0,16,,,,,7,,,50,100
156176,note_off,,,,,80,0,10,,,,,3,,,66,100
156176,note_off,,,,,80,0,12,,,,,5,,,38,100
156176,note_off,,,,,80,0,14,,,,,6,,,50,100
156176,note_off,,,,,80,0,11,,,,,4,,,50,100
156176,note_off,,,,,0,0,13,,,,,6,,,69,100
156176,note_off,,,,,0,0,13,,,,,6,,,66,100
156176,note_off,,,,,80,0,13,,,,,6,,,62,100
156176,note_off,,,,,80,0,8,,,,,1,,,81,100
156192,note_on,,,,,32,0,7,,,,,0,,,74,97
156256,note_off,,,,,64,0,7,,,,,0,,,74,100
156288,note_on,,,,,0,0,13,,,,,6,,,66,100
156288,note_on,,,,,0,0,13,,,,,6,,,69,100
156288,note_on,,,,,112,0,12,,,,,5,,,38,97
156288,note_on,,,,,112,0,10,,,,,3,,,62,97
156288,note_on,,,,,112,0,8,,,,,1,,,78,97
156288,note_on,,,,,112,0,14,,,,,6,,,50,100
156288,note_on,,,,,32,0,7,,,,,0,,,78,97
156288,note_on,,,,,112,0,16,,,,,7,,,50,100
156288,note_on,,,,,112,0,11,,,,,4,,,50,97
156288,note_on,,,,,128,0,9,,,,,2,,,81,97
156288,note_on,,,,,112,0,13,,,,,6,,,62,100
156352,note_off,,,,,64,0,7,,,,,0,,,78,100
156368,note_off,,,,,80,0,8,,,,,1,,,78,100
156368,note_off,,,,,80,0,16,,,,,7,,,50,100
156368,note_off,,,,,80,0,10,,,,,3,,,62,100
156368,note_off,,,,,80,0,14,,,,,6,,,50,100
156368,note_off,,,,,80,0,12,,,,,5,,,38,100
156368,note_off,,,,,80,0,13,,,,,6,,,62,100
156368,note_off,,,,,0,0,13,,,,,6,,,66,100
156368,note_off,,,,,80,0,11,,,,,4,,,50,100
156368,note_off,,,,,0,0,13,,,,,6,,,69,100
156384,note_on,,,,,32,0,7,,,,,0,,,74,96
156448,note_off,,,,,64,0,7,,,,,0,,,74,100
156480,note_on,,,,,112,0,10,,,,,3,,,57,96
156480,note_on,,,,,112,0,13,,,,,6,,,62,100
156480,note_on,,,,,0,0,13,,,,,6,,,66,100
156480,note_on,,,,,0,0,13,,,,,6,,,69,100
156480,note_on,,,,,112,0,12,,,,,5,,,38,96
156480,note_on,,,,,112,0,8,,,,,1,,,74,96
156480,note_on,,,,,112,0,14,,,,,6,,,50,100
156480,note_on,,,,,32,0,7,,,,,0,,,78,96
156480,note_on,,,,,112,0,16,,,,,7,,,50,100
156480,note_on,,,,,112,0,11,,,,,4,,,50,96
156544,note_off,,,,,64,0,7,,,,,0,,,78,100
156544,note_off,,,,,256,0,9,,,,,2,,,81,100
156560,note_off,,,,,0,0,13,,,,,6,,,66,100
156560,note_off,,,,,0,0,13,,,,,6,,,69,100
156560,note_off,,,,,80,0,16,,,,,7,,,50,100
156560,note_off,,,,,80,0,8,,,,,1,,,74,100
156560,note_off,,,,,80,0,11,,,,,4,,,50,100
156560,note_off,,,,,80,0,14,,,,,6,,,50,100
156560,note_off,,,,,80,0,12,,,,,5,,,38,100
156560,note_off,,,,,80,0,13,,,,,6,,,62,100
156560,note_off,,,,,80,0,10,,,,,3,,,57,100
156576,note_on,,,,,32,0,7,,,,,0,,,74,96
156640,note_off,,,,,64,0,7,,,,,0,,,74,100
156672,note_on,,,,,112,0,14,,,,,6,,,50,100
156672,note_on,,,,,112,0,11,,,,,4,,,50,100
156672,note_on,,,,,112,0,16,,,,,7,,,50,100
156672,note_on,,,,,128,0,9,,,,,2,,,69,100
156672,note_on,,,,,0,0,13,,,,,6,,,69,100
156672,note_on,,,,,1152,0,15,,,,,7,,,72,100
156672,note_on,,,,,112,0,8,,,,,1,,,81,100
156672,note_on,,,,,112,0,12,,,,,5,,,38,100
156672,note_on,,,,,32,0,7,,,,,0,,,78,100
156672,note_on,,,,,0,0,13,,,,,6,,,66,100
156672,note_on,,,,,112,0,13,,,,,6,,,60,100
156736,note_off,,,,,64,0,7,,,,,0,,,78,100
156768,note_on,,,,,32,0,7,,,,,0,,,72,100
156832,note_off,,,,,64,0,7,,,,,0,,,72,100
156860,note_off,,,,,188,0,8,,,,,1,,,81,100
156864,note_on,,,,,32,0,7,,,,,0,,,78,100
156864,note_on,,,,,4,0,8,,,,,1,,,78,100
156864,note_on,,,,,304,0,10,,,,,3,,,66,100
156928,note_off,,,,,256,0,12,,,,,5,,,38,100
156928,note_off,,,,,64,0,7,,,,,0,,,78,100
156928,note_off,,,,,0,0,13,,,,,6,,,66,100
156928,note_off,,,,,0,0,13,,,,,6,,,69,100
156928,note_off,,,,,256,0,14,,,,,6,,,50,100
156928,note_off,,,,,256,0,13,,,,,6,,,60,100
156928,note_off,,,,,256,0,11,,,,,4,,,50,100
156928,note_off,,,,,256,0,16,,,,,7,,,50,100
156944,note_off,,,,,80,0,10,,,,,3,,,66,100
156960,note_on,,,,,32,0,7,,,,,0,,,72,99
157024,note_off,,,,,64,0,7,,,,,0,,,72,100
157052,note_off,,,,,188,0,8,,,,,1,,,78,100
157052,note_off,,,,,380,0,9,,,,,2,,,69,100
157056,note_on,,,,,32,0,7,,,,,0,,,78,99
157056,note_on,,,,,4,0,8,,,,,1,,,72,99
157056,note_on,,,,,4,0,9,,,,,2,,,72,99
157056,note_on,,,,,112,0,10,,,,,3,,,69,99
157120,note_off,,,,,64,0,7,,,,,0,,,78,100
157136,note_off,,,,,80,0,10,,,,,3,,,69,100
157152,note_on,,,,,32,0,7,,,,,0,,,72,98
157156,note_off,,,,,100,0,8,,,,,1,,,72,100
157216,note_off,,,,,64,0,7,,,,,0,,,72,100
157248,note_on,,,,,0,0,13,,,,,6,,,66,100
157248,note_on,,,,,320,0,13,,,,,6,,,60,100
157248,note_on,,,,,320,0,14,,,,,6,,,50,100
157248,note_on,,,,,32,0,7,,,,,0,,,78,98
157248,note_on,,,,,0,0,13,,,,,6,,,69,100
157248,note_on,,,,,92,0,8,,,,,1,,,81,98
157248,note_on,,,,,320,0,12,,,,,5,,,38,98
157248,note_on,,,,,112,0,10,,,,,3,,,66,98
157248,note_on,,,,,320,0,11,,,,,4,,,50,98
157248,note_on,,,,,320,0,16,,,,,7,,,50,100
157312,note_off,,,,,256,0,9,,,,,2,,,72,100
157312,note_off,,,,,64,0,7,,,,,0,,,78,100
157328,note_off,,,,,80,0,11,,,,,4,,,50,100
157328,note_off,,,,,80,0,16,,,,,7,,,50,100
157328,note_off,,,,,80,0,8,,,,,1,,,81,100
157328,note_off,,,,,80,0,10,,,,,3,,,66,100
157328,note_off,,,,,80,0,14,,,,,6,,,50,100
157328,note_off,,,,,80,0,13,,,,,6,,,60,100
157328,note_off,,,,,0,0,13,,,,,6,,,66,100
157328,note_off,,,,,0,0,13,,,,,6,,,69,100
157328,note_off,,,,,80,0,12,,,,,5,,,38,100
157344,note_on,,,,,32,0,7,,,,,0,,,72,97
157408,note_off,,,,,64,0,7,,,,,0,,,72,100
157440,note_on,,,,,112,0,12,,,,,5,,,38,97
157440,note_on,,,,,32,0,7,,,,,0,,,78,97
157440,note_on,,,,,112,0,14,,,,,6,,,50,100
157440,note_on,,,,,112,0,10,,,,,3,,,62,97
157440,note_on,,,,,112,0,16,,,,,7,,,50,100
157440,note_on,,,,,128,0,9,,,,,2,,,81,97
157440,note_on,,,,,112,0,8,,,,,1,,,78,97
157440,note_on,,,,,112,0,13,,,,,6,,,60,100
157440,note_on,,,,,0,0,13,,,,,6,,,66,100
157440,note_on,,,,,0,0,13,,,,,6,,,69,100
157440,note_on,,,,,112,0,11,,,,,4,,,50,97
157504,note_off,,,,,64,0,7,,,,,0,,,78,100
157520,note_off,,,,,80,0,8,,,,,1,,,78,100
157520,note_off,,,,,80,0,12,,,,,5,,,38,100
157520,note_off,,,,,80,0,11,,,,,4,,,50,100
157520,note_off,,,,,0,0,13,,,,,6,,,69,100
157520,note_off,,,,,0,0,13,,,,,6,,,66,100
157520,note_off,,,,,80,0,13,,,,,6,,,60,100
157520,note_off,,,,,80,0,10,,,,,3,,,62,100
157520,note_off,,,,,80,0,16,,,,,7,,,50,100
157520,note_off,,,,,80,0,14,,,,,6,,,50,100
157536,note_on,,,,,32,0,7,,,,,0,,,72,96
157600,note_off,,,,,64,0,7,,,,,0,,,72,100
157632,note_on,,,,,32,0,7,,,,,0,,,78,96
157632,note_on,,,,,112,0,12,,,,,5,,,38,96
157632,note_on,,,,,112,0,14,,,,,6,,,50,100
157632,note_on,,,,,112,0,10,,,,,3,,,62,96
157632,note_on,,,,,112,0,13,,,,,6,,,60,100
157632,note_on,,,,,0,0,13,,,,,6,,,69,100
157632,note_on,,,,,0,0,13,,,,,6,,,66,100
157632,note_on,,,,,112,0,11,,,,,4,,,50,96
157632,note_on,,,,,112,0,8,,,,,1,,,72,96
157632,note_on,,,,,112,0,16,,,,,7,,,50,100
157696,note_off,,,,,64,0,7,,,,,0,,,78,100
157696,note_off,,,,,256,0,9,,,,,2,,,81,100
157708,note_off,,,,,0,0,15,,,,,7,,,72,100
157708,note_off,,,,,0,0,15,,,,,7,,,69,100
157708,note_off,,,,,0,0,15,,,,,7,,,66,100
157708,note_off,,,,,1036,0,15,,,,,7,,,62,100
157712,note_off,,,,,80,0,11,,,,,4,,,50,100
157712,note_off,,,,,80,0,8,,,,,1,,,72,100
157712,note_off,,,,,80,0,12,,,,,5,,,38,100
157712,note_off,,,,,80,0,10,,,,,3,,,62,100
157712,note_off,,,,,80,0,13,,,,,6,,,60,100
157712,note_off,,,,,0,0,13,,,,,6,,,66,100
157712,note_off,,,,,80,0,14,,,,,6,,,50,100
157712,note_off,,,,,0,0,13,,,,,6,,,69,100
157712,note_off,,,,,80,0,16,,,,,7,,,50,100
157728,note_on,,,,,32,0,7,,,,,0,,,72,96
157792,note_off,,,,,64,0,7,,,,,0,,,72,100
157824,note_on,,,,,112,0,13,,,,,6,,,67,100
157824,note_on,,,,,112,0,14,,,,,6,,,43,100
157824,note_on,,,,,32,0,7,,,,,0,,,71,100
157824,note_on,,,,,112,0,16,,,,,7,,,43,100
157824,note_on,,,,,112,0,12,,,,,5,,,31,100
157824,note_on,,,,,0,0,13,,,,,6,,,62,100
157824,note_on,,,,,112,0,11,,,,,4,,,43,100
157824,note_on,,,,,112,0,8,,,,,1,,,71,100
157824,note_on,,,,,128,0,9,,,,,2,,,71,100
157824,note_on,,,,,116,0,15,,,,,7,,,71,100
157824,note_on,,,,,0,0,15,,,,,7,,,62,100
157824,note_on,,,,,0,0,15,,,,,7,,,67,100
157824,note_on,,,,,112,0,10,,,,,3,,,62,100
157824,note_on,,,,,0,0,13,,,,,6,,,59,100
157904,note_off,,,,,80,0,8,,,,,1,,,71,100
157904,note_off,,,,,80,0,9,,,,,2,,,71,100
157952,end_of_track,,,,,0,1,7,,,,,,,,,
157952,note_off,,,,,128,0,7,,,,,0,,,71,100
158016,note_on,,,,,112,0,8,,,,,1,,,79,105
158016,note_on,,,,,112,0,9,,,,,2,,,79,105
158080,note_off,,,,,256,0,12,,,,,5,,,31,100
158080,note_off,,,,,256,0,13,,,,,6,,,67,100
158080,note_off,,,,,0,0,13,,,,,6,,,62,100
158080,note_off,,,,,0,0,13,,,,,6,,,59,100
158080,note_off,,,,,256,0,10,,,,,3,,,62,100
158080,note_off,,,,,256,0,11,,,,,4,,,43,100
158080,note_off,,,,,0,0,15,,,,,7,,,62,100
158080,note_off,,,,,0,0,15,,,,,7,,,67,100
158080,note_off,,,,,256,0,15,,,,,7,,,71,100
158080,note_off,,,,,256,0,14,,,,,6,,,43,100
158080,note_off,,,,,256,0,16,,,,,7,,,43,100
158096,note_off,,,,,80,0,9,,,,,2,,,79,100
158096,note_off,,,,,80,0,8,,,,,1,,,79,100
158208,note_on,,,,,128,0,16,,,,,7,,,48,100
158208,note_on,,,,,128,0,12,,,,,5,,,36,105
158208,note_on,,,,,0,0,13,,,,,6,,,69,100
158208,note_on,,,,,0,0,13,,,,,6,,,67,100
158208,note_on,,,,,112,0,8,,,,,1,,,69,105
158208,note_on,,,,,128,0,10,,,,,3,,,64,105
158208,note_on,,,,,112,0,9,,,,,2,,,69,105
158208,note_on,,,,,128,0,13,,,,,6,,,60,100
158208,note_on,,,,,0,0,15,,,,,7,,,67,100
158208,note_on,,,,,0,0,15,,,,,7,,,60,100
158208,note_on,,,,,128,0,15,,,,,7,,,69,100
158208,note_on,,,,,128,0,11,,,,,4,,,48,105
158208,note_on,,,,,128,0,14,,,,,6,,,48,100
158288,note_off,,,,,80,0,8,,,,,1,,,69,100
158288,note_off,,,,,80,0,9,,,,,2,,,69,100
158400,note_on,,,,,112,0,8,,,,,1,,,79,105
158400,note_on,,,,,112,0,9,,,,,2,,,79,105
158464,note_off,,,,,256,0,13,,,,,6,,,60,100
158464,note_off,,,,,0,0,13,,,,,6,,,67,100
158464,note_off,,,,,256,0,11,,,,,4,,,48,100
158464,note_off,,,,,256,0,16,,,,,7,,,48,100
158464,note_off,,,,,0,0,13,,,,,6,,,69,100
158464,note_off,,,,,256,0,15,,,,,7,,,60,100
158464,note_off,,,,,256,0,10,,,,,3,,,64,100
158464,note_off,,,,,0,0,15,,,,,7,,,67,100
158464,note_off,,,,,256,0,14,,,,,6,,,48,100
158464,note_off,,,,,256,0,12,,,,,5,,,36,100
158480,note_off,,,,,80,0,9,,,,,2,,,79,100
158480,note_off,,,,,80,0,8,,,,,1,,,79,100
158592,note_on,,,,,128,0,14,,,,,6,,,50,100
158592,note_on,,,,,128,0,10,,,,,3,,,62,105
158592,note_on,,,,,112,0,8,,,,,1,,,62,105
158592,note_on,,,,,128,0,11,,,,,4,,,50,105
158592,note_on,,,,,128,0,16,,,,,7,,,50,100
158592,note_on,,,,,128,0,15,,,,,7,,,62,100
158592,note_on,,,,,0,0,15,,,,,7,,,66,100
158592,note_on,,,,,0,0,13,,,,,6,,,66,100
158592,note_on,,,,,0,0,13,,,,,6,,,69,100
158592,note_on,,,,,112,0,9,,,,,2,,,62,105
158592,note_on,,,,,128,0,13,,,,,6,,,62,100
158592,note_on,,,,,128,0,12,,,,,5,,,38,105
158672,note_off,,,,,80,0,8,,,,,1,,,62,100
158672,note_off,,,,,80,0,9,,,,,2,,,62,100
158784,note_on,,,,,112,0,8,,,,,1,,,78,105
158784,note_on,,,,,112,0,9,,,,,2,,,78,105
158848,note_off,,,,,0,0,13,,,,,6,,,66,100
158848,note_off,,,,,256,0,15,,,,,7,,,62,100
158848,note_off,,,,,256,0,10,,,,,3,,,62,100
158848,note_off,,,,,256,0,16,,,,,7,,,50,100
158848,note_off,,,,,0,0,13,,,,,6,,,69,100
158848,note_off,,,,,0,0,15,,,,,7,,,66,100
158848,note_off,,,,,256,0,12,,,,,5,,,38,100
158848,note_off,,,,,256,0,13,,,,,6,,,62,100
158848,note_off,,,,,256,0,11,,,,,4,,,50,100
158848,note_off,,,,,256,0,14,,,,,6,,,50,100
158864,note_off,,,,,80,0,8,,,,,1,,,78,100
158864,note_off,,,,,80,0,9,,,,,2,,,78,100
158896,note_off,,,,,48,0,15,,,,,7,,,69,100
158976,note_on,,,,,0,0,15,,,,,7,,,67,100
158976,note_on,,,,,80,0,15,,,,,7,,,59,100
158976,note_on,,,,,128,0,16,,,,,7,,,43,100
158976,note_on,,,,,128,0,13,,,,,6,,,59,100
158976,note_on,,,,,0,0,15,,,,,7,,,62,100
158976,note_on,,,,,128,0,11,,,,,4,,,43,105
158976,note_on,,,,,0,0,13,,,,,6,,,62,100
158976,note_on,,,,,128,0,12,,,,,5,,,31,105
158976,note_on,,,,,0,0,13,,,,,6,,,67,100
158976,note_on,,,,,128,0,14,,,,,6,,,43,100
158976,note_on,,,,,128,0,10,,,,,3,,,62,105
158976,note_on,,,,,112,0,9,,,,,2,,,79,105
158976,note_on,,,,,112,0,8,,,,,1,,,79,105
159056,note_off,,,,,80,0,8,,,,,1,,,79,100
159056,note_off,,,,,80,0,9,,,,,2,,,79,100
159168,note_on,,,,,112,0,8,,,,,1,,,67,100
159168,note_on,,,,,112,0,9,,,,,2,,,71,100
159232,note_off,,,,,0,0,13,,,,,6,,,62,100
159232,note_off,,,,,256,0,16,,,,,7,,,43,100
159232,note_off,,,,,256,0,13,,,,,6,,,59,100
159232,note_off,,,,,0,0,15,,,,,7,,,62,100
159232,note_off,,,,,256,0,11,,,,,4,,,43,100
159232,note_off,,,,,0,0,15,,,,,7,,,67,100
159232,note_off,,,,,256,0,12,,,,,5,,,31,100
159232,note_off,,,,,256,0,14,,,,,6,,,43,100
159232,note_off,,,,,256,0,10,,,,,3,,,62,100
159232,note_off,,,,,0,0,13,,,,,6,,,67,100
159232,note_off,,,,,256,0,15,,,,,7,,,59,100
159248,note_off,,,,,80,0,8,,,,,1,,,67,100
159248,note_off,,,,,80,0,9,,,,,2,,,71,100
159360,note_on,,,,,112,0,9,,,,,2,,,67,100
159360,note_on,,,,,112,0,8,,,,,1,,,71,100
159440,note_off,,,,,80,0,8,,,,,1,,,71,100
159440,note_off,,,,,80,0,9,,,,,2,,,67,100
159552,note_on,,,,,0,0,15,,,,,7,,,62,100
159552,note_on,,,,,320,0,11,,,,,4,,,55,100
159552,note_on,,,,,320,0,12,,,,,5,,,43,100
159552,note_on,,,,,320,0,16,,,,,7,,,55,100
159552,note_on,,,,,0,0,13,,,,,6,,,62,100
159552,note_on,,,,,320,0,15,,,,,7,,,67,100
159552,note_on,,,,,112,0,9,,,,,2,,,71,100
159552,note_on,,,,,320,0,14,,,,,6,,,55,100
159552,note_on,,,,,320,0,10,,,,,3,,,62,100
159552,note_on,,,,,0,0,13,,,,,6,,,59,100
159552,note_on,,,,,320,0,13,,,,,6,,,67,100
159552,note_on,,,,,112,0,8,,,,,1,,,74,100
159552,note_on,,,,,0,0,15,,,,,7,,,59,100
159632,note_off,,,,,80,0,10,,,,,3,,,62,100
159632,note_off,,,,,80,0,13,,,,,6,,,67,100
159632,note_off,,,,,80,0,15,,,,,7,,,67,100
159632,note_off,,,,,0,0,15,,,,,7,,,59,100
159632,note_off,,,,,0,0,15,,,,,7,,,62,100
159632,note_off,,,,,80,0,12,,,,,5,,,43,100
159632,note_off,,,,,80,0,14,,,,,6,,,55,100
159632,note_off,,,,,80,0,8,,,,,1,,,74,100
159632,note_off,,,,,80,0,16,,,,,7,,,55,100
159632,note_off,,,,,0,0,13,,,,,6,,,62,100
159632,note_off,,,,,0,0,13,,,,,6,,,59,100
159632,note_off,,,,,80,0,11,,,,,4,,,55,100
159632,note_off,,,,,80,0,9,,,,,2,,,71,100
159744,note_on,,,,,0,0,13,,,,,6,,,57,100
159744,note_on,,,,,112,0,13,,,,,6,,,66,100
159744,note_on,,,,,112,0,10,,,,,3,,,62,97
159744,note_on,,,,,112,0,14,,,,,6,,,54,100
159744,note_on,,,,,0,0,13,,,,,6,,,62,100
159744,note_on,,,,,112,0,9,,,,,2,,,74,97
159744,note_on,,,,,112,0,16,,,,,7,,,54,100
159744,note_on,,,,,112,0,11,,,,,4,,,54,97
159744,note_on,,,,,112,0,15,,,,,7,,,66,100
159744,note_on,,,,,0,0,15,,,,,7,,,57,100
159744,note_on,,,,,0,0,15,,,,,7,,,62,100
159744,note_on,,,,,112,0,12,,,,,5,,,42,97
159744,note_on,,,,,112,0,8,,,,,1,,,69,97
159824,note_off,,,,,0,0,13,,,,,6,,,62,100
159824,note_off,,,,,80,0,16,,,,,7,,,54,100
159824,note_off,,,,,80,0,9,,,,,2,,,74,100
159824,note_off,,,,,80,0,14,,,,,6,,,54,100
159824,note_off,,,,,0,0,13,,,,,6,,,57,100
159824,note_off,,,,,80,0,11,,,,,4,,,54,100
159824,note_off,,,,,80,0,15,,,,,7,,,66,100
159824,note_off,,,,,0,0,15,,,,,7,,,57,100
159824,note_off,,,,,80,0,10,,,,,3,,,62,100
159824,note_off,,,,,80,0,8,,,,,1,,,69,100
159824,note_off,,,,,80,0,13,,,,,6,,,66,100
159824,note_off,,,,,0,0,15,,,,,7,,,62,100
159824,note_off,,,,,80,0,12,,,,,5,,,42,100
159936,note_on,,,,,112,0,14,,,,,6,,,54,100
159936,note_on,,,,,112,0,12,,,,,5,,,42,94
159936,note_on,,,,,0,0,15,,,,,7,,,57,100
159936,note_on,,,,,112,0,8,,,,,1,,,74,94
159936,note_on,,,,,112,0,11,,,,,4,,,54,94
159936,note_on,,,,,0,0,13,,,,,6,,,62,100
159936,note_on,,,,,0,0,15,,,,,7,,,62,100
159936,note_on,,,,,0,0,13,,,,,6,,,57,100
159936,note_on,,,,,112,0,15,,,,,7,,,66,100
159936,note_on,,,,,112,0,13,,,,,6,,,66,100
159936,note_on,,,,,112,0,9,,,,,2,,,69,94
159936,note_on,,,,,112,0,16,,,,,7,,,54,100
159936,note_on,,,,,112,0,10,,,,,3,,,62,94
160016,note_off,,,,,80,0,8,,,,,1,,,74,100
160016,note_off,,,,,80,0,13,,,,,6,,,66,100
160016,note_off,,,,,0,0,13,,,,,6,,,57,100
160016,note_off,,,,,80,0,16,,,,,7,,,54,100
160016,note_off,,,,,0,0,15,,,,,7,,,62,100
160016,note_off,,,,,0,0,15,,,,,7,,,57,100
160016,note_off,,,,,0,0,13,,,,,6,,,62,100
160016,note_off,,,,,80,0,11,,,,,4,,,54,100
160016,note_off,,,,,80,0,15,,,,,7,,,66,100
160016,note_off,,,,,80,0,9,,,,,2,,,69,100
160016,note_off,,,,,80,0,14,,,,,6,,,54,100
160016,note_off,,,,,80,0,12,,,,,5,,,42,100
160016,note_off,,,,,80,0,10,,,,,3,,,62,100
160128,note_on,,,,,112,0,13,,,,,6,,,59,100
160128,note_on,,,,,0,0,13,,,,,6,,,62,100
160128,note_on,,,,,0,0,13,,,,,6,,,67,100
160128,note_on,,,,,112,0,14,,,,,6,,,55,100
160128,note_on,,,,,112,0,10,,,,,3,,,62,91
160128,note_on,,,,,112,0,15,,,,,7,,,59,100
160128,note_on,,,,,112,0,12,,,,,5,,,43,91
160128,note_on,,,,,112,0,9,,,,,2,,,74,91
160128,note_on,,,,,112,0,16,,,,,7,,,55,100
160128,note_on,,,,,0,0,15,,,,,7,,,67,100
160128,note_on,,,,,0,0,15,,,,,7,,,62,100
160128,note_on,,,,,112,0,11,,,,,4,,,55,91
160128,note_on,,,,,112,0,8,,,,,1,,,71,91
160208,note_off,,,,,80,0,8,,,,,1,,,71,100
160208,note_off,,,,,80,0,9,,,,,2,,,74,100
160320,note_on,,,,,112,0,8,,,,,1,,,67,80
160320,note_on,,,,,112,0,9,,,,,2,,,71,80
160384,note_off,,,,,256,0,12,,,,,5,,,43,100
160384,note_off,,,,,0,0,15,,,,,7,,,62,100
160384,note_off,,,,,256,0,13,,,,,6,,,59,100
160384,note_off,,,,,0,0,13,,,,,6,,,62,100
160384,note_off,,,,,0,0,13,,,,,6,,,67,100
160384,note_off,,,,,0,0,15,,,,,7,,,67,100
160384,note_off,,,,,256,0,15,,,,,7,,,59,100
160384,note_off,,,,,256,0,10,,,,,3,,,62,100
160384,note_off,,,,,256,0,16,,,,,7,,,55,100
160384,note_off,,,,,256,0,14,,,,,6,,,55,100
160384,note_off,,,,,256,0,11,,,,,4,,,55,100
160400,note_off,,,,,80,0,9,,,,,2,,,71,100
160400,note_off,,,,,80,0,8,,,,,1,,,67,100
160512,note_on,,,,,112,0,8,,,,,1,,,71,80
160512,note_on,,,,,112,0,9,,,,,2,,,67,80
160592,note_off,,,,,80,0,9,,,,,2,,,67,100
160592,note_off,,,,,80,0,8,,,,,1,,,71,100
160704,note_on,,,,,0,0,13,,,,,6,,,62,100
160704,note_on,,,,,320,0,13,,,,,6,,,59,100
160704,note_on,,,,,320,0,16,,,,,7,,,55,100
160704,note_on,,,,,320,0,12,,,,,5,,,43,80
160704,note_on,,,,,320,0,10,,,,,3,,,62,80
160704,note_on,,,,,112,0,8,,,,,1,,,74,80
160704,note_on,,,,,320,0,14,,,,,6,,,55,100
160704,note_on,,,,,320,0,11,,,,,4,,,55,80
160704,note_on,,,,,320,0,15,,,,,7,,,59,100
160704,note_on,,,,,0,0,15,,,,,7,,,62,100
160704,note_on,,,,,112,0,9,,,,,2,,,71,80
160704,set_tempo,,,,,159552,1,0,,468750,,,,,,,
160784,note_off,,,,,80,0,14,,,,,6,,,55,100
160784,note_off,,,,,80,0,9,,,,,2,,,71,100
160784,note_off,,,,,80,0,10,,,,,3,,,62,100
160784,note_off,,,,,80,0,12,,,,,5,,,43,100
160784,note_off,,,,,80,0,8,,,,,1,,,74,100
160784,note_off,,,,,0,0,13,,,,,6,,,62,100
160784,note_off,,,,,80,0,13,,,,,6,,,59,100
160784,note_off,,,,,80,0,11,,,,,4,,,55,100
160784,note_off,,,,,0,0,15,,,,,7,,,62,100
160784,note_off,,,,,80,0,15,,,,,7,,,59,100
160784,note_off,,,,,80,0,16,,,,,7,,,55,100
160896,note_on,,,,,112,0,8,,,,,1,,,69,80
160896,set_tempo,,,,,192,1,0,,472440,,,,,,,
160896,note_on,,,,,0,0,15,,,,,7,,,62,100
160896,note_on,,,,,112,0,15,,,,,7,,,57,100
160896,note_on,,,,,112,0,16,,,,,7,,,54,100
160896,note_on,,,,,112,0,9,,,,,2,,,74,80
160896,note_on,,,,,112,0,14,,,,,6,,,54,100
160896,note_on,,,,,112,0,10,,,,,3,,,62,80
160896,note_on,,,,,112,0,12,,,,,5,,,42,80
160896,note_on,,,,,112,0,11,,,,,4,,,54,80
160896,note_on,,,,,0,0,13,,,,,6,,,62,100
160896,note_on,,,,,112,0,13,,,,,6,,,57,100
160976,note_off,,,,,80,0,16,,,,,7,,,54,100
160976,note_off,,,,,80,0,14,,,,,6,,,54,100
160976,note_off,,,,,80,0,11,,,,,4,,,54,100
160976,note_off,,,,,80,0,15,,,,,7,,,57,100
160976,note_off,,,,,0,0,15,,,,,7,,,62,100
160976,note_off,,,,,0,0,13,,,,,6,,,62,100
160976,note_off,,,,,80,0,8,,,,,1,,,69,100
160976,note_off,,,,,80,0,9,,,,,2,,,74,100
160976,note_off,,,,,80,0,12,,,,,5,,,42,100
160976,note_off,,,,,80,0,10,,,,,3,,,62,100
160976,note_off,,,,,80,0,13,,,,,6,,,57,100
161088,note_on,,,,,112,0,12,,,,,5,,,42,84
161088,note_on,,,,,112,0,13,,,,,6,,,57,100
161088,note_on,,,,,0,0,13,,,,,6,,,62,100
161088,set_tempo,,,,,192,1,0,,476190,,,,,,,
161088,note_on,,,,,112,0,11,,,,,4,,,54,84
161088,note_on,,,,,112,0,9,,,,,2,,,69,84
161088,note_on,,,,,112,0,16,,,,,7,,,54,100
161088,note_on,,,,,112,0,8,,,,,1,,,74,84
161088,note_on,,,,,112,0,14,,,,,6,,,54,100
161088,note_on,,,,,112,0,10,,,,,3,,,62,84
161088,note_on,,,,,0,0,15,,,,,7,,,62,100
161088,note_on,,,,,112,0,15,,,,,7,,,57,100
161168,note_off,,,,,80,0,11,,,,,4,,,54,100
161168,note_off,,,,,80,0,8,,,,,1,,,74,100
161168,note_off,,,,,80,0,10,,,,,3,,,62,100
161168,note_off,,,,,0,0,15,,,,,7,,,62,100
161168,note_off,,,,,80,0,15,,,,,7,,,57,100
161168,note_off,,,,,0,0,13,,,,,6,,,62,100
161168,note_off,,,,,80,0,13,,,,,6,,,57,100
161168,note_off,,,,,80,0,16,,,,,7,,,54,100
161168,note_off,,,,,80,0,12,,,,,5,,,42,100
161168,note_off,,,,,80,0,9,,,,,2,,,69,100
161168,note_off,,,,,80,0,14,,,,,6,,,54,100
161280,note_on,,,,,112,0,11,,,,,4,,,55,89
161280,note_on,,,,,112,0,12,,,,,5,,,43,89
161280,note_on,,,,,112,0,14,,,,,6,,,55,100
161280,note_on,,,,,112,0,10,,,,,3,,,62,89
161280,note_on,,,,,112,0,13,,,,,6,,,59,100
161280,set_tempo,,,,,192,1,0,,480000,,,,,,,
161280,note_on,,,,,112,0,8,,,,,1,,,71,89
161280,note_on,,,,,0,0,15,,,,,7,,,62,100
161280,note_on,,,,,112,0,15,,,,,7,,,59,100
161280,note_on,,,,,112,0,16,,,,,7,,,55,100
161280,note_on,,,,,112,0,9,,,,,2,,,71,89
161280,note_on,,,,,0,0,13,,,,,6,,,62,100
161360,note_off,,,,,80,0,13,,,,,6,,,59,100
161360,note_off,,,,,80,0,12,,,,,5,,,43,100
161360,note_off,,,,,80,0,16,,,,,7,,,55,100
161360,note_off,,,,,80,0,14,,,,,6,,,55,100
161360,note_off,,,,,80,0,8,,,,,1,,,71,100
161360,note_off,,,,,0,0,13,,,,,6,,,62,100
161360,note_off,,,,,80,0,11,,,,,4,,,55,100
161360,note_off,,,,,80,0,9,,,,,2,,,71,100
161360,note_off,,,,,80,0,15,,,,,7,,,59,100
161360,note_off,,,,,80,0,10,,,,,3,,,62,100
161360,note_off,,,,,0,0,15,,,,,7,,,62,100
161472,note_on,,,,,112,0,8,,,,,1,,,55,105
161472,note_on,,,,,112,0,14,,,,,6,,,43,100
161472,note_on,,,,,112,0,9,,,,,2,,,55,105
161472,note_on,,,,,112,0,13,,,,,6,,,55,100
161472,note_on,,,,,112,0,12,,,,,5,,,43,105
161472,note_on,,,,,112,0,15,,,,,7,,,55,100
161472,note_on,,,,,112,0,11,,,,,4,,,55,105
161472,note_on,,,,,112,0,10,,,,,3,,,55,105
161472,set_tempo,,,,,192,1,0,,480000,,,,,,,
161472,note_on,,,,,112,0,16,,,,,7,,,43,100
161552,note_off,,,,,80,0,16,,,,,7,,,43,100
161552,note_off,,,,,80,0,13,,,,,6,,,55,100
161552,note_off,,,,,80,0,8,,,,,1,,,55,100
161552,note_off,,,,,80,0,12,,,,,5,,,43,100
161552,note_off,,,,,80,0,11,,,,,4,,,55,100
161552,note_off,,,,,80,0,9,,,,,2,,,55,100
161552,note_off,,,,,80,0,14,,,,,6,,,43,100
161552,note_off,,,,,80,0,15,,,,,7,,,55,100
161552,note_off,,,,,80,0,10,,,,,3,,,55,100
161664,note_on,,,,,112,0,13,,,,,6,,,59,100
161664,note_on,,,,,112,0,11,,,,,4,,,59,105
161664,note_on,,,,,112,0,12,,,,,5,,,47,105
161664,note_on,,,,,112,0,8,,,,,1,,,59,105
161664,note_on,,,,,112,0,16,,,,,7,,,47,100
161664,set_tempo,,,,,192,1,0,,483870,,,,,,,
161664,note_on,,,,,112,0,10,,,,,3,,,59,105
161664,note_on,,,,,112,0,15,,,,,7,,,59,100
161664,note_on,,,,,112,0,9,,,,,2,,,59,105
161664,note_on,,,,,112,0,14,,,,,6,,,47,100
161744,note_off,,,,,80,0,15,,,,,7,,,59,100
161744,note_off,,,,,80,0,12,,,,,5,,,47,100
161744,note_off,,,,,80,0,14,,,,,6,,,47,100
161744,note_off,,,,,80,0,8,,,,,1,,,59,100
161744,note_off,,,,,80,0,9,,,,,2,,,59,100
161744,note_off,,,,,80,0,10,,,,,3,,,59,100
161744,note_off,,,,,80,0,13,,,,,6,,,59,100
161744,note_off,,,,,80,0,16,,,,,7,,,47,100
161744,note_off,,,,,80,0,11,,,,,4,,,59,100
161856,set_tempo,,,,,192,1,0,,487804,,,,,,,
161856,note_on,,,,,112,0,13,,,,,6,,,62,100
161856,note_on,,,,,112,0,15,,,,,7,,,62,100
161856,note_on,,,,,112,0,8,,,,,1,,,62,105
161856,note_on,,,,,112,0,10,,,,,3,,,62,105
161856,note_on,,,,,112,0,16,,,,,7,,,50,100
161856,note_on,,,,,112,0,11,,,,,4,,,62,105
161856,note_on,,,,,112,0,9,,,,,2,,,62,105
161856,note_on,,,,,112,0,12,,,,,5,,,50,105
161856,note_on,,,,,112,0,14,,,,,6,,,50,100
161936,note_off,,,,,80,0,16,,,,,7,,,50,100
161936,note_off,,,,,80,0,10,,,,,3,,,62,100
161936,note_off,,,,,80,0,9,,,,,2,,,62,100
161936,note_off,,,,,80,0,12,,,,,5,,,50,100
161936,note_off,,,,,80,0,8,,,,,1,,,62,100
161936,note_off,,,,,80,0,13,,,,,6,,,62,100
161936,note_off,,,,,80,0,11,,,,,4,,,62,100
161936,note_off,,,,,80,0,14,,,,,6,,,50,100
161936,note_off,,,,,80,0,15,,,,,7,,,62,100
162048,note_on,,,,,112,0,9,,,,,2,,,57,105
162048,note_on,,,,,112,0,11,,,,,4,,,57,105
162048,note_on,,,,,112,0,13,,,,,6,,,57,100
162048,note_on,,,,,112,0,14,,,,,6,,,45,100
162048,note_on,,,,,112,0,10,,,,,3,,,57,105
162048,note_on,,,,,112,0,8,,,,,1,,,57,105
162048,note_on,,,,,112,0,15,,,,,7,,,57,100
162048,note_on,,,,,112,0,12,,,,,5,,,45,105
162048,set_tempo,,,,,192,1,0,,491803,,,,,,,
162048,note_on,,,,,112,0,16,,,,,7,,,45,100
162128,note_off,,,,,80,0,9,,,,,2,,,57,100
162128,note_off,,,,,80,0,15,,,,,7,,,57,100
162128,note_off,,,,,80,0,12,,,,,5,,,45,100
162128,note_off,,,,,80,0,16,,,,,7,,,45,100
162128,note_off,,,,,80,0,10,,,,,3,,,57,100
162128,note_off,,,,,80,0,8,,,,,1,,,57,100
162128,note_off,,,,,80,0,11,,,,,4,,,57,100
162128,note_off,,,,,80,0,13,,,,,6,,,57,100
162128,note_off,,,,,80,0,14,,,,,6,,,45,100
162240,set_tempo,,,,,192,1,0,,495867,,,,,,,
162240,note_on,,,,,112,0,11,,,,,4,,,62,105
162240,note_on,,,,,112,0,9,,,,,2,,,62,105
162240,note_on,,,,,112,0,12,,,,,5,,,50,105
162240,note_on,,,,,112,0,10,,,,,3,,,62,105
162240,note_on,,,,,112,0,16,,,,,7,,,50,100
162240,note_on,,,,,112,0,14,,,,,6,,,50,100
162240,note_on,,,,,112,0,8,,,,,1,,,62,105
162240,note_on,,,,,112,0,13,,,,,6,,,62,100
162240,note_on,,,,,112,0,15,,,,,7,,,62,100
162320,note_off,,,,,80,0,16,,,,,7,,,50,100
162320,note_off,,,,,80,0,10,,,,,3,,,62,100
162320,note_off,,,,,80,0,13,,,,,6,,,62,100
162320,note_off,,,,,80,0,15,,,,,7,,,62,100
162320,note_off,,,,,80,0,9,,,,,2,,,62,100
162320,note_off,,,,,80,0,12,,,,,5,,,50,100
162320,note_off,,,,,80,0,14,,,,,6,,,50,100
162320,note_off,,,,,80,0,8,,,,,1,,,62,100
162320,note_off,,,,,80,0,11,,,,,4,,,62,100
162432,note_on,,,,,112,0,15,,,,,7,,,59,100
162432,note_on,,,,,112,0,10,,,,,3,,,59,105
162432,note_on,,,,,112,0,14,,,,,6,,,47,100
162432,note_on,,,,,112,0,9,,,,,2,,,59,105
162432,note_on,,,,,112,0,11,,,,,4,,,59,105
162432,note_on,,,,,112,0,13,,,,,6,,,59,100
162432,note_on,,,,,112,0,8,,,,,1,,,59,105
162432,note_on,,,,,112,0,16,,,,,7,,,47,100
162432,set_tempo,,,,,192,1,0,,500000,,,,,,,
162432,note_on,,,,,112,0,12,,,,,5,,,47,105
162512,note_off,,,,,80,0,9,,,,,2,,,59,100
162512,note_off,,,,,80,0,13,,,,,6,,,59,100
162512,note_off,,,,,80,0,15,,,,,7,,,59,100
162512,note_off,,,,,80,0,14,,,,,6,,,47,100
162512,note_off,,,,,80,0,12,,,,,5,,,47,100
162512,note_off,,,,,80,0,8,,,,,1,,,59,100
162512,note_off,,,,,80,0,16,,,,,7,,,47,100
162512,note_off,,,,,80,0,10,,,,,3,,,59,100
162512,note_off,,,,,80,0,11,,,,,4,,,59,100
162544,set_tempo,,,,,112,1,0,,504201,,,,,,,
162624,note_on,,,,,112,0,11,,,,,4,,,55,105
162624,note_on,,,,,112,0,8,,,,,1,,,55,105
162624,note_on,,,,,112,0,14,,,,,6,,,43,100
162624,note_on,,,,,112,0,12,,,,,5,,,43,105
162624,note_on,,,,,112,0,9,,,,,2,,,55,105
162624,note_on,,,,,112,0,10,,,,,3,,,55,105
162624,note_on,,,,,112,0,16,,,,,7,,,43,100
162624,note_on,,,,,112,0,13,,,,,6,,,55,100
162624,note_on,,,,,112,0,15,,,,,7,,,55,100
162660,set_tempo,,,,,116,1,0,,508474,,,,,,,
162704,note_off,,,,,80,0,9,,,,,2,,,55,100
162704,note_off,,,,,80,0,15,,,,,7,,,55,100
162704,note_off,,,,,80,0,8,,,,,1,,,55,100
162704,note_off,,,,,80,0,14,,,,,6,,,43,100
162704,note_off,,,,,80,0,11,,,,,4,,,55,100
162704,note_off,,,,,80,0,16,,,,,7,,,43,100
162704,note_off,,,,,80,0,12,,,,,5,,,43,100
162704,note_off,,,,,80,0,10,,,,,3,,,55,100
162704,note_off,,,,,80,0,13,,,,,6,,,55,100
162776,set_tempo,,,,,116,1,0,,512820,,,,,,,
162816,note_on,,,,,112,0,16,,,,,7,,,47,100
162816,note_on,,,,,112,0,13,,,,,6,,,59,100
162816,note_on,,,,,112,0,9,,,,,2,,,59,105
162816,note_on,,,,,112,0,10,,,,,3,,,59,105
162816,note_on,,,,,112,0,14,,,,,6,,,47,100
162816,note_on,,,,,112,0,8,,,,,1,,,59,105
162816,note_on,,,,,112,0,15,,,,,7,,,59,100
162816,note_on,,,,,112,0,12,,,,,5,,,47,105
162816,note_on,,,,,112,0,11,,,,,4,,,59,105
162892,set_tempo,,,,,116,1,0,,517241,,,,,,,
162896,note_off,,,,,80,0,14,,,,,6,,,47,100
162896,note_off,,,,,80,0,13,,,,,6,,,59,100
162896,note_off,,,,,80,0,15,,,,,7,,,59,100
162896,note_off,,,,,80,0,8,,,,,1,,,59,100
162896,note_off,,,,,80,0,10,,,,,3,,,59,100
162896,note_off,,,,,80,0,16,,,,,7,,,47,100
162896,note_off,,,,,80,0,9,,,,,2,,,59,100
162896,note_off,,,,,80,0,12,,,,,5,,,47,100
162896,note_off,,,,,80,0,11,,,,,4,,,59,100
163008,note_on,,,,,112,0,8,,,,,1,,,62,105
163008,note_on,,,,,112,0,14,,,,,6,,,50,100
163008,note_on,,,,,112,0,10,,,,,3,,,62,105
163008,note_on,,,,,112,0,13,,,,,6,,,62,100
163008,note_on,,,,,112,0,9,,,,,2,,,62,105
163008,note_on,,,,,112,0,12,,,,,5,,,50,105
163008,set_tempo,,,,,116,1,0,,521739,,,,,,,
163008,note_on,,,,,112,0,11,,,,,4,,,62,105
163008,note_on,,,,,112,0,16,,,,,7,,,50,100
163008,note_on,,,,,112,0,15,,,,,7,,,62,100
163044,set_tempo,,,,,36,1,0,,526315,,,,,,,
163084,set_tempo,,,,,40,1,0,,530973,,,,,,,
163088,note_off,,,,,80,0,11,,,,,4,,,62,100
163088,note_off,,,,,80,0,10,,,,,3,,,62,100
163088,note_off,,,,,80,0,13,,,,,6,,,62,100
163088,note_off,,,,,80,0,9,,,,,2,,,62,100
163088,note_off,,,,,80,0,8,,,,,1,,,62,100
163088,note_off,,,,,80,0,15,,,,,7,,,62,100
163088,note_off,,,,,80,0,16,,,,,7,,,50,100
163088,note_off,,,,,80,0,12,,,,,5,,,50,100
163088,note_off,,,,,80,0,14,,,,,6,,,50,100
163120,set_tempo,,,,,36,1,0,,535714,,,,,,,
163160,set_tempo,,,,,40,1,0,,540540,,,,,,,
163200,note_on,,,,,112,0,15,,,,,7,,,57,100
163200,note_on,,,,,112,0,14,,,,,6,,,45,100
163200,note_on,,,,,112,0,8,,,,,1,,,57,105
163200,note_on,,,,,112,0,16,,,,,7,,,45,100
163200,note_on,,,,,112,0,9,,,,,2,,,57,105
163200,note_on,,,,,112,0,12,,,,,5,,,45,105
163200,note_on,,,,,112,0,11,,,,,4,,,57,105
163200,note_on,,,,,112,0,10,,,,,3,,,57,105
163200,note_on,,,,,112,0,13,,,,,6,,,57,100
163200,set_tempo,,,,,40,1,0,,545454,,,,,,,
163216,set_tempo,,,,,16,1,0,,550458,,,,,,,
163236,set_tempo,,,,,20,1,0,,555555,,,,,,,
163256,set_tempo,,,,,20,1,0,,560747,,,,,,,
163276,set_tempo,,,,,20,1,0,,566037,,,,,,,
163280,note_off,,,,,80,0,9,,,,,2,,,57,100
163280,note_off,,,,,80,0,16,,,,,7,,,45,100
163280,note_off,,,,,80,0,15,,,,,7,,,57,100
163280,note_off,,,,,80,0,10,,,,,3,,,57,100
163280,note_off,,,,,80,0,14,,,,,6,,,45,100
163280,note_off,,,,,80,0,13,,,,,6,,,57,100
163280,note_off,,,,,80,0,12,,,,,5,,,45,100
163280,note_off,,,,,80,0,11,,,,,4,,,57,100
163280,note_off,,,,,80,0,8,,,,,1,,,57,100
163296,set_tempo,,,,,20,1,0,,571428,,,,,,,
163312,set_tempo,,,,,16,1,0,,576923,,,,,,,
163332,set_tempo,,,,,20,1,0,,582524,,,,,,,
163352,set_tempo,,,,,20,1,0,,588235,,,,,,,
163372,set_tempo,,,,,20,1,0,,594059,,,,,,,
163392,note_on,,,,,112,0,12,,,,,5,,,50,105
163392,note_on,,,,,112,0,11,,,,,4,,,62,105
163392,note_on,,,,,112,0,15,,,,,7,,,62,100
163392,note_on,,,,,112,0,13,,,,,6,,,62,100
163392,note_on,,,,,112,0,14,,,,,6,,,50,100
163392,note_on,,,,,112,0,10,,,,,3,,,62,105
163392,note_on,,,,,112,0,9,,,,,2,,,62,105
163392,note_on,,,,,112,0,16,,,,,7,,,50,100
163392,set_tempo,,,,,20,1,0,,600000,,,,,,,
163392,note_on,,,,,112,0,8,,,,,1,,,62,105
163400,set_tempo,,,,,8,1,0,,606060,,,,,,,
163408,set_tempo,,,,,8,1,0,,612244,,,,,,,
163420,set_tempo,,,,,12,1,0,,618556,,,,,,,
163428,set_tempo,,,,,8,1,0,,625000,,,,,,,
163440,set_tempo,,,,,12,1,0,,631578,,,,,,,
163448,set_tempo,,,,,8,1,0,,638297,,,,,,,
163456,set_tempo,,,,,8,1,0,,645161,,,,,,,
163468,set_tempo,,,,,12,1,0,,652173,,,,,,,
163472,note_off,,,,,80,0,15,,,,,7,,,62,100
163472,note_off,,,,,80,0,14,,,,,6,,,50,100
163472,note_off,,,,,80,0,9,,,,,2,,,62,100
163472,note_off,,,,,80,0,8,,,,,1,,,62,100
163472,note_off,,,,,80,0,12,,,,,5,,,50,100
163472,note_off,,,,,80,0,10,,,,,3,,,62,100
163472,note_off,,,,,80,0,13,,,,,6,,,62,100
163472,note_off,,,,,80,0,11,,,,,4,,,62,100
163472,note_off,,,,,80,0,16,,,,,7,,,50,100
163476,set_tempo,,,,,8,1,0,,659340,,,,,,,
163488,set_tempo,,,,,12,1,0,,666666,,,,,,,
163496,set_tempo,,,,,8,1,0,,674157,,,,,,,
163504,set_tempo,,,,,8,1,0,,681818,,,,,,,
163516,set_tempo,,,,,12,1,0,,689655,,,,,,,
163524,set_tempo,,,,,8,1,0,,697674,,,,,,,
163536,set_tempo,,,,,12,1,0,,705882,,,,,,,
163544,set_tempo,,,,,8,1,0,,714285,,,,,,,
163552,set_tempo,,,,,8,1,0,,722891,,,,,,,
163564,set_tempo,,,,,12,1,0,,731707,,,,,,,
163572,set_tempo,,,,,8,1,0,,740740,,,,,,,
163584,set_tempo,,,,,12,1,0,,937500,,,,,,,
163584,note_on,,,,,112,0,16,,,,,7,,,43,100
163584,note_on,,,,,112,0,8,,,,,1,,,55,105
163584,note_on,,,,,112,0,9,,,,,2,,,55,105
163584,note_on,,,,,112,0,13,,,,,6,,,55,100
163584,end_of_track,,,,,0,1,0,,,,,,,,,
163584,note_on,,,,,112,0,12,,,,,5,,,43,105
163584,note_on,,,,,112,0,14,,,,,6,,,43,100
163584,note_on,,,,,112,0,10,,,,,3,,,55,105
163584,note_on,,,,,112,0,15,,,,,7,,,55,100
163584,note_on,,,,,112,0,11,,,,,4,,,55,105
164352,note_off,,,,,768,0,12,,,,,5,,,43,100
164352,end_of_track,,,,,0,1,15,,,,,,,,,
164352,note_off,,,,,768,0,15,,,,,7,,,55,100
164352,note_off,,,,,768,0,13,,,,,6,,,55,100
164352,note_off,,,,,768,0,10,,,,,3,,,55,100
164352,end_of_track,,,,,0,1,10,,,,,,,,,
164352,note_off,,,,,768,0,11,,,,,4,,,55,100
164352,end_of_track,,,,,0,1,11,,,,,,,,,
164352,note_off,,,,,768,0,14,,,,,6,,,43,100
164352,end_of_track,,,,,0,1,14,,,,,,,,,
164352,end_of_track,,,,,0,1,9,,,,,,,,,
164352,note_off,,,,,768,0,9,,,,,2,,,55,100
164352,note_off,,,,,768,0,16,,,,,7,,,43,100
164352,note_off,,,,,768,0,8,,,,,1,,,55,100
164352,end_of_track,,,,,0,1,12,,,,,,,,,
164352,end_of_track,,,,,0,1,13,,,,,,,,,
164352,end_of_track,,,,,0,1,16,,,,,,,,,
165888,end_of_track,,,,,0,1,8,,,,,,,,,
165888,program_change,,,,,1536,0,8,,,,,1,48,,,
