tick,type,numerator,denominator,clocks_per_click,notated_32nd_notes_per_beat,time,meta,track,data,tempo,control,value,channel,program,key,note,velocity
0,time_signature,3,4,96,8,0,1,0,,,,,,,,,
0,key_signature,,,,,0,1,5,,,,,,,F,,
0,control_change,,,,,0,0,5,,,91,65,0,,,,
0,control_change,,,,,0,0,5,,,10,53,0,,,,
0,control_change,,,,,0,0,5,,,7,100,0,,,,
0,program_change,,,,,0,0,5,,,,,0,48,,,
0,control_change,,,,,0,0,5,,,0,0,0,,,,
0,track_name,,,,,0,1,5,,,,,,,,,
0,end_of_track,,,,,0,1,4,,,,,,,,,
0,key_signature,,,,,0,1,4,,,,,,,F,,
0,control_change,,,,,0,0,4,,,91,65,0,,,,
0,control_change,,,,,0,0,4,,,10,53,0,,,,
0,control_change,,,,,0,0,4,,,7,100,0,,,,
0,program_change,,,,,0,0,4,,,,,0,48,,,
0,control_change,,,,,0,0,4,,,0,0,0,,,,
0,track_name,,,,,0,1,4,,,,,,,,,
0,end_of_track,,,,,0,1,3,,,,,,,,,
0,key_signature,,,,,0,1,3,,,,,,,F,,
0,program_change,,,,,0,0,3,,,,,0,48,,,
0,control_change,,,,,0,0,3,,,91,65,0,,,,
0,control_change,,,,,0,0,3,,,10,53,0,,,,
0,control_change,,,,,0,0,3,,,7,100,0,,,,
0,control_change,,,,,0,0,3,,,0,0,0,,,,
0,track_name,,,,,0,1,3,,,,,,,,,
0,end_of_track,,,,,0,1,5,,,,,,,,,
0,end_of_track,,,,,0,1,2,,,,,,,,,
0,track_name,,,,,0,1,6,,,,,,,,,
0,program_change,,,,,0,0,6,,,,,0,48,,,
0,program_change,,,,,0,0,12,,,,,4,48,,,
0,control_change,,,,,0,0,12,,,0,0,4,,,,
0,note_on,,,,,0,0,8,,,,,0,,,79,70
0,key_signature,,,,,0,1,8,,,,,,,F,,
0,control_change,,,,,0,0,8,,,91,65,0,,,,
0,control_change,,,,,0,0,8,,,10,53,0,,,,
0,control_change,,,,,0,0,8,,,7,100,0,,,,
0,program_change,,,,,0,0,8,,,,,0,48,,,
0,control_change,,,,,0,0,8,,,0,0,0,,,,
0,track_name,,,,,0,1,8,,,,,,,,,
0,end_of_track,,,,,0,1,7,,,,,,,,,
0,key_signature,,,,,0,1,7,,,,,,,F,,
0,control_change,,,,,0,0,7,,,91,65,0,,,,
0,control_change,,,,,0,0,7,,,10,53,0,,,,
0,control_change,,,,,0,0,7,,,7,100,0,,,,
0,program_change,,,,,0,0,7,,,,,0,48,,,
0,control_change,,,,,0,0,7,,,0,0,0,,,,
0,track_name,,,,,0,1,7,,,,,,,,,
0,end_of_track,,,,,0,1,6,,,,,,,,,
0,key_signature,,,,,0,1,6,,,,,,,F,,
0,control_change,,,,,0,0,6,,,91,65,0,,,,
0,control_change,,,,,0,0,6,,,10,53,0,,,,
0,control_change,,,,,0,0,6,,,7,100,0,,,,
0,control_change,,,,,0,0,6,,,0,0,0,,,,
0,control_change,,,,,0,0,12,,,7,77,4,,,,
0,track_name,,,,,0,1,2,,,,,,,,,
0,track_name,,,,,0,1,1,,,,,,,,,
0,control_change,,,,,0,0,14,,,0,0,5,,,,
0,track_name,,,,,0,1,14,,,,,,,,,
0,note_on,,,,,0,0,13,,,,,5,,,58,100
0,note_on,,,,,0,0,13,,,,,5,,,62,100
0,key_signature,,,,,0,1,13,,,,,,,F,,
0,control_change,,,,,0,0,13,,,91,67,5,,,,
0,control_change,,,,,0,0,13,,,7,55,5,,,,
0,program_change,,,,,0,0,13,,,,,5,6,,,
0,control_change,,,,,0,0,13,,,0,0,5,,,,
0,track_name,,,,,0,1,13,,,,,,,,,
0,track_name,,,,,0,1,9,,,,,,,,,
0,control_change,,,,,0,0,9,,,0,0,1,,,,
0,program_change,,,,,0,0,9,,,,,1,48,,,
0,control_change,,,,,0,0,9,,,7,100,1,,,,
0,control_change,,,,,0,0,9,,,10,38,1,,,,
0,control_change,,,,,0,0,9,,,91,67,1,,,,
0,key_signature,,,,,0,1,9,,,,,,,F,,
0,note_on,,,,,0,0,9,,,,,1,,,70,70
0,set_tempo,,,,,0,1,0,,600000,,,,,,,
0,sequencer_specific,,,,,0,1,0,"(0, 0, 119, 14, 1)",,,,,,,,
0,sequencer_specific,,,,,0,1,0,"(0, 0, 65)",,,,,,,,
0,end_of_track,,,,,0,1,1,,,,,,,,,
0,control_change,,,,,0,0,14,,,7,55,5,,,,
0,program_change,,,,,0,0,14,,,,,5,6,,,
0,key_signature,,,,,0,1,14,,,,,,,F,,
0,control_change,,,,,0,0,12,,,91,61,4,,,,
0,key_signature,,,,,0,1,12,,,,,,,F,,
0,note_on,,,,,0,0,12,,,,,4,,,43,70
0,track_name,,,,,0,1,12,,,,,,,,,
0,note_on,,,,,0,0,10,,,,,2,,,62,70
0,key_signature,,,,,0,1,10,,,,,,,F,,
0,control_change,,,,,0,0,10,,,91,64,2,,,,
0,control_change,,,,,0,0,10,,,7,95,2,,,,
0,program_change,,,,,0,0,10,,,,,2,48,,,
0,control_change,,,,,0,0,10,,,0,0,2,,,,
0,track_name,,,,,0,1,10,,,,,,,,,
0,control_change,,,,,0,0,14,,,91,67,5,,,,
0,track_name,,,,,0,1,11,,,,,,,,,
0,program_change,,,,,0,0,11,,,,,3,48,,,
0,control_change,,,,,0,0,11,,,7,82,3,,,,
0,control_change,,,,,0,0,11,,,10,81,3,,,,
0,control_change,,,,,0,0,11,,,91,62,3,,,,
0,key_signature,,,,,0,1,11,,,,,,,F,,
0,note_on,,,,,0,0,11,,,,,3,,,55,70
0,note_on,,,,,0,0,14,,,,,5,,,55,100
0,control_change,,,,,0,0,11,,,0,0,3,,,,
0,control_change,,,,,0,0,12,,,10,102,4,,,,
256,note_off,,,,,256,0,13,,,,,5,,,62,100
256,note_off,,,,,0,0,13,,,,,5,,,58,100
344,note_off,,,,,344,0,9,,,,,1,,,70,100
344,note_off,,,,,344,0,11,,,,,3,,,55,100
344,note_off,,,,,344,0,14,,,,,5,,,55,100
344,note_off,,,,,344,0,10,,,,,2,,,62,100
344,note_off,,,,,344,0,8,,,,,0,,,79,100
344,note_off,,,,,344,0,12,,,,,4,,,43,100
1056,note_on,,,,,712,0,10,,,,,2,,,62,70
1056,note_on,,,,,712,0,8,,,,,0,,,79,70
1056,note_on,,,,,800,0,13,,,,,5,,,58,100
1056,note_on,,,,,0,0,13,,,,,5,,,62,100
1056,note_on,,,,,712,0,11,,,,,3,,,55,70
1056,note_on,,,,,712,0,9,,,,,1,,,70,70
1056,note_on,,,,,712,0,12,,,,,4,,,43,70
1056,note_on,,,,,712,0,14,,,,,5,,,55,100
1120,note_off,,,,,64,0,13,,,,,5,,,58,100
1120,note_off,,,,,0,0,13,,,,,5,,,62,100
1140,note_off,,,,,84,0,11,,,,,3,,,55,100
1140,note_off,,,,,84,0,14,,,,,5,,,55,100
1140,note_off,,,,,84,0,9,,,,,1,,,70,100
1140,note_off,,,,,84,0,10,,,,,2,,,62,100
1140,note_off,,,,,84,0,12,,,,,4,,,43,100
1140,note_off,,,,,84,0,8,,,,,0,,,79,100
1152,note_on,,,,,12,0,11,,,,,3,,,62,70
1152,note_on,,,,,12,0,12,,,,,4,,,50,70
1152,note_on,,,,,12,0,10,,,,,2,,,62,70
1152,note_on,,,,,12,0,8,,,,,0,,,79,70
1152,note_on,,,,,12,0,9,,,,,1,,,70,70
1152,note_on,,,,,32,0,13,,,,,5,,,70,100
1152,note_on,,,,,12,0,14,,,,,5,,,62,100
1152,note_on,,,,,0,0,13,,,,,5,,,67,100
1408,note_off,,,,,0,0,13,,,,,5,,,67,100
1408,note_off,,,,,256,0,13,,,,,5,,,70,100
1496,note_off,,,,,344,0,9,,,,,1,,,70,100
1496,note_off,,,,,344,0,10,,,,,2,,,62,100
1496,note_off,,,,,344,0,11,,,,,3,,,62,100
1496,note_off,,,,,344,0,8,,,,,0,,,79,100
1496,note_off,,,,,344,0,12,,,,,4,,,50,100
1496,note_off,,,,,344,0,14,,,,,5,,,62,100
1536,note_on,,,,,0,0,13,,,,,5,,,69,100
1536,note_on,,,,,40,0,9,,,,,1,,,69,70
1536,note_on,,,,,40,0,10,,,,,2,,,62,70
1536,note_on,,,,,40,0,12,,,,,4,,,38,70
1536,note_on,,,,,40,0,14,,,,,5,,,50,100
1536,note_on,,,,,128,0,13,,,,,5,,,66,100
1536,note_on,,,,,40,0,11,,,,,3,,,50,70
1536,note_on,,,,,40,0,8,,,,,0,,,78,70
1792,note_off,,,,,0,0,13,,,,,5,,,69,100
1792,note_off,,,,,256,0,13,,,,,5,,,66,100
1880,note_off,,,,,344,0,8,,,,,0,,,78,100
1880,note_off,,,,,344,0,12,,,,,4,,,38,100
1880,note_off,,,,,344,0,10,,,,,2,,,62,100
1880,note_off,,,,,344,0,14,,,,,5,,,50,100
1880,note_off,,,,,344,0,11,,,,,3,,,50,100
1880,note_off,,,,,344,0,9,,,,,1,,,69,100
2208,note_on,,,,,328,0,12,,,,,4,,,38,60
2208,note_on,,,,,0,0,13,,,,,5,,,69,100
2208,note_on,,,,,416,0,13,,,,,5,,,66,100
2208,note_on,,,,,328,0,9,,,,,1,,,69,60
2208,note_on,,,,,328,0,14,,,,,5,,,50,100
2208,note_on,,,,,328,0,10,,,,,2,,,62,60
2208,note_on,,,,,328,0,8,,,,,0,,,78,60
2208,note_on,,,,,328,0,11,,,,,3,,,50,60
2272,note_off,,,,,0,0,13,,,,,5,,,69,100
2272,note_off,,,,,64,0,13,,,,,5,,,66,100
2292,note_off,,,,,84,0,14,,,,,5,,,50,100
2292,note_off,,,,,84,0,10,,,,,2,,,62,100
2292,note_off,,,,,84,0,11,,,,,3,,,50,100
2292,note_off,,,,,84,0,8,,,,,0,,,78,100
2292,note_off,,,,,84,0,9,,,,,1,,,69,100
2292,note_off,,,,,84,0,12,,,,,4,,,38,100
2304,note_on,,,,,12,0,14,,,,,5,,,55,100
2304,note_on,,,,,12,0,12,,,,,4,,,43,60
2304,note_on,,,,,12,0,8,,,,,0,,,79,60
2304,note_on,,,,,12,0,11,,,,,3,,,43,60
2304,note_on,,,,,0,0,13,,,,,5,,,62,100
2304,note_on,,,,,12,0,10,,,,,2,,,62,60
2304,note_on,,,,,32,0,13,,,,,5,,,58,100
2304,note_on,,,,,12,0,9,,,,,1,,,70,60
2560,note_off,,,,,0,0,13,,,,,5,,,62,100
2560,note_off,,,,,256,0,13,,,,,5,,,58,100
2648,note_off,,,,,344,0,14,,,,,5,,,55,100
2648,note_off,,,,,344,0,10,,,,,2,,,62,100
2648,note_off,,,,,344,0,11,,,,,3,,,43,100
2648,note_off,,,,,344,0,9,,,,,1,,,70,100
2648,note_off,,,,,344,0,8,,,,,0,,,79,100
2648,note_off,,,,,344,0,12,,,,,4,,,43,100
3360,note_on,,,,,712,0,9,,,,,1,,,82,85
3360,note_on,,,,,712,0,10,,,,,2,,,62,85
3360,note_on,,,,,712,0,14,,,,,5,,,55,100
3360,note_on,,,,,712,0,12,,,,,4,,,43,85
3360,note_on,,,,,0,0,13,,,,,5,,,62,100
3360,note_on,,,,,800,0,13,,,,,5,,,58,100
3360,note_on,,,,,712,0,11,,,,,3,,,55,85
3360,note_on,,,,,712,0,8,,,,,0,,,79,85
3424,note_off,,,,,0,0,13,,,,,5,,,62,100
3424,note_off,,,,,64,0,13,,,,,5,,,58,100
3444,note_off,,,,,84,0,12,,,,,4,,,43,100
3444,note_off,,,,,84,0,14,,,,,5,,,55,100
3444,note_off,,,,,84,0,11,,,,,3,,,55,100
3444,note_off,,,,,84,0,8,,,,,0,,,79,100
3444,note_off,,,,,84,0,9,,,,,1,,,82,100
3444,note_off,,,,,84,0,10,,,,,2,,,62,100
3456,note_on,,,,,12,0,12,,,,,4,,,38,85
3456,note_on,,,,,12,0,14,,,,,5,,,50,100
3456,note_on,,,,,12,0,11,,,,,3,,,50,85
3456,note_on,,,,,12,0,9,,,,,1,,,78,85
3456,note_on,,,,,0,0,13,,,,,5,,,69,100
3456,note_on,,,,,12,0,8,,,,,0,,,81,85
3456,note_on,,,,,12,0,10,,,,,2,,,62,85
3456,note_on,,,,,32,0,13,,,,,5,,,66,100
3712,note_off,,,,,256,0,13,,,,,5,,,66,100
3712,note_off,,,,,0,0,13,,,,,5,,,69,100
3800,note_off,,,,,344,0,11,,,,,3,,,50,100
3800,note_off,,,,,344,0,14,,,,,5,,,50,100
3800,note_off,,,,,344,0,12,,,,,4,,,38,100
3800,note_off,,,,,344,0,10,,,,,2,,,62,100
3800,note_off,,,,,344,0,9,,,,,1,,,78,100
3800,note_off,,,,,344,0,8,,,,,0,,,81,100
4512,note_on,,,,,800,0,13,,,,,5,,,69,100
4512,note_on,,,,,712,0,12,,,,,4,,,38,60
4512,note_on,,,,,712,0,9,,,,,1,,,78,60
4512,note_on,,,,,712,0,14,,,,,5,,,50,100
4512,note_on,,,,,712,0,8,,,,,0,,,81,60
4512,note_on,,,,,712,0,11,,,,,3,,,50,60
4512,note_on,,,,,712,0,10,,,,,2,,,62,60
4512,note_on,,,,,0,0,13,,,,,5,,,66,100
4576,note_off,,,,,64,0,13,,,,,5,,,69,100
4576,note_off,,,,,0,0,13,,,,,5,,,66,100
4596,note_off,,,,,84,0,9,,,,,1,,,78,100
4596,note_off,,,,,84,0,12,,,,,4,,,38,100
4596,note_off,,,,,84,0,10,,,,,2,,,62,100
4596,note_off,,,,,84,0,8,,,,,0,,,81,100
4596,note_off,,,,,84,0,11,,,,,3,,,50,100
4596,note_off,,,,,84,0,14,,,,,5,,,50,100
4608,note_on,,,,,12,0,14,,,,,5,,,55,100
4608,note_on,,,,,12,0,8,,,,,0,,,82,60
4608,note_on,,,,,12,0,12,,,,,4,,,43,60
4608,note_on,,,,,0,0,13,,,,,5,,,70,100
4608,note_on,,,,,12,0,9,,,,,1,,,79,60
4608,note_on,,,,,32,0,13,,,,,5,,,62,100
4608,note_on,,,,,12,0,11,,,,,3,,,55,60
4608,note_on,,,,,12,0,10,,,,,2,,,62,60
4864,note_off,,,,,0,0,13,,,,,5,,,70,100
4864,note_off,,,,,256,0,13,,,,,5,,,62,100
4952,note_off,,,,,344,0,9,,,,,1,,,79,100
4952,note_off,,,,,344,0,8,,,,,0,,,82,100
4952,note_off,,,,,344,0,11,,,,,3,,,55,100
4952,note_off,,,,,344,0,12,,,,,4,,,43,100
4952,note_off,,,,,344,0,14,,,,,5,,,55,100
4952,note_off,,,,,344,0,10,,,,,2,,,62,100
5760,note_on,,,,,808,0,8,,,,,0,,,82,85
5760,note_on,,,,,808,0,9,,,,,1,,,79,85
5760,note_on,,,,,808,0,10,,,,,2,,,67,85
5760,note_on,,,,,808,0,14,,,,,5,,,51,100
5760,note_on,,,,,808,0,12,,,,,4,,,39,85
5760,note_on,,,,,0,0,13,,,,,5,,,67,100
5760,note_on,,,,,896,0,13,,,,,5,,,70,100
5760,note_on,,,,,808,0,11,,,,,3,,,51,85
6016,note_off,,,,,256,0,13,,,,,5,,,70,100
6016,note_off,,,,,0,0,13,,,,,5,,,67,100
6104,note_off,,,,,344,0,10,,,,,2,,,67,100
6104,note_off,,,,,344,0,8,,,,,0,,,82,100
6104,note_off,,,,,344,0,9,,,,,1,,,79,100
6104,note_off,,,,,344,0,11,,,,,3,,,51,100
6104,note_off,,,,,344,0,14,,,,,5,,,51,100
6104,note_off,,,,,344,0,12,,,,,4,,,39,100
6144,note_on,,,,,40,0,10,,,,,2,,,69,85
6144,note_on,,,,,40,0,9,,,,,1,,,77,85
6144,note_on,,,,,40,0,12,,,,,4,,,41,85
6144,note_on,,,,,40,0,11,,,,,3,,,53,85
6144,note_on,,,,,40,0,14,,,,,5,,,53,100
6144,note_on,,,,,128,0,13,,,,,5,,,72,100
6144,note_on,,,,,40,0,8,,,,,0,,,81,85
6144,note_on,,,,,0,0,13,,,,,5,,,69,100
6400,note_off,,,,,256,0,8,,,,,0,,,81,100
6400,note_off,,,,,256,0,9,,,,,1,,,77,100
6432,note_on,,,,,32,0,8,,,,,0,,,82,85
6432,note_on,,,,,32,0,9,,,,,1,,,79,85
6516,note_off,,,,,84,0,8,,,,,0,,,82,100
6516,note_off,,,,,84,0,9,,,,,1,,,79,100
6528,note_off,,,,,384,0,13,,,,,5,,,72,100
6528,note_off,,,,,0,0,13,,,,,5,,,69,100
6528,note_on,,,,,12,0,9,,,,,1,,,77,85
6528,note_on,,,,,12,0,8,,,,,0,,,81,85
6660,note_off,,,,,516,0,11,,,,,3,,,53,100
6660,note_off,,,,,516,0,10,,,,,2,,,69,100
6660,note_off,,,,,516,0,12,,,,,4,,,41,100
6660,note_off,,,,,516,0,14,,,,,5,,,53,100
6720,note_on,,,,,192,0,13,,,,,5,,,69,100
6720,note_on,,,,,60,0,11,,,,,3,,,53,85
6720,note_on,,,,,60,0,12,,,,,4,,,41,85
6720,note_on,,,,,0,0,13,,,,,5,,,72,100
6720,note_on,,,,,60,0,14,,,,,5,,,53,100
6720,note_on,,,,,60,0,10,,,,,2,,,69,85
6784,note_off,,,,,256,0,8,,,,,0,,,81,100
6784,note_off,,,,,256,0,9,,,,,1,,,77,100
6816,note_on,,,,,32,0,8,,,,,0,,,82,85
6816,note_on,,,,,32,0,9,,,,,1,,,79,85
6848,note_off,,,,,128,0,13,,,,,5,,,69,100
6848,note_off,,,,,0,0,13,,,,,5,,,72,100
6892,note_off,,,,,172,0,10,,,,,2,,,69,100
6892,note_off,,,,,172,0,12,,,,,4,,,41,100
6892,note_off,,,,,172,0,11,,,,,3,,,53,100
6892,note_off,,,,,172,0,14,,,,,5,,,53,100
6900,note_off,,,,,84,0,8,,,,,0,,,82,100
6900,note_off,,,,,84,0,9,,,,,1,,,79,100
6912,note_on,,,,,20,0,12,,,,,4,,,43,85
6912,note_on,,,,,64,0,13,,,,,5,,,75,100
6912,note_on,,,,,0,0,13,,,,,5,,,70,100
6912,note_on,,,,,12,0,8,,,,,0,,,79,85
6912,note_on,,,,,12,0,9,,,,,1,,,75,85
6912,note_on,,,,,20,0,14,,,,,5,,,55,100
6912,note_on,,,,,20,0,11,,,,,3,,,55,85
6912,note_on,,,,,20,0,10,,,,,2,,,70,85
7168,note_off,,,,,0,0,13,,,,,5,,,70,100
7168,note_off,,,,,256,0,13,,,,,5,,,75,100
7256,note_off,,,,,344,0,8,,,,,0,,,79,100
7256,note_off,,,,,344,0,9,,,,,1,,,75,100
7256,note_off,,,,,344,0,11,,,,,3,,,55,100
7256,note_off,,,,,344,0,14,,,,,5,,,55,100
7256,note_off,,,,,344,0,10,,,,,2,,,70,100
7256,note_off,,,,,344,0,12,,,,,4,,,43,100
7296,note_on,,,,,0,0,13,,,,,5,,,75,100
7296,note_on,,,,,128,0,13,,,,,5,,,67,100
7296,note_on,,,,,40,0,14,,,,,5,,,57,100
7296,note_on,,,,,40,0,9,,,,,1,,,75,85
7296,note_on,,,,,40,0,12,,,,,4,,,45,85
7296,note_on,,,,,40,0,10,,,,,2,,,72,85
7296,note_on,,,,,40,0,8,,,,,0,,,79,85
7296,note_on,,,,,40,0,11,,,,,3,,,57,85
7552,note_off,,,,,256,0,8,,,,,0,,,79,100
7552,note_off,,,,,256,0,9,,,,,1,,,75,100
7584,note_on,,,,,32,0,9,,,,,1,,,77,85
7584,note_on,,,,,32,0,8,,,,,0,,,81,85
7668,note_off,,,,,84,0,9,,,,,1,,,77,100
7668,note_off,,,,,84,0,8,,,,,0,,,81,100
7680,note_on,,,,,12,0,9,,,,,1,,,75,85
7680,note_on,,,,,12,0,8,,,,,0,,,79,85
7680,note_off,,,,,384,0,13,,,,,5,,,67,100
7680,note_off,,,,,0,0,13,,,,,5,,,75,100
7812,note_off,,,,,516,0,12,,,,,4,,,45,100
7812,note_off,,,,,516,0,11,,,,,3,,,57,100
7812,note_off,,,,,516,0,10,,,,,2,,,72,100
7812,note_off,,,,,516,0,14,,,,,5,,,57,100
7872,note_on,,,,,60,0,10,,,,,2,,,72,85
7872,note_on,,,,,60,0,11,,,,,3,,,57,85
7872,note_on,,,,,192,0,13,,,,,5,,,67,100
7872,note_on,,,,,0,0,13,,,,,5,,,75,100
7872,note_on,,,,,60,0,12,,,,,4,,,45,85
7872,note_on,,,,,60,0,14,,,,,5,,,57,100
7936,note_off,,,,,256,0,8,,,,,0,,,79,100
7936,note_off,,,,,256,0,9,,,,,1,,,75,100
7968,note_on,,,,,32,0,9,,,,,1,,,77,85
7968,note_on,,,,,32,0,8,,,,,0,,,81,85
8000,note_off,,,,,0,0,13,,,,,5,,,75,100
8000,note_off,,,,,128,0,13,,,,,5,,,67,100
8044,note_off,,,,,172,0,14,,,,,5,,,57,100
8044,note_off,,,,,172,0,10,,,,,2,,,72,100
8044,note_off,,,,,172,0,11,,,,,3,,,57,100
8044,note_off,,,,,172,0,12,,,,,4,,,45,100
8052,note_off,,,,,84,0,8,,,,,0,,,81,100
8052,note_off,,,,,84,0,9,,,,,1,,,77,100
8064,note_on,,,,,20,0,10,,,,,2,,,74,85
8064,note_on,,,,,12,0,8,,,,,0,,,77,85
8064,note_on,,,,,20,0,11,,,,,3,,,58,85
8064,note_on,,,,,20,0,14,,,,,5,,,58,100
8064,note_on,,,,,20,0,12,,,,,4,,,46,85
8064,note_on,,,,,12,0,9,,,,,1,,,74,85
8064,note_on,,,,,64,0,13,,,,,5,,,74,100
8064,note_on,,,,,0,0,13,,,,,5,,,65,100
8320,note_off,,,,,256,0,12,,,,,4,,,46,100
8320,note_off,,,,,256,0,14,,,,,5,,,58,100
8320,note_off,,,,,256,0,10,,,,,2,,,74,100
8320,note_off,,,,,256,0,13,,,,,5,,,74,100
8320,note_off,,,,,256,0,9,,,,,1,,,74,100
8320,note_off,,,,,256,0,8,,,,,0,,,77,100
8320,note_off,,,,,0,0,13,,,,,5,,,65,100
8320,note_off,,,,,256,0,11,,,,,3,,,58,100
8352,note_on,,,,,32,0,14,,,,,5,,,52,100
8352,note_on,,,,,32,0,10,,,,,2,,,67,85
8352,note_on,,,,,32,0,11,,,,,3,,,52,85
8352,note_on,,,,,32,0,9,,,,,1,,,70,85
8352,note_on,,,,,32,0,12,,,,,4,,,40,85
8352,note_on,,,,,32,0,8,,,,,0,,,79,85
8436,note_off,,,,,84,0,8,,,,,0,,,79,100
8436,note_off,,,,,84,0,10,,,,,2,,,67,100
8436,note_off,,,,,84,0,14,,,,,5,,,52,100
8436,note_off,,,,,84,0,9,,,,,1,,,70,100
8436,note_off,,,,,84,0,12,,,,,4,,,40,100
8436,note_off,,,,,84,0,11,,,,,3,,,52,100
8448,note_on,,,,,12,0,11,,,,,3,,,53,85
8448,note_on,,,,,128,0,13,,,,,5,,,69,100
8448,note_on,,,,,0,0,13,,,,,5,,,72,100
8448,note_on,,,,,12,0,12,,,,,4,,,41,85
8448,note_on,,,,,12,0,8,,,,,0,,,72,85
8448,note_on,,,,,12,0,9,,,,,1,,,69,85
8448,note_on,,,,,12,0,10,,,,,2,,,65,85
8448,note_on,,,,,12,0,14,,,,,5,,,53,100
8488,note_off,,,,,40,0,9,,,,,1,,,69,100
8488,note_off,,,,,40,0,8,,,,,0,,,72,100
8496,note_on,,,,,8,0,9,,,,,1,,,70,85
8496,note_on,,,,,8,0,8,,,,,0,,,74,85
8536,note_off,,,,,40,0,8,,,,,0,,,74,100
8536,note_off,,,,,40,0,9,,,,,1,,,70,100
8544,note_on,,,,,8,0,8,,,,,0,,,72,85
8544,note_on,,,,,8,0,9,,,,,1,,,69,85
8584,note_off,,,,,40,0,8,,,,,0,,,72,100
8584,note_off,,,,,40,0,9,,,,,1,,,69,100
8592,note_on,,,,,8,0,8,,,,,0,,,74,85
8592,note_on,,,,,8,0,9,,,,,1,,,70,85
8632,note_off,,,,,40,0,8,,,,,0,,,74,100
8632,note_off,,,,,40,0,9,,,,,1,,,70,100
8640,note_on,,,,,8,0,9,,,,,1,,,69,85
8640,note_on,,,,,8,0,8,,,,,0,,,72,85
8680,note_off,,,,,40,0,9,,,,,1,,,69,100
8680,note_off,,,,,40,0,8,,,,,0,,,72,100
8688,note_on,,,,,8,0,9,,,,,1,,,70,85
8688,note_on,,,,,8,0,8,,,,,0,,,74,85
8704,note_off,,,,,256,0,13,,,,,5,,,69,100
8704,note_off,,,,,0,0,13,,,,,5,,,72,100
8728,note_off,,,,,40,0,8,,,,,0,,,74,100
8728,note_off,,,,,40,0,9,,,,,1,,,70,100
8736,note_on,,,,,8,0,8,,,,,0,,,72,85
8736,note_on,,,,,8,0,9,,,,,1,,,69,85
8776,note_off,,,,,40,0,8,,,,,0,,,72,100
8776,note_off,,,,,40,0,9,,,,,1,,,69,100
8784,note_on,,,,,8,0,8,,,,,0,,,74,85
8784,note_on,,,,,8,0,9,,,,,1,,,70,85
8792,note_off,,,,,344,0,14,,,,,5,,,53,100
8792,note_off,,,,,344,0,11,,,,,3,,,53,100
8792,note_off,,,,,344,0,10,,,,,2,,,65,100
8792,note_off,,,,,344,0,12,,,,,4,,,41,100
8824,note_off,,,,,40,0,9,,,,,1,,,70,100
8824,note_off,,,,,40,0,8,,,,,0,,,74,100
8832,note_on,,,,,40,0,14,,,,,5,,,53,100
8832,note_on,,,,,8,0,8,,,,,0,,,72,85
8832,note_on,,,,,40,0,10,,,,,2,,,65,85
8832,note_on,,,,,40,0,12,,,,,4,,,41,85
8832,note_on,,,,,0,0,13,,,,,5,,,69,100
8832,note_on,,,,,8,0,9,,,,,1,,,69,85
8832,note_on,,,,,128,0,13,,,,,5,,,60,100
8832,note_on,,,,,40,0,11,,,,,3,,,41,85
9004,note_off,,,,,172,0,9,,,,,1,,,69,100
9004,note_off,,,,,172,0,8,,,,,0,,,72,100
9024,note_on,,,,,20,0,9,,,,,1,,,70,85
9024,note_on,,,,,20,0,8,,,,,0,,,70,85
9088,note_off,,,,,0,0,13,,,,,5,,,69,100
9088,note_off,,,,,256,0,13,,,,,5,,,60,100
9176,note_off,,,,,344,0,11,,,,,3,,,41,100
9176,note_off,,,,,344,0,10,,,,,2,,,65,100
9176,note_off,,,,,344,0,14,,,,,5,,,53,100
9176,note_off,,,,,344,0,12,,,,,4,,,41,100
9196,note_off,,,,,172,0,9,,,,,1,,,70,100
9196,note_off,,,,,172,0,8,,,,,0,,,70,100
9216,note_on,,,,,20,0,9,,,,,1,,,70,85
9216,note_on,,,,,0,0,10,,,,,2,,,62,85
9216,note_on,,,,,40,0,10,,,,,2,,,65,85
9216,note_on,,,,,0,0,13,,,,,5,,,65,100
9216,note_on,,,,,128,0,13,,,,,5,,,70,100
9216,note_on,,,,,40,0,12,,,,,4,,,34,85
9216,note_on,,,,,20,0,8,,,,,0,,,70,85
9216,note_on,,,,,40,0,14,,,,,5,,,46,100
9216,note_on,,,,,40,0,11,,,,,3,,,46,85
9216,note_on,,,,,0,0,13,,,,,5,,,62,100
9560,note_off,,,,,344,0,11,,,,,3,,,46,100
9596,program_change,,,,,36,0,11,,,,,3,42,,,
9600,note_on,,,,,4,0,11,,,,,3,,,58,85
9856,note_off,,,,,256,0,11,,,,,3,,,58,100
9888,note_on,,,,,32,0,11,,,,,3,,,57,76
9972,note_off,,,,,84,0,11,,,,,3,,,57,100
9984,note_off,,,,,768,0,14,,,,,5,,,46,100
9984,note_off,,,,,768,0,12,,,,,4,,,34,100
9984,note_off,,,,,768,0,8,,,,,0,,,70,100
9984,note_off,,,,,768,0,9,,,,,1,,,70,100
9984,note_on,,,,,12,0,11,,,,,3,,,55,73
9984,note_off,,,,,768,0,13,,,,,5,,,70,100
9984,note_off,,,,,0,0,13,,,,,5,,,65,100
9984,note_off,,,,,0,0,13,,,,,5,,,62,100
9984,note_off,,,,,768,0,10,,,,,2,,,65,100
9984,note_off,,,,,0,0,10,,,,,2,,,62,100
10240,note_off,,,,,256,0,11,,,,,3,,,55,100
10272,note_on,,,,,32,0,11,,,,,3,,,53,64
10356,note_off,,,,,84,0,11,,,,,3,,,53,100
10364,program_change,,,,,380,0,9,,,,,1,40,,,
10364,program_change,,,,,380,0,8,,,,,0,40,,,
10368,note_on,,,,,4,0,9,,,,,1,,,79,60
10368,note_on,,,,,12,0,11,,,,,3,,,51,61
10368,note_on,,,,,4,0,8,,,,,0,,,82,60
10712,note_off,,,,,344,0,9,,,,,1,,,79,100
10712,note_off,,,,,344,0,11,,,,,3,,,51,100
10712,note_off,,,,,344,0,8,,,,,0,,,82,100
10752,note_on,,,,,40,0,11,,,,,3,,,53,60
10752,note_on,,,,,40,0,8,,,,,0,,,81,60
10752,note_on,,,,,40,0,9,,,,,1,,,77,60
11008,note_off,,,,,256,0,9,,,,,1,,,77,100
11008,note_off,,,,,256,0,8,,,,,0,,,81,100
11040,note_on,,,,,32,0,9,,,,,1,,,79,60
11040,note_on,,,,,32,0,8,,,,,0,,,82,60
11124,note_off,,,,,84,0,8,,,,,0,,,82,100
11124,note_off,,,,,84,0,9,,,,,1,,,79,100
11136,note_on,,,,,12,0,8,,,,,0,,,81,60
11136,note_on,,,,,12,0,9,,,,,1,,,77,60
11268,note_off,,,,,516,0,11,,,,,3,,,53,100
11328,note_on,,,,,60,0,11,,,,,3,,,53,60
11392,note_off,,,,,256,0,8,,,,,0,,,81,100
11392,note_off,,,,,256,0,9,,,,,1,,,77,100
11424,note_on,,,,,32,0,8,,,,,0,,,82,60
11424,note_on,,,,,32,0,9,,,,,1,,,79,60
11500,note_off,,,,,172,0,11,,,,,3,,,53,100
11508,note_off,,,,,84,0,8,,,,,0,,,82,100
11508,note_off,,,,,84,0,9,,,,,1,,,79,100
11520,note_on,,,,,12,0,8,,,,,0,,,79,60
11520,note_on,,,,,20,0,11,,,,,3,,,55,60
11520,note_on,,,,,12,0,9,,,,,1,,,75,60
11864,note_off,,,,,344,0,9,,,,,1,,,75,100
11864,note_off,,,,,344,0,8,,,,,0,,,79,100
11864,note_off,,,,,344,0,11,,,,,3,,,55,100
11904,note_on,,,,,40,0,8,,,,,0,,,79,60
11904,note_on,,,,,40,0,11,,,,,3,,,57,60
11904,note_on,,,,,40,0,9,,,,,1,,,75,60
12160,note_off,,,,,256,0,8,,,,,0,,,79,100
12160,note_off,,,,,256,0,9,,,,,1,,,75,100
12192,note_on,,,,,32,0,9,,,,,1,,,77,60
12192,note_on,,,,,32,0,8,,,,,0,,,81,60
12276,note_off,,,,,84,0,8,,,,,0,,,81,100
12276,note_off,,,,,84,0,9,,,,,1,,,77,100
12288,note_on,,,,,12,0,8,,,,,0,,,79,60
12288,note_on,,,,,12,0,9,,,,,1,,,75,60
12420,note_off,,,,,516,0,11,,,,,3,,,57,100
12480,note_on,,,,,60,0,11,,,,,3,,,57,60
12544,note_off,,,,,256,0,8,,,,,0,,,79,100
12544,note_off,,,,,256,0,9,,,,,1,,,75,100
12576,note_on,,,,,32,0,9,,,,,1,,,77,60
12576,note_on,,,,,32,0,8,,,,,0,,,81,60
12652,note_off,,,,,172,0,11,,,,,3,,,57,100
12660,note_off,,,,,84,0,8,,,,,0,,,81,100
12660,note_off,,,,,84,0,9,,,,,1,,,77,100
12672,note_on,,,,,20,0,11,,,,,3,,,58,60
12672,note_on,,,,,12,0,8,,,,,0,,,77,60
12672,note_on,,,,,12,0,9,,,,,1,,,74,60
12928,note_off,,,,,256,0,11,,,,,3,,,58,100
12928,note_off,,,,,256,0,8,,,,,0,,,77,100
12928,note_off,,,,,256,0,9,,,,,1,,,74,100
12960,note_on,,,,,32,0,8,,,,,0,,,79,60
12960,note_on,,,,,32,0,9,,,,,1,,,70,60
12960,note_on,,,,,32,0,11,,,,,3,,,51,60
13044,note_off,,,,,84,0,9,,,,,1,,,70,100
13044,note_off,,,,,84,0,11,,,,,3,,,51,100
13044,note_off,,,,,84,0,8,,,,,0,,,79,100
13056,note_on,,,,,12,0,8,,,,,0,,,72,60
13056,note_on,,,,,12,0,9,,,,,1,,,69,60
13056,note_on,,,,,12,0,11,,,,,3,,,53,60
13096,note_off,,,,,40,0,8,,,,,0,,,72,100
13096,note_off,,,,,40,0,9,,,,,1,,,69,100
13104,note_on,,,,,8,0,9,,,,,1,,,70,60
13104,note_on,,,,,8,0,8,,,,,0,,,74,60
13144,note_off,,,,,40,0,9,,,,,1,,,70,100
13144,note_off,,,,,40,0,8,,,,,0,,,74,100
13152,note_on,,,,,8,0,9,,,,,1,,,69,60
13152,note_on,,,,,8,0,8,,,,,0,,,72,60
13192,note_off,,,,,40,0,9,,,,,1,,,69,100
13192,note_off,,,,,40,0,8,,,,,0,,,72,100
13200,note_on,,,,,8,0,8,,,,,0,,,74,60
13200,note_on,,,,,8,0,9,,,,,1,,,70,60
13240,note_off,,,,,40,0,8,,,,,0,,,74,100
13240,note_off,,,,,40,0,9,,,,,1,,,70,100
13248,note_on,,,,,8,0,9,,,,,1,,,69,60
13248,note_on,,,,,8,0,8,,,,,0,,,72,60
13288,note_off,,,,,40,0,8,,,,,0,,,72,100
13288,note_off,,,,,40,0,9,,,,,1,,,69,100
13296,note_on,,,,,8,0,9,,,,,1,,,70,60
13296,note_on,,,,,8,0,8,,,,,0,,,74,60
13336,note_off,,,,,40,0,8,,,,,0,,,74,100
13336,note_off,,,,,40,0,9,,,,,1,,,70,100
13344,note_on,,,,,8,0,9,,,,,1,,,69,60
13344,note_on,,,,,8,0,8,,,,,0,,,72,60
13384,note_off,,,,,40,0,9,,,,,1,,,69,100
13384,note_off,,,,,40,0,8,,,,,0,,,72,100
13392,note_on,,,,,8,0,9,,,,,1,,,70,60
13392,note_on,,,,,8,0,8,,,,,0,,,74,60
13400,note_off,,,,,344,0,11,,,,,3,,,53,100
13432,note_off,,,,,40,0,9,,,,,1,,,70,100
13432,note_off,,,,,40,0,8,,,,,0,,,74,100
13440,note_on,,,,,8,0,9,,,,,1,,,69,60
13440,note_on,,,,,40,0,11,,,,,3,,,41,60
13440,note_on,,,,,8,0,8,,,,,0,,,72,60
13612,note_off,,,,,172,0,9,,,,,1,,,69,100
13612,note_off,,,,,172,0,8,,,,,0,,,72,100
13632,note_on,,,,,20,0,9,,,,,1,,,70,60
13632,note_on,,,,,20,0,8,,,,,0,,,70,60
13784,note_off,,,,,344,0,11,,,,,3,,,41,100
13804,note_off,,,,,172,0,8,,,,,0,,,70,100
13804,note_off,,,,,172,0,9,,,,,1,,,70,100
13824,note_on,,,,,40,0,11,,,,,3,,,46,60
13824,note_on,,,,,20,0,8,,,,,0,,,70,60
13824,note_on,,,,,20,0,9,,,,,1,,,70,60
14592,note_off,,,,,768,0,11,,,,,3,,,46,100
14592,note_off,,,,,768,0,8,,,,,0,,,70,100
14592,note_off,,,,,768,0,9,,,,,1,,,70,100
14972,program_change,,,,,380,0,11,,,,,3,48,,,
14972,program_change,,,,,380,0,9,,,,,1,48,,,
14972,program_change,,,,,380,0,8,,,,,0,48,,,
14976,note_on,,,,,4,0,9,,,,,1,,,70,70
14976,note_on,,,,,4992,0,13,,,,,5,,,62,100
14976,set_tempo,,,,,14976,1,0,,600000,,,,,,,
14976,note_on,,,,,4,0,8,,,,,0,,,79,70
14976,note_on,,,,,4,0,11,,,,,3,,,55,70
14976,note_on,,,,,4992,0,14,,,,,5,,,55,100
14976,note_on,,,,,4992,0,12,,,,,4,,,43,70
14976,note_on,,,,,4992,0,10,,,,,2,,,62,70
14976,note_on,,,,,0,0,13,,,,,5,,,58,100
15232,note_off,,,,,256,0,13,,,,,5,,,62,100
15232,note_off,,,,,0,0,13,,,,,5,,,58,100
15320,note_off,,,,,344,0,12,,,,,4,,,43,100
15320,note_off,,,,,344,0,10,,,,,2,,,62,100
15320,note_off,,,,,344,0,14,,,,,5,,,55,100
15320,note_off,,,,,344,0,8,,,,,0,,,79,100
15320,note_off,,,,,344,0,9,,,,,1,,,70,100
15320,note_off,,,,,344,0,11,,,,,3,,,55,100
16032,note_on,,,,,712,0,9,,,,,1,,,70,70
16032,note_on,,,,,712,0,11,,,,,3,,,55,70
16032,note_on,,,,,712,0,12,,,,,4,,,43,70
16032,note_on,,,,,800,0,13,,,,,5,,,58,100
16032,note_on,,,,,0,0,13,,,,,5,,,62,100
16032,note_on,,,,,712,0,8,,,,,0,,,79,70
16032,note_on,,,,,712,0,10,,,,,2,,,62,70
16032,note_on,,,,,712,0,14,,,,,5,,,55,100
16096,note_off,,,,,64,0,13,,,,,5,,,58,100
16096,note_off,,,,,0,0,13,,,,,5,,,62,100
16116,note_off,,,,,84,0,9,,,,,1,,,70,100
16116,note_off,,,,,84,0,8,,,,,0,,,79,100
16116,note_off,,,,,84,0,12,,,,,4,,,43,100
16116,note_off,,,,,84,0,10,,,,,2,,,62,100
16116,note_off,,,,,84,0,11,,,,,3,,,55,100
16116,note_off,,,,,84,0,14,,,,,5,,,55,100
16128,note_on,,,,,12,0,9,,,,,1,,,70,70
16128,note_on,,,,,12,0,8,,,,,0,,,79,70
16128,note_on,,,,,12,0,12,,,,,4,,,50,70
16128,note_on,,,,,12,0,11,,,,,3,,,62,70
16128,note_on,,,,,12,0,10,,,,,2,,,62,70
16128,note_on,,,,,0,0,13,,,,,5,,,67,100
16128,note_on,,,,,32,0,13,,,,,5,,,70,100
16128,note_on,,,,,12,0,14,,,,,5,,,62,100
16384,note_off,,,,,0,0,13,,,,,5,,,67,100
16384,note_off,,,,,256,0,13,,,,,5,,,70,100
16472,note_off,,,,,344,0,12,,,,,4,,,50,100
16472,note_off,,,,,344,0,10,,,,,2,,,62,100
16472,note_off,,,,,344,0,8,,,,,0,,,79,100
16472,note_off,,,,,344,0,14,,,,,5,,,62,100
16472,note_off,,,,,344,0,9,,,,,1,,,70,100
16472,note_off,,,,,344,0,11,,,,,3,,,62,100
16512,note_on,,,,,128,0,13,,,,,5,,,66,100
16512,note_on,,,,,40,0,8,,,,,0,,,78,70
16512,note_on,,,,,0,0,13,,,,,5,,,69,100
16512,note_on,,,,,40,0,14,,,,,5,,,50,100
16512,note_on,,,,,40,0,9,,,,,1,,,69,70
16512,note_on,,,,,40,0,10,,,,,2,,,62,70
16512,note_on,,,,,40,0,11,,,,,3,,,50,70
16512,note_on,,,,,40,0,12,,,,,4,,,38,70
16768,note_off,,,,,256,0,13,,,,,5,,,66,100
16768,note_off,,,,,0,0,13,,,,,5,,,69,100
16856,note_off,,,,,344,0,8,,,,,0,,,78,100
16856,note_off,,,,,344,0,14,,,,,5,,,50,100
16856,note_off,,,,,344,0,12,,,,,4,,,38,100
16856,note_off,,,,,344,0,10,,,,,2,,,62,100
16856,note_off,,,,,344,0,9,,,,,1,,,69,100
16856,note_off,,,,,344,0,11,,,,,3,,,50,100
17184,note_on,,,,,328,0,11,,,,,3,,,50,60
17184,note_on,,,,,328,0,8,,,,,0,,,78,60
17184,note_on,,,,,328,0,14,,,,,5,,,50,100
17184,note_on,,,,,328,0,9,,,,,1,,,69,60
17184,note_on,,,,,416,0,13,,,,,5,,,66,100
17184,note_on,,,,,0,0,13,,,,,5,,,69,100
17184,note_on,,,,,328,0,10,,,,,2,,,62,60
17184,note_on,,,,,328,0,12,,,,,4,,,38,60
17248,note_off,,,,,64,0,13,,,,,5,,,66,100
17248,note_off,,,,,0,0,13,,,,,5,,,69,100
17268,note_off,,,,,84,0,9,,,,,1,,,69,100
17268,note_off,,,,,84,0,12,,,,,4,,,38,100
17268,note_off,,,,,84,0,8,,,,,0,,,78,100
17268,note_off,,,,,84,0,10,,,,,2,,,62,100
17268,note_off,,,,,84,0,14,,,,,5,,,50,100
17268,note_off,,,,,84,0,11,,,,,3,,,50,100
17280,note_on,,,,,0,0,13,,,,,5,,,62,100
17280,note_on,,,,,12,0,12,,,,,4,,,43,60
17280,note_on,,,,,12,0,10,,,,,2,,,62,60
17280,note_on,,,,,12,0,8,,,,,0,,,79,60
17280,note_on,,,,,12,0,11,,,,,3,,,43,60
17280,note_on,,,,,32,0,13,,,,,5,,,58,100
17280,note_on,,,,,12,0,14,,,,,5,,,55,100
17280,note_on,,,,,12,0,9,,,,,1,,,70,60
17536,note_off,,,,,256,0,13,,,,,5,,,58,100
17536,note_off,,,,,0,0,13,,,,,5,,,62,100
17624,note_off,,,,,344,0,8,,,,,0,,,79,100
17624,note_off,,,,,344,0,14,,,,,5,,,55,100
17624,note_off,,,,,344,0,9,,,,,1,,,70,100
17624,note_off,,,,,344,0,10,,,,,2,,,62,100
17624,note_off,,,,,344,0,12,,,,,4,,,43,100
17624,note_off,,,,,344,0,11,,,,,3,,,43,100
18336,note_on,,,,,800,0,13,,,,,5,,,58,100
18336,note_on,,,,,0,0,13,,,,,5,,,62,100
18336,note_on,,,,,712,0,10,,,,,2,,,62,85
18336,note_on,,,,,712,0,8,,,,,0,,,79,85
18336,note_on,,,,,712,0,12,,,,,4,,,43,85
18336,note_on,,,,,712,0,9,,,,,1,,,82,85
18336,note_on,,,,,712,0,11,,,,,3,,,55,85
18336,note_on,,,,,712,0,14,,,,,5,,,55,100
18400,note_off,,,,,0,0,13,,,,,5,,,62,100
18400,note_off,,,,,64,0,13,,,,,5,,,58,100
18420,note_off,,,,,84,0,8,,,,,0,,,79,100
18420,note_off,,,,,84,0,9,,,,,1,,,82,100
18420,note_off,,,,,84,0,14,,,,,5,,,55,100
18420,note_off,,,,,84,0,11,,,,,3,,,55,100
18420,note_off,,,,,84,0,10,,,,,2,,,62,100
18420,note_off,,,,,84,0,12,,,,,4,,,43,100
18432,note_on,,,,,12,0,10,,,,,2,,,62,85
18432,note_on,,,,,12,0,9,,,,,1,,,78,85
18432,note_on,,,,,12,0,11,,,,,3,,,50,85
18432,note_on,,,,,12,0,12,,,,,4,,,38,85
18432,note_on,,,,,32,0,13,,,,,5,,,66,100
18432,note_on,,,,,0,0,13,,,,,5,,,69,100
18432,note_on,,,,,12,0,14,,,,,5,,,50,100
18432,note_on,,,,,12,0,8,,,,,0,,,81,85
18688,note_off,,,,,256,0,13,,,,,5,,,66,100
18688,note_off,,,,,0,0,13,,,,,5,,,69,100
18776,note_off,,,,,344,0,14,,,,,5,,,50,100
18776,note_off,,,,,344,0,8,,,,,0,,,81,100
18776,note_off,,,,,344,0,10,,,,,2,,,62,100
18776,note_off,,,,,344,0,12,,,,,4,,,38,100
18776,note_off,,,,,344,0,9,,,,,1,,,78,100
18776,note_off,,,,,344,0,11,,,,,3,,,50,100
19488,note_on,,,,,712,0,11,,,,,3,,,50,60
19488,note_on,,,,,0,0,13,,,,,5,,,69,100
19488,note_on,,,,,712,0,12,,,,,4,,,38,60
19488,note_on,,,,,800,0,13,,,,,5,,,66,100
19488,note_on,,,,,712,0,8,,,,,0,,,81,60
19488,note_on,,,,,712,0,9,,,,,1,,,78,60
19488,note_on,,,,,712,0,10,,,,,2,,,62,60
19488,note_on,,,,,712,0,14,,,,,5,,,50,100
19552,note_off,,,,,0,0,13,,,,,5,,,69,100
19552,note_off,,,,,64,0,13,,,,,5,,,66,100
19572,note_off,,,,,84,0,8,,,,,0,,,81,100
19572,note_off,,,,,84,0,11,,,,,3,,,50,100
19572,note_off,,,,,84,0,10,,,,,2,,,62,100
19572,note_off,,,,,84,0,14,,,,,5,,,50,100
19572,note_off,,,,,84,0,12,,,,,4,,,38,100
19572,note_off,,,,,84,0,9,,,,,1,,,78,100
19584,note_on,,,,,12,0,11,,,,,3,,,55,60
19584,note_on,,,,,12,0,12,,,,,4,,,43,60
19584,note_on,,,,,32,0,13,,,,,5,,,62,100
19584,note_on,,,,,12,0,14,,,,,5,,,55,100
19584,note_on,,,,,12,0,10,,,,,2,,,62,60
19584,note_on,,,,,0,0,13,,,,,5,,,70,100
19584,note_on,,,,,12,0,8,,,,,0,,,82,60
19584,note_on,,,,,12,0,9,,,,,1,,,79,60
19840,note_off,,,,,256,0,13,,,,,5,,,62,100
19840,note_off,,,,,0,0,13,,,,,5,,,70,100
19928,note_off,,,,,344,0,9,,,,,1,,,79,100
19928,note_off,,,,,344,0,14,,,,,5,,,55,100
19928,note_off,,,,,344,0,10,,,,,2,,,62,100
19928,note_off,,,,,344,0,8,,,,,0,,,82,100
19928,note_off,,,,,344,0,11,,,,,3,,,55,100
19928,note_off,,,,,344,0,12,,,,,4,,,43,100
20736,note_on,,,,,808,0,10,,,,,2,,,67,85
20736,note_on,,,,,808,0,8,,,,,0,,,82,85
20736,note_on,,,,,808,0,12,,,,,4,,,39,85
20736,note_on,,,,,808,0,14,,,,,5,,,51,100
20736,note_on,,,,,0,0,13,,,,,5,,,67,100
20736,note_on,,,,,896,0,13,,,,,5,,,70,100
20736,note_on,,,,,808,0,11,,,,,3,,,51,85
20736,note_on,,,,,808,0,9,,,,,1,,,79,85
20992,note_off,,,,,256,0,13,,,,,5,,,70,100
20992,note_off,,,,,0,0,13,,,,,5,,,67,100
21080,note_off,,,,,344,0,10,,,,,2,,,67,100
21080,note_off,,,,,344,0,12,,,,,4,,,39,100
21080,note_off,,,,,344,0,11,,,,,3,,,51,100
21080,note_off,,,,,344,0,8,,,,,0,,,82,100
21080,note_off,,,,,344,0,9,,,,,1,,,79,100
21080,note_off,,,,,344,0,14,,,,,5,,,51,100
21120,note_on,,,,,40,0,11,,,,,3,,,53,85
21120,note_on,,,,,40,0,12,,,,,4,,,41,85
21120,note_on,,,,,40,0,14,,,,,5,,,53,100
21120,note_on,,,,,40,0,10,,,,,2,,,69,85
21120,note_on,,,,,40,0,9,,,,,1,,,77,85
21120,note_on,,,,,40,0,8,,,,,0,,,81,85
21120,note_on,,,,,0,0,13,,,,,5,,,69,100
21120,note_on,,,,,128,0,13,,,,,5,,,72,100
21376,note_off,,,,,256,0,8,,,,,0,,,81,100
21376,note_off,,,,,256,0,9,,,,,1,,,77,100
21408,note_on,,,,,32,0,9,,,,,1,,,79,85
21408,note_on,,,,,32,0,8,,,,,0,,,82,85
21492,note_off,,,,,84,0,9,,,,,1,,,79,100
21492,note_off,,,,,84,0,8,,,,,0,,,82,100
21504,note_on,,,,,12,0,9,,,,,1,,,77,85
21504,note_on,,,,,12,0,8,,,,,0,,,81,85
21504,note_off,,,,,0,0,13,,,,,5,,,69,100
21504,note_off,,,,,384,0,13,,,,,5,,,72,100
21636,note_off,,,,,516,0,11,,,,,3,,,53,100
21636,note_off,,,,,516,0,14,,,,,5,,,53,100
21636,note_off,,,,,516,0,10,,,,,2,,,69,100
21636,note_off,,,,,516,0,12,,,,,4,,,41,100
21696,note_on,,,,,192,0,13,,,,,5,,,69,100
21696,note_on,,,,,0,0,13,,,,,5,,,72,100
21696,note_on,,,,,60,0,14,,,,,5,,,53,100
21696,note_on,,,,,60,0,12,,,,,4,,,41,85
21696,note_on,,,,,60,0,11,,,,,3,,,53,85
21696,note_on,,,,,60,0,10,,,,,2,,,69,85
21760,note_off,,,,,256,0,9,,,,,1,,,77,100
21760,note_off,,,,,256,0,8,,,,,0,,,81,100
21792,note_on,,,,,32,0,9,,,,,1,,,79,85
21792,note_on,,,,,32,0,8,,,,,0,,,82,85
21824,note_off,,,,,128,0,13,,,,,5,,,69,100
21824,note_off,,,,,0,0,13,,,,,5,,,72,100
21868,note_off,,,,,172,0,10,,,,,2,,,69,100
21868,note_off,,,,,172,0,14,,,,,5,,,53,100
21868,note_off,,,,,172,0,11,,,,,3,,,53,100
21868,note_off,,,,,172,0,12,,,,,4,,,41,100
21876,note_off,,,,,84,0,8,,,,,0,,,82,100
21876,note_off,,,,,84,0,9,,,,,1,,,79,100
21888,note_on,,,,,0,0,13,,,,,5,,,70,100
21888,note_on,,,,,20,0,14,,,,,5,,,55,100
21888,note_on,,,,,20,0,10,,,,,2,,,70,85
21888,note_on,,,,,12,0,8,,,,,0,,,79,85
21888,note_on,,,,,20,0,12,,,,,4,,,43,85
21888,note_on,,,,,20,0,11,,,,,3,,,55,85
21888,note_on,,,,,12,0,9,,,,,1,,,75,85
21888,note_on,,,,,64,0,13,,,,,5,,,75,100
22144,note_off,,,,,0,0,13,,,,,5,,,70,100
22144,note_off,,,,,256,0,13,,,,,5,,,75,100
22232,note_off,,,,,344,0,10,,,,,2,,,70,100
22232,note_off,,,,,344,0,12,,,,,4,,,43,100
22232,note_off,,,,,344,0,8,,,,,0,,,79,100
22232,note_off,,,,,344,0,14,,,,,5,,,55,100
22232,note_off,,,,,344,0,9,,,,,1,,,75,100
22232,note_off,,,,,344,0,11,,,,,3,,,55,100
22272,note_on,,,,,40,0,12,,,,,4,,,45,85
22272,note_on,,,,,40,0,9,,,,,1,,,75,85
22272,note_on,,,,,40,0,11,,,,,3,,,57,85
22272,note_on,,,,,40,0,14,,,,,5,,,57,100
22272,note_on,,,,,40,0,8,,,,,0,,,79,85
22272,note_on,,,,,0,0,13,,,,,5,,,75,100
22272,note_on,,,,,128,0,13,,,,,5,,,67,100
22272,note_on,,,,,40,0,10,,,,,2,,,72,85
22528,note_off,,,,,256,0,9,,,,,1,,,75,100
22528,note_off,,,,,256,0,8,,,,,0,,,79,100
22560,note_on,,,,,32,0,8,,,,,0,,,81,85
22560,note_on,,,,,32,0,9,,,,,1,,,77,85
22644,note_off,,,,,84,0,9,,,,,1,,,77,100
22644,note_off,,,,,84,0,8,,,,,0,,,81,100
22656,note_off,,,,,384,0,13,,,,,5,,,67,100
22656,note_on,,,,,12,0,9,,,,,1,,,75,85
22656,note_on,,,,,12,0,8,,,,,0,,,79,85
22656,note_off,,,,,0,0,13,,,,,5,,,75,100
22788,note_off,,,,,516,0,11,,,,,3,,,57,100
22788,note_off,,,,,516,0,12,,,,,4,,,45,100
22788,note_off,,,,,516,0,14,,,,,5,,,57,100
22788,note_off,,,,,516,0,10,,,,,2,,,72,100
22848,note_on,,,,,60,0,12,,,,,4,,,45,85
22848,note_on,,,,,192,0,13,,,,,5,,,67,100
22848,note_on,,,,,60,0,14,,,,,5,,,57,100
22848,note_on,,,,,60,0,11,,,,,3,,,57,85
22848,note_on,,,,,60,0,10,,,,,2,,,72,85
22848,note_on,,,,,0,0,13,,,,,5,,,75,100
22912,note_off,,,,,256,0,9,,,,,1,,,75,100
22912,note_off,,,,,256,0,8,,,,,0,,,79,100
22944,note_on,,,,,32,0,8,,,,,0,,,81,85
22944,note_on,,,,,32,0,9,,,,,1,,,77,85
22976,note_off,,,,,128,0,13,,,,,5,,,67,100
22976,note_off,,,,,0,0,13,,,,,5,,,75,100
23020,note_off,,,,,172,0,12,,,,,4,,,45,100
23020,note_off,,,,,172,0,14,,,,,5,,,57,100
23020,note_off,,,,,172,0,11,,,,,3,,,57,100
23020,note_off,,,,,172,0,10,,,,,2,,,72,100
23028,note_off,,,,,84,0,9,,,,,1,,,77,100
23028,note_off,,,,,84,0,8,,,,,0,,,81,100
23040,note_on,,,,,12,0,9,,,,,1,,,74,85
23040,note_on,,,,,12,0,8,,,,,0,,,77,85
23040,note_on,,,,,0,0,13,,,,,5,,,65,100
23040,note_on,,,,,64,0,13,,,,,5,,,74,100
23040,note_on,,,,,20,0,11,,,,,3,,,58,85
23040,note_on,,,,,20,0,10,,,,,2,,,74,85
23040,note_on,,,,,20,0,14,,,,,5,,,58,100
23040,note_on,,,,,20,0,12,,,,,4,,,46,85
23296,note_off,,,,,256,0,11,,,,,3,,,58,100
23296,note_off,,,,,256,0,10,,,,,2,,,74,100
23296,note_off,,,,,256,0,12,,,,,4,,,46,100
23296,note_off,,,,,256,0,8,,,,,0,,,77,100
23296,note_off,,,,,256,0,14,,,,,5,,,58,100
23296,note_off,,,,,256,0,9,,,,,1,,,74,100
23296,note_off,,,,,0,0,13,,,,,5,,,65,100
23296,note_off,,,,,256,0,13,,,,,5,,,74,100
23328,note_on,,,,,32,0,10,,,,,2,,,67,85
23328,note_on,,,,,32,0,8,,,,,0,,,79,85
23328,note_on,,,,,32,0,11,,,,,3,,,52,85
23328,note_on,,,,,32,0,14,,,,,5,,,52,100
23328,note_on,,,,,32,0,9,,,,,1,,,70,85
23328,note_on,,,,,32,0,12,,,,,4,,,40,85
23412,note_off,,,,,84,0,14,,,,,5,,,52,100
23412,note_off,,,,,84,0,8,,,,,0,,,79,100
23412,note_off,,,,,84,0,12,,,,,4,,,40,100
23412,note_off,,,,,84,0,9,,,,,1,,,70,100
23412,note_off,,,,,84,0,11,,,,,3,,,52,100
23412,note_off,,,,,84,0,10,,,,,2,,,67,100
23424,note_on,,,,,12,0,12,,,,,4,,,41,85
23424,note_on,,,,,128,0,13,,,,,5,,,69,100
23424,note_on,,,,,12,0,14,,,,,5,,,53,100
23424,note_on,,,,,12,0,9,,,,,1,,,69,85
23424,note_on,,,,,12,0,11,,,,,3,,,53,85
23424,note_on,,,,,12,0,8,,,,,0,,,72,85
23424,note_on,,,,,0,0,13,,,,,5,,,72,100
23424,note_on,,,,,12,0,10,,,,,2,,,65,85
23464,note_off,,,,,40,0,8,,,,,0,,,72,100
23464,note_off,,,,,40,0,9,,,,,1,,,69,100
23472,note_on,,,,,8,0,8,,,,,0,,,74,85
23472,note_on,,,,,8,0,9,,,,,1,,,70,85
23512,note_off,,,,,40,0,8,,,,,0,,,74,100
23512,note_off,,,,,40,0,9,,,,,1,,,70,100
23520,note_on,,,,,8,0,9,,,,,1,,,69,85
23520,note_on,,,,,8,0,8,,,,,0,,,72,85
23560,note_off,,,,,40,0,9,,,,,1,,,69,100
23560,note_off,,,,,40,0,8,,,,,0,,,72,100
23568,note_on,,,,,8,0,9,,,,,1,,,70,85
23568,note_on,,,,,8,0,8,,,,,0,,,74,85
23608,note_off,,,,,40,0,9,,,,,1,,,70,100
23608,note_off,,,,,40,0,8,,,,,0,,,74,100
23616,note_on,,,,,8,0,8,,,,,0,,,72,85
23616,note_on,,,,,8,0,9,,,,,1,,,69,85
23656,note_off,,,,,40,0,8,,,,,0,,,72,100
23656,note_off,,,,,40,0,9,,,,,1,,,69,100
23664,note_on,,,,,8,0,9,,,,,1,,,70,85
23664,note_on,,,,,8,0,8,,,,,0,,,74,85
23680,note_off,,,,,256,0,13,,,,,5,,,69,100
23680,note_off,,,,,0,0,13,,,,,5,,,72,100
23704,note_off,,,,,40,0,9,,,,,1,,,70,100
23704,note_off,,,,,40,0,8,,,,,0,,,74,100
23712,note_on,,,,,8,0,8,,,,,0,,,72,85
23712,note_on,,,,,8,0,9,,,,,1,,,69,85
23752,note_off,,,,,40,0,9,,,,,1,,,69,100
23752,note_off,,,,,40,0,8,,,,,0,,,72,100
23760,note_on,,,,,8,0,8,,,,,0,,,74,85
23760,note_on,,,,,8,0,9,,,,,1,,,70,85
23768,note_off,,,,,344,0,11,,,,,3,,,53,100
23768,note_off,,,,,344,0,14,,,,,5,,,53,100
23768,note_off,,,,,344,0,12,,,,,4,,,41,100
23768,note_off,,,,,344,0,10,,,,,2,,,65,100
23800,note_off,,,,,40,0,9,,,,,1,,,70,100
23800,note_off,,,,,40,0,8,,,,,0,,,74,100
23808,note_on,,,,,8,0,8,,,,,0,,,72,85
23808,note_on,,,,,40,0,14,,,,,5,,,53,100
23808,note_on,,,,,40,0,10,,,,,2,,,65,85
23808,note_on,,,,,40,0,12,,,,,4,,,41,85
23808,note_on,,,,,128,0,13,,,,,5,,,60,100
23808,note_on,,,,,8,0,9,,,,,1,,,69,85
23808,note_on,,,,,40,0,11,,,,,3,,,41,85
23808,note_on,,,,,0,0,13,,,,,5,,,69,100
23980,note_off,,,,,172,0,8,,,,,0,,,72,100
23980,note_off,,,,,172,0,9,,,,,1,,,69,100
24000,note_on,,,,,20,0,9,,,,,1,,,70,85
24000,note_on,,,,,20,0,8,,,,,0,,,70,85
24064,note_off,,,,,256,0,13,,,,,5,,,60,100
24064,note_off,,,,,0,0,13,,,,,5,,,69,100
24152,note_off,,,,,344,0,14,,,,,5,,,53,100
24152,note_off,,,,,344,0,10,,,,,2,,,65,100
24152,note_off,,,,,344,0,11,,,,,3,,,41,100
24152,note_off,,,,,344,0,12,,,,,4,,,41,100
24172,note_off,,,,,172,0,9,,,,,1,,,70,100
24172,note_off,,,,,172,0,8,,,,,0,,,70,100
24192,note_on,,,,,128,0,13,,,,,5,,,70,100
24192,note_on,,,,,20,0,9,,,,,1,,,70,85
24192,note_on,,,,,0,0,13,,,,,5,,,62,100
24192,note_on,,,,,0,0,13,,,,,5,,,65,100
24192,note_on,,,,,40,0,14,,,,,5,,,46,100
24192,note_on,,,,,0,0,10,,,,,2,,,62,85
24192,note_on,,,,,20,0,8,,,,,0,,,70,85
24192,note_on,,,,,40,0,11,,,,,3,,,46,85
24192,note_on,,,,,40,0,10,,,,,2,,,65,85
24192,note_on,,,,,40,0,12,,,,,4,,,34,85
24536,note_off,,,,,344,0,11,,,,,3,,,46,100
24572,program_change,,,,,36,0,11,,,,,3,42,,,
24576,note_on,,,,,4,0,11,,,,,3,,,58,85
24832,note_off,,,,,256,0,11,,,,,3,,,58,100
24864,note_on,,,,,32,0,11,,,,,3,,,57,76
24948,note_off,,,,,84,0,11,,,,,3,,,57,100
24960,note_off,,,,,768,0,10,,,,,2,,,65,100
24960,note_off,,,,,0,0,10,,,,,2,,,62,100
24960,note_off,,,,,0,0,13,,,,,5,,,62,100
24960,note_off,,,,,768,0,12,,,,,4,,,34,100
24960,note_off,,,,,768,0,9,,,,,1,,,70,100
24960,note_off,,,,,0,0,13,,,,,5,,,65,100
24960,note_off,,,,,768,0,13,,,,,5,,,70,100
24960,note_off,,,,,768,0,8,,,,,0,,,70,100
24960,note_on,,,,,12,0,11,,,,,3,,,55,73
24960,note_off,,,,,768,0,14,,,,,5,,,46,100
25216,note_off,,,,,256,0,11,,,,,3,,,55,100
25248,note_on,,,,,32,0,11,,,,,3,,,53,64
25332,note_off,,,,,84,0,11,,,,,3,,,53,100
25340,program_change,,,,,380,0,9,,,,,1,40,,,
25340,program_change,,,,,380,0,8,,,,,0,40,,,
25344,note_on,,,,,12,0,11,,,,,3,,,51,61
25344,note_on,,,,,4,0,9,,,,,1,,,79,60
25344,note_on,,,,,4,0,8,,,,,0,,,82,60
25688,note_off,,,,,344,0,8,,,,,0,,,82,100
25688,note_off,,,,,344,0,9,,,,,1,,,79,100
25688,note_off,,,,,344,0,11,,,,,3,,,51,100
25728,note_on,,,,,40,0,9,,,,,1,,,77,60
25728,note_on,,,,,40,0,8,,,,,0,,,81,60
25728,note_on,,,,,40,0,11,,,,,3,,,53,60
25984,note_off,,,,,256,0,8,,,,,0,,,81,100
25984,note_off,,,,,256,0,9,,,,,1,,,77,100
26016,note_on,,,,,32,0,8,,,,,0,,,82,60
26016,note_on,,,,,32,0,9,,,,,1,,,79,60
26100,note_off,,,,,84,0,8,,,,,0,,,82,100
26100,note_off,,,,,84,0,9,,,,,1,,,79,100
26112,note_on,,,,,12,0,8,,,,,0,,,81,60
26112,note_on,,,,,12,0,9,,,,,1,,,77,60
26244,note_off,,,,,516,0,11,,,,,3,,,53,100
26304,note_on,,,,,60,0,11,,,,,3,,,53,60
26368,note_off,,,,,256,0,8,,,,,0,,,81,100
26368,note_off,,,,,256,0,9,,,,,1,,,77,100
26400,note_on,,,,,32,0,8,,,,,0,,,82,60
26400,note_on,,,,,32,0,9,,,,,1,,,79,60
26476,note_off,,,,,172,0,11,,,,,3,,,53,100
26484,note_off,,,,,84,0,9,,,,,1,,,79,100
26484,note_off,,,,,84,0,8,,,,,0,,,82,100
26496,note_on,,,,,12,0,8,,,,,0,,,79,60
26496,note_on,,,,,12,0,9,,,,,1,,,75,60
26496,note_on,,,,,20,0,11,,,,,3,,,55,60
26840,note_off,,,,,344,0,11,,,,,3,,,55,100
26840,note_off,,,,,344,0,8,,,,,0,,,79,100
26840,note_off,,,,,344,0,9,,,,,1,,,75,100
26880,note_on,,,,,40,0,9,,,,,1,,,75,60
26880,note_on,,,,,40,0,8,,,,,0,,,79,60
26880,note_on,,,,,40,0,11,,,,,3,,,57,60
27136,note_off,,,,,256,0,9,,,,,1,,,75,100
27136,note_off,,,,,256,0,8,,,,,0,,,79,100
27168,note_on,,,,,32,0,9,,,,,1,,,77,60
27168,note_on,,,,,32,0,8,,,,,0,,,81,60
27252,note_off,,,,,84,0,8,,,,,0,,,81,100
27252,note_off,,,,,84,0,9,,,,,1,,,77,100
27264,note_on,,,,,12,0,8,,,,,0,,,79,60
27264,note_on,,,,,12,0,9,,,,,1,,,75,60
27396,note_off,,,,,516,0,11,,,,,3,,,57,100
27456,note_on,,,,,60,0,11,,,,,3,,,57,60
27520,note_off,,,,,256,0,9,,,,,1,,,75,100
27520,note_off,,,,,256,0,8,,,,,0,,,79,100
27552,note_on,,,,,32,0,9,,,,,1,,,77,60
27552,note_on,,,,,32,0,8,,,,,0,,,81,60
27628,note_off,,,,,172,0,11,,,,,3,,,57,100
27636,note_off,,,,,84,0,9,,,,,1,,,77,100
27636,note_off,,,,,84,0,8,,,,,0,,,81,100
27648,note_on,,,,,12,0,9,,,,,1,,,74,60
27648,note_on,,,,,12,0,8,,,,,0,,,77,60
27648,note_on,,,,,20,0,11,,,,,3,,,58,60
27904,note_off,,,,,256,0,11,,,,,3,,,58,100
27904,note_off,,,,,256,0,8,,,,,0,,,77,100
27904,note_off,,,,,256,0,9,,,,,1,,,74,100
27936,note_on,,,,,32,0,8,,,,,0,,,79,60
27936,note_on,,,,,32,0,9,,,,,1,,,70,60
27936,note_on,,,,,32,0,11,,,,,3,,,51,60
28020,note_off,,,,,84,0,9,,,,,1,,,70,100
28020,note_off,,,,,84,0,8,,,,,0,,,79,100
28020,note_off,,,,,84,0,11,,,,,3,,,51,100
28032,note_on,,,,,12,0,11,,,,,3,,,53,60
28032,note_on,,,,,12,0,8,,,,,0,,,72,60
28032,note_on,,,,,12,0,9,,,,,1,,,69,60
28072,note_off,,,,,40,0,8,,,,,0,,,72,100
28072,note_off,,,,,40,0,9,,,,,1,,,69,100
28080,note_on,,,,,8,0,9,,,,,1,,,70,60
28080,note_on,,,,,8,0,8,,,,,0,,,74,60
28120,note_off,,,,,40,0,9,,,,,1,,,70,100
28120,note_off,,,,,40,0,8,,,,,0,,,74,100
28128,note_on,,,,,8,0,9,,,,,1,,,69,60
28128,note_on,,,,,8,0,8,,,,,0,,,72,60
28168,note_off,,,,,40,0,9,,,,,1,,,69,100
28168,note_off,,,,,40,0,8,,,,,0,,,72,100
28176,note_on,,,,,8,0,9,,,,,1,,,70,60
28176,note_on,,,,,8,0,8,,,,,0,,,74,60
28216,note_off,,,,,40,0,9,,,,,1,,,70,100
28216,note_off,,,,,40,0,8,,,,,0,,,74,100
28224,note_on,,,,,8,0,8,,,,,0,,,72,60
28224,note_on,,,,,8,0,9,,,,,1,,,69,60
28264,note_off,,,,,40,0,8,,,,,0,,,72,100
28264,note_off,,,,,40,0,9,,,,,1,,,69,100
28272,note_on,,,,,8,0,8,,,,,0,,,74,60
28272,note_on,,,,,8,0,9,,,,,1,,,70,60
28312,note_off,,,,,40,0,8,,,,,0,,,74,100
28312,note_off,,,,,40,0,9,,,,,1,,,70,100
28320,note_on,,,,,8,0,8,,,,,0,,,72,60
28320,note_on,,,,,8,0,9,,,,,1,,,69,60
28360,note_off,,,,,40,0,8,,,,,0,,,72,100
28360,note_off,,,,,40,0,9,,,,,1,,,69,100
28368,note_on,,,,,8,0,9,,,,,1,,,70,60
28368,note_on,,,,,8,0,8,,,,,0,,,74,60
28376,note_off,,,,,344,0,11,,,,,3,,,53,100
28408,note_off,,,,,40,0,9,,,,,1,,,70,100
28408,note_off,,,,,40,0,8,,,,,0,,,74,100
28416,note_on,,,,,40,0,11,,,,,3,,,41,60
28416,note_on,,,,,8,0,9,,,,,1,,,69,60
28416,note_on,,,,,8,0,8,,,,,0,,,72,60
28588,note_off,,,,,172,0,9,,,,,1,,,69,100
28588,note_off,,,,,172,0,8,,,,,0,,,72,100
28608,note_on,,,,,20,0,9,,,,,1,,,70,60
28608,note_on,,,,,20,0,8,,,,,0,,,70,60
28760,note_off,,,,,344,0,11,,,,,3,,,41,100
28780,note_off,,,,,172,0,9,,,,,1,,,70,100
28780,note_off,,,,,172,0,8,,,,,0,,,70,100
28800,note_on,,,,,20,0,8,,,,,0,,,70,60
28800,note_on,,,,,40,0,11,,,,,3,,,46,60
28800,note_on,,,,,20,0,9,,,,,1,,,70,60
29312,note_off,,,,,512,0,11,,,,,3,,,46,100
29312,note_off,,,,,512,0,9,,,,,1,,,70,100
29312,note_off,,,,,512,0,8,,,,,0,,,70,100
29568,program_change,,,,,256,0,8,,,,,0,48,,,
29568,program_change,,,,,256,0,9,,,,,1,48,,,
29856,note_on,,,,,4896,0,14,,,,,5,,,55,100
29856,note_on,,,,,4896,0,12,,,,,4,,,43,85
29856,note_on,,,,,288,0,9,,,,,1,,,74,85
29856,note_on,,,,,0,0,13,,,,,5,,,65,100
29856,note_on,,,,,4896,0,13,,,,,5,,,59,100
29856,note_on,,,,,4896,0,10,,,,,2,,,65,85
29856,note_on,,,,,544,0,11,,,,,3,,,43,85
29856,note_on,,,,,288,0,8,,,,,0,,,71,85
29856,note_on,,,,,0,0,10,,,,,2,,,67,85
29920,note_off,,,,,0,0,13,,,,,5,,,65,100
29920,note_off,,,,,0,0,10,,,,,2,,,67,100
29920,note_off,,,,,64,0,10,,,,,2,,,65,100
29920,note_off,,,,,64,0,11,,,,,3,,,43,100
29920,note_off,,,,,64,0,9,,,,,1,,,74,100
29920,note_off,,,,,64,0,12,,,,,4,,,43,100
29920,note_off,,,,,64,0,8,,,,,0,,,71,100
29920,note_off,,,,,64,0,14,,,,,5,,,55,100
29920,note_off,,,,,64,0,13,,,,,5,,,59,100
29948,program_change,,,,,28,0,11,,,,,3,48,,,
29952,note_on,,,,,32,0,9,,,,,1,,,74,85
29952,note_on,,,,,32,0,14,,,,,5,,,55,100
29952,note_on,,,,,32,0,8,,,,,0,,,71,85
29952,note_on,,,,,32,0,12,,,,,4,,,43,85
29952,note_on,,,,,4,0,11,,,,,3,,,43,85
29952,note_on,,,,,32,0,13,,,,,5,,,59,100
29952,note_on,,,,,0,0,13,,,,,5,,,65,100
29952,note_on,,,,,0,0,10,,,,,2,,,65,85
29952,note_on,,,,,32,0,10,,,,,2,,,67,85
30208,note_off,,,,,0,0,13,,,,,5,,,65,100
30208,note_off,,,,,256,0,13,,,,,5,,,59,100
30296,note_off,,,,,344,0,14,,,,,5,,,55,100
30296,note_off,,,,,344,0,11,,,,,3,,,43,100
30296,note_off,,,,,344,0,9,,,,,1,,,74,100
30296,note_off,,,,,344,0,8,,,,,0,,,71,100
30296,note_off,,,,,344,0,12,,,,,4,,,43,100
30296,note_off,,,,,344,0,10,,,,,2,,,67,100
30296,note_off,,,,,0,0,10,,,,,2,,,65,100
31008,note_on,,,,,712,0,10,,,,,2,,,63,60
31008,note_on,,,,,712,0,14,,,,,5,,,48,100
31008,note_on,,,,,712,0,9,,,,,1,,,67,60
31008,note_on,,,,,712,0,12,,,,,4,,,36,60
31008,note_on,,,,,800,0,13,,,,,5,,,63,100
31008,note_on,,,,,712,0,11,,,,,3,,,48,60
31008,note_on,,,,,712,0,8,,,,,0,,,72,60
31008,note_on,,,,,0,0,13,,,,,5,,,67,100
31008,note_on,,,,,0,0,10,,,,,2,,,67,60
31072,note_off,,,,,0,0,13,,,,,5,,,67,100
31072,note_off,,,,,64,0,13,,,,,5,,,63,100
31092,note_off,,,,,84,0,12,,,,,4,,,36,100
31092,note_off,,,,,84,0,10,,,,,2,,,63,100
31092,note_off,,,,,84,0,11,,,,,3,,,48,100
31092,note_off,,,,,0,0,10,,,,,2,,,67,100
31092,note_off,,,,,84,0,9,,,,,1,,,67,100
31092,note_off,,,,,84,0,8,,,,,0,,,72,100
31092,note_off,,,,,84,0,14,,,,,5,,,48,100
31104,note_on,,,,,12,0,12,,,,,4,,,36,60
31104,note_on,,,,,12,0,8,,,,,0,,,72,60
31104,note_on,,,,,12,0,9,,,,,1,,,67,60
31104,note_on,,,,,0,0,10,,,,,2,,,63,60
31104,note_on,,,,,12,0,10,,,,,2,,,67,60
31104,note_on,,,,,12,0,14,,,,,5,,,48,100
31104,note_on,,,,,12,0,11,,,,,3,,,48,60
31104,note_on,,,,,0,0,13,,,,,5,,,67,100
31104,note_on,,,,,32,0,13,,,,,5,,,63,100
31360,note_off,,,,,256,0,13,,,,,5,,,63,100
31360,note_off,,,,,0,0,13,,,,,5,,,67,100
31448,note_off,,,,,344,0,12,,,,,4,,,36,100
31448,note_off,,,,,344,0,11,,,,,3,,,48,100
31448,note_off,,,,,344,0,10,,,,,2,,,67,100
31448,note_off,,,,,344,0,8,,,,,0,,,72,100
31448,note_off,,,,,344,0,9,,,,,1,,,67,100
31448,note_off,,,,,0,0,10,,,,,2,,,63,100
31448,note_off,,,,,344,0,14,,,,,5,,,48,100
32160,note_on,,,,,712,0,14,,,,,5,,,45,100
32160,note_on,,,,,0,0,10,,,,,2,,,67,85
32160,note_on,,,,,712,0,9,,,,,1,,,76,85
32160,note_on,,,,,712,0,11,,,,,3,,,45,85
32160,note_on,,,,,712,0,10,,,,,2,,,64,85
32160,note_on,,,,,712,0,12,,,,,4,,,33,85
32160,note_on,,,,,712,0,8,,,,,0,,,73,85
32160,note_on,,,,,800,0,13,,,,,5,,,61,100
32160,note_on,,,,,0,0,13,,,,,5,,,67,100
32224,note_off,,,,,64,0,13,,,,,5,,,61,100
32224,note_off,,,,,0,0,13,,,,,5,,,67,100
32244,note_off,,,,,84,0,11,,,,,3,,,45,100
32244,note_off,,,,,84,0,12,,,,,4,,,33,100
32244,note_off,,,,,84,0,10,,,,,2,,,64,100
32244,note_off,,,,,84,0,14,,,,,5,,,45,100
32244,note_off,,,,,84,0,9,,,,,1,,,76,100
32244,note_off,,,,,0,0,10,,,,,2,,,67,100
32244,note_off,,,,,84,0,8,,,,,0,,,73,100
32256,note_on,,,,,12,0,14,,,,,5,,,45,100
32256,note_on,,,,,12,0,11,,,,,3,,,45,85
32256,note_on,,,,,12,0,10,,,,,2,,,64,85
32256,note_on,,,,,0,0,10,,,,,2,,,67,85
32256,note_on,,,,,0,0,13,,,,,5,,,67,100
32256,note_on,,,,,32,0,13,,,,,5,,,61,100
32256,note_on,,,,,12,0,9,,,,,1,,,76,85
32256,note_on,,,,,12,0,8,,,,,0,,,73,85
32256,note_on,,,,,12,0,12,,,,,4,,,33,85
32512,note_off,,,,,0,0,13,,,,,5,,,67,100
32512,note_off,,,,,256,0,13,,,,,5,,,61,100
32600,note_off,,,,,344,0,12,,,,,4,,,33,100
32600,note_off,,,,,344,0,14,,,,,5,,,45,100
32600,note_off,,,,,344,0,11,,,,,3,,,45,100
32600,note_off,,,,,0,0,10,,,,,2,,,67,100
32600,note_off,,,,,344,0,10,,,,,2,,,64,100
32600,note_off,,,,,344,0,8,,,,,0,,,73,100
32600,note_off,,,,,344,0,9,,,,,1,,,76,100
33312,note_on,,,,,0,0,13,,,,,5,,,65,100
33312,note_on,,,,,712,0,9,,,,,1,,,69,60
33312,note_on,,,,,712,0,14,,,,,5,,,50,100
33312,note_on,,,,,712,0,8,,,,,0,,,74,60
33312,note_on,,,,,712,0,10,,,,,2,,,62,60
33312,note_on,,,,,0,0,10,,,,,2,,,65,60
33312,note_on,,,,,712,0,12,,,,,4,,,38,60
33312,note_on,,,,,712,0,11,,,,,3,,,50,60
33312,note_on,,,,,800,0,13,,,,,5,,,69,100
33376,note_off,,,,,0,0,13,,,,,5,,,65,100
33376,note_off,,,,,64,0,13,,,,,5,,,69,100
33396,note_off,,,,,84,0,11,,,,,3,,,50,100
33396,note_off,,,,,84,0,8,,,,,0,,,74,100
33396,note_off,,,,,84,0,12,,,,,4,,,38,100
33396,note_off,,,,,0,0,10,,,,,2,,,65,100
33396,note_off,,,,,84,0,10,,,,,2,,,62,100
33396,note_off,,,,,84,0,14,,,,,5,,,50,100
33396,note_off,,,,,84,0,9,,,,,1,,,69,100
33408,note_on,,,,,12,0,8,,,,,0,,,74,60
33408,note_on,,,,,12,0,14,,,,,5,,,50,100
33408,note_on,,,,,12,0,12,,,,,4,,,38,60
33408,note_on,,,,,12,0,9,,,,,1,,,69,60
33408,note_on,,,,,12,0,11,,,,,3,,,50,60
33408,note_on,,,,,0,0,10,,,,,2,,,65,60
33408,note_on,,,,,12,0,10,,,,,2,,,62,60
33408,note_on,,,,,0,0,13,,,,,5,,,69,100
33408,note_on,,,,,32,0,13,,,,,5,,,65,100
33664,note_off,,,,,0,0,13,,,,,5,,,69,100
33664,note_off,,,,,256,0,13,,,,,5,,,65,100
33752,note_off,,,,,344,0,14,,,,,5,,,50,100
33752,note_off,,,,,344,0,10,,,,,2,,,62,100
33752,note_off,,,,,0,0,10,,,,,2,,,65,100
33752,note_off,,,,,344,0,12,,,,,4,,,38,100
33752,note_off,,,,,344,0,8,,,,,0,,,74,100
33752,note_off,,,,,344,0,11,,,,,3,,,50,100
33752,note_off,,,,,344,0,9,,,,,1,,,69,100
34556,program_change,,,,,804,0,9,,,,,1,40,,,
34556,program_change,,,,,804,0,11,,,,,3,42,,,
34556,program_change,,,,,804,0,8,,,,,0,40,,,
34560,note_on,,,,,4,0,8,,,,,0,,,86,60
34560,note_on,,,,,4,0,11,,,,,3,,,55,60
34748,note_off,,,,,188,0,8,,,,,0,,,86,100
34752,note_on,,,,,4,0,8,,,,,0,,,84,60
34880,note_off,,,,,128,0,8,,,,,0,,,84,100
34944,note_on,,,,,64,0,8,,,,,0,,,82,60
35132,note_off,,,,,188,0,8,,,,,0,,,82,100
35136,note_on,,,,,4,0,8,,,,,0,,,81,60
35264,note_off,,,,,128,0,8,,,,,0,,,81,100
35328,note_on,,,,,64,0,8,,,,,0,,,79,60
35516,note_off,,,,,188,0,8,,,,,0,,,79,100
35520,note_on,,,,,4,0,8,,,,,0,,,77,60
35648,note_off,,,,,128,0,8,,,,,0,,,77,100
35712,note_on,,,,,1156,0,9,,,,,1,,,86,60
35712,note_on,,,,,64,0,8,,,,,0,,,82,60
35900,note_off,,,,,188,0,8,,,,,0,,,82,100
35900,note_off,,,,,188,0,9,,,,,1,,,86,100
35904,note_on,,,,,4,0,9,,,,,1,,,84,60
35904,note_on,,,,,4,0,8,,,,,0,,,81,60
36032,note_off,,,,,128,0,8,,,,,0,,,81,100
36032,note_off,,,,,128,0,9,,,,,1,,,84,100
36096,note_on,,,,,64,0,8,,,,,0,,,79,60
36096,note_on,,,,,64,0,9,,,,,1,,,82,60
36284,note_off,,,,,188,0,8,,,,,0,,,79,100
36284,note_off,,,,,188,0,9,,,,,1,,,82,100
36288,note_on,,,,,4,0,9,,,,,1,,,81,60
36288,note_on,,,,,4,0,8,,,,,0,,,77,60
36416,note_off,,,,,128,0,9,,,,,1,,,81,100
36416,note_off,,,,,128,0,8,,,,,0,,,77,100
36480,note_on,,,,,64,0,8,,,,,0,,,76,60
36480,note_on,,,,,64,0,9,,,,,1,,,79,60
36668,note_off,,,,,188,0,8,,,,,0,,,76,100
36668,note_off,,,,,188,0,9,,,,,1,,,79,100
36672,note_on,,,,,4,0,8,,,,,0,,,74,60
36672,note_on,,,,,4,0,9,,,,,1,,,77,60
36800,note_off,,,,,128,0,8,,,,,0,,,74,100
36800,note_off,,,,,128,0,9,,,,,1,,,77,100
36864,note_on,,,,,64,0,8,,,,,0,,,79,60
36864,note_on,,,,,64,0,9,,,,,1,,,82,60
37052,note_off,,,,,188,0,9,,,,,1,,,82,100
37052,note_off,,,,,188,0,8,,,,,0,,,79,100
37056,note_on,,,,,4,0,9,,,,,1,,,81,60
37056,note_on,,,,,4,0,8,,,,,0,,,77,60
37184,note_off,,,,,128,0,9,,,,,1,,,81,100
37184,note_off,,,,,128,0,8,,,,,0,,,77,100
37248,note_on,,,,,64,0,9,,,,,1,,,79,60
37248,note_on,,,,,64,0,8,,,,,0,,,76,60
37436,note_off,,,,,188,0,9,,,,,1,,,79,100
37436,note_off,,,,,188,0,8,,,,,0,,,76,100
37440,note_on,,,,,4,0,9,,,,,1,,,77,60
37440,note_on,,,,,4,0,8,,,,,0,,,74,60
37568,note_off,,,,,128,0,9,,,,,1,,,77,100
37568,note_off,,,,,128,0,8,,,,,0,,,74,100
37632,note_on,,,,,64,0,8,,,,,0,,,73,60
37632,note_on,,,,,64,0,9,,,,,1,,,76,60
37820,note_off,,,,,188,0,8,,,,,0,,,73,100
37820,note_off,,,,,188,0,9,,,,,1,,,76,100
37824,note_on,,,,,4,0,8,,,,,0,,,71,60
37824,note_on,,,,,4,0,9,,,,,1,,,74,60
37900,note_off,,,,,3340,0,11,,,,,3,,,55,100
37952,note_off,,,,,128,0,9,,,,,1,,,74,100
37952,note_off,,,,,128,0,8,,,,,0,,,71,100
38016,note_on,,,,,64,0,9,,,,,1,,,73,60
38016,note_on,,,,,64,0,8,,,,,0,,,69,60
38016,note_on,,,,,116,0,11,,,,,3,,,57,60
38704,note_off,,,,,688,0,9,,,,,1,,,73,100
38704,note_off,,,,,688,0,8,,,,,0,,,69,100
38704,note_off,,,,,688,0,11,,,,,3,,,57,100
38784,program_change,,,,,80,0,8,,,,,0,48,,,
38784,program_change,,,,,80,0,11,,,,,3,48,,,
38784,program_change,,,,,80,0,9,,,,,1,48,,,
39072,note_on,,,,,5408,0,13,,,,,5,,,65,100
39072,note_on,,,,,5320,0,14,,,,,5,,,56,100
39072,note_on,,,,,5320,0,12,,,,,4,,,44,70
39072,note_on,,,,,288,0,8,,,,,0,,,77,70
39072,note_on,,,,,288,0,9,,,,,1,,,74,70
39072,note_on,,,,,288,0,11,,,,,3,,,56,70
39072,note_on,,,,,0,0,13,,,,,5,,,62,100
39072,note_on,,,,,5320,0,10,,,,,2,,,71,70
39136,note_off,,,,,0,0,13,,,,,5,,,62,100
39136,note_off,,,,,64,0,13,,,,,5,,,65,100
39136,note_off,,,,,64,0,8,,,,,0,,,77,100
39136,note_off,,,,,64,0,11,,,,,3,,,56,100
39136,note_off,,,,,64,0,9,,,,,1,,,74,100
39136,note_off,,,,,64,0,14,,,,,5,,,56,100
39136,note_off,,,,,64,0,12,,,,,4,,,44,100
39136,note_off,,,,,64,0,10,,,,,2,,,71,100
39168,note_on,,,,,32,0,8,,,,,0,,,77,70
39168,note_on,,,,,32,0,12,,,,,4,,,45,70
39168,note_on,,,,,32,0,11,,,,,3,,,57,70
39168,note_on,,,,,0,0,13,,,,,5,,,62,100
39168,note_on,,,,,32,0,13,,,,,5,,,65,100
39168,note_on,,,,,32,0,10,,,,,2,,,69,70
39168,note_on,,,,,32,0,14,,,,,5,,,57,100
39168,note_on,,,,,32,0,9,,,,,1,,,74,70
39424,note_off,,,,,256,0,13,,,,,5,,,65,100
39424,note_off,,,,,0,0,13,,,,,5,,,62,100
39512,note_off,,,,,344,0,8,,,,,0,,,77,100
39512,note_off,,,,,344,0,11,,,,,3,,,57,100
39512,note_off,,,,,344,0,14,,,,,5,,,57,100
39512,note_off,,,,,344,0,12,,,,,4,,,45,100
39512,note_off,,,,,344,0,10,,,,,2,,,69,100
39512,note_off,,,,,344,0,9,,,,,1,,,74,100
39552,note_on,,,,,40,0,11,,,,,3,,,45,70
39552,note_on,,,,,40,0,14,,,,,5,,,45,100
39552,note_on,,,,,40,0,8,,,,,0,,,76,70
39552,note_on,,,,,128,0,13,,,,,5,,,64,100
39552,note_on,,,,,0,0,13,,,,,5,,,61,100
39552,note_on,,,,,40,0,12,,,,,4,,,33,70
39552,note_on,,,,,40,0,10,,,,,2,,,69,70
39552,note_on,,,,,40,0,9,,,,,1,,,73,70
39808,note_off,,,,,0,0,13,,,,,5,,,61,100
39808,note_off,,,,,256,0,13,,,,,5,,,64,100
39896,note_off,,,,,344,0,12,,,,,4,,,33,100
39896,note_off,,,,,344,0,10,,,,,2,,,69,100
39896,note_off,,,,,344,0,9,,,,,1,,,73,100
39896,note_off,,,,,344,0,14,,,,,5,,,45,100
39896,note_off,,,,,344,0,11,,,,,3,,,45,100
39896,note_off,,,,,344,0,8,,,,,0,,,76,100
40224,note_on,,,,,328,0,10,,,,,2,,,69,60
40224,note_on,,,,,328,0,8,,,,,0,,,76,60
40224,note_on,,,,,328,0,12,,,,,4,,,33,60
40224,note_on,,,,,416,0,13,,,,,5,,,61,100
40224,note_on,,,,,0,0,13,,,,,5,,,64,100
40224,note_on,,,,,328,0,9,,,,,1,,,73,60
40224,note_on,,,,,328,0,11,,,,,3,,,45,60
40224,note_on,,,,,328,0,14,,,,,5,,,45,100
40288,note_off,,,,,0,0,13,,,,,5,,,64,100
40288,note_off,,,,,64,0,13,,,,,5,,,61,100
40308,note_off,,,,,84,0,8,,,,,0,,,76,100
40308,note_off,,,,,84,0,9,,,,,1,,,73,100
40308,note_off,,,,,84,0,14,,,,,5,,,45,100
40308,note_off,,,,,84,0,11,,,,,3,,,45,100
40308,note_off,,,,,84,0,10,,,,,2,,,69,100
40308,note_off,,,,,84,0,12,,,,,4,,,33,100
40320,note_on,,,,,12,0,10,,,,,2,,,69,60
40320,note_on,,,,,0,0,13,,,,,5,,,65,100
40320,note_on,,,,,32,0,13,,,,,5,,,62,100
40320,note_on,,,,,12,0,8,,,,,0,,,77,60
40320,note_on,,,,,12,0,9,,,,,1,,,74,60
40320,note_on,,,,,12,0,12,,,,,4,,,38,60
40320,note_on,,,,,12,0,14,,,,,5,,,50,100
40320,note_on,,,,,12,0,11,,,,,3,,,50,60
40576,note_off,,,,,256,0,13,,,,,5,,,62,100
40576,note_off,,,,,0,0,13,,,,,5,,,65,100
40664,note_off,,,,,344,0,12,,,,,4,,,38,100
40664,note_off,,,,,344,0,11,,,,,3,,,50,100
40664,note_off,,,,,344,0,14,,,,,5,,,50,100
40664,note_off,,,,,344,0,9,,,,,1,,,74,100
40664,note_off,,,,,344,0,8,,,,,0,,,77,100
40664,note_off,,,,,344,0,10,,,,,2,,,69,100
41376,note_on,,,,,712,0,12,,,,,4,,,42,85
41376,note_on,,,,,712,0,9,,,,,1,,,72,85
41376,note_on,,,,,712,0,11,,,,,3,,,54,85
41376,note_on,,,,,712,0,8,,,,,0,,,75,85
41376,note_on,,,,,0,0,13,,,,,5,,,60,100
41376,note_on,,,,,712,0,14,,,,,5,,,54,100
41376,note_on,,,,,800,0,13,,,,,5,,,63,100
41376,note_on,,,,,712,0,10,,,,,2,,,69,85
41440,note_off,,,,,64,0,13,,,,,5,,,63,100
41440,note_off,,,,,0,0,13,,,,,5,,,60,100
41460,note_off,,,,,84,0,14,,,,,5,,,54,100
41460,note_off,,,,,84,0,8,,,,,0,,,75,100
41460,note_off,,,,,84,0,11,,,,,3,,,54,100
41460,note_off,,,,,84,0,9,,,,,1,,,72,100
41460,note_off,,,,,84,0,10,,,,,2,,,69,100
41460,note_off,,,,,84,0,12,,,,,4,,,42,100
41472,note_on,,,,,12,0,14,,,,,5,,,55,100
41472,note_on,,,,,12,0,8,,,,,0,,,75,85
41472,note_on,,,,,12,0,11,,,,,3,,,55,85
41472,note_on,,,,,12,0,12,,,,,4,,,43,85
41472,note_on,,,,,12,0,9,,,,,1,,,72,85
41472,note_on,,,,,0,0,13,,,,,5,,,62,100
41472,note_on,,,,,32,0,13,,,,,5,,,64,100
41472,note_on,,,,,12,0,10,,,,,2,,,67,85
41728,note_off,,,,,256,0,13,,,,,5,,,64,100
41728,note_off,,,,,0,0,13,,,,,5,,,62,100
41816,note_off,,,,,344,0,11,,,,,3,,,55,100
41816,note_off,,,,,344,0,8,,,,,0,,,75,100
41816,note_off,,,,,344,0,14,,,,,5,,,55,100
41816,note_off,,,,,344,0,9,,,,,1,,,72,100
41816,note_off,,,,,344,0,12,,,,,4,,,43,100
41816,note_off,,,,,344,0,10,,,,,2,,,67,100
41856,note_on,,,,,40,0,11,,,,,3,,,43,85
41856,note_on,,,,,40,0,14,,,,,5,,,55,100
41856,note_on,,,,,40,0,12,,,,,4,,,43,85
41856,note_on,,,,,40,0,8,,,,,0,,,74,85
41856,note_on,,,,,40,0,9,,,,,1,,,71,85
41856,note_on,,,,,40,0,10,,,,,2,,,67,85
41856,note_on,,,,,128,0,13,,,,,5,,,59,100
41856,note_on,,,,,0,0,13,,,,,5,,,62,100
42112,note_off,,,,,256,0,13,,,,,5,,,59,100
42112,note_off,,,,,0,0,13,,,,,5,,,62,100
42200,note_off,,,,,344,0,8,,,,,0,,,74,100
42200,note_off,,,,,344,0,14,,,,,5,,,55,100
42200,note_off,,,,,344,0,11,,,,,3,,,43,100
42200,note_off,,,,,344,0,9,,,,,1,,,71,100
42200,note_off,,,,,344,0,12,,,,,4,,,43,100
42200,note_off,,,,,344,0,10,,,,,2,,,67,100
42528,note_on,,,,,328,0,8,,,,,0,,,74,60
42528,note_on,,,,,328,0,14,,,,,5,,,55,100
42528,note_on,,,,,328,0,12,,,,,4,,,43,60
42528,note_on,,,,,416,0,13,,,,,5,,,59,100
42528,note_on,,,,,328,0,10,,,,,2,,,67,60
42528,note_on,,,,,0,0,13,,,,,5,,,62,100
42528,note_on,,,,,328,0,11,,,,,3,,,43,60
42528,note_on,,,,,328,0,9,,,,,1,,,71,60
42592,note_off,,,,,0,0,13,,,,,5,,,62,100
42592,note_off,,,,,64,0,13,,,,,5,,,59,100
42612,note_off,,,,,84,0,8,,,,,0,,,74,100
42612,note_off,,,,,84,0,14,,,,,5,,,55,100
42612,note_off,,,,,84,0,9,,,,,1,,,71,100
42612,note_off,,,,,84,0,11,,,,,3,,,43,100
42612,note_off,,,,,84,0,12,,,,,4,,,43,100
42612,note_off,,,,,84,0,10,,,,,2,,,67,100
42624,note_on,,,,,12,0,11,,,,,3,,,48,60
42624,note_on,,,,,12,0,8,,,,,0,,,75,60
42624,note_on,,,,,12,0,9,,,,,1,,,72,60
42624,note_on,,,,,12,0,10,,,,,2,,,67,60
42624,note_on,,,,,12,0,12,,,,,4,,,36,60
42624,note_on,,,,,32,0,13,,,,,5,,,63,100
42624,note_on,,,,,12,0,14,,,,,5,,,48,100
42624,note_on,,,,,0,0,13,,,,,5,,,67,100
42880,note_off,,,,,0,0,13,,,,,5,,,67,100
42880,note_off,,,,,256,0,13,,,,,5,,,63,100
42968,note_off,,,,,344,0,9,,,,,1,,,72,100
42968,note_off,,,,,344,0,8,,,,,0,,,75,100
42968,note_off,,,,,344,0,10,,,,,2,,,67,100
42968,note_off,,,,,344,0,14,,,,,5,,,48,100
42968,note_off,,,,,344,0,11,,,,,3,,,48,100
42968,note_off,,,,,344,0,12,,,,,4,,,36,100
43680,note_on,,,,,712,0,11,,,,,3,,,52,85
43680,note_on,,,,,712,0,9,,,,,1,,,70,85
43680,note_on,,,,,712,0,14,,,,,5,,,52,100
43680,note_on,,,,,0,0,13,,,,,5,,,58,100
43680,note_on,,,,,800,0,13,,,,,5,,,62,100
43680,note_on,,,,,712,0,10,,,,,2,,,67,85
43680,note_on,,,,,712,0,8,,,,,0,,,74,85
43680,note_on,,,,,712,0,12,,,,,4,,,40,85
43744,note_off,,,,,0,0,13,,,,,5,,,58,100
43744,note_off,,,,,64,0,13,,,,,5,,,62,100
43764,note_off,,,,,84,0,12,,,,,4,,,40,100
43764,note_off,,,,,84,0,11,,,,,3,,,52,100
43764,note_off,,,,,84,0,8,,,,,0,,,74,100
43764,note_off,,,,,84,0,9,,,,,1,,,70,100
43764,note_off,,,,,84,0,14,,,,,5,,,52,100
43764,note_off,,,,,84,0,10,,,,,2,,,67,100
43776,note_on,,,,,32,0,13,,,,,5,,,70,100
43776,note_on,,,,,0,0,13,,,,,5,,,62,100
43776,note_on,,,,,12,0,14,,,,,5,,,53,100
43776,note_on,,,,,12,0,12,,,,,4,,,41,85
43776,note_on,,,,,12,0,11,,,,,3,,,53,85
43776,note_on,,,,,12,0,8,,,,,0,,,74,85
43776,note_on,,,,,12,0,9,,,,,1,,,70,85
43776,note_on,,,,,12,0,10,,,,,2,,,65,85
44032,note_off,,,,,256,0,13,,,,,5,,,70,100
44032,note_off,,,,,0,0,13,,,,,5,,,62,100
44120,note_off,,,,,344,0,12,,,,,4,,,41,100
44120,note_off,,,,,344,0,11,,,,,3,,,53,100
44120,note_off,,,,,344,0,9,,,,,1,,,70,100
44120,note_off,,,,,344,0,14,,,,,5,,,53,100
44120,note_off,,,,,344,0,10,,,,,2,,,65,100
44120,note_off,,,,,344,0,8,,,,,0,,,74,100
44160,note_on,,,,,40,0,11,,,,,3,,,41,85
44160,note_on,,,,,40,0,8,,,,,0,,,72,85
44160,note_on,,,,,40,0,14,,,,,5,,,53,100
44160,note_on,,,,,40,0,10,,,,,2,,,65,85
44160,note_on,,,,,40,0,9,,,,,1,,,69,85
44160,note_on,,,,,128,0,13,,,,,5,,,57,100
44160,note_on,,,,,40,0,12,,,,,4,,,41,85
44160,note_on,,,,,0,0,13,,,,,5,,,60,100
44416,note_off,,,,,256,0,13,,,,,5,,,57,100
44416,note_off,,,,,0,0,13,,,,,5,,,60,100
44504,note_off,,,,,344,0,11,,,,,3,,,41,100
44504,note_off,,,,,344,0,9,,,,,1,,,69,100
44504,note_off,,,,,344,0,8,,,,,0,,,72,100
44504,note_off,,,,,344,0,10,,,,,2,,,65,100
44504,note_off,,,,,344,0,14,,,,,5,,,53,100
44504,note_off,,,,,344,0,12,,,,,4,,,41,100
44832,note_on,,,,,328,0,12,,,,,4,,,41,60
44832,note_on,,,,,328,0,14,,,,,5,,,53,100
44832,note_on,,,,,328,0,10,,,,,2,,,65,60
44832,note_on,,,,,0,0,13,,,,,5,,,69,100
44832,note_on,,,,,416,0,13,,,,,5,,,60,100
44832,note_on,,,,,328,0,11,,,,,3,,,53,60
44832,note_on,,,,,328,0,9,,,,,1,,,69,60
44832,note_on,,,,,328,0,8,,,,,0,,,72,60
44896,note_off,,,,,0,0,13,,,,,5,,,69,100
44896,note_off,,,,,64,0,13,,,,,5,,,60,100
44916,note_off,,,,,84,0,14,,,,,5,,,53,100
44916,note_off,,,,,84,0,8,,,,,0,,,72,100
44916,note_off,,,,,84,0,10,,,,,2,,,65,100
44916,note_off,,,,,84,0,11,,,,,3,,,53,100
44916,note_off,,,,,84,0,9,,,,,1,,,69,100
44916,note_off,,,,,84,0,12,,,,,4,,,41,100
44928,note_on,,,,,12,0,9,,,,,1,,,70,60
44928,note_on,,,,,32,0,13,,,,,5,,,62,100
44928,note_on,,,,,12,0,12,,,,,4,,,34,60
44928,note_on,,,,,12,0,10,,,,,2,,,65,60
44928,note_on,,,,,12,0,11,,,,,3,,,46,60
44928,note_on,,,,,0,0,13,,,,,5,,,65,100
44928,note_on,,,,,12,0,14,,,,,5,,,46,100
44928,note_on,,,,,12,0,8,,,,,0,,,74,60
45184,note_off,,,,,0,0,13,,,,,5,,,65,100
45184,note_off,,,,,256,0,13,,,,,5,,,62,100
45272,note_off,,,,,344,0,9,,,,,1,,,70,100
45272,note_off,,,,,344,0,12,,,,,4,,,34,100
45272,note_off,,,,,344,0,14,,,,,5,,,46,100
45272,note_off,,,,,344,0,10,,,,,2,,,65,100
45272,note_off,,,,,344,0,11,,,,,3,,,46,100
45272,note_off,,,,,344,0,8,,,,,0,,,74,100
45984,note_on,,,,,712,0,12,,,,,4,,,34,85
45984,note_on,,,,,712,0,9,,,,,1,,,74,85
45984,note_on,,,,,712,0,10,,,,,2,,,65,85
45984,note_on,,,,,800,0,13,,,,,5,,,67,100
45984,note_on,,,,,0,0,13,,,,,5,,,62,100
45984,note_on,,,,,712,0,11,,,,,3,,,46,85
45984,note_on,,,,,712,0,14,,,,,5,,,46,100
45984,note_on,,,,,712,0,8,,,,,0,,,82,85
46048,note_off,,,,,64,0,13,,,,,5,,,67,100
46048,note_off,,,,,0,0,13,,,,,5,,,62,100
46068,note_off,,,,,84,0,10,,,,,2,,,65,100
46068,note_off,,,,,84,0,9,,,,,1,,,74,100
46068,note_off,,,,,84,0,8,,,,,0,,,82,100
46068,note_off,,,,,84,0,11,,,,,3,,,46,100
46068,note_off,,,,,84,0,12,,,,,4,,,34,100
46068,note_off,,,,,84,0,14,,,,,5,,,46,100
46080,note_on,,,,,12,0,8,,,,,0,,,81,85
46080,set_tempo,,,,,31104,1,0,,600000,,,,,,,
46080,note_on,,,,,32,0,13,,,,,5,,,69,100
46080,note_on,,,,,12,0,12,,,,,4,,,36,85
46080,note_on,,,,,0,0,13,,,,,5,,,63,100
46080,note_on,,,,,12,0,11,,,,,3,,,48,85
46080,note_on,,,,,12,0,9,,,,,1,,,75,85
46080,note_on,,,,,12,0,14,,,,,5,,,48,100
46080,note_on,,,,,12,0,10,,,,,2,,,72,85
46080,note_on,,,,,0,0,10,,,,,2,,,69,85
46308,set_tempo,,,,,228,1,0,,606060,,,,,,,
46540,set_tempo,,,,,232,1,0,,612244,,,,,,,
46592,note_off,,,,,0,0,13,,,,,5,,,63,100
46592,note_off,,,,,512,0,13,,,,,5,,,69,100
46596,note_off,,,,,516,0,8,,,,,0,,,81,100
46656,note_on,,,,,60,0,8,,,,,0,,,82,85
46768,note_off,,,,,688,0,9,,,,,1,,,75,100
46768,note_off,,,,,688,0,12,,,,,4,,,36,100
46768,note_off,,,,,688,0,11,,,,,3,,,48,100
46768,note_off,,,,,0,0,10,,,,,2,,,69,100
46768,set_tempo,,,,,228,1,0,,618556,,,,,,,
46768,note_off,,,,,688,0,10,,,,,2,,,72,100
46768,note_off,,,,,688,0,14,,,,,5,,,48,100
46828,note_off,,,,,172,0,8,,,,,0,,,82,100
46848,note_on,,,,,80,0,14,,,,,5,,,49,100
46848,note_on,,,,,80,0,9,,,,,1,,,76,85
46848,note_on,,,,,20,0,8,,,,,0,,,79,85
46848,note_on,,,,,80,0,11,,,,,3,,,49,85
46848,note_on,,,,,0,0,13,,,,,5,,,69,100
46848,note_on,,,,,0,0,10,,,,,2,,,61,85
46848,note_on,,,,,80,0,12,,,,,4,,,37,85
46848,note_on,,,,,256,0,13,,,,,5,,,67,100
46848,note_on,,,,,80,0,10,,,,,2,,,64,85
47000,set_tempo,,,,,232,1,0,,625000,,,,,,,
47104,note_off,,,,,0,0,13,,,,,5,,,69,100
47104,note_off,,,,,256,0,13,,,,,5,,,67,100
47104,note_off,,,,,256,0,8,,,,,0,,,79,100
47136,note_on,,,,,32,0,8,,,,,0,,,81,85
47192,note_off,,,,,0,0,10,,,,,2,,,61,100
47192,note_off,,,,,344,0,14,,,,,5,,,49,100
47192,note_off,,,,,344,0,9,,,,,1,,,76,100
47192,note_off,,,,,344,0,12,,,,,4,,,37,100
47192,note_off,,,,,344,0,10,,,,,2,,,64,100
47192,note_off,,,,,344,0,11,,,,,3,,,49,100
47220,note_off,,,,,84,0,8,,,,,0,,,81,100
47232,note_on,,,,,40,0,9,,,,,1,,,69,85
47232,set_tempo,,,,,232,1,0,,631578,,,,,,,
47232,note_on,,,,,0,0,13,,,,,5,,,66,100
47232,note_on,,,,,0,0,10,,,,,2,,,57,85
47232,note_on,,,,,40,0,11,,,,,3,,,50,85
47232,note_on,,,,,12,0,8,,,,,0,,,78,85
47232,note_on,,,,,40,0,14,,,,,5,,,50,100
47232,note_on,,,,,40,0,10,,,,,2,,,62,85
47232,note_on,,,,,40,0,12,,,,,4,,,38,85
47232,note_on,,,,,128,0,13,,,,,5,,,69,100
47460,set_tempo,,,,,228,1,0,,638297,,,,,,,
47692,set_tempo,,,,,232,1,0,,645161,,,,,,,
47744,note_off,,,,,512,0,13,,,,,5,,,69,100
47744,note_off,,,,,0,0,13,,,,,5,,,66,100
47748,note_off,,,,,516,0,8,,,,,0,,,78,100
47808,note_on,,,,,60,0,8,,,,,0,,,76,85
47920,note_off,,,,,688,0,14,,,,,5,,,50,100
47920,note_off,,,,,688,0,11,,,,,3,,,50,100
47920,note_off,,,,,688,0,12,,,,,4,,,38,100
47920,set_tempo,,,,,228,1,0,,652173,,,,,,,
47980,note_off,,,,,172,0,8,,,,,0,,,76,100
48000,note_on,,,,,80,0,12,,,,,4,,,38,85
48000,note_on,,,,,256,0,13,,,,,5,,,57,100
48000,note_on,,,,,20,0,8,,,,,0,,,74,85
48000,note_on,,,,,0,0,13,,,,,5,,,66,100
48000,note_on,,,,,80,0,14,,,,,5,,,50,100
48000,note_on,,,,,80,0,11,,,,,3,,,38,85
48152,set_tempo,,,,,232,1,0,,659340,,,,,,,
48256,note_off,,,,,256,0,13,,,,,5,,,57,100
48256,note_off,,,,,0,0,13,,,,,5,,,66,100
48268,note_off,,,,,1036,0,9,,,,,1,,,69,100
48268,note_off,,,,,0,0,10,,,,,2,,,57,100
48268,note_off,,,,,1036,0,10,,,,,2,,,62,100
48344,note_off,,,,,344,0,12,,,,,4,,,38,100
48344,note_off,,,,,344,0,8,,,,,0,,,74,100
48344,note_off,,,,,344,0,14,,,,,5,,,50,100
48344,note_off,,,,,344,0,11,,,,,3,,,38,100
48384,set_tempo,,,,,232,1,0,,631578,,,,,,,
48384,note_on,,,,,40,0,12,,,,,4,,,43,85
48384,note_on,,,,,40,0,14,,,,,5,,,55,100
48384,note_on,,,,,40,0,11,,,,,3,,,55,85
48384,note_on,,,,,40,0,8,,,,,0,,,82,85
48384,note_on,,,,,0,0,13,,,,,5,,,62,100
48384,note_on,,,,,116,0,10,,,,,2,,,74,85
48384,note_on,,,,,116,0,9,,,,,1,,,79,85
48384,note_on,,,,,128,0,13,,,,,5,,,70,100
48612,set_tempo,,,,,228,1,0,,625000,,,,,,,
48640,note_off,,,,,256,0,13,,,,,5,,,70,100
48640,note_off,,,,,0,0,13,,,,,5,,,62,100
48728,note_off,,,,,344,0,12,,,,,4,,,43,100
48728,note_off,,,,,344,0,8,,,,,0,,,82,100
48728,note_off,,,,,344,0,9,,,,,1,,,79,100
48728,note_off,,,,,344,0,14,,,,,5,,,55,100
48728,note_off,,,,,344,0,11,,,,,3,,,55,100
48728,note_off,,,,,344,0,10,,,,,2,,,74,100
48768,note_on,,,,,128,0,13,,,,,5,,,63,100
48768,note_on,,,,,0,0,13,,,,,5,,,67,100
48768,note_on,,,,,0,0,13,,,,,5,,,70,100
48768,note_on,,,,,40,0,14,,,,,5,,,48,100
48768,note_on,,,,,40,0,9,,,,,1,,,79,85
48768,note_on,,,,,40,0,12,,,,,4,,,36,85
48768,note_on,,,,,40,0,10,,,,,2,,,75,85
48768,note_on,,,,,40,0,11,,,,,3,,,48,85
48768,note_on,,,,,40,0,8,,,,,0,,,82,85
48844,set_tempo,,,,,232,1,0,,618556,,,,,,,
49024,note_off,,,,,256,0,9,,,,,1,,,79,100
49024,note_off,,,,,256,0,8,,,,,0,,,82,100
49056,note_on,,,,,32,0,9,,,,,1,,,81,85
49056,note_on,,,,,32,0,8,,,,,0,,,84,85
49072,set_tempo,,,,,228,1,0,,612244,,,,,,,
49140,note_off,,,,,84,0,9,,,,,1,,,81,100
49140,note_off,,,,,84,0,8,,,,,0,,,84,100
49152,note_off,,,,,0,0,13,,,,,5,,,70,100
49152,note_off,,,,,0,0,13,,,,,5,,,67,100
49152,note_off,,,,,384,0,13,,,,,5,,,63,100
49152,note_on,,,,,12,0,8,,,,,0,,,82,85
49152,note_on,,,,,12,0,9,,,,,1,,,79,85
49284,note_off,,,,,516,0,12,,,,,4,,,36,100
49284,note_off,,,,,516,0,14,,,,,5,,,48,100
49284,note_off,,,,,516,0,11,,,,,3,,,48,100
49284,note_off,,,,,516,0,10,,,,,2,,,75,100
49304,set_tempo,,,,,232,1,0,,606060,,,,,,,
49344,note_on,,,,,0,0,13,,,,,5,,,63,100
49344,note_on,,,,,0,0,13,,,,,5,,,67,100
49344,note_on,,,,,192,0,13,,,,,5,,,70,100
49344,note_on,,,,,60,0,14,,,,,5,,,48,100
49344,note_on,,,,,60,0,12,,,,,4,,,36,85
49344,note_on,,,,,60,0,11,,,,,3,,,48,85
49344,note_on,,,,,60,0,10,,,,,2,,,75,85
49408,note_off,,,,,256,0,8,,,,,0,,,82,100
49408,note_off,,,,,256,0,9,,,,,1,,,79,100
49440,note_on,,,,,32,0,8,,,,,0,,,84,85
49440,note_on,,,,,32,0,9,,,,,1,,,81,85
49472,note_off,,,,,128,0,13,,,,,5,,,70,100
49472,note_off,,,,,0,0,13,,,,,5,,,63,100
49472,note_off,,,,,0,0,13,,,,,5,,,67,100
49516,note_off,,,,,172,0,10,,,,,2,,,75,100
49516,note_off,,,,,172,0,12,,,,,4,,,36,100
49516,note_off,,,,,172,0,11,,,,,3,,,48,100
49516,note_off,,,,,172,0,14,,,,,5,,,48,100
49524,note_off,,,,,84,0,8,,,,,0,,,84,100
49524,note_off,,,,,84,0,9,,,,,1,,,81,100
49536,set_tempo,,,,,232,1,0,,600000,,,,,,,
49536,note_on,,,,,20,0,14,,,,,5,,,53,100
49536,note_on,,,,,12,0,9,,,,,1,,,77,85
49536,note_on,,,,,20,0,12,,,,,4,,,41,85
49536,note_on,,,,,20,0,10,,,,,2,,,72,85
49536,note_on,,,,,12,0,8,,,,,0,,,81,85
49536,note_on,,,,,20,0,11,,,,,3,,,53,85
49536,note_on,,,,,0,0,13,,,,,5,,,69,100
49536,note_on,,,,,64,0,13,,,,,5,,,72,100
49792,note_off,,,,,0,0,13,,,,,5,,,69,100
49792,note_off,,,,,256,0,13,,,,,5,,,72,100
49880,note_off,,,,,344,0,9,,,,,1,,,77,100
49880,note_off,,,,,344,0,11,,,,,3,,,53,100
49880,note_off,,,,,344,0,10,,,,,2,,,72,100
49880,note_off,,,,,344,0,14,,,,,5,,,53,100
49880,note_off,,,,,344,0,8,,,,,0,,,81,100
49880,note_off,,,,,344,0,12,,,,,4,,,41,100
49920,note_on,,,,,40,0,9,,,,,1,,,77,85
49920,note_on,,,,,40,0,11,,,,,3,,,46,85
49920,note_on,,,,,40,0,14,,,,,5,,,46,100
49920,note_on,,,,,128,0,13,,,,,5,,,69,100
49920,note_on,,,,,0,0,13,,,,,5,,,65,100
49920,note_on,,,,,40,0,10,,,,,2,,,74,85
49920,note_on,,,,,40,0,8,,,,,0,,,81,85
49920,note_on,,,,,40,0,12,,,,,4,,,34,85
50176,note_off,,,,,256,0,9,,,,,1,,,77,100
50176,note_off,,,,,256,0,8,,,,,0,,,81,100
50208,note_on,,,,,32,0,8,,,,,0,,,82,85
50208,note_on,,,,,32,0,9,,,,,1,,,79,85
50292,note_off,,,,,84,0,9,,,,,1,,,79,100
50292,note_off,,,,,84,0,8,,,,,0,,,82,100
50304,note_on,,,,,12,0,9,,,,,1,,,77,85
50304,note_off,,,,,0,0,13,,,,,5,,,65,100
50304,note_off,,,,,384,0,13,,,,,5,,,69,100
50304,note_on,,,,,12,0,8,,,,,0,,,81,85
50436,note_off,,,,,516,0,10,,,,,2,,,74,100
50436,note_off,,,,,516,0,14,,,,,5,,,46,100
50436,note_off,,,,,516,0,12,,,,,4,,,34,100
50436,note_off,,,,,516,0,11,,,,,3,,,46,100
50496,note_on,,,,,60,0,12,,,,,4,,,34,85
50496,note_on,,,,,60,0,14,,,,,5,,,46,100
50496,note_on,,,,,60,0,10,,,,,2,,,74,85
50496,note_on,,,,,0,0,13,,,,,5,,,69,100
50496,note_on,,,,,192,0,13,,,,,5,,,65,100
50496,note_on,,,,,60,0,11,,,,,3,,,46,85
50560,note_off,,,,,256,0,8,,,,,0,,,81,100
50560,note_off,,,,,256,0,9,,,,,1,,,77,100
50592,note_on,,,,,32,0,9,,,,,1,,,79,85
50592,note_on,,,,,32,0,8,,,,,0,,,82,85
50624,note_off,,,,,128,0,13,,,,,5,,,65,100
50624,note_off,,,,,0,0,13,,,,,5,,,69,100
50668,note_off,,,,,172,0,10,,,,,2,,,74,100
50668,note_off,,,,,172,0,11,,,,,3,,,46,100
50668,note_off,,,,,172,0,14,,,,,5,,,46,100
50668,note_off,,,,,172,0,12,,,,,4,,,34,100
50676,note_off,,,,,84,0,9,,,,,1,,,79,100
50676,note_off,,,,,84,0,8,,,,,0,,,82,100
50688,note_on,,,,,12,0,9,,,,,1,,,75,85
50688,note_on,,,,,20,0,14,,,,,5,,,51,100
50688,note_on,,,,,20,0,12,,,,,4,,,39,85
50688,note_on,,,,,20,0,11,,,,,3,,,51,85
50688,note_on,,,,,0,0,13,,,,,5,,,70,100
50688,note_on,,,,,20,0,10,,,,,2,,,70,85
50688,note_on,,,,,64,0,13,,,,,5,,,67,100
50688,note_on,,,,,12,0,8,,,,,0,,,79,85
50944,note_off,,,,,256,0,13,,,,,5,,,67,100
50944,note_off,,,,,0,0,13,,,,,5,,,70,100
51032,note_off,,,,,344,0,8,,,,,0,,,79,100
51032,note_off,,,,,344,0,12,,,,,4,,,39,100
51032,note_off,,,,,344,0,14,,,,,5,,,51,100
51032,note_off,,,,,344,0,9,,,,,1,,,75,100
51032,note_off,,,,,344,0,11,,,,,3,,,51,100
51032,note_off,,,,,344,0,10,,,,,2,,,70,100
51072,note_on,,,,,40,0,8,,,,,0,,,79,85
51072,note_on,,,,,40,0,14,,,,,5,,,45,100
51072,note_on,,,,,40,0,12,,,,,4,,,33,85
51072,note_on,,,,,40,0,11,,,,,3,,,45,85
51072,note_on,,,,,128,0,13,,,,,5,,,63,100
51072,note_on,,,,,40,0,9,,,,,1,,,75,85
51072,note_on,,,,,0,0,13,,,,,5,,,67,100
51072,note_on,,,,,40,0,10,,,,,2,,,72,85
51328,note_off,,,,,256,0,9,,,,,1,,,75,100
51328,note_off,,,,,256,0,8,,,,,0,,,79,100
51360,note_on,,,,,32,0,8,,,,,0,,,81,85
51360,note_on,,,,,32,0,9,,,,,1,,,77,85
51444,note_off,,,,,84,0,9,,,,,1,,,77,100
51444,note_off,,,,,84,0,8,,,,,0,,,81,100
51456,note_off,,,,,384,0,13,,,,,5,,,63,100
51456,note_on,,,,,12,0,9,,,,,1,,,75,85
51456,note_on,,,,,12,0,8,,,,,0,,,79,85
51456,note_off,,,,,0,0,13,,,,,5,,,67,100
51588,note_off,,,,,516,0,10,,,,,2,,,72,100
51588,note_off,,,,,516,0,11,,,,,3,,,45,100
51588,note_off,,,,,516,0,14,,,,,5,,,45,100
51588,note_off,,,,,516,0,12,,,,,4,,,33,100
51648,note_on,,,,,192,0,13,,,,,5,,,63,100
51648,note_on,,,,,0,0,13,,,,,5,,,67,100
51648,note_on,,,,,60,0,14,,,,,5,,,45,100
51648,note_on,,,,,60,0,10,,,,,2,,,72,85
51648,note_on,,,,,60,0,11,,,,,3,,,45,85
51648,note_on,,,,,60,0,12,,,,,4,,,33,85
51712,note_off,,,,,256,0,9,,,,,1,,,75,100
51712,note_off,,,,,256,0,8,,,,,0,,,79,100
51744,note_on,,,,,32,0,9,,,,,1,,,77,85
51744,note_on,,,,,32,0,8,,,,,0,,,81,85
51776,note_off,,,,,128,0,13,,,,,5,,,63,100
51776,note_off,,,,,0,0,13,,,,,5,,,67,100
51820,note_off,,,,,172,0,11,,,,,3,,,45,100
51820,note_off,,,,,172,0,12,,,,,4,,,33,100
51820,note_off,,,,,172,0,14,,,,,5,,,45,100
51820,note_off,,,,,172,0,10,,,,,2,,,72,100
51828,note_off,,,,,84,0,8,,,,,0,,,81,100
51828,note_off,,,,,84,0,9,,,,,1,,,77,100
51840,note_on,,,,,12,0,9,,,,,1,,,74,85
51840,note_on,,,,,12,0,8,,,,,0,,,77,85
51840,note_on,,,,,20,0,14,,,,,5,,,50,100
51840,note_on,,,,,20,0,12,,,,,4,,,38,85
51840,note_on,,,,,20,0,11,,,,,3,,,50,85
51840,note_on,,,,,0,0,13,,,,,5,,,69,100
51840,note_on,,,,,64,0,13,,,,,5,,,65,100
51840,note_on,,,,,20,0,10,,,,,2,,,69,85
52096,note_off,,,,,0,0,13,,,,,5,,,69,100
52096,note_off,,,,,256,0,13,,,,,5,,,65,100
52184,note_off,,,,,344,0,9,,,,,1,,,74,100
52184,note_off,,,,,344,0,8,,,,,0,,,77,100
52184,note_off,,,,,344,0,14,,,,,5,,,50,100
52184,note_off,,,,,344,0,11,,,,,3,,,50,100
52184,note_off,,,,,344,0,10,,,,,2,,,69,100
52184,note_off,,,,,344,0,12,,,,,4,,,38,100
52224,note_on,,,,,40,0,10,,,,,2,,,70,85
52224,note_on,,,,,40,0,9,,,,,1,,,74,85
52224,note_on,,,,,40,0,11,,,,,3,,,55,85
52224,note_on,,,,,40,0,12,,,,,4,,,43,85
52224,note_on,,,,,40,0,8,,,,,0,,,77,85
52224,note_on,,,,,40,0,14,,,,,5,,,55,100
52224,note_on,,,,,128,0,13,,,,,5,,,65,100
52224,note_on,,,,,0,0,13,,,,,5,,,62,100
52480,note_off,,,,,256,0,9,,,,,1,,,74,100
52480,note_off,,,,,256,0,8,,,,,0,,,77,100
52512,note_on,,,,,32,0,9,,,,,1,,,75,85
52512,note_on,,,,,32,0,8,,,,,0,,,79,85
52596,note_off,,,,,84,0,8,,,,,0,,,79,100
52596,note_off,,,,,84,0,9,,,,,1,,,75,100
52608,note_on,,,,,12,0,8,,,,,0,,,77,85
52608,note_off,,,,,384,0,13,,,,,5,,,65,100
52608,note_on,,,,,12,0,9,,,,,1,,,74,85
52608,note_off,,,,,0,0,13,,,,,5,,,62,100
52740,note_off,,,,,516,0,11,,,,,3,,,55,100
52740,note_off,,,,,516,0,14,,,,,5,,,55,100
52740,note_off,,,,,516,0,10,,,,,2,,,70,100
52740,note_off,,,,,516,0,12,,,,,4,,,43,100
52800,note_on,,,,,0,0,13,,,,,5,,,65,100
52800,note_on,,,,,60,0,14,,,,,5,,,55,100
52800,note_on,,,,,192,0,13,,,,,5,,,62,100
52800,note_on,,,,,60,0,10,,,,,2,,,70,85
52800,note_on,,,,,60,0,12,,,,,4,,,43,85
52800,note_on,,,,,60,0,11,,,,,3,,,55,85
52864,note_off,,,,,256,0,8,,,,,0,,,77,100
52864,note_off,,,,,256,0,9,,,,,1,,,74,100
52896,note_on,,,,,32,0,8,,,,,0,,,79,85
52896,note_on,,,,,32,0,9,,,,,1,,,75,85
52928,note_off,,,,,0,0,13,,,,,5,,,65,100
52928,note_off,,,,,128,0,13,,,,,5,,,62,100
52972,note_off,,,,,172,0,14,,,,,5,,,55,100
52972,note_off,,,,,172,0,12,,,,,4,,,43,100
52972,note_off,,,,,172,0,11,,,,,3,,,55,100
52972,note_off,,,,,172,0,10,,,,,2,,,70,100
52980,note_off,,,,,84,0,8,,,,,0,,,79,100
52980,note_off,,,,,84,0,9,,,,,1,,,75,100
52992,note_on,,,,,20,0,14,,,,,5,,,60,100
52992,note_on,,,,,0,0,13,,,,,5,,,67,100
52992,note_on,,,,,12,0,8,,,,,0,,,75,85
52992,note_on,,,,,20,0,10,,,,,2,,,67,85
52992,note_on,,,,,64,0,13,,,,,5,,,63,100
52992,note_on,,,,,20,0,12,,,,,4,,,48,85
52992,note_on,,,,,20,0,11,,,,,3,,,60,85
52992,note_on,,,,,12,0,9,,,,,1,,,72,85
53248,note_off,,,,,0,0,13,,,,,5,,,67,100
53248,note_off,,,,,256,0,13,,,,,5,,,63,100
53336,note_off,,,,,344,0,14,,,,,5,,,60,100
53336,note_off,,,,,344,0,8,,,,,0,,,75,100
53336,note_off,,,,,344,0,9,,,,,1,,,72,100
53336,note_off,,,,,344,0,11,,,,,3,,,60,100
53336,note_off,,,,,344,0,10,,,,,2,,,67,100
53336,note_off,,,,,344,0,12,,,,,4,,,48,100
53376,note_on,,,,,40,0,9,,,,,1,,,72,85
53376,note_on,,,,,40,0,10,,,,,2,,,69,85
53376,note_on,,,,,128,0,13,,,,,5,,,60,100
53376,note_on,,,,,40,0,11,,,,,3,,,54,85
53376,note_on,,,,,40,0,12,,,,,4,,,42,85
53376,note_on,,,,,40,0,8,,,,,0,,,75,85
53376,note_on,,,,,0,0,13,,,,,5,,,63,100
53376,note_on,,,,,40,0,14,,,,,5,,,54,100
53632,note_off,,,,,256,0,9,,,,,1,,,72,100
53632,note_off,,,,,256,0,8,,,,,0,,,75,100
53664,note_on,,,,,32,0,8,,,,,0,,,77,85
53664,note_on,,,,,32,0,9,,,,,1,,,74,85
53748,note_off,,,,,84,0,8,,,,,0,,,77,100
53748,note_off,,,,,84,0,9,,,,,1,,,74,100
53760,note_on,,,,,12,0,9,,,,,1,,,72,85
53760,note_off,,,,,0,0,13,,,,,5,,,63,100
53760,note_off,,,,,384,0,13,,,,,5,,,60,100
53760,note_on,,,,,12,0,8,,,,,0,,,75,85
53892,note_off,,,,,516,0,11,,,,,3,,,54,100
53892,note_off,,,,,516,0,14,,,,,5,,,54,100
53892,note_off,,,,,516,0,12,,,,,4,,,42,100
53892,note_off,,,,,516,0,10,,,,,2,,,69,100
53952,note_on,,,,,60,0,14,,,,,5,,,54,100
53952,note_on,,,,,60,0,11,,,,,3,,,54,85
53952,note_on,,,,,60,0,12,,,,,4,,,42,85
53952,note_on,,,,,60,0,10,,,,,2,,,69,85
53952,note_on,,,,,0,0,13,,,,,5,,,63,100
53952,note_on,,,,,192,0,13,,,,,5,,,60,100
54016,note_off,,,,,256,0,9,,,,,1,,,72,100
54016,note_off,,,,,256,0,8,,,,,0,,,75,100
54048,note_on,,,,,32,0,8,,,,,0,,,77,85
54048,note_on,,,,,32,0,9,,,,,1,,,74,85
54080,note_off,,,,,0,0,13,,,,,5,,,63,100
54080,note_off,,,,,128,0,13,,,,,5,,,60,100
54124,note_off,,,,,172,0,12,,,,,4,,,42,100
54124,note_off,,,,,172,0,11,,,,,3,,,54,100
54124,note_off,,,,,172,0,10,,,,,2,,,69,100
54124,note_off,,,,,172,0,14,,,,,5,,,54,100
54132,note_off,,,,,84,0,8,,,,,0,,,77,100
54132,note_off,,,,,84,0,9,,,,,1,,,74,100
54144,note_on,,,,,20,0,12,,,,,4,,,43,85
54144,note_on,,,,,12,0,9,,,,,1,,,70,85
54144,note_on,,,,,20,0,11,,,,,3,,,55,85
54144,note_on,,,,,12,0,8,,,,,0,,,74,85
54144,note_on,,,,,64,0,13,,,,,5,,,58,100
54144,note_on,,,,,0,0,13,,,,,5,,,62,100
54144,note_on,,,,,20,0,10,,,,,2,,,62,85
54144,note_on,,,,,20,0,14,,,,,5,,,55,100
54144,set_tempo,,,,,4608,1,0,,600000,,,,,,,
54604,set_tempo,,,,,460,1,0,,606060,,,,,,,
54656,note_off,,,,,512,0,13,,,,,5,,,58,100
54656,note_off,,,,,0,0,13,,,,,5,,,62,100
54660,note_off,,,,,516,0,9,,,,,1,,,70,100
54660,note_off,,,,,516,0,8,,,,,0,,,74,100
54720,note_on,,,,,60,0,8,,,,,0,,,72,85
54720,note_on,,,,,60,0,9,,,,,1,,,69,85
54832,note_off,,,,,688,0,14,,,,,5,,,55,100
54832,note_off,,,,,688,0,12,,,,,4,,,43,100
54832,note_off,,,,,688,0,10,,,,,2,,,62,100
54832,note_off,,,,,688,0,11,,,,,3,,,55,100
54892,note_off,,,,,172,0,8,,,,,0,,,72,100
54892,note_off,,,,,172,0,9,,,,,1,,,69,100
54912,note_on,,,,,80,0,10,,,,,2,,,62,85
54912,note_on,,,,,80,0,14,,,,,5,,,43,100
54912,note_on,,,,,256,0,13,,,,,5,,,58,100
54912,note_on,,,,,0,0,13,,,,,5,,,62,100
54912,note_on,,,,,80,0,11,,,,,3,,,43,85
54912,note_on,,,,,80,0,12,,,,,4,,,43,85
54912,note_on,,,,,20,0,9,,,,,1,,,67,85
54912,note_on,,,,,20,0,8,,,,,0,,,70,85
55064,set_tempo,,,,,460,1,0,,612244,,,,,,,
55168,note_off,,,,,256,0,8,,,,,0,,,70,100
55168,note_off,,,,,256,0,13,,,,,5,,,58,100
55168,note_off,,,,,0,0,13,,,,,5,,,62,100
55168,note_off,,,,,256,0,9,,,,,1,,,67,100
55200,note_on,,,,,32,0,9,,,,,1,,,66,85
55200,note_on,,,,,32,0,8,,,,,0,,,69,85
55256,note_off,,,,,344,0,11,,,,,3,,,43,100
55256,note_off,,,,,344,0,10,,,,,2,,,62,100
55256,note_off,,,,,344,0,12,,,,,4,,,43,100
55256,note_off,,,,,344,0,14,,,,,5,,,43,100
55284,note_off,,,,,84,0,8,,,,,0,,,69,100
55284,note_off,,,,,84,0,9,,,,,1,,,66,100
55296,note_on,,,,,0,0,13,,,,,5,,,67,100
55296,note_on,,,,,40,0,14,,,,,5,,,48,100
55296,note_on,,,,,0,0,13,,,,,5,,,63,100
55296,note_on,,,,,128,0,13,,,,,5,,,70,100
55296,note_on,,,,,40,0,12,,,,,4,,,36,85
55296,note_on,,,,,12,0,9,,,,,1,,,67,85
55296,note_on,,,,,40,0,11,,,,,3,,,48,85
55296,note_on,,,,,12,0,8,,,,,0,,,70,85
55296,note_on,,,,,40,0,10,,,,,2,,,63,85
55524,set_tempo,,,,,460,1,0,,618556,,,,,,,
55552,note_off,,,,,256,0,8,,,,,0,,,70,100
55552,note_off,,,,,256,0,9,,,,,1,,,67,100
55552,note_off,,,,,0,0,13,,,,,5,,,63,100
55552,note_off,,,,,0,0,13,,,,,5,,,67,100
55552,note_off,,,,,256,0,13,,,,,5,,,70,100
55584,note_on,,,,,32,0,8,,,,,0,,,72,85
55584,note_on,,,,,32,0,9,,,,,1,,,69,85
55640,note_off,,,,,344,0,11,,,,,3,,,48,100
55640,note_off,,,,,344,0,10,,,,,2,,,63,100
55640,note_off,,,,,344,0,12,,,,,4,,,36,100
55640,note_off,,,,,344,0,14,,,,,5,,,48,100
55668,note_off,,,,,84,0,9,,,,,1,,,69,100
55668,note_off,,,,,84,0,8,,,,,0,,,72,100
55680,note_on,,,,,12,0,9,,,,,1,,,66,85
55680,note_on,,,,,128,0,13,,,,,5,,,67,100
55680,note_on,,,,,0,0,13,,,,,5,,,69,100
55680,note_on,,,,,40,0,14,,,,,5,,,50,100
55680,note_on,,,,,12,0,8,,,,,0,,,69,85
55680,note_on,,,,,40,0,10,,,,,2,,,57,85
55680,note_on,,,,,40,0,12,,,,,4,,,38,85
55680,note_on,,,,,40,0,11,,,,,3,,,50,85
55720,note_off,,,,,40,0,9,,,,,1,,,66,100
55720,note_off,,,,,40,0,8,,,,,0,,,69,100
55728,note_on,,,,,8,0,9,,,,,1,,,67,85
55728,note_on,,,,,8,0,8,,,,,0,,,70,85
55768,note_off,,,,,40,0,8,,,,,0,,,70,100
55768,note_off,,,,,40,0,9,,,,,1,,,67,100
55776,note_on,,,,,8,0,8,,,,,0,,,69,85
55776,note_on,,,,,8,0,9,,,,,1,,,66,85
55816,note_off,,,,,40,0,9,,,,,1,,,66,100
55816,note_off,,,,,40,0,8,,,,,0,,,69,100
55824,note_on,,,,,8,0,9,,,,,1,,,67,85
55824,note_on,,,,,8,0,8,,,,,0,,,70,85
55864,note_off,,,,,40,0,8,,,,,0,,,70,100
55864,note_off,,,,,40,0,9,,,,,1,,,67,100
55872,note_on,,,,,8,0,8,,,,,0,,,69,85
55872,note_on,,,,,8,0,9,,,,,1,,,66,85
55912,note_off,,,,,40,0,8,,,,,0,,,69,100
55912,note_off,,,,,40,0,9,,,,,1,,,66,100
55920,note_on,,,,,8,0,9,,,,,1,,,67,85
55920,note_on,,,,,8,0,8,,,,,0,,,70,85
55936,note_off,,,,,0,0,13,,,,,5,,,69,100
55936,note_off,,,,,256,0,13,,,,,5,,,67,100
55960,note_off,,,,,40,0,9,,,,,1,,,67,100
55960,note_off,,,,,40,0,8,,,,,0,,,70,100
55968,note_on,,,,,8,0,9,,,,,1,,,66,85
55968,note_on,,,,,8,0,8,,,,,0,,,69,85
55984,set_tempo,,,,,460,1,0,,625000,,,,,,,
56008,note_off,,,,,40,0,9,,,,,1,,,66,100
56008,note_off,,,,,40,0,8,,,,,0,,,69,100
56016,note_on,,,,,8,0,9,,,,,1,,,67,85
56016,note_on,,,,,8,0,8,,,,,0,,,70,85
56024,note_off,,,,,344,0,12,,,,,4,,,38,100
56024,note_off,,,,,344,0,11,,,,,3,,,50,100
56024,note_off,,,,,344,0,14,,,,,5,,,50,100
56024,note_off,,,,,344,0,10,,,,,2,,,57,100
56056,note_off,,,,,40,0,9,,,,,1,,,67,100
56056,note_off,,,,,40,0,8,,,,,0,,,70,100
56064,note_on,,,,,40,0,14,,,,,5,,,38,100
56064,note_on,,,,,8,0,8,,,,,0,,,69,85
56064,note_on,,,,,128,0,13,,,,,5,,,57,100
56064,note_on,,,,,0,0,13,,,,,5,,,66,100
56064,note_on,,,,,40,0,10,,,,,2,,,62,85
56064,note_on,,,,,40,0,11,,,,,3,,,38,85
56064,note_on,,,,,8,0,9,,,,,1,,,66,85
56064,note_on,,,,,40,0,12,,,,,4,,,38,85
56236,note_off,,,,,172,0,8,,,,,0,,,69,100
56236,note_off,,,,,172,0,9,,,,,1,,,66,100
56256,note_on,,,,,20,0,8,,,,,0,,,67,85
56256,note_on,,,,,20,0,9,,,,,1,,,67,85
56320,note_off,,,,,256,0,13,,,,,5,,,57,100
56320,note_off,,,,,0,0,13,,,,,5,,,66,100
56408,note_off,,,,,344,0,11,,,,,3,,,38,100
56408,note_off,,,,,344,0,10,,,,,2,,,62,100
56408,note_off,,,,,344,0,12,,,,,4,,,38,100
56408,note_off,,,,,344,0,14,,,,,5,,,38,100
56428,note_off,,,,,172,0,8,,,,,0,,,67,100
56428,note_off,,,,,172,0,9,,,,,1,,,67,100
56448,note_on,,,,,0,0,13,,,,,5,,,62,100
56448,note_on,,,,,128,0,13,,,,,5,,,58,100
56448,note_on,,,,,40,0,11,,,,,3,,,43,85
56448,set_tempo,,,,,464,1,0,,631578,,,,,,,
56448,note_on,,,,,40,0,12,,,,,4,,,43,85
56448,note_on,,,,,40,0,14,,,,,5,,,43,100
56448,note_on,,,,,0,0,10,,,,,2,,,62,85
56448,note_on,,,,,40,0,10,,,,,2,,,58,85
56448,note_on,,,,,20,0,9,,,,,1,,,67,85
56448,note_on,,,,,20,0,8,,,,,0,,,67,85
56792,note_off,,,,,344,0,11,,,,,3,,,43,100
56828,program_change,,,,,36,0,11,,,,,3,42,,,
56832,note_on,,,,,4,0,11,,,,,3,,,62,85
56832,set_tempo,,,,,384,1,0,,600000,,,,,,,
57088,note_off,,,,,256,0,11,,,,,3,,,62,100
57120,note_on,,,,,32,0,11,,,,,3,,,60,76
57204,note_off,,,,,84,0,11,,,,,3,,,60,100
57216,note_off,,,,,0,0,13,,,,,5,,,62,100
57216,note_off,,,,,768,0,10,,,,,2,,,58,100
57216,note_off,,,,,0,0,10,,,,,2,,,62,100
57216,note_off,,,,,768,0,8,,,,,0,,,67,100
57216,note_off,,,,,768,0,9,,,,,1,,,67,100
57216,note_off,,,,,768,0,13,,,,,5,,,58,100
57216,note_off,,,,,768,0,12,,,,,4,,,43,100
57216,note_on,,,,,12,0,11,,,,,3,,,58,73
57216,note_off,,,,,768,0,14,,,,,5,,,43,100
57472,note_off,,,,,256,0,11,,,,,3,,,58,100
57504,note_on,,,,,32,0,11,,,,,3,,,57,64
57588,note_off,,,,,84,0,11,,,,,3,,,57,100
57596,program_change,,,,,380,0,8,,,,,0,40,,,
57596,program_change,,,,,380,0,9,,,,,1,40,,,
57600,note_on,,,,,4,0,9,,,,,1,,,79,60
57600,note_on,,,,,12,0,11,,,,,3,,,55,61
57600,note_on,,,,,4,0,8,,,,,0,,,82,60
57944,note_off,,,,,344,0,8,,,,,0,,,82,100
57944,note_off,,,,,344,0,9,,,,,1,,,79,100
57944,note_off,,,,,344,0,11,,,,,3,,,55,100
57984,note_on,,,,,40,0,9,,,,,1,,,79,60
57984,note_on,,,,,40,0,8,,,,,0,,,82,60
57984,note_on,,,,,40,0,11,,,,,3,,,48,60
58240,note_off,,,,,256,0,9,,,,,1,,,79,100
58240,note_off,,,,,256,0,8,,,,,0,,,82,100
58272,note_on,,,,,32,0,8,,,,,0,,,84,60
58272,note_on,,,,,32,0,9,,,,,1,,,81,60
58356,note_off,,,,,84,0,8,,,,,0,,,84,100
58356,note_off,,,,,84,0,9,,,,,1,,,81,100
58368,note_on,,,,,12,0,9,,,,,1,,,79,60
58368,note_on,,,,,12,0,8,,,,,0,,,82,60
58500,note_off,,,,,516,0,11,,,,,3,,,48,100
58560,note_on,,,,,60,0,11,,,,,3,,,48,60
58624,note_off,,,,,256,0,8,,,,,0,,,82,100
58624,note_off,,,,,256,0,9,,,,,1,,,79,100
58656,note_on,,,,,32,0,9,,,,,1,,,81,60
58656,note_on,,,,,32,0,8,,,,,0,,,84,60
58732,note_off,,,,,172,0,11,,,,,3,,,48,100
58740,note_off,,,,,84,0,9,,,,,1,,,81,100
58740,note_off,,,,,84,0,8,,,,,0,,,84,100
58752,note_on,,,,,12,0,9,,,,,1,,,77,60
58752,note_on,,,,,20,0,11,,,,,3,,,53,85
58752,note_on,,,,,12,0,8,,,,,0,,,81,60
59096,note_off,,,,,344,0,11,,,,,3,,,53,100
59096,note_off,,,,,344,0,8,,,,,0,,,81,100
59096,note_off,,,,,344,0,9,,,,,1,,,77,100
59136,note_on,,,,,40,0,9,,,,,1,,,77,60
59136,note_on,,,,,40,0,11,,,,,3,,,46,85
59136,note_on,,,,,40,0,8,,,,,0,,,81,60
59392,note_off,,,,,256,0,8,,,,,0,,,81,100
59392,note_off,,,,,256,0,9,,,,,1,,,77,100
59424,note_on,,,,,32,0,8,,,,,0,,,82,60
59424,note_on,,,,,32,0,9,,,,,1,,,79,60
59508,note_off,,,,,84,0,8,,,,,0,,,82,100
59508,note_off,,,,,84,0,9,,,,,1,,,79,100
59520,note_on,,,,,12,0,8,,,,,0,,,81,60
59520,note_on,,,,,12,0,9,,,,,1,,,77,60
59652,note_off,,,,,516,0,11,,,,,3,,,46,100
59712,note_on,,,,,60,0,11,,,,,3,,,46,85
59776,note_off,,,,,256,0,8,,,,,0,,,81,100
59776,note_off,,,,,256,0,9,,,,,1,,,77,100
59808,note_on,,,,,32,0,8,,,,,0,,,82,60
59808,note_on,,,,,32,0,9,,,,,1,,,79,60
59884,note_off,,,,,172,0,11,,,,,3,,,46,100
59892,note_off,,,,,84,0,8,,,,,0,,,82,100
59892,note_off,,,,,84,0,9,,,,,1,,,79,100
59904,note_on,,,,,12,0,9,,,,,1,,,75,60
59904,note_on,,,,,12,0,8,,,,,0,,,79,60
59904,note_on,,,,,20,0,11,,,,,3,,,51,85
60248,note_off,,,,,344,0,9,,,,,1,,,75,100
60248,note_off,,,,,344,0,11,,,,,3,,,51,100
60248,note_off,,,,,344,0,8,,,,,0,,,79,100
60288,note_on,,,,,40,0,11,,,,,3,,,45,85
60288,note_on,,,,,40,0,8,,,,,0,,,79,60
60288,note_on,,,,,40,0,9,,,,,1,,,75,60
60544,note_off,,,,,256,0,8,,,,,0,,,79,100
60544,note_off,,,,,256,0,9,,,,,1,,,75,100
60576,note_on,,,,,32,0,8,,,,,0,,,81,60
60576,note_on,,,,,32,0,9,,,,,1,,,77,60
60660,note_off,,,,,84,0,9,,,,,1,,,77,100
60660,note_off,,,,,84,0,8,,,,,0,,,81,100
60672,note_on,,,,,12,0,8,,,,,0,,,79,60
60672,note_on,,,,,12,0,9,,,,,1,,,75,60
60804,note_off,,,,,516,0,11,,,,,3,,,45,100
60864,note_on,,,,,60,0,11,,,,,3,,,45,85
60928,note_off,,,,,256,0,8,,,,,0,,,79,100
60928,note_off,,,,,256,0,9,,,,,1,,,75,100
60960,note_on,,,,,32,0,8,,,,,0,,,81,60
60960,note_on,,,,,32,0,9,,,,,1,,,77,60
61036,note_off,,,,,172,0,11,,,,,3,,,45,100
61044,note_off,,,,,84,0,9,,,,,1,,,77,100
61044,note_off,,,,,84,0,8,,,,,0,,,81,100
61056,note_on,,,,,12,0,9,,,,,1,,,74,60
61056,note_on,,,,,12,0,8,,,,,0,,,77,60
61056,note_on,,,,,20,0,11,,,,,3,,,50,85
61400,note_off,,,,,344,0,11,,,,,3,,,50,100
61400,note_off,,,,,344,0,9,,,,,1,,,74,100
61400,note_off,,,,,344,0,8,,,,,0,,,77,100
61440,note_on,,,,,40,0,8,,,,,0,,,77,60
61440,note_on,,,,,40,0,9,,,,,1,,,74,60
61440,note_on,,,,,40,0,11,,,,,3,,,55,85
61696,note_off,,,,,256,0,8,,,,,0,,,77,100
61696,note_off,,,,,256,0,9,,,,,1,,,74,100
61728,note_on,,,,,32,0,8,,,,,0,,,79,60
61728,note_on,,,,,32,0,9,,,,,1,,,75,60
61812,note_off,,,,,84,0,9,,,,,1,,,75,100
61812,note_off,,,,,84,0,8,,,,,0,,,79,100
61824,note_on,,,,,12,0,9,,,,,1,,,74,60
61824,note_on,,,,,12,0,8,,,,,0,,,77,60
61956,note_off,,,,,516,0,11,,,,,3,,,55,100
62016,note_on,,,,,60,0,11,,,,,3,,,55,85
62080,note_off,,,,,256,0,9,,,,,1,,,74,100
62080,note_off,,,,,256,0,8,,,,,0,,,77,100
62112,note_on,,,,,32,0,9,,,,,1,,,75,60
62112,note_on,,,,,32,0,8,,,,,0,,,79,60
62188,note_off,,,,,172,0,11,,,,,3,,,55,100
62196,note_off,,,,,84,0,8,,,,,0,,,79,100
62196,note_off,,,,,84,0,9,,,,,1,,,75,100
62208,set_tempo,,,,,5376,1,0,,600000,,,,,,,
62208,note_on,,,,,12,0,8,,,,,0,,,75,60
62208,note_on,,,,,20,0,11,,,,,3,,,60,85
62208,note_on,,,,,12,0,9,,,,,1,,,72,60
62552,set_tempo,,,,,344,1,0,,606060,,,,,,,
62552,note_off,,,,,344,0,8,,,,,0,,,75,100
62552,note_off,,,,,344,0,11,,,,,3,,,60,100
62552,note_off,,,,,344,0,9,,,,,1,,,72,100
62592,note_on,,,,,40,0,8,,,,,0,,,75,60
62592,note_on,,,,,40,0,11,,,,,3,,,54,85
62592,note_on,,,,,40,0,9,,,,,1,,,72,60
62848,note_off,,,,,256,0,8,,,,,0,,,75,100
62848,note_off,,,,,256,0,9,,,,,1,,,72,100
62880,note_on,,,,,32,0,9,,,,,1,,,74,60
62880,note_on,,,,,32,0,8,,,,,0,,,77,60
62896,set_tempo,,,,,344,1,0,,612244,,,,,,,
62964,note_off,,,,,84,0,9,,,,,1,,,74,100
62964,note_off,,,,,84,0,8,,,,,0,,,77,100
62976,note_on,,,,,12,0,9,,,,,1,,,72,60
62976,note_on,,,,,12,0,8,,,,,0,,,75,60
63108,note_off,,,,,516,0,11,,,,,3,,,54,100
63168,note_on,,,,,60,0,11,,,,,3,,,54,85
63232,note_off,,,,,256,0,9,,,,,1,,,72,100
63232,note_off,,,,,256,0,8,,,,,0,,,75,100
63244,set_tempo,,,,,348,1,0,,618556,,,,,,,
63264,note_on,,,,,32,0,8,,,,,0,,,77,60
63264,note_on,,,,,32,0,9,,,,,1,,,74,60
63340,note_off,,,,,172,0,11,,,,,3,,,54,100
63348,note_off,,,,,84,0,8,,,,,0,,,77,100
63348,note_off,,,,,84,0,9,,,,,1,,,74,100
63360,note_on,,,,,20,0,11,,,,,3,,,55,85
63360,note_on,,,,,12,0,8,,,,,0,,,74,60
63360,note_on,,,,,12,0,9,,,,,1,,,70,60
63588,set_tempo,,,,,344,1,0,,625000,,,,,,,
63876,note_off,,,,,516,0,9,,,,,1,,,70,100
63876,note_off,,,,,516,0,8,,,,,0,,,74,100
63936,note_on,,,,,60,0,9,,,,,1,,,69,60
63936,set_tempo,,,,,348,1,0,,631578,,,,,,,
63936,note_on,,,,,60,0,8,,,,,0,,,72,60
64048,note_off,,,,,688,0,11,,,,,3,,,55,100
64108,note_off,,,,,172,0,8,,,,,0,,,72,100
64108,note_off,,,,,172,0,9,,,,,1,,,69,100
64128,note_on,,,,,20,0,8,,,,,0,,,70,60
64128,note_on,,,,,20,0,9,,,,,1,,,67,60
64128,note_on,,,,,80,0,11,,,,,3,,,43,85
64280,set_tempo,,,,,344,1,0,,638297,,,,,,,
64384,note_off,,,,,256,0,9,,,,,1,,,67,100
64384,note_off,,,,,256,0,8,,,,,0,,,70,100
64416,note_on,,,,,32,0,8,,,,,0,,,69,60
64416,note_on,,,,,32,0,9,,,,,1,,,66,60
64472,note_off,,,,,344,0,11,,,,,3,,,43,100
64500,note_off,,,,,84,0,8,,,,,0,,,69,100
64500,note_off,,,,,84,0,9,,,,,1,,,66,100
64512,note_on,,,,,12,0,8,,,,,0,,,70,60
64512,note_on,,,,,40,0,11,,,,,3,,,48,85
64512,note_on,,,,,12,0,9,,,,,1,,,67,60
64624,set_tempo,,,,,344,1,0,,645161,,,,,,,
64768,note_off,,,,,256,0,8,,,,,0,,,70,100
64768,note_off,,,,,256,0,9,,,,,1,,,67,100
64800,note_on,,,,,32,0,9,,,,,1,,,69,60
64800,note_on,,,,,32,0,8,,,,,0,,,72,60
64856,note_off,,,,,344,0,11,,,,,3,,,48,100
64884,note_off,,,,,84,0,9,,,,,1,,,69,100
64884,note_off,,,,,84,0,8,,,,,0,,,72,100
64896,note_on,,,,,40,0,11,,,,,3,,,50,85
64896,note_on,,,,,12,0,8,,,,,0,,,69,60
64896,note_on,,,,,12,0,9,,,,,1,,,66,60
64936,note_off,,,,,40,0,8,,,,,0,,,69,100
64936,note_off,,,,,40,0,9,,,,,1,,,66,100
64944,note_on,,,,,8,0,8,,,,,0,,,70,60
64944,note_on,,,,,8,0,9,,,,,1,,,67,60
64972,set_tempo,,,,,348,1,0,,652173,,,,,,,
64984,note_off,,,,,40,0,8,,,,,0,,,70,100
64984,note_off,,,,,40,0,9,,,,,1,,,67,100
64992,note_on,,,,,8,0,9,,,,,1,,,66,60
64992,note_on,,,,,8,0,8,,,,,0,,,69,60
65032,note_off,,,,,40,0,8,,,,,0,,,69,100
65032,note_off,,,,,40,0,9,,,,,1,,,66,100
65040,note_on,,,,,8,0,8,,,,,0,,,70,60
65040,note_on,,,,,8,0,9,,,,,1,,,67,60
65080,note_off,,,,,40,0,9,,,,,1,,,67,100
65080,note_off,,,,,40,0,8,,,,,0,,,70,100
65088,note_on,,,,,8,0,8,,,,,0,,,69,60
65088,note_on,,,,,8,0,9,,,,,1,,,66,60
65128,note_off,,,,,40,0,9,,,,,1,,,66,100
65128,note_off,,,,,40,0,8,,,,,0,,,69,100
65136,note_on,,,,,8,0,8,,,,,0,,,70,60
65136,note_on,,,,,8,0,9,,,,,1,,,67,60
65176,note_off,,,,,40,0,9,,,,,1,,,67,100
65176,note_off,,,,,40,0,8,,,,,0,,,70,100
65184,note_on,,,,,8,0,8,,,,,0,,,69,60
65184,note_on,,,,,8,0,9,,,,,1,,,66,60
65224,note_off,,,,,40,0,8,,,,,0,,,69,100
65224,note_off,,,,,40,0,9,,,,,1,,,66,100
65232,note_on,,,,,8,0,9,,,,,1,,,67,60
65232,note_on,,,,,8,0,8,,,,,0,,,70,60
65240,note_off,,,,,344,0,11,,,,,3,,,50,100
65272,note_off,,,,,40,0,9,,,,,1,,,67,100
65272,note_off,,,,,40,0,8,,,,,0,,,70,100
65280,note_on,,,,,8,0,9,,,,,1,,,66,60
65280,note_on,,,,,8,0,8,,,,,0,,,69,60
65280,note_on,,,,,40,0,11,,,,,3,,,38,85
65316,set_tempo,,,,,344,1,0,,659340,,,,,,,
65452,note_off,,,,,172,0,9,,,,,1,,,66,100
65452,note_off,,,,,172,0,8,,,,,0,,,69,100
65472,note_on,,,,,20,0,9,,,,,1,,,67,60
65472,note_on,,,,,20,0,8,,,,,0,,,67,60
65624,note_off,,,,,344,0,11,,,,,3,,,38,100
65644,note_off,,,,,172,0,9,,,,,1,,,67,100
65644,note_off,,,,,172,0,8,,,,,0,,,67,100
65664,note_on,,,,,20,0,9,,,,,1,,,67,60
65664,note_on,,,,,20,0,8,,,,,0,,,67,60
65664,note_on,,,,,40,0,11,,,,,3,,,43,85
65664,set_tempo,,,,,348,1,0,,600000,,,,,,,
66044,note_off,,,,,380,0,8,,,,,0,,,67,100
66044,note_off,,,,,380,0,9,,,,,1,,,67,100
66044,note_off,,,,,380,0,11,,,,,3,,,43,100
66048,program_change,,,,,4,0,11,,,,,3,48,,,
66048,program_change,,,,,4,0,9,,,,,1,48,,,
66048,program_change,,,,,4,0,8,,,,,0,48,,,
66720,note_on,,,,,9504,0,10,,,,,2,,,62,85
66720,note_on,,,,,672,0,9,,,,,1,,,70,85
66720,note_on,,,,,9504,0,13,,,,,5,,,58,100
66720,note_on,,,,,0,0,13,,,,,5,,,62,100
66720,note_on,,,,,672,0,8,,,,,0,,,79,85
66720,note_on,,,,,9504,0,12,,,,,4,,,43,85
66720,note_on,,,,,9504,0,14,,,,,5,,,43,100
66720,note_on,,,,,672,0,11,,,,,3,,,43,85
66784,note_off,,,,,64,0,13,,,,,5,,,58,100
66784,note_off,,,,,0,0,13,,,,,5,,,62,100
66804,note_off,,,,,84,0,11,,,,,3,,,43,100
66804,note_off,,,,,84,0,9,,,,,1,,,70,100
66804,note_off,,,,,84,0,14,,,,,5,,,43,100
66804,note_off,,,,,84,0,12,,,,,4,,,43,100
66804,note_off,,,,,84,0,8,,,,,0,,,79,100
66804,note_off,,,,,84,0,10,,,,,2,,,62,100
66816,note_on,,,,,0,0,13,,,,,5,,,67,100
66816,note_on,,,,,12,0,14,,,,,5,,,50,100
66816,note_on,,,,,32,0,13,,,,,5,,,70,100
66816,note_on,,,,,0,0,13,,,,,5,,,62,100
66816,note_on,,,,,12,0,11,,,,,3,,,50,85
66816,note_on,,,,,12,0,8,,,,,0,,,79,85
66816,note_on,,,,,12,0,10,,,,,2,,,62,85
66816,note_on,,,,,12,0,9,,,,,1,,,70,85
66816,note_on,,,,,12,0,12,,,,,4,,,38,85
66816,set_tempo,,,,,1152,1,0,,600000,,,,,,,
66928,set_tempo,,,,,112,1,0,,606060,,,,,,,
67044,set_tempo,,,,,116,1,0,,612244,,,,,,,
67072,note_off,,,,,0,0,13,,,,,5,,,67,100
67072,note_off,,,,,0,0,13,,,,,5,,,62,100
67072,note_off,,,,,256,0,13,,,,,5,,,70,100
67160,note_off,,,,,344,0,10,,,,,2,,,62,100
67160,note_off,,,,,344,0,9,,,,,1,,,70,100
67160,note_off,,,,,344,0,11,,,,,3,,,50,100
67160,note_off,,,,,344,0,8,,,,,0,,,79,100
67160,set_tempo,,,,,116,1,0,,618556,,,,,,,
67160,note_off,,,,,344,0,12,,,,,4,,,38,100
67160,note_off,,,,,344,0,14,,,,,5,,,50,100
67200,note_on,,,,,128,0,13,,,,,5,,,66,100
67200,note_on,,,,,40,0,9,,,,,1,,,69,85
67200,note_on,,,,,40,0,10,,,,,2,,,62,85
67200,note_on,,,,,40,0,12,,,,,4,,,38,85
67200,note_on,,,,,40,0,8,,,,,0,,,78,85
67200,note_on,,,,,40,0,14,,,,,5,,,38,100
67200,note_on,,,,,0,0,13,,,,,5,,,62,100
67200,note_on,,,,,0,0,13,,,,,5,,,57,100
67200,note_on,,,,,40,0,11,,,,,3,,,38,85
67276,set_tempo,,,,,116,1,0,,625000,,,,,,,
67392,set_tempo,,,,,116,1,0,,631578,,,,,,,
67456,note_off,,,,,0,0,13,,,,,5,,,62,100
67456,note_off,,,,,0,0,13,,,,,5,,,57,100
67456,note_off,,,,,256,0,13,,,,,5,,,66,100
67504,set_tempo,,,,,112,1,0,,638297,,,,,,,
67544,note_off,,,,,344,0,12,,,,,4,,,38,100
67544,note_off,,,,,344,0,10,,,,,2,,,62,100
67544,note_off,,,,,344,0,14,,,,,5,,,38,100
67544,note_off,,,,,344,0,9,,,,,1,,,69,100
67544,note_off,,,,,344,0,8,,,,,0,,,78,100
67544,note_off,,,,,344,0,11,,,,,3,,,38,100
67620,set_tempo,,,,,116,1,0,,645161,,,,,,,
67736,set_tempo,,,,,116,1,0,,652173,,,,,,,
67852,set_tempo,,,,,116,1,0,,659340,,,,,,,
67872,note_on,,,,,328,0,9,,,,,1,,,69,85
67872,note_on,,,,,328,0,8,,,,,0,,,78,85
67872,note_on,,,,,328,0,11,,,,,3,,,50,85
67872,note_on,,,,,328,0,10,,,,,2,,,62,85
67872,note_on,,,,,328,0,14,,,,,5,,,38,100
67872,note_on,,,,,0,0,13,,,,,5,,,66,100
67872,note_on,,,,,416,0,13,,,,,5,,,57,100
67872,note_on,,,,,328,0,12,,,,,4,,,38,85
67936,note_off,,,,,64,0,13,,,,,5,,,57,100
67936,note_off,,,,,0,0,13,,,,,5,,,66,100
67956,note_off,,,,,84,0,14,,,,,5,,,38,100
67956,note_off,,,,,84,0,12,,,,,4,,,38,100
67956,note_off,,,,,84,0,9,,,,,1,,,69,100
67956,note_off,,,,,84,0,8,,,,,0,,,78,100
67956,note_off,,,,,84,0,10,,,,,2,,,62,100
67956,note_off,,,,,84,0,11,,,,,3,,,50,100
67968,note_on,,,,,12,0,9,,,,,1,,,70,85
67968,note_on,,,,,12,0,14,,,,,5,,,43,100
67968,note_on,,,,,32,0,13,,,,,5,,,58,100
67968,note_on,,,,,12,0,11,,,,,3,,,43,85
67968,note_on,,,,,12,0,10,,,,,2,,,62,85
67968,note_on,,,,,12,0,8,,,,,0,,,79,85
67968,note_on,,,,,12,0,12,,,,,4,,,31,85
67968,end_of_track,,,,,0,1,0,,,,,,,,,
67968,set_tempo,,,,,116,1,0,,923076,,,,,,,
67996,note_on,,,,,28,0,13,,,,,5,,,62,100
68028,note_on,,,,,32,0,13,,,,,5,,,67,100
68736,note_off,,,,,708,0,13,,,,,5,,,58,100
68764,note_off,,,,,28,0,13,,,,,5,,,62,100
68796,note_off,,,,,32,0,13,,,,,5,,,67,100
68796,end_of_track,,,,,0,1,13,,,,,,,,,
69004,note_off,,,,,1036,0,9,,,,,1,,,70,100
69004,note_off,,,,,1036,0,12,,,,,4,,,31,100
69004,end_of_track,,,,,0,1,9,,,,,,,,,
69004,note_off,,,,,1036,0,8,,,,,0,,,79,100
69004,end_of_track,,,,,0,1,11,,,,,,,,,
69004,note_off,,,,,1036,0,11,,,,,3,,,43,100
69004,end_of_track,,,,,0,1,10,,,,,,,,,
69004,note_off,,,,,1036,0,10,,,,,2,,,62,100
69004,note_off,,,,,1036,0,14,,,,,5,,,43,100
69004,end_of_track,,,,,0,1,12,,,,,,,,,
69004,end_of_track,,,,,0,1,14,,,,,,,,,
69888,program_change,,,,,884,0,8,,,,,0,48,,,
69888,end_of_track,,,,,0,1,8,,,,,,,,,
