tick,type,time,meta,track,numerator,denominator,clocks_per_click,notated_32nd_notes_per_beat,key,tempo,program,channel,control,value,note,velocity
0,track_name,0,1,0,,,,,,,,,,,,
0,program_change,0,0,5,,,,,,,48,4,,,,
0,track_name,0,1,5,,,,,,,,,,,,
0,end_of_track,0,1,14,,,,,,,,,,,,
0,control_change,0,0,4,,,,,,,,3,91,100,,
0,control_change,0,0,4,,,,,,,,3,10,45,,
0,control_change,0,0,4,,,,,,,,3,7,127,,
0,program_change,0,0,4,,,,,,,48,3,,,,
0,track_name,0,1,4,,,,,,,,,,,,
0,control_change,0,0,5,,,,,,,,4,7,127,,
0,note_on,0,0,3,,,,,,,,2,,,65,85
0,control_change,0,0,3,,,,,,,,2,10,109,,
0,control_change,0,0,3,,,,,,,,2,7,127,,
0,program_change,0,0,3,,,,,,,48,2,,,,
0,track_name,0,1,3,,,,,,,,,,,,
0,note_on,0,0,2,,,,,,,,1,,,65,85
0,control_change,0,0,2,,,,,,,,1,91,80,,
0,control_change,0,0,2,,,,,,,,1,10,18,,
0,control_change,0,0,2,,,,,,,,1,7,127,,
0,control_change,0,0,3,,,,,,,,2,91,80,,
0,control_change,0,0,5,,,,,,,,4,10,82,,
0,control_change,0,0,5,,,,,,,,4,91,100,,
0,track_name,0,1,6,,,,,,,,,,,,
0,track_name,0,1,14,,,,,,,,,,,,
0,end_of_track,0,1,13,,,,,,,,,,,,
0,track_name,0,1,13,,,,,,,,,,,,
0,end_of_track,0,1,12,,,,,,,,,,,,
0,track_name,0,1,12,,,,,,,,,,,,
0,end_of_track,0,1,11,,,,,,,,,,,,
0,track_name,0,1,11,,,,,,,,,,,,
0,end_of_track,0,1,10,,,,,,,,,,,,
0,track_name,0,1,10,,,,,,,,,,,,
0,end_of_track,0,1,9,,,,,,,,,,,,
0,track_name,0,1,9,,,,,,,,,,,,
0,end_of_track,0,1,8,,,,,,,,,,,,
0,track_name,0,1,8,,,,,,,,,,,,
0,end_of_track,0,1,7,,,,,,,,,,,,
0,track_name,0,1,7,,,,,,,,,,,,
0,control_change,0,0,6,,,,,,,,5,91,127,,
0,control_change,0,0,6,,,,,,,,5,10,63,,
0,control_change,0,0,6,,,,,,,,5,7,100,,
0,program_change,0,0,6,,,,,,,6,5,,,,
0,program_change,0,0,2,,,,,,,48,1,,,,
0,track_name,0,1,2,,,,,,,,,,,,
0,end_of_track,0,1,15,,,,,,,,,,,,
0,control_change,0,0,1,,,,,,,,0,7,127,,
0,set_tempo,0,1,0,,,,,,545455,,,,,,
0,marker,0,1,0,,,,,,,,,,,,
0,track_name,0,1,1,,,,,,,,,,,,
0,program_change,0,0,1,,,,,,,73,0,,,,
0,key_signature,0,1,0,,,,,F,,,,,,,
0,control_change,0,0,1,,,,,,,,0,10,64,,
0,control_change,0,0,1,,,,,,,,0,91,127,,
0,note_on,0,0,1,,,,,,,,0,,,65,85
0,time_signature,0,1,0,4,4,24,8,,,,,,,,
115,note_on,115,0,2,,,,,,,,1,,,65,0
115,note_on,115,0,1,,,,,,,,0,,,65,0
115,note_on,115,0,3,,,,,,,,2,,,65,0
120,note_on,5,0,2,,,,,,,,1,,,67,85
120,note_on,5,0,1,,,,,,,,0,,,67,85
120,note_on,5,0,3,,,,,,,,2,,,67,85
235,note_on,115,0,3,,,,,,,,2,,,67,0
235,note_on,115,0,1,,,,,,,,0,,,67,0
235,note_on,115,0,2,,,,,,,,1,,,67,0
240,note_on,5,0,1,,,,,,,,0,,,69,85
240,note_on,5,0,2,,,,,,,,1,,,69,85
240,note_on,5,0,3,,,,,,,,2,,,69,85
355,note_on,115,0,2,,,,,,,,1,,,69,0
355,note_on,115,0,3,,,,,,,,2,,,69,0
355,note_on,115,0,1,,,,,,,,0,,,69,0
360,note_on,5,0,2,,,,,,,,1,,,70,85
360,note_on,5,0,3,,,,,,,,2,,,70,85
360,note_on,5,0,1,,,,,,,,0,,,70,85
475,note_on,115,0,1,,,,,,,,0,,,70,0
475,note_on,115,0,2,,,,,,,,1,,,70,0
475,note_on,115,0,3,,,,,,,,2,,,70,0
480,note_on,5,0,3,,,,,,,,2,,,72,85
480,note_on,5,0,2,,,,,,,,1,,,72,85
480,note_on,5,0,1,,,,,,,,0,,,72,85
595,note_on,115,0,3,,,,,,,,2,,,72,0
595,note_on,115,0,1,,,,,,,,0,,,72,0
595,note_on,115,0,2,,,,,,,,1,,,72,0
600,note_on,5,0,1,,,,,,,,0,,,74,85
600,note_on,5,0,3,,,,,,,,2,,,74,85
600,note_on,5,0,2,,,,,,,,1,,,74,85
715,note_on,115,0,3,,,,,,,,2,,,74,0
715,note_on,115,0,1,,,,,,,,0,,,74,0
715,note_on,115,0,2,,,,,,,,1,,,74,0
720,note_on,5,0,1,,,,,,,,0,,,76,85
720,note_on,5,0,2,,,,,,,,1,,,76,85
720,note_on,5,0,3,,,,,,,,2,,,76,85
835,note_on,115,0,2,,,,,,,,1,,,76,0
835,note_on,115,0,1,,,,,,,,0,,,76,0
835,note_on,115,0,3,,,,,,,,2,,,76,0
840,note_on,5,0,2,,,,,,,,1,,,77,85
840,note_on,5,0,1,,,,,,,,0,,,77,85
840,note_on,5,0,3,,,,,,,,2,,,77,85
955,note_on,115,0,1,,,,,,,,0,,,77,0
955,note_on,115,0,3,,,,,,,,2,,,77,0
955,note_on,115,0,2,,,,,,,,1,,,77,0
960,note_on,5,0,3,,,,,,,,2,,,65,85
960,note_on,960,0,5,,,,,,,,4,,,53,85
960,note_on,960,0,6,,,,,,,,5,,,53,85
960,note_on,960,0,4,,,,,,,,3,,,53,85
960,note_on,5,0,2,,,,,,,,1,,,65,85
960,note_on,5,0,1,,,,,,,,0,,,65,85
1075,note_on,115,0,4,,,,,,,,3,,,53,0
1075,note_on,115,0,6,,,,,,,,5,,,53,0
1075,note_on,115,0,5,,,,,,,,4,,,53,0
1080,note_on,5,0,4,,,,,,,,3,,,55,85
1080,note_on,5,0,6,,,,,,,,5,,,55,85
1080,note_on,5,0,5,,,,,,,,4,,,55,85
1185,note_on,225,0,3,,,,,,,,2,,,65,0
1185,note_on,225,0,1,,,,,,,,0,,,65,0
1185,note_on,225,0,2,,,,,,,,1,,,65,0
1195,note_on,115,0,5,,,,,,,,4,,,55,0
1195,note_on,115,0,4,,,,,,,,3,,,55,0
1195,note_on,115,0,6,,,,,,,,5,,,55,0
1200,note_on,15,0,3,,,,,,,,2,,,65,85
1200,note_on,5,0,5,,,,,,,,4,,,57,85
1200,note_on,5,0,4,,,,,,,,3,,,57,85
1200,note_on,5,0,6,,,,,,,,5,,,57,85
1200,note_on,15,0,1,,,,,,,,0,,,65,85
1200,note_on,15,0,2,,,,,,,,1,,,65,85
1315,note_on,115,0,5,,,,,,,,4,,,57,0
1315,note_on,115,0,4,,,,,,,,3,,,57,0
1315,note_on,115,0,6,,,,,,,,5,,,57,0
1320,note_on,5,0,5,,,,,,,,4,,,58,85
1320,note_on,5,0,4,,,,,,,,3,,,58,85
1320,note_on,5,0,6,,,,,,,,5,,,58,85
1425,note_on,225,0,1,,,,,,,,0,,,65,0
1425,note_on,225,0,3,,,,,,,,2,,,65,0
1425,note_on,225,0,2,,,,,,,,1,,,65,0
1435,note_on,115,0,4,,,,,,,,3,,,58,0
1435,note_on,115,0,6,,,,,,,,5,,,58,0
1435,note_on,115,0,5,,,,,,,,4,,,58,0
1440,note_on,5,0,5,,,,,,,,4,,,60,85
1440,note_on,15,0,2,,,,,,,,1,,,65,85
1440,note_on,5,0,4,,,,,,,,3,,,60,85
1440,note_on,15,0,1,,,,,,,,0,,,65,85
1440,note_on,15,0,3,,,,,,,,2,,,65,85
1440,note_on,5,0,6,,,,,,,,5,,,60,85
1555,note_on,115,0,6,,,,,,,,5,,,60,0
1555,note_on,115,0,4,,,,,,,,3,,,60,0
1555,note_on,115,0,5,,,,,,,,4,,,60,0
1560,note_on,5,0,4,,,,,,,,3,,,62,85
1560,note_on,5,0,6,,,,,,,,5,,,62,85
1560,note_on,5,0,5,,,,,,,,4,,,62,85
1665,note_on,225,0,1,,,,,,,,0,,,65,0
1665,note_on,225,0,2,,,,,,,,1,,,65,0
1665,note_on,225,0,3,,,,,,,,2,,,65,0
1675,note_on,115,0,6,,,,,,,,5,,,62,0
1675,note_on,115,0,4,,,,,,,,3,,,62,0
1675,note_on,115,0,5,,,,,,,,4,,,62,0
1680,note_on,5,0,4,,,,,,,,3,,,64,85
1680,note_on,15,0,3,,,,,,,,2,,,65,85
1680,note_on,15,0,2,,,,,,,,1,,,65,85
1680,note_on,5,0,5,,,,,,,,4,,,64,85
1680,note_on,5,0,6,,,,,,,,5,,,64,85
1680,note_on,15,0,1,,,,,,,,0,,,65,85
1795,note_on,115,0,4,,,,,,,,3,,,64,0
1795,note_on,115,0,5,,,,,,,,4,,,64,0
1795,note_on,115,0,6,,,,,,,,5,,,64,0
1800,note_on,5,0,5,,,,,,,,4,,,65,85
1800,note_on,5,0,6,,,,,,,,5,,,65,85
1800,note_on,5,0,4,,,,,,,,3,,,65,85
1905,note_on,225,0,3,,,,,,,,2,,,65,0
1905,note_on,225,0,2,,,,,,,,1,,,65,0
1905,note_on,225,0,1,,,,,,,,0,,,65,0
1915,note_on,115,0,6,,,,,,,,5,,,65,0
1915,note_on,115,0,5,,,,,,,,4,,,65,0
1915,note_on,115,0,4,,,,,,,,3,,,65,0
1920,note_on,5,0,4,,,,,,,,3,,,53,85
1920,note_on,15,0,3,,,,,,,,2,,,65,85
1920,note_on,15,0,2,,,,,,,,1,,,65,85
1920,note_on,5,0,5,,,,,,,,4,,,53,85
1920,note_on,5,0,6,,,,,,,,5,,,53,85
1920,note_on,15,0,1,,,,,,,,0,,,65,85
2035,note_on,115,0,3,,,,,,,,2,,,65,0
2035,note_on,115,0,1,,,,,,,,0,,,65,0
2035,note_on,115,0,2,,,,,,,,1,,,65,0
2040,note_on,5,0,3,,,,,,,,2,,,67,85
2040,note_on,5,0,1,,,,,,,,0,,,67,85
2040,note_on,5,0,2,,,,,,,,1,,,67,85
2145,note_on,225,0,5,,,,,,,,4,,,53,0
2145,note_on,225,0,6,,,,,,,,5,,,53,0
2145,note_on,225,0,4,,,,,,,,3,,,53,0
2155,note_on,115,0,2,,,,,,,,1,,,67,0
2155,note_on,115,0,1,,,,,,,,0,,,67,0
2155,note_on,115,0,3,,,,,,,,2,,,67,0
2160,note_on,15,0,5,,,,,,,,4,,,53,85
2160,note_on,5,0,2,,,,,,,,1,,,69,85
2160,note_on,5,0,1,,,,,,,,0,,,69,85
2160,note_on,15,0,4,,,,,,,,3,,,53,85
2160,note_on,5,0,3,,,,,,,,2,,,69,85
2160,note_on,15,0,6,,,,,,,,5,,,53,85
2275,note_on,115,0,1,,,,,,,,0,,,69,0
2275,note_on,115,0,2,,,,,,,,1,,,69,0
2275,note_on,115,0,3,,,,,,,,2,,,69,0
2280,note_on,5,0,3,,,,,,,,2,,,70,85
2280,note_on,5,0,1,,,,,,,,0,,,70,85
2280,note_on,5,0,2,,,,,,,,1,,,70,85
2385,note_on,225,0,6,,,,,,,,5,,,53,0
2385,note_on,225,0,4,,,,,,,,3,,,53,0
2385,note_on,225,0,5,,,,,,,,4,,,53,0
2395,note_on,115,0,2,,,,,,,,1,,,70,0
2395,note_on,115,0,1,,,,,,,,0,,,70,0
2395,note_on,115,0,3,,,,,,,,2,,,70,0
2400,note_on,15,0,5,,,,,,,,4,,,53,85
2400,note_on,15,0,4,,,,,,,,3,,,53,85
2400,note_on,5,0,1,,,,,,,,0,,,72,85
2400,note_on,5,0,3,,,,,,,,2,,,72,85
2400,note_on,5,0,2,,,,,,,,1,,,72,85
2400,note_on,15,0,6,,,,,,,,5,,,53,85
2515,note_on,115,0,2,,,,,,,,1,,,72,0
2515,note_on,115,0,1,,,,,,,,0,,,72,0
2515,note_on,115,0,3,,,,,,,,2,,,72,0
2520,note_on,5,0,2,,,,,,,,1,,,74,85
2520,note_on,5,0,1,,,,,,,,0,,,74,85
2520,note_on,5,0,3,,,,,,,,2,,,74,85
2625,note_on,225,0,6,,,,,,,,5,,,53,0
2625,note_on,225,0,4,,,,,,,,3,,,53,0
2625,note_on,225,0,5,,,,,,,,4,,,53,0
2635,note_on,115,0,1,,,,,,,,0,,,74,0
2635,note_on,115,0,3,,,,,,,,2,,,74,0
2635,note_on,115,0,2,,,,,,,,1,,,74,0
2640,note_on,15,0,5,,,,,,,,4,,,53,85
2640,note_on,5,0,1,,,,,,,,0,,,76,85
2640,note_on,15,0,6,,,,,,,,5,,,53,85
2640,note_on,15,0,4,,,,,,,,3,,,53,85
2640,note_on,5,0,3,,,,,,,,2,,,76,85
2640,note_on,5,0,2,,,,,,,,1,,,76,85
2755,note_on,115,0,1,,,,,,,,0,,,76,0
2755,note_on,115,0,2,,,,,,,,1,,,76,0
2755,note_on,115,0,3,,,,,,,,2,,,76,0
2760,note_on,5,0,3,,,,,,,,2,,,77,85
2760,note_on,5,0,2,,,,,,,,1,,,77,85
2760,note_on,5,0,1,,,,,,,,0,,,77,85
2865,note_on,225,0,6,,,,,,,,5,,,53,0
2865,note_on,225,0,4,,,,,,,,3,,,53,0
2865,note_on,225,0,5,,,,,,,,4,,,53,0
2875,note_on,115,0,1,,,,,,,,0,,,77,0
2875,note_on,115,0,3,,,,,,,,2,,,77,0
2875,note_on,115,0,2,,,,,,,,1,,,77,0
2880,note_on,15,0,6,,,,,,,,5,,,53,85
2880,note_on,5,0,1,,,,,,,,0,,,65,85
2880,note_on,5,0,3,,,,,,,,2,,,65,85
2880,note_on,15,0,4,,,,,,,,3,,,53,85
2880,note_on,5,0,2,,,,,,,,1,,,65,85
2880,note_on,15,0,5,,,,,,,,4,,,53,85
2995,note_on,115,0,4,,,,,,,,3,,,53,0
2995,note_on,115,0,5,,,,,,,,4,,,53,0
2995,note_on,115,0,6,,,,,,,,5,,,53,0
3000,note_on,5,0,5,,,,,,,,4,,,55,85
3000,note_on,5,0,6,,,,,,,,5,,,55,85
3000,note_on,5,0,4,,,,,,,,3,,,55,85
3105,note_on,225,0,1,,,,,,,,0,,,65,0
3105,note_on,225,0,3,,,,,,,,2,,,65,0
3105,note_on,225,0,2,,,,,,,,1,,,65,0
3115,note_on,115,0,6,,,,,,,,5,,,55,0
3115,note_on,115,0,5,,,,,,,,4,,,55,0
3115,note_on,115,0,4,,,,,,,,3,,,55,0
3120,note_on,15,0,3,,,,,,,,2,,,65,85
3120,note_on,15,0,2,,,,,,,,1,,,65,85
3120,note_on,5,0,4,,,,,,,,3,,,57,85
3120,note_on,5,0,6,,,,,,,,5,,,57,85
3120,note_on,5,0,5,,,,,,,,4,,,57,85
3120,note_on,15,0,1,,,,,,,,0,,,65,85
3235,note_on,115,0,6,,,,,,,,5,,,57,0
3235,note_on,115,0,5,,,,,,,,4,,,57,0
3235,note_on,115,0,4,,,,,,,,3,,,57,0
3240,note_on,5,0,6,,,,,,,,5,,,58,85
3240,note_on,5,0,5,,,,,,,,4,,,58,85
3240,note_on,5,0,4,,,,,,,,3,,,58,85
3345,note_on,225,0,2,,,,,,,,1,,,65,0
3345,note_on,225,0,1,,,,,,,,0,,,65,0
3345,note_on,225,0,3,,,,,,,,2,,,65,0
3355,note_on,115,0,5,,,,,,,,4,,,58,0
3355,note_on,115,0,6,,,,,,,,5,,,58,0
3355,note_on,115,0,4,,,,,,,,3,,,58,0
3360,note_on,5,0,4,,,,,,,,3,,,60,85
3360,note_on,15,0,2,,,,,,,,1,,,65,85
3360,note_on,5,0,6,,,,,,,,5,,,60,85
3360,note_on,15,0,1,,,,,,,,0,,,65,85
3360,note_on,15,0,3,,,,,,,,2,,,65,85
3360,note_on,5,0,5,,,,,,,,4,,,60,85
3475,note_on,115,0,4,,,,,,,,3,,,60,0
3475,note_on,115,0,5,,,,,,,,4,,,60,0
3475,note_on,115,0,6,,,,,,,,5,,,60,0
3480,note_on,5,0,4,,,,,,,,3,,,62,85
3480,note_on,5,0,6,,,,,,,,5,,,62,85
3480,note_on,5,0,5,,,,,,,,4,,,62,85
3585,note_on,225,0,1,,,,,,,,0,,,65,0
3585,note_on,225,0,2,,,,,,,,1,,,65,0
3585,note_on,225,0,3,,,,,,,,2,,,65,0
3595,note_on,115,0,5,,,,,,,,4,,,62,0
3595,note_on,115,0,4,,,,,,,,3,,,62,0
3595,note_on,115,0,6,,,,,,,,5,,,62,0
3600,note_on,5,0,4,,,,,,,,3,,,64,85
3600,note_on,5,0,5,,,,,,,,4,,,64,85
3600,note_on,15,0,3,,,,,,,,2,,,65,85
3600,note_on,15,0,2,,,,,,,,1,,,65,85
3600,note_on,15,0,1,,,,,,,,0,,,65,85
3600,note_on,5,0,6,,,,,,,,5,,,64,85
3715,note_on,115,0,5,,,,,,,,4,,,64,0
3715,note_on,115,0,6,,,,,,,,5,,,64,0
3715,note_on,115,0,4,,,,,,,,3,,,64,0
3720,note_on,5,0,5,,,,,,,,4,,,65,85
3720,note_on,5,0,6,,,,,,,,5,,,65,85
3720,note_on,5,0,4,,,,,,,,3,,,65,85
3825,note_on,225,0,1,,,,,,,,0,,,65,0
3825,note_on,225,0,3,,,,,,,,2,,,65,0
3825,note_on,225,0,2,,,,,,,,1,,,65,0
3835,note_on,115,0,5,,,,,,,,4,,,65,0
3835,note_on,115,0,6,,,,,,,,5,,,65,0
3835,note_on,115,0,4,,,,,,,,3,,,65,0
3840,note_on,5,0,5,,,,,,,,4,,,48,85
3840,note_on,15,0,3,,,,,,,,2,,,60,85
3840,note_on,15,0,2,,,,,,,,1,,,60,85
3840,note_on,15,0,1,,,,,,,,0,,,72,85
3840,note_on,0,0,6,,,,,,,,5,,,48,85
3840,note_on,5,0,6,,,,,,,,5,,,60,64
3840,note_on,5,0,4,,,,,,,,3,,,60,85
3955,note_on,115,0,1,,,,,,,,0,,,72,0
3955,note_on,115,0,3,,,,,,,,2,,,60,0
3955,note_on,115,0,2,,,,,,,,1,,,60,0
3960,note_on,5,0,1,,,,,,,,0,,,74,85
3960,note_on,5,0,2,,,,,,,,1,,,62,85
3960,note_on,5,0,3,,,,,,,,2,,,62,85
4065,note_on,0,0,6,,,,,,,,5,,,60,0
4065,note_on,225,0,6,,,,,,,,5,,,48,0
4065,note_on,225,0,4,,,,,,,,3,,,60,0
4065,note_on,225,0,5,,,,,,,,4,,,48,0
4075,note_on,115,0,1,,,,,,,,0,,,74,0
4075,note_on,115,0,3,,,,,,,,2,,,62,0
4075,note_on,115,0,2,,,,,,,,1,,,62,0
4080,note_on,5,0,3,,,,,,,,2,,,64,85
4080,note_on,15,0,4,,,,,,,,3,,,60,85
4080,note_on,5,0,1,,,,,,,,0,,,76,85
4080,note_on,15,0,5,,,,,,,,4,,,48,85
4080,note_on,0,0,6,,,,,,,,5,,,48,85
4080,note_on,15,0,6,,,,,,,,5,,,60,64
4080,note_on,5,0,2,,,,,,,,1,,,64,85
4195,note_on,115,0,2,,,,,,,,1,,,64,0
4195,note_on,115,0,3,,,,,,,,2,,,64,0
4195,note_on,115,0,1,,,,,,,,0,,,76,0
4200,note_on,5,0,2,,,,,,,,1,,,65,85
4200,note_on,5,0,3,,,,,,,,2,,,65,85
4200,note_on,5,0,1,,,,,,,,0,,,77,85
4305,note_on,225,0,4,,,,,,,,3,,,60,0
4305,note_on,0,0,6,,,,,,,,5,,,60,0
4305,note_on,225,0,6,,,,,,,,5,,,48,0
4305,note_on,225,0,5,,,,,,,,4,,,48,0
4315,note_on,115,0,2,,,,,,,,1,,,65,0
4315,note_on,115,0,1,,,,,,,,0,,,77,0
4315,note_on,115,0,3,,,,,,,,2,,,65,0
4320,note_on,5,0,1,,,,,,,,0,,,79,85
4320,note_on,5,0,3,,,,,,,,2,,,67,85
4320,note_on,0,0,6,,,,,,,,5,,,48,85
4320,note_on,5,0,2,,,,,,,,1,,,67,85
4320,note_on,15,0,5,,,,,,,,4,,,48,85
4320,note_on,15,0,6,,,,,,,,5,,,60,64
4320,note_on,15,0,4,,,,,,,,3,,,60,85
4435,note_on,115,0,1,,,,,,,,0,,,79,0
4435,note_on,115,0,2,,,,,,,,1,,,67,0
4435,note_on,115,0,3,,,,,,,,2,,,67,0
4440,note_on,5,0,3,,,,,,,,2,,,69,85
4440,note_on,5,0,2,,,,,,,,1,,,69,85
4440,note_on,5,0,1,,,,,,,,0,,,81,85
4545,note_on,0,0,6,,,,,,,,5,,,60,0
4545,note_on,225,0,5,,,,,,,,4,,,48,0
4545,note_on,225,0,6,,,,,,,,5,,,48,0
4545,note_on,225,0,4,,,,,,,,3,,,60,0
4555,note_on,115,0,3,,,,,,,,2,,,69,0
4555,note_on,115,0,1,,,,,,,,0,,,81,0
4555,note_on,115,0,2,,,,,,,,1,,,69,0
4560,note_on,15,0,5,,,,,,,,4,,,48,85
4560,note_on,15,0,4,,,,,,,,3,,,60,85
4560,note_on,5,0,1,,,,,,,,0,,,82,85
4560,note_on,5,0,3,,,,,,,,2,,,70,85
4560,note_on,5,0,2,,,,,,,,1,,,70,85
4560,note_on,15,0,6,,,,,,,,5,,,60,64
4560,note_on,0,0,6,,,,,,,,5,,,48,85
4675,note_on,115,0,2,,,,,,,,1,,,70,0
4675,note_on,115,0,1,,,,,,,,0,,,82,0
4675,note_on,115,0,3,,,,,,,,2,,,70,0
4680,note_on,5,0,3,,,,,,,,2,,,72,85
4680,note_on,5,0,1,,,,,,,,0,,,84,85
4680,note_on,5,0,2,,,,,,,,1,,,72,85
4785,note_on,225,0,4,,,,,,,,3,,,60,0
4785,note_on,0,0,6,,,,,,,,5,,,60,0
4785,note_on,225,0,6,,,,,,,,5,,,48,0
4785,note_on,225,0,5,,,,,,,,4,,,48,0
4795,note_on,115,0,3,,,,,,,,2,,,72,0
4795,note_on,115,0,1,,,,,,,,0,,,84,0
4795,note_on,115,0,2,,,,,,,,1,,,72,0
4800,note_on,5,0,2,,,,,,,,1,,,60,85
4800,note_on,15,0,4,,,,,,,,3,,,60,85
4800,note_on,5,0,3,,,,,,,,2,,,60,85
4800,note_on,5,0,1,,,,,,,,0,,,72,85
4800,note_on,0,0,6,,,,,,,,5,,,48,85
4800,note_on,15,0,5,,,,,,,,4,,,48,85
4800,note_on,15,0,6,,,,,,,,5,,,60,64
4915,note_on,115,0,5,,,,,,,,4,,,48,0
4915,note_on,115,0,4,,,,,,,,3,,,60,0
4915,note_on,0,0,6,,,,,,,,5,,,60,0
4915,note_on,115,0,6,,,,,,,,5,,,48,0
4920,note_on,0,0,6,,,,,,,,5,,,50,85
4920,note_on,5,0,5,,,,,,,,4,,,50,85
4920,note_on,5,0,6,,,,,,,,5,,,62,64
4920,note_on,5,0,4,,,,,,,,3,,,62,85
5025,note_on,225,0,3,,,,,,,,2,,,60,0
5025,note_on,225,0,2,,,,,,,,1,,,60,0
5025,note_on,225,0,1,,,,,,,,0,,,72,0
5035,note_on,0,0,6,,,,,,,,5,,,62,0
5035,note_on,115,0,6,,,,,,,,5,,,50,0
5035,note_on,115,0,5,,,,,,,,4,,,50,0
5035,note_on,115,0,4,,,,,,,,3,,,62,0
5040,note_on,15,0,1,,,,,,,,0,,,72,85
5040,note_on,15,0,3,,,,,,,,2,,,60,85
5040,note_on,5,0,4,,,,,,,,3,,,64,85
5040,note_on,15,0,2,,,,,,,,1,,,60,85
5040,note_on,0,0,6,,,,,,,,5,,,52,85
5040,note_on,5,0,6,,,,,,,,5,,,64,64
5040,note_on,5,0,5,,,,,,,,4,,,52,85
5155,note_on,115,0,5,,,,,,,,4,,,52,0
5155,note_on,115,0,4,,,,,,,,3,,,64,0
5155,note_on,0,0,6,,,,,,,,5,,,64,0
5155,note_on,115,0,6,,,,,,,,5,,,52,0
5160,note_on,5,0,6,,,,,,,,5,,,65,64
5160,note_on,5,0,5,,,,,,,,4,,,53,85
5160,note_on,5,0,4,,,,,,,,3,,,65,85
5160,note_on,0,0,6,,,,,,,,5,,,53,85
5265,note_on,225,0,3,,,,,,,,2,,,60,0
5265,note_on,225,0,1,,,,,,,,0,,,72,0
5265,note_on,225,0,2,,,,,,,,1,,,60,0
5275,note_on,0,0,6,,,,,,,,5,,,65,0
5275,note_on,115,0,6,,,,,,,,5,,,53,0
5275,note_on,115,0,5,,,,,,,,4,,,53,0
5275,note_on,115,0,4,,,,,,,,3,,,65,0
5280,note_on,5,0,4,,,,,,,,3,,,67,85
5280,note_on,5,0,6,,,,,,,,5,,,67,64
5280,note_on,15,0,2,,,,,,,,1,,,60,85
5280,note_on,15,0,3,,,,,,,,2,,,60,85
5280,note_on,5,0,5,,,,,,,,4,,,55,85
5280,note_on,0,0,6,,,,,,,,5,,,55,85
5280,note_on,15,0,1,,,,,,,,0,,,72,85
5395,note_on,115,0,6,,,,,,,,5,,,55,0
5395,note_on,115,0,5,,,,,,,,4,,,55,0
5395,note_on,115,0,4,,,,,,,,3,,,67,0
5395,note_on,0,0,6,,,,,,,,5,,,67,0
5400,note_on,5,0,5,,,,,,,,4,,,57,85
5400,note_on,0,0,6,,,,,,,,5,,,57,85
5400,note_on,5,0,6,,,,,,,,5,,,69,64
5400,note_on,5,0,4,,,,,,,,3,,,69,85
5505,note_on,225,0,1,,,,,,,,0,,,72,0
5505,note_on,225,0,2,,,,,,,,1,,,60,0
5505,note_on,225,0,3,,,,,,,,2,,,60,0
5515,note_on,115,0,6,,,,,,,,5,,,57,0
5515,note_on,0,0,6,,,,,,,,5,,,69,0
5515,note_on,115,0,5,,,,,,,,4,,,57,0
5515,note_on,115,0,4,,,,,,,,3,,,69,0
5520,note_on,5,0,6,,,,,,,,5,,,70,64
5520,note_on,0,0,6,,,,,,,,5,,,58,85
5520,note_on,15,0,2,,,,,,,,1,,,60,85
5520,note_on,5,0,4,,,,,,,,3,,,70,85
5520,note_on,15,0,1,,,,,,,,0,,,72,85
5520,note_on,5,0,5,,,,,,,,4,,,58,85
5520,note_on,15,0,3,,,,,,,,2,,,60,85
5635,note_on,0,0,6,,,,,,,,5,,,70,0
5635,note_on,115,0,4,,,,,,,,3,,,70,0
5635,note_on,115,0,5,,,,,,,,4,,,58,0
5635,note_on,115,0,6,,,,,,,,5,,,58,0
5640,note_on,5,0,4,,,,,,,,3,,,72,85
5640,note_on,5,0,5,,,,,,,,4,,,60,85
5640,note_on,5,0,6,,,,,,,,5,,,72,64
5640,note_on,0,0,6,,,,,,,,5,,,60,85
5745,note_on,225,0,3,,,,,,,,2,,,60,0
5745,note_on,225,0,2,,,,,,,,1,,,60,0
5745,note_on,225,0,1,,,,,,,,0,,,72,0
5755,note_on,115,0,6,,,,,,,,5,,,60,0
5755,note_on,0,0,6,,,,,,,,5,,,72,0
5755,note_on,115,0,5,,,,,,,,4,,,60,0
5755,note_on,115,0,4,,,,,,,,3,,,72,0
5760,note_on,5,0,6,,,,,,,,5,,,60,64
5760,note_on,0,0,6,,,,,,,,5,,,48,85
5760,note_on,15,0,3,,,,,,,,2,,,60,85
5760,note_on,5,0,4,,,,,,,,3,,,60,85
5760,note_on,15,0,1,,,,,,,,0,,,72,85
5760,note_on,15,0,2,,,,,,,,1,,,60,85
5760,note_on,5,0,5,,,,,,,,4,,,48,85
5875,note_on,115,0,3,,,,,,,,2,,,60,0
5875,note_on,115,0,2,,,,,,,,1,,,60,0
5875,note_on,115,0,1,,,,,,,,0,,,72,0
5880,note_on,5,0,2,,,,,,,,1,,,62,85
5880,note_on,5,0,1,,,,,,,,0,,,74,85
5880,note_on,5,0,3,,,,,,,,2,,,62,85
5985,note_on,225,0,6,,,,,,,,5,,,48,0
5985,note_on,225,0,5,,,,,,,,4,,,48,0
5985,note_on,225,0,4,,,,,,,,3,,,60,0
5985,note_on,0,0,6,,,,,,,,5,,,60,0
5995,note_on,115,0,3,,,,,,,,2,,,62,0
5995,note_on,115,0,1,,,,,,,,0,,,74,0
5995,note_on,115,0,2,,,,,,,,1,,,62,0
6000,note_on,15,0,4,,,,,,,,3,,,60,85
6000,note_on,15,0,5,,,,,,,,4,,,48,85
6000,note_on,5,0,2,,,,,,,,1,,,64,85
6000,note_on,5,0,3,,,,,,,,2,,,64,85
6000,note_on,15,0,6,,,,,,,,5,,,60,64
6000,note_on,0,0,6,,,,,,,,5,,,48,85
6000,note_on,5,0,1,,,,,,,,0,,,76,85
6115,note_on,115,0,3,,,,,,,,2,,,64,0
6115,note_on,115,0,1,,,,,,,,0,,,76,0
6115,note_on,115,0,2,,,,,,,,1,,,64,0
6120,note_on,5,0,3,,,,,,,,2,,,65,85
6120,note_on,5,0,1,,,,,,,,0,,,77,85
6120,note_on,5,0,2,,,,,,,,1,,,65,85
6225,note_on,225,0,6,,,,,,,,5,,,48,0
6225,note_on,0,0,6,,,,,,,,5,,,60,0
6225,note_on,225,0,4,,,,,,,,3,,,60,0
6225,note_on,225,0,5,,,,,,,,4,,,48,0
6235,note_on,115,0,3,,,,,,,,2,,,65,0
6235,note_on,115,0,2,,,,,,,,1,,,65,0
6235,note_on,115,0,1,,,,,,,,0,,,77,0
6240,note_on,15,0,6,,,,,,,,5,,,60,64
6240,note_on,0,0,6,,,,,,,,5,,,48,85
6240,note_on,5,0,2,,,,,,,,1,,,67,85
6240,note_on,15,0,5,,,,,,,,4,,,48,85
6240,note_on,15,0,4,,,,,,,,3,,,60,85
6240,note_on,5,0,1,,,,,,,,0,,,79,85
6240,note_on,5,0,3,,,,,,,,2,,,67,85
6355,note_on,115,0,1,,,,,,,,0,,,79,0
6355,note_on,115,0,2,,,,,,,,1,,,67,0
6355,note_on,115,0,3,,,,,,,,2,,,67,0
6360,note_on,5,0,1,,,,,,,,0,,,81,85
6360,note_on,5,0,3,,,,,,,,2,,,69,85
6360,note_on,5,0,2,,,,,,,,1,,,69,85
6465,note_on,225,0,5,,,,,,,,4,,,48,0
6465,note_on,0,0,6,,,,,,,,5,,,60,0
6465,note_on,225,0,4,,,,,,,,3,,,60,0
6465,note_on,225,0,6,,,,,,,,5,,,48,0
6475,note_on,115,0,2,,,,,,,,1,,,69,0
6475,note_on,115,0,1,,,,,,,,0,,,81,0
6475,note_on,115,0,3,,,,,,,,2,,,69,0
6480,note_on,5,0,1,,,,,,,,0,,,82,85
6480,note_on,5,0,3,,,,,,,,2,,,70,85
6480,note_on,5,0,2,,,,,,,,1,,,70,85
6480,note_on,0,0,6,,,,,,,,5,,,48,85
6480,note_on,15,0,6,,,,,,,,5,,,60,64
6480,note_on,15,0,4,,,,,,,,3,,,60,85
6480,note_on,15,0,5,,,,,,,,4,,,48,85
6595,note_on,115,0,2,,,,,,,,1,,,70,0
6595,note_on,115,0,1,,,,,,,,0,,,82,0
6595,note_on,115,0,3,,,,,,,,2,,,70,0
6600,note_on,5,0,2,,,,,,,,1,,,72,85
6600,note_on,5,0,1,,,,,,,,0,,,84,85
6600,note_on,5,0,3,,,,,,,,2,,,72,85
6705,note_on,225,0,4,,,,,,,,3,,,60,0
6705,note_on,0,0,6,,,,,,,,5,,,60,0
6705,note_on,225,0,6,,,,,,,,5,,,48,0
6705,note_on,225,0,5,,,,,,,,4,,,48,0
6715,note_on,115,0,2,,,,,,,,1,,,72,0
6715,note_on,115,0,1,,,,,,,,0,,,84,0
6715,note_on,115,0,3,,,,,,,,2,,,72,0
6720,note_on,15,0,5,,,,,,,,4,,,48,85
6720,note_on,15,0,4,,,,,,,,3,,,60,85
6720,note_on,5,0,2,,,,,,,,1,,,60,85
6720,note_on,5,0,3,,,,,,,,2,,,60,85
6720,note_on,0,0,6,,,,,,,,5,,,48,85
6720,note_on,15,0,6,,,,,,,,5,,,60,64
6720,note_on,5,0,1,,,,,,,,0,,,72,85
6835,note_on,115,0,4,,,,,,,,3,,,60,0
6835,note_on,0,0,6,,,,,,,,5,,,60,0
6835,note_on,115,0,6,,,,,,,,5,,,48,0
6835,note_on,115,0,5,,,,,,,,4,,,48,0
6840,note_on,0,0,6,,,,,,,,5,,,50,85
6840,note_on,5,0,6,,,,,,,,5,,,62,64
6840,note_on,5,0,4,,,,,,,,3,,,62,85
6840,note_on,5,0,5,,,,,,,,4,,,50,85
6945,note_on,225,0,1,,,,,,,,0,,,72,0
6945,note_on,225,0,2,,,,,,,,1,,,60,0
6945,note_on,225,0,3,,,,,,,,2,,,60,0
6955,note_on,115,0,6,,,,,,,,5,,,50,0
6955,note_on,115,0,5,,,,,,,,4,,,50,0
6955,note_on,0,0,6,,,,,,,,5,,,62,0
6955,note_on,115,0,4,,,,,,,,3,,,62,0
6960,note_on,5,0,5,,,,,,,,4,,,52,85
6960,note_on,15,0,3,,,,,,,,2,,,60,85
6960,note_on,15,0,2,,,,,,,,1,,,60,85
6960,note_on,5,0,4,,,,,,,,3,,,64,85
6960,note_on,5,0,6,,,,,,,,5,,,64,64
6960,note_on,0,0,6,,,,,,,,5,,,52,85
6960,note_on,15,0,1,,,,,,,,0,,,72,85
7075,note_on,115,0,5,,,,,,,,4,,,52,0
7075,note_on,115,0,6,,,,,,,,5,,,52,0
7075,note_on,0,0,6,,,,,,,,5,,,64,0
7075,note_on,115,0,4,,,,,,,,3,,,64,0
7080,note_on,5,0,4,,,,,,,,3,,,65,85
7080,note_on,5,0,6,,,,,,,,5,,,65,64
7080,note_on,0,0,6,,,,,,,,5,,,53,85
7080,note_on,5,0,5,,,,,,,,4,,,53,85
7185,note_on,225,0,2,,,,,,,,1,,,60,0
7185,note_on,225,0,3,,,,,,,,2,,,60,0
7185,note_on,225,0,1,,,,,,,,0,,,72,0
7195,note_on,115,0,4,,,,,,,,3,,,65,0
7195,note_on,0,0,6,,,,,,,,5,,,65,0
7195,note_on,115,0,6,,,,,,,,5,,,53,0
7195,note_on,115,0,5,,,,,,,,4,,,53,0
7200,note_on,15,0,1,,,,,,,,0,,,72,85
7200,note_on,0,0,6,,,,,,,,5,,,55,85
7200,note_on,5,0,6,,,,,,,,5,,,67,64
7200,note_on,5,0,4,,,,,,,,3,,,67,85
7200,note_on,5,0,5,,,,,,,,4,,,55,85
7200,note_on,15,0,3,,,,,,,,2,,,60,85
7200,note_on,15,0,2,,,,,,,,1,,,60,85
7315,note_on,115,0,4,,,,,,,,3,,,67,0
7315,note_on,115,0,5,,,,,,,,4,,,55,0
7315,note_on,0,0,6,,,,,,,,5,,,67,0
7315,note_on,115,0,6,,,,,,,,5,,,55,0
7320,note_on,5,0,5,,,,,,,,4,,,57,85
7320,note_on,5,0,4,,,,,,,,3,,,69,85
7320,note_on,5,0,6,,,,,,,,5,,,69,64
7320,note_on,0,0,6,,,,,,,,5,,,57,85
7425,note_on,225,0,3,,,,,,,,2,,,60,0
7425,note_on,225,0,2,,,,,,,,1,,,60,0
7425,note_on,225,0,1,,,,,,,,0,,,72,0
7435,note_on,115,0,5,,,,,,,,4,,,57,0
7435,note_on,0,0,6,,,,,,,,5,,,69,0
7435,note_on,115,0,6,,,,,,,,5,,,57,0
7435,note_on,115,0,4,,,,,,,,3,,,69,0
7440,note_on,15,0,2,,,,,,,,1,,,60,85
7440,note_on,15,0,3,,,,,,,,2,,,60,85
7440,note_on,5,0,4,,,,,,,,3,,,70,85
7440,note_on,5,0,5,,,,,,,,4,,,58,85
7440,note_on,15,0,1,,,,,,,,0,,,72,85
7440,note_on,5,0,6,,,,,,,,5,,,70,64
7440,note_on,0,0,6,,,,,,,,5,,,58,85
7555,note_on,0,0,6,,,,,,,,5,,,70,0
7555,note_on,115,0,6,,,,,,,,5,,,58,0
7555,note_on,115,0,5,,,,,,,,4,,,58,0
7555,note_on,115,0,4,,,,,,,,3,,,70,0
7560,note_on,5,0,6,,,,,,,,5,,,72,64
7560,note_on,5,0,5,,,,,,,,4,,,60,85
7560,note_on,5,0,4,,,,,,,,3,,,72,85
7560,note_on,0,0,6,,,,,,,,5,,,60,85
7665,note_on,225,0,1,,,,,,,,0,,,72,0
7665,note_on,225,0,3,,,,,,,,2,,,60,0
7665,note_on,225,0,2,,,,,,,,1,,,60,0
7675,note_on,115,0,5,,,,,,,,4,,,60,0
7675,note_on,0,0,6,,,,,,,,5,,,72,0
7675,note_on,115,0,4,,,,,,,,3,,,72,0
7675,note_on,115,0,6,,,,,,,,5,,,60,0
7680,note_on,15,0,3,,,,,,,,2,,,60,85
7680,note_on,5,0,4,,,,,,,,3,,,65,85
7680,note_on,0,0,6,,,,,,,,5,,,53,85
7680,note_on,5,0,6,,,,,,,,5,,,65,64
7680,note_on,5,0,5,,,,,,,,4,,,53,85
7680,note_on,15,0,1,,,,,,,,0,,,72,85
7680,note_on,15,0,2,,,,,,,,1,,,60,85
7905,note_on,225,0,1,,,,,,,,0,,,72,0
7920,note_on,15,0,1,,,,,,,,0,,,84,85
8035,note_on,115,0,1,,,,,,,,0,,,84,0
8040,note_on,5,0,1,,,,,,,,0,,,82,85
8125,note_on,445,0,5,,,,,,,,4,,,53,0
8125,note_on,445,0,2,,,,,,,,1,,,60,0
8125,note_on,445,0,3,,,,,,,,2,,,60,0
8125,note_on,0,0,6,,,,,,,,5,,,65,0
8125,note_on,445,0,6,,,,,,,,5,,,53,0
8125,note_on,445,0,4,,,,,,,,3,,,65,0
8155,note_on,115,0,1,,,,,,,,0,,,82,0
8160,note_on,5,0,1,,,,,,,,0,,,81,85
8275,note_on,115,0,1,,,,,,,,0,,,81,0
8280,note_on,5,0,1,,,,,,,,0,,,79,85
8395,note_on,115,0,1,,,,,,,,0,,,79,0
8400,note_on,5,0,1,,,,,,,,0,,,77,85
8515,note_on,115,0,1,,,,,,,,0,,,77,0
8520,note_on,5,0,1,,,,,,,,0,,,75,85
8635,note_on,115,0,1,,,,,,,,0,,,75,0
8640,note_on,0,0,6,,,,,,,,5,,,70,64
8640,note_on,515,0,6,,,,,,,,5,,,74,64
8640,note_on,515,0,4,,,,,,,,3,,,65,85
8640,note_on,5,0,1,,,,,,,,0,,,74,85
8640,note_on,515,0,5,,,,,,,,4,,,46,85
8640,note_on,0,0,6,,,,,,,,5,,,65,64
8640,note_on,0,0,6,,,,,,,,5,,,46,85
8755,note_on,115,0,1,,,,,,,,0,,,74,0
8760,note_on,635,0,3,,,,,,,,2,,,70,85
8760,note_on,635,0,2,,,,,,,,1,,,82,85
8760,note_on,5,0,1,,,,,,,,0,,,74,85
8865,note_on,225,0,6,,,,,,,,5,,,46,0
8865,note_on,225,0,5,,,,,,,,4,,,46,0
8865,note_on,225,0,4,,,,,,,,3,,,65,0
8875,note_on,115,0,2,,,,,,,,1,,,82,0
8875,note_on,115,0,1,,,,,,,,0,,,74,0
8875,note_on,115,0,3,,,,,,,,2,,,70,0
8880,note_on,5,0,1,,,,,,,,0,,,74,85
8880,note_on,15,0,5,,,,,,,,4,,,46,85
8880,note_on,15,0,6,,,,,,,,5,,,46,85
8880,note_on,15,0,4,,,,,,,,3,,,65,85
8880,note_on,5,0,3,,,,,,,,2,,,72,85
8880,note_on,5,0,2,,,,,,,,1,,,81,85
8995,note_on,115,0,3,,,,,,,,2,,,72,0
8995,note_on,115,0,2,,,,,,,,1,,,81,0
8995,note_on,115,0,1,,,,,,,,0,,,74,0
9000,note_on,5,0,2,,,,,,,,1,,,79,85
9000,note_on,5,0,1,,,,,,,,0,,,74,85
9000,note_on,5,0,3,,,,,,,,2,,,74,85
9105,note_on,225,0,5,,,,,,,,4,,,46,0
9105,note_on,225,0,4,,,,,,,,3,,,65,0
9105,note_on,225,0,6,,,,,,,,5,,,46,0
9115,note_on,115,0,1,,,,,,,,0,,,74,0
9115,note_on,115,0,3,,,,,,,,2,,,74,0
9115,note_on,115,0,2,,,,,,,,1,,,79,0
9120,note_on,15,0,6,,,,,,,,5,,,46,85
9120,note_on,5,0,1,,,,,,,,0,,,74,85
9120,note_on,15,0,5,,,,,,,,4,,,46,85
9120,note_on,5,0,2,,,,,,,,1,,,77,85
9120,note_on,5,0,3,,,,,,,,2,,,75,85
9120,note_on,15,0,4,,,,,,,,3,,,65,85
9235,note_on,115,0,2,,,,,,,,1,,,77,0
9235,note_on,115,0,1,,,,,,,,0,,,74,0
9235,note_on,115,0,3,,,,,,,,2,,,75,0
9240,note_on,5,0,1,,,,,,,,0,,,74,85
9240,note_on,5,0,2,,,,,,,,1,,,75,85
9240,note_on,5,0,3,,,,,,,,2,,,77,85
9345,note_on,225,0,6,,,,,,,,5,,,46,0
9345,note_on,225,0,5,,,,,,,,4,,,46,0
9345,note_on,225,0,4,,,,,,,,3,,,65,0
9355,note_on,115,0,3,,,,,,,,2,,,77,0
9355,note_on,115,0,1,,,,,,,,0,,,74,0
9355,note_on,115,0,2,,,,,,,,1,,,75,0
9360,note_on,5,0,3,,,,,,,,2,,,79,85
9360,note_on,15,0,5,,,,,,,,4,,,46,85
9360,note_on,15,0,4,,,,,,,,3,,,65,85
9360,note_on,5,0,1,,,,,,,,0,,,74,85
9360,note_on,15,0,6,,,,,,,,5,,,46,85
9360,note_on,5,0,2,,,,,,,,1,,,74,85
9475,note_on,115,0,2,,,,,,,,1,,,74,0
9475,note_on,115,0,1,,,,,,,,0,,,74,0
9475,note_on,115,0,3,,,,,,,,2,,,79,0
9480,note_on,5,0,2,,,,,,,,1,,,72,85
9480,note_on,5,0,3,,,,,,,,2,,,81,85
9480,note_on,5,0,1,,,,,,,,0,,,74,85
9525,note_on,165,0,6,,,,,,,,5,,,74,0
9525,note_on,0,0,6,,,,,,,,5,,,65,0
9525,note_on,0,0,6,,,,,,,,5,,,70,0
9585,note_on,225,0,5,,,,,,,,4,,,46,0
9585,note_on,60,0,6,,,,,,,,5,,,46,0
9585,note_on,225,0,4,,,,,,,,3,,,65,0
9595,note_on,115,0,1,,,,,,,,0,,,74,0
9595,note_on,115,0,3,,,,,,,,2,,,81,0
9595,note_on,115,0,2,,,,,,,,1,,,72,0
9600,note_on,15,0,4,,,,,,,,3,,,67,85
9600,note_on,15,0,6,,,,,,,,5,,,70,64
9600,note_on,0,0,6,,,,,,,,5,,,67,64
9600,note_on,0,0,6,,,,,,,,5,,,62,64
9600,note_on,0,0,6,,,,,,,,5,,,46,85
9600,note_on,5,0,1,,,,,,,,0,,,74,85
9600,note_on,15,0,5,,,,,,,,4,,,46,85
9600,note_on,5,0,2,,,,,,,,1,,,70,85
9600,note_on,5,0,3,,,,,,,,2,,,82,85
9825,note_on,225,0,1,,,,,,,,0,,,74,0
9840,note_on,15,0,1,,,,,,,,0,,,82,85
9955,note_on,115,0,1,,,,,,,,0,,,82,0
9960,note_on,5,0,1,,,,,,,,0,,,81,85
10045,note_on,0,0,6,,,,,,,,5,,,62,0
10045,note_on,445,0,2,,,,,,,,1,,,70,0
10045,note_on,0,0,6,,,,,,,,5,,,67,0
10045,note_on,0,0,6,,,,,,,,5,,,70,0
10045,note_on,445,0,6,,,,,,,,5,,,46,0
10045,note_on,445,0,4,,,,,,,,3,,,67,0
10045,note_on,445,0,3,,,,,,,,2,,,82,0
10045,note_on,445,0,5,,,,,,,,4,,,46,0
10075,note_on,115,0,1,,,,,,,,0,,,81,0
10080,note_on,5,0,1,,,,,,,,0,,,79,85
10195,note_on,115,0,1,,,,,,,,0,,,79,0
10200,note_on,5,0,1,,,,,,,,0,,,77,85
10315,note_on,115,0,1,,,,,,,,0,,,77,0
10320,note_on,5,0,1,,,,,,,,0,,,76,85
10435,note_on,115,0,1,,,,,,,,0,,,76,0
10440,note_on,5,0,1,,,,,,,,0,,,74,85
10555,note_on,115,0,1,,,,,,,,0,,,74,0
10560,note_on,0,0,6,,,,,,,,5,,,45,85
10560,note_on,515,0,6,,,,,,,,5,,,72,64
10560,note_on,0,0,6,,,,,,,,5,,,67,64
10560,note_on,0,0,6,,,,,,,,5,,,64,64
10560,note_on,515,0,4,,,,,,,,3,,,64,85
10560,note_on,5,0,1,,,,,,,,0,,,72,85
10560,note_on,515,0,5,,,,,,,,4,,,45,85
10675,note_on,115,0,1,,,,,,,,0,,,72,0
10680,note_on,5,0,1,,,,,,,,0,,,72,85
10680,note_on,635,0,3,,,,,,,,2,,,69,85
10680,note_on,635,0,2,,,,,,,,1,,,81,85
10785,note_on,225,0,5,,,,,,,,4,,,45,0
10785,note_on,225,0,4,,,,,,,,3,,,64,0
10785,note_on,225,0,6,,,,,,,,5,,,45,0
10795,note_on,115,0,1,,,,,,,,0,,,72,0
10795,note_on,115,0,3,,,,,,,,2,,,69,0
10795,note_on,115,0,2,,,,,,,,1,,,81,0
10800,note_on,5,0,1,,,,,,,,0,,,72,85
10800,note_on,5,0,2,,,,,,,,1,,,79,85
10800,note_on,5,0,3,,,,,,,,2,,,70,85
10800,note_on,15,0,4,,,,,,,,3,,,64,85
10800,note_on,15,0,5,,,,,,,,4,,,45,85
10800,note_on,15,0,6,,,,,,,,5,,,45,85
10915,note_on,115,0,1,,,,,,,,0,,,72,0
10915,note_on,115,0,2,,,,,,,,1,,,79,0
10915,note_on,115,0,3,,,,,,,,2,,,70,0
10920,note_on,5,0,1,,,,,,,,0,,,72,85
10920,note_on,5,0,3,,,,,,,,2,,,72,85
10920,note_on,5,0,2,,,,,,,,1,,,77,85
11025,note_on,225,0,5,,,,,,,,4,,,45,0
11025,note_on,225,0,4,,,,,,,,3,,,64,0
11025,note_on,225,0,6,,,,,,,,5,,,45,0
11035,note_on,115,0,1,,,,,,,,0,,,72,0
11035,note_on,115,0,2,,,,,,,,1,,,77,0
11035,note_on,115,0,3,,,,,,,,2,,,72,0
11040,note_on,5,0,3,,,,,,,,2,,,74,85
11040,note_on,15,0,4,,,,,,,,3,,,64,85
11040,note_on,15,0,6,,,,,,,,5,,,45,85
11040,note_on,5,0,1,,,,,,,,0,,,72,85
11040,note_on,15,0,5,,,,,,,,4,,,45,85
11040,note_on,5,0,2,,,,,,,,1,,,76,85
11155,note_on,115,0,2,,,,,,,,1,,,76,0
11155,note_on,115,0,1,,,,,,,,0,,,72,0
11155,note_on,115,0,3,,,,,,,,2,,,74,0
11160,note_on,5,0,2,,,,,,,,1,,,74,85
11160,note_on,5,0,1,,,,,,,,0,,,72,85
11160,note_on,5,0,3,,,,,,,,2,,,76,85
11265,note_on,225,0,4,,,,,,,,3,,,64,0
11265,note_on,225,0,5,,,,,,,,4,,,45,0
11265,note_on,225,0,6,,,,,,,,5,,,45,0
11275,note_on,115,0,3,,,,,,,,2,,,76,0
11275,note_on,115,0,1,,,,,,,,0,,,72,0
11275,note_on,115,0,2,,,,,,,,1,,,74,0
11280,note_on,5,0,3,,,,,,,,2,,,77,85
11280,note_on,15,0,6,,,,,,,,5,,,45,85
11280,note_on,5,0,1,,,,,,,,0,,,72,85
11280,note_on,15,0,4,,,,,,,,3,,,64,85
11280,note_on,15,0,5,,,,,,,,4,,,45,85
11280,note_on,5,0,2,,,,,,,,1,,,72,85
11395,note_on,115,0,1,,,,,,,,0,,,72,0
11395,note_on,115,0,3,,,,,,,,2,,,77,0
11395,note_on,115,0,2,,,,,,,,1,,,72,0
11400,note_on,5,0,3,,,,,,,,2,,,79,85
11400,note_on,5,0,2,,,,,,,,1,,,70,85
11400,note_on,5,0,1,,,,,,,,0,,,72,85
11445,note_on,0,0,6,,,,,,,,5,,,64,0
11445,note_on,165,0,6,,,,,,,,5,,,72,0
11445,note_on,0,0,6,,,,,,,,5,,,67,0
11505,note_on,225,0,5,,,,,,,,4,,,45,0
11505,note_on,225,0,4,,,,,,,,3,,,64,0
11505,note_on,60,0,6,,,,,,,,5,,,45,0
11515,note_on,115,0,1,,,,,,,,0,,,72,0
11515,note_on,115,0,2,,,,,,,,1,,,70,0
11515,note_on,115,0,3,,,,,,,,2,,,79,0
11520,note_on,15,0,6,,,,,,,,5,,,72,64
11520,note_on,5,0,3,,,,,,,,2,,,81,85
11520,note_on,5,0,1,,,,,,,,0,,,72,85
11520,note_on,15,0,5,,,,,,,,4,,,45,85
11520,note_on,5,0,2,,,,,,,,1,,,69,85
11520,note_on,0,0,6,,,,,,,,5,,,45,85
11520,note_on,0,0,6,,,,,,,,5,,,60,64
11520,note_on,0,0,6,,,,,,,,5,,,65,64
11520,note_on,15,0,4,,,,,,,,3,,,65,85
11745,note_on,225,0,1,,,,,,,,0,,,72,0
11760,note_on,15,0,1,,,,,,,,0,,,81,106
11875,note_on,115,0,1,,,,,,,,0,,,81,0
11880,note_on,5,0,1,,,,,,,,0,,,79,106
11965,note_on,445,0,2,,,,,,,,1,,,69,0
11965,note_on,445,0,3,,,,,,,,2,,,81,0
11965,note_on,445,0,5,,,,,,,,4,,,45,0
11965,note_on,445,0,6,,,,,,,,5,,,45,0
11965,note_on,0,0,6,,,,,,,,5,,,72,0
11965,note_on,445,0,4,,,,,,,,3,,,65,0
11965,note_on,0,0,6,,,,,,,,5,,,65,0
11965,note_on,0,0,6,,,,,,,,5,,,60,0
11995,note_on,115,0,1,,,,,,,,0,,,79,0
12000,note_on,5,0,1,,,,,,,,0,,,77,106
12115,note_on,115,0,1,,,,,,,,0,,,77,0
12120,note_on,5,0,1,,,,,,,,0,,,76,106
12235,note_on,115,0,1,,,,,,,,0,,,76,0
12240,note_on,5,0,1,,,,,,,,0,,,74,106
12355,note_on,115,0,1,,,,,,,,0,,,74,0
12360,note_on,5,0,1,,,,,,,,0,,,72,106
12475,note_on,115,0,1,,,,,,,,0,,,72,0
12480,note_on,0,0,6,,,,,,,,5,,,65,64
12480,note_on,5,0,1,,,,,,,,0,,,70,106
12480,note_on,515,0,6,,,,,,,,5,,,70,64
12480,note_on,515,0,4,,,,,,,,3,,,62,85
12480,note_on,515,0,5,,,,,,,,4,,,43,85
12480,note_on,0,0,6,,,,,,,,5,,,62,64
12480,note_on,0,0,6,,,,,,,,5,,,43,85
12595,note_on,115,0,1,,,,,,,,0,,,70,0
12600,note_on,635,0,3,,,,,,,,2,,,67,85
12600,note_on,5,0,1,,,,,,,,0,,,70,106
12600,note_on,635,0,2,,,,,,,,1,,,79,85
12705,note_on,225,0,5,,,,,,,,4,,,43,0
12705,note_on,225,0,6,,,,,,,,5,,,43,0
12705,note_on,225,0,4,,,,,,,,3,,,62,0
12715,note_on,115,0,1,,,,,,,,0,,,70,0
12715,note_on,115,0,2,,,,,,,,1,,,79,0
12715,note_on,115,0,3,,,,,,,,2,,,67,0
12720,note_on,5,0,2,,,,,,,,1,,,77,85
12720,note_on,15,0,4,,,,,,,,3,,,62,85
12720,note_on,15,0,6,,,,,,,,5,,,43,85
12720,note_on,5,0,3,,,,,,,,2,,,69,85
12720,note_on,15,0,5,,,,,,,,4,,,43,85
12720,note_on,5,0,1,,,,,,,,0,,,70,106
12835,note_on,115,0,1,,,,,,,,0,,,70,0
12835,note_on,115,0,2,,,,,,,,1,,,77,0
12835,note_on,115,0,3,,,,,,,,2,,,69,0
12840,note_on,5,0,3,,,,,,,,2,,,70,85
12840,note_on,5,0,2,,,,,,,,1,,,76,85
12840,note_on,5,0,1,,,,,,,,0,,,70,106
12945,note_on,225,0,4,,,,,,,,3,,,62,0
12945,note_on,225,0,6,,,,,,,,5,,,43,0
12945,note_on,225,0,5,,,,,,,,4,,,43,0
12955,note_on,115,0,1,,,,,,,,0,,,70,0
12955,note_on,115,0,3,,,,,,,,2,,,70,0
12955,note_on,115,0,2,,,,,,,,1,,,76,0
12960,note_on,5,0,2,,,,,,,,1,,,74,85
12960,note_on,5,0,3,,,,,,,,2,,,72,85
12960,note_on,15,0,5,,,,,,,,4,,,43,85
12960,note_on,15,0,4,,,,,,,,3,,,62,85
12960,note_on,15,0,6,,,,,,,,5,,,43,85
12960,note_on,5,0,1,,,,,,,,0,,,70,106
13075,note_on,115,0,3,,,,,,,,2,,,72,0
13075,note_on,115,0,2,,,,,,,,1,,,74,0
13075,note_on,115,0,1,,,,,,,,0,,,70,0
13080,note_on,5,0,2,,,,,,,,1,,,72,85
13080,note_on,5,0,3,,,,,,,,2,,,74,85
13080,note_on,5,0,1,,,,,,,,0,,,70,106
13185,note_on,225,0,4,,,,,,,,3,,,62,0
13185,note_on,225,0,5,,,,,,,,4,,,43,0
13185,note_on,225,0,6,,,,,,,,5,,,43,0
13195,note_on,115,0,1,,,,,,,,0,,,70,0
13195,note_on,115,0,3,,,,,,,,2,,,74,0
13195,note_on,115,0,2,,,,,,,,1,,,72,0
13200,note_on,5,0,2,,,,,,,,1,,,70,85
13200,note_on,5,0,1,,,,,,,,0,,,70,106
13200,note_on,15,0,6,,,,,,,,5,,,43,85
13200,note_on,5,0,3,,,,,,,,2,,,76,85
13200,note_on,15,0,5,,,,,,,,4,,,43,85
13200,note_on,15,0,4,,,,,,,,3,,,62,85
13315,note_on,115,0,3,,,,,,,,2,,,76,0
13315,note_on,115,0,1,,,,,,,,0,,,70,0
13315,note_on,115,0,2,,,,,,,,1,,,70,0
13320,note_on,5,0,1,,,,,,,,0,,,70,106
13320,note_on,5,0,3,,,,,,,,2,,,77,85
13320,note_on,5,0,2,,,,,,,,1,,,69,85
13365,note_on,0,0,6,,,,,,,,5,,,65,0
13365,note_on,165,0,6,,,,,,,,5,,,70,0
13365,note_on,0,0,6,,,,,,,,5,,,62,0
13425,note_on,225,0,4,,,,,,,,3,,,62,0
13425,note_on,60,0,6,,,,,,,,5,,,43,0
13425,note_on,225,0,5,,,,,,,,4,,,43,0
13435,note_on,115,0,1,,,,,,,,0,,,70,0
13435,note_on,115,0,3,,,,,,,,2,,,77,0
13435,note_on,115,0,2,,,,,,,,1,,,69,0
13440,note_on,5,0,3,,,,,,,,2,,,79,85
13440,note_on,0,0,6,,,,,,,,5,,,67,64
13440,note_on,0,0,6,,,,,,,,5,,,64,64
13440,note_on,5,0,1,,,,,,,,0,,,70,106
13440,note_on,5,0,2,,,,,,,,1,,,67,85
13440,note_on,15,0,4,,,,,,,,3,,,64,85
13440,note_on,15,0,6,,,,,,,,5,,,70,64
13440,note_on,0,0,6,,,,,,,,5,,,43,85
13440,note_on,15,0,5,,,,,,,,4,,,43,85
13665,note_on,225,0,1,,,,,,,,0,,,70,0
13680,note_on,15,0,1,,,,,,,,0,,,79,106
13795,note_on,115,0,1,,,,,,,,0,,,79,0
13800,note_on,5,0,1,,,,,,,,0,,,77,106
13885,note_on,445,0,2,,,,,,,,1,,,67,0
13885,note_on,0,0,6,,,,,,,,5,,,67,0
13885,note_on,445,0,3,,,,,,,,2,,,79,0
13885,note_on,445,0,4,,,,,,,,3,,,64,0
13885,note_on,445,0,5,,,,,,,,4,,,43,0
13885,note_on,445,0,6,,,,,,,,5,,,43,0
13885,note_on,0,0,6,,,,,,,,5,,,70,0
13885,note_on,0,0,6,,,,,,,,5,,,64,0
13915,note_on,115,0,1,,,,,,,,0,,,77,0
13920,note_on,5,0,1,,,,,,,,0,,,76,106
14035,note_on,115,0,1,,,,,,,,0,,,76,0
14040,note_on,5,0,1,,,,,,,,0,,,74,106
14155,note_on,115,0,1,,,,,,,,0,,,74,0
14160,note_on,5,0,1,,,,,,,,0,,,72,106
14275,note_on,115,0,1,,,,,,,,0,,,72,0
14280,note_on,5,0,1,,,,,,,,0,,,70,106
14395,note_on,115,0,1,,,,,,,,0,,,70,0
14400,note_on,5,0,1,,,,,,,,0,,,69,106
14400,note_on,515,0,2,,,,,,,,1,,,65,49
14400,note_on,515,0,5,,,,,,,,4,,,53,49
14400,note_on,515,0,4,,,,,,,,3,,,65,49
14400,note_on,515,0,3,,,,,,,,2,,,65,49
14400,note_on,515,0,6,,,,,,,,5,,,69,64
14400,note_on,0,0,6,,,,,,,,5,,,65,64
14400,note_on,0,0,6,,,,,,,,5,,,60,64
14400,note_on,0,0,6,,,,,,,,5,,,53,85
14515,note_on,115,0,2,,,,,,,,1,,,65,0
14515,note_on,115,0,5,,,,,,,,4,,,53,0
14515,note_on,115,0,3,,,,,,,,2,,,65,0
14515,note_on,115,0,6,,,,,,,,5,,,53,0
14515,note_on,115,0,4,,,,,,,,3,,,65,0
14520,note_on,5,0,6,,,,,,,,5,,,53,85
14520,note_on,5,0,3,,,,,,,,2,,,65,49
14520,note_on,5,0,4,,,,,,,,3,,,65,49
14520,note_on,5,0,2,,,,,,,,1,,,65,49
14520,note_on,5,0,5,,,,,,,,4,,,53,49
14635,note_on,115,0,6,,,,,,,,5,,,53,0
14635,note_on,115,0,4,,,,,,,,3,,,65,0
14635,note_on,115,0,2,,,,,,,,1,,,65,0
14635,note_on,115,0,3,,,,,,,,2,,,65,0
14635,note_on,115,0,5,,,,,,,,4,,,53,0
14640,note_on,5,0,4,,,,,,,,3,,,65,49
14640,note_on,5,0,5,,,,,,,,4,,,53,64
14640,note_on,5,0,3,,,,,,,,2,,,65,49
14640,note_on,5,0,2,,,,,,,,1,,,65,64
14640,note_on,5,0,6,,,,,,,,5,,,53,85
14755,note_on,115,0,5,,,,,,,,4,,,53,0
14755,note_on,115,0,3,,,,,,,,2,,,65,0
14755,note_on,115,0,4,,,,,,,,3,,,65,0
14755,note_on,115,0,6,,,,,,,,5,,,53,0
14755,note_on,115,0,2,,,,,,,,1,,,65,0
14760,note_on,5,0,6,,,,,,,,5,,,53,85
14760,note_on,5,0,5,,,,,,,,4,,,53,64
14760,note_on,5,0,2,,,,,,,,1,,,65,64
14760,note_on,5,0,3,,,,,,,,2,,,65,64
14760,note_on,5,0,4,,,,,,,,3,,,65,49
14845,note_on,445,0,1,,,,,,,,0,,,69,0
14875,note_on,115,0,4,,,,,,,,3,,,65,0
14875,note_on,115,0,3,,,,,,,,2,,,65,0
14875,note_on,115,0,6,,,,,,,,5,,,53,0
14875,note_on,115,0,2,,,,,,,,1,,,65,0
14875,note_on,115,0,5,,,,,,,,4,,,53,0
14880,note_on,5,0,2,,,,,,,,1,,,65,64
14880,note_on,5,0,3,,,,,,,,2,,,65,64
14880,note_on,5,0,4,,,,,,,,3,,,65,64
14880,note_on,5,0,5,,,,,,,,4,,,53,64
14880,note_on,5,0,6,,,,,,,,5,,,53,85
14995,note_on,115,0,2,,,,,,,,1,,,65,0
14995,note_on,115,0,4,,,,,,,,3,,,65,0
14995,note_on,115,0,6,,,,,,,,5,,,53,0
14995,note_on,115,0,5,,,,,,,,4,,,53,0
14995,note_on,115,0,3,,,,,,,,2,,,65,0
15000,note_on,5,0,2,,,,,,,,1,,,65,64
15000,note_on,5,0,4,,,,,,,,3,,,65,64
15000,note_on,5,0,3,,,,,,,,2,,,65,85
15000,note_on,5,0,5,,,,,,,,4,,,53,85
15000,note_on,5,0,6,,,,,,,,5,,,53,85
15115,note_on,115,0,3,,,,,,,,2,,,65,0
15115,note_on,115,0,4,,,,,,,,3,,,65,0
15115,note_on,115,0,5,,,,,,,,4,,,53,0
15115,note_on,115,0,6,,,,,,,,5,,,53,0
15115,note_on,115,0,2,,,,,,,,1,,,65,0
15120,note_on,5,0,2,,,,,,,,1,,,65,85
15120,note_on,5,0,3,,,,,,,,2,,,65,85
15120,note_on,5,0,4,,,,,,,,3,,,65,85
15120,note_on,5,0,5,,,,,,,,4,,,53,85
15120,note_on,5,0,6,,,,,,,,5,,,53,85
15235,note_on,115,0,6,,,,,,,,5,,,53,0
15235,note_on,115,0,2,,,,,,,,1,,,65,0
15235,note_on,115,0,5,,,,,,,,4,,,53,0
15235,note_on,115,0,4,,,,,,,,3,,,65,0
15235,note_on,115,0,3,,,,,,,,2,,,65,0
15240,note_on,5,0,2,,,,,,,,1,,,65,85
15240,note_on,5,0,3,,,,,,,,2,,,65,85
15240,note_on,5,0,6,,,,,,,,5,,,53,85
15240,note_on,5,0,5,,,,,,,,4,,,53,85
15240,note_on,5,0,4,,,,,,,,3,,,65,85
15285,note_on,0,0,6,,,,,,,,5,,,65,0
15285,note_on,45,0,6,,,,,,,,5,,,69,0
15285,note_on,0,0,6,,,,,,,,5,,,60,0
15355,note_on,115,0,2,,,,,,,,1,,,65,0
15355,note_on,115,0,4,,,,,,,,3,,,65,0
15355,note_on,115,0,5,,,,,,,,4,,,53,0
15355,note_on,70,0,6,,,,,,,,5,,,53,0
15355,note_on,115,0,3,,,,,,,,2,,,65,0
15360,note_on,5,0,4,,,,,,,,3,,,64,85
15360,note_on,0,0,6,,,,,,,,5,,,48,85
15360,note_on,0,0,6,,,,,,,,5,,,60,64
15360,note_on,0,0,6,,,,,,,,5,,,67,64
15360,note_on,5,0,6,,,,,,,,5,,,70,64
15360,note_on,5,0,2,,,,,,,,1,,,82,85
15360,note_on,515,0,1,,,,,,,,0,,,82,85
15360,note_on,5,0,5,,,,,,,,4,,,48,85
15360,note_on,5,0,3,,,,,,,,2,,,79,85
15475,note_on,115,0,1,,,,,,,,0,,,82,0
15475,note_on,115,0,3,,,,,,,,2,,,79,0
15475,note_on,115,0,2,,,,,,,,1,,,82,0
15480,note_on,5,0,3,,,,,,,,2,,,76,85
15480,note_on,5,0,1,,,,,,,,0,,,79,85
15480,note_on,5,0,2,,,,,,,,1,,,79,85
15585,note_on,225,0,6,,,,,,,,5,,,48,0
15585,note_on,225,0,4,,,,,,,,3,,,64,0
15585,note_on,225,0,5,,,,,,,,4,,,48,0
15595,note_on,115,0,2,,,,,,,,1,,,79,0
15595,note_on,115,0,3,,,,,,,,2,,,76,0
15595,note_on,115,0,1,,,,,,,,0,,,79,0
15600,note_on,15,0,5,,,,,,,,4,,,48,85
15600,note_on,15,0,4,,,,,,,,3,,,64,85
15600,note_on,5,0,1,,,,,,,,0,,,82,85
15600,note_on,5,0,2,,,,,,,,1,,,82,85
15600,note_on,15,0,6,,,,,,,,5,,,48,85
15600,note_on,5,0,3,,,,,,,,2,,,79,85
15715,note_on,115,0,2,,,,,,,,1,,,82,0
15715,note_on,115,0,1,,,,,,,,0,,,82,0
15715,note_on,115,0,3,,,,,,,,2,,,79,0
15720,note_on,5,0,3,,,,,,,,2,,,76,85
15720,note_on,5,0,2,,,,,,,,1,,,79,85
15720,note_on,5,0,1,,,,,,,,0,,,79,85
15805,note_on,0,0,6,,,,,,,,5,,,60,0
15805,note_on,205,0,6,,,,,,,,5,,,70,0
15805,note_on,0,0,6,,,,,,,,5,,,67,0
15825,note_on,225,0,4,,,,,,,,3,,,64,0
15825,note_on,20,0,6,,,,,,,,5,,,48,0
15825,note_on,225,0,5,,,,,,,,4,,,48,0
15835,note_on,115,0,2,,,,,,,,1,,,79,0
15835,note_on,115,0,3,,,,,,,,2,,,76,0
15835,note_on,115,0,1,,,,,,,,0,,,79,0
15840,note_on,0,0,6,,,,,,,,5,,,65,64
15840,note_on,5,0,1,,,,,,,,0,,,81,85
15840,note_on,15,0,6,,,,,,,,5,,,69,64
15840,note_on,0,0,6,,,,,,,,5,,,48,85
15840,note_on,5,0,3,,,,,,,,2,,,77,85
15840,note_on,5,0,2,,,,,,,,1,,,81,85
15840,note_on,15,0,4,,,,,,,,3,,,60,85
15840,note_on,15,0,5,,,,,,,,4,,,48,85
15955,note_on,115,0,3,,,,,,,,2,,,77,0
15955,note_on,115,0,1,,,,,,,,0,,,81,0
15955,note_on,115,0,2,,,,,,,,1,,,81,0
15960,note_on,5,0,3,,,,,,,,2,,,72,85
15960,note_on,5,0,2,,,,,,,,1,,,77,85
15960,note_on,5,0,1,,,,,,,,0,,,77,85
16065,note_on,225,0,5,,,,,,,,4,,,48,0
16065,note_on,225,0,4,,,,,,,,3,,,60,0
16065,note_on,225,0,6,,,,,,,,5,,,48,0
16075,note_on,115,0,2,,,,,,,,1,,,77,0
16075,note_on,115,0,1,,,,,,,,0,,,77,0
16075,note_on,115,0,3,,,,,,,,2,,,72,0
16080,note_on,5,0,2,,,,,,,,1,,,81,85
16080,note_on,5,0,3,,,,,,,,2,,,77,85
16080,note_on,15,0,4,,,,,,,,3,,,60,85
16080,note_on,5,0,1,,,,,,,,0,,,81,85
16080,note_on,15,0,6,,,,,,,,5,,,48,85
16080,note_on,15,0,5,,,,,,,,4,,,48,85
16195,note_on,115,0,3,,,,,,,,2,,,77,0
16195,note_on,115,0,2,,,,,,,,1,,,81,0
16195,note_on,115,0,1,,,,,,,,0,,,81,0
16200,note_on,5,0,2,,,,,,,,1,,,77,85
16200,note_on,5,0,1,,,,,,,,0,,,77,85
16200,note_on,5,0,3,,,,,,,,2,,,72,85
16285,note_on,0,0,6,,,,,,,,5,,,69,0
16285,note_on,205,0,6,,,,,,,,5,,,65,0
16305,note_on,20,0,6,,,,,,,,5,,,48,0
16305,note_on,225,0,4,,,,,,,,3,,,60,0
16305,note_on,225,0,5,,,,,,,,4,,,48,0
16315,note_on,115,0,3,,,,,,,,2,,,72,0
16315,note_on,115,0,1,,,,,,,,0,,,77,0
16315,note_on,115,0,2,,,,,,,,1,,,77,0
16320,note_on,15,0,5,,,,,,,,4,,,48,85
16320,note_on,15,0,4,,,,,,,,3,,,60,85
16320,note_on,0,0,6,,,,,,,,5,,,48,85
16320,note_on,15,0,6,,,,,,,,5,,,67,64
16320,note_on,0,0,6,,,,,,,,5,,,64,64
16320,note_on,0,0,6,,,,,,,,5,,,60,64
16320,note_on,5,0,3,,,,,,,,2,,,76,85
16320,note_on,5,0,2,,,,,,,,1,,,79,85
16320,note_on,5,0,1,,,,,,,,0,,,79,85
16435,note_on,115,0,1,,,,,,,,0,,,79,0
16435,note_on,115,0,2,,,,,,,,1,,,79,0
16435,note_on,115,0,3,,,,,,,,2,,,76,0
16440,note_on,5,0,1,,,,,,,,0,,,76,85
16440,note_on,5,0,2,,,,,,,,1,,,76,85
16440,note_on,5,0,3,,,,,,,,2,,,72,85
16545,note_on,225,0,5,,,,,,,,4,,,48,0
16545,note_on,225,0,4,,,,,,,,3,,,60,0
16545,note_on,225,0,6,,,,,,,,5,,,48,0
16555,note_on,115,0,3,,,,,,,,2,,,72,0
16555,note_on,115,0,1,,,,,,,,0,,,76,0
16555,note_on,115,0,2,,,,,,,,1,,,76,0
16560,note_on,5,0,1,,,,,,,,0,,,79,85
16560,note_on,15,0,5,,,,,,,,4,,,48,85
16560,note_on,5,0,2,,,,,,,,1,,,79,85
16560,note_on,15,0,6,,,,,,,,5,,,48,85
16560,note_on,5,0,3,,,,,,,,2,,,76,85
16560,note_on,15,0,4,,,,,,,,3,,,60,85
16675,note_on,115,0,2,,,,,,,,1,,,79,0
16675,note_on,115,0,3,,,,,,,,2,,,76,0
16675,note_on,115,0,1,,,,,,,,0,,,79,0
16680,note_on,5,0,3,,,,,,,,2,,,72,85
16680,note_on,5,0,2,,,,,,,,1,,,76,85
16680,note_on,5,0,1,,,,,,,,0,,,76,85
16765,note_on,205,0,6,,,,,,,,5,,,67,0
16765,note_on,0,0,6,,,,,,,,5,,,64,0
16765,note_on,0,0,6,,,,,,,,5,,,60,0
16785,note_on,20,0,6,,,,,,,,5,,,48,0
16785,note_on,225,0,4,,,,,,,,3,,,60,0
16785,note_on,225,0,5,,,,,,,,4,,,48,0
16795,note_on,115,0,1,,,,,,,,0,,,76,0
16795,note_on,115,0,3,,,,,,,,2,,,72,0
16795,note_on,115,0,2,,,,,,,,1,,,76,0
16800,note_on,5,0,2,,,,,,,,1,,,81,85
16800,note_on,5,0,1,,,,,,,,0,,,81,85
16800,note_on,15,0,4,,,,,,,,3,,,60,85
16800,note_on,15,0,5,,,,,,,,4,,,48,85
16800,note_on,0,0,6,,,,,,,,5,,,48,85
16800,note_on,5,0,3,,,,,,,,2,,,77,85
16800,note_on,0,0,6,,,,,,,,5,,,65,64
16800,note_on,15,0,6,,,,,,,,5,,,69,64
16915,note_on,115,0,3,,,,,,,,2,,,77,0
16915,note_on,115,0,2,,,,,,,,1,,,81,0
16915,note_on,115,0,1,,,,,,,,0,,,81,0
16920,note_on,5,0,1,,,,,,,,0,,,77,85
16920,note_on,5,0,2,,,,,,,,1,,,77,85
16920,note_on,5,0,3,,,,,,,,2,,,72,85
17025,note_on,225,0,6,,,,,,,,5,,,48,0
17025,note_on,225,0,5,,,,,,,,4,,,48,0
17025,note_on,225,0,4,,,,,,,,3,,,60,0
17035,note_on,115,0,1,,,,,,,,0,,,77,0
17035,note_on,115,0,2,,,,,,,,1,,,77,0
17035,note_on,115,0,3,,,,,,,,2,,,72,0
17040,note_on,15,0,6,,,,,,,,5,,,48,85
17040,note_on,5,0,1,,,,,,,,0,,,81,85
17040,note_on,5,0,3,,,,,,,,2,,,77,85
17040,note_on,15,0,5,,,,,,,,4,,,48,85
17040,note_on,15,0,4,,,,,,,,3,,,60,85
17040,note_on,5,0,2,,,,,,,,1,,,81,85
17155,note_on,115,0,1,,,,,,,,0,,,81,0
17155,note_on,115,0,2,,,,,,,,1,,,81,0
17155,note_on,115,0,3,,,,,,,,2,,,77,0
17160,note_on,5,0,2,,,,,,,,1,,,77,85
17160,note_on,5,0,1,,,,,,,,0,,,77,85
17160,note_on,5,0,3,,,,,,,,2,,,72,85
17245,note_on,205,0,6,,,,,,,,5,,,65,0
17245,note_on,0,0,6,,,,,,,,5,,,69,0
17265,note_on,225,0,4,,,,,,,,3,,,60,0
17265,note_on,20,0,6,,,,,,,,5,,,48,0
17265,note_on,225,0,5,,,,,,,,4,,,48,0
17275,note_on,115,0,3,,,,,,,,2,,,72,0
17275,note_on,115,0,2,,,,,,,,1,,,77,0
17275,note_on,115,0,1,,,,,,,,0,,,77,0
17280,note_on,5,0,2,,,,,,,,1,,,82,85
17280,note_on,0,0,6,,,,,,,,5,,,48,85
17280,note_on,0,0,6,,,,,,,,5,,,60,64
17280,note_on,0,0,6,,,,,,,,5,,,67,64
17280,note_on,15,0,6,,,,,,,,5,,,70,64
17280,note_on,5,0,3,,,,,,,,2,,,79,85
17280,note_on,15,0,4,,,,,,,,3,,,64,85
17280,note_on,5,0,1,,,,,,,,0,,,82,85
17280,note_on,15,0,5,,,,,,,,4,,,48,85
17395,note_on,115,0,1,,,,,,,,0,,,82,0
17395,note_on,115,0,3,,,,,,,,2,,,79,0
17395,note_on,115,0,2,,,,,,,,1,,,82,0
17400,note_on,5,0,1,,,,,,,,0,,,79,85
17400,note_on,5,0,3,,,,,,,,2,,,76,85
17400,note_on,5,0,2,,,,,,,,1,,,79,85
17505,note_on,225,0,5,,,,,,,,4,,,48,0
17505,note_on,225,0,4,,,,,,,,3,,,64,0
17505,note_on,225,0,6,,,,,,,,5,,,48,0
17515,note_on,115,0,1,,,,,,,,0,,,79,0
17515,note_on,115,0,2,,,,,,,,1,,,79,0
17515,note_on,115,0,3,,,,,,,,2,,,76,0
17520,note_on,15,0,6,,,,,,,,5,,,48,85
17520,note_on,15,0,4,,,,,,,,3,,,64,85
17520,note_on,5,0,3,,,,,,,,2,,,79,85
17520,note_on,5,0,1,,,,,,,,0,,,82,85
17520,note_on,5,0,2,,,,,,,,1,,,82,85
17520,note_on,15,0,5,,,,,,,,4,,,48,85
17635,note_on,115,0,2,,,,,,,,1,,,82,0
17635,note_on,115,0,3,,,,,,,,2,,,79,0
17635,note_on,115,0,1,,,,,,,,0,,,82,0
17640,note_on,5,0,2,,,,,,,,1,,,79,85
17640,note_on,5,0,3,,,,,,,,2,,,76,85
17640,note_on,5,0,1,,,,,,,,0,,,79,85
17725,note_on,205,0,6,,,,,,,,5,,,70,0
17725,note_on,0,0,6,,,,,,,,5,,,60,0
17725,note_on,0,0,6,,,,,,,,5,,,67,0
17745,note_on,225,0,5,,,,,,,,4,,,48,0
17745,note_on,225,0,4,,,,,,,,3,,,64,0
17745,note_on,20,0,6,,,,,,,,5,,,48,0
17755,note_on,115,0,3,,,,,,,,2,,,76,0
17755,note_on,115,0,2,,,,,,,,1,,,79,0
17755,note_on,115,0,1,,,,,,,,0,,,79,0
17760,note_on,15,0,5,,,,,,,,4,,,48,85
17760,note_on,15,0,4,,,,,,,,3,,,60,85
17760,note_on,0,0,6,,,,,,,,5,,,65,64
17760,note_on,15,0,6,,,,,,,,5,,,69,64
17760,note_on,0,0,6,,,,,,,,5,,,48,85
17760,note_on,5,0,1,,,,,,,,0,,,81,85
17760,note_on,5,0,3,,,,,,,,2,,,77,85
17760,note_on,5,0,2,,,,,,,,1,,,81,85
17875,note_on,115,0,1,,,,,,,,0,,,81,0
17875,note_on,115,0,2,,,,,,,,1,,,81,0
17875,note_on,115,0,3,,,,,,,,2,,,77,0
17880,note_on,5,0,1,,,,,,,,0,,,77,85
17880,note_on,5,0,2,,,,,,,,1,,,77,85
17880,note_on,5,0,3,,,,,,,,2,,,72,85
17985,note_on,225,0,5,,,,,,,,4,,,48,0
17985,note_on,225,0,4,,,,,,,,3,,,60,0
17985,note_on,225,0,6,,,,,,,,5,,,48,0
17995,note_on,115,0,1,,,,,,,,0,,,77,0
17995,note_on,115,0,2,,,,,,,,1,,,77,0
17995,note_on,115,0,3,,,,,,,,2,,,72,0
18000,note_on,5,0,3,,,,,,,,2,,,77,85
18000,note_on,5,0,2,,,,,,,,1,,,81,85
18000,note_on,15,0,4,,,,,,,,3,,,60,85
18000,note_on,5,0,1,,,,,,,,0,,,81,85
18000,note_on,15,0,6,,,,,,,,5,,,48,85
18000,note_on,15,0,5,,,,,,,,4,,,48,85
18115,note_on,115,0,3,,,,,,,,2,,,77,0
18115,note_on,115,0,1,,,,,,,,0,,,81,0
18115,note_on,115,0,2,,,,,,,,1,,,81,0
18120,note_on,5,0,3,,,,,,,,2,,,72,85
18120,note_on,5,0,2,,,,,,,,1,,,77,85
18120,note_on,5,0,1,,,,,,,,0,,,77,85
18205,note_on,0,0,6,,,,,,,,5,,,69,0
18205,note_on,205,0,6,,,,,,,,5,,,65,0
18225,note_on,225,0,5,,,,,,,,4,,,48,0
18225,note_on,20,0,6,,,,,,,,5,,,48,0
18225,note_on,225,0,4,,,,,,,,3,,,60,0
18235,note_on,115,0,2,,,,,,,,1,,,77,0
18235,note_on,115,0,1,,,,,,,,0,,,77,0
18235,note_on,115,0,3,,,,,,,,2,,,72,0
18240,note_on,0,0,6,,,,,,,,5,,,48,85
18240,note_on,5,0,1,,,,,,,,0,,,79,85
18240,note_on,0,0,6,,,,,,,,5,,,64,64
18240,note_on,5,0,3,,,,,,,,2,,,76,85
18240,note_on,0,0,6,,,,,,,,5,,,60,64
18240,note_on,15,0,6,,,,,,,,5,,,67,64
18240,note_on,15,0,5,,,,,,,,4,,,48,85
18240,note_on,15,0,4,,,,,,,,3,,,60,85
18240,note_on,5,0,2,,,,,,,,1,,,79,85
18355,note_on,115,0,2,,,,,,,,1,,,79,0
18355,note_on,115,0,3,,,,,,,,2,,,76,0
18355,note_on,115,0,1,,,,,,,,0,,,79,0
18360,note_on,5,0,1,,,,,,,,0,,,76,85
18360,note_on,5,0,2,,,,,,,,1,,,76,85
18360,note_on,5,0,3,,,,,,,,2,,,72,85
18465,note_on,225,0,5,,,,,,,,4,,,48,0
18465,note_on,225,0,4,,,,,,,,3,,,60,0
18465,note_on,225,0,6,,,,,,,,5,,,48,0
18475,note_on,115,0,1,,,,,,,,0,,,76,0
18475,note_on,115,0,3,,,,,,,,2,,,72,0
18475,note_on,115,0,2,,,,,,,,1,,,76,0
18480,note_on,15,0,6,,,,,,,,5,,,48,85
18480,note_on,5,0,2,,,,,,,,1,,,79,85
18480,note_on,5,0,3,,,,,,,,2,,,76,85
18480,note_on,15,0,5,,,,,,,,4,,,48,85
18480,note_on,5,0,1,,,,,,,,0,,,79,85
18480,note_on,15,0,4,,,,,,,,3,,,60,85
18595,note_on,115,0,1,,,,,,,,0,,,79,0
18595,note_on,115,0,3,,,,,,,,2,,,76,0
18595,note_on,115,0,2,,,,,,,,1,,,79,0
18600,note_on,5,0,2,,,,,,,,1,,,76,85
18600,note_on,5,0,3,,,,,,,,2,,,72,85
18600,note_on,5,0,1,,,,,,,,0,,,76,85
18685,note_on,205,0,6,,,,,,,,5,,,67,0
18685,note_on,0,0,6,,,,,,,,5,,,60,0
18685,note_on,0,0,6,,,,,,,,5,,,64,0
18705,note_on,225,0,4,,,,,,,,3,,,60,0
18705,note_on,225,0,5,,,,,,,,4,,,48,0
18705,note_on,20,0,6,,,,,,,,5,,,48,0
18715,note_on,115,0,2,,,,,,,,1,,,76,0
18715,note_on,115,0,3,,,,,,,,2,,,72,0
18715,note_on,115,0,1,,,,,,,,0,,,76,0
18720,note_on,0,0,6,,,,,,,,5,,,48,85
18720,note_on,5,0,2,,,,,,,,1,,,81,85
18720,note_on,5,0,3,,,,,,,,2,,,77,85
18720,note_on,15,0,4,,,,,,,,3,,,60,85
18720,note_on,15,0,6,,,,,,,,5,,,69,64
18720,note_on,0,0,6,,,,,,,,5,,,65,64
18720,note_on,5,0,1,,,,,,,,0,,,81,85
18720,note_on,15,0,5,,,,,,,,4,,,48,85
18835,note_on,115,0,2,,,,,,,,1,,,81,0
18835,note_on,115,0,3,,,,,,,,2,,,77,0
18835,note_on,115,0,1,,,,,,,,0,,,81,0
18840,note_on,5,0,2,,,,,,,,1,,,77,85
18840,note_on,5,0,3,,,,,,,,2,,,72,85
18840,note_on,5,0,1,,,,,,,,0,,,77,85
18945,note_on,225,0,6,,,,,,,,5,,,48,0
18945,note_on,225,0,4,,,,,,,,3,,,60,0
18945,note_on,225,0,5,,,,,,,,4,,,48,0
18955,note_on,115,0,2,,,,,,,,1,,,77,0
18955,note_on,115,0,1,,,,,,,,0,,,77,0
18955,note_on,115,0,3,,,,,,,,2,,,72,0
18960,note_on,15,0,5,,,,,,,,4,,,48,85
18960,note_on,15,0,6,,,,,,,,5,,,48,85
18960,note_on,5,0,3,,,,,,,,2,,,77,85
18960,note_on,15,0,4,,,,,,,,3,,,60,85
18960,note_on,5,0,2,,,,,,,,1,,,81,85
18960,note_on,5,0,1,,,,,,,,0,,,81,85
19075,note_on,115,0,1,,,,,,,,0,,,81,0
19075,note_on,115,0,2,,,,,,,,1,,,81,0
19075,note_on,115,0,3,,,,,,,,2,,,77,0
19080,note_on,5,0,2,,,,,,,,1,,,77,85
19080,note_on,5,0,3,,,,,,,,2,,,72,85
19080,note_on,5,0,1,,,,,,,,0,,,77,85
19165,note_on,0,0,6,,,,,,,,5,,,69,0
19165,note_on,205,0,6,,,,,,,,5,,,65,0
19185,note_on,225,0,4,,,,,,,,3,,,60,0
19185,note_on,20,0,6,,,,,,,,5,,,48,0
19185,note_on,225,0,5,,,,,,,,4,,,48,0
19195,note_on,115,0,1,,,,,,,,0,,,77,0
19195,note_on,115,0,3,,,,,,,,2,,,72,0
19195,note_on,115,0,2,,,,,,,,1,,,77,0
19200,note_on,0,0,6,,,,,,,,5,,,60,64
19200,note_on,15,0,6,,,,,,,,5,,,70,64
19200,note_on,5,0,3,,,,,,,,2,,,79,85
19200,note_on,5,0,2,,,,,,,,1,,,82,85
19200,note_on,0,0,6,,,,,,,,5,,,48,85
19200,note_on,0,0,6,,,,,,,,5,,,67,64
19200,note_on,15,0,4,,,,,,,,3,,,64,85
19200,note_on,15,0,5,,,,,,,,4,,,48,85
19200,note_on,5,0,1,,,,,,,,0,,,82,85
19315,note_on,115,0,2,,,,,,,,1,,,82,0
19315,note_on,115,0,1,,,,,,,,0,,,82,0
19315,note_on,115,0,3,,,,,,,,2,,,79,0
19320,note_on,5,0,2,,,,,,,,1,,,79,85
19320,note_on,5,0,1,,,,,,,,0,,,79,85
19320,note_on,5,0,3,,,,,,,,2,,,76,85
19425,note_on,225,0,4,,,,,,,,3,,,64,0
19425,note_on,225,0,5,,,,,,,,4,,,48,0
19425,note_on,225,0,6,,,,,,,,5,,,48,0
19435,note_on,115,0,2,,,,,,,,1,,,79,0
19435,note_on,115,0,3,,,,,,,,2,,,76,0
19435,note_on,115,0,1,,,,,,,,0,,,79,0
19440,note_on,15,0,4,,,,,,,,3,,,64,85
19440,note_on,5,0,1,,,,,,,,0,,,82,85
19440,note_on,15,0,5,,,,,,,,4,,,48,85
19440,note_on,5,0,3,,,,,,,,2,,,79,85
19440,note_on,5,0,2,,,,,,,,1,,,82,85
19440,note_on,15,0,6,,,,,,,,5,,,48,85
19555,note_on,115,0,3,,,,,,,,2,,,79,0
19555,note_on,115,0,1,,,,,,,,0,,,82,0
19555,note_on,115,0,2,,,,,,,,1,,,82,0
19560,note_on,5,0,2,,,,,,,,1,,,79,85
19560,note_on,5,0,1,,,,,,,,0,,,79,85
19560,note_on,5,0,3,,,,,,,,2,,,76,85
19645,note_on,205,0,6,,,,,,,,5,,,70,0
19645,note_on,0,0,6,,,,,,,,5,,,67,0
19645,note_on,0,0,6,,,,,,,,5,,,60,0
19665,note_on,225,0,5,,,,,,,,4,,,48,0
19665,note_on,225,0,4,,,,,,,,3,,,64,0
19665,note_on,20,0,6,,,,,,,,5,,,48,0
19675,note_on,115,0,2,,,,,,,,1,,,79,0
19675,note_on,115,0,3,,,,,,,,2,,,76,0
19675,note_on,115,0,1,,,,,,,,0,,,79,0
19680,note_on,5,0,3,,,,,,,,2,,,77,85
19680,note_on,15,0,4,,,,,,,,3,,,60,85
19680,note_on,0,0,6,,,,,,,,5,,,48,85
19680,note_on,0,0,6,,,,,,,,5,,,65,64
19680,note_on,15,0,6,,,,,,,,5,,,69,64
19680,note_on,5,0,2,,,,,,,,1,,,81,85
19680,note_on,5,0,1,,,,,,,,0,,,81,85
19680,note_on,15,0,5,,,,,,,,4,,,48,85
19795,note_on,115,0,1,,,,,,,,0,,,81,0
19795,note_on,115,0,2,,,,,,,,1,,,81,0
19795,note_on,115,0,3,,,,,,,,2,,,77,0
19800,note_on,5,0,1,,,,,,,,0,,,77,85
19800,note_on,5,0,2,,,,,,,,1,,,77,85
19800,note_on,5,0,3,,,,,,,,2,,,72,85
19905,note_on,225,0,6,,,,,,,,5,,,48,0
19905,note_on,225,0,5,,,,,,,,4,,,48,0
19905,note_on,225,0,4,,,,,,,,3,,,60,0
19915,note_on,115,0,1,,,,,,,,0,,,77,0
19915,note_on,115,0,2,,,,,,,,1,,,77,0
19915,note_on,115,0,3,,,,,,,,2,,,72,0
19920,note_on,15,0,4,,,,,,,,3,,,60,85
19920,note_on,15,0,5,,,,,,,,4,,,48,85
19920,note_on,5,0,2,,,,,,,,1,,,81,85
19920,note_on,15,0,6,,,,,,,,5,,,48,85
19920,note_on,5,0,3,,,,,,,,2,,,77,85
19920,note_on,5,0,1,,,,,,,,0,,,81,85
20035,note_on,115,0,1,,,,,,,,0,,,81,0
20035,note_on,115,0,3,,,,,,,,2,,,77,0
20035,note_on,115,0,2,,,,,,,,1,,,81,0
20040,note_on,5,0,2,,,,,,,,1,,,77,85
20040,note_on,5,0,1,,,,,,,,0,,,77,85
20040,note_on,5,0,3,,,,,,,,2,,,72,85
20125,note_on,0,0,6,,,,,,,,5,,,69,0
20125,note_on,205,0,6,,,,,,,,5,,,65,0
20145,note_on,20,0,6,,,,,,,,5,,,48,0
20145,note_on,225,0,5,,,,,,,,4,,,48,0
20145,note_on,225,0,4,,,,,,,,3,,,60,0
20155,note_on,115,0,1,,,,,,,,0,,,77,0
20155,note_on,115,0,3,,,,,,,,2,,,72,0
20155,note_on,115,0,2,,,,,,,,1,,,77,0
20160,note_on,15,0,4,,,,,,,,3,,,60,85
20160,note_on,5,0,3,,,,,,,,2,,,76,85
20160,note_on,5,0,1,,,,,,,,0,,,79,85
20160,note_on,15,0,5,,,,,,,,4,,,48,85
20160,note_on,5,0,2,,,,,,,,1,,,79,85
20160,note_on,15,0,6,,,,,,,,5,,,67,64
20160,note_on,0,0,6,,,,,,,,5,,,64,64
20160,note_on,0,0,6,,,,,,,,5,,,60,64
20160,note_on,0,0,6,,,,,,,,5,,,48,85
20275,note_on,115,0,3,,,,,,,,2,,,76,0
20275,note_on,115,0,1,,,,,,,,0,,,79,0
20275,note_on,115,0,2,,,,,,,,1,,,79,0
20280,note_on,5,0,1,,,,,,,,0,,,84,85
20280,note_on,5,0,2,,,,,,,,1,,,72,85
20280,note_on,5,0,3,,,,,,,,2,,,72,85
20385,note_on,225,0,6,,,,,,,,5,,,48,0
20385,note_on,225,0,4,,,,,,,,3,,,60,0
20385,note_on,225,0,5,,,,,,,,4,,,48,0
20395,note_on,115,0,3,,,,,,,,2,,,72,0
20395,note_on,115,0,2,,,,,,,,1,,,72,0
20395,note_on,115,0,1,,,,,,,,0,,,84,0
20400,note_on,15,0,4,,,,,,,,3,,,60,85
20400,note_on,15,0,5,,,,,,,,4,,,48,85
20400,note_on,5,0,3,,,,,,,,2,,,70,85
20400,note_on,5,0,2,,,,,,,,1,,,70,85
20400,note_on,5,0,1,,,,,,,,0,,,82,85
20400,note_on,15,0,6,,,,,,,,5,,,48,85
20515,note_on,115,0,3,,,,,,,,2,,,70,0
20515,note_on,115,0,2,,,,,,,,1,,,70,0
20515,note_on,115,0,1,,,,,,,,0,,,82,0
20520,note_on,5,0,2,,,,,,,,1,,,69,85
20520,note_on,5,0,1,,,,,,,,0,,,81,85
20520,note_on,5,0,3,,,,,,,,2,,,69,85
20625,note_on,225,0,5,,,,,,,,4,,,48,0
20625,note_on,225,0,6,,,,,,,,5,,,48,0
20625,note_on,225,0,4,,,,,,,,3,,,60,0
20635,note_on,115,0,1,,,,,,,,0,,,81,0
20635,note_on,115,0,2,,,,,,,,1,,,69,0
20635,note_on,115,0,3,,,,,,,,2,,,69,0
20640,note_on,15,0,6,,,,,,,,5,,,48,85
20640,note_on,5,0,3,,,,,,,,2,,,67,85
20640,note_on,5,0,2,,,,,,,,1,,,67,85
20640,note_on,15,0,4,,,,,,,,3,,,60,85
20640,note_on,15,0,5,,,,,,,,4,,,48,85
20640,note_on,5,0,1,,,,,,,,0,,,79,85
20755,note_on,115,0,2,,,,,,,,1,,,67,0
20755,note_on,115,0,1,,,,,,,,0,,,79,0
20755,note_on,115,0,3,,,,,,,,2,,,67,0
20760,note_on,5,0,2,,,,,,,,1,,,65,85
20760,note_on,5,0,1,,,,,,,,0,,,77,85
20760,note_on,5,0,3,,,,,,,,2,,,65,85
20865,note_on,225,0,4,,,,,,,,3,,,60,0
20865,note_on,225,0,5,,,,,,,,4,,,48,0
20865,note_on,225,0,6,,,,,,,,5,,,48,0
20875,note_on,115,0,3,,,,,,,,2,,,65,0
20875,note_on,115,0,2,,,,,,,,1,,,65,0
20875,note_on,115,0,1,,,,,,,,0,,,77,0
20880,note_on,15,0,4,,,,,,,,3,,,60,85
20880,note_on,5,0,2,,,,,,,,1,,,64,85
20880,note_on,15,0,5,,,,,,,,4,,,48,85
20880,note_on,15,0,6,,,,,,,,5,,,48,85
20880,note_on,5,0,1,,,,,,,,0,,,76,85
20880,note_on,5,0,3,,,,,,,,2,,,64,85
20995,note_on,115,0,1,,,,,,,,0,,,76,0
20995,note_on,115,0,2,,,,,,,,1,,,64,0
20995,note_on,115,0,3,,,,,,,,2,,,64,0
21000,note_on,5,0,2,,,,,,,,1,,,62,85
21000,note_on,5,0,1,,,,,,,,0,,,74,85
21000,note_on,5,0,3,,,,,,,,2,,,62,85
21045,note_on,165,0,6,,,,,,,,5,,,67,0
21045,note_on,0,0,6,,,,,,,,5,,,60,0
21045,note_on,0,0,6,,,,,,,,5,,,64,0
21105,note_on,60,0,6,,,,,,,,5,,,48,0
21105,note_on,225,0,5,,,,,,,,4,,,48,0
21105,note_on,225,0,4,,,,,,,,3,,,60,0
21115,note_on,115,0,1,,,,,,,,0,,,74,0
21115,note_on,115,0,2,,,,,,,,1,,,62,0
21115,note_on,115,0,3,,,,,,,,2,,,62,0
21120,note_on,15,0,6,,,,,,,,5,,,60,64
21120,note_on,0,0,6,,,,,,,,5,,,48,85
21120,note_on,15,0,5,,,,,,,,4,,,48,85
21120,note_on,5,0,3,,,,,,,,2,,,60,85
21120,note_on,15,0,4,,,,,,,,3,,,60,85
21120,note_on,5,0,2,,,,,,,,1,,,60,85
21120,note_on,5,0,1,,,,,,,,0,,,72,85
21235,note_on,115,0,4,,,,,,,,3,,,60,0
21235,note_on,115,0,6,,,,,,,,5,,,48,0
21235,note_on,0,0,6,,,,,,,,5,,,60,0
21235,note_on,115,0,5,,,,,,,,4,,,48,0
21240,note_on,5,0,4,,,,,,,,3,,,72,85
21240,note_on,5,0,6,,,,,,,,5,,,72,64
21240,note_on,0,0,6,,,,,,,,5,,,60,85
21240,note_on,5,0,5,,,,,,,,4,,,60,85
21345,note_on,225,0,3,,,,,,,,2,,,60,0
21345,note_on,225,0,2,,,,,,,,1,,,60,0
21345,note_on,225,0,1,,,,,,,,0,,,72,0
21355,note_on,115,0,6,,,,,,,,5,,,60,0
21355,note_on,0,0,6,,,,,,,,5,,,72,0
21355,note_on,115,0,5,,,,,,,,4,,,60,0
21355,note_on,115,0,4,,,,,,,,3,,,72,0
21360,note_on,0,0,6,,,,,,,,5,,,58,85
21360,note_on,5,0,5,,,,,,,,4,,,58,85
21360,note_on,5,0,4,,,,,,,,3,,,70,85
21360,note_on,15,0,3,,,,,,,,2,,,60,85
21360,note_on,15,0,2,,,,,,,,1,,,60,85
21360,note_on,5,0,6,,,,,,,,5,,,70,64
21360,note_on,15,0,1,,,,,,,,0,,,72,85
21475,note_on,115,0,4,,,,,,,,3,,,70,0
21475,note_on,0,0,6,,,,,,,,5,,,70,0
21475,note_on,115,0,6,,,,,,,,5,,,58,0
21475,note_on,115,0,5,,,,,,,,4,,,58,0
21480,note_on,5,0,4,,,,,,,,3,,,69,85
21480,note_on,0,0,6,,,,,,,,5,,,57,85
21480,note_on,5,0,6,,,,,,,,5,,,69,64
21480,note_on,5,0,5,,,,,,,,4,,,57,85
21585,note_on,225,0,1,,,,,,,,0,,,72,0
21585,note_on,225,0,3,,,,,,,,2,,,60,0
21585,note_on,225,0,2,,,,,,,,1,,,60,0
21595,note_on,115,0,5,,,,,,,,4,,,57,0
21595,note_on,115,0,4,,,,,,,,3,,,69,0
21595,note_on,0,0,6,,,,,,,,5,,,69,0
21595,note_on,115,0,6,,,,,,,,5,,,57,0
21600,note_on,5,0,6,,,,,,,,5,,,67,64
21600,note_on,5,0,5,,,,,,,,4,,,55,85
21600,note_on,15,0,1,,,,,,,,0,,,72,85
21600,note_on,15,0,2,,,,,,,,1,,,60,85
21600,note_on,5,0,4,,,,,,,,3,,,67,85
21600,note_on,15,0,3,,,,,,,,2,,,60,85
21600,note_on,0,0,6,,,,,,,,5,,,55,85
21715,note_on,115,0,5,,,,,,,,4,,,55,0
21715,note_on,0,0,6,,,,,,,,5,,,67,0
21715,note_on,115,0,4,,,,,,,,3,,,67,0
21715,note_on,115,0,6,,,,,,,,5,,,55,0
21720,note_on,5,0,4,,,,,,,,3,,,65,85
21720,note_on,5,0,5,,,,,,,,4,,,53,85
21720,note_on,0,0,6,,,,,,,,5,,,53,85
21720,note_on,5,0,6,,,,,,,,5,,,65,64
21825,note_on,225,0,2,,,,,,,,1,,,60,0
21825,note_on,225,0,3,,,,,,,,2,,,60,0
21825,note_on,225,0,1,,,,,,,,0,,,72,0
21835,note_on,115,0,6,,,,,,,,5,,,53,0
21835,note_on,0,0,6,,,,,,,,5,,,65,0
21835,note_on,115,0,4,,,,,,,,3,,,65,0
21835,note_on,115,0,5,,,,,,,,4,,,53,0
21840,note_on,5,0,5,,,,,,,,4,,,52,85
21840,note_on,15,0,2,,,,,,,,1,,,60,85
21840,note_on,15,0,3,,,,,,,,2,,,60,85
21840,note_on,5,0,4,,,,,,,,3,,,64,85
21840,note_on,0,0,6,,,,,,,,5,,,52,85
21840,note_on,5,0,6,,,,,,,,5,,,64,64
21840,note_on,15,0,1,,,,,,,,0,,,72,85
21955,note_on,115,0,4,,,,,,,,3,,,64,0
21955,note_on,0,0,6,,,,,,,,5,,,64,0
21955,note_on,115,0,6,,,,,,,,5,,,52,0
21955,note_on,115,0,5,,,,,,,,4,,,52,0
21960,note_on,5,0,4,,,,,,,,3,,,62,85
21960,note_on,5,0,6,,,,,,,,5,,,62,64
21960,note_on,0,0,6,,,,,,,,5,,,50,85
21960,note_on,5,0,5,,,,,,,,4,,,50,85
22065,note_on,225,0,3,,,,,,,,2,,,60,0
22065,note_on,225,0,1,,,,,,,,0,,,72,0
22065,note_on,225,0,2,,,,,,,,1,,,60,0
22075,note_on,115,0,5,,,,,,,,4,,,50,0
22075,note_on,115,0,4,,,,,,,,3,,,62,0
22075,note_on,115,0,6,,,,,,,,5,,,50,0
22075,note_on,0,0,6,,,,,,,,5,,,62,0
22080,note_on,15,0,3,,,,,,,,2,,,60,85
22080,note_on,15,0,2,,,,,,,,1,,,60,85
22080,note_on,5,0,5,,,,,,,,4,,,48,85
22080,note_on,0,0,6,,,,,,,,5,,,48,85
22080,note_on,5,0,6,,,,,,,,5,,,60,64
22080,note_on,15,0,1,,,,,,,,0,,,72,85
22080,note_on,5,0,4,,,,,,,,3,,,60,85
22195,note_on,115,0,1,,,,,,,,0,,,72,0
22195,note_on,115,0,2,,,,,,,,1,,,60,0
22195,note_on,115,0,3,,,,,,,,2,,,60,0
22200,note_on,5,0,2,,,,,,,,1,,,72,85
22200,note_on,5,0,3,,,,,,,,2,,,72,85
22200,note_on,5,0,1,,,,,,,,0,,,84,85
22305,note_on,225,0,4,,,,,,,,3,,,60,0
22305,note_on,0,0,6,,,,,,,,5,,,60,0
22305,note_on,225,0,6,,,,,,,,5,,,48,0
22305,note_on,225,0,5,,,,,,,,4,,,48,0
22315,note_on,115,0,3,,,,,,,,2,,,72,0
22315,note_on,115,0,2,,,,,,,,1,,,72,0
22315,note_on,115,0,1,,,,,,,,0,,,84,0
22320,note_on,5,0,2,,,,,,,,1,,,70,85
22320,note_on,15,0,4,,,,,,,,3,,,60,85
22320,note_on,15,0,5,,,,,,,,4,,,48,85
22320,note_on,5,0,1,,,,,,,,0,,,82,85
22320,note_on,5,0,3,,,,,,,,2,,,70,85
22320,note_on,15,0,6,,,,,,,,5,,,60,64
22320,note_on,0,0,6,,,,,,,,5,,,48,85
22435,note_on,115,0,2,,,,,,,,1,,,70,0
22435,note_on,115,0,1,,,,,,,,0,,,82,0
22435,note_on,115,0,3,,,,,,,,2,,,70,0
22440,note_on,5,0,3,,,,,,,,2,,,69,85
22440,note_on,5,0,1,,,,,,,,0,,,81,85
22440,note_on,5,0,2,,,,,,,,1,,,69,85
22545,note_on,0,0,6,,,,,,,,5,,,60,0
22545,note_on,225,0,6,,,,,,,,5,,,48,0
22545,note_on,225,0,4,,,,,,,,3,,,60,0
22545,note_on,225,0,5,,,,,,,,4,,,48,0
22555,note_on,115,0,3,,,,,,,,2,,,69,0
22555,note_on,115,0,1,,,,,,,,0,,,81,0
22555,note_on,115,0,2,,,,,,,,1,,,69,0
22560,note_on,5,0,2,,,,,,,,1,,,67,85
22560,note_on,15,0,6,,,,,,,,5,,,60,64
22560,note_on,15,0,5,,,,,,,,4,,,48,85
22560,note_on,15,0,4,,,,,,,,3,,,60,85
22560,note_on,5,0,1,,,,,,,,0,,,79,85
22560,note_on,5,0,3,,,,,,,,2,,,67,85
22560,note_on,0,0,6,,,,,,,,5,,,48,85
22675,note_on,115,0,3,,,,,,,,2,,,67,0
22675,note_on,115,0,2,,,,,,,,1,,,67,0
22675,note_on,115,0,1,,,,,,,,0,,,79,0
22680,note_on,5,0,3,,,,,,,,2,,,65,85
22680,note_on,5,0,1,,,,,,,,0,,,77,85
22680,note_on,5,0,2,,,,,,,,1,,,65,85
22785,note_on,225,0,5,,,,,,,,4,,,48,0
22785,note_on,0,0,6,,,,,,,,5,,,60,0
22785,note_on,225,0,6,,,,,,,,5,,,48,0
22785,note_on,225,0,4,,,,,,,,3,,,60,0
22795,note_on,115,0,1,,,,,,,,0,,,77,0
22795,note_on,115,0,3,,,,,,,,2,,,65,0
22795,note_on,115,0,2,,,,,,,,1,,,65,0
22800,note_on,15,0,5,,,,,,,,4,,,48,85
22800,note_on,5,0,2,,,,,,,,1,,,64,85
22800,note_on,5,0,3,,,,,,,,2,,,64,85
22800,note_on,5,0,1,,,,,,,,0,,,76,85
22800,note_on,0,0,6,,,,,,,,5,,,48,85
22800,note_on,15,0,6,,,,,,,,5,,,60,64
22800,note_on,15,0,4,,,,,,,,3,,,60,85
22915,note_on,115,0,3,,,,,,,,2,,,64,0
22915,note_on,115,0,2,,,,,,,,1,,,64,0
22915,note_on,115,0,1,,,,,,,,0,,,76,0
22920,note_on,5,0,2,,,,,,,,1,,,62,85
22920,note_on,5,0,1,,,,,,,,0,,,74,85
22920,note_on,5,0,3,,,,,,,,2,,,62,85
23025,note_on,225,0,4,,,,,,,,3,,,60,0
23025,note_on,225,0,5,,,,,,,,4,,,48,0
23025,note_on,225,0,6,,,,,,,,5,,,48,0
23025,note_on,0,0,6,,,,,,,,5,,,60,0
23035,note_on,115,0,1,,,,,,,,0,,,74,0
23035,note_on,115,0,3,,,,,,,,2,,,62,0
23035,note_on,115,0,2,,,,,,,,1,,,62,0
23040,note_on,15,0,5,,,,,,,,4,,,48,85
23040,note_on,5,0,1,,,,,,,,0,,,72,85
23040,note_on,5,0,3,,,,,,,,2,,,60,85
23040,note_on,0,0,6,,,,,,,,5,,,48,85
23040,note_on,5,0,2,,,,,,,,1,,,60,85
23040,note_on,15,0,4,,,,,,,,3,,,60,85
23040,note_on,15,0,6,,,,,,,,5,,,60,64
23155,note_on,115,0,6,,,,,,,,5,,,48,0
23155,note_on,0,0,6,,,,,,,,5,,,60,0
23155,note_on,115,0,5,,,,,,,,4,,,48,0
23155,note_on,115,0,4,,,,,,,,3,,,60,0
23160,note_on,5,0,5,,,,,,,,4,,,60,85
23160,note_on,5,0,4,,,,,,,,3,,,72,85
23160,note_on,5,0,6,,,,,,,,5,,,72,64
23160,note_on,0,0,6,,,,,,,,5,,,60,85
23265,note_on,225,0,2,,,,,,,,1,,,60,0
23265,note_on,225,0,3,,,,,,,,2,,,60,0
23265,note_on,225,0,1,,,,,,,,0,,,72,0
23275,note_on,0,0,6,,,,,,,,5,,,72,0
23275,note_on,115,0,6,,,,,,,,5,,,60,0
23275,note_on,115,0,4,,,,,,,,3,,,72,0
23275,note_on,115,0,5,,,,,,,,4,,,60,0
23280,note_on,15,0,2,,,,,,,,1,,,60,85
23280,note_on,5,0,4,,,,,,,,3,,,70,85
23280,note_on,15,0,3,,,,,,,,2,,,60,85
23280,note_on,5,0,5,,,,,,,,4,,,58,85
23280,note_on,5,0,6,,,,,,,,5,,,70,64
23280,note_on,15,0,1,,,,,,,,0,,,72,85
23280,note_on,0,0,6,,,,,,,,5,,,58,85
23395,note_on,115,0,5,,,,,,,,4,,,58,0
23395,note_on,0,0,6,,,,,,,,5,,,70,0
23395,note_on,115,0,4,,,,,,,,3,,,70,0
23395,note_on,115,0,6,,,,,,,,5,,,58,0
23400,note_on,5,0,6,,,,,,,,5,,,69,64
23400,note_on,5,0,4,,,,,,,,3,,,69,85
23400,note_on,5,0,5,,,,,,,,4,,,57,85
23400,note_on,0,0,6,,,,,,,,5,,,57,85
23505,note_on,225,0,2,,,,,,,,1,,,60,0
23505,note_on,225,0,1,,,,,,,,0,,,72,0
23505,note_on,225,0,3,,,,,,,,2,,,60,0
23515,note_on,115,0,4,,,,,,,,3,,,69,0
23515,note_on,115,0,5,,,,,,,,4,,,57,0
23515,note_on,0,0,6,,,,,,,,5,,,69,0
23515,note_on,115,0,6,,,,,,,,5,,,57,0
23520,note_on,15,0,2,,,,,,,,1,,,60,85
23520,note_on,5,0,6,,,,,,,,5,,,67,64
23520,note_on,15,0,1,,,,,,,,0,,,72,85
23520,note_on,15,0,3,,,,,,,,2,,,60,85
23520,note_on,5,0,4,,,,,,,,3,,,67,85
23520,note_on,0,0,6,,,,,,,,5,,,55,85
23520,note_on,5,0,5,,,,,,,,4,,,55,85
23635,note_on,115,0,6,,,,,,,,5,,,55,0
23635,note_on,115,0,4,,,,,,,,3,,,67,0
23635,note_on,115,0,5,,,,,,,,4,,,55,0
23635,note_on,0,0,6,,,,,,,,5,,,67,0
23640,note_on,5,0,4,,,,,,,,3,,,65,85
23640,note_on,5,0,6,,,,,,,,5,,,65,64
23640,note_on,0,0,6,,,,,,,,5,,,53,85
23640,note_on,5,0,5,,,,,,,,4,,,53,85
23745,note_on,225,0,2,,,,,,,,1,,,60,0
23745,note_on,225,0,3,,,,,,,,2,,,60,0
23745,note_on,225,0,1,,,,,,,,0,,,72,0
23755,note_on,115,0,4,,,,,,,,3,,,65,0
23755,note_on,115,0,5,,,,,,,,4,,,53,0
23755,note_on,0,0,6,,,,,,,,5,,,65,0
23755,note_on,115,0,6,,,,,,,,5,,,53,0
23760,note_on,5,0,4,,,,,,,,3,,,64,85
23760,note_on,5,0,6,,,,,,,,5,,,64,64
23760,note_on,15,0,1,,,,,,,,0,,,72,85
23760,note_on,15,0,3,,,,,,,,2,,,60,85
23760,note_on,15,0,2,,,,,,,,1,,,60,85
23760,note_on,5,0,5,,,,,,,,4,,,52,85
23760,note_on,0,0,6,,,,,,,,5,,,52,85
23875,note_on,115,0,4,,,,,,,,3,,,64,0
23875,note_on,115,0,5,,,,,,,,4,,,52,0
23875,note_on,115,0,6,,,,,,,,5,,,52,0
23875,note_on,0,0,6,,,,,,,,5,,,64,0
23880,note_on,5,0,6,,,,,,,,5,,,62,64
23880,note_on,5,0,4,,,,,,,,3,,,62,85
23880,note_on,5,0,5,,,,,,,,4,,,50,85
23880,note_on,0,0,6,,,,,,,,5,,,50,85
23985,note_on,225,0,2,,,,,,,,1,,,60,0
23985,note_on,225,0,1,,,,,,,,0,,,72,0
23985,note_on,225,0,3,,,,,,,,2,,,60,0
23995,note_on,115,0,5,,,,,,,,4,,,50,0
23995,note_on,115,0,6,,,,,,,,5,,,50,0
23995,note_on,0,0,6,,,,,,,,5,,,62,0
23995,note_on,115,0,4,,,,,,,,3,,,62,0
24000,note_on,15,0,2,,,,,,,,1,,,81,49
24000,note_on,15,0,1,,,,,,,,0,,,84,49
24000,note_on,0,0,6,,,,,,,,5,,,48,49
24000,note_on,5,0,6,,,,,,,,5,,,69,64
24000,note_on,0,0,6,,,,,,,,5,,,65,64
24000,note_on,5,0,4,,,,,,,,3,,,60,49
24000,note_on,15,0,3,,,,,,,,2,,,77,49
24000,note_on,5,0,5,,,,,,,,4,,,48,49
24115,note_on,115,0,2,,,,,,,,1,,,81,0
24115,note_on,115,0,6,,,,,,,,5,,,48,0
24115,note_on,115,0,1,,,,,,,,0,,,84,0
24115,note_on,115,0,3,,,,,,,,2,,,77,0
24115,note_on,115,0,4,,,,,,,,3,,,60,0
24115,note_on,115,0,5,,,,,,,,4,,,48,0
24120,note_on,5,0,1,,,,,,,,0,,,81,49
24120,note_on,5,0,4,,,,,,,,3,,,72,49
24120,note_on,5,0,6,,,,,,,,5,,,60,49
24120,note_on,5,0,2,,,,,,,,1,,,77,49
24120,note_on,5,0,3,,,,,,,,2,,,72,49
24120,note_on,5,0,5,,,,,,,,4,,,60,49
24235,note_on,115,0,6,,,,,,,,5,,,60,0
24235,note_on,115,0,2,,,,,,,,1,,,77,0
24235,note_on,115,0,4,,,,,,,,3,,,72,0
24235,note_on,115,0,5,,,,,,,,4,,,60,0
24235,note_on,115,0,1,,,,,,,,0,,,81,0
24235,note_on,115,0,3,,,,,,,,2,,,72,0
24240,note_on,5,0,6,,,,,,,,5,,,60,49
24240,note_on,5,0,1,,,,,,,,0,,,84,49
24240,note_on,5,0,5,,,,,,,,4,,,60,49
24240,note_on,5,0,2,,,,,,,,1,,,81,49
24240,note_on,5,0,4,,,,,,,,3,,,72,49
24240,note_on,5,0,3,,,,,,,,2,,,77,49
24355,note_on,115,0,2,,,,,,,,1,,,81,0
24355,note_on,115,0,6,,,,,,,,5,,,60,0
24355,note_on,115,0,1,,,,,,,,0,,,84,0
24355,note_on,115,0,4,,,,,,,,3,,,72,0
24355,note_on,115,0,5,,,,,,,,4,,,60,0
24355,note_on,115,0,3,,,,,,,,2,,,77,0
24360,note_on,5,0,4,,,,,,,,3,,,72,49
24360,note_on,5,0,3,,,,,,,,2,,,72,49
24360,note_on,5,0,5,,,,,,,,4,,,60,49
24360,note_on,5,0,6,,,,,,,,5,,,60,49
24360,note_on,5,0,2,,,,,,,,1,,,77,49
24360,note_on,5,0,1,,,,,,,,0,,,81,49
24475,note_on,115,0,2,,,,,,,,1,,,77,0
24475,note_on,115,0,6,,,,,,,,5,,,60,0
24475,note_on,115,0,4,,,,,,,,3,,,72,0
24475,note_on,115,0,3,,,,,,,,2,,,72,0
24475,note_on,115,0,5,,,,,,,,4,,,60,0
24475,note_on,115,0,1,,,,,,,,0,,,81,0
24480,note_on,5,0,4,,,,,,,,3,,,60,49
24480,note_on,5,0,1,,,,,,,,0,,,84,49
24480,note_on,5,0,2,,,,,,,,1,,,81,64
24480,note_on,5,0,5,,,,,,,,4,,,48,49
24480,note_on,5,0,3,,,,,,,,2,,,77,49
24480,note_on,5,0,6,,,,,,,,5,,,48,49
24595,note_on,115,0,4,,,,,,,,3,,,60,0
24595,note_on,115,0,1,,,,,,,,0,,,84,0
24595,note_on,115,0,2,,,,,,,,1,,,81,0
24595,note_on,115,0,5,,,,,,,,4,,,48,0
24595,note_on,115,0,3,,,,,,,,2,,,77,0
24595,note_on,115,0,6,,,,,,,,5,,,48,0
24600,note_on,5,0,3,,,,,,,,2,,,72,49
24600,note_on,5,0,6,,,,,,,,5,,,60,49
24600,note_on,5,0,1,,,,,,,,0,,,81,49
24600,note_on,5,0,2,,,,,,,,1,,,77,64
24600,note_on,5,0,4,,,,,,,,3,,,72,49
24600,note_on,5,0,5,,,,,,,,4,,,60,49
24715,note_on,115,0,1,,,,,,,,0,,,81,0
24715,note_on,115,0,6,,,,,,,,5,,,60,0
24715,note_on,115,0,2,,,,,,,,1,,,77,0
24715,note_on,115,0,3,,,,,,,,2,,,72,0
24715,note_on,115,0,4,,,,,,,,3,,,72,0
24715,note_on,115,0,5,,,,,,,,4,,,60,0
24720,note_on,5,0,1,,,,,,,,0,,,84,64
24720,note_on,5,0,2,,,,,,,,1,,,81,64
24720,note_on,5,0,3,,,,,,,,2,,,77,49
24720,note_on,5,0,6,,,,,,,,5,,,60,49
24720,note_on,5,0,4,,,,,,,,3,,,72,49
24720,note_on,5,0,5,,,,,,,,4,,,60,49
24835,note_on,115,0,4,,,,,,,,3,,,72,0
24835,note_on,115,0,2,,,,,,,,1,,,81,0
24835,note_on,115,0,5,,,,,,,,4,,,60,0
24835,note_on,115,0,6,,,,,,,,5,,,60,0
24835,note_on,115,0,1,,,,,,,,0,,,84,0
24835,note_on,115,0,3,,,,,,,,2,,,77,0
24840,note_on,5,0,5,,,,,,,,4,,,60,49
24840,note_on,5,0,4,,,,,,,,3,,,72,49
24840,note_on,5,0,6,,,,,,,,5,,,60,49
24840,note_on,5,0,2,,,,,,,,1,,,77,64
24840,note_on,5,0,1,,,,,,,,0,,,81,64
24840,note_on,5,0,3,,,,,,,,2,,,72,49
24885,note_on,0,0,6,,,,,,,,5,,,69,0
24885,note_on,45,0,6,,,,,,,,5,,,65,0
24955,note_on,115,0,4,,,,,,,,3,,,72,0
24955,note_on,70,0,6,,,,,,,,5,,,60,0
24955,note_on,115,0,3,,,,,,,,2,,,72,0
24955,note_on,115,0,1,,,,,,,,0,,,81,0
24955,note_on,115,0,2,,,,,,,,1,,,77,0
24955,note_on,115,0,5,,,,,,,,4,,,60,0
24960,note_on,5,0,6,,,,,,,,5,,,67,64
24960,note_on,0,0,6,,,,,,,,5,,,65,64
24960,note_on,5,0,2,,,,,,,,1,,,79,64
24960,note_on,5,0,3,,,,,,,,2,,,77,64
24960,note_on,5,0,4,,,,,,,,3,,,60,49
24960,note_on,5,0,5,,,,,,,,4,,,48,64
24960,note_on,5,0,1,,,,,,,,0,,,84,64
24960,note_on,0,0,6,,,,,,,,5,,,48,49
25075,note_on,115,0,5,,,,,,,,4,,,48,0
25075,note_on,115,0,3,,,,,,,,2,,,77,0
25075,note_on,115,0,6,,,,,,,,5,,,48,0
25075,note_on,115,0,1,,,,,,,,0,,,84,0
25075,note_on,115,0,2,,,,,,,,1,,,79,0
25075,note_on,115,0,4,,,,,,,,3,,,60,0
25080,note_on,5,0,4,,,,,,,,3,,,72,49
25080,note_on,5,0,2,,,,,,,,1,,,77,64
25080,note_on,5,0,3,,,,,,,,2,,,72,64
25080,note_on,5,0,5,,,,,,,,4,,,60,64
25080,note_on,5,0,1,,,,,,,,0,,,79,64
25080,note_on,5,0,6,,,,,,,,5,,,60,49
25195,note_on,115,0,1,,,,,,,,0,,,79,0
25195,note_on,115,0,2,,,,,,,,1,,,77,0
25195,note_on,115,0,5,,,,,,,,4,,,60,0
25195,note_on,115,0,3,,,,,,,,2,,,72,0
25195,note_on,115,0,4,,,,,,,,3,,,72,0
25195,note_on,115,0,6,,,,,,,,5,,,60,0
25200,note_on,5,0,2,,,,,,,,1,,,79,64
25200,note_on,5,0,1,,,,,,,,0,,,84,64
25200,note_on,5,0,4,,,,,,,,3,,,72,49
25200,note_on,5,0,3,,,,,,,,2,,,77,64
25200,note_on,5,0,5,,,,,,,,4,,,60,64
25200,note_on,5,0,6,,,,,,,,5,,,60,49
25315,note_on,115,0,2,,,,,,,,1,,,79,0
25315,note_on,115,0,5,,,,,,,,4,,,60,0
25315,note_on,115,0,6,,,,,,,,5,,,60,0
25315,note_on,115,0,3,,,,,,,,2,,,77,0
25315,note_on,115,0,1,,,,,,,,0,,,84,0
25315,note_on,115,0,4,,,,,,,,3,,,72,0
25320,note_on,5,0,5,,,,,,,,4,,,60,64
25320,note_on,5,0,4,,,,,,,,3,,,72,64
25320,note_on,5,0,6,,,,,,,,5,,,60,49
25320,note_on,5,0,3,,,,,,,,2,,,72,64
25320,note_on,5,0,1,,,,,,,,0,,,79,64
25320,note_on,5,0,2,,,,,,,,1,,,77,64
25435,note_on,115,0,2,,,,,,,,1,,,77,0
25435,note_on,115,0,3,,,,,,,,2,,,72,0
25435,note_on,115,0,6,,,,,,,,5,,,60,0
25435,note_on,115,0,4,,,,,,,,3,,,72,0
25435,note_on,115,0,5,,,,,,,,4,,,60,0
25435,note_on,115,0,1,,,,,,,,0,,,79,0
25440,note_on,5,0,1,,,,,,,,0,,,84,85
25440,note_on,5,0,6,,,,,,,,5,,,48,49
25440,note_on,5,0,4,,,,,,,,3,,,60,64
25440,note_on,5,0,5,,,,,,,,4,,,48,64
25440,note_on,5,0,2,,,,,,,,1,,,79,64
25440,note_on,5,0,3,,,,,,,,2,,,77,64
25555,note_on,115,0,6,,,,,,,,5,,,48,0
25555,note_on,115,0,2,,,,,,,,1,,,79,0
25555,note_on,115,0,3,,,,,,,,2,,,77,0
25555,note_on,115,0,1,,,,,,,,0,,,84,0
25555,note_on,115,0,4,,,,,,,,3,,,60,0
25555,note_on,115,0,5,,,,,,,,4,,,48,0
25560,note_on,5,0,5,,,,,,,,4,,,60,64
25560,note_on,5,0,3,,,,,,,,2,,,72,64
25560,note_on,5,0,2,,,,,,,,1,,,77,64
25560,note_on,5,0,1,,,,,,,,0,,,79,85
25560,note_on,5,0,6,,,,,,,,5,,,60,49
25560,note_on,5,0,4,,,,,,,,3,,,72,64
25675,note_on,115,0,2,,,,,,,,1,,,77,0
25675,note_on,115,0,4,,,,,,,,3,,,72,0
25675,note_on,115,0,3,,,,,,,,2,,,72,0
25675,note_on,115,0,5,,,,,,,,4,,,60,0
25675,note_on,115,0,1,,,,,,,,0,,,79,0
25675,note_on,115,0,6,,,,,,,,5,,,60,0
25680,note_on,5,0,3,,,,,,,,2,,,77,64
25680,note_on,5,0,5,,,,,,,,4,,,60,64
25680,note_on,5,0,4,,,,,,,,3,,,72,64
25680,note_on,5,0,1,,,,,,,,0,,,84,85
25680,note_on,5,0,6,,,,,,,,5,,,60,49
25680,note_on,5,0,2,,,,,,,,1,,,79,85
25795,note_on,115,0,1,,,,,,,,0,,,84,0
25795,note_on,115,0,4,,,,,,,,3,,,72,0
25795,note_on,115,0,6,,,,,,,,5,,,60,0
25795,note_on,115,0,2,,,,,,,,1,,,79,0
25795,note_on,115,0,5,,,,,,,,4,,,60,0
25795,note_on,115,0,3,,,,,,,,2,,,77,0
25800,note_on,5,0,6,,,,,,,,5,,,60,49
25800,note_on,5,0,5,,,,,,,,4,,,60,64
25800,note_on,5,0,1,,,,,,,,0,,,79,85
25800,note_on,5,0,2,,,,,,,,1,,,77,85
25800,note_on,5,0,4,,,,,,,,3,,,72,64
25800,note_on,5,0,3,,,,,,,,2,,,72,64
25845,note_on,0,0,6,,,,,,,,5,,,67,0
25845,note_on,45,0,6,,,,,,,,5,,,65,0
25915,note_on,115,0,1,,,,,,,,0,,,79,0
25915,note_on,115,0,2,,,,,,,,1,,,77,0
25915,note_on,115,0,3,,,,,,,,2,,,72,0
25915,note_on,115,0,5,,,,,,,,4,,,60,0
25915,note_on,70,0,6,,,,,,,,5,,,60,0
25915,note_on,115,0,4,,,,,,,,3,,,72,0
25920,note_on,0,0,6,,,,,,,,5,,,64,64
25920,note_on,5,0,6,,,,,,,,5,,,67,64
25920,note_on,5,0,3,,,,,,,,2,,,76,85
25920,note_on,5,0,4,,,,,,,,3,,,60,64
25920,note_on,0,0,6,,,,,,,,5,,,48,49
25920,note_on,5,0,5,,,,,,,,4,,,48,64
25920,note_on,5,0,1,,,,,,,,0,,,84,85
25920,note_on,5,0,2,,,,,,,,1,,,79,85
26035,note_on,115,0,5,,,,,,,,4,,,48,0
26035,note_on,115,0,4,,,,,,,,3,,,60,0
26035,note_on,115,0,6,,,,,,,,5,,,48,0
26035,note_on,115,0,2,,,,,,,,1,,,79,0
26035,note_on,115,0,1,,,,,,,,0,,,84,0
26035,note_on,115,0,3,,,,,,,,2,,,76,0
26040,note_on,5,0,1,,,,,,,,0,,,79,85
26040,note_on,5,0,5,,,,,,,,4,,,60,64
26040,note_on,5,0,2,,,,,,,,1,,,76,85
26040,note_on,5,0,6,,,,,,,,5,,,60,49
26040,note_on,5,0,4,,,,,,,,3,,,72,64
26040,note_on,5,0,3,,,,,,,,2,,,72,85
26155,note_on,115,0,6,,,,,,,,5,,,60,0
26155,note_on,115,0,4,,,,,,,,3,,,72,0
26155,note_on,115,0,2,,,,,,,,1,,,76,0
26155,note_on,115,0,1,,,,,,,,0,,,79,0
26155,note_on,115,0,5,,,,,,,,4,,,60,0
26155,note_on,115,0,3,,,,,,,,2,,,72,0
26160,note_on,5,0,6,,,,,,,,5,,,60,49
26160,note_on,5,0,1,,,,,,,,0,,,84,85
26160,note_on,5,0,5,,,,,,,,4,,,60,64
26160,note_on,5,0,4,,,,,,,,3,,,72,85
26160,note_on,5,0,2,,,,,,,,1,,,79,85
26160,note_on,5,0,3,,,,,,,,2,,,76,85
26275,note_on,115,0,3,,,,,,,,2,,,76,0
26275,note_on,115,0,6,,,,,,,,5,,,60,0
26275,note_on,115,0,4,,,,,,,,3,,,72,0
26275,note_on,115,0,2,,,,,,,,1,,,79,0
26275,note_on,115,0,1,,,,,,,,0,,,84,0
26275,note_on,115,0,5,,,,,,,,4,,,60,0
26280,note_on,5,0,1,,,,,,,,0,,,79,85
26280,note_on,5,0,2,,,,,,,,1,,,76,85
26280,note_on,5,0,5,,,,,,,,4,,,60,64
26280,note_on,5,0,3,,,,,,,,2,,,72,85
26280,note_on,5,0,6,,,,,,,,5,,,60,49
26280,note_on,5,0,4,,,,,,,,3,,,72,85
26395,note_on,115,0,1,,,,,,,,0,,,79,0
26395,note_on,115,0,6,,,,,,,,5,,,60,0
26395,note_on,115,0,5,,,,,,,,4,,,60,0
26395,note_on,115,0,3,,,,,,,,2,,,72,0
26395,note_on,115,0,4,,,,,,,,3,,,72,0
26395,note_on,115,0,2,,,,,,,,1,,,76,0
26400,note_on,5,0,1,,,,,,,,0,,,84,85
26400,note_on,5,0,3,,,,,,,,2,,,76,85
26400,note_on,5,0,6,,,,,,,,5,,,48,49
26400,note_on,5,0,5,,,,,,,,4,,,48,85
26400,note_on,5,0,2,,,,,,,,1,,,79,85
26400,note_on,5,0,4,,,,,,,,3,,,60,85
26515,note_on,115,0,1,,,,,,,,0,,,84,0
26515,note_on,115,0,5,,,,,,,,4,,,48,0
26515,note_on,115,0,2,,,,,,,,1,,,79,0
26515,note_on,115,0,3,,,,,,,,2,,,76,0
26515,note_on,115,0,6,,,,,,,,5,,,48,0
26515,note_on,115,0,4,,,,,,,,3,,,60,0
26520,note_on,5,0,1,,,,,,,,0,,,79,85
26520,note_on,5,0,5,,,,,,,,4,,,60,85
26520,note_on,5,0,3,,,,,,,,2,,,72,85
26520,note_on,5,0,2,,,,,,,,1,,,76,85
26520,note_on,5,0,6,,,,,,,,5,,,60,49
26520,note_on,5,0,4,,,,,,,,3,,,72,85
26635,note_on,115,0,6,,,,,,,,5,,,60,0
26635,note_on,115,0,2,,,,,,,,1,,,76,0
26635,note_on,115,0,4,,,,,,,,3,,,72,0
26635,note_on,115,0,3,,,,,,,,2,,,72,0
26635,note_on,115,0,1,,,,,,,,0,,,79,0
26635,note_on,115,0,5,,,,,,,,4,,,60,0
26640,note_on,5,0,3,,,,,,,,2,,,76,85
26640,note_on,5,0,5,,,,,,,,4,,,60,85
26640,note_on,5,0,2,,,,,,,,1,,,79,85
26640,note_on,5,0,1,,,,,,,,0,,,84,85
26640,note_on,5,0,4,,,,,,,,3,,,72,85
26640,note_on,5,0,6,,,,,,,,5,,,60,49
26755,note_on,115,0,6,,,,,,,,5,,,60,0
26755,note_on,115,0,3,,,,,,,,2,,,76,0
26755,note_on,115,0,5,,,,,,,,4,,,60,0
26755,note_on,115,0,1,,,,,,,,0,,,84,0
26755,note_on,115,0,4,,,,,,,,3,,,72,0
26755,note_on,115,0,2,,,,,,,,1,,,79,0
26760,note_on,5,0,4,,,,,,,,3,,,72,85
26760,note_on,5,0,2,,,,,,,,1,,,76,85
26760,note_on,5,0,5,,,,,,,,4,,,60,85
26760,note_on,5,0,1,,,,,,,,0,,,79,85
26760,note_on,5,0,3,,,,,,,,2,,,72,85
26760,note_on,5,0,6,,,,,,,,5,,,60,49
26805,note_on,0,0,6,,,,,,,,5,,,67,0
26805,note_on,45,0,6,,,,,,,,5,,,64,0
26875,note_on,115,0,5,,,,,,,,4,,,60,0
26875,note_on,70,0,6,,,,,,,,5,,,60,0
26875,note_on,115,0,1,,,,,,,,0,,,79,0
26875,note_on,115,0,3,,,,,,,,2,,,72,0
26875,note_on,115,0,2,,,,,,,,1,,,76,0
26875,note_on,115,0,4,,,,,,,,3,,,72,0
26880,note_on,5,0,6,,,,,,,,5,,,65,64
26880,note_on,5,0,1,,,,,,,,0,,,77,85
26880,note_on,5,0,5,,,,,,,,4,,,53,106
26880,note_on,5,0,2,,,,,,,,1,,,77,106
26880,note_on,0,0,6,,,,,,,,5,,,53,49
26880,note_on,5,0,3,,,,,,,,2,,,77,106
26880,note_on,5,0,4,,,,,,,,3,,,65,106
27105,note_on,225,0,2,,,,,,,,1,,,77,0
27105,note_on,0,0,6,,,,,,,,5,,,65,0
27105,note_on,225,0,6,,,,,,,,5,,,53,0
27105,note_on,225,0,3,,,,,,,,2,,,77,0
27105,note_on,225,0,1,,,,,,,,0,,,77,0
27105,note_on,225,0,4,,,,,,,,3,,,65,0
27105,note_on,225,0,5,,,,,,,,4,,,53,0
27120,note_on,15,0,2,,,,,,,,1,,,76,106
27120,note_on,15,0,4,,,,,,,,3,,,64,106
27120,note_on,15,0,6,,,,,,,,5,,,64,64
27120,note_on,15,0,5,,,,,,,,4,,,52,106
27120,note_on,0,0,6,,,,,,,,5,,,52,49
27120,note_on,15,0,1,,,,,,,,0,,,76,85
27120,note_on,15,0,3,,,,,,,,2,,,76,106
27235,note_on,115,0,5,,,,,,,,4,,,52,0
27235,note_on,115,0,1,,,,,,,,0,,,76,0
27235,note_on,115,0,4,,,,,,,,3,,,64,0
27235,note_on,115,0,2,,,,,,,,1,,,76,0
27235,note_on,115,0,6,,,,,,,,5,,,52,0
27235,note_on,0,0,6,,,,,,,,5,,,64,0
27235,note_on,115,0,3,,,,,,,,2,,,76,0
27240,note_on,5,0,3,,,,,,,,2,,,74,106
27240,note_on,5,0,2,,,,,,,,1,,,74,106
27240,note_on,5,0,6,,,,,,,,5,,,62,64
27240,note_on,0,0,6,,,,,,,,5,,,50,49
27240,note_on,5,0,1,,,,,,,,0,,,74,85
27240,note_on,5,0,4,,,,,,,,3,,,62,106
27240,note_on,5,0,5,,,,,,,,4,,,50,106
27355,note_on,115,0,3,,,,,,,,2,,,74,0
27355,note_on,115,0,2,,,,,,,,1,,,74,0
27355,note_on,115,0,6,,,,,,,,5,,,50,0
27355,note_on,0,0,6,,,,,,,,5,,,62,0
27355,note_on,115,0,5,,,,,,,,4,,,50,0
27355,note_on,115,0,1,,,,,,,,0,,,74,0
27355,note_on,115,0,4,,,,,,,,3,,,62,0
27360,note_on,5,0,6,,,,,,,,5,,,60,64
27360,note_on,5,0,1,,,,,,,,0,,,72,85
27360,note_on,5,0,4,,,,,,,,3,,,60,106
27360,note_on,5,0,5,,,,,,,,4,,,48,106
27360,note_on,5,0,2,,,,,,,,1,,,72,106
27360,note_on,5,0,3,,,,,,,,2,,,72,106
27360,note_on,0,0,6,,,,,,,,5,,,48,49
27475,note_on,115,0,3,,,,,,,,2,,,72,0
27475,note_on,115,0,5,,,,,,,,4,,,48,0
27475,note_on,115,0,4,,,,,,,,3,,,60,0
27475,note_on,115,0,2,,,,,,,,1,,,72,0
27475,note_on,115,0,6,,,,,,,,5,,,48,0
27475,note_on,115,0,1,,,,,,,,0,,,72,0
27475,note_on,0,0,6,,,,,,,,5,,,60,0
27480,note_on,5,0,1,,,,,,,,0,,,70,85
27480,note_on,5,0,2,,,,,,,,1,,,70,106
27480,note_on,0,0,6,,,,,,,,5,,,46,49
27480,note_on,5,0,6,,,,,,,,5,,,58,64
27480,note_on,5,0,4,,,,,,,,3,,,58,106
27480,note_on,5,0,3,,,,,,,,2,,,70,106
27480,note_on,5,0,5,,,,,,,,4,,,46,106
27595,note_on,115,0,3,,,,,,,,2,,,70,0
27595,note_on,115,0,2,,,,,,,,1,,,70,0
27595,note_on,115,0,5,,,,,,,,4,,,46,0
27595,note_on,115,0,4,,,,,,,,3,,,58,0
27595,note_on,115,0,1,,,,,,,,0,,,70,0
27595,note_on,0,0,6,,,,,,,,5,,,58,0
27595,note_on,115,0,6,,,,,,,,5,,,46,0
27600,note_on,5,0,2,,,,,,,,1,,,69,106
27600,note_on,5,0,4,,,,,,,,3,,,57,106
27600,note_on,5,0,5,,,,,,,,4,,,45,106
27600,note_on,0,0,6,,,,,,,,5,,,45,49
27600,note_on,5,0,6,,,,,,,,5,,,57,64
27600,note_on,5,0,3,,,,,,,,2,,,69,106
27600,note_on,5,0,1,,,,,,,,0,,,69,85
27715,note_on,115,0,2,,,,,,,,1,,,69,0
27715,note_on,115,0,6,,,,,,,,5,,,45,0
27715,note_on,0,0,6,,,,,,,,5,,,57,0
27715,note_on,115,0,1,,,,,,,,0,,,69,0
27715,note_on,115,0,5,,,,,,,,4,,,45,0
27715,note_on,115,0,4,,,,,,,,3,,,57,0
27715,note_on,115,0,3,,,,,,,,2,,,69,0
27720,note_on,5,0,3,,,,,,,,2,,,67,106
27720,note_on,5,0,1,,,,,,,,0,,,67,85
27720,note_on,5,0,4,,,,,,,,3,,,55,106
27720,note_on,0,0,6,,,,,,,,5,,,43,49
27720,note_on,5,0,2,,,,,,,,1,,,67,106
27720,note_on,5,0,6,,,,,,,,5,,,55,64
27720,note_on,5,0,5,,,,,,,,4,,,43,106
27835,note_on,115,0,3,,,,,,,,2,,,67,0
27835,note_on,0,0,6,,,,,,,,5,,,55,0
27835,note_on,115,0,2,,,,,,,,1,,,67,0
27835,note_on,115,0,6,,,,,,,,5,,,43,0
27835,note_on,115,0,5,,,,,,,,4,,,43,0
27835,note_on,115,0,4,,,,,,,,3,,,55,0
27835,note_on,115,0,1,,,,,,,,0,,,67,0
27840,note_on,0,0,6,,,,,,,,5,,,41,49
27840,note_on,5,0,4,,,,,,,,3,,,53,106
27840,note_on,5,0,6,,,,,,,,5,,,53,64
27840,note_on,5,0,2,,,,,,,,1,,,65,106
27840,note_on,5,0,5,,,,,,,,4,,,41,106
27840,note_on,5,0,1,,,,,,,,0,,,65,106
27840,note_on,5,0,3,,,,,,,,2,,,65,106
28065,note_on,225,0,1,,,,,,,,0,,,65,0
28065,note_on,225,0,6,,,,,,,,5,,,41,0
28065,note_on,225,0,3,,,,,,,,2,,,65,0
28065,note_on,0,0,6,,,,,,,,5,,,53,0
28065,note_on,225,0,5,,,,,,,,4,,,41,0
28065,note_on,225,0,4,,,,,,,,3,,,53,0
28065,note_on,225,0,2,,,,,,,,1,,,65,0
28080,note_on,15,0,3,,,,,,,,2,,,65,106
28080,note_on,15,0,6,,,,,,,,5,,,53,64
28080,note_on,0,0,6,,,,,,,,5,,,41,49
28080,note_on,15,0,4,,,,,,,,3,,,53,106
28080,note_on,15,0,1,,,,,,,,0,,,65,106
28080,note_on,15,0,2,,,,,,,,1,,,65,106
28080,note_on,15,0,5,,,,,,,,4,,,41,106
28305,note_on,225,0,6,,,,,,,,5,,,41,0
28305,note_on,0,0,6,,,,,,,,5,,,53,0
28305,note_on,225,0,3,,,,,,,,2,,,65,0
28305,note_on,225,0,2,,,,,,,,1,,,65,0
28305,note_on,225,0,5,,,,,,,,4,,,41,0
28305,note_on,225,0,4,,,,,,,,3,,,53,0
28305,note_on,225,0,1,,,,,,,,0,,,65,0
28320,note_on,15,0,1,,,,,,,,0,,,65,106
28320,note_on,15,0,4,,,,,,,,3,,,53,106
28320,note_on,15,0,3,,,,,,,,2,,,65,106
28320,note_on,15,0,6,,,,,,,,5,,,53,64
28320,note_on,0,0,6,,,,,,,,5,,,41,49
28320,note_on,15,0,5,,,,,,,,4,,,41,106
28320,note_on,15,0,2,,,,,,,,1,,,65,106
28545,note_on,225,0,1,,,,,,,,0,,,65,0
28545,note_on,225,0,3,,,,,,,,2,,,65,0
28545,note_on,225,0,5,,,,,,,,4,,,41,0
28545,note_on,225,0,6,,,,,,,,5,,,41,0
28545,note_on,0,0,6,,,,,,,,5,,,53,0
28545,note_on,225,0,4,,,,,,,,3,,,53,0
28545,note_on,225,0,2,,,,,,,,1,,,65,0
28560,note_on,15,0,2,,,,,,,,1,,,65,106
28560,note_on,15,0,5,,,,,,,,4,,,41,106
28560,note_on,15,0,4,,,,,,,,3,,,53,106
28560,note_on,15,0,1,,,,,,,,0,,,65,106
28560,note_on,15,0,6,,,,,,,,5,,,53,64
28560,note_on,0,0,6,,,,,,,,5,,,41,49
28560,note_on,15,0,3,,,,,,,,2,,,65,106
28785,note_on,225,0,4,,,,,,,,3,,,53,0
28785,note_on,0,0,6,,,,,,,,5,,,53,0
28785,note_on,225,0,1,,,,,,,,0,,,65,0
28785,note_on,225,0,3,,,,,,,,2,,,65,0
28785,note_on,225,0,5,,,,,,,,4,,,41,0
28785,note_on,225,0,2,,,,,,,,1,,,65,0
28785,note_on,225,0,6,,,,,,,,5,,,41,0
28800,note_on,15,0,6,,,,,,,,5,,,41,49
28800,note_on,15,0,3,,,,,,,,2,,,65,106
28800,note_on,15,0,4,,,,,,,,3,,,53,106
28800,note_on,15,0,2,,,,,,,,1,,,65,106
28800,note_on,15,0,5,,,,,,,,4,,,41,106
28800,note_on,15,0,1,,,,,,,,0,,,65,106
29245,note_on,445,0,1,,,,,,,,0,,,65,0
29245,note_on,445,0,4,,,,,,,,3,,,53,0
29245,note_on,445,0,5,,,,,,,,4,,,41,0
29245,note_on,445,0,3,,,,,,,,2,,,65,0
29245,note_on,445,0,2,,,,,,,,1,,,65,0
29245,note_on,445,0,6,,,,,,,,5,,,41,0
29760,note_on,515,0,2,,,,,,,,1,,,72,64
29760,note_on,515,0,4,,,,,,,,3,,,53,64
29760,note_on,515,0,5,,,,,,,,4,,,41,64
29760,note_on,515,0,6,,,,,,,,5,,,69,64
29760,note_on,0,0,6,,,,,,,,5,,,65,64
29760,note_on,0,0,6,,,,,,,,5,,,60,64
29760,note_on,0,0,6,,,,,,,,5,,,41,49
29760,note_on,515,0,1,,,,,,,,0,,,77,106
29875,note_on,115,0,1,,,,,,,,0,,,77,0
29875,note_on,115,0,2,,,,,,,,1,,,72,0
29880,note_on,5,0,1,,,,,,,,0,,,81,106
29880,note_on,5,0,2,,,,,,,,1,,,77,64
29995,note_on,115,0,2,,,,,,,,1,,,77,0
29995,note_on,115,0,1,,,,,,,,0,,,81,0
30000,note_on,5,0,2,,,,,,,,1,,,72,64
30000,note_on,5,0,1,,,,,,,,0,,,77,106
30115,note_on,115,0,1,,,,,,,,0,,,77,0
30115,note_on,115,0,2,,,,,,,,1,,,72,0
30120,note_on,5,0,2,,,,,,,,1,,,77,64
30120,note_on,5,0,1,,,,,,,,0,,,81,106
30205,note_on,445,0,6,,,,,,,,5,,,41,0
30205,note_on,445,0,5,,,,,,,,4,,,41,0
30205,note_on,445,0,4,,,,,,,,3,,,53,0
30235,note_on,115,0,1,,,,,,,,0,,,81,0
30235,note_on,115,0,2,,,,,,,,1,,,77,0
30240,note_on,35,0,4,,,,,,,,3,,,53,64
30240,note_on,5,0,1,,,,,,,,0,,,72,106
30240,note_on,5,0,2,,,,,,,,1,,,69,64
30240,note_on,35,0,5,,,,,,,,4,,,41,64
30240,note_on,35,0,6,,,,,,,,5,,,41,49
30355,note_on,115,0,1,,,,,,,,0,,,72,0
30355,note_on,115,0,2,,,,,,,,1,,,69,0
30360,note_on,5,0,2,,,,,,,,1,,,77,64
30360,note_on,5,0,1,,,,,,,,0,,,81,106
30475,note_on,115,0,2,,,,,,,,1,,,77,0
30475,note_on,115,0,1,,,,,,,,0,,,81,0
30480,note_on,5,0,2,,,,,,,,1,,,72,64
30480,note_on,5,0,1,,,,,,,,0,,,77,106
30595,note_on,115,0,2,,,,,,,,1,,,72,0
30595,note_on,115,0,1,,,,,,,,0,,,77,0
30600,note_on,5,0,2,,,,,,,,1,,,77,64
30600,note_on,5,0,1,,,,,,,,0,,,81,106
30645,note_on,0,0,6,,,,,,,,5,,,60,0
30645,note_on,0,0,6,,,,,,,,5,,,65,0
30645,note_on,405,0,6,,,,,,,,5,,,69,0
30685,note_on,445,0,5,,,,,,,,4,,,41,0
30685,note_on,40,0,6,,,,,,,,5,,,41,0
30685,note_on,445,0,4,,,,,,,,3,,,53,0
30715,note_on,115,0,1,,,,,,,,0,,,81,0
30715,note_on,115,0,2,,,,,,,,1,,,77,0
30720,note_on,35,0,5,,,,,,,,4,,,41,64
30720,note_on,5,0,2,,,,,,,,1,,,69,64
30720,note_on,5,0,1,,,,,,,,0,,,72,106
30720,note_on,35,0,4,,,,,,,,3,,,53,64
30720,note_on,0,0,6,,,,,,,,5,,,41,49
30720,note_on,35,0,6,,,,,,,,5,,,69,64
30720,note_on,0,0,6,,,,,,,,5,,,65,64
30720,note_on,0,0,6,,,,,,,,5,,,60,64
30835,note_on,115,0,1,,,,,,,,0,,,72,0
30835,note_on,115,0,2,,,,,,,,1,,,69,0
30840,note_on,5,0,1,,,,,,,,0,,,81,106
30840,note_on,5,0,2,,,,,,,,1,,,77,64
30955,note_on,115,0,1,,,,,,,,0,,,81,0
30955,note_on,115,0,2,,,,,,,,1,,,77,0
30960,note_on,5,0,1,,,,,,,,0,,,77,106
30960,note_on,5,0,2,,,,,,,,1,,,72,64
31075,note_on,115,0,2,,,,,,,,1,,,72,0
31075,note_on,115,0,1,,,,,,,,0,,,77,0
31080,note_on,5,0,2,,,,,,,,1,,,77,64
31080,note_on,5,0,1,,,,,,,,0,,,81,106
31165,note_on,445,0,6,,,,,,,,5,,,41,0
31165,note_on,445,0,5,,,,,,,,4,,,41,0
31165,note_on,445,0,4,,,,,,,,3,,,53,0
31195,note_on,115,0,1,,,,,,,,0,,,81,0
31195,note_on,115,0,2,,,,,,,,1,,,77,0
31200,note_on,35,0,4,,,,,,,,3,,,53,64
31200,note_on,35,0,6,,,,,,,,5,,,41,49
31200,note_on,5,0,1,,,,,,,,0,,,72,106
31200,note_on,5,0,2,,,,,,,,1,,,69,64
31200,note_on,35,0,5,,,,,,,,4,,,41,64
31315,note_on,115,0,2,,,,,,,,1,,,69,0
31315,note_on,115,0,1,,,,,,,,0,,,72,0
31320,note_on,5,0,2,,,,,,,,1,,,77,64
31320,note_on,5,0,1,,,,,,,,0,,,81,106
31435,note_on,115,0,2,,,,,,,,1,,,77,0
31435,note_on,115,0,1,,,,,,,,0,,,81,0
31440,note_on,5,0,1,,,,,,,,0,,,77,106
31440,note_on,5,0,2,,,,,,,,1,,,72,64
31555,note_on,115,0,1,,,,,,,,0,,,77,0
31555,note_on,115,0,2,,,,,,,,1,,,72,0
31560,note_on,5,0,1,,,,,,,,0,,,81,106
31560,note_on,5,0,2,,,,,,,,1,,,77,64
31605,note_on,0,0,6,,,,,,,,5,,,65,0
31605,note_on,405,0,6,,,,,,,,5,,,69,0
31605,note_on,0,0,6,,,,,,,,5,,,60,0
31645,note_on,445,0,4,,,,,,,,3,,,53,0
31645,note_on,445,0,5,,,,,,,,4,,,41,0
31645,note_on,40,0,6,,,,,,,,5,,,41,0
31675,note_on,115,0,2,,,,,,,,1,,,77,0
31675,note_on,115,0,1,,,,,,,,0,,,81,0
31680,note_on,5,0,2,,,,,,,,1,,,76,64
31680,note_on,35,0,6,,,,,,,,5,,,67,64
31680,note_on,35,0,4,,,,,,,,3,,,60,64
31680,note_on,0,0,6,,,,,,,,5,,,60,64
31680,note_on,5,0,1,,,,,,,,0,,,72,106
31680,note_on,0,0,6,,,,,,,,5,,,48,49
31680,note_on,35,0,5,,,,,,,,4,,,48,64
31680,note_on,0,0,6,,,,,,,,5,,,64,64
31795,note_on,115,0,1,,,,,,,,0,,,72,0
31795,note_on,115,0,2,,,,,,,,1,,,76,0
31800,note_on,5,0,1,,,,,,,,0,,,79,106
31800,note_on,5,0,2,,,,,,,,1,,,76,64
31915,note_on,115,0,2,,,,,,,,1,,,76,0
31915,note_on,115,0,1,,,,,,,,0,,,79,0
31920,note_on,5,0,2,,,,,,,,1,,,72,64
31920,note_on,5,0,1,,,,,,,,0,,,76,106
32035,note_on,115,0,2,,,,,,,,1,,,72,0
32035,note_on,115,0,1,,,,,,,,0,,,76,0
32040,note_on,5,0,2,,,,,,,,1,,,76,64
32040,note_on,5,0,1,,,,,,,,0,,,79,106
32125,note_on,445,0,5,,,,,,,,4,,,48,0
32125,note_on,445,0,4,,,,,,,,3,,,60,0
32125,note_on,445,0,6,,,,,,,,5,,,48,0
32155,note_on,115,0,1,,,,,,,,0,,,79,0
32155,note_on,115,0,2,,,,,,,,1,,,76,0
32160,note_on,5,0,2,,,,,,,,1,,,67,64
32160,note_on,35,0,5,,,,,,,,4,,,48,64
32160,note_on,35,0,6,,,,,,,,5,,,48,49
32160,note_on,35,0,4,,,,,,,,3,,,60,64
32160,note_on,5,0,1,,,,,,,,0,,,72,106
32275,note_on,115,0,1,,,,,,,,0,,,72,0
32275,note_on,115,0,2,,,,,,,,1,,,67,0
32280,note_on,5,0,1,,,,,,,,0,,,79,106
32280,note_on,5,0,2,,,,,,,,1,,,76,64
32395,note_on,115,0,1,,,,,,,,0,,,79,0
32395,note_on,115,0,2,,,,,,,,1,,,76,0
32400,note_on,5,0,2,,,,,,,,1,,,72,64
32400,note_on,5,0,1,,,,,,,,0,,,76,106
32515,note_on,115,0,2,,,,,,,,1,,,72,0
32515,note_on,115,0,1,,,,,,,,0,,,76,0
32520,note_on,5,0,2,,,,,,,,1,,,76,64
32520,note_on,5,0,1,,,,,,,,0,,,79,106
32565,note_on,405,0,6,,,,,,,,5,,,67,0
32565,note_on,0,0,6,,,,,,,,5,,,64,0
32565,note_on,0,0,6,,,,,,,,5,,,60,0
32605,note_on,445,0,5,,,,,,,,4,,,48,0
32605,note_on,40,0,6,,,,,,,,5,,,48,0
32605,note_on,445,0,4,,,,,,,,3,,,60,0
32635,note_on,115,0,2,,,,,,,,1,,,76,0
32635,note_on,115,0,1,,,,,,,,0,,,79,0
32640,note_on,5,0,1,,,,,,,,0,,,72,106
32640,note_on,5,0,2,,,,,,,,1,,,67,64
32640,note_on,35,0,4,,,,,,,,3,,,60,64
32640,note_on,0,0,6,,,,,,,,5,,,64,64
32640,note_on,0,0,6,,,,,,,,5,,,60,64
32640,note_on,35,0,6,,,,,,,,5,,,67,64
32640,note_on,35,0,5,,,,,,,,4,,,48,64
32640,note_on,0,0,6,,,,,,,,5,,,48,49
32755,note_on,115,0,1,,,,,,,,0,,,72,0
32755,note_on,115,0,2,,,,,,,,1,,,67,0
32760,note_on,5,0,1,,,,,,,,0,,,79,106
32760,note_on,5,0,2,,,,,,,,1,,,76,64
32875,note_on,115,0,1,,,,,,,,0,,,79,0
32875,note_on,115,0,2,,,,,,,,1,,,76,0
32880,note_on,5,0,2,,,,,,,,1,,,72,64
32880,note_on,5,0,1,,,,,,,,0,,,76,106
32995,note_on,115,0,1,,,,,,,,0,,,76,0
32995,note_on,115,0,2,,,,,,,,1,,,72,0
33000,note_on,5,0,1,,,,,,,,0,,,79,106
33000,note_on,5,0,2,,,,,,,,1,,,76,64
33085,note_on,445,0,4,,,,,,,,3,,,60,0
33085,note_on,445,0,5,,,,,,,,4,,,48,0
33085,note_on,445,0,6,,,,,,,,5,,,48,0
33115,note_on,115,0,1,,,,,,,,0,,,79,0
33115,note_on,115,0,2,,,,,,,,1,,,76,0
33120,note_on,5,0,1,,,,,,,,0,,,72,106
33120,note_on,35,0,4,,,,,,,,3,,,64,64
33120,note_on,35,0,6,,,,,,,,5,,,52,49
33120,note_on,35,0,5,,,,,,,,4,,,52,64
33120,note_on,5,0,2,,,,,,,,1,,,67,64
33235,note_on,115,0,1,,,,,,,,0,,,72,0
33235,note_on,115,0,2,,,,,,,,1,,,67,0
33240,note_on,5,0,2,,,,,,,,1,,,76,64
33240,note_on,5,0,1,,,,,,,,0,,,79,106
33355,note_on,115,0,1,,,,,,,,0,,,79,0
33355,note_on,115,0,2,,,,,,,,1,,,76,0
33360,note_on,5,0,1,,,,,,,,0,,,76,106
33360,note_on,5,0,2,,,,,,,,1,,,72,64
33475,note_on,115,0,2,,,,,,,,1,,,72,0
33475,note_on,115,0,1,,,,,,,,0,,,76,0
33480,note_on,5,0,2,,,,,,,,1,,,76,64
33480,note_on,5,0,1,,,,,,,,0,,,79,106
33525,note_on,405,0,6,,,,,,,,5,,,67,0
33525,note_on,0,0,6,,,,,,,,5,,,60,0
33525,note_on,0,0,6,,,,,,,,5,,,64,0
33565,note_on,445,0,5,,,,,,,,4,,,52,0
33565,note_on,445,0,4,,,,,,,,3,,,64,0
33565,note_on,40,0,6,,,,,,,,5,,,52,0
33595,note_on,115,0,2,,,,,,,,1,,,76,0
33595,note_on,115,0,1,,,,,,,,0,,,79,0
33600,note_on,0,0,6,,,,,,,,5,,,60,64
33600,note_on,35,0,6,,,,,,,,5,,,65,64
33600,note_on,0,0,6,,,,,,,,5,,,53,49
33600,note_on,5,0,1,,,,,,,,0,,,72,106
33600,note_on,0,0,6,,,,,,,,5,,,57,64
33600,note_on,35,0,4,,,,,,,,3,,,65,64
33600,note_on,35,0,5,,,,,,,,4,,,53,64
33600,note_on,5,0,2,,,,,,,,1,,,69,64
33715,note_on,115,0,2,,,,,,,,1,,,69,0
33715,note_on,115,0,1,,,,,,,,0,,,72,0
33720,note_on,5,0,2,,,,,,,,1,,,77,64
33720,note_on,5,0,1,,,,,,,,0,,,81,106
33835,note_on,115,0,1,,,,,,,,0,,,81,0
33835,note_on,115,0,2,,,,,,,,1,,,77,0
33840,note_on,5,0,1,,,,,,,,0,,,77,106
33840,note_on,5,0,2,,,,,,,,1,,,72,64
33955,note_on,115,0,1,,,,,,,,0,,,77,0
33955,note_on,115,0,2,,,,,,,,1,,,72,0
33960,note_on,5,0,2,,,,,,,,1,,,77,64
33960,note_on,5,0,1,,,,,,,,0,,,81,106
34045,note_on,445,0,6,,,,,,,,5,,,53,0
34045,note_on,445,0,4,,,,,,,,3,,,65,0
34045,note_on,445,0,5,,,,,,,,4,,,53,0
34075,note_on,115,0,2,,,,,,,,1,,,77,0
34075,note_on,115,0,1,,,,,,,,0,,,81,0
34080,note_on,5,0,1,,,,,,,,0,,,72,106
34080,note_on,35,0,6,,,,,,,,5,,,53,49
34080,note_on,35,0,4,,,,,,,,3,,,65,64
34080,note_on,5,0,2,,,,,,,,1,,,69,64
34080,note_on,35,0,5,,,,,,,,4,,,53,64
34195,note_on,115,0,2,,,,,,,,1,,,69,0
34195,note_on,115,0,1,,,,,,,,0,,,72,0
34200,note_on,5,0,1,,,,,,,,0,,,81,106
34200,note_on,5,0,2,,,,,,,,1,,,77,64
34315,note_on,115,0,2,,,,,,,,1,,,77,0
34315,note_on,115,0,1,,,,,,,,0,,,81,0
34320,note_on,5,0,1,,,,,,,,0,,,77,106
34320,note_on,5,0,2,,,,,,,,1,,,72,64
34435,note_on,115,0,2,,,,,,,,1,,,72,0
34435,note_on,115,0,1,,,,,,,,0,,,77,0
34440,note_on,5,0,1,,,,,,,,0,,,81,106
34440,note_on,5,0,2,,,,,,,,1,,,77,64
34485,note_on,405,0,6,,,,,,,,5,,,65,0
34485,note_on,0,0,6,,,,,,,,5,,,57,0
34485,note_on,0,0,6,,,,,,,,5,,,60,0
34525,note_on,445,0,5,,,,,,,,4,,,53,0
34525,note_on,40,0,6,,,,,,,,5,,,53,0
34525,note_on,445,0,4,,,,,,,,3,,,65,0
34555,note_on,115,0,1,,,,,,,,0,,,81,0
34555,note_on,115,0,2,,,,,,,,1,,,77,0
34560,note_on,35,0,4,,,,,,,,3,,,65,64
34560,note_on,35,0,5,,,,,,,,4,,,53,64
34560,note_on,5,0,2,,,,,,,,1,,,69,64
34560,note_on,0,0,6,,,,,,,,5,,,60,64
34560,note_on,5,0,1,,,,,,,,0,,,72,106
34560,note_on,0,0,6,,,,,,,,5,,,57,64
34560,note_on,35,0,6,,,,,,,,5,,,65,64
34560,note_on,0,0,6,,,,,,,,5,,,53,49
34675,note_on,115,0,1,,,,,,,,0,,,72,0
34675,note_on,115,0,2,,,,,,,,1,,,69,0
34680,note_on,5,0,2,,,,,,,,1,,,77,64
34680,note_on,5,0,1,,,,,,,,0,,,81,106
34795,note_on,115,0,1,,,,,,,,0,,,81,0
34795,note_on,115,0,2,,,,,,,,1,,,77,0
34800,note_on,5,0,2,,,,,,,,1,,,72,64
34800,note_on,5,0,1,,,,,,,,0,,,77,106
34915,note_on,115,0,2,,,,,,,,1,,,72,0
34915,note_on,115,0,1,,,,,,,,0,,,77,0
34920,note_on,5,0,1,,,,,,,,0,,,81,106
34920,note_on,5,0,2,,,,,,,,1,,,77,64
35005,note_on,445,0,6,,,,,,,,5,,,53,0
35005,note_on,445,0,4,,,,,,,,3,,,65,0
35005,note_on,445,0,5,,,,,,,,4,,,53,0
35035,note_on,115,0,1,,,,,,,,0,,,81,0
35035,note_on,115,0,2,,,,,,,,1,,,77,0
35040,note_on,35,0,6,,,,,,,,5,,,53,49
35040,note_on,35,0,5,,,,,,,,4,,,53,64
35040,note_on,5,0,2,,,,,,,,1,,,69,64
35040,note_on,5,0,1,,,,,,,,0,,,72,106
35040,note_on,35,0,4,,,,,,,,3,,,65,64
35155,note_on,115,0,2,,,,,,,,1,,,69,0
35155,note_on,115,0,1,,,,,,,,0,,,72,0
35160,note_on,5,0,1,,,,,,,,0,,,81,106
35160,note_on,5,0,2,,,,,,,,1,,,77,64
35275,note_on,115,0,1,,,,,,,,0,,,81,0
35275,note_on,115,0,2,,,,,,,,1,,,77,0
35280,note_on,5,0,1,,,,,,,,0,,,77,106
35280,note_on,5,0,2,,,,,,,,1,,,72,64
35395,note_on,115,0,2,,,,,,,,1,,,72,0
35395,note_on,115,0,1,,,,,,,,0,,,77,0
35400,note_on,5,0,1,,,,,,,,0,,,81,106
35400,note_on,5,0,2,,,,,,,,1,,,77,64
35445,note_on,0,0,6,,,,,,,,5,,,60,0
35445,note_on,0,0,6,,,,,,,,5,,,57,0
35445,note_on,405,0,6,,,,,,,,5,,,65,0
35485,note_on,445,0,4,,,,,,,,3,,,65,0
35485,note_on,40,0,6,,,,,,,,5,,,53,0
35485,note_on,445,0,5,,,,,,,,4,,,53,0
35515,note_on,115,0,2,,,,,,,,1,,,77,0
35515,note_on,115,0,1,,,,,,,,0,,,81,0
35520,note_on,5,0,1,,,,,,,,0,,,79,106
35520,note_on,35,0,4,,,,,,,,3,,,64,49
35520,note_on,5,0,2,,,,,,,,1,,,76,64
35520,note_on,6275,0,3,,,,,,,,2,,,67,34
35520,note_on,35,0,5,,,,,,,,4,,,48,49
35520,note_on,0,0,6,,,,,,,,5,,,48,49
35520,note_on,0,0,6,,,,,,,,5,,,60,64
35520,note_on,0,0,6,,,,,,,,5,,,64,64
35520,note_on,35,0,6,,,,,,,,5,,,67,64
35635,note_on,115,0,5,,,,,,,,4,,,48,0
35635,note_on,115,0,3,,,,,,,,2,,,67,0
35635,note_on,115,0,6,,,,,,,,5,,,48,0
35635,note_on,115,0,4,,,,,,,,3,,,64,0
35640,note_on,5,0,4,,,,,,,,3,,,64,49
35640,note_on,5,0,3,,,,,,,,2,,,67,34
35640,note_on,5,0,6,,,,,,,,5,,,48,49
35640,note_on,5,0,5,,,,,,,,4,,,48,49
35745,note_on,225,0,1,,,,,,,,0,,,79,0
35755,note_on,115,0,5,,,,,,,,4,,,48,0
35755,note_on,115,0,3,,,,,,,,2,,,67,0
35755,note_on,115,0,4,,,,,,,,3,,,64,0
35755,note_on,115,0,6,,,,,,,,5,,,48,0
35760,note_on,5,0,5,,,,,,,,4,,,48,49
35760,note_on,5,0,6,,,,,,,,5,,,48,49
35760,note_on,5,0,3,,,,,,,,2,,,67,49
35760,note_on,15,0,1,,,,,,,,0,,,72,106
35760,note_on,5,0,4,,,,,,,,3,,,64,49
35875,note_on,115,0,6,,,,,,,,5,,,48,0
35875,note_on,115,0,5,,,,,,,,4,,,48,0
35875,note_on,115,0,4,,,,,,,,3,,,64,0
35875,note_on,115,0,3,,,,,,,,2,,,67,0
35880,note_on,5,0,4,,,,,,,,3,,,64,49
35880,note_on,5,0,3,,,,,,,,2,,,67,49
35880,note_on,5,0,5,,,,,,,,4,,,48,64
35880,note_on,5,0,6,,,,,,,,5,,,48,64
35965,note_on,445,0,2,,,,,,,,1,,,76,0
35985,note_on,225,0,1,,,,,,,,0,,,72,0
35995,note_on,115,0,4,,,,,,,,3,,,64,0
35995,note_on,115,0,6,,,,,,,,5,,,48,0
35995,note_on,115,0,3,,,,,,,,2,,,67,0
35995,note_on,115,0,5,,,,,,,,4,,,48,0
36000,note_on,5,0,3,,,,,,,,2,,,67,49
36000,note_on,5,0,6,,,,,,,,5,,,46,64
36000,note_on,5,0,4,,,,,,,,3,,,64,64
36000,note_on,5,0,5,,,,,,,,4,,,46,64
36115,note_on,115,0,5,,,,,,,,4,,,46,0
36115,note_on,115,0,4,,,,,,,,3,,,64,0
36115,note_on,115,0,6,,,,,,,,5,,,46,0
36115,note_on,115,0,3,,,,,,,,2,,,67,0
36120,note_on,5,0,5,,,,,,,,4,,,46,64
36120,note_on,5,0,6,,,,,,,,5,,,46,64
36120,note_on,5,0,3,,,,,,,,2,,,67,49
36120,note_on,5,0,4,,,,,,,,3,,,64,64
36235,note_on,115,0,3,,,,,,,,2,,,67,0
36235,note_on,115,0,6,,,,,,,,5,,,46,0
36235,note_on,115,0,5,,,,,,,,4,,,46,0
36235,note_on,115,0,4,,,,,,,,3,,,64,0
36240,note_on,5,0,4,,,,,,,,3,,,64,85
36240,note_on,5,0,3,,,,,,,,2,,,67,64
36240,note_on,5,0,6,,,,,,,,5,,,46,64
36240,note_on,5,0,5,,,,,,,,4,,,46,64
36355,note_on,115,0,5,,,,,,,,4,,,46,0
36355,note_on,115,0,3,,,,,,,,2,,,67,0
36355,note_on,115,0,6,,,,,,,,5,,,46,0
36355,note_on,115,0,4,,,,,,,,3,,,64,0
36360,note_on,5,0,5,,,,,,,,4,,,46,85
36360,note_on,5,0,4,,,,,,,,3,,,64,85
36360,note_on,5,0,6,,,,,,,,5,,,46,85
36360,note_on,5,0,3,,,,,,,,2,,,67,85
36405,note_on,0,0,6,,,,,,,,5,,,60,0
36405,note_on,45,0,6,,,,,,,,5,,,67,0
36405,note_on,0,0,6,,,,,,,,5,,,64,0
36475,note_on,115,0,5,,,,,,,,4,,,46,0
36475,note_on,115,0,4,,,,,,,,3,,,64,0
36475,note_on,70,0,6,,,,,,,,5,,,46,0
36475,note_on,115,0,3,,,,,,,,2,,,67,0
36480,note_on,5,0,5,,,,,,,,4,,,45,106
36480,note_on,5,0,4,,,,,,,,3,,,60,106
36480,note_on,5,0,3,,,,,,,,2,,,69,106
36480,note_on,495,0,1,,,,,,,,0,,,69,106
36480,note_on,515,0,2,,,,,,,,1,,,65,64
36480,note_on,5,0,6,,,,,,,,5,,,72,64
36480,note_on,0,0,6,,,,,,,,5,,,65,64
36480,note_on,0,0,6,,,,,,,,5,,,60,64
36480,note_on,0,0,6,,,,,,,,5,,,45,106
36595,note_on,115,0,2,,,,,,,,1,,,65,0
36595,note_on,115,0,1,,,,,,,,0,,,69,0
36600,note_on,5,0,1,,,,,,,,0,,,77,106
36600,note_on,5,0,2,,,,,,,,1,,,72,64
36715,note_on,115,0,1,,,,,,,,0,,,77,0
36715,note_on,115,0,2,,,,,,,,1,,,72,0
36720,note_on,5,0,1,,,,,,,,0,,,72,106
36720,note_on,5,0,2,,,,,,,,1,,,69,64
36835,note_on,115,0,2,,,,,,,,1,,,69,0
36835,note_on,115,0,1,,,,,,,,0,,,72,0
36840,note_on,5,0,2,,,,,,,,1,,,72,64
36840,note_on,5,0,1,,,,,,,,0,,,77,106
36925,note_on,0,0,6,,,,,,,,5,,,72,0
36925,note_on,445,0,4,,,,,,,,3,,,60,0
36925,note_on,445,0,5,,,,,,,,4,,,45,0
36925,note_on,0,0,6,,,,,,,,5,,,60,0
36925,note_on,445,0,6,,,,,,,,5,,,45,0
36925,note_on,0,0,6,,,,,,,,5,,,65,0
36925,note_on,445,0,3,,,,,,,,2,,,69,0
36955,note_on,115,0,1,,,,,,,,0,,,77,0
36955,note_on,115,0,2,,,,,,,,1,,,72,0
36960,note_on,5,0,1,,,,,,,,0,,,69,106
36960,note_on,5,0,2,,,,,,,,1,,,65,64
37075,note_on,115,0,2,,,,,,,,1,,,65,0
37075,note_on,115,0,1,,,,,,,,0,,,69,0
37080,note_on,5,0,1,,,,,,,,0,,,77,106
37080,note_on,5,0,2,,,,,,,,1,,,72,64
37195,note_on,115,0,1,,,,,,,,0,,,77,0
37195,note_on,115,0,2,,,,,,,,1,,,72,0
37200,note_on,5,0,2,,,,,,,,1,,,69,64
37200,note_on,5,0,1,,,,,,,,0,,,72,106
37315,note_on,115,0,1,,,,,,,,0,,,72,0
37315,note_on,115,0,2,,,,,,,,1,,,69,0
37320,note_on,5,0,1,,,,,,,,0,,,77,106
37320,note_on,5,0,2,,,,,,,,1,,,72,64
37435,note_on,115,0,1,,,,,,,,0,,,77,0
37435,note_on,115,0,2,,,,,,,,1,,,72,0
37440,note_on,5,0,1,,,,,,,,0,,,69,106
37440,note_on,515,0,6,,,,,,,,5,,,72,64
37440,note_on,0,0,6,,,,,,,,5,,,69,64
37440,note_on,0,0,6,,,,,,,,5,,,65,64
37440,note_on,0,0,6,,,,,,,,5,,,53,64
37440,note_on,515,0,5,,,,,,,,4,,,53,64
37440,note_on,5,0,2,,,,,,,,1,,,65,64
37555,note_on,115,0,1,,,,,,,,0,,,69,0
37555,note_on,115,0,2,,,,,,,,1,,,65,0
37560,note_on,5,0,1,,,,,,,,0,,,77,106
37560,note_on,5,0,2,,,,,,,,1,,,72,64
37665,note_on,225,0,5,,,,,,,,4,,,53,0
37665,note_on,225,0,6,,,,,,,,5,,,53,0
37675,note_on,115,0,1,,,,,,,,0,,,77,0
37675,note_on,115,0,2,,,,,,,,1,,,72,0
37680,note_on,5,0,1,,,,,,,,0,,,72,106
37680,note_on,5,0,2,,,,,,,,1,,,69,64
37680,note_on,15,0,5,,,,,,,,4,,,53,64
37680,note_on,15,0,6,,,,,,,,5,,,53,64
37795,note_on,115,0,1,,,,,,,,0,,,72,0
37795,note_on,115,0,2,,,,,,,,1,,,69,0
37800,note_on,5,0,1,,,,,,,,0,,,77,106
37800,note_on,5,0,2,,,,,,,,1,,,72,64
37905,note_on,225,0,6,,,,,,,,5,,,53,0
37905,note_on,225,0,5,,,,,,,,4,,,53,0
37915,note_on,115,0,1,,,,,,,,0,,,77,0
37915,note_on,115,0,2,,,,,,,,1,,,72,0
37920,note_on,5,0,1,,,,,,,,0,,,69,106
37920,note_on,5,0,2,,,,,,,,1,,,65,64
37920,note_on,15,0,6,,,,,,,,5,,,51,64
37920,note_on,15,0,5,,,,,,,,4,,,51,64
38035,note_on,115,0,1,,,,,,,,0,,,69,0
38035,note_on,115,0,2,,,,,,,,1,,,65,0
38040,note_on,5,0,2,,,,,,,,1,,,72,64
38040,note_on,5,0,1,,,,,,,,0,,,77,106
38145,note_on,225,0,5,,,,,,,,4,,,51,0
38145,note_on,225,0,6,,,,,,,,5,,,51,0
38155,note_on,115,0,2,,,,,,,,1,,,72,0
38155,note_on,115,0,1,,,,,,,,0,,,77,0
38160,note_on,5,0,2,,,,,,,,1,,,69,64
38160,note_on,15,0,6,,,,,,,,5,,,51,64
38160,note_on,5,0,1,,,,,,,,0,,,72,106
38160,note_on,15,0,5,,,,,,,,4,,,51,64
38275,note_on,115,0,1,,,,,,,,0,,,72,0
38275,note_on,115,0,2,,,,,,,,1,,,69,0
38280,note_on,5,0,1,,,,,,,,0,,,77,106
38280,note_on,5,0,2,,,,,,,,1,,,72,64
38325,note_on,0,0,6,,,,,,,,5,,,69,0
38325,note_on,165,0,6,,,,,,,,5,,,72,0
38325,note_on,0,0,6,,,,,,,,5,,,65,0
38385,note_on,60,0,6,,,,,,,,5,,,51,0
38385,note_on,225,0,5,,,,,,,,4,,,51,0
38395,note_on,115,0,1,,,,,,,,0,,,77,0
38395,note_on,115,0,2,,,,,,,,1,,,72,0
38400,note_on,5,0,1,,,,,,,,0,,,70,106
38400,note_on,5,0,2,,,,,,,,1,,,65,64
38400,note_on,0,0,6,,,,,,,,5,,,65,64
38400,note_on,0,0,6,,,,,,,,5,,,50,64
38400,note_on,0,0,6,,,,,,,,5,,,70,64
38400,note_on,15,0,6,,,,,,,,5,,,77,64
38400,note_on,15,0,5,,,,,,,,4,,,50,64
38515,note_on,115,0,1,,,,,,,,0,,,70,0
38515,note_on,115,0,2,,,,,,,,1,,,65,0
38520,note_on,5,0,1,,,,,,,,0,,,77,106
38520,note_on,5,0,2,,,,,,,,1,,,74,64
38635,note_on,115,0,2,,,,,,,,1,,,74,0
38635,note_on,115,0,1,,,,,,,,0,,,77,0
38640,note_on,5,0,1,,,,,,,,0,,,74,106
38640,note_on,5,0,2,,,,,,,,1,,,70,64
38755,note_on,115,0,2,,,,,,,,1,,,70,0
38755,note_on,115,0,1,,,,,,,,0,,,74,0
38760,note_on,5,0,1,,,,,,,,0,,,77,106
38760,note_on,5,0,2,,,,,,,,1,,,74,64
38845,note_on,445,0,6,,,,,,,,5,,,50,0
38845,note_on,445,0,5,,,,,,,,4,,,50,0
38845,note_on,0,0,6,,,,,,,,5,,,77,0
38875,note_on,115,0,2,,,,,,,,1,,,74,0
38875,note_on,115,0,1,,,,,,,,0,,,77,0
38880,note_on,35,0,6,,,,,,,,5,,,74,64
38880,note_on,35,0,5,,,,,,,,4,,,46,64
38880,note_on,0,0,6,,,,,,,,5,,,46,64
38880,note_on,5,0,1,,,,,,,,0,,,70,106
38880,note_on,5,0,2,,,,,,,,1,,,65,64
38995,note_on,115,0,1,,,,,,,,0,,,70,0
38995,note_on,115,0,2,,,,,,,,1,,,65,0
39000,note_on,5,0,1,,,,,,,,0,,,77,106
39000,note_on,5,0,2,,,,,,,,1,,,74,64
39115,note_on,115,0,2,,,,,,,,1,,,74,0
39115,note_on,115,0,1,,,,,,,,0,,,77,0
39120,note_on,5,0,2,,,,,,,,1,,,70,64
39120,note_on,5,0,1,,,,,,,,0,,,74,106
39235,note_on,115,0,2,,,,,,,,1,,,70,0
39235,note_on,115,0,1,,,,,,,,0,,,74,0
39240,note_on,5,0,2,,,,,,,,1,,,74,64
39240,note_on,5,0,1,,,,,,,,0,,,77,106
39325,note_on,445,0,5,,,,,,,,4,,,46,0
39325,note_on,445,0,6,,,,,,,,5,,,46,0
39355,note_on,115,0,2,,,,,,,,1,,,74,0
39355,note_on,115,0,1,,,,,,,,0,,,77,0
39360,note_on,5,0,2,,,,,,,,1,,,65,64
39360,note_on,35,0,6,,,,,,,,5,,,50,64
39360,note_on,35,0,5,,,,,,,,4,,,50,64
39360,note_on,5,0,1,,,,,,,,0,,,70,106
39475,note_on,115,0,2,,,,,,,,1,,,65,0
39475,note_on,115,0,1,,,,,,,,0,,,70,0
39480,note_on,5,0,2,,,,,,,,1,,,74,64
39480,note_on,5,0,1,,,,,,,,0,,,77,106
39595,note_on,115,0,1,,,,,,,,0,,,77,0
39595,note_on,115,0,2,,,,,,,,1,,,74,0
39600,note_on,5,0,1,,,,,,,,0,,,74,106
39600,note_on,5,0,2,,,,,,,,1,,,70,64
39715,note_on,115,0,1,,,,,,,,0,,,74,0
39715,note_on,115,0,2,,,,,,,,1,,,70,0
39720,note_on,5,0,1,,,,,,,,0,,,77,106
39720,note_on,5,0,2,,,,,,,,1,,,74,64
39725,note_on,365,0,6,,,,,,,,5,,,70,0
39725,note_on,0,0,6,,,,,,,,5,,,65,0
39765,note_on,40,0,6,,,,,,,,5,,,74,0
39805,note_on,40,0,6,,,,,,,,5,,,50,0
39805,note_on,445,0,5,,,,,,,,4,,,50,0
39835,note_on,115,0,2,,,,,,,,1,,,74,0
39835,note_on,115,0,1,,,,,,,,0,,,77,0
39840,note_on,5,0,2,,,,,,,,1,,,65,64
39840,note_on,35,0,6,,,,,,,,5,,,74,64
39840,note_on,35,0,5,,,,,,,,4,,,58,64
39840,note_on,0,0,6,,,,,,,,5,,,58,64
39840,note_on,0,0,6,,,,,,,,5,,,65,64
39840,note_on,0,0,6,,,,,,,,5,,,70,64
39840,note_on,5,0,1,,,,,,,,0,,,70,106
39955,note_on,115,0,2,,,,,,,,1,,,65,0
39955,note_on,115,0,1,,,,,,,,0,,,70,0
39960,note_on,5,0,1,,,,,,,,0,,,77,106
39960,note_on,5,0,2,,,,,,,,1,,,74,64
40075,note_on,115,0,2,,,,,,,,1,,,74,0
40075,note_on,115,0,1,,,,,,,,0,,,77,0
40080,note_on,5,0,2,,,,,,,,1,,,70,64
40080,note_on,5,0,1,,,,,,,,0,,,74,106
40195,note_on,115,0,1,,,,,,,,0,,,74,0
40195,note_on,115,0,2,,,,,,,,1,,,70,0
40200,note_on,5,0,1,,,,,,,,0,,,77,106
40200,note_on,5,0,2,,,,,,,,1,,,74,64
40285,note_on,445,0,5,,,,,,,,4,,,58,0
40285,note_on,445,0,6,,,,,,,,5,,,58,0
40285,note_on,0,0,6,,,,,,,,5,,,70,0
40285,note_on,0,0,6,,,,,,,,5,,,65,0
40285,note_on,0,0,6,,,,,,,,5,,,74,0
40315,note_on,115,0,1,,,,,,,,0,,,77,0
40315,note_on,115,0,2,,,,,,,,1,,,74,0
40320,note_on,0,0,6,,,,,,,,5,,,71,64
40320,note_on,0,0,6,,,,,,,,5,,,67,64
40320,note_on,0,0,6,,,,,,,,5,,,55,64
40320,note_on,5,0,2,,,,,,,,1,,,67,64
40320,note_on,35,0,6,,,,,,,,5,,,74,64
40320,note_on,35,0,5,,,,,,,,4,,,55,64
40320,note_on,5,0,1,,,,,,,,0,,,71,106
40435,note_on,115,0,1,,,,,,,,0,,,71,0
40435,note_on,115,0,2,,,,,,,,1,,,67,0
40440,note_on,5,0,1,,,,,,,,0,,,79,106
40440,note_on,5,0,2,,,,,,,,1,,,74,64
40555,note_on,115,0,1,,,,,,,,0,,,79,0
40555,note_on,115,0,2,,,,,,,,1,,,74,0
40560,note_on,5,0,1,,,,,,,,0,,,74,106
40560,note_on,5,0,2,,,,,,,,1,,,71,64
40675,note_on,115,0,1,,,,,,,,0,,,74,0
40675,note_on,115,0,2,,,,,,,,1,,,71,0
40680,note_on,5,0,2,,,,,,,,1,,,74,64
40680,note_on,5,0,1,,,,,,,,0,,,79,106
40765,note_on,0,0,6,,,,,,,,5,,,67,0
40765,note_on,0,0,6,,,,,,,,5,,,74,0
40765,note_on,445,0,5,,,,,,,,4,,,55,0
40765,note_on,445,0,6,,,,,,,,5,,,55,0
40765,note_on,0,0,6,,,,,,,,5,,,71,0
40795,note_on,115,0,1,,,,,,,,0,,,79,0
40795,note_on,115,0,2,,,,,,,,1,,,74,0
40800,note_on,5,0,1,,,,,,,,0,,,71,106
40800,note_on,5,0,2,,,,,,,,1,,,67,64
40915,note_on,115,0,1,,,,,,,,0,,,71,0
40915,note_on,115,0,2,,,,,,,,1,,,67,0
40920,note_on,5,0,1,,,,,,,,0,,,79,106
40920,note_on,5,0,2,,,,,,,,1,,,74,64
41035,note_on,115,0,2,,,,,,,,1,,,74,0
41035,note_on,115,0,1,,,,,,,,0,,,79,0
41040,note_on,5,0,2,,,,,,,,1,,,71,64
41040,note_on,5,0,1,,,,,,,,0,,,74,106
41155,note_on,115,0,1,,,,,,,,0,,,74,0
41155,note_on,115,0,2,,,,,,,,1,,,71,0
41160,note_on,5,0,1,,,,,,,,0,,,79,106
41160,note_on,5,0,2,,,,,,,,1,,,74,64
41275,note_on,115,0,2,,,,,,,,1,,,74,0
41275,note_on,115,0,1,,,,,,,,0,,,79,0
41280,note_on,5,0,2,,,,,,,,1,,,67,64
41280,note_on,0,0,6,,,,,,,,5,,,71,64
41280,note_on,515,0,6,,,,,,,,5,,,74,64
41280,note_on,0,0,6,,,,,,,,5,,,55,64
41280,note_on,5,0,1,,,,,,,,0,,,71,106
41280,note_on,0,0,6,,,,,,,,5,,,67,64
41280,note_on,515,0,5,,,,,,,,4,,,55,64
41395,note_on,115,0,2,,,,,,,,1,,,67,0
41395,note_on,115,0,1,,,,,,,,0,,,71,0
41400,note_on,5,0,2,,,,,,,,1,,,74,64
41400,note_on,5,0,1,,,,,,,,0,,,79,106
41505,note_on,225,0,6,,,,,,,,5,,,55,0
41505,note_on,225,0,5,,,,,,,,4,,,55,0
41515,note_on,115,0,1,,,,,,,,0,,,79,0
41515,note_on,115,0,2,,,,,,,,1,,,74,0
41520,note_on,15,0,6,,,,,,,,5,,,55,64
41520,note_on,15,0,5,,,,,,,,4,,,55,64
41520,note_on,5,0,2,,,,,,,,1,,,71,64
41520,note_on,5,0,1,,,,,,,,0,,,74,106
41635,note_on,115,0,2,,,,,,,,1,,,71,0
41635,note_on,115,0,1,,,,,,,,0,,,74,0
41640,note_on,5,0,1,,,,,,,,0,,,79,106
41640,note_on,5,0,2,,,,,,,,1,,,74,64
41745,note_on,225,0,5,,,,,,,,4,,,55,0
41745,note_on,225,0,6,,,,,,,,5,,,55,0
41755,note_on,115,0,1,,,,,,,,0,,,79,0
41755,note_on,115,0,2,,,,,,,,1,,,74,0
41760,note_on,5,0,2,,,,,,,,1,,,67,64
41760,note_on,15,0,5,,,,,,,,4,,,53,64
41760,note_on,5,0,1,,,,,,,,0,,,71,106
41760,note_on,15,0,6,,,,,,,,5,,,53,64
41875,note_on,115,0,2,,,,,,,,1,,,67,0
41875,note_on,115,0,1,,,,,,,,0,,,71,0
41880,note_on,5,0,1,,,,,,,,0,,,79,106
41880,note_on,5,0,2,,,,,,,,1,,,74,64
41985,note_on,225,0,6,,,,,,,,5,,,53,0
41985,note_on,225,0,5,,,,,,,,4,,,53,0
41995,note_on,115,0,2,,,,,,,,1,,,74,0
41995,note_on,115,0,1,,,,,,,,0,,,79,0
42000,note_on,15,0,6,,,,,,,,5,,,53,64
42000,note_on,15,0,5,,,,,,,,4,,,53,64
42000,note_on,5,0,1,,,,,,,,0,,,74,106
42000,note_on,5,0,2,,,,,,,,1,,,71,64
42115,note_on,115,0,1,,,,,,,,0,,,74,0
42115,note_on,115,0,2,,,,,,,,1,,,71,0
42120,note_on,5,0,2,,,,,,,,1,,,74,64
42120,note_on,5,0,1,,,,,,,,0,,,79,106
42165,note_on,0,0,6,,,,,,,,5,,,71,0
42165,note_on,0,0,6,,,,,,,,5,,,67,0
42165,note_on,165,0,6,,,,,,,,5,,,74,0
42225,note_on,60,0,6,,,,,,,,5,,,53,0
42225,note_on,225,0,5,,,,,,,,4,,,53,0
42235,note_on,115,0,2,,,,,,,,1,,,74,0
42235,note_on,115,0,1,,,,,,,,0,,,79,0
42240,note_on,0,0,6,,,,,,,,5,,,52,64
42240,note_on,0,0,6,,,,,,,,5,,,67,64
42240,note_on,0,0,6,,,,,,,,5,,,72,64
42240,note_on,15,0,6,,,,,,,,5,,,79,64
42240,note_on,5,0,1,,,,,,,,0,,,72,106
42240,note_on,5,0,2,,,,,,,,1,,,67,64
42240,note_on,15,0,5,,,,,,,,4,,,52,64
42355,note_on,115,0,2,,,,,,,,1,,,67,0
42355,note_on,115,0,1,,,,,,,,0,,,72,0
42360,note_on,5,0,2,,,,,,,,1,,,76,64
42360,note_on,5,0,1,,,,,,,,0,,,79,106
42475,note_on,115,0,2,,,,,,,,1,,,76,0
42475,note_on,115,0,1,,,,,,,,0,,,79,0
42480,note_on,5,0,1,,,,,,,,0,,,76,106
42480,note_on,5,0,2,,,,,,,,1,,,72,64
42595,note_on,115,0,1,,,,,,,,0,,,76,0
42595,note_on,115,0,2,,,,,,,,1,,,72,0
42600,note_on,5,0,1,,,,,,,,0,,,79,106
42600,note_on,5,0,2,,,,,,,,1,,,76,64
42685,note_on,0,0,6,,,,,,,,5,,,79,0
42685,note_on,445,0,6,,,,,,,,5,,,52,0
42685,note_on,445,0,5,,,,,,,,4,,,52,0
42715,note_on,115,0,1,,,,,,,,0,,,79,0
42715,note_on,115,0,2,,,,,,,,1,,,76,0
42720,note_on,35,0,6,,,,,,,,5,,,76,64
42720,note_on,5,0,1,,,,,,,,0,,,72,106
42720,note_on,35,0,5,,,,,,,,4,,,48,64
42720,note_on,0,0,6,,,,,,,,5,,,48,64
42720,note_on,5,0,2,,,,,,,,1,,,67,64
42835,note_on,115,0,1,,,,,,,,0,,,72,0
42835,note_on,115,0,2,,,,,,,,1,,,67,0
42840,note_on,5,0,2,,,,,,,,1,,,76,64
42840,note_on,5,0,1,,,,,,,,0,,,79,106
42955,note_on,115,0,1,,,,,,,,0,,,79,0
42955,note_on,115,0,2,,,,,,,,1,,,76,0
42960,note_on,5,0,2,,,,,,,,1,,,72,64
42960,note_on,5,0,1,,,,,,,,0,,,76,106
43075,note_on,115,0,2,,,,,,,,1,,,72,0
43075,note_on,115,0,1,,,,,,,,0,,,76,0
43080,note_on,5,0,2,,,,,,,,1,,,76,64
43080,note_on,5,0,1,,,,,,,,0,,,79,106
43165,note_on,445,0,5,,,,,,,,4,,,48,0
43165,note_on,445,0,6,,,,,,,,5,,,48,0
43195,note_on,115,0,1,,,,,,,,0,,,79,0
43195,note_on,115,0,2,,,,,,,,1,,,76,0
43200,note_on,5,0,2,,,,,,,,1,,,67,64
43200,note_on,5,0,1,,,,,,,,0,,,72,106
43200,note_on,35,0,5,,,,,,,,4,,,52,64
43200,note_on,35,0,6,,,,,,,,5,,,52,64
43315,note_on,115,0,2,,,,,,,,1,,,67,0
43315,note_on,115,0,1,,,,,,,,0,,,72,0
43320,note_on,5,0,2,,,,,,,,1,,,76,64
43320,note_on,5,0,1,,,,,,,,0,,,79,106
43435,note_on,115,0,1,,,,,,,,0,,,79,0
43435,note_on,115,0,2,,,,,,,,1,,,76,0
43440,note_on,5,0,2,,,,,,,,1,,,72,64
43440,note_on,5,0,1,,,,,,,,0,,,76,106
43555,note_on,115,0,1,,,,,,,,0,,,76,0
43555,note_on,115,0,2,,,,,,,,1,,,72,0
43560,note_on,5,0,1,,,,,,,,0,,,79,106
43560,note_on,5,0,2,,,,,,,,1,,,76,64
43565,note_on,365,0,6,,,,,,,,5,,,72,0
43565,note_on,0,0,6,,,,,,,,5,,,67,0
43605,note_on,40,0,6,,,,,,,,5,,,76,0
43645,note_on,445,0,5,,,,,,,,4,,,52,0
43645,note_on,40,0,6,,,,,,,,5,,,52,0
43675,note_on,115,0,2,,,,,,,,1,,,76,0
43675,note_on,115,0,1,,,,,,,,0,,,79,0
43680,note_on,0,0,6,,,,,,,,5,,,72,64
43680,note_on,0,0,6,,,,,,,,5,,,67,64
43680,note_on,0,0,6,,,,,,,,5,,,60,64
43680,note_on,5,0,2,,,,,,,,1,,,67,64
43680,note_on,35,0,5,,,,,,,,4,,,60,64
43680,note_on,35,0,6,,,,,,,,5,,,76,64
43680,note_on,5,0,1,,,,,,,,0,,,72,106
43795,note_on,115,0,2,,,,,,,,1,,,67,0
43795,note_on,115,0,1,,,,,,,,0,,,72,0
43800,note_on,5,0,2,,,,,,,,1,,,76,64
43800,note_on,5,0,1,,,,,,,,0,,,79,106
43915,note_on,115,0,1,,,,,,,,0,,,79,0
43915,note_on,115,0,2,,,,,,,,1,,,76,0
43920,note_on,5,0,2,,,,,,,,1,,,72,64
43920,note_on,5,0,1,,,,,,,,0,,,76,106
44035,note_on,115,0,1,,,,,,,,0,,,76,0
44035,note_on,115,0,2,,,,,,,,1,,,72,0
44040,note_on,5,0,2,,,,,,,,1,,,76,64
44040,note_on,5,0,1,,,,,,,,0,,,79,106
44125,note_on,445,0,5,,,,,,,,4,,,60,0
44125,note_on,0,0,6,,,,,,,,5,,,67,0
44125,note_on,0,0,6,,,,,,,,5,,,72,0
44125,note_on,0,0,6,,,,,,,,5,,,76,0
44125,note_on,445,0,6,,,,,,,,5,,,60,0
44155,note_on,115,0,2,,,,,,,,1,,,76,0
44155,note_on,115,0,1,,,,,,,,0,,,79,0
44160,note_on,5,0,2,,,,,,,,1,,,69,64
44160,note_on,35,0,6,,,,,,,,5,,,76,64
44160,note_on,0,0,6,,,,,,,,5,,,73,64
44160,note_on,0,0,6,,,,,,,,5,,,69,64
44160,note_on,0,0,6,,,,,,,,5,,,57,64
44160,note_on,5,0,1,,,,,,,,0,,,73,106
44160,note_on,35,0,5,,,,,,,,4,,,57,64
44275,note_on,115,0,1,,,,,,,,0,,,73,0
44275,note_on,115,0,2,,,,,,,,1,,,69,0
44280,note_on,5,0,2,,,,,,,,1,,,76,64
44280,note_on,5,0,1,,,,,,,,0,,,81,106
44395,note_on,115,0,1,,,,,,,,0,,,81,0
44395,note_on,115,0,2,,,,,,,,1,,,76,0
44400,note_on,5,0,2,,,,,,,,1,,,73,64
44400,note_on,5,0,1,,,,,,,,0,,,76,106
44515,note_on,115,0,1,,,,,,,,0,,,76,0
44515,note_on,115,0,2,,,,,,,,1,,,73,0
44520,note_on,5,0,1,,,,,,,,0,,,81,106
44520,note_on,5,0,2,,,,,,,,1,,,76,64
44605,note_on,0,0,6,,,,,,,,5,,,76,0
44605,note_on,445,0,5,,,,,,,,4,,,57,0
44605,note_on,445,0,6,,,,,,,,5,,,57,0
44605,note_on,0,0,6,,,,,,,,5,,,73,0
44605,note_on,0,0,6,,,,,,,,5,,,69,0
44635,note_on,115,0,1,,,,,,,,0,,,81,0
44635,note_on,115,0,2,,,,,,,,1,,,76,0
44640,note_on,5,0,1,,,,,,,,0,,,73,106
44640,note_on,5,0,2,,,,,,,,1,,,69,64
44755,note_on,115,0,1,,,,,,,,0,,,73,0
44755,note_on,115,0,2,,,,,,,,1,,,69,0
44760,note_on,5,0,1,,,,,,,,0,,,81,106
44760,note_on,5,0,2,,,,,,,,1,,,76,64
44875,note_on,115,0,2,,,,,,,,1,,,76,0
44875,note_on,115,0,1,,,,,,,,0,,,81,0
44880,note_on,5,0,1,,,,,,,,0,,,76,106
44880,note_on,5,0,2,,,,,,,,1,,,73,64
44995,note_on,115,0,1,,,,,,,,0,,,76,0
44995,note_on,115,0,2,,,,,,,,1,,,73,0
45000,note_on,5,0,2,,,,,,,,1,,,76,64
45000,note_on,5,0,1,,,,,,,,0,,,81,106
45115,note_on,115,0,1,,,,,,,,0,,,81,0
45115,note_on,115,0,2,,,,,,,,1,,,76,0
45120,note_on,5,0,2,,,,,,,,1,,,69,64
45120,note_on,515,0,5,,,,,,,,4,,,57,64
45120,note_on,515,0,6,,,,,,,,5,,,76,64
45120,note_on,0,0,6,,,,,,,,5,,,73,64
45120,note_on,0,0,6,,,,,,,,5,,,69,64
45120,note_on,0,0,6,,,,,,,,5,,,57,64
45120,note_on,5,0,1,,,,,,,,0,,,73,106
45235,note_on,115,0,2,,,,,,,,1,,,69,0
45235,note_on,115,0,1,,,,,,,,0,,,73,0
45240,note_on,5,0,1,,,,,,,,0,,,81,106
45240,note_on,5,0,2,,,,,,,,1,,,76,64
45345,note_on,225,0,5,,,,,,,,4,,,57,0
45345,note_on,225,0,6,,,,,,,,5,,,57,0
45355,note_on,115,0,2,,,,,,,,1,,,76,0
45355,note_on,115,0,1,,,,,,,,0,,,81,0
45360,note_on,5,0,2,,,,,,,,1,,,73,64
45360,note_on,5,0,1,,,,,,,,0,,,76,106
45360,note_on,15,0,6,,,,,,,,5,,,57,64
45360,note_on,15,0,5,,,,,,,,4,,,57,64
45475,note_on,115,0,2,,,,,,,,1,,,73,0
45475,note_on,115,0,1,,,,,,,,0,,,76,0
45480,note_on,5,0,1,,,,,,,,0,,,81,106
45480,note_on,5,0,2,,,,,,,,1,,,76,64
45585,note_on,225,0,6,,,,,,,,5,,,57,0
45585,note_on,225,0,5,,,,,,,,4,,,57,0
45595,note_on,115,0,1,,,,,,,,0,,,81,0
45595,note_on,115,0,2,,,,,,,,1,,,76,0
45600,note_on,15,0,5,,,,,,,,4,,,55,64
45600,note_on,15,0,6,,,,,,,,5,,,55,64
45600,note_on,5,0,1,,,,,,,,0,,,73,106
45600,note_on,5,0,2,,,,,,,,1,,,69,64
45715,note_on,115,0,1,,,,,,,,0,,,73,0
45715,note_on,115,0,2,,,,,,,,1,,,69,0
45720,note_on,5,0,1,,,,,,,,0,,,81,106
45720,note_on,5,0,2,,,,,,,,1,,,76,64
45825,note_on,225,0,5,,,,,,,,4,,,55,0
45825,note_on,225,0,6,,,,,,,,5,,,55,0
45835,note_on,115,0,2,,,,,,,,1,,,76,0
45835,note_on,115,0,1,,,,,,,,0,,,81,0
45840,note_on,5,0,2,,,,,,,,1,,,73,64
45840,note_on,5,0,1,,,,,,,,0,,,76,106
45840,note_on,15,0,5,,,,,,,,4,,,55,64
45840,note_on,15,0,6,,,,,,,,5,,,55,64
45955,note_on,115,0,1,,,,,,,,0,,,76,0
45955,note_on,115,0,2,,,,,,,,1,,,73,0
45960,note_on,5,0,1,,,,,,,,0,,,81,106
45960,note_on,5,0,2,,,,,,,,1,,,76,64
46005,note_on,0,0,6,,,,,,,,5,,,69,0
46005,note_on,165,0,6,,,,,,,,5,,,76,0
46005,note_on,0,0,6,,,,,,,,5,,,73,0
46065,note_on,60,0,6,,,,,,,,5,,,55,0
46065,note_on,225,0,5,,,,,,,,4,,,55,0
46075,note_on,115,0,2,,,,,,,,1,,,76,0
46075,note_on,115,0,1,,,,,,,,0,,,81,0
46080,note_on,15,0,5,,,,,,,,4,,,53,64
46080,note_on,0,0,6,,,,,,,,5,,,53,64
46080,note_on,0,0,6,,,,,,,,5,,,69,64
46080,note_on,0,0,6,,,,,,,,5,,,74,64
46080,note_on,5,0,2,,,,,,,,1,,,69,64
46080,note_on,15,0,6,,,,,,,,5,,,81,64
46080,note_on,5,0,1,,,,,,,,0,,,74,106
46195,note_on,115,0,2,,,,,,,,1,,,69,0
46195,note_on,115,0,1,,,,,,,,0,,,74,0
46200,note_on,5,0,1,,,,,,,,0,,,81,106
46200,note_on,5,0,2,,,,,,,,1,,,77,64
46315,note_on,115,0,1,,,,,,,,0,,,81,0
46315,note_on,115,0,2,,,,,,,,1,,,77,0
46320,note_on,5,0,1,,,,,,,,0,,,77,106
46320,note_on,5,0,2,,,,,,,,1,,,74,64
46435,note_on,115,0,1,,,,,,,,0,,,77,0
46435,note_on,115,0,2,,,,,,,,1,,,74,0
46440,note_on,5,0,2,,,,,,,,1,,,77,64
46440,note_on,5,0,1,,,,,,,,0,,,81,106
46525,note_on,445,0,6,,,,,,,,5,,,53,0
46525,note_on,445,0,5,,,,,,,,4,,,53,0
46525,note_on,0,0,6,,,,,,,,5,,,81,0
46555,note_on,115,0,1,,,,,,,,0,,,81,0
46555,note_on,115,0,2,,,,,,,,1,,,77,0
46560,note_on,35,0,6,,,,,,,,5,,,77,64
46560,note_on,5,0,1,,,,,,,,0,,,74,106
46560,note_on,35,0,5,,,,,,,,4,,,50,64
46560,note_on,0,0,6,,,,,,,,5,,,50,64
46560,note_on,5,0,2,,,,,,,,1,,,69,64
46675,note_on,115,0,1,,,,,,,,0,,,74,0
46675,note_on,115,0,2,,,,,,,,1,,,69,0
46680,note_on,5,0,1,,,,,,,,0,,,81,106
46680,note_on,5,0,2,,,,,,,,1,,,77,64
46795,note_on,115,0,2,,,,,,,,1,,,77,0
46795,note_on,115,0,1,,,,,,,,0,,,81,0
46800,note_on,5,0,2,,,,,,,,1,,,74,64
46800,note_on,5,0,1,,,,,,,,0,,,77,106
46915,note_on,115,0,2,,,,,,,,1,,,74,0
46915,note_on,115,0,1,,,,,,,,0,,,77,0
46920,note_on,5,0,2,,,,,,,,1,,,77,64
46920,note_on,5,0,1,,,,,,,,0,,,81,106
47005,note_on,445,0,6,,,,,,,,5,,,50,0
47005,note_on,445,0,5,,,,,,,,4,,,50,0
47035,note_on,115,0,2,,,,,,,,1,,,77,0
47035,note_on,115,0,1,,,,,,,,0,,,81,0
47040,note_on,5,0,2,,,,,,,,1,,,69,64
47040,note_on,35,0,6,,,,,,,,5,,,53,64
47040,note_on,5,0,1,,,,,,,,0,,,74,106
47040,note_on,35,0,5,,,,,,,,4,,,53,64
47155,note_on,115,0,2,,,,,,,,1,,,69,0
47155,note_on,115,0,1,,,,,,,,0,,,74,0
47160,note_on,5,0,2,,,,,,,,1,,,77,64
47160,note_on,5,0,1,,,,,,,,0,,,81,106
47275,note_on,115,0,2,,,,,,,,1,,,77,0
47275,note_on,115,0,1,,,,,,,,0,,,81,0
47280,note_on,5,0,1,,,,,,,,0,,,77,106
47280,note_on,5,0,2,,,,,,,,1,,,74,64
47395,note_on,115,0,2,,,,,,,,1,,,74,0
47395,note_on,115,0,1,,,,,,,,0,,,77,0
47400,note_on,5,0,2,,,,,,,,1,,,77,64
47400,note_on,5,0,1,,,,,,,,0,,,81,106
47405,note_on,365,0,6,,,,,,,,5,,,74,0
47405,note_on,0,0,6,,,,,,,,5,,,69,0
47445,note_on,40,0,6,,,,,,,,5,,,77,0
47485,note_on,40,0,6,,,,,,,,5,,,53,0
47485,note_on,445,0,5,,,,,,,,4,,,53,0
47515,note_on,115,0,1,,,,,,,,0,,,81,0
47515,note_on,115,0,2,,,,,,,,1,,,77,0
47520,note_on,35,0,5,,,,,,,,4,,,62,64
47520,note_on,5,0,1,,,,,,,,0,,,74,106
47520,note_on,5,0,2,,,,,,,,1,,,69,64
47520,note_on,0,0,6,,,,,,,,5,,,74,64
47520,note_on,0,0,6,,,,,,,,5,,,69,64
47520,note_on,35,0,6,,,,,,,,5,,,77,64
47520,note_on,0,0,6,,,,,,,,5,,,62,64
47635,note_on,115,0,1,,,,,,,,0,,,74,0
47635,note_on,115,0,2,,,,,,,,1,,,69,0
47640,note_on,5,0,1,,,,,,,,0,,,81,106
47640,note_on,5,0,2,,,,,,,,1,,,77,64
47755,note_on,115,0,2,,,,,,,,1,,,77,0
47755,note_on,115,0,1,,,,,,,,0,,,81,0
47760,note_on,5,0,2,,,,,,,,1,,,74,64
47760,note_on,5,0,1,,,,,,,,0,,,77,106
47875,note_on,115,0,2,,,,,,,,1,,,74,0
47875,note_on,115,0,1,,,,,,,,0,,,77,0
47880,note_on,5,0,2,,,,,,,,1,,,77,64
47880,note_on,5,0,1,,,,,,,,0,,,81,106
47965,note_on,0,0,6,,,,,,,,5,,,77,0
47965,note_on,445,0,5,,,,,,,,4,,,62,0
47965,note_on,445,0,6,,,,,,,,5,,,62,0
47965,note_on,0,0,6,,,,,,,,5,,,74,0
47965,note_on,0,0,6,,,,,,,,5,,,69,0
47995,note_on,115,0,2,,,,,,,,1,,,77,0
47995,note_on,115,0,1,,,,,,,,0,,,81,0
48000,note_on,35,0,5,,,,,,,,4,,,58,64
48000,note_on,35,0,6,,,,,,,,5,,,77,64
48000,note_on,0,0,6,,,,,,,,5,,,74,64
48000,note_on,0,0,6,,,,,,,,5,,,70,64
48000,note_on,0,0,6,,,,,,,,5,,,58,64
48000,note_on,5,0,1,,,,,,,,0,,,74,106
48000,note_on,5,0,2,,,,,,,,1,,,70,64
48115,note_on,115,0,1,,,,,,,,0,,,74,0
48115,note_on,115,0,2,,,,,,,,1,,,70,0
48120,note_on,5,0,1,,,,,,,,0,,,82,106
48120,note_on,5,0,2,,,,,,,,1,,,77,64
48235,note_on,115,0,2,,,,,,,,1,,,77,0
48235,note_on,115,0,1,,,,,,,,0,,,82,0
48240,note_on,5,0,2,,,,,,,,1,,,74,64
48240,note_on,5,0,1,,,,,,,,0,,,77,106
48355,note_on,115,0,1,,,,,,,,0,,,77,0
48355,note_on,115,0,2,,,,,,,,1,,,74,0
48360,note_on,5,0,2,,,,,,,,1,,,77,64
48360,note_on,5,0,1,,,,,,,,0,,,82,106
48445,note_on,0,0,6,,,,,,,,5,,,70,0
48445,note_on,0,0,6,,,,,,,,5,,,74,0
48445,note_on,445,0,6,,,,,,,,5,,,58,0
48445,note_on,0,0,6,,,,,,,,5,,,77,0
48445,note_on,445,0,5,,,,,,,,4,,,58,0
48475,note_on,115,0,1,,,,,,,,0,,,82,0
48475,note_on,115,0,2,,,,,,,,1,,,77,0
48480,note_on,5,0,1,,,,,,,,0,,,74,106
48480,note_on,5,0,2,,,,,,,,1,,,70,64
48595,note_on,115,0,2,,,,,,,,1,,,70,0
48595,note_on,115,0,1,,,,,,,,0,,,74,0
48600,note_on,5,0,2,,,,,,,,1,,,77,64
48600,note_on,5,0,1,,,,,,,,0,,,82,106
48715,note_on,115,0,1,,,,,,,,0,,,82,0
48715,note_on,115,0,2,,,,,,,,1,,,77,0
48720,note_on,5,0,1,,,,,,,,0,,,77,106
48720,note_on,5,0,2,,,,,,,,1,,,74,64
48835,note_on,115,0,1,,,,,,,,0,,,77,0
48835,note_on,115,0,2,,,,,,,,1,,,74,0
48840,note_on,5,0,2,,,,,,,,1,,,77,64
48840,note_on,5,0,1,,,,,,,,0,,,82,106
48955,note_on,115,0,1,,,,,,,,0,,,82,0
48955,note_on,115,0,2,,,,,,,,1,,,77,0
48960,note_on,515,0,6,,,,,,,,5,,,77,64
48960,note_on,515,0,5,,,,,,,,4,,,58,64
48960,note_on,0,0,6,,,,,,,,5,,,58,64
48960,note_on,0,0,6,,,,,,,,5,,,70,64
48960,note_on,0,0,6,,,,,,,,5,,,74,64
48960,note_on,5,0,2,,,,,,,,1,,,70,64
48960,note_on,5,0,1,,,,,,,,0,,,74,106
49075,note_on,115,0,2,,,,,,,,1,,,70,0
49075,note_on,115,0,1,,,,,,,,0,,,74,0
49080,note_on,5,0,1,,,,,,,,0,,,82,106
49080,note_on,5,0,2,,,,,,,,1,,,77,64
49195,note_on,115,0,1,,,,,,,,0,,,82,0
49195,note_on,115,0,2,,,,,,,,1,,,77,0
49200,note_on,5,0,2,,,,,,,,1,,,74,64
49200,note_on,5,0,1,,,,,,,,0,,,77,106
49315,note_on,115,0,2,,,,,,,,1,,,74,0
49315,note_on,115,0,1,,,,,,,,0,,,77,0
49320,note_on,5,0,1,,,,,,,,0,,,82,106
49320,note_on,5,0,2,,,,,,,,1,,,77,64
49405,note_on,445,0,5,,,,,,,,4,,,58,0
49405,note_on,445,0,6,,,,,,,,5,,,58,0
49435,note_on,115,0,1,,,,,,,,0,,,82,0
49435,note_on,115,0,2,,,,,,,,1,,,77,0
49440,note_on,5,0,2,,,,,,,,1,,,70,64
49440,note_on,35,0,5,,,,,,,,4,,,46,64
49440,note_on,5,0,1,,,,,,,,0,,,74,106
49440,note_on,35,0,6,,,,,,,,5,,,46,64
49555,note_on,115,0,1,,,,,,,,0,,,74,0
49555,note_on,115,0,2,,,,,,,,1,,,70,0
49560,note_on,5,0,2,,,,,,,,1,,,77,64
49560,note_on,5,0,1,,,,,,,,0,,,82,106
49675,note_on,115,0,2,,,,,,,,1,,,77,0
49675,note_on,115,0,1,,,,,,,,0,,,82,0
49680,note_on,5,0,2,,,,,,,,1,,,74,64
49680,note_on,5,0,1,,,,,,,,0,,,77,106
49795,note_on,115,0,2,,,,,,,,1,,,74,0
49795,note_on,115,0,1,,,,,,,,0,,,77,0
49800,note_on,5,0,1,,,,,,,,0,,,82,106
49800,note_on,5,0,2,,,,,,,,1,,,70,64
49845,note_on,0,0,6,,,,,,,,5,,,74,0
49845,note_on,0,0,6,,,,,,,,5,,,70,0
49845,note_on,405,0,6,,,,,,,,5,,,77,0
49885,note_on,445,0,5,,,,,,,,4,,,46,0
49885,note_on,40,0,6,,,,,,,,5,,,46,0
49915,note_on,115,0,1,,,,,,,,0,,,82,0
49915,note_on,115,0,2,,,,,,,,1,,,70,0
49920,note_on,35,0,6,,,,,,,,5,,,76,64
49920,note_on,0,0,6,,,,,,,,5,,,72,64
49920,note_on,0,0,6,,,,,,,,5,,,48,49
49920,note_on,5,0,1,,,,,,,,0,,,76,106
49920,note_on,0,0,6,,,,,,,,5,,,67,64
49920,note_on,12995,0,3,,,,,,,,2,,,67,49
49920,note_on,35,0,5,,,,,,,,4,,,48,49
49920,note_on,5,0,2,,,,,,,,1,,,67,64
49920,note_on,12995,0,4,,,,,,,,3,,,64,49
50035,note_on,115,0,4,,,,,,,,3,,,64,0
50035,note_on,115,0,6,,,,,,,,5,,,48,0
50035,note_on,115,0,3,,,,,,,,2,,,67,0
50035,note_on,115,0,5,,,,,,,,4,,,48,0
50040,note_on,5,0,3,,,,,,,,2,,,67,49
50040,note_on,5,0,5,,,,,,,,4,,,48,49
50040,note_on,5,0,4,,,,,,,,3,,,64,49
50040,note_on,5,0,6,,,,,,,,5,,,48,49
50145,note_on,225,0,1,,,,,,,,0,,,76,0
50145,note_on,225,0,2,,,,,,,,1,,,67,0
50155,note_on,115,0,3,,,,,,,,2,,,67,0
50155,note_on,115,0,6,,,,,,,,5,,,48,0
50155,note_on,115,0,5,,,,,,,,4,,,48,0
50155,note_on,115,0,4,,,,,,,,3,,,64,0
50160,note_on,5,0,6,,,,,,,,5,,,48,49
50160,note_on,15,0,1,,,,,,,,0,,,72,106
50160,note_on,5,0,5,,,,,,,,4,,,48,49
50160,note_on,15,0,2,,,,,,,,1,,,64,64
50160,note_on,5,0,4,,,,,,,,3,,,64,49
50160,note_on,5,0,3,,,,,,,,2,,,67,49
50275,note_on,115,0,4,,,,,,,,3,,,64,0
50275,note_on,115,0,5,,,,,,,,4,,,48,0
50275,note_on,115,0,3,,,,,,,,2,,,67,0
50275,note_on,115,0,6,,,,,,,,5,,,48,0
50280,note_on,5,0,3,,,,,,,,2,,,67,49
50280,note_on,5,0,5,,,,,,,,4,,,48,49
50280,note_on,5,0,6,,,,,,,,5,,,48,49
50280,note_on,5,0,4,,,,,,,,3,,,64,49
50385,note_on,225,0,1,,,,,,,,0,,,72,0
50385,note_on,225,0,2,,,,,,,,1,,,64,0
50395,note_on,115,0,4,,,,,,,,3,,,64,0
50395,note_on,115,0,5,,,,,,,,4,,,48,0
50395,note_on,115,0,3,,,,,,,,2,,,67,0
50395,note_on,115,0,6,,,,,,,,5,,,48,0
50400,note_on,5,0,5,,,,,,,,4,,,48,49
50400,note_on,5,0,3,,,,,,,,2,,,67,49
50400,note_on,5,0,4,,,,,,,,3,,,64,49
50400,note_on,5,0,6,,,,,,,,5,,,48,49
50515,note_on,115,0,4,,,,,,,,3,,,64,0
50515,note_on,115,0,6,,,,,,,,5,,,48,0
50515,note_on,115,0,3,,,,,,,,2,,,67,0
50515,note_on,115,0,5,,,,,,,,4,,,48,0
50520,note_on,5,0,5,,,,,,,,4,,,48,49
50520,note_on,5,0,3,,,,,,,,2,,,67,49
50520,note_on,5,0,4,,,,,,,,3,,,64,49
50520,note_on,5,0,6,,,,,,,,5,,,48,49
50635,note_on,115,0,6,,,,,,,,5,,,48,0
50635,note_on,115,0,3,,,,,,,,2,,,67,0
50635,note_on,115,0,5,,,,,,,,4,,,48,0
50635,note_on,115,0,4,,,,,,,,3,,,64,0
50640,note_on,5,0,3,,,,,,,,2,,,67,64
50640,note_on,5,0,5,,,,,,,,4,,,48,49
50640,note_on,5,0,4,,,,,,,,3,,,64,49
50640,note_on,5,0,6,,,,,,,,5,,,48,49
50755,note_on,115,0,5,,,,,,,,4,,,48,0
50755,note_on,115,0,3,,,,,,,,2,,,67,0
50755,note_on,115,0,6,,,,,,,,5,,,48,0
50755,note_on,115,0,4,,,,,,,,3,,,64,0
50760,note_on,5,0,6,,,,,,,,5,,,48,49
50760,note_on,5,0,5,,,,,,,,4,,,48,49
50760,note_on,5,0,3,,,,,,,,2,,,67,64
50760,note_on,5,0,4,,,,,,,,3,,,64,49
50805,note_on,0,0,6,,,,,,,,5,,,67,0
50805,note_on,45,0,6,,,,,,,,5,,,76,0
50805,note_on,0,0,6,,,,,,,,5,,,72,0
50875,note_on,115,0,5,,,,,,,,4,,,48,0
50875,note_on,115,0,3,,,,,,,,2,,,67,0
50875,note_on,70,0,6,,,,,,,,5,,,48,0
50875,note_on,115,0,4,,,,,,,,3,,,64,0
50880,note_on,5,0,5,,,,,,,,4,,,46,49
50880,note_on,5,0,3,,,,,,,,2,,,67,64
50880,note_on,0,0,6,,,,,,,,5,,,67,64
50880,note_on,5,0,6,,,,,,,,5,,,76,64
50880,note_on,0,0,6,,,,,,,,5,,,72,64
50880,note_on,0,0,6,,,,,,,,5,,,46,49
50880,note_on,5,0,4,,,,,,,,3,,,64,49
50995,note_on,115,0,5,,,,,,,,4,,,46,0
50995,note_on,115,0,4,,,,,,,,3,,,64,0
50995,note_on,115,0,3,,,,,,,,2,,,67,0
50995,note_on,115,0,6,,,,,,,,5,,,46,0
51000,note_on,5,0,5,,,,,,,,4,,,46,49
51000,note_on,5,0,4,,,,,,,,3,,,64,64
51000,note_on,5,0,3,,,,,,,,2,,,67,64
51000,note_on,5,0,6,,,,,,,,5,,,46,49
51115,note_on,115,0,4,,,,,,,,3,,,64,0
51115,note_on,115,0,6,,,,,,,,5,,,46,0
51115,note_on,115,0,5,,,,,,,,4,,,46,0
51115,note_on,115,0,3,,,,,,,,2,,,67,0
51120,note_on,5,0,6,,,,,,,,5,,,46,49
51120,note_on,5,0,4,,,,,,,,3,,,64,64
51120,note_on,5,0,5,,,,,,,,4,,,46,49
51120,note_on,5,0,3,,,,,,,,2,,,67,64
51235,note_on,115,0,6,,,,,,,,5,,,46,0
51235,note_on,115,0,4,,,,,,,,3,,,64,0
51235,note_on,115,0,3,,,,,,,,2,,,67,0
51235,note_on,115,0,5,,,,,,,,4,,,46,0
51240,note_on,5,0,4,,,,,,,,3,,,64,64
51240,note_on,5,0,3,,,,,,,,2,,,67,85
51240,note_on,5,0,5,,,,,,,,4,,,46,64
51240,note_on,5,0,6,,,,,,,,5,,,46,64
51355,note_on,115,0,3,,,,,,,,2,,,67,0
51355,note_on,115,0,5,,,,,,,,4,,,46,0
51355,note_on,115,0,6,,,,,,,,5,,,46,0
51355,note_on,115,0,4,,,,,,,,3,,,64,0
51360,note_on,5,0,3,,,,,,,,2,,,67,85
51360,note_on,5,0,5,,,,,,,,4,,,46,64
51360,note_on,5,0,4,,,,,,,,3,,,64,64
51360,note_on,5,0,6,,,,,,,,5,,,46,64
51475,note_on,115,0,3,,,,,,,,2,,,67,0
51475,note_on,115,0,5,,,,,,,,4,,,46,0
51475,note_on,115,0,4,,,,,,,,3,,,64,0
51475,note_on,115,0,6,,,,,,,,5,,,46,0
51480,note_on,5,0,3,,,,,,,,2,,,67,85
51480,note_on,5,0,5,,,,,,,,4,,,46,85
51480,note_on,5,0,4,,,,,,,,3,,,64,64
51480,note_on,5,0,6,,,,,,,,5,,,46,85
51595,note_on,115,0,6,,,,,,,,5,,,46,0
51595,note_on,115,0,3,,,,,,,,2,,,67,0
51595,note_on,115,0,4,,,,,,,,3,,,64,0
51595,note_on,115,0,5,,,,,,,,4,,,46,0
51600,note_on,5,0,4,,,,,,,,3,,,64,85
51600,note_on,5,0,3,,,,,,,,2,,,67,85
51600,note_on,5,0,6,,,,,,,,5,,,46,85
51600,note_on,5,0,5,,,,,,,,4,,,46,85
51715,note_on,115,0,3,,,,,,,,2,,,67,0
51715,note_on,115,0,4,,,,,,,,3,,,64,0
51715,note_on,115,0,5,,,,,,,,4,,,46,0
51715,note_on,115,0,6,,,,,,,,5,,,46,0
51720,note_on,5,0,6,,,,,,,,5,,,46,85
51720,note_on,5,0,5,,,,,,,,4,,,46,85
51720,note_on,5,0,4,,,,,,,,3,,,64,85
51720,note_on,5,0,3,,,,,,,,2,,,67,85
51765,note_on,0,0,6,,,,,,,,5,,,67,0
51765,note_on,0,0,6,,,,,,,,5,,,72,0
51765,note_on,45,0,6,,,,,,,,5,,,76,0
51835,note_on,115,0,4,,,,,,,,3,,,64,0
51835,note_on,115,0,5,,,,,,,,4,,,46,0
51835,note_on,70,0,6,,,,,,,,5,,,46,0
51835,note_on,115,0,3,,,,,,,,2,,,67,0
51840,note_on,5,0,5,,,,,,,,4,,,45,85
51840,note_on,0,0,6,,,,,,,,5,,,72,64
51840,note_on,5,0,4,,,,,,,,3,,,65,85
51840,note_on,5,0,6,,,,,,,,5,,,77,64
51840,note_on,1455,0,1,,,,,,,,0,,,77,106
51840,note_on,0,0,6,,,,,,,,5,,,65,64
51840,note_on,0,0,6,,,,,,,,5,,,45,85
51840,note_on,5,0,3,,,,,,,,2,,,72,85
51955,note_on,115,0,1,,,,,,,,0,,,77,0
51960,note_on,5,0,1,,,,,,,,0,,,72,106
52075,note_on,115,0,1,,,,,,,,0,,,72,0
52080,note_on,5,0,1,,,,,,,,0,,,77,106
52195,note_on,115,0,1,,,,,,,,0,,,77,0
52200,note_on,5,0,1,,,,,,,,0,,,81,106
52285,note_on,445,0,3,,,,,,,,2,,,72,0
52285,note_on,445,0,4,,,,,,,,3,,,65,0
52285,note_on,0,0,6,,,,,,,,5,,,77,0
52285,note_on,0,0,6,,,,,,,,5,,,72,0
52285,note_on,0,0,6,,,,,,,,5,,,65,0
52285,note_on,445,0,5,,,,,,,,4,,,45,0
52285,note_on,445,0,6,,,,,,,,5,,,45,0
52315,note_on,115,0,1,,,,,,,,0,,,81,0
52320,note_on,5,0,1,,,,,,,,0,,,77,106
52435,note_on,115,0,1,,,,,,,,0,,,77,0
52440,note_on,5,0,1,,,,,,,,0,,,72,106
52555,note_on,115,0,1,,,,,,,,0,,,72,0
52560,note_on,5,0,1,,,,,,,,0,,,77,106
52675,note_on,115,0,1,,,,,,,,0,,,77,0
52680,note_on,5,0,1,,,,,,,,0,,,81,106
52795,note_on,115,0,1,,,,,,,,0,,,81,0
52800,note_on,5,0,1,,,,,,,,0,,,74,106
52915,note_on,115,0,1,,,,,,,,0,,,74,0
52920,note_on,635,0,3,,,,,,,,2,,,77,49
52920,note_on,635,0,6,,,,,,,,5,,,58,49
52920,note_on,635,0,5,,,,,,,,4,,,58,49
52920,note_on,2535,0,2,,,,,,,,1,,,74,49
52920,note_on,635,0,4,,,,,,,,3,,,70,49
52920,note_on,5,0,1,,,,,,,,0,,,70,106
53035,note_on,115,0,5,,,,,,,,4,,,58,0
53035,note_on,115,0,2,,,,,,,,1,,,74,0
53035,note_on,115,0,6,,,,,,,,5,,,58,0
53035,note_on,115,0,1,,,,,,,,0,,,70,0
53035,note_on,115,0,3,,,,,,,,2,,,77,0
53035,note_on,115,0,4,,,,,,,,3,,,70,0
53040,note_on,5,0,2,,,,,,,,1,,,74,49
53040,note_on,5,0,1,,,,,,,,0,,,70,106
53040,note_on,5,0,6,,,,,,,,5,,,57,49
53040,note_on,5,0,4,,,,,,,,3,,,69,49
53040,note_on,5,0,3,,,,,,,,2,,,77,49
53040,note_on,5,0,5,,,,,,,,4,,,57,49
53155,note_on,115,0,4,,,,,,,,3,,,69,0
53155,note_on,115,0,3,,,,,,,,2,,,77,0
53155,note_on,115,0,2,,,,,,,,1,,,74,0
53155,note_on,115,0,1,,,,,,,,0,,,70,0
53155,note_on,115,0,6,,,,,,,,5,,,57,0
53155,note_on,115,0,5,,,,,,,,4,,,57,0
53160,note_on,5,0,2,,,,,,,,1,,,74,49
53160,note_on,5,0,1,,,,,,,,0,,,70,106
53160,note_on,5,0,5,,,,,,,,4,,,55,49
53160,note_on,5,0,6,,,,,,,,5,,,55,49
53160,note_on,5,0,4,,,,,,,,3,,,67,49
53160,note_on,5,0,3,,,,,,,,2,,,77,49
53275,note_on,115,0,3,,,,,,,,2,,,77,0
53275,note_on,115,0,6,,,,,,,,5,,,55,0
53275,note_on,115,0,1,,,,,,,,0,,,70,0
53275,note_on,115,0,2,,,,,,,,1,,,74,0
53275,note_on,115,0,5,,,,,,,,4,,,55,0
53275,note_on,115,0,4,,,,,,,,3,,,67,0
53280,note_on,5,0,6,,,,,,,,5,,,74,64
53280,note_on,0,0,6,,,,,,,,5,,,70,64
53280,note_on,5,0,2,,,,,,,,1,,,74,64
53280,note_on,5,0,5,,,,,,,,4,,,53,64
53280,note_on,0,0,6,,,,,,,,5,,,53,64
53280,note_on,5,0,1,,,,,,,,0,,,70,106
53280,note_on,5,0,3,,,,,,,,2,,,77,49
53280,note_on,5,0,4,,,,,,,,3,,,65,49
53280,note_on,0,0,6,,,,,,,,5,,,65,64
53395,note_on,115,0,4,,,,,,,,3,,,65,0
53395,note_on,115,0,5,,,,,,,,4,,,53,0
53395,note_on,115,0,2,,,,,,,,1,,,74,0
53395,note_on,115,0,6,,,,,,,,5,,,53,0
53395,note_on,115,0,1,,,,,,,,0,,,70,0
53395,note_on,115,0,3,,,,,,,,2,,,77,0
53400,note_on,5,0,3,,,,,,,,2,,,77,64
53400,note_on,5,0,6,,,,,,,,5,,,52,64
53400,note_on,5,0,5,,,,,,,,4,,,52,64
53400,note_on,5,0,2,,,,,,,,1,,,74,64
53400,note_on,5,0,4,,,,,,,,3,,,63,49
53400,note_on,5,0,1,,,,,,,,0,,,70,106
53515,note_on,115,0,5,,,,,,,,4,,,52,0
53515,note_on,115,0,4,,,,,,,,3,,,63,0
53515,note_on,115,0,6,,,,,,,,5,,,52,0
53515,note_on,115,0,2,,,,,,,,1,,,74,0
53515,note_on,115,0,3,,,,,,,,2,,,77,0
53515,note_on,115,0,1,,,,,,,,0,,,70,0
53520,note_on,5,0,5,,,,,,,,4,,,50,64
53520,note_on,5,0,6,,,,,,,,5,,,50,64
53520,note_on,5,0,3,,,,,,,,2,,,77,85
53520,note_on,5,0,1,,,,,,,,0,,,70,106
53520,note_on,5,0,2,,,,,,,,1,,,74,64
53520,note_on,5,0,4,,,,,,,,3,,,62,64
53635,note_on,115,0,3,,,,,,,,2,,,77,0
53635,note_on,115,0,2,,,,,,,,1,,,74,0
53635,note_on,115,0,1,,,,,,,,0,,,70,0
53635,note_on,115,0,5,,,,,,,,4,,,50,0
53635,note_on,115,0,4,,,,,,,,3,,,62,0
53635,note_on,115,0,6,,,,,,,,5,,,50,0
53640,note_on,5,0,1,,,,,,,,0,,,70,106
53640,note_on,5,0,3,,,,,,,,2,,,77,85
53640,note_on,5,0,2,,,,,,,,1,,,74,85
53640,note_on,5,0,5,,,,,,,,4,,,48,85
53640,note_on,5,0,4,,,,,,,,3,,,60,64
53640,note_on,5,0,6,,,,,,,,5,,,48,85
53725,note_on,0,0,6,,,,,,,,5,,,65,0
53725,note_on,0,0,6,,,,,,,,5,,,70,0
53725,note_on,85,0,6,,,,,,,,5,,,74,0
53755,note_on,30,0,6,,,,,,,,5,,,48,0
53755,note_on,115,0,4,,,,,,,,3,,,60,0
53755,note_on,115,0,5,,,,,,,,4,,,48,0
53755,note_on,115,0,3,,,,,,,,2,,,77,0
53755,note_on,115,0,2,,,,,,,,1,,,74,0
53755,note_on,115,0,1,,,,,,,,0,,,70,0
53760,note_on,5,0,2,,,,,,,,1,,,74,85
53760,note_on,5,0,5,,,,,,,,4,,,46,85
53760,note_on,0,0,6,,,,,,,,5,,,46,85
53760,note_on,0,0,6,,,,,,,,5,,,67,64
53760,note_on,0,0,6,,,,,,,,5,,,74,64
53760,note_on,5,0,6,,,,,,,,5,,,79,64
53760,note_on,5,0,4,,,,,,,,3,,,58,64
53760,note_on,5,0,1,,,,,,,,0,,,79,106
53760,note_on,5,0,3,,,,,,,,2,,,79,85
53875,note_on,115,0,1,,,,,,,,0,,,79,0
53880,note_on,5,0,1,,,,,,,,0,,,74,106
53995,note_on,115,0,1,,,,,,,,0,,,74,0
54000,note_on,5,0,1,,,,,,,,0,,,79,106
54115,note_on,115,0,1,,,,,,,,0,,,79,0
54120,note_on,5,0,1,,,,,,,,0,,,82,106
54205,note_on,445,0,5,,,,,,,,4,,,46,0
54205,note_on,445,0,2,,,,,,,,1,,,74,0
54205,note_on,0,0,6,,,,,,,,5,,,67,0
54205,note_on,0,0,6,,,,,,,,5,,,74,0
54205,note_on,0,0,6,,,,,,,,5,,,79,0
54205,note_on,445,0,6,,,,,,,,5,,,46,0
54205,note_on,445,0,3,,,,,,,,2,,,79,0
54205,note_on,445,0,4,,,,,,,,3,,,58,0
54235,note_on,115,0,1,,,,,,,,0,,,82,0
54240,note_on,5,0,1,,,,,,,,0,,,79,106
54355,note_on,115,0,1,,,,,,,,0,,,79,0
54360,note_on,5,0,1,,,,,,,,0,,,74,106
54475,note_on,115,0,1,,,,,,,,0,,,74,0
54480,note_on,5,0,1,,,,,,,,0,,,79,106
54595,note_on,115,0,1,,,,,,,,0,,,79,0
54600,note_on,5,0,1,,,,,,,,0,,,82,106
54715,note_on,115,0,1,,,,,,,,0,,,82,0
54720,note_on,5,0,1,,,,,,,,0,,,76,106
54835,note_on,115,0,1,,,,,,,,0,,,76,0
54840,note_on,5,0,1,,,,,,,,0,,,72,106
54840,note_on,635,0,4,,,,,,,,3,,,72,49
54840,note_on,635,0,5,,,,,,,,4,,,60,49
54840,note_on,635,0,2,,,,,,,,1,,,76,49
54840,note_on,635,0,3,,,,,,,,2,,,79,49
54840,note_on,635,0,6,,,,,,,,5,,,60,49
54955,note_on,115,0,5,,,,,,,,4,,,60,0
54955,note_on,115,0,3,,,,,,,,2,,,79,0
54955,note_on,115,0,1,,,,,,,,0,,,72,0
54955,note_on,115,0,6,,,,,,,,5,,,60,0
54955,note_on,115,0,4,,,,,,,,3,,,72,0
54955,note_on,115,0,2,,,,,,,,1,,,76,0
54960,note_on,5,0,1,,,,,,,,0,,,72,106
54960,note_on,5,0,4,,,,,,,,3,,,70,49
54960,note_on,5,0,3,,,,,,,,2,,,79,49
54960,note_on,5,0,6,,,,,,,,5,,,58,49
54960,note_on,5,0,5,,,,,,,,4,,,58,49
54960,note_on,5,0,2,,,,,,,,1,,,76,49
55075,note_on,115,0,6,,,,,,,,5,,,58,0
55075,note_on,115,0,1,,,,,,,,0,,,72,0
55075,note_on,115,0,5,,,,,,,,4,,,58,0
55075,note_on,115,0,4,,,,,,,,3,,,70,0
55075,note_on,115,0,3,,,,,,,,2,,,79,0
55075,note_on,115,0,2,,,,,,,,1,,,76,0
55080,note_on,5,0,3,,,,,,,,2,,,79,49
55080,note_on,5,0,4,,,,,,,,3,,,69,49
55080,note_on,5,0,1,,,,,,,,0,,,72,106
55080,note_on,5,0,5,,,,,,,,4,,,57,49
55080,note_on,5,0,6,,,,,,,,5,,,57,49
55080,note_on,5,0,2,,,,,,,,1,,,76,64
55195,note_on,115,0,2,,,,,,,,1,,,76,0
55195,note_on,115,0,1,,,,,,,,0,,,72,0
55195,note_on,115,0,4,,,,,,,,3,,,69,0
55195,note_on,115,0,6,,,,,,,,5,,,57,0
55195,note_on,115,0,3,,,,,,,,2,,,79,0
55195,note_on,115,0,5,,,,,,,,4,,,57,0
55200,note_on,5,0,3,,,,,,,,2,,,79,64
55200,note_on,5,0,4,,,,,,,,3,,,67,49
55200,note_on,5,0,5,,,,,,,,4,,,55,49
55200,note_on,0,0,6,,,,,,,,5,,,67,64
55200,note_on,5,0,2,,,,,,,,1,,,76,64
55200,note_on,0,0,6,,,,,,,,5,,,55,49
55200,note_on,0,0,6,,,,,,,,5,,,72,64
55200,note_on,5,0,6,,,,,,,,5,,,76,64
55200,note_on,5,0,1,,,,,,,,0,,,72,106
55315,note_on,115,0,2,,,,,,,,1,,,76,0
55315,note_on,115,0,6,,,,,,,,5,,,55,0
55315,note_on,115,0,3,,,,,,,,2,,,79,0
55315,note_on,115,0,5,,,,,,,,4,,,55,0
55315,note_on,115,0,4,,,,,,,,3,,,67,0
55315,note_on,115,0,1,,,,,,,,0,,,72,0
55320,note_on,5,0,1,,,,,,,,0,,,72,106
55320,note_on,5,0,4,,,,,,,,3,,,65,64
55320,note_on,5,0,6,,,,,,,,5,,,53,49
55320,note_on,5,0,5,,,,,,,,4,,,53,49
55320,note_on,5,0,3,,,,,,,,2,,,79,64
55320,note_on,5,0,2,,,,,,,,1,,,76,85
55435,note_on,115,0,1,,,,,,,,0,,,72,0
55435,note_on,115,0,4,,,,,,,,3,,,65,0
55435,note_on,115,0,3,,,,,,,,2,,,79,0
55435,note_on,115,0,2,,,,,,,,1,,,76,0
55435,note_on,115,0,5,,,,,,,,4,,,53,0
55435,note_on,115,0,6,,,,,,,,5,,,53,0
55440,note_on,5,0,4,,,,,,,,3,,,64,64
55440,note_on,5,0,2,,,,,,,,1,,,76,85
55440,note_on,5,0,5,,,,,,,,4,,,52,64
55440,note_on,5,0,6,,,,,,,,5,,,52,64
55440,note_on,5,0,3,,,,,,,,2,,,79,85
55440,note_on,5,0,1,,,,,,,,0,,,72,106
55555,note_on,115,0,2,,,,,,,,1,,,76,0
55555,note_on,115,0,5,,,,,,,,4,,,52,0
55555,note_on,115,0,6,,,,,,,,5,,,52,0
55555,note_on,115,0,3,,,,,,,,2,,,79,0
55555,note_on,115,0,4,,,,,,,,3,,,64,0
55555,note_on,115,0,1,,,,,,,,0,,,72,0
55560,note_on,5,0,3,,,,,,,,2,,,79,85
55560,note_on,5,0,5,,,,,,,,4,,,50,64
55560,note_on,5,0,4,,,,,,,,3,,,62,85
55560,note_on,5,0,2,,,,,,,,1,,,76,85
55560,note_on,5,0,6,,,,,,,,5,,,50,64
55560,note_on,5,0,1,,,,,,,,0,,,72,106
55645,note_on,85,0,6,,,,,,,,5,,,76,0
55645,note_on,0,0,6,,,,,,,,5,,,67,0
55645,note_on,0,0,6,,,,,,,,5,,,72,0
55675,note_on,115,0,4,,,,,,,,3,,,62,0
55675,note_on,115,0,3,,,,,,,,2,,,79,0
55675,note_on,115,0,5,,,,,,,,4,,,50,0
55675,note_on,30,0,6,,,,,,,,5,,,50,0
55675,note_on,115,0,2,,,,,,,,1,,,76,0
55675,note_on,115,0,1,,,,,,,,0,,,72,0
55680,note_on,5,0,2,,,,,,,,1,,,76,85
55680,note_on,5,0,3,,,,,,,,2,,,81,85
55680,note_on,0,0,6,,,,,,,,5,,,48,64
55680,note_on,5,0,6,,,,,,,,5,,,81,64
55680,note_on,5,0,1,,,,,,,,0,,,81,106
55680,note_on,0,0,6,,,,,,,,5,,,76,64
55680,note_on,5,0,5,,,,,,,,4,,,48,64
55680,note_on,5,0,4,,,,,,,,3,,,60,85
55680,note_on,0,0,6,,,,,,,,5,,,69,64
55795,note_on,115,0,1,,,,,,,,0,,,81,0
55800,note_on,5,0,1,,,,,,,,0,,,76,106
55915,note_on,115,0,1,,,,,,,,0,,,76,0
55920,note_on,5,0,1,,,,,,,,0,,,81,106
56035,note_on,115,0,1,,,,,,,,0,,,81,0
56040,note_on,5,0,1,,,,,,,,0,,,84,106
56125,note_on,445,0,6,,,,,,,,5,,,48,0
56125,note_on,445,0,3,,,,,,,,2,,,81,0
56125,note_on,445,0,4,,,,,,,,3,,,60,0
56125,note_on,445,0,5,,,,,,,,4,,,48,0
56125,note_on,445,0,2,,,,,,,,1,,,76,0
56125,note_on,0,0,6,,,,,,,,5,,,69,0
56125,note_on,0,0,6,,,,,,,,5,,,76,0
56125,note_on,0,0,6,,,,,,,,5,,,81,0
56155,note_on,115,0,1,,,,,,,,0,,,84,0
56160,note_on,5,0,1,,,,,,,,0,,,81,106
56275,note_on,115,0,1,,,,,,,,0,,,81,0
56280,note_on,5,0,1,,,,,,,,0,,,76,106
56395,note_on,115,0,1,,,,,,,,0,,,76,0
56400,note_on,5,0,1,,,,,,,,0,,,81,106
56515,note_on,115,0,1,,,,,,,,0,,,81,0
56520,note_on,5,0,1,,,,,,,,0,,,84,106
56635,note_on,115,0,1,,,,,,,,0,,,84,0
56640,note_on,5,0,1,,,,,,,,0,,,77,106
56755,note_on,115,0,1,,,,,,,,0,,,77,0
56760,note_on,635,0,4,,,,,,,,3,,,74,49
56760,note_on,635,0,5,,,,,,,,4,,,62,49
56760,note_on,635,0,2,,,,,,,,1,,,77,49
56760,note_on,635,0,6,,,,,,,,5,,,62,49
56760,note_on,635,0,3,,,,,,,,2,,,81,49
56760,note_on,5,0,1,,,,,,,,0,,,74,106
56875,note_on,115,0,1,,,,,,,,0,,,74,0
56875,note_on,115,0,3,,,,,,,,2,,,81,0
56875,note_on,115,0,6,,,,,,,,5,,,62,0
56875,note_on,115,0,2,,,,,,,,1,,,77,0
56875,note_on,115,0,5,,,,,,,,4,,,62,0
56875,note_on,115,0,4,,,,,,,,3,,,74,0
56880,note_on,5,0,3,,,,,,,,2,,,81,49
56880,note_on,5,0,6,,,,,,,,5,,,60,49
56880,note_on,5,0,5,,,,,,,,4,,,60,49
56880,note_on,5,0,1,,,,,,,,0,,,74,106
56880,note_on,5,0,4,,,,,,,,3,,,72,49
56880,note_on,5,0,2,,,,,,,,1,,,77,49
56995,note_on,115,0,1,,,,,,,,0,,,74,0
56995,note_on,115,0,3,,,,,,,,2,,,81,0
56995,note_on,115,0,6,,,,,,,,5,,,60,0
56995,note_on,115,0,2,,,,,,,,1,,,77,0
56995,note_on,115,0,4,,,,,,,,3,,,72,0
56995,note_on,115,0,5,,,,,,,,4,,,60,0
57000,note_on,5,0,3,,,,,,,,2,,,81,49
57000,note_on,5,0,5,,,,,,,,4,,,58,49
57000,note_on,5,0,2,,,,,,,,1,,,77,64
57000,note_on,5,0,1,,,,,,,,0,,,74,106
57000,note_on,5,0,6,,,,,,,,5,,,58,49
57000,note_on,5,0,4,,,,,,,,3,,,70,49
57115,note_on,115,0,1,,,,,,,,0,,,74,0
57115,note_on,115,0,4,,,,,,,,3,,,70,0
57115,note_on,115,0,2,,,,,,,,1,,,77,0
57115,note_on,115,0,3,,,,,,,,2,,,81,0
57115,note_on,115,0,5,,,,,,,,4,,,58,0
57115,note_on,115,0,6,,,,,,,,5,,,58,0
57120,note_on,5,0,1,,,,,,,,0,,,74,106
57120,note_on,0,0,6,,,,,,,,5,,,69,64
57120,note_on,5,0,2,,,,,,,,1,,,77,64
57120,note_on,5,0,5,,,,,,,,4,,,57,49
57120,note_on,5,0,3,,,,,,,,2,,,81,64
57120,note_on,0,0,6,,,,,,,,5,,,74,64
57120,note_on,5,0,4,,,,,,,,3,,,69,49
57120,note_on,5,0,6,,,,,,,,5,,,77,64
57120,note_on,0,0,6,,,,,,,,5,,,57,49
57235,note_on,115,0,3,,,,,,,,2,,,81,0
57235,note_on,115,0,1,,,,,,,,0,,,74,0
57235,note_on,115,0,2,,,,,,,,1,,,77,0
57235,note_on,115,0,6,,,,,,,,5,,,57,0
57235,note_on,115,0,5,,,,,,,,4,,,57,0
57235,note_on,115,0,4,,,,,,,,3,,,69,0
57240,note_on,5,0,3,,,,,,,,2,,,81,64
57240,note_on,5,0,1,,,,,,,,0,,,74,106
57240,note_on,5,0,2,,,,,,,,1,,,77,64
57240,note_on,5,0,6,,,,,,,,5,,,55,49
57240,note_on,5,0,5,,,,,,,,4,,,55,49
57240,note_on,5,0,4,,,,,,,,3,,,67,64
57355,note_on,115,0,4,,,,,,,,3,,,67,0
57355,note_on,115,0,6,,,,,,,,5,,,55,0
57355,note_on,115,0,5,,,,,,,,4,,,55,0
57355,note_on,115,0,1,,,,,,,,0,,,74,0
57355,note_on,115,0,2,,,,,,,,1,,,77,0
57355,note_on,115,0,3,,,,,,,,2,,,81,0
57360,note_on,5,0,5,,,,,,,,4,,,53,64
57360,note_on,5,0,3,,,,,,,,2,,,81,64
57360,note_on,5,0,6,,,,,,,,5,,,53,64
57360,note_on,5,0,4,,,,,,,,3,,,65,64
57360,note_on,5,0,1,,,,,,,,0,,,74,106
57360,note_on,5,0,2,,,,,,,,1,,,77,85
57475,note_on,115,0,5,,,,,,,,4,,,53,0
57475,note_on,115,0,4,,,,,,,,3,,,65,0
57475,note_on,115,0,2,,,,,,,,1,,,77,0
57475,note_on,115,0,3,,,,,,,,2,,,81,0
57475,note_on,115,0,1,,,,,,,,0,,,74,0
57475,note_on,115,0,6,,,,,,,,5,,,53,0
57480,note_on,5,0,1,,,,,,,,0,,,74,106
57480,note_on,5,0,2,,,,,,,,1,,,77,85
57480,note_on,5,0,3,,,,,,,,2,,,81,85
57480,note_on,5,0,4,,,,,,,,3,,,64,64
57480,note_on,5,0,5,,,,,,,,4,,,52,64
57480,note_on,5,0,6,,,,,,,,5,,,52,64
57565,note_on,0,0,6,,,,,,,,5,,,69,0
57565,note_on,0,0,6,,,,,,,,5,,,74,0
57565,note_on,85,0,6,,,,,,,,5,,,77,0
57595,note_on,115,0,3,,,,,,,,2,,,81,0
57595,note_on,115,0,4,,,,,,,,3,,,64,0
57595,note_on,115,0,5,,,,,,,,4,,,52,0
57595,note_on,115,0,2,,,,,,,,1,,,77,0
57595,note_on,30,0,6,,,,,,,,5,,,52,0
57595,note_on,115,0,1,,,,,,,,0,,,74,0
57600,note_on,5,0,1,,,,,,,,0,,,83,106
57600,note_on,5,0,3,,,,,,,,2,,,83,85
57600,note_on,0,0,6,,,,,,,,5,,,65,64
57600,note_on,5,0,4,,,,,,,,3,,,62,85
57600,note_on,0,0,6,,,,,,,,5,,,71,64
57600,note_on,0,0,6,,,,,,,,5,,,50,85
57600,note_on,5,0,5,,,,,,,,4,,,50,85
57600,note_on,5,0,2,,,,,,,,1,,,77,85
57600,note_on,5,0,6,,,,,,,,5,,,77,64
57715,note_on,115,0,1,,,,,,,,0,,,83,0
57720,note_on,5,0,1,,,,,,,,0,,,79,106
57835,note_on,115,0,1,,,,,,,,0,,,79,0
57840,note_on,5,0,1,,,,,,,,0,,,83,106
57955,note_on,115,0,1,,,,,,,,0,,,83,0
57960,note_on,5,0,1,,,,,,,,0,,,86,106
58045,note_on,445,0,5,,,,,,,,4,,,50,0
58045,note_on,445,0,4,,,,,,,,3,,,62,0
58045,note_on,445,0,2,,,,,,,,1,,,77,0
58045,note_on,0,0,6,,,,,,,,5,,,71,0
58045,note_on,0,0,6,,,,,,,,5,,,65,0
58045,note_on,445,0,6,,,,,,,,5,,,50,0
58045,note_on,445,0,3,,,,,,,,2,,,83,0
58045,note_on,0,0,6,,,,,,,,5,,,77,0
58075,note_on,115,0,1,,,,,,,,0,,,86,0
58080,note_on,5,0,1,,,,,,,,0,,,83,106
58195,note_on,115,0,1,,,,,,,,0,,,83,0
58200,note_on,5,0,1,,,,,,,,0,,,79,106
58315,note_on,115,0,1,,,,,,,,0,,,79,0
58320,note_on,5,0,1,,,,,,,,0,,,83,106
58435,note_on,115,0,1,,,,,,,,0,,,83,0
58440,note_on,5,0,1,,,,,,,,0,,,86,106
58555,note_on,115,0,1,,,,,,,,0,,,86,0
58560,note_on,0,0,6,,,,,,,,5,,,67,64
58560,note_on,515,0,4,,,,,,,,3,,,67,49
58560,note_on,515,0,3,,,,,,,,2,,,72,49
58560,note_on,5,0,1,,,,,,,,0,,,76,106
58560,note_on,515,0,5,,,,,,,,4,,,48,49
58560,note_on,0,0,6,,,,,,,,5,,,72,64
58560,note_on,515,0,6,,,,,,,,5,,,76,64
58560,note_on,0,0,6,,,,,,,,5,,,48,49
58560,note_on,515,0,2,,,,,,,,1,,,76,49
58675,note_on,115,0,1,,,,,,,,0,,,76,0
58680,note_on,5,0,1,,,,,,,,0,,,79,106
58785,note_on,225,0,2,,,,,,,,1,,,76,0
58785,note_on,225,0,6,,,,,,,,5,,,48,0
58785,note_on,225,0,5,,,,,,,,4,,,48,0
58785,note_on,225,0,3,,,,,,,,2,,,72,0
58785,note_on,225,0,4,,,,,,,,3,,,67,0
58795,note_on,115,0,1,,,,,,,,0,,,79,0
58800,note_on,15,0,5,,,,,,,,4,,,48,49
58800,note_on,15,0,6,,,,,,,,5,,,48,49
58800,note_on,15,0,3,,,,,,,,2,,,72,49
58800,note_on,15,0,4,,,,,,,,3,,,67,49
58800,note_on,5,0,1,,,,,,,,0,,,84,106
58800,note_on,15,0,2,,,,,,,,1,,,76,49
58915,note_on,115,0,1,,,,,,,,0,,,84,0
58920,note_on,5,0,1,,,,,,,,0,,,79,106
59025,note_on,225,0,2,,,,,,,,1,,,76,0
59025,note_on,225,0,4,,,,,,,,3,,,67,0
59025,note_on,225,0,5,,,,,,,,4,,,48,0
59025,note_on,225,0,6,,,,,,,,5,,,48,0
59025,note_on,225,0,3,,,,,,,,2,,,72,0
59035,note_on,115,0,1,,,,,,,,0,,,79,0
59040,note_on,5,0,1,,,,,,,,0,,,76,106
59040,note_on,15,0,3,,,,,,,,2,,,72,49
59040,note_on,15,0,2,,,,,,,,1,,,76,49
59040,note_on,15,0,4,,,,,,,,3,,,67,64
59040,note_on,15,0,5,,,,,,,,4,,,48,49
59040,note_on,15,0,6,,,,,,,,5,,,48,49
59155,note_on,115,0,1,,,,,,,,0,,,76,0
59160,note_on,5,0,1,,,,,,,,0,,,79,106
59265,note_on,225,0,5,,,,,,,,4,,,48,0
59265,note_on,225,0,6,,,,,,,,5,,,48,0
59265,note_on,225,0,4,,,,,,,,3,,,67,0
59265,note_on,225,0,2,,,,,,,,1,,,76,0
59265,note_on,225,0,3,,,,,,,,2,,,72,0
59275,note_on,115,0,1,,,,,,,,0,,,79,0
59280,note_on,15,0,3,,,,,,,,2,,,72,49
59280,note_on,15,0,4,,,,,,,,3,,,67,64
59280,note_on,15,0,5,,,,,,,,4,,,48,49
59280,note_on,15,0,2,,,,,,,,1,,,76,64
59280,note_on,15,0,6,,,,,,,,5,,,48,49
59280,note_on,5,0,1,,,,,,,,0,,,84,106
59395,note_on,115,0,1,,,,,,,,0,,,84,0
59400,note_on,5,0,1,,,,,,,,0,,,79,106
59445,note_on,0,0,6,,,,,,,,5,,,72,0
59445,note_on,0,0,6,,,,,,,,5,,,67,0
59445,note_on,165,0,6,,,,,,,,5,,,76,0
59505,note_on,225,0,4,,,,,,,,3,,,67,0
59505,note_on,225,0,2,,,,,,,,1,,,76,0
59505,note_on,60,0,6,,,,,,,,5,,,48,0
59505,note_on,225,0,3,,,,,,,,2,,,72,0
59505,note_on,225,0,5,,,,,,,,4,,,48,0
59515,note_on,115,0,1,,,,,,,,0,,,79,0
59520,note_on,15,0,4,,,,,,,,3,,,67,64
59520,note_on,15,0,3,,,,,,,,2,,,72,64
59520,note_on,15,0,5,,,,,,,,4,,,55,49
59520,note_on,0,0,6,,,,,,,,5,,,55,49
59520,note_on,0,0,6,,,,,,,,5,,,67,64
59520,note_on,0,0,6,,,,,,,,5,,,72,64
59520,note_on,15,0,6,,,,,,,,5,,,74,64
59520,note_on,5,0,1,,,,,,,,0,,,74,106
59520,note_on,15,0,2,,,,,,,,1,,,74,64
59635,note_on,115,0,1,,,,,,,,0,,,74,0
59640,note_on,5,0,1,,,,,,,,0,,,79,106
59745,note_on,225,0,4,,,,,,,,3,,,67,0
59745,note_on,225,0,5,,,,,,,,4,,,55,0
59745,note_on,225,0,2,,,,,,,,1,,,74,0
59745,note_on,225,0,3,,,,,,,,2,,,72,0
59745,note_on,225,0,6,,,,,,,,5,,,55,0
59755,note_on,115,0,1,,,,,,,,0,,,79,0
59760,note_on,15,0,3,,,,,,,,2,,,72,64
59760,note_on,15,0,4,,,,,,,,3,,,67,64
59760,note_on,5,0,1,,,,,,,,0,,,84,106
59760,note_on,15,0,5,,,,,,,,4,,,55,64
59760,note_on,15,0,2,,,,,,,,1,,,74,64
59760,note_on,15,0,6,,,,,,,,5,,,55,64
59875,note_on,115,0,1,,,,,,,,0,,,84,0
59880,note_on,5,0,1,,,,,,,,0,,,79,106
59985,note_on,225,0,3,,,,,,,,2,,,72,0
59985,note_on,225,0,5,,,,,,,,4,,,55,0
59985,note_on,225,0,2,,,,,,,,1,,,74,0
59985,note_on,225,0,6,,,,,,,,5,,,55,0
59985,note_on,225,0,4,,,,,,,,3,,,67,0
59995,note_on,115,0,1,,,,,,,,0,,,79,0
60000,note_on,15,0,5,,,,,,,,4,,,55,64
60000,note_on,15,0,2,,,,,,,,1,,,74,64
60000,note_on,15,0,4,,,,,,,,3,,,67,64
60000,note_on,15,0,6,,,,,,,,5,,,55,64
60000,note_on,5,0,1,,,,,,,,0,,,74,106
60000,note_on,15,0,3,,,,,,,,2,,,72,64
60115,note_on,115,0,1,,,,,,,,0,,,74,0
60120,note_on,5,0,1,,,,,,,,0,,,79,106
60225,note_on,225,0,6,,,,,,,,5,,,55,0
60225,note_on,225,0,5,,,,,,,,4,,,55,0
60225,note_on,225,0,3,,,,,,,,2,,,72,0
60225,note_on,225,0,4,,,,,,,,3,,,67,0
60225,note_on,225,0,2,,,,,,,,1,,,74,0
60235,note_on,115,0,1,,,,,,,,0,,,79,0
60240,note_on,15,0,3,,,,,,,,2,,,72,64
60240,note_on,5,0,1,,,,,,,,0,,,84,106
60240,note_on,15,0,6,,,,,,,,5,,,55,64
60240,note_on,15,0,4,,,,,,,,3,,,67,64
60240,note_on,15,0,5,,,,,,,,4,,,55,64
60240,note_on,15,0,2,,,,,,,,1,,,74,64
60355,note_on,115,0,1,,,,,,,,0,,,84,0
60360,note_on,5,0,1,,,,,,,,0,,,79,106
60405,note_on,165,0,6,,,,,,,,5,,,74,0
60405,note_on,0,0,6,,,,,,,,5,,,67,0
60405,note_on,0,0,6,,,,,,,,5,,,72,0
60465,note_on,225,0,2,,,,,,,,1,,,74,0
60465,note_on,225,0,3,,,,,,,,2,,,72,0
60465,note_on,225,0,4,,,,,,,,3,,,67,0
60465,note_on,60,0,6,,,,,,,,5,,,55,0
60465,note_on,225,0,5,,,,,,,,4,,,55,0
60475,note_on,115,0,1,,,,,,,,0,,,79,0
60480,note_on,0,0,6,,,,,,,,5,,,71,64
60480,note_on,15,0,6,,,,,,,,5,,,74,64
60480,note_on,15,0,3,,,,,,,,2,,,71,64
60480,note_on,15,0,5,,,,,,,,4,,,43,64
60480,note_on,15,0,4,,,,,,,,3,,,67,64
60480,note_on,15,0,2,,,,,,,,1,,,74,85
60480,note_on,0,0,6,,,,,,,,5,,,43,64
60480,note_on,0,0,6,,,,,,,,5,,,67,64
60480,note_on,5,0,1,,,,,,,,0,,,74,106
60595,note_on,115,0,1,,,,,,,,0,,,74,0
60600,note_on,5,0,1,,,,,,,,0,,,79,106
60705,note_on,225,0,3,,,,,,,,2,,,71,0
60705,note_on,225,0,5,,,,,,,,4,,,43,0
60705,note_on,225,0,2,,,,,,,,1,,,74,0
60705,note_on,225,0,6,,,,,,,,5,,,43,0
60705,note_on,225,0,4,,,,,,,,3,,,67,0
60715,note_on,115,0,1,,,,,,,,0,,,79,0
60720,note_on,5,0,1,,,,,,,,0,,,83,106
60720,note_on,15,0,6,,,,,,,,5,,,43,64
60720,note_on,15,0,3,,,,,,,,2,,,71,85
60720,note_on,15,0,2,,,,,,,,1,,,74,85
60720,note_on,15,0,4,,,,,,,,3,,,67,64
60720,note_on,15,0,5,,,,,,,,4,,,43,64
60835,note_on,115,0,1,,,,,,,,0,,,83,0
60840,note_on,5,0,1,,,,,,,,0,,,79,106
60945,note_on,225,0,6,,,,,,,,5,,,43,0
60945,note_on,225,0,3,,,,,,,,2,,,71,0
60945,note_on,225,0,4,,,,,,,,3,,,67,0
60945,note_on,225,0,2,,,,,,,,1,,,74,0
60945,note_on,225,0,5,,,,,,,,4,,,43,0
60955,note_on,115,0,1,,,,,,,,0,,,79,0
60960,note_on,15,0,6,,,,,,,,5,,,43,64
60960,note_on,15,0,2,,,,,,,,1,,,74,85
60960,note_on,15,0,4,,,,,,,,3,,,67,85
60960,note_on,15,0,3,,,,,,,,2,,,71,85
60960,note_on,5,0,1,,,,,,,,0,,,74,106
60960,note_on,15,0,5,,,,,,,,4,,,43,64
61075,note_on,115,0,1,,,,,,,,0,,,74,0
61080,note_on,5,0,1,,,,,,,,0,,,79,106
61185,note_on,225,0,5,,,,,,,,4,,,43,0
61185,note_on,225,0,2,,,,,,,,1,,,74,0
61185,note_on,225,0,4,,,,,,,,3,,,67,0
61185,note_on,225,0,6,,,,,,,,5,,,43,0
61185,note_on,225,0,3,,,,,,,,2,,,71,0
61195,note_on,115,0,1,,,,,,,,0,,,79,0
61200,note_on,15,0,6,,,,,,,,5,,,43,85
61200,note_on,15,0,3,,,,,,,,2,,,71,85
61200,note_on,5,0,1,,,,,,,,0,,,83,106
61200,note_on,15,0,5,,,,,,,,4,,,43,85
61200,note_on,15,0,4,,,,,,,,3,,,67,85
61200,note_on,15,0,2,,,,,,,,1,,,74,85
61315,note_on,115,0,1,,,,,,,,0,,,83,0
61320,note_on,5,0,1,,,,,,,,0,,,79,106
61365,note_on,0,0,6,,,,,,,,5,,,71,0
61365,note_on,165,0,6,,,,,,,,5,,,74,0
61365,note_on,0,0,6,,,,,,,,5,,,67,0
61425,note_on,225,0,3,,,,,,,,2,,,71,0
61425,note_on,225,0,4,,,,,,,,3,,,67,0
61425,note_on,225,0,2,,,,,,,,1,,,74,0
61425,note_on,225,0,5,,,,,,,,4,,,43,0
61425,note_on,60,0,6,,,,,,,,5,,,43,0
61435,note_on,115,0,1,,,,,,,,0,,,79,0
61440,note_on,5,0,1,,,,,,,,0,,,72,85
61440,note_on,15,0,3,,,,,,,,2,,,60,85
61440,note_on,15,0,6,,,,,,,,5,,,72,64
61440,note_on,15,0,5,,,,,,,,4,,,48,85
61440,note_on,15,0,4,,,,,,,,3,,,60,85
61440,note_on,0,0,6,,,,,,,,5,,,67,64
61440,note_on,0,0,6,,,,,,,,5,,,64,64
61440,note_on,15,0,2,,,,,,,,1,,,60,85
61440,note_on,0,0,6,,,,,,,,5,,,48,85
61555,note_on,115,0,1,,,,,,,,0,,,72,0
61555,note_on,115,0,3,,,,,,,,2,,,60,0
61555,note_on,115,0,2,,,,,,,,1,,,60,0
61560,note_on,5,0,3,,,,,,,,2,,,62,85
61560,note_on,5,0,1,,,,,,,,0,,,74,85
61560,note_on,5,0,2,,,,,,,,1,,,62,85
61665,note_on,225,0,6,,,,,,,,5,,,48,0
61665,note_on,225,0,5,,,,,,,,4,,,48,0
61665,note_on,225,0,4,,,,,,,,3,,,60,0
61675,note_on,115,0,1,,,,,,,,0,,,74,0
61675,note_on,115,0,3,,,,,,,,2,,,62,0
61675,note_on,115,0,2,,,,,,,,1,,,62,0
61680,note_on,5,0,2,,,,,,,,1,,,64,85
61680,note_on,5,0,1,,,,,,,,0,,,76,85
61680,note_on,15,0,5,,,,,,,,4,,,48,85
61680,note_on,15,0,6,,,,,,,,5,,,48,85
61680,note_on,5,0,3,,,,,,,,2,,,64,85
61680,note_on,15,0,4,,,,,,,,3,,,60,85
61795,note_on,115,0,1,,,,,,,,0,,,76,0
61795,note_on,115,0,3,,,,,,,,2,,,64,0
61795,note_on,115,0,2,,,,,,,,1,,,64,0
61800,note_on,5,0,2,,,,,,,,1,,,65,85
61800,note_on,5,0,1,,,,,,,,0,,,77,85
61800,note_on,5,0,3,,,,,,,,2,,,65,85
61885,note_on,205,0,6,,,,,,,,5,,,72,0
61885,note_on,0,0,6,,,,,,,,5,,,64,0
61885,note_on,0,0,6,,,,,,,,5,,,67,0
61905,note_on,225,0,5,,,,,,,,4,,,48,0
61905,note_on,20,0,6,,,,,,,,5,,,48,0
61905,note_on,225,0,4,,,,,,,,3,,,60,0
61915,note_on,115,0,3,,,,,,,,2,,,65,0
61915,note_on,115,0,1,,,,,,,,0,,,77,0
61915,note_on,115,0,2,,,,,,,,1,,,65,0
61920,note_on,5,0,3,,,,,,,,2,,,67,85
61920,note_on,15,0,6,,,,,,,,5,,,48,85
61920,note_on,5,0,2,,,,,,,,1,,,67,85
61920,note_on,15,0,5,,,,,,,,4,,,48,85
61920,note_on,15,0,4,,,,,,,,3,,,60,85
61920,note_on,5,0,1,,,,,,,,0,,,79,85
62035,note_on,115,0,3,,,,,,,,2,,,67,0
62035,note_on,115,0,1,,,,,,,,0,,,79,0
62035,note_on,115,0,2,,,,,,,,1,,,67,0
62040,note_on,5,0,1,,,,,,,,0,,,81,85
62040,note_on,5,0,3,,,,,,,,2,,,69,85
62040,note_on,5,0,2,,,,,,,,1,,,69,85
62145,note_on,225,0,5,,,,,,,,4,,,48,0
62145,note_on,225,0,6,,,,,,,,5,,,48,0
62145,note_on,225,0,4,,,,,,,,3,,,60,0
62155,note_on,115,0,3,,,,,,,,2,,,69,0
62155,note_on,115,0,2,,,,,,,,1,,,69,0
62155,note_on,115,0,1,,,,,,,,0,,,81,0
62160,note_on,15,0,5,,,,,,,,4,,,48,85
62160,note_on,5,0,3,,,,,,,,2,,,71,85
62160,note_on,5,0,1,,,,,,,,0,,,83,85
62160,note_on,5,0,2,,,,,,,,1,,,71,85
62160,note_on,15,0,4,,,,,,,,3,,,60,85
62160,note_on,15,0,6,,,,,,,,5,,,48,85
62275,note_on,115,0,1,,,,,,,,0,,,83,0
62275,note_on,115,0,2,,,,,,,,1,,,71,0
62275,note_on,115,0,3,,,,,,,,2,,,71,0
62280,note_on,5,0,1,,,,,,,,0,,,84,85
62280,note_on,5,0,2,,,,,,,,1,,,72,85
62280,note_on,5,0,3,,,,,,,,2,,,72,85
62385,note_on,225,0,4,,,,,,,,3,,,60,0
62385,note_on,225,0,5,,,,,,,,4,,,48,0
62385,note_on,225,0,6,,,,,,,,5,,,48,0
62395,note_on,115,0,2,,,,,,,,1,,,72,0
62395,note_on,115,0,3,,,,,,,,2,,,72,0
62395,note_on,115,0,1,,,,,,,,0,,,84,0
62400,note_on,15,0,4,,,,,,,,3,,,60,85
62400,note_on,15,0,5,,,,,,,,4,,,48,85
62400,note_on,5,0,3,,,,,,,,2,,,60,85
62400,note_on,5,0,1,,,,,,,,0,,,72,85
62400,note_on,5,0,2,,,,,,,,1,,,60,85
62400,note_on,0,0,6,,,,,,,,5,,,48,85
62400,note_on,15,0,6,,,,,,,,5,,,60,64
62515,note_on,0,0,6,,,,,,,,5,,,60,0
62515,note_on,115,0,5,,,,,,,,4,,,48,0
62515,note_on,115,0,6,,,,,,,,5,,,48,0
62515,note_on,115,0,4,,,,,,,,3,,,60,0
62520,note_on,5,0,6,,,,,,,,5,,,62,64
62520,note_on,5,0,5,,,,,,,,4,,,50,85
62520,note_on,0,0,6,,,,,,,,5,,,50,85
62520,note_on,5,0,4,,,,,,,,3,,,62,85
62625,note_on,225,0,3,,,,,,,,2,,,60,0
62625,note_on,225,0,1,,,,,,,,0,,,72,0
62625,note_on,225,0,2,,,,,,,,1,,,60,0
62635,note_on,0,0,6,,,,,,,,5,,,62,0
62635,note_on,115,0,5,,,,,,,,4,,,50,0
62635,note_on,115,0,6,,,,,,,,5,,,50,0
62635,note_on,115,0,4,,,,,,,,3,,,62,0
62640,note_on,15,0,3,,,,,,,,2,,,60,85
62640,note_on,5,0,4,,,,,,,,3,,,64,85
62640,note_on,5,0,6,,,,,,,,5,,,64,64
62640,note_on,15,0,2,,,,,,,,1,,,60,85
62640,note_on,0,0,6,,,,,,,,5,,,52,85
62640,note_on,15,0,1,,,,,,,,0,,,72,85
62640,note_on,5,0,5,,,,,,,,4,,,52,85
62755,note_on,115,0,4,,,,,,,,3,,,64,0
62755,note_on,0,0,6,,,,,,,,5,,,64,0
62755,note_on,115,0,6,,,,,,,,5,,,52,0
62755,note_on,115,0,5,,,,,,,,4,,,52,0
62760,note_on,5,0,4,,,,,,,,3,,,65,85
62760,note_on,0,0,6,,,,,,,,5,,,53,85
62760,note_on,5,0,6,,,,,,,,5,,,65,64
62760,note_on,5,0,5,,,,,,,,4,,,53,85
62865,note_on,225,0,2,,,,,,,,1,,,60,0
62865,note_on,225,0,3,,,,,,,,2,,,60,0
62865,note_on,225,0,1,,,,,,,,0,,,72,0
62875,note_on,115,0,5,,,,,,,,4,,,53,0
62875,note_on,115,0,6,,,,,,,,5,,,53,0
62875,note_on,0,0,6,,,,,,,,5,,,65,0
62875,note_on,115,0,4,,,,,,,,3,,,65,0
62880,note_on,15,0,3,,,,,,,,2,,,60,85
62880,note_on,15,0,2,,,,,,,,1,,,60,85
62880,note_on,5,0,6,,,,,,,,5,,,67,64
62880,note_on,0,0,6,,,,,,,,5,,,55,85
62880,note_on,15,0,1,,,,,,,,0,,,72,85
62880,note_on,5,0,5,,,,,,,,4,,,55,85
62880,note_on,5,0,4,,,,,,,,3,,,67,85
62995,note_on,115,0,4,,,,,,,,3,,,67,0
62995,note_on,0,0,6,,,,,,,,5,,,67,0
62995,note_on,115,0,6,,,,,,,,5,,,55,0
62995,note_on,115,0,5,,,,,,,,4,,,55,0
63000,note_on,5,0,6,,,,,,,,5,,,69,64
63000,note_on,0,0,6,,,,,,,,5,,,57,85
63000,note_on,5,0,5,,,,,,,,4,,,57,85
63000,note_on,5,0,4,,,,,,,,3,,,69,85
63105,note_on,225,0,3,,,,,,,,2,,,60,0
63105,note_on,225,0,2,,,,,,,,1,,,60,0
63105,note_on,225,0,1,,,,,,,,0,,,72,0
63115,note_on,115,0,5,,,,,,,,4,,,57,0
63115,note_on,115,0,4,,,,,,,,3,,,69,0
63115,note_on,0,0,6,,,,,,,,5,,,69,0
63115,note_on,115,0,6,,,,,,,,5,,,57,0
63120,note_on,0,0,6,,,,,,,,5,,,59,85
63120,note_on,15,0,1,,,,,,,,0,,,72,85
63120,note_on,5,0,4,,,,,,,,3,,,71,85
63120,note_on,15,0,2,,,,,,,,1,,,60,85
63120,note_on,5,0,6,,,,,,,,5,,,71,64
63120,note_on,5,0,5,,,,,,,,4,,,59,85
63120,note_on,15,0,3,,,,,,,,2,,,60,85
63235,note_on,0,0,6,,,,,,,,5,,,71,0
63235,note_on,115,0,6,,,,,,,,5,,,59,0
63235,note_on,115,0,4,,,,,,,,3,,,71,0
63235,note_on,115,0,5,,,,,,,,4,,,59,0
63240,note_on,5,0,6,,,,,,,,5,,,72,64
63240,note_on,0,0,6,,,,,,,,5,,,60,85
63240,note_on,5,0,5,,,,,,,,4,,,60,85
63240,note_on,5,0,4,,,,,,,,3,,,72,85
63345,note_on,225,0,3,,,,,,,,2,,,60,0
63345,note_on,225,0,2,,,,,,,,1,,,60,0
63345,note_on,225,0,1,,,,,,,,0,,,72,0
63355,note_on,0,0,6,,,,,,,,5,,,72,0
63355,note_on,115,0,4,,,,,,,,3,,,72,0
63355,note_on,115,0,6,,,,,,,,5,,,60,0
63355,note_on,115,0,5,,,,,,,,4,,,60,0
63360,note_on,5,0,6,,,,,,,,5,,,60,64
63360,note_on,15,0,2,,,,,,,,1,,,60,85
63360,note_on,15,0,1,,,,,,,,0,,,72,85
63360,note_on,0,0,6,,,,,,,,5,,,48,85
63360,note_on,5,0,5,,,,,,,,4,,,48,85
63360,note_on,5,0,4,,,,,,,,3,,,60,85
63360,note_on,15,0,3,,,,,,,,2,,,60,85
63475,note_on,115,0,2,,,,,,,,1,,,60,0
63475,note_on,115,0,1,,,,,,,,0,,,72,0
63475,note_on,115,0,3,,,,,,,,2,,,60,0
63480,note_on,5,0,2,,,,,,,,1,,,62,85
63480,note_on,5,0,3,,,,,,,,2,,,62,85
63480,note_on,5,0,1,,,,,,,,0,,,74,85
63585,note_on,225,0,5,,,,,,,,4,,,48,0
63585,note_on,225,0,6,,,,,,,,5,,,48,0
63585,note_on,0,0,6,,,,,,,,5,,,60,0
63585,note_on,225,0,4,,,,,,,,3,,,60,0
63595,note_on,115,0,3,,,,,,,,2,,,62,0
63595,note_on,115,0,2,,,,,,,,1,,,62,0
63595,note_on,115,0,1,,,,,,,,0,,,74,0
63600,note_on,5,0,1,,,,,,,,0,,,76,85
63600,note_on,15,0,5,,,,,,,,4,,,48,85
63600,note_on,5,0,2,,,,,,,,1,,,64,85
63600,note_on,5,0,3,,,,,,,,2,,,64,85
63600,note_on,15,0,4,,,,,,,,3,,,60,85
63600,note_on,15,0,6,,,,,,,,5,,,60,64
63600,note_on,0,0,6,,,,,,,,5,,,48,85
63715,note_on,115,0,2,,,,,,,,1,,,64,0
63715,note_on,115,0,3,,,,,,,,2,,,64,0
63715,note_on,115,0,1,,,,,,,,0,,,76,0
63720,note_on,5,0,2,,,,,,,,1,,,65,85
63720,note_on,5,0,3,,,,,,,,2,,,65,85
63720,note_on,5,0,1,,,,,,,,0,,,77,85
63825,note_on,225,0,4,,,,,,,,3,,,60,0
63825,note_on,225,0,5,,,,,,,,4,,,48,0
63825,note_on,0,0,6,,,,,,,,5,,,60,0
63825,note_on,225,0,6,,,,,,,,5,,,48,0
63835,note_on,115,0,1,,,,,,,,0,,,77,0
63835,note_on,115,0,2,,,,,,,,1,,,65,0
63835,note_on,115,0,3,,,,,,,,2,,,65,0
63840,note_on,5,0,2,,,,,,,,1,,,67,85
63840,note_on,5,0,3,,,,,,,,2,,,67,85
63840,note_on,0,0,6,,,,,,,,5,,,48,85
63840,note_on,15,0,4,,,,,,,,3,,,60,85
63840,note_on,5,0,1,,,,,,,,0,,,79,85
63840,note_on,15,0,5,,,,,,,,4,,,48,85
63840,note_on,15,0,6,,,,,,,,5,,,60,64
63955,note_on,115,0,1,,,,,,,,0,,,79,0
63955,note_on,115,0,3,,,,,,,,2,,,67,0
63955,note_on,115,0,2,,,,,,,,1,,,67,0
63960,note_on,5,0,3,,,,,,,,2,,,69,85
63960,note_on,5,0,1,,,,,,,,0,,,81,85
63960,note_on,5,0,2,,,,,,,,1,,,69,85
64065,note_on,225,0,5,,,,,,,,4,,,48,0
64065,note_on,225,0,6,,,,,,,,5,,,48,0
64065,note_on,225,0,4,,,,,,,,3,,,60,0
64065,note_on,0,0,6,,,,,,,,5,,,60,0
64075,note_on,115,0,1,,,,,,,,0,,,81,0
64075,note_on,115,0,3,,,,,,,,2,,,69,0
64075,note_on,115,0,2,,,,,,,,1,,,69,0
64080,note_on,5,0,3,,,,,,,,2,,,71,85
64080,note_on,5,0,1,,,,,,,,0,,,83,85
64080,note_on,15,0,4,,,,,,,,3,,,60,85
64080,note_on,0,0,6,,,,,,,,5,,,48,85
64080,note_on,15,0,6,,,,,,,,5,,,60,64
64080,note_on,15,0,5,,,,,,,,4,,,48,85
64080,note_on,5,0,2,,,,,,,,1,,,71,85
64195,note_on,115,0,1,,,,,,,,0,,,83,0
64195,note_on,115,0,3,,,,,,,,2,,,71,0
64195,note_on,115,0,2,,,,,,,,1,,,71,0
64200,note_on,5,0,1,,,,,,,,0,,,84,85
64200,note_on,5,0,3,,,,,,,,2,,,72,85
64200,note_on,5,0,2,,,,,,,,1,,,72,85
64305,note_on,0,0,6,,,,,,,,5,,,60,0
64305,note_on,225,0,5,,,,,,,,4,,,48,0
64305,note_on,225,0,6,,,,,,,,5,,,48,0
64305,note_on,225,0,4,,,,,,,,3,,,60,0
64315,note_on,115,0,3,,,,,,,,2,,,72,0
64315,note_on,115,0,2,,,,,,,,1,,,72,0
64315,note_on,115,0,1,,,,,,,,0,,,84,0
64320,note_on,5,0,2,,,,,,,,1,,,60,85
64320,note_on,5,0,3,,,,,,,,2,,,60,85
64320,note_on,15,0,5,,,,,,,,4,,,48,85
64320,note_on,15,0,4,,,,,,,,3,,,60,85
64320,note_on,5,0,1,,,,,,,,0,,,72,85
64320,note_on,0,0,6,,,,,,,,5,,,48,85
64320,note_on,15,0,6,,,,,,,,5,,,60,64
64435,note_on,115,0,6,,,,,,,,5,,,48,0
64435,note_on,115,0,4,,,,,,,,3,,,60,0
64435,note_on,0,0,6,,,,,,,,5,,,60,0
64435,note_on,115,0,5,,,,,,,,4,,,48,0
64440,note_on,5,0,5,,,,,,,,4,,,50,85
64440,note_on,0,0,6,,,,,,,,5,,,50,85
64440,note_on,5,0,6,,,,,,,,5,,,62,64
64440,note_on,5,0,4,,,,,,,,3,,,62,85
64545,note_on,225,0,3,,,,,,,,2,,,60,0
64545,note_on,225,0,2,,,,,,,,1,,,60,0
64545,note_on,225,0,1,,,,,,,,0,,,72,0
64555,note_on,115,0,4,,,,,,,,3,,,62,0
64555,note_on,115,0,5,,,,,,,,4,,,50,0
64555,note_on,115,0,6,,,,,,,,5,,,50,0
64555,note_on,0,0,6,,,,,,,,5,,,62,0
64560,note_on,15,0,1,,,,,,,,0,,,72,85
64560,note_on,5,0,4,,,,,,,,3,,,64,85
64560,note_on,15,0,3,,,,,,,,2,,,60,85
64560,note_on,15,0,2,,,,,,,,1,,,60,85
64560,note_on,5,0,6,,,,,,,,5,,,64,64
64560,note_on,0,0,6,,,,,,,,5,,,52,85
64560,note_on,5,0,5,,,,,,,,4,,,52,85
64675,note_on,115,0,4,,,,,,,,3,,,64,0
64675,note_on,115,0,6,,,,,,,,5,,,52,0
64675,note_on,0,0,6,,,,,,,,5,,,64,0
64675,note_on,115,0,5,,,,,,,,4,,,52,0
64680,note_on,0,0,6,,,,,,,,5,,,53,85
64680,note_on,5,0,5,,,,,,,,4,,,53,85
64680,note_on,5,0,4,,,,,,,,3,,,65,85
64680,note_on,5,0,6,,,,,,,,5,,,65,64
64785,note_on,225,0,1,,,,,,,,0,,,72,0
64785,note_on,225,0,2,,,,,,,,1,,,60,0
64785,note_on,225,0,3,,,,,,,,2,,,60,0
64795,note_on,115,0,5,,,,,,,,4,,,53,0
64795,note_on,115,0,6,,,,,,,,5,,,53,0
64795,note_on,115,0,4,,,,,,,,3,,,65,0
64795,note_on,0,0,6,,,,,,,,5,,,65,0
64800,note_on,0,0,6,,,,,,,,5,,,55,85
64800,note_on,5,0,5,,,,,,,,4,,,55,85
64800,note_on,15,0,1,,,,,,,,0,,,72,85
64800,note_on,15,0,2,,,,,,,,1,,,60,85
64800,note_on,15,0,3,,,,,,,,2,,,60,85
64800,note_on,5,0,4,,,,,,,,3,,,67,85
64800,note_on,5,0,6,,,,,,,,5,,,67,64
64915,note_on,0,0,6,,,,,,,,5,,,67,0
64915,note_on,115,0,5,,,,,,,,4,,,55,0
64915,note_on,115,0,6,,,,,,,,5,,,55,0
64915,note_on,115,0,4,,,,,,,,3,,,67,0
64920,note_on,5,0,4,,,,,,,,3,,,69,85
64920,note_on,5,0,6,,,,,,,,5,,,69,64
64920,note_on,0,0,6,,,,,,,,5,,,57,85
64920,note_on,5,0,5,,,,,,,,4,,,57,85
65025,note_on,225,0,3,,,,,,,,2,,,60,0
65025,note_on,225,0,1,,,,,,,,0,,,72,0
65025,note_on,225,0,2,,,,,,,,1,,,60,0
65035,note_on,115,0,4,,,,,,,,3,,,69,0
65035,note_on,0,0,6,,,,,,,,5,,,69,0
65035,note_on,115,0,6,,,,,,,,5,,,57,0
65035,note_on,115,0,5,,,,,,,,4,,,57,0
65040,note_on,15,0,1,,,,,,,,0,,,72,85
65040,note_on,5,0,6,,,,,,,,5,,,71,64
65040,note_on,0,0,6,,,,,,,,5,,,59,85
65040,note_on,15,0,3,,,,,,,,2,,,60,85
65040,note_on,5,0,4,,,,,,,,3,,,71,85
65040,note_on,5,0,5,,,,,,,,4,,,59,85
65040,note_on,15,0,2,,,,,,,,1,,,60,85
65155,note_on,0,0,6,,,,,,,,5,,,71,0
65155,note_on,115,0,6,,,,,,,,5,,,59,0
65155,note_on,115,0,5,,,,,,,,4,,,59,0
65155,note_on,115,0,4,,,,,,,,3,,,71,0
65160,note_on,5,0,5,,,,,,,,4,,,60,85
65160,note_on,5,0,6,,,,,,,,5,,,72,64
65160,note_on,0,0,6,,,,,,,,5,,,60,85
65160,note_on,5,0,4,,,,,,,,3,,,72,85
65265,note_on,225,0,1,,,,,,,,0,,,72,0
65265,note_on,225,0,3,,,,,,,,2,,,60,0
65265,note_on,225,0,2,,,,,,,,1,,,60,0
65275,note_on,115,0,6,,,,,,,,5,,,60,0
65275,note_on,0,0,6,,,,,,,,5,,,72,0
65275,note_on,115,0,4,,,,,,,,3,,,72,0
65275,note_on,115,0,5,,,,,,,,4,,,60,0
65280,note_on,15,0,3,,,,,,,,2,,,55,85
65280,note_on,5,0,6,,,,,,,,5,,,71,64
65280,note_on,0,0,6,,,,,,,,5,,,67,64
65280,note_on,0,0,6,,,,,,,,5,,,62,64
65280,note_on,0,0,6,,,,,,,,5,,,43,85
65280,note_on,15,0,2,,,,,,,,1,,,55,85
65280,note_on,15,0,1,,,,,,,,0,,,67,85
65280,note_on,5,0,5,,,,,,,,4,,,43,85
65280,note_on,5,0,4,,,,,,,,3,,,55,85
65395,note_on,115,0,3,,,,,,,,2,,,55,0
65395,note_on,115,0,2,,,,,,,,1,,,55,0
65395,note_on,115,0,1,,,,,,,,0,,,67,0
65400,note_on,5,0,2,,,,,,,,1,,,57,85
65400,note_on,5,0,3,,,,,,,,2,,,57,85
65400,note_on,5,0,1,,,,,,,,0,,,69,85
65505,note_on,225,0,6,,,,,,,,5,,,43,0
65505,note_on,225,0,4,,,,,,,,3,,,55,0
65505,note_on,225,0,5,,,,,,,,4,,,43,0
65515,note_on,115,0,1,,,,,,,,0,,,69,0
65515,note_on,115,0,2,,,,,,,,1,,,57,0
65515,note_on,115,0,3,,,,,,,,2,,,57,0
65520,note_on,5,0,1,,,,,,,,0,,,71,85
65520,note_on,5,0,2,,,,,,,,1,,,59,85
65520,note_on,15,0,4,,,,,,,,3,,,55,85
65520,note_on,15,0,6,,,,,,,,5,,,43,85
65520,note_on,15,0,5,,,,,,,,4,,,43,85
65520,note_on,5,0,3,,,,,,,,2,,,59,85
65635,note_on,115,0,3,,,,,,,,2,,,59,0
65635,note_on,115,0,1,,,,,,,,0,,,71,0
65635,note_on,115,0,2,,,,,,,,1,,,59,0
65640,note_on,5,0,2,,,,,,,,1,,,60,85
65640,note_on,5,0,3,,,,,,,,2,,,60,85
65640,note_on,5,0,1,,,,,,,,0,,,72,85
65725,note_on,0,0,6,,,,,,,,5,,,62,0
65725,note_on,205,0,6,,,,,,,,5,,,71,0
65725,note_on,0,0,6,,,,,,,,5,,,67,0
65745,note_on,225,0,4,,,,,,,,3,,,55,0
65745,note_on,225,0,5,,,,,,,,4,,,43,0
65745,note_on,20,0,6,,,,,,,,5,,,43,0
65755,note_on,115,0,1,,,,,,,,0,,,72,0
65755,note_on,115,0,3,,,,,,,,2,,,60,0
65755,note_on,115,0,2,,,,,,,,1,,,60,0
65760,note_on,5,0,3,,,,,,,,2,,,62,85
65760,note_on,15,0,4,,,,,,,,3,,,55,85
65760,note_on,15,0,5,,,,,,,,4,,,43,85
65760,note_on,15,0,6,,,,,,,,5,,,43,85
65760,note_on,5,0,2,,,,,,,,1,,,62,85
65760,note_on,5,0,1,,,,,,,,0,,,74,85
65875,note_on,115,0,2,,,,,,,,1,,,62,0
65875,note_on,115,0,1,,,,,,,,0,,,74,0
65875,note_on,115,0,3,,,,,,,,2,,,62,0
65880,note_on,5,0,1,,,,,,,,0,,,76,85
65880,note_on,5,0,3,,,,,,,,2,,,64,85
65880,note_on,5,0,2,,,,,,,,1,,,64,85
65985,note_on,225,0,4,,,,,,,,3,,,55,0
65985,note_on,225,0,6,,,,,,,,5,,,43,0
65985,note_on,225,0,5,,,,,,,,4,,,43,0
65995,note_on,115,0,1,,,,,,,,0,,,76,0
65995,note_on,115,0,3,,,,,,,,2,,,64,0
65995,note_on,115,0,2,,,,,,,,1,,,64,0
66000,note_on,15,0,6,,,,,,,,5,,,43,85
66000,note_on,5,0,3,,,,,,,,2,,,65,85
66000,note_on,15,0,5,,,,,,,,4,,,43,85
66000,note_on,5,0,2,,,,,,,,1,,,65,85
66000,note_on,5,0,1,,,,,,,,0,,,77,85
66000,note_on,15,0,4,,,,,,,,3,,,55,85
66115,note_on,115,0,3,,,,,,,,2,,,65,0
66115,note_on,115,0,2,,,,,,,,1,,,65,0
66115,note_on,115,0,1,,,,,,,,0,,,77,0
66120,note_on,5,0,3,,,,,,,,2,,,67,85
66120,note_on,5,0,1,,,,,,,,0,,,79,85
66120,note_on,5,0,2,,,,,,,,1,,,67,85
66225,note_on,225,0,5,,,,,,,,4,,,43,0
66225,note_on,225,0,6,,,,,,,,5,,,43,0
66225,note_on,225,0,4,,,,,,,,3,,,55,0
66235,note_on,115,0,2,,,,,,,,1,,,67,0
66235,note_on,115,0,3,,,,,,,,2,,,67,0
66235,note_on,115,0,1,,,,,,,,0,,,79,0
66240,note_on,0,0,6,,,,,,,,5,,,43,85
66240,note_on,0,0,6,,,,,,,,5,,,62,64
66240,note_on,0,0,6,,,,,,,,5,,,67,64
66240,note_on,15,0,5,,,,,,,,4,,,43,85
66240,note_on,5,0,1,,,,,,,,0,,,67,85
66240,note_on,15,0,6,,,,,,,,5,,,71,64
66240,note_on,5,0,3,,,,,,,,2,,,55,85
66240,note_on,15,0,4,,,,,,,,3,,,55,85
66240,note_on,5,0,2,,,,,,,,1,,,55,85
66355,note_on,115,0,6,,,,,,,,5,,,43,0
66355,note_on,115,0,5,,,,,,,,4,,,43,0
66355,note_on,115,0,4,,,,,,,,3,,,55,0
66360,note_on,5,0,6,,,,,,,,5,,,45,85
66360,note_on,5,0,4,,,,,,,,3,,,57,85
66360,note_on,5,0,5,,,,,,,,4,,,45,85
66465,note_on,225,0,2,,,,,,,,1,,,55,0
66465,note_on,225,0,3,,,,,,,,2,,,55,0
66465,note_on,225,0,1,,,,,,,,0,,,67,0
66475,note_on,115,0,6,,,,,,,,5,,,45,0
66475,note_on,115,0,4,,,,,,,,3,,,57,0
66475,note_on,115,0,5,,,,,,,,4,,,45,0
66480,note_on,15,0,3,,,,,,,,2,,,55,85
66480,note_on,5,0,5,,,,,,,,4,,,47,85
66480,note_on,15,0,2,,,,,,,,1,,,55,85
66480,note_on,5,0,6,,,,,,,,5,,,47,85
66480,note_on,15,0,1,,,,,,,,0,,,67,85
66480,note_on,5,0,4,,,,,,,,3,,,59,85
66595,note_on,115,0,5,,,,,,,,4,,,47,0
66595,note_on,115,0,4,,,,,,,,3,,,59,0
66595,note_on,115,0,6,,,,,,,,5,,,47,0
66600,note_on,5,0,4,,,,,,,,3,,,60,85
66600,note_on,5,0,6,,,,,,,,5,,,48,85
66600,note_on,5,0,5,,,,,,,,4,,,48,85
66685,note_on,85,0,6,,,,,,,,5,,,71,0
66685,note_on,0,0,6,,,,,,,,5,,,67,0
66685,note_on,0,0,6,,,,,,,,5,,,62,0
66705,note_on,225,0,2,,,,,,,,1,,,55,0
66705,note_on,225,0,1,,,,,,,,0,,,67,0
66705,note_on,225,0,3,,,,,,,,2,,,55,0
66715,note_on,115,0,4,,,,,,,,3,,,60,0
66715,note_on,30,0,6,,,,,,,,5,,,48,0
66715,note_on,115,0,5,,,,,,,,4,,,48,0
66720,note_on,15,0,1,,,,,,,,0,,,67,85
66720,note_on,5,0,6,,,,,,,,5,,,50,85
66720,note_on,5,0,5,,,,,,,,4,,,50,85
66720,note_on,5,0,4,,,,,,,,3,,,62,85
66720,note_on,15,0,3,,,,,,,,2,,,55,85
66720,note_on,15,0,2,,,,,,,,1,,,55,85
66835,note_on,115,0,6,,,,,,,,5,,,50,0
66835,note_on,115,0,5,,,,,,,,4,,,50,0
66835,note_on,115,0,4,,,,,,,,3,,,62,0
66840,note_on,5,0,5,,,,,,,,4,,,52,85
66840,note_on,5,0,4,,,,,,,,3,,,64,85
66840,note_on,5,0,6,,,,,,,,5,,,52,85
66945,note_on,225,0,2,,,,,,,,1,,,55,0
66945,note_on,225,0,3,,,,,,,,2,,,55,0
66945,note_on,225,0,1,,,,,,,,0,,,67,0
66955,note_on,115,0,4,,,,,,,,3,,,64,0
66955,note_on,115,0,5,,,,,,,,4,,,52,0
66955,note_on,115,0,6,,,,,,,,5,,,52,0
66960,note_on,5,0,5,,,,,,,,4,,,53,85
66960,note_on,15,0,1,,,,,,,,0,,,67,85
66960,note_on,15,0,3,,,,,,,,2,,,55,85
66960,note_on,15,0,2,,,,,,,,1,,,55,85
66960,note_on,5,0,6,,,,,,,,5,,,53,85
66960,note_on,5,0,4,,,,,,,,3,,,65,85
67075,note_on,115,0,6,,,,,,,,5,,,53,0
67075,note_on,115,0,4,,,,,,,,3,,,65,0
67075,note_on,115,0,5,,,,,,,,4,,,53,0
67080,note_on,5,0,4,,,,,,,,3,,,67,85
67080,note_on,5,0,5,,,,,,,,4,,,55,85
67080,note_on,5,0,6,,,,,,,,5,,,55,85
67185,note_on,225,0,3,,,,,,,,2,,,55,0
67185,note_on,225,0,2,,,,,,,,1,,,55,0
67185,note_on,225,0,1,,,,,,,,0,,,67,0
67195,note_on,115,0,6,,,,,,,,5,,,55,0
67195,note_on,115,0,4,,,,,,,,3,,,67,0
67195,note_on,115,0,5,,,,,,,,4,,,55,0
67200,note_on,15,0,3,,,,,,,,2,,,55,85
67200,note_on,0,0,6,,,,,,,,5,,,43,85
67200,note_on,0,0,6,,,,,,,,5,,,67,64
67200,note_on,0,0,6,,,,,,,,5,,,71,64
67200,note_on,5,0,6,,,,,,,,5,,,74,64
67200,note_on,15,0,1,,,,,,,,0,,,67,85
67200,note_on,5,0,4,,,,,,,,3,,,55,85
67200,note_on,5,0,5,,,,,,,,4,,,43,85
67200,note_on,15,0,2,,,,,,,,1,,,55,85
67315,note_on,115,0,2,,,,,,,,1,,,55,0
67315,note_on,115,0,3,,,,,,,,2,,,55,0
67315,note_on,115,0,1,,,,,,,,0,,,67,0
67320,note_on,5,0,2,,,,,,,,1,,,57,85
67320,note_on,5,0,1,,,,,,,,0,,,69,85
67320,note_on,5,0,3,,,,,,,,2,,,57,85
67425,note_on,225,0,6,,,,,,,,5,,,43,0
67425,note_on,225,0,4,,,,,,,,3,,,55,0
67425,note_on,225,0,5,,,,,,,,4,,,43,0
67435,note_on,115,0,2,,,,,,,,1,,,57,0
67435,note_on,115,0,1,,,,,,,,0,,,69,0
67435,note_on,115,0,3,,,,,,,,2,,,57,0
67440,note_on,15,0,5,,,,,,,,4,,,43,85
67440,note_on,5,0,1,,,,,,,,0,,,71,85
67440,note_on,5,0,3,,,,,,,,2,,,59,85
67440,note_on,15,0,6,,,,,,,,5,,,43,85
67440,note_on,5,0,2,,,,,,,,1,,,59,85
67440,note_on,15,0,4,,,,,,,,3,,,55,85
67555,note_on,115,0,3,,,,,,,,2,,,59,0
67555,note_on,115,0,1,,,,,,,,0,,,71,0
67555,note_on,115,0,2,,,,,,,,1,,,59,0
67560,note_on,5,0,1,,,,,,,,0,,,72,85
67560,note_on,5,0,3,,,,,,,,2,,,60,85
67560,note_on,5,0,2,,,,,,,,1,,,60,85
67645,note_on,0,0,6,,,,,,,,5,,,67,0
67645,note_on,0,0,6,,,,,,,,5,,,71,0
67645,note_on,205,0,6,,,,,,,,5,,,74,0
67665,note_on,225,0,5,,,,,,,,4,,,43,0
67665,note_on,20,0,6,,,,,,,,5,,,43,0
67665,note_on,225,0,4,,,,,,,,3,,,55,0
67675,note_on,115,0,2,,,,,,,,1,,,60,0
67675,note_on,115,0,1,,,,,,,,0,,,72,0
67675,note_on,115,0,3,,,,,,,,2,,,60,0
67680,note_on,5,0,3,,,,,,,,2,,,62,85
67680,note_on,5,0,1,,,,,,,,0,,,74,85
67680,note_on,15,0,6,,,,,,,,5,,,43,85
67680,note_on,5,0,2,,,,,,,,1,,,62,85
67680,note_on,15,0,5,,,,,,,,4,,,43,85
67680,note_on,15,0,4,,,,,,,,3,,,55,85
67795,note_on,115,0,3,,,,,,,,2,,,62,0
67795,note_on,115,0,1,,,,,,,,0,,,74,0
67795,note_on,115,0,2,,,,,,,,1,,,62,0
67800,note_on,5,0,2,,,,,,,,1,,,64,85
67800,note_on,5,0,3,,,,,,,,2,,,64,85
67800,note_on,5,0,1,,,,,,,,0,,,76,85
67905,note_on,225,0,6,,,,,,,,5,,,43,0
67905,note_on,225,0,5,,,,,,,,4,,,43,0
67905,note_on,225,0,4,,,,,,,,3,,,55,0
67915,note_on,115,0,2,,,,,,,,1,,,64,0
67915,note_on,115,0,3,,,,,,,,2,,,64,0
67915,note_on,115,0,1,,,,,,,,0,,,76,0
67920,note_on,15,0,4,,,,,,,,3,,,55,85
67920,note_on,15,0,5,,,,,,,,4,,,43,85
67920,note_on,5,0,2,,,,,,,,1,,,65,85
67920,note_on,5,0,1,,,,,,,,0,,,77,85
67920,note_on,15,0,6,,,,,,,,5,,,43,85
67920,note_on,5,0,3,,,,,,,,2,,,65,85
68035,note_on,115,0,1,,,,,,,,0,,,77,0
68035,note_on,115,0,2,,,,,,,,1,,,65,0
68035,note_on,115,0,3,,,,,,,,2,,,65,0
68040,note_on,5,0,3,,,,,,,,2,,,67,85
68040,note_on,5,0,2,,,,,,,,1,,,67,85
68040,note_on,5,0,1,,,,,,,,0,,,79,85
68145,note_on,225,0,6,,,,,,,,5,,,43,0
68145,note_on,225,0,4,,,,,,,,3,,,55,0
68145,note_on,225,0,5,,,,,,,,4,,,43,0
68155,note_on,115,0,3,,,,,,,,2,,,67,0
68155,note_on,115,0,1,,,,,,,,0,,,79,0
68155,note_on,115,0,2,,,,,,,,1,,,67,0
68160,note_on,0,0,6,,,,,,,,5,,,71,64
68160,note_on,0,0,6,,,,,,,,5,,,67,64
68160,note_on,15,0,6,,,,,,,,5,,,74,64
68160,note_on,5,0,1,,,,,,,,0,,,67,85
68160,note_on,15,0,4,,,,,,,,3,,,55,85
68160,note_on,5,0,3,,,,,,,,2,,,55,85
68160,note_on,0,0,6,,,,,,,,5,,,43,85
68160,note_on,5,0,2,,,,,,,,1,,,55,85
68160,note_on,15,0,5,,,,,,,,4,,,43,85
68275,note_on,115,0,6,,,,,,,,5,,,43,0
68275,note_on,115,0,5,,,,,,,,4,,,43,0
68275,note_on,115,0,4,,,,,,,,3,,,55,0
68280,note_on,5,0,4,,,,,,,,3,,,57,85
68280,note_on,5,0,6,,,,,,,,5,,,45,85
68280,note_on,5,0,5,,,,,,,,4,,,45,85
68385,note_on,225,0,2,,,,,,,,1,,,55,0
68385,note_on,225,0,1,,,,,,,,0,,,67,0
68385,note_on,225,0,3,,,,,,,,2,,,55,0
68395,note_on,115,0,4,,,,,,,,3,,,57,0
68395,note_on,115,0,6,,,,,,,,5,,,45,0
68395,note_on,115,0,5,,,,,,,,4,,,45,0
68400,note_on,15,0,1,,,,,,,,0,,,67,85
68400,note_on,15,0,3,,,,,,,,2,,,55,85
68400,note_on,5,0,4,,,,,,,,3,,,59,85
68400,note_on,5,0,6,,,,,,,,5,,,47,85
68400,note_on,5,0,5,,,,,,,,4,,,47,85
68400,note_on,15,0,2,,,,,,,,1,,,55,85
68515,note_on,115,0,4,,,,,,,,3,,,59,0
68515,note_on,115,0,5,,,,,,,,4,,,47,0
68515,note_on,115,0,6,,,,,,,,5,,,47,0
68520,note_on,5,0,4,,,,,,,,3,,,60,85
68520,note_on,5,0,6,,,,,,,,5,,,48,85
68520,note_on,5,0,5,,,,,,,,4,,,48,85
68605,note_on,0,0,6,,,,,,,,5,,,71,0
68605,note_on,85,0,6,,,,,,,,5,,,74,0
68605,note_on,0,0,6,,,,,,,,5,,,67,0
68625,note_on,225,0,2,,,,,,,,1,,,55,0
68625,note_on,225,0,1,,,,,,,,0,,,67,0
68625,note_on,225,0,3,,,,,,,,2,,,55,0
68635,note_on,30,0,6,,,,,,,,5,,,48,0
68635,note_on,115,0,4,,,,,,,,3,,,60,0
68635,note_on,115,0,5,,,,,,,,4,,,48,0
68640,note_on,5,0,6,,,,,,,,5,,,50,85
68640,note_on,5,0,5,,,,,,,,4,,,50,85
68640,note_on,15,0,3,,,,,,,,2,,,55,85
68640,note_on,15,0,2,,,,,,,,1,,,55,85
68640,note_on,5,0,4,,,,,,,,3,,,62,85
68640,note_on,15,0,1,,,,,,,,0,,,67,85
68755,note_on,115,0,4,,,,,,,,3,,,62,0
68755,note_on,115,0,6,,,,,,,,5,,,50,0
68755,note_on,115,0,5,,,,,,,,4,,,50,0
68760,note_on,5,0,4,,,,,,,,3,,,64,85
68760,note_on,5,0,5,,,,,,,,4,,,52,85
68760,note_on,5,0,6,,,,,,,,5,,,52,85
68865,note_on,225,0,3,,,,,,,,2,,,55,0
68865,note_on,225,0,1,,,,,,,,0,,,67,0
68865,note_on,225,0,2,,,,,,,,1,,,55,0
68875,note_on,115,0,4,,,,,,,,3,,,64,0
68875,note_on,115,0,5,,,,,,,,4,,,52,0
68875,note_on,115,0,6,,,,,,,,5,,,52,0
68880,note_on,15,0,3,,,,,,,,2,,,55,85
68880,note_on,15,0,1,,,,,,,,0,,,67,85
68880,note_on,5,0,4,,,,,,,,3,,,65,85
68880,note_on,15,0,2,,,,,,,,1,,,55,85
68880,note_on,5,0,5,,,,,,,,4,,,53,85
68880,note_on,5,0,6,,,,,,,,5,,,53,85
68995,note_on,115,0,6,,,,,,,,5,,,53,0
68995,note_on,115,0,5,,,,,,,,4,,,53,0
68995,note_on,115,0,4,,,,,,,,3,,,65,0
69000,note_on,5,0,4,,,,,,,,3,,,67,85
69000,note_on,5,0,6,,,,,,,,5,,,55,85
69000,note_on,5,0,5,,,,,,,,4,,,55,85
69105,note_on,225,0,3,,,,,,,,2,,,55,0
69105,note_on,225,0,2,,,,,,,,1,,,55,0
69105,note_on,225,0,1,,,,,,,,0,,,67,0
69115,note_on,115,0,4,,,,,,,,3,,,67,0
69115,note_on,115,0,6,,,,,,,,5,,,55,0
69115,note_on,115,0,5,,,,,,,,4,,,55,0
69120,note_on,5,0,5,,,,,,,,4,,,43,85
69120,note_on,0,0,6,,,,,,,,5,,,74,64
69120,note_on,5,0,4,,,,,,,,3,,,55,85
69120,note_on,0,0,6,,,,,,,,5,,,67,64
69120,note_on,0,0,6,,,,,,,,5,,,43,85
69120,note_on,15,0,3,,,,,,,,2,,,62,85
69120,note_on,5,0,6,,,,,,,,5,,,77,64
69120,note_on,15,0,2,,,,,,,,1,,,65,85
69120,note_on,15,0,1,,,,,,,,0,,,77,85
69235,note_on,115,0,1,,,,,,,,0,,,77,0
69235,note_on,115,0,3,,,,,,,,2,,,62,0
69235,note_on,115,0,4,,,,,,,,3,,,55,0
69235,note_on,115,0,2,,,,,,,,1,,,65,0
69235,note_on,115,0,5,,,,,,,,4,,,43,0
69235,note_on,115,0,6,,,,,,,,5,,,43,0
69240,note_on,5,0,2,,,,,,,,1,,,62,85
69240,note_on,5,0,5,,,,,,,,4,,,55,85
69240,note_on,5,0,3,,,,,,,,2,,,55,85
69240,note_on,5,0,1,,,,,,,,0,,,74,85
69240,note_on,5,0,6,,,,,,,,5,,,55,85
69240,note_on,5,0,4,,,,,,,,3,,,67,85
69355,note_on,115,0,2,,,,,,,,1,,,62,0
69355,note_on,115,0,4,,,,,,,,3,,,67,0
69355,note_on,115,0,3,,,,,,,,2,,,55,0
69355,note_on,115,0,1,,,,,,,,0,,,74,0
69355,note_on,115,0,6,,,,,,,,5,,,55,0
69355,note_on,115,0,5,,,,,,,,4,,,55,0
69360,note_on,5,0,4,,,,,,,,3,,,67,85
69360,note_on,5,0,1,,,,,,,,0,,,77,85
69360,note_on,5,0,5,,,,,,,,4,,,55,85
69360,note_on,5,0,6,,,,,,,,5,,,55,85
69360,note_on,5,0,2,,,,,,,,1,,,65,85
69360,note_on,5,0,3,,,,,,,,2,,,62,85
69475,note_on,115,0,3,,,,,,,,2,,,62,0
69475,note_on,115,0,5,,,,,,,,4,,,55,0
69475,note_on,115,0,2,,,,,,,,1,,,65,0
69475,note_on,115,0,1,,,,,,,,0,,,77,0
69475,note_on,115,0,6,,,,,,,,5,,,55,0
69475,note_on,115,0,4,,,,,,,,3,,,67,0
69480,note_on,5,0,2,,,,,,,,1,,,62,85
69480,note_on,5,0,4,,,,,,,,3,,,67,85
69480,note_on,5,0,1,,,,,,,,0,,,74,85
69480,note_on,5,0,5,,,,,,,,4,,,55,85
69480,note_on,5,0,6,,,,,,,,5,,,55,85
69480,note_on,5,0,3,,,,,,,,2,,,55,85
69565,note_on,0,0,6,,,,,,,,5,,,74,0
69565,note_on,85,0,6,,,,,,,,5,,,77,0
69595,note_on,115,0,1,,,,,,,,0,,,74,0
69595,note_on,115,0,2,,,,,,,,1,,,62,0
69595,note_on,30,0,6,,,,,,,,5,,,55,0
69595,note_on,115,0,3,,,,,,,,2,,,55,0
69595,note_on,115,0,5,,,,,,,,4,,,55,0
69595,note_on,115,0,4,,,,,,,,3,,,67,0
69600,note_on,5,0,4,,,,,,,,3,,,55,85
69600,note_on,5,0,1,,,,,,,,0,,,76,85
69600,note_on,0,0,6,,,,,,,,5,,,43,85
69600,note_on,5,0,6,,,,,,,,5,,,76,64
69600,note_on,0,0,6,,,,,,,,5,,,72,64
69600,note_on,5,0,3,,,,,,,,2,,,60,85
69600,note_on,5,0,5,,,,,,,,4,,,43,85
69600,note_on,5,0,2,,,,,,,,1,,,64,85
69715,note_on,115,0,4,,,,,,,,3,,,55,0
69715,note_on,115,0,6,,,,,,,,5,,,43,0
69715,note_on,115,0,5,,,,,,,,4,,,43,0
69715,note_on,115,0,2,,,,,,,,1,,,64,0
69715,note_on,115,0,1,,,,,,,,0,,,76,0
69715,note_on,115,0,3,,,,,,,,2,,,60,0
69720,note_on,5,0,6,,,,,,,,5,,,55,85
69720,note_on,5,0,1,,,,,,,,0,,,72,85
69720,note_on,5,0,5,,,,,,,,4,,,55,85
69720,note_on,5,0,2,,,,,,,,1,,,60,85
69720,note_on,5,0,3,,,,,,,,2,,,55,85
69720,note_on,5,0,4,,,,,,,,3,,,67,85
69835,note_on,115,0,5,,,,,,,,4,,,55,0
69835,note_on,115,0,1,,,,,,,,0,,,72,0
69835,note_on,115,0,3,,,,,,,,2,,,55,0
69835,note_on,115,0,6,,,,,,,,5,,,55,0
69835,note_on,115,0,2,,,,,,,,1,,,60,0
69835,note_on,115,0,4,,,,,,,,3,,,67,0
69840,note_on,5,0,5,,,,,,,,4,,,55,85
69840,note_on,5,0,3,,,,,,,,2,,,60,85
69840,note_on,5,0,2,,,,,,,,1,,,64,85
69840,note_on,5,0,4,,,,,,,,3,,,67,85
69840,note_on,5,0,6,,,,,,,,5,,,55,85
69840,note_on,5,0,1,,,,,,,,0,,,76,85
69955,note_on,115,0,4,,,,,,,,3,,,67,0
69955,note_on,115,0,5,,,,,,,,4,,,55,0
69955,note_on,115,0,1,,,,,,,,0,,,76,0
69955,note_on,115,0,6,,,,,,,,5,,,55,0
69955,note_on,115,0,3,,,,,,,,2,,,60,0
69955,note_on,115,0,2,,,,,,,,1,,,64,0
69960,note_on,5,0,5,,,,,,,,4,,,55,85
69960,note_on,5,0,1,,,,,,,,0,,,72,85
69960,note_on,5,0,2,,,,,,,,1,,,60,85
69960,note_on,5,0,3,,,,,,,,2,,,55,85
69960,note_on,5,0,4,,,,,,,,3,,,67,85
69960,note_on,5,0,6,,,,,,,,5,,,55,85
70005,note_on,45,0,6,,,,,,,,5,,,67,0
70045,note_on,0,0,6,,,,,,,,5,,,72,0
70045,note_on,40,0,6,,,,,,,,5,,,76,0
70075,note_on,115,0,2,,,,,,,,1,,,60,0
70075,note_on,30,0,6,,,,,,,,5,,,55,0
70075,note_on,115,0,5,,,,,,,,4,,,55,0
70075,note_on,115,0,1,,,,,,,,0,,,72,0
70075,note_on,115,0,4,,,,,,,,3,,,67,0
70075,note_on,115,0,3,,,,,,,,2,,,55,0
70080,note_on,0,0,6,,,,,,,,5,,,43,85
70080,note_on,5,0,3,,,,,,,,2,,,59,85
70080,note_on,5,0,2,,,,,,,,1,,,62,85
70080,note_on,0,0,6,,,,,,,,5,,,67,64
70080,note_on,5,0,5,,,,,,,,4,,,43,85
70080,note_on,0,0,6,,,,,,,,5,,,71,64
70080,note_on,5,0,1,,,,,,,,0,,,74,85
70080,note_on,5,0,4,,,,,,,,3,,,55,85
70080,note_on,5,0,6,,,,,,,,5,,,74,64
70195,note_on,115,0,3,,,,,,,,2,,,59,0
70195,note_on,115,0,6,,,,,,,,5,,,43,0
70195,note_on,115,0,5,,,,,,,,4,,,43,0
70195,note_on,115,0,1,,,,,,,,0,,,74,0
70195,note_on,115,0,2,,,,,,,,1,,,62,0
70195,note_on,115,0,4,,,,,,,,3,,,55,0
70200,note_on,5,0,4,,,,,,,,3,,,67,85
70200,note_on,5,0,3,,,,,,,,2,,,55,85
70200,note_on,5,0,2,,,,,,,,1,,,59,85
70200,note_on,5,0,6,,,,,,,,5,,,55,85
70200,note_on,5,0,1,,,,,,,,0,,,71,85
70200,note_on,5,0,5,,,,,,,,4,,,55,85
70315,note_on,115,0,6,,,,,,,,5,,,55,0
70315,note_on,115,0,2,,,,,,,,1,,,59,0
70315,note_on,115,0,3,,,,,,,,2,,,55,0
70315,note_on,115,0,4,,,,,,,,3,,,67,0
70315,note_on,115,0,1,,,,,,,,0,,,71,0
70315,note_on,115,0,5,,,,,,,,4,,,55,0
70320,note_on,5,0,5,,,,,,,,4,,,55,85
70320,note_on,5,0,6,,,,,,,,5,,,55,85
70320,note_on,5,0,4,,,,,,,,3,,,67,85
70320,note_on,5,0,3,,,,,,,,2,,,59,85
70320,note_on,5,0,2,,,,,,,,1,,,62,85
70320,note_on,5,0,1,,,,,,,,0,,,74,85
70435,note_on,115,0,5,,,,,,,,4,,,55,0
70435,note_on,115,0,1,,,,,,,,0,,,74,0
70435,note_on,115,0,3,,,,,,,,2,,,59,0
70435,note_on,115,0,4,,,,,,,,3,,,67,0
70435,note_on,115,0,2,,,,,,,,1,,,62,0
70435,note_on,115,0,6,,,,,,,,5,,,55,0
70440,note_on,5,0,6,,,,,,,,5,,,55,85
70440,note_on,5,0,4,,,,,,,,3,,,67,85
70440,note_on,5,0,3,,,,,,,,2,,,55,85
70440,note_on,5,0,2,,,,,,,,1,,,59,85
70440,note_on,5,0,1,,,,,,,,0,,,71,85
70440,note_on,5,0,5,,,,,,,,4,,,55,85
70525,note_on,0,0,6,,,,,,,,5,,,71,0
70525,note_on,85,0,6,,,,,,,,5,,,74,0
70555,note_on,30,0,6,,,,,,,,5,,,55,0
70555,note_on,115,0,2,,,,,,,,1,,,59,0
70555,note_on,115,0,3,,,,,,,,2,,,55,0
70555,note_on,115,0,5,,,,,,,,4,,,55,0
70555,note_on,115,0,4,,,,,,,,3,,,67,0
70555,note_on,115,0,1,,,,,,,,0,,,71,0
70560,note_on,5,0,4,,,,,,,,3,,,55,85
70560,note_on,5,0,2,,,,,,,,1,,,64,85
70560,note_on,0,0,6,,,,,,,,5,,,72,64
70560,note_on,5,0,6,,,,,,,,5,,,76,64
70560,note_on,0,0,6,,,,,,,,5,,,43,85
70560,note_on,5,0,1,,,,,,,,0,,,76,85
70560,note_on,5,0,5,,,,,,,,4,,,43,85
70560,note_on,5,0,3,,,,,,,,2,,,60,85
70675,note_on,115,0,1,,,,,,,,0,,,76,0
70675,note_on,115,0,6,,,,,,,,5,,,43,0
70675,note_on,115,0,2,,,,,,,,1,,,64,0
70675,note_on,115,0,4,,,,,,,,3,,,55,0
70675,note_on,115,0,3,,,,,,,,2,,,60,0
70675,note_on,115,0,5,,,,,,,,4,,,43,0
70680,note_on,5,0,1,,,,,,,,0,,,72,85
70680,note_on,5,0,5,,,,,,,,4,,,55,85
70680,note_on,5,0,6,,,,,,,,5,,,55,85
70680,note_on,5,0,3,,,,,,,,2,,,55,85
70680,note_on,5,0,2,,,,,,,,1,,,60,85
70680,note_on,5,0,4,,,,,,,,3,,,67,85
70795,note_on,115,0,4,,,,,,,,3,,,67,0
70795,note_on,115,0,1,,,,,,,,0,,,72,0
70795,note_on,115,0,2,,,,,,,,1,,,60,0
70795,note_on,115,0,5,,,,,,,,4,,,55,0
70795,note_on,115,0,6,,,,,,,,5,,,55,0
70795,note_on,115,0,3,,,,,,,,2,,,55,0
70800,note_on,5,0,3,,,,,,,,2,,,60,85
70800,note_on,5,0,4,,,,,,,,3,,,67,85
70800,note_on,5,0,2,,,,,,,,1,,,64,85
70800,note_on,5,0,5,,,,,,,,4,,,55,85
70800,note_on,5,0,6,,,,,,,,5,,,55,85
70800,note_on,5,0,1,,,,,,,,0,,,76,85
70915,note_on,115,0,2,,,,,,,,1,,,64,0
70915,note_on,115,0,5,,,,,,,,4,,,55,0
70915,note_on,115,0,4,,,,,,,,3,,,67,0
70915,note_on,115,0,1,,,,,,,,0,,,76,0
70915,note_on,115,0,6,,,,,,,,5,,,55,0
70915,note_on,115,0,3,,,,,,,,2,,,60,0
70920,note_on,5,0,5,,,,,,,,4,,,55,85
70920,note_on,5,0,6,,,,,,,,5,,,55,85
70920,note_on,5,0,3,,,,,,,,2,,,55,85
70920,note_on,5,0,2,,,,,,,,1,,,60,85
70920,note_on,5,0,1,,,,,,,,0,,,72,85
70920,note_on,5,0,4,,,,,,,,3,,,67,85
70965,note_on,45,0,6,,,,,,,,5,,,67,0
71005,note_on,40,0,6,,,,,,,,5,,,76,0
71005,note_on,0,0,6,,,,,,,,5,,,72,0
71035,note_on,115,0,3,,,,,,,,2,,,55,0
71035,note_on,115,0,1,,,,,,,,0,,,72,0
71035,note_on,115,0,2,,,,,,,,1,,,60,0
71035,note_on,115,0,5,,,,,,,,4,,,55,0
71035,note_on,115,0,4,,,,,,,,3,,,67,0
71035,note_on,30,0,6,,,,,,,,5,,,55,0
71040,note_on,5,0,4,,,,,,,,3,,,55,85
71040,note_on,5,0,2,,,,,,,,1,,,65,85
71040,note_on,5,0,5,,,,,,,,4,,,43,85
71040,note_on,5,0,1,,,,,,,,0,,,77,85
71040,note_on,5,0,6,,,,,,,,5,,,77,64
71040,note_on,0,0,6,,,,,,,,5,,,74,64
71040,note_on,0,0,6,,,,,,,,5,,,43,85
71040,note_on,5,0,3,,,,,,,,2,,,62,85
71040,note_on,0,0,6,,,,,,,,5,,,67,64
71155,note_on,115,0,1,,,,,,,,0,,,77,0
71155,note_on,115,0,5,,,,,,,,4,,,43,0
71155,note_on,115,0,4,,,,,,,,3,,,55,0
71155,note_on,115,0,2,,,,,,,,1,,,65,0
71155,note_on,115,0,6,,,,,,,,5,,,43,0
71155,note_on,115,0,3,,,,,,,,2,,,62,0
71160,note_on,5,0,6,,,,,,,,5,,,55,85
71160,note_on,5,0,5,,,,,,,,4,,,55,85
71160,note_on,5,0,4,,,,,,,,3,,,67,85
71160,note_on,5,0,2,,,,,,,,1,,,62,85
71160,note_on,5,0,3,,,,,,,,2,,,55,85
71160,note_on,5,0,1,,,,,,,,0,,,74,85
71275,note_on,115,0,4,,,,,,,,3,,,67,0
71275,note_on,115,0,3,,,,,,,,2,,,55,0
71275,note_on,115,0,2,,,,,,,,1,,,62,0
71275,note_on,115,0,6,,,,,,,,5,,,55,0
71275,note_on,115,0,1,,,,,,,,0,,,74,0
71275,note_on,115,0,5,,,,,,,,4,,,55,0
71280,note_on,5,0,2,,,,,,,,1,,,65,85
71280,note_on,5,0,1,,,,,,,,0,,,77,85
71280,note_on,5,0,3,,,,,,,,2,,,62,85
71280,note_on,5,0,5,,,,,,,,4,,,55,85
71280,note_on,5,0,4,,,,,,,,3,,,67,85
71280,note_on,5,0,6,,,,,,,,5,,,55,85
71395,note_on,115,0,1,,,,,,,,0,,,77,0
71395,note_on,115,0,4,,,,,,,,3,,,67,0
71395,note_on,115,0,5,,,,,,,,4,,,55,0
71395,note_on,115,0,2,,,,,,,,1,,,65,0
71395,note_on,115,0,3,,,,,,,,2,,,62,0
71395,note_on,115,0,6,,,,,,,,5,,,55,0
71400,note_on,5,0,6,,,,,,,,5,,,55,85
71400,note_on,5,0,3,,,,,,,,2,,,55,85
71400,note_on,5,0,1,,,,,,,,0,,,74,85
71400,note_on,5,0,5,,,,,,,,4,,,55,85
71400,note_on,5,0,4,,,,,,,,3,,,67,85
71400,note_on,5,0,2,,,,,,,,1,,,62,85
71485,note_on,85,0,6,,,,,,,,5,,,77,0
71485,note_on,0,0,6,,,,,,,,5,,,74,0
71515,note_on,115,0,4,,,,,,,,3,,,67,0
71515,note_on,115,0,2,,,,,,,,1,,,62,0
71515,note_on,115,0,5,,,,,,,,4,,,55,0
71515,note_on,30,0,6,,,,,,,,5,,,55,0
71515,note_on,115,0,3,,,,,,,,2,,,55,0
71515,note_on,115,0,1,,,,,,,,0,,,74,0
71520,note_on,5,0,2,,,,,,,,1,,,64,85
71520,note_on,5,0,5,,,,,,,,4,,,43,85
71520,note_on,5,0,4,,,,,,,,3,,,55,85
71520,note_on,5,0,6,,,,,,,,5,,,76,64
71520,note_on,5,0,1,,,,,,,,0,,,76,85
71520,note_on,0,0,6,,,,,,,,5,,,72,64
71520,note_on,0,0,6,,,,,,,,5,,,43,85
71520,note_on,5,0,3,,,,,,,,2,,,60,85
71635,note_on,115,0,4,,,,,,,,3,,,55,0
71635,note_on,115,0,2,,,,,,,,1,,,64,0
71635,note_on,115,0,3,,,,,,,,2,,,60,0
71635,note_on,115,0,5,,,,,,,,4,,,43,0
71635,note_on,115,0,1,,,,,,,,0,,,76,0
71635,note_on,115,0,6,,,,,,,,5,,,43,0
71640,note_on,5,0,3,,,,,,,,2,,,55,85
71640,note_on,5,0,4,,,,,,,,3,,,67,85
71640,note_on,5,0,2,,,,,,,,1,,,60,85
71640,note_on,5,0,1,,,,,,,,0,,,72,85
71640,note_on,5,0,5,,,,,,,,4,,,55,85
71640,note_on,5,0,6,,,,,,,,5,,,55,85
71755,note_on,115,0,2,,,,,,,,1,,,60,0
71755,note_on,115,0,4,,,,,,,,3,,,67,0
71755,note_on,115,0,5,,,,,,,,4,,,55,0
71755,note_on,115,0,3,,,,,,,,2,,,55,0
71755,note_on,115,0,1,,,,,,,,0,,,72,0
71755,note_on,115,0,6,,,,,,,,5,,,55,0
71760,note_on,5,0,3,,,,,,,,2,,,60,85
71760,note_on,5,0,6,,,,,,,,5,,,55,85
71760,note_on,5,0,2,,,,,,,,1,,,64,85
71760,note_on,5,0,1,,,,,,,,0,,,76,85
71760,note_on,5,0,4,,,,,,,,3,,,67,85
71760,note_on,5,0,5,,,,,,,,4,,,55,85
71875,note_on,115,0,5,,,,,,,,4,,,55,0
71875,note_on,115,0,6,,,,,,,,5,,,55,0
71875,note_on,115,0,2,,,,,,,,1,,,64,0
71875,note_on,115,0,3,,,,,,,,2,,,60,0
71875,note_on,115,0,1,,,,,,,,0,,,76,0
71875,note_on,115,0,4,,,,,,,,3,,,67,0
71880,note_on,5,0,3,,,,,,,,2,,,55,85
71880,note_on,5,0,4,,,,,,,,3,,,67,85
71880,note_on,5,0,1,,,,,,,,0,,,72,85
71880,note_on,5,0,5,,,,,,,,4,,,55,85
71880,note_on,5,0,2,,,,,,,,1,,,60,85
71880,note_on,5,0,6,,,,,,,,5,,,55,85
71925,note_on,45,0,6,,,,,,,,5,,,67,0
71965,note_on,40,0,6,,,,,,,,5,,,76,0
71965,note_on,0,0,6,,,,,,,,5,,,72,0
71995,note_on,115,0,3,,,,,,,,2,,,55,0
71995,note_on,115,0,5,,,,,,,,4,,,55,0
71995,note_on,115,0,1,,,,,,,,0,,,72,0
71995,note_on,30,0,6,,,,,,,,5,,,55,0
71995,note_on,115,0,4,,,,,,,,3,,,67,0
71995,note_on,115,0,2,,,,,,,,1,,,60,0
72000,note_on,5,0,6,,,,,,,,5,,,74,64
72000,note_on,0,0,6,,,,,,,,5,,,55,64
72000,note_on,5,0,4,,,,,,,,3,,,67,64
72000,note_on,5,0,3,,,,,,,,2,,,55,64
72000,note_on,0,0,6,,,,,,,,5,,,71,64
72000,note_on,5,0,1,,,,,,,,0,,,71,64
72000,note_on,5,0,5,,,,,,,,4,,,55,64
72000,note_on,0,0,6,,,,,,,,5,,,65,64
72000,note_on,5,0,2,,,,,,,,1,,,65,64
72115,note_on,115,0,4,,,,,,,,3,,,67,0
72115,note_on,115,0,6,,,,,,,,5,,,55,0
72115,note_on,115,0,5,,,,,,,,4,,,55,0
72120,note_on,5,0,5,,,,,,,,4,,,53,64
72120,note_on,5,0,6,,,,,,,,5,,,53,64
72120,note_on,5,0,4,,,,,,,,3,,,65,64
72235,note_on,115,0,4,,,,,,,,3,,,65,0
72235,note_on,115,0,6,,,,,,,,5,,,53,0
72235,note_on,115,0,5,,,,,,,,4,,,53,0
72240,note_on,5,0,6,,,,,,,,5,,,52,64
72240,note_on,5,0,5,,,,,,,,4,,,52,64
72240,note_on,5,0,4,,,,,,,,3,,,64,64
72355,note_on,115,0,5,,,,,,,,4,,,52,0
72355,note_on,115,0,6,,,,,,,,5,,,52,0
72355,note_on,115,0,4,,,,,,,,3,,,64,0
72360,note_on,5,0,5,,,,,,,,4,,,50,64
72360,note_on,5,0,6,,,,,,,,5,,,50,64
72360,note_on,5,0,4,,,,,,,,3,,,62,64
72445,note_on,0,0,6,,,,,,,,5,,,71,0
72445,note_on,85,0,6,,,,,,,,5,,,74,0
72445,note_on,445,0,1,,,,,,,,0,,,71,0
72445,note_on,445,0,2,,,,,,,,1,,,65,0
72445,note_on,0,0,6,,,,,,,,5,,,65,0
72445,note_on,445,0,3,,,,,,,,2,,,55,0
72475,note_on,115,0,4,,,,,,,,3,,,62,0
72475,note_on,115,0,5,,,,,,,,4,,,50,0
72475,note_on,30,0,6,,,,,,,,5,,,50,0
72480,note_on,5,0,6,,,,,,,,5,,,48,64
72480,note_on,5,0,5,,,,,,,,4,,,48,64
72480,note_on,5,0,4,,,,,,,,3,,,60,64
72595,note_on,115,0,6,,,,,,,,5,,,48,0
72595,note_on,115,0,4,,,,,,,,3,,,60,0
72595,note_on,115,0,5,,,,,,,,4,,,48,0
72600,note_on,5,0,5,,,,,,,,4,,,47,64
72600,note_on,5,0,6,,,,,,,,5,,,47,64
72600,note_on,5,0,4,,,,,,,,3,,,59,64
72715,note_on,115,0,6,,,,,,,,5,,,47,0
72715,note_on,115,0,5,,,,,,,,4,,,47,0
72715,note_on,115,0,4,,,,,,,,3,,,59,0
72720,note_on,5,0,4,,,,,,,,3,,,57,64
72720,note_on,5,0,5,,,,,,,,4,,,45,64
72720,note_on,5,0,6,,,,,,,,5,,,45,64
72835,note_on,115,0,5,,,,,,,,4,,,45,0
72835,note_on,115,0,4,,,,,,,,3,,,57,0
72835,note_on,115,0,6,,,,,,,,5,,,45,0
72840,note_on,5,0,4,,,,,,,,3,,,55,64
72840,note_on,5,0,5,,,,,,,,4,,,43,64
72840,note_on,5,0,6,,,,,,,,5,,,43,64
72955,note_on,115,0,5,,,,,,,,4,,,43,0
72955,note_on,115,0,6,,,,,,,,5,,,43,0
72955,note_on,115,0,4,,,,,,,,3,,,55,0
72960,note_on,0,0,6,,,,,,,,5,,,59,85
72960,note_on,0,0,6,,,,,,,,5,,,67,64
72960,note_on,5,0,6,,,,,,,,5,,,77,64
72960,note_on,0,0,6,,,,,,,,5,,,74,64
72960,note_on,515,0,3,,,,,,,,2,,,55,85
72960,note_on,515,0,1,,,,,,,,0,,,77,85
72960,note_on,5,0,5,,,,,,,,4,,,59,85
72960,note_on,5,0,4,,,,,,,,3,,,71,85
72960,note_on,515,0,2,,,,,,,,1,,,71,85
73075,note_on,115,0,5,,,,,,,,4,,,59,0
73075,note_on,115,0,4,,,,,,,,3,,,71,0
73075,note_on,115,0,6,,,,,,,,5,,,59,0
73080,note_on,5,0,5,,,,,,,,4,,,57,85
73080,note_on,5,0,6,,,,,,,,5,,,57,85
73080,note_on,5,0,4,,,,,,,,3,,,69,85
73195,note_on,115,0,4,,,,,,,,3,,,69,0
73195,note_on,115,0,6,,,,,,,,5,,,57,0
73195,note_on,115,0,5,,,,,,,,4,,,57,0
73200,note_on,5,0,5,,,,,,,,4,,,55,85
73200,note_on,5,0,4,,,,,,,,3,,,67,85
73200,note_on,5,0,6,,,,,,,,5,,,55,85
73315,note_on,115,0,6,,,,,,,,5,,,55,0
73315,note_on,115,0,4,,,,,,,,3,,,67,0
73315,note_on,115,0,5,,,,,,,,4,,,55,0
73320,note_on,5,0,6,,,,,,,,5,,,53,85
73320,note_on,5,0,4,,,,,,,,3,,,65,85
73320,note_on,5,0,5,,,,,,,,4,,,53,85
73405,note_on,445,0,2,,,,,,,,1,,,71,0
73405,note_on,445,0,3,,,,,,,,2,,,55,0
73405,note_on,0,0,6,,,,,,,,5,,,74,0
73405,note_on,0,0,6,,,,,,,,5,,,67,0
73405,note_on,445,0,1,,,,,,,,0,,,77,0
73405,note_on,85,0,6,,,,,,,,5,,,77,0
73435,note_on,115,0,4,,,,,,,,3,,,65,0
73435,note_on,30,0,6,,,,,,,,5,,,53,0
73435,note_on,115,0,5,,,,,,,,4,,,53,0
73440,note_on,5,0,5,,,,,,,,4,,,52,85
73440,note_on,5,0,6,,,,,,,,5,,,52,85
73440,note_on,5,0,4,,,,,,,,3,,,64,85
73555,note_on,115,0,6,,,,,,,,5,,,52,0
73555,note_on,115,0,5,,,,,,,,4,,,52,0
73555,note_on,115,0,4,,,,,,,,3,,,64,0
73560,note_on,5,0,4,,,,,,,,3,,,62,85
73560,note_on,5,0,6,,,,,,,,5,,,50,85
73560,note_on,5,0,5,,,,,,,,4,,,50,85
73675,note_on,115,0,6,,,,,,,,5,,,50,0
73675,note_on,115,0,5,,,,,,,,4,,,50,0
73675,note_on,115,0,4,,,,,,,,3,,,62,0
73680,note_on,5,0,6,,,,,,,,5,,,48,85
73680,note_on,5,0,5,,,,,,,,4,,,48,85
73680,note_on,5,0,4,,,,,,,,3,,,60,85
73795,note_on,115,0,5,,,,,,,,4,,,48,0
73795,note_on,115,0,4,,,,,,,,3,,,60,0
73795,note_on,115,0,6,,,,,,,,5,,,48,0
73800,note_on,5,0,5,,,,,,,,4,,,47,85
73800,note_on,5,0,4,,,,,,,,3,,,59,85
73800,note_on,5,0,6,,,,,,,,5,,,47,85
73915,note_on,115,0,5,,,,,,,,4,,,47,0
73915,note_on,115,0,6,,,,,,,,5,,,47,0
73915,note_on,115,0,4,,,,,,,,3,,,59,0
73920,note_on,5,0,4,,,,,,,,3,,,74,106
73920,note_on,515,0,2,,,,,,,,1,,,71,106
73920,note_on,515,0,3,,,,,,,,2,,,55,106
73920,note_on,0,0,6,,,,,,,,5,,,62,106
73920,note_on,0,0,6,,,,,,,,5,,,65,64
73920,note_on,0,0,6,,,,,,,,5,,,71,64
73920,note_on,515,0,1,,,,,,,,0,,,77,106
73920,note_on,5,0,6,,,,,,,,5,,,77,64
73920,note_on,5,0,5,,,,,,,,4,,,62,106
74035,note_on,115,0,4,,,,,,,,3,,,74,0
74035,note_on,115,0,5,,,,,,,,4,,,62,0
74035,note_on,115,0,6,,,,,,,,5,,,62,0
74040,note_on,5,0,4,,,,,,,,3,,,72,106
74040,note_on,5,0,5,,,,,,,,4,,,60,106
74040,note_on,5,0,6,,,,,,,,5,,,60,106
74155,note_on,115,0,5,,,,,,,,4,,,60,0
74155,note_on,115,0,6,,,,,,,,5,,,60,0
74155,note_on,115,0,4,,,,,,,,3,,,72,0
74160,note_on,5,0,5,,,,,,,,4,,,59,106
74160,note_on,5,0,6,,,,,,,,5,,,59,106
74160,note_on,5,0,4,,,,,,,,3,,,71,106
74275,note_on,115,0,5,,,,,,,,4,,,59,0
74275,note_on,115,0,6,,,,,,,,5,,,59,0
74275,note_on,115,0,4,,,,,,,,3,,,71,0
74280,note_on,5,0,5,,,,,,,,4,,,57,106
74280,note_on,5,0,4,,,,,,,,3,,,69,106
74280,note_on,5,0,6,,,,,,,,5,,,57,106
74365,note_on,85,0,6,,,,,,,,5,,,77,0
74365,note_on,0,0,6,,,,,,,,5,,,65,0
74365,note_on,0,0,6,,,,,,,,5,,,71,0
74365,note_on,445,0,3,,,,,,,,2,,,55,0
74365,note_on,445,0,2,,,,,,,,1,,,71,0
74365,note_on,445,0,1,,,,,,,,0,,,77,0
74395,note_on,115,0,4,,,,,,,,3,,,69,0
74395,note_on,30,0,6,,,,,,,,5,,,57,0
74395,note_on,115,0,5,,,,,,,,4,,,57,0
74400,note_on,5,0,5,,,,,,,,4,,,55,106
74400,note_on,5,0,6,,,,,,,,5,,,55,106
74400,note_on,5,0,4,,,,,,,,3,,,67,106
74515,note_on,115,0,5,,,,,,,,4,,,55,0
74515,note_on,115,0,6,,,,,,,,5,,,55,0
74515,note_on,115,0,4,,,,,,,,3,,,67,0
74520,note_on,5,0,5,,,,,,,,4,,,53,106
74520,note_on,5,0,6,,,,,,,,5,,,53,106
74520,note_on,5,0,4,,,,,,,,3,,,65,106
74635,note_on,115,0,4,,,,,,,,3,,,65,0
74635,note_on,115,0,6,,,,,,,,5,,,53,0
74635,note_on,115,0,5,,,,,,,,4,,,53,0
74640,note_on,5,0,5,,,,,,,,4,,,52,106
74640,note_on,5,0,6,,,,,,,,5,,,52,106
74640,note_on,5,0,4,,,,,,,,3,,,64,106
74755,note_on,115,0,5,,,,,,,,4,,,52,0
74755,note_on,115,0,6,,,,,,,,5,,,52,0
74755,note_on,115,0,4,,,,,,,,3,,,64,0
74760,note_on,5,0,4,,,,,,,,3,,,62,106
74760,note_on,5,0,6,,,,,,,,5,,,50,106
74760,note_on,5,0,5,,,,,,,,4,,,50,106
74875,note_on,115,0,4,,,,,,,,3,,,62,0
74875,note_on,115,0,6,,,,,,,,5,,,50,0
74875,note_on,115,0,5,,,,,,,,4,,,50,0
74880,note_on,515,0,3,,,,,,,,2,,,72,49
74880,note_on,5,0,4,,,,,,,,3,,,67,49
74880,note_on,5,0,5,,,,,,,,4,,,48,49
74880,note_on,515,0,1,,,,,,,,0,,,84,49
74880,note_on,5,0,6,,,,,,,,5,,,76,64
74880,note_on,0,0,6,,,,,,,,5,,,72,64
74880,note_on,0,0,6,,,,,,,,5,,,67,64
74880,note_on,0,0,6,,,,,,,,5,,,48,49
74880,note_on,515,0,2,,,,,,,,1,,,76,49
74995,note_on,115,0,1,,,,,,,,0,,,84,0
74995,note_on,115,0,4,,,,,,,,3,,,67,0
74995,note_on,115,0,3,,,,,,,,2,,,72,0
74995,note_on,115,0,2,,,,,,,,1,,,76,0
75000,note_on,5,0,4,,,,,,,,3,,,67,49
75000,note_on,5,0,1,,,,,,,,0,,,84,49
75000,note_on,5,0,2,,,,,,,,1,,,76,49
75000,note_on,5,0,3,,,,,,,,2,,,72,49
75105,note_on,225,0,5,,,,,,,,4,,,48,0
75105,note_on,225,0,6,,,,,,,,5,,,48,0
75115,note_on,115,0,1,,,,,,,,0,,,84,0
75115,note_on,115,0,4,,,,,,,,3,,,67,0
75115,note_on,115,0,2,,,,,,,,1,,,76,0
75115,note_on,115,0,3,,,,,,,,2,,,72,0
75120,note_on,5,0,4,,,,,,,,3,,,67,49
75120,note_on,5,0,1,,,,,,,,0,,,84,49
75120,note_on,5,0,2,,,,,,,,1,,,76,49
75120,note_on,15,0,6,,,,,,,,5,,,48,49
75120,note_on,15,0,5,,,,,,,,4,,,48,49
75120,note_on,5,0,3,,,,,,,,2,,,72,49
75235,note_on,115,0,2,,,,,,,,1,,,76,0
75235,note_on,115,0,3,,,,,,,,2,,,72,0
75235,note_on,115,0,1,,,,,,,,0,,,84,0
75235,note_on,115,0,4,,,,,,,,3,,,67,0
75240,note_on,5,0,2,,,,,,,,1,,,76,49
75240,note_on,5,0,4,,,,,,,,3,,,67,49
75240,note_on,5,0,1,,,,,,,,0,,,84,49
75240,note_on,5,0,3,,,,,,,,2,,,72,49
75345,note_on,225,0,5,,,,,,,,4,,,48,0
75345,note_on,225,0,6,,,,,,,,5,,,48,0
75355,note_on,115,0,3,,,,,,,,2,,,72,0
75355,note_on,115,0,2,,,,,,,,1,,,76,0
75355,note_on,115,0,4,,,,,,,,3,,,67,0
75355,note_on,115,0,1,,,,,,,,0,,,84,0
75360,note_on,15,0,5,,,,,,,,4,,,48,49
75360,note_on,15,0,6,,,,,,,,5,,,48,49
75360,note_on,5,0,2,,,,,,,,1,,,76,49
75360,note_on,5,0,1,,,,,,,,0,,,84,49
75360,note_on,5,0,4,,,,,,,,3,,,67,49
75360,note_on,5,0,3,,,,,,,,2,,,72,49
75475,note_on,115,0,3,,,,,,,,2,,,72,0
75475,note_on,115,0,2,,,,,,,,1,,,76,0
75475,note_on,115,0,1,,,,,,,,0,,,84,0
75475,note_on,115,0,4,,,,,,,,3,,,67,0
75480,note_on,5,0,4,,,,,,,,3,,,67,49
75480,note_on,5,0,2,,,,,,,,1,,,76,49
75480,note_on,5,0,1,,,,,,,,0,,,84,49
75480,note_on,5,0,3,,,,,,,,2,,,72,49
75585,note_on,225,0,6,,,,,,,,5,,,48,0
75585,note_on,225,0,5,,,,,,,,4,,,48,0
75595,note_on,115,0,1,,,,,,,,0,,,84,0
75595,note_on,115,0,2,,,,,,,,1,,,76,0
75595,note_on,115,0,3,,,,,,,,2,,,72,0
75595,note_on,115,0,4,,,,,,,,3,,,67,0
75600,note_on,5,0,2,,,,,,,,1,,,76,49
75600,note_on,15,0,5,,,,,,,,4,,,48,64
75600,note_on,5,0,4,,,,,,,,3,,,67,49
75600,note_on,15,0,6,,,,,,,,5,,,48,64
75600,note_on,5,0,1,,,,,,,,0,,,84,49
75600,note_on,5,0,3,,,,,,,,2,,,72,49
75715,note_on,115,0,3,,,,,,,,2,,,72,0
75715,note_on,115,0,1,,,,,,,,0,,,84,0
75715,note_on,115,0,4,,,,,,,,3,,,67,0
75715,note_on,115,0,2,,,,,,,,1,,,76,0
75720,note_on,5,0,2,,,,,,,,1,,,76,64
75720,note_on,5,0,4,,,,,,,,3,,,67,49
75720,note_on,5,0,3,,,,,,,,2,,,72,49
75720,note_on,5,0,1,,,,,,,,0,,,84,64
75765,note_on,165,0,6,,,,,,,,5,,,76,0
75765,note_on,0,0,6,,,,,,,,5,,,67,0
75765,note_on,0,0,6,,,,,,,,5,,,72,0
75825,note_on,225,0,5,,,,,,,,4,,,48,0
75825,note_on,60,0,6,,,,,,,,5,,,48,0
75835,note_on,115,0,4,,,,,,,,3,,,67,0
75835,note_on,115,0,2,,,,,,,,1,,,76,0
75835,note_on,115,0,1,,,,,,,,0,,,84,0
75835,note_on,115,0,3,,,,,,,,2,,,72,0
75840,note_on,0,0,6,,,,,,,,5,,,67,64
75840,note_on,0,0,6,,,,,,,,5,,,55,64
75840,note_on,5,0,3,,,,,,,,2,,,72,49
75840,note_on,15,0,6,,,,,,,,5,,,74,64
75840,note_on,15,0,5,,,,,,,,4,,,55,64
75840,note_on,5,0,2,,,,,,,,1,,,74,64
75840,note_on,5,0,1,,,,,,,,0,,,84,64
75840,note_on,5,0,4,,,,,,,,3,,,67,49
75840,note_on,0,0,6,,,,,,,,5,,,72,64
75955,note_on,115,0,3,,,,,,,,2,,,72,0
75955,note_on,115,0,2,,,,,,,,1,,,74,0
75955,note_on,115,0,1,,,,,,,,0,,,84,0
75955,note_on,115,0,4,,,,,,,,3,,,67,0
75960,note_on,5,0,4,,,,,,,,3,,,67,49
75960,note_on,5,0,3,,,,,,,,2,,,72,64
75960,note_on,5,0,1,,,,,,,,0,,,84,64
75960,note_on,5,0,2,,,,,,,,1,,,74,64
76065,note_on,225,0,5,,,,,,,,4,,,55,0
76065,note_on,225,0,6,,,,,,,,5,,,55,0
76075,note_on,115,0,2,,,,,,,,1,,,74,0
76075,note_on,115,0,3,,,,,,,,2,,,72,0
76075,note_on,115,0,1,,,,,,,,0,,,84,0
76075,note_on,115,0,4,,,,,,,,3,,,67,0
76080,note_on,5,0,2,,,,,,,,1,,,74,64
76080,note_on,15,0,5,,,,,,,,4,,,55,64
76080,note_on,5,0,3,,,,,,,,2,,,72,64
76080,note_on,5,0,1,,,,,,,,0,,,84,64
76080,note_on,15,0,6,,,,,,,,5,,,55,64
76080,note_on,5,0,4,,,,,,,,3,,,67,64
76195,note_on,115,0,2,,,,,,,,1,,,74,0
76195,note_on,115,0,4,,,,,,,,3,,,67,0
76195,note_on,115,0,3,,,,,,,,2,,,72,0
76195,note_on,115,0,1,,,,,,,,0,,,84,0
76200,note_on,5,0,4,,,,,,,,3,,,67,64
76200,note_on,5,0,3,,,,,,,,2,,,72,64
76200,note_on,5,0,2,,,,,,,,1,,,74,64
76200,note_on,5,0,1,,,,,,,,0,,,84,64
76305,note_on,225,0,6,,,,,,,,5,,,55,0
76305,note_on,225,0,5,,,,,,,,4,,,55,0
76315,note_on,115,0,2,,,,,,,,1,,,74,0
76315,note_on,115,0,4,,,,,,,,3,,,67,0
76315,note_on,115,0,3,,,,,,,,2,,,72,0
76315,note_on,115,0,1,,,,,,,,0,,,84,0
76320,note_on,5,0,4,,,,,,,,3,,,67,64
76320,note_on,5,0,2,,,,,,,,1,,,74,64
76320,note_on,5,0,1,,,,,,,,0,,,84,64
76320,note_on,15,0,5,,,,,,,,4,,,55,64
76320,note_on,5,0,3,,,,,,,,2,,,72,64
76320,note_on,15,0,6,,,,,,,,5,,,55,64
76435,note_on,115,0,2,,,,,,,,1,,,74,0
76435,note_on,115,0,3,,,,,,,,2,,,72,0
76435,note_on,115,0,4,,,,,,,,3,,,67,0
76435,note_on,115,0,1,,,,,,,,0,,,84,0
76440,note_on,5,0,4,,,,,,,,3,,,67,64
76440,note_on,5,0,1,,,,,,,,0,,,84,85
76440,note_on,5,0,2,,,,,,,,1,,,74,64
76440,note_on,5,0,3,,,,,,,,2,,,72,64
76545,note_on,225,0,5,,,,,,,,4,,,55,0
76545,note_on,225,0,6,,,,,,,,5,,,55,0
76555,note_on,115,0,3,,,,,,,,2,,,72,0
76555,note_on,115,0,4,,,,,,,,3,,,67,0
76555,note_on,115,0,1,,,,,,,,0,,,84,0
76555,note_on,115,0,2,,,,,,,,1,,,74,0
76560,note_on,5,0,4,,,,,,,,3,,,67,64
76560,note_on,5,0,3,,,,,,,,2,,,72,64
76560,note_on,15,0,6,,,,,,,,5,,,55,64
76560,note_on,5,0,1,,,,,,,,0,,,84,85
76560,note_on,5,0,2,,,,,,,,1,,,74,64
76560,note_on,15,0,5,,,,,,,,4,,,55,64
76675,note_on,115,0,3,,,,,,,,2,,,72,0
76675,note_on,115,0,1,,,,,,,,0,,,84,0
76675,note_on,115,0,4,,,,,,,,3,,,67,0
76675,note_on,115,0,2,,,,,,,,1,,,74,0
76680,note_on,5,0,3,,,,,,,,2,,,72,64
76680,note_on,5,0,1,,,,,,,,0,,,84,85
76680,note_on,5,0,4,,,,,,,,3,,,67,64
76680,note_on,5,0,2,,,,,,,,1,,,74,85
76725,note_on,0,0,6,,,,,,,,5,,,67,0
76725,note_on,0,0,6,,,,,,,,5,,,72,0
76725,note_on,165,0,6,,,,,,,,5,,,74,0
76785,note_on,60,0,6,,,,,,,,5,,,55,0
76785,note_on,225,0,5,,,,,,,,4,,,55,0
76795,note_on,115,0,2,,,,,,,,1,,,74,0
76795,note_on,115,0,3,,,,,,,,2,,,72,0
76795,note_on,115,0,1,,,,,,,,0,,,84,0
76795,note_on,115,0,4,,,,,,,,3,,,67,0
76800,note_on,5,0,2,,,,,,,,1,,,74,85
76800,note_on,0,0,6,,,,,,,,5,,,67,64
76800,note_on,15,0,6,,,,,,,,5,,,74,64
76800,note_on,0,0,6,,,,,,,,5,,,71,64
76800,note_on,0,0,6,,,,,,,,5,,,43,85
76800,note_on,5,0,1,,,,,,,,0,,,83,85
76800,note_on,5,0,4,,,,,,,,3,,,67,64
76800,note_on,5,0,3,,,,,,,,2,,,71,64
76800,note_on,15,0,5,,,,,,,,4,,,43,85
76915,note_on,115,0,1,,,,,,,,0,,,83,0
76915,note_on,115,0,4,,,,,,,,3,,,67,0
76915,note_on,115,0,3,,,,,,,,2,,,71,0
76915,note_on,115,0,2,,,,,,,,1,,,74,0
76920,note_on,5,0,4,,,,,,,,3,,,67,64
76920,note_on,5,0,1,,,,,,,,0,,,83,85
76920,note_on,5,0,2,,,,,,,,1,,,74,85
76920,note_on,5,0,3,,,,,,,,2,,,71,85
77025,note_on,225,0,5,,,,,,,,4,,,43,0
77025,note_on,225,0,6,,,,,,,,5,,,43,0
77035,note_on,115,0,2,,,,,,,,1,,,74,0
77035,note_on,115,0,3,,,,,,,,2,,,71,0
77035,note_on,115,0,1,,,,,,,,0,,,83,0
77035,note_on,115,0,4,,,,,,,,3,,,67,0
77040,note_on,5,0,3,,,,,,,,2,,,71,85
77040,note_on,5,0,2,,,,,,,,1,,,74,85
77040,note_on,15,0,6,,,,,,,,5,,,43,85
77040,note_on,5,0,1,,,,,,,,0,,,83,85
77040,note_on,5,0,4,,,,,,,,3,,,67,85
77040,note_on,15,0,5,,,,,,,,4,,,43,85
77155,note_on,115,0,2,,,,,,,,1,,,74,0
77155,note_on,115,0,3,,,,,,,,2,,,71,0
77155,note_on,115,0,4,,,,,,,,3,,,67,0
77155,note_on,115,0,1,,,,,,,,0,,,83,0
77160,note_on,5,0,3,,,,,,,,2,,,71,85
77160,note_on,5,0,2,,,,,,,,1,,,74,106
77160,note_on,5,0,1,,,,,,,,0,,,83,85
77160,note_on,5,0,4,,,,,,,,3,,,67,85
77265,note_on,225,0,6,,,,,,,,5,,,43,0
77265,note_on,225,0,5,,,,,,,,4,,,43,0
77275,note_on,115,0,3,,,,,,,,2,,,71,0
77275,note_on,115,0,1,,,,,,,,0,,,83,0
77275,note_on,115,0,2,,,,,,,,1,,,74,0
77275,note_on,115,0,4,,,,,,,,3,,,67,0
77280,note_on,5,0,4,,,,,,,,3,,,67,85
77280,note_on,15,0,6,,,,,,,,5,,,43,106
77280,note_on,5,0,3,,,,,,,,2,,,71,85
77280,note_on,15,0,5,,,,,,,,4,,,43,106
77280,note_on,5,0,2,,,,,,,,1,,,74,106
77280,note_on,5,0,1,,,,,,,,0,,,83,106
77395,note_on,115,0,4,,,,,,,,3,,,67,0
77395,note_on,115,0,1,,,,,,,,0,,,83,0
77395,note_on,115,0,3,,,,,,,,2,,,71,0
77395,note_on,115,0,2,,,,,,,,1,,,74,0
77400,note_on,5,0,2,,,,,,,,1,,,74,106
77400,note_on,5,0,4,,,,,,,,3,,,67,85
77400,note_on,5,0,3,,,,,,,,2,,,71,106
77400,note_on,5,0,1,,,,,,,,0,,,83,106
77505,note_on,225,0,5,,,,,,,,4,,,43,0
77505,note_on,225,0,6,,,,,,,,5,,,43,0
77515,note_on,115,0,4,,,,,,,,3,,,67,0
77515,note_on,115,0,1,,,,,,,,0,,,83,0
77515,note_on,115,0,3,,,,,,,,2,,,71,0
77515,note_on,115,0,2,,,,,,,,1,,,74,0
77520,note_on,15,0,5,,,,,,,,4,,,43,106
77520,note_on,5,0,1,,,,,,,,0,,,83,106
77520,note_on,15,0,6,,,,,,,,5,,,43,106
77520,note_on,5,0,3,,,,,,,,2,,,71,106
77520,note_on,5,0,2,,,,,,,,1,,,74,106
77520,note_on,5,0,4,,,,,,,,3,,,67,106
77635,note_on,115,0,1,,,,,,,,0,,,83,0
77635,note_on,115,0,2,,,,,,,,1,,,74,0
77635,note_on,115,0,4,,,,,,,,3,,,67,0
77635,note_on,115,0,3,,,,,,,,2,,,71,0
77640,note_on,5,0,2,,,,,,,,1,,,74,106
77640,note_on,5,0,4,,,,,,,,3,,,67,106
77640,note_on,5,0,1,,,,,,,,0,,,83,106
77640,note_on,5,0,3,,,,,,,,2,,,71,106
77685,note_on,165,0,6,,,,,,,,5,,,74,0
77685,note_on,0,0,6,,,,,,,,5,,,71,0
77685,note_on,0,0,6,,,,,,,,5,,,67,0
77745,note_on,60,0,6,,,,,,,,5,,,43,0
77745,note_on,225,0,5,,,,,,,,4,,,43,0
77755,note_on,115,0,3,,,,,,,,2,,,71,0
77755,note_on,115,0,2,,,,,,,,1,,,74,0
77755,note_on,115,0,1,,,,,,,,0,,,83,0
77755,note_on,115,0,4,,,,,,,,3,,,67,0
77760,note_on,15,0,5,,,,,,,,4,,,48,106
77760,note_on,5,0,3,,,,,,,,2,,,72,106
77760,note_on,15,0,6,,,,,,,,5,,,72,64
77760,note_on,5,0,2,,,,,,,,1,,,76,106
77760,note_on,0,0,6,,,,,,,,5,,,48,106
77760,note_on,5,0,1,,,,,,,,0,,,84,85
77760,note_on,0,0,6,,,,,,,,5,,,64,64
77760,note_on,5,0,4,,,,,,,,3,,,67,106
77760,note_on,0,0,6,,,,,,,,5,,,67,64
77875,note_on,115,0,1,,,,,,,,0,,,84,0
77880,note_on,5,0,1,,,,,,,,0,,,79,85
77995,note_on,115,0,1,,,,,,,,0,,,79,0
78000,note_on,5,0,1,,,,,,,,0,,,79,85
78115,note_on,115,0,1,,,,,,,,0,,,79,0
78120,note_on,5,0,1,,,,,,,,0,,,84,85
78205,note_on,445,0,5,,,,,,,,4,,,48,0
78205,note_on,445,0,6,,,,,,,,5,,,48,0
78205,note_on,445,0,2,,,,,,,,1,,,76,0
78205,note_on,445,0,3,,,,,,,,2,,,72,0
78205,note_on,445,0,4,,,,,,,,3,,,67,0
78235,note_on,115,0,1,,,,,,,,0,,,84,0
78240,note_on,35,0,4,,,,,,,,3,,,64,64
78240,note_on,35,0,6,,,,,,,,5,,,48,106
78240,note_on,35,0,3,,,,,,,,2,,,76,64
78240,note_on,5,0,1,,,,,,,,0,,,84,85
78240,note_on,35,0,2,,,,,,,,1,,,79,64
78355,note_on,115,0,1,,,,,,,,0,,,84,0
78360,note_on,5,0,1,,,,,,,,0,,,79,85
78475,note_on,115,0,1,,,,,,,,0,,,79,0
78480,note_on,5,0,1,,,,,,,,0,,,79,85
78595,note_on,115,0,1,,,,,,,,0,,,79,0
78600,note_on,5,0,1,,,,,,,,0,,,76,85
78645,note_on,0,0,6,,,,,,,,5,,,64,0
78645,note_on,0,0,6,,,,,,,,5,,,67,0
78645,note_on,405,0,6,,,,,,,,5,,,72,0
78685,note_on,445,0,2,,,,,,,,1,,,79,0
78685,note_on,445,0,3,,,,,,,,2,,,76,0
78685,note_on,445,0,4,,,,,,,,3,,,64,0
78685,note_on,40,0,6,,,,,,,,5,,,48,0
78715,note_on,115,0,1,,,,,,,,0,,,76,0
78720,note_on,515,0,5,,,,,,,,4,,,45,64
78720,note_on,35,0,3,,,,,,,,2,,,73,64
78720,note_on,35,0,2,,,,,,,,1,,,79,64
78720,note_on,5,0,1,,,,,,,,0,,,73,106
78720,note_on,0,0,6,,,,,,,,5,,,45,64
78720,note_on,0,0,6,,,,,,,,5,,,64,64
78720,note_on,0,0,6,,,,,,,,5,,,67,64
78720,note_on,35,0,6,,,,,,,,5,,,73,64
78720,note_on,35,0,4,,,,,,,,3,,,64,64
78835,note_on,115,0,1,,,,,,,,0,,,73,0
78840,note_on,5,0,1,,,,,,,,0,,,76,106
78955,note_on,115,0,1,,,,,,,,0,,,76,0
78960,note_on,5,0,1,,,,,,,,0,,,76,106
79075,note_on,115,0,1,,,,,,,,0,,,76,0
79080,note_on,5,0,1,,,,,,,,0,,,81,106
79165,note_on,445,0,2,,,,,,,,1,,,79,0
79165,note_on,445,0,4,,,,,,,,3,,,64,0
79165,note_on,445,0,5,,,,,,,,4,,,45,0
79165,note_on,445,0,6,,,,,,,,5,,,45,0
79165,note_on,445,0,3,,,,,,,,2,,,73,0
79195,note_on,115,0,1,,,,,,,,0,,,81,0
79200,note_on,35,0,2,,,,,,,,1,,,79,64
79200,note_on,35,0,3,,,,,,,,2,,,73,64
79200,note_on,35,0,4,,,,,,,,3,,,64,64
79200,note_on,5,0,1,,,,,,,,0,,,81,106
79200,note_on,35,0,6,,,,,,,,5,,,45,64
79200,note_on,35,0,5,,,,,,,,4,,,45,64
79315,note_on,115,0,1,,,,,,,,0,,,81,0
79320,note_on,5,0,1,,,,,,,,0,,,76,106
79435,note_on,115,0,1,,,,,,,,0,,,76,0
79440,note_on,5,0,1,,,,,,,,0,,,76,106
79555,note_on,115,0,1,,,,,,,,0,,,76,0
79560,note_on,5,0,1,,,,,,,,0,,,77,106
79605,note_on,0,0,6,,,,,,,,5,,,67,0
79605,note_on,0,0,6,,,,,,,,5,,,64,0
79605,note_on,405,0,6,,,,,,,,5,,,73,0
79645,note_on,445,0,3,,,,,,,,2,,,73,0
79645,note_on,445,0,5,,,,,,,,4,,,45,0
79645,note_on,445,0,4,,,,,,,,3,,,64,0
79645,note_on,445,0,2,,,,,,,,1,,,79,0
79645,note_on,40,0,6,,,,,,,,5,,,45,0
79675,note_on,115,0,1,,,,,,,,0,,,77,0
79680,note_on,35,0,2,,,,,,,,1,,,77,64
79680,note_on,0,0,6,,,,,,,,5,,,65,64
79680,note_on,5,0,1,,,,,,,,0,,,77,106
79680,note_on,35,0,3,,,,,,,,2,,,69,64
79680,note_on,35,0,4,,,,,,,,3,,,62,64
79680,note_on,35,0,6,,,,,,,,5,,,74,64
79680,note_on,0,0,6,,,,,,,,5,,,50,64
79680,note_on,0,0,6,,,,,,,,5,,,62,64
79680,note_on,35,0,5,,,,,,,,4,,,50,64
79795,note_on,115,0,1,,,,,,,,0,,,77,0
79800,note_on,5,0,1,,,,,,,,0,,,74,106
79915,note_on,115,0,1,,,,,,,,0,,,74,0
79920,note_on,5,0,1,,,,,,,,0,,,74,106
80035,note_on,115,0,1,,,,,,,,0,,,74,0
80040,note_on,5,0,1,,,,,,,,0,,,77,106
80125,note_on,445,0,4,,,,,,,,3,,,62,0
80125,note_on,445,0,6,,,,,,,,5,,,50,0
80125,note_on,445,0,2,,,,,,,,1,,,77,0
80125,note_on,445,0,5,,,,,,,,4,,,50,0
80125,note_on,445,0,3,,,,,,,,2,,,69,0
80155,note_on,115,0,1,,,,,,,,0,,,77,0
80160,note_on,35,0,5,,,,,,,,4,,,50,64
80160,note_on,35,0,2,,,,,,,,1,,,77,64
80160,note_on,35,0,6,,,,,,,,5,,,50,64
80160,note_on,5,0,1,,,,,,,,0,,,77,106
80160,note_on,35,0,3,,,,,,,,2,,,69,64
80160,note_on,35,0,4,,,,,,,,3,,,62,64
80275,note_on,115,0,1,,,,,,,,0,,,77,0
80280,note_on,5,0,1,,,,,,,,0,,,81,106
80395,note_on,115,0,1,,,,,,,,0,,,81,0
80400,note_on,5,0,1,,,,,,,,0,,,81,106
80515,note_on,115,0,1,,,,,,,,0,,,81,0
80520,note_on,5,0,1,,,,,,,,0,,,77,106
80565,note_on,0,0,6,,,,,,,,5,,,65,0
80565,note_on,0,0,6,,,,,,,,5,,,62,0
80565,note_on,405,0,6,,,,,,,,5,,,74,0
80605,note_on,445,0,3,,,,,,,,2,,,69,0
80605,note_on,445,0,5,,,,,,,,4,,,50,0
80605,note_on,445,0,4,,,,,,,,3,,,62,0
80605,note_on,40,0,6,,,,,,,,5,,,50,0
80605,note_on,445,0,2,,,,,,,,1,,,77,0
80635,note_on,115,0,1,,,,,,,,0,,,77,0
80640,note_on,35,0,2,,,,,,,,1,,,78,64
80640,note_on,35,0,4,,,,,,,,3,,,62,64
80640,note_on,0,0,6,,,,,,,,5,,,48,64
80640,note_on,35,0,5,,,,,,,,4,,,48,64
80640,note_on,0,0,6,,,,,,,,5,,,66,64
80640,note_on,35,0,3,,,,,,,,2,,,69,64
80640,note_on,0,0,6,,,,,,,,5,,,69,64
80640,note_on,5,0,1,,,,,,,,0,,,78,106
80640,note_on,35,0,6,,,,,,,,5,,,74,64
80755,note_on,115,0,1,,,,,,,,0,,,78,0
80760,note_on,5,0,1,,,,,,,,0,,,74,106
80875,note_on,115,0,1,,,,,,,,0,,,74,0
80880,note_on,5,0,1,,,,,,,,0,,,74,106
80995,note_on,115,0,1,,,,,,,,0,,,74,0
81000,note_on,5,0,1,,,,,,,,0,,,78,106
81085,note_on,445,0,4,,,,,,,,3,,,62,0
81085,note_on,445,0,6,,,,,,,,5,,,48,0
81085,note_on,445,0,2,,,,,,,,1,,,78,0
81085,note_on,445,0,5,,,,,,,,4,,,48,0
81085,note_on,445,0,3,,,,,,,,2,,,69,0
81115,note_on,115,0,1,,,,,,,,0,,,78,0
81120,note_on,35,0,4,,,,,,,,3,,,62,64
81120,note_on,35,0,5,,,,,,,,4,,,48,64
81120,note_on,35,0,2,,,,,,,,1,,,78,64
81120,note_on,5,0,1,,,,,,,,0,,,78,106
81120,note_on,35,0,3,,,,,,,,2,,,69,64
81120,note_on,35,0,6,,,,,,,,5,,,48,64
81235,note_on,115,0,1,,,,,,,,0,,,78,0
81240,note_on,5,0,1,,,,,,,,0,,,81,106
81355,note_on,115,0,1,,,,,,,,0,,,81,0
81360,note_on,5,0,1,,,,,,,,0,,,81,106
81475,note_on,115,0,1,,,,,,,,0,,,81,0
81480,note_on,5,0,1,,,,,,,,0,,,78,106
81525,note_on,0,0,6,,,,,,,,5,,,66,0
81525,note_on,405,0,6,,,,,,,,5,,,74,0
81525,note_on,0,0,6,,,,,,,,5,,,69,0
81565,note_on,40,0,6,,,,,,,,5,,,48,0
81565,note_on,445,0,3,,,,,,,,2,,,69,0
81565,note_on,445,0,2,,,,,,,,1,,,78,0
81565,note_on,445,0,4,,,,,,,,3,,,62,0
81565,note_on,445,0,5,,,,,,,,4,,,48,0
81595,note_on,115,0,1,,,,,,,,0,,,78,0
81600,note_on,35,0,3,,,,,,,,2,,,70,64
81600,note_on,35,0,2,,,,,,,,1,,,79,64
81600,note_on,35,0,4,,,,,,,,3,,,62,64
81600,note_on,35,0,5,,,,,,,,4,,,46,64
81600,note_on,0,0,6,,,,,,,,5,,,46,64
81600,note_on,0,0,6,,,,,,,,5,,,67,64
81600,note_on,35,0,6,,,,,,,,5,,,74,64
81600,note_on,5,0,1,,,,,,,,0,,,79,106
81715,note_on,115,0,1,,,,,,,,0,,,79,0
81720,note_on,5,0,1,,,,,,,,0,,,74,106
81835,note_on,115,0,1,,,,,,,,0,,,74,0
81840,note_on,5,0,1,,,,,,,,0,,,74,106
81955,note_on,115,0,1,,,,,,,,0,,,74,0
81960,note_on,5,0,1,,,,,,,,0,,,79,106
82045,note_on,445,0,4,,,,,,,,3,,,62,0
82045,note_on,445,0,6,,,,,,,,5,,,46,0
82045,note_on,445,0,2,,,,,,,,1,,,79,0
82045,note_on,445,0,3,,,,,,,,2,,,70,0
82045,note_on,445,0,5,,,,,,,,4,,,46,0
82075,note_on,115,0,1,,,,,,,,0,,,79,0
82080,note_on,35,0,5,,,,,,,,4,,,46,64
82080,note_on,35,0,3,,,,,,,,2,,,70,64
82080,note_on,35,0,6,,,,,,,,5,,,46,64
82080,note_on,35,0,4,,,,,,,,3,,,62,64
82080,note_on,5,0,1,,,,,,,,0,,,79,106
82080,note_on,35,0,2,,,,,,,,1,,,79,64
82195,note_on,115,0,1,,,,,,,,0,,,79,0
82200,note_on,5,0,1,,,,,,,,0,,,82,106
82315,note_on,115,0,1,,,,,,,,0,,,82,0
82320,note_on,5,0,1,,,,,,,,0,,,82,106
82435,note_on,115,0,1,,,,,,,,0,,,82,0
82440,note_on,5,0,1,,,,,,,,0,,,79,106
82485,note_on,405,0,6,,,,,,,,5,,,67,0
82485,note_on,0,0,6,,,,,,,,5,,,74,0
82525,note_on,445,0,3,,,,,,,,2,,,70,0
82525,note_on,445,0,2,,,,,,,,1,,,79,0
82525,note_on,445,0,4,,,,,,,,3,,,62,0
82525,note_on,40,0,6,,,,,,,,5,,,46,0
82525,note_on,445,0,5,,,,,,,,4,,,46,0
82555,note_on,115,0,1,,,,,,,,0,,,79,0
82560,note_on,35,0,6,,,,,,,,5,,,71,64
82560,note_on,5,0,1,,,,,,,,0,,,80,106
82560,note_on,0,0,6,,,,,,,,5,,,52,64
82560,note_on,35,0,4,,,,,,,,3,,,64,64
82560,note_on,35,0,3,,,,,,,,2,,,71,64
82560,note_on,0,0,6,,,,,,,,5,,,68,64
82560,note_on,35,0,5,,,,,,,,4,,,52,64
82560,note_on,35,0,2,,,,,,,,1,,,80,64
82675,note_on,115,0,1,,,,,,,,0,,,80,0
82680,note_on,5,0,1,,,,,,,,0,,,76,106
82795,note_on,115,0,1,,,,,,,,0,,,76,0
82800,note_on,5,0,1,,,,,,,,0,,,76,106
82915,note_on,115,0,1,,,,,,,,0,,,76,0
82920,note_on,5,0,1,,,,,,,,0,,,80,106
83005,note_on,445,0,5,,,,,,,,4,,,52,0
83005,note_on,445,0,6,,,,,,,,5,,,52,0
83005,note_on,445,0,3,,,,,,,,2,,,71,0
83005,note_on,445,0,4,,,,,,,,3,,,64,0
83005,note_on,445,0,2,,,,,,,,1,,,80,0
83035,note_on,115,0,1,,,,,,,,0,,,80,0
83040,note_on,35,0,4,,,,,,,,3,,,64,64
83040,note_on,35,0,6,,,,,,,,5,,,52,64
83040,note_on,5,0,1,,,,,,,,0,,,80,106
83040,note_on,35,0,2,,,,,,,,1,,,80,64
83040,note_on,35,0,3,,,,,,,,2,,,71,64
83040,note_on,35,0,5,,,,,,,,4,,,52,64
83155,note_on,115,0,1,,,,,,,,0,,,80,0
83160,note_on,5,0,1,,,,,,,,0,,,83,106
83275,note_on,115,0,1,,,,,,,,0,,,83,0
83280,note_on,5,0,1,,,,,,,,0,,,83,106
83395,note_on,115,0,1,,,,,,,,0,,,83,0
83400,note_on,5,0,1,,,,,,,,0,,,80,106
83445,note_on,0,0,6,,,,,,,,5,,,71,0
83445,note_on,405,0,6,,,,,,,,5,,,68,0
83485,note_on,40,0,6,,,,,,,,5,,,52,0
83485,note_on,445,0,2,,,,,,,,1,,,80,0
83485,note_on,445,0,3,,,,,,,,2,,,71,0
83485,note_on,445,0,4,,,,,,,,3,,,64,0
83485,note_on,445,0,5,,,,,,,,4,,,52,0
83515,note_on,115,0,1,,,,,,,,0,,,80,0
83520,note_on,35,0,6,,,,,,,,5,,,72,64
83520,note_on,0,0,6,,,,,,,,5,,,69,64
83520,note_on,0,0,6,,,,,,,,5,,,64,64
83520,note_on,0,0,6,,,,,,,,5,,,45,64
83520,note_on,35,0,5,,,,,,,,4,,,45,64
83520,note_on,35,0,3,,,,,,,,2,,,72,64
83520,note_on,5,0,1,,,,,,,,0,,,81,106
83520,note_on,35,0,2,,,,,,,,1,,,81,64
83520,note_on,35,0,4,,,,,,,,3,,,64,64
83635,note_on,115,0,1,,,,,,,,0,,,81,0
83640,note_on,5,0,1,,,,,,,,0,,,76,106
83755,note_on,115,0,1,,,,,,,,0,,,76,0
83760,note_on,5,0,1,,,,,,,,0,,,76,106
83875,note_on,115,0,1,,,,,,,,0,,,76,0
83880,note_on,5,0,1,,,,,,,,0,,,81,106
83965,note_on,445,0,5,,,,,,,,4,,,45,0
83965,note_on,445,0,6,,,,,,,,5,,,45,0
83965,note_on,445,0,3,,,,,,,,2,,,72,0
83965,note_on,445,0,4,,,,,,,,3,,,64,0
83965,note_on,445,0,2,,,,,,,,1,,,81,0
83995,note_on,115,0,1,,,,,,,,0,,,81,0
84000,note_on,5,0,1,,,,,,,,0,,,81,106
84000,note_on,35,0,6,,,,,,,,5,,,45,64
84000,note_on,35,0,4,,,,,,,,3,,,64,64
84000,note_on,35,0,3,,,,,,,,2,,,72,64
84000,note_on,35,0,2,,,,,,,,1,,,81,64
84000,note_on,35,0,5,,,,,,,,4,,,45,64
84115,note_on,115,0,1,,,,,,,,0,,,81,0
84120,note_on,5,0,1,,,,,,,,0,,,84,106
84235,note_on,115,0,1,,,,,,,,0,,,84,0
84240,note_on,5,0,1,,,,,,,,0,,,84,106
84355,note_on,115,0,1,,,,,,,,0,,,84,0
84360,note_on,5,0,1,,,,,,,,0,,,81,106
84405,note_on,405,0,6,,,,,,,,5,,,72,0
84405,note_on,0,0,6,,,,,,,,5,,,64,0
84405,note_on,0,0,6,,,,,,,,5,,,69,0
84445,note_on,445,0,2,,,,,,,,1,,,81,0
84445,note_on,445,0,3,,,,,,,,2,,,72,0
84445,note_on,445,0,4,,,,,,,,3,,,64,0
84445,note_on,445,0,5,,,,,,,,4,,,45,0
84445,note_on,40,0,6,,,,,,,,5,,,45,0
84475,note_on,115,0,1,,,,,,,,0,,,81,0
84480,note_on,35,0,5,,,,,,,,4,,,52,64
84480,note_on,35,0,6,,,,,,,,5,,,71,64
84480,note_on,35,0,4,,,,,,,,3,,,68,64
84480,note_on,0,0,6,,,,,,,,5,,,52,64
84480,note_on,0,0,6,,,,,,,,5,,,64,64
84480,note_on,35,0,3,,,,,,,,2,,,74,64
84480,note_on,0,0,6,,,,,,,,5,,,68,64
84480,note_on,5,0,1,,,,,,,,0,,,83,106
84480,note_on,35,0,2,,,,,,,,1,,,83,64
84595,note_on,115,0,1,,,,,,,,0,,,83,0
84600,note_on,5,0,1,,,,,,,,0,,,76,106
84715,note_on,115,0,1,,,,,,,,0,,,76,0
84720,note_on,5,0,1,,,,,,,,0,,,83,106
84835,note_on,115,0,1,,,,,,,,0,,,83,0
84840,note_on,5,0,1,,,,,,,,0,,,76,106
84925,note_on,445,0,2,,,,,,,,1,,,83,0
84925,note_on,445,0,4,,,,,,,,3,,,68,0
84925,note_on,445,0,6,,,,,,,,5,,,52,0
84925,note_on,0,0,6,,,,,,,,5,,,71,0
84925,note_on,0,0,6,,,,,,,,5,,,68,0
84925,note_on,445,0,3,,,,,,,,2,,,74,0
84925,note_on,445,0,5,,,,,,,,4,,,52,0
84955,note_on,115,0,1,,,,,,,,0,,,76,0
84960,note_on,35,0,2,,,,,,,,1,,,81,64
84960,note_on,35,0,4,,,,,,,,3,,,64,64
84960,note_on,35,0,3,,,,,,,,2,,,72,64
84960,note_on,35,0,6,,,,,,,,5,,,72,64
84960,note_on,0,0,6,,,,,,,,5,,,69,64
84960,note_on,5,0,1,,,,,,,,0,,,81,106
84960,note_on,0,0,6,,,,,,,,5,,,52,64
84960,note_on,35,0,5,,,,,,,,4,,,52,64
85075,note_on,115,0,1,,,,,,,,0,,,81,0
85080,note_on,5,0,1,,,,,,,,0,,,76,106
85195,note_on,115,0,1,,,,,,,,0,,,76,0
85200,note_on,5,0,1,,,,,,,,0,,,81,106
85315,note_on,115,0,1,,,,,,,,0,,,81,0
85320,note_on,5,0,1,,,,,,,,0,,,76,106
85365,note_on,405,0,6,,,,,,,,5,,,64,0
85405,note_on,445,0,4,,,,,,,,3,,,64,0
85405,note_on,0,0,6,,,,,,,,5,,,69,0
85405,note_on,445,0,2,,,,,,,,1,,,81,0
85405,note_on,445,0,3,,,,,,,,2,,,72,0
85405,note_on,445,0,5,,,,,,,,4,,,52,0
85405,note_on,40,0,6,,,,,,,,5,,,72,0
85405,note_on,0,0,6,,,,,,,,5,,,52,0
85435,note_on,115,0,1,,,,,,,,0,,,76,0
85440,note_on,35,0,4,,,,,,,,3,,,64,64
85440,note_on,35,0,3,,,,,,,,2,,,71,64
85440,note_on,35,0,5,,,,,,,,4,,,52,64
85440,note_on,0,0,6,,,,,,,,5,,,68,64
85440,note_on,0,0,6,,,,,,,,5,,,64,64
85440,note_on,0,0,6,,,,,,,,5,,,52,64
85440,note_on,35,0,2,,,,,,,,1,,,80,64
85440,note_on,5,0,1,,,,,,,,0,,,80,106
85440,note_on,35,0,6,,,,,,,,5,,,71,64
85555,note_on,115,0,1,,,,,,,,0,,,80,0
85560,note_on,5,0,1,,,,,,,,0,,,76,106
85675,note_on,115,0,1,,,,,,,,0,,,76,0
85680,note_on,5,0,1,,,,,,,,0,,,80,106
85795,note_on,115,0,1,,,,,,,,0,,,80,0
85800,note_on,5,0,1,,,,,,,,0,,,76,106
85885,note_on,445,0,3,,,,,,,,2,,,71,0
85885,note_on,445,0,6,,,,,,,,5,,,52,0
85885,note_on,0,0,6,,,,,,,,5,,,71,0
85885,note_on,0,0,6,,,,,,,,5,,,68,0
85885,note_on,445,0,4,,,,,,,,3,,,64,0
85885,note_on,445,0,5,,,,,,,,4,,,52,0
85885,note_on,445,0,2,,,,,,,,1,,,80,0
85885,note_on,0,0,6,,,,,,,,5,,,64,0
85915,note_on,115,0,1,,,,,,,,0,,,76,0
85920,note_on,0,0,6,,,,,,,,5,,,60,64
85920,note_on,0,0,6,,,,,,,,5,,,52,64
85920,note_on,5,0,1,,,,,,,,0,,,81,106
85920,note_on,35,0,3,,,,,,,,2,,,72,64
85920,note_on,35,0,5,,,,,,,,4,,,52,64
85920,note_on,35,0,2,,,,,,,,1,,,81,64
85920,note_on,35,0,6,,,,,,,,5,,,69,64
85920,note_on,35,0,4,,,,,,,,3,,,64,64
86035,note_on,115,0,1,,,,,,,,0,,,81,0
86040,note_on,5,0,1,,,,,,,,0,,,76,106
86155,note_on,115,0,1,,,,,,,,0,,,76,0
86160,note_on,5,0,1,,,,,,,,0,,,81,106
86275,note_on,115,0,1,,,,,,,,0,,,81,0
86280,note_on,5,0,1,,,,,,,,0,,,76,106
86365,note_on,0,0,6,,,,,,,,5,,,60,0
86365,note_on,445,0,6,,,,,,,,5,,,52,0
86365,note_on,445,0,2,,,,,,,,1,,,81,0
86365,note_on,0,0,6,,,,,,,,5,,,69,0
86365,note_on,445,0,4,,,,,,,,3,,,64,0
86365,note_on,445,0,5,,,,,,,,4,,,52,0
86365,note_on,445,0,3,,,,,,,,2,,,72,0
86395,note_on,115,0,1,,,,,,,,0,,,76,0
86400,note_on,35,0,5,,,,,,,,4,,,52,64
86400,note_on,35,0,3,,,,,,,,2,,,74,64
86400,note_on,35,0,2,,,,,,,,1,,,83,64
86400,note_on,35,0,4,,,,,,,,3,,,68,64
86400,note_on,5,0,1,,,,,,,,0,,,83,106
86400,note_on,0,0,6,,,,,,,,5,,,68,64
86400,note_on,0,0,6,,,,,,,,5,,,64,64
86400,note_on,0,0,6,,,,,,,,5,,,52,64
86400,note_on,35,0,6,,,,,,,,5,,,71,64
86515,note_on,115,0,1,,,,,,,,0,,,83,0
86520,note_on,5,0,1,,,,,,,,0,,,76,106
86635,note_on,115,0,1,,,,,,,,0,,,76,0
86640,note_on,5,0,1,,,,,,,,0,,,83,106
86755,note_on,115,0,1,,,,,,,,0,,,83,0
86760,note_on,5,0,1,,,,,,,,0,,,76,106
86845,note_on,445,0,6,,,,,,,,5,,,52,0
86845,note_on,0,0,6,,,,,,,,5,,,71,0
86845,note_on,0,0,6,,,,,,,,5,,,68,0
86845,note_on,445,0,2,,,,,,,,1,,,83,0
86845,note_on,445,0,3,,,,,,,,2,,,74,0
86845,note_on,445,0,5,,,,,,,,4,,,52,0
86845,note_on,445,0,4,,,,,,,,3,,,68,0
86875,note_on,115,0,1,,,,,,,,0,,,76,0
86880,note_on,0,0,6,,,,,,,,5,,,52,64
86880,note_on,0,0,6,,,,,,,,5,,,69,64
86880,note_on,35,0,6,,,,,,,,5,,,72,64
86880,note_on,35,0,5,,,,,,,,4,,,52,64
86880,note_on,35,0,4,,,,,,,,3,,,64,64
86880,note_on,5,0,1,,,,,,,,0,,,81,106
86880,note_on,35,0,2,,,,,,,,1,,,81,64
86880,note_on,35,0,3,,,,,,,,2,,,72,64
86995,note_on,115,0,1,,,,,,,,0,,,81,0
87000,note_on,5,0,1,,,,,,,,0,,,76,106
87115,note_on,115,0,1,,,,,,,,0,,,76,0
87120,note_on,5,0,1,,,,,,,,0,,,81,106
87235,note_on,115,0,1,,,,,,,,0,,,81,0
87240,note_on,5,0,1,,,,,,,,0,,,76,106
87285,note_on,405,0,6,,,,,,,,5,,,64,0
87325,note_on,40,0,6,,,,,,,,5,,,72,0
87325,note_on,445,0,3,,,,,,,,2,,,72,0
87325,note_on,445,0,5,,,,,,,,4,,,52,0
87325,note_on,445,0,2,,,,,,,,1,,,81,0
87325,note_on,0,0,6,,,,,,,,5,,,69,0
87325,note_on,445,0,4,,,,,,,,3,,,64,0
87325,note_on,0,0,6,,,,,,,,5,,,52,0
87355,note_on,115,0,1,,,,,,,,0,,,76,0
87360,note_on,35,0,2,,,,,,,,1,,,80,64
87360,note_on,35,0,4,,,,,,,,3,,,64,64
87360,note_on,5,0,1,,,,,,,,0,,,80,106
87360,note_on,35,0,5,,,,,,,,4,,,52,64
87360,note_on,0,0,6,,,,,,,,5,,,64,64
87360,note_on,0,0,6,,,,,,,,5,,,52,64
87360,note_on,0,0,6,,,,,,,,5,,,68,64
87360,note_on,35,0,6,,,,,,,,5,,,71,64
87360,note_on,35,0,3,,,,,,,,2,,,71,64
87475,note_on,115,0,1,,,,,,,,0,,,80,0
87480,note_on,5,0,1,,,,,,,,0,,,76,106
87595,note_on,115,0,1,,,,,,,,0,,,76,0
87600,note_on,5,0,1,,,,,,,,0,,,80,106
87715,note_on,115,0,1,,,,,,,,0,,,80,0
87720,note_on,5,0,1,,,,,,,,0,,,76,106
87805,note_on,445,0,2,,,,,,,,1,,,80,0
87805,note_on,445,0,4,,,,,,,,3,,,64,0
87805,note_on,445,0,6,,,,,,,,5,,,52,0
87805,note_on,0,0,6,,,,,,,,5,,,71,0
87805,note_on,0,0,6,,,,,,,,5,,,68,0
87805,note_on,0,0,6,,,,,,,,5,,,64,0
87805,note_on,445,0,3,,,,,,,,2,,,71,0
87805,note_on,445,0,5,,,,,,,,4,,,52,0
87835,note_on,115,0,1,,,,,,,,0,,,76,0
87840,note_on,35,0,2,,,,,,,,1,,,81,64
87840,note_on,35,0,4,,,,,,,,3,,,64,64
87840,note_on,0,0,6,,,,,,,,5,,,52,64
87840,note_on,0,0,6,,,,,,,,5,,,60,64
87840,note_on,35,0,5,,,,,,,,4,,,52,64
87840,note_on,35,0,3,,,,,,,,2,,,72,64
87840,note_on,35,0,6,,,,,,,,5,,,69,64
87840,note_on,5,0,1,,,,,,,,0,,,81,106
87955,note_on,115,0,1,,,,,,,,0,,,81,0
87960,note_on,5,0,1,,,,,,,,0,,,76,106
88075,note_on,115,0,1,,,,,,,,0,,,76,0
88080,note_on,5,0,1,,,,,,,,0,,,81,106
88195,note_on,115,0,1,,,,,,,,0,,,81,0
88200,note_on,5,0,1,,,,,,,,0,,,76,106
88285,note_on,0,0,6,,,,,,,,5,,,69,0
88285,note_on,445,0,2,,,,,,,,1,,,81,0
88285,note_on,445,0,5,,,,,,,,4,,,52,0
88285,note_on,445,0,4,,,,,,,,3,,,64,0
88285,note_on,445,0,6,,,,,,,,5,,,52,0
88285,note_on,445,0,3,,,,,,,,2,,,72,0
88285,note_on,0,0,6,,,,,,,,5,,,60,0
88315,note_on,115,0,1,,,,,,,,0,,,76,0
88320,note_on,35,0,6,,,,,,,,5,,,69,64
88320,note_on,0,0,6,,,,,,,,5,,,64,64
88320,note_on,0,0,6,,,,,,,,5,,,59,64
88320,note_on,0,0,6,,,,,,,,5,,,52,64
88320,note_on,35,0,5,,,,,,,,4,,,52,64
88320,note_on,35,0,3,,,,,,,,2,,,71,64
88320,note_on,35,0,4,,,,,,,,3,,,64,64
88320,note_on,35,0,2,,,,,,,,1,,,81,64
88320,note_on,5,0,1,,,,,,,,0,,,81,106
88435,note_on,115,0,1,,,,,,,,0,,,81,0
88440,note_on,5,0,1,,,,,,,,0,,,76,106
88555,note_on,115,0,1,,,,,,,,0,,,76,0
88560,note_on,5,0,1,,,,,,,,0,,,81,106
88675,note_on,115,0,1,,,,,,,,0,,,81,0
88680,note_on,5,0,1,,,,,,,,0,,,76,106
88765,note_on,445,0,3,,,,,,,,2,,,71,0
88765,note_on,445,0,4,,,,,,,,3,,,64,0
88765,note_on,0,0,6,,,,,,,,5,,,69,0
88765,note_on,445,0,2,,,,,,,,1,,,81,0
88765,note_on,445,0,6,,,,,,,,5,,,52,0
88765,note_on,445,0,5,,,,,,,,4,,,52,0
88795,note_on,115,0,1,,,,,,,,0,,,76,0
88800,note_on,35,0,4,,,,,,,,3,,,64,64
88800,note_on,35,0,2,,,,,,,,1,,,80,64
88800,note_on,5,0,1,,,,,,,,0,,,80,106
88800,note_on,0,0,6,,,,,,,,5,,,52,64
88800,note_on,35,0,6,,,,,,,,5,,,68,64
88800,note_on,35,0,3,,,,,,,,2,,,71,64
88800,note_on,35,0,5,,,,,,,,4,,,52,64
88915,note_on,115,0,1,,,,,,,,0,,,80,0
88920,note_on,5,0,1,,,,,,,,0,,,76,106
89035,note_on,115,0,1,,,,,,,,0,,,76,0
89040,note_on,5,0,1,,,,,,,,0,,,80,106
89155,note_on,115,0,1,,,,,,,,0,,,80,0
89160,note_on,5,0,1,,,,,,,,0,,,76,106
89205,note_on,405,0,6,,,,,,,,5,,,59,0
89205,note_on,0,0,6,,,,,,,,5,,,64,0
89245,note_on,445,0,2,,,,,,,,1,,,80,0
89245,note_on,445,0,4,,,,,,,,3,,,64,0
89245,note_on,0,0,6,,,,,,,,5,,,52,0
89245,note_on,445,0,5,,,,,,,,4,,,52,0
89245,note_on,40,0,6,,,,,,,,5,,,68,0
89245,note_on,445,0,3,,,,,,,,2,,,71,0
89275,note_on,115,0,1,,,,,,,,0,,,76,0
89280,note_on,35,0,2,,,,,,,,1,,,81,85
89280,note_on,5,0,1,,,,,,,,0,,,81,106
89280,note_on,35,0,5,,,,,,,,4,,,45,85
89280,note_on,35,0,4,,,,,,,,3,,,64,85
89280,note_on,35,0,6,,,,,,,,5,,,69,64
89280,note_on,0,0,6,,,,,,,,5,,,45,85
89280,note_on,0,0,6,,,,,,,,5,,,57,64
89280,note_on,0,0,6,,,,,,,,5,,,64,64
89280,note_on,35,0,3,,,,,,,,2,,,72,85
89395,note_on,115,0,5,,,,,,,,4,,,45,0
89395,note_on,115,0,6,,,,,,,,5,,,45,0
89395,note_on,115,0,3,,,,,,,,2,,,72,0
89395,note_on,115,0,4,,,,,,,,3,,,64,0
89395,note_on,115,0,2,,,,,,,,1,,,81,0
89400,note_on,5,0,5,,,,,,,,4,,,45,85
89400,note_on,5,0,3,,,,,,,,2,,,73,85
89400,note_on,5,0,2,,,,,,,,1,,,81,85
89400,note_on,5,0,6,,,,,,,,5,,,45,85
89400,note_on,5,0,4,,,,,,,,3,,,64,85
89515,note_on,115,0,6,,,,,,,,5,,,45,0
89515,note_on,115,0,4,,,,,,,,3,,,64,0
89515,note_on,115,0,2,,,,,,,,1,,,81,0
89515,note_on,115,0,3,,,,,,,,2,,,73,0
89515,note_on,115,0,5,,,,,,,,4,,,45,0
89520,note_on,5,0,6,,,,,,,,5,,,45,85
89520,note_on,5,0,2,,,,,,,,1,,,81,85
89520,note_on,5,0,4,,,,,,,,3,,,64,85
89520,note_on,5,0,5,,,,,,,,4,,,45,85
89520,note_on,5,0,3,,,,,,,,2,,,73,85
89635,note_on,115,0,3,,,,,,,,2,,,73,0
89635,note_on,115,0,6,,,,,,,,5,,,45,0
89635,note_on,115,0,4,,,,,,,,3,,,64,0
89635,note_on,115,0,5,,,,,,,,4,,,45,0
89635,note_on,115,0,2,,,,,,,,1,,,81,0
89640,note_on,5,0,5,,,,,,,,4,,,45,85
89640,note_on,5,0,3,,,,,,,,2,,,73,85
89640,note_on,5,0,6,,,,,,,,5,,,45,85
89640,note_on,5,0,2,,,,,,,,1,,,81,85
89640,note_on,5,0,4,,,,,,,,3,,,64,85
89725,note_on,445,0,1,,,,,,,,0,,,81,0
89755,note_on,115,0,2,,,,,,,,1,,,81,0
89755,note_on,115,0,3,,,,,,,,2,,,73,0
89755,note_on,115,0,6,,,,,,,,5,,,45,0
89755,note_on,115,0,5,,,,,,,,4,,,45,0
89755,note_on,115,0,4,,,,,,,,3,,,64,0
89760,note_on,5,0,3,,,,,,,,2,,,73,85
89760,note_on,5,0,4,,,,,,,,3,,,64,85
89760,note_on,5,0,2,,,,,,,,1,,,81,85
89760,note_on,5,0,5,,,,,,,,4,,,45,85
89760,note_on,5,0,6,,,,,,,,5,,,45,85
89875,note_on,115,0,5,,,,,,,,4,,,45,0
89875,note_on,115,0,6,,,,,,,,5,,,45,0
89875,note_on,115,0,3,,,,,,,,2,,,73,0
89875,note_on,115,0,4,,,,,,,,3,,,64,0
89875,note_on,115,0,2,,,,,,,,1,,,81,0
89880,note_on,5,0,4,,,,,,,,3,,,64,85
89880,note_on,5,0,3,,,,,,,,2,,,73,85
89880,note_on,5,0,5,,,,,,,,4,,,45,85
89880,note_on,5,0,6,,,,,,,,5,,,45,85
89880,note_on,5,0,2,,,,,,,,1,,,81,85
89995,note_on,115,0,2,,,,,,,,1,,,81,0
89995,note_on,115,0,6,,,,,,,,5,,,45,0
89995,note_on,115,0,4,,,,,,,,3,,,64,0
89995,note_on,115,0,3,,,,,,,,2,,,73,0
89995,note_on,115,0,5,,,,,,,,4,,,45,0
90000,note_on,5,0,6,,,,,,,,5,,,45,85
90000,note_on,5,0,4,,,,,,,,3,,,64,85
90000,note_on,5,0,3,,,,,,,,2,,,73,85
90000,note_on,5,0,2,,,,,,,,1,,,81,85
90000,note_on,5,0,5,,,,,,,,4,,,45,85
90115,note_on,115,0,3,,,,,,,,2,,,73,0
90115,note_on,115,0,5,,,,,,,,4,,,45,0
90115,note_on,115,0,6,,,,,,,,5,,,45,0
90115,note_on,115,0,4,,,,,,,,3,,,64,0
90115,note_on,115,0,2,,,,,,,,1,,,81,0
90120,note_on,5,0,4,,,,,,,,3,,,61,85
90120,note_on,5,0,5,,,,,,,,4,,,45,85
90120,note_on,5,0,3,,,,,,,,2,,,73,85
90120,note_on,5,0,2,,,,,,,,1,,,79,85
90120,note_on,5,0,6,,,,,,,,5,,,45,85
90165,note_on,0,0,6,,,,,,,,5,,,57,0
90165,note_on,45,0,6,,,,,,,,5,,,69,0
90165,note_on,0,0,6,,,,,,,,5,,,64,0
90235,note_on,115,0,4,,,,,,,,3,,,61,0
90235,note_on,115,0,5,,,,,,,,4,,,45,0
90235,note_on,115,0,3,,,,,,,,2,,,73,0
90235,note_on,115,0,2,,,,,,,,1,,,79,0
90235,note_on,70,0,6,,,,,,,,5,,,45,0
90240,note_on,5,0,5,,,,,,,,4,,,50,85
90240,note_on,5,0,4,,,,,,,,3,,,57,85
90240,note_on,0,0,6,,,,,,,,5,,,62,64
90240,note_on,0,0,6,,,,,,,,5,,,66,64
90240,note_on,5,0,6,,,,,,,,5,,,69,64
90240,note_on,5,0,3,,,,,,,,2,,,72,85
90240,note_on,5,0,2,,,,,,,,1,,,78,85
90240,note_on,0,0,6,,,,,,,,5,,,50,85
90355,note_on,115,0,6,,,,,,,,5,,,50,0
90355,note_on,115,0,2,,,,,,,,1,,,78,0
90355,note_on,115,0,4,,,,,,,,3,,,57,0
90355,note_on,115,0,5,,,,,,,,4,,,50,0
90355,note_on,115,0,3,,,,,,,,2,,,72,0
90360,note_on,5,0,3,,,,,,,,2,,,72,85
90360,note_on,5,0,2,,,,,,,,1,,,78,85
90360,note_on,5,0,6,,,,,,,,5,,,50,85
90360,note_on,5,0,5,,,,,,,,4,,,50,85
90360,note_on,5,0,4,,,,,,,,3,,,69,85
90475,note_on,115,0,5,,,,,,,,4,,,50,0
90475,note_on,115,0,4,,,,,,,,3,,,69,0
90475,note_on,115,0,6,,,,,,,,5,,,50,0
90475,note_on,115,0,3,,,,,,,,2,,,72,0
90475,note_on,115,0,2,,,,,,,,1,,,78,0
90480,note_on,5,0,5,,,,,,,,4,,,50,85
90480,note_on,5,0,4,,,,,,,,3,,,69,85
90480,note_on,5,0,6,,,,,,,,5,,,50,85
90480,note_on,5,0,3,,,,,,,,2,,,72,85
90480,note_on,5,0,2,,,,,,,,1,,,78,85
90595,note_on,115,0,3,,,,,,,,2,,,72,0
90595,note_on,115,0,5,,,,,,,,4,,,50,0
90595,note_on,115,0,6,,,,,,,,5,,,50,0
90595,note_on,115,0,4,,,,,,,,3,,,69,0
90595,note_on,115,0,2,,,,,,,,1,,,78,0
90600,note_on,5,0,5,,,,,,,,4,,,50,85
90600,note_on,5,0,2,,,,,,,,1,,,78,85
90600,note_on,5,0,6,,,,,,,,5,,,50,85
90600,note_on,5,0,4,,,,,,,,3,,,69,85
90600,note_on,5,0,3,,,,,,,,2,,,72,85
90685,note_on,85,0,6,,,,,,,,5,,,69,0
90715,note_on,115,0,4,,,,,,,,3,,,69,0
90715,note_on,115,0,5,,,,,,,,4,,,50,0
90715,note_on,115,0,3,,,,,,,,2,,,72,0
90715,note_on,115,0,2,,,,,,,,1,,,78,0
90715,note_on,30,0,6,,,,,,,,5,,,50,0
90720,note_on,5,0,2,,,,,,,,1,,,78,85
90720,note_on,5,0,5,,,,,,,,4,,,50,85
90720,note_on,0,0,6,,,,,,,,5,,,50,85
90720,note_on,5,0,6,,,,,,,,5,,,72,64
90720,note_on,5,0,4,,,,,,,,3,,,69,85
90720,note_on,5,0,3,,,,,,,,2,,,72,85
90835,note_on,115,0,3,,,,,,,,2,,,72,0
90835,note_on,115,0,2,,,,,,,,1,,,78,0
90835,note_on,115,0,6,,,,,,,,5,,,50,0
90835,note_on,115,0,4,,,,,,,,3,,,69,0
90835,note_on,115,0,5,,,,,,,,4,,,50,0
90840,note_on,5,0,6,,,,,,,,5,,,50,85
90840,note_on,5,0,4,,,,,,,,3,,,69,85
90840,note_on,5,0,3,,,,,,,,2,,,72,85
90840,note_on,5,0,5,,,,,,,,4,,,50,85
90840,note_on,5,0,2,,,,,,,,1,,,78,85
90955,note_on,115,0,5,,,,,,,,4,,,50,0
90955,note_on,115,0,4,,,,,,,,3,,,69,0
90955,note_on,115,0,2,,,,,,,,1,,,78,0
90955,note_on,115,0,3,,,,,,,,2,,,72,0
90955,note_on,115,0,6,,,,,,,,5,,,50,0
90960,note_on,5,0,6,,,,,,,,5,,,50,85
90960,note_on,5,0,4,,,,,,,,3,,,69,85
90960,note_on,5,0,3,,,,,,,,2,,,72,85
90960,note_on,5,0,5,,,,,,,,4,,,50,85
90960,note_on,5,0,2,,,,,,,,1,,,78,85
91075,note_on,115,0,6,,,,,,,,5,,,50,0
91075,note_on,115,0,5,,,,,,,,4,,,50,0
91075,note_on,115,0,2,,,,,,,,1,,,78,0
91075,note_on,115,0,4,,,,,,,,3,,,69,0
91075,note_on,115,0,3,,,,,,,,2,,,72,0
91080,note_on,5,0,6,,,,,,,,5,,,50,85
91080,note_on,5,0,2,,,,,,,,1,,,78,85
91080,note_on,5,0,5,,,,,,,,4,,,50,85
91080,note_on,5,0,4,,,,,,,,3,,,66,85
91080,note_on,5,0,3,,,,,,,,2,,,72,85
91125,note_on,45,0,6,,,,,,,,5,,,66,0
91125,note_on,0,0,6,,,,,,,,5,,,62,0
91165,note_on,40,0,6,,,,,,,,5,,,72,0
91195,note_on,115,0,2,,,,,,,,1,,,78,0
91195,note_on,115,0,5,,,,,,,,4,,,50,0
91195,note_on,115,0,4,,,,,,,,3,,,66,0
91195,note_on,30,0,6,,,,,,,,5,,,50,0
91195,note_on,115,0,3,,,,,,,,2,,,72,0
91200,note_on,0,0,6,,,,,,,,5,,,55,85
91200,note_on,5,0,2,,,,,,,,1,,,79,85
91200,note_on,5,0,6,,,,,,,,5,,,71,64
91200,note_on,5,0,4,,,,,,,,3,,,62,85
91200,note_on,5,0,3,,,,,,,,2,,,71,85
91200,note_on,0,0,6,,,,,,,,5,,,67,64
91200,note_on,0,0,6,,,,,,,,5,,,62,64
91200,note_on,5,0,5,,,,,,,,4,,,55,85
91315,note_on,115,0,6,,,,,,,,5,,,55,0
91315,note_on,115,0,4,,,,,,,,3,,,62,0
91315,note_on,115,0,3,,,,,,,,2,,,71,0
91315,note_on,115,0,5,,,,,,,,4,,,55,0
91315,note_on,115,0,2,,,,,,,,1,,,79,0
91320,note_on,5,0,3,,,,,,,,2,,,71,85
91320,note_on,5,0,4,,,,,,,,3,,,62,85
91320,note_on,5,0,5,,,,,,,,4,,,55,85
91320,note_on,5,0,2,,,,,,,,1,,,79,85
91320,note_on,5,0,6,,,,,,,,5,,,55,85
91435,note_on,115,0,3,,,,,,,,2,,,71,0
91435,note_on,115,0,4,,,,,,,,3,,,62,0
91435,note_on,115,0,5,,,,,,,,4,,,55,0
91435,note_on,115,0,2,,,,,,,,1,,,79,0
91435,note_on,115,0,6,,,,,,,,5,,,55,0
91440,note_on,5,0,4,,,,,,,,3,,,62,85
91440,note_on,5,0,5,,,,,,,,4,,,55,85
91440,note_on,5,0,6,,,,,,,,5,,,55,85
91440,note_on,5,0,2,,,,,,,,1,,,79,85
91440,note_on,5,0,3,,,,,,,,2,,,71,85
91555,note_on,115,0,4,,,,,,,,3,,,62,0
91555,note_on,115,0,5,,,,,,,,4,,,55,0
91555,note_on,115,0,6,,,,,,,,5,,,55,0
91555,note_on,115,0,2,,,,,,,,1,,,79,0
91555,note_on,115,0,3,,,,,,,,2,,,71,0
91560,note_on,5,0,3,,,,,,,,2,,,71,85
91560,note_on,5,0,5,,,,,,,,4,,,55,85
91560,note_on,5,0,6,,,,,,,,5,,,55,85
91560,note_on,5,0,2,,,,,,,,1,,,79,85
91560,note_on,5,0,4,,,,,,,,3,,,62,85
91675,note_on,115,0,2,,,,,,,,1,,,79,0
91675,note_on,115,0,6,,,,,,,,5,,,55,0
91675,note_on,115,0,4,,,,,,,,3,,,62,0
91675,note_on,115,0,3,,,,,,,,2,,,71,0
91675,note_on,115,0,5,,,,,,,,4,,,55,0
91680,note_on,5,0,6,,,,,,,,5,,,55,85
91680,note_on,5,0,2,,,,,,,,1,,,79,85
91680,note_on,5,0,5,,,,,,,,4,,,55,85
91680,note_on,5,0,4,,,,,,,,3,,,62,85
91680,note_on,5,0,3,,,,,,,,2,,,71,85
91795,note_on,115,0,4,,,,,,,,3,,,62,0
91795,note_on,115,0,6,,,,,,,,5,,,55,0
91795,note_on,115,0,3,,,,,,,,2,,,71,0
91795,note_on,115,0,5,,,,,,,,4,,,55,0
91795,note_on,115,0,2,,,,,,,,1,,,79,0
91800,note_on,5,0,4,,,,,,,,3,,,62,85
91800,note_on,5,0,5,,,,,,,,4,,,55,85
91800,note_on,5,0,2,,,,,,,,1,,,79,85
91800,note_on,5,0,3,,,,,,,,2,,,71,85
91800,note_on,5,0,6,,,,,,,,5,,,55,85
91915,note_on,115,0,3,,,,,,,,2,,,71,0
91915,note_on,115,0,2,,,,,,,,1,,,79,0
91915,note_on,115,0,6,,,,,,,,5,,,55,0
91915,note_on,115,0,5,,,,,,,,4,,,55,0
91915,note_on,115,0,4,,,,,,,,3,,,62,0
91920,note_on,5,0,2,,,,,,,,1,,,79,85
91920,note_on,5,0,6,,,,,,,,5,,,55,85
91920,note_on,5,0,5,,,,,,,,4,,,55,85
91920,note_on,5,0,3,,,,,,,,2,,,71,85
91920,note_on,5,0,4,,,,,,,,3,,,62,85
92035,note_on,115,0,2,,,,,,,,1,,,79,0
92035,note_on,115,0,6,,,,,,,,5,,,55,0
92035,note_on,115,0,3,,,,,,,,2,,,71,0
92035,note_on,115,0,4,,,,,,,,3,,,62,0
92035,note_on,115,0,5,,,,,,,,4,,,55,0
92040,note_on,5,0,6,,,,,,,,5,,,55,85
92040,note_on,5,0,4,,,,,,,,3,,,59,85
92040,note_on,5,0,5,,,,,,,,4,,,55,85
92040,note_on,5,0,3,,,,,,,,2,,,71,85
92040,note_on,5,0,2,,,,,,,,1,,,77,85
92085,note_on,0,0,6,,,,,,,,5,,,67,0
92085,note_on,45,0,6,,,,,,,,5,,,71,0
92085,note_on,0,0,6,,,,,,,,5,,,62,0
92155,note_on,115,0,3,,,,,,,,2,,,71,0
92155,note_on,115,0,5,,,,,,,,4,,,55,0
92155,note_on,115,0,4,,,,,,,,3,,,59,0
92155,note_on,70,0,6,,,,,,,,5,,,55,0
92155,note_on,115,0,2,,,,,,,,1,,,77,0
92160,note_on,5,0,6,,,,,,,,5,,,70,64
92160,note_on,5,0,2,,,,,,,,1,,,76,85
92160,note_on,5,0,3,,,,,,,,2,,,70,85
92160,note_on,5,0,5,,,,,,,,4,,,48,85
92160,note_on,5,0,4,,,,,,,,3,,,55,85
92160,note_on,0,0,6,,,,,,,,5,,,48,85
92160,note_on,0,0,6,,,,,,,,5,,,67,64
92160,note_on,0,0,6,,,,,,,,5,,,64,64
92275,note_on,115,0,3,,,,,,,,2,,,70,0
92275,note_on,115,0,6,,,,,,,,5,,,48,0
92275,note_on,115,0,2,,,,,,,,1,,,76,0
92275,note_on,115,0,4,,,,,,,,3,,,55,0
92275,note_on,115,0,5,,,,,,,,4,,,48,0
92280,note_on,5,0,3,,,,,,,,2,,,70,85
92280,note_on,5,0,2,,,,,,,,1,,,76,85
92280,note_on,5,0,5,,,,,,,,4,,,48,85
92280,note_on,5,0,4,,,,,,,,3,,,67,85
92280,note_on,5,0,6,,,,,,,,5,,,48,85
92395,note_on,115,0,4,,,,,,,,3,,,67,0
92395,note_on,115,0,5,,,,,,,,4,,,48,0
92395,note_on,115,0,6,,,,,,,,5,,,48,0
92395,note_on,115,0,2,,,,,,,,1,,,76,0
92395,note_on,115,0,3,,,,,,,,2,,,70,0
92400,note_on,5,0,2,,,,,,,,1,,,76,85
92400,note_on,5,0,4,,,,,,,,3,,,67,85
92400,note_on,5,0,3,,,,,,,,2,,,70,85
92400,note_on,5,0,5,,,,,,,,4,,,48,85
92400,note_on,5,0,6,,,,,,,,5,,,48,85
92515,note_on,115,0,6,,,,,,,,5,,,48,0
92515,note_on,115,0,4,,,,,,,,3,,,67,0
92515,note_on,115,0,5,,,,,,,,4,,,48,0
92515,note_on,115,0,3,,,,,,,,2,,,70,0
92515,note_on,115,0,2,,,,,,,,1,,,76,0
92520,note_on,5,0,3,,,,,,,,2,,,70,85
92520,note_on,5,0,5,,,,,,,,4,,,48,85
92520,note_on,5,0,4,,,,,,,,3,,,67,85
92520,note_on,5,0,2,,,,,,,,1,,,76,85
92520,note_on,5,0,6,,,,,,,,5,,,48,85
92635,note_on,115,0,3,,,,,,,,2,,,70,0
92635,note_on,115,0,5,,,,,,,,4,,,48,0
92635,note_on,115,0,6,,,,,,,,5,,,48,0
92635,note_on,115,0,4,,,,,,,,3,,,67,0
92635,note_on,115,0,2,,,,,,,,1,,,76,0
92640,note_on,5,0,4,,,,,,,,3,,,67,85
92640,note_on,5,0,3,,,,,,,,2,,,70,85
92640,note_on,5,0,5,,,,,,,,4,,,48,85
92640,note_on,5,0,2,,,,,,,,1,,,76,85
92640,note_on,5,0,6,,,,,,,,5,,,48,85
92755,note_on,115,0,6,,,,,,,,5,,,48,0
92755,note_on,115,0,4,,,,,,,,3,,,67,0
92755,note_on,115,0,3,,,,,,,,2,,,70,0
92755,note_on,115,0,2,,,,,,,,1,,,76,0
92755,note_on,115,0,5,,,,,,,,4,,,48,0
92760,note_on,5,0,4,,,,,,,,3,,,67,85
92760,note_on,5,0,6,,,,,,,,5,,,48,85
92760,note_on,5,0,5,,,,,,,,4,,,48,85
92760,note_on,5,0,3,,,,,,,,2,,,70,85
92760,note_on,5,0,2,,,,,,,,1,,,76,85
92875,note_on,115,0,5,,,,,,,,4,,,48,0
92875,note_on,115,0,2,,,,,,,,1,,,76,0
92875,note_on,115,0,6,,,,,,,,5,,,48,0
92875,note_on,115,0,4,,,,,,,,3,,,67,0
92875,note_on,115,0,3,,,,,,,,2,,,70,0
92880,note_on,5,0,2,,,,,,,,1,,,76,85
92880,note_on,5,0,4,,,,,,,,3,,,67,85
92880,note_on,5,0,5,,,,,,,,4,,,48,85
92880,note_on,5,0,3,,,,,,,,2,,,70,85
92880,note_on,5,0,6,,,,,,,,5,,,48,85
92995,note_on,115,0,2,,,,,,,,1,,,76,0
92995,note_on,115,0,4,,,,,,,,3,,,67,0
92995,note_on,115,0,3,,,,,,,,2,,,70,0
92995,note_on,115,0,5,,,,,,,,4,,,48,0
92995,note_on,115,0,6,,,,,,,,5,,,48,0
93000,note_on,5,0,2,,,,,,,,1,,,76,85
93000,note_on,5,0,3,,,,,,,,2,,,70,85
93000,note_on,5,0,5,,,,,,,,4,,,48,85
93000,note_on,5,0,4,,,,,,,,3,,,64,85
93000,note_on,5,0,6,,,,,,,,5,,,48,85
93045,note_on,0,0,6,,,,,,,,5,,,64,0
93045,note_on,45,0,6,,,,,,,,5,,,70,0
93045,note_on,0,0,6,,,,,,,,5,,,67,0
93115,note_on,115,0,2,,,,,,,,1,,,76,0
93115,note_on,115,0,5,,,,,,,,4,,,48,0
93115,note_on,70,0,6,,,,,,,,5,,,48,0
93115,note_on,115,0,4,,,,,,,,3,,,64,0
93115,note_on,115,0,3,,,,,,,,2,,,70,0
93120,note_on,5,0,2,,,,,,,,1,,,77,85
93120,note_on,5,0,6,,,,,,,,5,,,69,64
93120,note_on,5,0,3,,,,,,,,2,,,69,85
93120,note_on,0,0,6,,,,,,,,5,,,53,85
93120,note_on,0,0,6,,,,,,,,5,,,60,64
93120,note_on,0,0,6,,,,,,,,5,,,65,64
93120,note_on,5,0,5,,,,,,,,4,,,53,85
93120,note_on,5,0,4,,,,,,,,3,,,60,85
93235,note_on,115,0,4,,,,,,,,3,,,60,0
93235,note_on,115,0,5,,,,,,,,4,,,53,0
93235,note_on,115,0,6,,,,,,,,5,,,53,0
93235,note_on,115,0,2,,,,,,,,1,,,77,0
93235,note_on,115,0,3,,,,,,,,2,,,69,0
93240,note_on,5,0,5,,,,,,,,4,,,53,85
93240,note_on,5,0,4,,,,,,,,3,,,60,85
93240,note_on,5,0,6,,,,,,,,5,,,53,85
93240,note_on,5,0,3,,,,,,,,2,,,69,85
93240,note_on,5,0,2,,,,,,,,1,,,77,85
93355,note_on,115,0,3,,,,,,,,2,,,69,0
93355,note_on,115,0,2,,,,,,,,1,,,77,0
93355,note_on,115,0,5,,,,,,,,4,,,53,0
93355,note_on,115,0,4,,,,,,,,3,,,60,0
93355,note_on,115,0,6,,,,,,,,5,,,53,0
93360,note_on,5,0,3,,,,,,,,2,,,69,85
93360,note_on,5,0,2,,,,,,,,1,,,77,85
93360,note_on,5,0,4,,,,,,,,3,,,60,85
93360,note_on,5,0,5,,,,,,,,4,,,53,85
93360,note_on,5,0,6,,,,,,,,5,,,53,85
93475,note_on,115,0,3,,,,,,,,2,,,69,0
93475,note_on,115,0,4,,,,,,,,3,,,60,0
93475,note_on,115,0,2,,,,,,,,1,,,77,0
93475,note_on,115,0,6,,,,,,,,5,,,53,0
93475,note_on,115,0,5,,,,,,,,4,,,53,0
93480,note_on,5,0,2,,,,,,,,1,,,77,85
93480,note_on,5,0,6,,,,,,,,5,,,53,85
93480,note_on,5,0,4,,,,,,,,3,,,60,85
93480,note_on,5,0,3,,,,,,,,2,,,69,85
93480,note_on,5,0,5,,,,,,,,4,,,53,85
93595,note_on,115,0,4,,,,,,,,3,,,60,0
93595,note_on,115,0,2,,,,,,,,1,,,77,0
93595,note_on,115,0,3,,,,,,,,2,,,69,0
93595,note_on,115,0,6,,,,,,,,5,,,53,0
93595,note_on,115,0,5,,,,,,,,4,,,53,0
93600,note_on,5,0,6,,,,,,,,5,,,53,85
93600,note_on,5,0,5,,,,,,,,4,,,53,85
93600,note_on,5,0,2,,,,,,,,1,,,77,85
93600,note_on,5,0,4,,,,,,,,3,,,60,85
93600,note_on,5,0,3,,,,,,,,2,,,69,85
93715,note_on,115,0,6,,,,,,,,5,,,53,0
93715,note_on,115,0,4,,,,,,,,3,,,60,0
93715,note_on,115,0,2,,,,,,,,1,,,77,0
93715,note_on,115,0,3,,,,,,,,2,,,69,0
93715,note_on,115,0,5,,,,,,,,4,,,53,0
93720,note_on,5,0,2,,,,,,,,1,,,77,85
93720,note_on,5,0,5,,,,,,,,4,,,53,85
93720,note_on,5,0,3,,,,,,,,2,,,69,85
93720,note_on,5,0,6,,,,,,,,5,,,53,85
93720,note_on,5,0,4,,,,,,,,3,,,60,85
93835,note_on,115,0,3,,,,,,,,2,,,69,0
93835,note_on,115,0,5,,,,,,,,4,,,53,0
93835,note_on,115,0,6,,,,,,,,5,,,53,0
93835,note_on,115,0,4,,,,,,,,3,,,60,0
93835,note_on,115,0,2,,,,,,,,1,,,77,0
93840,note_on,5,0,2,,,,,,,,1,,,77,85
93840,note_on,5,0,3,,,,,,,,2,,,69,85
93840,note_on,5,0,5,,,,,,,,4,,,53,85
93840,note_on,5,0,4,,,,,,,,3,,,60,85
93840,note_on,5,0,6,,,,,,,,5,,,53,85
93955,note_on,115,0,6,,,,,,,,5,,,53,0
93955,note_on,115,0,2,,,,,,,,1,,,77,0
93955,note_on,115,0,3,,,,,,,,2,,,69,0
93955,note_on,115,0,4,,,,,,,,3,,,60,0
93955,note_on,115,0,5,,,,,,,,4,,,53,0
93960,note_on,5,0,3,,,,,,,,2,,,69,85
93960,note_on,5,0,6,,,,,,,,5,,,53,85
93960,note_on,5,0,2,,,,,,,,1,,,76,85
93960,note_on,5,0,5,,,,,,,,4,,,53,85
93960,note_on,5,0,4,,,,,,,,3,,,57,85
94005,note_on,45,0,6,,,,,,,,5,,,69,0
94005,note_on,0,0,6,,,,,,,,5,,,60,0
94005,note_on,0,0,6,,,,,,,,5,,,65,0
94075,note_on,115,0,5,,,,,,,,4,,,53,0
94075,note_on,115,0,2,,,,,,,,1,,,76,0
94075,note_on,115,0,4,,,,,,,,3,,,57,0
94075,note_on,70,0,6,,,,,,,,5,,,53,0
94075,note_on,115,0,3,,,,,,,,2,,,69,0
94080,note_on,5,0,3,,,,,,,,2,,,69,85
94080,note_on,5,0,4,,,,,,,,3,,,53,85
94080,note_on,5,0,5,,,,,,,,4,,,47,85
94080,note_on,0,0,6,,,,,,,,5,,,62,64
94080,note_on,5,0,2,,,,,,,,1,,,74,85
94080,note_on,0,0,6,,,,,,,,5,,,47,85
94080,note_on,0,0,6,,,,,,,,5,,,65,64
94080,note_on,5,0,6,,,,,,,,5,,,69,64
94195,note_on,115,0,2,,,,,,,,1,,,74,0
94195,note_on,115,0,5,,,,,,,,4,,,47,0
94195,note_on,115,0,6,,,,,,,,5,,,47,0
94195,note_on,115,0,3,,,,,,,,2,,,69,0
94195,note_on,115,0,4,,,,,,,,3,,,53,0
94200,note_on,5,0,6,,,,,,,,5,,,47,85
94200,note_on,5,0,5,,,,,,,,4,,,47,85
94200,note_on,5,0,3,,,,,,,,2,,,69,85
94200,note_on,5,0,4,,,,,,,,3,,,65,85
94200,note_on,5,0,2,,,,,,,,1,,,74,85
94315,note_on,115,0,2,,,,,,,,1,,,74,0
94315,note_on,115,0,5,,,,,,,,4,,,47,0
94315,note_on,115,0,6,,,,,,,,5,,,47,0
94315,note_on,115,0,3,,,,,,,,2,,,69,0
94315,note_on,115,0,4,,,,,,,,3,,,65,0
94320,note_on,5,0,6,,,,,,,,5,,,47,85
94320,note_on,5,0,3,,,,,,,,2,,,69,85
94320,note_on,5,0,4,,,,,,,,3,,,65,85
94320,note_on,5,0,5,,,,,,,,4,,,47,85
94320,note_on,5,0,2,,,,,,,,1,,,74,85
94435,note_on,115,0,6,,,,,,,,5,,,47,0
94435,note_on,115,0,4,,,,,,,,3,,,65,0
94435,note_on,115,0,5,,,,,,,,4,,,47,0
94435,note_on,115,0,2,,,,,,,,1,,,74,0
94435,note_on,115,0,3,,,,,,,,2,,,69,0
94440,note_on,5,0,4,,,,,,,,3,,,65,85
94440,note_on,5,0,2,,,,,,,,1,,,74,85
94440,note_on,5,0,6,,,,,,,,5,,,47,85
94440,note_on,5,0,5,,,,,,,,4,,,47,85
94440,note_on,5,0,3,,,,,,,,2,,,69,85
94555,note_on,115,0,5,,,,,,,,4,,,47,0
94555,note_on,115,0,2,,,,,,,,1,,,74,0
94555,note_on,115,0,6,,,,,,,,5,,,47,0
94555,note_on,115,0,4,,,,,,,,3,,,65,0
94555,note_on,115,0,3,,,,,,,,2,,,69,0
94560,note_on,5,0,3,,,,,,,,2,,,69,85
94560,note_on,5,0,6,,,,,,,,5,,,47,85
94560,note_on,5,0,5,,,,,,,,4,,,47,85
94560,note_on,5,0,2,,,,,,,,1,,,74,85
94560,note_on,5,0,4,,,,,,,,3,,,65,85
94675,note_on,115,0,6,,,,,,,,5,,,47,0
94675,note_on,115,0,2,,,,,,,,1,,,74,0
94675,note_on,115,0,3,,,,,,,,2,,,69,0
94675,note_on,115,0,4,,,,,,,,3,,,65,0
94675,note_on,115,0,5,,,,,,,,4,,,47,0
94680,note_on,5,0,3,,,,,,,,2,,,69,85
94680,note_on,5,0,6,,,,,,,,5,,,47,85
94680,note_on,5,0,4,,,,,,,,3,,,65,85
94680,note_on,5,0,5,,,,,,,,4,,,47,85
94680,note_on,5,0,2,,,,,,,,1,,,74,85
94795,note_on,115,0,3,,,,,,,,2,,,69,0
94795,note_on,115,0,5,,,,,,,,4,,,47,0
94795,note_on,115,0,2,,,,,,,,1,,,74,0
94795,note_on,115,0,4,,,,,,,,3,,,65,0
94795,note_on,115,0,6,,,,,,,,5,,,47,0
94800,note_on,5,0,6,,,,,,,,5,,,47,85
94800,note_on,5,0,5,,,,,,,,4,,,47,85
94800,note_on,5,0,2,,,,,,,,1,,,74,85
94800,note_on,5,0,4,,,,,,,,3,,,65,85
94800,note_on,5,0,3,,,,,,,,2,,,69,85
94915,note_on,115,0,2,,,,,,,,1,,,74,0
94915,note_on,115,0,4,,,,,,,,3,,,65,0
94915,note_on,115,0,5,,,,,,,,4,,,47,0
94915,note_on,115,0,3,,,,,,,,2,,,69,0
94915,note_on,115,0,6,,,,,,,,5,,,47,0
94920,note_on,5,0,4,,,,,,,,3,,,62,85
94920,note_on,5,0,2,,,,,,,,1,,,74,85
94920,note_on,5,0,3,,,,,,,,2,,,69,85
94920,note_on,5,0,5,,,,,,,,4,,,47,85
94920,note_on,5,0,6,,,,,,,,5,,,47,85
94965,note_on,45,0,6,,,,,,,,5,,,69,0
94965,note_on,0,0,6,,,,,,,,5,,,62,0
94965,note_on,0,0,6,,,,,,,,5,,,65,0
95035,note_on,115,0,5,,,,,,,,4,,,47,0
95035,note_on,70,0,6,,,,,,,,5,,,47,0
95035,note_on,115,0,4,,,,,,,,3,,,62,0
95035,note_on,115,0,3,,,,,,,,2,,,69,0
95035,note_on,115,0,2,,,,,,,,1,,,74,0
95040,note_on,5,0,6,,,,,,,,5,,,68,64
95040,note_on,5,0,4,,,,,,,,3,,,59,85
95040,note_on,5,0,3,,,,,,,,2,,,68,85
95040,note_on,5,0,2,,,,,,,,1,,,76,85
95040,note_on,5,0,5,,,,,,,,4,,,52,85
95040,note_on,0,0,6,,,,,,,,5,,,64,64
95040,note_on,0,0,6,,,,,,,,5,,,59,64
95040,note_on,0,0,6,,,,,,,,5,,,52,85
95155,note_on,115,0,5,,,,,,,,4,,,52,0
95155,note_on,115,0,4,,,,,,,,3,,,59,0
95155,note_on,115,0,3,,,,,,,,2,,,68,0
95155,note_on,115,0,6,,,,,,,,5,,,52,0
95155,note_on,115,0,2,,,,,,,,1,,,76,0
95160,note_on,5,0,3,,,,,,,,2,,,68,85
95160,note_on,5,0,4,,,,,,,,3,,,59,85
95160,note_on,5,0,2,,,,,,,,1,,,76,85
95160,note_on,5,0,5,,,,,,,,4,,,52,85
95160,note_on,5,0,6,,,,,,,,5,,,52,85
95275,note_on,115,0,5,,,,,,,,4,,,52,0
95275,note_on,115,0,3,,,,,,,,2,,,68,0
95275,note_on,115,0,2,,,,,,,,1,,,76,0
95275,note_on,115,0,6,,,,,,,,5,,,52,0
95275,note_on,115,0,4,,,,,,,,3,,,59,0
95280,note_on,5,0,2,,,,,,,,1,,,76,85
95280,note_on,5,0,4,,,,,,,,3,,,59,85
95280,note_on,5,0,6,,,,,,,,5,,,52,85
95280,note_on,5,0,5,,,,,,,,4,,,52,85
95280,note_on,5,0,3,,,,,,,,2,,,68,85
95395,note_on,115,0,4,,,,,,,,3,,,59,0
95395,note_on,115,0,6,,,,,,,,5,,,52,0
95395,note_on,115,0,2,,,,,,,,1,,,76,0
95395,note_on,115,0,3,,,,,,,,2,,,68,0
95395,note_on,115,0,5,,,,,,,,4,,,52,0
95400,note_on,5,0,4,,,,,,,,3,,,59,85
95400,note_on,5,0,6,,,,,,,,5,,,52,85
95400,note_on,5,0,3,,,,,,,,2,,,68,85
95400,note_on,5,0,5,,,,,,,,4,,,52,85
95400,note_on,5,0,2,,,,,,,,1,,,76,85
95515,note_on,115,0,2,,,,,,,,1,,,76,0
95515,note_on,115,0,5,,,,,,,,4,,,52,0
95515,note_on,115,0,6,,,,,,,,5,,,52,0
95515,note_on,115,0,4,,,,,,,,3,,,59,0
95515,note_on,115,0,3,,,,,,,,2,,,68,0
95520,note_on,5,0,2,,,,,,,,1,,,76,85
95520,note_on,5,0,5,,,,,,,,4,,,52,85
95520,note_on,5,0,4,,,,,,,,3,,,59,85
95520,note_on,5,0,3,,,,,,,,2,,,68,85
95520,note_on,5,0,6,,,,,,,,5,,,52,85
95635,note_on,115,0,2,,,,,,,,1,,,76,0
95635,note_on,115,0,3,,,,,,,,2,,,68,0
95635,note_on,115,0,5,,,,,,,,4,,,52,0
95635,note_on,115,0,4,,,,,,,,3,,,59,0
95635,note_on,115,0,6,,,,,,,,5,,,52,0
95640,note_on,5,0,6,,,,,,,,5,,,52,85
95640,note_on,5,0,4,,,,,,,,3,,,59,85
95640,note_on,5,0,2,,,,,,,,1,,,76,85
95640,note_on,5,0,5,,,,,,,,4,,,52,85
95640,note_on,5,0,3,,,,,,,,2,,,68,85
95755,note_on,115,0,6,,,,,,,,5,,,52,0
95755,note_on,115,0,2,,,,,,,,1,,,76,0
95755,note_on,115,0,4,,,,,,,,3,,,59,0
95755,note_on,115,0,3,,,,,,,,2,,,68,0
95755,note_on,115,0,5,,,,,,,,4,,,52,0
95760,note_on,5,0,2,,,,,,,,1,,,76,85
95760,note_on,5,0,3,,,,,,,,2,,,68,85
95760,note_on,5,0,5,,,,,,,,4,,,52,85
95760,note_on,5,0,6,,,,,,,,5,,,52,85
95760,note_on,5,0,4,,,,,,,,3,,,59,85
95875,note_on,115,0,6,,,,,,,,5,,,52,0
95875,note_on,115,0,2,,,,,,,,1,,,76,0
95875,note_on,115,0,3,,,,,,,,2,,,68,0
95875,note_on,115,0,5,,,,,,,,4,,,52,0
95875,note_on,115,0,4,,,,,,,,3,,,59,0
95880,note_on,5,0,5,,,,,,,,4,,,52,85
95880,note_on,5,0,2,,,,,,,,1,,,74,85
95880,note_on,5,0,6,,,,,,,,5,,,52,85
95880,note_on,5,0,3,,,,,,,,2,,,68,85
95880,note_on,5,0,4,,,,,,,,3,,,56,85
95925,note_on,0,0,6,,,,,,,,5,,,64,0
95925,note_on,45,0,6,,,,,,,,5,,,68,0
95925,note_on,0,0,6,,,,,,,,5,,,59,0
95995,note_on,115,0,4,,,,,,,,3,,,56,0
95995,note_on,115,0,3,,,,,,,,2,,,68,0
95995,note_on,115,0,2,,,,,,,,1,,,74,0
95995,note_on,70,0,6,,,,,,,,5,,,52,0
95995,note_on,115,0,5,,,,,,,,4,,,52,0
96000,note_on,5,0,4,,,,,,,,3,,,52,85
96000,note_on,6275,0,1,,,,,,,,0,,,81,106
96000,note_on,5,0,3,,,,,,,,2,,,69,85
96000,note_on,5,0,2,,,,,,,,1,,,72,85
96000,note_on,5,0,5,,,,,,,,4,,,45,85
96000,note_on,5,0,6,,,,,,,,5,,,69,64
96000,note_on,0,0,6,,,,,,,,5,,,64,64
96000,note_on,0,0,6,,,,,,,,5,,,60,64
96000,note_on,0,0,6,,,,,,,,5,,,45,85
96075,note_on,75,0,1,,,,,,,,0,,,81,0
96080,note_on,5,0,1,,,,,,,,0,,,79,106
96155,note_on,75,0,1,,,,,,,,0,,,79,0
96160,note_on,5,0,1,,,,,,,,0,,,77,106
96225,note_on,225,0,2,,,,,,,,1,,,72,0
96225,note_on,225,0,3,,,,,,,,2,,,69,0
96225,note_on,225,0,4,,,,,,,,3,,,52,0
96235,note_on,75,0,1,,,,,,,,0,,,77,0
96240,note_on,15,0,3,,,,,,,,2,,,57,34
96240,note_on,15,0,2,,,,,,,,1,,,57,34
96240,note_on,5,0,1,,,,,,,,0,,,76,106
96240,note_on,15,0,4,,,,,,,,3,,,57,34
96315,note_on,75,0,1,,,,,,,,0,,,76,0
96320,note_on,5,0,1,,,,,,,,0,,,77,106
96395,note_on,75,0,1,,,,,,,,0,,,77,0
96400,note_on,5,0,1,,,,,,,,0,,,79,106
96445,note_on,0,0,6,,,,,,,,5,,,60,0
96445,note_on,0,0,6,,,,,,,,5,,,64,0
96445,note_on,0,0,6,,,,,,,,5,,,69,0
96445,note_on,445,0,5,,,,,,,,4,,,45,0
96445,note_on,445,0,6,,,,,,,,5,,,45,0
96465,note_on,225,0,2,,,,,,,,1,,,57,0
96465,note_on,225,0,3,,,,,,,,2,,,57,0
96465,note_on,225,0,4,,,,,,,,3,,,57,0
96475,note_on,75,0,1,,,,,,,,0,,,79,0
96480,note_on,15,0,2,,,,,,,,1,,,57,34
96480,note_on,15,0,3,,,,,,,,2,,,57,34
96480,note_on,5,0,1,,,,,,,,0,,,81,106
96480,note_on,15,0,4,,,,,,,,3,,,57,34
96555,note_on,75,0,1,,,,,,,,0,,,81,0
96560,note_on,5,0,1,,,,,,,,0,,,79,106
96635,note_on,75,0,1,,,,,,,,0,,,79,0
96640,note_on,5,0,1,,,,,,,,0,,,77,106
96705,note_on,225,0,2,,,,,,,,1,,,57,0
96705,note_on,225,0,3,,,,,,,,2,,,57,0
96705,note_on,225,0,4,,,,,,,,3,,,57,0
96715,note_on,75,0,1,,,,,,,,0,,,77,0
96720,note_on,15,0,3,,,,,,,,2,,,57,34
96720,note_on,15,0,4,,,,,,,,3,,,57,34
96720,note_on,15,0,2,,,,,,,,1,,,57,34
96720,note_on,5,0,1,,,,,,,,0,,,76,106
96795,note_on,75,0,1,,,,,,,,0,,,76,0
96800,note_on,5,0,1,,,,,,,,0,,,77,106
96875,note_on,75,0,1,,,,,,,,0,,,77,0
96880,note_on,5,0,1,,,,,,,,0,,,79,106
96945,note_on,225,0,2,,,,,,,,1,,,57,0
96945,note_on,225,0,4,,,,,,,,3,,,57,0
96945,note_on,225,0,3,,,,,,,,2,,,57,0
96955,note_on,75,0,1,,,,,,,,0,,,79,0
96960,note_on,15,0,4,,,,,,,,3,,,62,34
96960,note_on,15,0,3,,,,,,,,2,,,62,34
96960,note_on,5,0,1,,,,,,,,0,,,77,106
96960,note_on,15,0,2,,,,,,,,1,,,62,34
97116,note_on,156,0,1,,,,,,,,0,,,77,0
97185,note_on,225,0,3,,,,,,,,2,,,62,0
97185,note_on,225,0,2,,,,,,,,1,,,62,0
97185,note_on,225,0,4,,,,,,,,3,,,62,0
97200,note_on,84,0,1,,,,,,,,0,,,74,106
97200,note_on,15,0,3,,,,,,,,2,,,62,34
97200,note_on,15,0,2,,,,,,,,1,,,62,34
97200,note_on,15,0,4,,,,,,,,3,,,62,34
97366,note_on,166,0,1,,,,,,,,0,,,74,0
97425,note_on,225,0,3,,,,,,,,2,,,62,0
97425,note_on,225,0,2,,,,,,,,1,,,62,0
97425,note_on,225,0,4,,,,,,,,3,,,62,0
97440,note_on,15,0,4,,,,,,,,3,,,62,34
97440,note_on,15,0,3,,,,,,,,2,,,62,34
97440,note_on,15,0,2,,,,,,,,1,,,62,34
97665,note_on,225,0,2,,,,,,,,1,,,62,0
97665,note_on,225,0,3,,,,,,,,2,,,62,0
97665,note_on,225,0,4,,,,,,,,3,,,62,0
97680,note_on,15,0,3,,,,,,,,2,,,62,34
97680,note_on,15,0,2,,,,,,,,1,,,62,34
97680,note_on,314,0,1,,,,,,,,0,,,74,106
97680,note_on,15,0,4,,,,,,,,3,,,62,34
97905,note_on,225,0,1,,,,,,,,0,,,74,0
97905,note_on,225,0,2,,,,,,,,1,,,62,0
97905,note_on,225,0,3,,,,,,,,2,,,62,0
97905,note_on,225,0,4,,,,,,,,3,,,62,0
97920,note_on,15,0,4,,,,,,,,3,,,59,34
97920,note_on,15,0,1,,,,,,,,0,,,79,106
97920,note_on,15,0,3,,,,,,,,2,,,59,34
97920,note_on,15,0,2,,,,,,,,1,,,59,34
97995,note_on,75,0,1,,,,,,,,0,,,79,0
98000,note_on,5,0,1,,,,,,,,0,,,77,106
98075,note_on,75,0,1,,,,,,,,0,,,77,0
98080,note_on,5,0,1,,,,,,,,0,,,76,106
98145,note_on,225,0,3,,,,,,,,2,,,59,0
98145,note_on,225,0,4,,,,,,,,3,,,59,0
98145,note_on,225,0,2,,,,,,,,1,,,59,0
98155,note_on,75,0,1,,,,,,,,0,,,76,0
98160,note_on,5,0,1,,,,,,,,0,,,74,106
98160,note_on,15,0,3,,,,,,,,2,,,59,34
98160,note_on,15,0,2,,,,,,,,1,,,59,34
98160,note_on,15,0,4,,,,,,,,3,,,59,34
98235,note_on,75,0,1,,,,,,,,0,,,74,0
98240,note_on,5,0,1,,,,,,,,0,,,76,106
98315,note_on,75,0,1,,,,,,,,0,,,76,0
98320,note_on,5,0,1,,,,,,,,0,,,77,106
98385,note_on,225,0,2,,,,,,,,1,,,59,0
98385,note_on,225,0,4,,,,,,,,3,,,59,0
98385,note_on,225,0,3,,,,,,,,2,,,59,0
98395,note_on,75,0,1,,,,,,,,0,,,77,0
98400,note_on,15,0,2,,,,,,,,1,,,59,34
98400,note_on,5,0,1,,,,,,,,0,,,79,106
98400,note_on,15,0,4,,,,,,,,3,,,59,34
98400,note_on,15,0,3,,,,,,,,2,,,59,34
98475,note_on,75,0,1,,,,,,,,0,,,79,0
98480,note_on,5,0,1,,,,,,,,0,,,77,106
98555,note_on,75,0,1,,,,,,,,0,,,77,0
98560,note_on,5,0,1,,,,,,,,0,,,76,106
98625,note_on,225,0,2,,,,,,,,1,,,59,0
98625,note_on,225,0,4,,,,,,,,3,,,59,0
98625,note_on,225,0,3,,,,,,,,2,,,59,0
98635,note_on,75,0,1,,,,,,,,0,,,76,0
98640,note_on,15,0,2,,,,,,,,1,,,59,34
98640,note_on,15,0,3,,,,,,,,2,,,59,34
98640,note_on,5,0,1,,,,,,,,0,,,74,106
98640,note_on,15,0,4,,,,,,,,3,,,59,34
98715,note_on,75,0,1,,,,,,,,0,,,74,0
98720,note_on,5,0,1,,,,,,,,0,,,76,106
98795,note_on,75,0,1,,,,,,,,0,,,76,0
98800,note_on,5,0,1,,,,,,,,0,,,77,106
98865,note_on,225,0,2,,,,,,,,1,,,59,0
98865,note_on,225,0,4,,,,,,,,3,,,59,0
98865,note_on,225,0,3,,,,,,,,2,,,59,0
98875,note_on,75,0,1,,,,,,,,0,,,77,0
98880,note_on,15,0,3,,,,,,,,2,,,60,34
98880,note_on,5,0,1,,,,,,,,0,,,76,106
98880,note_on,15,0,2,,,,,,,,1,,,60,34
98880,note_on,15,0,4,,,,,,,,3,,,60,34
99046,note_on,166,0,1,,,,,,,,0,,,76,0
99105,note_on,225,0,3,,,,,,,,2,,,60,0
99105,note_on,225,0,2,,,,,,,,1,,,60,0
99105,note_on,225,0,4,,,,,,,,3,,,60,0
99120,note_on,15,0,3,,,,,,,,2,,,60,34
99120,note_on,74,0,1,,,,,,,,0,,,72,106
99120,note_on,15,0,4,,,,,,,,3,,,60,34
99120,note_on,15,0,2,,,,,,,,1,,,60,34
99286,note_on,166,0,1,,,,,,,,0,,,72,0
99345,note_on,225,0,3,,,,,,,,2,,,60,0
99345,note_on,225,0,4,,,,,,,,3,,,60,0
99345,note_on,225,0,2,,,,,,,,1,,,60,0
99360,note_on,15,0,4,,,,,,,,3,,,60,34
99360,note_on,15,0,3,,,,,,,,2,,,60,34
99360,note_on,15,0,2,,,,,,,,1,,,60,34
99585,note_on,225,0,4,,,,,,,,3,,,60,0
99585,note_on,225,0,2,,,,,,,,1,,,60,0
99585,note_on,225,0,3,,,,,,,,2,,,60,0
99600,note_on,15,0,4,,,,,,,,3,,,60,34
99600,note_on,15,0,3,,,,,,,,2,,,60,34
99600,note_on,314,0,1,,,,,,,,0,,,76,106
99600,note_on,15,0,2,,,,,,,,1,,,60,34
99825,note_on,225,0,3,,,,,,,,2,,,60,0
99825,note_on,225,0,4,,,,,,,,3,,,60,0
99825,note_on,225,0,2,,,,,,,,1,,,60,0
99825,note_on,225,0,1,,,,,,,,0,,,76,0
99840,note_on,15,0,3,,,,,,,,2,,,61,34
99840,note_on,15,0,1,,,,,,,,0,,,81,106
99840,note_on,15,0,2,,,,,,,,1,,,61,34
99840,note_on,15,0,4,,,,,,,,3,,,61,34
99955,note_on,115,0,1,,,,,,,,0,,,81,0
99960,note_on,5,0,1,,,,,,,,0,,,76,106
100065,note_on,225,0,4,,,,,,,,3,,,61,0
100065,note_on,225,0,3,,,,,,,,2,,,61,0
100065,note_on,225,0,2,,,,,,,,1,,,61,0
100080,note_on,15,0,4,,,,,,,,3,,,61,34
100080,note_on,15,0,2,,,,,,,,1,,,61,34
100080,note_on,15,0,3,,,,,,,,2,,,61,34
100236,note_on,276,0,1,,,,,,,,0,,,76,0
100305,note_on,225,0,3,,,,,,,,2,,,61,0
100305,note_on,225,0,4,,,,,,,,3,,,61,0
100305,note_on,225,0,2,,,,,,,,1,,,61,0
100320,note_on,15,0,3,,,,,,,,2,,,61,34
100320,note_on,84,0,1,,,,,,,,0,,,81,106
100320,note_on,15,0,4,,,,,,,,3,,,61,34
100320,note_on,15,0,2,,,,,,,,1,,,61,34
100435,note_on,115,0,1,,,,,,,,0,,,81,0
100440,note_on,5,0,1,,,,,,,,0,,,76,106
100545,note_on,225,0,4,,,,,,,,3,,,61,0
100545,note_on,225,0,3,,,,,,,,2,,,61,0
100545,note_on,225,0,2,,,,,,,,1,,,61,0
100560,note_on,15,0,4,,,,,,,,3,,,61,34
100560,note_on,15,0,3,,,,,,,,2,,,61,34
100560,note_on,15,0,2,,,,,,,,1,,,61,34
100706,note_on,266,0,1,,,,,,,,0,,,76,0
100785,note_on,225,0,3,,,,,,,,2,,,61,0
100785,note_on,225,0,4,,,,,,,,3,,,61,0
100785,note_on,225,0,2,,,,,,,,1,,,61,0
100800,note_on,15,0,4,,,,,,,,3,,,57,34
100800,note_on,15,0,3,,,,,,,,2,,,57,34
100800,note_on,94,0,1,,,,,,,,0,,,74,106
100800,note_on,15,0,2,,,,,,,,1,,,57,34
100915,note_on,115,0,1,,,,,,,,0,,,74,0
100920,note_on,5,0,1,,,,,,,,0,,,73,106
101025,note_on,225,0,2,,,,,,,,1,,,57,0
101025,note_on,225,0,4,,,,,,,,3,,,57,0
101025,note_on,225,0,3,,,,,,,,2,,,57,0
101040,note_on,15,0,3,,,,,,,,2,,,57,34
101040,note_on,15,0,2,,,,,,,,1,,,57,34
101040,note_on,15,0,4,,,,,,,,3,,,57,34
101191,note_on,271,0,1,,,,,,,,0,,,73,0
101265,note_on,225,0,3,,,,,,,,2,,,57,0
101265,note_on,225,0,2,,,,,,,,1,,,57,0
101265,note_on,225,0,4,,,,,,,,3,,,57,0
101280,note_on,15,0,2,,,,,,,,1,,,57,34
101280,note_on,15,0,3,,,,,,,,2,,,57,34
101280,note_on,89,0,1,,,,,,,,0,,,79,106
101280,note_on,15,0,4,,,,,,,,3,,,57,34
101395,note_on,115,0,1,,,,,,,,0,,,79,0
101400,note_on,5,0,1,,,,,,,,0,,,76,106
101505,note_on,225,0,2,,,,,,,,1,,,57,0
101505,note_on,225,0,3,,,,,,,,2,,,57,0
101505,note_on,225,0,4,,,,,,,,3,,,57,0
101520,note_on,15,0,2,,,,,,,,1,,,57,34
101520,note_on,15,0,4,,,,,,,,3,,,57,34
101520,note_on,15,0,3,,,,,,,,2,,,57,34
101671,note_on,271,0,1,,,,,,,,0,,,76,0
101745,note_on,225,0,4,,,,,,,,3,,,57,0
101745,note_on,225,0,3,,,,,,,,2,,,57,0
101745,note_on,225,0,2,,,,,,,,1,,,57,0
101760,note_on,15,0,3,,,,,,,,2,,,62,34
101760,note_on,15,0,2,,,,,,,,1,,,62,34
101760,note_on,15,0,4,,,,,,,,3,,,62,34
101760,note_on,89,0,1,,,,,,,,0,,,77,106
101875,note_on,115,0,1,,,,,,,,0,,,77,0
101880,note_on,5,0,1,,,,,,,,0,,,74,106
101985,note_on,225,0,2,,,,,,,,1,,,62,0
101985,note_on,225,0,4,,,,,,,,3,,,62,0
101985,note_on,225,0,3,,,,,,,,2,,,62,0
102000,note_on,15,0,2,,,,,,,,1,,,62,34
102000,note_on,15,0,4,,,,,,,,3,,,62,34
102000,note_on,15,0,3,,,,,,,,2,,,62,34
102172,note_on,292,0,1,,,,,,,,0,,,74,0
102225,note_on,225,0,2,,,,,,,,1,,,62,0
102225,note_on,225,0,3,,,,,,,,2,,,62,0
102225,note_on,225,0,4,,,,,,,,3,,,62,0
102240,note_on,15,0,2,,,,,,,,1,,,62,34
102240,note_on,15,0,3,,,,,,,,2,,,62,34
102240,note_on,15,0,4,,,,,,,,3,,,62,34
102240,note_on,68,0,1,,,,,,,,0,,,81,106
102355,note_on,115,0,1,,,,,,,,0,,,81,0
102360,note_on,5,0,1,,,,,,,,0,,,77,106
102465,note_on,225,0,4,,,,,,,,3,,,62,0
102465,note_on,225,0,2,,,,,,,,1,,,62,0
102465,note_on,225,0,3,,,,,,,,2,,,62,0
102480,note_on,15,0,2,,,,,,,,1,,,62,34
102480,note_on,15,0,4,,,,,,,,3,,,62,34
102480,note_on,15,0,3,,,,,,,,2,,,62,34
102620,note_on,260,0,1,,,,,,,,0,,,77,0
102705,note_on,225,0,2,,,,,,,,1,,,62,0
102705,note_on,225,0,4,,,,,,,,3,,,62,0
102705,note_on,225,0,3,,,,,,,,2,,,62,0
102720,note_on,15,0,2,,,,,,,,1,,,55,34
102720,note_on,15,0,3,,,,,,,,2,,,55,34
102720,note_on,100,0,1,,,,,,,,0,,,82,106
102720,note_on,15,0,4,,,,,,,,3,,,55,34
102835,note_on,115,0,1,,,,,,,,0,,,82,0
102840,note_on,5,0,1,,,,,,,,0,,,79,106
102945,note_on,225,0,3,,,,,,,,2,,,55,0
102945,note_on,225,0,2,,,,,,,,1,,,55,0
102945,note_on,225,0,4,,,,,,,,3,,,55,0
102960,note_on,15,0,4,,,,,,,,3,,,55,34
102960,note_on,15,0,3,,,,,,,,2,,,55,34
102960,note_on,15,0,2,,,,,,,,1,,,55,34
103111,note_on,271,0,1,,,,,,,,0,,,79,0
103185,note_on,225,0,4,,,,,,,,3,,,55,0
103185,note_on,225,0,2,,,,,,,,1,,,55,0
103185,note_on,225,0,3,,,,,,,,2,,,55,0
103200,note_on,15,0,4,,,,,,,,3,,,56,34
103200,note_on,89,0,1,,,,,,,,0,,,76,106
103200,note_on,15,0,2,,,,,,,,1,,,56,34
103200,note_on,15,0,3,,,,,,,,2,,,56,34
103315,note_on,115,0,1,,,,,,,,0,,,76,0
103320,note_on,5,0,1,,,,,,,,0,,,74,106
103425,note_on,225,0,3,,,,,,,,2,,,56,0
103425,note_on,225,0,4,,,,,,,,3,,,56,0
103425,note_on,225,0,2,,,,,,,,1,,,56,0
103440,note_on,15,0,3,,,,,,,,2,,,56,34
103440,note_on,15,0,4,,,,,,,,3,,,56,34
103440,note_on,15,0,2,,,,,,,,1,,,56,34
103596,note_on,276,0,1,,,,,,,,0,,,74,0
103665,note_on,225,0,2,,,,,,,,1,,,56,0
103665,note_on,225,0,3,,,,,,,,2,,,56,0
103665,note_on,225,0,4,,,,,,,,3,,,56,0
103680,note_on,15,0,2,,,,,,,,1,,,57,34
103680,note_on,15,0,4,,,,,,,,3,,,57,34
103680,note_on,15,0,3,,,,,,,,2,,,57,34
103680,note_on,84,0,1,,,,,,,,0,,,73,106
103795,note_on,115,0,1,,,,,,,,0,,,73,0
103800,note_on,5,0,1,,,,,,,,0,,,69,106
103905,note_on,225,0,3,,,,,,,,2,,,57,0
103905,note_on,225,0,4,,,,,,,,3,,,57,0
103905,note_on,225,0,2,,,,,,,,1,,,57,0
103920,note_on,15,0,4,,,,,,,,3,,,57,34
103920,note_on,15,0,2,,,,,,,,1,,,57,34
103920,note_on,15,0,3,,,,,,,,2,,,57,34
104081,note_on,281,0,1,,,,,,,,0,,,69,0
104145,note_on,225,0,2,,,,,,,,1,,,57,0
104145,note_on,225,0,4,,,,,,,,3,,,57,0
104145,note_on,225,0,3,,,,,,,,2,,,57,0
104160,note_on,15,0,4,,,,,,,,3,,,57,34
104160,note_on,79,0,1,,,,,,,,0,,,79,106
104160,note_on,15,0,3,,,,,,,,2,,,57,34
104160,note_on,15,0,2,,,,,,,,1,,,57,34
104275,note_on,115,0,1,,,,,,,,0,,,79,0
104280,note_on,5,0,1,,,,,,,,0,,,76,106
104385,note_on,225,0,3,,,,,,,,2,,,57,0
104385,note_on,225,0,4,,,,,,,,3,,,57,0
104385,note_on,225,0,2,,,,,,,,1,,,57,0
104400,note_on,15,0,3,,,,,,,,2,,,57,34
104400,note_on,15,0,4,,,,,,,,3,,,57,34
104400,note_on,15,0,2,,,,,,,,1,,,57,34
104546,note_on,266,0,1,,,,,,,,0,,,76,0
104625,note_on,225,0,2,,,,,,,,1,,,57,0
104625,note_on,225,0,3,,,,,,,,2,,,57,0
104625,note_on,225,0,4,,,,,,,,3,,,57,0
104640,note_on,15,0,3,,,,,,,,2,,,62,34
104640,note_on,15,0,4,,,,,,,,3,,,62,34
104640,note_on,94,0,1,,,,,,,,0,,,77,106
104640,note_on,15,0,2,,,,,,,,1,,,62,34
104755,note_on,115,0,1,,,,,,,,0,,,77,0
104760,note_on,5,0,1,,,,,,,,0,,,74,106
104865,note_on,225,0,3,,,,,,,,2,,,62,0
104865,note_on,225,0,4,,,,,,,,3,,,62,0
104865,note_on,225,0,2,,,,,,,,1,,,62,0
104880,note_on,15,0,3,,,,,,,,2,,,62,34
104880,note_on,15,0,4,,,,,,,,3,,,62,34
104880,note_on,15,0,2,,,,,,,,1,,,62,34
105036,note_on,276,0,1,,,,,,,,0,,,74,0
105105,note_on,225,0,4,,,,,,,,3,,,62,0
105105,note_on,225,0,3,,,,,,,,2,,,62,0
105105,note_on,225,0,2,,,,,,,,1,,,62,0
105120,note_on,84,0,1,,,,,,,,0,,,81,106
105120,note_on,15,0,3,,,,,,,,2,,,62,34
105120,note_on,15,0,2,,,,,,,,1,,,62,34
105120,note_on,15,0,4,,,,,,,,3,,,62,34
105235,note_on,115,0,1,,,,,,,,0,,,81,0
105240,note_on,5,0,1,,,,,,,,0,,,77,106
105345,note_on,225,0,2,,,,,,,,1,,,62,0
105345,note_on,225,0,4,,,,,,,,3,,,62,0
105345,note_on,225,0,3,,,,,,,,2,,,62,0
105360,note_on,15,0,4,,,,,,,,3,,,62,34
105360,note_on,15,0,2,,,,,,,,1,,,62,34
105360,note_on,15,0,3,,,,,,,,2,,,62,34
105511,note_on,271,0,1,,,,,,,,0,,,77,0
105585,note_on,225,0,3,,,,,,,,2,,,62,0
105585,note_on,225,0,2,,,,,,,,1,,,62,0
105585,note_on,225,0,4,,,,,,,,3,,,62,0
105600,note_on,15,0,2,,,,,,,,1,,,67,34
105600,note_on,15,0,4,,,,,,,,3,,,67,34
105600,note_on,15,0,3,,,,,,,,2,,,67,34
105600,note_on,89,0,1,,,,,,,,0,,,82,106
105715,note_on,115,0,1,,,,,,,,0,,,82,0
105720,note_on,5,0,1,,,,,,,,0,,,79,106
105825,note_on,225,0,4,,,,,,,,3,,,67,0
105825,note_on,225,0,2,,,,,,,,1,,,67,0
105825,note_on,225,0,3,,,,,,,,2,,,67,0
105840,note_on,15,0,4,,,,,,,,3,,,67,34
105840,note_on,15,0,2,,,,,,,,1,,,67,34
105840,note_on,15,0,3,,,,,,,,2,,,67,34
105996,note_on,276,0,1,,,,,,,,0,,,79,0
106065,note_on,225,0,3,,,,,,,,2,,,67,0
106065,note_on,225,0,2,,,,,,,,1,,,67,0
106065,note_on,225,0,4,,,,,,,,3,,,67,0
106080,note_on,15,0,4,,,,,,,,3,,,67,34
106080,note_on,84,0,1,,,,,,,,0,,,85,106
106080,note_on,15,0,2,,,,,,,,1,,,67,34
106080,note_on,15,0,3,,,,,,,,2,,,67,34
106195,note_on,115,0,1,,,,,,,,0,,,85,0
106200,note_on,5,0,1,,,,,,,,0,,,81,106
106305,note_on,225,0,2,,,,,,,,1,,,67,0
106305,note_on,225,0,4,,,,,,,,3,,,67,0
106305,note_on,225,0,3,,,,,,,,2,,,67,0
106320,note_on,15,0,4,,,,,,,,3,,,67,34
106320,note_on,15,0,2,,,,,,,,1,,,67,34
106320,note_on,15,0,3,,,,,,,,2,,,67,34
106471,note_on,271,0,1,,,,,,,,0,,,81,0
106545,note_on,225,0,2,,,,,,,,1,,,67,0
106545,note_on,225,0,4,,,,,,,,3,,,67,0
106545,note_on,225,0,3,,,,,,,,2,,,67,0
106560,note_on,15,0,3,,,,,,,,2,,,65,34
106560,note_on,0,0,6,,,,,,,,5,,,69,64
106560,note_on,10115,0,6,,,,,,,,5,,,74,64
106560,note_on,0,0,6,,,,,,,,5,,,53,85
106560,note_on,0,0,6,,,,,,,,5,,,62,64
106560,note_on,15,0,2,,,,,,,,1,,,65,34
106560,note_on,15,0,4,,,,,,,,3,,,65,34
106560,note_on,89,0,1,,,,,,,,0,,,86,106
106560,note_on,10115,0,5,,,,,,,,4,,,53,85
106635,note_on,75,0,1,,,,,,,,0,,,86,0
106640,note_on,5,0,1,,,,,,,,0,,,74,106
106715,note_on,75,0,1,,,,,,,,0,,,74,0
106720,note_on,5,0,1,,,,,,,,0,,,76,106
106785,note_on,225,0,6,,,,,,,,5,,,53,0
106785,note_on,225,0,5,,,,,,,,4,,,53,0
106795,note_on,75,0,1,,,,,,,,0,,,76,0
106800,note_on,15,0,5,,,,,,,,4,,,53,85
106800,note_on,15,0,6,,,,,,,,5,,,53,85
106800,note_on,5,0,1,,,,,,,,0,,,77,106
106875,note_on,75,0,1,,,,,,,,0,,,77,0
106880,note_on,5,0,1,,,,,,,,0,,,76,106
106955,note_on,75,0,1,,,,,,,,0,,,76,0
106960,note_on,5,0,1,,,,,,,,0,,,74,106
107005,note_on,445,0,4,,,,,,,,3,,,65,0
107005,note_on,445,0,3,,,,,,,,2,,,65,0
107005,note_on,445,0,2,,,,,,,,1,,,65,0
107025,note_on,225,0,5,,,,,,,,4,,,53,0
107025,note_on,225,0,6,,,,,,,,5,,,53,0
107035,note_on,75,0,1,,,,,,,,0,,,74,0
107040,note_on,5,0,1,,,,,,,,0,,,86,106
107040,note_on,15,0,5,,,,,,,,4,,,53,85
107040,note_on,15,0,6,,,,,,,,5,,,53,85
107115,note_on,75,0,1,,,,,,,,0,,,86,0
107120,note_on,5,0,1,,,,,,,,0,,,74,106
107195,note_on,75,0,1,,,,,,,,0,,,74,0
107200,note_on,5,0,1,,,,,,,,0,,,76,106
107265,note_on,225,0,5,,,,,,,,4,,,53,0
107265,note_on,225,0,6,,,,,,,,5,,,53,0
107275,note_on,75,0,1,,,,,,,,0,,,76,0
107280,note_on,15,0,5,,,,,,,,4,,,53,85
107280,note_on,15,0,6,,,,,,,,5,,,53,85
107280,note_on,5,0,1,,,,,,,,0,,,77,106
107355,note_on,75,0,1,,,,,,,,0,,,77,0
107360,note_on,5,0,1,,,,,,,,0,,,76,106
107435,note_on,75,0,1,,,,,,,,0,,,76,0
107440,note_on,5,0,1,,,,,,,,0,,,74,106
107445,note_on,0,0,6,,,,,,,,5,,,62,0
107445,note_on,0,0,6,,,,,,,,5,,,69,0
107445,note_on,165,0,6,,,,,,,,5,,,74,0
107505,note_on,225,0,5,,,,,,,,4,,,53,0
107505,note_on,60,0,6,,,,,,,,5,,,53,0
107515,note_on,75,0,1,,,,,,,,0,,,74,0
107520,note_on,5,0,1,,,,,,,,0,,,82,106
107520,note_on,15,0,5,,,,,,,,4,,,55,85
107520,note_on,15,0,6,,,,,,,,5,,,70,64
107520,note_on,0,0,6,,,,,,,,5,,,55,85
107520,note_on,0,0,6,,,,,,,,5,,,67,64
107520,note_on,0,0,6,,,,,,,,5,,,62,64
107595,note_on,75,0,1,,,,,,,,0,,,82,0
107600,note_on,5,0,1,,,,,,,,0,,,86,106
107675,note_on,75,0,1,,,,,,,,0,,,86,0
107680,note_on,5,0,1,,,,,,,,0,,,84,106
107745,note_on,225,0,6,,,,,,,,5,,,55,0
107745,note_on,225,0,5,,,,,,,,4,,,55,0
107755,note_on,75,0,1,,,,,,,,0,,,84,0
107760,note_on,15,0,6,,,,,,,,5,,,55,85
107760,note_on,15,0,5,,,,,,,,4,,,55,85
107760,note_on,5,0,1,,,,,,,,0,,,82,106
107835,note_on,75,0,1,,,,,,,,0,,,82,0
107840,note_on,5,0,1,,,,,,,,0,,,81,106
107915,note_on,75,0,1,,,,,,,,0,,,81,0
107920,note_on,5,0,1,,,,,,,,0,,,79,106
107985,note_on,225,0,6,,,,,,,,5,,,55,0
107985,note_on,225,0,5,,,,,,,,4,,,55,0
107995,note_on,75,0,1,,,,,,,,0,,,79,0
108000,note_on,15,0,6,,,,,,,,5,,,52,85
108000,note_on,5,0,1,,,,,,,,0,,,82,106
108000,note_on,15,0,5,,,,,,,,4,,,52,85
108075,note_on,75,0,1,,,,,,,,0,,,82,0
108080,note_on,5,0,1,,,,,,,,0,,,86,106
108155,note_on,75,0,1,,,,,,,,0,,,86,0
108160,note_on,5,0,1,,,,,,,,0,,,84,106
108225,note_on,225,0,5,,,,,,,,4,,,52,0
108225,note_on,225,0,6,,,,,,,,5,,,52,0
108235,note_on,75,0,1,,,,,,,,0,,,84,0
108240,note_on,15,0,5,,,,,,,,4,,,52,85
108240,note_on,5,0,1,,,,,,,,0,,,82,106
108240,note_on,15,0,6,,,,,,,,5,,,52,85
108315,note_on,75,0,1,,,,,,,,0,,,82,0
108320,note_on,5,0,1,,,,,,,,0,,,81,106
108395,note_on,75,0,1,,,,,,,,0,,,81,0
108400,note_on,5,0,1,,,,,,,,0,,,79,106
108405,note_on,0,0,6,,,,,,,,5,,,67,0
108405,note_on,0,0,6,,,,,,,,5,,,62,0
108405,note_on,165,0,6,,,,,,,,5,,,70,0
108465,note_on,225,0,5,,,,,,,,4,,,52,0
108465,note_on,60,0,6,,,,,,,,5,,,52,0
108475,note_on,75,0,1,,,,,,,,0,,,79,0
108480,note_on,0,0,6,,,,,,,,5,,,53,85
108480,note_on,15,0,5,,,,,,,,4,,,53,85
108480,note_on,0,0,6,,,,,,,,5,,,65,64
108480,note_on,5,0,1,,,,,,,,0,,,81,106
108480,note_on,0,0,6,,,,,,,,5,,,60,64
108480,note_on,15,0,6,,,,,,,,5,,,69,64
108555,note_on,75,0,1,,,,,,,,0,,,81,0
108560,note_on,5,0,1,,,,,,,,0,,,84,106
108635,note_on,75,0,1,,,,,,,,0,,,84,0
108640,note_on,5,0,1,,,,,,,,0,,,82,106
108705,note_on,225,0,6,,,,,,,,5,,,53,0
108705,note_on,225,0,5,,,,,,,,4,,,53,0
108715,note_on,75,0,1,,,,,,,,0,,,82,0
108720,note_on,5,0,1,,,,,,,,0,,,81,106
108720,note_on,15,0,5,,,,,,,,4,,,53,85
108720,note_on,15,0,6,,,,,,,,5,,,53,85
108795,note_on,75,0,1,,,,,,,,0,,,81,0
108800,note_on,5,0,1,,,,,,,,0,,,79,106
108875,note_on,75,0,1,,,,,,,,0,,,79,0
108880,note_on,5,0,1,,,,,,,,0,,,77,106
108945,note_on,225,0,5,,,,,,,,4,,,53,0
108945,note_on,225,0,6,,,,,,,,5,,,53,0
108955,note_on,75,0,1,,,,,,,,0,,,77,0
108960,note_on,15,0,5,,,,,,,,4,,,50,85
108960,note_on,5,0,1,,,,,,,,0,,,81,106
108960,note_on,15,0,6,,,,,,,,5,,,50,85
109035,note_on,75,0,1,,,,,,,,0,,,81,0
109040,note_on,5,0,1,,,,,,,,0,,,84,106
109115,note_on,75,0,1,,,,,,,,0,,,84,0
109120,note_on,5,0,1,,,,,,,,0,,,82,106
109185,note_on,225,0,6,,,,,,,,5,,,50,0
109185,note_on,225,0,5,,,,,,,,4,,,50,0
109195,note_on,75,0,1,,,,,,,,0,,,82,0
109200,note_on,5,0,1,,,,,,,,0,,,81,106
109200,note_on,15,0,6,,,,,,,,5,,,50,85
109200,note_on,15,0,5,,,,,,,,4,,,50,85
109275,note_on,75,0,1,,,,,,,,0,,,81,0
109280,note_on,5,0,1,,,,,,,,0,,,79,106
109355,note_on,75,0,1,,,,,,,,0,,,79,0
109360,note_on,5,0,1,,,,,,,,0,,,77,106
109365,note_on,165,0,6,,,,,,,,5,,,69,0
109365,note_on,0,0,6,,,,,,,,5,,,60,0
109365,note_on,0,0,6,,,,,,,,5,,,65,0
109425,note_on,225,0,5,,,,,,,,4,,,50,0
109425,note_on,60,0,6,,,,,,,,5,,,50,0
109435,note_on,75,0,1,,,,,,,,0,,,77,0
109440,note_on,15,0,6,,,,,,,,5,,,67,64
109440,note_on,0,0,6,,,,,,,,5,,,58,64
109440,note_on,0,0,6,,,,,,,,5,,,52,85
109440,note_on,0,0,6,,,,,,,,5,,,64,64
109440,note_on,15,0,5,,,,,,,,4,,,52,85
109440,note_on,5,0,1,,,,,,,,0,,,79,106
109515,note_on,75,0,1,,,,,,,,0,,,79,0
109520,note_on,5,0,1,,,,,,,,0,,,82,106
109595,note_on,75,0,1,,,,,,,,0,,,82,0
109600,note_on,5,0,1,,,,,,,,0,,,81,106
109665,note_on,225,0,6,,,,,,,,5,,,52,0
109665,note_on,225,0,5,,,,,,,,4,,,52,0
109675,note_on,75,0,1,,,,,,,,0,,,81,0
109680,note_on,15,0,6,,,,,,,,5,,,52,85
109680,note_on,15,0,5,,,,,,,,4,,,52,85
109680,note_on,5,0,1,,,,,,,,0,,,79,106
109755,note_on,75,0,1,,,,,,,,0,,,79,0
109760,note_on,5,0,1,,,,,,,,0,,,77,106
109835,note_on,75,0,1,,,,,,,,0,,,77,0
109840,note_on,5,0,1,,,,,,,,0,,,76,106
109885,note_on,205,0,6,,,,,,,,5,,,64,0
109905,note_on,20,0,6,,,,,,,,5,,,52,0
109905,note_on,225,0,5,,,,,,,,4,,,52,0
109915,note_on,75,0,1,,,,,,,,0,,,76,0
109920,note_on,0,0,6,,,,,,,,5,,,49,85
109920,note_on,15,0,5,,,,,,,,4,,,49,85
109920,note_on,5,0,1,,,,,,,,0,,,79,106
109920,note_on,15,0,6,,,,,,,,5,,,64,64
109995,note_on,75,0,1,,,,,,,,0,,,79,0
110000,note_on,5,0,1,,,,,,,,0,,,82,106
110075,note_on,75,0,1,,,,,,,,0,,,82,0
110080,note_on,5,0,1,,,,,,,,0,,,81,106
110145,note_on,225,0,5,,,,,,,,4,,,49,0
110145,note_on,225,0,6,,,,,,,,5,,,49,0
110155,note_on,75,0,1,,,,,,,,0,,,81,0
110160,note_on,15,0,6,,,,,,,,5,,,49,85
110160,note_on,5,0,1,,,,,,,,0,,,79,106
110160,note_on,15,0,5,,,,,,,,4,,,49,85
110235,note_on,75,0,1,,,,,,,,0,,,79,0
110240,note_on,5,0,1,,,,,,,,0,,,77,106
110315,note_on,75,0,1,,,,,,,,0,,,77,0
110320,note_on,5,0,1,,,,,,,,0,,,76,106
110325,note_on,165,0,6,,,,,,,,5,,,67,0
110325,note_on,0,0,6,,,,,,,,5,,,58,0
110365,note_on,40,0,6,,,,,,,,5,,,64,0
110385,note_on,225,0,5,,,,,,,,4,,,49,0
110385,note_on,20,0,6,,,,,,,,5,,,49,0
110395,note_on,75,0,1,,,,,,,,0,,,76,0
110400,note_on,0,0,6,,,,,,,,5,,,62,64
110400,note_on,0,0,6,,,,,,,,5,,,57,64
110400,note_on,0,0,6,,,,,,,,5,,,50,85
110400,note_on,5,0,1,,,,,,,,0,,,77,106
110400,note_on,15,0,5,,,,,,,,4,,,50,85
110400,note_on,15,0,6,,,,,,,,5,,,65,64
110515,note_on,115,0,1,,,,,,,,0,,,77,0
110520,note_on,5,0,1,,,,,,,,0,,,74,106
110625,note_on,225,0,6,,,,,,,,5,,,50,0
110625,note_on,225,0,5,,,,,,,,4,,,50,0
110635,note_on,115,0,1,,,,,,,,0,,,74,0
110640,note_on,5,0,1,,,,,,,,0,,,77,106
110640,note_on,15,0,6,,,,,,,,5,,,50,85
110640,note_on,15,0,5,,,,,,,,4,,,50,85
110755,note_on,115,0,1,,,,,,,,0,,,77,0
110760,note_on,5,0,1,,,,,,,,0,,,81,106
110865,note_on,225,0,5,,,,,,,,4,,,50,0
110865,note_on,225,0,6,,,,,,,,5,,,50,0
110875,note_on,115,0,1,,,,,,,,0,,,81,0
110880,note_on,15,0,5,,,,,,,,4,,,50,85
110880,note_on,5,0,1,,,,,,,,0,,,77,106
110880,note_on,15,0,6,,,,,,,,5,,,50,85
110995,note_on,115,0,1,,,,,,,,0,,,77,0
111000,note_on,5,0,1,,,,,,,,0,,,74,106
111105,note_on,225,0,5,,,,,,,,4,,,50,0
111105,note_on,225,0,6,,,,,,,,5,,,50,0
111115,note_on,115,0,1,,,,,,,,0,,,74,0
111120,note_on,5,0,1,,,,,,,,0,,,77,106
111120,note_on,15,0,5,,,,,,,,4,,,50,85
111120,note_on,15,0,6,,,,,,,,5,,,50,85
111235,note_on,115,0,1,,,,,,,,0,,,77,0
111240,note_on,5,0,1,,,,,,,,0,,,81,106
111285,note_on,165,0,6,,,,,,,,5,,,65,0
111285,note_on,0,0,6,,,,,,,,5,,,57,0
111285,note_on,0,0,6,,,,,,,,5,,,62,0
111345,note_on,60,0,6,,,,,,,,5,,,50,0
111345,note_on,225,0,5,,,,,,,,4,,,50,0
111355,note_on,115,0,1,,,,,,,,0,,,81,0
111360,note_on,5,0,1,,,,,,,,0,,,80,106
111360,note_on,15,0,5,,,,,,,,4,,,52,85
111360,note_on,0,0,6,,,,,,,,5,,,52,85
111360,note_on,0,0,6,,,,,,,,5,,,56,64
111360,note_on,0,0,6,,,,,,,,5,,,59,64
111360,note_on,15,0,6,,,,,,,,5,,,64,64
111475,note_on,115,0,1,,,,,,,,0,,,80,0
111480,note_on,5,0,1,,,,,,,,0,,,76,106
111585,note_on,225,0,6,,,,,,,,5,,,52,0
111585,note_on,225,0,5,,,,,,,,4,,,52,0
111595,note_on,115,0,1,,,,,,,,0,,,76,0
111600,note_on,15,0,5,,,,,,,,4,,,52,85
111600,note_on,5,0,1,,,,,,,,0,,,80,106
111600,note_on,15,0,6,,,,,,,,5,,,52,85
111715,note_on,115,0,1,,,,,,,,0,,,80,0
111720,note_on,5,0,1,,,,,,,,0,,,83,106
111805,note_on,205,0,6,,,,,,,,5,,,64,0
111805,note_on,0,0,6,,,,,,,,5,,,56,0
111805,note_on,0,0,6,,,,,,,,5,,,59,0
111825,note_on,20,0,6,,,,,,,,5,,,52,0
111825,note_on,225,0,5,,,,,,,,4,,,52,0
111835,note_on,115,0,1,,,,,,,,0,,,83,0
111840,note_on,0,0,6,,,,,,,,5,,,64,64
111840,note_on,15,0,5,,,,,,,,4,,,50,85
111840,note_on,0,0,6,,,,,,,,5,,,59,64
111840,note_on,0,0,6,,,,,,,,5,,,50,85
111840,note_on,15,0,6,,,,,,,,5,,,68,64
111840,note_on,5,0,1,,,,,,,,0,,,80,106
111955,note_on,115,0,1,,,,,,,,0,,,80,0
111960,note_on,5,0,1,,,,,,,,0,,,76,106
112065,note_on,225,0,6,,,,,,,,5,,,50,0
112065,note_on,225,0,5,,,,,,,,4,,,50,0
112075,note_on,115,0,1,,,,,,,,0,,,76,0
112080,note_on,15,0,6,,,,,,,,5,,,50,85
112080,note_on,5,0,1,,,,,,,,0,,,80,106
112080,note_on,15,0,5,,,,,,,,4,,,50,85
112195,note_on,115,0,1,,,,,,,,0,,,80,0
112200,note_on,5,0,1,,,,,,,,0,,,83,106
112285,note_on,0,0,6,,,,,,,,5,,,59,0
112285,note_on,0,0,6,,,,,,,,5,,,64,0
112285,note_on,205,0,6,,,,,,,,5,,,68,0
112305,note_on,20,0,6,,,,,,,,5,,,50,0
112305,note_on,225,0,5,,,,,,,,4,,,50,0
112315,note_on,115,0,1,,,,,,,,0,,,83,0
112320,note_on,0,0,6,,,,,,,,5,,,57,64
112320,note_on,5,0,1,,,,,,,,0,,,81,106
112320,note_on,0,0,6,,,,,,,,5,,,48,85
112320,note_on,0,0,6,,,,,,,,5,,,64,64
112320,note_on,15,0,5,,,,,,,,4,,,48,85
112320,note_on,15,0,6,,,,,,,,5,,,69,64
112435,note_on,115,0,1,,,,,,,,0,,,81,0
112440,note_on,5,0,1,,,,,,,,0,,,76,106
112545,note_on,225,0,6,,,,,,,,5,,,48,0
112545,note_on,225,0,5,,,,,,,,4,,,48,0
112555,note_on,115,0,1,,,,,,,,0,,,76,0
112560,note_on,15,0,6,,,,,,,,5,,,48,85
112560,note_on,15,0,5,,,,,,,,4,,,48,85
112560,note_on,5,0,1,,,,,,,,0,,,81,106
112675,note_on,115,0,1,,,,,,,,0,,,81,0
112680,note_on,5,0,1,,,,,,,,0,,,84,106
112785,note_on,225,0,5,,,,,,,,4,,,48,0
112785,note_on,225,0,6,,,,,,,,5,,,48,0
112795,note_on,115,0,1,,,,,,,,0,,,84,0
112800,note_on,15,0,6,,,,,,,,5,,,48,85
112800,note_on,5,0,1,,,,,,,,0,,,81,106
112800,note_on,15,0,5,,,,,,,,4,,,48,85
112915,note_on,115,0,1,,,,,,,,0,,,81,0
112920,note_on,5,0,1,,,,,,,,0,,,76,106
113025,note_on,225,0,6,,,,,,,,5,,,48,0
113025,note_on,225,0,5,,,,,,,,4,,,48,0
113035,note_on,115,0,1,,,,,,,,0,,,76,0
113040,note_on,15,0,5,,,,,,,,4,,,48,85
113040,note_on,15,0,6,,,,,,,,5,,,48,85
113040,note_on,5,0,1,,,,,,,,0,,,81,106
113155,note_on,115,0,1,,,,,,,,0,,,81,0
113160,note_on,5,0,1,,,,,,,,0,,,84,106
113205,note_on,165,0,6,,,,,,,,5,,,69,0
113205,note_on,0,0,6,,,,,,,,5,,,64,0
113205,note_on,0,0,6,,,,,,,,5,,,57,0
113265,note_on,225,0,5,,,,,,,,4,,,48,0
113265,note_on,60,0,6,,,,,,,,5,,,48,0
113275,note_on,115,0,1,,,,,,,,0,,,84,0
113280,note_on,15,0,5,,,,,,,,4,,,50,85
113280,note_on,15,0,6,,,,,,,,5,,,65,64
113280,note_on,0,0,6,,,,,,,,5,,,50,85
113280,note_on,0,0,6,,,,,,,,5,,,62,64
113280,note_on,5,0,1,,,,,,,,0,,,77,106
113280,note_on,0,0,6,,,,,,,,5,,,57,64
113395,note_on,115,0,1,,,,,,,,0,,,77,0
113400,note_on,5,0,1,,,,,,,,0,,,74,106
113505,note_on,225,0,6,,,,,,,,5,,,50,0
113505,note_on,225,0,5,,,,,,,,4,,,50,0
113515,note_on,115,0,1,,,,,,,,0,,,74,0
113520,note_on,5,0,1,,,,,,,,0,,,77,106
113520,note_on,15,0,5,,,,,,,,4,,,50,85
113520,note_on,15,0,6,,,,,,,,5,,,50,85
113580,note_on,60,0,1,,,,,,,,0,,,77,0
113580,note_on,0,0,1,,,,,,,,0,,,79,106
113640,note_on,0,0,1,,,,,,,,0,,,81,106
113640,note_on,60,0,1,,,,,,,,0,,,79,0
113725,note_on,0,0,6,,,,,,,,5,,,62,0
113725,note_on,0,0,6,,,,,,,,5,,,57,0
113725,note_on,205,0,6,,,,,,,,5,,,65,0
113745,note_on,20,0,6,,,,,,,,5,,,50,0
113745,note_on,225,0,5,,,,,,,,4,,,50,0
113755,note_on,115,0,1,,,,,,,,0,,,81,0
113760,note_on,5,0,1,,,,,,,,0,,,77,106
113760,note_on,15,0,5,,,,,,,,4,,,50,85
113760,note_on,15,0,6,,,,,,,,5,,,50,85
113875,note_on,115,0,1,,,,,,,,0,,,77,0
113880,note_on,5,0,1,,,,,,,,0,,,74,106
113985,note_on,225,0,6,,,,,,,,5,,,50,0
113985,note_on,225,0,5,,,,,,,,4,,,50,0
113995,note_on,115,0,1,,,,,,,,0,,,74,0
114000,note_on,15,0,5,,,,,,,,4,,,50,85
114000,note_on,15,0,6,,,,,,,,5,,,50,85
114000,note_on,5,0,1,,,,,,,,0,,,77,106
114060,note_on,60,0,1,,,,,,,,0,,,77,0
114060,note_on,0,0,1,,,,,,,,0,,,79,106
114120,note_on,60,0,1,,,,,,,,0,,,79,0
114120,note_on,0,0,1,,,,,,,,0,,,81,106
114225,note_on,225,0,6,,,,,,,,5,,,50,0
114225,note_on,225,0,5,,,,,,,,4,,,50,0
114235,note_on,115,0,1,,,,,,,,0,,,81,0
114240,note_on,15,0,6,,,,,,,,5,,,67,64
114240,note_on,0,0,6,,,,,,,,5,,,55,64
114240,note_on,0,0,6,,,,,,,,5,,,62,64
114240,note_on,0,0,6,,,,,,,,5,,,46,85
114240,note_on,5,0,1,,,,,,,,0,,,79,106
114240,note_on,15,0,5,,,,,,,,4,,,46,85
114355,note_on,115,0,1,,,,,,,,0,,,79,0
114360,note_on,5,0,1,,,,,,,,0,,,74,106
114465,note_on,225,0,6,,,,,,,,5,,,46,0
114465,note_on,225,0,5,,,,,,,,4,,,46,0
114475,note_on,115,0,1,,,,,,,,0,,,74,0
114480,note_on,5,0,1,,,,,,,,0,,,79,106
114480,note_on,15,0,5,,,,,,,,4,,,46,85
114480,note_on,15,0,6,,,,,,,,5,,,46,85
114540,note_on,60,0,1,,,,,,,,0,,,79,0
114540,note_on,0,0,1,,,,,,,,0,,,81,106
114600,note_on,60,0,1,,,,,,,,0,,,81,0
114600,note_on,0,0,1,,,,,,,,0,,,82,106
114705,note_on,225,0,6,,,,,,,,5,,,46,0
114705,note_on,225,0,5,,,,,,,,4,,,46,0
114715,note_on,115,0,1,,,,,,,,0,,,82,0
114720,note_on,15,0,5,,,,,,,,4,,,46,85
114720,note_on,5,0,1,,,,,,,,0,,,79,106
114720,note_on,15,0,6,,,,,,,,5,,,46,85
114835,note_on,115,0,1,,,,,,,,0,,,79,0
114840,note_on,5,0,1,,,,,,,,0,,,74,106
114945,note_on,225,0,6,,,,,,,,5,,,46,0
114945,note_on,225,0,5,,,,,,,,4,,,46,0
114955,note_on,115,0,1,,,,,,,,0,,,74,0
114960,note_on,5,0,1,,,,,,,,0,,,79,106
114960,note_on,15,0,5,,,,,,,,4,,,46,85
114960,note_on,15,0,6,,,,,,,,5,,,46,85
115020,note_on,0,0,1,,,,,,,,0,,,81,106
115020,note_on,60,0,1,,,,,,,,0,,,79,0
115080,note_on,0,0,1,,,,,,,,0,,,82,106
115080,note_on,60,0,1,,,,,,,,0,,,81,0
115125,note_on,165,0,6,,,,,,,,5,,,67,0
115125,note_on,0,0,6,,,,,,,,5,,,55,0
115125,note_on,0,0,6,,,,,,,,5,,,62,0
115185,note_on,225,0,5,,,,,,,,4,,,46,0
115185,note_on,60,0,6,,,,,,,,5,,,46,0
115195,note_on,115,0,1,,,,,,,,0,,,82,0
115200,note_on,0,0,6,,,,,,,,5,,,55,64
115200,note_on,15,0,6,,,,,,,,5,,,64,64
115200,note_on,0,0,6,,,,,,,,5,,,60,64
115200,note_on,15,0,5,,,,,,,,4,,,48,85
115200,note_on,5,0,1,,,,,,,,0,,,76,106
115200,note_on,0,0,6,,,,,,,,5,,,48,85
115315,note_on,115,0,1,,,,,,,,0,,,76,0
115320,note_on,5,0,1,,,,,,,,0,,,72,106
115425,note_on,225,0,5,,,,,,,,4,,,48,0
115425,note_on,225,0,6,,,,,,,,5,,,48,0
115435,note_on,115,0,1,,,,,,,,0,,,72,0
115440,note_on,15,0,6,,,,,,,,5,,,48,85
115440,note_on,15,0,5,,,,,,,,4,,,48,85
115440,note_on,5,0,1,,,,,,,,0,,,76,106
115500,note_on,0,0,1,,,,,,,,0,,,77,106
115500,note_on,60,0,1,,,,,,,,0,,,76,0
115560,note_on,0,0,1,,,,,,,,0,,,79,106
115560,note_on,60,0,1,,,,,,,,0,,,77,0
115645,note_on,0,0,6,,,,,,,,5,,,55,0
115645,note_on,0,0,6,,,,,,,,5,,,60,0
115645,note_on,205,0,6,,,,,,,,5,,,64,0
115665,note_on,20,0,6,,,,,,,,5,,,48,0
115665,note_on,225,0,5,,,,,,,,4,,,48,0
115675,note_on,115,0,1,,,,,,,,0,,,79,0
115680,note_on,15,0,6,,,,,,,,5,,,48,85
115680,note_on,15,0,5,,,,,,,,4,,,48,85
115680,note_on,5,0,1,,,,,,,,0,,,76,106
115795,note_on,115,0,1,,,,,,,,0,,,76,0
115800,note_on,5,0,1,,,,,,,,0,,,72,106
115905,note_on,225,0,6,,,,,,,,5,,,48,0
115905,note_on,225,0,5,,,,,,,,4,,,48,0
115915,note_on,115,0,1,,,,,,,,0,,,72,0
115920,note_on,5,0,1,,,,,,,,0,,,76,106
115920,note_on,15,0,5,,,,,,,,4,,,48,85
115920,note_on,15,0,6,,,,,,,,5,,,48,85
115980,note_on,60,0,1,,,,,,,,0,,,76,0
115980,note_on,0,0,1,,,,,,,,0,,,77,106
116040,note_on,60,0,1,,,,,,,,0,,,77,0
116040,note_on,0,0,1,,,,,,,,0,,,79,106
116145,note_on,225,0,5,,,,,,,,4,,,48,0
116145,note_on,225,0,6,,,,,,,,5,,,48,0
116155,note_on,115,0,1,,,,,,,,0,,,79,0
116160,note_on,0,0,6,,,,,,,,5,,,57,64
116160,note_on,5,0,1,,,,,,,,0,,,77,106
116160,note_on,0,0,6,,,,,,,,5,,,60,64
116160,note_on,15,0,6,,,,,,,,5,,,65,64
116160,note_on,0,0,6,,,,,,,,5,,,48,85
116160,note_on,15,0,5,,,,,,,,4,,,48,85
116275,note_on,115,0,1,,,,,,,,0,,,77,0
116280,note_on,5,0,1,,,,,,,,0,,,72,106
116385,note_on,225,0,5,,,,,,,,4,,,48,0
116385,note_on,225,0,6,,,,,,,,5,,,48,0
116395,note_on,115,0,1,,,,,,,,0,,,72,0
116400,note_on,15,0,5,,,,,,,,4,,,48,85
116400,note_on,15,0,6,,,,,,,,5,,,48,85
116400,note_on,5,0,1,,,,,,,,0,,,77,106
116460,note_on,0,0,1,,,,,,,,0,,,79,106
116460,note_on,60,0,1,,,,,,,,0,,,77,0
116520,note_on,0,0,1,,,,,,,,0,,,81,106
116520,note_on,60,0,1,,,,,,,,0,,,79,0
116625,note_on,225,0,6,,,,,,,,5,,,48,0
116625,note_on,225,0,5,,,,,,,,4,,,48,0
116635,note_on,115,0,1,,,,,,,,0,,,81,0
116640,note_on,5,0,1,,,,,,,,0,,,77,106
116640,note_on,15,0,6,,,,,,,,5,,,48,85
116640,note_on,15,0,5,,,,,,,,4,,,48,85
116755,note_on,115,0,1,,,,,,,,0,,,77,0
116760,note_on,5,0,1,,,,,,,,0,,,72,106
116865,note_on,225,0,6,,,,,,,,5,,,48,0
116865,note_on,225,0,5,,,,,,,,4,,,48,0
116875,note_on,115,0,1,,,,,,,,0,,,72,0
116880,note_on,15,0,5,,,,,,,,4,,,48,85
116880,note_on,5,0,1,,,,,,,,0,,,77,106
116880,note_on,15,0,6,,,,,,,,5,,,48,85
116940,note_on,60,0,1,,,,,,,,0,,,77,0
116940,note_on,0,0,1,,,,,,,,0,,,79,106
117000,note_on,60,0,1,,,,,,,,0,,,79,0
117000,note_on,0,0,1,,,,,,,,0,,,81,106
117045,note_on,0,0,6,,,,,,,,5,,,57,0
117045,note_on,0,0,6,,,,,,,,5,,,60,0
117045,note_on,165,0,6,,,,,,,,5,,,65,0
117105,note_on,60,0,6,,,,,,,,5,,,48,0
117105,note_on,225,0,5,,,,,,,,4,,,48,0
117115,note_on,115,0,1,,,,,,,,0,,,81,0
117120,note_on,15,0,5,,,,,,,,4,,,48,85
117120,note_on,5,0,1,,,,,,,,0,,,79,106
117120,note_on,15,0,6,,,,,,,,5,,,67,64
117120,note_on,0,0,6,,,,,,,,5,,,64,64
117120,note_on,0,0,6,,,,,,,,5,,,58,64
117120,note_on,0,0,6,,,,,,,,5,,,48,85
117235,note_on,115,0,1,,,,,,,,0,,,79,0
117240,note_on,5,0,1,,,,,,,,0,,,72,106
117345,note_on,225,0,5,,,,,,,,4,,,48,0
117345,note_on,225,0,6,,,,,,,,5,,,48,0
117355,note_on,115,0,1,,,,,,,,0,,,72,0
117360,note_on,15,0,6,,,,,,,,5,,,48,85
117360,note_on,5,0,1,,,,,,,,0,,,79,106
117360,note_on,15,0,5,,,,,,,,4,,,48,85
117420,note_on,0,0,1,,,,,,,,0,,,81,106
117420,note_on,60,0,1,,,,,,,,0,,,79,0
117480,note_on,60,0,1,,,,,,,,0,,,81,0
117480,note_on,0,0,1,,,,,,,,0,,,82,106
117585,note_on,225,0,6,,,,,,,,5,,,48,0
117585,note_on,225,0,5,,,,,,,,4,,,48,0
117595,note_on,115,0,1,,,,,,,,0,,,82,0
117600,note_on,15,0,6,,,,,,,,5,,,48,85
117600,note_on,5,0,1,,,,,,,,0,,,79,106
117600,note_on,15,0,5,,,,,,,,4,,,48,85
117715,note_on,115,0,1,,,,,,,,0,,,79,0
117720,note_on,5,0,1,,,,,,,,0,,,72,106
117825,note_on,225,0,5,,,,,,,,4,,,48,0
117825,note_on,225,0,6,,,,,,,,5,,,48,0
117835,note_on,115,0,1,,,,,,,,0,,,72,0
117840,note_on,5,0,1,,,,,,,,0,,,79,106
117840,note_on,15,0,6,,,,,,,,5,,,48,85
117840,note_on,15,0,5,,,,,,,,4,,,48,85
117900,note_on,0,0,1,,,,,,,,0,,,81,106
117900,note_on,60,0,1,,,,,,,,0,,,79,0
117960,note_on,0,0,1,,,,,,,,0,,,82,106
117960,note_on,60,0,1,,,,,,,,0,,,81,0
118005,note_on,165,0,6,,,,,,,,5,,,67,0
118005,note_on,0,0,6,,,,,,,,5,,,58,0
118005,note_on,0,0,6,,,,,,,,5,,,64,0
118065,note_on,60,0,6,,,,,,,,5,,,48,0
118065,note_on,225,0,5,,,,,,,,4,,,48,0
118075,note_on,115,0,1,,,,,,,,0,,,82,0
118080,note_on,0,0,6,,,,,,,,5,,,53,85
118080,note_on,0,0,6,,,,,,,,5,,,57,64
118080,note_on,0,0,6,,,,,,,,5,,,60,64
118080,note_on,15,0,6,,,,,,,,5,,,65,64
118080,note_on,15,0,5,,,,,,,,4,,,53,85
118080,note_on,5,0,1,,,,,,,,0,,,81,106
118195,note_on,115,0,1,,,,,,,,0,,,81,0
118200,note_on,5,0,1,,,,,,,,0,,,84,106
118305,note_on,225,0,5,,,,,,,,4,,,53,0
118305,note_on,225,0,6,,,,,,,,5,,,53,0
118315,note_on,115,0,1,,,,,,,,0,,,84,0
118320,note_on,5,0,1,,,,,,,,0,,,81,106
118320,note_on,15,0,6,,,,,,,,5,,,53,85
118320,note_on,15,0,5,,,,,,,,4,,,53,85
118435,note_on,115,0,1,,,,,,,,0,,,81,0
118440,note_on,5,0,1,,,,,,,,0,,,77,106
118525,note_on,0,0,6,,,,,,,,5,,,57,0
118525,note_on,205,0,6,,,,,,,,5,,,65,0
118525,note_on,0,0,6,,,,,,,,5,,,60,0
118545,note_on,20,0,6,,,,,,,,5,,,53,0
118545,note_on,225,0,5,,,,,,,,4,,,53,0
118555,note_on,115,0,1,,,,,,,,0,,,77,0
118560,note_on,15,0,6,,,,,,,,5,,,53,85
118560,note_on,5,0,1,,,,,,,,0,,,72,106
118560,note_on,15,0,5,,,,,,,,4,,,53,85
118675,note_on,115,0,1,,,,,,,,0,,,72,0
118680,note_on,5,0,1,,,,,,,,0,,,77,106
118785,note_on,225,0,6,,,,,,,,5,,,53,0
118785,note_on,225,0,5,,,,,,,,4,,,53,0
118795,note_on,115,0,1,,,,,,,,0,,,77,0
118800,note_on,15,0,5,,,,,,,,4,,,53,85
118800,note_on,5,0,1,,,,,,,,0,,,72,106
118800,note_on,15,0,6,,,,,,,,5,,,53,85
118915,note_on,115,0,1,,,,,,,,0,,,72,0
118920,note_on,5,0,1,,,,,,,,0,,,69,106
119025,note_on,225,0,6,,,,,,,,5,,,53,0
119025,note_on,225,0,5,,,,,,,,4,,,53,0
119035,note_on,115,0,1,,,,,,,,0,,,69,0
119040,note_on,12035,0,4,,,,,,,,3,,,53,85
119040,note_on,12035,0,2,,,,,,,,1,,,65,85
119040,note_on,12035,0,3,,,,,,,,2,,,65,85
119040,note_on,5,0,1,,,,,,,,0,,,65,85
119040,note_on,0,0,6,,,,,,,,5,,,60,64
119040,note_on,0,0,6,,,,,,,,5,,,57,64
119040,note_on,0,0,6,,,,,,,,5,,,41,85
119040,note_on,15,0,6,,,,,,,,5,,,65,64
119040,note_on,15,0,5,,,,,,,,4,,,41,85
119155,note_on,115,0,6,,,,,,,,5,,,41,0
119155,note_on,115,0,5,,,,,,,,4,,,41,0
119155,note_on,115,0,4,,,,,,,,3,,,53,0
119160,note_on,5,0,6,,,,,,,,5,,,43,85
119160,note_on,5,0,5,,,,,,,,4,,,43,85
119160,note_on,5,0,4,,,,,,,,3,,,55,85
119265,note_on,225,0,2,,,,,,,,1,,,65,0
119265,note_on,225,0,1,,,,,,,,0,,,65,0
119265,note_on,225,0,3,,,,,,,,2,,,65,0
119265,note_on,0,0,6,,,,,,,,5,,,57,0
119265,note_on,0,0,6,,,,,,,,5,,,60,0
119265,note_on,105,0,6,,,,,,,,5,,,65,0
119275,note_on,115,0,4,,,,,,,,3,,,55,0
119275,note_on,10,0,6,,,,,,,,5,,,43,0
119275,note_on,115,0,5,,,,,,,,4,,,43,0
119280,note_on,5,0,4,,,,,,,,3,,,57,85
119280,note_on,15,0,3,,,,,,,,2,,,65,85
119280,note_on,15,0,1,,,,,,,,0,,,65,85
119280,note_on,5,0,6,,,,,,,,5,,,45,85
119280,note_on,15,0,2,,,,,,,,1,,,65,85
119280,note_on,5,0,5,,,,,,,,4,,,45,85
119395,note_on,115,0,4,,,,,,,,3,,,57,0
119395,note_on,115,0,5,,,,,,,,4,,,45,0
119395,note_on,115,0,6,,,,,,,,5,,,45,0
119400,note_on,5,0,6,,,,,,,,5,,,46,85
119400,note_on,5,0,4,,,,,,,,3,,,58,85
119400,note_on,5,0,5,,,,,,,,4,,,46,85
119505,note_on,225,0,2,,,,,,,,1,,,65,0
119505,note_on,225,0,3,,,,,,,,2,,,65,0
119505,note_on,225,0,1,,,,,,,,0,,,65,0
119515,note_on,115,0,4,,,,,,,,3,,,58,0
119515,note_on,115,0,5,,,,,,,,4,,,46,0
119515,note_on,115,0,6,,,,,,,,5,,,46,0
119520,note_on,5,0,4,,,,,,,,3,,,60,85
119520,note_on,15,0,2,,,,,,,,1,,,65,85
119520,note_on,5,0,5,,,,,,,,4,,,48,85
119520,note_on,5,0,6,,,,,,,,5,,,48,85
119520,note_on,15,0,1,,,,,,,,0,,,65,85
119520,note_on,15,0,3,,,,,,,,2,,,65,85
119635,note_on,115,0,5,,,,,,,,4,,,48,0
119635,note_on,115,0,4,,,,,,,,3,,,60,0
119635,note_on,115,0,6,,,,,,,,5,,,48,0
119640,note_on,5,0,4,,,,,,,,3,,,62,85
119640,note_on,5,0,5,,,,,,,,4,,,50,85
119640,note_on,5,0,6,,,,,,,,5,,,50,85
119745,note_on,225,0,3,,,,,,,,2,,,65,0
119745,note_on,225,0,2,,,,,,,,1,,,65,0
119745,note_on,225,0,1,,,,,,,,0,,,65,0
119755,note_on,115,0,4,,,,,,,,3,,,62,0
119755,note_on,115,0,6,,,,,,,,5,,,50,0
119755,note_on,115,0,5,,,,,,,,4,,,50,0
119760,note_on,5,0,5,,,,,,,,4,,,52,85
119760,note_on,15,0,1,,,,,,,,0,,,65,85
119760,note_on,15,0,3,,,,,,,,2,,,65,85
119760,note_on,15,0,2,,,,,,,,1,,,65,85
119760,note_on,5,0,4,,,,,,,,3,,,64,85
119760,note_on,5,0,6,,,,,,,,5,,,52,85
119875,note_on,115,0,6,,,,,,,,5,,,52,0
119875,note_on,115,0,4,,,,,,,,3,,,64,0
119875,note_on,115,0,5,,,,,,,,4,,,52,0
119880,note_on,5,0,4,,,,,,,,3,,,65,85
119880,note_on,5,0,6,,,,,,,,5,,,53,85
119880,note_on,5,0,5,,,,,,,,4,,,53,85
119985,note_on,225,0,1,,,,,,,,0,,,65,0
119985,note_on,225,0,3,,,,,,,,2,,,65,0
119985,note_on,225,0,2,,,,,,,,1,,,65,0
119995,note_on,115,0,5,,,,,,,,4,,,53,0
119995,note_on,115,0,6,,,,,,,,5,,,53,0
119995,note_on,115,0,4,,,,,,,,3,,,65,0
120000,note_on,15,0,1,,,,,,,,0,,,65,85
120000,note_on,5,0,5,,,,,,,,4,,,41,85
120000,note_on,5,0,6,,,,,,,,5,,,65,64
120000,note_on,15,0,3,,,,,,,,2,,,65,85
120000,note_on,0,0,6,,,,,,,,5,,,41,85
120000,note_on,5,0,4,,,,,,,,3,,,53,85
120000,note_on,15,0,2,,,,,,,,1,,,65,85
120115,note_on,115,0,3,,,,,,,,2,,,65,0
120115,note_on,115,0,1,,,,,,,,0,,,65,0
120115,note_on,115,0,6,,,,,,,,5,,,65,0
120115,note_on,115,0,2,,,,,,,,1,,,65,0
120120,note_on,5,0,2,,,,,,,,1,,,67,85
120120,note_on,5,0,1,,,,,,,,0,,,67,85
120120,note_on,5,0,3,,,,,,,,2,,,67,85
120120,note_on,5,0,6,,,,,,,,5,,,67,64
120225,note_on,225,0,5,,,,,,,,4,,,41,0
120225,note_on,225,0,4,,,,,,,,3,,,53,0
120225,note_on,105,0,6,,,,,,,,5,,,41,0
120235,note_on,115,0,3,,,,,,,,2,,,67,0
120235,note_on,115,0,2,,,,,,,,1,,,67,0
120235,note_on,115,0,1,,,,,,,,0,,,67,0
120235,note_on,10,0,6,,,,,,,,5,,,67,0
120240,note_on,5,0,6,,,,,,,,5,,,69,64
120240,note_on,0,0,6,,,,,,,,5,,,41,85
120240,note_on,5,0,1,,,,,,,,0,,,69,85
120240,note_on,15,0,4,,,,,,,,3,,,53,85
120240,note_on,5,0,3,,,,,,,,2,,,69,85
120240,note_on,5,0,2,,,,,,,,1,,,69,85
120240,note_on,15,0,5,,,,,,,,4,,,41,85
120355,note_on,115,0,6,,,,,,,,5,,,69,0
120355,note_on,115,0,2,,,,,,,,1,,,69,0
120355,note_on,115,0,3,,,,,,,,2,,,69,0
120355,note_on,115,0,1,,,,,,,,0,,,69,0
120360,note_on,5,0,3,,,,,,,,2,,,70,85
120360,note_on,5,0,6,,,,,,,,5,,,70,64
120360,note_on,5,0,2,,,,,,,,1,,,70,85
120360,note_on,5,0,1,,,,,,,,0,,,70,85
120465,note_on,225,0,5,,,,,,,,4,,,41,0
120465,note_on,225,0,4,,,,,,,,3,,,53,0
120465,note_on,105,0,6,,,,,,,,5,,,41,0
120475,note_on,115,0,1,,,,,,,,0,,,70,0
120475,note_on,10,0,6,,,,,,,,5,,,70,0
120475,note_on,115,0,2,,,,,,,,1,,,70,0
120475,note_on,115,0,3,,,,,,,,2,,,70,0
120480,note_on,5,0,1,,,,,,,,0,,,72,85
120480,note_on,15,0,5,,,,,,,,4,,,41,85
120480,note_on,5,0,6,,,,,,,,5,,,72,64
120480,note_on,0,0,6,,,,,,,,5,,,41,85
120480,note_on,15,0,4,,,,,,,,3,,,53,85
120480,note_on,5,0,3,,,,,,,,2,,,72,85
120480,note_on,5,0,2,,,,,,,,1,,,72,85
120595,note_on,115,0,1,,,,,,,,0,,,72,0
120595,note_on,115,0,6,,,,,,,,5,,,72,0
120595,note_on,115,0,3,,,,,,,,2,,,72,0
120595,note_on,115,0,2,,,,,,,,1,,,72,0
120600,note_on,5,0,2,,,,,,,,1,,,74,85
120600,note_on,5,0,3,,,,,,,,2,,,74,85
120600,note_on,5,0,1,,,,,,,,0,,,74,85
120600,note_on,5,0,6,,,,,,,,5,,,74,64
120705,note_on,105,0,6,,,,,,,,5,,,41,0
120705,note_on,225,0,4,,,,,,,,3,,,53,0
120705,note_on,225,0,5,,,,,,,,4,,,41,0
120715,note_on,115,0,3,,,,,,,,2,,,74,0
120715,note_on,10,0,6,,,,,,,,5,,,74,0
120715,note_on,115,0,2,,,,,,,,1,,,74,0
120715,note_on,115,0,1,,,,,,,,0,,,74,0
120720,note_on,15,0,4,,,,,,,,3,,,53,85
120720,note_on,15,0,5,,,,,,,,4,,,41,85
120720,note_on,5,0,2,,,,,,,,1,,,76,85
120720,note_on,0,0,6,,,,,,,,5,,,41,85
120720,note_on,5,0,6,,,,,,,,5,,,76,64
120720,note_on,5,0,3,,,,,,,,2,,,76,85
120720,note_on,5,0,1,,,,,,,,0,,,76,85
120835,note_on,115,0,3,,,,,,,,2,,,76,0
120835,note_on,115,0,1,,,,,,,,0,,,76,0
120835,note_on,115,0,2,,,,,,,,1,,,76,0
120835,note_on,115,0,6,,,,,,,,5,,,76,0
120840,note_on,5,0,3,,,,,,,,2,,,77,85
120840,note_on,5,0,2,,,,,,,,1,,,77,85
120840,note_on,5,0,1,,,,,,,,0,,,77,85
120840,note_on,5,0,6,,,,,,,,5,,,77,64
120945,note_on,225,0,5,,,,,,,,4,,,41,0
120945,note_on,225,0,4,,,,,,,,3,,,53,0
120945,note_on,105,0,6,,,,,,,,5,,,41,0
120955,note_on,115,0,3,,,,,,,,2,,,77,0
120955,note_on,115,0,2,,,,,,,,1,,,77,0
120955,note_on,115,0,1,,,,,,,,0,,,77,0
120955,note_on,10,0,6,,,,,,,,5,,,77,0
120960,note_on,5,0,6,,,,,,,,5,,,65,64
120960,note_on,5,0,1,,,,,,,,0,,,65,85
120960,note_on,5,0,3,,,,,,,,2,,,65,85
120960,note_on,15,0,5,,,,,,,,4,,,41,85
120960,note_on,15,0,4,,,,,,,,3,,,53,85
120960,note_on,5,0,2,,,,,,,,1,,,65,85
120960,note_on,0,0,6,,,,,,,,5,,,41,85
121075,note_on,115,0,4,,,,,,,,3,,,53,0
121075,note_on,115,0,6,,,,,,,,5,,,41,0
121075,note_on,115,0,5,,,,,,,,4,,,41,0
121080,note_on,5,0,4,,,,,,,,3,,,55,85
121080,note_on,5,0,5,,,,,,,,4,,,43,85
121080,note_on,5,0,6,,,,,,,,5,,,43,85
121185,note_on,105,0,6,,,,,,,,5,,,65,0
121185,note_on,225,0,3,,,,,,,,2,,,65,0
121185,note_on,225,0,2,,,,,,,,1,,,65,0
121185,note_on,225,0,1,,,,,,,,0,,,65,0
121195,note_on,10,0,6,,,,,,,,5,,,43,0
121195,note_on,115,0,4,,,,,,,,3,,,55,0
121195,note_on,115,0,5,,,,,,,,4,,,43,0
121200,note_on,15,0,2,,,,,,,,1,,,65,85
121200,note_on,5,0,4,,,,,,,,3,,,57,85
121200,note_on,15,0,1,,,,,,,,0,,,65,85
121200,note_on,5,0,5,,,,,,,,4,,,45,85
121200,note_on,5,0,6,,,,,,,,5,,,65,64
121200,note_on,0,0,6,,,,,,,,5,,,45,85
121200,note_on,15,0,3,,,,,,,,2,,,65,85
121315,note_on,115,0,4,,,,,,,,3,,,57,0
121315,note_on,115,0,5,,,,,,,,4,,,45,0
121315,note_on,115,0,6,,,,,,,,5,,,45,0
121320,note_on,5,0,4,,,,,,,,3,,,58,85
121320,note_on,5,0,5,,,,,,,,4,,,46,85
121320,note_on,5,0,6,,,,,,,,5,,,46,85
121425,note_on,225,0,3,,,,,,,,2,,,65,0
121425,note_on,225,0,2,,,,,,,,1,,,65,0
121425,note_on,105,0,6,,,,,,,,5,,,65,0
121425,note_on,225,0,1,,,,,,,,0,,,65,0
121435,note_on,115,0,5,,,,,,,,4,,,46,0
121435,note_on,115,0,4,,,,,,,,3,,,58,0
121435,note_on,10,0,6,,,,,,,,5,,,46,0
121440,note_on,5,0,6,,,,,,,,5,,,65,64
121440,note_on,0,0,6,,,,,,,,5,,,48,85
121440,note_on,5,0,5,,,,,,,,4,,,48,85
121440,note_on,15,0,3,,,,,,,,2,,,65,85
121440,note_on,15,0,1,,,,,,,,0,,,65,85
121440,note_on,15,0,2,,,,,,,,1,,,65,85
121440,note_on,5,0,4,,,,,,,,3,,,60,85
121555,note_on,115,0,6,,,,,,,,5,,,48,0
121555,note_on,115,0,5,,,,,,,,4,,,48,0
121555,note_on,115,0,4,,,,,,,,3,,,60,0
121560,note_on,5,0,5,,,,,,,,4,,,50,85
121560,note_on,5,0,4,,,,,,,,3,,,62,85
121560,note_on,5,0,6,,,,,,,,5,,,50,85
121665,note_on,225,0,3,,,,,,,,2,,,65,0
121665,note_on,105,0,6,,,,,,,,5,,,65,0
121665,note_on,225,0,1,,,,,,,,0,,,65,0
121665,note_on,225,0,2,,,,,,,,1,,,65,0
121675,note_on,10,0,6,,,,,,,,5,,,50,0
121675,note_on,115,0,5,,,,,,,,4,,,50,0
121675,note_on,115,0,4,,,,,,,,3,,,62,0
121680,note_on,5,0,5,,,,,,,,4,,,52,85
121680,note_on,5,0,6,,,,,,,,5,,,65,64
121680,note_on,0,0,6,,,,,,,,5,,,52,85
121680,note_on,15,0,3,,,,,,,,2,,,65,85
121680,note_on,5,0,4,,,,,,,,3,,,64,85
121680,note_on,15,0,2,,,,,,,,1,,,65,85
121680,note_on,15,0,1,,,,,,,,0,,,65,85
121795,note_on,115,0,5,,,,,,,,4,,,52,0
121795,note_on,115,0,6,,,,,,,,5,,,52,0
121795,note_on,115,0,4,,,,,,,,3,,,64,0
121800,note_on,5,0,4,,,,,,,,3,,,65,85
121800,note_on,5,0,5,,,,,,,,4,,,53,85
121800,note_on,5,0,6,,,,,,,,5,,,53,85
121905,note_on,225,0,1,,,,,,,,0,,,65,0
121905,note_on,225,0,2,,,,,,,,1,,,65,0
121905,note_on,225,0,3,,,,,,,,2,,,65,0
121905,note_on,105,0,6,,,,,,,,5,,,65,0
121915,note_on,115,0,4,,,,,,,,3,,,65,0
121915,note_on,115,0,5,,,,,,,,4,,,53,0
121915,note_on,10,0,6,,,,,,,,5,,,53,0
121920,note_on,15,0,1,,,,,,,,0,,,65,85
121920,note_on,5,0,5,,,,,,,,4,,,41,85
121920,note_on,5,0,4,,,,,,,,3,,,53,85
121920,note_on,5,0,6,,,,,,,,5,,,65,64
121920,note_on,0,0,6,,,,,,,,5,,,41,85
121920,note_on,15,0,3,,,,,,,,2,,,65,85
121920,note_on,15,0,2,,,,,,,,1,,,65,85
122035,note_on,115,0,3,,,,,,,,2,,,65,0
122035,note_on,115,0,2,,,,,,,,1,,,65,0
122035,note_on,115,0,6,,,,,,,,5,,,65,0
122035,note_on,115,0,1,,,,,,,,0,,,65,0
122040,note_on,5,0,2,,,,,,,,1,,,67,85
122040,note_on,5,0,3,,,,,,,,2,,,67,85
122040,note_on,5,0,6,,,,,,,,5,,,67,64
122040,note_on,5,0,1,,,,,,,,0,,,67,85
122145,note_on,225,0,4,,,,,,,,3,,,53,0
122145,note_on,225,0,5,,,,,,,,4,,,41,0
122145,note_on,105,0,6,,,,,,,,5,,,41,0
122155,note_on,115,0,1,,,,,,,,0,,,67,0
122155,note_on,115,0,2,,,,,,,,1,,,67,0
122155,note_on,10,0,6,,,,,,,,5,,,67,0
122155,note_on,115,0,3,,,,,,,,2,,,67,0
122160,note_on,15,0,5,,,,,,,,4,,,41,85
122160,note_on,5,0,3,,,,,,,,2,,,69,85
122160,note_on,15,0,4,,,,,,,,3,,,53,85
122160,note_on,0,0,6,,,,,,,,5,,,41,85
122160,note_on,5,0,6,,,,,,,,5,,,69,64
122160,note_on,5,0,1,,,,,,,,0,,,69,85
122160,note_on,5,0,2,,,,,,,,1,,,69,85
122275,note_on,115,0,3,,,,,,,,2,,,69,0
122275,note_on,115,0,2,,,,,,,,1,,,69,0
122275,note_on,115,0,6,,,,,,,,5,,,69,0
122275,note_on,115,0,1,,,,,,,,0,,,69,0
122280,note_on,5,0,3,,,,,,,,2,,,70,85
122280,note_on,5,0,1,,,,,,,,0,,,70,85
122280,note_on,5,0,2,,,,,,,,1,,,70,85
122280,note_on,5,0,6,,,,,,,,5,,,70,64
122385,note_on,105,0,6,,,,,,,,5,,,41,0
122385,note_on,225,0,4,,,,,,,,3,,,53,0
122385,note_on,225,0,5,,,,,,,,4,,,41,0
122395,note_on,115,0,2,,,,,,,,1,,,70,0
122395,note_on,115,0,1,,,,,,,,0,,,70,0
122395,note_on,10,0,6,,,,,,,,5,,,70,0
122395,note_on,115,0,3,,,,,,,,2,,,70,0
122400,note_on,5,0,1,,,,,,,,0,,,72,85
122400,note_on,5,0,2,,,,,,,,1,,,72,85
122400,note_on,5,0,6,,,,,,,,5,,,72,64
122400,note_on,15,0,4,,,,,,,,3,,,53,85
122400,note_on,0,0,6,,,,,,,,5,,,41,85
122400,note_on,5,0,3,,,,,,,,2,,,72,85
122400,note_on,15,0,5,,,,,,,,4,,,41,85
122515,note_on,115,0,1,,,,,,,,0,,,72,0
122515,note_on,115,0,2,,,,,,,,1,,,72,0
122515,note_on,115,0,6,,,,,,,,5,,,72,0
122515,note_on,115,0,3,,,,,,,,2,,,72,0
122520,note_on,5,0,3,,,,,,,,2,,,74,85
122520,note_on,5,0,1,,,,,,,,0,,,74,85
122520,note_on,5,0,2,,,,,,,,1,,,74,85
122520,note_on,5,0,6,,,,,,,,5,,,74,64
122625,note_on,225,0,4,,,,,,,,3,,,53,0
122625,note_on,105,0,6,,,,,,,,5,,,41,0
122625,note_on,225,0,5,,,,,,,,4,,,41,0
122635,note_on,115,0,2,,,,,,,,1,,,74,0
122635,note_on,115,0,1,,,,,,,,0,,,74,0
122635,note_on,10,0,6,,,,,,,,5,,,74,0
122635,note_on,115,0,3,,,,,,,,2,,,74,0
122640,note_on,5,0,2,,,,,,,,1,,,76,85
122640,note_on,5,0,6,,,,,,,,5,,,76,64
122640,note_on,15,0,4,,,,,,,,3,,,53,85
122640,note_on,5,0,1,,,,,,,,0,,,76,85
122640,note_on,15,0,5,,,,,,,,4,,,41,85
122640,note_on,5,0,3,,,,,,,,2,,,76,85
122640,note_on,0,0,6,,,,,,,,5,,,41,85
122755,note_on,115,0,1,,,,,,,,0,,,76,0
122755,note_on,115,0,6,,,,,,,,5,,,76,0
122755,note_on,115,0,2,,,,,,,,1,,,76,0
122755,note_on,115,0,3,,,,,,,,2,,,76,0
122760,note_on,5,0,6,,,,,,,,5,,,77,64
122760,note_on,5,0,2,,,,,,,,1,,,77,85
122760,note_on,5,0,3,,,,,,,,2,,,77,85
122760,note_on,5,0,1,,,,,,,,0,,,77,85
122865,note_on,105,0,6,,,,,,,,5,,,41,0
122865,note_on,225,0,4,,,,,,,,3,,,53,0
122865,note_on,225,0,5,,,,,,,,4,,,41,0
122875,note_on,10,0,6,,,,,,,,5,,,77,0
122875,note_on,115,0,3,,,,,,,,2,,,77,0
122875,note_on,115,0,1,,,,,,,,0,,,77,0
122875,note_on,115,0,2,,,,,,,,1,,,77,0
122880,note_on,5,0,2,,,,,,,,1,,,72,85
122880,note_on,0,0,6,,,,,,,,5,,,48,85
122880,note_on,5,0,6,,,,,,,,5,,,72,64
122880,note_on,5,0,1,,,,,,,,0,,,72,85
122880,note_on,15,0,5,,,,,,,,4,,,48,85
122880,note_on,15,0,4,,,,,,,,3,,,60,85
122880,note_on,5,0,3,,,,,,,,2,,,72,85
122995,note_on,115,0,4,,,,,,,,3,,,60,0
122995,note_on,115,0,6,,,,,,,,5,,,48,0
122995,note_on,115,0,5,,,,,,,,4,,,48,0
123000,note_on,5,0,5,,,,,,,,4,,,50,85
123000,note_on,5,0,4,,,,,,,,3,,,62,85
123000,note_on,5,0,6,,,,,,,,5,,,50,85
123105,note_on,225,0,1,,,,,,,,0,,,72,0
123105,note_on,105,0,6,,,,,,,,5,,,72,0
123105,note_on,225,0,3,,,,,,,,2,,,72,0
123105,note_on,225,0,2,,,,,,,,1,,,72,0
123115,note_on,115,0,5,,,,,,,,4,,,50,0
123115,note_on,10,0,6,,,,,,,,5,,,50,0
123115,note_on,115,0,4,,,,,,,,3,,,62,0
123120,note_on,5,0,5,,,,,,,,4,,,52,85
123120,note_on,15,0,1,,,,,,,,0,,,72,85
123120,note_on,15,0,3,,,,,,,,2,,,72,85
123120,note_on,0,0,6,,,,,,,,5,,,52,85
123120,note_on,5,0,6,,,,,,,,5,,,72,64
123120,note_on,15,0,2,,,,,,,,1,,,72,85
123120,note_on,5,0,4,,,,,,,,3,,,64,85
123235,note_on,115,0,6,,,,,,,,5,,,52,0
123235,note_on,115,0,4,,,,,,,,3,,,64,0
123235,note_on,115,0,5,,,,,,,,4,,,52,0
123240,note_on,5,0,6,,,,,,,,5,,,53,85
123240,note_on,5,0,4,,,,,,,,3,,,65,85
123240,note_on,5,0,5,,,,,,,,4,,,53,85
123345,note_on,105,0,6,,,,,,,,5,,,72,0
123345,note_on,225,0,2,,,,,,,,1,,,72,0
123345,note_on,225,0,3,,,,,,,,2,,,72,0
123345,note_on,225,0,1,,,,,,,,0,,,72,0
123355,note_on,115,0,4,,,,,,,,3,,,65,0
123355,note_on,115,0,5,,,,,,,,4,,,53,0
123355,note_on,10,0,6,,,,,,,,5,,,53,0
123360,note_on,5,0,4,,,,,,,,3,,,67,85
123360,note_on,5,0,5,,,,,,,,4,,,55,85
123360,note_on,15,0,2,,,,,,,,1,,,72,85
123360,note_on,5,0,6,,,,,,,,5,,,72,64
123360,note_on,0,0,6,,,,,,,,5,,,55,85
123360,note_on,15,0,1,,,,,,,,0,,,72,85
123360,note_on,15,0,3,,,,,,,,2,,,72,85
123475,note_on,115,0,6,,,,,,,,5,,,55,0
123475,note_on,115,0,4,,,,,,,,3,,,67,0
123475,note_on,115,0,5,,,,,,,,4,,,55,0
123480,note_on,5,0,4,,,,,,,,3,,,69,85
123480,note_on,5,0,6,,,,,,,,5,,,57,85
123480,note_on,5,0,5,,,,,,,,4,,,57,85
123585,note_on,105,0,6,,,,,,,,5,,,72,0
123585,note_on,225,0,1,,,,,,,,0,,,72,0
123585,note_on,225,0,2,,,,,,,,1,,,72,0
123585,note_on,225,0,3,,,,,,,,2,,,72,0
123595,note_on,115,0,4,,,,,,,,3,,,69,0
123595,note_on,10,0,6,,,,,,,,5,,,57,0
123595,note_on,115,0,5,,,,,,,,4,,,57,0
123600,note_on,15,0,1,,,,,,,,0,,,72,85
123600,note_on,15,0,3,,,,,,,,2,,,72,85
123600,note_on,15,0,2,,,,,,,,1,,,72,85
123600,note_on,0,0,6,,,,,,,,5,,,58,85
123600,note_on,5,0,5,,,,,,,,4,,,58,85
123600,note_on,5,0,4,,,,,,,,3,,,70,85
123600,note_on,5,0,6,,,,,,,,5,,,72,64
123715,note_on,115,0,6,,,,,,,,5,,,58,0
123715,note_on,115,0,5,,,,,,,,4,,,58,0
123715,note_on,115,0,4,,,,,,,,3,,,70,0
123720,note_on,5,0,5,,,,,,,,4,,,60,85
123720,note_on,5,0,4,,,,,,,,3,,,72,85
123720,note_on,5,0,6,,,,,,,,5,,,60,85
123825,note_on,225,0,2,,,,,,,,1,,,72,0
123825,note_on,105,0,6,,,,,,,,5,,,72,0
123825,note_on,225,0,1,,,,,,,,0,,,72,0
123825,note_on,225,0,3,,,,,,,,2,,,72,0
123835,note_on,115,0,4,,,,,,,,3,,,72,0
123835,note_on,115,0,5,,,,,,,,4,,,60,0
123835,note_on,10,0,6,,,,,,,,5,,,60,0
123840,note_on,5,0,5,,,,,,,,4,,,48,85
123840,note_on,5,0,6,,,,,,,,5,,,72,64
123840,note_on,15,0,3,,,,,,,,2,,,60,85
123840,note_on,0,0,6,,,,,,,,5,,,48,85
123840,note_on,5,0,4,,,,,,,,3,,,60,85
123840,note_on,15,0,2,,,,,,,,1,,,60,85
123840,note_on,15,0,1,,,,,,,,0,,,72,85
123955,note_on,115,0,1,,,,,,,,0,,,72,0
123955,note_on,115,0,3,,,,,,,,2,,,60,0
123955,note_on,115,0,6,,,,,,,,5,,,72,0
123955,note_on,115,0,2,,,,,,,,1,,,60,0
123960,note_on,5,0,3,,,,,,,,2,,,62,85
123960,note_on,5,0,6,,,,,,,,5,,,74,64
123960,note_on,5,0,2,,,,,,,,1,,,62,85
123960,note_on,5,0,1,,,,,,,,0,,,74,85
124065,note_on,225,0,5,,,,,,,,4,,,48,0
124065,note_on,225,0,4,,,,,,,,3,,,60,0
124065,note_on,105,0,6,,,,,,,,5,,,48,0
124075,note_on,115,0,2,,,,,,,,1,,,62,0
124075,note_on,10,0,6,,,,,,,,5,,,74,0
124075,note_on,115,0,3,,,,,,,,2,,,62,0
124075,note_on,115,0,1,,,,,,,,0,,,74,0
124080,note_on,0,0,6,,,,,,,,5,,,48,85
124080,note_on,5,0,2,,,,,,,,1,,,64,85
124080,note_on,5,0,6,,,,,,,,5,,,76,64
124080,note_on,15,0,4,,,,,,,,3,,,60,85
124080,note_on,5,0,1,,,,,,,,0,,,76,85
124080,note_on,5,0,3,,,,,,,,2,,,64,85
124080,note_on,15,0,5,,,,,,,,4,,,48,85
124195,note_on,115,0,6,,,,,,,,5,,,76,0
124195,note_on,115,0,3,,,,,,,,2,,,64,0
124195,note_on,115,0,1,,,,,,,,0,,,76,0
124195,note_on,115,0,2,,,,,,,,1,,,64,0
124200,note_on,5,0,3,,,,,,,,2,,,65,85
124200,note_on,5,0,6,,,,,,,,5,,,77,64
124200,note_on,5,0,1,,,,,,,,0,,,77,85
124200,note_on,5,0,2,,,,,,,,1,,,65,85
124305,note_on,225,0,4,,,,,,,,3,,,60,0
124305,note_on,105,0,6,,,,,,,,5,,,48,0
124305,note_on,225,0,5,,,,,,,,4,,,48,0
124315,note_on,10,0,6,,,,,,,,5,,,77,0
124315,note_on,115,0,2,,,,,,,,1,,,65,0
124315,note_on,115,0,3,,,,,,,,2,,,65,0
124315,note_on,115,0,1,,,,,,,,0,,,77,0
124320,note_on,5,0,2,,,,,,,,1,,,67,85
124320,note_on,5,0,3,,,,,,,,2,,,67,85
124320,note_on,5,0,1,,,,,,,,0,,,79,85
124320,note_on,15,0,5,,,,,,,,4,,,48,85
124320,note_on,15,0,4,,,,,,,,3,,,60,85
124320,note_on,5,0,6,,,,,,,,5,,,79,64
124320,note_on,0,0,6,,,,,,,,5,,,48,85
124435,note_on,115,0,3,,,,,,,,2,,,67,0
124435,note_on,115,0,1,,,,,,,,0,,,79,0
124435,note_on,115,0,2,,,,,,,,1,,,67,0
124435,note_on,115,0,6,,,,,,,,5,,,79,0
124440,note_on,5,0,1,,,,,,,,0,,,81,85
124440,note_on,5,0,6,,,,,,,,5,,,81,64
124440,note_on,5,0,3,,,,,,,,2,,,69,85
124440,note_on,5,0,2,,,,,,,,1,,,69,85
124545,note_on,225,0,5,,,,,,,,4,,,48,0
124545,note_on,105,0,6,,,,,,,,5,,,48,0
124545,note_on,225,0,4,,,,,,,,3,,,60,0
124555,note_on,115,0,1,,,,,,,,0,,,81,0
124555,note_on,115,0,3,,,,,,,,2,,,69,0
124555,note_on,115,0,2,,,,,,,,1,,,69,0
124555,note_on,10,0,6,,,,,,,,5,,,81,0
124560,note_on,5,0,1,,,,,,,,0,,,82,85
124560,note_on,15,0,5,,,,,,,,4,,,48,85
124560,note_on,5,0,3,,,,,,,,2,,,70,85
124560,note_on,15,0,4,,,,,,,,3,,,60,85
124560,note_on,5,0,2,,,,,,,,1,,,70,85
124560,note_on,5,0,6,,,,,,,,5,,,82,64
124560,note_on,0,0,6,,,,,,,,5,,,48,85
124675,note_on,115,0,3,,,,,,,,2,,,70,0
124675,note_on,115,0,2,,,,,,,,1,,,70,0
124675,note_on,115,0,6,,,,,,,,5,,,82,0
124675,note_on,115,0,1,,,,,,,,0,,,82,0
124680,note_on,5,0,3,,,,,,,,2,,,72,85
124680,note_on,5,0,2,,,,,,,,1,,,72,85
124680,note_on,5,0,6,,,,,,,,5,,,84,64
124680,note_on,5,0,1,,,,,,,,0,,,84,85
124785,note_on,225,0,5,,,,,,,,4,,,48,0
124785,note_on,105,0,6,,,,,,,,5,,,48,0
124785,note_on,225,0,4,,,,,,,,3,,,60,0
124795,note_on,115,0,2,,,,,,,,1,,,72,0
124795,note_on,10,0,6,,,,,,,,5,,,84,0
124795,note_on,115,0,3,,,,,,,,2,,,72,0
124795,note_on,115,0,1,,,,,,,,0,,,84,0
124800,note_on,5,0,1,,,,,,,,0,,,72,85
124800,note_on,15,0,4,,,,,,,,3,,,60,85
124800,note_on,5,0,6,,,,,,,,5,,,72,64
124800,note_on,5,0,3,,,,,,,,2,,,60,85
124800,note_on,0,0,6,,,,,,,,5,,,48,85
124800,note_on,5,0,2,,,,,,,,1,,,60,85
124800,note_on,15,0,5,,,,,,,,4,,,48,85
124915,note_on,115,0,5,,,,,,,,4,,,48,0
124915,note_on,115,0,6,,,,,,,,5,,,48,0
124915,note_on,115,0,4,,,,,,,,3,,,60,0
124920,note_on,5,0,4,,,,,,,,3,,,62,85
124920,note_on,5,0,5,,,,,,,,4,,,50,85
124920,note_on,5,0,6,,,,,,,,5,,,50,85
125025,note_on,225,0,1,,,,,,,,0,,,72,0
125025,note_on,105,0,6,,,,,,,,5,,,72,0
125025,note_on,225,0,3,,,,,,,,2,,,60,0
125025,note_on,225,0,2,,,,,,,,1,,,60,0
125035,note_on,115,0,4,,,,,,,,3,,,62,0
125035,note_on,10,0,6,,,,,,,,5,,,50,0
125035,note_on,115,0,5,,,,,,,,4,,,50,0
125040,note_on,15,0,2,,,,,,,,1,,,60,85
125040,note_on,15,0,3,,,,,,,,2,,,60,85
125040,note_on,15,0,1,,,,,,,,0,,,72,85
125040,note_on,5,0,4,,,,,,,,3,,,64,85
125040,note_on,5,0,5,,,,,,,,4,,,52,85
125040,note_on,5,0,6,,,,,,,,5,,,72,64
125040,note_on,0,0,6,,,,,,,,5,,,52,85
125155,note_on,115,0,6,,,,,,,,5,,,52,0
125155,note_on,115,0,4,,,,,,,,3,,,64,0
125155,note_on,115,0,5,,,,,,,,4,,,52,0
125160,note_on,5,0,5,,,,,,,,4,,,53,85
125160,note_on,5,0,4,,,,,,,,3,,,65,85
125160,note_on,5,0,6,,,,,,,,5,,,53,85
125265,note_on,105,0,6,,,,,,,,5,,,72,0
125265,note_on,225,0,1,,,,,,,,0,,,72,0
125265,note_on,225,0,3,,,,,,,,2,,,60,0
125265,note_on,225,0,2,,,,,,,,1,,,60,0
125275,note_on,115,0,5,,,,,,,,4,,,53,0
125275,note_on,10,0,6,,,,,,,,5,,,53,0
125275,note_on,115,0,4,,,,,,,,3,,,65,0
125280,note_on,15,0,1,,,,,,,,0,,,72,85
125280,note_on,5,0,5,,,,,,,,4,,,55,85
125280,note_on,15,0,3,,,,,,,,2,,,60,85
125280,note_on,5,0,6,,,,,,,,5,,,72,64
125280,note_on,0,0,6,,,,,,,,5,,,55,85
125280,note_on,15,0,2,,,,,,,,1,,,60,85
125280,note_on,5,0,4,,,,,,,,3,,,67,85
125395,note_on,115,0,5,,,,,,,,4,,,55,0
125395,note_on,115,0,6,,,,,,,,5,,,55,0
125395,note_on,115,0,4,,,,,,,,3,,,67,0
125400,note_on,5,0,5,,,,,,,,4,,,57,85
125400,note_on,5,0,6,,,,,,,,5,,,57,85
125400,note_on,5,0,4,,,,,,,,3,,,69,85
125505,note_on,105,0,6,,,,,,,,5,,,72,0
125505,note_on,225,0,1,,,,,,,,0,,,72,0
125505,note_on,225,0,3,,,,,,,,2,,,60,0
125505,note_on,225,0,2,,,,,,,,1,,,60,0
125515,note_on,10,0,6,,,,,,,,5,,,57,0
125515,note_on,115,0,5,,,,,,,,4,,,57,0
125515,note_on,115,0,4,,,,,,,,3,,,69,0
125520,note_on,15,0,2,,,,,,,,1,,,60,85
125520,note_on,15,0,1,,,,,,,,0,,,72,85
125520,note_on,5,0,5,,,,,,,,4,,,58,85
125520,note_on,15,0,3,,,,,,,,2,,,60,85
125520,note_on,5,0,4,,,,,,,,3,,,70,85
125520,note_on,5,0,6,,,,,,,,5,,,72,64
125520,note_on,0,0,6,,,,,,,,5,,,58,85
125635,note_on,115,0,5,,,,,,,,4,,,58,0
125635,note_on,115,0,4,,,,,,,,3,,,70,0
125635,note_on,115,0,6,,,,,,,,5,,,58,0
125640,note_on,5,0,5,,,,,,,,4,,,60,85
125640,note_on,5,0,4,,,,,,,,3,,,72,85
125640,note_on,5,0,6,,,,,,,,5,,,60,85
125745,note_on,225,0,1,,,,,,,,0,,,72,0
125745,note_on,225,0,2,,,,,,,,1,,,60,0
125745,note_on,105,0,6,,,,,,,,5,,,72,0
125745,note_on,225,0,3,,,,,,,,2,,,60,0
125755,note_on,10,0,6,,,,,,,,5,,,60,0
125755,note_on,115,0,5,,,,,,,,4,,,60,0
125755,note_on,115,0,4,,,,,,,,3,,,72,0
125760,note_on,15,0,2,,,,,,,,1,,,60,85
125760,note_on,15,0,3,,,,,,,,2,,,60,85
125760,note_on,5,0,4,,,,,,,,3,,,60,85
125760,note_on,5,0,6,,,,,,,,5,,,72,64
125760,note_on,0,0,6,,,,,,,,5,,,48,85
125760,note_on,15,0,1,,,,,,,,0,,,72,85
125760,note_on,5,0,5,,,,,,,,4,,,48,85
125875,note_on,115,0,3,,,,,,,,2,,,60,0
125875,note_on,115,0,6,,,,,,,,5,,,72,0
125875,note_on,115,0,1,,,,,,,,0,,,72,0
125875,note_on,115,0,2,,,,,,,,1,,,60,0
125880,note_on,5,0,3,,,,,,,,2,,,62,85
125880,note_on,5,0,1,,,,,,,,0,,,74,85
125880,note_on,5,0,6,,,,,,,,5,,,74,64
125880,note_on,5,0,2,,,,,,,,1,,,62,85
125985,note_on,225,0,4,,,,,,,,3,,,60,0
125985,note_on,225,0,5,,,,,,,,4,,,48,0
125985,note_on,105,0,6,,,,,,,,5,,,48,0
125995,note_on,115,0,3,,,,,,,,2,,,62,0
125995,note_on,10,0,6,,,,,,,,5,,,74,0
125995,note_on,115,0,1,,,,,,,,0,,,74,0
125995,note_on,115,0,2,,,,,,,,1,,,62,0
126000,note_on,15,0,5,,,,,,,,4,,,48,85
126000,note_on,5,0,1,,,,,,,,0,,,76,85
126000,note_on,15,0,4,,,,,,,,3,,,60,85
126000,note_on,0,0,6,,,,,,,,5,,,48,85
126000,note_on,5,0,6,,,,,,,,5,,,76,64
126000,note_on,5,0,2,,,,,,,,1,,,64,85
126000,note_on,5,0,3,,,,,,,,2,,,64,85
126115,note_on,115,0,2,,,,,,,,1,,,64,0
126115,note_on,115,0,3,,,,,,,,2,,,64,0
126115,note_on,115,0,6,,,,,,,,5,,,76,0
126115,note_on,115,0,1,,,,,,,,0,,,76,0
126120,note_on,5,0,2,,,,,,,,1,,,65,85
126120,note_on,5,0,6,,,,,,,,5,,,77,64
126120,note_on,5,0,3,,,,,,,,2,,,65,85
126120,note_on,5,0,1,,,,,,,,0,,,77,85
126225,note_on,225,0,4,,,,,,,,3,,,60,0
126225,note_on,225,0,5,,,,,,,,4,,,48,0
126225,note_on,105,0,6,,,,,,,,5,,,48,0
126235,note_on,115,0,2,,,,,,,,1,,,65,0
126235,note_on,115,0,3,,,,,,,,2,,,65,0
126235,note_on,10,0,6,,,,,,,,5,,,77,0
126235,note_on,115,0,1,,,,,,,,0,,,77,0
126240,note_on,5,0,1,,,,,,,,0,,,79,85
126240,note_on,5,0,6,,,,,,,,5,,,79,64
126240,note_on,0,0,6,,,,,,,,5,,,48,85
126240,note_on,15,0,5,,,,,,,,4,,,48,85
126240,note_on,5,0,2,,,,,,,,1,,,67,85
126240,note_on,15,0,4,,,,,,,,3,,,60,85
126240,note_on,5,0,3,,,,,,,,2,,,67,85
126355,note_on,115,0,1,,,,,,,,0,,,79,0
126355,note_on,115,0,6,,,,,,,,5,,,79,0
126355,note_on,115,0,3,,,,,,,,2,,,67,0
126355,note_on,115,0,2,,,,,,,,1,,,67,0
126360,note_on,5,0,3,,,,,,,,2,,,69,85
126360,note_on,5,0,6,,,,,,,,5,,,81,64
126360,note_on,5,0,2,,,,,,,,1,,,69,85
126360,note_on,5,0,1,,,,,,,,0,,,81,85
126465,note_on,225,0,5,,,,,,,,4,,,48,0
126465,note_on,105,0,6,,,,,,,,5,,,48,0
126465,note_on,225,0,4,,,,,,,,3,,,60,0
126475,note_on,115,0,2,,,,,,,,1,,,69,0
126475,note_on,115,0,3,,,,,,,,2,,,69,0
126475,note_on,115,0,1,,,,,,,,0,,,81,0
126475,note_on,10,0,6,,,,,,,,5,,,81,0
126480,note_on,5,0,1,,,,,,,,0,,,82,85
126480,note_on,15,0,5,,,,,,,,4,,,48,85
126480,note_on,5,0,6,,,,,,,,5,,,82,64
126480,note_on,5,0,2,,,,,,,,1,,,70,85
126480,note_on,0,0,6,,,,,,,,5,,,48,85
126480,note_on,15,0,4,,,,,,,,3,,,60,85
126480,note_on,5,0,3,,,,,,,,2,,,70,85
126595,note_on,115,0,3,,,,,,,,2,,,70,0
126595,note_on,115,0,2,,,,,,,,1,,,70,0
126595,note_on,115,0,1,,,,,,,,0,,,82,0
126595,note_on,115,0,6,,,,,,,,5,,,82,0
126600,note_on,5,0,6,,,,,,,,5,,,84,64
126600,note_on,5,0,3,,,,,,,,2,,,72,85
126600,note_on,5,0,2,,,,,,,,1,,,72,85
126600,note_on,5,0,1,,,,,,,,0,,,84,85
126705,note_on,225,0,4,,,,,,,,3,,,60,0
126705,note_on,105,0,6,,,,,,,,5,,,48,0
126705,note_on,225,0,5,,,,,,,,4,,,48,0
126715,note_on,115,0,2,,,,,,,,1,,,72,0
126715,note_on,10,0,6,,,,,,,,5,,,84,0
126715,note_on,115,0,1,,,,,,,,0,,,84,0
126715,note_on,115,0,3,,,,,,,,2,,,72,0
126720,note_on,5,0,2,,,,,,,,1,,,82,85
126720,note_on,0,0,6,,,,,,,,5,,,48,85
126720,note_on,5,0,3,,,,,,,,2,,,79,85
126720,note_on,15,0,4,,,,,,,,3,,,60,85
126720,note_on,0,0,6,,,,,,,,5,,,72,64
126720,note_on,0,0,6,,,,,,,,5,,,79,64
126720,note_on,5,0,6,,,,,,,,5,,,82,64
126720,note_on,5,0,1,,,,,,,,0,,,82,85
126720,note_on,15,0,5,,,,,,,,4,,,48,85
126835,note_on,115,0,3,,,,,,,,2,,,79,0
126835,note_on,115,0,1,,,,,,,,0,,,82,0
126835,note_on,115,0,2,,,,,,,,1,,,82,0
126840,note_on,5,0,2,,,,,,,,1,,,79,85
126840,note_on,5,0,3,,,,,,,,2,,,76,85
126840,note_on,5,0,1,,,,,,,,0,,,79,85
126945,note_on,225,0,4,,,,,,,,3,,,60,0
126945,note_on,225,0,6,,,,,,,,5,,,48,0
126945,note_on,225,0,5,,,,,,,,4,,,48,0
126955,note_on,115,0,3,,,,,,,,2,,,76,0
126955,note_on,115,0,1,,,,,,,,0,,,79,0
126955,note_on,115,0,2,,,,,,,,1,,,79,0
126960,note_on,5,0,2,,,,,,,,1,,,82,85
126960,note_on,5,0,3,,,,,,,,2,,,79,85
126960,note_on,5,0,1,,,,,,,,0,,,82,85
126960,note_on,15,0,5,,,,,,,,4,,,48,85
126960,note_on,15,0,6,,,,,,,,5,,,48,85
126960,note_on,15,0,4,,,,,,,,3,,,60,85
127075,note_on,115,0,3,,,,,,,,2,,,79,0
127075,note_on,115,0,1,,,,,,,,0,,,82,0
127075,note_on,115,0,2,,,,,,,,1,,,82,0
127080,note_on,5,0,1,,,,,,,,0,,,79,85
127080,note_on,5,0,3,,,,,,,,2,,,76,85
127080,note_on,5,0,2,,,,,,,,1,,,79,85
127165,note_on,0,0,6,,,,,,,,5,,,79,0
127165,note_on,205,0,6,,,,,,,,5,,,82,0
127185,note_on,225,0,4,,,,,,,,3,,,60,0
127185,note_on,225,0,5,,,,,,,,4,,,48,0
127185,note_on,20,0,6,,,,,,,,5,,,48,0
127195,note_on,115,0,2,,,,,,,,1,,,79,0
127195,note_on,115,0,1,,,,,,,,0,,,79,0
127195,note_on,115,0,3,,,,,,,,2,,,76,0
127200,note_on,15,0,5,,,,,,,,4,,,48,85
127200,note_on,0,0,6,,,,,,,,5,,,77,64
127200,note_on,15,0,6,,,,,,,,5,,,81,64
127200,note_on,5,0,1,,,,,,,,0,,,81,85
127200,note_on,15,0,4,,,,,,,,3,,,60,85
127200,note_on,0,0,6,,,,,,,,5,,,48,85
127200,note_on,5,0,2,,,,,,,,1,,,81,85
127200,note_on,5,0,3,,,,,,,,2,,,77,85
127315,note_on,115,0,1,,,,,,,,0,,,81,0
127315,note_on,115,0,2,,,,,,,,1,,,81,0
127315,note_on,115,0,3,,,,,,,,2,,,77,0
127320,note_on,5,0,3,,,,,,,,2,,,72,85
127320,note_on,5,0,1,,,,,,,,0,,,77,85
127320,note_on,5,0,2,,,,,,,,1,,,77,85
127425,note_on,225,0,6,,,,,,,,5,,,48,0
127425,note_on,225,0,5,,,,,,,,4,,,48,0
127425,note_on,225,0,4,,,,,,,,3,,,60,0
127435,note_on,115,0,3,,,,,,,,2,,,72,0
127435,note_on,115,0,2,,,,,,,,1,,,77,0
127435,note_on,115,0,1,,,,,,,,0,,,77,0
127440,note_on,15,0,4,,,,,,,,3,,,60,85
127440,note_on,5,0,3,,,,,,,,2,,,77,85
127440,note_on,15,0,6,,,,,,,,5,,,48,85
127440,note_on,5,0,1,,,,,,,,0,,,81,85
127440,note_on,5,0,2,,,,,,,,1,,,81,85
127440,note_on,15,0,5,,,,,,,,4,,,48,85
127555,note_on,115,0,3,,,,,,,,2,,,77,0
127555,note_on,115,0,2,,,,,,,,1,,,81,0
127555,note_on,115,0,1,,,,,,,,0,,,81,0
127560,note_on,5,0,1,,,,,,,,0,,,77,85
127560,note_on,5,0,2,,,,,,,,1,,,77,85
127560,note_on,5,0,3,,,,,,,,2,,,72,85
127605,note_on,165,0,6,,,,,,,,5,,,72,0
127645,note_on,40,0,6,,,,,,,,5,,,81,0
127645,note_on,0,0,6,,,,,,,,5,,,77,0
127665,note_on,20,0,6,,,,,,,,5,,,48,0
127665,note_on,225,0,4,,,,,,,,3,,,60,0
127665,note_on,225,0,5,,,,,,,,4,,,48,0
127675,note_on,115,0,1,,,,,,,,0,,,77,0
127675,note_on,115,0,2,,,,,,,,1,,,77,0
127675,note_on,115,0,3,,,,,,,,2,,,72,0
127680,note_on,5,0,3,,,,,,,,2,,,76,85
127680,note_on,15,0,5,,,,,,,,4,,,48,85
127680,note_on,0,0,6,,,,,,,,5,,,48,85
127680,note_on,0,0,6,,,,,,,,5,,,72,64
127680,note_on,0,0,6,,,,,,,,5,,,76,64
127680,note_on,15,0,6,,,,,,,,5,,,79,64
127680,note_on,5,0,2,,,,,,,,1,,,79,85
127680,note_on,5,0,1,,,,,,,,0,,,79,85
127680,note_on,15,0,4,,,,,,,,3,,,60,85
127795,note_on,115,0,2,,,,,,,,1,,,79,0
127795,note_on,115,0,3,,,,,,,,2,,,76,0
127795,note_on,115,0,1,,,,,,,,0,,,79,0
127800,note_on,5,0,1,,,,,,,,0,,,76,85
127800,note_on,5,0,3,,,,,,,,2,,,72,85
127800,note_on,5,0,2,,,,,,,,1,,,76,85
127905,note_on,225,0,6,,,,,,,,5,,,48,0
127905,note_on,225,0,4,,,,,,,,3,,,60,0
127905,note_on,225,0,5,,,,,,,,4,,,48,0
127915,note_on,115,0,2,,,,,,,,1,,,76,0
127915,note_on,115,0,3,,,,,,,,2,,,72,0
127915,note_on,115,0,1,,,,,,,,0,,,76,0
127920,note_on,5,0,3,,,,,,,,2,,,76,85
127920,note_on,15,0,4,,,,,,,,3,,,60,85
127920,note_on,15,0,6,,,,,,,,5,,,48,85
127920,note_on,15,0,5,,,,,,,,4,,,48,85
127920,note_on,5,0,1,,,,,,,,0,,,79,85
127920,note_on,5,0,2,,,,,,,,1,,,79,85
128035,note_on,115,0,3,,,,,,,,2,,,76,0
128035,note_on,115,0,1,,,,,,,,0,,,79,0
128035,note_on,115,0,2,,,,,,,,1,,,79,0
128040,note_on,5,0,1,,,,,,,,0,,,76,85
128040,note_on,5,0,2,,,,,,,,1,,,76,85
128040,note_on,5,0,3,,,,,,,,2,,,72,85
128125,note_on,0,0,6,,,,,,,,5,,,76,0
128125,note_on,205,0,6,,,,,,,,5,,,79,0
128145,note_on,225,0,5,,,,,,,,4,,,48,0
128145,note_on,20,0,6,,,,,,,,5,,,48,0
128145,note_on,225,0,4,,,,,,,,3,,,60,0
128155,note_on,115,0,2,,,,,,,,1,,,76,0
128155,note_on,115,0,3,,,,,,,,2,,,72,0
128155,note_on,115,0,1,,,,,,,,0,,,76,0
128160,note_on,5,0,2,,,,,,,,1,,,81,85
128160,note_on,15,0,5,,,,,,,,4,,,48,85
128160,note_on,5,0,1,,,,,,,,0,,,81,85
128160,note_on,15,0,6,,,,,,,,5,,,81,64
128160,note_on,0,0,6,,,,,,,,5,,,77,64
128160,note_on,0,0,6,,,,,,,,5,,,48,85
128160,note_on,5,0,3,,,,,,,,2,,,77,85
128160,note_on,15,0,4,,,,,,,,3,,,60,85
128275,note_on,115,0,2,,,,,,,,1,,,81,0
128275,note_on,115,0,3,,,,,,,,2,,,77,0
128275,note_on,115,0,1,,,,,,,,0,,,81,0
128280,note_on,5,0,2,,,,,,,,1,,,77,85
128280,note_on,5,0,3,,,,,,,,2,,,72,85
128280,note_on,5,0,1,,,,,,,,0,,,77,85
128385,note_on,225,0,6,,,,,,,,5,,,48,0
128385,note_on,225,0,4,,,,,,,,3,,,60,0
128385,note_on,225,0,5,,,,,,,,4,,,48,0
128395,note_on,115,0,2,,,,,,,,1,,,77,0
128395,note_on,115,0,1,,,,,,,,0,,,77,0
128395,note_on,115,0,3,,,,,,,,2,,,72,0
128400,note_on,5,0,2,,,,,,,,1,,,81,85
128400,note_on,5,0,1,,,,,,,,0,,,81,85
128400,note_on,15,0,5,,,,,,,,4,,,48,85
128400,note_on,15,0,6,,,,,,,,5,,,48,85
128400,note_on,15,0,4,,,,,,,,3,,,60,85
128400,note_on,5,0,3,,,,,,,,2,,,77,85
128515,note_on,115,0,2,,,,,,,,1,,,81,0
128515,note_on,115,0,1,,,,,,,,0,,,81,0
128515,note_on,115,0,3,,,,,,,,2,,,77,0
128520,note_on,5,0,1,,,,,,,,0,,,77,85
128520,note_on,5,0,2,,,,,,,,1,,,77,85
128520,note_on,5,0,3,,,,,,,,2,,,72,85
128565,note_on,165,0,6,,,,,,,,5,,,72,0
128605,note_on,0,0,6,,,,,,,,5,,,77,0
128605,note_on,40,0,6,,,,,,,,5,,,81,0
128625,note_on,225,0,5,,,,,,,,4,,,48,0
128625,note_on,225,0,4,,,,,,,,3,,,60,0
128625,note_on,20,0,6,,,,,,,,5,,,48,0
128635,note_on,115,0,2,,,,,,,,1,,,77,0
128635,note_on,115,0,3,,,,,,,,2,,,72,0
128635,note_on,115,0,1,,,,,,,,0,,,77,0
128640,note_on,5,0,1,,,,,,,,0,,,82,85
128640,note_on,15,0,6,,,,,,,,5,,,82,64
128640,note_on,15,0,5,,,,,,,,4,,,48,85
128640,note_on,0,0,6,,,,,,,,5,,,48,85
128640,note_on,5,0,3,,,,,,,,2,,,79,85
128640,note_on,0,0,6,,,,,,,,5,,,72,64
128640,note_on,15,0,4,,,,,,,,3,,,64,85
128640,note_on,5,0,2,,,,,,,,1,,,82,85
128640,note_on,0,0,6,,,,,,,,5,,,79,64
128755,note_on,115,0,1,,,,,,,,0,,,82,0
128755,note_on,115,0,2,,,,,,,,1,,,82,0
128755,note_on,115,0,3,,,,,,,,2,,,79,0
128760,note_on,5,0,1,,,,,,,,0,,,79,85
128760,note_on,5,0,2,,,,,,,,1,,,79,85
128760,note_on,5,0,3,,,,,,,,2,,,76,85
128865,note_on,225,0,6,,,,,,,,5,,,48,0
128865,note_on,225,0,5,,,,,,,,4,,,48,0
128865,note_on,225,0,4,,,,,,,,3,,,64,0
128875,note_on,115,0,2,,,,,,,,1,,,79,0
128875,note_on,115,0,1,,,,,,,,0,,,79,0
128875,note_on,115,0,3,,,,,,,,2,,,76,0
128880,note_on,5,0,2,,,,,,,,1,,,82,85
128880,note_on,15,0,5,,,,,,,,4,,,48,85
128880,note_on,5,0,1,,,,,,,,0,,,82,85
128880,note_on,15,0,6,,,,,,,,5,,,48,85
128880,note_on,15,0,4,,,,,,,,3,,,64,85
128880,note_on,5,0,3,,,,,,,,2,,,79,85
128995,note_on,115,0,2,,,,,,,,1,,,82,0
128995,note_on,115,0,1,,,,,,,,0,,,82,0
128995,note_on,115,0,3,,,,,,,,2,,,79,0
129000,note_on,5,0,2,,,,,,,,1,,,79,85
129000,note_on,5,0,3,,,,,,,,2,,,76,85
129000,note_on,5,0,1,,,,,,,,0,,,79,85
129085,note_on,205,0,6,,,,,,,,5,,,82,0
129085,note_on,0,0,6,,,,,,,,5,,,79,0
129105,note_on,225,0,5,,,,,,,,4,,,48,0
129105,note_on,225,0,4,,,,,,,,3,,,64,0
129105,note_on,20,0,6,,,,,,,,5,,,48,0
129115,note_on,115,0,3,,,,,,,,2,,,76,0
129115,note_on,115,0,1,,,,,,,,0,,,79,0
129115,note_on,115,0,2,,,,,,,,1,,,79,0
129120,note_on,0,0,6,,,,,,,,5,,,77,64
129120,note_on,15,0,6,,,,,,,,5,,,81,64
129120,note_on,15,0,5,,,,,,,,4,,,48,85
129120,note_on,5,0,1,,,,,,,,0,,,81,85
129120,note_on,5,0,2,,,,,,,,1,,,81,85
129120,note_on,15,0,4,,,,,,,,3,,,60,85
129120,note_on,5,0,3,,,,,,,,2,,,77,85
129120,note_on,0,0,6,,,,,,,,5,,,48,85
129235,note_on,115,0,1,,,,,,,,0,,,81,0
129235,note_on,115,0,2,,,,,,,,1,,,81,0
129235,note_on,115,0,3,,,,,,,,2,,,77,0
129240,note_on,5,0,1,,,,,,,,0,,,77,85
129240,note_on,5,0,2,,,,,,,,1,,,77,85
129240,note_on,5,0,3,,,,,,,,2,,,72,85
129345,note_on,225,0,5,,,,,,,,4,,,48,0
129345,note_on,225,0,4,,,,,,,,3,,,60,0
129345,note_on,225,0,6,,,,,,,,5,,,48,0
129355,note_on,115,0,2,,,,,,,,1,,,77,0
129355,note_on,115,0,3,,,,,,,,2,,,72,0
129355,note_on,115,0,1,,,,,,,,0,,,77,0
129360,note_on,15,0,5,,,,,,,,4,,,48,85
129360,note_on,5,0,2,,,,,,,,1,,,81,85
129360,note_on,15,0,4,,,,,,,,3,,,60,85
129360,note_on,15,0,6,,,,,,,,5,,,48,85
129360,note_on,5,0,3,,,,,,,,2,,,77,85
129360,note_on,5,0,1,,,,,,,,0,,,81,85
129475,note_on,115,0,1,,,,,,,,0,,,81,0
129475,note_on,115,0,2,,,,,,,,1,,,81,0
129475,note_on,115,0,3,,,,,,,,2,,,77,0
129480,note_on,5,0,1,,,,,,,,0,,,77,85
129480,note_on,5,0,2,,,,,,,,1,,,77,85
129480,note_on,5,0,3,,,,,,,,2,,,72,85
129525,note_on,165,0,6,,,,,,,,5,,,72,0
129565,note_on,40,0,6,,,,,,,,5,,,81,0
129565,note_on,0,0,6,,,,,,,,5,,,77,0
129585,note_on,225,0,5,,,,,,,,4,,,48,0
129585,note_on,225,0,4,,,,,,,,3,,,60,0
129585,note_on,20,0,6,,,,,,,,5,,,48,0
129595,note_on,115,0,3,,,,,,,,2,,,72,0
129595,note_on,115,0,1,,,,,,,,0,,,77,0
129595,note_on,115,0,2,,,,,,,,1,,,77,0
129600,note_on,15,0,5,,,,,,,,4,,,48,85
129600,note_on,15,0,4,,,,,,,,3,,,60,85
129600,note_on,5,0,3,,,,,,,,2,,,76,85
129600,note_on,5,0,1,,,,,,,,0,,,79,85
129600,note_on,0,0,6,,,,,,,,5,,,48,85
129600,note_on,0,0,6,,,,,,,,5,,,72,64
129600,note_on,5,0,2,,,,,,,,1,,,79,85
129600,note_on,15,0,6,,,,,,,,5,,,79,64
129600,note_on,0,0,6,,,,,,,,5,,,76,64
129715,note_on,115,0,2,,,,,,,,1,,,79,0
129715,note_on,115,0,3,,,,,,,,2,,,76,0
129715,note_on,115,0,1,,,,,,,,0,,,79,0
129720,note_on,5,0,2,,,,,,,,1,,,72,85
129720,note_on,5,0,3,,,,,,,,2,,,72,85
129720,note_on,5,0,1,,,,,,,,0,,,84,85
129825,note_on,225,0,4,,,,,,,,3,,,60,0
129825,note_on,225,0,5,,,,,,,,4,,,48,0
129825,note_on,225,0,6,,,,,,,,5,,,48,0
129835,note_on,115,0,1,,,,,,,,0,,,84,0
129835,note_on,115,0,3,,,,,,,,2,,,72,0
129835,note_on,115,0,2,,,,,,,,1,,,72,0
129840,note_on,15,0,5,,,,,,,,4,,,48,85
129840,note_on,5,0,2,,,,,,,,1,,,70,85
129840,note_on,5,0,3,,,,,,,,2,,,70,85
129840,note_on,15,0,4,,,,,,,,3,,,60,85
129840,note_on,5,0,1,,,,,,,,0,,,82,85
129840,note_on,15,0,6,,,,,,,,5,,,48,85
129955,note_on,115,0,2,,,,,,,,1,,,70,0
129955,note_on,115,0,1,,,,,,,,0,,,82,0
129955,note_on,115,0,3,,,,,,,,2,,,70,0
129960,note_on,5,0,2,,,,,,,,1,,,69,85
129960,note_on,5,0,1,,,,,,,,0,,,81,85
129960,note_on,5,0,3,,,,,,,,2,,,69,85
130045,note_on,0,0,6,,,,,,,,5,,,76,0
130045,note_on,0,0,6,,,,,,,,5,,,72,0
130045,note_on,205,0,6,,,,,,,,5,,,79,0
130065,note_on,20,0,6,,,,,,,,5,,,48,0
130065,note_on,225,0,4,,,,,,,,3,,,60,0
130065,note_on,225,0,5,,,,,,,,4,,,48,0
130075,note_on,115,0,2,,,,,,,,1,,,69,0
130075,note_on,115,0,3,,,,,,,,2,,,69,0
130075,note_on,115,0,1,,,,,,,,0,,,81,0
130080,note_on,5,0,2,,,,,,,,1,,,67,85
130080,note_on,5,0,3,,,,,,,,2,,,67,85
130080,note_on,15,0,4,,,,,,,,3,,,60,85
130080,note_on,15,0,6,,,,,,,,5,,,48,85
130080,note_on,5,0,1,,,,,,,,0,,,79,85
130080,note_on,15,0,5,,,,,,,,4,,,48,85
130195,note_on,115,0,3,,,,,,,,2,,,67,0
130195,note_on,115,0,2,,,,,,,,1,,,67,0
130195,note_on,115,0,1,,,,,,,,0,,,79,0
130200,note_on,5,0,3,,,,,,,,2,,,65,85
130200,note_on,5,0,1,,,,,,,,0,,,77,85
130200,note_on,5,0,2,,,,,,,,1,,,65,85
130305,note_on,225,0,4,,,,,,,,3,,,60,0
130305,note_on,225,0,6,,,,,,,,5,,,48,0
130305,note_on,225,0,5,,,,,,,,4,,,48,0
130315,note_on,115,0,1,,,,,,,,0,,,77,0
130315,note_on,115,0,2,,,,,,,,1,,,65,0
130315,note_on,115,0,3,,,,,,,,2,,,65,0
130320,note_on,5,0,2,,,,,,,,1,,,64,85
130320,note_on,15,0,4,,,,,,,,3,,,60,85
130320,note_on,5,0,3,,,,,,,,2,,,64,85
130320,note_on,15,0,5,,,,,,,,4,,,48,85
130320,note_on,15,0,6,,,,,,,,5,,,48,85
130320,note_on,5,0,1,,,,,,,,0,,,76,85
130435,note_on,115,0,1,,,,,,,,0,,,76,0
130435,note_on,115,0,2,,,,,,,,1,,,64,0
130435,note_on,115,0,3,,,,,,,,2,,,64,0
130440,note_on,5,0,1,,,,,,,,0,,,74,85
130440,note_on,5,0,2,,,,,,,,1,,,62,85
130440,note_on,5,0,3,,,,,,,,2,,,62,85
130545,note_on,225,0,6,,,,,,,,5,,,48,0
130545,note_on,225,0,4,,,,,,,,3,,,60,0
130545,note_on,225,0,5,,,,,,,,4,,,48,0
130555,note_on,115,0,2,,,,,,,,1,,,62,0
130555,note_on,115,0,1,,,,,,,,0,,,74,0
130555,note_on,115,0,3,,,,,,,,2,,,62,0
130560,note_on,15,0,6,,,,,,,,5,,,60,64
130560,note_on,0,0,6,,,,,,,,5,,,48,85
130560,note_on,15,0,5,,,,,,,,4,,,48,85
130560,note_on,5,0,2,,,,,,,,1,,,60,85
130560,note_on,5,0,1,,,,,,,,0,,,72,85
130560,note_on,15,0,4,,,,,,,,3,,,60,85
130560,note_on,5,0,3,,,,,,,,2,,,60,85
130675,note_on,115,0,6,,,,,,,,5,,,48,0
130675,note_on,0,0,6,,,,,,,,5,,,60,0
130675,note_on,115,0,5,,,,,,,,4,,,48,0
130675,note_on,115,0,4,,,,,,,,3,,,60,0
130680,note_on,5,0,5,,,,,,,,4,,,60,85
130680,note_on,5,0,4,,,,,,,,3,,,72,85
130680,note_on,0,0,6,,,,,,,,5,,,60,85
130680,note_on,5,0,6,,,,,,,,5,,,72,64
130785,note_on,225,0,3,,,,,,,,2,,,60,0
130785,note_on,225,0,1,,,,,,,,0,,,72,0
130785,note_on,225,0,2,,,,,,,,1,,,60,0
130795,note_on,115,0,6,,,,,,,,5,,,60,0
130795,note_on,115,0,4,,,,,,,,3,,,72,0
130795,note_on,0,0,6,,,,,,,,5,,,72,0
130795,note_on,115,0,5,,,,,,,,4,,,60,0
130800,note_on,5,0,4,,,,,,,,3,,,70,85
130800,note_on,15,0,1,,,,,,,,0,,,72,85
130800,note_on,15,0,2,,,,,,,,1,,,60,85
130800,note_on,5,0,6,,,,,,,,5,,,70,64
130800,note_on,0,0,6,,,,,,,,5,,,58,85
130800,note_on,15,0,3,,,,,,,,2,,,60,85
130800,note_on,5,0,5,,,,,,,,4,,,58,85
130915,note_on,115,0,4,,,,,,,,3,,,70,0
130915,note_on,115,0,5,,,,,,,,4,,,58,0
130915,note_on,115,0,6,,,,,,,,5,,,58,0
130915,note_on,0,0,6,,,,,,,,5,,,70,0
130920,note_on,5,0,5,,,,,,,,4,,,57,85
130920,note_on,5,0,6,,,,,,,,5,,,69,64
130920,note_on,0,0,6,,,,,,,,5,,,57,85
130920,note_on,5,0,4,,,,,,,,3,,,69,85
131025,note_on,225,0,2,,,,,,,,1,,,60,0
131025,note_on,225,0,3,,,,,,,,2,,,60,0
131025,note_on,225,0,1,,,,,,,,0,,,72,0
131035,note_on,115,0,6,,,,,,,,5,,,57,0
131035,note_on,115,0,5,,,,,,,,4,,,57,0
131035,note_on,0,0,6,,,,,,,,5,,,69,0
131035,note_on,115,0,4,,,,,,,,3,,,69,0
131040,note_on,5,0,4,,,,,,,,3,,,67,85
131040,note_on,15,0,1,,,,,,,,0,,,72,85
131040,note_on,15,0,2,,,,,,,,1,,,60,85
131040,note_on,5,0,5,,,,,,,,4,,,55,85
131040,note_on,0,0,6,,,,,,,,5,,,55,85
131040,note_on,5,0,6,,,,,,,,5,,,67,64
131040,note_on,15,0,3,,,,,,,,2,,,60,85
131155,note_on,115,0,5,,,,,,,,4,,,55,0
131155,note_on,115,0,4,,,,,,,,3,,,67,0
131155,note_on,115,0,6,,,,,,,,5,,,55,0
131155,note_on,0,0,6,,,,,,,,5,,,67,0
131160,note_on,5,0,5,,,,,,,,4,,,53,85
131160,note_on,5,0,6,,,,,,,,5,,,65,64
131160,note_on,0,0,6,,,,,,,,5,,,53,85
131160,note_on,5,0,4,,,,,,,,3,,,65,85
131265,note_on,225,0,1,,,,,,,,0,,,72,0
131265,note_on,225,0,2,,,,,,,,1,,,60,0
131265,note_on,225,0,3,,,,,,,,2,,,60,0
131275,note_on,115,0,5,,,,,,,,4,,,53,0
131275,note_on,115,0,6,,,,,,,,5,,,53,0
131275,note_on,0,0,6,,,,,,,,5,,,65,0
131275,note_on,115,0,4,,,,,,,,3,,,65,0
131280,note_on,5,0,5,,,,,,,,4,,,52,85
131280,note_on,15,0,2,,,,,,,,1,,,60,85
131280,note_on,5,0,4,,,,,,,,3,,,64,85
131280,note_on,0,0,6,,,,,,,,5,,,52,85
131280,note_on,15,0,1,,,,,,,,0,,,72,85
131280,note_on,5,0,6,,,,,,,,5,,,64,64
131280,note_on,15,0,3,,,,,,,,2,,,60,85
131395,note_on,0,0,6,,,,,,,,5,,,64,0
131395,note_on,115,0,4,,,,,,,,3,,,64,0
131395,note_on,115,0,6,,,,,,,,5,,,52,0
131395,note_on,115,0,5,,,,,,,,4,,,52,0
131400,note_on,5,0,5,,,,,,,,4,,,50,85
131400,note_on,5,0,6,,,,,,,,5,,,62,64
131400,note_on,0,0,6,,,,,,,,5,,,50,85
131400,note_on,5,0,4,,,,,,,,3,,,62,85
131505,note_on,225,0,3,,,,,,,,2,,,60,0
131505,note_on,225,0,2,,,,,,,,1,,,60,0
131505,note_on,225,0,1,,,,,,,,0,,,72,0
131515,note_on,115,0,4,,,,,,,,3,,,62,0
131515,note_on,0,0,6,,,,,,,,5,,,62,0
131515,note_on,115,0,5,,,,,,,,4,,,50,0
131515,note_on,115,0,6,,,,,,,,5,,,50,0
131520,note_on,0,0,6,,,,,,,,5,,,48,85
131520,note_on,15,0,2,,,,,,,,1,,,60,85
131520,note_on,5,0,6,,,,,,,,5,,,60,64
131520,note_on,15,0,1,,,,,,,,0,,,72,85
131520,note_on,15,0,3,,,,,,,,2,,,60,85
131520,note_on,5,0,4,,,,,,,,3,,,60,85
131520,note_on,5,0,5,,,,,,,,4,,,48,85
131635,note_on,115,0,2,,,,,,,,1,,,60,0
131635,note_on,115,0,3,,,,,,,,2,,,60,0
131635,note_on,115,0,1,,,,,,,,0,,,72,0
131640,note_on,5,0,2,,,,,,,,1,,,72,85
131640,note_on,5,0,1,,,,,,,,0,,,84,85
131640,note_on,5,0,3,,,,,,,,2,,,72,85
131745,note_on,0,0,6,,,,,,,,5,,,60,0
131745,note_on,225,0,6,,,,,,,,5,,,48,0
131745,note_on,225,0,5,,,,,,,,4,,,48,0
131745,note_on,225,0,4,,,,,,,,3,,,60,0
131755,note_on,115,0,3,,,,,,,,2,,,72,0
131755,note_on,115,0,1,,,,,,,,0,,,84,0
131755,note_on,115,0,2,,,,,,,,1,,,72,0
131760,note_on,15,0,4,,,,,,,,3,,,60,85
131760,note_on,15,0,5,,,,,,,,4,,,48,85
131760,note_on,0,0,6,,,,,,,,5,,,48,85
131760,note_on,15,0,6,,,,,,,,5,,,60,64
131760,note_on,5,0,1,,,,,,,,0,,,82,85
131760,note_on,5,0,3,,,,,,,,2,,,70,85
131760,note_on,5,0,2,,,,,,,,1,,,70,85
131875,note_on,115,0,1,,,,,,,,0,,,82,0
131875,note_on,115,0,3,,,,,,,,2,,,70,0
131875,note_on,115,0,2,,,,,,,,1,,,70,0
131880,note_on,5,0,1,,,,,,,,0,,,81,85
131880,note_on,5,0,2,,,,,,,,1,,,69,85
131880,note_on,5,0,3,,,,,,,,2,,,69,85
131985,note_on,225,0,5,,,,,,,,4,,,48,0
131985,note_on,0,0,6,,,,,,,,5,,,60,0
131985,note_on,225,0,6,,,,,,,,5,,,48,0
131985,note_on,225,0,4,,,,,,,,3,,,60,0
131995,note_on,115,0,3,,,,,,,,2,,,69,0
131995,note_on,115,0,1,,,,,,,,0,,,81,0
131995,note_on,115,0,2,,,,,,,,1,,,69,0
132000,note_on,15,0,4,,,,,,,,3,,,60,85
132000,note_on,15,0,5,,,,,,,,4,,,48,85
132000,note_on,0,0,6,,,,,,,,5,,,48,85
132000,note_on,15,0,6,,,,,,,,5,,,60,64
132000,note_on,5,0,3,,,,,,,,2,,,67,85
132000,note_on,5,0,1,,,,,,,,0,,,79,85
132000,note_on,5,0,2,,,,,,,,1,,,67,85
132115,note_on,115,0,1,,,,,,,,0,,,79,0
132115,note_on,115,0,3,,,,,,,,2,,,67,0
132115,note_on,115,0,2,,,,,,,,1,,,67,0
132120,note_on,5,0,2,,,,,,,,1,,,65,85
132120,note_on,5,0,3,,,,,,,,2,,,65,85
132120,note_on,5,0,1,,,,,,,,0,,,77,85
132225,note_on,225,0,4,,,,,,,,3,,,60,0
132225,note_on,225,0,5,,,,,,,,4,,,48,0
132225,note_on,0,0,6,,,,,,,,5,,,60,0
132225,note_on,225,0,6,,,,,,,,5,,,48,0
132235,note_on,115,0,3,,,,,,,,2,,,65,0
132235,note_on,115,0,1,,,,,,,,0,,,77,0
132235,note_on,115,0,2,,,,,,,,1,,,65,0
132240,note_on,5,0,1,,,,,,,,0,,,76,85
132240,note_on,5,0,2,,,,,,,,1,,,64,85
132240,note_on,15,0,4,,,,,,,,3,,,60,85
132240,note_on,15,0,5,,,,,,,,4,,,48,85
132240,note_on,5,0,3,,,,,,,,2,,,64,85
132240,note_on,15,0,6,,,,,,,,5,,,60,64
132240,note_on,0,0,6,,,,,,,,5,,,48,85
132355,note_on,115,0,3,,,,,,,,2,,,64,0
132355,note_on,115,0,2,,,,,,,,1,,,64,0
132355,note_on,115,0,1,,,,,,,,0,,,76,0
132360,note_on,5,0,3,,,,,,,,2,,,62,85
132360,note_on,5,0,2,,,,,,,,1,,,62,85
132360,note_on,5,0,1,,,,,,,,0,,,74,85
132465,note_on,0,0,6,,,,,,,,5,,,60,0
132465,note_on,225,0,6,,,,,,,,5,,,48,0
132465,note_on,225,0,5,,,,,,,,4,,,48,0
132465,note_on,225,0,4,,,,,,,,3,,,60,0
132475,note_on,115,0,3,,,,,,,,2,,,62,0
132475,note_on,115,0,1,,,,,,,,0,,,74,0
132475,note_on,115,0,2,,,,,,,,1,,,62,0
132480,note_on,5,0,2,,,,,,,,1,,,60,85
132480,note_on,15,0,4,,,,,,,,3,,,60,85
132480,note_on,5,0,1,,,,,,,,0,,,72,85
132480,note_on,0,0,6,,,,,,,,5,,,48,85
132480,note_on,15,0,6,,,,,,,,5,,,60,64
132480,note_on,15,0,5,,,,,,,,4,,,48,85
132480,note_on,5,0,3,,,,,,,,2,,,60,85
132595,note_on,115,0,6,,,,,,,,5,,,48,0
132595,note_on,0,0,6,,,,,,,,5,,,60,0
132595,note_on,115,0,4,,,,,,,,3,,,60,0
132595,note_on,115,0,5,,,,,,,,4,,,48,0
132600,note_on,5,0,4,,,,,,,,3,,,72,85
132600,note_on,5,0,6,,,,,,,,5,,,72,64
132600,note_on,0,0,6,,,,,,,,5,,,60,85
132600,note_on,5,0,5,,,,,,,,4,,,60,85
132705,note_on,225,0,1,,,,,,,,0,,,72,0
132705,note_on,225,0,2,,,,,,,,1,,,60,0
132705,note_on,225,0,3,,,,,,,,2,,,60,0
132715,note_on,115,0,6,,,,,,,,5,,,60,0
132715,note_on,0,0,6,,,,,,,,5,,,72,0
132715,note_on,115,0,5,,,,,,,,4,,,60,0
132715,note_on,115,0,4,,,,,,,,3,,,72,0
132720,note_on,15,0,1,,,,,,,,0,,,72,85
132720,note_on,0,0,6,,,,,,,,5,,,58,85
132720,note_on,5,0,6,,,,,,,,5,,,70,64
132720,note_on,5,0,5,,,,,,,,4,,,58,85
132720,note_on,15,0,3,,,,,,,,2,,,60,85
132720,note_on,15,0,2,,,,,,,,1,,,60,85
132720,note_on,5,0,4,,,,,,,,3,,,70,85
132835,note_on,115,0,5,,,,,,,,4,,,58,0
132835,note_on,0,0,6,,,,,,,,5,,,70,0
132835,note_on,115,0,4,,,,,,,,3,,,70,0
132835,note_on,115,0,6,,,,,,,,5,,,58,0
132840,note_on,5,0,6,,,,,,,,5,,,69,64
132840,note_on,0,0,6,,,,,,,,5,,,57,85
132840,note_on,5,0,4,,,,,,,,3,,,69,85
132840,note_on,5,0,5,,,,,,,,4,,,57,85
132945,note_on,225,0,3,,,,,,,,2,,,60,0
132945,note_on,225,0,1,,,,,,,,0,,,72,0
132945,note_on,225,0,2,,,,,,,,1,,,60,0
132955,note_on,115,0,4,,,,,,,,3,,,69,0
132955,note_on,115,0,5,,,,,,,,4,,,57,0
132955,note_on,115,0,6,,,,,,,,5,,,57,0
132955,note_on,0,0,6,,,,,,,,5,,,69,0
132960,note_on,5,0,6,,,,,,,,5,,,67,64
132960,note_on,0,0,6,,,,,,,,5,,,55,85
132960,note_on,15,0,1,,,,,,,,0,,,72,85
132960,note_on,15,0,2,,,,,,,,1,,,60,85
132960,note_on,15,0,3,,,,,,,,2,,,60,85
132960,note_on,5,0,4,,,,,,,,3,,,67,85
132960,note_on,5,0,5,,,,,,,,4,,,55,85
133075,note_on,115,0,5,,,,,,,,4,,,55,0
133075,note_on,0,0,6,,,,,,,,5,,,67,0
133075,note_on,115,0,6,,,,,,,,5,,,55,0
133075,note_on,115,0,4,,,,,,,,3,,,67,0
133080,note_on,0,0,6,,,,,,,,5,,,53,85
133080,note_on,5,0,6,,,,,,,,5,,,65,64
133080,note_on,5,0,4,,,,,,,,3,,,65,85
133080,note_on,5,0,5,,,,,,,,4,,,53,85
133185,note_on,225,0,2,,,,,,,,1,,,60,0
133185,note_on,225,0,3,,,,,,,,2,,,60,0
133185,note_on,225,0,1,,,,,,,,0,,,72,0
133195,note_on,115,0,4,,,,,,,,3,,,65,0
133195,note_on,115,0,5,,,,,,,,4,,,53,0
133195,note_on,115,0,6,,,,,,,,5,,,53,0
133195,note_on,0,0,6,,,,,,,,5,,,65,0
133200,note_on,5,0,6,,,,,,,,5,,,64,64
133200,note_on,0,0,6,,,,,,,,5,,,52,85
133200,note_on,15,0,1,,,,,,,,0,,,72,85
133200,note_on,5,0,4,,,,,,,,3,,,64,85
133200,note_on,5,0,5,,,,,,,,4,,,52,85
133200,note_on,15,0,2,,,,,,,,1,,,60,85
133200,note_on,15,0,3,,,,,,,,2,,,60,85
133315,note_on,115,0,6,,,,,,,,5,,,52,0
133315,note_on,115,0,4,,,,,,,,3,,,64,0
133315,note_on,115,0,5,,,,,,,,4,,,52,0
133315,note_on,0,0,6,,,,,,,,5,,,64,0
133320,note_on,5,0,5,,,,,,,,4,,,50,85
133320,note_on,5,0,6,,,,,,,,5,,,62,64
133320,note_on,0,0,6,,,,,,,,5,,,50,85
133320,note_on,5,0,4,,,,,,,,3,,,62,85
133425,note_on,225,0,3,,,,,,,,2,,,60,0
133425,note_on,225,0,1,,,,,,,,0,,,72,0
133425,note_on,225,0,2,,,,,,,,1,,,60,0
133435,note_on,115,0,6,,,,,,,,5,,,50,0
133435,note_on,0,0,6,,,,,,,,5,,,62,0
133435,note_on,115,0,4,,,,,,,,3,,,62,0
133435,note_on,115,0,5,,,,,,,,4,,,50,0
133440,note_on,15,0,3,,,,,,,,2,,,72,85
133440,note_on,15,0,2,,,,,,,,1,,,76,85
133440,note_on,0,0,6,,,,,,,,5,,,48,85
133440,note_on,5,0,5,,,,,,,,4,,,48,85
133440,note_on,5,0,4,,,,,,,,3,,,60,85
133440,note_on,5,0,6,,,,,,,,5,,,60,64
133440,note_on,15,0,1,,,,,,,,0,,,79,85
133555,note_on,115,0,3,,,,,,,,2,,,72,0
133555,note_on,115,0,2,,,,,,,,1,,,76,0
133555,note_on,115,0,1,,,,,,,,0,,,79,0
133560,note_on,5,0,2,,,,,,,,1,,,79,85
133560,note_on,5,0,1,,,,,,,,0,,,84,85
133560,note_on,5,0,3,,,,,,,,2,,,76,85
133665,note_on,225,0,6,,,,,,,,5,,,48,0
133665,note_on,225,0,5,,,,,,,,4,,,48,0
133665,note_on,225,0,4,,,,,,,,3,,,60,0
133675,note_on,115,0,1,,,,,,,,0,,,84,0
133675,note_on,115,0,3,,,,,,,,2,,,76,0
133675,note_on,115,0,2,,,,,,,,1,,,79,0
133680,note_on,5,0,2,,,,,,,,1,,,79,85
133680,note_on,15,0,5,,,,,,,,4,,,48,85
133680,note_on,5,0,3,,,,,,,,2,,,76,85
133680,note_on,15,0,6,,,,,,,,5,,,48,85
133680,note_on,15,0,4,,,,,,,,3,,,60,85
133680,note_on,5,0,1,,,,,,,,0,,,84,85
133795,note_on,115,0,3,,,,,,,,2,,,76,0
133795,note_on,115,0,1,,,,,,,,0,,,84,0
133795,note_on,115,0,2,,,,,,,,1,,,79,0
133800,note_on,5,0,1,,,,,,,,0,,,79,85
133800,note_on,5,0,2,,,,,,,,1,,,76,85
133800,note_on,5,0,3,,,,,,,,2,,,72,85
133885,note_on,205,0,6,,,,,,,,5,,,60,0
133905,note_on,225,0,4,,,,,,,,3,,,60,0
133905,note_on,225,0,5,,,,,,,,4,,,48,0
133905,note_on,20,0,6,,,,,,,,5,,,48,0
133915,note_on,115,0,3,,,,,,,,2,,,72,0
133915,note_on,115,0,1,,,,,,,,0,,,79,0
133915,note_on,115,0,2,,,,,,,,1,,,76,0
133920,note_on,5,0,1,,,,,,,,0,,,79,85
133920,note_on,15,0,5,,,,,,,,4,,,48,85
133920,note_on,5,0,3,,,,,,,,2,,,72,85
133920,note_on,15,0,6,,,,,,,,5,,,48,85
133920,note_on,5,0,2,,,,,,,,1,,,76,85
133920,note_on,15,0,4,,,,,,,,3,,,60,85
134035,note_on,115,0,2,,,,,,,,1,,,76,0
134035,note_on,115,0,3,,,,,,,,2,,,72,0
134035,note_on,115,0,1,,,,,,,,0,,,79,0
134040,note_on,5,0,1,,,,,,,,0,,,84,85
134040,note_on,5,0,3,,,,,,,,2,,,76,85
134040,note_on,5,0,2,,,,,,,,1,,,79,85
134145,note_on,225,0,6,,,,,,,,5,,,48,0
134145,note_on,225,0,4,,,,,,,,3,,,60,0
134145,note_on,225,0,5,,,,,,,,4,,,48,0
134155,note_on,115,0,3,,,,,,,,2,,,76,0
134155,note_on,115,0,2,,,,,,,,1,,,79,0
134155,note_on,115,0,1,,,,,,,,0,,,84,0
134160,note_on,5,0,2,,,,,,,,1,,,79,85
134160,note_on,5,0,3,,,,,,,,2,,,76,85
134160,note_on,5,0,1,,,,,,,,0,,,84,85
134160,note_on,15,0,5,,,,,,,,4,,,48,85
134160,note_on,15,0,6,,,,,,,,5,,,48,85
134160,note_on,15,0,4,,,,,,,,3,,,60,85
134275,note_on,115,0,1,,,,,,,,0,,,84,0
134275,note_on,115,0,2,,,,,,,,1,,,79,0
134275,note_on,115,0,3,,,,,,,,2,,,76,0
134280,note_on,5,0,3,,,,,,,,2,,,67,85
134280,note_on,5,0,2,,,,,,,,1,,,72,85
134280,note_on,5,0,1,,,,,,,,0,,,76,85
134385,note_on,225,0,5,,,,,,,,4,,,48,0
134385,note_on,225,0,6,,,,,,,,5,,,48,0
134385,note_on,225,0,4,,,,,,,,3,,,60,0
134395,note_on,115,0,3,,,,,,,,2,,,67,0
134395,note_on,115,0,2,,,,,,,,1,,,72,0
134395,note_on,115,0,1,,,,,,,,0,,,76,0
134400,note_on,5,0,3,,,,,,,,2,,,67,85
134400,note_on,15,0,4,,,,,,,,3,,,60,85
134400,note_on,15,0,6,,,,,,,,5,,,72,64
134400,note_on,0,0,6,,,,,,,,5,,,67,64
134400,note_on,0,0,6,,,,,,,,5,,,64,64
134400,note_on,0,0,6,,,,,,,,5,,,48,85
134400,note_on,15,0,5,,,,,,,,4,,,48,85
134400,note_on,5,0,2,,,,,,,,1,,,72,85
134400,note_on,5,0,1,,,,,,,,0,,,76,85
134515,note_on,115,0,1,,,,,,,,0,,,76,0
134515,note_on,115,0,2,,,,,,,,1,,,72,0
134515,note_on,115,0,3,,,,,,,,2,,,67,0
134520,note_on,5,0,1,,,,,,,,0,,,79,85
134520,note_on,5,0,3,,,,,,,,2,,,72,85
134520,note_on,5,0,2,,,,,,,,1,,,76,64
134625,note_on,225,0,4,,,,,,,,3,,,60,0
134625,note_on,225,0,6,,,,,,,,5,,,48,0
134625,note_on,225,0,5,,,,,,,,4,,,48,0
134635,note_on,115,0,1,,,,,,,,0,,,79,0
134635,note_on,115,0,3,,,,,,,,2,,,72,0
134635,note_on,115,0,2,,,,,,,,1,,,76,0
134640,note_on,15,0,4,,,,,,,,3,,,60,85
134640,note_on,15,0,6,,,,,,,,5,,,48,85
134640,note_on,15,0,5,,,,,,,,4,,,48,85
134640,note_on,5,0,2,,,,,,,,1,,,76,64
134640,note_on,5,0,1,,,,,,,,0,,,79,85
134640,note_on,5,0,3,,,,,,,,2,,,72,85
134755,note_on,115,0,3,,,,,,,,2,,,72,0
134755,note_on,115,0,2,,,,,,,,1,,,76,0
134755,note_on,115,0,1,,,,,,,,0,,,79,0
134760,note_on,5,0,1,,,,,,,,0,,,76,64
134760,note_on,5,0,3,,,,,,,,2,,,67,85
134760,note_on,5,0,2,,,,,,,,1,,,72,64
134865,note_on,225,0,5,,,,,,,,4,,,48,0
134865,note_on,225,0,4,,,,,,,,3,,,60,0
134865,note_on,225,0,6,,,,,,,,5,,,48,0
134875,note_on,115,0,1,,,,,,,,0,,,76,0
134875,note_on,115,0,3,,,,,,,,2,,,67,0
134875,note_on,115,0,2,,,,,,,,1,,,72,0
134880,note_on,5,0,3,,,,,,,,2,,,67,85
134880,note_on,15,0,4,,,,,,,,3,,,60,64
134880,note_on,5,0,1,,,,,,,,0,,,76,64
134880,note_on,15,0,5,,,,,,,,4,,,48,85
134880,note_on,5,0,2,,,,,,,,1,,,72,64
134880,note_on,15,0,6,,,,,,,,5,,,48,85
134995,note_on,115,0,2,,,,,,,,1,,,72,0
134995,note_on,115,0,3,,,,,,,,2,,,67,0
134995,note_on,115,0,1,,,,,,,,0,,,76,0
135000,note_on,5,0,2,,,,,,,,1,,,76,64
135000,note_on,5,0,3,,,,,,,,2,,,72,85
135000,note_on,5,0,1,,,,,,,,0,,,79,64
135105,note_on,225,0,5,,,,,,,,4,,,48,0
135105,note_on,225,0,4,,,,,,,,3,,,60,0
135105,note_on,225,0,6,,,,,,,,5,,,48,0
135115,note_on,115,0,1,,,,,,,,0,,,79,0
135115,note_on,115,0,3,,,,,,,,2,,,72,0
135115,note_on,115,0,2,,,,,,,,1,,,76,0
135120,note_on,15,0,5,,,,,,,,4,,,48,85
135120,note_on,15,0,4,,,,,,,,3,,,60,64
135120,note_on,5,0,1,,,,,,,,0,,,79,64
135120,note_on,5,0,3,,,,,,,,2,,,72,85
135120,note_on,5,0,2,,,,,,,,1,,,76,64
135120,note_on,15,0,6,,,,,,,,5,,,48,85
135235,note_on,115,0,2,,,,,,,,1,,,76,0
135235,note_on,115,0,1,,,,,,,,0,,,79,0
135235,note_on,115,0,3,,,,,,,,2,,,72,0
135240,note_on,5,0,2,,,,,,,,1,,,67,64
135240,note_on,5,0,3,,,,,,,,2,,,64,85
135240,note_on,5,0,1,,,,,,,,0,,,72,64
135285,note_on,0,0,6,,,,,,,,5,,,67,0
135285,note_on,165,0,6,,,,,,,,5,,,72,0
135285,note_on,0,0,6,,,,,,,,5,,,64,0
135345,note_on,225,0,4,,,,,,,,3,,,60,0
135345,note_on,60,0,6,,,,,,,,5,,,48,0
135345,note_on,225,0,5,,,,,,,,4,,,48,0
135355,note_on,115,0,2,,,,,,,,1,,,67,0
135355,note_on,115,0,1,,,,,,,,0,,,72,0
135355,note_on,115,0,3,,,,,,,,2,,,64,0
135360,note_on,0,0,6,,,,,,,,5,,,64,64
135360,note_on,15,0,6,,,,,,,,5,,,67,64
135360,note_on,5,0,2,,,,,,,,1,,,67,64
135360,note_on,15,0,5,,,,,,,,4,,,48,85
135360,note_on,5,0,3,,,,,,,,2,,,64,64
135360,note_on,15,0,4,,,,,,,,3,,,60,64
135360,note_on,5,0,1,,,,,,,,0,,,72,64
135360,note_on,0,0,6,,,,,,,,5,,,48,85
135475,note_on,115,0,3,,,,,,,,2,,,64,0
135475,note_on,115,0,2,,,,,,,,1,,,67,0
135475,note_on,115,0,1,,,,,,,,0,,,72,0
135480,note_on,5,0,2,,,,,,,,1,,,72,64
135480,note_on,5,0,3,,,,,,,,2,,,67,64
135480,note_on,5,0,1,,,,,,,,0,,,76,64
135585,note_on,225,0,5,,,,,,,,4,,,48,0
135585,note_on,225,0,4,,,,,,,,3,,,60,0
135585,note_on,225,0,6,,,,,,,,5,,,48,0
135595,note_on,115,0,2,,,,,,,,1,,,72,0
135595,note_on,115,0,1,,,,,,,,0,,,76,0
135595,note_on,115,0,3,,,,,,,,2,,,67,0
135600,note_on,5,0,1,,,,,,,,0,,,76,64
135600,note_on,5,0,2,,,,,,,,1,,,72,64
135600,note_on,15,0,4,,,,,,,,3,,,60,64
135600,note_on,15,0,6,,,,,,,,5,,,48,85
135600,note_on,5,0,3,,,,,,,,2,,,67,64
135600,note_on,15,0,5,,,,,,,,4,,,48,85
135715,note_on,115,0,1,,,,,,,,0,,,76,0
135715,note_on,115,0,2,,,,,,,,1,,,72,0
135715,note_on,115,0,3,,,,,,,,2,,,67,0
135720,note_on,5,0,2,,,,,,,,1,,,67,64
135720,note_on,5,0,1,,,,,,,,0,,,70,64
135720,note_on,5,0,3,,,,,,,,2,,,64,64
135825,note_on,225,0,5,,,,,,,,4,,,48,0
135825,note_on,225,0,6,,,,,,,,5,,,48,0
135825,note_on,225,0,4,,,,,,,,3,,,60,0
135835,note_on,115,0,2,,,,,,,,1,,,67,0
135835,note_on,115,0,1,,,,,,,,0,,,70,0
135835,note_on,115,0,3,,,,,,,,2,,,64,0
135840,note_on,5,0,3,,,,,,,,2,,,64,64
135840,note_on,15,0,5,,,,,,,,4,,,48,64
135840,note_on,5,0,2,,,,,,,,1,,,67,64
135840,note_on,5,0,1,,,,,,,,0,,,70,64
135840,note_on,15,0,6,,,,,,,,5,,,48,64
135840,note_on,15,0,4,,,,,,,,3,,,60,64
135955,note_on,115,0,3,,,,,,,,2,,,64,0
135955,note_on,115,0,1,,,,,,,,0,,,70,0
135955,note_on,115,0,2,,,,,,,,1,,,67,0
135960,note_on,5,0,3,,,,,,,,2,,,67,64
135960,note_on,5,0,1,,,,,,,,0,,,76,64
135960,note_on,5,0,2,,,,,,,,1,,,72,64
135969,set_tempo,135969,1,0,,,,,,666667,,,,,,
136065,note_on,225,0,5,,,,,,,,4,,,48,0
136065,note_on,225,0,6,,,,,,,,5,,,48,0
136065,note_on,225,0,4,,,,,,,,3,,,60,0
136075,note_on,115,0,2,,,,,,,,1,,,72,0
136075,note_on,115,0,3,,,,,,,,2,,,67,0
136075,note_on,115,0,1,,,,,,,,0,,,76,0
136080,note_on,5,0,3,,,,,,,,2,,,67,64
136080,note_on,5,0,1,,,,,,,,0,,,76,64
136080,note_on,5,0,2,,,,,,,,1,,,72,64
136080,note_on,15,0,6,,,,,,,,5,,,48,64
136080,note_on,15,0,5,,,,,,,,4,,,48,64
136080,note_on,15,0,4,,,,,,,,3,,,60,64
136086,set_tempo,117,1,0,,,,,,857143,,,,,,
136195,note_on,115,0,1,,,,,,,,0,,,76,0
136195,note_on,115,0,3,,,,,,,,2,,,67,0
136195,note_on,115,0,2,,,,,,,,1,,,72,0
136200,note_on,5,0,3,,,,,,,,2,,,58,64
136200,note_on,5,0,2,,,,,,,,1,,,64,64
136200,note_on,5,0,1,,,,,,,,0,,,67,64
136203,set_tempo,117,1,0,,,,,,1200000,,,,,,
136245,note_on,0,0,6,,,,,,,,5,,,67,0
136245,note_on,165,0,6,,,,,,,,5,,,64,0
136305,note_on,60,0,6,,,,,,,,5,,,48,0
136305,note_on,225,0,5,,,,,,,,4,,,48,0
136305,note_on,225,0,4,,,,,,,,3,,,60,0
136315,note_on,115,0,2,,,,,,,,1,,,64,0
136315,note_on,115,0,3,,,,,,,,2,,,58,0
136315,note_on,115,0,1,,,,,,,,0,,,67,0
136320,set_tempo,117,1,0,,,,,,2000000,,,,,,
136387,note_on,82,0,4,,,,,,,,3,,,60,64
136393,note_on,88,0,6,,,,,,,,5,,,48,64
136393,note_on,78,0,3,,,,,,,,2,,,58,64
136398,note_on,83,0,2,,,,,,,,1,,,64,64
136398,note_on,83,0,1,,,,,,,,0,,,67,64
136398,note_on,5,0,6,,,,,,,,5,,,64,64
136398,note_on,93,0,5,,,,,,,,4,,,48,64
136424,note_on,26,0,6,,,,,,,,5,,,67,64
136445,note_on,21,0,6,,,,,,,,5,,,70,64
136800,set_tempo,480,1,0,,,,,,545455,,,,,,
136832,note_on,445,0,4,,,,,,,,3,,,60,0
136838,note_on,445,0,3,,,,,,,,2,,,58,0
136838,note_on,393,0,6,,,,,,,,5,,,48,0
136843,note_on,445,0,1,,,,,,,,0,,,67,0
136843,note_on,5,0,6,,,,,,,,5,,,64,0
136843,note_on,445,0,2,,,,,,,,1,,,64,0
136843,note_on,445,0,5,,,,,,,,4,,,48,0
136869,note_on,26,0,6,,,,,,,,5,,,67,0
136890,note_on,21,0,6,,,,,,,,5,,,70,0
138240,note_on,1397,0,2,,,,,,,,1,,,72,85
138240,note_on,1397,0,1,,,,,,,,0,,,84,106
138240,note_on,0,0,6,,,,,,,,5,,,60,85
138240,note_on,1402,0,3,,,,,,,,2,,,72,85
138240,note_on,1397,0,5,,,,,,,,4,,,60,85
138240,note_on,1350,0,6,,,,,,,,5,,,72,85
138240,note_on,1408,0,4,,,,,,,,3,,,72,85
138355,note_on,115,0,2,,,,,,,,1,,,72,0
138355,note_on,115,0,1,,,,,,,,0,,,84,0
138355,note_on,115,0,3,,,,,,,,2,,,72,0
138355,note_on,115,0,6,,,,,,,,5,,,60,0
138355,note_on,115,0,4,,,,,,,,3,,,72,0
138355,note_on,115,0,5,,,,,,,,4,,,60,0
138355,note_on,0,0,6,,,,,,,,5,,,72,0
138360,note_on,5,0,6,,,,,,,,5,,,70,85
138360,note_on,0,0,6,,,,,,,,5,,,58,85
138360,note_on,5,0,5,,,,,,,,4,,,58,85
138360,note_on,5,0,3,,,,,,,,2,,,70,85
138360,note_on,5,0,2,,,,,,,,1,,,70,85
138360,note_on,5,0,1,,,,,,,,0,,,82,106
138360,note_on,5,0,4,,,,,,,,3,,,70,85
138475,note_on,115,0,5,,,,,,,,4,,,58,0
138475,note_on,115,0,4,,,,,,,,3,,,70,0
138475,note_on,115,0,2,,,,,,,,1,,,70,0
138475,note_on,115,0,1,,,,,,,,0,,,82,0
138475,note_on,115,0,3,,,,,,,,2,,,70,0
138475,note_on,115,0,6,,,,,,,,5,,,58,0
138475,note_on,0,0,6,,,,,,,,5,,,70,0
138480,note_on,5,0,5,,,,,,,,4,,,57,85
138480,note_on,5,0,3,,,,,,,,2,,,69,85
138480,note_on,5,0,1,,,,,,,,0,,,81,106
138480,note_on,5,0,2,,,,,,,,1,,,69,85
138480,note_on,5,0,4,,,,,,,,3,,,69,85
138480,note_on,5,0,6,,,,,,,,5,,,69,85
138480,note_on,0,0,6,,,,,,,,5,,,57,85
138595,note_on,115,0,3,,,,,,,,2,,,69,0
138595,note_on,115,0,1,,,,,,,,0,,,81,0
138595,note_on,115,0,5,,,,,,,,4,,,57,0
138595,note_on,115,0,6,,,,,,,,5,,,57,0
138595,note_on,115,0,2,,,,,,,,1,,,69,0
138595,note_on,0,0,6,,,,,,,,5,,,69,0
138595,note_on,115,0,4,,,,,,,,3,,,69,0
138600,note_on,5,0,2,,,,,,,,1,,,67,85
138600,note_on,0,0,6,,,,,,,,5,,,55,85
138600,note_on,5,0,6,,,,,,,,5,,,67,85
138600,note_on,5,0,5,,,,,,,,4,,,55,85
138600,note_on,5,0,3,,,,,,,,2,,,67,85
138600,note_on,5,0,4,,,,,,,,3,,,67,85
138600,note_on,5,0,1,,,,,,,,0,,,79,106
138715,note_on,115,0,1,,,,,,,,0,,,79,0
138715,note_on,115,0,2,,,,,,,,1,,,67,0
138715,note_on,115,0,4,,,,,,,,3,,,67,0
138715,note_on,115,0,3,,,,,,,,2,,,67,0
138715,note_on,115,0,5,,,,,,,,4,,,55,0
138715,note_on,115,0,6,,,,,,,,5,,,55,0
138715,note_on,0,0,6,,,,,,,,5,,,67,0
138720,note_on,5,0,3,,,,,,,,2,,,65,85
138720,note_on,5,0,1,,,,,,,,0,,,77,106
138720,note_on,5,0,2,,,,,,,,1,,,65,85
138720,note_on,5,0,4,,,,,,,,3,,,65,85
138720,note_on,5,0,6,,,,,,,,5,,,65,85
138720,note_on,0,0,6,,,,,,,,5,,,53,85
138720,note_on,5,0,5,,,,,,,,4,,,53,85
138835,note_on,115,0,3,,,,,,,,2,,,65,0
138835,note_on,115,0,1,,,,,,,,0,,,77,0
138835,note_on,115,0,4,,,,,,,,3,,,65,0
138835,note_on,115,0,6,,,,,,,,5,,,53,0
138835,note_on,115,0,2,,,,,,,,1,,,65,0
138835,note_on,115,0,5,,,,,,,,4,,,53,0
138835,note_on,0,0,6,,,,,,,,5,,,65,0
138840,note_on,5,0,1,,,,,,,,0,,,76,106
138840,note_on,5,0,6,,,,,,,,5,,,64,85
138840,note_on,0,0,6,,,,,,,,5,,,52,85
138840,note_on,5,0,4,,,,,,,,3,,,64,85
138840,note_on,5,0,5,,,,,,,,4,,,52,85
138840,note_on,5,0,2,,,,,,,,1,,,64,85
138840,note_on,5,0,3,,,,,,,,2,,,64,85
138955,note_on,115,0,6,,,,,,,,5,,,52,0
138955,note_on,0,0,6,,,,,,,,5,,,64,0
138955,note_on,115,0,1,,,,,,,,0,,,76,0
138955,note_on,115,0,4,,,,,,,,3,,,64,0
138955,note_on,115,0,5,,,,,,,,4,,,52,0
138955,note_on,115,0,3,,,,,,,,2,,,64,0
138955,note_on,115,0,2,,,,,,,,1,,,64,0
138960,note_on,5,0,1,,,,,,,,0,,,74,106
138960,note_on,5,0,3,,,,,,,,2,,,62,85
138960,note_on,5,0,5,,,,,,,,4,,,50,85
138960,note_on,5,0,6,,,,,,,,5,,,62,85
138960,note_on,0,0,6,,,,,,,,5,,,50,85
138960,note_on,5,0,2,,,,,,,,1,,,62,85
138960,note_on,5,0,4,,,,,,,,3,,,62,85
139075,note_on,115,0,2,,,,,,,,1,,,62,0
139075,note_on,115,0,6,,,,,,,,5,,,50,0
139075,note_on,0,0,6,,,,,,,,5,,,62,0
139075,note_on,115,0,5,,,,,,,,4,,,50,0
139075,note_on,115,0,3,,,,,,,,2,,,62,0
139075,note_on,115,0,4,,,,,,,,3,,,62,0
139075,note_on,115,0,1,,,,,,,,0,,,74,0
139080,note_on,5,0,3,,,,,,,,2,,,60,85
139080,note_on,5,0,5,,,,,,,,4,,,48,85
139080,note_on,0,0,6,,,,,,,,5,,,48,85
139080,note_on,5,0,4,,,,,,,,3,,,60,85
139080,note_on,5,0,1,,,,,,,,0,,,72,106
139080,note_on,5,0,6,,,,,,,,5,,,60,85
139080,note_on,5,0,2,,,,,,,,1,,,60,85
139195,note_on,115,0,1,,,,,,,,0,,,72,0
139195,note_on,115,0,2,,,,,,,,1,,,60,0
139195,note_on,115,0,6,,,,,,,,5,,,48,0
139195,note_on,0,0,6,,,,,,,,5,,,60,0
139195,note_on,115,0,5,,,,,,,,4,,,48,0
139195,note_on,115,0,4,,,,,,,,3,,,60,0
139195,note_on,115,0,3,,,,,,,,2,,,60,0
139200,note_on,5,0,6,,,,,,,,5,,,72,85
139200,note_on,0,0,6,,,,,,,,5,,,60,85
139200,note_on,5,0,1,,,,,,,,0,,,84,106
139200,note_on,5,0,5,,,,,,,,4,,,60,85
139200,note_on,5,0,3,,,,,,,,2,,,72,85
139200,note_on,5,0,4,,,,,,,,3,,,72,85
139200,note_on,5,0,2,,,,,,,,1,,,72,85
139315,note_on,115,0,3,,,,,,,,2,,,72,0
139315,note_on,115,0,6,,,,,,,,5,,,60,0
139315,note_on,0,0,6,,,,,,,,5,,,72,0
139315,note_on,115,0,5,,,,,,,,4,,,60,0
139315,note_on,115,0,2,,,,,,,,1,,,72,0
139315,note_on,115,0,1,,,,,,,,0,,,84,0
139315,note_on,115,0,4,,,,,,,,3,,,72,0
139320,note_on,5,0,3,,,,,,,,2,,,70,85
139320,note_on,5,0,6,,,,,,,,5,,,70,85
139320,note_on,0,0,6,,,,,,,,5,,,58,85
139320,note_on,5,0,5,,,,,,,,4,,,58,85
139320,note_on,5,0,2,,,,,,,,1,,,70,85
139320,note_on,5,0,1,,,,,,,,0,,,82,106
139320,note_on,5,0,4,,,,,,,,3,,,70,85
139435,note_on,115,0,4,,,,,,,,3,,,70,0
139435,note_on,115,0,6,,,,,,,,5,,,58,0
139435,note_on,0,0,6,,,,,,,,5,,,70,0
139435,note_on,115,0,3,,,,,,,,2,,,70,0
139435,note_on,115,0,2,,,,,,,,1,,,70,0
139435,note_on,115,0,5,,,,,,,,4,,,58,0
139435,note_on,115,0,1,,,,,,,,0,,,82,0
139440,note_on,5,0,1,,,,,,,,0,,,81,106
139440,note_on,5,0,4,,,,,,,,3,,,69,85
139440,note_on,5,0,5,,,,,,,,4,,,57,85
139440,note_on,0,0,6,,,,,,,,5,,,57,85
139440,note_on,5,0,6,,,,,,,,5,,,69,85
139440,note_on,5,0,3,,,,,,,,2,,,69,85
139440,note_on,5,0,2,,,,,,,,1,,,69,85
139555,note_on,115,0,3,,,,,,,,2,,,69,0
139555,note_on,115,0,5,,,,,,,,4,,,57,0
139555,note_on,115,0,1,,,,,,,,0,,,81,0
139555,note_on,0,0,6,,,,,,,,5,,,69,0
139555,note_on,115,0,4,,,,,,,,3,,,69,0
139555,note_on,115,0,2,,,,,,,,1,,,69,0
139555,note_on,115,0,6,,,,,,,,5,,,57,0
139560,note_on,5,0,5,,,,,,,,4,,,55,85
139560,note_on,5,0,1,,,,,,,,0,,,79,106
139560,note_on,5,0,6,,,,,,,,5,,,67,85
139560,note_on,5,0,4,,,,,,,,3,,,67,85
139560,note_on,5,0,3,,,,,,,,2,,,67,85
139560,note_on,5,0,2,,,,,,,,1,,,67,85
139560,note_on,0,0,6,,,,,,,,5,,,55,85
139675,note_on,115,0,2,,,,,,,,1,,,67,0
139675,note_on,115,0,6,,,,,,,,5,,,55,0
139675,note_on,115,0,4,,,,,,,,3,,,67,0
139675,note_on,0,0,6,,,,,,,,5,,,67,0
139675,note_on,115,0,1,,,,,,,,0,,,79,0
139675,note_on,115,0,3,,,,,,,,2,,,67,0
139675,note_on,115,0,5,,,,,,,,4,,,55,0
139680,note_on,5,0,1,,,,,,,,0,,,77,106
139680,note_on,5,0,3,,,,,,,,2,,,65,85
139680,note_on,5,0,2,,,,,,,,1,,,65,85
139680,note_on,5,0,4,,,,,,,,3,,,65,85
139680,note_on,5,0,5,,,,,,,,4,,,53,85
139680,note_on,5,0,6,,,,,,,,5,,,65,85
139680,note_on,0,0,6,,,,,,,,5,,,53,85
139795,note_on,115,0,3,,,,,,,,2,,,65,0
139795,note_on,115,0,6,,,,,,,,5,,,53,0
139795,note_on,115,0,5,,,,,,,,4,,,53,0
139795,note_on,115,0,2,,,,,,,,1,,,65,0
139795,note_on,0,0,6,,,,,,,,5,,,65,0
139795,note_on,115,0,4,,,,,,,,3,,,65,0
139795,note_on,115,0,1,,,,,,,,0,,,77,0
139800,note_on,5,0,6,,,,,,,,5,,,64,85
139800,note_on,5,0,4,,,,,,,,3,,,64,85
139800,note_on,5,0,3,,,,,,,,2,,,64,85
139800,note_on,5,0,1,,,,,,,,0,,,76,106
139800,note_on,0,0,6,,,,,,,,5,,,52,85
139800,note_on,5,0,5,,,,,,,,4,,,52,85
139800,note_on,5,0,2,,,,,,,,1,,,64,85
139915,note_on,115,0,3,,,,,,,,2,,,64,0
139915,note_on,115,0,5,,,,,,,,4,,,52,0
139915,note_on,115,0,2,,,,,,,,1,,,64,0
139915,note_on,115,0,4,,,,,,,,3,,,64,0
139915,note_on,115,0,1,,,,,,,,0,,,76,0
139915,note_on,115,0,6,,,,,,,,5,,,52,0
139915,note_on,0,0,6,,,,,,,,5,,,64,0
139920,note_on,0,0,6,,,,,,,,5,,,50,85
139920,note_on,5,0,5,,,,,,,,4,,,50,85
139920,note_on,5,0,2,,,,,,,,1,,,62,85
139920,note_on,5,0,4,,,,,,,,3,,,62,85
139920,note_on,5,0,1,,,,,,,,0,,,74,106
139920,note_on,5,0,6,,,,,,,,5,,,62,85
139920,note_on,5,0,3,,,,,,,,2,,,62,85
140035,note_on,115,0,3,,,,,,,,2,,,62,0
140035,note_on,115,0,1,,,,,,,,0,,,74,0
140035,note_on,115,0,4,,,,,,,,3,,,62,0
140035,note_on,115,0,5,,,,,,,,4,,,50,0
140035,note_on,115,0,2,,,,,,,,1,,,62,0
140035,note_on,115,0,6,,,,,,,,5,,,50,0
140035,note_on,0,0,6,,,,,,,,5,,,62,0
140040,note_on,0,0,6,,,,,,,,5,,,48,85
140040,note_on,5,0,2,,,,,,,,1,,,60,85
140040,note_on,5,0,3,,,,,,,,2,,,60,85
140040,note_on,5,0,1,,,,,,,,0,,,72,106
140040,note_on,5,0,5,,,,,,,,4,,,48,85
140040,note_on,5,0,4,,,,,,,,3,,,60,85
140040,note_on,5,0,6,,,,,,,,5,,,60,85
140155,note_on,115,0,4,,,,,,,,3,,,60,0
140155,note_on,115,0,6,,,,,,,,5,,,48,0
140155,note_on,115,0,5,,,,,,,,4,,,48,0
140155,note_on,0,0,6,,,,,,,,5,,,60,0
140155,note_on,115,0,1,,,,,,,,0,,,72,0
140155,note_on,115,0,3,,,,,,,,2,,,60,0
140155,note_on,115,0,2,,,,,,,,1,,,60,0
140160,note_on,5,0,4,,,,,,,,3,,,72,85
140160,note_on,5,0,2,,,,,,,,1,,,72,85
140160,note_on,5,0,1,,,,,,,,0,,,84,106
140160,note_on,5,0,3,,,,,,,,2,,,72,85
140160,note_on,5,0,6,,,,,,,,5,,,72,85
140160,note_on,5,0,5,,,,,,,,4,,,60,85
140160,note_on,0,0,6,,,,,,,,5,,,60,85
140275,note_on,115,0,4,,,,,,,,3,,,72,0
140275,note_on,115,0,1,,,,,,,,0,,,84,0
140275,note_on,115,0,5,,,,,,,,4,,,60,0
140275,note_on,115,0,6,,,,,,,,5,,,60,0
140275,note_on,115,0,2,,,,,,,,1,,,72,0
140275,note_on,115,0,3,,,,,,,,2,,,72,0
140275,note_on,0,0,6,,,,,,,,5,,,72,0
140280,note_on,5,0,2,,,,,,,,1,,,70,85
140280,note_on,5,0,6,,,,,,,,5,,,70,85
140280,note_on,5,0,3,,,,,,,,2,,,70,85
140280,note_on,5,0,5,,,,,,,,4,,,58,85
140280,note_on,5,0,4,,,,,,,,3,,,70,85
140280,note_on,5,0,1,,,,,,,,0,,,82,106
140280,note_on,0,0,6,,,,,,,,5,,,58,85
140395,note_on,115,0,3,,,,,,,,2,,,70,0
140395,note_on,115,0,4,,,,,,,,3,,,70,0
140395,note_on,115,0,5,,,,,,,,4,,,58,0
140395,note_on,115,0,1,,,,,,,,0,,,82,0
140395,note_on,0,0,6,,,,,,,,5,,,70,0
140395,note_on,115,0,2,,,,,,,,1,,,70,0
140395,note_on,115,0,6,,,,,,,,5,,,58,0
140400,note_on,5,0,2,,,,,,,,1,,,69,85
140400,note_on,5,0,5,,,,,,,,4,,,57,85
140400,note_on,5,0,6,,,,,,,,5,,,69,85
140400,note_on,0,0,6,,,,,,,,5,,,57,85
140400,note_on,5,0,3,,,,,,,,2,,,69,85
140400,note_on,5,0,1,,,,,,,,0,,,81,106
140400,note_on,5,0,4,,,,,,,,3,,,69,85
140515,note_on,115,0,3,,,,,,,,2,,,69,0
140515,note_on,115,0,1,,,,,,,,0,,,81,0
140515,note_on,115,0,2,,,,,,,,1,,,69,0
140515,note_on,0,0,6,,,,,,,,5,,,69,0
140515,note_on,115,0,5,,,,,,,,4,,,57,0
140515,note_on,115,0,4,,,,,,,,3,,,69,0
140515,note_on,115,0,6,,,,,,,,5,,,57,0
140520,note_on,5,0,6,,,,,,,,5,,,67,85
140520,note_on,0,0,6,,,,,,,,5,,,55,85
140520,note_on,5,0,5,,,,,,,,4,,,55,85
140520,note_on,5,0,3,,,,,,,,2,,,67,85
140520,note_on,5,0,4,,,,,,,,3,,,67,85
140520,note_on,5,0,1,,,,,,,,0,,,79,106
140520,note_on,5,0,2,,,,,,,,1,,,67,85
140635,note_on,0,0,6,,,,,,,,5,,,67,0
140635,note_on,115,0,5,,,,,,,,4,,,55,0
140635,note_on,115,0,2,,,,,,,,1,,,67,0
140635,note_on,115,0,4,,,,,,,,3,,,67,0
140635,note_on,115,0,1,,,,,,,,0,,,79,0
140635,note_on,115,0,3,,,,,,,,2,,,67,0
140635,note_on,115,0,6,,,,,,,,5,,,55,0
140640,note_on,5,0,3,,,,,,,,2,,,65,85
140640,note_on,5,0,4,,,,,,,,3,,,65,85
140640,note_on,5,0,2,,,,,,,,1,,,65,85
140640,note_on,5,0,6,,,,,,,,5,,,65,85
140640,note_on,0,0,6,,,,,,,,5,,,53,85
140640,note_on,5,0,5,,,,,,,,4,,,53,85
140640,note_on,5,0,1,,,,,,,,0,,,77,106
140755,note_on,115,0,3,,,,,,,,2,,,65,0
140755,note_on,115,0,6,,,,,,,,5,,,53,0
140755,note_on,0,0,6,,,,,,,,5,,,65,0
140755,note_on,115,0,1,,,,,,,,0,,,77,0
140755,note_on,115,0,4,,,,,,,,3,,,65,0
140755,note_on,115,0,2,,,,,,,,1,,,65,0
140755,note_on,115,0,5,,,,,,,,4,,,53,0
140760,note_on,5,0,2,,,,,,,,1,,,64,85
140760,note_on,5,0,3,,,,,,,,2,,,64,85
140760,note_on,5,0,5,,,,,,,,4,,,52,85
140760,note_on,5,0,4,,,,,,,,3,,,64,85
140760,note_on,5,0,6,,,,,,,,5,,,64,85
140760,note_on,0,0,6,,,,,,,,5,,,52,85
140760,note_on,5,0,1,,,,,,,,0,,,76,106
140875,note_on,0,0,6,,,,,,,,5,,,64,0
140875,note_on,115,0,2,,,,,,,,1,,,64,0
140875,note_on,115,0,5,,,,,,,,4,,,52,0
140875,note_on,115,0,4,,,,,,,,3,,,64,0
140875,note_on,115,0,1,,,,,,,,0,,,76,0
140875,note_on,115,0,6,,,,,,,,5,,,52,0
140875,note_on,115,0,3,,,,,,,,2,,,64,0
140880,note_on,5,0,2,,,,,,,,1,,,62,85
140880,note_on,5,0,1,,,,,,,,0,,,74,106
140880,note_on,5,0,3,,,,,,,,2,,,62,85
140880,note_on,5,0,4,,,,,,,,3,,,62,85
140880,note_on,5,0,5,,,,,,,,4,,,50,85
140880,note_on,0,0,6,,,,,,,,5,,,50,85
140880,note_on,5,0,6,,,,,,,,5,,,62,85
140995,note_on,115,0,6,,,,,,,,5,,,50,0
140995,note_on,0,0,6,,,,,,,,5,,,62,0
140995,note_on,115,0,3,,,,,,,,2,,,62,0
140995,note_on,115,0,4,,,,,,,,3,,,62,0
140995,note_on,115,0,1,,,,,,,,0,,,74,0
140995,note_on,115,0,2,,,,,,,,1,,,62,0
140995,note_on,115,0,5,,,,,,,,4,,,50,0
141000,note_on,5,0,1,,,,,,,,0,,,72,106
141000,note_on,5,0,2,,,,,,,,1,,,60,85
141000,note_on,5,0,4,,,,,,,,3,,,60,85
141000,note_on,5,0,5,,,,,,,,4,,,48,85
141000,note_on,0,0,6,,,,,,,,5,,,48,85
141000,note_on,5,0,6,,,,,,,,5,,,60,85
141000,note_on,5,0,3,,,,,,,,2,,,60,85
141115,note_on,115,0,3,,,,,,,,2,,,60,0
141115,note_on,115,0,2,,,,,,,,1,,,60,0
141115,note_on,0,0,6,,,,,,,,5,,,60,0
141115,note_on,115,0,4,,,,,,,,3,,,60,0
141115,note_on,115,0,6,,,,,,,,5,,,48,0
141115,note_on,115,0,5,,,,,,,,4,,,48,0
141115,note_on,115,0,1,,,,,,,,0,,,72,0
141120,note_on,0,0,6,,,,,,,,5,,,48,85
141120,note_on,5,0,5,,,,,,,,4,,,48,85
141120,note_on,5,0,6,,,,,,,,5,,,60,85
141120,note_on,5,0,2,,,,,,,,1,,,60,85
141120,note_on,5,0,1,,,,,,,,0,,,72,106
141120,note_on,5,0,4,,,,,,,,3,,,60,85
141120,note_on,5,0,3,,,,,,,,2,,,60,85
141345,note_on,225,0,1,,,,,,,,0,,,72,0
141345,note_on,225,0,4,,,,,,,,3,,,60,0
141345,note_on,225,0,2,,,,,,,,1,,,60,0
141345,note_on,0,0,6,,,,,,,,5,,,60,0
141345,note_on,225,0,5,,,,,,,,4,,,48,0
141345,note_on,225,0,3,,,,,,,,2,,,60,0
141345,note_on,225,0,6,,,,,,,,5,,,48,0
141360,note_on,15,0,3,,,,,,,,2,,,60,85
141360,note_on,0,0,6,,,,,,,,5,,,48,85
141360,note_on,15,0,1,,,,,,,,0,,,72,106
141360,note_on,15,0,2,,,,,,,,1,,,60,85
141360,note_on,15,0,4,,,,,,,,3,,,60,85
141360,note_on,15,0,5,,,,,,,,4,,,48,85
141360,note_on,15,0,6,,,,,,,,5,,,60,85
141585,note_on,225,0,6,,,,,,,,5,,,48,0
141585,note_on,225,0,4,,,,,,,,3,,,60,0
141585,note_on,225,0,5,,,,,,,,4,,,48,0
141585,note_on,0,0,6,,,,,,,,5,,,60,0
141585,note_on,225,0,3,,,,,,,,2,,,60,0
141585,note_on,225,0,1,,,,,,,,0,,,72,0
141585,note_on,225,0,2,,,,,,,,1,,,60,0
141600,note_on,15,0,6,,,,,,,,5,,,60,85
141600,note_on,15,0,1,,,,,,,,0,,,72,106
141600,note_on,15,0,5,,,,,,,,4,,,48,85
141600,note_on,15,0,3,,,,,,,,2,,,60,85
141600,note_on,15,0,2,,,,,,,,1,,,60,85
141600,note_on,15,0,4,,,,,,,,3,,,60,85
141600,note_on,0,0,6,,,,,,,,5,,,48,85
141600,set_tempo,4800,1,0,,,,,,666667,,,,,,
141746,note_on,146,0,3,,,,,,,,2,,,60,0
141746,note_on,146,0,4,,,,,,,,3,,,60,0
141746,note_on,146,0,2,,,,,,,,1,,,60,0
141746,note_on,146,0,5,,,,,,,,4,,,48,0
141746,note_on,146,0,1,,,,,,,,0,,,72,0
141756,note_on,0,0,6,,,,,,,,5,,,60,0
141756,note_on,156,0,6,,,,,,,,5,,,48,0
141840,note_on,0,0,6,,,,,,,,5,,,48,85
141840,note_on,84,0,6,,,,,,,,5,,,60,85
141840,note_on,94,0,5,,,,,,,,4,,,48,85
141840,note_on,94,0,2,,,,,,,,1,,,60,85
141840,note_on,94,0,4,,,,,,,,3,,,60,85
141840,set_tempo,240,1,0,,,,,,857143,,,,,,
141840,note_on,94,0,1,,,,,,,,0,,,72,106
141840,note_on,94,0,3,,,,,,,,2,,,60,85
141986,note_on,146,0,2,,,,,,,,1,,,60,0
141986,note_on,146,0,4,,,,,,,,3,,,60,0
141986,note_on,146,0,1,,,,,,,,0,,,72,0
141986,note_on,146,0,3,,,,,,,,2,,,60,0
141986,note_on,146,0,5,,,,,,,,4,,,48,0
141996,note_on,156,0,6,,,,,,,,5,,,60,0
142001,note_on,5,0,6,,,,,,,,5,,,48,0
142080,set_tempo,240,1,0,,,,,,1200000,,,,,,
142121,note_on,135,0,1,,,,,,,,0,,,72,106
142126,note_on,140,0,2,,,,,,,,1,,,60,85
142132,note_on,146,0,3,,,,,,,,2,,,60,85
142132,note_on,146,0,4,,,,,,,,3,,,60,85
142132,note_on,146,0,5,,,,,,,,4,,,48,85
142132,note_on,0,0,6,,,,,,,,5,,,48,85
142132,note_on,131,0,6,,,,,,,,5,,,60,85
142560,set_tempo,480,1,0,,,,,,240000,,,,,,
142566,note_on,445,0,1,,,,,,,,0,,,72,0
142571,note_on,445,0,2,,,,,,,,1,,,60,0
142577,note_on,0,0,6,,,,,,,,5,,,60,0
142577,note_on,445,0,6,,,,,,,,5,,,48,0
142577,note_on,445,0,3,,,,,,,,2,,,60,0
142577,note_on,445,0,5,,,,,,,,4,,,48,0
142577,note_on,445,0,4,,,,,,,,3,,,60,0
144000,time_signature,1440,1,0,3,4,24,8,,,,,,,,
144000,set_tempo,0,1,0,,,,,,1333333,,,,,,
144000,marker,0,1,0,,,,,,,,,,,,
144240,note_on,1674,0,1,,,,,,,,0,,,81,85
144575,note_on,335,0,1,,,,,,,,0,,,81,0
144600,note_on,25,0,1,,,,,,,,0,,,81,85
144660,note_on,60,0,1,,,,,,,,0,,,81,0
144660,note_on,0,0,1,,,,,,,,0,,,82,85
144720,note_on,60,0,1,,,,,,,,0,,,82,0
144720,note_on,0,0,1,,,,,,,,0,,,84,85
144835,note_on,115,0,1,,,,,,,,0,,,84,0
144840,note_on,5,0,1,,,,,,,,0,,,82,85
144955,note_on,115,0,1,,,,,,,,0,,,82,0
144960,note_on,5,0,1,,,,,,,,0,,,81,85
145075,note_on,115,0,1,,,,,,,,0,,,81,0
145080,note_on,5,0,1,,,,,,,,0,,,79,85
145195,note_on,115,0,1,,,,,,,,0,,,79,0
145200,note_on,5,0,1,,,,,,,,0,,,78,85
145370,note_on,170,0,1,,,,,,,,0,,,78,0
145380,note_on,10,0,1,,,,,,,,0,,,79,85
145440,note_on,0,0,1,,,,,,,,0,,,79,85
145440,note_on,60,0,1,,,,,,,,0,,,79,0
145638,note_on,198,0,1,,,,,,,,0,,,79,0
145680,note_on,42,0,1,,,,,,,,0,,,78,85
145800,note_on,3223,0,3,,,,,,,,2,,,62,64
145800,note_on,0,0,6,,,,,,,,5,,,50,64
145800,note_on,0,0,6,,,,,,,,5,,,70,64
145800,note_on,3229,0,2,,,,,,,,1,,,62,64
145800,note_on,3223,0,5,,,,,,,,4,,,50,64
145800,note_on,3223,0,6,,,,,,,,5,,,74,64
145800,note_on,0,0,6,,,,,,,,5,,,65,64
145800,note_on,3223,0,4,,,,,,,,3,,,62,64
145915,note_on,115,0,5,,,,,,,,4,,,50,0
145915,note_on,115,0,2,,,,,,,,1,,,62,0
145915,note_on,115,0,6,,,,,,,,5,,,70,0
145915,note_on,0,0,6,,,,,,,,5,,,74,0
145915,note_on,0,0,6,,,,,,,,5,,,65,0
145915,note_on,115,0,3,,,,,,,,2,,,62,0
145915,note_on,0,0,6,,,,,,,,5,,,50,0
145915,note_on,115,0,4,,,,,,,,3,,,62,0
145920,note_on,5,0,6,,,,,,,,5,,,74,64
145920,note_on,5,0,2,,,,,,,,1,,,62,64
145920,note_on,5,0,3,,,,,,,,2,,,62,64
145920,note_on,0,0,6,,,,,,,,5,,,70,64
145920,note_on,0,0,6,,,,,,,,5,,,65,64
145920,note_on,0,0,6,,,,,,,,5,,,50,64
145920,note_on,5,0,5,,,,,,,,4,,,50,64
145920,note_on,5,0,4,,,,,,,,3,,,62,64
146255,note_on,335,0,2,,,,,,,,1,,,62,0
146255,note_on,0,0,6,,,,,,,,5,,,70,0
146255,note_on,0,0,6,,,,,,,,5,,,65,0
146255,note_on,335,0,3,,,,,,,,2,,,62,0
146255,note_on,335,0,4,,,,,,,,3,,,62,0
146255,note_on,0,0,6,,,,,,,,5,,,74,0
146255,note_on,335,0,5,,,,,,,,4,,,50,0
146255,note_on,335,0,6,,,,,,,,5,,,50,0
146280,note_on,25,0,4,,,,,,,,3,,,62,64
146280,note_on,25,0,2,,,,,,,,1,,,62,64
146280,note_on,25,0,5,,,,,,,,4,,,50,64
146280,note_on,25,0,3,,,,,,,,2,,,62,64
146280,note_on,25,0,6,,,,,,,,5,,,62,64
146280,note_on,0,0,6,,,,,,,,5,,,50,64
146395,note_on,0,0,6,,,,,,,,5,,,62,0
146395,note_on,115,0,5,,,,,,,,4,,,50,0
146395,note_on,115,0,6,,,,,,,,5,,,50,0
146395,note_on,115,0,2,,,,,,,,1,,,62,0
146395,note_on,115,0,3,,,,,,,,2,,,62,0
146395,note_on,115,0,4,,,,,,,,3,,,62,0
146400,note_on,5,0,6,,,,,,,,5,,,64,64
146400,note_on,0,0,6,,,,,,,,5,,,52,64
146400,note_on,5,0,2,,,,,,,,1,,,64,64
146400,note_on,5,0,3,,,,,,,,2,,,64,64
146400,note_on,5,0,5,,,,,,,,4,,,52,64
146400,note_on,5,0,4,,,,,,,,3,,,64,64
146735,note_on,335,0,4,,,,,,,,3,,,64,0
146735,note_on,335,0,6,,,,,,,,5,,,52,0
146735,note_on,335,0,5,,,,,,,,4,,,52,0
146735,note_on,335,0,3,,,,,,,,2,,,64,0
146735,note_on,335,0,2,,,,,,,,1,,,64,0
146735,note_on,0,0,6,,,,,,,,5,,,64,0
146760,note_on,25,0,2,,,,,,,,1,,,66,64
146760,note_on,25,0,5,,,,,,,,4,,,54,64
146760,note_on,25,0,3,,,,,,,,2,,,66,64
146760,note_on,0,0,6,,,,,,,,5,,,54,64
146760,note_on,25,0,4,,,,,,,,3,,,66,64
146760,note_on,25,0,6,,,,,,,,5,,,66,64
146865,note_on,1185,0,1,,,,,,,,0,,,78,0
146875,note_on,115,0,3,,,,,,,,2,,,66,0
146875,note_on,115,0,6,,,,,,,,5,,,54,0
146875,note_on,115,0,5,,,,,,,,4,,,54,0
146875,note_on,115,0,2,,,,,,,,1,,,66,0
146875,note_on,115,0,4,,,,,,,,3,,,66,0
146875,note_on,0,0,6,,,,,,,,5,,,66,0
146880,note_on,5,0,6,,,,,,,,5,,,67,64
146880,note_on,5,0,5,,,,,,,,4,,,55,64
146880,note_on,0,0,6,,,,,,,,5,,,55,64
146880,note_on,5,0,4,,,,,,,,3,,,67,64
146880,note_on,5,0,3,,,,,,,,2,,,67,64
146880,note_on,5,0,2,,,,,,,,1,,,67,64
147120,note_on,255,0,1,,,,,,,,0,,,82,85
147297,note_on,177,0,1,,,,,,,,0,,,82,0
147325,note_on,445,0,6,,,,,,,,5,,,55,0
147325,note_on,0,0,6,,,,,,,,5,,,67,0
147325,note_on,445,0,4,,,,,,,,3,,,67,0
147325,note_on,445,0,2,,,,,,,,1,,,67,0
147325,note_on,445,0,3,,,,,,,,2,,,67,0
147325,note_on,445,0,5,,,,,,,,4,,,55,0
147360,note_on,63,0,1,,,,,,,,0,,,82,85
147475,note_on,115,0,1,,,,,,,,0,,,82,0
147480,note_on,5,0,1,,,,,,,,0,,,84,85
147595,note_on,115,0,1,,,,,,,,0,,,84,0
147600,note_on,5,0,1,,,,,,,,0,,,86,85
147715,note_on,115,0,1,,,,,,,,0,,,86,0
147720,note_on,5,0,1,,,,,,,,0,,,84,85
147835,note_on,115,0,1,,,,,,,,0,,,84,0
147840,note_on,5,0,1,,,,,,,,0,,,82,85
147955,note_on,115,0,1,,,,,,,,0,,,82,0
147960,note_on,5,0,1,,,,,,,,0,,,81,85
148075,note_on,115,0,1,,,,,,,,0,,,81,0
148080,note_on,5,0,1,,,,,,,,0,,,80,85
148250,note_on,170,0,1,,,,,,,,0,,,80,0
148260,note_on,10,0,1,,,,,,,,0,,,81,85
148320,note_on,0,0,1,,,,,,,,0,,,81,85
148320,note_on,60,0,1,,,,,,,,0,,,81,0
148435,note_on,115,0,1,,,,,,,,0,,,81,0
148440,note_on,5,0,1,,,,,,,,0,,,80,85
148680,note_on,1355,0,3,,,,,,,,2,,,64,64
148680,note_on,1355,0,2,,,,,,,,1,,,64,64
148680,note_on,0,0,6,,,,,,,,5,,,52,64
148680,note_on,0,0,6,,,,,,,,5,,,68,64
148680,note_on,0,0,6,,,,,,,,5,,,71,64
148680,note_on,1355,0,6,,,,,,,,5,,,76,64
148680,note_on,1355,0,4,,,,,,,,3,,,64,64
148680,note_on,1355,0,5,,,,,,,,4,,,52,64
148795,note_on,115,0,3,,,,,,,,2,,,64,0
148795,note_on,115,0,4,,,,,,,,3,,,64,0
148795,note_on,115,0,5,,,,,,,,4,,,52,0
148795,note_on,115,0,6,,,,,,,,5,,,52,0
148795,note_on,0,0,6,,,,,,,,5,,,76,0
148795,note_on,0,0,6,,,,,,,,5,,,71,0
148795,note_on,0,0,6,,,,,,,,5,,,68,0
148795,note_on,115,0,2,,,,,,,,1,,,64,0
148800,note_on,5,0,6,,,,,,,,5,,,76,64
148800,note_on,0,0,6,,,,,,,,5,,,71,64
148800,note_on,0,0,6,,,,,,,,5,,,68,64
148800,note_on,0,0,6,,,,,,,,5,,,52,64
148800,note_on,5,0,2,,,,,,,,1,,,64,64
148800,note_on,5,0,3,,,,,,,,2,,,64,64
148800,note_on,5,0,5,,,,,,,,4,,,52,64
148800,note_on,5,0,4,,,,,,,,3,,,64,64
149135,note_on,335,0,2,,,,,,,,1,,,64,0
149135,note_on,335,0,3,,,,,,,,2,,,64,0
149135,note_on,335,0,4,,,,,,,,3,,,64,0
149135,note_on,335,0,5,,,,,,,,4,,,52,0
149135,note_on,335,0,6,,,,,,,,5,,,52,0
149135,note_on,0,0,6,,,,,,,,5,,,76,0
149135,note_on,0,0,6,,,,,,,,5,,,71,0
149135,note_on,0,0,6,,,,,,,,5,,,68,0
149160,note_on,25,0,5,,,,,,,,4,,,52,64
149160,note_on,25,0,6,,,,,,,,5,,,64,64
149160,note_on,25,0,2,,,,,,,,1,,,64,64
149160,note_on,25,0,4,,,,,,,,3,,,64,64
149160,note_on,25,0,3,,,,,,,,2,,,64,64
149160,note_on,0,0,6,,,,,,,,5,,,52,64
149275,note_on,115,0,3,,,,,,,,2,,,64,0
149275,note_on,0,0,6,,,,,,,,5,,,64,0
149275,note_on,115,0,6,,,,,,,,5,,,52,0
149275,note_on,115,0,2,,,,,,,,1,,,64,0
149275,note_on,115,0,5,,,,,,,,4,,,52,0
149275,note_on,115,0,4,,,,,,,,3,,,64,0
149280,note_on,0,0,6,,,,,,,,5,,,54,64
149280,note_on,5,0,5,,,,,,,,4,,,54,64
149280,note_on,5,0,6,,,,,,,,5,,,66,64
149280,note_on,5,0,3,,,,,,,,2,,,66,64
149280,note_on,5,0,2,,,,,,,,1,,,66,64
149280,note_on,5,0,4,,,,,,,,3,,,66,64
149615,note_on,335,0,5,,,,,,,,4,,,54,0
149615,note_on,335,0,4,,,,,,,,3,,,66,0
149615,note_on,335,0,6,,,,,,,,5,,,54,0
149615,note_on,335,0,3,,,,,,,,2,,,66,0
149615,note_on,335,0,2,,,,,,,,1,,,66,0
149615,note_on,0,0,6,,,,,,,,5,,,66,0
149640,note_on,25,0,3,,,,,,,,2,,,68,64
149640,note_on,0,0,6,,,,,,,,5,,,56,64
149640,note_on,25,0,5,,,,,,,,4,,,56,64
149640,note_on,25,0,4,,,,,,,,3,,,68,64
149640,note_on,25,0,2,,,,,,,,1,,,68,64
149640,note_on,25,0,6,,,,,,,,5,,,68,64
149735,note_on,1295,0,1,,,,,,,,0,,,80,0
149755,note_on,115,0,3,,,,,,,,2,,,68,0
149755,note_on,0,0,6,,,,,,,,5,,,68,0
149755,note_on,115,0,5,,,,,,,,4,,,56,0
149755,note_on,115,0,2,,,,,,,,1,,,68,0
149755,note_on,115,0,4,,,,,,,,3,,,68,0
149755,note_on,115,0,6,,,,,,,,5,,,56,0
149760,note_on,5,0,6,,,,,,,,5,,,57,64
149760,note_on,5,0,5,,,,,,,,4,,,57,64
149760,note_on,5,0,2,,,,,,,,1,,,69,64
149760,note_on,5,0,4,,,,,,,,3,,,69,64
149760,note_on,5,0,3,,,,,,,,2,,,69,64
150000,note_on,265,0,1,,,,,,,,0,,,84,85
150205,note_on,445,0,3,,,,,,,,2,,,69,0
150205,note_on,445,0,6,,,,,,,,5,,,57,0
150205,note_on,445,0,5,,,,,,,,4,,,57,0
150205,note_on,445,0,4,,,,,,,,3,,,69,0
150205,note_on,445,0,2,,,,,,,,1,,,69,0
150225,note_on,225,0,1,,,,,,,,0,,,84,0
150240,note_on,15,0,1,,,,,,,,0,,,84,85
150390,note_on,150,0,1,,,,,,,,0,,,84,0
150400,note_on,10,0,1,,,,,,,,0,,,86,85
150550,note_on,150,0,1,,,,,,,,0,,,86,0
150560,note_on,10,0,1,,,,,,,,0,,,84,85
150710,note_on,150,0,1,,,,,,,,0,,,84,0
150720,note_on,10,0,1,,,,,,,,0,,,83,85
150870,note_on,150,0,1,,,,,,,,0,,,83,0
150880,note_on,10,0,1,,,,,,,,0,,,81,85
151030,note_on,150,0,1,,,,,,,,0,,,81,0
151040,note_on,10,0,1,,,,,,,,0,,,83,85
151190,note_on,150,0,1,,,,,,,,0,,,83,0
151200,note_on,995,0,2,,,,,,,,1,,,63,34
151200,note_on,10,0,1,,,,,,,,0,,,81,85
151200,note_on,995,0,4,,,,,,,,3,,,63,34
151200,note_on,995,0,3,,,,,,,,2,,,63,34
151200,note_on,995,0,6,,,,,,,,5,,,78,64
151200,note_on,995,0,5,,,,,,,,4,,,51,34
151200,note_on,0,0,6,,,,,,,,5,,,71,64
151200,note_on,0,0,6,,,,,,,,5,,,69,64
151200,note_on,0,0,6,,,,,,,,5,,,51,34
151535,note_on,335,0,2,,,,,,,,1,,,63,0
151535,note_on,335,0,3,,,,,,,,2,,,63,0
151535,note_on,335,0,5,,,,,,,,4,,,51,0
151535,note_on,335,0,4,,,,,,,,3,,,63,0
151535,note_on,335,0,6,,,,,,,,5,,,51,0
151560,note_on,25,0,5,,,,,,,,4,,,51,34
151560,note_on,25,0,3,,,,,,,,2,,,63,34
151560,note_on,25,0,2,,,,,,,,1,,,63,34
151560,note_on,25,0,4,,,,,,,,3,,,63,34
151560,note_on,25,0,6,,,,,,,,5,,,51,34
151675,note_on,115,0,3,,,,,,,,2,,,63,0
151675,note_on,115,0,2,,,,,,,,1,,,63,0
151675,note_on,115,0,5,,,,,,,,4,,,51,0
151675,note_on,115,0,6,,,,,,,,5,,,51,0
151675,note_on,115,0,4,,,,,,,,3,,,63,0
151680,note_on,5,0,4,,,,,,,,3,,,63,34
151680,note_on,5,0,5,,,,,,,,4,,,51,34
151680,note_on,5,0,6,,,,,,,,5,,,51,34
151680,note_on,5,0,3,,,,,,,,2,,,63,34
151680,note_on,5,0,2,,,,,,,,1,,,63,34
151755,note_on,555,0,1,,,,,,,,0,,,81,0
151760,note_on,5,0,1,,,,,,,,0,,,78,85
151835,note_on,75,0,1,,,,,,,,0,,,78,0
151840,note_on,5,0,1,,,,,,,,0,,,79,85
151915,note_on,75,0,1,,,,,,,,0,,,79,0
151920,note_on,5,0,1,,,,,,,,0,,,81,85
151995,note_on,75,0,1,,,,,,,,0,,,81,0
152000,note_on,5,0,1,,,,,,,,0,,,79,85
152015,note_on,335,0,3,,,,,,,,2,,,63,0
152015,note_on,335,0,4,,,,,,,,3,,,63,0
152015,note_on,335,0,6,,,,,,,,5,,,51,0
152015,note_on,335,0,5,,,,,,,,4,,,51,0
152015,note_on,335,0,2,,,,,,,,1,,,63,0
152040,note_on,25,0,2,,,,,,,,1,,,63,34
152040,note_on,25,0,6,,,,,,,,5,,,51,34
152040,note_on,25,0,5,,,,,,,,4,,,51,34
152040,note_on,25,0,3,,,,,,,,2,,,63,34
152040,note_on,25,0,4,,,,,,,,3,,,63,34
152075,note_on,75,0,1,,,,,,,,0,,,79,0
152080,note_on,5,0,1,,,,,,,,0,,,78,85
152085,note_on,45,0,6,,,,,,,,5,,,78,0
152085,note_on,0,0,6,,,,,,,,5,,,71,0
152085,note_on,0,0,6,,,,,,,,5,,,69,0
152155,note_on,115,0,5,,,,,,,,4,,,51,0
152155,note_on,115,0,3,,,,,,,,2,,,63,0
152155,note_on,70,0,6,,,,,,,,5,,,51,0
152155,note_on,115,0,2,,,,,,,,1,,,63,0
152155,note_on,115,0,4,,,,,,,,3,,,63,0
152155,note_on,75,0,1,,,,,,,,0,,,78,0
152160,note_on,5,0,6,,,,,,,,5,,,78,64
152160,note_on,0,0,6,,,,,,,,5,,,71,64
152160,note_on,5,0,5,,,,,,,,4,,,51,34
152160,note_on,5,0,4,,,,,,,,3,,,63,34
152160,note_on,0,0,6,,,,,,,,5,,,69,64
152160,note_on,5,0,3,,,,,,,,2,,,63,34
152160,note_on,0,0,6,,,,,,,,5,,,51,34
152160,note_on,5,0,2,,,,,,,,1,,,63,34
152160,note_on,5,0,1,,,,,,,,0,,,83,85
152235,note_on,75,0,1,,,,,,,,0,,,83,0
152240,note_on,5,0,1,,,,,,,,0,,,78,85
152315,note_on,75,0,1,,,,,,,,0,,,78,0
152320,note_on,5,0,1,,,,,,,,0,,,79,85
152395,note_on,75,0,1,,,,,,,,0,,,79,0
152400,note_on,5,0,1,,,,,,,,0,,,81,85
152475,note_on,75,0,1,,,,,,,,0,,,81,0
152480,note_on,5,0,1,,,,,,,,0,,,79,85
152495,note_on,335,0,5,,,,,,,,4,,,51,0
152495,note_on,335,0,4,,,,,,,,3,,,63,0
152495,note_on,335,0,2,,,,,,,,1,,,63,0
152495,note_on,335,0,6,,,,,,,,5,,,51,0
152495,note_on,335,0,3,,,,,,,,2,,,63,0
152520,note_on,25,0,4,,,,,,,,3,,,63,34
152520,note_on,25,0,5,,,,,,,,4,,,51,34
152520,note_on,25,0,6,,,,,,,,5,,,51,34
152520,note_on,25,0,2,,,,,,,,1,,,63,34
152520,note_on,25,0,3,,,,,,,,2,,,63,34
152555,note_on,75,0,1,,,,,,,,0,,,79,0
152560,note_on,5,0,1,,,,,,,,0,,,78,85
152605,note_on,0,0,6,,,,,,,,5,,,71,0
152605,note_on,0,0,6,,,,,,,,5,,,69,0
152605,note_on,85,0,6,,,,,,,,5,,,78,0
152635,note_on,115,0,2,,,,,,,,1,,,63,0
152635,note_on,115,0,5,,,,,,,,4,,,51,0
152635,note_on,115,0,3,,,,,,,,2,,,63,0
152635,note_on,75,0,1,,,,,,,,0,,,78,0
152635,note_on,115,0,4,,,,,,,,3,,,63,0
152635,note_on,30,0,6,,,,,,,,5,,,51,0
152640,note_on,5,0,1,,,,,,,,0,,,80,85
152640,note_on,5,0,3,,,,,,,,2,,,64,34
152640,note_on,5,0,5,,,,,,,,4,,,52,34
152640,note_on,5,0,6,,,,,,,,5,,,76,64
152640,note_on,0,0,6,,,,,,,,5,,,71,64
152640,note_on,0,0,6,,,,,,,,5,,,68,64
152640,note_on,5,0,2,,,,,,,,1,,,64,34
152640,note_on,5,0,4,,,,,,,,3,,,64,34
152640,note_on,0,0,6,,,,,,,,5,,,52,34
152975,note_on,335,0,6,,,,,,,,5,,,52,0
152975,note_on,335,0,4,,,,,,,,3,,,64,0
152975,note_on,335,0,2,,,,,,,,1,,,64,0
152975,note_on,335,0,3,,,,,,,,2,,,64,0
152975,note_on,335,0,5,,,,,,,,4,,,52,0
153000,note_on,25,0,2,,,,,,,,1,,,64,34
153000,note_on,25,0,4,,,,,,,,3,,,64,34
153000,note_on,25,0,6,,,,,,,,5,,,52,34
153000,note_on,25,0,3,,,,,,,,2,,,64,34
153000,note_on,25,0,5,,,,,,,,4,,,52,34
153115,note_on,115,0,5,,,,,,,,4,,,52,0
153115,note_on,115,0,3,,,,,,,,2,,,64,0
153115,note_on,115,0,4,,,,,,,,3,,,64,0
153115,note_on,115,0,2,,,,,,,,1,,,64,0
153115,note_on,115,0,6,,,,,,,,5,,,52,0
153120,note_on,5,0,2,,,,,,,,1,,,64,34
153120,note_on,5,0,6,,,,,,,,5,,,52,34
153120,note_on,5,0,4,,,,,,,,3,,,64,34
153120,note_on,5,0,5,,,,,,,,4,,,52,34
153120,note_on,5,0,3,,,,,,,,2,,,64,34
153195,note_on,555,0,1,,,,,,,,0,,,80,0
153200,note_on,5,0,1,,,,,,,,0,,,76,85
153275,note_on,75,0,1,,,,,,,,0,,,76,0
153280,note_on,5,0,1,,,,,,,,0,,,78,85
153355,note_on,75,0,1,,,,,,,,0,,,78,0
153360,note_on,5,0,1,,,,,,,,0,,,80,85
153435,note_on,75,0,1,,,,,,,,0,,,80,0
153440,note_on,5,0,1,,,,,,,,0,,,78,85
153455,note_on,335,0,2,,,,,,,,1,,,64,0
153455,note_on,335,0,6,,,,,,,,5,,,52,0
153455,note_on,335,0,4,,,,,,,,3,,,64,0
153455,note_on,335,0,5,,,,,,,,4,,,52,0
153455,note_on,335,0,3,,,,,,,,2,,,64,0
153480,note_on,25,0,6,,,,,,,,5,,,52,34
153480,note_on,25,0,5,,,,,,,,4,,,52,34
153480,note_on,25,0,4,,,,,,,,3,,,64,34
153480,note_on,25,0,3,,,,,,,,2,,,64,34
153480,note_on,25,0,2,,,,,,,,1,,,64,34
153515,note_on,75,0,1,,,,,,,,0,,,78,0
153520,note_on,5,0,1,,,,,,,,0,,,76,85
153525,note_on,45,0,6,,,,,,,,5,,,76,0
153525,note_on,0,0,6,,,,,,,,5,,,68,0
153525,note_on,0,0,6,,,,,,,,5,,,71,0
153595,note_on,115,0,2,,,,,,,,1,,,64,0
153595,note_on,70,0,6,,,,,,,,5,,,52,0
153595,note_on,115,0,3,,,,,,,,2,,,64,0
153595,note_on,115,0,5,,,,,,,,4,,,52,0
153595,note_on,75,0,1,,,,,,,,0,,,76,0
153595,note_on,115,0,4,,,,,,,,3,,,64,0
153600,note_on,5,0,3,,,,,,,,2,,,64,34
153600,note_on,5,0,4,,,,,,,,3,,,64,34
153600,note_on,5,0,5,,,,,,,,4,,,52,34
153600,note_on,5,0,1,,,,,,,,0,,,83,85
153600,note_on,5,0,2,,,,,,,,1,,,64,34
153600,note_on,5,0,6,,,,,,,,5,,,52,34
153675,note_on,75,0,1,,,,,,,,0,,,83,0
153680,note_on,5,0,1,,,,,,,,0,,,81,85
153755,note_on,75,0,1,,,,,,,,0,,,81,0
153760,note_on,5,0,1,,,,,,,,0,,,80,85
153835,note_on,75,0,1,,,,,,,,0,,,80,0
153840,note_on,5,0,1,,,,,,,,0,,,77,85
153915,note_on,75,0,1,,,,,,,,0,,,77,0
153920,note_on,5,0,1,,,,,,,,0,,,76,85
153935,note_on,335,0,4,,,,,,,,3,,,64,0
153935,note_on,335,0,2,,,,,,,,1,,,64,0
153935,note_on,335,0,6,,,,,,,,5,,,52,0
153935,note_on,335,0,3,,,,,,,,2,,,64,0
153935,note_on,335,0,5,,,,,,,,4,,,52,0
153960,note_on,25,0,5,,,,,,,,4,,,52,34
153960,note_on,25,0,2,,,,,,,,1,,,64,34
153960,note_on,25,0,6,,,,,,,,5,,,52,34
153960,note_on,25,0,3,,,,,,,,2,,,64,34
153960,note_on,25,0,4,,,,,,,,3,,,64,34
153995,note_on,75,0,1,,,,,,,,0,,,76,0
154000,note_on,5,0,1,,,,,,,,0,,,74,85
154075,note_on,115,0,5,,,,,,,,4,,,52,0
154075,note_on,75,0,1,,,,,,,,0,,,74,0
154075,note_on,115,0,4,,,,,,,,3,,,64,0
154075,note_on,115,0,6,,,,,,,,5,,,52,0
154075,note_on,115,0,2,,,,,,,,1,,,64,0
154075,note_on,115,0,3,,,,,,,,2,,,64,0
154080,note_on,5,0,1,,,,,,,,0,,,73,85
154080,note_on,5,0,2,,,,,,,,1,,,69,34
154080,note_on,0,0,6,,,,,,,,5,,,64,64
154080,note_on,0,0,6,,,,,,,,5,,,69,64
154080,note_on,5,0,6,,,,,,,,5,,,73,64
154080,note_on,5,0,4,,,,,,,,3,,,69,34
154080,note_on,5,0,3,,,,,,,,2,,,69,34
154080,note_on,5,0,5,,,,,,,,4,,,57,34
154080,note_on,0,0,6,,,,,,,,5,,,57,34
154415,note_on,335,0,6,,,,,,,,5,,,57,0
154415,note_on,335,0,5,,,,,,,,4,,,57,0
154415,note_on,335,0,2,,,,,,,,1,,,69,0
154415,note_on,335,0,3,,,,,,,,2,,,69,0
154415,note_on,335,0,4,,,,,,,,3,,,69,0
154440,note_on,25,0,2,,,,,,,,1,,,69,34
154440,note_on,25,0,3,,,,,,,,2,,,69,34
154440,note_on,25,0,5,,,,,,,,4,,,57,34
154440,note_on,25,0,4,,,,,,,,3,,,69,34
154440,note_on,25,0,6,,,,,,,,5,,,57,34
154555,note_on,115,0,5,,,,,,,,4,,,57,0
154555,note_on,115,0,3,,,,,,,,2,,,69,0
154555,note_on,115,0,4,,,,,,,,3,,,69,0
154555,note_on,115,0,2,,,,,,,,1,,,69,0
154555,note_on,115,0,6,,,,,,,,5,,,57,0
154560,note_on,5,0,6,,,,,,,,5,,,57,34
154560,note_on,5,0,5,,,,,,,,4,,,57,34
154560,note_on,5,0,4,,,,,,,,3,,,69,34
154560,note_on,5,0,2,,,,,,,,1,,,69,34
154560,note_on,5,0,3,,,,,,,,2,,,69,34
154591,note_on,511,0,1,,,,,,,,0,,,73,0
154640,note_on,49,0,1,,,,,,,,0,,,76,85
154715,note_on,75,0,1,,,,,,,,0,,,76,0
154720,note_on,5,0,1,,,,,,,,0,,,77,85
154795,note_on,75,0,1,,,,,,,,0,,,77,0
154800,note_on,5,0,1,,,,,,,,0,,,79,85
154875,note_on,75,0,1,,,,,,,,0,,,79,0
154880,note_on,5,0,1,,,,,,,,0,,,77,85
154895,note_on,335,0,2,,,,,,,,1,,,69,0
154895,note_on,335,0,6,,,,,,,,5,,,57,0
154895,note_on,335,0,5,,,,,,,,4,,,57,0
154895,note_on,335,0,3,,,,,,,,2,,,69,0
154895,note_on,335,0,4,,,,,,,,3,,,69,0
154920,note_on,25,0,6,,,,,,,,5,,,57,34
154920,note_on,25,0,2,,,,,,,,1,,,69,34
154920,note_on,25,0,4,,,,,,,,3,,,69,34
154920,note_on,25,0,3,,,,,,,,2,,,69,34
154920,note_on,25,0,5,,,,,,,,4,,,57,34
154955,note_on,75,0,1,,,,,,,,0,,,77,0
154960,note_on,5,0,1,,,,,,,,0,,,76,85
154965,note_on,45,0,6,,,,,,,,5,,,73,0
154965,note_on,0,0,6,,,,,,,,5,,,64,0
154965,note_on,0,0,6,,,,,,,,5,,,69,0
155035,note_on,115,0,3,,,,,,,,2,,,69,0
155035,note_on,115,0,2,,,,,,,,1,,,69,0
155035,note_on,115,0,5,,,,,,,,4,,,57,0
155035,note_on,115,0,4,,,,,,,,3,,,69,0
155035,note_on,75,0,1,,,,,,,,0,,,76,0
155035,note_on,70,0,6,,,,,,,,5,,,57,0
155040,note_on,0,0,6,,,,,,,,5,,,69,64
155040,note_on,5,0,4,,,,,,,,3,,,67,34
155040,note_on,5,0,6,,,,,,,,5,,,73,64
155040,note_on,5,0,5,,,,,,,,4,,,55,34
155040,note_on,0,0,6,,,,,,,,5,,,64,64
155040,note_on,0,0,6,,,,,,,,5,,,55,34
155040,note_on,5,0,3,,,,,,,,2,,,67,34
155040,note_on,5,0,2,,,,,,,,1,,,67,34
155040,note_on,5,0,1,,,,,,,,0,,,81,85
155115,note_on,75,0,1,,,,,,,,0,,,81,0
155120,note_on,5,0,1,,,,,,,,0,,,79,85
155195,note_on,75,0,1,,,,,,,,0,,,79,0
155200,note_on,5,0,1,,,,,,,,0,,,77,85
155275,note_on,75,0,1,,,,,,,,0,,,77,0
155280,note_on,5,0,1,,,,,,,,0,,,76,85
155355,note_on,75,0,1,,,,,,,,0,,,76,0
155360,note_on,5,0,1,,,,,,,,0,,,74,85
155375,note_on,335,0,3,,,,,,,,2,,,67,0
155375,note_on,335,0,4,,,,,,,,3,,,67,0
155375,note_on,335,0,2,,,,,,,,1,,,67,0
155375,note_on,335,0,5,,,,,,,,4,,,55,0
155375,note_on,335,0,6,,,,,,,,5,,,55,0
155400,note_on,25,0,2,,,,,,,,1,,,67,34
155400,note_on,25,0,3,,,,,,,,2,,,67,34
155400,note_on,25,0,5,,,,,,,,4,,,55,34
155400,note_on,25,0,4,,,,,,,,3,,,67,34
155400,note_on,25,0,6,,,,,,,,5,,,55,34
155435,note_on,75,0,1,,,,,,,,0,,,74,0
155440,note_on,5,0,1,,,,,,,,0,,,73,85
155485,note_on,0,0,6,,,,,,,,5,,,64,0
155485,note_on,0,0,6,,,,,,,,5,,,69,0
155485,note_on,85,0,6,,,,,,,,5,,,73,0
155515,note_on,30,0,6,,,,,,,,5,,,55,0
155515,note_on,115,0,4,,,,,,,,3,,,67,0
155515,note_on,115,0,3,,,,,,,,2,,,67,0
155515,note_on,115,0,2,,,,,,,,1,,,67,0
155515,note_on,115,0,5,,,,,,,,4,,,55,0
155515,note_on,75,0,1,,,,,,,,0,,,73,0
155520,note_on,5,0,5,,,,,,,,4,,,53,34
155520,note_on,5,0,1,,,,,,,,0,,,74,85
155520,note_on,0,0,6,,,,,,,,5,,,62,64
155520,note_on,5,0,4,,,,,,,,3,,,65,34
155520,note_on,0,0,6,,,,,,,,5,,,69,64
155520,note_on,0,0,6,,,,,,,,5,,,53,34
155520,note_on,5,0,3,,,,,,,,2,,,65,34
155520,note_on,5,0,6,,,,,,,,5,,,74,64
155520,note_on,5,0,2,,,,,,,,1,,,65,34
155855,note_on,335,0,4,,,,,,,,3,,,65,0
155855,note_on,335,0,6,,,,,,,,5,,,53,0
155855,note_on,335,0,3,,,,,,,,2,,,65,0
155855,note_on,335,0,2,,,,,,,,1,,,65,0
155855,note_on,335,0,5,,,,,,,,4,,,53,0
155880,note_on,25,0,3,,,,,,,,2,,,65,34
155880,note_on,25,0,4,,,,,,,,3,,,65,34
155880,note_on,25,0,6,,,,,,,,5,,,53,34
155880,note_on,25,0,5,,,,,,,,4,,,53,34
155880,note_on,25,0,2,,,,,,,,1,,,65,34
155965,note_on,0,0,6,,,,,,,,5,,,69,0
155965,note_on,0,0,6,,,,,,,,5,,,62,0
155965,note_on,85,0,6,,,,,,,,5,,,74,0
155995,note_on,115,0,2,,,,,,,,1,,,65,0
155995,note_on,30,0,6,,,,,,,,5,,,53,0
155995,note_on,115,0,5,,,,,,,,4,,,53,0
155995,note_on,115,0,3,,,,,,,,2,,,65,0
155995,note_on,115,0,4,,,,,,,,3,,,65,0
156000,note_on,5,0,3,,,,,,,,2,,,65,34
156000,note_on,5,0,2,,,,,,,,1,,,65,34
156000,note_on,5,0,6,,,,,,,,5,,,62,64
156000,note_on,0,0,6,,,,,,,,5,,,53,34
156000,note_on,5,0,5,,,,,,,,4,,,53,34
156000,note_on,5,0,4,,,,,,,,3,,,65,34
156036,note_on,516,0,1,,,,,,,,0,,,74,0
156080,note_on,44,0,1,,,,,,,,0,,,74,85
156155,note_on,75,0,1,,,,,,,,0,,,74,0
156160,note_on,5,0,1,,,,,,,,0,,,76,85
156235,note_on,75,0,1,,,,,,,,0,,,76,0
156240,note_on,5,0,1,,,,,,,,0,,,77,85
156315,note_on,75,0,1,,,,,,,,0,,,77,0
156320,note_on,5,0,1,,,,,,,,0,,,76,85
156335,note_on,335,0,2,,,,,,,,1,,,65,0
156335,note_on,335,0,5,,,,,,,,4,,,53,0
156335,note_on,335,0,3,,,,,,,,2,,,65,0
156335,note_on,335,0,4,,,,,,,,3,,,65,0
156335,note_on,335,0,6,,,,,,,,5,,,53,0
156360,note_on,25,0,3,,,,,,,,2,,,65,34
156360,note_on,25,0,2,,,,,,,,1,,,65,34
156360,note_on,25,0,6,,,,,,,,5,,,53,34
156360,note_on,25,0,4,,,,,,,,3,,,65,34
156360,note_on,25,0,5,,,,,,,,4,,,53,34
156395,note_on,75,0,1,,,,,,,,0,,,76,0
156400,note_on,5,0,1,,,,,,,,0,,,74,85
156445,note_on,85,0,6,,,,,,,,5,,,62,0
156475,note_on,75,0,1,,,,,,,,0,,,74,0
156475,note_on,115,0,2,,,,,,,,1,,,65,0
156475,note_on,115,0,5,,,,,,,,4,,,53,0
156475,note_on,115,0,4,,,,,,,,3,,,65,0
156475,note_on,30,0,6,,,,,,,,5,,,53,0
156475,note_on,115,0,3,,,,,,,,2,,,65,0
156480,note_on,5,0,1,,,,,,,,0,,,81,85
156480,note_on,0,0,6,,,,,,,,5,,,62,64
156480,note_on,0,0,6,,,,,,,,5,,,53,34
156480,note_on,5,0,6,,,,,,,,5,,,74,64
156480,note_on,5,0,5,,,,,,,,4,,,53,34
156480,note_on,5,0,2,,,,,,,,1,,,65,34
156480,note_on,0,0,6,,,,,,,,5,,,69,64
156480,note_on,5,0,3,,,,,,,,2,,,65,34
156480,note_on,5,0,4,,,,,,,,3,,,65,34
156555,note_on,75,0,1,,,,,,,,0,,,81,0
156560,note_on,5,0,1,,,,,,,,0,,,79,85
156635,note_on,75,0,1,,,,,,,,0,,,79,0
156640,note_on,5,0,1,,,,,,,,0,,,77,85
156715,note_on,75,0,1,,,,,,,,0,,,77,0
156720,note_on,5,0,1,,,,,,,,0,,,76,85
156795,note_on,75,0,1,,,,,,,,0,,,76,0
156800,note_on,5,0,1,,,,,,,,0,,,74,85
156815,note_on,335,0,3,,,,,,,,2,,,65,0
156815,note_on,335,0,2,,,,,,,,1,,,65,0
156815,note_on,335,0,5,,,,,,,,4,,,53,0
156815,note_on,335,0,6,,,,,,,,5,,,53,0
156815,note_on,335,0,4,,,,,,,,3,,,65,0
156840,note_on,25,0,6,,,,,,,,5,,,53,34
156840,note_on,25,0,2,,,,,,,,1,,,65,34
156840,note_on,25,0,3,,,,,,,,2,,,65,34
156840,note_on,25,0,5,,,,,,,,4,,,53,34
156840,note_on,25,0,4,,,,,,,,3,,,65,34
156875,note_on,75,0,1,,,,,,,,0,,,74,0
156880,note_on,5,0,1,,,,,,,,0,,,72,85
156925,note_on,0,0,6,,,,,,,,5,,,62,0
156925,note_on,85,0,6,,,,,,,,5,,,74,0
156925,note_on,0,0,6,,,,,,,,5,,,69,0
156955,note_on,115,0,5,,,,,,,,4,,,53,0
156955,note_on,30,0,6,,,,,,,,5,,,53,0
156955,note_on,115,0,2,,,,,,,,1,,,65,0
156955,note_on,115,0,4,,,,,,,,3,,,65,0
156955,note_on,115,0,3,,,,,,,,2,,,65,0
156955,note_on,75,0,1,,,,,,,,0,,,72,0
156960,note_on,5,0,6,,,,,,,,5,,,71,64
156960,note_on,0,0,6,,,,,,,,5,,,55,34
156960,note_on,5,0,3,,,,,,,,2,,,67,34
156960,note_on,5,0,1,,,,,,,,0,,,71,85
156960,note_on,0,0,6,,,,,,,,5,,,62,64
156960,note_on,0,0,6,,,,,,,,5,,,67,64
156960,note_on,5,0,4,,,,,,,,3,,,67,34
156960,note_on,5,0,2,,,,,,,,1,,,67,34
156960,note_on,5,0,5,,,,,,,,4,,,55,34
157295,note_on,335,0,5,,,,,,,,4,,,55,0
157295,note_on,335,0,4,,,,,,,,3,,,67,0
157295,note_on,335,0,6,,,,,,,,5,,,55,0
157295,note_on,335,0,2,,,,,,,,1,,,67,0
157295,note_on,335,0,3,,,,,,,,2,,,67,0
157320,note_on,25,0,6,,,,,,,,5,,,55,34
157320,note_on,25,0,2,,,,,,,,1,,,67,34
157320,note_on,25,0,5,,,,,,,,4,,,55,34
157320,note_on,25,0,4,,,,,,,,3,,,67,34
157320,note_on,25,0,3,,,,,,,,2,,,67,34
157435,note_on,115,0,5,,,,,,,,4,,,55,0
157435,note_on,115,0,2,,,,,,,,1,,,67,0
157435,note_on,115,0,3,,,,,,,,2,,,67,0
157435,note_on,115,0,6,,,,,,,,5,,,55,0
157435,note_on,115,0,4,,,,,,,,3,,,67,0
157440,note_on,5,0,2,,,,,,,,1,,,67,34
157440,note_on,5,0,3,,,,,,,,2,,,67,34
157440,note_on,5,0,6,,,,,,,,5,,,55,34
157440,note_on,5,0,4,,,,,,,,3,,,67,34
157440,note_on,5,0,5,,,,,,,,4,,,55,34
157476,note_on,516,0,1,,,,,,,,0,,,71,0
157520,note_on,44,0,1,,,,,,,,0,,,74,85
157595,note_on,75,0,1,,,,,,,,0,,,74,0
157600,note_on,5,0,1,,,,,,,,0,,,76,85
157675,note_on,75,0,1,,,,,,,,0,,,76,0
157680,note_on,5,0,1,,,,,,,,0,,,77,85
157755,note_on,75,0,1,,,,,,,,0,,,77,0
157760,note_on,5,0,1,,,,,,,,0,,,76,85
157775,note_on,335,0,6,,,,,,,,5,,,55,0
157775,note_on,335,0,2,,,,,,,,1,,,67,0
157775,note_on,335,0,3,,,,,,,,2,,,67,0
157775,note_on,335,0,4,,,,,,,,3,,,67,0
157775,note_on,335,0,5,,,,,,,,4,,,55,0
157800,note_on,25,0,3,,,,,,,,2,,,67,34
157800,note_on,25,0,4,,,,,,,,3,,,67,34
157800,note_on,25,0,2,,,,,,,,1,,,67,34
157800,note_on,25,0,6,,,,,,,,5,,,55,34
157800,note_on,25,0,5,,,,,,,,4,,,55,34
157835,note_on,75,0,1,,,,,,,,0,,,76,0
157840,note_on,5,0,1,,,,,,,,0,,,74,85
157845,note_on,0,0,6,,,,,,,,5,,,62,0
157845,note_on,0,0,6,,,,,,,,5,,,67,0
157845,note_on,45,0,6,,,,,,,,5,,,71,0
157915,note_on,115,0,3,,,,,,,,2,,,67,0
157915,note_on,70,0,6,,,,,,,,5,,,55,0
157915,note_on,115,0,5,,,,,,,,4,,,55,0
157915,note_on,115,0,2,,,,,,,,1,,,67,0
157915,note_on,75,0,1,,,,,,,,0,,,74,0
157915,note_on,115,0,4,,,,,,,,3,,,67,0
157920,note_on,5,0,2,,,,,,,,1,,,65,34
157920,note_on,5,0,4,,,,,,,,3,,,65,34
157920,note_on,0,0,6,,,,,,,,5,,,67,64
157920,note_on,0,0,6,,,,,,,,5,,,53,34
157920,note_on,0,0,6,,,,,,,,5,,,62,64
157920,note_on,5,0,6,,,,,,,,5,,,71,64
157920,note_on,5,0,1,,,,,,,,0,,,79,85
157920,note_on,5,0,3,,,,,,,,2,,,65,34
157920,note_on,5,0,5,,,,,,,,4,,,53,34
157995,note_on,75,0,1,,,,,,,,0,,,79,0
158000,note_on,5,0,1,,,,,,,,0,,,77,85
158075,note_on,75,0,1,,,,,,,,0,,,77,0
158080,note_on,5,0,1,,,,,,,,0,,,76,85
158155,note_on,75,0,1,,,,,,,,0,,,76,0
158160,note_on,5,0,1,,,,,,,,0,,,74,85
158235,note_on,75,0,1,,,,,,,,0,,,74,0
158240,note_on,5,0,1,,,,,,,,0,,,72,85
158255,note_on,335,0,6,,,,,,,,5,,,53,0
158255,note_on,335,0,5,,,,,,,,4,,,53,0
158255,note_on,335,0,3,,,,,,,,2,,,65,0
158255,note_on,335,0,4,,,,,,,,3,,,65,0
158255,note_on,335,0,2,,,,,,,,1,,,65,0
158280,note_on,25,0,6,,,,,,,,5,,,53,34
158280,note_on,25,0,3,,,,,,,,2,,,65,34
158280,note_on,25,0,4,,,,,,,,3,,,65,34
158280,note_on,25,0,5,,,,,,,,4,,,53,34
158280,note_on,25,0,2,,,,,,,,1,,,65,34
158315,note_on,75,0,1,,,,,,,,0,,,72,0
158320,note_on,5,0,1,,,,,,,,0,,,71,85
158365,note_on,0,0,6,,,,,,,,5,,,67,0
158365,note_on,85,0,6,,,,,,,,5,,,71,0
158365,note_on,0,0,6,,,,,,,,5,,,62,0
158395,note_on,115,0,3,,,,,,,,2,,,65,0
158395,note_on,30,0,6,,,,,,,,5,,,53,0
158395,note_on,115,0,5,,,,,,,,4,,,53,0
158395,note_on,75,0,1,,,,,,,,0,,,71,0
158395,note_on,115,0,4,,,,,,,,3,,,65,0
158395,note_on,115,0,2,,,,,,,,1,,,65,0
158400,note_on,0,0,6,,,,,,,,5,,,52,34
158400,note_on,5,0,1,,,,,,,,0,,,72,85
158400,note_on,0,0,6,,,,,,,,5,,,67,64
158400,note_on,0,0,6,,,,,,,,5,,,60,64
158400,note_on,5,0,3,,,,,,,,2,,,64,34
158400,note_on,5,0,6,,,,,,,,5,,,72,64
158400,note_on,5,0,4,,,,,,,,3,,,64,34
158400,note_on,5,0,5,,,,,,,,4,,,52,34
158400,note_on,5,0,2,,,,,,,,1,,,64,34
158475,note_on,75,0,1,,,,,,,,0,,,72,0
158480,note_on,5,0,1,,,,,,,,0,,,74,85
158555,note_on,75,0,1,,,,,,,,0,,,74,0
158560,note_on,5,0,1,,,,,,,,0,,,76,85
158635,note_on,75,0,1,,,,,,,,0,,,76,0
158640,note_on,5,0,1,,,,,,,,0,,,76,85
158715,note_on,75,0,1,,,,,,,,0,,,76,0
158720,note_on,5,0,1,,,,,,,,0,,,77,85
158735,note_on,335,0,6,,,,,,,,5,,,52,0
158735,note_on,335,0,2,,,,,,,,1,,,64,0
158735,note_on,335,0,4,,,,,,,,3,,,64,0
158735,note_on,335,0,5,,,,,,,,4,,,52,0
158735,note_on,335,0,3,,,,,,,,2,,,64,0
158760,note_on,25,0,4,,,,,,,,3,,,64,34
158760,note_on,25,0,6,,,,,,,,5,,,52,34
158760,note_on,25,0,5,,,,,,,,4,,,52,34
158760,note_on,25,0,2,,,,,,,,1,,,64,34
158760,note_on,25,0,3,,,,,,,,2,,,64,34
158795,note_on,75,0,1,,,,,,,,0,,,77,0
158800,note_on,5,0,1,,,,,,,,0,,,79,85
158845,note_on,85,0,6,,,,,,,,5,,,72,0
158845,note_on,0,0,6,,,,,,,,5,,,67,0
158845,note_on,0,0,6,,,,,,,,5,,,60,0
158875,note_on,115,0,4,,,,,,,,3,,,64,0
158875,note_on,115,0,5,,,,,,,,4,,,52,0
158875,note_on,30,0,6,,,,,,,,5,,,52,0
158875,note_on,75,0,1,,,,,,,,0,,,79,0
158875,note_on,115,0,2,,,,,,,,1,,,64,0
158875,note_on,115,0,3,,,,,,,,2,,,64,0
158880,note_on,5,0,1,,,,,,,,0,,,79,85
158880,note_on,5,0,2,,,,,,,,1,,,64,34
158880,note_on,5,0,3,,,,,,,,2,,,64,34
158880,note_on,5,0,5,,,,,,,,4,,,52,34
158880,note_on,0,0,6,,,,,,,,5,,,52,34
158880,note_on,5,0,4,,,,,,,,3,,,64,34
158880,note_on,5,0,6,,,,,,,,5,,,60,64
158955,note_on,75,0,1,,,,,,,,0,,,79,0
158960,note_on,5,0,1,,,,,,,,0,,,81,85
159035,note_on,75,0,1,,,,,,,,0,,,81,0
159040,note_on,5,0,1,,,,,,,,0,,,82,85
159115,note_on,75,0,1,,,,,,,,0,,,82,0
159120,note_on,5,0,1,,,,,,,,0,,,82,85
159195,note_on,75,0,1,,,,,,,,0,,,82,0
159200,note_on,5,0,1,,,,,,,,0,,,81,85
159215,note_on,335,0,4,,,,,,,,3,,,64,0
159215,note_on,335,0,3,,,,,,,,2,,,64,0
159215,note_on,335,0,6,,,,,,,,5,,,52,0
159215,note_on,335,0,5,,,,,,,,4,,,52,0
159215,note_on,335,0,2,,,,,,,,1,,,64,0
159240,note_on,25,0,4,,,,,,,,3,,,64,34
159240,note_on,25,0,6,,,,,,,,5,,,52,34
159240,note_on,25,0,2,,,,,,,,1,,,64,34
159240,note_on,25,0,3,,,,,,,,2,,,64,34
159240,note_on,25,0,5,,,,,,,,4,,,52,34
159275,note_on,75,0,1,,,,,,,,0,,,81,0
159280,note_on,5,0,1,,,,,,,,0,,,79,85
159325,note_on,85,0,6,,,,,,,,5,,,60,0
159355,note_on,30,0,6,,,,,,,,5,,,52,0
159355,note_on,115,0,2,,,,,,,,1,,,64,0
159355,note_on,115,0,3,,,,,,,,2,,,64,0
159355,note_on,75,0,1,,,,,,,,0,,,79,0
159355,note_on,115,0,4,,,,,,,,3,,,64,0
159355,note_on,115,0,5,,,,,,,,4,,,52,0
159360,note_on,5,0,1,,,,,,,,0,,,79,85
159360,note_on,0,0,6,,,,,,,,5,,,67,64
159360,note_on,5,0,6,,,,,,,,5,,,72,64
159360,note_on,5,0,3,,,,,,,,2,,,64,34
159360,note_on,5,0,4,,,,,,,,3,,,64,34
159360,note_on,5,0,2,,,,,,,,1,,,64,34
159360,note_on,5,0,5,,,,,,,,4,,,52,34
159360,note_on,0,0,6,,,,,,,,5,,,60,64
159360,note_on,0,0,6,,,,,,,,5,,,52,34
159435,note_on,75,0,1,,,,,,,,0,,,79,0
159440,note_on,5,0,1,,,,,,,,0,,,77,85
159515,note_on,75,0,1,,,,,,,,0,,,77,0
159520,note_on,5,0,1,,,,,,,,0,,,76,85
159595,note_on,75,0,1,,,,,,,,0,,,76,0
159600,note_on,5,0,1,,,,,,,,0,,,76,85
159675,note_on,75,0,1,,,,,,,,0,,,76,0
159680,note_on,5,0,1,,,,,,,,0,,,74,85
159695,note_on,335,0,3,,,,,,,,2,,,64,0
159695,note_on,335,0,6,,,,,,,,5,,,52,0
159695,note_on,335,0,2,,,,,,,,1,,,64,0
159695,note_on,335,0,4,,,,,,,,3,,,64,0
159695,note_on,335,0,5,,,,,,,,4,,,52,0
159720,note_on,25,0,6,,,,,,,,5,,,52,34
159720,note_on,25,0,2,,,,,,,,1,,,64,34
159720,note_on,25,0,5,,,,,,,,4,,,52,34
159720,note_on,25,0,3,,,,,,,,2,,,64,34
159720,note_on,25,0,4,,,,,,,,3,,,64,34
159755,note_on,75,0,1,,,,,,,,0,,,74,0
159760,note_on,5,0,1,,,,,,,,0,,,72,85
159805,note_on,0,0,6,,,,,,,,5,,,60,0
159805,note_on,85,0,6,,,,,,,,5,,,72,0
159805,note_on,0,0,6,,,,,,,,5,,,67,0
159835,note_on,30,0,6,,,,,,,,5,,,52,0
159835,note_on,115,0,5,,,,,,,,4,,,52,0
159835,note_on,75,0,1,,,,,,,,0,,,72,0
159835,note_on,115,0,4,,,,,,,,3,,,64,0
159835,note_on,115,0,3,,,,,,,,2,,,64,0
159835,note_on,115,0,2,,,,,,,,1,,,64,0
159840,note_on,5,0,5,,,,,,,,4,,,48,34
159840,note_on,5,0,6,,,,,,,,5,,,70,64
159840,note_on,0,0,6,,,,,,,,5,,,67,64
159840,note_on,0,0,6,,,,,,,,5,,,64,64
159840,note_on,0,0,6,,,,,,,,5,,,48,34
159840,note_on,5,0,2,,,,,,,,1,,,60,34
159840,note_on,5,0,1,,,,,,,,0,,,70,85
159840,note_on,5,0,3,,,,,,,,2,,,60,34
159840,note_on,5,0,4,,,,,,,,3,,,60,34
159915,note_on,75,0,1,,,,,,,,0,,,70,0
159920,note_on,5,0,1,,,,,,,,0,,,72,85
159995,note_on,75,0,1,,,,,,,,0,,,72,0
160000,note_on,5,0,1,,,,,,,,0,,,74,85
160075,note_on,75,0,1,,,,,,,,0,,,74,0
160080,note_on,5,0,1,,,,,,,,0,,,76,85
160155,note_on,75,0,1,,,,,,,,0,,,76,0
160160,note_on,5,0,1,,,,,,,,0,,,77,85
160175,note_on,335,0,3,,,,,,,,2,,,60,0
160175,note_on,335,0,4,,,,,,,,3,,,60,0
160175,note_on,335,0,2,,,,,,,,1,,,60,0
160175,note_on,335,0,5,,,,,,,,4,,,48,0
160175,note_on,335,0,6,,,,,,,,5,,,48,0
160200,note_on,25,0,4,,,,,,,,3,,,60,34
160200,note_on,25,0,2,,,,,,,,1,,,60,34
160200,note_on,25,0,5,,,,,,,,4,,,48,34
160200,note_on,25,0,3,,,,,,,,2,,,60,34
160200,note_on,25,0,6,,,,,,,,5,,,48,34
160235,note_on,75,0,1,,,,,,,,0,,,77,0
160240,note_on,5,0,1,,,,,,,,0,,,79,85
160315,note_on,115,0,4,,,,,,,,3,,,60,0
160315,note_on,115,0,6,,,,,,,,5,,,48,0
160315,note_on,115,0,3,,,,,,,,2,,,60,0
160315,note_on,75,0,1,,,,,,,,0,,,79,0
160315,note_on,115,0,5,,,,,,,,4,,,48,0
160315,note_on,115,0,2,,,,,,,,1,,,60,0
160320,note_on,5,0,4,,,,,,,,3,,,60,34
160320,note_on,5,0,6,,,,,,,,5,,,48,34
160320,note_on,5,0,1,,,,,,,,0,,,79,85
160320,note_on,5,0,3,,,,,,,,2,,,60,34
160320,note_on,5,0,2,,,,,,,,1,,,60,34
160320,note_on,5,0,5,,,,,,,,4,,,48,34
160395,note_on,75,0,1,,,,,,,,0,,,79,0
160400,note_on,5,0,1,,,,,,,,0,,,81,85
160475,note_on,75,0,1,,,,,,,,0,,,81,0
160480,note_on,5,0,1,,,,,,,,0,,,82,85
160555,note_on,75,0,1,,,,,,,,0,,,82,0
160560,note_on,5,0,1,,,,,,,,0,,,82,85
160635,note_on,75,0,1,,,,,,,,0,,,82,0
160640,note_on,5,0,1,,,,,,,,0,,,81,85
160655,note_on,335,0,2,,,,,,,,1,,,60,0
160655,note_on,335,0,5,,,,,,,,4,,,48,0
160655,note_on,335,0,3,,,,,,,,2,,,60,0
160655,note_on,335,0,6,,,,,,,,5,,,48,0
160655,note_on,335,0,4,,,,,,,,3,,,60,0
160680,note_on,25,0,5,,,,,,,,4,,,48,34
160680,note_on,25,0,4,,,,,,,,3,,,60,34
160680,note_on,25,0,2,,,,,,,,1,,,60,34
160680,note_on,25,0,6,,,,,,,,5,,,48,34
160680,note_on,25,0,3,,,,,,,,2,,,60,34
160715,note_on,75,0,1,,,,,,,,0,,,81,0
160720,note_on,5,0,1,,,,,,,,0,,,79,85
160725,note_on,45,0,6,,,,,,,,5,,,70,0
160725,note_on,0,0,6,,,,,,,,5,,,64,0
160725,note_on,0,0,6,,,,,,,,5,,,67,0
160795,note_on,70,0,6,,,,,,,,5,,,48,0
160795,note_on,115,0,5,,,,,,,,4,,,48,0
160795,note_on,115,0,4,,,,,,,,3,,,60,0
160795,note_on,75,0,1,,,,,,,,0,,,79,0
160795,note_on,115,0,3,,,,,,,,2,,,60,0
160795,note_on,115,0,2,,,,,,,,1,,,60,0
160800,note_on,5,0,5,,,,,,,,4,,,48,34
160800,note_on,5,0,3,,,,,,,,2,,,60,34
160800,note_on,5,0,6,,,,,,,,5,,,70,64
160800,note_on,5,0,2,,,,,,,,1,,,60,34
160800,note_on,0,0,6,,,,,,,,5,,,67,64
160800,note_on,5,0,1,,,,,,,,0,,,79,85
160800,note_on,0,0,6,,,,,,,,5,,,48,34
160800,note_on,5,0,4,,,,,,,,3,,,60,34
160800,note_on,0,0,6,,,,,,,,5,,,64,64
160875,note_on,75,0,1,,,,,,,,0,,,79,0
160880,note_on,5,0,1,,,,,,,,0,,,77,85
160955,note_on,75,0,1,,,,,,,,0,,,77,0
160960,note_on,5,0,1,,,,,,,,0,,,76,85
161035,note_on,75,0,1,,,,,,,,0,,,76,0
161040,note_on,5,0,1,,,,,,,,0,,,74,85
161115,note_on,75,0,1,,,,,,,,0,,,74,0
161120,note_on,5,0,1,,,,,,,,0,,,72,85
161135,note_on,335,0,6,,,,,,,,5,,,48,0
161135,note_on,335,0,4,,,,,,,,3,,,60,0
161135,note_on,335,0,3,,,,,,,,2,,,60,0
161135,note_on,335,0,2,,,,,,,,1,,,60,0
161135,note_on,335,0,5,,,,,,,,4,,,48,0
161160,note_on,25,0,5,,,,,,,,4,,,48,34
161160,note_on,25,0,2,,,,,,,,1,,,60,34
161160,note_on,25,0,4,,,,,,,,3,,,60,34
161160,note_on,25,0,3,,,,,,,,2,,,60,34
161160,note_on,25,0,6,,,,,,,,5,,,48,34
161195,note_on,75,0,1,,,,,,,,0,,,72,0
161200,note_on,5,0,1,,,,,,,,0,,,70,85
161245,note_on,0,0,6,,,,,,,,5,,,64,0
161245,note_on,85,0,6,,,,,,,,5,,,70,0
161245,note_on,0,0,6,,,,,,,,5,,,67,0
161275,note_on,30,0,6,,,,,,,,5,,,48,0
161275,note_on,75,0,1,,,,,,,,0,,,70,0
161275,note_on,115,0,5,,,,,,,,4,,,48,0
161275,note_on,115,0,4,,,,,,,,3,,,60,0
161275,note_on,115,0,2,,,,,,,,1,,,60,0
161275,note_on,115,0,3,,,,,,,,2,,,60,0
161280,note_on,5,0,1,,,,,,,,0,,,69,85
161280,note_on,5,0,2,,,,,,,,1,,,65,34
161280,note_on,5,0,3,,,,,,,,2,,,65,34
161280,note_on,5,0,6,,,,,,,,5,,,69,64
161280,note_on,0,0,6,,,,,,,,5,,,65,64
161280,note_on,5,0,4,,,,,,,,3,,,65,34
161280,note_on,5,0,5,,,,,,,,4,,,53,34
161280,note_on,0,0,6,,,,,,,,5,,,53,34
161505,note_on,225,0,2,,,,,,,,1,,,65,0
161505,note_on,225,0,4,,,,,,,,3,,,65,0
161505,note_on,225,0,5,,,,,,,,4,,,53,0
161505,note_on,225,0,3,,,,,,,,2,,,65,0
161505,note_on,225,0,6,,,,,,,,5,,,53,0
161520,note_on,15,0,6,,,,,,,,5,,,53,34
161520,note_on,15,0,5,,,,,,,,4,,,53,34
161520,note_on,15,0,4,,,,,,,,3,,,65,34
161520,note_on,15,0,2,,,,,,,,1,,,65,34
161520,note_on,15,0,3,,,,,,,,2,,,65,34
161635,note_on,115,0,5,,,,,,,,4,,,53,0
161635,note_on,115,0,2,,,,,,,,1,,,65,0
161635,note_on,115,0,6,,,,,,,,5,,,53,0
161635,note_on,115,0,4,,,,,,,,3,,,65,0
161635,note_on,115,0,3,,,,,,,,2,,,65,0
161640,note_on,5,0,4,,,,,,,,3,,,65,34
161640,note_on,5,0,3,,,,,,,,2,,,65,34
161640,note_on,5,0,2,,,,,,,,1,,,65,34
161640,note_on,5,0,5,,,,,,,,4,,,53,34
161640,note_on,5,0,6,,,,,,,,5,,,53,34
161725,note_on,85,0,6,,,,,,,,5,,,65,0
161725,note_on,0,0,6,,,,,,,,5,,,69,0
161725,note_on,445,0,1,,,,,,,,0,,,69,0
161755,note_on,115,0,2,,,,,,,,1,,,65,0
161755,note_on,30,0,6,,,,,,,,5,,,53,0
161755,note_on,115,0,3,,,,,,,,2,,,65,0
161755,note_on,115,0,4,,,,,,,,3,,,65,0
161755,note_on,115,0,5,,,,,,,,4,,,53,0
161760,note_on,5,0,4,,,,,,,,3,,,69,34
161760,note_on,5,0,2,,,,,,,,1,,,69,49
161760,note_on,5,0,3,,,,,,,,2,,,69,34
161760,note_on,5,0,5,,,,,,,,4,,,57,34
161760,note_on,5,0,6,,,,,,,,5,,,57,34
161875,note_on,115,0,3,,,,,,,,2,,,69,0
161875,note_on,115,0,5,,,,,,,,4,,,57,0
161875,note_on,115,0,4,,,,,,,,3,,,69,0
161875,note_on,115,0,2,,,,,,,,1,,,69,0
161875,note_on,115,0,6,,,,,,,,5,,,57,0
161880,note_on,5,0,4,,,,,,,,3,,,69,49
161880,note_on,5,0,3,,,,,,,,2,,,69,34
161880,note_on,5,0,2,,,,,,,,1,,,69,49
161880,note_on,5,0,5,,,,,,,,4,,,57,34
161880,note_on,5,0,6,,,,,,,,5,,,57,34
161995,note_on,115,0,5,,,,,,,,4,,,57,0
161995,note_on,115,0,3,,,,,,,,2,,,69,0
161995,note_on,115,0,2,,,,,,,,1,,,69,0
161995,note_on,115,0,6,,,,,,,,5,,,57,0
161995,note_on,115,0,4,,,,,,,,3,,,69,0
162000,note_on,5,0,2,,,,,,,,1,,,72,49
162000,note_on,5,0,3,,,,,,,,2,,,72,34
162000,note_on,5,0,6,,,,,,,,5,,,60,49
162000,note_on,5,0,4,,,,,,,,3,,,72,49
162000,note_on,5,0,5,,,,,,,,4,,,60,49
162115,note_on,115,0,4,,,,,,,,3,,,72,0
162115,note_on,115,0,6,,,,,,,,5,,,60,0
162115,note_on,115,0,2,,,,,,,,1,,,72,0
162115,note_on,115,0,3,,,,,,,,2,,,72,0
162115,note_on,115,0,5,,,,,,,,4,,,60,0
162120,note_on,5,0,6,,,,,,,,5,,,60,49
162120,note_on,5,0,2,,,,,,,,1,,,72,49
162120,note_on,5,0,4,,,,,,,,3,,,72,49
162120,note_on,5,0,5,,,,,,,,4,,,60,49
162120,note_on,5,0,3,,,,,,,,2,,,72,34
162235,note_on,115,0,5,,,,,,,,4,,,60,0
162235,note_on,115,0,6,,,,,,,,5,,,60,0
162235,note_on,115,0,2,,,,,,,,1,,,72,0
162235,note_on,115,0,4,,,,,,,,3,,,72,0
162235,note_on,115,0,3,,,,,,,,2,,,72,0
162240,note_on,5,0,6,,,,,,,,5,,,72,64
162240,note_on,0,0,6,,,,,,,,5,,,65,64
162240,note_on,5,0,5,,,,,,,,4,,,65,49
162240,note_on,0,0,6,,,,,,,,5,,,65,49
162240,note_on,5,0,2,,,,,,,,1,,,77,64
162240,note_on,5,0,3,,,,,,,,2,,,77,34
162240,note_on,5,0,4,,,,,,,,3,,,77,49
162240,note_on,0,0,6,,,,,,,,5,,,69,64
162355,note_on,115,0,3,,,,,,,,2,,,77,0
162355,note_on,115,0,4,,,,,,,,3,,,77,0
162355,note_on,115,0,5,,,,,,,,4,,,65,0
162355,note_on,115,0,2,,,,,,,,1,,,77,0
162355,note_on,115,0,6,,,,,,,,5,,,65,0
162360,note_on,5,0,5,,,,,,,,4,,,65,49
162360,note_on,5,0,2,,,,,,,,1,,,77,64
162360,note_on,5,0,4,,,,,,,,3,,,77,49
162360,note_on,5,0,3,,,,,,,,2,,,77,64
162360,note_on,5,0,6,,,,,,,,5,,,65,49
162475,note_on,115,0,5,,,,,,,,4,,,65,0
162475,note_on,115,0,3,,,,,,,,2,,,77,0
162475,note_on,115,0,2,,,,,,,,1,,,77,0
162475,note_on,115,0,4,,,,,,,,3,,,77,0
162475,note_on,115,0,6,,,,,,,,5,,,65,0
162480,note_on,5,0,6,,,,,,,,5,,,60,49
162480,note_on,5,0,3,,,,,,,,2,,,72,64
162480,note_on,5,0,2,,,,,,,,1,,,72,64
162480,note_on,5,0,5,,,,,,,,4,,,60,49
162480,note_on,5,0,4,,,,,,,,3,,,72,64
162595,note_on,115,0,6,,,,,,,,5,,,60,0
162595,note_on,115,0,3,,,,,,,,2,,,72,0
162595,note_on,115,0,2,,,,,,,,1,,,72,0
162595,note_on,115,0,5,,,,,,,,4,,,60,0
162595,note_on,115,0,4,,,,,,,,3,,,72,0
162600,note_on,5,0,2,,,,,,,,1,,,72,64
162600,note_on,5,0,4,,,,,,,,3,,,72,64
162600,note_on,5,0,5,,,,,,,,4,,,60,64
162600,note_on,5,0,6,,,,,,,,5,,,60,64
162600,note_on,5,0,3,,,,,,,,2,,,72,64
162685,note_on,85,0,6,,,,,,,,5,,,65,0
162685,note_on,0,0,6,,,,,,,,5,,,72,0
162685,note_on,0,0,6,,,,,,,,5,,,69,0
162715,note_on,115,0,2,,,,,,,,1,,,72,0
162715,note_on,30,0,6,,,,,,,,5,,,60,0
162715,note_on,115,0,5,,,,,,,,4,,,60,0
162715,note_on,115,0,4,,,,,,,,3,,,72,0
162715,note_on,115,0,3,,,,,,,,2,,,72,0
162720,note_on,0,0,6,,,,,,,,5,,,57,64
162720,note_on,5,0,6,,,,,,,,5,,,77,64
162720,note_on,0,0,6,,,,,,,,5,,,72,64
162720,note_on,5,0,4,,,,,,,,3,,,69,64
162720,note_on,5,0,2,,,,,,,,1,,,69,49
162720,note_on,5,0,5,,,,,,,,4,,,57,64
162720,note_on,0,0,6,,,,,,,,5,,,65,64
162720,note_on,5,0,3,,,,,,,,2,,,69,64
162835,note_on,115,0,5,,,,,,,,4,,,57,0
162835,note_on,115,0,3,,,,,,,,2,,,69,0
162835,note_on,115,0,6,,,,,,,,5,,,57,0
162835,note_on,115,0,4,,,,,,,,3,,,69,0
162835,note_on,115,0,2,,,,,,,,1,,,69,0
162840,note_on,5,0,6,,,,,,,,5,,,57,64
162840,note_on,5,0,3,,,,,,,,2,,,69,64
162840,note_on,5,0,2,,,,,,,,1,,,69,49
162840,note_on,5,0,4,,,,,,,,3,,,69,64
162840,note_on,5,0,5,,,,,,,,4,,,57,64
162955,note_on,115,0,6,,,,,,,,5,,,57,0
162955,note_on,115,0,3,,,,,,,,2,,,69,0
162955,note_on,115,0,2,,,,,,,,1,,,69,0
162955,note_on,115,0,5,,,,,,,,4,,,57,0
162955,note_on,115,0,4,,,,,,,,3,,,69,0
162960,note_on,5,0,3,,,,,,,,2,,,65,49
162960,note_on,5,0,6,,,,,,,,5,,,53,64
162960,note_on,5,0,5,,,,,,,,4,,,53,64
162960,note_on,5,0,2,,,,,,,,1,,,65,49
162960,note_on,5,0,4,,,,,,,,3,,,65,49
163075,note_on,115,0,4,,,,,,,,3,,,65,0
163075,note_on,115,0,3,,,,,,,,2,,,65,0
163075,note_on,115,0,5,,,,,,,,4,,,53,0
163075,note_on,115,0,2,,,,,,,,1,,,65,0
163075,note_on,115,0,6,,,,,,,,5,,,53,0
163080,note_on,5,0,4,,,,,,,,3,,,65,49
163080,note_on,5,0,3,,,,,,,,2,,,65,49
163080,note_on,5,0,5,,,,,,,,4,,,53,64
163080,note_on,5,0,2,,,,,,,,1,,,65,49
163080,note_on,5,0,6,,,,,,,,5,,,53,64
163165,note_on,0,0,6,,,,,,,,5,,,72,0
163165,note_on,0,0,6,,,,,,,,5,,,65,0
163165,note_on,85,0,6,,,,,,,,5,,,77,0
163195,note_on,30,0,6,,,,,,,,5,,,53,0
163195,note_on,115,0,2,,,,,,,,1,,,65,0
163195,note_on,115,0,4,,,,,,,,3,,,65,0
163195,note_on,115,0,3,,,,,,,,2,,,65,0
163195,note_on,115,0,5,,,,,,,,4,,,53,0
163200,note_on,5,0,6,,,,,,,,5,,,57,49
163200,note_on,5,0,5,,,,,,,,4,,,57,49
163200,note_on,5,0,2,,,,,,,,1,,,69,49
163200,note_on,5,0,4,,,,,,,,3,,,69,49
163200,note_on,5,0,3,,,,,,,,2,,,69,49
163315,note_on,115,0,3,,,,,,,,2,,,69,0
163315,note_on,115,0,6,,,,,,,,5,,,57,0
163315,note_on,115,0,5,,,,,,,,4,,,57,0
163315,note_on,115,0,2,,,,,,,,1,,,69,0
163315,note_on,115,0,4,,,,,,,,3,,,69,0
163320,note_on,5,0,6,,,,,,,,5,,,57,49
163320,note_on,5,0,5,,,,,,,,4,,,57,49
163320,note_on,5,0,3,,,,,,,,2,,,69,64
163320,note_on,5,0,2,,,,,,,,1,,,69,49
163320,note_on,5,0,4,,,,,,,,3,,,69,49
163435,note_on,115,0,6,,,,,,,,5,,,57,0
163435,note_on,115,0,5,,,,,,,,4,,,57,0
163435,note_on,115,0,3,,,,,,,,2,,,69,0
163435,note_on,115,0,2,,,,,,,,1,,,69,0
163435,note_on,115,0,4,,,,,,,,3,,,69,0
163440,note_on,5,0,4,,,,,,,,3,,,72,49
163440,note_on,5,0,5,,,,,,,,4,,,60,49
163440,note_on,5,0,6,,,,,,,,5,,,60,49
163440,note_on,5,0,2,,,,,,,,1,,,72,64
163440,note_on,5,0,3,,,,,,,,2,,,72,64
163555,note_on,115,0,5,,,,,,,,4,,,60,0
163555,note_on,115,0,6,,,,,,,,5,,,60,0
163555,note_on,115,0,3,,,,,,,,2,,,72,0
163555,note_on,115,0,4,,,,,,,,3,,,72,0
163555,note_on,115,0,2,,,,,,,,1,,,72,0
163560,note_on,5,0,5,,,,,,,,4,,,60,49
163560,note_on,5,0,4,,,,,,,,3,,,72,49
163560,note_on,5,0,2,,,,,,,,1,,,72,64
163560,note_on,5,0,3,,,,,,,,2,,,72,64
163560,note_on,5,0,6,,,,,,,,5,,,60,49
163675,note_on,115,0,6,,,,,,,,5,,,60,0
163675,note_on,115,0,3,,,,,,,,2,,,72,0
163675,note_on,115,0,2,,,,,,,,1,,,72,0
163675,note_on,115,0,5,,,,,,,,4,,,60,0
163675,note_on,115,0,4,,,,,,,,3,,,72,0
163680,note_on,5,0,3,,,,,,,,2,,,77,64
163680,note_on,5,0,2,,,,,,,,1,,,77,64
163680,note_on,0,0,6,,,,,,,,5,,,65,49
163680,note_on,0,0,6,,,,,,,,5,,,65,64
163680,note_on,0,0,6,,,,,,,,5,,,69,64
163680,note_on,5,0,6,,,,,,,,5,,,72,64
163680,note_on,5,0,4,,,,,,,,3,,,77,64
163680,note_on,5,0,5,,,,,,,,4,,,65,49
163795,note_on,115,0,5,,,,,,,,4,,,65,0
163795,note_on,115,0,4,,,,,,,,3,,,77,0
163795,note_on,115,0,6,,,,,,,,5,,,65,0
163795,note_on,115,0,2,,,,,,,,1,,,77,0
163795,note_on,115,0,3,,,,,,,,2,,,77,0
163800,note_on,5,0,5,,,,,,,,4,,,65,64
163800,note_on,5,0,4,,,,,,,,3,,,77,64
163800,note_on,5,0,3,,,,,,,,2,,,77,64
163800,note_on,5,0,2,,,,,,,,1,,,77,64
163800,note_on,5,0,6,,,,,,,,5,,,65,64
163915,note_on,115,0,4,,,,,,,,3,,,77,0
163915,note_on,115,0,3,,,,,,,,2,,,77,0
163915,note_on,115,0,5,,,,,,,,4,,,65,0
163915,note_on,115,0,2,,,,,,,,1,,,77,0
163915,note_on,115,0,6,,,,,,,,5,,,65,0
163920,note_on,5,0,3,,,,,,,,2,,,72,49
163920,note_on,5,0,4,,,,,,,,3,,,72,64
163920,note_on,5,0,2,,,,,,,,1,,,72,49
163920,note_on,5,0,5,,,,,,,,4,,,60,64
163920,note_on,5,0,6,,,,,,,,5,,,60,64
164035,note_on,115,0,5,,,,,,,,4,,,60,0
164035,note_on,115,0,6,,,,,,,,5,,,60,0
164035,note_on,115,0,2,,,,,,,,1,,,72,0
164035,note_on,115,0,3,,,,,,,,2,,,72,0
164035,note_on,115,0,4,,,,,,,,3,,,72,0
164040,note_on,5,0,4,,,,,,,,3,,,72,49
164040,note_on,5,0,2,,,,,,,,1,,,72,49
164040,note_on,5,0,5,,,,,,,,4,,,60,49
164040,note_on,5,0,6,,,,,,,,5,,,60,49
164040,note_on,5,0,3,,,,,,,,2,,,72,49
164125,note_on,0,0,6,,,,,,,,5,,,69,0
164125,note_on,0,0,6,,,,,,,,5,,,72,0
164125,note_on,85,0,6,,,,,,,,5,,,65,0
164155,note_on,115,0,5,,,,,,,,4,,,60,0
164155,note_on,115,0,2,,,,,,,,1,,,72,0
164155,note_on,115,0,3,,,,,,,,2,,,72,0
164155,note_on,115,0,4,,,,,,,,3,,,72,0
164155,note_on,30,0,6,,,,,,,,5,,,60,0
164160,note_on,0,0,6,,,,,,,,5,,,48,34
164160,note_on,5,0,2,,,,,,,,1,,,60,34
164160,note_on,5,0,3,,,,,,,,2,,,60,34
164160,note_on,5,0,4,,,,,,,,3,,,60,34
164160,note_on,5,0,6,,,,,,,,5,,,69,64
164160,note_on,5,0,5,,,,,,,,4,,,48,34
164160,note_on,0,0,6,,,,,,,,5,,,65,64
164160,note_on,2435,0,1,,,,,,,,0,,,72,85
164235,note_on,75,0,1,,,,,,,,0,,,72,0
164240,note_on,5,0,1,,,,,,,,0,,,77,85
164315,note_on,75,0,1,,,,,,,,0,,,77,0
164320,note_on,5,0,1,,,,,,,,0,,,79,85
164395,note_on,75,0,1,,,,,,,,0,,,79,0
164400,note_on,5,0,1,,,,,,,,0,,,81,85
164475,note_on,75,0,1,,,,,,,,0,,,81,0
164480,note_on,5,0,1,,,,,,,,0,,,79,85
164555,note_on,75,0,1,,,,,,,,0,,,79,0
164560,note_on,5,0,1,,,,,,,,0,,,77,85
164605,note_on,445,0,6,,,,,,,,5,,,48,0
164605,note_on,445,0,3,,,,,,,,2,,,60,0
164605,note_on,0,0,6,,,,,,,,5,,,69,0
164605,note_on,0,0,6,,,,,,,,5,,,65,0
164605,note_on,445,0,2,,,,,,,,1,,,60,0
164605,note_on,445,0,4,,,,,,,,3,,,60,0
164605,note_on,445,0,5,,,,,,,,4,,,48,0
164635,note_on,75,0,1,,,,,,,,0,,,77,0
164640,note_on,35,0,3,,,,,,,,2,,,60,34
164640,note_on,35,0,6,,,,,,,,5,,,67,64
164640,note_on,35,0,5,,,,,,,,4,,,48,34
164640,note_on,35,0,4,,,,,,,,3,,,60,34
164640,note_on,5,0,1,,,,,,,,0,,,72,85
164640,note_on,0,0,6,,,,,,,,5,,,64,64
164640,note_on,0,0,6,,,,,,,,5,,,48,34
164640,note_on,35,0,2,,,,,,,,1,,,60,34
164715,note_on,75,0,1,,,,,,,,0,,,72,0
164720,note_on,5,0,1,,,,,,,,0,,,79,85
164795,note_on,75,0,1,,,,,,,,0,,,79,0
164800,note_on,5,0,1,,,,,,,,0,,,81,85
164875,note_on,75,0,1,,,,,,,,0,,,81,0
164880,note_on,5,0,1,,,,,,,,0,,,82,85
164955,note_on,75,0,1,,,,,,,,0,,,82,0
164960,note_on,5,0,1,,,,,,,,0,,,81,85
165035,note_on,75,0,1,,,,,,,,0,,,81,0
165040,note_on,5,0,1,,,,,,,,0,,,79,85
165085,note_on,0,0,6,,,,,,,,5,,,64,0
165085,note_on,445,0,6,,,,,,,,5,,,48,0
165085,note_on,445,0,5,,,,,,,,4,,,48,0
165085,note_on,445,0,4,,,,,,,,3,,,60,0
165085,note_on,445,0,2,,,,,,,,1,,,60,0
165085,note_on,445,0,3,,,,,,,,2,,,60,0
165085,note_on,0,0,6,,,,,,,,5,,,67,0
165115,note_on,75,0,1,,,,,,,,0,,,79,0
165120,note_on,35,0,5,,,,,,,,4,,,48,34
165120,note_on,35,0,2,,,,,,,,1,,,60,34
165120,note_on,35,0,4,,,,,,,,3,,,60,34
165120,note_on,5,0,1,,,,,,,,0,,,72,85
165120,note_on,35,0,3,,,,,,,,2,,,60,34
165120,note_on,35,0,6,,,,,,,,5,,,69,64
165120,note_on,0,0,6,,,,,,,,5,,,65,64
165120,note_on,0,0,6,,,,,,,,5,,,48,34
165195,note_on,75,0,1,,,,,,,,0,,,72,0
165200,note_on,5,0,1,,,,,,,,0,,,81,85
165275,note_on,75,0,1,,,,,,,,0,,,81,0
165280,note_on,5,0,1,,,,,,,,0,,,82,85
165355,note_on,75,0,1,,,,,,,,0,,,82,0
165360,note_on,5,0,1,,,,,,,,0,,,84,85
165435,note_on,75,0,1,,,,,,,,0,,,84,0
165440,note_on,5,0,1,,,,,,,,0,,,82,85
165515,note_on,75,0,1,,,,,,,,0,,,82,0
165520,note_on,5,0,1,,,,,,,,0,,,81,85
165565,note_on,0,0,6,,,,,,,,5,,,69,0
165565,note_on,445,0,2,,,,,,,,1,,,60,0
165565,note_on,445,0,5,,,,,,,,4,,,48,0
165565,note_on,445,0,3,,,,,,,,2,,,60,0
165565,note_on,445,0,4,,,,,,,,3,,,60,0
165565,note_on,0,0,6,,,,,,,,5,,,65,0
165565,note_on,445,0,6,,,,,,,,5,,,48,0
165595,note_on,75,0,1,,,,,,,,0,,,81,0
165600,note_on,0,0,6,,,,,,,,5,,,48,34
165600,note_on,0,0,6,,,,,,,,5,,,69,64
165600,note_on,35,0,6,,,,,,,,5,,,72,64
165600,note_on,35,0,3,,,,,,,,2,,,60,34
165600,note_on,35,0,2,,,,,,,,1,,,60,34
165600,note_on,35,0,5,,,,,,,,4,,,48,34
165600,note_on,35,0,4,,,,,,,,3,,,60,34
165600,note_on,5,0,1,,,,,,,,0,,,72,85
165675,note_on,75,0,1,,,,,,,,0,,,72,0
165680,note_on,5,0,1,,,,,,,,0,,,77,85
165755,note_on,75,0,1,,,,,,,,0,,,77,0
165760,note_on,5,0,1,,,,,,,,0,,,79,85
165835,note_on,75,0,1,,,,,,,,0,,,79,0
165840,note_on,5,0,1,,,,,,,,0,,,81,85
165915,note_on,75,0,1,,,,,,,,0,,,81,0
165920,note_on,5,0,1,,,,,,,,0,,,79,85
165995,note_on,75,0,1,,,,,,,,0,,,79,0
166000,note_on,5,0,1,,,,,,,,0,,,77,85
166045,note_on,445,0,6,,,,,,,,5,,,48,0
166045,note_on,445,0,4,,,,,,,,3,,,60,0
166045,note_on,445,0,5,,,,,,,,4,,,48,0
166045,note_on,445,0,2,,,,,,,,1,,,60,0
166045,note_on,445,0,3,,,,,,,,2,,,60,0
166045,note_on,0,0,6,,,,,,,,5,,,69,0
166045,note_on,0,0,6,,,,,,,,5,,,72,0
166075,note_on,75,0,1,,,,,,,,0,,,77,0
166080,note_on,35,0,6,,,,,,,,5,,,70,64
166080,note_on,0,0,6,,,,,,,,5,,,67,64
166080,note_on,0,0,6,,,,,,,,5,,,48,34
166080,note_on,35,0,3,,,,,,,,2,,,60,34
166080,note_on,35,0,4,,,,,,,,3,,,60,34
166080,note_on,35,0,5,,,,,,,,4,,,48,34
166080,note_on,35,0,2,,,,,,,,1,,,60,34
166080,note_on,5,0,1,,,,,,,,0,,,72,85
166155,note_on,75,0,1,,,,,,,,0,,,72,0
166160,note_on,5,0,1,,,,,,,,0,,,79,85
166235,note_on,75,0,1,,,,,,,,0,,,79,0
166240,note_on,5,0,1,,,,,,,,0,,,81,85
166315,note_on,75,0,1,,,,,,,,0,,,81,0
166320,note_on,5,0,1,,,,,,,,0,,,82,85
166395,note_on,75,0,1,,,,,,,,0,,,82,0
166400,note_on,5,0,1,,,,,,,,0,,,81,85
166475,note_on,75,0,1,,,,,,,,0,,,81,0
166480,note_on,5,0,1,,,,,,,,0,,,79,85
166525,note_on,445,0,4,,,,,,,,3,,,60,0
166525,note_on,0,0,6,,,,,,,,5,,,70,0
166525,note_on,0,0,6,,,,,,,,5,,,67,0
166525,note_on,445,0,6,,,,,,,,5,,,48,0
166525,note_on,445,0,2,,,,,,,,1,,,60,0
166525,note_on,445,0,5,,,,,,,,4,,,48,0
166525,note_on,445,0,3,,,,,,,,2,,,60,0
166555,note_on,75,0,1,,,,,,,,0,,,79,0
166560,note_on,5,0,1,,,,,,,,0,,,72,85
166560,note_on,35,0,2,,,,,,,,1,,,60,34
166560,note_on,35,0,3,,,,,,,,2,,,60,34
166560,note_on,35,0,6,,,,,,,,5,,,69,64
166560,note_on,0,0,6,,,,,,,,5,,,65,64
166560,note_on,0,0,6,,,,,,,,5,,,48,34
166560,note_on,35,0,4,,,,,,,,3,,,60,34
166560,note_on,35,0,5,,,,,,,,4,,,48,34
166635,note_on,75,0,1,,,,,,,,0,,,72,0
166640,note_on,5,0,1,,,,,,,,0,,,81,85
166715,note_on,75,0,1,,,,,,,,0,,,81,0
166720,note_on,5,0,1,,,,,,,,0,,,82,85
166795,note_on,75,0,1,,,,,,,,0,,,82,0
166800,note_on,5,0,1,,,,,,,,0,,,84,85
166875,note_on,75,0,1,,,,,,,,0,,,84,0
166880,note_on,5,0,1,,,,,,,,0,,,82,85
166955,note_on,75,0,1,,,,,,,,0,,,82,0
166960,note_on,5,0,1,,,,,,,,0,,,81,85
167005,note_on,445,0,3,,,,,,,,2,,,60,0
167005,note_on,445,0,6,,,,,,,,5,,,48,0
167005,note_on,0,0,6,,,,,,,,5,,,65,0
167005,note_on,0,0,6,,,,,,,,5,,,69,0
167005,note_on,445,0,5,,,,,,,,4,,,48,0
167005,note_on,445,0,2,,,,,,,,1,,,60,0
167005,note_on,445,0,4,,,,,,,,3,,,60,0
167035,note_on,75,0,1,,,,,,,,0,,,81,0
167040,note_on,35,0,3,,,,,,,,2,,,60,34
167040,note_on,35,0,6,,,,,,,,5,,,74,64
167040,note_on,0,0,6,,,,,,,,5,,,70,64
167040,note_on,35,0,4,,,,,,,,3,,,60,34
167040,note_on,35,0,5,,,,,,,,4,,,48,34
167040,note_on,0,0,6,,,,,,,,5,,,48,34
167040,note_on,35,0,2,,,,,,,,1,,,60,34
167040,note_on,5,0,1,,,,,,,,0,,,72,85
167115,note_on,75,0,1,,,,,,,,0,,,72,0
167120,note_on,5,0,1,,,,,,,,0,,,82,85
167195,note_on,75,0,1,,,,,,,,0,,,82,0
167200,note_on,5,0,1,,,,,,,,0,,,84,85
167275,note_on,75,0,1,,,,,,,,0,,,84,0
167280,note_on,5,0,1,,,,,,,,0,,,86,85
167355,note_on,75,0,1,,,,,,,,0,,,86,0
167360,note_on,5,0,1,,,,,,,,0,,,84,85
167435,note_on,75,0,1,,,,,,,,0,,,84,0
167440,note_on,5,0,1,,,,,,,,0,,,82,85
167485,note_on,0,0,6,,,,,,,,5,,,74,0
167485,note_on,445,0,3,,,,,,,,2,,,60,0
167485,note_on,0,0,6,,,,,,,,5,,,70,0
167485,note_on,445,0,4,,,,,,,,3,,,60,0
167485,note_on,445,0,2,,,,,,,,1,,,60,0
167485,note_on,445,0,5,,,,,,,,4,,,48,0
167485,note_on,445,0,6,,,,,,,,5,,,48,0
167515,note_on,75,0,1,,,,,,,,0,,,82,0
167520,note_on,5,0,1,,,,,,,,0,,,72,85
167520,note_on,35,0,3,,,,,,,,2,,,60,34
167520,note_on,35,0,5,,,,,,,,4,,,48,34
167520,note_on,0,0,6,,,,,,,,5,,,69,64
167520,note_on,35,0,6,,,,,,,,5,,,72,64
167520,note_on,35,0,4,,,,,,,,3,,,60,34
167520,note_on,0,0,6,,,,,,,,5,,,48,34
167520,note_on,35,0,2,,,,,,,,1,,,60,34
167595,note_on,75,0,1,,,,,,,,0,,,72,0
167600,note_on,5,0,1,,,,,,,,0,,,84,85
167675,note_on,75,0,1,,,,,,,,0,,,84,0
167680,note_on,5,0,1,,,,,,,,0,,,86,85
167755,note_on,75,0,1,,,,,,,,0,,,86,0
167760,note_on,5,0,1,,,,,,,,0,,,88,85
167835,note_on,75,0,1,,,,,,,,0,,,88,0
167840,note_on,5,0,1,,,,,,,,0,,,86,85
167915,note_on,75,0,1,,,,,,,,0,,,86,0
167920,note_on,5,0,1,,,,,,,,0,,,84,85
167965,note_on,445,0,6,,,,,,,,5,,,48,0
167965,note_on,445,0,5,,,,,,,,4,,,48,0
167965,note_on,445,0,4,,,,,,,,3,,,60,0
167965,note_on,0,0,6,,,,,,,,5,,,72,0
167965,note_on,0,0,6,,,,,,,,5,,,69,0
167965,note_on,445,0,3,,,,,,,,2,,,60,0
167965,note_on,445,0,2,,,,,,,,1,,,60,0
167995,note_on,75,0,1,,,,,,,,0,,,84,0
168000,note_on,0,0,6,,,,,,,,5,,,69,64
168000,note_on,35,0,4,,,,,,,,3,,,60,34
168000,note_on,35,0,2,,,,,,,,1,,,60,34
168000,note_on,35,0,5,,,,,,,,4,,,48,34
168000,note_on,35,0,3,,,,,,,,2,,,60,34
168000,note_on,35,0,6,,,,,,,,5,,,74,64
168000,note_on,0,0,6,,,,,,,,5,,,48,34
168000,note_on,0,0,6,,,,,,,,5,,,65,64
168000,note_on,5,0,1,,,,,,,,0,,,72,85
168075,note_on,75,0,1,,,,,,,,0,,,72,0
168080,note_on,5,0,1,,,,,,,,0,,,86,85
168155,note_on,75,0,1,,,,,,,,0,,,86,0
168160,note_on,5,0,1,,,,,,,,0,,,88,85
168235,note_on,75,0,1,,,,,,,,0,,,88,0
168240,note_on,5,0,1,,,,,,,,0,,,89,85
168315,note_on,75,0,1,,,,,,,,0,,,89,0
168320,note_on,5,0,1,,,,,,,,0,,,88,85
168395,note_on,75,0,1,,,,,,,,0,,,88,0
168400,note_on,5,0,1,,,,,,,,0,,,86,85
168445,note_on,445,0,6,,,,,,,,5,,,48,0
168445,note_on,0,0,6,,,,,,,,5,,,74,0
168445,note_on,0,0,6,,,,,,,,5,,,69,0
168445,note_on,0,0,6,,,,,,,,5,,,65,0
168445,note_on,445,0,4,,,,,,,,3,,,60,0
168445,note_on,445,0,2,,,,,,,,1,,,60,0
168445,note_on,445,0,5,,,,,,,,4,,,48,0
168445,note_on,445,0,3,,,,,,,,2,,,60,0
168475,note_on,75,0,1,,,,,,,,0,,,86,0
168480,note_on,35,0,2,,,,,,,,1,,,60,34
168480,note_on,5,0,1,,,,,,,,0,,,88,85
168480,note_on,35,0,5,,,,,,,,4,,,48,34
168480,note_on,0,0,6,,,,,,,,5,,,48,34
168480,note_on,0,0,6,,,,,,,,5,,,67,64
168480,note_on,0,0,6,,,,,,,,5,,,70,64
168480,note_on,35,0,6,,,,,,,,5,,,76,64
168480,note_on,35,0,3,,,,,,,,2,,,60,34
168480,note_on,35,0,4,,,,,,,,3,,,60,34
168555,note_on,75,0,1,,,,,,,,0,,,88,0
168560,note_on,5,0,1,,,,,,,,0,,,86,85
168635,note_on,75,0,1,,,,,,,,0,,,86,0
168640,note_on,5,0,1,,,,,,,,0,,,84,85
168715,note_on,75,0,1,,,,,,,,0,,,84,0
168720,note_on,5,0,1,,,,,,,,0,,,86,85
168795,note_on,75,0,1,,,,,,,,0,,,86,0
168800,note_on,5,0,1,,,,,,,,0,,,84,85
168875,note_on,75,0,1,,,,,,,,0,,,84,0
168880,note_on,5,0,1,,,,,,,,0,,,82,85
168925,note_on,445,0,4,,,,,,,,3,,,60,0
168925,note_on,445,0,6,,,,,,,,5,,,48,0
168925,note_on,445,0,3,,,,,,,,2,,,60,0
168925,note_on,445,0,2,,,,,,,,1,,,60,0
168925,note_on,445,0,5,,,,,,,,4,,,48,0
168955,note_on,75,0,1,,,,,,,,0,,,82,0
168960,note_on,35,0,2,,,,,,,,1,,,60,34
168960,note_on,35,0,4,,,,,,,,3,,,60,34
168960,note_on,5,0,1,,,,,,,,0,,,84,85
168960,note_on,35,0,6,,,,,,,,5,,,48,34
168960,note_on,35,0,5,,,,,,,,4,,,48,34
168960,note_on,35,0,3,,,,,,,,2,,,60,34
169035,note_on,75,0,1,,,,,,,,0,,,84,0
169040,note_on,5,0,1,,,,,,,,0,,,82,85
169115,note_on,75,0,1,,,,,,,,0,,,82,0
169120,note_on,5,0,1,,,,,,,,0,,,81,85
169195,note_on,75,0,1,,,,,,,,0,,,81,0
169200,note_on,5,0,1,,,,,,,,0,,,82,85
169275,note_on,75,0,1,,,,,,,,0,,,82,0
169280,note_on,5,0,1,,,,,,,,0,,,81,85
169355,note_on,75,0,1,,,,,,,,0,,,81,0
169360,note_on,5,0,1,,,,,,,,0,,,79,85
169365,note_on,405,0,6,,,,,,,,5,,,76,0
169365,note_on,0,0,6,,,,,,,,5,,,67,0
169365,note_on,0,0,6,,,,,,,,5,,,70,0
169405,note_on,445,0,5,,,,,,,,4,,,48,0
169405,note_on,445,0,3,,,,,,,,2,,,60,0
169405,note_on,40,0,6,,,,,,,,5,,,48,0
169405,note_on,445,0,4,,,,,,,,3,,,60,0
169405,note_on,445,0,2,,,,,,,,1,,,60,0
169435,note_on,75,0,1,,,,,,,,0,,,79,0
169440,note_on,5,0,1,,,,,,,,0,,,81,85
169440,note_on,35,0,6,,,,,,,,5,,,77,64
169440,note_on,0,0,6,,,,,,,,5,,,69,64
169440,note_on,35,0,2,,,,,,,,1,,,60,34
169440,note_on,0,0,6,,,,,,,,5,,,65,64
169440,note_on,0,0,6,,,,,,,,5,,,48,34
169440,note_on,35,0,3,,,,,,,,2,,,60,34
169440,note_on,35,0,5,,,,,,,,4,,,48,34
169440,note_on,35,0,4,,,,,,,,3,,,60,34
169515,note_on,75,0,1,,,,,,,,0,,,81,0
169520,note_on,5,0,1,,,,,,,,0,,,79,85
169595,note_on,75,0,1,,,,,,,,0,,,79,0
169600,note_on,5,0,1,,,,,,,,0,,,77,85
169665,note_on,0,0,6,,,,,,,,5,,,77,0
169665,note_on,225,0,6,,,,,,,,5,,,65,0
169665,note_on,0,0,6,,,,,,,,5,,,69,0
169675,note_on,75,0,1,,,,,,,,0,,,77,0
169680,note_on,15,0,6,,,,,,,,5,,,79,64
169680,note_on,0,0,6,,,,,,,,5,,,76,64
169680,note_on,0,0,6,,,,,,,,5,,,72,64
169680,note_on,5,0,1,,,,,,,,0,,,79,85
169755,note_on,75,0,1,,,,,,,,0,,,79,0
169760,note_on,5,0,1,,,,,,,,0,,,77,85
169835,note_on,75,0,1,,,,,,,,0,,,77,0
169840,note_on,5,0,1,,,,,,,,0,,,76,85
169885,note_on,445,0,3,,,,,,,,2,,,60,0
169885,note_on,205,0,6,,,,,,,,5,,,48,0
169885,note_on,445,0,2,,,,,,,,1,,,60,0
169885,note_on,445,0,4,,,,,,,,3,,,60,0
169885,note_on,445,0,5,,,,,,,,4,,,48,0
169905,note_on,0,0,6,,,,,,,,5,,,76,0
169905,note_on,0,0,6,,,,,,,,5,,,72,0
169905,note_on,20,0,6,,,,,,,,5,,,79,0
169915,note_on,75,0,1,,,,,,,,0,,,76,0
169920,note_on,5,0,1,,,,,,,,0,,,77,85
169920,note_on,35,0,2,,,,,,,,1,,,65,34
169920,note_on,35,0,4,,,,,,,,3,,,65,34
169920,note_on,0,0,6,,,,,,,,5,,,53,34
169920,note_on,0,0,6,,,,,,,,5,,,72,64
169920,note_on,0,0,6,,,,,,,,5,,,77,64
169920,note_on,35,0,3,,,,,,,,2,,,65,34
169920,note_on,15,0,6,,,,,,,,5,,,81,64
169920,note_on,35,0,5,,,,,,,,4,,,53,34
169980,note_on,60,0,1,,,,,,,,0,,,77,0
169980,note_on,0,0,1,,,,,,,,0,,,79,85
170040,note_on,60,0,1,,,,,,,,0,,,79,0
170040,note_on,0,0,1,,,,,,,,0,,,81,85
170100,note_on,60,0,1,,,,,,,,0,,,81,0
170100,note_on,0,0,1,,,,,,,,0,,,82,85
170160,note_on,60,0,1,,,,,,,,0,,,82,0
170160,note_on,0,0,1,,,,,,,,0,,,84,85
170238,note_on,78,0,1,,,,,,,,0,,,84,0
170280,note_on,42,0,1,,,,,,,,0,,,77,85
170365,note_on,445,0,3,,,,,,,,2,,,65,0
170365,note_on,445,0,4,,,,,,,,3,,,65,0
170365,note_on,445,0,5,,,,,,,,4,,,53,0
170365,note_on,445,0,2,,,,,,,,1,,,65,0
170365,note_on,445,0,6,,,,,,,,5,,,53,0
170365,note_on,0,0,6,,,,,,,,5,,,81,0
170365,note_on,0,0,6,,,,,,,,5,,,77,0
170365,note_on,0,0,6,,,,,,,,5,,,72,0
170395,note_on,115,0,1,,,,,,,,0,,,77,0
170400,note_on,0,0,6,,,,,,,,5,,,60,34
170400,note_on,0,0,6,,,,,,,,5,,,72,64
170400,note_on,35,0,5,,,,,,,,4,,,60,34
170400,note_on,35,0,4,,,,,,,,3,,,72,34
170400,note_on,5,0,1,,,,,,,,0,,,81,85
170400,note_on,35,0,3,,,,,,,,2,,,72,34
170400,note_on,35,0,2,,,,,,,,1,,,72,34
170400,note_on,35,0,6,,,,,,,,5,,,79,64
170400,note_on,0,0,6,,,,,,,,5,,,77,64
170430,note_on,30,0,1,,,,,,,,0,,,81,0
170430,note_on,0,0,1,,,,,,,,0,,,79,85
170460,note_on,0,0,1,,,,,,,,0,,,81,85
170460,note_on,30,0,1,,,,,,,,0,,,79,0
170490,note_on,30,0,1,,,,,,,,0,,,81,0
170490,note_on,0,0,1,,,,,,,,0,,,79,85
170520,note_on,0,0,1,,,,,,,,0,,,81,85
170520,note_on,30,0,1,,,,,,,,0,,,79,0
170550,note_on,30,0,1,,,,,,,,0,,,81,0
170550,note_on,0,0,1,,,,,,,,0,,,79,85
170580,note_on,30,0,1,,,,,,,,0,,,79,0
170580,note_on,0,0,1,,,,,,,,0,,,81,85
170610,note_on,30,0,1,,,,,,,,0,,,81,0
170610,note_on,0,0,1,,,,,,,,0,,,79,85
170640,note_on,0,0,1,,,,,,,,0,,,81,85
170640,note_on,30,0,1,,,,,,,,0,,,79,0
170670,note_on,0,0,1,,,,,,,,0,,,79,85
170670,note_on,30,0,1,,,,,,,,0,,,81,0
170700,note_on,30,0,1,,,,,,,,0,,,79,0
170700,note_on,0,0,1,,,,,,,,0,,,81,85
170730,note_on,30,0,1,,,,,,,,0,,,81,0
170730,note_on,0,0,1,,,,,,,,0,,,79,85
170760,note_on,0,0,1,,,,,,,,0,,,81,85
170760,note_on,30,0,1,,,,,,,,0,,,79,0
170790,note_on,0,0,1,,,,,,,,0,,,79,85
170790,note_on,30,0,1,,,,,,,,0,,,81,0
170820,note_on,0,0,1,,,,,,,,0,,,81,85
170820,note_on,30,0,1,,,,,,,,0,,,79,0
170845,note_on,0,0,6,,,,,,,,5,,,77,0
170845,note_on,445,0,6,,,,,,,,5,,,60,0
170845,note_on,445,0,4,,,,,,,,3,,,72,0
170845,note_on,445,0,2,,,,,,,,1,,,72,0
170845,note_on,445,0,3,,,,,,,,2,,,72,0
170845,note_on,445,0,5,,,,,,,,4,,,60,0
170850,note_on,0,0,1,,,,,,,,0,,,79,85
170850,note_on,30,0,1,,,,,,,,0,,,81,0
170880,note_on,35,0,5,,,,,,,,4,,,48,34
170880,note_on,35,0,6,,,,,,,,5,,,76,64
170880,note_on,35,0,3,,,,,,,,2,,,60,34
170880,note_on,0,0,6,,,,,,,,5,,,48,34
170880,note_on,35,0,2,,,,,,,,1,,,60,34
170880,note_on,0,0,1,,,,,,,,0,,,81,85
170880,note_on,35,0,4,,,,,,,,3,,,60,34
170880,note_on,30,0,1,,,,,,,,0,,,79,0
170910,note_on,30,0,1,,,,,,,,0,,,81,0
170910,note_on,0,0,1,,,,,,,,0,,,79,85
170940,note_on,0,0,1,,,,,,,,0,,,81,85
170940,note_on,30,0,1,,,,,,,,0,,,79,0
170970,note_on,0,0,1,,,,,,,,0,,,79,85
170970,note_on,30,0,1,,,,,,,,0,,,81,0
171000,note_on,30,0,1,,,,,,,,0,,,79,0
171000,note_on,0,0,1,,,,,,,,0,,,81,85
171030,note_on,30,0,1,,,,,,,,0,,,81,0
171030,note_on,0,0,1,,,,,,,,0,,,79,85
171060,note_on,0,0,1,,,,,,,,0,,,81,85
171060,note_on,30,0,1,,,,,,,,0,,,79,0
171090,note_on,0,0,1,,,,,,,,0,,,79,85
171090,note_on,30,0,1,,,,,,,,0,,,81,0
171120,note_on,30,0,1,,,,,,,,0,,,79,0
171120,note_on,0,0,1,,,,,,,,0,,,77,85
171285,note_on,0,0,6,,,,,,,,5,,,79,0
171285,note_on,405,0,6,,,,,,,,5,,,72,0
171318,note_on,198,0,1,,,,,,,,0,,,77,0
171325,note_on,445,0,2,,,,,,,,1,,,60,0
171325,note_on,445,0,5,,,,,,,,4,,,48,0
171325,note_on,445,0,3,,,,,,,,2,,,60,0
171325,note_on,0,0,6,,,,,,,,5,,,48,0
171325,note_on,40,0,6,,,,,,,,5,,,76,0
171325,note_on,445,0,4,,,,,,,,3,,,60,0
171360,note_on,35,0,5,,,,,,,,4,,,53,34
171360,note_on,0,0,6,,,,,,,,5,,,53,34
171360,note_on,35,0,2,,,,,,,,1,,,65,34
171360,note_on,42,0,1,,,,,,,,0,,,77,85
171360,note_on,0,0,6,,,,,,,,5,,,69,64
171360,note_on,35,0,4,,,,,,,,3,,,65,34
171360,note_on,35,0,3,,,,,,,,2,,,65,34
171360,note_on,35,0,6,,,,,,,,5,,,77,64
171360,note_on,0,0,6,,,,,,,,5,,,72,64
171585,note_on,225,0,4,,,,,,,,3,,,65,0
171585,note_on,225,0,2,,,,,,,,1,,,65,0
171585,note_on,225,0,3,,,,,,,,2,,,65,0
171585,note_on,225,0,5,,,,,,,,4,,,53,0
171585,note_on,0,0,6,,,,,,,,5,,,69,0
171585,note_on,225,0,6,,,,,,,,5,,,53,0
171585,note_on,0,0,6,,,,,,,,5,,,77,0
171585,note_on,0,0,6,,,,,,,,5,,,72,0
171600,note_on,15,0,6,,,,,,,,5,,,53,34
171600,note_on,15,0,4,,,,,,,,3,,,65,34
171600,note_on,15,0,2,,,,,,,,1,,,65,34
171600,note_on,15,0,5,,,,,,,,4,,,53,34
171600,note_on,15,0,3,,,,,,,,2,,,65,34
171715,note_on,115,0,6,,,,,,,,5,,,53,0
171715,note_on,115,0,5,,,,,,,,4,,,53,0
171715,note_on,115,0,2,,,,,,,,1,,,65,0
171715,note_on,115,0,4,,,,,,,,3,,,65,0
171715,note_on,115,0,3,,,,,,,,2,,,65,0
171720,note_on,5,0,3,,,,,,,,2,,,65,34
171720,note_on,5,0,2,,,,,,,,1,,,65,34
171720,note_on,5,0,4,,,,,,,,3,,,65,34
171720,note_on,5,0,6,,,,,,,,5,,,53,34
171720,note_on,5,0,5,,,,,,,,4,,,53,34
171805,note_on,445,0,1,,,,,,,,0,,,77,0
171835,note_on,115,0,4,,,,,,,,3,,,65,0
171835,note_on,115,0,5,,,,,,,,4,,,53,0
171835,note_on,115,0,3,,,,,,,,2,,,65,0
171835,note_on,115,0,2,,,,,,,,1,,,65,0
171835,note_on,115,0,6,,,,,,,,5,,,53,0
171840,note_on,5,0,6,,,,,,,,5,,,69,64
171840,note_on,5,0,5,,,,,,,,4,,,57,34
171840,note_on,0,0,6,,,,,,,,5,,,57,34
171840,note_on,5,0,3,,,,,,,,2,,,69,34
171840,note_on,5,0,2,,,,,,,,1,,,69,49
171840,note_on,5,0,4,,,,,,,,3,,,69,34
171955,note_on,115,0,5,,,,,,,,4,,,57,0
171955,note_on,115,0,6,,,,,,,,5,,,57,0
171955,note_on,0,0,6,,,,,,,,5,,,69,0
171955,note_on,115,0,2,,,,,,,,1,,,69,0
171955,note_on,115,0,4,,,,,,,,3,,,69,0
171955,note_on,115,0,3,,,,,,,,2,,,69,0
171960,note_on,5,0,2,,,,,,,,1,,,69,49
171960,note_on,5,0,4,,,,,,,,3,,,69,49
171960,note_on,5,0,5,,,,,,,,4,,,57,34
171960,note_on,0,0,6,,,,,,,,5,,,57,34
171960,note_on,5,0,3,,,,,,,,2,,,69,34
171960,note_on,5,0,6,,,,,,,,5,,,69,64
172075,note_on,0,0,6,,,,,,,,5,,,69,0
172075,note_on,115,0,5,,,,,,,,4,,,57,0
172075,note_on,115,0,6,,,,,,,,5,,,57,0
172075,note_on,115,0,4,,,,,,,,3,,,69,0
172075,note_on,115,0,2,,,,,,,,1,,,69,0
172075,note_on,115,0,3,,,,,,,,2,,,69,0
172080,note_on,5,0,2,,,,,,,,1,,,72,49
172080,note_on,5,0,4,,,,,,,,3,,,72,49
172080,note_on,5,0,5,,,,,,,,4,,,60,49
172080,note_on,5,0,3,,,,,,,,2,,,72,34
172080,note_on,5,0,6,,,,,,,,5,,,72,64
172080,note_on,0,0,6,,,,,,,,5,,,60,49
172195,note_on,115,0,4,,,,,,,,3,,,72,0
172195,note_on,115,0,6,,,,,,,,5,,,60,0
172195,note_on,115,0,5,,,,,,,,4,,,60,0
172195,note_on,0,0,6,,,,,,,,5,,,72,0
172195,note_on,115,0,2,,,,,,,,1,,,72,0
172195,note_on,115,0,3,,,,,,,,2,,,72,0
172200,note_on,5,0,2,,,,,,,,1,,,72,49
172200,note_on,5,0,4,,,,,,,,3,,,72,49
172200,note_on,5,0,5,,,,,,,,4,,,60,49
172200,note_on,5,0,6,,,,,,,,5,,,72,64
172200,note_on,0,0,6,,,,,,,,5,,,60,49
172200,note_on,5,0,3,,,,,,,,2,,,72,34
172315,note_on,115,0,4,,,,,,,,3,,,72,0
172315,note_on,115,0,6,,,,,,,,5,,,60,0
172315,note_on,115,0,2,,,,,,,,1,,,72,0
172315,note_on,0,0,6,,,,,,,,5,,,72,0
172315,note_on,115,0,3,,,,,,,,2,,,72,0
172315,note_on,115,0,5,,,,,,,,4,,,60,0
172320,note_on,5,0,3,,,,,,,,2,,,77,34
172320,note_on,5,0,2,,,,,,,,1,,,77,64
172320,note_on,5,0,4,,,,,,,,3,,,77,49
172320,note_on,0,0,6,,,,,,,,5,,,65,49
172320,note_on,5,0,6,,,,,,,,5,,,77,64
172320,note_on,5,0,5,,,,,,,,4,,,65,49
172435,note_on,115,0,4,,,,,,,,3,,,77,0
172435,note_on,115,0,5,,,,,,,,4,,,65,0
172435,note_on,0,0,6,,,,,,,,5,,,77,0
172435,note_on,115,0,3,,,,,,,,2,,,77,0
172435,note_on,115,0,6,,,,,,,,5,,,65,0
172435,note_on,115,0,2,,,,,,,,1,,,77,0
172440,note_on,5,0,6,,,,,,,,5,,,77,64
172440,note_on,5,0,5,,,,,,,,4,,,65,49
172440,note_on,0,0,6,,,,,,,,5,,,65,49
172440,note_on,5,0,4,,,,,,,,3,,,77,49
172440,note_on,5,0,3,,,,,,,,2,,,77,64
172440,note_on,5,0,2,,,,,,,,1,,,77,64
172555,note_on,115,0,4,,,,,,,,3,,,77,0
172555,note_on,0,0,6,,,,,,,,5,,,77,0
172555,note_on,115,0,6,,,,,,,,5,,,65,0
172555,note_on,115,0,3,,,,,,,,2,,,77,0
172555,note_on,115,0,5,,,,,,,,4,,,65,0
172555,note_on,115,0,2,,,,,,,,1,,,77,0
172560,note_on,5,0,4,,,,,,,,3,,,72,64
172560,note_on,0,0,6,,,,,,,,5,,,60,49
172560,note_on,5,0,6,,,,,,,,5,,,72,64
172560,note_on,5,0,2,,,,,,,,1,,,72,64
172560,note_on,5,0,3,,,,,,,,2,,,72,64
172560,note_on,5,0,5,,,,,,,,4,,,60,49
172675,note_on,115,0,2,,,,,,,,1,,,72,0
172675,note_on,115,0,4,,,,,,,,3,,,72,0
172675,note_on,0,0,6,,,,,,,,5,,,72,0
172675,note_on,115,0,3,,,,,,,,2,,,72,0
172675,note_on,115,0,6,,,,,,,,5,,,60,0
172675,note_on,115,0,5,,,,,,,,4,,,60,0
172680,note_on,5,0,4,,,,,,,,3,,,72,64
172680,note_on,5,0,6,,,,,,,,5,,,72,64
172680,note_on,0,0,6,,,,,,,,5,,,60,64
172680,note_on,5,0,3,,,,,,,,2,,,72,64
172680,note_on,5,0,2,,,,,,,,1,,,72,64
172680,note_on,5,0,5,,,,,,,,4,,,60,64
172795,note_on,115,0,5,,,,,,,,4,,,60,0
172795,note_on,115,0,4,,,,,,,,3,,,72,0
172795,note_on,115,0,2,,,,,,,,1,,,72,0
172795,note_on,115,0,6,,,,,,,,5,,,60,0
172795,note_on,0,0,6,,,,,,,,5,,,72,0
172795,note_on,115,0,3,,,,,,,,2,,,72,0
172800,note_on,5,0,5,,,,,,,,4,,,57,64
172800,note_on,5,0,3,,,,,,,,2,,,69,64
172800,note_on,5,0,2,,,,,,,,1,,,69,49
172800,note_on,0,0,6,,,,,,,,5,,,57,64
172800,note_on,5,0,6,,,,,,,,5,,,69,64
172800,note_on,5,0,4,,,,,,,,3,,,69,64
172915,note_on,115,0,2,,,,,,,,1,,,69,0
172915,note_on,115,0,5,,,,,,,,4,,,57,0
172915,note_on,115,0,3,,,,,,,,2,,,69,0
172915,note_on,0,0,6,,,,,,,,5,,,69,0
172915,note_on,115,0,6,,,,,,,,5,,,57,0
172915,note_on,115,0,4,,,,,,,,3,,,69,0
172920,note_on,0,0,6,,,,,,,,5,,,57,64
172920,note_on,5,0,2,,,,,,,,1,,,69,49
172920,note_on,5,0,5,,,,,,,,4,,,57,64
172920,note_on,5,0,6,,,,,,,,5,,,69,64
172920,note_on,5,0,3,,,,,,,,2,,,69,64
172920,note_on,5,0,4,,,,,,,,3,,,69,64
173035,note_on,115,0,4,,,,,,,,3,,,69,0
173035,note_on,0,0,6,,,,,,,,5,,,69,0
173035,note_on,115,0,3,,,,,,,,2,,,69,0
173035,note_on,115,0,6,,,,,,,,5,,,57,0
173035,note_on,115,0,2,,,,,,,,1,,,69,0
173035,note_on,115,0,5,,,,,,,,4,,,57,0
173040,note_on,5,0,3,,,,,,,,2,,,65,49
173040,note_on,5,0,6,,,,,,,,5,,,65,64
173040,note_on,5,0,2,,,,,,,,1,,,65,49
173040,note_on,5,0,5,,,,,,,,4,,,53,64
173040,note_on,0,0,6,,,,,,,,5,,,53,64
173040,note_on,5,0,4,,,,,,,,3,,,65,49
173155,note_on,115,0,4,,,,,,,,3,,,65,0
173155,note_on,115,0,3,,,,,,,,2,,,65,0
173155,note_on,115,0,5,,,,,,,,4,,,53,0
173155,note_on,115,0,2,,,,,,,,1,,,65,0
173155,note_on,0,0,6,,,,,,,,5,,,65,0
173155,note_on,115,0,6,,,,,,,,5,,,53,0
173160,note_on,5,0,3,,,,,,,,2,,,65,49
173160,note_on,5,0,4,,,,,,,,3,,,65,49
173160,note_on,5,0,2,,,,,,,,1,,,65,49
173160,note_on,0,0,6,,,,,,,,5,,,53,64
173160,note_on,5,0,6,,,,,,,,5,,,65,64
173160,note_on,5,0,5,,,,,,,,4,,,53,64
173275,note_on,0,0,6,,,,,,,,5,,,65,0
173275,note_on,115,0,6,,,,,,,,5,,,53,0
173275,note_on,115,0,4,,,,,,,,3,,,65,0
173275,note_on,115,0,2,,,,,,,,1,,,65,0
173275,note_on,115,0,5,,,,,,,,4,,,53,0
173275,note_on,115,0,3,,,,,,,,2,,,65,0
173280,note_on,5,0,3,,,,,,,,2,,,69,49
173280,note_on,5,0,5,,,,,,,,4,,,57,49
173280,note_on,5,0,4,,,,,,,,3,,,69,49
173280,note_on,5,0,2,,,,,,,,1,,,69,49
173280,note_on,5,0,6,,,,,,,,5,,,69,64
173280,note_on,0,0,6,,,,,,,,5,,,57,49
173395,note_on,115,0,3,,,,,,,,2,,,69,0
173395,note_on,115,0,5,,,,,,,,4,,,57,0
173395,note_on,0,0,6,,,,,,,,5,,,69,0
173395,note_on,115,0,4,,,,,,,,3,,,69,0
173395,note_on,115,0,2,,,,,,,,1,,,69,0
173395,note_on,115,0,6,,,,,,,,5,,,57,0
173400,note_on,5,0,4,,,,,,,,3,,,69,49
173400,note_on,5,0,5,,,,,,,,4,,,57,49
173400,note_on,5,0,6,,,,,,,,5,,,69,64
173400,note_on,5,0,2,,,,,,,,1,,,69,49
173400,note_on,5,0,3,,,,,,,,2,,,69,64
173400,note_on,0,0,6,,,,,,,,5,,,57,49
173515,note_on,0,0,6,,,,,,,,5,,,69,0
173515,note_on,115,0,6,,,,,,,,5,,,57,0
173515,note_on,115,0,4,,,,,,,,3,,,69,0
173515,note_on,115,0,2,,,,,,,,1,,,69,0
173515,note_on,115,0,3,,,,,,,,2,,,69,0
173515,note_on,115,0,5,,,,,,,,4,,,57,0
173520,note_on,5,0,5,,,,,,,,4,,,60,49
173520,note_on,5,0,3,,,,,,,,2,,,72,64
173520,note_on,5,0,2,,,,,,,,1,,,72,64
173520,note_on,5,0,4,,,,,,,,3,,,72,49
173520,note_on,0,0,6,,,,,,,,5,,,60,49
173520,note_on,5,0,6,,,,,,,,5,,,72,64
173635,note_on,115,0,5,,,,,,,,4,,,60,0
173635,note_on,115,0,3,,,,,,,,2,,,72,0
173635,note_on,115,0,4,,,,,,,,3,,,72,0
173635,note_on,0,0,6,,,,,,,,5,,,72,0
173635,note_on,115,0,2,,,,,,,,1,,,72,0
173635,note_on,115,0,6,,,,,,,,5,,,60,0
173640,note_on,0,0,6,,,,,,,,5,,,60,49
173640,note_on,5,0,5,,,,,,,,4,,,60,49
173640,note_on,5,0,2,,,,,,,,1,,,72,64
173640,note_on,5,0,4,,,,,,,,3,,,72,49
173640,note_on,5,0,6,,,,,,,,5,,,72,64
173640,note_on,5,0,3,,,,,,,,2,,,72,64
173755,note_on,115,0,4,,,,,,,,3,,,72,0
173755,note_on,115,0,5,,,,,,,,4,,,60,0
173755,note_on,0,0,6,,,,,,,,5,,,72,0
173755,note_on,115,0,2,,,,,,,,1,,,72,0
173755,note_on,115,0,6,,,,,,,,5,,,60,0
173755,note_on,115,0,3,,,,,,,,2,,,72,0
173760,note_on,5,0,3,,,,,,,,2,,,77,64
173760,note_on,5,0,6,,,,,,,,5,,,77,64
173760,note_on,5,0,4,,,,,,,,3,,,77,64
173760,note_on,0,0,6,,,,,,,,5,,,65,49
173760,note_on,5,0,5,,,,,,,,4,,,65,49
173760,note_on,5,0,2,,,,,,,,1,,,77,64
173875,note_on,115,0,6,,,,,,,,5,,,65,0
173875,note_on,115,0,4,,,,,,,,3,,,77,0
173875,note_on,115,0,5,,,,,,,,4,,,65,0
173875,note_on,115,0,2,,,,,,,,1,,,77,0
173875,note_on,115,0,3,,,,,,,,2,,,77,0
173875,note_on,0,0,6,,,,,,,,5,,,77,0
173880,note_on,5,0,6,,,,,,,,5,,,77,64
173880,note_on,5,0,2,,,,,,,,1,,,77,64
173880,note_on,5,0,4,,,,,,,,3,,,77,64
173880,note_on,5,0,3,,,,,,,,2,,,77,64
173880,note_on,0,0,6,,,,,,,,5,,,65,64
173880,note_on,5,0,5,,,,,,,,4,,,65,64
173995,note_on,115,0,5,,,,,,,,4,,,65,0
173995,note_on,115,0,6,,,,,,,,5,,,65,0
173995,note_on,115,0,2,,,,,,,,1,,,77,0
173995,note_on,115,0,4,,,,,,,,3,,,77,0
173995,note_on,115,0,3,,,,,,,,2,,,77,0
173995,note_on,0,0,6,,,,,,,,5,,,77,0
174000,note_on,5,0,5,,,,,,,,4,,,60,64
174000,note_on,5,0,4,,,,,,,,3,,,72,64
174000,note_on,0,0,6,,,,,,,,5,,,60,64
174000,note_on,5,0,3,,,,,,,,2,,,72,49
174000,note_on,5,0,6,,,,,,,,5,,,72,64
174000,note_on,5,0,2,,,,,,,,1,,,72,49
174115,note_on,115,0,3,,,,,,,,2,,,72,0
174115,note_on,115,0,6,,,,,,,,5,,,60,0
174115,note_on,115,0,5,,,,,,,,4,,,60,0
174115,note_on,0,0,6,,,,,,,,5,,,72,0
174115,note_on,115,0,4,,,,,,,,3,,,72,0
174115,note_on,115,0,2,,,,,,,,1,,,72,0
174120,note_on,5,0,4,,,,,,,,3,,,72,49
174120,note_on,5,0,6,,,,,,,,5,,,72,64
174120,note_on,5,0,2,,,,,,,,1,,,72,49
174120,note_on,5,0,5,,,,,,,,4,,,60,49
174120,note_on,5,0,3,,,,,,,,2,,,72,49
174120,note_on,0,0,6,,,,,,,,5,,,60,49
174235,note_on,115,0,2,,,,,,,,1,,,72,0
174235,note_on,115,0,3,,,,,,,,2,,,72,0
174235,note_on,115,0,4,,,,,,,,3,,,72,0
174235,note_on,0,0,6,,,,,,,,5,,,72,0
174235,note_on,115,0,5,,,,,,,,4,,,60,0
174235,note_on,115,0,6,,,,,,,,5,,,60,0
174240,note_on,5,0,6,,,,,,,,5,,,72,64
174240,note_on,0,0,6,,,,,,,,5,,,65,64
174240,note_on,5,0,3,,,,,,,,2,,,69,49
174240,note_on,5,0,2,,,,,,,,1,,,69,49
174240,note_on,5,0,4,,,,,,,,3,,,69,49
174240,note_on,0,0,6,,,,,,,,5,,,57,49
174240,note_on,5,0,5,,,,,,,,4,,,57,49
174240,note_on,0,0,6,,,,,,,,5,,,60,64
174465,note_on,225,0,6,,,,,,,,5,,,57,0
174465,note_on,225,0,4,,,,,,,,3,,,69,0
174465,note_on,225,0,3,,,,,,,,2,,,69,0
174465,note_on,0,0,6,,,,,,,,5,,,72,0
174465,note_on,225,0,5,,,,,,,,4,,,57,0
174465,note_on,225,0,2,,,,,,,,1,,,69,0
174480,note_on,15,0,4,,,,,,,,3,,,65,49
174480,note_on,15,0,6,,,,,,,,5,,,69,64
174480,note_on,15,0,2,,,,,,,,1,,,65,49
174480,note_on,15,0,5,,,,,,,,4,,,53,49
174480,note_on,0,0,6,,,,,,,,5,,,53,49
174480,note_on,15,0,3,,,,,,,,2,,,65,49
174685,note_on,205,0,6,,,,,,,,5,,,60,0
174685,note_on,0,0,6,,,,,,,,5,,,65,0
174705,note_on,225,0,3,,,,,,,,2,,,65,0
174705,note_on,225,0,4,,,,,,,,3,,,65,0
174705,note_on,225,0,2,,,,,,,,1,,,65,0
174705,note_on,225,0,5,,,,,,,,4,,,53,0
174705,note_on,0,0,6,,,,,,,,5,,,53,0
174705,note_on,20,0,6,,,,,,,,5,,,69,0
174720,note_on,0,0,6,,,,,,,,5,,,65,64
174720,note_on,0,0,6,,,,,,,,5,,,60,49
174720,note_on,0,0,6,,,,,,,,5,,,60,64
174720,note_on,15,0,5,,,,,,,,4,,,60,49
174720,note_on,15,0,4,,,,,,,,3,,,72,49
174720,note_on,15,0,3,,,,,,,,2,,,72,49
174720,note_on,15,0,6,,,,,,,,5,,,69,64
174720,note_on,15,0,2,,,,,,,,1,,,72,49
174778,set_tempo,30778,1,0,,,,,,1500000,,,,,,
175012,note_on,292,0,6,,,,,,,,5,,,60,0
175012,note_on,0,0,6,,,,,,,,5,,,69,0
175012,note_on,0,0,6,,,,,,,,5,,,65,0
175012,note_on,0,0,6,,,,,,,,5,,,60,0
175012,note_on,292,0,4,,,,,,,,3,,,72,0
175012,note_on,292,0,5,,,,,,,,4,,,60,0
175012,note_on,292,0,3,,,,,,,,2,,,72,0
175012,note_on,292,0,2,,,,,,,,1,,,72,0
175200,set_tempo,422,1,0,,,,,,1714286,,,,,,
175200,note_on,188,0,4,,,,,,,,3,,,60,49
175200,note_on,188,0,5,,,,,,,,4,,,48,49
175200,note_on,188,0,2,,,,,,,,1,,,60,49
175200,note_on,188,0,6,,,,,,,,5,,,67,64
175200,note_on,0,0,6,,,,,,,,5,,,64,64
175200,note_on,0,0,6,,,,,,,,5,,,60,64
175200,note_on,0,0,6,,,,,,,,5,,,48,49
175200,note_on,188,0,3,,,,,,,,2,,,60,49
175507,note_on,0,0,6,,,,,,,,5,,,64,0
175507,note_on,307,0,6,,,,,,,,5,,,48,0
175507,note_on,0,0,6,,,,,,,,5,,,60,0
175507,note_on,307,0,3,,,,,,,,2,,,60,0
175507,note_on,307,0,4,,,,,,,,3,,,60,0
175507,note_on,307,0,2,,,,,,,,1,,,60,0
175507,note_on,0,0,6,,,,,,,,5,,,67,0
175507,note_on,307,0,5,,,,,,,,4,,,48,0
175680,note_on,173,0,6,,,,,,,,5,,,53,49
175680,note_on,173,0,3,,,,,,,,2,,,65,49
175680,note_on,173,0,4,,,,,,,,3,,,65,49
175680,note_on,173,0,2,,,,,,,,1,,,65,49
175680,note_on,173,0,5,,,,,,,,4,,,53,49
175711,note_on,31,0,6,,,,,,,,5,,,57,64
175737,note_on,26,0,6,,,,,,,,5,,,60,64
175773,note_on,36,0,6,,,,,,,,5,,,65,64
176379,note_on,699,0,2,,,,,,,,1,,,65,0
176379,note_on,699,0,5,,,,,,,,4,,,53,0
176379,note_on,699,0,4,,,,,,,,3,,,65,0
176379,note_on,699,0,3,,,,,,,,2,,,65,0
176384,set_tempo,1184,1,0,,,,,,3000000,,,,,,
177005,note_on,1232,0,6,,,,,,,,5,,,53,0
177036,note_on,31,0,6,,,,,,,,5,,,57,0
177062,note_on,26,0,6,,,,,,,,5,,,60,0
177098,note_on,36,0,6,,,,,,,,5,,,65,0
177120,note_on,22,0,6,,,,,,,,5,,,77,85
177120,note_on,0,0,6,,,,,,,,5,,,65,85
177120,note_on,5315,0,1,,,,,,,,0,,,77,85
177120,note_on,741,0,2,,,,,,,,1,,,77,85
177120,note_on,741,0,3,,,,,,,,2,,,77,85
177120,note_on,741,0,5,,,,,,,,4,,,65,85
177120,note_on,741,0,4,,,,,,,,3,,,77,85
177120,marker,0,1,0,,,,,,,,,,,,
177120,set_tempo,736,1,0,,,,,,545455,,,,,,
177345,note_on,225,0,1,,,,,,,,0,,,77,0
177345,note_on,225,0,6,,,,,,,,5,,,65,0
177345,note_on,225,0,2,,,,,,,,1,,,77,0
177345,note_on,225,0,4,,,,,,,,3,,,77,0
177345,note_on,225,0,3,,,,,,,,2,,,77,0
177345,note_on,0,0,6,,,,,,,,5,,,77,0
177345,note_on,225,0,5,,,,,,,,4,,,65,0
177360,note_on,15,0,2,,,,,,,,1,,,65,85
177360,note_on,15,0,1,,,,,,,,0,,,65,85
177360,note_on,15,0,5,,,,,,,,4,,,53,85
177360,note_on,15,0,4,,,,,,,,3,,,65,85
177360,note_on,15,0,6,,,,,,,,5,,,65,85
177360,note_on,0,0,6,,,,,,,,5,,,53,85
177360,note_on,15,0,3,,,,,,,,2,,,65,85
177475,note_on,115,0,3,,,,,,,,2,,,65,0
177475,note_on,115,0,4,,,,,,,,3,,,65,0
177475,note_on,115,0,1,,,,,,,,0,,,65,0
177475,note_on,115,0,6,,,,,,,,5,,,53,0
177475,note_on,0,0,6,,,,,,,,5,,,65,0
177475,note_on,115,0,2,,,,,,,,1,,,65,0
177475,note_on,115,0,5,,,,,,,,4,,,53,0
177480,note_on,5,0,2,,,,,,,,1,,,67,85
177480,note_on,5,0,3,,,,,,,,2,,,67,85
177480,note_on,5,0,4,,,,,,,,3,,,67,85
177480,note_on,5,0,1,,,,,,,,0,,,67,85
177480,note_on,0,0,6,,,,,,,,5,,,55,85
177480,note_on,5,0,6,,,,,,,,5,,,67,85
177480,note_on,5,0,5,,,,,,,,4,,,55,85
177595,note_on,115,0,5,,,,,,,,4,,,55,0
177595,note_on,115,0,6,,,,,,,,5,,,55,0
177595,note_on,115,0,3,,,,,,,,2,,,67,0
177595,note_on,115,0,2,,,,,,,,1,,,67,0
177595,note_on,115,0,4,,,,,,,,3,,,67,0
177595,note_on,0,0,6,,,,,,,,5,,,67,0
177595,note_on,115,0,1,,,,,,,,0,,,67,0
177600,note_on,5,0,5,,,,,,,,4,,,53,85
177600,note_on,5,0,3,,,,,,,,2,,,65,85
177600,note_on,5,0,2,,,,,,,,1,,,65,85
177600,note_on,0,0,6,,,,,,,,5,,,53,85
177600,note_on,5,0,4,,,,,,,,3,,,65,85
177600,note_on,5,0,1,,,,,,,,0,,,65,85
177600,note_on,5,0,6,,,,,,,,5,,,65,85
177715,note_on,115,0,1,,,,,,,,0,,,65,0
177715,note_on,115,0,2,,,,,,,,1,,,65,0
177715,note_on,0,0,6,,,,,,,,5,,,65,0
177715,note_on,115,0,6,,,,,,,,5,,,53,0
177715,note_on,115,0,5,,,,,,,,4,,,53,0
177715,note_on,115,0,4,,,,,,,,3,,,65,0
177715,note_on,115,0,3,,,,,,,,2,,,65,0
177720,note_on,5,0,2,,,,,,,,1,,,67,85
177720,note_on,0,0,6,,,,,,,,5,,,55,85
177720,note_on,5,0,6,,,,,,,,5,,,67,85
177720,note_on,5,0,3,,,,,,,,2,,,67,85
177720,note_on,5,0,4,,,,,,,,3,,,67,85
177720,note_on,5,0,5,,,,,,,,4,,,55,85
177720,note_on,5,0,1,,,,,,,,0,,,67,85
177835,note_on,115,0,3,,,,,,,,2,,,67,0
177835,note_on,115,0,5,,,,,,,,4,,,55,0
177835,note_on,115,0,2,,,,,,,,1,,,67,0
177835,note_on,115,0,1,,,,,,,,0,,,67,0
177835,note_on,115,0,6,,,,,,,,5,,,55,0
177835,note_on,0,0,6,,,,,,,,5,,,67,0
177835,note_on,115,0,4,,,,,,,,3,,,67,0
177840,note_on,5,0,5,,,,,,,,4,,,53,85
177840,note_on,5,0,1,,,,,,,,0,,,65,85
177840,note_on,5,0,2,,,,,,,,1,,,65,85
177840,note_on,5,0,4,,,,,,,,3,,,65,85
177840,note_on,0,0,6,,,,,,,,5,,,53,85
177840,note_on,5,0,3,,,,,,,,2,,,65,85
177840,note_on,5,0,6,,,,,,,,5,,,65,85
177955,note_on,115,0,6,,,,,,,,5,,,53,0
177955,note_on,115,0,4,,,,,,,,3,,,65,0
177955,note_on,115,0,2,,,,,,,,1,,,65,0
177955,note_on,115,0,5,,,,,,,,4,,,53,0
177955,note_on,115,0,3,,,,,,,,2,,,65,0
177955,note_on,115,0,1,,,,,,,,0,,,65,0
177955,note_on,0,0,6,,,,,,,,5,,,65,0
177960,note_on,5,0,6,,,,,,,,5,,,74,85
177960,note_on,0,0,6,,,,,,,,5,,,62,85
177960,note_on,5,0,4,,,,,,,,3,,,74,85
177960,note_on,5,0,2,,,,,,,,1,,,74,85
177960,note_on,5,0,1,,,,,,,,0,,,74,85
177960,note_on,5,0,3,,,,,,,,2,,,74,85
177960,note_on,5,0,5,,,,,,,,4,,,62,85
178075,note_on,115,0,2,,,,,,,,1,,,74,0
178075,note_on,115,0,1,,,,,,,,0,,,74,0
178075,note_on,115,0,3,,,,,,,,2,,,74,0
178075,note_on,115,0,4,,,,,,,,3,,,74,0
178075,note_on,0,0,6,,,,,,,,5,,,74,0
178075,note_on,115,0,6,,,,,,,,5,,,62,0
178075,note_on,115,0,5,,,,,,,,4,,,62,0
178080,note_on,0,0,6,,,,,,,,5,,,60,85
178080,note_on,5,0,6,,,,,,,,5,,,72,85
178080,note_on,5,0,4,,,,,,,,3,,,72,85
178080,note_on,5,0,2,,,,,,,,1,,,72,85
178080,note_on,5,0,3,,,,,,,,2,,,72,85
178080,note_on,5,0,5,,,,,,,,4,,,60,85
178080,note_on,5,0,1,,,,,,,,0,,,72,85
178195,note_on,115,0,5,,,,,,,,4,,,60,0
178195,note_on,115,0,1,,,,,,,,0,,,72,0
178195,note_on,115,0,4,,,,,,,,3,,,72,0
178195,note_on,0,0,6,,,,,,,,5,,,72,0
178195,note_on,115,0,6,,,,,,,,5,,,60,0
178195,note_on,115,0,3,,,,,,,,2,,,72,0
178195,note_on,115,0,2,,,,,,,,1,,,72,0
178200,note_on,0,0,6,,,,,,,,5,,,58,85
178200,note_on,5,0,5,,,,,,,,4,,,58,85
178200,note_on,5,0,1,,,,,,,,0,,,70,85
178200,note_on,5,0,3,,,,,,,,2,,,70,85
178200,note_on,5,0,2,,,,,,,,1,,,70,85
178200,note_on,5,0,6,,,,,,,,5,,,70,85
178200,note_on,5,0,4,,,,,,,,3,,,70,85
178315,note_on,115,0,2,,,,,,,,1,,,70,0
178315,note_on,115,0,4,,,,,,,,3,,,70,0
178315,note_on,0,0,6,,,,,,,,5,,,70,0
178315,note_on,115,0,6,,,,,,,,5,,,58,0
178315,note_on,115,0,3,,,,,,,,2,,,70,0
178315,note_on,115,0,5,,,,,,,,4,,,58,0
178315,note_on,115,0,1,,,,,,,,0,,,70,0
178320,note_on,0,0,6,,,,,,,,5,,,57,85
178320,note_on,5,0,6,,,,,,,,5,,,69,85
178320,note_on,5,0,5,,,,,,,,4,,,57,85
178320,note_on,5,0,1,,,,,,,,0,,,69,85
178320,note_on,5,0,2,,,,,,,,1,,,69,85
178320,note_on,5,0,3,,,,,,,,2,,,69,85
178320,note_on,5,0,4,,,,,,,,3,,,69,85
178435,note_on,115,0,1,,,,,,,,0,,,69,0
178435,note_on,115,0,2,,,,,,,,1,,,69,0
178435,note_on,115,0,4,,,,,,,,3,,,69,0
178435,note_on,115,0,3,,,,,,,,2,,,69,0
178435,note_on,115,0,5,,,,,,,,4,,,57,0
178435,note_on,115,0,6,,,,,,,,5,,,57,0
178435,note_on,0,0,6,,,,,,,,5,,,69,0
178440,note_on,5,0,4,,,,,,,,3,,,67,85
178440,note_on,5,0,3,,,,,,,,2,,,67,85
178440,note_on,5,0,5,,,,,,,,4,,,55,85
178440,note_on,5,0,1,,,,,,,,0,,,67,85
178440,note_on,0,0,6,,,,,,,,5,,,55,85
178440,note_on,5,0,2,,,,,,,,1,,,67,85
178440,note_on,5,0,6,,,,,,,,5,,,67,85
178555,note_on,115,0,3,,,,,,,,2,,,67,0
178555,note_on,115,0,5,,,,,,,,4,,,55,0
178555,note_on,115,0,1,,,,,,,,0,,,67,0
178555,note_on,115,0,6,,,,,,,,5,,,55,0
178555,note_on,0,0,6,,,,,,,,5,,,67,0
178555,note_on,115,0,4,,,,,,,,3,,,67,0
178555,note_on,115,0,2,,,,,,,,1,,,67,0
178560,note_on,5,0,4,,,,,,,,3,,,65,85
178560,note_on,5,0,6,,,,,,,,5,,,65,85
178560,note_on,0,0,6,,,,,,,,5,,,53,85
178560,note_on,5,0,5,,,,,,,,4,,,53,85
178560,note_on,5,0,2,,,,,,,,1,,,65,85
178560,note_on,5,0,3,,,,,,,,2,,,65,85
178560,note_on,5,0,1,,,,,,,,0,,,65,85
178785,note_on,225,0,5,,,,,,,,4,,,53,0
178785,note_on,225,0,2,,,,,,,,1,,,65,0
178785,note_on,225,0,4,,,,,,,,3,,,65,0
178785,note_on,225,0,6,,,,,,,,5,,,53,0
178785,note_on,0,0,6,,,,,,,,5,,,65,0
178785,note_on,225,0,3,,,,,,,,2,,,65,0
178785,note_on,225,0,1,,,,,,,,0,,,65,0
178800,note_on,15,0,4,,,,,,,,3,,,77,85
178800,note_on,15,0,1,,,,,,,,0,,,77,85
178800,note_on,0,0,6,,,,,,,,5,,,65,85
178800,note_on,15,0,5,,,,,,,,4,,,65,85
178800,note_on,15,0,3,,,,,,,,2,,,77,85
178800,note_on,15,0,6,,,,,,,,5,,,77,85
178800,note_on,15,0,2,,,,,,,,1,,,77,85
179025,note_on,225,0,1,,,,,,,,0,,,77,0
179025,note_on,225,0,5,,,,,,,,4,,,65,0
179025,note_on,225,0,6,,,,,,,,5,,,65,0
179025,note_on,225,0,3,,,,,,,,2,,,77,0
179025,note_on,225,0,4,,,,,,,,3,,,77,0
179025,note_on,0,0,6,,,,,,,,5,,,77,0
179025,note_on,225,0,2,,,,,,,,1,,,77,0
179040,note_on,0,0,6,,,,,,,,5,,,53,85
179040,note_on,15,0,1,,,,,,,,0,,,65,85
179040,note_on,15,0,3,,,,,,,,2,,,65,85
179040,note_on,15,0,6,,,,,,,,5,,,65,85
179040,note_on,15,0,2,,,,,,,,1,,,65,85
179040,note_on,15,0,5,,,,,,,,4,,,53,85
179040,note_on,15,0,4,,,,,,,,3,,,65,85
179265,note_on,225,0,2,,,,,,,,1,,,65,0
179265,note_on,225,0,1,,,,,,,,0,,,65,0
179265,note_on,225,0,6,,,,,,,,5,,,53,0
179265,note_on,0,0,6,,,,,,,,5,,,65,0
179265,note_on,225,0,4,,,,,,,,3,,,65,0
179265,note_on,225,0,5,,,,,,,,4,,,53,0
179265,note_on,225,0,3,,,,,,,,2,,,65,0
179280,note_on,15,0,5,,,,,,,,4,,,53,85
179280,note_on,15,0,2,,,,,,,,1,,,65,85
179280,note_on,15,0,1,,,,,,,,0,,,65,85
179280,note_on,15,0,4,,,,,,,,3,,,65,85
179280,note_on,0,0,6,,,,,,,,5,,,53,85
179280,note_on,15,0,6,,,,,,,,5,,,65,85
179280,note_on,15,0,3,,,,,,,,2,,,65,85
179725,note_on,445,0,1,,,,,,,,0,,,65,0
179725,note_on,445,0,2,,,,,,,,1,,,65,0
179725,note_on,0,0,6,,,,,,,,5,,,65,0
179725,note_on,445,0,6,,,,,,,,5,,,53,0
179725,note_on,445,0,3,,,,,,,,2,,,65,0
179725,note_on,445,0,4,,,,,,,,3,,,65,0
179725,note_on,445,0,5,,,,,,,,4,,,53,0
180000,note_on,275,0,1,,,,,,,,0,,,84,106
180115,note_on,115,0,1,,,,,,,,0,,,84,0
180120,note_on,5,0,1,,,,,,,,0,,,86,106
180235,note_on,115,0,1,,,,,,,,0,,,86,0
180240,note_on,5,0,1,,,,,,,,0,,,84,106
180355,note_on,115,0,1,,,,,,,,0,,,84,0
180360,note_on,5,0,1,,,,,,,,0,,,82,106
180475,note_on,115,0,1,,,,,,,,0,,,82,0
180480,note_on,5,0,1,,,,,,,,0,,,81,106
180595,note_on,115,0,1,,,,,,,,0,,,81,0
180600,note_on,5,0,1,,,,,,,,0,,,79,106
180715,note_on,115,0,1,,,,,,,,0,,,79,0
180720,note_on,5,0,1,,,,,,,,0,,,81,106
180835,note_on,115,0,1,,,,,,,,0,,,81,0
180840,note_on,5,0,1,,,,,,,,0,,,82,106
180955,note_on,115,0,1,,,,,,,,0,,,82,0
180960,note_on,5,0,1,,,,,,,,0,,,81,106
181075,note_on,115,0,1,,,,,,,,0,,,81,0
181080,note_on,5,0,1,,,,,,,,0,,,79,106
181195,note_on,115,0,1,,,,,,,,0,,,79,0
181200,note_on,5,0,1,,,,,,,,0,,,77,106
181315,note_on,115,0,1,,,,,,,,0,,,77,0
181320,note_on,5,0,1,,,,,,,,0,,,76,106
181435,note_on,115,0,1,,,,,,,,0,,,76,0
181440,note_on,1715,0,5,,,,,,,,4,,,65,85
181440,note_on,5,0,1,,,,,,,,0,,,77,85
181440,note_on,1715,0,4,,,,,,,,3,,,77,85
181440,note_on,1715,0,2,,,,,,,,1,,,77,85
181440,note_on,1715,0,3,,,,,,,,2,,,77,85
181440,note_on,1715,0,6,,,,,,,,5,,,77,85
181440,note_on,0,0,6,,,,,,,,5,,,65,85
181665,note_on,0,0,6,,,,,,,,5,,,77,0
181665,note_on,225,0,2,,,,,,,,1,,,77,0
181665,note_on,225,0,4,,,,,,,,3,,,77,0
181665,note_on,225,0,5,,,,,,,,4,,,65,0
181665,note_on,225,0,1,,,,,,,,0,,,77,0
181665,note_on,225,0,6,,,,,,,,5,,,65,0
181665,note_on,225,0,3,,,,,,,,2,,,77,0
181680,note_on,15,0,6,,,,,,,,5,,,65,85
181680,note_on,15,0,1,,,,,,,,0,,,65,85
181680,note_on,15,0,5,,,,,,,,4,,,53,85
181680,note_on,0,0,6,,,,,,,,5,,,53,85
181680,note_on,15,0,2,,,,,,,,1,,,65,85
181680,note_on,15,0,3,,,,,,,,2,,,65,85
181680,note_on,15,0,4,,,,,,,,3,,,65,85
181795,note_on,115,0,5,,,,,,,,4,,,53,0
181795,note_on,115,0,6,,,,,,,,5,,,53,0
181795,note_on,0,0,6,,,,,,,,5,,,65,0
181795,note_on,115,0,2,,,,,,,,1,,,65,0
181795,note_on,115,0,1,,,,,,,,0,,,65,0
181795,note_on,115,0,4,,,,,,,,3,,,65,0
181795,note_on,115,0,3,,,,,,,,2,,,65,0
181800,note_on,5,0,4,,,,,,,,3,,,67,85
181800,note_on,5,0,1,,,,,,,,0,,,67,85
181800,note_on,5,0,3,,,,,,,,2,,,67,85
181800,note_on,5,0,5,,,,,,,,4,,,55,85
181800,note_on,5,0,2,,,,,,,,1,,,67,85
181800,note_on,0,0,6,,,,,,,,5,,,55,85
181800,note_on,5,0,6,,,,,,,,5,,,67,85
181915,note_on,115,0,2,,,,,,,,1,,,67,0
181915,note_on,115,0,5,,,,,,,,4,,,55,0
181915,note_on,115,0,3,,,,,,,,2,,,67,0
181915,note_on,0,0,6,,,,,,,,5,,,67,0
181915,note_on,115,0,6,,,,,,,,5,,,55,0
181915,note_on,115,0,1,,,,,,,,0,,,67,0
181915,note_on,115,0,4,,,,,,,,3,,,67,0
181920,note_on,5,0,5,,,,,,,,4,,,53,85
181920,note_on,0,0,6,,,,,,,,5,,,53,85
181920,note_on,5,0,1,,,,,,,,0,,,65,85
181920,note_on,5,0,4,,,,,,,,3,,,65,85
181920,note_on,5,0,6,,,,,,,,5,,,65,85
181920,note_on,5,0,3,,,,,,,,2,,,65,85
181920,note_on,5,0,2,,,,,,,,1,,,65,85
182035,note_on,0,0,6,,,,,,,,5,,,65,0
182035,note_on,115,0,4,,,,,,,,3,,,65,0
182035,note_on,115,0,3,,,,,,,,2,,,65,0
182035,note_on,115,0,1,,,,,,,,0,,,65,0
182035,note_on,115,0,6,,,,,,,,5,,,53,0
182035,note_on,115,0,5,,,,,,,,4,,,53,0
182035,note_on,115,0,2,,,,,,,,1,,,65,0
182040,note_on,5,0,4,,,,,,,,3,,,67,85
182040,note_on,5,0,6,,,,,,,,5,,,67,85
182040,note_on,0,0,6,,,,,,,,5,,,55,85
182040,note_on,5,0,2,,,,,,,,1,,,67,85
182040,note_on,5,0,5,,,,,,,,4,,,55,85
182040,note_on,5,0,1,,,,,,,,0,,,67,85
182040,note_on,5,0,3,,,,,,,,2,,,67,85
182155,note_on,115,0,1,,,,,,,,0,,,67,0
182155,note_on,115,0,6,,,,,,,,5,,,55,0
182155,note_on,115,0,3,,,,,,,,2,,,67,0
182155,note_on,115,0,5,,,,,,,,4,,,55,0
182155,note_on,115,0,4,,,,,,,,3,,,67,0
182155,note_on,115,0,2,,,,,,,,1,,,67,0
182155,note_on,0,0,6,,,,,,,,5,,,67,0
182160,note_on,0,0,6,,,,,,,,5,,,53,85
182160,note_on,5,0,5,,,,,,,,4,,,53,85
182160,note_on,5,0,3,,,,,,,,2,,,65,85
182160,note_on,5,0,2,,,,,,,,1,,,65,85
182160,note_on,5,0,1,,,,,,,,0,,,65,85
182160,note_on,5,0,6,,,,,,,,5,,,65,85
182160,note_on,5,0,4,,,,,,,,3,,,65,85
182275,note_on,115,0,3,,,,,,,,2,,,65,0
182275,note_on,115,0,4,,,,,,,,3,,,65,0
182275,note_on,115,0,5,,,,,,,,4,,,53,0
182275,note_on,115,0,2,,,,,,,,1,,,65,0
182275,note_on,115,0,6,,,,,,,,5,,,53,0
182275,note_on,0,0,6,,,,,,,,5,,,65,0
182275,note_on,115,0,1,,,,,,,,0,,,65,0
182280,note_on,5,0,4,,,,,,,,3,,,74,85
182280,note_on,5,0,2,,,,,,,,1,,,74,85
182280,note_on,5,0,6,,,,,,,,5,,,74,85
182280,note_on,0,0,6,,,,,,,,5,,,62,85
182280,note_on,5,0,3,,,,,,,,2,,,74,85
182280,note_on,5,0,1,,,,,,,,0,,,74,85
182280,note_on,5,0,5,,,,,,,,4,,,62,85
182395,note_on,115,0,2,,,,,,,,1,,,74,0
182395,note_on,115,0,1,,,,,,,,0,,,74,0
182395,note_on,0,0,6,,,,,,,,5,,,74,0
182395,note_on,115,0,3,,,,,,,,2,,,74,0
182395,note_on,115,0,5,,,,,,,,4,,,62,0
182395,note_on,115,0,4,,,,,,,,3,,,74,0
182395,note_on,115,0,6,,,,,,,,5,,,62,0
182400,note_on,5,0,1,,,,,,,,0,,,72,85
182400,note_on,5,0,6,,,,,,,,5,,,72,85
182400,note_on,5,0,4,,,,,,,,3,,,72,85
182400,note_on,0,0,6,,,,,,,,5,,,60,85
182400,note_on,5,0,3,,,,,,,,2,,,72,85
182400,note_on,5,0,5,,,,,,,,4,,,60,85
182400,note_on,5,0,2,,,,,,,,1,,,72,85
182515,note_on,115,0,5,,,,,,,,4,,,60,0
182515,note_on,115,0,2,,,,,,,,1,,,72,0
182515,note_on,115,0,3,,,,,,,,2,,,72,0
182515,note_on,115,0,6,,,,,,,,5,,,60,0
182515,note_on,115,0,1,,,,,,,,0,,,72,0
182515,note_on,0,0,6,,,,,,,,5,,,72,0
182515,note_on,115,0,4,,,,,,,,3,,,72,0
182520,note_on,5,0,1,,,,,,,,0,,,70,85
182520,note_on,5,0,4,,,,,,,,3,,,70,85
182520,note_on,0,0,6,,,,,,,,5,,,58,85
182520,note_on,5,0,5,,,,,,,,4,,,58,85
182520,note_on,5,0,3,,,,,,,,2,,,70,85
182520,note_on,5,0,2,,,,,,,,1,,,70,85
182520,note_on,5,0,6,,,,,,,,5,,,70,85
182635,note_on,0,0,6,,,,,,,,5,,,70,0
182635,note_on,115,0,6,,,,,,,,5,,,58,0
182635,note_on,115,0,5,,,,,,,,4,,,58,0
182635,note_on,115,0,3,,,,,,,,2,,,70,0
182635,note_on,115,0,1,,,,,,,,0,,,70,0
182635,note_on,115,0,4,,,,,,,,3,,,70,0
182635,note_on,115,0,2,,,,,,,,1,,,70,0
182640,note_on,5,0,3,,,,,,,,2,,,69,85
182640,note_on,5,0,1,,,,,,,,0,,,69,85
182640,note_on,5,0,4,,,,,,,,3,,,69,85
182640,note_on,5,0,2,,,,,,,,1,,,69,85
182640,note_on,5,0,5,,,,,,,,4,,,57,85
182640,note_on,5,0,6,,,,,,,,5,,,69,85
182640,note_on,0,0,6,,,,,,,,5,,,57,85
182755,note_on,115,0,3,,,,,,,,2,,,69,0
182755,note_on,115,0,5,,,,,,,,4,,,57,0
182755,note_on,0,0,6,,,,,,,,5,,,69,0
182755,note_on,115,0,6,,,,,,,,5,,,57,0
182755,note_on,115,0,2,,,,,,,,1,,,69,0
182755,note_on,115,0,4,,,,,,,,3,,,69,0
182755,note_on,115,0,1,,,,,,,,0,,,69,0
182760,note_on,5,0,2,,,,,,,,1,,,67,85
182760,note_on,5,0,3,,,,,,,,2,,,67,85
182760,note_on,5,0,4,,,,,,,,3,,,67,85
182760,note_on,5,0,5,,,,,,,,4,,,55,85
182760,note_on,5,0,1,,,,,,,,0,,,67,85
182760,note_on,0,0,6,,,,,,,,5,,,55,85
182760,note_on,5,0,6,,,,,,,,5,,,67,85
182875,note_on,115,0,5,,,,,,,,4,,,55,0
182875,note_on,115,0,2,,,,,,,,1,,,67,0
182875,note_on,115,0,1,,,,,,,,0,,,67,0
182875,note_on,0,0,6,,,,,,,,5,,,67,0
182875,note_on,115,0,3,,,,,,,,2,,,67,0
182875,note_on,115,0,6,,,,,,,,5,,,55,0
182875,note_on,115,0,4,,,,,,,,3,,,67,0
182880,note_on,5,0,6,,,,,,,,5,,,65,85
182880,note_on,5,0,1,,,,,,,,0,,,65,85
182880,note_on,5,0,2,,,,,,,,1,,,65,85
182880,note_on,5,0,3,,,,,,,,2,,,65,85
182880,note_on,5,0,5,,,,,,,,4,,,53,85
182880,note_on,0,0,6,,,,,,,,5,,,53,85
182880,note_on,5,0,4,,,,,,,,3,,,65,85
183105,note_on,225,0,4,,,,,,,,3,,,65,0
183105,note_on,225,0,6,,,,,,,,5,,,53,0
183105,note_on,225,0,1,,,,,,,,0,,,65,0
183105,note_on,225,0,3,,,,,,,,2,,,65,0
183105,note_on,225,0,5,,,,,,,,4,,,53,0
183105,note_on,0,0,6,,,,,,,,5,,,65,0
183105,note_on,225,0,2,,,,,,,,1,,,65,0
183120,note_on,15,0,1,,,,,,,,0,,,77,85
183120,note_on,15,0,6,,,,,,,,5,,,77,85
183120,note_on,0,0,6,,,,,,,,5,,,65,85
183120,note_on,15,0,5,,,,,,,,4,,,65,85
183120,note_on,15,0,4,,,,,,,,3,,,77,85
183120,note_on,15,0,2,,,,,,,,1,,,77,85
183120,note_on,15,0,3,,,,,,,,2,,,77,85
183345,note_on,225,0,4,,,,,,,,3,,,77,0
183345,note_on,225,0,5,,,,,,,,4,,,65,0
183345,note_on,0,0,6,,,,,,,,5,,,77,0
183345,note_on,225,0,6,,,,,,,,5,,,65,0
183345,note_on,225,0,1,,,,,,,,0,,,77,0
183345,note_on,225,0,2,,,,,,,,1,,,77,0
183345,note_on,225,0,3,,,,,,,,2,,,77,0
183360,note_on,15,0,2,,,,,,,,1,,,65,85
183360,note_on,15,0,3,,,,,,,,2,,,65,85
183360,note_on,15,0,1,,,,,,,,0,,,65,85
183360,note_on,15,0,6,,,,,,,,5,,,65,85
183360,note_on,15,0,4,,,,,,,,3,,,65,85
183360,note_on,15,0,5,,,,,,,,4,,,53,85
183360,note_on,0,0,6,,,,,,,,5,,,53,85
183585,note_on,225,0,5,,,,,,,,4,,,53,0
183585,note_on,225,0,3,,,,,,,,2,,,65,0
183585,note_on,225,0,4,,,,,,,,3,,,65,0
183585,note_on,0,0,6,,,,,,,,5,,,65,0
183585,note_on,225,0,1,,,,,,,,0,,,65,0
183585,note_on,225,0,6,,,,,,,,5,,,53,0
183585,note_on,225,0,2,,,,,,,,1,,,65,0
183600,note_on,15,0,1,,,,,,,,0,,,65,85
183600,note_on,15,0,5,,,,,,,,4,,,53,85
183600,note_on,15,0,6,,,,,,,,5,,,65,85
183600,note_on,0,0,6,,,,,,,,5,,,53,85
183600,note_on,15,0,3,,,,,,,,2,,,65,85
183600,note_on,15,0,4,,,,,,,,3,,,65,85
183600,note_on,15,0,2,,,,,,,,1,,,65,85
184045,note_on,445,0,4,,,,,,,,3,,,65,0
184045,note_on,445,0,5,,,,,,,,4,,,53,0
184045,note_on,445,0,1,,,,,,,,0,,,65,0
184045,note_on,445,0,6,,,,,,,,5,,,53,0
184045,note_on,0,0,6,,,,,,,,5,,,65,0
184045,note_on,445,0,3,,,,,,,,2,,,65,0
184045,note_on,445,0,2,,,,,,,,1,,,65,0
184320,note_on,275,0,1,,,,,,,,0,,,79,106
184435,note_on,115,0,1,,,,,,,,0,,,79,0
184440,note_on,5,0,1,,,,,,,,0,,,81,106
184555,note_on,115,0,1,,,,,,,,0,,,81,0
184560,note_on,5,0,1,,,,,,,,0,,,79,106
184675,note_on,115,0,1,,,,,,,,0,,,79,0
184680,note_on,5,0,1,,,,,,,,0,,,77,106
184795,note_on,115,0,1,,,,,,,,0,,,77,0
184800,note_on,5,0,1,,,,,,,,0,,,76,106
184915,note_on,115,0,1,,,,,,,,0,,,76,0
184920,note_on,5,0,1,,,,,,,,0,,,74,106
185035,note_on,115,0,1,,,,,,,,0,,,74,0
185040,note_on,5,0,1,,,,,,,,0,,,76,106
185155,note_on,115,0,1,,,,,,,,0,,,76,0
185160,note_on,5,0,1,,,,,,,,0,,,77,106
185275,note_on,115,0,1,,,,,,,,0,,,77,0
185280,note_on,5,0,1,,,,,,,,0,,,76,106
185395,note_on,115,0,1,,,,,,,,0,,,76,0
185400,note_on,5,0,1,,,,,,,,0,,,74,106
185515,note_on,115,0,1,,,,,,,,0,,,74,0
185520,note_on,5,0,1,,,,,,,,0,,,72,106
185635,note_on,115,0,1,,,,,,,,0,,,72,0
185640,note_on,5,0,1,,,,,,,,0,,,71,106
185755,note_on,115,0,1,,,,,,,,0,,,71,0
185760,note_on,1715,0,3,,,,,,,,2,,,72,85
185760,note_on,5,0,1,,,,,,,,0,,,72,85
185760,note_on,0,0,6,,,,,,,,5,,,60,85
185760,note_on,1715,0,2,,,,,,,,1,,,72,85
185760,note_on,1715,0,6,,,,,,,,5,,,72,85
185760,note_on,1715,0,5,,,,,,,,4,,,60,85
185760,note_on,1715,0,4,,,,,,,,3,,,72,85
185985,note_on,225,0,5,,,,,,,,4,,,60,0
185985,note_on,225,0,1,,,,,,,,0,,,72,0
185985,note_on,225,0,6,,,,,,,,5,,,60,0
185985,note_on,0,0,6,,,,,,,,5,,,72,0
185985,note_on,225,0,2,,,,,,,,1,,,72,0
185985,note_on,225,0,3,,,,,,,,2,,,72,0
185985,note_on,225,0,4,,,,,,,,3,,,72,0
186000,note_on,15,0,3,,,,,,,,2,,,60,85
186000,note_on,15,0,4,,,,,,,,3,,,60,85
186000,note_on,15,0,6,,,,,,,,5,,,60,85
186000,note_on,15,0,5,,,,,,,,4,,,48,85
186000,note_on,15,0,2,,,,,,,,1,,,60,85
186000,note_on,0,0,6,,,,,,,,5,,,48,85
186000,note_on,15,0,1,,,,,,,,0,,,72,85
186115,note_on,115,0,6,,,,,,,,5,,,48,0
186115,note_on,0,0,6,,,,,,,,5,,,60,0
186115,note_on,115,0,4,,,,,,,,3,,,60,0
186115,note_on,115,0,3,,,,,,,,2,,,60,0
186115,note_on,115,0,1,,,,,,,,0,,,72,0
186115,note_on,115,0,2,,,,,,,,1,,,60,0
186115,note_on,115,0,5,,,,,,,,4,,,48,0
186120,note_on,5,0,5,,,,,,,,4,,,50,85
186120,note_on,5,0,2,,,,,,,,1,,,62,85
186120,note_on,5,0,1,,,,,,,,0,,,74,85
186120,note_on,5,0,6,,,,,,,,5,,,62,85
186120,note_on,0,0,6,,,,,,,,5,,,50,85
186120,note_on,5,0,3,,,,,,,,2,,,62,85
186120,note_on,5,0,4,,,,,,,,3,,,62,85
186235,note_on,115,0,2,,,,,,,,1,,,62,0
186235,note_on,115,0,5,,,,,,,,4,,,50,0
186235,note_on,115,0,4,,,,,,,,3,,,62,0
186235,note_on,115,0,3,,,,,,,,2,,,62,0
186235,note_on,115,0,6,,,,,,,,5,,,50,0
186235,note_on,0,0,6,,,,,,,,5,,,62,0
186235,note_on,115,0,1,,,,,,,,0,,,74,0
186240,note_on,5,0,2,,,,,,,,1,,,60,85
186240,note_on,5,0,4,,,,,,,,3,,,60,85
186240,note_on,5,0,5,,,,,,,,4,,,48,85
186240,note_on,0,0,6,,,,,,,,5,,,48,85
186240,note_on,5,0,6,,,,,,,,5,,,60,85
186240,note_on,5,0,1,,,,,,,,0,,,72,85
186240,note_on,5,0,3,,,,,,,,2,,,60,85
186355,note_on,115,0,2,,,,,,,,1,,,60,0
186355,note_on,0,0,6,,,,,,,,5,,,60,0
186355,note_on,115,0,6,,,,,,,,5,,,48,0
186355,note_on,115,0,4,,,,,,,,3,,,60,0
186355,note_on,115,0,5,,,,,,,,4,,,48,0
186355,note_on,115,0,1,,,,,,,,0,,,72,0
186355,note_on,115,0,3,,,,,,,,2,,,60,0
186360,note_on,0,0,6,,,,,,,,5,,,50,85
186360,note_on,5,0,5,,,,,,,,4,,,50,85
186360,note_on,5,0,2,,,,,,,,1,,,62,85
186360,note_on,5,0,4,,,,,,,,3,,,62,85
186360,note_on,5,0,3,,,,,,,,2,,,62,85
186360,note_on,5,0,6,,,,,,,,5,,,62,85
186360,note_on,5,0,1,,,,,,,,0,,,74,85
186475,note_on,115,0,3,,,,,,,,2,,,62,0
186475,note_on,115,0,2,,,,,,,,1,,,62,0
186475,note_on,0,0,6,,,,,,,,5,,,62,0
186475,note_on,115,0,1,,,,,,,,0,,,74,0
186475,note_on,115,0,5,,,,,,,,4,,,50,0
186475,note_on,115,0,4,,,,,,,,3,,,62,0
186475,note_on,115,0,6,,,,,,,,5,,,50,0
186480,note_on,5,0,6,,,,,,,,5,,,60,85
186480,note_on,0,0,6,,,,,,,,5,,,48,85
186480,note_on,5,0,3,,,,,,,,2,,,60,85
186480,note_on,5,0,2,,,,,,,,1,,,60,85
186480,note_on,5,0,1,,,,,,,,0,,,72,85
186480,note_on,5,0,5,,,,,,,,4,,,48,85
186480,note_on,5,0,4,,,,,,,,3,,,60,85
186595,note_on,115,0,6,,,,,,,,5,,,48,0
186595,note_on,0,0,6,,,,,,,,5,,,60,0
186595,note_on,115,0,5,,,,,,,,4,,,48,0
186595,note_on,115,0,1,,,,,,,,0,,,72,0
186595,note_on,115,0,2,,,,,,,,1,,,60,0
186595,note_on,115,0,4,,,,,,,,3,,,60,0
186595,note_on,115,0,3,,,,,,,,2,,,60,0
186600,note_on,5,0,4,,,,,,,,3,,,69,85
186600,note_on,5,0,3,,,,,,,,2,,,69,85
186600,note_on,5,0,6,,,,,,,,5,,,69,85
186600,note_on,5,0,5,,,,,,,,4,,,57,85
186600,note_on,0,0,6,,,,,,,,5,,,57,85
186600,note_on,5,0,1,,,,,,,,0,,,81,85
186600,note_on,5,0,2,,,,,,,,1,,,69,85
186715,note_on,115,0,6,,,,,,,,5,,,57,0
186715,note_on,0,0,6,,,,,,,,5,,,69,0
186715,note_on,115,0,2,,,,,,,,1,,,69,0
186715,note_on,115,0,5,,,,,,,,4,,,57,0
186715,note_on,115,0,4,,,,,,,,3,,,69,0
186715,note_on,115,0,1,,,,,,,,0,,,81,0
186715,note_on,115,0,3,,,,,,,,2,,,69,0
186720,note_on,5,0,5,,,,,,,,4,,,55,85
186720,note_on,5,0,1,,,,,,,,0,,,79,85
186720,note_on,5,0,4,,,,,,,,3,,,67,85
186720,note_on,5,0,3,,,,,,,,2,,,67,85
186720,note_on,5,0,6,,,,,,,,5,,,67,85
186720,note_on,0,0,6,,,,,,,,5,,,55,85
186720,note_on,5,0,2,,,,,,,,1,,,67,85
186835,note_on,115,0,2,,,,,,,,1,,,67,0
186835,note_on,115,0,4,,,,,,,,3,,,67,0
186835,note_on,115,0,6,,,,,,,,5,,,55,0
186835,note_on,115,0,3,,,,,,,,2,,,67,0
186835,note_on,115,0,5,,,,,,,,4,,,55,0
186835,note_on,115,0,1,,,,,,,,0,,,79,0
186835,note_on,0,0,6,,,,,,,,5,,,67,0
186840,note_on,5,0,6,,,,,,,,5,,,65,85
186840,note_on,0,0,6,,,,,,,,5,,,53,85
186840,note_on,5,0,3,,,,,,,,2,,,65,85
186840,note_on,5,0,2,,,,,,,,1,,,65,85
186840,note_on,5,0,4,,,,,,,,3,,,65,85
186840,note_on,5,0,5,,,,,,,,4,,,53,85
186840,note_on,5,0,1,,,,,,,,0,,,77,85
186955,note_on,115,0,2,,,,,,,,1,,,65,0
186955,note_on,115,0,5,,,,,,,,4,,,53,0
186955,note_on,115,0,3,,,,,,,,2,,,65,0
186955,note_on,115,0,1,,,,,,,,0,,,77,0
186955,note_on,115,0,6,,,,,,,,5,,,53,0
186955,note_on,115,0,4,,,,,,,,3,,,65,0
186955,note_on,0,0,6,,,,,,,,5,,,65,0
186960,note_on,5,0,5,,,,,,,,4,,,52,85
186960,note_on,5,0,6,,,,,,,,5,,,64,85
186960,note_on,5,0,3,,,,,,,,2,,,64,85
186960,note_on,5,0,1,,,,,,,,0,,,76,85
186960,note_on,0,0,6,,,,,,,,5,,,52,85
186960,note_on,5,0,2,,,,,,,,1,,,64,85
186960,note_on,5,0,4,,,,,,,,3,,,64,85
187075,note_on,115,0,4,,,,,,,,3,,,64,0
187075,note_on,115,0,1,,,,,,,,0,,,76,0
187075,note_on,115,0,5,,,,,,,,4,,,52,0
187075,note_on,115,0,6,,,,,,,,5,,,52,0
187075,note_on,0,0,6,,,,,,,,5,,,64,0
187075,note_on,115,0,2,,,,,,,,1,,,64,0
187075,note_on,115,0,3,,,,,,,,2,,,64,0
187080,note_on,5,0,3,,,,,,,,2,,,62,85
187080,note_on,5,0,4,,,,,,,,3,,,62,85
187080,note_on,5,0,1,,,,,,,,0,,,74,85
187080,note_on,5,0,5,,,,,,,,4,,,50,85
187080,note_on,0,0,6,,,,,,,,5,,,50,85
187080,note_on,5,0,6,,,,,,,,5,,,62,85
187080,note_on,5,0,2,,,,,,,,1,,,62,85
187195,note_on,115,0,4,,,,,,,,3,,,62,0
187195,note_on,115,0,3,,,,,,,,2,,,62,0
187195,note_on,0,0,6,,,,,,,,5,,,62,0
187195,note_on,115,0,6,,,,,,,,5,,,50,0
187195,note_on,115,0,2,,,,,,,,1,,,62,0
187195,note_on,115,0,5,,,,,,,,4,,,50,0
187195,note_on,115,0,1,,,,,,,,0,,,74,0
187200,note_on,5,0,1,,,,,,,,0,,,72,85
187200,note_on,5,0,5,,,,,,,,4,,,48,85
187200,note_on,5,0,4,,,,,,,,3,,,60,85
187200,note_on,5,0,3,,,,,,,,2,,,60,85
187200,note_on,5,0,2,,,,,,,,1,,,60,85
187200,note_on,0,0,6,,,,,,,,5,,,48,85
187200,note_on,5,0,6,,,,,,,,5,,,60,85
187425,note_on,225,0,4,,,,,,,,3,,,60,0
187425,note_on,225,0,1,,,,,,,,0,,,72,0
187425,note_on,225,0,2,,,,,,,,1,,,60,0
187425,note_on,225,0,5,,,,,,,,4,,,48,0
187425,note_on,0,0,6,,,,,,,,5,,,60,0
187425,note_on,225,0,6,,,,,,,,5,,,48,0
187425,note_on,225,0,3,,,,,,,,2,,,60,0
187440,note_on,15,0,6,,,,,,,,5,,,72,85
187440,note_on,0,0,6,,,,,,,,5,,,60,85
187440,note_on,15,0,4,,,,,,,,3,,,72,85
187440,note_on,15,0,3,,,,,,,,2,,,72,85
187440,note_on,15,0,2,,,,,,,,1,,,72,85
187440,note_on,15,0,5,,,,,,,,4,,,60,85
187440,note_on,15,0,1,,,,,,,,0,,,84,85
187665,note_on,225,0,5,,,,,,,,4,,,60,0
187665,note_on,225,0,3,,,,,,,,2,,,72,0
187665,note_on,0,0,6,,,,,,,,5,,,72,0
187665,note_on,225,0,6,,,,,,,,5,,,60,0
187665,note_on,225,0,4,,,,,,,,3,,,72,0
187665,note_on,225,0,1,,,,,,,,0,,,84,0
187665,note_on,225,0,2,,,,,,,,1,,,72,0
187680,note_on,15,0,6,,,,,,,,5,,,60,85
187680,note_on,15,0,2,,,,,,,,1,,,60,85
187680,note_on,15,0,1,,,,,,,,0,,,72,85
187680,note_on,15,0,5,,,,,,,,4,,,48,85
187680,note_on,15,0,4,,,,,,,,3,,,60,85
187680,note_on,0,0,6,,,,,,,,5,,,48,85
187680,note_on,15,0,3,,,,,,,,2,,,60,85
187905,note_on,225,0,4,,,,,,,,3,,,60,0
187905,note_on,225,0,5,,,,,,,,4,,,48,0
187905,note_on,0,0,6,,,,,,,,5,,,60,0
187905,note_on,225,0,6,,,,,,,,5,,,48,0
187905,note_on,225,0,3,,,,,,,,2,,,60,0
187905,note_on,225,0,1,,,,,,,,0,,,72,0
187905,note_on,225,0,2,,,,,,,,1,,,60,0
187920,note_on,15,0,1,,,,,,,,0,,,72,85
187920,note_on,0,0,6,,,,,,,,5,,,48,85
187920,note_on,15,0,6,,,,,,,,5,,,60,85
187920,note_on,15,0,2,,,,,,,,1,,,60,85
187920,note_on,15,0,5,,,,,,,,4,,,48,85
187920,note_on,15,0,3,,,,,,,,2,,,60,85
187920,note_on,15,0,4,,,,,,,,3,,,60,85
188365,note_on,445,0,3,,,,,,,,2,,,60,0
188365,note_on,445,0,2,,,,,,,,1,,,60,0
188365,note_on,445,0,4,,,,,,,,3,,,60,0
188365,note_on,445,0,5,,,,,,,,4,,,48,0
188365,note_on,445,0,6,,,,,,,,5,,,48,0
188365,note_on,445,0,1,,,,,,,,0,,,72,0
188365,note_on,0,0,6,,,,,,,,5,,,60,0
188640,note_on,0,0,6,,,,,,,,5,,,72,64
188640,note_on,275,0,1,,,,,,,,0,,,77,106
188640,note_on,275,0,6,,,,,,,,5,,,77,85
188640,note_on,0,0,6,,,,,,,,5,,,53,85
188640,note_on,0,0,6,,,,,,,,5,,,69,64
188640,note_on,275,0,3,,,,,,,,2,,,65,34
188640,note_on,275,0,2,,,,,,,,1,,,65,34
188640,note_on,275,0,5,,,,,,,,4,,,53,34
188640,note_on,275,0,4,,,,,,,,3,,,65,34
188755,note_on,115,0,1,,,,,,,,0,,,77,0
188760,note_on,5,0,1,,,,,,,,0,,,72,106
188865,note_on,225,0,5,,,,,,,,4,,,53,0
188865,note_on,225,0,6,,,,,,,,5,,,53,0
188865,note_on,225,0,4,,,,,,,,3,,,65,0
188865,note_on,225,0,2,,,,,,,,1,,,65,0
188865,note_on,225,0,3,,,,,,,,2,,,65,0
188875,note_on,115,0,1,,,,,,,,0,,,72,0
188880,note_on,5,0,1,,,,,,,,0,,,81,106
188880,note_on,15,0,4,,,,,,,,3,,,65,34
188880,note_on,15,0,3,,,,,,,,2,,,65,34
188880,note_on,15,0,5,,,,,,,,4,,,53,34
188880,note_on,15,0,6,,,,,,,,5,,,53,85
188880,note_on,15,0,2,,,,,,,,1,,,65,34
188995,note_on,115,0,1,,,,,,,,0,,,81,0
189000,note_on,5,0,1,,,,,,,,0,,,77,106
189085,note_on,0,0,6,,,,,,,,5,,,72,0
189085,note_on,0,0,6,,,,,,,,5,,,69,0
189085,note_on,205,0,6,,,,,,,,5,,,77,0
189105,note_on,20,0,6,,,,,,,,5,,,53,0
189105,note_on,225,0,5,,,,,,,,4,,,53,0
189105,note_on,225,0,3,,,,,,,,2,,,65,0
189105,note_on,225,0,4,,,,,,,,3,,,65,0
189105,note_on,225,0,2,,,,,,,,1,,,65,0
189115,note_on,115,0,1,,,,,,,,0,,,77,0
189120,note_on,15,0,2,,,,,,,,1,,,65,34
189120,note_on,15,0,4,,,,,,,,3,,,65,34
189120,note_on,5,0,1,,,,,,,,0,,,84,106
189120,note_on,15,0,6,,,,,,,,5,,,53,85
189120,note_on,15,0,5,,,,,,,,4,,,53,34
189120,note_on,15,0,3,,,,,,,,2,,,65,34
189235,note_on,115,0,1,,,,,,,,0,,,84,0
189240,note_on,5,0,1,,,,,,,,0,,,81,106
189345,note_on,225,0,5,,,,,,,,4,,,53,0
189345,note_on,225,0,3,,,,,,,,2,,,65,0
189345,note_on,225,0,6,,,,,,,,5,,,53,0
189345,note_on,225,0,2,,,,,,,,1,,,65,0
189345,note_on,225,0,4,,,,,,,,3,,,65,0
189355,note_on,115,0,1,,,,,,,,0,,,81,0
189360,note_on,0,0,6,,,,,,,,5,,,65,64
189360,note_on,0,0,6,,,,,,,,5,,,69,64
189360,note_on,15,0,6,,,,,,,,5,,,72,85
189360,note_on,15,0,2,,,,,,,,1,,,65,34
189360,note_on,15,0,5,,,,,,,,4,,,53,34
189360,note_on,0,0,6,,,,,,,,5,,,53,85
189360,note_on,15,0,3,,,,,,,,2,,,65,34
189360,note_on,5,0,1,,,,,,,,0,,,77,106
189360,note_on,15,0,4,,,,,,,,3,,,65,34
189475,note_on,115,0,1,,,,,,,,0,,,77,0
189480,note_on,5,0,1,,,,,,,,0,,,72,106
189595,note_on,115,0,1,,,,,,,,0,,,72,0
189600,note_on,5,0,1,,,,,,,,0,,,81,106
189715,note_on,115,0,1,,,,,,,,0,,,81,0
189720,note_on,5,0,1,,,,,,,,0,,,77,106
189805,note_on,0,0,6,,,,,,,,5,,,65,0
189805,note_on,445,0,5,,,,,,,,4,,,53,0
189805,note_on,445,0,3,,,,,,,,2,,,65,0
189805,note_on,0,0,6,,,,,,,,5,,,72,0
189805,note_on,0,0,6,,,,,,,,5,,,69,0
189805,note_on,445,0,4,,,,,,,,3,,,65,0
189805,note_on,445,0,2,,,,,,,,1,,,65,0
189805,note_on,445,0,6,,,,,,,,5,,,53,0
189835,note_on,115,0,1,,,,,,,,0,,,77,0
189840,note_on,5,0,1,,,,,,,,0,,,84,106
189955,note_on,115,0,1,,,,,,,,0,,,84,0
189960,note_on,5,0,1,,,,,,,,0,,,81,106
190075,note_on,115,0,1,,,,,,,,0,,,81,0
190080,note_on,0,0,6,,,,,,,,5,,,53,85
190080,note_on,0,0,6,,,,,,,,5,,,69,64
190080,note_on,5,0,1,,,,,,,,0,,,77,106
190080,note_on,275,0,2,,,,,,,,1,,,65,34
190080,note_on,0,0,6,,,,,,,,5,,,72,64
190080,note_on,275,0,4,,,,,,,,3,,,65,34
190080,note_on,275,0,6,,,,,,,,5,,,77,85
190080,note_on,275,0,5,,,,,,,,4,,,53,34
190080,note_on,275,0,3,,,,,,,,2,,,65,34
190195,note_on,115,0,1,,,,,,,,0,,,77,0
190200,note_on,5,0,1,,,,,,,,0,,,72,106
190305,note_on,225,0,4,,,,,,,,3,,,65,0
190305,note_on,225,0,6,,,,,,,,5,,,53,0
190305,note_on,225,0,5,,,,,,,,4,,,53,0
190305,note_on,225,0,3,,,,,,,,2,,,65,0
190305,note_on,225,0,2,,,,,,,,1,,,65,0
190315,note_on,115,0,1,,,,,,,,0,,,72,0
190320,note_on,15,0,4,,,,,,,,3,,,65,34
190320,note_on,15,0,2,,,,,,,,1,,,65,34
190320,note_on,5,0,1,,,,,,,,0,,,81,106
190320,note_on,15,0,6,,,,,,,,5,,,53,85
190320,note_on,15,0,5,,,,,,,,4,,,53,34
190320,note_on,15,0,3,,,,,,,,2,,,65,34
190435,note_on,115,0,1,,,,,,,,0,,,81,0
190440,note_on,5,0,1,,,,,,,,0,,,77,106
190525,note_on,205,0,6,,,,,,,,5,,,77,0
190525,note_on,0,0,6,,,,,,,,5,,,69,0
190525,note_on,0,0,6,,,,,,,,5,,,72,0
190545,note_on,225,0,4,,,,,,,,3,,,65,0
190545,note_on,225,0,3,,,,,,,,2,,,65,0
190545,note_on,225,0,2,,,,,,,,1,,,65,0
190545,note_on,20,0,6,,,,,,,,5,,,53,0
190545,note_on,225,0,5,,,,,,,,4,,,53,0
190555,note_on,115,0,1,,,,,,,,0,,,77,0
190560,note_on,15,0,6,,,,,,,,5,,,53,85
190560,note_on,15,0,3,,,,,,,,2,,,65,34
190560,note_on,15,0,4,,,,,,,,3,,,65,34
190560,note_on,15,0,2,,,,,,,,1,,,65,34
190560,note_on,5,0,1,,,,,,,,0,,,84,106
190560,note_on,15,0,5,,,,,,,,4,,,53,34
190675,note_on,115,0,1,,,,,,,,0,,,84,0
190680,note_on,5,0,1,,,,,,,,0,,,81,106
190785,note_on,225,0,5,,,,,,,,4,,,53,0
190785,note_on,225,0,4,,,,,,,,3,,,65,0
190785,note_on,225,0,3,,,,,,,,2,,,65,0
190785,note_on,225,0,6,,,,,,,,5,,,53,0
190785,note_on,225,0,2,,,,,,,,1,,,65,0
190795,note_on,115,0,1,,,,,,,,0,,,81,0
190800,note_on,15,0,5,,,,,,,,4,,,48,34
190800,note_on,5,0,1,,,,,,,,0,,,79,106
190800,note_on,15,0,3,,,,,,,,2,,,60,34
190800,note_on,0,0,6,,,,,,,,5,,,48,85
190800,note_on,15,0,2,,,,,,,,1,,,60,34
190800,note_on,15,0,4,,,,,,,,3,,,60,34
190800,note_on,0,0,6,,,,,,,,5,,,72,64
190800,note_on,0,0,6,,,,,,,,5,,,76,64
190800,note_on,15,0,6,,,,,,,,5,,,79,85
190915,note_on,115,0,1,,,,,,,,0,,,79,0
190920,note_on,5,0,1,,,,,,,,0,,,76,106
191035,note_on,115,0,1,,,,,,,,0,,,76,0
191040,note_on,5,0,1,,,,,,,,0,,,82,106
191155,note_on,115,0,1,,,,,,,,0,,,82,0
191160,note_on,5,0,1,,,,,,,,0,,,79,106
191245,note_on,445,0,3,,,,,,,,2,,,60,0
191245,note_on,445,0,5,,,,,,,,4,,,48,0
191245,note_on,445,0,4,,,,,,,,3,,,60,0
191245,note_on,445,0,6,,,,,,,,5,,,48,0
191245,note_on,0,0,6,,,,,,,,5,,,76,0
191245,note_on,0,0,6,,,,,,,,5,,,72,0
191245,note_on,0,0,6,,,,,,,,5,,,79,0
191245,note_on,445,0,2,,,,,,,,1,,,60,0
191275,note_on,115,0,1,,,,,,,,0,,,79,0
191280,note_on,5,0,1,,,,,,,,0,,,86,106
191395,note_on,115,0,1,,,,,,,,0,,,86,0
191400,note_on,5,0,1,,,,,,,,0,,,82,106
191515,note_on,115,0,1,,,,,,,,0,,,82,0
191520,note_on,0,0,6,,,,,,,,5,,,48,85
191520,note_on,275,0,4,,,,,,,,3,,,60,34
191520,note_on,5,0,1,,,,,,,,0,,,79,106
191520,note_on,275,0,3,,,,,,,,2,,,60,34
191520,note_on,0,0,6,,,,,,,,5,,,76,64
191520,note_on,275,0,2,,,,,,,,1,,,60,34
191520,note_on,275,0,6,,,,,,,,5,,,79,85
191520,note_on,275,0,5,,,,,,,,4,,,48,34
191520,note_on,0,0,6,,,,,,,,5,,,72,64
191635,note_on,115,0,1,,,,,,,,0,,,79,0
191640,note_on,5,0,1,,,,,,,,0,,,76,106
191745,note_on,225,0,2,,,,,,,,1,,,60,0
191745,note_on,225,0,3,,,,,,,,2,,,60,0
191745,note_on,225,0,4,,,,,,,,3,,,60,0
191745,note_on,225,0,6,,,,,,,,5,,,48,0
191745,note_on,225,0,5,,,,,,,,4,,,48,0
191755,note_on,115,0,1,,,,,,,,0,,,76,0
191760,note_on,5,0,1,,,,,,,,0,,,82,106
191760,note_on,15,0,6,,,,,,,,5,,,48,85
191760,note_on,15,0,2,,,,,,,,1,,,60,34
191760,note_on,15,0,3,,,,,,,,2,,,60,34
191760,note_on,15,0,4,,,,,,,,3,,,60,34
191760,note_on,15,0,5,,,,,,,,4,,,48,34
191875,note_on,115,0,1,,,,,,,,0,,,82,0
191880,note_on,5,0,1,,,,,,,,0,,,79,106
191965,note_on,0,0,6,,,,,,,,5,,,76,0
191965,note_on,0,0,6,,,,,,,,5,,,72,0
191965,note_on,205,0,6,,,,,,,,5,,,79,0
191985,note_on,225,0,4,,,,,,,,3,,,60,0
191985,note_on,225,0,2,,,,,,,,1,,,60,0
191985,note_on,225,0,3,,,,,,,,2,,,60,0
191985,note_on,225,0,5,,,,,,,,4,,,48,0
191985,note_on,20,0,6,,,,,,,,5,,,48,0
191995,note_on,115,0,1,,,,,,,,0,,,79,0
192000,note_on,15,0,5,,,,,,,,4,,,48,34
192000,note_on,15,0,3,,,,,,,,2,,,60,34
192000,note_on,15,0,6,,,,,,,,5,,,48,85
192000,note_on,5,0,1,,,,,,,,0,,,86,106
192000,note_on,15,0,2,,,,,,,,1,,,60,34
192000,note_on,15,0,4,,,,,,,,3,,,60,34
192115,note_on,115,0,1,,,,,,,,0,,,86,0
192120,note_on,5,0,1,,,,,,,,0,,,82,106
192225,note_on,225,0,5,,,,,,,,4,,,48,0
192225,note_on,225,0,4,,,,,,,,3,,,60,0
192225,note_on,225,0,2,,,,,,,,1,,,60,0
192225,note_on,225,0,3,,,,,,,,2,,,60,0
192225,note_on,225,0,6,,,,,,,,5,,,48,0
192235,note_on,115,0,1,,,,,,,,0,,,82,0
192240,note_on,15,0,6,,,,,,,,5,,,79,85
192240,note_on,15,0,5,,,,,,,,4,,,48,34
192240,note_on,15,0,2,,,,,,,,1,,,60,34
192240,note_on,0,0,6,,,,,,,,5,,,48,85
192240,note_on,0,0,6,,,,,,,,5,,,72,64
192240,note_on,0,0,6,,,,,,,,5,,,76,64
192240,note_on,5,0,1,,,,,,,,0,,,79,106
192240,note_on,15,0,3,,,,,,,,2,,,60,34
192240,note_on,15,0,4,,,,,,,,3,,,60,34
192355,note_on,115,0,1,,,,,,,,0,,,79,0
192360,note_on,5,0,1,,,,,,,,0,,,76,106
192475,note_on,115,0,1,,,,,,,,0,,,76,0
192480,note_on,5,0,1,,,,,,,,0,,,82,106
192595,note_on,115,0,1,,,,,,,,0,,,82,0
192600,note_on,5,0,1,,,,,,,,0,,,79,106
192685,note_on,445,0,2,,,,,,,,1,,,60,0
192685,note_on,445,0,3,,,,,,,,2,,,60,0
192685,note_on,445,0,5,,,,,,,,4,,,48,0
192685,note_on,0,0,6,,,,,,,,5,,,72,0
192685,note_on,0,0,6,,,,,,,,5,,,79,0
192685,note_on,445,0,6,,,,,,,,5,,,48,0
192685,note_on,445,0,4,,,,,,,,3,,,60,0
192685,note_on,0,0,6,,,,,,,,5,,,76,0
192715,note_on,115,0,1,,,,,,,,0,,,79,0
192720,note_on,5,0,1,,,,,,,,0,,,86,106
192835,note_on,115,0,1,,,,,,,,0,,,86,0
192840,note_on,5,0,1,,,,,,,,0,,,82,106
192955,note_on,115,0,1,,,,,,,,0,,,82,0
192960,note_on,0,0,6,,,,,,,,5,,,53,85
192960,note_on,0,0,6,,,,,,,,5,,,72,64
192960,note_on,275,0,3,,,,,,,,2,,,65,34
192960,note_on,275,0,5,,,,,,,,4,,,53,34
192960,note_on,275,0,2,,,,,,,,1,,,65,34
192960,note_on,275,0,6,,,,,,,,5,,,81,85
192960,note_on,0,0,6,,,,,,,,5,,,77,64
192960,note_on,275,0,4,,,,,,,,3,,,65,34
192960,note_on,5,0,1,,,,,,,,0,,,81,106
193075,note_on,115,0,1,,,,,,,,0,,,81,0
193080,note_on,5,0,1,,,,,,,,0,,,77,106
193185,note_on,225,0,2,,,,,,,,1,,,65,0
193185,note_on,225,0,4,,,,,,,,3,,,65,0
193185,note_on,225,0,5,,,,,,,,4,,,53,0
193185,note_on,225,0,3,,,,,,,,2,,,65,0
193185,note_on,225,0,6,,,,,,,,5,,,53,0
193195,note_on,115,0,1,,,,,,,,0,,,77,0
193200,note_on,5,0,1,,,,,,,,0,,,76,106
193200,note_on,15,0,3,,,,,,,,2,,,77,34
193200,note_on,15,0,4,,,,,,,,3,,,77,34
193200,note_on,15,0,2,,,,,,,,1,,,77,34
193200,note_on,15,0,6,,,,,,,,5,,,65,85
193200,note_on,15,0,5,,,,,,,,4,,,65,34
193315,note_on,115,0,1,,,,,,,,0,,,76,0
193320,note_on,5,0,1,,,,,,,,0,,,77,106
193405,note_on,0,0,6,,,,,,,,5,,,72,0
193405,note_on,0,0,6,,,,,,,,5,,,77,0
193405,note_on,205,0,6,,,,,,,,5,,,81,0
193425,note_on,225,0,5,,,,,,,,4,,,65,0
193425,note_on,225,0,3,,,,,,,,2,,,77,0
193425,note_on,225,0,2,,,,,,,,1,,,77,0
193425,note_on,225,0,4,,,,,,,,3,,,77,0
193425,note_on,20,0,6,,,,,,,,5,,,65,0
193435,note_on,115,0,1,,,,,,,,0,,,77,0
193440,note_on,15,0,5,,,,,,,,4,,,53,34
193440,note_on,5,0,1,,,,,,,,0,,,84,106
193440,note_on,15,0,3,,,,,,,,2,,,65,34
193440,note_on,15,0,2,,,,,,,,1,,,65,34
193440,note_on,15,0,6,,,,,,,,5,,,53,85
193440,note_on,15,0,4,,,,,,,,3,,,65,34
193555,note_on,115,0,1,,,,,,,,0,,,84,0
193560,note_on,5,0,1,,,,,,,,0,,,77,106
193665,note_on,225,0,2,,,,,,,,1,,,65,0
193665,note_on,225,0,6,,,,,,,,5,,,53,0
193665,note_on,225,0,5,,,,,,,,4,,,53,0
193665,note_on,225,0,3,,,,,,,,2,,,65,0
193665,note_on,225,0,4,,,,,,,,3,,,65,0
193675,note_on,115,0,1,,,,,,,,0,,,77,0
193680,note_on,15,0,2,,,,,,,,1,,,65,34
193680,note_on,0,0,6,,,,,,,,5,,,72,64
193680,note_on,0,0,6,,,,,,,,5,,,77,64
193680,note_on,15,0,6,,,,,,,,5,,,81,85
193680,note_on,0,0,6,,,,,,,,5,,,53,85
193680,note_on,15,0,3,,,,,,,,2,,,65,34
193680,note_on,5,0,1,,,,,,,,0,,,81,106
193680,note_on,15,0,5,,,,,,,,4,,,53,34
193680,note_on,15,0,4,,,,,,,,3,,,65,34
193795,note_on,115,0,1,,,,,,,,0,,,81,0
193800,note_on,5,0,1,,,,,,,,0,,,77,106
193915,note_on,115,0,1,,,,,,,,0,,,77,0
193920,note_on,5,0,1,,,,,,,,0,,,76,106
194035,note_on,115,0,1,,,,,,,,0,,,76,0
194040,note_on,5,0,1,,,,,,,,0,,,77,106
194125,note_on,445,0,6,,,,,,,,5,,,53,0
194125,note_on,0,0,6,,,,,,,,5,,,81,0
194125,note_on,0,0,6,,,,,,,,5,,,77,0
194125,note_on,0,0,6,,,,,,,,5,,,72,0
194125,note_on,445,0,5,,,,,,,,4,,,53,0
194125,note_on,445,0,3,,,,,,,,2,,,65,0
194125,note_on,445,0,4,,,,,,,,3,,,65,0
194125,note_on,445,0,2,,,,,,,,1,,,65,0
194155,note_on,115,0,1,,,,,,,,0,,,77,0
194160,note_on,5,0,1,,,,,,,,0,,,84,106
194275,note_on,115,0,1,,,,,,,,0,,,84,0
194280,note_on,5,0,1,,,,,,,,0,,,77,106
194395,note_on,115,0,1,,,,,,,,0,,,77,0
194400,note_on,275,0,2,,,,,,,,1,,,60,34
194400,note_on,275,0,3,,,,,,,,2,,,60,34
194400,note_on,0,0,6,,,,,,,,5,,,76,64
194400,note_on,0,0,6,,,,,,,,5,,,72,64
194400,note_on,0,0,6,,,,,,,,5,,,48,85
194400,note_on,275,0,6,,,,,,,,5,,,79,85
194400,note_on,275,0,5,,,,,,,,4,,,48,34
194400,note_on,275,0,4,,,,,,,,3,,,60,34
194400,note_on,5,0,1,,,,,,,,0,,,79,106
194515,note_on,115,0,1,,,,,,,,0,,,79,0
194520,note_on,5,0,1,,,,,,,,0,,,76,106
194625,note_on,225,0,6,,,,,,,,5,,,48,0
194625,note_on,225,0,3,,,,,,,,2,,,60,0
194625,note_on,225,0,4,,,,,,,,3,,,60,0
194625,note_on,225,0,2,,,,,,,,1,,,60,0
194625,note_on,225,0,5,,,,,,,,4,,,48,0
194635,note_on,115,0,1,,,,,,,,0,,,76,0
194640,note_on,15,0,4,,,,,,,,3,,,72,34
194640,note_on,15,0,5,,,,,,,,4,,,60,34
194640,note_on,15,0,6,,,,,,,,5,,,60,85
194640,note_on,15,0,2,,,,,,,,1,,,72,34
194640,note_on,15,0,3,,,,,,,,2,,,72,34
194640,note_on,5,0,1,,,,,,,,0,,,74,106
194755,note_on,115,0,1,,,,,,,,0,,,74,0
194760,note_on,5,0,1,,,,,,,,0,,,76,106
194845,note_on,205,0,6,,,,,,,,5,,,79,0
194845,note_on,0,0,6,,,,,,,,5,,,72,0
194845,note_on,0,0,6,,,,,,,,5,,,76,0
194865,note_on,20,0,6,,,,,,,,5,,,60,0
194865,note_on,225,0,3,,,,,,,,2,,,72,0
194865,note_on,225,0,4,,,,,,,,3,,,72,0
194865,note_on,225,0,5,,,,,,,,4,,,60,0
194865,note_on,225,0,2,,,,,,,,1,,,72,0
194875,note_on,115,0,1,,,,,,,,0,,,76,0
194880,note_on,15,0,2,,,,,,,,1,,,60,34
194880,note_on,5,0,1,,,,,,,,0,,,84,106
194880,note_on,15,0,5,,,,,,,,4,,,48,34
194880,note_on,15,0,3,,,,,,,,2,,,60,34
194880,note_on,15,0,6,,,,,,,,5,,,48,85
194880,note_on,15,0,4,,,,,,,,3,,,60,34
194995,note_on,115,0,1,,,,,,,,0,,,84,0
195000,note_on,5,0,1,,,,,,,,0,,,76,106
195105,note_on,225,0,2,,,,,,,,1,,,60,0
195105,note_on,225,0,4,,,,,,,,3,,,60,0
195105,note_on,225,0,5,,,,,,,,4,,,48,0
195105,note_on,225,0,6,,,,,,,,5,,,48,0
195105,note_on,225,0,3,,,,,,,,2,,,60,0
195115,note_on,115,0,1,,,,,,,,0,,,76,0
195120,note_on,0,0,6,,,,,,,,5,,,79,64
195120,note_on,15,0,6,,,,,,,,5,,,84,85
195120,note_on,15,0,3,,,,,,,,2,,,60,34
195120,note_on,5,0,1,,,,,,,,0,,,84,106
195120,note_on,15,0,4,,,,,,,,3,,,60,34
195120,note_on,0,0,6,,,,,,,,5,,,76,64
195120,note_on,15,0,2,,,,,,,,1,,,60,34
195120,note_on,0,0,6,,,,,,,,5,,,48,85
195120,note_on,15,0,5,,,,,,,,4,,,48,34
195235,note_on,115,0,1,,,,,,,,0,,,84,0
195240,note_on,5,0,1,,,,,,,,0,,,76,106
195355,note_on,115,0,1,,,,,,,,0,,,76,0
195360,note_on,5,0,1,,,,,,,,0,,,74,106
195475,note_on,115,0,1,,,,,,,,0,,,74,0
195480,note_on,5,0,1,,,,,,,,0,,,76,106
195565,note_on,0,0,6,,,,,,,,5,,,79,0
195565,note_on,445,0,6,,,,,,,,5,,,48,0
195565,note_on,0,0,6,,,,,,,,5,,,84,0
195565,note_on,0,0,6,,,,,,,,5,,,76,0
195565,note_on,445,0,5,,,,,,,,4,,,48,0
195565,note_on,445,0,4,,,,,,,,3,,,60,0
195565,note_on,445,0,2,,,,,,,,1,,,60,0
195565,note_on,445,0,3,,,,,,,,2,,,60,0
195595,note_on,115,0,1,,,,,,,,0,,,76,0
195600,note_on,5,0,1,,,,,,,,0,,,84,106
195715,note_on,115,0,1,,,,,,,,0,,,84,0
195720,note_on,5,0,1,,,,,,,,0,,,76,106
195835,note_on,115,0,1,,,,,,,,0,,,76,0
195840,note_on,0,0,6,,,,,,,,5,,,53,85
195840,note_on,0,0,6,,,,,,,,5,,,72,64
195840,note_on,0,0,6,,,,,,,,5,,,77,64
195840,note_on,275,0,6,,,,,,,,5,,,81,85
195840,note_on,5,0,1,,,,,,,,0,,,81,106
195840,note_on,275,0,3,,,,,,,,2,,,65,34
195840,note_on,275,0,4,,,,,,,,3,,,65,34
195840,note_on,275,0,2,,,,,,,,1,,,65,34
195840,note_on,275,0,5,,,,,,,,4,,,53,34
195955,note_on,115,0,1,,,,,,,,0,,,81,0
195960,note_on,5,0,1,,,,,,,,0,,,84,106
196075,note_on,115,0,1,,,,,,,,0,,,84,0
196080,note_on,5,0,1,,,,,,,,0,,,82,106
196195,note_on,115,0,1,,,,,,,,0,,,82,0
196200,note_on,5,0,1,,,,,,,,0,,,81,106
196285,note_on,445,0,2,,,,,,,,1,,,65,0
196285,note_on,0,0,6,,,,,,,,5,,,72,0
196285,note_on,0,0,6,,,,,,,,5,,,77,0
196285,note_on,0,0,6,,,,,,,,5,,,81,0
196285,note_on,445,0,6,,,,,,,,5,,,53,0
196285,note_on,445,0,4,,,,,,,,3,,,65,0
196285,note_on,445,0,3,,,,,,,,2,,,65,0
196285,note_on,445,0,5,,,,,,,,4,,,53,0
196315,note_on,115,0,1,,,,,,,,0,,,81,0
196320,note_on,5,0,1,,,,,,,,0,,,79,106
196435,note_on,115,0,1,,,,,,,,0,,,79,0
196440,note_on,5,0,1,,,,,,,,0,,,77,106
196555,note_on,115,0,1,,,,,,,,0,,,77,0
196560,note_on,5,0,1,,,,,,,,0,,,76,106
196675,note_on,115,0,1,,,,,,,,0,,,76,0
196680,note_on,5,0,1,,,,,,,,0,,,81,106
196795,note_on,115,0,1,,,,,,,,0,,,81,0
196800,note_on,5,0,1,,,,,,,,0,,,79,106
196915,note_on,115,0,1,,,,,,,,0,,,79,0
196920,note_on,5,0,1,,,,,,,,0,,,77,106
197035,note_on,115,0,1,,,,,,,,0,,,77,0
197040,note_on,5,0,1,,,,,,,,0,,,76,106
197155,note_on,115,0,1,,,,,,,,0,,,76,0
197160,note_on,5,0,1,,,,,,,,0,,,74,106
197275,note_on,115,0,1,,,,,,,,0,,,74,0
197280,note_on,5,0,1,,,,,,,,0,,,72,106
197395,note_on,115,0,1,,,,,,,,0,,,72,0
197400,note_on,5,0,1,,,,,,,,0,,,77,106
197515,note_on,115,0,1,,,,,,,,0,,,77,0
197520,note_on,5,0,1,,,,,,,,0,,,76,106
197635,note_on,115,0,1,,,,,,,,0,,,76,0
197640,note_on,5,0,1,,,,,,,,0,,,74,106
197755,note_on,115,0,1,,,,,,,,0,,,74,0
197760,note_on,5,0,1,,,,,,,,0,,,72,106
197875,note_on,115,0,1,,,,,,,,0,,,72,0
197880,note_on,5,0,1,,,,,,,,0,,,70,106
197995,note_on,115,0,1,,,,,,,,0,,,70,0
198000,note_on,5,0,1,,,,,,,,0,,,69,106
198115,note_on,115,0,1,,,,,,,,0,,,69,0
198120,note_on,5,0,1,,,,,,,,0,,,74,106
198235,note_on,115,0,1,,,,,,,,0,,,74,0
198240,note_on,5,0,1,,,,,,,,0,,,72,106
198355,note_on,115,0,1,,,,,,,,0,,,72,0
198360,note_on,5,0,1,,,,,,,,0,,,70,106
198475,note_on,115,0,1,,,,,,,,0,,,70,0
198480,note_on,5,0,1,,,,,,,,0,,,69,106
198595,note_on,115,0,1,,,,,,,,0,,,69,0
198600,note_on,5,0,1,,,,,,,,0,,,67,106
198715,note_on,115,0,1,,,,,,,,0,,,67,0
198720,note_on,0,0,6,,,,,,,,5,,,41,34
198720,note_on,2435,0,3,,,,,,,,2,,,65,34
198720,note_on,2435,0,2,,,,,,,,1,,,69,34
198720,note_on,2435,0,5,,,,,,,,4,,,41,34
198720,note_on,5,0,1,,,,,,,,0,,,65,106
198720,note_on,0,0,6,,,,,,,,5,,,60,64
198720,note_on,2435,0,4,,,,,,,,3,,,60,34
198720,note_on,2435,0,6,,,,,,,,5,,,69,85
198720,note_on,0,0,6,,,,,,,,5,,,65,64
198835,note_on,115,0,2,,,,,,,,1,,,69,0
198835,note_on,115,0,3,,,,,,,,2,,,65,0
198840,note_on,5,0,2,,,,,,,,1,,,65,34
198840,note_on,5,0,3,,,,,,,,2,,,60,34
198945,note_on,225,0,6,,,,,,,,5,,,41,0
198945,note_on,225,0,5,,,,,,,,4,,,41,0
198945,note_on,225,0,4,,,,,,,,3,,,60,0
198955,note_on,115,0,3,,,,,,,,2,,,60,0
198955,note_on,115,0,2,,,,,,,,1,,,65,0
198960,note_on,15,0,4,,,,,,,,3,,,60,49
198960,note_on,15,0,6,,,,,,,,5,,,41,34
198960,note_on,15,0,5,,,,,,,,4,,,41,34
198960,note_on,5,0,2,,,,,,,,1,,,65,34
198960,note_on,5,0,3,,,,,,,,2,,,60,34
199075,note_on,115,0,6,,,,,,,,5,,,41,0
199075,note_on,115,0,5,,,,,,,,4,,,41,0
199075,note_on,115,0,2,,,,,,,,1,,,65,0
199075,note_on,115,0,4,,,,,,,,3,,,60,0
199075,note_on,115,0,3,,,,,,,,2,,,60,0
199080,note_on,5,0,2,,,,,,,,1,,,69,49
199080,note_on,5,0,5,,,,,,,,4,,,41,34
199080,note_on,5,0,3,,,,,,,,2,,,65,34
199080,note_on,5,0,6,,,,,,,,5,,,41,34
199080,note_on,5,0,4,,,,,,,,3,,,60,49
199165,note_on,0,0,6,,,,,,,,5,,,65,0
199165,note_on,0,0,6,,,,,,,,5,,,69,0
199165,note_on,85,0,6,,,,,,,,5,,,60,0
199165,note_on,445,0,1,,,,,,,,0,,,65,0
199195,note_on,115,0,5,,,,,,,,4,,,41,0
199195,note_on,30,0,6,,,,,,,,5,,,41,0
199195,note_on,115,0,3,,,,,,,,2,,,65,0
199195,note_on,115,0,2,,,,,,,,1,,,69,0
199195,note_on,115,0,4,,,,,,,,3,,,60,0
199200,note_on,0,0,6,,,,,,,,5,,,65,64
199200,note_on,5,0,2,,,,,,,,1,,,69,49
199200,note_on,5,0,4,,,,,,,,3,,,60,49
199200,note_on,0,0,6,,,,,,,,5,,,60,64
199200,note_on,0,0,6,,,,,,,,5,,,41,34
199200,note_on,5,0,3,,,,,,,,2,,,65,49
199200,note_on,5,0,5,,,,,,,,4,,,41,34
199200,note_on,5,0,6,,,,,,,,5,,,69,85
199315,note_on,115,0,5,,,,,,,,4,,,41,0
199315,note_on,115,0,4,,,,,,,,3,,,60,0
199315,note_on,115,0,2,,,,,,,,1,,,69,0
199315,note_on,115,0,3,,,,,,,,2,,,65,0
199315,note_on,115,0,6,,,,,,,,5,,,41,0
199320,note_on,5,0,6,,,,,,,,5,,,41,49
199320,note_on,5,0,3,,,,,,,,2,,,69,49
199320,note_on,5,0,4,,,,,,,,3,,,60,49
199320,note_on,5,0,5,,,,,,,,4,,,41,49
199320,note_on,5,0,2,,,,,,,,1,,,72,49
199425,note_on,0,0,6,,,,,,,,5,,,60,0
199425,note_on,105,0,6,,,,,,,,5,,,69,0
199425,note_on,0,0,6,,,,,,,,5,,,65,0
199435,note_on,115,0,2,,,,,,,,1,,,72,0
199435,note_on,10,0,6,,,,,,,,5,,,41,0
199435,note_on,115,0,5,,,,,,,,4,,,41,0
199435,note_on,115,0,4,,,,,,,,3,,,60,0
199435,note_on,115,0,3,,,,,,,,2,,,69,0
199440,note_on,5,0,5,,,,,,,,4,,,41,49
199440,note_on,5,0,4,,,,,,,,3,,,60,49
199440,note_on,5,0,2,,,,,,,,1,,,72,49
199440,note_on,5,0,6,,,,,,,,5,,,72,85
199440,note_on,0,0,6,,,,,,,,5,,,69,64
199440,note_on,0,0,6,,,,,,,,5,,,65,64
199440,note_on,0,0,6,,,,,,,,5,,,41,49
199440,note_on,5,0,3,,,,,,,,2,,,69,49
199555,note_on,115,0,3,,,,,,,,2,,,69,0
199555,note_on,115,0,2,,,,,,,,1,,,72,0
199560,note_on,5,0,3,,,,,,,,2,,,65,49
199560,note_on,5,0,2,,,,,,,,1,,,69,49
199665,note_on,225,0,5,,,,,,,,4,,,41,0
199665,note_on,225,0,6,,,,,,,,5,,,41,0
199665,note_on,225,0,4,,,,,,,,3,,,60,0
199675,note_on,115,0,3,,,,,,,,2,,,65,0
199675,note_on,115,0,2,,,,,,,,1,,,69,0
199680,note_on,5,0,2,,,,,,,,1,,,69,49
199680,note_on,15,0,5,,,,,,,,4,,,41,49
199680,note_on,15,0,6,,,,,,,,5,,,41,49
199680,note_on,15,0,4,,,,,,,,3,,,60,49
199680,note_on,5,0,3,,,,,,,,2,,,65,49
199795,note_on,115,0,4,,,,,,,,3,,,60,0
199795,note_on,115,0,6,,,,,,,,5,,,41,0
199795,note_on,115,0,3,,,,,,,,2,,,65,0
199795,note_on,115,0,2,,,,,,,,1,,,69,0
199795,note_on,115,0,5,,,,,,,,4,,,41,0
199800,note_on,5,0,6,,,,,,,,5,,,41,49
199800,note_on,5,0,2,,,,,,,,1,,,72,49
199800,note_on,5,0,3,,,,,,,,2,,,69,49
199800,note_on,5,0,4,,,,,,,,3,,,60,49
199800,note_on,5,0,5,,,,,,,,4,,,41,49
199885,note_on,0,0,6,,,,,,,,5,,,72,0
199885,note_on,85,0,6,,,,,,,,5,,,65,0
199885,note_on,0,0,6,,,,,,,,5,,,69,0
199915,note_on,115,0,4,,,,,,,,3,,,60,0
199915,note_on,115,0,5,,,,,,,,4,,,41,0
199915,note_on,115,0,3,,,,,,,,2,,,69,0
199915,note_on,30,0,6,,,,,,,,5,,,41,0
199915,note_on,115,0,2,,,,,,,,1,,,72,0
199920,note_on,5,0,3,,,,,,,,2,,,69,49
199920,note_on,5,0,4,,,,,,,,3,,,60,49
199920,note_on,0,0,6,,,,,,,,5,,,69,64
199920,note_on,5,0,5,,,,,,,,4,,,41,49
199920,note_on,0,0,6,,,,,,,,5,,,41,49
199920,note_on,5,0,2,,,,,,,,1,,,72,49
199920,note_on,5,0,6,,,,,,,,5,,,72,85
199920,note_on,0,0,6,,,,,,,,5,,,65,64
200035,note_on,115,0,5,,,,,,,,4,,,41,0
200035,note_on,115,0,2,,,,,,,,1,,,72,0
200035,note_on,115,0,4,,,,,,,,3,,,60,0
200035,note_on,115,0,6,,,,,,,,5,,,41,0
200035,note_on,115,0,3,,,,,,,,2,,,69,0
200040,note_on,5,0,2,,,,,,,,1,,,77,49
200040,note_on,5,0,5,,,,,,,,4,,,41,49
200040,note_on,5,0,4,,,,,,,,3,,,60,49
200040,note_on,5,0,6,,,,,,,,5,,,41,49
200040,note_on,5,0,3,,,,,,,,2,,,72,49
200145,note_on,105,0,6,,,,,,,,5,,,72,0
200145,note_on,0,0,6,,,,,,,,5,,,65,0
200145,note_on,0,0,6,,,,,,,,5,,,69,0
200155,note_on,115,0,2,,,,,,,,1,,,77,0
200155,note_on,10,0,6,,,,,,,,5,,,41,0
200155,note_on,115,0,3,,,,,,,,2,,,72,0
200155,note_on,115,0,5,,,,,,,,4,,,41,0
200155,note_on,115,0,4,,,,,,,,3,,,60,0
200160,note_on,0,0,6,,,,,,,,5,,,69,64
200160,note_on,5,0,5,,,,,,,,4,,,41,49
200160,note_on,5,0,2,,,,,,,,1,,,77,49
200160,note_on,0,0,6,,,,,,,,5,,,41,49
200160,note_on,5,0,3,,,,,,,,2,,,72,49
200160,note_on,5,0,4,,,,,,,,3,,,57,49
200160,note_on,5,0,6,,,,,,,,5,,,77,85
200160,note_on,0,0,6,,,,,,,,5,,,72,64
200275,note_on,115,0,3,,,,,,,,2,,,72,0
200275,note_on,115,0,2,,,,,,,,1,,,77,0
200280,note_on,5,0,3,,,,,,,,2,,,69,49
200280,note_on,5,0,2,,,,,,,,1,,,72,64
200385,note_on,225,0,4,,,,,,,,3,,,57,0
200385,note_on,225,0,5,,,,,,,,4,,,41,0
200385,note_on,225,0,6,,,,,,,,5,,,41,0
200395,note_on,115,0,3,,,,,,,,2,,,69,0
200395,note_on,115,0,2,,,,,,,,1,,,72,0
200400,note_on,15,0,6,,,,,,,,5,,,41,49
200400,note_on,15,0,5,,,,,,,,4,,,41,49
200400,note_on,5,0,2,,,,,,,,1,,,72,64
200400,note_on,15,0,4,,,,,,,,3,,,57,49
200400,note_on,5,0,3,,,,,,,,2,,,69,64
200515,note_on,115,0,5,,,,,,,,4,,,41,0
200515,note_on,115,0,4,,,,,,,,3,,,57,0
200515,note_on,115,0,3,,,,,,,,2,,,69,0
200515,note_on,115,0,2,,,,,,,,1,,,72,0
200515,note_on,115,0,6,,,,,,,,5,,,41,0
200520,note_on,5,0,6,,,,,,,,5,,,41,64
200520,note_on,5,0,5,,,,,,,,4,,,41,64
200520,note_on,5,0,4,,,,,,,,3,,,57,49
200520,note_on,5,0,3,,,,,,,,2,,,72,64
200520,note_on,5,0,2,,,,,,,,1,,,77,64
200605,note_on,0,0,6,,,,,,,,5,,,72,0
200605,note_on,0,0,6,,,,,,,,5,,,77,0
200605,note_on,85,0,6,,,,,,,,5,,,69,0
200635,note_on,115,0,2,,,,,,,,1,,,77,0
200635,note_on,115,0,5,,,,,,,,4,,,41,0
200635,note_on,115,0,3,,,,,,,,2,,,72,0
200635,note_on,115,0,4,,,,,,,,3,,,57,0
200635,note_on,30,0,6,,,,,,,,5,,,41,0
200640,note_on,5,0,5,,,,,,,,4,,,41,64
200640,note_on,5,0,3,,,,,,,,2,,,72,64
200640,note_on,0,0,6,,,,,,,,5,,,72,64
200640,note_on,5,0,6,,,,,,,,5,,,77,85
200640,note_on,0,0,6,,,,,,,,5,,,41,64
200640,note_on,5,0,4,,,,,,,,3,,,57,64
200640,note_on,5,0,2,,,,,,,,1,,,77,64
200640,note_on,0,0,6,,,,,,,,5,,,69,64
200755,note_on,115,0,6,,,,,,,,5,,,41,0
200755,note_on,115,0,4,,,,,,,,3,,,57,0
200755,note_on,115,0,5,,,,,,,,4,,,41,0
200755,note_on,115,0,2,,,,,,,,1,,,77,0
200755,note_on,115,0,3,,,,,,,,2,,,72,0
200760,note_on,5,0,4,,,,,,,,3,,,57,64
200760,note_on,5,0,2,,,,,,,,1,,,81,64
200760,note_on,5,0,5,,,,,,,,4,,,41,64
200760,note_on,5,0,6,,,,,,,,5,,,41,64
200760,note_on,5,0,3,,,,,,,,2,,,77,64
200865,note_on,105,0,6,,,,,,,,5,,,77,0
200865,note_on,0,0,6,,,,,,,,5,,,69,0
200865,note_on,0,0,6,,,,,,,,5,,,72,0
200875,note_on,115,0,3,,,,,,,,2,,,77,0
200875,note_on,10,0,6,,,,,,,,5,,,41,0
200875,note_on,115,0,2,,,,,,,,1,,,81,0
200875,note_on,115,0,5,,,,,,,,4,,,41,0
200875,note_on,115,0,4,,,,,,,,3,,,57,0
200880,note_on,0,0,6,,,,,,,,5,,,77,64
200880,note_on,5,0,4,,,,,,,,3,,,60,64
200880,note_on,5,0,5,,,,,,,,4,,,41,64
200880,note_on,5,0,6,,,,,,,,5,,,81,85
200880,note_on,5,0,3,,,,,,,,2,,,77,64
200880,note_on,0,0,6,,,,,,,,5,,,41,64
200880,note_on,0,0,6,,,,,,,,5,,,72,64
200880,note_on,5,0,2,,,,,,,,1,,,81,64
200995,note_on,115,0,2,,,,,,,,1,,,81,0
200995,note_on,115,0,3,,,,,,,,2,,,77,0
201000,note_on,5,0,3,,,,,,,,2,,,72,64
201000,note_on,5,0,2,,,,,,,,1,,,77,64
201105,note_on,225,0,5,,,,,,,,4,,,41,0
201105,note_on,225,0,4,,,,,,,,3,,,60,0
201105,note_on,225,0,6,,,,,,,,5,,,41,0
201115,note_on,115,0,2,,,,,,,,1,,,77,0
201115,note_on,115,0,3,,,,,,,,2,,,72,0
201120,note_on,15,0,4,,,,,,,,3,,,60,64
201120,note_on,5,0,2,,,,,,,,1,,,77,64
201120,note_on,15,0,5,,,,,,,,4,,,41,64
201120,note_on,15,0,6,,,,,,,,5,,,41,64
201120,note_on,5,0,3,,,,,,,,2,,,72,64
201235,note_on,115,0,6,,,,,,,,5,,,41,0
201235,note_on,115,0,5,,,,,,,,4,,,41,0
201235,note_on,115,0,2,,,,,,,,1,,,77,0
201235,note_on,115,0,4,,,,,,,,3,,,60,0
201235,note_on,115,0,3,,,,,,,,2,,,72,0
201240,note_on,5,0,4,,,,,,,,3,,,60,64
201240,note_on,5,0,3,,,,,,,,2,,,77,64
201240,note_on,5,0,5,,,,,,,,4,,,41,64
201240,note_on,5,0,6,,,,,,,,5,,,41,64
201240,note_on,5,0,2,,,,,,,,1,,,81,64
201325,note_on,0,0,6,,,,,,,,5,,,81,0
201325,note_on,85,0,6,,,,,,,,5,,,72,0
201325,note_on,0,0,6,,,,,,,,5,,,77,0
201355,note_on,30,0,6,,,,,,,,5,,,41,0
201355,note_on,115,0,4,,,,,,,,3,,,60,0
201355,note_on,115,0,5,,,,,,,,4,,,41,0
201355,note_on,115,0,3,,,,,,,,2,,,77,0
201355,note_on,115,0,2,,,,,,,,1,,,81,0
201360,note_on,5,0,6,,,,,,,,5,,,81,85
201360,note_on,5,0,2,,,,,,,,1,,,81,64
201360,note_on,0,0,6,,,,,,,,5,,,77,64
201360,note_on,5,0,3,,,,,,,,2,,,77,85
201360,note_on,0,0,6,,,,,,,,5,,,41,85
201360,note_on,5,0,5,,,,,,,,4,,,41,85
201360,note_on,5,0,4,,,,,,,,3,,,60,64
201360,note_on,0,0,6,,,,,,,,5,,,72,64
201475,note_on,115,0,6,,,,,,,,5,,,41,0
201475,note_on,115,0,4,,,,,,,,3,,,60,0
201475,note_on,115,0,2,,,,,,,,1,,,81,0
201475,note_on,115,0,5,,,,,,,,4,,,41,0
201475,note_on,115,0,3,,,,,,,,2,,,77,0
201480,note_on,5,0,5,,,,,,,,4,,,41,85
201480,note_on,5,0,6,,,,,,,,5,,,41,85
201480,note_on,5,0,4,,,,,,,,3,,,60,64
201480,note_on,5,0,3,,,,,,,,2,,,81,85
201480,note_on,5,0,2,,,,,,,,1,,,84,85
201585,note_on,0,0,6,,,,,,,,5,,,77,0
201585,note_on,0,0,6,,,,,,,,5,,,72,0
201585,note_on,105,0,6,,,,,,,,5,,,81,0
201595,note_on,115,0,5,,,,,,,,4,,,41,0
201595,note_on,115,0,2,,,,,,,,1,,,84,0
201595,note_on,115,0,3,,,,,,,,2,,,81,0
201595,note_on,10,0,6,,,,,,,,5,,,41,0
201595,note_on,115,0,4,,,,,,,,3,,,60,0
201600,note_on,5,0,3,,,,,,,,2,,,81,85
201600,note_on,0,0,6,,,,,,,,5,,,72,64
201600,note_on,5,0,6,,,,,,,,5,,,77,85
201600,note_on,5,0,5,,,,,,,,4,,,41,106
201600,note_on,0,0,6,,,,,,,,5,,,41,106
201600,note_on,5,0,4,,,,,,,,3,,,57,85
201600,note_on,0,0,6,,,,,,,,5,,,69,64
201600,note_on,5,0,2,,,,,,,,1,,,84,106
201715,note_on,115,0,2,,,,,,,,1,,,84,0
201715,note_on,115,0,3,,,,,,,,2,,,81,0
201720,note_on,5,0,3,,,,,,,,2,,,77,106
201720,note_on,5,0,2,,,,,,,,1,,,81,106
201825,note_on,225,0,4,,,,,,,,3,,,57,0
201825,note_on,225,0,6,,,,,,,,5,,,41,0
201825,note_on,225,0,5,,,,,,,,4,,,41,0
201835,note_on,115,0,3,,,,,,,,2,,,77,0
201835,note_on,115,0,2,,,,,,,,1,,,81,0
201840,note_on,15,0,4,,,,,,,,3,,,57,106
201840,note_on,15,0,6,,,,,,,,5,,,41,106
201840,note_on,5,0,2,,,,,,,,1,,,81,106
201840,note_on,15,0,5,,,,,,,,4,,,41,106
201840,note_on,5,0,3,,,,,,,,2,,,77,106
201955,note_on,115,0,3,,,,,,,,2,,,77,0
201955,note_on,115,0,5,,,,,,,,4,,,41,0
201955,note_on,115,0,4,,,,,,,,3,,,57,0
201955,note_on,115,0,2,,,,,,,,1,,,81,0
201955,note_on,115,0,6,,,,,,,,5,,,41,0
201960,note_on,5,0,6,,,,,,,,5,,,41,106
201960,note_on,5,0,5,,,,,,,,4,,,41,106
201960,note_on,5,0,4,,,,,,,,3,,,57,106
201960,note_on,5,0,3,,,,,,,,2,,,72,106
201960,note_on,5,0,2,,,,,,,,1,,,77,106
202045,note_on,85,0,6,,,,,,,,5,,,69,0
202045,note_on,0,0,6,,,,,,,,5,,,77,0
202045,note_on,0,0,6,,,,,,,,5,,,72,0
202075,note_on,115,0,5,,,,,,,,4,,,41,0
202075,note_on,115,0,3,,,,,,,,2,,,72,0
202075,note_on,115,0,2,,,,,,,,1,,,77,0
202075,note_on,115,0,4,,,,,,,,3,,,57,0
202075,note_on,30,0,6,,,,,,,,5,,,41,0
202080,note_on,5,0,5,,,,,,,,4,,,41,106
202080,note_on,5,0,4,,,,,,,,3,,,57,106
202080,note_on,5,0,2,,,,,,,,1,,,77,106
202080,note_on,0,0,6,,,,,,,,5,,,72,64
202080,note_on,5,0,6,,,,,,,,5,,,77,85
202080,note_on,0,0,6,,,,,,,,5,,,69,64
202080,note_on,0,0,6,,,,,,,,5,,,41,106
202080,note_on,5,0,3,,,,,,,,2,,,72,106
202195,note_on,115,0,6,,,,,,,,5,,,41,0
202195,note_on,115,0,4,,,,,,,,3,,,57,0
202195,note_on,115,0,5,,,,,,,,4,,,41,0
202195,note_on,115,0,3,,,,,,,,2,,,72,0
202195,note_on,115,0,2,,,,,,,,1,,,77,0
202200,note_on,5,0,4,,,,,,,,3,,,57,106
202200,note_on,5,0,5,,,,,,,,4,,,41,106
202200,note_on,5,0,6,,,,,,,,5,,,41,106
202200,note_on,5,0,3,,,,,,,,2,,,69,106
202200,note_on,5,0,2,,,,,,,,1,,,72,106
202305,note_on,105,0,6,,,,,,,,5,,,77,0
202305,note_on,0,0,6,,,,,,,,5,,,69,0
202305,note_on,0,0,6,,,,,,,,5,,,72,0
202315,note_on,115,0,2,,,,,,,,1,,,72,0
202315,note_on,115,0,4,,,,,,,,3,,,57,0
202315,note_on,115,0,5,,,,,,,,4,,,41,0
202315,note_on,10,0,6,,,,,,,,5,,,41,0
202315,note_on,115,0,3,,,,,,,,2,,,69,0
202320,note_on,0,0,6,,,,,,,,5,,,65,64
202320,note_on,0,0,6,,,,,,,,5,,,69,64
202320,note_on,5,0,6,,,,,,,,5,,,72,85
202320,note_on,0,0,6,,,,,,,,5,,,41,106
202320,note_on,5,0,5,,,,,,,,4,,,41,106
202320,note_on,5,0,4,,,,,,,,3,,,57,106
202320,note_on,5,0,2,,,,,,,,1,,,72,85
202320,note_on,5,0,3,,,,,,,,2,,,69,106
202435,note_on,115,0,2,,,,,,,,1,,,72,0
202435,note_on,115,0,3,,,,,,,,2,,,69,0
202440,note_on,5,0,2,,,,,,,,1,,,77,85
202440,note_on,5,0,3,,,,,,,,2,,,72,106
202545,note_on,225,0,6,,,,,,,,5,,,41,0
202545,note_on,225,0,5,,,,,,,,4,,,41,0
202545,note_on,225,0,4,,,,,,,,3,,,57,0
202555,note_on,115,0,3,,,,,,,,2,,,72,0
202555,note_on,115,0,2,,,,,,,,1,,,77,0
202560,note_on,15,0,5,,,,,,,,4,,,41,85
202560,note_on,15,0,6,,,,,,,,5,,,41,85
202560,note_on,5,0,3,,,,,,,,2,,,72,85
202560,note_on,5,0,2,,,,,,,,1,,,77,85
202560,note_on,15,0,4,,,,,,,,3,,,57,106
202675,note_on,115,0,5,,,,,,,,4,,,41,0
202675,note_on,115,0,3,,,,,,,,2,,,72,0
202675,note_on,115,0,4,,,,,,,,3,,,57,0
202675,note_on,115,0,2,,,,,,,,1,,,77,0
202675,note_on,115,0,6,,,,,,,,5,,,41,0
202680,note_on,5,0,4,,,,,,,,3,,,57,85
202680,note_on,5,0,5,,,,,,,,4,,,41,85
202680,note_on,5,0,3,,,,,,,,2,,,69,85
202680,note_on,5,0,2,,,,,,,,1,,,72,85
202680,note_on,5,0,6,,,,,,,,5,,,41,85
202765,note_on,0,0,6,,,,,,,,5,,,69,0
202765,note_on,0,0,6,,,,,,,,5,,,72,0
202765,note_on,85,0,6,,,,,,,,5,,,65,0
202795,note_on,115,0,5,,,,,,,,4,,,41,0
202795,note_on,115,0,4,,,,,,,,3,,,57,0
202795,note_on,115,0,2,,,,,,,,1,,,72,0
202795,note_on,115,0,3,,,,,,,,2,,,69,0
202795,note_on,30,0,6,,,,,,,,5,,,41,0
202800,note_on,5,0,5,,,,,,,,4,,,41,85
202800,note_on,5,0,4,,,,,,,,3,,,57,85
202800,note_on,5,0,2,,,,,,,,1,,,72,85
202800,note_on,0,0,6,,,,,,,,5,,,41,85
202800,note_on,5,0,3,,,,,,,,2,,,69,85
202800,note_on,5,0,6,,,,,,,,5,,,72,85
202800,note_on,0,0,6,,,,,,,,5,,,69,64
202800,note_on,0,0,6,,,,,,,,5,,,65,64
202915,note_on,115,0,6,,,,,,,,5,,,41,0
202915,note_on,115,0,2,,,,,,,,1,,,72,0
202915,note_on,115,0,5,,,,,,,,4,,,41,0
202915,note_on,115,0,4,,,,,,,,3,,,57,0
202915,note_on,115,0,3,,,,,,,,2,,,69,0
202920,note_on,5,0,3,,,,,,,,2,,,65,85
202920,note_on,5,0,6,,,,,,,,5,,,41,85
202920,note_on,5,0,2,,,,,,,,1,,,69,85
202920,note_on,5,0,5,,,,,,,,4,,,41,85
202920,note_on,5,0,4,,,,,,,,3,,,57,85
203025,note_on,105,0,6,,,,,,,,5,,,72,0
203025,note_on,0,0,6,,,,,,,,5,,,65,0
203025,note_on,0,0,6,,,,,,,,5,,,69,0
203035,note_on,115,0,4,,,,,,,,3,,,57,0
203035,note_on,115,0,5,,,,,,,,4,,,41,0
203035,note_on,10,0,6,,,,,,,,5,,,41,0
203035,note_on,115,0,2,,,,,,,,1,,,69,0
203035,note_on,115,0,3,,,,,,,,2,,,65,0
203040,note_on,5,0,5,,,,,,,,4,,,41,85
203040,note_on,5,0,4,,,,,,,,3,,,60,85
203040,note_on,5,0,2,,,,,,,,1,,,69,85
203040,note_on,5,0,3,,,,,,,,2,,,65,85
203040,note_on,0,0,6,,,,,,,,5,,,60,64
203040,note_on,0,0,6,,,,,,,,5,,,65,64
203040,note_on,5,0,6,,,,,,,,5,,,69,85
203040,note_on,0,0,6,,,,,,,,5,,,41,85
203155,note_on,115,0,2,,,,,,,,1,,,69,0
203155,note_on,115,0,3,,,,,,,,2,,,65,0
203160,note_on,5,0,2,,,,,,,,1,,,72,85
203160,note_on,5,0,3,,,,,,,,2,,,69,85
203265,note_on,225,0,6,,,,,,,,5,,,41,0
203265,note_on,225,0,5,,,,,,,,4,,,41,0
203265,note_on,225,0,4,,,,,,,,3,,,60,0
203275,note_on,115,0,3,,,,,,,,2,,,69,0
203275,note_on,115,0,2,,,,,,,,1,,,72,0
203280,note_on,5,0,2,,,,,,,,1,,,72,85
203280,note_on,5,0,3,,,,,,,,2,,,69,85
203280,note_on,15,0,5,,,,,,,,4,,,41,85
203280,note_on,15,0,6,,,,,,,,5,,,41,85
203280,note_on,15,0,4,,,,,,,,3,,,60,85
203395,note_on,115,0,4,,,,,,,,3,,,60,0
203395,note_on,115,0,5,,,,,,,,4,,,41,0
203395,note_on,115,0,2,,,,,,,,1,,,72,0
203395,note_on,115,0,3,,,,,,,,2,,,69,0
203395,note_on,115,0,6,,,,,,,,5,,,41,0
203400,note_on,5,0,6,,,,,,,,5,,,41,85
203400,note_on,5,0,2,,,,,,,,1,,,69,85
203400,note_on,5,0,3,,,,,,,,2,,,65,85
203400,note_on,5,0,5,,,,,,,,4,,,41,85
203400,note_on,5,0,4,,,,,,,,3,,,60,85
203485,note_on,85,0,6,,,,,,,,5,,,60,0
203485,note_on,0,0,6,,,,,,,,5,,,69,0
203485,note_on,0,0,6,,,,,,,,5,,,65,0
203515,note_on,115,0,4,,,,,,,,3,,,60,0
203515,note_on,30,0,6,,,,,,,,5,,,41,0
203515,note_on,115,0,5,,,,,,,,4,,,41,0
203515,note_on,115,0,2,,,,,,,,1,,,69,0
203515,note_on,115,0,3,,,,,,,,2,,,65,0
203520,note_on,5,0,6,,,,,,,,5,,,41,85
203520,note_on,5,0,4,,,,,,,,3,,,60,85
203520,note_on,5,0,5,,,,,,,,4,,,41,85
203520,note_on,5,0,2,,,,,,,,1,,,69,85
203520,note_on,5,0,3,,,,,,,,2,,,65,85
203635,note_on,115,0,5,,,,,,,,4,,,41,0
203635,note_on,115,0,4,,,,,,,,3,,,60,0
203635,note_on,115,0,2,,,,,,,,1,,,69,0
203635,note_on,115,0,6,,,,,,,,5,,,41,0
203635,note_on,115,0,3,,,,,,,,2,,,65,0
203640,note_on,5,0,2,,,,,,,,1,,,65,85
203640,note_on,5,0,3,,,,,,,,2,,,60,85
203640,note_on,5,0,6,,,,,,,,5,,,41,85
203640,note_on,5,0,4,,,,,,,,3,,,60,85
203640,note_on,5,0,5,,,,,,,,4,,,41,85
203755,note_on,115,0,5,,,,,,,,4,,,41,0
203755,note_on,115,0,6,,,,,,,,5,,,41,0
203755,note_on,115,0,2,,,,,,,,1,,,65,0
203755,note_on,115,0,4,,,,,,,,3,,,60,0
203755,note_on,115,0,3,,,,,,,,2,,,60,0
203760,note_on,4595,0,1,,,,,,,,0,,,77,106
203760,note_on,5,0,4,,,,,,,,3,,,57,85
203760,note_on,5,0,2,,,,,,,,1,,,65,85
203760,note_on,5,0,5,,,,,,,,4,,,41,85
203760,note_on,5,0,3,,,,,,,,2,,,60,85
203760,note_on,0,0,6,,,,,,,,5,,,41,85
203760,note_on,0,0,6,,,,,,,,5,,,57,64
203760,note_on,0,0,6,,,,,,,,5,,,60,64
203760,note_on,5,0,6,,,,,,,,5,,,65,85
203875,note_on,115,0,1,,,,,,,,0,,,77,0
203880,note_on,5,0,1,,,,,,,,0,,,72,106
203995,note_on,115,0,1,,,,,,,,0,,,72,0
204000,note_on,5,0,1,,,,,,,,0,,,77,106
204115,note_on,115,0,1,,,,,,,,0,,,77,0
204120,note_on,5,0,1,,,,,,,,0,,,79,106
204205,note_on,445,0,5,,,,,,,,4,,,41,0
204205,note_on,445,0,3,,,,,,,,2,,,60,0
204205,note_on,445,0,2,,,,,,,,1,,,65,0
204205,note_on,0,0,6,,,,,,,,5,,,65,0
204205,note_on,445,0,6,,,,,,,,5,,,41,0
204205,note_on,0,0,6,,,,,,,,5,,,60,0
204205,note_on,0,0,6,,,,,,,,5,,,57,0
204205,note_on,445,0,4,,,,,,,,3,,,57,0
204235,note_on,115,0,1,,,,,,,,0,,,79,0
204240,note_on,5,0,1,,,,,,,,0,,,81,106
204355,note_on,115,0,1,,,,,,,,0,,,81,0
204360,note_on,5,0,1,,,,,,,,0,,,79,106
204475,note_on,115,0,1,,,,,,,,0,,,79,0
204480,note_on,5,0,1,,,,,,,,0,,,77,106
204595,note_on,115,0,1,,,,,,,,0,,,77,0
204600,note_on,5,0,1,,,,,,,,0,,,72,106
204715,note_on,115,0,1,,,,,,,,0,,,72,0
204720,note_on,5,0,1,,,,,,,,0,,,77,106
204835,note_on,115,0,1,,,,,,,,0,,,77,0
204840,note_on,5,0,1,,,,,,,,0,,,79,106
204955,note_on,115,0,1,,,,,,,,0,,,79,0
204960,note_on,5,0,1,,,,,,,,0,,,81,106
205075,note_on,115,0,1,,,,,,,,0,,,81,0
205080,note_on,5,0,1,,,,,,,,0,,,79,106
205195,note_on,115,0,1,,,,,,,,0,,,79,0
205200,note_on,5,0,1,,,,,,,,0,,,77,106
205315,note_on,115,0,1,,,,,,,,0,,,77,0
205320,note_on,5,0,1,,,,,,,,0,,,72,106
205435,note_on,115,0,1,,,,,,,,0,,,72,0
205440,note_on,5,0,1,,,,,,,,0,,,77,106
205555,note_on,115,0,1,,,,,,,,0,,,77,0
205560,note_on,5,0,1,,,,,,,,0,,,79,106
205675,note_on,115,0,1,,,,,,,,0,,,79,0
205680,note_on,5,0,1,,,,,,,,0,,,81,106
205795,note_on,115,0,1,,,,,,,,0,,,81,0
205800,note_on,5,0,1,,,,,,,,0,,,72,106
205915,note_on,115,0,1,,,,,,,,0,,,72,0
205920,note_on,1715,0,6,,,,,,,,5,,,77,85
205920,note_on,0,0,6,,,,,,,,5,,,58,49
205920,note_on,0,0,6,,,,,,,,5,,,74,64
205920,note_on,5,0,1,,,,,,,,0,,,74,106
205920,note_on,0,0,6,,,,,,,,5,,,70,64
205920,note_on,1715,0,2,,,,,,,,1,,,70,49
205920,note_on,1715,0,5,,,,,,,,4,,,58,49
205920,note_on,1715,0,3,,,,,,,,2,,,70,49
205920,note_on,1715,0,4,,,,,,,,3,,,70,49
206145,note_on,225,0,3,,,,,,,,2,,,70,0
206145,note_on,225,0,5,,,,,,,,4,,,58,0
206145,note_on,225,0,4,,,,,,,,3,,,70,0
206145,note_on,225,0,6,,,,,,,,5,,,58,0
206145,note_on,225,0,2,,,,,,,,1,,,70,0
206160,note_on,15,0,4,,,,,,,,3,,,65,49
206160,note_on,15,0,2,,,,,,,,1,,,65,49
206160,note_on,15,0,3,,,,,,,,2,,,65,49
206160,note_on,15,0,6,,,,,,,,5,,,53,49
206160,note_on,15,0,5,,,,,,,,4,,,53,49
206365,note_on,445,0,1,,,,,,,,0,,,74,0
206385,note_on,225,0,2,,,,,,,,1,,,65,0
206385,note_on,225,0,5,,,,,,,,4,,,53,0
206385,note_on,225,0,4,,,,,,,,3,,,65,0
206385,note_on,225,0,6,,,,,,,,5,,,53,0
206385,note_on,225,0,3,,,,,,,,2,,,65,0
206400,note_on,15,0,4,,,,,,,,3,,,62,49
206400,note_on,15,0,6,,,,,,,,5,,,50,49
206400,note_on,15,0,3,,,,,,,,2,,,62,49
206400,note_on,15,0,2,,,,,,,,1,,,62,49
206400,note_on,15,0,5,,,,,,,,4,,,50,49
206585,note_on,185,0,6,,,,,,,,5,,,70,0
206585,note_on,0,0,6,,,,,,,,5,,,74,0
206585,note_on,0,0,6,,,,,,,,5,,,77,0
206625,note_on,225,0,4,,,,,,,,3,,,62,0
206625,note_on,40,0,6,,,,,,,,5,,,50,0
206625,note_on,225,0,2,,,,,,,,1,,,62,0
206625,note_on,225,0,5,,,,,,,,4,,,50,0
206625,note_on,225,0,3,,,,,,,,2,,,62,0
206640,note_on,15,0,6,,,,,,,,5,,,79,85
206640,note_on,0,0,6,,,,,,,,5,,,74,64
206640,note_on,0,0,6,,,,,,,,5,,,67,64
206640,note_on,15,0,3,,,,,,,,2,,,59,49
206640,note_on,15,0,2,,,,,,,,1,,,59,49
206640,note_on,275,0,1,,,,,,,,0,,,79,106
206640,note_on,15,0,5,,,,,,,,4,,,47,49
206640,note_on,15,0,4,,,,,,,,3,,,59,49
206640,note_on,0,0,6,,,,,,,,5,,,47,49
206755,note_on,115,0,1,,,,,,,,0,,,79,0
206760,note_on,5,0,1,,,,,,,,0,,,74,106
206875,note_on,115,0,1,,,,,,,,0,,,74,0
206880,note_on,5,0,1,,,,,,,,0,,,79,106
206995,note_on,115,0,1,,,,,,,,0,,,79,0
207000,note_on,5,0,1,,,,,,,,0,,,81,106
207085,note_on,445,0,4,,,,,,,,3,,,59,0
207085,note_on,0,0,6,,,,,,,,5,,,67,0
207085,note_on,0,0,6,,,,,,,,5,,,74,0
207085,note_on,445,0,3,,,,,,,,2,,,59,0
207085,note_on,445,0,2,,,,,,,,1,,,59,0
207085,note_on,445,0,6,,,,,,,,5,,,47,0
207085,note_on,0,0,6,,,,,,,,5,,,79,0
207085,note_on,445,0,5,,,,,,,,4,,,47,0
207115,note_on,115,0,1,,,,,,,,0,,,81,0
207120,note_on,5,0,1,,,,,,,,0,,,83,106
207235,note_on,115,0,1,,,,,,,,0,,,83,0
207240,note_on,5,0,1,,,,,,,,0,,,81,106
207355,note_on,115,0,1,,,,,,,,0,,,81,0
207360,note_on,5,0,1,,,,,,,,0,,,79,106
207475,note_on,115,0,1,,,,,,,,0,,,79,0
207480,note_on,5,0,1,,,,,,,,0,,,74,106
207595,note_on,115,0,1,,,,,,,,0,,,74,0
207600,note_on,5,0,1,,,,,,,,0,,,79,106
207715,note_on,115,0,1,,,,,,,,0,,,79,0
207720,note_on,5,0,1,,,,,,,,0,,,81,106
207835,note_on,115,0,1,,,,,,,,0,,,81,0
207840,note_on,5,0,1,,,,,,,,0,,,83,106
207955,note_on,115,0,1,,,,,,,,0,,,83,0
207960,note_on,5,0,1,,,,,,,,0,,,81,106
208075,note_on,115,0,1,,,,,,,,0,,,81,0
208080,note_on,5,0,1,,,,,,,,0,,,79,106
208195,note_on,115,0,1,,,,,,,,0,,,79,0
208200,note_on,5,0,1,,,,,,,,0,,,74,106
208315,note_on,115,0,1,,,,,,,,0,,,74,0
208320,note_on,5,0,1,,,,,,,,0,,,79,106
208435,note_on,115,0,1,,,,,,,,0,,,79,0
208440,note_on,5,0,1,,,,,,,,0,,,81,106
208555,note_on,115,0,1,,,,,,,,0,,,81,0
208560,note_on,5,0,1,,,,,,,,0,,,83,106
208675,note_on,115,0,1,,,,,,,,0,,,83,0
208680,note_on,5,0,1,,,,,,,,0,,,74,106
208795,note_on,115,0,1,,,,,,,,0,,,74,0
208800,note_on,1715,0,4,,,,,,,,3,,,72,64
208800,note_on,1715,0,3,,,,,,,,2,,,72,64
208800,note_on,0,0,6,,,,,,,,5,,,72,64
208800,note_on,0,0,6,,,,,,,,5,,,76,64
208800,note_on,1715,0,5,,,,,,,,4,,,60,64
208800,note_on,1715,0,2,,,,,,,,1,,,72,64
208800,note_on,0,0,6,,,,,,,,5,,,60,64
208800,note_on,5,0,1,,,,,,,,0,,,76,106
208800,note_on,1715,0,6,,,,,,,,5,,,79,85
209025,note_on,225,0,3,,,,,,,,2,,,72,0
209025,note_on,225,0,6,,,,,,,,5,,,60,0
209025,note_on,225,0,4,,,,,,,,3,,,72,0
209025,note_on,225,0,5,,,,,,,,4,,,60,0
209025,note_on,225,0,2,,,,,,,,1,,,72,0
209040,note_on,15,0,3,,,,,,,,2,,,67,64
209040,note_on,15,0,6,,,,,,,,5,,,55,64
209040,note_on,15,0,4,,,,,,,,3,,,67,64
209040,note_on,15,0,5,,,,,,,,4,,,55,64
209040,note_on,15,0,2,,,,,,,,1,,,67,64
209245,note_on,445,0,1,,,,,,,,0,,,76,0
209265,note_on,225,0,6,,,,,,,,5,,,55,0
209265,note_on,225,0,4,,,,,,,,3,,,67,0
209265,note_on,225,0,5,,,,,,,,4,,,55,0
209265,note_on,225,0,2,,,,,,,,1,,,67,0
209265,note_on,225,0,3,,,,,,,,2,,,67,0
209280,note_on,15,0,3,,,,,,,,2,,,64,64
209280,note_on,15,0,5,,,,,,,,4,,,52,64
209280,note_on,15,0,2,,,,,,,,1,,,64,64
209280,note_on,15,0,6,,,,,,,,5,,,52,64
209280,note_on,15,0,4,,,,,,,,3,,,64,64
209465,note_on,185,0,6,,,,,,,,5,,,72,0
209465,note_on,0,0,6,,,,,,,,5,,,79,0
209465,note_on,0,0,6,,,,,,,,5,,,76,0
209505,note_on,225,0,5,,,,,,,,4,,,52,0
209505,note_on,225,0,2,,,,,,,,1,,,64,0
209505,note_on,40,0,6,,,,,,,,5,,,52,0
209505,note_on,225,0,4,,,,,,,,3,,,64,0
209505,note_on,225,0,3,,,,,,,,2,,,64,0
209520,note_on,0,0,6,,,,,,,,5,,,49,64
209520,note_on,15,0,2,,,,,,,,1,,,61,64
209520,note_on,15,0,5,,,,,,,,4,,,49,64
209520,note_on,15,0,3,,,,,,,,2,,,61,64
209520,note_on,15,0,4,,,,,,,,3,,,61,64
209520,note_on,15,0,6,,,,,,,,5,,,81,85
209520,note_on,0,0,6,,,,,,,,5,,,76,64
209520,note_on,0,0,6,,,,,,,,5,,,69,64
209520,note_on,275,0,1,,,,,,,,0,,,81,106
209635,note_on,115,0,1,,,,,,,,0,,,81,0
209640,note_on,5,0,1,,,,,,,,0,,,76,106
209755,note_on,115,0,1,,,,,,,,0,,,76,0
209760,note_on,5,0,1,,,,,,,,0,,,81,106
209875,note_on,115,0,1,,,,,,,,0,,,81,0
209880,note_on,5,0,1,,,,,,,,0,,,83,106
209965,note_on,445,0,5,,,,,,,,4,,,49,0
209965,note_on,445,0,2,,,,,,,,1,,,61,0
209965,note_on,445,0,4,,,,,,,,3,,,61,0
209965,note_on,445,0,3,,,,,,,,2,,,61,0
209965,note_on,445,0,6,,,,,,,,5,,,49,0
209965,note_on,0,0,6,,,,,,,,5,,,69,0
209965,note_on,0,0,6,,,,,,,,5,,,76,0
209965,note_on,0,0,6,,,,,,,,5,,,81,0
209995,note_on,115,0,1,,,,,,,,0,,,83,0
210000,note_on,5,0,1,,,,,,,,0,,,85,106
210115,note_on,115,0,1,,,,,,,,0,,,85,0
210120,note_on,5,0,1,,,,,,,,0,,,83,106
210235,note_on,115,0,1,,,,,,,,0,,,83,0
210240,note_on,5,0,1,,,,,,,,0,,,81,106
210355,note_on,115,0,1,,,,,,,,0,,,81,0
210360,note_on,5,0,1,,,,,,,,0,,,76,106
210475,note_on,115,0,1,,,,,,,,0,,,76,0
210480,note_on,5,0,1,,,,,,,,0,,,81,106
210595,note_on,115,0,1,,,,,,,,0,,,81,0
210600,note_on,5,0,1,,,,,,,,0,,,83,106
210715,note_on,115,0,1,,,,,,,,0,,,83,0
210720,note_on,5,0,1,,,,,,,,0,,,85,106
210835,note_on,115,0,1,,,,,,,,0,,,85,0
210840,note_on,5,0,1,,,,,,,,0,,,83,106
210955,note_on,115,0,1,,,,,,,,0,,,83,0
210960,note_on,5,0,1,,,,,,,,0,,,81,106
211075,note_on,115,0,1,,,,,,,,0,,,81,0
211080,note_on,5,0,1,,,,,,,,0,,,76,106
211195,note_on,115,0,1,,,,,,,,0,,,76,0
211200,note_on,5,0,1,,,,,,,,0,,,81,106
211315,note_on,115,0,1,,,,,,,,0,,,81,0
211320,note_on,5,0,1,,,,,,,,0,,,83,106
211435,note_on,115,0,1,,,,,,,,0,,,83,0
211440,note_on,5,0,1,,,,,,,,0,,,85,106
211555,note_on,115,0,1,,,,,,,,0,,,85,0
211560,note_on,5,0,1,,,,,,,,0,,,76,106
211675,note_on,115,0,1,,,,,,,,0,,,76,0
211680,note_on,1715,0,5,,,,,,,,4,,,62,85
211680,note_on,0,0,6,,,,,,,,5,,,62,64
211680,note_on,0,0,6,,,,,,,,5,,,69,64
211680,note_on,1715,0,3,,,,,,,,2,,,74,85
211680,note_on,1715,0,2,,,,,,,,1,,,74,85
211680,note_on,5,0,1,,,,,,,,0,,,77,106
211680,note_on,1715,0,6,,,,,,,,5,,,77,85
211680,note_on,1715,0,4,,,,,,,,3,,,74,85
211680,note_on,0,0,6,,,,,,,,5,,,74,64
211905,note_on,225,0,2,,,,,,,,1,,,74,0
211905,note_on,225,0,6,,,,,,,,5,,,62,0
211905,note_on,225,0,4,,,,,,,,3,,,74,0
211905,note_on,225,0,5,,,,,,,,4,,,62,0
211905,note_on,225,0,3,,,,,,,,2,,,74,0
211920,note_on,15,0,5,,,,,,,,4,,,57,85
211920,note_on,15,0,4,,,,,,,,3,,,69,85
211920,note_on,15,0,3,,,,,,,,2,,,69,85
211920,note_on,15,0,6,,,,,,,,5,,,57,64
211920,note_on,15,0,2,,,,,,,,1,,,69,85
212125,note_on,445,0,1,,,,,,,,0,,,77,0
212145,note_on,225,0,3,,,,,,,,2,,,69,0
212145,note_on,225,0,5,,,,,,,,4,,,57,0
212145,note_on,225,0,6,,,,,,,,5,,,57,0
212145,note_on,225,0,2,,,,,,,,1,,,69,0
212145,note_on,225,0,4,,,,,,,,3,,,69,0
212160,note_on,15,0,3,,,,,,,,2,,,65,85
212160,note_on,15,0,4,,,,,,,,3,,,65,85
212160,note_on,15,0,6,,,,,,,,5,,,53,64
212160,note_on,15,0,2,,,,,,,,1,,,65,85
212160,note_on,15,0,5,,,,,,,,4,,,53,85
212345,note_on,0,0,6,,,,,,,,5,,,77,0
212345,note_on,0,0,6,,,,,,,,5,,,74,0
212345,note_on,185,0,6,,,,,,,,5,,,69,0
212385,note_on,225,0,4,,,,,,,,3,,,65,0
212385,note_on,225,0,2,,,,,,,,1,,,65,0
212385,note_on,225,0,5,,,,,,,,4,,,53,0
212385,note_on,40,0,6,,,,,,,,5,,,53,0
212385,note_on,225,0,3,,,,,,,,2,,,65,0
212400,note_on,15,0,5,,,,,,,,4,,,50,85
212400,note_on,15,0,4,,,,,,,,3,,,62,85
212400,note_on,275,0,1,,,,,,,,0,,,86,106
212400,note_on,15,0,3,,,,,,,,2,,,62,85
212400,note_on,15,0,6,,,,,,,,5,,,77,85
212400,note_on,0,0,6,,,,,,,,5,,,74,64
212400,note_on,0,0,6,,,,,,,,5,,,50,64
212400,note_on,15,0,2,,,,,,,,1,,,62,85
212475,note_on,75,0,1,,,,,,,,0,,,86,0
212480,note_on,5,0,1,,,,,,,,0,,,84,106
212555,note_on,75,0,1,,,,,,,,0,,,84,0
212560,note_on,5,0,1,,,,,,,,0,,,86,106
212625,note_on,225,0,6,,,,,,,,5,,,50,0
212625,note_on,0,0,6,,,,,,,,5,,,74,0
212625,note_on,225,0,4,,,,,,,,3,,,62,0
212625,note_on,225,0,3,,,,,,,,2,,,62,0
212625,note_on,225,0,2,,,,,,,,1,,,62,0
212625,note_on,225,0,5,,,,,,,,4,,,50,0
212635,note_on,75,0,1,,,,,,,,0,,,86,0
212640,note_on,15,0,2,,,,,,,,1,,,69,34
212640,note_on,5,0,1,,,,,,,,0,,,84,106
212640,note_on,15,0,6,,,,,,,,5,,,72,64
212640,note_on,15,0,5,,,,,,,,4,,,57,34
212640,note_on,15,0,4,,,,,,,,3,,,69,34
212640,note_on,0,0,6,,,,,,,,5,,,57,64
212640,note_on,15,0,3,,,,,,,,2,,,69,34
212715,note_on,75,0,1,,,,,,,,0,,,84,0
212720,note_on,5,0,1,,,,,,,,0,,,82,106
212795,note_on,75,0,1,,,,,,,,0,,,82,0
212800,note_on,5,0,1,,,,,,,,0,,,84,106
212845,note_on,205,0,6,,,,,,,,5,,,77,0
212865,note_on,20,0,6,,,,,,,,5,,,57,0
212865,note_on,0,0,6,,,,,,,,5,,,72,0
212865,note_on,225,0,4,,,,,,,,3,,,69,0
212865,note_on,225,0,2,,,,,,,,1,,,69,0
212865,note_on,225,0,5,,,,,,,,4,,,57,0
212865,note_on,225,0,3,,,,,,,,2,,,69,0
212875,note_on,75,0,1,,,,,,,,0,,,84,0
212880,note_on,15,0,2,,,,,,,,1,,,67,34
212880,note_on,15,0,5,,,,,,,,4,,,55,34
212880,note_on,15,0,3,,,,,,,,2,,,67,34
212880,note_on,15,0,4,,,,,,,,3,,,67,34
212880,note_on,5,0,1,,,,,,,,0,,,82,106
212880,note_on,15,0,6,,,,,,,,5,,,79,85
212880,note_on,0,0,6,,,,,,,,5,,,70,64
212880,note_on,0,0,6,,,,,,,,5,,,55,64
212955,note_on,75,0,1,,,,,,,,0,,,82,0
212960,note_on,5,0,1,,,,,,,,0,,,81,106
213035,note_on,75,0,1,,,,,,,,0,,,81,0
213040,note_on,5,0,1,,,,,,,,0,,,82,106
213105,note_on,225,0,5,,,,,,,,4,,,55,0
213105,note_on,225,0,2,,,,,,,,1,,,67,0
213105,note_on,225,0,4,,,,,,,,3,,,67,0
213105,note_on,0,0,6,,,,,,,,5,,,79,0
213105,note_on,0,0,6,,,,,,,,5,,,70,0
213105,note_on,225,0,6,,,,,,,,5,,,55,0
213105,note_on,225,0,3,,,,,,,,2,,,67,0
213115,note_on,75,0,1,,,,,,,,0,,,82,0
213120,note_on,15,0,4,,,,,,,,3,,,65,34
213120,note_on,15,0,2,,,,,,,,1,,,65,34
213120,note_on,15,0,6,,,,,,,,5,,,81,85
213120,note_on,15,0,5,,,,,,,,4,,,53,34
213120,note_on,5,0,1,,,,,,,,0,,,81,106
213120,note_on,15,0,3,,,,,,,,2,,,65,34
213120,note_on,0,0,6,,,,,,,,5,,,72,64
213120,note_on,0,0,6,,,,,,,,5,,,53,64
213195,note_on,75,0,1,,,,,,,,0,,,81,0
213200,note_on,5,0,1,,,,,,,,0,,,79,106
213275,note_on,75,0,1,,,,,,,,0,,,79,0
213280,note_on,5,0,1,,,,,,,,0,,,81,106
213345,note_on,225,0,5,,,,,,,,4,,,53,0
213345,note_on,0,0,6,,,,,,,,5,,,81,0
213345,note_on,225,0,6,,,,,,,,5,,,53,0
213345,note_on,225,0,4,,,,,,,,3,,,65,0
213345,note_on,225,0,2,,,,,,,,1,,,65,0
213345,note_on,225,0,3,,,,,,,,2,,,65,0
213355,note_on,75,0,1,,,,,,,,0,,,81,0
213360,note_on,0,0,6,,,,,,,,5,,,52,64
213360,note_on,15,0,2,,,,,,,,1,,,64,34
213360,note_on,5,0,1,,,,,,,,0,,,79,106
213360,note_on,15,0,5,,,,,,,,4,,,52,34
213360,note_on,15,0,4,,,,,,,,3,,,64,34
213360,note_on,15,0,3,,,,,,,,2,,,64,34
213360,note_on,15,0,6,,,,,,,,5,,,79,85
213435,note_on,75,0,1,,,,,,,,0,,,79,0
213440,note_on,5,0,1,,,,,,,,0,,,77,106
213515,note_on,75,0,1,,,,,,,,0,,,77,0
213520,note_on,5,0,1,,,,,,,,0,,,79,106
213565,note_on,205,0,6,,,,,,,,5,,,72,0
213585,note_on,225,0,5,,,,,,,,4,,,52,0
213585,note_on,225,0,4,,,,,,,,3,,,64,0
213585,note_on,0,0,6,,,,,,,,5,,,79,0
213585,note_on,225,0,3,,,,,,,,2,,,64,0
213585,note_on,20,0,6,,,,,,,,5,,,52,0
213585,note_on,225,0,2,,,,,,,,1,,,64,0
213595,note_on,75,0,1,,,,,,,,0,,,79,0
213600,note_on,15,0,3,,,,,,,,2,,,62,34
213600,note_on,5,0,1,,,,,,,,0,,,77,106
213600,note_on,15,0,5,,,,,,,,4,,,50,34
213600,note_on,15,0,4,,,,,,,,3,,,62,34
213600,note_on,0,0,6,,,,,,,,5,,,74,64
213600,note_on,15,0,6,,,,,,,,5,,,77,85
213600,note_on,0,0,6,,,,,,,,5,,,50,64
213600,note_on,15,0,2,,,,,,,,1,,,62,34
213675,note_on,75,0,1,,,,,,,,0,,,77,0
213680,note_on,5,0,1,,,,,,,,0,,,76,106
213755,note_on,75,0,1,,,,,,,,0,,,76,0
213760,note_on,5,0,1,,,,,,,,0,,,77,106
213825,note_on,225,0,5,,,,,,,,4,,,50,0
213825,note_on,225,0,6,,,,,,,,5,,,50,0
213825,note_on,0,0,6,,,,,,,,5,,,77,0
213825,note_on,0,0,6,,,,,,,,5,,,74,0
213825,note_on,225,0,4,,,,,,,,3,,,62,0
213825,note_on,225,0,2,,,,,,,,1,,,62,0
213825,note_on,225,0,3,,,,,,,,2,,,62,0
213835,note_on,75,0,1,,,,,,,,0,,,77,0
213840,note_on,15,0,2,,,,,,,,1,,,61,34
213840,note_on,15,0,3,,,,,,,,2,,,61,34
213840,note_on,5,0,1,,,,,,,,0,,,76,106
213840,note_on,0,0,6,,,,,,,,5,,,49,64
213840,note_on,0,0,6,,,,,,,,5,,,76,64
213840,note_on,15,0,4,,,,,,,,3,,,61,34
213840,note_on,15,0,5,,,,,,,,4,,,49,34
213840,note_on,15,0,6,,,,,,,,5,,,79,85
213840,note_on,0,0,6,,,,,,,,5,,,69,64
213915,note_on,75,0,1,,,,,,,,0,,,76,0
213920,note_on,5,0,1,,,,,,,,0,,,74,106
213995,note_on,75,0,1,,,,,,,,0,,,74,0
214000,note_on,5,0,1,,,,,,,,0,,,76,106
214065,note_on,225,0,2,,,,,,,,1,,,61,0
214065,note_on,225,0,6,,,,,,,,5,,,49,0
214065,note_on,225,0,3,,,,,,,,2,,,61,0
214065,note_on,225,0,5,,,,,,,,4,,,49,0
214065,note_on,225,0,4,,,,,,,,3,,,61,0
214075,note_on,75,0,1,,,,,,,,0,,,76,0
214080,note_on,15,0,2,,,,,,,,1,,,59,34
214080,note_on,15,0,4,,,,,,,,3,,,59,34
214080,note_on,15,0,6,,,,,,,,5,,,47,64
214080,note_on,15,0,5,,,,,,,,4,,,47,34
214080,note_on,5,0,1,,,,,,,,0,,,74,106
214080,note_on,15,0,3,,,,,,,,2,,,59,34
214155,note_on,75,0,1,,,,,,,,0,,,74,0
214160,note_on,5,0,1,,,,,,,,0,,,73,106
214235,note_on,75,0,1,,,,,,,,0,,,73,0
214240,note_on,5,0,1,,,,,,,,0,,,74,106
214305,note_on,225,0,5,,,,,,,,4,,,47,0
214305,note_on,225,0,3,,,,,,,,2,,,59,0
214305,note_on,225,0,6,,,,,,,,5,,,47,0
214305,note_on,225,0,2,,,,,,,,1,,,59,0
214305,note_on,225,0,4,,,,,,,,3,,,59,0
214315,note_on,75,0,1,,,,,,,,0,,,74,0
214320,note_on,15,0,3,,,,,,,,2,,,57,34
214320,note_on,15,0,2,,,,,,,,1,,,57,34
214320,note_on,5,0,1,,,,,,,,0,,,73,106
214320,note_on,15,0,6,,,,,,,,5,,,45,64
214320,note_on,15,0,5,,,,,,,,4,,,45,34
214320,note_on,15,0,4,,,,,,,,3,,,57,34
214395,note_on,75,0,1,,,,,,,,0,,,73,0
214400,note_on,5,0,1,,,,,,,,0,,,71,106
214475,note_on,75,0,1,,,,,,,,0,,,71,0
214480,note_on,5,0,1,,,,,,,,0,,,73,106
214505,note_on,0,0,6,,,,,,,,5,,,76,0
214505,note_on,0,0,6,,,,,,,,5,,,79,0
214505,note_on,185,0,6,,,,,,,,5,,,69,0
214545,note_on,40,0,6,,,,,,,,5,,,45,0
214545,note_on,225,0,4,,,,,,,,3,,,57,0
214545,note_on,225,0,2,,,,,,,,1,,,57,0
214545,note_on,225,0,3,,,,,,,,2,,,57,0
214545,note_on,225,0,5,,,,,,,,4,,,45,0
214555,note_on,75,0,1,,,,,,,,0,,,73,0
214560,note_on,0,0,6,,,,,,,,5,,,69,64
214560,note_on,5,0,1,,,,,,,,0,,,74,106
214560,note_on,15,0,5,,,,,,,,4,,,50,34
214560,note_on,0,0,6,,,,,,,,5,,,50,64
214560,note_on,0,0,6,,,,,,,,5,,,74,64
214560,note_on,15,0,6,,,,,,,,5,,,77,85
214560,note_on,15,0,3,,,,,,,,2,,,62,34
214560,note_on,15,0,2,,,,,,,,1,,,62,34
214560,note_on,15,0,4,,,,,,,,3,,,62,34
214675,note_on,115,0,1,,,,,,,,0,,,74,0
214680,note_on,5,0,1,,,,,,,,0,,,76,106
214795,note_on,115,0,1,,,,,,,,0,,,76,0
214800,note_on,5,0,1,,,,,,,,0,,,77,106
214915,note_on,115,0,1,,,,,,,,0,,,77,0
214920,note_on,5,0,1,,,,,,,,0,,,79,106
215005,note_on,445,0,4,,,,,,,,3,,,62,0
215005,note_on,445,0,2,,,,,,,,1,,,62,0
215005,note_on,445,0,6,,,,,,,,5,,,50,0
215005,note_on,0,0,6,,,,,,,,5,,,77,0
215005,note_on,445,0,3,,,,,,,,2,,,62,0
215005,note_on,0,0,6,,,,,,,,5,,,69,0
215005,note_on,445,0,5,,,,,,,,4,,,50,0
215005,note_on,0,0,6,,,,,,,,5,,,74,0
215035,note_on,115,0,1,,,,,,,,0,,,79,0
215040,note_on,5,0,1,,,,,,,,0,,,81,106
215265,note_on,225,0,1,,,,,,,,0,,,81,0
215280,note_on,0,0,6,,,,,,,,5,,,69,64
215280,note_on,275,0,3,,,,,,,,2,,,62,34
215280,note_on,0,0,6,,,,,,,,5,,,65,64
215280,note_on,0,0,6,,,,,,,,5,,,50,64
215280,note_on,275,0,5,,,,,,,,4,,,50,34
215280,note_on,275,0,6,,,,,,,,5,,,74,85
215280,note_on,275,0,4,,,,,,,,3,,,62,34
215280,note_on,15,0,1,,,,,,,,0,,,86,106
215280,note_on,275,0,2,,,,,,,,1,,,62,34
215505,note_on,225,0,2,,,,,,,,1,,,62,0
215505,note_on,225,0,3,,,,,,,,2,,,62,0
215505,note_on,225,0,6,,,,,,,,5,,,50,0
215505,note_on,0,0,6,,,,,,,,5,,,65,0
215505,note_on,225,0,4,,,,,,,,3,,,62,0
215505,note_on,225,0,1,,,,,,,,0,,,86,0
215505,note_on,225,0,5,,,,,,,,4,,,50,0
215520,note_on,0,0,6,,,,,,,,5,,,57,64
215520,note_on,15,0,5,,,,,,,,4,,,57,34
215520,note_on,15,0,4,,,,,,,,3,,,69,34
215520,note_on,15,0,3,,,,,,,,2,,,69,34
215520,note_on,15,0,1,,,,,,,,0,,,77,106
215520,note_on,15,0,2,,,,,,,,1,,,69,34
215520,note_on,15,0,6,,,,,,,,5,,,64,64
215725,note_on,205,0,6,,,,,,,,5,,,69,0
215725,note_on,0,0,6,,,,,,,,5,,,74,0
215745,note_on,20,0,6,,,,,,,,5,,,64,0
215745,note_on,0,0,6,,,,,,,,5,,,57,0
215745,note_on,225,0,3,,,,,,,,2,,,69,0
215745,note_on,225,0,1,,,,,,,,0,,,77,0
215745,note_on,225,0,4,,,,,,,,3,,,69,0
215745,note_on,225,0,2,,,,,,,,1,,,69,0
215745,note_on,225,0,5,,,,,,,,4,,,57,0
215760,note_on,0,0,6,,,,,,,,5,,,45,64
215760,note_on,15,0,4,,,,,,,,3,,,57,34
215760,note_on,15,0,5,,,,,,,,4,,,45,34
215760,note_on,0,0,6,,,,,,,,5,,,69,64
215760,note_on,15,0,2,,,,,,,,1,,,57,34
215760,note_on,15,0,1,,,,,,,,0,,,76,106
215760,note_on,15,0,6,,,,,,,,5,,,73,85
215760,note_on,15,0,3,,,,,,,,2,,,57,34
215760,note_on,0,0,6,,,,,,,,5,,,64,64
215985,note_on,225,0,4,,,,,,,,3,,,57,0
215985,note_on,0,0,6,,,,,,,,5,,,64,0
215985,note_on,0,0,6,,,,,,,,5,,,69,0
215985,note_on,0,0,6,,,,,,,,5,,,73,0
215985,note_on,225,0,6,,,,,,,,5,,,45,0
215985,note_on,225,0,5,,,,,,,,4,,,45,0
215985,note_on,225,0,2,,,,,,,,1,,,57,0
215985,note_on,225,0,3,,,,,,,,2,,,57,0
215985,note_on,225,0,1,,,,,,,,0,,,76,0
216000,note_on,15,0,6,,,,,,,,5,,,74,85
216000,note_on,0,0,6,,,,,,,,5,,,69,64
216000,note_on,0,0,6,,,,,,,,5,,,62,64
216000,note_on,15,0,4,,,,,,,,3,,,65,85
216000,note_on,0,0,6,,,,,,,,5,,,53,64
216000,note_on,15,0,5,,,,,,,,4,,,53,85
216000,note_on,15,0,2,,,,,,,,1,,,74,85
216000,note_on,15,0,3,,,,,,,,2,,,77,85
216000,note_on,15,0,1,,,,,,,,0,,,74,85
216115,note_on,115,0,3,,,,,,,,2,,,77,0
216120,note_on,5,0,3,,,,,,,,2,,,77,85
216225,note_on,225,0,2,,,,,,,,1,,,74,0
216225,note_on,225,0,4,,,,,,,,3,,,65,0
216225,note_on,225,0,1,,,,,,,,0,,,74,0
216235,note_on,115,0,3,,,,,,,,2,,,77,0
216240,note_on,15,0,4,,,,,,,,3,,,65,85
216240,note_on,5,0,3,,,,,,,,2,,,77,85
216240,note_on,15,0,2,,,,,,,,1,,,86,85
216240,note_on,15,0,1,,,,,,,,0,,,86,85
216355,note_on,115,0,3,,,,,,,,2,,,77,0
216360,note_on,5,0,3,,,,,,,,2,,,77,85
216445,note_on,445,0,5,,,,,,,,4,,,53,0
216445,note_on,445,0,6,,,,,,,,5,,,53,0
216445,note_on,0,0,6,,,,,,,,5,,,74,0
216445,note_on,0,0,6,,,,,,,,5,,,69,0
216445,note_on,0,0,6,,,,,,,,5,,,62,0
216465,note_on,225,0,2,,,,,,,,1,,,86,0
216465,note_on,225,0,1,,,,,,,,0,,,86,0
216465,note_on,225,0,4,,,,,,,,3,,,65,0
216475,note_on,115,0,3,,,,,,,,2,,,77,0
216480,note_on,15,0,4,,,,,,,,3,,,65,85
216480,note_on,35,0,6,,,,,,,,5,,,74,85
216480,note_on,35,0,5,,,,,,,,4,,,53,85
216480,note_on,0,0,6,,,,,,,,5,,,69,64
216480,note_on,0,0,6,,,,,,,,5,,,53,64
216480,note_on,15,0,1,,,,,,,,0,,,77,85
216480,note_on,5,0,3,,,,,,,,2,,,77,85
216480,note_on,0,0,6,,,,,,,,5,,,62,64
216480,note_on,15,0,2,,,,,,,,1,,,77,85
216595,note_on,115,0,3,,,,,,,,2,,,77,0
216600,note_on,5,0,3,,,,,,,,2,,,77,85
216705,note_on,225,0,2,,,,,,,,1,,,77,0
216705,note_on,225,0,6,,,,,,,,5,,,53,0
216705,note_on,225,0,1,,,,,,,,0,,,77,0
216705,note_on,0,0,6,,,,,,,,5,,,74,0
216705,note_on,225,0,4,,,,,,,,3,,,65,0
216705,note_on,0,0,6,,,,,,,,5,,,62,0
216705,note_on,225,0,5,,,,,,,,4,,,53,0
216705,note_on,0,0,6,,,,,,,,5,,,69,0
216715,note_on,115,0,3,,,,,,,,2,,,77,0
216720,note_on,15,0,2,,,,,,,,1,,,76,85
216720,note_on,15,0,4,,,,,,,,3,,,64,85
216720,note_on,15,0,5,,,,,,,,4,,,52,85
216720,note_on,5,0,3,,,,,,,,2,,,76,85
216720,note_on,15,0,1,,,,,,,,0,,,76,85
216720,note_on,0,0,6,,,,,,,,5,,,67,64
216720,note_on,0,0,6,,,,,,,,5,,,52,64
216720,note_on,15,0,6,,,,,,,,5,,,72,85
216835,note_on,115,0,3,,,,,,,,2,,,76,0
216840,note_on,5,0,3,,,,,,,,2,,,76,85
216945,note_on,225,0,4,,,,,,,,3,,,64,0
216945,note_on,225,0,1,,,,,,,,0,,,76,0
216945,note_on,225,0,2,,,,,,,,1,,,76,0
216955,note_on,115,0,3,,,,,,,,2,,,76,0
216960,note_on,15,0,4,,,,,,,,3,,,64,85
216960,note_on,15,0,1,,,,,,,,0,,,84,85
216960,note_on,5,0,3,,,,,,,,2,,,76,85
216960,note_on,15,0,2,,,,,,,,1,,,84,85
217075,note_on,115,0,3,,,,,,,,2,,,76,0
217080,note_on,5,0,3,,,,,,,,2,,,76,85
217165,note_on,0,0,6,,,,,,,,5,,,67,0
217165,note_on,0,0,6,,,,,,,,5,,,72,0
217165,note_on,445,0,5,,,,,,,,4,,,52,0
217165,note_on,445,0,6,,,,,,,,5,,,52,0
217185,note_on,225,0,4,,,,,,,,3,,,64,0
217185,note_on,225,0,2,,,,,,,,1,,,84,0
217185,note_on,225,0,1,,,,,,,,0,,,84,0
217195,note_on,115,0,3,,,,,,,,2,,,76,0
217200,note_on,5,0,3,,,,,,,,2,,,76,85
217200,note_on,15,0,4,,,,,,,,3,,,64,85
217200,note_on,15,0,2,,,,,,,,1,,,76,85
217200,note_on,0,0,6,,,,,,,,5,,,52,64
217200,note_on,35,0,5,,,,,,,,4,,,52,85
217200,note_on,0,0,6,,,,,,,,5,,,67,64
217200,note_on,35,0,6,,,,,,,,5,,,72,85
217200,note_on,15,0,1,,,,,,,,0,,,76,85
217315,note_on,115,0,3,,,,,,,,2,,,76,0
217320,note_on,5,0,3,,,,,,,,2,,,76,85
217425,note_on,225,0,4,,,,,,,,3,,,64,0
217425,note_on,225,0,6,,,,,,,,5,,,52,0
217425,note_on,225,0,1,,,,,,,,0,,,76,0
217425,note_on,0,0,6,,,,,,,,5,,,67,0
217425,note_on,0,0,6,,,,,,,,5,,,72,0
217425,note_on,225,0,5,,,,,,,,4,,,52,0
217425,note_on,225,0,2,,,,,,,,1,,,76,0
217435,note_on,115,0,3,,,,,,,,2,,,76,0
217440,note_on,0,0,6,,,,,,,,5,,,50,64
217440,note_on,15,0,5,,,,,,,,4,,,50,85
217440,note_on,15,0,6,,,,,,,,5,,,70,85
217440,note_on,0,0,6,,,,,,,,5,,,65,64
217440,note_on,15,0,1,,,,,,,,0,,,74,85
217440,note_on,15,0,2,,,,,,,,1,,,74,85
217440,note_on,15,0,4,,,,,,,,3,,,62,85
217440,note_on,5,0,3,,,,,,,,2,,,74,85
217555,note_on,115,0,3,,,,,,,,2,,,74,0
217560,note_on,5,0,3,,,,,,,,2,,,74,85
217665,note_on,225,0,2,,,,,,,,1,,,74,0
217665,note_on,225,0,1,,,,,,,,0,,,74,0
217665,note_on,225,0,4,,,,,,,,3,,,62,0
217675,note_on,115,0,3,,,,,,,,2,,,74,0
217680,note_on,15,0,4,,,,,,,,3,,,62,85
217680,note_on,5,0,3,,,,,,,,2,,,74,85
217680,note_on,15,0,1,,,,,,,,0,,,82,85
217680,note_on,15,0,2,,,,,,,,1,,,82,85
217795,note_on,115,0,3,,,,,,,,2,,,74,0
217800,note_on,5,0,3,,,,,,,,2,,,74,85
217885,note_on,0,0,6,,,,,,,,5,,,65,0
217885,note_on,0,0,6,,,,,,,,5,,,70,0
217885,note_on,445,0,5,,,,,,,,4,,,50,0
217885,note_on,445,0,6,,,,,,,,5,,,50,0
217905,note_on,225,0,2,,,,,,,,1,,,82,0
217905,note_on,225,0,4,,,,,,,,3,,,62,0
217905,note_on,225,0,1,,,,,,,,0,,,82,0
217915,note_on,115,0,3,,,,,,,,2,,,74,0
217920,note_on,0,0,6,,,,,,,,5,,,50,64
217920,note_on,0,0,6,,,,,,,,5,,,65,64
217920,note_on,35,0,5,,,,,,,,4,,,50,85
217920,note_on,15,0,2,,,,,,,,1,,,74,85
217920,note_on,5,0,3,,,,,,,,2,,,74,85
217920,note_on,15,0,4,,,,,,,,3,,,62,85
217920,note_on,15,0,1,,,,,,,,0,,,74,85
217920,note_on,35,0,6,,,,,,,,5,,,70,85
218035,note_on,115,0,3,,,,,,,,2,,,74,0
218040,note_on,5,0,3,,,,,,,,2,,,74,85
218145,note_on,225,0,5,,,,,,,,4,,,50,0
218145,note_on,225,0,4,,,,,,,,3,,,62,0
218145,note_on,0,0,6,,,,,,,,5,,,70,0
218145,note_on,0,0,6,,,,,,,,5,,,65,0
218145,note_on,225,0,6,,,,,,,,5,,,50,0
218145,note_on,225,0,2,,,,,,,,1,,,74,0
218145,note_on,225,0,1,,,,,,,,0,,,74,0
218155,note_on,115,0,3,,,,,,,,2,,,74,0
218160,note_on,15,0,2,,,,,,,,1,,,73,85
218160,note_on,5,0,3,,,,,,,,2,,,73,85
218160,note_on,15,0,4,,,,,,,,3,,,61,85
218160,note_on,15,0,1,,,,,,,,0,,,73,85
218160,note_on,15,0,6,,,,,,,,5,,,69,85
218160,note_on,0,0,6,,,,,,,,5,,,64,64
218160,note_on,15,0,5,,,,,,,,4,,,49,85
218160,note_on,0,0,6,,,,,,,,5,,,49,64
218275,note_on,115,0,3,,,,,,,,2,,,73,0
218280,note_on,5,0,3,,,,,,,,2,,,73,85
218385,note_on,225,0,4,,,,,,,,3,,,61,0
218385,note_on,225,0,2,,,,,,,,1,,,73,0
218385,note_on,225,0,1,,,,,,,,0,,,73,0
218395,note_on,115,0,3,,,,,,,,2,,,73,0
218400,note_on,15,0,2,,,,,,,,1,,,81,85
218400,note_on,15,0,4,,,,,,,,3,,,61,85
218400,note_on,15,0,1,,,,,,,,0,,,81,85
218400,note_on,5,0,3,,,,,,,,2,,,73,85
218515,note_on,115,0,3,,,,,,,,2,,,73,0
218520,note_on,5,0,3,,,,,,,,2,,,73,85
218605,note_on,0,0,6,,,,,,,,5,,,69,0
218605,note_on,0,0,6,,,,,,,,5,,,64,0
218605,note_on,445,0,5,,,,,,,,4,,,49,0
218605,note_on,445,0,6,,,,,,,,5,,,49,0
218625,note_on,225,0,2,,,,,,,,1,,,81,0
218625,note_on,225,0,4,,,,,,,,3,,,61,0
218625,note_on,225,0,1,,,,,,,,0,,,81,0
218635,note_on,115,0,3,,,,,,,,2,,,73,0
218640,note_on,0,0,6,,,,,,,,5,,,64,64
218640,note_on,0,0,6,,,,,,,,5,,,48,64
218640,note_on,15,0,4,,,,,,,,3,,,60,85
218640,note_on,35,0,5,,,,,,,,4,,,48,85
218640,note_on,15,0,2,,,,,,,,1,,,72,85
218640,note_on,35,0,6,,,,,,,,5,,,69,85
218640,note_on,5,0,3,,,,,,,,2,,,72,85
218640,note_on,15,0,1,,,,,,,,0,,,72,85
218755,note_on,115,0,3,,,,,,,,2,,,72,0
218760,note_on,5,0,3,,,,,,,,2,,,72,85
218865,note_on,225,0,4,,,,,,,,3,,,60,0
218865,note_on,225,0,2,,,,,,,,1,,,72,0
218865,note_on,225,0,6,,,,,,,,5,,,48,0
218865,note_on,225,0,1,,,,,,,,0,,,72,0
218865,note_on,0,0,6,,,,,,,,5,,,64,0
218865,note_on,0,0,6,,,,,,,,5,,,69,0
218865,note_on,225,0,5,,,,,,,,4,,,48,0
218875,note_on,115,0,3,,,,,,,,2,,,72,0
218880,note_on,15,0,5,,,,,,,,4,,,47,85
218880,note_on,0,0,6,,,,,,,,5,,,47,64
218880,note_on,15,0,1,,,,,,,,0,,,71,85
218880,note_on,0,0,6,,,,,,,,5,,,62,64
218880,note_on,15,0,2,,,,,,,,1,,,71,85
218880,note_on,5,0,3,,,,,,,,2,,,71,85
218880,note_on,15,0,4,,,,,,,,3,,,59,85
218880,note_on,15,0,6,,,,,,,,5,,,67,85
218995,note_on,115,0,3,,,,,,,,2,,,71,0
219000,note_on,5,0,3,,,,,,,,2,,,71,85
219105,note_on,225,0,1,,,,,,,,0,,,71,0
219105,note_on,225,0,2,,,,,,,,1,,,71,0
219105,note_on,225,0,4,,,,,,,,3,,,59,0
219115,note_on,115,0,3,,,,,,,,2,,,71,0
219120,note_on,5,0,3,,,,,,,,2,,,71,85
219120,note_on,15,0,2,,,,,,,,1,,,79,85
219120,note_on,15,0,1,,,,,,,,0,,,79,85
219120,note_on,15,0,4,,,,,,,,3,,,59,85
219235,note_on,115,0,3,,,,,,,,2,,,71,0
219240,note_on,5,0,3,,,,,,,,2,,,71,85
219325,note_on,0,0,6,,,,,,,,5,,,67,0
219325,note_on,445,0,6,,,,,,,,5,,,47,0
219325,note_on,0,0,6,,,,,,,,5,,,62,0
219325,note_on,445,0,5,,,,,,,,4,,,47,0
219345,note_on,225,0,1,,,,,,,,0,,,79,0
219345,note_on,225,0,4,,,,,,,,3,,,59,0
219345,note_on,225,0,2,,,,,,,,1,,,79,0
219355,note_on,115,0,3,,,,,,,,2,,,71,0
219360,note_on,0,0,6,,,,,,,,5,,,46,64
219360,note_on,35,0,5,,,,,,,,4,,,46,85
219360,note_on,5,0,3,,,,,,,,2,,,70,85
219360,note_on,35,0,6,,,,,,,,5,,,67,85
219360,note_on,15,0,2,,,,,,,,1,,,70,85
219360,note_on,15,0,4,,,,,,,,3,,,58,85
219360,note_on,15,0,1,,,,,,,,0,,,70,85
219360,note_on,0,0,6,,,,,,,,5,,,62,64
219475,note_on,115,0,3,,,,,,,,2,,,70,0
219480,note_on,5,0,3,,,,,,,,2,,,70,85
219585,note_on,225,0,2,,,,,,,,1,,,70,0
219585,note_on,225,0,4,,,,,,,,3,,,58,0
219585,note_on,225,0,1,,,,,,,,0,,,70,0
219585,note_on,225,0,6,,,,,,,,5,,,46,0
219585,note_on,0,0,6,,,,,,,,5,,,62,0
219585,note_on,0,0,6,,,,,,,,5,,,67,0
219585,note_on,225,0,5,,,,,,,,4,,,46,0
219595,note_on,115,0,3,,,,,,,,2,,,70,0
219600,note_on,0,0,6,,,,,,,,5,,,61,64
219600,note_on,15,0,1,,,,,,,,0,,,69,85
219600,note_on,15,0,2,,,,,,,,1,,,69,85
219600,note_on,15,0,6,,,,,,,,5,,,69,85
219600,note_on,0,0,6,,,,,,,,5,,,69,64
219600,note_on,15,0,4,,,,,,,,3,,,57,85
219600,note_on,5,0,3,,,,,,,,2,,,69,85
219600,note_on,0,0,6,,,,,,,,5,,,45,64
219600,note_on,15,0,5,,,,,,,,4,,,45,85
219715,note_on,115,0,3,,,,,,,,2,,,69,0
219720,note_on,5,0,3,,,,,,,,2,,,69,85
219825,note_on,225,0,4,,,,,,,,3,,,57,0
219825,note_on,225,0,6,,,,,,,,5,,,45,0
219825,note_on,225,0,2,,,,,,,,1,,,69,0
219825,note_on,225,0,1,,,,,,,,0,,,69,0
219825,note_on,225,0,5,,,,,,,,4,,,45,0
219835,note_on,115,0,3,,,,,,,,2,,,69,0
219840,note_on,15,0,2,,,,,,,,1,,,73,85
219840,note_on,5,0,3,,,,,,,,2,,,69,85
219840,note_on,15,0,6,,,,,,,,5,,,57,64
219840,note_on,15,0,5,,,,,,,,4,,,57,85
219840,note_on,15,0,4,,,,,,,,3,,,69,85
219840,note_on,15,0,1,,,,,,,,0,,,73,85
219955,note_on,115,0,3,,,,,,,,2,,,69,0
219960,note_on,5,0,3,,,,,,,,2,,,69,85
220045,note_on,0,0,6,,,,,,,,5,,,69,0
220045,note_on,0,0,6,,,,,,,,5,,,61,0
220045,note_on,205,0,6,,,,,,,,5,,,69,0
220065,note_on,225,0,1,,,,,,,,0,,,73,0
220065,note_on,225,0,2,,,,,,,,1,,,73,0
220065,note_on,20,0,6,,,,,,,,5,,,57,0
220065,note_on,225,0,5,,,,,,,,4,,,57,0
220065,note_on,225,0,4,,,,,,,,3,,,69,0
220075,note_on,115,0,3,,,,,,,,2,,,69,0
220080,note_on,0,0,6,,,,,,,,5,,,55,64
220080,note_on,0,0,6,,,,,,,,5,,,64,64
220080,note_on,5,0,3,,,,,,,,2,,,67,85
220080,note_on,15,0,6,,,,,,,,5,,,73,85
220080,note_on,15,0,1,,,,,,,,0,,,76,85
220080,note_on,15,0,4,,,,,,,,3,,,67,85
220080,note_on,0,0,6,,,,,,,,5,,,69,64
220080,note_on,15,0,5,,,,,,,,4,,,55,85
220080,note_on,15,0,2,,,,,,,,1,,,76,85
220195,note_on,115,0,3,,,,,,,,2,,,67,0
220200,note_on,5,0,3,,,,,,,,2,,,67,85
220305,note_on,225,0,5,,,,,,,,4,,,55,0
220305,note_on,225,0,6,,,,,,,,5,,,55,0
220305,note_on,0,0,6,,,,,,,,5,,,73,0
220305,note_on,0,0,6,,,,,,,,5,,,69,0
220305,note_on,0,0,6,,,,,,,,5,,,64,0
220305,note_on,225,0,2,,,,,,,,1,,,76,0
220305,note_on,225,0,4,,,,,,,,3,,,67,0
220305,note_on,225,0,1,,,,,,,,0,,,76,0
220315,note_on,115,0,3,,,,,,,,2,,,67,0
220320,note_on,5,0,3,,,,,,,,2,,,65,85
220320,note_on,15,0,4,,,,,,,,3,,,65,85
220320,note_on,0,0,6,,,,,,,,5,,,53,64
220320,note_on,0,0,6,,,,,,,,5,,,62,64
220320,note_on,0,0,6,,,,,,,,5,,,69,64
220320,note_on,15,0,6,,,,,,,,5,,,74,85
220320,note_on,15,0,5,,,,,,,,4,,,53,85
220320,note_on,15,0,1,,,,,,,,0,,,77,85
220320,note_on,15,0,2,,,,,,,,1,,,77,85
220435,note_on,115,0,3,,,,,,,,2,,,65,0
220440,note_on,5,0,3,,,,,,,,2,,,65,85
220545,note_on,225,0,1,,,,,,,,0,,,77,0
220545,note_on,225,0,5,,,,,,,,4,,,53,0
220545,note_on,225,0,4,,,,,,,,3,,,65,0
220545,note_on,225,0,2,,,,,,,,1,,,77,0
220545,note_on,225,0,6,,,,,,,,5,,,53,0
220555,note_on,115,0,3,,,,,,,,2,,,65,0
220560,note_on,15,0,1,,,,,,,,0,,,81,85
220560,note_on,15,0,4,,,,,,,,3,,,62,85
220560,note_on,15,0,2,,,,,,,,1,,,81,85
220560,note_on,15,0,6,,,,,,,,5,,,50,64
220560,note_on,15,0,5,,,,,,,,4,,,50,85
220560,note_on,5,0,3,,,,,,,,2,,,62,85
220675,note_on,115,0,3,,,,,,,,2,,,62,0
220680,note_on,5,0,3,,,,,,,,2,,,62,85
220765,note_on,0,0,6,,,,,,,,5,,,69,0
220765,note_on,0,0,6,,,,,,,,5,,,62,0
220765,note_on,205,0,6,,,,,,,,5,,,74,0
220785,note_on,20,0,6,,,,,,,,5,,,50,0
220785,note_on,225,0,1,,,,,,,,0,,,81,0
220785,note_on,225,0,4,,,,,,,,3,,,62,0
220785,note_on,225,0,2,,,,,,,,1,,,81,0
220785,note_on,225,0,5,,,,,,,,4,,,50,0
220795,note_on,115,0,3,,,,,,,,2,,,62,0
220800,note_on,0,0,6,,,,,,,,5,,,53,64
220800,note_on,0,0,6,,,,,,,,5,,,62,64
220800,note_on,15,0,1,,,,,,,,0,,,86,85
220800,note_on,5,0,3,,,,,,,,2,,,65,85
220800,note_on,15,0,5,,,,,,,,4,,,53,85
220800,note_on,0,0,6,,,,,,,,5,,,69,64
220800,note_on,15,0,6,,,,,,,,5,,,74,85
220800,note_on,15,0,4,,,,,,,,3,,,65,85
220800,note_on,15,0,2,,,,,,,,1,,,86,85
220915,note_on,115,0,3,,,,,,,,2,,,65,0
220920,note_on,5,0,3,,,,,,,,2,,,65,85
221025,note_on,225,0,2,,,,,,,,1,,,86,0
221025,note_on,225,0,1,,,,,,,,0,,,86,0
221025,note_on,225,0,4,,,,,,,,3,,,65,0
221025,note_on,0,0,6,,,,,,,,5,,,62,0
221025,note_on,0,0,6,,,,,,,,5,,,69,0
221025,note_on,0,0,6,,,,,,,,5,,,74,0
221025,note_on,225,0,6,,,,,,,,5,,,53,0
221025,note_on,225,0,5,,,,,,,,4,,,53,0
221035,note_on,115,0,3,,,,,,,,2,,,65,0
221040,note_on,0,0,6,,,,,,,,5,,,62,64
221040,note_on,0,0,6,,,,,,,,5,,,55,64
221040,note_on,15,0,2,,,,,,,,1,,,76,85
221040,note_on,15,0,1,,,,,,,,0,,,76,85
221040,note_on,5,0,3,,,,,,,,2,,,67,85
221040,note_on,0,0,6,,,,,,,,5,,,67,64
221040,note_on,15,0,6,,,,,,,,5,,,70,85
221040,note_on,15,0,5,,,,,,,,4,,,55,85
221040,note_on,15,0,4,,,,,,,,3,,,67,85
221155,note_on,115,0,3,,,,,,,,2,,,67,0
221160,note_on,5,0,3,,,,,,,,2,,,67,85
221265,note_on,0,0,6,,,,,,,,5,,,67,0
221265,note_on,0,0,6,,,,,,,,5,,,70,0
221265,note_on,225,0,6,,,,,,,,5,,,55,0
221265,note_on,225,0,4,,,,,,,,3,,,67,0
221265,note_on,225,0,5,,,,,,,,4,,,55,0
221265,note_on,225,0,2,,,,,,,,1,,,76,0
221265,note_on,225,0,1,,,,,,,,0,,,76,0
221275,note_on,115,0,3,,,,,,,,2,,,67,0
221280,note_on,15,0,6,,,,,,,,5,,,69,85
221280,note_on,5,0,3,,,,,,,,2,,,69,85
221280,note_on,0,0,6,,,,,,,,5,,,64,64
221280,note_on,15,0,1,,,,,,,,0,,,85,85
221280,note_on,15,0,2,,,,,,,,1,,,85,85
221280,note_on,0,0,6,,,,,,,,5,,,57,64
221280,note_on,15,0,4,,,,,,,,3,,,69,85
221280,note_on,15,0,5,,,,,,,,4,,,57,85
221395,note_on,115,0,3,,,,,,,,2,,,69,0
221400,note_on,5,0,3,,,,,,,,2,,,69,85
221485,note_on,205,0,6,,,,,,,,5,,,62,0
221505,note_on,225,0,2,,,,,,,,1,,,85,0
221505,note_on,225,0,4,,,,,,,,3,,,69,0
221505,note_on,225,0,1,,,,,,,,0,,,85,0
221505,note_on,20,0,6,,,,,,,,5,,,57,0
221505,note_on,225,0,5,,,,,,,,4,,,57,0
221515,note_on,115,0,3,,,,,,,,2,,,69,0
221520,note_on,15,0,5,,,,,,,,4,,,45,85
221520,note_on,15,0,2,,,,,,,,1,,,76,85
221520,note_on,15,0,6,,,,,,,,5,,,61,64
221520,note_on,0,0,6,,,,,,,,5,,,45,64
221520,note_on,5,0,3,,,,,,,,2,,,57,85
221520,note_on,15,0,1,,,,,,,,0,,,76,85
221520,note_on,15,0,4,,,,,,,,3,,,61,85
221635,note_on,115,0,3,,,,,,,,2,,,57,0
221640,note_on,5,0,3,,,,,,,,2,,,57,85
221725,note_on,0,0,6,,,,,,,,5,,,69,0
221725,note_on,205,0,6,,,,,,,,5,,,64,0
221745,note_on,225,0,4,,,,,,,,3,,,61,0
221745,note_on,0,0,6,,,,,,,,5,,,45,0
221745,note_on,225,0,1,,,,,,,,0,,,76,0
221745,note_on,225,0,2,,,,,,,,1,,,76,0
221745,note_on,20,0,6,,,,,,,,5,,,61,0
221745,note_on,225,0,5,,,,,,,,4,,,45,0
221755,note_on,115,0,3,,,,,,,,2,,,57,0
221760,note_on,15,0,4,,,,,,,,3,,,74,85
221760,note_on,15,0,2,,,,,,,,1,,,74,85
221760,note_on,5,0,3,,,,,,,,2,,,74,85
221760,note_on,15,0,1,,,,,,,,0,,,74,85
221760,note_on,15,0,5,,,,,,,,4,,,62,85
221760,note_on,15,0,6,,,,,,,,5,,,69,85
221760,note_on,0,0,6,,,,,,,,5,,,65,64
221760,note_on,0,0,6,,,,,,,,5,,,62,64
221760,note_on,0,0,6,,,,,,,,5,,,62,64
221985,note_on,0,0,6,,,,,,,,5,,,65,0
221985,note_on,0,0,6,,,,,,,,5,,,62,0
221985,note_on,225,0,4,,,,,,,,3,,,74,0
221985,note_on,225,0,6,,,,,,,,5,,,62,0
221985,note_on,225,0,1,,,,,,,,0,,,74,0
221985,note_on,225,0,2,,,,,,,,1,,,74,0
221985,note_on,225,0,5,,,,,,,,4,,,62,0
221985,note_on,225,0,3,,,,,,,,2,,,74,0
221985,note_on,0,0,6,,,,,,,,5,,,69,0
222000,note_on,15,0,5,,,,,,,,4,,,50,85
222000,note_on,15,0,4,,,,,,,,3,,,62,85
222000,note_on,15,0,2,,,,,,,,1,,,62,85
222000,note_on,15,0,3,,,,,,,,2,,,62,85
222000,note_on,15,0,1,,,,,,,,0,,,74,85
222000,note_on,0,0,6,,,,,,,,5,,,50,64
222000,note_on,15,0,6,,,,,,,,5,,,62,85
222115,note_on,115,0,3,,,,,,,,2,,,62,0
222115,note_on,115,0,5,,,,,,,,4,,,50,0
222115,note_on,115,0,1,,,,,,,,0,,,74,0
222115,note_on,115,0,4,,,,,,,,3,,,62,0
222115,note_on,0,0,6,,,,,,,,5,,,62,0
222115,note_on,115,0,6,,,,,,,,5,,,50,0
222115,note_on,115,0,2,,,,,,,,1,,,62,0
222120,note_on,5,0,3,,,,,,,,2,,,64,85
222120,note_on,5,0,4,,,,,,,,3,,,64,85
222120,note_on,5,0,5,,,,,,,,4,,,52,85
222120,note_on,5,0,6,,,,,,,,5,,,64,85
222120,note_on,0,0,6,,,,,,,,5,,,52,64
222120,note_on,5,0,1,,,,,,,,0,,,76,85
222120,note_on,5,0,2,,,,,,,,1,,,64,85
222235,note_on,115,0,2,,,,,,,,1,,,64,0
222235,note_on,0,0,6,,,,,,,,5,,,64,0
222235,note_on,115,0,6,,,,,,,,5,,,52,0
222235,note_on,115,0,5,,,,,,,,4,,,52,0
222235,note_on,115,0,4,,,,,,,,3,,,64,0
222235,note_on,115,0,3,,,,,,,,2,,,64,0
222235,note_on,115,0,1,,,,,,,,0,,,76,0
222240,note_on,5,0,4,,,,,,,,3,,,62,85
222240,note_on,5,0,5,,,,,,,,4,,,50,85
222240,note_on,5,0,2,,,,,,,,1,,,62,85
222240,note_on,5,0,6,,,,,,,,5,,,62,85
222240,note_on,5,0,1,,,,,,,,0,,,74,85
222240,note_on,5,0,3,,,,,,,,2,,,62,85
222240,note_on,0,0,6,,,,,,,,5,,,50,64
222355,note_on,115,0,2,,,,,,,,1,,,62,0
222355,note_on,115,0,5,,,,,,,,4,,,50,0
222355,note_on,115,0,3,,,,,,,,2,,,62,0
222355,note_on,115,0,1,,,,,,,,0,,,74,0
222355,note_on,115,0,4,,,,,,,,3,,,62,0
222355,note_on,115,0,6,,,,,,,,5,,,50,0
222355,note_on,0,0,6,,,,,,,,5,,,62,0
222360,note_on,5,0,1,,,,,,,,0,,,76,85
222360,note_on,5,0,4,,,,,,,,3,,,64,85
222360,note_on,5,0,3,,,,,,,,2,,,64,85
222360,note_on,5,0,5,,,,,,,,4,,,52,85
222360,note_on,5,0,2,,,,,,,,1,,,64,85
222360,note_on,5,0,6,,,,,,,,5,,,64,85
222360,note_on,0,0,6,,,,,,,,5,,,52,64
222475,note_on,115,0,1,,,,,,,,0,,,76,0
222475,note_on,115,0,3,,,,,,,,2,,,64,0
222475,note_on,115,0,5,,,,,,,,4,,,52,0
222475,note_on,115,0,6,,,,,,,,5,,,52,0
222475,note_on,115,0,4,,,,,,,,3,,,64,0
222475,note_on,0,0,6,,,,,,,,5,,,64,0
222475,note_on,115,0,2,,,,,,,,1,,,64,0
222480,note_on,5,0,2,,,,,,,,1,,,62,85
222480,note_on,0,0,6,,,,,,,,5,,,50,64
222480,note_on,5,0,3,,,,,,,,2,,,62,85
222480,note_on,5,0,4,,,,,,,,3,,,62,85
222480,note_on,5,0,6,,,,,,,,5,,,62,85
222480,note_on,5,0,1,,,,,,,,0,,,74,85
222480,note_on,5,0,5,,,,,,,,4,,,50,85
222595,note_on,115,0,4,,,,,,,,3,,,62,0
222595,note_on,115,0,2,,,,,,,,1,,,62,0
222595,note_on,115,0,1,,,,,,,,0,,,74,0
222595,note_on,115,0,3,,,,,,,,2,,,62,0
222595,note_on,115,0,5,,,,,,,,4,,,50,0
222595,note_on,115,0,6,,,,,,,,5,,,50,0
222595,note_on,0,0,6,,,,,,,,5,,,62,0
222600,note_on,5,0,5,,,,,,,,4,,,58,85
222600,note_on,5,0,2,,,,,,,,1,,,70,85
222600,note_on,5,0,1,,,,,,,,0,,,82,85
222600,note_on,0,0,6,,,,,,,,5,,,58,64
222600,note_on,5,0,4,,,,,,,,3,,,70,85
222600,note_on,5,0,6,,,,,,,,5,,,70,85
222600,note_on,5,0,3,,,,,,,,2,,,70,85
222715,note_on,115,0,3,,,,,,,,2,,,70,0
222715,note_on,115,0,2,,,,,,,,1,,,70,0
222715,note_on,115,0,4,,,,,,,,3,,,70,0
222715,note_on,115,0,1,,,,,,,,0,,,82,0
222715,note_on,115,0,6,,,,,,,,5,,,58,0
222715,note_on,115,0,5,,,,,,,,4,,,58,0
222715,note_on,0,0,6,,,,,,,,5,,,70,0
222720,note_on,5,0,2,,,,,,,,1,,,69,85
222720,note_on,5,0,4,,,,,,,,3,,,69,85
222720,note_on,5,0,6,,,,,,,,5,,,69,85
222720,note_on,5,0,1,,,,,,,,0,,,81,85
222720,note_on,0,0,6,,,,,,,,5,,,57,64
222720,note_on,5,0,3,,,,,,,,2,,,69,85
222720,note_on,5,0,5,,,,,,,,4,,,57,85
222835,note_on,115,0,3,,,,,,,,2,,,69,0
222835,note_on,115,0,5,,,,,,,,4,,,57,0
222835,note_on,115,0,1,,,,,,,,0,,,81,0
222835,note_on,0,0,6,,,,,,,,5,,,69,0
222835,note_on,115,0,4,,,,,,,,3,,,69,0
222835,note_on,115,0,6,,,,,,,,5,,,57,0
222835,note_on,115,0,2,,,,,,,,1,,,69,0
222840,note_on,0,0,6,,,,,,,,5,,,55,64
222840,note_on,5,0,2,,,,,,,,1,,,67,85
222840,note_on,5,0,5,,,,,,,,4,,,55,85
222840,note_on,5,0,6,,,,,,,,5,,,67,85
222840,note_on,5,0,1,,,,,,,,0,,,79,85
222840,note_on,5,0,3,,,,,,,,2,,,67,85
222840,note_on,5,0,4,,,,,,,,3,,,67,85
222955,note_on,115,0,5,,,,,,,,4,,,55,0
222955,note_on,115,0,2,,,,,,,,1,,,67,0
222955,note_on,115,0,3,,,,,,,,2,,,67,0
222955,note_on,0,0,6,,,,,,,,5,,,67,0
222955,note_on,115,0,6,,,,,,,,5,,,55,0
222955,note_on,115,0,1,,,,,,,,0,,,79,0
222955,note_on,115,0,4,,,,,,,,3,,,67,0
222960,note_on,5,0,4,,,,,,,,3,,,65,85
222960,note_on,0,0,6,,,,,,,,5,,,53,64
222960,note_on,5,0,6,,,,,,,,5,,,65,85
222960,note_on,5,0,1,,,,,,,,0,,,77,85
222960,note_on,5,0,3,,,,,,,,2,,,65,85
222960,note_on,5,0,5,,,,,,,,4,,,53,85
222960,note_on,5,0,2,,,,,,,,1,,,65,85
223075,note_on,0,0,6,,,,,,,,5,,,65,0
223075,note_on,115,0,5,,,,,,,,4,,,53,0
223075,note_on,115,0,1,,,,,,,,0,,,77,0
223075,note_on,115,0,4,,,,,,,,3,,,65,0
223075,note_on,115,0,6,,,,,,,,5,,,53,0
223075,note_on,115,0,2,,,,,,,,1,,,65,0
223075,note_on,115,0,3,,,,,,,,2,,,65,0
223080,note_on,5,0,3,,,,,,,,2,,,64,85
223080,note_on,5,0,1,,,,,,,,0,,,76,85
223080,note_on,5,0,5,,,,,,,,4,,,52,85
223080,note_on,0,0,6,,,,,,,,5,,,52,64
223080,note_on,5,0,6,,,,,,,,5,,,64,85
223080,note_on,5,0,4,,,,,,,,3,,,64,85
223080,note_on,5,0,2,,,,,,,,1,,,64,85
223195,note_on,0,0,6,,,,,,,,5,,,64,0
223195,note_on,115,0,6,,,,,,,,5,,,52,0
223195,note_on,115,0,1,,,,,,,,0,,,76,0
223195,note_on,115,0,5,,,,,,,,4,,,52,0
223195,note_on,115,0,4,,,,,,,,3,,,64,0
223195,note_on,115,0,3,,,,,,,,2,,,64,0
223195,note_on,115,0,2,,,,,,,,1,,,64,0
223200,note_on,5,0,4,,,,,,,,3,,,62,85
223200,note_on,0,0,6,,,,,,,,5,,,50,64
223200,note_on,5,0,3,,,,,,,,2,,,62,85
223200,note_on,5,0,5,,,,,,,,4,,,50,85
223200,note_on,5,0,2,,,,,,,,1,,,62,85
223200,note_on,5,0,6,,,,,,,,5,,,62,85
223200,note_on,5,0,1,,,,,,,,0,,,74,85
223425,note_on,225,0,2,,,,,,,,1,,,62,0
223425,note_on,225,0,5,,,,,,,,4,,,50,0
223425,note_on,225,0,3,,,,,,,,2,,,62,0
223425,note_on,225,0,4,,,,,,,,3,,,62,0
223425,note_on,0,0,6,,,,,,,,5,,,62,0
223425,note_on,225,0,1,,,,,,,,0,,,74,0
223425,note_on,225,0,6,,,,,,,,5,,,50,0
223440,note_on,15,0,6,,,,,,,,5,,,74,85
223440,note_on,15,0,4,,,,,,,,3,,,74,85
223440,note_on,15,0,2,,,,,,,,1,,,74,85
223440,note_on,15,0,3,,,,,,,,2,,,74,85
223440,note_on,15,0,1,,,,,,,,0,,,86,85
223440,note_on,15,0,5,,,,,,,,4,,,62,85
223440,note_on,0,0,6,,,,,,,,5,,,62,64
223665,note_on,225,0,6,,,,,,,,5,,,62,0
223665,note_on,225,0,4,,,,,,,,3,,,74,0
223665,note_on,0,0,6,,,,,,,,5,,,74,0
223665,note_on,225,0,2,,,,,,,,1,,,74,0
223665,note_on,225,0,5,,,,,,,,4,,,62,0
223665,note_on,225,0,3,,,,,,,,2,,,74,0
223665,note_on,225,0,1,,,,,,,,0,,,86,0
223680,note_on,15,0,2,,,,,,,,1,,,62,85
223680,note_on,15,0,5,,,,,,,,4,,,50,85
223680,note_on,15,0,6,,,,,,,,5,,,62,85
223680,note_on,15,0,4,,,,,,,,3,,,62,85
223680,note_on,0,0,6,,,,,,,,5,,,50,64
223680,note_on,15,0,1,,,,,,,,0,,,74,85
223680,note_on,15,0,3,,,,,,,,2,,,62,85
223905,note_on,225,0,5,,,,,,,,4,,,50,0
223905,note_on,225,0,4,,,,,,,,3,,,62,0
223905,note_on,0,0,6,,,,,,,,5,,,62,0
223905,note_on,225,0,3,,,,,,,,2,,,62,0
223905,note_on,225,0,1,,,,,,,,0,,,74,0
223905,note_on,225,0,6,,,,,,,,5,,,50,0
223905,note_on,225,0,2,,,,,,,,1,,,62,0
223920,note_on,0,0,6,,,,,,,,5,,,50,64
223920,note_on,15,0,6,,,,,,,,5,,,62,85
223920,note_on,15,0,3,,,,,,,,2,,,62,85
223920,note_on,15,0,5,,,,,,,,4,,,50,85
223920,note_on,15,0,4,,,,,,,,3,,,62,85
223920,note_on,15,0,1,,,,,,,,0,,,74,85
223920,note_on,15,0,2,,,,,,,,1,,,62,85
224365,note_on,0,0,6,,,,,,,,5,,,62,0
224365,note_on,445,0,3,,,,,,,,2,,,62,0
224365,note_on,445,0,2,,,,,,,,1,,,62,0
224365,note_on,445,0,5,,,,,,,,4,,,50,0
224365,note_on,445,0,4,,,,,,,,3,,,62,0
224365,note_on,445,0,1,,,,,,,,0,,,74,0
224365,note_on,445,0,6,,,,,,,,5,,,50,0
224640,note_on,275,0,1,,,,,,,,0,,,86,106
224755,note_on,115,0,1,,,,,,,,0,,,86,0
224760,note_on,5,0,1,,,,,,,,0,,,84,106
224875,note_on,115,0,1,,,,,,,,0,,,84,0
224880,note_on,5,0,1,,,,,,,,0,,,82,106
224995,note_on,115,0,1,,,,,,,,0,,,82,0
225000,note_on,5,0,1,,,,,,,,0,,,81,106
225115,note_on,115,0,1,,,,,,,,0,,,81,0
225120,note_on,5,0,1,,,,,,,,0,,,79,106
225235,note_on,115,0,1,,,,,,,,0,,,79,0
225240,note_on,5,0,1,,,,,,,,0,,,77,106
225355,note_on,115,0,1,,,,,,,,0,,,77,0
225360,note_on,5,0,1,,,,,,,,0,,,82,106
225475,note_on,115,0,1,,,,,,,,0,,,82,0
225480,note_on,5,0,1,,,,,,,,0,,,81,106
225595,note_on,115,0,1,,,,,,,,0,,,81,0
225600,note_on,5,0,1,,,,,,,,0,,,79,106
225715,note_on,115,0,1,,,,,,,,0,,,79,0
225720,note_on,5,0,1,,,,,,,,0,,,77,106
225835,note_on,115,0,1,,,,,,,,0,,,77,0
225840,note_on,5,0,1,,,,,,,,0,,,76,106
225955,note_on,115,0,1,,,,,,,,0,,,76,0
225960,note_on,5,0,1,,,,,,,,0,,,74,106
226075,note_on,115,0,1,,,,,,,,0,,,74,0
226080,note_on,1715,0,2,,,,,,,,1,,,69,85
226080,note_on,0,0,6,,,,,,,,5,,,57,64
226080,note_on,0,0,6,,,,,,,,5,,,64,64
226080,note_on,0,0,6,,,,,,,,5,,,73,64
226080,note_on,1715,0,6,,,,,,,,5,,,69,85
226080,note_on,5,0,1,,,,,,,,0,,,73,106
226080,note_on,1715,0,5,,,,,,,,4,,,57,85
226080,note_on,1715,0,4,,,,,,,,3,,,69,85
226080,note_on,1715,0,3,,,,,,,,2,,,69,85
226305,note_on,225,0,4,,,,,,,,3,,,69,0
226305,note_on,0,0,6,,,,,,,,5,,,64,0
226305,note_on,0,0,6,,,,,,,,5,,,73,0
226305,note_on,0,0,6,,,,,,,,5,,,69,0
226305,note_on,225,0,6,,,,,,,,5,,,57,0
226305,note_on,225,0,3,,,,,,,,2,,,69,0
226305,note_on,225,0,2,,,,,,,,1,,,69,0
226305,note_on,225,0,5,,,,,,,,4,,,57,0
226320,note_on,15,0,2,,,,,,,,1,,,57,85
226320,note_on,0,0,6,,,,,,,,5,,,45,64
226320,note_on,15,0,6,,,,,,,,5,,,57,85
226320,note_on,15,0,4,,,,,,,,3,,,57,85
226320,note_on,15,0,3,,,,,,,,2,,,57,85
226320,note_on,15,0,5,,,,,,,,4,,,45,85
226435,note_on,115,0,4,,,,,,,,3,,,57,0
226435,note_on,115,0,5,,,,,,,,4,,,45,0
226435,note_on,115,0,2,,,,,,,,1,,,57,0
226435,note_on,115,0,3,,,,,,,,2,,,57,0
226435,note_on,0,0,6,,,,,,,,5,,,57,0
226435,note_on,115,0,6,,,,,,,,5,,,45,0
226440,note_on,5,0,2,,,,,,,,1,,,58,85
226440,note_on,0,0,6,,,,,,,,5,,,46,64
226440,note_on,5,0,6,,,,,,,,5,,,58,85
226440,note_on,5,0,3,,,,,,,,2,,,58,85
226440,note_on,5,0,4,,,,,,,,3,,,58,85
226440,note_on,5,0,5,,,,,,,,4,,,46,85
226525,note_on,445,0,1,,,,,,,,0,,,73,0
226555,note_on,115,0,3,,,,,,,,2,,,58,0
226555,note_on,115,0,4,,,,,,,,3,,,58,0
226555,note_on,115,0,6,,,,,,,,5,,,46,0
226555,note_on,0,0,6,,,,,,,,5,,,58,0
226555,note_on,115,0,5,,,,,,,,4,,,46,0
226555,note_on,115,0,2,,,,,,,,1,,,58,0
226560,note_on,5,0,4,,,,,,,,3,,,57,85
226560,note_on,5,0,5,,,,,,,,4,,,45,85
226560,note_on,5,0,2,,,,,,,,1,,,57,85
226560,note_on,0,0,6,,,,,,,,5,,,45,64
226560,note_on,5,0,3,,,,,,,,2,,,57,85
226560,note_on,5,0,6,,,,,,,,5,,,57,85
226675,note_on,115,0,2,,,,,,,,1,,,57,0
226675,note_on,0,0,6,,,,,,,,5,,,57,0
226675,note_on,115,0,6,,,,,,,,5,,,45,0
226675,note_on,115,0,5,,,,,,,,4,,,45,0
226675,note_on,115,0,4,,,,,,,,3,,,57,0
226675,note_on,115,0,3,,,,,,,,2,,,57,0
226680,note_on,5,0,5,,,,,,,,4,,,46,85
226680,note_on,5,0,4,,,,,,,,3,,,58,85
226680,note_on,0,0,6,,,,,,,,5,,,46,64
226680,note_on,5,0,3,,,,,,,,2,,,58,85
226680,note_on,5,0,2,,,,,,,,1,,,58,85
226680,note_on,5,0,6,,,,,,,,5,,,58,85
226795,note_on,115,0,5,,,,,,,,4,,,46,0
226795,note_on,115,0,2,,,,,,,,1,,,58,0
226795,note_on,115,0,3,,,,,,,,2,,,58,0
226795,note_on,115,0,4,,,,,,,,3,,,58,0
226795,note_on,115,0,6,,,,,,,,5,,,46,0
226795,note_on,0,0,6,,,,,,,,5,,,58,0
226800,note_on,5,0,6,,,,,,,,5,,,57,85
226800,note_on,0,0,6,,,,,,,,5,,,45,64
226800,note_on,5,0,2,,,,,,,,1,,,57,85
226800,note_on,5,0,4,,,,,,,,3,,,57,85
226800,note_on,5,0,3,,,,,,,,2,,,57,85
226800,note_on,5,0,5,,,,,,,,4,,,45,85
226915,note_on,115,0,6,,,,,,,,5,,,45,0
226915,note_on,0,0,6,,,,,,,,5,,,57,0
226915,note_on,115,0,4,,,,,,,,3,,,57,0
226915,note_on,115,0,2,,,,,,,,1,,,57,0
226915,note_on,115,0,3,,,,,,,,2,,,57,0
226915,note_on,115,0,5,,,,,,,,4,,,45,0
226920,note_on,5,0,3,,,,,,,,2,,,65,85
226920,note_on,0,0,6,,,,,,,,5,,,53,64
226920,note_on,5,0,2,,,,,,,,1,,,65,85
226920,note_on,5,0,4,,,,,,,,3,,,65,85
226920,note_on,5,0,6,,,,,,,,5,,,65,85
226920,note_on,5,0,5,,,,,,,,4,,,53,85
227035,note_on,115,0,5,,,,,,,,4,,,53,0
227035,note_on,115,0,6,,,,,,,,5,,,53,0
227035,note_on,0,0,6,,,,,,,,5,,,65,0
227035,note_on,115,0,3,,,,,,,,2,,,65,0
227035,note_on,115,0,2,,,,,,,,1,,,65,0
227035,note_on,115,0,4,,,,,,,,3,,,65,0
227040,note_on,5,0,3,,,,,,,,2,,,64,85
227040,note_on,0,0,6,,,,,,,,5,,,52,64
227040,note_on,5,0,2,,,,,,,,1,,,64,85
227040,note_on,5,0,6,,,,,,,,5,,,64,85
227040,note_on,5,0,5,,,,,,,,4,,,52,85
227040,note_on,5,0,4,,,,,,,,3,,,64,85
227155,note_on,115,0,6,,,,,,,,5,,,52,0
227155,note_on,115,0,5,,,,,,,,4,,,52,0
227155,note_on,115,0,4,,,,,,,,3,,,64,0
227155,note_on,115,0,3,,,,,,,,2,,,64,0
227155,note_on,115,0,2,,,,,,,,1,,,64,0
227155,note_on,0,0,6,,,,,,,,5,,,64,0
227160,note_on,5,0,4,,,,,,,,3,,,62,85
227160,note_on,5,0,3,,,,,,,,2,,,62,85
227160,note_on,5,0,2,,,,,,,,1,,,62,85
227160,note_on,0,0,6,,,,,,,,5,,,50,64
227160,note_on,5,0,5,,,,,,,,4,,,50,85
227160,note_on,5,0,6,,,,,,,,5,,,62,85
227275,note_on,115,0,3,,,,,,,,2,,,62,0
227275,note_on,115,0,5,,,,,,,,4,,,50,0
227275,note_on,115,0,4,,,,,,,,3,,,62,0
227275,note_on,115,0,6,,,,,,,,5,,,50,0
227275,note_on,0,0,6,,,,,,,,5,,,62,0
227275,note_on,115,0,2,,,,,,,,1,,,62,0
227280,note_on,5,0,5,,,,,,,,4,,,49,85
227280,note_on,5,0,4,,,,,,,,3,,,61,85
227280,note_on,5,0,3,,,,,,,,2,,,61,85
227280,note_on,5,0,6,,,,,,,,5,,,61,85
227280,note_on,5,0,2,,,,,,,,1,,,61,85
227280,note_on,0,0,6,,,,,,,,5,,,49,64
227395,note_on,115,0,2,,,,,,,,1,,,61,0
227395,note_on,0,0,6,,,,,,,,5,,,61,0
227395,note_on,115,0,4,,,,,,,,3,,,61,0
227395,note_on,115,0,5,,,,,,,,4,,,49,0
227395,note_on,115,0,3,,,,,,,,2,,,61,0
227395,note_on,115,0,6,,,,,,,,5,,,49,0
227400,note_on,0,0,6,,,,,,,,5,,,47,64
227400,note_on,5,0,5,,,,,,,,4,,,47,85
227400,note_on,5,0,4,,,,,,,,3,,,59,85
227400,note_on,5,0,2,,,,,,,,1,,,59,85
227400,note_on,5,0,3,,,,,,,,2,,,59,85
227400,note_on,5,0,6,,,,,,,,5,,,59,85
227515,note_on,0,0,6,,,,,,,,5,,,59,0
227515,note_on,115,0,6,,,,,,,,5,,,47,0
227515,note_on,115,0,4,,,,,,,,3,,,59,0
227515,note_on,115,0,3,,,,,,,,2,,,59,0
227515,note_on,115,0,2,,,,,,,,1,,,59,0
227515,note_on,115,0,5,,,,,,,,4,,,47,0
227520,note_on,5,0,4,,,,,,,,3,,,57,85
227520,note_on,5,0,5,,,,,,,,4,,,45,85
227520,note_on,5,0,3,,,,,,,,2,,,57,85
227520,note_on,5,0,6,,,,,,,,5,,,69,85
227520,note_on,0,0,6,,,,,,,,5,,,64,64
227520,note_on,0,0,6,,,,,,,,5,,,61,64
227520,note_on,5,0,2,,,,,,,,1,,,57,85
227520,note_on,0,0,6,,,,,,,,5,,,45,64
227745,note_on,225,0,2,,,,,,,,1,,,57,0
227745,note_on,225,0,3,,,,,,,,2,,,57,0
227745,note_on,225,0,4,,,,,,,,3,,,57,0
227745,note_on,225,0,5,,,,,,,,4,,,45,0
227745,note_on,225,0,6,,,,,,,,5,,,45,0
227760,note_on,15,0,6,,,,,,,,5,,,57,64
227760,note_on,15,0,2,,,,,,,,1,,,69,85
227760,note_on,15,0,3,,,,,,,,2,,,69,85
227760,note_on,15,0,4,,,,,,,,3,,,69,85
227760,note_on,15,0,5,,,,,,,,4,,,57,85
227985,note_on,225,0,2,,,,,,,,1,,,69,0
227985,note_on,225,0,6,,,,,,,,5,,,57,0
227985,note_on,225,0,4,,,,,,,,3,,,69,0
227985,note_on,225,0,3,,,,,,,,2,,,69,0
227985,note_on,225,0,5,,,,,,,,4,,,57,0
228000,note_on,15,0,3,,,,,,,,2,,,57,85
228000,note_on,15,0,6,,,,,,,,5,,,45,64
228000,note_on,15,0,2,,,,,,,,1,,,57,85
228000,note_on,15,0,4,,,,,,,,3,,,57,85
228000,note_on,15,0,5,,,,,,,,4,,,45,85
228185,note_on,0,0,6,,,,,,,,5,,,64,0
228185,note_on,185,0,6,,,,,,,,5,,,61,0
228185,note_on,0,0,6,,,,,,,,5,,,69,0
228225,note_on,40,0,6,,,,,,,,5,,,45,0
228225,note_on,225,0,4,,,,,,,,3,,,57,0
228225,note_on,225,0,3,,,,,,,,2,,,57,0
228225,note_on,225,0,5,,,,,,,,4,,,45,0
228225,note_on,225,0,2,,,,,,,,1,,,57,0
228240,note_on,15,0,4,,,,,,,,3,,,57,85
228240,note_on,15,0,3,,,,,,,,2,,,57,85
228240,note_on,15,0,2,,,,,,,,1,,,57,85
228240,note_on,15,0,5,,,,,,,,4,,,45,85
228240,note_on,0,0,6,,,,,,,,5,,,45,64
228240,note_on,0,0,6,,,,,,,,5,,,57,64
228240,note_on,0,0,6,,,,,,,,5,,,61,64
228240,note_on,15,0,6,,,,,,,,5,,,64,85
228685,note_on,0,0,6,,,,,,,,5,,,64,0
228685,note_on,445,0,6,,,,,,,,5,,,45,0
228685,note_on,0,0,6,,,,,,,,5,,,57,0
228685,note_on,0,0,6,,,,,,,,5,,,61,0
228685,note_on,445,0,3,,,,,,,,2,,,57,0
228685,note_on,445,0,4,,,,,,,,3,,,57,0
228685,note_on,445,0,5,,,,,,,,4,,,45,0
228685,note_on,445,0,2,,,,,,,,1,,,57,0
228960,note_on,275,0,5,,,,,,,,4,,,45,64
228960,note_on,2435,0,1,,,,,,,,0,,,81,106
228960,note_on,275,0,6,,,,,,,,5,,,69,85
228960,note_on,0,0,6,,,,,,,,5,,,64,64
228960,note_on,0,0,6,,,,,,,,5,,,61,64
228960,note_on,0,0,6,,,,,,,,5,,,45,64
228960,note_on,275,0,2,,,,,,,,1,,,76,49
228960,note_on,275,0,4,,,,,,,,3,,,69,49
228960,note_on,275,0,3,,,,,,,,2,,,73,49
229075,note_on,115,0,1,,,,,,,,0,,,81,0
229080,note_on,5,0,1,,,,,,,,0,,,85,106
229185,note_on,225,0,6,,,,,,,,5,,,45,0
229185,note_on,225,0,5,,,,,,,,4,,,45,0
229185,note_on,225,0,2,,,,,,,,1,,,76,0
229185,note_on,225,0,4,,,,,,,,3,,,69,0
229185,note_on,225,0,3,,,,,,,,2,,,73,0
229195,note_on,115,0,1,,,,,,,,0,,,85,0
229200,note_on,15,0,3,,,,,,,,2,,,76,49
229200,note_on,15,0,4,,,,,,,,3,,,73,49
229200,note_on,15,0,2,,,,,,,,1,,,82,49
229200,note_on,15,0,6,,,,,,,,5,,,45,64
229200,note_on,5,0,1,,,,,,,,0,,,88,106
229200,note_on,15,0,5,,,,,,,,4,,,45,64
229315,note_on,115,0,1,,,,,,,,0,,,88,0
229320,note_on,5,0,1,,,,,,,,0,,,82,106
229425,note_on,225,0,5,,,,,,,,4,,,45,0
229425,note_on,225,0,4,,,,,,,,3,,,73,0
229425,note_on,225,0,3,,,,,,,,2,,,76,0
229425,note_on,225,0,2,,,,,,,,1,,,82,0
229425,note_on,225,0,6,,,,,,,,5,,,45,0
229435,note_on,115,0,1,,,,,,,,0,,,82,0
229440,note_on,15,0,6,,,,,,,,5,,,45,64
229440,note_on,15,0,3,,,,,,,,2,,,73,49
229440,note_on,15,0,2,,,,,,,,1,,,76,49
229440,note_on,15,0,4,,,,,,,,3,,,69,49
229440,note_on,15,0,5,,,,,,,,4,,,45,64
229440,note_on,5,0,1,,,,,,,,0,,,81,106
229555,note_on,115,0,1,,,,,,,,0,,,81,0
229560,note_on,5,0,1,,,,,,,,0,,,79,106
229625,note_on,0,0,6,,,,,,,,5,,,64,0
229625,note_on,0,0,6,,,,,,,,5,,,69,0
229625,note_on,185,0,6,,,,,,,,5,,,61,0
229665,note_on,225,0,4,,,,,,,,3,,,69,0
229665,note_on,225,0,3,,,,,,,,2,,,73,0
229665,note_on,40,0,6,,,,,,,,5,,,45,0
229665,note_on,225,0,2,,,,,,,,1,,,76,0
229665,note_on,225,0,5,,,,,,,,4,,,45,0
229675,note_on,115,0,1,,,,,,,,0,,,79,0
229680,note_on,15,0,3,,,,,,,,2,,,69,49
229680,note_on,15,0,2,,,,,,,,1,,,74,49
229680,note_on,0,0,6,,,,,,,,5,,,66,64
229680,note_on,15,0,4,,,,,,,,3,,,69,49
229680,note_on,5,0,1,,,,,,,,0,,,78,106
229680,note_on,15,0,6,,,,,,,,5,,,69,85
229680,note_on,0,0,6,,,,,,,,5,,,62,64
229680,note_on,0,0,6,,,,,,,,5,,,50,64
229680,note_on,15,0,5,,,,,,,,4,,,50,64
229795,note_on,115,0,1,,,,,,,,0,,,78,0
229800,note_on,5,0,1,,,,,,,,0,,,81,106
229905,note_on,225,0,3,,,,,,,,2,,,69,0
229905,note_on,225,0,6,,,,,,,,5,,,50,0
229905,note_on,225,0,4,,,,,,,,3,,,69,0
229905,note_on,225,0,2,,,,,,,,1,,,74,0
229905,note_on,225,0,5,,,,,,,,4,,,50,0
229915,note_on,115,0,1,,,,,,,,0,,,81,0
229920,note_on,15,0,2,,,,,,,,1,,,81,49
229920,note_on,15,0,5,,,,,,,,4,,,50,64
229920,note_on,15,0,4,,,,,,,,3,,,74,49
229920,note_on,15,0,6,,,,,,,,5,,,50,64
229920,note_on,5,0,1,,,,,,,,0,,,86,106
229920,note_on,15,0,3,,,,,,,,2,,,78,49
230035,note_on,115,0,1,,,,,,,,0,,,86,0
230040,note_on,5,0,1,,,,,,,,0,,,81,106
230145,note_on,225,0,2,,,,,,,,1,,,81,0
230145,note_on,225,0,4,,,,,,,,3,,,74,0
230145,note_on,225,0,6,,,,,,,,5,,,50,0
230145,note_on,225,0,3,,,,,,,,2,,,78,0
230145,note_on,225,0,5,,,,,,,,4,,,50,0
230155,note_on,115,0,1,,,,,,,,0,,,81,0
230160,note_on,15,0,3,,,,,,,,2,,,69,49
230160,note_on,15,0,5,,,,,,,,4,,,50,64
230160,note_on,15,0,2,,,,,,,,1,,,74,49
230160,note_on,15,0,4,,,,,,,,3,,,66,49
230160,note_on,15,0,6,,,,,,,,5,,,50,64
230160,note_on,5,0,1,,,,,,,,0,,,79,106
230275,note_on,115,0,1,,,,,,,,0,,,79,0
230280,note_on,5,0,1,,,,,,,,0,,,78,106
230345,note_on,185,0,6,,,,,,,,5,,,62,0
230345,note_on,0,0,6,,,,,,,,5,,,69,0
230345,note_on,0,0,6,,,,,,,,5,,,66,0
230385,note_on,225,0,5,,,,,,,,4,,,50,0
230385,note_on,225,0,2,,,,,,,,1,,,74,0
230385,note_on,225,0,3,,,,,,,,2,,,69,0
230385,note_on,225,0,4,,,,,,,,3,,,66,0
230385,note_on,40,0,6,,,,,,,,5,,,50,0
230395,note_on,115,0,1,,,,,,,,0,,,78,0
230400,note_on,5,0,1,,,,,,,,0,,,79,106
230400,note_on,15,0,5,,,,,,,,4,,,55,64
230400,note_on,15,0,6,,,,,,,,5,,,70,85
230400,note_on,0,0,6,,,,,,,,5,,,67,64
230400,note_on,0,0,6,,,,,,,,5,,,64,64
230400,note_on,15,0,2,,,,,,,,1,,,74,49
230400,note_on,15,0,3,,,,,,,,2,,,70,49
230400,note_on,15,0,4,,,,,,,,3,,,67,49
230400,note_on,0,0,6,,,,,,,,5,,,55,64
230515,note_on,115,0,1,,,,,,,,0,,,79,0
230520,note_on,5,0,1,,,,,,,,0,,,82,106
230625,note_on,225,0,5,,,,,,,,4,,,55,0
230625,note_on,225,0,4,,,,,,,,3,,,67,0
230625,note_on,225,0,3,,,,,,,,2,,,70,0
230625,note_on,225,0,2,,,,,,,,1,,,74,0
230625,note_on,225,0,6,,,,,,,,5,,,55,0
230635,note_on,115,0,1,,,,,,,,0,,,82,0
230640,note_on,15,0,5,,,,,,,,4,,,55,64
230640,note_on,15,0,3,,,,,,,,2,,,74,49
230640,note_on,5,0,1,,,,,,,,0,,,86,106
230640,note_on,15,0,6,,,,,,,,5,,,55,64
230640,note_on,15,0,4,,,,,,,,3,,,70,49
230640,note_on,15,0,2,,,,,,,,1,,,79,49
230755,note_on,115,0,1,,,,,,,,0,,,86,0
230760,note_on,5,0,1,,,,,,,,0,,,81,106
230865,note_on,225,0,3,,,,,,,,2,,,74,0
230865,note_on,225,0,6,,,,,,,,5,,,55,0
230865,note_on,225,0,5,,,,,,,,4,,,55,0
230865,note_on,225,0,4,,,,,,,,3,,,70,0
230865,note_on,225,0,2,,,,,,,,1,,,79,0
230875,note_on,115,0,1,,,,,,,,0,,,81,0
230880,note_on,15,0,4,,,,,,,,3,,,67,49
230880,note_on,15,0,2,,,,,,,,1,,,74,49
230880,note_on,15,0,3,,,,,,,,2,,,70,49
230880,note_on,15,0,6,,,,,,,,5,,,55,64
230880,note_on,5,0,1,,,,,,,,0,,,79,106
230880,note_on,15,0,5,,,,,,,,4,,,55,64
230995,note_on,115,0,1,,,,,,,,0,,,79,0
231000,note_on,5,0,1,,,,,,,,0,,,77,106
231065,note_on,0,0,6,,,,,,,,5,,,70,0
231065,note_on,185,0,6,,,,,,,,5,,,64,0
231065,note_on,0,0,6,,,,,,,,5,,,67,0
231105,note_on,225,0,4,,,,,,,,3,,,67,0
231105,note_on,225,0,3,,,,,,,,2,,,70,0
231105,note_on,225,0,2,,,,,,,,1,,,74,0
231105,note_on,225,0,5,,,,,,,,4,,,55,0
231105,note_on,40,0,6,,,,,,,,5,,,55,0
231115,note_on,115,0,1,,,,,,,,0,,,77,0
231120,note_on,15,0,3,,,,,,,,2,,,67,49
231120,note_on,15,0,2,,,,,,,,1,,,72,49
231120,note_on,15,0,6,,,,,,,,5,,,72,85
231120,note_on,0,0,6,,,,,,,,5,,,69,64
231120,note_on,0,0,6,,,,,,,,5,,,64,64
231120,note_on,0,0,6,,,,,,,,5,,,48,64
231120,note_on,15,0,5,,,,,,,,4,,,48,64
231120,note_on,5,0,1,,,,,,,,0,,,76,106
231120,note_on,15,0,4,,,,,,,,3,,,67,49
231235,note_on,115,0,1,,,,,,,,0,,,76,0
231240,note_on,5,0,1,,,,,,,,0,,,79,106
231345,note_on,225,0,2,,,,,,,,1,,,72,0
231345,note_on,225,0,3,,,,,,,,2,,,67,0
231345,note_on,225,0,5,,,,,,,,4,,,48,0
231345,note_on,225,0,6,,,,,,,,5,,,48,0
231345,note_on,225,0,4,,,,,,,,3,,,67,0
231355,note_on,115,0,1,,,,,,,,0,,,79,0
231360,note_on,15,0,6,,,,,,,,5,,,48,64
231360,note_on,5,0,1,,,,,,,,0,,,84,106
231360,note_on,15,0,2,,,,,,,,1,,,79,49
231360,note_on,15,0,4,,,,,,,,3,,,72,49
231360,note_on,15,0,5,,,,,,,,4,,,48,64
231360,note_on,15,0,3,,,,,,,,2,,,76,49
231475,note_on,115,0,1,,,,,,,,0,,,84,0
231480,note_on,5,0,1,,,,,,,,0,,,79,106
231585,note_on,225,0,2,,,,,,,,1,,,79,0
231585,note_on,225,0,5,,,,,,,,4,,,48,0
231585,note_on,225,0,6,,,,,,,,5,,,48,0
231585,note_on,225,0,4,,,,,,,,3,,,72,0
231585,note_on,225,0,3,,,,,,,,2,,,76,0
231595,note_on,115,0,1,,,,,,,,0,,,79,0
231600,note_on,15,0,4,,,,,,,,3,,,64,49
231600,note_on,15,0,5,,,,,,,,4,,,48,64
231600,note_on,15,0,2,,,,,,,,1,,,72,49
231600,note_on,5,0,1,,,,,,,,0,,,77,106
231600,note_on,15,0,3,,,,,,,,2,,,67,49
231600,note_on,15,0,6,,,,,,,,5,,,48,64
231715,note_on,115,0,1,,,,,,,,0,,,77,0
231720,note_on,5,0,1,,,,,,,,0,,,76,106
231785,note_on,185,0,6,,,,,,,,5,,,64,0
231785,note_on,0,0,6,,,,,,,,5,,,72,0
231785,note_on,0,0,6,,,,,,,,5,,,69,0
231825,note_on,225,0,5,,,,,,,,4,,,48,0
231825,note_on,225,0,2,,,,,,,,1,,,72,0
231825,note_on,225,0,4,,,,,,,,3,,,64,0
231825,note_on,225,0,3,,,,,,,,2,,,67,0
231825,note_on,40,0,6,,,,,,,,5,,,48,0
231835,note_on,115,0,1,,,,,,,,0,,,76,0
231840,note_on,0,0,6,,,,,,,,5,,,53,64
231840,note_on,15,0,2,,,,,,,,1,,,72,49
231840,note_on,15,0,6,,,,,,,,5,,,72,85
231840,note_on,0,0,6,,,,,,,,5,,,70,64
231840,note_on,0,0,6,,,,,,,,5,,,65,64
231840,note_on,15,0,5,,,,,,,,4,,,53,64
231840,note_on,5,0,1,,,,,,,,0,,,77,106
231840,note_on,15,0,4,,,,,,,,3,,,65,49
231840,note_on,15,0,3,,,,,,,,2,,,69,49
231955,note_on,115,0,1,,,,,,,,0,,,77,0
231960,note_on,5,0,1,,,,,,,,0,,,81,106
232065,note_on,225,0,6,,,,,,,,5,,,53,0
232065,note_on,225,0,4,,,,,,,,3,,,65,0
232065,note_on,225,0,5,,,,,,,,4,,,53,0
232065,note_on,225,0,3,,,,,,,,2,,,69,0
232065,note_on,225,0,2,,,,,,,,1,,,72,0
232075,note_on,115,0,1,,,,,,,,0,,,81,0
232080,note_on,15,0,2,,,,,,,,1,,,77,49
232080,note_on,15,0,3,,,,,,,,2,,,72,49
232080,note_on,15,0,6,,,,,,,,5,,,53,64
232080,note_on,15,0,5,,,,,,,,4,,,53,64
232080,note_on,5,0,1,,,,,,,,0,,,84,106
232080,note_on,15,0,4,,,,,,,,3,,,69,49
232195,note_on,115,0,1,,,,,,,,0,,,84,0
232200,note_on,5,0,1,,,,,,,,0,,,79,106
232305,note_on,225,0,6,,,,,,,,5,,,53,0
232305,note_on,225,0,3,,,,,,,,2,,,72,0
232305,note_on,225,0,4,,,,,,,,3,,,69,0
232305,note_on,225,0,2,,,,,,,,1,,,77,0
232305,note_on,225,0,5,,,,,,,,4,,,53,0
232315,note_on,115,0,1,,,,,,,,0,,,79,0
232320,note_on,5,0,1,,,,,,,,0,,,77,106
232320,note_on,15,0,4,,,,,,,,3,,,65,49
232320,note_on,15,0,3,,,,,,,,2,,,69,49
232320,note_on,15,0,6,,,,,,,,5,,,53,64
232320,note_on,15,0,5,,,,,,,,4,,,53,64
232320,note_on,15,0,2,,,,,,,,1,,,72,49
232435,note_on,115,0,1,,,,,,,,0,,,77,0
232440,note_on,5,0,1,,,,,,,,0,,,75,106
232505,note_on,185,0,6,,,,,,,,5,,,65,0
232505,note_on,0,0,6,,,,,,,,5,,,70,0
232505,note_on,0,0,6,,,,,,,,5,,,72,0
232545,note_on,225,0,2,,,,,,,,1,,,72,0
232545,note_on,225,0,5,,,,,,,,4,,,53,0
232545,note_on,40,0,6,,,,,,,,5,,,53,0
232545,note_on,225,0,3,,,,,,,,2,,,69,0
232545,note_on,225,0,4,,,,,,,,3,,,65,0
232555,note_on,115,0,1,,,,,,,,0,,,75,0
232560,note_on,15,0,3,,,,,,,,2,,,65,49
232560,note_on,5,0,1,,,,,,,,0,,,74,106
232560,note_on,15,0,6,,,,,,,,5,,,74,85
232560,note_on,0,0,6,,,,,,,,5,,,72,64
232560,note_on,0,0,6,,,,,,,,5,,,65,64
232560,note_on,0,0,6,,,,,,,,5,,,46,64
232560,note_on,15,0,4,,,,,,,,3,,,65,49
232560,note_on,15,0,2,,,,,,,,1,,,70,49
232560,note_on,15,0,5,,,,,,,,4,,,46,64
232675,note_on,115,0,1,,,,,,,,0,,,74,0
232680,note_on,5,0,1,,,,,,,,0,,,77,106
232785,note_on,225,0,6,,,,,,,,5,,,46,0
232785,note_on,225,0,4,,,,,,,,3,,,65,0
232785,note_on,225,0,3,,,,,,,,2,,,65,0
232785,note_on,225,0,2,,,,,,,,1,,,70,0
232785,note_on,225,0,5,,,,,,,,4,,,46,0
232795,note_on,115,0,1,,,,,,,,0,,,77,0
232800,note_on,5,0,1,,,,,,,,0,,,82,106
232800,note_on,15,0,6,,,,,,,,5,,,46,64
232800,note_on,15,0,4,,,,,,,,3,,,70,49
232800,note_on,15,0,2,,,,,,,,1,,,77,49
232800,note_on,15,0,3,,,,,,,,2,,,74,49
232800,note_on,15,0,5,,,,,,,,4,,,46,64
232915,note_on,115,0,1,,,,,,,,0,,,82,0
232920,note_on,5,0,1,,,,,,,,0,,,77,106
233025,note_on,225,0,4,,,,,,,,3,,,70,0
233025,note_on,225,0,2,,,,,,,,1,,,77,0
233025,note_on,225,0,5,,,,,,,,4,,,46,0
233025,note_on,225,0,6,,,,,,,,5,,,46,0
233025,note_on,225,0,3,,,,,,,,2,,,74,0
233035,note_on,115,0,1,,,,,,,,0,,,77,0
233040,note_on,15,0,5,,,,,,,,4,,,46,64
233040,note_on,15,0,2,,,,,,,,1,,,74,49
233040,note_on,15,0,4,,,,,,,,3,,,62,49
233040,note_on,15,0,6,,,,,,,,5,,,46,64
233040,note_on,5,0,1,,,,,,,,0,,,75,106
233040,note_on,15,0,3,,,,,,,,2,,,65,49
233155,note_on,115,0,1,,,,,,,,0,,,75,0
233160,note_on,5,0,1,,,,,,,,0,,,74,106
233225,note_on,0,0,6,,,,,,,,5,,,72,0
233225,note_on,0,0,6,,,,,,,,5,,,74,0
233225,note_on,185,0,6,,,,,,,,5,,,65,0
233265,note_on,225,0,4,,,,,,,,3,,,62,0
233265,note_on,40,0,6,,,,,,,,5,,,46,0
233265,note_on,225,0,2,,,,,,,,1,,,74,0
233265,note_on,225,0,5,,,,,,,,4,,,46,0
233265,note_on,225,0,3,,,,,,,,2,,,65,0
233275,note_on,115,0,1,,,,,,,,0,,,74,0
233280,note_on,15,0,2,,,,,,,,1,,,74,49
233280,note_on,5,0,1,,,,,,,,0,,,79,106
233280,note_on,15,0,6,,,,,,,,5,,,74,85
233280,note_on,0,0,6,,,,,,,,5,,,47,64
233280,note_on,15,0,4,,,,,,,,3,,,59,49
233280,note_on,15,0,5,,,,,,,,4,,,47,64
233280,note_on,15,0,3,,,,,,,,2,,,67,49
233280,note_on,0,0,6,,,,,,,,5,,,67,64
233505,note_on,225,0,6,,,,,,,,5,,,47,0
233505,note_on,225,0,4,,,,,,,,3,,,59,0
233505,note_on,225,0,2,,,,,,,,1,,,74,0
233505,note_on,225,0,3,,,,,,,,2,,,67,0
233505,note_on,225,0,1,,,,,,,,0,,,79,0
233505,note_on,225,0,5,,,,,,,,4,,,47,0
233520,note_on,15,0,3,,,,,,,,2,,,74,49
233520,note_on,15,0,5,,,,,,,,4,,,47,64
233520,note_on,15,0,2,,,,,,,,1,,,79,49
233520,note_on,15,0,4,,,,,,,,3,,,71,49
233520,note_on,15,0,6,,,,,,,,5,,,47,64
233600,note_on,95,0,1,,,,,,,,0,,,71,106
233675,note_on,75,0,1,,,,,,,,0,,,71,0
233680,note_on,5,0,1,,,,,,,,0,,,72,106
233745,note_on,225,0,6,,,,,,,,5,,,47,0
233745,note_on,225,0,5,,,,,,,,4,,,47,0
233745,note_on,225,0,2,,,,,,,,1,,,79,0
233745,note_on,225,0,4,,,,,,,,3,,,71,0
233745,note_on,225,0,3,,,,,,,,2,,,74,0
233755,note_on,75,0,1,,,,,,,,0,,,72,0
233760,note_on,15,0,3,,,,,,,,2,,,71,49
233760,note_on,5,0,1,,,,,,,,0,,,74,106
233760,note_on,15,0,5,,,,,,,,4,,,47,64
233760,note_on,15,0,2,,,,,,,,1,,,74,49
233760,note_on,15,0,6,,,,,,,,5,,,47,64
233760,note_on,15,0,4,,,,,,,,3,,,67,49
233835,note_on,75,0,1,,,,,,,,0,,,74,0
233840,note_on,5,0,1,,,,,,,,0,,,76,106
233915,note_on,75,0,1,,,,,,,,0,,,76,0
233920,note_on,5,0,1,,,,,,,,0,,,77,106
233945,note_on,185,0,6,,,,,,,,5,,,67,0
233945,note_on,0,0,6,,,,,,,,5,,,74,0
233985,note_on,225,0,4,,,,,,,,3,,,67,0
233985,note_on,225,0,3,,,,,,,,2,,,71,0
233985,note_on,225,0,2,,,,,,,,1,,,74,0
233985,note_on,40,0,6,,,,,,,,5,,,47,0
233985,note_on,225,0,5,,,,,,,,4,,,47,0
233995,note_on,75,0,1,,,,,,,,0,,,77,0
234000,note_on,15,0,4,,,,,,,,3,,,60,49
234000,note_on,15,0,5,,,,,,,,4,,,48,64
234000,note_on,15,0,2,,,,,,,,1,,,76,49
234000,note_on,5,0,1,,,,,,,,0,,,76,106
234000,note_on,0,0,6,,,,,,,,5,,,72,64
234000,note_on,0,0,6,,,,,,,,5,,,48,64
234000,note_on,0,0,6,,,,,,,,5,,,67,64
234000,note_on,15,0,6,,,,,,,,5,,,76,85
234000,note_on,15,0,3,,,,,,,,2,,,67,49
234115,note_on,115,0,1,,,,,,,,0,,,76,0
234120,note_on,5,0,1,,,,,,,,0,,,72,106
234225,note_on,225,0,3,,,,,,,,2,,,67,0
234225,note_on,225,0,6,,,,,,,,5,,,48,0
234225,note_on,225,0,5,,,,,,,,4,,,48,0
234225,note_on,225,0,2,,,,,,,,1,,,76,0
234225,note_on,225,0,4,,,,,,,,3,,,60,0
234235,note_on,115,0,1,,,,,,,,0,,,72,0
234240,note_on,15,0,2,,,,,,,,1,,,79,49
234240,note_on,15,0,3,,,,,,,,2,,,76,49
234240,note_on,15,0,6,,,,,,,,5,,,48,64
234240,note_on,5,0,1,,,,,,,,0,,,76,106
234240,note_on,15,0,4,,,,,,,,3,,,72,49
234240,note_on,15,0,5,,,,,,,,4,,,48,64
234355,note_on,115,0,1,,,,,,,,0,,,76,0
234360,note_on,5,0,1,,,,,,,,0,,,79,106
234465,note_on,225,0,2,,,,,,,,1,,,79,0
234465,note_on,225,0,4,,,,,,,,3,,,72,0
234465,note_on,225,0,6,,,,,,,,5,,,48,0
234465,note_on,225,0,3,,,,,,,,2,,,76,0
234465,note_on,225,0,5,,,,,,,,4,,,48,0
234475,note_on,115,0,1,,,,,,,,0,,,79,0
234480,note_on,15,0,5,,,,,,,,4,,,48,64
234480,note_on,15,0,4,,,,,,,,3,,,67,49
234480,note_on,15,0,2,,,,,,,,1,,,76,49
234480,note_on,15,0,6,,,,,,,,5,,,48,64
234480,note_on,5,0,1,,,,,,,,0,,,76,106
234480,note_on,15,0,3,,,,,,,,2,,,79,49
234595,note_on,115,0,1,,,,,,,,0,,,76,0
234600,note_on,5,0,1,,,,,,,,0,,,72,106
234665,note_on,0,0,6,,,,,,,,5,,,72,0
234665,note_on,185,0,6,,,,,,,,5,,,67,0
234665,note_on,0,0,6,,,,,,,,5,,,76,0
234705,note_on,225,0,5,,,,,,,,4,,,48,0
234705,note_on,40,0,6,,,,,,,,5,,,48,0
234705,note_on,225,0,2,,,,,,,,1,,,76,0
234705,note_on,225,0,3,,,,,,,,2,,,79,0
234705,note_on,225,0,4,,,,,,,,3,,,67,0
234715,note_on,115,0,1,,,,,,,,0,,,72,0
234720,note_on,5,0,1,,,,,,,,0,,,81,106
234720,note_on,15,0,2,,,,,,,,1,,,76,49
234720,note_on,15,0,3,,,,,,,,2,,,73,49
234720,note_on,15,0,4,,,,,,,,3,,,61,49
234720,note_on,0,0,6,,,,,,,,5,,,69,64
234720,note_on,15,0,5,,,,,,,,4,,,49,64
234720,note_on,15,0,6,,,,,,,,5,,,76,85
234720,note_on,0,0,6,,,,,,,,5,,,49,64
234945,note_on,225,0,6,,,,,,,,5,,,49,0
234945,note_on,225,0,4,,,,,,,,3,,,61,0
234945,note_on,225,0,1,,,,,,,,0,,,81,0
234945,note_on,225,0,3,,,,,,,,2,,,73,0
234945,note_on,225,0,5,,,,,,,,4,,,49,0
234945,note_on,225,0,2,,,,,,,,1,,,76,0
234960,note_on,15,0,5,,,,,,,,4,,,49,64
234960,note_on,15,0,6,,,,,,,,5,,,49,64
234960,note_on,15,0,2,,,,,,,,1,,,81,49
234960,note_on,15,0,3,,,,,,,,2,,,76,49
234960,note_on,15,0,4,,,,,,,,3,,,73,49
235040,note_on,95,0,1,,,,,,,,0,,,73,106
235115,note_on,75,0,1,,,,,,,,0,,,73,0
235120,note_on,5,0,1,,,,,,,,0,,,74,106
235185,note_on,225,0,6,,,,,,,,5,,,49,0
235185,note_on,225,0,5,,,,,,,,4,,,49,0
235185,note_on,225,0,2,,,,,,,,1,,,81,0
235185,note_on,225,0,3,,,,,,,,2,,,76,0
235185,note_on,225,0,4,,,,,,,,3,,,73,0
235195,note_on,75,0,1,,,,,,,,0,,,74,0
235200,note_on,15,0,3,,,,,,,,2,,,73,49
235200,note_on,15,0,6,,,,,,,,5,,,49,64
235200,note_on,15,0,2,,,,,,,,1,,,76,49
235200,note_on,5,0,1,,,,,,,,0,,,76,106
235200,note_on,15,0,5,,,,,,,,4,,,49,64
235200,note_on,15,0,4,,,,,,,,3,,,69,49
235275,note_on,75,0,1,,,,,,,,0,,,76,0
235280,note_on,5,0,1,,,,,,,,0,,,78,106
235355,note_on,75,0,1,,,,,,,,0,,,78,0
235360,note_on,5,0,1,,,,,,,,0,,,79,106
235385,note_on,185,0,6,,,,,,,,5,,,69,0
235385,note_on,0,0,6,,,,,,,,5,,,76,0
235425,note_on,225,0,2,,,,,,,,1,,,76,0
235425,note_on,40,0,6,,,,,,,,5,,,49,0
235425,note_on,225,0,5,,,,,,,,4,,,49,0
235425,note_on,225,0,4,,,,,,,,3,,,69,0
235425,note_on,225,0,3,,,,,,,,2,,,73,0
235435,note_on,75,0,1,,,,,,,,0,,,79,0
235440,note_on,15,0,5,,,,,,,,4,,,50,64
235440,note_on,0,0,6,,,,,,,,5,,,50,64
235440,note_on,0,0,6,,,,,,,,5,,,69,64
235440,note_on,0,0,6,,,,,,,,5,,,74,64
235440,note_on,15,0,3,,,,,,,,2,,,69,49
235440,note_on,15,0,6,,,,,,,,5,,,78,85
235440,note_on,5,0,1,,,,,,,,0,,,78,106
235440,note_on,15,0,4,,,,,,,,3,,,62,49
235440,note_on,15,0,2,,,,,,,,1,,,78,49
235555,note_on,115,0,1,,,,,,,,0,,,78,0
235560,note_on,5,0,1,,,,,,,,0,,,74,106
235665,note_on,225,0,6,,,,,,,,5,,,50,0
235665,note_on,225,0,5,,,,,,,,4,,,50,0
235665,note_on,225,0,2,,,,,,,,1,,,78,0
235665,note_on,225,0,3,,,,,,,,2,,,69,0
235665,note_on,225,0,4,,,,,,,,3,,,62,0
235675,note_on,115,0,1,,,,,,,,0,,,74,0
235680,note_on,5,0,1,,,,,,,,0,,,78,106
235680,note_on,15,0,5,,,,,,,,4,,,50,64
235680,note_on,15,0,3,,,,,,,,2,,,78,49
235680,note_on,15,0,4,,,,,,,,3,,,74,49
235680,note_on,15,0,6,,,,,,,,5,,,50,64
235680,note_on,15,0,2,,,,,,,,1,,,81,49
235795,note_on,115,0,1,,,,,,,,0,,,78,0
235800,note_on,5,0,1,,,,,,,,0,,,81,106
235905,note_on,225,0,2,,,,,,,,1,,,81,0
235905,note_on,225,0,4,,,,,,,,3,,,74,0
235905,note_on,225,0,6,,,,,,,,5,,,50,0
235905,note_on,225,0,3,,,,,,,,2,,,78,0
235905,note_on,225,0,5,,,,,,,,4,,,50,0
235915,note_on,115,0,1,,,,,,,,0,,,81,0
235920,note_on,15,0,2,,,,,,,,1,,,78,49
235920,note_on,15,0,3,,,,,,,,2,,,81,49
235920,note_on,5,0,1,,,,,,,,0,,,78,106
235920,note_on,15,0,6,,,,,,,,5,,,50,64
235920,note_on,15,0,5,,,,,,,,4,,,50,64
235920,note_on,15,0,4,,,,,,,,3,,,69,49
236035,note_on,115,0,1,,,,,,,,0,,,78,0
236040,note_on,5,0,1,,,,,,,,0,,,74,106
236105,note_on,185,0,6,,,,,,,,5,,,69,0
236105,note_on,0,0,6,,,,,,,,5,,,74,0
236105,note_on,0,0,6,,,,,,,,5,,,78,0
236145,note_on,40,0,6,,,,,,,,5,,,50,0
236145,note_on,225,0,3,,,,,,,,2,,,81,0
236145,note_on,225,0,4,,,,,,,,3,,,69,0
236145,note_on,225,0,5,,,,,,,,4,,,50,0
236145,note_on,225,0,2,,,,,,,,1,,,78,0
236155,note_on,115,0,1,,,,,,,,0,,,74,0
236160,note_on,5,0,1,,,,,,,,0,,,83,106
236160,note_on,15,0,4,,,,,,,,3,,,63,49
236160,note_on,15,0,3,,,,,,,,2,,,75,49
236160,note_on,15,0,5,,,,,,,,4,,,51,64
236160,note_on,15,0,2,,,,,,,,1,,,78,49
236160,note_on,0,0,6,,,,,,,,5,,,51,64
236160,note_on,0,0,6,,,,,,,,5,,,71,64
236160,note_on,15,0,6,,,,,,,,5,,,78,85
236385,note_on,225,0,3,,,,,,,,2,,,75,0
236385,note_on,225,0,4,,,,,,,,3,,,63,0
236385,note_on,225,0,2,,,,,,,,1,,,78,0
236385,note_on,225,0,6,,,,,,,,5,,,51,0
236385,note_on,225,0,1,,,,,,,,0,,,83,0
236385,note_on,225,0,5,,,,,,,,4,,,51,0
236400,note_on,15,0,6,,,,,,,,5,,,51,64
236400,note_on,15,0,5,,,,,,,,4,,,51,64
236400,note_on,15,0,3,,,,,,,,2,,,78,49
236400,note_on,15,0,4,,,,,,,,3,,,75,49
236400,note_on,15,0,2,,,,,,,,1,,,83,49
236480,note_on,95,0,1,,,,,,,,0,,,75,106
236555,note_on,75,0,1,,,,,,,,0,,,75,0
236560,note_on,5,0,1,,,,,,,,0,,,76,106
236625,note_on,225,0,2,,,,,,,,1,,,83,0
236625,note_on,225,0,4,,,,,,,,3,,,75,0
236625,note_on,225,0,3,,,,,,,,2,,,78,0
236625,note_on,225,0,6,,,,,,,,5,,,51,0
236625,note_on,225,0,5,,,,,,,,4,,,51,0
236635,note_on,75,0,1,,,,,,,,0,,,76,0
236640,note_on,15,0,5,,,,,,,,4,,,51,64
236640,note_on,15,0,4,,,,,,,,3,,,71,49
236640,note_on,15,0,6,,,,,,,,5,,,51,64
236640,note_on,15,0,2,,,,,,,,1,,,78,49
236640,note_on,15,0,3,,,,,,,,2,,,75,49
236640,note_on,5,0,1,,,,,,,,0,,,78,106
236715,note_on,75,0,1,,,,,,,,0,,,78,0
236720,note_on,5,0,1,,,,,,,,0,,,80,106
236795,note_on,75,0,1,,,,,,,,0,,,80,0
236800,note_on,5,0,1,,,,,,,,0,,,81,106
236825,note_on,185,0,6,,,,,,,,5,,,71,0
236825,note_on,0,0,6,,,,,,,,5,,,78,0
236865,note_on,225,0,4,,,,,,,,3,,,71,0
236865,note_on,225,0,5,,,,,,,,4,,,51,0
236865,note_on,40,0,6,,,,,,,,5,,,51,0
236865,note_on,225,0,3,,,,,,,,2,,,75,0
236865,note_on,225,0,2,,,,,,,,1,,,78,0
236875,note_on,75,0,1,,,,,,,,0,,,81,0
236880,note_on,15,0,4,,,,,,,,3,,,64,49
236880,note_on,15,0,3,,,,,,,,2,,,71,49
236880,note_on,5,0,1,,,,,,,,0,,,80,106
236880,note_on,15,0,6,,,,,,,,5,,,80,85
236880,note_on,0,0,6,,,,,,,,5,,,76,64
236880,note_on,0,0,6,,,,,,,,5,,,52,64
236880,note_on,0,0,6,,,,,,,,5,,,71,64
236880,note_on,15,0,5,,,,,,,,4,,,52,64
236880,note_on,15,0,2,,,,,,,,1,,,80,49
236995,note_on,115,0,1,,,,,,,,0,,,80,0
237000,note_on,5,0,1,,,,,,,,0,,,76,106
237105,note_on,225,0,3,,,,,,,,2,,,71,0
237105,note_on,225,0,4,,,,,,,,3,,,64,0
237105,note_on,225,0,2,,,,,,,,1,,,80,0
237105,note_on,225,0,5,,,,,,,,4,,,52,0
237105,note_on,225,0,6,,,,,,,,5,,,52,0
237115,note_on,115,0,1,,,,,,,,0,,,76,0
237120,note_on,5,0,1,,,,,,,,0,,,83,106
237120,note_on,15,0,3,,,,,,,,2,,,74,49
237120,note_on,15,0,4,,,,,,,,3,,,64,49
237120,note_on,15,0,5,,,,,,,,4,,,52,64
237120,note_on,15,0,6,,,,,,,,5,,,52,64
237120,note_on,15,0,2,,,,,,,,1,,,83,49
237235,note_on,115,0,1,,,,,,,,0,,,83,0
237240,note_on,5,0,1,,,,,,,,0,,,76,106
237345,note_on,225,0,4,,,,,,,,3,,,64,0
237345,note_on,225,0,2,,,,,,,,1,,,83,0
237345,note_on,225,0,5,,,,,,,,4,,,52,0
237345,note_on,225,0,6,,,,,,,,5,,,52,0
237345,note_on,225,0,3,,,,,,,,2,,,74,0
237355,note_on,115,0,1,,,,,,,,0,,,76,0
237360,note_on,15,0,5,,,,,,,,4,,,52,64
237360,note_on,5,0,1,,,,,,,,0,,,80,106
237360,note_on,15,0,2,,,,,,,,1,,,80,49
237360,note_on,15,0,4,,,,,,,,3,,,64,49
237360,note_on,15,0,6,,,,,,,,5,,,52,64
237360,note_on,15,0,3,,,,,,,,2,,,71,49
237475,note_on,115,0,1,,,,,,,,0,,,80,0
237480,note_on,5,0,1,,,,,,,,0,,,76,106
237545,note_on,0,0,6,,,,,,,,5,,,76,0
237545,note_on,185,0,6,,,,,,,,5,,,71,0
237545,note_on,0,0,6,,,,,,,,5,,,80,0
237585,note_on,225,0,4,,,,,,,,3,,,64,0
237585,note_on,40,0,6,,,,,,,,5,,,52,0
237585,note_on,225,0,5,,,,,,,,4,,,52,0
237585,note_on,225,0,3,,,,,,,,2,,,71,0
237585,note_on,225,0,2,,,,,,,,1,,,80,0
237595,note_on,115,0,1,,,,,,,,0,,,76,0
237600,note_on,5,0,1,,,,,,,,0,,,81,106
237600,note_on,15,0,5,,,,,,,,4,,,52,64
237600,note_on,15,0,4,,,,,,,,3,,,64,49
237600,note_on,15,0,3,,,,,,,,2,,,72,49
237600,note_on,0,0,6,,,,,,,,5,,,76,64
237600,note_on,15,0,6,,,,,,,,5,,,81,85
237600,note_on,0,0,6,,,,,,,,5,,,72,64
237600,note_on,15,0,2,,,,,,,,1,,,81,49
237600,note_on,0,0,6,,,,,,,,5,,,52,64
237715,note_on,115,0,1,,,,,,,,0,,,81,0
237720,note_on,5,0,1,,,,,,,,0,,,76,106
237825,note_on,225,0,2,,,,,,,,1,,,81,0
237825,note_on,225,0,4,,,,,,,,3,,,64,0
237825,note_on,225,0,6,,,,,,,,5,,,52,0
237825,note_on,225,0,5,,,,,,,,4,,,52,0
237825,note_on,225,0,3,,,,,,,,2,,,72,0
237835,note_on,115,0,1,,,,,,,,0,,,76,0
237840,note_on,15,0,2,,,,,,,,1,,,84,49
237840,note_on,15,0,4,,,,,,,,3,,,64,49
237840,note_on,15,0,3,,,,,,,,2,,,76,49
237840,note_on,15,0,6,,,,,,,,5,,,52,64
237840,note_on,15,0,5,,,,,,,,4,,,52,64
237840,note_on,5,0,1,,,,,,,,0,,,84,106
237955,note_on,115,0,1,,,,,,,,0,,,84,0
237960,note_on,5,0,1,,,,,,,,0,,,76,106
238065,note_on,225,0,6,,,,,,,,5,,,52,0
238065,note_on,225,0,3,,,,,,,,2,,,76,0
238065,note_on,225,0,2,,,,,,,,1,,,84,0
238065,note_on,225,0,4,,,,,,,,3,,,64,0
238065,note_on,225,0,5,,,,,,,,4,,,52,0
238075,note_on,115,0,1,,,,,,,,0,,,76,0
238080,note_on,15,0,3,,,,,,,,2,,,72,49
238080,note_on,15,0,5,,,,,,,,4,,,52,64
238080,note_on,15,0,6,,,,,,,,5,,,52,64
238080,note_on,5,0,1,,,,,,,,0,,,81,106
238080,note_on,15,0,4,,,,,,,,3,,,64,49
238080,note_on,15,0,2,,,,,,,,1,,,81,49
238195,note_on,115,0,1,,,,,,,,0,,,81,0
238200,note_on,5,0,1,,,,,,,,0,,,76,106
238265,note_on,0,0,6,,,,,,,,5,,,76,0
238265,note_on,0,0,6,,,,,,,,5,,,81,0
238265,note_on,185,0,6,,,,,,,,5,,,72,0
238305,note_on,225,0,4,,,,,,,,3,,,64,0
238305,note_on,225,0,2,,,,,,,,1,,,81,0
238305,note_on,40,0,6,,,,,,,,5,,,52,0
238305,note_on,225,0,5,,,,,,,,4,,,52,0
238305,note_on,225,0,3,,,,,,,,2,,,72,0
238315,note_on,115,0,1,,,,,,,,0,,,76,0
238320,note_on,5,0,1,,,,,,,,0,,,80,85
238320,note_on,15,0,4,,,,,,,,3,,,64,34
238320,note_on,15,0,5,,,,,,,,4,,,52,49
238320,note_on,0,0,6,,,,,,,,5,,,76,64
238320,note_on,0,0,6,,,,,,,,5,,,71,64
238320,note_on,0,0,6,,,,,,,,5,,,52,64
238320,note_on,15,0,2,,,,,,,,1,,,80,34
238320,note_on,15,0,3,,,,,,,,2,,,71,34
238320,note_on,15,0,6,,,,,,,,5,,,80,85
238435,note_on,115,0,1,,,,,,,,0,,,80,0
238440,note_on,5,0,1,,,,,,,,0,,,76,85
238545,note_on,225,0,4,,,,,,,,3,,,64,0
238545,note_on,225,0,5,,,,,,,,4,,,52,0
238545,note_on,225,0,2,,,,,,,,1,,,80,0
238545,note_on,225,0,6,,,,,,,,5,,,52,0
238545,note_on,225,0,3,,,,,,,,2,,,71,0
238555,note_on,115,0,1,,,,,,,,0,,,76,0
238560,note_on,15,0,2,,,,,,,,1,,,83,34
238560,note_on,5,0,1,,,,,,,,0,,,83,85
238560,note_on,15,0,5,,,,,,,,4,,,52,49
238560,note_on,15,0,4,,,,,,,,3,,,64,34
238560,note_on,15,0,3,,,,,,,,2,,,74,34
238560,note_on,15,0,6,,,,,,,,5,,,52,64
238675,note_on,115,0,1,,,,,,,,0,,,83,0
238680,note_on,5,0,1,,,,,,,,0,,,76,85
238785,note_on,225,0,3,,,,,,,,2,,,74,0
238785,note_on,225,0,6,,,,,,,,5,,,52,0
238785,note_on,225,0,4,,,,,,,,3,,,64,0
238785,note_on,225,0,5,,,,,,,,4,,,52,0
238785,note_on,225,0,2,,,,,,,,1,,,83,0
238795,note_on,115,0,1,,,,,,,,0,,,76,0
238800,note_on,15,0,6,,,,,,,,5,,,52,64
238800,note_on,15,0,4,,,,,,,,3,,,64,34
238800,note_on,15,0,3,,,,,,,,2,,,71,34
238800,note_on,15,0,5,,,,,,,,4,,,52,49
238800,note_on,15,0,2,,,,,,,,1,,,80,34
238800,note_on,5,0,1,,,,,,,,0,,,80,85
238915,note_on,115,0,1,,,,,,,,0,,,80,0
238920,note_on,5,0,1,,,,,,,,0,,,76,85
238985,note_on,0,0,6,,,,,,,,5,,,80,0
238985,note_on,0,0,6,,,,,,,,5,,,76,0
238985,note_on,185,0,6,,,,,,,,5,,,71,0
239025,note_on,225,0,5,,,,,,,,4,,,52,0
239025,note_on,225,0,2,,,,,,,,1,,,80,0
239025,note_on,225,0,4,,,,,,,,3,,,64,0
239025,note_on,225,0,3,,,,,,,,2,,,71,0
239025,note_on,40,0,6,,,,,,,,5,,,52,0
239035,note_on,115,0,1,,,,,,,,0,,,76,0
239040,note_on,5,0,1,,,,,,,,0,,,81,85
239040,note_on,15,0,5,,,,,,,,4,,,52,49
239040,note_on,15,0,2,,,,,,,,1,,,81,34
239040,note_on,0,0,6,,,,,,,,5,,,52,64
239040,note_on,15,0,4,,,,,,,,3,,,64,34
239040,note_on,0,0,6,,,,,,,,5,,,72,64
239040,note_on,15,0,3,,,,,,,,2,,,72,34
239040,note_on,15,0,6,,,,,,,,5,,,76,85
239040,note_on,0,0,6,,,,,,,,5,,,69,64
239155,note_on,115,0,1,,,,,,,,0,,,81,0
239160,note_on,5,0,1,,,,,,,,0,,,76,85
239265,note_on,225,0,3,,,,,,,,2,,,72,0
239265,note_on,225,0,5,,,,,,,,4,,,52,0
239265,note_on,225,0,2,,,,,,,,1,,,81,0
239265,note_on,225,0,4,,,,,,,,3,,,64,0
239265,note_on,225,0,6,,,,,,,,5,,,52,0
239275,note_on,115,0,1,,,,,,,,0,,,76,0
239280,note_on,15,0,3,,,,,,,,2,,,76,34
239280,note_on,15,0,5,,,,,,,,4,,,52,49
239280,note_on,5,0,1,,,,,,,,0,,,84,85
239280,note_on,15,0,4,,,,,,,,3,,,64,34
239280,note_on,15,0,2,,,,,,,,1,,,84,34
239280,note_on,15,0,6,,,,,,,,5,,,52,64
239395,note_on,115,0,1,,,,,,,,0,,,84,0
239400,note_on,5,0,1,,,,,,,,0,,,76,85
239505,note_on,225,0,2,,,,,,,,1,,,84,0
239505,note_on,225,0,6,,,,,,,,5,,,52,0
239505,note_on,225,0,5,,,,,,,,4,,,52,0
239505,note_on,225,0,3,,,,,,,,2,,,76,0
239505,note_on,225,0,4,,,,,,,,3,,,64,0
239515,note_on,115,0,1,,,,,,,,0,,,76,0
239520,note_on,15,0,5,,,,,,,,4,,,52,49
239520,note_on,15,0,3,,,,,,,,2,,,72,34
239520,note_on,15,0,2,,,,,,,,1,,,81,34
239520,note_on,15,0,6,,,,,,,,5,,,52,64
239520,note_on,15,0,4,,,,,,,,3,,,64,34
239520,note_on,5,0,1,,,,,,,,0,,,81,85
239635,note_on,115,0,1,,,,,,,,0,,,81,0
239640,note_on,5,0,1,,,,,,,,0,,,76,85
239705,note_on,0,0,6,,,,,,,,5,,,72,0
239705,note_on,185,0,6,,,,,,,,5,,,69,0
239705,note_on,0,0,6,,,,,,,,5,,,76,0
239745,note_on,225,0,4,,,,,,,,3,,,64,0
239745,note_on,225,0,3,,,,,,,,2,,,72,0
239745,note_on,40,0,6,,,,,,,,5,,,52,0
239745,note_on,225,0,5,,,,,,,,4,,,52,0
239745,note_on,225,0,2,,,,,,,,1,,,81,0
239755,note_on,115,0,1,,,,,,,,0,,,76,0
239760,note_on,15,0,5,,,,,,,,4,,,52,49
239760,note_on,0,0,6,,,,,,,,5,,,71,64
239760,note_on,0,0,6,,,,,,,,5,,,68,64
239760,note_on,0,0,6,,,,,,,,5,,,52,64
239760,note_on,15,0,3,,,,,,,,2,,,71,34
239760,note_on,5,0,1,,,,,,,,0,,,80,106
239760,note_on,15,0,4,,,,,,,,3,,,64,34
239760,note_on,15,0,6,,,,,,,,5,,,76,85
239760,note_on,15,0,2,,,,,,,,1,,,80,34
239835,note_on,75,0,1,,,,,,,,0,,,80,0
239840,note_on,5,0,1,,,,,,,,0,,,78,106
239915,note_on,75,0,1,,,,,,,,0,,,78,0
239920,note_on,5,0,1,,,,,,,,0,,,76,106
239985,note_on,225,0,5,,,,,,,,4,,,52,0
239985,note_on,225,0,2,,,,,,,,1,,,80,0
239985,note_on,225,0,4,,,,,,,,3,,,64,0
239985,note_on,225,0,6,,,,,,,,5,,,52,0
239985,note_on,225,0,3,,,,,,,,2,,,71,0
239995,note_on,75,0,1,,,,,,,,0,,,76,0
240000,note_on,5,0,1,,,,,,,,0,,,83,106
240000,note_on,15,0,2,,,,,,,,1,,,83,34
240000,note_on,15,0,4,,,,,,,,3,,,64,34
240000,note_on,15,0,5,,,,,,,,4,,,52,49
240000,note_on,15,0,6,,,,,,,,5,,,52,64
240000,note_on,15,0,3,,,,,,,,2,,,74,34
240075,note_on,75,0,1,,,,,,,,0,,,83,0
240080,note_on,5,0,1,,,,,,,,0,,,81,106
240155,note_on,75,0,1,,,,,,,,0,,,81,0
240160,note_on,5,0,1,,,,,,,,0,,,80,106
240225,note_on,225,0,6,,,,,,,,5,,,52,0
240225,note_on,225,0,5,,,,,,,,4,,,52,0
240225,note_on,225,0,4,,,,,,,,3,,,64,0
240225,note_on,225,0,3,,,,,,,,2,,,74,0
240225,note_on,225,0,2,,,,,,,,1,,,83,0
240235,note_on,75,0,1,,,,,,,,0,,,80,0
240240,note_on,15,0,3,,,,,,,,2,,,71,34
240240,note_on,15,0,5,,,,,,,,4,,,52,49
240240,note_on,15,0,4,,,,,,,,3,,,64,34
240240,note_on,15,0,6,,,,,,,,5,,,52,64
240240,note_on,5,0,1,,,,,,,,0,,,86,106
240240,note_on,15,0,2,,,,,,,,1,,,80,34
240315,note_on,75,0,1,,,,,,,,0,,,86,0
240320,note_on,5,0,1,,,,,,,,0,,,84,106
240395,note_on,75,0,1,,,,,,,,0,,,84,0
240400,note_on,5,0,1,,,,,,,,0,,,83,106
240425,note_on,0,0,6,,,,,,,,5,,,71,0
240425,note_on,185,0,6,,,,,,,,5,,,68,0
240425,note_on,0,0,6,,,,,,,,5,,,76,0
240465,note_on,225,0,3,,,,,,,,2,,,71,0
240465,note_on,225,0,5,,,,,,,,4,,,52,0
240465,note_on,40,0,6,,,,,,,,5,,,52,0
240465,note_on,225,0,2,,,,,,,,1,,,80,0
240465,note_on,225,0,4,,,,,,,,3,,,64,0
240475,note_on,75,0,1,,,,,,,,0,,,83,0
240480,note_on,5,0,1,,,,,,,,0,,,81,106
240480,note_on,15,0,5,,,,,,,,4,,,45,49
240480,note_on,15,0,3,,,,,,,,2,,,72,34
240480,note_on,0,0,6,,,,,,,,5,,,69,64
240480,note_on,15,0,4,,,,,,,,3,,,57,34
240480,note_on,0,0,6,,,,,,,,5,,,45,64
240480,note_on,0,0,6,,,,,,,,5,,,72,64
240480,note_on,15,0,2,,,,,,,,1,,,81,34
240480,note_on,15,0,6,,,,,,,,5,,,76,85
240540,note_on,60,0,1,,,,,,,,0,,,81,0
240540,note_on,0,0,1,,,,,,,,0,,,76,106
240600,note_on,60,0,1,,,,,,,,0,,,76,0
240600,note_on,0,0,1,,,,,,,,0,,,78,106
240660,note_on,0,0,1,,,,,,,,0,,,80,106
240660,note_on,60,0,1,,,,,,,,0,,,78,0
240705,note_on,225,0,6,,,,,,,,5,,,45,0
240705,note_on,225,0,2,,,,,,,,1,,,81,0
240705,note_on,225,0,4,,,,,,,,3,,,57,0
240705,note_on,225,0,3,,,,,,,,2,,,72,0
240705,note_on,225,0,5,,,,,,,,4,,,45,0
240720,note_on,15,0,3,,,,,,,,2,,,81,34
240720,note_on,15,0,5,,,,,,,,4,,,52,49
240720,note_on,15,0,4,,,,,,,,3,,,64,34
240720,note_on,15,0,6,,,,,,,,5,,,52,64
240720,note_on,0,0,1,,,,,,,,0,,,81,106
240720,note_on,60,0,1,,,,,,,,0,,,80,0
240720,note_on,15,0,2,,,,,,,,1,,,72,34
240835,note_on,115,0,1,,,,,,,,0,,,81,0
240840,note_on,5,0,1,,,,,,,,0,,,72,106
240925,note_on,0,0,6,,,,,,,,5,,,72,0
240925,note_on,0,0,6,,,,,,,,5,,,69,0
240925,note_on,205,0,6,,,,,,,,5,,,76,0
240945,note_on,225,0,5,,,,,,,,4,,,52,0
240945,note_on,20,0,6,,,,,,,,5,,,52,0
240945,note_on,225,0,2,,,,,,,,1,,,72,0
240945,note_on,225,0,4,,,,,,,,3,,,64,0
240945,note_on,225,0,3,,,,,,,,2,,,81,0
240955,note_on,115,0,1,,,,,,,,0,,,72,0
240960,note_on,15,0,4,,,,,,,,3,,,52,34
240960,note_on,5,0,1,,,,,,,,0,,,71,106
240960,note_on,15,0,2,,,,,,,,1,,,71,34
240960,set_tempo,63840,1,0,,,,,,666667,,,,,,
240960,note_on,15,0,5,,,,,,,,4,,,40,49
240960,note_on,15,0,6,,,,,,,,5,,,76,85
240960,note_on,0,0,6,,,,,,,,5,,,71,64
240960,note_on,0,0,6,,,,,,,,5,,,68,64
240960,note_on,0,0,6,,,,,,,,5,,,40,64
240960,note_on,15,0,3,,,,,,,,2,,,80,34
241075,note_on,115,0,1,,,,,,,,0,,,71,0
241080,note_on,5,0,1,,,,,,,,0,,,80,106
241080,set_tempo,120,1,0,,,,,,857143,,,,,,
241147,set_tempo,67,1,0,,,,,,2400000,,,,,,
241147,note_on,67,0,1,,,,,,,,0,,,80,0
241185,note_on,225,0,3,,,,,,,,2,,,80,0
241185,note_on,225,0,2,,,,,,,,1,,,71,0
241185,note_on,225,0,4,,,,,,,,3,,,52,0
241185,note_on,225,0,5,,,,,,,,4,,,40,0
241185,note_on,225,0,6,,,,,,,,5,,,40,0
241185,note_on,0,0,6,,,,,,,,5,,,76,0
241185,note_on,0,0,6,,,,,,,,5,,,71,0
241185,note_on,0,0,6,,,,,,,,5,,,68,0
241200,note_on,15,0,4,,,,,,,,3,,,57,34
241200,note_on,15,0,5,,,,,,,,4,,,45,49
241200,note_on,53,0,1,,,,,,,,0,,,81,106
241200,note_on,15,0,3,,,,,,,,2,,,81,34
241200,note_on,15,0,2,,,,,,,,1,,,69,34
241200,note_on,15,0,6,,,,,,,,5,,,45,64
241205,set_tempo,58,1,0,,,,,,1000000,,,,,,
241236,note_on,36,0,6,,,,,,,,5,,,64,64
241252,note_on,16,0,6,,,,,,,,5,,,69,64
241278,note_on,26,0,6,,,,,,,,5,,,72,85
241645,note_on,445,0,2,,,,,,,,1,,,69,0
241645,note_on,445,0,5,,,,,,,,4,,,45,0
241645,note_on,445,0,4,,,,,,,,3,,,57,0
241645,note_on,367,0,6,,,,,,,,5,,,45,0
241645,note_on,445,0,3,,,,,,,,2,,,81,0
241645,note_on,445,0,1,,,,,,,,0,,,81,0
241648,set_tempo,443,1,0,,,,,,1200000,,,,,,
241681,note_on,36,0,6,,,,,,,,5,,,64,0
241697,note_on,16,0,6,,,,,,,,5,,,69,0
241723,note_on,26,0,6,,,,,,,,5,,,72,0
241920,set_tempo,272,1,0,,,,,,545455,,,,,,
241920,note_on,275,0,5,,,,,,,,4,,,65,85
241920,note_on,275,0,3,,,,,,,,2,,,77,85
241920,note_on,275,0,4,,,,,,,,3,,,77,85
241920,note_on,197,0,6,,,,,,,,5,,,77,85
241920,note_on,0,0,6,,,,,,,,5,,,65,64
241920,note_on,275,0,2,,,,,,,,1,,,77,85
241920,note_on,275,0,1,,,,,,,,0,,,77,85
242145,note_on,225,0,3,,,,,,,,2,,,77,0
242145,note_on,0,0,6,,,,,,,,5,,,77,0
242145,note_on,225,0,6,,,,,,,,5,,,65,0
242145,note_on,225,0,4,,,,,,,,3,,,77,0
242145,note_on,225,0,1,,,,,,,,0,,,77,0
242145,note_on,225,0,2,,,,,,,,1,,,77,0
242145,note_on,225,0,5,,,,,,,,4,,,65,0
242160,note_on,15,0,1,,,,,,,,0,,,65,85
242160,note_on,15,0,6,,,,,,,,5,,,65,85
242160,note_on,15,0,2,,,,,,,,1,,,65,85
242160,note_on,15,0,5,,,,,,,,4,,,53,85
242160,note_on,15,0,4,,,,,,,,3,,,65,85
242160,note_on,0,0,6,,,,,,,,5,,,53,64
242160,note_on,15,0,3,,,,,,,,2,,,65,85
242275,note_on,0,0,6,,,,,,,,5,,,65,0
242275,note_on,115,0,6,,,,,,,,5,,,53,0
242275,note_on,115,0,3,,,,,,,,2,,,65,0
242275,note_on,115,0,5,,,,,,,,4,,,53,0
242275,note_on,115,0,4,,,,,,,,3,,,65,0
242275,note_on,115,0,1,,,,,,,,0,,,65,0
242275,note_on,115,0,2,,,,,,,,1,,,65,0
242280,note_on,5,0,4,,,,,,,,3,,,67,85
242280,note_on,5,0,6,,,,,,,,5,,,67,85
242280,note_on,5,0,5,,,,,,,,4,,,55,85
242280,note_on,5,0,2,,,,,,,,1,,,67,85
242280,note_on,0,0,6,,,,,,,,5,,,55,64
242280,note_on,5,0,1,,,,,,,,0,,,67,85
242280,note_on,5,0,3,,,,,,,,2,,,67,85
242395,note_on,0,0,6,,,,,,,,5,,,67,0
242395,note_on,115,0,5,,,,,,,,4,,,55,0
242395,note_on,115,0,2,,,,,,,,1,,,67,0
242395,note_on,115,0,4,,,,,,,,3,,,67,0
242395,note_on,115,0,1,,,,,,,,0,,,67,0
242395,note_on,115,0,3,,,,,,,,2,,,67,0
242395,note_on,115,0,6,,,,,,,,5,,,55,0
242400,note_on,0,0,6,,,,,,,,5,,,53,64
242400,note_on,5,0,3,,,,,,,,2,,,65,85
242400,note_on,5,0,1,,,,,,,,0,,,65,85
242400,note_on,5,0,4,,,,,,,,3,,,65,85
242400,note_on,5,0,2,,,,,,,,1,,,65,85
242400,note_on,5,0,5,,,,,,,,4,,,53,85
242400,note_on,5,0,6,,,,,,,,5,,,65,85
242515,note_on,115,0,4,,,,,,,,3,,,65,0
242515,note_on,115,0,2,,,,,,,,1,,,65,0
242515,note_on,115,0,3,,,,,,,,2,,,65,0
242515,note_on,115,0,6,,,,,,,,5,,,53,0
242515,note_on,0,0,6,,,,,,,,5,,,65,0
242515,note_on,115,0,5,,,,,,,,4,,,53,0
242515,note_on,115,0,1,,,,,,,,0,,,65,0
242520,note_on,5,0,4,,,,,,,,3,,,67,85
242520,note_on,5,0,6,,,,,,,,5,,,67,85
242520,note_on,5,0,2,,,,,,,,1,,,67,85
242520,note_on,5,0,3,,,,,,,,2,,,67,85
242520,note_on,0,0,6,,,,,,,,5,,,55,64
242520,note_on,5,0,1,,,,,,,,0,,,67,85
242520,note_on,5,0,5,,,,,,,,4,,,55,85
242635,note_on,115,0,6,,,,,,,,5,,,55,0
242635,note_on,0,0,6,,,,,,,,5,,,67,0
242635,note_on,115,0,1,,,,,,,,0,,,67,0
242635,note_on,115,0,5,,,,,,,,4,,,55,0
242635,note_on,115,0,3,,,,,,,,2,,,67,0
242635,note_on,115,0,4,,,,,,,,3,,,67,0
242635,note_on,115,0,2,,,,,,,,1,,,67,0
242640,note_on,5,0,4,,,,,,,,3,,,65,85
242640,note_on,5,0,2,,,,,,,,1,,,65,85
242640,note_on,0,0,6,,,,,,,,5,,,53,64
242640,note_on,5,0,6,,,,,,,,5,,,65,85
242640,note_on,5,0,3,,,,,,,,2,,,65,85
242640,note_on,5,0,1,,,,,,,,0,,,65,85
242640,note_on,5,0,5,,,,,,,,4,,,53,85
242755,note_on,115,0,2,,,,,,,,1,,,65,0
242755,note_on,115,0,5,,,,,,,,4,,,53,0
242755,note_on,115,0,1,,,,,,,,0,,,65,0
242755,note_on,115,0,6,,,,,,,,5,,,53,0
242755,note_on,0,0,6,,,,,,,,5,,,65,0
242755,note_on,115,0,3,,,,,,,,2,,,65,0
242755,note_on,115,0,4,,,,,,,,3,,,65,0
242760,note_on,5,0,4,,,,,,,,3,,,74,85
242760,note_on,5,0,3,,,,,,,,2,,,74,85
242760,note_on,5,0,6,,,,,,,,5,,,74,85
242760,note_on,0,0,6,,,,,,,,5,,,62,64
242760,note_on,5,0,1,,,,,,,,0,,,74,85
242760,note_on,5,0,5,,,,,,,,4,,,62,85
242760,note_on,5,0,2,,,,,,,,1,,,74,85
242875,note_on,115,0,5,,,,,,,,4,,,62,0
242875,note_on,115,0,4,,,,,,,,3,,,74,0
242875,note_on,115,0,3,,,,,,,,2,,,74,0
242875,note_on,115,0,1,,,,,,,,0,,,74,0
242875,note_on,115,0,2,,,,,,,,1,,,74,0
242875,note_on,115,0,6,,,,,,,,5,,,62,0
242875,note_on,0,0,6,,,,,,,,5,,,74,0
242880,note_on,0,0,6,,,,,,,,5,,,60,64
242880,note_on,5,0,6,,,,,,,,5,,,72,85
242880,note_on,5,0,2,,,,,,,,1,,,72,85
242880,note_on,5,0,1,,,,,,,,0,,,72,85
242880,note_on,5,0,3,,,,,,,,2,,,72,85
242880,note_on,5,0,5,,,,,,,,4,,,60,85
242880,note_on,5,0,4,,,,,,,,3,,,72,85
242995,note_on,115,0,2,,,,,,,,1,,,72,0
242995,note_on,115,0,6,,,,,,,,5,,,60,0
242995,note_on,0,0,6,,,,,,,,5,,,72,0
242995,note_on,115,0,3,,,,,,,,2,,,72,0
242995,note_on,115,0,1,,,,,,,,0,,,72,0
242995,note_on,115,0,4,,,,,,,,3,,,72,0
242995,note_on,115,0,5,,,,,,,,4,,,60,0
243000,note_on,5,0,3,,,,,,,,2,,,70,85
243000,note_on,5,0,1,,,,,,,,0,,,70,85
243000,note_on,5,0,4,,,,,,,,3,,,70,85
243000,note_on,5,0,2,,,,,,,,1,,,70,85
243000,note_on,5,0,5,,,,,,,,4,,,58,85
243000,note_on,0,0,6,,,,,,,,5,,,58,64
243000,note_on,5,0,6,,,,,,,,5,,,70,85
243115,note_on,115,0,2,,,,,,,,1,,,70,0
243115,note_on,115,0,4,,,,,,,,3,,,70,0
243115,note_on,0,0,6,,,,,,,,5,,,70,0
243115,note_on,115,0,6,,,,,,,,5,,,58,0
243115,note_on,115,0,1,,,,,,,,0,,,70,0
243115,note_on,115,0,3,,,,,,,,2,,,70,0
243115,note_on,115,0,5,,,,,,,,4,,,58,0
243120,note_on,5,0,5,,,,,,,,4,,,57,85
243120,note_on,5,0,2,,,,,,,,1,,,69,85
243120,note_on,5,0,1,,,,,,,,0,,,69,85
243120,note_on,5,0,4,,,,,,,,3,,,69,85
243120,note_on,0,0,6,,,,,,,,5,,,57,64
243120,note_on,5,0,3,,,,,,,,2,,,69,85
243120,note_on,5,0,6,,,,,,,,5,,,69,85
243235,note_on,115,0,2,,,,,,,,1,,,69,0
243235,note_on,115,0,5,,,,,,,,4,,,57,0
243235,note_on,0,0,6,,,,,,,,5,,,69,0
243235,note_on,115,0,4,,,,,,,,3,,,69,0
243235,note_on,115,0,3,,,,,,,,2,,,69,0
243235,note_on,115,0,6,,,,,,,,5,,,57,0
243235,note_on,115,0,1,,,,,,,,0,,,69,0
243240,note_on,5,0,6,,,,,,,,5,,,67,85
243240,note_on,5,0,3,,,,,,,,2,,,67,85
243240,note_on,5,0,1,,,,,,,,0,,,67,85
243240,note_on,5,0,2,,,,,,,,1,,,67,85
243240,note_on,5,0,5,,,,,,,,4,,,55,85
243240,note_on,5,0,4,,,,,,,,3,,,67,85
243240,note_on,0,0,6,,,,,,,,5,,,55,64
243355,note_on,115,0,2,,,,,,,,1,,,67,0
243355,note_on,115,0,5,,,,,,,,4,,,55,0
243355,note_on,0,0,6,,,,,,,,5,,,67,0
243355,note_on,115,0,1,,,,,,,,0,,,67,0
243355,note_on,115,0,4,,,,,,,,3,,,67,0
243355,note_on,115,0,6,,,,,,,,5,,,55,0
243355,note_on,115,0,3,,,,,,,,2,,,67,0
243360,note_on,5,0,6,,,,,,,,5,,,65,85
243360,note_on,5,0,5,,,,,,,,4,,,53,85
243360,note_on,5,0,3,,,,,,,,2,,,65,85
243360,note_on,5,0,4,,,,,,,,3,,,65,85
243360,note_on,0,0,6,,,,,,,,5,,,53,64
243360,note_on,5,0,1,,,,,,,,0,,,65,85
243360,note_on,5,0,2,,,,,,,,1,,,65,85
243585,note_on,225,0,2,,,,,,,,1,,,65,0
243585,note_on,225,0,6,,,,,,,,5,,,53,0
243585,note_on,225,0,4,,,,,,,,3,,,65,0
243585,note_on,225,0,1,,,,,,,,0,,,65,0
243585,note_on,0,0,6,,,,,,,,5,,,65,0
243585,note_on,225,0,5,,,,,,,,4,,,53,0
243585,note_on,225,0,3,,,,,,,,2,,,65,0
243600,note_on,0,0,6,,,,,,,,5,,,65,64
243600,note_on,15,0,3,,,,,,,,2,,,77,85
243600,note_on,15,0,1,,,,,,,,0,,,77,85
243600,note_on,15,0,4,,,,,,,,3,,,77,85
243600,note_on,15,0,2,,,,,,,,1,,,77,85
243600,note_on,15,0,5,,,,,,,,4,,,65,85
243600,note_on,15,0,6,,,,,,,,5,,,77,85
243825,note_on,225,0,5,,,,,,,,4,,,65,0
243825,note_on,225,0,6,,,,,,,,5,,,65,0
243825,note_on,0,0,6,,,,,,,,5,,,77,0
243825,note_on,225,0,1,,,,,,,,0,,,77,0
243825,note_on,225,0,3,,,,,,,,2,,,77,0
243825,note_on,225,0,2,,,,,,,,1,,,77,0
243825,note_on,225,0,4,,,,,,,,3,,,77,0
243840,note_on,15,0,2,,,,,,,,1,,,65,85
243840,note_on,15,0,1,,,,,,,,0,,,65,85
243840,note_on,15,0,3,,,,,,,,2,,,65,85
243840,note_on,15,0,4,,,,,,,,3,,,65,85
243840,note_on,15,0,6,,,,,,,,5,,,65,85
243840,note_on,0,0,6,,,,,,,,5,,,53,64
243840,note_on,15,0,5,,,,,,,,4,,,53,85
244065,note_on,225,0,2,,,,,,,,1,,,65,0
244065,note_on,225,0,5,,,,,,,,4,,,53,0
244065,note_on,0,0,6,,,,,,,,5,,,65,0
244065,note_on,225,0,3,,,,,,,,2,,,65,0
244065,note_on,225,0,6,,,,,,,,5,,,53,0
244065,note_on,225,0,4,,,,,,,,3,,,65,0
244065,note_on,225,0,1,,,,,,,,0,,,65,0
244080,note_on,15,0,5,,,,,,,,4,,,53,85
244080,note_on,15,0,6,,,,,,,,5,,,77,85
244080,note_on,0,0,6,,,,,,,,5,,,72,64
244080,note_on,0,0,6,,,,,,,,5,,,69,64
244080,note_on,15,0,4,,,,,,,,3,,,65,85
244080,note_on,0,0,6,,,,,,,,5,,,53,64
244080,note_on,15,0,1,,,,,,,,0,,,84,106
244080,note_on,15,0,3,,,,,,,,2,,,65,85
244080,note_on,15,0,2,,,,,,,,1,,,65,85
244195,note_on,115,0,1,,,,,,,,0,,,84,0
244200,note_on,5,0,1,,,,,,,,0,,,86,106
244315,note_on,115,0,1,,,,,,,,0,,,86,0
244320,note_on,5,0,1,,,,,,,,0,,,84,106
244435,note_on,115,0,1,,,,,,,,0,,,84,0
244440,note_on,5,0,1,,,,,,,,0,,,82,106
244525,note_on,445,0,6,,,,,,,,5,,,53,0
244525,note_on,0,0,6,,,,,,,,5,,,77,0
244525,note_on,0,0,6,,,,,,,,5,,,69,0
244525,note_on,0,0,6,,,,,,,,5,,,72,0
244525,note_on,445,0,2,,,,,,,,1,,,65,0
244525,note_on,445,0,3,,,,,,,,2,,,65,0
244525,note_on,445,0,5,,,,,,,,4,,,53,0
244525,note_on,445,0,4,,,,,,,,3,,,65,0
244555,note_on,115,0,1,,,,,,,,0,,,82,0
244560,note_on,5,0,1,,,,,,,,0,,,81,106
244675,note_on,115,0,1,,,,,,,,0,,,81,0
244680,note_on,5,0,1,,,,,,,,0,,,79,106
244795,note_on,115,0,1,,,,,,,,0,,,79,0
244800,note_on,5,0,1,,,,,,,,0,,,81,106
244915,note_on,115,0,1,,,,,,,,0,,,81,0
244920,note_on,5,0,1,,,,,,,,0,,,82,106
245035,note_on,115,0,1,,,,,,,,0,,,82,0
245040,note_on,5,0,1,,,,,,,,0,,,81,106
245155,note_on,115,0,1,,,,,,,,0,,,81,0
245160,note_on,5,0,1,,,,,,,,0,,,79,106
245275,note_on,115,0,1,,,,,,,,0,,,79,0
245280,note_on,5,0,1,,,,,,,,0,,,77,106
245395,note_on,115,0,1,,,,,,,,0,,,77,0
245400,note_on,5,0,1,,,,,,,,0,,,76,106
245515,note_on,115,0,1,,,,,,,,0,,,76,0
245520,note_on,995,0,6,,,,,,,,5,,,77,85
245520,note_on,0,0,6,,,,,,,,5,,,65,64
245520,note_on,0,0,6,,,,,,,,5,,,69,64
245520,note_on,5,0,1,,,,,,,,0,,,77,85
245520,note_on,995,0,4,,,,,,,,3,,,77,85
245520,note_on,0,0,6,,,,,,,,5,,,72,64
245520,note_on,995,0,5,,,,,,,,4,,,65,85
245520,note_on,995,0,3,,,,,,,,2,,,77,85
245520,note_on,995,0,2,,,,,,,,1,,,77,85
245745,note_on,225,0,4,,,,,,,,3,,,77,0
245745,note_on,225,0,3,,,,,,,,2,,,77,0
245745,note_on,225,0,5,,,,,,,,4,,,65,0
245745,note_on,225,0,1,,,,,,,,0,,,77,0
245745,note_on,225,0,6,,,,,,,,5,,,65,0
245745,note_on,0,0,6,,,,,,,,5,,,77,0
245745,note_on,0,0,6,,,,,,,,5,,,72,0
245745,note_on,0,0,6,,,,,,,,5,,,69,0
245745,note_on,225,0,2,,,,,,,,1,,,77,0
245760,note_on,15,0,5,,,,,,,,4,,,53,85
245760,note_on,15,0,4,,,,,,,,3,,,65,85
245760,note_on,15,0,6,,,,,,,,5,,,65,85
245760,note_on,0,0,6,,,,,,,,5,,,53,64
245760,note_on,15,0,3,,,,,,,,2,,,65,85
245760,note_on,15,0,2,,,,,,,,1,,,65,85
245760,note_on,15,0,1,,,,,,,,0,,,65,85
245875,note_on,115,0,5,,,,,,,,4,,,53,0
245875,note_on,115,0,2,,,,,,,,1,,,65,0
245875,note_on,115,0,4,,,,,,,,3,,,65,0
245875,note_on,0,0,6,,,,,,,,5,,,65,0
245875,note_on,115,0,3,,,,,,,,2,,,65,0
245875,note_on,115,0,6,,,,,,,,5,,,53,0
245875,note_on,115,0,1,,,,,,,,0,,,65,0
245880,note_on,5,0,1,,,,,,,,0,,,67,85
245880,note_on,5,0,6,,,,,,,,5,,,67,85
245880,note_on,5,0,5,,,,,,,,4,,,55,85
245880,note_on,0,0,6,,,,,,,,5,,,55,64
245880,note_on,5,0,4,,,,,,,,3,,,67,85
245880,note_on,5,0,3,,,,,,,,2,,,67,85
245880,note_on,5,0,2,,,,,,,,1,,,67,85
245995,note_on,115,0,1,,,,,,,,0,,,67,0
245995,note_on,115,0,6,,,,,,,,5,,,55,0
245995,note_on,0,0,6,,,,,,,,5,,,67,0
245995,note_on,115,0,2,,,,,,,,1,,,67,0
245995,note_on,115,0,3,,,,,,,,2,,,67,0
245995,note_on,115,0,5,,,,,,,,4,,,55,0
245995,note_on,115,0,4,,,,,,,,3,,,67,0
246000,note_on,5,0,2,,,,,,,,1,,,65,85
246000,note_on,5,0,4,,,,,,,,3,,,65,85
246000,note_on,5,0,1,,,,,,,,0,,,65,85
246000,note_on,5,0,6,,,,,,,,5,,,65,85
246000,note_on,0,0,6,,,,,,,,5,,,53,64
246000,note_on,5,0,5,,,,,,,,4,,,53,85
246000,note_on,5,0,3,,,,,,,,2,,,65,85
246115,note_on,115,0,6,,,,,,,,5,,,53,0
246115,note_on,0,0,6,,,,,,,,5,,,65,0
246115,note_on,115,0,2,,,,,,,,1,,,65,0
246115,note_on,115,0,1,,,,,,,,0,,,65,0
246115,note_on,115,0,5,,,,,,,,4,,,53,0
246115,note_on,115,0,3,,,,,,,,2,,,65,0
246115,note_on,115,0,4,,,,,,,,3,,,65,0
246120,note_on,5,0,1,,,,,,,,0,,,67,85
246120,note_on,5,0,5,,,,,,,,4,,,55,85
246120,note_on,5,0,4,,,,,,,,3,,,67,85
246120,note_on,5,0,2,,,,,,,,1,,,67,85
246120,note_on,5,0,3,,,,,,,,2,,,67,85
246120,note_on,0,0,6,,,,,,,,5,,,55,64
246120,note_on,5,0,6,,,,,,,,5,,,67,85
246235,note_on,115,0,4,,,,,,,,3,,,67,0
246235,note_on,0,0,6,,,,,,,,5,,,67,0
246235,note_on,115,0,6,,,,,,,,5,,,55,0
246235,note_on,115,0,1,,,,,,,,0,,,67,0
246235,note_on,115,0,3,,,,,,,,2,,,67,0
246235,note_on,115,0,5,,,,,,,,4,,,55,0
246235,note_on,115,0,2,,,,,,,,1,,,67,0
246240,note_on,5,0,5,,,,,,,,4,,,53,85
246240,note_on,5,0,2,,,,,,,,1,,,65,85
246240,note_on,5,0,1,,,,,,,,0,,,65,85
246240,note_on,5,0,4,,,,,,,,3,,,65,85
246240,note_on,5,0,3,,,,,,,,2,,,65,85
246240,note_on,5,0,6,,,,,,,,5,,,65,85
246240,note_on,0,0,6,,,,,,,,5,,,53,64
246355,note_on,115,0,6,,,,,,,,5,,,53,0
246355,note_on,0,0,6,,,,,,,,5,,,65,0
246355,note_on,115,0,5,,,,,,,,4,,,53,0
246355,note_on,115,0,1,,,,,,,,0,,,65,0
246355,note_on,115,0,3,,,,,,,,2,,,65,0
246355,note_on,115,0,4,,,,,,,,3,,,65,0
246355,note_on,115,0,2,,,,,,,,1,,,65,0
246360,note_on,5,0,3,,,,,,,,2,,,74,85
246360,note_on,5,0,5,,,,,,,,4,,,62,85
246360,note_on,5,0,2,,,,,,,,1,,,74,85
246360,note_on,0,0,6,,,,,,,,5,,,62,64
246360,note_on,5,0,6,,,,,,,,5,,,74,85
246360,note_on,5,0,4,,,,,,,,3,,,74,85
246360,note_on,5,0,1,,,,,,,,0,,,74,85
246475,note_on,115,0,5,,,,,,,,4,,,62,0
246475,note_on,115,0,2,,,,,,,,1,,,74,0
246475,note_on,0,0,6,,,,,,,,5,,,74,0
246475,note_on,115,0,6,,,,,,,,5,,,62,0
246475,note_on,115,0,1,,,,,,,,0,,,74,0
246475,note_on,115,0,4,,,,,,,,3,,,74,0
246475,note_on,115,0,3,,,,,,,,2,,,74,0
246480,note_on,0,0,6,,,,,,,,5,,,60,64
246480,note_on,5,0,6,,,,,,,,5,,,72,85
246480,note_on,5,0,4,,,,,,,,3,,,72,85
246480,note_on,5,0,3,,,,,,,,2,,,72,85
246480,note_on,5,0,1,,,,,,,,0,,,72,85
246480,note_on,5,0,2,,,,,,,,1,,,72,85
246480,note_on,5,0,5,,,,,,,,4,,,60,85
246595,note_on,115,0,3,,,,,,,,2,,,72,0
246595,note_on,115,0,2,,,,,,,,1,,,72,0
246595,note_on,115,0,1,,,,,,,,0,,,72,0
246595,note_on,115,0,5,,,,,,,,4,,,60,0
246595,note_on,115,0,6,,,,,,,,5,,,60,0
246595,note_on,115,0,4,,,,,,,,3,,,72,0
246595,note_on,0,0,6,,,,,,,,5,,,72,0
246600,note_on,5,0,2,,,,,,,,1,,,70,85
246600,note_on,5,0,1,,,,,,,,0,,,70,85
246600,note_on,5,0,4,,,,,,,,3,,,70,85
246600,note_on,0,0,6,,,,,,,,5,,,58,64
246600,note_on,5,0,5,,,,,,,,4,,,58,85
246600,note_on,5,0,3,,,,,,,,2,,,70,85
246600,note_on,5,0,6,,,,,,,,5,,,70,85
246715,note_on,115,0,4,,,,,,,,3,,,70,0
246715,note_on,115,0,2,,,,,,,,1,,,70,0
246715,note_on,0,0,6,,,,,,,,5,,,70,0
246715,note_on,115,0,1,,,,,,,,0,,,70,0
246715,note_on,115,0,3,,,,,,,,2,,,70,0
246715,note_on,115,0,6,,,,,,,,5,,,58,0
246715,note_on,115,0,5,,,,,,,,4,,,58,0
246720,note_on,5,0,3,,,,,,,,2,,,69,85
246720,note_on,5,0,4,,,,,,,,3,,,69,85
246720,note_on,5,0,1,,,,,,,,0,,,69,85
246720,note_on,5,0,2,,,,,,,,1,,,69,85
246720,note_on,0,0,6,,,,,,,,5,,,57,64
246720,note_on,5,0,6,,,,,,,,5,,,69,85
246720,note_on,5,0,5,,,,,,,,4,,,57,85
246835,note_on,115,0,4,,,,,,,,3,,,69,0
246835,note_on,115,0,2,,,,,,,,1,,,69,0
246835,note_on,115,0,3,,,,,,,,2,,,69,0
246835,note_on,115,0,6,,,,,,,,5,,,57,0
246835,note_on,0,0,6,,,,,,,,5,,,69,0
246835,note_on,115,0,1,,,,,,,,0,,,69,0
246835,note_on,115,0,5,,,,,,,,4,,,57,0
246840,note_on,5,0,1,,,,,,,,0,,,67,85
246840,note_on,5,0,2,,,,,,,,1,,,67,85
246840,note_on,5,0,5,,,,,,,,4,,,55,85
246840,note_on,5,0,4,,,,,,,,3,,,67,85
246840,note_on,5,0,6,,,,,,,,5,,,67,85
246840,note_on,0,0,6,,,,,,,,5,,,55,64
246840,note_on,5,0,3,,,,,,,,2,,,67,85
246955,note_on,115,0,3,,,,,,,,2,,,67,0
246955,note_on,115,0,2,,,,,,,,1,,,67,0
246955,note_on,115,0,5,,,,,,,,4,,,55,0
246955,note_on,115,0,4,,,,,,,,3,,,67,0
246955,note_on,115,0,1,,,,,,,,0,,,67,0
246955,note_on,115,0,6,,,,,,,,5,,,55,0
246955,note_on,0,0,6,,,,,,,,5,,,67,0
246960,note_on,5,0,6,,,,,,,,5,,,65,85
246960,note_on,0,0,6,,,,,,,,5,,,53,64
246960,note_on,5,0,3,,,,,,,,2,,,65,85
246960,note_on,5,0,1,,,,,,,,0,,,65,85
246960,note_on,5,0,5,,,,,,,,4,,,53,85
246960,note_on,5,0,4,,,,,,,,3,,,65,85
246960,note_on,5,0,2,,,,,,,,1,,,65,85
247185,note_on,225,0,3,,,,,,,,2,,,65,0
247185,note_on,225,0,1,,,,,,,,0,,,65,0
247185,note_on,225,0,2,,,,,,,,1,,,65,0
247185,note_on,225,0,4,,,,,,,,3,,,65,0
247185,note_on,225,0,5,,,,,,,,4,,,53,0
247185,note_on,0,0,6,,,,,,,,5,,,65,0
247185,note_on,225,0,6,,,,,,,,5,,,53,0
247200,note_on,15,0,4,,,,,,,,3,,,77,85
247200,note_on,0,0,6,,,,,,,,5,,,65,64
247200,note_on,15,0,1,,,,,,,,0,,,77,85
247200,note_on,15,0,6,,,,,,,,5,,,77,85
247200,note_on,15,0,3,,,,,,,,2,,,77,85
247200,note_on,15,0,2,,,,,,,,1,,,77,85
247200,note_on,15,0,5,,,,,,,,4,,,65,85
247425,note_on,225,0,2,,,,,,,,1,,,77,0
247425,note_on,225,0,3,,,,,,,,2,,,77,0
247425,note_on,0,0,6,,,,,,,,5,,,77,0
247425,note_on,225,0,1,,,,,,,,0,,,77,0
247425,note_on,225,0,4,,,,,,,,3,,,77,0
247425,note_on,225,0,6,,,,,,,,5,,,65,0
247425,note_on,225,0,5,,,,,,,,4,,,65,0
247440,note_on,15,0,5,,,,,,,,4,,,53,85
247440,note_on,15,0,6,,,,,,,,5,,,65,85
247440,note_on,0,0,6,,,,,,,,5,,,53,64
247440,note_on,15,0,2,,,,,,,,1,,,65,85
247440,note_on,15,0,4,,,,,,,,3,,,65,85
247440,note_on,15,0,3,,,,,,,,2,,,65,85
247440,note_on,15,0,1,,,,,,,,0,,,65,85
247665,note_on,225,0,6,,,,,,,,5,,,53,0
247665,note_on,0,0,6,,,,,,,,5,,,65,0
247665,note_on,225,0,2,,,,,,,,1,,,65,0
247665,note_on,225,0,1,,,,,,,,0,,,65,0
247665,note_on,225,0,4,,,,,,,,3,,,65,0
247665,note_on,225,0,3,,,,,,,,2,,,65,0
247665,note_on,225,0,5,,,,,,,,4,,,53,0
247680,note_on,15,0,1,,,,,,,,0,,,65,85
247680,note_on,15,0,3,,,,,,,,2,,,65,85
247680,note_on,15,0,5,,,,,,,,4,,,53,85
247680,note_on,15,0,2,,,,,,,,1,,,65,85
247680,note_on,15,0,4,,,,,,,,3,,,65,85
247680,note_on,15,0,6,,,,,,,,5,,,65,85
247680,note_on,0,0,6,,,,,,,,5,,,53,64
248125,note_on,445,0,3,,,,,,,,2,,,65,0
248125,note_on,445,0,2,,,,,,,,1,,,65,0
248125,note_on,445,0,6,,,,,,,,5,,,53,0
248125,note_on,0,0,6,,,,,,,,5,,,65,0
248125,note_on,445,0,5,,,,,,,,4,,,53,0
248125,note_on,445,0,4,,,,,,,,3,,,65,0
248125,note_on,445,0,1,,,,,,,,0,,,65,0
248400,note_on,275,0,3,,,,,,,,2,,,77,49
248400,note_on,0,0,6,,,,,,,,5,,,72,64
248400,note_on,0,0,6,,,,,,,,5,,,77,64
248400,note_on,275,0,6,,,,,,,,5,,,81,85
248400,note_on,0,0,6,,,,,,,,5,,,53,64
248400,note_on,275,0,2,,,,,,,,1,,,81,49
248400,note_on,275,0,5,,,,,,,,4,,,53,64
248400,note_on,275,0,1,,,,,,,,0,,,81,106
248400,note_on,275,0,4,,,,,,,,3,,,60,85
248515,note_on,115,0,1,,,,,,,,0,,,81,0
248520,note_on,5,0,1,,,,,,,,0,,,79,106
248625,note_on,225,0,6,,,,,,,,5,,,53,0
248625,note_on,225,0,2,,,,,,,,1,,,81,0
248625,note_on,225,0,4,,,,,,,,3,,,60,0
248625,note_on,225,0,3,,,,,,,,2,,,77,0
248625,note_on,225,0,5,,,,,,,,4,,,53,0
248635,note_on,115,0,1,,,,,,,,0,,,79,0
248640,note_on,15,0,2,,,,,,,,1,,,65,49
248640,note_on,15,0,6,,,,,,,,5,,,53,64
248640,note_on,15,0,5,,,,,,,,4,,,53,64
248640,note_on,15,0,3,,,,,,,,2,,,60,49
248640,note_on,15,0,4,,,,,,,,3,,,60,85
248640,note_on,5,0,1,,,,,,,,0,,,77,106
248755,note_on,115,0,6,,,,,,,,5,,,53,0
248755,note_on,115,0,5,,,,,,,,4,,,53,0
248760,note_on,5,0,5,,,,,,,,4,,,55,64
248760,note_on,5,0,6,,,,,,,,5,,,55,64
248865,note_on,225,0,2,,,,,,,,1,,,65,0
248865,note_on,225,0,3,,,,,,,,2,,,60,0
248865,note_on,225,0,4,,,,,,,,3,,,60,0
248875,note_on,115,0,6,,,,,,,,5,,,55,0
248875,note_on,115,0,5,,,,,,,,4,,,55,0
248880,note_on,5,0,6,,,,,,,,5,,,57,64
248880,note_on,5,0,5,,,,,,,,4,,,57,64
248880,note_on,15,0,3,,,,,,,,2,,,77,49
248880,note_on,15,0,2,,,,,,,,1,,,81,49
248880,note_on,15,0,4,,,,,,,,3,,,60,85
248995,note_on,115,0,5,,,,,,,,4,,,57,0
248995,note_on,115,0,6,,,,,,,,5,,,57,0
249000,note_on,5,0,5,,,,,,,,4,,,53,64
249000,note_on,5,0,6,,,,,,,,5,,,53,64
249065,note_on,65,0,6,,,,,,,,5,,,72,0
249065,note_on,0,0,6,,,,,,,,5,,,81,0
249065,note_on,0,0,6,,,,,,,,5,,,77,0
249085,note_on,445,0,1,,,,,,,,0,,,77,0
249105,note_on,225,0,2,,,,,,,,1,,,81,0
249105,note_on,225,0,3,,,,,,,,2,,,77,0
249105,note_on,225,0,4,,,,,,,,3,,,60,0
249115,note_on,50,0,6,,,,,,,,5,,,53,0
249115,note_on,115,0,5,,,,,,,,4,,,53,0
249120,note_on,0,0,6,,,,,,,,5,,,48,64
249120,note_on,15,0,3,,,,,,,,2,,,76,49
249120,note_on,0,0,6,,,,,,,,5,,,76,64
249120,note_on,5,0,5,,,,,,,,4,,,48,64
249120,note_on,5,0,6,,,,,,,,5,,,79,85
249120,note_on,15,0,4,,,,,,,,3,,,60,85
249120,note_on,0,0,6,,,,,,,,5,,,72,64
249120,note_on,35,0,1,,,,,,,,0,,,79,106
249120,note_on,15,0,2,,,,,,,,1,,,79,49
249235,note_on,115,0,1,,,,,,,,0,,,79,0
249240,note_on,5,0,1,,,,,,,,0,,,77,106
249345,note_on,225,0,5,,,,,,,,4,,,48,0
249345,note_on,225,0,2,,,,,,,,1,,,79,0
249345,note_on,225,0,3,,,,,,,,2,,,76,0
249345,note_on,225,0,4,,,,,,,,3,,,60,0
249345,note_on,225,0,6,,,,,,,,5,,,48,0
249355,note_on,115,0,1,,,,,,,,0,,,77,0
249360,note_on,5,0,1,,,,,,,,0,,,76,106
249360,note_on,15,0,4,,,,,,,,3,,,60,85
249360,note_on,15,0,5,,,,,,,,4,,,48,64
249360,note_on,15,0,6,,,,,,,,5,,,48,64
249360,note_on,15,0,3,,,,,,,,2,,,60,49
249360,note_on,15,0,2,,,,,,,,1,,,64,49
249475,note_on,115,0,5,,,,,,,,4,,,48,0
249475,note_on,115,0,6,,,,,,,,5,,,48,0
249480,note_on,5,0,6,,,,,,,,5,,,50,64
249480,note_on,5,0,5,,,,,,,,4,,,50,64
249585,note_on,225,0,4,,,,,,,,3,,,60,0
249585,note_on,225,0,3,,,,,,,,2,,,60,0
249585,note_on,225,0,2,,,,,,,,1,,,64,0
249595,note_on,115,0,6,,,,,,,,5,,,50,0
249595,note_on,115,0,5,,,,,,,,4,,,50,0
249600,note_on,15,0,3,,,,,,,,2,,,76,49
249600,note_on,5,0,6,,,,,,,,5,,,52,64
249600,note_on,5,0,5,,,,,,,,4,,,52,64
249600,note_on,15,0,4,,,,,,,,3,,,60,85
249600,note_on,15,0,2,,,,,,,,1,,,79,49
249715,note_on,115,0,5,,,,,,,,4,,,52,0
249715,note_on,115,0,6,,,,,,,,5,,,52,0
249720,note_on,5,0,5,,,,,,,,4,,,48,64
249720,note_on,5,0,6,,,,,,,,5,,,48,64
249785,note_on,65,0,6,,,,,,,,5,,,72,0
249785,note_on,0,0,6,,,,,,,,5,,,79,0
249785,note_on,0,0,6,,,,,,,,5,,,76,0
249805,note_on,445,0,1,,,,,,,,0,,,76,0
249825,note_on,225,0,3,,,,,,,,2,,,76,0
249825,note_on,225,0,4,,,,,,,,3,,,60,0
249825,note_on,225,0,2,,,,,,,,1,,,79,0
249835,note_on,115,0,5,,,,,,,,4,,,48,0
249835,note_on,50,0,6,,,,,,,,5,,,48,0
249840,note_on,0,0,6,,,,,,,,5,,,72,64
249840,note_on,15,0,3,,,,,,,,2,,,77,49
249840,note_on,0,0,6,,,,,,,,5,,,77,64
249840,note_on,5,0,6,,,,,,,,5,,,81,85
249840,note_on,5,0,5,,,,,,,,4,,,53,64
249840,note_on,15,0,2,,,,,,,,1,,,81,49
249840,note_on,35,0,1,,,,,,,,0,,,81,106
249840,note_on,15,0,4,,,,,,,,3,,,60,85
249840,note_on,0,0,6,,,,,,,,5,,,53,64
249955,note_on,115,0,1,,,,,,,,0,,,81,0
249960,note_on,5,0,1,,,,,,,,0,,,79,106
250065,note_on,225,0,2,,,,,,,,1,,,81,0
250065,note_on,225,0,4,,,,,,,,3,,,60,0
250065,note_on,225,0,6,,,,,,,,5,,,53,0
250065,note_on,225,0,5,,,,,,,,4,,,53,0
250065,note_on,225,0,3,,,,,,,,2,,,77,0
250075,note_on,115,0,1,,,,,,,,0,,,79,0
250080,note_on,15,0,4,,,,,,,,3,,,60,85
250080,note_on,15,0,5,,,,,,,,4,,,53,64
250080,note_on,15,0,3,,,,,,,,2,,,60,49
250080,note_on,5,0,1,,,,,,,,0,,,77,106
250080,note_on,15,0,6,,,,,,,,5,,,53,64
250080,note_on,15,0,2,,,,,,,,1,,,65,49
250195,note_on,115,0,5,,,,,,,,4,,,53,0
250195,note_on,115,0,6,,,,,,,,5,,,53,0
250200,note_on,5,0,5,,,,,,,,4,,,55,64
250200,note_on,5,0,6,,,,,,,,5,,,55,64
250305,note_on,225,0,3,,,,,,,,2,,,60,0
250305,note_on,225,0,4,,,,,,,,3,,,60,0
250305,note_on,225,0,2,,,,,,,,1,,,65,0
250315,note_on,115,0,6,,,,,,,,5,,,55,0
250315,note_on,115,0,5,,,,,,,,4,,,55,0
250320,note_on,15,0,3,,,,,,,,2,,,77,49
250320,note_on,15,0,2,,,,,,,,1,,,81,49
250320,note_on,5,0,5,,,,,,,,4,,,57,64
250320,note_on,15,0,4,,,,,,,,3,,,60,85
250320,note_on,5,0,6,,,,,,,,5,,,57,64
250435,note_on,115,0,6,,,,,,,,5,,,57,0
250435,note_on,115,0,5,,,,,,,,4,,,57,0
250440,note_on,5,0,6,,,,,,,,5,,,53,64
250440,note_on,5,0,5,,,,,,,,4,,,53,64
250505,note_on,0,0,6,,,,,,,,5,,,81,0
250505,note_on,0,0,6,,,,,,,,5,,,77,0
250505,note_on,65,0,6,,,,,,,,5,,,72,0
250525,note_on,445,0,1,,,,,,,,0,,,77,0
250545,note_on,225,0,4,,,,,,,,3,,,60,0
250545,note_on,225,0,2,,,,,,,,1,,,81,0
250545,note_on,225,0,3,,,,,,,,2,,,77,0
250555,note_on,50,0,6,,,,,,,,5,,,53,0
250555,note_on,115,0,5,,,,,,,,4,,,53,0
250560,note_on,0,0,6,,,,,,,,5,,,48,64
250560,note_on,0,0,6,,,,,,,,5,,,72,64
250560,note_on,0,0,6,,,,,,,,5,,,76,64
250560,note_on,5,0,6,,,,,,,,5,,,79,85
250560,note_on,15,0,3,,,,,,,,2,,,76,49
250560,note_on,5,0,5,,,,,,,,4,,,48,64
250560,note_on,15,0,4,,,,,,,,3,,,60,85
250560,note_on,35,0,1,,,,,,,,0,,,79,106
250560,note_on,15,0,2,,,,,,,,1,,,79,49
250675,note_on,115,0,1,,,,,,,,0,,,79,0
250680,note_on,5,0,1,,,,,,,,0,,,77,106
250785,note_on,225,0,5,,,,,,,,4,,,48,0
250785,note_on,225,0,6,,,,,,,,5,,,48,0
250785,note_on,225,0,4,,,,,,,,3,,,60,0
250785,note_on,225,0,2,,,,,,,,1,,,79,0
250785,note_on,225,0,3,,,,,,,,2,,,76,0
250795,note_on,115,0,1,,,,,,,,0,,,77,0
250800,note_on,15,0,6,,,,,,,,5,,,48,64
250800,note_on,15,0,5,,,,,,,,4,,,48,64
250800,note_on,15,0,2,,,,,,,,1,,,64,49
250800,note_on,15,0,3,,,,,,,,2,,,60,49
250800,note_on,15,0,4,,,,,,,,3,,,60,85
250800,note_on,5,0,1,,,,,,,,0,,,76,106
250915,note_on,115,0,6,,,,,,,,5,,,48,0
250915,note_on,115,0,5,,,,,,,,4,,,48,0
250920,note_on,5,0,5,,,,,,,,4,,,50,64
250920,note_on,5,0,6,,,,,,,,5,,,50,64
251025,note_on,225,0,3,,,,,,,,2,,,60,0
251025,note_on,225,0,4,,,,,,,,3,,,60,0
251025,note_on,225,0,2,,,,,,,,1,,,64,0
251035,note_on,115,0,6,,,,,,,,5,,,50,0
251035,note_on,115,0,5,,,,,,,,4,,,50,0
251040,note_on,5,0,6,,,,,,,,5,,,52,64
251040,note_on,15,0,2,,,,,,,,1,,,79,49
251040,note_on,5,0,5,,,,,,,,4,,,52,64
251040,note_on,15,0,4,,,,,,,,3,,,60,85
251040,note_on,15,0,3,,,,,,,,2,,,76,49
251155,note_on,115,0,6,,,,,,,,5,,,52,0
251155,note_on,115,0,5,,,,,,,,4,,,52,0
251160,note_on,5,0,5,,,,,,,,4,,,48,64
251160,note_on,5,0,6,,,,,,,,5,,,48,64
251225,note_on,0,0,6,,,,,,,,5,,,76,0
251225,note_on,0,0,6,,,,,,,,5,,,79,0
251225,note_on,65,0,6,,,,,,,,5,,,72,0
251245,note_on,445,0,1,,,,,,,,0,,,76,0
251265,note_on,225,0,2,,,,,,,,1,,,79,0
251265,note_on,225,0,4,,,,,,,,3,,,60,0
251265,note_on,225,0,3,,,,,,,,2,,,76,0
251275,note_on,50,0,6,,,,,,,,5,,,48,0
251275,note_on,115,0,5,,,,,,,,4,,,48,0
251280,note_on,0,0,6,,,,,,,,5,,,69,64
251280,note_on,0,0,6,,,,,,,,5,,,72,64
251280,note_on,5,0,6,,,,,,,,5,,,77,85
251280,note_on,15,0,4,,,,,,,,3,,,57,85
251280,note_on,5,0,5,,,,,,,,4,,,53,64
251280,note_on,35,0,1,,,,,,,,0,,,81,106
251280,note_on,15,0,3,,,,,,,,2,,,72,49
251280,note_on,0,0,6,,,,,,,,5,,,53,64
251280,note_on,15,0,2,,,,,,,,1,,,77,49
251395,note_on,115,0,1,,,,,,,,0,,,81,0
251400,note_on,5,0,1,,,,,,,,0,,,79,106
251505,note_on,225,0,4,,,,,,,,3,,,57,0
251505,note_on,225,0,2,,,,,,,,1,,,77,0
251505,note_on,225,0,5,,,,,,,,4,,,53,0
251505,note_on,225,0,3,,,,,,,,2,,,72,0
251505,note_on,225,0,6,,,,,,,,5,,,53,0
251515,note_on,115,0,1,,,,,,,,0,,,79,0
251520,note_on,15,0,6,,,,,,,,5,,,53,64
251520,note_on,15,0,3,,,,,,,,2,,,57,49
251520,note_on,15,0,2,,,,,,,,1,,,60,49
251520,note_on,5,0,1,,,,,,,,0,,,77,106
251520,note_on,15,0,5,,,,,,,,4,,,53,64
251520,note_on,15,0,4,,,,,,,,3,,,57,85
251635,note_on,115,0,6,,,,,,,,5,,,53,0
251635,note_on,115,0,5,,,,,,,,4,,,53,0
251640,note_on,5,0,5,,,,,,,,4,,,55,64
251640,note_on,5,0,6,,,,,,,,5,,,55,64
251745,note_on,225,0,4,,,,,,,,3,,,57,0
251745,note_on,225,0,3,,,,,,,,2,,,57,0
251745,note_on,225,0,2,,,,,,,,1,,,60,0
251755,note_on,115,0,5,,,,,,,,4,,,55,0
251755,note_on,115,0,6,,,,,,,,5,,,55,0
251760,note_on,5,0,6,,,,,,,,5,,,57,64
251760,note_on,15,0,3,,,,,,,,2,,,72,49
251760,note_on,5,0,5,,,,,,,,4,,,57,64
251760,note_on,15,0,2,,,,,,,,1,,,77,49
251760,note_on,15,0,4,,,,,,,,3,,,57,85
251875,note_on,115,0,6,,,,,,,,5,,,57,0
251875,note_on,115,0,5,,,,,,,,4,,,57,0
251880,note_on,5,0,6,,,,,,,,5,,,53,64
251880,note_on,5,0,5,,,,,,,,4,,,53,64
251945,note_on,65,0,6,,,,,,,,5,,,69,0
251945,note_on,0,0,6,,,,,,,,5,,,77,0
251945,note_on,0,0,6,,,,,,,,5,,,72,0
251965,note_on,445,0,1,,,,,,,,0,,,77,0
251985,note_on,225,0,2,,,,,,,,1,,,77,0
251985,note_on,225,0,4,,,,,,,,3,,,57,0
251985,note_on,225,0,3,,,,,,,,2,,,72,0
251995,note_on,115,0,5,,,,,,,,4,,,53,0
251995,note_on,50,0,6,,,,,,,,5,,,53,0
252000,note_on,0,0,6,,,,,,,,5,,,46,64
252000,note_on,15,0,4,,,,,,,,3,,,58,85
252000,note_on,5,0,6,,,,,,,,5,,,77,85
252000,note_on,0,0,6,,,,,,,,5,,,74,64
252000,note_on,0,0,6,,,,,,,,5,,,70,64
252000,note_on,35,0,1,,,,,,,,0,,,77,106
252000,note_on,5,0,5,,,,,,,,4,,,46,64
252000,note_on,15,0,3,,,,,,,,2,,,74,49
252000,note_on,15,0,2,,,,,,,,1,,,77,49
252115,note_on,115,0,1,,,,,,,,0,,,77,0
252120,note_on,5,0,1,,,,,,,,0,,,76,106
252225,note_on,225,0,5,,,,,,,,4,,,46,0
252225,note_on,225,0,3,,,,,,,,2,,,74,0
252225,note_on,225,0,2,,,,,,,,1,,,77,0
252225,note_on,225,0,6,,,,,,,,5,,,46,0
252225,note_on,225,0,4,,,,,,,,3,,,58,0
252235,note_on,115,0,1,,,,,,,,0,,,76,0
252240,note_on,15,0,6,,,,,,,,5,,,46,64
252240,note_on,15,0,3,,,,,,,,2,,,58,49
252240,note_on,15,0,2,,,,,,,,1,,,62,49
252240,note_on,5,0,1,,,,,,,,0,,,74,106
252240,note_on,15,0,5,,,,,,,,4,,,46,64
252240,note_on,15,0,4,,,,,,,,3,,,58,85
252355,note_on,115,0,6,,,,,,,,5,,,46,0
252355,note_on,115,0,5,,,,,,,,4,,,46,0
252360,note_on,5,0,6,,,,,,,,5,,,48,64
252360,note_on,5,0,5,,,,,,,,4,,,48,64
252465,note_on,225,0,2,,,,,,,,1,,,62,0
252465,note_on,225,0,4,,,,,,,,3,,,58,0
252465,note_on,225,0,3,,,,,,,,2,,,58,0
252475,note_on,115,0,6,,,,,,,,5,,,48,0
252475,note_on,115,0,5,,,,,,,,4,,,48,0
252480,note_on,15,0,2,,,,,,,,1,,,77,49
252480,note_on,15,0,3,,,,,,,,2,,,74,49
252480,note_on,5,0,5,,,,,,,,4,,,50,64
252480,note_on,5,0,6,,,,,,,,5,,,50,64
252480,note_on,15,0,4,,,,,,,,3,,,58,85
252595,note_on,115,0,6,,,,,,,,5,,,50,0
252595,note_on,115,0,5,,,,,,,,4,,,50,0
252600,note_on,5,0,6,,,,,,,,5,,,46,64
252600,note_on,5,0,5,,,,,,,,4,,,46,64
252665,note_on,65,0,6,,,,,,,,5,,,70,0
252665,note_on,0,0,6,,,,,,,,5,,,77,0
252665,note_on,0,0,6,,,,,,,,5,,,74,0
252685,note_on,445,0,1,,,,,,,,0,,,74,0
252705,note_on,225,0,4,,,,,,,,3,,,58,0
252705,note_on,225,0,3,,,,,,,,2,,,74,0
252705,note_on,225,0,2,,,,,,,,1,,,77,0
252715,note_on,50,0,6,,,,,,,,5,,,46,0
252715,note_on,115,0,5,,,,,,,,4,,,46,0
252720,note_on,0,0,6,,,,,,,,5,,,43,64
252720,note_on,35,0,1,,,,,,,,0,,,83,106
252720,note_on,0,0,6,,,,,,,,5,,,71,64
252720,note_on,0,0,6,,,,,,,,5,,,74,64
252720,note_on,5,0,6,,,,,,,,5,,,79,85
252720,note_on,15,0,2,,,,,,,,1,,,79,49
252720,note_on,15,0,4,,,,,,,,3,,,59,85
252720,note_on,5,0,5,,,,,,,,4,,,43,64
252720,note_on,15,0,3,,,,,,,,2,,,74,49
252835,note_on,115,0,1,,,,,,,,0,,,83,0
252840,note_on,5,0,1,,,,,,,,0,,,81,106
252945,note_on,225,0,3,,,,,,,,2,,,74,0
252945,note_on,225,0,2,,,,,,,,1,,,79,0
252945,note_on,225,0,5,,,,,,,,4,,,43,0
252945,note_on,225,0,6,,,,,,,,5,,,43,0
252945,note_on,225,0,4,,,,,,,,3,,,59,0
252955,note_on,115,0,1,,,,,,,,0,,,81,0
252960,note_on,15,0,2,,,,,,,,1,,,62,49
252960,note_on,15,0,3,,,,,,,,2,,,59,49
252960,note_on,5,0,1,,,,,,,,0,,,79,106
252960,note_on,15,0,6,,,,,,,,5,,,43,64
252960,note_on,15,0,5,,,,,,,,4,,,43,64
252960,note_on,15,0,4,,,,,,,,3,,,59,85
253075,note_on,115,0,6,,,,,,,,5,,,43,0
253075,note_on,115,0,5,,,,,,,,4,,,43,0
253080,note_on,5,0,5,,,,,,,,4,,,45,64
253080,note_on,5,0,6,,,,,,,,5,,,45,64
253185,note_on,225,0,4,,,,,,,,3,,,59,0
253185,note_on,225,0,3,,,,,,,,2,,,59,0
253185,note_on,225,0,2,,,,,,,,1,,,62,0
253195,note_on,115,0,6,,,,,,,,5,,,45,0
253195,note_on,115,0,5,,,,,,,,4,,,45,0
253200,note_on,15,0,3,,,,,,,,2,,,74,49
253200,note_on,5,0,6,,,,,,,,5,,,47,64
253200,note_on,15,0,4,,,,,,,,3,,,59,85
253200,note_on,5,0,5,,,,,,,,4,,,47,64
253200,note_on,15,0,2,,,,,,,,1,,,79,49
253315,note_on,115,0,6,,,,,,,,5,,,47,0
253315,note_on,115,0,5,,,,,,,,4,,,47,0
253320,note_on,5,0,6,,,,,,,,5,,,43,64
253320,note_on,5,0,5,,,,,,,,4,,,43,64
253385,note_on,0,0,6,,,,,,,,5,,,79,0
253385,note_on,65,0,6,,,,,,,,5,,,71,0
253385,note_on,0,0,6,,,,,,,,5,,,74,0
253405,note_on,445,0,1,,,,,,,,0,,,79,0
253425,note_on,225,0,4,,,,,,,,3,,,59,0
253425,note_on,225,0,2,,,,,,,,1,,,79,0
253425,note_on,225,0,3,,,,,,,,2,,,74,0
253435,note_on,115,0,5,,,,,,,,4,,,43,0
253435,note_on,50,0,6,,,,,,,,5,,,43,0
253440,note_on,5,0,6,,,,,,,,5,,,76,85
253440,note_on,0,0,6,,,,,,,,5,,,72,64
253440,note_on,0,0,6,,,,,,,,5,,,67,64
253440,note_on,0,0,6,,,,,,,,5,,,48,64
253440,note_on,35,0,1,,,,,,,,0,,,79,106
253440,note_on,15,0,4,,,,,,,,3,,,60,85
253440,note_on,15,0,2,,,,,,,,1,,,79,49
253440,note_on,15,0,3,,,,,,,,2,,,76,49
253440,note_on,5,0,5,,,,,,,,4,,,48,64
253555,note_on,115,0,1,,,,,,,,0,,,79,0
253560,note_on,5,0,1,,,,,,,,0,,,77,106
253665,note_on,225,0,5,,,,,,,,4,,,48,0
253665,note_on,225,0,3,,,,,,,,2,,,76,0
253665,note_on,225,0,6,,,,,,,,5,,,48,0
253665,note_on,225,0,2,,,,,,,,1,,,79,0
253665,note_on,225,0,4,,,,,,,,3,,,60,0
253675,note_on,115,0,1,,,,,,,,0,,,77,0
253680,note_on,15,0,3,,,,,,,,2,,,60,49
253680,note_on,15,0,5,,,,,,,,4,,,48,64
253680,note_on,15,0,6,,,,,,,,5,,,48,64
253680,note_on,15,0,4,,,,,,,,3,,,60,85
253680,note_on,15,0,2,,,,,,,,1,,,64,49
253680,note_on,5,0,1,,,,,,,,0,,,76,106
253795,note_on,115,0,6,,,,,,,,5,,,48,0
253795,note_on,115,0,5,,,,,,,,4,,,48,0
253800,note_on,5,0,6,,,,,,,,5,,,50,64
253800,note_on,5,0,5,,,,,,,,4,,,50,64
253905,note_on,225,0,2,,,,,,,,1,,,64,0
253905,note_on,225,0,4,,,,,,,,3,,,60,0
253905,note_on,225,0,3,,,,,,,,2,,,60,0
253915,note_on,115,0,6,,,,,,,,5,,,50,0
253915,note_on,115,0,5,,,,,,,,4,,,50,0
253920,note_on,5,0,6,,,,,,,,5,,,52,64
253920,note_on,15,0,2,,,,,,,,1,,,79,49
253920,note_on,15,0,4,,,,,,,,3,,,60,85
253920,note_on,5,0,5,,,,,,,,4,,,52,64
253920,note_on,15,0,3,,,,,,,,2,,,76,49
254035,note_on,115,0,5,,,,,,,,4,,,52,0
254035,note_on,115,0,6,,,,,,,,5,,,52,0
254040,note_on,5,0,6,,,,,,,,5,,,48,64
254040,note_on,5,0,5,,,,,,,,4,,,48,64
254105,note_on,0,0,6,,,,,,,,5,,,72,0
254105,note_on,65,0,6,,,,,,,,5,,,67,0
254105,note_on,0,0,6,,,,,,,,5,,,76,0
254125,note_on,445,0,1,,,,,,,,0,,,76,0
254145,note_on,225,0,3,,,,,,,,2,,,76,0
254145,note_on,225,0,2,,,,,,,,1,,,79,0
254145,note_on,225,0,4,,,,,,,,3,,,60,0
254155,note_on,115,0,5,,,,,,,,4,,,48,0
254155,note_on,50,0,6,,,,,,,,5,,,48,0
254160,note_on,5,0,6,,,,,,,,5,,,81,85
254160,note_on,15,0,3,,,,,,,,2,,,76,49
254160,note_on,5,0,5,,,,,,,,4,,,45,64
254160,note_on,15,0,2,,,,,,,,1,,,81,49
254160,note_on,0,0,6,,,,,,,,5,,,73,64
254160,note_on,0,0,6,,,,,,,,5,,,76,64
254160,note_on,15,0,4,,,,,,,,3,,,61,85
254160,note_on,0,0,6,,,,,,,,5,,,45,64
254160,note_on,35,0,1,,,,,,,,0,,,85,106
254275,note_on,115,0,1,,,,,,,,0,,,85,0
254280,note_on,5,0,1,,,,,,,,0,,,83,106
254385,note_on,225,0,5,,,,,,,,4,,,45,0
254385,note_on,225,0,2,,,,,,,,1,,,81,0
254385,note_on,225,0,6,,,,,,,,5,,,45,0
254385,note_on,225,0,4,,,,,,,,3,,,61,0
254385,note_on,225,0,3,,,,,,,,2,,,76,0
254395,note_on,115,0,1,,,,,,,,0,,,83,0
254400,note_on,15,0,5,,,,,,,,4,,,45,64
254400,note_on,15,0,4,,,,,,,,3,,,61,85
254400,note_on,5,0,1,,,,,,,,0,,,81,106
254400,note_on,15,0,3,,,,,,,,2,,,61,49
254400,note_on,15,0,6,,,,,,,,5,,,45,64
254400,note_on,15,0,2,,,,,,,,1,,,64,49
254515,note_on,115,0,6,,,,,,,,5,,,45,0
254515,note_on,115,0,5,,,,,,,,4,,,45,0
254520,note_on,5,0,6,,,,,,,,5,,,47,64
254520,note_on,5,0,5,,,,,,,,4,,,47,64
254625,note_on,225,0,4,,,,,,,,3,,,61,0
254625,note_on,225,0,3,,,,,,,,2,,,61,0
254625,note_on,225,0,2,,,,,,,,1,,,64,0
254635,note_on,115,0,6,,,,,,,,5,,,47,0
254635,note_on,115,0,5,,,,,,,,4,,,47,0
254640,note_on,15,0,2,,,,,,,,1,,,81,49
254640,note_on,15,0,4,,,,,,,,3,,,61,85
254640,note_on,5,0,6,,,,,,,,5,,,49,64
254640,note_on,15,0,3,,,,,,,,2,,,76,49
254640,note_on,5,0,5,,,,,,,,4,,,49,64
254755,note_on,115,0,5,,,,,,,,4,,,49,0
254755,note_on,115,0,6,,,,,,,,5,,,49,0
254760,note_on,5,0,5,,,,,,,,4,,,45,64
254760,note_on,5,0,6,,,,,,,,5,,,45,64
254825,note_on,65,0,6,,,,,,,,5,,,73,0
254825,note_on,0,0,6,,,,,,,,5,,,76,0
254825,note_on,0,0,6,,,,,,,,5,,,81,0
254845,note_on,445,0,1,,,,,,,,0,,,81,0
254865,note_on,225,0,2,,,,,,,,1,,,81,0
254865,note_on,225,0,3,,,,,,,,2,,,76,0
254865,note_on,225,0,4,,,,,,,,3,,,61,0
254875,note_on,115,0,5,,,,,,,,4,,,45,0
254875,note_on,50,0,6,,,,,,,,5,,,45,0
254880,note_on,0,0,6,,,,,,,,5,,,69,64
254880,note_on,0,0,6,,,,,,,,5,,,74,64
254880,note_on,15,0,4,,,,,,,,3,,,62,85
254880,note_on,15,0,3,,,,,,,,2,,,77,49
254880,note_on,15,0,2,,,,,,,,1,,,81,49
254880,note_on,0,0,6,,,,,,,,5,,,50,64
254880,note_on,5,0,6,,,,,,,,5,,,77,85
254880,note_on,35,0,1,,,,,,,,0,,,81,106
254880,note_on,5,0,5,,,,,,,,4,,,50,64
254995,note_on,115,0,1,,,,,,,,0,,,81,0
255000,note_on,5,0,1,,,,,,,,0,,,79,106
255105,note_on,225,0,5,,,,,,,,4,,,50,0
255105,note_on,225,0,2,,,,,,,,1,,,81,0
255105,note_on,225,0,4,,,,,,,,3,,,62,0
255105,note_on,225,0,6,,,,,,,,5,,,50,0
255105,note_on,225,0,3,,,,,,,,2,,,77,0
255115,note_on,115,0,1,,,,,,,,0,,,79,0
255120,note_on,15,0,4,,,,,,,,3,,,62,85
255120,note_on,15,0,6,,,,,,,,5,,,50,64
255120,note_on,15,0,5,,,,,,,,4,,,50,64
255120,note_on,15,0,3,,,,,,,,2,,,62,49
255120,note_on,5,0,1,,,,,,,,0,,,77,106
255120,note_on,15,0,2,,,,,,,,1,,,65,49
255235,note_on,115,0,6,,,,,,,,5,,,50,0
255235,note_on,115,0,5,,,,,,,,4,,,50,0
255240,note_on,5,0,5,,,,,,,,4,,,52,64
255240,note_on,5,0,6,,,,,,,,5,,,52,64
255345,note_on,225,0,4,,,,,,,,3,,,62,0
255345,note_on,225,0,3,,,,,,,,2,,,62,0
255345,note_on,225,0,2,,,,,,,,1,,,65,0
255355,note_on,115,0,6,,,,,,,,5,,,52,0
255355,note_on,115,0,5,,,,,,,,4,,,52,0
255360,note_on,5,0,6,,,,,,,,5,,,53,64
255360,note_on,15,0,2,,,,,,,,1,,,81,49
255360,note_on,5,0,5,,,,,,,,4,,,53,64
255360,note_on,15,0,3,,,,,,,,2,,,77,49
255360,note_on,15,0,4,,,,,,,,3,,,62,85
255475,note_on,115,0,6,,,,,,,,5,,,53,0
255475,note_on,115,0,5,,,,,,,,4,,,53,0
255480,note_on,5,0,5,,,,,,,,4,,,52,64
255480,note_on,5,0,6,,,,,,,,5,,,52,64
255545,note_on,65,0,6,,,,,,,,5,,,69,0
255545,note_on,0,0,6,,,,,,,,5,,,74,0
255545,note_on,0,0,6,,,,,,,,5,,,77,0
255565,note_on,445,0,1,,,,,,,,0,,,77,0
255585,note_on,225,0,4,,,,,,,,3,,,62,0
255585,note_on,225,0,2,,,,,,,,1,,,81,0
255585,note_on,225,0,3,,,,,,,,2,,,77,0
255595,note_on,115,0,5,,,,,,,,4,,,52,0
255595,note_on,50,0,6,,,,,,,,5,,,52,0
255600,note_on,15,0,3,,,,,,,,2,,,77,49
255600,note_on,15,0,4,,,,,,,,3,,,62,85
255600,note_on,35,0,1,,,,,,,,0,,,86,106
255600,note_on,0,0,6,,,,,,,,5,,,50,64
255600,note_on,0,0,6,,,,,,,,5,,,70,64
255600,note_on,0,0,6,,,,,,,,5,,,65,64
255600,note_on,15,0,2,,,,,,,,1,,,82,49
255600,note_on,5,0,5,,,,,,,,4,,,50,64
255600,note_on,5,0,6,,,,,,,,5,,,77,85
255715,note_on,115,0,1,,,,,,,,0,,,86,0
255720,note_on,5,0,1,,,,,,,,0,,,84,106
255825,note_on,225,0,5,,,,,,,,4,,,50,0
255825,note_on,225,0,2,,,,,,,,1,,,82,0
255825,note_on,225,0,6,,,,,,,,5,,,50,0
255825,note_on,225,0,3,,,,,,,,2,,,77,0
255825,note_on,225,0,4,,,,,,,,3,,,62,0
255835,note_on,115,0,1,,,,,,,,0,,,84,0
255840,note_on,15,0,6,,,,,,,,5,,,50,64
255840,note_on,5,0,1,,,,,,,,0,,,82,106
255840,note_on,15,0,2,,,,,,,,1,,,65,49
255840,note_on,15,0,3,,,,,,,,2,,,62,49
255840,note_on,15,0,4,,,,,,,,3,,,62,85
255840,note_on,15,0,5,,,,,,,,4,,,50,64
255955,note_on,115,0,6,,,,,,,,5,,,50,0
255955,note_on,115,0,5,,,,,,,,4,,,50,0
255960,note_on,5,0,6,,,,,,,,5,,,48,64
255960,note_on,5,0,5,,,,,,,,4,,,48,64
256065,note_on,225,0,4,,,,,,,,3,,,62,0
256065,note_on,225,0,2,,,,,,,,1,,,65,0
256065,note_on,225,0,3,,,,,,,,2,,,62,0
256075,note_on,115,0,6,,,,,,,,5,,,48,0
256075,note_on,115,0,5,,,,,,,,4,,,48,0
256080,note_on,15,0,4,,,,,,,,3,,,62,85
256080,note_on,15,0,3,,,,,,,,2,,,77,49
256080,note_on,15,0,2,,,,,,,,1,,,82,49
256080,note_on,5,0,6,,,,,,,,5,,,50,64
256080,note_on,5,0,5,,,,,,,,4,,,50,64
256195,note_on,115,0,6,,,,,,,,5,,,50,0
256195,note_on,115,0,5,,,,,,,,4,,,50,0
256200,note_on,5,0,5,,,,,,,,4,,,38,64
256200,note_on,5,0,6,,,,,,,,5,,,38,64
256265,note_on,65,0,6,,,,,,,,5,,,65,0
256265,note_on,0,0,6,,,,,,,,5,,,77,0
256265,note_on,0,0,6,,,,,,,,5,,,70,0
256285,note_on,445,0,1,,,,,,,,0,,,82,0
256305,note_on,225,0,4,,,,,,,,3,,,62,0
256305,note_on,225,0,2,,,,,,,,1,,,82,0
256305,note_on,225,0,3,,,,,,,,2,,,77,0
256315,note_on,115,0,5,,,,,,,,4,,,38,0
256315,note_on,50,0,6,,,,,,,,5,,,38,0
256320,note_on,0,0,6,,,,,,,,5,,,70,64
256320,note_on,0,0,6,,,,,,,,5,,,67,64
256320,note_on,0,0,6,,,,,,,,5,,,36,64
256320,note_on,15,0,4,,,,,,,,3,,,64,85
256320,note_on,15,0,2,,,,,,,,1,,,82,49
256320,note_on,15,0,3,,,,,,,,2,,,79,49
256320,note_on,35,0,1,,,,,,,,0,,,82,106
256320,note_on,5,0,6,,,,,,,,5,,,76,85
256320,note_on,5,0,5,,,,,,,,4,,,36,64
256435,note_on,115,0,1,,,,,,,,0,,,82,0
256440,note_on,5,0,1,,,,,,,,0,,,72,106
256555,note_on,115,0,1,,,,,,,,0,,,72,0
256560,note_on,5,0,1,,,,,,,,0,,,82,106
256675,note_on,115,0,1,,,,,,,,0,,,82,0
256680,note_on,5,0,1,,,,,,,,0,,,72,106
256765,note_on,445,0,6,,,,,,,,5,,,36,0
256765,note_on,445,0,2,,,,,,,,1,,,82,0
256765,note_on,445,0,3,,,,,,,,2,,,79,0
256765,note_on,445,0,4,,,,,,,,3,,,64,0
256765,note_on,445,0,5,,,,,,,,4,,,36,0
256765,note_on,0,0,6,,,,,,,,5,,,76,0
256765,note_on,0,0,6,,,,,,,,5,,,67,0
256765,note_on,0,0,6,,,,,,,,5,,,70,0
256795,note_on,115,0,1,,,,,,,,0,,,72,0
256800,note_on,5,0,1,,,,,,,,0,,,81,106
256915,note_on,115,0,1,,,,,,,,0,,,81,0
256920,note_on,5,0,1,,,,,,,,0,,,72,106
257035,note_on,115,0,1,,,,,,,,0,,,72,0
257040,note_on,0,0,6,,,,,,,,5,,,76,64
257040,note_on,275,0,2,,,,,,,,1,,,82,49
257040,note_on,275,0,6,,,,,,,,5,,,79,85
257040,note_on,5,0,1,,,,,,,,0,,,79,106
257040,note_on,275,0,5,,,,,,,,4,,,48,64
257040,note_on,0,0,6,,,,,,,,5,,,48,64
257040,note_on,275,0,3,,,,,,,,2,,,79,49
257040,note_on,0,0,6,,,,,,,,5,,,70,64
257040,note_on,275,0,4,,,,,,,,3,,,64,85
257155,note_on,115,0,1,,,,,,,,0,,,79,0
257160,note_on,5,0,1,,,,,,,,0,,,72,106
257275,note_on,115,0,1,,,,,,,,0,,,72,0
257280,note_on,5,0,1,,,,,,,,0,,,79,106
257395,note_on,115,0,1,,,,,,,,0,,,79,0
257400,note_on,5,0,1,,,,,,,,0,,,72,106
257485,note_on,0,0,6,,,,,,,,5,,,76,0
257485,note_on,445,0,6,,,,,,,,5,,,48,0
257485,note_on,0,0,6,,,,,,,,5,,,70,0
257485,note_on,445,0,4,,,,,,,,3,,,64,0
257485,note_on,445,0,3,,,,,,,,2,,,79,0
257485,note_on,0,0,6,,,,,,,,5,,,79,0
257485,note_on,445,0,2,,,,,,,,1,,,82,0
257485,note_on,445,0,5,,,,,,,,4,,,48,0
257515,note_on,115,0,1,,,,,,,,0,,,72,0
257520,note_on,5,0,1,,,,,,,,0,,,77,106
257635,note_on,115,0,1,,,,,,,,0,,,77,0
257640,note_on,5,0,1,,,,,,,,0,,,72,106
257755,note_on,115,0,1,,,,,,,,0,,,72,0
257760,note_on,5,0,1,,,,,,,,0,,,76,106
257760,note_on,275,0,2,,,,,,,,1,,,82,49
257760,note_on,275,0,3,,,,,,,,2,,,79,49
257760,note_on,0,0,6,,,,,,,,5,,,70,64
257760,note_on,0,0,6,,,,,,,,5,,,67,64
257760,note_on,0,0,6,,,,,,,,5,,,48,64
257760,note_on,275,0,4,,,,,,,,3,,,64,85
257760,note_on,275,0,5,,,,,,,,4,,,48,64
257760,note_on,275,0,6,,,,,,,,5,,,76,85
257875,note_on,115,0,1,,,,,,,,0,,,76,0
257880,note_on,5,0,1,,,,,,,,0,,,72,106
257995,note_on,115,0,1,,,,,,,,0,,,72,0
258000,note_on,5,0,1,,,,,,,,0,,,76,106
258115,note_on,115,0,1,,,,,,,,0,,,76,0
258120,note_on,5,0,1,,,,,,,,0,,,72,106
258205,note_on,0,0,6,,,,,,,,5,,,67,0
258205,note_on,445,0,2,,,,,,,,1,,,82,0
258205,note_on,445,0,3,,,,,,,,2,,,79,0
258205,note_on,0,0,6,,,,,,,,5,,,70,0
258205,note_on,445,0,4,,,,,,,,3,,,64,0
258205,note_on,445,0,5,,,,,,,,4,,,48,0
258205,note_on,445,0,6,,,,,,,,5,,,48,0
258205,note_on,0,0,6,,,,,,,,5,,,76,0
258235,note_on,115,0,1,,,,,,,,0,,,72,0
258240,note_on,5,0,1,,,,,,,,0,,,76,106
258355,note_on,115,0,1,,,,,,,,0,,,76,0
258360,note_on,5,0,1,,,,,,,,0,,,72,106
258475,note_on,115,0,1,,,,,,,,0,,,72,0
258480,note_on,275,0,4,,,,,,,,3,,,64,85
258480,note_on,275,0,6,,,,,,,,5,,,76,85
258480,note_on,0,0,6,,,,,,,,5,,,70,64
258480,note_on,0,0,6,,,,,,,,5,,,67,64
258480,note_on,0,0,6,,,,,,,,5,,,48,64
258480,note_on,275,0,3,,,,,,,,2,,,79,49
258480,note_on,275,0,2,,,,,,,,1,,,82,49
258480,note_on,275,0,5,,,,,,,,4,,,48,64
258480,note_on,5,0,1,,,,,,,,0,,,82,106
258595,note_on,115,0,1,,,,,,,,0,,,82,0
258600,note_on,5,0,1,,,,,,,,0,,,72,106
258715,note_on,115,0,1,,,,,,,,0,,,72,0
258720,note_on,5,0,1,,,,,,,,0,,,82,106
258835,note_on,115,0,1,,,,,,,,0,,,82,0
258840,note_on,5,0,1,,,,,,,,0,,,72,106
258925,note_on,445,0,2,,,,,,,,1,,,82,0
258925,note_on,445,0,3,,,,,,,,2,,,79,0
258925,note_on,445,0,4,,,,,,,,3,,,64,0
258925,note_on,445,0,5,,,,,,,,4,,,48,0
258925,note_on,0,0,6,,,,,,,,5,,,67,0
258925,note_on,0,0,6,,,,,,,,5,,,70,0
258925,note_on,445,0,6,,,,,,,,5,,,48,0
258925,note_on,0,0,6,,,,,,,,5,,,76,0
258955,note_on,115,0,1,,,,,,,,0,,,72,0
258960,note_on,5,0,1,,,,,,,,0,,,81,106
259075,note_on,115,0,1,,,,,,,,0,,,81,0
259080,note_on,5,0,1,,,,,,,,0,,,72,106
259195,note_on,115,0,1,,,,,,,,0,,,72,0
259200,note_on,0,0,6,,,,,,,,5,,,76,64
259200,note_on,275,0,5,,,,,,,,4,,,48,64
259200,note_on,275,0,6,,,,,,,,5,,,79,85
259200,note_on,275,0,2,,,,,,,,1,,,82,49
259200,note_on,275,0,3,,,,,,,,2,,,79,49
259200,note_on,0,0,6,,,,,,,,5,,,70,64
259200,note_on,275,0,4,,,,,,,,3,,,64,85
259200,note_on,5,0,1,,,,,,,,0,,,79,106
259200,note_on,0,0,6,,,,,,,,5,,,48,64
259315,note_on,115,0,1,,,,,,,,0,,,79,0
259320,note_on,5,0,1,,,,,,,,0,,,72,106
259435,note_on,115,0,1,,,,,,,,0,,,72,0
259440,note_on,5,0,1,,,,,,,,0,,,79,106
259555,note_on,115,0,1,,,,,,,,0,,,79,0
259560,note_on,5,0,1,,,,,,,,0,,,72,106
259645,note_on,0,0,6,,,,,,,,5,,,79,0
259645,note_on,445,0,5,,,,,,,,4,,,48,0
259645,note_on,0,0,6,,,,,,,,5,,,76,0
259645,note_on,0,0,6,,,,,,,,5,,,70,0
259645,note_on,445,0,4,,,,,,,,3,,,64,0
259645,note_on,445,0,2,,,,,,,,1,,,82,0
259645,note_on,445,0,6,,,,,,,,5,,,48,0
259645,note_on,445,0,3,,,,,,,,2,,,79,0
259675,note_on,115,0,1,,,,,,,,0,,,72,0
259680,note_on,5,0,1,,,,,,,,0,,,77,106
259795,note_on,115,0,1,,,,,,,,0,,,77,0
259800,note_on,5,0,1,,,,,,,,0,,,72,106
259915,note_on,115,0,1,,,,,,,,0,,,72,0
259920,note_on,0,0,6,,,,,,,,5,,,70,64
259920,note_on,0,0,6,,,,,,,,5,,,48,64
259920,note_on,275,0,5,,,,,,,,4,,,48,64
259920,note_on,275,0,4,,,,,,,,3,,,64,85
259920,note_on,275,0,3,,,,,,,,2,,,79,49
259920,note_on,275,0,6,,,,,,,,5,,,79,85
259920,note_on,275,0,2,,,,,,,,1,,,82,49
259920,note_on,5,0,1,,,,,,,,0,,,76,106
259920,note_on,0,0,6,,,,,,,,5,,,76,64
260035,note_on,115,0,1,,,,,,,,0,,,76,0
260040,note_on,5,0,1,,,,,,,,0,,,72,106
260155,note_on,115,0,1,,,,,,,,0,,,72,0
260160,note_on,5,0,1,,,,,,,,0,,,76,106
260275,note_on,115,0,1,,,,,,,,0,,,76,0
260280,note_on,5,0,1,,,,,,,,0,,,72,106
260365,note_on,445,0,3,,,,,,,,2,,,79,0
260365,note_on,445,0,2,,,,,,,,1,,,82,0
260365,note_on,0,0,6,,,,,,,,5,,,70,0
260365,note_on,0,0,6,,,,,,,,5,,,79,0
260365,note_on,445,0,4,,,,,,,,3,,,64,0
260365,note_on,445,0,6,,,,,,,,5,,,48,0
260365,note_on,445,0,5,,,,,,,,4,,,48,0
260365,note_on,0,0,6,,,,,,,,5,,,76,0
260395,note_on,115,0,1,,,,,,,,0,,,72,0
260400,note_on,5,0,1,,,,,,,,0,,,76,106
260515,note_on,115,0,1,,,,,,,,0,,,76,0
260520,note_on,5,0,1,,,,,,,,0,,,72,106
260635,note_on,115,0,1,,,,,,,,0,,,72,0
260640,note_on,0,0,6,,,,,,,,5,,,76,64
260640,note_on,0,0,6,,,,,,,,5,,,48,64
260640,note_on,275,0,2,,,,,,,,1,,,82,49
260640,note_on,275,0,5,,,,,,,,4,,,48,64
260640,note_on,5,0,1,,,,,,,,0,,,72,106
260640,note_on,275,0,3,,,,,,,,2,,,79,49
260640,note_on,275,0,4,,,,,,,,3,,,64,85
260640,note_on,0,0,6,,,,,,,,5,,,79,64
260640,note_on,275,0,6,,,,,,,,5,,,82,85
260755,note_on,115,0,1,,,,,,,,0,,,72,0
260760,note_on,5,0,1,,,,,,,,0,,,74,106
260820,note_on,60,0,1,,,,,,,,0,,,74,0
260820,note_on,0,0,1,,,,,,,,0,,,76,106
260880,note_on,0,0,1,,,,,,,,0,,,77,106
260880,note_on,60,0,1,,,,,,,,0,,,76,0
260940,note_on,60,0,1,,,,,,,,0,,,77,0
260940,note_on,0,0,1,,,,,,,,0,,,79,106
261000,note_on,60,0,1,,,,,,,,0,,,79,0
261000,note_on,0,0,1,,,,,,,,0,,,81,106
261060,note_on,0,0,1,,,,,,,,0,,,82,106
261060,note_on,60,0,1,,,,,,,,0,,,81,0
261085,note_on,445,0,2,,,,,,,,1,,,82,0
261085,note_on,445,0,6,,,,,,,,5,,,48,0
261085,note_on,0,0,6,,,,,,,,5,,,82,0
261085,note_on,0,0,6,,,,,,,,5,,,79,0
261085,note_on,445,0,3,,,,,,,,2,,,79,0
261085,note_on,445,0,5,,,,,,,,4,,,48,0
261085,note_on,0,0,6,,,,,,,,5,,,76,0
261085,note_on,445,0,4,,,,,,,,3,,,64,0
261120,note_on,0,0,1,,,,,,,,0,,,84,106
261120,note_on,60,0,1,,,,,,,,0,,,82,0
261235,note_on,115,0,1,,,,,,,,0,,,84,0
261360,note_on,275,0,4,,,,,,,,3,,,64,85
261360,note_on,125,0,1,,,,,,,,0,,,72,106
261360,note_on,275,0,2,,,,,,,,1,,,82,49
261360,note_on,0,0,6,,,,,,,,5,,,48,64
261360,note_on,0,0,6,,,,,,,,5,,,76,64
261360,note_on,0,0,6,,,,,,,,5,,,79,64
261360,note_on,275,0,6,,,,,,,,5,,,82,85
261360,note_on,275,0,5,,,,,,,,4,,,48,64
261360,note_on,275,0,3,,,,,,,,2,,,79,49
261475,note_on,115,0,1,,,,,,,,0,,,72,0
261480,note_on,5,0,1,,,,,,,,0,,,74,106
261540,note_on,0,0,1,,,,,,,,0,,,76,106
261540,note_on,60,0,1,,,,,,,,0,,,74,0
261600,note_on,60,0,1,,,,,,,,0,,,76,0
261600,note_on,0,0,1,,,,,,,,0,,,77,106
261660,note_on,60,0,1,,,,,,,,0,,,77,0
261660,note_on,0,0,1,,,,,,,,0,,,79,106
261720,note_on,0,0,1,,,,,,,,0,,,81,106
261720,note_on,60,0,1,,,,,,,,0,,,79,0
261780,note_on,0,0,1,,,,,,,,0,,,82,106
261780,note_on,60,0,1,,,,,,,,0,,,81,0
261805,note_on,0,0,6,,,,,,,,5,,,76,0
261805,note_on,445,0,4,,,,,,,,3,,,64,0
261805,note_on,445,0,3,,,,,,,,2,,,79,0
261805,note_on,445,0,2,,,,,,,,1,,,82,0
261805,note_on,0,0,6,,,,,,,,5,,,79,0
261805,note_on,0,0,6,,,,,,,,5,,,82,0
261805,note_on,445,0,6,,,,,,,,5,,,48,0
261805,note_on,445,0,5,,,,,,,,4,,,48,0
261840,note_on,60,0,1,,,,,,,,0,,,82,0
261840,note_on,0,0,1,,,,,,,,0,,,84,106
261955,note_on,115,0,1,,,,,,,,0,,,84,0
262080,note_on,275,0,5,,,,,,,,4,,,48,64
262080,note_on,275,0,2,,,,,,,,1,,,82,49
262080,note_on,275,0,3,,,,,,,,2,,,79,49
262080,note_on,275,0,6,,,,,,,,5,,,82,85
262080,note_on,0,0,6,,,,,,,,5,,,79,64
262080,note_on,0,0,6,,,,,,,,5,,,76,64
262080,note_on,0,0,6,,,,,,,,5,,,48,64
262080,note_on,125,0,1,,,,,,,,0,,,72,106
262080,note_on,275,0,4,,,,,,,,3,,,64,85
262195,note_on,115,0,1,,,,,,,,0,,,72,0
262200,note_on,5,0,1,,,,,,,,0,,,74,106
262260,note_on,0,0,1,,,,,,,,0,,,76,106
262260,note_on,60,0,1,,,,,,,,0,,,74,0
262320,note_on,60,0,1,,,,,,,,0,,,76,0
262320,note_on,0,0,1,,,,,,,,0,,,77,106
262380,note_on,60,0,1,,,,,,,,0,,,77,0
262380,note_on,0,0,1,,,,,,,,0,,,79,106
262440,note_on,60,0,1,,,,,,,,0,,,79,0
262440,note_on,0,0,1,,,,,,,,0,,,81,106
262500,note_on,60,0,1,,,,,,,,0,,,81,0
262500,note_on,0,0,1,,,,,,,,0,,,82,106
262525,note_on,445,0,3,,,,,,,,2,,,79,0
262525,note_on,445,0,2,,,,,,,,1,,,82,0
262525,note_on,445,0,6,,,,,,,,5,,,48,0
262525,note_on,445,0,4,,,,,,,,3,,,64,0
262525,note_on,445,0,5,,,,,,,,4,,,48,0
262525,note_on,0,0,6,,,,,,,,5,,,82,0
262525,note_on,0,0,6,,,,,,,,5,,,79,0
262525,note_on,0,0,6,,,,,,,,5,,,76,0
262560,note_on,60,0,1,,,,,,,,0,,,82,0
262560,note_on,0,0,1,,,,,,,,0,,,84,106
262675,note_on,115,0,1,,,,,,,,0,,,84,0
262800,note_on,275,0,2,,,,,,,,1,,,81,49
262800,note_on,125,0,1,,,,,,,,0,,,81,106
262800,note_on,0,0,6,,,,,,,,5,,,53,64
262800,note_on,275,0,6,,,,,,,,5,,,81,85
262800,note_on,275,0,3,,,,,,,,2,,,77,49
262800,note_on,0,0,6,,,,,,,,5,,,77,64
262800,note_on,275,0,4,,,,,,,,3,,,60,85
262800,note_on,0,0,6,,,,,,,,5,,,72,64
262800,note_on,275,0,5,,,,,,,,4,,,53,64
263025,note_on,225,0,3,,,,,,,,2,,,77,0
263025,note_on,225,0,4,,,,,,,,3,,,60,0
263025,note_on,225,0,1,,,,,,,,0,,,81,0
263025,note_on,225,0,2,,,,,,,,1,,,81,0
263025,note_on,225,0,6,,,,,,,,5,,,53,0
263025,note_on,0,0,6,,,,,,,,5,,,81,0
263025,note_on,0,0,6,,,,,,,,5,,,77,0
263025,note_on,0,0,6,,,,,,,,5,,,72,0
263025,note_on,225,0,5,,,,,,,,4,,,53,0
263040,note_on,15,0,5,,,,,,,,4,,,46,64
263040,note_on,15,0,1,,,,,,,,0,,,82,106
263040,note_on,15,0,4,,,,,,,,3,,,62,85
263040,note_on,15,0,6,,,,,,,,5,,,79,85
263040,note_on,0,0,6,,,,,,,,5,,,74,64
263040,note_on,0,0,6,,,,,,,,5,,,46,64
263040,note_on,15,0,2,,,,,,,,1,,,82,49
263040,note_on,15,0,3,,,,,,,,2,,,79,49
263265,note_on,225,0,3,,,,,,,,2,,,79,0
263265,note_on,225,0,6,,,,,,,,5,,,46,0
263265,note_on,0,0,6,,,,,,,,5,,,74,0
263265,note_on,225,0,4,,,,,,,,3,,,62,0
263265,note_on,225,0,1,,,,,,,,0,,,82,0
263265,note_on,225,0,5,,,,,,,,4,,,46,0
263265,note_on,225,0,2,,,,,,,,1,,,82,0
263280,note_on,15,0,1,,,,,,,,0,,,79,106
263280,note_on,15,0,4,,,,,,,,3,,,60,85
263280,note_on,0,0,6,,,,,,,,5,,,48,64
263280,note_on,15,0,5,,,,,,,,4,,,48,64
263280,note_on,15,0,3,,,,,,,,2,,,76,49
263280,note_on,15,0,6,,,,,,,,5,,,76,64
263280,note_on,0,0,6,,,,,,,,5,,,72,64
263280,note_on,15,0,2,,,,,,,,1,,,79,49
263485,note_on,205,0,6,,,,,,,,5,,,79,0
263505,note_on,225,0,1,,,,,,,,0,,,79,0
263505,note_on,225,0,5,,,,,,,,4,,,48,0
263505,note_on,20,0,6,,,,,,,,5,,,76,0
263505,note_on,0,0,6,,,,,,,,5,,,48,0
263505,note_on,225,0,4,,,,,,,,3,,,60,0
263505,note_on,225,0,3,,,,,,,,2,,,76,0
263505,note_on,0,0,6,,,,,,,,5,,,72,0
263505,note_on,225,0,2,,,,,,,,1,,,79,0
263520,note_on,15,0,1,,,,,,,,0,,,77,34
263520,note_on,15,0,5,,,,,,,,4,,,41,34
263520,note_on,15,0,4,,,,,,,,3,,,60,34
263520,note_on,15,0,3,,,,,,,,2,,,77,34
263520,note_on,15,0,2,,,,,,,,1,,,77,34
263520,note_on,15,0,6,,,,,,,,5,,,81,85
263520,note_on,0,0,6,,,,,,,,5,,,41,34
263520,note_on,0,0,6,,,,,,,,5,,,72,64
263520,note_on,0,0,6,,,,,,,,5,,,77,64
263635,note_on,115,0,3,,,,,,,,2,,,77,0
263635,note_on,115,0,1,,,,,,,,0,,,77,0
263635,note_on,115,0,2,,,,,,,,1,,,77,0
263635,note_on,115,0,4,,,,,,,,3,,,60,0
263640,note_on,5,0,1,,,,,,,,0,,,65,34
263640,note_on,5,0,4,,,,,,,,3,,,57,34
263640,note_on,5,0,2,,,,,,,,1,,,65,34
263640,note_on,5,0,3,,,,,,,,2,,,60,34
263745,note_on,225,0,5,,,,,,,,4,,,41,0
263745,note_on,225,0,6,,,,,,,,5,,,41,0
263755,note_on,115,0,1,,,,,,,,0,,,65,0
263755,note_on,115,0,3,,,,,,,,2,,,60,0
263755,note_on,115,0,2,,,,,,,,1,,,65,0
263755,note_on,115,0,4,,,,,,,,3,,,57,0
263760,note_on,5,0,3,,,,,,,,2,,,60,34
263760,note_on,15,0,6,,,,,,,,5,,,41,34
263760,note_on,5,0,1,,,,,,,,0,,,65,34
263760,note_on,5,0,2,,,,,,,,1,,,65,34
263760,note_on,5,0,4,,,,,,,,3,,,57,34
263760,note_on,15,0,5,,,,,,,,4,,,41,34
263875,note_on,115,0,1,,,,,,,,0,,,65,0
263875,note_on,115,0,3,,,,,,,,2,,,60,0
263875,note_on,115,0,6,,,,,,,,5,,,41,0
263875,note_on,115,0,2,,,,,,,,1,,,65,0
263875,note_on,115,0,4,,,,,,,,3,,,57,0
263875,note_on,115,0,5,,,,,,,,4,,,41,0
263880,note_on,5,0,2,,,,,,,,1,,,69,49
263880,note_on,5,0,6,,,,,,,,5,,,41,34
263880,note_on,5,0,4,,,,,,,,3,,,60,34
263880,note_on,5,0,1,,,,,,,,0,,,69,49
263880,note_on,5,0,3,,,,,,,,2,,,65,34
263880,note_on,5,0,5,,,,,,,,4,,,41,34
263965,note_on,85,0,6,,,,,,,,5,,,72,0
263965,note_on,0,0,6,,,,,,,,5,,,81,0
263965,note_on,0,0,6,,,,,,,,5,,,77,0
263995,note_on,115,0,3,,,,,,,,2,,,65,0
263995,note_on,115,0,2,,,,,,,,1,,,69,0
263995,note_on,30,0,6,,,,,,,,5,,,41,0
263995,note_on,115,0,5,,,,,,,,4,,,41,0
263995,note_on,115,0,1,,,,,,,,0,,,69,0
263995,note_on,115,0,4,,,,,,,,3,,,60,0
264000,note_on,5,0,4,,,,,,,,3,,,60,34
264000,note_on,5,0,5,,,,,,,,4,,,41,34
264000,note_on,5,0,2,,,,,,,,1,,,69,49
264000,note_on,5,0,1,,,,,,,,0,,,69,49
264000,note_on,5,0,6,,,,,,,,5,,,72,85
264000,note_on,5,0,3,,,,,,,,2,,,65,49
264000,note_on,0,0,6,,,,,,,,5,,,41,34
264115,note_on,115,0,5,,,,,,,,4,,,41,0
264115,note_on,115,0,2,,,,,,,,1,,,69,0
264115,note_on,115,0,1,,,,,,,,0,,,69,0
264115,note_on,115,0,6,,,,,,,,5,,,41,0
264115,note_on,115,0,3,,,,,,,,2,,,65,0
264115,note_on,115,0,4,,,,,,,,3,,,60,0
264120,note_on,5,0,6,,,,,,,,5,,,41,49
264120,note_on,5,0,2,,,,,,,,1,,,72,49
264120,note_on,5,0,1,,,,,,,,0,,,72,49
264120,note_on,5,0,3,,,,,,,,2,,,69,49
264120,note_on,5,0,4,,,,,,,,3,,,65,34
264120,note_on,5,0,5,,,,,,,,4,,,41,49
264225,note_on,105,0,6,,,,,,,,5,,,72,0
264235,note_on,115,0,2,,,,,,,,1,,,72,0
264235,note_on,115,0,4,,,,,,,,3,,,65,0
264235,note_on,10,0,6,,,,,,,,5,,,41,0
264235,note_on,115,0,3,,,,,,,,2,,,69,0
264235,note_on,115,0,1,,,,,,,,0,,,72,0
264235,note_on,115,0,5,,,,,,,,4,,,41,0
264240,note_on,5,0,5,,,,,,,,4,,,41,49
264240,note_on,5,0,4,,,,,,,,3,,,65,49
264240,note_on,5,0,3,,,,,,,,2,,,69,49
264240,note_on,0,0,6,,,,,,,,5,,,41,49
264240,note_on,5,0,2,,,,,,,,1,,,72,49
264240,note_on,5,0,6,,,,,,,,5,,,77,85
264240,note_on,0,0,6,,,,,,,,5,,,72,64
264240,note_on,0,0,6,,,,,,,,5,,,69,64
264240,note_on,5,0,1,,,,,,,,0,,,72,49
264355,note_on,115,0,2,,,,,,,,1,,,72,0
264355,note_on,115,0,3,,,,,,,,2,,,69,0
264355,note_on,115,0,1,,,,,,,,0,,,72,0
264355,note_on,115,0,4,,,,,,,,3,,,65,0
264360,note_on,5,0,2,,,,,,,,1,,,69,49
264360,note_on,5,0,1,,,,,,,,0,,,69,49
264360,note_on,5,0,4,,,,,,,,3,,,60,49
264360,note_on,5,0,3,,,,,,,,2,,,65,49
264465,note_on,225,0,5,,,,,,,,4,,,41,0
264465,note_on,225,0,6,,,,,,,,5,,,41,0
264475,note_on,115,0,1,,,,,,,,0,,,69,0
264475,note_on,115,0,3,,,,,,,,2,,,65,0
264475,note_on,115,0,2,,,,,,,,1,,,69,0
264475,note_on,115,0,4,,,,,,,,3,,,60,0
264480,note_on,15,0,6,,,,,,,,5,,,41,49
264480,note_on,5,0,3,,,,,,,,2,,,65,49
264480,note_on,15,0,5,,,,,,,,4,,,41,49
264480,note_on,5,0,1,,,,,,,,0,,,69,49
264480,note_on,5,0,4,,,,,,,,3,,,60,49
264480,note_on,5,0,2,,,,,,,,1,,,69,49
264595,note_on,115,0,1,,,,,,,,0,,,69,0
264595,note_on,115,0,6,,,,,,,,5,,,41,0
264595,note_on,115,0,3,,,,,,,,2,,,65,0
264595,note_on,115,0,4,,,,,,,,3,,,60,0
264595,note_on,115,0,2,,,,,,,,1,,,69,0
264595,note_on,115,0,5,,,,,,,,4,,,41,0
264600,note_on,5,0,4,,,,,,,,3,,,65,49
264600,note_on,5,0,2,,,,,,,,1,,,72,49
264600,note_on,5,0,6,,,,,,,,5,,,41,49
264600,note_on,5,0,5,,,,,,,,4,,,41,49
264600,note_on,5,0,3,,,,,,,,2,,,69,49
264600,note_on,5,0,1,,,,,,,,0,,,72,49
264685,note_on,85,0,6,,,,,,,,5,,,69,0
264685,note_on,0,0,6,,,,,,,,5,,,77,0
264685,note_on,0,0,6,,,,,,,,5,,,72,0
264715,note_on,115,0,3,,,,,,,,2,,,69,0
264715,note_on,115,0,2,,,,,,,,1,,,72,0
264715,note_on,115,0,5,,,,,,,,4,,,41,0
264715,note_on,115,0,1,,,,,,,,0,,,72,0
264715,note_on,115,0,4,,,,,,,,3,,,65,0
264715,note_on,30,0,6,,,,,,,,5,,,41,0
264720,note_on,5,0,4,,,,,,,,3,,,65,49
264720,note_on,5,0,6,,,,,,,,5,,,77,85
264720,note_on,5,0,2,,,,,,,,1,,,72,49
264720,note_on,0,0,6,,,,,,,,5,,,69,64
264720,note_on,5,0,1,,,,,,,,0,,,72,49
264720,note_on,5,0,5,,,,,,,,4,,,41,49
264720,note_on,5,0,3,,,,,,,,2,,,69,49
264720,note_on,0,0,6,,,,,,,,5,,,72,64
264720,note_on,0,0,6,,,,,,,,5,,,41,49
264835,note_on,115,0,1,,,,,,,,0,,,72,0
264835,note_on,115,0,5,,,,,,,,4,,,41,0
264835,note_on,115,0,3,,,,,,,,2,,,69,0
264835,note_on,115,0,6,,,,,,,,5,,,41,0
264835,note_on,115,0,2,,,,,,,,1,,,72,0
264835,note_on,115,0,4,,,,,,,,3,,,65,0
264840,note_on,5,0,4,,,,,,,,3,,,69,49
264840,note_on,5,0,6,,,,,,,,5,,,41,49
264840,note_on,5,0,1,,,,,,,,0,,,77,49
264840,note_on,5,0,5,,,,,,,,4,,,41,49
264840,note_on,5,0,2,,,,,,,,1,,,77,49
264840,note_on,5,0,3,,,,,,,,2,,,72,49
264945,note_on,105,0,6,,,,,,,,5,,,77,0
264945,note_on,0,0,6,,,,,,,,5,,,69,0
264945,note_on,0,0,6,,,,,,,,5,,,72,0
264955,note_on,115,0,1,,,,,,,,0,,,77,0
264955,note_on,115,0,5,,,,,,,,4,,,41,0
264955,note_on,10,0,6,,,,,,,,5,,,41,0
264955,note_on,115,0,2,,,,,,,,1,,,77,0
264955,note_on,115,0,3,,,,,,,,2,,,72,0
264955,note_on,115,0,4,,,,,,,,3,,,69,0
264960,note_on,5,0,5,,,,,,,,4,,,41,49
264960,note_on,5,0,3,,,,,,,,2,,,72,49
264960,note_on,5,0,1,,,,,,,,0,,,77,49
264960,note_on,5,0,6,,,,,,,,5,,,77,85
264960,note_on,0,0,6,,,,,,,,5,,,72,64
264960,note_on,5,0,2,,,,,,,,1,,,77,49
264960,note_on,0,0,6,,,,,,,,5,,,41,49
264960,note_on,0,0,6,,,,,,,,5,,,69,64
264960,note_on,5,0,4,,,,,,,,3,,,69,49
265075,note_on,115,0,2,,,,,,,,1,,,77,0
265075,note_on,115,0,4,,,,,,,,3,,,69,0
265075,note_on,115,0,3,,,,,,,,2,,,72,0
265075,note_on,115,0,1,,,,,,,,0,,,77,0
265080,note_on,5,0,4,,,,,,,,3,,,65,49
265080,note_on,5,0,2,,,,,,,,1,,,72,64
265080,note_on,5,0,3,,,,,,,,2,,,69,49
265080,note_on,5,0,1,,,,,,,,0,,,72,64
265185,note_on,225,0,6,,,,,,,,5,,,41,0
265185,note_on,225,0,5,,,,,,,,4,,,41,0
265195,note_on,115,0,2,,,,,,,,1,,,72,0
265195,note_on,115,0,4,,,,,,,,3,,,65,0
265195,note_on,115,0,3,,,,,,,,2,,,69,0
265195,note_on,115,0,1,,,,,,,,0,,,72,0
265200,note_on,5,0,1,,,,,,,,0,,,72,64
265200,note_on,15,0,6,,,,,,,,5,,,41,49
265200,note_on,5,0,4,,,,,,,,3,,,65,49
265200,note_on,15,0,5,,,,,,,,4,,,41,49
265200,note_on,5,0,2,,,,,,,,1,,,72,64
265200,note_on,5,0,3,,,,,,,,2,,,69,64
265315,note_on,115,0,3,,,,,,,,2,,,69,0
265315,note_on,115,0,1,,,,,,,,0,,,72,0
265315,note_on,115,0,2,,,,,,,,1,,,72,0
265315,note_on,115,0,4,,,,,,,,3,,,65,0
265315,note_on,115,0,6,,,,,,,,5,,,41,0
265315,note_on,115,0,5,,,,,,,,4,,,41,0
265320,note_on,5,0,3,,,,,,,,2,,,72,64
265320,note_on,5,0,6,,,,,,,,5,,,41,64
265320,note_on,5,0,2,,,,,,,,1,,,77,64
265320,note_on,5,0,1,,,,,,,,0,,,77,64
265320,note_on,5,0,4,,,,,,,,3,,,69,49
265320,note_on,5,0,5,,,,,,,,4,,,41,64
265405,note_on,0,0,6,,,,,,,,5,,,77,0
265405,note_on,0,0,6,,,,,,,,5,,,72,0
265405,note_on,85,0,6,,,,,,,,5,,,69,0
265435,note_on,115,0,1,,,,,,,,0,,,77,0
265435,note_on,115,0,5,,,,,,,,4,,,41,0
265435,note_on,115,0,4,,,,,,,,3,,,69,0
265435,note_on,115,0,3,,,,,,,,2,,,72,0
265435,note_on,115,0,2,,,,,,,,1,,,77,0
265435,note_on,30,0,6,,,,,,,,5,,,41,0
265440,note_on,5,0,4,,,,,,,,3,,,69,64
265440,note_on,5,0,3,,,,,,,,2,,,72,64
265440,note_on,5,0,2,,,,,,,,1,,,77,64
265440,note_on,5,0,1,,,,,,,,0,,,77,64
265440,note_on,5,0,5,,,,,,,,4,,,41,64
265440,note_on,0,0,6,,,,,,,,5,,,41,64
265440,note_on,5,0,6,,,,,,,,5,,,65,85
265555,note_on,115,0,6,,,,,,,,5,,,41,0
265555,note_on,115,0,3,,,,,,,,2,,,72,0
265555,note_on,115,0,5,,,,,,,,4,,,41,0
265555,note_on,115,0,1,,,,,,,,0,,,77,0
265555,note_on,115,0,4,,,,,,,,3,,,69,0
265555,note_on,115,0,2,,,,,,,,1,,,77,0
265560,note_on,5,0,2,,,,,,,,1,,,81,64
265560,note_on,5,0,1,,,,,,,,0,,,81,64
265560,note_on,5,0,5,,,,,,,,4,,,41,64
265560,note_on,5,0,6,,,,,,,,5,,,41,64
265560,note_on,5,0,4,,,,,,,,3,,,72,64
265560,note_on,5,0,3,,,,,,,,2,,,77,64
265665,note_on,105,0,6,,,,,,,,5,,,65,0
265675,note_on,115,0,3,,,,,,,,2,,,77,0
265675,note_on,115,0,1,,,,,,,,0,,,81,0
265675,note_on,115,0,2,,,,,,,,1,,,81,0
265675,note_on,115,0,4,,,,,,,,3,,,72,0
265675,note_on,10,0,6,,,,,,,,5,,,41,0
265675,note_on,115,0,5,,,,,,,,4,,,41,0
265680,note_on,5,0,5,,,,,,,,4,,,41,64
265680,note_on,0,0,6,,,,,,,,5,,,69,64
265680,note_on,5,0,6,,,,,,,,5,,,72,85
265680,note_on,0,0,6,,,,,,,,5,,,65,64
265680,note_on,5,0,3,,,,,,,,2,,,77,64
265680,note_on,5,0,2,,,,,,,,1,,,81,64
265680,note_on,5,0,4,,,,,,,,3,,,72,64
265680,note_on,0,0,6,,,,,,,,5,,,41,64
265680,note_on,5,0,1,,,,,,,,0,,,81,64
265795,note_on,115,0,4,,,,,,,,3,,,72,0
265795,note_on,115,0,2,,,,,,,,1,,,81,0
265795,note_on,115,0,1,,,,,,,,0,,,81,0
265795,note_on,115,0,3,,,,,,,,2,,,77,0
265800,note_on,5,0,2,,,,,,,,1,,,77,64
265800,note_on,5,0,1,,,,,,,,0,,,77,64
265800,note_on,5,0,3,,,,,,,,2,,,72,64
265800,note_on,5,0,4,,,,,,,,3,,,69,64
265905,note_on,225,0,5,,,,,,,,4,,,41,0
265905,note_on,225,0,6,,,,,,,,5,,,41,0
265915,note_on,115,0,2,,,,,,,,1,,,77,0
265915,note_on,115,0,1,,,,,,,,0,,,77,0
265915,note_on,115,0,3,,,,,,,,2,,,72,0
265915,note_on,115,0,4,,,,,,,,3,,,69,0
265920,note_on,5,0,1,,,,,,,,0,,,77,64
265920,note_on,5,0,4,,,,,,,,3,,,69,85
265920,note_on,15,0,5,,,,,,,,4,,,41,64
265920,note_on,5,0,2,,,,,,,,1,,,77,64
265920,note_on,5,0,3,,,,,,,,2,,,72,64
265920,note_on,15,0,6,,,,,,,,5,,,41,64
266035,note_on,115,0,3,,,,,,,,2,,,72,0
266035,note_on,115,0,1,,,,,,,,0,,,77,0
266035,note_on,115,0,2,,,,,,,,1,,,77,0
266035,note_on,115,0,4,,,,,,,,3,,,69,0
266035,note_on,115,0,6,,,,,,,,5,,,41,0
266035,note_on,115,0,5,,,,,,,,4,,,41,0
266040,note_on,5,0,5,,,,,,,,4,,,41,64
266040,note_on,5,0,2,,,,,,,,1,,,81,64
266040,note_on,5,0,1,,,,,,,,0,,,81,64
266040,note_on,5,0,4,,,,,,,,3,,,72,85
266040,note_on,5,0,6,,,,,,,,5,,,41,64
266040,note_on,5,0,3,,,,,,,,2,,,77,64
266125,note_on,0,0,6,,,,,,,,5,,,69,0
266125,note_on,85,0,6,,,,,,,,5,,,65,0
266125,note_on,0,0,6,,,,,,,,5,,,72,0
266155,note_on,115,0,1,,,,,,,,0,,,81,0
266155,note_on,30,0,6,,,,,,,,5,,,41,0
266155,note_on,115,0,5,,,,,,,,4,,,41,0
266155,note_on,115,0,3,,,,,,,,2,,,77,0
266155,note_on,115,0,4,,,,,,,,3,,,72,0
266155,note_on,115,0,2,,,,,,,,1,,,81,0
266160,note_on,5,0,1,,,,,,,,0,,,81,64
266160,note_on,0,0,6,,,,,,,,5,,,41,85
266160,note_on,5,0,4,,,,,,,,3,,,72,85
266160,note_on,5,0,5,,,,,,,,4,,,41,85
266160,note_on,5,0,3,,,,,,,,2,,,77,85
266160,note_on,5,0,6,,,,,,,,5,,,65,85
266160,note_on,5,0,2,,,,,,,,1,,,81,64
266275,note_on,115,0,1,,,,,,,,0,,,81,0
266275,note_on,115,0,6,,,,,,,,5,,,41,0
266275,note_on,115,0,2,,,,,,,,1,,,81,0
266275,note_on,115,0,5,,,,,,,,4,,,41,0
266275,note_on,115,0,4,,,,,,,,3,,,72,0
266275,note_on,115,0,3,,,,,,,,2,,,77,0
266280,note_on,5,0,1,,,,,,,,0,,,84,85
266280,note_on,5,0,5,,,,,,,,4,,,41,85
266280,note_on,5,0,3,,,,,,,,2,,,81,85
266280,note_on,5,0,6,,,,,,,,5,,,41,85
266280,note_on,5,0,4,,,,,,,,3,,,65,85
266280,note_on,5,0,2,,,,,,,,1,,,84,85
266385,note_on,105,0,6,,,,,,,,5,,,65,0
266395,note_on,115,0,4,,,,,,,,3,,,65,0
266395,note_on,115,0,2,,,,,,,,1,,,84,0
266395,note_on,115,0,3,,,,,,,,2,,,81,0
266395,note_on,115,0,5,,,,,,,,4,,,41,0
266395,note_on,10,0,6,,,,,,,,5,,,41,0
266395,note_on,115,0,1,,,,,,,,0,,,84,0
266400,note_on,5,0,5,,,,,,,,4,,,41,106
266400,note_on,0,0,6,,,,,,,,5,,,65,64
266400,note_on,5,0,1,,,,,,,,0,,,84,106
266400,note_on,5,0,3,,,,,,,,2,,,81,85
266400,note_on,5,0,6,,,,,,,,5,,,72,85
266400,note_on,5,0,2,,,,,,,,1,,,84,106
266400,note_on,0,0,6,,,,,,,,5,,,69,64
266400,note_on,0,0,6,,,,,,,,5,,,41,106
266400,note_on,5,0,4,,,,,,,,3,,,65,85
266515,note_on,115,0,2,,,,,,,,1,,,84,0
266515,note_on,115,0,1,,,,,,,,0,,,84,0
266515,note_on,115,0,3,,,,,,,,2,,,81,0
266515,note_on,115,0,4,,,,,,,,3,,,65,0
266520,note_on,5,0,4,,,,,,,,3,,,72,85
266520,note_on,5,0,3,,,,,,,,2,,,77,106
266520,note_on,5,0,1,,,,,,,,0,,,81,106
266520,note_on,5,0,2,,,,,,,,1,,,81,106
266625,note_on,225,0,6,,,,,,,,5,,,41,0
266625,note_on,225,0,5,,,,,,,,4,,,41,0
266635,note_on,115,0,4,,,,,,,,3,,,72,0
266635,note_on,115,0,3,,,,,,,,2,,,77,0
266635,note_on,115,0,2,,,,,,,,1,,,81,0
266635,note_on,115,0,1,,,,,,,,0,,,81,0
266640,note_on,5,0,1,,,,,,,,0,,,81,106
266640,note_on,5,0,4,,,,,,,,3,,,72,85
266640,note_on,5,0,3,,,,,,,,2,,,77,106
266640,note_on,15,0,6,,,,,,,,5,,,41,106
266640,note_on,5,0,2,,,,,,,,1,,,81,106
266640,note_on,15,0,5,,,,,,,,4,,,41,106
266755,note_on,115,0,1,,,,,,,,0,,,81,0
266755,note_on,115,0,4,,,,,,,,3,,,72,0
266755,note_on,115,0,6,,,,,,,,5,,,41,0
266755,note_on,115,0,3,,,,,,,,2,,,77,0
266755,note_on,115,0,2,,,,,,,,1,,,81,0
266755,note_on,115,0,5,,,,,,,,4,,,41,0
266760,note_on,5,0,2,,,,,,,,1,,,77,106
266760,note_on,5,0,3,,,,,,,,2,,,72,106
266760,note_on,5,0,5,,,,,,,,4,,,41,106
266760,note_on,5,0,1,,,,,,,,0,,,77,106
266760,note_on,5,0,6,,,,,,,,5,,,41,106
266760,note_on,5,0,4,,,,,,,,3,,,69,85
266875,note_on,115,0,1,,,,,,,,0,,,77,0
266875,note_on,115,0,6,,,,,,,,5,,,41,0
266875,note_on,115,0,5,,,,,,,,4,,,41,0
266875,note_on,115,0,4,,,,,,,,3,,,69,0
266875,note_on,115,0,2,,,,,,,,1,,,77,0
266875,note_on,115,0,3,,,,,,,,2,,,72,0
266880,note_on,5,0,6,,,,,,,,5,,,41,106
266880,note_on,5,0,5,,,,,,,,4,,,41,106
266880,note_on,5,0,2,,,,,,,,1,,,77,106
266880,note_on,5,0,4,,,,,,,,3,,,69,106
266880,note_on,5,0,3,,,,,,,,2,,,72,106
266880,note_on,5,0,1,,,,,,,,0,,,77,106
266995,note_on,115,0,3,,,,,,,,2,,,72,0
266995,note_on,115,0,6,,,,,,,,5,,,41,0
266995,note_on,115,0,2,,,,,,,,1,,,77,0
266995,note_on,115,0,1,,,,,,,,0,,,77,0
266995,note_on,115,0,4,,,,,,,,3,,,69,0
266995,note_on,115,0,5,,,,,,,,4,,,41,0
267000,note_on,5,0,3,,,,,,,,2,,,69,106
267000,note_on,5,0,2,,,,,,,,1,,,72,106
267000,note_on,5,0,6,,,,,,,,5,,,41,106
267000,note_on,5,0,4,,,,,,,,3,,,65,106
267000,note_on,5,0,1,,,,,,,,0,,,72,106
267000,note_on,5,0,5,,,,,,,,4,,,41,106
267065,note_on,0,0,6,,,,,,,,5,,,72,0
267065,note_on,0,0,6,,,,,,,,5,,,69,0
267065,note_on,65,0,6,,,,,,,,5,,,65,0
267115,note_on,115,0,1,,,,,,,,0,,,72,0
267115,note_on,115,0,2,,,,,,,,1,,,72,0
267115,note_on,50,0,6,,,,,,,,5,,,41,0
267115,note_on,115,0,3,,,,,,,,2,,,69,0
267115,note_on,115,0,4,,,,,,,,3,,,65,0
267115,note_on,115,0,5,,,,,,,,4,,,41,0
267120,note_on,5,0,6,,,,,,,,5,,,69,85
267120,note_on,5,0,3,,,,,,,,2,,,69,106
267120,note_on,0,0,6,,,,,,,,5,,,65,64
267120,note_on,0,0,6,,,,,,,,5,,,60,64
267120,note_on,0,0,6,,,,,,,,5,,,41,106
267120,note_on,5,0,5,,,,,,,,4,,,41,106
267120,note_on,5,0,4,,,,,,,,3,,,65,106
267120,note_on,5,0,2,,,,,,,,1,,,72,85
267120,note_on,5,0,1,,,,,,,,0,,,72,85
267235,note_on,115,0,4,,,,,,,,3,,,65,0
267235,note_on,115,0,3,,,,,,,,2,,,69,0
267235,note_on,115,0,2,,,,,,,,1,,,72,0
267235,note_on,115,0,1,,,,,,,,0,,,72,0
267240,note_on,5,0,4,,,,,,,,3,,,69,106
267240,note_on,5,0,2,,,,,,,,1,,,77,85
267240,note_on,5,0,3,,,,,,,,2,,,72,106
267240,note_on,5,0,1,,,,,,,,0,,,77,85
267345,note_on,225,0,6,,,,,,,,5,,,41,0
267345,note_on,225,0,5,,,,,,,,4,,,41,0
267355,note_on,115,0,3,,,,,,,,2,,,72,0
267355,note_on,115,0,2,,,,,,,,1,,,77,0
267355,note_on,115,0,4,,,,,,,,3,,,69,0
267355,note_on,115,0,1,,,,,,,,0,,,77,0
267360,note_on,15,0,6,,,,,,,,5,,,41,85
267360,note_on,5,0,1,,,,,,,,0,,,77,85
267360,note_on,5,0,4,,,,,,,,3,,,69,106
267360,note_on,5,0,2,,,,,,,,1,,,77,85
267360,note_on,15,0,5,,,,,,,,4,,,41,85
267360,note_on,5,0,3,,,,,,,,2,,,72,85
267475,note_on,115,0,6,,,,,,,,5,,,41,0
267475,note_on,115,0,2,,,,,,,,1,,,77,0
267475,note_on,115,0,3,,,,,,,,2,,,72,0
267475,note_on,115,0,5,,,,,,,,4,,,41,0
267475,note_on,115,0,4,,,,,,,,3,,,69,0
267475,note_on,115,0,1,,,,,,,,0,,,77,0
267480,note_on,5,0,1,,,,,,,,0,,,72,85
267480,note_on,5,0,3,,,,,,,,2,,,69,85
267480,note_on,5,0,6,,,,,,,,5,,,41,85
267480,note_on,5,0,2,,,,,,,,1,,,72,85
267480,note_on,5,0,5,,,,,,,,4,,,41,85
267480,note_on,5,0,4,,,,,,,,3,,,65,85
267565,note_on,0,0,6,,,,,,,,5,,,65,0
267565,note_on,0,0,6,,,,,,,,5,,,69,0
267565,note_on,85,0,6,,,,,,,,5,,,60,0
267595,note_on,115,0,5,,,,,,,,4,,,41,0
267595,note_on,115,0,1,,,,,,,,0,,,72,0
267595,note_on,115,0,3,,,,,,,,2,,,69,0
267595,note_on,30,0,6,,,,,,,,5,,,41,0
267595,note_on,115,0,2,,,,,,,,1,,,72,0
267595,note_on,115,0,4,,,,,,,,3,,,65,0
267600,note_on,5,0,2,,,,,,,,1,,,72,85
267600,note_on,5,0,5,,,,,,,,4,,,41,85
267600,note_on,5,0,6,,,,,,,,5,,,60,85
267600,note_on,0,0,6,,,,,,,,5,,,41,85
267600,note_on,5,0,3,,,,,,,,2,,,69,85
267600,note_on,5,0,1,,,,,,,,0,,,72,85
267600,note_on,5,0,4,,,,,,,,3,,,65,85
267715,note_on,115,0,3,,,,,,,,2,,,69,0
267715,note_on,115,0,5,,,,,,,,4,,,41,0
267715,note_on,115,0,4,,,,,,,,3,,,65,0
267715,note_on,115,0,1,,,,,,,,0,,,72,0
267715,note_on,115,0,2,,,,,,,,1,,,72,0
267715,note_on,115,0,6,,,,,,,,5,,,41,0
267720,note_on,5,0,3,,,,,,,,2,,,65,85
267720,note_on,5,0,1,,,,,,,,0,,,69,85
267720,note_on,5,0,4,,,,,,,,3,,,60,85
267720,note_on,5,0,6,,,,,,,,5,,,41,85
267720,note_on,5,0,5,,,,,,,,4,,,41,85
267720,note_on,5,0,2,,,,,,,,1,,,69,85
267825,note_on,105,0,6,,,,,,,,5,,,60,0
267835,note_on,115,0,4,,,,,,,,3,,,60,0
267835,note_on,10,0,6,,,,,,,,5,,,41,0
267835,note_on,115,0,2,,,,,,,,1,,,69,0
267835,note_on,115,0,1,,,,,,,,0,,,69,0
267835,note_on,115,0,3,,,,,,,,2,,,65,0
267835,note_on,115,0,5,,,,,,,,4,,,41,0
267840,note_on,5,0,1,,,,,,,,0,,,69,85
267840,note_on,5,0,5,,,,,,,,4,,,41,85
267840,note_on,5,0,2,,,,,,,,1,,,69,85
267840,note_on,0,0,6,,,,,,,,5,,,65,64
267840,note_on,5,0,4,,,,,,,,3,,,60,85
267840,note_on,5,0,3,,,,,,,,2,,,65,85
267840,note_on,0,0,6,,,,,,,,5,,,41,85
267840,note_on,5,0,6,,,,,,,,5,,,69,85
267840,note_on,0,0,6,,,,,,,,5,,,60,64
267955,note_on,115,0,3,,,,,,,,2,,,65,0
267955,note_on,115,0,1,,,,,,,,0,,,69,0
267955,note_on,115,0,4,,,,,,,,3,,,60,0
267955,note_on,115,0,2,,,,,,,,1,,,69,0
267960,note_on,5,0,4,,,,,,,,3,,,65,85
267960,note_on,5,0,2,,,,,,,,1,,,72,85
267960,note_on,5,0,3,,,,,,,,2,,,69,85
267960,note_on,5,0,1,,,,,,,,0,,,72,85
268065,note_on,225,0,5,,,,,,,,4,,,41,0
268065,note_on,225,0,6,,,,,,,,5,,,41,0
268075,note_on,115,0,2,,,,,,,,1,,,72,0
268075,note_on,115,0,4,,,,,,,,3,,,65,0
268075,note_on,115,0,1,,,,,,,,0,,,72,0
268075,note_on,115,0,3,,,,,,,,2,,,69,0
268080,note_on,5,0,2,,,,,,,,1,,,72,85
268080,note_on,15,0,5,,,,,,,,4,,,41,85
268080,note_on,5,0,1,,,,,,,,0,,,72,85
268080,note_on,5,0,3,,,,,,,,2,,,69,85
268080,note_on,5,0,4,,,,,,,,3,,,65,85
268080,note_on,15,0,6,,,,,,,,5,,,41,85
268195,note_on,115,0,1,,,,,,,,0,,,72,0
268195,note_on,115,0,2,,,,,,,,1,,,72,0
268195,note_on,115,0,5,,,,,,,,4,,,41,0
268195,note_on,115,0,3,,,,,,,,2,,,69,0
268195,note_on,115,0,6,,,,,,,,5,,,41,0
268195,note_on,115,0,4,,,,,,,,3,,,65,0
268200,note_on,5,0,1,,,,,,,,0,,,69,85
268200,note_on,5,0,6,,,,,,,,5,,,41,85
268200,note_on,5,0,2,,,,,,,,1,,,69,85
268200,note_on,5,0,5,,,,,,,,4,,,41,85
268200,note_on,5,0,4,,,,,,,,3,,,60,85
268200,note_on,5,0,3,,,,,,,,2,,,65,85
268315,note_on,115,0,3,,,,,,,,2,,,65,0
268315,note_on,115,0,2,,,,,,,,1,,,69,0
268315,note_on,115,0,6,,,,,,,,5,,,41,0
268315,note_on,115,0,4,,,,,,,,3,,,60,0
268315,note_on,115,0,5,,,,,,,,4,,,41,0
268315,note_on,115,0,1,,,,,,,,0,,,69,0
268320,note_on,5,0,2,,,,,,,,1,,,69,85
268320,note_on,5,0,4,,,,,,,,3,,,60,85
268320,note_on,5,0,5,,,,,,,,4,,,41,85
268320,note_on,5,0,1,,,,,,,,0,,,69,85
268320,note_on,5,0,6,,,,,,,,5,,,41,85
268320,note_on,5,0,3,,,,,,,,2,,,65,85
268435,note_on,115,0,3,,,,,,,,2,,,65,0
268435,note_on,115,0,2,,,,,,,,1,,,69,0
268435,note_on,115,0,4,,,,,,,,3,,,60,0
268435,note_on,115,0,5,,,,,,,,4,,,41,0
268435,note_on,115,0,6,,,,,,,,5,,,41,0
268435,note_on,115,0,1,,,,,,,,0,,,69,0
268440,note_on,5,0,5,,,,,,,,4,,,41,85
268440,note_on,5,0,3,,,,,,,,2,,,60,85
268440,note_on,5,0,6,,,,,,,,5,,,41,85
268440,note_on,5,0,4,,,,,,,,3,,,57,85
268440,note_on,5,0,2,,,,,,,,1,,,65,85
268440,note_on,5,0,1,,,,,,,,0,,,65,85
268505,note_on,65,0,6,,,,,,,,5,,,60,0
268505,note_on,0,0,6,,,,,,,,5,,,69,0
268505,note_on,0,0,6,,,,,,,,5,,,65,0
268555,note_on,115,0,3,,,,,,,,2,,,60,0
268555,note_on,115,0,5,,,,,,,,4,,,41,0
268555,note_on,115,0,4,,,,,,,,3,,,57,0
268555,note_on,115,0,1,,,,,,,,0,,,65,0
268555,note_on,50,0,6,,,,,,,,5,,,41,0
268555,note_on,115,0,2,,,,,,,,1,,,65,0
268560,note_on,0,0,6,,,,,,,,5,,,60,64
268560,note_on,5,0,4,,,,,,,,3,,,57,85
268560,note_on,5,0,5,,,,,,,,4,,,41,85
268560,note_on,5,0,1,,,,,,,,0,,,65,106
268560,note_on,0,0,6,,,,,,,,5,,,60,64
268560,note_on,0,0,6,,,,,,,,5,,,41,85
268560,note_on,5,0,3,,,,,,,,2,,,60,85
268560,note_on,5,0,2,,,,,,,,1,,,65,85
268560,note_on,5,0,6,,,,,,,,5,,,65,85
268675,note_on,115,0,1,,,,,,,,0,,,65,0
268680,note_on,5,0,1,,,,,,,,0,,,67,106
268740,note_on,60,0,1,,,,,,,,0,,,67,0
268740,note_on,0,0,1,,,,,,,,0,,,69,106
268800,note_on,60,0,1,,,,,,,,0,,,69,0
268800,note_on,0,0,1,,,,,,,,0,,,70,106
268860,note_on,0,0,1,,,,,,,,0,,,72,106
268860,note_on,60,0,1,,,,,,,,0,,,70,0
268920,note_on,60,0,1,,,,,,,,0,,,72,0
268920,note_on,0,0,1,,,,,,,,0,,,74,106
268980,note_on,60,0,1,,,,,,,,0,,,74,0
268980,note_on,0,0,1,,,,,,,,0,,,76,106
269005,note_on,445,0,4,,,,,,,,3,,,57,0
269005,note_on,445,0,5,,,,,,,,4,,,41,0
269005,note_on,445,0,2,,,,,,,,1,,,65,0
269005,note_on,0,0,6,,,,,,,,5,,,60,0
269005,note_on,0,0,6,,,,,,,,5,,,60,0
269005,note_on,0,0,6,,,,,,,,5,,,65,0
269005,note_on,445,0,6,,,,,,,,5,,,41,0
269005,note_on,445,0,3,,,,,,,,2,,,60,0
269040,note_on,60,0,1,,,,,,,,0,,,76,0
269040,note_on,0,0,1,,,,,,,,0,,,77,106
269100,note_on,60,0,1,,,,,,,,0,,,77,0
269100,note_on,0,0,1,,,,,,,,0,,,79,106
269160,note_on,60,0,1,,,,,,,,0,,,79,0
269160,note_on,0,0,1,,,,,,,,0,,,81,106
269275,note_on,115,0,1,,,,,,,,0,,,81,0
269280,note_on,275,0,5,,,,,,,,4,,,53,64
269280,note_on,5,0,1,,,,,,,,0,,,65,85
269280,note_on,275,0,4,,,,,,,,3,,,65,64
269280,note_on,275,0,2,,,,,,,,1,,,65,64
269280,note_on,275,0,3,,,,,,,,2,,,65,64
269280,note_on,275,0,6,,,,,,,,5,,,69,85
269280,note_on,0,0,6,,,,,,,,5,,,65,64
269280,note_on,0,0,6,,,,,,,,5,,,60,64
269280,note_on,0,0,6,,,,,,,,5,,,53,64
269395,note_on,115,0,1,,,,,,,,0,,,65,0
269395,note_on,115,0,4,,,,,,,,3,,,65,0
269395,note_on,115,0,5,,,,,,,,4,,,53,0
269395,note_on,115,0,3,,,,,,,,2,,,65,0
269395,note_on,115,0,6,,,,,,,,5,,,53,0
269395,note_on,115,0,2,,,,,,,,1,,,65,0
269400,note_on,5,0,6,,,,,,,,5,,,53,64
269400,note_on,5,0,1,,,,,,,,0,,,65,85
269400,note_on,5,0,5,,,,,,,,4,,,53,64
269400,note_on,5,0,2,,,,,,,,1,,,65,64
269400,note_on,5,0,4,,,,,,,,3,,,65,64
269400,note_on,5,0,3,,,,,,,,2,,,65,64
269515,note_on,115,0,2,,,,,,,,1,,,65,0
269515,note_on,115,0,6,,,,,,,,5,,,53,0
269515,note_on,115,0,4,,,,,,,,3,,,65,0
269515,note_on,115,0,3,,,,,,,,2,,,65,0
269515,note_on,115,0,1,,,,,,,,0,,,65,0
269515,note_on,115,0,5,,,,,,,,4,,,53,0
269520,note_on,5,0,6,,,,,,,,5,,,53,64
269520,note_on,5,0,3,,,,,,,,2,,,65,64
269520,note_on,5,0,1,,,,,,,,0,,,65,85
269520,note_on,5,0,2,,,,,,,,1,,,65,64
269520,note_on,5,0,4,,,,,,,,3,,,65,64
269520,note_on,5,0,5,,,,,,,,4,,,53,64
269635,note_on,115,0,2,,,,,,,,1,,,65,0
269635,note_on,115,0,1,,,,,,,,0,,,65,0
269635,note_on,115,0,4,,,,,,,,3,,,65,0
269635,note_on,115,0,5,,,,,,,,4,,,53,0
269635,note_on,115,0,6,,,,,,,,5,,,53,0
269635,note_on,115,0,3,,,,,,,,2,,,65,0
269640,note_on,5,0,5,,,,,,,,4,,,53,64
269640,note_on,5,0,4,,,,,,,,3,,,65,64
269640,note_on,5,0,1,,,,,,,,0,,,65,85
269640,note_on,5,0,3,,,,,,,,2,,,65,64
269640,note_on,5,0,6,,,,,,,,5,,,53,64
269640,note_on,5,0,2,,,,,,,,1,,,65,64
269725,note_on,0,0,6,,,,,,,,5,,,65,0
269725,note_on,85,0,6,,,,,,,,5,,,69,0
269725,note_on,0,0,6,,,,,,,,5,,,60,0
269755,note_on,115,0,4,,,,,,,,3,,,65,0
269755,note_on,115,0,1,,,,,,,,0,,,65,0
269755,note_on,115,0,5,,,,,,,,4,,,53,0
269755,note_on,115,0,3,,,,,,,,2,,,65,0
269755,note_on,115,0,2,,,,,,,,1,,,65,0
269755,note_on,30,0,6,,,,,,,,5,,,53,0
269760,note_on,5,0,1,,,,,,,,0,,,65,85
269760,note_on,5,0,5,,,,,,,,4,,,53,64
269760,note_on,5,0,6,,,,,,,,5,,,53,64
269760,note_on,5,0,4,,,,,,,,3,,,65,64
269760,note_on,5,0,3,,,,,,,,2,,,65,64
269760,note_on,5,0,2,,,,,,,,1,,,65,64
269875,note_on,115,0,1,,,,,,,,0,,,65,0
269875,note_on,115,0,5,,,,,,,,4,,,53,0
269875,note_on,115,0,4,,,,,,,,3,,,65,0
269875,note_on,115,0,2,,,,,,,,1,,,65,0
269875,note_on,115,0,3,,,,,,,,2,,,65,0
269875,note_on,115,0,6,,,,,,,,5,,,53,0
269880,note_on,5,0,3,,,,,,,,2,,,65,64
269880,note_on,5,0,4,,,,,,,,3,,,65,64
269880,note_on,5,0,1,,,,,,,,0,,,65,85
269880,note_on,5,0,6,,,,,,,,5,,,53,64
269880,note_on,5,0,2,,,,,,,,1,,,65,64
269880,note_on,5,0,5,,,,,,,,4,,,53,64
269995,note_on,115,0,1,,,,,,,,0,,,65,0
269995,note_on,115,0,2,,,,,,,,1,,,65,0
269995,note_on,115,0,6,,,,,,,,5,,,53,0
269995,note_on,115,0,4,,,,,,,,3,,,65,0
269995,note_on,115,0,3,,,,,,,,2,,,65,0
269995,note_on,115,0,5,,,,,,,,4,,,53,0
270000,note_on,5,0,1,,,,,,,,0,,,67,106
270115,note_on,115,0,1,,,,,,,,0,,,67,0
270120,note_on,5,0,1,,,,,,,,0,,,69,106
270180,note_on,0,0,1,,,,,,,,0,,,70,106
270180,note_on,60,0,1,,,,,,,,0,,,69,0
270240,note_on,0,0,1,,,,,,,,0,,,72,106
270240,note_on,60,0,1,,,,,,,,0,,,70,0
270300,note_on,0,0,1,,,,,,,,0,,,74,106
270300,note_on,60,0,1,,,,,,,,0,,,72,0
270360,note_on,60,0,1,,,,,,,,0,,,74,0
270360,note_on,0,0,1,,,,,,,,0,,,76,106
270420,note_on,60,0,1,,,,,,,,0,,,76,0
270420,note_on,0,0,1,,,,,,,,0,,,77,106
270480,note_on,0,0,1,,,,,,,,0,,,79,106
270480,note_on,60,0,1,,,,,,,,0,,,77,0
270540,note_on,0,0,1,,,,,,,,0,,,81,106
270540,note_on,60,0,1,,,,,,,,0,,,79,0
270600,note_on,0,0,1,,,,,,,,0,,,82,106
270600,note_on,60,0,1,,,,,,,,0,,,81,0
270715,note_on,115,0,1,,,,,,,,0,,,82,0
270720,note_on,5,0,1,,,,,,,,0,,,67,85
270720,note_on,725,0,2,,,,,,,,1,,,67,64
270720,note_on,725,0,6,,,,,,,,5,,,67,85
270720,note_on,0,0,6,,,,,,,,5,,,55,64
270720,note_on,725,0,4,,,,,,,,3,,,67,64
270720,note_on,725,0,3,,,,,,,,2,,,67,64
270720,note_on,725,0,5,,,,,,,,4,,,55,64
270835,note_on,115,0,1,,,,,,,,0,,,67,0
270835,note_on,115,0,2,,,,,,,,1,,,67,0
270835,note_on,115,0,5,,,,,,,,4,,,55,0
270835,note_on,115,0,3,,,,,,,,2,,,67,0
270835,note_on,115,0,4,,,,,,,,3,,,67,0
270835,note_on,115,0,6,,,,,,,,5,,,55,0
270835,note_on,0,0,6,,,,,,,,5,,,67,0
270840,note_on,5,0,1,,,,,,,,0,,,67,85
270840,note_on,5,0,3,,,,,,,,2,,,67,64
270840,note_on,5,0,4,,,,,,,,3,,,67,64
270840,note_on,5,0,5,,,,,,,,4,,,55,64
270840,note_on,5,0,6,,,,,,,,5,,,67,85
270840,note_on,0,0,6,,,,,,,,5,,,55,64
270840,note_on,5,0,2,,,,,,,,1,,,67,64
270955,note_on,115,0,4,,,,,,,,3,,,67,0
270955,note_on,115,0,1,,,,,,,,0,,,67,0
270955,note_on,115,0,6,,,,,,,,5,,,55,0
270955,note_on,0,0,6,,,,,,,,5,,,67,0
270955,note_on,115,0,2,,,,,,,,1,,,67,0
270955,note_on,115,0,3,,,,,,,,2,,,67,0
270955,note_on,115,0,5,,,,,,,,4,,,55,0
270960,note_on,5,0,6,,,,,,,,5,,,67,85
270960,note_on,0,0,6,,,,,,,,5,,,55,64
270960,note_on,5,0,2,,,,,,,,1,,,67,64
270960,note_on,5,0,3,,,,,,,,2,,,67,64
270960,note_on,5,0,5,,,,,,,,4,,,55,64
270960,note_on,5,0,4,,,,,,,,3,,,67,64
270960,note_on,5,0,1,,,,,,,,0,,,67,85
271075,note_on,115,0,5,,,,,,,,4,,,55,0
271075,note_on,115,0,4,,,,,,,,3,,,67,0
271075,note_on,115,0,1,,,,,,,,0,,,67,0
271075,note_on,115,0,6,,,,,,,,5,,,55,0
271075,note_on,115,0,2,,,,,,,,1,,,67,0
271075,note_on,115,0,3,,,,,,,,2,,,67,0
271075,note_on,0,0,6,,,,,,,,5,,,67,0
271080,note_on,5,0,4,,,,,,,,3,,,67,64
271080,note_on,5,0,1,,,,,,,,0,,,67,85
271080,note_on,5,0,2,,,,,,,,1,,,67,64
271080,note_on,5,0,3,,,,,,,,2,,,67,64
271080,note_on,5,0,6,,,,,,,,5,,,67,85
271080,note_on,0,0,6,,,,,,,,5,,,55,64
271080,note_on,5,0,5,,,,,,,,4,,,55,64
271195,note_on,0,0,6,,,,,,,,5,,,67,0
271195,note_on,115,0,6,,,,,,,,5,,,55,0
271195,note_on,115,0,3,,,,,,,,2,,,67,0
271195,note_on,115,0,2,,,,,,,,1,,,67,0
271195,note_on,115,0,5,,,,,,,,4,,,55,0
271195,note_on,115,0,1,,,,,,,,0,,,67,0
271195,note_on,115,0,4,,,,,,,,3,,,67,0
271200,note_on,5,0,5,,,,,,,,4,,,55,64
271200,note_on,5,0,4,,,,,,,,3,,,67,64
271200,note_on,5,0,6,,,,,,,,5,,,67,85
271200,note_on,5,0,2,,,,,,,,1,,,67,64
271200,note_on,0,0,6,,,,,,,,5,,,55,64
271200,note_on,5,0,1,,,,,,,,0,,,67,85
271200,note_on,5,0,3,,,,,,,,2,,,67,64
271315,note_on,115,0,5,,,,,,,,4,,,55,0
271315,note_on,115,0,4,,,,,,,,3,,,67,0
271315,note_on,115,0,3,,,,,,,,2,,,67,0
271315,note_on,115,0,1,,,,,,,,0,,,67,0
271315,note_on,115,0,2,,,,,,,,1,,,67,0
271315,note_on,115,0,6,,,,,,,,5,,,55,0
271315,note_on,0,0,6,,,,,,,,5,,,67,0
271320,note_on,5,0,3,,,,,,,,2,,,67,64
271320,note_on,5,0,1,,,,,,,,0,,,67,85
271320,note_on,5,0,5,,,,,,,,4,,,55,64
271320,note_on,5,0,2,,,,,,,,1,,,67,64
271320,note_on,5,0,4,,,,,,,,3,,,67,64
271320,note_on,5,0,6,,,,,,,,5,,,67,85
271320,note_on,0,0,6,,,,,,,,5,,,55,64
271435,note_on,115,0,5,,,,,,,,4,,,55,0
271435,note_on,115,0,6,,,,,,,,5,,,55,0
271435,note_on,115,0,3,,,,,,,,2,,,67,0
271435,note_on,115,0,2,,,,,,,,1,,,67,0
271435,note_on,115,0,1,,,,,,,,0,,,67,0
271435,note_on,115,0,4,,,,,,,,3,,,67,0
271435,note_on,0,0,6,,,,,,,,5,,,67,0
271440,note_on,5,0,1,,,,,,,,0,,,69,106
271555,note_on,115,0,1,,,,,,,,0,,,69,0
271560,note_on,5,0,1,,,,,,,,0,,,70,106
271620,note_on,0,0,1,,,,,,,,0,,,72,106
271620,note_on,60,0,1,,,,,,,,0,,,70,0
271680,note_on,0,0,1,,,,,,,,0,,,74,106
271680,note_on,60,0,1,,,,,,,,0,,,72,0
271740,note_on,60,0,1,,,,,,,,0,,,74,0
271740,note_on,0,0,1,,,,,,,,0,,,76,106
271800,note_on,60,0,1,,,,,,,,0,,,76,0
271800,note_on,0,0,1,,,,,,,,0,,,77,106
271860,note_on,60,0,1,,,,,,,,0,,,77,0
271860,note_on,0,0,1,,,,,,,,0,,,79,106
271920,note_on,60,0,1,,,,,,,,0,,,79,0
271920,note_on,0,0,1,,,,,,,,0,,,81,106
271980,note_on,60,0,1,,,,,,,,0,,,81,0
271980,note_on,0,0,1,,,,,,,,0,,,82,106
272040,note_on,60,0,1,,,,,,,,0,,,82,0
272040,note_on,0,0,1,,,,,,,,0,,,84,106
272155,note_on,115,0,1,,,,,,,,0,,,84,0
272160,note_on,725,0,6,,,,,,,,5,,,69,85
272160,note_on,725,0,5,,,,,,,,4,,,57,64
272160,note_on,0,0,6,,,,,,,,5,,,57,64
272160,note_on,725,0,2,,,,,,,,1,,,69,64
272160,note_on,725,0,4,,,,,,,,3,,,69,64
272160,note_on,5,0,1,,,,,,,,0,,,69,85
272160,note_on,725,0,3,,,,,,,,2,,,69,64
272275,note_on,0,0,6,,,,,,,,5,,,69,0
272275,note_on,115,0,6,,,,,,,,5,,,57,0
272275,note_on,115,0,4,,,,,,,,3,,,69,0
272275,note_on,115,0,3,,,,,,,,2,,,69,0
272275,note_on,115,0,5,,,,,,,,4,,,57,0
272275,note_on,115,0,2,,,,,,,,1,,,69,0
272275,note_on,115,0,1,,,,,,,,0,,,69,0
272280,note_on,5,0,6,,,,,,,,5,,,69,85
272280,note_on,5,0,2,,,,,,,,1,,,69,64
272280,note_on,0,0,6,,,,,,,,5,,,57,64
272280,note_on,5,0,5,,,,,,,,4,,,57,64
272280,note_on,5,0,4,,,,,,,,3,,,69,64
272280,note_on,5,0,1,,,,,,,,0,,,69,85
272280,note_on,5,0,3,,,,,,,,2,,,69,64
272395,note_on,115,0,2,,,,,,,,1,,,69,0
272395,note_on,115,0,6,,,,,,,,5,,,57,0
272395,note_on,0,0,6,,,,,,,,5,,,69,0
272395,note_on,115,0,1,,,,,,,,0,,,69,0
272395,note_on,115,0,5,,,,,,,,4,,,57,0
272395,note_on,115,0,3,,,,,,,,2,,,69,0
272395,note_on,115,0,4,,,,,,,,3,,,69,0
272400,note_on,5,0,3,,,,,,,,2,,,69,64
272400,note_on,5,0,1,,,,,,,,0,,,69,85
272400,note_on,5,0,6,,,,,,,,5,,,69,85
272400,note_on,0,0,6,,,,,,,,5,,,57,64
272400,note_on,5,0,4,,,,,,,,3,,,69,64
272400,note_on,5,0,5,,,,,,,,4,,,57,64
272400,note_on,5,0,2,,,,,,,,1,,,69,64
272515,note_on,0,0,6,,,,,,,,5,,,69,0
272515,note_on,115,0,6,,,,,,,,5,,,57,0
272515,note_on,115,0,4,,,,,,,,3,,,69,0
272515,note_on,115,0,3,,,,,,,,2,,,69,0
272515,note_on,115,0,1,,,,,,,,0,,,69,0
272515,note_on,115,0,2,,,,,,,,1,,,69,0
272515,note_on,115,0,5,,,,,,,,4,,,57,0
272520,note_on,5,0,1,,,,,,,,0,,,69,85
272520,note_on,5,0,5,,,,,,,,4,,,57,64
272520,note_on,5,0,6,,,,,,,,5,,,69,85
272520,note_on,5,0,2,,,,,,,,1,,,69,64
272520,note_on,5,0,4,,,,,,,,3,,,69,64
272520,note_on,5,0,3,,,,,,,,2,,,69,64
272520,note_on,0,0,6,,,,,,,,5,,,57,64
272635,note_on,115,0,5,,,,,,,,4,,,57,0
272635,note_on,115,0,2,,,,,,,,1,,,69,0
272635,note_on,0,0,6,,,,,,,,5,,,69,0
272635,note_on,115,0,1,,,,,,,,0,,,69,0
272635,note_on,115,0,6,,,,,,,,5,,,57,0
272635,note_on,115,0,4,,,,,,,,3,,,69,0
272635,note_on,115,0,3,,,,,,,,2,,,69,0
272640,note_on,5,0,4,,,,,,,,3,,,69,64
272640,note_on,0,0,6,,,,,,,,5,,,57,64
272640,note_on,5,0,2,,,,,,,,1,,,69,64
272640,note_on,5,0,3,,,,,,,,2,,,69,64
272640,note_on,5,0,6,,,,,,,,5,,,69,85
272640,note_on,5,0,5,,,,,,,,4,,,57,64
272640,note_on,5,0,1,,,,,,,,0,,,69,85
272755,note_on,115,0,2,,,,,,,,1,,,69,0
272755,note_on,115,0,4,,,,,,,,3,,,69,0
272755,note_on,115,0,1,,,,,,,,0,,,69,0
272755,note_on,115,0,3,,,,,,,,2,,,69,0
272755,note_on,115,0,5,,,,,,,,4,,,57,0
272755,note_on,115,0,6,,,,,,,,5,,,57,0
272755,note_on,0,0,6,,,,,,,,5,,,69,0
272760,note_on,5,0,6,,,,,,,,5,,,69,85
272760,note_on,5,0,4,,,,,,,,3,,,69,64
272760,note_on,5,0,2,,,,,,,,1,,,69,64
272760,note_on,5,0,1,,,,,,,,0,,,69,85
272760,note_on,5,0,3,,,,,,,,2,,,69,64
272760,note_on,5,0,5,,,,,,,,4,,,57,64
272760,note_on,0,0,6,,,,,,,,5,,,57,64
272875,note_on,115,0,1,,,,,,,,0,,,69,0
272875,note_on,115,0,3,,,,,,,,2,,,69,0
272875,note_on,115,0,4,,,,,,,,3,,,69,0
272875,note_on,115,0,6,,,,,,,,5,,,57,0
272875,note_on,0,0,6,,,,,,,,5,,,69,0
272875,note_on,115,0,5,,,,,,,,4,,,57,0
272875,note_on,115,0,2,,,,,,,,1,,,69,0
272880,note_on,5,0,1,,,,,,,,0,,,70,106
272995,note_on,115,0,1,,,,,,,,0,,,70,0
273000,note_on,5,0,1,,,,,,,,0,,,72,106
273060,note_on,60,0,1,,,,,,,,0,,,72,0
273060,note_on,0,0,1,,,,,,,,0,,,74,106
273120,note_on,60,0,1,,,,,,,,0,,,74,0
273120,note_on,0,0,1,,,,,,,,0,,,76,106
273180,note_on,60,0,1,,,,,,,,0,,,76,0
273180,note_on,0,0,1,,,,,,,,0,,,77,106
273240,note_on,0,0,1,,,,,,,,0,,,79,106
273240,note_on,60,0,1,,,,,,,,0,,,77,0
273300,note_on,60,0,1,,,,,,,,0,,,79,0
273300,note_on,0,0,1,,,,,,,,0,,,81,106
273360,note_on,0,0,1,,,,,,,,0,,,82,106
273360,note_on,60,0,1,,,,,,,,0,,,81,0
273420,note_on,0,0,1,,,,,,,,0,,,84,106
273420,note_on,60,0,1,,,,,,,,0,,,82,0
273480,note_on,0,0,1,,,,,,,,0,,,86,106
273480,note_on,60,0,1,,,,,,,,0,,,84,0
273595,note_on,115,0,1,,,,,,,,0,,,86,0
273600,note_on,0,0,6,,,,,,,,5,,,48,34
273600,note_on,725,0,5,,,,,,,,4,,,48,34
273600,note_on,725,0,4,,,,,,,,3,,,64,34
273600,note_on,725,0,6,,,,,,,,5,,,79,85
273600,note_on,0,0,6,,,,,,,,5,,,70,64
273600,note_on,0,0,6,,,,,,,,5,,,76,64
273600,note_on,725,0,3,,,,,,,,2,,,67,34
273600,note_on,5,0,1,,,,,,,,0,,,70,34
273600,note_on,725,0,2,,,,,,,,1,,,70,34
273715,note_on,115,0,5,,,,,,,,4,,,48,0
273715,note_on,115,0,1,,,,,,,,0,,,70,0
273715,note_on,115,0,3,,,,,,,,2,,,67,0
273715,note_on,115,0,6,,,,,,,,5,,,48,0
273715,note_on,115,0,4,,,,,,,,3,,,64,0
273715,note_on,115,0,2,,,,,,,,1,,,70,0
273720,note_on,5,0,4,,,,,,,,3,,,67,34
273720,note_on,5,0,1,,,,,,,,0,,,76,34
273720,note_on,5,0,5,,,,,,,,4,,,48,34
273720,note_on,5,0,3,,,,,,,,2,,,70,34
273720,note_on,5,0,2,,,,,,,,1,,,76,34
273720,note_on,5,0,6,,,,,,,,5,,,48,34
273835,note_on,115,0,5,,,,,,,,4,,,48,0
273835,note_on,115,0,6,,,,,,,,5,,,48,0
273835,note_on,115,0,4,,,,,,,,3,,,67,0
273835,note_on,115,0,3,,,,,,,,2,,,70,0
273835,note_on,115,0,2,,,,,,,,1,,,76,0
273835,note_on,115,0,1,,,,,,,,0,,,76,0
273840,note_on,5,0,1,,,,,,,,0,,,76,34
273840,note_on,5,0,6,,,,,,,,5,,,48,34
273840,note_on,5,0,3,,,,,,,,2,,,70,34
273840,note_on,5,0,5,,,,,,,,4,,,48,34
273840,note_on,5,0,2,,,,,,,,1,,,76,34
273840,note_on,5,0,4,,,,,,,,3,,,67,34
273955,note_on,115,0,3,,,,,,,,2,,,70,0
273955,note_on,115,0,2,,,,,,,,1,,,76,0
273955,note_on,115,0,5,,,,,,,,4,,,48,0
273955,note_on,115,0,6,,,,,,,,5,,,48,0
273955,note_on,115,0,1,,,,,,,,0,,,76,0
273955,note_on,115,0,4,,,,,,,,3,,,67,0
273960,note_on,5,0,5,,,,,,,,4,,,48,34
273960,note_on,5,0,1,,,,,,,,0,,,79,34
273960,note_on,5,0,6,,,,,,,,5,,,48,34
273960,note_on,5,0,2,,,,,,,,1,,,79,34
273960,note_on,5,0,3,,,,,,,,2,,,76,34
273960,note_on,5,0,4,,,,,,,,3,,,70,34
274075,note_on,115,0,6,,,,,,,,5,,,48,0
274075,note_on,115,0,3,,,,,,,,2,,,76,0
274075,note_on,115,0,4,,,,,,,,3,,,70,0
274075,note_on,115,0,2,,,,,,,,1,,,79,0
274075,note_on,115,0,5,,,,,,,,4,,,48,0
274075,note_on,115,0,1,,,,,,,,0,,,79,0
274080,note_on,5,0,6,,,,,,,,5,,,48,34
274080,note_on,5,0,1,,,,,,,,0,,,79,34
274080,note_on,5,0,5,,,,,,,,4,,,48,34
274080,note_on,5,0,3,,,,,,,,2,,,76,34
274080,note_on,5,0,2,,,,,,,,1,,,79,34
274080,note_on,5,0,4,,,,,,,,3,,,70,34
274195,note_on,115,0,5,,,,,,,,4,,,48,0
274195,note_on,115,0,6,,,,,,,,5,,,48,0
274195,note_on,115,0,2,,,,,,,,1,,,79,0
274195,note_on,115,0,4,,,,,,,,3,,,70,0
274195,note_on,115,0,1,,,,,,,,0,,,79,0
274195,note_on,115,0,3,,,,,,,,2,,,76,0
274200,note_on,5,0,1,,,,,,,,0,,,82,34
274200,note_on,5,0,5,,,,,,,,4,,,48,34
274200,note_on,5,0,2,,,,,,,,1,,,82,49
274200,note_on,5,0,3,,,,,,,,2,,,79,34
274200,note_on,5,0,6,,,,,,,,5,,,48,34
274200,note_on,5,0,4,,,,,,,,3,,,76,34
274265,note_on,0,0,6,,,,,,,,5,,,76,0
274265,note_on,0,0,6,,,,,,,,5,,,70,0
274265,note_on,65,0,6,,,,,,,,5,,,79,0
274315,note_on,115,0,2,,,,,,,,1,,,82,0
274315,note_on,115,0,3,,,,,,,,2,,,79,0
274315,note_on,50,0,6,,,,,,,,5,,,48,0
274315,note_on,115,0,4,,,,,,,,3,,,76,0
274315,note_on,115,0,5,,,,,,,,4,,,48,0
274315,note_on,115,0,1,,,,,,,,0,,,82,0
274320,note_on,0,0,6,,,,,,,,5,,,48,34
274320,note_on,5,0,2,,,,,,,,1,,,82,49
274320,note_on,5,0,4,,,,,,,,3,,,76,34
274320,note_on,0,0,6,,,,,,,,5,,,70,64
274320,note_on,0,0,6,,,,,,,,5,,,76,64
274320,note_on,5,0,6,,,,,,,,5,,,79,85
274320,note_on,5,0,1,,,,,,,,0,,,82,34
274320,note_on,5,0,5,,,,,,,,4,,,48,34
274320,note_on,5,0,3,,,,,,,,2,,,79,34
274435,note_on,115,0,2,,,,,,,,1,,,82,0
274435,note_on,115,0,5,,,,,,,,4,,,48,0
274435,note_on,115,0,3,,,,,,,,2,,,79,0
274435,note_on,115,0,6,,,,,,,,5,,,48,0
274435,note_on,115,0,1,,,,,,,,0,,,82,0
274435,note_on,115,0,4,,,,,,,,3,,,76,0
274440,note_on,5,0,3,,,,,,,,2,,,76,34
274440,note_on,5,0,4,,,,,,,,3,,,70,49
274440,note_on,5,0,5,,,,,,,,4,,,48,34
274440,note_on,5,0,1,,,,,,,,0,,,79,34
274440,note_on,5,0,6,,,,,,,,5,,,48,34
274440,note_on,5,0,2,,,,,,,,1,,,79,49
274555,note_on,115,0,4,,,,,,,,3,,,70,0
274555,note_on,115,0,2,,,,,,,,1,,,79,0
274555,note_on,115,0,6,,,,,,,,5,,,48,0
274555,note_on,115,0,3,,,,,,,,2,,,76,0
274555,note_on,115,0,5,,,,,,,,4,,,48,0
274555,note_on,115,0,1,,,,,,,,0,,,79,0
274560,note_on,5,0,1,,,,,,,,0,,,79,34
274560,note_on,5,0,2,,,,,,,,1,,,79,49
274560,note_on,5,0,6,,,,,,,,5,,,48,34
274560,note_on,5,0,4,,,,,,,,3,,,70,49
274560,note_on,5,0,5,,,,,,,,4,,,48,34
274560,note_on,5,0,3,,,,,,,,2,,,76,49
274675,note_on,115,0,4,,,,,,,,3,,,70,0
274675,note_on,115,0,6,,,,,,,,5,,,48,0
274675,note_on,115,0,5,,,,,,,,4,,,48,0
274675,note_on,115,0,2,,,,,,,,1,,,79,0
274675,note_on,115,0,1,,,,,,,,0,,,79,0
274675,note_on,115,0,3,,,,,,,,2,,,76,0
274680,note_on,5,0,3,,,,,,,,2,,,70,49
274680,note_on,5,0,6,,,,,,,,5,,,48,49
274680,note_on,5,0,5,,,,,,,,4,,,48,49
274680,note_on,5,0,1,,,,,,,,0,,,76,34
274680,note_on,5,0,4,,,,,,,,3,,,67,49
274680,note_on,5,0,2,,,,,,,,1,,,76,49
274795,note_on,115,0,1,,,,,,,,0,,,76,0
274795,note_on,115,0,2,,,,,,,,1,,,76,0
274795,note_on,115,0,3,,,,,,,,2,,,70,0
274795,note_on,115,0,6,,,,,,,,5,,,48,0
274795,note_on,115,0,5,,,,,,,,4,,,48,0
274795,note_on,115,0,4,,,,,,,,3,,,67,0
274800,note_on,5,0,2,,,,,,,,1,,,76,49
274800,note_on,5,0,6,,,,,,,,5,,,48,49
274800,note_on,5,0,5,,,,,,,,4,,,48,49
274800,note_on,5,0,1,,,,,,,,0,,,76,49
274800,note_on,5,0,4,,,,,,,,3,,,67,49
274800,note_on,5,0,3,,,,,,,,2,,,70,49
274915,note_on,115,0,6,,,,,,,,5,,,48,0
274915,note_on,115,0,2,,,,,,,,1,,,76,0
274915,note_on,115,0,5,,,,,,,,4,,,48,0
274915,note_on,115,0,1,,,,,,,,0,,,76,0
274915,note_on,115,0,4,,,,,,,,3,,,67,0
274915,note_on,115,0,3,,,,,,,,2,,,70,0
274920,note_on,5,0,2,,,,,,,,1,,,70,64
274920,note_on,5,0,5,,,,,,,,4,,,48,49
274920,note_on,5,0,6,,,,,,,,5,,,48,49
274920,note_on,5,0,1,,,,,,,,0,,,70,49
274920,note_on,5,0,3,,,,,,,,2,,,67,49
274920,note_on,5,0,4,,,,,,,,3,,,64,49
274985,note_on,65,0,6,,,,,,,,5,,,79,0
274985,note_on,0,0,6,,,,,,,,5,,,76,0
274985,note_on,0,0,6,,,,,,,,5,,,70,0
275035,note_on,115,0,5,,,,,,,,4,,,48,0
275035,note_on,115,0,1,,,,,,,,0,,,70,0
275035,note_on,115,0,2,,,,,,,,1,,,70,0
275035,note_on,115,0,4,,,,,,,,3,,,64,0
275035,note_on,50,0,6,,,,,,,,5,,,48,0
275035,note_on,115,0,3,,,,,,,,2,,,67,0
275040,note_on,5,0,1,,,,,,,,0,,,70,49
275040,note_on,5,0,4,,,,,,,,3,,,64,49
275040,note_on,0,0,6,,,,,,,,5,,,67,64
275040,note_on,0,0,6,,,,,,,,5,,,70,64
275040,note_on,5,0,3,,,,,,,,2,,,67,49
275040,note_on,0,0,6,,,,,,,,5,,,48,49
275040,note_on,5,0,2,,,,,,,,1,,,70,64
275040,note_on,5,0,6,,,,,,,,5,,,76,85
275040,note_on,5,0,5,,,,,,,,4,,,48,49
275155,note_on,115,0,6,,,,,,,,5,,,48,0
275155,note_on,115,0,5,,,,,,,,4,,,48,0
275155,note_on,115,0,4,,,,,,,,3,,,64,0
275155,note_on,115,0,1,,,,,,,,0,,,70,0
275155,note_on,115,0,2,,,,,,,,1,,,70,0
275155,note_on,115,0,3,,,,,,,,2,,,67,0
275160,note_on,5,0,4,,,,,,,,3,,,67,49
275160,note_on,5,0,6,,,,,,,,5,,,48,49
275160,note_on,5,0,3,,,,,,,,2,,,70,64
275160,note_on,5,0,5,,,,,,,,4,,,48,49
275160,note_on,5,0,1,,,,,,,,0,,,76,49
275160,note_on,5,0,2,,,,,,,,1,,,76,64
275275,note_on,115,0,3,,,,,,,,2,,,70,0
275275,note_on,115,0,4,,,,,,,,3,,,67,0
275275,note_on,115,0,5,,,,,,,,4,,,48,0
275275,note_on,115,0,1,,,,,,,,0,,,76,0
275275,note_on,115,0,6,,,,,,,,5,,,48,0
275275,note_on,115,0,2,,,,,,,,1,,,76,0
275280,note_on,5,0,4,,,,,,,,3,,,67,64
275280,note_on,5,0,6,,,,,,,,5,,,48,49
275280,note_on,5,0,2,,,,,,,,1,,,76,64
275280,note_on,5,0,1,,,,,,,,0,,,76,64
275280,note_on,5,0,3,,,,,,,,2,,,70,64
275280,note_on,5,0,5,,,,,,,,4,,,48,49
275395,note_on,115,0,6,,,,,,,,5,,,48,0
275395,note_on,115,0,4,,,,,,,,3,,,67,0
275395,note_on,115,0,3,,,,,,,,2,,,70,0
275395,note_on,115,0,5,,,,,,,,4,,,48,0
275395,note_on,115,0,2,,,,,,,,1,,,76,0
275395,note_on,115,0,1,,,,,,,,0,,,76,0
275400,note_on,5,0,5,,,,,,,,4,,,48,64
275400,note_on,5,0,4,,,,,,,,3,,,70,64
275400,note_on,5,0,6,,,,,,,,5,,,48,64
275400,note_on,5,0,3,,,,,,,,2,,,76,64
275400,note_on,5,0,1,,,,,,,,0,,,79,64
275400,note_on,5,0,2,,,,,,,,1,,,79,64
275515,note_on,115,0,2,,,,,,,,1,,,79,0
275515,note_on,115,0,3,,,,,,,,2,,,76,0
275515,note_on,115,0,6,,,,,,,,5,,,48,0
275515,note_on,115,0,1,,,,,,,,0,,,79,0
275515,note_on,115,0,4,,,,,,,,3,,,70,0
275515,note_on,115,0,5,,,,,,,,4,,,48,0
275520,note_on,5,0,1,,,,,,,,0,,,79,64
275520,note_on,5,0,6,,,,,,,,5,,,48,64
275520,note_on,5,0,4,,,,,,,,3,,,70,64
275520,note_on,5,0,3,,,,,,,,2,,,76,64
275520,note_on,5,0,2,,,,,,,,1,,,79,64
275520,note_on,5,0,5,,,,,,,,4,,,48,64
275635,note_on,115,0,1,,,,,,,,0,,,79,0
275635,note_on,115,0,2,,,,,,,,1,,,79,0
275635,note_on,115,0,4,,,,,,,,3,,,70,0
275635,note_on,115,0,3,,,,,,,,2,,,76,0
275635,note_on,115,0,5,,,,,,,,4,,,48,0
275635,note_on,115,0,6,,,,,,,,5,,,48,0
275640,note_on,5,0,3,,,,,,,,2,,,79,64
275640,note_on,5,0,1,,,,,,,,0,,,82,64
275640,note_on,5,0,2,,,,,,,,1,,,82,64
275640,note_on,5,0,5,,,,,,,,4,,,48,64
275640,note_on,5,0,6,,,,,,,,5,,,48,64
275640,note_on,5,0,4,,,,,,,,3,,,76,64
275705,note_on,0,0,6,,,,,,,,5,,,70,0
275705,note_on,0,0,6,,,,,,,,5,,,67,0
275705,note_on,65,0,6,,,,,,,,5,,,76,0
275755,note_on,115,0,1,,,,,,,,0,,,82,0
275755,note_on,115,0,4,,,,,,,,3,,,76,0
275755,note_on,115,0,2,,,,,,,,1,,,82,0
275755,note_on,50,0,6,,,,,,,,5,,,48,0
275755,note_on,115,0,5,,,,,,,,4,,,48,0
275755,note_on,115,0,3,,,,,,,,2,,,79,0
275760,note_on,5,0,4,,,,,,,,3,,,76,64
275760,note_on,5,0,2,,,,,,,,1,,,82,85
275760,note_on,5,0,1,,,,,,,,0,,,82,64
275760,note_on,5,0,5,,,,,,,,4,,,48,64
275760,note_on,0,0,6,,,,,,,,5,,,48,64
275760,note_on,0,0,6,,,,,,,,5,,,67,64
275760,note_on,0,0,6,,,,,,,,5,,,70,64
275760,note_on,5,0,6,,,,,,,,5,,,76,85
275760,note_on,5,0,3,,,,,,,,2,,,79,64
275875,note_on,115,0,5,,,,,,,,4,,,48,0
275875,note_on,115,0,4,,,,,,,,3,,,76,0
275875,note_on,115,0,6,,,,,,,,5,,,48,0
275875,note_on,115,0,1,,,,,,,,0,,,82,0
275875,note_on,115,0,3,,,,,,,,2,,,79,0
275875,note_on,115,0,2,,,,,,,,1,,,82,0
275880,note_on,5,0,4,,,,,,,,3,,,70,64
275880,note_on,5,0,6,,,,,,,,5,,,48,64
275880,note_on,5,0,5,,,,,,,,4,,,48,64
275880,note_on,5,0,1,,,,,,,,0,,,79,64
275880,note_on,5,0,3,,,,,,,,2,,,76,64
275880,note_on,5,0,2,,,,,,,,1,,,79,85
275995,note_on,115,0,3,,,,,,,,2,,,76,0
275995,note_on,115,0,5,,,,,,,,4,,,48,0
275995,note_on,115,0,4,,,,,,,,3,,,70,0
275995,note_on,115,0,1,,,,,,,,0,,,79,0
275995,note_on,115,0,2,,,,,,,,1,,,79,0
275995,note_on,115,0,6,,,,,,,,5,,,48,0
276000,note_on,5,0,5,,,,,,,,4,,,48,64
276000,note_on,5,0,6,,,,,,,,5,,,48,64
276000,note_on,5,0,3,,,,,,,,2,,,76,85
276000,note_on,5,0,1,,,,,,,,0,,,79,85
276000,note_on,5,0,2,,,,,,,,1,,,79,85
276000,note_on,5,0,4,,,,,,,,3,,,70,64
276115,note_on,115,0,6,,,,,,,,5,,,48,0
276115,note_on,115,0,1,,,,,,,,0,,,79,0
276115,note_on,115,0,4,,,,,,,,3,,,70,0
276115,note_on,115,0,3,,,,,,,,2,,,76,0
276115,note_on,115,0,2,,,,,,,,1,,,79,0
276115,note_on,115,0,5,,,,,,,,4,,,48,0
276120,note_on,5,0,6,,,,,,,,5,,,48,64
276120,note_on,5,0,3,,,,,,,,2,,,70,85
276120,note_on,5,0,5,,,,,,,,4,,,48,64
276120,note_on,5,0,4,,,,,,,,3,,,67,85
276120,note_on,5,0,1,,,,,,,,0,,,76,85
276120,note_on,5,0,2,,,,,,,,1,,,76,85
276235,note_on,115,0,5,,,,,,,,4,,,48,0
276235,note_on,115,0,3,,,,,,,,2,,,70,0
276235,note_on,115,0,2,,,,,,,,1,,,76,0
276235,note_on,115,0,4,,,,,,,,3,,,67,0
276235,note_on,115,0,1,,,,,,,,0,,,76,0
276235,note_on,115,0,6,,,,,,,,5,,,48,0
276240,note_on,5,0,1,,,,,,,,0,,,76,85
276240,note_on,5,0,3,,,,,,,,2,,,70,85
276240,note_on,5,0,2,,,,,,,,1,,,76,85
276240,note_on,5,0,5,,,,,,,,4,,,48,85
276240,note_on,5,0,6,,,,,,,,5,,,48,85
276240,note_on,5,0,4,,,,,,,,3,,,67,85
276355,note_on,115,0,6,,,,,,,,5,,,48,0
276355,note_on,115,0,1,,,,,,,,0,,,76,0
276355,note_on,115,0,5,,,,,,,,4,,,48,0
276355,note_on,115,0,3,,,,,,,,2,,,70,0
276355,note_on,115,0,4,,,,,,,,3,,,67,0
276355,note_on,115,0,2,,,,,,,,1,,,76,0
276360,note_on,5,0,4,,,,,,,,3,,,64,85
276360,note_on,5,0,5,,,,,,,,4,,,48,85
276360,note_on,5,0,1,,,,,,,,0,,,70,85
276360,note_on,5,0,6,,,,,,,,5,,,48,85
276360,note_on,5,0,3,,,,,,,,2,,,67,85
276360,note_on,5,0,2,,,,,,,,1,,,70,85
276425,note_on,0,0,6,,,,,,,,5,,,70,0
276425,note_on,0,0,6,,,,,,,,5,,,67,0
276425,note_on,65,0,6,,,,,,,,5,,,76,0
276475,note_on,115,0,5,,,,,,,,4,,,48,0
276475,note_on,115,0,4,,,,,,,,3,,,64,0
276475,note_on,115,0,3,,,,,,,,2,,,67,0
276475,note_on,50,0,6,,,,,,,,5,,,48,0
276475,note_on,115,0,2,,,,,,,,1,,,70,0
276475,note_on,115,0,1,,,,,,,,0,,,70,0
276480,note_on,5,0,3,,,,,,,,2,,,65,85
276480,note_on,0,0,6,,,,,,,,5,,,69,64
276480,note_on,0,0,6,,,,,,,,5,,,53,85
276480,note_on,0,0,6,,,,,,,,5,,,65,64
276480,note_on,5,0,6,,,,,,,,5,,,77,85
276480,note_on,5,0,4,,,,,,,,3,,,60,85
276480,note_on,5,0,2,,,,,,,,1,,,69,85
276480,note_on,5,0,5,,,,,,,,4,,,53,85
276480,note_on,5,0,1,,,,,,,,0,,,69,106
276595,note_on,115,0,1,,,,,,,,0,,,69,0
276600,note_on,5,0,1,,,,,,,,0,,,70,106
276660,note_on,60,0,1,,,,,,,,0,,,70,0
276660,note_on,0,0,1,,,,,,,,0,,,72,106
276720,note_on,60,0,1,,,,,,,,0,,,72,0
276720,note_on,0,0,1,,,,,,,,0,,,74,106
276780,note_on,60,0,1,,,,,,,,0,,,74,0
276780,note_on,0,0,1,,,,,,,,0,,,76,106
276840,note_on,60,0,1,,,,,,,,0,,,76,0
276840,note_on,0,0,1,,,,,,,,0,,,77,106
276900,note_on,60,0,1,,,,,,,,0,,,77,0
276900,note_on,0,0,1,,,,,,,,0,,,79,106
276925,note_on,445,0,5,,,,,,,,4,,,53,0
276925,note_on,0,0,6,,,,,,,,5,,,65,0
276925,note_on,0,0,6,,,,,,,,5,,,69,0
276925,note_on,0,0,6,,,,,,,,5,,,77,0
276925,note_on,445,0,6,,,,,,,,5,,,53,0
276925,note_on,445,0,2,,,,,,,,1,,,69,0
276925,note_on,445,0,3,,,,,,,,2,,,65,0
276925,note_on,445,0,4,,,,,,,,3,,,60,0
276960,note_on,0,0,1,,,,,,,,0,,,81,106
276960,note_on,60,0,1,,,,,,,,0,,,79,0
277020,note_on,0,0,1,,,,,,,,0,,,82,106
277020,note_on,60,0,1,,,,,,,,0,,,81,0
277080,note_on,0,0,1,,,,,,,,0,,,84,106
277080,note_on,60,0,1,,,,,,,,0,,,82,0
277195,note_on,115,0,1,,,,,,,,0,,,84,0
277200,note_on,0,0,6,,,,,,,,5,,,69,64
277200,note_on,275,0,3,,,,,,,,2,,,77,85
277200,note_on,275,0,5,,,,,,,,4,,,53,85
277200,note_on,275,0,2,,,,,,,,1,,,81,85
277200,note_on,275,0,6,,,,,,,,5,,,72,85
277200,note_on,275,0,4,,,,,,,,3,,,72,85
277200,note_on,5,0,1,,,,,,,,0,,,77,106
277200,note_on,0,0,6,,,,,,,,5,,,53,85
277200,note_on,0,0,6,,,,,,,,5,,,65,64
277425,note_on,225,0,1,,,,,,,,0,,,77,0
277425,note_on,225,0,3,,,,,,,,2,,,77,0
277425,note_on,225,0,5,,,,,,,,4,,,53,0
277425,note_on,225,0,4,,,,,,,,3,,,72,0
277425,note_on,0,0,6,,,,,,,,5,,,65,0
277425,note_on,0,0,6,,,,,,,,5,,,69,0
277425,note_on,0,0,6,,,,,,,,5,,,72,0
277425,note_on,225,0,6,,,,,,,,5,,,53,0
277425,note_on,225,0,2,,,,,,,,1,,,81,0
277440,note_on,0,0,6,,,,,,,,5,,,67,64
277440,note_on,0,0,6,,,,,,,,5,,,46,85
277440,note_on,0,0,6,,,,,,,,5,,,62,64
277440,note_on,15,0,6,,,,,,,,5,,,74,85
277440,note_on,15,0,5,,,,,,,,4,,,46,85
277440,note_on,15,0,1,,,,,,,,0,,,79,106
277440,note_on,15,0,3,,,,,,,,2,,,79,85
277440,note_on,15,0,4,,,,,,,,3,,,74,85
277440,note_on,15,0,2,,,,,,,,1,,,82,85
277665,note_on,225,0,6,,,,,,,,5,,,46,0
277665,note_on,225,0,1,,,,,,,,0,,,79,0
277665,note_on,225,0,4,,,,,,,,3,,,74,0
277665,note_on,225,0,2,,,,,,,,1,,,82,0
277665,note_on,225,0,5,,,,,,,,4,,,46,0
277665,note_on,225,0,3,,,,,,,,2,,,79,0
277665,note_on,0,0,6,,,,,,,,5,,,62,0
277665,note_on,0,0,6,,,,,,,,5,,,74,0
277680,note_on,15,0,4,,,,,,,,3,,,72,85
277680,note_on,15,0,5,,,,,,,,4,,,48,85
277680,note_on,0,0,6,,,,,,,,5,,,48,85
277680,note_on,0,0,6,,,,,,,,5,,,64,64
277680,note_on,15,0,6,,,,,,,,5,,,72,85
277680,note_on,15,0,3,,,,,,,,2,,,76,85
277680,note_on,15,0,1,,,,,,,,0,,,76,106
277680,note_on,15,0,2,,,,,,,,1,,,79,85
277905,note_on,225,0,2,,,,,,,,1,,,79,0
277905,note_on,225,0,1,,,,,,,,0,,,76,0
277905,note_on,225,0,5,,,,,,,,4,,,48,0
277905,note_on,0,0,6,,,,,,,,5,,,64,0
277905,note_on,0,0,6,,,,,,,,5,,,72,0
277905,note_on,225,0,3,,,,,,,,2,,,76,0
277905,note_on,0,0,6,,,,,,,,5,,,67,0
277905,note_on,225,0,4,,,,,,,,3,,,72,0
277905,note_on,225,0,6,,,,,,,,5,,,48,0
277920,note_on,0,0,6,,,,,,,,5,,,65,64
277920,note_on,15,0,1,,,,,,,,0,,,69,106
277920,note_on,15,0,2,,,,,,,,1,,,77,85
277920,note_on,15,0,5,,,,,,,,4,,,41,85
277920,note_on,15,0,4,,,,,,,,3,,,69,85
277920,note_on,15,0,6,,,,,,,,5,,,72,85
277920,note_on,0,0,6,,,,,,,,5,,,69,64
277920,note_on,0,0,6,,,,,,,,5,,,41,85
277920,note_on,15,0,3,,,,,,,,2,,,77,85
278035,note_on,115,0,1,,,,,,,,0,,,69,0
278040,note_on,5,0,1,,,,,,,,0,,,70,106
278100,note_on,0,0,1,,,,,,,,0,,,72,106
278100,note_on,60,0,1,,,,,,,,0,,,70,0
278160,note_on,0,0,1,,,,,,,,0,,,74,106
278160,note_on,60,0,1,,,,,,,,0,,,72,0
278220,note_on,60,0,1,,,,,,,,0,,,74,0
278220,note_on,0,0,1,,,,,,,,0,,,76,106
278280,note_on,60,0,1,,,,,,,,0,,,76,0
278280,note_on,0,0,1,,,,,,,,0,,,77,106
278340,note_on,0,0,1,,,,,,,,0,,,79,106
278340,note_on,60,0,1,,,,,,,,0,,,77,0
278365,note_on,445,0,2,,,,,,,,1,,,77,0
278365,note_on,0,0,6,,,,,,,,5,,,69,0
278365,note_on,445,0,3,,,,,,,,2,,,77,0
278365,note_on,445,0,6,,,,,,,,5,,,41,0
278365,note_on,445,0,4,,,,,,,,3,,,69,0
278365,note_on,0,0,6,,,,,,,,5,,,72,0
278365,note_on,445,0,5,,,,,,,,4,,,41,0
278365,note_on,0,0,6,,,,,,,,5,,,65,0
278400,note_on,0,0,1,,,,,,,,0,,,81,106
278400,note_on,60,0,1,,,,,,,,0,,,79,0
278460,note_on,0,0,1,,,,,,,,0,,,82,106
278460,note_on,60,0,1,,,,,,,,0,,,81,0
278520,note_on,0,0,1,,,,,,,,0,,,84,106
278520,note_on,60,0,1,,,,,,,,0,,,82,0
278635,note_on,115,0,1,,,,,,,,0,,,84,0
278640,note_on,275,0,6,,,,,,,,5,,,77,85
278640,note_on,0,0,6,,,,,,,,5,,,72,64
278640,note_on,0,0,6,,,,,,,,5,,,69,64
278640,note_on,0,0,6,,,,,,,,5,,,53,85
278640,note_on,275,0,2,,,,,,,,1,,,81,85
278640,note_on,275,0,5,,,,,,,,4,,,53,85
278640,note_on,275,0,3,,,,,,,,2,,,77,85
278640,note_on,275,0,4,,,,,,,,3,,,72,85
278640,note_on,5,0,1,,,,,,,,0,,,77,106
278640,set_tempo,36720,1,0,,,,,,600000,,,,,,
278865,note_on,225,0,1,,,,,,,,0,,,77,0
278865,note_on,225,0,4,,,,,,,,3,,,72,0
278865,note_on,225,0,3,,,,,,,,2,,,77,0
278865,note_on,225,0,6,,,,,,,,5,,,53,0
278865,note_on,0,0,6,,,,,,,,5,,,77,0
278865,note_on,225,0,2,,,,,,,,1,,,81,0
278865,note_on,0,0,6,,,,,,,,5,,,72,0
278865,note_on,0,0,6,,,,,,,,5,,,69,0
278865,note_on,225,0,5,,,,,,,,4,,,53,0
278880,note_on,15,0,3,,,,,,,,2,,,79,85
278880,note_on,15,0,6,,,,,,,,5,,,79,85
278880,note_on,0,0,6,,,,,,,,5,,,74,64
278880,note_on,0,0,6,,,,,,,,5,,,67,64
278880,note_on,0,0,6,,,,,,,,5,,,46,85
278880,note_on,15,0,5,,,,,,,,4,,,46,85
278880,set_tempo,240,1,0,,,,,,666667,,,,,,
278880,note_on,15,0,1,,,,,,,,0,,,79,106
278880,note_on,15,0,4,,,,,,,,3,,,74,85
278880,note_on,15,0,2,,,,,,,,1,,,82,85
278940,note_on,60,0,5,,,,,,,,4,,,46,0
278940,note_on,0,0,6,,,,,,,,5,,,74,0
278940,note_on,60,0,6,,,,,,,,5,,,46,0
278940,note_on,60,0,1,,,,,,,,0,,,79,0
278940,note_on,0,0,6,,,,,,,,5,,,79,0
278940,note_on,60,0,4,,,,,,,,3,,,74,0
278940,note_on,60,0,3,,,,,,,,2,,,79,0
278940,note_on,60,0,2,,,,,,,,1,,,82,0
279000,note_on,60,0,6,,,,,,,,5,,,67,0
279120,note_on,180,0,4,,,,,,,,3,,,72,85
279120,set_tempo,240,1,0,,,,,,750000,,,,,,
279120,end_of_track,0,1,0,,,,,,,,,,,,
279120,note_on,180,0,2,,,,,,,,1,,,79,85
279120,note_on,0,0,6,,,,,,,,5,,,48,85
279120,note_on,120,0,6,,,,,,,,5,,,76,85
279120,note_on,180,0,5,,,,,,,,4,,,48,85
279120,note_on,0,0,6,,,,,,,,5,,,72,64
279120,note_on,180,0,3,,,,,,,,2,,,76,85
279120,note_on,180,0,1,,,,,,,,0,,,76,106
279180,note_on,60,0,3,,,,,,,,2,,,76,0
279180,note_on,60,0,4,,,,,,,,3,,,72,0
279180,note_on,60,0,2,,,,,,,,1,,,79,0
279180,note_on,0,0,6,,,,,,,,5,,,76,0
279180,note_on,60,0,5,,,,,,,,4,,,48,0
279180,note_on,60,0,6,,,,,,,,5,,,48,0
279180,note_on,60,0,1,,,,,,,,0,,,76,0
279180,note_on,0,0,6,,,,,,,,5,,,72,0
279417,note_on,237,0,5,,,,,,,,4,,,41,85
279417,note_on,237,0,3,,,,,,,,2,,,77,85
279417,note_on,237,0,4,,,,,,,,3,,,69,85
279417,note_on,237,0,2,,,,,,,,1,,,77,85
279422,note_on,242,0,6,,,,,,,,5,,,41,85
279422,note_on,242,0,1,,,,,,,,0,,,77,106
279448,note_on,26,0,6,,,,,,,,5,,,69,64
279469,note_on,21,0,6,,,,,,,,5,,,72,64
279506,note_on,37,0,6,,,,,,,,5,,,77,85
280082,end_of_track,0,1,5,,,,,,,,,,,,
280082,note_on,665,0,4,,,,,,,,3,,,69,0
280082,end_of_track,0,1,4,,,,,,,,,,,,
280082,end_of_track,0,1,2,,,,,,,,,,,,
280082,note_on,665,0,3,,,,,,,,2,,,77,0
280082,end_of_track,0,1,3,,,,,,,,,,,,
280082,note_on,665,0,5,,,,,,,,4,,,41,0
280082,note_on,665,0,2,,,,,,,,1,,,77,0
280087,note_on,581,0,6,,,,,,,,5,,,41,0
280087,end_of_track,0,1,1,,,,,,,,,,,,
280087,note_on,665,0,1,,,,,,,,0,,,77,0
280113,note_on,26,0,6,,,,,,,,5,,,69,0
280134,note_on,21,0,6,,,,,,,,5,,,72,0
280171,note_on,37,0,6,,,,,,,,5,,,77,0
280171,end_of_track,0,1,6,,,,,,,,,,,,
