tick,type,time,meta,track,tempo,key,numerator,denominator,clocks_per_click,notated_32nd_notes_per_beat,port,program,channel,control,value,note,velocity
0,track_name,0,1,0,,,,,,,,,,,,,
0,track_name,0,1,6,,,,,,,,,,,,,
0,midi_port,0,1,6,,,,,,,0,,,,,,
0,end_of_track,0,1,5,,,,,,,,,,,,,
0,control_change,0,0,5,,,,,,,,,8,10,64,,
0,control_change,0,0,5,,,,,,,,,8,7,127,,
0,track_name,0,1,5,,,,,,,,,,,,,
0,midi_port,0,1,5,,,,,,,0,,,,,,
0,control_change,0,0,4,,,,,,,,,7,10,64,,
0,control_change,0,0,4,,,,,,,,,7,7,111,,
0,program_change,0,0,4,,,,,,,,0,7,,,,
0,track_name,0,1,4,,,,,,,,,,,,,
0,midi_port,0,1,4,,,,,,,0,,,,,,
0,control_change,0,0,11,,,,,,,,,14,10,64,,
0,control_change,0,0,3,,,,,,,,,5,10,64,,
0,control_change,0,0,3,,,,,,,,,5,7,111,,
0,program_change,0,0,3,,,,,,,,0,5,,,,
0,track_name,0,1,3,,,,,,,,,,,,,
0,midi_port,0,1,3,,,,,,,0,,,,,,
0,control_change,0,0,2,,,,,,,,,6,10,64,,
0,control_change,0,0,2,,,,,,,,,6,7,111,,
0,program_change,0,0,2,,,,,,,,0,6,,,,
0,control_change,0,0,6,,,,,,,,,9,7,127,,
0,control_change,0,0,6,,,,,,,,,9,10,64,,
0,end_of_track,0,1,6,,,,,,,,,,,,,
0,midi_port,0,1,7,,,,,,,0,,,,,,
0,control_change,0,0,11,,,,,,,,,14,7,127,,
0,track_name,0,1,11,,,,,,,,,,,,,
0,midi_port,0,1,11,,,,,,,0,,,,,,
0,end_of_track,0,1,10,,,,,,,,,,,,,
0,control_change,0,0,10,,,,,,,,,13,10,64,,
0,control_change,0,0,10,,,,,,,,,13,7,127,,
0,track_name,0,1,10,,,,,,,,,,,,,
0,midi_port,0,1,10,,,,,,,0,,,,,,
0,end_of_track,0,1,9,,,,,,,,,,,,,
0,control_change,0,0,9,,,,,,,,,12,10,64,,
0,track_name,0,1,2,,,,,,,,,,,,,
0,control_change,0,0,9,,,,,,,,,12,7,127,,
0,midi_port,0,1,9,,,,,,,0,,,,,,
0,end_of_track,0,1,8,,,,,,,,,,,,,
0,control_change,0,0,8,,,,,,,,,11,10,64,,
0,control_change,0,0,8,,,,,,,,,11,7,127,,
0,track_name,0,1,8,,,,,,,,,,,,,
0,midi_port,0,1,8,,,,,,,0,,,,,,
0,end_of_track,0,1,7,,,,,,,,,,,,,
0,control_change,0,0,7,,,,,,,,,10,10,64,,
0,control_change,0,0,7,,,,,,,,,10,7,127,,
0,track_name,0,1,7,,,,,,,,,,,,,
0,track_name,0,1,9,,,,,,,,,,,,,
0,midi_port,0,1,2,,,,,,,0,,,,,,
0,end_of_track,0,1,11,,,,,,,,,,,,,
0,text,0,1,0,,,,,,,,,,,,,
0,text,0,1,0,,,,,,,,,,,,,
0,copyright,0,1,0,,,,,,,,,,,,,
0,set_tempo,0,1,0,416666,,,,,,,,,,,,
0,key_signature,0,1,0,,D,,,,,,,,,,,
0,time_signature,0,1,0,,,4,4,24,8,,,,,,,
0,control_change,0,0,1,,,,,,,,,1,10,64,,
0,midi_port,0,1,1,,,,,,,0,,,,,,
0,track_name,0,1,1,,,,,,,,,,,,,
0,program_change,0,0,1,,,,,,,,48,1,,,,
0,control_change,0,0,1,,,,,,,,,1,7,127,,
768,note_on,768,0,3,,,,,,,,,5,,,59,108
768,note_on,768,0,4,,,,,,,,,7,,,47,108
768,note_on,768,0,2,,,,,,,,,6,,,78,108
768,set_tempo,768,1,0,666666,,,,,,,,,,,,
768,time_signature,0,1,0,,,3,8,24,8,,,,,,,
862,note_on,94,0,3,,,,,,,,,5,,,59,0
862,note_on,94,0,2,,,,,,,,,6,,,78,0
864,note_on,2,0,3,,,,,,,,,5,,,66,108
864,note_on,2,0,2,,,,,,,,,6,,,74,108
928,note_on,160,0,4,,,,,,,,,7,,,47,0
958,note_on,94,0,3,,,,,,,,,5,,,66,0
958,note_on,94,0,2,,,,,,,,,6,,,74,0
960,note_on,2,0,3,,,,,,,,,5,,,70,108
960,note_on,2,0,2,,,,,,,,,6,,,73,108
960,note_on,32,0,4,,,,,,,,,7,,,54,108
1054,note_on,94,0,2,,,,,,,,,6,,,73,0
1054,note_on,94,0,4,,,,,,,,,7,,,54,0
1054,note_on,94,0,3,,,,,,,,,5,,,70,0
1056,note_on,2,0,3,,,,,,,,,5,,,66,108
1056,note_on,2,0,4,,,,,,,,,7,,,47,108
1056,note_on,2,0,2,,,,,,,,,6,,,71,108
1150,note_on,94,0,3,,,,,,,,,5,,,66,0
1150,note_on,94,0,2,,,,,,,,,6,,,71,0
1152,note_on,2,0,3,,,,,,,,,5,,,62,108
1152,note_on,2,0,2,,,,,,,,,6,,,66,108
1216,note_on,160,0,4,,,,,,,,,7,,,47,0
1246,note_on,94,0,2,,,,,,,,,6,,,66,0
1246,note_on,94,0,3,,,,,,,,,5,,,62,0
1248,note_on,32,0,4,,,,,,,,,7,,,54,108
1248,note_on,2,0,2,,,,,,,,,6,,,64,108
1248,note_on,2,0,3,,,,,,,,,5,,,61,108
1342,note_on,94,0,2,,,,,,,,,6,,,64,0
1342,note_on,94,0,3,,,,,,,,,5,,,61,0
1342,note_on,94,0,4,,,,,,,,,7,,,54,0
1344,note_on,2,0,4,,,,,,,,,7,,,47,108
1344,note_on,2,0,2,,,,,,,,,6,,,62,108
1344,note_on,2,0,3,,,,,,,,,5,,,59,108
1390,note_on,46,0,2,,,,,,,,,6,,,62,0
1392,note_on,2,0,2,,,,,,,,,6,,,61,108
1438,note_on,46,0,2,,,,,,,,,6,,,61,0
1440,note_on,2,0,2,,,,,,,,,6,,,59,108
1504,note_on,160,0,3,,,,,,,,,5,,,59,0
1504,note_on,160,0,4,,,,,,,,,7,,,47,0
1534,note_on,94,0,2,,,,,,,,,6,,,59,0
1536,note_on,32,0,4,,,,,,,,,7,,,46,108
1536,note_on,2,0,2,,,,,,,,,6,,,58,108
1536,note_on,32,0,3,,,,,,,,,5,,,54,108
1630,note_on,94,0,2,,,,,,,,,6,,,58,0
1630,note_on,94,0,4,,,,,,,,,7,,,46,0
1630,note_on,94,0,3,,,,,,,,,5,,,54,0
1632,note_on,2,0,2,,,,,,,,,6,,,59,108
1632,note_on,2,0,4,,,,,,,,,7,,,47,108
1632,note_on,2,0,3,,,,,,,,,5,,,59,108
1678,note_on,46,0,4,,,,,,,,,7,,,47,0
1678,note_on,46,0,2,,,,,,,,,6,,,59,0
1678,note_on,46,0,3,,,,,,,,,5,,,59,0
1680,note_on,2,0,3,,,,,,,,,5,,,61,108
1680,note_on,2,0,2,,,,,,,,,6,,,61,108
1680,note_on,2,0,4,,,,,,,,,7,,,49,108
1726,note_on,46,0,2,,,,,,,,,6,,,61,0
1726,note_on,46,0,3,,,,,,,,,5,,,61,0
1726,note_on,46,0,4,,,,,,,,,7,,,49,0
1728,note_on,2,0,3,,,,,,,,,5,,,62,108
1728,note_on,2,0,2,,,,,,,,,6,,,62,108
1728,note_on,2,0,4,,,,,,,,,7,,,50,108
1822,note_on,94,0,2,,,,,,,,,6,,,62,0
1822,note_on,94,0,3,,,,,,,,,5,,,62,0
1822,note_on,94,0,4,,,,,,,,,7,,,50,0
1824,note_on,2,0,4,,,,,,,,,7,,,49,108
1824,note_on,2,0,2,,,,,,,,,6,,,61,108
1824,note_on,2,0,3,,,,,,,,,5,,,61,108
1918,note_on,94,0,4,,,,,,,,,7,,,49,0
1918,note_on,94,0,3,,,,,,,,,5,,,61,0
1918,note_on,94,0,2,,,,,,,,,6,,,61,0
1920,note_on,2,0,3,,,,,,,,,5,,,59,108
1920,note_on,2,0,4,,,,,,,,,7,,,47,108
1920,note_on,2,0,2,,,,,,,,,6,,,59,108
1966,note_on,46,0,3,,,,,,,,,5,,,59,0
1966,note_on,46,0,4,,,,,,,,,7,,,47,0
1966,note_on,46,0,2,,,,,,,,,6,,,59,0
1968,note_on,2,0,3,,,,,,,,,5,,,61,108
1968,note_on,2,0,4,,,,,,,,,7,,,49,108
1968,note_on,2,0,2,,,,,,,,,6,,,61,108
2014,note_on,46,0,4,,,,,,,,,7,,,49,0
2014,note_on,46,0,2,,,,,,,,,6,,,61,0
2014,note_on,46,0,3,,,,,,,,,5,,,61,0
2016,note_on,2,0,4,,,,,,,,,7,,,50,108
2016,note_on,2,0,3,,,,,,,,,5,,,62,108
2016,note_on,2,0,2,,,,,,,,,6,,,62,108
2110,note_on,94,0,2,,,,,,,,,6,,,62,0
2110,note_on,94,0,4,,,,,,,,,7,,,50,0
2110,note_on,94,0,3,,,,,,,,,5,,,62,0
2112,note_on,2,0,3,,,,,,,,,5,,,61,108
2112,note_on,2,0,4,,,,,,,,,7,,,49,108
2112,note_on,2,0,2,,,,,,,,,6,,,61,108
2206,note_on,94,0,4,,,,,,,,,7,,,49,0
2206,note_on,94,0,2,,,,,,,,,6,,,61,0
2206,note_on,94,0,3,,,,,,,,,5,,,61,0
2208,note_on,2,0,4,,,,,,,,,7,,,47,108
2208,note_on,2,0,2,,,,,,,,,6,,,59,108
2208,note_on,2,0,3,,,,,,,,,5,,,59,108
2254,note_on,46,0,3,,,,,,,,,5,,,59,0
2254,note_on,46,0,4,,,,,,,,,7,,,47,0
2254,note_on,46,0,2,,,,,,,,,6,,,59,0
2256,note_on,2,0,4,,,,,,,,,7,,,49,108
2256,note_on,2,0,3,,,,,,,,,5,,,61,108
2256,note_on,2,0,2,,,,,,,,,6,,,61,108
2302,note_on,46,0,2,,,,,,,,,6,,,61,0
2302,note_on,46,0,3,,,,,,,,,5,,,61,0
2302,note_on,46,0,4,,,,,,,,,7,,,49,0
2304,note_on,2,0,4,,,,,,,,,7,,,50,108
2304,note_on,2,0,2,,,,,,,,,6,,,62,108
2304,note_on,2,0,3,,,,,,,,,5,,,62,108
2398,note_on,94,0,4,,,,,,,,,7,,,50,0
2398,note_on,94,0,2,,,,,,,,,6,,,62,0
2398,note_on,94,0,3,,,,,,,,,5,,,62,0
2400,note_on,2,0,4,,,,,,,,,7,,,52,108
2400,note_on,2,0,2,,,,,,,,,6,,,64,108
2400,note_on,2,0,3,,,,,,,,,5,,,64,108
2494,note_on,94,0,4,,,,,,,,,7,,,52,0
2494,note_on,94,0,3,,,,,,,,,5,,,64,0
2494,note_on,94,0,2,,,,,,,,,6,,,64,0
2496,note_on,2,0,2,,,,,,,,,6,,,66,108
2496,note_on,2,0,3,,,,,,,,,5,,,66,108
2496,note_on,2,0,4,,,,,,,,,7,,,54,108
2752,note_on,256,0,4,,,,,,,,,7,,,54,0
2752,note_on,256,0,2,,,,,,,,,6,,,66,0
2752,note_on,256,0,3,,,,,,,,,5,,,66,0
2784,note_on,32,0,2,,,,,,,,,6,,,78,108
2784,note_on,32,0,4,,,,,,,,,7,,,59,108
2784,note_on,32,0,3,,,,,,,,,5,,,63,108
2830,note_on,46,0,3,,,,,,,,,5,,,63,0
2830,note_on,46,0,4,,,,,,,,,7,,,59,0
2832,note_on,2,0,3,,,,,,,,,5,,,64,108
2832,note_on,2,0,4,,,,,,,,,7,,,61,108
2878,note_on,46,0,3,,,,,,,,,5,,,64,0
2878,note_on,46,0,4,,,,,,,,,7,,,61,0
2878,note_on,94,0,2,,,,,,,,,6,,,78,0
2880,note_on,2,0,3,,,,,,,,,5,,,66,108
2880,note_on,2,0,4,,,,,,,,,7,,,63,108
2880,note_on,2,0,2,,,,,,,,,6,,,83,108
2974,note_on,94,0,4,,,,,,,,,7,,,63,0
2974,note_on,94,0,3,,,,,,,,,5,,,66,0
2976,note_on,2,0,4,,,,,,,,,7,,,59,108
2976,note_on,2,0,3,,,,,,,,,5,,,63,108
3040,note_on,160,0,2,,,,,,,,,6,,,83,0
3070,note_on,94,0,4,,,,,,,,,7,,,59,0
3070,note_on,94,0,3,,,,,,,,,5,,,63,0
3072,note_on,2,0,4,,,,,,,,,7,,,52,108
3072,note_on,2,0,3,,,,,,,,,5,,,59,108
3072,note_on,32,0,2,,,,,,,,,6,,,79,108
3118,note_on,46,0,2,,,,,,,,,6,,,79,0
3120,note_on,2,0,2,,,,,,,,,6,,,81,108
3166,note_on,46,0,2,,,,,,,,,6,,,81,0
3166,note_on,94,0,3,,,,,,,,,5,,,59,0
3168,note_on,2,0,2,,,,,,,,,6,,,79,108
3168,note_on,2,0,3,,,,,,,,,5,,,71,108
3214,note_on,46,0,2,,,,,,,,,6,,,79,0
3216,note_on,2,0,2,,,,,,,,,6,,,78,108
3232,note_on,160,0,4,,,,,,,,,7,,,52,0
3262,note_on,46,0,2,,,,,,,,,6,,,78,0
3262,note_on,94,0,3,,,,,,,,,5,,,71,0
3264,note_on,2,0,3,,,,,,,,,5,,,67,108
3264,note_on,2,0,2,,,,,,,,,6,,,76,108
3310,note_on,46,0,2,,,,,,,,,6,,,76,0
3312,note_on,2,0,2,,,,,,,,,6,,,74,108
3358,note_on,94,0,3,,,,,,,,,5,,,67,0
3358,note_on,46,0,2,,,,,,,,,6,,,74,0
3360,note_on,2,0,3,,,,,,,,,5,,,64,108
3360,note_on,2,0,2,,,,,,,,,6,,,73,108
3360,note_on,128,0,4,,,,,,,,,7,,,57,108
3406,note_on,46,0,4,,,,,,,,,7,,,57,0
3406,note_on,46,0,3,,,,,,,,,5,,,64,0
3408,note_on,2,0,4,,,,,,,,,7,,,59,108
3408,note_on,2,0,3,,,,,,,,,5,,,62,108
3454,note_on,94,0,2,,,,,,,,,6,,,73,0
3454,note_on,46,0,3,,,,,,,,,5,,,62,0
3454,note_on,46,0,4,,,,,,,,,7,,,59,0
3456,note_on,2,0,3,,,,,,,,,5,,,64,108
3456,note_on,2,0,4,,,,,,,,,7,,,61,108
3456,note_on,2,0,2,,,,,,,,,6,,,81,108
3550,note_on,94,0,3,,,,,,,,,5,,,64,0
3550,note_on,94,0,4,,,,,,,,,7,,,61,0
3552,note_on,2,0,3,,,,,,,,,5,,,61,108
3552,note_on,2,0,4,,,,,,,,,7,,,57,108
3616,note_on,160,0,2,,,,,,,,,6,,,81,0
3646,note_on,94,0,3,,,,,,,,,5,,,61,0
3646,note_on,94,0,4,,,,,,,,,7,,,57,0
3648,note_on,2,0,4,,,,,,,,,7,,,50,108
3648,note_on,32,0,2,,,,,,,,,6,,,78,108
3648,note_on,2,0,3,,,,,,,,,5,,,57,108
3694,note_on,46,0,2,,,,,,,,,6,,,78,0
3696,note_on,2,0,2,,,,,,,,,6,,,79,108
3742,note_on,46,0,2,,,,,,,,,6,,,79,0
3742,note_on,94,0,3,,,,,,,,,5,,,57,0
3744,note_on,2,0,2,,,,,,,,,6,,,78,108
3744,note_on,2,0,3,,,,,,,,,5,,,69,108
3790,note_on,46,0,2,,,,,,,,,6,,,78,0
3792,note_on,2,0,2,,,,,,,,,6,,,76,108
3808,note_on,160,0,4,,,,,,,,,7,,,50,0
3838,note_on,46,0,2,,,,,,,,,6,,,76,0
3838,note_on,94,0,3,,,,,,,,,5,,,69,0
3840,note_on,2,0,3,,,,,,,,,5,,,66,108
3840,note_on,2,0,2,,,,,,,,,6,,,74,108
3886,note_on,46,0,2,,,,,,,,,6,,,74,0
3888,note_on,2,0,2,,,,,,,,,6,,,73,108
3934,note_on,46,0,2,,,,,,,,,6,,,73,0
3934,note_on,94,0,3,,,,,,,,,5,,,66,0
3936,note_on,128,0,4,,,,,,,,,7,,,55,108
3936,note_on,2,0,2,,,,,,,,,6,,,71,108
3936,note_on,2,0,3,,,,,,,,,5,,,62,108
3982,note_on,46,0,3,,,,,,,,,5,,,62,0
3982,note_on,46,0,4,,,,,,,,,7,,,55,0
3984,note_on,2,0,3,,,,,,,,,5,,,61,108
3984,note_on,2,0,4,,,,,,,,,7,,,57,108
4030,note_on,46,0,3,,,,,,,,,5,,,61,0
4030,note_on,46,0,4,,,,,,,,,7,,,57,0
4030,note_on,94,0,2,,,,,,,,,6,,,71,0
4032,note_on,2,0,2,,,,,,,,,6,,,79,108
4032,note_on,2,0,4,,,,,,,,,7,,,59,108
4032,note_on,2,0,3,,,,,,,,,5,,,62,108
4126,note_on,94,0,4,,,,,,,,,7,,,59,0
4126,note_on,94,0,3,,,,,,,,,5,,,62,0
4128,note_on,2,0,4,,,,,,,,,7,,,55,108
4128,note_on,2,0,3,,,,,,,,,5,,,59,108
4192,note_on,160,0,2,,,,,,,,,6,,,79,0
4222,note_on,94,0,4,,,,,,,,,7,,,55,0
4222,note_on,94,0,3,,,,,,,,,5,,,59,0
4224,note_on,2,0,3,,,,,,,,,5,,,58,108
4224,note_on,2,0,4,,,,,,,,,7,,,49,108
4224,note_on,32,0,2,,,,,,,,,6,,,76,108
4270,note_on,46,0,2,,,,,,,,,6,,,76,0
4272,note_on,2,0,2,,,,,,,,,6,,,78,108
4318,note_on,46,0,2,,,,,,,,,6,,,78,0
4320,note_on,2,0,2,,,,,,,,,6,,,76,108
4366,note_on,46,0,2,,,,,,,,,6,,,76,0
4368,note_on,2,0,2,,,,,,,,,6,,,74,108
4384,note_on,160,0,3,,,,,,,,,5,,,58,0
4384,note_on,160,0,4,,,,,,,,,7,,,49,0
4414,note_on,46,0,2,,,,,,,,,6,,,74,0
4416,note_on,2,0,2,,,,,,,,,6,,,73,108
4462,note_on,46,0,2,,,,,,,,,6,,,73,0
4464,note_on,2,0,2,,,,,,,,,6,,,71,108
4510,note_on,46,0,2,,,,,,,,,6,,,71,0
4512,note_on,128,0,4,,,,,,,,,7,,,54,108
4512,note_on,128,0,3,,,,,,,,,5,,,73,108
4512,note_on,2,0,2,,,,,,,,,6,,,82,108
4558,note_on,46,0,3,,,,,,,,,5,,,73,0
4558,note_on,46,0,4,,,,,,,,,7,,,54,0
4560,note_on,2,0,4,,,,,,,,,7,,,56,108
4560,note_on,2,0,3,,,,,,,,,5,,,71,108
4606,note_on,46,0,3,,,,,,,,,5,,,71,0
4606,note_on,46,0,4,,,,,,,,,7,,,56,0
4606,note_on,94,0,2,,,,,,,,,6,,,82,0
4608,note_on,2,0,3,,,,,,,,,5,,,73,108
4608,note_on,2,0,4,,,,,,,,,7,,,58,108
4608,note_on,2,0,2,,,,,,,,,6,,,78,108
4702,note_on,94,0,3,,,,,,,,,5,,,73,0
4702,note_on,94,0,4,,,,,,,,,7,,,58,0
4704,note_on,2,0,3,,,,,,,,,5,,,70,108
4704,note_on,2,0,4,,,,,,,,,7,,,54,108
4768,note_on,160,0,2,,,,,,,,,6,,,78,0
4798,note_on,94,0,3,,,,,,,,,5,,,70,0
4798,note_on,94,0,4,,,,,,,,,7,,,54,0
4800,note_on,2,0,4,,,,,,,,,7,,,50,108
4800,note_on,2,0,3,,,,,,,,,5,,,78,108
4800,note_on,32,0,2,,,,,,,,,6,,,83,108
4846,note_on,46,0,3,,,,,,,,,5,,,78,0
4846,note_on,46,0,4,,,,,,,,,7,,,50,0
4848,note_on,2,0,4,,,,,,,,,7,,,49,108
4848,note_on,2,0,3,,,,,,,,,5,,,76,108
4894,note_on,46,0,4,,,,,,,,,7,,,49,0
4894,note_on,46,0,3,,,,,,,,,5,,,76,0
4894,note_on,94,0,2,,,,,,,,,6,,,83,0
4896,note_on,2,0,2,,,,,,,,,6,,,78,108
4896,note_on,2,0,4,,,,,,,,,7,,,47,108
4896,note_on,2,0,3,,,,,,,,,5,,,74,108
4990,note_on,94,0,4,,,,,,,,,7,,,47,0
4990,note_on,94,0,3,,,,,,,,,5,,,74,0
4992,note_on,2,0,4,,,,,,,,,7,,,50,108
4992,note_on,2,0,3,,,,,,,,,5,,,71,108
5056,note_on,160,0,2,,,,,,,,,6,,,78,0
5086,note_on,94,0,3,,,,,,,,,5,,,71,0
5086,note_on,94,0,4,,,,,,,,,7,,,50,0
5088,note_on,2,0,3,,,,,,,,,5,,,71,108
5088,note_on,2,0,4,,,,,,,,,7,,,52,108
5088,note_on,32,0,2,,,,,,,,,6,,,79,108
5182,note_on,94,0,2,,,,,,,,,6,,,79,0
5182,note_on,94,0,4,,,,,,,,,7,,,52,0
5182,note_on,94,0,3,,,,,,,,,5,,,71,0
5184,note_on,2,0,4,,,,,,,,,7,,,50,108
5184,note_on,2,0,2,,,,,,,,,6,,,78,108
5184,note_on,2,0,3,,,,,,,,,5,,,71,108
5344,note_on,160,0,4,,,,,,,,,7,,,50,0
5344,note_on,160,0,2,,,,,,,,,6,,,78,0
5344,note_on,160,0,3,,,,,,,,,5,,,71,0
5376,note_on,32,0,3,,,,,,,,,5,,,54,108
5376,note_on,32,0,4,,,,,,,,,7,,,50,108
5376,note_on,32,0,2,,,,,,,,,6,,,83,108
5422,note_on,46,0,3,,,,,,,,,5,,,54,0
5422,note_on,46,0,4,,,,,,,,,7,,,50,0
5424,note_on,2,0,3,,,,,,,,,5,,,52,108
5424,note_on,2,0,4,,,,,,,,,7,,,49,108
5470,note_on,46,0,3,,,,,,,,,5,,,52,0
5470,note_on,46,0,4,,,,,,,,,7,,,49,0
5470,note_on,94,0,2,,,,,,,,,6,,,83,0
5472,note_on,2,0,2,,,,,,,,,6,,,71,108
5472,note_on,2,0,3,,,,,,,,,5,,,50,108
5472,note_on,2,0,4,,,,,,,,,7,,,47,108
5566,note_on,94,0,3,,,,,,,,,5,,,50,0
5566,note_on,94,0,4,,,,,,,,,7,,,47,0
5568,note_on,2,0,3,,,,,,,,,5,,,66,108
5568,note_on,2,0,4,,,,,,,,,7,,,50,108
5632,note_on,160,0,2,,,,,,,,,6,,,71,0
5662,note_on,94,0,3,,,,,,,,,5,,,66,0
5662,note_on,94,0,4,,,,,,,,,7,,,50,0
5664,note_on,2,0,4,,,,,,,,,7,,,52,108
5664,note_on,32,0,2,,,,,,,,,6,,,72,108
5664,note_on,2,0,3,,,,,,,,,5,,,67,108
5758,note_on,94,0,4,,,,,,,,,7,,,52,0
5758,note_on,94,0,3,,,,,,,,,5,,,67,0
5758,note_on,94,0,2,,,,,,,,,6,,,72,0
5760,note_on,2,0,2,,,,,,,,,6,,,71,108
5760,note_on,2,0,4,,,,,,,,,7,,,50,108
5760,note_on,2,0,3,,,,,,,,,5,,,66,108
5920,note_on,160,0,3,,,,,,,,,5,,,66,0
5920,note_on,160,0,4,,,,,,,,,7,,,50,0
5920,note_on,160,0,2,,,,,,,,,6,,,71,0
5952,note_on,32,0,4,,,,,,,,,7,,,52,108
5952,note_on,32,0,2,,,,,,,,,6,,,79,108
5952,note_on,32,0,3,,,,,,,,,5,,,59,108
6046,note_on,94,0,3,,,,,,,,,5,,,59,0
6046,note_on,94,0,2,,,,,,,,,6,,,79,0
6046,note_on,94,0,4,,,,,,,,,7,,,52,0
6048,note_on,2,0,3,,,,,,,,,5,,,71,108
6048,note_on,2,0,2,,,,,,,,,6,,,78,108
6048,note_on,2,0,4,,,,,,,,,7,,,50,108
6208,note_on,160,0,3,,,,,,,,,5,,,71,0
6208,note_on,160,0,2,,,,,,,,,6,,,78,0
6208,note_on,160,0,4,,,,,,,,,7,,,50,0
6240,note_on,32,0,2,,,,,,,,,6,,,82,108
6240,note_on,32,0,3,,,,,,,,,5,,,73,108
6240,note_on,32,0,4,,,,,,,,,7,,,54,108
6286,note_on,46,0,4,,,,,,,,,7,,,54,0
6288,note_on,2,0,4,,,,,,,,,7,,,55,108
6334,note_on,46,0,4,,,,,,,,,7,,,55,0
6334,note_on,94,0,2,,,,,,,,,6,,,82,0
6336,note_on,2,0,4,,,,,,,,,7,,,54,108
6336,note_on,2,0,2,,,,,,,,,6,,,78,108
6382,note_on,46,0,4,,,,,,,,,7,,,54,0
6384,note_on,2,0,4,,,,,,,,,7,,,52,108
6400,note_on,160,0,3,,,,,,,,,5,,,73,0
6430,note_on,94,0,2,,,,,,,,,6,,,78,0
6430,note_on,46,0,4,,,,,,,,,7,,,52,0
6432,note_on,32,0,3,,,,,,,,,5,,,78,108
6432,note_on,2,0,2,,,,,,,,,6,,,83,108
6432,note_on,2,0,4,,,,,,,,,7,,,50,108
6478,note_on,46,0,4,,,,,,,,,7,,,50,0
6480,note_on,2,0,4,,,,,,,,,7,,,49,108
6526,note_on,46,0,4,,,,,,,,,7,,,49,0
6526,note_on,94,0,3,,,,,,,,,5,,,78,0
6526,note_on,94,0,2,,,,,,,,,6,,,83,0
6528,note_on,2,0,4,,,,,,,,,7,,,47,108
6528,note_on,2,0,3,,,,,,,,,5,,,66,108
6528,note_on,2,0,2,,,,,,,,,6,,,74,108
6574,note_on,46,0,4,,,,,,,,,7,,,47,0
6574,note_on,46,0,3,,,,,,,,,5,,,66,0
6576,note_on,2,0,4,,,,,,,,,7,,,52,108
6576,note_on,2,0,3,,,,,,,,,5,,,67,108
6622,note_on,94,0,2,,,,,,,,,6,,,74,0
6622,note_on,46,0,3,,,,,,,,,5,,,67,0
6622,note_on,46,0,4,,,,,,,,,7,,,52,0
6624,note_on,2,0,2,,,,,,,,,6,,,73,108
6624,note_on,2,0,4,,,,,,,,,7,,,54,108
6624,note_on,2,0,3,,,,,,,,,5,,,58,108
6646,note_on,22,0,2,,,,,,,,,6,,,73,0
6648,note_on,2,0,2,,,,,,,,,6,,,74,108
6670,note_on,22,0,2,,,,,,,,,6,,,74,0
6672,note_on,2,0,2,,,,,,,,,6,,,73,108
6694,note_on,22,0,2,,,,,,,,,6,,,73,0
6696,note_on,2,0,2,,,,,,,,,6,,,74,108
6718,note_on,94,0,4,,,,,,,,,7,,,54,0
6718,note_on,94,0,3,,,,,,,,,5,,,58,0
6718,note_on,22,0,2,,,,,,,,,6,,,74,0
6720,note_on,2,0,4,,,,,,,,,7,,,42,108
6720,note_on,0,0,3,,,,,,,,,5,,,70,108
6720,note_on,2,0,3,,,,,,,,,5,,,66,108
6720,note_on,2,0,2,,,,,,,,,6,,,73,108
6814,note_on,94,0,2,,,,,,,,,6,,,73,0
6814,note_on,94,0,4,,,,,,,,,7,,,42,0
6814,note_on,94,0,3,,,,,,,,,5,,,66,0
6814,note_on,0,0,3,,,,,,,,,5,,,70,0
6816,note_on,2,0,4,,,,,,,,,7,,,59,108
6816,note_on,2,0,3,,,,,,,,,5,,,71,108
6816,note_on,2,0,2,,,,,,,,,6,,,71,108
6910,note_on,94,0,4,,,,,,,,,7,,,59,0
6910,note_on,94,0,2,,,,,,,,,6,,,71,0
6910,note_on,94,0,3,,,,,,,,,5,,,71,0
6912,note_on,2,0,3,,,,,,,,,5,,,69,108
6912,note_on,2,0,2,,,,,,,,,6,,,69,108
6912,note_on,2,0,4,,,,,,,,,7,,,57,108
7006,note_on,94,0,3,,,,,,,,,5,,,69,0
7006,note_on,94,0,2,,,,,,,,,6,,,69,0
7006,note_on,94,0,4,,,,,,,,,7,,,57,0
7008,note_on,2,0,4,,,,,,,,,7,,,55,108
7008,note_on,2,0,3,,,,,,,,,5,,,67,108
7008,note_on,2,0,2,,,,,,,,,6,,,67,108
7102,note_on,94,0,2,,,,,,,,,6,,,67,0
7102,note_on,94,0,4,,,,,,,,,7,,,55,0
7102,note_on,94,0,3,,,,,,,,,5,,,67,0
7104,note_on,2,0,4,,,,,,,,,7,,,54,108
7104,note_on,2,0,2,,,,,,,,,6,,,66,108
7104,note_on,2,0,3,,,,,,,,,5,,,66,108
7198,note_on,94,0,2,,,,,,,,,6,,,66,0
7198,note_on,94,0,3,,,,,,,,,5,,,66,0
7198,note_on,94,0,4,,,,,,,,,7,,,54,0
7200,note_on,2,0,4,,,,,,,,,7,,,52,108
7200,note_on,2,0,3,,,,,,,,,5,,,64,108
7200,note_on,2,0,2,,,,,,,,,6,,,64,108
7294,note_on,94,0,4,,,,,,,,,7,,,52,0
7294,note_on,94,0,3,,,,,,,,,5,,,64,0
7294,note_on,94,0,2,,,,,,,,,6,,,64,0
7296,note_on,2,0,2,,,,,,,,,6,,,62,108
7296,note_on,2,0,3,,,,,,,,,5,,,62,108
7296,note_on,2,0,4,,,,,,,,,7,,,50,108
7390,note_on,94,0,2,,,,,,,,,6,,,62,0
7390,note_on,94,0,4,,,,,,,,,7,,,50,0
7390,note_on,94,0,3,,,,,,,,,5,,,62,0
7392,note_on,2,0,2,,,,,,,,,6,,,67,108
7392,note_on,2,0,3,,,,,,,,,5,,,67,108
7392,note_on,2,0,4,,,,,,,,,7,,,55,108
7486,note_on,94,0,2,,,,,,,,,6,,,67,0
7486,note_on,94,0,3,,,,,,,,,5,,,67,0
7486,note_on,94,0,4,,,,,,,,,7,,,55,0
7488,note_on,2,0,2,,,,,,,,,6,,,66,108
7488,note_on,2,0,3,,,,,,,,,5,,,66,108
7488,note_on,2,0,4,,,,,,,,,7,,,54,108
7582,note_on,94,0,2,,,,,,,,,6,,,66,0
7582,note_on,94,0,4,,,,,,,,,7,,,54,0
7582,note_on,94,0,3,,,,,,,,,5,,,66,0
7584,note_on,2,0,4,,,,,,,,,7,,,52,108
7584,note_on,2,0,2,,,,,,,,,6,,,64,108
7584,note_on,2,0,3,,,,,,,,,5,,,64,108
7678,note_on,94,0,4,,,,,,,,,7,,,52,0
7678,note_on,94,0,3,,,,,,,,,5,,,64,0
7678,note_on,94,0,2,,,,,,,,,6,,,64,0
7680,note_on,2,0,2,,,,,,,,,6,,,62,108
7680,note_on,2,0,4,,,,,,,,,7,,,50,108
7680,note_on,2,0,3,,,,,,,,,5,,,62,108
7774,note_on,94,0,4,,,,,,,,,7,,,50,0
7774,note_on,94,0,2,,,,,,,,,6,,,62,0
7774,note_on,94,0,3,,,,,,,,,5,,,62,0
7776,note_on,2,0,3,,,,,,,,,5,,,61,108
7776,note_on,2,0,4,,,,,,,,,7,,,49,108
7776,note_on,2,0,2,,,,,,,,,6,,,61,108
7870,note_on,94,0,3,,,,,,,,,5,,,61,0
7870,note_on,94,0,2,,,,,,,,,6,,,61,0
7870,note_on,94,0,4,,,,,,,,,7,,,49,0
7872,note_on,2,0,4,,,,,,,,,7,,,47,108
7872,note_on,2,0,2,,,,,,,,,6,,,59,108
7872,note_on,2,0,3,,,,,,,,,5,,,59,108
7966,note_on,94,0,4,,,,,,,,,7,,,47,0
7966,note_on,94,0,3,,,,,,,,,5,,,59,0
7966,note_on,94,0,2,,,,,,,,,6,,,59,0
7968,note_on,2,0,3,,,,,,,,,5,,,62,108
7968,note_on,2,0,2,,,,,,,,,6,,,62,108
7968,note_on,2,0,4,,,,,,,,,7,,,50,108
8014,note_on,46,0,2,,,,,,,,,6,,,62,0
8014,note_on,46,0,4,,,,,,,,,7,,,50,0
8014,note_on,46,0,3,,,,,,,,,5,,,62,0
8016,note_on,2,0,3,,,,,,,,,5,,,64,108
8016,note_on,2,0,4,,,,,,,,,7,,,52,108
8016,note_on,2,0,2,,,,,,,,,6,,,64,108
8062,note_on,46,0,4,,,,,,,,,7,,,52,0
8062,note_on,46,0,2,,,,,,,,,6,,,64,0
8062,note_on,46,0,3,,,,,,,,,5,,,64,0
8064,note_on,2,0,4,,,,,,,,,7,,,54,108
8064,note_on,2,0,2,,,,,,,,,6,,,66,108
8064,note_on,2,0,3,,,,,,,,,5,,,66,108
8158,note_on,94,0,2,,,,,,,,,6,,,66,0
8158,note_on,94,0,4,,,,,,,,,7,,,54,0
8158,note_on,94,0,3,,,,,,,,,5,,,66,0
8160,note_on,2,0,4,,,,,,,,,7,,,42,108
8160,note_on,2,0,3,,,,,,,,,5,,,66,108
8160,note_on,2,0,2,,,,,,,,,6,,,66,108
8254,note_on,94,0,4,,,,,,,,,7,,,42,0
8254,note_on,94,0,3,,,,,,,,,5,,,66,0
8254,note_on,94,0,2,,,,,,,,,6,,,66,0
8256,note_on,2,0,2,,,,,,,,,6,,,59,108
8256,note_on,2,0,3,,,,,,,,,5,,,59,108
8256,note_on,2,0,4,,,,,,,,,7,,,47,108
8416,note_on,160,0,2,,,,,,,,,6,,,59,0
8416,note_on,160,0,4,,,,,,,,,7,,,47,0
8416,note_on,160,0,3,,,,,,,,,5,,,59,0
8448,note_on,8448,0,1,,,,,,,,,1,,,71,108
8542,note_on,94,0,1,,,,,,,,,1,,,71,0
8544,note_on,2,0,1,,,,,,,,,1,,,66,108
8832,note_on,416,0,3,,,,,,,,,5,,,62,92
8832,note_on,416,0,2,,,,,,,,,6,,,62,92
8832,note_on,416,0,4,,,,,,,,,7,,,59,92
8878,note_on,46,0,3,,,,,,,,,5,,,62,0
8878,note_on,46,0,2,,,,,,,,,6,,,62,0
8878,note_on,46,0,4,,,,,,,,,7,,,59,0
8880,note_on,2,0,2,,,,,,,,,6,,,64,92
8880,note_on,2,0,3,,,,,,,,,5,,,64,92
8880,note_on,2,0,4,,,,,,,,,7,,,61,92
8926,note_on,46,0,4,,,,,,,,,7,,,61,0
8926,note_on,46,0,2,,,,,,,,,6,,,64,0
8926,note_on,46,0,3,,,,,,,,,5,,,64,0
8928,note_on,2,0,3,,,,,,,,,5,,,66,92
8928,note_on,2,0,2,,,,,,,,,6,,,66,92
8928,note_on,2,0,4,,,,,,,,,7,,,62,92
9022,note_on,94,0,3,,,,,,,,,5,,,66,0
9022,note_on,94,0,2,,,,,,,,,6,,,66,0
9022,note_on,94,0,4,,,,,,,,,7,,,62,0
9024,note_on,2,0,3,,,,,,,,,5,,,64,92
9024,note_on,2,0,2,,,,,,,,,6,,,64,92
9024,note_on,2,0,4,,,,,,,,,7,,,61,92
9118,note_on,94,0,3,,,,,,,,,5,,,64,0
9118,note_on,94,0,2,,,,,,,,,6,,,64,0
9118,note_on,94,0,4,,,,,,,,,7,,,61,0
9120,note_on,2,0,2,,,,,,,,,6,,,62,92
9120,note_on,2,0,4,,,,,,,,,7,,,59,92
9120,note_on,2,0,3,,,,,,,,,5,,,62,92
9166,note_on,46,0,4,,,,,,,,,7,,,59,0
9166,note_on,46,0,3,,,,,,,,,5,,,62,0
9166,note_on,46,0,2,,,,,,,,,6,,,62,0
9168,note_on,2,0,4,,,,,,,,,7,,,61,92
9168,note_on,2,0,3,,,,,,,,,5,,,64,92
9168,note_on,2,0,2,,,,,,,,,6,,,64,92
9214,note_on,46,0,4,,,,,,,,,7,,,61,0
9214,note_on,46,0,2,,,,,,,,,6,,,64,0
9214,note_on,46,0,3,,,,,,,,,5,,,64,0
9216,note_on,2,0,4,,,,,,,,,7,,,62,92
9216,note_on,2,0,2,,,,,,,,,6,,,66,92
9216,note_on,2,0,3,,,,,,,,,5,,,66,92
9310,note_on,94,0,4,,,,,,,,,7,,,62,0
9310,note_on,94,0,3,,,,,,,,,5,,,66,0
9310,note_on,94,0,2,,,,,,,,,6,,,66,0
9312,note_on,2,0,2,,,,,,,,,6,,,64,92
9312,note_on,2,0,3,,,,,,,,,5,,,64,92
9312,note_on,2,0,4,,,,,,,,,7,,,61,92
9376,note_on,832,0,1,,,,,,,,,1,,,66,0
9406,note_on,94,0,2,,,,,,,,,6,,,64,0
9406,note_on,94,0,4,,,,,,,,,7,,,61,0
9406,note_on,94,0,3,,,,,,,,,5,,,64,0
9408,note_on,2,0,3,,,,,,,,,5,,,62,92
9408,note_on,32,0,1,,,,,,,,,1,,,66,108
9408,note_on,2,0,4,,,,,,,,,7,,,59,92
9408,note_on,2,0,2,,,,,,,,,6,,,62,92
9454,note_on,46,0,2,,,,,,,,,6,,,62,0
9454,note_on,46,0,4,,,,,,,,,7,,,59,0
9454,note_on,46,0,3,,,,,,,,,5,,,62,0
9456,note_on,2,0,2,,,,,,,,,6,,,64,92
9456,note_on,2,0,4,,,,,,,,,7,,,61,92
9456,note_on,2,0,3,,,,,,,,,5,,,64,92
9502,note_on,46,0,3,,,,,,,,,5,,,64,0
9502,note_on,46,0,4,,,,,,,,,7,,,61,0
9502,note_on,46,0,2,,,,,,,,,6,,,64,0
9504,note_on,2,0,3,,,,,,,,,5,,,66,92
9504,note_on,2,0,2,,,,,,,,,6,,,66,92
9504,note_on,2,0,4,,,,,,,,,7,,,62,92
9568,note_on,160,0,1,,,,,,,,,1,,,66,0
9598,note_on,94,0,3,,,,,,,,,5,,,66,0
9598,note_on,94,0,2,,,,,,,,,6,,,66,0
9598,note_on,94,0,4,,,,,,,,,7,,,62,0
9600,note_on,2,0,4,,,,,,,,,7,,,61,92
9600,note_on,32,0,1,,,,,,,,,1,,,66,108
9600,note_on,2,0,3,,,,,,,,,5,,,64,92
9600,note_on,2,0,2,,,,,,,,,6,,,64,92
9694,note_on,94,0,2,,,,,,,,,6,,,64,0
9694,note_on,94,0,1,,,,,,,,,1,,,66,0
9694,note_on,94,0,3,,,,,,,,,5,,,64,0
9694,note_on,94,0,4,,,,,,,,,7,,,61,0
9696,note_on,2,0,1,,,,,,,,,1,,,71,108
9696,note_on,2,0,3,,,,,,,,,5,,,59,92
9696,note_on,2,0,4,,,,,,,,,7,,,47,92
9696,note_on,2,0,2,,,,,,,,,6,,,62,92
9744,note_on,48,0,1,,,,,,,,,1,,,71,0
9744,note_on,0,0,1,,,,,,,,,1,,,73,108
9792,note_on,48,0,1,,,,,,,,,1,,,73,0
9792,note_on,0,0,1,,,,,,,,,1,,,74,108
9856,note_on,160,0,2,,,,,,,,,6,,,62,0
9856,note_on,160,0,3,,,,,,,,,5,,,59,0
9856,note_on,160,0,4,,,,,,,,,7,,,47,0
9888,note_on,32,0,2,,,,,,,,,6,,,73,92
9888,note_on,0,0,1,,,,,,,,,1,,,73,108
9888,note_on,32,0,3,,,,,,,,,5,,,66,92
9888,note_on,96,0,1,,,,,,,,,1,,,74,0
9888,note_on,32,0,4,,,,,,,,,7,,,46,92
9982,note_on,94,0,2,,,,,,,,,6,,,73,0
9982,note_on,94,0,4,,,,,,,,,7,,,46,0
9984,note_on,2,0,4,,,,,,,,,7,,,47,92
9984,note_on,0,0,1,,,,,,,,,1,,,71,108
9984,note_on,2,0,2,,,,,,,,,6,,,74,92
9984,note_on,96,0,1,,,,,,,,,1,,,73,0
10078,note_on,94,0,4,,,,,,,,,7,,,47,0
10078,note_on,94,0,2,,,,,,,,,6,,,74,0
10078,note_on,190,0,3,,,,,,,,,5,,,66,0
10080,note_on,0,0,1,,,,,,,,,1,,,69,108
10080,note_on,2,0,4,,,,,,,,,7,,,49,92
10080,note_on,96,0,1,,,,,,,,,1,,,71,0
10080,note_on,2,0,3,,,,,,,,,5,,,64,92
10080,note_on,2,0,2,,,,,,,,,6,,,69,92
10174,note_on,94,0,3,,,,,,,,,5,,,64,0
10176,note_on,0,0,1,,,,,,,,,1,,,67,108
10176,note_on,96,0,1,,,,,,,,,1,,,69,0
10176,note_on,2,0,3,,,,,,,,,5,,,67,92
10240,note_on,160,0,4,,,,,,,,,7,,,49,0
10240,note_on,160,0,2,,,,,,,,,6,,,69,0
10270,note_on,94,0,3,,,,,,,,,5,,,67,0
10272,note_on,96,0,1,,,,,,,,,1,,,67,0
10272,note_on,32,0,4,,,,,,,,,7,,,50,92
10272,note_on,0,0,1,,,,,,,,,1,,,66,108
10272,note_on,2,0,3,,,,,,,,,5,,,66,92
10272,note_on,32,0,2,,,,,,,,,6,,,69,92
10318,note_on,46,0,4,,,,,,,,,7,,,50,0
10320,note_on,2,0,4,,,,,,,,,7,,,49,92
10366,note_on,46,0,4,,,,,,,,,7,,,49,0
10366,note_on,94,0,1,,,,,,,,,1,,,66,0
10366,note_on,94,0,2,,,,,,,,,6,,,69,0
10368,note_on,2,0,4,,,,,,,,,7,,,47,92
10368,note_on,2,0,1,,,,,,,,,1,,,71,108
10368,note_on,2,0,2,,,,,,,,,6,,,74,92
10432,note_on,160,0,3,,,,,,,,,5,,,66,0
10462,note_on,94,0,2,,,,,,,,,6,,,74,0
10462,note_on,94,0,4,,,,,,,,,7,,,47,0
10462,note_on,94,0,1,,,,,,,,,1,,,71,0
10464,note_on,2,0,4,,,,,,,,,7,,,46,92
10464,note_on,2,0,2,,,,,,,,,6,,,78,92
10464,note_on,2,0,1,,,,,,,,,1,,,73,108
10464,note_on,32,0,3,,,,,,,,,5,,,66,92
10464,note_on,0,0,3,,,,,,,,,5,,,73,92
10558,note_on,94,0,3,,,,,,,,,5,,,66,0
10558,note_on,0,0,3,,,,,,,,,5,,,73,0
10558,note_on,94,0,2,,,,,,,,,6,,,78,0
10558,note_on,94,0,4,,,,,,,,,7,,,46,0
10558,note_on,94,0,1,,,,,,,,,1,,,73,0
10560,note_on,2,0,1,,,,,,,,,1,,,74,108
10560,note_on,2,0,2,,,,,,,,,6,,,74,92
10560,note_on,2,0,4,,,,,,,,,7,,,47,92
10560,note_on,2,0,3,,,,,,,,,5,,,66,92
10654,note_on,94,0,3,,,,,,,,,5,,,66,0
10654,note_on,94,0,2,,,,,,,,,6,,,74,0
10656,note_on,2,0,3,,,,,,,,,5,,,64,92
10656,note_on,96,0,1,,,,,,,,,1,,,74,0
10656,note_on,2,0,2,,,,,,,,,6,,,73,92
10656,note_on,0,0,1,,,,,,,,,1,,,73,108
10750,note_on,94,0,1,,,,,,,,,1,,,73,0
10750,note_on,94,0,3,,,,,,,,,5,,,64,0
10750,note_on,94,0,2,,,,,,,,,6,,,73,0
10752,note_on,2,0,3,,,,,,,,,5,,,62,92
10752,note_on,2,0,1,,,,,,,,,1,,,71,108
10752,note_on,2,0,2,,,,,,,,,6,,,71,92
10816,note_on,256,0,4,,,,,,,,,7,,,47,0
10846,note_on,94,0,2,,,,,,,,,6,,,71,0
10846,note_on,94,0,3,,,,,,,,,5,,,62,0
10846,note_on,94,0,1,,,,,,,,,1,,,71,0
10848,note_on,2,0,3,,,,,,,,,5,,,62,92
10848,note_on,2,0,2,,,,,,,,,6,,,62,92
10848,note_on,32,0,4,,,,,,,,,7,,,47,92
10894,note_on,46,0,3,,,,,,,,,5,,,62,0
10894,note_on,46,0,4,,,,,,,,,7,,,47,0
10894,note_on,46,0,2,,,,,,,,,6,,,62,0
10896,note_on,2,0,2,,,,,,,,,6,,,64,92
10896,note_on,2,0,3,,,,,,,,,5,,,64,92
10896,note_on,2,0,4,,,,,,,,,7,,,49,92
10942,note_on,46,0,3,,,,,,,,,5,,,64,0
10942,note_on,46,0,4,,,,,,,,,7,,,49,0
10942,note_on,46,0,2,,,,,,,,,6,,,64,0
10944,note_on,2,0,2,,,,,,,,,6,,,66,92
10944,note_on,2,0,3,,,,,,,,,5,,,66,92
10944,note_on,2,0,4,,,,,,,,,7,,,50,92
11038,note_on,94,0,4,,,,,,,,,7,,,50,0
11038,note_on,94,0,2,,,,,,,,,6,,,66,0
11038,note_on,94,0,3,,,,,,,,,5,,,66,0
11040,note_on,2,0,4,,,,,,,,,7,,,49,92
11040,note_on,2,0,2,,,,,,,,,6,,,64,92
11040,note_on,2,0,3,,,,,,,,,5,,,64,92
11134,note_on,94,0,3,,,,,,,,,5,,,64,0
11134,note_on,94,0,4,,,,,,,,,7,,,49,0
11134,note_on,94,0,2,,,,,,,,,6,,,64,0
11136,note_on,2,0,3,,,,,,,,,5,,,62,92
11136,note_on,2,0,2,,,,,,,,,6,,,62,92
11136,note_on,2,0,4,,,,,,,,,7,,,47,92
11182,note_on,46,0,3,,,,,,,,,5,,,62,0
11182,note_on,46,0,4,,,,,,,,,7,,,47,0
11182,note_on,46,0,2,,,,,,,,,6,,,62,0
11184,note_on,2,0,3,,,,,,,,,5,,,64,92
11184,note_on,2,0,4,,,,,,,,,7,,,49,92
11184,note_on,2,0,2,,,,,,,,,6,,,64,92
11230,note_on,46,0,4,,,,,,,,,7,,,49,0
11230,note_on,46,0,2,,,,,,,,,6,,,64,0
11230,note_on,46,0,3,,,,,,,,,5,,,64,0
11232,note_on,2,0,4,,,,,,,,,7,,,50,92
11232,note_on,2,0,3,,,,,,,,,5,,,66,92
11232,note_on,2,0,2,,,,,,,,,6,,,66,92
11326,note_on,94,0,2,,,,,,,,,6,,,66,0
11326,note_on,94,0,3,,,,,,,,,5,,,66,0
11326,note_on,94,0,4,,,,,,,,,7,,,50,0
11328,note_on,2,0,2,,,,,,,,,6,,,64,92
11328,note_on,2,0,3,,,,,,,,,5,,,64,92
11328,note_on,2,0,4,,,,,,,,,7,,,49,92
11422,note_on,94,0,2,,,,,,,,,6,,,64,0
11422,note_on,94,0,3,,,,,,,,,5,,,64,0
11422,note_on,94,0,4,,,,,,,,,7,,,49,0
11424,note_on,2,0,2,,,,,,,,,6,,,62,92
11424,note_on,578,0,1,,,,,,,,,1,,,66,92
11424,note_on,2,0,4,,,,,,,,,7,,,47,92
11424,note_on,2,0,3,,,,,,,,,5,,,62,92
11584,note_on,160,0,2,,,,,,,,,6,,,62,0
11584,note_on,160,0,3,,,,,,,,,5,,,62,0
11584,note_on,160,0,4,,,,,,,,,7,,,47,0
11584,note_on,160,0,1,,,,,,,,,1,,,66,0
11616,note_on,32,0,1,,,,,,,,,1,,,66,92
11710,note_on,94,0,1,,,,,,,,,1,,,66,0
11712,note_on,128,0,2,,,,,,,,,6,,,67,92
11712,note_on,2,0,1,,,,,,,,,1,,,67,92
11712,note_on,128,0,3,,,,,,,,,5,,,64,92
11758,note_on,46,0,2,,,,,,,,,6,,,67,0
11758,note_on,46,0,3,,,,,,,,,5,,,64,0
11760,note_on,2,0,3,,,,,,,,,5,,,66,92
11760,note_on,2,0,2,,,,,,,,,6,,,69,92
11806,note_on,46,0,3,,,,,,,,,5,,,66,0
11806,note_on,46,0,2,,,,,,,,,6,,,69,0
11808,note_on,2,0,3,,,,,,,,,5,,,67,92
11808,note_on,2,0,2,,,,,,,,,6,,,71,92
11902,note_on,94,0,3,,,,,,,,,5,,,67,0
11902,note_on,94,0,2,,,,,,,,,6,,,71,0
11904,note_on,2,0,2,,,,,,,,,6,,,69,92
11904,note_on,2,0,3,,,,,,,,,5,,,66,92
11998,note_on,94,0,2,,,,,,,,,6,,,69,0
11998,note_on,94,0,3,,,,,,,,,5,,,66,0
12000,note_on,2,0,2,,,,,,,,,6,,,67,92
12000,note_on,2,0,3,,,,,,,,,5,,,64,92
12046,note_on,46,0,3,,,,,,,,,5,,,64,0
12046,note_on,46,0,2,,,,,,,,,6,,,67,0
12048,note_on,2,0,3,,,,,,,,,5,,,66,92
12048,note_on,2,0,2,,,,,,,,,6,,,69,92
12094,note_on,46,0,3,,,,,,,,,5,,,66,0
12094,note_on,46,0,2,,,,,,,,,6,,,69,0
12096,note_on,2,0,3,,,,,,,,,5,,,67,92
12096,note_on,2,0,2,,,,,,,,,6,,,71,92
12190,note_on,94,0,2,,,,,,,,,6,,,71,0
12190,note_on,94,0,3,,,,,,,,,5,,,67,0
12192,note_on,2,0,2,,,,,,,,,6,,,67,92
12192,note_on,2,0,3,,,,,,,,,5,,,66,92
12286,note_on,94,0,2,,,,,,,,,6,,,67,0
12286,note_on,94,0,3,,,,,,,,,5,,,66,0
12288,note_on,2,0,2,,,,,,,,,6,,,73,92
12288,note_on,704,0,4,,,,,,,,,7,,,45,92
12288,note_on,2,0,3,,,,,,,,,5,,,67,92
12336,note_on,624,0,1,,,,,,,,,1,,,67,0
12336,note_on,0,0,1,,,,,,,,,1,,,69,92
12384,note_on,48,0,1,,,,,,,,,1,,,69,0
12384,note_on,0,0,1,,,,,,,,,1,,,71,92
12448,note_on,160,0,3,,,,,,,,,5,,,67,0
12448,note_on,160,0,2,,,,,,,,,6,,,73,0
12448,note_on,160,0,4,,,,,,,,,7,,,45,0
12480,note_on,96,0,1,,,,,,,,,1,,,71,0
12480,note_on,0,0,1,,,,,,,,,1,,,69,92
12576,note_on,96,0,1,,,,,,,,,1,,,69,0
12576,note_on,0,0,1,,,,,,,,,1,,,67,92
12576,note_on,128,0,3,,,,,,,,,5,,,61,92
12576,note_on,128,0,4,,,,,,,,,7,,,45,92
12576,note_on,128,0,2,,,,,,,,,6,,,67,92
12624,note_on,0,0,1,,,,,,,,,1,,,69,92
12624,note_on,48,0,1,,,,,,,,,1,,,67,0
12672,note_on,48,0,1,,,,,,,,,1,,,69,0
12672,note_on,0,0,1,,,,,,,,,1,,,71,92
12736,note_on,160,0,4,,,,,,,,,7,,,45,0
12736,note_on,160,0,2,,,,,,,,,6,,,67,0
12736,note_on,160,0,3,,,,,,,,,5,,,61,0
12768,note_on,0,0,1,,,,,,,,,1,,,67,92
12768,note_on,96,0,1,,,,,,,,,1,,,71,0
12864,note_on,128,0,4,,,,,,,,,7,,,50,92
12864,note_on,0,0,1,,,,,,,,,1,,,66,92
12864,note_on,96,0,1,,,,,,,,,1,,,67,0
12864,note_on,128,0,2,,,,,,,,,6,,,66,92
12864,note_on,128,0,3,,,,,,,,,5,,,62,92
12910,note_on,46,0,3,,,,,,,,,5,,,62,0
12910,note_on,46,0,2,,,,,,,,,6,,,66,0
12912,note_on,2,0,3,,,,,,,,,5,,,64,92
12912,note_on,2,0,2,,,,,,,,,6,,,67,92
12958,note_on,46,0,3,,,,,,,,,5,,,64,0
12958,note_on,46,0,2,,,,,,,,,6,,,67,0
12960,note_on,2,0,3,,,,,,,,,5,,,66,92
12960,note_on,2,0,2,,,,,,,,,6,,,69,92
13024,note_on,160,0,4,,,,,,,,,7,,,50,0
13054,note_on,94,0,2,,,,,,,,,6,,,69,0
13054,note_on,94,0,3,,,,,,,,,5,,,66,0
13056,note_on,2,0,2,,,,,,,,,6,,,67,92
13056,note_on,2,0,3,,,,,,,,,5,,,64,92
13150,note_on,94,0,2,,,,,,,,,6,,,67,0
13150,note_on,94,0,3,,,,,,,,,5,,,64,0
13152,note_on,2,0,2,,,,,,,,,6,,,66,92
13152,note_on,2,0,3,,,,,,,,,5,,,62,92
13198,note_on,46,0,3,,,,,,,,,5,,,62,0
13198,note_on,46,0,2,,,,,,,,,6,,,66,0
13200,note_on,2,0,2,,,,,,,,,6,,,67,92
13200,note_on,2,0,3,,,,,,,,,5,,,64,92
13246,note_on,46,0,2,,,,,,,,,6,,,67,0
13246,note_on,46,0,3,,,,,,,,,5,,,64,0
13248,note_on,2,0,3,,,,,,,,,5,,,66,92
13248,note_on,2,0,2,,,,,,,,,6,,,69,92
13342,note_on,94,0,3,,,,,,,,,5,,,66,0
13342,note_on,94,0,2,,,,,,,,,6,,,69,0
13344,note_on,2,0,3,,,,,,,,,5,,,62,92
13344,note_on,2,0,2,,,,,,,,,6,,,66,92
13438,note_on,94,0,3,,,,,,,,,5,,,62,0
13438,note_on,94,0,2,,,,,,,,,6,,,66,0
13440,note_on,2,0,2,,,,,,,,,6,,,71,92
13440,note_on,2,0,3,,,,,,,,,5,,,55,92
13440,note_on,0,0,3,,,,,,,,,5,,,66,92
13440,note_on,416,0,4,,,,,,,,,7,,,43,92
13488,note_on,0,0,1,,,,,,,,,1,,,67,92
13488,note_on,624,0,1,,,,,,,,,1,,,66,0
13536,note_on,48,0,1,,,,,,,,,1,,,67,0
13536,note_on,0,0,1,,,,,,,,,1,,,69,92
13600,note_on,0,0,3,,,,,,,,,5,,,66,0
13600,note_on,160,0,3,,,,,,,,,5,,,55,0
13600,note_on,160,0,4,,,,,,,,,7,,,43,0
13600,note_on,160,0,2,,,,,,,,,6,,,71,0
13632,note_on,96,0,1,,,,,,,,,1,,,69,0
13632,note_on,0,0,1,,,,,,,,,1,,,67,92
13728,note_on,96,0,1,,,,,,,,,1,,,67,0
13728,note_on,128,0,3,,,,,,,,,5,,,59,92
13728,note_on,128,0,4,,,,,,,,,7,,,55,92
13728,note_on,128,0,2,,,,,,,,,6,,,66,92
13728,note_on,0,0,1,,,,,,,,,1,,,66,92
13776,note_on,48,0,1,,,,,,,,,1,,,66,0
13776,note_on,0,0,1,,,,,,,,,1,,,67,92
13824,note_on,0,0,1,,,,,,,,,1,,,69,92
13824,note_on,48,0,1,,,,,,,,,1,,,67,0
13888,note_on,160,0,3,,,,,,,,,5,,,59,0
13888,note_on,160,0,2,,,,,,,,,6,,,66,0
13888,note_on,160,0,4,,,,,,,,,7,,,55,0
13920,note_on,0,0,1,,,,,,,,,1,,,66,92
13920,note_on,96,0,1,,,,,,,,,1,,,69,0
14016,note_on,0,0,1,,,,,,,,,1,,,64,92
14016,note_on,96,0,1,,,,,,,,,1,,,66,0
14016,note_on,128,0,3,,,,,,,,,5,,,64,92
14016,note_on,128,0,2,,,,,,,,,6,,,67,92
14016,note_on,128,0,4,,,,,,,,,7,,,55,92
14062,note_on,46,0,3,,,,,,,,,5,,,64,0
14062,note_on,46,0,2,,,,,,,,,6,,,67,0
14064,note_on,2,0,2,,,,,,,,,6,,,69,92
14064,note_on,2,0,3,,,,,,,,,5,,,66,92
14110,note_on,46,0,3,,,,,,,,,5,,,66,0
14110,note_on,46,0,2,,,,,,,,,6,,,69,0
14112,note_on,2,0,2,,,,,,,,,6,,,71,92
14112,note_on,2,0,3,,,,,,,,,5,,,67,92
14176,note_on,160,0,4,,,,,,,,,7,,,55,0
14206,note_on,94,0,3,,,,,,,,,5,,,67,0
14206,note_on,94,0,2,,,,,,,,,6,,,71,0
14208,note_on,2,0,3,,,,,,,,,5,,,66,92
14208,note_on,2,0,2,,,,,,,,,6,,,69,92
14302,note_on,94,0,3,,,,,,,,,5,,,66,0
14302,note_on,94,0,2,,,,,,,,,6,,,69,0
14304,note_on,2,0,3,,,,,,,,,5,,,64,92
14304,note_on,2,0,2,,,,,,,,,6,,,67,92
14350,note_on,46,0,3,,,,,,,,,5,,,64,0
14350,note_on,46,0,2,,,,,,,,,6,,,67,0
14352,note_on,2,0,2,,,,,,,,,6,,,69,92
14352,note_on,2,0,3,,,,,,,,,5,,,66,92
14398,note_on,46,0,2,,,,,,,,,6,,,69,0
14398,note_on,46,0,3,,,,,,,,,5,,,66,0
14400,note_on,2,0,2,,,,,,,,,6,,,71,92
14400,note_on,2,0,3,,,,,,,,,5,,,67,92
14494,note_on,94,0,3,,,,,,,,,5,,,67,0
14494,note_on,94,0,2,,,,,,,,,6,,,71,0
14496,note_on,2,0,2,,,,,,,,,6,,,67,92
14496,note_on,2,0,3,,,,,,,,,5,,,66,92
14590,note_on,94,0,3,,,,,,,,,5,,,66,0
14590,note_on,94,0,2,,,,,,,,,6,,,67,0
14592,note_on,416,0,4,,,,,,,,,7,,,54,92
14592,note_on,2,0,3,,,,,,,,,5,,,58,92
14592,note_on,0,0,3,,,,,,,,,5,,,64,92
14592,note_on,2,0,2,,,,,,,,,6,,,73,92
14640,note_on,0,0,1,,,,,,,,,1,,,66,92
14640,note_on,624,0,1,,,,,,,,,1,,,64,0
14688,note_on,0,0,1,,,,,,,,,1,,,67,92
14688,note_on,48,0,1,,,,,,,,,1,,,66,0
14752,note_on,160,0,3,,,,,,,,,5,,,58,0
14752,note_on,0,0,3,,,,,,,,,5,,,64,0
14752,note_on,160,0,4,,,,,,,,,7,,,54,0
14752,note_on,160,0,2,,,,,,,,,6,,,73,0
14784,note_on,96,0,1,,,,,,,,,1,,,67,0
14784,note_on,0,0,1,,,,,,,,,1,,,66,92
14880,note_on,128,0,3,,,,,,,,,5,,,64,92
14880,note_on,128,0,2,,,,,,,,,6,,,70,92
14880,note_on,96,0,1,,,,,,,,,1,,,66,0
14880,note_on,128,0,4,,,,,,,,,7,,,54,92
14880,note_on,0,0,1,,,,,,,,,1,,,64,92
14928,note_on,48,0,1,,,,,,,,,1,,,64,0
14928,note_on,0,0,1,,,,,,,,,1,,,66,92
14976,note_on,48,0,1,,,,,,,,,1,,,66,0
14976,note_on,0,0,1,,,,,,,,,1,,,67,92
15040,note_on,160,0,3,,,,,,,,,5,,,64,0
15040,note_on,160,0,4,,,,,,,,,7,,,54,0
15040,note_on,160,0,2,,,,,,,,,6,,,70,0
15072,note_on,96,0,1,,,,,,,,,1,,,67,0
15072,note_on,0,0,1,,,,,,,,,1,,,64,92
15168,note_on,128,0,2,,,,,,,,,6,,,71,92
15168,note_on,128,0,4,,,,,,,,,7,,,47,92
15168,note_on,128,0,3,,,,,,,,,5,,,62,92
15168,note_on,96,0,1,,,,,,,,,1,,,64,0
15168,note_on,0,0,1,,,,,,,,,1,,,62,92
15168,note_on,0,0,3,,,,,,,,,5,,,66,92
15264,note_on,96,0,1,,,,,,,,,1,,,62,0
15264,note_on,0,0,1,,,,,,,,,1,,,61,92
15328,note_on,0,0,3,,,,,,,,,5,,,66,0
15328,note_on,160,0,4,,,,,,,,,7,,,47,0
15328,note_on,160,0,3,,,,,,,,,5,,,62,0
15328,note_on,160,0,2,,,,,,,,,6,,,71,0
15358,note_on,94,0,1,,,,,,,,,1,,,61,0
15360,note_on,2,0,1,,,,,,,,,1,,,62,92
15454,note_on,94,0,1,,,,,,,,,1,,,62,0
15456,note_on,128,0,4,,,,,,,,,7,,,47,92
15456,note_on,128,0,2,,,,,,,,,6,,,62,92
15456,note_on,128,0,3,,,,,,,,,5,,,62,92
15502,note_on,46,0,2,,,,,,,,,6,,,62,0
15502,note_on,46,0,4,,,,,,,,,7,,,47,0
15502,note_on,46,0,3,,,,,,,,,5,,,62,0
15504,note_on,2,0,2,,,,,,,,,6,,,64,92
15504,note_on,2,0,4,,,,,,,,,7,,,49,92
15504,note_on,2,0,3,,,,,,,,,5,,,64,92
15550,note_on,46,0,2,,,,,,,,,6,,,64,0
15550,note_on,46,0,4,,,,,,,,,7,,,49,0
15550,note_on,46,0,3,,,,,,,,,5,,,64,0
15552,note_on,2,0,2,,,,,,,,,6,,,66,92
15552,note_on,2,0,4,,,,,,,,,7,,,50,92
15552,note_on,2,0,3,,,,,,,,,5,,,66,92
15646,note_on,94,0,3,,,,,,,,,5,,,66,0
15646,note_on,94,0,4,,,,,,,,,7,,,50,0
15646,note_on,94,0,2,,,,,,,,,6,,,66,0
15648,note_on,2,0,2,,,,,,,,,6,,,64,92
15648,note_on,2,0,4,,,,,,,,,7,,,49,92
15648,note_on,2,0,3,,,,,,,,,5,,,64,92
15742,note_on,94,0,2,,,,,,,,,6,,,64,0
15742,note_on,94,0,3,,,,,,,,,5,,,64,0
15742,note_on,94,0,4,,,,,,,,,7,,,49,0
15744,note_on,2,0,2,,,,,,,,,6,,,62,92
15744,note_on,290,0,1,,,,,,,,,1,,,71,108
15744,note_on,2,0,3,,,,,,,,,5,,,62,92
15744,note_on,2,0,4,,,,,,,,,7,,,47,92
15790,note_on,46,0,2,,,,,,,,,6,,,62,0
15790,note_on,46,0,4,,,,,,,,,7,,,47,0
15790,note_on,46,0,3,,,,,,,,,5,,,62,0
15792,note_on,2,0,2,,,,,,,,,6,,,64,92
15792,note_on,2,0,4,,,,,,,,,7,,,49,92
15792,note_on,2,0,3,,,,,,,,,5,,,64,92
15838,note_on,46,0,4,,,,,,,,,7,,,49,0
15838,note_on,46,0,3,,,,,,,,,5,,,64,0
15838,note_on,46,0,2,,,,,,,,,6,,,64,0
15840,note_on,2,0,2,,,,,,,,,6,,,66,92
15840,note_on,2,0,4,,,,,,,,,7,,,50,92
15840,note_on,2,0,3,,,,,,,,,5,,,66,92
15904,note_on,160,0,1,,,,,,,,,1,,,71,0
15934,note_on,94,0,3,,,,,,,,,5,,,66,0
15934,note_on,94,0,2,,,,,,,,,6,,,66,0
15934,note_on,94,0,4,,,,,,,,,7,,,50,0
15936,note_on,32,0,1,,,,,,,,,1,,,71,108
15936,note_on,2,0,2,,,,,,,,,6,,,62,92
15936,note_on,2,0,4,,,,,,,,,7,,,47,92
15936,note_on,2,0,3,,,,,,,,,5,,,62,92
16030,note_on,94,0,3,,,,,,,,,5,,,62,0
16030,note_on,94,0,1,,,,,,,,,1,,,71,0
16030,note_on,94,0,2,,,,,,,,,6,,,62,0
16030,note_on,94,0,4,,,,,,,,,7,,,47,0
16032,note_on,2,0,2,,,,,,,,,6,,,68,92
16032,note_on,2,0,3,,,,,,,,,5,,,65,92
16032,note_on,2,0,4,,,,,,,,,7,,,49,92
16032,note_on,2,0,1,,,,,,,,,1,,,71,108
16126,note_on,94,0,3,,,,,,,,,5,,,65,0
16126,note_on,94,0,4,,,,,,,,,7,,,49,0
16128,note_on,2,0,4,,,,,,,,,7,,,51,92
16128,note_on,0,0,1,,,,,,,,,1,,,69,108
16128,note_on,2,0,3,,,,,,,,,5,,,66,92
16128,note_on,96,0,1,,,,,,,,,1,,,71,0
16192,note_on,160,0,2,,,,,,,,,6,,,68,0
16222,note_on,94,0,1,,,,,,,,,1,,,69,0
16222,note_on,94,0,4,,,,,,,,,7,,,51,0
16222,note_on,94,0,3,,,,,,,,,5,,,66,0
16224,note_on,2,0,1,,,,,,,,,1,,,68,108
16224,note_on,2,0,4,,,,,,,,,7,,,53,92
16224,note_on,0,0,3,,,,,,,,,5,,,73,92
16224,note_on,0,0,3,,,,,,,,,5,,,71,92
16224,note_on,2,0,3,,,,,,,,,5,,,68,92
16318,note_on,94,0,4,,,,,,,,,7,,,53,0
16318,note_on,94,0,3,,,,,,,,,5,,,68,0
16318,note_on,94,0,1,,,,,,,,,1,,,68,0
16318,note_on,0,0,3,,,,,,,,,5,,,73,0
16318,note_on,0,0,3,,,,,,,,,5,,,71,0
16320,note_on,2,0,4,,,,,,,,,7,,,54,92
16320,note_on,128,0,2,,,,,,,,,6,,,73,92
16320,note_on,2,0,3,,,,,,,,,5,,,69,92
16320,note_on,2,0,1,,,,,,,,,1,,,69,108
16366,note_on,46,0,4,,,,,,,,,7,,,54,0
16368,note_on,2,0,4,,,,,,,,,7,,,56,92
16414,note_on,46,0,4,,,,,,,,,7,,,56,0
16414,note_on,94,0,2,,,,,,,,,6,,,73,0
16414,note_on,94,0,3,,,,,,,,,5,,,69,0
16414,note_on,94,0,1,,,,,,,,,1,,,69,0
16416,note_on,2,0,1,,,,,,,,,1,,,68,108
16416,note_on,2,0,2,,,,,,,,,6,,,71,92
16416,note_on,2,0,4,,,,,,,,,7,,,57,92
16416,note_on,2,0,3,,,,,,,,,5,,,68,92
16510,note_on,94,0,4,,,,,,,,,7,,,57,0
16510,note_on,94,0,2,,,,,,,,,6,,,71,0
16510,note_on,94,0,3,,,,,,,,,5,,,68,0
16512,note_on,96,0,1,,,,,,,,,1,,,68,0
16512,note_on,0,0,1,,,,,,,,,1,,,66,108
16512,note_on,2,0,2,,,,,,,,,6,,,69,92
16512,note_on,2,0,3,,,,,,,,,5,,,66,92
16512,note_on,2,0,4,,,,,,,,,7,,,59,92
16606,note_on,94,0,3,,,,,,,,,5,,,66,0
16606,note_on,94,0,1,,,,,,,,,1,,,66,0
16606,note_on,94,0,4,,,,,,,,,7,,,59,0
16606,note_on,94,0,2,,,,,,,,,6,,,69,0
16608,note_on,2,0,3,,,,,,,,,5,,,65,92
16608,note_on,2,0,4,,,,,,,,,7,,,61,92
16608,note_on,2,0,1,,,,,,,,,1,,,65,108
16608,note_on,2,0,2,,,,,,,,,6,,,68,92
16654,note_on,46,0,2,,,,,,,,,6,,,68,0
16656,note_on,2,0,2,,,,,,,,,6,,,69,92
16702,note_on,46,0,2,,,,,,,,,6,,,69,0
16704,note_on,2,0,2,,,,,,,,,6,,,68,92
16750,note_on,46,0,2,,,,,,,,,6,,,68,0
16750,note_on,142,0,4,,,,,,,,,7,,,61,0
16752,note_on,2,0,2,,,,,,,,,6,,,64,92
16752,note_on,2,0,4,,,,,,,,,7,,,59,92
16768,note_on,160,0,3,,,,,,,,,5,,,65,0
16768,note_on,160,0,1,,,,,,,,,1,,,65,0
16798,note_on,46,0,4,,,,,,,,,7,,,59,0
16798,note_on,46,0,2,,,,,,,,,6,,,64,0
16800,note_on,32,0,1,,,,,,,,,1,,,66,108
16800,note_on,2,0,2,,,,,,,,,6,,,66,92
16800,note_on,2,0,4,,,,,,,,,7,,,57,92
16846,note_on,46,0,2,,,,,,,,,6,,,66,0
16846,note_on,46,0,4,,,,,,,,,7,,,57,0
16848,note_on,2,0,2,,,,,,,,,6,,,68,92
16848,note_on,2,0,4,,,,,,,,,7,,,56,92
16894,note_on,46,0,2,,,,,,,,,6,,,68,0
16894,note_on,46,0,4,,,,,,,,,7,,,56,0
16896,note_on,2,0,4,,,,,,,,,7,,,54,92
16896,note_on,128,0,3,,,,,,,,,5,,,66,92
16896,note_on,2,0,2,,,,,,,,,6,,,69,92
16942,note_on,46,0,2,,,,,,,,,6,,,69,0
16944,note_on,2,0,2,,,,,,,,,6,,,71,92
16990,note_on,190,0,1,,,,,,,,,1,,,66,0
16990,note_on,46,0,2,,,,,,,,,6,,,71,0
16990,note_on,94,0,4,,,,,,,,,7,,,54,0
16992,note_on,2,0,2,,,,,,,,,6,,,68,92
16992,note_on,2,0,1,,,,,,,,,1,,,69,108
16992,note_on,2,0,4,,,,,,,,,7,,,61,92
17040,note_on,0,0,1,,,,,,,,,1,,,68,108
17040,note_on,48,0,1,,,,,,,,,1,,,69,0
17056,note_on,160,0,3,,,,,,,,,5,,,66,0
17064,note_on,0,0,1,,,,,,,,,1,,,69,108
17064,note_on,24,0,1,,,,,,,,,1,,,68,0
17086,note_on,94,0,4,,,,,,,,,7,,,61,0
17088,note_on,32,0,3,,,,,,,,,5,,,65,92
17088,note_on,0,0,1,,,,,,,,,1,,,68,108
17088,note_on,24,0,1,,,,,,,,,1,,,69,0
17088,note_on,2,0,4,,,,,,,,,7,,,49,92
17152,note_on,160,0,2,,,,,,,,,6,,,68,0
17182,note_on,94,0,3,,,,,,,,,5,,,65,0
17182,note_on,94,0,1,,,,,,,,,1,,,68,0
17182,note_on,94,0,4,,,,,,,,,7,,,49,0
17184,note_on,2,0,3,,,,,,,,,5,,,69,108
17184,note_on,2,0,4,,,,,,,,,7,,,54,108
17184,note_on,2,0,1,,,,,,,,,1,,,66,108
17184,note_on,32,0,2,,,,,,,,,6,,,85,108
17278,note_on,94,0,2,,,,,,,,,6,,,85,0
17278,note_on,94,0,3,,,,,,,,,5,,,69,0
17280,note_on,2,0,2,,,,,,,,,6,,,81,108
17280,note_on,2,0,3,,,,,,,,,5,,,73,108
17344,note_on,160,0,4,,,,,,,,,7,,,54,0
17374,note_on,94,0,2,,,,,,,,,6,,,81,0
17374,note_on,94,0,3,,,,,,,,,5,,,73,0
17376,note_on,2,0,2,,,,,,,,,6,,,80,108
17376,note_on,2,0,3,,,,,,,,,5,,,65,108
17376,note_on,32,0,4,,,,,,,,,7,,,61,108
17440,note_on,256,0,1,,,,,,,,,1,,,66,0
17470,note_on,94,0,2,,,,,,,,,6,,,80,0
17470,note_on,94,0,3,,,,,,,,,5,,,65,0
17470,note_on,94,0,4,,,,,,,,,7,,,61,0
17472,note_on,2,0,3,,,,,,,,,5,,,61,108
17472,note_on,2,0,4,,,,,,,,,7,,,54,108
17472,note_on,2,0,2,,,,,,,,,6,,,78,108
17566,note_on,94,0,3,,,,,,,,,5,,,61,0
17566,note_on,94,0,2,,,,,,,,,6,,,78,0
17568,note_on,2,0,3,,,,,,,,,5,,,69,108
17568,note_on,2,0,2,,,,,,,,,6,,,73,108
17632,note_on,160,0,4,,,,,,,,,7,,,54,0
17662,note_on,94,0,3,,,,,,,,,5,,,69,0
17662,note_on,94,0,2,,,,,,,,,6,,,73,0
17664,note_on,2,0,2,,,,,,,,,6,,,71,108
17664,note_on,32,0,4,,,,,,,,,7,,,61,108
17664,note_on,2,0,3,,,,,,,,,5,,,65,108
17758,note_on,94,0,4,,,,,,,,,7,,,61,0
17758,note_on,94,0,3,,,,,,,,,5,,,65,0
17758,note_on,94,0,2,,,,,,,,,6,,,71,0
17760,note_on,2,0,4,,,,,,,,,7,,,54,108
17760,note_on,2,0,2,,,,,,,,,6,,,69,108
17760,note_on,2,0,3,,,,,,,,,5,,,61,108
17806,note_on,46,0,2,,,,,,,,,6,,,69,0
17808,note_on,2,0,2,,,,,,,,,6,,,68,108
17854,note_on,46,0,2,,,,,,,,,6,,,68,0
17856,note_on,2,0,2,,,,,,,,,6,,,66,108
17920,note_on,160,0,4,,,,,,,,,7,,,54,0
17920,note_on,160,0,3,,,,,,,,,5,,,61,0
17950,note_on,94,0,2,,,,,,,,,6,,,66,0
17952,note_on,32,0,4,,,,,,,,,7,,,49,108
17952,note_on,32,0,3,,,,,,,,,5,,,61,108
17952,note_on,2,0,2,,,,,,,,,6,,,65,108
18046,note_on,94,0,3,,,,,,,,,5,,,61,0
18046,note_on,94,0,2,,,,,,,,,6,,,65,0
18046,note_on,94,0,4,,,,,,,,,7,,,49,0
18048,note_on,2,0,3,,,,,,,,,5,,,66,108
18048,note_on,2,0,2,,,,,,,,,6,,,66,108
18048,note_on,2,0,4,,,,,,,,,7,,,54,108
18094,note_on,46,0,3,,,,,,,,,5,,,66,0
18094,note_on,46,0,4,,,,,,,,,7,,,54,0
18094,note_on,46,0,2,,,,,,,,,6,,,66,0
18096,note_on,2,0,3,,,,,,,,,5,,,68,108
18096,note_on,2,0,2,,,,,,,,,6,,,68,108
18096,note_on,2,0,4,,,,,,,,,7,,,56,108
18142,note_on,46,0,2,,,,,,,,,6,,,68,0
18142,note_on,46,0,4,,,,,,,,,7,,,56,0
18142,note_on,46,0,3,,,,,,,,,5,,,68,0
18144,note_on,2,0,2,,,,,,,,,6,,,69,108
18144,note_on,2,0,3,,,,,,,,,5,,,69,108
18144,note_on,2,0,4,,,,,,,,,7,,,57,108
18238,note_on,94,0,4,,,,,,,,,7,,,57,0
18238,note_on,94,0,2,,,,,,,,,6,,,69,0
18238,note_on,94,0,3,,,,,,,,,5,,,69,0
18240,note_on,2,0,2,,,,,,,,,6,,,68,108
18240,note_on,2,0,4,,,,,,,,,7,,,56,108
18240,note_on,2,0,3,,,,,,,,,5,,,68,108
18334,note_on,94,0,3,,,,,,,,,5,,,68,0
18334,note_on,94,0,4,,,,,,,,,7,,,56,0
18334,note_on,94,0,2,,,,,,,,,6,,,68,0
18336,note_on,2,0,3,,,,,,,,,5,,,66,108
18336,note_on,2,0,4,,,,,,,,,7,,,54,108
18336,note_on,2,0,2,,,,,,,,,6,,,66,108
18382,note_on,46,0,3,,,,,,,,,5,,,66,0
18382,note_on,46,0,2,,,,,,,,,6,,,66,0
18382,note_on,46,0,4,,,,,,,,,7,,,54,0
18384,note_on,2,0,2,,,,,,,,,6,,,68,108
18384,note_on,2,0,4,,,,,,,,,7,,,56,108
18384,note_on,2,0,3,,,,,,,,,5,,,68,108
18430,note_on,46,0,3,,,,,,,,,5,,,68,0
18430,note_on,46,0,4,,,,,,,,,7,,,56,0
18430,note_on,46,0,2,,,,,,,,,6,,,68,0
18432,note_on,2,0,4,,,,,,,,,7,,,57,108
18432,note_on,2,0,2,,,,,,,,,6,,,69,108
18432,note_on,2,0,3,,,,,,,,,5,,,69,108
18526,note_on,94,0,2,,,,,,,,,6,,,69,0
18526,note_on,94,0,4,,,,,,,,,7,,,57,0
18526,note_on,94,0,3,,,,,,,,,5,,,69,0
18528,note_on,2,0,3,,,,,,,,,5,,,68,108
18528,note_on,2,0,2,,,,,,,,,6,,,68,108
18528,note_on,2,0,4,,,,,,,,,7,,,56,108
18622,note_on,94,0,4,,,,,,,,,7,,,56,0
18622,note_on,94,0,3,,,,,,,,,5,,,68,0
18622,note_on,94,0,2,,,,,,,,,6,,,68,0
18624,note_on,2,0,4,,,,,,,,,7,,,54,108
18624,note_on,2,0,3,,,,,,,,,5,,,66,108
18624,note_on,2,0,2,,,,,,,,,6,,,66,108
18670,note_on,46,0,2,,,,,,,,,6,,,66,0
18670,note_on,46,0,3,,,,,,,,,5,,,66,0
18670,note_on,46,0,4,,,,,,,,,7,,,54,0
18672,note_on,2,0,3,,,,,,,,,5,,,68,108
18672,note_on,2,0,2,,,,,,,,,6,,,68,108
18672,note_on,2,0,4,,,,,,,,,7,,,56,108
18718,note_on,46,0,2,,,,,,,,,6,,,68,0
18718,note_on,46,0,3,,,,,,,,,5,,,68,0
18718,note_on,46,0,4,,,,,,,,,7,,,56,0
18720,note_on,2,0,2,,,,,,,,,6,,,69,108
18720,note_on,2,0,3,,,,,,,,,5,,,69,108
18720,note_on,2,0,4,,,,,,,,,7,,,57,108
18814,note_on,94,0,2,,,,,,,,,6,,,69,0
18814,note_on,94,0,3,,,,,,,,,5,,,69,0
18814,note_on,94,0,4,,,,,,,,,7,,,57,0
18816,note_on,2,0,2,,,,,,,,,6,,,71,108
18816,note_on,2,0,3,,,,,,,,,5,,,71,108
18816,note_on,2,0,4,,,,,,,,,7,,,59,108
18910,note_on,94,0,4,,,,,,,,,7,,,59,0
18910,note_on,94,0,3,,,,,,,,,5,,,71,0
18910,note_on,94,0,2,,,,,,,,,6,,,71,0
18912,note_on,2,0,2,,,,,,,,,6,,,73,108
18912,note_on,1472,0,1,,,,,,,,,1,,,68,108
18912,note_on,2,0,3,,,,,,,,,5,,,65,108
18912,note_on,2,0,4,,,,,,,,,7,,,61,108
19168,note_on,256,0,2,,,,,,,,,6,,,73,0
19168,note_on,256,0,1,,,,,,,,,1,,,68,0
19168,note_on,256,0,4,,,,,,,,,7,,,61,0
19168,note_on,256,0,3,,,,,,,,,5,,,65,0
19200,note_on,32,0,1,,,,,,,,,1,,,68,108
19200,note_on,32,0,2,,,,,,,,,6,,,68,92
19200,note_on,32,0,3,,,,,,,,,5,,,61,92
19200,note_on,32,0,4,,,,,,,,,7,,,53,92
19246,note_on,46,0,4,,,,,,,,,7,,,53,0
19246,note_on,46,0,2,,,,,,,,,6,,,68,0
19248,note_on,2,0,4,,,,,,,,,7,,,54,92
19248,note_on,2,0,2,,,,,,,,,6,,,69,92
19294,note_on,46,0,4,,,,,,,,,7,,,54,0
19294,note_on,46,0,2,,,,,,,,,6,,,69,0
19296,note_on,2,0,2,,,,,,,,,6,,,71,92
19296,note_on,2,0,4,,,,,,,,,7,,,56,92
19390,note_on,94,0,4,,,,,,,,,7,,,56,0
19390,note_on,94,0,2,,,,,,,,,6,,,71,0
19392,note_on,2,0,4,,,,,,,,,7,,,54,92
19392,note_on,2,0,2,,,,,,,,,6,,,69,92
19456,note_on,256,0,1,,,,,,,,,1,,,68,0
19456,note_on,256,0,3,,,,,,,,,5,,,61,0
19486,note_on,94,0,2,,,,,,,,,6,,,69,0
19486,note_on,94,0,4,,,,,,,,,7,,,54,0
19488,note_on,32,0,1,,,,,,,,,1,,,61,108
19488,note_on,2,0,2,,,,,,,,,6,,,68,92
19488,note_on,32,0,3,,,,,,,,,5,,,61,92
19488,note_on,2,0,4,,,,,,,,,7,,,53,92
19582,note_on,94,0,2,,,,,,,,,6,,,68,0
19582,note_on,94,0,3,,,,,,,,,5,,,61,0
19582,note_on,94,0,4,,,,,,,,,7,,,53,0
19584,note_on,2,0,4,,,,,,,,,7,,,51,92
19584,note_on,2,0,3,,,,,,,,,5,,,66,92
19584,note_on,2,0,2,,,,,,,,,6,,,73,92
19648,note_on,160,0,1,,,,,,,,,1,,,61,0
19678,note_on,94,0,4,,,,,,,,,7,,,51,0
19678,note_on,94,0,3,,,,,,,,,5,,,66,0
19680,note_on,2,0,4,,,,,,,,,7,,,49,92
19680,note_on,32,0,1,,,,,,,,,1,,,71,108
19680,note_on,2,0,3,,,,,,,,,5,,,65,92
19774,note_on,94,0,4,,,,,,,,,7,,,49,0
19774,note_on,94,0,3,,,,,,,,,5,,,65,0
19774,note_on,94,0,1,,,,,,,,,1,,,71,0
19776,note_on,2,0,3,,,,,,,,,5,,,69,92
19776,note_on,2,0,1,,,,,,,,,1,,,69,108
19776,note_on,2,0,4,,,,,,,,,7,,,54,92
19870,note_on,94,0,1,,,,,,,,,1,,,69,0
19870,note_on,94,0,3,,,,,,,,,5,,,69,0
19870,note_on,286,0,2,,,,,,,,,6,,,73,0
19872,note_on,2,0,2,,,,,,,,,6,,,71,92
19872,note_on,2,0,1,,,,,,,,,1,,,68,108
19872,note_on,2,0,3,,,,,,,,,5,,,68,92
19966,note_on,94,0,1,,,,,,,,,1,,,68,0
19966,note_on,94,0,2,,,,,,,,,6,,,71,0
19966,note_on,94,0,3,,,,,,,,,5,,,68,0
19968,note_on,2,0,1,,,,,,,,,1,,,66,108
19968,note_on,2,0,3,,,,,,,,,5,,,66,92
19968,note_on,2,0,2,,,,,,,,,6,,,69,92
20032,note_on,256,0,4,,,,,,,,,7,,,54,0
20062,note_on,94,0,1,,,,,,,,,1,,,66,0
20062,note_on,94,0,2,,,,,,,,,6,,,69,0
20062,note_on,94,0,3,,,,,,,,,5,,,66,0
20064,note_on,2,0,2,,,,,,,,,6,,,68,92
20064,note_on,2,0,1,,,,,,,,,1,,,71,108
20064,note_on,32,0,4,,,,,,,,,7,,,53,92
20064,note_on,2,0,3,,,,,,,,,5,,,61,92
20110,note_on,46,0,4,,,,,,,,,7,,,53,0
20110,note_on,46,0,3,,,,,,,,,5,,,61,0
20112,note_on,2,0,4,,,,,,,,,7,,,54,92
20112,note_on,2,0,3,,,,,,,,,5,,,63,92
20158,note_on,46,0,4,,,,,,,,,7,,,54,0
20158,note_on,46,0,3,,,,,,,,,5,,,63,0
20160,note_on,2,0,3,,,,,,,,,5,,,65,92
20160,note_on,2,0,4,,,,,,,,,7,,,56,92
20224,note_on,160,0,2,,,,,,,,,6,,,68,0
20254,note_on,94,0,3,,,,,,,,,5,,,65,0
20254,note_on,94,0,4,,,,,,,,,7,,,56,0
20256,note_on,192,0,1,,,,,,,,,1,,,71,0
20256,note_on,2,0,4,,,,,,,,,7,,,53,92
20256,note_on,0,0,1,,,,,,,,,1,,,68,108
20256,note_on,2,0,3,,,,,,,,,5,,,68,92
20256,note_on,32,0,2,,,,,,,,,6,,,71,92
20350,note_on,94,0,4,,,,,,,,,7,,,53,0
20350,note_on,94,0,1,,,,,,,,,1,,,68,0
20350,note_on,94,0,2,,,,,,,,,6,,,71,0
20350,note_on,94,0,3,,,,,,,,,5,,,68,0
20352,note_on,2,0,1,,,,,,,,,1,,,69,108
20352,note_on,2,0,4,,,,,,,,,7,,,54,92
20352,note_on,2,0,2,,,,,,,,,6,,,69,92
20352,note_on,2,0,3,,,,,,,,,5,,,66,92
20398,note_on,46,0,3,,,,,,,,,5,,,66,0
20398,note_on,46,0,2,,,,,,,,,6,,,69,0
20400,note_on,2,0,2,,,,,,,,,6,,,71,92
20400,note_on,2,0,3,,,,,,,,,5,,,68,92
20446,note_on,46,0,2,,,,,,,,,6,,,71,0
20446,note_on,46,0,3,,,,,,,,,5,,,68,0
20448,note_on,2,0,3,,,,,,,,,5,,,69,92
20448,note_on,2,0,2,,,,,,,,,6,,,73,92
20542,note_on,94,0,3,,,,,,,,,5,,,69,0
20542,note_on,94,0,2,,,,,,,,,6,,,73,0
20544,note_on,2,0,2,,,,,,,,,6,,,71,92
20544,note_on,2,0,3,,,,,,,,,5,,,68,92
20608,note_on,256,0,4,,,,,,,,,7,,,54,0
20608,note_on,256,0,1,,,,,,,,,1,,,69,0
20638,note_on,94,0,2,,,,,,,,,6,,,71,0
20638,note_on,94,0,3,,,,,,,,,5,,,68,0
20640,note_on,2,0,2,,,,,,,,,6,,,69,92
20640,note_on,2,0,3,,,,,,,,,5,,,66,92
20686,note_on,46,0,2,,,,,,,,,6,,,69,0
20686,note_on,46,0,3,,,,,,,,,5,,,66,0
20688,note_on,2,0,2,,,,,,,,,6,,,71,92
20688,note_on,2,0,3,,,,,,,,,5,,,68,92
20734,note_on,46,0,3,,,,,,,,,5,,,68,0
20734,note_on,46,0,2,,,,,,,,,6,,,71,0
20736,note_on,2,0,2,,,,,,,,,6,,,73,92
20736,note_on,2,0,3,,,,,,,,,5,,,69,92
20830,note_on,94,0,3,,,,,,,,,5,,,69,0
20830,note_on,94,0,2,,,,,,,,,6,,,73,0
20832,note_on,2,0,2,,,,,,,,,6,,,71,92
20832,note_on,2,0,3,,,,,,,,,5,,,68,92
20926,note_on,94,0,2,,,,,,,,,6,,,71,0
20926,note_on,94,0,3,,,,,,,,,5,,,68,0
20928,note_on,2,0,2,,,,,,,,,6,,,69,92
20928,note_on,320,0,4,,,,,,,,,7,,,54,92
20928,note_on,2,0,3,,,,,,,,,5,,,66,92
20928,note_on,320,0,1,,,,,,,,,1,,,69,92
20974,note_on,46,0,4,,,,,,,,,7,,,54,0
20976,note_on,2,0,4,,,,,,,,,7,,,56,92
21022,note_on,46,0,4,,,,,,,,,7,,,56,0
21024,note_on,2,0,4,,,,,,,,,7,,,57,92
21088,note_on,160,0,3,,,,,,,,,5,,,66,0
21088,note_on,160,0,2,,,,,,,,,6,,,69,0
21088,note_on,160,0,1,,,,,,,,,1,,,69,0
21118,note_on,94,0,4,,,,,,,,,7,,,57,0
21120,note_on,2,0,4,,,,,,,,,7,,,54,92
21120,note_on,32,0,3,,,,,,,,,5,,,60,92
21120,note_on,32,0,1,,,,,,,,,1,,,69,92
21214,note_on,94,0,4,,,,,,,,,7,,,54,0
21214,note_on,94,0,3,,,,,,,,,5,,,60,0
21214,note_on,94,0,1,,,,,,,,,1,,,69,0
21216,note_on,2,0,4,,,,,,,,,7,,,51,92
21216,note_on,128,0,2,,,,,,,,,6,,,66,92
21216,note_on,2,0,3,,,,,,,,,5,,,59,92
21216,note_on,2,0,1,,,,,,,,,1,,,69,92
21262,note_on,46,0,2,,,,,,,,,6,,,66,0
21262,note_on,46,0,4,,,,,,,,,7,,,51,0
21264,note_on,2,0,2,,,,,,,,,6,,,67,92
21264,note_on,2,0,4,,,,,,,,,7,,,52,92
21310,note_on,46,0,2,,,,,,,,,6,,,67,0
21310,note_on,46,0,4,,,,,,,,,7,,,52,0
21310,note_on,94,0,3,,,,,,,,,5,,,59,0
21312,note_on,2,0,4,,,,,,,,,7,,,54,92
21312,note_on,2,0,3,,,,,,,,,5,,,69,92
21312,note_on,2,0,2,,,,,,,,,6,,,71,92
21406,note_on,94,0,3,,,,,,,,,5,,,69,0
21406,note_on,94,0,4,,,,,,,,,7,,,54,0
21408,note_on,2,0,3,,,,,,,,,5,,,66,92
21408,note_on,2,0,4,,,,,,,,,7,,,51,92
21502,note_on,94,0,3,,,,,,,,,5,,,66,0
21502,note_on,94,0,4,,,,,,,,,7,,,51,0
21504,note_on,2,0,3,,,,,,,,,5,,,63,92
21504,note_on,2,0,4,,,,,,,,,7,,,47,92
21550,note_on,238,0,2,,,,,,,,,6,,,71,0
21552,note_on,2,0,2,,,,,,,,,6,,,72,92
21598,note_on,46,0,2,,,,,,,,,6,,,72,0
21600,note_on,384,0,1,,,,,,,,,1,,,69,0
21600,note_on,2,0,2,,,,,,,,,6,,,71,92
21600,note_on,0,0,1,,,,,,,,,1,,,67,92
21646,note_on,46,0,2,,,,,,,,,6,,,71,0
21648,note_on,0,0,1,,,,,,,,,1,,,66,92
21648,note_on,2,0,2,,,,,,,,,6,,,69,92
21648,note_on,48,0,1,,,,,,,,,1,,,67,0
21664,note_on,160,0,3,,,,,,,,,5,,,63,0
21694,note_on,46,0,2,,,,,,,,,6,,,69,0
21696,note_on,48,0,1,,,,,,,,,1,,,66,0
21696,note_on,0,0,1,,,,,,,,,1,,,64,92
21696,note_on,2,0,2,,,,,,,,,6,,,67,92
21742,note_on,46,0,2,,,,,,,,,6,,,67,0
21744,note_on,2,0,2,,,,,,,,,6,,,66,92
21744,note_on,0,0,1,,,,,,,,,1,,,63,92
21744,note_on,48,0,1,,,,,,,,,1,,,64,0
21760,note_on,256,0,4,,,,,,,,,7,,,47,0
21790,note_on,46,0,2,,,,,,,,,6,,,66,0
21792,note_on,0,0,1,,,,,,,,,1,,,71,108
21792,note_on,32,0,4,,,,,,,,,7,,,55,92
21792,note_on,128,0,3,,,,,,,,,5,,,64,92
21792,note_on,2,0,2,,,,,,,,,6,,,64,92
21792,note_on,48,0,1,,,,,,,,,1,,,63,0
21838,note_on,46,0,2,,,,,,,,,6,,,64,0
21838,note_on,46,0,4,,,,,,,,,7,,,55,0
21838,note_on,46,0,3,,,,,,,,,5,,,64,0
21840,note_on,2,0,4,,,,,,,,,7,,,57,92
21840,note_on,2,0,3,,,,,,,,,5,,,66,92
21840,note_on,2,0,2,,,,,,,,,6,,,66,92
21886,note_on,46,0,2,,,,,,,,,6,,,66,0
21886,note_on,46,0,4,,,,,,,,,7,,,57,0
21886,note_on,46,0,3,,,,,,,,,5,,,66,0
21888,note_on,2,0,3,,,,,,,,,5,,,67,92
21888,note_on,2,0,4,,,,,,,,,7,,,59,92
21888,note_on,2,0,2,,,,,,,,,6,,,67,92
21982,note_on,94,0,4,,,,,,,,,7,,,59,0
21982,note_on,94,0,3,,,,,,,,,5,,,67,0
21982,note_on,94,0,2,,,,,,,,,6,,,67,0
21984,note_on,2,0,3,,,,,,,,,5,,,64,92
21984,note_on,2,0,4,,,,,,,,,7,,,55,92
21984,note_on,2,0,2,,,,,,,,,6,,,64,92
22078,note_on,94,0,3,,,,,,,,,5,,,64,0
22078,note_on,94,0,2,,,,,,,,,6,,,64,0
22078,note_on,94,0,4,,,,,,,,,7,,,55,0
22080,note_on,2,0,2,,,,,,,,,6,,,71,92
22080,note_on,2,0,4,,,,,,,,,7,,,52,92
22080,note_on,2,0,3,,,,,,,,,5,,,67,92
22174,note_on,94,0,2,,,,,,,,,6,,,71,0
22176,note_on,2,0,2,,,,,,,,,6,,,72,92
22176,note_on,384,0,1,,,,,,,,,1,,,71,0
22176,note_on,0,0,1,,,,,,,,,1,,,69,108
22222,note_on,46,0,2,,,,,,,,,6,,,72,0
22224,note_on,48,0,1,,,,,,,,,1,,,69,0
22224,note_on,0,0,1,,,,,,,,,1,,,67,108
22224,note_on,2,0,2,,,,,,,,,6,,,71,92
22270,note_on,46,0,2,,,,,,,,,6,,,71,0
22272,note_on,0,0,1,,,,,,,,,1,,,66,108
22272,note_on,48,0,1,,,,,,,,,1,,,67,0
22272,note_on,2,0,2,,,,,,,,,6,,,69,92
22318,note_on,46,0,2,,,,,,,,,6,,,69,0
22320,note_on,48,0,1,,,,,,,,,1,,,66,0
22320,note_on,2,0,2,,,,,,,,,6,,,71,92
22320,note_on,0,0,1,,,,,,,,,1,,,64,108
22336,note_on,256,0,4,,,,,,,,,7,,,52,0
22366,note_on,46,0,2,,,,,,,,,6,,,71,0
22368,note_on,2,0,2,,,,,,,,,6,,,72,92
22368,note_on,0,0,1,,,,,,,,,1,,,72,108
22368,note_on,32,0,4,,,,,,,,,7,,,57,92
22368,note_on,48,0,1,,,,,,,,,1,,,64,0
22414,note_on,46,0,4,,,,,,,,,7,,,57,0
22414,note_on,46,0,2,,,,,,,,,6,,,72,0
22416,note_on,2,0,2,,,,,,,,,6,,,71,92
22416,note_on,2,0,4,,,,,,,,,7,,,59,92
22462,note_on,46,0,2,,,,,,,,,6,,,71,0
22462,note_on,46,0,4,,,,,,,,,7,,,59,0
22464,note_on,2,0,2,,,,,,,,,6,,,69,92
22464,note_on,2,0,4,,,,,,,,,7,,,60,92
22558,note_on,94,0,2,,,,,,,,,6,,,69,0
22558,note_on,94,0,4,,,,,,,,,7,,,60,0
22560,note_on,2,0,2,,,,,,,,,6,,,71,92
22560,note_on,2,0,4,,,,,,,,,7,,,59,92
22654,note_on,94,0,4,,,,,,,,,7,,,59,0
22654,note_on,94,0,2,,,,,,,,,6,,,71,0
22656,note_on,2,0,4,,,,,,,,,7,,,57,92
22656,note_on,2,0,2,,,,,,,,,6,,,72,92
22704,note_on,336,0,1,,,,,,,,,1,,,72,0
22704,note_on,0,0,1,,,,,,,,,1,,,71,108
22750,note_on,670,0,3,,,,,,,,,5,,,67,0
22752,note_on,48,0,1,,,,,,,,,1,,,71,0
22752,note_on,0,0,1,,,,,,,,,1,,,69,108
22752,note_on,2,0,3,,,,,,,,,5,,,66,92
22800,note_on,0,0,1,,,,,,,,,1,,,67,108
22800,note_on,48,0,1,,,,,,,,,1,,,69,0
22846,note_on,94,0,3,,,,,,,,,5,,,66,0
22848,note_on,2,0,3,,,,,,,,,5,,,64,92
22848,note_on,48,0,1,,,,,,,,,1,,,67,0
22848,note_on,0,0,1,,,,,,,,,1,,,66,108
22896,note_on,48,0,1,,,,,,,,,1,,,66,0
22896,note_on,0,0,1,,,,,,,,,1,,,64,108
22912,note_on,256,0,4,,,,,,,,,7,,,57,0
22942,note_on,94,0,3,,,,,,,,,5,,,64,0
22944,note_on,32,0,4,,,,,,,,,7,,,59,92
22944,note_on,2,0,3,,,,,,,,,5,,,63,92
22944,note_on,0,0,1,,,,,,,,,1,,,63,108
22944,note_on,48,0,1,,,,,,,,,1,,,64,0
22944,note_on,0,0,3,,,,,,,,,5,,,66,92
22990,note_on,46,0,4,,,,,,,,,7,,,59,0
22992,note_on,2,0,4,,,,,,,,,7,,,57,92
23038,note_on,0,0,3,,,,,,,,,5,,,66,0
23038,note_on,46,0,4,,,,,,,,,7,,,57,0
23038,note_on,382,0,2,,,,,,,,,6,,,72,0
23038,note_on,94,0,3,,,,,,,,,5,,,63,0
23040,note_on,2,0,2,,,,,,,,,6,,,71,92
23040,note_on,96,0,1,,,,,,,,,1,,,63,0
23040,note_on,2,0,3,,,,,,,,,5,,,64,92
23040,note_on,2,0,4,,,,,,,,,7,,,55,92
23040,note_on,0,0,1,,,,,,,,,1,,,64,108
23086,note_on,46,0,2,,,,,,,,,6,,,71,0
23086,note_on,46,0,4,,,,,,,,,7,,,55,0
23086,note_on,46,0,3,,,,,,,,,5,,,64,0
23088,note_on,2,0,3,,,,,,,,,5,,,66,92
23088,note_on,2,0,2,,,,,,,,,6,,,69,92
23088,note_on,2,0,4,,,,,,,,,7,,,54,92
23134,note_on,46,0,2,,,,,,,,,6,,,69,0
23134,note_on,94,0,1,,,,,,,,,1,,,64,0
23134,note_on,46,0,4,,,,,,,,,7,,,54,0
23134,note_on,46,0,3,,,,,,,,,5,,,66,0
23136,note_on,2,0,4,,,,,,,,,7,,,52,92
23136,note_on,2,0,2,,,,,,,,,6,,,67,92
23136,note_on,2,0,1,,,,,,,,,1,,,69,108
23136,note_on,2,0,3,,,,,,,,,5,,,67,92
23182,note_on,46,0,3,,,,,,,,,5,,,67,0
23182,note_on,46,0,4,,,,,,,,,7,,,52,0
23182,note_on,46,0,2,,,,,,,,,6,,,67,0
23184,note_on,2,0,4,,,,,,,,,7,,,51,92
23184,note_on,2,0,3,,,,,,,,,5,,,66,92
23184,note_on,2,0,2,,,,,,,,,6,,,66,92
23230,note_on,46,0,3,,,,,,,,,5,,,66,0
23230,note_on,46,0,4,,,,,,,,,7,,,51,0
23230,note_on,94,0,1,,,,,,,,,1,,,69,0
23230,note_on,46,0,2,,,,,,,,,6,,,66,0
23232,note_on,2,0,1,,,,,,,,,1,,,67,108
23232,note_on,2,0,3,,,,,,,,,5,,,64,92
23232,note_on,2,0,4,,,,,,,,,7,,,52,92
23232,note_on,2,0,2,,,,,,,,,6,,,67,92
23278,note_on,46,0,4,,,,,,,,,7,,,52,0
23280,note_on,2,0,4,,,,,,,,,7,,,57,92
23326,note_on,46,0,4,,,,,,,,,7,,,57,0
23326,note_on,94,0,2,,,,,,,,,6,,,67,0
23328,note_on,2,0,2,,,,,,,,,6,,,66,92
23328,note_on,0,0,1,,,,,,,,,1,,,66,108
23328,note_on,2,0,4,,,,,,,,,7,,,59,92
23328,note_on,96,0,1,,,,,,,,,1,,,67,0
23352,note_on,24,0,1,,,,,,,,,1,,,66,0
23352,note_on,0,0,1,,,,,,,,,1,,,67,108
23376,note_on,24,0,1,,,,,,,,,1,,,67,0
23376,note_on,0,0,1,,,,,,,,,1,,,66,108
23392,note_on,160,0,3,,,,,,,,,5,,,64,0
23400,note_on,24,0,1,,,,,,,,,1,,,66,0
23400,note_on,0,0,1,,,,,,,,,1,,,67,108
23422,note_on,94,0,4,,,,,,,,,7,,,59,0
23424,note_on,2,0,4,,,,,,,,,7,,,47,92
23424,note_on,24,0,1,,,,,,,,,1,,,67,0
23424,note_on,0,0,1,,,,,,,,,1,,,66,108
23424,note_on,32,0,3,,,,,,,,,5,,,63,92
23488,note_on,160,0,2,,,,,,,,,6,,,66,0
23518,note_on,94,0,4,,,,,,,,,7,,,47,0
23518,note_on,94,0,1,,,,,,,,,1,,,66,0
23518,note_on,94,0,3,,,,,,,,,5,,,63,0
23520,note_on,2,0,3,,,,,,,,,5,,,67,108
23520,note_on,2,0,4,,,,,,,,,7,,,52,108
23520,note_on,2,0,1,,,,,,,,,1,,,64,108
23520,note_on,32,0,2,,,,,,,,,6,,,83,108
23614,note_on,94,0,3,,,,,,,,,5,,,67,0
23614,note_on,94,0,2,,,,,,,,,6,,,83,0
23616,note_on,2,0,2,,,,,,,,,6,,,79,108
23616,note_on,2,0,3,,,,,,,,,5,,,71,108
23680,note_on,160,0,4,,,,,,,,,7,,,52,0
23710,note_on,94,0,2,,,,,,,,,6,,,79,0
23710,note_on,94,0,3,,,,,,,,,5,,,71,0
23712,note_on,32,0,4,,,,,,,,,7,,,59,108
23712,note_on,2,0,2,,,,,,,,,6,,,78,108
23712,note_on,2,0,3,,,,,,,,,5,,,63,108
23776,note_on,256,0,1,,,,,,,,,1,,,64,0
23806,note_on,94,0,4,,,,,,,,,7,,,59,0
23806,note_on,94,0,2,,,,,,,,,6,,,78,0
23806,note_on,94,0,3,,,,,,,,,5,,,63,0
23808,note_on,2,0,3,,,,,,,,,5,,,59,108
23808,note_on,2,0,4,,,,,,,,,7,,,52,108
23808,note_on,2,0,2,,,,,,,,,6,,,76,108
23902,note_on,94,0,2,,,,,,,,,6,,,76,0
23902,note_on,94,0,3,,,,,,,,,5,,,59,0
23904,note_on,2,0,3,,,,,,,,,5,,,67,108
23904,note_on,2,0,2,,,,,,,,,6,,,71,108
23968,note_on,160,0,4,,,,,,,,,7,,,52,0
23998,note_on,94,0,3,,,,,,,,,5,,,67,0
23998,note_on,94,0,2,,,,,,,,,6,,,71,0
24000,note_on,2,0,3,,,,,,,,,5,,,63,108
24000,note_on,32,0,4,,,,,,,,,7,,,59,108
24000,note_on,2,0,2,,,,,,,,,6,,,69,108
24094,note_on,94,0,2,,,,,,,,,6,,,69,0
24094,note_on,94,0,4,,,,,,,,,7,,,59,0
24094,note_on,94,0,3,,,,,,,,,5,,,63,0
24096,note_on,2,0,3,,,,,,,,,5,,,59,108
24096,note_on,2,0,2,,,,,,,,,6,,,67,108
24096,note_on,2,0,4,,,,,,,,,7,,,52,108
24142,note_on,46,0,2,,,,,,,,,6,,,67,0
24144,note_on,2,0,2,,,,,,,,,6,,,66,108
24190,note_on,46,0,2,,,,,,,,,6,,,66,0
24192,note_on,2,0,2,,,,,,,,,6,,,64,108
24256,note_on,160,0,3,,,,,,,,,5,,,59,0
24256,note_on,160,0,4,,,,,,,,,7,,,52,0
24286,note_on,94,0,2,,,,,,,,,6,,,64,0
24288,note_on,32,0,4,,,,,,,,,7,,,47,108
24288,note_on,2,0,2,,,,,,,,,6,,,63,108
24288,note_on,32,0,3,,,,,,,,,5,,,59,108
24382,note_on,94,0,2,,,,,,,,,6,,,63,0
24382,note_on,94,0,4,,,,,,,,,7,,,47,0
24382,note_on,94,0,3,,,,,,,,,5,,,59,0
24384,note_on,2,0,4,,,,,,,,,7,,,52,92
24384,note_on,2,0,3,,,,,,,,,5,,,64,92
24384,note_on,2,0,2,,,,,,,,,6,,,64,92
24430,note_on,46,0,2,,,,,,,,,6,,,64,0
24430,note_on,46,0,3,,,,,,,,,5,,,64,0
24430,note_on,46,0,4,,,,,,,,,7,,,52,0
24432,note_on,2,0,3,,,,,,,,,5,,,66,92
24432,note_on,2,0,4,,,,,,,,,7,,,54,92
24432,note_on,2,0,2,,,,,,,,,6,,,66,92
24478,note_on,46,0,4,,,,,,,,,7,,,54,0
24478,note_on,46,0,3,,,,,,,,,5,,,66,0
24478,note_on,46,0,2,,,,,,,,,6,,,66,0
24480,note_on,2,0,3,,,,,,,,,5,,,67,92
24480,note_on,2,0,4,,,,,,,,,7,,,55,92
24480,note_on,2,0,2,,,,,,,,,6,,,67,92
24574,note_on,94,0,2,,,,,,,,,6,,,67,0
24574,note_on,94,0,3,,,,,,,,,5,,,67,0
24574,note_on,94,0,4,,,,,,,,,7,,,55,0
24576,note_on,2,0,2,,,,,,,,,6,,,66,92
24576,note_on,2,0,3,,,,,,,,,5,,,66,92
24576,note_on,2,0,4,,,,,,,,,7,,,54,92
24670,note_on,94,0,4,,,,,,,,,7,,,54,0
24670,note_on,94,0,3,,,,,,,,,5,,,66,0
24670,note_on,94,0,2,,,,,,,,,6,,,66,0
24672,note_on,2,0,2,,,,,,,,,6,,,64,75
24672,note_on,2,0,4,,,,,,,,,7,,,52,75
24672,note_on,2,0,3,,,,,,,,,5,,,64,75
24718,note_on,46,0,2,,,,,,,,,6,,,64,0
24718,note_on,46,0,4,,,,,,,,,7,,,52,0
24718,note_on,46,0,3,,,,,,,,,5,,,64,0
24720,note_on,2,0,2,,,,,,,,,6,,,66,75
24720,note_on,2,0,4,,,,,,,,,7,,,54,75
24720,note_on,2,0,3,,,,,,,,,5,,,66,75
24766,note_on,46,0,3,,,,,,,,,5,,,66,0
24766,note_on,46,0,4,,,,,,,,,7,,,54,0
24766,note_on,46,0,2,,,,,,,,,6,,,66,0
24768,note_on,2,0,3,,,,,,,,,5,,,67,75
24768,note_on,2,0,2,,,,,,,,,6,,,67,75
24768,note_on,2,0,4,,,,,,,,,7,,,55,75
24862,note_on,94,0,2,,,,,,,,,6,,,67,0
24862,note_on,94,0,4,,,,,,,,,7,,,55,0
24862,note_on,94,0,3,,,,,,,,,5,,,67,0
24864,note_on,2,0,3,,,,,,,,,5,,,66,75
24864,note_on,2,0,4,,,,,,,,,7,,,54,75
24864,note_on,2,0,2,,,,,,,,,6,,,66,75
24958,note_on,94,0,2,,,,,,,,,6,,,66,0
24958,note_on,94,0,4,,,,,,,,,7,,,54,0
24958,note_on,94,0,3,,,,,,,,,5,,,66,0
24960,note_on,1184,0,1,,,,,,,,,1,,,71,75
24960,note_on,2,0,2,,,,,,,,,6,,,64,75
24960,note_on,2,0,4,,,,,,,,,7,,,52,75
25054,note_on,94,0,1,,,,,,,,,1,,,71,0
25056,note_on,2,0,1,,,,,,,,,1,,,67,75
25056,note_on,98,0,3,,,,,,,,,5,,,67,75
25120,note_on,160,0,2,,,,,,,,,6,,,64,0
25120,note_on,160,0,4,,,,,,,,,7,,,52,0
25150,note_on,94,0,3,,,,,,,,,5,,,67,0
25152,note_on,0,0,1,,,,,,,,,1,,,66,75
25152,note_on,32,0,4,,,,,,,,,7,,,54,75
25152,note_on,96,0,1,,,,,,,,,1,,,67,0
25152,note_on,0,0,3,,,,,,,,,5,,,69,75
25152,note_on,2,0,3,,,,,,,,,5,,,63,75
25246,note_on,94,0,1,,,,,,,,,1,,,66,0
25246,note_on,0,0,3,,,,,,,,,5,,,69,0
25246,note_on,94,0,3,,,,,,,,,5,,,63,0
25246,note_on,94,0,4,,,,,,,,,7,,,54,0
25248,note_on,2,0,4,,,,,,,,,7,,,55,75
25248,note_on,2,0,3,,,,,,,,,5,,,64,75
25248,note_on,128,0,2,,,,,,,,,6,,,67,75
25248,note_on,2,0,1,,,,,,,,,1,,,64,75
25342,note_on,94,0,2,,,,,,,,,6,,,67,0
25344,note_on,0,0,1,,,,,,,,,1,,,66,75
25344,note_on,2,0,2,,,,,,,,,6,,,71,75
25344,note_on,96,0,1,,,,,,,,,1,,,64,0
25408,note_on,160,0,4,,,,,,,,,7,,,55,0
25438,note_on,94,0,2,,,,,,,,,6,,,71,0
25440,note_on,96,0,1,,,,,,,,,1,,,66,0
25440,note_on,0,0,1,,,,,,,,,1,,,62,75
25440,note_on,32,0,4,,,,,,,,,7,,,56,75
25440,note_on,2,0,2,,,,,,,,,6,,,74,75
25534,note_on,94,0,2,,,,,,,,,6,,,74,0
25534,note_on,94,0,4,,,,,,,,,7,,,56,0
25536,note_on,2,0,2,,,,,,,,,6,,,73,75
25536,note_on,96,0,1,,,,,,,,,1,,,62,0
25536,note_on,2,0,4,,,,,,,,,7,,,57,75
25536,note_on,0,0,1,,,,,,,,,1,,,61,75
25582,note_on,46,0,2,,,,,,,,,6,,,73,0
25584,note_on,0,0,1,,,,,,,,,1,,,62,75
25584,note_on,48,0,1,,,,,,,,,1,,,61,0
25584,note_on,2,0,2,,,,,,,,,6,,,71,75
25630,note_on,46,0,2,,,,,,,,,6,,,71,0
25632,note_on,0,0,1,,,,,,,,,1,,,64,75
25632,note_on,48,0,1,,,,,,,,,1,,,62,0
25632,note_on,2,0,2,,,,,,,,,6,,,73,75
25696,note_on,160,0,4,,,,,,,,,7,,,57,0
25696,note_on,448,0,3,,,,,,,,,5,,,64,0
25726,note_on,94,0,2,,,,,,,,,6,,,73,0
25728,note_on,0,0,1,,,,,,,,,1,,,66,75
25728,note_on,32,0,4,,,,,,,,,7,,,50,75
25728,note_on,2,0,2,,,,,,,,,6,,,74,75
25728,note_on,96,0,1,,,,,,,,,1,,,64,0
25728,note_on,32,0,3,,,,,,,,,5,,,66,75
25822,note_on,94,0,3,,,,,,,,,5,,,66,0
25822,note_on,94,0,2,,,,,,,,,6,,,74,0
25822,note_on,94,0,4,,,,,,,,,7,,,50,0
25824,note_on,2,0,3,,,,,,,,,5,,,64,75
25824,note_on,0,0,1,,,,,,,,,1,,,64,92
25824,note_on,2,0,4,,,,,,,,,7,,,49,75
25824,note_on,96,0,1,,,,,,,,,1,,,66,0
25824,note_on,2,0,2,,,,,,,,,6,,,69,75
25870,note_on,46,0,3,,,,,,,,,5,,,64,0
25870,note_on,46,0,4,,,,,,,,,7,,,49,0
25872,note_on,0,0,1,,,,,,,,,1,,,66,92
25872,note_on,48,0,1,,,,,,,,,1,,,64,0
25872,note_on,2,0,4,,,,,,,,,7,,,50,75
25872,note_on,2,0,3,,,,,,,,,5,,,66,75
25918,note_on,46,0,4,,,,,,,,,7,,,50,0
25918,note_on,46,0,3,,,,,,,,,5,,,66,0
25920,note_on,2,0,4,,,,,,,,,7,,,52,75
25920,note_on,48,0,1,,,,,,,,,1,,,66,0
25920,note_on,2,0,3,,,,,,,,,5,,,67,75
25920,note_on,0,0,1,,,,,,,,,1,,,67,92
26014,note_on,94,0,3,,,,,,,,,5,,,67,0
26014,note_on,94,0,4,,,,,,,,,7,,,52,0
26016,note_on,2,0,3,,,,,,,,,5,,,64,75
26016,note_on,96,0,1,,,,,,,,,1,,,67,0
26016,note_on,0,0,1,,,,,,,,,1,,,69,92
26016,note_on,2,0,4,,,,,,,,,7,,,49,75
26080,note_on,256,0,2,,,,,,,,,6,,,69,0
26110,note_on,94,0,3,,,,,,,,,5,,,64,0
26110,note_on,94,0,4,,,,,,,,,7,,,49,0
26112,note_on,96,0,1,,,,,,,,,1,,,69,0
26112,note_on,0,0,1,,,,,,,,,1,,,66,92
26112,note_on,32,0,2,,,,,,,,,6,,,69,75
26112,note_on,2,0,4,,,,,,,,,7,,,50,75
26112,note_on,2,0,3,,,,,,,,,5,,,66,75
26160,note_on,0,0,1,,,,,,,,,1,,,64,92
26160,note_on,48,0,1,,,,,,,,,1,,,66,0
26208,note_on,0,0,1,,,,,,,,,1,,,62,92
26208,note_on,48,0,1,,,,,,,,,1,,,64,0
26256,note_on,0,0,1,,,,,,,,,1,,,64,92
26256,note_on,48,0,1,,,,,,,,,1,,,62,0
26272,note_on,160,0,3,,,,,,,,,5,,,66,0
26272,note_on,160,0,4,,,,,,,,,7,,,50,0
26272,note_on,160,0,2,,,,,,,,,6,,,69,0
26304,note_on,48,0,1,,,,,,,,,1,,,64,0
26304,note_on,0,0,1,,,,,,,,,1,,,66,92
26352,note_on,48,0,1,,,,,,,,,1,,,66,0
26352,note_on,0,0,1,,,,,,,,,1,,,67,92
26400,note_on,128,0,4,,,,,,,,,7,,,50,75
26400,note_on,128,0,2,,,,,,,,,6,,,74,75
26400,note_on,128,0,3,,,,,,,,,5,,,66,75
26400,note_on,48,0,1,,,,,,,,,1,,,67,0
26400,note_on,0,0,1,,,,,,,,,1,,,69,92
26496,note_on,0,0,1,,,,,,,,,1,,,71,92
26496,note_on,96,0,1,,,,,,,,,1,,,69,0
26544,note_on,0,0,1,,,,,,,,,1,,,73,92
26544,note_on,48,0,1,,,,,,,,,1,,,71,0
26560,note_on,160,0,3,,,,,,,,,5,,,66,0
26560,note_on,160,0,4,,,,,,,,,7,,,50,0
26560,note_on,160,0,2,,,,,,,,,6,,,74,0
26592,note_on,48,0,1,,,,,,,,,1,,,73,0
26592,note_on,0,0,1,,,,,,,,,1,,,74,108
26686,note_on,94,0,1,,,,,,,,,1,,,74,0
26688,note_on,128,0,2,,,,,,,,,6,,,66,75
26688,note_on,128,0,4,,,,,,,,,7,,,50,75
26688,note_on,128,0,3,,,,,,,,,5,,,62,75
26688,note_on,2,0,1,,,,,,,,,1,,,62,108
26734,note_on,46,0,2,,,,,,,,,6,,,66,0
26736,note_on,2,0,2,,,,,,,,,6,,,67,75
26782,note_on,46,0,2,,,,,,,,,6,,,67,0
26782,note_on,94,0,4,,,,,,,,,7,,,50,0
26782,note_on,94,0,1,,,,,,,,,1,,,62,0
26784,note_on,2,0,1,,,,,,,,,1,,,66,108
26784,note_on,2,0,4,,,,,,,,,7,,,57,75
26784,note_on,2,0,2,,,,,,,,,6,,,64,75
26832,note_on,48,0,1,,,,,,,,,1,,,66,0
26832,note_on,0,0,1,,,,,,,,,1,,,64,108
26848,note_on,160,0,3,,,,,,,,,5,,,62,0
26856,note_on,24,0,1,,,,,,,,,1,,,64,0
26856,note_on,0,0,1,,,,,,,,,1,,,66,108
26878,note_on,94,0,4,,,,,,,,,7,,,57,0
26880,note_on,32,0,3,,,,,,,,,5,,,61,75
26880,note_on,2,0,4,,,,,,,,,7,,,45,75
26880,note_on,0,0,1,,,,,,,,,1,,,64,108
26880,note_on,24,0,1,,,,,,,,,1,,,66,0
26944,note_on,160,0,2,,,,,,,,,6,,,64,0
26974,note_on,94,0,4,,,,,,,,,7,,,45,0
26974,note_on,94,0,1,,,,,,,,,1,,,64,0
26974,note_on,94,0,3,,,,,,,,,5,,,61,0
26976,note_on,32,0,2,,,,,,,,,6,,,81,108
26976,note_on,2,0,3,,,,,,,,,5,,,66,108
26976,note_on,2,0,1,,,,,,,,,1,,,62,108
26976,note_on,2,0,4,,,,,,,,,7,,,50,108
27070,note_on,94,0,2,,,,,,,,,6,,,81,0
27070,note_on,94,0,3,,,,,,,,,5,,,66,0
27072,note_on,2,0,2,,,,,,,,,6,,,78,108
27072,note_on,2,0,3,,,,,,,,,5,,,69,108
27136,note_on,160,0,4,,,,,,,,,7,,,50,0
27166,note_on,94,0,3,,,,,,,,,5,,,69,0
27166,note_on,94,0,2,,,,,,,,,6,,,78,0
27168,note_on,2,0,3,,,,,,,,,5,,,61,108
27168,note_on,32,0,4,,,,,,,,,7,,,57,108
27168,note_on,2,0,2,,,,,,,,,6,,,76,108
27232,note_on,256,0,1,,,,,,,,,1,,,62,0
27262,note_on,94,0,3,,,,,,,,,5,,,61,0
27262,note_on,94,0,4,,,,,,,,,7,,,57,0
27262,note_on,94,0,2,,,,,,,,,6,,,76,0
27264,note_on,2,0,2,,,,,,,,,6,,,74,108
27264,note_on,2,0,3,,,,,,,,,5,,,57,108
27264,note_on,2,0,4,,,,,,,,,7,,,50,108
27358,note_on,94,0,2,,,,,,,,,6,,,74,0
27358,note_on,94,0,3,,,,,,,,,5,,,57,0
27360,note_on,2,0,2,,,,,,,,,6,,,69,108
27360,note_on,2,0,3,,,,,,,,,5,,,66,108
27424,note_on,160,0,4,,,,,,,,,7,,,50,0
27454,note_on,94,0,2,,,,,,,,,6,,,69,0
27454,note_on,94,0,3,,,,,,,,,5,,,66,0
27456,note_on,2,0,3,,,,,,,,,5,,,61,108
27456,note_on,2,0,2,,,,,,,,,6,,,67,108
27456,note_on,32,0,4,,,,,,,,,7,,,57,108
27550,note_on,94,0,2,,,,,,,,,6,,,67,0
27550,note_on,94,0,4,,,,,,,,,7,,,57,0
27550,note_on,94,0,3,,,,,,,,,5,,,61,0
27552,note_on,2,0,2,,,,,,,,,6,,,66,108
27552,note_on,2,0,4,,,,,,,,,7,,,50,108
27552,note_on,2,0,3,,,,,,,,,5,,,57,108
27598,note_on,46,0,2,,,,,,,,,6,,,66,0
27600,note_on,2,0,2,,,,,,,,,6,,,64,108
27646,note_on,46,0,2,,,,,,,,,6,,,64,0
27648,note_on,2,0,2,,,,,,,,,6,,,62,108
27712,note_on,160,0,3,,,,,,,,,5,,,57,0
27712,note_on,160,0,4,,,,,,,,,7,,,50,0
27742,note_on,94,0,2,,,,,,,,,6,,,62,0
27744,note_on,2,0,2,,,,,,,,,6,,,61,108
27744,note_on,32,0,4,,,,,,,,,7,,,45,108
27744,note_on,32,0,3,,,,,,,,,5,,,57,108
27838,note_on,94,0,2,,,,,,,,,6,,,61,0
27838,note_on,94,0,4,,,,,,,,,7,,,45,0
27838,note_on,94,0,3,,,,,,,,,5,,,57,0
27840,note_on,2,0,3,,,,,,,,,5,,,62,108
27840,note_on,2,0,2,,,,,,,,,6,,,62,108
27840,note_on,2,0,4,,,,,,,,,7,,,50,108
27886,note_on,46,0,3,,,,,,,,,5,,,62,0
27886,note_on,46,0,2,,,,,,,,,6,,,62,0
27886,note_on,46,0,4,,,,,,,,,7,,,50,0
27888,note_on,2,0,2,,,,,,,,,6,,,64,108
27888,note_on,2,0,4,,,,,,,,,7,,,52,108
27888,note_on,2,0,3,,,,,,,,,5,,,64,108
27934,note_on,46,0,4,,,,,,,,,7,,,52,0
27934,note_on,46,0,3,,,,,,,,,5,,,64,0
27934,note_on,46,0,2,,,,,,,,,6,,,64,0
27936,note_on,2,0,2,,,,,,,,,6,,,66,108
27936,note_on,2,0,4,,,,,,,,,7,,,54,108
27936,note_on,2,0,3,,,,,,,,,5,,,66,108
28030,note_on,94,0,3,,,,,,,,,5,,,66,0
28030,note_on,94,0,4,,,,,,,,,7,,,54,0
28030,note_on,94,0,2,,,,,,,,,6,,,66,0
28032,note_on,2,0,2,,,,,,,,,6,,,64,108
28032,note_on,2,0,4,,,,,,,,,7,,,52,108
28032,note_on,2,0,3,,,,,,,,,5,,,64,108
28126,note_on,94,0,2,,,,,,,,,6,,,64,0
28126,note_on,94,0,4,,,,,,,,,7,,,52,0
28126,note_on,94,0,3,,,,,,,,,5,,,64,0
28128,note_on,2,0,3,,,,,,,,,5,,,62,92
28128,note_on,2,0,4,,,,,,,,,7,,,50,92
28128,note_on,2,0,2,,,,,,,,,6,,,62,108
28174,note_on,46,0,3,,,,,,,,,5,,,62,0
28174,note_on,46,0,2,,,,,,,,,6,,,62,0
28174,note_on,46,0,4,,,,,,,,,7,,,50,0
28176,note_on,2,0,2,,,,,,,,,6,,,64,108
28176,note_on,2,0,3,,,,,,,,,5,,,64,92
28176,note_on,2,0,4,,,,,,,,,7,,,52,92
28222,note_on,46,0,3,,,,,,,,,5,,,64,0
28222,note_on,46,0,2,,,,,,,,,6,,,64,0
28222,note_on,46,0,4,,,,,,,,,7,,,52,0
28224,note_on,2,0,3,,,,,,,,,5,,,66,92
28224,note_on,2,0,2,,,,,,,,,6,,,66,108
28224,note_on,2,0,4,,,,,,,,,7,,,54,92
28318,note_on,94,0,4,,,,,,,,,7,,,54,0
28318,note_on,94,0,3,,,,,,,,,5,,,66,0
28318,note_on,94,0,2,,,,,,,,,6,,,66,0
28320,note_on,2,0,2,,,,,,,,,6,,,64,108
28320,note_on,2,0,4,,,,,,,,,7,,,52,92
28320,note_on,2,0,3,,,,,,,,,5,,,64,92
28414,note_on,94,0,2,,,,,,,,,6,,,64,0
28414,note_on,94,0,3,,,,,,,,,5,,,64,0
28414,note_on,94,0,4,,,,,,,,,7,,,52,0
28416,note_on,2,0,4,,,,,,,,,7,,,50,92
28416,note_on,2,0,3,,,,,,,,,5,,,62,92
28416,note_on,2,0,2,,,,,,,,,6,,,62,108
28416,note_on,1184,0,1,,,,,,,,,1,,,66,75
28576,note_on,160,0,4,,,,,,,,,7,,,50,0
28576,note_on,160,0,2,,,,,,,,,6,,,62,0
28576,note_on,160,0,3,,,,,,,,,5,,,62,0
28672,note_on,256,0,1,,,,,,,,,1,,,66,0
28704,note_on,32,0,1,,,,,,,,,1,,,66,75
28992,note_on,416,0,3,,,,,,,,,5,,,59,75
28992,note_on,416,0,2,,,,,,,,,6,,,62,75
29038,note_on,46,0,3,,,,,,,,,5,,,59,0
29038,note_on,46,0,2,,,,,,,,,6,,,62,0
29040,note_on,2,0,2,,,,,,,,,6,,,64,75
29040,note_on,2,0,3,,,,,,,,,5,,,61,75
29086,note_on,46,0,2,,,,,,,,,6,,,64,0
29086,note_on,46,0,3,,,,,,,,,5,,,61,0
29088,note_on,2,0,2,,,,,,,,,6,,,66,75
29088,note_on,2,0,3,,,,,,,,,5,,,62,75
29182,note_on,94,0,3,,,,,,,,,5,,,62,0
29182,note_on,94,0,2,,,,,,,,,6,,,66,0
29184,note_on,2,0,3,,,,,,,,,5,,,61,75
29184,note_on,2,0,2,,,,,,,,,6,,,64,75
29278,note_on,94,0,2,,,,,,,,,6,,,64,0
29278,note_on,94,0,3,,,,,,,,,5,,,61,0
29280,note_on,2,0,3,,,,,,,,,5,,,59,75
29280,note_on,2,0,2,,,,,,,,,6,,,62,75
29326,note_on,46,0,2,,,,,,,,,6,,,62,0
29326,note_on,46,0,3,,,,,,,,,5,,,59,0
29328,note_on,2,0,3,,,,,,,,,5,,,61,75
29328,note_on,2,0,2,,,,,,,,,6,,,64,75
29374,note_on,46,0,2,,,,,,,,,6,,,64,0
29374,note_on,46,0,3,,,,,,,,,5,,,61,0
29376,note_on,2,0,2,,,,,,,,,6,,,66,75
29376,note_on,2,0,3,,,,,,,,,5,,,62,75
29470,note_on,94,0,3,,,,,,,,,5,,,62,0
29470,note_on,94,0,2,,,,,,,,,6,,,66,0
29472,note_on,2,0,3,,,,,,,,,5,,,61,75
29472,note_on,2,0,2,,,,,,,,,6,,,64,75
29536,note_on,832,0,1,,,,,,,,,1,,,66,0
29566,note_on,94,0,2,,,,,,,,,6,,,64,0
29566,note_on,94,0,3,,,,,,,,,5,,,61,0
29568,note_on,2,0,2,,,,,,,,,6,,,62,75
29568,note_on,32,0,1,,,,,,,,,1,,,66,92
29568,note_on,2,0,3,,,,,,,,,5,,,59,75
29614,note_on,46,0,3,,,,,,,,,5,,,59,0
29614,note_on,46,0,2,,,,,,,,,6,,,62,0
29616,note_on,2,0,3,,,,,,,,,5,,,61,75
29616,note_on,2,0,2,,,,,,,,,6,,,64,75
29662,note_on,46,0,3,,,,,,,,,5,,,61,0
29662,note_on,46,0,2,,,,,,,,,6,,,64,0
29664,note_on,2,0,3,,,,,,,,,5,,,62,75
29664,note_on,2,0,2,,,,,,,,,6,,,66,75
29728,note_on,160,0,1,,,,,,,,,1,,,66,0
29758,note_on,94,0,3,,,,,,,,,5,,,62,0
29758,note_on,94,0,2,,,,,,,,,6,,,66,0
29760,note_on,2,0,3,,,,,,,,,5,,,61,75
29760,note_on,2,0,2,,,,,,,,,6,,,64,75
29760,note_on,32,0,1,,,,,,,,,1,,,66,92
29854,note_on,94,0,2,,,,,,,,,6,,,64,0
29854,note_on,94,0,1,,,,,,,,,1,,,66,0
29854,note_on,94,0,3,,,,,,,,,5,,,61,0
29856,note_on,2,0,1,,,,,,,,,1,,,71,92
29856,note_on,2,0,2,,,,,,,,,6,,,62,75
29856,note_on,1280,0,4,,,,,,,,,7,,,47,75
29856,note_on,2,0,3,,,,,,,,,5,,,59,75
29904,note_on,0,0,1,,,,,,,,,1,,,73,92
29904,note_on,48,0,1,,,,,,,,,1,,,71,0
29952,note_on,0,0,1,,,,,,,,,1,,,74,92
29952,note_on,48,0,1,,,,,,,,,1,,,73,0
30016,note_on,160,0,3,,,,,,,,,5,,,59,0
30016,note_on,160,0,2,,,,,,,,,6,,,62,0
30016,note_on,160,0,4,,,,,,,,,7,,,47,0
30048,note_on,96,0,1,,,,,,,,,1,,,74,0
30048,note_on,32,0,4,,,,,,,,,7,,,46,75
30048,note_on,32,0,3,,,,,,,,,5,,,66,75
30048,note_on,32,0,2,,,,,,,,,6,,,73,75
30048,note_on,0,0,1,,,,,,,,,1,,,73,92
30142,note_on,94,0,4,,,,,,,,,7,,,46,0
30142,note_on,94,0,2,,,,,,,,,6,,,73,0
30142,note_on,94,0,3,,,,,,,,,5,,,66,0
30144,note_on,2,0,2,,,,,,,,,6,,,74,75
30144,note_on,2,0,3,,,,,,,,,5,,,66,75
30144,note_on,2,0,4,,,,,,,,,7,,,47,75
30144,note_on,0,0,1,,,,,,,,,1,,,71,92
30144,note_on,96,0,1,,,,,,,,,1,,,73,0
30238,note_on,94,0,3,,,,,,,,,5,,,66,0
30238,note_on,94,0,4,,,,,,,,,7,,,47,0
30238,note_on,94,0,2,,,,,,,,,6,,,74,0
30240,note_on,2,0,3,,,,,,,,,5,,,64,75
30240,note_on,2,0,4,,,,,,,,,7,,,49,75
30240,note_on,0,0,1,,,,,,,,,1,,,69,92
30240,note_on,96,0,1,,,,,,,,,1,,,71,0
30240,note_on,2,0,2,,,,,,,,,6,,,69,75
30334,note_on,94,0,3,,,,,,,,,5,,,64,0
30336,note_on,0,0,1,,,,,,,,,1,,,67,92
30336,note_on,2,0,3,,,,,,,,,5,,,67,75
30336,note_on,96,0,1,,,,,,,,,1,,,69,0
30400,note_on,160,0,4,,,,,,,,,7,,,49,0
30400,note_on,160,0,2,,,,,,,,,6,,,69,0
30430,note_on,94,0,3,,,,,,,,,5,,,67,0
30432,note_on,0,0,1,,,,,,,,,1,,,66,92
30432,note_on,32,0,4,,,,,,,,,7,,,50,75
30432,note_on,32,0,2,,,,,,,,,6,,,69,75
30432,note_on,96,0,1,,,,,,,,,1,,,67,0
30432,note_on,2,0,3,,,,,,,,,5,,,66,75
30478,note_on,46,0,4,,,,,,,,,7,,,50,0
30480,note_on,2,0,4,,,,,,,,,7,,,49,75
30526,note_on,94,0,2,,,,,,,,,6,,,69,0
30526,note_on,46,0,4,,,,,,,,,7,,,49,0
30526,note_on,94,0,1,,,,,,,,,1,,,66,0
30528,note_on,2,0,2,,,,,,,,,6,,,74,75
30528,note_on,2,0,4,,,,,,,,,7,,,47,75
30528,note_on,2,0,1,,,,,,,,,1,,,71,92
30592,note_on,160,0,3,,,,,,,,,5,,,66,0
30622,note_on,94,0,1,,,,,,,,,1,,,71,0
30622,note_on,94,0,2,,,,,,,,,6,,,74,0
30622,note_on,94,0,4,,,,,,,,,7,,,47,0
30624,note_on,0,0,3,,,,,,,,,5,,,73,75
30624,note_on,2,0,2,,,,,,,,,6,,,78,75
30624,note_on,2,0,4,,,,,,,,,7,,,46,75
30624,note_on,32,0,3,,,,,,,,,5,,,66,75
30624,note_on,2,0,1,,,,,,,,,1,,,73,92
30718,note_on,94,0,4,,,,,,,,,7,,,46,0
30718,note_on,94,0,1,,,,,,,,,1,,,73,0
30718,note_on,94,0,3,,,,,,,,,5,,,66,0
30718,note_on,0,0,3,,,,,,,,,5,,,73,0
30718,note_on,94,0,2,,,,,,,,,6,,,78,0
30720,note_on,2,0,4,,,,,,,,,7,,,47,75
30720,note_on,2,0,1,,,,,,,,,1,,,74,92
30720,note_on,2,0,3,,,,,,,,,5,,,66,75
30720,note_on,2,0,2,,,,,,,,,6,,,74,75
30814,note_on,94,0,3,,,,,,,,,5,,,66,0
30814,note_on,94,0,2,,,,,,,,,6,,,74,0
30816,note_on,0,0,1,,,,,,,,,1,,,73,92
30816,note_on,96,0,1,,,,,,,,,1,,,74,0
30816,note_on,2,0,3,,,,,,,,,5,,,64,75
30816,note_on,2,0,2,,,,,,,,,6,,,73,75
30910,note_on,94,0,3,,,,,,,,,5,,,64,0
30910,note_on,94,0,2,,,,,,,,,6,,,73,0
30910,note_on,94,0,1,,,,,,,,,1,,,73,0
30912,note_on,2,0,3,,,,,,,,,5,,,62,75
30912,note_on,2,0,1,,,,,,,,,1,,,71,92
30912,note_on,2,0,2,,,,,,,,,6,,,71,75
30976,note_on,256,0,4,,,,,,,,,7,,,47,0
31006,note_on,94,0,3,,,,,,,,,5,,,62,0
31006,note_on,94,0,1,,,,,,,,,1,,,71,0
31006,note_on,94,0,2,,,,,,,,,6,,,71,0
31008,note_on,2,0,2,,,,,,,,,6,,,62,92
31008,note_on,2,0,3,,,,,,,,,5,,,62,92
31008,note_on,32,0,4,,,,,,,,,7,,,47,92
31054,note_on,46,0,3,,,,,,,,,5,,,62,0
31054,note_on,46,0,4,,,,,,,,,7,,,47,0
31054,note_on,46,0,2,,,,,,,,,6,,,62,0
31056,note_on,2,0,2,,,,,,,,,6,,,64,92
31056,note_on,2,0,4,,,,,,,,,7,,,49,92
31056,note_on,2,0,3,,,,,,,,,5,,,64,92
31102,note_on,46,0,2,,,,,,,,,6,,,64,0
31102,note_on,46,0,4,,,,,,,,,7,,,49,0
31102,note_on,46,0,3,,,,,,,,,5,,,64,0
31104,note_on,98,0,1,,,,,,,,,1,,,66,75
31104,note_on,2,0,2,,,,,,,,,6,,,66,92
31104,note_on,2,0,4,,,,,,,,,7,,,50,92
31104,note_on,2,0,3,,,,,,,,,5,,,66,92
31198,note_on,94,0,1,,,,,,,,,1,,,66,0
31198,note_on,94,0,2,,,,,,,,,6,,,66,0
31198,note_on,94,0,4,,,,,,,,,7,,,50,0
31198,note_on,94,0,3,,,,,,,,,5,,,66,0
31200,note_on,2,0,2,,,,,,,,,6,,,62,92
31200,note_on,2,0,1,,,,,,,,,1,,,71,75
31200,note_on,2,0,4,,,,,,,,,7,,,47,92
31200,note_on,2,0,3,,,,,,,,,5,,,62,92
31294,note_on,94,0,1,,,,,,,,,1,,,71,0
31294,note_on,94,0,3,,,,,,,,,5,,,62,0
31294,note_on,94,0,4,,,,,,,,,7,,,47,0
31294,note_on,94,0,2,,,,,,,,,6,,,62,0
31296,note_on,2,0,4,,,,,,,,,7,,,52,92
31296,note_on,2,0,1,,,,,,,,,1,,,67,75
31296,note_on,2,0,2,,,,,,,,,6,,,67,92
31296,note_on,2,0,3,,,,,,,,,5,,,59,92
31342,note_on,46,0,4,,,,,,,,,7,,,52,0
31342,note_on,46,0,2,,,,,,,,,6,,,67,0
31344,note_on,2,0,4,,,,,,,,,7,,,54,92
31344,note_on,2,0,2,,,,,,,,,6,,,66,92
31390,note_on,46,0,4,,,,,,,,,7,,,54,0
31390,note_on,46,0,2,,,,,,,,,6,,,66,0
31392,note_on,2,0,4,,,,,,,,,7,,,55,92
31392,note_on,2,0,2,,,,,,,,,6,,,64,92
31486,note_on,94,0,4,,,,,,,,,7,,,55,0
31486,note_on,94,0,2,,,,,,,,,6,,,64,0
31488,note_on,2,0,4,,,,,,,,,7,,,54,92
31488,note_on,2,0,2,,,,,,,,,6,,,66,92
31552,note_on,256,0,3,,,,,,,,,5,,,59,0
31582,note_on,94,0,4,,,,,,,,,7,,,54,0
31582,note_on,94,0,2,,,,,,,,,6,,,66,0
31584,note_on,2,0,2,,,,,,,,,6,,,67,92
31584,note_on,32,0,3,,,,,,,,,5,,,59,92
31584,note_on,2,0,4,,,,,,,,,7,,,52,92
31680,note_on,0,0,1,,,,,,,,,1,,,71,75
31680,note_on,384,0,1,,,,,,,,,1,,,67,0
31744,note_on,160,0,4,,,,,,,,,7,,,52,0
31744,note_on,160,0,2,,,,,,,,,6,,,67,0
31744,note_on,160,0,3,,,,,,,,,5,,,59,0
31776,note_on,0,0,1,,,,,,,,,1,,,69,75
31776,note_on,96,0,1,,,,,,,,,1,,,71,0
31872,note_on,128,0,4,,,,,,,,,7,,,50,92
31872,note_on,0,0,1,,,,,,,,,1,,,68,75
31872,note_on,96,0,1,,,,,,,,,1,,,69,0
31872,note_on,128,0,3,,,,,,,,,5,,,59,92
31872,note_on,128,0,2,,,,,,,,,6,,,64,92
31872,note_on,0,0,2,,,,,,,,,6,,,68,92
31968,note_on,0,0,1,,,,,,,,,1,,,66,75
31968,note_on,96,0,1,,,,,,,,,1,,,68,0
32032,note_on,160,0,2,,,,,,,,,6,,,64,0
32032,note_on,160,0,3,,,,,,,,,5,,,59,0
32032,note_on,160,0,4,,,,,,,,,7,,,50,0
32032,note_on,0,0,2,,,,,,,,,6,,,68,0
32064,note_on,0,0,1,,,,,,,,,1,,,64,75
32064,note_on,96,0,1,,,,,,,,,1,,,66,0
32160,note_on,0,0,1,,,,,,,,,1,,,69,92
32160,note_on,128,0,4,,,,,,,,,7,,,45,92
32160,note_on,96,0,1,,,,,,,,,1,,,64,0
32160,note_on,128,0,2,,,,,,,,,6,,,69,92
32160,note_on,128,0,3,,,,,,,,,5,,,61,92
32206,note_on,46,0,3,,,,,,,,,5,,,61,0
32206,note_on,46,0,4,,,,,,,,,7,,,45,0
32208,note_on,2,0,4,,,,,,,,,7,,,47,92
32208,note_on,2,0,3,,,,,,,,,5,,,62,92
32254,note_on,46,0,4,,,,,,,,,7,,,47,0
32254,note_on,46,0,3,,,,,,,,,5,,,62,0
32256,note_on,2,0,4,,,,,,,,,7,,,49,92
32256,note_on,2,0,3,,,,,,,,,5,,,64,92
32350,note_on,94,0,4,,,,,,,,,7,,,49,0
32350,note_on,94,0,3,,,,,,,,,5,,,64,0
32352,note_on,2,0,3,,,,,,,,,5,,,62,92
32352,note_on,2,0,4,,,,,,,,,7,,,47,92
32416,note_on,256,0,2,,,,,,,,,6,,,69,0
32446,note_on,94,0,3,,,,,,,,,5,,,62,0
32446,note_on,94,0,4,,,,,,,,,7,,,47,0
32448,note_on,2,0,3,,,,,,,,,5,,,61,92
32448,note_on,32,0,2,,,,,,,,,6,,,69,92
32448,note_on,2,0,4,,,,,,,,,7,,,45,92
32544,note_on,384,0,1,,,,,,,,,1,,,69,0
32544,note_on,0,0,1,,,,,,,,,1,,,73,92
32608,note_on,160,0,3,,,,,,,,,5,,,61,0
32608,note_on,160,0,4,,,,,,,,,7,,,45,0
32608,note_on,160,0,2,,,,,,,,,6,,,69,0
32640,note_on,96,0,1,,,,,,,,,1,,,73,0
32640,note_on,0,0,1,,,,,,,,,1,,,71,92
32736,note_on,128,0,2,,,,,,,,,6,,,66,92
32736,note_on,128,0,4,,,,,,,,,7,,,54,92
32736,note_on,0,0,1,,,,,,,,,1,,,70,92
32736,note_on,0,0,2,,,,,,,,,6,,,70,92
32736,note_on,128,0,3,,,,,,,,,5,,,61,92
32736,note_on,96,0,1,,,,,,,,,1,,,71,0
32832,note_on,96,0,1,,,,,,,,,1,,,70,0
32832,note_on,0,0,1,,,,,,,,,1,,,68,92
32896,note_on,160,0,4,,,,,,,,,7,,,54,0
32928,note_on,96,0,1,,,,,,,,,1,,,68,0
32928,note_on,32,0,4,,,,,,,,,7,,,52,92
32928,note_on,0,0,1,,,,,,,,,1,,,66,92
32992,note_on,256,0,3,,,,,,,,,5,,,61,0
32992,note_on,256,0,2,,,,,,,,,6,,,66,0
32992,note_on,0,0,2,,,,,,,,,6,,,70,0
33022,note_on,94,0,4,,,,,,,,,7,,,52,0
33024,note_on,0,0,1,,,,,,,,,1,,,71,92
33024,note_on,96,0,1,,,,,,,,,1,,,66,0
33024,note_on,32,0,2,,,,,,,,,6,,,71,108
33024,note_on,2,0,4,,,,,,,,,7,,,47,108
33024,note_on,32,0,3,,,,,,,,,5,,,62,108
33070,note_on,46,0,4,,,,,,,,,7,,,47,0
33070,note_on,46,0,3,,,,,,,,,5,,,62,0
33072,note_on,2,0,4,,,,,,,,,7,,,49,108
33072,note_on,2,0,3,,,,,,,,,5,,,64,108
33118,note_on,46,0,3,,,,,,,,,5,,,64,0
33118,note_on,46,0,4,,,,,,,,,7,,,49,0
33120,note_on,2,0,3,,,,,,,,,5,,,66,108
33120,note_on,2,0,4,,,,,,,,,7,,,50,108
33184,note_on,160,0,1,,,,,,,,,1,,,71,0
33184,note_on,160,0,2,,,,,,,,,6,,,71,0
33214,note_on,94,0,3,,,,,,,,,5,,,66,0
33214,note_on,94,0,4,,,,,,,,,7,,,50,0
33216,note_on,2,0,3,,,,,,,,,5,,,64,108
33216,note_on,2,0,4,,,,,,,,,7,,,49,108
33216,note_on,32,0,1,,,,,,,,,1,,,66,92
33310,note_on,94,0,3,,,,,,,,,5,,,64,0
33310,note_on,94,0,1,,,,,,,,,1,,,66,0
33310,note_on,94,0,4,,,,,,,,,7,,,49,0
33312,note_on,128,0,2,,,,,,,,,6,,,62,108
33312,note_on,2,0,3,,,,,,,,,5,,,62,108
33312,note_on,2,0,4,,,,,,,,,7,,,47,108
33358,note_on,46,0,3,,,,,,,,,5,,,62,0
33358,note_on,46,0,4,,,,,,,,,7,,,47,0
33358,note_on,46,0,2,,,,,,,,,6,,,62,0
33360,note_on,2,0,2,,,,,,,,,6,,,64,108
33360,note_on,2,0,4,,,,,,,,,7,,,49,108
33360,note_on,2,0,3,,,,,,,,,5,,,64,108
33406,note_on,46,0,3,,,,,,,,,5,,,64,0
33406,note_on,46,0,4,,,,,,,,,7,,,49,0
33406,note_on,46,0,2,,,,,,,,,6,,,64,0
33408,note_on,2,0,2,,,,,,,,,6,,,66,108
33408,note_on,2,0,3,,,,,,,,,5,,,66,108
33408,note_on,2,0,4,,,,,,,,,7,,,50,108
33502,note_on,94,0,2,,,,,,,,,6,,,66,0
33502,note_on,94,0,3,,,,,,,,,5,,,66,0
33502,note_on,94,0,4,,,,,,,,,7,,,50,0
33504,note_on,2,0,4,,,,,,,,,7,,,49,108
33504,note_on,2,0,3,,,,,,,,,5,,,64,108
33504,note_on,2,0,2,,,,,,,,,6,,,64,108
33598,note_on,94,0,3,,,,,,,,,5,,,64,0
33598,note_on,94,0,2,,,,,,,,,6,,,64,0
33598,note_on,94,0,4,,,,,,,,,7,,,49,0
33600,note_on,2,0,2,,,,,,,,,6,,,62,108
33600,note_on,2,0,4,,,,,,,,,7,,,47,108
33600,note_on,2,0,3,,,,,,,,,5,,,62,108
33646,note_on,46,0,2,,,,,,,,,6,,,62,0
33646,note_on,46,0,4,,,,,,,,,7,,,47,0
33646,note_on,46,0,3,,,,,,,,,5,,,62,0
33648,note_on,2,0,3,,,,,,,,,5,,,64,108
33648,note_on,2,0,2,,,,,,,,,6,,,64,108
33648,note_on,2,0,4,,,,,,,,,7,,,49,108
33694,note_on,46,0,4,,,,,,,,,7,,,49,0
33694,note_on,46,0,2,,,,,,,,,6,,,64,0
33694,note_on,46,0,3,,,,,,,,,5,,,64,0
33696,note_on,2,0,3,,,,,,,,,5,,,66,108
33696,note_on,2,0,4,,,,,,,,,7,,,50,108
33696,note_on,2,0,2,,,,,,,,,6,,,66,108
33790,note_on,94,0,3,,,,,,,,,5,,,66,0
33790,note_on,94,0,4,,,,,,,,,7,,,50,0
33790,note_on,94,0,2,,,,,,,,,6,,,66,0
33792,note_on,2,0,3,,,,,,,,,5,,,62,108
33792,note_on,2,0,4,,,,,,,,,7,,,47,108
33792,note_on,2,0,2,,,,,,,,,6,,,62,108
33886,note_on,94,0,3,,,,,,,,,5,,,62,0
33886,note_on,94,0,4,,,,,,,,,7,,,47,0
33886,note_on,94,0,2,,,,,,,,,6,,,62,0
33888,note_on,2,0,4,,,,,,,,,7,,,52,92
33888,note_on,578,0,1,,,,,,,,,1,,,64,108
33888,note_on,2,0,2,,,,,,,,,6,,,71,92
33888,note_on,2,0,3,,,,,,,,,5,,,64,92
33888,note_on,0,0,3,,,,,,,,,5,,,67,92
33936,note_on,0,0,1,,,,,,,,,1,,,66,108
33936,note_on,48,0,1,,,,,,,,,1,,,64,0
33984,note_on,48,0,1,,,,,,,,,1,,,66,0
33984,note_on,0,0,1,,,,,,,,,1,,,67,108
34048,note_on,160,0,2,,,,,,,,,6,,,71,0
34048,note_on,160,0,4,,,,,,,,,7,,,52,0
34048,note_on,160,0,3,,,,,,,,,5,,,64,0
34048,note_on,0,0,3,,,,,,,,,5,,,67,0
34078,note_on,94,0,1,,,,,,,,,1,,,67,0
34080,note_on,0,0,2,,,,,,,,,6,,,71,92
34080,note_on,32,0,2,,,,,,,,,6,,,63,92
34080,note_on,2,0,1,,,,,,,,,1,,,66,108
34080,note_on,32,0,3,,,,,,,,,5,,,59,92
34174,note_on,94,0,2,,,,,,,,,6,,,63,0
34174,note_on,94,0,3,,,,,,,,,5,,,59,0
34174,note_on,0,0,2,,,,,,,,,6,,,71,0
34174,note_on,94,0,1,,,,,,,,,1,,,66,0
34176,note_on,2,0,2,,,,,,,,,6,,,64,92
34176,note_on,0,0,2,,,,,,,,,6,,,67,92
34176,note_on,2,0,1,,,,,,,,,1,,,64,108
34176,note_on,2,0,3,,,,,,,,,5,,,64,92
34222,note_on,46,0,2,,,,,,,,,6,,,64,0
34222,note_on,0,0,2,,,,,,,,,6,,,67,0
34224,note_on,2,0,2,,,,,,,,,6,,,66,92
34224,note_on,0,0,2,,,,,,,,,6,,,69,92
34224,note_on,48,0,1,,,,,,,,,1,,,64,0
34224,note_on,0,0,1,,,,,,,,,1,,,66,108
34270,note_on,0,0,2,,,,,,,,,6,,,69,0
34270,note_on,46,0,2,,,,,,,,,6,,,66,0
34272,note_on,0,0,2,,,,,,,,,6,,,71,92
34272,note_on,2,0,2,,,,,,,,,6,,,67,92
34272,note_on,48,0,1,,,,,,,,,1,,,66,0
34272,note_on,0,0,1,,,,,,,,,1,,,67,108
34336,note_on,160,0,3,,,,,,,,,5,,,64,0
34366,note_on,94,0,2,,,,,,,,,6,,,67,0
34366,note_on,0,0,2,,,,,,,,,6,,,71,0
34366,note_on,94,0,1,,,,,,,,,1,,,67,0
34368,note_on,0,0,2,,,,,,,,,6,,,69,92
34368,note_on,32,0,3,,,,,,,,,5,,,59,92
34368,note_on,2,0,1,,,,,,,,,1,,,66,108
34368,note_on,2,0,2,,,,,,,,,6,,,66,92
34462,note_on,94,0,2,,,,,,,,,6,,,66,0
34462,note_on,0,0,2,,,,,,,,,6,,,69,0
34462,note_on,94,0,1,,,,,,,,,1,,,66,0
34462,note_on,94,0,3,,,,,,,,,5,,,59,0
34464,note_on,2,0,2,,,,,,,,,6,,,64,92
34464,note_on,0,0,2,,,,,,,,,6,,,67,92
34464,note_on,2,0,1,,,,,,,,,1,,,64,108
34464,note_on,2,0,3,,,,,,,,,5,,,64,92
34510,note_on,46,0,2,,,,,,,,,6,,,64,0
34510,note_on,0,0,2,,,,,,,,,6,,,67,0
34512,note_on,2,0,2,,,,,,,,,6,,,66,92
34512,note_on,0,0,2,,,,,,,,,6,,,69,92
34512,note_on,0,0,1,,,,,,,,,1,,,66,108
34512,note_on,48,0,1,,,,,,,,,1,,,64,0
34558,note_on,0,0,2,,,,,,,,,6,,,69,0
34558,note_on,46,0,2,,,,,,,,,6,,,66,0
34560,note_on,2,0,2,,,,,,,,,6,,,67,92
34560,note_on,0,0,1,,,,,,,,,1,,,67,108
34560,note_on,0,0,2,,,,,,,,,6,,,71,92
34560,note_on,48,0,1,,,,,,,,,1,,,66,0
34624,note_on,160,0,3,,,,,,,,,5,,,64,0
34654,note_on,94,0,1,,,,,,,,,1,,,67,0
34654,note_on,0,0,2,,,,,,,,,6,,,71,0
34654,note_on,94,0,2,,,,,,,,,6,,,67,0
34656,note_on,2,0,2,,,,,,,,,6,,,67,92
34656,note_on,2,0,1,,,,,,,,,1,,,64,108
34656,note_on,32,0,3,,,,,,,,,5,,,64,92
34750,note_on,94,0,1,,,,,,,,,1,,,64,0
34750,note_on,94,0,3,,,,,,,,,5,,,64,0
34750,note_on,94,0,2,,,,,,,,,6,,,67,0
34752,note_on,2,0,1,,,,,,,,,1,,,70,108
34752,note_on,2,0,3,,,,,,,,,5,,,66,92
34752,note_on,2,0,2,,,,,,,,,6,,,66,92
34848,note_on,96,0,2,,,,,,,,,6,,,70,92
34894,note_on,142,0,3,,,,,,,,,5,,,66,0
34894,note_on,46,0,2,,,,,,,,,6,,,66,0
34896,note_on,2,0,3,,,,,,,,,5,,,64,92
34896,note_on,2,0,2,,,,,,,,,6,,,67,92
34912,note_on,160,0,1,,,,,,,,,1,,,70,0
34942,note_on,0,0,2,,,,,,,,,6,,,70,0
34942,note_on,46,0,3,,,,,,,,,5,,,64,0
34942,note_on,46,0,2,,,,,,,,,6,,,67,0
34944,note_on,0,0,2,,,,,,,,,6,,,71,92
34944,note_on,32,0,1,,,,,,,,,1,,,71,108
34944,note_on,2,0,3,,,,,,,,,5,,,62,92
34944,note_on,2,0,2,,,,,,,,,6,,,66,92
34990,note_on,46,0,3,,,,,,,,,5,,,62,0
34990,note_on,46,0,2,,,,,,,,,6,,,71,0
34992,note_on,2,0,2,,,,,,,,,6,,,73,92
34992,note_on,2,0,3,,,,,,,,,5,,,61,92
35038,note_on,0,0,2,,,,,,,,,6,,,73,0
35038,note_on,46,0,2,,,,,,,,,6,,,66,0
35038,note_on,46,0,3,,,,,,,,,5,,,61,0
35040,note_on,0,0,2,,,,,,,,,6,,,74,92
35040,note_on,2,0,2,,,,,,,,,6,,,66,92
35040,note_on,2,0,3,,,,,,,,,5,,,59,92
35086,note_on,46,0,2,,,,,,,,,6,,,74,0
35086,note_on,46,0,3,,,,,,,,,5,,,59,0
35088,note_on,2,0,2,,,,,,,,,6,,,73,92
35088,note_on,144,0,1,,,,,,,,,1,,,71,0
35088,note_on,0,0,1,,,,,,,,,1,,,68,108
35088,note_on,2,0,3,,,,,,,,,5,,,64,92
35134,note_on,0,0,2,,,,,,,,,6,,,73,0
35134,note_on,46,0,3,,,,,,,,,5,,,64,0
35134,note_on,46,0,2,,,,,,,,,6,,,66,0
35134,note_on,46,0,1,,,,,,,,,1,,,68,0
35136,note_on,2,0,1,,,,,,,,,1,,,70,108
35136,note_on,2,0,3,,,,,,,,,5,,,66,92
35136,note_on,0,0,2,,,,,,,,,6,,,73,92
35136,note_on,2,0,2,,,,,,,,,6,,,71,92
35230,note_on,94,0,3,,,,,,,,,5,,,66,0
35230,note_on,94,0,2,,,,,,,,,6,,,71,0
35232,note_on,2,0,3,,,,,,,,,5,,,54,92
35232,note_on,2,0,2,,,,,,,,,6,,,70,92
35296,note_on,160,0,1,,,,,,,,,1,,,70,0
35326,note_on,94,0,2,,,,,,,,,6,,,70,0
35326,note_on,94,0,3,,,,,,,,,5,,,54,0
35326,note_on,0,0,2,,,,,,,,,6,,,73,0
35328,note_on,2,0,2,,,,,,,,,6,,,71,108
35328,note_on,1280,0,4,,,,,,,,,7,,,47,108
35328,note_on,2,0,3,,,,,,,,,5,,,62,108
35328,note_on,32,0,1,,,,,,,,,1,,,71,108
35374,note_on,46,0,4,,,,,,,,,7,,,47,0
35374,note_on,46,0,3,,,,,,,,,5,,,62,0
35376,note_on,2,0,3,,,,,,,,,5,,,64,108
35376,note_on,2,0,4,,,,,,,,,7,,,49,108
35422,note_on,46,0,3,,,,,,,,,5,,,64,0
35422,note_on,46,0,4,,,,,,,,,7,,,49,0
35424,note_on,2,0,4,,,,,,,,,7,,,50,108
35424,note_on,2,0,3,,,,,,,,,5,,,66,108
35488,note_on,160,0,2,,,,,,,,,6,,,71,0
35518,note_on,94,0,3,,,,,,,,,5,,,66,0
35518,note_on,94,0,4,,,,,,,,,7,,,50,0
35520,note_on,2,0,3,,,,,,,,,5,,,64,108
35520,note_on,2,0,4,,,,,,,,,7,,,49,108
35584,note_on,256,0,1,,,,,,,,,1,,,71,0
35614,note_on,94,0,4,,,,,,,,,7,,,49,0
35614,note_on,94,0,3,,,,,,,,,5,,,64,0
35616,note_on,128,0,2,,,,,,,,,6,,,62,108
35616,note_on,2,0,3,,,,,,,,,5,,,62,108
35616,note_on,2,0,4,,,,,,,,,7,,,47,108
35662,note_on,46,0,4,,,,,,,,,7,,,47,0
35662,note_on,46,0,3,,,,,,,,,5,,,62,0
35662,note_on,46,0,2,,,,,,,,,6,,,62,0
35664,note_on,2,0,2,,,,,,,,,6,,,64,108
35664,note_on,2,0,4,,,,,,,,,7,,,49,108
35664,note_on,2,0,3,,,,,,,,,5,,,64,108
35710,note_on,46,0,4,,,,,,,,,7,,,49,0
35710,note_on,46,0,2,,,,,,,,,6,,,64,0
35710,note_on,46,0,3,,,,,,,,,5,,,64,0
35712,note_on,2,0,3,,,,,,,,,5,,,66,108
35712,note_on,2,0,2,,,,,,,,,6,,,66,108
35712,note_on,2,0,4,,,,,,,,,7,,,50,108
35806,note_on,94,0,4,,,,,,,,,7,,,50,0
35806,note_on,94,0,3,,,,,,,,,5,,,66,0
35806,note_on,94,0,2,,,,,,,,,6,,,66,0
35808,note_on,2,0,4,,,,,,,,,7,,,49,108
35808,note_on,2,0,3,,,,,,,,,5,,,64,108
35808,note_on,2,0,2,,,,,,,,,6,,,64,108
35902,note_on,94,0,4,,,,,,,,,7,,,49,0
35902,note_on,94,0,3,,,,,,,,,5,,,64,0
35902,note_on,94,0,2,,,,,,,,,6,,,64,0
35904,note_on,2,0,4,,,,,,,,,7,,,47,108
35904,note_on,2,0,2,,,,,,,,,6,,,62,108
35904,note_on,2,0,3,,,,,,,,,5,,,62,108
35950,note_on,46,0,4,,,,,,,,,7,,,47,0
35950,note_on,46,0,3,,,,,,,,,5,,,62,0
35950,note_on,46,0,2,,,,,,,,,6,,,62,0
35952,note_on,2,0,4,,,,,,,,,7,,,49,108
35952,note_on,2,0,3,,,,,,,,,5,,,64,108
35952,note_on,2,0,2,,,,,,,,,6,,,64,108
35998,note_on,46,0,2,,,,,,,,,6,,,64,0
35998,note_on,46,0,4,,,,,,,,,7,,,49,0
35998,note_on,46,0,3,,,,,,,,,5,,,64,0
36000,note_on,2,0,2,,,,,,,,,6,,,66,108
36000,note_on,2,0,3,,,,,,,,,5,,,66,108
36000,note_on,2,0,4,,,,,,,,,7,,,50,108
36094,note_on,94,0,4,,,,,,,,,7,,,50,0
36094,note_on,94,0,3,,,,,,,,,5,,,66,0
36094,note_on,94,0,2,,,,,,,,,6,,,66,0
36096,note_on,2,0,2,,,,,,,,,6,,,64,108
36096,note_on,2,0,3,,,,,,,,,5,,,64,108
36096,note_on,2,0,4,,,,,,,,,7,,,49,108
36190,note_on,94,0,2,,,,,,,,,6,,,64,0
36190,note_on,94,0,4,,,,,,,,,7,,,49,0
36190,note_on,94,0,3,,,,,,,,,5,,,64,0
36192,note_on,608,0,1,,,,,,,,,1,,,71,108
36192,note_on,2,0,4,,,,,,,,,7,,,47,108
36192,note_on,2,0,3,,,,,,,,,5,,,62,108
36192,note_on,2,0,2,,,,,,,,,6,,,62,108
36238,note_on,46,0,4,,,,,,,,,7,,,47,0
36240,note_on,2,0,4,,,,,,,,,7,,,49,108
36286,note_on,94,0,1,,,,,,,,,1,,,71,0
36286,note_on,46,0,4,,,,,,,,,7,,,49,0
36286,note_on,94,0,3,,,,,,,,,5,,,62,0
36286,note_on,94,0,2,,,,,,,,,6,,,62,0
36288,note_on,2,0,4,,,,,,,,,7,,,50,108
36288,note_on,2,0,2,,,,,,,,,6,,,74,108
36288,note_on,2,0,1,,,,,,,,,1,,,66,108
36288,note_on,2,0,3,,,,,,,,,5,,,66,108
36382,note_on,94,0,4,,,,,,,,,7,,,50,0
36382,note_on,94,0,3,,,,,,,,,5,,,66,0
36384,note_on,2,0,4,,,,,,,,,7,,,47,108
36384,note_on,2,0,3,,,,,,,,,5,,,62,108
36448,note_on,160,0,2,,,,,,,,,6,,,74,0
36448,note_on,160,0,1,,,,,,,,,1,,,66,0
36478,note_on,94,0,3,,,,,,,,,5,,,62,0
36478,note_on,94,0,4,,,,,,,,,7,,,47,0
36480,note_on,2,0,4,,,,,,,,,7,,,52,108
36480,note_on,32,0,1,,,,,,,,,1,,,67,108
36480,note_on,32,0,2,,,,,,,,,6,,,76,108
36480,note_on,2,0,3,,,,,,,,,5,,,67,108
36574,note_on,94,0,1,,,,,,,,,1,,,67,0
36574,note_on,94,0,4,,,,,,,,,7,,,52,0
36574,note_on,94,0,2,,,,,,,,,6,,,76,0
36574,note_on,94,0,3,,,,,,,,,5,,,67,0
36576,note_on,2,0,1,,,,,,,,,1,,,66,108
36576,note_on,2,0,3,,,,,,,,,5,,,66,108
36576,note_on,2,0,2,,,,,,,,,6,,,74,108
36576,note_on,2,0,4,,,,,,,,,7,,,47,108
36736,note_on,160,0,2,,,,,,,,,6,,,74,0
36736,note_on,160,0,4,,,,,,,,,7,,,47,0
36736,note_on,160,0,1,,,,,,,,,1,,,66,0
36736,note_on,160,0,3,,,,,,,,,5,,,66,0
36768,note_on,32,0,2,,,,,,,,,6,,,78,108
36768,note_on,32,0,4,,,,,,,,,7,,,47,108
36768,note_on,32,0,1,,,,,,,,,1,,,71,108
36768,note_on,32,0,3,,,,,,,,,5,,,74,108
36814,note_on,46,0,4,,,,,,,,,7,,,47,0
36816,note_on,2,0,4,,,,,,,,,7,,,49,108
36862,note_on,94,0,1,,,,,,,,,1,,,71,0
36862,note_on,94,0,3,,,,,,,,,5,,,74,0
36862,note_on,46,0,4,,,,,,,,,7,,,49,0
36862,note_on,94,0,2,,,,,,,,,6,,,78,0
36864,note_on,2,0,1,,,,,,,,,1,,,62,108
36864,note_on,2,0,3,,,,,,,,,5,,,66,108
36864,note_on,2,0,2,,,,,,,,,6,,,71,108
36864,note_on,2,0,4,,,,,,,,,7,,,50,108
36958,note_on,94,0,3,,,,,,,,,5,,,66,0
36958,note_on,94,0,4,,,,,,,,,7,,,50,0
36960,note_on,2,0,3,,,,,,,,,5,,,62,108
36960,note_on,2,0,4,,,,,,,,,7,,,47,108
37024,note_on,160,0,2,,,,,,,,,6,,,71,0
37024,note_on,160,0,1,,,,,,,,,1,,,62,0
37054,note_on,94,0,4,,,,,,,,,7,,,47,0
37054,note_on,94,0,3,,,,,,,,,5,,,62,0
37056,note_on,32,0,1,,,,,,,,,1,,,64,108
37056,note_on,32,0,2,,,,,,,,,6,,,72,108
37056,note_on,2,0,4,,,,,,,,,7,,,52,108
37056,note_on,2,0,3,,,,,,,,,5,,,67,108
37150,note_on,94,0,3,,,,,,,,,5,,,67,0
37150,note_on,94,0,1,,,,,,,,,1,,,64,0
37150,note_on,94,0,4,,,,,,,,,7,,,52,0
37150,note_on,94,0,2,,,,,,,,,6,,,72,0
37152,note_on,2,0,2,,,,,,,,,6,,,71,108
37152,note_on,2,0,4,,,,,,,,,7,,,47,108
37152,note_on,2,0,3,,,,,,,,,5,,,62,108
37152,note_on,2,0,1,,,,,,,,,1,,,62,108
37198,note_on,46,0,3,,,,,,,,,5,,,62,0
37200,note_on,2,0,3,,,,,,,,,5,,,64,108
37246,note_on,46,0,3,,,,,,,,,5,,,64,0
37248,note_on,2,0,3,,,,,,,,,5,,,66,108
37312,note_on,160,0,4,,,,,,,,,7,,,47,0
37312,note_on,160,0,1,,,,,,,,,1,,,62,0
37312,note_on,160,0,2,,,,,,,,,6,,,71,0
37342,note_on,94,0,3,,,,,,,,,5,,,66,0
37344,note_on,32,0,4,,,,,,,,,7,,,52,108
37344,note_on,32,0,2,,,,,,,,,6,,,71,108
37344,note_on,2,0,3,,,,,,,,,5,,,67,108
37344,note_on,32,0,1,,,,,,,,,1,,,67,108
37438,note_on,94,0,3,,,,,,,,,5,,,67,0
37440,note_on,96,0,1,,,,,,,,,1,,,67,0
37440,note_on,0,0,1,,,,,,,,,1,,,66,108
37440,note_on,0,0,3,,,,,,,,,5,,,69,108
37440,note_on,2,0,3,,,,,,,,,5,,,66,108
37504,note_on,160,0,2,,,,,,,,,6,,,71,0
37534,note_on,94,0,1,,,,,,,,,1,,,66,0
37534,note_on,0,0,3,,,,,,,,,5,,,69,0
37534,note_on,94,0,3,,,,,,,,,5,,,66,0
37536,note_on,2,0,1,,,,,,,,,1,,,64,108
37536,note_on,2,0,3,,,,,,,,,5,,,67,108
37600,note_on,256,0,4,,,,,,,,,7,,,52,0
37630,note_on,94,0,1,,,,,,,,,1,,,64,0
37630,note_on,94,0,3,,,,,,,,,5,,,67,0
37632,note_on,128,0,2,,,,,,,,,6,,,70,108
37632,note_on,2,0,1,,,,,,,,,1,,,70,108
37632,note_on,32,0,4,,,,,,,,,7,,,54,108
37632,note_on,2,0,3,,,,,,,,,5,,,66,108
37726,note_on,94,0,3,,,,,,,,,5,,,66,0
37726,note_on,94,0,2,,,,,,,,,6,,,70,0
37728,note_on,2,0,3,,,,,,,,,5,,,70,108
37728,note_on,2,0,2,,,,,,,,,6,,,73,108
37774,note_on,142,0,4,,,,,,,,,7,,,54,0
37776,note_on,2,0,4,,,,,,,,,7,,,52,108
37792,note_on,160,0,1,,,,,,,,,1,,,70,0
37822,note_on,46,0,4,,,,,,,,,7,,,52,0
37822,note_on,94,0,3,,,,,,,,,5,,,70,0
37822,note_on,94,0,2,,,,,,,,,6,,,73,0
37824,note_on,2,0,2,,,,,,,,,6,,,74,108
37824,note_on,2,0,4,,,,,,,,,7,,,50,108
37824,note_on,2,0,3,,,,,,,,,5,,,71,108
37824,note_on,32,0,1,,,,,,,,,1,,,71,108
37918,note_on,94,0,2,,,,,,,,,6,,,74,0
37918,note_on,94,0,4,,,,,,,,,7,,,50,0
37920,note_on,2,0,2,,,,,,,,,6,,,73,108
37920,note_on,2,0,4,,,,,,,,,7,,,52,108
38014,note_on,94,0,4,,,,,,,,,7,,,52,0
38014,note_on,190,0,3,,,,,,,,,5,,,71,0
38014,note_on,94,0,2,,,,,,,,,6,,,73,0
38014,note_on,190,0,1,,,,,,,,,1,,,71,0
38016,note_on,2,0,2,,,,,,,,,6,,,73,108
38016,note_on,2,0,3,,,,,,,,,5,,,70,108
38016,note_on,2,0,1,,,,,,,,,1,,,70,108
38016,note_on,2,0,4,,,,,,,,,7,,,54,108
38110,note_on,94,0,4,,,,,,,,,7,,,54,0
38110,note_on,94,0,2,,,,,,,,,6,,,73,0
38112,note_on,2,0,2,,,,,,,,,6,,,71,108
38112,note_on,2,0,4,,,,,,,,,7,,,42,108
38176,note_on,160,0,1,,,,,,,,,1,,,70,0
38176,note_on,160,0,3,,,,,,,,,5,,,70,0
38206,note_on,94,0,4,,,,,,,,,7,,,42,0
38206,note_on,94,0,2,,,,,,,,,6,,,71,0
38208,note_on,2,0,2,,,,,,,,,6,,,78,108
38208,note_on,2,0,4,,,,,,,,,7,,,47,108
38208,note_on,32,0,3,,,,,,,,,5,,,75,108
38208,note_on,32,0,1,,,,,,,,,1,,,71,108
38254,note_on,46,0,4,,,,,,,,,7,,,47,0
38254,note_on,46,0,3,,,,,,,,,5,,,75,0
38256,note_on,2,0,3,,,,,,,,,5,,,76,108
38256,note_on,2,0,4,,,,,,,,,7,,,49,108
38302,note_on,46,0,4,,,,,,,,,7,,,49,0
38302,note_on,94,0,2,,,,,,,,,6,,,78,0
38302,note_on,46,0,3,,,,,,,,,5,,,76,0
38304,note_on,2,0,3,,,,,,,,,5,,,78,108
38304,note_on,2,0,4,,,,,,,,,7,,,51,108
38304,note_on,2,0,2,,,,,,,,,6,,,83,108
38398,note_on,94,0,3,,,,,,,,,5,,,78,0
38398,note_on,94,0,4,,,,,,,,,7,,,51,0
38400,note_on,2,0,3,,,,,,,,,5,,,75,108
38400,note_on,2,0,4,,,,,,,,,7,,,47,108
38464,note_on,160,0,2,,,,,,,,,6,,,83,0
38464,note_on,256,0,1,,,,,,,,,1,,,71,0
38464,end_of_track,0,1,1,,,,,,,,,,,,,
38494,note_on,94,0,4,,,,,,,,,7,,,47,0
38494,note_on,94,0,3,,,,,,,,,5,,,75,0
38496,note_on,2,0,3,,,,,,,,,5,,,59,108
38496,note_on,32,0,2,,,,,,,,,6,,,79,108
38496,note_on,2,0,4,,,,,,,,,7,,,52,108
38542,note_on,46,0,2,,,,,,,,,6,,,79,0
38544,note_on,2,0,2,,,,,,,,,6,,,81,108
38590,note_on,94,0,3,,,,,,,,,5,,,59,0
38590,note_on,46,0,2,,,,,,,,,6,,,81,0
38592,note_on,2,0,3,,,,,,,,,5,,,71,108
38592,note_on,2,0,2,,,,,,,,,6,,,79,108
38638,note_on,46,0,2,,,,,,,,,6,,,79,0
38640,note_on,2,0,2,,,,,,,,,6,,,78,108
38656,note_on,160,0,4,,,,,,,,,7,,,52,0
38686,note_on,46,0,2,,,,,,,,,6,,,78,0
38686,note_on,94,0,3,,,,,,,,,5,,,71,0
38688,note_on,2,0,3,,,,,,,,,5,,,67,108
38688,note_on,2,0,2,,,,,,,,,6,,,76,108
38734,note_on,46,0,2,,,,,,,,,6,,,76,0
38736,note_on,2,0,2,,,,,,,,,6,,,74,108
38782,note_on,46,0,2,,,,,,,,,6,,,74,0
38782,note_on,94,0,3,,,,,,,,,5,,,67,0
38784,note_on,2,0,3,,,,,,,,,5,,,64,108
38784,note_on,2,0,2,,,,,,,,,6,,,73,108
38784,note_on,128,0,4,,,,,,,,,7,,,57,108
38830,note_on,46,0,4,,,,,,,,,7,,,57,0
38830,note_on,46,0,3,,,,,,,,,5,,,64,0
38832,note_on,2,0,4,,,,,,,,,7,,,59,108
38832,note_on,2,0,3,,,,,,,,,5,,,62,108
38878,note_on,94,0,2,,,,,,,,,6,,,73,0
38878,note_on,46,0,3,,,,,,,,,5,,,62,0
38878,note_on,46,0,4,,,,,,,,,7,,,59,0
38880,note_on,2,0,2,,,,,,,,,6,,,81,108
38880,note_on,2,0,3,,,,,,,,,5,,,64,108
38880,note_on,2,0,4,,,,,,,,,7,,,61,108
38974,note_on,94,0,3,,,,,,,,,5,,,64,0
38974,note_on,94,0,4,,,,,,,,,7,,,61,0
38976,note_on,2,0,4,,,,,,,,,7,,,57,108
38976,note_on,2,0,3,,,,,,,,,5,,,61,108
39040,note_on,160,0,2,,,,,,,,,6,,,81,0
39070,note_on,94,0,4,,,,,,,,,7,,,57,0
39070,note_on,94,0,3,,,,,,,,,5,,,61,0
39072,note_on,2,0,4,,,,,,,,,7,,,50,108
39072,note_on,32,0,2,,,,,,,,,6,,,78,108
39072,note_on,2,0,3,,,,,,,,,5,,,57,108
39118,note_on,46,0,2,,,,,,,,,6,,,78,0
39120,note_on,2,0,2,,,,,,,,,6,,,79,108
39166,note_on,94,0,3,,,,,,,,,5,,,57,0
39166,note_on,46,0,2,,,,,,,,,6,,,79,0
39168,note_on,2,0,3,,,,,,,,,5,,,69,108
39168,note_on,2,0,2,,,,,,,,,6,,,78,108
39214,note_on,46,0,2,,,,,,,,,6,,,78,0
39216,note_on,2,0,2,,,,,,,,,6,,,76,108
39232,note_on,160,0,4,,,,,,,,,7,,,50,0
39262,note_on,94,0,3,,,,,,,,,5,,,69,0
39262,note_on,46,0,2,,,,,,,,,6,,,76,0
39264,note_on,2,0,3,,,,,,,,,5,,,66,108
39264,note_on,2,0,2,,,,,,,,,6,,,74,108
39310,note_on,46,0,2,,,,,,,,,6,,,74,0
39312,note_on,2,0,2,,,,,,,,,6,,,73,108
39358,note_on,46,0,2,,,,,,,,,6,,,73,0
39358,note_on,94,0,3,,,,,,,,,5,,,66,0
39360,note_on,2,0,2,,,,,,,,,6,,,71,108
39360,note_on,128,0,4,,,,,,,,,7,,,55,108
39360,note_on,2,0,3,,,,,,,,,5,,,62,108
39406,note_on,46,0,3,,,,,,,,,5,,,62,0
39406,note_on,46,0,4,,,,,,,,,7,,,55,0
39408,note_on,2,0,3,,,,,,,,,5,,,61,108
39408,note_on,2,0,4,,,,,,,,,7,,,57,108
39454,note_on,46,0,3,,,,,,,,,5,,,61,0
39454,note_on,94,0,2,,,,,,,,,6,,,71,0
39454,note_on,46,0,4,,,,,,,,,7,,,57,0
39456,note_on,2,0,2,,,,,,,,,6,,,79,108
39456,note_on,2,0,3,,,,,,,,,5,,,62,108
39456,note_on,2,0,4,,,,,,,,,7,,,59,108
39550,note_on,94,0,3,,,,,,,,,5,,,62,0
39550,note_on,94,0,4,,,,,,,,,7,,,59,0
39552,note_on,2,0,3,,,,,,,,,5,,,59,108
39552,note_on,2,0,4,,,,,,,,,7,,,55,108
39616,note_on,160,0,2,,,,,,,,,6,,,79,0
39646,note_on,94,0,4,,,,,,,,,7,,,55,0
39646,note_on,94,0,3,,,,,,,,,5,,,59,0
39648,note_on,2,0,4,,,,,,,,,7,,,49,108
39648,note_on,2,0,3,,,,,,,,,5,,,58,108
39648,note_on,32,0,2,,,,,,,,,6,,,76,108
39694,note_on,46,0,2,,,,,,,,,6,,,76,0
39696,note_on,2,0,2,,,,,,,,,6,,,78,108
39742,note_on,46,0,2,,,,,,,,,6,,,78,0
39744,note_on,2,0,2,,,,,,,,,6,,,76,108
39790,note_on,46,0,2,,,,,,,,,6,,,76,0
39792,note_on,2,0,2,,,,,,,,,6,,,74,108
39808,note_on,160,0,3,,,,,,,,,5,,,58,0
39808,note_on,160,0,4,,,,,,,,,7,,,49,0
39838,note_on,46,0,2,,,,,,,,,6,,,74,0
39840,note_on,2,0,2,,,,,,,,,6,,,73,108
39886,note_on,46,0,2,,,,,,,,,6,,,73,0
39888,note_on,2,0,2,,,,,,,,,6,,,71,108
39934,note_on,46,0,2,,,,,,,,,6,,,71,0
39936,note_on,128,0,3,,,,,,,,,5,,,73,108
39936,note_on,128,0,4,,,,,,,,,7,,,54,108
39936,note_on,2,0,2,,,,,,,,,6,,,82,108
39982,note_on,46,0,4,,,,,,,,,7,,,54,0
39982,note_on,46,0,3,,,,,,,,,5,,,73,0
39984,note_on,2,0,4,,,,,,,,,7,,,56,108
39984,note_on,2,0,3,,,,,,,,,5,,,71,108
40030,note_on,94,0,2,,,,,,,,,6,,,82,0
40030,note_on,46,0,4,,,,,,,,,7,,,56,0
40030,note_on,46,0,3,,,,,,,,,5,,,71,0
40032,note_on,2,0,3,,,,,,,,,5,,,73,108
40032,note_on,2,0,2,,,,,,,,,6,,,78,108
40032,note_on,2,0,4,,,,,,,,,7,,,58,108
40126,note_on,94,0,4,,,,,,,,,7,,,58,0
40126,note_on,94,0,3,,,,,,,,,5,,,73,0
40128,note_on,2,0,4,,,,,,,,,7,,,54,108
40128,note_on,2,0,3,,,,,,,,,5,,,70,108
40192,note_on,160,0,2,,,,,,,,,6,,,78,0
40222,note_on,94,0,4,,,,,,,,,7,,,54,0
40222,note_on,94,0,3,,,,,,,,,5,,,70,0
40224,note_on,32,0,2,,,,,,,,,6,,,83,108
40224,note_on,2,0,4,,,,,,,,,7,,,50,108
40224,note_on,2,0,3,,,,,,,,,5,,,78,108
40270,note_on,46,0,3,,,,,,,,,5,,,78,0
40270,note_on,46,0,4,,,,,,,,,7,,,50,0
40272,note_on,2,0,3,,,,,,,,,5,,,76,108
40272,note_on,2,0,4,,,,,,,,,7,,,49,108
40318,note_on,46,0,4,,,,,,,,,7,,,49,0
40318,note_on,94,0,2,,,,,,,,,6,,,83,0
40318,note_on,46,0,3,,,,,,,,,5,,,76,0
40320,note_on,2,0,4,,,,,,,,,7,,,47,108
40320,note_on,2,0,2,,,,,,,,,6,,,78,108
40320,note_on,2,0,3,,,,,,,,,5,,,74,108
40414,note_on,94,0,4,,,,,,,,,7,,,47,0
40414,note_on,94,0,3,,,,,,,,,5,,,74,0
40416,note_on,2,0,3,,,,,,,,,5,,,71,108
40416,note_on,2,0,4,,,,,,,,,7,,,50,108
40480,note_on,160,0,2,,,,,,,,,6,,,78,0
40510,note_on,94,0,4,,,,,,,,,7,,,50,0
40510,note_on,94,0,3,,,,,,,,,5,,,71,0
40512,note_on,2,0,4,,,,,,,,,7,,,52,108
40512,note_on,32,0,2,,,,,,,,,6,,,79,108
40512,note_on,2,0,3,,,,,,,,,5,,,71,108
40606,note_on,94,0,4,,,,,,,,,7,,,52,0
40606,note_on,94,0,3,,,,,,,,,5,,,71,0
40606,note_on,94,0,2,,,,,,,,,6,,,79,0
40608,note_on,2,0,3,,,,,,,,,5,,,71,108
40608,note_on,2,0,2,,,,,,,,,6,,,78,108
40608,note_on,2,0,4,,,,,,,,,7,,,50,108
40768,note_on,160,0,3,,,,,,,,,5,,,71,0
40768,note_on,160,0,2,,,,,,,,,6,,,78,0
40768,note_on,160,0,4,,,,,,,,,7,,,50,0
40800,note_on,32,0,3,,,,,,,,,5,,,54,108
40800,note_on,32,0,4,,,,,,,,,7,,,50,108
40800,note_on,32,0,2,,,,,,,,,6,,,83,108
40846,note_on,46,0,3,,,,,,,,,5,,,54,0
40846,note_on,46,0,4,,,,,,,,,7,,,50,0
40848,note_on,2,0,3,,,,,,,,,5,,,52,108
40848,note_on,2,0,4,,,,,,,,,7,,,49,108
40894,note_on,94,0,2,,,,,,,,,6,,,83,0
40894,note_on,46,0,3,,,,,,,,,5,,,52,0
40894,note_on,46,0,4,,,,,,,,,7,,,49,0
40896,note_on,2,0,2,,,,,,,,,6,,,71,108
40896,note_on,2,0,3,,,,,,,,,5,,,50,108
40896,note_on,2,0,4,,,,,,,,,7,,,47,108
40990,note_on,94,0,4,,,,,,,,,7,,,47,0
40990,note_on,94,0,3,,,,,,,,,5,,,50,0
40992,note_on,2,0,4,,,,,,,,,7,,,50,108
40992,note_on,2,0,3,,,,,,,,,5,,,66,108
41056,note_on,160,0,2,,,,,,,,,6,,,71,0
41086,note_on,94,0,3,,,,,,,,,5,,,66,0
41086,note_on,94,0,4,,,,,,,,,7,,,50,0
41088,note_on,2,0,3,,,,,,,,,5,,,67,108
41088,note_on,32,0,2,,,,,,,,,6,,,72,108
41088,note_on,2,0,4,,,,,,,,,7,,,52,108
41182,note_on,94,0,3,,,,,,,,,5,,,67,0
41182,note_on,94,0,2,,,,,,,,,6,,,72,0
41182,note_on,94,0,4,,,,,,,,,7,,,52,0
41184,note_on,2,0,2,,,,,,,,,6,,,71,108
41184,note_on,2,0,4,,,,,,,,,7,,,50,108
41184,note_on,2,0,3,,,,,,,,,5,,,66,108
41344,note_on,160,0,4,,,,,,,,,7,,,50,0
41344,note_on,160,0,3,,,,,,,,,5,,,66,0
41344,note_on,160,0,2,,,,,,,,,6,,,71,0
41376,note_on,32,0,2,,,,,,,,,6,,,79,108
41376,note_on,32,0,4,,,,,,,,,7,,,52,108
41376,note_on,32,0,3,,,,,,,,,5,,,59,108
41470,note_on,94,0,4,,,,,,,,,7,,,52,0
41470,note_on,94,0,3,,,,,,,,,5,,,59,0
41470,note_on,94,0,2,,,,,,,,,6,,,79,0
41472,note_on,2,0,4,,,,,,,,,7,,,50,108
41472,note_on,2,0,2,,,,,,,,,6,,,78,108
41472,note_on,2,0,3,,,,,,,,,5,,,71,108
41632,note_on,160,0,4,,,,,,,,,7,,,50,0
41632,note_on,160,0,3,,,,,,,,,5,,,71,0
41632,note_on,160,0,2,,,,,,,,,6,,,78,0
41664,note_on,32,0,4,,,,,,,,,7,,,54,108
41664,note_on,32,0,3,,,,,,,,,5,,,73,108
41664,note_on,32,0,2,,,,,,,,,6,,,82,108
41710,note_on,46,0,4,,,,,,,,,7,,,54,0
41712,note_on,2,0,4,,,,,,,,,7,,,55,108
41758,note_on,46,0,4,,,,,,,,,7,,,55,0
41758,note_on,94,0,2,,,,,,,,,6,,,82,0
41760,note_on,2,0,2,,,,,,,,,6,,,78,108
41760,note_on,2,0,4,,,,,,,,,7,,,54,108
41806,note_on,46,0,4,,,,,,,,,7,,,54,0
41808,note_on,2,0,4,,,,,,,,,7,,,52,108
41824,note_on,160,0,3,,,,,,,,,5,,,73,0
41854,note_on,46,0,4,,,,,,,,,7,,,52,0
41854,note_on,94,0,2,,,,,,,,,6,,,78,0
41856,note_on,32,0,3,,,,,,,,,5,,,78,108
41856,note_on,2,0,4,,,,,,,,,7,,,50,108
41856,note_on,2,0,2,,,,,,,,,6,,,83,108
41902,note_on,46,0,4,,,,,,,,,7,,,50,0
41904,note_on,2,0,4,,,,,,,,,7,,,49,108
41950,note_on,94,0,3,,,,,,,,,5,,,78,0
41950,note_on,94,0,2,,,,,,,,,6,,,83,0
41950,note_on,46,0,4,,,,,,,,,7,,,49,0
41952,note_on,2,0,2,,,,,,,,,6,,,74,108
41952,note_on,2,0,3,,,,,,,,,5,,,66,108
41952,note_on,2,0,4,,,,,,,,,7,,,47,108
41998,note_on,46,0,3,,,,,,,,,5,,,66,0
41998,note_on,46,0,4,,,,,,,,,7,,,47,0
42000,note_on,2,0,3,,,,,,,,,5,,,67,108
42000,note_on,2,0,4,,,,,,,,,7,,,52,108
42046,note_on,94,0,2,,,,,,,,,6,,,74,0
42046,note_on,46,0,4,,,,,,,,,7,,,52,0
42046,note_on,46,0,3,,,,,,,,,5,,,67,0
42048,note_on,2,0,4,,,,,,,,,7,,,54,108
42048,note_on,2,0,3,,,,,,,,,5,,,58,108
42048,note_on,2,0,2,,,,,,,,,6,,,73,108
42142,note_on,94,0,4,,,,,,,,,7,,,54,0
42142,note_on,94,0,3,,,,,,,,,5,,,58,0
42144,note_on,0,0,3,,,,,,,,,5,,,70,108
42144,note_on,2,0,3,,,,,,,,,5,,,66,108
42144,note_on,2,0,4,,,,,,,,,7,,,42,108
42208,note_on,160,0,2,,,,,,,,,6,,,73,0
42238,note_on,0,0,3,,,,,,,,,5,,,70,0
42238,note_on,94,0,4,,,,,,,,,7,,,42,0
42238,note_on,94,0,3,,,,,,,,,5,,,66,0
42240,note_on,32,0,2,,,,,,,,,6,,,71,108
42240,note_on,2,0,3,,,,,,,,,5,,,71,108
42240,set_tempo,41472,1,0,714285,,,,,,,,,,,,
42240,note_on,2,0,4,,,,,,,,,7,,,59,108
42334,note_on,94,0,3,,,,,,,,,5,,,71,0
42334,note_on,94,0,2,,,,,,,,,6,,,71,0
42334,note_on,94,0,4,,,,,,,,,7,,,59,0
42336,note_on,2,0,3,,,,,,,,,5,,,69,108
42336,note_on,2,0,2,,,,,,,,,6,,,69,108
42336,note_on,2,0,4,,,,,,,,,7,,,57,108
42430,note_on,94,0,4,,,,,,,,,7,,,57,0
42430,note_on,94,0,2,,,,,,,,,6,,,69,0
42430,note_on,94,0,3,,,,,,,,,5,,,69,0
42432,note_on,2,0,2,,,,,,,,,6,,,67,108
42432,note_on,2,0,3,,,,,,,,,5,,,67,108
42432,note_on,2,0,4,,,,,,,,,7,,,55,108
42526,note_on,94,0,2,,,,,,,,,6,,,67,0
42526,note_on,94,0,3,,,,,,,,,5,,,67,0
42526,note_on,94,0,4,,,,,,,,,7,,,55,0
42528,note_on,2,0,3,,,,,,,,,5,,,66,108
42528,note_on,2,0,4,,,,,,,,,7,,,54,108
42528,note_on,2,0,2,,,,,,,,,6,,,66,108
42622,note_on,94,0,2,,,,,,,,,6,,,66,0
42622,note_on,94,0,3,,,,,,,,,5,,,66,0
42622,note_on,94,0,4,,,,,,,,,7,,,54,0
42624,note_on,2,0,4,,,,,,,,,7,,,52,108
42624,note_on,2,0,3,,,,,,,,,5,,,64,108
42624,note_on,2,0,2,,,,,,,,,6,,,64,108
42718,note_on,94,0,4,,,,,,,,,7,,,52,0
42718,note_on,94,0,3,,,,,,,,,5,,,64,0
42718,note_on,94,0,2,,,,,,,,,6,,,64,0
42720,note_on,2,0,4,,,,,,,,,7,,,50,108
42720,note_on,2,0,3,,,,,,,,,5,,,62,108
42720,note_on,2,0,2,,,,,,,,,6,,,62,108
42814,note_on,94,0,2,,,,,,,,,6,,,62,0
42814,note_on,94,0,3,,,,,,,,,5,,,62,0
42814,note_on,94,0,4,,,,,,,,,7,,,50,0
42816,note_on,2,0,4,,,,,,,,,7,,,55,108
42816,note_on,2,0,2,,,,,,,,,6,,,67,108
42816,note_on,2,0,3,,,,,,,,,5,,,67,108
42816,set_tempo,576,1,0,769230,,,,,,,,,,,,
42910,note_on,94,0,2,,,,,,,,,6,,,67,0
42910,note_on,94,0,4,,,,,,,,,7,,,55,0
42910,note_on,94,0,3,,,,,,,,,5,,,67,0
42912,note_on,2,0,3,,,,,,,,,5,,,66,108
42912,note_on,2,0,4,,,,,,,,,7,,,54,108
42912,note_on,2,0,2,,,,,,,,,6,,,66,108
43006,note_on,94,0,4,,,,,,,,,7,,,54,0
43006,note_on,94,0,2,,,,,,,,,6,,,66,0
43006,note_on,94,0,3,,,,,,,,,5,,,66,0
43008,note_on,2,0,4,,,,,,,,,7,,,52,108
43008,note_on,2,0,3,,,,,,,,,5,,,64,108
43008,note_on,2,0,2,,,,,,,,,6,,,64,108
43102,note_on,94,0,2,,,,,,,,,6,,,64,0
43102,note_on,94,0,3,,,,,,,,,5,,,64,0
43102,note_on,94,0,4,,,,,,,,,7,,,52,0
43104,note_on,2,0,3,,,,,,,,,5,,,62,108
43104,note_on,2,0,4,,,,,,,,,7,,,50,108
43104,note_on,2,0,2,,,,,,,,,6,,,62,108
43198,note_on,94,0,2,,,,,,,,,6,,,62,0
43198,note_on,94,0,4,,,,,,,,,7,,,50,0
43198,note_on,94,0,3,,,,,,,,,5,,,62,0
43200,note_on,2,0,2,,,,,,,,,6,,,61,108
43200,note_on,2,0,4,,,,,,,,,7,,,49,108
43200,note_on,2,0,3,,,,,,,,,5,,,61,108
43294,note_on,94,0,3,,,,,,,,,5,,,61,0
43294,note_on,94,0,2,,,,,,,,,6,,,61,0
43294,note_on,94,0,4,,,,,,,,,7,,,49,0
43296,note_on,2,0,3,,,,,,,,,5,,,59,108
43296,note_on,2,0,2,,,,,,,,,6,,,59,108
43296,note_on,2,0,4,,,,,,,,,7,,,47,108
43390,note_on,94,0,2,,,,,,,,,6,,,59,0
43390,note_on,94,0,4,,,,,,,,,7,,,47,0
43390,note_on,94,0,3,,,,,,,,,5,,,59,0
43392,note_on,2,0,2,,,,,,,,,6,,,62,108
43392,set_tempo,576,1,0,833333,,,,,,,,,,,,
43392,note_on,2,0,3,,,,,,,,,5,,,62,108
43392,note_on,2,0,4,,,,,,,,,7,,,50,108
43438,note_on,46,0,2,,,,,,,,,6,,,62,0
43438,note_on,46,0,3,,,,,,,,,5,,,62,0
43438,note_on,46,0,4,,,,,,,,,7,,,50,0
43440,note_on,2,0,3,,,,,,,,,5,,,64,108
43440,note_on,2,0,2,,,,,,,,,6,,,64,108
43440,note_on,2,0,4,,,,,,,,,7,,,52,108
43486,note_on,46,0,2,,,,,,,,,6,,,64,0
43486,note_on,46,0,4,,,,,,,,,7,,,52,0
43486,note_on,46,0,3,,,,,,,,,5,,,64,0
43488,note_on,2,0,3,,,,,,,,,5,,,66,108
43488,note_on,2,0,2,,,,,,,,,6,,,66,108
43488,note_on,2,0,4,,,,,,,,,7,,,54,108
43488,set_tempo,96,1,0,1000000,,,,,,,,,,,,
43582,note_on,94,0,3,,,,,,,,,5,,,66,0
43582,note_on,94,0,2,,,,,,,,,6,,,66,0
43582,note_on,94,0,4,,,,,,,,,7,,,54,0
43584,note_on,2,0,3,,,,,,,,,5,,,66,108
43584,note_on,2,0,4,,,,,,,,,7,,,42,108
43584,set_tempo,96,1,0,1034482,,,,,,,,,,,,
43584,note_on,2,0,2,,,,,,,,,6,,,66,108
43678,note_on,94,0,3,,,,,,,,,5,,,66,0
43678,note_on,94,0,4,,,,,,,,,7,,,42,0
43678,note_on,94,0,2,,,,,,,,,6,,,66,0
43680,set_tempo,96,1,0,1250000,,,,,,,,,,,,
43680,end_of_track,0,1,0,,,,,,,,,,,,,
43680,note_on,2,0,3,,,,,,,,,5,,,59,108
43680,note_on,2,0,2,,,,,,,,,6,,,59,108
43680,note_on,2,0,4,,,,,,,,,7,,,47,108
43936,end_of_track,0,1,4,,,,,,,,,,,,,
43936,end_of_track,0,1,2,,,,,,,,,,,,,
43936,end_of_track,0,1,3,,,,,,,,,,,,,
43936,note_on,256,0,3,,,,,,,,,5,,,59,0
43936,note_on,256,0,2,,,,,,,,,6,,,59,0
43936,note_on,256,0,4,,,,,,,,,7,,,47,0
