tick,type,time,meta,track,tempo,key,numerator,denominator,clocks_per_click,notated_32nd_notes_per_beat,port,program,channel,control,value,note,velocity
0,track_name,0,1,0,,,,,,,,,,,,,
0,control_change,0,0,7,,,,,,,,,7,10,64,,
0,control_change,0,0,7,,,,,,,,,7,7,97,,
0,program_change,0,0,7,,,,,,,,0,7,,,,
0,track_name,0,1,7,,,,,,,,,,,,,
0,midi_port,0,1,7,,,,,,,0,,,,,,
0,control_change,0,0,6,,,,,,,,,6,10,64,,
0,control_change,0,0,6,,,,,,,,,6,7,103,,
0,program_change,0,0,6,,,,,,,,0,6,,,,
0,track_name,0,1,6,,,,,,,,,,,,,
0,midi_port,0,1,6,,,,,,,0,,,,,,
0,control_change,0,0,14,,,,,,,,,14,10,64,,
0,control_change,0,0,5,,,,,,,,,5,10,64,,
0,control_change,0,0,5,,,,,,,,,5,7,103,,
0,program_change,0,0,5,,,,,,,,0,5,,,,
0,track_name,0,1,5,,,,,,,,,,,,,
0,midi_port,0,1,5,,,,,,,0,,,,,,
0,control_change,0,0,4,,,,,,,,,3,10,64,,
0,control_change,0,0,4,,,,,,,,,3,7,127,,
0,program_change,0,0,4,,,,,,,,48,3,,,,
0,track_name,0,1,4,,,,,,,,,,,,,
0,midi_port,0,1,4,,,,,,,0,,,,,,
0,control_change,0,0,3,,,,,,,,,2,10,64,,
0,control_change,0,0,3,,,,,,,,,2,7,127,,
0,program_change,0,0,3,,,,,,,,48,2,,,,
0,track_name,0,1,3,,,,,,,,,,,,,
0,midi_port,0,1,3,,,,,,,0,,,,,,
0,control_change,0,0,2,,,,,,,,,1,10,64,,
0,control_change,0,0,2,,,,,,,,,1,7,127,,
0,program_change,0,0,2,,,,,,,,48,1,,,,
0,midi_port,0,1,8,,,,,,,0,,,,,,
0,track_name,0,1,2,,,,,,,,,,,,,
0,track_name,0,1,8,,,,,,,,,,,,,
0,control_change,0,0,8,,,,,,,,,8,10,64,,
0,control_change,0,0,14,,,,,,,,,14,7,127,,
0,track_name,0,1,14,,,,,,,,,,,,,
0,midi_port,0,1,14,,,,,,,0,,,,,,
0,end_of_track,0,1,13,,,,,,,,,,,,,
0,control_change,0,0,13,,,,,,,,,13,10,64,,
0,control_change,0,0,13,,,,,,,,,13,7,127,,
0,track_name,0,1,13,,,,,,,,,,,,,
0,midi_port,0,1,13,,,,,,,0,,,,,,
0,end_of_track,0,1,12,,,,,,,,,,,,,
0,control_change,0,0,12,,,,,,,,,12,10,64,,
0,control_change,0,0,12,,,,,,,,,12,7,127,,
0,track_name,0,1,12,,,,,,,,,,,,,
0,midi_port,0,1,12,,,,,,,0,,,,,,
0,end_of_track,0,1,11,,,,,,,,,,,,,
0,control_change,0,0,11,,,,,,,,,11,10,64,,
0,control_change,0,0,11,,,,,,,,,11,7,127,,
0,track_name,0,1,11,,,,,,,,,,,,,
0,midi_port,0,1,11,,,,,,,0,,,,,,
0,end_of_track,0,1,10,,,,,,,,,,,,,
0,control_change,0,0,10,,,,,,,,,10,10,64,,
0,control_change,0,0,10,,,,,,,,,10,7,127,,
0,track_name,0,1,10,,,,,,,,,,,,,
0,midi_port,0,1,10,,,,,,,0,,,,,,
0,end_of_track,0,1,9,,,,,,,,,,,,,
0,control_change,0,0,9,,,,,,,,,9,10,64,,
0,control_change,0,0,9,,,,,,,,,9,7,127,,
0,track_name,0,1,9,,,,,,,,,,,,,
0,midi_port,0,1,9,,,,,,,0,,,,,,
0,end_of_track,0,1,8,,,,,,,,,,,,,
0,control_change,0,0,8,,,,,,,,,8,7,127,,
0,midi_port,0,1,2,,,,,,,0,,,,,,
0,end_of_track,0,1,14,,,,,,,,,,,,,
0,time_signature,0,1,0,,,4,4,24,8,,,,,,,
0,text,0,1,0,,,,,,,,,,,,,
0,text,0,1,0,,,,,,,,,,,,,
0,copyright,0,1,0,,,,,,,,,,,,,
0,control_change,0,0,1,,,,,,,,,0,10,64,,
0,control_change,0,0,1,,,,,,,,,0,7,127,,
0,set_tempo,0,1,0,416666,,,,,,,,,,,,
0,key_signature,0,1,0,,F,,,,,,,,,,,
0,program_change,0,0,1,,,,,,,,48,0,,,,
0,track_name,0,1,1,,,,,,,,,,,,,
0,midi_port,0,1,1,,,,,,,0,,,,,,
768,note_on,768,0,5,,,,,,,,,5,,,65,92
768,set_tempo,768,1,0,468750,,,,,,,,,,,,
768,note_on,768,0,7,,,,,,,,,7,,,53,92
768,note_on,768,0,6,,,,,,,,,6,,,57,92
768,time_signature,0,1,0,,,3,4,24,8,,,,,,,
910,note_on,142,0,6,,,,,,,,,6,,,57,0
910,note_on,142,0,7,,,,,,,,,7,,,53,0
912,note_on,2,0,7,,,,,,,,,7,,,53,92
912,note_on,2,0,6,,,,,,,,,6,,,57,92
928,note_on,160,0,5,,,,,,,,,5,,,65,0
958,note_on,46,0,7,,,,,,,,,7,,,53,0
958,note_on,46,0,6,,,,,,,,,6,,,57,0
960,note_on,2,0,7,,,,,,,,,7,,,53,92
960,note_on,32,0,5,,,,,,,,,5,,,65,92
960,note_on,2,0,6,,,,,,,,,6,,,57,92
1102,note_on,142,0,7,,,,,,,,,7,,,53,0
1102,note_on,142,0,5,,,,,,,,,5,,,65,0
1102,note_on,142,0,6,,,,,,,,,6,,,57,0
1104,note_on,2,0,5,,,,,,,,,5,,,67,92
1104,note_on,2,0,6,,,,,,,,,6,,,57,92
1104,note_on,2,0,7,,,,,,,,,7,,,53,92
1150,note_on,46,0,7,,,,,,,,,7,,,53,0
1150,note_on,46,0,5,,,,,,,,,5,,,67,0
1150,note_on,46,0,6,,,,,,,,,6,,,57,0
1152,note_on,2,0,6,,,,,,,,,6,,,57,92
1152,note_on,2,0,5,,,,,,,,,5,,,69,92
1152,note_on,2,0,7,,,,,,,,,7,,,53,92
1294,note_on,142,0,5,,,,,,,,,5,,,69,0
1294,note_on,142,0,7,,,,,,,,,7,,,53,0
1294,note_on,142,0,6,,,,,,,,,6,,,57,0
1296,note_on,2,0,6,,,,,,,,,6,,,57,92
1296,note_on,2,0,5,,,,,,,,,5,,,70,92
1296,note_on,2,0,7,,,,,,,,,7,,,53,92
1342,note_on,46,0,6,,,,,,,,,6,,,57,0
1342,note_on,46,0,5,,,,,,,,,5,,,70,0
1342,note_on,46,0,7,,,,,,,,,7,,,53,0
1344,note_on,2,0,7,,,,,,,,,7,,,52,92
1344,note_on,2,0,5,,,,,,,,,5,,,72,92
1344,note_on,2,0,6,,,,,,,,,6,,,55,92
1486,note_on,142,0,5,,,,,,,,,5,,,72,0
1486,note_on,142,0,6,,,,,,,,,6,,,55,0
1486,note_on,142,0,7,,,,,,,,,7,,,52,0
1488,note_on,2,0,5,,,,,,,,,5,,,70,92
1488,note_on,2,0,6,,,,,,,,,6,,,55,92
1488,note_on,2,0,7,,,,,,,,,7,,,52,92
1534,note_on,46,0,5,,,,,,,,,5,,,70,0
1534,note_on,46,0,7,,,,,,,,,7,,,52,0
1534,note_on,46,0,6,,,,,,,,,6,,,55,0
1536,note_on,2,0,6,,,,,,,,,6,,,55,92
1536,note_on,2,0,5,,,,,,,,,5,,,72,92
1536,note_on,0,0,5,,,,,,,,,5,,,79,92
1536,note_on,2,0,7,,,,,,,,,7,,,52,92
1678,note_on,142,0,6,,,,,,,,,6,,,55,0
1678,note_on,142,0,5,,,,,,,,,5,,,72,0
1678,note_on,142,0,7,,,,,,,,,7,,,52,0
1680,note_on,2,0,5,,,,,,,,,5,,,74,92
1680,note_on,2,0,6,,,,,,,,,6,,,55,92
1680,note_on,2,0,7,,,,,,,,,7,,,52,92
1696,note_on,16,0,5,,,,,,,,,5,,,79,0
1726,note_on,30,0,5,,,,,,,,,5,,,74,0
1726,note_on,46,0,6,,,,,,,,,6,,,55,0
1726,note_on,46,0,7,,,,,,,,,7,,,52,0
1728,note_on,2,0,5,,,,,,,,,5,,,76,92
1728,note_on,2,0,7,,,,,,,,,7,,,52,92
1728,note_on,0,0,5,,,,,,,,,5,,,84,92
1728,note_on,2,0,6,,,,,,,,,6,,,55,92
1870,note_on,142,0,7,,,,,,,,,7,,,52,0
1870,note_on,142,0,5,,,,,,,,,5,,,76,0
1870,note_on,142,0,6,,,,,,,,,6,,,55,0
1872,note_on,2,0,7,,,,,,,,,7,,,52,92
1872,note_on,2,0,5,,,,,,,,,5,,,72,92
1872,note_on,2,0,6,,,,,,,,,6,,,55,92
1888,note_on,16,0,5,,,,,,,,,5,,,84,0
1918,note_on,46,0,6,,,,,,,,,6,,,55,0
1918,note_on,46,0,7,,,,,,,,,7,,,52,0
1918,note_on,30,0,5,,,,,,,,,5,,,72,0
1920,note_on,0,0,5,,,,,,,,,5,,,84,92
1920,note_on,2,0,5,,,,,,,,,5,,,77,92
1920,note_on,2,0,6,,,,,,,,,6,,,57,92
1920,note_on,2,0,7,,,,,,,,,7,,,50,92
2062,note_on,142,0,5,,,,,,,,,5,,,77,0
2062,note_on,142,0,6,,,,,,,,,6,,,57,0
2062,note_on,142,0,7,,,,,,,,,7,,,50,0
2064,note_on,2,0,6,,,,,,,,,6,,,57,92
2064,note_on,2,0,7,,,,,,,,,7,,,50,92
2064,note_on,2,0,5,,,,,,,,,5,,,76,92
2080,note_on,16,0,5,,,,,,,,,5,,,84,0
2110,note_on,46,0,6,,,,,,,,,6,,,57,0
2110,note_on,46,0,7,,,,,,,,,7,,,50,0
2110,note_on,30,0,5,,,,,,,,,5,,,76,0
2112,note_on,2,0,6,,,,,,,,,6,,,53,92
2112,note_on,0,0,5,,,,,,,,,5,,,82,92
2112,note_on,2,0,5,,,,,,,,,5,,,77,92
2112,note_on,2,0,7,,,,,,,,,7,,,50,92
2254,note_on,142,0,6,,,,,,,,,6,,,53,0
2254,note_on,142,0,7,,,,,,,,,7,,,50,0
2254,note_on,142,0,5,,,,,,,,,5,,,77,0
2256,note_on,2,0,6,,,,,,,,,6,,,53,92
2256,note_on,2,0,5,,,,,,,,,5,,,79,92
2256,note_on,2,0,7,,,,,,,,,7,,,50,92
2302,note_on,46,0,6,,,,,,,,,6,,,53,0
2302,note_on,46,0,7,,,,,,,,,7,,,50,0
2302,note_on,46,0,5,,,,,,,,,5,,,79,0
2304,note_on,2,0,6,,,,,,,,,6,,,50,92
2304,note_on,2,0,7,,,,,,,,,7,,,50,92
2304,note_on,2,0,5,,,,,,,,,5,,,81,92
2446,note_on,142,0,6,,,,,,,,,6,,,50,0
2446,note_on,142,0,7,,,,,,,,,7,,,50,0
2446,note_on,142,0,5,,,,,,,,,5,,,81,0
2448,note_on,2,0,7,,,,,,,,,7,,,50,92
2448,note_on,2,0,6,,,,,,,,,6,,,50,92
2448,note_on,2,0,5,,,,,,,,,5,,,82,0
2448,note_on,0,0,5,,,,,,,,,5,,,82,92
2494,note_on,46,0,6,,,,,,,,,6,,,50,0
2494,note_on,46,0,7,,,,,,,,,7,,,50,0
2494,note_on,46,0,5,,,,,,,,,5,,,82,0
2496,note_on,2,0,7,,,,,,,,,7,,,48,92
2496,note_on,2,0,6,,,,,,,,,6,,,52,92
2496,note_on,2,0,5,,,,,,,,,5,,,84,92
2638,note_on,142,0,6,,,,,,,,,6,,,52,0
2638,note_on,142,0,7,,,,,,,,,7,,,48,0
2640,note_on,2,0,7,,,,,,,,,7,,,48,92
2640,note_on,2,0,6,,,,,,,,,6,,,52,92
2656,note_on,160,0,5,,,,,,,,,5,,,84,0
2686,note_on,46,0,7,,,,,,,,,7,,,48,0
2686,note_on,46,0,6,,,,,,,,,6,,,52,0
2688,note_on,0,0,5,,,,,,,,,5,,,76,92
2688,note_on,2,0,7,,,,,,,,,7,,,48,92
2688,note_on,2,0,6,,,,,,,,,6,,,57,92
2688,note_on,32,0,5,,,,,,,,,5,,,72,92
2830,note_on,142,0,7,,,,,,,,,7,,,48,0
2830,note_on,142,0,6,,,,,,,,,6,,,57,0
2832,note_on,2,0,6,,,,,,,,,6,,,57,92
2832,note_on,2,0,7,,,,,,,,,7,,,48,92
2848,note_on,160,0,5,,,,,,,,,5,,,72,0
2848,note_on,0,0,5,,,,,,,,,5,,,76,0
2878,note_on,46,0,6,,,,,,,,,6,,,57,0
2878,note_on,46,0,7,,,,,,,,,7,,,48,0
2880,note_on,2,0,7,,,,,,,,,7,,,48,92
2880,note_on,0,0,5,,,,,,,,,5,,,81,92
2880,note_on,32,0,5,,,,,,,,,5,,,72,92
2880,note_on,2,0,6,,,,,,,,,6,,,52,92
3022,note_on,142,0,6,,,,,,,,,6,,,52,0
3022,note_on,142,0,7,,,,,,,,,7,,,48,0
3024,note_on,2,0,7,,,,,,,,,7,,,48,92
3024,note_on,2,0,6,,,,,,,,,6,,,52,92
3040,note_on,0,0,5,,,,,,,,,5,,,81,0
3040,note_on,160,0,5,,,,,,,,,5,,,72,0
3070,note_on,46,0,7,,,,,,,,,7,,,48,0
3070,note_on,46,0,6,,,,,,,,,6,,,52,0
3072,note_on,32,0,5,,,,,,,,,5,,,74,92
3072,note_on,2,0,7,,,,,,,,,7,,,46,92
3072,note_on,0,0,5,,,,,,,,,5,,,81,92
3072,note_on,2,0,6,,,,,,,,,6,,,53,92
3214,note_on,142,0,7,,,,,,,,,7,,,46,0
3214,note_on,142,0,6,,,,,,,,,6,,,53,0
3216,note_on,2,0,7,,,,,,,,,7,,,46,92
3216,note_on,2,0,6,,,,,,,,,6,,,53,92
3232,note_on,160,0,5,,,,,,,,,5,,,74,0
3232,note_on,0,0,5,,,,,,,,,5,,,81,0
3262,note_on,46,0,7,,,,,,,,,7,,,46,0
3262,note_on,46,0,6,,,,,,,,,6,,,53,0
3264,note_on,0,0,5,,,,,,,,,5,,,79,92
3264,note_on,32,0,5,,,,,,,,,5,,,70,92
3264,note_on,2,0,7,,,,,,,,,7,,,46,92
3264,note_on,2,0,6,,,,,,,,,6,,,50,92
3406,note_on,142,0,5,,,,,,,,,5,,,70,0
3406,note_on,142,0,6,,,,,,,,,6,,,50,0
3406,note_on,142,0,7,,,,,,,,,7,,,46,0
3408,note_on,2,0,6,,,,,,,,,6,,,50,92
3408,note_on,2,0,5,,,,,,,,,5,,,72,92
3408,note_on,2,0,7,,,,,,,,,7,,,46,92
3454,note_on,46,0,5,,,,,,,,,5,,,72,0
3454,note_on,46,0,6,,,,,,,,,6,,,50,0
3454,note_on,46,0,7,,,,,,,,,7,,,46,0
3456,note_on,2,0,6,,,,,,,,,6,,,46,92
3456,note_on,2,0,7,,,,,,,,,7,,,46,92
3456,note_on,2,0,5,,,,,,,,,5,,,74,92
3598,note_on,142,0,7,,,,,,,,,7,,,46,0
3598,note_on,142,0,5,,,,,,,,,5,,,74,0
3598,note_on,142,0,6,,,,,,,,,6,,,46,0
3600,note_on,0,0,5,,,,,,,,,5,,,76,92
3600,note_on,2,0,6,,,,,,,,,6,,,46,92
3600,note_on,2,0,5,,,,,,,,,5,,,79,0
3600,note_on,2,0,7,,,,,,,,,7,,,46,92
3646,note_on,46,0,5,,,,,,,,,5,,,76,0
3646,note_on,46,0,7,,,,,,,,,7,,,46,0
3646,note_on,46,0,6,,,,,,,,,6,,,46,0
3648,note_on,2,0,7,,,,,,,,,7,,,45,92
3648,note_on,2,0,6,,,,,,,,,6,,,48,92
3648,note_on,2,0,5,,,,,,,,,5,,,77,92
3790,note_on,142,0,7,,,,,,,,,7,,,45,0
3790,note_on,142,0,6,,,,,,,,,6,,,48,0
3790,note_on,142,0,5,,,,,,,,,5,,,77,0
3792,note_on,2,0,5,,,,,,,,,5,,,76,92
3792,note_on,2,0,7,,,,,,,,,7,,,45,92
3792,note_on,2,0,6,,,,,,,,,6,,,48,92
3838,note_on,46,0,5,,,,,,,,,5,,,76,0
3838,note_on,46,0,7,,,,,,,,,7,,,45,0
3838,note_on,46,0,6,,,,,,,,,6,,,48,0
3840,note_on,2,0,5,,,,,,,,,5,,,72,92
3840,note_on,2,0,7,,,,,,,,,7,,,45,92
3840,note_on,0,0,5,,,,,,,,,5,,,77,92
3840,note_on,2,0,6,,,,,,,,,6,,,48,92
3982,note_on,142,0,7,,,,,,,,,7,,,45,0
3982,note_on,142,0,5,,,,,,,,,5,,,77,0
3982,note_on,142,0,6,,,,,,,,,6,,,48,0
3984,note_on,2,0,5,,,,,,,,,5,,,79,92
3984,note_on,2,0,7,,,,,,,,,7,,,45,92
3984,note_on,2,0,6,,,,,,,,,6,,,48,92
4000,note_on,16,0,5,,,,,,,,,5,,,72,0
4030,note_on,46,0,6,,,,,,,,,6,,,48,0
4030,note_on,46,0,7,,,,,,,,,7,,,45,0
4030,note_on,30,0,5,,,,,,,,,5,,,79,0
4032,note_on,2,0,7,,,,,,,,,7,,,45,92
4032,note_on,2,0,6,,,,,,,,,6,,,48,92
4032,note_on,0,0,5,,,,,,,,,5,,,81,92
4032,note_on,2,0,5,,,,,,,,,5,,,77,92
4174,note_on,142,0,6,,,,,,,,,6,,,48,0
4174,note_on,142,0,7,,,,,,,,,7,,,45,0
4174,note_on,142,0,5,,,,,,,,,5,,,81,0
4176,note_on,2,0,6,,,,,,,,,6,,,48,92
4176,note_on,2,0,7,,,,,,,,,7,,,45,92
4176,note_on,2,0,5,,,,,,,,,5,,,77,92
4192,note_on,16,0,5,,,,,,,,,5,,,77,0
4222,note_on,46,0,6,,,,,,,,,6,,,48,0
4222,note_on,30,0,5,,,,,,,,,5,,,77,0
4222,note_on,46,0,7,,,,,,,,,7,,,45,0
4224,note_on,2,0,5,,,,,,,,,5,,,77,92
4224,note_on,2,0,7,,,,,,,,,7,,,43,92
4224,note_on,2,0,6,,,,,,,,,6,,,50,92
4224,note_on,0,0,5,,,,,,,,,5,,,82,92
4366,note_on,142,0,6,,,,,,,,,6,,,50,0
4366,note_on,142,0,5,,,,,,,,,5,,,82,0
4366,note_on,142,0,7,,,,,,,,,7,,,43,0
4368,note_on,2,0,6,,,,,,,,,6,,,50,92
4368,note_on,2,0,5,,,,,,,,,5,,,81,92
4368,note_on,2,0,7,,,,,,,,,7,,,43,92
4384,note_on,16,0,5,,,,,,,,,5,,,77,0
4414,note_on,46,0,6,,,,,,,,,6,,,50,0
4414,note_on,30,0,5,,,,,,,,,5,,,81,0
4414,note_on,46,0,7,,,,,,,,,7,,,43,0
4416,note_on,0,0,5,,,,,,,,,5,,,82,92
4416,note_on,2,0,5,,,,,,,,,5,,,76,92
4416,note_on,2,0,6,,,,,,,,,6,,,55,92
4416,note_on,2,0,7,,,,,,,,,7,,,43,92
4558,note_on,142,0,7,,,,,,,,,7,,,43,0
4558,note_on,142,0,6,,,,,,,,,6,,,55,0
4558,note_on,142,0,5,,,,,,,,,5,,,82,0
4560,note_on,2,0,6,,,,,,,,,6,,,55,92
4560,note_on,2,0,7,,,,,,,,,7,,,43,92
4560,note_on,2,0,5,,,,,,,,,5,,,79,92
4606,note_on,46,0,5,,,,,,,,,5,,,79,0
4606,note_on,46,0,7,,,,,,,,,7,,,43,0
4606,note_on,46,0,6,,,,,,,,,6,,,55,0
4608,note_on,2,0,5,,,,,,,,,5,,,70,92
4608,note_on,0,0,5,,,,,,,,,5,,,81,92
4608,note_on,2,0,7,,,,,,,,,7,,,43,92
4750,note_on,142,0,7,,,,,,,,,7,,,43,0
4750,note_on,142,0,5,,,,,,,,,5,,,81,0
4752,note_on,2,0,7,,,,,,,,,7,,,43,92
4752,note_on,2,0,5,,,,,,,,,5,,,82,92
4768,note_on,0,0,5,,,,,,,,,5,,,76,0
4768,note_on,16,0,5,,,,,,,,,5,,,70,0
4798,note_on,46,0,7,,,,,,,,,7,,,43,0
4798,note_on,30,0,5,,,,,,,,,5,,,82,0
4800,note_on,2,0,7,,,,,,,,,7,,,41,92
4800,note_on,0,0,5,,,,,,,,,5,,,81,92
4800,note_on,0,0,5,,,,,,,,,5,,,77,92
4800,note_on,2,0,5,,,,,,,,,5,,,72,92
4942,note_on,0,0,5,,,,,,,,,5,,,81,0
4942,note_on,0,0,5,,,,,,,,,5,,,77,0
4942,note_on,142,0,5,,,,,,,,,5,,,72,0
4942,note_on,142,0,7,,,,,,,,,7,,,41,0
4944,note_on,0,0,5,,,,,,,,,5,,,77,92
4944,note_on,2,0,7,,,,,,,,,7,,,46,92
4944,note_on,2,0,5,,,,,,,,,5,,,74,92
4990,note_on,0,0,5,,,,,,,,,5,,,77,0
4990,note_on,46,0,7,,,,,,,,,7,,,46,0
4990,note_on,46,0,5,,,,,,,,,5,,,74,0
4992,note_on,0,0,5,,,,,,,,,5,,,76,92
4992,note_on,2,0,5,,,,,,,,,5,,,67,92
4992,note_on,0,0,5,,,,,,,,,5,,,72,92
4992,note_on,2,0,7,,,,,,,,,7,,,48,92
5152,note_on,160,0,7,,,,,,,,,7,,,48,0
5184,note_on,32,0,7,,,,,,,,,7,,,36,92
5248,note_on,256,0,5,,,,,,,,,5,,,67,0
5248,note_on,0,0,5,,,,,,,,,5,,,72,0
5248,note_on,0,0,5,,,,,,,,,5,,,76,0
5280,note_on,0,0,5,,,,,,,,,5,,,77,92
5280,note_on,0,0,5,,,,,,,,,5,,,72,92
5280,note_on,32,0,5,,,,,,,,,5,,,69,92
5344,note_on,160,0,7,,,,,,,,,7,,,36,0
5374,note_on,94,0,5,,,,,,,,,5,,,69,0
5374,note_on,0,0,5,,,,,,,,,5,,,72,0
5374,note_on,0,0,5,,,,,,,,,5,,,77,0
5376,note_on,0,0,5,,,,,,,,,5,,,72,92
5376,note_on,2,0,5,,,,,,,,,5,,,69,92
5376,note_on,32,0,7,,,,,,,,,7,,,53,92
5376,note_on,0,0,5,,,,,,,,,5,,,77,92
5376,note_on,5376,0,4,,,,,,,,,3,,,53,92
5376,note_on,5376,0,2,,,,,,,,,1,,,65,92
5518,note_on,142,0,7,,,,,,,,,7,,,53,0
5520,note_on,2,0,7,,,,,,,,,7,,,53,92
5536,note_on,160,0,2,,,,,,,,,1,,,65,0
5536,note_on,160,0,5,,,,,,,,,5,,,69,0
5536,note_on,160,0,4,,,,,,,,,3,,,53,0
5536,note_on,0,0,5,,,,,,,,,5,,,72,0
5536,note_on,0,0,5,,,,,,,,,5,,,77,0
5566,note_on,46,0,7,,,,,,,,,7,,,53,0
5568,note_on,32,0,2,,,,,,,,,1,,,65,92
5568,note_on,32,0,4,,,,,,,,,3,,,53,92
5568,note_on,2,0,7,,,,,,,,,7,,,53,92
5568,note_on,962,0,6,,,,,,,,,6,,,65,92
5710,note_on,142,0,6,,,,,,,,,6,,,65,0
5710,note_on,142,0,7,,,,,,,,,7,,,53,0
5712,note_on,2,0,6,,,,,,,,,6,,,67,92
5712,note_on,2,0,7,,,,,,,,,7,,,53,92
5712,note_on,0,0,2,,,,,,,,,1,,,67,92
5712,note_on,144,0,2,,,,,,,,,1,,,65,0
5758,note_on,46,0,6,,,,,,,,,6,,,67,0
5758,note_on,46,0,2,,,,,,,,,1,,,67,0
5758,note_on,46,0,7,,,,,,,,,7,,,53,0
5760,note_on,2,0,7,,,,,,,,,7,,,53,92
5760,note_on,2,0,2,,,,,,,,,1,,,69,92
5760,note_on,2,0,6,,,,,,,,,6,,,69,92
5824,note_on,256,0,4,,,,,,,,,3,,,53,0
5856,note_on,32,0,4,,,,,,,,,3,,,53,92
5902,note_on,142,0,6,,,,,,,,,6,,,69,0
5902,note_on,142,0,7,,,,,,,,,7,,,53,0
5904,note_on,2,0,7,,,,,,,,,7,,,53,92
5904,note_on,144,0,2,,,,,,,,,1,,,69,0
5904,note_on,0,0,2,,,,,,,,,1,,,70,92
5904,note_on,2,0,6,,,,,,,,,6,,,70,92
5950,note_on,46,0,2,,,,,,,,,1,,,70,0
5950,note_on,46,0,6,,,,,,,,,6,,,70,0
5950,note_on,94,0,4,,,,,,,,,3,,,53,0
5950,note_on,46,0,7,,,,,,,,,7,,,53,0
5952,note_on,2,0,4,,,,,,,,,3,,,52,92
5952,note_on,2,0,7,,,,,,,,,7,,,52,92
5952,note_on,2,0,6,,,,,,,,,6,,,72,92
5952,note_on,2,0,2,,,,,,,,,1,,,72,92
5952,note_on,416,0,5,,,,,,,,,5,,,79,92
6094,note_on,142,0,7,,,,,,,,,7,,,52,0
6096,note_on,2,0,7,,,,,,,,,7,,,52,92
6112,note_on,160,0,4,,,,,,,,,3,,,52,0
6112,note_on,160,0,6,,,,,,,,,6,,,72,0
6112,note_on,160,0,2,,,,,,,,,1,,,72,0
6112,note_on,160,0,5,,,,,,,,,5,,,79,0
6142,note_on,46,0,7,,,,,,,,,7,,,52,0
6144,note_on,0,0,5,,,,,,,,,5,,,84,92
6144,note_on,32,0,4,,,,,,,,,3,,,52,92
6144,note_on,32,0,2,,,,,,,,,1,,,60,92
6144,note_on,32,0,5,,,,,,,,,5,,,76,92
6144,note_on,32,0,6,,,,,,,,,6,,,60,92
6144,note_on,2,0,7,,,,,,,,,7,,,52,92
6286,note_on,142,0,7,,,,,,,,,7,,,52,0
6288,note_on,2,0,7,,,,,,,,,7,,,52,92
6304,note_on,160,0,2,,,,,,,,,1,,,60,0
6304,note_on,160,0,6,,,,,,,,,6,,,60,0
6304,note_on,160,0,5,,,,,,,,,5,,,76,0
6334,note_on,46,0,7,,,,,,,,,7,,,52,0
6336,note_on,2,0,7,,,,,,,,,7,,,52,92
6336,note_on,32,0,6,,,,,,,,,6,,,62,92
6336,note_on,32,0,2,,,,,,,,,1,,,62,92
6336,note_on,32,0,5,,,,,,,,,5,,,72,92
6478,note_on,142,0,7,,,,,,,,,7,,,52,0
6478,note_on,142,0,6,,,,,,,,,6,,,62,0
6478,note_on,142,0,2,,,,,,,,,1,,,62,0
6480,note_on,2,0,2,,,,,,,,,1,,,64,92
6480,note_on,2,0,6,,,,,,,,,6,,,64,92
6480,note_on,2,0,7,,,,,,,,,7,,,52,92
6480,note_on,336,0,4,,,,,,,,,3,,,52,0
6496,note_on,160,0,5,,,,,,,,,5,,,72,0
6526,note_on,46,0,6,,,,,,,,,6,,,64,0
6526,note_on,46,0,7,,,,,,,,,7,,,52,0
6526,note_on,46,0,2,,,,,,,,,1,,,64,0
6528,note_on,32,0,5,,,,,,,,,5,,,81,92
6528,note_on,48,0,4,,,,,,,,,3,,,50,92
6528,note_on,2,0,6,,,,,,,,,6,,,65,92
6528,note_on,2,0,7,,,,,,,,,7,,,50,92
6528,note_on,2,0,2,,,,,,,,,1,,,65,92
6670,note_on,142,0,7,,,,,,,,,7,,,50,0
6672,note_on,2,0,7,,,,,,,,,7,,,50,92
6688,note_on,160,0,5,,,,,,,,,5,,,81,0
6688,note_on,160,0,2,,,,,,,,,1,,,65,0
6688,note_on,160,0,4,,,,,,,,,3,,,50,0
6688,note_on,0,0,5,,,,,,,,,5,,,84,0
6688,note_on,160,0,6,,,,,,,,,6,,,65,0
6718,note_on,46,0,7,,,,,,,,,7,,,50,0
6720,note_on,32,0,5,,,,,,,,,5,,,74,92
6720,note_on,0,0,5,,,,,,,,,5,,,77,92
6720,note_on,2,0,7,,,,,,,,,7,,,50,92
6720,note_on,32,0,4,,,,,,,,,3,,,50,92
6720,note_on,32,0,2,,,,,,,,,1,,,65,92
6720,note_on,32,0,6,,,,,,,,,6,,,65,92
6862,note_on,142,0,5,,,,,,,,,5,,,77,0
6862,note_on,142,0,6,,,,,,,,,6,,,65,0
6862,note_on,142,0,7,,,,,,,,,7,,,50,0
6864,note_on,2,0,7,,,,,,,,,7,,,50,92
6864,note_on,2,0,6,,,,,,,,,6,,,64,92
6864,note_on,2,0,5,,,,,,,,,5,,,76,92
6864,note_on,144,0,2,,,,,,,,,1,,,65,0
6864,note_on,0,0,2,,,,,,,,,1,,,64,92
6880,note_on,16,0,5,,,,,,,,,5,,,74,0
6910,note_on,46,0,7,,,,,,,,,7,,,50,0
6910,note_on,46,0,2,,,,,,,,,1,,,64,0
6910,note_on,46,0,6,,,,,,,,,6,,,64,0
6910,note_on,30,0,5,,,,,,,,,5,,,76,0
6912,note_on,2,0,5,,,,,,,,,5,,,74,92
6912,note_on,2,0,2,,,,,,,,,1,,,65,92
6912,note_on,0,0,5,,,,,,,,,5,,,82,92
6912,note_on,2,0,6,,,,,,,,,6,,,65,92
6912,note_on,2,0,7,,,,,,,,,7,,,50,92
6912,note_on,0,0,5,,,,,,,,,5,,,77,92
7054,note_on,0,0,5,,,,,,,,,5,,,77,0
7054,note_on,142,0,7,,,,,,,,,7,,,50,0
7054,note_on,142,0,6,,,,,,,,,6,,,65,0
7054,note_on,142,0,5,,,,,,,,,5,,,74,0
7056,note_on,336,0,4,,,,,,,,,3,,,50,0
7056,note_on,0,0,2,,,,,,,,,1,,,67,92
7056,note_on,2,0,7,,,,,,,,,7,,,50,92
7056,note_on,144,0,2,,,,,,,,,1,,,65,0
7056,note_on,2,0,6,,,,,,,,,6,,,67,92
7056,note_on,2,0,5,,,,,,,,,5,,,79,92
7102,note_on,46,0,2,,,,,,,,,1,,,67,0
7102,note_on,46,0,6,,,,,,,,,6,,,67,0
7102,note_on,46,0,7,,,,,,,,,7,,,50,0
7102,note_on,46,0,5,,,,,,,,,5,,,79,0
7104,note_on,2,0,7,,,,,,,,,7,,,48,92
7104,note_on,2,0,2,,,,,,,,,1,,,64,92
7104,note_on,2,0,6,,,,,,,,,6,,,64,92
7104,note_on,2,0,5,,,,,,,,,5,,,76,92
7104,note_on,48,0,4,,,,,,,,,3,,,48,92
7246,note_on,142,0,7,,,,,,,,,7,,,48,0
7248,note_on,2,0,7,,,,,,,,,7,,,48,92
7264,note_on,0,0,5,,,,,,,,,5,,,82,0
7264,note_on,160,0,5,,,,,,,,,5,,,76,0
7264,note_on,160,0,6,,,,,,,,,6,,,64,0
7294,note_on,46,0,7,,,,,,,,,7,,,48,0
7296,note_on,2,0,7,,,,,,,,,7,,,48,92
7296,note_on,32,0,6,,,,,,,,,6,,,69,92
7296,note_on,0,0,2,,,,,,,,,1,,,69,92
7296,note_on,192,0,2,,,,,,,,,1,,,64,0
7296,note_on,32,0,5,,,,,,,,,5,,,72,92
7296,note_on,0,0,5,,,,,,,,,5,,,76,92
7360,note_on,256,0,4,,,,,,,,,3,,,48,0
7392,note_on,32,0,4,,,,,,,,,3,,,48,92
7438,note_on,142,0,6,,,,,,,,,6,,,69,0
7438,note_on,142,0,7,,,,,,,,,7,,,48,0
7440,note_on,0,0,2,,,,,,,,,1,,,67,92
7440,note_on,2,0,7,,,,,,,,,7,,,48,92
7440,note_on,144,0,2,,,,,,,,,1,,,69,0
7440,note_on,2,0,6,,,,,,,,,6,,,67,92
7456,note_on,0,0,5,,,,,,,,,5,,,76,0
7456,note_on,160,0,5,,,,,,,,,5,,,72,0
7486,note_on,46,0,7,,,,,,,,,7,,,48,0
7486,note_on,46,0,6,,,,,,,,,6,,,67,0
7486,note_on,94,0,4,,,,,,,,,3,,,48,0
7488,note_on,0,0,5,,,,,,,,,5,,,76,92
7488,note_on,0,0,5,,,,,,,,,5,,,81,92
7488,note_on,2,0,6,,,,,,,,,6,,,69,92
7488,note_on,2,0,7,,,,,,,,,7,,,48,92
7488,note_on,48,0,2,,,,,,,,,1,,,67,0
7488,note_on,0,0,2,,,,,,,,,1,,,69,92
7488,note_on,32,0,5,,,,,,,,,5,,,72,92
7488,note_on,2,0,4,,,,,,,,,3,,,48,92
7630,note_on,142,0,7,,,,,,,,,7,,,48,0
7632,note_on,2,0,7,,,,,,,,,7,,,48,92
7648,note_on,160,0,5,,,,,,,,,5,,,72,0
7648,note_on,0,0,5,,,,,,,,,5,,,76,0
7648,note_on,160,0,6,,,,,,,,,6,,,69,0
7648,note_on,160,0,4,,,,,,,,,3,,,48,0
7678,note_on,46,0,7,,,,,,,,,7,,,48,0
7680,note_on,32,0,5,,,,,,,,,5,,,74,92
7680,note_on,0,0,5,,,,,,,,,5,,,77,92
7680,note_on,32,0,4,,,,,,,,,3,,,58,92
7680,note_on,32,0,6,,,,,,,,,6,,,62,92
7680,note_on,2,0,7,,,,,,,,,7,,,46,92
7680,note_on,192,0,2,,,,,,,,,1,,,69,0
7680,note_on,0,0,2,,,,,,,,,1,,,62,92
7822,note_on,142,0,7,,,,,,,,,7,,,46,0
7824,note_on,2,0,7,,,,,,,,,7,,,46,92
7840,note_on,160,0,6,,,,,,,,,6,,,62,0
7840,note_on,0,0,5,,,,,,,,,5,,,81,0
7840,note_on,160,0,5,,,,,,,,,5,,,74,0
7840,note_on,0,0,5,,,,,,,,,5,,,77,0
7870,note_on,46,0,7,,,,,,,,,7,,,46,0
7872,note_on,192,0,2,,,,,,,,,1,,,62,0
7872,note_on,0,0,5,,,,,,,,,5,,,74,92
7872,note_on,0,0,2,,,,,,,,,1,,,67,92
7872,note_on,2,0,7,,,,,,,,,7,,,46,92
7872,note_on,32,0,5,,,,,,,,,5,,,70,92
7872,note_on,32,0,6,,,,,,,,,6,,,67,92
8014,note_on,142,0,7,,,,,,,,,7,,,46,0
8014,note_on,142,0,6,,,,,,,,,6,,,67,0
8016,note_on,144,0,2,,,,,,,,,1,,,67,0
8016,note_on,2,0,6,,,,,,,,,6,,,65,92
8016,note_on,2,0,7,,,,,,,,,7,,,46,92
8016,note_on,0,0,2,,,,,,,,,1,,,65,92
8032,note_on,160,0,5,,,,,,,,,5,,,70,0
8032,note_on,0,0,5,,,,,,,,,5,,,74,0
8062,note_on,46,0,6,,,,,,,,,6,,,65,0
8062,note_on,46,0,7,,,,,,,,,7,,,46,0
8064,note_on,0,0,2,,,,,,,,,1,,,67,92
8064,note_on,48,0,2,,,,,,,,,1,,,65,0
8064,note_on,2,0,6,,,,,,,,,6,,,67,92
8064,note_on,2,0,7,,,,,,,,,7,,,46,92
8064,note_on,0,0,5,,,,,,,,,5,,,79,92
8064,note_on,0,0,5,,,,,,,,,5,,,74,92
8064,note_on,32,0,5,,,,,,,,,5,,,70,92
8206,note_on,142,0,7,,,,,,,,,7,,,46,0
8208,note_on,2,0,7,,,,,,,,,7,,,46,92
8224,note_on,0,0,5,,,,,,,,,5,,,74,0
8224,note_on,160,0,5,,,,,,,,,5,,,70,0
8224,note_on,160,0,6,,,,,,,,,6,,,67,0
8254,note_on,46,0,7,,,,,,,,,7,,,46,0
8256,note_on,576,0,4,,,,,,,,,3,,,58,0
8256,note_on,0,0,4,,,,,,,,,3,,,57,92
8256,note_on,0,0,5,,,,,,,,,5,,,76,92
8256,note_on,32,0,6,,,,,,,,,6,,,60,92
8256,note_on,2,0,7,,,,,,,,,7,,,45,92
8256,note_on,0,0,2,,,,,,,,,1,,,60,92
8256,note_on,192,0,2,,,,,,,,,1,,,67,0
8256,note_on,32,0,5,,,,,,,,,5,,,72,92
8398,note_on,142,0,7,,,,,,,,,7,,,45,0
8400,note_on,2,0,7,,,,,,,,,7,,,45,92
8416,note_on,160,0,5,,,,,,,,,5,,,72,0
8416,note_on,0,0,5,,,,,,,,,5,,,76,0
8416,note_on,160,0,6,,,,,,,,,6,,,60,0
8416,note_on,0,0,5,,,,,,,,,5,,,79,0
8446,note_on,46,0,7,,,,,,,,,7,,,45,0
8448,note_on,2,0,7,,,,,,,,,7,,,45,92
8448,note_on,32,0,6,,,,,,,,,6,,,65,92
8448,note_on,32,0,5,,,,,,,,,5,,,69,92
8448,note_on,0,0,5,,,,,,,,,5,,,72,92
8448,note_on,0,0,2,,,,,,,,,1,,,65,92
8448,note_on,192,0,2,,,,,,,,,1,,,60,0
8590,note_on,142,0,6,,,,,,,,,6,,,65,0
8590,note_on,142,0,7,,,,,,,,,7,,,45,0
8592,note_on,2,0,6,,,,,,,,,6,,,64,92
8592,note_on,0,0,2,,,,,,,,,1,,,64,92
8592,note_on,144,0,2,,,,,,,,,1,,,65,0
8592,note_on,2,0,7,,,,,,,,,7,,,45,92
8608,note_on,0,0,5,,,,,,,,,5,,,72,0
8608,note_on,160,0,5,,,,,,,,,5,,,69,0
8638,note_on,46,0,7,,,,,,,,,7,,,45,0
8638,note_on,46,0,6,,,,,,,,,6,,,64,0
8640,note_on,2,0,6,,,,,,,,,6,,,65,92
8640,note_on,32,0,5,,,,,,,,,5,,,69,92
8640,note_on,0,0,5,,,,,,,,,5,,,72,92
8640,note_on,0,0,5,,,,,,,,,5,,,77,92
8640,note_on,48,0,2,,,,,,,,,1,,,64,0
8640,note_on,0,0,2,,,,,,,,,1,,,65,92
8640,note_on,2,0,7,,,,,,,,,7,,,45,92
8782,note_on,142,0,7,,,,,,,,,7,,,45,0
8784,note_on,2,0,7,,,,,,,,,7,,,45,92
8800,note_on,160,0,6,,,,,,,,,6,,,65,0
8800,note_on,160,0,5,,,,,,,,,5,,,69,0
8800,note_on,0,0,5,,,,,,,,,5,,,72,0
8800,note_on,0,0,5,,,,,,,,,5,,,77,0
8830,note_on,46,0,7,,,,,,,,,7,,,45,0
8832,note_on,0,0,5,,,,,,,,,5,,,74,92
8832,note_on,32,0,5,,,,,,,,,5,,,70,92
8832,note_on,192,0,2,,,,,,,,,1,,,65,0
8832,note_on,576,0,4,,,,,,,,,3,,,57,0
8832,note_on,0,0,2,,,,,,,,,1,,,70,92
8832,note_on,2,0,7,,,,,,,,,7,,,43,92
8832,note_on,0,0,4,,,,,,,,,3,,,55,92
8832,note_on,0,0,5,,,,,,,,,5,,,77,92
8974,note_on,142,0,5,,,,,,,,,5,,,70,0
8974,note_on,142,0,7,,,,,,,,,7,,,43,0
8976,note_on,144,0,2,,,,,,,,,1,,,70,0
8976,note_on,0,0,2,,,,,,,,,1,,,69,92
8976,note_on,2,0,5,,,,,,,,,5,,,69,92
8976,note_on,2,0,7,,,,,,,,,7,,,43,92
8992,note_on,0,0,5,,,,,,,,,5,,,77,0
8992,note_on,16,0,5,,,,,,,,,5,,,74,0
9022,note_on,30,0,5,,,,,,,,,5,,,69,0
9022,note_on,46,0,7,,,,,,,,,7,,,43,0
9024,note_on,2,0,7,,,,,,,,,7,,,43,92
9024,note_on,0,0,5,,,,,,,,,5,,,76,92
9024,note_on,2,0,5,,,,,,,,,5,,,70,92
9024,note_on,0,0,2,,,,,,,,,1,,,70,92
9024,note_on,48,0,2,,,,,,,,,1,,,69,0
9166,note_on,142,0,5,,,,,,,,,5,,,70,0
9166,note_on,142,0,7,,,,,,,,,7,,,43,0
9168,note_on,144,0,2,,,,,,,,,1,,,70,0
9168,note_on,0,0,2,,,,,,,,,1,,,67,92
9168,note_on,2,0,5,,,,,,,,,5,,,67,92
9168,note_on,2,0,7,,,,,,,,,7,,,43,92
9214,note_on,46,0,7,,,,,,,,,7,,,43,0
9214,note_on,46,0,5,,,,,,,,,5,,,67,0
9216,note_on,0,0,2,,,,,,,,,1,,,69,92
9216,note_on,48,0,2,,,,,,,,,1,,,67,0
9216,note_on,2,0,7,,,,,,,,,7,,,43,92
9216,note_on,2,0,5,,,,,,,,,5,,,69,92
9358,note_on,142,0,5,,,,,,,,,5,,,69,0
9358,note_on,142,0,7,,,,,,,,,7,,,43,0
9360,note_on,2,0,7,,,,,,,,,7,,,43,92
9360,note_on,144,0,2,,,,,,,,,1,,,69,0
9360,note_on,0,0,2,,,,,,,,,1,,,70,92
9360,note_on,2,0,5,,,,,,,,,5,,,76,0
9360,note_on,0,0,5,,,,,,,,,5,,,70,92
9406,note_on,46,0,7,,,,,,,,,7,,,43,0
9406,note_on,46,0,5,,,,,,,,,5,,,70,0
9408,note_on,0,0,5,,,,,,,,,5,,,77,92
9408,note_on,2,0,5,,,,,,,,,5,,,69,92
9408,note_on,0,0,5,,,,,,,,,5,,,72,92
9408,note_on,576,0,4,,,,,,,,,3,,,55,0
9408,note_on,48,0,2,,,,,,,,,1,,,70,0
9408,note_on,0,0,4,,,,,,,,,3,,,53,92
9408,note_on,2,0,7,,,,,,,,,7,,,41,92
9408,note_on,0,0,2,,,,,,,,,1,,,69,92
9502,note_on,94,0,2,,,,,,,,,1,,,69,0
9502,note_on,94,0,4,,,,,,,,,3,,,53,0
9504,note_on,2,0,2,,,,,,,,,1,,,67,92
9504,note_on,2,0,4,,,,,,,,,3,,,46,92
9550,note_on,142,0,7,,,,,,,,,7,,,41,0
9550,note_on,0,0,5,,,,,,,,,5,,,77,0
9550,note_on,0,0,5,,,,,,,,,5,,,72,0
9550,note_on,142,0,5,,,,,,,,,5,,,69,0
9552,note_on,48,0,2,,,,,,,,,1,,,67,0
9552,note_on,0,0,2,,,,,,,,,1,,,65,92
9552,note_on,2,0,7,,,,,,,,,7,,,46,92
9552,note_on,0,0,5,,,,,,,,,5,,,69,92
9552,note_on,2,0,5,,,,,,,,,5,,,65,92
9598,note_on,0,0,5,,,,,,,,,5,,,69,0
9598,note_on,46,0,5,,,,,,,,,5,,,65,0
9598,note_on,94,0,4,,,,,,,,,3,,,46,0
9598,note_on,46,0,7,,,,,,,,,7,,,46,0
9598,note_on,46,0,2,,,,,,,,,1,,,65,0
9600,note_on,2,0,7,,,,,,,,,7,,,48,92
9600,note_on,2,0,4,,,,,,,,,3,,,48,92
9600,note_on,2,0,2,,,,,,,,,1,,,64,92
9600,note_on,2,0,5,,,,,,,,,5,,,64,92
9600,note_on,0,0,5,,,,,,,,,5,,,67,92
9742,note_on,142,0,5,,,,,,,,,5,,,67,0
9744,note_on,2,0,5,,,,,,,,,5,,,69,92
9760,note_on,160,0,7,,,,,,,,,7,,,48,0
9790,note_on,46,0,5,,,,,,,,,5,,,69,0
9792,note_on,2,0,5,,,,,,,,,5,,,70,92
9792,note_on,32,0,7,,,,,,,,,7,,,36,92
9934,note_on,142,0,5,,,,,,,,,5,,,70,0
9936,note_on,2,0,5,,,,,,,,,5,,,64,0
9936,note_on,0,0,5,,,,,,,,,5,,,72,92
9936,note_on,336,0,4,,,,,,,,,3,,,48,0
9936,note_on,336,0,2,,,,,,,,,1,,,64,0
9952,note_on,160,0,7,,,,,,,,,7,,,36,0
9982,note_on,46,0,5,,,,,,,,,5,,,72,0
9984,note_on,32,0,7,,,,,,,,,7,,,53,92
9984,note_on,48,0,4,,,,,,,,,3,,,53,92
9984,note_on,0,0,5,,,,,,,,,5,,,69,92
9984,note_on,2,0,5,,,,,,,,,5,,,65,92
9984,note_on,48,0,2,,,,,,,,,1,,,65,92
9984,note_on,1184,0,6,,,,,,,,,6,,,60,92
10126,note_on,142,0,7,,,,,,,,,7,,,53,0
10126,note_on,142,0,5,,,,,,,,,5,,,69,0
10128,note_on,2,0,7,,,,,,,,,7,,,52,92
10128,note_on,2,0,5,,,,,,,,,5,,,67,92
10144,note_on,16,0,5,,,,,,,,,5,,,65,0
10144,note_on,160,0,6,,,,,,,,,6,,,60,0
10174,note_on,30,0,5,,,,,,,,,5,,,67,0
10174,note_on,46,0,7,,,,,,,,,7,,,52,0
10176,note_on,0,0,5,,,,,,,,,5,,,69,92
10176,note_on,2,0,5,,,,,,,,,5,,,65,92
10176,note_on,2,0,7,,,,,,,,,7,,,53,92
10318,note_on,142,0,5,,,,,,,,,5,,,69,0
10318,note_on,142,0,7,,,,,,,,,7,,,53,0
10320,note_on,2,0,7,,,,,,,,,7,,,55,92
10320,note_on,2,0,5,,,,,,,,,5,,,71,92
10366,note_on,46,0,7,,,,,,,,,7,,,55,0
10366,note_on,46,0,5,,,,,,,,,5,,,71,0
10368,note_on,2,0,5,,,,,,,,,5,,,69,92
10368,note_on,0,0,5,,,,,,,,,5,,,72,92
10368,note_on,2,0,7,,,,,,,,,7,,,57,92
10510,note_on,142,0,5,,,,,,,,,5,,,72,0
10510,note_on,142,0,7,,,,,,,,,7,,,57,0
10512,note_on,528,0,2,,,,,,,,,1,,,65,0
10512,note_on,2,0,5,,,,,,,,,5,,,74,92
10512,note_on,528,0,4,,,,,,,,,3,,,53,0
10512,note_on,2,0,7,,,,,,,,,7,,,59,92
10528,note_on,0,0,5,,,,,,,,,5,,,69,0
10528,note_on,16,0,5,,,,,,,,,5,,,65,0
10558,note_on,46,0,7,,,,,,,,,7,,,59,0
10558,note_on,30,0,5,,,,,,,,,5,,,74,0
10560,note_on,10560,0,3,,,,,,,,,2,,,60,92
10560,note_on,10560,0,1,,,,,,,,,0,,,72,92
10560,note_on,2,0,7,,,,,,,,,7,,,60,92
10560,note_on,2,0,5,,,,,,,,,5,,,67,92
10560,note_on,0,0,5,,,,,,,,,5,,,76,92
10702,note_on,142,0,7,,,,,,,,,7,,,60,0
10704,note_on,2,0,7,,,,,,,,,7,,,60,92
10720,note_on,160,0,1,,,,,,,,,0,,,72,0
10720,note_on,160,0,3,,,,,,,,,2,,,60,0
10720,note_on,0,0,5,,,,,,,,,5,,,76,0
10720,note_on,160,0,5,,,,,,,,,5,,,67,0
10750,note_on,46,0,7,,,,,,,,,7,,,60,0
10752,note_on,32,0,5,,,,,,,,,5,,,72,92
10752,note_on,2,0,7,,,,,,,,,7,,,60,92
10752,note_on,32,0,1,,,,,,,,,0,,,72,92
10752,note_on,32,0,3,,,,,,,,,2,,,60,92
10894,note_on,142,0,7,,,,,,,,,7,,,60,0
10894,note_on,142,0,5,,,,,,,,,5,,,72,0
10896,note_on,2,0,7,,,,,,,,,7,,,60,92
10896,note_on,2,0,5,,,,,,,,,5,,,74,92
10896,note_on,0,0,1,,,,,,,,,0,,,74,92
10896,note_on,144,0,1,,,,,,,,,0,,,72,0
10942,note_on,46,0,1,,,,,,,,,0,,,74,0
10942,note_on,46,0,7,,,,,,,,,7,,,60,0
10942,note_on,46,0,5,,,,,,,,,5,,,74,0
10944,note_on,2,0,5,,,,,,,,,5,,,76,92
10944,note_on,2,0,1,,,,,,,,,0,,,76,92
10944,note_on,2,0,7,,,,,,,,,7,,,60,92
11008,note_on,256,0,3,,,,,,,,,2,,,60,0
11040,note_on,32,0,3,,,,,,,,,2,,,60,92
11086,note_on,142,0,5,,,,,,,,,5,,,76,0
11086,note_on,142,0,7,,,,,,,,,7,,,60,0
11088,note_on,144,0,1,,,,,,,,,0,,,76,0
11088,note_on,0,0,1,,,,,,,,,0,,,77,92
11088,note_on,2,0,7,,,,,,,,,7,,,60,92
11088,note_on,2,0,5,,,,,,,,,5,,,77,92
11134,note_on,46,0,7,,,,,,,,,7,,,60,0
11134,note_on,46,0,5,,,,,,,,,5,,,77,0
11134,note_on,94,0,3,,,,,,,,,2,,,60,0
11134,note_on,46,0,1,,,,,,,,,0,,,77,0
11136,note_on,2,0,7,,,,,,,,,7,,,59,92
11136,note_on,2,0,5,,,,,,,,,5,,,79,92
11136,note_on,2,0,3,,,,,,,,,2,,,59,92
11136,note_on,2,0,1,,,,,,,,,0,,,79,92
11136,note_on,992,0,6,,,,,,,,,6,,,62,92
11278,note_on,142,0,7,,,,,,,,,7,,,59,0
11280,note_on,2,0,7,,,,,,,,,7,,,59,92
11296,note_on,160,0,3,,,,,,,,,2,,,59,0
11296,note_on,160,0,5,,,,,,,,,5,,,79,0
11296,note_on,160,0,6,,,,,,,,,6,,,62,0
11296,note_on,160,0,1,,,,,,,,,0,,,79,0
11326,note_on,46,0,7,,,,,,,,,7,,,59,0
11328,note_on,32,0,1,,,,,,,,,0,,,67,92
11328,note_on,2,0,7,,,,,,,,,7,,,59,92
11328,note_on,0,0,5,,,,,,,,,5,,,79,92
11328,note_on,32,0,5,,,,,,,,,5,,,67,92
11328,note_on,32,0,3,,,,,,,,,2,,,59,92
11328,note_on,32,0,6,,,,,,,,,6,,,59,92
11470,note_on,142,0,7,,,,,,,,,7,,,59,0
11472,note_on,2,0,7,,,,,,,,,7,,,59,92
11488,note_on,160,0,6,,,,,,,,,6,,,59,0
11488,note_on,160,0,1,,,,,,,,,0,,,67,0
11488,note_on,160,0,5,,,,,,,,,5,,,67,0
11518,note_on,46,0,7,,,,,,,,,7,,,59,0
11520,note_on,32,0,1,,,,,,,,,0,,,69,92
11520,note_on,2,0,7,,,,,,,,,7,,,59,92
11520,note_on,32,0,5,,,,,,,,,5,,,69,92
11520,note_on,32,0,6,,,,,,,,,6,,,67,92
11662,note_on,142,0,7,,,,,,,,,7,,,59,0
11662,note_on,142,0,1,,,,,,,,,0,,,69,0
11662,note_on,142,0,5,,,,,,,,,5,,,69,0
11664,note_on,2,0,7,,,,,,,,,7,,,59,92
11664,note_on,2,0,1,,,,,,,,,0,,,71,92
11664,note_on,2,0,5,,,,,,,,,5,,,71,92
11664,note_on,336,0,3,,,,,,,,,2,,,59,0
11680,note_on,160,0,6,,,,,,,,,6,,,67,0
11710,note_on,46,0,7,,,,,,,,,7,,,59,0
11710,note_on,46,0,5,,,,,,,,,5,,,71,0
11710,note_on,46,0,1,,,,,,,,,0,,,71,0
11712,note_on,2,0,7,,,,,,,,,7,,,57,92
11712,note_on,32,0,6,,,,,,,,,6,,,64,92
11712,note_on,2,0,1,,,,,,,,,0,,,72,92
11712,note_on,48,0,3,,,,,,,,,2,,,57,92
11712,note_on,2,0,5,,,,,,,,,5,,,72,92
11854,note_on,142,0,7,,,,,,,,,7,,,57,0
11856,note_on,2,0,7,,,,,,,,,7,,,57,92
11872,note_on,160,0,1,,,,,,,,,0,,,72,0
11872,note_on,0,0,5,,,,,,,,,5,,,79,0
11872,note_on,160,0,3,,,,,,,,,2,,,57,0
11872,note_on,160,0,5,,,,,,,,,5,,,72,0
11872,note_on,160,0,6,,,,,,,,,6,,,64,0
11902,note_on,46,0,7,,,,,,,,,7,,,57,0
11904,note_on,32,0,5,,,,,,,,,5,,,69,92
11904,note_on,0,0,5,,,,,,,,,5,,,72,92
11904,note_on,2,0,7,,,,,,,,,7,,,57,92
11904,note_on,32,0,1,,,,,,,,,0,,,72,92
11904,note_on,32,0,3,,,,,,,,,2,,,57,92
11904,note_on,32,0,6,,,,,,,,,6,,,60,92
12046,note_on,142,0,5,,,,,,,,,5,,,72,0
12046,note_on,142,0,7,,,,,,,,,7,,,57,0
12048,note_on,2,0,5,,,,,,,,,5,,,71,92
12048,note_on,2,0,7,,,,,,,,,7,,,57,92
12048,note_on,144,0,1,,,,,,,,,0,,,72,0
12048,note_on,0,0,1,,,,,,,,,0,,,71,92
12064,note_on,160,0,6,,,,,,,,,6,,,60,0
12064,note_on,16,0,5,,,,,,,,,5,,,69,0
12094,note_on,30,0,5,,,,,,,,,5,,,71,0
12094,note_on,46,0,1,,,,,,,,,0,,,71,0
12094,note_on,46,0,7,,,,,,,,,7,,,57,0
12096,note_on,2,0,5,,,,,,,,,5,,,72,92
12096,note_on,0,0,5,,,,,,,,,5,,,77,92
12096,note_on,32,0,6,,,,,,,,,6,,,57,92
12096,note_on,2,0,7,,,,,,,,,7,,,57,92
12096,note_on,2,0,1,,,,,,,,,0,,,72,92
12238,note_on,142,0,5,,,,,,,,,5,,,72,0
12238,note_on,142,0,7,,,,,,,,,7,,,57,0
12240,note_on,336,0,3,,,,,,,,,2,,,57,0
12240,note_on,2,0,5,,,,,,,,,5,,,74,92
12240,note_on,0,0,1,,,,,,,,,0,,,74,92
12240,note_on,2,0,7,,,,,,,,,7,,,57,92
12240,note_on,144,0,1,,,,,,,,,0,,,72,0
12256,note_on,160,0,6,,,,,,,,,6,,,57,0
12286,note_on,46,0,1,,,,,,,,,0,,,74,0
12286,note_on,46,0,7,,,,,,,,,7,,,57,0
12286,note_on,46,0,5,,,,,,,,,5,,,74,0
12288,note_on,2,0,1,,,,,,,,,0,,,71,92
12288,note_on,2,0,5,,,,,,,,,5,,,71,92
12288,note_on,48,0,3,,,,,,,,,2,,,55,92
12288,note_on,2,0,7,,,,,,,,,7,,,55,92
12288,note_on,32,0,6,,,,,,,,,6,,,62,92
12430,note_on,142,0,7,,,,,,,,,7,,,55,0
12432,note_on,2,0,7,,,,,,,,,7,,,55,92
12448,note_on,160,0,5,,,,,,,,,5,,,71,0
12448,note_on,160,0,6,,,,,,,,,6,,,62,0
12448,note_on,0,0,5,,,,,,,,,5,,,77,0
12478,note_on,46,0,7,,,,,,,,,7,,,55,0
12480,note_on,32,0,5,,,,,,,,,5,,,67,92
12480,note_on,0,0,1,,,,,,,,,0,,,76,92
12480,note_on,0,0,5,,,,,,,,,5,,,76,92
12480,note_on,192,0,1,,,,,,,,,0,,,71,0
12480,note_on,2,0,7,,,,,,,,,7,,,55,92
12480,note_on,32,0,6,,,,,,,,,6,,,59,92
12544,note_on,256,0,3,,,,,,,,,2,,,55,0
12576,note_on,32,0,3,,,,,,,,,2,,,55,92
12622,note_on,142,0,5,,,,,,,,,5,,,76,0
12622,note_on,142,0,7,,,,,,,,,7,,,55,0
12624,note_on,144,0,1,,,,,,,,,0,,,76,0
12624,note_on,2,0,5,,,,,,,,,5,,,74,92
12624,note_on,0,0,1,,,,,,,,,0,,,74,92
12624,note_on,2,0,7,,,,,,,,,7,,,55,92
12640,note_on,160,0,6,,,,,,,,,6,,,59,0
12640,note_on,16,0,5,,,,,,,,,5,,,67,0
12670,note_on,30,0,5,,,,,,,,,5,,,74,0
12670,note_on,94,0,3,,,,,,,,,2,,,55,0
12670,note_on,46,0,7,,,,,,,,,7,,,55,0
12672,note_on,2,0,7,,,,,,,,,7,,,55,92
12672,note_on,2,0,3,,,,,,,,,2,,,55,92
12672,note_on,0,0,1,,,,,,,,,0,,,76,92
12672,note_on,2,0,5,,,,,,,,,5,,,71,92
12672,note_on,0,0,5,,,,,,,,,5,,,76,92
12672,note_on,48,0,1,,,,,,,,,0,,,74,0
12672,note_on,32,0,6,,,,,,,,,6,,,55,92
12814,note_on,142,0,7,,,,,,,,,7,,,55,0
12816,note_on,2,0,7,,,,,,,,,7,,,55,92
12832,note_on,160,0,3,,,,,,,,,2,,,55,0
12832,note_on,160,0,5,,,,,,,,,5,,,71,0
12832,note_on,160,0,6,,,,,,,,,6,,,55,0
12862,note_on,46,0,7,,,,,,,,,7,,,55,0
12864,note_on,32,0,6,,,,,,,,,6,,,60,92
12864,note_on,32,0,5,,,,,,,,,5,,,69,92
12864,note_on,2,0,7,,,,,,,,,7,,,53,92
12864,note_on,0,0,1,,,,,,,,,0,,,69,92
12864,note_on,192,0,1,,,,,,,,,0,,,76,0
12864,note_on,32,0,3,,,,,,,,,2,,,65,92
13006,note_on,142,0,7,,,,,,,,,7,,,53,0
13008,note_on,2,0,7,,,,,,,,,7,,,53,92
13024,note_on,160,0,6,,,,,,,,,6,,,60,0
13024,note_on,0,0,5,,,,,,,,,5,,,76,0
13024,note_on,160,0,5,,,,,,,,,5,,,69,0
13054,note_on,46,0,7,,,,,,,,,7,,,53,0
13056,note_on,32,0,6,,,,,,,,,6,,,57,92
13056,note_on,0,0,1,,,,,,,,,0,,,74,92
13056,note_on,192,0,1,,,,,,,,,0,,,69,0
13056,note_on,2,0,7,,,,,,,,,7,,,53,92
13056,note_on,0,0,5,,,,,,,,,5,,,74,92
13056,note_on,32,0,5,,,,,,,,,5,,,69,92
13198,note_on,142,0,7,,,,,,,,,7,,,53,0
13198,note_on,142,0,5,,,,,,,,,5,,,74,0
13200,note_on,0,0,1,,,,,,,,,0,,,72,92
13200,note_on,2,0,7,,,,,,,,,7,,,53,92
13200,note_on,144,0,1,,,,,,,,,0,,,74,0
13200,note_on,2,0,5,,,,,,,,,5,,,72,92
13216,note_on,16,0,5,,,,,,,,,5,,,69,0
13216,note_on,160,0,6,,,,,,,,,6,,,57,0
13246,note_on,46,0,7,,,,,,,,,7,,,53,0
13246,note_on,30,0,5,,,,,,,,,5,,,72,0
13248,note_on,48,0,1,,,,,,,,,0,,,72,0
13248,note_on,0,0,1,,,,,,,,,0,,,74,92
13248,note_on,2,0,5,,,,,,,,,5,,,65,92
13248,note_on,2,0,7,,,,,,,,,7,,,53,92
13248,note_on,0,0,5,,,,,,,,,5,,,74,92
13248,note_on,0,0,5,,,,,,,,,5,,,69,92
13390,note_on,142,0,7,,,,,,,,,7,,,53,0
13392,note_on,2,0,7,,,,,,,,,7,,,53,92
13408,note_on,160,0,5,,,,,,,,,5,,,65,0
13408,note_on,0,0,5,,,,,,,,,5,,,69,0
13438,note_on,46,0,7,,,,,,,,,7,,,53,0
13440,note_on,0,0,3,,,,,,,,,2,,,64,92
13440,note_on,576,0,3,,,,,,,,,2,,,65,0
13440,note_on,224,0,6,,,,,,,,,6,,,59,92
13440,note_on,32,0,5,,,,,,,,,5,,,67,92
13440,note_on,0,0,1,,,,,,,,,0,,,67,92
13440,note_on,192,0,1,,,,,,,,,0,,,74,0
13440,note_on,2,0,7,,,,,,,,,7,,,52,92
13582,note_on,142,0,7,,,,,,,,,7,,,52,0
13584,note_on,2,0,7,,,,,,,,,7,,,52,92
13600,note_on,160,0,5,,,,,,,,,5,,,67,0
13600,note_on,160,0,6,,,,,,,,,6,,,59,0
13600,note_on,0,0,5,,,,,,,,,5,,,74,0
13630,note_on,46,0,7,,,,,,,,,7,,,52,0
13632,note_on,32,0,5,,,,,,,,,5,,,64,92
13632,note_on,0,0,5,,,,,,,,,5,,,72,92
13632,note_on,192,0,1,,,,,,,,,0,,,67,0
13632,note_on,2,0,7,,,,,,,,,7,,,52,92
13632,note_on,32,0,6,,,,,,,,,6,,,55,92
13632,note_on,0,0,1,,,,,,,,,0,,,72,92
13774,note_on,142,0,7,,,,,,,,,7,,,52,0
13774,note_on,142,0,5,,,,,,,,,5,,,64,0
13774,note_on,0,0,5,,,,,,,,,5,,,72,0
13776,note_on,2,0,7,,,,,,,,,7,,,52,92
13776,note_on,0,0,1,,,,,,,,,0,,,71,92
13776,note_on,144,0,1,,,,,,,,,0,,,72,0
13776,note_on,0,0,5,,,,,,,,,5,,,71,92
13776,note_on,2,0,5,,,,,,,,,5,,,67,92
13792,note_on,160,0,6,,,,,,,,,6,,,55,0
13822,note_on,0,0,5,,,,,,,,,5,,,71,0
13822,note_on,46,0,7,,,,,,,,,7,,,52,0
13822,note_on,46,0,5,,,,,,,,,5,,,67,0
13824,note_on,48,0,1,,,,,,,,,0,,,71,0
13824,note_on,2,0,5,,,,,,,,,5,,,64,92
13824,note_on,0,0,5,,,,,,,,,5,,,67,92
13824,note_on,0,0,5,,,,,,,,,5,,,72,92
13824,note_on,0,0,1,,,,,,,,,0,,,72,92
13824,note_on,2,0,7,,,,,,,,,7,,,52,92
13966,note_on,142,0,7,,,,,,,,,7,,,52,0
13968,note_on,2,0,7,,,,,,,,,7,,,52,92
13968,note_on,144,0,5,,,,,,,,,5,,,76,92
13984,note_on,0,0,5,,,,,,,,,5,,,67,0
13984,note_on,16,0,5,,,,,,,,,5,,,64,0
14014,note_on,46,0,7,,,,,,,,,7,,,52,0
14014,note_on,30,0,5,,,,,,,,,5,,,72,0
14014,note_on,0,0,5,,,,,,,,,5,,,76,0
14016,note_on,224,0,6,,,,,,,,,6,,,59,92
14016,note_on,2,0,7,,,,,,,,,7,,,50,92
14016,note_on,0,0,1,,,,,,,,,0,,,77,92
14016,note_on,0,0,3,,,,,,,,,2,,,62,92
14016,note_on,0,0,5,,,,,,,,,5,,,77,92
14016,note_on,2,0,5,,,,,,,,,5,,,74,92
14016,note_on,576,0,3,,,,,,,,,2,,,64,0
14016,note_on,192,0,1,,,,,,,,,0,,,72,0
14158,note_on,142,0,7,,,,,,,,,7,,,50,0
14158,note_on,0,0,5,,,,,,,,,5,,,77,0
14158,note_on,142,0,5,,,,,,,,,5,,,74,0
14160,note_on,144,0,1,,,,,,,,,0,,,77,0
14160,note_on,0,0,1,,,,,,,,,0,,,76,92
14160,note_on,2,0,7,,,,,,,,,7,,,50,92
14160,note_on,0,0,5,,,,,,,,,5,,,76,92
14160,note_on,2,0,5,,,,,,,,,5,,,72,92
14206,note_on,46,0,5,,,,,,,,,5,,,72,0
14206,note_on,46,0,7,,,,,,,,,7,,,50,0
14206,note_on,0,0,5,,,,,,,,,5,,,76,0
14208,note_on,0,0,1,,,,,,,,,0,,,77,92
14208,note_on,2,0,7,,,,,,,,,7,,,50,92
14208,note_on,2,0,5,,,,,,,,,5,,,74,92
14208,note_on,48,0,1,,,,,,,,,0,,,76,0
14208,note_on,0,0,5,,,,,,,,,5,,,77,92
14350,note_on,0,0,5,,,,,,,,,5,,,77,0
14350,note_on,142,0,7,,,,,,,,,7,,,50,0
14350,note_on,142,0,5,,,,,,,,,5,,,74,0
14352,note_on,0,0,1,,,,,,,,,0,,,74,92
14352,note_on,336,0,6,,,,,,,,,6,,,59,0
14352,note_on,144,0,1,,,,,,,,,0,,,77,0
14352,note_on,2,0,7,,,,,,,,,7,,,50,92
14352,note_on,2,0,5,,,,,,,,,5,,,71,92
14352,note_on,0,0,5,,,,,,,,,5,,,74,92
14398,note_on,0,0,5,,,,,,,,,5,,,74,0
14398,note_on,46,0,5,,,,,,,,,5,,,71,0
14398,note_on,46,0,7,,,,,,,,,7,,,50,0
14400,note_on,2,0,5,,,,,,,,,5,,,67,92
14400,note_on,0,0,5,,,,,,,,,5,,,72,92
14400,note_on,0,0,5,,,,,,,,,5,,,76,92
14400,note_on,2,0,7,,,,,,,,,7,,,50,92
14400,note_on,0,0,1,,,,,,,,,0,,,76,92
14400,note_on,48,0,1,,,,,,,,,0,,,74,0
14542,note_on,142,0,5,,,,,,,,,5,,,72,0
14542,note_on,0,0,5,,,,,,,,,5,,,76,0
14542,note_on,142,0,7,,,,,,,,,7,,,50,0
14544,note_on,144,0,1,,,,,,,,,0,,,76,0
14544,note_on,0,0,1,,,,,,,,,0,,,77,92
14544,note_on,0,0,5,,,,,,,,,5,,,77,92
14544,note_on,2,0,7,,,,,,,,,7,,,50,92
14544,note_on,2,0,5,,,,,,,,,5,,,74,92
14560,note_on,16,0,5,,,,,,,,,5,,,67,0
14590,note_on,30,0,5,,,,,,,,,5,,,74,0
14590,note_on,0,0,5,,,,,,,,,5,,,77,0
14590,note_on,46,0,7,,,,,,,,,7,,,50,0
14592,note_on,576,0,3,,,,,,,,,2,,,62,0
14592,note_on,48,0,1,,,,,,,,,0,,,77,0
14592,note_on,0,0,1,,,,,,,,,0,,,76,92
14592,note_on,0,0,5,,,,,,,,,5,,,79,92
14592,note_on,0,0,3,,,,,,,,,2,,,60,92
14592,note_on,2,0,5,,,,,,,,,5,,,67,92
14592,note_on,0,0,5,,,,,,,,,5,,,76,92
14592,note_on,2,0,7,,,,,,,,,7,,,48,92
14686,note_on,0,0,5,,,,,,,,,5,,,79,0
14686,note_on,94,0,7,,,,,,,,,7,,,48,0
14686,note_on,94,0,1,,,,,,,,,0,,,76,0
14686,note_on,0,0,5,,,,,,,,,5,,,76,0
14686,note_on,94,0,5,,,,,,,,,5,,,67,0
14686,note_on,94,0,3,,,,,,,,,2,,,60,0
14688,note_on,0,0,5,,,,,,,,,5,,,77,92
14688,note_on,2,0,5,,,,,,,,,5,,,69,92
14688,note_on,2,0,3,,,,,,,,,2,,,53,92
14688,note_on,2,0,7,,,,,,,,,7,,,53,92
14688,note_on,2,0,1,,,,,,,,,0,,,74,92
14688,note_on,0,0,5,,,,,,,,,5,,,74,92
14734,note_on,46,0,5,,,,,,,,,5,,,74,0
14734,note_on,0,0,5,,,,,,,,,5,,,77,0
14736,note_on,0,0,1,,,,,,,,,0,,,72,92
14736,note_on,48,0,1,,,,,,,,,0,,,74,0
14736,note_on,2,0,5,,,,,,,,,5,,,72,92
14736,note_on,0,0,5,,,,,,,,,5,,,76,92
14782,note_on,46,0,5,,,,,,,,,5,,,69,0
14782,note_on,94,0,3,,,,,,,,,2,,,53,0
14782,note_on,0,0,5,,,,,,,,,5,,,72,0
14782,note_on,46,0,1,,,,,,,,,0,,,72,0
14782,note_on,0,0,5,,,,,,,,,5,,,76,0
14782,note_on,94,0,7,,,,,,,,,7,,,53,0
14784,note_on,2,0,1,,,,,,,,,0,,,71,92
14784,note_on,0,0,5,,,,,,,,,5,,,74,92
14784,note_on,2,0,7,,,,,,,,,7,,,55,92
14784,note_on,2,0,3,,,,,,,,,2,,,55,92
14784,note_on,2,0,5,,,,,,,,,5,,,71,92
14926,note_on,142,0,5,,,,,,,,,5,,,74,0
14928,note_on,2,0,5,,,,,,,,,5,,,72,92
14928,note_on,0,0,5,,,,,,,,,5,,,76,92
14944,note_on,160,0,7,,,,,,,,,7,,,55,0
14974,note_on,46,0,5,,,,,,,,,5,,,72,0
14974,note_on,0,0,5,,,,,,,,,5,,,76,0
14976,note_on,0,0,5,,,,,,,,,5,,,74,92
14976,note_on,32,0,7,,,,,,,,,7,,,43,92
14976,note_on,0,0,5,,,,,,,,,5,,,77,92
14976,note_on,2,0,5,,,,,,,,,5,,,67,92
15040,note_on,64,0,5,,,,,,,,,5,,,71,0
15118,note_on,0,0,5,,,,,,,,,5,,,77,0
15118,note_on,78,0,5,,,,,,,,,5,,,74,0
15120,note_on,336,0,1,,,,,,,,,0,,,71,0
15120,note_on,336,0,3,,,,,,,,,2,,,55,0
15120,note_on,2,0,5,,,,,,,,,5,,,71,92
15120,note_on,0,0,5,,,,,,,,,5,,,74,92
15136,note_on,16,0,5,,,,,,,,,5,,,67,0
15136,note_on,160,0,7,,,,,,,,,7,,,43,0
15166,note_on,30,0,5,,,,,,,,,5,,,71,0
15166,note_on,0,0,5,,,,,,,,,5,,,74,0
15168,note_on,2,0,5,,,,,,,,,5,,,67,92
15168,note_on,0,0,5,,,,,,,,,5,,,72,92
15168,note_on,0,0,5,,,,,,,,,5,,,76,92
15168,note_on,48,0,3,,,,,,,,,2,,,60,92
15168,note_on,4656,0,2,,,,,,,,,1,,,67,92
15168,note_on,48,0,1,,,,,,,,,0,,,72,92
15168,note_on,32,0,7,,,,,,,,,7,,,48,92
15168,note_on,4656,0,4,,,,,,,,,3,,,48,92
15310,note_on,142,0,7,,,,,,,,,7,,,48,0
15310,note_on,142,0,5,,,,,,,,,5,,,76,0
15312,note_on,2,0,7,,,,,,,,,7,,,48,92
15312,note_on,2,0,5,,,,,,,,,5,,,79,92
15328,note_on,160,0,2,,,,,,,,,1,,,67,0
15358,note_on,46,0,7,,,,,,,,,7,,,48,0
15358,note_on,46,0,5,,,,,,,,,5,,,79,0
15360,note_on,2,0,7,,,,,,,,,7,,,48,92
15360,note_on,2,0,5,,,,,,,,,5,,,77,92
15360,note_on,32,0,2,,,,,,,,,1,,,65,92
15502,note_on,142,0,7,,,,,,,,,7,,,48,0
15502,note_on,142,0,5,,,,,,,,,5,,,77,0
15504,note_on,144,0,2,,,,,,,,,1,,,65,0
15504,note_on,0,0,2,,,,,,,,,1,,,64,92
15504,note_on,2,0,5,,,,,,,,,5,,,76,92
15504,note_on,336,0,4,,,,,,,,,3,,,48,0
15504,note_on,2,0,7,,,,,,,,,7,,,48,92
15550,note_on,46,0,5,,,,,,,,,5,,,76,0
15550,note_on,46,0,2,,,,,,,,,1,,,64,0
15550,note_on,46,0,7,,,,,,,,,7,,,48,0
15552,note_on,2,0,7,,,,,,,,,7,,,50,92
15552,note_on,2,0,2,,,,,,,,,1,,,65,92
15552,note_on,2,0,5,,,,,,,,,5,,,77,92
15552,note_on,48,0,4,,,,,,,,,3,,,50,92
15694,note_on,142,0,4,,,,,,,,,3,,,50,0
15694,note_on,142,0,7,,,,,,,,,7,,,50,0
15694,note_on,142,0,5,,,,,,,,,5,,,77,0
15696,note_on,528,0,1,,,,,,,,,0,,,72,0
15696,note_on,2,0,4,,,,,,,,,3,,,52,92
15696,note_on,0,0,5,,,,,,,,,5,,,79,92
15696,note_on,528,0,3,,,,,,,,,2,,,60,0
15696,note_on,2,0,5,,,,,,,,,5,,,67,0
15696,note_on,0,0,2,,,,,,,,,1,,,67,92
15696,note_on,144,0,2,,,,,,,,,1,,,65,0
15696,note_on,2,0,7,,,,,,,,,7,,,52,92
15742,note_on,46,0,5,,,,,,,,,5,,,79,0
15742,note_on,46,0,7,,,,,,,,,7,,,52,0
15742,note_on,46,0,4,,,,,,,,,3,,,52,0
15742,note_on,46,0,2,,,,,,,,,1,,,67,0
15744,note_on,48,0,1,,,,,,,,,0,,,72,92
15744,note_on,2,0,2,,,,,,,,,1,,,69,92
15744,note_on,2,0,5,,,,,,,,,5,,,81,92
15744,note_on,2,0,7,,,,,,,,,7,,,53,92
15744,note_on,2,0,4,,,,,,,,,3,,,53,92
15886,note_on,142,0,7,,,,,,,,,7,,,53,0
15888,note_on,2,0,7,,,,,,,,,7,,,53,92
15904,note_on,160,0,5,,,,,,,,,5,,,72,0
15904,note_on,160,0,1,,,,,,,,,0,,,72,0
15904,note_on,160,0,4,,,,,,,,,3,,,53,0
15934,note_on,46,0,7,,,,,,,,,7,,,53,0
15936,note_on,32,0,4,,,,,,,,,3,,,53,92
15936,note_on,32,0,5,,,,,,,,,5,,,70,92
15936,note_on,32,0,1,,,,,,,,,0,,,70,92
15936,note_on,2,0,7,,,,,,,,,7,,,53,92
16078,note_on,142,0,5,,,,,,,,,5,,,70,0
16078,note_on,142,0,7,,,,,,,,,7,,,53,0
16080,note_on,2,0,7,,,,,,,,,7,,,53,92
16080,note_on,2,0,5,,,,,,,,,5,,,69,92
16080,note_on,0,0,1,,,,,,,,,0,,,69,92
16080,note_on,144,0,1,,,,,,,,,0,,,70,0
16096,note_on,160,0,4,,,,,,,,,3,,,53,0
16126,note_on,46,0,1,,,,,,,,,0,,,69,0
16126,note_on,46,0,5,,,,,,,,,5,,,69,0
16126,note_on,46,0,7,,,,,,,,,7,,,53,0
16128,note_on,2,0,7,,,,,,,,,7,,,53,92
16128,note_on,32,0,4,,,,,,,,,3,,,53,92
16128,note_on,2,0,1,,,,,,,,,0,,,70,92
16128,note_on,2,0,5,,,,,,,,,5,,,70,92
16270,note_on,142,0,4,,,,,,,,,3,,,53,0
16270,note_on,142,0,7,,,,,,,,,7,,,53,0
16270,note_on,142,0,5,,,,,,,,,5,,,70,0
16272,note_on,2,0,4,,,,,,,,,3,,,53,92
16272,note_on,2,0,5,,,,,,,,,5,,,72,92
16272,note_on,144,0,1,,,,,,,,,0,,,70,0
16272,note_on,2,0,7,,,,,,,,,7,,,53,92
16272,note_on,0,0,1,,,,,,,,,0,,,72,92
16318,note_on,46,0,5,,,,,,,,,5,,,72,0
16318,note_on,46,0,7,,,,,,,,,7,,,53,0
16318,note_on,46,0,1,,,,,,,,,0,,,72,0
16318,note_on,46,0,4,,,,,,,,,3,,,53,0
16320,note_on,2,0,5,,,,,,,,,5,,,74,92
16320,note_on,2,0,7,,,,,,,,,7,,,58,92
16320,note_on,1968,0,6,,,,,,,,,6,,,65,92
16320,note_on,2,0,1,,,,,,,,,0,,,74,92
16320,note_on,2,0,4,,,,,,,,,3,,,58,92
16320,note_on,624,0,3,,,,,,,,,2,,,65,92
16462,note_on,142,0,5,,,,,,,,,5,,,74,0
16462,note_on,142,0,7,,,,,,,,,7,,,58,0
16464,note_on,2,0,7,,,,,,,,,7,,,58,92
16464,note_on,2,0,5,,,,,,,,,5,,,72,92
16480,note_on,16,0,5,,,,,,,,,5,,,81,0
16480,note_on,736,0,2,,,,,,,,,1,,,69,0
16480,note_on,160,0,3,,,,,,,,,2,,,65,0
16480,note_on,160,0,4,,,,,,,,,3,,,58,0
16480,note_on,160,0,6,,,,,,,,,6,,,65,0
16510,note_on,30,0,5,,,,,,,,,5,,,72,0
16510,note_on,46,0,7,,,,,,,,,7,,,58,0
16512,note_on,2,0,7,,,,,,,,,7,,,58,92
16512,note_on,32,0,4,,,,,,,,,3,,,58,92
16512,note_on,32,0,2,,,,,,,,,1,,,67,92
16512,note_on,32,0,6,,,,,,,,,6,,,62,92
16512,note_on,32,0,3,,,,,,,,,2,,,62,92
16512,note_on,2,0,5,,,,,,,,,5,,,70,92
16512,note_on,0,0,5,,,,,,,,,5,,,79,92
16654,note_on,142,0,7,,,,,,,,,7,,,58,0
16654,note_on,142,0,5,,,,,,,,,5,,,70,0
16656,note_on,2,0,7,,,,,,,,,7,,,58,92
16656,note_on,2,0,5,,,,,,,,,5,,,69,92
16672,note_on,160,0,3,,,,,,,,,2,,,62,0
16672,note_on,160,0,6,,,,,,,,,6,,,62,0
16702,note_on,46,0,7,,,,,,,,,7,,,58,0
16702,note_on,46,0,5,,,,,,,,,5,,,69,0
16704,note_on,2,0,5,,,,,,,,,5,,,67,92
16704,note_on,32,0,3,,,,,,,,,2,,,58,92
16704,note_on,2,0,7,,,,,,,,,7,,,58,92
16704,note_on,32,0,6,,,,,,,,,6,,,58,92
16768,note_on,256,0,4,,,,,,,,,3,,,58,0
16800,note_on,32,0,4,,,,,,,,,3,,,58,92
16846,note_on,142,0,5,,,,,,,,,5,,,67,0
16846,note_on,142,0,7,,,,,,,,,7,,,58,0
16848,note_on,336,0,2,,,,,,,,,1,,,67,0
16848,note_on,2,0,7,,,,,,,,,7,,,58,92
16848,note_on,2,0,5,,,,,,,,,5,,,74,92
16864,note_on,160,0,3,,,,,,,,,2,,,58,0
16864,note_on,160,0,6,,,,,,,,,6,,,58,0
16894,note_on,46,0,5,,,,,,,,,5,,,74,0
16894,note_on,46,0,7,,,,,,,,,7,,,58,0
16894,note_on,94,0,4,,,,,,,,,3,,,58,0
16896,note_on,2,0,7,,,,,,,,,7,,,52,92
16896,note_on,2,0,5,,,,,,,,,5,,,74,92
16896,note_on,32,0,6,,,,,,,,,6,,,58,92
16896,note_on,2,0,4,,,,,,,,,3,,,52,92
16896,note_on,32,0,3,,,,,,,,,2,,,55,92
17038,note_on,142,0,7,,,,,,,,,7,,,52,0
17038,note_on,142,0,5,,,,,,,,,5,,,79,0
17040,note_on,2,0,7,,,,,,,,,7,,,52,92
17040,note_on,2,0,5,,,,,,,,,5,,,77,92
17056,note_on,160,0,6,,,,,,,,,6,,,58,0
17056,note_on,160,0,3,,,,,,,,,2,,,55,0
17056,note_on,736,0,1,,,,,,,,,0,,,74,0
17056,note_on,16,0,5,,,,,,,,,5,,,74,0
17056,note_on,160,0,4,,,,,,,,,3,,,52,0
17086,note_on,46,0,7,,,,,,,,,7,,,52,0
17086,note_on,30,0,5,,,,,,,,,5,,,77,0
17088,note_on,240,0,2,,,,,,,,,1,,,67,92
17088,note_on,2,0,5,,,,,,,,,5,,,72,92
17088,note_on,0,0,5,,,,,,,,,5,,,76,92
17088,note_on,32,0,3,,,,,,,,,2,,,55,92
17088,note_on,32,0,1,,,,,,,,,0,,,72,92
17088,note_on,32,0,4,,,,,,,,,3,,,52,92
17088,note_on,2,0,7,,,,,,,,,7,,,52,92
17088,note_on,32,0,6,,,,,,,,,6,,,55,92
17230,note_on,142,0,7,,,,,,,,,7,,,52,0
17230,note_on,142,0,5,,,,,,,,,5,,,72,0
17230,note_on,0,0,5,,,,,,,,,5,,,76,0
17232,note_on,2,0,7,,,,,,,,,7,,,52,92
17232,note_on,2,0,5,,,,,,,,,5,,,70,92
17232,note_on,0,0,5,,,,,,,,,5,,,74,92
17248,note_on,160,0,6,,,,,,,,,6,,,55,0
17248,note_on,160,0,2,,,,,,,,,1,,,67,0
17248,note_on,160,0,3,,,,,,,,,2,,,55,0
17248,note_on,160,0,4,,,,,,,,,3,,,52,0
17278,note_on,46,0,7,,,,,,,,,7,,,52,0
17278,note_on,46,0,5,,,,,,,,,5,,,70,0
17278,note_on,0,0,5,,,,,,,,,5,,,74,0
17280,note_on,2,0,5,,,,,,,,,5,,,72,92
17280,note_on,32,0,2,,,,,,,,,1,,,67,92
17280,note_on,32,0,6,,,,,,,,,6,,,64,92
17280,note_on,2,0,7,,,,,,,,,7,,,52,92
17280,note_on,32,0,4,,,,,,,,,3,,,52,92
17422,note_on,142,0,4,,,,,,,,,3,,,52,0
17422,note_on,142,0,7,,,,,,,,,7,,,52,0
17424,note_on,144,0,5,,,,,,,,,5,,,79,92
17424,note_on,2,0,7,,,,,,,,,7,,,52,92
17424,note_on,336,0,1,,,,,,,,,0,,,72,0
17424,note_on,2,0,4,,,,,,,,,3,,,52,92
17440,note_on,160,0,6,,,,,,,,,6,,,64,0
17440,note_on,160,0,2,,,,,,,,,1,,,67,0
17470,note_on,46,0,7,,,,,,,,,7,,,52,0
17470,note_on,46,0,5,,,,,,,,,5,,,79,0
17470,note_on,46,0,4,,,,,,,,,3,,,52,0
17472,note_on,32,0,6,,,,,,,,,6,,,64,92
17472,note_on,224,0,3,,,,,,,,,2,,,64,92
17472,note_on,2,0,5,,,,,,,,,5,,,79,92
17472,note_on,2,0,7,,,,,,,,,7,,,57,92
17472,note_on,2,0,4,,,,,,,,,3,,,57,92
17472,note_on,32,0,2,,,,,,,,,1,,,67,92
17614,note_on,142,0,7,,,,,,,,,7,,,57,0
17614,note_on,142,0,5,,,,,,,,,5,,,72,0
17616,note_on,2,0,5,,,,,,,,,5,,,70,92
17616,note_on,2,0,7,,,,,,,,,7,,,57,92
17632,note_on,160,0,6,,,,,,,,,6,,,64,0
17632,note_on,160,0,4,,,,,,,,,3,,,57,0
17632,note_on,160,0,2,,,,,,,,,1,,,67,0
17632,note_on,16,0,5,,,,,,,,,5,,,79,0
17632,note_on,160,0,3,,,,,,,,,2,,,64,0
17662,note_on,30,0,5,,,,,,,,,5,,,70,0
17662,note_on,46,0,7,,,,,,,,,7,,,57,0
17664,note_on,0,0,5,,,,,,,,,5,,,77,92
17664,note_on,32,0,4,,,,,,,,,3,,,57,92
17664,note_on,2,0,5,,,,,,,,,5,,,69,92
17664,note_on,2,0,7,,,,,,,,,7,,,57,92
17664,note_on,32,0,6,,,,,,,,,6,,,60,92
17664,note_on,32,0,3,,,,,,,,,2,,,60,92
17664,note_on,240,0,1,,,,,,,,,0,,,72,92
17664,note_on,32,0,2,,,,,,,,,1,,,65,92
17806,note_on,142,0,7,,,,,,,,,7,,,57,0
17806,note_on,142,0,5,,,,,,,,,5,,,69,0
17806,note_on,0,0,5,,,,,,,,,5,,,77,0
17808,note_on,144,0,2,,,,,,,,,1,,,65,0
17808,note_on,0,0,2,,,,,,,,,1,,,64,92
17808,note_on,2,0,5,,,,,,,,,5,,,67,92
17808,note_on,0,0,5,,,,,,,,,5,,,76,92
17808,note_on,2,0,7,,,,,,,,,7,,,57,92
17824,note_on,160,0,6,,,,,,,,,6,,,60,0
17824,note_on,160,0,1,,,,,,,,,0,,,72,0
17824,note_on,160,0,3,,,,,,,,,2,,,60,0
17854,note_on,46,0,7,,,,,,,,,7,,,57,0
17854,note_on,46,0,2,,,,,,,,,1,,,64,0
17854,note_on,46,0,5,,,,,,,,,5,,,67,0
17854,note_on,0,0,5,,,,,,,,,5,,,76,0
17856,note_on,2,0,5,,,,,,,,,5,,,65,92
17856,note_on,0,0,5,,,,,,,,,5,,,77,92
17856,note_on,32,0,3,,,,,,,,,2,,,57,92
17856,note_on,32,0,1,,,,,,,,,0,,,72,92
17856,note_on,2,0,7,,,,,,,,,7,,,57,92
17856,note_on,32,0,6,,,,,,,,,6,,,57,92
17856,note_on,2,0,2,,,,,,,,,1,,,65,92
17920,note_on,256,0,4,,,,,,,,,3,,,57,0
17952,note_on,32,0,4,,,,,,,,,3,,,57,92
17998,note_on,142,0,5,,,,,,,,,5,,,65,0
17998,note_on,142,0,7,,,,,,,,,7,,,57,0
18000,note_on,2,0,5,,,,,,,,,5,,,72,92
18000,note_on,2,0,7,,,,,,,,,7,,,57,92
18016,note_on,160,0,1,,,,,,,,,0,,,72,0
18016,note_on,160,0,3,,,,,,,,,2,,,57,0
18016,note_on,160,0,6,,,,,,,,,6,,,57,0
18016,note_on,160,0,2,,,,,,,,,1,,,65,0
18046,note_on,46,0,7,,,,,,,,,7,,,57,0
18046,note_on,94,0,4,,,,,,,,,3,,,57,0
18046,note_on,46,0,5,,,,,,,,,5,,,72,0
18048,note_on,2,0,4,,,,,,,,,3,,,50,92
18048,note_on,2,0,7,,,,,,,,,7,,,50,92
18048,note_on,2,0,5,,,,,,,,,5,,,72,92
18048,note_on,32,0,3,,,,,,,,,2,,,53,92
18048,note_on,32,0,1,,,,,,,,,0,,,72,92
18048,note_on,32,0,6,,,,,,,,,6,,,57,92
18190,note_on,142,0,7,,,,,,,,,7,,,50,0
18190,note_on,142,0,5,,,,,,,,,5,,,77,0
18192,note_on,2,0,5,,,,,,,,,5,,,76,92
18192,note_on,2,0,7,,,,,,,,,7,,,50,92
18208,note_on,160,0,1,,,,,,,,,0,,,72,0
18208,note_on,160,0,4,,,,,,,,,3,,,50,0
18208,note_on,160,0,3,,,,,,,,,2,,,53,0
18208,note_on,16,0,5,,,,,,,,,5,,,72,0
18208,note_on,160,0,6,,,,,,,,,6,,,57,0
18238,note_on,30,0,5,,,,,,,,,5,,,76,0
18238,note_on,46,0,7,,,,,,,,,7,,,50,0
18240,note_on,32,0,4,,,,,,,,,3,,,50,92
18240,note_on,224,0,2,,,,,,,,,1,,,65,92
18240,note_on,32,0,3,,,,,,,,,2,,,53,92
18240,note_on,2,0,5,,,,,,,,,5,,,70,92
18240,note_on,32,0,6,,,,,,,,,6,,,53,92
18240,note_on,0,0,5,,,,,,,,,5,,,74,92
18240,note_on,32,0,1,,,,,,,,,0,,,70,92
18240,note_on,2,0,7,,,,,,,,,7,,,50,92
18382,note_on,142,0,7,,,,,,,,,7,,,50,0
18382,note_on,142,0,5,,,,,,,,,5,,,70,0
18382,note_on,0,0,5,,,,,,,,,5,,,74,0
18384,note_on,2,0,5,,,,,,,,,5,,,69,92
18384,note_on,2,0,7,,,,,,,,,7,,,50,92
18384,note_on,0,0,1,,,,,,,,,0,,,69,92
18384,note_on,144,0,1,,,,,,,,,0,,,70,0
18384,note_on,0,0,5,,,,,,,,,5,,,72,92
18400,note_on,160,0,6,,,,,,,,,6,,,53,0
18400,note_on,160,0,2,,,,,,,,,1,,,65,0
18400,note_on,160,0,3,,,,,,,,,2,,,53,0
18430,note_on,46,0,7,,,,,,,,,7,,,50,0
18430,note_on,46,0,1,,,,,,,,,0,,,69,0
18430,note_on,46,0,5,,,,,,,,,5,,,69,0
18430,note_on,0,0,5,,,,,,,,,5,,,72,0
18432,note_on,2,0,5,,,,,,,,,5,,,70,92
18432,note_on,32,0,2,,,,,,,,,1,,,65,92
18432,note_on,32,0,6,,,,,,,,,6,,,62,92
18432,note_on,2,0,1,,,,,,,,,0,,,70,92
18432,note_on,2,0,7,,,,,,,,,7,,,50,92
18574,note_on,142,0,7,,,,,,,,,7,,,50,0
18576,note_on,2,0,7,,,,,,,,,7,,,50,92
18576,note_on,336,0,4,,,,,,,,,3,,,50,0
18576,note_on,144,0,5,,,,,,,,,5,,,77,92
18592,note_on,160,0,6,,,,,,,,,6,,,62,0
18592,note_on,160,0,1,,,,,,,,,0,,,70,0
18592,note_on,160,0,2,,,,,,,,,1,,,65,0
18622,note_on,46,0,5,,,,,,,,,5,,,77,0
18622,note_on,46,0,7,,,,,,,,,7,,,50,0
18624,note_on,48,0,4,,,,,,,,,3,,,55,92
18624,note_on,32,0,6,,,,,,,,,6,,,62,92
18624,note_on,224,0,3,,,,,,,,,2,,,62,92
18624,note_on,2,0,5,,,,,,,,,5,,,77,92
18624,note_on,2,0,7,,,,,,,,,7,,,55,92
18624,note_on,32,0,2,,,,,,,,,1,,,65,92
18766,note_on,142,0,7,,,,,,,,,7,,,55,0
18768,note_on,2,0,7,,,,,,,,,7,,,55,92
18784,note_on,160,0,5,,,,,,,,,5,,,70,0
18784,note_on,160,0,3,,,,,,,,,2,,,62,0
18784,note_on,160,0,2,,,,,,,,,1,,,65,0
18784,note_on,0,0,5,,,,,,,,,5,,,77,0
18784,note_on,160,0,6,,,,,,,,,6,,,62,0
18814,note_on,46,0,7,,,,,,,,,7,,,55,0
18816,note_on,224,0,1,,,,,,,,,0,,,70,92
18816,note_on,2,0,7,,,,,,,,,7,,,55,92
18816,note_on,32,0,3,,,,,,,,,2,,,58,92
18816,note_on,32,0,6,,,,,,,,,6,,,58,92
18816,note_on,32,0,2,,,,,,,,,1,,,64,92
18816,note_on,0,0,5,,,,,,,,,5,,,76,92
18816,note_on,32,0,5,,,,,,,,,5,,,67,92
18958,note_on,142,0,7,,,,,,,,,7,,,55,0
18958,note_on,142,0,5,,,,,,,,,5,,,67,0
18958,note_on,0,0,5,,,,,,,,,5,,,76,0
18960,note_on,2,0,7,,,,,,,,,7,,,55,92
18960,note_on,0,0,2,,,,,,,,,1,,,62,92
18960,note_on,144,0,2,,,,,,,,,1,,,64,0
18960,note_on,2,0,5,,,,,,,,,5,,,65,92
18960,note_on,0,0,5,,,,,,,,,5,,,74,92
18976,note_on,160,0,6,,,,,,,,,6,,,58,0
18976,note_on,160,0,1,,,,,,,,,0,,,70,0
19006,note_on,0,0,5,,,,,,,,,5,,,74,0
19006,note_on,46,0,7,,,,,,,,,7,,,55,0
19006,note_on,46,0,5,,,,,,,,,5,,,65,0
19006,note_on,46,0,2,,,,,,,,,1,,,62,0
19008,note_on,2,0,7,,,,,,,,,7,,,55,92
19008,note_on,0,0,5,,,,,,,,,5,,,76,92
19008,note_on,192,0,3,,,,,,,,,2,,,58,0
19008,note_on,0,0,3,,,,,,,,,2,,,55,92
19008,note_on,32,0,6,,,,,,,,,6,,,55,92
19008,note_on,32,0,1,,,,,,,,,0,,,70,92
19008,note_on,2,0,5,,,,,,,,,5,,,64,92
19008,note_on,2,0,2,,,,,,,,,1,,,64,92
19150,note_on,142,0,7,,,,,,,,,7,,,55,0
19150,note_on,142,0,5,,,,,,,,,5,,,64,0
19152,note_on,2,0,7,,,,,,,,,7,,,55,92
19152,note_on,2,0,5,,,,,,,,,5,,,70,92
19168,note_on,16,0,5,,,,,,,,,5,,,76,0
19168,note_on,160,0,1,,,,,,,,,0,,,70,0
19168,note_on,160,0,2,,,,,,,,,1,,,64,0
19168,note_on,160,0,3,,,,,,,,,2,,,55,0
19168,note_on,160,0,6,,,,,,,,,6,,,55,0
19198,note_on,30,0,5,,,,,,,,,5,,,70,0
19198,note_on,46,0,7,,,,,,,,,7,,,55,0
19200,note_on,2,0,7,,,,,,,,,7,,,48,92
19200,note_on,0,0,4,,,,,,,,,3,,,48,92
19200,note_on,2,0,5,,,,,,,,,5,,,64,92
19200,note_on,576,0,4,,,,,,,,,3,,,55,0
19200,note_on,32,0,3,,,,,,,,,2,,,64,92
19200,note_on,0,0,5,,,,,,,,,5,,,70,92
19200,note_on,32,0,1,,,,,,,,,0,,,70,92
19342,note_on,142,0,5,,,,,,,,,5,,,64,0
19342,note_on,142,0,7,,,,,,,,,7,,,48,0
19344,note_on,2,0,7,,,,,,,,,7,,,48,92
19344,note_on,2,0,5,,,,,,,,,5,,,62,92
19360,note_on,160,0,3,,,,,,,,,2,,,64,0
19360,note_on,16,0,5,,,,,,,,,5,,,70,0
19360,note_on,160,0,1,,,,,,,,,0,,,70,0
19390,note_on,46,0,7,,,,,,,,,7,,,48,0
19390,note_on,30,0,5,,,,,,,,,5,,,62,0
19392,note_on,0,0,4,,,,,,,,,3,,,53,92
19392,note_on,0,0,5,,,,,,,,,5,,,77,92
19392,note_on,2,0,5,,,,,,,,,5,,,69,92
19392,note_on,224,0,2,,,,,,,,,1,,,65,92
19392,note_on,224,0,6,,,,,,,,,6,,,60,92
19392,note_on,2,0,7,,,,,,,,,7,,,53,92
19392,note_on,192,0,4,,,,,,,,,3,,,48,0
19392,note_on,32,0,3,,,,,,,,,2,,,60,92
19392,note_on,32,0,1,,,,,,,,,0,,,69,92
19534,note_on,142,0,5,,,,,,,,,5,,,69,0
19534,note_on,142,0,7,,,,,,,,,7,,,53,0
19536,note_on,2,0,7,,,,,,,,,7,,,53,92
19536,note_on,2,0,5,,,,,,,,,5,,,67,92
19536,note_on,0,0,1,,,,,,,,,0,,,67,92
19536,note_on,144,0,1,,,,,,,,,0,,,69,0
19552,note_on,160,0,3,,,,,,,,,2,,,60,0
19552,note_on,160,0,6,,,,,,,,,6,,,60,0
19582,note_on,46,0,1,,,,,,,,,0,,,67,0
19582,note_on,46,0,7,,,,,,,,,7,,,53,0
19582,note_on,46,0,5,,,,,,,,,5,,,67,0
19584,note_on,2,0,7,,,,,,,,,7,,,53,92
19584,note_on,32,0,6,,,,,,,,,6,,,65,92
19584,note_on,2,0,1,,,,,,,,,0,,,69,92
19584,note_on,32,0,3,,,,,,,,,2,,,65,92
19584,note_on,2,0,5,,,,,,,,,5,,,69,92
19726,note_on,142,0,7,,,,,,,,,7,,,53,0
19728,note_on,2,0,7,,,,,,,,,7,,,53,92
19744,note_on,160,0,3,,,,,,,,,2,,,65,0
19744,note_on,160,0,5,,,,,,,,,5,,,69,0
19744,note_on,160,0,1,,,,,,,,,0,,,69,0
19744,note_on,160,0,6,,,,,,,,,6,,,65,0
19774,note_on,46,0,7,,,,,,,,,7,,,53,0
19776,note_on,32,0,3,,,,,,,,,2,,,62,108
19776,note_on,32,0,6,,,,,,,,,6,,,62,92
19776,note_on,384,0,4,,,,,,,,,3,,,53,0
19776,note_on,0,0,4,,,,,,,,,3,,,55,108
19776,note_on,32,0,1,,,,,,,,,0,,,71,108
19776,note_on,2,0,7,,,,,,,,,7,,,55,92
19776,note_on,32,0,5,,,,,,,,,5,,,71,92
19918,note_on,142,0,7,,,,,,,,,7,,,55,0
19920,note_on,2,0,7,,,,,,,,,7,,,55,92
19936,note_on,160,0,6,,,,,,,,,6,,,62,0
19936,note_on,0,0,5,,,,,,,,,5,,,77,0
19936,note_on,160,0,5,,,,,,,,,5,,,71,0
19966,note_on,46,0,7,,,,,,,,,7,,,55,0
19968,note_on,32,0,5,,,,,,,,,5,,,73,92
19968,note_on,0,0,3,,,,,,,,,2,,,57,108
19968,note_on,0,0,1,,,,,,,,,0,,,73,108
19968,note_on,192,0,1,,,,,,,,,0,,,71,0
19968,note_on,2,0,7,,,,,,,,,7,,,55,92
19968,note_on,192,0,3,,,,,,,,,2,,,62,0
19968,note_on,576,0,2,,,,,,,,,1,,,65,0
19968,note_on,0,0,5,,,,,,,,,5,,,76,92
19968,note_on,32,0,6,,,,,,,,,6,,,57,92
19968,note_on,0,0,2,,,,,,,,,1,,,64,108
20110,note_on,142,0,6,,,,,,,,,6,,,57,0
20110,note_on,142,0,7,,,,,,,,,7,,,55,0
20112,note_on,144,0,3,,,,,,,,,2,,,57,0
20112,note_on,0,0,3,,,,,,,,,2,,,59,108
20112,note_on,2,0,6,,,,,,,,,6,,,59,92
20112,note_on,2,0,7,,,,,,,,,7,,,55,92
20158,note_on,46,0,6,,,,,,,,,6,,,59,0
20158,note_on,46,0,7,,,,,,,,,7,,,55,0
20160,note_on,2,0,6,,,,,,,,,6,,,61,92
20160,note_on,2,0,7,,,,,,,,,7,,,55,92
20160,note_on,48,0,3,,,,,,,,,2,,,59,0
20160,note_on,0,0,3,,,,,,,,,2,,,61,108
20302,note_on,142,0,7,,,,,,,,,7,,,55,0
20304,note_on,2,0,7,,,,,,,,,7,,,55,92
20304,note_on,336,0,5,,,,,,,,,5,,,73,0
20304,note_on,0,0,5,,,,,,,,,5,,,76,0
20320,note_on,160,0,6,,,,,,,,,6,,,61,0
20350,note_on,46,0,7,,,,,,,,,7,,,55,0
20352,note_on,32,0,6,,,,,,,,,6,,,59,92
20352,note_on,2,0,7,,,,,,,,,7,,,56,92
20352,note_on,0,0,2,,,,,,,,,1,,,65,108
20352,note_on,0,0,1,,,,,,,,,0,,,74,108
20352,note_on,384,0,2,,,,,,,,,1,,,64,0
20352,note_on,0,0,4,,,,,,,,,3,,,56,108
20352,note_on,384,0,1,,,,,,,,,0,,,73,0
20352,note_on,192,0,3,,,,,,,,,2,,,61,0
20352,note_on,0,0,3,,,,,,,,,2,,,59,108
20352,note_on,0,0,5,,,,,,,,,5,,,77,92
20352,note_on,48,0,5,,,,,,,,,5,,,74,92
20352,note_on,576,0,4,,,,,,,,,3,,,55,0
20494,note_on,142,0,7,,,,,,,,,7,,,56,0
20496,note_on,2,0,7,,,,,,,,,7,,,56,92
20542,note_on,46,0,7,,,,,,,,,7,,,56,0
20544,note_on,2,0,7,,,,,,,,,7,,,56,92
20686,note_on,142,0,7,,,,,,,,,7,,,56,0
20688,note_on,336,0,3,,,,,,,,,2,,,59,0
20688,note_on,336,0,6,,,,,,,,,6,,,59,0
20688,note_on,336,0,5,,,,,,,,,5,,,74,0
20688,note_on,2,0,7,,,,,,,,,7,,,56,92
20688,note_on,0,0,5,,,,,,,,,5,,,77,0
20688,note_on,336,0,1,,,,,,,,,0,,,74,0
20688,note_on,336,0,4,,,,,,,,,3,,,56,0
20688,note_on,336,0,2,,,,,,,,,1,,,65,0
20734,note_on,46,0,7,,,,,,,,,7,,,56,0
20736,note_on,0,0,5,,,,,,,,,5,,,76,92
20736,note_on,2,0,7,,,,,,,,,7,,,57,92
20736,note_on,48,0,2,,,,,,,,,1,,,64,108
20736,note_on,48,0,3,,,,,,,,,2,,,60,108
20736,note_on,48,0,4,,,,,,,,,3,,,57,108
20736,note_on,48,0,5,,,,,,,,,5,,,72,92
20736,note_on,48,0,6,,,,,,,,,6,,,60,92
20736,note_on,48,0,1,,,,,,,,,0,,,72,108
20878,note_on,142,0,7,,,,,,,,,7,,,57,0
20880,note_on,2,0,7,,,,,,,,,7,,,57,92
20896,note_on,160,0,6,,,,,,,,,6,,,60,0
20926,note_on,46,0,7,,,,,,,,,7,,,57,0
20928,note_on,32,0,6,,,,,,,,,6,,,64,92
20928,note_on,2,0,7,,,,,,,,,7,,,57,92
21070,note_on,142,0,7,,,,,,,,,7,,,57,0
21072,note_on,2,0,7,,,,,,,,,7,,,57,92
21088,note_on,352,0,2,,,,,,,,,1,,,64,0
21088,note_on,0,0,5,,,,,,,,,5,,,76,0
21088,note_on,352,0,5,,,,,,,,,5,,,72,0
21088,note_on,352,0,3,,,,,,,,,2,,,60,0
21088,note_on,352,0,4,,,,,,,,,3,,,57,0
21088,note_on,352,0,1,,,,,,,,,0,,,72,0
21118,note_on,46,0,7,,,,,,,,,7,,,57,0
21120,note_on,32,0,1,,,,,,,,,0,,,71,92
21120,note_on,32,0,3,,,,,,,,,2,,,64,92
21120,note_on,0,0,5,,,,,,,,,5,,,74,92
21120,note_on,2,0,7,,,,,,,,,7,,,52,92
21120,note_on,32,0,5,,,,,,,,,5,,,71,92
21120,note_on,32,0,4,,,,,,,,,3,,,52,92
21120,note_on,32,0,2,,,,,,,,,1,,,68,92
21262,note_on,142,0,5,,,,,,,,,5,,,71,0
21262,note_on,0,0,5,,,,,,,,,5,,,74,0
21262,note_on,142,0,7,,,,,,,,,7,,,52,0
21264,note_on,2,0,5,,,,,,,,,5,,,69,92
21264,note_on,0,0,5,,,,,,,,,5,,,72,92
21264,note_on,2,0,7,,,,,,,,,7,,,52,92
21310,note_on,0,0,5,,,,,,,,,5,,,72,0
21310,note_on,46,0,7,,,,,,,,,7,,,52,0
21310,note_on,46,0,5,,,,,,,,,5,,,69,0
21312,note_on,2,0,7,,,,,,,,,7,,,52,92
21312,note_on,2,0,5,,,,,,,,,5,,,68,92
21312,note_on,0,0,5,,,,,,,,,5,,,71,92
21454,note_on,0,0,5,,,,,,,,,5,,,71,0
21454,note_on,142,0,5,,,,,,,,,5,,,68,0
21454,note_on,142,0,7,,,,,,,,,7,,,52,0
21456,note_on,336,0,1,,,,,,,,,0,,,71,0
21456,note_on,2,0,7,,,,,,,,,7,,,52,92
21456,note_on,336,0,4,,,,,,,,,3,,,52,0
21456,note_on,528,0,6,,,,,,,,,6,,,64,0
21456,note_on,336,0,2,,,,,,,,,1,,,68,0
21456,note_on,0,0,5,,,,,,,,,5,,,74,92
21456,note_on,2,0,5,,,,,,,,,5,,,71,92
21456,note_on,336,0,3,,,,,,,,,2,,,64,0
21502,note_on,46,0,7,,,,,,,,,7,,,52,0
21502,note_on,0,0,5,,,,,,,,,5,,,74,0
21502,note_on,46,0,5,,,,,,,,,5,,,71,0
21504,note_on,48,0,1,,,,,,,,,0,,,72,92
21504,note_on,2,0,7,,,,,,,,,7,,,45,92
21504,note_on,2,0,5,,,,,,,,,5,,,64,92
21504,note_on,48,0,3,,,,,,,,,2,,,64,92
21504,note_on,0,0,5,,,,,,,,,5,,,72,92
21504,note_on,0,0,5,,,,,,,,,5,,,69,92
21504,note_on,48,0,4,,,,,,,,,3,,,45,92
21504,note_on,48,0,2,,,,,,,,,1,,,69,92
21646,note_on,142,0,7,,,,,,,,,7,,,45,0
21648,note_on,2,0,7,,,,,,,,,7,,,57,92
21664,note_on,0,0,5,,,,,,,,,5,,,72,0
21664,note_on,160,0,5,,,,,,,,,5,,,64,0
21664,note_on,0,0,5,,,,,,,,,5,,,69,0
21694,note_on,46,0,7,,,,,,,,,7,,,57,0
21696,note_on,32,0,5,,,,,,,,,5,,,69,92
21696,note_on,240,0,6,,,,,,,,,6,,,60,92
21696,note_on,2,0,7,,,,,,,,,7,,,57,92
21838,note_on,142,0,5,,,,,,,,,5,,,69,0
21838,note_on,142,0,7,,,,,,,,,7,,,57,0
21838,note_on,142,0,6,,,,,,,,,6,,,60,0
21840,note_on,2,0,5,,,,,,,,,5,,,71,92
21840,note_on,2,0,7,,,,,,,,,7,,,57,92
21840,note_on,2,0,6,,,,,,,,,6,,,60,92
21886,note_on,46,0,5,,,,,,,,,5,,,71,0
21886,note_on,46,0,7,,,,,,,,,7,,,57,0
21886,note_on,46,0,6,,,,,,,,,6,,,60,0
21888,note_on,2,0,6,,,,,,,,,6,,,60,92
21888,note_on,2,0,5,,,,,,,,,5,,,72,92
21888,note_on,2,0,7,,,,,,,,,7,,,57,92
22030,note_on,142,0,6,,,,,,,,,6,,,60,0
22030,note_on,142,0,5,,,,,,,,,5,,,72,0
22030,note_on,142,0,7,,,,,,,,,7,,,57,0
22032,note_on,2,0,6,,,,,,,,,6,,,60,92
22032,note_on,528,0,4,,,,,,,,,3,,,45,0
22032,note_on,528,0,2,,,,,,,,,1,,,69,0
22032,note_on,528,0,3,,,,,,,,,2,,,64,0
22032,note_on,2,0,5,,,,,,,,,5,,,74,92
22032,note_on,2,0,7,,,,,,,,,7,,,57,92
22032,note_on,528,0,1,,,,,,,,,0,,,72,0
22078,note_on,46,0,6,,,,,,,,,6,,,60,0
22078,note_on,46,0,7,,,,,,,,,7,,,57,0
22078,note_on,46,0,5,,,,,,,,,5,,,74,0
22080,note_on,2,0,5,,,,,,,,,5,,,76,92
22080,note_on,2,0,6,,,,,,,,,6,,,59,92
22080,note_on,2,0,7,,,,,,,,,7,,,56,92
22222,note_on,142,0,6,,,,,,,,,6,,,59,0
22222,note_on,142,0,7,,,,,,,,,7,,,56,0
22222,note_on,142,0,5,,,,,,,,,5,,,76,0
22224,note_on,2,0,5,,,,,,,,,5,,,74,92
22224,note_on,2,0,6,,,,,,,,,6,,,59,92
22224,note_on,2,0,7,,,,,,,,,7,,,56,92
22270,note_on,46,0,5,,,,,,,,,5,,,74,0
22270,note_on,46,0,6,,,,,,,,,6,,,59,0
22270,note_on,46,0,7,,,,,,,,,7,,,56,0
22272,note_on,2,0,5,,,,,,,,,5,,,76,92
22272,note_on,2,0,6,,,,,,,,,6,,,59,92
22272,note_on,2,0,7,,,,,,,,,7,,,55,92
22414,note_on,142,0,5,,,,,,,,,5,,,76,0
22414,note_on,142,0,6,,,,,,,,,6,,,59,0
22414,note_on,142,0,7,,,,,,,,,7,,,55,0
22416,note_on,2,0,6,,,,,,,,,6,,,59,92
22416,note_on,2,0,7,,,,,,,,,7,,,55,92
22416,note_on,2,0,5,,,,,,,,,5,,,77,92
22462,note_on,46,0,7,,,,,,,,,7,,,55,0
22462,note_on,46,0,5,,,,,,,,,5,,,77,0
22462,note_on,46,0,6,,,,,,,,,6,,,59,0
22464,note_on,2,0,7,,,,,,,,,7,,,55,92
22464,note_on,2,0,6,,,,,,,,,6,,,64,92
22464,note_on,2,0,5,,,,,,,,,5,,,79,92
22606,note_on,142,0,5,,,,,,,,,5,,,79,0
22606,note_on,142,0,6,,,,,,,,,6,,,64,0
22606,note_on,142,0,7,,,,,,,,,7,,,55,0
22608,note_on,2,0,7,,,,,,,,,7,,,55,92
22608,note_on,2,0,6,,,,,,,,,6,,,64,92
22608,note_on,2,0,5,,,,,,,,,5,,,76,92
22654,note_on,46,0,6,,,,,,,,,6,,,64,0
22654,note_on,46,0,7,,,,,,,,,7,,,55,0
22654,note_on,46,0,5,,,,,,,,,5,,,76,0
22656,note_on,2,0,7,,,,,,,,,7,,,54,92
22656,note_on,2,0,6,,,,,,,,,6,,,64,92
22656,note_on,2,0,5,,,,,,,,,5,,,69,92
22656,note_on,0,0,5,,,,,,,,,5,,,81,92
22798,note_on,142,0,7,,,,,,,,,7,,,54,0
22798,note_on,142,0,5,,,,,,,,,5,,,69,0
22798,note_on,142,0,6,,,,,,,,,6,,,64,0
22798,note_on,0,0,5,,,,,,,,,5,,,81,0
22800,note_on,2,0,6,,,,,,,,,6,,,64,92
22800,note_on,0,0,5,,,,,,,,,5,,,80,92
22800,note_on,2,0,7,,,,,,,,,7,,,54,92
22800,note_on,2,0,5,,,,,,,,,5,,,68,92
22846,note_on,46,0,6,,,,,,,,,6,,,64,0
22846,note_on,46,0,5,,,,,,,,,5,,,68,0
22846,note_on,0,0,5,,,,,,,,,5,,,80,0
22846,note_on,46,0,7,,,,,,,,,7,,,54,0
22848,note_on,0,0,5,,,,,,,,,5,,,81,92
22848,note_on,2,0,6,,,,,,,,,6,,,62,92
22848,note_on,2,0,7,,,,,,,,,7,,,53,92
22848,note_on,2,0,5,,,,,,,,,5,,,69,92
22990,note_on,0,0,5,,,,,,,,,5,,,81,0
22990,note_on,142,0,5,,,,,,,,,5,,,69,0
22990,note_on,142,0,6,,,,,,,,,6,,,62,0
22990,note_on,142,0,7,,,,,,,,,7,,,53,0
22992,note_on,2,0,6,,,,,,,,,6,,,62,92
22992,note_on,2,0,5,,,,,,,,,5,,,71,92
22992,note_on,0,0,5,,,,,,,,,5,,,83,92
22992,note_on,2,0,7,,,,,,,,,7,,,53,92
23038,note_on,46,0,7,,,,,,,,,7,,,53,0
23038,note_on,46,0,6,,,,,,,,,6,,,62,0
23038,note_on,0,0,5,,,,,,,,,5,,,83,0
23038,note_on,46,0,5,,,,,,,,,5,,,71,0
23040,note_on,2,0,6,,,,,,,,,6,,,57,92
23040,note_on,0,0,5,,,,,,,,,5,,,84,92
23040,note_on,2,0,7,,,,,,,,,7,,,53,92
23040,note_on,2,0,5,,,,,,,,,5,,,72,92
23182,note_on,0,0,5,,,,,,,,,5,,,84,0
23182,note_on,142,0,6,,,,,,,,,6,,,57,0
23182,note_on,142,0,5,,,,,,,,,5,,,72,0
23182,note_on,142,0,7,,,,,,,,,7,,,53,0
23184,note_on,2,0,5,,,,,,,,,5,,,74,92
23184,note_on,0,0,5,,,,,,,,,5,,,86,92
23184,note_on,2,0,7,,,,,,,,,7,,,53,92
23184,note_on,2,0,6,,,,,,,,,6,,,57,92
23230,note_on,0,0,5,,,,,,,,,5,,,86,0
23230,note_on,46,0,5,,,,,,,,,5,,,74,0
23230,note_on,46,0,6,,,,,,,,,6,,,57,0
23230,note_on,46,0,7,,,,,,,,,7,,,53,0
23232,note_on,1200,0,3,,,,,,,,,2,,,59,92
23232,note_on,2,0,7,,,,,,,,,7,,,52,92
23232,note_on,2,0,6,,,,,,,,,6,,,56,92
23232,note_on,0,0,5,,,,,,,,,5,,,88,92
23232,note_on,2,0,5,,,,,,,,,5,,,76,92
23232,note_on,1200,0,1,,,,,,,,,0,,,76,92
23374,note_on,142,0,7,,,,,,,,,7,,,52,0
23376,note_on,2,0,7,,,,,,,,,7,,,52,92
23392,note_on,160,0,1,,,,,,,,,0,,,76,0
23392,note_on,160,0,6,,,,,,,,,6,,,56,0
23392,note_on,160,0,3,,,,,,,,,2,,,59,0
23392,note_on,0,0,5,,,,,,,,,5,,,88,0
23392,note_on,160,0,5,,,,,,,,,5,,,76,0
23422,note_on,46,0,7,,,,,,,,,7,,,52,0
23424,note_on,32,0,5,,,,,,,,,5,,,72,92
23424,note_on,32,0,3,,,,,,,,,2,,,60,92
23424,note_on,32,0,1,,,,,,,,,0,,,76,92
23424,note_on,2,0,7,,,,,,,,,7,,,57,92
23424,note_on,32,0,6,,,,,,,,,6,,,64,92
23424,note_on,0,0,5,,,,,,,,,5,,,76,92
23566,note_on,142,0,5,,,,,,,,,5,,,72,0
23566,note_on,142,0,7,,,,,,,,,7,,,57,0
23566,note_on,0,0,5,,,,,,,,,5,,,76,0
23568,note_on,2,0,7,,,,,,,,,7,,,57,92
23568,note_on,2,0,5,,,,,,,,,5,,,71,92
23568,note_on,0,0,5,,,,,,,,,5,,,74,92
23614,note_on,0,0,5,,,,,,,,,5,,,74,0
23614,note_on,46,0,5,,,,,,,,,5,,,71,0
23614,note_on,46,0,7,,,,,,,,,7,,,57,0
23616,note_on,2,0,7,,,,,,,,,7,,,57,92
23616,note_on,0,0,5,,,,,,,,,5,,,72,92
23616,note_on,2,0,5,,,,,,,,,5,,,69,92
23680,note_on,256,0,1,,,,,,,,,0,,,76,0
23680,note_on,256,0,3,,,,,,,,,2,,,60,0
23712,note_on,32,0,1,,,,,,,,,0,,,76,92
23712,note_on,32,0,3,,,,,,,,,2,,,60,92
23758,note_on,142,0,5,,,,,,,,,5,,,69,0
23758,note_on,142,0,7,,,,,,,,,7,,,57,0
23758,note_on,0,0,5,,,,,,,,,5,,,72,0
23760,note_on,0,0,5,,,,,,,,,5,,,76,92
23760,note_on,2,0,7,,,,,,,,,7,,,57,92
23760,note_on,2,0,5,,,,,,,,,5,,,72,92
23760,note_on,336,0,6,,,,,,,,,6,,,64,0
23806,note_on,46,0,7,,,,,,,,,7,,,57,0
23806,note_on,94,0,1,,,,,,,,,0,,,76,0
23806,note_on,46,0,5,,,,,,,,,5,,,72,0
23806,note_on,0,0,5,,,,,,,,,5,,,76,0
23806,note_on,94,0,3,,,,,,,,,2,,,60,0
23808,note_on,1776,0,4,,,,,,,,,3,,,56,92
23808,note_on,2,0,1,,,,,,,,,0,,,77,92
23808,note_on,2,0,3,,,,,,,,,2,,,62,92
23808,note_on,2,0,5,,,,,,,,,5,,,74,92
23808,note_on,48,0,6,,,,,,,,,6,,,59,92
23808,note_on,0,0,5,,,,,,,,,5,,,77,92
23808,note_on,2,0,7,,,,,,,,,7,,,56,92
23950,note_on,142,0,6,,,,,,,,,6,,,59,0
23950,note_on,0,0,5,,,,,,,,,5,,,77,0
23950,note_on,142,0,5,,,,,,,,,5,,,74,0
23950,note_on,142,0,7,,,,,,,,,7,,,56,0
23952,note_on,2,0,5,,,,,,,,,5,,,72,92
23952,note_on,0,0,5,,,,,,,,,5,,,76,92
23952,note_on,2,0,7,,,,,,,,,7,,,56,92
23952,note_on,2,0,6,,,,,,,,,6,,,60,92
23968,note_on,160,0,4,,,,,,,,,3,,,56,0
23998,note_on,46,0,5,,,,,,,,,5,,,72,0
23998,note_on,0,0,5,,,,,,,,,5,,,76,0
23998,note_on,46,0,7,,,,,,,,,7,,,56,0
23998,note_on,46,0,6,,,,,,,,,6,,,60,0
24000,note_on,32,0,4,,,,,,,,,3,,,56,92
24000,note_on,2,0,6,,,,,,,,,6,,,62,92
24000,note_on,2,0,5,,,,,,,,,5,,,71,92
24000,note_on,2,0,7,,,,,,,,,7,,,56,92
24000,note_on,0,0,5,,,,,,,,,5,,,74,92
24142,note_on,142,0,6,,,,,,,,,6,,,62,0
24142,note_on,0,0,5,,,,,,,,,5,,,74,0
24142,note_on,142,0,5,,,,,,,,,5,,,71,0
24142,note_on,142,0,7,,,,,,,,,7,,,56,0
24144,note_on,2,0,6,,,,,,,,,6,,,64,92
24144,note_on,2,0,5,,,,,,,,,5,,,69,92
24144,note_on,0,0,5,,,,,,,,,5,,,72,92
24144,note_on,2,0,7,,,,,,,,,7,,,56,92
24190,note_on,46,0,7,,,,,,,,,7,,,56,0
24190,note_on,46,0,6,,,,,,,,,6,,,64,0
24190,note_on,0,0,5,,,,,,,,,5,,,72,0
24190,note_on,46,0,5,,,,,,,,,5,,,69,0
24192,note_on,2,0,7,,,,,,,,,7,,,56,92
24192,note_on,2,0,6,,,,,,,,,6,,,62,92
24192,note_on,0,0,5,,,,,,,,,5,,,74,92
24192,note_on,2,0,5,,,,,,,,,5,,,71,92
24256,note_on,256,0,4,,,,,,,,,3,,,56,0
24288,note_on,32,0,4,,,,,,,,,3,,,56,92
24334,note_on,142,0,5,,,,,,,,,5,,,71,0
24334,note_on,0,0,5,,,,,,,,,5,,,74,0
24334,note_on,142,0,6,,,,,,,,,6,,,62,0
24334,note_on,142,0,7,,,,,,,,,7,,,56,0
24336,note_on,528,0,1,,,,,,,,,0,,,77,0
24336,note_on,2,0,5,,,,,,,,,5,,,72,92
24336,note_on,2,0,6,,,,,,,,,6,,,60,92
24336,note_on,0,0,5,,,,,,,,,5,,,76,92
24336,note_on,2,0,7,,,,,,,,,7,,,56,92
24336,note_on,528,0,3,,,,,,,,,2,,,62,0
24382,note_on,46,0,5,,,,,,,,,5,,,72,0
24382,note_on,94,0,4,,,,,,,,,3,,,56,0
24382,note_on,0,0,5,,,,,,,,,5,,,76,0
24382,note_on,46,0,6,,,,,,,,,6,,,60,0
24382,note_on,46,0,7,,,,,,,,,7,,,56,0
24384,note_on,2,0,4,,,,,,,,,3,,,56,92
24384,note_on,48,0,1,,,,,,,,,0,,,77,92
24384,note_on,2,0,7,,,,,,,,,7,,,56,92
24384,note_on,2,0,5,,,,,,,,,5,,,74,92
24384,note_on,0,0,5,,,,,,,,,5,,,77,92
24384,note_on,2,0,6,,,,,,,,,6,,,59,92
24384,note_on,48,0,3,,,,,,,,,2,,,62,92
24526,note_on,142,0,7,,,,,,,,,7,,,56,0
24528,note_on,2,0,7,,,,,,,,,7,,,56,92
24544,note_on,160,0,4,,,,,,,,,3,,,56,0
24544,note_on,160,0,1,,,,,,,,,0,,,77,0
24544,note_on,160,0,3,,,,,,,,,2,,,62,0
24574,note_on,46,0,7,,,,,,,,,7,,,56,0
24576,note_on,32,0,1,,,,,,,,,0,,,76,92
24576,note_on,32,0,3,,,,,,,,,2,,,59,92
24576,note_on,32,0,4,,,,,,,,,3,,,56,92
24576,note_on,2,0,7,,,,,,,,,7,,,56,92
24672,note_on,0,0,1,,,,,,,,,0,,,74,92
24672,note_on,96,0,1,,,,,,,,,0,,,76,0
24718,note_on,142,0,7,,,,,,,,,7,,,56,0
24720,note_on,2,0,7,,,,,,,,,7,,,56,92
24736,note_on,160,0,3,,,,,,,,,2,,,59,0
24736,note_on,160,0,4,,,,,,,,,3,,,56,0
24766,note_on,94,0,1,,,,,,,,,0,,,74,0
24766,note_on,46,0,7,,,,,,,,,7,,,56,0
24768,note_on,32,0,4,,,,,,,,,3,,,56,92
24768,note_on,2,0,7,,,,,,,,,7,,,56,92
24768,note_on,32,0,3,,,,,,,,,2,,,59,92
24768,note_on,2,0,1,,,,,,,,,0,,,72,92
24862,note_on,94,0,4,,,,,,,,,3,,,56,0
24864,note_on,2,0,4,,,,,,,,,3,,,56,92
24864,note_on,96,0,1,,,,,,,,,0,,,72,0
24864,note_on,0,0,1,,,,,,,,,0,,,71,92
24910,note_on,142,0,7,,,,,,,,,7,,,56,0
24912,note_on,528,0,6,,,,,,,,,6,,,59,0
24912,note_on,2,0,7,,,,,,,,,7,,,56,92
24912,note_on,528,0,5,,,,,,,,,5,,,74,0
24912,note_on,0,0,5,,,,,,,,,5,,,77,0
24928,note_on,160,0,3,,,,,,,,,2,,,59,0
24958,note_on,46,0,7,,,,,,,,,7,,,56,0
24958,note_on,94,0,1,,,,,,,,,0,,,71,0
24958,note_on,94,0,4,,,,,,,,,3,,,56,0
24960,note_on,2,0,1,,,,,,,,,0,,,72,92
24960,note_on,48,0,6,,,,,,,,,6,,,57,92
24960,note_on,2928,0,2,,,,,,,,,1,,,69,92
24960,note_on,2,0,7,,,,,,,,,7,,,57,92
24960,note_on,0,0,5,,,,,,,,,5,,,76,92
24960,note_on,2,0,4,,,,,,,,,3,,,57,92
24960,note_on,32,0,3,,,,,,,,,2,,,64,92
24960,note_on,48,0,5,,,,,,,,,5,,,72,92
25102,note_on,142,0,7,,,,,,,,,7,,,57,0
25104,note_on,2,0,7,,,,,,,,,7,,,57,92
25120,note_on,160,0,5,,,,,,,,,5,,,72,0
25120,note_on,160,0,6,,,,,,,,,6,,,57,0
25120,note_on,0,0,5,,,,,,,,,5,,,76,0
25120,note_on,160,0,2,,,,,,,,,1,,,69,0
25150,note_on,46,0,7,,,,,,,,,7,,,57,0
25152,note_on,0,0,5,,,,,,,,,5,,,81,92
25152,note_on,32,0,6,,,,,,,,,6,,,64,92
25152,note_on,32,0,5,,,,,,,,,5,,,72,92
25152,note_on,32,0,2,,,,,,,,,1,,,69,92
25152,note_on,2,0,7,,,,,,,,,7,,,57,92
25216,note_on,256,0,1,,,,,,,,,0,,,72,0
25216,note_on,256,0,3,,,,,,,,,2,,,64,0
25216,note_on,256,0,4,,,,,,,,,3,,,57,0
25248,note_on,32,0,4,,,,,,,,,3,,,57,92
25248,note_on,32,0,3,,,,,,,,,2,,,64,92
25248,note_on,32,0,1,,,,,,,,,0,,,71,92
25294,note_on,142,0,7,,,,,,,,,7,,,57,0
25294,note_on,142,0,5,,,,,,,,,5,,,72,0
25294,note_on,0,0,5,,,,,,,,,5,,,81,0
25296,note_on,2,0,5,,,,,,,,,5,,,74,92
25296,note_on,0,0,5,,,,,,,,,5,,,83,92
25296,note_on,2,0,7,,,,,,,,,7,,,57,92
25342,note_on,46,0,5,,,,,,,,,5,,,74,0
25342,note_on,0,0,5,,,,,,,,,5,,,83,0
25342,note_on,94,0,1,,,,,,,,,0,,,71,0
25342,note_on,94,0,4,,,,,,,,,3,,,57,0
25342,note_on,46,0,7,,,,,,,,,7,,,57,0
25342,note_on,94,0,3,,,,,,,,,2,,,64,0
25344,note_on,2,0,5,,,,,,,,,5,,,76,92
25344,note_on,2,0,7,,,,,,,,,7,,,57,92
25344,note_on,2,0,3,,,,,,,,,2,,,64,92
25344,note_on,2,0,4,,,,,,,,,3,,,57,92
25344,note_on,2,0,1,,,,,,,,,0,,,69,92
25344,note_on,0,0,5,,,,,,,,,5,,,84,92
25408,note_on,256,0,2,,,,,,,,,1,,,69,0
25440,note_on,32,0,2,,,,,,,,,1,,,69,92
25486,note_on,142,0,5,,,,,,,,,5,,,76,0
25486,note_on,142,0,7,,,,,,,,,7,,,57,0
25486,note_on,0,0,5,,,,,,,,,5,,,84,0
25488,note_on,0,0,5,,,,,,,,,5,,,81,92
25488,note_on,2,0,7,,,,,,,,,7,,,57,92
25488,note_on,2,0,5,,,,,,,,,5,,,72,92
25488,note_on,336,0,6,,,,,,,,,6,,,64,0
25504,note_on,160,0,4,,,,,,,,,3,,,57,0
25504,note_on,160,0,3,,,,,,,,,2,,,64,0
25504,note_on,160,0,1,,,,,,,,,0,,,69,0
25534,note_on,46,0,5,,,,,,,,,5,,,72,0
25534,note_on,0,0,5,,,,,,,,,5,,,81,0
25534,note_on,46,0,7,,,,,,,,,7,,,57,0
25534,note_on,94,0,2,,,,,,,,,1,,,69,0
25536,note_on,2,0,2,,,,,,,,,1,,,70,92
25536,note_on,2,0,5,,,,,,,,,5,,,79,92
25536,note_on,0,0,5,,,,,,,,,5,,,82,92
25536,note_on,48,0,6,,,,,,,,,6,,,52,92
25536,note_on,32,0,4,,,,,,,,,3,,,49,92
25536,note_on,2,0,7,,,,,,,,,7,,,49,92
25678,note_on,142,0,5,,,,,,,,,5,,,79,0
25678,note_on,0,0,5,,,,,,,,,5,,,82,0
25678,note_on,142,0,7,,,,,,,,,7,,,49,0
25678,note_on,142,0,6,,,,,,,,,6,,,52,0
25680,note_on,2,0,5,,,,,,,,,5,,,77,92
25680,note_on,2,0,6,,,,,,,,,6,,,53,92
25680,note_on,0,0,5,,,,,,,,,5,,,81,92
25680,note_on,2,0,7,,,,,,,,,7,,,49,92
25696,note_on,160,0,4,,,,,,,,,3,,,49,0
25726,note_on,46,0,6,,,,,,,,,6,,,53,0
25726,note_on,0,0,5,,,,,,,,,5,,,81,0
25726,note_on,46,0,7,,,,,,,,,7,,,49,0
25726,note_on,46,0,5,,,,,,,,,5,,,77,0
25728,note_on,2,0,6,,,,,,,,,6,,,55,92
25728,note_on,32,0,4,,,,,,,,,3,,,49,92
25728,note_on,2,0,5,,,,,,,,,5,,,76,92
25728,note_on,2,0,7,,,,,,,,,7,,,49,92
25728,note_on,0,0,5,,,,,,,,,5,,,79,92
25870,note_on,142,0,7,,,,,,,,,7,,,49,0
25870,note_on,142,0,5,,,,,,,,,5,,,76,0
25870,note_on,0,0,5,,,,,,,,,5,,,79,0
25870,note_on,142,0,6,,,,,,,,,6,,,55,0
25872,note_on,2,0,7,,,,,,,,,7,,,49,92
25872,note_on,2,0,5,,,,,,,,,5,,,74,92
25872,note_on,0,0,5,,,,,,,,,5,,,77,92
25872,note_on,2,0,6,,,,,,,,,6,,,57,92
25918,note_on,46,0,7,,,,,,,,,7,,,49,0
25918,note_on,46,0,6,,,,,,,,,6,,,57,0
25918,note_on,0,0,5,,,,,,,,,5,,,77,0
25918,note_on,46,0,5,,,,,,,,,5,,,74,0
25920,note_on,2,0,7,,,,,,,,,7,,,49,92
25920,note_on,2,0,6,,,,,,,,,6,,,55,92
25920,note_on,2,0,5,,,,,,,,,5,,,76,92
25920,note_on,0,0,5,,,,,,,,,5,,,79,92
25984,note_on,256,0,4,,,,,,,,,3,,,49,0
26016,note_on,32,0,4,,,,,,,,,3,,,49,92
26062,note_on,142,0,6,,,,,,,,,6,,,55,0
26062,note_on,142,0,7,,,,,,,,,7,,,49,0
26062,note_on,0,0,5,,,,,,,,,5,,,79,0
26062,note_on,142,0,5,,,,,,,,,5,,,76,0
26064,note_on,528,0,2,,,,,,,,,1,,,70,0
26064,note_on,2,0,6,,,,,,,,,6,,,53,92
26064,note_on,0,0,5,,,,,,,,,5,,,81,92
26064,note_on,2,0,7,,,,,,,,,7,,,49,92
26064,note_on,2,0,5,,,,,,,,,5,,,77,92
26110,note_on,46,0,7,,,,,,,,,7,,,49,0
26110,note_on,0,0,5,,,,,,,,,5,,,81,0
26110,note_on,46,0,5,,,,,,,,,5,,,77,0
26110,note_on,46,0,6,,,,,,,,,6,,,53,0
26110,note_on,94,0,4,,,,,,,,,3,,,49,0
26112,note_on,2,0,4,,,,,,,,,3,,,49,92
26112,note_on,2,0,7,,,,,,,,,7,,,49,92
26112,note_on,48,0,2,,,,,,,,,1,,,70,92
26112,note_on,0,0,5,,,,,,,,,5,,,82,92
26112,note_on,2,0,5,,,,,,,,,5,,,79,92
26112,note_on,2,0,6,,,,,,,,,6,,,52,92
26254,note_on,142,0,7,,,,,,,,,7,,,49,0
26256,note_on,2,0,7,,,,,,,,,7,,,49,92
26272,note_on,160,0,2,,,,,,,,,1,,,70,0
26272,note_on,160,0,4,,,,,,,,,3,,,49,0
26272,note_on,160,0,6,,,,,,,,,6,,,52,0
26302,note_on,46,0,7,,,,,,,,,7,,,49,0
26304,note_on,192,0,5,,,,,,,,,5,,,76,92
26304,note_on,32,0,4,,,,,,,,,3,,,49,92
26304,note_on,2,0,7,,,,,,,,,7,,,49,92
26304,note_on,32,0,2,,,,,,,,,1,,,69,92
26400,note_on,96,0,2,,,,,,,,,1,,,69,0
26400,note_on,0,0,2,,,,,,,,,1,,,67,92
26446,note_on,142,0,7,,,,,,,,,7,,,49,0
26448,note_on,2,0,7,,,,,,,,,7,,,49,92
26464,note_on,160,0,4,,,,,,,,,3,,,49,0
26494,note_on,94,0,2,,,,,,,,,1,,,67,0
26494,note_on,46,0,7,,,,,,,,,7,,,49,0
26496,note_on,32,0,4,,,,,,,,,3,,,49,92
26496,note_on,2,0,2,,,,,,,,,1,,,65,92
26496,note_on,2,0,7,,,,,,,,,7,,,49,92
26590,note_on,94,0,4,,,,,,,,,3,,,49,0
26592,note_on,2,0,4,,,,,,,,,3,,,49,92
26592,note_on,0,0,2,,,,,,,,,1,,,64,92
26592,note_on,96,0,2,,,,,,,,,1,,,65,0
26638,note_on,142,0,7,,,,,,,,,7,,,49,0
26640,note_on,0,0,5,,,,,,,,,5,,,82,0
26640,note_on,0,0,5,,,,,,,,,5,,,79,0
26640,note_on,336,0,5,,,,,,,,,5,,,76,0
26640,note_on,2,0,7,,,,,,,,,7,,,49,92
26686,note_on,46,0,7,,,,,,,,,7,,,49,0
26686,note_on,94,0,4,,,,,,,,,3,,,49,0
26686,note_on,94,0,2,,,,,,,,,1,,,64,0
26688,note_on,1184,0,3,,,,,,,,,2,,,57,92
26688,note_on,0,0,5,,,,,,,,,5,,,81,92
26688,note_on,2,0,2,,,,,,,,,1,,,65,92
26688,note_on,1184,0,1,,,,,,,,,0,,,74,92
26688,note_on,2,0,4,,,,,,,,,3,,,50,92
26688,note_on,48,0,5,,,,,,,,,5,,,77,92
26688,note_on,2,0,7,,,,,,,,,7,,,50,92
26830,note_on,142,0,7,,,,,,,,,7,,,50,0
26832,note_on,2,0,7,,,,,,,,,7,,,50,92
26848,note_on,160,0,5,,,,,,,,,5,,,77,0
26848,note_on,0,0,5,,,,,,,,,5,,,81,0
26848,note_on,160,0,3,,,,,,,,,2,,,57,0
26848,note_on,160,0,1,,,,,,,,,0,,,74,0
26878,note_on,46,0,7,,,,,,,,,7,,,50,0
26880,note_on,0,0,5,,,,,,,,,5,,,77,92
26880,note_on,32,0,5,,,,,,,,,5,,,74,92
26880,note_on,2,0,7,,,,,,,,,7,,,50,92
26880,note_on,32,0,3,,,,,,,,,2,,,62,92
26880,note_on,608,0,6,,,,,,,,,6,,,57,92
26880,note_on,32,0,1,,,,,,,,,0,,,74,92
26944,note_on,256,0,4,,,,,,,,,3,,,50,0
26944,note_on,256,0,2,,,,,,,,,1,,,65,0
26976,note_on,32,0,2,,,,,,,,,1,,,64,92
26976,note_on,32,0,4,,,,,,,,,3,,,50,92
27022,note_on,142,0,7,,,,,,,,,7,,,50,0
27022,note_on,0,0,5,,,,,,,,,5,,,77,0
27022,note_on,142,0,5,,,,,,,,,5,,,74,0
27024,note_on,2,0,7,,,,,,,,,7,,,50,92
27024,note_on,0,0,5,,,,,,,,,5,,,79,92
27024,note_on,2,0,5,,,,,,,,,5,,,76,92
27070,note_on,94,0,2,,,,,,,,,1,,,64,0
27070,note_on,46,0,7,,,,,,,,,7,,,50,0
27070,note_on,94,0,4,,,,,,,,,3,,,50,0
27070,note_on,0,0,5,,,,,,,,,5,,,79,0
27070,note_on,46,0,5,,,,,,,,,5,,,76,0
27072,note_on,2,0,7,,,,,,,,,7,,,50,92
27072,note_on,2,0,4,,,,,,,,,3,,,50,92
27072,note_on,2,0,5,,,,,,,,,5,,,77,92
27072,note_on,0,0,5,,,,,,,,,5,,,81,92
27072,note_on,2,0,2,,,,,,,,,1,,,62,92
27136,note_on,256,0,3,,,,,,,,,2,,,62,0
27136,note_on,256,0,1,,,,,,,,,0,,,74,0
27168,note_on,32,0,1,,,,,,,,,0,,,74,92
27168,note_on,32,0,3,,,,,,,,,2,,,62,92
27214,note_on,142,0,5,,,,,,,,,5,,,77,0
27214,note_on,0,0,5,,,,,,,,,5,,,81,0
27214,note_on,142,0,7,,,,,,,,,7,,,50,0
27216,note_on,2,0,7,,,,,,,,,7,,,50,92
27216,note_on,336,0,6,,,,,,,,,6,,,57,0
27216,note_on,0,0,5,,,,,,,,,5,,,77,92
27216,note_on,2,0,5,,,,,,,,,5,,,74,92
27232,note_on,160,0,4,,,,,,,,,3,,,50,0
27232,note_on,160,0,2,,,,,,,,,1,,,62,0
27262,note_on,46,0,5,,,,,,,,,5,,,74,0
27262,note_on,0,0,5,,,,,,,,,5,,,77,0
27262,note_on,46,0,7,,,,,,,,,7,,,50,0
27262,note_on,94,0,1,,,,,,,,,0,,,74,0
27262,note_on,94,0,3,,,,,,,,,2,,,62,0
27264,note_on,2,0,3,,,,,,,,,2,,,60,92
27264,note_on,32,0,2,,,,,,,,,1,,,69,92
27264,note_on,2,0,1,,,,,,,,,0,,,75,92
27264,note_on,0,0,5,,,,,,,,,5,,,75,92
27264,note_on,32,0,4,,,,,,,,,3,,,54,92
27264,note_on,2,0,5,,,,,,,,,5,,,72,92
27264,note_on,2,0,7,,,,,,,,,7,,,54,92
27264,note_on,48,0,6,,,,,,,,,6,,,57,92
27406,note_on,142,0,7,,,,,,,,,7,,,54,0
27406,note_on,0,0,5,,,,,,,,,5,,,75,0
27406,note_on,142,0,5,,,,,,,,,5,,,72,0
27406,note_on,142,0,6,,,,,,,,,6,,,57,0
27408,note_on,2,0,5,,,,,,,,,5,,,70,92
27408,note_on,0,0,5,,,,,,,,,5,,,74,92
27408,note_on,2,0,6,,,,,,,,,6,,,58,92
27408,note_on,2,0,7,,,,,,,,,7,,,54,92
27424,note_on,160,0,4,,,,,,,,,3,,,54,0
27424,note_on,160,0,2,,,,,,,,,1,,,69,0
27454,note_on,46,0,7,,,,,,,,,7,,,54,0
27454,note_on,46,0,6,,,,,,,,,6,,,58,0
27454,note_on,0,0,5,,,,,,,,,5,,,74,0
27454,note_on,46,0,5,,,,,,,,,5,,,70,0
27456,note_on,32,0,2,,,,,,,,,1,,,69,92
27456,note_on,2,0,7,,,,,,,,,7,,,54,92
27456,note_on,2,0,5,,,,,,,,,5,,,69,92
27456,note_on,2,0,6,,,,,,,,,6,,,60,92
27456,note_on,32,0,4,,,,,,,,,3,,,54,92
27456,note_on,0,0,5,,,,,,,,,5,,,72,92
27598,note_on,0,0,5,,,,,,,,,5,,,72,0
27598,note_on,142,0,7,,,,,,,,,7,,,54,0
27598,note_on,142,0,6,,,,,,,,,6,,,60,0
27598,note_on,142,0,5,,,,,,,,,5,,,69,0
27600,note_on,2,0,5,,,,,,,,,5,,,67,92
27600,note_on,0,0,5,,,,,,,,,5,,,70,92
27600,note_on,2,0,7,,,,,,,,,7,,,54,92
27600,note_on,2,0,6,,,,,,,,,6,,,62,92
27646,note_on,46,0,5,,,,,,,,,5,,,67,0
27646,note_on,0,0,5,,,,,,,,,5,,,70,0
27646,note_on,46,0,7,,,,,,,,,7,,,54,0
27646,note_on,46,0,6,,,,,,,,,6,,,62,0
27648,note_on,2,0,7,,,,,,,,,7,,,54,92
27648,note_on,2,0,6,,,,,,,,,6,,,60,92
27648,note_on,0,0,5,,,,,,,,,5,,,72,92
27648,note_on,2,0,5,,,,,,,,,5,,,69,92
27712,note_on,256,0,2,,,,,,,,,1,,,69,0
27712,note_on,256,0,4,,,,,,,,,3,,,54,0
27744,note_on,32,0,4,,,,,,,,,3,,,54,92
27744,note_on,32,0,2,,,,,,,,,1,,,69,92
27790,note_on,0,0,5,,,,,,,,,5,,,72,0
27790,note_on,142,0,5,,,,,,,,,5,,,69,0
27790,note_on,142,0,6,,,,,,,,,6,,,60,0
27790,note_on,142,0,7,,,,,,,,,7,,,54,0
27792,note_on,528,0,3,,,,,,,,,2,,,60,0
27792,note_on,528,0,1,,,,,,,,,0,,,75,0
27792,note_on,2,0,7,,,,,,,,,7,,,54,92
27792,note_on,2,0,6,,,,,,,,,6,,,58,92
27792,note_on,2,0,5,,,,,,,,,5,,,70,92
27792,note_on,0,0,5,,,,,,,,,5,,,74,92
27838,note_on,94,0,4,,,,,,,,,3,,,54,0
27838,note_on,46,0,7,,,,,,,,,7,,,54,0
27838,note_on,46,0,6,,,,,,,,,6,,,58,0
27838,note_on,46,0,5,,,,,,,,,5,,,70,0
27838,note_on,0,0,5,,,,,,,,,5,,,74,0
27838,note_on,94,0,2,,,,,,,,,1,,,69,0
27840,note_on,48,0,3,,,,,,,,,2,,,60,92
27840,note_on,48,0,1,,,,,,,,,0,,,75,92
27840,note_on,0,0,5,,,,,,,,,5,,,75,92
27840,note_on,2,0,4,,,,,,,,,3,,,54,92
27840,note_on,2,0,6,,,,,,,,,6,,,57,92
27840,note_on,2,0,7,,,,,,,,,7,,,54,92
27840,note_on,2,0,5,,,,,,,,,5,,,72,92
27840,note_on,2,0,2,,,,,,,,,1,,,69,92
27982,note_on,142,0,7,,,,,,,,,7,,,54,0
27984,note_on,2,0,7,,,,,,,,,7,,,54,92
28000,note_on,160,0,4,,,,,,,,,3,,,54,0
28000,note_on,160,0,6,,,,,,,,,6,,,57,0
28000,note_on,160,0,3,,,,,,,,,2,,,60,0
28000,note_on,160,0,1,,,,,,,,,0,,,75,0
28030,note_on,46,0,7,,,,,,,,,7,,,54,0
28032,note_on,32,0,3,,,,,,,,,2,,,57,92
28032,note_on,192,0,5,,,,,,,,,5,,,69,92
28032,note_on,32,0,4,,,,,,,,,3,,,54,92
28032,note_on,32,0,1,,,,,,,,,0,,,74,92
28032,note_on,2,0,7,,,,,,,,,7,,,54,92
28128,note_on,96,0,1,,,,,,,,,0,,,74,0
28128,note_on,0,0,1,,,,,,,,,0,,,72,92
28174,note_on,142,0,7,,,,,,,,,7,,,54,0
28176,note_on,2,0,7,,,,,,,,,7,,,54,92
28192,note_on,160,0,3,,,,,,,,,2,,,57,0
28192,note_on,160,0,4,,,,,,,,,3,,,54,0
28222,note_on,46,0,7,,,,,,,,,7,,,54,0
28222,note_on,94,0,1,,,,,,,,,0,,,72,0
28224,note_on,2,0,7,,,,,,,,,7,,,54,92
28224,note_on,32,0,3,,,,,,,,,2,,,57,92
28224,note_on,2,0,1,,,,,,,,,0,,,71,92
28224,note_on,32,0,4,,,,,,,,,3,,,54,92
28318,note_on,94,0,4,,,,,,,,,3,,,54,0
28320,note_on,96,0,1,,,,,,,,,0,,,71,0
28320,note_on,0,0,1,,,,,,,,,0,,,69,92
28320,note_on,2,0,4,,,,,,,,,3,,,54,92
28366,note_on,142,0,7,,,,,,,,,7,,,54,0
28368,note_on,528,0,2,,,,,,,,,1,,,69,0
28368,note_on,2,0,7,,,,,,,,,7,,,54,92
28368,note_on,336,0,5,,,,,,,,,5,,,69,0
28368,note_on,0,0,5,,,,,,,,,5,,,75,0
28368,note_on,0,0,5,,,,,,,,,5,,,72,0
28384,note_on,160,0,3,,,,,,,,,2,,,57,0
28414,note_on,94,0,4,,,,,,,,,3,,,54,0
28414,note_on,46,0,7,,,,,,,,,7,,,54,0
28414,note_on,94,0,1,,,,,,,,,0,,,69,0
28416,note_on,2,0,4,,,,,,,,,3,,,53,92
28416,note_on,32,0,3,,,,,,,,,2,,,62,92
28416,note_on,48,0,2,,,,,,,,,1,,,67,92
28416,note_on,2,0,1,,,,,,,,,0,,,71,92
28416,note_on,0,0,5,,,,,,,,,5,,,74,92
28416,note_on,0,0,5,,,,,,,,,5,,,71,92
28416,note_on,48,0,5,,,,,,,,,5,,,67,92
28416,note_on,2,0,7,,,,,,,,,7,,,53,92
28558,note_on,142,0,5,,,,,,,,,5,,,71,0
28558,note_on,0,0,5,,,,,,,,,5,,,74,0
28558,note_on,142,0,7,,,,,,,,,7,,,53,0
28560,note_on,2,0,5,,,,,,,,,5,,,69,92
28560,note_on,0,0,5,,,,,,,,,5,,,72,92
28560,note_on,2,0,7,,,,,,,,,7,,,53,92
28606,note_on,46,0,7,,,,,,,,,7,,,53,0
28606,note_on,46,0,5,,,,,,,,,5,,,69,0
28606,note_on,0,0,5,,,,,,,,,5,,,72,0
28608,note_on,2,0,7,,,,,,,,,7,,,53,92
28608,note_on,0,0,5,,,,,,,,,5,,,74,92
28608,note_on,2,0,5,,,,,,,,,5,,,71,92
28672,note_on,256,0,4,,,,,,,,,3,,,53,0
28672,note_on,256,0,3,,,,,,,,,2,,,62,0
28672,note_on,256,0,1,,,,,,,,,0,,,71,0
28704,note_on,32,0,3,,,,,,,,,2,,,62,92
28704,note_on,32,0,4,,,,,,,,,3,,,53,92
28704,note_on,32,0,1,,,,,,,,,0,,,71,92
28750,note_on,142,0,5,,,,,,,,,5,,,71,0
28750,note_on,142,0,7,,,,,,,,,7,,,53,0
28750,note_on,0,0,5,,,,,,,,,5,,,74,0
28752,note_on,2,0,5,,,,,,,,,5,,,71,92
28752,note_on,2,0,7,,,,,,,,,7,,,53,92
28798,note_on,94,0,1,,,,,,,,,0,,,71,0
28798,note_on,46,0,7,,,,,,,,,7,,,53,0
28798,note_on,94,0,4,,,,,,,,,3,,,53,0
28798,note_on,94,0,3,,,,,,,,,2,,,62,0
28798,note_on,46,0,5,,,,,,,,,5,,,71,0
28800,note_on,2,0,3,,,,,,,,,2,,,62,92
28800,note_on,2,0,4,,,,,,,,,3,,,53,92
28800,note_on,2,0,1,,,,,,,,,0,,,71,92
28800,note_on,2,0,5,,,,,,,,,5,,,69,92
28800,note_on,0,0,5,,,,,,,,,5,,,72,92
28800,note_on,2,0,7,,,,,,,,,7,,,53,92
28942,note_on,0,0,5,,,,,,,,,5,,,72,0
28942,note_on,142,0,5,,,,,,,,,5,,,69,0
28942,note_on,142,0,7,,,,,,,,,7,,,53,0
28944,note_on,2,0,7,,,,,,,,,7,,,53,92
28944,note_on,2,0,5,,,,,,,,,5,,,71,92
28944,note_on,0,0,5,,,,,,,,,5,,,74,92
28944,note_on,528,0,2,,,,,,,,,1,,,67,0
28960,note_on,160,0,1,,,,,,,,,0,,,71,0
28960,note_on,160,0,3,,,,,,,,,2,,,62,0
28960,note_on,160,0,4,,,,,,,,,3,,,53,0
28990,note_on,0,0,5,,,,,,,,,5,,,74,0
28990,note_on,46,0,7,,,,,,,,,7,,,53,0
28990,note_on,46,0,5,,,,,,,,,5,,,71,0
28992,note_on,2,0,7,,,,,,,,,7,,,52,92
28992,note_on,32,0,1,,,,,,,,,0,,,72,92
28992,note_on,48,0,2,,,,,,,,,1,,,67,92
28992,note_on,32,0,4,,,,,,,,,3,,,52,92
28992,note_on,0,0,5,,,,,,,,,5,,,76,92
28992,note_on,32,0,3,,,,,,,,,2,,,60,75
28992,note_on,2,0,5,,,,,,,,,5,,,72,92
29134,note_on,142,0,5,,,,,,,,,5,,,72,0
29134,note_on,0,0,5,,,,,,,,,5,,,76,0
29134,note_on,142,0,7,,,,,,,,,7,,,52,0
29136,note_on,0,0,5,,,,,,,,,5,,,74,92
29136,note_on,2,0,7,,,,,,,,,7,,,52,92
29136,note_on,2,0,5,,,,,,,,,5,,,71,92
29152,note_on,160,0,2,,,,,,,,,1,,,67,0
29182,note_on,46,0,5,,,,,,,,,5,,,71,0
29182,note_on,46,0,7,,,,,,,,,7,,,52,0
29182,note_on,0,0,5,,,,,,,,,5,,,74,0
29184,note_on,2,0,7,,,,,,,,,7,,,52,92
29184,note_on,2,0,5,,,,,,,,,5,,,72,92
29184,note_on,32,0,2,,,,,,,,,1,,,67,92
29184,note_on,0,0,5,,,,,,,,,5,,,76,92
29326,note_on,0,0,5,,,,,,,,,5,,,76,0
29326,note_on,142,0,5,,,,,,,,,5,,,72,0
29326,note_on,142,0,7,,,,,,,,,7,,,52,0
29328,note_on,336,0,3,,,,,,,,,2,,,60,0
29328,note_on,336,0,1,,,,,,,,,0,,,72,0
29328,note_on,0,0,5,,,,,,,,,5,,,77,92
29328,note_on,2,0,7,,,,,,,,,7,,,52,92
29328,note_on,0,0,5,,,,,,,,,5,,,74,92
29328,note_on,2,0,5,,,,,,,,,5,,,67,0
29374,note_on,46,0,7,,,,,,,,,7,,,52,0
29374,note_on,46,0,5,,,,,,,,,5,,,74,0
29374,note_on,0,0,5,,,,,,,,,5,,,77,0
29376,note_on,2,0,5,,,,,,,,,5,,,70,92
29376,note_on,0,0,5,,,,,,,,,5,,,76,92
29376,note_on,0,0,5,,,,,,,,,5,,,79,92
29376,note_on,48,0,1,,,,,,,,,0,,,70,92
29376,note_on,48,0,3,,,,,,,,,2,,,60,75
29376,note_on,2,0,7,,,,,,,,,7,,,52,92
29518,note_on,142,0,5,,,,,,,,,5,,,76,0
29518,note_on,142,0,7,,,,,,,,,7,,,52,0
29518,note_on,0,0,5,,,,,,,,,5,,,79,0
29520,note_on,2,0,7,,,,,,,,,7,,,52,92
29520,note_on,0,0,5,,,,,,,,,5,,,76,92
29520,note_on,336,0,2,,,,,,,,,1,,,67,0
29520,note_on,2,0,5,,,,,,,,,5,,,72,92
29536,note_on,160,0,3,,,,,,,,,2,,,60,0
29536,note_on,160,0,1,,,,,,,,,0,,,70,0
29536,note_on,16,0,5,,,,,,,,,5,,,70,0
29566,note_on,30,0,5,,,,,,,,,5,,,72,0
29566,note_on,46,0,7,,,,,,,,,7,,,52,0
29566,note_on,0,0,5,,,,,,,,,5,,,76,0
29568,note_on,2,0,5,,,,,,,,,5,,,72,75
29568,note_on,0,0,5,,,,,,,,,5,,,81,75
29568,note_on,32,0,3,,,,,,,,,2,,,60,75
29568,note_on,0,0,5,,,,,,,,,5,,,77,75
29568,note_on,32,0,1,,,,,,,,,0,,,69,75
29568,note_on,48,0,2,,,,,,,,,1,,,65,75
29568,note_on,2,0,7,,,,,,,,,7,,,51,75
29568,note_on,576,0,4,,,,,,,,,3,,,52,0
29568,note_on,0,0,4,,,,,,,,,3,,,51,75
29710,note_on,142,0,7,,,,,,,,,7,,,51,0
29710,note_on,142,0,5,,,,,,,,,5,,,81,0
29712,note_on,2,0,7,,,,,,,,,7,,,51,75
29712,note_on,2,0,5,,,,,,,,,5,,,82,75
29758,note_on,46,0,7,,,,,,,,,7,,,51,0
29758,note_on,46,0,5,,,,,,,,,5,,,82,0
29760,note_on,2,0,7,,,,,,,,,7,,,51,75
29760,note_on,2,0,5,,,,,,,,,5,,,81,75
29824,note_on,256,0,2,,,,,,,,,1,,,65,0
29856,note_on,32,0,2,,,,,,,,,1,,,65,75
29902,note_on,142,0,5,,,,,,,,,5,,,81,0
29902,note_on,142,0,7,,,,,,,,,7,,,51,0
29904,note_on,336,0,1,,,,,,,,,0,,,69,0
29904,note_on,2,0,7,,,,,,,,,7,,,51,75
29904,note_on,0,0,5,,,,,,,,,5,,,79,75
29904,note_on,0,0,5,,,,,,,,,5,,,77,0
29904,note_on,336,0,3,,,,,,,,,2,,,60,0
29904,note_on,2,0,5,,,,,,,,,5,,,72,0
29950,note_on,94,0,2,,,,,,,,,1,,,65,0
29950,note_on,46,0,7,,,,,,,,,7,,,51,0
29950,note_on,46,0,5,,,,,,,,,5,,,79,0
29952,note_on,2,0,7,,,,,,,,,7,,,51,75
29952,note_on,48,0,1,,,,,,,,,0,,,70,75
29952,note_on,384,0,4,,,,,,,,,3,,,51,0
29952,note_on,0,0,4,,,,,,,,,3,,,50,75
29952,note_on,2,0,2,,,,,,,,,1,,,65,75
29952,note_on,48,0,3,,,,,,,,,2,,,62,75
29952,note_on,0,0,5,,,,,,,,,5,,,77,75
29952,note_on,0,0,5,,,,,,,,,5,,,74,75
29952,note_on,2,0,5,,,,,,,,,5,,,70,75
30094,note_on,142,0,7,,,,,,,,,7,,,51,0
30096,note_on,2,0,7,,,,,,,,,7,,,51,75
30112,note_on,160,0,2,,,,,,,,,1,,,65,0
30112,note_on,160,0,3,,,,,,,,,2,,,62,0
30142,note_on,46,0,7,,,,,,,,,7,,,51,0
30144,note_on,2,0,7,,,,,,,,,7,,,46,75
30144,note_on,0,0,4,,,,,,,,,3,,,46,75
30144,note_on,192,0,4,,,,,,,,,3,,,50,0
30144,note_on,32,0,2,,,,,,,,,1,,,62,75
30238,note_on,94,0,4,,,,,,,,,3,,,46,0
30238,note_on,94,0,2,,,,,,,,,1,,,62,0
30240,note_on,2,0,2,,,,,,,,,1,,,63,75
30240,note_on,2,0,4,,,,,,,,,3,,,51,75
30286,note_on,334,0,5,,,,,,,,,5,,,70,0
30286,note_on,142,0,7,,,,,,,,,7,,,46,0
30286,note_on,0,0,5,,,,,,,,,5,,,77,0
30286,note_on,0,0,5,,,,,,,,,5,,,74,0
30288,note_on,0,0,5,,,,,,,,,5,,,79,75
30288,note_on,2,0,5,,,,,,,,,5,,,70,75
30288,note_on,2,0,7,,,,,,,,,7,,,51,75
30304,note_on,352,0,1,,,,,,,,,0,,,70,0
30334,note_on,46,0,7,,,,,,,,,7,,,51,0
30334,note_on,94,0,2,,,,,,,,,1,,,63,0
30334,note_on,0,0,5,,,,,,,,,5,,,79,0
30334,note_on,46,0,5,,,,,,,,,5,,,70,0
30334,note_on,94,0,4,,,,,,,,,3,,,51,0
30336,note_on,2,0,5,,,,,,,,,5,,,69,75
30336,note_on,2,0,4,,,,,,,,,3,,,53,75
30336,note_on,32,0,1,,,,,,,,,0,,,69,75
30336,note_on,2,0,7,,,,,,,,,7,,,53,75
30336,note_on,0,0,5,,,,,,,,,5,,,72,75
30336,note_on,2,0,2,,,,,,,,,1,,,60,75
30478,note_on,142,0,5,,,,,,,,,5,,,69,0
30478,note_on,0,0,5,,,,,,,,,5,,,72,0
30478,note_on,142,0,7,,,,,,,,,7,,,53,0
30480,note_on,2,0,7,,,,,,,,,7,,,53,75
30480,note_on,2,0,5,,,,,,,,,5,,,70,75
30480,note_on,0,0,5,,,,,,,,,5,,,74,75
30526,note_on,46,0,7,,,,,,,,,7,,,53,0
30526,note_on,46,0,5,,,,,,,,,5,,,70,0
30526,note_on,0,0,5,,,,,,,,,5,,,74,0
30528,note_on,2,0,7,,,,,,,,,7,,,41,75
30528,note_on,2,0,5,,,,,,,,,5,,,72,75
30528,note_on,0,0,5,,,,,,,,,5,,,75,75
30670,note_on,142,0,5,,,,,,,,,5,,,72,0
30670,note_on,0,0,5,,,,,,,,,5,,,75,0
30670,note_on,142,0,7,,,,,,,,,7,,,41,0
30672,note_on,0,0,5,,,,,,,,,5,,,77,75
30672,note_on,2,0,5,,,,,,,,,5,,,69,75
30672,note_on,336,0,1,,,,,,,,,0,,,69,0
30672,note_on,2,0,7,,,,,,,,,7,,,41,75
30672,note_on,336,0,2,,,,,,,,,1,,,60,0
30672,note_on,336,0,4,,,,,,,,,3,,,53,0
30718,note_on,0,0,5,,,,,,,,,5,,,77,0
30718,note_on,46,0,5,,,,,,,,,5,,,69,0
30718,note_on,46,0,7,,,,,,,,,7,,,41,0
30720,note_on,2,0,7,,,,,,,,,7,,,46,60
30720,note_on,608,0,3,,,,,,,,,2,,,58,60
30720,note_on,48,0,4,,,,,,,,,3,,,46,75
30720,note_on,48,0,2,,,,,,,,,1,,,62,60
30720,note_on,2,0,5,,,,,,,,,5,,,65,60
30720,note_on,0,0,5,,,,,,,,,5,,,74,60
30720,note_on,0,0,5,,,,,,,,,5,,,70,60
30720,note_on,48,0,1,,,,,,,,,0,,,70,60
30862,note_on,142,0,7,,,,,,,,,7,,,46,0
30864,note_on,2,0,7,,,,,,,,,7,,,46,60
30880,note_on,160,0,4,,,,,,,,,3,,,46,0
30880,note_on,160,0,3,,,,,,,,,2,,,58,0
30910,note_on,46,0,7,,,,,,,,,7,,,46,0
30912,note_on,2,0,7,,,,,,,,,7,,,46,60
30912,note_on,32,0,4,,,,,,,,,3,,,46,60
30912,note_on,32,0,3,,,,,,,,,2,,,58,60
31054,note_on,142,0,7,,,,,,,,,7,,,46,0
31056,note_on,0,0,5,,,,,,,,,5,,,74,0
31056,note_on,336,0,5,,,,,,,,,5,,,65,0
31056,note_on,0,0,5,,,,,,,,,5,,,70,0
31056,note_on,0,0,3,,,,,,,,,2,,,60,60
31056,note_on,144,0,3,,,,,,,,,2,,,58,0
31056,note_on,2,0,7,,,,,,,,,7,,,46,60
31072,note_on,160,0,4,,,,,,,,,3,,,46,0
31102,note_on,46,0,7,,,,,,,,,7,,,46,0
31102,note_on,46,0,3,,,,,,,,,2,,,60,0
31104,note_on,2,0,3,,,,,,,,,2,,,62,60
31104,note_on,48,0,5,,,,,,,,,5,,,62,60
31104,note_on,32,0,4,,,,,,,,,3,,,46,60
31104,note_on,2,0,7,,,,,,,,,7,,,46,60
31246,note_on,142,0,5,,,,,,,,,5,,,62,0
31246,note_on,142,0,4,,,,,,,,,3,,,46,0
31246,note_on,142,0,7,,,,,,,,,7,,,46,0
31248,note_on,2,0,7,,,,,,,,,7,,,46,60
31248,note_on,2,0,5,,,,,,,,,5,,,63,60
31248,note_on,528,0,2,,,,,,,,,1,,,62,0
31248,note_on,144,0,3,,,,,,,,,2,,,62,0
31248,note_on,0,0,3,,,,,,,,,2,,,63,60
31248,note_on,2,0,4,,,,,,,,,3,,,46,60
31248,note_on,528,0,1,,,,,,,,,0,,,70,0
31294,note_on,46,0,4,,,,,,,,,3,,,46,0
31294,note_on,46,0,7,,,,,,,,,7,,,46,0
31294,note_on,46,0,3,,,,,,,,,2,,,63,0
31294,note_on,46,0,5,,,,,,,,,5,,,63,0
31296,note_on,2,0,5,,,,,,,,,5,,,65,60
31296,note_on,2,0,3,,,,,,,,,2,,,65,60
31296,note_on,2,0,4,,,,,,,,,3,,,45,60
31296,note_on,2,0,7,,,,,,,,,7,,,45,60
31296,note_on,0,0,5,,,,,,,,,5,,,72,60
31438,note_on,142,0,7,,,,,,,,,7,,,45,0
31440,note_on,2,0,7,,,,,,,,,7,,,45,60
31456,note_on,0,0,5,,,,,,,,,5,,,72,0
31456,note_on,160,0,3,,,,,,,,,2,,,65,0
31456,note_on,160,0,5,,,,,,,,,5,,,65,0
31456,note_on,160,0,4,,,,,,,,,3,,,45,0
31486,note_on,46,0,7,,,,,,,,,7,,,45,0
31488,note_on,32,0,5,,,,,,,,,5,,,69,60
31488,note_on,0,0,5,,,,,,,,,5,,,72,60
31488,note_on,0,0,5,,,,,,,,,5,,,77,60
31488,note_on,32,0,4,,,,,,,,,3,,,45,60
31488,note_on,2,0,7,,,,,,,,,7,,,45,60
31488,note_on,32,0,3,,,,,,,,,2,,,53,60
31630,note_on,142,0,7,,,,,,,,,7,,,45,0
31632,note_on,2,0,7,,,,,,,,,7,,,45,60
31648,note_on,160,0,5,,,,,,,,,5,,,69,0
31648,note_on,160,0,3,,,,,,,,,2,,,53,0
31678,note_on,46,0,7,,,,,,,,,7,,,45,0
31680,note_on,2,0,7,,,,,,,,,7,,,45,60
31680,note_on,32,0,3,,,,,,,,,2,,,55,60
31680,note_on,32,0,5,,,,,,,,,5,,,65,60
31822,note_on,142,0,7,,,,,,,,,7,,,45,0
31822,note_on,142,0,3,,,,,,,,,2,,,55,0
31824,note_on,2,0,7,,,,,,,,,7,,,45,60
31824,note_on,336,0,4,,,,,,,,,3,,,45,0
31824,note_on,2,0,3,,,,,,,,,2,,,57,60
31824,note_on,144,0,5,,,,,,,,,5,,,72,0
31840,note_on,16,0,5,,,,,,,,,5,,,65,0
31870,note_on,46,0,3,,,,,,,,,2,,,57,0
31870,note_on,46,0,7,,,,,,,,,7,,,45,0
31872,note_on,32,0,5,,,,,,,,,5,,,70,60
31872,note_on,2,0,3,,,,,,,,,2,,,58,60
31872,note_on,0,0,5,,,,,,,,,5,,,74,60
31872,note_on,48,0,4,,,,,,,,,3,,,55,60
31872,note_on,2,0,7,,,,,,,,,7,,,43,60
32014,note_on,142,0,7,,,,,,,,,7,,,43,0
32016,note_on,2,0,7,,,,,,,,,7,,,43,60
32032,note_on,0,0,5,,,,,,,,,5,,,77,0
32032,note_on,160,0,3,,,,,,,,,2,,,58,0
32032,note_on,160,0,4,,,,,,,,,3,,,55,0
32032,note_on,160,0,5,,,,,,,,,5,,,74,0
32062,note_on,46,0,7,,,,,,,,,7,,,43,0
32064,note_on,32,0,3,,,,,,,,,2,,,58,60
32064,note_on,32,0,4,,,,,,,,,3,,,55,60
32064,note_on,2,0,7,,,,,,,,,7,,,43,60
32064,note_on,32,0,5,,,,,,,,,5,,,67,60
32206,note_on,142,0,7,,,,,,,,,7,,,43,0
32208,note_on,144,0,3,,,,,,,,,2,,,58,0
32208,note_on,0,0,3,,,,,,,,,2,,,57,60
32208,note_on,2,0,7,,,,,,,,,7,,,43,60
32224,note_on,160,0,5,,,,,,,,,5,,,67,0
32224,note_on,0,0,5,,,,,,,,,5,,,70,0
32254,note_on,46,0,3,,,,,,,,,2,,,57,0
32254,note_on,46,0,7,,,,,,,,,7,,,43,0
32256,note_on,32,0,5,,,,,,,,,5,,,67,60
32256,note_on,2,0,7,,,,,,,,,7,,,43,60
32256,note_on,0,0,5,,,,,,,,,5,,,75,60
32256,note_on,0,0,5,,,,,,,,,5,,,70,60
32256,note_on,2,0,3,,,,,,,,,2,,,58,60
32398,note_on,142,0,7,,,,,,,,,7,,,43,0
32400,note_on,2,0,7,,,,,,,,,7,,,43,60
32400,note_on,336,0,4,,,,,,,,,3,,,55,0
32400,note_on,0,0,3,,,,,,,,,2,,,60,60
32400,note_on,144,0,3,,,,,,,,,2,,,58,0
32416,note_on,0,0,5,,,,,,,,,5,,,70,0
32416,note_on,160,0,5,,,,,,,,,5,,,67,0
32446,note_on,46,0,7,,,,,,,,,7,,,43,0
32446,note_on,46,0,3,,,,,,,,,2,,,60,0
32448,note_on,0,0,5,,,,,,,,,5,,,72,60
32448,note_on,2,0,7,,,,,,,,,7,,,41,60
32448,note_on,48,0,4,,,,,,,,,3,,,53,60
32448,note_on,32,0,5,,,,,,,,,5,,,69,60
32448,note_on,2,0,3,,,,,,,,,2,,,57,60
32590,note_on,142,0,7,,,,,,,,,7,,,41,0
32592,note_on,2,0,7,,,,,,,,,7,,,41,60
32608,note_on,160,0,5,,,,,,,,,5,,,72,0
32608,note_on,0,0,5,,,,,,,,,5,,,75,0
32638,note_on,46,0,7,,,,,,,,,7,,,41,0
32640,note_on,32,0,5,,,,,,,,,5,,,65,60
32640,note_on,192,0,3,,,,,,,,,2,,,57,0
32640,note_on,2,0,7,,,,,,,,,7,,,41,60
32640,note_on,0,0,3,,,,,,,,,2,,,62,60
32704,note_on,256,0,4,,,,,,,,,3,,,53,0
32736,note_on,32,0,4,,,,,,,,,3,,,53,60
32782,note_on,142,0,7,,,,,,,,,7,,,41,0
32784,note_on,2,0,7,,,,,,,,,7,,,41,60
32784,note_on,0,0,3,,,,,,,,,2,,,60,60
32784,note_on,144,0,3,,,,,,,,,2,,,62,0
32800,note_on,0,0,5,,,,,,,,,5,,,69,0
32800,note_on,160,0,5,,,,,,,,,5,,,65,0
32830,note_on,94,0,4,,,,,,,,,3,,,53,0
32830,note_on,46,0,7,,,,,,,,,7,,,41,0
32832,note_on,2,0,7,,,,,,,,,7,,,41,60
32832,note_on,2,0,4,,,,,,,,,3,,,53,60
32832,note_on,0,0,5,,,,,,,,,5,,,69,60
32832,note_on,0,0,5,,,,,,,,,5,,,74,60
32832,note_on,48,0,3,,,,,,,,,2,,,60,0
32832,note_on,0,0,3,,,,,,,,,2,,,62,60
32832,note_on,32,0,5,,,,,,,,,5,,,65,60
32974,note_on,142,0,7,,,,,,,,,7,,,41,0
32976,note_on,2,0,7,,,,,,,,,7,,,41,60
32992,note_on,160,0,5,,,,,,,,,5,,,65,0
32992,note_on,0,0,5,,,,,,,,,5,,,69,0
32992,note_on,160,0,4,,,,,,,,,3,,,53,0
33022,note_on,46,0,7,,,,,,,,,7,,,41,0
33024,note_on,32,0,5,,,,,,,,,5,,,67,60
33024,note_on,0,0,5,,,,,,,,,5,,,70,60
33024,note_on,192,0,3,,,,,,,,,2,,,62,0
33024,note_on,0,0,3,,,,,,,,,2,,,55,60
33024,note_on,32,0,4,,,,,,,,,3,,,51,60
33024,note_on,2,0,7,,,,,,,,,7,,,51,60
33166,note_on,142,0,7,,,,,,,,,7,,,51,0
33168,note_on,2,0,7,,,,,,,,,7,,,51,60
33184,note_on,160,0,5,,,,,,,,,5,,,70,0
33184,note_on,0,0,5,,,,,,,,,5,,,74,0
33214,note_on,46,0,7,,,,,,,,,7,,,51,0
33216,note_on,192,0,3,,,,,,,,,2,,,55,0
33216,note_on,0,0,3,,,,,,,,,2,,,60,60
33216,note_on,32,0,5,,,,,,,,,5,,,63,60
33216,note_on,2,0,7,,,,,,,,,7,,,51,60
33358,note_on,142,0,7,,,,,,,,,7,,,51,0
33360,note_on,2,0,7,,,,,,,,,7,,,51,60
33360,note_on,144,0,3,,,,,,,,,2,,,60,0
33360,note_on,0,0,3,,,,,,,,,2,,,58,60
33376,note_on,160,0,5,,,,,,,,,5,,,63,0
33376,note_on,0,0,5,,,,,,,,,5,,,67,0
33406,note_on,46,0,7,,,,,,,,,7,,,51,0
33408,note_on,0,0,5,,,,,,,,,5,,,72,60
33408,note_on,48,0,3,,,,,,,,,2,,,58,0
33408,note_on,2,0,7,,,,,,,,,7,,,51,60
33408,note_on,32,0,5,,,,,,,,,5,,,63,60
33408,note_on,0,0,5,,,,,,,,,5,,,67,60
33408,note_on,0,0,3,,,,,,,,,2,,,60,60
33550,note_on,142,0,7,,,,,,,,,7,,,51,0
33552,note_on,2,0,7,,,,,,,,,7,,,51,60
33568,note_on,160,0,5,,,,,,,,,5,,,63,0
33568,note_on,0,0,5,,,,,,,,,5,,,67,0
33598,note_on,46,0,7,,,,,,,,,7,,,51,0
33600,note_on,2,0,7,,,,,,,,,7,,,50,60
33600,note_on,0,0,5,,,,,,,,,5,,,69,60
33600,note_on,32,0,5,,,,,,,,,5,,,65,60
33600,note_on,576,0,4,,,,,,,,,3,,,51,0
33600,note_on,192,0,3,,,,,,,,,2,,,60,0
33600,note_on,0,0,3,,,,,,,,,2,,,53,60
33600,note_on,0,0,4,,,,,,,,,3,,,50,60
33742,note_on,142,0,7,,,,,,,,,7,,,50,0
33744,note_on,2,0,7,,,,,,,,,7,,,50,60
33760,note_on,160,0,5,,,,,,,,,5,,,69,0
33760,note_on,0,0,5,,,,,,,,,5,,,72,0
33790,note_on,46,0,7,,,,,,,,,7,,,50,0
33792,note_on,192,0,3,,,,,,,,,2,,,53,0
33792,note_on,2,0,7,,,,,,,,,7,,,50,60
33792,note_on,0,0,3,,,,,,,,,2,,,58,60
33792,note_on,32,0,5,,,,,,,,,5,,,62,60
33934,note_on,142,0,7,,,,,,,,,7,,,50,0
33936,note_on,144,0,3,,,,,,,,,2,,,58,0
33936,note_on,0,0,3,,,,,,,,,2,,,57,60
33936,note_on,2,0,7,,,,,,,,,7,,,50,60
33952,note_on,160,0,5,,,,,,,,,5,,,62,0
33952,note_on,0,0,5,,,,,,,,,5,,,65,0
33982,note_on,46,0,7,,,,,,,,,7,,,50,0
33984,note_on,32,0,5,,,,,,,,,5,,,62,60
33984,note_on,0,0,5,,,,,,,,,5,,,65,60
33984,note_on,0,0,5,,,,,,,,,5,,,70,60
33984,note_on,0,0,3,,,,,,,,,2,,,58,60
33984,note_on,48,0,3,,,,,,,,,2,,,57,0
33984,note_on,2,0,7,,,,,,,,,7,,,50,60
34126,note_on,142,0,7,,,,,,,,,7,,,50,0
34128,note_on,2,0,7,,,,,,,,,7,,,50,60
34144,note_on,160,0,5,,,,,,,,,5,,,62,0
34144,note_on,0,0,5,,,,,,,,,5,,,65,0
34174,note_on,46,0,7,,,,,,,,,7,,,50,0
34176,note_on,2,0,7,,,,,,,,,7,,,48,60
34176,note_on,32,0,5,,,,,,,,,5,,,63,60
34176,note_on,0,0,4,,,,,,,,,3,,,48,60
34176,note_on,576,0,4,,,,,,,,,3,,,50,0
34176,note_on,0,0,3,,,,,,,,,2,,,63,60
34176,note_on,192,0,3,,,,,,,,,2,,,58,0
34318,note_on,142,0,7,,,,,,,,,7,,,48,0
34318,note_on,142,0,5,,,,,,,,,5,,,63,0
34320,note_on,0,0,3,,,,,,,,,2,,,62,60
34320,note_on,144,0,3,,,,,,,,,2,,,63,0
34320,note_on,2,0,5,,,,,,,,,5,,,62,60
34320,note_on,2,0,7,,,,,,,,,7,,,48,60
34336,note_on,16,0,5,,,,,,,,,5,,,70,0
34366,note_on,46,0,7,,,,,,,,,7,,,48,0
34366,note_on,30,0,5,,,,,,,,,5,,,62,0
34368,note_on,0,0,5,,,,,,,,,5,,,69,60
34368,note_on,0,0,3,,,,,,,,,2,,,63,60
34368,note_on,2,0,7,,,,,,,,,7,,,48,60
34368,note_on,48,0,3,,,,,,,,,2,,,62,0
34368,note_on,2,0,5,,,,,,,,,5,,,63,60
34510,note_on,142,0,5,,,,,,,,,5,,,63,0
34510,note_on,142,0,7,,,,,,,,,7,,,48,0
34512,note_on,2,0,7,,,,,,,,,7,,,48,60
34512,note_on,0,0,3,,,,,,,,,2,,,60,60
34512,note_on,2,0,5,,,,,,,,,5,,,60,60
34512,note_on,144,0,3,,,,,,,,,2,,,63,0
34558,note_on,46,0,7,,,,,,,,,7,,,48,0
34558,note_on,46,0,5,,,,,,,,,5,,,60,0
34560,note_on,0,0,3,,,,,,,,,2,,,62,60
34560,note_on,2,0,7,,,,,,,,,7,,,48,60
34560,note_on,2,0,5,,,,,,,,,5,,,62,60
34560,note_on,48,0,3,,,,,,,,,2,,,60,0
34702,note_on,142,0,7,,,,,,,,,7,,,48,0
34702,note_on,142,0,5,,,,,,,,,5,,,62,0
34704,note_on,2,0,5,,,,,,,,,5,,,69,0
34704,note_on,0,0,5,,,,,,,,,5,,,63,60
34704,note_on,2,0,7,,,,,,,,,7,,,48,60
34704,note_on,144,0,3,,,,,,,,,2,,,62,0
34704,note_on,0,0,3,,,,,,,,,2,,,63,60
34750,note_on,46,0,5,,,,,,,,,5,,,63,0
34750,note_on,46,0,7,,,,,,,,,7,,,48,0
34752,note_on,2,0,5,,,,,,,,,5,,,74,60
34752,note_on,0,0,5,,,,,,,,,5,,,77,60
34752,note_on,0,0,4,,,,,,,,,3,,,46,60
34752,note_on,2,0,7,,,,,,,,,7,,,46,60
34752,note_on,576,0,4,,,,,,,,,3,,,48,0
34752,note_on,0,0,3,,,,,,,,,2,,,62,60
34752,note_on,48,0,3,,,,,,,,,2,,,63,0
34846,note_on,94,0,5,,,,,,,,,5,,,74,0
34846,note_on,94,0,4,,,,,,,,,3,,,46,0
34846,note_on,94,0,3,,,,,,,,,2,,,62,0
34848,note_on,2,0,4,,,,,,,,,3,,,51,60
34848,note_on,2,0,5,,,,,,,,,5,,,72,60
34848,note_on,2,0,3,,,,,,,,,2,,,60,60
34894,note_on,46,0,5,,,,,,,,,5,,,72,0
34894,note_on,0,0,5,,,,,,,,,5,,,77,0
34894,note_on,142,0,7,,,,,,,,,7,,,46,0
34896,note_on,2,0,5,,,,,,,,,5,,,70,60
34896,note_on,0,0,5,,,,,,,,,5,,,79,60
34896,note_on,2,0,7,,,,,,,,,7,,,51,60
34896,note_on,0,0,3,,,,,,,,,2,,,58,60
34896,note_on,48,0,3,,,,,,,,,2,,,60,0
34942,note_on,46,0,3,,,,,,,,,2,,,58,0
34942,note_on,46,0,5,,,,,,,,,5,,,70,0
34942,note_on,0,0,5,,,,,,,,,5,,,79,0
34942,note_on,94,0,4,,,,,,,,,3,,,51,0
34942,note_on,46,0,7,,,,,,,,,7,,,51,0
34944,note_on,2,0,4,,,,,,,,,3,,,53,60
34944,note_on,2,0,3,,,,,,,,,2,,,57,60
34944,note_on,2,0,7,,,,,,,,,7,,,53,60
34944,note_on,2,0,5,,,,,,,,,5,,,69,60
34944,note_on,0,0,5,,,,,,,,,5,,,72,60
35086,note_on,142,0,7,,,,,,,,,7,,,53,0
35086,note_on,142,0,5,,,,,,,,,5,,,72,0
35088,note_on,2,0,5,,,,,,,,,5,,,74,60
35088,note_on,2,0,7,,,,,,,,,7,,,53,60
35134,note_on,46,0,5,,,,,,,,,5,,,74,0
35134,note_on,46,0,7,,,,,,,,,7,,,53,0
35136,note_on,2,0,5,,,,,,,,,5,,,75,60
35136,note_on,2,0,7,,,,,,,,,7,,,41,60
35278,note_on,142,0,5,,,,,,,,,5,,,75,0
35278,note_on,142,0,7,,,,,,,,,7,,,41,0
35280,note_on,2,0,7,,,,,,,,,7,,,41,60
35280,note_on,2,0,5,,,,,,,,,5,,,69,0
35280,note_on,0,0,5,,,,,,,,,5,,,77,60
35280,note_on,336,0,3,,,,,,,,,2,,,57,0
35280,note_on,336,0,4,,,,,,,,,3,,,53,0
35326,note_on,46,0,5,,,,,,,,,5,,,77,0
35326,note_on,46,0,7,,,,,,,,,7,,,41,0
35328,note_on,48,0,4,,,,,,,,,3,,,46,60
35328,note_on,2,0,7,,,,,,,,,7,,,46,60
35328,note_on,48,0,3,,,,,,,,,2,,,58,60
35328,note_on,2,0,5,,,,,,,,,5,,,70,60
35328,note_on,0,0,5,,,,,,,,,5,,,74,60
35470,note_on,142,0,5,,,,,,,,,5,,,74,0
35470,note_on,142,0,7,,,,,,,,,7,,,46,0
35472,note_on,2,0,7,,,,,,,,,7,,,45,60
35472,note_on,2,0,5,,,,,,,,,5,,,72,60
35518,note_on,46,0,5,,,,,,,,,5,,,72,0
35518,note_on,46,0,7,,,,,,,,,7,,,45,0
35520,note_on,2,0,7,,,,,,,,,7,,,46,60
35520,note_on,2,0,5,,,,,,,,,5,,,74,60
35662,note_on,142,0,5,,,,,,,,,5,,,74,0
35662,note_on,142,0,7,,,,,,,,,7,,,46,0
35664,note_on,2,0,7,,,,,,,,,7,,,48,60
35664,note_on,2,0,5,,,,,,,,,5,,,76,60
35664,note_on,336,0,3,,,,,,,,,2,,,58,0
35710,note_on,46,0,7,,,,,,,,,7,,,48,0
35710,note_on,46,0,5,,,,,,,,,5,,,76,0
35712,note_on,2,0,5,,,,,,,,,5,,,74,60
35712,note_on,0,0,5,,,,,,,,,5,,,77,60
35712,note_on,2,0,7,,,,,,,,,7,,,50,60
35854,note_on,142,0,5,,,,,,,,,5,,,77,0
35854,note_on,142,0,7,,,,,,,,,7,,,50,0
35856,note_on,528,0,4,,,,,,,,,3,,,46,0
35856,note_on,0,0,5,,,,,,,,,5,,,79,60
35856,note_on,2,0,7,,,,,,,,,7,,,52,60
35856,note_on,2,0,5,,,,,,,,,5,,,70,0
35872,note_on,16,0,5,,,,,,,,,5,,,74,0
35902,note_on,30,0,5,,,,,,,,,5,,,79,0
35902,note_on,46,0,7,,,,,,,,,7,,,52,0
35904,note_on,0,0,5,,,,,,,,,5,,,81,92
35904,note_on,2,0,5,,,,,,,,,5,,,72,92
35904,note_on,2,0,7,,,,,,,,,7,,,53,92
35904,note_on,240,0,3,,,,,,,,,2,,,60,92
35904,note_on,48,0,4,,,,,,,,,3,,,53,92
36046,note_on,142,0,7,,,,,,,,,7,,,53,0
36048,note_on,2,0,7,,,,,,,,,7,,,52,92
36064,note_on,160,0,4,,,,,,,,,3,,,53,0
36064,note_on,160,0,5,,,,,,,,,5,,,81,0
36064,note_on,160,0,3,,,,,,,,,2,,,60,0
36094,note_on,46,0,7,,,,,,,,,7,,,52,0
36096,note_on,32,0,4,,,,,,,,,3,,,53,92
36096,note_on,32,0,3,,,,,,,,,2,,,65,92
36096,note_on,2,0,7,,,,,,,,,7,,,53,92
36096,note_on,32,0,5,,,,,,,,,5,,,77,92
36238,note_on,142,0,7,,,,,,,,,7,,,53,0
36240,note_on,144,0,4,,,,,,,,,3,,,53,0
36240,note_on,2,0,7,,,,,,,,,7,,,55,92
36240,note_on,0,0,4,,,,,,,,,3,,,55,92
36256,note_on,160,0,5,,,,,,,,,5,,,72,0
36256,note_on,160,0,3,,,,,,,,,2,,,65,0
36286,note_on,46,0,4,,,,,,,,,3,,,55,0
36286,note_on,46,0,7,,,,,,,,,7,,,55,0
36288,note_on,2,0,4,,,,,,,,,3,,,57,92
36288,note_on,32,0,3,,,,,,,,,2,,,65,92
36288,note_on,2,0,7,,,,,,,,,7,,,57,92
36430,note_on,142,0,7,,,,,,,,,7,,,57,0
36432,note_on,2,0,7,,,,,,,,,7,,,58,92
36432,note_on,144,0,4,,,,,,,,,3,,,57,0
36432,note_on,0,0,4,,,,,,,,,3,,,58,92
36448,note_on,160,0,3,,,,,,,,,2,,,65,0
36478,note_on,46,0,4,,,,,,,,,3,,,58,0
36478,note_on,46,0,7,,,,,,,,,7,,,58,0
36480,note_on,32,0,3,,,,,,,,,2,,,65,92
36480,note_on,224,0,5,,,,,,,,,5,,,79,92
36480,note_on,2,0,7,,,,,,,,,7,,,60,92
36480,note_on,2,0,4,,,,,,,,,3,,,60,92
36622,note_on,142,0,7,,,,,,,,,7,,,60,0
36624,note_on,2,0,7,,,,,,,,,7,,,48,92
36640,note_on,160,0,5,,,,,,,,,5,,,77,0
36640,note_on,160,0,3,,,,,,,,,2,,,65,0
36640,note_on,160,0,4,,,,,,,,,3,,,60,0
36670,note_on,46,0,7,,,,,,,,,7,,,48,0
36672,note_on,32,0,3,,,,,,,,,2,,,64,92
36672,note_on,32,0,4,,,,,,,,,3,,,48,92
36672,note_on,2,0,7,,,,,,,,,7,,,48,92
36672,note_on,32,0,5,,,,,,,,,5,,,76,92
36814,note_on,142,0,7,,,,,,,,,7,,,48,0
36816,note_on,2,0,7,,,,,,,,,7,,,48,92
36832,note_on,160,0,4,,,,,,,,,3,,,48,0
36862,note_on,46,0,7,,,,,,,,,7,,,48,0
36864,note_on,2,0,7,,,,,,,,,7,,,50,92
36864,note_on,32,0,4,,,,,,,,,3,,,50,92
37006,note_on,142,0,4,,,,,,,,,3,,,50,0
37006,note_on,142,0,7,,,,,,,,,7,,,50,0
37008,note_on,2,0,7,,,,,,,,,7,,,52,92
37008,note_on,336,0,3,,,,,,,,,2,,,64,0
37008,note_on,2,0,4,,,,,,,,,3,,,52,92
37008,note_on,336,0,5,,,,,,,,,5,,,79,0
37054,note_on,46,0,7,,,,,,,,,7,,,52,0
37054,note_on,46,0,4,,,,,,,,,3,,,52,0
37056,note_on,2,0,4,,,,,,,,,3,,,53,92
37056,note_on,48,0,5,,,,,,,,,5,,,81,92
37056,note_on,2,0,7,,,,,,,,,7,,,53,92
37056,note_on,48,0,3,,,,,,,,,2,,,64,92
37198,note_on,142,0,7,,,,,,,,,7,,,53,0
37200,note_on,2,0,7,,,,,,,,,7,,,53,92
37216,note_on,160,0,5,,,,,,,,,5,,,76,0
37216,note_on,160,0,3,,,,,,,,,2,,,64,0
37216,note_on,0,0,5,,,,,,,,,5,,,81,0
37216,note_on,160,0,4,,,,,,,,,3,,,53,0
37246,note_on,46,0,7,,,,,,,,,7,,,53,0
37248,note_on,32,0,4,,,,,,,,,3,,,53,92
37248,note_on,32,0,3,,,,,,,,,2,,,62,92
37248,note_on,2,0,7,,,,,,,,,7,,,53,92
37248,note_on,32,0,5,,,,,,,,,5,,,74,92
37248,note_on,0,0,5,,,,,,,,,5,,,81,92
37390,note_on,142,0,7,,,,,,,,,7,,,53,0
37392,note_on,2,0,7,,,,,,,,,7,,,53,92
37438,note_on,46,0,7,,,,,,,,,7,,,53,0
37440,note_on,2,0,7,,,,,,,,,7,,,53,92
37504,note_on,256,0,4,,,,,,,,,3,,,53,0
37536,note_on,32,0,4,,,,,,,,,3,,,55,92
37582,note_on,334,0,5,,,,,,,,,5,,,81,0
37582,note_on,142,0,7,,,,,,,,,7,,,53,0
37584,note_on,336,0,3,,,,,,,,,2,,,62,0
37584,note_on,2,0,5,,,,,,,,,5,,,82,92
37584,note_on,2,0,7,,,,,,,,,7,,,55,92
37630,note_on,46,0,5,,,,,,,,,5,,,82,0
37630,note_on,46,0,7,,,,,,,,,7,,,55,0
37630,note_on,94,0,4,,,,,,,,,3,,,55,0
37632,note_on,2,0,4,,,,,,,,,3,,,52,92
37632,note_on,2,0,7,,,,,,,,,7,,,52,92
37632,note_on,48,0,3,,,,,,,,,2,,,62,92
37632,note_on,2,0,5,,,,,,,,,5,,,79,92
37774,note_on,142,0,7,,,,,,,,,7,,,52,0
37776,note_on,2,0,7,,,,,,,,,7,,,52,92
37792,note_on,160,0,5,,,,,,,,,5,,,74,0
37792,note_on,0,0,5,,,,,,,,,5,,,79,0
37792,note_on,160,0,3,,,,,,,,,2,,,62,0
37822,note_on,46,0,7,,,,,,,,,7,,,52,0
37824,note_on,0,0,5,,,,,,,,,5,,,79,92
37824,note_on,2,0,7,,,,,,,,,7,,,57,92
37824,note_on,32,0,5,,,,,,,,,5,,,72,92
37824,note_on,32,0,3,,,,,,,,,2,,,60,92
37824,note_on,192,0,4,,,,,,,,,3,,,52,0
37824,note_on,0,0,4,,,,,,,,,3,,,57,92
37966,note_on,142,0,7,,,,,,,,,7,,,57,0
37968,note_on,0,0,3,,,,,,,,,2,,,58,92
37968,note_on,144,0,3,,,,,,,,,2,,,60,0
37968,note_on,144,0,4,,,,,,,,,3,,,57,0
37968,note_on,0,0,4,,,,,,,,,3,,,55,92
37968,note_on,2,0,7,,,,,,,,,7,,,55,92
38014,note_on,46,0,7,,,,,,,,,7,,,55,0
38014,note_on,46,0,3,,,,,,,,,2,,,58,0
38016,note_on,0,0,4,,,,,,,,,3,,,57,92
38016,note_on,48,0,4,,,,,,,,,3,,,55,0
38016,note_on,2,0,7,,,,,,,,,7,,,57,92
38016,note_on,2,0,3,,,,,,,,,2,,,60,92
38158,note_on,142,0,7,,,,,,,,,7,,,57,0
38158,note_on,334,0,5,,,,,,,,,5,,,79,0
38160,note_on,2,0,7,,,,,,,,,7,,,45,92
38160,note_on,2,0,5,,,,,,,,,5,,,81,92
38176,note_on,160,0,3,,,,,,,,,2,,,60,0
38206,note_on,46,0,7,,,,,,,,,7,,,45,0
38206,note_on,46,0,5,,,,,,,,,5,,,81,0
38208,note_on,192,0,4,,,,,,,,,3,,,57,0
38208,note_on,32,0,3,,,,,,,,,2,,,60,92
38208,note_on,2,0,7,,,,,,,,,7,,,50,92
38208,note_on,2,0,5,,,,,,,,,5,,,77,92
38208,note_on,0,0,4,,,,,,,,,3,,,50,92
38350,note_on,142,0,7,,,,,,,,,7,,,50,0
38352,note_on,2,0,7,,,,,,,,,7,,,50,92
38368,note_on,0,0,5,,,,,,,,,5,,,77,0
38368,note_on,160,0,5,,,,,,,,,5,,,72,0
38398,note_on,46,0,7,,,,,,,,,7,,,50,0
38400,note_on,0,0,4,,,,,,,,,3,,,55,92
38400,note_on,192,0,4,,,,,,,,,3,,,50,0
38400,note_on,0,0,5,,,,,,,,,5,,,77,92
38400,note_on,32,0,5,,,,,,,,,5,,,70,92
38400,note_on,2,0,7,,,,,,,,,7,,,55,92
38400,note_on,0,0,3,,,,,,,,,2,,,58,92
38400,note_on,192,0,3,,,,,,,,,2,,,60,0
38542,note_on,142,0,7,,,,,,,,,7,,,55,0
38544,note_on,2,0,7,,,,,,,,,7,,,53,92
38544,note_on,0,0,3,,,,,,,,,2,,,57,92
38544,note_on,144,0,4,,,,,,,,,3,,,55,0
38544,note_on,144,0,3,,,,,,,,,2,,,58,0
38544,note_on,0,0,4,,,,,,,,,3,,,53,92
38590,note_on,46,0,7,,,,,,,,,7,,,53,0
38592,note_on,2,0,7,,,,,,,,,7,,,55,92
38592,note_on,0,0,3,,,,,,,,,2,,,58,92
38592,note_on,48,0,4,,,,,,,,,3,,,53,0
38592,note_on,48,0,3,,,,,,,,,2,,,57,0
38592,note_on,0,0,4,,,,,,,,,3,,,55,92
38734,note_on,334,0,5,,,,,,,,,5,,,77,0
38734,note_on,142,0,7,,,,,,,,,7,,,55,0
38736,note_on,2,0,7,,,,,,,,,7,,,43,92
38736,note_on,2,0,5,,,,,,,,,5,,,79,92
38782,note_on,46,0,5,,,,,,,,,5,,,79,0
38782,note_on,46,0,7,,,,,,,,,7,,,43,0
38784,note_on,2,0,5,,,,,,,,,5,,,76,92
38784,note_on,0,0,4,,,,,,,,,3,,,48,92
38784,note_on,192,0,4,,,,,,,,,3,,,55,0
38784,note_on,2,0,7,,,,,,,,,7,,,48,92
38926,note_on,142,0,7,,,,,,,,,7,,,48,0
38928,note_on,2,0,7,,,,,,,,,7,,,48,92
38944,note_on,160,0,5,,,,,,,,,5,,,70,0
38944,note_on,0,0,5,,,,,,,,,5,,,76,0
38974,note_on,46,0,7,,,,,,,,,7,,,48,0
38976,note_on,0,0,5,,,,,,,,,5,,,72,92
38976,note_on,2,0,7,,,,,,,,,7,,,53,92
38976,note_on,32,0,5,,,,,,,,,5,,,69,92
38976,note_on,192,0,4,,,,,,,,,3,,,48,0
38976,note_on,0,0,3,,,,,,,,,2,,,57,92
38976,note_on,0,0,4,,,,,,,,,3,,,53,92
38976,note_on,384,0,3,,,,,,,,,2,,,58,0
39118,note_on,142,0,7,,,,,,,,,7,,,53,0
39120,note_on,144,0,3,,,,,,,,,2,,,57,0
39120,note_on,0,0,3,,,,,,,,,2,,,55,92
39120,note_on,2,0,7,,,,,,,,,7,,,52,92
39120,note_on,144,0,4,,,,,,,,,3,,,53,0
39120,note_on,0,0,4,,,,,,,,,3,,,52,92
39136,note_on,160,0,5,,,,,,,,,5,,,72,0
39166,note_on,46,0,7,,,,,,,,,7,,,52,0
39168,note_on,48,0,4,,,,,,,,,3,,,52,0
39168,note_on,0,0,3,,,,,,,,,2,,,57,92
39168,note_on,2,0,7,,,,,,,,,7,,,53,92
39168,note_on,0,0,4,,,,,,,,,3,,,53,92
39168,note_on,48,0,3,,,,,,,,,2,,,55,0
39168,note_on,32,0,5,,,,,,,,,5,,,77,92
39310,note_on,142,0,7,,,,,,,,,7,,,53,0
39312,note_on,2,0,7,,,,,,,,,7,,,57,92
39328,note_on,160,0,5,,,,,,,,,5,,,77,0
39358,note_on,46,0,7,,,,,,,,,7,,,57,0
39360,note_on,0,0,4,,,,,,,,,3,,,58,92
39360,note_on,32,0,5,,,,,,,,,5,,,74,92
39360,note_on,2,0,7,,,,,,,,,7,,,58,92
39360,note_on,192,0,4,,,,,,,,,3,,,53,0
39502,note_on,142,0,5,,,,,,,,,5,,,74,0
39502,note_on,142,0,7,,,,,,,,,7,,,58,0
39504,note_on,2,0,5,,,,,,,,,5,,,72,92
39504,note_on,0,0,4,,,,,,,,,3,,,57,92
39504,note_on,144,0,4,,,,,,,,,3,,,58,0
39504,note_on,2,0,7,,,,,,,,,7,,,57,92
39520,note_on,16,0,5,,,,,,,,,5,,,69,0
39550,note_on,46,0,7,,,,,,,,,7,,,57,0
39550,note_on,30,0,5,,,,,,,,,5,,,72,0
39552,note_on,2,0,5,,,,,,,,,5,,,67,92
39552,note_on,2,0,7,,,,,,,,,7,,,58,92
39552,note_on,0,0,4,,,,,,,,,3,,,58,92
39552,note_on,48,0,4,,,,,,,,,3,,,57,0
39552,note_on,0,0,5,,,,,,,,,5,,,74,92
39552,note_on,384,0,3,,,,,,,,,2,,,57,0
39552,note_on,0,0,3,,,,,,,,,2,,,55,92
39694,note_on,142,0,7,,,,,,,,,7,,,58,0
39694,note_on,142,0,5,,,,,,,,,5,,,74,0
39696,note_on,0,0,4,,,,,,,,,3,,,55,92
39696,note_on,144,0,4,,,,,,,,,3,,,58,0
39696,note_on,2,0,5,,,,,,,,,5,,,70,92
39696,note_on,2,0,7,,,,,,,,,7,,,55,92
39712,note_on,16,0,5,,,,,,,,,5,,,67,0
39742,note_on,30,0,5,,,,,,,,,5,,,70,0
39742,note_on,46,0,7,,,,,,,,,7,,,55,0
39744,note_on,48,0,4,,,,,,,,,3,,,55,0
39744,note_on,0,0,4,,,,,,,,,3,,,57,92
39744,note_on,2,0,7,,,,,,,,,7,,,57,92
39744,note_on,2,0,5,,,,,,,,,5,,,67,92
39744,note_on,0,0,5,,,,,,,,,5,,,72,92
39886,note_on,142,0,5,,,,,,,,,5,,,72,0
39886,note_on,142,0,7,,,,,,,,,7,,,57,0
39888,note_on,2,0,7,,,,,,,,,7,,,58,92
39888,note_on,2,0,5,,,,,,,,,5,,,74,92
39888,note_on,144,0,4,,,,,,,,,3,,,57,0
39888,note_on,0,0,4,,,,,,,,,3,,,58,92
39904,note_on,16,0,5,,,,,,,,,5,,,67,0
39934,note_on,46,0,7,,,,,,,,,7,,,58,0
39934,note_on,30,0,5,,,,,,,,,5,,,74,0
39936,note_on,2,0,5,,,,,,,,,5,,,72,92
39936,note_on,0,0,4,,,,,,,,,3,,,57,92
39936,note_on,48,0,4,,,,,,,,,3,,,58,0
39936,note_on,0,0,3,,,,,,,,,2,,,53,92
39936,note_on,2,0,7,,,,,,,,,7,,,57,92
39936,note_on,384,0,3,,,,,,,,,2,,,55,0
40078,note_on,142,0,4,,,,,,,,,3,,,57,0
40078,note_on,142,0,3,,,,,,,,,2,,,53,0
40078,note_on,142,0,7,,,,,,,,,7,,,57,0
40080,note_on,2,0,4,,,,,,,,,3,,,53,92
40080,note_on,2,0,3,,,,,,,,,2,,,57,92
40080,note_on,144,0,5,,,,,,,,,5,,,77,92
40080,note_on,2,0,7,,,,,,,,,7,,,53,92
40126,note_on,46,0,7,,,,,,,,,7,,,53,0
40126,note_on,46,0,3,,,,,,,,,2,,,57,0
40126,note_on,46,0,4,,,,,,,,,3,,,53,0
40126,note_on,46,0,5,,,,,,,,,5,,,77,0
40128,note_on,0,0,5,,,,,,,,,5,,,76,92
40128,note_on,2,0,5,,,,,,,,,5,,,67,92
40128,note_on,2,0,4,,,,,,,,,3,,,48,92
40128,note_on,2,0,3,,,,,,,,,2,,,55,92
40128,note_on,2,0,7,,,,,,,,,7,,,48,92
40270,note_on,142,0,5,,,,,,,,,5,,,76,0
40272,note_on,2,0,5,,,,,,,,,5,,,77,92
40288,note_on,160,0,7,,,,,,,,,7,,,48,0
40288,note_on,16,0,5,,,,,,,,,5,,,67,0
40318,note_on,30,0,5,,,,,,,,,5,,,77,0
40320,note_on,32,0,7,,,,,,,,,7,,,36,92
40320,note_on,2,0,5,,,,,,,,,5,,,76,92
40320,note_on,0,0,5,,,,,,,,,5,,,79,92
40462,note_on,142,0,5,,,,,,,,,5,,,79,0
40464,note_on,336,0,4,,,,,,,,,3,,,48,0
40464,note_on,336,0,3,,,,,,,,,2,,,55,0
40464,note_on,2,0,5,,,,,,,,,5,,,76,92
40480,note_on,160,0,7,,,,,,,,,7,,,36,0
40480,note_on,16,0,5,,,,,,,,,5,,,76,0
40510,note_on,30,0,5,,,,,,,,,5,,,76,0
40512,note_on,9264,0,1,,,,,,,,,0,,,72,108
40512,note_on,0,0,5,,,,,,,,,5,,,81,108
40512,note_on,2,0,5,,,,,,,,,5,,,77,108
40512,note_on,48,0,3,,,,,,,,,2,,,57,92
40512,note_on,48,0,4,,,,,,,,,3,,,53,92
40512,note_on,9264,0,2,,,,,,,,,1,,,69,108
40512,note_on,32,0,7,,,,,,,,,7,,,41,108
40654,note_on,142,0,7,,,,,,,,,7,,,41,0
40656,note_on,144,0,2,,,,,,,,,1,,,69,0
40656,note_on,2,0,7,,,,,,,,,7,,,53,108
40656,note_on,0,0,2,,,,,,,,,1,,,67,108
40656,note_on,144,0,1,,,,,,,,,0,,,72,0
40656,note_on,0,0,1,,,,,,,,,0,,,70,108
40702,note_on,46,0,7,,,,,,,,,7,,,53,0
40704,note_on,0,0,2,,,,,,,,,1,,,69,108
40704,note_on,48,0,1,,,,,,,,,0,,,70,0
40704,note_on,0,0,1,,,,,,,,,0,,,72,108
40704,note_on,48,0,2,,,,,,,,,1,,,67,0
40704,note_on,2,0,7,,,,,,,,,7,,,53,108
40846,note_on,142,0,7,,,,,,,,,7,,,53,0
40848,note_on,144,0,2,,,,,,,,,1,,,69,0
40848,note_on,336,0,5,,,,,,,,,5,,,72,0
40848,note_on,2,0,7,,,,,,,,,7,,,53,108
40848,note_on,144,0,1,,,,,,,,,0,,,72,0
40848,note_on,0,0,2,,,,,,,,,1,,,65,108
40848,note_on,0,0,1,,,,,,,,,0,,,69,108
40894,note_on,46,0,7,,,,,,,,,7,,,53,0
40894,note_on,46,0,2,,,,,,,,,1,,,65,0
40894,note_on,46,0,1,,,,,,,,,0,,,69,0
40896,note_on,2,0,7,,,,,,,,,7,,,53,108
40896,note_on,48,0,5,,,,,,,,,5,,,77,108
40896,note_on,2,0,1,,,,,,,,,0,,,70,108
40896,note_on,2,0,2,,,,,,,,,1,,,67,108
41038,note_on,142,0,7,,,,,,,,,7,,,53,0
41038,note_on,142,0,2,,,,,,,,,1,,,67,0
41038,note_on,142,0,1,,,,,,,,,0,,,70,0
41040,note_on,2,0,2,,,,,,,,,1,,,69,108
41040,note_on,528,0,4,,,,,,,,,3,,,53,0
41040,note_on,528,0,3,,,,,,,,,2,,,57,0
41040,note_on,2,0,1,,,,,,,,,0,,,72,108
41040,note_on,2,0,7,,,,,,,,,7,,,53,108
41040,note_on,144,0,5,,,,,,,,,5,,,77,0
41056,note_on,16,0,5,,,,,,,,,5,,,77,0
41086,note_on,46,0,2,,,,,,,,,1,,,69,0
41086,note_on,46,0,1,,,,,,,,,0,,,72,0
41086,note_on,46,0,7,,,,,,,,,7,,,53,0
41088,note_on,48,0,4,,,,,,,,,3,,,58,108
41088,note_on,2,0,2,,,,,,,,,1,,,70,108
41088,note_on,48,0,3,,,,,,,,,2,,,62,108
41088,note_on,2,0,7,,,,,,,,,7,,,58,108
41088,note_on,2,0,1,,,,,,,,,0,,,74,108
41088,note_on,32,0,5,,,,,,,,,5,,,74,108
41088,note_on,0,0,5,,,,,,,,,5,,,77,108
41230,note_on,142,0,7,,,,,,,,,7,,,58,0
41232,note_on,2,0,7,,,,,,,,,7,,,57,108
41232,note_on,0,0,3,,,,,,,,,2,,,60,108
41232,note_on,144,0,4,,,,,,,,,3,,,58,0
41232,note_on,144,0,3,,,,,,,,,2,,,62,0
41232,note_on,0,0,4,,,,,,,,,3,,,57,108
41248,note_on,160,0,1,,,,,,,,,0,,,74,0
41248,note_on,160,0,2,,,,,,,,,1,,,70,0
41278,note_on,46,0,7,,,,,,,,,7,,,57,0
41280,note_on,32,0,1,,,,,,,,,0,,,74,108
41280,note_on,0,0,3,,,,,,,,,2,,,62,108
41280,note_on,48,0,3,,,,,,,,,2,,,60,0
41280,note_on,2,0,7,,,,,,,,,7,,,58,108
41280,note_on,48,0,4,,,,,,,,,3,,,57,0
41280,note_on,32,0,2,,,,,,,,,1,,,70,108
41280,note_on,0,0,4,,,,,,,,,3,,,58,108
41422,note_on,142,0,7,,,,,,,,,7,,,58,0
41424,note_on,2,0,7,,,,,,,,,7,,,55,108
41424,note_on,0,0,4,,,,,,,,,3,,,55,108
41424,note_on,144,0,3,,,,,,,,,2,,,62,0
41424,note_on,0,0,3,,,,,,,,,2,,,58,108
41424,note_on,144,0,4,,,,,,,,,3,,,58,0
41424,note_on,336,0,5,,,,,,,,,5,,,77,0
41470,note_on,46,0,4,,,,,,,,,3,,,55,0
41470,note_on,46,0,3,,,,,,,,,2,,,58,0
41470,note_on,46,0,7,,,,,,,,,7,,,55,0
41472,note_on,2,0,4,,,,,,,,,3,,,57,108
41472,note_on,2,0,7,,,,,,,,,7,,,57,108
41472,note_on,2,0,3,,,,,,,,,2,,,60,108
41614,note_on,142,0,3,,,,,,,,,2,,,60,0
41614,note_on,142,0,7,,,,,,,,,7,,,57,0
41614,note_on,142,0,4,,,,,,,,,3,,,57,0
41616,note_on,2,0,4,,,,,,,,,3,,,58,108
41616,note_on,2,0,7,,,,,,,,,7,,,58,108
41616,note_on,336,0,1,,,,,,,,,0,,,74,0
41616,note_on,2,0,3,,,,,,,,,2,,,62,108
41616,note_on,336,0,2,,,,,,,,,1,,,70,0
41632,note_on,208,0,5,,,,,,,,,5,,,81,0
41662,note_on,46,0,4,,,,,,,,,3,,,58,0
41662,note_on,46,0,7,,,,,,,,,7,,,58,0
41662,note_on,46,0,3,,,,,,,,,2,,,62,0
41664,note_on,48,0,1,,,,,,,,,0,,,70,108
41664,note_on,32,0,5,,,,,,,,,5,,,70,108
41664,note_on,48,0,2,,,,,,,,,1,,,67,108
41664,note_on,2,0,3,,,,,,,,,2,,,62,108
41664,note_on,2,0,7,,,,,,,,,7,,,52,108
41664,note_on,2,0,4,,,,,,,,,3,,,52,108
41664,note_on,0,0,5,,,,,,,,,5,,,79,108
41806,note_on,142,0,7,,,,,,,,,7,,,52,0
41808,note_on,2,0,7,,,,,,,,,7,,,52,108
41808,note_on,144,0,1,,,,,,,,,0,,,70,0
41808,note_on,0,0,2,,,,,,,,,1,,,65,108
41808,note_on,144,0,2,,,,,,,,,1,,,67,0
41808,note_on,0,0,1,,,,,,,,,0,,,69,108
41824,note_on,160,0,4,,,,,,,,,3,,,52,0
41854,note_on,46,0,7,,,,,,,,,7,,,52,0
41856,note_on,0,0,1,,,,,,,,,0,,,70,108
41856,note_on,2,0,7,,,,,,,,,7,,,52,108
41856,note_on,48,0,1,,,,,,,,,0,,,69,0
41856,note_on,32,0,4,,,,,,,,,3,,,52,108
41856,note_on,0,0,2,,,,,,,,,1,,,67,108
41856,note_on,48,0,2,,,,,,,,,1,,,65,0
41998,note_on,142,0,7,,,,,,,,,7,,,52,0
42000,note_on,0,0,2,,,,,,,,,1,,,64,108
42000,note_on,336,0,5,,,,,,,,,5,,,70,0
42000,note_on,336,0,3,,,,,,,,,2,,,62,0
42000,note_on,144,0,1,,,,,,,,,0,,,70,0
42000,note_on,0,0,1,,,,,,,,,0,,,67,108
42000,note_on,2,0,7,,,,,,,,,7,,,52,108
42000,note_on,144,0,2,,,,,,,,,1,,,67,0
42046,note_on,46,0,7,,,,,,,,,7,,,52,0
42046,note_on,46,0,1,,,,,,,,,0,,,67,0
42046,note_on,46,0,2,,,,,,,,,1,,,64,0
42048,note_on,2,0,2,,,,,,,,,1,,,65,108
42048,note_on,48,0,5,,,,,,,,,5,,,67,108
42048,note_on,2,0,7,,,,,,,,,7,,,52,108
42048,note_on,2,0,1,,,,,,,,,0,,,69,108
42048,note_on,48,0,3,,,,,,,,,2,,,55,108
42190,note_on,142,0,7,,,,,,,,,7,,,52,0
42190,note_on,142,0,1,,,,,,,,,0,,,69,0
42190,note_on,142,0,2,,,,,,,,,1,,,65,0
42192,note_on,2,0,2,,,,,,,,,1,,,67,108
42192,note_on,2,0,7,,,,,,,,,7,,,52,108
42192,note_on,144,0,5,,,,,,,,,5,,,74,0
42192,note_on,336,0,4,,,,,,,,,3,,,52,0
42192,note_on,2,0,1,,,,,,,,,0,,,70,108
42208,note_on,16,0,5,,,,,,,,,5,,,67,0
42208,note_on,160,0,3,,,,,,,,,2,,,55,0
42238,note_on,46,0,7,,,,,,,,,7,,,52,0
42238,note_on,46,0,2,,,,,,,,,1,,,67,0
42238,note_on,46,0,1,,,,,,,,,0,,,70,0
42240,note_on,32,0,3,,,,,,,,,2,,,60,108
42240,note_on,48,0,4,,,,,,,,,3,,,57,108
42240,note_on,2,0,1,,,,,,,,,0,,,72,108
42240,note_on,2,0,2,,,,,,,,,1,,,69,108
42240,note_on,2,0,7,,,,,,,,,7,,,57,108
42240,note_on,32,0,5,,,,,,,,,5,,,72,108
42240,note_on,0,0,5,,,,,,,,,5,,,76,108
42382,note_on,142,0,7,,,,,,,,,7,,,57,0
42384,note_on,144,0,3,,,,,,,,,2,,,60,0
42384,note_on,0,0,3,,,,,,,,,2,,,58,108
42384,note_on,144,0,4,,,,,,,,,3,,,57,0
42384,note_on,0,0,4,,,,,,,,,3,,,55,108
42384,note_on,2,0,7,,,,,,,,,7,,,55,108
42400,note_on,160,0,1,,,,,,,,,0,,,72,0
42400,note_on,160,0,2,,,,,,,,,1,,,69,0
42430,note_on,46,0,7,,,,,,,,,7,,,55,0
42432,note_on,2,0,7,,,,,,,,,7,,,57,108
42432,note_on,48,0,3,,,,,,,,,2,,,58,0
42432,note_on,0,0,3,,,,,,,,,2,,,60,108
42432,note_on,32,0,2,,,,,,,,,1,,,69,108
42432,note_on,32,0,1,,,,,,,,,0,,,72,108
42432,note_on,48,0,4,,,,,,,,,3,,,55,0
42432,note_on,0,0,4,,,,,,,,,3,,,57,108
42574,note_on,142,0,7,,,,,,,,,7,,,57,0
42576,note_on,2,0,7,,,,,,,,,7,,,53,108
42576,note_on,144,0,3,,,,,,,,,2,,,60,0
42576,note_on,0,0,3,,,,,,,,,2,,,57,108
42576,note_on,336,0,5,,,,,,,,,5,,,76,0
42576,note_on,0,0,4,,,,,,,,,3,,,53,108
42576,note_on,144,0,4,,,,,,,,,3,,,57,0
42622,note_on,46,0,4,,,,,,,,,3,,,53,0
42622,note_on,46,0,3,,,,,,,,,2,,,57,0
42622,note_on,46,0,7,,,,,,,,,7,,,53,0
42624,note_on,2,0,4,,,,,,,,,3,,,55,108
42624,note_on,2,0,3,,,,,,,,,2,,,58,108
42624,note_on,2,0,7,,,,,,,,,7,,,55,108
42766,note_on,142,0,3,,,,,,,,,2,,,58,0
42766,note_on,142,0,7,,,,,,,,,7,,,55,0
42766,note_on,142,0,4,,,,,,,,,3,,,55,0
42768,note_on,336,0,1,,,,,,,,,0,,,72,0
42768,note_on,2,0,3,,,,,,,,,2,,,60,108
42768,note_on,2,0,7,,,,,,,,,7,,,57,108
42768,note_on,336,0,2,,,,,,,,,1,,,69,0
42768,note_on,2,0,4,,,,,,,,,3,,,57,108
42784,note_on,208,0,5,,,,,,,,,5,,,79,0
42814,note_on,46,0,3,,,,,,,,,2,,,60,0
42814,note_on,46,0,7,,,,,,,,,7,,,57,0
42814,note_on,46,0,4,,,,,,,,,3,,,57,0
42816,note_on,2,0,7,,,,,,,,,7,,,50,108
42816,note_on,48,0,1,,,,,,,,,0,,,72,108
42816,note_on,0,0,5,,,,,,,,,5,,,77,108
42816,note_on,32,0,5,,,,,,,,,5,,,69,108
42816,note_on,48,0,2,,,,,,,,,1,,,65,108
42816,note_on,2,0,3,,,,,,,,,2,,,60,108
42816,note_on,2,0,4,,,,,,,,,3,,,50,108
42958,note_on,142,0,7,,,,,,,,,7,,,50,0
42960,note_on,2,0,7,,,,,,,,,7,,,50,108
42976,note_on,160,0,4,,,,,,,,,3,,,50,0
42976,note_on,160,0,2,,,,,,,,,1,,,65,0
42976,note_on,160,0,1,,,,,,,,,0,,,72,0
42976,note_on,160,0,3,,,,,,,,,2,,,60,0
43006,note_on,46,0,7,,,,,,,,,7,,,50,0
43008,note_on,32,0,4,,,,,,,,,3,,,50,108
43008,note_on,32,0,1,,,,,,,,,0,,,72,108
43008,note_on,32,0,2,,,,,,,,,1,,,65,108
43008,note_on,2,0,7,,,,,,,,,7,,,50,108
43008,note_on,32,0,3,,,,,,,,,2,,,60,108
43150,note_on,142,0,7,,,,,,,,,7,,,50,0
43152,note_on,2,0,7,,,,,,,,,7,,,50,108
43168,note_on,160,0,3,,,,,,,,,2,,,60,0
43168,note_on,160,0,4,,,,,,,,,3,,,50,0
43198,note_on,46,0,7,,,,,,,,,7,,,50,0
43200,note_on,2,0,7,,,,,,,,,7,,,50,108
43200,note_on,32,0,4,,,,,,,,,3,,,50,108
43200,note_on,32,0,3,,,,,,,,,2,,,60,108
43342,note_on,142,0,4,,,,,,,,,3,,,50,0
43342,note_on,142,0,3,,,,,,,,,2,,,60,0
43342,note_on,142,0,7,,,,,,,,,7,,,50,0
43344,note_on,2,0,4,,,,,,,,,3,,,50,108
43344,note_on,336,0,2,,,,,,,,,1,,,65,0
43344,note_on,0,0,5,,,,,,,,,5,,,77,0
43344,note_on,528,0,5,,,,,,,,,5,,,69,0
43344,note_on,2,0,7,,,,,,,,,7,,,50,108
43344,note_on,336,0,1,,,,,,,,,0,,,72,0
43344,note_on,2,0,3,,,,,,,,,2,,,60,108
43390,note_on,46,0,3,,,,,,,,,2,,,60,0
43390,note_on,46,0,7,,,,,,,,,7,,,50,0
43390,note_on,46,0,4,,,,,,,,,3,,,50,0
43392,note_on,48,0,1,,,,,,,,,0,,,70,92
43392,note_on,2,0,7,,,,,,,,,7,,,52,108
43392,note_on,2,0,4,,,,,,,,,3,,,52,92
43392,note_on,48,0,5,,,,,,,,,5,,,67,108
43392,note_on,0,0,5,,,,,,,,,5,,,79,108
43392,note_on,48,0,2,,,,,,,,,1,,,67,92
43392,note_on,2,0,3,,,,,,,,,2,,,60,92
43534,note_on,142,0,7,,,,,,,,,7,,,52,0
43536,note_on,2,0,7,,,,,,,,,7,,,52,108
43552,note_on,160,0,5,,,,,,,,,5,,,67,0
43582,note_on,46,0,7,,,,,,,,,7,,,52,0
43584,note_on,15584,0,6,,,,,,,,,6,,,64,108
43584,note_on,2,0,7,,,,,,,,,7,,,52,108
43648,note_on,256,0,1,,,,,,,,,0,,,70,0
43648,note_on,256,0,3,,,,,,,,,2,,,60,0
43648,note_on,256,0,2,,,,,,,,,1,,,67,0
43648,note_on,256,0,4,,,,,,,,,3,,,52,0
43680,note_on,32,0,2,,,,,,,,,1,,,67,92
43680,note_on,32,0,3,,,,,,,,,2,,,60,92
43680,note_on,32,0,1,,,,,,,,,0,,,70,92
43680,note_on,32,0,4,,,,,,,,,3,,,52,92
43726,note_on,142,0,7,,,,,,,,,7,,,52,0
43728,note_on,2,0,7,,,,,,,,,7,,,52,108
43744,note_on,160,0,6,,,,,,,,,6,,,64,0
43744,note_on,0,0,5,,,,,,,,,5,,,79,0
43744,note_on,192,0,5,,,,,,,,,5,,,72,0
43774,note_on,94,0,3,,,,,,,,,2,,,60,0
43774,note_on,46,0,7,,,,,,,,,7,,,52,0
43774,note_on,94,0,4,,,,,,,,,3,,,52,0
43774,note_on,94,0,1,,,,,,,,,0,,,70,0
43774,note_on,94,0,2,,,,,,,,,1,,,67,0
43776,note_on,2,0,4,,,,,,,,,3,,,53,92
43776,note_on,0,0,5,,,,,,,,,5,,,81,92
43776,note_on,32,0,5,,,,,,,,,5,,,77,92
43776,note_on,2,0,3,,,,,,,,,2,,,60,92
43776,note_on,32,0,6,,,,,,,,,6,,,60,92
43776,note_on,2,0,2,,,,,,,,,1,,,65,92
43776,note_on,2,0,1,,,,,,,,,0,,,69,92
43776,note_on,2,0,7,,,,,,,,,7,,,53,92
43918,note_on,142,0,7,,,,,,,,,7,,,53,0
43920,note_on,2,0,7,,,,,,,,,7,,,53,92
43936,note_on,160,0,2,,,,,,,,,1,,,65,0
43936,note_on,160,0,6,,,,,,,,,6,,,60,0
43936,note_on,160,0,4,,,,,,,,,3,,,53,0
43936,note_on,160,0,3,,,,,,,,,2,,,60,0
43936,note_on,160,0,1,,,,,,,,,0,,,69,0
43966,note_on,46,0,7,,,,,,,,,7,,,53,0
43968,note_on,32,0,4,,,,,,,,,3,,,47,92
43968,note_on,32,0,2,,,,,,,,,1,,,65,92
43968,note_on,2,0,7,,,,,,,,,7,,,47,92
43968,note_on,192,0,5,,,,,,,,,5,,,74,92
43968,note_on,32,0,1,,,,,,,,,0,,,69,92
43968,note_on,32,0,3,,,,,,,,,2,,,62,92
44110,note_on,142,0,5,,,,,,,,,5,,,77,0
44110,note_on,0,0,5,,,,,,,,,5,,,81,0
44110,note_on,142,0,7,,,,,,,,,7,,,47,0
44112,note_on,2,0,5,,,,,,,,,5,,,76,92
44112,note_on,0,0,5,,,,,,,,,5,,,79,92
44112,note_on,2,0,7,,,,,,,,,7,,,47,92
44128,note_on,160,0,4,,,,,,,,,3,,,47,0
44128,note_on,160,0,2,,,,,,,,,1,,,65,0
44158,note_on,46,0,7,,,,,,,,,7,,,47,0
44158,note_on,0,0,5,,,,,,,,,5,,,79,0
44158,note_on,46,0,5,,,,,,,,,5,,,76,0
44160,note_on,0,0,5,,,,,,,,,5,,,77,92
44160,note_on,2,0,5,,,,,,,,,5,,,74,92
44160,note_on,2,0,7,,,,,,,,,7,,,47,92
44160,note_on,32,0,4,,,,,,,,,3,,,47,92
44160,note_on,32,0,2,,,,,,,,,1,,,65,92
44302,note_on,142,0,5,,,,,,,,,5,,,74,0
44302,note_on,142,0,7,,,,,,,,,7,,,47,0
44302,note_on,0,0,5,,,,,,,,,5,,,77,0
44304,note_on,336,0,3,,,,,,,,,2,,,62,0
44304,note_on,336,0,1,,,,,,,,,0,,,69,0
44304,note_on,0,0,5,,,,,,,,,5,,,79,92
44304,note_on,2,0,7,,,,,,,,,7,,,47,92
44304,note_on,2,0,5,,,,,,,,,5,,,76,92
44350,note_on,46,0,5,,,,,,,,,5,,,76,0
44350,note_on,0,0,5,,,,,,,,,5,,,79,0
44350,note_on,46,0,7,,,,,,,,,7,,,47,0
44352,note_on,48,0,1,,,,,,,,,0,,,69,92
44352,note_on,2,0,5,,,,,,,,,5,,,77,92
44352,note_on,0,0,5,,,,,,,,,5,,,81,92
44352,note_on,2,0,7,,,,,,,,,7,,,47,92
44352,note_on,48,0,3,,,,,,,,,2,,,62,92
44494,note_on,142,0,7,,,,,,,,,7,,,47,0
44496,note_on,2,0,7,,,,,,,,,7,,,47,92
44496,note_on,336,0,2,,,,,,,,,1,,,65,0
44496,note_on,144,0,5,,,,,,,,,5,,,74,0
44496,note_on,336,0,4,,,,,,,,,3,,,47,0
44512,note_on,160,0,1,,,,,,,,,0,,,69,0
44512,note_on,160,0,3,,,,,,,,,2,,,62,0
44542,note_on,46,0,7,,,,,,,,,7,,,47,0
44544,note_on,32,0,1,,,,,,,,,0,,,69,92
44544,note_on,48,0,2,,,,,,,,,1,,,65,92
44544,note_on,2,0,7,,,,,,,,,7,,,48,92
44544,note_on,32,0,3,,,,,,,,,2,,,60,92
44544,note_on,48,0,5,,,,,,,,,5,,,72,92
44544,note_on,48,0,4,,,,,,,,,3,,,48,92
44686,note_on,0,0,5,,,,,,,,,5,,,81,0
44686,note_on,142,0,5,,,,,,,,,5,,,77,0
44686,note_on,142,0,7,,,,,,,,,7,,,48,0
44688,note_on,0,0,5,,,,,,,,,5,,,79,92
44688,note_on,2,0,5,,,,,,,,,5,,,76,92
44688,note_on,2,0,7,,,,,,,,,7,,,48,92
44734,note_on,0,0,5,,,,,,,,,5,,,79,0
44734,note_on,46,0,5,,,,,,,,,5,,,76,0
44734,note_on,46,0,7,,,,,,,,,7,,,48,0
44736,note_on,2,0,7,,,,,,,,,7,,,48,92
44736,note_on,2,0,5,,,,,,,,,5,,,77,92
44736,note_on,0,0,5,,,,,,,,,5,,,81,92
44878,note_on,0,0,5,,,,,,,,,5,,,81,0
44878,note_on,142,0,7,,,,,,,,,7,,,48,0
44878,note_on,142,0,5,,,,,,,,,5,,,77,0
44880,note_on,0,0,5,,,,,,,,,5,,,77,92
44880,note_on,2,0,5,,,,,,,,,5,,,74,92
44880,note_on,2,0,7,,,,,,,,,7,,,48,92
44926,note_on,0,0,5,,,,,,,,,5,,,77,0
44926,note_on,46,0,7,,,,,,,,,7,,,48,0
44926,note_on,46,0,5,,,,,,,,,5,,,74,0
44928,note_on,0,0,5,,,,,,,,,5,,,79,92
44928,note_on,2,0,7,,,,,,,,,7,,,48,92
44928,note_on,2,0,5,,,,,,,,,5,,,76,92
45070,note_on,142,0,5,,,,,,,,,5,,,76,0
45070,note_on,0,0,5,,,,,,,,,5,,,79,0
45070,note_on,142,0,7,,,,,,,,,7,,,48,0
45072,note_on,2,0,5,,,,,,,,,5,,,77,92
45072,note_on,528,0,1,,,,,,,,,0,,,69,0
45072,note_on,528,0,4,,,,,,,,,3,,,48,0
45072,note_on,0,0,5,,,,,,,,,5,,,81,92
45072,note_on,528,0,2,,,,,,,,,1,,,65,0
45072,note_on,528,0,3,,,,,,,,,2,,,60,0
45072,note_on,2,0,7,,,,,,,,,7,,,48,92
45118,note_on,46,0,7,,,,,,,,,7,,,48,0
45118,note_on,46,0,5,,,,,,,,,5,,,77,0
45118,note_on,0,0,5,,,,,,,,,5,,,81,0
45120,note_on,48,0,3,,,,,,,,,2,,,60,92
45120,note_on,48,0,4,,,,,,,,,3,,,48,92
45120,note_on,2,0,7,,,,,,,,,7,,,48,92
45120,note_on,48,0,1,,,,,,,,,0,,,67,92
45120,note_on,2,0,5,,,,,,,,,5,,,76,92
45120,note_on,48,0,2,,,,,,,,,1,,,64,92
45120,note_on,0,0,5,,,,,,,,,5,,,79,92
45262,note_on,142,0,5,,,,,,,,,5,,,76,0
45262,note_on,0,0,5,,,,,,,,,5,,,79,0
45262,note_on,142,0,7,,,,,,,,,7,,,48,0
45264,note_on,2,0,5,,,,,,,,,5,,,74,92
45264,note_on,0,0,5,,,,,,,,,5,,,77,92
45264,note_on,2,0,7,,,,,,,,,7,,,48,92
45310,note_on,46,0,5,,,,,,,,,5,,,74,0
45310,note_on,46,0,7,,,,,,,,,7,,,48,0
45310,note_on,0,0,5,,,,,,,,,5,,,77,0
45312,note_on,2,0,7,,,,,,,,,7,,,48,92
45312,note_on,2,0,5,,,,,,,,,5,,,76,92
45312,note_on,0,0,5,,,,,,,,,5,,,79,92
45454,note_on,0,0,5,,,,,,,,,5,,,79,0
45454,note_on,142,0,7,,,,,,,,,7,,,48,0
45454,note_on,142,0,5,,,,,,,,,5,,,76,0
45456,note_on,2,0,5,,,,,,,,,5,,,72,92
45456,note_on,2,0,7,,,,,,,,,7,,,48,92
45456,note_on,0,0,5,,,,,,,,,5,,,76,92
45502,note_on,0,0,5,,,,,,,,,5,,,76,0
45502,note_on,46,0,5,,,,,,,,,5,,,72,0
45502,note_on,46,0,7,,,,,,,,,7,,,48,0
45504,note_on,2,0,5,,,,,,,,,5,,,74,92
45504,note_on,2,0,7,,,,,,,,,7,,,48,92
45504,note_on,0,0,5,,,,,,,,,5,,,77,92
45646,note_on,142,0,5,,,,,,,,,5,,,74,0
45646,note_on,0,0,5,,,,,,,,,5,,,77,0
45646,note_on,142,0,7,,,,,,,,,7,,,48,0
45648,note_on,528,0,2,,,,,,,,,1,,,64,0
45648,note_on,528,0,1,,,,,,,,,0,,,67,0
45648,note_on,0,0,5,,,,,,,,,5,,,79,92
45648,note_on,0,0,5,,,,,,,,,5,,,76,92
45648,note_on,528,0,4,,,,,,,,,3,,,48,0
45648,note_on,2,0,7,,,,,,,,,7,,,48,92
45648,note_on,528,0,3,,,,,,,,,2,,,60,0
45648,note_on,2,0,5,,,,,,,,,5,,,72,0
45694,note_on,46,0,5,,,,,,,,,5,,,76,0
45694,note_on,0,0,5,,,,,,,,,5,,,79,0
45694,note_on,46,0,7,,,,,,,,,7,,,48,0
45696,note_on,1760,0,6,,,,,,,,,6,,,60,108
45696,note_on,2,0,7,,,,,,,,,7,,,53,108
45696,note_on,48,0,4,,,,,,,,,3,,,53,108
45696,note_on,0,0,5,,,,,,,,,5,,,81,108
45696,note_on,2,0,5,,,,,,,,,5,,,77,108
45696,note_on,48,0,2,,,,,,,,,1,,,69,108
45696,note_on,48,0,3,,,,,,,,,2,,,60,108
45838,note_on,142,0,7,,,,,,,,,7,,,53,0
45838,note_on,142,0,5,,,,,,,,,5,,,81,0
45840,note_on,2,0,5,,,,,,,,,5,,,82,108
45840,note_on,0,0,2,,,,,,,,,1,,,70,108
45840,note_on,2,0,7,,,,,,,,,7,,,53,108
45840,note_on,144,0,2,,,,,,,,,1,,,69,0
45856,note_on,160,0,3,,,,,,,,,2,,,60,0
45856,note_on,160,0,4,,,,,,,,,3,,,53,0
45856,note_on,16,0,5,,,,,,,,,5,,,77,0
45856,note_on,160,0,6,,,,,,,,,6,,,60,0
45886,note_on,30,0,5,,,,,,,,,5,,,82,0
45886,note_on,46,0,7,,,,,,,,,7,,,53,0
45888,note_on,32,0,3,,,,,,,,,2,,,57,108
45888,note_on,32,0,6,,,,,,,,,6,,,57,108
45888,note_on,0,0,2,,,,,,,,,1,,,69,108
45888,note_on,48,0,2,,,,,,,,,1,,,70,0
45888,note_on,2,0,5,,,,,,,,,5,,,74,108
45888,note_on,240,0,1,,,,,,,,,0,,,74,108
45888,note_on,0,0,5,,,,,,,,,5,,,81,108
45888,note_on,32,0,4,,,,,,,,,3,,,53,108
45888,note_on,2,0,7,,,,,,,,,7,,,53,108
46030,note_on,142,0,5,,,,,,,,,5,,,81,0
46030,note_on,142,0,7,,,,,,,,,7,,,53,0
46032,note_on,144,0,2,,,,,,,,,1,,,69,0
46032,note_on,0,0,2,,,,,,,,,1,,,67,108
46032,note_on,2,0,7,,,,,,,,,7,,,53,108
46032,note_on,2,0,5,,,,,,,,,5,,,79,108
46048,note_on,160,0,6,,,,,,,,,6,,,57,0
46078,note_on,46,0,7,,,,,,,,,7,,,53,0
46078,note_on,46,0,5,,,,,,,,,5,,,79,0
46080,note_on,32,0,6,,,,,,,,,6,,,53,108
46080,note_on,2,0,7,,,,,,,,,7,,,53,108
46080,note_on,48,0,2,,,,,,,,,1,,,67,0
46080,note_on,0,0,2,,,,,,,,,1,,,69,108
46080,note_on,2,0,5,,,,,,,,,5,,,81,108
46144,note_on,256,0,4,,,,,,,,,3,,,53,0
46144,note_on,256,0,3,,,,,,,,,2,,,57,0
46176,note_on,32,0,4,,,,,,,,,3,,,53,108
46176,note_on,32,0,3,,,,,,,,,2,,,57,108
46222,note_on,142,0,5,,,,,,,,,5,,,81,0
46222,note_on,142,0,7,,,,,,,,,7,,,53,0
46224,note_on,144,0,2,,,,,,,,,1,,,69,0
46224,note_on,2,0,5,,,,,,,,,5,,,77,108
46224,note_on,2,0,7,,,,,,,,,7,,,53,108
46224,note_on,0,0,2,,,,,,,,,1,,,65,108
46240,note_on,160,0,6,,,,,,,,,6,,,53,0
46270,note_on,94,0,3,,,,,,,,,2,,,57,0
46270,note_on,46,0,7,,,,,,,,,7,,,53,0
46270,note_on,94,0,4,,,,,,,,,3,,,53,0
46270,note_on,46,0,5,,,,,,,,,5,,,77,0
46272,note_on,48,0,2,,,,,,,,,1,,,65,0
46272,note_on,2,0,7,,,,,,,,,7,,,52,108
46272,note_on,2,0,5,,,,,,,,,5,,,79,108
46272,note_on,2,0,4,,,,,,,,,3,,,52,108
46272,note_on,32,0,6,,,,,,,,,6,,,58,108
46272,note_on,2,0,3,,,,,,,,,2,,,58,108
46272,note_on,0,0,2,,,,,,,,,1,,,67,108
46414,note_on,142,0,5,,,,,,,,,5,,,79,0
46414,note_on,142,0,7,,,,,,,,,7,,,52,0
46416,note_on,144,0,2,,,,,,,,,1,,,67,0
46416,note_on,2,0,5,,,,,,,,,5,,,81,108
46416,note_on,2,0,7,,,,,,,,,7,,,52,108
46416,note_on,0,0,2,,,,,,,,,1,,,69,108
46432,note_on,160,0,4,,,,,,,,,3,,,52,0
46432,note_on,16,0,5,,,,,,,,,5,,,74,0
46432,note_on,160,0,6,,,,,,,,,6,,,58,0
46432,note_on,160,0,3,,,,,,,,,2,,,58,0
46462,note_on,46,0,7,,,,,,,,,7,,,52,0
46462,note_on,30,0,5,,,,,,,,,5,,,81,0
46464,note_on,0,0,2,,,,,,,,,1,,,67,108
46464,note_on,48,0,2,,,,,,,,,1,,,69,0
46464,note_on,2,0,7,,,,,,,,,7,,,52,108
46464,note_on,32,0,6,,,,,,,,,6,,,55,108
46464,note_on,576,0,1,,,,,,,,,0,,,74,0
46464,note_on,0,0,1,,,,,,,,,0,,,72,108
46464,note_on,0,0,5,,,,,,,,,5,,,79,108
46464,note_on,2,0,5,,,,,,,,,5,,,72,108
46464,note_on,32,0,4,,,,,,,,,3,,,52,108
46464,note_on,32,0,3,,,,,,,,,2,,,55,108
46606,note_on,142,0,7,,,,,,,,,7,,,52,0
46606,note_on,142,0,5,,,,,,,,,5,,,79,0
46608,note_on,2,0,7,,,,,,,,,7,,,52,108
46608,note_on,0,0,2,,,,,,,,,1,,,65,108
46608,note_on,144,0,2,,,,,,,,,1,,,67,0
46608,note_on,2,0,5,,,,,,,,,5,,,77,108
46624,note_on,160,0,6,,,,,,,,,6,,,55,0
46654,note_on,46,0,7,,,,,,,,,7,,,52,0
46654,note_on,46,0,5,,,,,,,,,5,,,77,0
46656,note_on,48,0,2,,,,,,,,,1,,,65,0
46656,note_on,2,0,5,,,,,,,,,5,,,79,108
46656,note_on,2,0,7,,,,,,,,,7,,,52,108
46656,note_on,32,0,6,,,,,,,,,6,,,52,108
46656,note_on,0,0,2,,,,,,,,,1,,,67,108
46798,note_on,142,0,7,,,,,,,,,7,,,52,0
46798,note_on,142,0,5,,,,,,,,,5,,,79,0
46800,note_on,144,0,2,,,,,,,,,1,,,67,0
46800,note_on,2,0,7,,,,,,,,,7,,,52,108
46800,note_on,2,0,5,,,,,,,,,5,,,76,108
46800,note_on,0,0,2,,,,,,,,,1,,,64,108
46800,note_on,336,0,3,,,,,,,,,2,,,55,0
46800,note_on,336,0,4,,,,,,,,,3,,,52,0
46816,note_on,160,0,6,,,,,,,,,6,,,52,0
46846,note_on,46,0,5,,,,,,,,,5,,,76,0
46846,note_on,46,0,7,,,,,,,,,7,,,52,0
46848,note_on,2,0,5,,,,,,,,,5,,,77,108
46848,note_on,32,0,6,,,,,,,,,6,,,57,108
46848,note_on,0,0,2,,,,,,,,,1,,,65,108
46848,note_on,48,0,2,,,,,,,,,1,,,64,0
46848,note_on,48,0,4,,,,,,,,,3,,,50,108
46848,note_on,48,0,3,,,,,,,,,2,,,57,108
46848,note_on,2,0,7,,,,,,,,,7,,,50,108
46990,note_on,142,0,7,,,,,,,,,7,,,50,0
46990,note_on,142,0,5,,,,,,,,,5,,,77,0
46992,note_on,2,0,7,,,,,,,,,7,,,50,108
46992,note_on,0,0,2,,,,,,,,,1,,,67,108
46992,note_on,144,0,2,,,,,,,,,1,,,65,0
46992,note_on,2,0,5,,,,,,,,,5,,,79,108
47008,note_on,16,0,5,,,,,,,,,5,,,72,0
47008,note_on,160,0,4,,,,,,,,,3,,,50,0
47008,note_on,160,0,6,,,,,,,,,6,,,57,0
47008,note_on,160,0,3,,,,,,,,,2,,,57,0
47038,note_on,46,0,7,,,,,,,,,7,,,50,0
47038,note_on,30,0,5,,,,,,,,,5,,,79,0
47040,note_on,0,0,5,,,,,,,,,5,,,77,108
47040,note_on,2,0,7,,,,,,,,,7,,,50,108
47040,note_on,32,0,6,,,,,,,,,6,,,53,108
47040,note_on,32,0,4,,,,,,,,,3,,,50,108
47040,note_on,576,0,1,,,,,,,,,0,,,72,0
47040,note_on,0,0,1,,,,,,,,,0,,,70,108
47040,note_on,32,0,3,,,,,,,,,2,,,53,108
47040,note_on,2,0,5,,,,,,,,,5,,,70,108
47040,note_on,48,0,2,,,,,,,,,1,,,67,0
47040,note_on,0,0,2,,,,,,,,,1,,,65,108
47182,note_on,142,0,7,,,,,,,,,7,,,50,0
47182,note_on,142,0,5,,,,,,,,,5,,,77,0
47184,note_on,0,0,2,,,,,,,,,1,,,64,108
47184,note_on,144,0,2,,,,,,,,,1,,,65,0
47184,note_on,2,0,5,,,,,,,,,5,,,76,108
47184,note_on,2,0,7,,,,,,,,,7,,,50,108
47200,note_on,160,0,6,,,,,,,,,6,,,53,0
47230,note_on,46,0,7,,,,,,,,,7,,,50,0
47230,note_on,46,0,5,,,,,,,,,5,,,76,0
47232,note_on,2,0,5,,,,,,,,,5,,,77,108
47232,note_on,32,0,6,,,,,,,,,6,,,50,108
47232,note_on,2,0,7,,,,,,,,,7,,,50,108
47232,note_on,48,0,2,,,,,,,,,1,,,64,0
47232,note_on,0,0,2,,,,,,,,,1,,,65,108
47374,note_on,142,0,7,,,,,,,,,7,,,50,0
47374,note_on,142,0,5,,,,,,,,,5,,,77,0
47376,note_on,336,0,4,,,,,,,,,3,,,50,0
47376,note_on,336,0,3,,,,,,,,,2,,,53,0
47376,note_on,2,0,5,,,,,,,,,5,,,74,108
47376,note_on,144,0,2,,,,,,,,,1,,,65,0
47376,note_on,2,0,7,,,,,,,,,7,,,50,108
47376,note_on,0,0,2,,,,,,,,,1,,,62,108
47392,note_on,160,0,6,,,,,,,,,6,,,50,0
47422,note_on,46,0,7,,,,,,,,,7,,,50,0
47422,note_on,46,0,5,,,,,,,,,5,,,74,0
47424,note_on,2,0,7,,,,,,,,,7,,,48,108
47424,note_on,48,0,2,,,,,,,,,1,,,62,0
47424,note_on,32,0,6,,,,,,,,,6,,,55,108
47424,note_on,2,0,5,,,,,,,,,5,,,76,108
47424,note_on,48,0,3,,,,,,,,,2,,,55,108
47424,note_on,48,0,4,,,,,,,,,3,,,48,108
47424,note_on,0,0,2,,,,,,,,,1,,,64,108
47566,note_on,142,0,5,,,,,,,,,5,,,76,0
47566,note_on,142,0,7,,,,,,,,,7,,,48,0
47568,note_on,2,0,7,,,,,,,,,7,,,48,108
47568,note_on,2,0,5,,,,,,,,,5,,,77,108
47584,note_on,160,0,6,,,,,,,,,6,,,55,0
47584,note_on,160,0,3,,,,,,,,,2,,,55,0
47614,note_on,46,0,7,,,,,,,,,7,,,48,0
47614,note_on,46,0,5,,,,,,,,,5,,,77,0
47616,note_on,32,0,3,,,,,,,,,2,,,64,108
47616,note_on,0,0,5,,,,,,,,,5,,,79,108
47616,note_on,2,0,5,,,,,,,,,5,,,76,108
47616,note_on,2,0,7,,,,,,,,,7,,,48,108
47680,note_on,256,0,4,,,,,,,,,3,,,48,0
47712,note_on,32,0,4,,,,,,,,,3,,,48,108
47758,note_on,142,0,7,,,,,,,,,7,,,48,0
47758,note_on,142,0,5,,,,,,,,,5,,,79,0
47760,note_on,336,0,2,,,,,,,,,1,,,64,0
47760,note_on,0,0,5,,,,,,,,,5,,,76,108
47760,note_on,2,0,5,,,,,,,,,5,,,70,0
47760,note_on,720,0,1,,,,,,,,,0,,,70,0
47760,note_on,2,0,7,,,,,,,,,7,,,48,108
47776,note_on,16,0,5,,,,,,,,,5,,,76,0
47776,note_on,160,0,3,,,,,,,,,2,,,64,0
47806,note_on,46,0,7,,,,,,,,,7,,,48,0
47806,note_on,30,0,5,,,,,,,,,5,,,76,0
47806,note_on,94,0,4,,,,,,,,,3,,,48,0
47808,note_on,0,0,5,,,,,,,,,5,,,72,108
47808,note_on,48,0,2,,,,,,,,,1,,,65,108
47808,note_on,2,0,7,,,,,,,,,7,,,53,108
47808,note_on,2,0,5,,,,,,,,,5,,,69,108
47808,note_on,48,0,1,,,,,,,,,0,,,69,108
47808,note_on,2,0,4,,,,,,,,,3,,,53,108
47808,note_on,0,0,5,,,,,,,,,5,,,77,108
47808,note_on,32,0,3,,,,,,,,,2,,,60,108
47950,note_on,142,0,7,,,,,,,,,7,,,53,0
47952,note_on,2,0,7,,,,,,,,,7,,,53,108
47968,note_on,160,0,3,,,,,,,,,2,,,60,0
47968,note_on,160,0,4,,,,,,,,,3,,,53,0
47968,note_on,160,0,5,,,,,,,,,5,,,72,0
47998,note_on,46,0,7,,,,,,,,,7,,,53,0
48000,note_on,2,0,7,,,,,,,,,7,,,46,108
48000,note_on,32,0,4,,,,,,,,,3,,,46,108
48000,note_on,32,0,3,,,,,,,,,2,,,62,108
48000,note_on,32,0,5,,,,,,,,,5,,,74,108
48142,note_on,142,0,3,,,,,,,,,2,,,62,0
48142,note_on,142,0,7,,,,,,,,,7,,,46,0
48142,note_on,142,0,5,,,,,,,,,5,,,77,0
48142,note_on,142,0,4,,,,,,,,,3,,,46,0
48144,note_on,2,0,5,,,,,,,,,5,,,79,108
48144,note_on,2,0,3,,,,,,,,,2,,,62,108
48144,note_on,2,0,4,,,,,,,,,3,,,46,108
48144,note_on,2,0,7,,,,,,,,,7,,,46,108
48160,note_on,352,0,1,,,,,,,,,0,,,69,0
48160,note_on,352,0,2,,,,,,,,,1,,,65,0
48160,note_on,16,0,5,,,,,,,,,5,,,69,0
48160,note_on,0,0,5,,,,,,,,,5,,,74,0
48190,note_on,46,0,7,,,,,,,,,7,,,46,0
48190,note_on,30,0,5,,,,,,,,,5,,,79,0
48190,note_on,46,0,3,,,,,,,,,2,,,62,0
48190,note_on,46,0,4,,,,,,,,,3,,,46,0
48192,note_on,2,0,7,,,,,,,,,7,,,48,108
48192,note_on,2,0,5,,,,,,,,,5,,,67,108
48192,note_on,0,0,5,,,,,,,,,5,,,76,108
48192,note_on,2,0,3,,,,,,,,,2,,,55,92
48192,note_on,2,0,4,,,,,,,,,3,,,48,92
48192,note_on,32,0,1,,,,,,,,,0,,,67,92
48192,note_on,32,0,2,,,,,,,,,1,,,64,92
48334,note_on,142,0,5,,,,,,,,,5,,,67,0
48334,note_on,0,0,5,,,,,,,,,5,,,76,0
48334,note_on,142,0,7,,,,,,,,,7,,,48,0
48336,note_on,0,0,5,,,,,,,,,5,,,77,108
48336,note_on,2,0,5,,,,,,,,,5,,,69,108
48336,note_on,2,0,7,,,,,,,,,7,,,48,108
48382,note_on,46,0,5,,,,,,,,,5,,,69,0
48382,note_on,46,0,7,,,,,,,,,7,,,48,0
48382,note_on,0,0,5,,,,,,,,,5,,,77,0
48384,note_on,2,0,7,,,,,,,,,7,,,48,108
48384,note_on,2,0,5,,,,,,,,,5,,,70,108
48384,note_on,0,0,3,,,,,,,,,2,,,60,92
48384,note_on,0,0,5,,,,,,,,,5,,,79,108
48384,note_on,0,0,5,,,,,,,,,5,,,72,108
48384,note_on,192,0,3,,,,,,,,,2,,,55,0
48526,note_on,0,0,5,,,,,,,,,5,,,72,0
48526,note_on,0,0,5,,,,,,,,,5,,,79,0
48526,note_on,142,0,7,,,,,,,,,7,,,48,0
48526,note_on,142,0,5,,,,,,,,,5,,,70,0
48528,note_on,2,0,7,,,,,,,,,7,,,48,108
48528,note_on,336,0,1,,,,,,,,,0,,,67,0
48528,note_on,0,0,5,,,,,,,,,5,,,72,108
48528,note_on,0,0,5,,,,,,,,,5,,,76,108
48528,note_on,336,0,4,,,,,,,,,3,,,48,0
48528,note_on,2,0,5,,,,,,,,,5,,,67,108
48528,note_on,336,0,2,,,,,,,,,1,,,64,0
48544,note_on,160,0,3,,,,,,,,,2,,,60,0
48574,note_on,0,0,5,,,,,,,,,5,,,72,0
48574,note_on,0,0,5,,,,,,,,,5,,,76,0
48574,note_on,46,0,7,,,,,,,,,7,,,48,0
48574,note_on,46,0,5,,,,,,,,,5,,,67,0
48576,note_on,2,0,5,,,,,,,,,5,,,69,92
48576,note_on,0,0,5,,,,,,,,,5,,,72,92
48576,note_on,0,0,5,,,,,,,,,5,,,77,92
48576,note_on,48,0,2,,,,,,,,,1,,,65,75
48576,note_on,48,0,1,,,,,,,,,0,,,69,75
48576,note_on,2,0,7,,,,,,,,,7,,,41,92
48576,note_on,48,0,4,,,,,,,,,3,,,53,75
48576,note_on,32,0,3,,,,,,,,,2,,,60,75
48718,note_on,142,0,7,,,,,,,,,7,,,41,0
48720,note_on,2,0,7,,,,,,,,,7,,,41,92
48736,note_on,0,0,5,,,,,,,,,5,,,77,0
48736,note_on,0,0,5,,,,,,,,,5,,,72,0
48736,note_on,160,0,5,,,,,,,,,5,,,69,0
48766,note_on,46,0,7,,,,,,,,,7,,,41,0
48768,note_on,0,0,5,,,,,,,,,5,,,81,92
48768,note_on,0,0,5,,,,,,,,,5,,,77,92
48768,note_on,32,0,5,,,,,,,,,5,,,72,92
48768,note_on,2,0,7,,,,,,,,,7,,,41,92
48910,note_on,142,0,7,,,,,,,,,7,,,41,0
48910,note_on,0,0,5,,,,,,,,,5,,,81,0
48910,note_on,142,0,5,,,,,,,,,5,,,77,0
48912,note_on,2,0,5,,,,,,,,,5,,,79,75
48912,note_on,0,0,5,,,,,,,,,5,,,82,75
48912,note_on,2,0,7,,,,,,,,,7,,,41,75
48958,note_on,46,0,5,,,,,,,,,5,,,79,0
48958,note_on,46,0,7,,,,,,,,,7,,,41,0
48958,note_on,0,0,5,,,,,,,,,5,,,82,0
48960,note_on,2,0,5,,,,,,,,,5,,,81,75
48960,note_on,0,0,5,,,,,,,,,5,,,84,75
48960,note_on,2,0,7,,,,,,,,,7,,,41,75
49102,note_on,0,0,5,,,,,,,,,5,,,84,0
49102,note_on,142,0,5,,,,,,,,,5,,,81,0
49102,note_on,142,0,7,,,,,,,,,7,,,41,0
49104,note_on,528,0,2,,,,,,,,,1,,,65,0
49104,note_on,528,0,1,,,,,,,,,0,,,69,0
49104,note_on,0,0,5,,,,,,,,,5,,,79,75
49104,note_on,0,0,5,,,,,,,,,5,,,82,75
49104,note_on,2,0,7,,,,,,,,,7,,,41,75
49104,note_on,528,0,3,,,,,,,,,2,,,60,0
49104,note_on,2,0,5,,,,,,,,,5,,,72,0
49104,note_on,528,0,4,,,,,,,,,3,,,53,0
49150,note_on,46,0,5,,,,,,,,,5,,,79,0
49150,note_on,0,0,5,,,,,,,,,5,,,82,0
49150,note_on,46,0,7,,,,,,,,,7,,,41,0
49152,note_on,0,0,5,,,,,,,,,5,,,81,75
49152,note_on,48,0,3,,,,,,,,,2,,,60,60
49152,note_on,48,0,2,,,,,,,,,1,,,69,60
49152,note_on,48,0,4,,,,,,,,,3,,,53,60
49152,note_on,2,0,7,,,,,,,,,7,,,53,75
49152,note_on,2,0,5,,,,,,,,,5,,,77,75
49152,note_on,1568,0,6,,,,,,,,,6,,,60,75
49294,note_on,142,0,7,,,,,,,,,7,,,53,0
49294,note_on,142,0,5,,,,,,,,,5,,,81,0
49296,note_on,2,0,7,,,,,,,,,7,,,53,75
49296,note_on,0,0,2,,,,,,,,,1,,,70,60
49296,note_on,144,0,2,,,,,,,,,1,,,69,0
49296,note_on,2,0,5,,,,,,,,,5,,,82,75
49312,note_on,160,0,3,,,,,,,,,2,,,60,0
49312,note_on,16,0,5,,,,,,,,,5,,,77,0
49312,note_on,160,0,4,,,,,,,,,3,,,53,0
49312,note_on,160,0,6,,,,,,,,,6,,,60,0
49342,note_on,46,0,7,,,,,,,,,7,,,53,0
49342,note_on,30,0,5,,,,,,,,,5,,,82,0
49344,note_on,48,0,2,,,,,,,,,1,,,70,0
49344,note_on,0,0,2,,,,,,,,,1,,,69,60
49344,note_on,0,0,5,,,,,,,,,5,,,81,75
49344,note_on,32,0,3,,,,,,,,,2,,,57,60
49344,note_on,240,0,1,,,,,,,,,0,,,74,60
49344,note_on,32,0,4,,,,,,,,,3,,,53,60
49344,note_on,32,0,6,,,,,,,,,6,,,57,75
49344,note_on,2,0,7,,,,,,,,,7,,,53,75
49344,note_on,2,0,5,,,,,,,,,5,,,74,75
49486,note_on,142,0,7,,,,,,,,,7,,,53,0
49486,note_on,142,0,5,,,,,,,,,5,,,81,0
49488,note_on,0,0,2,,,,,,,,,1,,,67,60
49488,note_on,2,0,7,,,,,,,,,7,,,53,75
49488,note_on,2,0,5,,,,,,,,,5,,,79,75
49488,note_on,144,0,2,,,,,,,,,1,,,69,0
49504,note_on,160,0,6,,,,,,,,,6,,,57,0
49534,note_on,46,0,7,,,,,,,,,7,,,53,0
49534,note_on,46,0,5,,,,,,,,,5,,,79,0
49536,note_on,2,0,7,,,,,,,,,7,,,53,75
49536,note_on,0,0,2,,,,,,,,,1,,,69,60
49536,note_on,32,0,6,,,,,,,,,6,,,53,75
49536,note_on,2,0,5,,,,,,,,,5,,,81,75
49536,note_on,48,0,2,,,,,,,,,1,,,67,0
49600,note_on,256,0,4,,,,,,,,,3,,,53,0
49600,note_on,256,0,3,,,,,,,,,2,,,57,0
49632,note_on,32,0,3,,,,,,,,,2,,,57,60
49632,note_on,32,0,4,,,,,,,,,3,,,53,60
49678,note_on,142,0,7,,,,,,,,,7,,,53,0
49678,note_on,142,0,5,,,,,,,,,5,,,81,0
49680,note_on,144,0,2,,,,,,,,,1,,,69,0
49680,note_on,0,0,2,,,,,,,,,1,,,65,60
49680,note_on,2,0,7,,,,,,,,,7,,,53,75
49680,note_on,2,0,5,,,,,,,,,5,,,77,75
49696,note_on,160,0,6,,,,,,,,,6,,,53,0
49726,note_on,94,0,3,,,,,,,,,2,,,57,0
49726,note_on,94,0,4,,,,,,,,,3,,,53,0
49726,note_on,46,0,7,,,,,,,,,7,,,53,0
49726,note_on,46,0,5,,,,,,,,,5,,,77,0
49728,note_on,2,0,5,,,,,,,,,5,,,79,75
49728,note_on,32,0,6,,,,,,,,,6,,,58,75
49728,note_on,2,0,7,,,,,,,,,7,,,52,75
49728,note_on,2,0,4,,,,,,,,,3,,,52,60
49728,note_on,0,0,2,,,,,,,,,1,,,67,60
49728,note_on,2,0,3,,,,,,,,,2,,,58,60
49728,note_on,48,0,2,,,,,,,,,1,,,65,0
49870,note_on,142,0,5,,,,,,,,,5,,,79,0
49870,note_on,142,0,7,,,,,,,,,7,,,52,0
49872,note_on,144,0,2,,,,,,,,,1,,,67,0
49872,note_on,0,0,2,,,,,,,,,1,,,69,60
49872,note_on,2,0,5,,,,,,,,,5,,,81,75
49872,note_on,2,0,7,,,,,,,,,7,,,52,75
49888,note_on,16,0,5,,,,,,,,,5,,,74,0
49888,note_on,160,0,4,,,,,,,,,3,,,52,0
49888,note_on,160,0,3,,,,,,,,,2,,,58,0
49888,note_on,160,0,6,,,,,,,,,6,,,58,0
49918,note_on,46,0,7,,,,,,,,,7,,,52,0
49918,note_on,30,0,5,,,,,,,,,5,,,81,0
49920,note_on,0,0,2,,,,,,,,,1,,,67,60
49920,note_on,0,0,5,,,,,,,,,5,,,79,75
49920,note_on,48,0,2,,,,,,,,,1,,,69,0
49920,note_on,0,0,1,,,,,,,,,0,,,72,60
49920,note_on,32,0,3,,,,,,,,,2,,,55,60
49920,note_on,32,0,6,,,,,,,,,6,,,55,75
49920,note_on,576,0,1,,,,,,,,,0,,,74,0
49920,note_on,32,0,4,,,,,,,,,3,,,52,60
49920,note_on,2,0,5,,,,,,,,,5,,,72,75
49920,note_on,2,0,7,,,,,,,,,7,,,52,75
50062,note_on,142,0,7,,,,,,,,,7,,,52,0
50062,note_on,142,0,5,,,,,,,,,5,,,79,0
50064,note_on,0,0,2,,,,,,,,,1,,,65,60
50064,note_on,2,0,5,,,,,,,,,5,,,77,75
50064,note_on,2,0,7,,,,,,,,,7,,,52,75
50064,note_on,144,0,2,,,,,,,,,1,,,67,0
50080,note_on,160,0,6,,,,,,,,,6,,,55,0
50110,note_on,46,0,5,,,,,,,,,5,,,77,0
50110,note_on,46,0,7,,,,,,,,,7,,,52,0
50112,note_on,2,0,5,,,,,,,,,5,,,79,75
50112,note_on,48,0,2,,,,,,,,,1,,,65,0
50112,note_on,0,0,2,,,,,,,,,1,,,67,60
50112,note_on,32,0,6,,,,,,,,,6,,,52,75
50112,note_on,2,0,7,,,,,,,,,7,,,52,75
50254,note_on,142,0,5,,,,,,,,,5,,,79,0
50254,note_on,142,0,7,,,,,,,,,7,,,52,0
50256,note_on,2,0,5,,,,,,,,,5,,,76,75
50256,note_on,144,0,2,,,,,,,,,1,,,67,0
50256,note_on,336,0,4,,,,,,,,,3,,,52,0
50256,note_on,2,0,7,,,,,,,,,7,,,52,75
50256,note_on,0,0,2,,,,,,,,,1,,,64,60
50256,note_on,336,0,3,,,,,,,,,2,,,55,0
50272,note_on,160,0,6,,,,,,,,,6,,,52,0
50302,note_on,46,0,5,,,,,,,,,5,,,76,0
50302,note_on,46,0,7,,,,,,,,,7,,,52,0
50304,note_on,2,0,5,,,,,,,,,5,,,77,75
50304,note_on,32,0,6,,,,,,,,,6,,,57,75
50304,note_on,48,0,2,,,,,,,,,1,,,64,0
50304,note_on,48,0,4,,,,,,,,,3,,,50,60
50304,note_on,2,0,7,,,,,,,,,7,,,50,75
50304,note_on,48,0,3,,,,,,,,,2,,,57,60
50304,note_on,0,0,2,,,,,,,,,1,,,65,60
50446,note_on,142,0,7,,,,,,,,,7,,,50,0
50446,note_on,142,0,5,,,,,,,,,5,,,77,0
50448,note_on,144,0,2,,,,,,,,,1,,,65,0
50448,note_on,0,0,2,,,,,,,,,1,,,67,60
50448,note_on,2,0,7,,,,,,,,,7,,,50,75
50448,note_on,2,0,5,,,,,,,,,5,,,79,75
50464,note_on,160,0,6,,,,,,,,,6,,,57,0
50464,note_on,16,0,5,,,,,,,,,5,,,72,0
50464,note_on,160,0,4,,,,,,,,,3,,,50,0
50464,note_on,160,0,3,,,,,,,,,2,,,57,0
50494,note_on,46,0,7,,,,,,,,,7,,,50,0
50494,note_on,30,0,5,,,,,,,,,5,,,79,0
50496,note_on,32,0,4,,,,,,,,,3,,,50,60
50496,note_on,2,0,7,,,,,,,,,7,,,50,75
50496,note_on,0,0,5,,,,,,,,,5,,,77,75
50496,note_on,32,0,6,,,,,,,,,6,,,53,75
50496,note_on,32,0,3,,,,,,,,,2,,,53,60
50496,note_on,48,0,2,,,,,,,,,1,,,67,0
50496,note_on,0,0,2,,,,,,,,,1,,,65,60
50496,note_on,0,0,1,,,,,,,,,0,,,70,60
50496,note_on,576,0,1,,,,,,,,,0,,,72,0
50496,note_on,2,0,5,,,,,,,,,5,,,70,75
50638,note_on,142,0,7,,,,,,,,,7,,,50,0
50638,note_on,142,0,5,,,,,,,,,5,,,77,0
50640,note_on,2,0,7,,,,,,,,,7,,,50,75
50640,note_on,0,0,2,,,,,,,,,1,,,64,60
50640,note_on,144,0,2,,,,,,,,,1,,,65,0
50640,note_on,2,0,5,,,,,,,,,5,,,76,75
50656,note_on,160,0,6,,,,,,,,,6,,,53,0
50686,note_on,46,0,7,,,,,,,,,7,,,50,0
50686,note_on,46,0,5,,,,,,,,,5,,,76,0
50688,note_on,2,0,5,,,,,,,,,5,,,77,75
50688,note_on,0,0,2,,,,,,,,,1,,,65,60
50688,note_on,48,0,2,,,,,,,,,1,,,64,0
50688,note_on,32,0,6,,,,,,,,,6,,,50,75
50688,note_on,2,0,7,,,,,,,,,7,,,50,75
50830,note_on,142,0,7,,,,,,,,,7,,,50,0
50830,note_on,142,0,5,,,,,,,,,5,,,77,0
50832,note_on,2,0,5,,,,,,,,,5,,,74,75
50832,note_on,2,0,7,,,,,,,,,7,,,50,75
50832,note_on,336,0,3,,,,,,,,,2,,,53,0
50832,note_on,336,0,4,,,,,,,,,3,,,50,0
50832,note_on,0,0,2,,,,,,,,,1,,,62,60
50832,note_on,144,0,2,,,,,,,,,1,,,65,0
50848,note_on,160,0,6,,,,,,,,,6,,,50,0
50878,note_on,46,0,5,,,,,,,,,5,,,74,0
50878,note_on,46,0,7,,,,,,,,,7,,,50,0
50880,note_on,2,0,5,,,,,,,,,5,,,76,75
50880,note_on,2,0,7,,,,,,,,,7,,,48,75
50880,note_on,48,0,3,,,,,,,,,2,,,55,60
50880,note_on,0,0,2,,,,,,,,,1,,,64,60
50880,note_on,48,0,2,,,,,,,,,1,,,62,0
50880,note_on,32,0,6,,,,,,,,,6,,,55,75
50880,note_on,48,0,4,,,,,,,,,3,,,48,60
51022,note_on,142,0,5,,,,,,,,,5,,,76,0
51022,note_on,142,0,7,,,,,,,,,7,,,48,0
51024,note_on,2,0,5,,,,,,,,,5,,,77,75
51024,note_on,2,0,7,,,,,,,,,7,,,48,75
51040,note_on,160,0,6,,,,,,,,,6,,,55,0
51040,note_on,160,0,3,,,,,,,,,2,,,55,0
51070,note_on,46,0,5,,,,,,,,,5,,,77,0
51070,note_on,46,0,7,,,,,,,,,7,,,48,0
51072,note_on,2,0,5,,,,,,,,,5,,,76,75
51072,note_on,0,0,5,,,,,,,,,5,,,79,75
51072,note_on,32,0,3,,,,,,,,,2,,,64,60
51072,note_on,2,0,7,,,,,,,,,7,,,48,75
51136,note_on,256,0,4,,,,,,,,,3,,,48,0
51168,note_on,32,0,4,,,,,,,,,3,,,48,60
51214,note_on,142,0,7,,,,,,,,,7,,,48,0
51214,note_on,142,0,5,,,,,,,,,5,,,79,0
51216,note_on,336,0,2,,,,,,,,,1,,,64,0
51216,note_on,720,0,1,,,,,,,,,0,,,70,0
51216,note_on,2,0,7,,,,,,,,,7,,,48,75
51216,note_on,2,0,5,,,,,,,,,5,,,70,0
51216,note_on,0,0,5,,,,,,,,,5,,,76,75
51232,note_on,16,0,5,,,,,,,,,5,,,76,0
51232,note_on,160,0,3,,,,,,,,,2,,,64,0
51262,note_on,46,0,7,,,,,,,,,7,,,48,0
51262,note_on,30,0,5,,,,,,,,,5,,,76,0
51262,note_on,94,0,4,,,,,,,,,3,,,48,0
51264,note_on,48,0,2,,,,,,,,,1,,,65,60
51264,note_on,0,0,5,,,,,,,,,5,,,77,75
51264,note_on,0,0,5,,,,,,,,,5,,,72,75
51264,note_on,32,0,3,,,,,,,,,2,,,60,60
51264,note_on,2,0,7,,,,,,,,,7,,,53,75
51264,note_on,48,0,1,,,,,,,,,0,,,69,60
51264,note_on,2,0,5,,,,,,,,,5,,,69,75
51264,note_on,2,0,4,,,,,,,,,3,,,53,60
51406,note_on,142,0,7,,,,,,,,,7,,,53,0
51408,note_on,2,0,7,,,,,,,,,7,,,53,75
51424,note_on,160,0,4,,,,,,,,,3,,,53,0
51424,note_on,160,0,3,,,,,,,,,2,,,60,0
51424,note_on,160,0,5,,,,,,,,,5,,,72,0
51454,note_on,46,0,7,,,,,,,,,7,,,53,0
51456,note_on,32,0,5,,,,,,,,,5,,,74,75
51456,note_on,32,0,3,,,,,,,,,2,,,62,60
51456,note_on,2,0,7,,,,,,,,,7,,,46,75
51456,note_on,32,0,4,,,,,,,,,3,,,46,60
51598,note_on,142,0,7,,,,,,,,,7,,,46,0
51598,note_on,142,0,3,,,,,,,,,2,,,62,0
51598,note_on,142,0,4,,,,,,,,,3,,,46,0
51598,note_on,142,0,5,,,,,,,,,5,,,77,0
51600,note_on,2,0,3,,,,,,,,,2,,,62,60
51600,note_on,2,0,4,,,,,,,,,3,,,46,60
51600,note_on,2,0,5,,,,,,,,,5,,,79,75
51600,note_on,2,0,7,,,,,,,,,7,,,46,75
51616,note_on,16,0,5,,,,,,,,,5,,,69,0
51616,note_on,0,0,5,,,,,,,,,5,,,74,0
51616,note_on,352,0,2,,,,,,,,,1,,,65,0
51616,note_on,352,0,1,,,,,,,,,0,,,69,0
51646,note_on,46,0,4,,,,,,,,,3,,,46,0
51646,note_on,30,0,5,,,,,,,,,5,,,79,0
51646,note_on,46,0,3,,,,,,,,,2,,,62,0
51646,note_on,46,0,7,,,,,,,,,7,,,46,0
51648,note_on,2,0,4,,,,,,,,,3,,,48,60
51648,note_on,2,0,3,,,,,,,,,2,,,55,60
51648,note_on,2,0,5,,,,,,,,,5,,,67,75
51648,note_on,32,0,1,,,,,,,,,0,,,67,60
51648,note_on,0,0,5,,,,,,,,,5,,,76,75
51648,note_on,2,0,7,,,,,,,,,7,,,48,75
51648,note_on,32,0,2,,,,,,,,,1,,,64,60
51790,note_on,142,0,7,,,,,,,,,7,,,48,0
51790,note_on,142,0,5,,,,,,,,,5,,,67,0
51790,note_on,0,0,5,,,,,,,,,5,,,76,0
51792,note_on,2,0,5,,,,,,,,,5,,,69,75
51792,note_on,0,0,5,,,,,,,,,5,,,77,75
51792,note_on,2,0,7,,,,,,,,,7,,,48,75
51838,note_on,0,0,5,,,,,,,,,5,,,77,0
51838,note_on,46,0,5,,,,,,,,,5,,,69,0
51838,note_on,46,0,7,,,,,,,,,7,,,48,0
51840,note_on,0,0,5,,,,,,,,,5,,,72,75
51840,note_on,2,0,7,,,,,,,,,7,,,36,75
51840,note_on,0,0,5,,,,,,,,,5,,,79,75
51840,note_on,192,0,3,,,,,,,,,2,,,55,0
51840,note_on,0,0,3,,,,,,,,,2,,,60,60
51840,note_on,2,0,5,,,,,,,,,5,,,70,75
51982,note_on,142,0,7,,,,,,,,,7,,,36,0
51982,note_on,0,0,5,,,,,,,,,5,,,79,0
51982,note_on,0,0,5,,,,,,,,,5,,,72,0
51982,note_on,142,0,5,,,,,,,,,5,,,70,0
51984,note_on,336,0,2,,,,,,,,,1,,,64,0
51984,note_on,336,0,1,,,,,,,,,0,,,67,0
51984,note_on,336,0,4,,,,,,,,,3,,,48,0
51984,note_on,2,0,7,,,,,,,,,7,,,36,75
51984,note_on,0,0,5,,,,,,,,,5,,,76,75
51984,note_on,0,0,5,,,,,,,,,5,,,72,75
51984,note_on,2,0,5,,,,,,,,,5,,,67,75
52000,note_on,160,0,3,,,,,,,,,2,,,60,0
52030,note_on,0,0,5,,,,,,,,,5,,,76,0
52030,note_on,0,0,5,,,,,,,,,5,,,72,0
52030,note_on,46,0,7,,,,,,,,,7,,,36,0
52030,note_on,46,0,5,,,,,,,,,5,,,67,0
52032,note_on,0,0,5,,,,,,,,,5,,,72,75
52032,note_on,2,0,5,,,,,,,,,5,,,69,75
52032,note_on,0,0,5,,,,,,,,,5,,,77,75
52032,note_on,48,0,2,,,,,,,,,1,,,65,60
52032,note_on,2,0,7,,,,,,,,,7,,,41,75
52032,note_on,48,0,4,,,,,,,,,3,,,53,60
52032,note_on,32,0,3,,,,,,,,,2,,,60,60
52032,note_on,48,0,1,,,,,,,,,0,,,69,60
52174,note_on,142,0,7,,,,,,,,,7,,,41,0
52176,note_on,2,0,7,,,,,,,,,7,,,53,75
52192,note_on,160,0,5,,,,,,,,,5,,,69,0
52192,note_on,0,0,5,,,,,,,,,5,,,72,0
52192,note_on,0,0,5,,,,,,,,,5,,,77,0
52222,note_on,46,0,7,,,,,,,,,7,,,53,0
52224,note_on,2,0,7,,,,,,,,,7,,,53,92
52224,note_on,1184,0,6,,,,,,,,,6,,,57,92
52224,note_on,32,0,5,,,,,,,,,5,,,65,92
52366,note_on,142,0,6,,,,,,,,,6,,,57,0
52366,note_on,142,0,7,,,,,,,,,7,,,53,0
52366,note_on,142,0,5,,,,,,,,,5,,,65,0
52368,note_on,2,0,7,,,,,,,,,7,,,53,92
52368,note_on,2,0,5,,,,,,,,,5,,,67,92
52368,note_on,2,0,6,,,,,,,,,6,,,57,92
52414,note_on,46,0,6,,,,,,,,,6,,,57,0
52414,note_on,46,0,7,,,,,,,,,7,,,53,0
52414,note_on,46,0,5,,,,,,,,,5,,,67,0
52416,note_on,2,0,7,,,,,,,,,7,,,53,92
52416,note_on,2,0,6,,,,,,,,,6,,,57,92
52416,note_on,2,0,5,,,,,,,,,5,,,69,92
52558,note_on,142,0,5,,,,,,,,,5,,,69,0
52558,note_on,142,0,7,,,,,,,,,7,,,53,0
52558,note_on,142,0,6,,,,,,,,,6,,,57,0
52560,end_of_track,0,1,1,,,,,,,,,,,,,
52560,end_of_track,0,1,2,,,,,,,,,,,,,
52560,note_on,528,0,2,,,,,,,,,1,,,65,0
52560,end_of_track,0,1,4,,,,,,,,,,,,,
52560,end_of_track,0,1,3,,,,,,,,,,,,,
52560,note_on,528,0,3,,,,,,,,,2,,,60,0
52560,note_on,2,0,7,,,,,,,,,7,,,53,92
52560,note_on,528,0,4,,,,,,,,,3,,,53,0
52560,note_on,2,0,6,,,,,,,,,6,,,57,92
52560,note_on,2,0,5,,,,,,,,,5,,,70,92
52560,note_on,528,0,1,,,,,,,,,0,,,69,0
52606,note_on,46,0,6,,,,,,,,,6,,,57,0
52606,note_on,46,0,5,,,,,,,,,5,,,70,0
52606,note_on,46,0,7,,,,,,,,,7,,,53,0
52608,note_on,2,0,6,,,,,,,,,6,,,55,92
52608,note_on,2,0,5,,,,,,,,,5,,,72,92
52608,note_on,2,0,7,,,,,,,,,7,,,52,92
52750,note_on,142,0,7,,,,,,,,,7,,,52,0
52750,note_on,142,0,5,,,,,,,,,5,,,72,0
52750,note_on,142,0,6,,,,,,,,,6,,,55,0
52752,note_on,2,0,5,,,,,,,,,5,,,70,92
52752,note_on,2,0,7,,,,,,,,,7,,,52,92
52752,note_on,2,0,6,,,,,,,,,6,,,55,92
52798,note_on,46,0,5,,,,,,,,,5,,,70,0
52798,note_on,46,0,7,,,,,,,,,7,,,52,0
52798,note_on,46,0,6,,,,,,,,,6,,,55,0
52800,note_on,2,0,5,,,,,,,,,5,,,72,92
52800,note_on,0,0,5,,,,,,,,,5,,,79,92
52800,note_on,2,0,7,,,,,,,,,7,,,52,92
52800,note_on,2,0,6,,,,,,,,,6,,,55,92
52942,note_on,142,0,7,,,,,,,,,7,,,52,0
52942,note_on,142,0,6,,,,,,,,,6,,,55,0
52942,note_on,142,0,5,,,,,,,,,5,,,72,0
52944,note_on,2,0,6,,,,,,,,,6,,,55,92
52944,note_on,2,0,5,,,,,,,,,5,,,74,92
52944,note_on,2,0,7,,,,,,,,,7,,,52,92
52960,note_on,16,0,5,,,,,,,,,5,,,79,0
52990,note_on,30,0,5,,,,,,,,,5,,,74,0
52990,note_on,46,0,6,,,,,,,,,6,,,55,0
52990,note_on,46,0,7,,,,,,,,,7,,,52,0
52992,note_on,2,0,7,,,,,,,,,7,,,52,92
52992,note_on,2,0,5,,,,,,,,,5,,,76,92
52992,note_on,0,0,5,,,,,,,,,5,,,84,92
52992,note_on,2,0,6,,,,,,,,,6,,,55,92
53134,note_on,142,0,7,,,,,,,,,7,,,52,0
53134,note_on,142,0,5,,,,,,,,,5,,,76,0
53134,note_on,142,0,6,,,,,,,,,6,,,55,0
53136,note_on,2,0,7,,,,,,,,,7,,,52,92
53136,note_on,2,0,5,,,,,,,,,5,,,72,92
53136,note_on,2,0,6,,,,,,,,,6,,,55,92
53152,note_on,16,0,5,,,,,,,,,5,,,84,0
53182,note_on,46,0,6,,,,,,,,,6,,,55,0
53182,note_on,30,0,5,,,,,,,,,5,,,72,0
53182,note_on,46,0,7,,,,,,,,,7,,,52,0
53184,note_on,0,0,5,,,,,,,,,5,,,84,92
53184,note_on,2,0,7,,,,,,,,,7,,,50,92
53184,note_on,2,0,6,,,,,,,,,6,,,57,92
53184,note_on,2,0,5,,,,,,,,,5,,,76,92
53326,note_on,142,0,6,,,,,,,,,6,,,57,0
53326,note_on,142,0,5,,,,,,,,,5,,,76,0
53326,note_on,142,0,7,,,,,,,,,7,,,50,0
53328,note_on,2,0,6,,,,,,,,,6,,,57,92
53328,note_on,2,0,5,,,,,,,,,5,,,74,92
53328,note_on,2,0,7,,,,,,,,,7,,,50,92
53344,note_on,16,0,5,,,,,,,,,5,,,84,0
53374,note_on,30,0,5,,,,,,,,,5,,,74,0
53374,note_on,46,0,6,,,,,,,,,6,,,57,0
53374,note_on,46,0,7,,,,,,,,,7,,,50,0
53376,note_on,2,0,7,,,,,,,,,7,,,50,92
53376,note_on,2,0,5,,,,,,,,,5,,,77,92
53376,note_on,2,0,6,,,,,,,,,6,,,53,92
53376,note_on,0,0,5,,,,,,,,,5,,,82,92
53518,note_on,142,0,6,,,,,,,,,6,,,53,0
53518,note_on,142,0,7,,,,,,,,,7,,,50,0
53518,note_on,142,0,5,,,,,,,,,5,,,77,0
53520,note_on,2,0,5,,,,,,,,,5,,,79,92
53520,note_on,2,0,6,,,,,,,,,6,,,53,92
53520,note_on,2,0,7,,,,,,,,,7,,,50,92
53566,note_on,46,0,6,,,,,,,,,6,,,53,0
53566,note_on,46,0,5,,,,,,,,,5,,,79,0
53566,note_on,46,0,7,,,,,,,,,7,,,50,0
53568,note_on,2,0,7,,,,,,,,,7,,,50,92
53568,note_on,2,0,6,,,,,,,,,6,,,50,92
53568,note_on,2,0,5,,,,,,,,,5,,,81,92
53710,note_on,142,0,6,,,,,,,,,6,,,50,0
53710,note_on,142,0,7,,,,,,,,,7,,,50,0
53710,note_on,142,0,5,,,,,,,,,5,,,81,0
53712,note_on,2,0,7,,,,,,,,,7,,,50,92
53712,note_on,0,0,5,,,,,,,,,5,,,82,92
53712,note_on,2,0,5,,,,,,,,,5,,,82,0
53712,note_on,2,0,6,,,,,,,,,6,,,50,92
53758,note_on,46,0,7,,,,,,,,,7,,,50,0
53758,note_on,46,0,5,,,,,,,,,5,,,82,0
53758,note_on,46,0,6,,,,,,,,,6,,,50,0
53760,note_on,2,0,5,,,,,,,,,5,,,84,92
53760,note_on,2,0,6,,,,,,,,,6,,,52,92
53760,note_on,2,0,7,,,,,,,,,7,,,48,92
53902,note_on,142,0,7,,,,,,,,,7,,,48,0
53902,note_on,142,0,6,,,,,,,,,6,,,52,0
53904,note_on,2,0,7,,,,,,,,,7,,,48,92
53904,note_on,2,0,6,,,,,,,,,6,,,52,92
53920,note_on,160,0,5,,,,,,,,,5,,,84,0
53950,note_on,46,0,6,,,,,,,,,6,,,52,0
53950,note_on,46,0,7,,,,,,,,,7,,,48,0
53952,note_on,2,0,6,,,,,,,,,6,,,57,92
53952,note_on,0,0,5,,,,,,,,,5,,,76,92
53952,note_on,32,0,5,,,,,,,,,5,,,72,92
53952,note_on,2,0,7,,,,,,,,,7,,,48,92
54094,note_on,142,0,7,,,,,,,,,7,,,48,0
54094,note_on,142,0,6,,,,,,,,,6,,,57,0
54096,note_on,2,0,7,,,,,,,,,7,,,48,92
54096,note_on,2,0,6,,,,,,,,,6,,,57,92
54112,note_on,0,0,5,,,,,,,,,5,,,76,0
54112,note_on,160,0,5,,,,,,,,,5,,,72,0
54142,note_on,46,0,6,,,,,,,,,6,,,57,0
54142,note_on,46,0,7,,,,,,,,,7,,,48,0
54144,note_on,32,0,5,,,,,,,,,5,,,72,92
54144,note_on,0,0,5,,,,,,,,,5,,,81,92
54144,note_on,2,0,6,,,,,,,,,6,,,52,92
54144,note_on,2,0,7,,,,,,,,,7,,,48,92
54286,note_on,142,0,7,,,,,,,,,7,,,48,0
54286,note_on,142,0,6,,,,,,,,,6,,,52,0
54288,note_on,2,0,7,,,,,,,,,7,,,48,92
54288,note_on,2,0,6,,,,,,,,,6,,,52,92
54304,note_on,0,0,5,,,,,,,,,5,,,81,0
54304,note_on,160,0,5,,,,,,,,,5,,,72,0
54334,note_on,46,0,7,,,,,,,,,7,,,48,0
54334,note_on,46,0,6,,,,,,,,,6,,,52,0
54336,note_on,2,0,7,,,,,,,,,7,,,46,92
54336,note_on,2,0,6,,,,,,,,,6,,,53,92
54336,note_on,32,0,5,,,,,,,,,5,,,74,92
54336,note_on,0,0,5,,,,,,,,,5,,,81,92
54478,note_on,142,0,7,,,,,,,,,7,,,46,0
54478,note_on,142,0,6,,,,,,,,,6,,,53,0
54480,note_on,2,0,6,,,,,,,,,6,,,53,92
54480,note_on,2,0,7,,,,,,,,,7,,,46,92
54496,note_on,160,0,5,,,,,,,,,5,,,74,0
54496,note_on,0,0,5,,,,,,,,,5,,,81,0
54526,note_on,46,0,6,,,,,,,,,6,,,53,0
54526,note_on,46,0,7,,,,,,,,,7,,,46,0
54528,note_on,2,0,6,,,,,,,,,6,,,50,92
54528,note_on,32,0,5,,,,,,,,,5,,,70,92
54528,note_on,0,0,5,,,,,,,,,5,,,79,92
54528,note_on,2,0,7,,,,,,,,,7,,,46,92
54670,note_on,142,0,5,,,,,,,,,5,,,70,0
54670,note_on,142,0,7,,,,,,,,,7,,,46,0
54670,note_on,142,0,6,,,,,,,,,6,,,50,0
54672,note_on,2,0,5,,,,,,,,,5,,,72,92
54672,note_on,2,0,7,,,,,,,,,7,,,46,92
54672,note_on,2,0,6,,,,,,,,,6,,,50,92
54718,note_on,46,0,6,,,,,,,,,6,,,50,0
54718,note_on,46,0,7,,,,,,,,,7,,,46,0
54718,note_on,46,0,5,,,,,,,,,5,,,72,0
54720,note_on,2,0,5,,,,,,,,,5,,,74,92
54720,note_on,2,0,6,,,,,,,,,6,,,46,92
54720,note_on,2,0,7,,,,,,,,,7,,,46,92
54862,note_on,142,0,5,,,,,,,,,5,,,74,0
54862,note_on,142,0,6,,,,,,,,,6,,,46,0
54862,note_on,142,0,7,,,,,,,,,7,,,46,0
54864,note_on,2,0,5,,,,,,,,,5,,,79,0
54864,note_on,0,0,5,,,,,,,,,5,,,76,92
54864,note_on,2,0,6,,,,,,,,,6,,,46,92
54864,note_on,2,0,7,,,,,,,,,7,,,46,92
54910,note_on,46,0,5,,,,,,,,,5,,,76,0
54910,note_on,46,0,6,,,,,,,,,6,,,46,0
54910,note_on,46,0,7,,,,,,,,,7,,,46,0
54912,note_on,2,0,5,,,,,,,,,5,,,77,92
54912,note_on,2,0,6,,,,,,,,,6,,,48,92
54912,note_on,2,0,7,,,,,,,,,7,,,45,92
55054,note_on,142,0,6,,,,,,,,,6,,,48,0
55054,note_on,142,0,5,,,,,,,,,5,,,77,0
55054,note_on,142,0,7,,,,,,,,,7,,,45,0
55056,note_on,2,0,6,,,,,,,,,6,,,48,92
55056,note_on,2,0,5,,,,,,,,,5,,,76,92
55056,note_on,2,0,7,,,,,,,,,7,,,45,92
55102,note_on,46,0,6,,,,,,,,,6,,,48,0
55102,note_on,46,0,5,,,,,,,,,5,,,76,0
55102,note_on,46,0,7,,,,,,,,,7,,,45,0
55104,note_on,2,0,5,,,,,,,,,5,,,72,92
55104,note_on,2,0,6,,,,,,,,,6,,,48,92
55104,note_on,0,0,5,,,,,,,,,5,,,77,92
55104,note_on,2,0,7,,,,,,,,,7,,,45,92
55246,note_on,142,0,5,,,,,,,,,5,,,77,0
55246,note_on,142,0,6,,,,,,,,,6,,,48,0
55246,note_on,142,0,7,,,,,,,,,7,,,45,0
55248,note_on,2,0,7,,,,,,,,,7,,,45,92
55248,note_on,2,0,6,,,,,,,,,6,,,48,92
55248,note_on,2,0,5,,,,,,,,,5,,,79,92
55264,note_on,16,0,5,,,,,,,,,5,,,72,0
55294,note_on,30,0,5,,,,,,,,,5,,,79,0
55294,note_on,46,0,7,,,,,,,,,7,,,45,0
55294,note_on,46,0,6,,,,,,,,,6,,,48,0
55296,note_on,2,0,7,,,,,,,,,7,,,45,92
55296,note_on,2,0,6,,,,,,,,,6,,,48,92
55296,note_on,2,0,5,,,,,,,,,5,,,77,92
55296,note_on,0,0,5,,,,,,,,,5,,,81,92
55438,note_on,142,0,6,,,,,,,,,6,,,48,0
55438,note_on,142,0,5,,,,,,,,,5,,,81,0
55438,note_on,142,0,7,,,,,,,,,7,,,45,0
55440,note_on,2,0,6,,,,,,,,,6,,,48,92
55440,note_on,2,0,5,,,,,,,,,5,,,77,92
55440,note_on,2,0,7,,,,,,,,,7,,,45,92
55456,note_on,16,0,5,,,,,,,,,5,,,77,0
55486,note_on,46,0,7,,,,,,,,,7,,,45,0
55486,note_on,46,0,6,,,,,,,,,6,,,48,0
55486,note_on,30,0,5,,,,,,,,,5,,,77,0
55488,note_on,2,0,6,,,,,,,,,6,,,50,92
55488,note_on,0,0,5,,,,,,,,,5,,,82,92
55488,note_on,2,0,5,,,,,,,,,5,,,77,92
55488,note_on,2,0,7,,,,,,,,,7,,,43,92
55630,note_on,142,0,5,,,,,,,,,5,,,82,0
55630,note_on,142,0,6,,,,,,,,,6,,,50,0
55630,note_on,142,0,7,,,,,,,,,7,,,43,0
55632,note_on,2,0,6,,,,,,,,,6,,,50,92
55632,note_on,2,0,7,,,,,,,,,7,,,43,92
55632,note_on,2,0,5,,,,,,,,,5,,,81,92
55648,note_on,16,0,5,,,,,,,,,5,,,77,0
55678,note_on,46,0,6,,,,,,,,,6,,,50,0
55678,note_on,46,0,7,,,,,,,,,7,,,43,0
55678,note_on,30,0,5,,,,,,,,,5,,,81,0
55680,note_on,0,0,5,,,,,,,,,5,,,82,92
55680,note_on,2,0,5,,,,,,,,,5,,,76,92
55680,note_on,2,0,6,,,,,,,,,6,,,55,92
55680,note_on,2,0,7,,,,,,,,,7,,,43,92
55822,note_on,142,0,7,,,,,,,,,7,,,43,0
55822,note_on,142,0,6,,,,,,,,,6,,,55,0
55822,note_on,142,0,5,,,,,,,,,5,,,82,0
55824,note_on,2,0,7,,,,,,,,,7,,,43,92
55824,note_on,2,0,5,,,,,,,,,5,,,79,92
55824,note_on,2,0,6,,,,,,,,,6,,,55,92
55870,note_on,46,0,7,,,,,,,,,7,,,43,0
55870,note_on,46,0,6,,,,,,,,,6,,,55,0
55870,note_on,46,0,5,,,,,,,,,5,,,79,0
55870,end_of_track,0,1,6,,,,,,,,,,,,,
55872,note_on,0,0,5,,,,,,,,,5,,,81,92
55872,note_on,2,0,5,,,,,,,,,5,,,70,92
55872,note_on,2,0,7,,,,,,,,,7,,,43,92
56014,note_on,142,0,5,,,,,,,,,5,,,81,0
56014,note_on,142,0,7,,,,,,,,,7,,,43,0
56016,set_tempo,55248,1,0,487804,,,,,,,,,,,,
56016,note_on,2,0,5,,,,,,,,,5,,,82,92
56016,note_on,2,0,7,,,,,,,,,7,,,43,92
56032,note_on,0,0,5,,,,,,,,,5,,,76,0
56032,note_on,16,0,5,,,,,,,,,5,,,70,0
56062,note_on,30,0,5,,,,,,,,,5,,,82,0
56062,note_on,46,0,7,,,,,,,,,7,,,43,0
56064,set_tempo,48,1,0,517241,,,,,,,,,,,,
56064,note_on,0,0,5,,,,,,,,,5,,,81,92
56064,note_on,0,0,5,,,,,,,,,5,,,77,92
56064,note_on,2,0,5,,,,,,,,,5,,,72,92
56064,note_on,2,0,7,,,,,,,,,7,,,41,92
56206,note_on,142,0,7,,,,,,,,,7,,,41,0
56206,note_on,0,0,5,,,,,,,,,5,,,81,0
56206,note_on,0,0,5,,,,,,,,,5,,,77,0
56206,note_on,142,0,5,,,,,,,,,5,,,72,0
56208,note_on,2,0,7,,,,,,,,,7,,,46,92
56208,set_tempo,144,1,0,540540,,,,,,,,,,,,
56208,note_on,2,0,5,,,,,,,,,5,,,74,92
56208,note_on,0,0,5,,,,,,,,,5,,,77,92
56254,note_on,46,0,5,,,,,,,,,5,,,74,0
56254,note_on,0,0,5,,,,,,,,,5,,,77,0
56254,note_on,46,0,7,,,,,,,,,7,,,46,0
56256,note_on,2,0,7,,,,,,,,,7,,,48,92
56256,note_on,2,0,5,,,,,,,,,5,,,67,92
56256,note_on,0,0,5,,,,,,,,,5,,,72,92
56256,note_on,0,0,5,,,,,,,,,5,,,76,92
56256,set_tempo,48,1,0,566037,,,,,,,,,,,,
56416,note_on,160,0,7,,,,,,,,,7,,,48,0
56448,note_on,32,0,7,,,,,,,,,7,,,36,92
56512,note_on,0,0,5,,,,,,,,,5,,,76,0
56512,note_on,256,0,5,,,,,,,,,5,,,67,0
56512,note_on,0,0,5,,,,,,,,,5,,,72,0
56544,set_tempo,288,1,0,652173,,,,,,,,,,,,
56544,note_on,32,0,5,,,,,,,,,5,,,69,92
56544,note_on,0,0,5,,,,,,,,,5,,,77,92
56544,note_on,0,0,5,,,,,,,,,5,,,72,92
56608,note_on,160,0,7,,,,,,,,,7,,,36,0
56638,note_on,0,0,5,,,,,,,,,5,,,72,0
56638,note_on,94,0,5,,,,,,,,,5,,,69,0
56638,note_on,0,0,5,,,,,,,,,5,,,77,0
56640,note_on,0,0,5,,,,,,,,,5,,,72,92
56640,note_on,2,0,5,,,,,,,,,5,,,69,92
56640,note_on,0,0,5,,,,,,,,,5,,,77,92
56640,end_of_track,0,1,0,,,,,,,,,,,,,
56640,note_on,32,0,7,,,,,,,,,7,,,41,92
56640,set_tempo,96,1,0,600000,,,,,,,,,,,,
57168,end_of_track,0,1,7,,,,,,,,,,,,,
57168,note_on,528,0,5,,,,,,,,,5,,,69,0
57168,note_on,0,0,5,,,,,,,,,5,,,72,0
57168,note_on,0,0,5,,,,,,,,,5,,,77,0
57168,end_of_track,0,1,5,,,,,,,,,,,,,
57168,note_on,528,0,7,,,,,,,,,7,,,41,0
