tick,type,time,meta,track,tempo,key,numerator,denominator,clocks_per_click,notated_32nd_notes_per_beat,port,program,channel,control,value,note,velocity
0,track_name,0,1,0,,,,,,,,,,,,,
0,control_change,0,0,7,,,,,,,,,7,10,64,,
0,control_change,0,0,7,,,,,,,,,7,7,111,,
0,program_change,0,0,7,,,,,,,,0,7,,,,
0,track_name,0,1,7,,,,,,,,,,,,,
0,midi_port,0,1,7,,,,,,,0,,,,,,
0,control_change,0,0,14,,,,,,,,,14,10,64,,
0,control_change,0,0,6,,,,,,,,,5,10,64,,
0,control_change,0,0,6,,,,,,,,,5,7,111,,
0,program_change,0,0,6,,,,,,,,0,5,,,,
0,track_name,0,1,6,,,,,,,,,,,,,
0,midi_port,0,1,6,,,,,,,0,,,,,,
0,control_change,0,0,5,,,,,,,,,6,10,64,,
0,control_change,0,0,5,,,,,,,,,6,7,111,,
0,program_change,0,0,5,,,,,,,,0,6,,,,
0,track_name,0,1,5,,,,,,,,,,,,,
0,midi_port,0,1,5,,,,,,,0,,,,,,
0,control_change,0,0,4,,,,,,,,,3,10,64,,
0,control_change,0,0,4,,,,,,,,,3,7,127,,
0,program_change,0,0,4,,,,,,,,48,3,,,,
0,track_name,0,1,4,,,,,,,,,,,,,
0,midi_port,0,1,4,,,,,,,0,,,,,,
0,control_change,0,0,3,,,,,,,,,2,10,64,,
0,control_change,0,0,3,,,,,,,,,2,7,127,,
0,program_change,0,0,3,,,,,,,,48,2,,,,
0,track_name,0,1,3,,,,,,,,,,,,,
0,midi_port,0,1,3,,,,,,,0,,,,,,
0,control_change,0,0,2,,,,,,,,,1,10,64,,
0,control_change,0,0,2,,,,,,,,,1,7,127,,
0,program_change,0,0,2,,,,,,,,48,1,,,,
0,midi_port,0,1,8,,,,,,,0,,,,,,
0,track_name,0,1,2,,,,,,,,,,,,,
0,track_name,0,1,8,,,,,,,,,,,,,
0,control_change,0,0,8,,,,,,,,,8,10,64,,
0,control_change,0,0,14,,,,,,,,,14,7,127,,
0,track_name,0,1,14,,,,,,,,,,,,,
0,midi_port,0,1,14,,,,,,,0,,,,,,
0,end_of_track,0,1,13,,,,,,,,,,,,,
0,control_change,0,0,13,,,,,,,,,13,10,64,,
0,control_change,0,0,13,,,,,,,,,13,7,127,,
0,track_name,0,1,13,,,,,,,,,,,,,
0,midi_port,0,1,13,,,,,,,0,,,,,,
0,end_of_track,0,1,12,,,,,,,,,,,,,
0,control_change,0,0,12,,,,,,,,,12,10,64,,
0,control_change,0,0,12,,,,,,,,,12,7,127,,
0,track_name,0,1,12,,,,,,,,,,,,,
0,midi_port,0,1,12,,,,,,,0,,,,,,
0,end_of_track,0,1,11,,,,,,,,,,,,,
0,control_change,0,0,11,,,,,,,,,11,10,64,,
0,control_change,0,0,11,,,,,,,,,11,7,127,,
0,track_name,0,1,11,,,,,,,,,,,,,
0,midi_port,0,1,11,,,,,,,0,,,,,,
0,end_of_track,0,1,10,,,,,,,,,,,,,
0,control_change,0,0,10,,,,,,,,,10,10,64,,
0,control_change,0,0,10,,,,,,,,,10,7,127,,
0,track_name,0,1,10,,,,,,,,,,,,,
0,midi_port,0,1,10,,,,,,,0,,,,,,
0,end_of_track,0,1,9,,,,,,,,,,,,,
0,control_change,0,0,9,,,,,,,,,9,10,64,,
0,control_change,0,0,9,,,,,,,,,9,7,127,,
0,track_name,0,1,9,,,,,,,,,,,,,
0,midi_port,0,1,9,,,,,,,0,,,,,,
0,end_of_track,0,1,8,,,,,,,,,,,,,
0,control_change,0,0,8,,,,,,,,,8,7,127,,
0,midi_port,0,1,2,,,,,,,0,,,,,,
0,end_of_track,0,1,14,,,,,,,,,,,,,
0,track_name,0,1,1,,,,,,,,,,,,,
0,text,0,1,0,,,,,,,,,,,,,
0,text,0,1,0,,,,,,,,,,,,,
0,copyright,0,1,0,,,,,,,,,,,,,
0,set_tempo,0,1,0,416666,,,,,,,,,,,,
0,key_signature,0,1,0,,F,,,,,,,,,,,
0,time_signature,0,1,0,,,4,4,24,8,,,,,,,
0,control_change,0,0,1,,,,,,,,,0,10,64,,
0,midi_port,0,1,1,,,,,,,0,,,,,,
0,control_change,0,0,1,,,,,,,,,0,7,127,,
0,program_change,0,0,1,,,,,,,,48,0,,,,
768,note_on,768,0,7,,,,,,,,,7,,,62,75
768,set_tempo,768,1,0,810810,,,,,,,,,,,,
862,note_on,94,0,7,,,,,,,,,7,,,62,0
864,note_on,2,0,7,,,,,,,,,7,,,57,75
958,note_on,94,0,7,,,,,,,,,7,,,57,0
960,note_on,2,0,7,,,,,,,,,7,,,53,75
1054,note_on,94,0,7,,,,,,,,,7,,,53,0
1056,note_on,2,0,7,,,,,,,,,7,,,52,75
1102,note_on,46,0,7,,,,,,,,,7,,,52,0
1104,note_on,2,0,7,,,,,,,,,7,,,50,75
1150,note_on,46,0,7,,,,,,,,,7,,,50,0
1152,note_on,2,0,7,,,,,,,,,7,,,49,75
1198,note_on,46,0,7,,,,,,,,,7,,,49,0
1200,note_on,2,0,7,,,,,,,,,7,,,47,75
1246,note_on,46,0,7,,,,,,,,,7,,,47,0
1248,note_on,2,0,7,,,,,,,,,7,,,45,75
1342,note_on,94,0,7,,,,,,,,,7,,,45,0
1344,note_on,1344,0,6,,,,,,,,,5,,,69,60
1440,note_on,98,0,7,,,,,,,,,7,,,57,75
1534,note_on,94,0,7,,,,,,,,,7,,,57,0
1536,note_on,192,0,6,,,,,,,,,5,,,74,60
1536,note_on,2,0,7,,,,,,,,,7,,,58,75
1630,note_on,94,0,6,,,,,,,,,5,,,69,0
1630,note_on,94,0,7,,,,,,,,,7,,,58,0
1632,note_on,2,0,6,,,,,,,,,5,,,70,60
1632,note_on,2,0,7,,,,,,,,,7,,,62,75
1678,note_on,46,0,6,,,,,,,,,5,,,70,0
1680,note_on,2,0,6,,,,,,,,,5,,,69,60
1726,note_on,46,0,6,,,,,,,,,5,,,69,0
1726,note_on,94,0,7,,,,,,,,,7,,,62,0
1728,note_on,2,0,7,,,,,,,,,7,,,52,75
1728,note_on,2,0,6,,,,,,,,,5,,,67,60
1822,note_on,94,0,6,,,,,,,,,5,,,74,0
1822,note_on,94,0,7,,,,,,,,,7,,,52,0
1824,note_on,2,0,7,,,,,,,,,7,,,60,75
1824,note_on,2,0,6,,,,,,,,,5,,,76,60
1870,note_on,46,0,6,,,,,,,,,5,,,76,0
1872,note_on,2,0,6,,,,,,,,,5,,,74,60
1918,note_on,94,0,7,,,,,,,,,7,,,60,0
1918,note_on,46,0,6,,,,,,,,,5,,,74,0
1920,note_on,2,0,7,,,,,,,,,7,,,57,75
1920,note_on,2,0,6,,,,,,,,,5,,,72,60
2014,note_on,94,0,7,,,,,,,,,7,,,57,0
2014,note_on,94,0,6,,,,,,,,,5,,,67,0
2016,note_on,2,0,7,,,,,,,,,7,,,60,75
2016,note_on,2,0,6,,,,,,,,,5,,,69,60
2062,note_on,46,0,6,,,,,,,,,5,,,69,0
2064,note_on,2,0,6,,,,,,,,,5,,,67,60
2110,note_on,94,0,7,,,,,,,,,7,,,60,0
2110,note_on,46,0,6,,,,,,,,,5,,,67,0
2112,note_on,2,0,6,,,,,,,,,5,,,65,60
2112,note_on,2,0,7,,,,,,,,,7,,,50,75
2206,note_on,94,0,6,,,,,,,,,5,,,72,0
2206,note_on,94,0,7,,,,,,,,,7,,,50,0
2208,note_on,2,0,7,,,,,,,,,7,,,58,75
2208,note_on,2,0,6,,,,,,,,,5,,,74,60
2254,note_on,46,0,6,,,,,,,,,5,,,74,0
2256,note_on,2,0,6,,,,,,,,,5,,,72,60
2302,note_on,46,0,6,,,,,,,,,5,,,72,0
2302,note_on,94,0,7,,,,,,,,,7,,,58,0
2304,note_on,2,0,6,,,,,,,,,5,,,70,60
2304,note_on,2,0,7,,,,,,,,,7,,,55,75
2398,note_on,94,0,6,,,,,,,,,5,,,65,0
2398,note_on,94,0,7,,,,,,,,,7,,,55,0
2400,note_on,2,0,6,,,,,,,,,5,,,67,60
2400,note_on,2,0,7,,,,,,,,,7,,,58,75
2446,note_on,46,0,6,,,,,,,,,5,,,67,0
2448,note_on,2,0,6,,,,,,,,,5,,,65,60
2494,note_on,94,0,7,,,,,,,,,7,,,58,0
2494,note_on,46,0,6,,,,,,,,,5,,,65,0
2496,note_on,2,0,7,,,,,,,,,7,,,49,75
2496,note_on,2,0,6,,,,,,,,,5,,,64,60
2590,note_on,94,0,7,,,,,,,,,7,,,49,0
2590,note_on,94,0,6,,,,,,,,,5,,,64,0
2590,note_on,0,0,6,,,,,,,,,5,,,70,0
2592,note_on,2,0,7,,,,,,,,,7,,,57,75
2592,note_on,2,0,6,,,,,,,,,5,,,65,60
2592,note_on,0,0,6,,,,,,,,,5,,,69,60
2638,note_on,46,0,6,,,,,,,,,5,,,65,0
2638,note_on,0,0,6,,,,,,,,,5,,,69,0
2640,note_on,2,0,6,,,,,,,,,5,,,64,60
2640,note_on,0,0,6,,,,,,,,,5,,,67,60
2686,note_on,46,0,6,,,,,,,,,5,,,64,0
2686,note_on,0,0,6,,,,,,,,,5,,,67,0
2686,note_on,94,0,7,,,,,,,,,7,,,57,0
2688,note_on,0,0,6,,,,,,,,,5,,,69,60
2688,note_on,2,0,7,,,,,,,,,7,,,53,75
2688,note_on,2,0,6,,,,,,,,,5,,,62,60
2734,note_on,46,0,6,,,,,,,,,5,,,62,0
2734,note_on,0,0,6,,,,,,,,,5,,,69,0
2736,note_on,2,0,6,,,,,,,,,5,,,67,60
2782,note_on,94,0,7,,,,,,,,,7,,,53,0
2782,note_on,46,0,6,,,,,,,,,5,,,67,0
2784,note_on,2,0,6,,,,,,,,,5,,,65,60
2784,note_on,2,0,7,,,,,,,,,7,,,62,75
2830,note_on,46,0,6,,,,,,,,,5,,,65,0
2832,note_on,2,0,6,,,,,,,,,5,,,64,60
2878,note_on,46,0,6,,,,,,,,,5,,,64,0
2878,note_on,94,0,7,,,,,,,,,7,,,62,0
2880,note_on,2,0,6,,,,,,,,,5,,,62,60
2928,note_on,48,0,6,,,,,,,,,5,,,69,60
2974,note_on,46,0,6,,,,,,,,,5,,,69,0
2976,note_on,2,0,6,,,,,,,,,5,,,70,60
2976,note_on,98,0,7,,,,,,,,,7,,,54,75
3022,note_on,46,0,6,,,,,,,,,5,,,70,0
3024,note_on,2,0,6,,,,,,,,,5,,,72,60
3070,note_on,46,0,6,,,,,,,,,5,,,72,0
3070,note_on,94,0,7,,,,,,,,,7,,,54,0
3072,note_on,2,0,6,,,,,,,,,5,,,70,60
3072,note_on,2,0,7,,,,,,,,,7,,,55,75
3118,note_on,46,0,6,,,,,,,,,5,,,70,0
3120,note_on,2,0,6,,,,,,,,,5,,,69,60
3166,note_on,94,0,7,,,,,,,,,7,,,55,0
3166,note_on,46,0,6,,,,,,,,,5,,,62,0
3166,note_on,0,0,6,,,,,,,,,5,,,69,0
3168,note_on,2,0,7,,,,,,,,,7,,,64,75
3168,note_on,2,0,6,,,,,,,,,5,,,67,60
3214,note_on,46,0,6,,,,,,,,,5,,,67,0
3216,note_on,2,0,6,,,,,,,,,5,,,65,60
3262,note_on,94,0,7,,,,,,,,,7,,,64,0
3262,note_on,46,0,6,,,,,,,,,5,,,65,0
3264,note_on,2,0,6,,,,,,,,,5,,,64,60
3312,note_on,48,0,6,,,,,,,,,5,,,71,60
3358,note_on,46,0,6,,,,,,,,,5,,,71,0
3360,note_on,98,0,7,,,,,,,,,7,,,56,75
3360,note_on,2,0,6,,,,,,,,,5,,,73,60
3406,note_on,46,0,6,,,,,,,,,5,,,73,0
3408,note_on,2,0,6,,,,,,,,,5,,,74,60
3454,note_on,46,0,6,,,,,,,,,5,,,74,0
3454,note_on,94,0,7,,,,,,,,,7,,,56,0
3456,note_on,2,0,6,,,,,,,,,5,,,73,60
3456,note_on,2,0,7,,,,,,,,,7,,,57,75
3502,note_on,46,0,6,,,,,,,,,5,,,64,0
3502,note_on,46,0,7,,,,,,,,,7,,,57,0
3504,note_on,2,0,6,,,,,,,,,5,,,69,60
3504,note_on,2,0,7,,,,,,,,,7,,,55,75
3550,note_on,46,0,7,,,,,,,,,7,,,55,0
3550,note_on,0,0,6,,,,,,,,,5,,,69,0
3550,note_on,46,0,6,,,,,,,,,5,,,73,0
3552,note_on,0,0,6,,,,,,,,,5,,,74,60
3552,note_on,2,0,6,,,,,,,,,5,,,71,60
3552,note_on,2,0,7,,,,,,,,,7,,,53,75
3598,note_on,46,0,7,,,,,,,,,7,,,53,0
3598,note_on,46,0,6,,,,,,,,,5,,,71,0
3598,note_on,0,0,6,,,,,,,,,5,,,74,0
3600,note_on,2,0,6,,,,,,,,,5,,,73,60
3600,note_on,0,0,6,,,,,,,,,5,,,76,60
3600,note_on,2,0,7,,,,,,,,,7,,,52,75
3646,note_on,46,0,7,,,,,,,,,7,,,52,0
3646,note_on,0,0,6,,,,,,,,,5,,,76,0
3646,note_on,46,0,6,,,,,,,,,5,,,73,0
3648,note_on,2,0,7,,,,,,,,,7,,,50,75
3648,note_on,0,0,6,,,,,,,,,5,,,77,60
3648,note_on,2,0,6,,,,,,,,,5,,,74,60
3694,note_on,46,0,7,,,,,,,,,7,,,50,0
3696,note_on,2,0,7,,,,,,,,,7,,,48,75
3742,note_on,0,0,6,,,,,,,,,5,,,77,0
3742,note_on,46,0,7,,,,,,,,,7,,,48,0
3742,note_on,94,0,6,,,,,,,,,5,,,74,0
3744,note_on,2,0,7,,,,,,,,,7,,,46,75
3790,note_on,46,0,7,,,,,,,,,7,,,46,0
3792,note_on,2,0,7,,,,,,,,,7,,,45,75
3838,note_on,46,0,7,,,,,,,,,7,,,45,0
3840,note_on,2,0,7,,,,,,,,,7,,,43,75
3886,note_on,46,0,7,,,,,,,,,7,,,43,0
3888,note_on,2,0,7,,,,,,,,,7,,,41,75
3934,note_on,46,0,7,,,,,,,,,7,,,41,0
3936,note_on,0,0,6,,,,,,,,,5,,,69,60
3936,note_on,194,0,6,,,,,,,,,5,,,65,60
3936,note_on,0,0,6,,,,,,,,,5,,,74,60
3936,note_on,2,0,7,,,,,,,,,7,,,40,75
3982,note_on,46,0,7,,,,,,,,,7,,,40,0
3984,note_on,2,0,7,,,,,,,,,7,,,38,75
4030,note_on,46,0,7,,,,,,,,,7,,,38,0
4030,note_on,0,0,6,,,,,,,,,5,,,74,0
4030,note_on,0,0,6,,,,,,,,,5,,,69,0
4030,note_on,94,0,6,,,,,,,,,5,,,65,0
4032,note_on,0,0,6,,,,,,,,,5,,,74,60
4032,note_on,2,0,7,,,,,,,,,7,,,45,75
4032,note_on,0,0,6,,,,,,,,,5,,,69,60
4032,note_on,2,0,6,,,,,,,,,5,,,64,60
4126,note_on,94,0,7,,,,,,,,,7,,,45,0
4126,note_on,94,0,6,,,,,,,,,5,,,74,0
4128,note_on,2,0,7,,,,,,,,,7,,,45,75
4128,note_on,2,0,6,,,,,,,,,5,,,73,60
4192,note_on,0,0,6,,,,,,,,,5,,,69,0
4192,note_on,64,0,6,,,,,,,,,5,,,64,0
4222,note_on,94,0,7,,,,,,,,,7,,,45,0
4222,note_on,30,0,6,,,,,,,,,5,,,73,0
4224,note_on,2,0,6,,,,,,,,,5,,,65,60
4224,note_on,0,0,6,,,,,,,,,5,,,69,60
4224,note_on,0,0,6,,,,,,,,,5,,,74,60
4224,note_on,2,0,7,,,,,,,,,7,,,38,75
4224,note_on,4224,0,2,,,,,,,,,1,,,69,75
4384,note_on,160,0,6,,,,,,,,,5,,,65,0
4384,note_on,0,0,6,,,,,,,,,5,,,69,0
4384,note_on,0,0,6,,,,,,,,,5,,,74,0
4384,note_on,160,0,7,,,,,,,,,7,,,38,0
4768,note_on,544,0,2,,,,,,,,,1,,,69,0
4800,note_on,32,0,2,,,,,,,,,1,,,67,75
4848,note_on,0,0,2,,,,,,,,,1,,,65,75
4848,note_on,48,0,2,,,,,,,,,1,,,67,0
4894,note_on,46,0,2,,,,,,,,,1,,,65,0
4896,note_on,2,0,2,,,,,,,,,1,,,64,75
4944,note_on,0,0,2,,,,,,,,,1,,,62,75
4944,note_on,48,0,2,,,,,,,,,1,,,64,0
4990,note_on,46,0,2,,,,,,,,,1,,,62,0
4992,note_on,2,0,2,,,,,,,,,1,,,61,75
5152,note_on,160,0,2,,,,,,,,,1,,,61,0
5184,note_on,32,0,2,,,,,,,,,1,,,62,75
5344,note_on,160,0,2,,,,,,,,,1,,,62,0
5376,note_on,992,0,7,,,,,,,,,7,,,62,75
5470,note_on,94,0,7,,,,,,,,,7,,,62,0
5472,note_on,2,0,7,,,,,,,,,7,,,57,75
5566,note_on,94,0,7,,,,,,,,,7,,,57,0
5568,note_on,2,0,7,,,,,,,,,7,,,53,75
5568,note_on,1184,0,6,,,,,,,,,5,,,62,60
5662,note_on,94,0,7,,,,,,,,,7,,,53,0
5664,note_on,2,0,7,,,,,,,,,7,,,52,75
5664,note_on,96,0,6,,,,,,,,,5,,,65,60
5710,note_on,46,0,7,,,,,,,,,7,,,52,0
5712,note_on,2,0,7,,,,,,,,,7,,,50,75
5758,note_on,46,0,7,,,,,,,,,7,,,50,0
5758,note_on,0,0,6,,,,,,,,,5,,,65,0
5758,note_on,94,0,6,,,,,,,,,5,,,62,0
5760,note_on,2,0,7,,,,,,,,,7,,,49,75
5760,note_on,416,0,2,,,,,,,,,1,,,69,75
5760,note_on,2,0,6,,,,,,,,,5,,,64,60
5760,note_on,0,0,6,,,,,,,,,5,,,69,60
5806,note_on,46,0,7,,,,,,,,,7,,,49,0
5806,note_on,46,0,6,,,,,,,,,5,,,64,0
5808,note_on,2,0,7,,,,,,,,,7,,,47,75
5808,note_on,2,0,6,,,,,,,,,5,,,62,60
5854,note_on,46,0,6,,,,,,,,,5,,,62,0
5854,note_on,46,0,7,,,,,,,,,7,,,47,0
5856,note_on,2,0,6,,,,,,,,,5,,,61,60
5856,note_on,2,0,7,,,,,,,,,7,,,45,75
5920,note_on,64,0,6,,,,,,,,,5,,,69,0
5950,note_on,30,0,6,,,,,,,,,5,,,61,0
5950,note_on,94,0,7,,,,,,,,,7,,,45,0
6016,note_on,256,0,2,,,,,,,,,1,,,69,0
6048,note_on,32,0,2,,,,,,,,,1,,,67,75
6048,note_on,98,0,6,,,,,,,,,5,,,64,60
6048,note_on,0,0,6,,,,,,,,,5,,,73,60
6048,note_on,98,0,7,,,,,,,,,7,,,57,75
6142,note_on,94,0,7,,,,,,,,,7,,,57,0
6142,note_on,94,0,2,,,,,,,,,1,,,67,0
6142,note_on,0,0,6,,,,,,,,,5,,,73,0
6142,note_on,94,0,6,,,,,,,,,5,,,64,0
6144,note_on,2,0,7,,,,,,,,,7,,,50,75
6144,note_on,2,0,2,,,,,,,,,1,,,65,75
6144,note_on,2,0,6,,,,,,,,,5,,,65,60
6144,note_on,0,0,6,,,,,,,,,5,,,74,60
6238,note_on,94,0,6,,,,,,,,,5,,,65,0
6238,note_on,0,0,6,,,,,,,,,5,,,74,0
6238,note_on,94,0,2,,,,,,,,,1,,,65,0
6238,note_on,94,0,7,,,,,,,,,7,,,50,0
6240,note_on,2,0,2,,,,,,,,,1,,,64,75
6240,note_on,2,0,6,,,,,,,,,5,,,64,60
6240,note_on,0,0,6,,,,,,,,,5,,,73,60
6240,note_on,2,0,7,,,,,,,,,7,,,57,75
6334,note_on,94,0,2,,,,,,,,,1,,,64,0
6334,note_on,94,0,6,,,,,,,,,5,,,64,0
6334,note_on,94,0,7,,,,,,,,,7,,,57,0
6334,note_on,0,0,6,,,,,,,,,5,,,73,0
6336,note_on,0,0,6,,,,,,,,,5,,,74,60
6336,note_on,2,0,2,,,,,,,,,1,,,65,75
6336,note_on,2,0,6,,,,,,,,,5,,,65,60
6336,note_on,2,0,7,,,,,,,,,7,,,50,75
6430,note_on,94,0,6,,,,,,,,,5,,,65,0
6430,note_on,94,0,7,,,,,,,,,7,,,50,0
6430,note_on,94,0,2,,,,,,,,,1,,,65,0
6430,note_on,0,0,6,,,,,,,,,5,,,74,0
6432,note_on,2,0,2,,,,,,,,,1,,,67,75
6432,note_on,0,0,6,,,,,,,,,5,,,73,60
6432,note_on,2,0,7,,,,,,,,,7,,,57,75
6432,note_on,2,0,6,,,,,,,,,5,,,64,60
6478,note_on,46,0,2,,,,,,,,,1,,,67,0
6478,note_on,46,0,6,,,,,,,,,5,,,64,0
6480,note_on,2,0,2,,,,,,,,,1,,,64,75
6480,note_on,2,0,6,,,,,,,,,5,,,67,60
6526,note_on,46,0,6,,,,,,,,,5,,,73,0
6526,note_on,46,0,2,,,,,,,,,1,,,64,0
6526,note_on,0,0,6,,,,,,,,,5,,,67,0
6526,note_on,94,0,7,,,,,,,,,7,,,57,0
6528,note_on,2,0,6,,,,,,,,,5,,,65,60
6528,note_on,2,0,2,,,,,,,,,1,,,65,75
6528,note_on,2,0,7,,,,,,,,,7,,,56,75
6528,note_on,0,0,6,,,,,,,,,5,,,74,60
6622,note_on,0,0,6,,,,,,,,,5,,,74,0
6622,note_on,94,0,6,,,,,,,,,5,,,65,0
6624,note_on,2,0,6,,,,,,,,,5,,,62,60
6624,note_on,0,0,6,,,,,,,,,5,,,71,60
6718,note_on,94,0,6,,,,,,,,,5,,,62,0
6718,note_on,0,0,6,,,,,,,,,5,,,71,0
6720,note_on,0,0,6,,,,,,,,,5,,,73,60
6720,note_on,2,0,6,,,,,,,,,5,,,64,60
6814,note_on,94,0,6,,,,,,,,,5,,,64,0
6814,note_on,0,0,6,,,,,,,,,5,,,73,0
6816,note_on,0,0,6,,,,,,,,,5,,,74,60
6816,note_on,2,0,6,,,,,,,,,5,,,65,60
6864,note_on,336,0,7,,,,,,,,,7,,,56,0
6864,note_on,336,0,2,,,,,,,,,1,,,65,0
6910,note_on,0,0,6,,,,,,,,,5,,,74,0
6910,note_on,94,0,6,,,,,,,,,5,,,65,0
6912,note_on,48,0,7,,,,,,,,,7,,,57,75
6912,note_on,2,0,6,,,,,,,,,5,,,64,60
6912,note_on,0,0,6,,,,,,,,,5,,,73,60
6912,note_on,48,0,2,,,,,,,,,1,,,64,75
7006,note_on,94,0,7,,,,,,,,,7,,,57,0
7008,note_on,2,0,7,,,,,,,,,7,,,52,75
7054,note_on,142,0,6,,,,,,,,,5,,,73,0
7056,note_on,2,0,6,,,,,,,,,5,,,74,60
7072,note_on,160,0,2,,,,,,,,,1,,,64,0
7072,note_on,16,0,6,,,,,,,,,5,,,64,0
7102,note_on,94,0,7,,,,,,,,,7,,,52,0
7102,note_on,30,0,6,,,,,,,,,5,,,74,0
7104,note_on,0,0,6,,,,,,,,,5,,,76,60
7104,note_on,2,0,6,,,,,,,,,5,,,69,60
7104,note_on,2,0,7,,,,,,,,,7,,,49,75
7198,note_on,94,0,7,,,,,,,,,7,,,49,0
7198,note_on,94,0,6,,,,,,,,,5,,,69,0
7200,note_on,2,0,7,,,,,,,,,7,,,47,75
7200,note_on,2,0,6,,,,,,,,,5,,,74,60
7246,note_on,46,0,6,,,,,,,,,5,,,74,0
7246,note_on,46,0,7,,,,,,,,,7,,,47,0
7248,note_on,2,0,7,,,,,,,,,7,,,45,75
7248,note_on,2,0,6,,,,,,,,,5,,,73,60
7264,note_on,16,0,6,,,,,,,,,5,,,76,0
7294,note_on,30,0,6,,,,,,,,,5,,,73,0
7294,note_on,46,0,7,,,,,,,,,7,,,45,0
7296,note_on,2,0,7,,,,,,,,,7,,,62,75
7296,note_on,2,0,6,,,,,,,,,5,,,72,60
7296,note_on,0,0,6,,,,,,,,,5,,,78,60
7296,note_on,224,0,2,,,,,,,,,1,,,66,75
7390,note_on,94,0,7,,,,,,,,,7,,,62,0
7392,note_on,2,0,7,,,,,,,,,7,,,57,75
7438,note_on,142,0,6,,,,,,,,,5,,,72,0
7440,note_on,2,0,6,,,,,,,,,5,,,70,60
7456,note_on,16,0,6,,,,,,,,,5,,,78,0
7456,note_on,160,0,2,,,,,,,,,1,,,66,0
7486,note_on,30,0,6,,,,,,,,,5,,,70,0
7486,note_on,94,0,7,,,,,,,,,7,,,57,0
7488,note_on,0,0,6,,,,,,,,,5,,,72,60
7488,note_on,2,0,6,,,,,,,,,5,,,69,60
7488,note_on,2,0,7,,,,,,,,,7,,,54,75
7488,note_on,32,0,2,,,,,,,,,1,,,69,75
7582,note_on,94,0,6,,,,,,,,,5,,,69,0
7582,note_on,94,0,7,,,,,,,,,7,,,54,0
7582,note_on,94,0,2,,,,,,,,,1,,,69,0
7582,note_on,0,0,6,,,,,,,,,5,,,72,0
7584,note_on,2,0,7,,,,,,,,,7,,,52,75
7584,note_on,2,0,6,,,,,,,,,5,,,67,60
7584,note_on,0,0,6,,,,,,,,,5,,,72,60
7584,note_on,2,0,2,,,,,,,,,1,,,66,75
7630,note_on,46,0,7,,,,,,,,,7,,,52,0
7630,note_on,46,0,6,,,,,,,,,5,,,67,0
7632,note_on,2,0,7,,,,,,,,,7,,,50,75
7632,note_on,2,0,6,,,,,,,,,5,,,66,60
7678,note_on,46,0,6,,,,,,,,,5,,,72,0
7678,note_on,0,0,6,,,,,,,,,5,,,66,0
7678,note_on,94,0,2,,,,,,,,,1,,,66,0
7678,note_on,46,0,7,,,,,,,,,7,,,50,0
7680,note_on,2,0,2,,,,,,,,,1,,,67,75
7680,note_on,2,0,6,,,,,,,,,5,,,67,60
7680,note_on,0,0,6,,,,,,,,,5,,,71,60
7680,note_on,2,0,7,,,,,,,,,7,,,55,75
7726,note_on,46,0,6,,,,,,,,,5,,,71,0
7728,note_on,2,0,6,,,,,,,,,5,,,69,60
7728,note_on,0,0,2,,,,,,,,,1,,,66,75
7728,note_on,48,0,2,,,,,,,,,1,,,67,0
7774,note_on,46,0,2,,,,,,,,,1,,,66,0
7774,note_on,46,0,6,,,,,,,,,5,,,69,0
7774,note_on,94,0,7,,,,,,,,,7,,,55,0
7776,note_on,2,0,6,,,,,,,,,5,,,71,60
7776,note_on,2,0,7,,,,,,,,,7,,,50,75
7776,note_on,2,0,2,,,,,,,,,1,,,67,75
7870,note_on,94,0,2,,,,,,,,,1,,,67,0
7870,note_on,94,0,7,,,,,,,,,7,,,50,0
7870,note_on,94,0,6,,,,,,,,,5,,,71,0
7872,note_on,2,0,6,,,,,,,,,5,,,74,60
7872,note_on,2,0,7,,,,,,,,,7,,,47,75
7966,note_on,94,0,6,,,,,,,,,5,,,67,0
7966,note_on,94,0,7,,,,,,,,,7,,,47,0
7968,note_on,2,0,7,,,,,,,,,7,,,45,75
7968,note_on,2,0,6,,,,,,,,,5,,,72,60
8014,note_on,46,0,7,,,,,,,,,7,,,45,0
8014,note_on,46,0,6,,,,,,,,,5,,,72,0
8016,note_on,2,0,7,,,,,,,,,7,,,43,75
8016,note_on,2,0,6,,,,,,,,,5,,,71,60
8032,note_on,16,0,6,,,,,,,,,5,,,74,0
8062,note_on,46,0,7,,,,,,,,,7,,,43,0
8062,note_on,30,0,6,,,,,,,,,5,,,71,0
8064,note_on,194,0,2,,,,,,,,,1,,,64,75
8064,note_on,0,0,6,,,,,,,,,5,,,76,60
8064,note_on,2,0,6,,,,,,,,,5,,,70,60
8064,note_on,2,0,7,,,,,,,,,7,,,60,75
8158,note_on,94,0,7,,,,,,,,,7,,,60,0
8160,note_on,2,0,7,,,,,,,,,7,,,55,75
8206,note_on,142,0,6,,,,,,,,,5,,,70,0
8208,note_on,2,0,6,,,,,,,,,5,,,69,60
8224,note_on,160,0,2,,,,,,,,,1,,,64,0
8224,note_on,16,0,6,,,,,,,,,5,,,76,0
8254,note_on,94,0,7,,,,,,,,,7,,,55,0
8254,note_on,30,0,6,,,,,,,,,5,,,69,0
8256,note_on,2,0,7,,,,,,,,,7,,,52,75
8256,note_on,2,0,6,,,,,,,,,5,,,67,60
8256,note_on,0,0,6,,,,,,,,,5,,,70,60
8256,note_on,32,0,2,,,,,,,,,1,,,67,75
8350,note_on,94,0,6,,,,,,,,,5,,,67,0
8350,note_on,0,0,6,,,,,,,,,5,,,70,0
8350,note_on,94,0,7,,,,,,,,,7,,,52,0
8350,note_on,94,0,2,,,,,,,,,1,,,67,0
8352,note_on,2,0,7,,,,,,,,,7,,,50,75
8352,note_on,0,0,6,,,,,,,,,5,,,70,60
8352,note_on,2,0,6,,,,,,,,,5,,,65,60
8352,note_on,2,0,2,,,,,,,,,1,,,64,75
8398,note_on,46,0,7,,,,,,,,,7,,,50,0
8398,note_on,46,0,6,,,,,,,,,5,,,65,0
8400,note_on,2,0,7,,,,,,,,,7,,,48,75
8400,note_on,2,0,6,,,,,,,,,5,,,64,60
8446,note_on,0,0,6,,,,,,,,,5,,,64,0
8446,note_on,94,0,2,,,,,,,,,1,,,64,0
8446,note_on,46,0,6,,,,,,,,,5,,,70,0
8446,note_on,46,0,7,,,,,,,,,7,,,48,0
8448,note_on,2,0,6,,,,,,,,,5,,,60,60
8448,note_on,2,0,2,,,,,,,,,1,,,65,75
8448,note_on,0,0,6,,,,,,,,,5,,,65,60
8448,note_on,0,0,6,,,,,,,,,5,,,70,60
8448,note_on,2,0,7,,,,,,,,,7,,,53,75
8496,note_on,0,0,2,,,,,,,,,1,,,64,75
8496,note_on,48,0,2,,,,,,,,,1,,,65,0
8542,note_on,46,0,2,,,,,,,,,1,,,64,0
8542,note_on,94,0,7,,,,,,,,,7,,,53,0
8542,note_on,94,0,6,,,,,,,,,5,,,70,0
8544,note_on,2,0,2,,,,,,,,,1,,,65,75
8544,note_on,2,0,7,,,,,,,,,7,,,48,75
8544,note_on,2,0,6,,,,,,,,,5,,,69,60
8608,note_on,0,0,6,,,,,,,,,5,,,65,0
8608,note_on,64,0,6,,,,,,,,,5,,,60,0
8638,note_on,94,0,7,,,,,,,,,7,,,48,0
8638,note_on,94,0,2,,,,,,,,,1,,,65,0
8638,note_on,30,0,6,,,,,,,,,5,,,69,0
8640,note_on,2,0,6,,,,,,,,,5,,,65,60
8640,note_on,2,0,7,,,,,,,,,7,,,45,75
8640,note_on,0,0,6,,,,,,,,,5,,,72,60
8734,note_on,94,0,6,,,,,,,,,5,,,72,0
8734,note_on,94,0,7,,,,,,,,,7,,,45,0
8736,note_on,2,0,6,,,,,,,,,5,,,70,60
8736,note_on,2,0,7,,,,,,,,,7,,,43,75
8782,note_on,46,0,6,,,,,,,,,5,,,70,0
8782,note_on,46,0,7,,,,,,,,,7,,,43,0
8784,note_on,2,0,6,,,,,,,,,5,,,69,60
8784,note_on,2,0,7,,,,,,,,,7,,,41,75
8830,note_on,46,0,7,,,,,,,,,7,,,41,0
8830,note_on,46,0,6,,,,,,,,,5,,,69,0
8832,note_on,194,0,2,,,,,,,,,1,,,70,75
8832,note_on,2,0,7,,,,,,,,,7,,,62,75
8832,note_on,2,0,6,,,,,,,,,5,,,70,60
8926,note_on,94,0,7,,,,,,,,,7,,,62,0
8926,note_on,94,0,6,,,,,,,,,5,,,65,0
8928,note_on,2,0,7,,,,,,,,,7,,,53,75
8928,note_on,2,0,6,,,,,,,,,5,,,67,60
8974,note_on,46,0,6,,,,,,,,,5,,,67,0
8976,note_on,2,0,6,,,,,,,,,5,,,69,60
8992,note_on,16,0,6,,,,,,,,,5,,,70,0
9022,note_on,30,0,6,,,,,,,,,5,,,69,0
9022,note_on,94,0,7,,,,,,,,,7,,,53,0
9024,note_on,2,0,7,,,,,,,,,7,,,50,75
9024,note_on,0,0,6,,,,,,,,,5,,,74,60
9024,note_on,2,0,6,,,,,,,,,5,,,70,60
9088,note_on,256,0,2,,,,,,,,,1,,,70,0
9118,note_on,94,0,7,,,,,,,,,7,,,50,0
9118,note_on,94,0,6,,,,,,,,,5,,,70,0
9120,note_on,2,0,7,,,,,,,,,7,,,52,75
9120,note_on,32,0,2,,,,,,,,,1,,,69,75
9120,note_on,2,0,6,,,,,,,,,5,,,69,60
9166,note_on,46,0,7,,,,,,,,,7,,,52,0
9168,note_on,2,0,7,,,,,,,,,7,,,53,75
9214,note_on,46,0,7,,,,,,,,,7,,,53,0
9214,note_on,94,0,6,,,,,,,,,5,,,69,0
9214,note_on,94,0,2,,,,,,,,,1,,,69,0
9216,note_on,2,0,7,,,,,,,,,7,,,52,75
9216,note_on,2,0,6,,,,,,,,,5,,,68,60
9216,note_on,2,0,2,,,,,,,,,1,,,68,75
9310,note_on,94,0,6,,,,,,,,,5,,,68,0
9310,note_on,0,0,6,,,,,,,,,5,,,74,0
9310,note_on,94,0,7,,,,,,,,,7,,,52,0
9312,note_on,2,0,6,,,,,,,,,5,,,68,60
9312,note_on,0,0,6,,,,,,,,,5,,,71,60
9312,note_on,0,0,2,,,,,,,,,1,,,64,75
9312,note_on,96,0,2,,,,,,,,,1,,,68,0
9312,note_on,2,0,7,,,,,,,,,7,,,64,75
9406,note_on,94,0,6,,,,,,,,,5,,,68,0
9406,note_on,0,0,6,,,,,,,,,5,,,71,0
9406,note_on,94,0,2,,,,,,,,,1,,,64,0
9406,note_on,94,0,7,,,,,,,,,7,,,64,0
9408,note_on,2,0,6,,,,,,,,,5,,,69,60
9408,note_on,0,0,6,,,,,,,,,5,,,72,60
9408,note_on,2,0,2,,,,,,,,,1,,,69,75
9408,note_on,2,0,7,,,,,,,,,7,,,60,75
9502,note_on,94,0,6,,,,,,,,,5,,,69,0
9502,note_on,0,0,6,,,,,,,,,5,,,72,0
9502,note_on,94,0,7,,,,,,,,,7,,,60,0
9504,note_on,2,0,7,,,,,,,,,7,,,59,75
9504,note_on,0,0,6,,,,,,,,,5,,,74,60
9504,note_on,2,0,6,,,,,,,,,5,,,71,60
9550,note_on,46,0,6,,,,,,,,,5,,,71,0
9550,note_on,0,0,6,,,,,,,,,5,,,74,0
9550,note_on,46,0,7,,,,,,,,,7,,,59,0
9552,note_on,2,0,6,,,,,,,,,5,,,72,60
9552,note_on,0,0,6,,,,,,,,,5,,,76,60
9552,note_on,2,0,7,,,,,,,,,7,,,57,75
9598,note_on,46,0,7,,,,,,,,,7,,,57,0
9598,note_on,46,0,6,,,,,,,,,5,,,72,0
9598,note_on,0,0,6,,,,,,,,,5,,,76,0
9600,note_on,2,0,7,,,,,,,,,7,,,62,75
9600,note_on,2,0,6,,,,,,,,,5,,,69,60
9600,note_on,0,0,6,,,,,,,,,5,,,71,60
9694,note_on,94,0,7,,,,,,,,,7,,,62,0
9694,note_on,94,0,6,,,,,,,,,5,,,71,0
9696,note_on,2,0,7,,,,,,,,,7,,,59,75
9696,note_on,2,0,6,,,,,,,,,5,,,74,60
9742,note_on,46,0,6,,,,,,,,,5,,,74,0
9744,note_on,2,0,6,,,,,,,,,5,,,72,60
9760,note_on,16,0,6,,,,,,,,,5,,,69,0
9774,note_on,366,0,2,,,,,,,,,1,,,69,0
9776,note_on,2,0,2,,,,,,,,,1,,,68,75
9790,note_on,94,0,7,,,,,,,,,7,,,59,0
9790,note_on,30,0,6,,,,,,,,,5,,,72,0
9792,note_on,0,0,6,,,,,,,,,5,,,71,60
9792,note_on,2,0,7,,,,,,,,,7,,,64,75
9792,note_on,2,0,6,,,,,,,,,5,,,68,60
9806,note_on,30,0,2,,,,,,,,,1,,,68,0
9808,note_on,2,0,2,,,,,,,,,1,,,69,75
9838,note_on,30,0,2,,,,,,,,,1,,,69,0
9840,note_on,2,0,2,,,,,,,,,1,,,68,75
9886,note_on,94,0,7,,,,,,,,,7,,,64,0
9888,note_on,2,0,7,,,,,,,,,7,,,52,75
9934,note_on,94,0,2,,,,,,,,,1,,,68,0
9934,note_on,142,0,6,,,,,,,,,5,,,71,0
9936,note_on,2,0,2,,,,,,,,,1,,,69,75
9936,note_on,2,0,6,,,,,,,,,5,,,69,60
9952,note_on,16,0,6,,,,,,,,,5,,,68,0
9982,note_on,30,0,6,,,,,,,,,5,,,69,0
9982,note_on,94,0,7,,,,,,,,,7,,,52,0
9982,note_on,46,0,2,,,,,,,,,1,,,69,0
9984,note_on,0,0,6,,,,,,,,,5,,,64,60
9984,note_on,0,0,6,,,,,,,,,5,,,69,60
9984,note_on,2,0,7,,,,,,,,,7,,,45,75
9984,note_on,2,0,2,,,,,,,,,1,,,69,75
9984,note_on,2,0,6,,,,,,,,,5,,,60,60
10144,note_on,160,0,7,,,,,,,,,7,,,45,0
10144,note_on,0,0,6,,,,,,,,,5,,,69,0
10144,note_on,0,0,6,,,,,,,,,5,,,64,0
10144,note_on,160,0,6,,,,,,,,,5,,,60,0
10144,note_on,160,0,2,,,,,,,,,1,,,69,0
10272,note_on,128,0,2,,,,,,,,,1,,,66,60
10272,note_on,128,0,7,,,,,,,,,7,,,50,60
10272,note_on,10272,0,5,,,,,,,,,6,,,69,60
10272,note_on,0,0,5,,,,,,,,,6,,,72,60
10272,note_on,0,0,5,,,,,,,,,6,,,78,60
10272,note_on,10272,0,4,,,,,,,,,3,,,50,60
10272,note_on,10272,0,3,,,,,,,,,2,,,57,60
10272,note_on,10272,0,1,,,,,,,,,0,,,72,60
10366,note_on,0,0,5,,,,,,,,,6,,,72,0
10366,note_on,0,0,5,,,,,,,,,6,,,78,0
10366,note_on,94,0,2,,,,,,,,,1,,,66,0
10366,note_on,94,0,3,,,,,,,,,2,,,57,0
10366,note_on,94,0,5,,,,,,,,,6,,,69,0
10366,note_on,94,0,1,,,,,,,,,0,,,72,0
10366,note_on,94,0,4,,,,,,,,,3,,,50,0
10366,note_on,94,0,7,,,,,,,,,7,,,50,0
10368,note_on,2,0,3,,,,,,,,,2,,,57,60
10368,note_on,2,0,4,,,,,,,,,3,,,50,60
10368,note_on,2,0,2,,,,,,,,,1,,,66,60
10368,note_on,2,0,1,,,,,,,,,0,,,72,60
10368,note_on,0,0,5,,,,,,,,,6,,,78,60
10368,note_on,0,0,5,,,,,,,,,6,,,72,60
10368,note_on,2,0,5,,,,,,,,,6,,,69,60
10368,note_on,2,0,7,,,,,,,,,7,,,50,60
10528,note_on,160,0,7,,,,,,,,,7,,,50,0
10528,note_on,160,0,2,,,,,,,,,1,,,66,0
10528,note_on,160,0,3,,,,,,,,,2,,,57,0
10528,note_on,0,0,5,,,,,,,,,6,,,72,0
10528,note_on,160,0,5,,,,,,,,,6,,,69,0
10528,note_on,0,0,5,,,,,,,,,6,,,78,0
10528,note_on,160,0,4,,,,,,,,,3,,,50,0
10528,note_on,160,0,1,,,,,,,,,0,,,72,0
10560,note_on,32,0,1,,,,,,,,,0,,,72,60
10560,note_on,32,0,2,,,,,,,,,1,,,66,60
10560,note_on,32,0,5,,,,,,,,,6,,,69,60
10560,note_on,32,0,3,,,,,,,,,2,,,57,60
10560,note_on,0,0,5,,,,,,,,,6,,,72,60
10560,note_on,0,0,5,,,,,,,,,6,,,78,60
10560,note_on,32,0,7,,,,,,,,,7,,,50,60
10560,note_on,32,0,4,,,,,,,,,3,,,50,60
10654,note_on,94,0,1,,,,,,,,,0,,,72,0
10654,note_on,94,0,5,,,,,,,,,6,,,69,0
10654,note_on,0,0,5,,,,,,,,,6,,,72,0
10654,note_on,0,0,5,,,,,,,,,6,,,78,0
10654,note_on,94,0,7,,,,,,,,,7,,,50,0
10654,note_on,94,0,2,,,,,,,,,1,,,66,0
10654,note_on,94,0,4,,,,,,,,,3,,,50,0
10654,note_on,94,0,3,,,,,,,,,2,,,57,0
10656,note_on,2,0,1,,,,,,,,,0,,,72,60
10656,note_on,2,0,4,,,,,,,,,3,,,50,60
10656,note_on,2,0,3,,,,,,,,,2,,,57,60
10656,note_on,2,0,2,,,,,,,,,1,,,66,60
10656,note_on,0,0,5,,,,,,,,,6,,,78,60
10656,note_on,0,0,5,,,,,,,,,6,,,72,60
10656,note_on,2,0,5,,,,,,,,,6,,,69,60
10656,note_on,2,0,7,,,,,,,,,7,,,50,60
10750,note_on,94,0,5,,,,,,,,,6,,,69,0
10750,note_on,0,0,5,,,,,,,,,6,,,78,0
10750,note_on,0,0,5,,,,,,,,,6,,,72,0
10750,note_on,94,0,3,,,,,,,,,2,,,57,0
10750,note_on,94,0,1,,,,,,,,,0,,,72,0
10750,note_on,94,0,7,,,,,,,,,7,,,50,0
10750,note_on,94,0,2,,,,,,,,,1,,,66,0
10750,note_on,94,0,4,,,,,,,,,3,,,50,0
10752,note_on,2,0,2,,,,,,,,,1,,,62,60
10752,note_on,2,0,7,,,,,,,,,7,,,55,60
10752,note_on,0,0,5,,,,,,,,,6,,,74,60
10752,note_on,2,0,3,,,,,,,,,2,,,57,60
10752,note_on,2,0,4,,,,,,,,,3,,,55,60
10752,note_on,0,0,5,,,,,,,,,6,,,72,60
10752,note_on,2,0,5,,,,,,,,,6,,,69,60
10752,note_on,2,0,1,,,,,,,,,0,,,72,60
10912,note_on,0,0,5,,,,,,,,,6,,,72,0
10912,note_on,160,0,5,,,,,,,,,6,,,69,0
10912,note_on,160,0,1,,,,,,,,,0,,,72,0
10912,note_on,160,0,2,,,,,,,,,1,,,62,0
10912,note_on,0,0,5,,,,,,,,,6,,,74,0
10912,note_on,160,0,3,,,,,,,,,2,,,57,0
10912,note_on,160,0,7,,,,,,,,,7,,,55,0
10912,note_on,160,0,4,,,,,,,,,3,,,55,0
10944,note_on,0,0,5,,,,,,,,,6,,,74,60
10944,note_on,32,0,2,,,,,,,,,1,,,62,60
10944,note_on,0,0,5,,,,,,,,,6,,,70,60
10944,note_on,32,0,4,,,,,,,,,3,,,43,60
10944,note_on,32,0,7,,,,,,,,,7,,,43,60
10944,note_on,32,0,3,,,,,,,,,2,,,55,60
10944,note_on,32,0,1,,,,,,,,,0,,,70,60
10944,note_on,32,0,5,,,,,,,,,6,,,67,60
11104,note_on,160,0,7,,,,,,,,,7,,,43,0
11104,note_on,160,0,2,,,,,,,,,1,,,62,0
11104,note_on,0,0,5,,,,,,,,,6,,,74,0
11104,note_on,160,0,3,,,,,,,,,2,,,55,0
11104,note_on,160,0,1,,,,,,,,,0,,,70,0
11104,note_on,160,0,5,,,,,,,,,6,,,67,0
11104,note_on,0,0,5,,,,,,,,,6,,,70,0
11104,note_on,160,0,4,,,,,,,,,3,,,43,0
11136,note_on,32,0,7,,,,,,,,,7,,,46,60
11136,note_on,32,0,2,,,,,,,,,1,,,67,92
11136,note_on,992,0,6,,,,,,,,,5,,,62,60
11136,note_on,0,0,6,,,,,,,,,5,,,67,60
11296,note_on,160,0,2,,,,,,,,,1,,,67,0
11296,note_on,160,0,7,,,,,,,,,7,,,46,0
11296,note_on,0,0,6,,,,,,,,,5,,,67,0
11296,note_on,160,0,6,,,,,,,,,5,,,62,0
11328,note_on,32,0,2,,,,,,,,,1,,,70,92
11376,note_on,0,0,2,,,,,,,,,1,,,69,92
11376,note_on,48,0,2,,,,,,,,,1,,,70,0
11422,note_on,46,0,2,,,,,,,,,1,,,69,0
11424,note_on,2,0,2,,,,,,,,,1,,,67,92
11472,note_on,48,0,2,,,,,,,,,1,,,67,0
11472,note_on,0,0,2,,,,,,,,,1,,,65,92
11518,note_on,46,0,2,,,,,,,,,1,,,65,0
11520,note_on,224,0,6,,,,,,,,,5,,,64,60
11520,note_on,2,0,2,,,,,,,,,1,,,64,92
11520,note_on,224,0,7,,,,,,,,,7,,,60,60
11614,note_on,94,0,2,,,,,,,,,1,,,64,0
11614,note_on,94,0,7,,,,,,,,,7,,,60,0
11616,note_on,2,0,7,,,,,,,,,7,,,55,60
11616,note_on,96,0,6,,,,,,,,,5,,,67,60
11616,note_on,2,0,2,,,,,,,,,1,,,62,92
11710,note_on,94,0,7,,,,,,,,,7,,,55,0
11710,note_on,94,0,6,,,,,,,,,5,,,64,0
11710,note_on,0,0,6,,,,,,,,,5,,,67,0
11710,note_on,94,0,2,,,,,,,,,1,,,62,0
11712,note_on,2,0,2,,,,,,,,,1,,,60,92
11712,note_on,2,0,6,,,,,,,,,5,,,67,60
11712,note_on,0,0,6,,,,,,,,,5,,,72,60
11712,note_on,2,0,7,,,,,,,,,7,,,52,60
11806,note_on,94,0,2,,,,,,,,,1,,,60,0
11806,note_on,0,0,6,,,,,,,,,5,,,72,0
11806,note_on,94,0,7,,,,,,,,,7,,,52,0
11806,note_on,94,0,6,,,,,,,,,5,,,67,0
11808,note_on,2,0,2,,,,,,,,,1,,,70,92
11808,note_on,2,0,6,,,,,,,,,5,,,65,60
11808,note_on,2,0,7,,,,,,,,,7,,,50,60
11808,note_on,0,0,6,,,,,,,,,5,,,70,60
11854,note_on,46,0,7,,,,,,,,,7,,,50,0
11854,note_on,46,0,6,,,,,,,,,5,,,65,0
11856,note_on,2,0,7,,,,,,,,,7,,,48,60
11856,note_on,2,0,6,,,,,,,,,5,,,64,60
11902,note_on,46,0,7,,,,,,,,,7,,,48,0
11902,note_on,46,0,6,,,,,,,,,5,,,70,0
11902,note_on,0,0,6,,,,,,,,,5,,,64,0
11902,note_on,94,0,2,,,,,,,,,1,,,70,0
11904,note_on,0,0,6,,,,,,,,,5,,,69,60
11904,note_on,2,0,7,,,,,,,,,7,,,53,60
11904,note_on,2,0,6,,,,,,,,,5,,,65,60
11904,note_on,2,0,2,,,,,,,,,1,,,69,92
11952,note_on,48,0,2,,,,,,,,,1,,,69,0
11952,note_on,0,0,2,,,,,,,,,1,,,67,92
11998,note_on,46,0,2,,,,,,,,,1,,,67,0
12000,note_on,2,0,2,,,,,,,,,1,,,69,92
12064,note_on,160,0,7,,,,,,,,,7,,,53,0
12064,note_on,0,0,6,,,,,,,,,5,,,69,0
12064,note_on,160,0,6,,,,,,,,,5,,,65,0
12094,note_on,94,0,2,,,,,,,,,1,,,69,0
12192,note_on,1088,0,5,,,,,,,,,6,,,69,60
12192,note_on,0,0,5,,,,,,,,,6,,,72,60
12192,note_on,0,0,5,,,,,,,,,6,,,77,60
12192,note_on,1088,0,4,,,,,,,,,3,,,57,60
12192,note_on,1088,0,3,,,,,,,,,2,,,60,60
12192,note_on,98,0,2,,,,,,,,,1,,,65,60
12192,note_on,128,0,7,,,,,,,,,7,,,57,60
12192,note_on,1088,0,1,,,,,,,,,0,,,72,60
12286,note_on,94,0,1,,,,,,,,,0,,,72,0
12286,note_on,94,0,5,,,,,,,,,6,,,69,0
12286,note_on,0,0,5,,,,,,,,,6,,,72,0
12286,note_on,0,0,5,,,,,,,,,6,,,77,0
12286,note_on,94,0,3,,,,,,,,,2,,,60,0
12286,note_on,94,0,4,,,,,,,,,3,,,57,0
12286,note_on,94,0,7,,,,,,,,,7,,,57,0
12286,note_on,94,0,2,,,,,,,,,1,,,65,0
12288,note_on,2,0,7,,,,,,,,,7,,,57,60
12288,note_on,2,0,4,,,,,,,,,3,,,57,60
12288,note_on,2,0,1,,,,,,,,,0,,,75,60
12288,note_on,2,0,2,,,,,,,,,1,,,65,60
12288,note_on,2,0,3,,,,,,,,,2,,,60,60
12288,note_on,0,0,5,,,,,,,,,6,,,77,60
12288,note_on,0,0,5,,,,,,,,,6,,,75,60
12288,note_on,2,0,5,,,,,,,,,6,,,72,60
12382,note_on,94,0,7,,,,,,,,,7,,,57,0
12384,note_on,2,0,7,,,,,,,,,7,,,53,60
12448,note_on,160,0,4,,,,,,,,,3,,,57,0
12448,note_on,160,0,3,,,,,,,,,2,,,60,0
12448,note_on,160,0,5,,,,,,,,,6,,,72,0
12448,note_on,0,0,5,,,,,,,,,6,,,77,0
12448,note_on,160,0,2,,,,,,,,,1,,,65,0
12448,note_on,0,0,5,,,,,,,,,6,,,75,0
12448,note_on,160,0,1,,,,,,,,,0,,,75,0
12478,note_on,94,0,7,,,,,,,,,7,,,53,0
12480,note_on,32,0,1,,,,,,,,,0,,,75,60
12480,note_on,32,0,2,,,,,,,,,1,,,65,60
12480,note_on,0,0,5,,,,,,,,,6,,,75,60
12480,note_on,32,0,3,,,,,,,,,2,,,60,60
12480,note_on,32,0,4,,,,,,,,,3,,,57,60
12480,note_on,32,0,5,,,,,,,,,6,,,72,60
12480,note_on,2,0,7,,,,,,,,,7,,,48,60
12480,note_on,0,0,5,,,,,,,,,6,,,77,60
12574,note_on,0,0,5,,,,,,,,,6,,,77,0
12574,note_on,94,0,2,,,,,,,,,1,,,65,0
12574,note_on,94,0,5,,,,,,,,,6,,,72,0
12574,note_on,94,0,3,,,,,,,,,2,,,60,0
12574,note_on,0,0,5,,,,,,,,,6,,,75,0
12574,note_on,94,0,4,,,,,,,,,3,,,57,0
12574,note_on,94,0,1,,,,,,,,,0,,,75,0
12574,note_on,94,0,7,,,,,,,,,7,,,48,0
12576,note_on,2,0,7,,,,,,,,,7,,,45,60
12576,note_on,2,0,1,,,,,,,,,0,,,75,60
12576,note_on,2,0,4,,,,,,,,,3,,,57,60
12576,note_on,2,0,3,,,,,,,,,2,,,60,60
12576,note_on,0,0,5,,,,,,,,,6,,,77,60
12576,note_on,0,0,5,,,,,,,,,6,,,75,60
12576,note_on,2,0,2,,,,,,,,,1,,,65,60
12576,note_on,2,0,5,,,,,,,,,6,,,72,60
12670,note_on,94,0,3,,,,,,,,,2,,,60,0
12670,note_on,94,0,4,,,,,,,,,3,,,57,0
12670,note_on,94,0,5,,,,,,,,,6,,,72,0
12670,note_on,94,0,1,,,,,,,,,0,,,75,0
12670,note_on,0,0,5,,,,,,,,,6,,,75,0
12670,note_on,0,0,5,,,,,,,,,6,,,77,0
12670,note_on,94,0,2,,,,,,,,,1,,,65,0
12670,note_on,94,0,7,,,,,,,,,7,,,45,0
12672,note_on,2,0,3,,,,,,,,,2,,,58,60
12672,note_on,2,0,5,,,,,,,,,6,,,70,60
12672,note_on,0,0,5,,,,,,,,,6,,,74,60
12672,note_on,0,0,5,,,,,,,,,6,,,77,60
12672,note_on,2,0,7,,,,,,,,,7,,,58,60
12672,note_on,2,0,4,,,,,,,,,3,,,58,60
12672,note_on,2,0,2,,,,,,,,,1,,,65,60
12672,note_on,2,0,1,,,,,,,,,0,,,74,60
12766,note_on,94,0,7,,,,,,,,,7,,,58,0
12768,note_on,2,0,7,,,,,,,,,7,,,53,60
12832,note_on,160,0,2,,,,,,,,,1,,,65,0
12832,note_on,160,0,1,,,,,,,,,0,,,74,0
12832,note_on,0,0,5,,,,,,,,,6,,,74,0
12832,note_on,160,0,3,,,,,,,,,2,,,58,0
12832,note_on,160,0,5,,,,,,,,,6,,,70,0
12832,note_on,0,0,5,,,,,,,,,6,,,77,0
12832,note_on,160,0,4,,,,,,,,,3,,,58,0
12862,note_on,94,0,7,,,,,,,,,7,,,53,0
12864,note_on,2,0,7,,,,,,,,,7,,,50,60
12864,note_on,32,0,5,,,,,,,,,6,,,70,60
12864,note_on,0,0,5,,,,,,,,,6,,,74,60
12864,note_on,0,0,5,,,,,,,,,6,,,77,60
12864,note_on,32,0,4,,,,,,,,,3,,,46,60
12864,note_on,32,0,3,,,,,,,,,2,,,58,60
12864,note_on,32,0,2,,,,,,,,,1,,,65,60
12864,note_on,32,0,1,,,,,,,,,0,,,74,60
12958,note_on,94,0,7,,,,,,,,,7,,,50,0
12960,note_on,2,0,7,,,,,,,,,7,,,46,60
13024,note_on,160,0,5,,,,,,,,,6,,,70,0
13024,note_on,0,0,5,,,,,,,,,6,,,74,0
13024,note_on,0,0,5,,,,,,,,,6,,,77,0
13024,note_on,160,0,1,,,,,,,,,0,,,74,0
13024,note_on,160,0,3,,,,,,,,,2,,,58,0
13024,note_on,160,0,4,,,,,,,,,3,,,46,0
13024,note_on,160,0,2,,,,,,,,,1,,,65,0
13054,note_on,94,0,7,,,,,,,,,7,,,46,0
13056,note_on,32,0,2,,,,,,,,,1,,,65,92
13056,note_on,0,0,6,,,,,,,,,5,,,74,60
13056,note_on,992,0,6,,,,,,,,,5,,,65,60
13056,note_on,2,0,7,,,,,,,,,7,,,46,60
13216,note_on,0,0,6,,,,,,,,,5,,,74,0
13216,note_on,160,0,6,,,,,,,,,5,,,65,0
13216,note_on,160,0,7,,,,,,,,,7,,,46,0
13216,note_on,160,0,2,,,,,,,,,1,,,65,0
13248,note_on,32,0,2,,,,,,,,,1,,,68,92
13296,note_on,48,0,2,,,,,,,,,1,,,68,0
13296,note_on,0,0,2,,,,,,,,,1,,,67,92
13342,note_on,46,0,2,,,,,,,,,1,,,67,0
13344,note_on,2,0,2,,,,,,,,,1,,,65,92
13392,note_on,0,0,2,,,,,,,,,1,,,63,92
13392,note_on,48,0,2,,,,,,,,,1,,,65,0
13438,note_on,46,0,2,,,,,,,,,1,,,63,0
13440,note_on,2,0,2,,,,,,,,,1,,,62,92
13440,note_on,224,0,7,,,,,,,,,7,,,58,60
13440,note_on,224,0,6,,,,,,,,,5,,,62,60
13534,note_on,94,0,7,,,,,,,,,7,,,58,0
13534,note_on,94,0,2,,,,,,,,,1,,,62,0
13536,note_on,96,0,6,,,,,,,,,5,,,65,60
13536,note_on,2,0,7,,,,,,,,,7,,,53,60
13536,note_on,2,0,2,,,,,,,,,1,,,60,92
13630,note_on,94,0,7,,,,,,,,,7,,,53,0
13630,note_on,0,0,6,,,,,,,,,5,,,65,0
13630,note_on,94,0,2,,,,,,,,,1,,,60,0
13630,note_on,94,0,6,,,,,,,,,5,,,62,0
13632,note_on,0,0,6,,,,,,,,,5,,,70,60
13632,note_on,2,0,7,,,,,,,,,7,,,50,60
13632,note_on,2,0,6,,,,,,,,,5,,,65,60
13632,note_on,2,0,2,,,,,,,,,1,,,58,92
13726,note_on,94,0,2,,,,,,,,,1,,,58,0
13726,note_on,94,0,7,,,,,,,,,7,,,50,0
13726,note_on,0,0,6,,,,,,,,,5,,,70,0
13726,note_on,94,0,6,,,,,,,,,5,,,65,0
13728,note_on,2,0,7,,,,,,,,,7,,,48,60
13728,note_on,2,0,6,,,,,,,,,5,,,63,60
13728,note_on,0,0,6,,,,,,,,,5,,,68,60
13728,note_on,2,0,2,,,,,,,,,1,,,68,92
13774,note_on,46,0,6,,,,,,,,,5,,,63,0
13774,note_on,46,0,7,,,,,,,,,7,,,48,0
13776,note_on,2,0,6,,,,,,,,,5,,,62,60
13776,note_on,2,0,7,,,,,,,,,7,,,46,60
13822,note_on,94,0,2,,,,,,,,,1,,,68,0
13822,note_on,0,0,6,,,,,,,,,5,,,62,0
13822,note_on,46,0,6,,,,,,,,,5,,,68,0
13822,note_on,46,0,7,,,,,,,,,7,,,46,0
13824,note_on,0,0,6,,,,,,,,,5,,,67,60
13824,note_on,2,0,7,,,,,,,,,7,,,51,60
13824,note_on,2,0,2,,,,,,,,,1,,,67,92
13824,note_on,2,0,6,,,,,,,,,5,,,63,60
13966,note_on,142,0,2,,,,,,,,,1,,,67,0
13968,note_on,2,0,2,,,,,,,,,1,,,65,92
13984,note_on,160,0,7,,,,,,,,,7,,,51,0
13984,note_on,0,0,6,,,,,,,,,5,,,67,0
13984,note_on,160,0,6,,,,,,,,,5,,,63,0
14014,note_on,46,0,2,,,,,,,,,1,,,65,0
14016,note_on,2,0,2,,,,,,,,,1,,,67,92
14110,note_on,94,0,2,,,,,,,,,1,,,67,0
14112,note_on,128,0,7,,,,,,,,,7,,,55,75
14112,note_on,1088,0,3,,,,,,,,,2,,,58,75
14112,note_on,0,0,5,,,,,,,,,6,,,75,75
14112,note_on,1088,0,5,,,,,,,,,6,,,67,75
14112,note_on,0,0,5,,,,,,,,,6,,,70,75
14112,note_on,1088,0,4,,,,,,,,,3,,,55,75
14112,note_on,1088,0,1,,,,,,,,,0,,,70,75
14112,note_on,2,0,2,,,,,,,,,1,,,63,75
14206,note_on,94,0,7,,,,,,,,,7,,,55,0
14206,note_on,0,0,5,,,,,,,,,6,,,75,0
14206,note_on,94,0,5,,,,,,,,,6,,,67,0
14206,note_on,94,0,1,,,,,,,,,0,,,70,0
14206,note_on,94,0,2,,,,,,,,,1,,,63,0
14206,note_on,94,0,4,,,,,,,,,3,,,55,0
14206,note_on,0,0,5,,,,,,,,,6,,,70,0
14206,note_on,94,0,3,,,,,,,,,2,,,58,0
14208,note_on,2,0,3,,,,,,,,,2,,,58,75
14208,note_on,2,0,1,,,,,,,,,0,,,73,75
14208,note_on,2,0,4,,,,,,,,,3,,,55,75
14208,note_on,0,0,5,,,,,,,,,6,,,73,75
14208,note_on,2,0,5,,,,,,,,,6,,,70,75
14208,note_on,2,0,7,,,,,,,,,7,,,55,75
14208,note_on,0,0,5,,,,,,,,,6,,,75,75
14208,note_on,2,0,2,,,,,,,,,1,,,63,75
14302,note_on,94,0,7,,,,,,,,,7,,,55,0
14304,note_on,2,0,7,,,,,,,,,7,,,51,75
14368,note_on,0,0,5,,,,,,,,,6,,,75,0
14368,note_on,0,0,5,,,,,,,,,6,,,73,0
14368,note_on,160,0,5,,,,,,,,,6,,,70,0
14368,note_on,160,0,3,,,,,,,,,2,,,58,0
14368,note_on,160,0,2,,,,,,,,,1,,,63,0
14368,note_on,160,0,4,,,,,,,,,3,,,55,0
14368,note_on,160,0,1,,,,,,,,,0,,,73,0
14398,note_on,94,0,7,,,,,,,,,7,,,51,0
14400,note_on,0,0,5,,,,,,,,,6,,,75,75
14400,note_on,0,0,5,,,,,,,,,6,,,73,75
14400,note_on,32,0,5,,,,,,,,,6,,,70,75
14400,note_on,32,0,2,,,,,,,,,1,,,63,75
14400,note_on,32,0,3,,,,,,,,,2,,,58,75
14400,note_on,32,0,1,,,,,,,,,0,,,73,75
14400,note_on,2,0,7,,,,,,,,,7,,,46,75
14400,note_on,32,0,4,,,,,,,,,3,,,55,75
14494,note_on,94,0,4,,,,,,,,,3,,,55,0
14494,note_on,94,0,7,,,,,,,,,7,,,46,0
14494,note_on,0,0,5,,,,,,,,,6,,,75,0
14494,note_on,0,0,5,,,,,,,,,6,,,73,0
14494,note_on,94,0,5,,,,,,,,,6,,,70,0
14494,note_on,94,0,3,,,,,,,,,2,,,58,0
14494,note_on,94,0,2,,,,,,,,,1,,,63,0
14494,note_on,94,0,1,,,,,,,,,0,,,73,0
14496,note_on,2,0,3,,,,,,,,,2,,,58,75
14496,note_on,2,0,2,,,,,,,,,1,,,63,75
14496,note_on,2,0,1,,,,,,,,,0,,,73,75
14496,note_on,0,0,5,,,,,,,,,6,,,75,75
14496,note_on,0,0,5,,,,,,,,,6,,,73,75
14496,note_on,2,0,4,,,,,,,,,3,,,55,75
14496,note_on,2,0,7,,,,,,,,,7,,,43,75
14496,note_on,2,0,5,,,,,,,,,6,,,70,75
14590,note_on,94,0,2,,,,,,,,,1,,,63,0
14590,note_on,94,0,3,,,,,,,,,2,,,58,0
14590,note_on,94,0,5,,,,,,,,,6,,,70,0
14590,note_on,0,0,5,,,,,,,,,6,,,73,0
14590,note_on,0,0,5,,,,,,,,,6,,,75,0
14590,note_on,94,0,4,,,,,,,,,3,,,55,0
14590,note_on,94,0,7,,,,,,,,,7,,,43,0
14590,note_on,94,0,1,,,,,,,,,0,,,73,0
14592,note_on,2,0,3,,,,,,,,,2,,,56,75
14592,note_on,2,0,7,,,,,,,,,7,,,56,75
14592,note_on,0,0,5,,,,,,,,,6,,,75,75
14592,note_on,0,0,5,,,,,,,,,6,,,72,75
14592,note_on,2,0,5,,,,,,,,,6,,,68,75
14592,note_on,2,0,2,,,,,,,,,1,,,63,75
14592,note_on,2,0,4,,,,,,,,,3,,,56,75
14592,note_on,2,0,1,,,,,,,,,0,,,72,75
14686,note_on,94,0,7,,,,,,,,,7,,,56,0
14688,note_on,2,0,7,,,,,,,,,7,,,51,75
14752,note_on,160,0,3,,,,,,,,,2,,,56,0
14752,note_on,160,0,5,,,,,,,,,6,,,68,0
14752,note_on,160,0,1,,,,,,,,,0,,,72,0
14752,note_on,160,0,2,,,,,,,,,1,,,63,0
14752,note_on,0,0,5,,,,,,,,,6,,,75,0
14752,note_on,160,0,4,,,,,,,,,3,,,56,0
14752,note_on,0,0,5,,,,,,,,,6,,,72,0
14782,note_on,94,0,7,,,,,,,,,7,,,51,0
14784,note_on,32,0,2,,,,,,,,,1,,,63,75
14784,note_on,32,0,4,,,,,,,,,3,,,44,75
14784,note_on,32,0,1,,,,,,,,,0,,,72,75
14784,note_on,32,0,5,,,,,,,,,6,,,68,75
14784,note_on,0,0,5,,,,,,,,,6,,,72,75
14784,note_on,32,0,3,,,,,,,,,2,,,56,75
14784,note_on,0,0,5,,,,,,,,,6,,,75,75
14784,note_on,2,0,7,,,,,,,,,7,,,48,75
14878,note_on,94,0,7,,,,,,,,,7,,,48,0
14880,note_on,2,0,7,,,,,,,,,7,,,44,75
14944,note_on,0,0,5,,,,,,,,,6,,,75,0
14944,note_on,160,0,3,,,,,,,,,2,,,56,0
14944,note_on,160,0,2,,,,,,,,,1,,,63,0
14944,note_on,160,0,5,,,,,,,,,6,,,68,0
14944,note_on,0,0,5,,,,,,,,,6,,,72,0
14944,note_on,160,0,1,,,,,,,,,0,,,72,0
14944,note_on,160,0,4,,,,,,,,,3,,,44,0
14974,note_on,94,0,7,,,,,,,,,7,,,44,0
14976,note_on,32,0,2,,,,,,,,,1,,,65,92
14976,note_on,2,0,7,,,,,,,,,7,,,53,75
14976,note_on,0,0,6,,,,,,,,,5,,,69,60
14976,note_on,0,0,6,,,,,,,,,5,,,65,60
14976,note_on,992,0,6,,,,,,,,,5,,,60,60
15136,note_on,160,0,2,,,,,,,,,1,,,65,0
15136,note_on,0,0,6,,,,,,,,,5,,,69,0
15136,note_on,0,0,6,,,,,,,,,5,,,65,0
15136,note_on,160,0,6,,,,,,,,,5,,,60,0
15136,note_on,160,0,7,,,,,,,,,7,,,53,0
15168,note_on,32,0,2,,,,,,,,,1,,,68,92
15216,note_on,0,0,2,,,,,,,,,1,,,67,92
15216,note_on,48,0,2,,,,,,,,,1,,,68,0
15262,note_on,46,0,2,,,,,,,,,1,,,67,0
15264,note_on,2,0,2,,,,,,,,,1,,,65,92
15312,note_on,0,0,2,,,,,,,,,1,,,63,92
15312,note_on,48,0,2,,,,,,,,,1,,,65,0
15358,note_on,46,0,2,,,,,,,,,1,,,63,0
15360,note_on,224,0,7,,,,,,,,,7,,,58,75
15360,note_on,224,0,6,,,,,,,,,5,,,62,60
15360,note_on,0,0,6,,,,,,,,,5,,,70,60
15360,note_on,2,0,2,,,,,,,,,1,,,62,92
15454,note_on,94,0,7,,,,,,,,,7,,,58,0
15454,note_on,94,0,6,,,,,,,,,5,,,62,0
15454,note_on,0,0,6,,,,,,,,,5,,,70,0
15456,note_on,2,0,7,,,,,,,,,7,,,53,75
15456,note_on,2,0,6,,,,,,,,,5,,,65,60
15456,note_on,0,0,6,,,,,,,,,5,,,72,60
15520,note_on,160,0,2,,,,,,,,,1,,,62,0
15550,note_on,0,0,6,,,,,,,,,5,,,72,0
15550,note_on,94,0,6,,,,,,,,,5,,,65,0
15550,note_on,94,0,7,,,,,,,,,7,,,53,0
15552,note_on,0,0,6,,,,,,,,,5,,,74,60
15552,note_on,2,0,7,,,,,,,,,7,,,50,75
15552,note_on,2,0,6,,,,,,,,,5,,,70,60
15552,note_on,32,0,2,,,,,,,,,1,,,62,92
15646,note_on,94,0,6,,,,,,,,,5,,,70,0
15646,note_on,94,0,7,,,,,,,,,7,,,50,0
15648,note_on,2,0,7,,,,,,,,,7,,,48,75
15648,note_on,2,0,6,,,,,,,,,5,,,69,60
15694,note_on,46,0,7,,,,,,,,,7,,,48,0
15696,note_on,2,0,7,,,,,,,,,7,,,46,75
15712,note_on,64,0,6,,,,,,,,,5,,,74,0
15712,note_on,160,0,2,,,,,,,,,1,,,62,0
15742,note_on,46,0,7,,,,,,,,,7,,,46,0
15742,note_on,30,0,6,,,,,,,,,5,,,69,0
15744,note_on,2,0,7,,,,,,,,,7,,,47,75
15744,note_on,0,0,6,,,,,,,,,5,,,74,60
15744,note_on,2,0,6,,,,,,,,,5,,,67,60
15744,note_on,32,0,2,,,,,,,,,1,,,67,92
15904,note_on,0,0,6,,,,,,,,,5,,,74,0
15904,note_on,160,0,6,,,,,,,,,5,,,67,0
15904,note_on,160,0,2,,,,,,,,,1,,,67,0
15904,note_on,160,0,7,,,,,,,,,7,,,47,0
15936,note_on,32,0,2,,,,,,,,,1,,,71,108
15984,note_on,0,0,2,,,,,,,,,1,,,69,108
15984,note_on,48,0,2,,,,,,,,,1,,,71,0
16030,note_on,46,0,2,,,,,,,,,1,,,69,0
16032,note_on,2,0,2,,,,,,,,,1,,,67,108
16080,note_on,0,0,2,,,,,,,,,1,,,65,108
16080,note_on,48,0,2,,,,,,,,,1,,,67,0
16126,note_on,46,0,2,,,,,,,,,1,,,65,0
16128,note_on,224,0,7,,,,,,,,,7,,,60,75
16128,note_on,224,0,6,,,,,,,,,5,,,65,60
16128,note_on,0,0,6,,,,,,,,,5,,,67,60
16128,note_on,2,0,2,,,,,,,,,1,,,65,108
16222,note_on,94,0,6,,,,,,,,,5,,,65,0
16222,note_on,94,0,7,,,,,,,,,7,,,60,0
16224,note_on,2,0,6,,,,,,,,,5,,,63,60
16224,note_on,2,0,7,,,,,,,,,7,,,55,75
16288,note_on,64,0,6,,,,,,,,,5,,,67,0
16288,note_on,160,0,2,,,,,,,,,1,,,65,0
16318,note_on,94,0,7,,,,,,,,,7,,,55,0
16318,note_on,30,0,6,,,,,,,,,5,,,63,0
16320,note_on,2,0,6,,,,,,,,,5,,,67,60
16320,note_on,0,0,6,,,,,,,,,5,,,72,60
16320,note_on,32,0,2,,,,,,,,,1,,,63,108
16320,note_on,2,0,7,,,,,,,,,7,,,51,75
16414,note_on,94,0,6,,,,,,,,,5,,,72,0
16414,note_on,94,0,7,,,,,,,,,7,,,51,0
16416,note_on,2,0,7,,,,,,,,,7,,,50,75
16416,note_on,2,0,6,,,,,,,,,5,,,75,60
16462,note_on,46,0,7,,,,,,,,,7,,,50,0
16464,note_on,2,0,7,,,,,,,,,7,,,48,75
16480,note_on,64,0,6,,,,,,,,,5,,,67,0
16480,note_on,160,0,2,,,,,,,,,1,,,63,0
16510,note_on,46,0,7,,,,,,,,,7,,,48,0
16510,note_on,30,0,6,,,,,,,,,5,,,75,0
16512,note_on,2,0,7,,,,,,,,,7,,,60,75
16512,note_on,0,0,6,,,,,,,,,5,,,72,60
16512,note_on,0,0,6,,,,,,,,,5,,,68,60
16512,note_on,2,0,6,,,,,,,,,5,,,63,60
16512,note_on,32,0,2,,,,,,,,,1,,,68,108
16606,note_on,94,0,6,,,,,,,,,5,,,63,0
16606,note_on,94,0,7,,,,,,,,,7,,,60,0
16608,note_on,2,0,6,,,,,,,,,5,,,65,60
16608,note_on,2,0,7,,,,,,,,,7,,,51,75
16654,note_on,46,0,6,,,,,,,,,5,,,65,0
16656,note_on,2,0,6,,,,,,,,,5,,,67,60
16672,note_on,16,0,6,,,,,,,,,5,,,68,0
16672,note_on,0,0,6,,,,,,,,,5,,,72,0
16702,note_on,30,0,6,,,,,,,,,5,,,67,0
16702,note_on,94,0,7,,,,,,,,,7,,,51,0
16704,note_on,2,0,7,,,,,,,,,7,,,48,75
16704,note_on,2,0,6,,,,,,,,,5,,,68,60
16704,note_on,0,0,6,,,,,,,,,5,,,72,60
16768,note_on,256,0,2,,,,,,,,,1,,,68,0
16798,note_on,94,0,7,,,,,,,,,7,,,48,0
16798,note_on,94,0,6,,,,,,,,,5,,,68,0
16800,note_on,32,0,2,,,,,,,,,1,,,67,108
16800,note_on,2,0,7,,,,,,,,,7,,,50,75
16800,note_on,2,0,6,,,,,,,,,5,,,67,60
16846,note_on,46,0,7,,,,,,,,,7,,,50,0
16848,note_on,2,0,7,,,,,,,,,7,,,51,75
16894,note_on,94,0,2,,,,,,,,,1,,,67,0
16894,note_on,94,0,6,,,,,,,,,5,,,67,0
16894,note_on,46,0,7,,,,,,,,,7,,,51,0
16896,note_on,2,0,7,,,,,,,,,7,,,50,75
16896,note_on,2,0,6,,,,,,,,,5,,,66,60
16896,note_on,2,0,2,,,,,,,,,1,,,66,108
16990,note_on,94,0,6,,,,,,,,,5,,,66,0
16990,note_on,94,0,7,,,,,,,,,7,,,50,0
16990,note_on,0,0,6,,,,,,,,,5,,,72,0
16990,note_on,94,0,2,,,,,,,,,1,,,66,0
16992,note_on,2,0,6,,,,,,,,,5,,,66,60
16992,note_on,0,0,6,,,,,,,,,5,,,69,60
16992,note_on,2,0,7,,,,,,,,,7,,,62,75
16992,note_on,2,0,2,,,,,,,,,1,,,62,108
17086,note_on,94,0,6,,,,,,,,,5,,,66,0
17086,note_on,0,0,6,,,,,,,,,5,,,69,0
17086,note_on,94,0,7,,,,,,,,,7,,,62,0
17086,note_on,94,0,2,,,,,,,,,1,,,62,0
17088,note_on,2,0,7,,,,,,,,,7,,,58,75
17088,note_on,0,0,6,,,,,,,,,5,,,70,60
17088,note_on,2,0,6,,,,,,,,,5,,,67,60
17088,note_on,2,0,2,,,,,,,,,1,,,67,108
17182,note_on,0,0,6,,,,,,,,,5,,,70,0
17182,note_on,94,0,6,,,,,,,,,5,,,67,0
17182,note_on,94,0,7,,,,,,,,,7,,,58,0
17184,note_on,2,0,7,,,,,,,,,7,,,57,75
17184,note_on,2,0,6,,,,,,,,,5,,,69,60
17184,note_on,0,0,6,,,,,,,,,5,,,72,60
17230,note_on,46,0,6,,,,,,,,,5,,,69,0
17230,note_on,46,0,7,,,,,,,,,7,,,57,0
17230,note_on,0,0,6,,,,,,,,,5,,,72,0
17232,note_on,0,0,6,,,,,,,,,5,,,74,60
17232,note_on,2,0,7,,,,,,,,,7,,,55,75
17232,note_on,2,0,6,,,,,,,,,5,,,70,60
17278,note_on,0,0,6,,,,,,,,,5,,,74,0
17278,note_on,46,0,6,,,,,,,,,5,,,70,0
17278,note_on,46,0,7,,,,,,,,,7,,,55,0
17280,note_on,2,0,7,,,,,,,,,7,,,60,75
17280,note_on,0,0,6,,,,,,,,,5,,,69,60
17280,note_on,2,0,6,,,,,,,,,5,,,67,60
17374,note_on,286,0,2,,,,,,,,,1,,,67,0
17374,note_on,94,0,7,,,,,,,,,7,,,60,0
17376,note_on,2,0,7,,,,,,,,,7,,,57,75
17376,note_on,2,0,2,,,,,,,,,1,,,69,108
17422,note_on,46,0,2,,,,,,,,,1,,,69,0
17424,note_on,2,0,2,,,,,,,,,1,,,64,108
17440,note_on,160,0,6,,,,,,,,,5,,,67,0
17440,note_on,0,0,6,,,,,,,,,5,,,69,0
17470,note_on,46,0,2,,,,,,,,,1,,,64,0
17470,note_on,94,0,7,,,,,,,,,7,,,57,0
17472,note_on,2,0,7,,,,,,,,,7,,,62,75
17472,note_on,32,0,6,,,,,,,,,5,,,66,60
17472,note_on,2,0,2,,,,,,,,,1,,,66,108
17472,note_on,0,0,6,,,,,,,,,5,,,69,60
17566,note_on,94,0,7,,,,,,,,,7,,,62,0
17568,note_on,2,0,7,,,,,,,,,7,,,50,75
17614,note_on,142,0,6,,,,,,,,,5,,,69,0
17616,note_on,2,0,6,,,,,,,,,5,,,67,60
17632,note_on,16,0,6,,,,,,,,,5,,,66,0
17632,note_on,160,0,2,,,,,,,,,1,,,66,0
17662,note_on,30,0,6,,,,,,,,,5,,,67,0
17662,note_on,94,0,7,,,,,,,,,7,,,50,0
17664,note_on,32,0,2,,,,,,,,,1,,,67,108
17664,note_on,0,0,6,,,,,,,,,5,,,67,60
17664,note_on,0,0,6,,,,,,,,,5,,,62,60
17664,note_on,2,0,6,,,,,,,,,5,,,58,60
17664,note_on,2,0,7,,,,,,,,,7,,,55,75
17758,note_on,94,0,7,,,,,,,,,7,,,55,0
17760,note_on,2,0,7,,,,,,,,,7,,,50,75
17824,note_on,160,0,2,,,,,,,,,1,,,67,0
17824,note_on,160,0,6,,,,,,,,,5,,,58,0
17824,note_on,0,0,6,,,,,,,,,5,,,62,0
17824,note_on,0,0,6,,,,,,,,,5,,,67,0
17854,note_on,94,0,7,,,,,,,,,7,,,50,0
17856,note_on,2,0,7,,,,,,,,,7,,,46,75
17950,note_on,94,0,7,,,,,,,,,7,,,46,0
17952,note_on,3008,0,3,,,,,,,,,2,,,62,92
17952,note_on,3008,0,1,,,,,,,,,0,,,70,92
17952,note_on,128,0,2,,,,,,,,,1,,,67,92
17952,note_on,2,0,7,,,,,,,,,7,,,43,92
17952,note_on,0,0,5,,,,,,,,,6,,,74,92
17952,note_on,3008,0,4,,,,,,,,,3,,,55,92
17952,note_on,0,0,5,,,,,,,,,6,,,79,92
17952,note_on,3008,0,5,,,,,,,,,6,,,70,92
18046,note_on,94,0,7,,,,,,,,,7,,,43,0
18046,note_on,0,0,5,,,,,,,,,6,,,74,0
18046,note_on,94,0,2,,,,,,,,,1,,,67,0
18046,note_on,94,0,1,,,,,,,,,0,,,70,0
18046,note_on,94,0,4,,,,,,,,,3,,,55,0
18046,note_on,94,0,5,,,,,,,,,6,,,70,0
18046,note_on,94,0,3,,,,,,,,,2,,,62,0
18046,note_on,0,0,5,,,,,,,,,6,,,79,0
18048,note_on,2,0,2,,,,,,,,,1,,,67,92
18048,note_on,2,0,1,,,,,,,,,0,,,70,92
18048,note_on,2,0,3,,,,,,,,,2,,,62,92
18048,note_on,2,0,7,,,,,,,,,7,,,55,92
18048,note_on,2,0,4,,,,,,,,,3,,,55,92
18048,note_on,2,0,5,,,,,,,,,6,,,70,92
18048,note_on,0,0,5,,,,,,,,,6,,,74,92
18048,note_on,0,0,5,,,,,,,,,6,,,79,92
18142,note_on,94,0,7,,,,,,,,,7,,,55,0
18144,note_on,2,0,7,,,,,,,,,7,,,50,92
18208,note_on,160,0,2,,,,,,,,,1,,,67,0
18208,note_on,160,0,4,,,,,,,,,3,,,55,0
18208,note_on,160,0,3,,,,,,,,,2,,,62,0
18208,note_on,160,0,5,,,,,,,,,6,,,70,0
18208,note_on,0,0,5,,,,,,,,,6,,,74,0
18208,note_on,160,0,1,,,,,,,,,0,,,70,0
18208,note_on,0,0,5,,,,,,,,,6,,,79,0
18238,note_on,94,0,7,,,,,,,,,7,,,50,0
18240,note_on,32,0,4,,,,,,,,,3,,,55,92
18240,note_on,32,0,1,,,,,,,,,0,,,70,92
18240,note_on,32,0,2,,,,,,,,,1,,,67,92
18240,note_on,0,0,5,,,,,,,,,6,,,74,92
18240,note_on,0,0,5,,,,,,,,,6,,,79,92
18240,note_on,32,0,3,,,,,,,,,2,,,62,92
18240,note_on,2,0,7,,,,,,,,,7,,,46,92
18240,note_on,32,0,5,,,,,,,,,6,,,70,92
18334,note_on,94,0,5,,,,,,,,,6,,,70,0
18334,note_on,94,0,3,,,,,,,,,2,,,62,0
18334,note_on,0,0,5,,,,,,,,,6,,,79,0
18334,note_on,0,0,5,,,,,,,,,6,,,74,0
18334,note_on,94,0,1,,,,,,,,,0,,,70,0
18334,note_on,94,0,7,,,,,,,,,7,,,46,0
18334,note_on,94,0,4,,,,,,,,,3,,,55,0
18334,note_on,94,0,2,,,,,,,,,1,,,67,0
18336,note_on,2,0,7,,,,,,,,,7,,,43,92
18336,note_on,0,0,5,,,,,,,,,6,,,79,92
18336,note_on,2,0,2,,,,,,,,,1,,,67,92
18336,note_on,2,0,4,,,,,,,,,3,,,55,92
18336,note_on,2,0,1,,,,,,,,,0,,,70,92
18336,note_on,2,0,3,,,,,,,,,2,,,62,92
18336,note_on,2,0,5,,,,,,,,,6,,,70,92
18336,note_on,0,0,5,,,,,,,,,6,,,74,92
18430,note_on,94,0,3,,,,,,,,,2,,,62,0
18430,note_on,94,0,7,,,,,,,,,7,,,43,0
18430,note_on,94,0,1,,,,,,,,,0,,,70,0
18430,note_on,0,0,5,,,,,,,,,6,,,74,0
18430,note_on,0,0,5,,,,,,,,,6,,,79,0
18430,note_on,94,0,4,,,,,,,,,3,,,55,0
18430,note_on,94,0,5,,,,,,,,,6,,,70,0
18430,note_on,94,0,2,,,,,,,,,1,,,67,0
18432,note_on,2,0,2,,,,,,,,,1,,,67,92
18432,note_on,2,0,5,,,,,,,,,6,,,70,92
18432,note_on,0,0,5,,,,,,,,,6,,,76,92
18432,note_on,0,0,5,,,,,,,,,6,,,79,92
18432,note_on,2,0,7,,,,,,,,,7,,,48,92
18432,note_on,2,0,1,,,,,,,,,0,,,70,92
18432,note_on,2,0,4,,,,,,,,,3,,,48,92
18432,note_on,2,0,3,,,,,,,,,2,,,64,92
18526,note_on,94,0,7,,,,,,,,,7,,,48,0
18528,note_on,2,0,7,,,,,,,,,7,,,43,92
18592,note_on,0,0,5,,,,,,,,,6,,,79,0
18592,note_on,160,0,1,,,,,,,,,0,,,70,0
18592,note_on,0,0,5,,,,,,,,,6,,,76,0
18592,note_on,160,0,4,,,,,,,,,3,,,48,0
18592,note_on,160,0,3,,,,,,,,,2,,,64,0
18592,note_on,160,0,2,,,,,,,,,1,,,67,0
18592,note_on,160,0,5,,,,,,,,,6,,,70,0
18622,note_on,94,0,7,,,,,,,,,7,,,43,0
18624,note_on,2,0,7,,,,,,,,,7,,,40,92
18624,note_on,32,0,1,,,,,,,,,0,,,70,92
18624,note_on,32,0,4,,,,,,,,,3,,,48,92
18624,note_on,32,0,3,,,,,,,,,2,,,64,92
18624,note_on,32,0,5,,,,,,,,,6,,,70,92
18624,note_on,0,0,5,,,,,,,,,6,,,76,92
18624,note_on,0,0,5,,,,,,,,,6,,,79,92
18624,note_on,32,0,2,,,,,,,,,1,,,67,92
18718,note_on,94,0,7,,,,,,,,,7,,,40,0
18720,note_on,2,0,7,,,,,,,,,7,,,36,92
18784,note_on,0,0,5,,,,,,,,,6,,,76,0
18784,note_on,160,0,1,,,,,,,,,0,,,70,0
18784,note_on,160,0,4,,,,,,,,,3,,,48,0
18784,note_on,0,0,5,,,,,,,,,6,,,79,0
18784,note_on,160,0,3,,,,,,,,,2,,,64,0
18784,note_on,160,0,2,,,,,,,,,1,,,67,0
18784,note_on,160,0,5,,,,,,,,,6,,,70,0
18814,note_on,94,0,7,,,,,,,,,7,,,36,0
18816,note_on,32,0,3,,,,,,,,,2,,,60,92
18816,note_on,32,0,1,,,,,,,,,0,,,69,92
18816,note_on,32,0,4,,,,,,,,,3,,,53,92
18816,note_on,2,0,7,,,,,,,,,7,,,53,92
18816,note_on,32,0,5,,,,,,,,,6,,,69,92
18816,note_on,32,0,2,,,,,,,,,1,,,65,92
18816,note_on,0,0,5,,,,,,,,,6,,,77,92
18816,note_on,0,0,5,,,,,,,,,6,,,72,92
18910,note_on,94,0,7,,,,,,,,,7,,,53,0
18912,note_on,2,0,7,,,,,,,,,7,,,48,92
18976,note_on,160,0,2,,,,,,,,,1,,,65,0
18976,note_on,160,0,5,,,,,,,,,6,,,69,0
18976,note_on,160,0,4,,,,,,,,,3,,,53,0
18976,note_on,0,0,5,,,,,,,,,6,,,72,0
18976,note_on,160,0,1,,,,,,,,,0,,,69,0
18976,note_on,160,0,3,,,,,,,,,2,,,60,0
18976,note_on,0,0,5,,,,,,,,,6,,,77,0
19006,note_on,94,0,7,,,,,,,,,7,,,48,0
19008,note_on,32,0,3,,,,,,,,,2,,,60,92
19008,note_on,32,0,1,,,,,,,,,0,,,69,92
19008,note_on,0,0,5,,,,,,,,,6,,,72,92
19008,note_on,0,0,5,,,,,,,,,6,,,77,92
19008,note_on,32,0,4,,,,,,,,,3,,,53,92
19008,note_on,32,0,5,,,,,,,,,6,,,69,92
19008,note_on,32,0,2,,,,,,,,,1,,,65,92
19008,note_on,2,0,7,,,,,,,,,7,,,45,92
19102,note_on,94,0,7,,,,,,,,,7,,,45,0
19104,note_on,2,0,7,,,,,,,,,7,,,41,92
19168,note_on,160,0,2,,,,,,,,,1,,,65,0
19168,note_on,160,0,4,,,,,,,,,3,,,53,0
19168,note_on,160,0,3,,,,,,,,,2,,,60,0
19168,note_on,160,0,1,,,,,,,,,0,,,69,0
19168,note_on,160,0,5,,,,,,,,,6,,,69,0
19168,note_on,0,0,5,,,,,,,,,6,,,72,0
19168,note_on,0,0,5,,,,,,,,,6,,,77,0
19198,note_on,94,0,7,,,,,,,,,7,,,41,0
19200,note_on,32,0,2,,,,,,,,,1,,,65,60
19200,note_on,0,0,6,,,,,,,,,5,,,69,60
19200,note_on,0,0,6,,,,,,,,,5,,,65,60
19200,note_on,1376,0,6,,,,,,,,,5,,,62,60
19200,note_on,2,0,7,,,,,,,,,7,,,50,60
19296,note_on,96,0,2,,,,,,,,,1,,,65,0
19296,note_on,0,0,2,,,,,,,,,1,,,67,60
19360,note_on,0,0,6,,,,,,,,,5,,,65,0
19360,note_on,160,0,7,,,,,,,,,7,,,50,0
19360,note_on,0,0,6,,,,,,,,,5,,,69,0
19360,note_on,160,0,6,,,,,,,,,5,,,62,0
19390,note_on,94,0,2,,,,,,,,,1,,,67,0
19392,note_on,2,0,2,,,,,,,,,1,,,69,60
19488,note_on,0,0,2,,,,,,,,,1,,,65,60
19488,note_on,96,0,2,,,,,,,,,1,,,69,0
19582,note_on,94,0,2,,,,,,,,,1,,,65,0
19584,note_on,2,0,2,,,,,,,,,1,,,62,60
19584,note_on,0,0,6,,,,,,,,,5,,,65,60
19584,note_on,224,0,6,,,,,,,,,5,,,62,60
19584,note_on,224,0,7,,,,,,,,,7,,,62,60
19678,note_on,94,0,6,,,,,,,,,5,,,65,0
19678,note_on,94,0,7,,,,,,,,,7,,,62,0
19680,note_on,2,0,6,,,,,,,,,5,,,67,60
19680,note_on,2,0,7,,,,,,,,,7,,,57,60
19744,note_on,160,0,2,,,,,,,,,1,,,62,0
19774,note_on,94,0,6,,,,,,,,,5,,,67,0
19774,note_on,94,0,7,,,,,,,,,7,,,57,0
19776,note_on,2,0,7,,,,,,,,,7,,,53,60
19776,note_on,2,0,6,,,,,,,,,5,,,69,60
19776,note_on,32,0,2,,,,,,,,,1,,,62,60
19870,note_on,94,0,6,,,,,,,,,5,,,69,0
19870,note_on,94,0,7,,,,,,,,,7,,,53,0
19872,note_on,2,0,6,,,,,,,,,5,,,65,60
19872,note_on,2,0,7,,,,,,,,,7,,,50,60
19920,note_on,48,0,6,,,,,,,,,5,,,62,0
19936,note_on,160,0,2,,,,,,,,,1,,,62,0
19966,note_on,94,0,7,,,,,,,,,7,,,50,0
19966,note_on,46,0,6,,,,,,,,,5,,,65,0
19968,note_on,2,0,7,,,,,,,,,7,,,58,92
19968,note_on,800,0,1,,,,,,,,,0,,,74,92
19968,note_on,800,0,5,,,,,,,,,6,,,74,92
19968,note_on,0,0,5,,,,,,,,,6,,,79,92
19968,note_on,32,0,2,,,,,,,,,1,,,67,92
19968,note_on,800,0,4,,,,,,,,,3,,,58,92
19968,note_on,800,0,3,,,,,,,,,2,,,62,92
20062,note_on,94,0,7,,,,,,,,,7,,,58,0
20064,note_on,2,0,7,,,,,,,,,7,,,55,92
20128,note_on,160,0,4,,,,,,,,,3,,,58,0
20128,note_on,160,0,5,,,,,,,,,6,,,74,0
20128,note_on,0,0,5,,,,,,,,,6,,,79,0
20128,note_on,160,0,1,,,,,,,,,0,,,74,0
20128,note_on,160,0,2,,,,,,,,,1,,,67,0
20128,note_on,160,0,3,,,,,,,,,2,,,62,0
20158,note_on,94,0,7,,,,,,,,,7,,,55,0
20160,note_on,32,0,2,,,,,,,,,1,,,67,92
20160,note_on,32,0,3,,,,,,,,,2,,,62,92
20160,note_on,32,0,4,,,,,,,,,3,,,58,92
20160,note_on,32,0,1,,,,,,,,,0,,,74,92
20160,note_on,0,0,5,,,,,,,,,6,,,79,92
20160,note_on,32,0,5,,,,,,,,,6,,,74,92
20160,note_on,2,0,7,,,,,,,,,7,,,50,92
20254,note_on,94,0,7,,,,,,,,,7,,,50,0
20256,note_on,2,0,7,,,,,,,,,7,,,46,92
20320,note_on,160,0,3,,,,,,,,,2,,,62,0
20320,note_on,0,0,5,,,,,,,,,6,,,79,0
20320,note_on,160,0,2,,,,,,,,,1,,,67,0
20320,note_on,160,0,1,,,,,,,,,0,,,74,0
20320,note_on,160,0,5,,,,,,,,,6,,,74,0
20320,note_on,160,0,4,,,,,,,,,3,,,58,0
20350,note_on,94,0,7,,,,,,,,,7,,,46,0
20352,note_on,32,0,2,,,,,,,,,1,,,67,92
20352,note_on,32,0,4,,,,,,,,,3,,,57,92
20352,note_on,32,0,1,,,,,,,,,0,,,76,92
20352,note_on,32,0,3,,,,,,,,,2,,,61,92
20352,note_on,2,0,7,,,,,,,,,7,,,57,92
20352,note_on,32,0,5,,,,,,,,,6,,,73,92
20352,note_on,0,0,5,,,,,,,,,6,,,76,92
20352,note_on,0,0,5,,,,,,,,,6,,,79,92
20446,note_on,94,0,7,,,,,,,,,7,,,57,0
20448,note_on,2,0,7,,,,,,,,,7,,,52,92
20512,note_on,0,0,5,,,,,,,,,6,,,79,0
20512,note_on,160,0,1,,,,,,,,,0,,,76,0
20512,note_on,0,0,5,,,,,,,,,6,,,76,0
20512,note_on,160,0,5,,,,,,,,,6,,,73,0
20512,note_on,160,0,3,,,,,,,,,2,,,61,0
20512,note_on,160,0,2,,,,,,,,,1,,,67,0
20512,note_on,160,0,4,,,,,,,,,3,,,57,0
20542,note_on,94,0,7,,,,,,,,,7,,,52,0
20544,note_on,32,0,3,,,,,,,,,2,,,61,92
20544,note_on,32,0,2,,,,,,,,,1,,,67,92
20544,note_on,32,0,4,,,,,,,,,3,,,57,92
20544,note_on,32,0,1,,,,,,,,,0,,,76,92
20544,note_on,2,0,7,,,,,,,,,7,,,49,92
20544,note_on,32,0,5,,,,,,,,,6,,,73,92
20544,note_on,0,0,5,,,,,,,,,6,,,76,92
20544,note_on,0,0,5,,,,,,,,,6,,,79,92
20638,note_on,94,0,7,,,,,,,,,7,,,49,0
20640,note_on,2,0,7,,,,,,,,,7,,,45,92
20704,note_on,160,0,1,,,,,,,,,0,,,76,0
20704,note_on,160,0,5,,,,,,,,,6,,,73,0
20704,note_on,0,0,5,,,,,,,,,6,,,76,0
20704,note_on,160,0,2,,,,,,,,,1,,,67,0
20704,note_on,160,0,3,,,,,,,,,2,,,61,0
20704,note_on,160,0,4,,,,,,,,,3,,,57,0
20704,note_on,0,0,5,,,,,,,,,6,,,79,0
20734,note_on,94,0,7,,,,,,,,,7,,,45,0
20736,note_on,2,0,7,,,,,,,,,7,,,45,60
20736,note_on,32,0,2,,,,,,,,,1,,,67,75
20736,note_on,770,0,6,,,,,,,,,5,,,67,60
20736,note_on,0,0,6,,,,,,,,,5,,,73,60
20896,note_on,0,0,6,,,,,,,,,5,,,73,0
20896,note_on,160,0,2,,,,,,,,,1,,,67,0
20896,note_on,160,0,6,,,,,,,,,5,,,67,0
20896,note_on,160,0,7,,,,,,,,,7,,,45,0
20928,note_on,32,0,2,,,,,,,,,1,,,69,75
21024,note_on,0,0,2,,,,,,,,,1,,,70,75
21024,note_on,96,0,2,,,,,,,,,1,,,69,0
21118,note_on,94,0,2,,,,,,,,,1,,,70,0
21120,note_on,224,0,7,,,,,,,,,7,,,57,60
21120,note_on,2,0,2,,,,,,,,,1,,,61,75
21120,note_on,224,0,6,,,,,,,,,5,,,69,60
21120,note_on,0,0,6,,,,,,,,,5,,,73,60
21214,note_on,94,0,6,,,,,,,,,5,,,73,0
21214,note_on,94,0,7,,,,,,,,,7,,,57,0
21216,note_on,2,0,6,,,,,,,,,5,,,74,60
21216,note_on,2,0,7,,,,,,,,,7,,,52,60
21280,note_on,160,0,2,,,,,,,,,1,,,61,0
21310,note_on,94,0,7,,,,,,,,,7,,,52,0
21310,note_on,94,0,6,,,,,,,,,5,,,74,0
21312,note_on,32,0,2,,,,,,,,,1,,,61,75
21312,note_on,2,0,7,,,,,,,,,7,,,49,60
21312,note_on,2,0,6,,,,,,,,,5,,,76,60
21406,note_on,94,0,6,,,,,,,,,5,,,76,0
21406,note_on,94,0,7,,,,,,,,,7,,,49,0
21408,note_on,2,0,7,,,,,,,,,7,,,45,60
21408,note_on,2,0,6,,,,,,,,,5,,,73,60
21456,note_on,48,0,6,,,,,,,,,5,,,69,0
21472,note_on,160,0,2,,,,,,,,,1,,,61,0
21502,note_on,46,0,6,,,,,,,,,5,,,73,0
21502,note_on,94,0,7,,,,,,,,,7,,,45,0
21504,note_on,800,0,5,,,,,,,,,6,,,73,92
21504,note_on,2,0,7,,,,,,,,,7,,,57,92
21504,note_on,800,0,1,,,,,,,,,0,,,76,92
21504,note_on,32,0,2,,,,,,,,,1,,,67,92
21504,note_on,800,0,4,,,,,,,,,3,,,57,92
21504,note_on,800,0,3,,,,,,,,,2,,,61,92
21504,note_on,0,0,5,,,,,,,,,6,,,76,92
21504,note_on,0,0,5,,,,,,,,,6,,,79,92
21598,note_on,94,0,7,,,,,,,,,7,,,57,0
21600,note_on,2,0,7,,,,,,,,,7,,,52,92
21664,note_on,160,0,2,,,,,,,,,1,,,67,0
21664,note_on,160,0,1,,,,,,,,,0,,,76,0
21664,note_on,0,0,5,,,,,,,,,6,,,79,0
21664,note_on,0,0,5,,,,,,,,,6,,,76,0
21664,note_on,160,0,5,,,,,,,,,6,,,73,0
21664,note_on,160,0,4,,,,,,,,,3,,,57,0
21664,note_on,160,0,3,,,,,,,,,2,,,61,0
21694,note_on,94,0,7,,,,,,,,,7,,,52,0
21696,note_on,32,0,4,,,,,,,,,3,,,57,92
21696,note_on,32,0,2,,,,,,,,,1,,,67,92
21696,note_on,2,0,7,,,,,,,,,7,,,49,92
21696,note_on,0,0,5,,,,,,,,,6,,,79,92
21696,note_on,32,0,3,,,,,,,,,2,,,61,92
21696,note_on,32,0,5,,,,,,,,,6,,,73,92
21696,note_on,32,0,1,,,,,,,,,0,,,76,92
21696,note_on,0,0,5,,,,,,,,,6,,,76,92
21790,note_on,94,0,3,,,,,,,,,2,,,61,0
21790,note_on,0,0,5,,,,,,,,,6,,,79,0
21790,note_on,0,0,5,,,,,,,,,6,,,76,0
21790,note_on,94,0,7,,,,,,,,,7,,,49,0
21790,note_on,94,0,5,,,,,,,,,6,,,73,0
21790,note_on,94,0,1,,,,,,,,,0,,,76,0
21790,note_on,94,0,2,,,,,,,,,1,,,67,0
21790,note_on,94,0,4,,,,,,,,,3,,,57,0
21792,note_on,2,0,2,,,,,,,,,1,,,67,92
21792,note_on,2,0,4,,,,,,,,,3,,,57,92
21792,note_on,2,0,1,,,,,,,,,0,,,76,92
21792,note_on,2,0,5,,,,,,,,,6,,,73,92
21792,note_on,0,0,5,,,,,,,,,6,,,76,92
21792,note_on,0,0,5,,,,,,,,,6,,,79,92
21792,note_on,2,0,3,,,,,,,,,2,,,61,92
21792,note_on,2,0,7,,,,,,,,,7,,,45,92
21886,note_on,94,0,2,,,,,,,,,1,,,67,0
21886,note_on,94,0,3,,,,,,,,,2,,,61,0
21886,note_on,94,0,4,,,,,,,,,3,,,57,0
21886,note_on,94,0,5,,,,,,,,,6,,,73,0
21886,note_on,0,0,5,,,,,,,,,6,,,76,0
21886,note_on,0,0,5,,,,,,,,,6,,,79,0
21886,note_on,94,0,7,,,,,,,,,7,,,45,0
21886,note_on,94,0,1,,,,,,,,,0,,,76,0
21888,note_on,2,0,7,,,,,,,,,7,,,50,92
21888,note_on,2,0,4,,,,,,,,,3,,,50,92
21888,note_on,2,0,1,,,,,,,,,0,,,74,92
21888,note_on,2,0,2,,,,,,,,,1,,,65,92
21888,note_on,2,0,3,,,,,,,,,2,,,57,92
21888,note_on,0,0,5,,,,,,,,,6,,,77,92
21888,note_on,0,0,5,,,,,,,,,6,,,74,92
21888,note_on,2,0,5,,,,,,,,,6,,,69,92
21982,note_on,94,0,7,,,,,,,,,7,,,50,0
21984,note_on,2,0,7,,,,,,,,,7,,,45,92
22048,note_on,160,0,5,,,,,,,,,6,,,69,0
22048,note_on,0,0,5,,,,,,,,,6,,,74,0
22048,note_on,0,0,5,,,,,,,,,6,,,77,0
22048,note_on,160,0,4,,,,,,,,,3,,,50,0
22048,note_on,160,0,3,,,,,,,,,2,,,57,0
22048,note_on,160,0,1,,,,,,,,,0,,,74,0
22048,note_on,160,0,2,,,,,,,,,1,,,65,0
22078,note_on,94,0,7,,,,,,,,,7,,,45,0
22080,note_on,32,0,4,,,,,,,,,3,,,50,92
22080,note_on,32,0,2,,,,,,,,,1,,,65,92
22080,note_on,32,0,1,,,,,,,,,0,,,74,92
22080,note_on,0,0,5,,,,,,,,,6,,,77,92
22080,note_on,0,0,5,,,,,,,,,6,,,74,92
22080,note_on,32,0,5,,,,,,,,,6,,,69,92
22080,note_on,32,0,3,,,,,,,,,2,,,57,92
22080,note_on,2,0,7,,,,,,,,,7,,,41,92
22174,note_on,94,0,7,,,,,,,,,7,,,41,0
22176,note_on,2,0,7,,,,,,,,,7,,,38,92
22240,note_on,160,0,5,,,,,,,,,6,,,69,0
22240,note_on,160,0,1,,,,,,,,,0,,,74,0
22240,note_on,160,0,2,,,,,,,,,1,,,65,0
22240,note_on,0,0,5,,,,,,,,,6,,,74,0
22240,note_on,0,0,5,,,,,,,,,6,,,77,0
22240,note_on,160,0,4,,,,,,,,,3,,,50,0
22240,note_on,160,0,3,,,,,,,,,2,,,57,0
22270,note_on,94,0,7,,,,,,,,,7,,,38,0
22272,note_on,32,0,2,,,,,,,,,1,,,65,92
22272,note_on,2,0,7,,,,,,,,,7,,,50,75
22272,note_on,0,0,6,,,,,,,,,5,,,69,75
22272,note_on,770,0,6,,,,,,,,,5,,,65,75
22368,note_on,96,0,2,,,,,,,,,1,,,65,0
22368,note_on,0,0,2,,,,,,,,,1,,,69,92
22432,note_on,160,0,7,,,,,,,,,7,,,50,0
22432,note_on,0,0,6,,,,,,,,,5,,,69,0
22432,note_on,160,0,6,,,,,,,,,5,,,65,0
22462,note_on,94,0,2,,,,,,,,,1,,,69,0
22464,note_on,2,0,2,,,,,,,,,1,,,67,92
22560,note_on,0,0,2,,,,,,,,,1,,,65,92
22560,note_on,128,0,7,,,,,,,,,7,,,50,75
22560,note_on,128,0,6,,,,,,,,,5,,,65,75
22560,note_on,0,0,6,,,,,,,,,5,,,69,75
22560,note_on,96,0,2,,,,,,,,,1,,,67,0
22654,note_on,94,0,7,,,,,,,,,7,,,50,0
22654,note_on,94,0,6,,,,,,,,,5,,,65,0
22654,note_on,0,0,6,,,,,,,,,5,,,69,0
22654,note_on,94,0,2,,,,,,,,,1,,,65,0
22656,note_on,2,0,6,,,,,,,,,5,,,62,75
22656,note_on,0,0,6,,,,,,,,,5,,,70,75
22656,note_on,2,0,2,,,,,,,,,1,,,70,92
22656,note_on,2,0,7,,,,,,,,,7,,,55,75
22750,note_on,0,0,6,,,,,,,,,5,,,70,0
22750,note_on,94,0,7,,,,,,,,,7,,,55,0
22750,note_on,94,0,6,,,,,,,,,5,,,62,0
22752,note_on,0,0,2,,,,,,,,,1,,,61,92
22752,note_on,2,0,6,,,,,,,,,5,,,61,75
22752,note_on,0,0,6,,,,,,,,,5,,,64,75
22752,note_on,2,0,7,,,,,,,,,7,,,57,75
22752,note_on,96,0,2,,,,,,,,,1,,,70,0
22846,note_on,94,0,2,,,,,,,,,1,,,61,0
22846,note_on,94,0,6,,,,,,,,,5,,,61,0
22846,note_on,0,0,6,,,,,,,,,5,,,64,0
22846,note_on,94,0,7,,,,,,,,,7,,,57,0
22848,note_on,2,0,7,,,,,,,,,7,,,53,75
22848,note_on,0,0,6,,,,,,,,,5,,,69,75
22848,note_on,2,0,2,,,,,,,,,1,,,62,92
22848,note_on,2,0,6,,,,,,,,,5,,,62,75
22942,note_on,94,0,7,,,,,,,,,7,,,53,0
22942,note_on,94,0,6,,,,,,,,,5,,,62,0
22944,note_on,2,0,7,,,,,,,,,7,,,49,75
22944,note_on,2,0,6,,,,,,,,,5,,,67,75
22944,note_on,0,0,2,,,,,,,,,1,,,67,92
22944,note_on,96,0,2,,,,,,,,,1,,,62,0
23038,note_on,94,0,7,,,,,,,,,7,,,49,0
23038,note_on,94,0,6,,,,,,,,,5,,,67,0
23038,note_on,94,0,2,,,,,,,,,1,,,67,0
23040,note_on,2,0,2,,,,,,,,,1,,,65,92
23040,note_on,2,0,7,,,,,,,,,7,,,50,75
23040,note_on,2,0,6,,,,,,,,,5,,,65,75
23134,note_on,0,0,6,,,,,,,,,5,,,69,0
23134,note_on,94,0,6,,,,,,,,,5,,,65,0
23134,note_on,94,0,7,,,,,,,,,7,,,50,0
23136,note_on,2,0,7,,,,,,,,,7,,,55,75
23136,note_on,0,0,6,,,,,,,,,5,,,67,75
23136,note_on,2,0,6,,,,,,,,,5,,,64,75
23182,note_on,0,0,6,,,,,,,,,5,,,67,0
23182,note_on,46,0,6,,,,,,,,,5,,,64,0
23184,note_on,0,0,6,,,,,,,,,5,,,65,75
23184,note_on,2,0,6,,,,,,,,,5,,,62,75
23230,note_on,46,0,6,,,,,,,,,5,,,62,0
23230,note_on,94,0,7,,,,,,,,,7,,,55,0
23230,note_on,0,0,6,,,,,,,,,5,,,65,0
23232,note_on,2,0,7,,,,,,,,,7,,,57,75
23232,note_on,0,0,6,,,,,,,,,5,,,64,75
23232,note_on,2,0,6,,,,,,,,,5,,,62,75
23232,note_on,192,0,2,,,,,,,,,1,,,65,0
23232,note_on,0,0,2,,,,,,,,,1,,,64,92
23256,note_on,24,0,2,,,,,,,,,1,,,64,0
23256,note_on,0,0,2,,,,,,,,,1,,,65,92
23280,note_on,0,0,2,,,,,,,,,1,,,64,92
23280,note_on,24,0,2,,,,,,,,,1,,,65,0
23304,note_on,24,0,2,,,,,,,,,1,,,64,0
23304,note_on,0,0,2,,,,,,,,,1,,,65,92
23326,note_on,94,0,6,,,,,,,,,5,,,62,0
23326,note_on,94,0,7,,,,,,,,,7,,,57,0
23328,note_on,24,0,2,,,,,,,,,1,,,65,0
23328,note_on,0,0,2,,,,,,,,,1,,,64,92
23328,note_on,2,0,7,,,,,,,,,7,,,45,75
23328,note_on,2,0,6,,,,,,,,,5,,,61,75
23376,note_on,0,0,2,,,,,,,,,1,,,62,92
23376,note_on,48,0,2,,,,,,,,,1,,,64,0
23392,note_on,64,0,6,,,,,,,,,5,,,64,0
23422,note_on,94,0,7,,,,,,,,,7,,,45,0
23422,note_on,30,0,6,,,,,,,,,5,,,61,0
23422,note_on,46,0,2,,,,,,,,,1,,,62,0
23424,note_on,2,0,2,,,,,,,,,1,,,62,92
23424,note_on,2,0,7,,,,,,,,,7,,,62,75
23424,note_on,2,0,6,,,,,,,,,5,,,62,75
23518,note_on,94,0,7,,,,,,,,,7,,,62,0
23520,note_on,2,0,7,,,,,,,,,7,,,57,75
23614,note_on,94,0,7,,,,,,,,,7,,,57,0
23616,note_on,2,0,7,,,,,,,,,7,,,53,75
23710,note_on,94,0,7,,,,,,,,,7,,,53,0
23712,note_on,2,0,7,,,,,,,,,7,,,50,75
23760,note_on,336,0,6,,,,,,,,,5,,,62,0
23760,note_on,336,0,2,,,,,,,,,1,,,62,0
23806,note_on,94,0,7,,,,,,,,,7,,,50,0
23808,note_on,48,0,2,,,,,,,,,1,,,66,92
23808,note_on,0,0,5,,,,,,,,,6,,,78,92
23808,note_on,1568,0,5,,,,,,,,,6,,,69,92
23808,note_on,2,0,7,,,,,,,,,7,,,50,92
23808,note_on,1568,0,3,,,,,,,,,2,,,57,92
23808,note_on,1568,0,4,,,,,,,,,3,,,50,92
23808,note_on,1568,0,1,,,,,,,,,0,,,69,92
23902,note_on,94,0,7,,,,,,,,,7,,,50,0
23904,note_on,2,0,7,,,,,,,,,7,,,45,92
23968,note_on,0,0,5,,,,,,,,,6,,,78,0
23968,note_on,160,0,1,,,,,,,,,0,,,69,0
23968,note_on,160,0,3,,,,,,,,,2,,,57,0
23968,note_on,160,0,5,,,,,,,,,6,,,69,0
23968,note_on,160,0,4,,,,,,,,,3,,,50,0
23968,note_on,160,0,2,,,,,,,,,1,,,66,0
23998,note_on,94,0,7,,,,,,,,,7,,,45,0
24000,note_on,32,0,5,,,,,,,,,6,,,69,92
24000,note_on,0,0,5,,,,,,,,,6,,,78,92
24000,note_on,32,0,2,,,,,,,,,1,,,66,92
24000,note_on,32,0,4,,,,,,,,,3,,,50,92
24000,note_on,2,0,7,,,,,,,,,7,,,42,92
24000,note_on,32,0,1,,,,,,,,,0,,,69,92
24000,note_on,32,0,3,,,,,,,,,2,,,57,92
24094,note_on,94,0,7,,,,,,,,,7,,,42,0
24096,note_on,2,0,7,,,,,,,,,7,,,38,92
24160,note_on,160,0,5,,,,,,,,,6,,,69,0
24160,note_on,0,0,5,,,,,,,,,6,,,78,0
24160,note_on,160,0,3,,,,,,,,,2,,,57,0
24160,note_on,160,0,4,,,,,,,,,3,,,50,0
24160,note_on,160,0,2,,,,,,,,,1,,,66,0
24160,note_on,160,0,1,,,,,,,,,0,,,69,0
24190,note_on,94,0,7,,,,,,,,,7,,,38,0
24192,note_on,32,0,4,,,,,,,,,3,,,50,92
24192,note_on,32,0,3,,,,,,,,,2,,,56,92
24192,note_on,0,0,5,,,,,,,,,6,,,76,92
24192,note_on,0,0,5,,,,,,,,,6,,,71,92
24192,note_on,32,0,5,,,,,,,,,6,,,68,92
24192,note_on,2,0,7,,,,,,,,,7,,,50,92
24192,note_on,32,0,2,,,,,,,,,1,,,64,92
24192,note_on,32,0,1,,,,,,,,,0,,,71,92
24286,note_on,94,0,7,,,,,,,,,7,,,50,0
24288,note_on,2,0,7,,,,,,,,,7,,,47,92
24352,note_on,160,0,3,,,,,,,,,2,,,56,0
24352,note_on,160,0,4,,,,,,,,,3,,,50,0
24352,note_on,0,0,5,,,,,,,,,6,,,76,0
24352,note_on,160,0,2,,,,,,,,,1,,,64,0
24352,note_on,160,0,5,,,,,,,,,6,,,68,0
24352,note_on,160,0,1,,,,,,,,,0,,,71,0
24352,note_on,0,0,5,,,,,,,,,6,,,71,0
24382,note_on,94,0,7,,,,,,,,,7,,,47,0
24384,note_on,0,0,5,,,,,,,,,6,,,76,92
24384,note_on,0,0,5,,,,,,,,,6,,,71,92
24384,note_on,32,0,5,,,,,,,,,6,,,68,92
24384,note_on,32,0,1,,,,,,,,,0,,,71,92
24384,note_on,32,0,3,,,,,,,,,2,,,56,92
24384,note_on,2,0,7,,,,,,,,,7,,,44,92
24384,note_on,32,0,2,,,,,,,,,1,,,64,92
24384,note_on,32,0,4,,,,,,,,,3,,,50,92
24478,note_on,94,0,7,,,,,,,,,7,,,44,0
24480,note_on,2,0,7,,,,,,,,,7,,,40,92
24544,note_on,160,0,3,,,,,,,,,2,,,56,0
24544,note_on,160,0,4,,,,,,,,,3,,,50,0
24544,note_on,160,0,2,,,,,,,,,1,,,64,0
24544,note_on,0,0,5,,,,,,,,,6,,,76,0
24544,note_on,0,0,5,,,,,,,,,6,,,71,0
24544,note_on,160,0,5,,,,,,,,,6,,,68,0
24544,note_on,160,0,1,,,,,,,,,0,,,71,0
24574,note_on,94,0,7,,,,,,,,,7,,,40,0
24576,note_on,0,0,5,,,,,,,,,6,,,76,108
24576,note_on,2,0,7,,,,,,,,,7,,,50,108
24576,note_on,32,0,4,,,,,,,,,3,,,50,108
24576,note_on,32,0,3,,,,,,,,,2,,,56,108
24576,note_on,32,0,1,,,,,,,,,0,,,71,108
24576,note_on,32,0,5,,,,,,,,,6,,,68,108
24576,note_on,0,0,5,,,,,,,,,6,,,71,108
24576,note_on,32,0,2,,,,,,,,,1,,,64,108
24670,note_on,94,0,7,,,,,,,,,7,,,50,0
24672,note_on,2,0,7,,,,,,,,,7,,,47,108
24736,note_on,160,0,2,,,,,,,,,1,,,64,0
24736,note_on,160,0,5,,,,,,,,,6,,,68,0
24736,note_on,160,0,4,,,,,,,,,3,,,50,0
24736,note_on,0,0,5,,,,,,,,,6,,,76,0
24736,note_on,160,0,3,,,,,,,,,2,,,56,0
24736,note_on,0,0,5,,,,,,,,,6,,,71,0
24736,note_on,160,0,1,,,,,,,,,0,,,71,0
24766,note_on,94,0,7,,,,,,,,,7,,,47,0
24768,note_on,32,0,1,,,,,,,,,0,,,71,108
24768,note_on,32,0,3,,,,,,,,,2,,,56,108
24768,note_on,0,0,5,,,,,,,,,6,,,76,108
24768,note_on,32,0,4,,,,,,,,,3,,,50,108
24768,note_on,32,0,5,,,,,,,,,6,,,68,108
24768,note_on,32,0,2,,,,,,,,,1,,,64,108
24768,note_on,0,0,5,,,,,,,,,6,,,71,108
24768,note_on,2,0,7,,,,,,,,,7,,,44,108
24862,note_on,94,0,7,,,,,,,,,7,,,44,0
24864,note_on,2,0,7,,,,,,,,,7,,,40,108
24928,note_on,160,0,5,,,,,,,,,6,,,68,0
24928,note_on,0,0,5,,,,,,,,,6,,,76,0
24928,note_on,160,0,3,,,,,,,,,2,,,56,0
24928,note_on,160,0,2,,,,,,,,,1,,,64,0
24928,note_on,160,0,1,,,,,,,,,0,,,71,0
24928,note_on,160,0,4,,,,,,,,,3,,,50,0
24928,note_on,0,0,5,,,,,,,,,6,,,71,0
24958,note_on,94,0,7,,,,,,,,,7,,,40,0
24960,note_on,32,0,5,,,,,,,,,6,,,69,108
24960,note_on,32,0,2,,,,,,,,,1,,,64,108
24960,note_on,0,0,5,,,,,,,,,6,,,73,108
24960,note_on,0,0,5,,,,,,,,,6,,,76,108
24960,note_on,32,0,1,,,,,,,,,0,,,73,108
24960,note_on,32,0,3,,,,,,,,,2,,,57,108
24960,note_on,32,0,4,,,,,,,,,3,,,49,108
24960,note_on,2,0,7,,,,,,,,,7,,,49,108
25054,note_on,94,0,7,,,,,,,,,7,,,49,0
25056,note_on,2,0,7,,,,,,,,,7,,,45,108
25120,note_on,160,0,3,,,,,,,,,2,,,57,0
25120,note_on,160,0,5,,,,,,,,,6,,,69,0
25120,note_on,0,0,5,,,,,,,,,6,,,76,0
25120,note_on,0,0,5,,,,,,,,,6,,,73,0
25120,note_on,160,0,4,,,,,,,,,3,,,49,0
25120,note_on,160,0,1,,,,,,,,,0,,,73,0
25120,note_on,160,0,2,,,,,,,,,1,,,64,0
25150,note_on,94,0,7,,,,,,,,,7,,,45,0
25152,note_on,0,0,5,,,,,,,,,6,,,76,108
25152,note_on,2,0,7,,,,,,,,,7,,,40,108
25152,note_on,0,0,5,,,,,,,,,6,,,73,108
25152,note_on,32,0,5,,,,,,,,,6,,,69,108
25152,note_on,32,0,1,,,,,,,,,0,,,73,108
25152,note_on,32,0,2,,,,,,,,,1,,,64,108
25152,note_on,32,0,4,,,,,,,,,3,,,49,108
25152,note_on,32,0,3,,,,,,,,,2,,,57,108
25246,note_on,94,0,7,,,,,,,,,7,,,40,0
25248,note_on,2,0,7,,,,,,,,,7,,,37,108
25312,note_on,160,0,1,,,,,,,,,0,,,73,0
25312,note_on,160,0,5,,,,,,,,,6,,,69,0
25312,note_on,160,0,4,,,,,,,,,3,,,49,0
25312,note_on,160,0,2,,,,,,,,,1,,,64,0
25312,note_on,160,0,3,,,,,,,,,2,,,57,0
25312,note_on,0,0,5,,,,,,,,,6,,,76,0
25312,note_on,0,0,5,,,,,,,,,6,,,73,0
25342,note_on,94,0,7,,,,,,,,,7,,,37,0
25344,note_on,2,0,7,,,,,,,,,7,,,50,75
25344,note_on,0,0,6,,,,,,,,,5,,,74,75
25344,note_on,32,0,2,,,,,,,,,1,,,65,92
25344,note_on,1584,0,6,,,,,,,,,5,,,65,75
25440,note_on,96,0,2,,,,,,,,,1,,,65,0
25440,note_on,0,0,2,,,,,,,,,1,,,69,92
25504,note_on,0,0,6,,,,,,,,,5,,,74,0
25504,note_on,160,0,7,,,,,,,,,7,,,50,0
25504,note_on,160,0,6,,,,,,,,,5,,,65,0
25534,note_on,94,0,2,,,,,,,,,1,,,69,0
25536,note_on,2,0,2,,,,,,,,,1,,,67,92
25632,note_on,96,0,2,,,,,,,,,1,,,67,0
25632,note_on,0,0,2,,,,,,,,,1,,,65,92
25632,note_on,0,0,6,,,,,,,,,5,,,69,75
25632,note_on,128,0,7,,,,,,,,,7,,,50,75
25632,note_on,128,0,6,,,,,,,,,5,,,65,75
25726,note_on,94,0,2,,,,,,,,,1,,,65,0
25726,note_on,94,0,6,,,,,,,,,5,,,65,0
25726,note_on,0,0,6,,,,,,,,,5,,,69,0
25726,note_on,94,0,7,,,,,,,,,7,,,50,0
25728,note_on,2,0,7,,,,,,,,,7,,,55,75
25728,note_on,2,0,2,,,,,,,,,1,,,70,92
25728,note_on,2,0,6,,,,,,,,,5,,,62,75
25728,note_on,0,0,6,,,,,,,,,5,,,70,75
25822,note_on,0,0,6,,,,,,,,,5,,,70,0
25822,note_on,94,0,7,,,,,,,,,7,,,55,0
25822,note_on,94,0,6,,,,,,,,,5,,,62,0
25824,note_on,2,0,7,,,,,,,,,7,,,57,75
25824,note_on,96,0,2,,,,,,,,,1,,,70,0
25824,note_on,0,0,2,,,,,,,,,1,,,61,92
25824,note_on,0,0,6,,,,,,,,,5,,,64,75
25824,note_on,2,0,6,,,,,,,,,5,,,61,75
25918,note_on,94,0,2,,,,,,,,,1,,,61,0
25918,note_on,0,0,6,,,,,,,,,5,,,64,0
25918,note_on,94,0,6,,,,,,,,,5,,,61,0
25918,note_on,94,0,7,,,,,,,,,7,,,57,0
25920,note_on,0,0,6,,,,,,,,,5,,,69,75
25920,note_on,2,0,2,,,,,,,,,1,,,62,92
25920,note_on,2,0,6,,,,,,,,,5,,,62,75
25920,note_on,2,0,7,,,,,,,,,7,,,53,75
26014,note_on,94,0,7,,,,,,,,,7,,,53,0
26014,note_on,94,0,6,,,,,,,,,5,,,62,0
26016,note_on,0,0,2,,,,,,,,,1,,,67,92
26016,note_on,2,0,6,,,,,,,,,5,,,67,75
26016,note_on,2,0,7,,,,,,,,,7,,,49,75
26016,note_on,96,0,2,,,,,,,,,1,,,62,0
26110,note_on,94,0,2,,,,,,,,,1,,,67,0
26110,note_on,94,0,6,,,,,,,,,5,,,67,0
26110,note_on,94,0,7,,,,,,,,,7,,,49,0
26112,note_on,2,0,7,,,,,,,,,7,,,50,75
26112,note_on,2,0,6,,,,,,,,,5,,,65,75
26112,note_on,2,0,2,,,,,,,,,1,,,65,75
26206,note_on,94,0,6,,,,,,,,,5,,,65,0
26206,note_on,0,0,6,,,,,,,,,5,,,69,0
26206,note_on,94,0,7,,,,,,,,,7,,,50,0
26208,note_on,2,0,6,,,,,,,,,5,,,64,75
26208,note_on,2,0,7,,,,,,,,,7,,,55,75
26208,note_on,0,0,6,,,,,,,,,5,,,67,75
26254,note_on,46,0,6,,,,,,,,,5,,,64,0
26254,note_on,0,0,6,,,,,,,,,5,,,67,0
26256,note_on,2,0,6,,,,,,,,,5,,,62,75
26256,note_on,0,0,6,,,,,,,,,5,,,65,75
26302,note_on,94,0,7,,,,,,,,,7,,,55,0
26302,note_on,46,0,6,,,,,,,,,5,,,62,0
26302,note_on,0,0,6,,,,,,,,,5,,,65,0
26304,note_on,192,0,2,,,,,,,,,1,,,65,0
26304,note_on,0,0,2,,,,,,,,,1,,,64,75
26304,note_on,0,0,6,,,,,,,,,5,,,64,75
26304,note_on,2,0,6,,,,,,,,,5,,,62,75
26304,note_on,2,0,7,,,,,,,,,7,,,57,75
26398,note_on,94,0,7,,,,,,,,,7,,,57,0
26398,note_on,94,0,6,,,,,,,,,5,,,62,0
26400,note_on,2,0,7,,,,,,,,,7,,,45,75
26400,note_on,2,0,6,,,,,,,,,5,,,61,75
26464,note_on,64,0,6,,,,,,,,,5,,,64,0
26464,note_on,160,0,2,,,,,,,,,1,,,64,0
26494,note_on,30,0,6,,,,,,,,,5,,,61,0
26494,note_on,94,0,7,,,,,,,,,7,,,45,0
26496,note_on,2,0,7,,,,,,,,,7,,,62,75
26496,note_on,2,0,6,,,,,,,,,5,,,62,75
26496,note_on,32,0,2,,,,,,,,,1,,,62,75
26590,note_on,94,0,7,,,,,,,,,7,,,62,0
26592,note_on,2,0,7,,,,,,,,,7,,,57,75
26686,note_on,94,0,7,,,,,,,,,7,,,57,0
26688,note_on,2,0,7,,,,,,,,,7,,,53,75
26782,note_on,94,0,7,,,,,,,,,7,,,53,0
26784,note_on,2,0,7,,,,,,,,,7,,,50,75
26832,note_on,336,0,2,,,,,,,,,1,,,62,0
26832,note_on,336,0,6,,,,,,,,,5,,,62,0
26878,note_on,94,0,7,,,,,,,,,7,,,50,0
26880,note_on,0,0,5,,,,,,,,,6,,,74,60
26880,note_on,1568,0,3,,,,,,,,,2,,,59,60
26880,note_on,48,0,2,,,,,,,,,1,,,65,60
26880,note_on,1568,0,5,,,,,,,,,6,,,71,60
26880,note_on,0,0,5,,,,,,,,,6,,,77,60
26880,note_on,2,0,7,,,,,,,,,7,,,56,60
26880,note_on,1568,0,4,,,,,,,,,3,,,56,60
26880,note_on,1568,0,1,,,,,,,,,0,,,74,60
26974,note_on,94,0,2,,,,,,,,,1,,,65,0
26974,note_on,94,0,3,,,,,,,,,2,,,59,0
26974,note_on,94,0,7,,,,,,,,,7,,,56,0
26974,note_on,0,0,5,,,,,,,,,6,,,77,0
26974,note_on,94,0,5,,,,,,,,,6,,,71,0
26974,note_on,94,0,1,,,,,,,,,0,,,74,0
26974,note_on,0,0,5,,,,,,,,,6,,,74,0
26974,note_on,94,0,4,,,,,,,,,3,,,56,0
26976,note_on,2,0,7,,,,,,,,,7,,,56,60
26976,note_on,0,0,5,,,,,,,,,6,,,74,60
26976,note_on,0,0,5,,,,,,,,,6,,,77,60
26976,note_on,2,0,3,,,,,,,,,2,,,59,60
26976,note_on,2,0,1,,,,,,,,,0,,,74,60
26976,note_on,2,0,4,,,,,,,,,3,,,56,60
26976,note_on,2,0,5,,,,,,,,,6,,,71,60
26976,note_on,2,0,2,,,,,,,,,1,,,65,60
27070,note_on,0,0,5,,,,,,,,,6,,,77,0
27070,note_on,94,0,7,,,,,,,,,7,,,56,0
27070,note_on,94,0,1,,,,,,,,,0,,,74,0
27070,note_on,94,0,4,,,,,,,,,3,,,56,0
27070,note_on,94,0,2,,,,,,,,,1,,,65,0
27070,note_on,94,0,5,,,,,,,,,6,,,71,0
27070,note_on,0,0,5,,,,,,,,,6,,,74,0
27070,note_on,94,0,3,,,,,,,,,2,,,59,0
27072,note_on,2,0,4,,,,,,,,,3,,,56,75
27072,note_on,0,0,5,,,,,,,,,6,,,77,75
27072,note_on,2,0,7,,,,,,,,,7,,,56,75
27072,note_on,2,0,5,,,,,,,,,6,,,71,75
27072,note_on,2,0,3,,,,,,,,,2,,,59,75
27072,note_on,2,0,1,,,,,,,,,0,,,74,75
27072,note_on,2,0,2,,,,,,,,,1,,,65,75
27072,note_on,0,0,5,,,,,,,,,6,,,74,75
27166,note_on,94,0,7,,,,,,,,,7,,,56,0
27166,note_on,94,0,1,,,,,,,,,0,,,74,0
27166,note_on,94,0,5,,,,,,,,,6,,,71,0
27166,note_on,0,0,5,,,,,,,,,6,,,74,0
27166,note_on,0,0,5,,,,,,,,,6,,,77,0
27166,note_on,94,0,3,,,,,,,,,2,,,59,0
27166,note_on,94,0,2,,,,,,,,,1,,,65,0
27166,note_on,94,0,4,,,,,,,,,3,,,56,0
27168,note_on,2,0,5,,,,,,,,,6,,,71,75
27168,note_on,0,0,5,,,,,,,,,6,,,77,75
27168,note_on,0,0,5,,,,,,,,,6,,,74,75
27168,note_on,2,0,3,,,,,,,,,2,,,59,75
27168,note_on,2,0,2,,,,,,,,,1,,,65,75
27168,note_on,2,0,4,,,,,,,,,3,,,56,75
27168,note_on,2,0,7,,,,,,,,,7,,,56,75
27168,note_on,2,0,1,,,,,,,,,0,,,74,75
27262,note_on,94,0,7,,,,,,,,,7,,,56,0
27262,note_on,94,0,3,,,,,,,,,2,,,59,0
27262,note_on,0,0,5,,,,,,,,,6,,,77,0
27262,note_on,0,0,5,,,,,,,,,6,,,74,0
27262,note_on,94,0,5,,,,,,,,,6,,,71,0
27262,note_on,94,0,4,,,,,,,,,3,,,56,0
27262,note_on,94,0,1,,,,,,,,,0,,,74,0
27262,note_on,94,0,2,,,,,,,,,1,,,65,0
27264,note_on,2,0,7,,,,,,,,,7,,,57,60
27264,note_on,2,0,1,,,,,,,,,0,,,74,60
27264,note_on,0,0,5,,,,,,,,,6,,,76,75
27264,note_on,2,0,4,,,,,,,,,3,,,57,75
27264,note_on,2,0,5,,,,,,,,,6,,,69,75
27264,note_on,2,0,3,,,,,,,,,2,,,57,60
27264,note_on,2,0,2,,,,,,,,,1,,,64,60
27264,note_on,0,0,5,,,,,,,,,6,,,74,75
27424,note_on,160,0,5,,,,,,,,,6,,,74,0
27424,note_on,160,0,7,,,,,,,,,7,,,57,0
27456,note_on,32,0,7,,,,,,,,,7,,,45,60
27456,note_on,192,0,4,,,,,,,,,3,,,57,0
27456,note_on,0,0,4,,,,,,,,,3,,,45,75
27456,note_on,0,0,1,,,,,,,,,0,,,73,60
27456,note_on,32,0,5,,,,,,,,,6,,,73,75
27456,note_on,192,0,1,,,,,,,,,0,,,74,0
27600,note_on,336,0,2,,,,,,,,,1,,,64,0
27600,note_on,336,0,3,,,,,,,,,2,,,57,0
27616,note_on,160,0,1,,,,,,,,,0,,,73,0
27616,note_on,160,0,5,,,,,,,,,6,,,69,0
27616,note_on,0,0,5,,,,,,,,,6,,,76,0
27616,note_on,160,0,7,,,,,,,,,7,,,45,0
27616,note_on,160,0,4,,,,,,,,,3,,,45,0
27616,note_on,0,0,5,,,,,,,,,6,,,73,0
27648,note_on,48,0,3,,,,,,,,,2,,,57,60
27648,note_on,0,0,5,,,,,,,,,6,,,77,75
27648,note_on,32,0,7,,,,,,,,,7,,,62,75
27648,note_on,32,0,4,,,,,,,,,3,,,50,75
27648,note_on,32,0,1,,,,,,,,,0,,,74,60
27648,note_on,32,0,5,,,,,,,,,6,,,69,75
27648,note_on,0,0,5,,,,,,,,,6,,,74,75
27648,note_on,48,0,2,,,,,,,,,1,,,65,60
27742,note_on,94,0,7,,,,,,,,,7,,,62,0
27744,note_on,2,0,7,,,,,,,,,7,,,57,75
27838,note_on,94,0,7,,,,,,,,,7,,,57,0
27840,note_on,2,0,7,,,,,,,,,7,,,53,75
27934,note_on,94,0,7,,,,,,,,,7,,,53,0
27936,note_on,2,0,7,,,,,,,,,7,,,52,75
27982,note_on,46,0,7,,,,,,,,,7,,,52,0
27984,note_on,0,0,5,,,,,,,,,6,,,77,0
27984,note_on,2,0,7,,,,,,,,,7,,,50,75
27984,end_of_track,0,1,5,,,,,,,,,,,,,
27984,end_of_track,0,1,2,,,,,,,,,,,,,
27984,note_on,0,0,5,,,,,,,,,6,,,74,0
27984,note_on,336,0,5,,,,,,,,,6,,,69,0
27984,end_of_track,0,1,4,,,,,,,,,,,,,
27984,note_on,336,0,4,,,,,,,,,3,,,50,0
27984,note_on,336,0,3,,,,,,,,,2,,,57,0
27984,note_on,336,0,1,,,,,,,,,0,,,74,0
27984,end_of_track,0,1,3,,,,,,,,,,,,,
27984,end_of_track,0,1,1,,,,,,,,,,,,,
27984,note_on,336,0,2,,,,,,,,,1,,,65,0
28030,note_on,46,0,7,,,,,,,,,7,,,50,0
28032,note_on,2,0,7,,,,,,,,,7,,,49,75
28078,note_on,46,0,7,,,,,,,,,7,,,49,0
28080,note_on,2,0,7,,,,,,,,,7,,,47,75
28126,note_on,46,0,7,,,,,,,,,7,,,47,0
28128,note_on,2,0,7,,,,,,,,,7,,,45,75
28222,note_on,94,0,7,,,,,,,,,7,,,45,0
28224,note_on,1392,0,6,,,,,,,,,5,,,69,60
28320,note_on,98,0,7,,,,,,,,,7,,,57,75
28414,note_on,94,0,7,,,,,,,,,7,,,57,0
28416,note_on,2,0,7,,,,,,,,,7,,,58,75
28416,note_on,192,0,6,,,,,,,,,5,,,74,60
28510,note_on,94,0,7,,,,,,,,,7,,,58,0
28510,note_on,94,0,6,,,,,,,,,5,,,69,0
28512,note_on,2,0,7,,,,,,,,,7,,,62,75
28512,note_on,2,0,6,,,,,,,,,5,,,70,60
28558,note_on,46,0,6,,,,,,,,,5,,,70,0
28560,note_on,2,0,6,,,,,,,,,5,,,69,60
28606,note_on,94,0,7,,,,,,,,,7,,,62,0
28606,note_on,46,0,6,,,,,,,,,5,,,69,0
28608,note_on,2,0,7,,,,,,,,,7,,,52,75
28608,note_on,2,0,6,,,,,,,,,5,,,67,60
28702,note_on,94,0,7,,,,,,,,,7,,,52,0
28702,note_on,94,0,6,,,,,,,,,5,,,74,0
28704,note_on,2,0,7,,,,,,,,,7,,,60,75
28704,note_on,2,0,6,,,,,,,,,5,,,76,60
28750,note_on,46,0,6,,,,,,,,,5,,,76,0
28752,note_on,2,0,6,,,,,,,,,5,,,74,60
28798,note_on,46,0,6,,,,,,,,,5,,,74,0
28798,note_on,94,0,7,,,,,,,,,7,,,60,0
28800,note_on,2,0,6,,,,,,,,,5,,,72,60
28800,note_on,2,0,7,,,,,,,,,7,,,57,75
28894,note_on,94,0,6,,,,,,,,,5,,,67,0
28894,note_on,94,0,7,,,,,,,,,7,,,57,0
28896,note_on,2,0,7,,,,,,,,,7,,,60,75
28896,note_on,2,0,6,,,,,,,,,5,,,69,60
28942,note_on,46,0,6,,,,,,,,,5,,,69,0
28944,note_on,2,0,6,,,,,,,,,5,,,67,60
28990,note_on,94,0,7,,,,,,,,,7,,,60,0
28990,note_on,46,0,6,,,,,,,,,5,,,67,0
28992,note_on,2,0,7,,,,,,,,,7,,,50,75
28992,note_on,2,0,6,,,,,,,,,5,,,65,60
29086,note_on,94,0,6,,,,,,,,,5,,,72,0
29086,note_on,94,0,7,,,,,,,,,7,,,50,0
29088,note_on,2,0,6,,,,,,,,,5,,,74,60
29088,note_on,2,0,7,,,,,,,,,7,,,58,75
29134,note_on,46,0,6,,,,,,,,,5,,,74,0
29136,note_on,2,0,6,,,,,,,,,5,,,72,60
29182,note_on,94,0,7,,,,,,,,,7,,,58,0
29182,note_on,46,0,6,,,,,,,,,5,,,72,0
29184,note_on,2,0,7,,,,,,,,,7,,,55,75
29184,note_on,2,0,6,,,,,,,,,5,,,70,60
29278,note_on,94,0,6,,,,,,,,,5,,,65,0
29278,note_on,94,0,7,,,,,,,,,7,,,55,0
29280,note_on,2,0,6,,,,,,,,,5,,,67,60
29280,note_on,2,0,7,,,,,,,,,7,,,58,75
29326,note_on,46,0,6,,,,,,,,,5,,,67,0
29328,note_on,2,0,6,,,,,,,,,5,,,65,60
29374,note_on,46,0,6,,,,,,,,,5,,,65,0
29374,note_on,94,0,7,,,,,,,,,7,,,58,0
29376,note_on,2,0,7,,,,,,,,,7,,,49,75
29376,note_on,2,0,6,,,,,,,,,5,,,64,60
29470,note_on,94,0,6,,,,,,,,,5,,,64,0
29470,note_on,0,0,6,,,,,,,,,5,,,70,0
29470,note_on,94,0,7,,,,,,,,,7,,,49,0
29472,note_on,2,0,6,,,,,,,,,5,,,65,60
29472,note_on,0,0,6,,,,,,,,,5,,,69,60
29472,note_on,2,0,7,,,,,,,,,7,,,57,75
29518,note_on,46,0,6,,,,,,,,,5,,,65,0
29518,note_on,0,0,6,,,,,,,,,5,,,69,0
29520,note_on,0,0,6,,,,,,,,,5,,,67,60
29520,note_on,2,0,6,,,,,,,,,5,,,64,60
29566,note_on,46,0,6,,,,,,,,,5,,,64,0
29566,note_on,0,0,6,,,,,,,,,5,,,67,0
29566,note_on,94,0,7,,,,,,,,,7,,,57,0
29568,note_on,0,0,6,,,,,,,,,5,,,69,60
29568,note_on,2,0,6,,,,,,,,,5,,,62,60
29568,note_on,2,0,7,,,,,,,,,7,,,53,75
29614,note_on,0,0,6,,,,,,,,,5,,,69,0
29614,note_on,46,0,6,,,,,,,,,5,,,62,0
29616,note_on,2,0,6,,,,,,,,,5,,,67,60
29662,note_on,94,0,7,,,,,,,,,7,,,53,0
29662,note_on,46,0,6,,,,,,,,,5,,,67,0
29664,note_on,2,0,7,,,,,,,,,7,,,62,75
29664,note_on,2,0,6,,,,,,,,,5,,,65,60
29710,note_on,46,0,6,,,,,,,,,5,,,65,0
29712,note_on,2,0,6,,,,,,,,,5,,,64,60
29758,note_on,46,0,6,,,,,,,,,5,,,64,0
29758,note_on,94,0,7,,,,,,,,,7,,,62,0
29760,note_on,2,0,6,,,,,,,,,5,,,62,60
29808,note_on,48,0,6,,,,,,,,,5,,,69,60
29854,note_on,46,0,6,,,,,,,,,5,,,69,0
29856,note_on,2,0,6,,,,,,,,,5,,,70,60
29856,note_on,98,0,7,,,,,,,,,7,,,54,75
29902,note_on,46,0,6,,,,,,,,,5,,,70,0
29904,note_on,2,0,6,,,,,,,,,5,,,72,60
29950,note_on,94,0,7,,,,,,,,,7,,,54,0
29950,note_on,46,0,6,,,,,,,,,5,,,72,0
29952,note_on,2,0,7,,,,,,,,,7,,,55,75
29952,note_on,2,0,6,,,,,,,,,5,,,70,60
29998,note_on,46,0,6,,,,,,,,,5,,,70,0
30000,note_on,2,0,6,,,,,,,,,5,,,69,60
30046,note_on,94,0,7,,,,,,,,,7,,,55,0
30046,note_on,46,0,6,,,,,,,,,5,,,62,0
30046,note_on,0,0,6,,,,,,,,,5,,,69,0
30048,note_on,2,0,7,,,,,,,,,7,,,64,75
30048,note_on,2,0,6,,,,,,,,,5,,,67,60
30094,note_on,46,0,6,,,,,,,,,5,,,67,0
30096,note_on,2,0,6,,,,,,,,,5,,,65,60
30142,note_on,46,0,6,,,,,,,,,5,,,65,0
30142,note_on,94,0,7,,,,,,,,,7,,,64,0
30144,note_on,2,0,6,,,,,,,,,5,,,64,60
30192,note_on,48,0,6,,,,,,,,,5,,,71,60
30238,note_on,46,0,6,,,,,,,,,5,,,71,0
30240,note_on,2,0,6,,,,,,,,,5,,,73,60
30240,note_on,98,0,7,,,,,,,,,7,,,56,75
30286,note_on,46,0,6,,,,,,,,,5,,,73,0
30288,note_on,2,0,6,,,,,,,,,5,,,74,60
30334,note_on,94,0,7,,,,,,,,,7,,,56,0
30334,note_on,46,0,6,,,,,,,,,5,,,74,0
30336,set_tempo,29568,1,0,857142,,,,,,,,,,,,
30336,note_on,2,0,6,,,,,,,,,5,,,73,60
30336,note_on,2,0,7,,,,,,,,,7,,,57,75
30382,note_on,46,0,6,,,,,,,,,5,,,64,0
30382,note_on,46,0,7,,,,,,,,,7,,,57,0
30384,note_on,2,0,6,,,,,,,,,5,,,69,60
30384,note_on,2,0,7,,,,,,,,,7,,,55,75
30430,note_on,46,0,6,,,,,,,,,5,,,73,0
30430,note_on,0,0,6,,,,,,,,,5,,,69,0
30430,note_on,46,0,7,,,,,,,,,7,,,55,0
30432,note_on,2,0,6,,,,,,,,,5,,,71,60
30432,note_on,0,0,6,,,,,,,,,5,,,74,60
30432,note_on,2,0,7,,,,,,,,,7,,,53,75
30478,note_on,46,0,7,,,,,,,,,7,,,53,0
30478,note_on,0,0,6,,,,,,,,,5,,,74,0
30478,note_on,46,0,6,,,,,,,,,5,,,71,0
30480,note_on,2,0,6,,,,,,,,,5,,,73,60
30480,note_on,2,0,7,,,,,,,,,7,,,52,75
30480,note_on,0,0,6,,,,,,,,,5,,,76,60
30526,note_on,46,0,7,,,,,,,,,7,,,52,0
30526,note_on,46,0,6,,,,,,,,,5,,,73,0
30526,note_on,0,0,6,,,,,,,,,5,,,76,0
30528,note_on,2,0,7,,,,,,,,,7,,,50,75
30528,set_tempo,192,1,0,909090,,,,,,,,,,,,
30528,note_on,0,0,6,,,,,,,,,5,,,77,60
30528,note_on,2,0,6,,,,,,,,,5,,,74,60
30574,note_on,46,0,7,,,,,,,,,7,,,50,0
30576,note_on,2,0,7,,,,,,,,,7,,,48,75
30622,note_on,0,0,6,,,,,,,,,5,,,77,0
30622,note_on,46,0,7,,,,,,,,,7,,,48,0
30622,note_on,94,0,6,,,,,,,,,5,,,74,0
30624,note_on,2,0,7,,,,,,,,,7,,,46,75
30670,note_on,46,0,7,,,,,,,,,7,,,46,0
30672,note_on,2,0,7,,,,,,,,,7,,,45,75
30718,note_on,46,0,7,,,,,,,,,7,,,45,0
30720,set_tempo,192,1,0,1111111,,,,,,,,,,,,
30720,note_on,2,0,7,,,,,,,,,7,,,43,75
30766,note_on,46,0,7,,,,,,,,,7,,,43,0
30768,note_on,2,0,7,,,,,,,,,7,,,41,75
30814,note_on,46,0,7,,,,,,,,,7,,,41,0
30816,note_on,0,0,6,,,,,,,,,5,,,74,60
30816,note_on,194,0,6,,,,,,,,,5,,,65,60
30816,note_on,0,0,6,,,,,,,,,5,,,69,60
30816,note_on,2,0,7,,,,,,,,,7,,,40,75
30862,note_on,46,0,7,,,,,,,,,7,,,40,0
30864,note_on,2,0,7,,,,,,,,,7,,,38,75
30910,note_on,0,0,6,,,,,,,,,5,,,69,0
30910,note_on,46,0,7,,,,,,,,,7,,,38,0
30910,note_on,94,0,6,,,,,,,,,5,,,65,0
30910,note_on,0,0,6,,,,,,,,,5,,,74,0
30912,note_on,2,0,6,,,,,,,,,5,,,64,60
30912,note_on,0,0,6,,,,,,,,,5,,,69,60
30912,note_on,0,0,6,,,,,,,,,5,,,74,60
30912,note_on,2,0,7,,,,,,,,,7,,,45,75
30912,set_tempo,192,1,0,1200000,,,,,,,,,,,,
31006,note_on,94,0,6,,,,,,,,,5,,,74,0
31006,note_on,94,0,7,,,,,,,,,7,,,45,0
31008,note_on,2,0,7,,,,,,,,,7,,,45,75
31008,note_on,2,0,6,,,,,,,,,5,,,73,60
31008,set_tempo,96,1,0,1304347,,,,,,,,,,,,
31072,note_on,64,0,6,,,,,,,,,5,,,64,0
31072,note_on,0,0,6,,,,,,,,,5,,,69,0
31102,note_on,94,0,7,,,,,,,,,7,,,45,0
31102,note_on,30,0,6,,,,,,,,,5,,,73,0
31104,note_on,2,0,6,,,,,,,,,5,,,65,60
31104,end_of_track,0,1,0,,,,,,,,,,,,,
31104,note_on,2,0,7,,,,,,,,,7,,,38,75
31104,note_on,0,0,6,,,,,,,,,5,,,74,60
31104,note_on,0,0,6,,,,,,,,,5,,,69,60
31104,set_tempo,96,1,0,937500,,,,,,,,,,,,
31440,end_of_track,0,1,7,,,,,,,,,,,,,
31440,note_on,336,0,7,,,,,,,,,7,,,38,0
31440,end_of_track,0,1,6,,,,,,,,,,,,,
31440,note_on,0,0,6,,,,,,,,,5,,,74,0
31440,note_on,0,0,6,,,,,,,,,5,,,69,0
31440,note_on,336,0,6,,,,,,,,,5,,,65,0
