tick,type,time,meta,track,tempo,numerator,denominator,clocks_per_click,notated_32nd_notes_per_beat,port,program,channel,control,value,note,velocity
0,track_name,0,1,0,,,,,,,,,,,,
0,track_name,0,1,6,,,,,,,,,,,,
0,midi_port,0,1,6,,,,,,0,,,,,,
0,end_of_track,0,1,5,,,,,,,,,,,,
0,control_change,0,0,5,,,,,,,,8,10,64,,
0,control_change,0,0,5,,,,,,,,8,7,127,,
0,track_name,0,1,5,,,,,,,,,,,,
0,midi_port,0,1,5,,,,,,0,,,,,,
0,control_change,0,0,4,,,,,,,,7,10,64,,
0,control_change,0,0,4,,,,,,,,7,7,111,,
0,program_change,0,0,4,,,,,,,43,7,,,,
0,track_name,0,1,4,,,,,,,,,,,,
0,midi_port,0,1,4,,,,,,0,,,,,,
0,control_change,0,0,11,,,,,,,,14,10,64,,
0,control_change,0,0,3,,,,,,,,6,10,64,,
0,control_change,0,0,3,,,,,,,,6,7,111,,
0,program_change,0,0,3,,,,,,,41,6,,,,
0,track_name,0,1,3,,,,,,,,,,,,
0,midi_port,0,1,3,,,,,,0,,,,,,
0,control_change,0,0,2,,,,,,,,5,10,64,,
0,control_change,0,0,2,,,,,,,,5,7,115,,
0,program_change,0,0,2,,,,,,,68,5,,,,
0,control_change,0,0,6,,,,,,,,9,7,127,,
0,control_change,0,0,6,,,,,,,,9,10,64,,
0,end_of_track,0,1,6,,,,,,,,,,,,
0,midi_port,0,1,7,,,,,,0,,,,,,
0,control_change,0,0,11,,,,,,,,14,7,127,,
0,track_name,0,1,11,,,,,,,,,,,,
0,midi_port,0,1,11,,,,,,0,,,,,,
0,end_of_track,0,1,10,,,,,,,,,,,,
0,control_change,0,0,10,,,,,,,,13,10,64,,
0,control_change,0,0,10,,,,,,,,13,7,127,,
0,track_name,0,1,10,,,,,,,,,,,,
0,midi_port,0,1,10,,,,,,0,,,,,,
0,end_of_track,0,1,9,,,,,,,,,,,,
0,control_change,0,0,9,,,,,,,,12,10,64,,
0,track_name,0,1,2,,,,,,,,,,,,
0,control_change,0,0,9,,,,,,,,12,7,127,,
0,midi_port,0,1,9,,,,,,0,,,,,,
0,end_of_track,0,1,8,,,,,,,,,,,,
0,control_change,0,0,8,,,,,,,,11,10,64,,
0,control_change,0,0,8,,,,,,,,11,7,127,,
0,track_name,0,1,8,,,,,,,,,,,,
0,midi_port,0,1,8,,,,,,0,,,,,,
0,end_of_track,0,1,7,,,,,,,,,,,,
0,control_change,0,0,7,,,,,,,,10,10,64,,
0,control_change,0,0,7,,,,,,,,10,7,127,,
0,track_name,0,1,7,,,,,,,,,,,,
0,track_name,0,1,9,,,,,,,,,,,,
0,midi_port,0,1,2,,,,,,0,,,,,,
0,end_of_track,0,1,11,,,,,,,,,,,,
0,midi_port,0,1,1,,,,,,0,,,,,,
0,text,0,1,0,,,,,,,,,,,,
0,text,0,1,0,,,,,,,,,,,,
0,copyright,0,1,0,,,,,,,,,,,,
0,set_tempo,0,1,0,416666,,,,,,,,,,,
0,time_signature,0,1,0,,4,4,24,8,,,,,,,
0,track_name,0,1,1,,,,,,,,,,,,
0,program_change,0,0,1,,,,,,,48,0,,,,
0,control_change,0,0,1,,,,,,,,0,7,127,,
0,control_change,0,0,1,,,,,,,,0,10,64,,
768,time_signature,0,1,0,,12,8,24,8,,,,,,,
768,set_tempo,768,1,0,869565,,,,,,,,,,,
768,note_on,768,0,2,,,,,,,,5,,,72,75
768,note_on,768,0,3,,,,,,,,6,,,64,75
768,note_on,768,0,4,,,,,,,,7,,,48,75
862,note_on,94,0,4,,,,,,,,7,,,48,0
864,note_on,2,0,4,,,,,,,,7,,,60,75
910,note_on,142,0,2,,,,,,,,5,,,72,0
910,note_on,142,0,3,,,,,,,,6,,,64,0
912,note_on,2,0,2,,,,,,,,5,,,74,75
912,note_on,2,0,3,,,,,,,,6,,,65,75
958,note_on,94,0,4,,,,,,,,7,,,60,0
958,note_on,46,0,3,,,,,,,,6,,,65,0
958,note_on,46,0,2,,,,,,,,5,,,74,0
960,note_on,2,0,3,,,,,,,,6,,,64,75
960,note_on,2,0,4,,,,,,,,7,,,48,75
960,note_on,2,0,2,,,,,,,,5,,,72,75
1054,note_on,94,0,4,,,,,,,,7,,,48,0
1054,note_on,94,0,2,,,,,,,,5,,,72,0
1054,note_on,94,0,3,,,,,,,,6,,,64,0
1056,note_on,2,0,3,,,,,,,,6,,,76,75
1056,note_on,2,0,2,,,,,,,,5,,,79,75
1056,note_on,2,0,4,,,,,,,,7,,,48,75
1150,note_on,94,0,4,,,,,,,,7,,,48,0
1152,note_on,2,0,4,,,,,,,,7,,,60,75
1216,note_on,160,0,2,,,,,,,,5,,,79,0
1216,note_on,160,0,3,,,,,,,,6,,,76,0
1246,note_on,94,0,4,,,,,,,,7,,,60,0
1248,note_on,32,0,2,,,,,,,,5,,,72,75
1248,note_on,2,0,4,,,,,,,,7,,,48,75
1248,note_on,32,0,3,,,,,,,,6,,,64,75
1342,note_on,94,0,2,,,,,,,,5,,,72,0
1342,note_on,94,0,4,,,,,,,,7,,,48,0
1342,note_on,94,0,3,,,,,,,,6,,,64,0
1344,note_on,2,0,2,,,,,,,,5,,,71,75
1344,note_on,2,0,4,,,,,,,,7,,,43,75
1344,note_on,2,0,3,,,,,,,,6,,,62,75
1438,note_on,94,0,4,,,,,,,,7,,,43,0
1438,note_on,94,0,3,,,,,,,,6,,,62,0
1440,note_on,2,0,3,,,,,,,,6,,,71,75
1440,note_on,2,0,4,,,,,,,,7,,,55,75
1534,note_on,94,0,3,,,,,,,,6,,,71,0
1534,note_on,94,0,4,,,,,,,,7,,,55,0
1536,note_on,2,0,3,,,,,,,,6,,,69,75
1536,note_on,2,0,4,,,,,,,,7,,,53,75
1600,note_on,256,0,2,,,,,,,,5,,,71,0
1630,note_on,94,0,4,,,,,,,,7,,,53,0
1630,note_on,94,0,3,,,,,,,,6,,,69,0
1632,note_on,32,0,2,,,,,,,,5,,,72,75
1632,note_on,2,0,4,,,,,,,,7,,,52,75
1632,note_on,2,0,3,,,,,,,,6,,,67,75
1726,note_on,94,0,4,,,,,,,,7,,,52,0
1728,note_on,2,0,4,,,,,,,,7,,,60,75
1774,note_on,142,0,3,,,,,,,,6,,,67,0
1776,note_on,2,0,3,,,,,,,,6,,,65,75
1822,note_on,94,0,4,,,,,,,,7,,,60,0
1822,note_on,46,0,3,,,,,,,,6,,,65,0
1824,note_on,2,0,4,,,,,,,,7,,,52,75
1824,note_on,2,0,3,,,,,,,,6,,,67,75
1888,note_on,256,0,2,,,,,,,,5,,,72,0
1918,note_on,94,0,3,,,,,,,,6,,,67,0
1918,note_on,94,0,4,,,,,,,,7,,,52,0
1920,note_on,32,0,2,,,,,,,,5,,,74,75
1920,note_on,2,0,4,,,,,,,,7,,,50,75
1920,note_on,2,0,3,,,,,,,,6,,,65,75
2014,note_on,94,0,4,,,,,,,,7,,,50,0
2014,note_on,94,0,3,,,,,,,,6,,,65,0
2016,note_on,2,0,3,,,,,,,,6,,,74,75
2016,note_on,2,0,4,,,,,,,,7,,,47,75
2062,note_on,142,0,2,,,,,,,,5,,,74,0
2064,note_on,2,0,2,,,,,,,,5,,,76,75
2110,note_on,94,0,4,,,,,,,,7,,,47,0
2110,note_on,94,0,3,,,,,,,,6,,,74,0
2110,note_on,46,0,2,,,,,,,,5,,,76,0
2112,note_on,2,0,4,,,,,,,,7,,,45,75
2112,note_on,2,0,3,,,,,,,,6,,,72,75
2112,note_on,2,0,2,,,,,,,,5,,,77,75
2206,note_on,94,0,3,,,,,,,,6,,,72,0
2206,note_on,94,0,4,,,,,,,,7,,,45,0
2206,note_on,94,0,2,,,,,,,,5,,,77,0
2208,note_on,2,0,4,,,,,,,,7,,,43,75
2208,note_on,2,0,3,,,,,,,,6,,,62,75
2208,note_on,2,0,2,,,,,,,,5,,,71,75
2302,note_on,94,0,4,,,,,,,,7,,,43,0
2304,note_on,2,0,4,,,,,,,,7,,,55,75
2350,note_on,142,0,3,,,,,,,,6,,,62,0
2350,note_on,142,0,2,,,,,,,,5,,,71,0
2352,note_on,2,0,2,,,,,,,,5,,,72,75
2352,note_on,2,0,3,,,,,,,,6,,,64,75
2398,note_on,46,0,2,,,,,,,,5,,,72,0
2398,note_on,46,0,3,,,,,,,,6,,,64,0
2398,note_on,94,0,4,,,,,,,,7,,,55,0
2400,note_on,2,0,3,,,,,,,,6,,,65,75
2400,note_on,2,0,4,,,,,,,,7,,,43,75
2400,note_on,2,0,2,,,,,,,,5,,,74,75
2494,note_on,94,0,4,,,,,,,,7,,,43,0
2494,note_on,94,0,3,,,,,,,,6,,,65,0
2494,note_on,94,0,2,,,,,,,,5,,,74,0
2496,note_on,2,0,3,,,,,,,,6,,,67,75
2496,note_on,2,0,2,,,,,,,,5,,,76,75
2496,note_on,2,0,4,,,,,,,,7,,,48,75
2590,note_on,94,0,4,,,,,,,,7,,,48,0
2592,note_on,2,0,4,,,,,,,,7,,,60,75
2656,note_on,160,0,2,,,,,,,,5,,,76,0
2656,note_on,160,0,3,,,,,,,,6,,,67,0
2686,note_on,94,0,4,,,,,,,,7,,,60,0
2688,note_on,32,0,3,,,,,,,,6,,,65,75
2688,note_on,32,0,2,,,,,,,,5,,,74,75
2688,note_on,2,0,4,,,,,,,,7,,,48,75
2782,note_on,94,0,3,,,,,,,,6,,,65,0
2782,note_on,94,0,2,,,,,,,,5,,,74,0
2782,note_on,94,0,4,,,,,,,,7,,,48,0
2784,note_on,2,0,4,,,,,,,,7,,,48,75
2784,note_on,2,0,3,,,,,,,,6,,,64,75
2784,note_on,2,0,2,,,,,,,,5,,,72,75
2878,note_on,94,0,4,,,,,,,,7,,,48,0
2880,note_on,2,0,4,,,,,,,,7,,,60,75
2926,note_on,142,0,3,,,,,,,,6,,,64,0
2928,note_on,2,0,3,,,,,,,,6,,,65,75
2974,note_on,94,0,4,,,,,,,,7,,,60,0
2974,note_on,46,0,3,,,,,,,,6,,,65,0
2976,note_on,2,0,3,,,,,,,,6,,,64,75
2976,note_on,2,0,4,,,,,,,,7,,,48,75
3040,note_on,256,0,2,,,,,,,,5,,,72,0
3070,note_on,94,0,3,,,,,,,,6,,,64,0
3070,note_on,94,0,4,,,,,,,,7,,,48,0
3072,note_on,2,0,3,,,,,,,,6,,,71,75
3072,note_on,2,0,4,,,,,,,,7,,,43,75
3072,note_on,32,0,2,,,,,,,,5,,,76,75
3166,note_on,94,0,4,,,,,,,,7,,,43,0
3168,note_on,2,0,4,,,,,,,,7,,,55,75
3214,note_on,142,0,2,,,,,,,,5,,,76,0
3216,note_on,2,0,2,,,,,,,,5,,,77,75
3262,note_on,94,0,4,,,,,,,,7,,,55,0
3262,note_on,46,0,2,,,,,,,,5,,,77,0
3264,note_on,2,0,4,,,,,,,,7,,,43,75
3264,note_on,2,0,2,,,,,,,,5,,,76,75
3328,note_on,256,0,3,,,,,,,,6,,,71,0
3358,note_on,94,0,4,,,,,,,,7,,,43,0
3358,note_on,94,0,2,,,,,,,,5,,,76,0
3360,note_on,2,0,4,,,,,,,,7,,,43,75
3360,note_on,32,0,3,,,,,,,,6,,,70,75
3360,note_on,2,0,2,,,,,,,,5,,,79,75
3454,note_on,94,0,4,,,,,,,,7,,,43,0
3456,note_on,2,0,4,,,,,,,,7,,,55,75
3502,note_on,142,0,3,,,,,,,,6,,,70,0
3504,note_on,2,0,3,,,,,,,,6,,,72,75
3520,note_on,160,0,2,,,,,,,,5,,,79,0
3550,note_on,46,0,3,,,,,,,,6,,,72,0
3550,note_on,94,0,4,,,,,,,,7,,,55,0
3552,note_on,2,0,3,,,,,,,,6,,,70,75
3552,note_on,2,0,4,,,,,,,,7,,,43,75
3552,note_on,32,0,2,,,,,,,,5,,,76,75
3646,note_on,94,0,4,,,,,,,,7,,,43,0
3646,note_on,94,0,3,,,,,,,,6,,,70,0
3646,note_on,94,0,2,,,,,,,,5,,,76,0
3648,note_on,2,0,3,,,,,,,,6,,,64,75
3648,note_on,2,0,4,,,,,,,,7,,,43,75
3648,note_on,2,0,2,,,,,,,,5,,,73,75
3742,note_on,94,0,4,,,,,,,,7,,,43,0
3744,note_on,2,0,4,,,,,,,,7,,,55,75
3790,note_on,142,0,3,,,,,,,,6,,,64,0
3792,note_on,2,0,3,,,,,,,,6,,,65,75
3838,note_on,94,0,4,,,,,,,,7,,,55,0
3838,note_on,46,0,3,,,,,,,,6,,,65,0
3840,note_on,2,0,3,,,,,,,,6,,,64,75
3840,note_on,2,0,4,,,,,,,,7,,,43,75
3934,note_on,94,0,3,,,,,,,,6,,,64,0
3934,note_on,94,0,4,,,,,,,,7,,,43,0
3936,note_on,2,0,4,,,,,,,,7,,,43,75
3936,note_on,2,0,3,,,,,,,,6,,,69,75
4030,note_on,94,0,4,,,,,,,,7,,,43,0
4032,note_on,2,0,4,,,,,,,,7,,,55,75
4078,note_on,430,0,2,,,,,,,,5,,,73,0
4080,note_on,2,0,2,,,,,,,,5,,,71,75
4096,note_on,160,0,3,,,,,,,,6,,,69,0
4126,note_on,46,0,2,,,,,,,,5,,,71,0
4126,note_on,94,0,4,,,,,,,,7,,,55,0
4128,note_on,2,0,4,,,,,,,,7,,,43,75
4128,note_on,2,0,2,,,,,,,,5,,,69,75
4128,note_on,32,0,3,,,,,,,,6,,,61,75
4222,note_on,94,0,4,,,,,,,,7,,,43,0
4222,note_on,94,0,2,,,,,,,,5,,,69,0
4222,note_on,94,0,3,,,,,,,,6,,,61,0
4224,note_on,2,0,4,,,,,,,,7,,,44,75
4224,note_on,2,0,2,,,,,,,,5,,,77,75
4224,note_on,2,0,3,,,,,,,,6,,,71,75
4318,note_on,94,0,3,,,,,,,,6,,,71,0
4318,note_on,94,0,4,,,,,,,,7,,,44,0
4320,note_on,2,0,3,,,,,,,,6,,,74,75
4320,note_on,2,0,4,,,,,,,,7,,,56,75
4366,note_on,142,0,2,,,,,,,,5,,,77,0
4368,note_on,2,0,2,,,,,,,,5,,,76,75
4414,note_on,46,0,2,,,,,,,,5,,,76,0
4414,note_on,94,0,3,,,,,,,,6,,,74,0
4414,note_on,94,0,4,,,,,,,,7,,,56,0
4416,note_on,2,0,2,,,,,,,,5,,,74,75
4416,note_on,2,0,3,,,,,,,,6,,,65,75
4416,note_on,2,0,4,,,,,,,,7,,,44,75
4510,note_on,94,0,2,,,,,,,,5,,,74,0
4510,note_on,94,0,3,,,,,,,,6,,,65,0
4510,note_on,94,0,4,,,,,,,,7,,,44,0
4512,note_on,2,0,4,,,,,,,,7,,,45,75
4512,note_on,2,0,2,,,,,,,,5,,,74,75
4512,note_on,2,0,3,,,,,,,,6,,,64,75
4606,note_on,94,0,4,,,,,,,,7,,,45,0
4606,note_on,94,0,3,,,,,,,,6,,,64,0
4608,note_on,2,0,3,,,,,,,,6,,,69,75
4608,note_on,2,0,4,,,,,,,,7,,,57,75
4654,note_on,142,0,2,,,,,,,,5,,,74,0
4656,note_on,2,0,2,,,,,,,,5,,,76,75
4702,note_on,46,0,2,,,,,,,,5,,,76,0
4702,note_on,94,0,3,,,,,,,,6,,,69,0
4702,note_on,94,0,4,,,,,,,,7,,,57,0
4704,note_on,2,0,2,,,,,,,,5,,,73,75
4704,note_on,2,0,3,,,,,,,,6,,,67,75
4704,note_on,2,0,4,,,,,,,,7,,,45,75
4798,note_on,94,0,2,,,,,,,,5,,,73,0
4798,note_on,94,0,4,,,,,,,,7,,,45,0
4798,note_on,94,0,3,,,,,,,,6,,,67,0
4800,note_on,2,0,2,,,,,,,,5,,,74,75
4800,note_on,2,0,4,,,,,,,,7,,,50,75
4800,note_on,2,0,3,,,,,,,,6,,,65,75
4894,note_on,94,0,4,,,,,,,,7,,,50,0
4894,note_on,94,0,3,,,,,,,,6,,,65,0
4896,note_on,2,0,4,,,,,,,,7,,,62,75
4896,note_on,2,0,3,,,,,,,,6,,,69,75
4990,note_on,94,0,3,,,,,,,,6,,,69,0
4990,note_on,94,0,4,,,,,,,,7,,,62,0
4992,note_on,2,0,4,,,,,,,,7,,,50,75
4992,note_on,2,0,3,,,,,,,,6,,,67,75
5056,note_on,256,0,2,,,,,,,,5,,,74,0
5086,note_on,94,0,4,,,,,,,,7,,,50,0
5086,note_on,94,0,3,,,,,,,,6,,,67,0
5088,note_on,0,0,3,,,,,,,,6,,,69,75
5088,note_on,2,0,3,,,,,,,,6,,,66,75
5088,note_on,2,0,4,,,,,,,,7,,,48,75
5182,note_on,94,0,4,,,,,,,,7,,,48,0
5184,note_on,2,0,4,,,,,,,,7,,,60,75
5230,note_on,142,0,3,,,,,,,,6,,,66,0
5230,note_on,0,0,3,,,,,,,,6,,,69,0
5232,note_on,2,0,3,,,,,,,,6,,,67,75
5278,note_on,46,0,3,,,,,,,,6,,,67,0
5278,note_on,94,0,4,,,,,,,,7,,,60,0
5280,note_on,0,0,3,,,,,,,,6,,,69,75
5280,note_on,2,0,3,,,,,,,,6,,,66,75
5280,note_on,2,0,4,,,,,,,,7,,,48,75
5374,note_on,0,0,3,,,,,,,,6,,,69,0
5374,note_on,94,0,4,,,,,,,,7,,,48,0
5374,note_on,94,0,3,,,,,,,,6,,,66,0
5376,note_on,320,0,2,,,,,,,,5,,,74,75
5376,note_on,2,0,3,,,,,,,,6,,,67,75
5376,note_on,2,0,4,,,,,,,,7,,,47,75
5470,note_on,94,0,4,,,,,,,,7,,,47,0
5472,note_on,2,0,4,,,,,,,,7,,,59,75
5518,note_on,142,0,2,,,,,,,,5,,,74,0
5520,note_on,2,0,2,,,,,,,,5,,,76,75
5566,note_on,94,0,4,,,,,,,,7,,,59,0
5566,note_on,46,0,2,,,,,,,,5,,,76,0
5568,note_on,2,0,2,,,,,,,,5,,,74,75
5568,note_on,2,0,4,,,,,,,,7,,,47,75
5632,note_on,256,0,3,,,,,,,,6,,,67,0
5662,note_on,94,0,2,,,,,,,,5,,,74,0
5662,note_on,94,0,4,,,,,,,,7,,,47,0
5664,note_on,2,0,4,,,,,,,,7,,,47,75
5664,note_on,32,0,3,,,,,,,,6,,,67,75
5664,note_on,2,0,2,,,,,,,,5,,,79,75
5664,note_on,0,0,3,,,,,,,,6,,,74,75
5758,note_on,94,0,4,,,,,,,,7,,,47,0
5760,note_on,2,0,4,,,,,,,,7,,,59,75
5824,note_on,160,0,2,,,,,,,,5,,,79,0
5824,note_on,160,0,3,,,,,,,,6,,,67,0
5824,note_on,0,0,3,,,,,,,,6,,,74,0
5854,note_on,94,0,4,,,,,,,,7,,,59,0
5856,note_on,32,0,2,,,,,,,,5,,,77,75
5856,note_on,32,0,3,,,,,,,,6,,,67,75
5856,note_on,2,0,4,,,,,,,,7,,,47,75
5950,note_on,94,0,3,,,,,,,,6,,,67,0
5950,note_on,94,0,2,,,,,,,,5,,,77,0
5950,note_on,94,0,4,,,,,,,,7,,,47,0
5952,note_on,2,0,2,,,,,,,,5,,,77,75
5952,note_on,2,0,3,,,,,,,,6,,,67,75
5952,note_on,2,0,4,,,,,,,,7,,,48,75
6046,note_on,94,0,4,,,,,,,,7,,,48,0
6048,note_on,2,0,4,,,,,,,,7,,,60,75
6094,note_on,142,0,3,,,,,,,,6,,,67,0
6096,note_on,2,0,3,,,,,,,,6,,,69,75
6112,note_on,160,0,2,,,,,,,,5,,,77,0
6142,note_on,46,0,3,,,,,,,,6,,,69,0
6142,note_on,94,0,4,,,,,,,,7,,,60,0
6144,note_on,2,0,3,,,,,,,,6,,,67,75
6144,note_on,32,0,2,,,,,,,,5,,,76,75
6144,note_on,2,0,4,,,,,,,,7,,,48,75
6238,note_on,94,0,3,,,,,,,,6,,,67,0
6238,note_on,94,0,4,,,,,,,,7,,,48,0
6240,note_on,2,0,3,,,,,,,,6,,,72,75
6240,note_on,2,0,4,,,,,,,,7,,,48,75
6334,note_on,94,0,4,,,,,,,,7,,,48,0
6336,note_on,2,0,4,,,,,,,,7,,,60,75
6382,note_on,238,0,2,,,,,,,,5,,,76,0
6384,note_on,2,0,2,,,,,,,,5,,,77,75
6400,note_on,160,0,3,,,,,,,,6,,,72,0
6430,note_on,94,0,4,,,,,,,,7,,,60,0
6430,note_on,46,0,2,,,,,,,,5,,,77,0
6432,note_on,2,0,4,,,,,,,,7,,,48,75
6432,note_on,32,0,3,,,,,,,,6,,,67,75
6432,note_on,0,0,3,,,,,,,,6,,,76,75
6432,note_on,2,0,2,,,,,,,,5,,,79,75
6526,note_on,94,0,4,,,,,,,,7,,,48,0
6526,note_on,94,0,3,,,,,,,,6,,,67,0
6526,note_on,0,0,3,,,,,,,,6,,,76,0
6526,note_on,94,0,2,,,,,,,,5,,,79,0
6528,note_on,2,0,2,,,,,,,,5,,,74,75
6528,note_on,2,0,4,,,,,,,,7,,,47,75
6528,note_on,2,0,3,,,,,,,,6,,,69,75
6622,note_on,94,0,4,,,,,,,,7,,,47,0
6624,note_on,2,0,4,,,,,,,,7,,,59,75
6670,note_on,142,0,2,,,,,,,,5,,,74,0
6672,note_on,2,0,2,,,,,,,,5,,,76,75
6688,note_on,160,0,3,,,,,,,,6,,,69,0
6718,note_on,94,0,4,,,,,,,,7,,,59,0
6718,note_on,46,0,2,,,,,,,,5,,,76,0
6720,note_on,2,0,4,,,,,,,,7,,,47,75
6720,note_on,2,0,2,,,,,,,,5,,,74,75
6720,note_on,32,0,3,,,,,,,,6,,,67,75
6814,note_on,94,0,4,,,,,,,,7,,,47,0
6814,note_on,94,0,2,,,,,,,,5,,,74,0
6814,note_on,94,0,3,,,,,,,,6,,,67,0
6816,note_on,2,0,2,,,,,,,,5,,,79,75
6816,note_on,2,0,4,,,,,,,,7,,,47,75
6816,note_on,0,0,3,,,,,,,,6,,,74,75
6816,note_on,2,0,3,,,,,,,,6,,,67,75
6910,note_on,94,0,4,,,,,,,,7,,,47,0
6912,note_on,2,0,4,,,,,,,,7,,,59,75
6958,note_on,0,0,3,,,,,,,,6,,,74,0
6958,note_on,142,0,3,,,,,,,,6,,,67,0
6960,note_on,2,0,3,,,,,,,,6,,,69,75
6976,note_on,160,0,2,,,,,,,,5,,,79,0
7006,note_on,46,0,3,,,,,,,,6,,,69,0
7006,note_on,94,0,4,,,,,,,,7,,,59,0
7008,note_on,2,0,4,,,,,,,,7,,,47,75
7008,note_on,32,0,2,,,,,,,,5,,,74,75
7008,note_on,2,0,3,,,,,,,,6,,,67,75
7102,note_on,94,0,4,,,,,,,,7,,,47,0
7102,note_on,94,0,2,,,,,,,,5,,,74,0
7104,note_on,2,0,4,,,,,,,,7,,,45,75
7104,note_on,2,0,2,,,,,,,,5,,,72,75
7198,note_on,94,0,4,,,,,,,,7,,,45,0
7200,note_on,2,0,4,,,,,,,,7,,,57,75
7246,note_on,142,0,2,,,,,,,,5,,,72,0
7248,note_on,2,0,2,,,,,,,,5,,,74,75
7264,note_on,256,0,3,,,,,,,,6,,,67,0
7294,note_on,94,0,4,,,,,,,,7,,,57,0
7294,note_on,46,0,2,,,,,,,,5,,,74,0
7296,note_on,2,0,2,,,,,,,,5,,,72,75
7296,note_on,2,0,4,,,,,,,,7,,,45,75
7296,note_on,32,0,3,,,,,,,,6,,,65,75
7390,note_on,94,0,2,,,,,,,,5,,,72,0
7390,note_on,94,0,4,,,,,,,,7,,,45,0
7390,note_on,94,0,3,,,,,,,,6,,,65,0
7392,note_on,2,0,2,,,,,,,,5,,,77,75
7392,note_on,0,0,3,,,,,,,,6,,,72,75
7392,note_on,2,0,3,,,,,,,,6,,,65,75
7392,note_on,2,0,4,,,,,,,,7,,,45,75
7486,note_on,94,0,4,,,,,,,,7,,,45,0
7488,note_on,2,0,4,,,,,,,,7,,,57,75
7534,note_on,0,0,3,,,,,,,,6,,,72,0
7534,note_on,142,0,3,,,,,,,,6,,,65,0
7536,note_on,2,0,3,,,,,,,,6,,,67,75
7552,note_on,160,0,2,,,,,,,,5,,,77,0
7582,note_on,94,0,4,,,,,,,,7,,,57,0
7582,note_on,46,0,3,,,,,,,,6,,,67,0
7584,note_on,2,0,4,,,,,,,,7,,,45,75
7584,note_on,2,0,3,,,,,,,,6,,,65,75
7584,note_on,32,0,2,,,,,,,,5,,,72,75
7678,note_on,94,0,4,,,,,,,,7,,,45,0
7678,note_on,94,0,3,,,,,,,,6,,,65,0
7678,note_on,94,0,2,,,,,,,,5,,,72,0
7680,note_on,2,0,2,,,,,,,,5,,,71,75
7680,note_on,2,0,4,,,,,,,,7,,,43,75
7680,note_on,2,0,3,,,,,,,,6,,,62,75
7774,note_on,94,0,4,,,,,,,,7,,,43,0
7776,note_on,96,0,2,,,,,,,,5,,,71,0
7776,note_on,0,0,2,,,,,,,,5,,,67,75
7776,note_on,2,0,4,,,,,,,,7,,,55,75
7870,note_on,94,0,4,,,,,,,,7,,,55,0
7872,note_on,0,0,2,,,,,,,,5,,,71,75
7872,note_on,96,0,2,,,,,,,,5,,,67,0
7872,note_on,2,0,4,,,,,,,,7,,,43,75
7936,note_on,256,0,3,,,,,,,,6,,,62,0
7966,note_on,94,0,4,,,,,,,,7,,,43,0
7968,note_on,0,0,2,,,,,,,,5,,,74,75
7968,note_on,96,0,2,,,,,,,,5,,,71,0
7968,note_on,2,0,4,,,,,,,,7,,,43,75
7968,note_on,32,0,3,,,,,,,,6,,,71,75
8062,note_on,94,0,4,,,,,,,,7,,,43,0
8064,note_on,0,0,2,,,,,,,,5,,,77,75
8064,note_on,96,0,2,,,,,,,,5,,,74,0
8064,note_on,2,0,4,,,,,,,,7,,,55,75
8158,note_on,94,0,4,,,,,,,,7,,,55,0
8160,note_on,0,0,2,,,,,,,,5,,,79,75
8160,note_on,96,0,2,,,,,,,,5,,,77,0
8160,note_on,2,0,4,,,,,,,,7,,,43,75
8224,note_on,256,0,3,,,,,,,,6,,,71,0
8254,note_on,94,0,4,,,,,,,,7,,,43,0
8254,note_on,94,0,2,,,,,,,,5,,,79,0
8256,note_on,2,0,2,,,,,,,,5,,,76,75
8256,note_on,32,0,3,,,,,,,,6,,,72,75
8256,note_on,2,0,4,,,,,,,,7,,,48,75
8350,note_on,94,0,4,,,,,,,,7,,,48,0
8352,note_on,96,0,2,,,,,,,,5,,,76,0
8352,note_on,0,0,2,,,,,,,,5,,,79,75
8352,note_on,96,0,3,,,,,,,,6,,,72,0
8352,note_on,0,0,3,,,,,,,,6,,,76,75
8352,note_on,2,0,4,,,,,,,,7,,,60,75
8446,note_on,94,0,4,,,,,,,,7,,,60,0
8448,note_on,2,0,4,,,,,,,,7,,,48,75
8448,note_on,0,0,2,,,,,,,,5,,,77,75
8448,note_on,96,0,2,,,,,,,,5,,,79,0
8448,note_on,96,0,3,,,,,,,,6,,,76,0
8448,note_on,0,0,3,,,,,,,,6,,,74,75
8542,note_on,94,0,4,,,,,,,,7,,,48,0
8544,note_on,0,0,2,,,,,,,,5,,,76,75
8544,note_on,2,0,4,,,,,,,,7,,,48,75
8544,note_on,0,0,3,,,,,,,,6,,,72,75
8544,note_on,96,0,3,,,,,,,,6,,,74,0
8544,note_on,96,0,2,,,,,,,,5,,,77,0
8638,note_on,94,0,4,,,,,,,,7,,,48,0
8640,note_on,0,0,3,,,,,,,,6,,,65,75
8640,note_on,96,0,2,,,,,,,,5,,,76,0
8640,note_on,0,0,2,,,,,,,,5,,,74,75
8640,note_on,96,0,3,,,,,,,,6,,,72,0
8640,note_on,2,0,4,,,,,,,,7,,,60,75
8734,note_on,94,0,4,,,,,,,,7,,,60,0
8736,note_on,96,0,3,,,,,,,,6,,,65,0
8736,note_on,0,0,3,,,,,,,,6,,,64,75
8736,note_on,2,0,4,,,,,,,,7,,,48,75
8736,note_on,96,0,2,,,,,,,,5,,,74,0
8736,note_on,0,0,2,,,,,,,,5,,,72,75
8830,note_on,94,0,2,,,,,,,,5,,,72,0
8830,note_on,94,0,3,,,,,,,,6,,,64,0
8830,note_on,94,0,4,,,,,,,,7,,,48,0
8832,note_on,2,0,4,,,,,,,,7,,,43,75
8832,note_on,2,0,2,,,,,,,,5,,,71,75
8832,note_on,2,0,3,,,,,,,,6,,,62,75
8926,note_on,94,0,4,,,,,,,,7,,,43,0
8928,note_on,96,0,2,,,,,,,,5,,,71,0
8928,note_on,2,0,4,,,,,,,,7,,,55,75
8928,note_on,0,0,2,,,,,,,,5,,,67,75
9022,note_on,94,0,4,,,,,,,,7,,,55,0
9024,note_on,96,0,2,,,,,,,,5,,,67,0
9024,note_on,0,0,2,,,,,,,,5,,,71,75
9024,note_on,2,0,4,,,,,,,,7,,,43,75
9088,note_on,256,0,3,,,,,,,,6,,,62,0
9118,note_on,94,0,4,,,,,,,,7,,,43,0
9120,note_on,32,0,3,,,,,,,,6,,,71,75
9120,note_on,2,0,4,,,,,,,,7,,,43,75
9120,note_on,96,0,2,,,,,,,,5,,,71,0
9120,note_on,0,0,2,,,,,,,,5,,,74,75
9214,note_on,94,0,4,,,,,,,,7,,,43,0
9216,note_on,96,0,2,,,,,,,,5,,,74,0
9216,note_on,0,0,2,,,,,,,,5,,,76,75
9216,note_on,2,0,4,,,,,,,,7,,,55,75
9310,note_on,94,0,4,,,,,,,,7,,,55,0
9312,note_on,2,0,4,,,,,,,,7,,,43,75
9312,note_on,96,0,2,,,,,,,,5,,,76,0
9312,note_on,0,0,2,,,,,,,,5,,,77,75
9376,note_on,256,0,3,,,,,,,,6,,,71,0
9406,note_on,94,0,4,,,,,,,,7,,,43,0
9406,note_on,94,0,2,,,,,,,,5,,,77,0
9408,note_on,2,0,2,,,,,,,,5,,,76,75
9408,note_on,2,0,4,,,,,,,,7,,,48,75
9408,note_on,32,0,3,,,,,,,,6,,,67,75
9502,note_on,94,0,4,,,,,,,,7,,,48,0
9504,note_on,2,0,4,,,,,,,,7,,,60,75
9550,note_on,142,0,2,,,,,,,,5,,,76,0
9550,note_on,142,0,3,,,,,,,,6,,,67,0
9552,note_on,2,0,2,,,,,,,,5,,,74,75
9552,note_on,2,0,3,,,,,,,,6,,,65,75
9598,note_on,46,0,3,,,,,,,,6,,,65,0
9598,note_on,46,0,2,,,,,,,,5,,,74,0
9598,note_on,94,0,4,,,,,,,,7,,,60,0
9600,note_on,2,0,2,,,,,,,,5,,,72,75
9600,note_on,2,0,4,,,,,,,,7,,,48,75
9600,note_on,2,0,3,,,,,,,,6,,,64,75
9694,note_on,94,0,4,,,,,,,,7,,,48,0
9694,note_on,94,0,3,,,,,,,,6,,,64,0
9694,note_on,94,0,2,,,,,,,,5,,,72,0
9696,note_on,2,0,4,,,,,,,,7,,,43,75
9696,note_on,2,0,3,,,,,,,,6,,,62,75
9696,note_on,2,0,2,,,,,,,,5,,,72,75
9790,note_on,94,0,3,,,,,,,,6,,,62,0
9790,note_on,94,0,4,,,,,,,,7,,,43,0
9792,note_on,2,0,3,,,,,,,,6,,,67,75
9792,note_on,2,0,4,,,,,,,,7,,,55,75
9838,note_on,142,0,2,,,,,,,,5,,,72,0
9840,note_on,2,0,2,,,,,,,,5,,,74,75
9886,note_on,94,0,4,,,,,,,,7,,,55,0
9886,note_on,94,0,3,,,,,,,,6,,,67,0
9886,note_on,46,0,2,,,,,,,,5,,,74,0
9888,note_on,2,0,2,,,,,,,,5,,,71,75
9888,note_on,2,0,4,,,,,,,,7,,,43,75
9888,note_on,2,0,3,,,,,,,,6,,,65,75
9982,note_on,94,0,4,,,,,,,,7,,,43,0
9982,note_on,94,0,3,,,,,,,,6,,,65,0
9982,note_on,94,0,2,,,,,,,,5,,,71,0
9984,note_on,2,0,2,,,,,,,,5,,,72,75
9984,note_on,2,0,4,,,,,,,,7,,,48,75
9984,note_on,2,0,3,,,,,,,,6,,,64,75
10078,note_on,94,0,4,,,,,,,,7,,,48,0
10080,note_on,2,0,4,,,,,,,,7,,,60,75
10126,note_on,142,0,3,,,,,,,,6,,,64,0
10126,note_on,142,0,2,,,,,,,,5,,,72,0
10128,note_on,2,0,2,,,,,,,,5,,,74,75
10128,note_on,2,0,3,,,,,,,,6,,,65,75
10174,note_on,46,0,3,,,,,,,,6,,,65,0
10174,note_on,46,0,2,,,,,,,,5,,,74,0
10174,note_on,94,0,4,,,,,,,,7,,,60,0
10176,note_on,2,0,2,,,,,,,,5,,,71,75
10176,note_on,2,0,3,,,,,,,,6,,,62,75
10176,note_on,2,0,4,,,,,,,,7,,,48,75
10270,note_on,94,0,3,,,,,,,,6,,,62,0
10270,note_on,94,0,4,,,,,,,,7,,,48,0
10270,note_on,94,0,2,,,,,,,,5,,,71,0
10272,note_on,2,0,3,,,,,,,,6,,,64,75
10272,note_on,2,0,4,,,,,,,,7,,,48,75
10272,note_on,2,0,2,,,,,,,,5,,,72,75
10366,note_on,94,0,4,,,,,,,,7,,,48,0
10368,note_on,2,0,4,,,,,,,,7,,,60,75
10462,note_on,94,0,4,,,,,,,,7,,,60,0
10464,note_on,2,0,4,,,,,,,,7,,,48,75
10528,note_on,256,0,2,,,,,,,,5,,,72,0
10528,note_on,256,0,3,,,,,,,,6,,,64,0
10558,note_on,94,0,4,,,,,,,,7,,,48,0
10560,note_on,32,0,3,,,,,,,,6,,,64,60
10560,note_on,10560,0,1,,,,,,,,0,,,67,92
10560,note_on,2,0,4,,,,,,,,7,,,48,60
10560,note_on,0,0,3,,,,,,,,6,,,67,60
10654,note_on,94,0,4,,,,,,,,7,,,48,0
10656,note_on,2,0,4,,,,,,,,7,,,60,60
10702,note_on,142,0,3,,,,,,,,6,,,64,0
10704,note_on,2,0,3,,,,,,,,6,,,65,60
10704,note_on,0,0,1,,,,,,,,0,,,69,92
10704,note_on,144,0,1,,,,,,,,0,,,67,0
10750,note_on,46,0,3,,,,,,,,6,,,65,0
10750,note_on,94,0,4,,,,,,,,7,,,60,0
10752,note_on,2,0,3,,,,,,,,6,,,64,60
10752,note_on,2,0,4,,,,,,,,7,,,48,60
10752,note_on,48,0,1,,,,,,,,0,,,69,0
10752,note_on,0,0,1,,,,,,,,0,,,67,92
10816,note_on,64,0,3,,,,,,,,6,,,67,0
10846,note_on,30,0,3,,,,,,,,6,,,64,0
10846,note_on,94,0,4,,,,,,,,7,,,48,0
10846,note_on,94,0,1,,,,,,,,0,,,67,0
10848,note_on,2,0,4,,,,,,,,7,,,48,60
10848,note_on,0,0,3,,,,,,,,6,,,72,60
10848,note_on,2,0,1,,,,,,,,0,,,76,92
10848,note_on,2,0,3,,,,,,,,6,,,64,60
10942,note_on,94,0,4,,,,,,,,7,,,48,0
10944,note_on,2,0,4,,,,,,,,7,,,60,60
11008,note_on,0,0,3,,,,,,,,6,,,72,0
11008,note_on,160,0,3,,,,,,,,6,,,64,0
11008,note_on,160,0,1,,,,,,,,0,,,76,0
11038,note_on,94,0,4,,,,,,,,7,,,60,0
11040,note_on,2,0,4,,,,,,,,7,,,48,60
11040,note_on,32,0,1,,,,,,,,0,,,72,92
11040,note_on,32,0,3,,,,,,,,6,,,67,60
11040,note_on,0,0,3,,,,,,,,6,,,76,60
11134,note_on,94,0,3,,,,,,,,6,,,67,0
11134,note_on,94,0,4,,,,,,,,7,,,48,0
11134,note_on,94,0,1,,,,,,,,0,,,72,0
11134,note_on,0,0,3,,,,,,,,6,,,76,0
11136,note_on,2,0,1,,,,,,,,0,,,71,92
11136,note_on,2,0,3,,,,,,,,6,,,71,60
11136,note_on,0,0,3,,,,,,,,6,,,74,60
11136,note_on,2,0,4,,,,,,,,7,,,43,60
11230,note_on,94,0,4,,,,,,,,7,,,43,0
11232,note_on,2,0,4,,,,,,,,7,,,55,60
11296,note_on,160,0,3,,,,,,,,6,,,71,0
11296,note_on,0,0,3,,,,,,,,6,,,74,0
11326,note_on,94,0,4,,,,,,,,7,,,55,0
11328,note_on,0,0,3,,,,,,,,6,,,71,60
11328,note_on,32,0,3,,,,,,,,6,,,67,60
11328,note_on,2,0,4,,,,,,,,7,,,53,60
11392,note_on,256,0,1,,,,,,,,0,,,71,0
11422,note_on,94,0,4,,,,,,,,7,,,53,0
11422,note_on,0,0,3,,,,,,,,6,,,71,0
11422,note_on,94,0,3,,,,,,,,6,,,67,0
11424,note_on,2,0,3,,,,,,,,6,,,67,60
11424,note_on,32,0,1,,,,,,,,0,,,72,92
11424,note_on,2,0,4,,,,,,,,7,,,52,60
11424,note_on,0,0,3,,,,,,,,6,,,72,60
11518,note_on,94,0,3,,,,,,,,6,,,67,0
11518,note_on,94,0,4,,,,,,,,7,,,52,0
11520,note_on,2,0,3,,,,,,,,6,,,64,60
11520,note_on,2,0,4,,,,,,,,7,,,60,60
11614,note_on,94,0,3,,,,,,,,6,,,64,0
11614,note_on,94,0,4,,,,,,,,7,,,60,0
11616,note_on,2,0,4,,,,,,,,7,,,52,60
11616,note_on,2,0,3,,,,,,,,6,,,67,60
11680,note_on,64,0,3,,,,,,,,6,,,72,0
11680,note_on,256,0,1,,,,,,,,0,,,72,0
11710,note_on,94,0,4,,,,,,,,7,,,52,0
11710,note_on,30,0,3,,,,,,,,6,,,67,0
11712,note_on,0,0,3,,,,,,,,6,,,69,60
11712,note_on,2,0,3,,,,,,,,6,,,65,60
11712,note_on,2,0,4,,,,,,,,7,,,50,60
11712,note_on,32,0,1,,,,,,,,0,,,74,92
11806,note_on,94,0,4,,,,,,,,7,,,50,0
11806,note_on,94,0,3,,,,,,,,6,,,69,0
11808,note_on,2,0,4,,,,,,,,7,,,47,60
11808,note_on,2,0,3,,,,,,,,6,,,74,60
11872,note_on,160,0,1,,,,,,,,0,,,74,0
11902,note_on,94,0,4,,,,,,,,7,,,47,0
11902,note_on,94,0,3,,,,,,,,6,,,74,0
11904,note_on,32,0,1,,,,,,,,0,,,76,92
11904,note_on,2,0,3,,,,,,,,6,,,72,60
11904,note_on,2,0,4,,,,,,,,7,,,45,60
11998,note_on,94,0,1,,,,,,,,0,,,76,0
11998,note_on,94,0,3,,,,,,,,6,,,72,0
11998,note_on,94,0,4,,,,,,,,7,,,45,0
12000,note_on,2,0,3,,,,,,,,6,,,71,60
12000,note_on,2,0,4,,,,,,,,7,,,43,60
12000,note_on,2,0,1,,,,,,,,0,,,77,92
12094,note_on,94,0,4,,,,,,,,7,,,43,0
12096,note_on,2,0,4,,,,,,,,7,,,55,60
12142,note_on,142,0,3,,,,,,,,6,,,71,0
12144,note_on,0,0,1,,,,,,,,0,,,76,92
12144,note_on,2,0,3,,,,,,,,6,,,72,60
12144,note_on,144,0,1,,,,,,,,0,,,77,0
12190,note_on,46,0,3,,,,,,,,6,,,72,0
12190,note_on,94,0,4,,,,,,,,7,,,55,0
12192,note_on,2,0,4,,,,,,,,7,,,43,60
12192,note_on,2,0,3,,,,,,,,6,,,74,60
12192,note_on,48,0,1,,,,,,,,0,,,76,0
12192,note_on,0,0,1,,,,,,,,0,,,74,92
12256,note_on,64,0,3,,,,,,,,6,,,65,0
12286,note_on,30,0,3,,,,,,,,6,,,74,0
12286,note_on,94,0,4,,,,,,,,7,,,43,0
12286,note_on,94,0,1,,,,,,,,0,,,74,0
12288,note_on,0,0,3,,,,,,,,6,,,72,60
12288,note_on,2,0,1,,,,,,,,0,,,76,92
12288,note_on,2,0,3,,,,,,,,6,,,64,60
12288,note_on,2,0,4,,,,,,,,7,,,48,60
12382,note_on,94,0,4,,,,,,,,7,,,48,0
12384,note_on,2,0,4,,,,,,,,7,,,60,60
12448,note_on,160,0,3,,,,,,,,6,,,64,0
12448,note_on,0,0,3,,,,,,,,6,,,72,0
12478,note_on,94,0,4,,,,,,,,7,,,60,0
12480,note_on,32,0,3,,,,,,,,6,,,65,60
12480,note_on,0,0,3,,,,,,,,6,,,74,60
12480,note_on,2,0,4,,,,,,,,7,,,48,60
12574,note_on,94,0,3,,,,,,,,6,,,65,0
12574,note_on,94,0,4,,,,,,,,7,,,48,0
12574,note_on,0,0,3,,,,,,,,6,,,74,0
12576,note_on,2,0,4,,,,,,,,7,,,48,60
12576,note_on,0,0,3,,,,,,,,6,,,76,60
12576,note_on,2,0,3,,,,,,,,6,,,67,60
12670,note_on,94,0,4,,,,,,,,7,,,48,0
12672,note_on,2,0,4,,,,,,,,7,,,60,60
12718,note_on,0,0,3,,,,,,,,6,,,76,0
12718,note_on,142,0,3,,,,,,,,6,,,67,0
12720,note_on,0,0,3,,,,,,,,6,,,74,60
12720,note_on,2,0,3,,,,,,,,6,,,65,60
12766,note_on,0,0,3,,,,,,,,6,,,74,0
12766,note_on,46,0,3,,,,,,,,6,,,65,0
12766,note_on,94,0,4,,,,,,,,7,,,60,0
12768,note_on,2,0,4,,,,,,,,7,,,48,60
12768,note_on,0,0,3,,,,,,,,6,,,72,60
12768,note_on,2,0,3,,,,,,,,6,,,64,60
12816,note_on,528,0,1,,,,,,,,0,,,76,0
12862,note_on,94,0,4,,,,,,,,7,,,48,0
12862,note_on,94,0,3,,,,,,,,6,,,64,0
12862,note_on,0,0,3,,,,,,,,6,,,72,0
12864,note_on,2,0,4,,,,,,,,7,,,48,60
12864,note_on,2,0,3,,,,,,,,6,,,69,60
12864,note_on,0,0,3,,,,,,,,6,,,72,60
12864,note_on,48,0,1,,,,,,,,0,,,72,92
12958,note_on,94,0,3,,,,,,,,6,,,69,0
12958,note_on,94,0,4,,,,,,,,7,,,48,0
12960,note_on,2,0,4,,,,,,,,7,,,60,60
12960,note_on,2,0,3,,,,,,,,6,,,64,60
13024,note_on,64,0,3,,,,,,,,6,,,72,0
13054,note_on,94,0,4,,,,,,,,7,,,60,0
13056,note_on,32,0,3,,,,,,,,6,,,71,60
13056,note_on,2,0,4,,,,,,,,7,,,48,60
13150,note_on,94,0,3,,,,,,,,6,,,71,0
13150,note_on,94,0,4,,,,,,,,7,,,48,0
13152,note_on,2,0,3,,,,,,,,6,,,69,60
13152,note_on,2,0,4,,,,,,,,7,,,48,60
13246,note_on,94,0,3,,,,,,,,6,,,69,0
13246,note_on,94,0,4,,,,,,,,7,,,48,0
13248,note_on,2,0,3,,,,,,,,6,,,76,60
13248,note_on,2,0,4,,,,,,,,7,,,60,60
13312,note_on,64,0,3,,,,,,,,6,,,64,0
13312,note_on,448,0,1,,,,,,,,0,,,72,0
13342,note_on,30,0,3,,,,,,,,6,,,76,0
13342,note_on,94,0,4,,,,,,,,7,,,60,0
13344,note_on,0,0,3,,,,,,,,6,,,72,60
13344,note_on,2,0,3,,,,,,,,6,,,69,60
13344,note_on,2,0,4,,,,,,,,7,,,48,60
13344,note_on,32,0,1,,,,,,,,0,,,76,92
13438,note_on,94,0,4,,,,,,,,7,,,48,0
13438,note_on,94,0,3,,,,,,,,6,,,72,0
13438,note_on,94,0,1,,,,,,,,0,,,76,0
13440,note_on,2,0,3,,,,,,,,6,,,74,60
13440,note_on,2,0,4,,,,,,,,7,,,47,60
13440,note_on,2,0,1,,,,,,,,0,,,74,92
13534,note_on,94,0,4,,,,,,,,7,,,47,0
13536,note_on,2,0,4,,,,,,,,7,,,59,60
13600,note_on,160,0,3,,,,,,,,6,,,69,0
13630,note_on,94,0,4,,,,,,,,7,,,59,0
13632,note_on,192,0,1,,,,,,,,0,,,74,0
13632,note_on,32,0,3,,,,,,,,6,,,62,60
13632,note_on,2,0,4,,,,,,,,7,,,47,60
13632,note_on,0,0,1,,,,,,,,0,,,71,92
13726,note_on,94,0,1,,,,,,,,0,,,71,0
13726,note_on,94,0,3,,,,,,,,6,,,62,0
13726,note_on,94,0,4,,,,,,,,7,,,47,0
13728,note_on,2,0,3,,,,,,,,6,,,67,60
13728,note_on,2,0,1,,,,,,,,0,,,67,92
13728,note_on,2,0,4,,,,,,,,7,,,47,60
13822,note_on,94,0,4,,,,,,,,7,,,47,0
13824,note_on,2,0,4,,,,,,,,7,,,59,60
13870,note_on,142,0,3,,,,,,,,6,,,67,0
13872,note_on,2,0,3,,,,,,,,6,,,66,60
13918,note_on,46,0,3,,,,,,,,6,,,66,0
13918,note_on,94,0,4,,,,,,,,7,,,59,0
13920,note_on,2,0,4,,,,,,,,7,,,47,60
13920,note_on,2,0,3,,,,,,,,6,,,67,60
13968,note_on,48,0,3,,,,,,,,6,,,74,0
13984,note_on,256,0,1,,,,,,,,0,,,67,0
14014,note_on,94,0,4,,,,,,,,7,,,47,0
14014,note_on,46,0,3,,,,,,,,6,,,67,0
14016,note_on,2,0,4,,,,,,,,7,,,45,60
14016,note_on,32,0,1,,,,,,,,0,,,72,92
14016,note_on,2,0,3,,,,,,,,6,,,60,60
14016,note_on,0,0,3,,,,,,,,6,,,67,60
14110,note_on,94,0,3,,,,,,,,6,,,67,0
14110,note_on,94,0,4,,,,,,,,7,,,45,0
14112,note_on,2,0,4,,,,,,,,7,,,57,60
14112,note_on,2,0,3,,,,,,,,6,,,69,60
14176,note_on,64,0,3,,,,,,,,6,,,60,0
14206,note_on,30,0,3,,,,,,,,6,,,69,0
14206,note_on,94,0,4,,,,,,,,7,,,57,0
14208,note_on,2,0,3,,,,,,,,6,,,67,60
14208,note_on,2,0,4,,,,,,,,7,,,45,60
14208,note_on,0,0,3,,,,,,,,6,,,71,60
14302,note_on,94,0,3,,,,,,,,6,,,67,0
14302,note_on,0,0,3,,,,,,,,6,,,71,0
14302,note_on,94,0,4,,,,,,,,7,,,45,0
14304,note_on,2,0,3,,,,,,,,6,,,66,60
14304,note_on,0,0,3,,,,,,,,6,,,72,60
14304,note_on,2,0,4,,,,,,,,7,,,45,60
14398,note_on,94,0,4,,,,,,,,7,,,45,0
14400,note_on,2,0,4,,,,,,,,7,,,57,60
14446,note_on,142,0,3,,,,,,,,6,,,72,0
14448,note_on,2,0,3,,,,,,,,6,,,74,60
14448,note_on,432,0,1,,,,,,,,0,,,72,0
14448,note_on,0,0,1,,,,,,,,0,,,71,92
14494,note_on,94,0,4,,,,,,,,7,,,57,0
14494,note_on,46,0,3,,,,,,,,6,,,74,0
14494,note_on,46,0,1,,,,,,,,0,,,71,0
14496,note_on,2,0,3,,,,,,,,6,,,72,60
14496,note_on,2,0,4,,,,,,,,7,,,45,60
14496,note_on,2,0,1,,,,,,,,0,,,69,92
14560,note_on,64,0,3,,,,,,,,6,,,66,0
14590,note_on,94,0,1,,,,,,,,0,,,69,0
14590,note_on,94,0,4,,,,,,,,7,,,45,0
14590,note_on,30,0,3,,,,,,,,6,,,72,0
14592,note_on,2,0,1,,,,,,,,0,,,71,92
14592,note_on,0,0,3,,,,,,,,6,,,71,60
14592,note_on,2,0,3,,,,,,,,6,,,62,60
14592,note_on,2,0,4,,,,,,,,7,,,43,60
14686,note_on,94,0,4,,,,,,,,7,,,43,0
14688,note_on,2,0,4,,,,,,,,7,,,55,60
14688,note_on,96,0,1,,,,,,,,0,,,71,0
14688,note_on,0,0,1,,,,,,,,0,,,74,92
14752,note_on,160,0,3,,,,,,,,6,,,62,0
14752,note_on,0,0,3,,,,,,,,6,,,71,0
14782,note_on,94,0,4,,,,,,,,7,,,55,0
14784,note_on,2,0,4,,,,,,,,7,,,43,60
14784,note_on,0,0,1,,,,,,,,0,,,72,92
14784,note_on,96,0,1,,,,,,,,0,,,74,0
14784,note_on,32,0,3,,,,,,,,6,,,60,60
14784,note_on,0,0,3,,,,,,,,6,,,69,60
14878,note_on,94,0,3,,,,,,,,6,,,60,0
14878,note_on,0,0,3,,,,,,,,6,,,69,0
14878,note_on,94,0,4,,,,,,,,7,,,43,0
14880,note_on,96,0,1,,,,,,,,0,,,72,0
14880,note_on,2,0,3,,,,,,,,6,,,59,60
14880,note_on,0,0,3,,,,,,,,6,,,67,60
14880,note_on,2,0,4,,,,,,,,7,,,43,60
14880,note_on,0,0,1,,,,,,,,0,,,71,108
14974,note_on,94,0,4,,,,,,,,7,,,43,0
14974,note_on,94,0,3,,,,,,,,6,,,59,0
14974,note_on,0,0,3,,,,,,,,6,,,67,0
14976,note_on,2,0,4,,,,,,,,7,,,55,60
14976,note_on,0,0,3,,,,,,,,6,,,69,60
14976,note_on,2,0,3,,,,,,,,6,,,60,60
14976,note_on,96,0,1,,,,,,,,0,,,71,0
14976,note_on,0,0,1,,,,,,,,0,,,69,108
15070,note_on,94,0,4,,,,,,,,7,,,55,0
15070,note_on,0,0,3,,,,,,,,6,,,69,0
15070,note_on,94,0,3,,,,,,,,6,,,60,0
15072,note_on,0,0,1,,,,,,,,0,,,67,108
15072,note_on,0,0,3,,,,,,,,6,,,71,60
15072,note_on,2,0,4,,,,,,,,7,,,43,60
15072,note_on,2,0,3,,,,,,,,6,,,62,60
15072,note_on,96,0,1,,,,,,,,0,,,69,0
15166,note_on,94,0,3,,,,,,,,6,,,62,0
15166,note_on,94,0,4,,,,,,,,7,,,43,0
15166,note_on,0,0,3,,,,,,,,6,,,71,0
15168,note_on,2,0,3,,,,,,,,6,,,60,60
15168,note_on,96,0,1,,,,,,,,0,,,67,0
15168,note_on,2,0,4,,,,,,,,7,,,45,60
15168,note_on,0,0,3,,,,,,,,6,,,64,60
15168,note_on,0,0,1,,,,,,,,0,,,72,108
15262,note_on,94,0,4,,,,,,,,7,,,45,0
15262,note_on,94,0,3,,,,,,,,6,,,64,0
15264,note_on,2,0,4,,,,,,,,7,,,57,60
15264,note_on,0,0,1,,,,,,,,0,,,76,108
15264,note_on,2,0,3,,,,,,,,6,,,72,60
15264,note_on,96,0,1,,,,,,,,0,,,72,0
15358,note_on,94,0,3,,,,,,,,6,,,72,0
15358,note_on,94,0,4,,,,,,,,7,,,57,0
15360,note_on,2,0,4,,,,,,,,7,,,45,60
15360,note_on,2,0,3,,,,,,,,6,,,71,60
15360,note_on,0,0,1,,,,,,,,0,,,74,108
15360,note_on,96,0,1,,,,,,,,0,,,76,0
15454,note_on,94,0,3,,,,,,,,6,,,71,0
15454,note_on,94,0,4,,,,,,,,7,,,45,0
15456,note_on,2,0,4,,,,,,,,7,,,45,60
15456,note_on,96,0,1,,,,,,,,0,,,74,0
15456,note_on,2,0,3,,,,,,,,6,,,69,60
15456,note_on,0,0,1,,,,,,,,0,,,72,127
15550,note_on,94,0,3,,,,,,,,6,,,60,0
15550,note_on,0,0,3,,,,,,,,6,,,69,0
15550,note_on,94,0,4,,,,,,,,7,,,45,0
15552,note_on,2,0,3,,,,,,,,6,,,62,60
15552,note_on,0,0,3,,,,,,,,6,,,71,60
15552,note_on,2,0,4,,,,,,,,7,,,57,60
15552,note_on,0,0,1,,,,,,,,0,,,71,127
15552,note_on,96,0,1,,,,,,,,0,,,72,0
15646,note_on,94,0,4,,,,,,,,7,,,57,0
15646,note_on,0,0,3,,,,,,,,6,,,71,0
15646,note_on,94,0,3,,,,,,,,6,,,62,0
15648,note_on,0,0,3,,,,,,,,6,,,72,60
15648,note_on,2,0,3,,,,,,,,6,,,64,60
15648,note_on,2,0,4,,,,,,,,7,,,45,60
15648,note_on,0,0,1,,,,,,,,0,,,69,127
15648,note_on,96,0,1,,,,,,,,0,,,71,0
15742,note_on,94,0,3,,,,,,,,6,,,64,0
15742,note_on,94,0,4,,,,,,,,7,,,45,0
15742,note_on,0,0,3,,,,,,,,6,,,72,0
15744,note_on,0,0,1,,,,,,,,0,,,74,127
15744,note_on,0,0,3,,,,,,,,6,,,69,60
15744,note_on,2,0,4,,,,,,,,7,,,42,60
15744,note_on,2,0,3,,,,,,,,6,,,62,60
15744,note_on,0,0,3,,,,,,,,6,,,74,60
15744,note_on,96,0,1,,,,,,,,0,,,69,0
15838,note_on,94,0,4,,,,,,,,7,,,42,0
15840,note_on,2,0,4,,,,,,,,7,,,54,60
15886,note_on,142,0,3,,,,,,,,6,,,74,0
15888,note_on,2,0,3,,,,,,,,6,,,72,60
15934,note_on,46,0,3,,,,,,,,6,,,72,0
15934,note_on,94,0,4,,,,,,,,7,,,54,0
15936,note_on,2,0,4,,,,,,,,7,,,42,60
15936,note_on,2,0,3,,,,,,,,6,,,71,60
16000,note_on,64,0,3,,,,,,,,6,,,62,0
16000,note_on,0,0,3,,,,,,,,6,,,69,0
16030,note_on,30,0,3,,,,,,,,6,,,71,0
16030,note_on,94,0,4,,,,,,,,7,,,42,0
16032,note_on,2,0,3,,,,,,,,6,,,62,60
16032,note_on,0,0,3,,,,,,,,6,,,69,60
16032,note_on,2,0,4,,,,,,,,7,,,42,60
16126,note_on,94,0,4,,,,,,,,7,,,42,0
16128,note_on,2,0,4,,,,,,,,7,,,54,60
16192,note_on,160,0,3,,,,,,,,6,,,62,0
16192,note_on,0,0,3,,,,,,,,6,,,69,0
16222,note_on,94,0,4,,,,,,,,7,,,54,0
16224,note_on,32,0,3,,,,,,,,6,,,62,60
16224,note_on,0,0,3,,,,,,,,6,,,69,60
16224,note_on,0,0,3,,,,,,,,6,,,72,60
16224,note_on,480,0,1,,,,,,,,0,,,74,0
16224,note_on,0,0,1,,,,,,,,0,,,72,127
16224,note_on,2,0,4,,,,,,,,7,,,42,60
16318,note_on,94,0,4,,,,,,,,7,,,42,0
16318,note_on,0,0,3,,,,,,,,6,,,69,0
16318,note_on,94,0,3,,,,,,,,6,,,62,0
16318,note_on,0,0,3,,,,,,,,6,,,72,0
16318,note_on,94,0,1,,,,,,,,0,,,72,0
16320,note_on,2,0,1,,,,,,,,0,,,71,127
16320,note_on,2,0,3,,,,,,,,6,,,62,60
16320,note_on,0,0,3,,,,,,,,6,,,71,60
16320,note_on,2,0,4,,,,,,,,7,,,43,60
16414,note_on,94,0,4,,,,,,,,7,,,43,0
16416,note_on,2,0,4,,,,,,,,7,,,55,60
16416,note_on,0,0,1,,,,,,,,0,,,69,127
16416,note_on,96,0,1,,,,,,,,0,,,71,0
16480,note_on,160,0,3,,,,,,,,6,,,71,0
16510,note_on,94,0,4,,,,,,,,7,,,55,0
16510,note_on,94,0,1,,,,,,,,0,,,69,0
16512,note_on,2,0,1,,,,,,,,0,,,67,127
16512,note_on,32,0,3,,,,,,,,6,,,67,60
16512,note_on,2,0,4,,,,,,,,7,,,43,60
16576,note_on,64,0,3,,,,,,,,6,,,62,0
16606,note_on,94,0,4,,,,,,,,7,,,43,0
16606,note_on,30,0,3,,,,,,,,6,,,67,0
16606,note_on,94,0,1,,,,,,,,0,,,67,0
16608,note_on,2,0,1,,,,,,,,0,,,71,108
16608,note_on,2,0,3,,,,,,,,6,,,67,60
16608,note_on,0,0,3,,,,,,,,6,,,69,60
16608,note_on,2,0,4,,,,,,,,7,,,50,60
16640,note_on,32,0,1,,,,,,,,0,,,71,0
16640,note_on,0,0,1,,,,,,,,0,,,69,108
16672,note_on,0,0,1,,,,,,,,0,,,71,108
16672,note_on,32,0,1,,,,,,,,0,,,69,0
16702,note_on,94,0,3,,,,,,,,6,,,67,0
16702,note_on,94,0,4,,,,,,,,7,,,50,0
16704,note_on,32,0,1,,,,,,,,0,,,71,0
16704,note_on,0,0,1,,,,,,,,0,,,69,108
16704,note_on,2,0,4,,,,,,,,7,,,62,60
16704,note_on,2,0,3,,,,,,,,6,,,64,60
16768,note_on,64,0,3,,,,,,,,6,,,69,0
16798,note_on,94,0,1,,,,,,,,0,,,69,0
16798,note_on,94,0,4,,,,,,,,7,,,62,0
16798,note_on,30,0,3,,,,,,,,6,,,64,0
16800,note_on,2,0,1,,,,,,,,0,,,67,108
16800,note_on,2,0,3,,,,,,,,6,,,66,60
16800,note_on,2,0,4,,,,,,,,7,,,50,60
16894,note_on,94,0,1,,,,,,,,0,,,67,0
16894,note_on,94,0,3,,,,,,,,6,,,66,0
16894,note_on,94,0,4,,,,,,,,7,,,50,0
16896,note_on,2,0,4,,,,,,,,7,,,43,92
16896,note_on,2,0,1,,,,,,,,0,,,67,92
16896,note_on,2,0,3,,,,,,,,6,,,71,92
16896,note_on,6368,0,2,,,,,,,,5,,,74,92
16990,note_on,94,0,4,,,,,,,,7,,,43,0
16992,note_on,2,0,4,,,,,,,,7,,,55,92
17038,note_on,142,0,2,,,,,,,,5,,,74,0
17040,note_on,2,0,2,,,,,,,,5,,,76,92
17086,note_on,94,0,4,,,,,,,,7,,,55,0
17086,note_on,46,0,2,,,,,,,,5,,,76,0
17088,note_on,2,0,2,,,,,,,,5,,,74,92
17088,note_on,2,0,4,,,,,,,,7,,,43,92
17152,note_on,256,0,3,,,,,,,,6,,,71,0
17182,note_on,94,0,2,,,,,,,,5,,,74,0
17182,note_on,94,0,4,,,,,,,,7,,,43,0
17184,note_on,32,0,3,,,,,,,,6,,,72,92
17184,note_on,2,0,2,,,,,,,,5,,,76,92
17184,note_on,2,0,4,,,,,,,,7,,,43,92
17278,note_on,94,0,4,,,,,,,,7,,,43,0
17280,note_on,2,0,4,,,,,,,,7,,,55,92
17344,note_on,160,0,2,,,,,,,,5,,,76,0
17374,note_on,94,0,4,,,,,,,,7,,,55,0
17376,note_on,32,0,2,,,,,,,,5,,,76,92
17376,note_on,2,0,4,,,,,,,,7,,,43,92
17424,note_on,528,0,1,,,,,,,,0,,,67,0
17440,note_on,256,0,3,,,,,,,,6,,,72,0
17470,note_on,94,0,4,,,,,,,,7,,,43,0
17470,note_on,94,0,2,,,,,,,,5,,,76,0
17472,note_on,2,0,4,,,,,,,,7,,,43,92
17472,note_on,2,0,2,,,,,,,,5,,,78,92
17472,note_on,32,0,3,,,,,,,,6,,,72,92
17494,note_on,22,0,2,,,,,,,,5,,,78,0
17496,note_on,2,0,2,,,,,,,,5,,,76,92
17518,note_on,22,0,2,,,,,,,,5,,,76,0
17520,note_on,2,0,2,,,,,,,,5,,,78,92
17542,note_on,22,0,2,,,,,,,,5,,,78,0
17544,note_on,2,0,2,,,,,,,,5,,,76,92
17566,note_on,22,0,2,,,,,,,,5,,,76,0
17566,note_on,94,0,4,,,,,,,,7,,,43,0
17568,note_on,2,0,4,,,,,,,,7,,,55,92
17568,note_on,2,0,2,,,,,,,,5,,,78,92
17590,note_on,22,0,2,,,,,,,,5,,,78,0
17592,note_on,2,0,2,,,,,,,,5,,,76,92
17614,note_on,22,0,2,,,,,,,,5,,,76,0
17616,note_on,2,0,2,,,,,,,,5,,,78,92
17632,note_on,160,0,3,,,,,,,,6,,,72,0
17638,note_on,22,0,2,,,,,,,,5,,,78,0
17640,note_on,2,0,2,,,,,,,,5,,,76,92
17662,note_on,22,0,2,,,,,,,,5,,,76,0
17662,note_on,94,0,4,,,,,,,,7,,,55,0
17664,note_on,2,0,2,,,,,,,,5,,,74,92
17664,note_on,2,0,4,,,,,,,,7,,,43,92
17664,note_on,32,0,3,,,,,,,,6,,,71,92
17758,note_on,94,0,4,,,,,,,,7,,,43,0
17758,note_on,94,0,3,,,,,,,,6,,,71,0
17758,note_on,94,0,2,,,,,,,,5,,,74,0
17760,note_on,2,0,4,,,,,,,,7,,,43,92
17760,note_on,2,0,2,,,,,,,,5,,,74,92
17760,note_on,2,0,3,,,,,,,,6,,,71,92
17854,note_on,94,0,4,,,,,,,,7,,,43,0
17856,note_on,2,0,4,,,,,,,,7,,,55,92
17950,note_on,94,0,4,,,,,,,,7,,,55,0
17952,note_on,2,0,4,,,,,,,,7,,,43,92
18016,note_on,256,0,3,,,,,,,,6,,,71,0
18016,note_on,256,0,2,,,,,,,,5,,,74,0
18046,note_on,94,0,4,,,,,,,,7,,,43,0
18048,note_on,2,0,4,,,,,,,,7,,,45,92
18048,note_on,32,0,2,,,,,,,,5,,,72,92
18048,note_on,32,0,3,,,,,,,,6,,,66,92
18142,note_on,94,0,4,,,,,,,,7,,,45,0
18144,note_on,2,0,4,,,,,,,,7,,,57,92
18190,note_on,142,0,2,,,,,,,,5,,,72,0
18192,note_on,2,0,2,,,,,,,,5,,,74,92
18238,note_on,94,0,4,,,,,,,,7,,,57,0
18238,note_on,46,0,2,,,,,,,,5,,,74,0
18240,note_on,2,0,2,,,,,,,,5,,,72,92
18240,note_on,2,0,4,,,,,,,,7,,,45,92
18304,note_on,256,0,3,,,,,,,,6,,,66,0
18334,note_on,94,0,2,,,,,,,,5,,,72,0
18334,note_on,94,0,4,,,,,,,,7,,,45,0
18336,note_on,2,0,2,,,,,,,,5,,,81,92
18336,note_on,2,0,4,,,,,,,,7,,,42,92
18336,note_on,32,0,3,,,,,,,,6,,,72,92
18336,note_on,0,0,3,,,,,,,,6,,,74,92
18430,note_on,94,0,4,,,,,,,,7,,,42,0
18432,note_on,2,0,4,,,,,,,,7,,,54,92
18496,note_on,160,0,3,,,,,,,,6,,,72,0
18496,note_on,160,0,2,,,,,,,,5,,,81,0
18496,note_on,0,0,3,,,,,,,,6,,,74,0
18526,note_on,94,0,4,,,,,,,,7,,,54,0
18528,note_on,2,0,4,,,,,,,,7,,,42,92
18528,note_on,32,0,2,,,,,,,,5,,,72,92
18528,note_on,32,0,3,,,,,,,,6,,,69,92
18622,note_on,94,0,3,,,,,,,,6,,,69,0
18622,note_on,94,0,4,,,,,,,,7,,,42,0
18622,note_on,94,0,2,,,,,,,,5,,,72,0
18624,note_on,2,0,4,,,,,,,,7,,,43,92
18624,note_on,2,0,3,,,,,,,,6,,,62,92
18624,note_on,0,0,3,,,,,,,,6,,,69,92
18624,note_on,2,0,2,,,,,,,,5,,,74,92
18646,note_on,22,0,2,,,,,,,,5,,,74,0
18648,note_on,2,0,2,,,,,,,,5,,,72,92
18670,note_on,22,0,2,,,,,,,,5,,,72,0
18672,note_on,2,0,2,,,,,,,,5,,,74,92
18694,note_on,22,0,2,,,,,,,,5,,,74,0
18696,note_on,2,0,2,,,,,,,,5,,,72,92
18718,note_on,94,0,4,,,,,,,,7,,,43,0
18718,note_on,22,0,2,,,,,,,,5,,,72,0
18720,note_on,2,0,4,,,,,,,,7,,,55,92
18720,note_on,2,0,2,,,,,,,,5,,,74,92
18742,note_on,22,0,2,,,,,,,,5,,,74,0
18744,note_on,2,0,2,,,,,,,,5,,,72,92
18766,note_on,22,0,2,,,,,,,,5,,,72,0
18768,note_on,2,0,2,,,,,,,,5,,,74,92
18784,note_on,160,0,3,,,,,,,,6,,,69,0
18790,note_on,22,0,2,,,,,,,,5,,,74,0
18792,note_on,2,0,2,,,,,,,,5,,,72,92
18814,note_on,22,0,2,,,,,,,,5,,,72,0
18814,note_on,94,0,4,,,,,,,,7,,,55,0
18816,note_on,32,0,3,,,,,,,,6,,,67,92
18816,note_on,2,0,4,,,,,,,,7,,,43,92
18816,note_on,2,0,2,,,,,,,,5,,,71,92
18910,note_on,94,0,3,,,,,,,,6,,,67,0
18910,note_on,94,0,2,,,,,,,,5,,,71,0
18910,note_on,94,0,4,,,,,,,,7,,,43,0
18912,note_on,2,0,3,,,,,,,,6,,,67,92
18912,note_on,2,0,2,,,,,,,,5,,,71,92
18912,note_on,1488,0,1,,,,,,,,0,,,74,92
18912,note_on,2,0,4,,,,,,,,7,,,43,92
19006,note_on,94,0,4,,,,,,,,7,,,43,0
19008,note_on,2,0,4,,,,,,,,7,,,55,92
19102,note_on,94,0,4,,,,,,,,7,,,55,0
19104,note_on,2,0,4,,,,,,,,7,,,43,92
19168,note_on,256,0,3,,,,,,,,6,,,62,0
19168,note_on,0,0,3,,,,,,,,6,,,67,0
19198,note_on,94,0,4,,,,,,,,7,,,43,0
19200,note_on,32,0,3,,,,,,,,6,,,65,75
19200,note_on,2,0,4,,,,,,,,7,,,44,75
19294,note_on,94,0,4,,,,,,,,7,,,44,0
19296,note_on,2,0,4,,,,,,,,7,,,56,75
19342,note_on,430,0,2,,,,,,,,5,,,71,0
19344,note_on,432,0,1,,,,,,,,0,,,74,0
19344,note_on,0,0,1,,,,,,,,0,,,76,92
19344,note_on,2,0,2,,,,,,,,5,,,72,75
19390,note_on,46,0,2,,,,,,,,5,,,72,0
19390,note_on,94,0,4,,,,,,,,7,,,56,0
19392,note_on,0,0,1,,,,,,,,0,,,77,92
19392,note_on,2,0,4,,,,,,,,7,,,44,75
19392,note_on,2,0,2,,,,,,,,5,,,74,75
19392,note_on,48,0,1,,,,,,,,0,,,76,0
19456,note_on,256,0,3,,,,,,,,6,,,65,0
19486,note_on,94,0,2,,,,,,,,5,,,74,0
19486,note_on,94,0,1,,,,,,,,0,,,77,0
19486,note_on,94,0,4,,,,,,,,7,,,44,0
19488,note_on,2,0,4,,,,,,,,7,,,44,75
19488,note_on,32,0,3,,,,,,,,6,,,64,75
19488,note_on,2,0,2,,,,,,,,5,,,72,75
19488,note_on,2,0,1,,,,,,,,0,,,76,92
19582,note_on,94,0,4,,,,,,,,7,,,44,0
19584,note_on,2,0,4,,,,,,,,7,,,56,75
19648,note_on,160,0,2,,,,,,,,5,,,72,0
19648,note_on,160,0,3,,,,,,,,6,,,64,0
19648,note_on,160,0,1,,,,,,,,0,,,76,0
19678,note_on,94,0,4,,,,,,,,7,,,56,0
19680,note_on,2,0,4,,,,,,,,7,,,44,75
19680,note_on,32,0,1,,,,,,,,0,,,74,92
19680,note_on,32,0,3,,,,,,,,6,,,62,75
19680,note_on,32,0,2,,,,,,,,5,,,71,75
19774,note_on,94,0,1,,,,,,,,0,,,74,0
19774,note_on,94,0,2,,,,,,,,5,,,71,0
19774,note_on,94,0,3,,,,,,,,6,,,62,0
19774,note_on,94,0,4,,,,,,,,7,,,44,0
19776,note_on,2,0,2,,,,,,,,5,,,69,75
19776,note_on,2,0,4,,,,,,,,7,,,45,75
19776,note_on,2,0,3,,,,,,,,6,,,60,75
19776,note_on,2,0,1,,,,,,,,0,,,72,92
19870,note_on,94,0,4,,,,,,,,7,,,45,0
19872,note_on,2,0,4,,,,,,,,7,,,57,75
19918,note_on,142,0,3,,,,,,,,6,,,60,0
19920,note_on,2,0,3,,,,,,,,6,,,62,75
19936,note_on,160,0,1,,,,,,,,0,,,72,0
19936,note_on,160,0,2,,,,,,,,5,,,69,0
19966,note_on,94,0,4,,,,,,,,7,,,57,0
19966,note_on,46,0,3,,,,,,,,6,,,62,0
19968,note_on,32,0,1,,,,,,,,0,,,71,92
19968,note_on,32,0,2,,,,,,,,5,,,68,75
19968,note_on,2,0,4,,,,,,,,7,,,52,75
19968,note_on,2,0,3,,,,,,,,6,,,64,75
20062,note_on,94,0,2,,,,,,,,5,,,68,0
20062,note_on,94,0,4,,,,,,,,7,,,52,0
20062,note_on,94,0,3,,,,,,,,6,,,64,0
20062,note_on,94,0,1,,,,,,,,0,,,71,0
20064,note_on,2,0,2,,,,,,,,5,,,69,75
20064,note_on,2,0,4,,,,,,,,7,,,45,75
20064,note_on,2,0,3,,,,,,,,6,,,60,75
20064,note_on,2,0,1,,,,,,,,0,,,72,92
20158,note_on,94,0,4,,,,,,,,7,,,45,0
20160,note_on,2,0,4,,,,,,,,7,,,57,75
20224,note_on,160,0,2,,,,,,,,5,,,69,0
20224,note_on,160,0,1,,,,,,,,0,,,72,0
20224,note_on,160,0,3,,,,,,,,6,,,60,0
20254,note_on,94,0,4,,,,,,,,7,,,57,0
20256,note_on,32,0,1,,,,,,,,0,,,74,92
20256,note_on,32,0,2,,,,,,,,5,,,71,75
20256,note_on,2,0,4,,,,,,,,7,,,52,75
20256,note_on,32,0,3,,,,,,,,6,,,67,75
20350,note_on,94,0,4,,,,,,,,7,,,52,0
20350,note_on,94,0,2,,,,,,,,5,,,71,0
20350,note_on,94,0,3,,,,,,,,6,,,67,0
20350,note_on,94,0,1,,,,,,,,0,,,74,0
20352,note_on,2,0,2,,,,,,,,5,,,72,75
20352,note_on,2,0,3,,,,,,,,6,,,69,75
20352,note_on,2,0,1,,,,,,,,0,,,76,92
20352,note_on,2,0,4,,,,,,,,7,,,45,75
20446,note_on,94,0,2,,,,,,,,5,,,72,0
20446,note_on,94,0,4,,,,,,,,7,,,45,0
20448,note_on,2,0,4,,,,,,,,7,,,57,75
20448,note_on,96,0,1,,,,,,,,0,,,76,0
20448,note_on,2,0,2,,,,,,,,5,,,71,75
20448,note_on,0,0,1,,,,,,,,0,,,74,92
20512,note_on,160,0,3,,,,,,,,6,,,69,0
20542,note_on,94,0,1,,,,,,,,0,,,74,0
20542,note_on,94,0,4,,,,,,,,7,,,57,0
20542,note_on,94,0,2,,,,,,,,5,,,71,0
20544,note_on,2,0,4,,,,,,,,7,,,45,75
20544,note_on,2,0,2,,,,,,,,5,,,69,75
20544,note_on,2,0,1,,,,,,,,0,,,72,92
20544,note_on,32,0,3,,,,,,,,6,,,72,75
20638,note_on,94,0,4,,,,,,,,7,,,45,0
20638,note_on,94,0,1,,,,,,,,0,,,72,0
20638,note_on,94,0,3,,,,,,,,6,,,72,0
20638,note_on,94,0,2,,,,,,,,5,,,69,0
20640,note_on,2,0,4,,,,,,,,7,,,50,75
20640,note_on,2,0,2,,,,,,,,5,,,77,75
20640,note_on,2,0,1,,,,,,,,0,,,71,92
20640,note_on,2,0,3,,,,,,,,6,,,71,75
20734,note_on,94,0,4,,,,,,,,7,,,50,0
20736,note_on,2,0,4,,,,,,,,7,,,62,75
20736,note_on,96,0,1,,,,,,,,0,,,71,0
20736,note_on,0,0,1,,,,,,,,0,,,72,92
20800,note_on,160,0,3,,,,,,,,6,,,71,0
20830,note_on,94,0,4,,,,,,,,7,,,62,0
20830,note_on,94,0,1,,,,,,,,0,,,72,0
20832,note_on,2,0,4,,,,,,,,7,,,50,75
20832,note_on,32,0,3,,,,,,,,6,,,69,75
20832,note_on,2,0,1,,,,,,,,0,,,69,92
20896,note_on,256,0,2,,,,,,,,5,,,77,0
20926,note_on,94,0,3,,,,,,,,6,,,69,0
20926,note_on,94,0,4,,,,,,,,7,,,50,0
20926,note_on,94,0,1,,,,,,,,0,,,69,0
20928,note_on,2,0,4,,,,,,,,7,,,52,75
20928,note_on,2,0,1,,,,,,,,0,,,69,92
20928,note_on,32,0,2,,,,,,,,5,,,71,75
20928,note_on,2,0,3,,,,,,,,6,,,69,75
21022,note_on,94,0,4,,,,,,,,7,,,52,0
21024,note_on,2,0,4,,,,,,,,7,,,64,75
21070,note_on,142,0,2,,,,,,,,5,,,71,0
21072,note_on,2,0,2,,,,,,,,5,,,72,75
21088,note_on,160,0,3,,,,,,,,6,,,69,0
21088,note_on,160,0,1,,,,,,,,0,,,69,0
21118,note_on,46,0,2,,,,,,,,5,,,72,0
21118,note_on,94,0,4,,,,,,,,7,,,64,0
21120,note_on,32,0,3,,,,,,,,6,,,68,75
21120,note_on,2,0,2,,,,,,,,5,,,71,75
21120,note_on,2,0,4,,,,,,,,7,,,52,75
21120,note_on,32,0,1,,,,,,,,0,,,68,92
21214,note_on,94,0,2,,,,,,,,5,,,71,0
21214,note_on,94,0,3,,,,,,,,6,,,68,0
21214,note_on,94,0,4,,,,,,,,7,,,52,0
21214,note_on,94,0,1,,,,,,,,0,,,68,0
21216,note_on,2,0,4,,,,,,,,7,,,50,75
21216,note_on,2,0,2,,,,,,,,5,,,71,75
21216,note_on,0,0,3,,,,,,,,6,,,68,75
21216,note_on,2,0,3,,,,,,,,6,,,64,75
21310,note_on,94,0,4,,,,,,,,7,,,50,0
21312,note_on,2,0,4,,,,,,,,7,,,62,75
21358,note_on,142,0,2,,,,,,,,5,,,71,0
21360,note_on,2,0,2,,,,,,,,5,,,72,75
21406,note_on,94,0,4,,,,,,,,7,,,62,0
21406,note_on,46,0,2,,,,,,,,5,,,72,0
21408,note_on,2,0,4,,,,,,,,7,,,50,75
21408,note_on,2,0,2,,,,,,,,5,,,71,75
21472,note_on,256,0,3,,,,,,,,6,,,64,0
21472,note_on,0,0,3,,,,,,,,6,,,68,0
21502,note_on,94,0,2,,,,,,,,5,,,71,0
21502,note_on,94,0,4,,,,,,,,7,,,50,0
21504,note_on,2,0,4,,,,,,,,7,,,49,60
21504,note_on,290,0,1,,,,,,,,0,,,69,75
21504,note_on,32,0,3,,,,,,,,6,,,64,60
21504,note_on,2,0,2,,,,,,,,5,,,76,60
21504,note_on,0,0,3,,,,,,,,6,,,69,60
21598,note_on,94,0,4,,,,,,,,7,,,49,0
21600,note_on,2,0,4,,,,,,,,7,,,61,60
21664,note_on,160,0,2,,,,,,,,5,,,76,0
21694,note_on,94,0,4,,,,,,,,7,,,61,0
21696,note_on,2,0,4,,,,,,,,7,,,49,60
21696,note_on,32,0,2,,,,,,,,5,,,69,60
21760,note_on,0,0,3,,,,,,,,6,,,69,0
21760,note_on,256,0,3,,,,,,,,6,,,64,0
21790,note_on,94,0,4,,,,,,,,7,,,49,0
21790,note_on,94,0,2,,,,,,,,5,,,69,0
21792,note_on,32,0,3,,,,,,,,6,,,64,60
21792,note_on,2,0,4,,,,,,,,7,,,49,60
21886,note_on,94,0,4,,,,,,,,7,,,49,0
21888,note_on,2,0,4,,,,,,,,7,,,61,60
21888,note_on,96,0,3,,,,,,,,6,,,69,60
21952,note_on,448,0,1,,,,,,,,0,,,69,0
21982,note_on,94,0,4,,,,,,,,7,,,61,0
21982,note_on,94,0,3,,,,,,,,6,,,69,0
21984,note_on,2,0,4,,,,,,,,7,,,49,60
21984,note_on,32,0,1,,,,,,,,0,,,76,75
21984,note_on,2,0,3,,,,,,,,6,,,67,60
22048,note_on,64,0,3,,,,,,,,6,,,64,0
22078,note_on,94,0,4,,,,,,,,7,,,49,0
22078,note_on,30,0,3,,,,,,,,6,,,67,0
22078,note_on,94,0,1,,,,,,,,0,,,76,0
22080,note_on,0,0,3,,,,,,,,6,,,65,60
22080,note_on,2,0,3,,,,,,,,6,,,62,60
22080,note_on,2,0,1,,,,,,,,0,,,65,75
22080,note_on,2,0,4,,,,,,,,7,,,50,60
22174,note_on,94,0,3,,,,,,,,6,,,62,0
22174,note_on,0,0,3,,,,,,,,6,,,65,0
22174,note_on,94,0,4,,,,,,,,7,,,50,0
22176,note_on,2,0,4,,,,,,,,7,,,62,60
22176,note_on,2,0,3,,,,,,,,6,,,64,60
22176,note_on,0,0,3,,,,,,,,6,,,67,60
22270,note_on,94,0,4,,,,,,,,7,,,62,0
22270,note_on,94,0,3,,,,,,,,6,,,64,0
22270,note_on,0,0,3,,,,,,,,6,,,67,0
22272,note_on,2,0,4,,,,,,,,7,,,50,60
22272,note_on,2,0,3,,,,,,,,6,,,65,60
22272,note_on,0,0,3,,,,,,,,6,,,69,60
22366,note_on,94,0,4,,,,,,,,7,,,50,0
22366,note_on,94,0,3,,,,,,,,6,,,65,0
22366,note_on,0,0,3,,,,,,,,6,,,69,0
22368,note_on,2,0,4,,,,,,,,7,,,50,60
22368,note_on,0,0,3,,,,,,,,6,,,70,60
22368,note_on,2,0,3,,,,,,,,6,,,65,60
22462,note_on,94,0,4,,,,,,,,7,,,50,0
22464,note_on,2,0,4,,,,,,,,7,,,62,60
22464,note_on,0,0,1,,,,,,,,0,,,70,92
22464,note_on,384,0,1,,,,,,,,0,,,65,0
22528,note_on,160,0,3,,,,,,,,6,,,70,0
22558,note_on,94,0,4,,,,,,,,7,,,62,0
22560,note_on,96,0,1,,,,,,,,0,,,70,0
22560,note_on,0,0,1,,,,,,,,0,,,69,92
22560,note_on,32,0,3,,,,,,,,6,,,69,60
22560,note_on,2,0,4,,,,,,,,7,,,50,60
22624,note_on,64,0,3,,,,,,,,6,,,65,0
22654,note_on,30,0,3,,,,,,,,6,,,69,0
22654,note_on,94,0,4,,,,,,,,7,,,50,0
22656,note_on,2,0,3,,,,,,,,6,,,60,60
22656,note_on,0,0,3,,,,,,,,6,,,67,60
22656,note_on,0,0,1,,,,,,,,0,,,67,92
22656,note_on,96,0,1,,,,,,,,0,,,69,0
22656,note_on,2,0,4,,,,,,,,7,,,52,60
22750,note_on,94,0,3,,,,,,,,6,,,67,0
22750,note_on,94,0,4,,,,,,,,7,,,52,0
22752,note_on,2,0,3,,,,,,,,6,,,64,60
22752,note_on,2,0,4,,,,,,,,7,,,60,60
22846,note_on,94,0,4,,,,,,,,7,,,60,0
22846,note_on,94,0,3,,,,,,,,6,,,64,0
22848,note_on,2,0,3,,,,,,,,6,,,65,60
22848,note_on,2,0,4,,,,,,,,7,,,52,60
22942,note_on,94,0,4,,,,,,,,7,,,52,0
22942,note_on,94,0,3,,,,,,,,6,,,65,0
22944,note_on,2,0,3,,,,,,,,6,,,67,60
22944,note_on,2,0,4,,,,,,,,7,,,52,60
23038,note_on,0,0,3,,,,,,,,6,,,67,0
23038,note_on,94,0,4,,,,,,,,7,,,52,0
23038,note_on,94,0,3,,,,,,,,6,,,60,0
23040,note_on,2,0,3,,,,,,,,6,,,69,60
23040,note_on,384,0,1,,,,,,,,0,,,67,0
23040,note_on,0,0,1,,,,,,,,0,,,72,92
23040,note_on,2,0,4,,,,,,,,7,,,60,60
23134,note_on,94,0,4,,,,,,,,7,,,60,0
23134,note_on,94,0,3,,,,,,,,6,,,69,0
23136,note_on,2,0,4,,,,,,,,7,,,52,60
23136,note_on,96,0,1,,,,,,,,0,,,72,0
23136,note_on,2,0,3,,,,,,,,6,,,67,60
23136,note_on,0,0,3,,,,,,,,6,,,70,60
23136,note_on,0,0,1,,,,,,,,0,,,70,92
23230,note_on,0,0,3,,,,,,,,6,,,70,0
23230,note_on,94,0,3,,,,,,,,6,,,67,0
23230,note_on,94,0,4,,,,,,,,7,,,52,0
23232,note_on,2,0,4,,,,,,,,7,,,53,60
23232,note_on,96,0,1,,,,,,,,0,,,70,0
23232,note_on,2,0,3,,,,,,,,6,,,65,60
23232,note_on,0,0,1,,,,,,,,0,,,69,92
23232,note_on,0,0,3,,,,,,,,6,,,69,60
23326,note_on,94,0,3,,,,,,,,6,,,65,0
23326,note_on,94,0,4,,,,,,,,7,,,53,0
23326,note_on,0,0,3,,,,,,,,6,,,69,0
23328,note_on,2,0,3,,,,,,,,6,,,65,60
23328,note_on,2,0,4,,,,,,,,7,,,60,60
23422,note_on,94,0,4,,,,,,,,7,,,60,0
23422,note_on,94,0,3,,,,,,,,6,,,65,0
23424,note_on,0,0,3,,,,,,,,6,,,67,60
23424,note_on,2,0,4,,,,,,,,7,,,53,60
23424,note_on,2,0,3,,,,,,,,6,,,64,60
23518,note_on,94,0,3,,,,,,,,6,,,64,0
23518,note_on,0,0,3,,,,,,,,6,,,67,0
23518,note_on,94,0,4,,,,,,,,7,,,53,0
23520,note_on,2,0,4,,,,,,,,7,,,54,60
23520,note_on,0,0,3,,,,,,,,6,,,69,60
23520,note_on,2,0,3,,,,,,,,6,,,62,60
23614,note_on,0,0,3,,,,,,,,6,,,69,0
23614,note_on,94,0,3,,,,,,,,6,,,62,0
23614,note_on,94,0,4,,,,,,,,7,,,54,0
23616,note_on,2,0,4,,,,,,,,7,,,62,60
23616,note_on,2,0,3,,,,,,,,6,,,71,60
23616,note_on,384,0,1,,,,,,,,0,,,69,0
23616,note_on,0,0,1,,,,,,,,0,,,74,92
23710,note_on,94,0,4,,,,,,,,7,,,62,0
23710,note_on,94,0,3,,,,,,,,6,,,71,0
23712,note_on,2,0,4,,,,,,,,7,,,54,60
23712,note_on,0,0,1,,,,,,,,0,,,72,92
23712,note_on,96,0,1,,,,,,,,0,,,74,0
23712,note_on,0,0,3,,,,,,,,6,,,72,60
23712,note_on,2,0,3,,,,,,,,6,,,69,60
23806,note_on,0,0,3,,,,,,,,6,,,72,0
23806,note_on,94,0,3,,,,,,,,6,,,69,0
23806,note_on,94,0,4,,,,,,,,7,,,54,0
23808,note_on,0,0,1,,,,,,,,0,,,71,92
23808,note_on,2,0,4,,,,,,,,7,,,55,60
23808,note_on,0,0,3,,,,,,,,6,,,71,60
23808,note_on,2,0,3,,,,,,,,6,,,67,60
23808,note_on,96,0,1,,,,,,,,0,,,72,0
23902,note_on,0,0,3,,,,,,,,6,,,71,0
23902,note_on,94,0,3,,,,,,,,6,,,67,0
23902,note_on,94,0,4,,,,,,,,7,,,55,0
23904,note_on,0,0,3,,,,,,,,6,,,74,60
23904,note_on,2,0,3,,,,,,,,6,,,71,60
23904,note_on,2,0,4,,,,,,,,7,,,62,60
23998,note_on,94,0,4,,,,,,,,7,,,62,0
23998,note_on,94,0,3,,,,,,,,6,,,71,0
23998,note_on,0,0,3,,,,,,,,6,,,74,0
24000,note_on,2,0,4,,,,,,,,7,,,55,60
24000,note_on,2,0,3,,,,,,,,6,,,69,60
24000,note_on,0,0,3,,,,,,,,6,,,72,60
24094,note_on,94,0,4,,,,,,,,7,,,55,0
24094,note_on,94,0,3,,,,,,,,6,,,69,0
24094,note_on,0,0,3,,,,,,,,6,,,72,0
24096,note_on,2,0,4,,,,,,,,7,,,56,60
24096,note_on,0,0,3,,,,,,,,6,,,71,60
24096,note_on,2,0,3,,,,,,,,6,,,64,60
24190,note_on,94,0,3,,,,,,,,6,,,64,0
24190,note_on,94,0,4,,,,,,,,7,,,56,0
24190,note_on,0,0,3,,,,,,,,6,,,71,0
24192,note_on,2,0,4,,,,,,,,7,,,64,60
24192,note_on,0,0,1,,,,,,,,0,,,76,92
24192,note_on,384,0,1,,,,,,,,0,,,71,0
24192,note_on,2,0,3,,,,,,,,6,,,72,60
24286,note_on,94,0,3,,,,,,,,6,,,72,0
24286,note_on,94,0,4,,,,,,,,7,,,64,0
24288,note_on,0,0,1,,,,,,,,0,,,74,92
24288,note_on,2,0,4,,,,,,,,7,,,56,60
24288,note_on,96,0,1,,,,,,,,0,,,76,0
24288,note_on,0,0,3,,,,,,,,6,,,74,60
24288,note_on,2,0,3,,,,,,,,6,,,71,60
24382,note_on,94,0,4,,,,,,,,7,,,56,0
24382,note_on,0,0,3,,,,,,,,6,,,74,0
24382,note_on,94,0,3,,,,,,,,6,,,71,0
24384,note_on,2,0,4,,,,,,,,7,,,45,60
24384,note_on,0,0,3,,,,,,,,6,,,73,60
24384,note_on,2,0,3,,,,,,,,6,,,69,60
24384,note_on,0,0,1,,,,,,,,0,,,73,92
24384,note_on,96,0,1,,,,,,,,0,,,74,0
24478,note_on,0,0,3,,,,,,,,6,,,73,0
24478,note_on,94,0,4,,,,,,,,7,,,45,0
24478,note_on,94,0,3,,,,,,,,6,,,69,0
24480,note_on,96,0,1,,,,,,,,0,,,73,0
24480,note_on,0,0,3,,,,,,,,6,,,74,60
24480,note_on,2,0,3,,,,,,,,6,,,71,60
24480,note_on,0,0,1,,,,,,,,0,,,71,92
24480,note_on,2,0,4,,,,,,,,7,,,57,60
24574,note_on,94,0,1,,,,,,,,0,,,71,0
24574,note_on,0,0,3,,,,,,,,6,,,74,0
24574,note_on,94,0,4,,,,,,,,7,,,57,0
24574,note_on,94,0,3,,,,,,,,6,,,71,0
24576,note_on,0,0,3,,,,,,,,6,,,76,60
24576,note_on,2,0,3,,,,,,,,6,,,73,60
24576,note_on,2,0,4,,,,,,,,7,,,45,60
24576,note_on,2,0,1,,,,,,,,0,,,69,92
24670,note_on,94,0,4,,,,,,,,7,,,45,0
24670,note_on,94,0,1,,,,,,,,0,,,69,0
24670,note_on,94,0,3,,,,,,,,6,,,73,0
24670,note_on,0,0,3,,,,,,,,6,,,76,0
24672,note_on,2,0,3,,,,,,,,6,,,73,60
24672,note_on,2,0,4,,,,,,,,7,,,45,60
24672,note_on,0,0,3,,,,,,,,6,,,76,60
24766,note_on,94,0,4,,,,,,,,7,,,45,0
24768,note_on,2,0,4,,,,,,,,7,,,57,60
24814,note_on,0,0,3,,,,,,,,6,,,76,0
24814,note_on,142,0,3,,,,,,,,6,,,73,0
24816,note_on,0,0,3,,,,,,,,6,,,74,60
24816,note_on,2,0,3,,,,,,,,6,,,71,60
24862,note_on,94,0,4,,,,,,,,7,,,57,0
24862,note_on,46,0,3,,,,,,,,6,,,71,0
24862,note_on,0,0,3,,,,,,,,6,,,74,0
24864,note_on,0,0,3,,,,,,,,6,,,73,60
24864,note_on,194,0,1,,,,,,,,0,,,76,108
24864,note_on,2,0,3,,,,,,,,6,,,69,60
24864,note_on,2,0,4,,,,,,,,7,,,45,60
24958,note_on,94,0,3,,,,,,,,6,,,69,0
24958,note_on,0,0,3,,,,,,,,6,,,73,0
24958,note_on,94,0,4,,,,,,,,7,,,45,0
24958,note_on,94,0,1,,,,,,,,0,,,76,0
24960,note_on,2,0,1,,,,,,,,0,,,77,108
24960,note_on,2,0,4,,,,,,,,7,,,44,60
24960,note_on,2,0,3,,,,,,,,6,,,65,60
24960,note_on,0,0,3,,,,,,,,6,,,74,60
25054,note_on,94,0,4,,,,,,,,7,,,44,0
25056,note_on,2,0,4,,,,,,,,7,,,56,60
25102,note_on,142,0,3,,,,,,,,6,,,74,0
25102,note_on,142,0,1,,,,,,,,0,,,77,0
25104,note_on,2,0,1,,,,,,,,0,,,76,108
25104,note_on,2,0,3,,,,,,,,6,,,73,60
25150,note_on,46,0,3,,,,,,,,6,,,73,0
25150,note_on,94,0,4,,,,,,,,7,,,56,0
25152,note_on,2,0,4,,,,,,,,7,,,44,60
25152,note_on,2,0,3,,,,,,,,6,,,71,60
25152,note_on,48,0,1,,,,,,,,0,,,76,0
25152,note_on,0,0,1,,,,,,,,0,,,74,108
25216,note_on,64,0,3,,,,,,,,6,,,65,0
25246,note_on,94,0,1,,,,,,,,0,,,74,0
25246,note_on,94,0,4,,,,,,,,7,,,44,0
25246,note_on,30,0,3,,,,,,,,6,,,71,0
25248,note_on,2,0,4,,,,,,,,7,,,45,60
25248,note_on,2,0,1,,,,,,,,0,,,74,108
25248,note_on,0,0,3,,,,,,,,6,,,74,60
25248,note_on,2,0,3,,,,,,,,6,,,64,60
25342,note_on,94,0,4,,,,,,,,7,,,45,0
25344,note_on,96,0,1,,,,,,,,0,,,74,0
25344,note_on,0,0,1,,,,,,,,0,,,76,108
25344,note_on,2,0,4,,,,,,,,7,,,57,60
25408,note_on,0,0,3,,,,,,,,6,,,74,0
25408,note_on,160,0,3,,,,,,,,6,,,64,0
25438,note_on,94,0,4,,,,,,,,7,,,57,0
25438,note_on,94,0,1,,,,,,,,0,,,76,0
25440,note_on,2,0,1,,,,,,,,0,,,73,108
25440,note_on,32,0,3,,,,,,,,6,,,67,60
25440,note_on,0,0,3,,,,,,,,6,,,73,60
25440,note_on,2,0,4,,,,,,,,7,,,45,60
25534,note_on,94,0,1,,,,,,,,0,,,73,0
25534,note_on,94,0,3,,,,,,,,6,,,67,0
25534,note_on,0,0,3,,,,,,,,6,,,73,0
25534,note_on,94,0,4,,,,,,,,7,,,45,0
25536,note_on,2,0,3,,,,,,,,6,,,65,92
25536,note_on,2,0,1,,,,,,,,0,,,74,108
25536,note_on,2,0,4,,,,,,,,7,,,50,92
25536,note_on,3746,0,2,,,,,,,,5,,,74,92
25630,note_on,94,0,4,,,,,,,,7,,,50,0
25632,note_on,2,0,4,,,,,,,,7,,,62,92
25678,note_on,142,0,3,,,,,,,,6,,,65,0
25678,note_on,142,0,2,,,,,,,,5,,,74,0
25680,note_on,2,0,3,,,,,,,,6,,,67,92
25680,note_on,2,0,2,,,,,,,,5,,,76,92
25726,note_on,46,0,3,,,,,,,,6,,,67,0
25726,note_on,46,0,2,,,,,,,,5,,,76,0
25726,note_on,94,0,4,,,,,,,,7,,,62,0
25728,note_on,2,0,3,,,,,,,,6,,,65,92
25728,note_on,2,0,2,,,,,,,,5,,,74,92
25728,note_on,2,0,4,,,,,,,,7,,,50,92
25822,note_on,94,0,4,,,,,,,,7,,,50,0
25822,note_on,94,0,2,,,,,,,,5,,,74,0
25822,note_on,94,0,3,,,,,,,,6,,,65,0
25824,note_on,2,0,2,,,,,,,,5,,,77,92
25824,note_on,2,0,4,,,,,,,,7,,,50,92
25824,note_on,2,0,3,,,,,,,,6,,,69,92
25918,note_on,94,0,4,,,,,,,,7,,,50,0
25920,note_on,2,0,4,,,,,,,,7,,,62,92
25966,note_on,142,0,3,,,,,,,,6,,,69,0
25968,note_on,2,0,3,,,,,,,,6,,,67,92
25984,note_on,160,0,2,,,,,,,,5,,,77,0
26014,note_on,46,0,3,,,,,,,,6,,,67,0
26014,note_on,94,0,4,,,,,,,,7,,,62,0
26016,note_on,32,0,2,,,,,,,,5,,,74,92
26016,note_on,2,0,4,,,,,,,,7,,,50,92
26016,note_on,2,0,3,,,,,,,,6,,,65,92
26064,note_on,528,0,1,,,,,,,,0,,,74,0
26110,note_on,94,0,2,,,,,,,,5,,,74,0
26110,note_on,94,0,4,,,,,,,,7,,,50,0
26110,note_on,94,0,3,,,,,,,,6,,,65,0
26112,note_on,2,0,2,,,,,,,,5,,,70,92
26112,note_on,2,0,3,,,,,,,,6,,,67,92
26112,note_on,2,0,4,,,,,,,,7,,,43,92
26206,note_on,94,0,4,,,,,,,,7,,,43,0
26206,note_on,94,0,3,,,,,,,,6,,,67,0
26208,note_on,2,0,4,,,,,,,,7,,,55,92
26208,note_on,2,0,3,,,,,,,,6,,,62,92
26254,note_on,142,0,2,,,,,,,,5,,,70,0
26256,note_on,2,0,2,,,,,,,,5,,,72,92
26302,note_on,94,0,4,,,,,,,,7,,,55,0
26302,note_on,94,0,3,,,,,,,,6,,,62,0
26302,note_on,46,0,2,,,,,,,,5,,,72,0
26304,note_on,2,0,2,,,,,,,,5,,,70,92
26304,note_on,2,0,3,,,,,,,,6,,,67,92
26304,note_on,2,0,4,,,,,,,,7,,,43,92
26398,note_on,94,0,3,,,,,,,,6,,,67,0
26398,note_on,94,0,2,,,,,,,,5,,,70,0
26398,note_on,94,0,4,,,,,,,,7,,,43,0
26400,note_on,2,0,2,,,,,,,,5,,,70,92
26400,note_on,2,0,4,,,,,,,,7,,,43,92
26400,note_on,2,0,3,,,,,,,,6,,,67,92
26494,note_on,94,0,4,,,,,,,,7,,,43,0
26496,note_on,2,0,4,,,,,,,,7,,,55,92
26542,note_on,142,0,3,,,,,,,,6,,,67,0
26544,note_on,2,0,3,,,,,,,,6,,,69,92
26560,note_on,160,0,2,,,,,,,,5,,,70,0
26590,note_on,94,0,4,,,,,,,,7,,,55,0
26590,note_on,46,0,3,,,,,,,,6,,,69,0
26592,note_on,32,0,2,,,,,,,,5,,,70,92
26592,note_on,2,0,4,,,,,,,,7,,,43,92
26592,note_on,2,0,3,,,,,,,,6,,,67,92
26686,note_on,94,0,2,,,,,,,,5,,,70,0
26686,note_on,94,0,4,,,,,,,,7,,,43,0
26686,note_on,94,0,3,,,,,,,,6,,,67,0
26688,note_on,2,0,3,,,,,,,,6,,,67,92
26688,note_on,2,0,2,,,,,,,,5,,,76,92
26688,note_on,2,0,4,,,,,,,,7,,,48,92
26782,note_on,94,0,4,,,,,,,,7,,,48,0
26784,note_on,2,0,4,,,,,,,,7,,,60,92
26830,note_on,142,0,2,,,,,,,,5,,,76,0
26832,note_on,2,0,2,,,,,,,,5,,,77,92
26848,note_on,160,0,3,,,,,,,,6,,,67,0
26878,note_on,46,0,2,,,,,,,,5,,,77,0
26878,note_on,94,0,4,,,,,,,,7,,,60,0
26880,note_on,2,0,2,,,,,,,,5,,,76,92
26880,note_on,32,0,3,,,,,,,,6,,,72,92
26880,note_on,2,0,4,,,,,,,,7,,,48,92
26974,note_on,94,0,3,,,,,,,,6,,,72,0
26974,note_on,94,0,2,,,,,,,,5,,,76,0
26974,note_on,94,0,4,,,,,,,,7,,,48,0
26976,note_on,2,0,3,,,,,,,,6,,,76,92
26976,note_on,2,0,4,,,,,,,,7,,,48,92
26976,note_on,2,0,2,,,,,,,,5,,,79,92
27070,note_on,94,0,4,,,,,,,,7,,,48,0
27072,note_on,2,0,4,,,,,,,,7,,,60,92
27136,note_on,160,0,3,,,,,,,,6,,,76,0
27136,note_on,160,0,2,,,,,,,,5,,,79,0
27166,note_on,94,0,4,,,,,,,,7,,,60,0
27168,note_on,32,0,3,,,,,,,,6,,,64,92
27168,note_on,2,0,4,,,,,,,,7,,,48,92
27168,note_on,32,0,2,,,,,,,,5,,,70,92
27262,note_on,94,0,4,,,,,,,,7,,,48,0
27262,note_on,94,0,3,,,,,,,,6,,,64,0
27262,note_on,94,0,2,,,,,,,,5,,,70,0
27264,note_on,2,0,4,,,,,,,,7,,,41,92
27264,note_on,2,0,3,,,,,,,,6,,,60,92
27264,note_on,2,0,2,,,,,,,,5,,,72,92
27264,note_on,0,0,3,,,,,,,,6,,,65,92
27286,note_on,22,0,2,,,,,,,,5,,,72,0
27288,note_on,2,0,2,,,,,,,,5,,,70,92
27310,note_on,22,0,2,,,,,,,,5,,,70,0
27312,note_on,2,0,2,,,,,,,,5,,,72,92
27334,note_on,22,0,2,,,,,,,,5,,,72,0
27336,note_on,2,0,2,,,,,,,,5,,,70,92
27358,note_on,22,0,2,,,,,,,,5,,,70,0
27358,note_on,94,0,4,,,,,,,,7,,,41,0
27360,note_on,2,0,4,,,,,,,,7,,,53,92
27360,note_on,2,0,2,,,,,,,,5,,,72,92
27382,note_on,22,0,2,,,,,,,,5,,,72,0
27384,note_on,2,0,2,,,,,,,,5,,,70,92
27406,note_on,22,0,2,,,,,,,,5,,,70,0
27408,note_on,2,0,2,,,,,,,,5,,,72,92
27430,note_on,22,0,2,,,,,,,,5,,,72,0
27432,note_on,2,0,2,,,,,,,,5,,,70,92
27454,note_on,22,0,2,,,,,,,,5,,,70,0
27454,note_on,94,0,4,,,,,,,,7,,,53,0
27456,note_on,2,0,4,,,,,,,,7,,,41,92
27456,note_on,2,0,2,,,,,,,,5,,,69,92
27520,note_on,256,0,3,,,,,,,,6,,,65,0
27550,note_on,94,0,2,,,,,,,,5,,,69,0
27550,note_on,94,0,4,,,,,,,,7,,,41,0
27552,note_on,2,0,4,,,,,,,,7,,,41,92
27552,note_on,2,0,2,,,,,,,,5,,,69,92
27552,note_on,1488,0,1,,,,,,,,0,,,72,108
27646,note_on,94,0,4,,,,,,,,7,,,41,0
27646,note_on,126,0,3,,,,,,,,6,,,60,0
27648,note_on,2,0,4,,,,,,,,7,,,53,92
27648,note_on,2,0,3,,,,,,,,6,,,65,92
27742,note_on,94,0,4,,,,,,,,7,,,53,0
27742,note_on,94,0,3,,,,,,,,6,,,65,0
27744,note_on,2,0,4,,,,,,,,7,,,41,92
27744,note_on,2,0,3,,,,,,,,6,,,64,92
27838,note_on,94,0,3,,,,,,,,6,,,64,0
27838,note_on,94,0,4,,,,,,,,7,,,41,0
27840,note_on,2,0,3,,,,,,,,6,,,62,75
27840,note_on,2,0,4,,,,,,,,7,,,42,75
27934,note_on,382,0,2,,,,,,,,5,,,69,0
27934,note_on,94,0,4,,,,,,,,7,,,42,0
27936,note_on,384,0,1,,,,,,,,0,,,72,0
27936,note_on,0,0,1,,,,,,,,0,,,76,108
27936,note_on,96,0,3,,,,,,,,6,,,72,75
27936,note_on,2,0,4,,,,,,,,7,,,54,75
28030,note_on,94,0,3,,,,,,,,6,,,72,0
28030,note_on,94,0,4,,,,,,,,7,,,54,0
28032,note_on,2,0,4,,,,,,,,7,,,42,75
28032,note_on,96,0,1,,,,,,,,0,,,76,0
28032,note_on,2,0,3,,,,,,,,6,,,71,75
28032,note_on,0,0,1,,,,,,,,0,,,74,108
28126,note_on,94,0,1,,,,,,,,0,,,74,0
28126,note_on,94,0,4,,,,,,,,7,,,42,0
28126,note_on,94,0,3,,,,,,,,6,,,71,0
28128,note_on,2,0,4,,,,,,,,7,,,42,75
28128,note_on,2,0,3,,,,,,,,6,,,69,75
28128,note_on,2,0,1,,,,,,,,0,,,72,108
28222,note_on,94,0,3,,,,,,,,6,,,69,0
28222,note_on,94,0,4,,,,,,,,7,,,42,0
28224,note_on,2,0,3,,,,,,,,6,,,74,75
28224,note_on,96,0,1,,,,,,,,0,,,72,0
28224,note_on,0,0,1,,,,,,,,0,,,71,108
28224,note_on,2,0,4,,,,,,,,7,,,54,75
28318,note_on,94,0,4,,,,,,,,7,,,54,0
28318,note_on,94,0,1,,,,,,,,0,,,71,0
28318,note_on,94,0,3,,,,,,,,6,,,74,0
28320,note_on,2,0,4,,,,,,,,7,,,42,75
28320,note_on,2,0,1,,,,,,,,0,,,69,108
28320,note_on,2,0,3,,,,,,,,6,,,72,75
28384,note_on,64,0,3,,,,,,,,6,,,62,0
28414,note_on,94,0,1,,,,,,,,0,,,69,0
28414,note_on,94,0,4,,,,,,,,7,,,42,0
28414,note_on,30,0,3,,,,,,,,6,,,72,0
28416,note_on,2,0,4,,,,,,,,7,,,43,75
28416,note_on,0,0,3,,,,,,,,6,,,71,75
28416,note_on,2,0,3,,,,,,,,6,,,62,75
28416,note_on,2,0,1,,,,,,,,0,,,71,108
28510,note_on,94,0,3,,,,,,,,6,,,62,0
28510,note_on,0,0,3,,,,,,,,6,,,71,0
28510,note_on,94,0,4,,,,,,,,7,,,43,0
28512,note_on,0,0,3,,,,,,,,6,,,69,75
28512,note_on,2,0,3,,,,,,,,6,,,60,75
28512,note_on,0,0,1,,,,,,,,0,,,69,108
28512,note_on,96,0,1,,,,,,,,0,,,71,0
28512,note_on,2,0,4,,,,,,,,7,,,55,75
28606,note_on,94,0,1,,,,,,,,0,,,69,0
28606,note_on,94,0,3,,,,,,,,6,,,60,0
28606,note_on,0,0,3,,,,,,,,6,,,69,0
28606,note_on,94,0,4,,,,,,,,7,,,55,0
28608,note_on,2,0,1,,,,,,,,0,,,67,108
28608,note_on,2,0,3,,,,,,,,6,,,59,75
28608,note_on,2,0,4,,,,,,,,7,,,43,75
28608,note_on,0,0,3,,,,,,,,6,,,67,75
28702,note_on,94,0,1,,,,,,,,0,,,67,0
28702,note_on,0,0,3,,,,,,,,6,,,67,0
28702,note_on,94,0,4,,,,,,,,7,,,43,0
28702,note_on,94,0,3,,,,,,,,6,,,59,0
28704,note_on,2,0,3,,,,,,,,6,,,62,75
28704,note_on,2,0,1,,,,,,,,0,,,74,108
28704,note_on,0,0,3,,,,,,,,6,,,71,75
28704,note_on,2,0,4,,,,,,,,7,,,43,75
28798,note_on,94,0,3,,,,,,,,6,,,62,0
28798,note_on,94,0,4,,,,,,,,7,,,43,0
28800,note_on,2,0,3,,,,,,,,6,,,67,75
28800,note_on,2,0,4,,,,,,,,7,,,55,75
28864,note_on,64,0,3,,,,,,,,6,,,71,0
28894,note_on,94,0,4,,,,,,,,7,,,55,0
28894,note_on,30,0,3,,,,,,,,6,,,67,0
28896,note_on,2,0,4,,,,,,,,7,,,43,75
28896,note_on,2,0,3,,,,,,,,6,,,69,75
28896,note_on,0,0,3,,,,,,,,6,,,72,75
28990,note_on,94,0,4,,,,,,,,7,,,43,0
28990,note_on,94,0,3,,,,,,,,6,,,69,0
28990,note_on,0,0,3,,,,,,,,6,,,72,0
28992,note_on,2,0,3,,,,,,,,6,,,64,75
28992,note_on,0,0,3,,,,,,,,6,,,71,75
28992,note_on,2,0,4,,,,,,,,7,,,44,75
29086,note_on,94,0,4,,,,,,,,7,,,44,0
29086,note_on,94,0,3,,,,,,,,6,,,71,0
29088,note_on,2,0,4,,,,,,,,7,,,56,75
29088,note_on,384,0,1,,,,,,,,0,,,74,0
29088,note_on,0,0,1,,,,,,,,0,,,77,108
29088,note_on,2,0,3,,,,,,,,6,,,74,75
29182,note_on,94,0,3,,,,,,,,6,,,74,0
29182,note_on,94,0,4,,,,,,,,7,,,56,0
29184,note_on,96,0,1,,,,,,,,0,,,77,0
29184,note_on,2,0,4,,,,,,,,7,,,44,75
29184,note_on,2,0,3,,,,,,,,6,,,72,75
29184,note_on,0,0,1,,,,,,,,0,,,76,108
29278,note_on,94,0,4,,,,,,,,7,,,44,0
29278,note_on,94,0,3,,,,,,,,6,,,72,0
29278,note_on,94,0,1,,,,,,,,0,,,76,0
29280,note_on,2,0,1,,,,,,,,0,,,74,108
29280,note_on,2,0,4,,,,,,,,7,,,44,75
29280,note_on,2,0,3,,,,,,,,6,,,71,75
29374,note_on,94,0,4,,,,,,,,7,,,44,0
29374,note_on,94,0,3,,,,,,,,6,,,71,0
29376,note_on,2,0,3,,,,,,,,6,,,76,75
29376,note_on,2,0,4,,,,,,,,7,,,56,75
29376,note_on,96,0,1,,,,,,,,0,,,74,0
29376,note_on,0,0,1,,,,,,,,0,,,72,108
29470,note_on,94,0,4,,,,,,,,7,,,56,0
29470,note_on,94,0,1,,,,,,,,0,,,72,0
29470,note_on,94,0,3,,,,,,,,6,,,76,0
29472,note_on,2,0,3,,,,,,,,6,,,74,75
29472,note_on,2,0,1,,,,,,,,0,,,71,108
29472,note_on,2,0,4,,,,,,,,7,,,44,75
29536,note_on,64,0,3,,,,,,,,6,,,64,0
29566,note_on,94,0,4,,,,,,,,7,,,44,0
29566,note_on,30,0,3,,,,,,,,6,,,74,0
29566,note_on,94,0,1,,,,,,,,0,,,71,0
29568,note_on,2,0,4,,,,,,,,7,,,45,75
29568,note_on,0,0,3,,,,,,,,6,,,72,75
29568,note_on,2,0,3,,,,,,,,6,,,64,75
29568,note_on,2,0,1,,,,,,,,0,,,72,108
29662,note_on,94,0,4,,,,,,,,7,,,45,0
29662,note_on,0,0,3,,,,,,,,6,,,72,0
29662,note_on,94,0,3,,,,,,,,6,,,64,0
29664,note_on,96,0,1,,,,,,,,0,,,72,0
29664,note_on,0,0,1,,,,,,,,0,,,71,108
29664,note_on,2,0,3,,,,,,,,6,,,62,75
29664,note_on,2,0,4,,,,,,,,7,,,57,75
29664,note_on,0,0,3,,,,,,,,6,,,71,75
29758,note_on,94,0,1,,,,,,,,0,,,71,0
29758,note_on,94,0,4,,,,,,,,7,,,57,0
29758,note_on,94,0,3,,,,,,,,6,,,62,0
29758,note_on,0,0,3,,,,,,,,6,,,71,0
29760,note_on,2,0,3,,,,,,,,6,,,64,75
29760,note_on,0,0,3,,,,,,,,6,,,72,75
29760,note_on,2,0,1,,,,,,,,0,,,69,108
29760,note_on,2,0,4,,,,,,,,7,,,45,75
29854,note_on,94,0,1,,,,,,,,0,,,69,0
29854,note_on,94,0,4,,,,,,,,7,,,45,0
29854,note_on,94,0,3,,,,,,,,6,,,64,0
29854,note_on,0,0,3,,,,,,,,6,,,72,0
29856,note_on,2,0,1,,,,,,,,0,,,74,108
29856,note_on,2,0,3,,,,,,,,6,,,62,75
29856,note_on,2,0,4,,,,,,,,7,,,42,75
29856,note_on,0,0,3,,,,,,,,6,,,69,75
29950,note_on,94,0,4,,,,,,,,7,,,42,0
29950,note_on,94,0,3,,,,,,,,6,,,69,0
29952,note_on,2,0,4,,,,,,,,7,,,54,75
29952,note_on,2,0,3,,,,,,,,6,,,71,75
30016,note_on,64,0,3,,,,,,,,6,,,62,0
30016,note_on,160,0,1,,,,,,,,0,,,74,0
30046,note_on,30,0,3,,,,,,,,6,,,71,0
30046,note_on,94,0,4,,,,,,,,7,,,54,0
30048,note_on,2,0,3,,,,,,,,6,,,69,75
30048,note_on,0,0,3,,,,,,,,6,,,72,75
30048,note_on,2,0,4,,,,,,,,7,,,42,75
30048,note_on,32,0,1,,,,,,,,0,,,72,108
30142,note_on,94,0,1,,,,,,,,0,,,72,0
30142,note_on,94,0,3,,,,,,,,6,,,69,0
30142,note_on,0,0,3,,,,,,,,6,,,72,0
30142,note_on,94,0,4,,,,,,,,7,,,42,0
30144,note_on,2,0,4,,,,,,,,7,,,43,75
30144,note_on,2,0,1,,,,,,,,0,,,71,108
30144,note_on,0,0,3,,,,,,,,6,,,71,75
30144,note_on,2,0,3,,,,,,,,6,,,67,75
30238,note_on,94,0,4,,,,,,,,7,,,43,0
30238,note_on,94,0,3,,,,,,,,6,,,67,0
30240,note_on,2,0,4,,,,,,,,7,,,55,75
30240,note_on,2,0,3,,,,,,,,6,,,62,75
30304,note_on,64,0,3,,,,,,,,6,,,71,0
30334,note_on,94,0,4,,,,,,,,7,,,55,0
30336,note_on,0,0,1,,,,,,,,0,,,69,108
30336,note_on,2,0,4,,,,,,,,7,,,43,75
30336,note_on,192,0,1,,,,,,,,0,,,71,0
30336,note_on,32,0,3,,,,,,,,6,,,72,75
30430,note_on,94,0,1,,,,,,,,0,,,69,0
30430,note_on,94,0,3,,,,,,,,6,,,72,0
30430,note_on,94,0,4,,,,,,,,7,,,43,0
30432,note_on,2498,0,2,,,,,,,,5,,,74,92
30432,note_on,2,0,4,,,,,,,,7,,,43,92
30432,note_on,2,0,3,,,,,,,,6,,,71,92
30432,note_on,2,0,1,,,,,,,,0,,,67,108
30526,note_on,94,0,4,,,,,,,,7,,,43,0
30528,note_on,2,0,4,,,,,,,,7,,,55,92
30592,note_on,160,0,2,,,,,,,,5,,,74,0
30592,note_on,160,0,3,,,,,,,,6,,,71,0
30622,note_on,94,0,4,,,,,,,,7,,,55,0
30624,note_on,2,0,4,,,,,,,,7,,,43,92
30624,note_on,32,0,2,,,,,,,,5,,,72,92
30624,note_on,32,0,3,,,,,,,,6,,,69,92
30688,note_on,256,0,1,,,,,,,,0,,,67,0
30688,note_on,64,0,3,,,,,,,,6,,,62,0
30718,note_on,94,0,4,,,,,,,,7,,,43,0
30718,note_on,30,0,3,,,,,,,,6,,,69,0
30718,note_on,94,0,2,,,,,,,,5,,,72,0
30720,note_on,2,0,4,,,,,,,,7,,,43,92
30720,note_on,2,0,2,,,,,,,,5,,,71,92
30720,note_on,2,0,3,,,,,,,,6,,,62,92
30814,note_on,94,0,4,,,,,,,,7,,,43,0
30814,note_on,94,0,2,,,,,,,,5,,,71,0
30814,note_on,94,0,3,,,,,,,,6,,,62,0
30816,note_on,2,0,2,,,,,,,,5,,,69,92
30816,note_on,2,0,4,,,,,,,,7,,,55,92
30816,note_on,2,0,3,,,,,,,,6,,,60,92
30910,note_on,94,0,2,,,,,,,,5,,,69,0
30910,note_on,94,0,3,,,,,,,,6,,,60,0
30910,note_on,94,0,4,,,,,,,,7,,,55,0
30912,note_on,2,0,4,,,,,,,,7,,,43,92
30912,note_on,2,0,2,,,,,,,,5,,,67,92
30912,note_on,2,0,3,,,,,,,,6,,,59,92
31006,note_on,94,0,4,,,,,,,,7,,,43,0
31006,note_on,94,0,2,,,,,,,,5,,,67,0
31006,note_on,94,0,3,,,,,,,,6,,,59,0
31008,note_on,2,0,2,,,,,,,,5,,,74,75
31008,note_on,2,0,3,,,,,,,,6,,,71,75
31008,note_on,320,0,1,,,,,,,,0,,,71,92
31008,note_on,2,0,4,,,,,,,,7,,,43,75
31102,note_on,94,0,4,,,,,,,,7,,,43,0
31104,note_on,2,0,4,,,,,,,,7,,,55,75
31168,note_on,160,0,1,,,,,,,,0,,,71,0
31168,note_on,160,0,2,,,,,,,,5,,,74,0
31168,note_on,160,0,3,,,,,,,,6,,,71,0
31198,note_on,94,0,4,,,,,,,,7,,,55,0
31200,note_on,32,0,1,,,,,,,,0,,,72,92
31200,note_on,2,0,4,,,,,,,,7,,,43,75
31200,note_on,32,0,2,,,,,,,,5,,,76,75
31200,note_on,32,0,3,,,,,,,,6,,,72,75
31294,note_on,94,0,3,,,,,,,,6,,,72,0
31294,note_on,94,0,2,,,,,,,,5,,,76,0
31294,note_on,94,0,1,,,,,,,,0,,,72,0
31294,note_on,94,0,4,,,,,,,,7,,,43,0
31296,note_on,2,0,3,,,,,,,,6,,,72,75
31296,note_on,2,0,1,,,,,,,,0,,,72,92
31296,note_on,2,0,2,,,,,,,,5,,,77,75
31296,note_on,2,0,4,,,,,,,,7,,,43,75
31318,note_on,22,0,2,,,,,,,,5,,,77,0
31320,note_on,2,0,2,,,,,,,,5,,,76,75
31342,note_on,22,0,2,,,,,,,,5,,,76,0
31344,note_on,2,0,2,,,,,,,,5,,,77,75
31366,note_on,22,0,2,,,,,,,,5,,,77,0
31368,note_on,2,0,2,,,,,,,,5,,,76,75
31390,note_on,94,0,4,,,,,,,,7,,,43,0
31390,note_on,22,0,2,,,,,,,,5,,,76,0
31392,note_on,2,0,2,,,,,,,,5,,,77,75
31392,note_on,2,0,4,,,,,,,,7,,,55,75
31414,note_on,22,0,2,,,,,,,,5,,,77,0
31416,note_on,2,0,2,,,,,,,,5,,,76,75
31438,note_on,22,0,2,,,,,,,,5,,,76,0
31440,note_on,2,0,2,,,,,,,,5,,,77,75
31456,note_on,160,0,1,,,,,,,,0,,,72,0
31456,note_on,160,0,3,,,,,,,,6,,,72,0
31462,note_on,22,0,2,,,,,,,,5,,,77,0
31464,note_on,2,0,2,,,,,,,,5,,,76,75
31486,note_on,22,0,2,,,,,,,,5,,,76,0
31486,note_on,94,0,4,,,,,,,,7,,,55,0
31488,note_on,32,0,1,,,,,,,,0,,,71,92
31488,note_on,32,0,3,,,,,,,,6,,,71,75
31488,note_on,2,0,4,,,,,,,,7,,,43,75
31488,note_on,2,0,2,,,,,,,,5,,,74,75
31582,note_on,94,0,1,,,,,,,,0,,,71,0
31582,note_on,94,0,3,,,,,,,,6,,,71,0
31582,note_on,94,0,2,,,,,,,,5,,,74,0
31582,note_on,94,0,4,,,,,,,,7,,,43,0
31584,note_on,2,0,2,,,,,,,,5,,,71,75
31584,note_on,2,0,3,,,,,,,,6,,,67,75
31584,note_on,2,0,4,,,,,,,,7,,,43,75
31584,note_on,2,0,1,,,,,,,,0,,,74,92
31678,note_on,94,0,4,,,,,,,,7,,,43,0
31680,note_on,2,0,4,,,,,,,,7,,,55,75
31744,note_on,160,0,1,,,,,,,,0,,,74,0
31744,note_on,160,0,2,,,,,,,,5,,,71,0
31774,note_on,94,0,4,,,,,,,,7,,,55,0
31776,note_on,2,0,4,,,,,,,,7,,,43,75
31776,note_on,32,0,1,,,,,,,,0,,,76,92
31776,note_on,32,0,2,,,,,,,,5,,,72,75
31840,note_on,256,0,3,,,,,,,,6,,,67,0
31870,note_on,94,0,2,,,,,,,,5,,,72,0
31870,note_on,94,0,1,,,,,,,,0,,,76,0
31870,note_on,94,0,4,,,,,,,,7,,,43,0
31872,note_on,2,0,4,,,,,,,,7,,,43,75
31872,note_on,2,0,2,,,,,,,,5,,,74,75
31872,note_on,32,0,3,,,,,,,,6,,,67,75
31872,note_on,2,0,1,,,,,,,,0,,,76,92
31894,note_on,22,0,2,,,,,,,,5,,,74,0
31896,note_on,2,0,2,,,,,,,,5,,,72,75
31918,note_on,22,0,2,,,,,,,,5,,,72,0
31920,note_on,2,0,2,,,,,,,,5,,,74,75
31942,note_on,22,0,2,,,,,,,,5,,,74,0
31944,note_on,2,0,2,,,,,,,,5,,,72,75
31966,note_on,22,0,2,,,,,,,,5,,,72,0
31966,note_on,94,0,4,,,,,,,,7,,,43,0
31968,note_on,2,0,4,,,,,,,,7,,,55,75
31968,note_on,2,0,2,,,,,,,,5,,,74,75
31990,note_on,22,0,2,,,,,,,,5,,,74,0
31992,note_on,2,0,2,,,,,,,,5,,,72,75
32014,note_on,22,0,2,,,,,,,,5,,,72,0
32016,note_on,2,0,2,,,,,,,,5,,,74,75
32032,note_on,160,0,1,,,,,,,,0,,,76,0
32038,note_on,22,0,2,,,,,,,,5,,,74,0
32040,note_on,2,0,2,,,,,,,,5,,,72,75
32062,note_on,22,0,2,,,,,,,,5,,,72,0
32062,note_on,94,0,4,,,,,,,,7,,,55,0
32064,note_on,2,0,2,,,,,,,,5,,,71,75
32064,note_on,32,0,1,,,,,,,,0,,,74,92
32064,note_on,2,0,4,,,,,,,,7,,,43,75
32128,note_on,256,0,3,,,,,,,,6,,,67,0
32158,note_on,94,0,2,,,,,,,,5,,,71,0
32158,note_on,94,0,1,,,,,,,,0,,,74,0
32158,note_on,94,0,4,,,,,,,,7,,,43,0
32160,note_on,0,0,3,,,,,,,,6,,,74,75
32160,note_on,32,0,3,,,,,,,,6,,,71,75
32160,note_on,2,0,4,,,,,,,,7,,,43,75
32254,note_on,0,0,3,,,,,,,,6,,,74,0
32254,note_on,94,0,3,,,,,,,,6,,,71,0
32254,note_on,94,0,4,,,,,,,,7,,,43,0
32256,note_on,0,0,3,,,,,,,,6,,,71,75
32256,note_on,2,0,3,,,,,,,,6,,,67,75
32256,note_on,2,0,4,,,,,,,,7,,,55,75
32350,note_on,0,0,3,,,,,,,,6,,,71,0
32350,note_on,94,0,4,,,,,,,,7,,,55,0
32350,note_on,94,0,3,,,,,,,,6,,,67,0
32352,note_on,2,0,4,,,,,,,,7,,,43,75
32352,note_on,2,0,3,,,,,,,,6,,,69,75
32352,note_on,0,0,3,,,,,,,,6,,,72,75
32446,note_on,94,0,4,,,,,,,,7,,,43,0
32446,note_on,0,0,3,,,,,,,,6,,,72,0
32446,note_on,94,0,3,,,,,,,,6,,,69,0
32448,note_on,290,0,2,,,,,,,,5,,,74,60
32448,note_on,2,0,3,,,,,,,,6,,,71,60
32448,note_on,2,0,4,,,,,,,,7,,,43,60
32448,note_on,290,0,1,,,,,,,,0,,,71,75
32542,note_on,94,0,4,,,,,,,,7,,,43,0
32544,note_on,96,0,2,,,,,,,,5,,,74,0
32544,note_on,2,0,4,,,,,,,,7,,,55,60
32544,note_on,0,0,1,,,,,,,,0,,,74,75
32544,note_on,0,0,2,,,,,,,,5,,,77,60
32544,note_on,96,0,1,,,,,,,,0,,,71,0
32608,note_on,160,0,3,,,,,,,,6,,,71,0
32638,note_on,94,0,4,,,,,,,,7,,,55,0
32640,note_on,32,0,3,,,,,,,,6,,,72,60
32640,note_on,0,0,2,,,,,,,,5,,,76,60
32640,note_on,2,0,4,,,,,,,,7,,,43,60
32640,note_on,0,0,1,,,,,,,,0,,,72,75
32640,note_on,96,0,1,,,,,,,,0,,,74,0
32640,note_on,96,0,2,,,,,,,,5,,,77,0
32734,note_on,94,0,3,,,,,,,,6,,,72,0
32734,note_on,94,0,4,,,,,,,,7,,,43,0
32736,note_on,96,0,2,,,,,,,,5,,,76,0
32736,note_on,0,0,1,,,,,,,,0,,,71,75
32736,note_on,96,0,1,,,,,,,,0,,,72,0
32736,note_on,2,0,3,,,,,,,,6,,,71,60
32736,note_on,2,0,4,,,,,,,,7,,,43,60
32736,note_on,0,0,2,,,,,,,,5,,,74,60
32830,note_on,94,0,3,,,,,,,,6,,,71,0
32830,note_on,94,0,4,,,,,,,,7,,,43,0
32832,note_on,2,0,3,,,,,,,,6,,,69,60
32832,note_on,2,0,4,,,,,,,,7,,,55,60
32832,note_on,0,0,2,,,,,,,,5,,,72,60
32832,note_on,96,0,2,,,,,,,,5,,,74,0
32832,note_on,96,0,1,,,,,,,,0,,,71,0
32832,note_on,0,0,1,,,,,,,,0,,,69,75
32926,note_on,94,0,3,,,,,,,,6,,,69,0
32926,note_on,94,0,4,,,,,,,,7,,,55,0
32928,note_on,96,0,2,,,,,,,,5,,,72,0
32928,note_on,96,0,1,,,,,,,,0,,,69,0
32928,note_on,0,0,1,,,,,,,,0,,,67,75
32928,note_on,0,0,2,,,,,,,,5,,,71,60
32928,note_on,2,0,3,,,,,,,,6,,,67,60
32928,note_on,2,0,4,,,,,,,,7,,,43,60
33022,note_on,94,0,4,,,,,,,,7,,,43,0
33022,note_on,94,0,3,,,,,,,,6,,,67,0
33022,note_on,94,0,2,,,,,,,,5,,,71,0
33024,note_on,0,0,3,,,,,,,,6,,,72,60
33024,note_on,2,0,3,,,,,,,,6,,,67,60
33024,note_on,0,0,1,,,,,,,,0,,,72,75
33024,note_on,2,0,2,,,,,,,,5,,,76,60
33024,note_on,96,0,1,,,,,,,,0,,,67,0
33024,note_on,2,0,4,,,,,,,,7,,,43,60
33118,note_on,94,0,4,,,,,,,,7,,,43,0
33120,note_on,0,0,2,,,,,,,,5,,,79,60
33120,note_on,96,0,2,,,,,,,,5,,,76,0
33120,note_on,96,0,1,,,,,,,,0,,,72,0
33120,note_on,0,0,1,,,,,,,,0,,,76,75
33120,note_on,2,0,4,,,,,,,,7,,,55,60
33184,note_on,0,0,3,,,,,,,,6,,,72,0
33184,note_on,160,0,3,,,,,,,,6,,,67,0
33214,note_on,94,0,4,,,,,,,,7,,,55,0
33216,note_on,32,0,3,,,,,,,,6,,,71,60
33216,note_on,0,0,1,,,,,,,,0,,,74,75
33216,note_on,96,0,1,,,,,,,,0,,,76,0
33216,note_on,2,0,4,,,,,,,,7,,,43,60
33216,note_on,0,0,2,,,,,,,,5,,,77,60
33216,note_on,96,0,2,,,,,,,,5,,,79,0
33310,note_on,94,0,4,,,,,,,,7,,,43,0
33310,note_on,94,0,3,,,,,,,,6,,,71,0
33312,note_on,0,0,1,,,,,,,,0,,,72,75
33312,note_on,96,0,1,,,,,,,,0,,,74,0
33312,note_on,96,0,2,,,,,,,,5,,,77,0
33312,note_on,0,0,2,,,,,,,,5,,,76,60
33312,note_on,2,0,3,,,,,,,,6,,,72,60
33312,note_on,2,0,4,,,,,,,,7,,,43,60
33406,note_on,94,0,3,,,,,,,,6,,,72,0
33406,note_on,94,0,4,,,,,,,,7,,,43,0
33408,note_on,96,0,1,,,,,,,,0,,,72,0
33408,note_on,0,0,1,,,,,,,,0,,,74,75
33408,note_on,0,0,2,,,,,,,,5,,,74,60
33408,note_on,96,0,2,,,,,,,,5,,,76,0
33408,note_on,2,0,3,,,,,,,,6,,,71,60
33408,note_on,2,0,4,,,,,,,,7,,,55,60
33502,note_on,94,0,4,,,,,,,,7,,,55,0
33502,note_on,94,0,3,,,,,,,,6,,,71,0
33504,note_on,2,0,4,,,,,,,,7,,,43,60
33504,note_on,0,0,2,,,,,,,,5,,,72,60
33504,note_on,96,0,2,,,,,,,,5,,,74,0
33504,note_on,0,0,1,,,,,,,,0,,,76,75
33504,note_on,96,0,1,,,,,,,,0,,,74,0
33504,note_on,2,0,3,,,,,,,,6,,,72,60
33598,note_on,94,0,3,,,,,,,,6,,,72,0
33598,note_on,94,0,2,,,,,,,,5,,,72,0
33598,note_on,94,0,4,,,,,,,,7,,,43,0
33600,note_on,2,0,4,,,,,,,,7,,,43,60
33600,note_on,0,0,1,,,,,,,,0,,,71,75
33600,note_on,2,0,3,,,,,,,,6,,,71,60
33600,note_on,2,0,2,,,,,,,,5,,,74,60
33600,note_on,96,0,1,,,,,,,,0,,,76,0
33694,note_on,94,0,4,,,,,,,,7,,,43,0
33696,note_on,2,0,4,,,,,,,,7,,,55,60
33696,note_on,96,0,1,,,,,,,,0,,,71,0
33696,note_on,0,0,1,,,,,,,,0,,,74,75
33696,note_on,96,0,2,,,,,,,,5,,,74,0
33696,note_on,0,0,2,,,,,,,,5,,,77,60
33760,note_on,160,0,3,,,,,,,,6,,,71,0
33790,note_on,94,0,4,,,,,,,,7,,,55,0
33792,note_on,96,0,1,,,,,,,,0,,,74,0
33792,note_on,32,0,3,,,,,,,,6,,,72,60
33792,note_on,96,0,2,,,,,,,,5,,,77,0
33792,note_on,0,0,2,,,,,,,,5,,,76,60
33792,note_on,0,0,1,,,,,,,,0,,,72,75
33792,note_on,2,0,4,,,,,,,,7,,,43,60
33886,note_on,94,0,4,,,,,,,,7,,,43,0
33886,note_on,94,0,3,,,,,,,,6,,,72,0
33888,note_on,0,0,1,,,,,,,,0,,,71,75
33888,note_on,96,0,2,,,,,,,,5,,,76,0
33888,note_on,0,0,2,,,,,,,,5,,,74,60
33888,note_on,2,0,4,,,,,,,,7,,,43,60
33888,note_on,2,0,3,,,,,,,,6,,,71,60
33888,note_on,96,0,1,,,,,,,,0,,,72,0
33982,note_on,94,0,3,,,,,,,,6,,,71,0
33982,note_on,94,0,4,,,,,,,,7,,,43,0
33984,note_on,0,0,2,,,,,,,,5,,,72,60
33984,note_on,96,0,2,,,,,,,,5,,,74,0
33984,note_on,96,0,1,,,,,,,,0,,,71,0
33984,note_on,0,0,1,,,,,,,,0,,,69,75
33984,note_on,2,0,3,,,,,,,,6,,,69,60
33984,note_on,2,0,4,,,,,,,,7,,,55,60
34078,note_on,94,0,3,,,,,,,,6,,,69,0
34078,note_on,94,0,4,,,,,,,,7,,,55,0
34080,note_on,0,0,2,,,,,,,,5,,,71,60
34080,note_on,96,0,2,,,,,,,,5,,,72,0
34080,note_on,2,0,4,,,,,,,,7,,,43,60
34080,note_on,0,0,1,,,,,,,,0,,,67,75
34080,note_on,96,0,1,,,,,,,,0,,,69,0
34080,note_on,2,0,3,,,,,,,,6,,,67,60
34174,note_on,94,0,3,,,,,,,,6,,,67,0
34174,note_on,94,0,2,,,,,,,,5,,,71,0
34174,note_on,94,0,4,,,,,,,,7,,,43,0
34176,note_on,96,0,1,,,,,,,,0,,,67,0
34176,note_on,0,0,1,,,,,,,,0,,,72,75
34176,note_on,0,0,3,,,,,,,,6,,,72,60
34176,note_on,2,0,3,,,,,,,,6,,,67,60
34176,note_on,2,0,2,,,,,,,,5,,,76,60
34176,note_on,2,0,4,,,,,,,,7,,,43,60
34270,note_on,94,0,4,,,,,,,,7,,,43,0
34272,note_on,2,0,4,,,,,,,,7,,,55,60
34272,note_on,96,0,2,,,,,,,,5,,,76,0
34272,note_on,0,0,1,,,,,,,,0,,,76,75
34272,note_on,96,0,1,,,,,,,,0,,,72,0
34272,note_on,0,0,2,,,,,,,,5,,,79,60
34336,note_on,160,0,3,,,,,,,,6,,,67,0
34336,note_on,0,0,3,,,,,,,,6,,,72,0
34366,note_on,94,0,4,,,,,,,,7,,,55,0
34368,note_on,2,0,4,,,,,,,,7,,,43,60
34368,note_on,0,0,1,,,,,,,,0,,,74,75
34368,note_on,96,0,2,,,,,,,,5,,,79,0
34368,note_on,32,0,3,,,,,,,,6,,,71,60
34368,note_on,0,0,2,,,,,,,,5,,,77,60
34368,note_on,96,0,1,,,,,,,,0,,,76,0
34462,note_on,94,0,4,,,,,,,,7,,,43,0
34462,note_on,94,0,3,,,,,,,,6,,,71,0
34464,note_on,96,0,1,,,,,,,,0,,,74,0
34464,note_on,2,0,4,,,,,,,,7,,,43,60
34464,note_on,96,0,2,,,,,,,,5,,,77,0
34464,note_on,0,0,2,,,,,,,,5,,,76,60
34464,note_on,0,0,1,,,,,,,,0,,,72,75
34464,note_on,2,0,3,,,,,,,,6,,,72,60
34558,note_on,94,0,4,,,,,,,,7,,,43,0
34558,note_on,94,0,3,,,,,,,,6,,,72,0
34560,note_on,2,0,3,,,,,,,,6,,,71,60
34560,note_on,2,0,4,,,,,,,,7,,,55,60
34560,note_on,96,0,1,,,,,,,,0,,,72,0
34560,note_on,0,0,1,,,,,,,,0,,,74,75
34560,note_on,0,0,2,,,,,,,,5,,,74,60
34560,note_on,96,0,2,,,,,,,,5,,,76,0
34654,note_on,94,0,4,,,,,,,,7,,,55,0
34654,note_on,94,0,3,,,,,,,,6,,,71,0
34656,note_on,2,0,4,,,,,,,,7,,,43,60
34656,note_on,96,0,2,,,,,,,,5,,,74,0
34656,note_on,0,0,2,,,,,,,,5,,,72,60
34656,note_on,96,0,1,,,,,,,,0,,,74,0
34656,note_on,0,0,1,,,,,,,,0,,,76,75
34656,note_on,2,0,3,,,,,,,,6,,,72,60
34750,note_on,94,0,3,,,,,,,,6,,,72,0
34750,note_on,94,0,2,,,,,,,,5,,,72,0
34750,note_on,94,0,4,,,,,,,,7,,,43,0
34752,note_on,2,0,3,,,,,,,,6,,,71,60
34752,note_on,2,0,2,,,,,,,,5,,,74,60
34752,note_on,0,0,1,,,,,,,,0,,,71,75
34752,note_on,2,0,4,,,,,,,,7,,,43,60
34752,note_on,96,0,1,,,,,,,,0,,,76,0
34846,note_on,94,0,4,,,,,,,,7,,,43,0
34848,note_on,2,0,4,,,,,,,,7,,,55,60
34848,note_on,96,0,1,,,,,,,,0,,,71,0
34848,note_on,0,0,1,,,,,,,,0,,,69,75
34894,note_on,142,0,3,,,,,,,,6,,,71,0
34896,note_on,2,0,3,,,,,,,,6,,,69,60
34942,note_on,94,0,1,,,,,,,,0,,,69,0
34942,note_on,46,0,3,,,,,,,,6,,,69,0
34942,note_on,94,0,4,,,,,,,,7,,,55,0
34944,note_on,2,0,4,,,,,,,,7,,,43,60
34944,note_on,2,0,1,,,,,,,,0,,,67,75
34944,note_on,2,0,3,,,,,,,,6,,,71,60
35008,note_on,256,0,2,,,,,,,,5,,,74,0
35038,note_on,94,0,1,,,,,,,,0,,,67,0
35038,note_on,94,0,4,,,,,,,,7,,,43,0
35038,note_on,94,0,3,,,,,,,,6,,,71,0
35040,note_on,2,0,4,,,,,,,,7,,,43,60
35040,note_on,2,0,3,,,,,,,,6,,,71,60
35040,note_on,0,0,3,,,,,,,,6,,,74,60
35134,note_on,94,0,4,,,,,,,,7,,,43,0
35136,note_on,2,0,4,,,,,,,,7,,,55,60
35182,note_on,0,0,3,,,,,,,,6,,,74,0
35182,note_on,142,0,3,,,,,,,,6,,,71,0
35184,note_on,0,0,3,,,,,,,,6,,,72,60
35184,note_on,2,0,3,,,,,,,,6,,,69,60
35230,note_on,94,0,4,,,,,,,,7,,,55,0
35230,note_on,46,0,3,,,,,,,,6,,,69,0
35230,note_on,0,0,3,,,,,,,,6,,,72,0
35232,note_on,2,0,4,,,,,,,,7,,,43,60
35232,note_on,2,0,3,,,,,,,,6,,,67,60
35232,note_on,0,0,3,,,,,,,,6,,,71,60
35232,note_on,194,0,1,,,,,,,,0,,,77,75
35232,note_on,224,0,2,,,,,,,,5,,,74,60
35326,note_on,94,0,1,,,,,,,,0,,,77,0
35326,note_on,94,0,2,,,,,,,,5,,,74,0
35326,note_on,94,0,4,,,,,,,,7,,,43,0
35326,note_on,94,0,3,,,,,,,,6,,,67,0
35326,note_on,0,0,3,,,,,,,,6,,,71,0
35328,note_on,2,0,1,,,,,,,,0,,,76,75
35328,note_on,2,0,3,,,,,,,,6,,,64,60
35328,note_on,2,0,2,,,,,,,,5,,,72,60
35328,note_on,2,0,4,,,,,,,,7,,,48,60
35422,note_on,94,0,2,,,,,,,,5,,,72,0
35422,note_on,94,0,4,,,,,,,,7,,,48,0
35422,note_on,94,0,3,,,,,,,,6,,,64,0
35424,note_on,2,0,2,,,,,,,,5,,,74,60
35424,note_on,2,0,3,,,,,,,,6,,,65,60
35424,note_on,0,0,1,,,,,,,,0,,,74,75
35424,note_on,2,0,4,,,,,,,,7,,,60,60
35424,note_on,96,0,1,,,,,,,,0,,,76,0
35518,note_on,94,0,1,,,,,,,,0,,,74,0
35518,note_on,94,0,4,,,,,,,,7,,,60,0
35518,note_on,94,0,2,,,,,,,,5,,,74,0
35518,note_on,94,0,3,,,,,,,,6,,,65,0
35520,note_on,2,0,1,,,,,,,,0,,,72,75
35520,note_on,2,0,3,,,,,,,,6,,,67,60
35520,note_on,2,0,4,,,,,,,,7,,,48,60
35520,note_on,2,0,2,,,,,,,,5,,,76,60
35614,note_on,94,0,2,,,,,,,,5,,,76,0
35614,note_on,94,0,3,,,,,,,,6,,,67,0
35614,note_on,94,0,4,,,,,,,,7,,,48,0
35614,note_on,94,0,1,,,,,,,,0,,,72,0
35616,note_on,2,0,2,,,,,,,,5,,,71,60
35616,note_on,2,0,4,,,,,,,,7,,,43,60
35616,note_on,2,0,3,,,,,,,,6,,,62,60
35616,note_on,2,0,1,,,,,,,,0,,,76,75
35648,note_on,0,0,1,,,,,,,,0,,,74,75
35648,note_on,32,0,1,,,,,,,,0,,,76,0
35680,note_on,32,0,1,,,,,,,,0,,,74,0
35680,note_on,0,0,1,,,,,,,,0,,,76,75
35710,note_on,94,0,4,,,,,,,,7,,,43,0
35712,note_on,32,0,1,,,,,,,,0,,,76,0
35712,note_on,0,0,1,,,,,,,,0,,,74,75
35712,note_on,2,0,4,,,,,,,,7,,,55,60
35776,note_on,160,0,2,,,,,,,,5,,,71,0
35776,note_on,160,0,3,,,,,,,,6,,,62,0
35806,note_on,94,0,1,,,,,,,,0,,,74,0
35806,note_on,94,0,4,,,,,,,,7,,,55,0
35808,note_on,32,0,3,,,,,,,,6,,,65,60
35808,note_on,32,0,2,,,,,,,,5,,,72,60
35808,note_on,2,0,1,,,,,,,,0,,,72,75
35808,note_on,2,0,4,,,,,,,,7,,,43,60
35902,note_on,94,0,2,,,,,,,,5,,,72,0
35902,note_on,94,0,3,,,,,,,,6,,,65,0
35902,note_on,94,0,1,,,,,,,,0,,,72,0
35902,note_on,94,0,4,,,,,,,,7,,,43,0
35904,note_on,2,0,4,,,,,,,,7,,,48,75
35904,note_on,2,0,2,,,,,,,,5,,,72,75
35904,note_on,2,0,3,,,,,,,,6,,,64,75
35904,note_on,2,0,1,,,,,,,,0,,,72,75
35998,note_on,94,0,4,,,,,,,,7,,,48,0
35998,note_on,94,0,2,,,,,,,,5,,,72,0
36000,note_on,2,0,4,,,,,,,,7,,,60,75
36000,note_on,2,0,2,,,,,,,,5,,,79,75
36064,note_on,160,0,3,,,,,,,,6,,,64,0
36094,note_on,94,0,2,,,,,,,,5,,,79,0
36094,note_on,94,0,4,,,,,,,,7,,,60,0
36096,note_on,2,0,2,,,,,,,,5,,,77,75
36096,note_on,32,0,3,,,,,,,,6,,,71,75
36096,note_on,2,0,4,,,,,,,,7,,,48,75
36190,note_on,94,0,4,,,,,,,,7,,,48,0
36190,note_on,94,0,2,,,,,,,,5,,,77,0
36190,note_on,94,0,3,,,,,,,,6,,,71,0
36192,note_on,2,0,2,,,,,,,,5,,,76,75
36192,note_on,2,0,3,,,,,,,,6,,,72,75
36192,note_on,2,0,4,,,,,,,,7,,,48,75
36286,note_on,94,0,2,,,,,,,,5,,,76,0
36286,note_on,94,0,3,,,,,,,,6,,,72,0
36286,note_on,94,0,4,,,,,,,,7,,,48,0
36288,note_on,2,0,3,,,,,,,,6,,,65,75
36288,note_on,2,0,2,,,,,,,,5,,,74,75
36288,note_on,2,0,4,,,,,,,,7,,,60,75
36382,note_on,94,0,2,,,,,,,,5,,,74,0
36382,note_on,94,0,4,,,,,,,,7,,,60,0
36382,note_on,94,0,3,,,,,,,,6,,,65,0
36384,note_on,2,0,2,,,,,,,,5,,,72,75
36384,note_on,2,0,4,,,,,,,,7,,,48,75
36384,note_on,2,0,3,,,,,,,,6,,,64,75
36432,note_on,528,0,1,,,,,,,,0,,,72,0
36478,note_on,94,0,2,,,,,,,,5,,,72,0
36478,note_on,94,0,4,,,,,,,,7,,,48,0
36478,note_on,94,0,3,,,,,,,,6,,,64,0
36480,note_on,2,0,2,,,,,,,,5,,,71,75
36480,note_on,2,0,4,,,,,,,,7,,,43,75
36480,note_on,2,0,3,,,,,,,,6,,,62,75
36574,note_on,94,0,3,,,,,,,,6,,,62,0
36574,note_on,94,0,4,,,,,,,,7,,,43,0
36574,note_on,94,0,2,,,,,,,,5,,,71,0
36576,note_on,2,0,3,,,,,,,,6,,,71,75
36576,note_on,2,0,4,,,,,,,,7,,,55,75
36576,note_on,2,0,2,,,,,,,,5,,,74,75
36670,note_on,94,0,2,,,,,,,,5,,,74,0
36670,note_on,94,0,4,,,,,,,,7,,,55,0
36670,note_on,94,0,3,,,,,,,,6,,,71,0
36672,note_on,2,0,3,,,,,,,,6,,,69,75
36672,note_on,2,0,2,,,,,,,,5,,,72,75
36672,note_on,2,0,4,,,,,,,,7,,,43,75
36766,note_on,94,0,3,,,,,,,,6,,,69,0
36766,note_on,94,0,4,,,,,,,,7,,,43,0
36766,note_on,94,0,2,,,,,,,,5,,,72,0
36768,note_on,2,0,3,,,,,,,,6,,,67,75
36768,note_on,2,0,4,,,,,,,,7,,,43,75
36768,note_on,2,0,2,,,,,,,,5,,,71,75
36862,note_on,94,0,4,,,,,,,,7,,,43,0
36862,note_on,94,0,2,,,,,,,,5,,,71,0
36864,note_on,2,0,4,,,,,,,,7,,,55,75
36864,note_on,2,0,2,,,,,,,,5,,,69,75
36928,note_on,160,0,3,,,,,,,,6,,,67,0
36958,note_on,94,0,4,,,,,,,,7,,,55,0
36958,note_on,94,0,2,,,,,,,,5,,,69,0
36960,note_on,2,0,2,,,,,,,,5,,,67,75
36960,note_on,2,0,4,,,,,,,,7,,,43,75
36960,note_on,32,0,3,,,,,,,,6,,,65,75
37054,note_on,94,0,4,,,,,,,,7,,,43,0
37054,note_on,94,0,2,,,,,,,,5,,,67,0
37054,note_on,94,0,3,,,,,,,,6,,,65,0
37056,note_on,2,0,2,,,,,,,,5,,,76,60
37056,note_on,0,0,3,,,,,,,,6,,,67,60
37056,note_on,2,0,3,,,,,,,,6,,,64,60
37056,note_on,624,0,1,,,,,,,,0,,,67,75
37056,note_on,2,0,4,,,,,,,,7,,,48,60
37150,note_on,0,0,3,,,,,,,,6,,,67,0
37150,note_on,94,0,3,,,,,,,,6,,,64,0
37150,note_on,94,0,4,,,,,,,,7,,,48,0
37150,note_on,94,0,2,,,,,,,,5,,,76,0
37152,note_on,2,0,4,,,,,,,,7,,,60,60
37152,note_on,2,0,3,,,,,,,,6,,,65,60
37152,note_on,2,0,2,,,,,,,,5,,,74,60
37246,note_on,94,0,2,,,,,,,,5,,,74,0
37246,note_on,94,0,3,,,,,,,,6,,,65,0
37246,note_on,94,0,4,,,,,,,,7,,,60,0
37248,note_on,2,0,4,,,,,,,,7,,,48,60
37248,note_on,2,0,2,,,,,,,,5,,,72,60
37248,note_on,2,0,3,,,,,,,,6,,,64,60
37342,note_on,94,0,3,,,,,,,,6,,,64,0
37342,note_on,94,0,4,,,,,,,,7,,,48,0
37342,note_on,94,0,2,,,,,,,,5,,,72,0
37344,note_on,2,0,3,,,,,,,,6,,,64,60
37344,note_on,2,0,4,,,,,,,,7,,,48,60
37344,note_on,0,0,3,,,,,,,,6,,,67,60
37438,note_on,94,0,4,,,,,,,,7,,,48,0
37440,note_on,2,0,4,,,,,,,,7,,,60,60
37486,note_on,142,0,3,,,,,,,,6,,,64,0
37486,note_on,0,0,3,,,,,,,,6,,,67,0
37488,note_on,2,0,3,,,,,,,,6,,,62,60
37488,note_on,0,0,3,,,,,,,,6,,,65,60
37534,note_on,94,0,4,,,,,,,,7,,,60,0
37534,note_on,0,0,3,,,,,,,,6,,,65,0
37534,note_on,46,0,3,,,,,,,,6,,,62,0
37536,note_on,2,0,3,,,,,,,,6,,,64,60
37536,note_on,480,0,1,,,,,,,,0,,,67,0
37536,note_on,0,0,1,,,,,,,,0,,,72,75
37536,note_on,0,0,3,,,,,,,,6,,,67,60
37536,note_on,2,0,4,,,,,,,,7,,,48,60
37630,note_on,94,0,4,,,,,,,,7,,,48,0
37630,note_on,0,0,3,,,,,,,,6,,,67,0
37630,note_on,94,0,3,,,,,,,,6,,,64,0
37632,note_on,0,0,1,,,,,,,,0,,,69,75
37632,note_on,96,0,1,,,,,,,,0,,,72,0
37632,note_on,2,0,3,,,,,,,,6,,,60,60
37632,note_on,0,0,3,,,,,,,,6,,,69,60
37632,note_on,2,0,4,,,,,,,,7,,,53,60
37726,note_on,94,0,4,,,,,,,,7,,,53,0
37726,note_on,94,0,3,,,,,,,,6,,,69,0
37728,note_on,96,0,1,,,,,,,,0,,,69,0
37728,note_on,0,0,1,,,,,,,,0,,,65,75
37728,note_on,2,0,4,,,,,,,,7,,,57,60
37728,note_on,2,0,3,,,,,,,,6,,,72,60
37822,note_on,94,0,3,,,,,,,,6,,,72,0
37822,note_on,94,0,4,,,,,,,,7,,,57,0
37824,note_on,2,0,4,,,,,,,,7,,,55,60
37824,note_on,96,0,1,,,,,,,,0,,,65,0
37824,note_on,0,0,1,,,,,,,,0,,,67,75
37824,note_on,2,0,3,,,,,,,,6,,,70,60
37888,note_on,64,0,3,,,,,,,,6,,,60,0
37918,note_on,30,0,3,,,,,,,,6,,,70,0
37918,note_on,94,0,4,,,,,,,,7,,,55,0
37920,note_on,2,0,3,,,,,,,,6,,,62,75
37920,note_on,2,0,4,,,,,,,,7,,,54,75
37920,note_on,0,0,3,,,,,,,,6,,,69,75
37920,note_on,96,0,1,,,,,,,,0,,,67,0
37920,note_on,0,0,1,,,,,,,,0,,,69,92
38014,note_on,94,0,4,,,,,,,,7,,,54,0
38014,note_on,94,0,3,,,,,,,,6,,,69,0
38016,note_on,96,0,1,,,,,,,,0,,,69,0
38016,note_on,2,0,4,,,,,,,,7,,,50,75
38016,note_on,0,0,1,,,,,,,,0,,,74,92
38016,note_on,2,0,3,,,,,,,,6,,,66,75
38110,note_on,94,0,3,,,,,,,,6,,,66,0
38110,note_on,94,0,4,,,,,,,,7,,,50,0
38112,note_on,2,0,3,,,,,,,,6,,,69,75
38112,note_on,96,0,1,,,,,,,,0,,,74,0
38112,note_on,0,0,1,,,,,,,,0,,,72,92
38112,note_on,2,0,4,,,,,,,,7,,,54,75
38206,note_on,94,0,3,,,,,,,,6,,,69,0
38206,note_on,94,0,4,,,,,,,,7,,,54,0
38208,note_on,2,0,3,,,,,,,,6,,,71,75
38208,note_on,0,0,1,,,,,,,,0,,,71,92
38208,note_on,96,0,1,,,,,,,,0,,,72,0
38208,note_on,2,0,4,,,,,,,,7,,,55,75
38302,note_on,94,0,4,,,,,,,,7,,,55,0
38302,note_on,94,0,3,,,,,,,,6,,,71,0
38304,note_on,0,0,1,,,,,,,,0,,,67,92
38304,note_on,2,0,4,,,,,,,,7,,,59,75
38304,note_on,2,0,3,,,,,,,,6,,,74,75
38304,note_on,96,0,1,,,,,,,,0,,,71,0
38398,note_on,94,0,4,,,,,,,,7,,,59,0
38398,note_on,94,0,3,,,,,,,,6,,,74,0
38400,note_on,2,0,3,,,,,,,,6,,,72,75
38400,note_on,0,0,1,,,,,,,,0,,,69,92
38400,note_on,96,0,1,,,,,,,,0,,,67,0
38400,note_on,2,0,4,,,,,,,,7,,,57,75
38464,note_on,64,0,3,,,,,,,,6,,,62,0
38494,note_on,94,0,4,,,,,,,,7,,,57,0
38494,note_on,30,0,3,,,,,,,,6,,,72,0
38496,note_on,0,0,1,,,,,,,,0,,,71,92
38496,note_on,96,0,1,,,,,,,,0,,,69,0
38496,note_on,2,0,3,,,,,,,,6,,,64,75
38496,note_on,0,0,3,,,,,,,,6,,,71,75
38496,note_on,2,0,4,,,,,,,,7,,,56,75
38590,note_on,94,0,4,,,,,,,,7,,,56,0
38590,note_on,94,0,3,,,,,,,,6,,,71,0
38592,note_on,2,0,4,,,,,,,,7,,,52,75
38592,note_on,96,0,1,,,,,,,,0,,,71,0
38592,note_on,0,0,1,,,,,,,,0,,,76,92
38592,note_on,2,0,3,,,,,,,,6,,,68,75
38686,note_on,94,0,4,,,,,,,,7,,,52,0
38686,note_on,94,0,3,,,,,,,,6,,,68,0
38688,note_on,96,0,1,,,,,,,,0,,,76,0
38688,note_on,0,0,1,,,,,,,,0,,,74,92
38688,note_on,2,0,3,,,,,,,,6,,,71,75
38688,note_on,2,0,4,,,,,,,,7,,,56,75
38782,note_on,94,0,3,,,,,,,,6,,,71,0
38782,note_on,94,0,4,,,,,,,,7,,,56,0
38784,note_on,2,0,3,,,,,,,,6,,,72,75
38784,note_on,96,0,1,,,,,,,,0,,,74,0
38784,note_on,2,0,4,,,,,,,,7,,,57,75
38784,note_on,0,0,1,,,,,,,,0,,,72,108
38878,note_on,94,0,4,,,,,,,,7,,,57,0
38878,note_on,94,0,3,,,,,,,,6,,,72,0
38880,note_on,2,0,3,,,,,,,,6,,,76,75
38880,note_on,2,0,4,,,,,,,,7,,,60,75
38880,note_on,0,0,1,,,,,,,,0,,,69,108
38880,note_on,96,0,1,,,,,,,,0,,,72,0
38974,note_on,94,0,3,,,,,,,,6,,,76,0
38974,note_on,94,0,4,,,,,,,,7,,,60,0
38976,note_on,96,0,1,,,,,,,,0,,,69,0
38976,note_on,0,0,1,,,,,,,,0,,,71,108
38976,note_on,2,0,4,,,,,,,,7,,,59,75
38976,note_on,2,0,3,,,,,,,,6,,,74,75
39040,note_on,64,0,3,,,,,,,,6,,,64,0
39070,note_on,30,0,3,,,,,,,,6,,,74,0
39070,note_on,94,0,4,,,,,,,,7,,,59,0
39072,note_on,96,0,1,,,,,,,,0,,,71,0
39072,note_on,2,0,4,,,,,,,,7,,,57,75
39072,note_on,0,0,3,,,,,,,,6,,,72,75
39072,note_on,2,0,3,,,,,,,,6,,,65,75
39072,note_on,0,0,1,,,,,,,,0,,,72,108
39166,note_on,94,0,4,,,,,,,,7,,,57,0
39166,note_on,94,0,3,,,,,,,,6,,,65,0
39168,note_on,2,0,4,,,,,,,,7,,,53,75
39168,note_on,2,0,3,,,,,,,,6,,,69,75
39168,note_on,0,0,1,,,,,,,,0,,,77,108
39168,note_on,96,0,1,,,,,,,,0,,,72,0
39232,note_on,64,0,3,,,,,,,,6,,,72,0
39262,note_on,94,0,4,,,,,,,,7,,,53,0
39262,note_on,30,0,3,,,,,,,,6,,,69,0
39264,note_on,2,0,3,,,,,,,,6,,,67,75
39264,note_on,96,0,1,,,,,,,,0,,,77,0
39264,note_on,2,0,4,,,,,,,,7,,,48,75
39264,note_on,0,0,1,,,,,,,,0,,,76,108
39264,note_on,0,0,3,,,,,,,,6,,,76,75
39358,note_on,94,0,3,,,,,,,,6,,,67,0
39358,note_on,0,0,3,,,,,,,,6,,,76,0
39358,note_on,94,0,4,,,,,,,,7,,,48,0
39360,note_on,0,0,3,,,,,,,,6,,,71,75
39360,note_on,0,0,3,,,,,,,,6,,,74,75
39360,note_on,2,0,4,,,,,,,,7,,,43,75
39360,note_on,2,0,3,,,,,,,,6,,,67,75
39360,note_on,0,0,1,,,,,,,,0,,,74,108
39360,note_on,96,0,1,,,,,,,,0,,,76,0
39454,note_on,94,0,4,,,,,,,,7,,,43,0
39454,note_on,0,0,3,,,,,,,,6,,,74,0
39454,note_on,0,0,3,,,,,,,,6,,,71,0
39454,note_on,94,0,3,,,,,,,,6,,,67,0
39456,note_on,2,0,4,,,,,,,,7,,,55,75
39456,note_on,0,0,3,,,,,,,,6,,,72,75
39456,note_on,2,0,3,,,,,,,,6,,,69,75
39550,note_on,94,0,4,,,,,,,,7,,,55,0
39550,note_on,0,0,3,,,,,,,,6,,,72,0
39550,note_on,94,0,3,,,,,,,,6,,,69,0
39552,note_on,2,0,3,,,,,,,,6,,,67,75
39552,note_on,2,0,4,,,,,,,,7,,,43,75
39552,note_on,0,0,3,,,,,,,,6,,,71,75
39646,note_on,94,0,4,,,,,,,,7,,,43,0
39646,note_on,94,0,3,,,,,,,,6,,,67,0
39646,note_on,0,0,3,,,,,,,,6,,,71,0
39648,note_on,2,0,4,,,,,,,,7,,,43,75
39648,note_on,2,0,3,,,,,,,,6,,,67,75
39648,note_on,0,0,3,,,,,,,,6,,,71,75
39742,note_on,0,0,3,,,,,,,,6,,,71,0
39742,note_on,94,0,3,,,,,,,,6,,,67,0
39742,note_on,94,0,4,,,,,,,,7,,,43,0
39744,note_on,0,0,1,,,,,,,,0,,,71,108
39744,note_on,384,0,1,,,,,,,,0,,,74,0
39744,note_on,2,0,4,,,,,,,,7,,,55,75
39744,note_on,2,0,3,,,,,,,,6,,,67,75
39838,note_on,94,0,4,,,,,,,,7,,,55,0
39838,note_on,94,0,3,,,,,,,,6,,,67,0
39840,note_on,2,0,3,,,,,,,,6,,,69,75
39840,note_on,96,0,1,,,,,,,,0,,,71,0
39840,note_on,2,0,4,,,,,,,,7,,,43,75
39840,note_on,0,0,1,,,,,,,,0,,,72,108
39934,note_on,94,0,4,,,,,,,,7,,,43,0
39934,note_on,94,0,3,,,,,,,,6,,,69,0
39936,note_on,2,0,4,,,,,,,,7,,,43,75
39936,note_on,96,0,1,,,,,,,,0,,,72,0
39936,note_on,0,0,1,,,,,,,,0,,,74,127
39936,note_on,2,0,3,,,,,,,,6,,,67,75
39936,note_on,0,0,3,,,,,,,,6,,,71,75
40030,note_on,94,0,4,,,,,,,,7,,,43,0
40032,note_on,2,0,4,,,,,,,,7,,,55,75
40078,note_on,0,0,3,,,,,,,,6,,,71,0
40078,note_on,142,0,3,,,,,,,,6,,,67,0
40080,note_on,0,0,3,,,,,,,,6,,,72,75
40080,note_on,2,0,3,,,,,,,,6,,,69,75
40126,note_on,46,0,3,,,,,,,,6,,,69,0
40126,note_on,0,0,3,,,,,,,,6,,,72,0
40126,note_on,94,0,4,,,,,,,,7,,,55,0
40128,note_on,2,0,3,,,,,,,,6,,,67,75
40128,note_on,0,0,3,,,,,,,,6,,,71,75
40128,note_on,2,0,4,,,,,,,,7,,,43,75
40222,note_on,0,0,3,,,,,,,,6,,,71,0
40222,note_on,94,0,3,,,,,,,,6,,,67,0
40222,note_on,94,0,4,,,,,,,,7,,,43,0
40224,note_on,2,0,4,,,,,,,,7,,,43,75
40224,note_on,2,0,3,,,,,,,,6,,,67,75
40224,note_on,0,0,3,,,,,,,,6,,,71,75
40318,note_on,94,0,4,,,,,,,,7,,,43,0
40320,note_on,384,0,1,,,,,,,,0,,,74,0
40320,note_on,0,0,1,,,,,,,,0,,,71,108
40320,note_on,2,0,4,,,,,,,,7,,,55,75
40384,note_on,160,0,3,,,,,,,,6,,,67,0
40384,note_on,0,0,3,,,,,,,,6,,,71,0
40414,note_on,94,0,4,,,,,,,,7,,,55,0
40416,note_on,2,0,4,,,,,,,,7,,,43,75
40416,note_on,96,0,1,,,,,,,,0,,,71,0
40416,note_on,0,0,1,,,,,,,,0,,,72,108
40416,note_on,32,0,3,,,,,,,,6,,,69,75
40510,note_on,94,0,3,,,,,,,,6,,,69,0
40510,note_on,94,0,4,,,,,,,,7,,,43,0
40512,note_on,2,0,3,,,,,,,,6,,,67,75
40512,note_on,0,0,3,,,,,,,,6,,,71,75
40512,note_on,96,0,1,,,,,,,,0,,,72,0
40512,note_on,2,0,4,,,,,,,,7,,,43,75
40512,note_on,0,0,1,,,,,,,,0,,,74,92
40606,note_on,94,0,4,,,,,,,,7,,,43,0
40608,note_on,2,0,4,,,,,,,,7,,,55,75
40654,note_on,142,0,3,,,,,,,,6,,,67,0
40654,note_on,0,0,3,,,,,,,,6,,,71,0
40656,note_on,2,0,3,,,,,,,,6,,,69,75
40656,note_on,0,0,3,,,,,,,,6,,,72,75
40672,note_on,160,0,1,,,,,,,,0,,,74,0
40702,note_on,94,0,4,,,,,,,,7,,,55,0
40702,note_on,46,0,3,,,,,,,,6,,,69,0
40702,note_on,0,0,3,,,,,,,,6,,,72,0
40704,note_on,2,0,4,,,,,,,,7,,,43,75
40704,note_on,32,0,1,,,,,,,,0,,,67,92
40704,note_on,2,0,3,,,,,,,,6,,,71,75
40704,note_on,0,0,3,,,,,,,,6,,,74,75
40798,note_on,0,0,3,,,,,,,,6,,,74,0
40798,note_on,94,0,1,,,,,,,,0,,,67,0
40798,note_on,94,0,4,,,,,,,,7,,,43,0
40798,note_on,94,0,3,,,,,,,,6,,,71,0
40800,note_on,2,0,3,,,,,,,,6,,,59,75
40800,note_on,0,0,3,,,,,,,,6,,,67,75
40800,note_on,2,0,4,,,,,,,,7,,,43,75
40894,note_on,94,0,4,,,,,,,,7,,,43,0
40896,note_on,2,0,4,,,,,,,,7,,,55,75
40942,note_on,142,0,3,,,,,,,,6,,,67,0
40944,note_on,2,0,3,,,,,,,,6,,,69,75
40960,note_on,16,0,3,,,,,,,,6,,,59,0
40990,note_on,30,0,3,,,,,,,,6,,,69,0
40990,note_on,94,0,4,,,,,,,,7,,,55,0
40992,note_on,194,0,1,,,,,,,,0,,,74,92
40992,note_on,2,0,4,,,,,,,,7,,,43,75
40992,note_on,0,0,3,,,,,,,,6,,,71,75
40992,note_on,2,0,3,,,,,,,,6,,,65,75
41086,note_on,94,0,4,,,,,,,,7,,,43,0
41086,note_on,94,0,1,,,,,,,,0,,,74,0
41086,note_on,0,0,3,,,,,,,,6,,,71,0
41086,note_on,94,0,3,,,,,,,,6,,,65,0
41088,note_on,2,0,4,,,,,,,,7,,,48,75
41088,note_on,2,0,1,,,,,,,,0,,,76,92
41088,note_on,2,0,3,,,,,,,,6,,,64,75
41088,note_on,0,0,3,,,,,,,,6,,,72,75
41182,note_on,94,0,3,,,,,,,,6,,,64,0
41182,note_on,94,0,4,,,,,,,,7,,,48,0
41184,note_on,2,0,4,,,,,,,,7,,,60,75
41184,note_on,0,0,1,,,,,,,,0,,,74,92
41184,note_on,96,0,1,,,,,,,,0,,,76,0
41184,note_on,2,0,3,,,,,,,,6,,,65,75
41278,note_on,94,0,3,,,,,,,,6,,,65,0
41278,note_on,94,0,4,,,,,,,,7,,,60,0
41278,note_on,94,0,1,,,,,,,,0,,,74,0
41280,note_on,2,0,3,,,,,,,,6,,,64,75
41280,note_on,2,0,4,,,,,,,,7,,,48,75
41280,note_on,2,0,1,,,,,,,,0,,,72,92
41374,note_on,94,0,3,,,,,,,,6,,,64,0
41374,note_on,94,0,1,,,,,,,,0,,,72,0
41374,note_on,94,0,4,,,,,,,,7,,,48,0
41376,note_on,2,0,1,,,,,,,,0,,,72,92
41376,note_on,2,0,4,,,,,,,,7,,,43,75
41376,note_on,2,0,3,,,,,,,,6,,,62,75
41470,note_on,94,0,4,,,,,,,,7,,,43,0
41472,note_on,0,0,1,,,,,,,,0,,,74,92
41472,note_on,96,0,1,,,,,,,,0,,,72,0
41472,note_on,2,0,4,,,,,,,,7,,,55,75
41536,note_on,160,0,3,,,,,,,,6,,,72,0
41566,note_on,94,0,4,,,,,,,,7,,,55,0
41566,note_on,94,0,1,,,,,,,,0,,,74,0
41568,note_on,2,0,4,,,,,,,,7,,,43,75
41568,note_on,32,0,3,,,,,,,,6,,,71,75
41568,note_on,2,0,1,,,,,,,,0,,,71,92
41632,note_on,64,0,3,,,,,,,,6,,,62,0
41662,note_on,30,0,3,,,,,,,,6,,,71,0
41662,note_on,94,0,1,,,,,,,,0,,,71,0
41662,note_on,94,0,4,,,,,,,,7,,,43,0
41664,note_on,2,0,1,,,,,,,,0,,,72,92
41664,note_on,2,0,4,,,,,,,,7,,,48,60
41664,note_on,2,0,3,,,,,,,,6,,,64,60
41664,note_on,0,0,3,,,,,,,,6,,,72,60
41758,note_on,0,0,3,,,,,,,,6,,,72,0
41758,note_on,94,0,3,,,,,,,,6,,,64,0
41760,note_on,0,0,3,,,,,,,,6,,,64,60
41760,note_on,2,0,3,,,,,,,,6,,,60,60
41854,note_on,94,0,3,,,,,,,,6,,,60,0
41854,note_on,0,0,3,,,,,,,,6,,,64,0
41856,note_on,0,0,3,,,,,,,,6,,,65,60
41856,note_on,2,0,3,,,,,,,,6,,,62,60
41950,note_on,94,0,3,,,,,,,,6,,,62,0
41950,note_on,0,0,3,,,,,,,,6,,,65,0
41952,note_on,2,0,3,,,,,,,,6,,,64,60
41952,note_on,0,0,3,,,,,,,,6,,,67,60
42046,note_on,94,0,3,,,,,,,,6,,,64,0
42046,note_on,0,0,3,,,,,,,,6,,,67,0
42048,note_on,2,0,3,,,,,,,,6,,,65,60
42048,note_on,0,0,3,,,,,,,,6,,,69,60
42142,note_on,94,0,3,,,,,,,,6,,,65,0
42142,note_on,0,0,3,,,,,,,,6,,,69,0
42144,note_on,2,0,3,,,,,,,,6,,,62,60
42144,note_on,0,0,3,,,,,,,,6,,,71,60
42192,note_on,528,0,4,,,,,,,,7,,,48,0
42192,end_of_track,0,1,1,,,,,,,,,,,,
42192,note_on,528,0,1,,,,,,,,0,,,72,0
42238,note_on,94,0,3,,,,,,,,6,,,62,0
42238,note_on,0,0,3,,,,,,,,6,,,71,0
42240,note_on,48,0,4,,,,,,,,7,,,48,75
42240,note_on,2,0,3,,,,,,,,6,,,64,75
42240,note_on,4898,0,2,,,,,,,,5,,,72,75
42334,note_on,94,0,4,,,,,,,,7,,,48,0
42336,note_on,2,0,4,,,,,,,,7,,,60,75
42382,note_on,142,0,2,,,,,,,,5,,,72,0
42382,note_on,142,0,3,,,,,,,,6,,,64,0
42384,note_on,2,0,2,,,,,,,,5,,,74,75
42384,note_on,2,0,3,,,,,,,,6,,,65,75
42430,note_on,46,0,3,,,,,,,,6,,,65,0
42430,note_on,46,0,2,,,,,,,,5,,,74,0
42430,note_on,94,0,4,,,,,,,,7,,,60,0
42432,note_on,2,0,2,,,,,,,,5,,,72,75
42432,note_on,2,0,4,,,,,,,,7,,,48,75
42432,note_on,2,0,3,,,,,,,,6,,,64,75
42526,note_on,94,0,2,,,,,,,,5,,,72,0
42526,note_on,94,0,3,,,,,,,,6,,,64,0
42526,note_on,94,0,4,,,,,,,,7,,,48,0
42528,note_on,2,0,4,,,,,,,,7,,,48,75
42528,note_on,2,0,2,,,,,,,,5,,,79,75
42528,note_on,2,0,3,,,,,,,,6,,,76,75
42622,note_on,94,0,4,,,,,,,,7,,,48,0
42624,note_on,2,0,4,,,,,,,,7,,,60,75
42688,note_on,160,0,3,,,,,,,,6,,,76,0
42688,note_on,160,0,2,,,,,,,,5,,,79,0
42718,note_on,94,0,4,,,,,,,,7,,,60,0
42720,note_on,32,0,3,,,,,,,,6,,,64,75
42720,note_on,32,0,2,,,,,,,,5,,,72,75
42720,note_on,2,0,4,,,,,,,,7,,,48,75
42814,note_on,94,0,2,,,,,,,,5,,,72,0
42814,note_on,94,0,3,,,,,,,,6,,,64,0
42814,note_on,94,0,4,,,,,,,,7,,,48,0
42816,note_on,2,0,3,,,,,,,,6,,,62,75
42816,note_on,2,0,4,,,,,,,,7,,,43,75
42816,note_on,2,0,2,,,,,,,,5,,,71,75
42910,note_on,94,0,3,,,,,,,,6,,,62,0
42910,note_on,94,0,4,,,,,,,,7,,,43,0
42912,note_on,2,0,4,,,,,,,,7,,,55,75
42912,note_on,2,0,3,,,,,,,,6,,,71,75
43006,note_on,94,0,4,,,,,,,,7,,,55,0
43006,note_on,94,0,3,,,,,,,,6,,,71,0
43008,note_on,2,0,3,,,,,,,,6,,,69,75
43008,note_on,2,0,4,,,,,,,,7,,,53,75
43072,note_on,256,0,2,,,,,,,,5,,,71,0
43102,note_on,94,0,3,,,,,,,,6,,,69,0
43102,note_on,94,0,4,,,,,,,,7,,,53,0
43104,note_on,2,0,4,,,,,,,,7,,,52,75
43104,note_on,32,0,2,,,,,,,,5,,,72,75
43104,note_on,2,0,3,,,,,,,,6,,,67,75
43198,note_on,94,0,4,,,,,,,,7,,,52,0
43200,note_on,2,0,4,,,,,,,,7,,,60,75
43246,note_on,142,0,3,,,,,,,,6,,,67,0
43248,note_on,2,0,3,,,,,,,,6,,,65,75
43294,note_on,94,0,4,,,,,,,,7,,,60,0
43294,note_on,46,0,3,,,,,,,,6,,,65,0
43296,note_on,2,0,3,,,,,,,,6,,,67,75
43296,note_on,2,0,4,,,,,,,,7,,,52,75
43360,note_on,256,0,2,,,,,,,,5,,,72,0
43390,note_on,94,0,3,,,,,,,,6,,,67,0
43390,note_on,94,0,4,,,,,,,,7,,,52,0
43392,note_on,32,0,2,,,,,,,,5,,,74,75
43392,note_on,2,0,4,,,,,,,,7,,,50,75
43392,note_on,2,0,3,,,,,,,,6,,,65,75
43486,note_on,94,0,4,,,,,,,,7,,,50,0
43486,note_on,94,0,3,,,,,,,,6,,,65,0
43488,note_on,2,0,4,,,,,,,,7,,,47,75
43488,note_on,2,0,3,,,,,,,,6,,,74,75
43534,note_on,142,0,2,,,,,,,,5,,,74,0
43536,note_on,2,0,2,,,,,,,,5,,,76,75
43582,note_on,94,0,3,,,,,,,,6,,,74,0
43582,note_on,46,0,2,,,,,,,,5,,,76,0
43582,note_on,94,0,4,,,,,,,,7,,,47,0
43584,note_on,2,0,3,,,,,,,,6,,,72,75
43584,note_on,2,0,2,,,,,,,,5,,,77,75
43584,note_on,2,0,4,,,,,,,,7,,,45,75
43678,note_on,94,0,3,,,,,,,,6,,,72,0
43678,note_on,94,0,2,,,,,,,,5,,,77,0
43678,note_on,94,0,4,,,,,,,,7,,,45,0
43680,note_on,2,0,4,,,,,,,,7,,,43,75
43680,note_on,2,0,2,,,,,,,,5,,,71,75
43680,note_on,2,0,3,,,,,,,,6,,,62,75
43774,note_on,94,0,4,,,,,,,,7,,,43,0
43776,note_on,2,0,4,,,,,,,,7,,,55,75
43822,note_on,142,0,2,,,,,,,,5,,,71,0
43822,note_on,142,0,3,,,,,,,,6,,,62,0
43824,note_on,2,0,2,,,,,,,,5,,,72,75
43824,note_on,2,0,3,,,,,,,,6,,,64,75
43870,note_on,46,0,3,,,,,,,,6,,,64,0
43870,note_on,46,0,2,,,,,,,,5,,,72,0
43870,note_on,94,0,4,,,,,,,,7,,,55,0
43872,note_on,2,0,4,,,,,,,,7,,,43,75
43872,note_on,2,0,2,,,,,,,,5,,,74,75
43872,note_on,2,0,3,,,,,,,,6,,,65,75
43966,note_on,94,0,2,,,,,,,,5,,,74,0
43966,note_on,94,0,4,,,,,,,,7,,,43,0
43966,note_on,94,0,3,,,,,,,,6,,,65,0
43968,note_on,2,0,4,,,,,,,,7,,,48,75
43968,note_on,2,0,3,,,,,,,,6,,,67,75
43968,note_on,2,0,2,,,,,,,,5,,,76,75
44062,note_on,94,0,4,,,,,,,,7,,,48,0
44064,note_on,2,0,4,,,,,,,,7,,,60,75
44128,note_on,160,0,2,,,,,,,,5,,,76,0
44128,note_on,160,0,3,,,,,,,,6,,,67,0
44158,note_on,94,0,4,,,,,,,,7,,,60,0
44160,note_on,32,0,3,,,,,,,,6,,,65,75
44160,note_on,2,0,4,,,,,,,,7,,,48,75
44160,note_on,32,0,2,,,,,,,,5,,,74,75
44254,note_on,94,0,3,,,,,,,,6,,,65,0
44254,note_on,94,0,4,,,,,,,,7,,,48,0
44254,note_on,94,0,2,,,,,,,,5,,,74,0
44256,note_on,2,0,3,,,,,,,,6,,,64,75
44256,note_on,2,0,4,,,,,,,,7,,,48,75
44256,note_on,2,0,2,,,,,,,,5,,,72,75
44350,note_on,94,0,4,,,,,,,,7,,,48,0
44352,note_on,2,0,4,,,,,,,,7,,,60,75
44398,note_on,142,0,3,,,,,,,,6,,,64,0
44400,note_on,2,0,3,,,,,,,,6,,,65,75
44446,note_on,94,0,4,,,,,,,,7,,,60,0
44446,note_on,46,0,3,,,,,,,,6,,,65,0
44448,note_on,2,0,3,,,,,,,,6,,,64,75
44448,note_on,2,0,4,,,,,,,,7,,,48,75
44512,note_on,256,0,2,,,,,,,,5,,,72,0
44542,note_on,94,0,3,,,,,,,,6,,,64,0
44542,note_on,94,0,4,,,,,,,,7,,,48,0
44544,note_on,2,0,3,,,,,,,,6,,,67,75
44544,note_on,2,0,4,,,,,,,,7,,,48,75
44544,note_on,32,0,2,,,,,,,,5,,,76,75
44638,note_on,94,0,4,,,,,,,,7,,,48,0
44640,note_on,2,0,4,,,,,,,,7,,,60,75
44686,note_on,142,0,2,,,,,,,,5,,,76,0
44688,note_on,2,0,2,,,,,,,,5,,,77,75
44734,note_on,46,0,2,,,,,,,,5,,,77,0
44734,note_on,94,0,4,,,,,,,,7,,,60,0
44736,note_on,2,0,2,,,,,,,,5,,,76,75
44736,note_on,2,0,4,,,,,,,,7,,,48,75
44800,note_on,256,0,3,,,,,,,,6,,,67,0
44830,note_on,94,0,2,,,,,,,,5,,,76,0
44830,note_on,94,0,4,,,,,,,,7,,,48,0
44832,note_on,2,0,4,,,,,,,,7,,,48,75
44832,note_on,32,0,3,,,,,,,,6,,,76,75
44832,note_on,2,0,2,,,,,,,,5,,,79,75
44926,note_on,94,0,4,,,,,,,,7,,,48,0
44928,note_on,2,0,4,,,,,,,,7,,,60,75
44992,note_on,160,0,3,,,,,,,,6,,,76,0
44992,note_on,160,0,2,,,,,,,,5,,,79,0
45022,note_on,94,0,4,,,,,,,,7,,,60,0
45024,note_on,2,0,4,,,,,,,,7,,,48,75
45024,note_on,32,0,2,,,,,,,,5,,,76,75
45024,note_on,32,0,3,,,,,,,,6,,,67,75
45118,note_on,94,0,4,,,,,,,,7,,,48,0
45118,note_on,94,0,2,,,,,,,,5,,,76,0
45118,note_on,94,0,3,,,,,,,,6,,,67,0
45120,note_on,2,0,2,,,,,,,,5,,,74,75
45120,note_on,2,0,3,,,,,,,,6,,,69,75
45120,note_on,2,0,4,,,,,,,,7,,,47,75
45214,note_on,94,0,4,,,,,,,,7,,,47,0
45216,note_on,2,0,4,,,,,,,,7,,,59,75
45262,note_on,142,0,2,,,,,,,,5,,,74,0
45264,note_on,2,0,2,,,,,,,,5,,,76,75
45280,note_on,160,0,3,,,,,,,,6,,,69,0
45310,note_on,46,0,2,,,,,,,,5,,,76,0
45310,note_on,94,0,4,,,,,,,,7,,,59,0
45312,note_on,2,0,4,,,,,,,,7,,,47,75
45312,note_on,2,0,2,,,,,,,,5,,,74,75
45312,note_on,32,0,3,,,,,,,,6,,,67,75
45406,note_on,94,0,2,,,,,,,,5,,,74,0
45406,note_on,94,0,4,,,,,,,,7,,,47,0
45406,note_on,94,0,3,,,,,,,,6,,,67,0
45408,note_on,2,0,2,,,,,,,,5,,,79,75
45408,note_on,2,0,4,,,,,,,,7,,,47,75
45408,note_on,2,0,3,,,,,,,,6,,,67,75
45408,note_on,0,0,3,,,,,,,,6,,,74,75
45502,note_on,94,0,4,,,,,,,,7,,,47,0
45504,note_on,2,0,4,,,,,,,,7,,,59,75
45550,note_on,142,0,3,,,,,,,,6,,,67,0
45550,note_on,0,0,3,,,,,,,,6,,,74,0
45552,note_on,2,0,3,,,,,,,,6,,,69,75
45568,note_on,160,0,2,,,,,,,,5,,,79,0
45598,note_on,46,0,3,,,,,,,,6,,,69,0
45598,note_on,94,0,4,,,,,,,,7,,,59,0
45600,note_on,2,0,3,,,,,,,,6,,,67,75
45600,note_on,2,0,4,,,,,,,,7,,,47,75
45600,note_on,32,0,2,,,,,,,,5,,,74,75
45694,note_on,94,0,2,,,,,,,,5,,,74,0
45694,note_on,94,0,4,,,,,,,,7,,,47,0
45696,note_on,2,0,4,,,,,,,,7,,,45,75
45696,note_on,2,0,2,,,,,,,,5,,,72,75
45790,note_on,94,0,4,,,,,,,,7,,,45,0
45792,note_on,2,0,4,,,,,,,,7,,,57,75
45838,note_on,142,0,2,,,,,,,,5,,,72,0
45840,note_on,2,0,2,,,,,,,,5,,,74,75
45856,note_on,256,0,3,,,,,,,,6,,,67,0
45886,note_on,46,0,2,,,,,,,,5,,,74,0
45886,note_on,94,0,4,,,,,,,,7,,,57,0
45888,note_on,2,0,2,,,,,,,,5,,,72,75
45888,note_on,32,0,3,,,,,,,,6,,,65,75
45888,note_on,2,0,4,,,,,,,,7,,,45,75
45982,note_on,94,0,3,,,,,,,,6,,,65,0
45982,note_on,94,0,2,,,,,,,,5,,,72,0
45982,note_on,94,0,4,,,,,,,,7,,,45,0
45984,note_on,0,0,3,,,,,,,,6,,,72,75
45984,note_on,2,0,3,,,,,,,,6,,,65,75
45984,note_on,2,0,2,,,,,,,,5,,,77,75
45984,note_on,2,0,4,,,,,,,,7,,,45,75
46078,note_on,94,0,4,,,,,,,,7,,,45,0
46080,note_on,2,0,4,,,,,,,,7,,,57,75
46126,note_on,142,0,3,,,,,,,,6,,,65,0
46126,note_on,0,0,3,,,,,,,,6,,,72,0
46128,note_on,2,0,3,,,,,,,,6,,,67,75
46144,note_on,160,0,2,,,,,,,,5,,,77,0
46174,note_on,94,0,4,,,,,,,,7,,,57,0
46174,note_on,46,0,3,,,,,,,,6,,,67,0
46176,note_on,32,0,2,,,,,,,,5,,,72,75
46176,note_on,2,0,4,,,,,,,,7,,,45,75
46176,note_on,2,0,3,,,,,,,,6,,,65,75
46270,note_on,94,0,3,,,,,,,,6,,,65,0
46270,note_on,94,0,4,,,,,,,,7,,,45,0
46270,note_on,94,0,2,,,,,,,,5,,,72,0
46272,note_on,2,0,2,,,,,,,,5,,,71,75
46272,note_on,2,0,3,,,,,,,,6,,,62,75
46272,note_on,2,0,4,,,,,,,,7,,,43,75
46366,note_on,94,0,4,,,,,,,,7,,,43,0
46368,note_on,96,0,2,,,,,,,,5,,,71,0
46368,note_on,0,0,2,,,,,,,,5,,,67,75
46368,note_on,2,0,4,,,,,,,,7,,,55,75
46462,note_on,94,0,4,,,,,,,,7,,,55,0
46464,note_on,2,0,4,,,,,,,,7,,,43,75
46464,note_on,0,0,2,,,,,,,,5,,,69,75
46464,note_on,96,0,2,,,,,,,,5,,,67,0
46528,note_on,256,0,3,,,,,,,,6,,,62,0
46558,note_on,94,0,4,,,,,,,,7,,,43,0
46560,note_on,2,0,4,,,,,,,,7,,,43,75
46560,note_on,32,0,3,,,,,,,,6,,,67,75
46560,note_on,0,0,2,,,,,,,,5,,,71,75
46560,note_on,96,0,2,,,,,,,,5,,,69,0
46654,note_on,94,0,3,,,,,,,,6,,,67,0
46654,note_on,94,0,4,,,,,,,,7,,,43,0
46656,note_on,2,0,3,,,,,,,,6,,,69,75
46656,note_on,96,0,2,,,,,,,,5,,,71,0
46656,note_on,2,0,4,,,,,,,,7,,,55,75
46656,note_on,0,0,2,,,,,,,,5,,,72,75
46750,note_on,94,0,3,,,,,,,,6,,,69,0
46750,note_on,94,0,4,,,,,,,,7,,,55,0
46752,note_on,2,0,4,,,,,,,,7,,,43,75
46752,note_on,2,0,3,,,,,,,,6,,,67,75
46752,note_on,0,0,3,,,,,,,,6,,,71,75
46752,note_on,96,0,2,,,,,,,,5,,,72,0
46752,note_on,0,0,2,,,,,,,,5,,,74,75
46846,note_on,94,0,2,,,,,,,,5,,,74,0
46846,note_on,94,0,3,,,,,,,,6,,,67,0
46846,note_on,0,0,3,,,,,,,,6,,,71,0
46846,note_on,94,0,4,,,,,,,,7,,,43,0
46848,note_on,2,0,2,,,,,,,,5,,,76,75
46848,note_on,2,0,3,,,,,,,,6,,,67,75
46848,note_on,2,0,4,,,,,,,,7,,,43,75
46942,note_on,94,0,4,,,,,,,,7,,,43,0
46944,note_on,2,0,4,,,,,,,,7,,,55,75
46944,note_on,96,0,2,,,,,,,,5,,,76,0
46944,note_on,0,0,2,,,,,,,,5,,,79,75
47038,note_on,94,0,4,,,,,,,,7,,,55,0
47040,note_on,2,0,4,,,,,,,,7,,,43,75
47040,note_on,0,0,2,,,,,,,,5,,,77,75
47040,note_on,96,0,2,,,,,,,,5,,,79,0
47134,note_on,94,0,4,,,,,,,,7,,,43,0
47136,note_on,96,0,2,,,,,,,,5,,,77,0
47136,note_on,0,0,2,,,,,,,,5,,,76,75
47136,note_on,2,0,4,,,,,,,,7,,,43,75
47230,note_on,382,0,3,,,,,,,,6,,,67,0
47230,note_on,94,0,4,,,,,,,,7,,,43,0
47232,note_on,96,0,2,,,,,,,,5,,,76,0
47232,note_on,2,0,3,,,,,,,,6,,,65,75
47232,note_on,0,0,2,,,,,,,,5,,,74,75
47232,note_on,2,0,4,,,,,,,,7,,,55,75
47326,note_on,94,0,3,,,,,,,,6,,,65,0
47326,note_on,94,0,4,,,,,,,,7,,,55,0
47328,note_on,2,0,3,,,,,,,,6,,,64,75
47328,note_on,96,0,2,,,,,,,,5,,,74,0
47328,note_on,0,0,2,,,,,,,,5,,,72,75
47328,note_on,2,0,4,,,,,,,,7,,,43,75
47422,note_on,94,0,4,,,,,,,,7,,,43,0
47422,note_on,94,0,2,,,,,,,,5,,,72,0
47422,note_on,94,0,3,,,,,,,,6,,,64,0
47424,note_on,2,0,2,,,,,,,,5,,,71,75
47424,note_on,2,0,3,,,,,,,,6,,,62,75
47424,note_on,2,0,4,,,,,,,,7,,,43,75
47518,note_on,94,0,4,,,,,,,,7,,,43,0
47520,note_on,2,0,4,,,,,,,,7,,,55,75
47520,note_on,96,0,2,,,,,,,,5,,,71,0
47520,note_on,0,0,2,,,,,,,,5,,,67,75
47614,note_on,94,0,4,,,,,,,,7,,,55,0
47616,note_on,96,0,2,,,,,,,,5,,,67,0
47616,note_on,0,0,2,,,,,,,,5,,,69,75
47616,note_on,2,0,4,,,,,,,,7,,,43,75
47680,note_on,256,0,3,,,,,,,,6,,,62,0
47710,note_on,94,0,4,,,,,,,,7,,,43,0
47712,note_on,32,0,3,,,,,,,,6,,,67,75
47712,note_on,96,0,2,,,,,,,,5,,,69,0
47712,note_on,0,0,2,,,,,,,,5,,,71,75
47712,note_on,2,0,4,,,,,,,,7,,,43,75
47806,note_on,94,0,3,,,,,,,,6,,,67,0
47806,note_on,94,0,4,,,,,,,,7,,,43,0
47808,note_on,2,0,4,,,,,,,,7,,,55,75
47808,note_on,2,0,3,,,,,,,,6,,,69,75
47808,note_on,0,0,2,,,,,,,,5,,,72,75
47808,note_on,96,0,2,,,,,,,,5,,,71,0
47902,note_on,94,0,3,,,,,,,,6,,,69,0
47902,note_on,94,0,4,,,,,,,,7,,,55,0
47904,note_on,2,0,4,,,,,,,,7,,,43,75
47904,note_on,2,0,3,,,,,,,,6,,,67,75
47904,note_on,96,0,2,,,,,,,,5,,,72,0
47904,note_on,0,0,3,,,,,,,,6,,,71,75
47904,note_on,0,0,2,,,,,,,,5,,,74,75
47998,note_on,94,0,2,,,,,,,,5,,,74,0
47998,note_on,94,0,4,,,,,,,,7,,,43,0
47998,note_on,0,0,3,,,,,,,,6,,,71,0
47998,note_on,94,0,3,,,,,,,,6,,,67,0
48000,note_on,2,0,4,,,,,,,,7,,,43,75
48000,note_on,0,0,3,,,,,,,,6,,,72,75
48000,note_on,2,0,3,,,,,,,,6,,,67,75
48000,note_on,2,0,2,,,,,,,,5,,,76,75
48094,note_on,94,0,3,,,,,,,,6,,,72,0
48094,note_on,94,0,4,,,,,,,,7,,,43,0
48096,note_on,0,0,2,,,,,,,,5,,,79,75
48096,note_on,96,0,2,,,,,,,,5,,,76,0
48096,note_on,2,0,4,,,,,,,,7,,,55,75
48096,note_on,2,0,3,,,,,,,,6,,,76,75
48190,note_on,94,0,4,,,,,,,,7,,,55,0
48190,note_on,94,0,3,,,,,,,,6,,,76,0
48192,note_on,96,0,2,,,,,,,,5,,,79,0
48192,note_on,2,0,3,,,,,,,,6,,,74,75
48192,note_on,2,0,4,,,,,,,,7,,,43,75
48192,note_on,0,0,2,,,,,,,,5,,,77,75
48286,note_on,94,0,3,,,,,,,,6,,,74,0
48286,note_on,94,0,4,,,,,,,,7,,,43,0
48288,note_on,96,0,2,,,,,,,,5,,,77,0
48288,note_on,2,0,3,,,,,,,,6,,,72,75
48288,note_on,2,0,4,,,,,,,,7,,,43,75
48288,note_on,0,0,2,,,,,,,,5,,,76,75
48382,note_on,94,0,3,,,,,,,,6,,,67,0
48382,note_on,0,0,3,,,,,,,,6,,,72,0
48382,note_on,94,0,4,,,,,,,,7,,,43,0
48384,note_on,2,0,3,,,,,,,,6,,,65,75
48384,note_on,96,0,2,,,,,,,,5,,,76,0
48384,note_on,0,0,2,,,,,,,,5,,,74,75
48384,note_on,2,0,4,,,,,,,,7,,,55,75
48478,note_on,94,0,4,,,,,,,,7,,,55,0
48478,note_on,94,0,3,,,,,,,,6,,,65,0
48480,note_on,2,0,3,,,,,,,,6,,,64,75
48480,note_on,2,0,4,,,,,,,,7,,,43,75
48480,note_on,96,0,2,,,,,,,,5,,,74,0
48480,note_on,0,0,2,,,,,,,,5,,,72,75
48574,note_on,94,0,3,,,,,,,,6,,,64,0
48574,note_on,94,0,4,,,,,,,,7,,,43,0
48574,note_on,94,0,2,,,,,,,,5,,,72,0
48576,note_on,2,0,4,,,,,,,,7,,,43,75
48576,note_on,2,0,3,,,,,,,,6,,,62,75
48576,note_on,2,0,2,,,,,,,,5,,,71,75
48670,note_on,94,0,4,,,,,,,,7,,,43,0
48670,note_on,94,0,2,,,,,,,,5,,,71,0
48670,note_on,94,0,3,,,,,,,,6,,,62,0
48672,note_on,2,0,2,,,,,,,,5,,,69,75
48672,note_on,2,0,4,,,,,,,,7,,,55,75
48672,note_on,2,0,3,,,,,,,,6,,,60,75
48766,note_on,94,0,2,,,,,,,,5,,,69,0
48766,note_on,94,0,4,,,,,,,,7,,,55,0
48766,note_on,94,0,3,,,,,,,,6,,,60,0
48768,note_on,2,0,2,,,,,,,,5,,,67,75
48768,note_on,2,0,4,,,,,,,,7,,,43,75
48768,note_on,2,0,3,,,,,,,,6,,,59,75
48862,note_on,94,0,2,,,,,,,,5,,,67,0
48862,note_on,94,0,4,,,,,,,,7,,,43,0
48862,note_on,94,0,3,,,,,,,,6,,,59,0
48864,note_on,2,0,4,,,,,,,,7,,,43,75
48864,note_on,2,0,3,,,,,,,,6,,,59,75
48864,note_on,0,0,3,,,,,,,,6,,,67,75
48958,note_on,94,0,4,,,,,,,,7,,,43,0
48960,note_on,2,0,4,,,,,,,,7,,,55,75
49006,note_on,0,0,3,,,,,,,,6,,,67,0
49006,note_on,142,0,3,,,,,,,,6,,,59,0
49008,note_on,2,0,3,,,,,,,,6,,,69,75
49054,note_on,46,0,3,,,,,,,,6,,,69,0
49054,note_on,94,0,4,,,,,,,,7,,,55,0
49056,set_tempo,48288,1,0,952380,,,,,,,,,,,
49056,note_on,194,0,2,,,,,,,,5,,,79,75
49056,note_on,2,0,4,,,,,,,,7,,,43,75
49056,note_on,2,0,3,,,,,,,,6,,,71,75
49150,note_on,94,0,4,,,,,,,,7,,,43,0
49150,note_on,94,0,2,,,,,,,,5,,,79,0
49150,note_on,94,0,3,,,,,,,,6,,,71,0
49152,note_on,2,0,3,,,,,,,,6,,,72,75
49152,note_on,2,0,2,,,,,,,,5,,,76,75
49152,note_on,2,0,4,,,,,,,,7,,,48,75
49246,note_on,94,0,4,,,,,,,,7,,,48,0
49246,note_on,94,0,3,,,,,,,,6,,,72,0
49248,note_on,2,0,4,,,,,,,,7,,,60,75
49248,note_on,2,0,3,,,,,,,,6,,,65,75
49294,note_on,142,0,2,,,,,,,,5,,,76,0
49296,note_on,2,0,2,,,,,,,,5,,,74,75
49342,note_on,94,0,3,,,,,,,,6,,,65,0
49342,note_on,46,0,2,,,,,,,,5,,,74,0
49342,note_on,94,0,4,,,,,,,,7,,,60,0
49344,note_on,2,0,4,,,,,,,,7,,,48,75
49344,note_on,2,0,2,,,,,,,,5,,,72,75
49344,note_on,2,0,3,,,,,,,,6,,,64,75
49438,note_on,94,0,4,,,,,,,,7,,,48,0
49438,note_on,94,0,2,,,,,,,,5,,,72,0
49438,note_on,94,0,3,,,,,,,,6,,,64,0
49440,note_on,2,0,4,,,,,,,,7,,,43,75
49440,note_on,2,0,2,,,,,,,,5,,,72,75
49440,note_on,2,0,3,,,,,,,,6,,,62,75
49440,set_tempo,384,1,0,1000000,,,,,,,,,,,
49470,note_on,30,0,2,,,,,,,,5,,,72,0
49472,note_on,2,0,2,,,,,,,,5,,,71,75
49502,note_on,30,0,2,,,,,,,,5,,,71,0
49504,note_on,2,0,2,,,,,,,,5,,,72,75
49534,note_on,94,0,3,,,,,,,,6,,,62,0
49534,note_on,30,0,2,,,,,,,,5,,,72,0
49534,note_on,94,0,4,,,,,,,,7,,,43,0
49536,note_on,2,0,4,,,,,,,,7,,,55,75
49536,note_on,2,0,3,,,,,,,,6,,,67,75
49536,set_tempo,96,1,0,1052631,,,,,,,,,,,
49536,note_on,2,0,2,,,,,,,,5,,,71,75
49582,note_on,46,0,2,,,,,,,,5,,,71,0
49584,note_on,2,0,2,,,,,,,,5,,,74,75
49630,note_on,94,0,3,,,,,,,,6,,,67,0
49630,note_on,46,0,2,,,,,,,,5,,,74,0
49630,note_on,94,0,4,,,,,,,,7,,,55,0
49632,set_tempo,96,1,0,1111111,,,,,,,,,,,
49632,note_on,2,0,2,,,,,,,,5,,,71,75
49632,note_on,2,0,3,,,,,,,,6,,,65,75
49632,note_on,2,0,4,,,,,,,,7,,,43,75
49726,note_on,94,0,3,,,,,,,,6,,,65,0
49726,note_on,94,0,4,,,,,,,,7,,,43,0
49726,note_on,94,0,2,,,,,,,,5,,,71,0
49728,note_on,2,0,2,,,,,,,,5,,,72,75
49728,end_of_track,0,1,0,,,,,,,,,,,,
49728,set_tempo,96,1,0,800000,,,,,,,,,,,
49728,note_on,2,0,3,,,,,,,,6,,,64,75
49728,note_on,2,0,4,,,,,,,,7,,,48,75
50256,end_of_track,0,1,2,,,,,,,,,,,,
50256,end_of_track,0,1,3,,,,,,,,,,,,
50256,note_on,528,0,3,,,,,,,,6,,,64,0
50256,end_of_track,0,1,4,,,,,,,,,,,,
50256,note_on,528,0,4,,,,,,,,7,,,48,0
50256,note_on,528,0,2,,,,,,,,5,,,72,0
