tick,type,time,meta,track,tempo,key,numerator,denominator,clocks_per_click,notated_32nd_notes_per_beat,port,program,channel,control,value,note,velocity
0,track_name,0,1,0,,,,,,,,,,,,,
0,control_change,0,0,8,,,,,,,,,7,10,64,,
0,control_change,0,0,8,,,,,,,,,7,7,96,,
0,program_change,0,0,8,,,,,,,,43,7,,,,
0,track_name,0,1,8,,,,,,,,,,,,,
0,midi_port,0,1,8,,,,,,,0,,,,,,
0,end_of_track,0,1,7,,,,,,,,,,,,,
0,track_name,0,1,7,,,,,,,,,,,,,
0,midi_port,0,1,7,,,,,,,0,,,,,,
0,end_of_track,0,1,6,,,,,,,,,,,,,
0,control_change,0,0,6,,,,,,,,,5,10,64,,
0,control_change,0,0,6,,,,,,,,,5,7,96,,
0,program_change,0,0,6,,,,,,,,68,5,,,,
0,track_name,0,1,6,,,,,,,,,,,,,
0,midi_port,0,1,6,,,,,,,0,,,,,,
0,end_of_track,0,1,5,,,,,,,,,,,,,
0,control_change,0,0,5,,,,,,,,,4,10,64,,
0,control_change,0,0,5,,,,,,,,,4,7,96,,
0,program_change,0,0,5,,,,,,,,56,4,,,,
0,track_name,0,1,5,,,,,,,,,,,,,
0,midi_port,0,1,5,,,,,,,0,,,,,,
0,control_change,0,0,15,,,,,,,,,14,10,64,,
0,control_change,0,0,4,,,,,,,,,3,10,64,,
0,control_change,0,0,4,,,,,,,,,3,7,127,,
0,program_change,0,0,4,,,,,,,,48,3,,,,
0,track_name,0,1,4,,,,,,,,,,,,,
0,midi_port,0,1,4,,,,,,,0,,,,,,
0,control_change,0,0,3,,,,,,,,,2,10,64,,
0,control_change,0,0,3,,,,,,,,,2,7,127,,
0,program_change,0,0,3,,,,,,,,48,2,,,,
0,midi_port,0,1,9,,,,,,,0,,,,,,
0,track_name,0,1,3,,,,,,,,,,,,,
0,track_name,0,1,9,,,,,,,,,,,,,
0,control_change,0,0,9,,,,,,,,,8,10,64,,
0,control_change,0,0,15,,,,,,,,,14,7,127,,
0,track_name,0,1,15,,,,,,,,,,,,,
0,midi_port,0,1,15,,,,,,,0,,,,,,
0,end_of_track,0,1,14,,,,,,,,,,,,,
0,control_change,0,0,14,,,,,,,,,13,10,64,,
0,control_change,0,0,14,,,,,,,,,13,7,127,,
0,track_name,0,1,14,,,,,,,,,,,,,
0,midi_port,0,1,14,,,,,,,0,,,,,,
0,end_of_track,0,1,13,,,,,,,,,,,,,
0,control_change,0,0,13,,,,,,,,,12,10,64,,
0,control_change,0,0,13,,,,,,,,,12,7,127,,
0,track_name,0,1,13,,,,,,,,,,,,,
0,midi_port,0,1,13,,,,,,,0,,,,,,
0,end_of_track,0,1,12,,,,,,,,,,,,,
0,control_change,0,0,12,,,,,,,,,11,10,64,,
0,control_change,0,0,12,,,,,,,,,11,7,127,,
0,track_name,0,1,12,,,,,,,,,,,,,
0,midi_port,0,1,12,,,,,,,0,,,,,,
0,end_of_track,0,1,11,,,,,,,,,,,,,
0,control_change,0,0,11,,,,,,,,,10,10,64,,
0,control_change,0,0,11,,,,,,,,,10,7,127,,
0,track_name,0,1,11,,,,,,,,,,,,,
0,midi_port,0,1,11,,,,,,,0,,,,,,
0,end_of_track,0,1,10,,,,,,,,,,,,,
0,control_change,0,0,10,,,,,,,,,9,10,64,,
0,control_change,0,0,10,,,,,,,,,9,7,127,,
0,track_name,0,1,10,,,,,,,,,,,,,
0,midi_port,0,1,10,,,,,,,0,,,,,,
0,end_of_track,0,1,9,,,,,,,,,,,,,
0,control_change,0,0,9,,,,,,,,,8,7,127,,
0,midi_port,0,1,3,,,,,,,0,,,,,,
0,end_of_track,0,1,15,,,,,,,,,,,,,
0,control_change,0,0,2,,,,,,,,,1,7,127,,
0,control_change,0,0,2,,,,,,,,,1,10,64,,
0,midi_port,0,1,2,,,,,,,0,,,,,,
0,control_change,0,0,1,,,,,,,,,0,10,64,,
0,control_change,0,0,1,,,,,,,,,0,7,127,,
0,program_change,0,0,1,,,,,,,,48,0,,,,
0,track_name,0,1,1,,,,,,,,,,,,,
0,program_change,0,0,2,,,,,,,,48,1,,,,
0,midi_port,0,1,1,,,,,,,0,,,,,,
0,time_signature,0,1,0,,,4,4,24,8,,,,,,,
0,key_signature,0,1,0,,G,,,,,,,,,,,
0,set_tempo,0,1,0,416666,,,,,,,,,,,,
0,copyright,0,1,0,,,,,,,,,,,,,
0,text,0,1,0,,,,,,,,,,,,,
0,text,0,1,0,,,,,,,,,,,,,
0,track_name,0,1,2,,,,,,,,,,,,,
768,note_on,768,0,8,,,,,,,,,7,,,40,108
768,note_on,0,0,8,,,,,,,,,7,,,52,108
768,note_on,768,0,1,,,,,,,,,0,,,71,108
768,note_on,768,0,2,,,,,,,,,1,,,67,108
768,note_on,768,0,4,,,,,,,,,3,,,52,108
768,set_tempo,768,1,0,731707,,,,,,,,,,,,
768,note_on,768,0,3,,,,,,,,,2,,,59,108
1104,note_on,336,0,8,,,,,,,,,7,,,40,0
1104,note_on,336,0,4,,,,,,,,,3,,,52,0
1104,note_on,336,0,3,,,,,,,,,2,,,59,0
1104,note_on,336,0,2,,,,,,,,,1,,,67,0
1104,note_on,0,0,8,,,,,,,,,7,,,52,0
1104,note_on,336,0,1,,,,,,,,,0,,,71,0
1152,note_on,0,0,8,,,,,,,,,7,,,52,108
1152,note_on,48,0,3,,,,,,,,,2,,,59,108
1152,note_on,48,0,2,,,,,,,,,1,,,67,108
1152,note_on,48,0,1,,,,,,,,,0,,,71,108
1152,note_on,48,0,4,,,,,,,,,3,,,52,108
1152,note_on,48,0,8,,,,,,,,,7,,,40,108
1312,note_on,160,0,2,,,,,,,,,1,,,67,0
1312,note_on,160,0,8,,,,,,,,,7,,,40,0
1312,note_on,0,0,8,,,,,,,,,7,,,52,0
1312,note_on,160,0,1,,,,,,,,,0,,,71,0
1312,note_on,160,0,3,,,,,,,,,2,,,59,0
1312,note_on,160,0,4,,,,,,,,,3,,,52,0
1344,note_on,32,0,4,,,,,,,,,3,,,52,108
1344,note_on,32,0,8,,,,,,,,,7,,,40,108
1344,note_on,0,0,8,,,,,,,,,7,,,52,108
1344,note_on,32,0,1,,,,,,,,,0,,,71,108
1344,note_on,32,0,3,,,,,,,,,2,,,59,108
1344,note_on,32,0,2,,,,,,,,,1,,,67,108
1504,note_on,160,0,2,,,,,,,,,1,,,67,0
1504,note_on,160,0,8,,,,,,,,,7,,,40,0
1504,note_on,0,0,8,,,,,,,,,7,,,52,0
1504,note_on,160,0,4,,,,,,,,,3,,,52,0
1504,note_on,160,0,3,,,,,,,,,2,,,59,0
1504,note_on,160,0,1,,,,,,,,,0,,,71,0
1536,note_on,32,0,4,,,,,,,,,3,,,52,108
1536,note_on,32,0,2,,,,,,,,,1,,,67,108
1536,note_on,32,0,8,,,,,,,,,7,,,40,108
1536,note_on,32,0,3,,,,,,,,,2,,,64,108
1536,note_on,32,0,1,,,,,,,,,0,,,72,108
1536,note_on,0,0,8,,,,,,,,,7,,,52,108
1872,note_on,336,0,8,,,,,,,,,7,,,40,0
1872,note_on,0,0,8,,,,,,,,,7,,,52,0
1872,note_on,336,0,1,,,,,,,,,0,,,72,0
1872,note_on,336,0,2,,,,,,,,,1,,,67,0
1872,note_on,336,0,4,,,,,,,,,3,,,52,0
1872,note_on,336,0,3,,,,,,,,,2,,,64,0
1920,note_on,48,0,8,,,,,,,,,7,,,40,108
1920,note_on,0,0,8,,,,,,,,,7,,,52,108
1920,note_on,48,0,1,,,,,,,,,0,,,72,108
1920,note_on,48,0,4,,,,,,,,,3,,,52,108
1920,note_on,48,0,2,,,,,,,,,1,,,67,108
1920,note_on,48,0,3,,,,,,,,,2,,,64,108
2080,note_on,160,0,4,,,,,,,,,3,,,52,0
2080,note_on,160,0,1,,,,,,,,,0,,,72,0
2080,note_on,160,0,2,,,,,,,,,1,,,67,0
2080,note_on,0,0,8,,,,,,,,,7,,,52,0
2080,note_on,160,0,8,,,,,,,,,7,,,40,0
2080,note_on,160,0,3,,,,,,,,,2,,,64,0
2112,note_on,32,0,2,,,,,,,,,1,,,67,108
2112,note_on,32,0,4,,,,,,,,,3,,,52,108
2112,note_on,0,0,8,,,,,,,,,7,,,52,108
2112,note_on,32,0,1,,,,,,,,,0,,,72,108
2112,note_on,32,0,3,,,,,,,,,2,,,64,108
2112,note_on,32,0,8,,,,,,,,,7,,,40,108
2272,note_on,0,0,8,,,,,,,,,7,,,52,0
2272,note_on,160,0,1,,,,,,,,,0,,,72,0
2272,note_on,160,0,8,,,,,,,,,7,,,40,0
2272,note_on,160,0,2,,,,,,,,,1,,,67,0
2272,note_on,160,0,3,,,,,,,,,2,,,64,0
2272,note_on,160,0,4,,,,,,,,,3,,,52,0
2304,note_on,32,0,8,,,,,,,,,7,,,33,108
2304,note_on,32,0,1,,,,,,,,,0,,,73,108
2304,note_on,32,0,3,,,,,,,,,2,,,64,108
2304,note_on,0,0,8,,,,,,,,,7,,,45,108
2304,note_on,32,0,4,,,,,,,,,3,,,57,108
2304,note_on,32,0,2,,,,,,,,,1,,,67,108
2640,note_on,336,0,3,,,,,,,,,2,,,64,0
2640,note_on,336,0,1,,,,,,,,,0,,,73,0
2640,note_on,336,0,2,,,,,,,,,1,,,67,0
2640,note_on,336,0,8,,,,,,,,,7,,,33,0
2640,note_on,0,0,8,,,,,,,,,7,,,45,0
2640,note_on,336,0,4,,,,,,,,,3,,,57,0
2688,note_on,0,0,8,,,,,,,,,7,,,45,108
2688,note_on,48,0,4,,,,,,,,,3,,,57,108
2688,note_on,48,0,3,,,,,,,,,2,,,64,108
2688,note_on,48,0,8,,,,,,,,,7,,,33,108
2688,set_tempo,1920,1,0,1250000,,,,,,,,,,,,
2688,note_on,48,0,1,,,,,,,,,0,,,73,108
2688,note_on,48,0,2,,,,,,,,,1,,,67,108
3024,note_on,336,0,2,,,,,,,,,1,,,67,0
3024,note_on,336,0,1,,,,,,,,,0,,,73,0
3024,note_on,336,0,3,,,,,,,,,2,,,64,0
3024,note_on,336,0,4,,,,,,,,,3,,,57,0
3024,note_on,336,0,8,,,,,,,,,7,,,33,0
3024,note_on,0,0,8,,,,,,,,,7,,,45,0
3072,note_on,0,0,8,,,,,,,,,7,,,45,108
3072,note_on,48,0,4,,,,,,,,,3,,,57,108
3072,set_tempo,384,1,0,731707,,,,,,,,,,,,
3072,note_on,48,0,2,,,,,,,,,1,,,66,108
3072,note_on,48,0,3,,,,,,,,,2,,,59,108
3072,note_on,48,0,1,,,,,,,,,0,,,75,108
3072,note_on,48,0,8,,,,,,,,,7,,,33,108
3408,note_on,336,0,3,,,,,,,,,2,,,59,0
3408,note_on,336,0,8,,,,,,,,,7,,,33,0
3408,note_on,336,0,1,,,,,,,,,0,,,75,0
3408,note_on,336,0,2,,,,,,,,,1,,,66,0
3408,note_on,336,0,4,,,,,,,,,3,,,57,0
3408,note_on,0,0,8,,,,,,,,,7,,,45,0
3456,note_on,48,0,1,,,,,,,,,0,,,75,108
3456,note_on,48,0,2,,,,,,,,,1,,,66,108
3456,note_on,0,0,8,,,,,,,,,7,,,45,108
3456,note_on,48,0,8,,,,,,,,,7,,,33,108
3456,note_on,48,0,3,,,,,,,,,2,,,59,108
3456,note_on,48,0,4,,,,,,,,,3,,,57,108
3616,note_on,160,0,2,,,,,,,,,1,,,66,0
3616,note_on,0,0,8,,,,,,,,,7,,,45,0
3616,note_on,160,0,8,,,,,,,,,7,,,33,0
3616,note_on,160,0,4,,,,,,,,,3,,,57,0
3616,note_on,160,0,3,,,,,,,,,2,,,59,0
3616,note_on,160,0,1,,,,,,,,,0,,,75,0
3648,note_on,32,0,4,,,,,,,,,3,,,57,108
3648,note_on,32,0,2,,,,,,,,,1,,,66,108
3648,note_on,32,0,1,,,,,,,,,0,,,75,108
3648,note_on,32,0,3,,,,,,,,,2,,,59,108
3648,note_on,32,0,8,,,,,,,,,7,,,33,108
3648,note_on,0,0,8,,,,,,,,,7,,,45,108
3808,note_on,160,0,2,,,,,,,,,1,,,66,0
3808,note_on,0,0,8,,,,,,,,,7,,,45,0
3808,note_on,160,0,4,,,,,,,,,3,,,57,0
3808,note_on,160,0,3,,,,,,,,,2,,,59,0
3808,note_on,160,0,1,,,,,,,,,0,,,75,0
3808,note_on,160,0,8,,,,,,,,,7,,,33,0
3840,note_on,32,0,2,,,,,,,,,1,,,66,108
3840,note_on,32,0,8,,,,,,,,,7,,,34,108
3840,note_on,0,0,8,,,,,,,,,7,,,46,108
3840,note_on,32,0,4,,,,,,,,,3,,,58,108
3840,note_on,32,0,3,,,,,,,,,2,,,61,108
3840,note_on,32,0,1,,,,,,,,,0,,,76,108
4176,note_on,336,0,3,,,,,,,,,2,,,61,0
4176,note_on,336,0,4,,,,,,,,,3,,,58,0
4176,note_on,336,0,2,,,,,,,,,1,,,66,0
4176,note_on,336,0,1,,,,,,,,,0,,,76,0
4176,note_on,336,0,8,,,,,,,,,7,,,34,0
4176,note_on,0,0,8,,,,,,,,,7,,,46,0
4224,note_on,48,0,4,,,,,,,,,3,,,58,108
4224,note_on,48,0,2,,,,,,,,,1,,,66,108
4224,note_on,0,0,8,,,,,,,,,7,,,46,108
4224,note_on,48,0,1,,,,,,,,,0,,,76,108
4224,note_on,48,0,8,,,,,,,,,7,,,34,108
4224,note_on,48,0,3,,,,,,,,,2,,,61,108
4384,note_on,160,0,2,,,,,,,,,1,,,66,0
4384,note_on,160,0,8,,,,,,,,,7,,,34,0
4384,note_on,0,0,8,,,,,,,,,7,,,46,0
4384,note_on,160,0,4,,,,,,,,,3,,,58,0
4384,note_on,160,0,3,,,,,,,,,2,,,61,0
4384,note_on,160,0,1,,,,,,,,,0,,,76,0
4416,note_on,32,0,4,,,,,,,,,3,,,58,108
4416,note_on,32,0,2,,,,,,,,,1,,,66,108
4416,note_on,32,0,1,,,,,,,,,0,,,76,108
4416,note_on,32,0,3,,,,,,,,,2,,,61,108
4416,note_on,0,0,8,,,,,,,,,7,,,46,108
4416,note_on,32,0,8,,,,,,,,,7,,,34,108
4576,note_on,160,0,2,,,,,,,,,1,,,66,0
4576,note_on,0,0,8,,,,,,,,,7,,,46,0
4576,note_on,160,0,8,,,,,,,,,7,,,34,0
4576,note_on,160,0,4,,,,,,,,,3,,,58,0
4576,note_on,160,0,3,,,,,,,,,2,,,61,0
4576,note_on,160,0,1,,,,,,,,,0,,,76,0
4608,note_on,32,0,4,,,,,,,,,3,,,59,108
4608,note_on,32,0,2,,,,,,,,,1,,,66,108
4608,note_on,32,0,3,,,,,,,,,2,,,59,108
4608,note_on,32,0,8,,,,,,,,,7,,,35,108
4608,note_on,0,0,8,,,,,,,,,7,,,47,108
4608,note_on,32,0,1,,,,,,,,,0,,,75,108
4944,note_on,336,0,1,,,,,,,,,0,,,75,0
4944,note_on,336,0,4,,,,,,,,,3,,,59,0
4944,note_on,336,0,8,,,,,,,,,7,,,35,0
4944,note_on,0,0,8,,,,,,,,,7,,,47,0
4944,note_on,336,0,2,,,,,,,,,1,,,66,0
4944,note_on,336,0,3,,,,,,,,,2,,,59,0
4992,note_on,48,0,8,,,,,,,,,7,,,35,108
4992,note_on,48,0,3,,,,,,,,,2,,,59,108
4992,note_on,48,0,2,,,,,,,,,1,,,66,108
4992,note_on,48,0,1,,,,,,,,,0,,,75,108
4992,end_of_track,0,1,0,,,,,,,,,,,,,
4992,note_on,48,0,4,,,,,,,,,3,,,59,108
4992,note_on,0,0,8,,,,,,,,,7,,,47,108
4992,set_tempo,1920,1,0,1500000,,,,,,,,,,,,
5328,note_on,336,0,3,,,,,,,,,2,,,59,0
5328,end_of_track,0,1,4,,,,,,,,,,,,,
5328,end_of_track,0,1,1,,,,,,,,,,,,,
5328,note_on,336,0,1,,,,,,,,,0,,,75,0
5328,end_of_track,0,1,2,,,,,,,,,,,,,
5328,end_of_track,0,1,3,,,,,,,,,,,,,
5328,end_of_track,0,1,8,,,,,,,,,,,,,
5328,note_on,0,0,8,,,,,,,,,7,,,47,0
5328,note_on,336,0,8,,,,,,,,,7,,,35,0
5328,note_on,336,0,4,,,,,,,,,3,,,59,0
5328,note_on,336,0,2,,,,,,,,,1,,,66,0
