tick,type,time,meta,track,tempo,key,numerator,denominator,clocks_per_click,notated_32nd_notes_per_beat,port,program,channel,control,value,note,velocity
0,track_name,0,1,0,,,,,,,,,,,,,
0,track_name,0,1,8,,,,,,,,,,,,,
0,midi_port,0,1,8,,,,,,,0,,,,,,
0,control_change,0,0,7,,,,,,,,,6,10,64,,
0,control_change,0,0,7,,,,,,,,,6,7,96,,
0,program_change,0,0,7,,,,,,,,40,6,,,,
0,track_name,0,1,7,,,,,,,,,,,,,
0,midi_port,0,1,7,,,,,,,0,,,,,,
0,control_change,0,0,15,,,,,,,,,14,10,64,,
0,control_change,0,0,6,,,,,,,,,5,10,64,,
0,control_change,0,0,6,,,,,,,,,5,7,96,,
0,program_change,0,0,6,,,,,,,,68,5,,,,
0,track_name,0,1,6,,,,,,,,,,,,,
0,midi_port,0,1,6,,,,,,,0,,,,,,
0,control_change,0,0,5,,,,,,,,,4,10,64,,
0,control_change,0,0,5,,,,,,,,,4,7,96,,
0,program_change,0,0,5,,,,,,,,56,4,,,,
0,track_name,0,1,5,,,,,,,,,,,,,
0,program_change,0,0,2,,,,,,,,48,1,,,,
0,control_change,0,0,2,,,,,,,,,1,7,127,,
0,control_change,0,0,2,,,,,,,,,1,10,64,,
0,midi_port,0,1,3,,,,,,,0,,,,,,
0,track_name,0,1,3,,,,,,,,,,,,,
0,program_change,0,0,3,,,,,,,,48,2,,,,
0,program_change,0,0,8,,,,,,,,43,7,,,,
0,control_change,0,0,3,,,,,,,,,2,7,127,,
0,midi_port,0,1,4,,,,,,,0,,,,,,
0,track_name,0,1,4,,,,,,,,,,,,,
0,program_change,0,0,4,,,,,,,,48,3,,,,
0,control_change,0,0,4,,,,,,,,,3,7,127,,
0,control_change,0,0,4,,,,,,,,,3,10,64,,
0,midi_port,0,1,5,,,,,,,0,,,,,,
0,control_change,0,0,3,,,,,,,,,2,10,64,,
0,control_change,0,0,8,,,,,,,,,7,7,96,,
0,control_change,0,0,8,,,,,,,,,7,10,64,,
0,midi_port,0,1,9,,,,,,,0,,,,,,
0,end_of_track,0,1,12,,,,,,,,,,,,,
0,midi_port,0,1,13,,,,,,,0,,,,,,
0,track_name,0,1,13,,,,,,,,,,,,,
0,control_change,0,0,13,,,,,,,,,12,7,127,,
0,control_change,0,0,13,,,,,,,,,12,10,64,,
0,end_of_track,0,1,13,,,,,,,,,,,,,
0,control_change,0,0,12,,,,,,,,,11,10,64,,
0,midi_port,0,1,14,,,,,,,0,,,,,,
0,control_change,0,0,14,,,,,,,,,13,7,127,,
0,control_change,0,0,14,,,,,,,,,13,10,64,,
0,end_of_track,0,1,14,,,,,,,,,,,,,
0,midi_port,0,1,15,,,,,,,0,,,,,,
0,track_name,0,1,15,,,,,,,,,,,,,
0,control_change,0,0,15,,,,,,,,,14,7,127,,
0,track_name,0,1,14,,,,,,,,,,,,,
0,track_name,0,1,2,,,,,,,,,,,,,
0,control_change,0,0,12,,,,,,,,,11,7,127,,
0,midi_port,0,1,12,,,,,,,0,,,,,,
0,track_name,0,1,9,,,,,,,,,,,,,
0,control_change,0,0,9,,,,,,,,,8,7,127,,
0,control_change,0,0,9,,,,,,,,,8,10,64,,
0,end_of_track,0,1,9,,,,,,,,,,,,,
0,midi_port,0,1,10,,,,,,,0,,,,,,
0,track_name,0,1,10,,,,,,,,,,,,,
0,track_name,0,1,12,,,,,,,,,,,,,
0,control_change,0,0,10,,,,,,,,,9,7,127,,
0,end_of_track,0,1,10,,,,,,,,,,,,,
0,midi_port,0,1,11,,,,,,,0,,,,,,
0,track_name,0,1,11,,,,,,,,,,,,,
0,control_change,0,0,11,,,,,,,,,10,7,127,,
0,control_change,0,0,11,,,,,,,,,10,10,64,,
0,end_of_track,0,1,11,,,,,,,,,,,,,
0,control_change,0,0,10,,,,,,,,,9,10,64,,
0,midi_port,0,1,2,,,,,,,0,,,,,,
0,end_of_track,0,1,15,,,,,,,,,,,,,
0,track_name,0,1,1,,,,,,,,,,,,,
0,copyright,0,1,0,,,,,,,,,,,,,
0,text,0,1,0,,,,,,,,,,,,,
0,text,0,1,0,,,,,,,,,,,,,
0,time_signature,0,1,0,,,4,4,24,8,,,,,,,
0,midi_port,0,1,1,,,,,,,0,,,,,,
0,set_tempo,0,1,0,416666,,,,,,,,,,,,
0,key_signature,0,1,0,,D,,,,,,,,,,,
0,control_change,0,0,1,,,,,,,,,0,7,127,,
0,control_change,0,0,1,,,,,,,,,0,10,64,,
0,program_change,0,0,1,,,,,,,,48,0,,,,
768,set_tempo,768,1,0,500000,,,,,,,,,,,,
768,note_on,768,0,7,,,,,,,,,6,,,62,108
768,note_on,768,0,8,,,,,,,,,7,,,50,108
768,note_on,768,0,5,,,,,,,,,4,,,62,108
768,note_on,768,0,6,,,,,,,,,5,,,62,108
862,note_on,94,0,8,,,,,,,,,7,,,50,0
862,note_on,94,0,6,,,,,,,,,5,,,62,0
862,note_on,94,0,5,,,,,,,,,4,,,62,0
862,note_on,94,0,7,,,,,,,,,6,,,62,0
864,note_on,2,0,8,,,,,,,,,7,,,62,108
864,note_on,2,0,6,,,,,,,,,5,,,74,108
864,note_on,2,0,7,,,,,,,,,6,,,74,108
864,note_on,2,0,5,,,,,,,,,4,,,74,108
958,note_on,94,0,6,,,,,,,,,5,,,74,0
958,note_on,94,0,5,,,,,,,,,4,,,74,0
958,note_on,94,0,7,,,,,,,,,6,,,74,0
958,note_on,94,0,8,,,,,,,,,7,,,62,0
960,note_on,2,0,6,,,,,,,,,5,,,62,108
960,note_on,2,0,8,,,,,,,,,7,,,50,108
960,note_on,2,0,5,,,,,,,,,4,,,62,108
960,note_on,2,0,7,,,,,,,,,6,,,62,108
1054,note_on,94,0,8,,,,,,,,,7,,,50,0
1054,note_on,94,0,5,,,,,,,,,4,,,62,0
1054,note_on,94,0,7,,,,,,,,,6,,,62,0
1054,note_on,94,0,6,,,,,,,,,5,,,62,0
1056,note_on,2,0,7,,,,,,,,,6,,,62,108
1056,note_on,2,0,5,,,,,,,,,4,,,62,108
1056,note_on,2,0,6,,,,,,,,,5,,,62,108
1056,note_on,2,0,8,,,,,,,,,7,,,50,108
1150,note_on,94,0,6,,,,,,,,,5,,,62,0
1150,note_on,94,0,8,,,,,,,,,7,,,50,0
1150,note_on,94,0,7,,,,,,,,,6,,,62,0
1150,note_on,94,0,5,,,,,,,,,4,,,62,0
1152,note_on,2,0,6,,,,,,,,,5,,,62,108
1152,note_on,2,0,5,,,,,,,,,4,,,62,108
1152,note_on,2,0,7,,,,,,,,,6,,,62,108
1152,note_on,2,0,8,,,,,,,,,7,,,50,108
1246,note_on,94,0,7,,,,,,,,,6,,,62,0
1246,note_on,94,0,6,,,,,,,,,5,,,62,0
1246,note_on,94,0,5,,,,,,,,,4,,,62,0
1246,note_on,94,0,8,,,,,,,,,7,,,50,0
1248,note_on,2,0,7,,,,,,,,,6,,,74,108
1248,note_on,2,0,5,,,,,,,,,4,,,74,108
1248,note_on,2,0,8,,,,,,,,,7,,,62,108
1248,note_on,2,0,6,,,,,,,,,5,,,74,108
1342,note_on,94,0,8,,,,,,,,,7,,,62,0
1342,note_on,94,0,7,,,,,,,,,6,,,74,0
1342,note_on,94,0,6,,,,,,,,,5,,,74,0
1342,note_on,94,0,5,,,,,,,,,4,,,74,0
1344,note_on,2,0,8,,,,,,,,,7,,,50,108
1344,note_on,2,0,7,,,,,,,,,6,,,62,108
1344,note_on,2,0,5,,,,,,,,,4,,,62,108
1344,note_on,2,0,6,,,,,,,,,5,,,62,108
1438,note_on,94,0,8,,,,,,,,,7,,,50,0
1438,note_on,94,0,5,,,,,,,,,4,,,62,0
1438,note_on,94,0,7,,,,,,,,,6,,,62,0
1438,note_on,94,0,6,,,,,,,,,5,,,62,0
1440,note_on,2,0,7,,,,,,,,,6,,,62,108
1440,note_on,2,0,8,,,,,,,,,7,,,50,108
1440,note_on,2,0,6,,,,,,,,,5,,,62,108
1440,note_on,2,0,5,,,,,,,,,4,,,62,108
1534,note_on,94,0,6,,,,,,,,,5,,,62,0
1534,note_on,94,0,5,,,,,,,,,4,,,62,0
1534,note_on,94,0,8,,,,,,,,,7,,,50,0
1534,note_on,94,0,7,,,,,,,,,6,,,62,0
1536,note_on,2,0,7,,,,,,,,,6,,,62,108
1536,note_on,2,0,5,,,,,,,,,4,,,62,108
1536,note_on,2,0,6,,,,,,,,,5,,,62,108
1536,note_on,2,0,8,,,,,,,,,7,,,50,108
1630,note_on,94,0,8,,,,,,,,,7,,,50,0
1632,note_on,2,0,8,,,,,,,,,7,,,50,108
1632,note_on,96,0,6,,,,,,,,,5,,,66,108
1632,note_on,96,0,7,,,,,,,,,6,,,66,108
1632,note_on,96,0,5,,,,,,,,,4,,,66,108
1678,note_on,46,0,7,,,,,,,,,6,,,66,0
1678,note_on,46,0,8,,,,,,,,,7,,,50,0
1678,note_on,46,0,5,,,,,,,,,4,,,66,0
1678,note_on,46,0,6,,,,,,,,,5,,,66,0
1680,note_on,2,0,7,,,,,,,,,6,,,67,108
1680,note_on,2,0,5,,,,,,,,,4,,,67,108
1680,note_on,2,0,8,,,,,,,,,7,,,52,108
1680,note_on,2,0,6,,,,,,,,,5,,,67,108
1726,note_on,0,0,5,,,,,,,,,4,,,67,0
1726,note_on,46,0,8,,,,,,,,,7,,,52,0
1726,note_on,46,0,5,,,,,,,,,4,,,62,0
1726,note_on,46,0,6,,,,,,,,,5,,,62,0
1726,note_on,0,0,6,,,,,,,,,5,,,67,0
1726,note_on,0,0,7,,,,,,,,,6,,,67,0
1726,note_on,46,0,7,,,,,,,,,6,,,62,0
1728,note_on,2,0,5,,,,,,,,,4,,,69,108
1728,note_on,2,0,6,,,,,,,,,5,,,69,108
1728,note_on,2,0,8,,,,,,,,,7,,,54,108
1728,note_on,2,0,7,,,,,,,,,6,,,69,108
1822,note_on,94,0,5,,,,,,,,,4,,,69,0
1822,note_on,94,0,8,,,,,,,,,7,,,54,0
1822,note_on,94,0,6,,,,,,,,,5,,,69,0
1822,note_on,94,0,7,,,,,,,,,6,,,69,0
1824,note_on,2,0,7,,,,,,,,,6,,,67,108
1824,note_on,2,0,5,,,,,,,,,4,,,67,108
1824,note_on,2,0,6,,,,,,,,,5,,,67,108
1824,note_on,2,0,8,,,,,,,,,7,,,52,108
1918,note_on,94,0,5,,,,,,,,,4,,,67,0
1918,note_on,94,0,6,,,,,,,,,5,,,67,0
1918,note_on,94,0,8,,,,,,,,,7,,,52,0
1918,note_on,94,0,7,,,,,,,,,6,,,67,0
1920,note_on,2,0,7,,,,,,,,,6,,,66,108
1920,note_on,2,0,8,,,,,,,,,7,,,50,108
1920,note_on,2,0,5,,,,,,,,,4,,,66,108
1920,note_on,2,0,6,,,,,,,,,5,,,66,108
2014,note_on,94,0,7,,,,,,,,,6,,,66,0
2014,note_on,94,0,8,,,,,,,,,7,,,50,0
2014,note_on,94,0,5,,,,,,,,,4,,,66,0
2014,note_on,94,0,6,,,,,,,,,5,,,66,0
2016,note_on,2,0,8,,,,,,,,,7,,,50,108
2016,note_on,2,0,5,,,,,,,,,4,,,66,108
2016,note_on,2,0,6,,,,,,,,,5,,,66,108
2016,note_on,2,0,7,,,,,,,,,6,,,66,108
2062,note_on,46,0,7,,,,,,,,,6,,,66,0
2062,note_on,46,0,8,,,,,,,,,7,,,50,0
2062,note_on,46,0,5,,,,,,,,,4,,,66,0
2062,note_on,46,0,6,,,,,,,,,5,,,66,0
2064,note_on,2,0,7,,,,,,,,,6,,,67,108
2064,note_on,2,0,6,,,,,,,,,5,,,67,108
2064,note_on,2,0,8,,,,,,,,,7,,,52,108
2064,note_on,2,0,5,,,,,,,,,4,,,67,108
2110,note_on,46,0,7,,,,,,,,,6,,,67,0
2110,note_on,46,0,5,,,,,,,,,4,,,67,0
2110,note_on,46,0,8,,,,,,,,,7,,,52,0
2110,note_on,46,0,6,,,,,,,,,5,,,67,0
2112,note_on,2,0,7,,,,,,,,,6,,,69,108
2112,note_on,2,0,5,,,,,,,,,4,,,69,108
2112,note_on,2,0,6,,,,,,,,,5,,,69,108
2112,note_on,2,0,8,,,,,,,,,7,,,54,108
2206,note_on,94,0,7,,,,,,,,,6,,,69,0
2206,note_on,94,0,8,,,,,,,,,7,,,54,0
2206,note_on,94,0,6,,,,,,,,,5,,,69,0
2206,note_on,94,0,5,,,,,,,,,4,,,69,0
2208,note_on,2,0,8,,,,,,,,,7,,,52,108
2208,note_on,2,0,7,,,,,,,,,6,,,67,108
2208,note_on,2,0,5,,,,,,,,,4,,,67,108
2208,note_on,2,0,6,,,,,,,,,5,,,67,108
2302,note_on,94,0,6,,,,,,,,,5,,,67,0
2302,note_on,94,0,7,,,,,,,,,6,,,67,0
2302,note_on,94,0,5,,,,,,,,,4,,,67,0
2302,note_on,94,0,8,,,,,,,,,7,,,52,0
2304,note_on,2,0,6,,,,,,,,,5,,,66,108
2304,note_on,2,0,8,,,,,,,,,7,,,50,108
2398,note_on,94,0,6,,,,,,,,,5,,,66,0
2400,note_on,2,0,6,,,,,,,,,5,,,74,108
2400,note_on,98,0,5,,,,,,,,,4,,,78,108
2446,note_on,46,0,6,,,,,,,,,5,,,74,0
2446,note_on,46,0,5,,,,,,,,,4,,,78,0
2448,note_on,2,0,5,,,,,,,,,4,,,79,108
2448,note_on,2,0,6,,,,,,,,,5,,,76,108
2464,note_on,160,0,8,,,,,,,,,7,,,50,0
2494,note_on,46,0,5,,,,,,,,,4,,,79,0
2494,note_on,46,0,6,,,,,,,,,5,,,76,0
2496,note_on,2,0,5,,,,,,,,,4,,,81,108
2496,note_on,2,0,6,,,,,,,,,5,,,78,108
2542,note_on,46,0,6,,,,,,,,,5,,,78,0
2542,note_on,46,0,5,,,,,,,,,4,,,81,0
2544,note_on,2,0,6,,,,,,,,,5,,,76,108
2544,note_on,2,0,5,,,,,,,,,4,,,79,108
2590,note_on,46,0,6,,,,,,,,,5,,,76,0
2590,note_on,46,0,5,,,,,,,,,4,,,79,0
2592,note_on,2,0,6,,,,,,,,,5,,,78,108
2592,note_on,2,0,5,,,,,,,,,4,,,81,108
2638,note_on,46,0,5,,,,,,,,,4,,,81,0
2638,note_on,46,0,6,,,,,,,,,5,,,78,0
2640,note_on,2,0,5,,,,,,,,,4,,,79,108
2640,note_on,2,0,6,,,,,,,,,5,,,76,108
2686,note_on,46,0,5,,,,,,,,,4,,,79,0
2686,note_on,46,0,6,,,,,,,,,5,,,76,0
2688,note_on,2,0,5,,,,,,,,,4,,,78,108
2688,note_on,2,0,6,,,,,,,,,5,,,74,108
2782,note_on,94,0,5,,,,,,,,,4,,,78,0
2782,note_on,94,0,6,,,,,,,,,5,,,74,0
2784,note_on,2,0,5,,,,,,,,,4,,,78,108
2784,note_on,2,0,6,,,,,,,,,5,,,74,108
2830,note_on,46,0,5,,,,,,,,,4,,,78,0
2830,note_on,46,0,6,,,,,,,,,5,,,74,0
2832,note_on,2,0,5,,,,,,,,,4,,,79,108
2832,note_on,2,0,6,,,,,,,,,5,,,76,108
2878,note_on,46,0,5,,,,,,,,,4,,,79,0
2878,note_on,46,0,6,,,,,,,,,5,,,76,0
2880,note_on,2,0,6,,,,,,,,,5,,,78,108
2880,note_on,2,0,5,,,,,,,,,4,,,81,108
2926,note_on,46,0,5,,,,,,,,,4,,,81,0
2926,note_on,46,0,6,,,,,,,,,5,,,78,0
2928,note_on,2,0,5,,,,,,,,,4,,,79,108
2928,note_on,2,0,6,,,,,,,,,5,,,76,108
2974,note_on,46,0,5,,,,,,,,,4,,,79,0
2974,note_on,46,0,6,,,,,,,,,5,,,76,0
2976,note_on,2,0,6,,,,,,,,,5,,,78,108
2976,note_on,2,0,5,,,,,,,,,4,,,81,108
3022,note_on,46,0,6,,,,,,,,,5,,,78,0
3022,note_on,46,0,5,,,,,,,,,4,,,81,0
3024,note_on,2,0,6,,,,,,,,,5,,,76,108
3024,note_on,2,0,5,,,,,,,,,4,,,79,108
3070,note_on,46,0,6,,,,,,,,,5,,,76,0
3070,note_on,46,0,5,,,,,,,,,4,,,79,0
3072,note_on,2,0,6,,,,,,,,,5,,,74,108
3072,note_on,2,0,5,,,,,,,,,4,,,74,108
3072,note_on,608,0,8,,,,,,,,,7,,,50,108
3072,note_on,0,0,5,,,,,,,,,4,,,78,108
3072,note_on,0,0,6,,,,,,,,,5,,,78,108
3072,note_on,770,0,7,,,,,,,,,6,,,74,108
3072,note_on,0,0,7,,,,,,,,,6,,,78,108
3166,note_on,94,0,7,,,,,,,,,6,,,74,0
3166,note_on,0,0,5,,,,,,,,,4,,,78,0
3166,note_on,94,0,5,,,,,,,,,4,,,74,0
3166,note_on,0,0,7,,,,,,,,,6,,,78,0
3166,note_on,94,0,6,,,,,,,,,5,,,74,0
3166,note_on,0,0,6,,,,,,,,,5,,,78,0
3166,note_on,94,0,8,,,,,,,,,7,,,50,0
3168,note_on,2,0,8,,,,,,,,,7,,,62,108
3168,note_on,2,0,6,,,,,,,,,5,,,74,108
3168,note_on,2,0,5,,,,,,,,,4,,,74,108
3168,note_on,2,0,7,,,,,,,,,6,,,74,108
3262,note_on,94,0,8,,,,,,,,,7,,,62,0
3262,note_on,94,0,5,,,,,,,,,4,,,74,0
3262,note_on,94,0,7,,,,,,,,,6,,,74,0
3262,note_on,94,0,6,,,,,,,,,5,,,74,0
3264,note_on,2,0,7,,,,,,,,,6,,,62,108
3264,note_on,2,0,5,,,,,,,,,4,,,62,108
3264,note_on,2,0,6,,,,,,,,,5,,,62,108
3264,note_on,2,0,8,,,,,,,,,7,,,50,108
3358,note_on,94,0,5,,,,,,,,,4,,,62,0
3358,note_on,94,0,6,,,,,,,,,5,,,62,0
3358,note_on,94,0,7,,,,,,,,,6,,,62,0
3358,note_on,94,0,8,,,,,,,,,7,,,50,0
3360,note_on,2,0,5,,,,,,,,,4,,,62,108
3360,note_on,2,0,7,,,,,,,,,6,,,62,108
3360,note_on,2,0,8,,,,,,,,,7,,,50,108
3360,note_on,2,0,6,,,,,,,,,5,,,62,108
3454,note_on,94,0,7,,,,,,,,,6,,,62,0
3454,note_on,94,0,5,,,,,,,,,4,,,62,0
3454,note_on,94,0,8,,,,,,,,,7,,,50,0
3454,note_on,94,0,6,,,,,,,,,5,,,62,0
3456,note_on,2,0,6,,,,,,,,,5,,,62,108
3456,note_on,2,0,5,,,,,,,,,4,,,62,108
3456,note_on,2,0,8,,,,,,,,,7,,,50,108
3456,note_on,2,0,7,,,,,,,,,6,,,62,108
3550,note_on,94,0,6,,,,,,,,,5,,,62,0
3550,note_on,94,0,8,,,,,,,,,7,,,50,0
3550,note_on,94,0,7,,,,,,,,,6,,,62,0
3550,note_on,94,0,5,,,,,,,,,4,,,62,0
3552,note_on,2,0,8,,,,,,,,,7,,,62,108
3552,note_on,2,0,6,,,,,,,,,5,,,74,108
3552,note_on,2,0,5,,,,,,,,,4,,,74,108
3552,note_on,2,0,7,,,,,,,,,6,,,74,108
3646,note_on,94,0,6,,,,,,,,,5,,,74,0
3646,note_on,94,0,5,,,,,,,,,4,,,74,0
3646,note_on,94,0,7,,,,,,,,,6,,,74,0
3646,note_on,94,0,8,,,,,,,,,7,,,62,0
3648,note_on,2,0,8,,,,,,,,,7,,,50,108
3648,note_on,2,0,7,,,,,,,,,6,,,62,108
3648,note_on,2,0,5,,,,,,,,,4,,,62,108
3648,note_on,2,0,6,,,,,,,,,5,,,62,108
3742,note_on,94,0,6,,,,,,,,,5,,,62,0
3742,note_on,94,0,7,,,,,,,,,6,,,62,0
3742,note_on,94,0,8,,,,,,,,,7,,,50,0
3742,note_on,94,0,5,,,,,,,,,4,,,62,0
3744,note_on,2,0,6,,,,,,,,,5,,,62,108
3744,note_on,2,0,8,,,,,,,,,7,,,50,108
3744,note_on,2,0,7,,,,,,,,,6,,,62,108
3744,note_on,2,0,5,,,,,,,,,4,,,62,108
3838,note_on,94,0,8,,,,,,,,,7,,,50,0
3838,note_on,94,0,7,,,,,,,,,6,,,62,0
3838,note_on,94,0,6,,,,,,,,,5,,,62,0
3838,note_on,94,0,5,,,,,,,,,4,,,62,0
3840,note_on,2,0,5,,,,,,,,,4,,,62,108
3840,note_on,2,0,7,,,,,,,,,6,,,62,108
3840,note_on,2,0,6,,,,,,,,,5,,,62,108
3840,note_on,2,0,8,,,,,,,,,7,,,50,108
3934,note_on,94,0,7,,,,,,,,,6,,,62,0
3934,note_on,94,0,5,,,,,,,,,4,,,62,0
3934,note_on,94,0,8,,,,,,,,,7,,,50,0
3934,note_on,94,0,6,,,,,,,,,5,,,62,0
3936,note_on,0,0,7,,,,,,,,,6,,,78,108
3936,note_on,2,0,7,,,,,,,,,6,,,74,108
3936,note_on,0,0,6,,,,,,,,,5,,,78,108
3936,note_on,2,0,6,,,,,,,,,5,,,74,108
3936,note_on,2,0,8,,,,,,,,,7,,,62,108
3936,note_on,0,0,5,,,,,,,,,4,,,78,108
3936,note_on,2,0,5,,,,,,,,,4,,,74,108
3982,note_on,46,0,6,,,,,,,,,5,,,74,0
3982,note_on,0,0,6,,,,,,,,,5,,,78,0
3982,note_on,0,0,5,,,,,,,,,4,,,78,0
3982,note_on,46,0,5,,,,,,,,,4,,,74,0
3982,note_on,46,0,7,,,,,,,,,6,,,74,0
3982,note_on,0,0,7,,,,,,,,,6,,,78,0
3984,note_on,2,0,7,,,,,,,,,6,,,76,108
3984,note_on,0,0,7,,,,,,,,,6,,,79,108
3984,note_on,0,0,5,,,,,,,,,4,,,79,108
3984,note_on,0,0,6,,,,,,,,,5,,,79,108
3984,note_on,2,0,6,,,,,,,,,5,,,76,108
3984,note_on,2,0,5,,,,,,,,,4,,,76,108
4030,note_on,94,0,8,,,,,,,,,7,,,62,0
4030,note_on,0,0,7,,,,,,,,,6,,,79,0
4030,note_on,46,0,6,,,,,,,,,5,,,76,0
4030,note_on,0,0,6,,,,,,,,,5,,,79,0
4030,note_on,0,0,5,,,,,,,,,4,,,79,0
4030,note_on,46,0,7,,,,,,,,,6,,,76,0
4030,note_on,46,0,5,,,,,,,,,4,,,76,0
4032,note_on,0,0,6,,,,,,,,,5,,,81,108
4032,note_on,2,0,6,,,,,,,,,5,,,78,108
4032,note_on,2,0,5,,,,,,,,,4,,,78,108
4032,note_on,2,0,7,,,,,,,,,6,,,78,108
4032,note_on,2,0,8,,,,,,,,,7,,,50,108
4032,note_on,0,0,7,,,,,,,,,6,,,81,108
4032,note_on,0,0,5,,,,,,,,,4,,,81,108
4078,note_on,0,0,5,,,,,,,,,4,,,81,0
4078,note_on,46,0,5,,,,,,,,,4,,,78,0
4078,note_on,46,0,6,,,,,,,,,5,,,78,0
4078,note_on,0,0,6,,,,,,,,,5,,,81,0
4078,note_on,46,0,7,,,,,,,,,6,,,78,0
4078,note_on,0,0,7,,,,,,,,,6,,,81,0
4080,note_on,2,0,6,,,,,,,,,5,,,74,108
4080,note_on,2,0,7,,,,,,,,,6,,,74,108
4080,note_on,2,0,5,,,,,,,,,4,,,74,108
4126,note_on,46,0,5,,,,,,,,,4,,,74,0
4126,note_on,46,0,6,,,,,,,,,5,,,74,0
4126,note_on,46,0,7,,,,,,,,,6,,,74,0
4126,note_on,94,0,8,,,,,,,,,7,,,50,0
4128,note_on,0,0,6,,,,,,,,,5,,,81,108
4128,note_on,2,0,6,,,,,,,,,5,,,78,108
4128,note_on,2,0,5,,,,,,,,,4,,,78,108
4128,note_on,0,0,7,,,,,,,,,6,,,81,108
4128,note_on,0,0,5,,,,,,,,,4,,,81,108
4128,note_on,2,0,7,,,,,,,,,6,,,78,108
4128,note_on,2,0,8,,,,,,,,,7,,,50,108
4174,note_on,0,0,5,,,,,,,,,4,,,81,0
4174,note_on,46,0,5,,,,,,,,,4,,,78,0
4174,note_on,0,0,6,,,,,,,,,5,,,81,0
4174,note_on,46,0,6,,,,,,,,,5,,,78,0
4174,note_on,0,0,7,,,,,,,,,6,,,81,0
4174,note_on,46,0,7,,,,,,,,,6,,,78,0
4176,note_on,2,0,6,,,,,,,,,5,,,74,108
4176,note_on,2,0,5,,,,,,,,,4,,,74,108
4176,note_on,2,0,7,,,,,,,,,6,,,74,108
4222,note_on,94,0,8,,,,,,,,,7,,,50,0
4222,note_on,46,0,6,,,,,,,,,5,,,74,0
4222,note_on,46,0,5,,,,,,,,,4,,,74,0
4222,note_on,46,0,7,,,,,,,,,6,,,74,0
4224,note_on,2,0,7,,,,,,,,,6,,,76,108
4224,note_on,2,0,8,,,,,,,,,7,,,45,108
4224,note_on,2,0,6,,,,,,,,,5,,,76,108
4224,note_on,0,0,6,,,,,,,,,5,,,81,108
4224,note_on,2,0,5,,,,,,,,,4,,,76,108
4224,note_on,0,0,5,,,,,,,,,4,,,81,108
4224,note_on,0,0,7,,,,,,,,,6,,,81,108
4270,note_on,46,0,6,,,,,,,,,5,,,76,0
4270,note_on,0,0,6,,,,,,,,,5,,,81,0
4270,note_on,46,0,5,,,,,,,,,4,,,76,0
4270,note_on,0,0,5,,,,,,,,,4,,,81,0
4270,note_on,46,0,7,,,,,,,,,6,,,76,0
4270,note_on,0,0,7,,,,,,,,,6,,,81,0
4272,note_on,2,0,5,,,,,,,,,4,,,74,108
4272,note_on,2,0,7,,,,,,,,,6,,,74,108
4272,note_on,2,0,6,,,,,,,,,5,,,74,108
4318,note_on,46,0,7,,,,,,,,,6,,,74,0
4318,note_on,94,0,8,,,,,,,,,7,,,45,0
4318,note_on,46,0,6,,,,,,,,,5,,,74,0
4318,note_on,46,0,5,,,,,,,,,4,,,74,0
4320,note_on,2,0,7,,,,,,,,,6,,,76,108
4320,note_on,0,0,7,,,,,,,,,6,,,81,108
4320,note_on,2,0,6,,,,,,,,,5,,,76,108
4320,note_on,0,0,6,,,,,,,,,5,,,81,108
4320,note_on,2,0,8,,,,,,,,,7,,,57,108
4320,note_on,2,0,5,,,,,,,,,4,,,76,108
4320,note_on,0,0,5,,,,,,,,,4,,,81,108
4366,note_on,0,0,5,,,,,,,,,4,,,81,0
4366,note_on,0,0,6,,,,,,,,,5,,,81,0
4366,note_on,46,0,5,,,,,,,,,4,,,76,0
4366,note_on,0,0,7,,,,,,,,,6,,,81,0
4366,note_on,46,0,7,,,,,,,,,6,,,76,0
4366,note_on,46,0,6,,,,,,,,,5,,,76,0
4368,note_on,2,0,5,,,,,,,,,4,,,74,108
4368,note_on,2,0,6,,,,,,,,,5,,,74,108
4368,note_on,2,0,7,,,,,,,,,6,,,74,108
4414,note_on,46,0,7,,,,,,,,,6,,,74,0
4414,note_on,46,0,5,,,,,,,,,4,,,74,0
4414,note_on,46,0,6,,,,,,,,,5,,,74,0
4414,note_on,94,0,8,,,,,,,,,7,,,57,0
4416,note_on,2,0,8,,,,,,,,,7,,,45,108
4416,note_on,2,0,5,,,,,,,,,4,,,76,108
4416,note_on,2,0,7,,,,,,,,,6,,,76,108
4416,note_on,0,0,5,,,,,,,,,4,,,81,108
4416,note_on,0,0,6,,,,,,,,,5,,,81,108
4416,note_on,2,0,6,,,,,,,,,5,,,76,108
4416,note_on,0,0,7,,,,,,,,,6,,,81,108
4462,note_on,46,0,5,,,,,,,,,4,,,76,0
4462,note_on,46,0,6,,,,,,,,,5,,,76,0
4462,note_on,46,0,7,,,,,,,,,6,,,76,0
4462,note_on,0,0,7,,,,,,,,,6,,,81,0
4462,note_on,0,0,6,,,,,,,,,5,,,81,0
4462,note_on,0,0,5,,,,,,,,,4,,,81,0
4464,note_on,2,0,5,,,,,,,,,4,,,74,108
4464,note_on,2,0,6,,,,,,,,,5,,,74,108
4464,note_on,2,0,7,,,,,,,,,6,,,74,108
4510,note_on,46,0,5,,,,,,,,,4,,,74,0
4510,note_on,94,0,8,,,,,,,,,7,,,45,0
4510,note_on,46,0,7,,,,,,,,,6,,,74,0
4510,note_on,46,0,6,,,,,,,,,5,,,74,0
4512,note_on,0,0,7,,,,,,,,,6,,,81,108
4512,note_on,0,0,6,,,,,,,,,5,,,81,108
4512,note_on,2,0,8,,,,,,,,,7,,,45,108
4512,note_on,0,0,5,,,,,,,,,4,,,81,108
4512,note_on,2,0,5,,,,,,,,,4,,,76,108
4512,note_on,2,0,6,,,,,,,,,5,,,76,108
4512,note_on,2,0,7,,,,,,,,,6,,,76,108
4558,note_on,46,0,6,,,,,,,,,5,,,76,0
4558,note_on,0,0,6,,,,,,,,,5,,,81,0
4558,note_on,46,0,7,,,,,,,,,6,,,76,0
4558,note_on,0,0,7,,,,,,,,,6,,,81,0
4558,note_on,0,0,5,,,,,,,,,4,,,81,0
4558,note_on,46,0,5,,,,,,,,,4,,,76,0
4560,note_on,2,0,7,,,,,,,,,6,,,74,108
4560,note_on,2,0,5,,,,,,,,,4,,,74,108
4560,note_on,2,0,6,,,,,,,,,5,,,74,108
4606,note_on,94,0,8,,,,,,,,,7,,,45,0
4606,note_on,46,0,6,,,,,,,,,5,,,74,0
4606,note_on,46,0,7,,,,,,,,,6,,,74,0
4606,note_on,46,0,5,,,,,,,,,4,,,74,0
4608,note_on,0,0,6,,,,,,,,,5,,,76,108
4608,note_on,0,0,7,,,,,,,,,6,,,81,108
4608,note_on,0,0,6,,,,,,,,,5,,,81,108
4608,note_on,2,0,6,,,,,,,,,5,,,73,108
4608,note_on,0,0,7,,,,,,,,,6,,,76,108
4608,note_on,0,0,5,,,,,,,,,4,,,81,108
4608,note_on,2,0,7,,,,,,,,,6,,,73,108
4608,note_on,2,0,5,,,,,,,,,4,,,73,108
4608,note_on,2,0,8,,,,,,,,,7,,,45,108
4608,note_on,0,0,5,,,,,,,,,4,,,76,108
4654,note_on,46,0,5,,,,,,,,,4,,,73,0
4654,note_on,0,0,5,,,,,,,,,4,,,76,0
4654,note_on,0,0,5,,,,,,,,,4,,,81,0
4654,note_on,46,0,7,,,,,,,,,6,,,73,0
4654,note_on,0,0,7,,,,,,,,,6,,,76,0
4654,note_on,46,0,6,,,,,,,,,5,,,73,0
4654,note_on,0,0,6,,,,,,,,,5,,,76,0
4654,note_on,0,0,6,,,,,,,,,5,,,81,0
4654,note_on,0,0,7,,,,,,,,,6,,,81,0
4656,note_on,2,0,7,,,,,,,,,6,,,69,108
4656,note_on,2,0,6,,,,,,,,,5,,,69,108
4656,note_on,2,0,5,,,,,,,,,4,,,69,108
4702,note_on,46,0,7,,,,,,,,,6,,,69,0
4702,note_on,46,0,6,,,,,,,,,5,,,69,0
4702,note_on,46,0,5,,,,,,,,,4,,,69,0
4702,note_on,94,0,8,,,,,,,,,7,,,45,0
4704,note_on,2,0,8,,,,,,,,,7,,,57,108
4704,note_on,0,0,5,,,,,,,,,4,,,76,108
4704,note_on,0,0,7,,,,,,,,,6,,,81,108
4704,note_on,2,0,5,,,,,,,,,4,,,73,108
4704,note_on,0,0,7,,,,,,,,,6,,,76,108
4704,note_on,0,0,6,,,,,,,,,5,,,81,108
4704,note_on,0,0,6,,,,,,,,,5,,,76,108
4704,note_on,2,0,6,,,,,,,,,5,,,73,108
4704,note_on,0,0,5,,,,,,,,,4,,,81,108
4704,note_on,2,0,7,,,,,,,,,6,,,73,108
4750,note_on,0,0,5,,,,,,,,,4,,,76,0
4750,note_on,46,0,7,,,,,,,,,6,,,73,0
4750,note_on,0,0,7,,,,,,,,,6,,,76,0
4750,note_on,0,0,7,,,,,,,,,6,,,81,0
4750,note_on,0,0,5,,,,,,,,,4,,,81,0
4750,note_on,0,0,6,,,,,,,,,5,,,81,0
4750,note_on,46,0,6,,,,,,,,,5,,,73,0
4750,note_on,0,0,6,,,,,,,,,5,,,76,0
4750,note_on,46,0,5,,,,,,,,,4,,,73,0
4752,note_on,2,0,5,,,,,,,,,4,,,69,108
4752,note_on,2,0,7,,,,,,,,,6,,,69,108
4752,note_on,2,0,6,,,,,,,,,5,,,69,108
4798,note_on,94,0,8,,,,,,,,,7,,,57,0
4798,note_on,46,0,5,,,,,,,,,4,,,69,0
4798,note_on,46,0,7,,,,,,,,,6,,,69,0
4798,note_on,46,0,6,,,,,,,,,5,,,69,0
4800,note_on,2,0,7,,,,,,,,,6,,,73,108
4800,note_on,0,0,7,,,,,,,,,6,,,81,108
4800,note_on,2,0,6,,,,,,,,,5,,,73,108
4800,note_on,2,0,8,,,,,,,,,7,,,45,108
4800,note_on,2,0,5,,,,,,,,,4,,,73,108
4800,note_on,0,0,5,,,,,,,,,4,,,76,108
4800,note_on,0,0,5,,,,,,,,,4,,,81,108
4800,note_on,0,0,7,,,,,,,,,6,,,76,108
4800,note_on,0,0,6,,,,,,,,,5,,,81,108
4800,note_on,0,0,6,,,,,,,,,5,,,76,108
4846,note_on,0,0,5,,,,,,,,,4,,,76,0
4846,note_on,0,0,5,,,,,,,,,4,,,81,0
4846,note_on,46,0,7,,,,,,,,,6,,,73,0
4846,note_on,46,0,6,,,,,,,,,5,,,73,0
4846,note_on,0,0,6,,,,,,,,,5,,,76,0
4846,note_on,0,0,6,,,,,,,,,5,,,81,0
4846,note_on,0,0,7,,,,,,,,,6,,,81,0
4846,note_on,0,0,7,,,,,,,,,6,,,76,0
4846,note_on,46,0,5,,,,,,,,,4,,,73,0
4848,note_on,2,0,5,,,,,,,,,4,,,69,108
4848,note_on,2,0,6,,,,,,,,,5,,,69,108
4848,note_on,2,0,7,,,,,,,,,6,,,69,108
4894,note_on,46,0,7,,,,,,,,,6,,,69,0
4894,note_on,46,0,5,,,,,,,,,4,,,69,0
4894,note_on,94,0,8,,,,,,,,,7,,,45,0
4894,note_on,46,0,6,,,,,,,,,5,,,69,0
4896,note_on,2,0,6,,,,,,,,,5,,,73,108
4896,note_on,0,0,7,,,,,,,,,6,,,76,108
4896,note_on,2,0,7,,,,,,,,,6,,,73,108
4896,note_on,2,0,8,,,,,,,,,7,,,45,108
4896,note_on,0,0,7,,,,,,,,,6,,,81,108
4896,note_on,0,0,6,,,,,,,,,5,,,81,108
4896,note_on,0,0,5,,,,,,,,,4,,,81,108
4896,note_on,2,0,5,,,,,,,,,4,,,73,108
4896,note_on,0,0,6,,,,,,,,,5,,,76,108
4896,note_on,0,0,5,,,,,,,,,4,,,76,108
4942,note_on,0,0,7,,,,,,,,,6,,,81,0
4942,note_on,0,0,6,,,,,,,,,5,,,81,0
4942,note_on,0,0,6,,,,,,,,,5,,,76,0
4942,note_on,0,0,7,,,,,,,,,6,,,76,0
4942,note_on,46,0,7,,,,,,,,,6,,,73,0
4942,note_on,46,0,6,,,,,,,,,5,,,73,0
4942,note_on,0,0,5,,,,,,,,,4,,,81,0
4942,note_on,0,0,5,,,,,,,,,4,,,76,0
4942,note_on,46,0,5,,,,,,,,,4,,,73,0
4944,note_on,2,0,7,,,,,,,,,6,,,69,108
4944,note_on,2,0,5,,,,,,,,,4,,,69,108
4944,note_on,2,0,6,,,,,,,,,5,,,69,108
4990,note_on,94,0,8,,,,,,,,,7,,,45,0
4990,note_on,46,0,5,,,,,,,,,4,,,69,0
4990,note_on,46,0,6,,,,,,,,,5,,,69,0
4990,note_on,46,0,7,,,,,,,,,6,,,69,0
4992,note_on,0,0,6,,,,,,,,,5,,,74,108
4992,note_on,0,0,6,,,,,,,,,5,,,78,108
4992,note_on,4992,0,4,,,,,,,,,3,,,50,108
4992,note_on,2,0,5,,,,,,,,,4,,,69,108
4992,note_on,4992,0,3,,,,,,,,,2,,,57,108
4992,note_on,4992,0,1,,,,,,,,,0,,,74,108
4992,note_on,0,0,5,,,,,,,,,4,,,74,108
4992,note_on,0,0,5,,,,,,,,,4,,,78,108
4992,note_on,2,0,8,,,,,,,,,7,,,50,108
4992,note_on,2,0,6,,,,,,,,,5,,,69,108
4992,note_on,0,0,7,,,,,,,,,6,,,74,108
4992,note_on,0,0,7,,,,,,,,,6,,,78,108
4992,note_on,2,0,7,,,,,,,,,6,,,69,108
4992,note_on,4992,0,2,,,,,,,,,1,,,66,108
5086,note_on,94,0,7,,,,,,,,,6,,,69,0
5086,note_on,0,0,7,,,,,,,,,6,,,74,0
5086,note_on,0,0,7,,,,,,,,,6,,,78,0
5086,note_on,0,0,6,,,,,,,,,5,,,78,0
5086,note_on,0,0,6,,,,,,,,,5,,,74,0
5086,note_on,94,0,6,,,,,,,,,5,,,69,0
5086,note_on,94,0,8,,,,,,,,,7,,,50,0
5086,note_on,94,0,5,,,,,,,,,4,,,69,0
5086,note_on,0,0,5,,,,,,,,,4,,,74,0
5086,note_on,0,0,5,,,,,,,,,4,,,78,0
5088,note_on,2,0,6,,,,,,,,,5,,,74,108
5088,note_on,2,0,7,,,,,,,,,6,,,74,108
5088,note_on,2,0,8,,,,,,,,,7,,,62,108
5088,note_on,2,0,5,,,,,,,,,4,,,74,108
5134,note_on,142,0,2,,,,,,,,,1,,,66,0
5134,note_on,142,0,1,,,,,,,,,0,,,74,0
5134,note_on,142,0,4,,,,,,,,,3,,,50,0
5134,note_on,142,0,3,,,,,,,,,2,,,57,0
5136,note_on,2,0,4,,,,,,,,,3,,,50,108
5136,note_on,2,0,1,,,,,,,,,0,,,74,108
5136,note_on,2,0,2,,,,,,,,,1,,,66,108
5136,note_on,2,0,3,,,,,,,,,2,,,57,108
5182,note_on,94,0,5,,,,,,,,,4,,,74,0
5182,note_on,46,0,4,,,,,,,,,3,,,50,0
5182,note_on,94,0,6,,,,,,,,,5,,,74,0
5182,note_on,46,0,2,,,,,,,,,1,,,66,0
5182,note_on,94,0,7,,,,,,,,,6,,,74,0
5182,note_on,46,0,3,,,,,,,,,2,,,57,0
5182,note_on,94,0,8,,,,,,,,,7,,,62,0
5182,note_on,46,0,1,,,,,,,,,0,,,74,0
5184,note_on,2,0,6,,,,,,,,,5,,,62,108
5184,note_on,2,0,5,,,,,,,,,4,,,62,108
5184,note_on,2,0,8,,,,,,,,,7,,,50,108
5184,note_on,2,0,3,,,,,,,,,2,,,57,108
5184,note_on,2,0,2,,,,,,,,,1,,,66,108
5184,note_on,2,0,4,,,,,,,,,3,,,50,108
5184,note_on,2,0,1,,,,,,,,,0,,,74,108
5184,note_on,2,0,7,,,,,,,,,6,,,62,108
5278,note_on,94,0,5,,,,,,,,,4,,,62,0
5278,note_on,94,0,4,,,,,,,,,3,,,50,0
5278,note_on,94,0,7,,,,,,,,,6,,,62,0
5278,note_on,94,0,6,,,,,,,,,5,,,62,0
5278,note_on,94,0,2,,,,,,,,,1,,,66,0
5278,note_on,94,0,1,,,,,,,,,0,,,74,0
5278,note_on,94,0,3,,,,,,,,,2,,,57,0
5278,note_on,94,0,8,,,,,,,,,7,,,50,0
5280,note_on,2,0,5,,,,,,,,,4,,,62,108
5280,note_on,2,0,7,,,,,,,,,6,,,62,108
5280,note_on,2,0,6,,,,,,,,,5,,,62,108
5280,note_on,2,0,8,,,,,,,,,7,,,50,108
5280,note_on,2,0,4,,,,,,,,,3,,,50,108
5280,note_on,2,0,1,,,,,,,,,0,,,74,108
5280,note_on,2,0,2,,,,,,,,,1,,,66,108
5280,note_on,2,0,3,,,,,,,,,2,,,57,108
5374,note_on,94,0,3,,,,,,,,,2,,,57,0
5374,note_on,94,0,7,,,,,,,,,6,,,62,0
5374,note_on,94,0,8,,,,,,,,,7,,,50,0
5374,note_on,94,0,2,,,,,,,,,1,,,66,0
5374,note_on,94,0,5,,,,,,,,,4,,,62,0
5374,note_on,94,0,6,,,,,,,,,5,,,62,0
5374,note_on,94,0,1,,,,,,,,,0,,,74,0
5374,note_on,94,0,4,,,,,,,,,3,,,50,0
5376,note_on,2,0,1,,,,,,,,,0,,,74,108
5376,note_on,2,0,2,,,,,,,,,1,,,66,108
5376,note_on,2,0,7,,,,,,,,,6,,,62,108
5376,note_on,2,0,5,,,,,,,,,4,,,62,108
5376,note_on,2,0,4,,,,,,,,,3,,,50,108
5376,note_on,2,0,8,,,,,,,,,7,,,50,108
5376,note_on,2,0,3,,,,,,,,,2,,,57,108
5376,note_on,2,0,6,,,,,,,,,5,,,62,108
5470,note_on,94,0,7,,,,,,,,,6,,,62,0
5470,note_on,94,0,2,,,,,,,,,1,,,66,0
5470,note_on,94,0,8,,,,,,,,,7,,,50,0
5470,note_on,94,0,6,,,,,,,,,5,,,62,0
5470,note_on,94,0,3,,,,,,,,,2,,,57,0
5470,note_on,94,0,1,,,,,,,,,0,,,74,0
5470,note_on,94,0,4,,,,,,,,,3,,,50,0
5470,note_on,94,0,5,,,,,,,,,4,,,62,0
5472,note_on,2,0,8,,,,,,,,,7,,,62,108
5472,note_on,2,0,2,,,,,,,,,1,,,66,108
5472,note_on,2,0,3,,,,,,,,,2,,,57,108
5472,note_on,2,0,4,,,,,,,,,3,,,50,108
5472,note_on,2,0,1,,,,,,,,,0,,,74,108
5472,note_on,2,0,7,,,,,,,,,6,,,74,108
5472,note_on,2,0,5,,,,,,,,,4,,,74,108
5472,note_on,2,0,6,,,,,,,,,5,,,74,108
5566,note_on,94,0,6,,,,,,,,,5,,,74,0
5566,note_on,94,0,5,,,,,,,,,4,,,74,0
5566,note_on,94,0,1,,,,,,,,,0,,,74,0
5566,note_on,94,0,2,,,,,,,,,1,,,66,0
5566,note_on,94,0,3,,,,,,,,,2,,,57,0
5566,note_on,94,0,8,,,,,,,,,7,,,62,0
5566,note_on,94,0,4,,,,,,,,,3,,,50,0
5566,note_on,94,0,7,,,,,,,,,6,,,74,0
5568,note_on,2,0,2,,,,,,,,,1,,,66,108
5568,note_on,2,0,4,,,,,,,,,3,,,50,108
5568,note_on,2,0,5,,,,,,,,,4,,,62,108
5568,note_on,2,0,1,,,,,,,,,0,,,74,108
5568,note_on,2,0,6,,,,,,,,,5,,,62,108
5568,note_on,2,0,3,,,,,,,,,2,,,57,108
5568,note_on,2,0,7,,,,,,,,,6,,,62,108
5568,note_on,2,0,8,,,,,,,,,7,,,50,108
5662,note_on,94,0,6,,,,,,,,,5,,,62,0
5662,note_on,94,0,7,,,,,,,,,6,,,62,0
5662,note_on,94,0,5,,,,,,,,,4,,,62,0
5662,note_on,94,0,8,,,,,,,,,7,,,50,0
5664,note_on,2,0,8,,,,,,,,,7,,,50,108
5664,note_on,2,0,6,,,,,,,,,5,,,62,108
5664,note_on,2,0,5,,,,,,,,,4,,,62,108
5664,note_on,2,0,7,,,,,,,,,6,,,62,108
5728,note_on,160,0,4,,,,,,,,,3,,,50,0
5728,note_on,160,0,3,,,,,,,,,2,,,57,0
5728,note_on,160,0,1,,,,,,,,,0,,,74,0
5728,note_on,160,0,2,,,,,,,,,1,,,66,0
5758,note_on,94,0,5,,,,,,,,,4,,,62,0
5758,note_on,94,0,8,,,,,,,,,7,,,50,0
5758,note_on,94,0,7,,,,,,,,,6,,,62,0
5758,note_on,94,0,6,,,,,,,,,5,,,62,0
5760,note_on,2,0,7,,,,,,,,,6,,,62,108
5760,note_on,2,0,5,,,,,,,,,4,,,62,108
5760,note_on,32,0,3,,,,,,,,,2,,,57,108
5760,note_on,32,0,4,,,,,,,,,3,,,50,108
5760,note_on,2,0,8,,,,,,,,,7,,,50,108
5760,note_on,2,0,6,,,,,,,,,5,,,62,108
5760,note_on,32,0,1,,,,,,,,,0,,,74,108
5760,note_on,32,0,2,,,,,,,,,1,,,66,108
5854,note_on,94,0,5,,,,,,,,,4,,,62,0
5854,note_on,94,0,7,,,,,,,,,6,,,62,0
5854,note_on,94,0,6,,,,,,,,,5,,,62,0
5856,note_on,2,0,7,,,,,,,,,6,,,74,108
5856,note_on,0,0,7,,,,,,,,,6,,,78,108
5856,note_on,2,0,6,,,,,,,,,5,,,74,108
5856,note_on,0,0,6,,,,,,,,,5,,,78,108
5902,note_on,0,0,6,,,,,,,,,5,,,78,0
5902,note_on,46,0,6,,,,,,,,,5,,,74,0
5902,note_on,46,0,7,,,,,,,,,6,,,74,0
5902,note_on,0,0,7,,,,,,,,,6,,,78,0
5904,note_on,2,0,6,,,,,,,,,5,,,76,108
5904,note_on,0,0,6,,,,,,,,,5,,,79,108
5904,note_on,2,0,7,,,,,,,,,6,,,76,108
5904,note_on,0,0,7,,,,,,,,,6,,,79,108
5920,note_on,160,0,4,,,,,,,,,3,,,50,0
5920,note_on,160,0,8,,,,,,,,,7,,,50,0
5920,note_on,160,0,3,,,,,,,,,2,,,57,0
5920,note_on,160,0,2,,,,,,,,,1,,,66,0
5920,note_on,160,0,1,,,,,,,,,0,,,74,0
5950,note_on,0,0,7,,,,,,,,,6,,,79,0
5950,note_on,46,0,6,,,,,,,,,5,,,76,0
5950,note_on,46,0,7,,,,,,,,,6,,,76,0
5950,note_on,0,0,6,,,,,,,,,5,,,79,0
5952,note_on,2,0,6,,,,,,,,,5,,,78,108
5952,note_on,0,0,6,,,,,,,,,5,,,81,108
5952,note_on,0,0,7,,,,,,,,,6,,,81,108
5952,note_on,2,0,7,,,,,,,,,6,,,78,108
5998,note_on,46,0,7,,,,,,,,,6,,,78,0
5998,note_on,0,0,7,,,,,,,,,6,,,81,0
5998,note_on,46,0,6,,,,,,,,,5,,,78,0
5998,note_on,0,0,6,,,,,,,,,5,,,81,0
6000,note_on,2,0,7,,,,,,,,,6,,,76,108
6000,note_on,0,0,7,,,,,,,,,6,,,79,108
6000,note_on,2,0,6,,,,,,,,,5,,,76,108
6000,note_on,0,0,6,,,,,,,,,5,,,79,108
6046,note_on,0,0,6,,,,,,,,,5,,,79,0
6046,note_on,46,0,6,,,,,,,,,5,,,76,0
6046,note_on,46,0,7,,,,,,,,,6,,,76,0
6046,note_on,0,0,7,,,,,,,,,6,,,79,0
6048,note_on,0,0,6,,,,,,,,,5,,,81,108
6048,note_on,2,0,6,,,,,,,,,5,,,78,108
6048,note_on,2,0,7,,,,,,,,,6,,,78,108
6048,note_on,0,0,7,,,,,,,,,6,,,81,108
6094,note_on,0,0,7,,,,,,,,,6,,,81,0
6094,note_on,0,0,6,,,,,,,,,5,,,81,0
6094,note_on,46,0,6,,,,,,,,,5,,,78,0
6094,note_on,46,0,7,,,,,,,,,6,,,78,0
6096,note_on,2,0,7,,,,,,,,,6,,,76,108
6096,note_on,0,0,6,,,,,,,,,5,,,79,108
6096,note_on,2,0,6,,,,,,,,,5,,,76,108
6096,note_on,0,0,7,,,,,,,,,6,,,79,108
6142,note_on,0,0,7,,,,,,,,,6,,,79,0
6142,note_on,46,0,6,,,,,,,,,5,,,76,0
6142,note_on,46,0,7,,,,,,,,,6,,,76,0
6142,note_on,0,0,6,,,,,,,,,5,,,79,0
6144,note_on,2,0,6,,,,,,,,,5,,,74,108
6144,note_on,0,0,7,,,,,,,,,6,,,78,108
6144,note_on,2,0,7,,,,,,,,,6,,,74,108
6144,note_on,0,0,6,,,,,,,,,5,,,78,108
6238,note_on,0,0,7,,,,,,,,,6,,,78,0
6238,note_on,94,0,7,,,,,,,,,6,,,74,0
6238,note_on,0,0,6,,,,,,,,,5,,,78,0
6238,note_on,94,0,6,,,,,,,,,5,,,74,0
6240,note_on,2,0,7,,,,,,,,,6,,,74,108
6240,note_on,0,0,6,,,,,,,,,5,,,78,108
6240,note_on,2,0,6,,,,,,,,,5,,,74,108
6240,note_on,0,0,7,,,,,,,,,6,,,78,108
6286,note_on,46,0,6,,,,,,,,,5,,,74,0
6286,note_on,0,0,7,,,,,,,,,6,,,78,0
6286,note_on,46,0,7,,,,,,,,,6,,,74,0
6286,note_on,0,0,6,,,,,,,,,5,,,78,0
6288,note_on,2,0,6,,,,,,,,,5,,,76,108
6288,note_on,0,0,6,,,,,,,,,5,,,79,108
6288,note_on,0,0,7,,,,,,,,,6,,,79,108
6288,note_on,2,0,7,,,,,,,,,6,,,76,108
6334,note_on,46,0,6,,,,,,,,,5,,,76,0
6334,note_on,0,0,6,,,,,,,,,5,,,79,0
6334,note_on,46,0,7,,,,,,,,,6,,,76,0
6334,note_on,0,0,7,,,,,,,,,6,,,79,0
6336,note_on,0,0,7,,,,,,,,,6,,,81,108
6336,note_on,2,0,7,,,,,,,,,6,,,78,108
6336,note_on,2,0,6,,,,,,,,,5,,,78,108
6336,note_on,0,0,6,,,,,,,,,5,,,81,108
6382,note_on,0,0,6,,,,,,,,,5,,,81,0
6382,note_on,0,0,7,,,,,,,,,6,,,81,0
6382,note_on,46,0,6,,,,,,,,,5,,,78,0
6382,note_on,46,0,7,,,,,,,,,6,,,78,0
6384,note_on,2,0,7,,,,,,,,,6,,,76,108
6384,note_on,2,0,6,,,,,,,,,5,,,76,108
6384,note_on,0,0,7,,,,,,,,,6,,,79,108
6384,note_on,0,0,6,,,,,,,,,5,,,79,108
6430,note_on,46,0,7,,,,,,,,,6,,,76,0
6430,note_on,0,0,7,,,,,,,,,6,,,79,0
6430,note_on,0,0,6,,,,,,,,,5,,,79,0
6430,note_on,46,0,6,,,,,,,,,5,,,76,0
6432,note_on,2,0,6,,,,,,,,,5,,,78,108
6432,note_on,0,0,6,,,,,,,,,5,,,81,108
6432,note_on,2,0,7,,,,,,,,,6,,,78,108
6432,note_on,0,0,7,,,,,,,,,6,,,81,108
6478,note_on,46,0,7,,,,,,,,,6,,,78,0
6478,note_on,0,0,7,,,,,,,,,6,,,81,0
6478,note_on,46,0,6,,,,,,,,,5,,,78,0
6478,note_on,0,0,6,,,,,,,,,5,,,81,0
6480,note_on,2,0,6,,,,,,,,,5,,,74,108
6480,note_on,0,0,7,,,,,,,,,6,,,78,108
6480,note_on,2,0,7,,,,,,,,,6,,,74,108
6480,note_on,0,0,6,,,,,,,,,5,,,78,108
6526,note_on,46,0,7,,,,,,,,,6,,,74,0
6526,note_on,0,0,7,,,,,,,,,6,,,78,0
6526,note_on,46,0,6,,,,,,,,,5,,,74,0
6526,note_on,0,0,6,,,,,,,,,5,,,78,0
6528,note_on,608,0,4,,,,,,,,,3,,,45,108
6528,note_on,608,0,8,,,,,,,,,7,,,45,108
6528,note_on,2,0,6,,,,,,,,,5,,,73,108
6528,note_on,0,0,6,,,,,,,,,5,,,76,108
6528,note_on,608,0,1,,,,,,,,,0,,,73,108
6528,note_on,608,0,3,,,,,,,,,2,,,57,108
6528,note_on,608,0,2,,,,,,,,,1,,,64,108
6528,note_on,2,0,7,,,,,,,,,6,,,73,108
6528,note_on,0,0,7,,,,,,,,,6,,,76,108
6622,note_on,94,0,6,,,,,,,,,5,,,73,0
6622,note_on,0,0,7,,,,,,,,,6,,,76,0
6622,note_on,94,0,7,,,,,,,,,6,,,73,0
6622,note_on,94,0,8,,,,,,,,,7,,,45,0
6622,note_on,0,0,6,,,,,,,,,5,,,76,0
6624,note_on,2,0,7,,,,,,,,,6,,,69,108
6624,note_on,2,0,6,,,,,,,,,5,,,73,108
6624,note_on,2,0,8,,,,,,,,,7,,,57,108
6670,note_on,142,0,2,,,,,,,,,1,,,64,0
6670,note_on,142,0,1,,,,,,,,,0,,,73,0
6670,note_on,142,0,4,,,,,,,,,3,,,45,0
6670,note_on,142,0,3,,,,,,,,,2,,,57,0
6672,note_on,2,0,4,,,,,,,,,3,,,45,108
6672,note_on,2,0,3,,,,,,,,,2,,,57,108
6672,note_on,2,0,2,,,,,,,,,1,,,64,108
6672,note_on,2,0,1,,,,,,,,,0,,,73,108
6718,note_on,46,0,4,,,,,,,,,3,,,45,0
6718,note_on,46,0,1,,,,,,,,,0,,,73,0
6718,note_on,94,0,6,,,,,,,,,5,,,73,0
6718,note_on,46,0,2,,,,,,,,,1,,,64,0
6718,note_on,94,0,7,,,,,,,,,6,,,69,0
6718,note_on,94,0,8,,,,,,,,,7,,,57,0
6718,note_on,46,0,3,,,,,,,,,2,,,57,0
6720,note_on,2,0,6,,,,,,,,,5,,,57,108
6720,note_on,2,0,7,,,,,,,,,6,,,57,108
6720,note_on,2,0,3,,,,,,,,,2,,,57,108
6720,note_on,2,0,1,,,,,,,,,0,,,73,108
6720,note_on,2,0,8,,,,,,,,,7,,,45,108
6720,note_on,2,0,2,,,,,,,,,1,,,64,108
6720,note_on,2,0,4,,,,,,,,,3,,,45,108
6814,note_on,94,0,7,,,,,,,,,6,,,57,0
6814,note_on,94,0,8,,,,,,,,,7,,,45,0
6814,note_on,94,0,2,,,,,,,,,1,,,64,0
6814,note_on,94,0,1,,,,,,,,,0,,,73,0
6814,note_on,94,0,3,,,,,,,,,2,,,57,0
6814,note_on,94,0,6,,,,,,,,,5,,,57,0
6814,note_on,94,0,4,,,,,,,,,3,,,45,0
6816,note_on,2,0,1,,,,,,,,,0,,,73,108
6816,note_on,2,0,8,,,,,,,,,7,,,45,108
6816,note_on,2,0,6,,,,,,,,,5,,,57,108
6816,note_on,2,0,4,,,,,,,,,3,,,45,108
6816,note_on,2,0,3,,,,,,,,,2,,,57,108
6816,note_on,2,0,7,,,,,,,,,6,,,57,108
6816,note_on,2,0,2,,,,,,,,,1,,,64,108
6910,note_on,94,0,1,,,,,,,,,0,,,73,0
6910,note_on,94,0,8,,,,,,,,,7,,,45,0
6910,note_on,94,0,4,,,,,,,,,3,,,45,0
6910,note_on,94,0,7,,,,,,,,,6,,,57,0
6910,note_on,94,0,3,,,,,,,,,2,,,57,0
6910,note_on,94,0,2,,,,,,,,,1,,,64,0
6910,note_on,94,0,6,,,,,,,,,5,,,57,0
6912,note_on,2,0,8,,,,,,,,,7,,,45,108
6912,note_on,2,0,4,,,,,,,,,3,,,45,108
6912,note_on,2,0,6,,,,,,,,,5,,,57,108
6912,note_on,2,0,1,,,,,,,,,0,,,73,108
6912,note_on,2,0,2,,,,,,,,,1,,,64,108
6912,note_on,2,0,7,,,,,,,,,6,,,57,108
6912,note_on,2,0,3,,,,,,,,,2,,,57,108
7006,note_on,94,0,6,,,,,,,,,5,,,57,0
7006,note_on,94,0,1,,,,,,,,,0,,,73,0
7006,note_on,94,0,7,,,,,,,,,6,,,57,0
7006,note_on,94,0,8,,,,,,,,,7,,,45,0
7006,note_on,94,0,2,,,,,,,,,1,,,64,0
7006,note_on,94,0,4,,,,,,,,,3,,,45,0
7006,note_on,94,0,3,,,,,,,,,2,,,57,0
7008,note_on,2,0,2,,,,,,,,,1,,,64,108
7008,note_on,2,0,6,,,,,,,,,5,,,73,108
7008,note_on,2,0,1,,,,,,,,,0,,,73,108
7008,note_on,2,0,8,,,,,,,,,7,,,57,108
7008,note_on,2,0,4,,,,,,,,,3,,,45,108
7008,note_on,2,0,7,,,,,,,,,6,,,69,108
7008,note_on,2,0,3,,,,,,,,,2,,,57,108
7102,note_on,94,0,2,,,,,,,,,1,,,64,0
7102,note_on,94,0,7,,,,,,,,,6,,,69,0
7102,note_on,94,0,1,,,,,,,,,0,,,73,0
7102,note_on,94,0,8,,,,,,,,,7,,,57,0
7102,note_on,94,0,6,,,,,,,,,5,,,73,0
7102,note_on,94,0,3,,,,,,,,,2,,,57,0
7102,note_on,94,0,4,,,,,,,,,3,,,45,0
7104,note_on,2,0,3,,,,,,,,,2,,,57,108
7104,note_on,2,0,4,,,,,,,,,3,,,45,108
7104,note_on,2,0,6,,,,,,,,,5,,,57,108
7104,note_on,2,0,2,,,,,,,,,1,,,64,108
7104,note_on,2,0,7,,,,,,,,,6,,,57,108
7104,note_on,2,0,1,,,,,,,,,0,,,73,108
7104,note_on,2,0,8,,,,,,,,,7,,,45,108
7198,note_on,94,0,8,,,,,,,,,7,,,45,0
7198,note_on,94,0,7,,,,,,,,,6,,,57,0
7198,note_on,94,0,6,,,,,,,,,5,,,57,0
7200,note_on,2,0,6,,,,,,,,,5,,,57,108
7200,note_on,2,0,7,,,,,,,,,6,,,57,108
7200,note_on,2,0,8,,,,,,,,,7,,,45,108
7264,note_on,160,0,1,,,,,,,,,0,,,73,0
7264,note_on,160,0,4,,,,,,,,,3,,,45,0
7264,note_on,160,0,2,,,,,,,,,1,,,64,0
7264,note_on,160,0,3,,,,,,,,,2,,,57,0
7294,note_on,94,0,8,,,,,,,,,7,,,45,0
7294,note_on,94,0,6,,,,,,,,,5,,,57,0
7294,note_on,94,0,7,,,,,,,,,6,,,57,0
7296,note_on,2,0,7,,,,,,,,,6,,,57,108
7296,note_on,2,0,6,,,,,,,,,5,,,57,108
7296,note_on,32,0,4,,,,,,,,,3,,,45,108
7296,note_on,32,0,1,,,,,,,,,0,,,73,108
7296,note_on,2,0,8,,,,,,,,,7,,,45,108
7296,note_on,32,0,2,,,,,,,,,1,,,64,108
7296,note_on,32,0,3,,,,,,,,,2,,,57,108
7390,note_on,94,0,7,,,,,,,,,6,,,57,0
7390,note_on,94,0,6,,,,,,,,,5,,,57,0
7392,note_on,2,0,6,,,,,,,,,5,,,73,108
7392,note_on,0,0,6,,,,,,,,,5,,,76,108
7392,note_on,0,0,7,,,,,,,,,6,,,76,108
7392,note_on,2,0,7,,,,,,,,,6,,,73,108
7438,note_on,46,0,7,,,,,,,,,6,,,73,0
7438,note_on,0,0,7,,,,,,,,,6,,,76,0
7438,note_on,0,0,6,,,,,,,,,5,,,76,0
7438,note_on,46,0,6,,,,,,,,,5,,,73,0
7440,note_on,2,0,7,,,,,,,,,6,,,74,108
7440,note_on,2,0,6,,,,,,,,,5,,,74,108
7440,note_on,0,0,6,,,,,,,,,5,,,78,108
7440,note_on,0,0,7,,,,,,,,,6,,,78,108
7456,note_on,160,0,4,,,,,,,,,3,,,45,0
7456,note_on,160,0,1,,,,,,,,,0,,,73,0
7456,note_on,160,0,8,,,,,,,,,7,,,45,0
7456,note_on,160,0,3,,,,,,,,,2,,,57,0
7456,note_on,160,0,2,,,,,,,,,1,,,64,0
7486,note_on,46,0,6,,,,,,,,,5,,,74,0
7486,note_on,0,0,7,,,,,,,,,6,,,78,0
7486,note_on,0,0,6,,,,,,,,,5,,,78,0
7486,note_on,46,0,7,,,,,,,,,6,,,74,0
7488,note_on,0,0,7,,,,,,,,,6,,,79,108
7488,note_on,2,0,6,,,,,,,,,5,,,76,108
7488,note_on,2,0,7,,,,,,,,,6,,,76,108
7488,note_on,0,0,6,,,,,,,,,5,,,79,108
7534,note_on,46,0,6,,,,,,,,,5,,,76,0
7534,note_on,46,0,7,,,,,,,,,6,,,76,0
7534,note_on,0,0,6,,,,,,,,,5,,,79,0
7534,note_on,0,0,7,,,,,,,,,6,,,79,0
7536,note_on,0,0,6,,,,,,,,,5,,,78,108
7536,note_on,2,0,6,,,,,,,,,5,,,74,108
7536,note_on,0,0,7,,,,,,,,,6,,,78,108
7536,note_on,2,0,7,,,,,,,,,6,,,74,108
7582,note_on,46,0,7,,,,,,,,,6,,,74,0
7582,note_on,0,0,6,,,,,,,,,5,,,78,0
7582,note_on,46,0,6,,,,,,,,,5,,,74,0
7582,note_on,0,0,7,,,,,,,,,6,,,78,0
7584,note_on,0,0,7,,,,,,,,,6,,,79,108
7584,note_on,0,0,6,,,,,,,,,5,,,79,108
7584,note_on,2,0,6,,,,,,,,,5,,,76,108
7584,note_on,2,0,7,,,,,,,,,6,,,76,108
7630,note_on,46,0,7,,,,,,,,,6,,,76,0
7630,note_on,0,0,7,,,,,,,,,6,,,79,0
7630,note_on,46,0,6,,,,,,,,,5,,,76,0
7630,note_on,0,0,6,,,,,,,,,5,,,79,0
7632,note_on,0,0,6,,,,,,,,,5,,,78,108
7632,note_on,2,0,6,,,,,,,,,5,,,74,108
7632,note_on,0,0,7,,,,,,,,,6,,,78,108
7632,note_on,2,0,7,,,,,,,,,6,,,74,108
7678,note_on,46,0,7,,,,,,,,,6,,,74,0
7678,note_on,0,0,7,,,,,,,,,6,,,78,0
7678,note_on,46,0,6,,,,,,,,,5,,,74,0
7678,note_on,0,0,6,,,,,,,,,5,,,78,0
7680,note_on,0,0,7,,,,,,,,,6,,,76,108
7680,note_on,2,0,7,,,,,,,,,6,,,73,108
7680,note_on,0,0,6,,,,,,,,,5,,,76,108
7680,note_on,2,0,6,,,,,,,,,5,,,73,108
7774,note_on,0,0,6,,,,,,,,,5,,,76,0
7774,note_on,94,0,7,,,,,,,,,6,,,73,0
7774,note_on,0,0,7,,,,,,,,,6,,,76,0
7774,note_on,94,0,6,,,,,,,,,5,,,73,0
7776,note_on,0,0,6,,,,,,,,,5,,,76,108
7776,note_on,2,0,7,,,,,,,,,6,,,73,108
7776,note_on,0,0,7,,,,,,,,,6,,,76,108
7776,note_on,2,0,6,,,,,,,,,5,,,73,108
7822,note_on,46,0,6,,,,,,,,,5,,,73,0
7822,note_on,0,0,6,,,,,,,,,5,,,76,0
7822,note_on,46,0,7,,,,,,,,,6,,,73,0
7822,note_on,0,0,7,,,,,,,,,6,,,76,0
7824,note_on,2,0,6,,,,,,,,,5,,,74,108
7824,note_on,0,0,6,,,,,,,,,5,,,78,108
7824,note_on,0,0,7,,,,,,,,,6,,,78,108
7824,note_on,2,0,7,,,,,,,,,6,,,74,108
7870,note_on,0,0,7,,,,,,,,,6,,,78,0
7870,note_on,46,0,7,,,,,,,,,6,,,74,0
7870,note_on,46,0,6,,,,,,,,,5,,,74,0
7870,note_on,0,0,6,,,,,,,,,5,,,78,0
7872,note_on,0,0,6,,,,,,,,,5,,,79,108
7872,note_on,2,0,7,,,,,,,,,6,,,76,108
7872,note_on,0,0,7,,,,,,,,,6,,,79,108
7872,note_on,2,0,6,,,,,,,,,5,,,76,108
7918,note_on,46,0,7,,,,,,,,,6,,,76,0
7918,note_on,0,0,7,,,,,,,,,6,,,79,0
7918,note_on,0,0,6,,,,,,,,,5,,,79,0
7918,note_on,46,0,6,,,,,,,,,5,,,76,0
7920,note_on,0,0,6,,,,,,,,,5,,,78,108
7920,note_on,2,0,6,,,,,,,,,5,,,74,108
7920,note_on,0,0,7,,,,,,,,,6,,,78,108
7920,note_on,2,0,7,,,,,,,,,6,,,74,108
7966,note_on,0,0,7,,,,,,,,,6,,,78,0
7966,note_on,46,0,7,,,,,,,,,6,,,74,0
7966,note_on,46,0,6,,,,,,,,,5,,,74,0
7966,note_on,0,0,6,,,,,,,,,5,,,78,0
7968,note_on,2,0,6,,,,,,,,,5,,,76,108
7968,note_on,0,0,6,,,,,,,,,5,,,79,108
7968,note_on,0,0,7,,,,,,,,,6,,,79,108
7968,note_on,2,0,7,,,,,,,,,6,,,76,108
8014,note_on,0,0,7,,,,,,,,,6,,,79,0
8014,note_on,46,0,6,,,,,,,,,5,,,76,0
8014,note_on,0,0,6,,,,,,,,,5,,,79,0
8014,note_on,46,0,7,,,,,,,,,6,,,76,0
8016,note_on,0,0,7,,,,,,,,,6,,,78,108
8016,note_on,2,0,7,,,,,,,,,6,,,74,108
8016,note_on,0,0,6,,,,,,,,,5,,,78,108
8016,note_on,2,0,6,,,,,,,,,5,,,74,108
8062,note_on,46,0,6,,,,,,,,,5,,,74,0
8062,note_on,46,0,7,,,,,,,,,6,,,74,0
8062,note_on,0,0,6,,,,,,,,,5,,,78,0
8062,note_on,0,0,7,,,,,,,,,6,,,78,0
8064,note_on,608,0,4,,,,,,,,,3,,,57,108
8064,note_on,608,0,2,,,,,,,,,1,,,64,108
8064,note_on,0,0,6,,,,,,,,,5,,,76,108
8064,note_on,2,0,6,,,,,,,,,5,,,73,108
8064,note_on,608,0,8,,,,,,,,,7,,,45,108
8064,note_on,2,0,7,,,,,,,,,6,,,73,108
8064,note_on,0,0,7,,,,,,,,,6,,,76,108
8064,note_on,608,0,3,,,,,,,,,2,,,61,108
8064,note_on,608,0,1,,,,,,,,,0,,,73,108
8158,note_on,0,0,6,,,,,,,,,5,,,76,0
8158,note_on,0,0,7,,,,,,,,,6,,,76,0
8158,note_on,94,0,7,,,,,,,,,6,,,73,0
8158,note_on,94,0,6,,,,,,,,,5,,,73,0
8158,note_on,94,0,8,,,,,,,,,7,,,45,0
8160,note_on,2,0,6,,,,,,,,,5,,,73,108
8160,note_on,0,0,7,,,,,,,,,6,,,69,108
8160,note_on,2,0,8,,,,,,,,,7,,,57,108
8160,program_change,2,0,7,,,,,,,,42,6,,,,
8254,note_on,94,0,7,,,,,,,,,6,,,69,0
8254,note_on,94,0,6,,,,,,,,,5,,,73,0
8254,note_on,94,0,8,,,,,,,,,7,,,57,0
8256,note_on,2,0,7,,,,,,,,,6,,,57,108
8256,note_on,2,0,8,,,,,,,,,7,,,45,108
8350,note_on,94,0,7,,,,,,,,,6,,,57,0
8350,note_on,94,0,8,,,,,,,,,7,,,45,0
8352,note_on,2,0,8,,,,,,,,,7,,,45,108
8352,note_on,2,0,7,,,,,,,,,6,,,57,108
8400,note_on,336,0,3,,,,,,,,,2,,,61,0
8400,note_on,336,0,4,,,,,,,,,3,,,57,0
8400,note_on,336,0,2,,,,,,,,,1,,,64,0
8400,note_on,336,0,1,,,,,,,,,0,,,73,0
8446,note_on,94,0,8,,,,,,,,,7,,,45,0
8446,note_on,94,0,7,,,,,,,,,6,,,57,0
8448,note_on,48,0,3,,,,,,,,,2,,,57,108
8448,note_on,48,0,2,,,,,,,,,1,,,66,108
8448,note_on,48,0,4,,,,,,,,,3,,,57,108
8448,note_on,48,0,1,,,,,,,,,0,,,74,108
8448,note_on,2,0,7,,,,,,,,,6,,,57,108
8448,note_on,2,0,8,,,,,,,,,7,,,45,108
8542,note_on,94,0,8,,,,,,,,,7,,,45,0
8542,note_on,94,0,7,,,,,,,,,6,,,57,0
8544,note_on,2,0,7,,,,,,,,,6,,,69,108
8544,note_on,2,0,8,,,,,,,,,7,,,57,108
8638,note_on,94,0,7,,,,,,,,,6,,,69,0
8638,note_on,94,0,8,,,,,,,,,7,,,57,0
8640,note_on,2,0,7,,,,,,,,,6,,,57,108
8640,note_on,2,0,8,,,,,,,,,7,,,45,108
8734,note_on,94,0,7,,,,,,,,,6,,,57,0
8734,note_on,94,0,8,,,,,,,,,7,,,45,0
8736,note_on,2,0,7,,,,,,,,,6,,,57,108
8736,note_on,2,0,8,,,,,,,,,7,,,45,108
8784,note_on,336,0,2,,,,,,,,,1,,,66,0
8784,note_on,336,0,1,,,,,,,,,0,,,74,0
8784,note_on,336,0,4,,,,,,,,,3,,,57,0
8784,note_on,336,0,3,,,,,,,,,2,,,57,0
8830,note_on,94,0,8,,,,,,,,,7,,,45,0
8830,note_on,94,0,7,,,,,,,,,6,,,57,0
8832,note_on,48,0,1,,,,,,,,,0,,,76,108
8832,note_on,2,0,8,,,,,,,,,7,,,45,108
8832,note_on,48,0,2,,,,,,,,,1,,,67,108
8832,note_on,48,0,4,,,,,,,,,3,,,57,108
8832,note_on,48,0,3,,,,,,,,,2,,,61,108
8832,note_on,2,0,7,,,,,,,,,6,,,57,108
8926,note_on,94,0,7,,,,,,,,,6,,,57,0
8926,note_on,94,0,8,,,,,,,,,7,,,45,0
8928,note_on,2,0,7,,,,,,,,,6,,,69,108
8928,note_on,2,0,8,,,,,,,,,7,,,57,108
9022,note_on,94,0,8,,,,,,,,,7,,,57,0
9022,note_on,94,0,7,,,,,,,,,6,,,69,0
9024,note_on,2,0,8,,,,,,,,,7,,,45,108
9024,note_on,2,0,7,,,,,,,,,6,,,57,108
9118,note_on,94,0,8,,,,,,,,,7,,,45,0
9118,note_on,94,0,7,,,,,,,,,6,,,57,0
9120,note_on,2,0,8,,,,,,,,,7,,,45,108
9120,note_on,2,0,7,,,,,,,,,6,,,57,108
9168,note_on,336,0,4,,,,,,,,,3,,,57,0
9168,note_on,336,0,2,,,,,,,,,1,,,67,0
9168,note_on,336,0,1,,,,,,,,,0,,,76,0
9168,note_on,336,0,3,,,,,,,,,2,,,61,0
9214,note_on,94,0,8,,,,,,,,,7,,,45,0
9214,note_on,94,0,7,,,,,,,,,6,,,57,0
9216,note_on,48,0,1,,,,,,,,,0,,,74,108
9216,note_on,48,0,4,,,,,,,,,3,,,57,108
9216,note_on,2,0,8,,,,,,,,,7,,,45,108
9216,note_on,48,0,2,,,,,,,,,1,,,66,108
9216,note_on,48,0,3,,,,,,,,,2,,,57,108
9216,note_on,2,0,7,,,,,,,,,6,,,57,108
9310,note_on,94,0,8,,,,,,,,,7,,,45,0
9310,note_on,94,0,7,,,,,,,,,6,,,57,0
9312,note_on,2,0,8,,,,,,,,,7,,,57,108
9312,note_on,2,0,7,,,,,,,,,6,,,69,108
9406,note_on,94,0,8,,,,,,,,,7,,,57,0
9406,note_on,94,0,7,,,,,,,,,6,,,69,0
9408,note_on,2,0,8,,,,,,,,,7,,,45,108
9408,note_on,2,0,7,,,,,,,,,6,,,57,108
9502,note_on,94,0,8,,,,,,,,,7,,,45,0
9502,note_on,94,0,7,,,,,,,,,6,,,57,0
9504,note_on,2,0,7,,,,,,,,,6,,,57,108
9504,note_on,2,0,8,,,,,,,,,7,,,45,108
9552,note_on,336,0,2,,,,,,,,,1,,,66,0
9552,note_on,336,0,4,,,,,,,,,3,,,57,0
9552,note_on,336,0,1,,,,,,,,,0,,,74,0
9552,note_on,336,0,3,,,,,,,,,2,,,57,0
9598,note_on,94,0,7,,,,,,,,,6,,,57,0
9598,note_on,94,0,8,,,,,,,,,7,,,45,0
9600,note_on,48,0,3,,,,,,,,,2,,,57,108
9600,note_on,48,0,4,,,,,,,,,3,,,57,108
9600,note_on,2,0,7,,,,,,,,,6,,,57,108
9600,note_on,48,0,2,,,,,,,,,1,,,64,108
9600,note_on,2,0,8,,,,,,,,,7,,,45,108
9600,note_on,48,0,1,,,,,,,,,0,,,74,108
9694,note_on,94,0,7,,,,,,,,,6,,,57,0
9694,note_on,94,0,8,,,,,,,,,7,,,45,0
9696,note_on,2,0,7,,,,,,,,,6,,,69,108
9696,note_on,2,0,8,,,,,,,,,7,,,57,108
9790,note_on,94,0,8,,,,,,,,,7,,,57,0
9790,note_on,94,0,7,,,,,,,,,6,,,69,0
9792,note_on,2,0,7,,,,,,,,,6,,,57,108
9792,note_on,2,0,8,,,,,,,,,7,,,45,108
9886,note_on,94,0,8,,,,,,,,,7,,,45,0
9886,note_on,94,0,7,,,,,,,,,6,,,57,0
9888,note_on,2,0,7,,,,,,,,,6,,,57,108
9888,note_on,2,0,8,,,,,,,,,7,,,45,108
9936,note_on,336,0,4,,,,,,,,,3,,,57,0
9936,note_on,336,0,1,,,,,,,,,0,,,74,0
9936,note_on,336,0,2,,,,,,,,,1,,,64,0
9936,note_on,336,0,3,,,,,,,,,2,,,57,0
9982,note_on,94,0,8,,,,,,,,,7,,,45,0
9982,note_on,94,0,7,,,,,,,,,6,,,57,0
9984,note_on,48,0,4,,,,,,,,,3,,,57,108
9984,note_on,48,0,3,,,,,,,,,2,,,57,108
9984,note_on,48,0,2,,,,,,,,,1,,,64,108
9984,note_on,48,0,1,,,,,,,,,0,,,73,108
9984,note_on,2,0,8,,,,,,,,,7,,,45,108
9984,note_on,2,0,7,,,,,,,,,6,,,57,108
10078,note_on,94,0,7,,,,,,,,,6,,,57,0
10078,note_on,94,0,8,,,,,,,,,7,,,45,0
10080,note_on,2,0,8,,,,,,,,,7,,,57,108
10080,note_on,2,0,7,,,,,,,,,6,,,69,108
10174,note_on,94,0,8,,,,,,,,,7,,,57,0
10174,note_on,94,0,7,,,,,,,,,6,,,69,0
10176,note_on,2,0,8,,,,,,,,,7,,,45,108
10176,note_on,2,0,7,,,,,,,,,6,,,57,108
10270,note_on,94,0,7,,,,,,,,,6,,,57,0
10270,note_on,94,0,8,,,,,,,,,7,,,45,0
10272,note_on,2,0,8,,,,,,,,,7,,,45,108
10272,note_on,2,0,7,,,,,,,,,6,,,57,108
10320,note_on,336,0,2,,,,,,,,,1,,,64,0
10320,note_on,336,0,1,,,,,,,,,0,,,73,0
10320,note_on,336,0,3,,,,,,,,,2,,,57,0
10320,note_on,336,0,4,,,,,,,,,3,,,57,0
10366,note_on,94,0,8,,,,,,,,,7,,,45,0
10366,note_on,94,0,7,,,,,,,,,6,,,57,0
10368,note_on,2,0,7,,,,,,,,,6,,,57,108
10368,note_on,2,0,8,,,,,,,,,7,,,45,108
10528,note_on,160,0,7,,,,,,,,,6,,,57,0
10528,note_on,160,0,8,,,,,,,,,7,,,45,0
10752,note_on,432,0,3,,,,,,,,,2,,,61,60
10752,note_on,224,0,7,,,,,,,,,6,,,57,75
10752,note_on,432,0,4,,,,,,,,,3,,,57,60
10752,note_on,432,0,1,,,,,,,,,0,,,73,60
10752,note_on,432,0,2,,,,,,,,,1,,,64,60
10752,note_on,224,0,8,,,,,,,,,7,,,45,75
10846,note_on,94,0,7,,,,,,,,,6,,,57,0
10846,note_on,94,0,8,,,,,,,,,7,,,45,0
10848,note_on,2,0,8,,,,,,,,,7,,,57,75
10848,note_on,2,0,7,,,,,,,,,6,,,69,75
10942,note_on,94,0,7,,,,,,,,,6,,,69,0
10942,note_on,94,0,8,,,,,,,,,7,,,57,0
10944,note_on,2,0,7,,,,,,,,,6,,,57,75
10944,note_on,2,0,8,,,,,,,,,7,,,45,75
11038,note_on,94,0,7,,,,,,,,,6,,,57,0
11038,note_on,94,0,8,,,,,,,,,7,,,45,0
11040,note_on,2,0,7,,,,,,,,,6,,,57,75
11040,note_on,2,0,8,,,,,,,,,7,,,45,75
11088,note_on,336,0,1,,,,,,,,,0,,,73,0
11088,note_on,336,0,4,,,,,,,,,3,,,57,0
11088,note_on,336,0,2,,,,,,,,,1,,,64,0
11088,note_on,336,0,3,,,,,,,,,2,,,61,0
11134,note_on,94,0,7,,,,,,,,,6,,,57,0
11134,note_on,94,0,8,,,,,,,,,7,,,45,0
11136,note_on,48,0,2,,,,,,,,,1,,,66,60
11136,note_on,2,0,7,,,,,,,,,6,,,57,75
11136,note_on,48,0,1,,,,,,,,,0,,,74,60
11136,note_on,48,0,3,,,,,,,,,2,,,57,60
11136,note_on,48,0,4,,,,,,,,,3,,,57,60
11136,note_on,2,0,8,,,,,,,,,7,,,45,75
11230,note_on,94,0,8,,,,,,,,,7,,,45,0
11230,note_on,94,0,7,,,,,,,,,6,,,57,0
11232,note_on,2,0,7,,,,,,,,,6,,,69,75
11232,note_on,2,0,8,,,,,,,,,7,,,57,75
11326,note_on,94,0,7,,,,,,,,,6,,,69,0
11326,note_on,94,0,8,,,,,,,,,7,,,57,0
11328,note_on,2,0,8,,,,,,,,,7,,,45,75
11328,note_on,2,0,7,,,,,,,,,6,,,57,75
11422,note_on,94,0,7,,,,,,,,,6,,,57,0
11422,note_on,94,0,8,,,,,,,,,7,,,45,0
11424,note_on,2,0,7,,,,,,,,,6,,,57,75
11424,note_on,2,0,8,,,,,,,,,7,,,45,75
11472,note_on,336,0,4,,,,,,,,,3,,,57,0
11472,note_on,336,0,3,,,,,,,,,2,,,57,0
11472,note_on,336,0,2,,,,,,,,,1,,,66,0
11472,note_on,336,0,1,,,,,,,,,0,,,74,0
11518,note_on,94,0,7,,,,,,,,,6,,,57,0
11518,note_on,94,0,8,,,,,,,,,7,,,45,0
11520,note_on,48,0,3,,,,,,,,,2,,,61,60
11520,note_on,48,0,2,,,,,,,,,1,,,67,60
11520,note_on,2,0,8,,,,,,,,,7,,,45,75
11520,note_on,2,0,7,,,,,,,,,6,,,57,75
11520,note_on,48,0,1,,,,,,,,,0,,,76,60
11520,note_on,48,0,4,,,,,,,,,3,,,57,60
11614,note_on,94,0,7,,,,,,,,,6,,,57,0
11614,note_on,94,0,8,,,,,,,,,7,,,45,0
11616,note_on,2,0,8,,,,,,,,,7,,,57,75
11616,note_on,2,0,7,,,,,,,,,6,,,69,75
11710,note_on,94,0,8,,,,,,,,,7,,,57,0
11710,note_on,94,0,7,,,,,,,,,6,,,69,0
11712,note_on,2,0,7,,,,,,,,,6,,,57,75
11712,note_on,2,0,8,,,,,,,,,7,,,45,75
11806,note_on,94,0,8,,,,,,,,,7,,,45,0
11806,note_on,94,0,7,,,,,,,,,6,,,57,0
11808,note_on,2,0,8,,,,,,,,,7,,,45,75
11808,note_on,2,0,7,,,,,,,,,6,,,57,75
11856,note_on,336,0,2,,,,,,,,,1,,,67,0
11856,note_on,336,0,3,,,,,,,,,2,,,61,0
11856,note_on,336,0,1,,,,,,,,,0,,,76,0
11856,note_on,336,0,4,,,,,,,,,3,,,57,0
11902,note_on,94,0,8,,,,,,,,,7,,,45,0
11902,note_on,94,0,7,,,,,,,,,6,,,57,0
11904,note_on,48,0,4,,,,,,,,,3,,,57,60
11904,note_on,48,0,2,,,,,,,,,1,,,66,60
11904,note_on,2,0,8,,,,,,,,,7,,,45,75
11904,note_on,2,0,7,,,,,,,,,6,,,57,75
11904,note_on,48,0,1,,,,,,,,,0,,,74,60
11904,note_on,48,0,3,,,,,,,,,2,,,57,60
11998,note_on,94,0,8,,,,,,,,,7,,,45,0
11998,note_on,94,0,7,,,,,,,,,6,,,57,0
12000,note_on,2,0,8,,,,,,,,,7,,,57,75
12000,note_on,2,0,7,,,,,,,,,6,,,69,75
12094,note_on,94,0,8,,,,,,,,,7,,,57,0
12094,note_on,94,0,7,,,,,,,,,6,,,69,0
12096,note_on,2,0,8,,,,,,,,,7,,,45,75
12096,note_on,2,0,7,,,,,,,,,6,,,57,75
12190,note_on,94,0,8,,,,,,,,,7,,,45,0
12190,note_on,94,0,7,,,,,,,,,6,,,57,0
12192,note_on,2,0,7,,,,,,,,,6,,,57,75
12192,note_on,2,0,8,,,,,,,,,7,,,45,75
12240,note_on,336,0,2,,,,,,,,,1,,,66,0
12240,note_on,336,0,4,,,,,,,,,3,,,57,0
12240,note_on,336,0,1,,,,,,,,,0,,,74,0
12240,note_on,336,0,3,,,,,,,,,2,,,57,0
12286,note_on,94,0,8,,,,,,,,,7,,,45,0
12286,note_on,94,0,7,,,,,,,,,6,,,57,0
12288,note_on,48,0,1,,,,,,,,,0,,,74,60
12288,note_on,2,0,8,,,,,,,,,7,,,45,75
12288,note_on,48,0,4,,,,,,,,,3,,,57,60
12288,note_on,48,0,3,,,,,,,,,2,,,57,60
12288,note_on,48,0,2,,,,,,,,,1,,,64,60
12288,note_on,2,0,7,,,,,,,,,6,,,57,75
12382,note_on,94,0,8,,,,,,,,,7,,,45,0
12382,note_on,94,0,7,,,,,,,,,6,,,57,0
12384,note_on,2,0,7,,,,,,,,,6,,,69,75
12384,note_on,2,0,8,,,,,,,,,7,,,57,75
12478,note_on,94,0,7,,,,,,,,,6,,,69,0
12478,note_on,94,0,8,,,,,,,,,7,,,57,0
12480,note_on,2,0,7,,,,,,,,,6,,,57,75
12480,note_on,2,0,8,,,,,,,,,7,,,45,75
12544,note_on,256,0,4,,,,,,,,,3,,,57,0
12544,note_on,256,0,3,,,,,,,,,2,,,57,0
12544,note_on,256,0,2,,,,,,,,,1,,,64,0
12544,note_on,256,0,1,,,,,,,,,0,,,74,0
12574,note_on,94,0,8,,,,,,,,,7,,,45,0
12574,note_on,94,0,7,,,,,,,,,6,,,57,0
12576,note_on,32,0,1,,,,,,,,,0,,,74,60
12576,note_on,32,0,2,,,,,,,,,1,,,64,60
12576,note_on,2,0,7,,,,,,,,,6,,,57,75
12576,note_on,32,0,4,,,,,,,,,3,,,57,60
12576,note_on,32,0,3,,,,,,,,,2,,,57,60
12576,note_on,2,0,8,,,,,,,,,7,,,45,75
12670,note_on,94,0,1,,,,,,,,,0,,,74,0
12670,note_on,94,0,7,,,,,,,,,6,,,57,0
12670,note_on,94,0,4,,,,,,,,,3,,,57,0
12670,note_on,94,0,3,,,,,,,,,2,,,57,0
12670,note_on,94,0,2,,,,,,,,,1,,,64,0
12670,note_on,94,0,8,,,,,,,,,7,,,45,0
12672,note_on,2,0,3,,,,,,,,,2,,,57,60
12672,note_on,2,0,8,,,,,,,,,7,,,45,75
12672,note_on,2,0,2,,,,,,,,,1,,,64,60
12672,note_on,2,0,7,,,,,,,,,6,,,57,75
12672,note_on,2,0,4,,,,,,,,,3,,,57,60
12672,note_on,2,0,1,,,,,,,,,0,,,73,60
12766,note_on,94,0,8,,,,,,,,,7,,,45,0
12766,note_on,94,0,7,,,,,,,,,6,,,57,0
12768,note_on,2,0,7,,,,,,,,,6,,,69,75
12768,note_on,2,0,8,,,,,,,,,7,,,57,75
12862,note_on,94,0,8,,,,,,,,,7,,,57,0
12862,note_on,94,0,7,,,,,,,,,6,,,69,0
12864,note_on,2,0,8,,,,,,,,,7,,,45,75
12864,note_on,2,0,7,,,,,,,,,6,,,57,75
12958,note_on,94,0,7,,,,,,,,,6,,,57,0
12958,note_on,94,0,8,,,,,,,,,7,,,45,0
12960,note_on,2,0,7,,,,,,,,,6,,,57,75
12960,note_on,2,0,8,,,,,,,,,7,,,45,75
13008,note_on,336,0,3,,,,,,,,,2,,,57,0
13008,note_on,336,0,2,,,,,,,,,1,,,64,0
13008,note_on,336,0,1,,,,,,,,,0,,,73,0
13008,note_on,336,0,4,,,,,,,,,3,,,57,0
13054,note_on,94,0,8,,,,,,,,,7,,,45,0
13054,note_on,94,0,7,,,,,,,,,6,,,57,0
13056,note_on,0,0,6,,,,,,,,,5,,,76,92
13056,note_on,0,0,6,,,,,,,,,5,,,73,92
13056,note_on,4802,0,6,,,,,,,,,5,,,69,92
13056,note_on,48,0,2,,,,,,,,,1,,,67,108
13056,note_on,48,0,1,,,,,,,,,0,,,76,108
13056,note_on,0,0,7,,,,,,,,,6,,,76,92
13056,note_on,48,0,4,,,,,,,,,3,,,57,108
13056,note_on,7202,0,5,,,,,,,,,4,,,69,92
13056,note_on,0,0,5,,,,,,,,,4,,,73,92
13056,note_on,0,0,5,,,,,,,,,4,,,76,92
13056,program_change,2,0,7,,,,,,,,40,6,,,,
13056,note_on,0,0,7,,,,,,,,,6,,,69,92
13056,note_on,0,0,7,,,,,,,,,6,,,73,92
13056,note_on,48,0,3,,,,,,,,,2,,,57,108
13056,note_on,2,0,8,,,,,,,,,7,,,45,92
13150,note_on,0,0,7,,,,,,,,,6,,,76,0
13150,note_on,94,0,5,,,,,,,,,4,,,69,0
13150,note_on,94,0,7,,,,,,,,,6,,,69,0
13150,note_on,0,0,5,,,,,,,,,4,,,73,0
13150,note_on,0,0,5,,,,,,,,,4,,,76,0
13150,note_on,94,0,8,,,,,,,,,7,,,45,0
13150,note_on,94,0,6,,,,,,,,,5,,,69,0
13150,note_on,0,0,6,,,,,,,,,5,,,73,0
13150,note_on,0,0,6,,,,,,,,,5,,,76,0
13150,note_on,0,0,7,,,,,,,,,6,,,73,0
13152,note_on,2,0,8,,,,,,,,,7,,,57,92
13152,note_on,2,0,7,,,,,,,,,6,,,81,92
13152,note_on,2,0,6,,,,,,,,,5,,,81,92
13152,note_on,2,0,5,,,,,,,,,4,,,81,92
13246,note_on,94,0,8,,,,,,,,,7,,,57,0
13246,note_on,94,0,6,,,,,,,,,5,,,81,0
13246,note_on,94,0,7,,,,,,,,,6,,,81,0
13246,note_on,94,0,5,,,,,,,,,4,,,81,0
13248,note_on,2,0,8,,,,,,,,,7,,,45,92
13248,note_on,0,0,3,,,,,,,,,2,,,61,108
13248,note_on,0,0,7,,,,,,,,,6,,,76,92
13248,note_on,0,0,7,,,,,,,,,6,,,73,92
13248,note_on,2,0,7,,,,,,,,,6,,,69,92
13248,note_on,0,0,5,,,,,,,,,4,,,76,92
13248,note_on,192,0,3,,,,,,,,,2,,,57,0
13248,note_on,2,0,5,,,,,,,,,4,,,69,92
13248,note_on,2,0,6,,,,,,,,,5,,,69,92
13248,note_on,0,0,5,,,,,,,,,4,,,73,92
13248,note_on,0,0,6,,,,,,,,,5,,,73,92
13248,note_on,0,0,6,,,,,,,,,5,,,76,92
13342,note_on,0,0,6,,,,,,,,,5,,,76,0
13342,note_on,94,0,8,,,,,,,,,7,,,45,0
13342,note_on,0,0,7,,,,,,,,,6,,,76,0
13342,note_on,0,0,7,,,,,,,,,6,,,73,0
13342,note_on,94,0,7,,,,,,,,,6,,,69,0
13342,note_on,0,0,6,,,,,,,,,5,,,73,0
13342,note_on,0,0,5,,,,,,,,,4,,,73,0
13342,note_on,94,0,5,,,,,,,,,4,,,69,0
13342,note_on,94,0,6,,,,,,,,,5,,,69,0
13342,note_on,0,0,5,,,,,,,,,4,,,76,0
13344,note_on,0,0,5,,,,,,,,,4,,,76,92
13344,note_on,0,0,6,,,,,,,,,5,,,76,92
13344,note_on,0,0,5,,,,,,,,,4,,,73,92
13344,note_on,2,0,5,,,,,,,,,4,,,69,92
13344,note_on,2,0,7,,,,,,,,,6,,,69,92
13344,note_on,0,0,7,,,,,,,,,6,,,73,92
13344,note_on,0,0,7,,,,,,,,,6,,,76,92
13344,note_on,2,0,8,,,,,,,,,7,,,45,92
13344,note_on,0,0,6,,,,,,,,,5,,,73,92
13344,note_on,2,0,6,,,,,,,,,5,,,69,92
13392,note_on,336,0,2,,,,,,,,,1,,,67,0
13392,note_on,336,0,1,,,,,,,,,0,,,76,0
13392,note_on,336,0,4,,,,,,,,,3,,,57,0
13408,note_on,160,0,3,,,,,,,,,2,,,61,0
13438,note_on,94,0,7,,,,,,,,,6,,,69,0
13438,note_on,0,0,7,,,,,,,,,6,,,73,0
13438,note_on,94,0,5,,,,,,,,,4,,,69,0
13438,note_on,0,0,5,,,,,,,,,4,,,73,0
13438,note_on,0,0,5,,,,,,,,,4,,,76,0
13438,note_on,0,0,7,,,,,,,,,6,,,76,0
13438,note_on,94,0,6,,,,,,,,,5,,,69,0
13438,note_on,0,0,6,,,,,,,,,5,,,73,0
13438,note_on,94,0,8,,,,,,,,,7,,,45,0
13438,note_on,0,0,6,,,,,,,,,5,,,76,0
13440,note_on,2,0,7,,,,,,,,,6,,,69,92
13440,note_on,0,0,7,,,,,,,,,6,,,74,92
13440,note_on,32,0,3,,,,,,,,,2,,,57,108
13440,note_on,48,0,4,,,,,,,,,3,,,50,108
13440,note_on,0,0,7,,,,,,,,,6,,,78,92
13440,note_on,48,0,1,,,,,,,,,0,,,74,108
13440,note_on,2,0,6,,,,,,,,,5,,,69,92
13440,note_on,0,0,6,,,,,,,,,5,,,74,92
13440,note_on,0,0,6,,,,,,,,,5,,,78,92
13440,note_on,0,0,5,,,,,,,,,4,,,78,92
13440,note_on,0,0,5,,,,,,,,,4,,,74,92
13440,note_on,2,0,5,,,,,,,,,4,,,69,92
13440,note_on,48,0,2,,,,,,,,,1,,,66,108
13440,note_on,2,0,8,,,,,,,,,7,,,50,92
13534,note_on,0,0,7,,,,,,,,,6,,,74,0
13534,note_on,0,0,5,,,,,,,,,4,,,78,0
13534,note_on,0,0,5,,,,,,,,,4,,,74,0
13534,note_on,94,0,5,,,,,,,,,4,,,69,0
13534,note_on,94,0,6,,,,,,,,,5,,,69,0
13534,note_on,94,0,7,,,,,,,,,6,,,69,0
13534,note_on,0,0,6,,,,,,,,,5,,,74,0
13534,note_on,94,0,8,,,,,,,,,7,,,50,0
13534,note_on,0,0,6,,,,,,,,,5,,,78,0
13534,note_on,0,0,7,,,,,,,,,6,,,78,0
13536,note_on,2,0,5,,,,,,,,,4,,,81,92
13536,note_on,2,0,8,,,,,,,,,7,,,62,92
13536,note_on,2,0,7,,,,,,,,,6,,,81,92
13536,note_on,2,0,6,,,,,,,,,5,,,81,92
13630,note_on,94,0,5,,,,,,,,,4,,,81,0
13630,note_on,94,0,6,,,,,,,,,5,,,81,0
13630,note_on,94,0,8,,,,,,,,,7,,,62,0
13630,note_on,94,0,7,,,,,,,,,6,,,81,0
13632,note_on,0,0,7,,,,,,,,,6,,,78,92
13632,note_on,2,0,8,,,,,,,,,7,,,50,92
13632,note_on,0,0,6,,,,,,,,,5,,,78,92
13632,note_on,0,0,6,,,,,,,,,5,,,74,92
13632,note_on,0,0,7,,,,,,,,,6,,,74,92
13632,note_on,2,0,6,,,,,,,,,5,,,69,92
13632,note_on,2,0,5,,,,,,,,,4,,,69,92
13632,note_on,0,0,5,,,,,,,,,4,,,78,92
13632,note_on,2,0,7,,,,,,,,,6,,,69,92
13632,note_on,0,0,5,,,,,,,,,4,,,74,92
13726,note_on,0,0,6,,,,,,,,,5,,,74,0
13726,note_on,0,0,5,,,,,,,,,4,,,74,0
13726,note_on,0,0,5,,,,,,,,,4,,,78,0
13726,note_on,0,0,6,,,,,,,,,5,,,78,0
13726,note_on,94,0,5,,,,,,,,,4,,,69,0
13726,note_on,94,0,6,,,,,,,,,5,,,69,0
13726,note_on,94,0,8,,,,,,,,,7,,,50,0
13726,note_on,94,0,7,,,,,,,,,6,,,69,0
13726,note_on,0,0,7,,,,,,,,,6,,,74,0
13726,note_on,0,0,7,,,,,,,,,6,,,78,0
13728,note_on,2,0,8,,,,,,,,,7,,,50,92
13728,note_on,0,0,7,,,,,,,,,6,,,78,92
13728,note_on,0,0,7,,,,,,,,,6,,,74,92
13728,note_on,0,0,5,,,,,,,,,4,,,74,92
13728,note_on,2,0,5,,,,,,,,,4,,,69,92
13728,note_on,0,0,6,,,,,,,,,5,,,74,92
13728,note_on,2,0,6,,,,,,,,,5,,,69,92
13728,note_on,0,0,6,,,,,,,,,5,,,78,92
13728,note_on,0,0,5,,,,,,,,,4,,,78,92
13728,note_on,2,0,7,,,,,,,,,6,,,69,92
13776,note_on,336,0,1,,,,,,,,,0,,,74,0
13776,note_on,336,0,4,,,,,,,,,3,,,50,0
13776,note_on,336,0,3,,,,,,,,,2,,,57,0
13776,note_on,336,0,2,,,,,,,,,1,,,66,0
13822,note_on,94,0,6,,,,,,,,,5,,,69,0
13822,note_on,0,0,5,,,,,,,,,4,,,74,0
13822,note_on,0,0,5,,,,,,,,,4,,,78,0
13822,note_on,0,0,6,,,,,,,,,5,,,74,0
13822,note_on,0,0,6,,,,,,,,,5,,,78,0
13822,note_on,0,0,7,,,,,,,,,6,,,78,0
13822,note_on,0,0,7,,,,,,,,,6,,,74,0
13822,note_on,94,0,7,,,,,,,,,6,,,69,0
13822,note_on,94,0,8,,,,,,,,,7,,,50,0
13822,note_on,94,0,5,,,,,,,,,4,,,69,0
13824,note_on,48,0,1,,,,,,,,,0,,,74,108
13824,note_on,48,0,4,,,,,,,,,3,,,57,108
13824,note_on,2,0,8,,,,,,,,,7,,,45,92
13824,note_on,0,0,7,,,,,,,,,6,,,76,92
13824,note_on,2,0,5,,,,,,,,,4,,,69,92
13824,note_on,2,0,7,,,,,,,,,6,,,69,92
13824,note_on,0,0,5,,,,,,,,,4,,,74,92
13824,note_on,0,0,5,,,,,,,,,4,,,76,92
13824,note_on,2,0,6,,,,,,,,,5,,,69,92
13824,note_on,0,0,6,,,,,,,,,5,,,74,92
13824,note_on,0,0,6,,,,,,,,,5,,,76,92
13824,note_on,48,0,3,,,,,,,,,2,,,57,108
13824,note_on,48,0,2,,,,,,,,,1,,,64,108
13824,note_on,0,0,7,,,,,,,,,6,,,74,92
13918,note_on,94,0,6,,,,,,,,,5,,,69,0
13918,note_on,0,0,6,,,,,,,,,5,,,74,0
13918,note_on,0,0,6,,,,,,,,,5,,,76,0
13918,note_on,0,0,7,,,,,,,,,6,,,74,0
13918,note_on,0,0,7,,,,,,,,,6,,,76,0
13918,note_on,94,0,7,,,,,,,,,6,,,69,0
13918,note_on,94,0,8,,,,,,,,,7,,,45,0
13918,note_on,94,0,5,,,,,,,,,4,,,69,0
13918,note_on,0,0,5,,,,,,,,,4,,,74,0
13918,note_on,0,0,5,,,,,,,,,4,,,76,0
13920,note_on,2,0,7,,,,,,,,,6,,,81,92
13920,note_on,2,0,8,,,,,,,,,7,,,57,92
13920,note_on,2,0,5,,,,,,,,,4,,,81,92
13920,note_on,2,0,6,,,,,,,,,5,,,81,92
14014,note_on,94,0,5,,,,,,,,,4,,,81,0
14014,note_on,94,0,6,,,,,,,,,5,,,81,0
14014,note_on,94,0,7,,,,,,,,,6,,,81,0
14014,note_on,94,0,8,,,,,,,,,7,,,57,0
14016,note_on,2,0,6,,,,,,,,,5,,,69,92
14016,note_on,0,0,6,,,,,,,,,5,,,76,92
14016,note_on,0,0,5,,,,,,,,,4,,,74,92
14016,note_on,2,0,5,,,,,,,,,4,,,69,92
14016,note_on,0,0,5,,,,,,,,,4,,,76,92
14016,note_on,2,0,8,,,,,,,,,7,,,45,92
14016,note_on,0,0,7,,,,,,,,,6,,,76,92
14016,note_on,0,0,7,,,,,,,,,6,,,74,92
14016,note_on,2,0,7,,,,,,,,,6,,,69,92
14016,note_on,0,0,6,,,,,,,,,5,,,74,92
14110,note_on,0,0,5,,,,,,,,,4,,,76,0
14110,note_on,94,0,7,,,,,,,,,6,,,69,0
14110,note_on,94,0,8,,,,,,,,,7,,,45,0
14110,note_on,94,0,5,,,,,,,,,4,,,69,0
14110,note_on,0,0,5,,,,,,,,,4,,,74,0
14110,note_on,0,0,6,,,,,,,,,5,,,76,0
14110,note_on,0,0,7,,,,,,,,,6,,,76,0
14110,note_on,0,0,7,,,,,,,,,6,,,74,0
14110,note_on,0,0,6,,,,,,,,,5,,,74,0
14110,note_on,94,0,6,,,,,,,,,5,,,69,0
14112,note_on,0,0,7,,,,,,,,,6,,,76,92
14112,note_on,2,0,6,,,,,,,,,5,,,69,92
14112,note_on,0,0,5,,,,,,,,,4,,,76,92
14112,note_on,0,0,5,,,,,,,,,4,,,74,92
14112,note_on,0,0,6,,,,,,,,,5,,,76,92
14112,note_on,0,0,6,,,,,,,,,5,,,74,92
14112,note_on,2,0,7,,,,,,,,,6,,,69,92
14112,note_on,2,0,8,,,,,,,,,7,,,45,92
14112,note_on,2,0,5,,,,,,,,,4,,,69,92
14112,note_on,0,0,7,,,,,,,,,6,,,74,92
14206,note_on,0,0,7,,,,,,,,,6,,,76,0
14206,note_on,0,0,7,,,,,,,,,6,,,74,0
14206,note_on,0,0,5,,,,,,,,,4,,,76,0
14206,note_on,0,0,5,,,,,,,,,4,,,74,0
14206,note_on,94,0,5,,,,,,,,,4,,,69,0
14206,note_on,0,0,6,,,,,,,,,5,,,74,0
14206,note_on,0,0,6,,,,,,,,,5,,,76,0
14206,note_on,94,0,8,,,,,,,,,7,,,45,0
14206,note_on,94,0,6,,,,,,,,,5,,,69,0
14206,note_on,94,0,7,,,,,,,,,6,,,69,0
14208,note_on,0,0,7,,,,,,,,,6,,,76,92
14208,note_on,0,0,7,,,,,,,,,6,,,73,92
14208,note_on,2,0,7,,,,,,,,,6,,,69,92
14208,note_on,2,0,6,,,,,,,,,5,,,69,92
14208,note_on,0,0,6,,,,,,,,,5,,,73,92
14208,note_on,0,0,6,,,,,,,,,5,,,76,92
14208,note_on,0,0,1,,,,,,,,,0,,,73,108
14208,note_on,384,0,1,,,,,,,,,0,,,74,0
14208,note_on,0,0,4,,,,,,,,,3,,,45,108
14208,note_on,2,0,8,,,,,,,,,7,,,45,92
14208,note_on,2,0,5,,,,,,,,,4,,,69,92
14208,note_on,0,0,5,,,,,,,,,4,,,73,92
14208,note_on,0,0,5,,,,,,,,,4,,,76,92
14208,note_on,384,0,4,,,,,,,,,3,,,57,0
14302,note_on,94,0,6,,,,,,,,,5,,,69,0
14302,note_on,94,0,8,,,,,,,,,7,,,45,0
14302,note_on,0,0,6,,,,,,,,,5,,,76,0
14302,note_on,94,0,5,,,,,,,,,4,,,69,0
14302,note_on,0,0,5,,,,,,,,,4,,,76,0
14302,note_on,0,0,7,,,,,,,,,6,,,73,0
14302,note_on,94,0,7,,,,,,,,,6,,,69,0
14302,note_on,0,0,7,,,,,,,,,6,,,76,0
14302,note_on,0,0,5,,,,,,,,,4,,,73,0
14302,note_on,0,0,6,,,,,,,,,5,,,73,0
14304,note_on,2,0,5,,,,,,,,,4,,,81,92
14304,note_on,2,0,6,,,,,,,,,5,,,81,92
14304,note_on,2,0,7,,,,,,,,,6,,,81,92
14304,note_on,2,0,8,,,,,,,,,7,,,57,92
14398,note_on,94,0,6,,,,,,,,,5,,,81,0
14398,note_on,94,0,7,,,,,,,,,6,,,81,0
14398,note_on,94,0,5,,,,,,,,,4,,,81,0
14398,note_on,94,0,8,,,,,,,,,7,,,57,0
14400,note_on,2,0,8,,,,,,,,,7,,,45,92
14400,note_on,2,0,6,,,,,,,,,5,,,69,92
14400,note_on,2,0,5,,,,,,,,,4,,,69,92
14400,note_on,0,0,6,,,,,,,,,5,,,73,92
14400,note_on,0,0,6,,,,,,,,,5,,,76,92
14400,note_on,0,0,5,,,,,,,,,4,,,73,92
14400,note_on,0,0,7,,,,,,,,,6,,,76,92
14400,note_on,0,0,7,,,,,,,,,6,,,73,92
14400,note_on,2,0,7,,,,,,,,,6,,,69,92
14400,note_on,0,0,5,,,,,,,,,4,,,76,92
14494,note_on,94,0,8,,,,,,,,,7,,,45,0
14494,note_on,0,0,7,,,,,,,,,6,,,76,0
14494,note_on,0,0,7,,,,,,,,,6,,,73,0
14494,note_on,94,0,7,,,,,,,,,6,,,69,0
14494,note_on,94,0,6,,,,,,,,,5,,,69,0
14494,note_on,0,0,5,,,,,,,,,4,,,73,0
14494,note_on,94,0,5,,,,,,,,,4,,,69,0
14494,note_on,0,0,5,,,,,,,,,4,,,76,0
14494,note_on,0,0,6,,,,,,,,,5,,,73,0
14494,note_on,0,0,6,,,,,,,,,5,,,76,0
14496,note_on,2,0,7,,,,,,,,,6,,,69,92
14496,note_on,0,0,5,,,,,,,,,4,,,73,92
14496,note_on,0,0,5,,,,,,,,,4,,,76,92
14496,note_on,2,0,8,,,,,,,,,7,,,45,92
14496,note_on,0,0,7,,,,,,,,,6,,,73,92
14496,note_on,2,0,6,,,,,,,,,5,,,69,92
14496,note_on,0,0,6,,,,,,,,,5,,,73,92
14496,note_on,0,0,6,,,,,,,,,5,,,76,92
14496,note_on,2,0,5,,,,,,,,,4,,,69,92
14496,note_on,0,0,7,,,,,,,,,6,,,76,92
14544,note_on,336,0,1,,,,,,,,,0,,,73,0
14544,note_on,336,0,4,,,,,,,,,3,,,45,0
14544,note_on,720,0,2,,,,,,,,,1,,,64,0
14544,note_on,720,0,3,,,,,,,,,2,,,57,0
14590,note_on,0,0,6,,,,,,,,,5,,,76,0
14590,note_on,94,0,7,,,,,,,,,6,,,69,0
14590,note_on,94,0,8,,,,,,,,,7,,,45,0
14590,note_on,94,0,5,,,,,,,,,4,,,69,0
14590,note_on,0,0,5,,,,,,,,,4,,,73,0
14590,note_on,0,0,5,,,,,,,,,4,,,76,0
14590,note_on,0,0,7,,,,,,,,,6,,,76,0
14590,note_on,0,0,6,,,,,,,,,5,,,73,0
14590,note_on,94,0,6,,,,,,,,,5,,,69,0
14590,note_on,0,0,7,,,,,,,,,6,,,73,0
14592,note_on,2,0,8,,,,,,,,,7,,,50,92
14592,note_on,48,0,1,,,,,,,,,0,,,74,108
14592,note_on,0,0,6,,,,,,,,,5,,,78,92
14592,note_on,48,0,4,,,,,,,,,3,,,50,108
14592,note_on,48,0,3,,,,,,,,,2,,,57,108
14592,note_on,0,0,5,,,,,,,,,4,,,78,92
14592,note_on,2,0,7,,,,,,,,,6,,,74,92
14592,note_on,0,0,7,,,,,,,,,6,,,78,92
14592,note_on,2,0,5,,,,,,,,,4,,,74,92
14592,note_on,2,0,6,,,,,,,,,5,,,74,92
14592,note_on,48,0,2,,,,,,,,,1,,,66,108
14592,note_on,0,0,8,,,,,,,,,7,,,57,92
14686,note_on,94,0,7,,,,,,,,,6,,,74,0
14686,note_on,0,0,6,,,,,,,,,5,,,78,0
14686,note_on,94,0,6,,,,,,,,,5,,,74,0
14686,note_on,94,0,5,,,,,,,,,4,,,74,0
14686,note_on,0,0,7,,,,,,,,,6,,,78,0
14686,note_on,0,0,5,,,,,,,,,4,,,78,0
14686,note_on,94,0,8,,,,,,,,,7,,,50,0
14686,note_on,0,0,8,,,,,,,,,7,,,57,0
14688,note_on,2,0,8,,,,,,,,,7,,,62,92
14688,note_on,2,0,7,,,,,,,,,6,,,74,92
14688,note_on,2,0,5,,,,,,,,,4,,,74,92
14688,note_on,2,0,6,,,,,,,,,5,,,74,92
14782,note_on,94,0,6,,,,,,,,,5,,,74,0
14782,note_on,94,0,8,,,,,,,,,7,,,62,0
14782,note_on,94,0,7,,,,,,,,,6,,,74,0
14782,note_on,94,0,5,,,,,,,,,4,,,74,0
14784,note_on,2,0,6,,,,,,,,,5,,,62,92
14784,note_on,2,0,5,,,,,,,,,4,,,62,92
14784,note_on,2,0,7,,,,,,,,,6,,,62,92
14784,note_on,2,0,8,,,,,,,,,7,,,50,92
14878,note_on,94,0,6,,,,,,,,,5,,,62,0
14878,note_on,94,0,8,,,,,,,,,7,,,50,0
14878,note_on,94,0,5,,,,,,,,,4,,,62,0
14878,note_on,94,0,7,,,,,,,,,6,,,62,0
14880,note_on,2,0,5,,,,,,,,,4,,,62,92
14880,note_on,2,0,7,,,,,,,,,6,,,62,92
14880,note_on,2,0,8,,,,,,,,,7,,,50,92
14880,note_on,2,0,6,,,,,,,,,5,,,62,92
14928,note_on,336,0,4,,,,,,,,,3,,,50,0
14928,note_on,336,0,3,,,,,,,,,2,,,57,0
14928,note_on,336,0,2,,,,,,,,,1,,,66,0
14928,note_on,336,0,1,,,,,,,,,0,,,74,0
14974,note_on,94,0,8,,,,,,,,,7,,,50,0
14974,note_on,94,0,7,,,,,,,,,6,,,62,0
14974,note_on,94,0,5,,,,,,,,,4,,,62,0
14974,note_on,94,0,6,,,,,,,,,5,,,62,0
14976,note_on,2,0,6,,,,,,,,,5,,,62,92
14976,note_on,2,0,7,,,,,,,,,6,,,62,92
14976,note_on,2,0,8,,,,,,,,,7,,,50,92
14976,note_on,2,0,5,,,,,,,,,4,,,62,92
15070,note_on,94,0,6,,,,,,,,,5,,,62,0
15070,note_on,94,0,5,,,,,,,,,4,,,62,0
15070,note_on,94,0,8,,,,,,,,,7,,,50,0
15070,note_on,94,0,7,,,,,,,,,6,,,62,0
15072,note_on,2,0,6,,,,,,,,,5,,,74,92
15072,note_on,2,0,8,,,,,,,,,7,,,62,92
15072,note_on,2,0,5,,,,,,,,,4,,,74,92
15072,note_on,2,0,7,,,,,,,,,6,,,74,92
15166,note_on,94,0,7,,,,,,,,,6,,,74,0
15166,note_on,94,0,5,,,,,,,,,4,,,74,0
15166,note_on,94,0,6,,,,,,,,,5,,,74,0
15166,note_on,94,0,8,,,,,,,,,7,,,62,0
15168,note_on,2,0,5,,,,,,,,,4,,,62,92
15168,note_on,2,0,6,,,,,,,,,5,,,62,92
15168,note_on,2,0,7,,,,,,,,,6,,,62,92
15168,note_on,2,0,8,,,,,,,,,7,,,50,92
15262,note_on,94,0,8,,,,,,,,,7,,,50,0
15262,note_on,94,0,5,,,,,,,,,4,,,62,0
15262,note_on,94,0,7,,,,,,,,,6,,,62,0
15262,note_on,94,0,6,,,,,,,,,5,,,62,0
15264,note_on,2,0,8,,,,,,,,,7,,,50,92
15264,note_on,2,0,6,,,,,,,,,5,,,62,92
15264,note_on,2,0,7,,,,,,,,,6,,,62,92
15264,note_on,2,0,5,,,,,,,,,4,,,62,92
15358,note_on,94,0,7,,,,,,,,,6,,,62,0
15358,note_on,94,0,5,,,,,,,,,4,,,62,0
15358,note_on,94,0,6,,,,,,,,,5,,,62,0
15358,note_on,94,0,8,,,,,,,,,7,,,50,0
15360,note_on,2,0,7,,,,,,,,,6,,,62,92
15360,note_on,432,0,1,,,,,,,,,0,,,74,108
15360,note_on,432,0,2,,,,,,,,,1,,,66,108
15360,note_on,432,0,3,,,,,,,,,2,,,57,108
15360,note_on,2,0,8,,,,,,,,,7,,,50,92
15360,note_on,2,0,5,,,,,,,,,4,,,62,92
15360,note_on,432,0,4,,,,,,,,,3,,,50,108
15360,note_on,2,0,6,,,,,,,,,5,,,62,92
15454,note_on,94,0,7,,,,,,,,,6,,,62,0
15454,note_on,94,0,5,,,,,,,,,4,,,62,0
15454,note_on,94,0,8,,,,,,,,,7,,,50,0
15454,note_on,94,0,6,,,,,,,,,5,,,62,0
15456,note_on,2,0,6,,,,,,,,,5,,,78,92
15456,note_on,0,0,6,,,,,,,,,5,,,81,92
15456,note_on,2,0,5,,,,,,,,,4,,,78,92
15456,note_on,0,0,5,,,,,,,,,4,,,81,92
15456,note_on,2,0,7,,,,,,,,,6,,,78,92
15456,note_on,0,0,7,,,,,,,,,6,,,81,92
15456,note_on,2,0,8,,,,,,,,,7,,,62,92
15502,note_on,46,0,7,,,,,,,,,6,,,78,0
15502,note_on,0,0,6,,,,,,,,,5,,,81,0
15502,note_on,0,0,7,,,,,,,,,6,,,81,0
15502,note_on,0,0,5,,,,,,,,,4,,,81,0
15502,note_on,46,0,6,,,,,,,,,5,,,78,0
15502,note_on,46,0,5,,,,,,,,,4,,,78,0
15504,note_on,2,0,6,,,,,,,,,5,,,74,92
15504,note_on,2,0,7,,,,,,,,,6,,,74,92
15504,note_on,2,0,5,,,,,,,,,4,,,74,92
15550,note_on,46,0,5,,,,,,,,,4,,,74,0
15550,note_on,46,0,7,,,,,,,,,6,,,74,0
15550,note_on,94,0,8,,,,,,,,,7,,,62,0
15550,note_on,46,0,6,,,,,,,,,5,,,74,0
15552,note_on,0,0,5,,,,,,,,,4,,,81,92
15552,note_on,2,0,7,,,,,,,,,6,,,78,92
15552,note_on,2,0,8,,,,,,,,,7,,,50,92
15552,note_on,0,0,7,,,,,,,,,6,,,81,92
15552,note_on,2,0,6,,,,,,,,,5,,,78,92
15552,note_on,2,0,5,,,,,,,,,4,,,78,92
15552,note_on,0,0,6,,,,,,,,,5,,,81,92
15598,note_on,0,0,7,,,,,,,,,6,,,81,0
15598,note_on,0,0,6,,,,,,,,,5,,,81,0
15598,note_on,46,0,6,,,,,,,,,5,,,78,0
15598,note_on,0,0,5,,,,,,,,,4,,,81,0
15598,note_on,46,0,5,,,,,,,,,4,,,78,0
15598,note_on,46,0,7,,,,,,,,,6,,,78,0
15600,note_on,2,0,6,,,,,,,,,5,,,74,92
15600,note_on,2,0,5,,,,,,,,,4,,,74,92
15600,note_on,2,0,7,,,,,,,,,6,,,74,92
15646,note_on,46,0,7,,,,,,,,,6,,,74,0
15646,note_on,46,0,6,,,,,,,,,5,,,74,0
15646,note_on,46,0,5,,,,,,,,,4,,,74,0
15646,note_on,94,0,8,,,,,,,,,7,,,50,0
15648,note_on,2,0,7,,,,,,,,,6,,,78,92
15648,note_on,0,0,7,,,,,,,,,6,,,81,92
15648,note_on,2,0,8,,,,,,,,,7,,,50,92
15648,note_on,0,0,5,,,,,,,,,4,,,81,92
15648,note_on,0,0,6,,,,,,,,,5,,,81,92
15648,note_on,2,0,6,,,,,,,,,5,,,78,92
15648,note_on,2,0,5,,,,,,,,,4,,,78,92
15694,note_on,46,0,7,,,,,,,,,6,,,78,0
15694,note_on,0,0,7,,,,,,,,,6,,,81,0
15694,note_on,46,0,5,,,,,,,,,4,,,78,0
15694,note_on,0,0,6,,,,,,,,,5,,,81,0
15694,note_on,46,0,6,,,,,,,,,5,,,78,0
15694,note_on,0,0,5,,,,,,,,,4,,,81,0
15696,note_on,2,0,6,,,,,,,,,5,,,74,92
15696,note_on,336,0,4,,,,,,,,,3,,,50,0
15696,note_on,336,0,3,,,,,,,,,2,,,57,0
15696,note_on,336,0,2,,,,,,,,,1,,,66,0
15696,note_on,336,0,1,,,,,,,,,0,,,74,0
15696,note_on,2,0,5,,,,,,,,,4,,,74,92
15696,note_on,2,0,7,,,,,,,,,6,,,74,92
15742,note_on,46,0,5,,,,,,,,,4,,,74,0
15742,note_on,94,0,8,,,,,,,,,7,,,50,0
15742,note_on,46,0,7,,,,,,,,,6,,,74,0
15742,note_on,46,0,6,,,,,,,,,5,,,74,0
15744,note_on,0,0,6,,,,,,,,,5,,,76,92
15744,note_on,48,0,2,,,,,,,,,1,,,64,108
15744,note_on,0,0,7,,,,,,,,,6,,,81,92
15744,note_on,0,0,7,,,,,,,,,6,,,76,92
15744,note_on,2,0,7,,,,,,,,,6,,,74,92
15744,note_on,2,0,8,,,,,,,,,7,,,45,92
15744,note_on,0,0,5,,,,,,,,,4,,,76,92
15744,note_on,0,0,5,,,,,,,,,4,,,81,92
15744,note_on,48,0,1,,,,,,,,,0,,,74,108
15744,note_on,2,0,6,,,,,,,,,5,,,74,92
15744,note_on,2,0,5,,,,,,,,,4,,,74,92
15744,note_on,0,0,6,,,,,,,,,5,,,81,92
15744,note_on,48,0,3,,,,,,,,,2,,,57,108
15744,note_on,48,0,4,,,,,,,,,3,,,57,108
15790,note_on,0,0,5,,,,,,,,,4,,,81,0
15790,note_on,0,0,5,,,,,,,,,4,,,76,0
15790,note_on,0,0,7,,,,,,,,,6,,,76,0
15790,note_on,0,0,7,,,,,,,,,6,,,81,0
15790,note_on,46,0,6,,,,,,,,,5,,,74,0
15790,note_on,46,0,5,,,,,,,,,4,,,74,0
15790,note_on,46,0,7,,,,,,,,,6,,,74,0
15790,note_on,0,0,6,,,,,,,,,5,,,81,0
15790,note_on,0,0,6,,,,,,,,,5,,,76,0
15792,note_on,2,0,5,,,,,,,,,4,,,69,92
15792,note_on,2,0,7,,,,,,,,,6,,,69,92
15792,note_on,2,0,6,,,,,,,,,5,,,69,92
15838,note_on,46,0,5,,,,,,,,,4,,,69,0
15838,note_on,94,0,8,,,,,,,,,7,,,45,0
15838,note_on,46,0,6,,,,,,,,,5,,,69,0
15838,note_on,46,0,7,,,,,,,,,6,,,69,0
15840,note_on,0,0,7,,,,,,,,,6,,,81,92
15840,note_on,2,0,7,,,,,,,,,6,,,74,92
15840,note_on,0,0,7,,,,,,,,,6,,,76,92
15840,note_on,0,0,5,,,,,,,,,4,,,81,92
15840,note_on,0,0,5,,,,,,,,,4,,,76,92
15840,note_on,2,0,6,,,,,,,,,5,,,74,92
15840,note_on,2,0,5,,,,,,,,,4,,,74,92
15840,note_on,0,0,6,,,,,,,,,5,,,76,92
15840,note_on,0,0,6,,,,,,,,,5,,,81,92
15840,note_on,2,0,8,,,,,,,,,7,,,57,92
15886,note_on,0,0,5,,,,,,,,,4,,,81,0
15886,note_on,0,0,5,,,,,,,,,4,,,76,0
15886,note_on,46,0,5,,,,,,,,,4,,,74,0
15886,note_on,46,0,6,,,,,,,,,5,,,74,0
15886,note_on,0,0,6,,,,,,,,,5,,,76,0
15886,note_on,0,0,6,,,,,,,,,5,,,81,0
15886,note_on,0,0,7,,,,,,,,,6,,,76,0
15886,note_on,46,0,7,,,,,,,,,6,,,74,0
15886,note_on,0,0,7,,,,,,,,,6,,,81,0
15888,note_on,2,0,7,,,,,,,,,6,,,69,92
15888,note_on,2,0,6,,,,,,,,,5,,,69,92
15888,note_on,2,0,5,,,,,,,,,4,,,69,92
15934,note_on,46,0,7,,,,,,,,,6,,,69,0
15934,note_on,46,0,5,,,,,,,,,4,,,69,0
15934,note_on,46,0,6,,,,,,,,,5,,,69,0
15934,note_on,94,0,8,,,,,,,,,7,,,57,0
15936,note_on,2,0,5,,,,,,,,,4,,,74,92
15936,note_on,0,0,5,,,,,,,,,4,,,81,92
15936,note_on,2,0,7,,,,,,,,,6,,,74,92
15936,note_on,0,0,6,,,,,,,,,5,,,81,92
15936,note_on,2,0,8,,,,,,,,,7,,,45,92
15936,note_on,0,0,7,,,,,,,,,6,,,76,92
15936,note_on,0,0,7,,,,,,,,,6,,,81,92
15936,note_on,2,0,6,,,,,,,,,5,,,74,92
15936,note_on,0,0,6,,,,,,,,,5,,,76,92
15936,note_on,0,0,5,,,,,,,,,4,,,76,92
15982,note_on,0,0,6,,,,,,,,,5,,,81,0
15982,note_on,0,0,6,,,,,,,,,5,,,76,0
15982,note_on,0,0,5,,,,,,,,,4,,,81,0
15982,note_on,0,0,7,,,,,,,,,6,,,81,0
15982,note_on,0,0,7,,,,,,,,,6,,,76,0
15982,note_on,46,0,7,,,,,,,,,6,,,74,0
15982,note_on,0,0,5,,,,,,,,,4,,,76,0
15982,note_on,46,0,6,,,,,,,,,5,,,74,0
15982,note_on,46,0,5,,,,,,,,,4,,,74,0
15984,note_on,2,0,5,,,,,,,,,4,,,69,92
15984,note_on,2,0,6,,,,,,,,,5,,,69,92
15984,note_on,2,0,7,,,,,,,,,6,,,69,92
16030,note_on,46,0,5,,,,,,,,,4,,,69,0
16030,note_on,46,0,6,,,,,,,,,5,,,69,0
16030,note_on,94,0,8,,,,,,,,,7,,,45,0
16030,note_on,46,0,7,,,,,,,,,6,,,69,0
16032,note_on,0,0,7,,,,,,,,,6,,,81,92
16032,note_on,0,0,6,,,,,,,,,5,,,76,92
16032,note_on,2,0,6,,,,,,,,,5,,,74,92
16032,note_on,0,0,7,,,,,,,,,6,,,76,92
16032,note_on,0,0,6,,,,,,,,,5,,,81,92
16032,note_on,2,0,8,,,,,,,,,7,,,45,92
16032,note_on,0,0,5,,,,,,,,,4,,,81,92
16032,note_on,0,0,5,,,,,,,,,4,,,76,92
16032,note_on,2,0,5,,,,,,,,,4,,,74,92
16032,note_on,2,0,7,,,,,,,,,6,,,74,92
16078,note_on,46,0,5,,,,,,,,,4,,,74,0
16078,note_on,0,0,6,,,,,,,,,5,,,76,0
16078,note_on,46,0,7,,,,,,,,,6,,,74,0
16078,note_on,0,0,5,,,,,,,,,4,,,76,0
16078,note_on,0,0,7,,,,,,,,,6,,,76,0
16078,note_on,0,0,7,,,,,,,,,6,,,81,0
16078,note_on,0,0,5,,,,,,,,,4,,,81,0
16078,note_on,0,0,6,,,,,,,,,5,,,81,0
16078,note_on,46,0,6,,,,,,,,,5,,,74,0
16080,note_on,2,0,7,,,,,,,,,6,,,69,92
16080,note_on,2,0,5,,,,,,,,,4,,,69,92
16080,note_on,336,0,2,,,,,,,,,1,,,64,0
16080,note_on,336,0,4,,,,,,,,,3,,,57,0
16080,note_on,2,0,6,,,,,,,,,5,,,69,92
16080,note_on,336,0,1,,,,,,,,,0,,,74,0
16080,note_on,336,0,3,,,,,,,,,2,,,57,0
16126,note_on,46,0,6,,,,,,,,,5,,,69,0
16126,note_on,94,0,8,,,,,,,,,7,,,45,0
16126,note_on,46,0,7,,,,,,,,,6,,,69,0
16126,note_on,46,0,5,,,,,,,,,4,,,69,0
16128,note_on,48,0,4,,,,,,,,,3,,,45,108
16128,note_on,48,0,1,,,,,,,,,0,,,73,108
16128,note_on,0,0,5,,,,,,,,,4,,,81,92
16128,note_on,0,0,5,,,,,,,,,4,,,76,92
16128,note_on,2,0,5,,,,,,,,,4,,,73,92
16128,note_on,2,0,8,,,,,,,,,7,,,45,92
16128,note_on,0,0,6,,,,,,,,,5,,,81,92
16128,note_on,0,0,6,,,,,,,,,5,,,76,92
16128,note_on,2,0,6,,,,,,,,,5,,,73,92
16128,note_on,2,0,7,,,,,,,,,6,,,73,92
16128,note_on,0,0,7,,,,,,,,,6,,,76,92
16128,note_on,48,0,3,,,,,,,,,2,,,57,108
16128,note_on,0,0,7,,,,,,,,,6,,,81,92
16128,note_on,48,0,2,,,,,,,,,1,,,64,108
16174,note_on,0,0,6,,,,,,,,,5,,,76,0
16174,note_on,46,0,5,,,,,,,,,4,,,73,0
16174,note_on,0,0,5,,,,,,,,,4,,,76,0
16174,note_on,0,0,5,,,,,,,,,4,,,81,0
16174,note_on,46,0,6,,,,,,,,,5,,,73,0
16174,note_on,0,0,6,,,,,,,,,5,,,81,0
16174,note_on,46,0,7,,,,,,,,,6,,,73,0
16174,note_on,0,0,7,,,,,,,,,6,,,76,0
16174,note_on,0,0,7,,,,,,,,,6,,,81,0
16176,note_on,2,0,7,,,,,,,,,6,,,69,92
16176,note_on,2,0,5,,,,,,,,,4,,,69,92
16176,note_on,2,0,6,,,,,,,,,5,,,69,92
16222,note_on,46,0,5,,,,,,,,,4,,,69,0
16222,note_on,46,0,6,,,,,,,,,5,,,69,0
16222,note_on,94,0,8,,,,,,,,,7,,,45,0
16222,note_on,46,0,7,,,,,,,,,6,,,69,0
16224,note_on,0,0,6,,,,,,,,,5,,,81,92
16224,note_on,2,0,8,,,,,,,,,7,,,57,92
16224,note_on,2,0,6,,,,,,,,,5,,,73,92
16224,note_on,2,0,7,,,,,,,,,6,,,73,92
16224,note_on,0,0,6,,,,,,,,,5,,,76,92
16224,note_on,0,0,5,,,,,,,,,4,,,81,92
16224,note_on,0,0,5,,,,,,,,,4,,,76,92
16224,note_on,2,0,5,,,,,,,,,4,,,73,92
16224,note_on,0,0,7,,,,,,,,,6,,,81,92
16224,note_on,0,0,7,,,,,,,,,6,,,76,92
16270,note_on,0,0,5,,,,,,,,,4,,,81,0
16270,note_on,0,0,5,,,,,,,,,4,,,76,0
16270,note_on,46,0,5,,,,,,,,,4,,,73,0
16270,note_on,46,0,6,,,,,,,,,5,,,73,0
16270,note_on,0,0,6,,,,,,,,,5,,,76,0
16270,note_on,0,0,6,,,,,,,,,5,,,81,0
16270,note_on,46,0,7,,,,,,,,,6,,,73,0
16270,note_on,0,0,7,,,,,,,,,6,,,76,0
16270,note_on,0,0,7,,,,,,,,,6,,,81,0
16272,note_on,2,0,7,,,,,,,,,6,,,69,92
16272,note_on,2,0,5,,,,,,,,,4,,,69,92
16272,note_on,2,0,6,,,,,,,,,5,,,69,92
16318,note_on,46,0,6,,,,,,,,,5,,,69,0
16318,note_on,94,0,8,,,,,,,,,7,,,57,0
16318,note_on,46,0,7,,,,,,,,,6,,,69,0
16318,note_on,46,0,5,,,,,,,,,4,,,69,0
16320,note_on,2,0,5,,,,,,,,,4,,,73,92
16320,note_on,0,0,5,,,,,,,,,4,,,76,92
16320,note_on,0,0,5,,,,,,,,,4,,,81,92
16320,note_on,2,0,8,,,,,,,,,7,,,45,92
16320,note_on,0,0,6,,,,,,,,,5,,,76,92
16320,note_on,0,0,7,,,,,,,,,6,,,81,92
16320,note_on,0,0,7,,,,,,,,,6,,,76,92
16320,note_on,0,0,6,,,,,,,,,5,,,81,92
16320,note_on,2,0,7,,,,,,,,,6,,,73,92
16320,note_on,2,0,6,,,,,,,,,5,,,73,92
16366,note_on,0,0,5,,,,,,,,,4,,,76,0
16366,note_on,0,0,5,,,,,,,,,4,,,81,0
16366,note_on,0,0,7,,,,,,,,,6,,,81,0
16366,note_on,0,0,7,,,,,,,,,6,,,76,0
16366,note_on,46,0,5,,,,,,,,,4,,,73,0
16366,note_on,0,0,6,,,,,,,,,5,,,81,0
16366,note_on,46,0,7,,,,,,,,,6,,,73,0
16366,note_on,0,0,6,,,,,,,,,5,,,76,0
16366,note_on,46,0,6,,,,,,,,,5,,,73,0
16368,note_on,2,0,6,,,,,,,,,5,,,69,92
16368,note_on,2,0,5,,,,,,,,,4,,,69,92
16368,note_on,2,0,7,,,,,,,,,6,,,69,92
16414,note_on,94,0,8,,,,,,,,,7,,,45,0
16414,note_on,46,0,6,,,,,,,,,5,,,69,0
16414,note_on,46,0,7,,,,,,,,,6,,,69,0
16414,note_on,46,0,5,,,,,,,,,4,,,69,0
16416,note_on,0,0,7,,,,,,,,,6,,,81,92
16416,note_on,0,0,7,,,,,,,,,6,,,76,92
16416,note_on,2,0,7,,,,,,,,,6,,,73,92
16416,note_on,2,0,5,,,,,,,,,4,,,73,92
16416,note_on,2,0,6,,,,,,,,,5,,,73,92
16416,note_on,0,0,6,,,,,,,,,5,,,76,92
16416,note_on,0,0,5,,,,,,,,,4,,,76,92
16416,note_on,2,0,8,,,,,,,,,7,,,45,92
16416,note_on,0,0,5,,,,,,,,,4,,,81,92
16416,note_on,0,0,6,,,,,,,,,5,,,81,92
16462,note_on,46,0,5,,,,,,,,,4,,,73,0
16462,note_on,0,0,5,,,,,,,,,4,,,76,0
16462,note_on,46,0,7,,,,,,,,,6,,,73,0
16462,note_on,0,0,5,,,,,,,,,4,,,81,0
16462,note_on,46,0,6,,,,,,,,,5,,,73,0
16462,note_on,0,0,6,,,,,,,,,5,,,76,0
16462,note_on,0,0,6,,,,,,,,,5,,,81,0
16462,note_on,0,0,7,,,,,,,,,6,,,76,0
16462,note_on,0,0,7,,,,,,,,,6,,,81,0
16464,note_on,2,0,6,,,,,,,,,5,,,69,92
16464,note_on,336,0,2,,,,,,,,,1,,,64,0
16464,note_on,336,0,1,,,,,,,,,0,,,73,0
16464,note_on,2,0,5,,,,,,,,,4,,,69,92
16464,note_on,2,0,7,,,,,,,,,6,,,69,92
16464,note_on,336,0,3,,,,,,,,,2,,,57,0
16464,note_on,336,0,4,,,,,,,,,3,,,45,0
16510,note_on,46,0,7,,,,,,,,,6,,,69,0
16510,note_on,46,0,6,,,,,,,,,5,,,69,0
16510,note_on,94,0,8,,,,,,,,,7,,,45,0
16510,note_on,46,0,5,,,,,,,,,4,,,69,0
16512,note_on,0,0,6,,,,,,,,,5,,,81,92
16512,note_on,48,0,3,,,,,,,,,2,,,57,108
16512,note_on,48,0,4,,,,,,,,,3,,,50,108
16512,note_on,0,0,6,,,,,,,,,5,,,78,92
16512,note_on,2,0,7,,,,,,,,,6,,,69,92
16512,note_on,0,0,5,,,,,,,,,4,,,78,92
16512,note_on,0,0,5,,,,,,,,,4,,,74,92
16512,note_on,0,0,5,,,,,,,,,4,,,81,92
16512,note_on,0,0,6,,,,,,,,,5,,,74,92
16512,note_on,48,0,1,,,,,,,,,0,,,74,108
16512,note_on,2,0,5,,,,,,,,,4,,,69,92
16512,note_on,2,0,8,,,,,,,,,7,,,50,92
16512,note_on,48,0,2,,,,,,,,,1,,,66,108
16512,note_on,2,0,6,,,,,,,,,5,,,69,92
16512,note_on,0,0,7,,,,,,,,,6,,,81,92
16512,note_on,0,0,7,,,,,,,,,6,,,74,92
16512,note_on,0,0,7,,,,,,,,,6,,,78,92
16672,note_on,0,0,7,,,,,,,,,6,,,78,0
16672,note_on,0,0,6,,,,,,,,,5,,,78,0
16672,note_on,0,0,7,,,,,,,,,6,,,74,0
16672,note_on,160,0,7,,,,,,,,,6,,,69,0
16672,note_on,0,0,6,,,,,,,,,5,,,74,0
16672,note_on,160,0,6,,,,,,,,,5,,,69,0
16672,note_on,160,0,8,,,,,,,,,7,,,50,0
16672,note_on,0,0,5,,,,,,,,,4,,,81,0
16672,note_on,0,0,5,,,,,,,,,4,,,78,0
16672,note_on,0,0,5,,,,,,,,,4,,,74,0
16672,note_on,160,0,5,,,,,,,,,4,,,69,0
16672,note_on,0,0,7,,,,,,,,,6,,,81,0
16672,note_on,0,0,6,,,,,,,,,5,,,81,0
16704,note_on,0,0,6,,,,,,,,,5,,,78,92
16704,note_on,32,0,6,,,,,,,,,5,,,74,92
16704,note_on,32,0,7,,,,,,,,,6,,,74,92
16704,note_on,0,0,5,,,,,,,,,4,,,78,92
16704,note_on,32,0,5,,,,,,,,,4,,,74,92
16704,note_on,0,0,7,,,,,,,,,6,,,78,92
16750,note_on,46,0,7,,,,,,,,,6,,,74,0
16750,note_on,0,0,7,,,,,,,,,6,,,78,0
16750,note_on,0,0,6,,,,,,,,,5,,,78,0
16750,note_on,0,0,5,,,,,,,,,4,,,78,0
16750,note_on,46,0,5,,,,,,,,,4,,,74,0
16750,note_on,46,0,6,,,,,,,,,5,,,74,0
16752,note_on,2,0,7,,,,,,,,,6,,,81,92
16752,note_on,2,0,6,,,,,,,,,5,,,81,92
16752,note_on,2,0,5,,,,,,,,,4,,,81,92
16798,note_on,46,0,6,,,,,,,,,5,,,81,0
16798,note_on,46,0,5,,,,,,,,,4,,,81,0
16798,note_on,46,0,7,,,,,,,,,6,,,81,0
16800,note_on,0,0,5,,,,,,,,,4,,,78,92
16800,note_on,0,0,7,,,,,,,,,6,,,78,92
16800,note_on,2,0,7,,,,,,,,,6,,,74,92
16800,note_on,2,0,5,,,,,,,,,4,,,74,92
16800,note_on,2,0,6,,,,,,,,,5,,,74,92
16800,note_on,0,0,6,,,,,,,,,5,,,78,92
16846,note_on,0,0,7,,,,,,,,,6,,,78,0
16846,note_on,46,0,7,,,,,,,,,6,,,74,0
16846,note_on,0,0,6,,,,,,,,,5,,,78,0
16846,note_on,46,0,6,,,,,,,,,5,,,74,0
16846,note_on,46,0,5,,,,,,,,,4,,,74,0
16846,note_on,0,0,5,,,,,,,,,4,,,78,0
16848,end_of_track,0,1,3,,,,,,,,,,,,,
16848,end_of_track,0,1,1,,,,,,,,,,,,,
16848,note_on,336,0,1,,,,,,,,,0,,,74,0
16848,note_on,2,0,7,,,,,,,,,6,,,81,92
16848,note_on,2,0,5,,,,,,,,,4,,,81,92
16848,note_on,336,0,2,,,,,,,,,1,,,66,0
16848,note_on,336,0,3,,,,,,,,,2,,,57,0
16848,note_on,336,0,4,,,,,,,,,3,,,50,0
16848,end_of_track,0,1,4,,,,,,,,,,,,,
16848,note_on,2,0,6,,,,,,,,,5,,,81,92
16848,end_of_track,0,1,2,,,,,,,,,,,,,
16894,note_on,46,0,5,,,,,,,,,4,,,81,0
16894,note_on,46,0,7,,,,,,,,,6,,,81,0
16894,note_on,46,0,6,,,,,,,,,5,,,81,0
16896,note_on,2,0,6,,,,,,,,,5,,,69,92
16896,note_on,0,0,6,,,,,,,,,5,,,74,92
16896,note_on,224,0,8,,,,,,,,,7,,,50,92
16896,note_on,2,0,5,,,,,,,,,4,,,69,92
16896,note_on,0,0,5,,,,,,,,,4,,,74,92
16896,note_on,2,0,7,,,,,,,,,6,,,69,92
16896,note_on,0,0,7,,,,,,,,,6,,,74,92
16942,note_on,46,0,7,,,,,,,,,6,,,69,0
16942,note_on,46,0,5,,,,,,,,,4,,,69,0
16942,note_on,0,0,5,,,,,,,,,4,,,74,0
16942,note_on,46,0,6,,,,,,,,,5,,,69,0
16942,note_on,0,0,7,,,,,,,,,6,,,74,0
16942,note_on,0,0,6,,,,,,,,,5,,,74,0
16944,note_on,2,0,6,,,,,,,,,5,,,78,92
16944,note_on,2,0,7,,,,,,,,,6,,,78,92
16944,note_on,2,0,5,,,,,,,,,4,,,78,92
16990,note_on,46,0,6,,,,,,,,,5,,,78,0
16990,note_on,46,0,5,,,,,,,,,4,,,78,0
16990,note_on,46,0,7,,,,,,,,,6,,,78,0
16992,note_on,2,0,7,,,,,,,,,6,,,69,92
16992,note_on,0,0,7,,,,,,,,,6,,,74,92
16992,note_on,2,0,5,,,,,,,,,4,,,69,92
16992,note_on,0,0,5,,,,,,,,,4,,,74,92
16992,note_on,2,0,6,,,,,,,,,5,,,69,92
16992,note_on,0,0,6,,,,,,,,,5,,,74,92
17038,note_on,46,0,5,,,,,,,,,4,,,69,0
17038,note_on,0,0,5,,,,,,,,,4,,,74,0
17038,note_on,46,0,6,,,,,,,,,5,,,69,0
17038,note_on,46,0,7,,,,,,,,,6,,,69,0
17038,note_on,0,0,7,,,,,,,,,6,,,74,0
17038,note_on,0,0,6,,,,,,,,,5,,,74,0
17040,note_on,2,0,6,,,,,,,,,5,,,78,92
17040,note_on,2,0,5,,,,,,,,,4,,,78,92
17040,note_on,2,0,7,,,,,,,,,6,,,78,92
17056,note_on,160,0,8,,,,,,,,,7,,,50,0
17086,note_on,46,0,6,,,,,,,,,5,,,78,0
17086,note_on,46,0,5,,,,,,,,,4,,,78,0
17086,note_on,46,0,7,,,,,,,,,6,,,78,0
17088,note_on,0,0,5,,,,,,,,,4,,,69,92
17088,note_on,0,0,7,,,,,,,,,6,,,69,92
17088,note_on,2,0,5,,,,,,,,,4,,,66,92
17088,note_on,0,0,6,,,,,,,,,5,,,69,92
17088,note_on,2,0,7,,,,,,,,,6,,,66,92
17088,note_on,2,0,6,,,,,,,,,5,,,66,92
17134,note_on,46,0,7,,,,,,,,,6,,,66,0
17134,note_on,0,0,7,,,,,,,,,6,,,69,0
17134,note_on,46,0,6,,,,,,,,,5,,,66,0
17134,note_on,0,0,6,,,,,,,,,5,,,69,0
17134,note_on,46,0,5,,,,,,,,,4,,,66,0
17134,note_on,0,0,5,,,,,,,,,4,,,69,0
17136,note_on,2,0,6,,,,,,,,,5,,,74,92
17136,note_on,2,0,5,,,,,,,,,4,,,74,92
17136,note_on,2,0,7,,,,,,,,,6,,,74,92
17182,note_on,46,0,7,,,,,,,,,6,,,74,0
17182,note_on,46,0,5,,,,,,,,,4,,,74,0
17182,note_on,46,0,6,,,,,,,,,5,,,74,0
17184,note_on,2,0,6,,,,,,,,,5,,,66,92
17184,note_on,0,0,5,,,,,,,,,4,,,69,92
17184,note_on,2,0,5,,,,,,,,,4,,,66,92
17184,note_on,0,0,6,,,,,,,,,5,,,69,92
17184,note_on,0,0,7,,,,,,,,,6,,,69,92
17184,note_on,2,0,7,,,,,,,,,6,,,66,92
17230,note_on,46,0,5,,,,,,,,,4,,,66,0
17230,note_on,0,0,5,,,,,,,,,4,,,69,0
17230,note_on,46,0,6,,,,,,,,,5,,,66,0
17230,note_on,0,0,7,,,,,,,,,6,,,69,0
17230,note_on,0,0,6,,,,,,,,,5,,,69,0
17230,note_on,46,0,7,,,,,,,,,6,,,66,0
17232,note_on,2,0,6,,,,,,,,,5,,,74,92
17232,note_on,2,0,7,,,,,,,,,6,,,74,92
17232,note_on,2,0,5,,,,,,,,,4,,,74,92
17278,note_on,46,0,5,,,,,,,,,4,,,74,0
17278,note_on,46,0,6,,,,,,,,,5,,,74,0
17278,note_on,46,0,7,,,,,,,,,6,,,74,0
17280,note_on,2,0,5,,,,,,,,,4,,,62,92
17280,note_on,2,0,7,,,,,,,,,6,,,62,92
17280,note_on,224,0,8,,,,,,,,,7,,,50,92
17280,note_on,2,0,6,,,,,,,,,5,,,62,92
17280,note_on,0,0,6,,,,,,,,,5,,,66,92
17280,set_tempo,16512,1,0,535714,,,,,,,,,,,,
17280,note_on,0,0,5,,,,,,,,,4,,,66,92
17280,note_on,0,0,7,,,,,,,,,6,,,66,92
17374,note_on,94,0,5,,,,,,,,,4,,,62,0
17374,note_on,94,0,6,,,,,,,,,5,,,62,0
17374,note_on,0,0,6,,,,,,,,,5,,,66,0
17374,note_on,0,0,5,,,,,,,,,4,,,66,0
17374,note_on,94,0,7,,,,,,,,,6,,,62,0
17374,note_on,0,0,7,,,,,,,,,6,,,66,0
17374,note_on,94,0,8,,,,,,,,,7,,,50,0
17376,note_on,2,0,6,,,,,,,,,5,,,62,92
17376,note_on,2,0,7,,,,,,,,,6,,,62,92
17376,note_on,2,0,8,,,,,,,,,7,,,50,92
17376,note_on,2,0,5,,,,,,,,,4,,,62,92
17422,note_on,46,0,6,,,,,,,,,5,,,62,0
17422,note_on,46,0,8,,,,,,,,,7,,,50,0
17422,note_on,46,0,7,,,,,,,,,6,,,62,0
17422,note_on,46,0,5,,,,,,,,,4,,,62,0
17424,note_on,2,0,5,,,,,,,,,4,,,64,92
17424,note_on,2,0,7,,,,,,,,,6,,,64,92
17424,note_on,2,0,6,,,,,,,,,5,,,64,92
17424,note_on,2,0,8,,,,,,,,,7,,,52,92
17470,note_on,46,0,6,,,,,,,,,5,,,64,0
17470,note_on,46,0,8,,,,,,,,,7,,,52,0
17470,note_on,46,0,5,,,,,,,,,4,,,64,0
17470,note_on,46,0,7,,,,,,,,,6,,,64,0
17472,note_on,2,0,6,,,,,,,,,5,,,66,92
17472,note_on,2,0,8,,,,,,,,,7,,,54,92
17472,note_on,2,0,5,,,,,,,,,4,,,66,92
17472,note_on,2,0,7,,,,,,,,,6,,,66,92
17472,set_tempo,192,1,0,576923,,,,,,,,,,,,
17566,note_on,94,0,6,,,,,,,,,5,,,66,0
17566,note_on,94,0,8,,,,,,,,,7,,,54,0
17566,note_on,94,0,7,,,,,,,,,6,,,66,0
17566,note_on,94,0,5,,,,,,,,,4,,,66,0
17568,note_on,2,0,5,,,,,,,,,4,,,66,92
17568,note_on,2,0,8,,,,,,,,,7,,,54,92
17568,note_on,2,0,7,,,,,,,,,6,,,66,92
17568,note_on,2,0,6,,,,,,,,,5,,,66,92
17614,note_on,46,0,5,,,,,,,,,4,,,66,0
17614,note_on,46,0,8,,,,,,,,,7,,,54,0
17614,note_on,46,0,6,,,,,,,,,5,,,66,0
17614,note_on,46,0,7,,,,,,,,,6,,,66,0
17616,note_on,2,0,8,,,,,,,,,7,,,55,92
17616,note_on,2,0,7,,,,,,,,,6,,,67,92
17616,note_on,2,0,6,,,,,,,,,5,,,67,92
17616,note_on,2,0,5,,,,,,,,,4,,,67,92
17662,note_on,46,0,6,,,,,,,,,5,,,67,0
17662,note_on,46,0,5,,,,,,,,,4,,,67,0
17662,note_on,46,0,7,,,,,,,,,6,,,67,0
17662,note_on,46,0,8,,,,,,,,,7,,,55,0
17664,set_tempo,192,1,0,652173,,,,,,,,,,,,
17664,note_on,2,0,5,,,,,,,,,4,,,69,92
17664,note_on,2,0,7,,,,,,,,,6,,,69,92
17664,note_on,2,0,6,,,,,,,,,5,,,69,92
17664,note_on,2,0,8,,,,,,,,,7,,,57,92
17824,note_on,160,0,5,,,,,,,,,4,,,69,0
17824,note_on,160,0,7,,,,,,,,,6,,,69,0
17824,note_on,160,0,8,,,,,,,,,7,,,57,0
17824,note_on,160,0,6,,,,,,,,,5,,,69,0
17856,note_on,32,0,7,,,,,,,,,6,,,69,92
17856,note_on,0,0,8,,,,,,,,,7,,,57,92
17856,note_on,32,0,6,,,,,,,,,5,,,69,92
17856,note_on,32,0,5,,,,,,,,,4,,,69,92
17856,note_on,32,0,8,,,,,,,,,7,,,45,92
18016,note_on,160,0,6,,,,,,,,,5,,,69,0
18016,note_on,0,0,8,,,,,,,,,7,,,57,0
18016,note_on,160,0,5,,,,,,,,,4,,,69,0
18016,note_on,160,0,7,,,,,,,,,6,,,69,0
18016,note_on,160,0,8,,,,,,,,,7,,,45,0
18048,note_on,32,0,5,,,,,,,,,4,,,62,92
18048,note_on,32,0,7,,,,,,,,,6,,,62,92
18048,note_on,32,0,8,,,,,,,,,7,,,38,92
18048,note_on,0,0,8,,,,,,,,,7,,,50,92
18048,end_of_track,0,1,0,,,,,,,,,,,,,
18048,set_tempo,384,1,0,1000000,,,,,,,,,,,,
18048,note_on,32,0,6,,,,,,,,,5,,,62,92
18384,note_on,336,0,5,,,,,,,,,4,,,62,0
18384,end_of_track,0,1,7,,,,,,,,,,,,,
18384,end_of_track,0,1,6,,,,,,,,,,,,,
18384,end_of_track,0,1,5,,,,,,,,,,,,,
18384,end_of_track,0,1,8,,,,,,,,,,,,,
18384,note_on,0,0,8,,,,,,,,,7,,,50,0
18384,note_on,336,0,8,,,,,,,,,7,,,38,0
18384,note_on,336,0,7,,,,,,,,,6,,,62,0
18384,note_on,336,0,6,,,,,,,,,5,,,62,0
