tick,type,time,meta,track,tempo,key,numerator,denominator,clocks_per_click,notated_32nd_notes_per_beat,port,program,channel,control,value,note,velocity
0,track_name,0,1,0,,,,,,,,,,,,,
0,end_of_track,0,1,6,,,,,,,,,,,,,
0,control_change,0,0,6,,,,,,,,,8,10,64,,
0,control_change,0,0,6,,,,,,,,,8,7,127,,
0,track_name,0,1,6,,,,,,,,,,,,,
0,midi_port,0,1,6,,,,,,,0,,,,,,
0,control_change,0,0,5,,,,,,,,,7,10,64,,
0,control_change,0,0,5,,,,,,,,,7,7,111,,
0,program_change,0,0,5,,,,,,,,0,7,,,,
0,track_name,0,1,5,,,,,,,,,,,,,
0,midi_port,0,1,5,,,,,,,0,,,,,,
0,control_change,0,0,4,,,,,,,,,4,10,64,,
0,midi_port,0,1,7,,,,,,,0,,,,,,
0,control_change,0,0,4,,,,,,,,,4,7,111,,
0,track_name,0,1,4,,,,,,,,,,,,,
0,midi_port,0,1,4,,,,,,,0,,,,,,
0,control_change,0,0,12,,,,,,,,,14,10,64,,
0,control_change,0,0,3,,,,,,,,,6,10,64,,
0,control_change,0,0,3,,,,,,,,,6,7,115,,
0,program_change,0,0,3,,,,,,,,0,6,,,,
0,track_name,0,1,3,,,,,,,,,,,,,
0,midi_port,0,1,3,,,,,,,0,,,,,,
0,control_change,0,0,2,,,,,,,,,1,10,64,,
0,control_change,0,0,2,,,,,,,,,1,7,127,,
0,program_change,0,0,2,,,,,,,,48,1,,,,
0,program_change,0,0,4,,,,,,,,0,4,,,,
0,track_name,0,1,2,,,,,,,,,,,,,
0,track_name,0,1,7,,,,,,,,,,,,,
0,control_change,0,0,7,,,,,,,,,9,10,64,,
0,control_change,0,0,12,,,,,,,,,14,7,127,,
0,track_name,0,1,12,,,,,,,,,,,,,
0,midi_port,0,1,12,,,,,,,0,,,,,,
0,end_of_track,0,1,11,,,,,,,,,,,,,
0,control_change,0,0,11,,,,,,,,,13,10,64,,
0,control_change,0,0,11,,,,,,,,,13,7,127,,
0,track_name,0,1,11,,,,,,,,,,,,,
0,midi_port,0,1,11,,,,,,,0,,,,,,
0,end_of_track,0,1,10,,,,,,,,,,,,,
0,control_change,0,0,10,,,,,,,,,12,10,64,,
0,control_change,0,0,10,,,,,,,,,12,7,127,,
0,control_change,0,0,7,,,,,,,,,9,7,127,,
0,track_name,0,1,10,,,,,,,,,,,,,
0,end_of_track,0,1,9,,,,,,,,,,,,,
0,control_change,0,0,9,,,,,,,,,11,10,64,,
0,control_change,0,0,9,,,,,,,,,11,7,127,,
0,track_name,0,1,9,,,,,,,,,,,,,
0,midi_port,0,1,9,,,,,,,0,,,,,,
0,end_of_track,0,1,8,,,,,,,,,,,,,
0,control_change,0,0,8,,,,,,,,,10,10,64,,
0,control_change,0,0,8,,,,,,,,,10,7,127,,
0,track_name,0,1,8,,,,,,,,,,,,,
0,midi_port,0,1,8,,,,,,,0,,,,,,
0,end_of_track,0,1,7,,,,,,,,,,,,,
0,midi_port,0,1,10,,,,,,,0,,,,,,
0,midi_port,0,1,2,,,,,,,0,,,,,,
0,end_of_track,0,1,12,,,,,,,,,,,,,
0,copyright,0,1,0,,,,,,,,,,,,,
0,control_change,0,0,1,,,,,,,,,0,7,127,,
0,program_change,0,0,1,,,,,,,,48,0,,,,
0,track_name,0,1,1,,,,,,,,,,,,,
0,midi_port,0,1,1,,,,,,,0,,,,,,
0,text,0,1,0,,,,,,,,,,,,,
0,text,0,1,0,,,,,,,,,,,,,
0,control_change,0,0,1,,,,,,,,,0,10,64,,
0,set_tempo,0,1,0,416666,,,,,,,,,,,,
0,key_signature,0,1,0,,G,,,,,,,,,,,
0,time_signature,0,1,0,,,4,4,24,8,,,,,,,
768,note_on,768,0,3,,,,,,,,,6,,,67,108
768,time_signature,0,1,0,,,2,4,24,8,,,,,,,
768,set_tempo,768,1,0,600000,,,,,,,,,,,,
814,note_on,46,0,3,,,,,,,,,6,,,67,0
816,note_on,2,0,3,,,,,,,,,6,,,71,108
816,note_on,816,0,5,,,,,,,,,7,,,55,108
816,note_on,816,0,4,,,,,,,,,4,,,62,108
976,note_on,160,0,5,,,,,,,,,7,,,55,0
976,note_on,160,0,4,,,,,,,,,4,,,62,0
976,note_on,160,0,3,,,,,,,,,6,,,71,0
1008,note_on,32,0,3,,,,,,,,,6,,,72,108
1008,note_on,32,0,4,,,,,,,,,4,,,64,108
1008,note_on,32,0,5,,,,,,,,,7,,,48,108
1168,note_on,160,0,4,,,,,,,,,4,,,64,0
1168,note_on,160,0,3,,,,,,,,,6,,,72,0
1168,note_on,160,0,5,,,,,,,,,7,,,48,0
1200,note_on,32,0,4,,,,,,,,,4,,,59,108
1200,note_on,0,0,4,,,,,,,,,4,,,67,108
1200,note_on,32,0,3,,,,,,,,,6,,,74,108
1200,note_on,32,0,5,,,,,,,,,7,,,43,108
1360,note_on,160,0,3,,,,,,,,,6,,,74,0
1360,note_on,160,0,4,,,,,,,,,4,,,59,0
1360,note_on,0,0,4,,,,,,,,,4,,,67,0
1360,note_on,160,0,5,,,,,,,,,7,,,43,0
1488,note_on,128,0,3,,,,,,,,,6,,,76,108
1534,note_on,46,0,3,,,,,,,,,6,,,76,0
1536,note_on,2,0,3,,,,,,,,,6,,,78,108
1582,note_on,46,0,3,,,,,,,,,6,,,78,0
1584,note_on,224,0,4,,,,,,,,,4,,,71,108
1584,note_on,2,0,3,,,,,,,,,6,,,79,108
1584,note_on,224,0,5,,,,,,,,,7,,,55,108
1678,note_on,94,0,3,,,,,,,,,6,,,79,0
1680,note_on,2,0,3,,,,,,,,,6,,,78,108
1726,note_on,46,0,3,,,,,,,,,6,,,78,0
1728,note_on,2,0,3,,,,,,,,,6,,,76,108
1744,note_on,160,0,4,,,,,,,,,4,,,71,0
1744,note_on,160,0,5,,,,,,,,,7,,,55,0
1774,note_on,46,0,3,,,,,,,,,6,,,76,0
1776,note_on,2,0,3,,,,,,,,,6,,,74,108
1776,note_on,32,0,5,,,,,,,,,7,,,54,108
1776,note_on,32,0,4,,,,,,,,,4,,,69,108
1870,note_on,94,0,3,,,,,,,,,6,,,74,0
1872,note_on,2,0,3,,,,,,,,,6,,,72,108
1936,note_on,160,0,4,,,,,,,,,4,,,69,0
1936,note_on,160,0,5,,,,,,,,,7,,,54,0
1966,note_on,94,0,3,,,,,,,,,6,,,72,0
1968,note_on,2,0,3,,,,,,,,,6,,,71,108
1968,note_on,32,0,5,,,,,,,,,7,,,55,108
1968,note_on,32,0,4,,,,,,,,,4,,,62,108
2062,note_on,94,0,3,,,,,,,,,6,,,71,0
2064,note_on,2,0,3,,,,,,,,,6,,,69,108
2110,note_on,46,0,3,,,,,,,,,6,,,69,0
2112,note_on,2,0,3,,,,,,,,,6,,,67,108
2128,note_on,160,0,4,,,,,,,,,4,,,62,0
2128,note_on,160,0,5,,,,,,,,,7,,,55,0
2158,note_on,46,0,3,,,,,,,,,6,,,67,0
2160,note_on,2,0,3,,,,,,,,,6,,,66,108
2160,note_on,32,0,4,,,,,,,,,4,,,66,108
2160,note_on,32,0,5,,,,,,,,,7,,,54,108
2254,note_on,94,0,4,,,,,,,,,4,,,66,0
2254,note_on,94,0,5,,,,,,,,,7,,,54,0
2254,note_on,94,0,3,,,,,,,,,6,,,66,0
2256,note_on,2,0,5,,,,,,,,,7,,,52,108
2256,note_on,2,0,3,,,,,,,,,6,,,64,108
2256,note_on,2,0,4,,,,,,,,,4,,,64,108
2350,note_on,94,0,4,,,,,,,,,4,,,64,0
2350,note_on,94,0,5,,,,,,,,,7,,,52,0
2350,note_on,94,0,3,,,,,,,,,6,,,64,0
2352,note_on,2,0,5,,,,,,,,,7,,,50,108
2352,note_on,2,0,3,,,,,,,,,6,,,62,108
2352,note_on,2,0,4,,,,,,,,,4,,,62,108
2446,note_on,94,0,5,,,,,,,,,7,,,50,0
2446,note_on,94,0,3,,,,,,,,,6,,,62,0
2446,note_on,94,0,4,,,,,,,,,4,,,62,0
2448,note_on,2,0,5,,,,,,,,,7,,,48,108
2448,note_on,2,0,4,,,,,,,,,4,,,60,108
2448,note_on,2,0,3,,,,,,,,,6,,,60,108
2494,note_on,46,0,4,,,,,,,,,4,,,60,0
2494,note_on,46,0,5,,,,,,,,,7,,,48,0
2494,note_on,46,0,3,,,,,,,,,6,,,60,0
2496,note_on,2,0,3,,,,,,,,,6,,,59,108
2496,note_on,2,0,5,,,,,,,,,7,,,47,108
2496,note_on,2,0,4,,,,,,,,,4,,,59,108
2542,note_on,46,0,5,,,,,,,,,7,,,47,0
2542,note_on,46,0,4,,,,,,,,,4,,,59,0
2542,note_on,46,0,3,,,,,,,,,6,,,59,0
2544,note_on,2,0,4,,,,,,,,,4,,,57,108
2544,note_on,2,0,5,,,,,,,,,7,,,45,108
2544,note_on,2,0,3,,,,,,,,,6,,,57,108
2638,note_on,94,0,5,,,,,,,,,7,,,45,0
2638,note_on,94,0,3,,,,,,,,,6,,,57,0
2638,note_on,94,0,4,,,,,,,,,4,,,57,0
2640,note_on,2,0,5,,,,,,,,,7,,,43,108
2640,note_on,2,0,3,,,,,,,,,6,,,55,108
2640,note_on,2,0,4,,,,,,,,,4,,,55,108
2734,note_on,94,0,4,,,,,,,,,4,,,55,0
2734,note_on,94,0,3,,,,,,,,,6,,,55,0
2734,note_on,94,0,5,,,,,,,,,7,,,43,0
2736,note_on,2,0,3,,,,,,,,,6,,,62,108
2736,note_on,2,0,4,,,,,,,,,4,,,62,108
2736,note_on,2,0,5,,,,,,,,,7,,,50,108
2896,note_on,160,0,5,,,,,,,,,7,,,50,0
2896,note_on,160,0,3,,,,,,,,,6,,,62,0
2896,note_on,160,0,4,,,,,,,,,4,,,62,0
2928,note_on,32,0,4,,,,,,,,,4,,,66,108
2928,note_on,0,0,4,,,,,,,,,4,,,69,108
2928,note_on,32,0,5,,,,,,,,,7,,,50,108
3022,note_on,94,0,4,,,,,,,,,4,,,66,0
3022,note_on,0,0,4,,,,,,,,,4,,,69,0
3022,note_on,94,0,5,,,,,,,,,7,,,50,0
3024,note_on,2,0,4,,,,,,,,,4,,,66,108
3024,note_on,128,0,3,,,,,,,,,6,,,74,108
3024,note_on,2,0,5,,,,,,,,,7,,,48,108
3024,note_on,0,0,4,,,,,,,,,4,,,69,108
3118,note_on,94,0,3,,,,,,,,,6,,,74,0
3118,note_on,0,0,4,,,,,,,,,4,,,69,0
3118,note_on,94,0,4,,,,,,,,,4,,,66,0
3118,note_on,94,0,5,,,,,,,,,7,,,48,0
3120,note_on,2,0,3,,,,,,,,,6,,,65,108
3120,note_on,2,0,4,,,,,,,,,4,,,62,108
3120,note_on,2,0,5,,,,,,,,,7,,,47,108
3214,note_on,94,0,5,,,,,,,,,7,,,47,0
3214,note_on,94,0,4,,,,,,,,,4,,,62,0
3216,note_on,2,0,4,,,,,,,,,4,,,60,108
3216,note_on,2,0,5,,,,,,,,,7,,,45,108
3310,note_on,94,0,5,,,,,,,,,7,,,45,0
3310,note_on,94,0,4,,,,,,,,,4,,,60,0
3312,note_on,2,0,5,,,,,,,,,7,,,47,108
3312,note_on,2,0,4,,,,,,,,,4,,,62,108
3358,note_on,238,0,3,,,,,,,,,6,,,65,0
3360,note_on,2,0,3,,,,,,,,,6,,,64,108
3406,note_on,46,0,3,,,,,,,,,6,,,64,0
3406,note_on,94,0,5,,,,,,,,,7,,,47,0
3406,note_on,94,0,4,,,,,,,,,4,,,62,0
3408,note_on,2,0,3,,,,,,,,,6,,,65,108
3408,note_on,2,0,4,,,,,,,,,4,,,59,108
3408,note_on,2,0,5,,,,,,,,,7,,,43,108
3454,note_on,46,0,3,,,,,,,,,6,,,65,0
3456,note_on,2,0,3,,,,,,,,,6,,,67,108
3502,note_on,94,0,5,,,,,,,,,7,,,43,0
3502,note_on,94,0,4,,,,,,,,,4,,,59,0
3502,note_on,46,0,3,,,,,,,,,6,,,67,0
3504,note_on,2,0,4,,,,,,,,,4,,,55,108
3504,note_on,2,0,3,,,,,,,,,6,,,64,108
3504,note_on,2,0,5,,,,,,,,,7,,,48,108
3598,note_on,94,0,3,,,,,,,,,6,,,64,0
3600,note_on,2,0,3,,,,,,,,,6,,,60,108
3694,note_on,94,0,3,,,,,,,,,6,,,60,0
3696,note_on,2,0,3,,,,,,,,,6,,,64,108
3760,note_on,256,0,4,,,,,,,,,4,,,55,0
3790,note_on,94,0,3,,,,,,,,,6,,,64,0
3792,note_on,32,0,4,,,,,,,,,4,,,67,108
3792,note_on,2,0,3,,,,,,,,,6,,,76,108
3840,note_on,336,0,5,,,,,,,,,7,,,48,0
3886,note_on,94,0,4,,,,,,,,,4,,,67,0
3886,note_on,94,0,3,,,,,,,,,6,,,76,0
3888,note_on,2,0,3,,,,,,,,,6,,,67,108
3888,note_on,2,0,4,,,,,,,,,4,,,64,108
3888,note_on,48,0,5,,,,,,,,,7,,,49,108
3982,note_on,94,0,5,,,,,,,,,7,,,49,0
3982,note_on,94,0,4,,,,,,,,,4,,,64,0
3984,note_on,2,0,5,,,,,,,,,7,,,47,108
3984,note_on,2,0,4,,,,,,,,,4,,,62,108
4078,note_on,94,0,4,,,,,,,,,4,,,62,0
4078,note_on,94,0,5,,,,,,,,,7,,,47,0
4080,note_on,2,0,4,,,,,,,,,4,,,64,108
4080,note_on,2,0,5,,,,,,,,,7,,,49,108
4126,note_on,238,0,3,,,,,,,,,6,,,67,0
4128,note_on,2,0,3,,,,,,,,,6,,,66,108
4174,note_on,94,0,5,,,,,,,,,7,,,49,0
4174,note_on,94,0,4,,,,,,,,,4,,,64,0
4174,note_on,46,0,3,,,,,,,,,6,,,66,0
4176,note_on,2,0,5,,,,,,,,,7,,,45,108
4176,note_on,2,0,3,,,,,,,,,6,,,67,108
4176,note_on,2,0,4,,,,,,,,,4,,,61,108
4222,note_on,46,0,3,,,,,,,,,6,,,67,0
4224,note_on,2,0,3,,,,,,,,,6,,,69,108
4270,note_on,94,0,5,,,,,,,,,7,,,45,0
4270,note_on,46,0,3,,,,,,,,,6,,,69,0
4270,note_on,94,0,4,,,,,,,,,4,,,61,0
4272,note_on,2,0,4,,,,,,,,,4,,,57,108
4272,note_on,2,0,5,,,,,,,,,7,,,50,108
4272,note_on,2,0,3,,,,,,,,,6,,,66,108
4366,note_on,94,0,3,,,,,,,,,6,,,66,0
4368,note_on,2,0,3,,,,,,,,,6,,,62,108
4462,note_on,94,0,3,,,,,,,,,6,,,62,0
4464,note_on,2,0,3,,,,,,,,,6,,,66,108
4528,note_on,256,0,4,,,,,,,,,4,,,57,0
4558,note_on,94,0,3,,,,,,,,,6,,,66,0
4560,note_on,32,0,4,,,,,,,,,4,,,66,108
4560,note_on,2,0,3,,,,,,,,,6,,,81,108
4608,note_on,336,0,5,,,,,,,,,7,,,50,0
4654,note_on,94,0,3,,,,,,,,,6,,,81,0
4654,note_on,94,0,4,,,,,,,,,4,,,66,0
4656,note_on,2,0,3,,,,,,,,,6,,,72,108
4656,note_on,48,0,5,,,,,,,,,7,,,57,108
4656,note_on,2,0,4,,,,,,,,,4,,,64,108
4750,note_on,94,0,5,,,,,,,,,7,,,57,0
4752,note_on,2,0,5,,,,,,,,,7,,,55,108
4816,note_on,160,0,4,,,,,,,,,4,,,64,0
4846,note_on,94,0,5,,,,,,,,,7,,,55,0
4848,note_on,32,0,4,,,,,,,,,4,,,69,108
4848,note_on,2,0,5,,,,,,,,,7,,,54,108
4894,note_on,238,0,3,,,,,,,,,6,,,72,0
4896,note_on,2,0,3,,,,,,,,,6,,,71,108
4942,note_on,94,0,5,,,,,,,,,7,,,54,0
4942,note_on,46,0,3,,,,,,,,,6,,,71,0
4942,note_on,94,0,4,,,,,,,,,4,,,69,0
4944,note_on,2,0,4,,,,,,,,,4,,,66,108
4944,note_on,2,0,5,,,,,,,,,7,,,50,108
4944,note_on,2,0,3,,,,,,,,,6,,,72,108
4990,note_on,46,0,3,,,,,,,,,6,,,72,0
4992,note_on,2,0,3,,,,,,,,,6,,,74,108
5038,note_on,94,0,5,,,,,,,,,7,,,50,0
5038,note_on,46,0,3,,,,,,,,,6,,,74,0
5038,note_on,94,0,4,,,,,,,,,4,,,66,0
5040,note_on,2,0,3,,,,,,,,,6,,,71,108
5040,note_on,2,0,5,,,,,,,,,7,,,55,108
5040,note_on,2,0,4,,,,,,,,,4,,,62,108
5134,note_on,94,0,5,,,,,,,,,7,,,55,0
5134,note_on,94,0,3,,,,,,,,,6,,,71,0
5136,note_on,2,0,5,,,,,,,,,7,,,53,108
5136,note_on,2,0,3,,,,,,,,,6,,,79,108
5200,note_on,160,0,4,,,,,,,,,4,,,62,0
5230,note_on,94,0,3,,,,,,,,,6,,,79,0
5230,note_on,94,0,5,,,,,,,,,7,,,53,0
5232,note_on,2,0,3,,,,,,,,,6,,,70,108
5232,note_on,32,0,4,,,,,,,,,4,,,67,108
5232,note_on,2,0,5,,,,,,,,,7,,,52,108
5326,note_on,94,0,5,,,,,,,,,7,,,52,0
5326,note_on,94,0,4,,,,,,,,,4,,,67,0
5328,note_on,2,0,5,,,,,,,,,7,,,48,108
5328,note_on,2,0,4,,,,,,,,,4,,,64,108
5392,note_on,160,0,3,,,,,,,,,6,,,70,0
5422,note_on,94,0,5,,,,,,,,,7,,,48,0
5422,note_on,94,0,4,,,,,,,,,4,,,64,0
5424,note_on,32,0,3,,,,,,,,,6,,,69,108
5424,note_on,2,0,5,,,,,,,,,7,,,53,108
5424,note_on,2,0,4,,,,,,,,,4,,,60,108
5518,note_on,94,0,3,,,,,,,,,6,,,69,0
5518,note_on,94,0,5,,,,,,,,,7,,,53,0
5520,note_on,2,0,3,,,,,,,,,6,,,77,108
5520,note_on,2,0,5,,,,,,,,,7,,,51,108
5584,note_on,160,0,4,,,,,,,,,4,,,60,0
5614,note_on,94,0,3,,,,,,,,,6,,,77,0
5614,note_on,94,0,5,,,,,,,,,7,,,51,0
5616,note_on,2,0,3,,,,,,,,,6,,,68,108
5616,note_on,32,0,4,,,,,,,,,4,,,65,108
5616,note_on,2,0,5,,,,,,,,,7,,,50,108
5710,note_on,94,0,4,,,,,,,,,4,,,65,0
5710,note_on,94,0,5,,,,,,,,,7,,,50,0
5712,note_on,2,0,5,,,,,,,,,7,,,46,108
5712,note_on,2,0,4,,,,,,,,,4,,,62,108
5776,note_on,160,0,3,,,,,,,,,6,,,68,0
5806,note_on,94,0,5,,,,,,,,,7,,,46,0
5806,note_on,94,0,4,,,,,,,,,4,,,62,0
5808,note_on,32,0,3,,,,,,,,,6,,,67,108
5808,note_on,2,0,4,,,,,,,,,4,,,58,108
5808,note_on,2,0,5,,,,,,,,,7,,,51,108
5902,note_on,94,0,5,,,,,,,,,7,,,51,0
5902,note_on,94,0,3,,,,,,,,,6,,,67,0
5904,note_on,2,0,5,,,,,,,,,7,,,50,108
5904,note_on,2,0,3,,,,,,,,,6,,,75,108
5968,note_on,160,0,4,,,,,,,,,4,,,58,0
5998,note_on,94,0,3,,,,,,,,,6,,,75,0
5998,note_on,94,0,5,,,,,,,,,7,,,50,0
6000,note_on,32,0,4,,,,,,,,,4,,,64,108
6000,note_on,2,0,5,,,,,,,,,7,,,49,108
6000,note_on,2,0,3,,,,,,,,,6,,,67,108
6094,note_on,94,0,5,,,,,,,,,7,,,49,0
6094,note_on,94,0,4,,,,,,,,,4,,,64,0
6096,note_on,2,0,5,,,,,,,,,7,,,45,108
6096,note_on,2,0,4,,,,,,,,,4,,,61,108
6160,note_on,160,0,3,,,,,,,,,6,,,67,0
6190,note_on,94,0,5,,,,,,,,,7,,,45,0
6190,note_on,94,0,4,,,,,,,,,4,,,61,0
6192,note_on,2,0,4,,,,,,,,,4,,,57,108
6192,note_on,2,0,5,,,,,,,,,7,,,50,108
6192,note_on,32,0,3,,,,,,,,,6,,,66,108
6238,note_on,46,0,3,,,,,,,,,6,,,66,0
6240,note_on,2,0,3,,,,,,,,,6,,,67,108
6286,note_on,46,0,3,,,,,,,,,6,,,67,0
6288,note_on,2,0,3,,,,,,,,,6,,,69,108
6334,note_on,46,0,3,,,,,,,,,6,,,69,0
6336,note_on,2,0,3,,,,,,,,,6,,,71,108
6382,note_on,46,0,3,,,,,,,,,6,,,71,0
6384,note_on,2,0,3,,,,,,,,,6,,,72,108
6448,note_on,256,0,5,,,,,,,,,7,,,50,0
6448,note_on,256,0,4,,,,,,,,,4,,,57,0
6478,note_on,94,0,3,,,,,,,,,6,,,72,0
6480,note_on,32,0,4,,,,,,,,,4,,,69,108
6480,note_on,32,0,5,,,,,,,,,7,,,54,108
6480,note_on,2,0,3,,,,,,,,,6,,,74,108
6574,note_on,94,0,4,,,,,,,,,4,,,69,0
6574,note_on,94,0,3,,,,,,,,,6,,,74,0
6574,note_on,94,0,5,,,,,,,,,7,,,54,0
6576,note_on,2,0,4,,,,,,,,,4,,,62,108
6576,note_on,2,0,5,,,,,,,,,7,,,55,108
6576,note_on,2,0,3,,,,,,,,,6,,,71,108
6670,note_on,94,0,4,,,,,,,,,4,,,62,0
6670,note_on,94,0,5,,,,,,,,,7,,,55,0
6670,note_on,94,0,3,,,,,,,,,6,,,71,0
6672,note_on,2,0,3,,,,,,,,,6,,,79,108
6672,note_on,2,0,4,,,,,,,,,4,,,74,108
6672,note_on,2,0,5,,,,,,,,,7,,,47,108
6718,note_on,46,0,4,,,,,,,,,4,,,74,0
6718,note_on,46,0,5,,,,,,,,,7,,,47,0
6720,note_on,2,0,5,,,,,,,,,7,,,48,108
6720,note_on,2,0,4,,,,,,,,,4,,,76,108
6766,note_on,46,0,5,,,,,,,,,7,,,48,0
6766,note_on,46,0,4,,,,,,,,,4,,,76,0
6766,note_on,94,0,3,,,,,,,,,6,,,79,0
6768,note_on,2,0,4,,,,,,,,,4,,,67,108
6768,note_on,2,0,5,,,,,,,,,7,,,50,108
6768,note_on,2,0,3,,,,,,,,,6,,,69,108
6862,note_on,94,0,4,,,,,,,,,4,,,67,0
6862,note_on,94,0,3,,,,,,,,,6,,,69,0
6862,note_on,94,0,5,,,,,,,,,7,,,50,0
6864,note_on,2,0,5,,,,,,,,,7,,,38,108
6864,note_on,2,0,4,,,,,,,,,4,,,69,108
6864,note_on,2,0,3,,,,,,,,,6,,,78,108
6958,note_on,94,0,4,,,,,,,,,4,,,69,0
6958,note_on,94,0,5,,,,,,,,,7,,,38,0
6958,note_on,94,0,3,,,,,,,,,6,,,78,0
6960,note_on,2,0,5,,,,,,,,,7,,,43,108
6960,note_on,2,0,4,,,,,,,,,4,,,71,108
6960,note_on,2,0,3,,,,,,,,,6,,,79,108
7054,note_on,94,0,5,,,,,,,,,7,,,43,0
7056,note_on,2,0,5,,,,,,,,,7,,,55,108
7120,note_on,160,0,3,,,,,,,,,6,,,79,0
7120,note_on,160,0,4,,,,,,,,,4,,,71,0
7150,note_on,94,0,5,,,,,,,,,7,,,55,0
7152,note_on,2,0,5,,,,,,,,,7,,,43,108
7248,note_on,128,0,3,,,,,,,,,6,,,67,92
7248,note_on,7248,0,1,,,,,,,,,0,,,67,108
7248,note_on,128,0,4,,,,,,,,,4,,,67,92
7312,note_on,160,0,5,,,,,,,,,7,,,43,0
7342,note_on,94,0,3,,,,,,,,,6,,,67,0
7342,note_on,94,0,1,,,,,,,,,0,,,67,0
7342,note_on,94,0,4,,,,,,,,,4,,,67,0
7344,note_on,2,0,1,,,,,,,,,0,,,71,108
7344,note_on,2,0,3,,,,,,,,,6,,,55,92
7440,note_on,98,0,4,,,,,,,,,4,,,59,92
7440,note_on,0,0,4,,,,,,,,,4,,,62,92
7440,note_on,128,0,5,,,,,,,,,7,,,55,92
7504,note_on,160,0,3,,,,,,,,,6,,,55,0
7504,note_on,160,0,1,,,,,,,,,0,,,71,0
7534,note_on,94,0,4,,,,,,,,,4,,,59,0
7534,note_on,0,0,4,,,,,,,,,4,,,62,0
7534,note_on,94,0,5,,,,,,,,,7,,,55,0
7536,note_on,2,0,4,,,,,,,,,4,,,60,92
7536,note_on,0,0,4,,,,,,,,,4,,,64,92
7536,note_on,2,0,5,,,,,,,,,7,,,43,92
7536,note_on,32,0,1,,,,,,,,,0,,,72,108
7632,note_on,128,0,3,,,,,,,,,6,,,67,92
7696,note_on,160,0,4,,,,,,,,,4,,,60,0
7696,note_on,0,0,4,,,,,,,,,4,,,64,0
7696,note_on,160,0,1,,,,,,,,,0,,,72,0
7696,note_on,160,0,5,,,,,,,,,7,,,43,0
7726,note_on,94,0,3,,,,,,,,,6,,,67,0
7728,note_on,32,0,1,,,,,,,,,0,,,74,108
7728,note_on,2,0,3,,,,,,,,,6,,,55,92
7824,note_on,128,0,4,,,,,,,,,4,,,59,92
7824,note_on,128,0,5,,,,,,,,,7,,,55,92
7870,note_on,46,0,4,,,,,,,,,4,,,59,0
7872,note_on,2,0,4,,,,,,,,,4,,,60,92
7888,note_on,160,0,3,,,,,,,,,6,,,55,0
7918,note_on,94,0,5,,,,,,,,,7,,,55,0
7918,note_on,46,0,4,,,,,,,,,4,,,60,0
7920,note_on,2,0,5,,,,,,,,,7,,,43,92
7920,note_on,2,0,4,,,,,,,,,4,,,59,92
7920,note_on,0,0,4,,,,,,,,,4,,,62,92
8016,note_on,128,0,3,,,,,,,,,6,,,67,92
8016,note_on,8016,0,2,,,,,,,,,1,,,67,108
8064,note_on,336,0,1,,,,,,,,,0,,,74,0
8080,note_on,160,0,4,,,,,,,,,4,,,59,0
8080,note_on,160,0,5,,,,,,,,,7,,,43,0
8080,note_on,0,0,4,,,,,,,,,4,,,62,0
8110,note_on,94,0,2,,,,,,,,,1,,,67,0
8110,note_on,94,0,3,,,,,,,,,6,,,67,0
8112,note_on,2,0,3,,,,,,,,,6,,,55,92
8112,note_on,2,0,2,,,,,,,,,1,,,71,108
8208,note_on,0,0,4,,,,,,,,,4,,,62,92
8208,note_on,128,0,5,,,,,,,,,7,,,55,92
8208,note_on,128,0,4,,,,,,,,,4,,,59,92
8272,note_on,160,0,3,,,,,,,,,6,,,55,0
8272,note_on,160,0,2,,,,,,,,,1,,,71,0
8302,note_on,94,0,5,,,,,,,,,7,,,55,0
8302,note_on,0,0,4,,,,,,,,,4,,,62,0
8302,note_on,94,0,4,,,,,,,,,4,,,59,0
8304,note_on,2,0,4,,,,,,,,,4,,,60,92
8304,note_on,2,0,5,,,,,,,,,7,,,43,92
8304,note_on,32,0,2,,,,,,,,,1,,,72,108
8304,note_on,0,0,4,,,,,,,,,4,,,64,92
8400,note_on,128,0,3,,,,,,,,,6,,,67,92
8464,note_on,160,0,2,,,,,,,,,1,,,72,0
8464,note_on,160,0,4,,,,,,,,,4,,,60,0
8464,note_on,160,0,5,,,,,,,,,7,,,43,0
8464,note_on,0,0,4,,,,,,,,,4,,,64,0
8494,note_on,94,0,3,,,,,,,,,6,,,67,0
8496,note_on,32,0,2,,,,,,,,,1,,,74,108
8496,note_on,2,0,3,,,,,,,,,6,,,55,92
8496,note_on,432,0,1,,,,,,,,,0,,,74,108
8592,note_on,128,0,5,,,,,,,,,7,,,55,92
8592,note_on,128,0,4,,,,,,,,,4,,,59,92
8638,note_on,46,0,4,,,,,,,,,4,,,59,0
8640,note_on,2,0,4,,,,,,,,,4,,,60,92
8656,note_on,160,0,3,,,,,,,,,6,,,55,0
8686,note_on,94,0,5,,,,,,,,,7,,,55,0
8686,note_on,46,0,4,,,,,,,,,4,,,60,0
8688,note_on,2,0,5,,,,,,,,,7,,,43,92
8688,note_on,0,0,4,,,,,,,,,4,,,62,92
8688,note_on,2,0,4,,,,,,,,,4,,,59,92
8752,note_on,256,0,1,,,,,,,,,0,,,74,0
8784,note_on,32,0,1,,,,,,,,,0,,,76,108
8784,note_on,128,0,3,,,,,,,,,6,,,67,92
8832,note_on,336,0,2,,,,,,,,,1,,,74,0
8848,note_on,160,0,4,,,,,,,,,4,,,59,0
8848,note_on,0,0,4,,,,,,,,,4,,,62,0
8848,note_on,160,0,5,,,,,,,,,7,,,43,0
8878,note_on,94,0,1,,,,,,,,,0,,,76,0
8878,note_on,94,0,3,,,,,,,,,6,,,67,0
8880,note_on,2,0,1,,,,,,,,,0,,,72,108
8880,note_on,2,0,3,,,,,,,,,6,,,55,92
8976,note_on,128,0,5,,,,,,,,,7,,,55,92
8976,note_on,128,0,4,,,,,,,,,4,,,60,92
9040,note_on,160,0,1,,,,,,,,,0,,,72,0
9040,note_on,160,0,3,,,,,,,,,6,,,55,0
9070,note_on,94,0,4,,,,,,,,,4,,,60,0
9070,note_on,94,0,5,,,,,,,,,7,,,55,0
9072,note_on,2,0,5,,,,,,,,,7,,,43,92
9072,note_on,2,0,4,,,,,,,,,4,,,60,92
9072,note_on,32,0,1,,,,,,,,,0,,,72,108
9166,note_on,94,0,1,,,,,,,,,0,,,72,0
9166,note_on,94,0,4,,,,,,,,,4,,,60,0
9168,note_on,2,0,1,,,,,,,,,0,,,74,108
9168,note_on,128,0,3,,,,,,,,,6,,,67,92
9168,note_on,2,0,4,,,,,,,,,4,,,59,92
9214,note_on,46,0,4,,,,,,,,,4,,,59,0
9216,note_on,2,0,4,,,,,,,,,4,,,57,92
9232,note_on,160,0,5,,,,,,,,,7,,,43,0
9262,note_on,46,0,4,,,,,,,,,4,,,57,0
9262,note_on,94,0,1,,,,,,,,,0,,,74,0
9262,note_on,94,0,3,,,,,,,,,6,,,67,0
9264,note_on,432,0,2,,,,,,,,,1,,,74,108
9264,note_on,2,0,1,,,,,,,,,0,,,71,108
9264,note_on,2,0,3,,,,,,,,,6,,,55,92
9360,note_on,98,0,4,,,,,,,,,4,,,59,92
9360,note_on,128,0,5,,,,,,,,,7,,,55,92
9360,note_on,0,0,4,,,,,,,,,4,,,62,92
9424,note_on,160,0,3,,,,,,,,,6,,,55,0
9454,note_on,94,0,5,,,,,,,,,7,,,55,0
9454,note_on,0,0,4,,,,,,,,,4,,,62,0
9454,note_on,94,0,4,,,,,,,,,4,,,59,0
9456,note_on,2,0,5,,,,,,,,,7,,,43,92
9456,note_on,2,0,4,,,,,,,,,4,,,59,92
9456,note_on,0,0,4,,,,,,,,,4,,,62,92
9520,note_on,256,0,2,,,,,,,,,1,,,74,0
9550,note_on,0,0,4,,,,,,,,,4,,,62,0
9550,note_on,94,0,4,,,,,,,,,4,,,59,0
9552,note_on,32,0,2,,,,,,,,,1,,,76,108
9552,note_on,2,0,4,,,,,,,,,4,,,59,92
9552,note_on,128,0,3,,,,,,,,,6,,,67,92
9600,note_on,336,0,1,,,,,,,,,0,,,71,0
9616,note_on,160,0,5,,,,,,,,,7,,,43,0
9646,note_on,94,0,4,,,,,,,,,4,,,59,0
9646,note_on,94,0,3,,,,,,,,,6,,,67,0
9646,note_on,94,0,2,,,,,,,,,1,,,76,0
9648,note_on,2,0,2,,,,,,,,,1,,,72,108
9648,note_on,2,0,3,,,,,,,,,6,,,55,92
9744,note_on,98,0,4,,,,,,,,,4,,,60,92
9744,note_on,128,0,5,,,,,,,,,7,,,55,92
9808,note_on,160,0,3,,,,,,,,,6,,,55,0
9808,note_on,160,0,2,,,,,,,,,1,,,72,0
9838,note_on,94,0,4,,,,,,,,,4,,,60,0
9838,note_on,94,0,5,,,,,,,,,7,,,55,0
9840,note_on,32,0,2,,,,,,,,,1,,,72,108
9840,note_on,2,0,4,,,,,,,,,4,,,64,92
9840,note_on,2,0,5,,,,,,,,,7,,,43,92
9886,note_on,46,0,4,,,,,,,,,4,,,64,0
9888,note_on,2,0,4,,,,,,,,,4,,,60,92
9934,note_on,94,0,2,,,,,,,,,1,,,72,0
9934,note_on,46,0,4,,,,,,,,,4,,,60,0
9936,note_on,2,0,2,,,,,,,,,1,,,74,108
9936,note_on,128,0,3,,,,,,,,,6,,,67,92
9936,note_on,2,0,4,,,,,,,,,4,,,59,92
9982,note_on,46,0,4,,,,,,,,,4,,,59,0
9984,note_on,2,0,4,,,,,,,,,4,,,57,92
10000,note_on,160,0,5,,,,,,,,,7,,,43,0
10030,note_on,94,0,3,,,,,,,,,6,,,67,0
10030,note_on,94,0,2,,,,,,,,,1,,,74,0
10030,note_on,46,0,4,,,,,,,,,4,,,57,0
10032,note_on,432,0,1,,,,,,,,,0,,,67,108
10032,note_on,2,0,3,,,,,,,,,6,,,55,92
10032,note_on,2,0,2,,,,,,,,,1,,,71,108
10128,note_on,98,0,4,,,,,,,,,4,,,59,92
10128,note_on,0,0,1,,,,,,,,,0,,,71,108
10128,note_on,128,0,5,,,,,,,,,7,,,55,92
10128,note_on,96,0,1,,,,,,,,,0,,,67,0
10192,note_on,160,0,2,,,,,,,,,1,,,71,0
10192,note_on,160,0,3,,,,,,,,,6,,,55,0
10222,note_on,94,0,1,,,,,,,,,0,,,71,0
10222,note_on,94,0,4,,,,,,,,,4,,,59,0
10222,note_on,94,0,5,,,,,,,,,7,,,55,0
10224,note_on,2,0,4,,,,,,,,,4,,,57,92
10224,note_on,2,0,1,,,,,,,,,0,,,69,108
10224,note_on,2,0,5,,,,,,,,,7,,,43,92
10224,note_on,0,0,4,,,,,,,,,4,,,60,92
10320,note_on,0,0,1,,,,,,,,,0,,,72,108
10320,note_on,96,0,1,,,,,,,,,0,,,69,0
10320,note_on,128,0,3,,,,,,,,,6,,,67,92
10384,note_on,160,0,5,,,,,,,,,7,,,43,0
10384,note_on,0,0,4,,,,,,,,,4,,,60,0
10384,note_on,160,0,4,,,,,,,,,4,,,57,0
10414,note_on,94,0,1,,,,,,,,,0,,,72,0
10414,note_on,94,0,3,,,,,,,,,6,,,67,0
10416,note_on,224,0,2,,,,,,,,,1,,,67,108
10416,note_on,2,0,3,,,,,,,,,6,,,55,92
10416,note_on,2,0,1,,,,,,,,,0,,,71,108
10510,note_on,94,0,2,,,,,,,,,1,,,67,0
10512,note_on,128,0,5,,,,,,,,,7,,,55,92
10512,note_on,0,0,1,,,,,,,,,0,,,74,108
10512,note_on,128,0,4,,,,,,,,,4,,,59,92
10512,note_on,2,0,2,,,,,,,,,1,,,71,108
10512,note_on,96,0,1,,,,,,,,,0,,,71,0
10512,note_on,0,0,4,,,,,,,,,4,,,62,92
10576,note_on,160,0,3,,,,,,,,,6,,,55,0
10606,note_on,94,0,1,,,,,,,,,0,,,74,0
10606,note_on,94,0,2,,,,,,,,,1,,,71,0
10606,note_on,94,0,5,,,,,,,,,7,,,55,0
10606,note_on,94,0,4,,,,,,,,,4,,,59,0
10606,note_on,0,0,4,,,,,,,,,4,,,62,0
10608,note_on,2,0,1,,,,,,,,,0,,,73,108
10608,note_on,2,0,2,,,,,,,,,1,,,69,108
10608,note_on,2,0,5,,,,,,,,,7,,,43,92
10608,note_on,2,0,4,,,,,,,,,4,,,61,92
10608,note_on,0,0,4,,,,,,,,,4,,,64,92
10702,note_on,94,0,2,,,,,,,,,1,,,69,0
10704,note_on,2,0,2,,,,,,,,,1,,,67,108
10704,note_on,128,0,3,,,,,,,,,6,,,67,92
10704,note_on,0,0,1,,,,,,,,,0,,,76,108
10704,note_on,96,0,1,,,,,,,,,0,,,73,0
10768,note_on,160,0,5,,,,,,,,,7,,,43,0
10768,note_on,160,0,4,,,,,,,,,4,,,61,0
10768,note_on,0,0,4,,,,,,,,,4,,,64,0
10798,note_on,94,0,3,,,,,,,,,6,,,67,0
10798,note_on,94,0,2,,,,,,,,,1,,,67,0
10798,note_on,94,0,1,,,,,,,,,0,,,76,0
10800,note_on,2,0,3,,,,,,,,,6,,,62,92
10800,note_on,2,0,2,,,,,,,,,1,,,66,108
10800,note_on,2,0,1,,,,,,,,,0,,,74,108
10896,note_on,128,0,5,,,,,,,,,7,,,62,92
10960,note_on,160,0,3,,,,,,,,,6,,,62,0
10990,note_on,94,0,5,,,,,,,,,7,,,62,0
10992,note_on,224,0,4,,,,,,,,,4,,,57,92
10992,note_on,0,0,4,,,,,,,,,4,,,66,92
10992,note_on,2,0,5,,,,,,,,,7,,,50,92
11056,note_on,256,0,1,,,,,,,,,0,,,74,0
11088,note_on,128,0,3,,,,,,,,,6,,,62,92
11088,note_on,32,0,1,,,,,,,,,0,,,74,92
11136,note_on,336,0,2,,,,,,,,,1,,,66,0
11152,note_on,160,0,4,,,,,,,,,4,,,57,0
11152,note_on,0,0,4,,,,,,,,,4,,,66,0
11152,note_on,160,0,5,,,,,,,,,7,,,50,0
11182,note_on,94,0,1,,,,,,,,,0,,,74,0
11182,note_on,94,0,3,,,,,,,,,6,,,62,0
11184,note_on,2,0,3,,,,,,,,,6,,,57,92
11184,note_on,2,0,1,,,,,,,,,0,,,73,92
11280,note_on,128,0,4,,,,,,,,,4,,,61,92
11280,note_on,0,0,4,,,,,,,,,4,,,64,92
11280,note_on,128,0,5,,,,,,,,,7,,,57,92
11280,note_on,0,0,1,,,,,,,,,0,,,71,92
11280,note_on,96,0,1,,,,,,,,,0,,,73,0
11344,note_on,160,0,3,,,,,,,,,6,,,57,0
11374,note_on,94,0,1,,,,,,,,,0,,,71,0
11374,note_on,94,0,5,,,,,,,,,7,,,57,0
11374,note_on,0,0,4,,,,,,,,,4,,,64,0
11374,note_on,94,0,4,,,,,,,,,4,,,61,0
11376,note_on,0,0,4,,,,,,,,,4,,,61,92
11376,note_on,2,0,4,,,,,,,,,4,,,55,92
11376,note_on,2,0,1,,,,,,,,,0,,,69,92
11376,note_on,2,0,5,,,,,,,,,7,,,45,92
11472,note_on,0,0,1,,,,,,,,,0,,,67,92
11472,note_on,128,0,3,,,,,,,,,6,,,69,92
11472,note_on,96,0,1,,,,,,,,,0,,,69,0
11536,note_on,160,0,5,,,,,,,,,7,,,45,0
11536,note_on,160,0,4,,,,,,,,,4,,,55,0
11536,note_on,0,0,4,,,,,,,,,4,,,61,0
11566,note_on,94,0,3,,,,,,,,,6,,,69,0
11566,note_on,94,0,1,,,,,,,,,0,,,67,0
11568,note_on,2,0,3,,,,,,,,,6,,,62,92
11568,note_on,2,0,1,,,,,,,,,0,,,66,92
11568,note_on,32,0,4,,,,,,,,,4,,,66,92
11614,note_on,46,0,4,,,,,,,,,4,,,66,0
11616,note_on,2,0,4,,,,,,,,,4,,,64,92
11662,note_on,46,0,4,,,,,,,,,4,,,64,0
11664,note_on,128,0,5,,,,,,,,,7,,,62,92
11664,note_on,2,0,4,,,,,,,,,4,,,66,92
11710,note_on,46,0,4,,,,,,,,,4,,,66,0
11712,note_on,2,0,4,,,,,,,,,4,,,67,92
11728,note_on,160,0,3,,,,,,,,,6,,,62,0
11758,note_on,46,0,4,,,,,,,,,4,,,67,0
11758,note_on,94,0,5,,,,,,,,,7,,,62,0
11760,note_on,0,0,4,,,,,,,,,4,,,69,92
11760,note_on,2,0,4,,,,,,,,,4,,,66,92
11760,note_on,2,0,5,,,,,,,,,7,,,50,92
11856,note_on,288,0,1,,,,,,,,,0,,,66,0
11856,note_on,0,0,1,,,,,,,,,0,,,78,92
11856,note_on,128,0,3,,,,,,,,,6,,,62,92
11856,note_on,720,0,2,,,,,,,,,1,,,74,92
11920,note_on,160,0,5,,,,,,,,,7,,,50,0
11920,note_on,0,0,4,,,,,,,,,4,,,69,0
11920,note_on,160,0,4,,,,,,,,,4,,,66,0
11950,note_on,94,0,2,,,,,,,,,1,,,74,0
11950,note_on,94,0,3,,,,,,,,,6,,,62,0
11952,note_on,2,0,3,,,,,,,,,6,,,57,92
11952,note_on,2,0,2,,,,,,,,,1,,,73,92
11952,note_on,0,0,1,,,,,,,,,0,,,76,92
11952,note_on,96,0,1,,,,,,,,,0,,,78,0
12048,note_on,128,0,4,,,,,,,,,4,,,62,92
12048,note_on,0,0,1,,,,,,,,,0,,,74,92
12048,note_on,128,0,5,,,,,,,,,7,,,57,92
12048,note_on,96,0,1,,,,,,,,,0,,,76,0
12048,note_on,0,0,2,,,,,,,,,1,,,71,92
12048,note_on,96,0,2,,,,,,,,,1,,,73,0
12048,note_on,0,0,4,,,,,,,,,4,,,71,92
12112,note_on,160,0,3,,,,,,,,,6,,,57,0
12142,note_on,94,0,2,,,,,,,,,1,,,71,0
12142,note_on,94,0,5,,,,,,,,,7,,,57,0
12142,note_on,94,0,4,,,,,,,,,4,,,62,0
12142,note_on,0,0,4,,,,,,,,,4,,,71,0
12144,note_on,2,0,4,,,,,,,,,4,,,64,92
12144,note_on,2,0,2,,,,,,,,,1,,,69,92
12144,note_on,96,0,1,,,,,,,,,0,,,74,0
12144,note_on,0,0,1,,,,,,,,,0,,,73,92
12144,note_on,2,0,5,,,,,,,,,7,,,45,92
12144,note_on,0,0,4,,,,,,,,,4,,,73,92
12240,note_on,128,0,3,,,,,,,,,6,,,69,92
12240,note_on,0,0,1,,,,,,,,,0,,,71,92
12240,note_on,0,0,2,,,,,,,,,1,,,67,92
12240,note_on,96,0,2,,,,,,,,,1,,,69,0
12240,note_on,96,0,1,,,,,,,,,0,,,73,0
12304,note_on,0,0,4,,,,,,,,,4,,,73,0
12304,note_on,160,0,5,,,,,,,,,7,,,45,0
12304,note_on,160,0,4,,,,,,,,,4,,,64,0
12334,note_on,94,0,2,,,,,,,,,1,,,67,0
12334,note_on,94,0,3,,,,,,,,,6,,,69,0
12336,note_on,2,0,2,,,,,,,,,1,,,66,92
12336,note_on,96,0,1,,,,,,,,,0,,,71,0
12336,note_on,2,0,3,,,,,,,,,6,,,57,92
12336,note_on,0,0,1,,,,,,,,,0,,,69,92
12432,note_on,96,0,2,,,,,,,,,1,,,66,0
12432,note_on,0,0,2,,,,,,,,,1,,,67,92
12432,note_on,128,0,5,,,,,,,,,7,,,57,92
12432,note_on,128,0,4,,,,,,,,,4,,,67,92
12432,note_on,0,0,4,,,,,,,,,4,,,71,92
12432,note_on,96,0,1,,,,,,,,,0,,,69,0
12432,note_on,0,0,1,,,,,,,,,0,,,71,92
12496,note_on,160,0,3,,,,,,,,,6,,,57,0
12526,note_on,94,0,4,,,,,,,,,4,,,67,0
12526,note_on,0,0,4,,,,,,,,,4,,,71,0
12526,note_on,94,0,5,,,,,,,,,7,,,57,0
12528,note_on,2,0,4,,,,,,,,,4,,,67,92
12528,note_on,0,0,1,,,,,,,,,0,,,71,92
12528,note_on,0,0,4,,,,,,,,,4,,,71,92
12528,note_on,0,0,2,,,,,,,,,1,,,67,92
12528,note_on,96,0,2,,,,,,,,,1,,,67,0
12528,note_on,96,0,1,,,,,,,,,0,,,71,0
12528,note_on,2,0,5,,,,,,,,,7,,,45,92
12622,note_on,0,0,4,,,,,,,,,4,,,71,0
12622,note_on,94,0,4,,,,,,,,,4,,,67,0
12624,note_on,0,0,1,,,,,,,,,0,,,73,92
12624,note_on,128,0,3,,,,,,,,,6,,,69,92
12624,note_on,96,0,1,,,,,,,,,0,,,71,0
12624,note_on,2,0,4,,,,,,,,,4,,,73,92
12624,note_on,96,0,2,,,,,,,,,1,,,67,0
12624,note_on,0,0,2,,,,,,,,,1,,,69,92
12688,note_on,160,0,5,,,,,,,,,7,,,45,0
12718,note_on,94,0,3,,,,,,,,,6,,,69,0
12718,note_on,94,0,4,,,,,,,,,4,,,73,0
12720,note_on,96,0,1,,,,,,,,,0,,,73,0
12720,note_on,0,0,2,,,,,,,,,1,,,69,92
12720,note_on,2,0,3,,,,,,,,,6,,,57,92
12720,note_on,96,0,2,,,,,,,,,1,,,69,0
12720,note_on,0,0,1,,,,,,,,,0,,,73,92
12816,note_on,0,0,1,,,,,,,,,0,,,74,92
12816,note_on,98,0,4,,,,,,,,,4,,,71,92
12816,note_on,0,0,4,,,,,,,,,4,,,74,92
12816,note_on,128,0,5,,,,,,,,,7,,,57,92
12816,note_on,96,0,2,,,,,,,,,1,,,69,0
12816,note_on,0,0,2,,,,,,,,,1,,,71,92
12816,note_on,96,0,1,,,,,,,,,0,,,73,0
12880,note_on,160,0,3,,,,,,,,,6,,,57,0
12910,note_on,94,0,5,,,,,,,,,7,,,57,0
12910,note_on,94,0,4,,,,,,,,,4,,,71,0
12910,note_on,0,0,4,,,,,,,,,4,,,74,0
12912,note_on,96,0,1,,,,,,,,,0,,,74,0
12912,note_on,0,0,1,,,,,,,,,0,,,74,92
12912,note_on,0,0,2,,,,,,,,,1,,,71,92
12912,note_on,96,0,2,,,,,,,,,1,,,71,0
12912,note_on,2,0,4,,,,,,,,,4,,,71,92
12912,note_on,2,0,5,,,,,,,,,7,,,45,92
12912,note_on,0,0,4,,,,,,,,,4,,,74,92
13006,note_on,94,0,4,,,,,,,,,4,,,71,0
13006,note_on,0,0,4,,,,,,,,,4,,,74,0
13008,note_on,128,0,3,,,,,,,,,6,,,69,92
13008,note_on,0,0,1,,,,,,,,,0,,,76,92
13008,note_on,96,0,1,,,,,,,,,0,,,74,0
13008,note_on,96,0,2,,,,,,,,,1,,,71,0
13008,note_on,0,0,2,,,,,,,,,1,,,73,92
13008,note_on,2,0,4,,,,,,,,,4,,,73,92
13072,note_on,160,0,5,,,,,,,,,7,,,45,0
13102,note_on,94,0,3,,,,,,,,,6,,,69,0
13102,note_on,94,0,4,,,,,,,,,4,,,73,0
13104,note_on,96,0,2,,,,,,,,,1,,,73,0
13104,note_on,0,0,1,,,,,,,,,0,,,76,92
13104,note_on,96,0,1,,,,,,,,,0,,,76,0
13104,note_on,2,0,3,,,,,,,,,6,,,57,92
13104,note_on,0,0,2,,,,,,,,,1,,,73,92
13200,note_on,98,0,4,,,,,,,,,4,,,64,92
13200,note_on,128,0,5,,,,,,,,,7,,,57,92
13200,note_on,0,0,2,,,,,,,,,1,,,71,92
13200,note_on,96,0,2,,,,,,,,,1,,,73,0
13200,note_on,96,0,1,,,,,,,,,0,,,76,0
13200,note_on,0,0,1,,,,,,,,,0,,,74,92
13200,note_on,0,0,4,,,,,,,,,4,,,73,92
13248,note_on,48,0,1,,,,,,,,,0,,,74,0
13248,note_on,0,0,1,,,,,,,,,0,,,73,92
13248,note_on,0,0,2,,,,,,,,,1,,,69,92
13248,note_on,48,0,2,,,,,,,,,1,,,71,0
13264,note_on,160,0,3,,,,,,,,,6,,,57,0
13294,note_on,94,0,5,,,,,,,,,7,,,57,0
13294,note_on,94,0,4,,,,,,,,,4,,,64,0
13294,note_on,0,0,4,,,,,,,,,4,,,73,0
13296,note_on,48,0,2,,,,,,,,,1,,,69,0
13296,note_on,48,0,1,,,,,,,,,0,,,73,0
13296,note_on,0,0,1,,,,,,,,,0,,,78,92
13296,note_on,0,0,2,,,,,,,,,1,,,74,92
13296,note_on,2,0,4,,,,,,,,,4,,,66,92
13296,note_on,0,0,4,,,,,,,,,4,,,74,92
13296,note_on,2,0,5,,,,,,,,,7,,,45,92
13392,note_on,96,0,1,,,,,,,,,0,,,78,0
13392,note_on,0,0,1,,,,,,,,,0,,,74,92
13392,note_on,128,0,3,,,,,,,,,6,,,69,92
13456,note_on,160,0,4,,,,,,,,,4,,,66,0
13456,note_on,0,0,4,,,,,,,,,4,,,74,0
13456,note_on,160,0,5,,,,,,,,,7,,,45,0
13486,note_on,94,0,3,,,,,,,,,6,,,69,0
13488,note_on,0,0,1,,,,,,,,,0,,,76,92
13488,note_on,96,0,1,,,,,,,,,0,,,74,0
13488,note_on,2,0,3,,,,,,,,,6,,,57,92
13488,note_on,192,0,2,,,,,,,,,1,,,74,0
13488,note_on,0,0,2,,,,,,,,,1,,,73,92
13584,note_on,128,0,5,,,,,,,,,7,,,57,92
13584,note_on,128,0,4,,,,,,,,,4,,,64,92
13584,note_on,0,0,4,,,,,,,,,4,,,73,92
13584,note_on,0,0,1,,,,,,,,,0,,,74,92
13584,note_on,96,0,2,,,,,,,,,1,,,73,0
13584,note_on,0,0,2,,,,,,,,,1,,,71,92
13584,note_on,96,0,1,,,,,,,,,0,,,76,0
13632,note_on,0,0,2,,,,,,,,,1,,,69,92
13632,note_on,48,0,1,,,,,,,,,0,,,74,0
13632,note_on,0,0,1,,,,,,,,,0,,,73,92
13632,note_on,48,0,2,,,,,,,,,1,,,71,0
13648,note_on,160,0,3,,,,,,,,,6,,,57,0
13678,note_on,94,0,5,,,,,,,,,7,,,57,0
13678,note_on,0,0,4,,,,,,,,,4,,,73,0
13678,note_on,94,0,4,,,,,,,,,4,,,64,0
13680,note_on,48,0,2,,,,,,,,,1,,,69,0
13680,note_on,0,0,1,,,,,,,,,0,,,78,92
13680,note_on,48,0,1,,,,,,,,,0,,,73,0
13680,note_on,2,0,5,,,,,,,,,7,,,45,92
13680,note_on,0,0,2,,,,,,,,,1,,,74,92
13680,note_on,0,0,4,,,,,,,,,4,,,74,92
13680,note_on,2,0,4,,,,,,,,,4,,,66,92
13776,note_on,96,0,1,,,,,,,,,0,,,78,0
13776,note_on,0,0,1,,,,,,,,,0,,,74,92
13776,note_on,128,0,3,,,,,,,,,6,,,69,92
13840,note_on,0,0,4,,,,,,,,,4,,,74,0
13840,note_on,160,0,4,,,,,,,,,4,,,66,0
13840,note_on,160,0,5,,,,,,,,,7,,,45,0
13870,note_on,94,0,3,,,,,,,,,6,,,69,0
13872,note_on,0,0,2,,,,,,,,,1,,,74,92
13872,note_on,192,0,2,,,,,,,,,1,,,74,0
13872,note_on,96,0,1,,,,,,,,,0,,,74,0
13872,note_on,0,0,1,,,,,,,,,0,,,78,92
13872,note_on,2,0,3,,,,,,,,,6,,,57,92
13920,note_on,48,0,1,,,,,,,,,0,,,78,0
13920,note_on,0,0,1,,,,,,,,,0,,,76,92
13920,note_on,0,0,2,,,,,,,,,1,,,73,92
13920,note_on,48,0,2,,,,,,,,,1,,,74,0
13968,note_on,0,0,2,,,,,,,,,1,,,74,92
13968,note_on,48,0,2,,,,,,,,,1,,,73,0
13968,note_on,128,0,5,,,,,,,,,7,,,57,92
13968,note_on,128,0,4,,,,,,,,,4,,,64,92
13968,note_on,0,0,4,,,,,,,,,4,,,73,92
13968,note_on,0,0,1,,,,,,,,,0,,,78,92
13968,note_on,48,0,1,,,,,,,,,0,,,76,0
14000,note_on,0,0,1,,,,,,,,,0,,,76,92
14000,note_on,32,0,1,,,,,,,,,0,,,78,0
14000,note_on,0,0,2,,,,,,,,,1,,,73,92
14000,note_on,32,0,2,,,,,,,,,1,,,74,0
14032,note_on,160,0,3,,,,,,,,,6,,,57,0
14032,note_on,0,0,2,,,,,,,,,1,,,74,92
14032,note_on,32,0,2,,,,,,,,,1,,,73,0
14032,note_on,0,0,1,,,,,,,,,0,,,78,92
14032,note_on,32,0,1,,,,,,,,,0,,,76,0
14062,note_on,94,0,5,,,,,,,,,7,,,57,0
14064,note_on,2,0,5,,,,,,,,,7,,,45,92
14064,note_on,0,0,2,,,,,,,,,1,,,73,92
14064,note_on,32,0,2,,,,,,,,,1,,,74,0
14064,note_on,0,0,1,,,,,,,,,0,,,76,92
14064,note_on,32,0,1,,,,,,,,,0,,,78,0
14128,note_on,160,0,4,,,,,,,,,4,,,64,0
14128,note_on,0,0,4,,,,,,,,,4,,,73,0
14158,note_on,94,0,2,,,,,,,,,1,,,73,0
14158,note_on,94,0,1,,,,,,,,,0,,,76,0
14158,note_on,94,0,5,,,,,,,,,7,,,45,0
14160,note_on,32,0,4,,,,,,,,,4,,,64,92
14160,note_on,128,0,3,,,,,,,,,6,,,69,92
14160,note_on,2,0,1,,,,,,,,,0,,,74,92
14160,note_on,2,0,2,,,,,,,,,1,,,74,92
14160,note_on,2,0,5,,,,,,,,,7,,,57,92
14160,note_on,0,0,4,,,,,,,,,4,,,73,92
14254,note_on,94,0,4,,,,,,,,,4,,,64,0
14254,note_on,0,0,4,,,,,,,,,4,,,73,0
14254,note_on,94,0,3,,,,,,,,,6,,,69,0
14254,note_on,94,0,2,,,,,,,,,1,,,74,0
14254,note_on,94,0,1,,,,,,,,,0,,,74,0
14254,note_on,94,0,5,,,,,,,,,7,,,57,0
14256,note_on,2,0,3,,,,,,,,,6,,,62,92
14256,note_on,2,0,2,,,,,,,,,1,,,74,92
14256,note_on,2,0,5,,,,,,,,,7,,,50,92
14256,note_on,2,0,1,,,,,,,,,0,,,74,92
14256,note_on,0,0,4,,,,,,,,,4,,,74,92
14256,note_on,2,0,4,,,,,,,,,4,,,66,92
14416,note_on,0,0,4,,,,,,,,,4,,,74,0
14416,note_on,160,0,4,,,,,,,,,4,,,66,0
14416,note_on,160,0,3,,,,,,,,,6,,,62,0
14592,note_on,176,0,4,,,,,,,,,4,,,74,108
14592,note_on,336,0,1,,,,,,,,,0,,,74,0
14592,note_on,336,0,2,,,,,,,,,1,,,74,0
14592,note_on,176,0,3,,,,,,,,,6,,,74,108
14592,note_on,336,0,5,,,,,,,,,7,,,50,0
14638,note_on,46,0,3,,,,,,,,,6,,,74,0
14638,note_on,46,0,4,,,,,,,,,4,,,74,0
14640,note_on,2,0,3,,,,,,,,,6,,,78,108
14640,note_on,2,0,4,,,,,,,,,4,,,69,108
14640,note_on,48,0,5,,,,,,,,,7,,,62,108
14800,note_on,160,0,4,,,,,,,,,4,,,69,0
14800,note_on,160,0,3,,,,,,,,,6,,,78,0
14800,note_on,160,0,5,,,,,,,,,7,,,62,0
14832,note_on,32,0,3,,,,,,,,,6,,,79,108
14832,note_on,32,0,4,,,,,,,,,4,,,71,108
14832,note_on,32,0,5,,,,,,,,,7,,,55,108
14992,note_on,160,0,3,,,,,,,,,6,,,79,0
14992,note_on,160,0,4,,,,,,,,,4,,,71,0
14992,note_on,160,0,5,,,,,,,,,7,,,55,0
15024,note_on,32,0,5,,,,,,,,,7,,,50,108
15024,note_on,0,0,4,,,,,,,,,4,,,74,108
15024,note_on,32,0,4,,,,,,,,,4,,,66,108
15024,note_on,32,0,3,,,,,,,,,6,,,81,108
15184,note_on,160,0,4,,,,,,,,,4,,,66,0
15184,note_on,160,0,5,,,,,,,,,7,,,50,0
15184,note_on,0,0,4,,,,,,,,,4,,,74,0
15184,note_on,160,0,3,,,,,,,,,6,,,81,0
15312,note_on,128,0,3,,,,,,,,,6,,,83,108
15312,note_on,128,0,4,,,,,,,,,4,,,83,108
15358,note_on,46,0,3,,,,,,,,,6,,,83,0
15358,note_on,46,0,4,,,,,,,,,4,,,83,0
15360,note_on,2,0,3,,,,,,,,,6,,,85,108
15360,note_on,2,0,4,,,,,,,,,4,,,85,108
15406,note_on,46,0,3,,,,,,,,,6,,,85,0
15406,note_on,46,0,4,,,,,,,,,4,,,85,0
15408,note_on,224,0,5,,,,,,,,,7,,,50,108
15408,note_on,2,0,4,,,,,,,,,4,,,78,108
15408,note_on,2,0,3,,,,,,,,,6,,,86,108
15502,note_on,94,0,3,,,,,,,,,6,,,86,0
15504,note_on,2,0,3,,,,,,,,,6,,,85,108
15550,note_on,46,0,3,,,,,,,,,6,,,85,0
15552,note_on,2,0,3,,,,,,,,,6,,,83,108
15568,note_on,160,0,4,,,,,,,,,4,,,78,0
15568,note_on,160,0,5,,,,,,,,,7,,,50,0
15598,note_on,46,0,3,,,,,,,,,6,,,83,0
15600,note_on,2,0,3,,,,,,,,,6,,,81,108
15600,note_on,32,0,5,,,,,,,,,7,,,49,108
15600,note_on,32,0,4,,,,,,,,,4,,,76,108
15694,note_on,94,0,3,,,,,,,,,6,,,81,0
15696,note_on,2,0,3,,,,,,,,,6,,,79,108
15760,note_on,160,0,5,,,,,,,,,7,,,49,0
15760,note_on,160,0,4,,,,,,,,,4,,,76,0
15790,note_on,94,0,3,,,,,,,,,6,,,79,0
15792,note_on,2,0,3,,,,,,,,,6,,,78,108
15792,note_on,32,0,5,,,,,,,,,7,,,50,108
15792,note_on,32,0,4,,,,,,,,,4,,,69,108
15886,note_on,94,0,5,,,,,,,,,7,,,50,0
15886,note_on,94,0,3,,,,,,,,,6,,,78,0
15886,note_on,94,0,4,,,,,,,,,4,,,69,0
15888,note_on,2,0,5,,,,,,,,,7,,,62,108
15888,note_on,2,0,3,,,,,,,,,6,,,76,108
15888,note_on,2,0,4,,,,,,,,,4,,,76,108
15934,note_on,46,0,3,,,,,,,,,6,,,76,0
15934,note_on,46,0,4,,,,,,,,,4,,,76,0
15936,note_on,2,0,4,,,,,,,,,4,,,74,108
15936,note_on,2,0,3,,,,,,,,,6,,,74,108
15982,note_on,46,0,3,,,,,,,,,6,,,74,0
15982,note_on,94,0,5,,,,,,,,,7,,,62,0
15982,note_on,46,0,4,,,,,,,,,4,,,74,0
15984,note_on,2,0,4,,,,,,,,,4,,,73,108
15984,note_on,2,0,5,,,,,,,,,7,,,61,108
15984,note_on,2,0,3,,,,,,,,,6,,,73,108
16078,note_on,94,0,5,,,,,,,,,7,,,61,0
16078,note_on,94,0,4,,,,,,,,,4,,,73,0
16078,note_on,94,0,3,,,,,,,,,6,,,73,0
16080,note_on,2,0,5,,,,,,,,,7,,,59,108
16080,note_on,2,0,4,,,,,,,,,4,,,71,108
16080,note_on,2,0,3,,,,,,,,,6,,,71,108
16174,note_on,94,0,5,,,,,,,,,7,,,59,0
16174,note_on,94,0,4,,,,,,,,,4,,,71,0
16174,note_on,94,0,3,,,,,,,,,6,,,71,0
16176,note_on,2,0,5,,,,,,,,,7,,,57,108
16176,note_on,2,0,3,,,,,,,,,6,,,69,108
16176,note_on,2,0,4,,,,,,,,,4,,,69,108
16270,note_on,94,0,5,,,,,,,,,7,,,57,0
16270,note_on,94,0,4,,,,,,,,,4,,,69,0
16270,note_on,94,0,3,,,,,,,,,6,,,69,0
16272,note_on,2,0,4,,,,,,,,,4,,,67,108
16272,note_on,2,0,5,,,,,,,,,7,,,55,108
16272,note_on,2,0,3,,,,,,,,,6,,,67,108
16318,note_on,46,0,5,,,,,,,,,7,,,55,0
16318,note_on,46,0,3,,,,,,,,,6,,,67,0
16318,note_on,46,0,4,,,,,,,,,4,,,67,0
16320,note_on,2,0,5,,,,,,,,,7,,,54,108
16320,note_on,2,0,4,,,,,,,,,4,,,66,108
16320,note_on,2,0,3,,,,,,,,,6,,,66,108
16366,note_on,46,0,3,,,,,,,,,6,,,66,0
16366,note_on,46,0,5,,,,,,,,,7,,,54,0
16366,note_on,46,0,4,,,,,,,,,4,,,66,0
16368,note_on,2,0,3,,,,,,,,,6,,,64,108
16368,note_on,2,0,4,,,,,,,,,4,,,64,108
16368,note_on,2,0,5,,,,,,,,,7,,,52,108
16462,note_on,94,0,3,,,,,,,,,6,,,64,0
16462,note_on,94,0,4,,,,,,,,,4,,,64,0
16462,note_on,94,0,5,,,,,,,,,7,,,52,0
16464,note_on,2,0,4,,,,,,,,,4,,,62,108
16464,note_on,2,0,5,,,,,,,,,7,,,50,108
16464,note_on,2,0,3,,,,,,,,,6,,,62,108
16558,note_on,94,0,4,,,,,,,,,4,,,62,0
16558,note_on,94,0,5,,,,,,,,,7,,,50,0
16558,note_on,94,0,3,,,,,,,,,6,,,62,0
16560,note_on,2,0,5,,,,,,,,,7,,,57,108
16560,note_on,2,0,3,,,,,,,,,6,,,69,108
16654,note_on,94,0,5,,,,,,,,,7,,,57,0
16656,note_on,0,0,4,,,,,,,,,4,,,64,108
16656,note_on,2,0,5,,,,,,,,,7,,,57,108
16656,note_on,98,0,4,,,,,,,,,4,,,61,108
16720,note_on,160,0,3,,,,,,,,,6,,,69,0
16750,note_on,94,0,4,,,,,,,,,4,,,61,0
16750,note_on,94,0,5,,,,,,,,,7,,,57,0
16750,note_on,0,0,4,,,,,,,,,4,,,64,0
16752,note_on,2,0,5,,,,,,,,,7,,,50,108
16752,note_on,2,0,4,,,,,,,,,4,,,62,108
16752,note_on,0,0,4,,,,,,,,,4,,,66,108
16848,note_on,128,0,3,,,,,,,,,6,,,74,92
16848,note_on,2256,0,2,,,,,,,,,1,,,66,92
16848,note_on,2256,0,1,,,,,,,,,0,,,69,92
16912,note_on,160,0,4,,,,,,,,,4,,,62,0
16912,note_on,0,0,4,,,,,,,,,4,,,66,0
16912,note_on,160,0,5,,,,,,,,,7,,,50,0
16942,note_on,94,0,3,,,,,,,,,6,,,74,0
16942,note_on,94,0,2,,,,,,,,,1,,,66,0
16942,note_on,94,0,1,,,,,,,,,0,,,69,0
16944,note_on,2,0,3,,,,,,,,,6,,,62,92
16944,note_on,2,0,2,,,,,,,,,1,,,67,92
16944,note_on,2,0,1,,,,,,,,,0,,,71,92
17040,note_on,128,0,5,,,,,,,,,7,,,62,92
17040,note_on,128,0,4,,,,,,,,,4,,,67,92
17040,note_on,0,0,4,,,,,,,,,4,,,71,92
17086,note_on,46,0,4,,,,,,,,,4,,,67,0
17086,note_on,0,0,4,,,,,,,,,4,,,71,0
17088,note_on,2,0,4,,,,,,,,,4,,,69,92
17104,note_on,160,0,3,,,,,,,,,6,,,62,0
17104,note_on,160,0,2,,,,,,,,,1,,,67,0
17104,note_on,160,0,1,,,,,,,,,0,,,71,0
17134,note_on,94,0,5,,,,,,,,,7,,,62,0
17134,note_on,46,0,4,,,,,,,,,4,,,69,0
17136,note_on,32,0,1,,,,,,,,,0,,,71,92
17136,note_on,2,0,4,,,,,,,,,4,,,67,92
17136,note_on,0,0,4,,,,,,,,,4,,,71,92
17136,note_on,32,0,2,,,,,,,,,1,,,67,92
17136,note_on,2,0,5,,,,,,,,,7,,,50,92
17232,note_on,128,0,3,,,,,,,,,6,,,74,92
17296,note_on,160,0,4,,,,,,,,,4,,,67,0
17296,note_on,0,0,4,,,,,,,,,4,,,71,0
17296,note_on,160,0,5,,,,,,,,,7,,,50,0
17296,note_on,160,0,2,,,,,,,,,1,,,67,0
17296,note_on,160,0,1,,,,,,,,,0,,,71,0
17326,note_on,94,0,3,,,,,,,,,6,,,74,0
17328,note_on,32,0,2,,,,,,,,,1,,,66,92
17328,note_on,2,0,3,,,,,,,,,6,,,62,92
17328,note_on,32,0,1,,,,,,,,,0,,,69,92
17424,note_on,128,0,4,,,,,,,,,4,,,66,92
17424,note_on,128,0,5,,,,,,,,,7,,,62,92
17470,note_on,46,0,4,,,,,,,,,4,,,66,0
17472,note_on,2,0,4,,,,,,,,,4,,,67,92
17488,note_on,160,0,2,,,,,,,,,1,,,66,0
17488,note_on,160,0,3,,,,,,,,,6,,,62,0
17488,note_on,160,0,1,,,,,,,,,0,,,69,0
17518,note_on,46,0,4,,,,,,,,,4,,,67,0
17518,note_on,94,0,5,,,,,,,,,7,,,62,0
17520,note_on,2,0,4,,,,,,,,,4,,,66,92
17520,note_on,0,0,4,,,,,,,,,4,,,69,92
17520,note_on,32,0,2,,,,,,,,,1,,,66,92
17520,note_on,2,0,5,,,,,,,,,7,,,50,92
17520,note_on,32,0,1,,,,,,,,,0,,,74,92
17614,note_on,94,0,1,,,,,,,,,0,,,74,0
17614,note_on,94,0,2,,,,,,,,,1,,,66,0
17616,note_on,128,0,3,,,,,,,,,6,,,74,92
17616,note_on,2,0,1,,,,,,,,,0,,,69,92
17616,note_on,2,0,2,,,,,,,,,1,,,66,92
17680,note_on,160,0,5,,,,,,,,,7,,,50,0
17680,note_on,160,0,4,,,,,,,,,4,,,66,0
17680,note_on,0,0,4,,,,,,,,,4,,,69,0
17710,note_on,94,0,1,,,,,,,,,0,,,69,0
17710,note_on,94,0,3,,,,,,,,,6,,,74,0
17710,note_on,94,0,2,,,,,,,,,1,,,66,0
17712,note_on,32,0,4,,,,,,,,,4,,,71,92
17712,note_on,2,0,1,,,,,,,,,0,,,71,92
17712,note_on,2,0,2,,,,,,,,,1,,,67,92
17712,note_on,2,0,3,,,,,,,,,6,,,62,92
17758,note_on,46,0,4,,,,,,,,,4,,,71,0
17760,note_on,2,0,4,,,,,,,,,4,,,69,92
17806,note_on,46,0,4,,,,,,,,,4,,,69,0
17808,note_on,2,0,4,,,,,,,,,4,,,67,92
17808,note_on,128,0,5,,,,,,,,,7,,,62,92
17854,note_on,46,0,4,,,,,,,,,4,,,67,0
17856,note_on,2,0,4,,,,,,,,,4,,,69,92
17872,note_on,160,0,1,,,,,,,,,0,,,71,0
17872,note_on,160,0,3,,,,,,,,,6,,,62,0
17872,note_on,160,0,2,,,,,,,,,1,,,67,0
17902,note_on,94,0,5,,,,,,,,,7,,,62,0
17902,note_on,46,0,4,,,,,,,,,4,,,69,0
17904,note_on,32,0,2,,,,,,,,,1,,,67,92
17904,note_on,32,0,1,,,,,,,,,0,,,71,92
17904,note_on,2,0,4,,,,,,,,,4,,,67,92
17904,note_on,0,0,4,,,,,,,,,4,,,71,92
17904,note_on,2,0,5,,,,,,,,,7,,,50,92
17998,note_on,94,0,1,,,,,,,,,0,,,71,0
17998,note_on,94,0,2,,,,,,,,,1,,,67,0
18000,note_on,2,0,2,,,,,,,,,1,,,67,92
18000,note_on,2,0,1,,,,,,,,,0,,,71,92
18000,note_on,128,0,3,,,,,,,,,6,,,74,92
18064,note_on,160,0,5,,,,,,,,,7,,,50,0
18064,note_on,0,0,4,,,,,,,,,4,,,71,0
18064,note_on,160,0,4,,,,,,,,,4,,,67,0
18094,note_on,94,0,2,,,,,,,,,1,,,67,0
18094,note_on,94,0,3,,,,,,,,,6,,,74,0
18094,note_on,94,0,1,,,,,,,,,0,,,71,0
18096,note_on,32,0,4,,,,,,,,,4,,,66,92
18096,note_on,2,0,2,,,,,,,,,1,,,66,92
18096,note_on,2,0,3,,,,,,,,,6,,,62,92
18096,note_on,2,0,1,,,,,,,,,0,,,69,92
18142,note_on,46,0,4,,,,,,,,,4,,,66,0
18144,note_on,2,0,4,,,,,,,,,4,,,64,92
18190,note_on,46,0,4,,,,,,,,,4,,,64,0
18192,note_on,2,0,4,,,,,,,,,4,,,66,92
18192,note_on,128,0,5,,,,,,,,,7,,,62,92
18238,note_on,46,0,4,,,,,,,,,4,,,66,0
18240,note_on,2,0,4,,,,,,,,,4,,,67,92
18256,note_on,160,0,1,,,,,,,,,0,,,69,0
18256,note_on,160,0,2,,,,,,,,,1,,,66,0
18256,note_on,160,0,3,,,,,,,,,6,,,62,0
18286,note_on,94,0,5,,,,,,,,,7,,,62,0
18286,note_on,46,0,4,,,,,,,,,4,,,67,0
18288,note_on,2,0,5,,,,,,,,,7,,,50,92
18288,note_on,2,0,4,,,,,,,,,4,,,66,92
18288,note_on,32,0,1,,,,,,,,,0,,,74,92
18288,note_on,0,0,4,,,,,,,,,4,,,69,92
18384,note_on,128,0,3,,,,,,,,,6,,,62,92
18448,note_on,0,0,4,,,,,,,,,4,,,69,0
18448,note_on,160,0,5,,,,,,,,,7,,,50,0
18448,note_on,160,0,4,,,,,,,,,4,,,66,0
18478,note_on,94,0,3,,,,,,,,,6,,,62,0
18480,note_on,224,0,2,,,,,,,,,1,,,76,92
18480,note_on,32,0,4,,,,,,,,,4,,,56,92
18574,note_on,94,0,2,,,,,,,,,1,,,76,0
18574,note_on,286,0,1,,,,,,,,,0,,,74,0
18576,note_on,98,0,3,,,,,,,,,6,,,74,92
18576,note_on,0,0,3,,,,,,,,,6,,,77,92
18576,note_on,2,0,2,,,,,,,,,1,,,74,92
18576,note_on,2,0,1,,,,,,,,,0,,,77,92
18576,note_on,128,0,5,,,,,,,,,7,,,56,92
18640,note_on,160,0,4,,,,,,,,,4,,,56,0
18670,note_on,94,0,2,,,,,,,,,1,,,74,0
18670,note_on,94,0,1,,,,,,,,,0,,,77,0
18670,note_on,94,0,5,,,,,,,,,7,,,56,0
18670,note_on,94,0,3,,,,,,,,,6,,,74,0
18670,note_on,0,0,3,,,,,,,,,6,,,77,0
18672,note_on,2,0,5,,,,,,,,,7,,,44,92
18672,note_on,2,0,3,,,,,,,,,6,,,72,92
18672,note_on,0,0,3,,,,,,,,,6,,,76,92
18672,note_on,2,0,2,,,,,,,,,1,,,72,92
18672,note_on,2,0,1,,,,,,,,,0,,,76,92
18766,note_on,94,0,3,,,,,,,,,6,,,72,0
18766,note_on,94,0,1,,,,,,,,,0,,,76,0
18766,note_on,0,0,3,,,,,,,,,6,,,76,0
18766,note_on,94,0,2,,,,,,,,,1,,,72,0
18768,note_on,2,0,2,,,,,,,,,1,,,71,92
18768,note_on,128,0,4,,,,,,,,,4,,,64,92
18768,note_on,2,0,1,,,,,,,,,0,,,74,92
18768,note_on,0,0,3,,,,,,,,,6,,,74,92
18768,note_on,2,0,3,,,,,,,,,6,,,71,92
18832,note_on,160,0,5,,,,,,,,,7,,,44,0
18862,note_on,94,0,4,,,,,,,,,4,,,64,0
18862,note_on,94,0,2,,,,,,,,,1,,,71,0
18862,note_on,0,0,3,,,,,,,,,6,,,74,0
18862,note_on,94,0,1,,,,,,,,,0,,,74,0
18862,note_on,94,0,3,,,,,,,,,6,,,71,0
18864,note_on,32,0,5,,,,,,,,,7,,,45,92
18864,note_on,2,0,3,,,,,,,,,6,,,72,92
18864,note_on,2,0,1,,,,,,,,,0,,,72,92
18864,note_on,2,0,2,,,,,,,,,1,,,69,92
18864,note_on,2,0,4,,,,,,,,,4,,,57,92
18864,note_on,0,0,4,,,,,,,,,4,,,69,92
18958,note_on,94,0,3,,,,,,,,,6,,,72,0
18958,note_on,94,0,5,,,,,,,,,7,,,45,0
18960,note_on,2,0,5,,,,,,,,,7,,,47,92
18960,note_on,2,0,3,,,,,,,,,6,,,74,92
19024,note_on,160,0,1,,,,,,,,,0,,,72,0
19024,note_on,160,0,4,,,,,,,,,4,,,57,0
19054,note_on,94,0,3,,,,,,,,,6,,,74,0
19054,note_on,94,0,5,,,,,,,,,7,,,47,0
19056,note_on,2,0,3,,,,,,,,,6,,,76,92
19056,note_on,2,0,5,,,,,,,,,7,,,48,92
19056,note_on,32,0,1,,,,,,,,,0,,,76,92
19150,note_on,94,0,3,,,,,,,,,6,,,76,0
19150,note_on,94,0,5,,,,,,,,,7,,,48,0
19152,note_on,2,0,3,,,,,,,,,6,,,74,92
19152,note_on,2,0,5,,,,,,,,,7,,,47,92
19200,note_on,336,0,2,,,,,,,,,1,,,69,0
19216,note_on,160,0,1,,,,,,,,,0,,,76,0
19216,note_on,192,0,4,,,,,,,,,4,,,69,0
19246,note_on,94,0,3,,,,,,,,,6,,,74,0
19246,note_on,94,0,5,,,,,,,,,7,,,47,0
19248,note_on,2,0,5,,,,,,,,,7,,,45,92
19248,note_on,32,0,4,,,,,,,,,4,,,64,92
19248,note_on,2,0,3,,,,,,,,,6,,,72,92
19248,note_on,32,0,1,,,,,,,,,0,,,72,92
19342,note_on,94,0,5,,,,,,,,,7,,,45,0
19342,note_on,94,0,4,,,,,,,,,4,,,64,0
19342,note_on,94,0,3,,,,,,,,,6,,,72,0
19344,note_on,2,0,5,,,,,,,,,7,,,47,92
19344,note_on,96,0,1,,,,,,,,,0,,,72,0
19344,note_on,0,0,1,,,,,,,,,0,,,71,92
19344,note_on,2,0,3,,,,,,,,,6,,,74,92
19344,note_on,2,0,4,,,,,,,,,4,,,68,92
19438,note_on,94,0,3,,,,,,,,,6,,,74,0
19438,note_on,94,0,4,,,,,,,,,4,,,68,0
19438,note_on,94,0,1,,,,,,,,,0,,,71,0
19438,note_on,94,0,5,,,,,,,,,7,,,47,0
19440,note_on,2,0,4,,,,,,,,,4,,,69,92
19440,note_on,2,0,5,,,,,,,,,7,,,48,92
19440,note_on,2,0,1,,,,,,,,,0,,,69,92
19440,note_on,2,0,3,,,,,,,,,6,,,72,92
19534,note_on,94,0,5,,,,,,,,,7,,,48,0
19534,note_on,94,0,4,,,,,,,,,4,,,69,0
19534,note_on,94,0,3,,,,,,,,,6,,,72,0
19536,note_on,2,0,3,,,,,,,,,6,,,71,92
19536,note_on,96,0,1,,,,,,,,,0,,,69,0
19536,note_on,0,0,1,,,,,,,,,0,,,68,92
19536,note_on,2,0,5,,,,,,,,,7,,,50,92
19536,note_on,2,0,4,,,,,,,,,4,,,68,92
19582,note_on,46,0,5,,,,,,,,,7,,,50,0
19584,note_on,2,0,5,,,,,,,,,7,,,52,92
19630,note_on,94,0,3,,,,,,,,,6,,,71,0
19630,note_on,94,0,4,,,,,,,,,4,,,68,0
19630,note_on,94,0,1,,,,,,,,,0,,,68,0
19630,note_on,46,0,5,,,,,,,,,7,,,52,0
19632,note_on,0,0,4,,,,,,,,,4,,,69,92
19632,note_on,2,0,1,,,,,,,,,0,,,69,92
19632,note_on,2,0,5,,,,,,,,,7,,,53,92
19632,note_on,2,0,4,,,,,,,,,4,,,62,92
19728,note_on,98,0,3,,,,,,,,,6,,,74,92
19792,note_on,160,0,5,,,,,,,,,7,,,53,0
19792,note_on,160,0,4,,,,,,,,,4,,,62,0
19792,note_on,0,0,4,,,,,,,,,4,,,69,0
19822,note_on,94,0,3,,,,,,,,,6,,,74,0
19824,note_on,624,0,2,,,,,,,,,1,,,77,92
19824,note_on,2,0,3,,,,,,,,,6,,,65,92
19920,note_on,128,0,4,,,,,,,,,4,,,66,92
19920,note_on,128,0,5,,,,,,,,,7,,,62,92
19966,note_on,46,0,4,,,,,,,,,4,,,66,0
19968,note_on,2,0,4,,,,,,,,,4,,,67,92
19984,note_on,160,0,3,,,,,,,,,6,,,65,0
19984,note_on,160,0,2,,,,,,,,,1,,,77,0
20014,note_on,46,0,4,,,,,,,,,4,,,67,0
20014,note_on,94,0,5,,,,,,,,,7,,,62,0
20016,note_on,2,0,5,,,,,,,,,7,,,53,92
20016,note_on,2,0,4,,,,,,,,,4,,,69,92
20016,note_on,32,0,2,,,,,,,,,1,,,74,92
20110,note_on,94,0,4,,,,,,,,,4,,,69,0
20112,note_on,0,0,2,,,,,,,,,1,,,72,92
20112,note_on,96,0,2,,,,,,,,,1,,,74,0
20112,note_on,2,0,4,,,,,,,,,4,,,74,92
20112,note_on,128,0,3,,,,,,,,,6,,,74,92
20158,note_on,46,0,4,,,,,,,,,4,,,74,0
20160,note_on,2,0,4,,,,,,,,,4,,,72,92
20176,note_on,160,0,5,,,,,,,,,7,,,53,0
20206,note_on,94,0,3,,,,,,,,,6,,,74,0
20206,note_on,46,0,4,,,,,,,,,4,,,72,0
20206,note_on,94,0,2,,,,,,,,,1,,,72,0
20208,note_on,2,0,2,,,,,,,,,1,,,71,92
20208,note_on,2,0,3,,,,,,,,,6,,,65,92
20208,note_on,2,0,4,,,,,,,,,4,,,71,92
20302,note_on,94,0,4,,,,,,,,,4,,,71,0
20304,note_on,0,0,2,,,,,,,,,1,,,69,92
20304,note_on,96,0,2,,,,,,,,,1,,,71,0
20304,note_on,2,0,4,,,,,,,,,4,,,69,92
20304,note_on,128,0,5,,,,,,,,,7,,,62,92
20368,note_on,160,0,3,,,,,,,,,6,,,65,0
20398,note_on,94,0,4,,,,,,,,,4,,,69,0
20398,note_on,94,0,2,,,,,,,,,1,,,69,0
20398,note_on,94,0,5,,,,,,,,,7,,,62,0
20400,note_on,2,0,2,,,,,,,,,1,,,71,92
20400,note_on,2,0,4,,,,,,,,,4,,,68,92
20400,note_on,0,0,1,,,,,,,,,0,,,68,92
20400,note_on,768,0,1,,,,,,,,,0,,,69,0
20400,note_on,2,0,5,,,,,,,,,7,,,52,92
20496,note_on,0,0,2,,,,,,,,,1,,,72,92
20496,note_on,96,0,2,,,,,,,,,1,,,71,0
20496,note_on,128,0,3,,,,,,,,,6,,,76,92
20496,note_on,0,0,1,,,,,,,,,0,,,69,92
20496,note_on,96,0,1,,,,,,,,,0,,,68,0
20560,note_on,160,0,5,,,,,,,,,7,,,52,0
20560,note_on,160,0,4,,,,,,,,,4,,,68,0
20590,note_on,94,0,3,,,,,,,,,6,,,76,0
20592,note_on,96,0,2,,,,,,,,,1,,,72,0
20592,note_on,0,0,2,,,,,,,,,1,,,72,92
20592,note_on,96,0,1,,,,,,,,,0,,,69,0
20592,note_on,0,0,1,,,,,,,,,0,,,69,92
20592,note_on,2,0,3,,,,,,,,,6,,,64,92
20688,note_on,0,0,4,,,,,,,,,4,,,74,92
20688,note_on,0,0,2,,,,,,,,,1,,,74,92
20688,note_on,96,0,1,,,,,,,,,0,,,69,0
20688,note_on,0,0,1,,,,,,,,,0,,,71,92
20688,note_on,96,0,2,,,,,,,,,1,,,72,0
20688,note_on,128,0,4,,,,,,,,,4,,,71,92
20688,note_on,128,0,5,,,,,,,,,7,,,64,92
20752,note_on,160,0,3,,,,,,,,,6,,,64,0
20782,note_on,0,0,4,,,,,,,,,4,,,74,0
20782,note_on,94,0,5,,,,,,,,,7,,,64,0
20782,note_on,94,0,4,,,,,,,,,4,,,71,0
20784,note_on,2,0,5,,,,,,,,,7,,,52,92
20784,note_on,96,0,2,,,,,,,,,1,,,74,0
20784,note_on,0,0,2,,,,,,,,,1,,,74,92
20784,note_on,96,0,1,,,,,,,,,0,,,71,0
20784,note_on,2,0,4,,,,,,,,,4,,,71,92
20784,note_on,0,0,4,,,,,,,,,4,,,74,92
20784,note_on,0,0,1,,,,,,,,,0,,,71,92
20878,note_on,0,0,4,,,,,,,,,4,,,74,0
20878,note_on,94,0,4,,,,,,,,,4,,,71,0
20880,note_on,128,0,3,,,,,,,,,6,,,76,92
20880,note_on,96,0,1,,,,,,,,,0,,,71,0
20880,note_on,0,0,2,,,,,,,,,1,,,72,92
20880,note_on,96,0,2,,,,,,,,,1,,,74,0
20880,note_on,0,0,1,,,,,,,,,0,,,69,92
20880,note_on,2,0,4,,,,,,,,,4,,,69,92
20880,note_on,0,0,4,,,,,,,,,4,,,72,92
20944,note_on,160,0,5,,,,,,,,,7,,,52,0
20974,note_on,94,0,3,,,,,,,,,6,,,76,0
20974,note_on,94,0,4,,,,,,,,,4,,,69,0
20974,note_on,0,0,4,,,,,,,,,4,,,72,0
20976,note_on,0,0,2,,,,,,,,,1,,,72,92
20976,note_on,2,0,3,,,,,,,,,6,,,64,92
20976,note_on,96,0,1,,,,,,,,,0,,,69,0
20976,note_on,0,0,1,,,,,,,,,0,,,69,92
20976,note_on,96,0,2,,,,,,,,,1,,,72,0
21072,note_on,98,0,4,,,,,,,,,4,,,68,92
21072,note_on,128,0,5,,,,,,,,,7,,,64,92
21072,note_on,96,0,2,,,,,,,,,1,,,72,0
21072,note_on,0,0,2,,,,,,,,,1,,,71,92
21072,note_on,0,0,1,,,,,,,,,0,,,68,92
21072,note_on,96,0,1,,,,,,,,,0,,,69,0
21136,note_on,160,0,3,,,,,,,,,6,,,64,0
21166,note_on,94,0,4,,,,,,,,,4,,,68,0
21166,note_on,94,0,5,,,,,,,,,7,,,64,0
21168,note_on,96,0,2,,,,,,,,,1,,,71,0
21168,note_on,0,0,2,,,,,,,,,1,,,71,92
21168,note_on,96,0,1,,,,,,,,,0,,,68,0
21168,note_on,0,0,1,,,,,,,,,0,,,68,92
21168,note_on,2,0,5,,,,,,,,,7,,,52,92
21168,note_on,2,0,4,,,,,,,,,4,,,68,92
21168,note_on,32,0,3,,,,,,,,,6,,,71,92
21262,note_on,94,0,3,,,,,,,,,6,,,71,0
21262,note_on,94,0,5,,,,,,,,,7,,,52,0
21264,note_on,2,0,3,,,,,,,,,6,,,68,92
21264,note_on,2,0,5,,,,,,,,,7,,,64,92
21328,note_on,160,0,4,,,,,,,,,4,,,68,0
21358,note_on,94,0,3,,,,,,,,,6,,,68,0
21358,note_on,94,0,5,,,,,,,,,7,,,64,0
21360,note_on,32,0,4,,,,,,,,,4,,,69,92
21360,note_on,2,0,5,,,,,,,,,7,,,60,92
21360,note_on,0,0,2,,,,,,,,,1,,,76,92
21360,note_on,2,0,3,,,,,,,,,6,,,76,92
21360,note_on,192,0,2,,,,,,,,,1,,,71,0
21360,note_on,192,0,1,,,,,,,,,0,,,68,0
21406,note_on,46,0,3,,,,,,,,,6,,,76,0
21408,note_on,2,0,3,,,,,,,,,6,,,74,92
21454,note_on,46,0,3,,,,,,,,,6,,,74,0
21454,note_on,94,0,5,,,,,,,,,7,,,60,0
21456,note_on,2,0,3,,,,,,,,,6,,,72,92
21456,note_on,2,0,5,,,,,,,,,7,,,57,92
21502,note_on,46,0,3,,,,,,,,,6,,,72,0
21504,note_on,2,0,3,,,,,,,,,6,,,76,92
21520,note_on,160,0,4,,,,,,,,,4,,,69,0
21550,note_on,94,0,5,,,,,,,,,7,,,57,0
21550,note_on,46,0,3,,,,,,,,,6,,,76,0
21552,note_on,192,0,1,,,,,,,,,0,,,77,92
21552,note_on,2,0,3,,,,,,,,,6,,,76,92
21552,note_on,2,0,5,,,,,,,,,7,,,45,92
21552,note_on,0,0,3,,,,,,,,,6,,,77,92
21648,note_on,0,0,2,,,,,,,,,1,,,74,92
21648,note_on,288,0,2,,,,,,,,,1,,,76,0
21648,note_on,128,0,4,,,,,,,,,4,,,69,92
21696,note_on,0,0,2,,,,,,,,,1,,,72,92
21696,note_on,48,0,2,,,,,,,,,1,,,74,0
21712,note_on,160,0,5,,,,,,,,,7,,,45,0
21712,note_on,0,0,3,,,,,,,,,6,,,77,0
21712,note_on,160,0,3,,,,,,,,,6,,,76,0
21742,note_on,94,0,4,,,,,,,,,4,,,69,0
21744,note_on,2,0,4,,,,,,,,,4,,,57,92
21744,note_on,48,0,2,,,,,,,,,1,,,72,0
21744,note_on,0,0,2,,,,,,,,,1,,,74,92
21840,note_on,128,0,3,,,,,,,,,6,,,65,92
21840,note_on,0,0,3,,,,,,,,,6,,,69,92
21840,note_on,0,0,3,,,,,,,,,6,,,74,92
21840,note_on,128,0,5,,,,,,,,,7,,,57,92
21840,note_on,288,0,1,,,,,,,,,0,,,77,0
21840,note_on,0,0,1,,,,,,,,,0,,,76,92
21888,note_on,48,0,1,,,,,,,,,0,,,76,0
21888,note_on,0,0,1,,,,,,,,,0,,,74,92
21904,note_on,160,0,4,,,,,,,,,4,,,57,0
21934,note_on,94,0,5,,,,,,,,,7,,,57,0
21934,note_on,0,0,3,,,,,,,,,6,,,74,0
21934,note_on,94,0,3,,,,,,,,,6,,,65,0
21934,note_on,0,0,3,,,,,,,,,6,,,69,0
21936,note_on,2,0,3,,,,,,,,,6,,,74,92
21936,note_on,0,0,3,,,,,,,,,6,,,76,92
21936,note_on,0,0,1,,,,,,,,,0,,,76,92
21936,note_on,48,0,1,,,,,,,,,0,,,74,0
21936,note_on,2,0,5,,,,,,,,,7,,,45,92
22032,note_on,128,0,4,,,,,,,,,4,,,69,92
22032,note_on,288,0,2,,,,,,,,,1,,,74,0
22032,note_on,0,0,2,,,,,,,,,1,,,72,92
22080,note_on,48,0,2,,,,,,,,,1,,,72,0
22080,note_on,0,0,2,,,,,,,,,1,,,71,92
22096,note_on,160,0,3,,,,,,,,,6,,,74,0
22096,note_on,0,0,3,,,,,,,,,6,,,76,0
22096,note_on,160,0,5,,,,,,,,,7,,,45,0
22126,note_on,94,0,4,,,,,,,,,4,,,69,0
22128,note_on,0,0,2,,,,,,,,,1,,,72,92
22128,note_on,2,0,4,,,,,,,,,4,,,57,92
22128,note_on,48,0,2,,,,,,,,,1,,,71,0
22224,note_on,128,0,3,,,,,,,,,6,,,64,92
22224,note_on,0,0,3,,,,,,,,,6,,,69,92
22224,note_on,0,0,3,,,,,,,,,6,,,72,92
22224,note_on,288,0,1,,,,,,,,,0,,,76,0
22224,note_on,0,0,1,,,,,,,,,0,,,74,92
22224,note_on,128,0,5,,,,,,,,,7,,,57,92
22272,note_on,0,0,1,,,,,,,,,0,,,72,92
22272,note_on,48,0,1,,,,,,,,,0,,,74,0
22288,note_on,160,0,4,,,,,,,,,4,,,57,0
22318,note_on,94,0,5,,,,,,,,,7,,,57,0
22318,note_on,0,0,3,,,,,,,,,6,,,72,0
22318,note_on,0,0,3,,,,,,,,,6,,,69,0
22318,note_on,94,0,3,,,,,,,,,6,,,64,0
22320,note_on,48,0,1,,,,,,,,,0,,,72,0
22320,note_on,0,0,1,,,,,,,,,0,,,74,92
22320,note_on,2,0,5,,,,,,,,,7,,,45,92
22320,note_on,2,0,3,,,,,,,,,6,,,72,92
22320,note_on,0,0,3,,,,,,,,,6,,,74,92
22416,note_on,288,0,2,,,,,,,,,1,,,72,0
22416,note_on,128,0,4,,,,,,,,,4,,,69,92
22416,note_on,0,0,2,,,,,,,,,1,,,71,92
22464,note_on,48,0,2,,,,,,,,,1,,,71,0
22464,note_on,0,0,2,,,,,,,,,1,,,69,92
22480,note_on,0,0,3,,,,,,,,,6,,,74,0
22480,note_on,160,0,5,,,,,,,,,7,,,45,0
22480,note_on,160,0,3,,,,,,,,,6,,,72,0
22510,note_on,94,0,4,,,,,,,,,4,,,69,0
22512,note_on,48,0,2,,,,,,,,,1,,,69,0
22512,note_on,2,0,4,,,,,,,,,4,,,57,92
22512,note_on,0,0,2,,,,,,,,,1,,,71,92
22608,note_on,128,0,3,,,,,,,,,6,,,62,92
22608,note_on,128,0,5,,,,,,,,,7,,,57,92
22608,note_on,0,0,3,,,,,,,,,6,,,71,92
22608,note_on,0,0,1,,,,,,,,,0,,,72,92
22608,note_on,288,0,1,,,,,,,,,0,,,74,0
22656,note_on,0,0,1,,,,,,,,,0,,,71,92
22656,note_on,48,0,1,,,,,,,,,0,,,72,0
22672,note_on,160,0,4,,,,,,,,,4,,,57,0
22702,note_on,94,0,5,,,,,,,,,7,,,57,0
22702,note_on,0,0,3,,,,,,,,,6,,,71,0
22702,note_on,94,0,3,,,,,,,,,6,,,62,0
22704,note_on,0,0,1,,,,,,,,,0,,,73,92
22704,note_on,48,0,1,,,,,,,,,0,,,71,0
22704,note_on,2,0,5,,,,,,,,,7,,,45,92
22704,note_on,2,0,3,,,,,,,,,6,,,71,92
22704,note_on,0,0,3,,,,,,,,,6,,,73,92
22800,note_on,128,0,4,,,,,,,,,4,,,69,92
22864,note_on,0,0,3,,,,,,,,,6,,,73,0
22864,note_on,160,0,5,,,,,,,,,7,,,45,0
22864,note_on,160,0,3,,,,,,,,,6,,,71,0
22894,note_on,94,0,4,,,,,,,,,4,,,69,0
22896,note_on,2,0,4,,,,,,,,,4,,,57,92
22896,note_on,0,0,1,,,,,,,,,0,,,75,92
22896,note_on,192,0,1,,,,,,,,,0,,,73,0
22896,note_on,0,0,2,,,,,,,,,1,,,71,92
22896,note_on,384,0,2,,,,,,,,,1,,,71,0
22992,note_on,128,0,5,,,,,,,,,7,,,57,92
22992,note_on,0,0,3,,,,,,,,,6,,,71,92
22992,note_on,128,0,3,,,,,,,,,6,,,63,92
23056,note_on,160,0,2,,,,,,,,,1,,,71,0
23056,note_on,160,0,4,,,,,,,,,4,,,57,0
23086,note_on,0,0,3,,,,,,,,,6,,,71,0
23086,note_on,94,0,5,,,,,,,,,7,,,57,0
23086,note_on,94,0,3,,,,,,,,,6,,,63,0
23088,note_on,32,0,2,,,,,,,,,1,,,71,92
23088,note_on,0,0,1,,,,,,,,,0,,,76,92
23088,note_on,2,0,5,,,,,,,,,7,,,55,92
23088,note_on,32,0,4,,,,,,,,,4,,,64,92
23088,note_on,2,0,3,,,,,,,,,6,,,71,92
23088,note_on,192,0,1,,,,,,,,,0,,,75,0
23182,note_on,94,0,1,,,,,,,,,0,,,76,0
23182,note_on,94,0,3,,,,,,,,,6,,,71,0
23182,note_on,94,0,5,,,,,,,,,7,,,55,0
23184,note_on,2,0,1,,,,,,,,,0,,,71,92
23184,note_on,2,0,5,,,,,,,,,7,,,54,92
23184,note_on,2,0,3,,,,,,,,,6,,,69,92
23248,note_on,160,0,2,,,,,,,,,1,,,71,0
23278,note_on,94,0,1,,,,,,,,,0,,,71,0
23278,note_on,94,0,3,,,,,,,,,6,,,69,0
23278,note_on,94,0,5,,,,,,,,,7,,,54,0
23280,note_on,2,0,5,,,,,,,,,7,,,55,92
23280,note_on,2,0,3,,,,,,,,,6,,,71,92
23344,note_on,256,0,4,,,,,,,,,4,,,64,0
23374,note_on,94,0,5,,,,,,,,,7,,,55,0
23374,note_on,94,0,3,,,,,,,,,6,,,71,0
23376,note_on,2,0,3,,,,,,,,,6,,,67,92
23376,note_on,128,0,2,,,,,,,,,1,,,67,108
23376,note_on,2,0,5,,,,,,,,,7,,,52,92
23376,note_on,98,0,1,,,,,,,,,0,,,71,108
23376,note_on,32,0,4,,,,,,,,,4,,,59,92
23470,note_on,94,0,5,,,,,,,,,7,,,52,0
23470,note_on,94,0,1,,,,,,,,,0,,,71,0
23470,note_on,94,0,2,,,,,,,,,1,,,67,0
23470,note_on,94,0,4,,,,,,,,,4,,,59,0
23470,note_on,94,0,3,,,,,,,,,6,,,67,0
23472,note_on,2,0,3,,,,,,,,,6,,,64,92
23472,note_on,2,0,4,,,,,,,,,4,,,61,92
23472,note_on,2,0,1,,,,,,,,,0,,,73,108
23472,note_on,2,0,2,,,,,,,,,1,,,67,108
23472,note_on,2,0,5,,,,,,,,,7,,,57,92
23568,note_on,0,0,2,,,,,,,,,1,,,66,108
23568,note_on,96,0,2,,,,,,,,,1,,,67,0
23568,note_on,96,0,1,,,,,,,,,0,,,73,0
23568,note_on,0,0,1,,,,,,,,,0,,,75,108
23632,note_on,160,0,3,,,,,,,,,6,,,64,0
23632,note_on,160,0,4,,,,,,,,,4,,,61,0
23662,note_on,94,0,1,,,,,,,,,0,,,75,0
23662,note_on,94,0,2,,,,,,,,,1,,,66,0
23664,note_on,32,0,4,,,,,,,,,4,,,69,92
23664,note_on,2,0,2,,,,,,,,,1,,,69,108
23664,note_on,32,0,3,,,,,,,,,6,,,73,92
23664,note_on,2,0,1,,,,,,,,,0,,,76,108
23758,note_on,94,0,4,,,,,,,,,4,,,69,0
23760,note_on,96,0,1,,,,,,,,,0,,,76,0
23760,note_on,96,0,2,,,,,,,,,1,,,69,0
23760,note_on,2,0,4,,,,,,,,,4,,,67,92
23760,note_on,0,0,1,,,,,,,,,0,,,78,108
23760,note_on,0,0,2,,,,,,,,,1,,,67,108
23808,note_on,336,0,5,,,,,,,,,7,,,57,0
23824,note_on,160,0,3,,,,,,,,,6,,,73,0
23854,note_on,94,0,4,,,,,,,,,4,,,67,0
23854,note_on,94,0,2,,,,,,,,,1,,,67,0
23854,note_on,94,0,1,,,,,,,,,0,,,78,0
23856,note_on,48,0,5,,,,,,,,,7,,,59,92
23856,note_on,2,0,1,,,,,,,,,0,,,75,108
23856,note_on,2,0,2,,,,,,,,,1,,,66,108
23856,note_on,0,0,4,,,,,,,,,4,,,75,92
23856,note_on,2,0,4,,,,,,,,,4,,,66,92
23952,note_on,96,0,2,,,,,,,,,1,,,66,0
23952,note_on,0,0,2,,,,,,,,,1,,,67,108
23952,note_on,0,0,1,,,,,,,,,0,,,76,108
23952,note_on,96,0,1,,,,,,,,,0,,,75,0
23976,note_on,24,0,2,,,,,,,,,1,,,67,0
23976,note_on,0,0,2,,,,,,,,,1,,,66,108
23976,note_on,0,0,1,,,,,,,,,0,,,75,108
23976,note_on,24,0,1,,,,,,,,,0,,,76,0
24000,note_on,24,0,1,,,,,,,,,0,,,75,0
24000,note_on,0,0,1,,,,,,,,,0,,,76,108
24000,note_on,24,0,2,,,,,,,,,1,,,66,0
24000,note_on,0,0,2,,,,,,,,,1,,,67,108
24016,note_on,160,0,5,,,,,,,,,7,,,59,0
24024,note_on,24,0,2,,,,,,,,,1,,,67,0
24024,note_on,24,0,1,,,,,,,,,0,,,76,0
24024,note_on,0,0,2,,,,,,,,,1,,,66,108
24024,note_on,0,0,1,,,,,,,,,0,,,75,108
24048,note_on,24,0,1,,,,,,,,,0,,,75,0
24048,note_on,32,0,5,,,,,,,,,7,,,47,92
24048,note_on,0,0,1,,,,,,,,,0,,,76,108
24048,note_on,24,0,2,,,,,,,,,1,,,66,0
24048,note_on,0,0,2,,,,,,,,,1,,,67,108
24072,note_on,0,0,1,,,,,,,,,0,,,75,108
24072,note_on,0,0,2,,,,,,,,,1,,,66,108
24072,note_on,24,0,2,,,,,,,,,1,,,67,0
24072,note_on,24,0,1,,,,,,,,,0,,,76,0
24096,note_on,24,0,2,,,,,,,,,1,,,66,0
24096,note_on,24,0,1,,,,,,,,,0,,,75,0
24096,note_on,0,0,1,,,,,,,,,0,,,76,108
24096,note_on,0,0,2,,,,,,,,,1,,,67,108
24120,note_on,0,0,2,,,,,,,,,1,,,66,108
24120,note_on,24,0,1,,,,,,,,,0,,,76,0
24120,note_on,0,0,1,,,,,,,,,0,,,75,108
24120,note_on,24,0,2,,,,,,,,,1,,,67,0
24142,note_on,22,0,2,,,,,,,,,1,,,66,0
24142,note_on,22,0,1,,,,,,,,,0,,,75,0
24144,note_on,2,0,1,,,,,,,,,0,,,76,108
24144,note_on,2,0,2,,,,,,,,,1,,,64,108
24192,note_on,0,0,4,,,,,,,,,4,,,75,0
24192,note_on,336,0,4,,,,,,,,,4,,,66,0
24192,note_on,368,0,3,,,,,,,,,6,,,71,108
24208,note_on,160,0,5,,,,,,,,,7,,,47,0
24238,note_on,46,0,3,,,,,,,,,6,,,71,0
24238,note_on,94,0,2,,,,,,,,,1,,,64,0
24238,note_on,94,0,1,,,,,,,,,0,,,76,0
24240,note_on,2,0,2,,,,,,,,,1,,,64,108
24240,note_on,32,0,5,,,,,,,,,7,,,40,108
24240,note_on,2,0,1,,,,,,,,,0,,,76,108
24240,note_on,48,0,4,,,,,,,,,4,,,67,108
24240,note_on,2,0,3,,,,,,,,,6,,,76,108
24400,note_on,160,0,5,,,,,,,,,7,,,40,0
24400,note_on,160,0,3,,,,,,,,,6,,,76,0
24400,note_on,160,0,4,,,,,,,,,4,,,67,0
24432,note_on,32,0,5,,,,,,,,,7,,,47,108
24432,note_on,32,0,4,,,,,,,,,4,,,75,108
24432,note_on,32,0,3,,,,,,,,,6,,,78,108
24576,note_on,336,0,2,,,,,,,,,1,,,64,0
24576,note_on,336,0,1,,,,,,,,,0,,,76,0
24592,note_on,160,0,5,,,,,,,,,7,,,47,0
24592,note_on,160,0,3,,,,,,,,,6,,,78,0
24592,note_on,160,0,4,,,,,,,,,4,,,75,0
24624,note_on,32,0,3,,,,,,,,,6,,,79,108
24624,note_on,32,0,5,,,,,,,,,7,,,52,108
24624,note_on,32,0,4,,,,,,,,,4,,,71,108
24718,note_on,94,0,3,,,,,,,,,6,,,79,0
24720,note_on,2,0,3,,,,,,,,,6,,,81,108
24766,note_on,46,0,3,,,,,,,,,6,,,81,0
24768,note_on,2,0,3,,,,,,,,,6,,,83,108
24784,note_on,160,0,5,,,,,,,,,7,,,52,0
24784,note_on,160,0,4,,,,,,,,,4,,,71,0
24814,note_on,46,0,3,,,,,,,,,6,,,83,0
24816,note_on,2,0,3,,,,,,,,,6,,,79,108
24910,note_on,94,0,3,,,,,,,,,6,,,79,0
24912,note_on,128,0,4,,,,,,,,,4,,,75,108
24912,note_on,128,0,5,,,,,,,,,7,,,59,108
24912,note_on,2,0,3,,,,,,,,,6,,,78,108
25006,note_on,94,0,4,,,,,,,,,4,,,75,0
25006,note_on,94,0,5,,,,,,,,,7,,,59,0
25006,note_on,94,0,3,,,,,,,,,6,,,78,0
25008,note_on,2,0,4,,,,,,,,,4,,,76,108
25008,note_on,2,0,5,,,,,,,,,7,,,64,108
25008,note_on,2,0,3,,,,,,,,,6,,,76,108
25102,note_on,94,0,4,,,,,,,,,4,,,76,0
25102,note_on,94,0,5,,,,,,,,,7,,,64,0
25102,note_on,94,0,3,,,,,,,,,6,,,76,0
25104,note_on,2,0,3,,,,,,,,,6,,,74,108
25104,note_on,2,0,4,,,,,,,,,4,,,74,108
25104,note_on,2,0,5,,,,,,,,,7,,,62,108
25150,note_on,46,0,5,,,,,,,,,7,,,62,0
25150,note_on,46,0,4,,,,,,,,,4,,,74,0
25150,note_on,46,0,3,,,,,,,,,6,,,74,0
25152,note_on,2,0,5,,,,,,,,,7,,,60,108
25152,note_on,2,0,4,,,,,,,,,4,,,72,108
25152,note_on,2,0,3,,,,,,,,,6,,,72,108
25198,note_on,46,0,3,,,,,,,,,6,,,72,0
25198,note_on,46,0,5,,,,,,,,,7,,,60,0
25198,note_on,46,0,4,,,,,,,,,4,,,72,0
25200,note_on,2,0,4,,,,,,,,,4,,,71,108
25200,note_on,2,0,3,,,,,,,,,6,,,71,108
25200,note_on,2,0,5,,,,,,,,,7,,,59,108
25294,note_on,94,0,3,,,,,,,,,6,,,71,0
25294,note_on,94,0,4,,,,,,,,,4,,,71,0
25294,note_on,94,0,5,,,,,,,,,7,,,59,0
25296,note_on,2,0,4,,,,,,,,,4,,,69,108
25296,note_on,2,0,3,,,,,,,,,6,,,69,108
25296,note_on,2,0,5,,,,,,,,,7,,,57,108
25390,note_on,94,0,4,,,,,,,,,4,,,69,0
25390,note_on,94,0,5,,,,,,,,,7,,,57,0
25390,note_on,94,0,3,,,,,,,,,6,,,69,0
25392,note_on,2,0,4,,,,,,,,,4,,,67,108
25392,note_on,2,0,3,,,,,,,,,6,,,67,108
25392,note_on,2,0,5,,,,,,,,,7,,,55,108
25486,note_on,94,0,3,,,,,,,,,6,,,67,0
25486,note_on,94,0,4,,,,,,,,,4,,,67,0
25486,note_on,94,0,5,,,,,,,,,7,,,55,0
25488,note_on,2,0,3,,,,,,,,,6,,,66,108
25488,note_on,2,0,4,,,,,,,,,4,,,66,108
25488,note_on,2,0,5,,,,,,,,,7,,,54,108
25534,note_on,46,0,3,,,,,,,,,6,,,66,0
25534,note_on,46,0,5,,,,,,,,,7,,,54,0
25534,note_on,46,0,4,,,,,,,,,4,,,66,0
25536,note_on,2,0,5,,,,,,,,,7,,,52,108
25536,note_on,2,0,3,,,,,,,,,6,,,64,108
25536,note_on,2,0,4,,,,,,,,,4,,,64,108
25582,note_on,46,0,3,,,,,,,,,6,,,64,0
25582,note_on,46,0,5,,,,,,,,,7,,,52,0
25582,note_on,46,0,4,,,,,,,,,4,,,64,0
25584,note_on,2,0,3,,,,,,,,,6,,,67,92
25584,note_on,2,0,5,,,,,,,,,7,,,55,92
25584,note_on,2,0,4,,,,,,,,,4,,,67,92
25678,note_on,94,0,4,,,,,,,,,4,,,67,0
25678,note_on,94,0,3,,,,,,,,,6,,,67,0
25678,note_on,94,0,5,,,,,,,,,7,,,55,0
25680,note_on,2,0,5,,,,,,,,,7,,,57,92
25680,note_on,2,0,3,,,,,,,,,6,,,69,92
25680,note_on,2,0,4,,,,,,,,,4,,,69,92
25774,note_on,94,0,4,,,,,,,,,4,,,69,0
25774,note_on,94,0,5,,,,,,,,,7,,,57,0
25774,note_on,94,0,3,,,,,,,,,6,,,69,0
25776,note_on,2,0,3,,,,,,,,,6,,,71,75
25776,note_on,2,0,5,,,,,,,,,7,,,59,75
25776,note_on,2,0,4,,,,,,,,,4,,,63,75
25870,note_on,94,0,5,,,,,,,,,7,,,59,0
25870,note_on,94,0,4,,,,,,,,,4,,,63,0
25872,note_on,2,0,5,,,,,,,,,7,,,52,75
25872,note_on,2,0,4,,,,,,,,,4,,,68,75
25936,note_on,160,0,3,,,,,,,,,6,,,71,0
25966,note_on,94,0,5,,,,,,,,,7,,,52,0
25966,note_on,94,0,4,,,,,,,,,4,,,68,0
25968,note_on,1392,0,1,,,,,,,,,0,,,71,92
25968,note_on,2,0,4,,,,,,,,,4,,,71,75
25968,note_on,2,0,5,,,,,,,,,7,,,56,75
26062,note_on,94,0,5,,,,,,,,,7,,,56,0
26062,note_on,94,0,4,,,,,,,,,4,,,71,0
26062,note_on,94,0,1,,,,,,,,,0,,,71,0
26064,note_on,128,0,3,,,,,,,,,6,,,76,75
26064,note_on,2,0,5,,,,,,,,,7,,,52,75
26064,note_on,2,0,1,,,,,,,,,0,,,76,92
26064,note_on,2,0,4,,,,,,,,,4,,,68,75
26158,note_on,94,0,1,,,,,,,,,0,,,76,0
26158,note_on,94,0,3,,,,,,,,,6,,,76,0
26158,note_on,94,0,4,,,,,,,,,4,,,68,0
26158,note_on,94,0,5,,,,,,,,,7,,,52,0
26160,note_on,2,0,1,,,,,,,,,0,,,73,92
26160,note_on,2,0,5,,,,,,,,,7,,,57,75
26160,note_on,2,0,4,,,,,,,,,4,,,64,75
26160,note_on,2,0,3,,,,,,,,,6,,,67,75
26254,note_on,94,0,5,,,,,,,,,7,,,57,0
26256,note_on,2,0,5,,,,,,,,,7,,,45,75
26256,note_on,96,0,1,,,,,,,,,0,,,73,0
26256,note_on,0,0,1,,,,,,,,,0,,,74,92
26280,note_on,24,0,1,,,,,,,,,0,,,74,0
26280,note_on,0,0,1,,,,,,,,,0,,,73,92
26304,note_on,24,0,1,,,,,,,,,0,,,73,0
26304,note_on,0,0,1,,,,,,,,,0,,,74,92
26328,note_on,0,0,1,,,,,,,,,0,,,73,92
26328,note_on,24,0,1,,,,,,,,,0,,,74,0
26350,note_on,94,0,5,,,,,,,,,7,,,45,0
26352,note_on,24,0,1,,,,,,,,,0,,,73,0
26352,note_on,2,0,5,,,,,,,,,7,,,49,75
26352,note_on,0,0,1,,,,,,,,,0,,,74,92
26376,note_on,24,0,1,,,,,,,,,0,,,74,0
26376,note_on,0,0,1,,,,,,,,,0,,,73,92
26398,note_on,238,0,3,,,,,,,,,6,,,67,0
26400,note_on,0,0,1,,,,,,,,,0,,,74,92
26400,note_on,24,0,1,,,,,,,,,0,,,73,0
26400,note_on,2,0,3,,,,,,,,,6,,,66,75
26424,note_on,24,0,1,,,,,,,,,0,,,74,0
26424,note_on,0,0,1,,,,,,,,,0,,,73,92
26446,note_on,22,0,1,,,,,,,,,0,,,73,0
26446,note_on,46,0,3,,,,,,,,,6,,,66,0
26446,note_on,94,0,5,,,,,,,,,7,,,49,0
26446,note_on,286,0,4,,,,,,,,,4,,,64,0
26448,note_on,2,0,4,,,,,,,,,4,,,61,75
26448,note_on,2,0,1,,,,,,,,,0,,,73,92
26448,note_on,2,0,5,,,,,,,,,7,,,45,75
26448,note_on,2,0,3,,,,,,,,,6,,,67,75
26494,note_on,46,0,3,,,,,,,,,6,,,67,0
26496,note_on,2,0,3,,,,,,,,,6,,,69,75
26542,note_on,46,0,3,,,,,,,,,6,,,69,0
26542,note_on,94,0,1,,,,,,,,,0,,,73,0
26542,note_on,94,0,4,,,,,,,,,4,,,61,0
26542,note_on,94,0,5,,,,,,,,,7,,,45,0
26544,note_on,2,0,3,,,,,,,,,6,,,66,75
26544,note_on,2,0,4,,,,,,,,,4,,,57,75
26544,note_on,2,0,5,,,,,,,,,7,,,50,75
26544,note_on,2,0,1,,,,,,,,,0,,,74,92
26638,note_on,94,0,3,,,,,,,,,6,,,66,0
26640,note_on,2,0,3,,,,,,,,,6,,,62,75
26704,note_on,160,0,5,,,,,,,,,7,,,50,0
26704,note_on,160,0,4,,,,,,,,,4,,,57,0
26704,note_on,160,0,1,,,,,,,,,0,,,74,0
26734,note_on,94,0,3,,,,,,,,,6,,,62,0
26736,note_on,2,0,3,,,,,,,,,6,,,66,75
26736,note_on,32,0,1,,,,,,,,,0,,,69,92
26830,note_on,94,0,1,,,,,,,,,0,,,69,0
26830,note_on,94,0,3,,,,,,,,,6,,,66,0
26832,note_on,128,0,5,,,,,,,,,7,,,50,75
26832,note_on,2,0,1,,,,,,,,,0,,,74,92
26832,note_on,2,0,3,,,,,,,,,6,,,74,75
26832,note_on,128,0,4,,,,,,,,,4,,,66,75
26926,note_on,94,0,1,,,,,,,,,0,,,74,0
26926,note_on,94,0,5,,,,,,,,,7,,,50,0
26926,note_on,94,0,3,,,,,,,,,6,,,74,0
26926,note_on,94,0,4,,,,,,,,,4,,,66,0
26928,note_on,2,0,3,,,,,,,,,6,,,65,75
26928,note_on,2,0,5,,,,,,,,,7,,,55,75
26928,note_on,2,0,4,,,,,,,,,4,,,62,75
26928,note_on,2,0,1,,,,,,,,,0,,,71,92
27022,note_on,94,0,5,,,,,,,,,7,,,55,0
27024,note_on,2,0,5,,,,,,,,,7,,,43,75
27024,note_on,0,0,1,,,,,,,,,0,,,72,92
27024,note_on,96,0,1,,,,,,,,,0,,,71,0
27072,note_on,0,0,1,,,,,,,,,0,,,71,92
27072,note_on,48,0,1,,,,,,,,,0,,,72,0
27118,note_on,94,0,5,,,,,,,,,7,,,43,0
27120,note_on,0,0,1,,,,,,,,,0,,,72,92
27120,note_on,48,0,1,,,,,,,,,0,,,71,0
27120,note_on,2,0,5,,,,,,,,,7,,,47,75
27166,note_on,238,0,3,,,,,,,,,6,,,65,0
27168,note_on,48,0,1,,,,,,,,,0,,,72,0
27168,note_on,0,0,1,,,,,,,,,0,,,71,92
27168,note_on,2,0,3,,,,,,,,,6,,,64,75
27214,note_on,46,0,3,,,,,,,,,6,,,64,0
27214,note_on,46,0,1,,,,,,,,,0,,,71,0
27214,note_on,286,0,4,,,,,,,,,4,,,62,0
27214,note_on,94,0,5,,,,,,,,,7,,,47,0
27216,note_on,2,0,4,,,,,,,,,4,,,59,75
27216,note_on,2,0,3,,,,,,,,,6,,,65,75
27216,note_on,2,0,5,,,,,,,,,7,,,43,75
27216,note_on,2,0,1,,,,,,,,,0,,,72,92
27262,note_on,46,0,3,,,,,,,,,6,,,65,0
27264,note_on,2,0,3,,,,,,,,,6,,,67,75
27310,note_on,94,0,1,,,,,,,,,0,,,72,0
27310,note_on,46,0,3,,,,,,,,,6,,,67,0
27310,note_on,94,0,4,,,,,,,,,4,,,59,0
27310,note_on,94,0,5,,,,,,,,,7,,,43,0
27312,note_on,2,0,3,,,,,,,,,6,,,64,75
27312,note_on,2,0,4,,,,,,,,,4,,,55,75
27312,note_on,2,0,5,,,,,,,,,7,,,48,75
27312,note_on,2,0,1,,,,,,,,,0,,,72,92
27312,note_on,2736,0,2,,,,,,,,,1,,,76,92
27406,note_on,94,0,3,,,,,,,,,6,,,64,0
27408,note_on,2,0,3,,,,,,,,,6,,,60,75
27472,note_on,160,0,2,,,,,,,,,1,,,76,0
27472,note_on,160,0,1,,,,,,,,,0,,,72,0
27472,note_on,160,0,4,,,,,,,,,4,,,55,0
27502,note_on,94,0,3,,,,,,,,,6,,,60,0
27504,note_on,32,0,2,,,,,,,,,1,,,72,92
27504,note_on,2,0,3,,,,,,,,,6,,,64,75
27568,note_on,256,0,5,,,,,,,,,7,,,48,0
27598,note_on,94,0,2,,,,,,,,,1,,,72,0
27598,note_on,94,0,3,,,,,,,,,6,,,64,0
27600,note_on,32,0,5,,,,,,,,,7,,,48,75
27600,note_on,128,0,4,,,,,,,,,4,,,64,75
27600,note_on,2,0,3,,,,,,,,,6,,,72,75
27600,note_on,0,0,4,,,,,,,,,4,,,70,75
27600,note_on,2,0,2,,,,,,,,,1,,,70,92
27694,note_on,94,0,4,,,,,,,,,4,,,64,0
27694,note_on,94,0,3,,,,,,,,,6,,,72,0
27694,note_on,94,0,5,,,,,,,,,7,,,48,0
27694,note_on,0,0,4,,,,,,,,,4,,,70,0
27694,note_on,94,0,2,,,,,,,,,1,,,70,0
27696,note_on,2,0,5,,,,,,,,,7,,,53,75
27696,note_on,2,0,2,,,,,,,,,1,,,69,92
27696,note_on,2,0,3,,,,,,,,,6,,,72,75
27696,note_on,0,0,4,,,,,,,,,4,,,69,75
27696,note_on,2,0,4,,,,,,,,,4,,,65,75
27790,note_on,94,0,3,,,,,,,,,6,,,72,0
27790,note_on,94,0,4,,,,,,,,,4,,,65,0
27790,note_on,0,0,4,,,,,,,,,4,,,69,0
27792,note_on,2,0,4,,,,,,,,,4,,,65,75
27792,note_on,2,0,3,,,,,,,,,6,,,66,75
27792,note_on,96,0,2,,,,,,,,,1,,,69,0
27792,note_on,0,0,2,,,,,,,,,1,,,77,92
27856,note_on,160,0,5,,,,,,,,,7,,,53,0
27886,note_on,94,0,4,,,,,,,,,4,,,65,0
27886,note_on,94,0,3,,,,,,,,,6,,,66,0
27888,note_on,32,0,5,,,,,,,,,7,,,54,75
27888,note_on,0,0,2,,,,,,,,,1,,,74,92
27888,note_on,96,0,2,,,,,,,,,1,,,77,0
27888,note_on,2,0,4,,,,,,,,,4,,,62,75
27888,note_on,2,0,3,,,,,,,,,6,,,69,75
27982,note_on,94,0,4,,,,,,,,,4,,,62,0
27982,note_on,94,0,3,,,,,,,,,6,,,69,0
27984,note_on,2,0,4,,,,,,,,,4,,,72,75
27984,note_on,2,0,3,,,,,,,,,6,,,74,75
27984,note_on,0,0,2,,,,,,,,,1,,,72,92
27984,note_on,96,0,2,,,,,,,,,1,,,74,0
28048,note_on,160,0,5,,,,,,,,,7,,,54,0
28078,note_on,94,0,3,,,,,,,,,6,,,74,0
28078,note_on,94,0,4,,,,,,,,,4,,,72,0
28080,note_on,32,0,5,,,,,,,,,7,,,55,75
28080,note_on,96,0,2,,,,,,,,,1,,,72,0
28080,note_on,2,0,3,,,,,,,,,6,,,74,75
28080,note_on,0,0,2,,,,,,,,,1,,,71,92
28080,note_on,2,0,4,,,,,,,,,4,,,71,75
28144,note_on,0,0,2,,,,,,,,,1,,,69,92
28144,note_on,64,0,2,,,,,,,,,1,,,71,0
28174,note_on,94,0,3,,,,,,,,,6,,,74,0
28174,note_on,94,0,4,,,,,,,,,4,,,71,0
28176,note_on,2,0,3,,,,,,,,,6,,,71,75
28176,note_on,2,0,4,,,,,,,,,4,,,62,75
28208,note_on,0,0,2,,,,,,,,,1,,,67,92
28208,note_on,64,0,2,,,,,,,,,1,,,69,0
28240,note_on,160,0,5,,,,,,,,,7,,,55,0
28270,note_on,94,0,4,,,,,,,,,4,,,62,0
28270,note_on,94,0,3,,,,,,,,,6,,,71,0
28272,note_on,64,0,2,,,,,,,,,1,,,67,0
28272,note_on,0,0,2,,,,,,,,,1,,,76,92
28272,note_on,2,0,3,,,,,,,,,6,,,67,75
28272,note_on,2,0,4,,,,,,,,,4,,,64,75
28272,note_on,32,0,5,,,,,,,,,7,,,60,75
28336,note_on,64,0,2,,,,,,,,,1,,,76,0
28336,note_on,0,0,2,,,,,,,,,1,,,74,92
28366,note_on,94,0,4,,,,,,,,,4,,,64,0
28366,note_on,94,0,3,,,,,,,,,6,,,67,0
28368,note_on,2,0,4,,,,,,,,,4,,,67,75
28368,note_on,2,0,3,,,,,,,,,6,,,76,75
28400,note_on,64,0,2,,,,,,,,,1,,,74,0
28400,note_on,0,0,2,,,,,,,,,1,,,72,92
28432,note_on,160,0,5,,,,,,,,,7,,,60,0
28462,note_on,94,0,4,,,,,,,,,4,,,67,0
28462,note_on,94,0,3,,,,,,,,,6,,,76,0
28464,note_on,0,0,2,,,,,,,,,1,,,71,92
28464,note_on,64,0,2,,,,,,,,,1,,,72,0
28464,note_on,32,0,5,,,,,,,,,7,,,55,75
28464,note_on,0,0,4,,,,,,,,,4,,,71,75
28464,note_on,2,0,4,,,,,,,,,4,,,67,75
28464,note_on,2,0,3,,,,,,,,,6,,,74,75
28558,note_on,94,0,3,,,,,,,,,6,,,74,0
28560,note_on,96,0,2,,,,,,,,,1,,,71,0
28560,note_on,2,0,3,,,,,,,,,6,,,71,75
28560,note_on,0,0,2,,,,,,,,,1,,,72,92
28608,note_on,0,0,2,,,,,,,,,1,,,71,92
28608,note_on,48,0,2,,,,,,,,,1,,,72,0
28624,note_on,0,0,4,,,,,,,,,4,,,71,0
28624,note_on,160,0,4,,,,,,,,,4,,,67,0
28624,note_on,160,0,5,,,,,,,,,7,,,55,0
28654,note_on,94,0,3,,,,,,,,,6,,,71,0
28656,note_on,32,0,4,,,,,,,,,4,,,59,75
28656,note_on,2,0,3,,,,,,,,,6,,,67,75
28656,note_on,32,0,5,,,,,,,,,7,,,43,75
28656,note_on,0,0,2,,,,,,,,,1,,,72,92
28656,note_on,48,0,2,,,,,,,,,1,,,71,0
28704,note_on,0,0,2,,,,,,,,,1,,,71,92
28704,note_on,48,0,2,,,,,,,,,1,,,72,0
28750,note_on,94,0,3,,,,,,,,,6,,,67,0
28750,note_on,46,0,2,,,,,,,,,1,,,71,0
28750,note_on,94,0,4,,,,,,,,,4,,,59,0
28752,note_on,2,0,4,,,,,,,,,4,,,67,75
28752,note_on,0,0,4,,,,,,,,,4,,,71,75
28752,note_on,2,0,3,,,,,,,,,6,,,74,75
28752,note_on,2,0,2,,,,,,,,,1,,,72,92
28816,note_on,160,0,5,,,,,,,,,7,,,43,0
28846,note_on,94,0,4,,,,,,,,,4,,,67,0
28846,note_on,94,0,3,,,,,,,,,6,,,74,0
28846,note_on,94,0,2,,,,,,,,,1,,,72,0
28846,note_on,0,0,4,,,,,,,,,4,,,71,0
28848,note_on,0,0,4,,,,,,,,,4,,,72,75
28848,note_on,2,0,4,,,,,,,,,4,,,67,75
28848,note_on,32,0,5,,,,,,,,,7,,,48,75
28848,note_on,2,0,2,,,,,,,,,1,,,72,92
28848,note_on,2,0,3,,,,,,,,,6,,,76,75
29008,note_on,0,0,4,,,,,,,,,4,,,72,0
29008,note_on,160,0,5,,,,,,,,,7,,,48,0
29008,note_on,160,0,3,,,,,,,,,6,,,76,0
29008,note_on,160,0,4,,,,,,,,,4,,,67,0
29184,note_on,176,0,3,,,,,,,,,6,,,72,75
29184,note_on,336,0,2,,,,,,,,,1,,,72,0
29230,note_on,46,0,3,,,,,,,,,6,,,72,0
29232,note_on,224,0,4,,,,,,,,,4,,,67,75
29232,note_on,0,0,4,,,,,,,,,4,,,72,75
29232,note_on,224,0,5,,,,,,,,,7,,,60,75
29232,note_on,2,0,3,,,,,,,,,6,,,76,75
29392,note_on,160,0,5,,,,,,,,,7,,,60,0
29392,note_on,160,0,3,,,,,,,,,6,,,76,0
29392,note_on,160,0,4,,,,,,,,,4,,,67,0
29392,note_on,0,0,4,,,,,,,,,4,,,72,0
29424,note_on,32,0,3,,,,,,,,,6,,,77,75
29424,note_on,0,0,4,,,,,,,,,4,,,72,75
29424,note_on,32,0,4,,,,,,,,,4,,,69,75
29424,note_on,32,0,5,,,,,,,,,7,,,53,75
29584,note_on,160,0,3,,,,,,,,,6,,,77,0
29584,note_on,0,0,4,,,,,,,,,4,,,72,0
29584,note_on,160,0,4,,,,,,,,,4,,,69,0
29584,note_on,160,0,5,,,,,,,,,7,,,53,0
29616,note_on,0,0,4,,,,,,,,,4,,,76,75
29616,note_on,32,0,4,,,,,,,,,4,,,72,75
29616,note_on,32,0,5,,,,,,,,,7,,,48,75
29616,note_on,32,0,3,,,,,,,,,6,,,79,75
29776,note_on,160,0,5,,,,,,,,,7,,,48,0
29776,note_on,160,0,3,,,,,,,,,6,,,79,0
29776,note_on,160,0,4,,,,,,,,,4,,,72,0
29776,note_on,0,0,4,,,,,,,,,4,,,76,0
29904,note_on,128,0,3,,,,,,,,,6,,,81,75
29904,note_on,128,0,4,,,,,,,,,4,,,81,75
29950,note_on,46,0,3,,,,,,,,,6,,,81,0
29950,note_on,46,0,4,,,,,,,,,4,,,81,0
29952,note_on,2,0,3,,,,,,,,,6,,,83,75
29952,note_on,2,0,4,,,,,,,,,4,,,83,75
29998,note_on,46,0,4,,,,,,,,,4,,,83,0
29998,note_on,46,0,3,,,,,,,,,6,,,83,0
30000,note_on,2,0,4,,,,,,,,,4,,,76,75
30000,note_on,224,0,5,,,,,,,,,7,,,60,75
30000,note_on,2,0,3,,,,,,,,,6,,,84,75
30094,note_on,94,0,3,,,,,,,,,6,,,84,0
30096,note_on,2,0,3,,,,,,,,,6,,,83,75
30142,note_on,46,0,3,,,,,,,,,6,,,83,0
30144,note_on,2,0,3,,,,,,,,,6,,,81,75
30160,note_on,160,0,4,,,,,,,,,4,,,76,0
30160,note_on,160,0,5,,,,,,,,,7,,,60,0
30190,note_on,46,0,3,,,,,,,,,6,,,81,0
30192,note_on,32,0,5,,,,,,,,,7,,,59,75
30192,note_on,32,0,4,,,,,,,,,4,,,74,75
30192,note_on,2,0,3,,,,,,,,,6,,,79,75
30286,note_on,94,0,3,,,,,,,,,6,,,79,0
30288,note_on,2,0,3,,,,,,,,,6,,,77,75
30352,note_on,160,0,4,,,,,,,,,4,,,74,0
30352,note_on,160,0,5,,,,,,,,,7,,,59,0
30382,note_on,94,0,3,,,,,,,,,6,,,77,0
30384,note_on,32,0,4,,,,,,,,,4,,,67,75
30384,note_on,2,0,3,,,,,,,,,6,,,76,75
30384,note_on,32,0,5,,,,,,,,,7,,,60,75
30478,note_on,94,0,3,,,,,,,,,6,,,76,0
30480,note_on,2,0,3,,,,,,,,,6,,,74,75
30526,note_on,46,0,3,,,,,,,,,6,,,74,0
30528,note_on,2,0,3,,,,,,,,,6,,,72,75
30544,note_on,160,0,5,,,,,,,,,7,,,60,0
30544,note_on,160,0,4,,,,,,,,,4,,,67,0
30574,note_on,46,0,3,,,,,,,,,6,,,72,0
30576,note_on,32,0,5,,,,,,,,,7,,,59,75
30576,note_on,2,0,3,,,,,,,,,6,,,71,75
30576,note_on,32,0,4,,,,,,,,,4,,,71,75
30670,note_on,94,0,5,,,,,,,,,7,,,59,0
30670,note_on,94,0,3,,,,,,,,,6,,,71,0
30670,note_on,94,0,4,,,,,,,,,4,,,71,0
30672,note_on,2,0,5,,,,,,,,,7,,,57,75
30672,note_on,2,0,3,,,,,,,,,6,,,69,75
30672,note_on,2,0,4,,,,,,,,,4,,,69,75
30766,note_on,94,0,3,,,,,,,,,6,,,69,0
30766,note_on,94,0,4,,,,,,,,,4,,,69,0
30766,note_on,94,0,5,,,,,,,,,7,,,57,0
30768,note_on,2,0,3,,,,,,,,,6,,,67,75
30768,note_on,2,0,5,,,,,,,,,7,,,55,75
30768,note_on,2,0,4,,,,,,,,,4,,,67,75
30862,note_on,94,0,5,,,,,,,,,7,,,55,0
30862,note_on,94,0,3,,,,,,,,,6,,,67,0
30862,note_on,94,0,4,,,,,,,,,4,,,67,0
30864,note_on,2,0,5,,,,,,,,,7,,,53,75
30864,note_on,2,0,4,,,,,,,,,4,,,65,75
30864,note_on,2,0,3,,,,,,,,,6,,,65,75
30910,note_on,46,0,3,,,,,,,,,6,,,65,0
30910,note_on,46,0,5,,,,,,,,,7,,,53,0
30910,note_on,46,0,4,,,,,,,,,4,,,65,0
30912,note_on,2,0,5,,,,,,,,,7,,,52,75
30912,note_on,2,0,3,,,,,,,,,6,,,64,75
30912,note_on,2,0,4,,,,,,,,,4,,,64,75
30958,note_on,46,0,5,,,,,,,,,7,,,52,0
30958,note_on,46,0,4,,,,,,,,,4,,,64,0
30958,note_on,46,0,3,,,,,,,,,6,,,64,0
30960,note_on,2,0,4,,,,,,,,,4,,,62,75
30960,note_on,2,0,3,,,,,,,,,6,,,62,75
30960,note_on,2,0,5,,,,,,,,,7,,,50,75
31054,note_on,94,0,5,,,,,,,,,7,,,50,0
31054,note_on,94,0,4,,,,,,,,,4,,,62,0
31054,note_on,94,0,3,,,,,,,,,6,,,62,0
31056,note_on,2,0,5,,,,,,,,,7,,,48,75
31056,note_on,2,0,4,,,,,,,,,4,,,60,75
31056,note_on,2,0,3,,,,,,,,,6,,,60,75
31150,note_on,94,0,4,,,,,,,,,4,,,60,0
31150,note_on,94,0,3,,,,,,,,,6,,,60,0
31150,note_on,94,0,5,,,,,,,,,7,,,48,0
31152,note_on,2,0,3,,,,,,,,,6,,,55,75
31152,note_on,2,0,5,,,,,,,,,7,,,43,75
31246,note_on,94,0,5,,,,,,,,,7,,,43,0
31248,note_on,2,0,5,,,,,,,,,7,,,55,75
31248,note_on,98,0,4,,,,,,,,,4,,,59,75
31312,note_on,160,0,3,,,,,,,,,6,,,55,0
31342,note_on,94,0,4,,,,,,,,,4,,,59,0
31342,note_on,94,0,5,,,,,,,,,7,,,55,0
31344,note_on,2,0,4,,,,,,,,,4,,,59,75
31344,note_on,0,0,4,,,,,,,,,4,,,62,75
31344,note_on,2,0,5,,,,,,,,,7,,,43,75
31440,note_on,3968,0,1,,,,,,,,,0,,,74,75
31440,note_on,2256,0,2,,,,,,,,,1,,,71,75
31440,note_on,128,0,3,,,,,,,,,6,,,67,75
31504,note_on,160,0,5,,,,,,,,,7,,,43,0
31504,note_on,0,0,4,,,,,,,,,4,,,62,0
31504,note_on,160,0,4,,,,,,,,,4,,,59,0
31534,note_on,94,0,1,,,,,,,,,0,,,74,0
31534,note_on,94,0,3,,,,,,,,,6,,,67,0
31534,note_on,94,0,2,,,,,,,,,1,,,71,0
31536,note_on,32,0,4,,,,,,,,,4,,,55,75
31536,note_on,2,0,1,,,,,,,,,0,,,76,75
31536,note_on,2,0,2,,,,,,,,,1,,,72,75
31632,note_on,0,0,2,,,,,,,,,1,,,71,75
31632,note_on,96,0,2,,,,,,,,,1,,,72,0
31632,note_on,0,0,1,,,,,,,,,0,,,74,75
31632,note_on,98,0,3,,,,,,,,,6,,,71,75
31632,note_on,128,0,5,,,,,,,,,7,,,55,75
31632,note_on,96,0,1,,,,,,,,,0,,,76,0
31632,note_on,0,0,3,,,,,,,,,6,,,74,75
31696,note_on,160,0,4,,,,,,,,,4,,,55,0
31726,note_on,94,0,2,,,,,,,,,1,,,71,0
31726,note_on,0,0,3,,,,,,,,,6,,,74,0
31726,note_on,94,0,5,,,,,,,,,7,,,55,0
31726,note_on,94,0,1,,,,,,,,,0,,,74,0
31726,note_on,94,0,3,,,,,,,,,6,,,71,0
31728,note_on,2,0,2,,,,,,,,,1,,,72,75
31728,note_on,2,0,1,,,,,,,,,0,,,76,75
31728,note_on,2,0,3,,,,,,,,,6,,,72,75
31728,note_on,0,0,3,,,,,,,,,6,,,76,75
31728,note_on,2,0,5,,,,,,,,,7,,,43,75
31824,note_on,96,0,1,,,,,,,,,0,,,76,0
31824,note_on,0,0,1,,,,,,,,,0,,,77,75
31824,note_on,0,0,2,,,,,,,,,1,,,74,75
31824,note_on,128,0,4,,,,,,,,,4,,,67,75
31824,note_on,96,0,2,,,,,,,,,1,,,72,0
31888,note_on,160,0,5,,,,,,,,,7,,,43,0
31888,note_on,160,0,3,,,,,,,,,6,,,72,0
31888,note_on,0,0,3,,,,,,,,,6,,,76,0
31918,note_on,94,0,4,,,,,,,,,4,,,67,0
31918,note_on,94,0,2,,,,,,,,,1,,,74,0
31918,note_on,94,0,1,,,,,,,,,0,,,77,0
31920,note_on,2,0,2,,,,,,,,,1,,,71,75
31920,note_on,2,0,1,,,,,,,,,0,,,74,75
31920,note_on,2,0,4,,,,,,,,,4,,,55,75
32016,note_on,128,0,5,,,,,,,,,7,,,55,75
32016,note_on,128,0,3,,,,,,,,,6,,,71,75
32016,note_on,0,0,3,,,,,,,,,6,,,74,75
32080,note_on,160,0,1,,,,,,,,,0,,,74,0
32080,note_on,160,0,4,,,,,,,,,4,,,55,0
32080,note_on,160,0,2,,,,,,,,,1,,,71,0
32110,note_on,94,0,5,,,,,,,,,7,,,55,0
32110,note_on,94,0,3,,,,,,,,,6,,,71,0
32110,note_on,0,0,3,,,,,,,,,6,,,74,0
32112,note_on,32,0,1,,,,,,,,,0,,,72,75
32112,note_on,32,0,2,,,,,,,,,1,,,69,75
32112,note_on,0,0,3,,,,,,,,,6,,,72,75
32112,note_on,2,0,3,,,,,,,,,6,,,69,75
32112,note_on,2,0,5,,,,,,,,,7,,,43,75
32206,note_on,94,0,2,,,,,,,,,1,,,69,0
32206,note_on,94,0,1,,,,,,,,,0,,,72,0
32206,note_on,94,0,3,,,,,,,,,6,,,69,0
32206,note_on,0,0,3,,,,,,,,,6,,,72,0
32208,note_on,128,0,4,,,,,,,,,4,,,67,75
32208,note_on,2,0,1,,,,,,,,,0,,,74,75
32208,note_on,2,0,2,,,,,,,,,1,,,71,75
32208,note_on,2,0,3,,,,,,,,,6,,,71,75
32272,note_on,160,0,5,,,,,,,,,7,,,43,0
32302,note_on,94,0,4,,,,,,,,,4,,,67,0
32302,note_on,94,0,3,,,,,,,,,6,,,71,0
32302,note_on,94,0,1,,,,,,,,,0,,,74,0
32302,note_on,94,0,2,,,,,,,,,1,,,71,0
32304,note_on,2,0,4,,,,,,,,,4,,,55,75
32304,note_on,2,0,1,,,,,,,,,0,,,76,75
32304,note_on,2,0,2,,,,,,,,,1,,,72,75
32400,note_on,0,0,3,,,,,,,,,6,,,76,75
32400,note_on,128,0,5,,,,,,,,,7,,,55,75
32400,note_on,98,0,3,,,,,,,,,6,,,72,75
32464,note_on,160,0,1,,,,,,,,,0,,,76,0
32464,note_on,160,0,2,,,,,,,,,1,,,72,0
32464,note_on,160,0,4,,,,,,,,,4,,,55,0
32494,note_on,94,0,5,,,,,,,,,7,,,55,0
32494,note_on,0,0,3,,,,,,,,,6,,,76,0
32494,note_on,94,0,3,,,,,,,,,6,,,72,0
32496,note_on,32,0,1,,,,,,,,,0,,,77,75
32496,note_on,2,0,5,,,,,,,,,7,,,43,75
32496,note_on,0,0,3,,,,,,,,,6,,,77,75
32496,note_on,2,0,3,,,,,,,,,6,,,74,75
32496,note_on,32,0,2,,,,,,,,,1,,,74,75
32590,note_on,0,0,3,,,,,,,,,6,,,77,0
32590,note_on,94,0,3,,,,,,,,,6,,,74,0
32590,note_on,94,0,1,,,,,,,,,0,,,77,0
32590,note_on,94,0,2,,,,,,,,,1,,,74,0
32592,note_on,2,0,1,,,,,,,,,0,,,76,75
32592,note_on,2,0,3,,,,,,,,,6,,,72,75
32592,note_on,0,0,3,,,,,,,,,6,,,76,75
32592,note_on,128,0,4,,,,,,,,,4,,,67,75
32592,note_on,2,0,2,,,,,,,,,1,,,72,75
32656,note_on,160,0,5,,,,,,,,,7,,,43,0
32686,note_on,94,0,4,,,,,,,,,4,,,67,0
32686,note_on,0,0,3,,,,,,,,,6,,,76,0
32686,note_on,94,0,3,,,,,,,,,6,,,72,0
32686,note_on,94,0,1,,,,,,,,,0,,,76,0
32686,note_on,94,0,2,,,,,,,,,1,,,72,0
32688,note_on,2,0,1,,,,,,,,,0,,,74,75
32688,note_on,2,0,4,,,,,,,,,4,,,55,75
32688,note_on,2,0,2,,,,,,,,,1,,,71,75
32784,note_on,0,0,3,,,,,,,,,6,,,74,75
32784,note_on,98,0,3,,,,,,,,,6,,,71,75
32784,note_on,128,0,5,,,,,,,,,7,,,55,75
32848,note_on,160,0,2,,,,,,,,,1,,,71,0
32848,note_on,160,0,4,,,,,,,,,4,,,55,0
32848,note_on,160,0,1,,,,,,,,,0,,,74,0
32878,note_on,94,0,3,,,,,,,,,6,,,71,0
32878,note_on,0,0,3,,,,,,,,,6,,,74,0
32878,note_on,94,0,5,,,,,,,,,7,,,55,0
32880,note_on,32,0,2,,,,,,,,,1,,,72,75
32880,note_on,2,0,5,,,,,,,,,7,,,43,75
32880,note_on,32,0,1,,,,,,,,,0,,,76,75
32880,note_on,2,0,3,,,,,,,,,6,,,72,75
32880,note_on,0,0,3,,,,,,,,,6,,,76,75
32974,note_on,94,0,1,,,,,,,,,0,,,76,0
32974,note_on,94,0,3,,,,,,,,,6,,,72,0
32974,note_on,0,0,3,,,,,,,,,6,,,76,0
32974,note_on,94,0,2,,,,,,,,,1,,,72,0
32976,note_on,128,0,4,,,,,,,,,4,,,67,75
32976,note_on,2,0,1,,,,,,,,,0,,,74,75
32976,note_on,2,0,2,,,,,,,,,1,,,71,75
32976,note_on,0,0,3,,,,,,,,,6,,,74,75
32976,note_on,2,0,3,,,,,,,,,6,,,71,75
33040,note_on,160,0,5,,,,,,,,,7,,,43,0
33070,note_on,94,0,1,,,,,,,,,0,,,74,0
33070,note_on,94,0,3,,,,,,,,,6,,,71,0
33070,note_on,94,0,2,,,,,,,,,1,,,71,0
33070,note_on,94,0,4,,,,,,,,,4,,,67,0
33070,note_on,0,0,3,,,,,,,,,6,,,74,0
33072,note_on,2,0,2,,,,,,,,,1,,,69,75
33072,note_on,2,0,4,,,,,,,,,4,,,55,75
33072,note_on,2,0,1,,,,,,,,,0,,,72,75
33168,note_on,98,0,3,,,,,,,,,6,,,69,75
33168,note_on,0,0,3,,,,,,,,,6,,,72,75
33168,note_on,128,0,5,,,,,,,,,7,,,55,75
33232,note_on,160,0,2,,,,,,,,,1,,,69,0
33232,note_on,160,0,1,,,,,,,,,0,,,72,0
33232,note_on,160,0,4,,,,,,,,,4,,,55,0
33262,note_on,94,0,5,,,,,,,,,7,,,55,0
33262,note_on,94,0,3,,,,,,,,,6,,,69,0
33262,note_on,0,0,3,,,,,,,,,6,,,72,0
33264,note_on,0,0,3,,,,,,,,,6,,,74,75
33264,note_on,32,0,2,,,,,,,,,1,,,71,75
33264,note_on,2,0,3,,,,,,,,,6,,,71,75
33264,note_on,2,0,5,,,,,,,,,7,,,43,75
33264,note_on,32,0,1,,,,,,,,,0,,,74,75
33358,note_on,0,0,3,,,,,,,,,6,,,74,0
33358,note_on,94,0,3,,,,,,,,,6,,,71,0
33360,note_on,96,0,2,,,,,,,,,1,,,71,0
33360,note_on,2,0,3,,,,,,,,,6,,,72,75
33360,note_on,0,0,2,,,,,,,,,1,,,69,75
33360,note_on,128,0,4,,,,,,,,,4,,,67,75
33360,note_on,0,0,1,,,,,,,,,0,,,72,75
33360,note_on,96,0,1,,,,,,,,,0,,,74,0
33406,note_on,46,0,3,,,,,,,,,6,,,72,0
33408,note_on,2,0,3,,,,,,,,,6,,,71,75
33424,note_on,160,0,5,,,,,,,,,7,,,43,0
33454,note_on,46,0,3,,,,,,,,,6,,,71,0
33454,note_on,94,0,1,,,,,,,,,0,,,72,0
33454,note_on,94,0,4,,,,,,,,,4,,,67,0
33454,note_on,94,0,2,,,,,,,,,1,,,69,0
33456,note_on,2,0,1,,,,,,,,,0,,,71,75
33456,note_on,2,0,4,,,,,,,,,4,,,55,75
33456,note_on,2,0,2,,,,,,,,,1,,,67,75
33550,note_on,94,0,1,,,,,,,,,0,,,71,0
33550,note_on,94,0,2,,,,,,,,,1,,,67,0
33552,note_on,2,0,2,,,,,,,,,1,,,67,75
33552,note_on,2,0,1,,,,,,,,,0,,,71,75
33552,note_on,0,0,3,,,,,,,,,6,,,71,75
33552,note_on,98,0,3,,,,,,,,,6,,,67,75
33552,note_on,128,0,5,,,,,,,,,7,,,55,75
33616,note_on,160,0,4,,,,,,,,,4,,,55,0
33646,note_on,94,0,2,,,,,,,,,1,,,67,0
33646,note_on,94,0,5,,,,,,,,,7,,,55,0
33646,note_on,94,0,3,,,,,,,,,6,,,67,0
33646,note_on,94,0,1,,,,,,,,,0,,,71,0
33646,note_on,0,0,3,,,,,,,,,6,,,71,0
33648,note_on,2,0,2,,,,,,,,,1,,,69,75
33648,note_on,2,0,5,,,,,,,,,7,,,43,75
33648,note_on,2,0,1,,,,,,,,,0,,,72,75
33648,note_on,2,0,3,,,,,,,,,6,,,69,75
33694,note_on,46,0,3,,,,,,,,,6,,,69,0
33696,note_on,2,0,3,,,,,,,,,6,,,72,75
33742,note_on,94,0,1,,,,,,,,,0,,,72,0
33742,note_on,94,0,2,,,,,,,,,1,,,69,0
33742,note_on,46,0,3,,,,,,,,,6,,,72,0
33744,note_on,2,0,3,,,,,,,,,6,,,71,75
33744,note_on,2,0,1,,,,,,,,,0,,,74,75
33744,note_on,128,0,4,,,,,,,,,4,,,67,75
33744,note_on,2,0,2,,,,,,,,,1,,,71,75
33790,note_on,46,0,3,,,,,,,,,6,,,71,0
33792,note_on,2,0,3,,,,,,,,,6,,,74,75
33808,note_on,160,0,5,,,,,,,,,7,,,43,0
33838,note_on,46,0,3,,,,,,,,,6,,,74,0
33838,note_on,94,0,2,,,,,,,,,1,,,71,0
33838,note_on,94,0,1,,,,,,,,,0,,,74,0
33838,note_on,94,0,4,,,,,,,,,4,,,67,0
33840,note_on,2,0,4,,,,,,,,,4,,,55,75
33840,note_on,0,0,4,,,,,,,,,4,,,69,75
33840,note_on,2,0,1,,,,,,,,,0,,,72,75
33840,note_on,2,0,2,,,,,,,,,1,,,69,75
33840,note_on,2,0,3,,,,,,,,,6,,,72,75
33934,note_on,94,0,3,,,,,,,,,6,,,72,0
33936,note_on,2,0,3,,,,,,,,,6,,,74,75
33936,note_on,128,0,5,,,,,,,,,7,,,55,75
33982,note_on,46,0,3,,,,,,,,,6,,,74,0
33984,note_on,2,0,3,,,,,,,,,6,,,72,75
34000,note_on,160,0,1,,,,,,,,,0,,,72,0
34000,note_on,0,0,4,,,,,,,,,4,,,69,0
34000,note_on,160,0,4,,,,,,,,,4,,,55,0
34000,note_on,160,0,2,,,,,,,,,1,,,69,0
34030,note_on,46,0,3,,,,,,,,,6,,,72,0
34030,note_on,94,0,5,,,,,,,,,7,,,55,0
34032,note_on,32,0,2,,,,,,,,,1,,,67,75
34032,note_on,2,0,5,,,,,,,,,7,,,43,75
34032,note_on,2,0,3,,,,,,,,,6,,,67,75
34032,note_on,32,0,1,,,,,,,,,0,,,71,75
34032,note_on,32,0,4,,,,,,,,,4,,,71,75
34126,note_on,94,0,4,,,,,,,,,4,,,71,0
34128,note_on,2,0,4,,,,,,,,,4,,,67,75
34192,note_on,160,0,3,,,,,,,,,6,,,67,0
34192,note_on,160,0,5,,,,,,,,,7,,,43,0
34192,note_on,160,0,1,,,,,,,,,0,,,71,0
34192,note_on,160,0,2,,,,,,,,,1,,,67,0
34222,note_on,94,0,4,,,,,,,,,4,,,67,0
34224,note_on,32,0,3,,,,,,,,,6,,,66,92
34224,note_on,0,0,3,,,,,,,,,6,,,74,92
34224,note_on,2,0,4,,,,,,,,,4,,,62,92
34224,note_on,32,0,5,,,,,,,,,7,,,50,92
34224,note_on,32,0,2,,,,,,,,,1,,,66,75
34224,note_on,32,0,1,,,,,,,,,0,,,69,75
34318,note_on,94,0,5,,,,,,,,,7,,,50,0
34318,note_on,94,0,3,,,,,,,,,6,,,66,0
34318,note_on,0,0,3,,,,,,,,,6,,,74,0
34320,note_on,2,0,3,,,,,,,,,6,,,67,92
34320,note_on,2,0,5,,,,,,,,,7,,,52,92
34384,note_on,160,0,4,,,,,,,,,4,,,62,0
34384,note_on,160,0,1,,,,,,,,,0,,,69,0
34384,note_on,160,0,2,,,,,,,,,1,,,66,0
34414,note_on,94,0,5,,,,,,,,,7,,,52,0
34414,note_on,94,0,3,,,,,,,,,6,,,67,0
34416,note_on,2,0,5,,,,,,,,,7,,,54,92
34416,note_on,32,0,1,,,,,,,,,0,,,78,92
34416,note_on,32,0,2,,,,,,,,,1,,,74,92
34416,note_on,2,0,3,,,,,,,,,6,,,69,92
34510,note_on,94,0,3,,,,,,,,,6,,,69,0
34510,note_on,94,0,5,,,,,,,,,7,,,54,0
34512,note_on,2,0,3,,,,,,,,,6,,,66,92
34512,note_on,2,0,5,,,,,,,,,7,,,50,92
34512,note_on,128,0,4,,,,,,,,,4,,,74,92
34558,note_on,142,0,2,,,,,,,,,1,,,74,0
34558,note_on,142,0,1,,,,,,,,,0,,,78,0
34560,note_on,2,0,1,,,,,,,,,0,,,78,92
34560,note_on,2,0,2,,,,,,,,,1,,,74,92
34606,note_on,46,0,2,,,,,,,,,1,,,74,0
34606,note_on,46,0,1,,,,,,,,,0,,,78,0
34606,note_on,94,0,3,,,,,,,,,6,,,66,0
34606,note_on,94,0,4,,,,,,,,,4,,,74,0
34606,note_on,94,0,5,,,,,,,,,7,,,50,0
34608,note_on,2,0,1,,,,,,,,,0,,,74,92
34608,note_on,2,0,4,,,,,,,,,4,,,59,92
34608,note_on,2,0,5,,,,,,,,,7,,,43,92
34608,note_on,2,0,2,,,,,,,,,1,,,71,92
34608,note_on,2,0,3,,,,,,,,,6,,,65,92
34654,note_on,46,0,4,,,,,,,,,4,,,59,0
34656,note_on,2,0,4,,,,,,,,,4,,,60,92
34702,note_on,46,0,4,,,,,,,,,4,,,60,0
34704,note_on,2,0,4,,,,,,,,,4,,,62,92
34750,note_on,46,0,4,,,,,,,,,4,,,62,0
34752,note_on,2,0,4,,,,,,,,,4,,,60,92
34768,note_on,160,0,2,,,,,,,,,1,,,71,0
34768,note_on,160,0,1,,,,,,,,,0,,,74,0
34798,note_on,46,0,4,,,,,,,,,4,,,60,0
34800,note_on,32,0,2,,,,,,,,,1,,,67,92
34800,note_on,32,0,1,,,,,,,,,0,,,71,92
34800,note_on,2,0,4,,,,,,,,,4,,,59,92
34846,note_on,238,0,3,,,,,,,,,6,,,65,0
34848,note_on,2,0,3,,,,,,,,,6,,,64,92
34864,note_on,256,0,5,,,,,,,,,7,,,43,0
34894,note_on,46,0,3,,,,,,,,,6,,,64,0
34896,note_on,32,0,5,,,,,,,,,7,,,43,92
34896,note_on,2,0,3,,,,,,,,,6,,,65,92
34942,note_on,46,0,3,,,,,,,,,6,,,65,0
34944,note_on,2,0,3,,,,,,,,,6,,,67,92
34960,note_on,160,0,2,,,,,,,,,1,,,67,0
34960,note_on,160,0,1,,,,,,,,,0,,,71,0
34960,note_on,160,0,4,,,,,,,,,4,,,59,0
34990,note_on,46,0,3,,,,,,,,,6,,,67,0
34990,note_on,94,0,5,,,,,,,,,7,,,43,0
34992,note_on,32,0,2,,,,,,,,,1,,,64,92
34992,note_on,2,0,3,,,,,,,,,6,,,64,92
34992,note_on,32,0,4,,,,,,,,,4,,,55,92
34992,note_on,2,0,5,,,,,,,,,7,,,48,92
34992,note_on,32,0,1,,,,,,,,,0,,,67,92
35086,note_on,94,0,3,,,,,,,,,6,,,64,0
35088,note_on,2,0,3,,,,,,,,,6,,,60,92
35152,note_on,160,0,1,,,,,,,,,0,,,67,0
35152,note_on,160,0,2,,,,,,,,,1,,,64,0
35182,note_on,94,0,3,,,,,,,,,6,,,60,0
35184,note_on,2,0,3,,,,,,,,,6,,,64,92
35184,note_on,32,0,1,,,,,,,,,0,,,76,92
35184,note_on,32,0,2,,,,,,,,,1,,,67,92
35248,note_on,256,0,4,,,,,,,,,4,,,55,0
35248,note_on,256,0,5,,,,,,,,,7,,,48,0
35278,note_on,94,0,3,,,,,,,,,6,,,64,0
35280,note_on,32,0,4,,,,,,,,,4,,,67,92
35280,note_on,32,0,5,,,,,,,,,7,,,48,92
35280,note_on,2,0,3,,,,,,,,,6,,,76,92
35326,note_on,142,0,2,,,,,,,,,1,,,67,0
35326,note_on,142,0,1,,,,,,,,,0,,,76,0
35328,note_on,2,0,2,,,,,,,,,1,,,67,92
35328,note_on,2,0,1,,,,,,,,,0,,,76,92
35374,note_on,94,0,5,,,,,,,,,7,,,48,0
35374,note_on,94,0,3,,,,,,,,,6,,,76,0
35374,note_on,46,0,1,,,,,,,,,0,,,76,0
35374,note_on,94,0,4,,,,,,,,,4,,,67,0
35374,note_on,46,0,2,,,,,,,,,1,,,67,0
35376,note_on,2,0,1,,,,,,,,,0,,,76,92
35376,note_on,2,0,3,,,,,,,,,6,,,67,92
35376,note_on,2,0,2,,,,,,,,,1,,,73,92
35376,note_on,2,0,4,,,,,,,,,4,,,61,92
35376,note_on,2,0,5,,,,,,,,,7,,,45,92
35422,note_on,46,0,4,,,,,,,,,4,,,61,0
35424,note_on,2,0,4,,,,,,,,,4,,,62,92
35470,note_on,46,0,4,,,,,,,,,4,,,62,0
35472,note_on,2,0,4,,,,,,,,,4,,,64,92
35518,note_on,46,0,4,,,,,,,,,4,,,64,0
35520,note_on,2,0,4,,,,,,,,,4,,,62,92
35536,note_on,160,0,1,,,,,,,,,0,,,76,0
35536,note_on,160,0,2,,,,,,,,,1,,,73,0
35566,note_on,46,0,4,,,,,,,,,4,,,62,0
35568,note_on,2,0,4,,,,,,,,,4,,,61,92
35568,note_on,32,0,2,,,,,,,,,1,,,69,92
35568,note_on,32,0,1,,,,,,,,,0,,,73,92
35614,note_on,238,0,3,,,,,,,,,6,,,67,0
35616,note_on,2,0,3,,,,,,,,,6,,,66,92
35632,note_on,256,0,5,,,,,,,,,7,,,45,0
35662,note_on,46,0,3,,,,,,,,,6,,,66,0
35664,note_on,32,0,5,,,,,,,,,7,,,45,92
35664,note_on,2,0,3,,,,,,,,,6,,,67,92
35710,note_on,46,0,3,,,,,,,,,6,,,67,0
35712,note_on,2,0,3,,,,,,,,,6,,,69,92
35728,note_on,160,0,4,,,,,,,,,4,,,61,0
35728,note_on,160,0,2,,,,,,,,,1,,,69,0
35728,note_on,160,0,1,,,,,,,,,0,,,73,0
35758,note_on,46,0,3,,,,,,,,,6,,,69,0
35758,note_on,94,0,5,,,,,,,,,7,,,45,0
35760,note_on,32,0,2,,,,,,,,,1,,,66,92
35760,note_on,32,0,1,,,,,,,,,0,,,69,92
35760,note_on,2,0,5,,,,,,,,,7,,,50,92
35760,note_on,32,0,4,,,,,,,,,4,,,57,92
35760,note_on,2,0,3,,,,,,,,,6,,,66,92
35854,note_on,94,0,3,,,,,,,,,6,,,66,0
35856,note_on,2,0,3,,,,,,,,,6,,,62,92
35950,note_on,94,0,3,,,,,,,,,6,,,62,0
35952,note_on,2,0,3,,,,,,,,,6,,,66,92
36016,note_on,256,0,5,,,,,,,,,7,,,50,0
36016,note_on,256,0,4,,,,,,,,,4,,,57,0
36046,note_on,94,0,3,,,,,,,,,6,,,66,0
36048,note_on,32,0,5,,,,,,,,,7,,,50,108
36048,note_on,2,0,3,,,,,,,,,6,,,81,108
36048,note_on,32,0,4,,,,,,,,,4,,,78,108
36096,note_on,336,0,1,,,,,,,,,0,,,69,0
36096,note_on,336,0,2,,,,,,,,,1,,,66,0
36142,note_on,94,0,5,,,,,,,,,7,,,50,0
36142,note_on,94,0,3,,,,,,,,,6,,,81,0
36142,note_on,94,0,4,,,,,,,,,4,,,78,0
36144,note_on,2,0,5,,,,,,,,,7,,,57,108
36144,note_on,2,0,4,,,,,,,,,4,,,64,108
36144,note_on,2,0,3,,,,,,,,,6,,,72,108
36238,note_on,94,0,5,,,,,,,,,7,,,57,0
36240,note_on,2,0,5,,,,,,,,,7,,,55,108
36304,note_on,160,0,4,,,,,,,,,4,,,64,0
36334,note_on,94,0,5,,,,,,,,,7,,,55,0
36336,note_on,2,0,5,,,,,,,,,7,,,54,108
36336,note_on,32,0,4,,,,,,,,,4,,,69,108
36382,note_on,238,0,3,,,,,,,,,6,,,72,0
36384,note_on,2,0,3,,,,,,,,,6,,,71,108
36430,note_on,46,0,3,,,,,,,,,6,,,71,0
36430,note_on,94,0,5,,,,,,,,,7,,,54,0
36430,note_on,94,0,4,,,,,,,,,4,,,69,0
36432,note_on,2,0,5,,,,,,,,,7,,,50,108
36432,note_on,2,0,4,,,,,,,,,4,,,66,108
36432,note_on,2,0,3,,,,,,,,,6,,,72,108
36478,note_on,46,0,3,,,,,,,,,6,,,72,0
36480,note_on,2,0,3,,,,,,,,,6,,,74,108
36526,note_on,46,0,3,,,,,,,,,6,,,74,0
36526,note_on,94,0,5,,,,,,,,,7,,,50,0
36526,note_on,94,0,4,,,,,,,,,4,,,66,0
36528,note_on,2,0,3,,,,,,,,,6,,,71,108
36528,note_on,2,0,4,,,,,,,,,4,,,59,108
36528,note_on,0,0,4,,,,,,,,,4,,,67,108
36528,note_on,2,0,5,,,,,,,,,7,,,55,108
36622,note_on,94,0,5,,,,,,,,,7,,,55,0
36622,note_on,94,0,3,,,,,,,,,6,,,71,0
36624,note_on,2,0,5,,,,,,,,,7,,,55,108
36624,note_on,2,0,3,,,,,,,,,6,,,67,108
36688,note_on,0,0,4,,,,,,,,,4,,,67,0
36688,note_on,160,0,4,,,,,,,,,4,,,59,0
36718,note_on,94,0,5,,,,,,,,,7,,,55,0
36718,note_on,94,0,3,,,,,,,,,6,,,67,0
36720,note_on,624,0,1,,,,,,,,,0,,,74,108
36720,note_on,2,0,5,,,,,,,,,7,,,43,92
36720,note_on,32,0,4,,,,,,,,,4,,,55,92
36720,note_on,0,0,3,,,,,,,,,6,,,74,92
36720,note_on,2,0,3,,,,,,,,,6,,,71,92
36814,note_on,0,0,3,,,,,,,,,6,,,74,0
36814,note_on,94,0,3,,,,,,,,,6,,,71,0
36816,note_on,0,0,3,,,,,,,,,6,,,71,92
36816,note_on,2,0,3,,,,,,,,,6,,,67,92
36880,note_on,160,0,5,,,,,,,,,7,,,43,0
36880,note_on,160,0,4,,,,,,,,,4,,,55,0
36910,note_on,0,0,3,,,,,,,,,6,,,71,0
36910,note_on,94,0,3,,,,,,,,,6,,,67,0
36912,note_on,816,0,2,,,,,,,,,1,,,76,108
36912,note_on,32,0,5,,,,,,,,,7,,,55,92
36912,note_on,32,0,4,,,,,,,,,4,,,71,92
36912,note_on,2,0,3,,,,,,,,,6,,,76,92
37006,note_on,94,0,4,,,,,,,,,4,,,71,0
37006,note_on,286,0,1,,,,,,,,,0,,,74,0
37008,note_on,2,0,4,,,,,,,,,4,,,74,92
37008,note_on,2,0,1,,,,,,,,,0,,,72,108
37054,note_on,46,0,1,,,,,,,,,0,,,72,0
37056,note_on,2,0,1,,,,,,,,,0,,,71,108
37072,note_on,160,0,5,,,,,,,,,7,,,55,0
37102,note_on,94,0,4,,,,,,,,,4,,,74,0
37102,note_on,46,0,1,,,,,,,,,0,,,71,0
37104,note_on,2,0,4,,,,,,,,,4,,,72,92
37104,note_on,2,0,1,,,,,,,,,0,,,72,108
37104,note_on,32,0,5,,,,,,,,,7,,,57,92
37168,note_on,256,0,2,,,,,,,,,1,,,76,0
37198,note_on,286,0,3,,,,,,,,,6,,,76,0
37198,note_on,94,0,4,,,,,,,,,4,,,72,0
37200,note_on,2,0,4,,,,,,,,,4,,,64,92
37200,note_on,32,0,2,,,,,,,,,1,,,74,108
37200,note_on,2,0,3,,,,,,,,,6,,,72,92
37246,note_on,46,0,2,,,,,,,,,1,,,74,0
37248,note_on,2,0,2,,,,,,,,,1,,,72,108
37264,note_on,160,0,5,,,,,,,,,7,,,57,0
37294,note_on,94,0,4,,,,,,,,,4,,,64,0
37294,note_on,46,0,2,,,,,,,,,1,,,72,0
37294,note_on,94,0,3,,,,,,,,,6,,,72,0
37296,note_on,2,0,3,,,,,,,,,6,,,74,92
37296,note_on,2,0,4,,,,,,,,,4,,,69,92
37296,note_on,2,0,2,,,,,,,,,1,,,74,108
37296,note_on,32,0,5,,,,,,,,,7,,,54,92
37390,note_on,94,0,4,,,,,,,,,4,,,69,0
37392,note_on,2,0,4,,,,,,,,,4,,,72,92
37392,note_on,0,0,1,,,,,,,,,0,,,71,108
37392,note_on,288,0,1,,,,,,,,,0,,,72,0
37440,note_on,0,0,1,,,,,,,,,0,,,69,108
37440,note_on,48,0,1,,,,,,,,,0,,,71,0
37456,note_on,160,0,5,,,,,,,,,7,,,54,0
37486,note_on,94,0,4,,,,,,,,,4,,,72,0
37488,note_on,32,0,5,,,,,,,,,7,,,55,92
37488,note_on,2,0,4,,,,,,,,,4,,,71,92
37488,note_on,48,0,1,,,,,,,,,0,,,69,0
37488,note_on,0,0,1,,,,,,,,,0,,,71,108
37582,note_on,94,0,4,,,,,,,,,4,,,71,0
37584,note_on,288,0,2,,,,,,,,,1,,,74,0
37584,note_on,2,0,4,,,,,,,,,4,,,69,92
37584,note_on,0,0,2,,,,,,,,,1,,,72,108
37630,note_on,46,0,4,,,,,,,,,4,,,69,0
37632,note_on,48,0,2,,,,,,,,,1,,,72,0
37632,note_on,2,0,4,,,,,,,,,4,,,71,92
37632,note_on,0,0,2,,,,,,,,,1,,,71,108
37632,note_on,336,0,3,,,,,,,,,6,,,74,0
37648,note_on,160,0,5,,,,,,,,,7,,,55,0
37678,note_on,46,0,4,,,,,,,,,4,,,71,0
37680,note_on,32,0,5,,,,,,,,,7,,,57,92
37680,note_on,2,0,4,,,,,,,,,4,,,71,92
37680,note_on,0,0,2,,,,,,,,,1,,,72,108
37680,note_on,48,0,3,,,,,,,,,6,,,72,92
37680,note_on,48,0,2,,,,,,,,,1,,,71,0
37774,note_on,94,0,4,,,,,,,,,4,,,71,0
37776,note_on,2,0,4,,,,,,,,,4,,,64,92
37776,note_on,0,0,1,,,,,,,,,0,,,69,108
37776,note_on,288,0,1,,,,,,,,,0,,,71,0
37824,note_on,0,0,1,,,,,,,,,0,,,67,108
37824,note_on,48,0,1,,,,,,,,,0,,,69,0
37840,note_on,160,0,5,,,,,,,,,7,,,57,0
37870,note_on,94,0,4,,,,,,,,,4,,,64,0
37872,note_on,32,0,5,,,,,,,,,7,,,54,92
37872,note_on,0,0,1,,,,,,,,,0,,,69,108
37872,note_on,48,0,1,,,,,,,,,0,,,67,0
37872,note_on,2,0,4,,,,,,,,,4,,,69,92
37966,note_on,286,0,3,,,,,,,,,6,,,72,0
37968,note_on,2,0,3,,,,,,,,,6,,,74,92
37968,note_on,0,0,2,,,,,,,,,1,,,71,108
37968,note_on,288,0,2,,,,,,,,,1,,,72,0
38016,note_on,0,0,2,,,,,,,,,1,,,69,108
38016,note_on,48,0,2,,,,,,,,,1,,,71,0
38032,note_on,160,0,5,,,,,,,,,7,,,54,0
38062,note_on,94,0,3,,,,,,,,,6,,,74,0
38064,note_on,32,0,5,,,,,,,,,7,,,55,92
38064,note_on,0,0,2,,,,,,,,,1,,,71,108
38064,note_on,2,0,3,,,,,,,,,6,,,71,92
38064,note_on,48,0,2,,,,,,,,,1,,,69,0
38160,note_on,288,0,1,,,,,,,,,0,,,69,0
38160,note_on,0,0,1,,,,,,,,,0,,,67,108
38206,note_on,142,0,3,,,,,,,,,6,,,71,0
38208,note_on,0,0,1,,,,,,,,,0,,,66,108
38208,note_on,48,0,1,,,,,,,,,0,,,67,0
38208,note_on,2,0,3,,,,,,,,,6,,,72,92
38224,note_on,160,0,5,,,,,,,,,7,,,55,0
38224,note_on,352,0,4,,,,,,,,,4,,,69,0
38254,note_on,46,0,3,,,,,,,,,6,,,72,0
38256,note_on,2,0,3,,,,,,,,,6,,,74,92
38256,note_on,0,0,1,,,,,,,,,0,,,67,108
38256,note_on,48,0,1,,,,,,,,,0,,,66,0
38256,note_on,32,0,5,,,,,,,,,7,,,47,92
38256,note_on,32,0,4,,,,,,,,,4,,,67,92
38350,note_on,94,0,3,,,,,,,,,6,,,74,0
38352,note_on,2,0,3,,,,,,,,,6,,,71,92
38352,note_on,288,0,2,,,,,,,,,1,,,71,0
38352,note_on,0,0,2,,,,,,,,,1,,,69,108
38400,note_on,0,0,2,,,,,,,,,1,,,67,108
38400,note_on,48,0,2,,,,,,,,,1,,,69,0
38416,note_on,160,0,4,,,,,,,,,4,,,67,0
38416,note_on,160,0,5,,,,,,,,,7,,,47,0
38446,note_on,94,0,3,,,,,,,,,6,,,71,0
38448,note_on,32,0,4,,,,,,,,,4,,,67,92
38448,note_on,2,0,3,,,,,,,,,6,,,76,92
38448,note_on,0,0,4,,,,,,,,,4,,,69,92
38448,note_on,32,0,5,,,,,,,,,7,,,48,92
38448,note_on,48,0,2,,,,,,,,,1,,,67,0
38448,note_on,0,0,2,,,,,,,,,1,,,69,108
38542,note_on,94,0,3,,,,,,,,,6,,,76,0
38544,note_on,2,0,3,,,,,,,,,6,,,72,92
38608,note_on,160,0,4,,,,,,,,,4,,,67,0
38608,note_on,0,0,4,,,,,,,,,4,,,69,0
38608,note_on,352,0,1,,,,,,,,,0,,,67,0
38608,note_on,160,0,5,,,,,,,,,7,,,48,0
38638,note_on,94,0,3,,,,,,,,,6,,,72,0
38640,note_on,32,0,5,,,,,,,,,7,,,50,92
38640,note_on,2,0,3,,,,,,,,,6,,,69,92
38640,note_on,32,0,4,,,,,,,,,4,,,67,92
38640,note_on,32,0,1,,,,,,,,,0,,,66,108
38704,note_on,256,0,2,,,,,,,,,1,,,69,0
38734,note_on,94,0,4,,,,,,,,,4,,,67,0
38734,note_on,94,0,3,,,,,,,,,6,,,69,0
38736,note_on,2,0,4,,,,,,,,,4,,,66,92
38736,note_on,2,0,3,,,,,,,,,6,,,74,92
38736,note_on,32,0,2,,,,,,,,,1,,,69,108
38800,note_on,160,0,5,,,,,,,,,7,,,50,0
38800,note_on,160,0,1,,,,,,,,,0,,,66,0
38830,note_on,94,0,3,,,,,,,,,6,,,74,0
38830,note_on,94,0,2,,,,,,,,,1,,,69,0
38830,note_on,94,0,4,,,,,,,,,4,,,66,0
38832,note_on,32,0,5,,,,,,,,,7,,,43,92
38832,note_on,32,0,1,,,,,,,,,0,,,67,108
38832,note_on,2,0,3,,,,,,,,,6,,,71,92
38832,note_on,2,0,2,,,,,,,,,1,,,67,108
38832,note_on,2,0,4,,,,,,,,,4,,,62,92
38926,note_on,94,0,3,,,,,,,,,6,,,71,0
38928,note_on,2,0,3,,,,,,,,,6,,,67,92
38992,note_on,160,0,2,,,,,,,,,1,,,67,0
38992,note_on,160,0,1,,,,,,,,,0,,,67,0
38992,note_on,160,0,5,,,,,,,,,7,,,43,0
39022,note_on,94,0,3,,,,,,,,,6,,,67,0
39024,note_on,2,0,3,,,,,,,,,6,,,71,92
39088,note_on,256,0,4,,,,,,,,,4,,,62,0
39118,note_on,94,0,3,,,,,,,,,6,,,71,0
39120,note_on,128,0,5,,,,,,,,,7,,,59,92
39120,note_on,32,0,4,,,,,,,,,4,,,62,92
39120,note_on,2,0,3,,,,,,,,,6,,,79,92
39214,note_on,94,0,4,,,,,,,,,4,,,62,0
39214,note_on,94,0,5,,,,,,,,,7,,,59,0
39214,note_on,94,0,3,,,,,,,,,6,,,79,0
39216,note_on,2,0,4,,,,,,,,,4,,,64,92
39216,note_on,2,0,5,,,,,,,,,7,,,57,92
39216,note_on,2,0,3,,,,,,,,,6,,,72,92
39310,note_on,94,0,5,,,,,,,,,7,,,57,0
39312,note_on,2,0,5,,,,,,,,,7,,,55,92
39376,note_on,160,0,4,,,,,,,,,4,,,64,0
39406,note_on,94,0,5,,,,,,,,,7,,,55,0
39408,note_on,32,0,4,,,,,,,,,4,,,69,92
39408,note_on,2,0,5,,,,,,,,,7,,,54,92
39454,note_on,238,0,3,,,,,,,,,6,,,72,0
39456,note_on,2,0,3,,,,,,,,,6,,,71,92
39502,note_on,94,0,4,,,,,,,,,4,,,69,0
39502,note_on,94,0,5,,,,,,,,,7,,,54,0
39502,note_on,46,0,3,,,,,,,,,6,,,71,0
39504,note_on,2,0,3,,,,,,,,,6,,,72,92
39504,note_on,2,0,4,,,,,,,,,4,,,66,92
39504,note_on,2,0,5,,,,,,,,,7,,,50,92
39550,note_on,46,0,3,,,,,,,,,6,,,72,0
39552,note_on,2,0,3,,,,,,,,,6,,,74,92
39598,note_on,94,0,4,,,,,,,,,4,,,66,0
39598,note_on,46,0,3,,,,,,,,,6,,,74,0
39598,note_on,94,0,5,,,,,,,,,7,,,50,0
39600,note_on,2,0,3,,,,,,,,,6,,,71,92
39600,note_on,2,0,4,,,,,,,,,4,,,62,92
39600,note_on,2,0,5,,,,,,,,,7,,,43,92
39694,note_on,94,0,5,,,,,,,,,7,,,43,0
39694,note_on,94,0,3,,,,,,,,,6,,,71,0
39696,note_on,2,0,3,,,,,,,,,6,,,67,92
39696,note_on,2,0,5,,,,,,,,,7,,,55,92
39760,note_on,160,0,4,,,,,,,,,4,,,62,0
39790,note_on,94,0,3,,,,,,,,,6,,,67,0
39790,note_on,94,0,5,,,,,,,,,7,,,55,0
39792,note_on,800,0,2,,,,,,,,,1,,,74,75
39792,note_on,2,0,5,,,,,,,,,7,,,43,92
39792,note_on,2,0,3,,,,,,,,,6,,,67,92
39792,note_on,32,0,4,,,,,,,,,4,,,55,92
39792,note_on,0,0,3,,,,,,,,,6,,,71,92
39838,note_on,46,0,3,,,,,,,,,6,,,67,0
39838,note_on,0,0,3,,,,,,,,,6,,,71,0
39840,note_on,0,0,3,,,,,,,,,6,,,72,92
39840,note_on,2,0,3,,,,,,,,,6,,,69,92
39886,note_on,46,0,3,,,,,,,,,6,,,69,0
39886,note_on,0,0,3,,,,,,,,,6,,,72,0
39888,note_on,2,0,3,,,,,,,,,6,,,71,75
39888,note_on,0,0,3,,,,,,,,,6,,,74,75
39934,note_on,46,0,3,,,,,,,,,6,,,71,0
39934,note_on,0,0,3,,,,,,,,,6,,,74,0
39936,note_on,2,0,3,,,,,,,,,6,,,67,75
39936,note_on,0,0,3,,,,,,,,,6,,,71,75
39952,note_on,160,0,5,,,,,,,,,7,,,43,0
39952,note_on,160,0,4,,,,,,,,,4,,,55,0
39982,note_on,46,0,3,,,,,,,,,6,,,67,0
39982,note_on,0,0,3,,,,,,,,,6,,,71,0
39984,note_on,32,0,5,,,,,,,,,7,,,55,75
39984,note_on,992,0,1,,,,,,,,,0,,,76,75
39984,note_on,32,0,4,,,,,,,,,4,,,71,75
39984,note_on,2,0,3,,,,,,,,,6,,,76,75
40078,note_on,94,0,3,,,,,,,,,6,,,76,0
40078,note_on,286,0,2,,,,,,,,,1,,,74,0
40080,note_on,2,0,2,,,,,,,,,1,,,72,75
40080,note_on,2,0,3,,,,,,,,,6,,,74,75
40126,note_on,46,0,2,,,,,,,,,1,,,72,0
40128,note_on,2,0,2,,,,,,,,,1,,,71,75
40144,note_on,160,0,4,,,,,,,,,4,,,71,0
40144,note_on,160,0,5,,,,,,,,,7,,,55,0
40174,note_on,94,0,3,,,,,,,,,6,,,74,0
40174,note_on,46,0,2,,,,,,,,,1,,,71,0
40176,note_on,32,0,4,,,,,,,,,4,,,69,75
40176,note_on,32,0,5,,,,,,,,,7,,,57,75
40176,note_on,2,0,2,,,,,,,,,1,,,72,75
40176,note_on,2,0,3,,,,,,,,,6,,,72,75
40222,note_on,46,0,3,,,,,,,,,6,,,72,0
40224,note_on,2,0,3,,,,,,,,,6,,,74,75
40240,note_on,256,0,1,,,,,,,,,0,,,76,0
40270,note_on,46,0,3,,,,,,,,,6,,,74,0
40272,note_on,2,0,3,,,,,,,,,6,,,76,75
40272,note_on,32,0,1,,,,,,,,,0,,,74,75
40318,note_on,46,0,3,,,,,,,,,6,,,76,0
40318,note_on,46,0,1,,,,,,,,,0,,,74,0
40320,note_on,2,0,1,,,,,,,,,0,,,72,75
40320,note_on,2,0,3,,,,,,,,,6,,,72,75
40336,note_on,160,0,4,,,,,,,,,4,,,69,0
40336,note_on,160,0,5,,,,,,,,,7,,,57,0
40366,note_on,46,0,3,,,,,,,,,6,,,72,0
40366,note_on,46,0,1,,,,,,,,,0,,,72,0
40368,note_on,32,0,5,,,,,,,,,7,,,54,75
40368,note_on,2,0,3,,,,,,,,,6,,,74,75
40368,note_on,2,0,1,,,,,,,,,0,,,74,75
40368,note_on,32,0,4,,,,,,,,,4,,,69,75
40462,note_on,94,0,3,,,,,,,,,6,,,74,0
40464,note_on,2,0,3,,,,,,,,,6,,,72,75
40464,note_on,0,0,2,,,,,,,,,1,,,71,75
40464,note_on,288,0,2,,,,,,,,,1,,,72,0
40512,note_on,48,0,2,,,,,,,,,1,,,71,0
40512,note_on,0,0,2,,,,,,,,,1,,,69,75
40528,note_on,160,0,4,,,,,,,,,4,,,69,0
40528,note_on,160,0,5,,,,,,,,,7,,,54,0
40558,note_on,94,0,3,,,,,,,,,6,,,72,0
40560,note_on,48,0,2,,,,,,,,,1,,,69,0
40560,note_on,2,0,3,,,,,,,,,6,,,71,75
40560,note_on,0,0,2,,,,,,,,,1,,,71,75
40560,note_on,32,0,5,,,,,,,,,7,,,55,75
40560,note_on,32,0,4,,,,,,,,,4,,,67,75
40606,note_on,46,0,3,,,,,,,,,6,,,71,0
40608,note_on,2,0,3,,,,,,,,,6,,,74,75
40654,note_on,46,0,3,,,,,,,,,6,,,74,0
40656,note_on,0,0,1,,,,,,,,,0,,,72,75
40656,note_on,288,0,1,,,,,,,,,0,,,74,0
40656,note_on,2,0,3,,,,,,,,,6,,,72,75
40702,note_on,46,0,3,,,,,,,,,6,,,72,0
40704,note_on,0,0,1,,,,,,,,,0,,,71,75
40704,note_on,48,0,1,,,,,,,,,0,,,72,0
40704,note_on,2,0,3,,,,,,,,,6,,,71,75
40720,note_on,160,0,4,,,,,,,,,4,,,67,0
40720,note_on,160,0,5,,,,,,,,,7,,,55,0
40750,note_on,46,0,3,,,,,,,,,6,,,71,0
40752,note_on,32,0,4,,,,,,,,,4,,,71,92
40752,note_on,0,0,1,,,,,,,,,0,,,72,92
40752,note_on,48,0,1,,,,,,,,,0,,,71,0
40752,note_on,32,0,5,,,,,,,,,7,,,57,92
40752,note_on,2,0,3,,,,,,,,,6,,,72,92
40846,note_on,94,0,4,,,,,,,,,4,,,71,0
40848,note_on,0,0,2,,,,,,,,,1,,,69,92
40848,note_on,288,0,2,,,,,,,,,1,,,71,0
40848,note_on,2,0,4,,,,,,,,,4,,,64,92
40896,note_on,0,0,2,,,,,,,,,1,,,67,92
40896,note_on,48,0,2,,,,,,,,,1,,,69,0
40912,note_on,160,0,5,,,,,,,,,7,,,57,0
40942,note_on,94,0,4,,,,,,,,,4,,,64,0
40944,note_on,0,0,2,,,,,,,,,1,,,69,92
40944,note_on,2,0,4,,,,,,,,,4,,,69,92
40944,note_on,32,0,5,,,,,,,,,7,,,54,92
40944,note_on,48,0,2,,,,,,,,,1,,,67,0
40990,note_on,238,0,3,,,,,,,,,6,,,72,0
40992,note_on,2,0,3,,,,,,,,,6,,,76,92
41038,note_on,46,0,3,,,,,,,,,6,,,76,0
41040,note_on,2,0,3,,,,,,,,,6,,,74,92
41040,note_on,288,0,1,,,,,,,,,0,,,72,0
41040,note_on,0,0,1,,,,,,,,,0,,,71,92
41086,note_on,46,0,3,,,,,,,,,6,,,74,0
41088,note_on,48,0,1,,,,,,,,,0,,,71,0
41088,note_on,0,0,1,,,,,,,,,0,,,69,92
41088,note_on,2,0,3,,,,,,,,,6,,,72,92
41104,note_on,160,0,5,,,,,,,,,7,,,54,0
41134,note_on,46,0,3,,,,,,,,,6,,,72,0
41136,note_on,48,0,1,,,,,,,,,0,,,69,0
41136,set_tempo,40368,1,0,625000,,,,,,,,,,,,
41136,note_on,0,0,1,,,,,,,,,0,,,71,92
41136,note_on,32,0,5,,,,,,,,,7,,,55,92
41136,note_on,2,0,3,,,,,,,,,6,,,71,92
41232,note_on,288,0,2,,,,,,,,,1,,,69,0
41232,note_on,0,0,2,,,,,,,,,1,,,67,92
41278,note_on,142,0,3,,,,,,,,,6,,,71,0
41280,note_on,2,0,3,,,,,,,,,6,,,72,92
41280,note_on,48,0,2,,,,,,,,,1,,,67,0
41280,note_on,0,0,2,,,,,,,,,1,,,66,92
41296,note_on,352,0,4,,,,,,,,,4,,,69,0
41296,note_on,160,0,5,,,,,,,,,7,,,55,0
41326,note_on,46,0,3,,,,,,,,,6,,,72,0
41328,note_on,32,0,4,,,,,,,,,4,,,67,92
41328,note_on,0,0,2,,,,,,,,,1,,,67,92
41328,note_on,48,0,2,,,,,,,,,1,,,66,0
41328,note_on,2,0,3,,,,,,,,,6,,,74,92
41328,note_on,32,0,5,,,,,,,,,7,,,47,92
41422,note_on,94,0,3,,,,,,,,,6,,,74,0
41424,note_on,0,0,1,,,,,,,,,0,,,69,92
41424,note_on,2,0,3,,,,,,,,,6,,,71,92
41424,note_on,288,0,1,,,,,,,,,0,,,71,0
41472,note_on,48,0,1,,,,,,,,,0,,,69,0
41472,note_on,0,0,1,,,,,,,,,0,,,67,92
41488,note_on,160,0,4,,,,,,,,,4,,,67,0
41488,note_on,160,0,5,,,,,,,,,7,,,47,0
41518,note_on,94,0,3,,,,,,,,,6,,,71,0
41520,note_on,2,0,3,,,,,,,,,6,,,76,92
41520,note_on,48,0,1,,,,,,,,,0,,,67,0
41520,note_on,0,0,1,,,,,,,,,0,,,69,108
41520,note_on,32,0,4,,,,,,,,,4,,,67,92
41520,note_on,0,0,4,,,,,,,,,4,,,69,92
41520,note_on,32,0,5,,,,,,,,,7,,,48,92
41520,set_tempo,384,1,0,652173,,,,,,,,,,,,
41614,note_on,94,0,3,,,,,,,,,6,,,76,0
41616,note_on,2,0,3,,,,,,,,,6,,,72,92
41680,note_on,160,0,4,,,,,,,,,4,,,67,0
41680,note_on,0,0,4,,,,,,,,,4,,,69,0
41680,note_on,160,0,5,,,,,,,,,7,,,48,0
41710,note_on,94,0,3,,,,,,,,,6,,,72,0
41712,note_on,32,0,5,,,,,,,,,7,,,50,92
41712,set_tempo,192,1,0,714285,,,,,,,,,,,,
41712,note_on,2,0,3,,,,,,,,,6,,,69,92
41712,note_on,32,0,4,,,,,,,,,4,,,67,92
41758,note_on,430,0,2,,,,,,,,,1,,,67,0
41760,note_on,2,0,2,,,,,,,,,1,,,66,108
41776,note_on,256,0,1,,,,,,,,,0,,,69,0
41784,note_on,24,0,2,,,,,,,,,1,,,66,0
41784,note_on,0,0,2,,,,,,,,,1,,,67,108
41806,note_on,94,0,4,,,,,,,,,4,,,67,0
41806,note_on,94,0,3,,,,,,,,,6,,,69,0
41808,note_on,2,0,3,,,,,,,,,6,,,74,92
41808,note_on,24,0,2,,,,,,,,,1,,,67,0
41808,note_on,32,0,1,,,,,,,,,0,,,69,108
41808,note_on,0,0,2,,,,,,,,,1,,,66,108
41808,note_on,2,0,4,,,,,,,,,4,,,66,92
41872,note_on,160,0,5,,,,,,,,,7,,,50,0
41902,note_on,94,0,3,,,,,,,,,6,,,74,0
41902,note_on,94,0,2,,,,,,,,,1,,,66,0
41902,note_on,94,0,1,,,,,,,,,0,,,69,0
41902,note_on,94,0,4,,,,,,,,,4,,,66,0
41904,note_on,0,0,4,,,,,,,,,4,,,67,92
41904,set_tempo,192,1,0,833333,,,,,,,,,,,,
41904,note_on,2,0,3,,,,,,,,,6,,,71,92
41904,note_on,2,0,4,,,,,,,,,4,,,62,92
41904,note_on,32,0,5,,,,,,,,,7,,,43,92
41904,note_on,2,0,1,,,,,,,,,0,,,67,108
41904,note_on,2,0,2,,,,,,,,,1,,,67,108
42064,note_on,160,0,3,,,,,,,,,6,,,71,0
42064,note_on,160,0,4,,,,,,,,,4,,,62,0
42064,note_on,0,0,4,,,,,,,,,4,,,67,0
42064,note_on,160,0,5,,,,,,,,,7,,,43,0
42240,note_on,176,0,3,,,,,,,,,6,,,67,108
42240,note_on,336,0,1,,,,,,,,,0,,,67,0
42240,end_of_track,0,1,2,,,,,,,,,,,,,
42240,set_tempo,336,1,0,600000,,,,,,,,,,,,
42240,end_of_track,0,1,1,,,,,,,,,,,,,
42240,note_on,336,0,2,,,,,,,,,1,,,67,0
42286,note_on,46,0,3,,,,,,,,,6,,,67,0
42288,note_on,224,0,4,,,,,,,,,4,,,62,108
42288,note_on,224,0,5,,,,,,,,,7,,,55,108
42288,note_on,2,0,3,,,,,,,,,6,,,71,108
42448,note_on,160,0,3,,,,,,,,,6,,,71,0
42448,note_on,160,0,5,,,,,,,,,7,,,55,0
42448,note_on,160,0,4,,,,,,,,,4,,,62,0
42480,note_on,32,0,4,,,,,,,,,4,,,64,108
42480,note_on,32,0,5,,,,,,,,,7,,,48,108
42480,note_on,32,0,3,,,,,,,,,6,,,72,108
42640,note_on,160,0,3,,,,,,,,,6,,,72,0
42640,note_on,160,0,4,,,,,,,,,4,,,64,0
42640,note_on,160,0,5,,,,,,,,,7,,,48,0
42672,note_on,32,0,3,,,,,,,,,6,,,74,108
42672,note_on,32,0,5,,,,,,,,,7,,,43,108
42672,note_on,32,0,4,,,,,,,,,4,,,67,108
42832,note_on,160,0,3,,,,,,,,,6,,,74,0
42832,note_on,160,0,4,,,,,,,,,4,,,67,0
42832,note_on,160,0,5,,,,,,,,,7,,,43,0
42960,note_on,128,0,3,,,,,,,,,6,,,76,108
42960,note_on,128,0,4,,,,,,,,,4,,,76,108
43006,note_on,46,0,4,,,,,,,,,4,,,76,0
43006,note_on,46,0,3,,,,,,,,,6,,,76,0
43008,note_on,2,0,4,,,,,,,,,4,,,78,108
43008,note_on,2,0,3,,,,,,,,,6,,,78,108
43054,note_on,46,0,4,,,,,,,,,4,,,78,0
43054,note_on,46,0,3,,,,,,,,,6,,,78,0
43056,note_on,2,0,4,,,,,,,,,4,,,71,108
43056,note_on,2,0,3,,,,,,,,,6,,,79,108
43056,note_on,224,0,5,,,,,,,,,7,,,55,108
43150,note_on,94,0,3,,,,,,,,,6,,,79,0
43152,note_on,2,0,3,,,,,,,,,6,,,78,108
43198,note_on,46,0,3,,,,,,,,,6,,,78,0
43200,note_on,2,0,3,,,,,,,,,6,,,76,108
43216,note_on,160,0,4,,,,,,,,,4,,,71,0
43216,note_on,160,0,5,,,,,,,,,7,,,55,0
43246,note_on,46,0,3,,,,,,,,,6,,,76,0
43248,note_on,2,0,3,,,,,,,,,6,,,74,108
43248,note_on,32,0,5,,,,,,,,,7,,,54,108
43248,note_on,32,0,4,,,,,,,,,4,,,69,108
43342,note_on,94,0,3,,,,,,,,,6,,,74,0
43344,note_on,2,0,3,,,,,,,,,6,,,72,108
43408,note_on,160,0,5,,,,,,,,,7,,,54,0
43408,note_on,160,0,4,,,,,,,,,4,,,69,0
43438,note_on,94,0,3,,,,,,,,,6,,,72,0
43440,note_on,2,0,3,,,,,,,,,6,,,71,108
43440,note_on,32,0,4,,,,,,,,,4,,,62,108
43440,note_on,32,0,5,,,,,,,,,7,,,55,108
43534,note_on,94,0,3,,,,,,,,,6,,,71,0
43536,note_on,2,0,3,,,,,,,,,6,,,69,108
43582,note_on,46,0,3,,,,,,,,,6,,,69,0
43584,note_on,2,0,3,,,,,,,,,6,,,67,108
43600,note_on,160,0,4,,,,,,,,,4,,,62,0
43600,note_on,160,0,5,,,,,,,,,7,,,55,0
43630,note_on,46,0,3,,,,,,,,,6,,,67,0
43632,note_on,32,0,4,,,,,,,,,4,,,66,108
43632,note_on,2,0,3,,,,,,,,,6,,,66,108
43632,note_on,32,0,5,,,,,,,,,7,,,54,108
43726,note_on,94,0,5,,,,,,,,,7,,,54,0
43726,note_on,94,0,4,,,,,,,,,4,,,66,0
43726,note_on,94,0,3,,,,,,,,,6,,,66,0
43728,note_on,2,0,3,,,,,,,,,6,,,64,108
43728,note_on,2,0,4,,,,,,,,,4,,,64,108
43728,note_on,2,0,5,,,,,,,,,7,,,52,108
43822,note_on,94,0,3,,,,,,,,,6,,,64,0
43822,note_on,94,0,4,,,,,,,,,4,,,64,0
43822,note_on,94,0,5,,,,,,,,,7,,,52,0
43824,note_on,2,0,5,,,,,,,,,7,,,50,108
43824,note_on,2,0,3,,,,,,,,,6,,,62,108
43824,note_on,2,0,4,,,,,,,,,4,,,62,108
43918,note_on,94,0,5,,,,,,,,,7,,,50,0
43918,note_on,94,0,4,,,,,,,,,4,,,62,0
43918,note_on,94,0,3,,,,,,,,,6,,,62,0
43920,note_on,2,0,4,,,,,,,,,4,,,60,108
43920,note_on,2,0,5,,,,,,,,,7,,,48,108
43920,note_on,2,0,3,,,,,,,,,6,,,60,108
43966,note_on,46,0,5,,,,,,,,,7,,,48,0
43966,note_on,46,0,3,,,,,,,,,6,,,60,0
43966,note_on,46,0,4,,,,,,,,,4,,,60,0
43968,note_on,2,0,4,,,,,,,,,4,,,59,108
43968,note_on,2,0,5,,,,,,,,,7,,,47,108
43968,note_on,2,0,3,,,,,,,,,6,,,59,108
44014,note_on,46,0,5,,,,,,,,,7,,,47,0
44014,note_on,46,0,3,,,,,,,,,6,,,59,0
44014,note_on,46,0,4,,,,,,,,,4,,,59,0
44016,note_on,2,0,4,,,,,,,,,4,,,57,108
44016,note_on,2,0,5,,,,,,,,,7,,,45,108
44016,note_on,2,0,3,,,,,,,,,6,,,57,108
44110,note_on,94,0,5,,,,,,,,,7,,,45,0
44110,note_on,94,0,4,,,,,,,,,4,,,57,0
44110,note_on,94,0,3,,,,,,,,,6,,,57,0
44112,note_on,2,0,3,,,,,,,,,6,,,55,108
44112,note_on,2,0,4,,,,,,,,,4,,,55,108
44112,note_on,2,0,5,,,,,,,,,7,,,43,108
44206,note_on,94,0,3,,,,,,,,,6,,,55,0
44206,note_on,94,0,5,,,,,,,,,7,,,43,0
44206,note_on,94,0,4,,,,,,,,,4,,,55,0
44208,note_on,2,0,3,,,,,,,,,6,,,62,108
44208,note_on,2,0,5,,,,,,,,,7,,,50,108
44208,note_on,2,0,4,,,,,,,,,4,,,62,108
44368,note_on,160,0,3,,,,,,,,,6,,,62,0
44368,note_on,160,0,4,,,,,,,,,4,,,62,0
44368,note_on,160,0,5,,,,,,,,,7,,,50,0
44400,note_on,0,0,4,,,,,,,,,4,,,69,108
44400,note_on,32,0,5,,,,,,,,,7,,,50,108
44400,note_on,32,0,4,,,,,,,,,4,,,66,108
44494,note_on,0,0,4,,,,,,,,,4,,,69,0
44494,note_on,94,0,5,,,,,,,,,7,,,50,0
44494,note_on,94,0,4,,,,,,,,,4,,,66,0
44496,note_on,2,0,4,,,,,,,,,4,,,66,108
44496,note_on,0,0,4,,,,,,,,,4,,,69,108
44496,note_on,2,0,5,,,,,,,,,7,,,48,108
44496,note_on,128,0,3,,,,,,,,,6,,,74,108
44590,note_on,0,0,4,,,,,,,,,4,,,69,0
44590,note_on,94,0,4,,,,,,,,,4,,,66,0
44590,note_on,94,0,3,,,,,,,,,6,,,74,0
44590,note_on,94,0,5,,,,,,,,,7,,,48,0
44592,note_on,2,0,3,,,,,,,,,6,,,65,108
44592,note_on,2,0,4,,,,,,,,,4,,,62,108
44592,note_on,2,0,5,,,,,,,,,7,,,47,108
44686,note_on,94,0,4,,,,,,,,,4,,,62,0
44686,note_on,94,0,5,,,,,,,,,7,,,47,0
44688,note_on,2,0,4,,,,,,,,,4,,,60,108
44688,note_on,2,0,5,,,,,,,,,7,,,45,108
44782,note_on,94,0,4,,,,,,,,,4,,,60,0
44782,note_on,94,0,5,,,,,,,,,7,,,45,0
44784,note_on,2,0,4,,,,,,,,,4,,,62,108
44784,note_on,2,0,5,,,,,,,,,7,,,47,108
44830,note_on,238,0,3,,,,,,,,,6,,,65,0
44832,note_on,2,0,3,,,,,,,,,6,,,64,108
44878,note_on,94,0,4,,,,,,,,,4,,,62,0
44878,note_on,94,0,5,,,,,,,,,7,,,47,0
44878,note_on,46,0,3,,,,,,,,,6,,,64,0
44880,note_on,2,0,4,,,,,,,,,4,,,59,108
44880,note_on,2,0,5,,,,,,,,,7,,,43,108
44880,note_on,2,0,3,,,,,,,,,6,,,65,108
44926,note_on,46,0,3,,,,,,,,,6,,,65,0
44928,note_on,2,0,3,,,,,,,,,6,,,67,108
44974,note_on,46,0,3,,,,,,,,,6,,,67,0
44974,note_on,94,0,4,,,,,,,,,4,,,59,0
44974,note_on,94,0,5,,,,,,,,,7,,,43,0
44976,note_on,2,0,5,,,,,,,,,7,,,48,108
44976,note_on,2,0,3,,,,,,,,,6,,,64,108
44976,note_on,2,0,4,,,,,,,,,4,,,55,108
45070,note_on,94,0,3,,,,,,,,,6,,,64,0
45072,note_on,2,0,3,,,,,,,,,6,,,60,108
45166,note_on,94,0,3,,,,,,,,,6,,,60,0
45168,note_on,2,0,3,,,,,,,,,6,,,64,108
45232,note_on,256,0,4,,,,,,,,,4,,,55,0
45262,note_on,94,0,3,,,,,,,,,6,,,64,0
45264,note_on,2,0,3,,,,,,,,,6,,,76,108
45264,note_on,32,0,4,,,,,,,,,4,,,67,108
45312,note_on,336,0,5,,,,,,,,,7,,,48,0
45358,note_on,94,0,3,,,,,,,,,6,,,76,0
45358,note_on,94,0,4,,,,,,,,,4,,,67,0
45360,note_on,2,0,3,,,,,,,,,6,,,67,108
45360,note_on,48,0,5,,,,,,,,,7,,,49,108
45360,note_on,2,0,4,,,,,,,,,4,,,64,108
45454,note_on,94,0,5,,,,,,,,,7,,,49,0
45454,note_on,94,0,4,,,,,,,,,4,,,64,0
45456,note_on,2,0,4,,,,,,,,,4,,,62,108
45456,note_on,2,0,5,,,,,,,,,7,,,47,108
45550,note_on,94,0,4,,,,,,,,,4,,,62,0
45550,note_on,94,0,5,,,,,,,,,7,,,47,0
45552,note_on,2,0,5,,,,,,,,,7,,,49,108
45552,note_on,2,0,4,,,,,,,,,4,,,64,108
45598,note_on,238,0,3,,,,,,,,,6,,,67,0
45600,note_on,2,0,3,,,,,,,,,6,,,66,108
45646,note_on,94,0,5,,,,,,,,,7,,,49,0
45646,note_on,94,0,4,,,,,,,,,4,,,64,0
45646,note_on,46,0,3,,,,,,,,,6,,,66,0
45648,note_on,2,0,5,,,,,,,,,7,,,45,108
45648,note_on,2,0,4,,,,,,,,,4,,,61,108
45648,note_on,2,0,3,,,,,,,,,6,,,67,108
45694,note_on,46,0,3,,,,,,,,,6,,,67,0
45696,note_on,2,0,3,,,,,,,,,6,,,69,108
45742,note_on,46,0,3,,,,,,,,,6,,,69,0
45742,note_on,94,0,5,,,,,,,,,7,,,45,0
45742,note_on,94,0,4,,,,,,,,,4,,,61,0
45744,note_on,2,0,4,,,,,,,,,4,,,57,108
45744,note_on,2,0,3,,,,,,,,,6,,,66,108
45744,note_on,2,0,5,,,,,,,,,7,,,50,108
45838,note_on,94,0,3,,,,,,,,,6,,,66,0
45840,note_on,2,0,3,,,,,,,,,6,,,62,108
45934,note_on,94,0,3,,,,,,,,,6,,,62,0
45936,note_on,2,0,3,,,,,,,,,6,,,66,108
46000,note_on,256,0,4,,,,,,,,,4,,,57,0
46030,note_on,94,0,3,,,,,,,,,6,,,66,0
46032,note_on,2,0,3,,,,,,,,,6,,,81,108
46032,note_on,32,0,4,,,,,,,,,4,,,66,108
46080,note_on,336,0,5,,,,,,,,,7,,,50,0
46126,note_on,94,0,4,,,,,,,,,4,,,66,0
46126,note_on,94,0,3,,,,,,,,,6,,,81,0
46128,note_on,2,0,4,,,,,,,,,4,,,64,108
46128,note_on,2,0,3,,,,,,,,,6,,,72,108
46128,note_on,48,0,5,,,,,,,,,7,,,57,108
46222,note_on,94,0,5,,,,,,,,,7,,,57,0
46224,note_on,2,0,5,,,,,,,,,7,,,55,108
46288,note_on,160,0,4,,,,,,,,,4,,,64,0
46318,note_on,94,0,5,,,,,,,,,7,,,55,0
46320,note_on,32,0,4,,,,,,,,,4,,,69,108
46320,note_on,2,0,5,,,,,,,,,7,,,54,108
46366,note_on,238,0,3,,,,,,,,,6,,,72,0
46368,note_on,2,0,3,,,,,,,,,6,,,71,108
46414,note_on,94,0,5,,,,,,,,,7,,,54,0
46414,note_on,94,0,4,,,,,,,,,4,,,69,0
46414,note_on,46,0,3,,,,,,,,,6,,,71,0
46416,note_on,2,0,4,,,,,,,,,4,,,66,108
46416,note_on,2,0,3,,,,,,,,,6,,,72,108
46416,note_on,2,0,5,,,,,,,,,7,,,50,108
46462,note_on,46,0,3,,,,,,,,,6,,,72,0
46464,note_on,2,0,3,,,,,,,,,6,,,74,108
46510,note_on,46,0,3,,,,,,,,,6,,,74,0
46510,note_on,94,0,4,,,,,,,,,4,,,66,0
46510,note_on,94,0,5,,,,,,,,,7,,,50,0
46512,note_on,2,0,4,,,,,,,,,4,,,62,108
46512,note_on,2,0,3,,,,,,,,,6,,,71,108
46512,note_on,2,0,5,,,,,,,,,7,,,55,108
46606,note_on,94,0,3,,,,,,,,,6,,,71,0
46606,note_on,94,0,5,,,,,,,,,7,,,55,0
46608,note_on,2,0,3,,,,,,,,,6,,,79,108
46608,note_on,2,0,5,,,,,,,,,7,,,53,108
46672,note_on,160,0,4,,,,,,,,,4,,,62,0
46702,note_on,94,0,3,,,,,,,,,6,,,79,0
46702,note_on,94,0,5,,,,,,,,,7,,,53,0
46704,note_on,32,0,4,,,,,,,,,4,,,67,108
46704,note_on,2,0,3,,,,,,,,,6,,,70,108
46704,note_on,2,0,5,,,,,,,,,7,,,52,108
46798,note_on,94,0,5,,,,,,,,,7,,,52,0
46798,note_on,94,0,4,,,,,,,,,4,,,67,0
46800,note_on,2,0,4,,,,,,,,,4,,,64,108
46800,note_on,2,0,5,,,,,,,,,7,,,48,108
46864,note_on,160,0,3,,,,,,,,,6,,,70,0
46894,note_on,94,0,5,,,,,,,,,7,,,48,0
46894,note_on,94,0,4,,,,,,,,,4,,,64,0
46896,note_on,2,0,5,,,,,,,,,7,,,53,108
46896,note_on,2,0,4,,,,,,,,,4,,,60,108
46896,note_on,32,0,3,,,,,,,,,6,,,69,108
46990,note_on,94,0,5,,,,,,,,,7,,,53,0
46990,note_on,94,0,3,,,,,,,,,6,,,69,0
46992,note_on,2,0,5,,,,,,,,,7,,,51,108
46992,note_on,2,0,3,,,,,,,,,6,,,77,108
47056,note_on,160,0,4,,,,,,,,,4,,,60,0
47086,note_on,94,0,3,,,,,,,,,6,,,77,0
47086,note_on,94,0,5,,,,,,,,,7,,,51,0
47088,note_on,2,0,3,,,,,,,,,6,,,68,108
47088,note_on,32,0,4,,,,,,,,,4,,,65,108
47088,note_on,2,0,5,,,,,,,,,7,,,50,108
47182,note_on,94,0,4,,,,,,,,,4,,,65,0
47182,note_on,94,0,5,,,,,,,,,7,,,50,0
47184,note_on,2,0,4,,,,,,,,,4,,,62,108
47184,note_on,2,0,5,,,,,,,,,7,,,46,108
47248,note_on,160,0,3,,,,,,,,,6,,,68,0
47278,note_on,94,0,4,,,,,,,,,4,,,62,0
47278,note_on,94,0,5,,,,,,,,,7,,,46,0
47280,note_on,32,0,3,,,,,,,,,6,,,67,108
47280,note_on,2,0,4,,,,,,,,,4,,,58,108
47280,note_on,2,0,5,,,,,,,,,7,,,51,108
47374,note_on,94,0,5,,,,,,,,,7,,,51,0
47374,note_on,94,0,3,,,,,,,,,6,,,67,0
47376,note_on,2,0,5,,,,,,,,,7,,,50,108
47376,note_on,2,0,3,,,,,,,,,6,,,75,108
47440,note_on,160,0,4,,,,,,,,,4,,,58,0
47470,note_on,94,0,3,,,,,,,,,6,,,75,0
47470,note_on,94,0,5,,,,,,,,,7,,,50,0
47472,note_on,32,0,4,,,,,,,,,4,,,64,108
47472,note_on,2,0,3,,,,,,,,,6,,,67,108
47472,note_on,2,0,5,,,,,,,,,7,,,49,108
47566,note_on,94,0,4,,,,,,,,,4,,,64,0
47566,note_on,94,0,5,,,,,,,,,7,,,49,0
47568,note_on,2,0,4,,,,,,,,,4,,,61,108
47568,note_on,2,0,5,,,,,,,,,7,,,45,108
47632,note_on,160,0,3,,,,,,,,,6,,,67,0
47662,note_on,94,0,4,,,,,,,,,4,,,61,0
47662,note_on,94,0,5,,,,,,,,,7,,,45,0
47664,set_tempo,5424,1,0,625000,,,,,,,,,,,,
47664,note_on,2,0,4,,,,,,,,,4,,,57,108
47664,note_on,32,0,3,,,,,,,,,6,,,66,108
47664,note_on,2,0,5,,,,,,,,,7,,,50,108
47710,note_on,46,0,3,,,,,,,,,6,,,66,0
47712,note_on,2,0,3,,,,,,,,,6,,,67,108
47758,note_on,46,0,3,,,,,,,,,6,,,67,0
47760,note_on,2,0,3,,,,,,,,,6,,,69,108
47806,note_on,46,0,3,,,,,,,,,6,,,69,0
47808,note_on,2,0,3,,,,,,,,,6,,,71,108
47854,note_on,46,0,3,,,,,,,,,6,,,71,0
47856,note_on,2,0,3,,,,,,,,,6,,,72,108
47856,set_tempo,192,1,0,652173,,,,,,,,,,,,
47920,note_on,256,0,5,,,,,,,,,7,,,50,0
47920,note_on,256,0,4,,,,,,,,,4,,,57,0
47950,note_on,94,0,3,,,,,,,,,6,,,72,0
47952,note_on,2,0,3,,,,,,,,,6,,,74,108
47952,note_on,32,0,5,,,,,,,,,7,,,54,108
47952,note_on,32,0,4,,,,,,,,,4,,,69,108
48046,note_on,94,0,3,,,,,,,,,6,,,74,0
48046,note_on,94,0,5,,,,,,,,,7,,,54,0
48046,note_on,94,0,4,,,,,,,,,4,,,69,0
48048,set_tempo,192,1,0,681818,,,,,,,,,,,,
48048,note_on,2,0,4,,,,,,,,,4,,,62,108
48048,note_on,2,0,3,,,,,,,,,6,,,71,108
48048,note_on,2,0,5,,,,,,,,,7,,,55,108
48142,note_on,94,0,4,,,,,,,,,4,,,62,0
48142,note_on,94,0,5,,,,,,,,,7,,,55,0
48142,note_on,94,0,3,,,,,,,,,6,,,71,0
48144,note_on,2,0,3,,,,,,,,,6,,,79,108
48144,note_on,2,0,4,,,,,,,,,4,,,74,108
48144,note_on,2,0,5,,,,,,,,,7,,,47,108
48190,note_on,46,0,4,,,,,,,,,4,,,74,0
48190,note_on,46,0,5,,,,,,,,,7,,,47,0
48192,note_on,2,0,5,,,,,,,,,7,,,48,108
48192,note_on,2,0,4,,,,,,,,,4,,,76,108
48238,note_on,46,0,4,,,,,,,,,4,,,76,0
48238,note_on,94,0,3,,,,,,,,,6,,,79,0
48238,note_on,46,0,5,,,,,,,,,7,,,48,0
48240,set_tempo,192,1,0,714285,,,,,,,,,,,,
48240,note_on,2,0,4,,,,,,,,,4,,,67,108
48240,note_on,2,0,5,,,,,,,,,7,,,50,108
48240,note_on,2,0,3,,,,,,,,,6,,,69,108
48334,note_on,94,0,3,,,,,,,,,6,,,69,0
48334,note_on,94,0,4,,,,,,,,,4,,,67,0
48334,note_on,94,0,5,,,,,,,,,7,,,50,0
48336,note_on,2,0,3,,,,,,,,,6,,,78,108
48336,note_on,2,0,4,,,,,,,,,4,,,69,108
48336,set_tempo,96,1,0,833333,,,,,,,,,,,,
48336,note_on,2,0,5,,,,,,,,,7,,,38,108
48430,note_on,94,0,5,,,,,,,,,7,,,38,0
48430,note_on,94,0,3,,,,,,,,,6,,,78,0
48430,note_on,94,0,4,,,,,,,,,4,,,69,0
48432,note_on,2,0,5,,,,,,,,,7,,,43,108
48432,set_tempo,96,1,0,1000000,,,,,,,,,,,,
48432,end_of_track,0,1,0,,,,,,,,,,,,,
48432,note_on,2,0,3,,,,,,,,,6,,,79,108
48432,note_on,2,0,4,,,,,,,,,4,,,71,108
48768,end_of_track,0,1,4,,,,,,,,,,,,,
48768,note_on,336,0,5,,,,,,,,,7,,,43,0
48768,end_of_track,0,1,3,,,,,,,,,,,,,
48768,note_on,336,0,3,,,,,,,,,6,,,79,0
48768,end_of_track,0,1,5,,,,,,,,,,,,,
48768,note_on,336,0,4,,,,,,,,,4,,,71,0
