tick,type,time,meta,track,tempo,key,numerator,denominator,clocks_per_click,notated_32nd_notes_per_beat,port,program,channel,control,value,note,velocity
0,track_name,0,1,0,,,,,,,,,,,,,
0,end_of_track,0,1,5,,,,,,,,,,,,,
0,midi_port,0,1,6,,,,,,,0,,,,,,
0,track_name,0,1,6,,,,,,,,,,,,,
0,program_change,0,0,6,,,,,,,,68,5,,,,
0,control_change,0,0,6,,,,,,,,,5,7,96,,
0,control_change,0,0,6,,,,,,,,,5,10,64,,
0,control_change,0,0,5,,,,,,,,,4,10,64,,
0,end_of_track,0,1,6,,,,,,,,,,,,,
0,track_name,0,1,7,,,,,,,,,,,,,
0,program_change,0,0,7,,,,,,,,40,6,,,,
0,control_change,0,0,7,,,,,,,,,6,7,96,,
0,control_change,0,0,7,,,,,,,,,6,10,64,,
0,midi_port,0,1,8,,,,,,,0,,,,,,
0,track_name,0,1,8,,,,,,,,,,,,,
0,midi_port,0,1,7,,,,,,,0,,,,,,
0,program_change,0,0,8,,,,,,,,43,7,,,,
0,control_change,0,0,15,,,,,,,,,14,10,64,,
0,track_name,0,1,5,,,,,,,,,,,,,
0,program_change,0,0,2,,,,,,,,48,1,,,,
0,control_change,0,0,2,,,,,,,,,1,7,127,,
0,control_change,0,0,2,,,,,,,,,1,10,64,,
0,midi_port,0,1,3,,,,,,,0,,,,,,
0,track_name,0,1,3,,,,,,,,,,,,,
0,program_change,0,0,3,,,,,,,,48,2,,,,
0,program_change,0,0,5,,,,,,,,56,4,,,,
0,control_change,0,0,3,,,,,,,,,2,7,127,,
0,midi_port,0,1,4,,,,,,,0,,,,,,
0,track_name,0,1,4,,,,,,,,,,,,,
0,program_change,0,0,4,,,,,,,,48,3,,,,
0,control_change,0,0,4,,,,,,,,,3,7,127,,
0,control_change,0,0,4,,,,,,,,,3,10,64,,
0,midi_port,0,1,5,,,,,,,0,,,,,,
0,control_change,0,0,3,,,,,,,,,2,10,64,,
0,track_name,0,1,2,,,,,,,,,,,,,
0,control_change,0,0,8,,,,,,,,,7,7,96,,
0,midi_port,0,1,9,,,,,,,0,,,,,,
0,end_of_track,0,1,12,,,,,,,,,,,,,
0,midi_port,0,1,13,,,,,,,0,,,,,,
0,track_name,0,1,13,,,,,,,,,,,,,
0,control_change,0,0,13,,,,,,,,,12,7,127,,
0,control_change,0,0,13,,,,,,,,,12,10,64,,
0,end_of_track,0,1,13,,,,,,,,,,,,,
0,control_change,0,0,12,,,,,,,,,11,10,64,,
0,midi_port,0,1,14,,,,,,,0,,,,,,
0,control_change,0,0,14,,,,,,,,,13,7,127,,
0,control_change,0,0,14,,,,,,,,,13,10,64,,
0,end_of_track,0,1,14,,,,,,,,,,,,,
0,midi_port,0,1,15,,,,,,,0,,,,,,
0,track_name,0,1,15,,,,,,,,,,,,,
0,control_change,0,0,15,,,,,,,,,14,7,127,,
0,track_name,0,1,14,,,,,,,,,,,,,
0,control_change,0,0,8,,,,,,,,,7,10,64,,
0,control_change,0,0,12,,,,,,,,,11,7,127,,
0,midi_port,0,1,12,,,,,,,0,,,,,,
0,track_name,0,1,9,,,,,,,,,,,,,
0,control_change,0,0,9,,,,,,,,,8,7,127,,
0,control_change,0,0,9,,,,,,,,,8,10,64,,
0,end_of_track,0,1,9,,,,,,,,,,,,,
0,midi_port,0,1,10,,,,,,,0,,,,,,
0,track_name,0,1,10,,,,,,,,,,,,,
0,track_name,0,1,12,,,,,,,,,,,,,
0,control_change,0,0,10,,,,,,,,,9,7,127,,
0,end_of_track,0,1,10,,,,,,,,,,,,,
0,midi_port,0,1,11,,,,,,,0,,,,,,
0,track_name,0,1,11,,,,,,,,,,,,,
0,control_change,0,0,11,,,,,,,,,10,7,127,,
0,control_change,0,0,11,,,,,,,,,10,10,64,,
0,end_of_track,0,1,11,,,,,,,,,,,,,
0,control_change,0,0,10,,,,,,,,,9,10,64,,
0,midi_port,0,1,2,,,,,,,0,,,,,,
0,control_change,0,0,5,,,,,,,,,4,7,96,,
0,end_of_track,0,1,15,,,,,,,,,,,,,
0,text,0,1,0,,,,,,,,,,,,,
0,text,0,1,0,,,,,,,,,,,,,
0,copyright,0,1,0,,,,,,,,,,,,,
0,set_tempo,0,1,0,416666,,,,,,,,,,,,
0,key_signature,0,1,0,,G,,,,,,,,,,,
0,time_signature,0,1,0,,,4,4,24,8,,,,,,,
0,control_change,0,0,1,,,,,,,,,0,10,64,,
0,midi_port,0,1,1,,,,,,,0,,,,,,
0,track_name,0,1,1,,,,,,,,,,,,,
0,program_change,0,0,1,,,,,,,,48,0,,,,
0,control_change,0,0,1,,,,,,,,,0,7,127,,
768,note_on,768,0,1,,,,,,,,,0,,,71,108
768,note_on,768,0,7,,,,,,,,,6,,,71,108
768,set_tempo,768,1,0,348837,,,,,,,,,,,,
768,time_signature,0,1,0,,,2,2,24,8,,,,,,,
928,note_on,160,0,1,,,,,,,,,0,,,71,0
928,note_on,160,0,7,,,,,,,,,6,,,71,0
960,note_on,32,0,7,,,,,,,,,6,,,71,108
960,note_on,32,0,1,,,,,,,,,0,,,71,108
1120,note_on,160,0,1,,,,,,,,,0,,,71,0
1120,note_on,160,0,7,,,,,,,,,6,,,71,0
1152,note_on,32,0,1,,,,,,,,,0,,,71,108
1152,note_on,32,0,7,,,,,,,,,6,,,71,108
1312,note_on,160,0,1,,,,,,,,,0,,,71,0
1312,note_on,160,0,7,,,,,,,,,6,,,71,0
1344,note_on,32,0,1,,,,,,,,,0,,,71,108
1344,note_on,32,0,7,,,,,,,,,6,,,71,108
1504,note_on,160,0,1,,,,,,,,,0,,,71,0
1504,note_on,160,0,7,,,,,,,,,6,,,71,0
1536,note_on,32,0,7,,,,,,,,,6,,,76,108
1536,note_on,32,0,1,,,,,,,,,0,,,76,108
2014,note_on,478,0,1,,,,,,,,,0,,,76,0
2014,note_on,478,0,7,,,,,,,,,6,,,76,0
2016,note_on,2,0,1,,,,,,,,,0,,,74,108
2016,note_on,2,0,7,,,,,,,,,6,,,74,108
2110,note_on,94,0,1,,,,,,,,,0,,,74,0
2110,note_on,94,0,7,,,,,,,,,6,,,74,0
2112,note_on,2,0,1,,,,,,,,,0,,,76,108
2112,note_on,2,0,7,,,,,,,,,6,,,76,108
2206,note_on,94,0,1,,,,,,,,,0,,,76,0
2206,note_on,94,0,7,,,,,,,,,6,,,76,0
2208,note_on,2,0,1,,,,,,,,,0,,,78,108
2208,note_on,2,0,7,,,,,,,,,6,,,78,108
2302,note_on,94,0,7,,,,,,,,,6,,,78,0
2302,note_on,94,0,1,,,,,,,,,0,,,78,0
2304,note_on,2,0,1,,,,,,,,,0,,,76,108
2304,note_on,0,0,7,,,,,,,,,6,,,76,108
2304,note_on,2,0,7,,,,,,,,,6,,,64,108
2304,note_on,2304,0,2,,,,,,,,,1,,,64,108
2398,note_on,94,0,7,,,,,,,,,6,,,76,0
2398,note_on,94,0,1,,,,,,,,,0,,,76,0
2400,note_on,2,0,7,,,,,,,,,6,,,74,108
2400,note_on,2,0,1,,,,,,,,,0,,,74,108
2464,note_on,64,0,7,,,,,,,,,6,,,64,0
2464,note_on,160,0,2,,,,,,,,,1,,,64,0
2494,note_on,30,0,7,,,,,,,,,6,,,74,0
2494,note_on,94,0,1,,,,,,,,,0,,,74,0
2496,note_on,0,0,7,,,,,,,,,6,,,76,108
2496,note_on,2,0,1,,,,,,,,,0,,,76,108
2496,note_on,32,0,2,,,,,,,,,1,,,64,108
2496,note_on,2,0,7,,,,,,,,,6,,,64,108
2590,note_on,94,0,1,,,,,,,,,0,,,76,0
2590,note_on,94,0,7,,,,,,,,,6,,,76,0
2592,note_on,2,0,7,,,,,,,,,6,,,78,108
2592,note_on,2,0,1,,,,,,,,,0,,,78,108
2656,note_on,64,0,7,,,,,,,,,6,,,64,0
2656,note_on,160,0,2,,,,,,,,,1,,,64,0
2686,note_on,94,0,1,,,,,,,,,0,,,78,0
2686,note_on,30,0,7,,,,,,,,,6,,,78,0
2688,note_on,32,0,2,,,,,,,,,1,,,64,108
2688,note_on,2,0,1,,,,,,,,,0,,,76,108
2688,note_on,2,0,7,,,,,,,,,6,,,64,108
2688,note_on,0,0,7,,,,,,,,,6,,,76,108
2782,note_on,94,0,1,,,,,,,,,0,,,76,0
2782,note_on,94,0,7,,,,,,,,,6,,,76,0
2784,note_on,2,0,7,,,,,,,,,6,,,79,108
2784,note_on,2,0,1,,,,,,,,,0,,,79,108
2848,note_on,64,0,7,,,,,,,,,6,,,64,0
2848,note_on,160,0,2,,,,,,,,,1,,,64,0
2878,note_on,30,0,7,,,,,,,,,6,,,79,0
2878,note_on,94,0,1,,,,,,,,,0,,,79,0
2880,note_on,2,0,1,,,,,,,,,0,,,78,108
2880,note_on,32,0,2,,,,,,,,,1,,,64,108
2880,note_on,2,0,7,,,,,,,,,6,,,64,108
2880,note_on,0,0,7,,,,,,,,,6,,,78,108
2974,note_on,94,0,7,,,,,,,,,6,,,78,0
2974,note_on,94,0,1,,,,,,,,,0,,,78,0
2976,note_on,2,0,7,,,,,,,,,6,,,76,108
2976,note_on,2,0,1,,,,,,,,,0,,,76,108
3040,note_on,64,0,7,,,,,,,,,6,,,64,0
3040,note_on,160,0,2,,,,,,,,,1,,,64,0
3070,note_on,94,0,1,,,,,,,,,0,,,76,0
3070,note_on,30,0,7,,,,,,,,,6,,,76,0
3072,note_on,2,0,7,,,,,,,,,6,,,71,108
3072,note_on,2,0,1,,,,,,,,,0,,,75,108
3072,note_on,32,0,2,,,,,,,,,1,,,71,108
3072,note_on,0,0,7,,,,,,,,,6,,,75,108
3328,note_on,256,0,1,,,,,,,,,0,,,75,0
3328,note_on,256,0,7,,,,,,,,,6,,,75,0
3360,note_on,32,0,7,,,,,,,,,6,,,73,108
3360,note_on,32,0,1,,,,,,,,,0,,,73,108
3454,note_on,94,0,1,,,,,,,,,0,,,73,0
3454,note_on,94,0,7,,,,,,,,,6,,,73,0
3456,note_on,2,0,1,,,,,,,,,0,,,71,108
3550,note_on,478,0,2,,,,,,,,,1,,,71,0
3552,note_on,2,0,2,,,,,,,,,1,,,69,108
3552,note_on,98,0,7,,,,,,,,,6,,,69,108
3646,note_on,94,0,2,,,,,,,,,1,,,69,0
3646,note_on,94,0,7,,,,,,,,,6,,,69,0
3648,note_on,2,0,2,,,,,,,,,1,,,71,108
3742,note_on,94,0,2,,,,,,,,,1,,,71,0
3744,note_on,2,0,2,,,,,,,,,1,,,72,108
3744,note_on,98,0,7,,,,,,,,,6,,,73,108
3792,note_on,336,0,1,,,,,,,,,0,,,71,0
3838,note_on,0,0,7,,,,,,,,,6,,,73,0
3838,note_on,94,0,7,,,,,,,,,6,,,71,0
3838,note_on,94,0,2,,,,,,,,,1,,,72,0
3840,note_on,3840,0,3,,,,,,,,,2,,,59,108
3840,note_on,0,0,7,,,,,,,,,6,,,71,108
3840,note_on,2,0,2,,,,,,,,,1,,,71,108
3840,note_on,2,0,7,,,,,,,,,6,,,59,108
3934,note_on,94,0,7,,,,,,,,,6,,,71,0
3934,note_on,94,0,2,,,,,,,,,1,,,71,0
3936,note_on,2,0,2,,,,,,,,,1,,,69,108
3936,note_on,2,0,7,,,,,,,,,6,,,69,108
4000,note_on,64,0,7,,,,,,,,,6,,,59,0
4000,note_on,160,0,3,,,,,,,,,2,,,59,0
4030,note_on,30,0,7,,,,,,,,,6,,,69,0
4030,note_on,94,0,2,,,,,,,,,1,,,69,0
4032,note_on,32,0,3,,,,,,,,,2,,,59,108
4032,note_on,2,0,7,,,,,,,,,6,,,59,108
4032,note_on,0,0,7,,,,,,,,,6,,,71,108
4032,note_on,2,0,2,,,,,,,,,1,,,71,108
4126,note_on,94,0,7,,,,,,,,,6,,,71,0
4126,note_on,94,0,2,,,,,,,,,1,,,71,0
4128,note_on,2,0,2,,,,,,,,,1,,,72,108
4128,note_on,2,0,7,,,,,,,,,6,,,72,108
4192,note_on,64,0,7,,,,,,,,,6,,,59,0
4192,note_on,160,0,3,,,,,,,,,2,,,59,0
4222,note_on,94,0,2,,,,,,,,,1,,,72,0
4222,note_on,30,0,7,,,,,,,,,6,,,72,0
4224,note_on,2,0,2,,,,,,,,,1,,,71,108
4224,note_on,32,0,3,,,,,,,,,2,,,59,108
4224,note_on,2,0,7,,,,,,,,,6,,,59,108
4224,note_on,0,0,7,,,,,,,,,6,,,71,108
4318,note_on,94,0,2,,,,,,,,,1,,,71,0
4318,note_on,94,0,7,,,,,,,,,6,,,71,0
4320,note_on,2,0,7,,,,,,,,,6,,,69,108
4320,note_on,2,0,2,,,,,,,,,1,,,69,108
4384,note_on,160,0,3,,,,,,,,,2,,,59,0
4384,note_on,64,0,7,,,,,,,,,6,,,59,0
4414,note_on,30,0,7,,,,,,,,,6,,,69,0
4414,note_on,94,0,2,,,,,,,,,1,,,69,0
4416,note_on,2,0,7,,,,,,,,,6,,,59,108
4416,note_on,2,0,2,,,,,,,,,1,,,67,108
4416,note_on,32,0,3,,,,,,,,,2,,,59,108
4416,note_on,0,0,7,,,,,,,,,6,,,67,108
4510,note_on,94,0,7,,,,,,,,,6,,,67,0
4510,note_on,94,0,2,,,,,,,,,1,,,67,0
4512,note_on,2,0,7,,,,,,,,,6,,,66,108
4512,note_on,2,0,2,,,,,,,,,1,,,66,108
4576,note_on,64,0,7,,,,,,,,,6,,,59,0
4576,note_on,160,0,3,,,,,,,,,2,,,59,0
4606,note_on,30,0,7,,,,,,,,,6,,,66,0
4606,note_on,94,0,2,,,,,,,,,1,,,66,0
4608,note_on,2,0,2,,,,,,,,,1,,,67,108
4608,note_on,0,0,7,,,,,,,,,6,,,67,108
4608,note_on,2,0,7,,,,,,,,,6,,,64,108
4608,note_on,32,0,3,,,,,,,,,2,,,64,108
4864,note_on,256,0,7,,,,,,,,,6,,,67,0
4864,note_on,256,0,2,,,,,,,,,1,,,67,0
4896,note_on,32,0,2,,,,,,,,,1,,,66,108
4896,note_on,32,0,7,,,,,,,,,6,,,66,108
4990,note_on,94,0,7,,,,,,,,,6,,,66,0
4990,note_on,94,0,2,,,,,,,,,1,,,66,0
4992,note_on,2,0,2,,,,,,,,,1,,,64,108
5086,note_on,478,0,3,,,,,,,,,2,,,64,0
5088,note_on,98,0,7,,,,,,,,,6,,,62,108
5088,note_on,2,0,3,,,,,,,,,2,,,62,108
5182,note_on,94,0,7,,,,,,,,,6,,,62,0
5182,note_on,94,0,3,,,,,,,,,2,,,62,0
5184,note_on,2,0,3,,,,,,,,,2,,,64,108
5278,note_on,94,0,3,,,,,,,,,2,,,64,0
5280,note_on,2,0,3,,,,,,,,,2,,,66,108
5280,note_on,98,0,7,,,,,,,,,6,,,66,108
5328,note_on,336,0,2,,,,,,,,,1,,,64,0
5374,note_on,94,0,3,,,,,,,,,2,,,66,0
5374,note_on,94,0,7,,,,,,,,,6,,,64,0
5374,note_on,0,0,7,,,,,,,,,6,,,66,0
5376,note_on,2,0,7,,,,,,,,,6,,,64,108
5376,note_on,48,0,2,,,,,,,,,1,,,67,108
5376,note_on,2,0,3,,,,,,,,,2,,,64,108
5376,note_on,5376,0,4,,,,,,,,,3,,,52,108
5376,note_on,5376,0,8,,,,,,,,,7,,,52,108
5376,note_on,0,0,7,,,,,,,,,6,,,67,108
5470,note_on,94,0,3,,,,,,,,,2,,,64,0
5470,note_on,94,0,7,,,,,,,,,6,,,64,0
5472,note_on,2,0,3,,,,,,,,,2,,,62,108
5472,note_on,2,0,7,,,,,,,,,6,,,62,108
5536,note_on,160,0,8,,,,,,,,,7,,,52,0
5536,note_on,160,0,2,,,,,,,,,1,,,67,0
5536,note_on,160,0,4,,,,,,,,,3,,,52,0
5536,note_on,64,0,7,,,,,,,,,6,,,67,0
5566,note_on,94,0,3,,,,,,,,,2,,,62,0
5566,note_on,30,0,7,,,,,,,,,6,,,62,0
5568,note_on,2,0,3,,,,,,,,,2,,,64,108
5568,note_on,32,0,8,,,,,,,,,7,,,52,108
5568,note_on,32,0,4,,,,,,,,,3,,,52,108
5568,note_on,2,0,7,,,,,,,,,6,,,64,108
5568,note_on,0,0,7,,,,,,,,,6,,,67,108
5568,note_on,32,0,2,,,,,,,,,1,,,67,108
5662,note_on,94,0,7,,,,,,,,,6,,,64,0
5662,note_on,94,0,3,,,,,,,,,2,,,64,0
5664,note_on,2,0,7,,,,,,,,,6,,,66,108
5664,note_on,2,0,3,,,,,,,,,2,,,66,108
5728,note_on,64,0,7,,,,,,,,,6,,,67,0
5728,note_on,160,0,8,,,,,,,,,7,,,52,0
5728,note_on,160,0,2,,,,,,,,,1,,,67,0
5728,note_on,160,0,4,,,,,,,,,3,,,52,0
5758,note_on,30,0,7,,,,,,,,,6,,,66,0
5758,note_on,94,0,3,,,,,,,,,2,,,66,0
5760,note_on,2,0,3,,,,,,,,,2,,,64,108
5760,note_on,2,0,7,,,,,,,,,6,,,64,108
5760,note_on,32,0,4,,,,,,,,,3,,,52,108
5760,note_on,32,0,2,,,,,,,,,1,,,67,108
5760,note_on,32,0,8,,,,,,,,,7,,,52,108
5760,note_on,0,0,7,,,,,,,,,6,,,67,108
5854,note_on,94,0,7,,,,,,,,,6,,,64,0
5854,note_on,94,0,3,,,,,,,,,2,,,64,0
5856,note_on,2,0,3,,,,,,,,,2,,,67,108
5856,note_on,2,0,7,,,,,,,,,6,,,67,108
5920,note_on,160,0,2,,,,,,,,,1,,,67,0
5920,note_on,160,0,8,,,,,,,,,7,,,52,0
5920,note_on,160,0,4,,,,,,,,,3,,,52,0
5920,note_on,64,0,7,,,,,,,,,6,,,67,0
5950,note_on,30,0,7,,,,,,,,,6,,,67,0
5950,note_on,94,0,3,,,,,,,,,2,,,67,0
5952,note_on,2,0,3,,,,,,,,,2,,,66,108
5952,note_on,32,0,2,,,,,,,,,1,,,67,108
5952,note_on,32,0,4,,,,,,,,,3,,,52,108
5952,note_on,32,0,8,,,,,,,,,7,,,52,108
5952,note_on,2,0,7,,,,,,,,,6,,,66,108
5952,note_on,0,0,7,,,,,,,,,6,,,67,108
6046,note_on,94,0,3,,,,,,,,,2,,,66,0
6046,note_on,94,0,7,,,,,,,,,6,,,66,0
6048,note_on,2,0,7,,,,,,,,,6,,,64,108
6048,note_on,2,0,3,,,,,,,,,2,,,64,108
6112,note_on,160,0,4,,,,,,,,,3,,,52,0
6112,note_on,64,0,7,,,,,,,,,6,,,67,0
6112,note_on,160,0,2,,,,,,,,,1,,,67,0
6112,note_on,160,0,8,,,,,,,,,7,,,52,0
6142,note_on,30,0,7,,,,,,,,,6,,,64,0
6142,note_on,94,0,3,,,,,,,,,2,,,64,0
6144,note_on,32,0,4,,,,,,,,,3,,,59,108
6144,note_on,32,0,8,,,,,,,,,7,,,59,108
6144,note_on,32,0,2,,,,,,,,,1,,,66,108
6144,note_on,2,0,3,,,,,,,,,2,,,63,108
6144,note_on,0,0,7,,,,,,,,,6,,,66,108
6144,note_on,2,0,7,,,,,,,,,6,,,63,108
6400,note_on,0,0,7,,,,,,,,,6,,,66,0
6400,note_on,256,0,7,,,,,,,,,6,,,63,0
6400,note_on,256,0,3,,,,,,,,,2,,,63,0
6400,note_on,256,0,2,,,,,,,,,1,,,66,0
6432,note_on,32,0,2,,,,,,,,,1,,,66,108
6432,note_on,32,0,7,,,,,,,,,6,,,61,108
6432,note_on,0,0,7,,,,,,,,,6,,,66,108
6432,note_on,32,0,3,,,,,,,,,2,,,61,108
6526,note_on,94,0,3,,,,,,,,,2,,,61,0
6526,note_on,94,0,7,,,,,,,,,6,,,61,0
6526,note_on,0,0,7,,,,,,,,,6,,,66,0
6526,note_on,94,0,2,,,,,,,,,1,,,66,0
6528,note_on,0,0,7,,,,,,,,,6,,,63,108
6528,note_on,2,0,2,,,,,,,,,1,,,66,108
6528,note_on,2,0,7,,,,,,,,,6,,,59,108
6528,note_on,0,0,7,,,,,,,,,6,,,66,108
6528,note_on,2,0,3,,,,,,,,,2,,,59,108
6622,note_on,478,0,4,,,,,,,,,3,,,59,0
6622,note_on,478,0,8,,,,,,,,,7,,,59,0
6624,note_on,2,0,4,,,,,,,,,3,,,57,108
6624,note_on,2,0,8,,,,,,,,,7,,,57,108
6718,note_on,94,0,4,,,,,,,,,3,,,57,0
6718,note_on,94,0,8,,,,,,,,,7,,,57,0
6720,note_on,2,0,8,,,,,,,,,7,,,59,108
6720,note_on,2,0,4,,,,,,,,,3,,,59,108
6814,note_on,94,0,4,,,,,,,,,3,,,59,0
6814,note_on,94,0,8,,,,,,,,,7,,,59,0
6816,note_on,2,0,4,,,,,,,,,3,,,60,108
6816,note_on,2,0,8,,,,,,,,,7,,,60,108
6864,note_on,336,0,2,,,,,,,,,1,,,66,0
6864,note_on,336,0,7,,,,,,,,,6,,,59,0
6864,note_on,336,0,3,,,,,,,,,2,,,59,0
6864,note_on,0,0,7,,,,,,,,,6,,,63,0
6864,note_on,0,0,7,,,,,,,,,6,,,66,0
6910,note_on,94,0,4,,,,,,,,,3,,,60,0
6910,note_on,94,0,8,,,,,,,,,7,,,60,0
6912,note_on,2,0,8,,,,,,,,,7,,,59,108
6912,note_on,2,0,4,,,,,,,,,3,,,59,108
6912,note_on,0,0,7,,,,,,,,,6,,,71,108
6912,note_on,0,0,7,,,,,,,,,6,,,66,108
6912,note_on,48,0,7,,,,,,,,,6,,,63,108
6912,note_on,3120,0,1,,,,,,,,,0,,,71,108
6912,note_on,48,0,2,,,,,,,,,1,,,66,108
6912,note_on,48,0,3,,,,,,,,,2,,,63,108
7006,note_on,94,0,8,,,,,,,,,7,,,59,0
7006,note_on,94,0,4,,,,,,,,,3,,,59,0
7008,note_on,2,0,4,,,,,,,,,3,,,57,108
7008,note_on,2,0,8,,,,,,,,,7,,,57,108
7072,note_on,160,0,7,,,,,,,,,6,,,63,0
7072,note_on,0,0,7,,,,,,,,,6,,,71,0
7072,note_on,160,0,3,,,,,,,,,2,,,63,0
7072,note_on,160,0,1,,,,,,,,,0,,,71,0
7102,note_on,94,0,4,,,,,,,,,3,,,57,0
7102,note_on,94,0,8,,,,,,,,,7,,,57,0
7104,note_on,32,0,7,,,,,,,,,6,,,63,108
7104,note_on,32,0,1,,,,,,,,,0,,,71,108
7104,note_on,0,0,7,,,,,,,,,6,,,71,108
7104,note_on,2,0,8,,,,,,,,,7,,,59,108
7104,note_on,2,0,4,,,,,,,,,3,,,59,108
7104,note_on,32,0,3,,,,,,,,,2,,,63,108
7198,note_on,94,0,8,,,,,,,,,7,,,59,0
7198,note_on,94,0,4,,,,,,,,,3,,,59,0
7200,note_on,2,0,4,,,,,,,,,3,,,60,108
7200,note_on,2,0,8,,,,,,,,,7,,,60,108
7248,note_on,336,0,2,,,,,,,,,1,,,66,0
7264,note_on,160,0,1,,,,,,,,,0,,,71,0
7264,note_on,160,0,3,,,,,,,,,2,,,63,0
7264,note_on,0,0,7,,,,,,,,,6,,,71,0
7264,note_on,0,0,7,,,,,,,,,6,,,66,0
7264,note_on,160,0,7,,,,,,,,,6,,,63,0
7294,note_on,94,0,8,,,,,,,,,7,,,60,0
7294,note_on,94,0,4,,,,,,,,,3,,,60,0
7296,note_on,32,0,3,,,,,,,,,2,,,63,108
7296,note_on,32,0,1,,,,,,,,,0,,,71,108
7296,note_on,2,0,8,,,,,,,,,7,,,59,108
7296,note_on,0,0,7,,,,,,,,,6,,,66,108
7296,note_on,0,0,7,,,,,,,,,6,,,71,108
7296,note_on,48,0,2,,,,,,,,,1,,,66,108
7296,note_on,32,0,7,,,,,,,,,6,,,63,108
7296,note_on,2,0,4,,,,,,,,,3,,,59,108
7390,note_on,94,0,4,,,,,,,,,3,,,59,0
7390,note_on,94,0,8,,,,,,,,,7,,,59,0
7392,note_on,2,0,4,,,,,,,,,3,,,57,108
7392,note_on,2,0,8,,,,,,,,,7,,,57,108
7456,note_on,0,0,7,,,,,,,,,6,,,71,0
7456,note_on,160,0,3,,,,,,,,,2,,,63,0
7456,note_on,160,0,7,,,,,,,,,6,,,63,0
7456,note_on,160,0,1,,,,,,,,,0,,,71,0
7486,note_on,94,0,4,,,,,,,,,3,,,57,0
7486,note_on,94,0,8,,,,,,,,,7,,,57,0
7488,note_on,2,0,4,,,,,,,,,3,,,55,108
7488,note_on,32,0,3,,,,,,,,,2,,,63,108
7488,note_on,32,0,7,,,,,,,,,6,,,63,108
7488,note_on,0,0,7,,,,,,,,,6,,,71,108
7488,note_on,32,0,1,,,,,,,,,0,,,71,108
7488,note_on,2,0,8,,,,,,,,,7,,,55,108
7582,note_on,94,0,4,,,,,,,,,3,,,55,0
7582,note_on,94,0,8,,,,,,,,,7,,,55,0
7584,note_on,2,0,4,,,,,,,,,3,,,54,108
7584,note_on,2,0,8,,,,,,,,,7,,,54,108
7632,note_on,336,0,2,,,,,,,,,1,,,66,0
7648,note_on,0,0,7,,,,,,,,,6,,,71,0
7648,note_on,160,0,7,,,,,,,,,6,,,63,0
7648,note_on,0,0,7,,,,,,,,,6,,,66,0
7648,note_on,160,0,1,,,,,,,,,0,,,71,0
7648,note_on,160,0,3,,,,,,,,,2,,,63,0
7678,note_on,94,0,8,,,,,,,,,7,,,54,0
7678,note_on,94,0,4,,,,,,,,,3,,,54,0
7680,note_on,0,0,8,,,,,,,,,7,,,59,108
7680,note_on,32,0,3,,,,,,,,,2,,,59,108
7680,note_on,32,0,7,,,,,,,,,6,,,71,108
7680,note_on,0,0,7,,,,,,,,,6,,,76,108
7680,note_on,32,0,1,,,,,,,,,0,,,76,108
7680,note_on,2,0,4,,,,,,,,,3,,,55,108
7680,note_on,2,0,8,,,,,,,,,7,,,55,108
7936,note_on,256,0,7,,,,,,,,,6,,,71,0
7936,note_on,256,0,8,,,,,,,,,7,,,55,0
7936,note_on,0,0,8,,,,,,,,,7,,,59,0
7936,note_on,256,0,3,,,,,,,,,2,,,59,0
7936,note_on,256,0,4,,,,,,,,,3,,,55,0
7968,note_on,32,0,7,,,,,,,,,6,,,69,108
7968,note_on,32,0,4,,,,,,,,,3,,,54,108
7968,note_on,32,0,3,,,,,,,,,2,,,59,108
7968,note_on,32,0,8,,,,,,,,,7,,,54,108
7968,note_on,0,0,8,,,,,,,,,7,,,59,108
8062,note_on,94,0,3,,,,,,,,,2,,,59,0
8062,note_on,94,0,4,,,,,,,,,3,,,54,0
8062,note_on,94,0,7,,,,,,,,,6,,,69,0
8062,note_on,94,0,8,,,,,,,,,7,,,54,0
8062,note_on,0,0,8,,,,,,,,,7,,,59,0
8064,note_on,0,0,8,,,,,,,,,7,,,59,108
8064,note_on,2,0,8,,,,,,,,,7,,,52,108
8064,note_on,2,0,4,,,,,,,,,3,,,52,108
8064,note_on,2,0,3,,,,,,,,,2,,,59,108
8064,note_on,2,0,7,,,,,,,,,6,,,67,108
8158,note_on,478,0,1,,,,,,,,,0,,,76,0
8158,note_on,94,0,7,,,,,,,,,6,,,76,0
8160,note_on,2,0,1,,,,,,,,,0,,,74,108
8160,note_on,2,0,7,,,,,,,,,6,,,75,108
8254,note_on,94,0,7,,,,,,,,,6,,,75,0
8254,note_on,94,0,1,,,,,,,,,0,,,74,0
8256,note_on,2,0,1,,,,,,,,,0,,,76,108
8256,note_on,2,0,7,,,,,,,,,6,,,76,108
8350,note_on,94,0,7,,,,,,,,,6,,,76,0
8350,note_on,94,0,1,,,,,,,,,0,,,76,0
8352,note_on,2,0,7,,,,,,,,,6,,,77,108
8352,note_on,2,0,1,,,,,,,,,0,,,77,108
8400,note_on,48,0,7,,,,,,,,,6,,,67,0
8400,note_on,0,0,8,,,,,,,,,7,,,59,0
8400,note_on,336,0,4,,,,,,,,,3,,,52,0
8400,note_on,336,0,3,,,,,,,,,2,,,59,0
8400,note_on,336,0,8,,,,,,,,,7,,,52,0
8446,note_on,46,0,7,,,,,,,,,6,,,77,0
8446,note_on,94,0,1,,,,,,,,,0,,,77,0
8448,note_on,816,0,2,,,,,,,,,1,,,68,108
8448,note_on,48,0,8,,,,,,,,,7,,,52,108
8448,note_on,2,0,1,,,,,,,,,0,,,76,108
8448,note_on,0,0,8,,,,,,,,,7,,,59,108
8448,note_on,0,0,7,,,,,,,,,6,,,76,108
8448,note_on,2,0,7,,,,,,,,,6,,,68,108
8448,note_on,48,0,3,,,,,,,,,2,,,59,108
8448,note_on,48,0,4,,,,,,,,,3,,,52,108
8542,note_on,94,0,7,,,,,,,,,6,,,76,0
8542,note_on,94,0,1,,,,,,,,,0,,,76,0
8544,note_on,2,0,7,,,,,,,,,6,,,74,108
8544,note_on,2,0,1,,,,,,,,,0,,,74,108
8608,note_on,0,0,8,,,,,,,,,7,,,59,0
8608,note_on,160,0,8,,,,,,,,,7,,,52,0
8608,note_on,160,0,3,,,,,,,,,2,,,59,0
8608,note_on,160,0,2,,,,,,,,,1,,,68,0
8608,note_on,64,0,7,,,,,,,,,6,,,68,0
8608,note_on,160,0,4,,,,,,,,,3,,,52,0
8638,note_on,30,0,7,,,,,,,,,6,,,74,0
8638,note_on,94,0,1,,,,,,,,,0,,,74,0
8640,note_on,0,0,8,,,,,,,,,7,,,59,108
8640,note_on,32,0,8,,,,,,,,,7,,,52,108
8640,note_on,32,0,2,,,,,,,,,1,,,68,108
8640,note_on,32,0,3,,,,,,,,,2,,,59,108
8640,note_on,2,0,7,,,,,,,,,6,,,68,108
8640,note_on,0,0,7,,,,,,,,,6,,,76,108
8640,note_on,2,0,1,,,,,,,,,0,,,76,108
8640,note_on,32,0,4,,,,,,,,,3,,,52,108
8734,note_on,94,0,7,,,,,,,,,6,,,76,0
8734,note_on,94,0,1,,,,,,,,,0,,,76,0
8736,note_on,2,0,7,,,,,,,,,6,,,77,108
8736,note_on,2,0,1,,,,,,,,,0,,,77,108
8800,note_on,160,0,8,,,,,,,,,7,,,52,0
8800,note_on,160,0,4,,,,,,,,,3,,,52,0
8800,note_on,160,0,2,,,,,,,,,1,,,68,0
8800,note_on,160,0,3,,,,,,,,,2,,,59,0
8800,note_on,0,0,8,,,,,,,,,7,,,59,0
8800,note_on,64,0,7,,,,,,,,,6,,,68,0
8830,note_on,30,0,7,,,,,,,,,6,,,77,0
8830,note_on,94,0,1,,,,,,,,,0,,,77,0
8832,note_on,32,0,2,,,,,,,,,1,,,68,108
8832,note_on,32,0,3,,,,,,,,,2,,,59,108
8832,note_on,2,0,1,,,,,,,,,0,,,76,108
8832,note_on,32,0,4,,,,,,,,,3,,,52,108
8832,note_on,0,0,8,,,,,,,,,7,,,59,108
8832,note_on,32,0,8,,,,,,,,,7,,,52,108
8832,note_on,0,0,7,,,,,,,,,6,,,76,108
8832,note_on,2,0,7,,,,,,,,,6,,,68,108
8926,note_on,94,0,7,,,,,,,,,6,,,76,0
8926,note_on,94,0,1,,,,,,,,,0,,,76,0
8928,note_on,2,0,7,,,,,,,,,6,,,74,108
8928,note_on,2,0,1,,,,,,,,,0,,,74,108
8992,note_on,0,0,8,,,,,,,,,7,,,59,0
8992,note_on,64,0,7,,,,,,,,,6,,,68,0
8992,note_on,160,0,2,,,,,,,,,1,,,68,0
8992,note_on,160,0,4,,,,,,,,,3,,,52,0
8992,note_on,160,0,8,,,,,,,,,7,,,52,0
8992,note_on,160,0,3,,,,,,,,,2,,,59,0
9022,note_on,94,0,1,,,,,,,,,0,,,74,0
9022,note_on,30,0,7,,,,,,,,,6,,,74,0
9024,note_on,2,0,1,,,,,,,,,0,,,72,108
9024,note_on,0,0,8,,,,,,,,,7,,,64,108
9024,note_on,32,0,8,,,,,,,,,7,,,52,108
9024,note_on,32,0,4,,,,,,,,,3,,,52,108
9024,note_on,2,0,7,,,,,,,,,6,,,68,108
9024,note_on,0,0,7,,,,,,,,,6,,,72,108
9024,note_on,32,0,3,,,,,,,,,2,,,64,108
9024,note_on,32,0,2,,,,,,,,,1,,,68,108
9118,note_on,94,0,7,,,,,,,,,6,,,72,0
9118,note_on,94,0,1,,,,,,,,,0,,,72,0
9120,note_on,2,0,1,,,,,,,,,0,,,71,108
9120,note_on,2,0,7,,,,,,,,,6,,,71,108
9184,note_on,64,0,7,,,,,,,,,6,,,68,0
9184,note_on,0,0,8,,,,,,,,,7,,,64,0
9184,note_on,160,0,2,,,,,,,,,1,,,68,0
9184,note_on,160,0,4,,,,,,,,,3,,,52,0
9184,note_on,160,0,3,,,,,,,,,2,,,64,0
9184,note_on,160,0,8,,,,,,,,,7,,,52,0
9214,note_on,94,0,1,,,,,,,,,0,,,71,0
9214,note_on,30,0,7,,,,,,,,,6,,,71,0
9216,note_on,32,0,4,,,,,,,,,3,,,57,108
9216,note_on,32,0,3,,,,,,,,,2,,,60,108
9216,note_on,32,0,2,,,,,,,,,1,,,64,108
9216,note_on,2,0,1,,,,,,,,,0,,,72,108
9216,note_on,0,0,8,,,,,,,,,7,,,60,108
9216,note_on,0,0,7,,,,,,,,,6,,,72,108
9216,note_on,2,0,7,,,,,,,,,6,,,64,108
9216,note_on,32,0,8,,,,,,,,,7,,,57,108
9472,note_on,0,0,7,,,,,,,,,6,,,72,0
9472,note_on,256,0,7,,,,,,,,,6,,,64,0
9472,note_on,256,0,2,,,,,,,,,1,,,64,0
9472,note_on,256,0,1,,,,,,,,,0,,,72,0
9504,note_on,32,0,1,,,,,,,,,0,,,71,108
9504,note_on,0,0,7,,,,,,,,,6,,,71,108
9504,note_on,32,0,2,,,,,,,,,1,,,64,108
9504,note_on,32,0,7,,,,,,,,,6,,,64,108
9598,note_on,94,0,7,,,,,,,,,6,,,64,0
9598,note_on,0,0,7,,,,,,,,,6,,,71,0
9598,note_on,94,0,1,,,,,,,,,0,,,71,0
9598,note_on,94,0,2,,,,,,,,,1,,,64,0
9600,note_on,2,0,7,,,,,,,,,6,,,64,108
9600,note_on,0,0,7,,,,,,,,,6,,,69,108
9600,note_on,2,0,2,,,,,,,,,1,,,64,108
9600,note_on,2,0,1,,,,,,,,,0,,,69,108
9694,note_on,478,0,3,,,,,,,,,2,,,60,0
9694,note_on,0,0,8,,,,,,,,,7,,,60,0
9694,note_on,478,0,8,,,,,,,,,7,,,57,0
9694,note_on,478,0,4,,,,,,,,,3,,,57,0
9696,note_on,2,0,3,,,,,,,,,2,,,59,108
9696,note_on,0,0,8,,,,,,,,,7,,,59,108
9696,note_on,2,0,8,,,,,,,,,7,,,55,108
9696,note_on,2,0,4,,,,,,,,,3,,,55,108
9790,note_on,0,0,8,,,,,,,,,7,,,59,0
9790,note_on,94,0,8,,,,,,,,,7,,,55,0
9790,note_on,94,0,3,,,,,,,,,2,,,59,0
9790,note_on,94,0,4,,,,,,,,,3,,,55,0
9792,note_on,2,0,3,,,,,,,,,2,,,60,108
9792,note_on,2,0,4,,,,,,,,,3,,,57,108
9792,note_on,2,0,8,,,,,,,,,7,,,57,108
9792,note_on,0,0,8,,,,,,,,,7,,,60,108
9886,note_on,94,0,3,,,,,,,,,2,,,60,0
9886,note_on,94,0,8,,,,,,,,,7,,,57,0
9886,note_on,0,0,8,,,,,,,,,7,,,60,0
9886,note_on,94,0,4,,,,,,,,,3,,,57,0
9888,note_on,2,0,8,,,,,,,,,7,,,59,108
9888,note_on,0,0,8,,,,,,,,,7,,,62,108
9888,note_on,2,0,3,,,,,,,,,2,,,62,108
9888,note_on,2,0,4,,,,,,,,,3,,,59,108
9936,note_on,0,0,7,,,,,,,,,6,,,69,0
9936,note_on,336,0,7,,,,,,,,,6,,,64,0
9936,note_on,336,0,2,,,,,,,,,1,,,64,0
9936,note_on,336,0,1,,,,,,,,,0,,,69,0
9982,note_on,94,0,3,,,,,,,,,2,,,62,0
9982,note_on,0,0,8,,,,,,,,,7,,,62,0
9982,note_on,94,0,8,,,,,,,,,7,,,59,0
9982,note_on,94,0,4,,,,,,,,,3,,,59,0
9984,note_on,2,0,3,,,,,,,,,2,,,60,108
9984,note_on,0,0,7,,,,,,,,,6,,,64,108
9984,note_on,2,0,4,,,,,,,,,3,,,57,108
9984,note_on,48,0,2,,,,,,,,,1,,,64,92
9984,note_on,48,0,7,,,,,,,,,6,,,60,108
9984,note_on,2,0,8,,,,,,,,,7,,,57,108
10078,note_on,94,0,7,,,,,,,,,6,,,60,0
10078,note_on,94,0,3,,,,,,,,,2,,,60,0
10078,note_on,94,0,4,,,,,,,,,3,,,57,0
10078,note_on,94,0,8,,,,,,,,,7,,,57,0
10080,note_on,2,0,4,,,,,,,,,3,,,55,108
10080,note_on,2,0,7,,,,,,,,,6,,,59,108
10080,note_on,2,0,3,,,,,,,,,2,,,59,108
10080,note_on,2,0,8,,,,,,,,,7,,,55,108
10144,note_on,64,0,7,,,,,,,,,6,,,64,0
10144,note_on,160,0,2,,,,,,,,,1,,,64,0
10174,note_on,94,0,4,,,,,,,,,3,,,55,0
10174,note_on,94,0,8,,,,,,,,,7,,,55,0
10174,note_on,30,0,7,,,,,,,,,6,,,59,0
10174,note_on,94,0,3,,,,,,,,,2,,,59,0
10176,note_on,2,0,3,,,,,,,,,2,,,60,108
10176,note_on,32,0,2,,,,,,,,,1,,,64,92
10176,note_on,0,0,7,,,,,,,,,6,,,64,108
10176,note_on,2,0,4,,,,,,,,,3,,,57,108
10176,note_on,2,0,7,,,,,,,,,6,,,60,108
10176,note_on,2,0,8,,,,,,,,,7,,,57,108
10270,note_on,94,0,3,,,,,,,,,2,,,60,0
10270,note_on,94,0,7,,,,,,,,,6,,,60,0
10270,note_on,94,0,4,,,,,,,,,3,,,57,0
10270,note_on,94,0,8,,,,,,,,,7,,,57,0
10272,note_on,2,0,4,,,,,,,,,3,,,59,108
10272,note_on,2,0,7,,,,,,,,,6,,,62,108
10272,note_on,2,0,8,,,,,,,,,7,,,59,108
10272,note_on,2,0,3,,,,,,,,,2,,,62,108
10336,note_on,64,0,7,,,,,,,,,6,,,64,0
10336,note_on,160,0,2,,,,,,,,,1,,,64,0
10366,note_on,94,0,8,,,,,,,,,7,,,59,0
10366,note_on,30,0,7,,,,,,,,,6,,,62,0
10366,note_on,94,0,4,,,,,,,,,3,,,59,0
10366,note_on,94,0,3,,,,,,,,,2,,,62,0
10368,note_on,2,0,7,,,,,,,,,6,,,60,108
10368,note_on,0,0,7,,,,,,,,,6,,,64,108
10368,note_on,32,0,2,,,,,,,,,1,,,64,92
10368,note_on,2,0,4,,,,,,,,,3,,,57,108
10368,note_on,2,0,8,,,,,,,,,7,,,57,108
10368,note_on,2,0,3,,,,,,,,,2,,,60,108
10462,note_on,94,0,4,,,,,,,,,3,,,57,0
10462,note_on,94,0,8,,,,,,,,,7,,,57,0
10462,note_on,94,0,7,,,,,,,,,6,,,60,0
10462,note_on,94,0,3,,,,,,,,,2,,,60,0
10464,note_on,2,0,7,,,,,,,,,6,,,59,108
10464,note_on,2,0,8,,,,,,,,,7,,,55,108
10464,note_on,2,0,3,,,,,,,,,2,,,59,108
10464,note_on,2,0,4,,,,,,,,,3,,,55,108
10528,note_on,64,0,7,,,,,,,,,6,,,64,0
10528,note_on,160,0,2,,,,,,,,,1,,,64,0
10558,note_on,30,0,7,,,,,,,,,6,,,59,0
10558,note_on,94,0,4,,,,,,,,,3,,,55,0
10558,note_on,94,0,8,,,,,,,,,7,,,55,0
10558,note_on,94,0,3,,,,,,,,,2,,,59,0
10560,note_on,32,0,2,,,,,,,,,1,,,64,92
10560,note_on,2,0,3,,,,,,,,,2,,,57,108
10560,note_on,2,0,7,,,,,,,,,6,,,57,108
10560,note_on,2,0,4,,,,,,,,,3,,,54,108
10560,note_on,2,0,8,,,,,,,,,7,,,54,108
10560,note_on,0,0,7,,,,,,,,,6,,,64,108
10654,note_on,94,0,4,,,,,,,,,3,,,54,0
10654,note_on,94,0,7,,,,,,,,,6,,,57,0
10654,note_on,94,0,3,,,,,,,,,2,,,57,0
10654,note_on,94,0,8,,,,,,,,,7,,,54,0
10656,note_on,2,0,3,,,,,,,,,2,,,55,108
10656,note_on,2,0,8,,,,,,,,,7,,,52,108
10656,note_on,2,0,4,,,,,,,,,3,,,52,108
10656,note_on,2,0,7,,,,,,,,,6,,,55,108
10720,note_on,64,0,7,,,,,,,,,6,,,64,0
10720,note_on,160,0,2,,,,,,,,,1,,,64,0
10750,note_on,94,0,8,,,,,,,,,7,,,52,0
10750,note_on,30,0,7,,,,,,,,,6,,,55,0
10750,note_on,94,0,3,,,,,,,,,2,,,55,0
10750,note_on,94,0,4,,,,,,,,,3,,,52,0
10752,note_on,2,0,4,,,,,,,,,3,,,54,108
10752,note_on,2,0,7,,,,,,,,,6,,,69,108
10752,note_on,2,0,3,,,,,,,,,2,,,57,108
10752,note_on,0,0,8,,,,,,,,,7,,,57,108
10752,note_on,32,0,2,,,,,,,,,1,,,69,92
10752,note_on,2,0,8,,,,,,,,,7,,,54,108
11008,note_on,256,0,3,,,,,,,,,2,,,57,0
11008,note_on,0,0,8,,,,,,,,,7,,,57,0
11008,note_on,256,0,8,,,,,,,,,7,,,54,0
11008,note_on,256,0,4,,,,,,,,,3,,,54,0
11040,note_on,32,0,4,,,,,,,,,3,,,52,108
11040,note_on,32,0,8,,,,,,,,,7,,,52,108
11040,note_on,0,0,8,,,,,,,,,7,,,55,108
11040,note_on,32,0,3,,,,,,,,,2,,,55,108
11134,note_on,94,0,8,,,,,,,,,7,,,52,0
11134,note_on,0,0,8,,,,,,,,,7,,,55,0
11134,note_on,94,0,3,,,,,,,,,2,,,55,0
11134,note_on,94,0,4,,,,,,,,,3,,,52,0
11136,note_on,2,0,3,,,,,,,,,2,,,54,108
11136,note_on,2,0,4,,,,,,,,,3,,,50,108
11136,note_on,2,0,8,,,,,,,,,7,,,50,108
11136,note_on,0,0,8,,,,,,,,,7,,,54,108
11230,note_on,478,0,2,,,,,,,,,1,,,69,0
11230,note_on,478,0,7,,,,,,,,,6,,,69,0
11232,note_on,2,0,2,,,,,,,,,1,,,67,92
11232,note_on,2,0,7,,,,,,,,,6,,,67,108
11326,note_on,94,0,2,,,,,,,,,1,,,67,0
11326,note_on,94,0,7,,,,,,,,,6,,,67,0
11328,note_on,2,0,2,,,,,,,,,1,,,69,92
11328,note_on,2,0,7,,,,,,,,,6,,,69,108
11422,note_on,94,0,7,,,,,,,,,6,,,69,0
11422,note_on,94,0,2,,,,,,,,,1,,,69,0
11424,note_on,2,0,2,,,,,,,,,1,,,71,92
11424,note_on,2,0,7,,,,,,,,,6,,,71,108
11472,note_on,336,0,8,,,,,,,,,7,,,50,0
11472,note_on,336,0,4,,,,,,,,,3,,,50,0
11472,note_on,336,0,3,,,,,,,,,2,,,54,0
11472,note_on,0,0,8,,,,,,,,,7,,,54,0
11518,note_on,94,0,7,,,,,,,,,6,,,71,0
11518,note_on,94,0,2,,,,,,,,,1,,,71,0
11520,note_on,2,0,2,,,,,,,,,1,,,69,92
11520,note_on,1584,0,1,,,,,,,,,0,,,73,92
11520,note_on,0,0,7,,,,,,,,,6,,,73,92
11520,note_on,0,0,7,,,,,,,,,6,,,69,92
11520,note_on,48,0,3,,,,,,,,,2,,,64,92
11520,note_on,2,0,7,,,,,,,,,6,,,64,92
11520,note_on,48,0,4,,,,,,,,,3,,,45,92
11520,note_on,48,0,8,,,,,,,,,7,,,45,92
11614,note_on,94,0,7,,,,,,,,,6,,,69,0
11614,note_on,94,0,2,,,,,,,,,1,,,69,0
11616,note_on,2,0,2,,,,,,,,,1,,,67,92
11616,note_on,2,0,7,,,,,,,,,6,,,67,92
11680,note_on,160,0,1,,,,,,,,,0,,,73,0
11680,note_on,160,0,4,,,,,,,,,3,,,45,0
11680,note_on,160,0,3,,,,,,,,,2,,,64,0
11680,note_on,64,0,7,,,,,,,,,6,,,73,0
11680,note_on,160,0,8,,,,,,,,,7,,,45,0
11710,note_on,94,0,2,,,,,,,,,1,,,67,0
11710,note_on,0,0,7,,,,,,,,,6,,,67,0
11710,note_on,30,0,7,,,,,,,,,6,,,64,0
11712,note_on,32,0,3,,,,,,,,,2,,,64,92
11712,note_on,2,0,2,,,,,,,,,1,,,69,92
11712,note_on,2,0,7,,,,,,,,,6,,,64,92
11712,note_on,0,0,7,,,,,,,,,6,,,69,92
11712,note_on,0,0,7,,,,,,,,,6,,,73,92
11712,note_on,32,0,8,,,,,,,,,7,,,45,92
11712,note_on,32,0,1,,,,,,,,,0,,,73,92
11712,note_on,32,0,4,,,,,,,,,3,,,45,92
11806,note_on,94,0,2,,,,,,,,,1,,,69,0
11806,note_on,94,0,7,,,,,,,,,6,,,69,0
11808,note_on,2,0,7,,,,,,,,,6,,,71,92
11808,note_on,2,0,2,,,,,,,,,1,,,71,92
11872,note_on,160,0,8,,,,,,,,,7,,,45,0
11872,note_on,160,0,3,,,,,,,,,2,,,64,0
11872,note_on,160,0,4,,,,,,,,,3,,,45,0
11872,note_on,64,0,7,,,,,,,,,6,,,73,0
11872,note_on,160,0,1,,,,,,,,,0,,,73,0
11902,note_on,0,0,7,,,,,,,,,6,,,71,0
11902,note_on,30,0,7,,,,,,,,,6,,,64,0
11902,note_on,94,0,2,,,,,,,,,1,,,71,0
11904,note_on,32,0,4,,,,,,,,,3,,,45,92
11904,note_on,32,0,8,,,,,,,,,7,,,45,92
11904,note_on,32,0,1,,,,,,,,,0,,,73,92
11904,note_on,2,0,7,,,,,,,,,6,,,69,92
11904,note_on,0,0,7,,,,,,,,,6,,,73,92
11904,note_on,32,0,3,,,,,,,,,2,,,60,92
11904,note_on,2,0,2,,,,,,,,,1,,,69,92
11998,note_on,94,0,2,,,,,,,,,1,,,69,0
11998,note_on,94,0,7,,,,,,,,,6,,,69,0
12000,note_on,2,0,7,,,,,,,,,6,,,67,92
12000,note_on,2,0,2,,,,,,,,,1,,,67,92
12064,note_on,64,0,7,,,,,,,,,6,,,73,0
12064,note_on,160,0,4,,,,,,,,,3,,,45,0
12064,note_on,160,0,1,,,,,,,,,0,,,73,0
12064,note_on,160,0,8,,,,,,,,,7,,,45,0
12064,note_on,160,0,3,,,,,,,,,2,,,60,0
12094,note_on,30,0,7,,,,,,,,,6,,,67,0
12094,note_on,94,0,2,,,,,,,,,1,,,67,0
12096,note_on,0,0,7,,,,,,,,,6,,,73,92
12096,note_on,2,0,7,,,,,,,,,6,,,66,92
12096,note_on,32,0,1,,,,,,,,,0,,,73,92
12096,note_on,32,0,4,,,,,,,,,3,,,45,92
12096,note_on,2,0,2,,,,,,,,,1,,,66,92
12096,note_on,32,0,8,,,,,,,,,7,,,45,92
12096,note_on,32,0,3,,,,,,,,,2,,,60,92
12190,note_on,94,0,2,,,,,,,,,1,,,66,0
12190,note_on,94,0,7,,,,,,,,,6,,,66,0
12192,note_on,2,0,7,,,,,,,,,6,,,64,92
12192,note_on,2,0,2,,,,,,,,,1,,,64,92
12256,note_on,160,0,3,,,,,,,,,2,,,60,0
12256,note_on,160,0,8,,,,,,,,,7,,,45,0
12256,note_on,160,0,4,,,,,,,,,3,,,45,0
12256,note_on,64,0,7,,,,,,,,,6,,,73,0
12256,note_on,160,0,1,,,,,,,,,0,,,73,0
12286,note_on,94,0,2,,,,,,,,,1,,,64,0
12286,note_on,30,0,7,,,,,,,,,6,,,64,0
12288,note_on,0,0,7,,,,,,,,,6,,,74,92
12288,note_on,0,0,7,,,,,,,,,6,,,70,92
12288,note_on,2,0,7,,,,,,,,,6,,,66,92
12288,note_on,32,0,1,,,,,,,,,0,,,74,92
12288,note_on,32,0,8,,,,,,,,,7,,,54,92
12288,note_on,2,0,2,,,,,,,,,1,,,66,92
12288,note_on,32,0,3,,,,,,,,,2,,,58,92
12288,note_on,32,0,4,,,,,,,,,3,,,54,92
12544,note_on,256,0,7,,,,,,,,,6,,,66,0
12544,note_on,0,0,7,,,,,,,,,6,,,70,0
12544,note_on,256,0,2,,,,,,,,,1,,,66,0
12544,note_on,256,0,3,,,,,,,,,2,,,58,0
12576,note_on,32,0,3,,,,,,,,,2,,,58,92
12576,note_on,32,0,7,,,,,,,,,6,,,64,92
12576,note_on,32,0,2,,,,,,,,,1,,,64,92
12576,note_on,0,0,7,,,,,,,,,6,,,70,92
12670,note_on,94,0,7,,,,,,,,,6,,,64,0
12670,note_on,94,0,3,,,,,,,,,2,,,58,0
12670,note_on,94,0,2,,,,,,,,,1,,,64,0
12670,note_on,0,0,7,,,,,,,,,6,,,70,0
12672,note_on,2,0,3,,,,,,,,,2,,,58,92
12672,note_on,0,0,7,,,,,,,,,6,,,70,92
12672,note_on,2,0,2,,,,,,,,,1,,,62,92
12672,note_on,2,0,7,,,,,,,,,6,,,62,92
12766,note_on,94,0,7,,,,,,,,,6,,,74,0
12766,note_on,478,0,1,,,,,,,,,0,,,74,0
12766,note_on,478,0,4,,,,,,,,,3,,,54,0
12766,note_on,478,0,8,,,,,,,,,7,,,54,0
12768,note_on,2,0,1,,,,,,,,,0,,,73,92
12768,note_on,2,0,4,,,,,,,,,3,,,52,92
12768,note_on,2,0,8,,,,,,,,,7,,,52,92
12768,note_on,2,0,7,,,,,,,,,6,,,73,92
12862,note_on,94,0,7,,,,,,,,,6,,,73,0
12862,note_on,94,0,4,,,,,,,,,3,,,52,0
12862,note_on,94,0,1,,,,,,,,,0,,,73,0
12862,note_on,94,0,8,,,,,,,,,7,,,52,0
12864,note_on,2,0,4,,,,,,,,,3,,,54,92
12864,note_on,2,0,8,,,,,,,,,7,,,54,92
12864,note_on,2,0,1,,,,,,,,,0,,,74,92
12864,note_on,2,0,7,,,,,,,,,6,,,74,92
12958,note_on,94,0,7,,,,,,,,,6,,,74,0
12958,note_on,94,0,1,,,,,,,,,0,,,74,0
12958,note_on,94,0,8,,,,,,,,,7,,,54,0
12958,note_on,94,0,4,,,,,,,,,3,,,54,0
12960,note_on,2,0,7,,,,,,,,,6,,,76,92
12960,note_on,2,0,4,,,,,,,,,3,,,55,92
12960,note_on,2,0,8,,,,,,,,,7,,,55,92
12960,note_on,2,0,1,,,,,,,,,0,,,76,92
13008,note_on,48,0,7,,,,,,,,,6,,,62,0
13008,note_on,336,0,2,,,,,,,,,1,,,62,0
13008,note_on,0,0,7,,,,,,,,,6,,,70,0
13008,note_on,336,0,3,,,,,,,,,2,,,58,0
13054,note_on,94,0,8,,,,,,,,,7,,,55,0
13054,note_on,46,0,7,,,,,,,,,6,,,76,0
13054,note_on,94,0,1,,,,,,,,,0,,,76,0
13054,note_on,94,0,4,,,,,,,,,3,,,55,0
13056,note_on,2,0,8,,,,,,,,,7,,,54,92
13056,note_on,2,0,1,,,,,,,,,0,,,74,92
13056,note_on,48,0,3,,,,,,,,,2,,,58,92
13056,note_on,2,0,4,,,,,,,,,3,,,54,92
13056,note_on,2,0,7,,,,,,,,,6,,,70,92
13056,note_on,0,0,7,,,,,,,,,6,,,74,92
13150,note_on,94,0,1,,,,,,,,,0,,,74,0
13150,note_on,94,0,7,,,,,,,,,6,,,74,0
13150,note_on,94,0,8,,,,,,,,,7,,,54,0
13150,note_on,94,0,4,,,,,,,,,3,,,54,0
13152,note_on,2,0,8,,,,,,,,,7,,,52,92
13152,note_on,2,0,1,,,,,,,,,0,,,73,92
13152,note_on,2,0,7,,,,,,,,,6,,,73,92
13152,note_on,2,0,4,,,,,,,,,3,,,52,92
13246,note_on,94,0,8,,,,,,,,,7,,,52,0
13246,note_on,94,0,7,,,,,,,,,6,,,73,0
13246,note_on,94,0,1,,,,,,,,,0,,,73,0
13246,note_on,94,0,4,,,,,,,,,3,,,52,0
13248,note_on,2,0,8,,,,,,,,,7,,,54,92
13248,note_on,2,0,4,,,,,,,,,3,,,54,92
13248,note_on,2,0,1,,,,,,,,,0,,,74,92
13248,note_on,2,0,7,,,,,,,,,6,,,74,92
13342,note_on,94,0,4,,,,,,,,,3,,,54,0
13342,note_on,94,0,1,,,,,,,,,0,,,74,0
13342,note_on,94,0,8,,,,,,,,,7,,,54,0
13342,note_on,94,0,7,,,,,,,,,6,,,74,0
13344,note_on,2,0,8,,,,,,,,,7,,,55,92
13344,note_on,2,0,1,,,,,,,,,0,,,76,92
13344,note_on,2,0,4,,,,,,,,,3,,,55,92
13344,note_on,2,0,7,,,,,,,,,6,,,76,92
13392,note_on,336,0,3,,,,,,,,,2,,,58,0
13392,note_on,48,0,7,,,,,,,,,6,,,70,0
13438,note_on,94,0,4,,,,,,,,,3,,,55,0
13438,note_on,94,0,1,,,,,,,,,0,,,76,0
13438,note_on,94,0,8,,,,,,,,,7,,,55,0
13438,note_on,46,0,7,,,,,,,,,6,,,76,0
13440,note_on,2,0,4,,,,,,,,,3,,,54,92
13440,note_on,0,0,7,,,,,,,,,6,,,74,92
13440,note_on,48,0,3,,,,,,,,,2,,,58,92
13440,note_on,2,0,1,,,,,,,,,0,,,74,92
13440,note_on,2,0,7,,,,,,,,,6,,,70,92
13440,note_on,2,0,8,,,,,,,,,7,,,54,92
13534,note_on,94,0,4,,,,,,,,,3,,,54,0
13534,note_on,94,0,8,,,,,,,,,7,,,54,0
13534,note_on,94,0,7,,,,,,,,,6,,,74,0
13534,note_on,94,0,1,,,,,,,,,0,,,74,0
13536,note_on,2,0,4,,,,,,,,,3,,,52,92
13536,note_on,2,0,1,,,,,,,,,0,,,73,92
13536,note_on,2,0,7,,,,,,,,,6,,,73,92
13536,note_on,2,0,8,,,,,,,,,7,,,52,92
13600,note_on,64,0,7,,,,,,,,,6,,,70,0
13600,note_on,160,0,3,,,,,,,,,2,,,58,0
13630,note_on,94,0,8,,,,,,,,,7,,,52,0
13630,note_on,94,0,4,,,,,,,,,3,,,52,0
13630,note_on,94,0,1,,,,,,,,,0,,,73,0
13630,note_on,30,0,7,,,,,,,,,6,,,73,0
13632,note_on,2,0,1,,,,,,,,,0,,,71,92
13632,note_on,2,0,8,,,,,,,,,7,,,50,92
13632,note_on,32,0,3,,,,,,,,,2,,,58,92
13632,note_on,2,0,4,,,,,,,,,3,,,50,92
13632,note_on,0,0,7,,,,,,,,,6,,,71,92
13632,note_on,2,0,7,,,,,,,,,6,,,66,92
13726,note_on,94,0,4,,,,,,,,,3,,,50,0
13726,note_on,94,0,1,,,,,,,,,0,,,71,0
13726,note_on,94,0,7,,,,,,,,,6,,,71,0
13726,note_on,94,0,8,,,,,,,,,7,,,50,0
13728,note_on,2,0,8,,,,,,,,,7,,,49,92
13728,note_on,2,0,7,,,,,,,,,6,,,70,92
13728,note_on,2,0,4,,,,,,,,,3,,,49,92
13728,note_on,2,0,1,,,,,,,,,0,,,70,92
13792,note_on,160,0,3,,,,,,,,,2,,,58,0
13792,note_on,64,0,7,,,,,,,,,6,,,66,0
13822,note_on,94,0,8,,,,,,,,,7,,,49,0
13822,note_on,94,0,1,,,,,,,,,0,,,70,0
13822,note_on,94,0,4,,,,,,,,,3,,,49,0
13822,note_on,30,0,7,,,,,,,,,6,,,70,0
13824,note_on,0,0,7,,,,,,,,,6,,,71,92
13824,note_on,32,0,3,,,,,,,,,2,,,54,92
13824,note_on,2,0,8,,,,,,,,,7,,,50,92
13824,note_on,816,0,2,,,,,,,,,1,,,66,92
13824,note_on,2,0,7,,,,,,,,,6,,,66,92
13824,note_on,2,0,1,,,,,,,,,0,,,71,92
13824,note_on,2,0,4,,,,,,,,,3,,,50,92
13984,note_on,160,0,7,,,,,,,,,6,,,66,0
13984,note_on,160,0,2,,,,,,,,,1,,,66,0
14016,note_on,32,0,7,,,,,,,,,6,,,66,92
14016,note_on,32,0,2,,,,,,,,,1,,,66,92
14080,note_on,64,0,7,,,,,,,,,6,,,71,0
14080,note_on,256,0,8,,,,,,,,,7,,,50,0
14080,note_on,256,0,4,,,,,,,,,3,,,50,0
14080,note_on,256,0,1,,,,,,,,,0,,,71,0
14112,note_on,32,0,4,,,,,,,,,3,,,49,92
14112,note_on,32,0,8,,,,,,,,,7,,,49,92
14112,note_on,32,0,7,,,,,,,,,6,,,64,92
14112,note_on,32,0,1,,,,,,,,,0,,,71,92
14112,note_on,0,0,7,,,,,,,,,6,,,71,92
14160,note_on,336,0,3,,,,,,,,,2,,,54,0
14176,note_on,160,0,2,,,,,,,,,1,,,66,0
14206,note_on,0,0,7,,,,,,,,,6,,,71,0
14206,note_on,94,0,4,,,,,,,,,3,,,49,0
14206,note_on,0,0,7,,,,,,,,,6,,,66,0
14206,note_on,94,0,7,,,,,,,,,6,,,64,0
14206,note_on,94,0,8,,,,,,,,,7,,,49,0
14206,note_on,94,0,1,,,,,,,,,0,,,71,0
14208,note_on,2,0,4,,,,,,,,,3,,,47,92
14208,note_on,2,0,7,,,,,,,,,6,,,62,92
14208,note_on,32,0,2,,,,,,,,,1,,,66,92
14208,note_on,48,0,3,,,,,,,,,2,,,54,92
14208,note_on,2,0,1,,,,,,,,,0,,,71,92
14208,note_on,2,0,8,,,,,,,,,7,,,47,92
14208,note_on,0,0,7,,,,,,,,,6,,,66,92
14208,note_on,0,0,7,,,,,,,,,6,,,71,92
14368,note_on,160,0,2,,,,,,,,,1,,,66,0
14368,note_on,160,0,7,,,,,,,,,6,,,66,0
14400,note_on,32,0,2,,,,,,,,,1,,,66,92
14400,note_on,32,0,7,,,,,,,,,6,,,66,92
14544,note_on,336,0,4,,,,,,,,,3,,,47,0
14544,note_on,336,0,3,,,,,,,,,2,,,54,0
14544,note_on,336,0,1,,,,,,,,,0,,,71,0
14544,note_on,336,0,8,,,,,,,,,7,,,47,0
14544,note_on,144,0,7,,,,,,,,,6,,,71,0
14560,note_on,0,0,7,,,,,,,,,6,,,66,0
14560,note_on,160,0,2,,,,,,,,,1,,,66,0
14560,note_on,16,0,7,,,,,,,,,6,,,62,0
14592,note_on,32,0,7,,,,,,,,,6,,,62,75
14592,note_on,0,0,7,,,,,,,,,6,,,67,75
14592,note_on,0,0,7,,,,,,,,,6,,,71,75
14592,note_on,48,0,4,,,,,,,,,3,,,47,75
14592,note_on,48,0,3,,,,,,,,,2,,,62,75
14592,note_on,48,0,1,,,,,,,,,0,,,71,75
14592,note_on,48,0,8,,,,,,,,,7,,,47,75
14592,note_on,32,0,2,,,,,,,,,1,,,67,75
14752,note_on,160,0,3,,,,,,,,,2,,,62,0
14752,note_on,160,0,1,,,,,,,,,0,,,71,0
14752,note_on,0,0,7,,,,,,,,,6,,,71,0
14752,note_on,160,0,7,,,,,,,,,6,,,62,0
14752,note_on,160,0,4,,,,,,,,,3,,,47,0
14752,note_on,160,0,8,,,,,,,,,7,,,47,0
14784,note_on,32,0,4,,,,,,,,,3,,,47,75
14784,note_on,32,0,3,,,,,,,,,2,,,62,75
14784,note_on,32,0,1,,,,,,,,,0,,,71,75
14784,note_on,0,0,7,,,,,,,,,6,,,71,75
14784,note_on,32,0,7,,,,,,,,,6,,,62,75
14784,note_on,32,0,8,,,,,,,,,7,,,47,75
14944,note_on,160,0,1,,,,,,,,,0,,,71,0
14944,note_on,160,0,3,,,,,,,,,2,,,62,0
14944,note_on,160,0,7,,,,,,,,,6,,,62,0
14944,note_on,0,0,7,,,,,,,,,6,,,71,0
14944,note_on,160,0,4,,,,,,,,,3,,,47,0
14944,note_on,160,0,8,,,,,,,,,7,,,47,0
14976,note_on,32,0,8,,,,,,,,,7,,,47,75
14976,note_on,32,0,7,,,,,,,,,6,,,62,75
14976,note_on,0,0,7,,,,,,,,,6,,,71,75
14976,note_on,32,0,3,,,,,,,,,2,,,62,75
14976,note_on,32,0,1,,,,,,,,,0,,,71,75
14976,note_on,32,0,4,,,,,,,,,3,,,47,75
15136,note_on,160,0,7,,,,,,,,,6,,,62,0
15136,note_on,160,0,4,,,,,,,,,3,,,47,0
15136,note_on,0,0,7,,,,,,,,,6,,,71,0
15136,note_on,160,0,8,,,,,,,,,7,,,47,0
15136,note_on,160,0,3,,,,,,,,,2,,,62,0
15136,note_on,160,0,1,,,,,,,,,0,,,71,0
15168,note_on,32,0,1,,,,,,,,,0,,,71,75
15168,note_on,32,0,4,,,,,,,,,3,,,47,75
15168,note_on,32,0,7,,,,,,,,,6,,,62,75
15168,note_on,0,0,7,,,,,,,,,6,,,71,75
15168,note_on,32,0,3,,,,,,,,,2,,,62,75
15168,note_on,32,0,8,,,,,,,,,7,,,47,75
15328,note_on,160,0,4,,,,,,,,,3,,,47,0
15328,note_on,160,0,7,,,,,,,,,6,,,62,0
15328,note_on,160,0,1,,,,,,,,,0,,,71,0
15328,note_on,0,0,7,,,,,,,,,6,,,71,0
15328,note_on,160,0,3,,,,,,,,,2,,,62,0
15328,note_on,160,0,8,,,,,,,,,7,,,47,0
15360,note_on,32,0,4,,,,,,,,,3,,,48,75
15360,note_on,32,0,7,,,,,,,,,6,,,64,75
15360,note_on,0,0,7,,,,,,,,,6,,,69,75
15360,note_on,32,0,3,,,,,,,,,2,,,64,75
15360,note_on,32,0,8,,,,,,,,,7,,,48,75
15360,note_on,32,0,1,,,,,,,,,0,,,69,75
15696,note_on,336,0,8,,,,,,,,,7,,,48,0
15696,note_on,336,0,7,,,,,,,,,6,,,64,0
15696,note_on,1104,0,2,,,,,,,,,1,,,67,0
15696,note_on,0,0,7,,,,,,,,,6,,,67,0
15744,note_on,48,0,2,,,,,,,,,1,,,66,75
15744,note_on,384,0,4,,,,,,,,,3,,,48,0
15744,note_on,0,0,4,,,,,,,,,3,,,50,75
15744,note_on,0,0,7,,,,,,,,,6,,,66,75
15744,note_on,48,0,7,,,,,,,,,6,,,62,75
15744,note_on,384,0,3,,,,,,,,,2,,,64,0
15744,note_on,0,0,3,,,,,,,,,2,,,66,75
15744,note_on,48,0,8,,,,,,,,,7,,,50,75
16080,note_on,0,0,7,,,,,,,,,6,,,62,0
16080,note_on,336,0,8,,,,,,,,,7,,,50,0
16080,note_on,336,0,7,,,,,,,,,6,,,69,0
16080,note_on,336,0,4,,,,,,,,,3,,,50,0
16080,note_on,336,0,3,,,,,,,,,2,,,66,0
16128,note_on,768,0,1,,,,,,,,,0,,,69,0
16128,note_on,0,0,1,,,,,,,,,0,,,67,75
16128,note_on,48,0,8,,,,,,,,,7,,,47,75
16128,note_on,48,0,3,,,,,,,,,2,,,62,75
16128,note_on,48,0,4,,,,,,,,,3,,,47,75
16128,note_on,48,0,7,,,,,,,,,6,,,62,75
16128,note_on,0,0,7,,,,,,,,,6,,,67,75
16464,note_on,720,0,2,,,,,,,,,1,,,66,0
16464,note_on,336,0,4,,,,,,,,,3,,,47,0
16464,note_on,336,0,8,,,,,,,,,7,,,47,0
16464,note_on,336,0,1,,,,,,,,,0,,,67,0
16464,note_on,336,0,3,,,,,,,,,2,,,62,0
16464,note_on,336,0,7,,,,,,,,,6,,,62,0
16464,note_on,0,0,7,,,,,,,,,6,,,66,0
16512,note_on,48,0,2,,,,,,,,,1,,,64,75
16512,note_on,48,0,4,,,,,,,,,3,,,48,75
16512,note_on,48,0,3,,,,,,,,,2,,,64,75
16512,note_on,48,0,1,,,,,,,,,0,,,67,75
16512,note_on,48,0,7,,,,,,,,,6,,,64,75
16512,note_on,48,0,8,,,,,,,,,7,,,48,75
16848,note_on,336,0,7,,,,,,,,,6,,,67,0
16848,note_on,336,0,8,,,,,,,,,7,,,48,0
16848,note_on,336,0,3,,,,,,,,,2,,,64,0
16848,note_on,336,0,2,,,,,,,,,1,,,64,0
16848,note_on,336,0,1,,,,,,,,,0,,,67,0
16848,note_on,336,0,4,,,,,,,,,3,,,48,0
16896,note_on,48,0,2,,,,,,,,,1,,,64,75
16896,note_on,48,0,1,,,,,,,,,0,,,66,75
16896,note_on,48,0,8,,,,,,,,,7,,,45,75
16896,note_on,48,0,3,,,,,,,,,2,,,60,75
16896,note_on,48,0,4,,,,,,,,,3,,,45,75
16896,note_on,48,0,7,,,,,,,,,6,,,60,75
16896,note_on,0,0,7,,,,,,,,,6,,,66,75
17232,note_on,336,0,2,,,,,,,,,1,,,64,0
17232,note_on,336,0,7,,,,,,,,,6,,,60,0
17232,note_on,0,0,7,,,,,,,,,6,,,64,0
17232,note_on,336,0,8,,,,,,,,,7,,,45,0
17280,note_on,48,0,2,,,,,,,,,1,,,63,75
17280,note_on,48,0,7,,,,,,,,,6,,,59,75
17280,note_on,0,0,7,,,,,,,,,6,,,63,75
17280,note_on,0,0,4,,,,,,,,,3,,,47,75
17280,note_on,384,0,4,,,,,,,,,3,,,45,0
17280,note_on,48,0,8,,,,,,,,,7,,,47,75
17280,note_on,384,0,3,,,,,,,,,2,,,60,0
17280,note_on,0,0,3,,,,,,,,,2,,,59,75
17280,note_on,0,0,1,,,,,,,,,0,,,66,75
17280,note_on,384,0,1,,,,,,,,,0,,,66,0
17616,note_on,336,0,1,,,,,,,,,0,,,66,0
17616,note_on,336,0,4,,,,,,,,,3,,,47,0
17616,note_on,336,0,3,,,,,,,,,2,,,59,0
17616,note_on,336,0,2,,,,,,,,,1,,,63,0
17616,note_on,336,0,7,,,,,,,,,6,,,66,0
17616,note_on,0,0,7,,,,,,,,,6,,,59,0
17616,note_on,0,0,7,,,,,,,,,6,,,63,0
17616,note_on,336,0,8,,,,,,,,,7,,,47,0
17664,note_on,48,0,7,,,,,,,,,6,,,76,108
17664,note_on,48,0,3,,,,,,,,,2,,,64,108
17824,note_on,160,0,3,,,,,,,,,2,,,64,0
17824,note_on,160,0,7,,,,,,,,,6,,,76,0
17856,note_on,32,0,7,,,,,,,,,6,,,76,108
17856,note_on,32,0,3,,,,,,,,,2,,,64,108
18016,note_on,160,0,7,,,,,,,,,6,,,76,0
18016,note_on,160,0,3,,,,,,,,,2,,,64,0
18048,note_on,32,0,7,,,,,,,,,6,,,76,108
18048,note_on,432,0,8,,,,,,,,,7,,,52,108
18048,note_on,32,0,3,,,,,,,,,2,,,64,108
18048,note_on,432,0,4,,,,,,,,,3,,,52,108
18208,note_on,160,0,7,,,,,,,,,6,,,76,0
18208,note_on,160,0,8,,,,,,,,,7,,,52,0
18208,note_on,160,0,3,,,,,,,,,2,,,64,0
18208,note_on,160,0,4,,,,,,,,,3,,,52,0
18240,note_on,32,0,3,,,,,,,,,2,,,64,108
18240,note_on,32,0,4,,,,,,,,,3,,,52,108
18240,note_on,32,0,7,,,,,,,,,6,,,76,108
18240,note_on,32,0,8,,,,,,,,,7,,,52,108
18400,note_on,160,0,3,,,,,,,,,2,,,64,0
18400,note_on,160,0,4,,,,,,,,,3,,,52,0
18400,note_on,160,0,7,,,,,,,,,6,,,76,0
18400,note_on,160,0,8,,,,,,,,,7,,,52,0
18432,note_on,32,0,7,,,,,,,,,6,,,71,108
18432,note_on,32,0,3,,,,,,,,,2,,,63,108
18432,note_on,816,0,2,,,,,,,,,1,,,71,108
18432,note_on,0,0,8,,,,,,,,,7,,,54,108
18432,note_on,32,0,8,,,,,,,,,7,,,47,108
18432,note_on,32,0,4,,,,,,,,,3,,,47,108
18432,note_on,0,0,7,,,,,,,,,6,,,75,108
18592,note_on,0,0,7,,,,,,,,,6,,,75,0
18592,note_on,160,0,3,,,,,,,,,2,,,63,0
18592,note_on,160,0,2,,,,,,,,,1,,,71,0
18592,note_on,160,0,7,,,,,,,,,6,,,71,0
18624,note_on,32,0,7,,,,,,,,,6,,,71,108
18624,note_on,32,0,3,,,,,,,,,2,,,59,108
18624,note_on,32,0,2,,,,,,,,,1,,,71,108
18718,note_on,94,0,3,,,,,,,,,2,,,59,0
18720,note_on,96,0,7,,,,,,,,,6,,,73,108
18720,note_on,2,0,3,,,,,,,,,2,,,61,108
18768,note_on,336,0,4,,,,,,,,,3,,,47,0
18768,note_on,336,0,8,,,,,,,,,7,,,47,0
18768,note_on,0,0,8,,,,,,,,,7,,,54,0
18784,note_on,160,0,2,,,,,,,,,1,,,71,0
18814,note_on,94,0,7,,,,,,,,,6,,,71,0
18814,note_on,0,0,7,,,,,,,,,6,,,73,0
18814,note_on,94,0,3,,,,,,,,,2,,,61,0
18816,note_on,48,0,8,,,,,,,,,7,,,47,108
18816,note_on,48,0,4,,,,,,,,,3,,,47,108
18816,note_on,32,0,2,,,,,,,,,1,,,71,108
18816,note_on,0,0,8,,,,,,,,,7,,,54,108
18816,note_on,2,0,3,,,,,,,,,2,,,62,108
18816,note_on,0,0,7,,,,,,,,,6,,,74,108
18816,note_on,2,0,7,,,,,,,,,6,,,71,108
18976,note_on,160,0,7,,,,,,,,,6,,,71,0
18976,note_on,160,0,2,,,,,,,,,1,,,71,0
19008,note_on,32,0,2,,,,,,,,,1,,,71,108
19008,note_on,32,0,7,,,,,,,,,6,,,71,108
19152,note_on,336,0,8,,,,,,,,,7,,,47,0
19152,note_on,336,0,3,,,,,,,,,2,,,62,0
19152,note_on,0,0,8,,,,,,,,,7,,,54,0
19152,note_on,144,0,7,,,,,,,,,6,,,74,0
19152,note_on,336,0,4,,,,,,,,,3,,,47,0
19168,note_on,16,0,7,,,,,,,,,6,,,71,0
19168,note_on,160,0,2,,,,,,,,,1,,,71,0
19200,note_on,48,0,8,,,,,,,,,7,,,54,108
19200,note_on,48,0,4,,,,,,,,,3,,,54,108
19200,note_on,32,0,2,,,,,,,,,1,,,70,108
19200,note_on,32,0,7,,,,,,,,,6,,,70,108
19200,note_on,0,0,7,,,,,,,,,6,,,73,108
19200,note_on,48,0,3,,,,,,,,,2,,,61,108
19360,note_on,160,0,7,,,,,,,,,6,,,70,0
19360,note_on,0,0,7,,,,,,,,,6,,,73,0
19360,note_on,160,0,2,,,,,,,,,1,,,70,0
19360,note_on,160,0,3,,,,,,,,,2,,,61,0
19392,note_on,32,0,2,,,,,,,,,1,,,66,108
19392,note_on,0,0,7,,,,,,,,,6,,,69,108
19392,note_on,32,0,7,,,,,,,,,6,,,66,108
19392,note_on,32,0,3,,,,,,,,,2,,,57,108
19486,note_on,94,0,7,,,,,,,,,6,,,66,0
19486,note_on,94,0,3,,,,,,,,,2,,,57,0
19486,note_on,0,0,7,,,,,,,,,6,,,69,0
19486,note_on,94,0,2,,,,,,,,,1,,,66,0
19488,note_on,2,0,7,,,,,,,,,6,,,68,108
19488,note_on,0,0,7,,,,,,,,,6,,,71,108
19488,note_on,2,0,2,,,,,,,,,1,,,68,108
19488,note_on,2,0,3,,,,,,,,,2,,,59,108
19536,note_on,336,0,4,,,,,,,,,3,,,54,0
19536,note_on,336,0,8,,,,,,,,,7,,,54,0
19582,note_on,94,0,3,,,,,,,,,2,,,59,0
19582,note_on,0,0,7,,,,,,,,,6,,,71,0
19582,note_on,94,0,7,,,,,,,,,6,,,68,0
19582,note_on,94,0,2,,,,,,,,,1,,,68,0
19584,note_on,48,0,8,,,,,,,,,7,,,51,108
19584,note_on,0,0,7,,,,,,,,,6,,,72,108
19584,note_on,2,0,7,,,,,,,,,6,,,69,108
19584,note_on,2,0,3,,,,,,,,,2,,,60,108
19584,note_on,48,0,4,,,,,,,,,3,,,51,108
19584,note_on,2,0,2,,,,,,,,,1,,,69,108
19920,note_on,336,0,2,,,,,,,,,1,,,69,0
19920,note_on,336,0,3,,,,,,,,,2,,,60,0
19920,note_on,336,0,4,,,,,,,,,3,,,51,0
19920,note_on,336,0,8,,,,,,,,,7,,,51,0
19920,note_on,336,0,7,,,,,,,,,6,,,69,0
19920,note_on,0,0,7,,,,,,,,,6,,,72,0
19968,note_on,48,0,7,,,,,,,,,6,,,68,108
19968,note_on,48,0,4,,,,,,,,,3,,,52,108
19968,note_on,0,0,7,,,,,,,,,6,,,76,108
19968,note_on,2352,0,1,,,,,,,,,0,,,76,108
19968,note_on,48,0,2,,,,,,,,,1,,,68,108
19968,note_on,48,0,3,,,,,,,,,2,,,59,108
19968,note_on,48,0,8,,,,,,,,,7,,,52,108
19968,note_on,0,0,7,,,,,,,,,6,,,71,108
20128,note_on,160,0,1,,,,,,,,,0,,,76,0
20128,note_on,160,0,7,,,,,,,,,6,,,68,0
20128,note_on,0,0,7,,,,,,,,,6,,,76,0
20128,note_on,160,0,2,,,,,,,,,1,,,68,0
20160,note_on,32,0,2,,,,,,,,,1,,,64,108
20160,note_on,0,0,7,,,,,,,,,6,,,76,108
20160,note_on,32,0,7,,,,,,,,,6,,,64,108
20160,note_on,32,0,1,,,,,,,,,0,,,76,108
20254,note_on,94,0,2,,,,,,,,,1,,,64,0
20254,note_on,94,0,7,,,,,,,,,6,,,64,0
20256,note_on,2,0,7,,,,,,,,,6,,,66,108
20256,note_on,2,0,2,,,,,,,,,1,,,66,108
20304,note_on,336,0,3,,,,,,,,,2,,,59,0
20304,note_on,336,0,4,,,,,,,,,3,,,52,0
20304,note_on,336,0,8,,,,,,,,,7,,,52,0
20320,note_on,64,0,7,,,,,,,,,6,,,71,0
20320,note_on,160,0,1,,,,,,,,,0,,,76,0
20320,note_on,0,0,7,,,,,,,,,6,,,76,0
20350,note_on,30,0,7,,,,,,,,,6,,,66,0
20350,note_on,94,0,2,,,,,,,,,1,,,66,0
20352,note_on,32,0,1,,,,,,,,,0,,,76,108
20352,note_on,2,0,7,,,,,,,,,6,,,67,108
20352,note_on,0,0,7,,,,,,,,,6,,,73,108
20352,note_on,0,0,7,,,,,,,,,6,,,76,108
20352,note_on,48,0,4,,,,,,,,,3,,,46,108
20352,note_on,48,0,8,,,,,,,,,7,,,46,108
20352,note_on,2,0,2,,,,,,,,,1,,,67,108
20352,note_on,48,0,3,,,,,,,,,2,,,61,108
20512,note_on,160,0,1,,,,,,,,,0,,,76,0
20512,note_on,160,0,7,,,,,,,,,6,,,76,0
20544,note_on,32,0,1,,,,,,,,,0,,,76,108
20544,note_on,32,0,7,,,,,,,,,6,,,76,108
20688,note_on,0,0,7,,,,,,,,,6,,,73,0
20688,note_on,336,0,3,,,,,,,,,2,,,61,0
20688,note_on,336,0,8,,,,,,,,,7,,,46,0
20688,note_on,336,0,2,,,,,,,,,1,,,67,0
20688,note_on,144,0,7,,,,,,,,,6,,,67,0
20688,note_on,336,0,4,,,,,,,,,3,,,46,0
20704,note_on,16,0,7,,,,,,,,,6,,,76,0
20704,note_on,160,0,1,,,,,,,,,0,,,76,0
20736,note_on,48,0,8,,,,,,,,,7,,,47,108
20736,note_on,48,0,2,,,,,,,,,1,,,66,108
20736,note_on,32,0,1,,,,,,,,,0,,,75,108
20736,note_on,48,0,4,,,,,,,,,3,,,47,108
20736,note_on,48,0,3,,,,,,,,,2,,,54,108
20736,note_on,32,0,7,,,,,,,,,6,,,66,108
20736,note_on,0,0,7,,,,,,,,,6,,,75,108
20896,note_on,0,0,7,,,,,,,,,6,,,75,0
20896,note_on,160,0,1,,,,,,,,,0,,,75,0
20896,note_on,160,0,2,,,,,,,,,1,,,66,0
20896,note_on,160,0,7,,,,,,,,,6,,,66,0
20928,note_on,0,0,7,,,,,,,,,6,,,71,108
20928,note_on,32,0,7,,,,,,,,,6,,,62,108
20928,note_on,32,0,1,,,,,,,,,0,,,71,108
20928,note_on,0,0,7,,,,,,,,,6,,,66,108
20928,note_on,32,0,2,,,,,,,,,1,,,62,108
21022,note_on,94,0,7,,,,,,,,,6,,,62,0
21022,note_on,94,0,1,,,,,,,,,0,,,71,0
21022,note_on,94,0,2,,,,,,,,,1,,,62,0
21022,note_on,0,0,7,,,,,,,,,6,,,71,0
21022,note_on,0,0,7,,,,,,,,,6,,,66,0
21024,note_on,2,0,1,,,,,,,,,0,,,73,108
21024,note_on,2,0,7,,,,,,,,,6,,,64,108
21024,note_on,0,0,7,,,,,,,,,6,,,73,108
21024,note_on,2,0,2,,,,,,,,,1,,,64,108
21072,note_on,336,0,8,,,,,,,,,7,,,47,0
21072,note_on,336,0,3,,,,,,,,,2,,,54,0
21072,note_on,336,0,4,,,,,,,,,3,,,47,0
21118,note_on,94,0,2,,,,,,,,,1,,,64,0
21118,note_on,94,0,7,,,,,,,,,6,,,64,0
21118,note_on,0,0,7,,,,,,,,,6,,,73,0
21118,note_on,94,0,1,,,,,,,,,0,,,73,0
21120,note_on,2,0,1,,,,,,,,,0,,,74,108
21120,note_on,48,0,4,,,,,,,,,3,,,44,108
21120,note_on,48,0,8,,,,,,,,,7,,,44,108
21120,note_on,0,0,7,,,,,,,,,6,,,71,108
21120,note_on,0,0,7,,,,,,,,,6,,,74,108
21120,note_on,2,0,7,,,,,,,,,6,,,65,108
21120,note_on,2,0,2,,,,,,,,,1,,,65,108
21120,note_on,48,0,3,,,,,,,,,2,,,59,108
21456,note_on,336,0,8,,,,,,,,,7,,,44,0
21456,note_on,336,0,3,,,,,,,,,2,,,59,0
21456,note_on,0,0,7,,,,,,,,,6,,,74,0
21456,note_on,0,0,7,,,,,,,,,6,,,71,0
21456,note_on,336,0,4,,,,,,,,,3,,,44,0
21456,note_on,336,0,1,,,,,,,,,0,,,74,0
21456,note_on,336,0,2,,,,,,,,,1,,,65,0
21456,note_on,336,0,7,,,,,,,,,6,,,65,0
21504,note_on,48,0,3,,,,,,,,,2,,,52,108
21504,note_on,48,0,4,,,,,,,,,3,,,45,108
21504,note_on,48,0,8,,,,,,,,,7,,,45,108
21504,note_on,48,0,1,,,,,,,,,0,,,73,108
21504,note_on,48,0,2,,,,,,,,,1,,,64,108
21504,note_on,48,0,7,,,,,,,,,6,,,64,108
21504,note_on,0,0,7,,,,,,,,,6,,,73,108
21664,note_on,160,0,1,,,,,,,,,0,,,73,0
21664,note_on,160,0,7,,,,,,,,,6,,,73,0
21696,note_on,32,0,7,,,,,,,,,6,,,69,108
21696,note_on,32,0,1,,,,,,,,,0,,,69,108
21790,note_on,94,0,7,,,,,,,,,6,,,69,0
21790,note_on,94,0,1,,,,,,,,,0,,,69,0
21792,note_on,2,0,7,,,,,,,,,6,,,71,108
21792,note_on,2,0,1,,,,,,,,,0,,,71,108
21840,note_on,336,0,8,,,,,,,,,7,,,45,0
21840,note_on,336,0,3,,,,,,,,,2,,,52,0
21840,note_on,336,0,4,,,,,,,,,3,,,45,0
21886,note_on,94,0,7,,,,,,,,,6,,,71,0
21886,note_on,94,0,1,,,,,,,,,0,,,71,0
21888,note_on,2,0,7,,,,,,,,,6,,,72,108
21888,note_on,48,0,8,,,,,,,,,7,,,57,108
21888,note_on,2,0,1,,,,,,,,,0,,,72,108
21888,note_on,48,0,4,,,,,,,,,3,,,57,108
21888,note_on,48,0,3,,,,,,,,,2,,,57,108
22048,note_on,160,0,4,,,,,,,,,3,,,57,0
22048,note_on,160,0,7,,,,,,,,,6,,,72,0
22048,note_on,160,0,8,,,,,,,,,7,,,57,0
22048,note_on,160,0,3,,,,,,,,,2,,,57,0
22048,note_on,160,0,1,,,,,,,,,0,,,72,0
22080,note_on,32,0,1,,,,,,,,,0,,,71,108
22080,note_on,32,0,4,,,,,,,,,3,,,55,108
22080,note_on,32,0,3,,,,,,,,,2,,,59,108
22080,note_on,0,0,8,,,,,,,,,7,,,59,108
22080,note_on,32,0,8,,,,,,,,,7,,,55,108
22080,note_on,32,0,7,,,,,,,,,6,,,71,108
22224,note_on,144,0,7,,,,,,,,,6,,,64,0
22240,note_on,0,0,8,,,,,,,,,7,,,59,0
22240,note_on,160,0,8,,,,,,,,,7,,,55,0
22240,note_on,160,0,3,,,,,,,,,2,,,59,0
22240,note_on,160,0,1,,,,,,,,,0,,,71,0
22240,note_on,16,0,7,,,,,,,,,6,,,71,0
22240,note_on,160,0,4,,,,,,,,,3,,,55,0
22272,note_on,0,0,7,,,,,,,,,6,,,69,108
22272,note_on,32,0,7,,,,,,,,,6,,,64,108
22272,note_on,32,0,4,,,,,,,,,3,,,54,108
22272,note_on,0,0,8,,,,,,,,,7,,,60,108
22272,note_on,32,0,1,,,,,,,,,0,,,69,108
22272,note_on,32,0,8,,,,,,,,,7,,,54,108
22272,note_on,32,0,3,,,,,,,,,2,,,60,108
22432,note_on,160,0,7,,,,,,,,,6,,,64,0
22432,note_on,928,0,2,,,,,,,,,1,,,64,0
22432,note_on,160,0,1,,,,,,,,,0,,,69,0
22432,note_on,0,0,7,,,,,,,,,6,,,69,0
22464,note_on,32,0,7,,,,,,,,,6,,,63,108
22464,note_on,0,0,7,,,,,,,,,6,,,71,108
22464,note_on,32,0,2,,,,,,,,,1,,,63,108
22464,note_on,32,0,1,,,,,,,,,0,,,71,108
22608,note_on,336,0,8,,,,,,,,,7,,,60,0
22608,note_on,336,0,3,,,,,,,,,2,,,60,0
22624,note_on,160,0,2,,,,,,,,,1,,,63,0
22624,note_on,160,0,1,,,,,,,,,0,,,71,0
22624,note_on,0,0,7,,,,,,,,,6,,,71,0
22624,note_on,160,0,7,,,,,,,,,6,,,63,0
22656,note_on,32,0,2,,,,,,,,,1,,,64,108
22656,note_on,48,0,3,,,,,,,,,2,,,57,108
22656,note_on,32,0,7,,,,,,,,,6,,,64,108
22656,note_on,0,0,7,,,,,,,,,6,,,69,108
22656,note_on,0,0,7,,,,,,,,,6,,,73,108
22656,note_on,32,0,1,,,,,,,,,0,,,73,108
22816,note_on,160,0,7,,,,,,,,,6,,,64,0
22816,note_on,0,0,7,,,,,,,,,6,,,73,0
22816,note_on,160,0,2,,,,,,,,,1,,,64,0
22816,note_on,160,0,1,,,,,,,,,0,,,73,0
22848,note_on,32,0,1,,,,,,,,,0,,,75,108
22848,note_on,32,0,2,,,,,,,,,1,,,66,108
22848,note_on,0,0,7,,,,,,,,,6,,,75,108
22848,note_on,32,0,7,,,,,,,,,6,,,66,108
22992,note_on,384,0,8,,,,,,,,,7,,,54,0
22992,note_on,720,0,4,,,,,,,,,3,,,54,0
22992,note_on,336,0,3,,,,,,,,,2,,,57,0
23008,note_on,160,0,7,,,,,,,,,6,,,66,0
23008,note_on,160,0,2,,,,,,,,,1,,,66,0
23008,note_on,160,0,1,,,,,,,,,0,,,75,0
23008,note_on,0,0,7,,,,,,,,,6,,,69,0
23008,note_on,0,0,7,,,,,,,,,6,,,75,0
23040,note_on,48,0,8,,,,,,,,,7,,,52,108
23040,note_on,48,0,3,,,,,,,,,2,,,59,108
23040,note_on,32,0,2,,,,,,,,,1,,,67,108
23040,note_on,0,0,7,,,,,,,,,6,,,71,108
23040,note_on,0,0,7,,,,,,,,,6,,,76,108
23040,note_on,32,0,7,,,,,,,,,6,,,67,108
23040,note_on,32,0,1,,,,,,,,,0,,,76,108
23040,note_on,48,0,4,,,,,,,,,3,,,52,108
23200,note_on,160,0,8,,,,,,,,,7,,,52,0
23200,note_on,160,0,4,,,,,,,,,3,,,52,0
23232,note_on,32,0,4,,,,,,,,,3,,,54,108
23232,note_on,32,0,8,,,,,,,,,7,,,54,108
23392,note_on,160,0,4,,,,,,,,,3,,,54,0
23392,note_on,160,0,8,,,,,,,,,7,,,54,0
23424,note_on,32,0,4,,,,,,,,,3,,,55,108
23424,note_on,32,0,8,,,,,,,,,7,,,55,108
23584,note_on,160,0,4,,,,,,,,,3,,,55,0
23584,note_on,160,0,8,,,,,,,,,7,,,55,0
23616,note_on,32,0,8,,,,,,,,,7,,,57,108
23616,note_on,32,0,4,,,,,,,,,3,,,57,108
23760,note_on,0,0,7,,,,,,,,,6,,,76,0
23760,note_on,720,0,3,,,,,,,,,2,,,59,0
23760,note_on,720,0,2,,,,,,,,,1,,,67,0
23760,note_on,720,0,1,,,,,,,,,0,,,76,0
23760,note_on,0,0,7,,,,,,,,,6,,,71,0
23760,note_on,720,0,7,,,,,,,,,6,,,67,0
23776,note_on,160,0,8,,,,,,,,,7,,,57,0
23776,note_on,160,0,4,,,,,,,,,3,,,57,0
23808,note_on,32,0,8,,,,,,,,,7,,,47,127
23808,note_on,48,0,3,,,,,,,,,2,,,59,127
23808,note_on,48,0,1,,,,,,,,,0,,,75,127
23808,note_on,0,0,7,,,,,,,,,6,,,75,127
23808,note_on,48,0,7,,,,,,,,,6,,,66,127
23808,note_on,48,0,2,,,,,,,,,1,,,66,127
23808,note_on,32,0,4,,,,,,,,,3,,,47,127
23808,note_on,0,0,7,,,,,,,,,6,,,71,127
24144,note_on,336,0,7,,,,,,,,,6,,,66,0
24144,note_on,336,0,2,,,,,,,,,1,,,66,0
24144,note_on,336,0,1,,,,,,,,,0,,,75,0
24144,note_on,0,0,7,,,,,,,,,6,,,75,0
24192,note_on,0,0,7,,,,,,,,,6,,,76,127
24192,note_on,48,0,7,,,,,,,,,6,,,67,127
24192,note_on,48,0,2,,,,,,,,,1,,,67,127
24192,note_on,48,0,1,,,,,,,,,0,,,76,127
24528,note_on,336,0,2,,,,,,,,,1,,,67,0
24528,note_on,0,0,7,,,,,,,,,6,,,76,0
24528,note_on,336,0,7,,,,,,,,,6,,,67,0
24528,note_on,336,0,1,,,,,,,,,0,,,76,0
24528,note_on,720,0,3,,,,,,,,,2,,,59,0
24576,note_on,48,0,3,,,,,,,,,2,,,59,127
24576,note_on,48,0,2,,,,,,,,,1,,,66,127
24576,note_on,0,0,7,,,,,,,,,6,,,75,127
24576,note_on,48,0,1,,,,,,,,,0,,,75,127
24576,note_on,48,0,7,,,,,,,,,6,,,66,127
24912,note_on,336,0,2,,,,,,,,,1,,,66,0
24912,note_on,336,0,7,,,,,,,,,6,,,66,0
24912,note_on,0,0,7,,,,,,,,,6,,,75,0
24912,note_on,336,0,1,,,,,,,,,0,,,75,0
24960,note_on,48,0,1,,,,,,,,,0,,,76,127
24960,note_on,48,0,2,,,,,,,,,1,,,67,127
24960,note_on,0,0,7,,,,,,,,,6,,,76,127
24960,note_on,48,0,7,,,,,,,,,6,,,67,127
25296,note_on,336,0,2,,,,,,,,,1,,,67,0
25296,note_on,1488,0,4,,,,,,,,,3,,,47,0
25296,note_on,0,0,7,,,,,,,,,6,,,76,0
25296,note_on,0,0,7,,,,,,,,,6,,,71,0
25296,note_on,336,0,7,,,,,,,,,6,,,67,0
25296,note_on,720,0,3,,,,,,,,,2,,,59,0
25296,note_on,336,0,1,,,,,,,,,0,,,76,0
25344,note_on,48,0,2,,,,,,,,,1,,,66,127
25344,note_on,48,0,3,,,,,,,,,2,,,59,127
25344,note_on,0,0,7,,,,,,,,,6,,,75,127
25344,note_on,48,0,1,,,,,,,,,0,,,75,127
25344,note_on,48,0,7,,,,,,,,,6,,,66,127
25344,note_on,48,0,4,,,,,,,,,3,,,47,127
25344,note_on,0,0,7,,,,,,,,,6,,,71,127
25680,note_on,0,0,7,,,,,,,,,6,,,71,0
25680,note_on,336,0,2,,,,,,,,,1,,,66,0
25680,note_on,336,0,7,,,,,,,,,6,,,66,0
25728,note_on,48,0,2,,,,,,,,,1,,,71,127
25728,note_on,48,0,7,,,,,,,,,6,,,71,127
26064,note_on,720,0,1,,,,,,,,,0,,,75,0
26064,note_on,720,0,4,,,,,,,,,3,,,47,0
26064,note_on,336,0,2,,,,,,,,,1,,,71,0
26064,note_on,0,0,7,,,,,,,,,6,,,71,0
26064,note_on,336,0,7,,,,,,,,,6,,,75,0
26112,note_on,48,0,2,,,,,,,,,1,,,67,127
26112,note_on,48,0,4,,,,,,,,,3,,,47,127
26112,note_on,48,0,1,,,,,,,,,0,,,76,127
26112,note_on,0,0,7,,,,,,,,,6,,,76,127
26112,note_on,0,0,7,,,,,,,,,6,,,71,127
26112,note_on,48,0,7,,,,,,,,,6,,,67,127
26448,note_on,336,0,1,,,,,,,,,0,,,76,0
26448,note_on,336,0,7,,,,,,,,,6,,,67,0
26448,note_on,336,0,2,,,,,,,,,1,,,67,0
26496,note_on,48,0,2,,,,,,,,,1,,,66,127
26496,note_on,48,0,7,,,,,,,,,6,,,66,127
26496,note_on,48,0,1,,,,,,,,,0,,,76,127
26656,note_on,160,0,7,,,,,,,,,6,,,66,0
26656,note_on,160,0,2,,,,,,,,,1,,,66,0
26688,note_on,32,0,7,,,,,,,,,6,,,64,127
26688,note_on,32,0,2,,,,,,,,,1,,,64,127
26832,note_on,0,0,7,,,,,,,,,6,,,76,0
26832,note_on,144,0,7,,,,,,,,,6,,,71,0
26832,note_on,336,0,1,,,,,,,,,0,,,76,0
26832,note_on,720,0,4,,,,,,,,,3,,,47,0
26848,note_on,16,0,7,,,,,,,,,6,,,64,0
26848,note_on,160,0,2,,,,,,,,,1,,,64,0
26880,note_on,0,0,7,,,,,,,,,6,,,71,127
26880,note_on,0,0,7,,,,,,,,,6,,,76,127
26880,note_on,32,0,7,,,,,,,,,6,,,66,127
26880,note_on,48,0,4,,,,,,,,,3,,,47,127
26880,note_on,48,0,1,,,,,,,,,0,,,76,127
26880,note_on,32,0,2,,,,,,,,,1,,,66,127
27600,note_on,720,0,7,,,,,,,,,6,,,76,0
27600,note_on,720,0,1,,,,,,,,,0,,,76,0
27648,note_on,48,0,1,,,,,,,,,0,,,75,127
27648,note_on,48,0,7,,,,,,,,,6,,,75,127
28368,note_on,720,0,1,,,,,,,,,0,,,75,0
28368,note_on,4560,0,8,,,,,,,,,7,,,47,0
28368,note_on,0,0,7,,,,,,,,,6,,,75,0
28368,note_on,0,0,7,,,,,,,,,6,,,71,0
28368,note_on,720,0,7,,,,,,,,,6,,,66,0
28368,note_on,1488,0,4,,,,,,,,,3,,,47,0
28368,note_on,3024,0,3,,,,,,,,,2,,,59,0
28368,note_on,1488,0,2,,,,,,,,,1,,,66,0
28416,note_on,48,0,4,,,,,,,,,3,,,52,127
28416,end_of_track,0,1,0,,,,,,,,,,,,,
28416,set_tempo,27648,1,0,441176,,,,,,,,,,,,
28416,note_on,48,0,7,,,,,,,,,6,,,68,127
28416,note_on,0,0,7,,,,,,,,,6,,,71,127
28416,note_on,0,0,7,,,,,,,,,6,,,76,127
28416,note_on,48,0,1,,,,,,,,,0,,,76,127
28416,note_on,48,0,2,,,,,,,,,1,,,68,127
28416,note_on,0,0,8,,,,,,,,,7,,,52,127
28416,note_on,48,0,8,,,,,,,,,7,,,40,127
28416,note_on,48,0,3,,,,,,,,,2,,,59,127
29904,note_on,1488,0,2,,,,,,,,,1,,,68,0
29904,end_of_track,0,1,2,,,,,,,,,,,,,
29904,note_on,1488,0,4,,,,,,,,,3,,,52,0
29904,end_of_track,0,1,4,,,,,,,,,,,,,
29904,end_of_track,0,1,3,,,,,,,,,,,,,
29904,end_of_track,0,1,7,,,,,,,,,,,,,
29904,end_of_track,0,1,1,,,,,,,,,,,,,
29904,note_on,0,0,7,,,,,,,,,6,,,76,0
29904,note_on,0,0,7,,,,,,,,,6,,,71,0
29904,note_on,1488,0,7,,,,,,,,,6,,,68,0
29904,note_on,1488,0,8,,,,,,,,,7,,,40,0
29904,note_on,0,0,8,,,,,,,,,7,,,52,0
29904,end_of_track,0,1,8,,,,,,,,,,,,,
29904,note_on,1488,0,3,,,,,,,,,2,,,59,0
29904,note_on,1488,0,1,,,,,,,,,0,,,76,0
