tick,type,time,meta,track,tempo,key,numerator,denominator,clocks_per_click,notated_32nd_notes_per_beat,port,program,channel,control,value,note,velocity
0,track_name,0,1,0,,,,,,,,,,,,,
0,track_name,0,1,8,,,,,,,,,,,,,
0,midi_port,0,1,8,,,,,,,0,,,,,,
0,control_change,0,0,7,,,,,,,,,6,10,64,,
0,control_change,0,0,7,,,,,,,,,6,7,96,,
0,program_change,0,0,7,,,,,,,,0,6,,,,
0,track_name,0,1,7,,,,,,,,,,,,,
0,midi_port,0,1,7,,,,,,,0,,,,,,
0,control_change,0,0,15,,,,,,,,,14,10,64,,
0,control_change,0,0,6,,,,,,,,,5,10,64,,
0,control_change,0,0,6,,,,,,,,,5,7,96,,
0,program_change,0,0,6,,,,,,,,0,5,,,,
0,track_name,0,1,6,,,,,,,,,,,,,
0,midi_port,0,1,6,,,,,,,0,,,,,,
0,control_change,0,0,5,,,,,,,,,4,10,64,,
0,control_change,0,0,5,,,,,,,,,4,7,96,,
0,program_change,0,0,5,,,,,,,,0,4,,,,
0,track_name,0,1,5,,,,,,,,,,,,,
0,program_change,0,0,2,,,,,,,,48,1,,,,
0,control_change,0,0,2,,,,,,,,,1,7,127,,
0,control_change,0,0,2,,,,,,,,,1,10,64,,
0,midi_port,0,1,3,,,,,,,0,,,,,,
0,track_name,0,1,3,,,,,,,,,,,,,
0,program_change,0,0,3,,,,,,,,48,2,,,,
0,program_change,0,0,8,,,,,,,,0,7,,,,
0,control_change,0,0,3,,,,,,,,,2,7,127,,
0,midi_port,0,1,4,,,,,,,0,,,,,,
0,track_name,0,1,4,,,,,,,,,,,,,
0,program_change,0,0,4,,,,,,,,48,3,,,,
0,control_change,0,0,4,,,,,,,,,3,7,127,,
0,control_change,0,0,4,,,,,,,,,3,10,64,,
0,midi_port,0,1,5,,,,,,,0,,,,,,
0,control_change,0,0,3,,,,,,,,,2,10,64,,
0,control_change,0,0,8,,,,,,,,,7,7,96,,
0,control_change,0,0,8,,,,,,,,,7,10,64,,
0,midi_port,0,1,9,,,,,,,0,,,,,,
0,end_of_track,0,1,12,,,,,,,,,,,,,
0,midi_port,0,1,13,,,,,,,0,,,,,,
0,track_name,0,1,13,,,,,,,,,,,,,
0,control_change,0,0,13,,,,,,,,,12,7,127,,
0,control_change,0,0,13,,,,,,,,,12,10,64,,
0,end_of_track,0,1,13,,,,,,,,,,,,,
0,control_change,0,0,12,,,,,,,,,11,10,64,,
0,midi_port,0,1,14,,,,,,,0,,,,,,
0,control_change,0,0,14,,,,,,,,,13,7,127,,
0,control_change,0,0,14,,,,,,,,,13,10,64,,
0,end_of_track,0,1,14,,,,,,,,,,,,,
0,midi_port,0,1,15,,,,,,,0,,,,,,
0,track_name,0,1,15,,,,,,,,,,,,,
0,control_change,0,0,15,,,,,,,,,14,7,127,,
0,track_name,0,1,14,,,,,,,,,,,,,
0,track_name,0,1,2,,,,,,,,,,,,,
0,control_change,0,0,12,,,,,,,,,11,7,127,,
0,midi_port,0,1,12,,,,,,,0,,,,,,
0,track_name,0,1,9,,,,,,,,,,,,,
0,control_change,0,0,9,,,,,,,,,8,7,127,,
0,control_change,0,0,9,,,,,,,,,8,10,64,,
0,end_of_track,0,1,9,,,,,,,,,,,,,
0,midi_port,0,1,10,,,,,,,0,,,,,,
0,track_name,0,1,10,,,,,,,,,,,,,
0,track_name,0,1,12,,,,,,,,,,,,,
0,control_change,0,0,10,,,,,,,,,9,7,127,,
0,end_of_track,0,1,10,,,,,,,,,,,,,
0,midi_port,0,1,11,,,,,,,0,,,,,,
0,track_name,0,1,11,,,,,,,,,,,,,
0,control_change,0,0,11,,,,,,,,,10,7,127,,
0,control_change,0,0,11,,,,,,,,,10,10,64,,
0,end_of_track,0,1,11,,,,,,,,,,,,,
0,control_change,0,0,10,,,,,,,,,9,10,64,,
0,midi_port,0,1,2,,,,,,,0,,,,,,
0,end_of_track,0,1,15,,,,,,,,,,,,,
0,midi_port,0,1,1,,,,,,,0,,,,,,
0,time_signature,0,1,0,,,4,4,24,8,,,,,,,
0,key_signature,0,1,0,,D,,,,,,,,,,,
0,set_tempo,0,1,0,416666,,,,,,,,,,,,
0,copyright,0,1,0,,,,,,,,,,,,,
0,text,0,1,0,,,,,,,,,,,,,
0,control_change,0,0,1,,,,,,,,,0,10,64,,
0,text,0,1,0,,,,,,,,,,,,,
0,track_name,0,1,1,,,,,,,,,,,,,
0,program_change,0,0,1,,,,,,,,48,0,,,,
0,control_change,0,0,1,,,,,,,,,0,7,127,,
768,note_on,768,0,4,,,,,,,,,3,,,50,108
768,time_signature,0,1,0,,,2,2,24,8,,,,,,,
768,note_on,768,0,8,,,,,,,,,7,,,50,92
768,set_tempo,768,1,0,288461,,,,,,,,,,,,
1488,note_on,720,0,8,,,,,,,,,7,,,50,0
1488,note_on,720,0,4,,,,,,,,,3,,,50,0
1536,note_on,48,0,8,,,,,,,,,7,,,54,92
1536,note_on,48,0,4,,,,,,,,,3,,,54,108
1872,note_on,336,0,8,,,,,,,,,7,,,54,0
1872,note_on,336,0,4,,,,,,,,,3,,,54,0
1920,note_on,48,0,4,,,,,,,,,3,,,52,108
1920,note_on,48,0,8,,,,,,,,,7,,,52,92
2256,note_on,336,0,8,,,,,,,,,7,,,52,0
2256,note_on,336,0,4,,,,,,,,,3,,,52,0
2304,note_on,48,0,4,,,,,,,,,3,,,50,108
2304,note_on,48,0,8,,,,,,,,,7,,,50,92
2832,note_on,528,0,8,,,,,,,,,7,,,50,0
2832,note_on,528,0,4,,,,,,,,,3,,,50,0
2880,note_on,48,0,8,,,,,,,,,7,,,50,92
2880,note_on,48,0,4,,,,,,,,,3,,,50,108
3040,note_on,160,0,8,,,,,,,,,7,,,50,0
3040,note_on,160,0,4,,,,,,,,,3,,,50,0
3072,note_on,32,0,4,,,,,,,,,3,,,49,108
3072,note_on,32,0,8,,,,,,,,,7,,,49,92
3264,note_on,3264,0,1,,,,,,,,,0,,,69,108
3264,note_on,3264,0,7,,,,,,,,,6,,,69,92
3424,note_on,160,0,7,,,,,,,,,6,,,69,0
3424,note_on,160,0,1,,,,,,,,,0,,,69,0
3456,note_on,0,0,7,,,,,,,,,6,,,69,92
3456,note_on,32,0,7,,,,,,,,,6,,,64,92
3456,note_on,32,0,1,,,,,,,,,0,,,69,108
3616,note_on,160,0,1,,,,,,,,,0,,,69,0
3616,note_on,160,0,7,,,,,,,,,6,,,69,0
3648,note_on,32,0,1,,,,,,,,,0,,,69,108
3792,note_on,720,0,4,,,,,,,,,3,,,49,0
3792,note_on,720,0,8,,,,,,,,,7,,,49,0
3808,note_on,160,0,1,,,,,,,,,0,,,69,0
3808,note_on,192,0,7,,,,,,,,,6,,,64,0
3840,note_on,48,0,8,,,,,,,,,7,,,50,92
3840,note_on,48,0,4,,,,,,,,,3,,,50,108
3840,note_on,0,0,7,,,,,,,,,6,,,69,92
3840,note_on,32,0,1,,,,,,,,,0,,,66,108
3840,note_on,32,0,7,,,,,,,,,6,,,66,92
4096,note_on,256,0,1,,,,,,,,,0,,,66,0
4128,note_on,32,0,1,,,,,,,,,0,,,64,108
4176,note_on,336,0,7,,,,,,,,,6,,,69,0
4222,note_on,94,0,1,,,,,,,,,0,,,64,0
4224,note_on,48,0,7,,,,,,,,,6,,,74,92
4224,note_on,2,0,1,,,,,,,,,0,,,62,108
4384,note_on,160,0,1,,,,,,,,,0,,,62,0
4416,note_on,32,0,1,,,,,,,,,0,,,66,108
4560,note_on,336,0,7,,,,,,,,,6,,,66,0
4560,note_on,720,0,4,,,,,,,,,3,,,50,0
4560,note_on,720,0,8,,,,,,,,,7,,,50,0
4576,note_on,160,0,1,,,,,,,,,0,,,66,0
4608,note_on,48,0,4,,,,,,,,,3,,,47,108
4608,note_on,32,0,1,,,,,,,,,0,,,67,108
4608,note_on,48,0,8,,,,,,,,,7,,,47,92
4608,note_on,48,0,7,,,,,,,,,6,,,67,92
4768,note_on,160,0,1,,,,,,,,,0,,,67,0
4800,note_on,32,0,1,,,,,,,,,0,,,67,108
4894,note_on,94,0,1,,,,,,,,,0,,,67,0
4896,note_on,2,0,1,,,,,,,,,0,,,67,108
4944,note_on,336,0,8,,,,,,,,,7,,,47,0
4944,note_on,0,0,7,,,,,,,,,6,,,74,0
4944,note_on,336,0,7,,,,,,,,,6,,,67,0
4944,note_on,336,0,4,,,,,,,,,3,,,47,0
4990,note_on,94,0,1,,,,,,,,,0,,,67,0
4992,note_on,0,0,7,,,,,,,,,6,,,67,92
4992,note_on,0,0,7,,,,,,,,,6,,,71,92
4992,note_on,2,0,1,,,,,,,,,0,,,67,108
4992,note_on,48,0,7,,,,,,,,,6,,,62,92
4992,note_on,48,0,8,,,,,,,,,7,,,47,92
4992,note_on,48,0,4,,,,,,,,,3,,,47,108
5152,note_on,160,0,8,,,,,,,,,7,,,47,0
5152,note_on,160,0,7,,,,,,,,,6,,,71,0
5152,note_on,160,0,1,,,,,,,,,0,,,67,0
5152,note_on,160,0,4,,,,,,,,,3,,,47,0
5184,note_on,32,0,7,,,,,,,,,6,,,69,92
5184,note_on,32,0,8,,,,,,,,,7,,,47,92
5184,note_on,32,0,1,,,,,,,,,0,,,67,108
5184,note_on,32,0,4,,,,,,,,,3,,,47,108
5328,note_on,0,0,7,,,,,,,,,6,,,67,0
5328,note_on,144,0,7,,,,,,,,,6,,,62,0
5344,note_on,160,0,4,,,,,,,,,3,,,47,0
5344,note_on,160,0,1,,,,,,,,,0,,,67,0
5344,note_on,160,0,8,,,,,,,,,7,,,47,0
5344,note_on,16,0,7,,,,,,,,,6,,,69,0
5376,note_on,32,0,1,,,,,,,,,0,,,64,108
5376,note_on,0,0,7,,,,,,,,,6,,,68,92
5376,note_on,32,0,8,,,,,,,,,7,,,52,92
5376,note_on,32,0,7,,,,,,,,,6,,,64,92
5376,note_on,32,0,4,,,,,,,,,3,,,52,108
5712,note_on,336,0,8,,,,,,,,,7,,,52,0
5712,note_on,336,0,4,,,,,,,,,3,,,52,0
5712,note_on,336,0,7,,,,,,,,,6,,,68,0
5712,note_on,336,0,1,,,,,,,,,0,,,64,0
5760,note_on,48,0,1,,,,,,,,,0,,,64,108
5760,note_on,48,0,4,,,,,,,,,3,,,52,108
5760,note_on,48,0,8,,,,,,,,,7,,,52,92
5760,note_on,0,0,7,,,,,,,,,6,,,71,92
5760,note_on,48,0,7,,,,,,,,,6,,,68,92
5920,note_on,160,0,1,,,,,,,,,0,,,64,0
5952,note_on,32,0,1,,,,,,,,,0,,,64,108
6096,note_on,0,0,7,,,,,,,,,6,,,71,0
6096,note_on,0,0,7,,,,,,,,,6,,,68,0
6096,note_on,336,0,4,,,,,,,,,3,,,52,0
6096,note_on,336,0,8,,,,,,,,,7,,,52,0
6096,note_on,336,0,7,,,,,,,,,6,,,64,0
6112,note_on,160,0,1,,,,,,,,,0,,,64,0
6144,note_on,48,0,8,,,,,,,,,7,,,49,92
6144,note_on,32,0,1,,,,,,,,,0,,,69,108
6144,note_on,0,0,7,,,,,,,,,6,,,69,92
6144,note_on,48,0,4,,,,,,,,,3,,,49,108
6144,note_on,48,0,7,,,,,,,,,6,,,64,92
6304,note_on,160,0,1,,,,,,,,,0,,,69,0
6336,note_on,32,0,1,,,,,,,,,0,,,69,108
6430,note_on,94,0,1,,,,,,,,,0,,,69,0
6432,note_on,2,0,1,,,,,,,,,0,,,69,108
6480,note_on,336,0,8,,,,,,,,,7,,,49,0
6480,note_on,336,0,7,,,,,,,,,6,,,64,0
6480,note_on,336,0,4,,,,,,,,,3,,,49,0
6526,note_on,94,0,1,,,,,,,,,0,,,69,0
6528,note_on,48,0,8,,,,,,,,,7,,,49,92
6528,note_on,48,0,4,,,,,,,,,3,,,49,108
6528,note_on,48,0,7,,,,,,,,,6,,,76,92
6528,note_on,2,0,1,,,,,,,,,0,,,69,108
6688,note_on,160,0,1,,,,,,,,,0,,,69,0
6720,note_on,32,0,1,,,,,,,,,0,,,69,108
6864,note_on,336,0,8,,,,,,,,,7,,,49,0
6864,note_on,336,0,7,,,,,,,,,6,,,69,0
6864,note_on,0,0,7,,,,,,,,,6,,,76,0
6864,note_on,336,0,4,,,,,,,,,3,,,49,0
6880,note_on,160,0,1,,,,,,,,,0,,,69,0
6912,note_on,48,0,4,,,,,,,,,3,,,50,108
6912,note_on,48,0,8,,,,,,,,,7,,,50,92
6912,note_on,48,0,7,,,,,,,,,6,,,69,92
6912,note_on,0,0,7,,,,,,,,,6,,,78,92
6912,note_on,32,0,1,,,,,,,,,0,,,66,108
7072,note_on,160,0,4,,,,,,,,,3,,,50,0
7072,note_on,160,0,7,,,,,,,,,6,,,69,0
7072,note_on,160,0,8,,,,,,,,,7,,,50,0
7104,note_on,192,0,1,,,,,,,,,0,,,66,0
7104,note_on,0,0,1,,,,,,,,,0,,,68,108
7104,note_on,32,0,4,,,,,,,,,3,,,50,108
7104,note_on,32,0,8,,,,,,,,,7,,,50,92
7104,note_on,32,0,7,,,,,,,,,6,,,68,92
7248,note_on,144,0,7,,,,,,,,,6,,,78,0
7264,note_on,160,0,1,,,,,,,,,0,,,68,0
7264,note_on,160,0,8,,,,,,,,,7,,,50,0
7264,note_on,16,0,7,,,,,,,,,6,,,68,0
7264,note_on,160,0,4,,,,,,,,,3,,,50,0
7296,note_on,32,0,4,,,,,,,,,3,,,49,108
7296,note_on,32,0,7,,,,,,,,,6,,,69,92
7296,note_on,0,0,7,,,,,,,,,6,,,76,92
7296,note_on,32,0,1,,,,,,,,,0,,,69,108
7296,note_on,32,0,8,,,,,,,,,7,,,49,92
7456,note_on,0,0,7,,,,,,,,,6,,,76,0
7456,note_on,160,0,8,,,,,,,,,7,,,49,0
7456,note_on,160,0,4,,,,,,,,,3,,,49,0
7456,note_on,160,0,7,,,,,,,,,6,,,69,0
7488,note_on,32,0,7,,,,,,,,,6,,,69,92
7488,note_on,32,0,4,,,,,,,,,3,,,49,108
7488,note_on,32,0,8,,,,,,,,,7,,,49,92
7648,note_on,160,0,4,,,,,,,,,3,,,49,0
7648,note_on,160,0,8,,,,,,,,,7,,,49,0
7680,note_on,32,0,4,,,,,,,,,3,,,47,108
7680,note_on,32,0,8,,,,,,,,,7,,,47,92
7680,note_on,192,0,7,,,,,,,,,6,,,74,92
7840,note_on,160,0,7,,,,,,,,,6,,,74,0
7872,note_on,32,0,7,,,,,,,,,6,,,73,92
8016,note_on,144,0,7,,,,,,,,,6,,,69,0
8016,note_on,720,0,1,,,,,,,,,0,,,69,0
8032,note_on,16,0,7,,,,,,,,,6,,,73,0
8064,note_on,48,0,1,,,,,,,,,0,,,68,108
8064,note_on,32,0,7,,,,,,,,,6,,,68,92
8064,note_on,0,0,7,,,,,,,,,6,,,74,92
8400,note_on,720,0,4,,,,,,,,,3,,,47,0
8400,note_on,720,0,8,,,,,,,,,7,,,47,0
8400,note_on,336,0,7,,,,,,,,,6,,,68,0
8400,note_on,0,0,7,,,,,,,,,6,,,74,0
8400,note_on,336,0,1,,,,,,,,,0,,,68,0
8448,note_on,0,0,7,,,,,,,,,6,,,73,92
8448,note_on,48,0,8,,,,,,,,,7,,,45,92
8448,note_on,8448,0,2,,,,,,,,,1,,,69,108
8448,note_on,48,0,1,,,,,,,,,0,,,69,108
8448,note_on,48,0,4,,,,,,,,,3,,,45,108
8448,note_on,48,0,7,,,,,,,,,6,,,69,92
8784,note_on,336,0,7,,,,,,,,,6,,,69,0
8784,note_on,0,0,7,,,,,,,,,6,,,73,0
8832,note_on,8832,0,6,,,,,,,,,5,,,69,110
9168,note_on,336,0,6,,,,,,,,,5,,,69,0
9168,note_on,720,0,4,,,,,,,,,3,,,45,0
9168,note_on,720,0,8,,,,,,,,,7,,,45,0
9168,note_on,720,0,1,,,,,,,,,0,,,69,0
9168,note_on,720,0,2,,,,,,,,,1,,,69,0
9216,note_on,48,0,6,,,,,,,,,5,,,71,110
9216,note_on,48,0,2,,,,,,,,,1,,,71,108
9552,note_on,336,0,6,,,,,,,,,5,,,71,0
9552,note_on,336,0,2,,,,,,,,,1,,,71,0
9600,note_on,48,0,6,,,,,,,,,5,,,69,110
9600,note_on,48,0,2,,,,,,,,,1,,,69,108
9792,note_on,624,0,1,,,,,,,,,0,,,69,108
9792,note_on,1008,0,7,,,,,,,,,6,,,69,92
9936,note_on,336,0,2,,,,,,,,,1,,,69,0
9936,note_on,336,0,6,,,,,,,,,5,,,69,0
9952,note_on,160,0,7,,,,,,,,,6,,,69,0
9952,note_on,160,0,1,,,,,,,,,0,,,69,0
9984,note_on,48,0,2,,,,,,,,,1,,,67,108
9984,note_on,48,0,6,,,,,,,,,5,,,67,110
9984,note_on,32,0,1,,,,,,,,,0,,,71,108
9984,note_on,32,0,7,,,,,,,,,6,,,71,92
10144,note_on,160,0,1,,,,,,,,,0,,,71,0
10144,note_on,160,0,7,,,,,,,,,6,,,71,0
10176,note_on,32,0,7,,,,,,,,,6,,,69,92
10176,note_on,32,0,1,,,,,,,,,0,,,69,108
10336,note_on,160,0,1,,,,,,,,,0,,,69,0
10336,note_on,160,0,7,,,,,,,,,6,,,69,0
10368,note_on,32,0,7,,,,,,,,,6,,,71,92
10368,note_on,32,0,1,,,,,,,,,0,,,71,108
10512,note_on,528,0,6,,,,,,,,,5,,,67,0
10512,note_on,528,0,2,,,,,,,,,1,,,67,0
10528,note_on,160,0,7,,,,,,,,,6,,,71,0
10528,note_on,160,0,1,,,,,,,,,0,,,71,0
10560,note_on,32,0,1,,,,,,,,,0,,,73,108
10560,note_on,48,0,6,,,,,,,,,5,,,67,110
10560,note_on,48,0,2,,,,,,,,,1,,,67,108
10560,note_on,32,0,7,,,,,,,,,6,,,73,92
10720,note_on,160,0,1,,,,,,,,,0,,,73,0
10720,note_on,160,0,6,,,,,,,,,5,,,67,0
10720,note_on,160,0,7,,,,,,,,,6,,,73,0
10720,note_on,160,0,2,,,,,,,,,1,,,67,0
10752,note_on,32,0,6,,,,,,,,,5,,,66,110
10752,note_on,32,0,7,,,,,,,,,6,,,74,92
10752,note_on,32,0,2,,,,,,,,,1,,,66,108
10752,note_on,32,0,1,,,,,,,,,0,,,74,108
10912,note_on,160,0,1,,,,,,,,,0,,,74,0
10944,note_on,32,0,1,,,,,,,,,0,,,69,108
10944,note_on,1776,0,8,,,,,,,,,7,,,62,92
10944,note_on,10944,0,3,,,,,,,,,2,,,62,108
11088,note_on,336,0,7,,,,,,,,,6,,,74,0
11104,note_on,160,0,8,,,,,,,,,7,,,62,0
11104,note_on,160,0,1,,,,,,,,,0,,,69,0
11104,note_on,160,0,3,,,,,,,,,2,,,62,0
11136,note_on,48,0,7,,,,,,,,,6,,,69,92
11136,note_on,32,0,8,,,,,,,,,7,,,62,92
11136,note_on,32,0,1,,,,,,,,,0,,,74,108
11136,note_on,32,0,3,,,,,,,,,2,,,62,108
11296,note_on,160,0,3,,,,,,,,,2,,,62,0
11296,note_on,160,0,1,,,,,,,,,0,,,74,0
11296,note_on,160,0,8,,,,,,,,,7,,,62,0
11328,note_on,32,0,3,,,,,,,,,2,,,62,108
11328,note_on,32,0,8,,,,,,,,,7,,,62,92
11328,note_on,32,0,1,,,,,,,,,0,,,78,108
11472,note_on,336,0,7,,,,,,,,,6,,,69,0
11472,note_on,720,0,6,,,,,,,,,5,,,66,0
11472,note_on,720,0,2,,,,,,,,,1,,,66,0
11488,note_on,160,0,8,,,,,,,,,7,,,62,0
11488,note_on,160,0,1,,,,,,,,,0,,,78,0
11488,note_on,160,0,3,,,,,,,,,2,,,62,0
11520,note_on,32,0,8,,,,,,,,,7,,,61,92
11520,note_on,32,0,3,,,,,,,,,2,,,61,108
11520,note_on,48,0,7,,,,,,,,,6,,,76,92
11520,note_on,48,0,2,,,,,,,,,1,,,69,108
11520,note_on,32,0,1,,,,,,,,,0,,,76,108
11520,note_on,48,0,6,,,,,,,,,5,,,69,110
11776,note_on,256,0,8,,,,,,,,,7,,,61,0
11776,note_on,256,0,7,,,,,,,,,6,,,76,0
11776,note_on,256,0,3,,,,,,,,,2,,,61,0
11808,note_on,32,0,8,,,,,,,,,7,,,59,92
11808,note_on,32,0,7,,,,,,,,,6,,,74,92
11808,note_on,32,0,3,,,,,,,,,2,,,59,108
11902,note_on,94,0,3,,,,,,,,,2,,,59,0
11902,note_on,94,0,8,,,,,,,,,7,,,59,0
11902,note_on,94,0,7,,,,,,,,,6,,,74,0
11904,note_on,2,0,8,,,,,,,,,7,,,57,92
11904,note_on,2,0,3,,,,,,,,,2,,,57,108
11904,note_on,2,0,7,,,,,,,,,6,,,73,92
12064,note_on,160,0,8,,,,,,,,,7,,,57,0
12064,note_on,160,0,3,,,,,,,,,2,,,57,0
12064,note_on,160,0,7,,,,,,,,,6,,,73,0
12096,note_on,32,0,8,,,,,,,,,7,,,61,92
12096,note_on,32,0,3,,,,,,,,,2,,,61,108
12096,note_on,32,0,7,,,,,,,,,6,,,76,92
12240,note_on,720,0,6,,,,,,,,,5,,,69,0
12240,note_on,720,0,2,,,,,,,,,1,,,69,0
12240,note_on,720,0,1,,,,,,,,,0,,,76,0
12256,note_on,160,0,3,,,,,,,,,2,,,61,0
12256,note_on,160,0,8,,,,,,,,,7,,,61,0
12256,note_on,160,0,7,,,,,,,,,6,,,76,0
12288,note_on,32,0,3,,,,,,,,,2,,,62,108
12288,note_on,32,0,8,,,,,,,,,7,,,62,92
12288,note_on,48,0,2,,,,,,,,,1,,,66,108
12288,note_on,0,0,7,,,,,,,,,6,,,69,92
12288,note_on,48,0,1,,,,,,,,,0,,,69,108
12288,note_on,32,0,7,,,,,,,,,6,,,66,92
12448,note_on,160,0,8,,,,,,,,,7,,,62,0
12448,note_on,160,0,3,,,,,,,,,2,,,62,0
12480,note_on,32,0,8,,,,,,,,,7,,,62,92
12480,note_on,32,0,3,,,,,,,,,2,,,62,108
12574,note_on,94,0,8,,,,,,,,,7,,,62,0
12574,note_on,94,0,3,,,,,,,,,2,,,62,0
12576,note_on,2,0,3,,,,,,,,,2,,,62,108
12576,note_on,2,0,8,,,,,,,,,7,,,62,92
12624,note_on,336,0,7,,,,,,,,,6,,,66,0
12624,note_on,336,0,2,,,,,,,,,1,,,66,0
12624,note_on,336,0,1,,,,,,,,,0,,,69,0
12624,note_on,0,0,7,,,,,,,,,6,,,69,0
12670,note_on,94,0,8,,,,,,,,,7,,,62,0
12670,note_on,94,0,3,,,,,,,,,2,,,62,0
12672,note_on,48,0,7,,,,,,,,,6,,,74,92
12672,note_on,0,0,7,,,,,,,,,6,,,78,92
12672,note_on,48,0,2,,,,,,,,,1,,,66,108
12672,note_on,2,0,8,,,,,,,,,7,,,62,92
12672,note_on,2,0,3,,,,,,,,,2,,,62,108
12672,note_on,48,0,1,,,,,,,,,0,,,74,108
12832,note_on,160,0,3,,,,,,,,,2,,,62,0
12832,note_on,160,0,2,,,,,,,,,1,,,66,0
12832,note_on,160,0,8,,,,,,,,,7,,,62,0
12864,note_on,32,0,3,,,,,,,,,2,,,62,108
12864,note_on,32,0,8,,,,,,,,,7,,,62,92
12864,note_on,32,0,2,,,,,,,,,1,,,66,108
13008,note_on,336,0,7,,,,,,,,,6,,,74,0
13008,note_on,0,0,7,,,,,,,,,6,,,78,0
13024,note_on,160,0,3,,,,,,,,,2,,,62,0
13024,note_on,160,0,8,,,,,,,,,7,,,62,0
13024,note_on,160,0,2,,,,,,,,,1,,,66,0
13056,note_on,32,0,2,,,,,,,,,1,,,71,108
13056,note_on,32,0,8,,,,,,,,,7,,,59,92
13056,note_on,0,0,7,,,,,,,,,6,,,78,92
13056,note_on,48,0,7,,,,,,,,,6,,,74,92
13056,note_on,32,0,3,,,,,,,,,2,,,59,108
13312,note_on,256,0,7,,,,,,,,,6,,,78,0
13344,note_on,32,0,7,,,,,,,,,6,,,76,92
13392,note_on,336,0,8,,,,,,,,,7,,,59,0
13392,note_on,336,0,3,,,,,,,,,2,,,59,0
13392,note_on,720,0,1,,,,,,,,,0,,,74,0
13392,note_on,336,0,2,,,,,,,,,1,,,71,0
13392,note_on,48,0,7,,,,,,,,,6,,,74,0
13438,note_on,46,0,7,,,,,,,,,6,,,76,0
13440,note_on,48,0,1,,,,,,,,,0,,,71,108
13440,note_on,2,0,7,,,,,,,,,6,,,71,92
13440,note_on,0,0,7,,,,,,,,,6,,,74,92
13440,note_on,48,0,3,,,,,,,,,2,,,59,108
13440,note_on,48,0,2,,,,,,,,,1,,,71,108
13440,note_on,48,0,8,,,,,,,,,7,,,59,92
13600,note_on,160,0,7,,,,,,,,,6,,,71,0
13600,note_on,0,0,7,,,,,,,,,6,,,74,0
13600,note_on,160,0,3,,,,,,,,,2,,,59,0
13600,note_on,160,0,8,,,,,,,,,7,,,59,0
13632,note_on,32,0,7,,,,,,,,,6,,,69,92
13632,note_on,0,0,7,,,,,,,,,6,,,73,92
13632,note_on,32,0,8,,,,,,,,,7,,,59,92
13632,note_on,32,0,3,,,,,,,,,2,,,59,108
13776,note_on,336,0,2,,,,,,,,,1,,,71,0
13792,note_on,160,0,8,,,,,,,,,7,,,59,0
13792,note_on,160,0,3,,,,,,,,,2,,,59,0
13792,note_on,0,0,7,,,,,,,,,6,,,73,0
13792,note_on,160,0,7,,,,,,,,,6,,,69,0
13824,note_on,32,0,8,,,,,,,,,7,,,64,92
13824,note_on,48,0,2,,,,,,,,,1,,,68,108
13824,note_on,32,0,3,,,,,,,,,2,,,64,108
13824,note_on,0,0,7,,,,,,,,,6,,,71,92
13824,note_on,32,0,7,,,,,,,,,6,,,68,92
13984,note_on,160,0,8,,,,,,,,,7,,,64,0
13984,note_on,160,0,3,,,,,,,,,2,,,64,0
14016,note_on,32,0,3,,,,,,,,,2,,,64,108
14016,note_on,32,0,8,,,,,,,,,7,,,64,92
14110,note_on,94,0,3,,,,,,,,,2,,,64,0
14110,note_on,94,0,8,,,,,,,,,7,,,64,0
14112,note_on,2,0,3,,,,,,,,,2,,,64,108
14112,note_on,2,0,8,,,,,,,,,7,,,64,92
14160,note_on,336,0,2,,,,,,,,,1,,,68,0
14160,note_on,336,0,7,,,,,,,,,6,,,71,0
14160,note_on,720,0,1,,,,,,,,,0,,,71,0
14206,note_on,94,0,3,,,,,,,,,2,,,64,0
14206,note_on,94,0,8,,,,,,,,,7,,,64,0
14208,note_on,2,0,8,,,,,,,,,7,,,64,92
14208,note_on,48,0,1,,,,,,,,,0,,,76,108
14208,note_on,48,0,2,,,,,,,,,1,,,68,108
14208,note_on,48,0,7,,,,,,,,,6,,,76,92
14208,note_on,2,0,3,,,,,,,,,2,,,64,108
14368,note_on,160,0,8,,,,,,,,,7,,,64,0
14368,note_on,160,0,3,,,,,,,,,2,,,64,0
14400,note_on,32,0,3,,,,,,,,,2,,,64,108
14400,note_on,32,0,8,,,,,,,,,7,,,64,92
14544,note_on,336,0,2,,,,,,,,,1,,,68,0
14544,note_on,336,0,7,,,,,,,,,6,,,68,0
14560,note_on,160,0,3,,,,,,,,,2,,,64,0
14560,note_on,160,0,8,,,,,,,,,7,,,64,0
14592,note_on,48,0,7,,,,,,,,,6,,,69,92
14592,note_on,48,0,2,,,,,,,,,1,,,69,108
14592,note_on,32,0,3,,,,,,,,,2,,,61,108
14592,note_on,32,0,8,,,,,,,,,7,,,61,92
14752,note_on,160,0,2,,,,,,,,,1,,,69,0
14784,note_on,32,0,2,,,,,,,,,1,,,69,108
14928,note_on,336,0,7,,,,,,,,,6,,,69,0
14928,note_on,720,0,1,,,,,,,,,0,,,76,0
14928,note_on,336,0,8,,,,,,,,,7,,,61,0
14928,note_on,336,0,3,,,,,,,,,2,,,61,0
14928,note_on,0,0,7,,,,,,,,,6,,,76,0
14944,note_on,160,0,2,,,,,,,,,1,,,69,0
14976,note_on,48,0,1,,,,,,,,,0,,,69,108
14976,note_on,48,0,3,,,,,,,,,2,,,62,108
14976,note_on,32,0,2,,,,,,,,,1,,,66,108
14976,note_on,0,0,7,,,,,,,,,6,,,69,92
14976,note_on,48,0,8,,,,,,,,,7,,,62,92
14976,note_on,0,0,7,,,,,,,,,6,,,74,92
14976,note_on,48,0,7,,,,,,,,,6,,,66,92
15136,note_on,160,0,2,,,,,,,,,1,,,66,0
15168,note_on,32,0,2,,,,,,,,,1,,,66,108
15312,note_on,336,0,7,,,,,,,,,6,,,66,0
15312,note_on,0,0,7,,,,,,,,,6,,,69,0
15312,note_on,0,0,7,,,,,,,,,6,,,74,0
15312,note_on,336,0,1,,,,,,,,,0,,,69,0
15328,note_on,160,0,2,,,,,,,,,1,,,66,0
15360,note_on,48,0,7,,,,,,,,,6,,,69,92
15360,note_on,32,0,2,,,,,,,,,1,,,64,108
15360,note_on,0,0,7,,,,,,,,,6,,,76,92
15696,note_on,720,0,8,,,,,,,,,7,,,62,0
15696,note_on,720,0,3,,,,,,,,,2,,,62,0
15744,note_on,48,0,8,,,,,,,,,7,,,61,92
15744,note_on,48,0,3,,,,,,,,,2,,,61,108
16080,note_on,720,0,7,,,,,,,,,6,,,69,0
16080,note_on,0,0,7,,,,,,,,,6,,,76,0
16080,note_on,336,0,3,,,,,,,,,2,,,61,0
16080,note_on,336,0,8,,,,,,,,,7,,,61,0
16080,note_on,720,0,2,,,,,,,,,1,,,64,0
16128,note_on,48,0,8,,,,,,,,,7,,,62,92
16128,note_on,48,0,2,,,,,,,,,1,,,62,108
16128,note_on,48,0,3,,,,,,,,,2,,,62,108
16128,note_on,816,0,1,,,,,,,,,0,,,74,108
16128,note_on,0,0,7,,,,,,,,,6,,,78,92
16128,note_on,48,0,7,,,,,,,,,6,,,69,92
16464,note_on,336,0,8,,,,,,,,,7,,,62,0
16464,note_on,0,0,7,,,,,,,,,6,,,78,0
16464,note_on,336,0,7,,,,,,,,,6,,,69,0
16464,note_on,336,0,3,,,,,,,,,2,,,62,0
16512,note_on,48,0,8,,,,,,,,,7,,,62,92
16512,note_on,48,0,3,,,,,,,,,2,,,62,108
16512,note_on,48,0,7,,,,,,,,,6,,,66,92
16512,note_on,0,0,7,,,,,,,,,6,,,69,92
16512,note_on,0,0,7,,,,,,,,,6,,,74,92
16848,note_on,720,0,1,,,,,,,,,0,,,74,0
16848,note_on,0,0,7,,,,,,,,,6,,,69,0
16848,note_on,0,0,7,,,,,,,,,6,,,74,0
16848,note_on,336,0,7,,,,,,,,,6,,,66,0
16848,note_on,720,0,2,,,,,,,,,1,,,62,0
16896,note_on,0,0,7,,,,,,,,,6,,,69,92
16896,note_on,48,0,1,,,,,,,,,0,,,78,108
16896,note_on,48,0,7,,,,,,,,,6,,,66,92
17056,note_on,160,0,7,,,,,,,,,6,,,66,0
17088,note_on,32,0,7,,,,,,,,,6,,,68,92
17232,note_on,720,0,8,,,,,,,,,7,,,62,0
17232,note_on,144,0,7,,,,,,,,,6,,,69,0
17232,note_on,336,0,1,,,,,,,,,0,,,78,0
17232,note_on,720,0,3,,,,,,,,,2,,,62,0
17248,note_on,16,0,7,,,,,,,,,6,,,68,0
17280,note_on,0,0,7,,,,,,,,,6,,,76,92
17280,note_on,32,0,7,,,,,,,,,6,,,69,92
17280,note_on,432,0,2,,,,,,,,,1,,,69,108
17280,note_on,48,0,1,,,,,,,,,0,,,76,108
17280,note_on,48,0,3,,,,,,,,,2,,,61,108
17280,note_on,48,0,8,,,,,,,,,7,,,61,92
17616,note_on,336,0,8,,,,,,,,,7,,,61,0
17616,note_on,336,0,7,,,,,,,,,6,,,76,0
17616,note_on,336,0,3,,,,,,,,,2,,,61,0
17616,note_on,336,0,1,,,,,,,,,0,,,76,0
17664,note_on,48,0,1,,,,,,,,,0,,,74,108
17664,note_on,48,0,7,,,,,,,,,6,,,71,92
17664,note_on,48,0,3,,,,,,,,,2,,,62,108
17664,note_on,48,0,8,,,,,,,,,7,,,62,92
18000,note_on,720,0,2,,,,,,,,,1,,,69,0
18000,note_on,336,0,7,,,,,,,,,6,,,69,0
18000,note_on,336,0,8,,,,,,,,,7,,,62,0
18000,note_on,336,0,3,,,,,,,,,2,,,62,0
18048,note_on,48,0,2,,,,,,,,,1,,,68,108
18048,note_on,48,0,7,,,,,,,,,6,,,68,92
18048,note_on,48,0,3,,,,,,,,,2,,,64,108
18048,note_on,48,0,8,,,,,,,,,7,,,64,92
18192,note_on,528,0,1,,,,,,,,,0,,,74,0
18240,note_on,48,0,1,,,,,,,,,0,,,74,108
18384,note_on,336,0,8,,,,,,,,,7,,,64,0
18384,note_on,336,0,2,,,,,,,,,1,,,68,0
18384,note_on,336,0,3,,,,,,,,,2,,,64,0
18384,note_on,0,0,7,,,,,,,,,6,,,68,0
18384,note_on,336,0,7,,,,,,,,,6,,,71,0
18400,note_on,160,0,1,,,,,,,,,0,,,74,0
18432,note_on,48,0,2,,,,,,,,,1,,,69,108
18432,note_on,48,0,8,,,,,,,,,7,,,57,92
18432,note_on,48,0,3,,,,,,,,,2,,,57,108
18432,note_on,32,0,1,,,,,,,,,0,,,73,108
18432,note_on,48,0,7,,,,,,,,,6,,,69,92
18432,note_on,0,0,7,,,,,,,,,6,,,73,92
18592,note_on,160,0,8,,,,,,,,,7,,,57,0
18592,note_on,0,0,7,,,,,,,,,6,,,73,0
18592,note_on,160,0,7,,,,,,,,,6,,,69,0
18624,note_on,0,0,7,,,,,,,,,6,,,73,108
18624,note_on,0,0,7,,,,,,,,,6,,,76,108
18624,note_on,0,0,6,,,,,,,,,5,,,76,108
18624,note_on,0,0,6,,,,,,,,,5,,,73,108
18624,note_on,32,0,7,,,,,,,,,6,,,69,108
18624,note_on,9456,0,4,,,,,,,,,3,,,57,108
18624,note_on,6384,0,6,,,,,,,,,5,,,69,108
18624,note_on,32,0,8,,,,,,,,,7,,,57,108
18768,note_on,336,0,3,,,,,,,,,2,,,57,0
18768,note_on,336,0,2,,,,,,,,,1,,,69,0
18784,note_on,160,0,8,,,,,,,,,7,,,57,0
18784,note_on,160,0,7,,,,,,,,,6,,,69,0
18784,note_on,0,0,7,,,,,,,,,6,,,73,0
18784,note_on,0,0,7,,,,,,,,,6,,,76,0
18784,note_on,160,0,6,,,,,,,,,5,,,69,0
18784,note_on,0,0,6,,,,,,,,,5,,,73,0
18784,note_on,160,0,4,,,,,,,,,3,,,57,0
18784,note_on,0,0,6,,,,,,,,,5,,,76,0
18816,note_on,32,0,8,,,,,,,,,7,,,57,108
18816,note_on,0,0,7,,,,,,,,,6,,,73,108
18816,note_on,0,0,7,,,,,,,,,6,,,76,108
18816,note_on,32,0,7,,,,,,,,,6,,,69,108
18816,note_on,0,0,6,,,,,,,,,5,,,76,108
18816,note_on,32,0,4,,,,,,,,,3,,,57,108
18816,note_on,32,0,6,,,,,,,,,5,,,69,108
18816,note_on,48,0,3,,,,,,,,,2,,,57,108
18816,note_on,0,0,6,,,,,,,,,5,,,73,108
18976,note_on,160,0,4,,,,,,,,,3,,,57,0
18976,note_on,0,0,6,,,,,,,,,5,,,76,0
18976,note_on,0,0,7,,,,,,,,,6,,,73,0
18976,note_on,0,0,7,,,,,,,,,6,,,76,0
18976,note_on,160,0,7,,,,,,,,,6,,,69,0
18976,note_on,0,0,6,,,,,,,,,5,,,73,0
18976,note_on,160,0,6,,,,,,,,,5,,,69,0
18976,note_on,160,0,8,,,,,,,,,7,,,57,0
19008,note_on,32,0,4,,,,,,,,,3,,,57,108
19008,note_on,0,0,6,,,,,,,,,5,,,73,108
19008,note_on,32,0,6,,,,,,,,,5,,,69,108
19008,note_on,32,0,8,,,,,,,,,7,,,57,108
19008,note_on,0,0,6,,,,,,,,,5,,,76,108
19008,note_on,0,0,7,,,,,,,,,6,,,73,108
19008,note_on,0,0,7,,,,,,,,,6,,,76,108
19008,note_on,32,0,7,,,,,,,,,6,,,69,108
19152,note_on,720,0,1,,,,,,,,,0,,,73,0
19168,note_on,0,0,6,,,,,,,,,5,,,76,0
19168,note_on,160,0,4,,,,,,,,,3,,,57,0
19168,note_on,160,0,8,,,,,,,,,7,,,57,0
19168,note_on,0,0,7,,,,,,,,,6,,,76,0
19168,note_on,160,0,6,,,,,,,,,5,,,69,0
19168,note_on,0,0,6,,,,,,,,,5,,,73,0
19168,note_on,0,0,7,,,,,,,,,6,,,73,0
19168,note_on,160,0,7,,,,,,,,,6,,,69,0
19200,note_on,32,0,4,,,,,,,,,3,,,54,108
19200,note_on,32,0,8,,,,,,,,,7,,,54,108
19200,note_on,0,0,6,,,,,,,,,5,,,74,108
19200,note_on,432,0,2,,,,,,,,,1,,,69,108
19200,note_on,32,0,6,,,,,,,,,5,,,69,108
19200,note_on,0,0,7,,,,,,,,,6,,,78,108
19200,note_on,0,0,7,,,,,,,,,6,,,74,108
19200,note_on,32,0,7,,,,,,,,,6,,,69,108
19200,note_on,48,0,1,,,,,,,,,0,,,74,108
19200,note_on,0,0,6,,,,,,,,,5,,,78,108
19456,note_on,256,0,7,,,,,,,,,6,,,69,0
19456,note_on,0,0,7,,,,,,,,,6,,,74,0
19456,note_on,0,0,7,,,,,,,,,6,,,78,0
19456,note_on,256,0,4,,,,,,,,,3,,,54,0
19456,note_on,256,0,6,,,,,,,,,5,,,69,0
19456,note_on,0,0,6,,,,,,,,,5,,,74,0
19456,note_on,0,0,6,,,,,,,,,5,,,78,0
19456,note_on,256,0,8,,,,,,,,,7,,,54,0
19488,note_on,32,0,4,,,,,,,,,3,,,52,108
19488,note_on,0,0,7,,,,,,,,,6,,,78,108
19488,note_on,32,0,6,,,,,,,,,5,,,69,108
19488,note_on,0,0,6,,,,,,,,,5,,,74,108
19488,note_on,0,0,6,,,,,,,,,5,,,78,108
19488,note_on,0,0,7,,,,,,,,,6,,,74,108
19488,note_on,32,0,8,,,,,,,,,7,,,52,108
19488,note_on,32,0,7,,,,,,,,,6,,,69,108
19536,note_on,720,0,3,,,,,,,,,2,,,57,0
19582,note_on,94,0,6,,,,,,,,,5,,,69,0
19582,note_on,0,0,6,,,,,,,,,5,,,74,0
19582,note_on,94,0,7,,,,,,,,,6,,,69,0
19582,note_on,94,0,8,,,,,,,,,7,,,52,0
19582,note_on,0,0,7,,,,,,,,,6,,,74,0
19582,note_on,0,0,6,,,,,,,,,5,,,78,0
19582,note_on,0,0,7,,,,,,,,,6,,,78,0
19582,note_on,94,0,4,,,,,,,,,3,,,52,0
19584,note_on,2,0,7,,,,,,,,,6,,,69,108
19584,note_on,0,0,7,,,,,,,,,6,,,74,108
19584,note_on,0,0,7,,,,,,,,,6,,,78,108
19584,note_on,2,0,8,,,,,,,,,7,,,50,108
19584,note_on,2,0,6,,,,,,,,,5,,,69,108
19584,note_on,0,0,6,,,,,,,,,5,,,74,108
19584,note_on,0,0,6,,,,,,,,,5,,,78,108
19584,note_on,2,0,4,,,,,,,,,3,,,50,108
19584,note_on,48,0,3,,,,,,,,,2,,,62,108
19744,note_on,160,0,8,,,,,,,,,7,,,50,0
19744,note_on,0,0,6,,,,,,,,,5,,,78,0
19744,note_on,0,0,6,,,,,,,,,5,,,74,0
19744,note_on,160,0,6,,,,,,,,,5,,,69,0
19744,note_on,160,0,4,,,,,,,,,3,,,50,0
19744,note_on,0,0,7,,,,,,,,,6,,,78,0
19744,note_on,160,0,7,,,,,,,,,6,,,69,0
19744,note_on,0,0,7,,,,,,,,,6,,,74,0
19776,note_on,0,0,6,,,,,,,,,5,,,81,108
19776,note_on,0,0,7,,,,,,,,,6,,,74,108
19776,note_on,32,0,7,,,,,,,,,6,,,69,108
19776,note_on,32,0,6,,,,,,,,,5,,,69,108
19776,note_on,0,0,6,,,,,,,,,5,,,74,108
19776,note_on,32,0,4,,,,,,,,,3,,,54,108
19776,note_on,0,0,7,,,,,,,,,6,,,81,108
19776,note_on,32,0,8,,,,,,,,,7,,,54,108
19920,note_on,720,0,1,,,,,,,,,0,,,74,0
19920,note_on,720,0,2,,,,,,,,,1,,,69,0
19936,note_on,160,0,7,,,,,,,,,6,,,69,0
19936,note_on,0,0,6,,,,,,,,,5,,,81,0
19936,note_on,0,0,6,,,,,,,,,5,,,74,0
19936,note_on,160,0,6,,,,,,,,,5,,,69,0
19936,note_on,0,0,7,,,,,,,,,6,,,74,0
19936,note_on,160,0,4,,,,,,,,,3,,,54,0
19936,note_on,160,0,8,,,,,,,,,7,,,54,0
19936,note_on,0,0,7,,,,,,,,,6,,,81,0
19968,note_on,48,0,1,,,,,,,,,0,,,71,108
19968,note_on,48,0,2,,,,,,,,,1,,,67,108
19968,note_on,32,0,8,,,,,,,,,7,,,55,108
19968,note_on,0,0,7,,,,,,,,,6,,,74,108
19968,note_on,0,0,7,,,,,,,,,6,,,71,108
19968,note_on,32,0,4,,,,,,,,,3,,,55,108
19968,note_on,32,0,6,,,,,,,,,5,,,67,108
19968,note_on,0,0,6,,,,,,,,,5,,,71,108
19968,note_on,0,0,6,,,,,,,,,5,,,74,108
19968,note_on,32,0,7,,,,,,,,,6,,,67,108
20128,note_on,0,0,6,,,,,,,,,5,,,71,0
20128,note_on,0,0,6,,,,,,,,,5,,,74,0
20128,note_on,160,0,6,,,,,,,,,5,,,67,0
20128,note_on,0,0,7,,,,,,,,,6,,,74,0
20128,note_on,160,0,8,,,,,,,,,7,,,55,0
20128,note_on,160,0,4,,,,,,,,,3,,,55,0
20128,note_on,160,0,7,,,,,,,,,6,,,67,0
20128,note_on,0,0,7,,,,,,,,,6,,,71,0
20160,note_on,32,0,8,,,,,,,,,7,,,55,108
20160,note_on,32,0,7,,,,,,,,,6,,,67,108
20160,note_on,32,0,4,,,,,,,,,3,,,55,108
20160,note_on,0,0,6,,,,,,,,,5,,,74,108
20160,note_on,0,0,6,,,,,,,,,5,,,71,108
20160,note_on,32,0,6,,,,,,,,,5,,,67,108
20160,note_on,0,0,7,,,,,,,,,6,,,71,108
20160,note_on,0,0,7,,,,,,,,,6,,,74,108
20254,note_on,0,0,6,,,,,,,,,5,,,74,0
20254,note_on,0,0,6,,,,,,,,,5,,,71,0
20254,note_on,94,0,6,,,,,,,,,5,,,67,0
20254,note_on,94,0,7,,,,,,,,,6,,,67,0
20254,note_on,0,0,7,,,,,,,,,6,,,71,0
20254,note_on,94,0,4,,,,,,,,,3,,,55,0
20254,note_on,94,0,8,,,,,,,,,7,,,55,0
20254,note_on,0,0,7,,,,,,,,,6,,,74,0
20256,note_on,2,0,7,,,,,,,,,6,,,67,108
20256,note_on,0,0,7,,,,,,,,,6,,,71,108
20256,note_on,0,0,7,,,,,,,,,6,,,74,108
20256,note_on,2,0,4,,,,,,,,,3,,,55,108
20256,note_on,2,0,6,,,,,,,,,5,,,67,108
20256,note_on,0,0,6,,,,,,,,,5,,,71,108
20256,note_on,0,0,6,,,,,,,,,5,,,74,108
20256,note_on,2,0,8,,,,,,,,,7,,,55,108
20304,note_on,720,0,3,,,,,,,,,2,,,62,0
20304,note_on,336,0,1,,,,,,,,,0,,,71,0
20350,note_on,94,0,4,,,,,,,,,3,,,55,0
20350,note_on,94,0,8,,,,,,,,,7,,,55,0
20350,note_on,0,0,6,,,,,,,,,5,,,74,0
20350,note_on,0,0,7,,,,,,,,,6,,,74,0
20350,note_on,0,0,7,,,,,,,,,6,,,71,0
20350,note_on,0,0,6,,,,,,,,,5,,,71,0
20350,note_on,94,0,6,,,,,,,,,5,,,67,0
20350,note_on,94,0,7,,,,,,,,,6,,,67,0
20352,note_on,2,0,4,,,,,,,,,3,,,55,108
20352,note_on,48,0,1,,,,,,,,,0,,,71,108
20352,note_on,48,0,3,,,,,,,,,2,,,59,108
20352,note_on,2,0,8,,,,,,,,,7,,,55,108
20352,note_on,0,0,6,,,,,,,,,5,,,71,108
20352,note_on,0,0,6,,,,,,,,,5,,,74,108
20352,note_on,2,0,7,,,,,,,,,6,,,67,108
20352,note_on,0,0,7,,,,,,,,,6,,,74,108
20352,note_on,0,0,7,,,,,,,,,6,,,71,108
20352,note_on,2,0,6,,,,,,,,,5,,,67,108
20512,note_on,160,0,6,,,,,,,,,5,,,67,0
20512,note_on,160,0,7,,,,,,,,,6,,,67,0
20512,note_on,160,0,1,,,,,,,,,0,,,71,0
20512,note_on,0,0,7,,,,,,,,,6,,,74,0
20512,note_on,0,0,6,,,,,,,,,5,,,74,0
20512,note_on,0,0,6,,,,,,,,,5,,,71,0
20512,note_on,0,0,7,,,,,,,,,6,,,71,0
20512,note_on,160,0,4,,,,,,,,,3,,,55,0
20512,note_on,160,0,8,,,,,,,,,7,,,55,0
20544,note_on,0,0,7,,,,,,,,,6,,,74,108
20544,note_on,0,0,7,,,,,,,,,6,,,71,108
20544,note_on,32,0,7,,,,,,,,,6,,,67,108
20544,note_on,0,0,6,,,,,,,,,5,,,74,108
20544,note_on,32,0,6,,,,,,,,,5,,,67,108
20544,note_on,0,0,6,,,,,,,,,5,,,71,108
20544,note_on,32,0,8,,,,,,,,,7,,,55,108
20544,note_on,32,0,4,,,,,,,,,3,,,55,108
20544,note_on,32,0,1,,,,,,,,,0,,,71,108
20688,note_on,720,0,2,,,,,,,,,1,,,67,0
20704,note_on,160,0,4,,,,,,,,,3,,,55,0
20704,note_on,160,0,7,,,,,,,,,6,,,67,0
20704,note_on,0,0,7,,,,,,,,,6,,,74,0
20704,note_on,0,0,7,,,,,,,,,6,,,71,0
20704,note_on,160,0,8,,,,,,,,,7,,,55,0
20704,note_on,0,0,6,,,,,,,,,5,,,74,0
20704,note_on,0,0,6,,,,,,,,,5,,,71,0
20704,note_on,160,0,6,,,,,,,,,5,,,67,0
20704,note_on,160,0,1,,,,,,,,,0,,,71,0
20736,note_on,32,0,1,,,,,,,,,0,,,76,108
20736,note_on,0,0,6,,,,,,,,,5,,,80,108
20736,note_on,0,0,6,,,,,,,,,5,,,76,108
20736,note_on,48,0,2,,,,,,,,,1,,,68,108
20736,note_on,32,0,6,,,,,,,,,5,,,71,108
20736,note_on,32,0,4,,,,,,,,,3,,,52,108
20736,note_on,32,0,7,,,,,,,,,6,,,71,108
20736,note_on,0,0,7,,,,,,,,,6,,,76,108
20736,note_on,0,0,7,,,,,,,,,6,,,80,108
20736,note_on,32,0,8,,,,,,,,,7,,,52,108
21072,note_on,0,0,7,,,,,,,,,6,,,76,0
21072,note_on,0,0,7,,,,,,,,,6,,,80,0
21072,note_on,336,0,4,,,,,,,,,3,,,52,0
21072,note_on,336,0,8,,,,,,,,,7,,,52,0
21072,note_on,720,0,3,,,,,,,,,2,,,59,0
21072,note_on,336,0,1,,,,,,,,,0,,,76,0
21072,note_on,336,0,6,,,,,,,,,5,,,71,0
21072,note_on,0,0,6,,,,,,,,,5,,,76,0
21072,note_on,0,0,6,,,,,,,,,5,,,80,0
21072,note_on,336,0,7,,,,,,,,,6,,,71,0
21120,note_on,48,0,8,,,,,,,,,7,,,52,108
21120,note_on,0,0,7,,,,,,,,,6,,,80,108
21120,note_on,48,0,7,,,,,,,,,6,,,71,108
21120,note_on,0,0,7,,,,,,,,,6,,,76,108
21120,note_on,48,0,6,,,,,,,,,5,,,71,108
21120,note_on,0,0,6,,,,,,,,,5,,,80,108
21120,note_on,0,0,6,,,,,,,,,5,,,76,108
21120,note_on,48,0,4,,,,,,,,,3,,,52,108
21120,note_on,48,0,3,,,,,,,,,2,,,64,108
21120,note_on,48,0,1,,,,,,,,,0,,,76,108
21280,note_on,160,0,8,,,,,,,,,7,,,52,0
21280,note_on,160,0,6,,,,,,,,,5,,,71,0
21280,note_on,0,0,6,,,,,,,,,5,,,76,0
21280,note_on,0,0,6,,,,,,,,,5,,,80,0
21280,note_on,0,0,7,,,,,,,,,6,,,80,0
21280,note_on,0,0,7,,,,,,,,,6,,,76,0
21280,note_on,160,0,4,,,,,,,,,3,,,52,0
21280,note_on,160,0,7,,,,,,,,,6,,,71,0
21312,note_on,32,0,7,,,,,,,,,6,,,71,108
21312,note_on,0,0,7,,,,,,,,,6,,,76,108
21312,note_on,0,0,7,,,,,,,,,6,,,80,108
21312,note_on,32,0,8,,,,,,,,,7,,,52,108
21312,note_on,32,0,4,,,,,,,,,3,,,52,108
21312,note_on,0,0,6,,,,,,,,,5,,,76,108
21312,note_on,32,0,6,,,,,,,,,5,,,71,108
21312,note_on,0,0,6,,,,,,,,,5,,,80,108
21456,note_on,720,0,2,,,,,,,,,1,,,68,0
21456,note_on,336,0,1,,,,,,,,,0,,,76,0
21472,note_on,0,0,6,,,,,,,,,5,,,80,0
21472,note_on,0,0,6,,,,,,,,,5,,,76,0
21472,note_on,160,0,6,,,,,,,,,5,,,71,0
21472,note_on,160,0,8,,,,,,,,,7,,,52,0
21472,note_on,0,0,7,,,,,,,,,6,,,80,0
21472,note_on,160,0,7,,,,,,,,,6,,,71,0
21472,note_on,0,0,7,,,,,,,,,6,,,76,0
21472,note_on,160,0,4,,,,,,,,,3,,,52,0
21504,note_on,48,0,2,,,,,,,,,1,,,69,108
21504,note_on,0,0,7,,,,,,,,,6,,,76,108
21504,note_on,0,0,7,,,,,,,,,6,,,73,108
21504,note_on,32,0,4,,,,,,,,,3,,,57,108
21504,note_on,0,0,6,,,,,,,,,5,,,73,108
21504,note_on,32,0,8,,,,,,,,,7,,,57,108
21504,note_on,0,0,6,,,,,,,,,5,,,76,108
21504,note_on,48,0,1,,,,,,,,,0,,,73,108
21504,note_on,32,0,6,,,,,,,,,5,,,69,108
21504,note_on,32,0,7,,,,,,,,,6,,,69,108
21664,note_on,0,0,7,,,,,,,,,6,,,76,0
21664,note_on,160,0,6,,,,,,,,,5,,,69,0
21664,note_on,0,0,6,,,,,,,,,5,,,73,0
21664,note_on,0,0,7,,,,,,,,,6,,,73,0
21664,note_on,160,0,7,,,,,,,,,6,,,69,0
21664,note_on,160,0,4,,,,,,,,,3,,,57,0
21664,note_on,160,0,8,,,,,,,,,7,,,57,0
21664,note_on,0,0,6,,,,,,,,,5,,,76,0
21696,note_on,32,0,6,,,,,,,,,5,,,69,108
21696,note_on,0,0,6,,,,,,,,,5,,,73,108
21696,note_on,0,0,6,,,,,,,,,5,,,76,108
21696,note_on,32,0,4,,,,,,,,,3,,,57,108
21696,note_on,32,0,7,,,,,,,,,6,,,69,108
21696,note_on,0,0,7,,,,,,,,,6,,,76,108
21696,note_on,32,0,8,,,,,,,,,7,,,57,108
21696,note_on,0,0,7,,,,,,,,,6,,,73,108
21790,note_on,94,0,7,,,,,,,,,6,,,69,0
21790,note_on,0,0,7,,,,,,,,,6,,,73,0
21790,note_on,0,0,7,,,,,,,,,6,,,76,0
21790,note_on,94,0,6,,,,,,,,,5,,,69,0
21790,note_on,0,0,6,,,,,,,,,5,,,73,0
21790,note_on,0,0,6,,,,,,,,,5,,,76,0
21790,note_on,94,0,8,,,,,,,,,7,,,57,0
21790,note_on,94,0,4,,,,,,,,,3,,,57,0
21792,note_on,2,0,4,,,,,,,,,3,,,57,108
21792,note_on,2,0,8,,,,,,,,,7,,,57,108
21792,note_on,2,0,7,,,,,,,,,6,,,69,108
21792,note_on,0,0,7,,,,,,,,,6,,,73,108
21792,note_on,0,0,7,,,,,,,,,6,,,76,108
21792,note_on,2,0,6,,,,,,,,,5,,,69,108
21792,note_on,0,0,6,,,,,,,,,5,,,76,108
21792,note_on,0,0,6,,,,,,,,,5,,,73,108
21840,note_on,336,0,1,,,,,,,,,0,,,73,0
21840,note_on,720,0,3,,,,,,,,,2,,,64,0
21886,note_on,0,0,7,,,,,,,,,6,,,76,0
21886,note_on,0,0,7,,,,,,,,,6,,,73,0
21886,note_on,94,0,7,,,,,,,,,6,,,69,0
21886,note_on,0,0,6,,,,,,,,,5,,,76,0
21886,note_on,0,0,6,,,,,,,,,5,,,73,0
21886,note_on,94,0,6,,,,,,,,,5,,,69,0
21886,note_on,94,0,4,,,,,,,,,3,,,57,0
21886,note_on,94,0,8,,,,,,,,,7,,,57,0
21888,note_on,0,0,7,,,,,,,,,6,,,73,108
21888,note_on,2,0,7,,,,,,,,,6,,,69,108
21888,note_on,48,0,1,,,,,,,,,0,,,73,108
21888,note_on,2,0,4,,,,,,,,,3,,,57,108
21888,note_on,2,0,8,,,,,,,,,7,,,57,108
21888,note_on,48,0,3,,,,,,,,,2,,,61,108
21888,note_on,2,0,6,,,,,,,,,5,,,69,108
21888,note_on,0,0,6,,,,,,,,,5,,,73,108
21888,note_on,0,0,6,,,,,,,,,5,,,76,108
21888,note_on,0,0,7,,,,,,,,,6,,,76,108
22048,note_on,160,0,8,,,,,,,,,7,,,57,0
22048,note_on,160,0,4,,,,,,,,,3,,,57,0
22048,note_on,160,0,6,,,,,,,,,5,,,69,0
22048,note_on,0,0,6,,,,,,,,,5,,,73,0
22048,note_on,0,0,6,,,,,,,,,5,,,76,0
22048,note_on,0,0,7,,,,,,,,,6,,,76,0
22048,note_on,0,0,7,,,,,,,,,6,,,73,0
22048,note_on,160,0,7,,,,,,,,,6,,,69,0
22080,note_on,32,0,4,,,,,,,,,3,,,57,108
22080,note_on,32,0,6,,,,,,,,,5,,,69,108
22080,note_on,0,0,7,,,,,,,,,6,,,73,108
22080,note_on,0,0,7,,,,,,,,,6,,,76,108
22080,note_on,0,0,6,,,,,,,,,5,,,73,108
22080,note_on,32,0,8,,,,,,,,,7,,,57,108
22080,note_on,0,0,6,,,,,,,,,5,,,76,108
22080,note_on,32,0,7,,,,,,,,,6,,,69,108
22224,note_on,336,0,3,,,,,,,,,2,,,61,0
22224,note_on,336,0,1,,,,,,,,,0,,,73,0
22224,note_on,720,0,2,,,,,,,,,1,,,69,0
22240,note_on,0,0,7,,,,,,,,,6,,,73,0
22240,note_on,0,0,6,,,,,,,,,5,,,76,0
22240,note_on,0,0,6,,,,,,,,,5,,,73,0
22240,note_on,160,0,6,,,,,,,,,5,,,69,0
22240,note_on,160,0,7,,,,,,,,,6,,,69,0
22240,note_on,0,0,7,,,,,,,,,6,,,76,0
22240,note_on,160,0,8,,,,,,,,,7,,,57,0
22240,note_on,160,0,4,,,,,,,,,3,,,57,0
22272,note_on,32,0,7,,,,,,,,,6,,,69,108
22272,note_on,32,0,6,,,,,,,,,5,,,69,108
22272,note_on,32,0,8,,,,,,,,,7,,,54,108
22272,note_on,48,0,1,,,,,,,,,0,,,74,108
22272,note_on,48,0,3,,,,,,,,,2,,,66,108
22272,note_on,0,0,6,,,,,,,,,5,,,74,108
22272,note_on,0,0,6,,,,,,,,,5,,,81,108
22272,note_on,0,0,7,,,,,,,,,6,,,74,108
22272,note_on,0,0,7,,,,,,,,,6,,,78,108
22272,note_on,0,0,7,,,,,,,,,6,,,81,108
22272,note_on,32,0,4,,,,,,,,,3,,,54,108
22272,note_on,48,0,2,,,,,,,,,1,,,69,108
22432,note_on,160,0,1,,,,,,,,,0,,,74,0
22432,note_on,160,0,8,,,,,,,,,7,,,54,0
22464,note_on,32,0,1,,,,,,,,,0,,,74,108
22464,note_on,32,0,8,,,,,,,,,7,,,56,108
22464,note_on,0,0,4,,,,,,,,,3,,,56,108
22464,note_on,192,0,4,,,,,,,,,3,,,54,0
22608,note_on,0,0,7,,,,,,,,,6,,,81,0
22608,note_on,0,0,7,,,,,,,,,6,,,78,0
22608,note_on,0,0,6,,,,,,,,,5,,,74,0
22608,note_on,0,0,7,,,,,,,,,6,,,74,0
22608,note_on,0,0,6,,,,,,,,,5,,,81,0
22608,note_on,336,0,7,,,,,,,,,6,,,69,0
22608,note_on,336,0,6,,,,,,,,,5,,,69,0
22608,note_on,336,0,3,,,,,,,,,2,,,66,0
22624,note_on,160,0,8,,,,,,,,,7,,,56,0
22624,note_on,160,0,1,,,,,,,,,0,,,74,0
22624,note_on,160,0,4,,,,,,,,,3,,,56,0
22656,note_on,0,0,7,,,,,,,,,6,,,73,108
22656,note_on,48,0,7,,,,,,,,,6,,,69,108
22656,note_on,48,0,6,,,,,,,,,5,,,69,108
22656,note_on,48,0,3,,,,,,,,,2,,,64,108
22656,note_on,32,0,4,,,,,,,,,3,,,57,108
22656,note_on,0,0,6,,,,,,,,,5,,,73,108
22656,note_on,0,0,6,,,,,,,,,5,,,76,108
22656,note_on,0,0,7,,,,,,,,,6,,,76,108
22656,note_on,32,0,1,,,,,,,,,0,,,73,108
22656,note_on,32,0,8,,,,,,,,,7,,,57,108
22816,note_on,160,0,1,,,,,,,,,0,,,73,0
22848,note_on,32,0,1,,,,,,,,,0,,,73,108
22992,note_on,336,0,6,,,,,,,,,5,,,69,0
22992,note_on,720,0,2,,,,,,,,,1,,,69,0
22992,note_on,0,0,6,,,,,,,,,5,,,76,0
22992,note_on,0,0,6,,,,,,,,,5,,,73,0
22992,note_on,336,0,3,,,,,,,,,2,,,64,0
22992,note_on,0,0,7,,,,,,,,,6,,,76,0
22992,note_on,0,0,7,,,,,,,,,6,,,73,0
22992,note_on,336,0,7,,,,,,,,,6,,,69,0
23008,note_on,160,0,1,,,,,,,,,0,,,73,0
23040,note_on,0,0,7,,,,,,,,,6,,,74,108
23040,note_on,0,0,7,,,,,,,,,6,,,78,108
23040,note_on,48,0,6,,,,,,,,,5,,,66,108
23040,note_on,0,0,6,,,,,,,,,5,,,71,108
23040,note_on,0,0,6,,,,,,,,,5,,,78,108
23040,note_on,48,0,7,,,,,,,,,6,,,66,108
23040,note_on,48,0,3,,,,,,,,,2,,,62,108
23040,note_on,48,0,2,,,,,,,,,1,,,66,108
23040,note_on,32,0,1,,,,,,,,,0,,,71,108
23040,note_on,0,0,7,,,,,,,,,6,,,71,108
23376,note_on,336,0,6,,,,,,,,,5,,,66,0
23376,note_on,720,0,4,,,,,,,,,3,,,57,0
23376,note_on,720,0,8,,,,,,,,,7,,,57,0
23376,note_on,0,0,7,,,,,,,,,6,,,78,0
23376,note_on,336,0,7,,,,,,,,,6,,,66,0
23376,note_on,0,0,6,,,,,,,,,5,,,78,0
23376,note_on,336,0,2,,,,,,,,,1,,,66,0
23424,note_on,48,0,4,,,,,,,,,3,,,56,108
23424,note_on,48,0,6,,,,,,,,,5,,,76,108
23424,note_on,48,0,8,,,,,,,,,7,,,56,108
23424,note_on,48,0,2,,,,,,,,,1,,,71,108
23424,note_on,48,0,7,,,,,,,,,6,,,76,108
23760,note_on,336,0,4,,,,,,,,,3,,,56,0
23760,note_on,336,0,8,,,,,,,,,7,,,56,0
23760,note_on,336,0,2,,,,,,,,,1,,,71,0
23760,note_on,0,0,6,,,,,,,,,5,,,76,0
23760,note_on,336,0,6,,,,,,,,,5,,,71,0
23760,note_on,0,0,7,,,,,,,,,6,,,76,0
23760,note_on,0,0,7,,,,,,,,,6,,,74,0
23760,note_on,336,0,7,,,,,,,,,6,,,71,0
23760,note_on,720,0,1,,,,,,,,,0,,,71,0
23760,note_on,720,0,3,,,,,,,,,2,,,62,0
23808,note_on,48,0,6,,,,,,,,,5,,,76,108
23808,note_on,48,0,2,,,,,,,,,1,,,64,108
23808,note_on,48,0,1,,,,,,,,,0,,,69,108
23808,note_on,48,0,3,,,,,,,,,2,,,61,108
23808,note_on,48,0,8,,,,,,,,,7,,,57,108
23808,note_on,48,0,4,,,,,,,,,3,,,57,108
23808,note_on,48,0,7,,,,,,,,,6,,,69,108
23808,note_on,0,0,7,,,,,,,,,6,,,73,108
24144,note_on,336,0,6,,,,,,,,,5,,,76,0
24192,note_on,48,0,6,,,,,,,,,5,,,81,108
24528,note_on,720,0,7,,,,,,,,,6,,,69,0
24528,note_on,0,0,7,,,,,,,,,6,,,73,0
24528,note_on,720,0,3,,,,,,,,,2,,,61,0
24528,note_on,720,0,8,,,,,,,,,7,,,57,0
24528,note_on,720,0,1,,,,,,,,,0,,,69,0
24528,note_on,720,0,2,,,,,,,,,1,,,64,0
24528,note_on,720,0,4,,,,,,,,,3,,,57,0
24576,note_on,48,0,7,,,,,,,,,6,,,74,108
24736,note_on,544,0,6,,,,,,,,,5,,,81,0
24768,note_on,32,0,6,,,,,,,,,5,,,79,108
24928,note_on,160,0,6,,,,,,,,,5,,,79,0
24960,note_on,32,0,6,,,,,,,,,5,,,78,108
25104,note_on,528,0,7,,,,,,,,,6,,,74,0
25152,note_on,48,0,7,,,,,,,,,6,,,73,108
25312,note_on,160,0,7,,,,,,,,,6,,,73,0
25344,note_on,32,0,7,,,,,,,,,6,,,71,108
25504,note_on,544,0,6,,,,,,,,,5,,,78,0
25504,note_on,160,0,7,,,,,,,,,6,,,71,0
25536,note_on,32,0,6,,,,,,,,,5,,,76,108
25536,note_on,32,0,7,,,,,,,,,6,,,73,108
25696,note_on,160,0,7,,,,,,,,,6,,,73,0
25696,note_on,160,0,6,,,,,,,,,5,,,76,0
25728,note_on,32,0,7,,,,,,,,,6,,,74,108
25728,note_on,32,0,6,,,,,,,,,5,,,78,108
25888,note_on,160,0,6,,,,,,,,,5,,,78,0
25888,note_on,160,0,7,,,,,,,,,6,,,74,0
25920,note_on,32,0,7,,,,,,,,,6,,,74,108
26112,note_on,1584,0,8,,,,,,,,,7,,,69,108
26112,note_on,224,0,6,,,,,,,,,5,,,76,108
26448,note_on,528,0,7,,,,,,,,,6,,,74,0
26496,note_on,48,0,7,,,,,,,,,6,,,73,108
26496,note_on,0,0,7,,,,,,,,,6,,,76,108
26496,note_on,0,0,7,,,,,,,,,6,,,81,108
26640,note_on,528,0,8,,,,,,,,,7,,,69,0
26688,note_on,48,0,8,,,,,,,,,7,,,67,108
26832,note_on,336,0,7,,,,,,,,,6,,,73,0
26832,note_on,0,0,7,,,,,,,,,6,,,76,0
26832,note_on,720,0,6,,,,,,,,,5,,,76,0
26848,note_on,160,0,8,,,,,,,,,7,,,67,0
26880,note_on,48,0,6,,,,,,,,,5,,,74,108
26880,note_on,32,0,8,,,,,,,,,7,,,66,108
27040,note_on,160,0,8,,,,,,,,,7,,,66,0
27040,note_on,208,0,7,,,,,,,,,6,,,81,0
27072,note_on,32,0,8,,,,,,,,,7,,,64,108
27072,note_on,32,0,7,,,,,,,,,6,,,79,108
27232,note_on,160,0,7,,,,,,,,,6,,,79,0
27232,note_on,160,0,8,,,,,,,,,7,,,64,0
27264,note_on,32,0,8,,,,,,,,,7,,,62,108
27264,note_on,32,0,7,,,,,,,,,6,,,78,108
27424,note_on,160,0,7,,,,,,,,,6,,,78,0
27456,note_on,32,0,7,,,,,,,,,6,,,76,108
27600,note_on,336,0,8,,,,,,,,,7,,,62,0
27600,note_on,720,0,6,,,,,,,,,5,,,74,0
27616,note_on,160,0,7,,,,,,,,,6,,,76,0
27648,note_on,32,0,7,,,,,,,,,6,,,74,108
27648,note_on,27648,0,5,,,,,,,,,4,,,81,110
27984,note_on,336,0,7,,,,,,,,,6,,,74,0
28032,note_on,48,0,7,,,,,,,,,6,,,81,108
28368,note_on,720,0,5,,,,,,,,,4,,,81,0
28368,note_on,336,0,7,,,,,,,,,6,,,81,0
28416,note_on,48,0,5,,,,,,,,,4,,,83,110
28416,note_on,48,0,7,,,,,,,,,6,,,83,108
28752,note_on,336,0,5,,,,,,,,,4,,,83,0
28752,note_on,336,0,7,,,,,,,,,6,,,83,0
28800,note_on,48,0,5,,,,,,,,,4,,,81,110
28800,note_on,1200,0,6,,,,,,,,,5,,,66,108
28800,note_on,48,0,7,,,,,,,,,6,,,81,108
28992,note_on,192,0,6,,,,,,,,,5,,,69,108
29136,note_on,336,0,5,,,,,,,,,4,,,81,0
29136,note_on,336,0,7,,,,,,,,,6,,,81,0
29152,note_on,160,0,6,,,,,,,,,5,,,69,0
29184,note_on,48,0,5,,,,,,,,,4,,,79,110
29184,note_on,32,0,6,,,,,,,,,5,,,71,108
29344,note_on,160,0,6,,,,,,,,,5,,,71,0
29376,note_on,32,0,6,,,,,,,,,5,,,69,108
29520,note_on,144,0,6,,,,,,,,,5,,,66,0
29536,note_on,16,0,6,,,,,,,,,5,,,69,0
29568,note_on,0,0,6,,,,,,,,,5,,,71,108
29568,note_on,32,0,6,,,,,,,,,5,,,64,108
29712,note_on,528,0,5,,,,,,,,,4,,,79,0
29728,note_on,160,0,6,,,,,,,,,5,,,71,0
29760,note_on,32,0,6,,,,,,,,,5,,,73,108
29760,note_on,48,0,5,,,,,,,,,4,,,79,110
29904,note_on,144,0,6,,,,,,,,,5,,,64,0
29920,note_on,160,0,5,,,,,,,,,4,,,79,0
29920,note_on,16,0,6,,,,,,,,,5,,,73,0
29952,note_on,32,0,6,,,,,,,,,5,,,62,108
29952,note_on,0,0,6,,,,,,,,,5,,,74,108
29952,note_on,32,0,5,,,,,,,,,4,,,78,110
30112,note_on,160,0,6,,,,,,,,,5,,,74,0
30144,note_on,2544,0,8,,,,,,,,,7,,,62,108
30144,note_on,32,0,6,,,,,,,,,5,,,69,108
30288,note_on,144,0,6,,,,,,,,,5,,,62,0
30304,note_on,16,0,6,,,,,,,,,5,,,69,0
30304,note_on,160,0,8,,,,,,,,,7,,,62,0
30336,note_on,32,0,6,,,,,,,,,5,,,62,108
30336,note_on,0,0,6,,,,,,,,,5,,,74,108
30336,note_on,32,0,8,,,,,,,,,7,,,62,108
30496,note_on,160,0,8,,,,,,,,,7,,,62,0
30496,note_on,160,0,6,,,,,,,,,5,,,74,0
30528,note_on,32,0,8,,,,,,,,,7,,,62,108
30528,note_on,32,0,6,,,,,,,,,5,,,78,108
30672,note_on,720,0,5,,,,,,,,,4,,,78,0
30672,note_on,144,0,6,,,,,,,,,5,,,62,0
30688,note_on,160,0,8,,,,,,,,,7,,,62,0
30688,note_on,16,0,6,,,,,,,,,5,,,78,0
30720,note_on,0,0,6,,,,,,,,,5,,,76,108
30720,note_on,48,0,5,,,,,,,,,4,,,81,110
30720,note_on,32,0,6,,,,,,,,,5,,,57,108
30720,note_on,32,0,8,,,,,,,,,7,,,61,108
30976,note_on,256,0,8,,,,,,,,,7,,,61,0
31008,note_on,32,0,8,,,,,,,,,7,,,59,108
31056,note_on,336,0,6,,,,,,,,,5,,,57,0
31102,note_on,94,0,8,,,,,,,,,7,,,59,0
31104,note_on,48,0,6,,,,,,,,,5,,,57,108
31104,note_on,2,0,8,,,,,,,,,7,,,57,108
31264,note_on,160,0,8,,,,,,,,,7,,,57,0
31296,note_on,32,0,8,,,,,,,,,7,,,61,108
31440,note_on,0,0,6,,,,,,,,,5,,,57,0
31440,note_on,336,0,6,,,,,,,,,5,,,76,0
31440,note_on,720,0,5,,,,,,,,,4,,,81,0
31456,note_on,160,0,8,,,,,,,,,7,,,61,0
31488,note_on,0,0,6,,,,,,,,,5,,,69,108
31488,note_on,48,0,6,,,,,,,,,5,,,62,108
31488,note_on,32,0,8,,,,,,,,,7,,,62,108
31488,note_on,48,0,5,,,,,,,,,4,,,78,110
31648,note_on,160,0,8,,,,,,,,,7,,,62,0
31680,note_on,32,0,8,,,,,,,,,7,,,62,108
31774,note_on,94,0,8,,,,,,,,,7,,,62,0
31776,note_on,2,0,8,,,,,,,,,7,,,62,108
31824,note_on,336,0,5,,,,,,,,,4,,,78,0
31824,note_on,336,0,6,,,,,,,,,5,,,62,0
31824,note_on,0,0,6,,,,,,,,,5,,,69,0
31870,note_on,94,0,8,,,,,,,,,7,,,62,0
31872,note_on,2,0,8,,,,,,,,,7,,,62,108
31872,note_on,48,0,5,,,,,,,,,4,,,78,110
31872,note_on,0,0,6,,,,,,,,,5,,,74,108
31872,note_on,48,0,6,,,,,,,,,5,,,62,108
32032,note_on,160,0,8,,,,,,,,,7,,,62,0
32032,note_on,160,0,5,,,,,,,,,4,,,78,0
32064,note_on,32,0,8,,,,,,,,,7,,,62,108
32064,note_on,32,0,5,,,,,,,,,4,,,78,110
32208,note_on,336,0,6,,,,,,,,,5,,,62,0
32224,note_on,160,0,8,,,,,,,,,7,,,62,0
32224,note_on,160,0,5,,,,,,,,,4,,,78,0
32256,note_on,32,0,5,,,,,,,,,4,,,83,110
32256,note_on,48,0,6,,,,,,,,,5,,,59,108
32256,note_on,32,0,8,,,,,,,,,7,,,59,108
32592,note_on,336,0,5,,,,,,,,,4,,,83,0
32592,note_on,336,0,8,,,,,,,,,7,,,59,0
32592,note_on,0,0,6,,,,,,,,,5,,,74,0
32592,note_on,336,0,6,,,,,,,,,5,,,59,0
32640,note_on,0,0,6,,,,,,,,,5,,,71,108
32640,note_on,48,0,8,,,,,,,,,7,,,59,108
32640,note_on,48,0,6,,,,,,,,,5,,,59,108
32640,note_on,48,0,5,,,,,,,,,4,,,83,110
32800,note_on,160,0,8,,,,,,,,,7,,,59,0
32832,note_on,32,0,8,,,,,,,,,7,,,59,108
32976,note_on,336,0,6,,,,,,,,,5,,,59,0
32976,note_on,336,0,5,,,,,,,,,4,,,83,0
32992,note_on,160,0,8,,,,,,,,,7,,,59,0
33024,note_on,48,0,6,,,,,,,,,5,,,64,108
33024,note_on,32,0,8,,,,,,,,,7,,,64,108
33024,note_on,48,0,5,,,,,,,,,4,,,80,110
33184,note_on,160,0,8,,,,,,,,,7,,,64,0
33216,note_on,32,0,8,,,,,,,,,7,,,64,108
33310,note_on,94,0,8,,,,,,,,,7,,,64,0
33312,note_on,2,0,8,,,,,,,,,7,,,64,108
33360,note_on,0,0,6,,,,,,,,,5,,,71,0
33360,note_on,336,0,6,,,,,,,,,5,,,64,0
33360,note_on,336,0,5,,,,,,,,,4,,,80,0
33406,note_on,94,0,8,,,,,,,,,7,,,64,0
33408,note_on,0,0,6,,,,,,,,,5,,,76,108
33408,note_on,48,0,6,,,,,,,,,5,,,64,108
33408,note_on,2,0,8,,,,,,,,,7,,,64,108
33408,note_on,48,0,5,,,,,,,,,4,,,80,110
33568,note_on,160,0,8,,,,,,,,,7,,,64,0
33600,note_on,32,0,8,,,,,,,,,7,,,64,108
33744,note_on,336,0,5,,,,,,,,,4,,,80,0
33744,note_on,336,0,6,,,,,,,,,5,,,64,0
33760,note_on,160,0,8,,,,,,,,,7,,,64,0
33792,note_on,32,0,8,,,,,,,,,7,,,61,108
33792,note_on,48,0,5,,,,,,,,,4,,,81,110
33792,note_on,48,0,6,,,,,,,,,5,,,57,108
33952,note_on,160,0,5,,,,,,,,,4,,,81,0
33984,note_on,32,0,5,,,,,,,,,4,,,81,110
34128,note_on,336,0,6,,,,,,,,,5,,,57,0
34128,note_on,0,0,6,,,,,,,,,5,,,76,0
34128,note_on,336,0,8,,,,,,,,,7,,,61,0
34144,note_on,160,0,5,,,,,,,,,4,,,81,0
34176,note_on,48,0,8,,,,,,,,,7,,,50,108
34176,note_on,0,0,8,,,,,,,,,7,,,62,108
34176,note_on,32,0,5,,,,,,,,,4,,,78,110
34176,note_on,48,0,6,,,,,,,,,5,,,69,108
34336,note_on,160,0,5,,,,,,,,,4,,,78,0
34368,note_on,32,0,5,,,,,,,,,4,,,78,110
34512,note_on,336,0,8,,,,,,,,,7,,,50,0
34512,note_on,336,0,6,,,,,,,,,5,,,69,0
34528,note_on,160,0,5,,,,,,,,,4,,,78,0
34560,note_on,48,0,6,,,,,,,,,5,,,69,108
34560,note_on,48,0,8,,,,,,,,,7,,,57,108
34560,note_on,32,0,5,,,,,,,,,4,,,76,110
34896,note_on,336,0,8,,,,,,,,,7,,,62,0
34944,note_on,48,0,8,,,,,,,,,7,,,61,108
35280,note_on,336,0,8,,,,,,,,,7,,,57,0
35280,note_on,720,0,6,,,,,,,,,5,,,69,0
35280,note_on,0,0,8,,,,,,,,,7,,,61,0
35280,note_on,720,0,5,,,,,,,,,4,,,76,0
35328,note_on,10800,0,3,,,,,,,,,2,,,62,108
35328,note_on,48,0,6,,,,,,,,,5,,,62,108
35328,note_on,0,0,6,,,,,,,,,5,,,69,108
35328,note_on,48,0,5,,,,,,,,,4,,,78,110
35328,note_on,48,0,8,,,,,,,,,7,,,50,108
35664,note_on,336,0,6,,,,,,,,,5,,,69,0
35664,note_on,336,0,8,,,,,,,,,7,,,50,0
35664,note_on,336,0,5,,,,,,,,,4,,,78,0
36048,note_on,384,0,6,,,,,,,,,5,,,62,0
36048,note_on,720,0,3,,,,,,,,,2,,,62,0
36096,note_on,48,0,3,,,,,,,,,2,,,66,108
36096,note_on,48,0,6,,,,,,,,,5,,,66,108
36432,note_on,336,0,6,,,,,,,,,5,,,66,0
36432,note_on,336,0,3,,,,,,,,,2,,,66,0
36480,note_on,816,0,8,,,,,,,,,7,,,57,108
36480,note_on,48,0,6,,,,,,,,,5,,,64,108
36480,note_on,48,0,3,,,,,,,,,2,,,64,108
36480,note_on,11952,0,4,,,,,,,,,3,,,57,108
36480,note_on,7344,0,7,,,,,,,,,6,,,73,108
36816,note_on,336,0,7,,,,,,,,,6,,,73,0
36816,note_on,336,0,3,,,,,,,,,2,,,64,0
36816,note_on,336,0,6,,,,,,,,,5,,,64,0
36864,note_on,48,0,7,,,,,,,,,6,,,71,108
36864,note_on,48,0,3,,,,,,,,,2,,,62,108
36864,note_on,48,0,6,,,,,,,,,5,,,62,108
37200,note_on,720,0,8,,,,,,,,,7,,,57,0
37200,note_on,720,0,4,,,,,,,,,3,,,57,0
37248,note_on,48,0,8,,,,,,,,,7,,,56,108
37248,note_on,48,0,4,,,,,,,,,3,,,56,108
37392,note_on,528,0,6,,,,,,,,,5,,,62,0
37392,note_on,528,0,3,,,,,,,,,2,,,62,0
37440,note_on,48,0,3,,,,,,,,,2,,,62,108
37440,note_on,48,0,6,,,,,,,,,5,,,62,108
37584,note_on,336,0,4,,,,,,,,,3,,,56,0
37584,note_on,720,0,7,,,,,,,,,6,,,71,0
37584,note_on,336,0,8,,,,,,,,,7,,,56,0
37600,note_on,160,0,6,,,,,,,,,5,,,62,0
37600,note_on,160,0,3,,,,,,,,,2,,,62,0
37632,note_on,32,0,6,,,,,,,,,5,,,61,108
37632,note_on,48,0,7,,,,,,,,,6,,,69,108
37632,note_on,48,0,8,,,,,,,,,7,,,57,108
37632,note_on,13104,0,1,,,,,,,,,0,,,76,108
37632,note_on,48,0,4,,,,,,,,,3,,,57,108
37632,note_on,0,0,6,,,,,,,,,5,,,76,108
37632,note_on,32,0,3,,,,,,,,,2,,,61,108
37792,note_on,160,0,7,,,,,,,,,6,,,69,0
37824,note_on,13296,0,2,,,,,,,,,1,,,69,108
37824,note_on,32,0,7,,,,,,,,,6,,,81,108
37984,note_on,160,0,7,,,,,,,,,6,,,81,0
37984,note_on,160,0,2,,,,,,,,,1,,,69,0
38016,note_on,32,0,2,,,,,,,,,1,,,69,108
38016,note_on,32,0,7,,,,,,,,,6,,,81,108
38176,note_on,160,0,7,,,,,,,,,6,,,81,0
38176,note_on,160,0,2,,,,,,,,,1,,,69,0
38208,note_on,32,0,2,,,,,,,,,1,,,69,108
38208,note_on,32,0,7,,,,,,,,,6,,,81,108
38352,note_on,720,0,1,,,,,,,,,0,,,76,0
38352,note_on,720,0,8,,,,,,,,,7,,,57,0
38352,note_on,720,0,6,,,,,,,,,5,,,61,0
38352,note_on,0,0,6,,,,,,,,,5,,,76,0
38352,note_on,720,0,4,,,,,,,,,3,,,57,0
38352,note_on,720,0,3,,,,,,,,,2,,,61,0
38368,note_on,160,0,7,,,,,,,,,6,,,81,0
38368,note_on,160,0,2,,,,,,,,,1,,,69,0
38400,note_on,48,0,6,,,,,,,,,5,,,62,108
38400,note_on,0,0,6,,,,,,,,,5,,,69,108
38400,note_on,32,0,7,,,,,,,,,6,,,78,108
38400,note_on,48,0,1,,,,,,,,,0,,,69,108
38400,note_on,32,0,2,,,,,,,,,1,,,66,108
38400,note_on,48,0,3,,,,,,,,,2,,,62,108
38656,note_on,256,0,7,,,,,,,,,6,,,78,0
38656,note_on,256,0,2,,,,,,,,,1,,,66,0
38688,note_on,32,0,7,,,,,,,,,6,,,76,108
38688,note_on,32,0,2,,,,,,,,,1,,,64,108
38736,note_on,336,0,1,,,,,,,,,0,,,69,0
38736,note_on,336,0,6,,,,,,,,,5,,,69,0
38782,note_on,94,0,7,,,,,,,,,6,,,76,0
38782,note_on,94,0,2,,,,,,,,,1,,,64,0
38784,note_on,2,0,2,,,,,,,,,1,,,62,108
38784,note_on,48,0,1,,,,,,,,,0,,,74,108
38784,note_on,48,0,6,,,,,,,,,5,,,74,108
38784,note_on,2,0,7,,,,,,,,,6,,,74,108
38944,note_on,160,0,2,,,,,,,,,1,,,62,0
38944,note_on,160,0,7,,,,,,,,,6,,,74,0
38976,note_on,32,0,2,,,,,,,,,1,,,66,108
38976,note_on,32,0,7,,,,,,,,,6,,,78,108
39120,note_on,720,0,3,,,,,,,,,2,,,62,0
39120,note_on,336,0,6,,,,,,,,,5,,,62,0
39136,note_on,160,0,2,,,,,,,,,1,,,66,0
39136,note_on,160,0,7,,,,,,,,,6,,,78,0
39168,note_on,48,0,6,,,,,,,,,5,,,59,108
39168,note_on,32,0,2,,,,,,,,,1,,,67,108
39168,note_on,32,0,7,,,,,,,,,6,,,79,108
39168,note_on,48,0,3,,,,,,,,,2,,,59,108
39328,note_on,160,0,2,,,,,,,,,1,,,67,0
39328,note_on,160,0,7,,,,,,,,,6,,,79,0
39360,note_on,32,0,7,,,,,,,,,6,,,79,108
39360,note_on,32,0,2,,,,,,,,,1,,,67,108
39454,note_on,94,0,7,,,,,,,,,6,,,79,0
39454,note_on,94,0,2,,,,,,,,,1,,,67,0
39456,note_on,2,0,2,,,,,,,,,1,,,67,108
39456,note_on,2,0,7,,,,,,,,,6,,,79,108
39504,note_on,336,0,6,,,,,,,,,5,,,59,0
39504,note_on,336,0,3,,,,,,,,,2,,,59,0
39504,note_on,720,0,1,,,,,,,,,0,,,74,0
39504,note_on,0,0,6,,,,,,,,,5,,,74,0
39550,note_on,94,0,2,,,,,,,,,1,,,67,0
39550,note_on,94,0,7,,,,,,,,,6,,,79,0
39552,note_on,2,0,2,,,,,,,,,1,,,67,108
39552,note_on,0,0,6,,,,,,,,,5,,,71,108
39552,note_on,0,0,6,,,,,,,,,5,,,74,108
39552,note_on,48,0,1,,,,,,,,,0,,,71,108
39552,note_on,48,0,3,,,,,,,,,2,,,59,108
39552,note_on,48,0,6,,,,,,,,,5,,,59,108
39552,note_on,2,0,7,,,,,,,,,6,,,79,108
39712,note_on,160,0,6,,,,,,,,,5,,,59,0
39712,note_on,160,0,2,,,,,,,,,1,,,67,0
39712,note_on,160,0,3,,,,,,,,,2,,,59,0
39712,note_on,160,0,7,,,,,,,,,6,,,79,0
39744,note_on,32,0,7,,,,,,,,,6,,,79,108
39744,note_on,32,0,6,,,,,,,,,5,,,59,108
39744,note_on,32,0,2,,,,,,,,,1,,,67,108
39744,note_on,32,0,3,,,,,,,,,2,,,59,108
39904,note_on,160,0,6,,,,,,,,,5,,,59,0
39904,note_on,160,0,2,,,,,,,,,1,,,67,0
39904,note_on,160,0,3,,,,,,,,,2,,,59,0
39904,note_on,160,0,7,,,,,,,,,6,,,79,0
39936,note_on,32,0,3,,,,,,,,,2,,,64,108
39936,note_on,0,0,6,,,,,,,,,5,,,68,108
39936,note_on,32,0,7,,,,,,,,,6,,,76,108
39936,note_on,32,0,2,,,,,,,,,1,,,64,108
39936,note_on,32,0,6,,,,,,,,,5,,,64,108
40272,note_on,336,0,6,,,,,,,,,5,,,64,0
40272,note_on,0,0,6,,,,,,,,,5,,,68,0
40272,note_on,0,0,6,,,,,,,,,5,,,71,0
40272,note_on,0,0,6,,,,,,,,,5,,,74,0
40272,note_on,336,0,7,,,,,,,,,6,,,76,0
40272,note_on,720,0,1,,,,,,,,,0,,,71,0
40272,note_on,336,0,3,,,,,,,,,2,,,64,0
40272,note_on,336,0,2,,,,,,,,,1,,,64,0
40320,note_on,48,0,7,,,,,,,,,6,,,76,108
40320,note_on,48,0,1,,,,,,,,,0,,,76,108
40320,note_on,48,0,2,,,,,,,,,1,,,64,108
40320,note_on,0,0,6,,,,,,,,,5,,,76,108
40320,note_on,48,0,3,,,,,,,,,2,,,64,108
40320,note_on,0,0,6,,,,,,,,,5,,,68,108
40320,note_on,48,0,6,,,,,,,,,5,,,64,108
40480,note_on,160,0,7,,,,,,,,,6,,,76,0
40480,note_on,160,0,2,,,,,,,,,1,,,64,0
40512,note_on,32,0,2,,,,,,,,,1,,,64,108
40512,note_on,32,0,7,,,,,,,,,6,,,76,108
40656,note_on,336,0,6,,,,,,,,,5,,,64,0
40656,note_on,336,0,3,,,,,,,,,2,,,64,0
40656,note_on,0,0,6,,,,,,,,,5,,,68,0
40672,note_on,160,0,2,,,,,,,,,1,,,64,0
40672,note_on,160,0,7,,,,,,,,,6,,,76,0
40704,note_on,32,0,7,,,,,,,,,6,,,81,108
40704,note_on,48,0,6,,,,,,,,,5,,,61,108
40704,note_on,48,0,3,,,,,,,,,2,,,61,108
40704,note_on,32,0,2,,,,,,,,,1,,,69,108
40864,note_on,160,0,7,,,,,,,,,6,,,81,0
40864,note_on,160,0,2,,,,,,,,,1,,,69,0
40896,note_on,32,0,7,,,,,,,,,6,,,81,108
40896,note_on,32,0,2,,,,,,,,,1,,,69,108
40990,note_on,94,0,2,,,,,,,,,1,,,69,0
40990,note_on,94,0,7,,,,,,,,,6,,,81,0
40992,note_on,2,0,2,,,,,,,,,1,,,69,108
40992,note_on,2,0,7,,,,,,,,,6,,,81,108
41040,note_on,0,0,6,,,,,,,,,5,,,76,0
41040,note_on,720,0,1,,,,,,,,,0,,,76,0
41040,note_on,336,0,3,,,,,,,,,2,,,61,0
41040,note_on,336,0,6,,,,,,,,,5,,,61,0
41086,note_on,94,0,2,,,,,,,,,1,,,69,0
41086,note_on,94,0,7,,,,,,,,,6,,,81,0
41088,note_on,48,0,1,,,,,,,,,0,,,73,108
41088,note_on,48,0,6,,,,,,,,,5,,,61,108
41088,note_on,48,0,3,,,,,,,,,2,,,61,108
41088,note_on,2,0,7,,,,,,,,,6,,,81,108
41088,note_on,0,0,6,,,,,,,,,5,,,73,108
41088,note_on,0,0,6,,,,,,,,,5,,,76,108
41088,note_on,2,0,2,,,,,,,,,1,,,69,108
41248,note_on,160,0,7,,,,,,,,,6,,,81,0
41248,note_on,160,0,2,,,,,,,,,1,,,69,0
41280,note_on,32,0,7,,,,,,,,,6,,,81,108
41280,note_on,32,0,2,,,,,,,,,1,,,69,108
41424,note_on,336,0,6,,,,,,,,,5,,,61,0
41424,note_on,0,0,6,,,,,,,,,5,,,76,0
41424,note_on,336,0,1,,,,,,,,,0,,,73,0
41424,note_on,0,0,6,,,,,,,,,5,,,73,0
41424,note_on,336,0,3,,,,,,,,,2,,,61,0
41440,note_on,160,0,2,,,,,,,,,1,,,69,0
41440,note_on,160,0,7,,,,,,,,,6,,,81,0
41472,note_on,48,0,3,,,,,,,,,2,,,62,108
41472,note_on,48,0,6,,,,,,,,,5,,,62,108
41472,note_on,48,0,1,,,,,,,,,0,,,78,108
41472,note_on,32,0,7,,,,,,,,,6,,,78,108
41472,note_on,32,0,2,,,,,,,,,1,,,66,108
41472,note_on,0,0,6,,,,,,,,,5,,,78,108
41632,note_on,160,0,7,,,,,,,,,6,,,78,0
41632,note_on,160,0,6,,,,,,,,,5,,,62,0
41632,note_on,160,0,3,,,,,,,,,2,,,62,0
41664,note_on,32,0,6,,,,,,,,,5,,,62,108
41664,note_on,0,0,2,,,,,,,,,1,,,68,108
41664,note_on,32,0,7,,,,,,,,,6,,,80,108
41664,note_on,192,0,2,,,,,,,,,1,,,66,0
41664,note_on,32,0,3,,,,,,,,,2,,,62,108
41808,note_on,144,0,6,,,,,,,,,5,,,78,0
41808,note_on,336,0,1,,,,,,,,,0,,,78,0
41824,note_on,160,0,7,,,,,,,,,6,,,80,0
41824,note_on,160,0,2,,,,,,,,,1,,,68,0
41824,note_on,16,0,6,,,,,,,,,5,,,62,0
41824,note_on,160,0,3,,,,,,,,,2,,,62,0
41856,note_on,32,0,3,,,,,,,,,2,,,61,108
41856,note_on,32,0,6,,,,,,,,,5,,,61,108
41856,note_on,48,0,1,,,,,,,,,0,,,76,108
41856,note_on,32,0,7,,,,,,,,,6,,,81,108
41856,note_on,0,0,6,,,,,,,,,5,,,76,108
41856,note_on,32,0,2,,,,,,,,,1,,,69,108
42016,note_on,160,0,6,,,,,,,,,5,,,61,0
42016,note_on,160,0,3,,,,,,,,,2,,,61,0
42048,note_on,32,0,6,,,,,,,,,5,,,61,108
42048,note_on,32,0,3,,,,,,,,,2,,,61,108
42192,note_on,336,0,1,,,,,,,,,0,,,76,0
42192,note_on,144,0,6,,,,,,,,,5,,,76,0
42208,note_on,16,0,6,,,,,,,,,5,,,61,0
42208,note_on,160,0,3,,,,,,,,,2,,,61,0
42240,note_on,32,0,3,,,,,,,,,2,,,59,108
42240,note_on,32,0,6,,,,,,,,,5,,,59,108
42240,note_on,48,0,1,,,,,,,,,0,,,74,108
42240,note_on,0,0,6,,,,,,,,,5,,,74,108
42576,note_on,720,0,2,,,,,,,,,1,,,69,0
42576,note_on,720,0,7,,,,,,,,,6,,,81,0
42624,note_on,48,0,2,,,,,,,,,1,,,68,108
42624,note_on,48,0,7,,,,,,,,,6,,,80,108
42960,note_on,720,0,6,,,,,,,,,5,,,59,0
42960,note_on,336,0,2,,,,,,,,,1,,,68,0
42960,note_on,0,0,6,,,,,,,,,5,,,74,0
42960,note_on,720,0,3,,,,,,,,,2,,,59,0
42960,note_on,336,0,7,,,,,,,,,6,,,80,0
42960,note_on,720,0,1,,,,,,,,,0,,,74,0
43008,note_on,48,0,2,,,,,,,,,1,,,69,108
43008,note_on,4656,0,8,,,,,,,,,7,,,57,108
43008,note_on,48,0,7,,,,,,,,,6,,,81,108
43008,note_on,48,0,6,,,,,,,,,5,,,57,108
43008,note_on,0,0,6,,,,,,,,,5,,,73,108
43008,note_on,48,0,3,,,,,,,,,2,,,57,108
43008,note_on,48,0,1,,,,,,,,,0,,,73,108
43008,note_on,4656,0,4,,,,,,,,,3,,,57,108
43168,note_on,160,0,8,,,,,,,,,7,,,57,0
43168,note_on,160,0,3,,,,,,,,,2,,,57,0
43200,note_on,32,0,8,,,,,,,,,7,,,57,108
43200,note_on,32,0,3,,,,,,,,,2,,,57,108
43360,note_on,160,0,8,,,,,,,,,7,,,57,0
43392,note_on,32,0,8,,,,,,,,,7,,,59,108
43392,note_on,192,0,3,,,,,,,,,2,,,57,0
43392,note_on,0,0,3,,,,,,,,,2,,,59,108
43552,note_on,160,0,8,,,,,,,,,7,,,59,0
43584,note_on,32,0,8,,,,,,,,,7,,,61,108
43584,note_on,0,0,3,,,,,,,,,2,,,61,108
43584,note_on,192,0,3,,,,,,,,,2,,,59,0
43728,note_on,720,0,7,,,,,,,,,6,,,81,0
43728,note_on,0,0,6,,,,,,,,,5,,,73,0
43728,note_on,720,0,1,,,,,,,,,0,,,73,0
43728,note_on,720,0,6,,,,,,,,,5,,,57,0
43728,note_on,720,0,4,,,,,,,,,3,,,57,0
43728,note_on,720,0,2,,,,,,,,,1,,,69,0
43744,note_on,160,0,8,,,,,,,,,7,,,61,0
43744,note_on,160,0,3,,,,,,,,,2,,,61,0
43776,note_on,32,0,8,,,,,,,,,7,,,59,108
43776,note_on,48,0,7,,,,,,,,,6,,,78,108
43776,note_on,48,0,4,,,,,,,,,3,,,59,108
43776,note_on,32,0,3,,,,,,,,,2,,,62,108
43776,note_on,48,0,6,,,,,,,,,5,,,62,108
43776,note_on,48,0,2,,,,,,,,,1,,,66,108
44112,note_on,336,0,4,,,,,,,,,3,,,59,0
44112,note_on,336,0,8,,,,,,,,,7,,,59,0
44160,note_on,48,0,4,,,,,,,,,3,,,57,108
44160,note_on,48,0,8,,,,,,,,,7,,,57,108
44496,note_on,720,0,7,,,,,,,,,6,,,78,0
44496,note_on,336,0,8,,,,,,,,,7,,,57,0
44496,note_on,720,0,2,,,,,,,,,1,,,66,0
44496,note_on,336,0,4,,,,,,,,,3,,,57,0
44544,note_on,48,0,4,,,,,,,,,3,,,55,108
44544,note_on,48,0,7,,,,,,,,,6,,,83,108
44544,note_on,48,0,8,,,,,,,,,7,,,55,108
44544,note_on,48,0,2,,,,,,,,,1,,,71,108
44880,note_on,1104,0,6,,,,,,,,,5,,,62,0
44880,note_on,336,0,2,,,,,,,,,1,,,71,0
44880,note_on,336,0,7,,,,,,,,,6,,,83,0
44880,note_on,1104,0,3,,,,,,,,,2,,,62,0
44928,note_on,48,0,3,,,,,,,,,2,,,61,108
44928,note_on,48,0,6,,,,,,,,,5,,,61,108
44928,note_on,48,0,2,,,,,,,,,1,,,64,108
44928,note_on,48,0,7,,,,,,,,,6,,,76,108
45072,note_on,528,0,8,,,,,,,,,7,,,55,0
45072,note_on,528,0,4,,,,,,,,,3,,,55,0
45120,note_on,48,0,4,,,,,,,,,3,,,55,108
45120,note_on,48,0,8,,,,,,,,,7,,,55,108
45264,note_on,336,0,6,,,,,,,,,5,,,61,0
45264,note_on,336,0,7,,,,,,,,,6,,,76,0
45264,note_on,336,0,2,,,,,,,,,1,,,64,0
45264,note_on,336,0,3,,,,,,,,,2,,,61,0
45280,note_on,160,0,8,,,,,,,,,7,,,55,0
45280,note_on,160,0,4,,,,,,,,,3,,,55,0
45312,note_on,48,0,3,,,,,,,,,2,,,62,108
45312,note_on,32,0,8,,,,,,,,,7,,,54,108
45312,note_on,48,0,2,,,,,,,,,1,,,69,108
45312,note_on,32,0,4,,,,,,,,,3,,,54,108
45312,note_on,48,0,6,,,,,,,,,5,,,62,108
45312,note_on,48,0,7,,,,,,,,,6,,,81,108
45504,note_on,1776,0,1,,,,,,,,,0,,,74,108
45504,note_on,192,0,6,,,,,,,,,5,,,74,108
45648,note_on,336,0,3,,,,,,,,,2,,,62,0
45664,note_on,160,0,6,,,,,,,,,5,,,62,0
45664,note_on,160,0,1,,,,,,,,,0,,,74,0
45664,note_on,0,0,6,,,,,,,,,5,,,74,0
45696,note_on,0,0,6,,,,,,,,,5,,,74,108
45696,note_on,48,0,3,,,,,,,,,2,,,57,108
45696,note_on,32,0,1,,,,,,,,,0,,,74,108
45696,note_on,32,0,6,,,,,,,,,5,,,57,108
45856,note_on,160,0,3,,,,,,,,,2,,,57,0
45856,note_on,160,0,1,,,,,,,,,0,,,74,0
45856,note_on,0,0,6,,,,,,,,,5,,,74,0
45856,note_on,160,0,6,,,,,,,,,5,,,57,0
45888,note_on,0,0,6,,,,,,,,,5,,,74,108
45888,note_on,32,0,3,,,,,,,,,2,,,59,108
45888,note_on,32,0,1,,,,,,,,,0,,,74,108
45888,note_on,32,0,6,,,,,,,,,5,,,59,108
46032,note_on,720,0,2,,,,,,,,,1,,,69,0
46032,note_on,720,0,4,,,,,,,,,3,,,54,0
46032,note_on,720,0,7,,,,,,,,,6,,,81,0
46032,note_on,720,0,8,,,,,,,,,7,,,54,0
46048,note_on,160,0,3,,,,,,,,,2,,,59,0
46048,note_on,0,0,6,,,,,,,,,5,,,74,0
46048,note_on,160,0,6,,,,,,,,,5,,,59,0
46048,note_on,160,0,1,,,,,,,,,0,,,74,0
46080,note_on,48,0,2,,,,,,,,,1,,,64,108
46080,note_on,32,0,3,,,,,,,,,2,,,61,108
46080,note_on,48,0,4,,,,,,,,,3,,,57,108
46080,note_on,32,0,1,,,,,,,,,0,,,73,108
46080,note_on,48,0,8,,,,,,,,,7,,,57,108
46080,note_on,0,0,6,,,,,,,,,5,,,73,108
46080,note_on,32,0,6,,,,,,,,,5,,,61,108
46080,note_on,48,0,7,,,,,,,,,6,,,76,108
46240,note_on,160,0,6,,,,,,,,,5,,,61,0
46240,note_on,160,0,3,,,,,,,,,2,,,61,0
46272,note_on,32,0,3,,,,,,,,,2,,,62,108
46272,note_on,32,0,6,,,,,,,,,5,,,62,108
46336,note_on,64,0,6,,,,,,,,,5,,,73,0
46336,note_on,256,0,1,,,,,,,,,0,,,73,0
46368,note_on,32,0,1,,,,,,,,,0,,,71,108
46368,note_on,32,0,6,,,,,,,,,5,,,71,108
46432,note_on,160,0,3,,,,,,,,,2,,,62,0
46462,note_on,94,0,6,,,,,,,,,5,,,62,0
46462,note_on,0,0,6,,,,,,,,,5,,,71,0
46462,note_on,94,0,1,,,,,,,,,0,,,71,0
46464,note_on,2,0,6,,,,,,,,,5,,,64,108
46464,note_on,0,0,6,,,,,,,,,5,,,69,108
46464,note_on,2,0,1,,,,,,,,,0,,,69,108
46464,note_on,32,0,3,,,,,,,,,2,,,64,108
46608,note_on,528,0,7,,,,,,,,,6,,,76,0
46608,note_on,528,0,2,,,,,,,,,1,,,64,0
46624,note_on,160,0,1,,,,,,,,,0,,,69,0
46624,note_on,160,0,6,,,,,,,,,5,,,69,0
46656,note_on,32,0,6,,,,,,,,,5,,,73,108
46656,note_on,48,0,7,,,,,,,,,6,,,81,108
46656,note_on,48,0,2,,,,,,,,,1,,,69,108
46656,note_on,32,0,1,,,,,,,,,0,,,73,108
46800,note_on,720,0,8,,,,,,,,,7,,,57,0
46800,note_on,336,0,3,,,,,,,,,2,,,64,0
46800,note_on,720,0,4,,,,,,,,,3,,,57,0
46816,note_on,160,0,1,,,,,,,,,0,,,73,0
46816,note_on,160,0,6,,,,,,,,,5,,,64,0
46816,note_on,0,0,6,,,,,,,,,5,,,73,0
46848,note_on,48,0,4,,,,,,,,,3,,,54,108
46848,note_on,32,0,1,,,,,,,,,0,,,74,108
46848,note_on,48,0,3,,,,,,,,,2,,,57,108
46848,note_on,32,0,6,,,,,,,,,5,,,57,108
46848,note_on,0,0,6,,,,,,,,,5,,,74,108
46848,note_on,48,0,8,,,,,,,,,7,,,54,108
47008,note_on,160,0,6,,,,,,,,,5,,,74,0
47008,note_on,160,0,1,,,,,,,,,0,,,74,0
47008,note_on,352,0,7,,,,,,,,,6,,,81,0
47008,note_on,352,0,2,,,,,,,,,1,,,69,0
47040,note_on,32,0,1,,,,,,,,,0,,,74,108
47040,note_on,32,0,6,,,,,,,,,5,,,74,108
47040,note_on,32,0,2,,,,,,,,,1,,,67,108
47040,note_on,32,0,7,,,,,,,,,6,,,79,108
47134,note_on,94,0,6,,,,,,,,,5,,,74,0
47134,note_on,94,0,1,,,,,,,,,0,,,74,0
47136,note_on,2,0,1,,,,,,,,,0,,,74,108
47136,note_on,2,0,6,,,,,,,,,5,,,74,108
47184,note_on,336,0,8,,,,,,,,,7,,,54,0
47184,note_on,336,0,4,,,,,,,,,3,,,54,0
47184,note_on,336,0,3,,,,,,,,,2,,,57,0
47184,note_on,48,0,6,,,,,,,,,5,,,57,0
47200,note_on,160,0,2,,,,,,,,,1,,,67,0
47200,note_on,160,0,7,,,,,,,,,6,,,79,0
47230,note_on,46,0,6,,,,,,,,,5,,,74,0
47230,note_on,94,0,1,,,,,,,,,0,,,74,0
47232,note_on,48,0,8,,,,,,,,,7,,,54,108
47232,note_on,32,0,7,,,,,,,,,6,,,78,108
47232,note_on,32,0,2,,,,,,,,,1,,,66,108
47232,note_on,2,0,1,,,,,,,,,0,,,74,108
47232,note_on,2,0,6,,,,,,,,,5,,,62,108
47232,note_on,48,0,4,,,,,,,,,3,,,54,108
47232,note_on,0,0,6,,,,,,,,,5,,,74,108
47232,note_on,48,0,3,,,,,,,,,2,,,62,108
47392,note_on,160,0,2,,,,,,,,,1,,,66,0
47392,note_on,160,0,4,,,,,,,,,3,,,54,0
47392,note_on,160,0,7,,,,,,,,,6,,,78,0
47392,note_on,160,0,6,,,,,,,,,5,,,74,0
47392,note_on,160,0,8,,,,,,,,,7,,,54,0
47392,note_on,160,0,1,,,,,,,,,0,,,74,0
47424,note_on,32,0,1,,,,,,,,,0,,,74,108
47424,note_on,32,0,4,,,,,,,,,3,,,54,108
47424,note_on,32,0,7,,,,,,,,,6,,,81,108
47424,note_on,32,0,2,,,,,,,,,1,,,69,108
47424,note_on,32,0,8,,,,,,,,,7,,,54,108
47424,note_on,32,0,6,,,,,,,,,5,,,74,108
47568,note_on,144,0,6,,,,,,,,,5,,,62,0
47584,note_on,160,0,8,,,,,,,,,7,,,54,0
47584,note_on,160,0,7,,,,,,,,,6,,,81,0
47584,note_on,160,0,4,,,,,,,,,3,,,54,0
47584,note_on,160,0,2,,,,,,,,,1,,,69,0
47584,note_on,160,0,1,,,,,,,,,0,,,74,0
47584,note_on,16,0,6,,,,,,,,,5,,,74,0
47616,note_on,32,0,2,,,,,,,,,1,,,67,108
47616,note_on,32,0,6,,,,,,,,,5,,,71,108
47616,note_on,32,0,4,,,,,,,,,3,,,55,108
47616,note_on,32,0,1,,,,,,,,,0,,,71,108
47616,note_on,0,0,6,,,,,,,,,5,,,74,108
47616,note_on,32,0,7,,,,,,,,,6,,,79,108
47616,note_on,32,0,8,,,,,,,,,7,,,55,108
47776,note_on,160,0,4,,,,,,,,,3,,,55,0
47776,note_on,160,0,8,,,,,,,,,7,,,55,0
47808,note_on,32,0,4,,,,,,,,,3,,,55,108
47808,note_on,32,0,8,,,,,,,,,7,,,55,108
47952,note_on,336,0,6,,,,,,,,,5,,,71,0
47952,note_on,0,0,6,,,,,,,,,5,,,74,0
47952,note_on,720,0,3,,,,,,,,,2,,,62,0
47952,note_on,336,0,1,,,,,,,,,0,,,71,0
47968,note_on,160,0,8,,,,,,,,,7,,,55,0
47968,note_on,160,0,4,,,,,,,,,3,,,55,0
48000,note_on,32,0,4,,,,,,,,,3,,,52,108
48000,note_on,48,0,1,,,,,,,,,0,,,71,108
48000,note_on,32,0,8,,,,,,,,,7,,,52,108
48000,note_on,48,0,6,,,,,,,,,5,,,71,108
48000,note_on,0,0,6,,,,,,,,,5,,,76,108
48000,note_on,48,0,3,,,,,,,,,2,,,64,108
48160,note_on,160,0,8,,,,,,,,,7,,,52,0
48160,note_on,160,0,4,,,,,,,,,3,,,52,0
48192,note_on,32,0,4,,,,,,,,,3,,,52,108
48192,note_on,32,0,8,,,,,,,,,7,,,52,108
48336,note_on,336,0,6,,,,,,,,,5,,,71,0
48336,note_on,0,0,6,,,,,,,,,5,,,76,0
48336,note_on,336,0,3,,,,,,,,,2,,,64,0
48336,note_on,720,0,2,,,,,,,,,1,,,67,0
48336,note_on,336,0,1,,,,,,,,,0,,,71,0
48336,note_on,720,0,7,,,,,,,,,6,,,79,0
48352,note_on,160,0,4,,,,,,,,,3,,,52,0
48352,note_on,160,0,8,,,,,,,,,7,,,52,0
48384,note_on,32,0,8,,,,,,,,,7,,,54,108
48384,note_on,32,0,4,,,,,,,,,3,,,54,108
48384,note_on,48,0,3,,,,,,,,,2,,,61,108
48384,note_on,48,0,1,,,,,,,,,0,,,71,108
48384,note_on,48,0,7,,,,,,,,,6,,,78,108
48384,note_on,48,0,6,,,,,,,,,5,,,71,108
48384,note_on,0,0,6,,,,,,,,,5,,,73,108
48384,note_on,48,0,2,,,,,,,,,1,,,66,108
48720,note_on,336,0,6,,,,,,,,,5,,,71,0
48768,note_on,384,0,1,,,,,,,,,0,,,71,0
48768,note_on,48,0,6,,,,,,,,,5,,,70,108
48768,note_on,0,0,1,,,,,,,,,0,,,70,108
49104,note_on,720,0,4,,,,,,,,,3,,,54,0
49104,note_on,336,0,6,,,,,,,,,5,,,73,0
49104,note_on,720,0,8,,,,,,,,,7,,,54,0
49104,note_on,336,0,1,,,,,,,,,0,,,70,0
49104,note_on,720,0,3,,,,,,,,,2,,,61,0
49104,note_on,0,0,6,,,,,,,,,5,,,70,0
49104,note_on,720,0,7,,,,,,,,,6,,,78,0
49104,note_on,720,0,2,,,,,,,,,1,,,66,0
49152,note_on,48,0,4,,,,,,,,,3,,,47,108
49152,note_on,48,0,8,,,,,,,,,7,,,47,108
49152,note_on,13488,0,5,,,,,,,,,4,,,78,110
49152,note_on,48,0,3,,,,,,,,,2,,,62,108
49152,note_on,48,0,1,,,,,,,,,0,,,71,108
49152,note_on,48,0,2,,,,,,,,,1,,,66,108
49152,note_on,0,0,6,,,,,,,,,5,,,74,108
49152,note_on,48,0,6,,,,,,,,,5,,,71,108
49312,note_on,160,0,5,,,,,,,,,4,,,78,0
49344,note_on,32,0,5,,,,,,,,,4,,,83,110
49488,note_on,0,0,6,,,,,,,,,5,,,74,0
49488,note_on,336,0,6,,,,,,,,,5,,,71,0
49488,note_on,336,0,2,,,,,,,,,1,,,66,0
49488,note_on,336,0,1,,,,,,,,,0,,,71,0
49488,note_on,336,0,3,,,,,,,,,2,,,62,0
49488,note_on,336,0,4,,,,,,,,,3,,,47,0
49504,note_on,160,0,5,,,,,,,,,4,,,83,0
49536,note_on,32,0,5,,,,,,,,,4,,,83,110
49696,note_on,160,0,5,,,,,,,,,4,,,83,0
49728,note_on,32,0,5,,,,,,,,,4,,,83,110
49872,note_on,720,0,8,,,,,,,,,7,,,47,0
49888,note_on,160,0,5,,,,,,,,,4,,,83,0
49920,note_on,32,0,5,,,,,,,,,4,,,80,110
49920,note_on,48,0,8,,,,,,,,,7,,,52,108
49920,note_on,0,0,8,,,,,,,,,7,,,59,108
50112,note_on,1008,0,7,,,,,,,,,6,,,76,108
50112,note_on,624,0,6,,,,,,,,,5,,,76,108
50176,note_on,256,0,5,,,,,,,,,4,,,80,0
50208,note_on,32,0,5,,,,,,,,,4,,,78,110
50256,note_on,336,0,8,,,,,,,,,7,,,59,0
50272,note_on,160,0,7,,,,,,,,,6,,,76,0
50272,note_on,160,0,6,,,,,,,,,5,,,76,0
50302,note_on,94,0,5,,,,,,,,,4,,,78,0
50304,note_on,32,0,7,,,,,,,,,6,,,76,108
50304,note_on,48,0,8,,,,,,,,,7,,,56,108
50304,note_on,32,0,6,,,,,,,,,5,,,76,108
50304,note_on,2,0,5,,,,,,,,,4,,,76,110
50464,note_on,160,0,6,,,,,,,,,5,,,76,0
50464,note_on,160,0,7,,,,,,,,,6,,,76,0
50464,note_on,160,0,5,,,,,,,,,4,,,76,0
50496,note_on,32,0,5,,,,,,,,,4,,,80,110
50496,note_on,32,0,6,,,,,,,,,5,,,76,108
50496,note_on,32,0,7,,,,,,,,,6,,,76,108
50640,note_on,0,0,8,,,,,,,,,7,,,56,0
50640,note_on,336,0,8,,,,,,,,,7,,,52,0
50656,note_on,160,0,6,,,,,,,,,5,,,76,0
50656,note_on,160,0,7,,,,,,,,,6,,,76,0
50656,note_on,160,0,5,,,,,,,,,4,,,80,0
50688,note_on,32,0,5,,,,,,,,,4,,,81,110
50688,note_on,0,0,8,,,,,,,,,7,,,52,108
50688,note_on,48,0,8,,,,,,,,,7,,,45,108
50688,note_on,32,0,6,,,,,,,,,5,,,73,108
50688,note_on,32,0,7,,,,,,,,,6,,,73,108
50848,note_on,160,0,5,,,,,,,,,4,,,81,0
50880,note_on,32,0,5,,,,,,,,,4,,,81,110
50944,note_on,256,0,6,,,,,,,,,5,,,73,0
50944,note_on,256,0,7,,,,,,,,,6,,,73,0
50974,note_on,94,0,5,,,,,,,,,4,,,81,0
50976,note_on,2,0,5,,,,,,,,,4,,,81,110
50976,note_on,32,0,6,,,,,,,,,5,,,71,108
50976,note_on,32,0,7,,,,,,,,,6,,,71,108
51024,note_on,336,0,8,,,,,,,,,7,,,52,0
51070,note_on,94,0,5,,,,,,,,,4,,,81,0
51070,note_on,94,0,6,,,,,,,,,5,,,71,0
51070,note_on,94,0,7,,,,,,,,,6,,,71,0
51072,note_on,2,0,7,,,,,,,,,6,,,69,108
51072,note_on,2,0,5,,,,,,,,,4,,,81,110
51072,note_on,48,0,8,,,,,,,,,7,,,61,108
51072,note_on,2,0,6,,,,,,,,,5,,,69,108
51232,note_on,160,0,7,,,,,,,,,6,,,69,0
51232,note_on,160,0,6,,,,,,,,,5,,,69,0
51232,note_on,160,0,5,,,,,,,,,4,,,81,0
51264,note_on,32,0,7,,,,,,,,,6,,,73,108
51264,note_on,32,0,6,,,,,,,,,5,,,73,108
51264,note_on,32,0,5,,,,,,,,,4,,,81,110
51408,note_on,0,0,8,,,,,,,,,7,,,61,0
51408,note_on,336,0,8,,,,,,,,,7,,,45,0
51424,note_on,160,0,5,,,,,,,,,4,,,81,0
51424,note_on,160,0,6,,,,,,,,,5,,,73,0
51424,note_on,160,0,7,,,,,,,,,6,,,73,0
51456,note_on,48,0,8,,,,,,,,,7,,,50,108
51456,note_on,32,0,6,,,,,,,,,5,,,74,108
51456,note_on,32,0,7,,,,,,,,,6,,,74,108
51456,note_on,32,0,5,,,,,,,,,4,,,78,110
51456,note_on,0,0,8,,,,,,,,,7,,,57,108
51616,note_on,160,0,6,,,,,,,,,5,,,74,0
51616,note_on,160,0,7,,,,,,,,,6,,,74,0
51648,note_on,32,0,6,,,,,,,,,5,,,74,108
51648,note_on,32,0,7,,,,,,,,,6,,,74,108
51712,note_on,256,0,5,,,,,,,,,4,,,78,0
51742,note_on,94,0,6,,,,,,,,,5,,,74,0
51742,note_on,94,0,7,,,,,,,,,6,,,74,0
51744,note_on,2,0,7,,,,,,,,,6,,,74,108
51744,note_on,2,0,6,,,,,,,,,5,,,74,108
51744,note_on,32,0,5,,,,,,,,,4,,,76,110
51792,note_on,336,0,8,,,,,,,,,7,,,57,0
51838,note_on,94,0,6,,,,,,,,,5,,,74,0
51838,note_on,94,0,5,,,,,,,,,4,,,76,0
51838,note_on,94,0,7,,,,,,,,,6,,,74,0
51840,note_on,48,0,8,,,,,,,,,7,,,54,108
51840,note_on,2,0,6,,,,,,,,,5,,,74,108
51840,note_on,2,0,5,,,,,,,,,4,,,74,110
51840,note_on,2,0,7,,,,,,,,,6,,,74,108
52000,note_on,160,0,7,,,,,,,,,6,,,74,0
52000,note_on,160,0,6,,,,,,,,,5,,,74,0
52000,note_on,160,0,5,,,,,,,,,4,,,74,0
52032,note_on,32,0,7,,,,,,,,,6,,,74,108
52032,note_on,32,0,6,,,,,,,,,5,,,74,108
52032,note_on,32,0,5,,,,,,,,,4,,,78,110
52176,note_on,0,0,8,,,,,,,,,7,,,54,0
52176,note_on,336,0,8,,,,,,,,,7,,,50,0
52192,note_on,160,0,6,,,,,,,,,5,,,74,0
52192,note_on,160,0,5,,,,,,,,,4,,,78,0
52192,note_on,160,0,7,,,,,,,,,6,,,74,0
52224,note_on,32,0,5,,,,,,,,,4,,,79,110
52224,note_on,48,0,8,,,,,,,,,7,,,55,108
52224,note_on,32,0,6,,,,,,,,,5,,,76,108
52224,note_on,32,0,7,,,,,,,,,6,,,76,108
52224,note_on,0,0,8,,,,,,,,,7,,,59,108
52384,note_on,160,0,6,,,,,,,,,5,,,76,0
52384,note_on,160,0,5,,,,,,,,,4,,,79,0
52384,note_on,160,0,7,,,,,,,,,6,,,76,0
52416,note_on,32,0,7,,,,,,,,,6,,,74,108
52416,note_on,32,0,6,,,,,,,,,5,,,74,108
52416,note_on,32,0,5,,,,,,,,,4,,,79,110
52510,note_on,94,0,5,,,,,,,,,4,,,79,0
52512,note_on,2,0,5,,,,,,,,,4,,,78,110
52560,note_on,336,0,8,,,,,,,,,7,,,59,0
52576,note_on,160,0,6,,,,,,,,,5,,,74,0
52576,note_on,160,0,7,,,,,,,,,6,,,74,0
52606,note_on,94,0,5,,,,,,,,,4,,,78,0
52608,note_on,48,0,8,,,,,,,,,7,,,59,108
52608,note_on,2,0,5,,,,,,,,,4,,,76,110
52608,note_on,32,0,6,,,,,,,,,5,,,76,108
52608,note_on,32,0,7,,,,,,,,,6,,,76,108
52768,note_on,160,0,7,,,,,,,,,6,,,76,0
52768,note_on,160,0,5,,,,,,,,,4,,,76,0
52768,note_on,160,0,6,,,,,,,,,5,,,76,0
52800,note_on,32,0,5,,,,,,,,,4,,,74,110
52800,note_on,32,0,7,,,,,,,,,6,,,78,108
52800,note_on,32,0,6,,,,,,,,,5,,,78,108
52944,note_on,336,0,8,,,,,,,,,7,,,55,0
52944,note_on,0,0,8,,,,,,,,,7,,,59,0
52960,note_on,160,0,5,,,,,,,,,4,,,74,0
52960,note_on,160,0,7,,,,,,,,,6,,,78,0
52960,note_on,160,0,6,,,,,,,,,5,,,78,0
52992,note_on,32,0,7,,,,,,,,,6,,,76,108
52992,note_on,0,0,8,,,,,,,,,7,,,61,108
52992,note_on,48,0,8,,,,,,,,,7,,,57,108
52992,note_on,32,0,6,,,,,,,,,5,,,76,108
52992,note_on,32,0,5,,,,,,,,,4,,,73,110
53152,note_on,160,0,7,,,,,,,,,6,,,76,0
53152,note_on,160,0,5,,,,,,,,,4,,,73,0
53152,note_on,160,0,6,,,,,,,,,5,,,76,0
53184,note_on,32,0,7,,,,,,,,,6,,,69,108
53184,note_on,32,0,5,,,,,,,,,4,,,81,110
53184,note_on,32,0,6,,,,,,,,,5,,,69,108
53328,note_on,336,0,8,,,,,,,,,7,,,61,0
53344,note_on,160,0,5,,,,,,,,,4,,,81,0
53344,note_on,160,0,6,,,,,,,,,5,,,69,0
53344,note_on,160,0,7,,,,,,,,,6,,,69,0
53376,note_on,32,0,5,,,,,,,,,4,,,76,110
53376,note_on,48,0,8,,,,,,,,,7,,,57,108
53376,note_on,32,0,7,,,,,,,,,6,,,73,108
53376,note_on,32,0,6,,,,,,,,,5,,,73,108
53536,note_on,160,0,6,,,,,,,,,5,,,73,0
53536,note_on,160,0,7,,,,,,,,,6,,,73,0
53536,note_on,160,0,5,,,,,,,,,4,,,76,0
53568,note_on,32,0,7,,,,,,,,,6,,,81,108
53568,note_on,32,0,6,,,,,,,,,5,,,81,108
53568,note_on,32,0,5,,,,,,,,,4,,,85,110
53712,note_on,336,0,8,,,,,,,,,7,,,57,0
53728,note_on,160,0,6,,,,,,,,,5,,,81,0
53728,note_on,160,0,5,,,,,,,,,4,,,85,0
53728,note_on,160,0,7,,,,,,,,,6,,,81,0
53760,note_on,48,0,8,,,,,,,,,7,,,50,108
53760,note_on,32,0,6,,,,,,,,,5,,,78,108
53760,note_on,32,0,7,,,,,,,,,6,,,78,108
53760,note_on,32,0,5,,,,,,,,,4,,,86,110
53920,note_on,160,0,5,,,,,,,,,4,,,86,0
53920,note_on,160,0,7,,,,,,,,,6,,,78,0
53920,note_on,160,0,6,,,,,,,,,5,,,78,0
53952,note_on,32,0,7,,,,,,,,,6,,,74,108
53952,note_on,32,0,5,,,,,,,,,4,,,78,110
53952,note_on,32,0,6,,,,,,,,,5,,,74,108
54096,note_on,336,0,8,,,,,,,,,7,,,50,0
54096,note_on,0,0,8,,,,,,,,,7,,,57,0
54112,note_on,160,0,5,,,,,,,,,4,,,78,0
54144,note_on,32,0,5,,,,,,,,,4,,,76,110
54144,note_on,48,0,8,,,,,,,,,7,,,45,108
54144,note_on,0,0,8,,,,,,,,,7,,,57,108
54288,note_on,336,0,7,,,,,,,,,6,,,74,0
54288,note_on,336,0,6,,,,,,,,,5,,,74,0
54336,note_on,48,0,7,,,,,,,,,6,,,73,108
54336,note_on,48,0,6,,,,,,,,,5,,,73,108
54480,note_on,0,0,8,,,,,,,,,7,,,57,0
54480,note_on,336,0,8,,,,,,,,,7,,,45,0
54480,note_on,336,0,5,,,,,,,,,4,,,76,0
54496,note_on,160,0,7,,,,,,,,,6,,,73,0
54496,note_on,160,0,6,,,,,,,,,5,,,73,0
54528,note_on,48,0,5,,,,,,,,,4,,,74,110
54528,note_on,32,0,7,,,,,,,,,6,,,74,108
54528,note_on,32,0,6,,,,,,,,,5,,,74,108
54528,note_on,5040,0,2,,,,,,,,,1,,,62,108
54528,note_on,48,0,8,,,,,,,,,7,,,50,108
54864,note_on,336,0,6,,,,,,,,,5,,,74,0
54912,note_on,5424,0,1,,,,,,,,,0,,,74,108
54912,note_on,48,0,6,,,,,,,,,5,,,74,108
55248,note_on,720,0,5,,,,,,,,,4,,,74,0
55248,note_on,720,0,7,,,,,,,,,6,,,74,0
55248,note_on,720,0,2,,,,,,,,,1,,,62,0
55248,note_on,720,0,8,,,,,,,,,7,,,50,0
55296,note_on,48,0,7,,,,,,,,,6,,,78,108
55296,note_on,48,0,2,,,,,,,,,1,,,66,108
55632,note_on,336,0,2,,,,,,,,,1,,,66,0
55632,note_on,720,0,1,,,,,,,,,0,,,74,0
55632,note_on,336,0,7,,,,,,,,,6,,,78,0
55632,note_on,720,0,6,,,,,,,,,5,,,74,0
55680,note_on,6192,0,3,,,,,,,,,2,,,57,108
55680,note_on,48,0,2,,,,,,,,,1,,,64,108
55680,note_on,48,0,1,,,,,,,,,0,,,73,108
55680,note_on,48,0,7,,,,,,,,,6,,,76,108
55680,note_on,0,0,6,,,,,,,,,5,,,73,108
55680,note_on,48,0,6,,,,,,,,,5,,,57,108
56016,note_on,336,0,2,,,,,,,,,1,,,64,0
56016,note_on,336,0,6,,,,,,,,,5,,,73,0
56016,note_on,336,0,1,,,,,,,,,0,,,73,0
56016,note_on,336,0,7,,,,,,,,,6,,,76,0
56064,note_on,48,0,7,,,,,,,,,6,,,74,108
56064,note_on,48,0,6,,,,,,,,,5,,,78,108
56064,note_on,48,0,2,,,,,,,,,1,,,62,108
56064,note_on,48,0,1,,,,,,,,,0,,,78,108
56400,note_on,720,0,3,,,,,,,,,2,,,57,0
56400,note_on,336,0,6,,,,,,,,,5,,,57,0
56448,note_on,48,0,3,,,,,,,,,2,,,56,108
56448,note_on,48,0,6,,,,,,,,,5,,,56,108
56592,note_on,528,0,7,,,,,,,,,6,,,74,0
56592,note_on,528,0,2,,,,,,,,,1,,,62,0
56640,note_on,48,0,7,,,,,,,,,6,,,74,108
56640,note_on,48,0,2,,,,,,,,,1,,,62,108
56784,note_on,0,0,6,,,,,,,,,5,,,56,0
56784,note_on,336,0,6,,,,,,,,,5,,,78,0
56784,note_on,720,0,1,,,,,,,,,0,,,78,0
56784,note_on,336,0,3,,,,,,,,,2,,,56,0
56800,note_on,160,0,2,,,,,,,,,1,,,62,0
56800,note_on,160,0,7,,,,,,,,,6,,,74,0
56832,note_on,32,0,7,,,,,,,,,6,,,73,108
56832,note_on,48,0,3,,,,,,,,,2,,,57,108
56832,note_on,0,0,6,,,,,,,,,5,,,76,108
56832,note_on,48,0,1,,,,,,,,,0,,,76,108
56832,note_on,48,0,6,,,,,,,,,5,,,57,108
56832,note_on,32,0,2,,,,,,,,,1,,,61,108
57024,note_on,7536,0,4,,,,,,,,,3,,,57,108
57024,note_on,1776,0,8,,,,,,,,,7,,,57,108
57168,note_on,336,0,6,,,,,,,,,5,,,76,0
57168,note_on,336,0,1,,,,,,,,,0,,,76,0
57184,note_on,160,0,8,,,,,,,,,7,,,57,0
57184,note_on,160,0,4,,,,,,,,,3,,,57,0
57216,note_on,32,0,4,,,,,,,,,3,,,57,108
57216,note_on,32,0,8,,,,,,,,,7,,,57,108
57360,note_on,528,0,7,,,,,,,,,6,,,73,0
57360,note_on,528,0,2,,,,,,,,,1,,,61,0
57376,note_on,160,0,8,,,,,,,,,7,,,57,0
57376,note_on,160,0,4,,,,,,,,,3,,,57,0
57408,note_on,48,0,2,,,,,,,,,1,,,61,108
57408,note_on,48,0,7,,,,,,,,,6,,,73,108
57408,note_on,32,0,8,,,,,,,,,7,,,57,108
57408,note_on,32,0,4,,,,,,,,,3,,,57,108
57552,note_on,384,0,6,,,,,,,,,5,,,57,0
57552,note_on,720,0,3,,,,,,,,,2,,,57,0
57568,note_on,160,0,7,,,,,,,,,6,,,73,0
57568,note_on,160,0,2,,,,,,,,,1,,,61,0
57568,note_on,160,0,8,,,,,,,,,7,,,57,0
57568,note_on,160,0,4,,,,,,,,,3,,,57,0
57600,note_on,32,0,4,,,,,,,,,3,,,54,108
57600,note_on,32,0,8,,,,,,,,,7,,,54,108
57600,note_on,432,0,1,,,,,,,,,0,,,69,108
57600,note_on,32,0,2,,,,,,,,,1,,,62,108
57600,note_on,32,0,7,,,,,,,,,6,,,74,108
57600,note_on,48,0,6,,,,,,,,,5,,,69,108
57760,note_on,160,0,2,,,,,,,,,1,,,62,0
57760,note_on,160,0,7,,,,,,,,,6,,,74,0
57792,note_on,32,0,2,,,,,,,,,1,,,64,108
57792,note_on,32,0,7,,,,,,,,,6,,,76,108
57856,note_on,256,0,8,,,,,,,,,7,,,54,0
57856,note_on,256,0,4,,,,,,,,,3,,,54,0
57888,note_on,32,0,8,,,,,,,,,7,,,52,108
57888,note_on,32,0,4,,,,,,,,,3,,,52,108
57952,note_on,160,0,2,,,,,,,,,1,,,64,0
57952,note_on,160,0,7,,,,,,,,,6,,,76,0
57982,note_on,94,0,8,,,,,,,,,7,,,52,0
57982,note_on,94,0,4,,,,,,,,,3,,,52,0
57984,note_on,2,0,8,,,,,,,,,7,,,50,108
57984,note_on,32,0,7,,,,,,,,,6,,,78,108
57984,note_on,384,0,6,,,,,,,,,5,,,62,108
57984,note_on,32,0,2,,,,,,,,,1,,,66,108
57984,note_on,2,0,4,,,,,,,,,3,,,50,108
57984,note_on,432,0,3,,,,,,,,,2,,,62,108
58144,note_on,160,0,8,,,,,,,,,7,,,50,0
58144,note_on,160,0,4,,,,,,,,,3,,,50,0
58176,note_on,32,0,4,,,,,,,,,3,,,54,108
58176,note_on,32,0,8,,,,,,,,,7,,,54,108
58320,note_on,336,0,2,,,,,,,,,1,,,66,0
58320,note_on,336,0,6,,,,,,,,,5,,,62,0
58320,note_on,336,0,3,,,,,,,,,2,,,62,0
58320,note_on,0,0,6,,,,,,,,,5,,,69,0
58320,note_on,336,0,7,,,,,,,,,6,,,78,0
58320,note_on,720,0,1,,,,,,,,,0,,,69,0
58336,note_on,160,0,8,,,,,,,,,7,,,54,0
58336,note_on,160,0,4,,,,,,,,,3,,,54,0
58368,note_on,48,0,7,,,,,,,,,6,,,74,108
58368,note_on,32,0,4,,,,,,,,,3,,,55,108
58368,note_on,48,0,3,,,,,,,,,2,,,59,108
58368,note_on,48,0,1,,,,,,,,,0,,,71,108
58368,note_on,48,0,2,,,,,,,,,1,,,62,108
58368,note_on,0,0,6,,,,,,,,,5,,,71,108
58368,note_on,32,0,8,,,,,,,,,7,,,55,108
58368,note_on,48,0,6,,,,,,,,,5,,,59,108
58528,note_on,160,0,4,,,,,,,,,3,,,55,0
58560,note_on,32,0,4,,,,,,,,,3,,,55,108
58654,note_on,94,0,4,,,,,,,,,3,,,55,0
58656,note_on,2,0,4,,,,,,,,,3,,,55,108
58704,note_on,0,0,6,,,,,,,,,5,,,71,0
58704,note_on,336,0,6,,,,,,,,,5,,,59,0
58704,note_on,336,0,7,,,,,,,,,6,,,74,0
58704,note_on,336,0,1,,,,,,,,,0,,,71,0
58704,note_on,336,0,3,,,,,,,,,2,,,59,0
58704,note_on,336,0,2,,,,,,,,,1,,,62,0
58704,note_on,336,0,8,,,,,,,,,7,,,55,0
58750,note_on,94,0,4,,,,,,,,,3,,,55,0
58752,note_on,2,0,4,,,,,,,,,3,,,54,108
58752,note_on,48,0,8,,,,,,,,,7,,,54,108
58752,note_on,48,0,3,,,,,,,,,2,,,62,108
58752,note_on,48,0,2,,,,,,,,,1,,,66,108
58752,note_on,0,0,6,,,,,,,,,5,,,69,108
58752,note_on,48,0,1,,,,,,,,,0,,,69,108
58752,note_on,48,0,7,,,,,,,,,6,,,78,108
58752,note_on,48,0,6,,,,,,,,,5,,,62,108
58912,note_on,160,0,4,,,,,,,,,3,,,54,0
58944,note_on,32,0,4,,,,,,,,,3,,,54,108
59088,note_on,336,0,7,,,,,,,,,6,,,78,0
59088,note_on,336,0,1,,,,,,,,,0,,,69,0
59088,note_on,336,0,6,,,,,,,,,5,,,69,0
59088,note_on,336,0,2,,,,,,,,,1,,,66,0
59088,note_on,336,0,8,,,,,,,,,7,,,54,0
59104,note_on,160,0,4,,,,,,,,,3,,,54,0
59136,note_on,48,0,6,,,,,,,,,5,,,67,108
59136,note_on,48,0,1,,,,,,,,,0,,,67,108
59136,note_on,48,0,2,,,,,,,,,1,,,59,108
59136,note_on,48,0,8,,,,,,,,,7,,,52,108
59136,note_on,48,0,7,,,,,,,,,6,,,71,108
59136,note_on,32,0,4,,,,,,,,,3,,,52,108
59296,note_on,160,0,4,,,,,,,,,3,,,52,0
59328,note_on,32,0,4,,,,,,,,,3,,,52,108
59472,note_on,720,0,3,,,,,,,,,2,,,62,0
59472,note_on,336,0,7,,,,,,,,,6,,,71,0
59472,note_on,336,0,2,,,,,,,,,1,,,59,0
59472,note_on,336,0,6,,,,,,,,,5,,,62,0
59472,note_on,336,0,8,,,,,,,,,7,,,52,0
59488,note_on,160,0,4,,,,,,,,,3,,,52,0
59520,note_on,48,0,2,,,,,,,,,1,,,61,108
59520,note_on,48,0,7,,,,,,,,,6,,,73,108
59520,note_on,48,0,3,,,,,,,,,2,,,61,108
59520,note_on,48,0,6,,,,,,,,,5,,,61,108
59520,note_on,48,0,8,,,,,,,,,7,,,57,108
59520,note_on,32,0,4,,,,,,,,,3,,,57,108
59664,note_on,528,0,1,,,,,,,,,0,,,67,0
59664,note_on,144,0,6,,,,,,,,,5,,,67,0
59712,note_on,48,0,1,,,,,,,,,0,,,67,108
59712,note_on,48,0,6,,,,,,,,,5,,,67,108
59856,note_on,336,0,4,,,,,,,,,3,,,57,0
59856,note_on,336,0,2,,,,,,,,,1,,,61,0
59856,note_on,336,0,7,,,,,,,,,6,,,73,0
59856,note_on,336,0,8,,,,,,,,,7,,,57,0
59856,note_on,336,0,3,,,,,,,,,2,,,61,0
59872,note_on,160,0,1,,,,,,,,,0,,,67,0
59872,note_on,160,0,6,,,,,,,,,5,,,61,0
59872,note_on,0,0,6,,,,,,,,,5,,,67,0
59904,note_on,32,0,1,,,,,,,,,0,,,66,108
59904,note_on,48,0,7,,,,,,,,,6,,,74,108
59904,note_on,48,0,8,,,,,,,,,7,,,50,108
59904,note_on,48,0,2,,,,,,,,,1,,,62,108
59904,note_on,48,0,4,,,,,,,,,3,,,50,108
59904,note_on,32,0,6,,,,,,,,,5,,,57,108
59904,note_on,0,0,6,,,,,,,,,5,,,66,108
60064,note_on,160,0,8,,,,,,,,,7,,,50,0
60064,note_on,160,0,4,,,,,,,,,3,,,50,0
60064,note_on,160,0,6,,,,,,,,,5,,,57,0
60096,note_on,32,0,4,,,,,,,,,3,,,62,108
60096,note_on,32,0,8,,,,,,,,,7,,,62,108
60240,note_on,336,0,7,,,,,,,,,6,,,74,0
60240,note_on,336,0,2,,,,,,,,,1,,,62,0
60256,note_on,160,0,8,,,,,,,,,7,,,62,0
60256,note_on,160,0,4,,,,,,,,,3,,,62,0
60288,note_on,32,0,4,,,,,,,,,3,,,62,108
60288,note_on,48,0,7,,,,,,,,,6,,,78,108
60288,note_on,32,0,8,,,,,,,,,7,,,62,108
60288,note_on,48,0,2,,,,,,,,,1,,,66,108
60432,note_on,528,0,1,,,,,,,,,0,,,66,0
60432,note_on,368,0,6,,,,,,,,,5,,,66,0
60448,note_on,160,0,4,,,,,,,,,3,,,62,0
60448,note_on,160,0,8,,,,,,,,,7,,,62,0
60480,note_on,48,0,1,,,,,,,,,0,,,66,108
60480,note_on,32,0,8,,,,,,,,,7,,,62,108
60480,note_on,32,0,4,,,,,,,,,3,,,62,108
60480,note_on,48,0,6,,,,,,,,,5,,,66,108
60624,note_on,336,0,2,,,,,,,,,1,,,66,0
60624,note_on,336,0,7,,,,,,,,,6,,,78,0
60640,note_on,160,0,1,,,,,,,,,0,,,66,0
60640,note_on,160,0,8,,,,,,,,,7,,,62,0
60640,note_on,160,0,4,,,,,,,,,3,,,62,0
60640,note_on,160,0,6,,,,,,,,,5,,,66,0
60672,note_on,48,0,7,,,,,,,,,6,,,76,108
60672,note_on,32,0,8,,,,,,,,,7,,,61,108
60672,note_on,48,0,2,,,,,,,,,1,,,64,108
60672,note_on,32,0,1,,,,,,,,,0,,,69,108
60672,note_on,32,0,4,,,,,,,,,3,,,61,108
60672,note_on,32,0,6,,,,,,,,,5,,,69,108
60832,note_on,160,0,1,,,,,,,,,0,,,69,0
60832,note_on,160,0,6,,,,,,,,,5,,,69,0
60864,note_on,32,0,6,,,,,,,,,5,,,69,108
60864,note_on,32,0,1,,,,,,,,,0,,,69,108
60928,note_on,256,0,8,,,,,,,,,7,,,61,0
60928,note_on,256,0,4,,,,,,,,,3,,,61,0
60958,note_on,94,0,1,,,,,,,,,0,,,69,0
60958,note_on,94,0,6,,,,,,,,,5,,,69,0
60960,note_on,32,0,8,,,,,,,,,7,,,59,108
60960,note_on,32,0,4,,,,,,,,,3,,,59,108
60960,note_on,2,0,1,,,,,,,,,0,,,69,108
60960,note_on,2,0,6,,,,,,,,,5,,,69,108
61054,note_on,94,0,1,,,,,,,,,0,,,69,0
61054,note_on,94,0,8,,,,,,,,,7,,,59,0
61054,note_on,94,0,6,,,,,,,,,5,,,69,0
61054,note_on,94,0,4,,,,,,,,,3,,,59,0
61056,note_on,2,0,8,,,,,,,,,7,,,57,108
61056,note_on,2,0,4,,,,,,,,,3,,,57,108
61056,note_on,2,0,1,,,,,,,,,0,,,69,108
61056,note_on,2,0,6,,,,,,,,,5,,,69,108
61216,note_on,160,0,4,,,,,,,,,3,,,57,0
61216,note_on,160,0,6,,,,,,,,,5,,,69,0
61216,note_on,160,0,8,,,,,,,,,7,,,57,0
61216,note_on,160,0,1,,,,,,,,,0,,,69,0
61248,note_on,32,0,8,,,,,,,,,7,,,61,108
61248,note_on,32,0,6,,,,,,,,,5,,,69,108
61248,note_on,32,0,4,,,,,,,,,3,,,61,108
61248,note_on,32,0,1,,,,,,,,,0,,,69,108
61392,note_on,720,0,2,,,,,,,,,1,,,64,0
61392,note_on,720,0,7,,,,,,,,,6,,,76,0
61408,note_on,160,0,8,,,,,,,,,7,,,61,0
61408,note_on,160,0,1,,,,,,,,,0,,,69,0
61408,note_on,160,0,6,,,,,,,,,5,,,69,0
61408,note_on,160,0,4,,,,,,,,,3,,,61,0
61440,note_on,48,0,2,,,,,,,,,1,,,62,108
61440,note_on,32,0,1,,,,,,,,,0,,,69,108
61440,note_on,32,0,8,,,,,,,,,7,,,62,108
61440,note_on,1584,0,3,,,,,,,,,2,,,66,108
61440,note_on,48,0,7,,,,,,,,,6,,,74,108
61440,note_on,32,0,6,,,,,,,,,5,,,66,108
61440,note_on,0,0,6,,,,,,,,,5,,,69,108
61440,note_on,32,0,4,,,,,,,,,3,,,62,108
61600,note_on,160,0,4,,,,,,,,,3,,,62,0
61632,note_on,32,0,4,,,,,,,,,3,,,62,108
61726,note_on,94,0,4,,,,,,,,,3,,,62,0
61728,note_on,2,0,4,,,,,,,,,3,,,62,108
61776,note_on,336,0,1,,,,,,,,,0,,,69,0
61776,note_on,336,0,7,,,,,,,,,6,,,74,0
61776,note_on,336,0,6,,,,,,,,,5,,,66,0
61776,note_on,0,0,6,,,,,,,,,5,,,69,0
61776,note_on,336,0,8,,,,,,,,,7,,,62,0
61776,note_on,336,0,3,,,,,,,,,2,,,66,0
61776,note_on,336,0,2,,,,,,,,,1,,,62,0
61822,note_on,94,0,4,,,,,,,,,3,,,62,0
61824,note_on,48,0,2,,,,,,,,,1,,,64,108
61824,note_on,48,0,8,,,,,,,,,7,,,61,108
61824,note_on,48,0,3,,,,,,,,,2,,,64,108
61824,note_on,48,0,6,,,,,,,,,5,,,64,108
61824,note_on,0,0,6,,,,,,,,,5,,,69,108
61824,note_on,48,0,7,,,,,,,,,6,,,76,108
61824,note_on,48,0,1,,,,,,,,,0,,,69,108
61824,note_on,2,0,4,,,,,,,,,3,,,61,108
61984,note_on,160,0,4,,,,,,,,,3,,,61,0
62016,note_on,32,0,4,,,,,,,,,3,,,61,108
62160,note_on,0,0,6,,,,,,,,,5,,,69,0
62160,note_on,336,0,6,,,,,,,,,5,,,64,0
62160,note_on,336,0,2,,,,,,,,,1,,,64,0
62160,note_on,336,0,7,,,,,,,,,6,,,76,0
62160,note_on,336,0,1,,,,,,,,,0,,,69,0
62160,note_on,336,0,3,,,,,,,,,2,,,64,0
62160,note_on,336,0,8,,,,,,,,,7,,,61,0
62176,note_on,160,0,4,,,,,,,,,3,,,61,0
62208,note_on,0,0,6,,,,,,,,,5,,,69,108
62208,note_on,48,0,6,,,,,,,,,5,,,62,108
62208,note_on,48,0,3,,,,,,,,,2,,,62,108
62208,note_on,48,0,8,,,,,,,,,7,,,59,108
62208,note_on,48,0,7,,,,,,,,,6,,,78,108
62208,note_on,48,0,1,,,,,,,,,0,,,69,108
62208,note_on,32,0,4,,,,,,,,,3,,,59,108
62208,note_on,48,0,2,,,,,,,,,1,,,66,108
62544,note_on,336,0,6,,,,,,,,,5,,,69,0
62544,note_on,336,0,7,,,,,,,,,6,,,78,0
62544,note_on,336,0,2,,,,,,,,,1,,,66,0
62592,note_on,48,0,7,,,,,,,,,6,,,83,108
62592,note_on,0,0,1,,,,,,,,,0,,,68,108
62592,note_on,384,0,1,,,,,,,,,0,,,69,0
62592,note_on,48,0,6,,,,,,,,,5,,,68,108
62592,note_on,48,0,2,,,,,,,,,1,,,71,108
62928,note_on,0,0,6,,,,,,,,,5,,,68,0
62928,note_on,720,0,8,,,,,,,,,7,,,59,0
62928,note_on,336,0,7,,,,,,,,,6,,,83,0
62928,note_on,336,0,2,,,,,,,,,1,,,71,0
62928,note_on,720,0,4,,,,,,,,,3,,,59,0
62928,note_on,336,0,6,,,,,,,,,5,,,62,0
62928,note_on,336,0,1,,,,,,,,,0,,,68,0
62928,note_on,720,0,3,,,,,,,,,2,,,62,0
62976,note_on,48,0,7,,,,,,,,,6,,,76,108
62976,note_on,48,0,8,,,,,,,,,7,,,57,108
62976,note_on,48,0,1,,,,,,,,,0,,,69,108
62976,note_on,48,0,3,,,,,,,,,2,,,61,108
62976,note_on,48,0,2,,,,,,,,,1,,,64,108
62976,note_on,48,0,4,,,,,,,,,3,,,57,108
62976,note_on,0,0,6,,,,,,,,,5,,,69,108
62976,note_on,48,0,6,,,,,,,,,5,,,61,108
63136,note_on,160,0,1,,,,,,,,,0,,,69,0
63136,note_on,160,0,6,,,,,,,,,5,,,69,0
63168,note_on,32,0,1,,,,,,,,,0,,,73,108
63168,note_on,32,0,6,,,,,,,,,5,,,73,108
63312,note_on,336,0,7,,,,,,,,,6,,,76,0
63312,note_on,336,0,4,,,,,,,,,3,,,57,0
63312,note_on,336,0,8,,,,,,,,,7,,,57,0
63312,note_on,336,0,2,,,,,,,,,1,,,64,0
63360,note_on,48,0,2,,,,,,,,,1,,,66,108
63360,note_on,48,0,4,,,,,,,,,3,,,58,108
63360,note_on,48,0,7,,,,,,,,,6,,,78,108
63360,note_on,48,0,8,,,,,,,,,7,,,58,108
63504,note_on,336,0,6,,,,,,,,,5,,,73,0
63504,note_on,336,0,1,,,,,,,,,0,,,73,0
63552,note_on,48,0,1,,,,,,,,,0,,,78,108
63552,note_on,48,0,6,,,,,,,,,5,,,78,108
63696,note_on,144,0,6,,,,,,,,,5,,,61,0
63696,note_on,336,0,4,,,,,,,,,3,,,58,0
63696,note_on,336,0,8,,,,,,,,,7,,,58,0
63696,note_on,720,0,3,,,,,,,,,2,,,61,0
63712,note_on,16,0,6,,,,,,,,,5,,,78,0
63744,note_on,32,0,6,,,,,,,,,5,,,62,108
63744,note_on,48,0,4,,,,,,,,,3,,,59,108
63744,note_on,48,0,8,,,,,,,,,7,,,59,108
63744,note_on,48,0,3,,,,,,,,,2,,,62,108
63744,note_on,0,0,6,,,,,,,,,5,,,78,108
63904,note_on,160,0,6,,,,,,,,,5,,,78,0
63904,note_on,352,0,1,,,,,,,,,0,,,78,0
63936,note_on,32,0,6,,,,,,,,,5,,,74,108
63936,note_on,32,0,1,,,,,,,,,0,,,74,108
64080,note_on,720,0,2,,,,,,,,,1,,,66,0
64080,note_on,336,0,4,,,,,,,,,3,,,59,0
64080,note_on,336,0,3,,,,,,,,,2,,,62,0
64080,note_on,144,0,6,,,,,,,,,5,,,62,0
64080,note_on,720,0,7,,,,,,,,,6,,,78,0
64080,note_on,336,0,8,,,,,,,,,7,,,59,0
64096,note_on,16,0,6,,,,,,,,,5,,,74,0
64096,note_on,160,0,1,,,,,,,,,0,,,74,0
64128,note_on,48,0,2,,,,,,,,,1,,,67,108
64128,note_on,48,0,4,,,,,,,,,3,,,55,108
64128,note_on,48,0,8,,,,,,,,,7,,,55,108
64128,note_on,32,0,1,,,,,,,,,0,,,71,108
64128,note_on,48,0,3,,,,,,,,,2,,,64,108
64128,note_on,0,0,6,,,,,,,,,5,,,71,108
64128,note_on,32,0,6,,,,,,,,,5,,,64,108
64128,note_on,48,0,7,,,,,,,,,6,,,79,108
64288,note_on,160,0,4,,,,,,,,,3,,,55,0
64288,note_on,160,0,8,,,,,,,,,7,,,55,0
64320,note_on,32,0,8,,,,,,,,,7,,,52,108
64320,note_on,32,0,4,,,,,,,,,3,,,52,108
64464,note_on,336,0,6,,,,,,,,,5,,,64,0
64464,note_on,336,0,3,,,,,,,,,2,,,64,0
64464,note_on,336,0,2,,,,,,,,,1,,,67,0
64464,note_on,336,0,7,,,,,,,,,6,,,79,0
64480,note_on,160,0,8,,,,,,,,,7,,,52,0
64480,note_on,160,0,4,,,,,,,,,3,,,52,0
64512,note_on,48,0,7,,,,,,,,,6,,,78,108
64512,note_on,32,0,8,,,,,,,,,7,,,54,108
64512,note_on,32,0,4,,,,,,,,,3,,,54,108
64512,note_on,48,0,2,,,,,,,,,1,,,66,108
64512,note_on,48,0,3,,,,,,,,,2,,,61,108
64512,note_on,48,0,6,,,,,,,,,5,,,61,108
64848,note_on,336,0,6,,,,,,,,,5,,,71,0
64848,note_on,720,0,1,,,,,,,,,0,,,71,0
64896,note_on,48,0,6,,,,,,,,,5,,,70,108
64896,note_on,48,0,1,,,,,,,,,0,,,70,108
65232,note_on,720,0,7,,,,,,,,,6,,,78,0
65232,note_on,0,0,6,,,,,,,,,5,,,70,0
65232,note_on,336,0,6,,,,,,,,,5,,,61,0
65232,note_on,336,0,1,,,,,,,,,0,,,70,0
65232,note_on,720,0,4,,,,,,,,,3,,,54,0
65232,note_on,720,0,8,,,,,,,,,7,,,54,0
65232,note_on,720,0,3,,,,,,,,,2,,,61,0
65232,note_on,720,0,2,,,,,,,,,1,,,66,0
65280,note_on,48,0,8,,,,,,,,,7,,,47,108
65280,note_on,48,0,7,,,,,,,,,6,,,78,108
65280,note_on,48,0,1,,,,,,,,,0,,,71,108
65280,note_on,48,0,3,,,,,,,,,2,,,62,108
65280,note_on,48,0,2,,,,,,,,,1,,,66,108
65280,note_on,48,0,6,,,,,,,,,5,,,62,108
65280,note_on,48,0,4,,,,,,,,,3,,,47,108
65280,note_on,0,0,6,,,,,,,,,5,,,71,108
65616,note_on,336,0,6,,,,,,,,,5,,,62,0
65616,note_on,336,0,4,,,,,,,,,3,,,47,0
65616,note_on,336,0,2,,,,,,,,,1,,,66,0
65616,note_on,336,0,8,,,,,,,,,7,,,47,0
65616,note_on,336,0,7,,,,,,,,,6,,,78,0
65616,note_on,336,0,3,,,,,,,,,2,,,62,0
65664,note_on,48,0,4,,,,,,,,,3,,,50,108
65664,note_on,48,0,8,,,,,,,,,7,,,50,108
65808,note_on,528,0,1,,,,,,,,,0,,,71,0
65824,note_on,208,0,6,,,,,,,,,5,,,71,0
65856,note_on,48,0,1,,,,,,,,,0,,,69,108
65856,note_on,32,0,6,,,,,,,,,5,,,69,108
66016,note_on,160,0,6,,,,,,,,,5,,,69,0
66048,note_on,32,0,6,,,,,,,,,5,,,59,108
66048,note_on,0,0,6,,,,,,,,,5,,,68,108
66048,note_on,432,0,3,,,,,,,,,2,,,59,108
66048,note_on,432,0,7,,,,,,,,,6,,,76,108
66048,note_on,432,0,2,,,,,,,,,1,,,64,108
66048,note_on,192,0,1,,,,,,,,,0,,,69,0
66048,note_on,0,0,1,,,,,,,,,0,,,68,108
66384,note_on,336,0,3,,,,,,,,,2,,,59,0
66384,note_on,720,0,4,,,,,,,,,3,,,50,0
66384,note_on,336,0,6,,,,,,,,,5,,,59,0
66384,note_on,0,0,6,,,,,,,,,5,,,68,0
66384,note_on,720,0,8,,,,,,,,,7,,,50,0
66432,note_on,0,0,6,,,,,,,,,5,,,69,108
66432,note_on,48,0,3,,,,,,,,,2,,,61,108
66432,note_on,48,0,4,,,,,,,,,3,,,49,108
66432,note_on,384,0,1,,,,,,,,,0,,,68,0
66432,note_on,48,0,8,,,,,,,,,7,,,49,108
66432,note_on,0,0,1,,,,,,,,,0,,,69,108
66432,note_on,48,0,6,,,,,,,,,5,,,61,108
66592,note_on,160,0,8,,,,,,,,,7,,,49,0
66592,note_on,160,0,4,,,,,,,,,3,,,49,0
66624,note_on,32,0,8,,,,,,,,,7,,,50,108
66624,note_on,32,0,4,,,,,,,,,3,,,50,108
66768,note_on,336,0,6,,,,,,,,,5,,,61,0
66768,note_on,336,0,3,,,,,,,,,2,,,61,0
66784,note_on,160,0,4,,,,,,,,,3,,,50,0
66784,note_on,160,0,8,,,,,,,,,7,,,50,0
66816,note_on,48,0,6,,,,,,,,,5,,,59,108
66816,note_on,32,0,8,,,,,,,,,7,,,52,108
66816,note_on,48,0,3,,,,,,,,,2,,,59,108
66816,note_on,32,0,4,,,,,,,,,3,,,52,108
67152,note_on,336,0,6,,,,,,,,,5,,,69,0
67200,note_on,768,0,1,,,,,,,,,0,,,69,0
67200,note_on,48,0,6,,,,,,,,,5,,,68,108
67200,note_on,0,0,1,,,,,,,,,0,,,68,108
67536,note_on,720,0,4,,,,,,,,,3,,,52,0
67536,note_on,1488,0,2,,,,,,,,,1,,,64,0
67536,note_on,336,0,6,,,,,,,,,5,,,59,0
67536,note_on,336,0,1,,,,,,,,,0,,,68,0
67536,note_on,720,0,3,,,,,,,,,2,,,59,0
67536,note_on,720,0,8,,,,,,,,,7,,,52,0
67536,note_on,0,0,6,,,,,,,,,5,,,68,0
67584,note_on,48,0,2,,,,,,,,,1,,,64,108
67584,note_on,48,0,6,,,,,,,,,5,,,61,108
67584,note_on,0,0,6,,,,,,,,,5,,,69,108
67584,note_on,48,0,3,,,,,,,,,2,,,61,108
67584,note_on,48,0,1,,,,,,,,,0,,,69,108
67584,note_on,48,0,4,,,,,,,,,3,,,45,108
67584,note_on,48,0,8,,,,,,,,,7,,,45,108
67920,note_on,336,0,8,,,,,,,,,7,,,45,0
67920,note_on,1872,0,7,,,,,,,,,6,,,76,0
67920,note_on,336,0,2,,,,,,,,,1,,,64,0
67920,note_on,336,0,6,,,,,,,,,5,,,61,0
67920,note_on,336,0,4,,,,,,,,,3,,,45,0
67920,note_on,336,0,3,,,,,,,,,2,,,61,0
67968,note_on,48,0,2,,,,,,,,,1,,,66,108
67968,note_on,48,0,7,,,,,,,,,6,,,78,108
67968,note_on,48,0,8,,,,,,,,,7,,,50,108
67968,note_on,48,0,4,,,,,,,,,3,,,50,108
68128,note_on,160,0,8,,,,,,,,,7,,,50,0
68160,note_on,192,0,4,,,,,,,,,3,,,50,0
68160,note_on,32,0,8,,,,,,,,,7,,,47,108
68160,note_on,0,0,4,,,,,,,,,3,,,47,108
68304,note_on,384,0,6,,,,,,,,,5,,,69,0
68304,note_on,720,0,1,,,,,,,,,0,,,69,0
68320,note_on,160,0,8,,,,,,,,,7,,,47,0
68352,note_on,432,0,3,,,,,,,,,2,,,61,108
68352,note_on,192,0,4,,,,,,,,,3,,,47,0
68352,note_on,32,0,8,,,,,,,,,7,,,49,108
68352,note_on,48,0,6,,,,,,,,,5,,,61,108
68352,note_on,0,0,6,,,,,,,,,5,,,68,108
68352,note_on,0,0,4,,,,,,,,,3,,,49,108
68352,note_on,48,0,1,,,,,,,,,0,,,68,108
68688,note_on,720,0,7,,,,,,,,,6,,,78,0
68688,note_on,720,0,2,,,,,,,,,1,,,66,0
68736,note_on,48,0,7,,,,,,,,,6,,,77,108
68736,note_on,48,0,2,,,,,,,,,1,,,65,108
69072,note_on,720,0,3,,,,,,,,,2,,,61,0
69072,note_on,336,0,2,,,,,,,,,1,,,65,0
69072,note_on,0,0,6,,,,,,,,,5,,,68,0
69072,note_on,720,0,6,,,,,,,,,5,,,61,0
69072,note_on,720,0,1,,,,,,,,,0,,,68,0
69072,note_on,720,0,4,,,,,,,,,3,,,49,0
69072,note_on,720,0,8,,,,,,,,,7,,,49,0
69072,note_on,336,0,7,,,,,,,,,6,,,77,0
69120,note_on,48,0,4,,,,,,,,,3,,,54,108
69120,note_on,48,0,1,,,,,,,,,0,,,66,108
69120,note_on,0,0,6,,,,,,,,,5,,,69,108
69120,note_on,48,0,2,,,,,,,,,1,,,66,108
69120,note_on,48,0,7,,,,,,,,,6,,,78,108
69120,note_on,48,0,3,,,,,,,,,2,,,61,108
69120,note_on,48,0,6,,,,,,,,,5,,,61,108
69120,note_on,48,0,8,,,,,,,,,7,,,54,108
69280,note_on,160,0,7,,,,,,,,,6,,,78,0
69312,note_on,32,0,7,,,,,,,,,6,,,78,108
69456,note_on,0,0,6,,,,,,,,,5,,,69,0
69456,note_on,336,0,6,,,,,,,,,5,,,61,0
69456,note_on,336,0,3,,,,,,,,,2,,,61,0
69456,note_on,336,0,2,,,,,,,,,1,,,66,0
69456,note_on,336,0,4,,,,,,,,,3,,,54,0
69456,note_on,336,0,1,,,,,,,,,0,,,66,0
69472,note_on,160,0,7,,,,,,,,,6,,,78,0
69504,note_on,48,0,6,,,,,,,,,5,,,70,108
69504,note_on,32,0,7,,,,,,,,,6,,,78,108
69664,note_on,160,0,7,,,,,,,,,6,,,78,0
69696,note_on,32,0,7,,,,,,,,,6,,,78,108
69840,note_on,720,0,8,,,,,,,,,7,,,54,0
69840,note_on,336,0,6,,,,,,,,,5,,,70,0
69856,note_on,160,0,7,,,,,,,,,6,,,78,0
69888,note_on,48,0,6,,,,,,,,,5,,,66,108
69888,note_on,32,0,7,,,,,,,,,6,,,75,108
69888,note_on,48,0,8,,,,,,,,,7,,,47,108
70080,note_on,192,0,6,,,,,,,,,5,,,71,108
70144,note_on,256,0,7,,,,,,,,,6,,,75,0
70176,note_on,32,0,7,,,,,,,,,6,,,73,108
70240,note_on,160,0,6,,,,,,,,,5,,,66,0
70240,note_on,0,0,6,,,,,,,,,5,,,71,0
70270,note_on,94,0,7,,,,,,,,,6,,,73,0
70272,note_on,32,0,6,,,,,,,,,5,,,63,108
70272,note_on,0,0,6,,,,,,,,,5,,,71,108
70272,note_on,2,0,7,,,,,,,,,6,,,71,108
70432,note_on,160,0,7,,,,,,,,,6,,,71,0
70432,note_on,160,0,6,,,,,,,,,5,,,71,0
70464,note_on,32,0,6,,,,,,,,,5,,,71,108
70464,note_on,32,0,7,,,,,,,,,6,,,75,108
70608,note_on,720,0,8,,,,,,,,,7,,,47,0
70608,note_on,144,0,6,,,,,,,,,5,,,63,0
70624,note_on,16,0,6,,,,,,,,,5,,,71,0
70624,note_on,160,0,7,,,,,,,,,6,,,75,0
70656,note_on,32,0,7,,,,,,,,,6,,,76,108
70656,note_on,32,0,6,,,,,,,,,5,,,59,108
70656,note_on,48,0,8,,,,,,,,,7,,,52,108
70656,note_on,0,0,6,,,,,,,,,5,,,68,108
70816,note_on,160,0,7,,,,,,,,,6,,,76,0
70848,note_on,32,0,7,,,,,,,,,6,,,76,108
70912,note_on,256,0,6,,,,,,,,,5,,,68,0
70942,note_on,94,0,7,,,,,,,,,6,,,76,0
70944,note_on,32,0,6,,,,,,,,,5,,,66,108
70944,note_on,2,0,7,,,,,,,,,6,,,76,108
70992,note_on,48,0,6,,,,,,,,,5,,,59,0
71038,note_on,94,0,7,,,,,,,,,6,,,76,0
71038,note_on,46,0,6,,,,,,,,,5,,,66,0
71040,note_on,2,0,6,,,,,,,,,5,,,56,108
71040,note_on,2,0,7,,,,,,,,,6,,,76,108
71040,note_on,0,0,6,,,,,,,,,5,,,64,108
71200,note_on,160,0,7,,,,,,,,,6,,,76,0
71200,note_on,160,0,6,,,,,,,,,5,,,64,0
71232,note_on,32,0,7,,,,,,,,,6,,,76,108
71232,note_on,32,0,6,,,,,,,,,5,,,68,108
71376,note_on,720,0,8,,,,,,,,,7,,,52,0
71376,note_on,144,0,6,,,,,,,,,5,,,56,0
71392,note_on,16,0,6,,,,,,,,,5,,,68,0
71392,note_on,160,0,7,,,,,,,,,6,,,76,0
71424,note_on,48,0,8,,,,,,,,,7,,,45,108
71424,note_on,32,0,6,,,,,,,,,5,,,64,108
71424,note_on,0,0,6,,,,,,,,,5,,,69,108
71424,note_on,32,0,7,,,,,,,,,6,,,73,108
71584,note_on,160,0,6,,,,,,,,,5,,,69,0
71616,note_on,32,0,6,,,,,,,,,5,,,69,108
71680,note_on,256,0,7,,,,,,,,,6,,,73,0
71710,note_on,94,0,6,,,,,,,,,5,,,69,0
71712,note_on,32,0,7,,,,,,,,,6,,,71,108
71712,note_on,2,0,6,,,,,,,,,5,,,69,108
71760,note_on,48,0,6,,,,,,,,,5,,,64,0
71806,note_on,94,0,7,,,,,,,,,6,,,71,0
71806,note_on,46,0,6,,,,,,,,,5,,,69,0
71808,note_on,0,0,6,,,,,,,,,5,,,69,108
71808,note_on,2,0,7,,,,,,,,,6,,,69,108
71808,note_on,2,0,6,,,,,,,,,5,,,61,108
71968,note_on,160,0,7,,,,,,,,,6,,,69,0
71968,note_on,160,0,6,,,,,,,,,5,,,69,0
72000,note_on,32,0,7,,,,,,,,,6,,,73,108
72000,note_on,32,0,6,,,,,,,,,5,,,69,108
72144,note_on,720,0,8,,,,,,,,,7,,,45,0
72144,note_on,144,0,6,,,,,,,,,5,,,61,0
72160,note_on,16,0,6,,,,,,,,,5,,,69,0
72160,note_on,160,0,7,,,,,,,,,6,,,73,0
72192,note_on,32,0,7,,,,,,,,,6,,,74,108
72192,note_on,32,0,6,,,,,,,,,5,,,57,108
72192,note_on,0,0,6,,,,,,,,,5,,,66,108
72192,note_on,48,0,8,,,,,,,,,7,,,50,108
72352,note_on,160,0,7,,,,,,,,,6,,,74,0
72384,note_on,32,0,7,,,,,,,,,6,,,74,108
72448,note_on,256,0,6,,,,,,,,,5,,,66,0
72478,note_on,94,0,7,,,,,,,,,6,,,74,0
72480,note_on,32,0,6,,,,,,,,,5,,,64,108
72480,note_on,2,0,7,,,,,,,,,6,,,74,108
72528,note_on,48,0,6,,,,,,,,,5,,,57,0
72574,note_on,94,0,7,,,,,,,,,6,,,74,0
72574,note_on,46,0,6,,,,,,,,,5,,,64,0
72576,note_on,2,0,7,,,,,,,,,6,,,74,108
72576,note_on,2,0,6,,,,,,,,,5,,,54,108
72576,note_on,0,0,6,,,,,,,,,5,,,62,108
72736,note_on,160,0,7,,,,,,,,,6,,,74,0
72736,note_on,160,0,6,,,,,,,,,5,,,62,0
72768,note_on,32,0,6,,,,,,,,,5,,,66,108
72768,note_on,32,0,7,,,,,,,,,6,,,74,108
72912,note_on,144,0,6,,,,,,,,,5,,,54,0
72912,note_on,720,0,8,,,,,,,,,7,,,50,0
72928,note_on,160,0,7,,,,,,,,,6,,,74,0
72928,note_on,16,0,6,,,,,,,,,5,,,66,0
72960,note_on,0,0,6,,,,,,,,,5,,,67,108
72960,note_on,32,0,7,,,,,,,,,6,,,71,108
72960,note_on,48,0,8,,,,,,,,,7,,,43,108
72960,note_on,32,0,6,,,,,,,,,5,,,62,108
73120,note_on,160,0,6,,,,,,,,,5,,,62,0
73120,note_on,0,0,6,,,,,,,,,5,,,67,0
73152,note_on,0,0,6,,,,,,,,,5,,,67,108
73152,note_on,32,0,6,,,,,,,,,5,,,62,108
73216,note_on,256,0,7,,,,,,,,,6,,,71,0
73246,note_on,0,0,6,,,,,,,,,5,,,67,0
73246,note_on,94,0,6,,,,,,,,,5,,,62,0
73248,note_on,32,0,7,,,,,,,,,6,,,69,108
73248,note_on,2,0,6,,,,,,,,,5,,,62,108
73248,note_on,0,0,6,,,,,,,,,5,,,67,108
73342,note_on,94,0,7,,,,,,,,,6,,,69,0
73342,note_on,94,0,6,,,,,,,,,5,,,62,0
73342,note_on,0,0,6,,,,,,,,,5,,,67,0
73344,note_on,2,0,7,,,,,,,,,6,,,67,108
73344,note_on,0,0,6,,,,,,,,,5,,,67,108
73344,note_on,2,0,6,,,,,,,,,5,,,62,108
73504,note_on,160,0,7,,,,,,,,,6,,,67,0
73504,note_on,0,0,6,,,,,,,,,5,,,67,0
73504,note_on,160,0,6,,,,,,,,,5,,,62,0
73536,note_on,32,0,7,,,,,,,,,6,,,71,108
73536,note_on,32,0,6,,,,,,,,,5,,,62,108
73536,note_on,0,0,6,,,,,,,,,5,,,67,108
73680,note_on,720,0,8,,,,,,,,,7,,,43,0
73696,note_on,160,0,7,,,,,,,,,6,,,71,0
73696,note_on,160,0,6,,,,,,,,,5,,,62,0
73696,note_on,0,0,6,,,,,,,,,5,,,67,0
73728,note_on,0,0,7,,,,,,,,,6,,,72,108
73728,note_on,48,0,8,,,,,,,,,7,,,48,108
73728,note_on,32,0,7,,,,,,,,,6,,,67,108
73728,note_on,32,0,6,,,,,,,,,5,,,64,108
74064,note_on,336,0,7,,,,,,,,,6,,,72,0
74064,note_on,336,0,8,,,,,,,,,7,,,48,0
74064,note_on,336,0,6,,,,,,,,,5,,,64,0
74112,note_on,48,0,7,,,,,,,,,6,,,71,108
74112,note_on,48,0,8,,,,,,,,,7,,,43,108
74112,note_on,48,0,6,,,,,,,,,5,,,62,108
74448,note_on,336,0,6,,,,,,,,,5,,,62,0
74448,note_on,336,0,7,,,,,,,,,6,,,71,0
74448,note_on,336,0,8,,,,,,,,,7,,,43,0
74496,note_on,48,0,8,,,,,,,,,7,,,48,108
74496,note_on,48,0,7,,,,,,,,,6,,,71,108
74496,note_on,48,0,6,,,,,,,,,5,,,64,108
74832,note_on,0,0,7,,,,,,,,,6,,,71,0
74832,note_on,336,0,7,,,,,,,,,6,,,67,0
74880,note_on,48,0,7,,,,,,,,,6,,,60,108
74880,note_on,0,0,7,,,,,,,,,6,,,69,108
75216,note_on,0,0,7,,,,,,,,,6,,,69,0
75216,note_on,720,0,8,,,,,,,,,7,,,48,0
75216,note_on,720,0,6,,,,,,,,,5,,,64,0
75216,note_on,336,0,7,,,,,,,,,6,,,60,0
75264,note_on,48,0,7,,,,,,,,,6,,,71,92
75264,note_on,48,0,6,,,,,,,,,5,,,63,92
75264,note_on,0,0,6,,,,,,,,,5,,,66,92
75264,note_on,48,0,8,,,,,,,,,7,,,47,92
75600,note_on,336,0,8,,,,,,,,,7,,,47,0
75600,note_on,336,0,6,,,,,,,,,5,,,63,0
75600,note_on,0,0,6,,,,,,,,,5,,,66,0
75648,note_on,48,0,6,,,,,,,,,5,,,55,92
75648,note_on,48,0,8,,,,,,,,,7,,,52,92
75648,note_on,0,0,6,,,,,,,,,5,,,64,92
75984,note_on,336,0,8,,,,,,,,,7,,,52,0
75984,note_on,720,0,7,,,,,,,,,6,,,71,0
75984,note_on,336,0,6,,,,,,,,,5,,,55,0
76032,note_on,48,0,8,,,,,,,,,7,,,47,92
76032,note_on,48,0,7,,,,,,,,,6,,,71,92
76368,note_on,384,0,6,,,,,,,,,5,,,64,0
76416,note_on,48,0,6,,,,,,,,,5,,,63,92
76560,note_on,528,0,7,,,,,,,,,6,,,71,0
76608,note_on,48,0,7,,,,,,,,,6,,,69,92
76752,note_on,720,0,8,,,,,,,,,7,,,47,0
76752,note_on,336,0,6,,,,,,,,,5,,,63,0
76768,note_on,160,0,7,,,,,,,,,6,,,69,0
76800,note_on,48,0,6,,,,,,,,,5,,,64,92
76800,note_on,48,0,8,,,,,,,,,7,,,52,92
76800,note_on,32,0,7,,,,,,,,,6,,,67,92
76992,note_on,7536,0,1,,,,,,,,,0,,,76,75
77136,note_on,336,0,7,,,,,,,,,6,,,67,0
77136,note_on,336,0,6,,,,,,,,,5,,,64,0
77136,note_on,336,0,8,,,,,,,,,7,,,52,0
77152,note_on,160,0,1,,,,,,,,,0,,,76,0
77184,note_on,0,0,6,,,,,,,,,5,,,71,75
77184,note_on,48,0,6,,,,,,,,,5,,,64,75
77184,note_on,7728,0,4,,,,,,,,,3,,,56,75
77184,note_on,48,0,8,,,,,,,,,7,,,56,75
77184,note_on,32,0,1,,,,,,,,,0,,,76,75
77344,note_on,160,0,1,,,,,,,,,0,,,76,0
77376,note_on,32,0,1,,,,,,,,,0,,,76,75
77520,note_on,336,0,8,,,,,,,,,7,,,56,0
77520,note_on,0,0,6,,,,,,,,,5,,,71,0
77520,note_on,336,0,6,,,,,,,,,5,,,64,0
77520,note_on,336,0,4,,,,,,,,,3,,,56,0
77536,note_on,160,0,1,,,,,,,,,0,,,76,0
77568,note_on,0,0,6,,,,,,,,,5,,,73,75
77568,note_on,48,0,6,,,,,,,,,5,,,64,75
77568,note_on,32,0,1,,,,,,,,,0,,,73,75
77568,note_on,48,0,4,,,,,,,,,3,,,57,75
77568,note_on,48,0,8,,,,,,,,,7,,,57,75
77760,note_on,8304,0,2,,,,,,,,,1,,,69,75
77824,note_on,256,0,1,,,,,,,,,0,,,73,0
77856,note_on,32,0,1,,,,,,,,,0,,,73,75
77920,note_on,160,0,2,,,,,,,,,1,,,69,0
77950,note_on,94,0,1,,,,,,,,,0,,,73,0
77952,note_on,8496,0,3,,,,,,,,,2,,,57,75
77952,note_on,32,0,2,,,,,,,,,1,,,69,75
77952,note_on,2,0,1,,,,,,,,,0,,,73,75
78112,note_on,160,0,2,,,,,,,,,1,,,69,0
78144,note_on,32,0,2,,,,,,,,,1,,,69,75
78288,note_on,720,0,6,,,,,,,,,5,,,64,0
78288,note_on,336,0,3,,,,,,,,,2,,,57,0
78288,note_on,720,0,4,,,,,,,,,3,,,57,0
78288,note_on,0,0,6,,,,,,,,,5,,,73,0
78288,note_on,720,0,8,,,,,,,,,7,,,57,0
78288,note_on,336,0,1,,,,,,,,,0,,,73,0
78304,note_on,160,0,2,,,,,,,,,1,,,69,0
78336,note_on,32,0,2,,,,,,,,,1,,,66,75
78336,note_on,48,0,3,,,,,,,,,2,,,62,75
78528,note_on,240,0,1,,,,,,,,,0,,,74,75
78592,note_on,256,0,2,,,,,,,,,1,,,66,0
78624,note_on,32,0,2,,,,,,,,,1,,,66,75
78688,note_on,160,0,1,,,,,,,,,0,,,74,0
78718,note_on,94,0,2,,,,,,,,,1,,,66,0
78720,note_on,0,0,6,,,,,,,,,5,,,74,75
78720,note_on,432,0,8,,,,,,,,,7,,,54,75
78720,note_on,432,0,4,,,,,,,,,3,,,54,75
78720,note_on,32,0,1,,,,,,,,,0,,,74,75
78720,note_on,432,0,6,,,,,,,,,5,,,69,75
78720,note_on,2,0,2,,,,,,,,,1,,,66,75
78880,note_on,160,0,1,,,,,,,,,0,,,74,0
78912,note_on,32,0,1,,,,,,,,,0,,,74,75
79056,note_on,336,0,4,,,,,,,,,3,,,54,0
79056,note_on,0,0,6,,,,,,,,,5,,,74,0
79056,note_on,336,0,6,,,,,,,,,5,,,69,0
79056,note_on,336,0,8,,,,,,,,,7,,,54,0
79056,note_on,336,0,2,,,,,,,,,1,,,66,0
79056,note_on,720,0,3,,,,,,,,,2,,,62,0
79072,note_on,160,0,1,,,,,,,,,0,,,74,0
79104,note_on,48,0,4,,,,,,,,,3,,,55,75
79104,note_on,48,0,8,,,,,,,,,7,,,55,75
79104,note_on,48,0,6,,,,,,,,,5,,,62,75
79104,note_on,32,0,1,,,,,,,,,0,,,71,75
79104,note_on,0,0,6,,,,,,,,,5,,,71,75
79360,note_on,256,0,1,,,,,,,,,0,,,71,0
79392,note_on,32,0,1,,,,,,,,,0,,,71,75
79440,note_on,336,0,6,,,,,,,,,5,,,62,0
79486,note_on,94,0,1,,,,,,,,,0,,,71,0
79488,note_on,432,0,2,,,,,,,,,1,,,67,75
79488,note_on,2,0,1,,,,,,,,,0,,,71,75
79488,note_on,48,0,6,,,,,,,,,5,,,67,75
79824,note_on,720,0,8,,,,,,,,,7,,,55,0
79824,note_on,336,0,6,,,,,,,,,5,,,71,0
79824,note_on,720,0,4,,,,,,,,,3,,,55,0
79824,note_on,336,0,1,,,,,,,,,0,,,71,0
79872,note_on,48,0,6,,,,,,,,,5,,,69,75
79872,note_on,48,0,8,,,,,,,,,7,,,50,75
79872,note_on,48,0,4,,,,,,,,,3,,,50,75
79872,note_on,48,0,1,,,,,,,,,0,,,69,75
79872,note_on,816,0,3,,,,,,,,,2,,,62,75
80208,note_on,720,0,2,,,,,,,,,1,,,67,0
80208,note_on,336,0,6,,,,,,,,,5,,,67,0
80256,note_on,48,0,2,,,,,,,,,1,,,66,75
80256,note_on,48,0,6,,,,,,,,,5,,,66,75
80592,note_on,720,0,8,,,,,,,,,7,,,50,0
80592,note_on,720,0,4,,,,,,,,,3,,,50,0
80592,note_on,0,0,6,,,,,,,,,5,,,66,0
80592,note_on,336,0,6,,,,,,,,,5,,,69,0
80592,note_on,336,0,2,,,,,,,,,1,,,66,0
80592,note_on,720,0,1,,,,,,,,,0,,,69,0
80640,note_on,48,0,6,,,,,,,,,5,,,62,75
80640,note_on,48,0,2,,,,,,,,,1,,,67,75
80640,note_on,0,0,6,,,,,,,,,5,,,71,75
80640,note_on,48,0,8,,,,,,,,,7,,,55,75
80640,note_on,0,0,6,,,,,,,,,5,,,67,75
80640,note_on,48,0,4,,,,,,,,,3,,,55,92
80640,note_on,48,0,1,,,,,,,,,0,,,71,75
80976,note_on,336,0,4,,,,,,,,,3,,,55,0
80976,note_on,336,0,1,,,,,,,,,0,,,71,0
80976,note_on,0,0,6,,,,,,,,,5,,,67,0
80976,note_on,336,0,8,,,,,,,,,7,,,55,0
80976,note_on,336,0,2,,,,,,,,,1,,,67,0
80976,note_on,0,0,6,,,,,,,,,5,,,71,0
80976,note_on,336,0,6,,,,,,,,,5,,,62,0
80976,note_on,1104,0,3,,,,,,,,,2,,,62,0
81024,note_on,48,0,6,,,,,,,,,5,,,69,75
81024,note_on,0,0,6,,,,,,,,,5,,,74,75
81024,note_on,48,0,4,,,,,,,,,3,,,54,92
81024,note_on,48,0,3,,,,,,,,,2,,,66,92
81024,note_on,48,0,8,,,,,,,,,7,,,54,75
81024,note_on,48,0,1,,,,,,,,,0,,,74,92
81360,note_on,336,0,4,,,,,,,,,3,,,54,0
81360,note_on,336,0,8,,,,,,,,,7,,,54,0
81360,note_on,336,0,6,,,,,,,,,5,,,69,0
81360,note_on,336,0,3,,,,,,,,,2,,,66,0
81408,note_on,48,0,8,,,,,,,,,7,,,52,75
81408,note_on,48,0,3,,,,,,,,,2,,,59,92
81408,note_on,432,0,2,,,,,,,,,1,,,67,92
81408,note_on,48,0,6,,,,,,,,,5,,,67,75
81408,note_on,48,0,4,,,,,,,,,3,,,52,92
81744,note_on,720,0,1,,,,,,,,,0,,,74,0
81744,note_on,336,0,6,,,,,,,,,5,,,74,0
81744,note_on,336,0,3,,,,,,,,,2,,,59,0
81792,note_on,48,0,6,,,,,,,,,5,,,73,75
81792,note_on,48,0,1,,,,,,,,,0,,,73,92
81792,note_on,48,0,3,,,,,,,,,2,,,64,92
82128,note_on,336,0,1,,,,,,,,,0,,,73,0
82128,note_on,336,0,6,,,,,,,,,5,,,67,0
82128,note_on,0,0,6,,,,,,,,,5,,,73,0
82128,note_on,720,0,4,,,,,,,,,3,,,52,0
82128,note_on,720,0,8,,,,,,,,,7,,,52,0
82128,note_on,720,0,2,,,,,,,,,1,,,67,0
82128,note_on,336,0,3,,,,,,,,,2,,,64,0
82176,note_on,48,0,4,,,,,,,,,3,,,50,92
82176,note_on,48,0,6,,,,,,,,,5,,,66,108
82176,note_on,48,0,1,,,,,,,,,0,,,74,92
82176,note_on,26928,0,5,,,,,,,,,4,,,81,108
82176,note_on,0,0,6,,,,,,,,,5,,,74,108
82176,note_on,48,0,8,,,,,,,,,7,,,50,108
82176,note_on,48,0,3,,,,,,,,,2,,,57,92
82176,note_on,5040,0,7,,,,,,,,,6,,,66,108
82176,note_on,48,0,2,,,,,,,,,1,,,66,92
82176,note_on,0,0,7,,,,,,,,,6,,,74,108
82896,note_on,720,0,3,,,,,,,,,2,,,57,0
82896,note_on,720,0,7,,,,,,,,,6,,,66,0
82896,note_on,0,0,7,,,,,,,,,6,,,74,0
82896,note_on,0,0,6,,,,,,,,,5,,,74,0
82896,note_on,720,0,8,,,,,,,,,7,,,50,0
82896,note_on,720,0,1,,,,,,,,,0,,,74,0
82896,note_on,720,0,4,,,,,,,,,3,,,50,0
82896,note_on,720,0,2,,,,,,,,,1,,,66,0
82896,note_on,720,0,6,,,,,,,,,5,,,66,0
82896,note_on,720,0,5,,,,,,,,,4,,,81,0
82944,note_on,48,0,7,,,,,,,,,6,,,69,108
82944,note_on,0,0,7,,,,,,,,,6,,,78,108
82944,note_on,48,0,6,,,,,,,,,5,,,69,108
82944,note_on,0,0,6,,,,,,,,,5,,,78,108
82944,note_on,48,0,5,,,,,,,,,4,,,81,108
83280,note_on,336,0,5,,,,,,,,,4,,,81,0
83280,note_on,336,0,6,,,,,,,,,5,,,69,0
83280,note_on,0,0,7,,,,,,,,,6,,,78,0
83280,note_on,336,0,7,,,,,,,,,6,,,69,0
83280,note_on,0,0,6,,,,,,,,,5,,,78,0
83328,note_on,48,0,5,,,,,,,,,4,,,81,108
83328,note_on,48,0,6,,,,,,,,,5,,,61,108
83328,note_on,0,0,6,,,,,,,,,5,,,73,108
83328,note_on,0,0,6,,,,,,,,,5,,,69,108
83328,note_on,0,0,7,,,,,,,,,6,,,76,108
83328,note_on,48,0,7,,,,,,,,,6,,,73,108
83328,note_on,432,0,8,,,,,,,,,7,,,57,108
83328,note_on,0,0,6,,,,,,,,,5,,,76,108
83664,note_on,336,0,6,,,,,,,,,5,,,61,0
83664,note_on,0,0,6,,,,,,,,,5,,,73,0
83664,note_on,0,0,6,,,,,,,,,5,,,76,0
83664,note_on,336,0,5,,,,,,,,,4,,,81,0
83664,note_on,0,0,7,,,,,,,,,6,,,76,0
83664,note_on,336,0,7,,,,,,,,,6,,,73,0
83664,note_on,0,0,6,,,,,,,,,5,,,69,0
83712,note_on,48,0,6,,,,,,,,,5,,,59,108
83712,note_on,0,0,6,,,,,,,,,5,,,66,108
83712,note_on,0,0,6,,,,,,,,,5,,,71,108
83712,note_on,48,0,5,,,,,,,,,4,,,83,108
83712,note_on,0,0,6,,,,,,,,,5,,,74,108
83712,note_on,48,0,7,,,,,,,,,6,,,66,108
83712,note_on,0,0,7,,,,,,,,,6,,,74,108
84048,note_on,336,0,7,,,,,,,,,6,,,66,0
84048,note_on,0,0,6,,,,,,,,,5,,,71,0
84048,note_on,336,0,6,,,,,,,,,5,,,66,0
84048,note_on,720,0,8,,,,,,,,,7,,,57,0
84048,note_on,336,0,5,,,,,,,,,4,,,83,0
84096,note_on,0,0,6,,,,,,,,,5,,,71,108
84096,note_on,48,0,5,,,,,,,,,4,,,76,108
84096,note_on,48,0,7,,,,,,,,,6,,,71,108
84096,note_on,48,0,6,,,,,,,,,5,,,64,108
84096,note_on,48,0,8,,,,,,,,,7,,,56,108
84240,note_on,144,0,7,,,,,,,,,6,,,74,0
84240,note_on,144,0,6,,,,,,,,,5,,,74,0
84288,note_on,48,0,7,,,,,,,,,6,,,74,108
84288,note_on,48,0,6,,,,,,,,,5,,,74,108
84432,note_on,336,0,8,,,,,,,,,7,,,56,0
84432,note_on,336,0,5,,,,,,,,,4,,,76,0
84432,note_on,144,0,6,,,,,,,,,5,,,59,0
84448,note_on,160,0,7,,,,,,,,,6,,,71,0
84448,note_on,0,0,6,,,,,,,,,5,,,74,0
84448,note_on,0,0,7,,,,,,,,,6,,,74,0
84448,note_on,16,0,6,,,,,,,,,5,,,64,0
84448,note_on,0,0,6,,,,,,,,,5,,,71,0
84480,note_on,0,0,6,,,,,,,,,5,,,73,108
84480,note_on,0,0,6,,,,,,,,,5,,,64,108
84480,note_on,32,0,6,,,,,,,,,5,,,57,108
84480,note_on,1584,0,4,,,,,,,,,3,,,57,108
84480,note_on,0,0,7,,,,,,,,,6,,,73,108
84480,note_on,32,0,7,,,,,,,,,6,,,64,108
84480,note_on,48,0,5,,,,,,,,,4,,,76,108
84480,note_on,48,0,8,,,,,,,,,7,,,57,108
84640,note_on,160,0,6,,,,,,,,,5,,,57,0
84672,note_on,1776,0,3,,,,,,,,,2,,,57,108
84672,note_on,32,0,6,,,,,,,,,5,,,57,108
84816,note_on,336,0,5,,,,,,,,,4,,,76,0
84832,note_on,160,0,6,,,,,,,,,5,,,57,0
84832,note_on,160,0,3,,,,,,,,,2,,,57,0
84864,note_on,32,0,6,,,,,,,,,5,,,59,108
84864,note_on,32,0,3,,,,,,,,,2,,,59,108
85024,note_on,160,0,3,,,,,,,,,2,,,59,0
85024,note_on,160,0,6,,,,,,,,,5,,,59,0
85056,note_on,32,0,6,,,,,,,,,5,,,61,108
85056,note_on,32,0,3,,,,,,,,,2,,,61,108
85200,note_on,720,0,7,,,,,,,,,6,,,64,0
85200,note_on,144,0,6,,,,,,,,,5,,,64,0
85200,note_on,0,0,6,,,,,,,,,5,,,73,0
85200,note_on,720,0,4,,,,,,,,,3,,,57,0
85200,note_on,0,0,7,,,,,,,,,6,,,73,0
85200,note_on,720,0,8,,,,,,,,,7,,,57,0
85216,note_on,16,0,6,,,,,,,,,5,,,61,0
85216,note_on,160,0,3,,,,,,,,,2,,,61,0
85248,note_on,48,0,4,,,,,,,,,3,,,59,108
85248,note_on,32,0,3,,,,,,,,,2,,,62,108
85248,note_on,48,0,8,,,,,,,,,7,,,59,108
85248,note_on,32,0,6,,,,,,,,,5,,,62,108
85440,note_on,624,0,5,,,,,,,,,4,,,78,108
85440,note_on,2544,0,2,,,,,,,,,1,,,66,108
85504,note_on,256,0,3,,,,,,,,,2,,,62,0
85504,note_on,256,0,6,,,,,,,,,5,,,62,0
85536,note_on,32,0,3,,,,,,,,,2,,,62,108
85536,note_on,32,0,6,,,,,,,,,5,,,62,108
85584,note_on,336,0,8,,,,,,,,,7,,,59,0
85584,note_on,336,0,4,,,,,,,,,3,,,59,0
85600,note_on,160,0,2,,,,,,,,,1,,,66,0
85600,note_on,160,0,5,,,,,,,,,4,,,78,0
85630,note_on,94,0,3,,,,,,,,,2,,,62,0
85630,note_on,94,0,6,,,,,,,,,5,,,62,0
85632,note_on,2736,0,1,,,,,,,,,0,,,69,108
85632,note_on,48,0,8,,,,,,,,,7,,,57,108
85632,note_on,432,0,7,,,,,,,,,6,,,69,108
85632,note_on,32,0,5,,,,,,,,,4,,,78,108
85632,note_on,2,0,6,,,,,,,,,5,,,62,108
85632,note_on,48,0,4,,,,,,,,,3,,,57,108
85632,note_on,2,0,3,,,,,,,,,2,,,62,108
85632,note_on,32,0,2,,,,,,,,,1,,,66,108
85792,note_on,160,0,3,,,,,,,,,2,,,62,0
85792,note_on,160,0,5,,,,,,,,,4,,,78,0
85792,note_on,160,0,2,,,,,,,,,1,,,66,0
85792,note_on,160,0,6,,,,,,,,,5,,,62,0
85824,note_on,32,0,5,,,,,,,,,4,,,78,108
85824,note_on,32,0,6,,,,,,,,,5,,,62,108
85824,note_on,32,0,2,,,,,,,,,1,,,66,108
85824,note_on,32,0,3,,,,,,,,,2,,,62,108
85968,note_on,336,0,1,,,,,,,,,0,,,69,0
85968,note_on,336,0,4,,,,,,,,,3,,,57,0
85968,note_on,336,0,8,,,,,,,,,7,,,57,0
85968,note_on,336,0,7,,,,,,,,,6,,,69,0
85984,note_on,160,0,6,,,,,,,,,5,,,62,0
85984,note_on,160,0,5,,,,,,,,,4,,,78,0
85984,note_on,160,0,2,,,,,,,,,1,,,66,0
85984,note_on,160,0,3,,,,,,,,,2,,,62,0
86016,note_on,32,0,5,,,,,,,,,4,,,79,108
86016,note_on,48,0,4,,,,,,,,,3,,,55,108
86016,note_on,32,0,3,,,,,,,,,2,,,64,108
86016,note_on,32,0,2,,,,,,,,,1,,,67,108
86016,note_on,48,0,1,,,,,,,,,0,,,71,108
86016,note_on,32,0,6,,,,,,,,,5,,,62,108
86016,note_on,48,0,7,,,,,,,,,6,,,71,108
86016,note_on,48,0,8,,,,,,,,,7,,,55,108
86176,note_on,160,0,6,,,,,,,,,5,,,62,0
86176,note_on,160,0,3,,,,,,,,,2,,,64,0
86208,note_on,32,0,3,,,,,,,,,2,,,62,108
86208,note_on,32,0,6,,,,,,,,,5,,,62,108
86272,note_on,256,0,2,,,,,,,,,1,,,67,0
86272,note_on,256,0,5,,,,,,,,,4,,,79,0
86302,note_on,94,0,3,,,,,,,,,2,,,62,0
86302,note_on,94,0,6,,,,,,,,,5,,,62,0
86304,note_on,2,0,3,,,,,,,,,2,,,62,108
86304,note_on,32,0,2,,,,,,,,,1,,,66,108
86304,note_on,2,0,6,,,,,,,,,5,,,62,108
86304,note_on,32,0,5,,,,,,,,,4,,,78,108
86352,note_on,336,0,1,,,,,,,,,0,,,71,0
86352,note_on,336,0,7,,,,,,,,,6,,,71,0
86398,note_on,94,0,6,,,,,,,,,5,,,62,0
86398,note_on,94,0,5,,,,,,,,,4,,,78,0
86398,note_on,94,0,3,,,,,,,,,2,,,62,0
86398,note_on,94,0,2,,,,,,,,,1,,,66,0
86400,note_on,48,0,1,,,,,,,,,0,,,73,108
86400,note_on,2,0,5,,,,,,,,,4,,,76,108
86400,note_on,2,0,2,,,,,,,,,1,,,64,108
86400,note_on,48,0,7,,,,,,,,,6,,,73,108
86400,note_on,2,0,6,,,,,,,,,5,,,64,108
86400,note_on,2,0,3,,,,,,,,,2,,,64,108
86544,note_on,528,0,8,,,,,,,,,7,,,55,0
86544,note_on,528,0,4,,,,,,,,,3,,,55,0
86560,note_on,160,0,3,,,,,,,,,2,,,64,0
86560,note_on,160,0,2,,,,,,,,,1,,,64,0
86560,note_on,160,0,5,,,,,,,,,4,,,76,0
86560,note_on,160,0,6,,,,,,,,,5,,,64,0
86592,note_on,32,0,5,,,,,,,,,4,,,76,108
86592,note_on,32,0,6,,,,,,,,,5,,,64,108
86592,note_on,32,0,3,,,,,,,,,2,,,64,108
86592,note_on,32,0,2,,,,,,,,,1,,,64,108
86592,note_on,48,0,4,,,,,,,,,3,,,55,108
86592,note_on,48,0,8,,,,,,,,,7,,,55,108
86736,note_on,336,0,7,,,,,,,,,6,,,73,0
86736,note_on,336,0,1,,,,,,,,,0,,,73,0
86752,note_on,160,0,6,,,,,,,,,5,,,64,0
86752,note_on,160,0,2,,,,,,,,,1,,,64,0
86752,note_on,160,0,8,,,,,,,,,7,,,55,0
86752,note_on,160,0,5,,,,,,,,,4,,,76,0
86752,note_on,160,0,3,,,,,,,,,2,,,64,0
86752,note_on,160,0,4,,,,,,,,,3,,,55,0
86784,note_on,32,0,2,,,,,,,,,1,,,66,108
86784,note_on,32,0,8,,,,,,,,,7,,,54,108
86784,note_on,32,0,4,,,,,,,,,3,,,54,108
86784,note_on,32,0,5,,,,,,,,,4,,,78,108
86784,note_on,32,0,6,,,,,,,,,5,,,57,108
86784,note_on,48,0,7,,,,,,,,,6,,,74,108
86784,note_on,48,0,1,,,,,,,,,0,,,74,108
86784,note_on,32,0,3,,,,,,,,,2,,,57,108
86944,note_on,160,0,3,,,,,,,,,2,,,57,0
86944,note_on,160,0,2,,,,,,,,,1,,,66,0
86944,note_on,160,0,6,,,,,,,,,5,,,57,0
86944,note_on,160,0,5,,,,,,,,,4,,,78,0
86976,note_on,32,0,3,,,,,,,,,2,,,57,108
86976,note_on,32,0,6,,,,,,,,,5,,,57,108
86976,note_on,32,0,5,,,,,,,,,4,,,78,108
86976,note_on,32,0,2,,,,,,,,,1,,,66,108
87070,note_on,94,0,5,,,,,,,,,4,,,78,0
87070,note_on,94,0,2,,,,,,,,,1,,,66,0
87072,note_on,2,0,2,,,,,,,,,1,,,66,108
87072,note_on,2,0,5,,,,,,,,,4,,,78,108
87136,note_on,160,0,6,,,,,,,,,5,,,57,0
87136,note_on,160,0,3,,,,,,,,,2,,,57,0
87166,note_on,94,0,2,,,,,,,,,1,,,66,0
87166,note_on,94,0,5,,,,,,,,,4,,,78,0
87168,note_on,32,0,3,,,,,,,,,2,,,57,108
87168,note_on,32,0,6,,,,,,,,,5,,,57,108
87168,note_on,2,0,2,,,,,,,,,1,,,67,108
87168,note_on,2,0,5,,,,,,,,,4,,,79,108
87312,note_on,528,0,1,,,,,,,,,0,,,74,0
87312,note_on,528,0,7,,,,,,,,,6,,,74,0
87328,note_on,160,0,5,,,,,,,,,4,,,79,0
87328,note_on,160,0,2,,,,,,,,,1,,,67,0
87360,note_on,32,0,5,,,,,,,,,4,,,78,108
87360,note_on,48,0,1,,,,,,,,,0,,,74,108
87360,note_on,32,0,2,,,,,,,,,1,,,66,108
87360,note_on,48,0,7,,,,,,,,,6,,,74,108
87504,note_on,720,0,4,,,,,,,,,3,,,54,0
87504,note_on,720,0,8,,,,,,,,,7,,,54,0
87520,note_on,160,0,1,,,,,,,,,0,,,74,0
87520,note_on,160,0,2,,,,,,,,,1,,,66,0
87520,note_on,160,0,5,,,,,,,,,4,,,78,0
87520,note_on,160,0,7,,,,,,,,,6,,,74,0
87552,note_on,32,0,5,,,,,,,,,4,,,76,108
87552,note_on,32,0,2,,,,,,,,,1,,,64,108
87552,note_on,32,0,1,,,,,,,,,0,,,73,108
87552,note_on,32,0,7,,,,,,,,,6,,,73,108
87712,note_on,160,0,5,,,,,,,,,4,,,76,0
87712,note_on,160,0,2,,,,,,,,,1,,,64,0
87744,note_on,240,0,8,,,,,,,,,7,,,57,108
87744,note_on,32,0,5,,,,,,,,,4,,,76,108
87744,note_on,32,0,2,,,,,,,,,1,,,64,108
87744,note_on,240,0,4,,,,,,,,,3,,,57,108
87888,note_on,336,0,1,,,,,,,,,0,,,73,0
87888,note_on,336,0,7,,,,,,,,,6,,,73,0
87888,note_on,720,0,3,,,,,,,,,2,,,57,0
87888,note_on,720,0,6,,,,,,,,,5,,,57,0
87904,note_on,160,0,4,,,,,,,,,3,,,57,0
87904,note_on,160,0,2,,,,,,,,,1,,,64,0
87904,note_on,160,0,8,,,,,,,,,7,,,57,0
87904,note_on,160,0,5,,,,,,,,,4,,,76,0
87936,note_on,48,0,3,,,,,,,,,2,,,57,108
87936,note_on,32,0,4,,,,,,,,,3,,,57,108
87936,note_on,48,0,7,,,,,,,,,6,,,73,108
87936,note_on,48,0,6,,,,,,,,,5,,,57,108
87936,note_on,32,0,8,,,,,,,,,7,,,57,108
87936,note_on,48,0,1,,,,,,,,,0,,,73,108
88096,note_on,160,0,8,,,,,,,,,7,,,57,0
88096,note_on,160,0,4,,,,,,,,,3,,,57,0
88128,note_on,32,0,8,,,,,,,,,7,,,57,108
88128,note_on,32,0,4,,,,,,,,,3,,,57,108
88272,note_on,336,0,7,,,,,,,,,6,,,73,0
88272,note_on,336,0,1,,,,,,,,,0,,,73,0
88288,note_on,160,0,8,,,,,,,,,7,,,57,0
88288,note_on,160,0,4,,,,,,,,,3,,,57,0
88320,note_on,48,0,7,,,,,,,,,6,,,74,108
88320,note_on,48,0,1,,,,,,,,,0,,,74,108
88320,note_on,416,0,2,,,,,,,,,1,,,69,108
88320,note_on,32,0,4,,,,,,,,,3,,,54,108
88320,note_on,32,0,8,,,,,,,,,7,,,54,108
88576,note_on,256,0,8,,,,,,,,,7,,,54,0
88576,note_on,256,0,4,,,,,,,,,3,,,54,0
88608,note_on,32,0,4,,,,,,,,,3,,,52,108
88608,note_on,32,0,8,,,,,,,,,7,,,52,108
88656,note_on,336,0,7,,,,,,,,,6,,,74,0
88656,note_on,336,0,1,,,,,,,,,0,,,74,0
88656,note_on,720,0,6,,,,,,,,,5,,,57,0
88656,note_on,720,0,3,,,,,,,,,2,,,57,0
88702,note_on,94,0,8,,,,,,,,,7,,,52,0
88702,note_on,94,0,4,,,,,,,,,3,,,52,0
88704,note_on,48,0,7,,,,,,,,,6,,,74,108
88704,note_on,48,0,1,,,,,,,,,0,,,74,108
88704,note_on,48,0,6,,,,,,,,,5,,,62,108
88704,note_on,2,0,8,,,,,,,,,7,,,50,108
88704,note_on,2,0,4,,,,,,,,,3,,,50,108
88704,note_on,48,0,3,,,,,,,,,2,,,62,108
88864,note_on,160,0,4,,,,,,,,,3,,,50,0
88864,note_on,160,0,8,,,,,,,,,7,,,50,0
88864,note_on,160,0,7,,,,,,,,,6,,,74,0
88864,note_on,160,0,1,,,,,,,,,0,,,74,0
88896,note_on,32,0,4,,,,,,,,,3,,,54,108
88896,note_on,32,0,8,,,,,,,,,7,,,54,108
88896,note_on,32,0,1,,,,,,,,,0,,,74,108
88896,note_on,32,0,7,,,,,,,,,6,,,74,108
89040,note_on,720,0,2,,,,,,,,,1,,,69,0
89056,note_on,160,0,8,,,,,,,,,7,,,54,0
89056,note_on,160,0,7,,,,,,,,,6,,,74,0
89056,note_on,160,0,1,,,,,,,,,0,,,74,0
89056,note_on,160,0,4,,,,,,,,,3,,,54,0
89088,note_on,32,0,7,,,,,,,,,6,,,71,108
89088,note_on,32,0,4,,,,,,,,,3,,,55,108
89088,note_on,32,0,1,,,,,,,,,0,,,71,108
89088,note_on,48,0,2,,,,,,,,,1,,,67,108
89088,note_on,32,0,8,,,,,,,,,7,,,55,108
89248,note_on,160,0,4,,,,,,,,,3,,,55,0
89248,note_on,160,0,8,,,,,,,,,7,,,55,0
89280,note_on,32,0,4,,,,,,,,,3,,,55,108
89280,note_on,32,0,8,,,,,,,,,7,,,55,108
89374,note_on,94,0,4,,,,,,,,,3,,,55,0
89374,note_on,94,0,8,,,,,,,,,7,,,55,0
89376,note_on,2,0,4,,,,,,,,,3,,,55,108
89376,note_on,2,0,8,,,,,,,,,7,,,55,108
89424,note_on,336,0,7,,,,,,,,,6,,,71,0
89424,note_on,720,0,6,,,,,,,,,5,,,62,0
89424,note_on,336,0,1,,,,,,,,,0,,,71,0
89424,note_on,720,0,3,,,,,,,,,2,,,62,0
89470,note_on,94,0,4,,,,,,,,,3,,,55,0
89470,note_on,94,0,8,,,,,,,,,7,,,55,0
89472,note_on,48,0,7,,,,,,,,,6,,,71,108
89472,note_on,2,0,4,,,,,,,,,3,,,55,108
89472,note_on,48,0,3,,,,,,,,,2,,,59,108
89472,note_on,48,0,6,,,,,,,,,5,,,59,108
89472,note_on,48,0,1,,,,,,,,,0,,,71,108
89472,note_on,2,0,8,,,,,,,,,7,,,55,108
89632,note_on,160,0,4,,,,,,,,,3,,,55,0
89632,note_on,160,0,8,,,,,,,,,7,,,55,0
89664,note_on,32,0,8,,,,,,,,,7,,,55,108
89664,note_on,32,0,4,,,,,,,,,3,,,55,108
89808,note_on,336,0,1,,,,,,,,,0,,,71,0
89808,note_on,720,0,2,,,,,,,,,1,,,67,0
89808,note_on,336,0,7,,,,,,,,,6,,,71,0
89824,note_on,160,0,4,,,,,,,,,3,,,55,0
89824,note_on,160,0,8,,,,,,,,,7,,,55,0
89856,note_on,48,0,7,,,,,,,,,6,,,76,108
89856,note_on,32,0,8,,,,,,,,,7,,,52,108
89856,note_on,32,0,4,,,,,,,,,3,,,52,108
89856,note_on,48,0,2,,,,,,,,,1,,,68,108
89856,note_on,48,0,1,,,,,,,,,0,,,76,108
90192,note_on,336,0,4,,,,,,,,,3,,,52,0
90192,note_on,336,0,7,,,,,,,,,6,,,76,0
90192,note_on,336,0,1,,,,,,,,,0,,,76,0
90192,note_on,720,0,3,,,,,,,,,2,,,59,0
90192,note_on,720,0,6,,,,,,,,,5,,,59,0
90192,note_on,336,0,8,,,,,,,,,7,,,52,0
90240,note_on,48,0,6,,,,,,,,,5,,,64,108
90240,note_on,48,0,4,,,,,,,,,3,,,52,108
90240,note_on,48,0,7,,,,,,,,,6,,,76,108
90240,note_on,48,0,3,,,,,,,,,2,,,64,108
90240,note_on,48,0,8,,,,,,,,,7,,,52,108
90240,note_on,48,0,1,,,,,,,,,0,,,76,108
90400,note_on,160,0,4,,,,,,,,,3,,,52,0
90400,note_on,160,0,8,,,,,,,,,7,,,52,0
90432,note_on,32,0,4,,,,,,,,,3,,,52,108
90432,note_on,32,0,8,,,,,,,,,7,,,52,108
90576,note_on,336,0,1,,,,,,,,,0,,,76,0
90576,note_on,336,0,7,,,,,,,,,6,,,76,0
90576,note_on,720,0,2,,,,,,,,,1,,,68,0
90592,note_on,160,0,4,,,,,,,,,3,,,52,0
90592,note_on,160,0,8,,,,,,,,,7,,,52,0
90624,note_on,48,0,2,,,,,,,,,1,,,69,108
90624,note_on,32,0,8,,,,,,,,,7,,,57,108
90624,note_on,48,0,7,,,,,,,,,6,,,73,108
90624,note_on,48,0,1,,,,,,,,,0,,,73,108
90624,note_on,32,0,4,,,,,,,,,3,,,57,108
90784,note_on,160,0,8,,,,,,,,,7,,,57,0
90784,note_on,160,0,4,,,,,,,,,3,,,57,0
90816,note_on,32,0,4,,,,,,,,,3,,,57,108
90816,note_on,32,0,8,,,,,,,,,7,,,57,108
90910,note_on,94,0,8,,,,,,,,,7,,,57,0
90910,note_on,94,0,4,,,,,,,,,3,,,57,0
90912,note_on,2,0,4,,,,,,,,,3,,,57,108
90912,note_on,2,0,8,,,,,,,,,7,,,57,108
90960,note_on,336,0,7,,,,,,,,,6,,,73,0
90960,note_on,720,0,3,,,,,,,,,2,,,64,0
90960,note_on,336,0,1,,,,,,,,,0,,,73,0
90960,note_on,720,0,6,,,,,,,,,5,,,64,0
91006,note_on,94,0,4,,,,,,,,,3,,,57,0
91006,note_on,94,0,8,,,,,,,,,7,,,57,0
91008,note_on,2,0,4,,,,,,,,,3,,,57,108
91008,note_on,48,0,1,,,,,,,,,0,,,73,108
91008,note_on,48,0,7,,,,,,,,,6,,,73,108
91008,note_on,2,0,8,,,,,,,,,7,,,57,108
91008,note_on,48,0,3,,,,,,,,,2,,,61,108
91008,note_on,48,0,6,,,,,,,,,5,,,61,108
91168,note_on,160,0,8,,,,,,,,,7,,,57,0
91168,note_on,160,0,4,,,,,,,,,3,,,57,0
91200,note_on,32,0,8,,,,,,,,,7,,,57,108
91200,note_on,32,0,4,,,,,,,,,3,,,57,108
91344,note_on,336,0,6,,,,,,,,,5,,,61,0
91344,note_on,336,0,1,,,,,,,,,0,,,73,0
91344,note_on,336,0,3,,,,,,,,,2,,,61,0
91344,note_on,720,0,2,,,,,,,,,1,,,69,0
91344,note_on,336,0,7,,,,,,,,,6,,,73,0
91360,note_on,160,0,8,,,,,,,,,7,,,57,0
91360,note_on,160,0,4,,,,,,,,,3,,,57,0
91392,note_on,48,0,3,,,,,,,,,2,,,66,108
91392,note_on,48,0,1,,,,,,,,,0,,,74,108
91392,note_on,0,0,7,,,,,,,,,6,,,81,108
91392,note_on,0,0,7,,,,,,,,,6,,,78,108
91392,note_on,48,0,7,,,,,,,,,6,,,74,108
91392,note_on,32,0,8,,,,,,,,,7,,,54,108
91392,note_on,48,0,2,,,,,,,,,1,,,69,108
91392,note_on,32,0,4,,,,,,,,,3,,,54,108
91728,note_on,0,0,7,,,,,,,,,6,,,81,0
91728,note_on,336,0,1,,,,,,,,,0,,,74,0
91728,note_on,336,0,4,,,,,,,,,3,,,54,0
91728,note_on,336,0,8,,,,,,,,,7,,,54,0
91728,note_on,336,0,2,,,,,,,,,1,,,69,0
91728,note_on,0,0,7,,,,,,,,,6,,,78,0
91728,note_on,336,0,7,,,,,,,,,6,,,74,0
91728,note_on,336,0,3,,,,,,,,,2,,,66,0
91776,note_on,0,0,7,,,,,,,,,6,,,78,108
91776,note_on,0,0,7,,,,,,,,,6,,,81,108
91776,note_on,48,0,3,,,,,,,,,2,,,66,108
91776,note_on,48,0,4,,,,,,,,,3,,,50,108
91776,note_on,48,0,2,,,,,,,,,1,,,69,108
91776,note_on,48,0,8,,,,,,,,,7,,,50,108
91776,note_on,48,0,1,,,,,,,,,0,,,74,108
91776,note_on,48,0,7,,,,,,,,,6,,,74,108
92112,note_on,336,0,3,,,,,,,,,2,,,66,0
92112,note_on,0,0,7,,,,,,,,,6,,,81,0
92112,note_on,336,0,7,,,,,,,,,6,,,74,0
92112,note_on,336,0,1,,,,,,,,,0,,,74,0
92112,note_on,336,0,4,,,,,,,,,3,,,50,0
92112,note_on,0,0,7,,,,,,,,,6,,,78,0
92112,note_on,336,0,2,,,,,,,,,1,,,69,0
92112,note_on,336,0,8,,,,,,,,,7,,,50,0
92160,note_on,48,0,8,,,,,,,,,7,,,57,108
92160,note_on,48,0,2,,,,,,,,,1,,,69,108
92160,note_on,4256,0,5,,,,,,,,,4,,,81,108
92160,note_on,48,0,3,,,,,,,,,2,,,64,108
92160,note_on,0,0,7,,,,,,,,,6,,,76,108
92160,note_on,48,0,7,,,,,,,,,6,,,74,108
92160,note_on,48,0,4,,,,,,,,,3,,,57,108
92160,note_on,48,0,1,,,,,,,,,0,,,74,108
92320,note_on,160,0,5,,,,,,,,,4,,,81,0
92352,note_on,32,0,5,,,,,,,,,4,,,81,108
92446,note_on,94,0,5,,,,,,,,,4,,,81,0
92448,note_on,2,0,5,,,,,,,,,4,,,81,108
92496,note_on,336,0,7,,,,,,,,,6,,,74,0
92542,note_on,94,0,5,,,,,,,,,4,,,81,0
92544,note_on,0,0,1,,,,,,,,,0,,,73,108
92544,note_on,384,0,1,,,,,,,,,0,,,74,0
92544,note_on,48,0,7,,,,,,,,,6,,,73,108
92544,note_on,2,0,5,,,,,,,,,4,,,81,108
92704,note_on,160,0,5,,,,,,,,,4,,,81,0
92736,note_on,32,0,5,,,,,,,,,4,,,81,108
92880,note_on,0,0,7,,,,,,,,,6,,,76,0
92880,note_on,336,0,7,,,,,,,,,6,,,73,0
92880,note_on,336,0,1,,,,,,,,,0,,,73,0
92880,note_on,720,0,8,,,,,,,,,7,,,57,0
92880,note_on,720,0,4,,,,,,,,,3,,,57,0
92880,note_on,720,0,3,,,,,,,,,2,,,64,0
92880,note_on,720,0,2,,,,,,,,,1,,,69,0
92896,note_on,160,0,5,,,,,,,,,4,,,81,0
92928,note_on,32,0,5,,,,,,,,,4,,,78,108
92928,note_on,48,0,8,,,,,,,,,7,,,50,108
92928,note_on,48,0,1,,,,,,,,,0,,,74,108
92928,note_on,48,0,2,,,,,,,,,1,,,69,108
92928,note_on,0,0,7,,,,,,,,,6,,,74,108
92928,note_on,48,0,7,,,,,,,,,6,,,69,108
92928,note_on,48,0,4,,,,,,,,,3,,,50,108
92928,note_on,48,0,3,,,,,,,,,2,,,66,108
93184,note_on,256,0,5,,,,,,,,,4,,,78,0
93216,note_on,32,0,5,,,,,,,,,4,,,78,108
93264,note_on,0,0,7,,,,,,,,,6,,,74,0
93264,note_on,336,0,2,,,,,,,,,1,,,69,0
93264,note_on,336,0,4,,,,,,,,,3,,,50,0
93264,note_on,336,0,8,,,,,,,,,7,,,50,0
93264,note_on,336,0,7,,,,,,,,,6,,,69,0
93264,note_on,336,0,1,,,,,,,,,0,,,74,0
93310,note_on,94,0,5,,,,,,,,,4,,,78,0
93312,note_on,48,0,7,,,,,,,,,6,,,66,108
93312,note_on,0,0,7,,,,,,,,,6,,,71,108
93312,note_on,48,0,8,,,,,,,,,7,,,51,108
93312,note_on,2,0,5,,,,,,,,,4,,,78,108
93312,note_on,48,0,1,,,,,,,,,0,,,71,108
93312,note_on,48,0,2,,,,,,,,,1,,,66,108
93312,note_on,48,0,4,,,,,,,,,3,,,51,108
93472,note_on,160,0,5,,,,,,,,,4,,,78,0
93504,note_on,32,0,5,,,,,,,,,4,,,78,108
93648,note_on,336,0,2,,,,,,,,,1,,,66,0
93648,note_on,336,0,7,,,,,,,,,6,,,66,0
93648,note_on,336,0,8,,,,,,,,,7,,,51,0
93648,note_on,720,0,3,,,,,,,,,2,,,66,0
93648,note_on,336,0,4,,,,,,,,,3,,,51,0
93664,note_on,160,0,5,,,,,,,,,4,,,78,0
93696,note_on,32,0,5,,,,,,,,,4,,,79,108
93696,note_on,48,0,2,,,,,,,,,1,,,67,108
93696,note_on,2352,0,6,,,,,,,,,5,,,59,108
93696,note_on,48,0,8,,,,,,,,,7,,,52,108
93696,note_on,48,0,4,,,,,,,,,3,,,52,108
93696,note_on,48,0,3,,,,,,,,,2,,,59,108
93856,note_on,160,0,5,,,,,,,,,4,,,79,0
93888,note_on,32,0,5,,,,,,,,,4,,,79,108
93982,note_on,94,0,5,,,,,,,,,4,,,79,0
93984,note_on,2,0,5,,,,,,,,,4,,,79,108
94032,note_on,336,0,3,,,,,,,,,2,,,59,0
94032,note_on,336,0,4,,,,,,,,,3,,,52,0
94032,note_on,336,0,8,,,,,,,,,7,,,52,0
94032,note_on,336,0,6,,,,,,,,,5,,,59,0
94032,note_on,384,0,7,,,,,,,,,6,,,71,0
94032,note_on,720,0,1,,,,,,,,,0,,,71,0
94032,note_on,336,0,2,,,,,,,,,1,,,67,0
94078,note_on,94,0,5,,,,,,,,,4,,,79,0
94080,note_on,48,0,1,,,,,,,,,0,,,71,108
94080,note_on,48,0,2,,,,,,,,,1,,,66,108
94080,note_on,2,0,5,,,,,,,,,4,,,78,108
94080,note_on,48,0,7,,,,,,,,,6,,,71,108
94080,note_on,48,0,4,,,,,,,,,3,,,59,108
94080,note_on,48,0,8,,,,,,,,,7,,,59,108
94080,note_on,48,0,6,,,,,,,,,5,,,62,108
94080,note_on,48,0,3,,,,,,,,,2,,,62,108
94240,note_on,160,0,5,,,,,,,,,4,,,78,0
94272,note_on,32,0,5,,,,,,,,,4,,,78,108
94416,note_on,336,0,4,,,,,,,,,3,,,59,0
94416,note_on,336,0,8,,,,,,,,,7,,,59,0
94416,note_on,336,0,3,,,,,,,,,2,,,62,0
94416,note_on,336,0,6,,,,,,,,,5,,,62,0
94416,note_on,336,0,2,,,,,,,,,1,,,66,0
94432,note_on,160,0,5,,,,,,,,,4,,,78,0
94464,note_on,48,0,3,,,,,,,,,2,,,61,108
94464,note_on,48,0,4,,,,,,,,,3,,,54,108
94464,note_on,48,0,8,,,,,,,,,7,,,54,108
94464,note_on,32,0,5,,,,,,,,,4,,,78,108
94464,note_on,48,0,6,,,,,,,,,5,,,61,108
94464,note_on,48,0,2,,,,,,,,,1,,,66,108
94800,note_on,720,0,1,,,,,,,,,0,,,71,0
94800,note_on,720,0,7,,,,,,,,,6,,,71,0
94848,note_on,48,0,7,,,,,,,,,6,,,70,108
94848,note_on,48,0,1,,,,,,,,,0,,,70,108
94992,note_on,528,0,5,,,,,,,,,4,,,78,0
95040,note_on,48,0,5,,,,,,,,,4,,,76,108
95184,note_on,336,0,1,,,,,,,,,0,,,70,0
95184,note_on,720,0,8,,,,,,,,,7,,,54,0
95184,note_on,720,0,3,,,,,,,,,2,,,61,0
95184,note_on,720,0,6,,,,,,,,,5,,,61,0
95184,note_on,720,0,2,,,,,,,,,1,,,66,0
95184,note_on,720,0,4,,,,,,,,,3,,,54,0
95184,note_on,336,0,7,,,,,,,,,6,,,70,0
95200,note_on,160,0,5,,,,,,,,,4,,,76,0
95232,note_on,48,0,8,,,,,,,,,7,,,59,108
95232,note_on,48,0,7,,,,,,,,,6,,,71,108
95232,note_on,32,0,5,,,,,,,,,4,,,74,108
95232,note_on,48,0,6,,,,,,,,,5,,,62,108
95232,note_on,48,0,3,,,,,,,,,2,,,62,108
95232,note_on,48,0,4,,,,,,,,,3,,,59,108
95232,note_on,48,0,1,,,,,,,,,0,,,71,108
95232,note_on,48,0,2,,,,,,,,,1,,,66,108
95568,note_on,336,0,4,,,,,,,,,3,,,59,0
95568,note_on,336,0,3,,,,,,,,,2,,,62,0
95568,note_on,336,0,8,,,,,,,,,7,,,59,0
95568,note_on,336,0,5,,,,,,,,,4,,,74,0
95568,note_on,336,0,6,,,,,,,,,5,,,62,0
95568,note_on,336,0,2,,,,,,,,,1,,,66,0
95616,note_on,48,0,6,,,,,,,,,5,,,64,108
95616,note_on,48,0,8,,,,,,,,,7,,,56,108
95616,note_on,48,0,4,,,,,,,,,3,,,56,108
95616,note_on,48,0,3,,,,,,,,,2,,,64,108
95952,note_on,336,0,4,,,,,,,,,3,,,56,0
95952,note_on,336,0,8,,,,,,,,,7,,,56,0
95952,note_on,720,0,7,,,,,,,,,6,,,71,0
95952,note_on,720,0,1,,,,,,,,,0,,,71,0
96000,note_on,48,0,7,,,,,,,,,6,,,72,108
96000,note_on,48,0,8,,,,,,,,,7,,,57,108
96000,note_on,432,0,2,,,,,,,,,1,,,69,108
96000,note_on,48,0,1,,,,,,,,,0,,,72,108
96000,note_on,48,0,4,,,,,,,,,3,,,57,108
96000,note_on,432,0,5,,,,,,,,,4,,,81,108
96160,note_on,160,0,5,,,,,,,,,4,,,81,0
96192,note_on,32,0,5,,,,,,,,,4,,,81,108
96286,note_on,94,0,5,,,,,,,,,4,,,81,0
96288,note_on,2,0,5,,,,,,,,,4,,,81,108
96336,note_on,336,0,4,,,,,,,,,3,,,57,0
96336,note_on,336,0,8,,,,,,,,,7,,,57,0
96336,note_on,720,0,6,,,,,,,,,5,,,64,0
96336,note_on,720,0,3,,,,,,,,,2,,,64,0
96336,note_on,336,0,1,,,,,,,,,0,,,72,0
96336,note_on,336,0,7,,,,,,,,,6,,,72,0
96336,note_on,336,0,2,,,,,,,,,1,,,69,0
96382,note_on,94,0,5,,,,,,,,,4,,,81,0
96384,note_on,48,0,6,,,,,,,,,5,,,76,108
96384,note_on,48,0,1,,,,,,,,,0,,,71,108
96384,note_on,2,0,5,,,,,,,,,4,,,79,108
96384,note_on,48,0,2,,,,,,,,,1,,,67,108
96384,note_on,48,0,8,,,,,,,,,7,,,52,108
96384,note_on,48,0,7,,,,,,,,,6,,,71,108
96384,note_on,48,0,3,,,,,,,,,2,,,64,108
96384,note_on,48,0,4,,,,,,,,,3,,,52,108
96544,note_on,160,0,5,,,,,,,,,4,,,79,0
96576,note_on,32,0,5,,,,,,,,,4,,,79,108
96720,note_on,336,0,7,,,,,,,,,6,,,71,0
96720,note_on,336,0,1,,,,,,,,,0,,,71,0
96720,note_on,336,0,3,,,,,,,,,2,,,64,0
96720,note_on,336,0,4,,,,,,,,,3,,,52,0
96720,note_on,336,0,8,,,,,,,,,7,,,52,0
96720,note_on,336,0,2,,,,,,,,,1,,,67,0
96736,note_on,160,0,5,,,,,,,,,4,,,79,0
96768,note_on,48,0,8,,,,,,,,,7,,,47,108
96768,note_on,48,0,4,,,,,,,,,3,,,47,108
96768,note_on,48,0,7,,,,,,,,,6,,,71,108
96768,note_on,48,0,2,,,,,,,,,1,,,66,108
96768,note_on,32,0,5,,,,,,,,,4,,,78,108
96768,note_on,48,0,1,,,,,,,,,0,,,71,108
96768,note_on,48,0,3,,,,,,,,,2,,,64,108
97104,note_on,720,0,6,,,,,,,,,5,,,76,0
97104,note_on,336,0,5,,,,,,,,,4,,,78,0
97152,note_on,48,0,6,,,,,,,,,5,,,75,108
97152,note_on,384,0,3,,,,,,,,,2,,,64,0
97152,note_on,0,0,3,,,,,,,,,2,,,63,108
97488,note_on,720,0,4,,,,,,,,,3,,,47,0
97488,note_on,720,0,7,,,,,,,,,6,,,71,0
97488,note_on,336,0,3,,,,,,,,,2,,,63,0
97488,note_on,720,0,1,,,,,,,,,0,,,71,0
97488,note_on,720,0,2,,,,,,,,,1,,,66,0
97488,note_on,720,0,8,,,,,,,,,7,,,47,0
97488,note_on,336,0,6,,,,,,,,,5,,,75,0
97536,note_on,48,0,7,,,,,,,,,6,,,71,108
97536,note_on,48,0,2,,,,,,,,,1,,,67,108
97536,note_on,0,0,6,,,,,,,,,5,,,79,108
97536,note_on,48,0,8,,,,,,,,,7,,,52,108
97536,note_on,48,0,1,,,,,,,,,0,,,71,108
97536,note_on,48,0,3,,,,,,,,,2,,,64,108
97536,note_on,48,0,4,,,,,,,,,3,,,52,108
97536,note_on,48,0,6,,,,,,,,,5,,,76,108
97872,note_on,336,0,1,,,,,,,,,0,,,71,0
97872,note_on,336,0,7,,,,,,,,,6,,,71,0
97872,note_on,336,0,3,,,,,,,,,2,,,64,0
97872,note_on,336,0,2,,,,,,,,,1,,,67,0
97872,note_on,336,0,6,,,,,,,,,5,,,76,0
97872,note_on,0,0,6,,,,,,,,,5,,,79,0
97920,note_on,48,0,2,,,,,,,,,1,,,67,108
97920,note_on,48,0,3,,,,,,,,,2,,,64,108
97920,note_on,48,0,7,,,,,,,,,6,,,76,108
97920,note_on,48,0,6,,,,,,,,,5,,,79,108
98064,note_on,528,0,4,,,,,,,,,3,,,52,0
98064,note_on,528,0,8,,,,,,,,,7,,,52,0
98112,note_on,48,0,8,,,,,,,,,7,,,50,108
98112,note_on,48,0,4,,,,,,,,,3,,,50,108
98256,note_on,336,0,6,,,,,,,,,5,,,79,0
98272,note_on,160,0,4,,,,,,,,,3,,,50,0
98272,note_on,160,0,8,,,,,,,,,7,,,50,0
98304,note_on,32,0,4,,,,,,,,,3,,,49,108
98304,note_on,1200,0,5,,,,,,,,,4,,,79,108
98304,note_on,32,0,8,,,,,,,,,7,,,49,108
98464,note_on,160,0,5,,,,,,,,,4,,,79,0
98496,note_on,32,0,5,,,,,,,,,4,,,79,108
98590,note_on,94,0,5,,,,,,,,,4,,,79,0
98592,note_on,2,0,5,,,,,,,,,4,,,79,108
98640,note_on,720,0,2,,,,,,,,,1,,,67,0
98640,note_on,336,0,4,,,,,,,,,3,,,49,0
98640,note_on,720,0,7,,,,,,,,,6,,,76,0
98640,note_on,720,0,3,,,,,,,,,2,,,64,0
98640,note_on,336,0,8,,,,,,,,,7,,,49,0
98686,note_on,94,0,5,,,,,,,,,4,,,79,0
98688,note_on,48,0,2,,,,,,,,,1,,,66,108
98688,note_on,2,0,5,,,,,,,,,4,,,78,108
98688,note_on,48,0,7,,,,,,,,,6,,,74,108
98688,note_on,48,0,4,,,,,,,,,3,,,50,108
98688,note_on,48,0,8,,,,,,,,,7,,,50,108
98688,note_on,48,0,3,,,,,,,,,2,,,62,108
98848,note_on,160,0,5,,,,,,,,,4,,,78,0
98880,note_on,32,0,5,,,,,,,,,4,,,78,108
99024,note_on,336,0,2,,,,,,,,,1,,,66,0
99024,note_on,336,0,7,,,,,,,,,6,,,74,0
99024,note_on,336,0,4,,,,,,,,,3,,,50,0
99024,note_on,336,0,8,,,,,,,,,7,,,50,0
99040,note_on,160,0,5,,,,,,,,,4,,,78,0
99072,note_on,48,0,8,,,,,,,,,7,,,57,108
99072,note_on,48,0,4,,,,,,,,,3,,,57,108
99072,note_on,48,0,7,,,,,,,,,6,,,76,108
99072,note_on,816,0,6,,,,,,,,,5,,,74,108
99072,note_on,32,0,5,,,,,,,,,4,,,76,108
99072,note_on,48,0,2,,,,,,,,,1,,,64,108
99408,note_on,336,0,4,,,,,,,,,3,,,57,0
99408,note_on,336,0,8,,,,,,,,,7,,,57,0
99408,note_on,336,0,6,,,,,,,,,5,,,74,0
99408,note_on,336,0,5,,,,,,,,,4,,,76,0
99408,note_on,720,0,3,,,,,,,,,2,,,62,0
99456,note_on,48,0,4,,,,,,,,,3,,,58,108
99456,note_on,48,0,6,,,,,,,,,5,,,73,108
99456,note_on,48,0,8,,,,,,,,,7,,,58,108
99456,note_on,48,0,3,,,,,,,,,2,,,61,108
99600,note_on,528,0,7,,,,,,,,,6,,,76,0
99600,note_on,528,0,2,,,,,,,,,1,,,64,0
99648,note_on,48,0,2,,,,,,,,,1,,,66,108
99648,note_on,48,0,7,,,,,,,,,6,,,78,108
99742,note_on,94,0,7,,,,,,,,,6,,,78,0
99742,note_on,94,0,2,,,,,,,,,1,,,66,0
99744,note_on,2,0,2,,,,,,,,,1,,,64,108
99744,note_on,2,0,7,,,,,,,,,6,,,76,108
99792,note_on,336,0,8,,,,,,,,,7,,,58,0
99792,note_on,336,0,4,,,,,,,,,3,,,58,0
99838,note_on,94,0,2,,,,,,,,,1,,,64,0
99838,note_on,94,0,7,,,,,,,,,6,,,76,0
99840,note_on,48,0,8,,,,,,,,,7,,,59,108
99840,note_on,48,0,4,,,,,,,,,3,,,59,108
99840,note_on,2,0,7,,,,,,,,,6,,,74,108
99840,note_on,2,0,2,,,,,,,,,1,,,62,108
100176,note_on,720,0,6,,,,,,,,,5,,,73,0
100176,note_on,720,0,3,,,,,,,,,2,,,61,0
100224,note_on,48,0,6,,,,,,,,,5,,,71,108
100224,note_on,48,0,3,,,,,,,,,2,,,59,92
100368,note_on,528,0,7,,,,,,,,,6,,,74,0
100368,note_on,528,0,2,,,,,,,,,1,,,62,0
100416,note_on,48,0,7,,,,,,,,,6,,,76,108
100416,note_on,48,0,2,,,,,,,,,1,,,64,108
100510,note_on,94,0,2,,,,,,,,,1,,,64,0
100510,note_on,94,0,7,,,,,,,,,6,,,76,0
100512,note_on,2,0,7,,,,,,,,,6,,,74,108
100512,note_on,2,0,2,,,,,,,,,1,,,62,108
100560,note_on,720,0,4,,,,,,,,,3,,,59,0
100560,note_on,720,0,8,,,,,,,,,7,,,59,0
100606,note_on,94,0,2,,,,,,,,,1,,,62,0
100606,note_on,94,0,7,,,,,,,,,6,,,74,0
100608,note_on,2,0,2,,,,,,,,,1,,,61,92
100608,note_on,2,0,7,,,,,,,,,6,,,73,92
100608,note_on,48,0,4,,,,,,,,,3,,,54,92
100608,note_on,48,0,8,,,,,,,,,7,,,54,92
100944,note_on,336,0,7,,,,,,,,,6,,,73,0
100944,note_on,720,0,3,,,,,,,,,2,,,59,0
100944,note_on,336,0,2,,,,,,,,,1,,,61,0
100944,note_on,720,0,6,,,,,,,,,5,,,71,0
100992,note_on,48,0,3,,,,,,,,,2,,,58,92
100992,note_on,48,0,2,,,,,,,,,1,,,66,92
100992,note_on,48,0,7,,,,,,,,,6,,,78,92
100992,note_on,48,0,6,,,,,,,,,5,,,70,92
101328,note_on,720,0,8,,,,,,,,,7,,,54,0
101328,note_on,720,0,4,,,,,,,,,3,,,54,0
101328,note_on,336,0,3,,,,,,,,,2,,,58,0
101328,note_on,336,0,6,,,,,,,,,5,,,70,0
101376,note_on,48,0,4,,,,,,,,,3,,,55,92
101376,note_on,3504,0,1,,,,,,,,,0,,,71,108
101376,note_on,48,0,6,,,,,,,,,5,,,71,92
101376,note_on,48,0,8,,,,,,,,,7,,,55,92
101376,note_on,48,0,3,,,,,,,,,2,,,59,92
101712,note_on,720,0,7,,,,,,,,,6,,,78,0
101712,note_on,720,0,2,,,,,,,,,1,,,66,0
101760,note_on,48,0,7,,,,,,,,,6,,,76,92
101760,note_on,48,0,2,,,,,,,,,1,,,64,92
102096,note_on,720,0,4,,,,,,,,,3,,,55,0
102096,note_on,336,0,7,,,,,,,,,6,,,76,0
102096,note_on,720,0,8,,,,,,,,,7,,,55,0
102096,note_on,720,0,1,,,,,,,,,0,,,71,0
102096,note_on,720,0,6,,,,,,,,,5,,,71,0
102096,note_on,336,0,2,,,,,,,,,1,,,64,0
102096,note_on,720,0,3,,,,,,,,,2,,,59,0
102144,note_on,48,0,6,,,,,,,,,5,,,70,108
102144,note_on,48,0,2,,,,,,,,,1,,,66,92
102144,note_on,0,0,6,,,,,,,,,5,,,73,108
102144,note_on,48,0,4,,,,,,,,,3,,,54,92
102144,note_on,48,0,3,,,,,,,,,2,,,61,108
102144,note_on,48,0,1,,,,,,,,,0,,,70,108
102144,note_on,48,0,7,,,,,,,,,6,,,78,108
102144,note_on,48,0,8,,,,,,,,,7,,,54,108
102304,note_on,160,0,8,,,,,,,,,7,,,54,0
102304,note_on,160,0,4,,,,,,,,,3,,,54,0
102336,note_on,32,0,4,,,,,,,,,3,,,54,108
102336,note_on,32,0,8,,,,,,,,,7,,,54,108
102480,note_on,336,0,2,,,,,,,,,1,,,66,0
102480,note_on,336,0,7,,,,,,,,,6,,,78,0
102496,note_on,160,0,8,,,,,,,,,7,,,54,0
102496,note_on,160,0,4,,,,,,,,,3,,,54,0
102528,note_on,32,0,4,,,,,,,,,3,,,54,108
102528,note_on,3120,0,5,,,,,,,,,4,,,78,108
102528,note_on,48,0,7,,,,,,,,,6,,,78,108
102528,note_on,32,0,8,,,,,,,,,7,,,54,108
102528,note_on,48,0,2,,,,,,,,,1,,,66,108
102688,note_on,160,0,8,,,,,,,,,7,,,54,0
102688,note_on,160,0,4,,,,,,,,,3,,,54,0
102720,note_on,32,0,8,,,,,,,,,7,,,54,108
102720,note_on,32,0,4,,,,,,,,,3,,,54,108
102864,note_on,720,0,3,,,,,,,,,2,,,61,0
102864,note_on,720,0,6,,,,,,,,,5,,,70,0
102864,note_on,0,0,6,,,,,,,,,5,,,73,0
102864,note_on,720,0,1,,,,,,,,,0,,,70,0
102880,note_on,160,0,4,,,,,,,,,3,,,54,0
102880,note_on,160,0,8,,,,,,,,,7,,,54,0
102912,note_on,48,0,3,,,,,,,,,2,,,66,108
102912,note_on,32,0,4,,,,,,,,,3,,,51,108
102912,note_on,32,0,8,,,,,,,,,7,,,51,108
103104,note_on,240,0,1,,,,,,,,,0,,,71,108
103104,note_on,240,0,6,,,,,,,,,5,,,71,108
103168,note_on,256,0,8,,,,,,,,,7,,,51,0
103168,note_on,256,0,4,,,,,,,,,3,,,51,0
103200,note_on,32,0,8,,,,,,,,,7,,,51,108
103200,note_on,32,0,4,,,,,,,,,3,,,51,108
103248,note_on,720,0,2,,,,,,,,,1,,,66,0
103248,note_on,720,0,7,,,,,,,,,6,,,78,0
103248,note_on,720,0,5,,,,,,,,,4,,,78,0
103264,note_on,160,0,6,,,,,,,,,5,,,71,0
103264,note_on,160,0,1,,,,,,,,,0,,,71,0
103294,note_on,94,0,8,,,,,,,,,7,,,51,0
103294,note_on,94,0,4,,,,,,,,,3,,,51,0
103296,note_on,2,0,4,,,,,,,,,3,,,51,108
103296,note_on,2,0,8,,,,,,,,,7,,,51,108
103296,note_on,0,0,7,,,,,,,,,6,,,71,108
103296,note_on,32,0,1,,,,,,,,,0,,,71,108
103296,note_on,48,0,2,,,,,,,,,1,,,71,108
103296,note_on,32,0,6,,,,,,,,,5,,,71,108
103296,note_on,48,0,5,,,,,,,,,4,,,83,108
103296,note_on,48,0,7,,,,,,,,,6,,,66,108
103456,note_on,160,0,6,,,,,,,,,5,,,71,0
103456,note_on,160,0,1,,,,,,,,,0,,,71,0
103488,note_on,32,0,6,,,,,,,,,5,,,71,108
103488,note_on,32,0,1,,,,,,,,,0,,,71,108
103632,note_on,336,0,7,,,,,,,,,6,,,66,0
103632,note_on,720,0,3,,,,,,,,,2,,,66,0
103632,note_on,336,0,8,,,,,,,,,7,,,51,0
103632,note_on,336,0,4,,,,,,,,,3,,,51,0
103648,note_on,160,0,6,,,,,,,,,5,,,71,0
103648,note_on,160,0,1,,,,,,,,,0,,,71,0
103680,note_on,32,0,1,,,,,,,,,0,,,68,108
103680,note_on,32,0,6,,,,,,,,,5,,,68,108
103680,note_on,48,0,3,,,,,,,,,2,,,59,108
103872,note_on,240,0,8,,,,,,,,,7,,,52,108
103872,note_on,240,0,4,,,,,,,,,3,,,52,108
103936,note_on,256,0,1,,,,,,,,,0,,,68,0
103936,note_on,256,0,6,,,,,,,,,5,,,68,0
103968,note_on,32,0,6,,,,,,,,,5,,,68,108
103968,note_on,32,0,1,,,,,,,,,0,,,68,108
104016,note_on,720,0,2,,,,,,,,,1,,,71,0
104016,note_on,720,0,5,,,,,,,,,4,,,83,0
104032,note_on,160,0,4,,,,,,,,,3,,,52,0
104032,note_on,160,0,8,,,,,,,,,7,,,52,0
104062,note_on,94,0,6,,,,,,,,,5,,,68,0
104062,note_on,94,0,1,,,,,,,,,0,,,68,0
104064,note_on,2,0,1,,,,,,,,,0,,,68,108
104064,note_on,432,0,7,,,,,,,,,6,,,76,108
104064,note_on,48,0,2,,,,,,,,,1,,,64,108
104064,note_on,2,0,6,,,,,,,,,5,,,68,108
104064,note_on,32,0,4,,,,,,,,,3,,,52,108
104064,note_on,32,0,8,,,,,,,,,7,,,52,108
104064,note_on,48,0,5,,,,,,,,,4,,,76,108
104224,note_on,160,0,8,,,,,,,,,7,,,52,0
104224,note_on,160,0,4,,,,,,,,,3,,,52,0
104256,note_on,32,0,8,,,,,,,,,7,,,52,108
104256,note_on,32,0,4,,,,,,,,,3,,,52,108
104400,note_on,336,0,6,,,,,,,,,5,,,68,0
104400,note_on,720,0,3,,,,,,,,,2,,,59,0
104400,note_on,336,0,7,,,,,,,,,6,,,71,0
104400,note_on,336,0,1,,,,,,,,,0,,,68,0
104416,note_on,160,0,4,,,,,,,,,3,,,52,0
104416,note_on,160,0,8,,,,,,,,,7,,,52,0
104448,note_on,48,0,3,,,,,,,,,2,,,64,108
104448,note_on,32,0,4,,,,,,,,,3,,,49,108
104448,note_on,32,0,8,,,,,,,,,7,,,49,108
104640,note_on,240,0,6,,,,,,,,,5,,,69,108
104640,note_on,240,0,1,,,,,,,,,0,,,69,108
104704,note_on,256,0,8,,,,,,,,,7,,,49,0
104704,note_on,256,0,4,,,,,,,,,3,,,49,0
104736,note_on,32,0,4,,,,,,,,,3,,,49,108
104736,note_on,32,0,8,,,,,,,,,7,,,49,108
104784,note_on,720,0,5,,,,,,,,,4,,,76,0
104784,note_on,720,0,2,,,,,,,,,1,,,64,0
104784,note_on,384,0,7,,,,,,,,,6,,,76,0
104800,note_on,160,0,6,,,,,,,,,5,,,69,0
104800,note_on,160,0,1,,,,,,,,,0,,,69,0
104830,note_on,94,0,8,,,,,,,,,7,,,49,0
104830,note_on,94,0,4,,,,,,,,,3,,,49,0
104832,note_on,2,0,8,,,,,,,,,7,,,49,108
104832,note_on,2,0,4,,,,,,,,,3,,,49,108
104832,note_on,32,0,6,,,,,,,,,5,,,69,108
104832,note_on,48,0,2,,,,,,,,,1,,,69,108
104832,note_on,32,0,1,,,,,,,,,0,,,69,108
104832,note_on,0,0,7,,,,,,,,,6,,,69,108
104832,note_on,48,0,7,,,,,,,,,6,,,64,108
104832,note_on,48,0,5,,,,,,,,,4,,,81,108
104992,note_on,160,0,6,,,,,,,,,5,,,69,0
104992,note_on,160,0,1,,,,,,,,,0,,,69,0
105024,note_on,32,0,6,,,,,,,,,5,,,69,108
105024,note_on,32,0,1,,,,,,,,,0,,,69,108
105168,note_on,336,0,4,,,,,,,,,3,,,49,0
105168,note_on,720,0,3,,,,,,,,,2,,,64,0
105168,note_on,336,0,8,,,,,,,,,7,,,49,0
105168,note_on,336,0,7,,,,,,,,,6,,,64,0
105184,note_on,160,0,1,,,,,,,,,0,,,69,0
105184,note_on,160,0,6,,,,,,,,,5,,,69,0
105216,note_on,32,0,6,,,,,,,,,5,,,66,108
105216,note_on,48,0,3,,,,,,,,,2,,,57,108
105216,note_on,32,0,1,,,,,,,,,0,,,66,108
105408,note_on,240,0,8,,,,,,,,,7,,,50,108
105408,note_on,240,0,4,,,,,,,,,3,,,50,108
105472,note_on,256,0,6,,,,,,,,,5,,,66,0
105472,note_on,256,0,1,,,,,,,,,0,,,66,0
105504,note_on,32,0,1,,,,,,,,,0,,,66,108
105504,note_on,32,0,6,,,,,,,,,5,,,66,108
105552,note_on,720,0,2,,,,,,,,,1,,,69,0
105552,note_on,720,0,5,,,,,,,,,4,,,81,0
105568,note_on,160,0,4,,,,,,,,,3,,,50,0
105568,note_on,160,0,8,,,,,,,,,7,,,50,0
105598,note_on,94,0,6,,,,,,,,,5,,,66,0
105598,note_on,94,0,1,,,,,,,,,0,,,66,0
105600,note_on,48,0,2,,,,,,,,,1,,,62,108
105600,note_on,2,0,1,,,,,,,,,0,,,66,108
105600,note_on,32,0,8,,,,,,,,,7,,,50,108
105600,note_on,32,0,4,,,,,,,,,3,,,50,108
105600,note_on,48,0,5,,,,,,,,,4,,,74,108
105600,note_on,2,0,6,,,,,,,,,5,,,66,108
105600,note_on,432,0,7,,,,,,,,,6,,,74,108
105760,note_on,160,0,4,,,,,,,,,3,,,50,0
105760,note_on,160,0,8,,,,,,,,,7,,,50,0
105792,note_on,32,0,4,,,,,,,,,3,,,50,108
105792,note_on,32,0,8,,,,,,,,,7,,,50,108
105936,note_on,336,0,1,,,,,,,,,0,,,66,0
105936,note_on,720,0,3,,,,,,,,,2,,,57,0
105936,note_on,336,0,6,,,,,,,,,5,,,66,0
105936,note_on,336,0,7,,,,,,,,,6,,,69,0
105952,note_on,160,0,4,,,,,,,,,3,,,50,0
105952,note_on,160,0,8,,,,,,,,,7,,,50,0
105984,note_on,32,0,4,,,,,,,,,3,,,47,108
105984,note_on,32,0,8,,,,,,,,,7,,,47,108
106144,note_on,160,0,8,,,,,,,,,7,,,47,0
106144,note_on,160,0,4,,,,,,,,,3,,,47,0
106176,note_on,32,0,4,,,,,,,,,3,,,45,108
106176,note_on,32,0,8,,,,,,,,,7,,,45,108
106320,note_on,720,0,2,,,,,,,,,1,,,62,0
106320,note_on,384,0,7,,,,,,,,,6,,,74,0
106320,note_on,720,0,5,,,,,,,,,4,,,74,0
106336,note_on,160,0,4,,,,,,,,,3,,,45,0
106336,note_on,160,0,8,,,,,,,,,7,,,45,0
106368,note_on,48,0,2,,,,,,,,,1,,,67,108
106368,note_on,32,0,4,,,,,,,,,3,,,47,108
106368,note_on,48,0,5,,,,,,,,,4,,,79,108
106368,note_on,32,0,8,,,,,,,,,7,,,47,108
106368,note_on,48,0,7,,,,,,,,,6,,,79,108
106368,note_on,432,0,6,,,,,,,,,5,,,74,108
106528,note_on,160,0,4,,,,,,,,,3,,,47,0
106528,note_on,160,0,8,,,,,,,,,7,,,47,0
106528,note_on,160,0,6,,,,,,,,,5,,,74,0
106560,note_on,32,0,8,,,,,,,,,7,,,49,108
106560,note_on,32,0,6,,,,,,,,,5,,,76,108
106560,note_on,32,0,4,,,,,,,,,3,,,49,108
106720,note_on,160,0,4,,,,,,,,,3,,,49,0
106720,note_on,160,0,8,,,,,,,,,7,,,49,0
106720,note_on,160,0,6,,,,,,,,,5,,,76,0
106752,note_on,32,0,8,,,,,,,,,7,,,50,108
106752,note_on,32,0,4,,,,,,,,,3,,,50,108
106752,note_on,32,0,6,,,,,,,,,5,,,69,108
106912,note_on,160,0,4,,,,,,,,,3,,,50,0
106912,note_on,160,0,8,,,,,,,,,7,,,50,0
106912,note_on,160,0,6,,,,,,,,,5,,,69,0
106944,note_on,32,0,4,,,,,,,,,3,,,50,108
106944,note_on,32,0,6,,,,,,,,,5,,,69,108
106944,note_on,32,0,8,,,,,,,,,7,,,50,108
107038,note_on,94,0,4,,,,,,,,,3,,,50,0
107038,note_on,94,0,8,,,,,,,,,7,,,50,0
107038,note_on,94,0,6,,,,,,,,,5,,,69,0
107040,note_on,2,0,4,,,,,,,,,3,,,50,108
107040,note_on,2,0,8,,,,,,,,,7,,,50,108
107040,note_on,2,0,6,,,,,,,,,5,,,69,108
107088,note_on,720,0,5,,,,,,,,,4,,,79,0
107088,note_on,720,0,2,,,,,,,,,1,,,67,0
107088,note_on,720,0,7,,,,,,,,,6,,,79,0
107134,note_on,94,0,6,,,,,,,,,5,,,69,0
107134,note_on,94,0,8,,,,,,,,,7,,,50,0
107134,note_on,94,0,4,,,,,,,,,3,,,50,0
107136,note_on,2,0,6,,,,,,,,,5,,,69,108
107136,note_on,48,0,2,,,,,,,,,1,,,66,108
107136,note_on,48,0,5,,,,,,,,,4,,,78,108
107136,note_on,2,0,8,,,,,,,,,7,,,50,108
107136,note_on,48,0,7,,,,,,,,,6,,,78,108
107136,note_on,2,0,4,,,,,,,,,3,,,50,108
107296,note_on,160,0,8,,,,,,,,,7,,,50,0
107296,note_on,160,0,4,,,,,,,,,3,,,50,0
107296,note_on,160,0,6,,,,,,,,,5,,,69,0
107328,note_on,32,0,8,,,,,,,,,7,,,50,108
107328,note_on,32,0,6,,,,,,,,,5,,,69,108
107328,note_on,32,0,4,,,,,,,,,3,,,50,108
107472,note_on,336,0,2,,,,,,,,,1,,,66,0
107472,note_on,336,0,7,,,,,,,,,6,,,78,0
107472,note_on,336,0,5,,,,,,,,,4,,,78,0
107488,note_on,160,0,4,,,,,,,,,3,,,50,0
107488,note_on,160,0,6,,,,,,,,,5,,,69,0
107488,note_on,160,0,8,,,,,,,,,7,,,50,0
107520,note_on,48,0,5,,,,,,,,,4,,,76,108
107520,note_on,32,0,6,,,,,,,,,5,,,67,108
107520,note_on,48,0,2,,,,,,,,,1,,,64,108
107520,note_on,48,0,7,,,,,,,,,6,,,76,108
107520,note_on,32,0,8,,,,,,,,,7,,,50,108
107520,note_on,32,0,4,,,,,,,,,3,,,50,108
107680,note_on,160,0,8,,,,,,,,,7,,,50,0
107680,note_on,160,0,6,,,,,,,,,5,,,67,0
107680,note_on,160,0,4,,,,,,,,,3,,,50,0
107712,note_on,32,0,6,,,,,,,,,5,,,67,108
107712,note_on,32,0,4,,,,,,,,,3,,,50,108
107712,note_on,32,0,8,,,,,,,,,7,,,50,108
107872,note_on,160,0,4,,,,,,,,,3,,,50,0
107872,note_on,160,0,6,,,,,,,,,5,,,67,0
107872,note_on,160,0,8,,,,,,,,,7,,,50,0
107904,note_on,32,0,6,,,,,,,,,5,,,69,108
107904,note_on,32,0,8,,,,,,,,,7,,,49,108
107904,note_on,32,0,4,,,,,,,,,3,,,49,108
108240,note_on,336,0,4,,,,,,,,,3,,,49,0
108240,note_on,336,0,6,,,,,,,,,5,,,69,0
108240,note_on,720,0,2,,,,,,,,,1,,,64,0
108240,note_on,720,0,5,,,,,,,,,4,,,76,0
108240,note_on,336,0,8,,,,,,,,,7,,,49,0
108240,note_on,720,0,7,,,,,,,,,6,,,76,0
108288,note_on,48,0,6,,,,,,,,,5,,,66,108
108288,note_on,48,0,4,,,,,,,,,3,,,50,108
108288,note_on,48,0,5,,,,,,,,,4,,,74,108
108288,note_on,48,0,7,,,,,,,,,6,,,74,108
108288,note_on,48,0,8,,,,,,,,,7,,,50,108
108288,note_on,48,0,2,,,,,,,,,1,,,62,108
108624,note_on,336,0,6,,,,,,,,,5,,,66,0
108624,note_on,336,0,7,,,,,,,,,6,,,74,0
108624,note_on,336,0,5,,,,,,,,,4,,,74,0
108624,note_on,336,0,2,,,,,,,,,1,,,62,0
108624,note_on,336,0,4,,,,,,,,,3,,,50,0
108624,note_on,336,0,8,,,,,,,,,7,,,50,0
108672,note_on,48,0,6,,,,,,,,,5,,,69,108
108672,note_on,48,0,2,,,,,,,,,1,,,61,108
108672,note_on,48,0,5,,,,,,,,,4,,,73,108
108672,note_on,2736,0,3,,,,,,,,,2,,,57,108
108672,note_on,48,0,7,,,,,,,,,6,,,73,108
108672,note_on,48,0,8,,,,,,,,,7,,,54,108
108672,note_on,48,0,4,,,,,,,,,3,,,54,108
109008,note_on,336,0,5,,,,,,,,,4,,,73,0
109008,note_on,336,0,7,,,,,,,,,6,,,73,0
109008,note_on,336,0,4,,,,,,,,,3,,,54,0
109008,note_on,336,0,8,,,,,,,,,7,,,54,0
109056,note_on,0,0,2,,,,,,,,,1,,,62,108
109056,note_on,48,0,4,,,,,,,,,3,,,47,108
109056,note_on,384,0,2,,,,,,,,,1,,,61,0
109056,note_on,48,0,7,,,,,,,,,6,,,74,108
109056,note_on,48,0,5,,,,,,,,,4,,,74,108
109056,note_on,48,0,8,,,,,,,,,7,,,47,108
109392,note_on,720,0,3,,,,,,,,,2,,,57,0
109392,note_on,720,0,6,,,,,,,,,5,,,69,0
109440,note_on,48,0,6,,,,,,,,,5,,,68,108
109440,note_on,48,0,3,,,,,,,,,2,,,56,108
109776,note_on,720,0,5,,,,,,,,,4,,,74,0
109776,note_on,720,0,4,,,,,,,,,3,,,47,0
109776,note_on,720,0,8,,,,,,,,,7,,,47,0
109776,note_on,336,0,3,,,,,,,,,2,,,56,0
109776,note_on,720,0,2,,,,,,,,,1,,,62,0
109776,note_on,336,0,6,,,,,,,,,5,,,68,0
109776,note_on,720,0,7,,,,,,,,,6,,,74,0
109824,note_on,3888,0,1,,,,,,,,,0,,,69,127
109824,note_on,48,0,6,,,,,,,,,5,,,69,108
109824,note_on,48,0,8,,,,,,,,,7,,,45,108
109824,note_on,48,0,7,,,,,,,,,6,,,69,108
109824,note_on,48,0,3,,,,,,,,,2,,,57,108
109824,note_on,48,0,4,,,,,,,,,3,,,45,108
109824,note_on,48,0,5,,,,,,,,,4,,,73,108
109824,note_on,48,0,2,,,,,,,,,1,,,61,108
110160,note_on,336,0,8,,,,,,,,,7,,,45,0
110544,note_on,720,0,3,,,,,,,,,2,,,57,0
110544,note_on,720,0,7,,,,,,,,,6,,,69,0
110544,note_on,720,0,4,,,,,,,,,3,,,45,0
110544,note_on,720,0,6,,,,,,,,,5,,,69,0
110544,note_on,720,0,2,,,,,,,,,1,,,61,0
110544,note_on,720,0,5,,,,,,,,,4,,,73,0
110544,note_on,720,0,1,,,,,,,,,0,,,69,0
110592,note_on,48,0,1,,,,,,,,,0,,,71,127
110592,note_on,48,0,7,,,,,,,,,6,,,71,108
110928,note_on,336,0,1,,,,,,,,,0,,,71,0
110928,note_on,336,0,7,,,,,,,,,6,,,71,0
110976,note_on,48,0,1,,,,,,,,,0,,,69,127
110976,note_on,432,0,3,,,,,,,,,2,,,62,127
110976,note_on,432,0,6,,,,,,,,,5,,,62,108
110976,note_on,48,0,7,,,,,,,,,6,,,69,108
111312,note_on,336,0,7,,,,,,,,,6,,,69,0
111312,note_on,336,0,1,,,,,,,,,0,,,69,0
111360,note_on,48,0,1,,,,,,,,,0,,,67,127
111360,note_on,48,0,7,,,,,,,,,6,,,67,108
111696,note_on,720,0,6,,,,,,,,,5,,,62,0
111696,note_on,720,0,3,,,,,,,,,2,,,62,0
111744,note_on,48,0,3,,,,,,,,,2,,,61,127
111744,note_on,48,0,6,,,,,,,,,5,,,61,108
111888,note_on,528,0,1,,,,,,,,,0,,,67,0
111888,note_on,528,0,7,,,,,,,,,6,,,67,0
111936,note_on,48,0,1,,,,,,,,,0,,,67,127
111936,note_on,48,0,7,,,,,,,,,6,,,67,108
112080,note_on,336,0,3,,,,,,,,,2,,,61,0
112080,note_on,336,0,6,,,,,,,,,5,,,61,0
112096,note_on,160,0,7,,,,,,,,,6,,,67,0
112096,note_on,160,0,1,,,,,,,,,0,,,67,0
112128,note_on,32,0,7,,,,,,,,,6,,,66,108
112128,note_on,32,0,1,,,,,,,,,0,,,66,127
112128,note_on,48,0,6,,,,,,,,,5,,,62,108
112128,note_on,48,0,3,,,,,,,,,2,,,62,127
112288,note_on,160,0,7,,,,,,,,,6,,,66,0
112288,note_on,160,0,6,,,,,,,,,5,,,62,0
112288,note_on,160,0,3,,,,,,,,,2,,,62,0
112320,note_on,1776,0,4,,,,,,,,,3,,,50,127
112320,note_on,0,0,6,,,,,,,,,5,,,69,127
112320,note_on,1776,0,5,,,,,,,,,4,,,81,127
112320,note_on,32,0,6,,,,,,,,,5,,,57,127
112320,note_on,0,0,7,,,,,,,,,6,,,74,127
112320,note_on,32,0,7,,,,,,,,,6,,,66,127
112320,note_on,2160,0,8,,,,,,,,,7,,,50,127
112320,note_on,32,0,3,,,,,,,,,2,,,57,127
112320,note_on,1776,0,2,,,,,,,,,1,,,62,127
112480,note_on,160,0,3,,,,,,,,,2,,,57,0
112480,note_on,160,0,5,,,,,,,,,4,,,81,0
112480,note_on,160,0,6,,,,,,,,,5,,,57,0
112480,note_on,0,0,6,,,,,,,,,5,,,69,0
112480,note_on,160,0,4,,,,,,,,,3,,,50,0
112480,note_on,0,0,7,,,,,,,,,6,,,74,0
112480,note_on,160,0,7,,,,,,,,,6,,,66,0
112480,note_on,160,0,2,,,,,,,,,1,,,62,0
112480,note_on,160,0,8,,,,,,,,,7,,,50,0
112512,note_on,32,0,5,,,,,,,,,4,,,81,127
112512,note_on,32,0,8,,,,,,,,,7,,,50,127
112512,note_on,32,0,7,,,,,,,,,6,,,66,127
112512,note_on,0,0,7,,,,,,,,,6,,,74,127
112512,note_on,32,0,6,,,,,,,,,5,,,57,127
112512,note_on,0,0,6,,,,,,,,,5,,,69,127
112512,note_on,32,0,2,,,,,,,,,1,,,62,127
112512,note_on,32,0,4,,,,,,,,,3,,,50,127
112512,note_on,32,0,3,,,,,,,,,2,,,57,127
112672,note_on,160,0,4,,,,,,,,,3,,,50,0
112672,note_on,160,0,6,,,,,,,,,5,,,57,0
112672,note_on,160,0,3,,,,,,,,,2,,,57,0
112672,note_on,160,0,2,,,,,,,,,1,,,62,0
112672,note_on,160,0,8,,,,,,,,,7,,,50,0
112672,note_on,0,0,7,,,,,,,,,6,,,74,0
112672,note_on,160,0,7,,,,,,,,,6,,,66,0
112672,note_on,0,0,6,,,,,,,,,5,,,69,0
112672,note_on,160,0,5,,,,,,,,,4,,,81,0
112704,note_on,32,0,3,,,,,,,,,2,,,57,127
112704,note_on,32,0,8,,,,,,,,,7,,,50,127
112704,note_on,32,0,5,,,,,,,,,4,,,81,127
112704,note_on,0,0,6,,,,,,,,,5,,,69,127
112704,note_on,32,0,4,,,,,,,,,3,,,50,127
112704,note_on,32,0,6,,,,,,,,,5,,,57,127
112704,note_on,32,0,7,,,,,,,,,6,,,66,127
112704,note_on,32,0,2,,,,,,,,,1,,,62,127
112704,note_on,0,0,7,,,,,,,,,6,,,74,127
112848,note_on,720,0,1,,,,,,,,,0,,,66,0
112864,note_on,160,0,4,,,,,,,,,3,,,50,0
112864,note_on,0,0,6,,,,,,,,,5,,,69,0
112864,note_on,160,0,5,,,,,,,,,4,,,81,0
112864,note_on,160,0,8,,,,,,,,,7,,,50,0
112864,note_on,160,0,2,,,,,,,,,1,,,62,0
112864,note_on,160,0,3,,,,,,,,,2,,,57,0
112864,note_on,160,0,6,,,,,,,,,5,,,57,0
112864,note_on,0,0,7,,,,,,,,,6,,,74,0
112864,note_on,160,0,7,,,,,,,,,6,,,66,0
112896,note_on,0,0,6,,,,,,,,,5,,,73,127
112896,note_on,32,0,5,,,,,,,,,4,,,81,127
112896,note_on,32,0,8,,,,,,,,,7,,,49,127
112896,note_on,32,0,6,,,,,,,,,5,,,57,127
112896,note_on,32,0,2,,,,,,,,,1,,,64,127
112896,note_on,48,0,1,,,,,,,,,0,,,69,127
112896,note_on,32,0,4,,,,,,,,,3,,,49,127
112896,note_on,32,0,3,,,,,,,,,2,,,57,127
112896,note_on,32,0,7,,,,,,,,,6,,,69,127
112896,note_on,0,0,7,,,,,,,,,6,,,76,127
113152,note_on,256,0,4,,,,,,,,,3,,,49,0
113152,note_on,256,0,2,,,,,,,,,1,,,64,0
113152,note_on,256,0,8,,,,,,,,,7,,,49,0
113152,note_on,256,0,3,,,,,,,,,2,,,57,0
113152,note_on,0,0,6,,,,,,,,,5,,,73,0
113152,note_on,256,0,6,,,,,,,,,5,,,57,0
113152,note_on,256,0,5,,,,,,,,,4,,,81,0
113152,note_on,0,0,7,,,,,,,,,6,,,76,0
113152,note_on,256,0,7,,,,,,,,,6,,,69,0
113184,note_on,32,0,2,,,,,,,,,1,,,64,127
113184,note_on,32,0,4,,,,,,,,,3,,,47,127
113184,note_on,0,0,7,,,,,,,,,6,,,76,127
113184,note_on,32,0,3,,,,,,,,,2,,,57,127
113184,note_on,32,0,5,,,,,,,,,4,,,81,127
113184,note_on,32,0,6,,,,,,,,,5,,,57,127
113184,note_on,32,0,8,,,,,,,,,7,,,47,127
113184,note_on,0,0,6,,,,,,,,,5,,,73,127
113184,note_on,32,0,7,,,,,,,,,6,,,69,127
113278,note_on,94,0,6,,,,,,,,,5,,,57,0
113278,note_on,0,0,6,,,,,,,,,5,,,73,0
113278,note_on,94,0,3,,,,,,,,,2,,,57,0
113278,note_on,94,0,4,,,,,,,,,3,,,47,0
113278,note_on,94,0,2,,,,,,,,,1,,,64,0
113278,note_on,94,0,5,,,,,,,,,4,,,81,0
113278,note_on,94,0,7,,,,,,,,,6,,,69,0
113278,note_on,0,0,7,,,,,,,,,6,,,76,0
113278,note_on,94,0,8,,,,,,,,,7,,,47,0
113280,note_on,2,0,3,,,,,,,,,2,,,57,127
113280,note_on,2,0,2,,,,,,,,,1,,,64,127
113280,note_on,2,0,8,,,,,,,,,7,,,45,127
113280,note_on,2,0,4,,,,,,,,,3,,,45,127
113280,note_on,2,0,5,,,,,,,,,4,,,81,127
113280,note_on,2,0,7,,,,,,,,,6,,,69,127
113280,note_on,2,0,6,,,,,,,,,5,,,57,127
113280,note_on,0,0,6,,,,,,,,,5,,,73,127
113280,note_on,0,0,7,,,,,,,,,6,,,76,127
113440,note_on,160,0,8,,,,,,,,,7,,,45,0
113440,note_on,160,0,6,,,,,,,,,5,,,57,0
113440,note_on,160,0,4,,,,,,,,,3,,,45,0
113440,note_on,160,0,3,,,,,,,,,2,,,57,0
113440,note_on,0,0,6,,,,,,,,,5,,,73,0
113440,note_on,160,0,7,,,,,,,,,6,,,69,0
113440,note_on,0,0,7,,,,,,,,,6,,,76,0
113440,note_on,160,0,5,,,,,,,,,4,,,81,0
113440,note_on,160,0,2,,,,,,,,,1,,,64,0
113472,note_on,32,0,4,,,,,,,,,3,,,49,127
113472,note_on,32,0,8,,,,,,,,,7,,,49,127
113472,note_on,32,0,2,,,,,,,,,1,,,64,127
113472,note_on,0,0,7,,,,,,,,,6,,,76,127
113472,note_on,0,0,6,,,,,,,,,5,,,73,127
113472,note_on,32,0,6,,,,,,,,,5,,,57,127
113472,note_on,32,0,3,,,,,,,,,2,,,57,127
113472,note_on,32,0,7,,,,,,,,,6,,,69,127
113472,note_on,32,0,5,,,,,,,,,4,,,81,127
113616,note_on,720,0,1,,,,,,,,,0,,,69,0
113632,note_on,0,0,6,,,,,,,,,5,,,73,0
113632,note_on,160,0,6,,,,,,,,,5,,,57,0
113632,note_on,160,0,4,,,,,,,,,3,,,49,0
113632,note_on,160,0,2,,,,,,,,,1,,,64,0
113632,note_on,160,0,8,,,,,,,,,7,,,49,0
113632,note_on,160,0,7,,,,,,,,,6,,,69,0
113632,note_on,0,0,7,,,,,,,,,6,,,76,0
113632,note_on,160,0,5,,,,,,,,,4,,,81,0
113632,note_on,160,0,3,,,,,,,,,2,,,57,0
113664,note_on,32,0,2,,,,,,,,,1,,,62,127
113664,note_on,48,0,1,,,,,,,,,0,,,66,127
113664,note_on,32,0,3,,,,,,,,,2,,,57,127
113664,note_on,32,0,8,,,,,,,,,7,,,50,127
113664,note_on,32,0,7,,,,,,,,,6,,,66,127
113664,note_on,0,0,7,,,,,,,,,6,,,74,127
113664,note_on,32,0,4,,,,,,,,,3,,,50,127
113664,note_on,32,0,5,,,,,,,,,4,,,81,127
113664,note_on,32,0,6,,,,,,,,,5,,,57,127
113664,note_on,0,0,6,,,,,,,,,5,,,69,127
113824,note_on,0,0,7,,,,,,,,,6,,,74,0
113824,note_on,160,0,5,,,,,,,,,4,,,81,0
113824,note_on,160,0,2,,,,,,,,,1,,,62,0
113824,note_on,160,0,8,,,,,,,,,7,,,50,0
113824,note_on,160,0,4,,,,,,,,,3,,,50,0
113824,note_on,160,0,3,,,,,,,,,2,,,57,0
113824,note_on,160,0,6,,,,,,,,,5,,,57,0
113824,note_on,0,0,6,,,,,,,,,5,,,69,0
113824,note_on,160,0,7,,,,,,,,,6,,,66,0
113856,note_on,32,0,2,,,,,,,,,1,,,62,127
113856,note_on,32,0,4,,,,,,,,,3,,,50,127
113856,note_on,32,0,5,,,,,,,,,4,,,81,127
113856,note_on,32,0,6,,,,,,,,,5,,,57,127
113856,note_on,32,0,8,,,,,,,,,7,,,50,127
113856,note_on,0,0,6,,,,,,,,,5,,,69,127
113856,note_on,0,0,7,,,,,,,,,6,,,74,127
113856,note_on,32,0,7,,,,,,,,,6,,,66,127
113856,note_on,32,0,3,,,,,,,,,2,,,57,127
113950,note_on,94,0,6,,,,,,,,,5,,,57,0
113950,note_on,0,0,6,,,,,,,,,5,,,69,0
113950,note_on,0,0,7,,,,,,,,,6,,,74,0
113950,note_on,94,0,7,,,,,,,,,6,,,66,0
113950,note_on,94,0,8,,,,,,,,,7,,,50,0
113950,note_on,94,0,5,,,,,,,,,4,,,81,0
113950,note_on,94,0,2,,,,,,,,,1,,,62,0
113950,note_on,94,0,3,,,,,,,,,2,,,57,0
113950,note_on,94,0,4,,,,,,,,,3,,,50,0
113952,note_on,2,0,7,,,,,,,,,6,,,66,127
113952,note_on,2,0,4,,,,,,,,,3,,,50,127
113952,note_on,2,0,3,,,,,,,,,2,,,57,127
113952,note_on,0,0,7,,,,,,,,,6,,,74,127
113952,note_on,2,0,2,,,,,,,,,1,,,62,127
113952,note_on,0,0,6,,,,,,,,,5,,,69,127
113952,note_on,2,0,5,,,,,,,,,4,,,81,127
113952,note_on,2,0,8,,,,,,,,,7,,,50,127
113952,note_on,2,0,6,,,,,,,,,5,,,57,127
114000,note_on,336,0,1,,,,,,,,,0,,,66,0
114046,note_on,94,0,6,,,,,,,,,5,,,57,0
114046,note_on,0,0,6,,,,,,,,,5,,,69,0
114046,note_on,94,0,5,,,,,,,,,4,,,81,0
114046,note_on,94,0,3,,,,,,,,,2,,,57,0
114046,note_on,94,0,8,,,,,,,,,7,,,50,0
114046,note_on,94,0,4,,,,,,,,,3,,,50,0
114046,note_on,0,0,7,,,,,,,,,6,,,74,0
114046,note_on,94,0,7,,,,,,,,,6,,,66,0
114046,note_on,94,0,2,,,,,,,,,1,,,62,0
114048,note_on,2,0,8,,,,,,,,,7,,,50,127
114048,note_on,0,0,7,,,,,,,,,6,,,74,127
114048,note_on,2,0,3,,,,,,,,,2,,,62,127
114048,note_on,2,0,5,,,,,,,,,4,,,81,127
114048,note_on,2,0,7,,,,,,,,,6,,,66,127
114048,note_on,2,0,4,,,,,,,,,3,,,50,127
114048,note_on,48,0,1,,,,,,,,,0,,,66,127
114048,note_on,2,0,6,,,,,,,,,5,,,62,127
114048,note_on,0,0,6,,,,,,,,,5,,,69,127
114048,note_on,2,0,2,,,,,,,,,1,,,62,127
114208,note_on,160,0,3,,,,,,,,,2,,,62,0
114208,note_on,160,0,1,,,,,,,,,0,,,66,0
114208,note_on,160,0,4,,,,,,,,,3,,,50,0
114208,note_on,160,0,6,,,,,,,,,5,,,62,0
114208,note_on,160,0,5,,,,,,,,,4,,,81,0
114208,note_on,0,0,6,,,,,,,,,5,,,69,0
114208,note_on,160,0,8,,,,,,,,,7,,,50,0
114208,note_on,160,0,2,,,,,,,,,1,,,62,0
114208,note_on,0,0,7,,,,,,,,,6,,,74,0
114208,note_on,160,0,7,,,,,,,,,6,,,66,0
114240,note_on,32,0,2,,,,,,,,,1,,,62,127
114240,note_on,32,0,7,,,,,,,,,6,,,66,127
114240,note_on,32,0,3,,,,,,,,,2,,,62,127
114240,note_on,32,0,5,,,,,,,,,4,,,81,127
114240,note_on,32,0,1,,,,,,,,,0,,,66,127
114240,note_on,0,0,7,,,,,,,,,6,,,74,127
114240,note_on,32,0,6,,,,,,,,,5,,,62,127
114240,note_on,32,0,8,,,,,,,,,7,,,50,127
114240,note_on,32,0,4,,,,,,,,,3,,,50,127
114240,note_on,0,0,6,,,,,,,,,5,,,69,127
114400,note_on,160,0,6,,,,,,,,,5,,,62,0
114400,note_on,0,0,6,,,,,,,,,5,,,69,0
114400,note_on,160,0,5,,,,,,,,,4,,,81,0
114400,note_on,160,0,3,,,,,,,,,2,,,62,0
114400,note_on,0,0,7,,,,,,,,,6,,,74,0
114400,note_on,160,0,7,,,,,,,,,6,,,66,0
114400,note_on,160,0,2,,,,,,,,,1,,,62,0
114400,note_on,160,0,4,,,,,,,,,3,,,50,0
114400,note_on,160,0,1,,,,,,,,,0,,,66,0
114400,note_on,160,0,8,,,,,,,,,7,,,50,0
114432,note_on,32,0,6,,,,,,,,,5,,,62,127
114432,note_on,32,0,4,,,,,,,,,3,,,47,127
114432,note_on,32,0,3,,,,,,,,,2,,,62,127
114432,note_on,32,0,1,,,,,,,,,0,,,71,127
114432,note_on,32,0,7,,,,,,,,,6,,,71,127
114432,note_on,0,0,7,,,,,,,,,6,,,79,127
114432,note_on,0,0,6,,,,,,,,,5,,,74,127
114432,note_on,32,0,8,,,,,,,,,7,,,47,127
114432,note_on,32,0,5,,,,,,,,,4,,,83,127
114432,note_on,32,0,2,,,,,,,,,1,,,67,127
114768,note_on,336,0,3,,,,,,,,,2,,,62,0
114768,note_on,336,0,2,,,,,,,,,1,,,67,0
114768,note_on,336,0,5,,,,,,,,,4,,,83,0
114768,note_on,336,0,4,,,,,,,,,3,,,47,0
114768,note_on,336,0,8,,,,,,,,,7,,,47,0
114768,note_on,0,0,7,,,,,,,,,6,,,79,0
114768,note_on,336,0,7,,,,,,,,,6,,,71,0
114768,note_on,336,0,1,,,,,,,,,0,,,71,0
114768,note_on,336,0,6,,,,,,,,,5,,,62,0
114768,note_on,0,0,6,,,,,,,,,5,,,74,0
114816,note_on,48,0,3,,,,,,,,,2,,,59,127
114816,note_on,48,0,1,,,,,,,,,0,,,71,127
114816,note_on,48,0,4,,,,,,,,,3,,,47,127
114816,note_on,48,0,2,,,,,,,,,1,,,67,127
114816,note_on,48,0,8,,,,,,,,,7,,,47,127
114816,note_on,0,0,7,,,,,,,,,6,,,79,127
114816,note_on,48,0,7,,,,,,,,,6,,,71,127
114816,note_on,0,0,6,,,,,,,,,5,,,74,127
114816,note_on,48,0,6,,,,,,,,,5,,,59,127
114816,note_on,48,0,5,,,,,,,,,4,,,83,127
114976,note_on,0,0,6,,,,,,,,,5,,,74,0
114976,note_on,160,0,6,,,,,,,,,5,,,59,0
114976,note_on,160,0,8,,,,,,,,,7,,,47,0
114976,note_on,160,0,7,,,,,,,,,6,,,71,0
114976,note_on,0,0,7,,,,,,,,,6,,,79,0
114976,note_on,160,0,2,,,,,,,,,1,,,67,0
114976,note_on,160,0,5,,,,,,,,,4,,,83,0
114976,note_on,160,0,3,,,,,,,,,2,,,59,0
114976,note_on,160,0,4,,,,,,,,,3,,,47,0
115008,note_on,32,0,2,,,,,,,,,1,,,67,127
115008,note_on,32,0,8,,,,,,,,,7,,,47,127
115008,note_on,32,0,5,,,,,,,,,4,,,83,127
115008,note_on,0,0,6,,,,,,,,,5,,,74,127
115008,note_on,32,0,6,,,,,,,,,5,,,59,127
115008,note_on,32,0,4,,,,,,,,,3,,,47,127
115008,note_on,32,0,7,,,,,,,,,6,,,71,127
115008,note_on,0,0,7,,,,,,,,,6,,,79,127
115008,note_on,32,0,3,,,,,,,,,2,,,59,127
115152,note_on,336,0,1,,,,,,,,,0,,,71,0
115168,note_on,0,0,6,,,,,,,,,5,,,74,0
115168,note_on,160,0,3,,,,,,,,,2,,,59,0
115168,note_on,160,0,2,,,,,,,,,1,,,67,0
115168,note_on,160,0,6,,,,,,,,,5,,,59,0
115168,note_on,160,0,5,,,,,,,,,4,,,83,0
115168,note_on,160,0,8,,,,,,,,,7,,,47,0
115168,note_on,0,0,7,,,,,,,,,6,,,79,0
115168,note_on,160,0,7,,,,,,,,,6,,,71,0
115168,note_on,160,0,4,,,,,,,,,3,,,47,0
115200,note_on,32,0,3,,,,,,,,,2,,,59,127
115200,note_on,0,0,7,,,,,,,,,6,,,76,127
115200,note_on,32,0,7,,,,,,,,,6,,,71,127
115200,note_on,48,0,1,,,,,,,,,0,,,68,127
115200,note_on,32,0,2,,,,,,,,,1,,,64,127
115200,note_on,32,0,8,,,,,,,,,7,,,52,127
115200,note_on,32,0,5,,,,,,,,,4,,,83,127
115200,note_on,32,0,6,,,,,,,,,5,,,68,127
115200,note_on,32,0,4,,,,,,,,,3,,,52,127
115360,note_on,160,0,2,,,,,,,,,1,,,64,0
115360,note_on,160,0,7,,,,,,,,,6,,,71,0
115360,note_on,160,0,4,,,,,,,,,3,,,52,0
115360,note_on,160,0,3,,,,,,,,,2,,,59,0
115360,note_on,160,0,8,,,,,,,,,7,,,52,0
115360,note_on,160,0,6,,,,,,,,,5,,,68,0
115360,note_on,0,0,7,,,,,,,,,6,,,76,0
115360,note_on,160,0,5,,,,,,,,,4,,,83,0
115392,note_on,32,0,3,,,,,,,,,2,,,59,127
115392,note_on,32,0,4,,,,,,,,,3,,,52,127
115392,note_on,32,0,8,,,,,,,,,7,,,52,127
115392,note_on,32,0,5,,,,,,,,,4,,,83,127
115392,note_on,32,0,2,,,,,,,,,1,,,64,127
115392,note_on,32,0,7,,,,,,,,,6,,,71,127
115392,note_on,0,0,7,,,,,,,,,6,,,76,127
115392,note_on,32,0,6,,,,,,,,,5,,,68,127
115486,note_on,94,0,2,,,,,,,,,1,,,64,0
115486,note_on,94,0,8,,,,,,,,,7,,,52,0
115486,note_on,94,0,4,,,,,,,,,3,,,52,0
115486,note_on,94,0,6,,,,,,,,,5,,,68,0
115486,note_on,0,0,7,,,,,,,,,6,,,76,0
115486,note_on,94,0,7,,,,,,,,,6,,,71,0
115486,note_on,94,0,3,,,,,,,,,2,,,59,0
115486,note_on,94,0,5,,,,,,,,,4,,,83,0
115488,note_on,2,0,3,,,,,,,,,2,,,59,127
115488,note_on,2,0,5,,,,,,,,,4,,,83,127
115488,note_on,2,0,6,,,,,,,,,5,,,68,127
115488,note_on,2,0,4,,,,,,,,,3,,,52,127
115488,note_on,2,0,7,,,,,,,,,6,,,71,127
115488,note_on,0,0,7,,,,,,,,,6,,,76,127
115488,note_on,2,0,2,,,,,,,,,1,,,64,127
115488,note_on,2,0,8,,,,,,,,,7,,,52,127
115536,note_on,336,0,1,,,,,,,,,0,,,68,0
115582,note_on,94,0,6,,,,,,,,,5,,,68,0
115582,note_on,94,0,7,,,,,,,,,6,,,71,0
115582,note_on,94,0,5,,,,,,,,,4,,,83,0
115582,note_on,0,0,7,,,,,,,,,6,,,76,0
115582,note_on,94,0,4,,,,,,,,,3,,,52,0
115582,note_on,94,0,3,,,,,,,,,2,,,59,0
115582,note_on,94,0,8,,,,,,,,,7,,,52,0
115582,note_on,94,0,2,,,,,,,,,1,,,64,0
115584,note_on,2,0,5,,,,,,,,,4,,,83,127
115584,note_on,48,0,1,,,,,,,,,0,,,68,127
115584,note_on,2,0,6,,,,,,,,,5,,,68,127
115584,note_on,2,0,4,,,,,,,,,3,,,52,127
115584,note_on,2,0,8,,,,,,,,,7,,,52,127
115584,note_on,0,0,7,,,,,,,,,6,,,76,127
115584,note_on,2,0,7,,,,,,,,,6,,,71,127
115584,note_on,2,0,2,,,,,,,,,1,,,64,127
115584,note_on,2,0,3,,,,,,,,,2,,,59,127
115744,note_on,160,0,8,,,,,,,,,7,,,52,0
115744,note_on,0,0,7,,,,,,,,,6,,,76,0
115744,note_on,160,0,7,,,,,,,,,6,,,71,0
115744,note_on,160,0,6,,,,,,,,,5,,,68,0
115744,note_on,160,0,2,,,,,,,,,1,,,64,0
115744,note_on,160,0,5,,,,,,,,,4,,,83,0
115744,note_on,160,0,3,,,,,,,,,2,,,59,0
115744,note_on,160,0,4,,,,,,,,,3,,,52,0
115776,note_on,0,0,7,,,,,,,,,6,,,76,127
115776,note_on,32,0,7,,,,,,,,,6,,,71,127
115776,note_on,32,0,6,,,,,,,,,5,,,68,127
115776,note_on,32,0,2,,,,,,,,,1,,,64,127
115776,note_on,32,0,3,,,,,,,,,2,,,59,127
115776,note_on,32,0,4,,,,,,,,,3,,,52,127
115776,note_on,32,0,5,,,,,,,,,4,,,83,127
115776,note_on,32,0,8,,,,,,,,,7,,,52,127
115920,note_on,336,0,1,,,,,,,,,0,,,68,0
115936,note_on,160,0,4,,,,,,,,,3,,,52,0
115936,note_on,160,0,3,,,,,,,,,2,,,59,0
115936,note_on,0,0,7,,,,,,,,,6,,,76,0
115936,note_on,160,0,2,,,,,,,,,1,,,64,0
115936,note_on,160,0,7,,,,,,,,,6,,,71,0
115936,note_on,160,0,5,,,,,,,,,4,,,83,0
115936,note_on,160,0,6,,,,,,,,,5,,,68,0
115936,note_on,160,0,8,,,,,,,,,7,,,52,0
115968,note_on,32,0,7,,,,,,,,,6,,,76,127
115968,note_on,32,0,5,,,,,,,,,4,,,81,127
115968,note_on,32,0,2,,,,,,,,,1,,,64,127
115968,note_on,32,0,6,,,,,,,,,5,,,69,127
115968,note_on,32,0,3,,,,,,,,,2,,,64,127
115968,note_on,48,0,1,,,,,,,,,0,,,69,127
115968,note_on,32,0,4,,,,,,,,,3,,,49,127
115968,note_on,32,0,8,,,,,,,,,7,,,49,127
116128,note_on,160,0,6,,,,,,,,,5,,,69,0
116128,note_on,160,0,1,,,,,,,,,0,,,69,0
116160,note_on,32,0,6,,,,,,,,,5,,,69,127
116160,note_on,32,0,1,,,,,,,,,0,,,69,127
116304,note_on,336,0,7,,,,,,,,,6,,,76,0
116304,note_on,336,0,3,,,,,,,,,2,,,64,0
116304,note_on,336,0,4,,,,,,,,,3,,,49,0
116304,note_on,336,0,2,,,,,,,,,1,,,64,0
116304,note_on,336,0,8,,,,,,,,,7,,,49,0
116320,note_on,160,0,1,,,,,,,,,0,,,69,0
116320,note_on,160,0,6,,,,,,,,,5,,,69,0
116352,note_on,32,0,1,,,,,,,,,0,,,69,127
116352,note_on,0,0,6,,,,,,,,,5,,,74,127
116352,note_on,48,0,4,,,,,,,,,3,,,50,127
116352,note_on,32,0,6,,,,,,,,,5,,,69,127
116352,note_on,48,0,2,,,,,,,,,1,,,66,127
116352,note_on,48,0,3,,,,,,,,,2,,,62,127
116352,note_on,48,0,7,,,,,,,,,6,,,78,127
116352,note_on,48,0,8,,,,,,,,,7,,,50,127
116512,note_on,160,0,1,,,,,,,,,0,,,69,0
116512,note_on,0,0,6,,,,,,,,,5,,,74,0
116512,note_on,160,0,6,,,,,,,,,5,,,69,0
116544,note_on,0,0,3,,,,,,,,,2,,,66,127
116544,note_on,32,0,1,,,,,,,,,0,,,69,127
116544,note_on,0,0,6,,,,,,,,,5,,,78,127
116544,note_on,32,0,6,,,,,,,,,5,,,69,127
116544,note_on,192,0,3,,,,,,,,,2,,,62,0
116688,note_on,336,0,2,,,,,,,,,1,,,66,0
116688,note_on,336,0,4,,,,,,,,,3,,,50,0
116688,note_on,336,0,7,,,,,,,,,6,,,78,0
116704,note_on,160,0,1,,,,,,,,,0,,,69,0
116704,note_on,160,0,3,,,,,,,,,2,,,66,0
116704,note_on,160,0,6,,,,,,,,,5,,,69,0
116704,note_on,0,0,6,,,,,,,,,5,,,78,0
116736,note_on,48,0,7,,,,,,,,,6,,,79,127
116736,note_on,32,0,1,,,,,,,,,0,,,71,127
116736,note_on,48,0,4,,,,,,,,,3,,,50,127
116736,note_on,48,0,2,,,,,,,,,1,,,67,127
116736,note_on,32,0,6,,,,,,,,,5,,,71,127
116736,note_on,32,0,3,,,,,,,,,2,,,64,127
116736,note_on,0,0,6,,,,,,,,,5,,,76,127
117072,note_on,336,0,1,,,,,,,,,0,,,71,0
117072,note_on,0,0,6,,,,,,,,,5,,,76,0
117072,note_on,720,0,8,,,,,,,,,7,,,50,0
117072,note_on,336,0,6,,,,,,,,,5,,,71,0
117120,note_on,48,0,8,,,,,,,,,7,,,49,127
117120,note_on,48,0,1,,,,,,,,,0,,,76,127
117120,note_on,0,0,6,,,,,,,,,5,,,76,127
117120,note_on,0,0,4,,,,,,,,,3,,,49,127
117120,note_on,48,0,6,,,,,,,,,5,,,69,127
117120,note_on,384,0,4,,,,,,,,,3,,,50,0
117456,note_on,1488,0,5,,,,,,,,,4,,,81,0
117456,note_on,336,0,1,,,,,,,,,0,,,76,0
117456,note_on,336,0,4,,,,,,,,,3,,,49,0
117456,note_on,720,0,2,,,,,,,,,1,,,67,0
117456,note_on,720,0,3,,,,,,,,,2,,,64,0
117456,note_on,0,0,6,,,,,,,,,5,,,76,0
117456,note_on,336,0,6,,,,,,,,,5,,,69,0
117456,note_on,720,0,7,,,,,,,,,6,,,79,0
117456,note_on,336,0,8,,,,,,,,,7,,,49,0
117504,note_on,48,0,8,,,,,,,,,7,,,50,127
117504,note_on,48,0,2,,,,,,,,,1,,,66,127
117504,note_on,48,0,7,,,,,,,,,6,,,78,127
117504,note_on,48,0,3,,,,,,,,,2,,,62,127
117504,note_on,48,0,1,,,,,,,,,0,,,69,127
117504,note_on,48,0,6,,,,,,,,,5,,,69,127
117504,note_on,48,0,5,,,,,,,,,4,,,81,127
117504,note_on,48,0,4,,,,,,,,,3,,,50,127
117840,note_on,336,0,3,,,,,,,,,2,,,62,0
117840,note_on,336,0,1,,,,,,,,,0,,,69,0
117840,note_on,336,0,6,,,,,,,,,5,,,69,0
117888,note_on,48,0,6,,,,,,,,,5,,,69,127
117888,note_on,48,0,1,,,,,,,,,0,,,74,127
117888,set_tempo,117120,1,0,333333,,,,,,,,,,,,
117888,note_on,48,0,3,,,,,,,,,2,,,57,127
117888,note_on,0,0,6,,,,,,,,,5,,,74,127
118224,note_on,720,0,8,,,,,,,,,7,,,50,0
118224,note_on,720,0,7,,,,,,,,,6,,,78,0
118224,note_on,720,0,2,,,,,,,,,1,,,66,0
118224,note_on,720,0,4,,,,,,,,,3,,,50,0
118272,note_on,48,0,2,,,,,,,,,1,,,64,127
118272,note_on,48,0,4,,,,,,,,,3,,,45,127
118272,note_on,48,0,8,,,,,,,,,7,,,45,127
118272,note_on,48,0,7,,,,,,,,,6,,,76,127
118608,note_on,720,0,1,,,,,,,,,0,,,74,0
118608,note_on,0,0,6,,,,,,,,,5,,,74,0
118608,note_on,720,0,6,,,,,,,,,5,,,69,0
118656,note_on,48,0,6,,,,,,,,,5,,,69,127
118656,note_on,0,0,6,,,,,,,,,5,,,73,127
118656,note_on,48,0,1,,,,,,,,,0,,,73,127
118992,note_on,336,0,6,,,,,,,,,5,,,69,0
118992,note_on,720,0,2,,,,,,,,,1,,,64,0
118992,note_on,0,0,6,,,,,,,,,5,,,73,0
118992,note_on,720,0,8,,,,,,,,,7,,,45,0
118992,note_on,336,0,1,,,,,,,,,0,,,73,0
118992,note_on,720,0,7,,,,,,,,,6,,,76,0
118992,note_on,1104,0,3,,,,,,,,,2,,,57,0
118992,note_on,1488,0,5,,,,,,,,,4,,,81,0
118992,note_on,720,0,4,,,,,,,,,3,,,45,0
119040,note_on,48,0,8,,,,,,,,,7,,,38,127
119040,note_on,48,0,2,,,,,,,,,1,,,66,127
119040,note_on,48,0,7,,,,,,,,,6,,,74,127
119040,note_on,48,0,1,,,,,,,,,0,,,74,127
119040,note_on,48,0,4,,,,,,,,,3,,,50,127
119040,end_of_track,0,1,0,,,,,,,,,,,,,
119040,note_on,48,0,5,,,,,,,,,4,,,78,127
119040,set_tempo,1152,1,0,394736,,,,,,,,,,,,
119040,note_on,48,0,3,,,,,,,,,2,,,57,127
119040,note_on,0,0,8,,,,,,,,,7,,,50,127
119040,note_on,0,0,7,,,,,,,,,6,,,78,127
119040,note_on,48,0,6,,,,,,,,,5,,,69,127
120528,end_of_track,0,1,1,,,,,,,,,,,,,
120528,note_on,1488,0,1,,,,,,,,,0,,,74,0
120528,note_on,1488,0,7,,,,,,,,,6,,,74,0
120528,end_of_track,0,1,2,,,,,,,,,,,,,
120528,end_of_track,0,1,6,,,,,,,,,,,,,
120528,note_on,1488,0,6,,,,,,,,,5,,,69,0
120528,end_of_track,0,1,5,,,,,,,,,,,,,
120528,end_of_track,0,1,8,,,,,,,,,,,,,
120528,note_on,0,0,8,,,,,,,,,7,,,50,0
120528,note_on,1488,0,8,,,,,,,,,7,,,38,0
120528,note_on,1488,0,4,,,,,,,,,3,,,50,0
120528,note_on,1488,0,5,,,,,,,,,4,,,78,0
120528,note_on,1488,0,3,,,,,,,,,2,,,57,0
120528,end_of_track,0,1,3,,,,,,,,,,,,,
120528,end_of_track,0,1,7,,,,,,,,,,,,,
120528,end_of_track,0,1,4,,,,,,,,,,,,,
120528,note_on,1488,0,2,,,,,,,,,1,,,66,0
120528,note_on,0,0,7,,,,,,,,,6,,,78,0
