tick,type,time,meta,track,tempo,key,numerator,denominator,clocks_per_click,notated_32nd_notes_per_beat,port,program,channel,control,value,note,velocity
0,track_name,0,1,0,,,,,,,,,,,,,
0,control_change,0,0,7,,,,,,,,,7,10,64,,
0,control_change,0,0,7,,,,,,,,,7,7,111,,
0,program_change,0,0,7,,,,,,,,0,7,,,,
0,track_name,0,1,7,,,,,,,,,,,,,
0,midi_port,0,1,7,,,,,,,0,,,,,,
0,control_change,0,0,14,,,,,,,,,14,10,64,,
0,control_change,0,0,6,,,,,,,,,5,10,64,,
0,control_change,0,0,6,,,,,,,,,5,7,111,,
0,program_change,0,0,6,,,,,,,,0,5,,,,
0,track_name,0,1,6,,,,,,,,,,,,,
0,midi_port,0,1,6,,,,,,,0,,,,,,
0,control_change,0,0,5,,,,,,,,,6,10,64,,
0,control_change,0,0,5,,,,,,,,,6,7,111,,
0,program_change,0,0,5,,,,,,,,0,6,,,,
0,track_name,0,1,5,,,,,,,,,,,,,
0,midi_port,0,1,5,,,,,,,0,,,,,,
0,control_change,0,0,4,,,,,,,,,3,10,64,,
0,control_change,0,0,4,,,,,,,,,3,7,127,,
0,program_change,0,0,4,,,,,,,,48,3,,,,
0,track_name,0,1,4,,,,,,,,,,,,,
0,midi_port,0,1,4,,,,,,,0,,,,,,
0,control_change,0,0,3,,,,,,,,,2,10,64,,
0,control_change,0,0,3,,,,,,,,,2,7,127,,
0,program_change,0,0,3,,,,,,,,48,2,,,,
0,track_name,0,1,3,,,,,,,,,,,,,
0,midi_port,0,1,3,,,,,,,0,,,,,,
0,control_change,0,0,2,,,,,,,,,1,10,64,,
0,control_change,0,0,2,,,,,,,,,1,7,127,,
0,program_change,0,0,2,,,,,,,,48,1,,,,
0,midi_port,0,1,8,,,,,,,0,,,,,,
0,track_name,0,1,2,,,,,,,,,,,,,
0,track_name,0,1,8,,,,,,,,,,,,,
0,control_change,0,0,8,,,,,,,,,8,10,64,,
0,control_change,0,0,14,,,,,,,,,14,7,127,,
0,track_name,0,1,14,,,,,,,,,,,,,
0,midi_port,0,1,14,,,,,,,0,,,,,,
0,end_of_track,0,1,13,,,,,,,,,,,,,
0,control_change,0,0,13,,,,,,,,,13,10,64,,
0,control_change,0,0,13,,,,,,,,,13,7,127,,
0,track_name,0,1,13,,,,,,,,,,,,,
0,midi_port,0,1,13,,,,,,,0,,,,,,
0,end_of_track,0,1,12,,,,,,,,,,,,,
0,control_change,0,0,12,,,,,,,,,12,10,64,,
0,control_change,0,0,12,,,,,,,,,12,7,127,,
0,track_name,0,1,12,,,,,,,,,,,,,
0,midi_port,0,1,12,,,,,,,0,,,,,,
0,end_of_track,0,1,11,,,,,,,,,,,,,
0,control_change,0,0,11,,,,,,,,,11,10,64,,
0,control_change,0,0,11,,,,,,,,,11,7,127,,
0,track_name,0,1,11,,,,,,,,,,,,,
0,midi_port,0,1,11,,,,,,,0,,,,,,
0,end_of_track,0,1,10,,,,,,,,,,,,,
0,control_change,0,0,10,,,,,,,,,10,10,64,,
0,control_change,0,0,10,,,,,,,,,10,7,127,,
0,track_name,0,1,10,,,,,,,,,,,,,
0,midi_port,0,1,10,,,,,,,0,,,,,,
0,end_of_track,0,1,9,,,,,,,,,,,,,
0,control_change,0,0,9,,,,,,,,,9,10,64,,
0,control_change,0,0,9,,,,,,,,,9,7,127,,
0,track_name,0,1,9,,,,,,,,,,,,,
0,midi_port,0,1,9,,,,,,,0,,,,,,
0,end_of_track,0,1,8,,,,,,,,,,,,,
0,control_change,0,0,8,,,,,,,,,8,7,127,,
0,midi_port,0,1,2,,,,,,,0,,,,,,
0,end_of_track,0,1,14,,,,,,,,,,,,,
0,track_name,0,1,1,,,,,,,,,,,,,
0,control_change,0,0,1,,,,,,,,,0,7,127,,
0,control_change,0,0,1,,,,,,,,,0,10,64,,
0,midi_port,0,1,1,,,,,,,0,,,,,,
0,time_signature,0,1,0,,,4,4,24,8,,,,,,,
0,key_signature,0,1,0,,D,,,,,,,,,,,
0,set_tempo,0,1,0,416666,,,,,,,,,,,,
0,copyright,0,1,0,,,,,,,,,,,,,
0,text,0,1,0,,,,,,,,,,,,,
0,text,0,1,0,,,,,,,,,,,,,
0,program_change,0,0,1,,,,,,,,48,0,,,,
768,time_signature,0,1,0,,,3,4,24,8,,,,,,,
768,set_tempo,768,1,0,1000000,,,,,,,,,,,,
768,note_on,768,0,6,,,,,,,,,5,,,62,60
768,note_on,0,0,6,,,,,,,,,5,,,66,60
768,note_on,768,0,5,,,,,,,,,6,,,71,60
768,note_on,768,0,7,,,,,,,,,7,,,47,60
862,note_on,94,0,7,,,,,,,,,7,,,47,0
862,note_on,0,0,6,,,,,,,,,5,,,66,0
862,note_on,94,0,6,,,,,,,,,5,,,62,0
864,note_on,2,0,6,,,,,,,,,5,,,62,60
864,note_on,0,0,6,,,,,,,,,5,,,66,60
864,note_on,2,0,7,,,,,,,,,7,,,47,60
928,note_on,160,0,5,,,,,,,,,6,,,71,0
958,note_on,94,0,6,,,,,,,,,5,,,62,0
958,note_on,94,0,7,,,,,,,,,7,,,47,0
958,note_on,0,0,6,,,,,,,,,5,,,66,0
960,note_on,32,0,5,,,,,,,,,6,,,66,60
960,note_on,2,0,7,,,,,,,,,7,,,47,60
960,note_on,2,0,6,,,,,,,,,5,,,62,60
1054,note_on,94,0,7,,,,,,,,,7,,,47,0
1054,note_on,94,0,6,,,,,,,,,5,,,62,0
1056,note_on,2,0,6,,,,,,,,,5,,,62,60
1056,note_on,2,0,7,,,,,,,,,7,,,47,60
1120,note_on,160,0,5,,,,,,,,,6,,,66,0
1150,note_on,94,0,6,,,,,,,,,5,,,62,0
1150,note_on,94,0,7,,,,,,,,,7,,,47,0
1152,note_on,2,0,6,,,,,,,,,5,,,59,60
1152,note_on,2,0,7,,,,,,,,,7,,,47,60
1152,note_on,32,0,5,,,,,,,,,6,,,62,60
1246,note_on,94,0,7,,,,,,,,,7,,,47,0
1246,note_on,94,0,6,,,,,,,,,5,,,59,0
1248,note_on,2,0,7,,,,,,,,,7,,,47,60
1248,note_on,2,0,6,,,,,,,,,5,,,59,60
1312,note_on,160,0,5,,,,,,,,,6,,,62,0
1342,note_on,94,0,6,,,,,,,,,5,,,59,0
1342,note_on,94,0,7,,,,,,,,,7,,,47,0
1344,note_on,2,0,6,,,,,,,,,5,,,71,60
1344,note_on,0,0,5,,,,,,,,,6,,,62,60
1344,note_on,2,0,7,,,,,,,,,7,,,47,60
1344,note_on,0,0,7,,,,,,,,,7,,,54,60
1344,note_on,32,0,5,,,,,,,,,6,,,59,60
1438,note_on,94,0,7,,,,,,,,,7,,,47,0
1438,note_on,0,0,7,,,,,,,,,7,,,54,0
1440,note_on,2,0,7,,,,,,,,,7,,,47,60
1440,note_on,0,0,7,,,,,,,,,7,,,54,60
1504,note_on,160,0,5,,,,,,,,,6,,,59,0
1504,note_on,160,0,6,,,,,,,,,5,,,71,0
1504,note_on,0,0,5,,,,,,,,,6,,,62,0
1534,note_on,94,0,7,,,,,,,,,7,,,47,0
1534,note_on,0,0,7,,,,,,,,,7,,,54,0
1536,note_on,32,0,6,,,,,,,,,5,,,66,60
1536,note_on,2,0,7,,,,,,,,,7,,,47,60
1536,note_on,0,0,7,,,,,,,,,7,,,62,60
1630,note_on,94,0,7,,,,,,,,,7,,,47,0
1630,note_on,0,0,7,,,,,,,,,7,,,62,0
1632,note_on,2,0,7,,,,,,,,,7,,,47,60
1632,note_on,0,0,7,,,,,,,,,7,,,62,60
1696,note_on,160,0,6,,,,,,,,,5,,,66,0
1726,note_on,94,0,7,,,,,,,,,7,,,47,0
1726,note_on,0,0,7,,,,,,,,,7,,,62,0
1728,note_on,2,0,7,,,,,,,,,7,,,47,60
1728,note_on,0,0,7,,,,,,,,,7,,,59,60
1728,note_on,32,0,6,,,,,,,,,5,,,62,60
1822,note_on,94,0,7,,,,,,,,,7,,,47,0
1822,note_on,0,0,7,,,,,,,,,7,,,59,0
1824,note_on,2,0,7,,,,,,,,,7,,,47,60
1824,note_on,0,0,7,,,,,,,,,7,,,59,60
1888,note_on,160,0,6,,,,,,,,,5,,,62,0
1918,note_on,94,0,7,,,,,,,,,7,,,47,0
1918,note_on,0,0,7,,,,,,,,,7,,,59,0
1920,note_on,32,0,6,,,,,,,,,5,,,59,60
1920,note_on,0,0,6,,,,,,,,,5,,,62,60
1920,note_on,416,0,5,,,,,,,,,6,,,71,60
1920,note_on,0,0,7,,,,,,,,,7,,,54,60
1920,note_on,2,0,7,,,,,,,,,7,,,47,60
2014,note_on,94,0,5,,,,,,,,,6,,,71,0
2014,note_on,0,0,7,,,,,,,,,7,,,54,0
2014,note_on,94,0,7,,,,,,,,,7,,,47,0
2016,note_on,2,0,7,,,,,,,,,7,,,47,60
2016,note_on,2,0,5,,,,,,,,,6,,,66,60
2016,note_on,0,0,7,,,,,,,,,7,,,54,60
2080,note_on,160,0,6,,,,,,,,,5,,,59,0
2080,note_on,0,0,6,,,,,,,,,5,,,62,0
2110,note_on,94,0,7,,,,,,,,,7,,,47,0
2110,note_on,0,0,7,,,,,,,,,7,,,54,0
2110,note_on,94,0,5,,,,,,,,,6,,,66,0
2112,note_on,2,0,5,,,,,,,,,6,,,71,60
2112,note_on,2,0,7,,,,,,,,,7,,,59,60
2112,note_on,0,0,7,,,,,,,,,7,,,62,60
2206,note_on,94,0,5,,,,,,,,,6,,,71,0
2206,note_on,0,0,7,,,,,,,,,7,,,62,0
2206,note_on,94,0,7,,,,,,,,,7,,,59,0
2208,note_on,2,0,5,,,,,,,,,6,,,74,60
2208,note_on,0,0,7,,,,,,,,,7,,,62,60
2208,note_on,2,0,7,,,,,,,,,7,,,59,60
2302,note_on,0,0,7,,,,,,,,,7,,,62,0
2302,note_on,94,0,7,,,,,,,,,7,,,59,0
2302,note_on,94,0,5,,,,,,,,,6,,,74,0
2304,note_on,2,0,7,,,,,,,,,7,,,59,60
2304,note_on,2,0,5,,,,,,,,,6,,,78,60
2304,note_on,0,0,7,,,,,,,,,7,,,62,60
2398,note_on,94,0,7,,,,,,,,,7,,,59,0
2398,note_on,0,0,7,,,,,,,,,7,,,62,0
2398,note_on,94,0,5,,,,,,,,,6,,,78,0
2400,note_on,0,0,7,,,,,,,,,7,,,62,60
2400,note_on,2,0,5,,,,,,,,,6,,,71,60
2400,note_on,2,0,7,,,,,,,,,7,,,59,60
2494,note_on,94,0,7,,,,,,,,,7,,,59,0
2494,note_on,0,0,7,,,,,,,,,7,,,62,0
2494,note_on,94,0,5,,,,,,,,,6,,,71,0
2496,note_on,2,0,5,,,,,,,,,6,,,73,60
2496,note_on,2,0,7,,,,,,,,,7,,,54,60
2496,note_on,0,0,7,,,,,,,,,7,,,61,60
2496,note_on,416,0,6,,,,,,,,,5,,,70,60
2590,note_on,94,0,6,,,,,,,,,5,,,70,0
2590,note_on,94,0,7,,,,,,,,,7,,,54,0
2590,note_on,0,0,7,,,,,,,,,7,,,61,0
2592,note_on,2,0,6,,,,,,,,,5,,,66,60
2592,note_on,2,0,7,,,,,,,,,7,,,54,60
2592,note_on,0,0,7,,,,,,,,,7,,,61,60
2656,note_on,160,0,5,,,,,,,,,6,,,73,0
2686,note_on,0,0,7,,,,,,,,,7,,,61,0
2686,note_on,94,0,6,,,,,,,,,5,,,66,0
2686,note_on,94,0,7,,,,,,,,,7,,,54,0
2688,note_on,0,0,7,,,,,,,,,7,,,61,60
2688,note_on,2,0,6,,,,,,,,,5,,,70,60
2688,note_on,2,0,7,,,,,,,,,7,,,54,60
2782,note_on,94,0,7,,,,,,,,,7,,,54,0
2782,note_on,0,0,7,,,,,,,,,7,,,61,0
2782,note_on,94,0,6,,,,,,,,,5,,,70,0
2784,note_on,2,0,6,,,,,,,,,5,,,73,60
2784,note_on,2,0,7,,,,,,,,,7,,,54,60
2784,note_on,0,0,7,,,,,,,,,7,,,61,60
2878,note_on,94,0,6,,,,,,,,,5,,,73,0
2878,note_on,94,0,7,,,,,,,,,7,,,54,0
2878,note_on,0,0,7,,,,,,,,,7,,,61,0
2880,note_on,2,0,7,,,,,,,,,7,,,54,60
2880,note_on,224,0,5,,,,,,,,,6,,,69,60
2880,note_on,2,0,6,,,,,,,,,5,,,78,60
2974,note_on,94,0,7,,,,,,,,,7,,,54,0
2974,note_on,94,0,5,,,,,,,,,6,,,69,0
2974,note_on,94,0,6,,,,,,,,,5,,,78,0
2976,note_on,2,0,6,,,,,,,,,5,,,73,60
2976,note_on,2,0,5,,,,,,,,,6,,,69,60
2976,note_on,2,0,7,,,,,,,,,7,,,54,60
3070,note_on,94,0,6,,,,,,,,,5,,,73,0
3070,note_on,94,0,5,,,,,,,,,6,,,69,0
3070,note_on,94,0,7,,,,,,,,,7,,,54,0
3072,note_on,0,0,6,,,,,,,,,5,,,74,75
3072,note_on,2,0,7,,,,,,,,,7,,,47,75
3072,note_on,2,0,6,,,,,,,,,5,,,66,75
3120,note_on,50,0,5,,,,,,,,,6,,,71,75
3166,note_on,94,0,7,,,,,,,,,7,,,47,0
3166,note_on,94,0,6,,,,,,,,,5,,,66,0
3166,note_on,46,0,5,,,,,,,,,6,,,71,0
3166,note_on,0,0,6,,,,,,,,,5,,,74,0
3168,note_on,2,0,5,,,,,,,,,6,,,71,75
3168,note_on,2,0,6,,,,,,,,,5,,,66,75
3168,note_on,2,0,7,,,,,,,,,7,,,47,75
3214,note_on,46,0,5,,,,,,,,,6,,,71,0
3216,note_on,2,0,5,,,,,,,,,6,,,71,75
3262,note_on,94,0,6,,,,,,,,,5,,,66,0
3262,note_on,94,0,7,,,,,,,,,7,,,47,0
3262,note_on,46,0,5,,,,,,,,,6,,,71,0
3264,note_on,2,0,7,,,,,,,,,7,,,47,75
3264,note_on,2,0,6,,,,,,,,,5,,,66,75
3264,note_on,2,0,5,,,,,,,,,6,,,74,75
3312,note_on,0,0,5,,,,,,,,,6,,,71,75
3312,note_on,48,0,5,,,,,,,,,6,,,74,0
3358,note_on,94,0,7,,,,,,,,,7,,,47,0
3358,note_on,46,0,5,,,,,,,,,6,,,71,0
3358,note_on,94,0,6,,,,,,,,,5,,,66,0
3360,note_on,2,0,6,,,,,,,,,5,,,66,75
3360,note_on,2,0,5,,,,,,,,,6,,,71,75
3360,note_on,2,0,7,,,,,,,,,7,,,47,75
3406,note_on,46,0,5,,,,,,,,,6,,,71,0
3408,note_on,2,0,5,,,,,,,,,6,,,71,75
3454,note_on,94,0,7,,,,,,,,,7,,,47,0
3454,note_on,94,0,6,,,,,,,,,5,,,66,0
3454,note_on,46,0,5,,,,,,,,,6,,,71,0
3456,note_on,2,0,6,,,,,,,,,5,,,62,75
3456,note_on,2,0,7,,,,,,,,,7,,,47,75
3456,note_on,2,0,5,,,,,,,,,6,,,66,75
3504,note_on,48,0,5,,,,,,,,,6,,,66,0
3504,note_on,0,0,5,,,,,,,,,6,,,71,75
3550,note_on,46,0,5,,,,,,,,,6,,,71,0
3550,note_on,94,0,6,,,,,,,,,5,,,62,0
3550,note_on,94,0,7,,,,,,,,,7,,,47,0
3552,note_on,2,0,5,,,,,,,,,6,,,71,75
3552,note_on,2,0,6,,,,,,,,,5,,,62,75
3552,note_on,2,0,7,,,,,,,,,7,,,47,75
3598,note_on,46,0,5,,,,,,,,,6,,,71,0
3600,note_on,2,0,5,,,,,,,,,6,,,71,75
3646,note_on,46,0,5,,,,,,,,,6,,,71,0
3646,note_on,94,0,6,,,,,,,,,5,,,62,0
3646,note_on,94,0,7,,,,,,,,,7,,,47,0
3648,note_on,2,0,7,,,,,,,,,7,,,52,75
3648,note_on,0,0,7,,,,,,,,,7,,,59,75
3648,note_on,2,0,6,,,,,,,,,5,,,67,75
3696,note_on,50,0,5,,,,,,,,,6,,,76,75
3742,note_on,94,0,7,,,,,,,,,7,,,52,0
3742,note_on,46,0,5,,,,,,,,,6,,,76,0
3742,note_on,0,0,7,,,,,,,,,7,,,59,0
3744,note_on,2,0,7,,,,,,,,,7,,,52,75
3744,note_on,0,0,7,,,,,,,,,7,,,59,75
3744,note_on,2,0,5,,,,,,,,,6,,,76,75
3790,note_on,46,0,5,,,,,,,,,6,,,76,0
3792,note_on,2,0,5,,,,,,,,,6,,,76,75
3808,note_on,160,0,6,,,,,,,,,5,,,67,0
3838,note_on,46,0,5,,,,,,,,,6,,,76,0
3838,note_on,0,0,7,,,,,,,,,7,,,59,0
3838,note_on,94,0,7,,,,,,,,,7,,,52,0
3840,note_on,2,0,7,,,,,,,,,7,,,52,75
3840,note_on,2,0,5,,,,,,,,,6,,,79,75
3840,note_on,0,0,7,,,,,,,,,7,,,59,75
3888,note_on,48,0,5,,,,,,,,,6,,,79,0
3888,note_on,0,0,5,,,,,,,,,6,,,76,75
3934,note_on,0,0,7,,,,,,,,,7,,,59,0
3934,note_on,46,0,5,,,,,,,,,6,,,76,0
3934,note_on,94,0,7,,,,,,,,,7,,,52,0
3936,note_on,0,0,7,,,,,,,,,7,,,59,75
3936,note_on,2,0,7,,,,,,,,,7,,,52,75
3936,note_on,2,0,5,,,,,,,,,6,,,76,75
3982,note_on,46,0,5,,,,,,,,,6,,,76,0
3984,note_on,2,0,5,,,,,,,,,6,,,76,75
4030,note_on,46,0,5,,,,,,,,,6,,,76,0
4030,note_on,94,0,7,,,,,,,,,7,,,52,0
4030,note_on,0,0,7,,,,,,,,,7,,,59,0
4032,note_on,2,0,5,,,,,,,,,6,,,71,75
4032,note_on,224,0,6,,,,,,,,,5,,,67,75
4032,note_on,2,0,7,,,,,,,,,7,,,52,75
4080,note_on,48,0,5,,,,,,,,,6,,,71,0
4080,note_on,0,0,5,,,,,,,,,6,,,76,75
4126,note_on,46,0,5,,,,,,,,,6,,,76,0
4126,note_on,94,0,6,,,,,,,,,5,,,67,0
4126,note_on,94,0,7,,,,,,,,,7,,,52,0
4128,note_on,2,0,6,,,,,,,,,5,,,67,75
4128,note_on,2,0,7,,,,,,,,,7,,,52,75
4128,note_on,2,0,5,,,,,,,,,6,,,76,75
4174,note_on,46,0,5,,,,,,,,,6,,,76,0
4176,note_on,2,0,5,,,,,,,,,6,,,76,75
4222,note_on,94,0,6,,,,,,,,,5,,,67,0
4222,note_on,46,0,5,,,,,,,,,6,,,76,0
4222,note_on,94,0,7,,,,,,,,,7,,,52,0
4224,note_on,0,0,7,,,,,,,,,7,,,58,75
4224,note_on,2,0,7,,,,,,,,,7,,,54,75
4224,note_on,2,0,6,,,,,,,,,5,,,73,75
4270,note_on,46,0,6,,,,,,,,,5,,,73,0
4272,note_on,2,0,6,,,,,,,,,5,,,73,75
4272,note_on,50,0,5,,,,,,,,,6,,,78,75
4318,note_on,94,0,7,,,,,,,,,7,,,54,0
4318,note_on,46,0,5,,,,,,,,,6,,,78,0
4318,note_on,46,0,6,,,,,,,,,5,,,73,0
4318,note_on,0,0,7,,,,,,,,,7,,,58,0
4320,note_on,2,0,5,,,,,,,,,6,,,78,75
4320,note_on,2,0,6,,,,,,,,,5,,,73,75
4320,note_on,0,0,7,,,,,,,,,7,,,58,75
4320,note_on,2,0,7,,,,,,,,,7,,,54,75
4366,note_on,46,0,6,,,,,,,,,5,,,73,0
4366,note_on,46,0,5,,,,,,,,,6,,,78,0
4368,note_on,2,0,6,,,,,,,,,5,,,73,75
4368,note_on,2,0,5,,,,,,,,,6,,,78,75
4414,note_on,94,0,7,,,,,,,,,7,,,54,0
4414,note_on,0,0,7,,,,,,,,,7,,,58,0
4414,note_on,46,0,6,,,,,,,,,5,,,73,0
4414,note_on,46,0,5,,,,,,,,,6,,,78,0
4416,note_on,0,0,7,,,,,,,,,7,,,61,75
4416,note_on,2,0,6,,,,,,,,,5,,,78,75
4416,note_on,2,0,5,,,,,,,,,6,,,82,75
4416,note_on,2,0,7,,,,,,,,,7,,,54,75
4462,note_on,46,0,5,,,,,,,,,6,,,82,0
4462,note_on,46,0,6,,,,,,,,,5,,,78,0
4464,note_on,2,0,5,,,,,,,,,6,,,78,75
4464,note_on,2,0,6,,,,,,,,,5,,,73,75
4510,note_on,46,0,5,,,,,,,,,6,,,78,0
4510,note_on,46,0,6,,,,,,,,,5,,,73,0
4510,note_on,0,0,7,,,,,,,,,7,,,61,0
4510,note_on,94,0,7,,,,,,,,,7,,,54,0
4512,note_on,2,0,6,,,,,,,,,5,,,73,75
4512,note_on,0,0,7,,,,,,,,,7,,,58,75
4512,note_on,2,0,7,,,,,,,,,7,,,54,75
4512,note_on,2,0,5,,,,,,,,,6,,,78,75
4558,note_on,46,0,6,,,,,,,,,5,,,73,0
4558,note_on,46,0,5,,,,,,,,,6,,,78,0
4560,note_on,2,0,6,,,,,,,,,5,,,73,75
4560,note_on,2,0,5,,,,,,,,,6,,,78,75
4606,note_on,94,0,7,,,,,,,,,7,,,54,0
4606,note_on,46,0,6,,,,,,,,,5,,,73,0
4606,note_on,46,0,5,,,,,,,,,6,,,78,0
4606,note_on,0,0,7,,,,,,,,,7,,,58,0
4608,note_on,2,0,7,,,,,,,,,7,,,52,75
4608,note_on,0,0,7,,,,,,,,,7,,,61,75
4608,note_on,2,0,6,,,,,,,,,5,,,78,75
4608,note_on,2,0,5,,,,,,,,,6,,,82,75
4654,note_on,46,0,6,,,,,,,,,5,,,78,0
4654,note_on,46,0,5,,,,,,,,,6,,,82,0
4656,note_on,2,0,5,,,,,,,,,6,,,78,75
4656,note_on,2,0,6,,,,,,,,,5,,,73,75
4702,note_on,94,0,7,,,,,,,,,7,,,52,0
4702,note_on,0,0,7,,,,,,,,,7,,,61,0
4702,note_on,46,0,5,,,,,,,,,6,,,78,0
4702,note_on,46,0,6,,,,,,,,,5,,,73,0
4704,note_on,2,0,6,,,,,,,,,5,,,73,75
4704,note_on,2,0,7,,,,,,,,,7,,,52,75
4704,note_on,0,0,7,,,,,,,,,7,,,61,75
4704,note_on,2,0,5,,,,,,,,,6,,,78,75
4750,note_on,46,0,6,,,,,,,,,5,,,73,0
4750,note_on,46,0,5,,,,,,,,,6,,,78,0
4752,note_on,2,0,6,,,,,,,,,5,,,73,75
4752,note_on,2,0,5,,,,,,,,,6,,,78,75
4798,note_on,46,0,5,,,,,,,,,6,,,78,0
4798,note_on,46,0,6,,,,,,,,,5,,,73,0
4798,note_on,94,0,7,,,,,,,,,7,,,52,0
4798,note_on,0,0,7,,,,,,,,,7,,,61,0
4800,note_on,2,0,6,,,,,,,,,5,,,78,60
4800,note_on,2,0,5,,,,,,,,,6,,,83,60
4800,note_on,2,0,7,,,,,,,,,7,,,50,60
4800,note_on,0,0,7,,,,,,,,,7,,,62,60
4800,note_on,0,0,7,,,,,,,,,7,,,59,60
4894,note_on,94,0,6,,,,,,,,,5,,,78,0
4894,note_on,94,0,5,,,,,,,,,6,,,83,0
4894,note_on,94,0,7,,,,,,,,,7,,,50,0
4896,note_on,2,0,7,,,,,,,,,7,,,50,60
4896,note_on,2,0,6,,,,,,,,,5,,,74,60
4896,note_on,2,0,5,,,,,,,,,6,,,78,60
4960,note_on,64,0,7,,,,,,,,,7,,,59,0
4960,note_on,0,0,7,,,,,,,,,7,,,62,0
4990,note_on,94,0,5,,,,,,,,,6,,,78,0
4990,note_on,30,0,7,,,,,,,,,7,,,50,0
4990,note_on,94,0,6,,,,,,,,,5,,,74,0
4992,note_on,0,0,5,,,,,,,,,6,,,83,60
4992,note_on,2,0,5,,,,,,,,,6,,,79,60
4992,note_on,2,0,7,,,,,,,,,7,,,52,60
4992,note_on,2,0,6,,,,,,,,,5,,,73,60
5086,note_on,94,0,6,,,,,,,,,5,,,73,0
5086,note_on,0,0,5,,,,,,,,,6,,,83,0
5086,note_on,94,0,7,,,,,,,,,7,,,52,0
5086,note_on,94,0,5,,,,,,,,,6,,,79,0
5088,note_on,2,0,6,,,,,,,,,5,,,67,60
5088,note_on,2,0,5,,,,,,,,,6,,,71,60
5088,note_on,0,0,5,,,,,,,,,6,,,74,60
5088,note_on,2,0,7,,,,,,,,,7,,,52,60
5182,note_on,0,0,5,,,,,,,,,6,,,74,0
5182,note_on,94,0,5,,,,,,,,,6,,,71,0
5182,note_on,94,0,7,,,,,,,,,7,,,52,0
5182,note_on,94,0,6,,,,,,,,,5,,,67,0
5184,note_on,2,0,5,,,,,,,,,6,,,73,60
5184,note_on,2,0,6,,,,,,,,,5,,,70,60
5184,note_on,2,0,7,,,,,,,,,7,,,54,60
5184,note_on,0,0,7,,,,,,,,,7,,,61,60
5278,note_on,94,0,5,,,,,,,,,6,,,73,0
5278,note_on,94,0,7,,,,,,,,,7,,,54,0
5278,note_on,0,0,7,,,,,,,,,7,,,61,0
5278,note_on,94,0,6,,,,,,,,,5,,,70,0
5280,note_on,2,0,6,,,,,,,,,5,,,70,60
5280,note_on,2,0,7,,,,,,,,,7,,,54,60
5280,note_on,2,0,5,,,,,,,,,6,,,82,60
5374,note_on,94,0,7,,,,,,,,,7,,,54,0
5374,note_on,94,0,6,,,,,,,,,5,,,70,0
5374,note_on,94,0,5,,,,,,,,,6,,,82,0
5376,note_on,0,0,7,,,,,,,,,7,,,54,60
5376,note_on,2,0,7,,,,,,,,,7,,,47,60
5376,note_on,2,0,6,,,,,,,,,5,,,74,60
5376,note_on,2,0,5,,,,,,,,,6,,,83,60
5470,note_on,94,0,7,,,,,,,,,7,,,47,0
5472,note_on,2,0,7,,,,,,,,,7,,,47,60
5536,note_on,160,0,5,,,,,,,,,6,,,83,0
5536,note_on,64,0,7,,,,,,,,,7,,,54,0
5536,note_on,160,0,6,,,,,,,,,5,,,74,0
5566,note_on,30,0,7,,,,,,,,,7,,,47,0
5568,note_on,32,0,5,,,,,,,,,6,,,78,60
5568,note_on,2,0,7,,,,,,,,,7,,,47,60
5568,note_on,0,0,7,,,,,,,,,7,,,50,60
5568,note_on,0,0,7,,,,,,,,,7,,,54,60
5568,note_on,0,0,7,,,,,,,,,7,,,59,60
5568,note_on,5568,0,4,,,,,,,,,3,,,54,75
5662,note_on,94,0,7,,,,,,,,,7,,,47,0
5664,note_on,2,0,7,,,,,,,,,7,,,47,60
5728,note_on,160,0,5,,,,,,,,,6,,,78,0
5728,note_on,160,0,4,,,,,,,,,3,,,54,0
5758,note_on,94,0,7,,,,,,,,,7,,,47,0
5760,note_on,2,0,7,,,,,,,,,7,,,47,60
5760,note_on,32,0,4,,,,,,,,,3,,,54,75
5760,note_on,32,0,5,,,,,,,,,6,,,74,60
5854,note_on,94,0,7,,,,,,,,,7,,,47,0
5856,note_on,2,0,7,,,,,,,,,7,,,47,60
5904,note_on,48,0,7,,,,,,,,,7,,,50,0
5904,note_on,0,0,7,,,,,,,,,7,,,54,0
5904,note_on,0,0,7,,,,,,,,,7,,,59,0
5920,note_on,160,0,4,,,,,,,,,3,,,54,0
5920,note_on,160,0,5,,,,,,,,,6,,,74,0
5950,note_on,46,0,7,,,,,,,,,7,,,47,0
5952,note_on,32,0,4,,,,,,,,,3,,,55,75
5952,note_on,416,0,6,,,,,,,,,5,,,83,60
5952,note_on,0,0,7,,,,,,,,,7,,,59,60
5952,note_on,0,0,7,,,,,,,,,7,,,55,60
5952,note_on,32,0,5,,,,,,,,,6,,,71,60
5952,note_on,2,0,7,,,,,,,,,7,,,52,60
6046,note_on,94,0,7,,,,,,,,,7,,,52,0
6048,note_on,2,0,7,,,,,,,,,7,,,52,60
6112,note_on,160,0,5,,,,,,,,,6,,,71,0
6112,note_on,160,0,6,,,,,,,,,5,,,83,0
6142,note_on,94,0,7,,,,,,,,,7,,,52,0
6144,note_on,32,0,6,,,,,,,,,5,,,79,60
6144,note_on,6144,0,3,,,,,,,,,2,,,59,75
6144,note_on,2,0,7,,,,,,,,,7,,,52,60
6238,note_on,94,0,7,,,,,,,,,7,,,52,0
6240,note_on,2,0,7,,,,,,,,,7,,,52,60
6304,note_on,160,0,3,,,,,,,,,2,,,59,0
6304,note_on,160,0,6,,,,,,,,,5,,,79,0
6334,note_on,94,0,7,,,,,,,,,7,,,52,0
6336,note_on,32,0,3,,,,,,,,,2,,,59,75
6336,note_on,32,0,6,,,,,,,,,5,,,76,60
6336,note_on,2,0,7,,,,,,,,,7,,,52,60
6430,note_on,94,0,7,,,,,,,,,7,,,52,0
6432,note_on,2,0,7,,,,,,,,,7,,,52,60
6480,note_on,0,0,7,,,,,,,,,7,,,59,0
6480,note_on,48,0,7,,,,,,,,,7,,,55,0
6496,note_on,160,0,6,,,,,,,,,5,,,76,0
6496,note_on,160,0,3,,,,,,,,,2,,,59,0
6526,note_on,46,0,7,,,,,,,,,7,,,52,0
6528,note_on,32,0,6,,,,,,,,,5,,,72,60
6528,note_on,0,0,7,,,,,,,,,7,,,60,60
6528,note_on,0,0,7,,,,,,,,,7,,,55,60
6528,note_on,32,0,3,,,,,,,,,2,,,60,75
6528,note_on,2,0,7,,,,,,,,,7,,,52,60
6622,note_on,94,0,7,,,,,,,,,7,,,52,0
6624,note_on,512,0,5,,,,,,,,,6,,,67,60
6624,note_on,2,0,7,,,,,,,,,7,,,52,60
6688,note_on,160,0,6,,,,,,,,,5,,,72,0
6718,note_on,94,0,7,,,,,,,,,7,,,52,0
6718,note_on,94,0,5,,,,,,,,,6,,,67,0
6720,note_on,2,0,5,,,,,,,,,6,,,72,60
6720,note_on,2,0,7,,,,,,,,,7,,,52,60
6814,note_on,94,0,7,,,,,,,,,7,,,52,0
6814,note_on,94,0,5,,,,,,,,,6,,,72,0
6816,note_on,2,0,5,,,,,,,,,6,,,76,60
6816,note_on,2,0,7,,,,,,,,,7,,,52,60
6864,note_on,336,0,3,,,,,,,,,2,,,60,0
6864,note_on,912,0,4,,,,,,,,,3,,,55,0
6910,note_on,94,0,5,,,,,,,,,6,,,76,0
6910,note_on,94,0,7,,,,,,,,,7,,,52,0
6912,note_on,48,0,4,,,,,,,,,3,,,55,75
6912,note_on,2,0,7,,,,,,,,,7,,,52,60
6912,note_on,224,0,6,,,,,,,,,5,,,72,60
6912,note_on,2,0,5,,,,,,,,,6,,,79,60
6912,note_on,48,0,3,,,,,,,,,2,,,59,75
7006,note_on,94,0,5,,,,,,,,,6,,,79,0
7006,note_on,94,0,6,,,,,,,,,5,,,72,0
7006,note_on,94,0,7,,,,,,,,,7,,,52,0
7008,note_on,2,0,6,,,,,,,,,5,,,71,60
7008,note_on,2,0,7,,,,,,,,,7,,,52,60
7008,note_on,2,0,5,,,,,,,,,6,,,83,60
7056,note_on,48,0,7,,,,,,,,,7,,,60,0
7072,note_on,160,0,3,,,,,,,,,2,,,59,0
7072,note_on,160,0,4,,,,,,,,,3,,,55,0
7102,note_on,94,0,5,,,,,,,,,6,,,83,0
7102,note_on,94,0,6,,,,,,,,,5,,,71,0
7102,note_on,46,0,7,,,,,,,,,7,,,52,0
7104,note_on,2,0,7,,,,,,,,,7,,,42,60
7104,note_on,32,0,4,,,,,,,,,3,,,55,75
7104,note_on,2,0,5,,,,,,,,,6,,,73,60
7104,note_on,32,0,3,,,,,,,,,2,,,58,75
7104,note_on,2,0,6,,,,,,,,,5,,,70,60
7198,note_on,94,0,7,,,,,,,,,7,,,42,0
7200,note_on,96,0,6,,,,,,,,,5,,,66,60
7200,note_on,2,0,7,,,,,,,,,7,,,42,60
7264,note_on,64,0,7,,,,,,,,,7,,,55,0
7264,note_on,160,0,5,,,,,,,,,6,,,73,0
7294,note_on,94,0,6,,,,,,,,,5,,,66,0
7294,note_on,0,0,6,,,,,,,,,5,,,70,0
7294,note_on,30,0,7,,,,,,,,,7,,,42,0
7296,note_on,2,0,6,,,,,,,,,5,,,70,60
7296,note_on,0,0,4,,,,,,,,,3,,,54,75
7296,note_on,0,0,7,,,,,,,,,7,,,49,60
7296,note_on,0,0,7,,,,,,,,,7,,,54,60
7296,note_on,192,0,4,,,,,,,,,3,,,55,0
7296,note_on,2,0,7,,,,,,,,,7,,,42,60
7390,note_on,94,0,7,,,,,,,,,7,,,42,0
7390,note_on,94,0,6,,,,,,,,,5,,,70,0
7392,note_on,2,0,6,,,,,,,,,5,,,73,60
7392,note_on,2,0,7,,,,,,,,,7,,,42,60
7440,note_on,336,0,3,,,,,,,,,2,,,58,0
7456,note_on,64,0,7,,,,,,,,,7,,,54,0
7456,note_on,160,0,4,,,,,,,,,3,,,54,0
7486,note_on,30,0,7,,,,,,,,,7,,,42,0
7486,note_on,94,0,6,,,,,,,,,5,,,73,0
7488,note_on,48,0,3,,,,,,,,,2,,,58,75
7488,note_on,0,0,7,,,,,,,,,7,,,52,60
7488,note_on,32,0,4,,,,,,,,,3,,,52,75
7488,note_on,2,0,7,,,,,,,,,7,,,42,60
7488,note_on,2,0,6,,,,,,,,,5,,,78,60
7582,note_on,94,0,7,,,,,,,,,7,,,42,0
7582,note_on,94,0,6,,,,,,,,,5,,,78,0
7584,note_on,2,0,6,,,,,,,,,5,,,70,60
7584,note_on,2,0,7,,,,,,,,,7,,,42,60
7648,note_on,160,0,3,,,,,,,,,2,,,58,0
7648,note_on,64,0,7,,,,,,,,,7,,,49,0
7648,note_on,0,0,7,,,,,,,,,7,,,52,0
7648,note_on,160,0,4,,,,,,,,,3,,,52,0
7678,note_on,94,0,6,,,,,,,,,5,,,70,0
7678,note_on,30,0,7,,,,,,,,,7,,,42,0
7680,note_on,2,0,6,,,,,,,,,5,,,78,60
7680,note_on,0,0,7,,,,,,,,,7,,,50,60
7680,note_on,2,0,7,,,,,,,,,7,,,47,60
7680,note_on,32,0,3,,,,,,,,,2,,,59,75
7680,note_on,416,0,5,,,,,,,,,6,,,83,60
7680,note_on,32,0,4,,,,,,,,,3,,,50,75
7774,note_on,94,0,7,,,,,,,,,7,,,47,0
7776,note_on,2,0,7,,,,,,,,,7,,,47,60
7840,note_on,160,0,5,,,,,,,,,6,,,83,0
7840,note_on,160,0,6,,,,,,,,,5,,,78,0
7840,note_on,64,0,7,,,,,,,,,7,,,50,0
7870,note_on,30,0,7,,,,,,,,,7,,,47,0
7872,note_on,0,0,7,,,,,,,,,7,,,50,60
7872,note_on,7872,0,2,,,,,,,,,1,,,66,75
7872,note_on,0,0,7,,,,,,,,,7,,,59,60
7872,note_on,2,0,7,,,,,,,,,7,,,47,60
7872,note_on,32,0,5,,,,,,,,,6,,,78,60
7872,note_on,0,0,7,,,,,,,,,7,,,54,60
7936,note_on,256,0,4,,,,,,,,,3,,,50,0
7936,note_on,256,0,3,,,,,,,,,2,,,59,0
7966,note_on,94,0,7,,,,,,,,,7,,,47,0
7968,note_on,32,0,3,,,,,,,,,2,,,59,75
7968,note_on,32,0,4,,,,,,,,,3,,,49,75
7968,note_on,2,0,7,,,,,,,,,7,,,47,60
8032,note_on,160,0,5,,,,,,,,,6,,,78,0
8032,note_on,160,0,2,,,,,,,,,1,,,66,0
8062,note_on,94,0,4,,,,,,,,,3,,,49,0
8062,note_on,94,0,7,,,,,,,,,7,,,47,0
8062,note_on,94,0,3,,,,,,,,,2,,,59,0
8064,note_on,32,0,5,,,,,,,,,6,,,74,60
8064,note_on,2,0,3,,,,,,,,,2,,,59,75
8064,note_on,32,0,2,,,,,,,,,1,,,66,75
8064,note_on,2,0,7,,,,,,,,,7,,,47,60
8064,note_on,2,0,4,,,,,,,,,3,,,47,75
8158,note_on,94,0,7,,,,,,,,,7,,,47,0
8160,note_on,2,0,7,,,,,,,,,7,,,47,60
8208,note_on,48,0,7,,,,,,,,,7,,,50,0
8208,note_on,0,0,7,,,,,,,,,7,,,54,0
8208,note_on,0,0,7,,,,,,,,,7,,,59,0
8224,note_on,160,0,4,,,,,,,,,3,,,47,0
8224,note_on,160,0,5,,,,,,,,,6,,,74,0
8224,note_on,160,0,3,,,,,,,,,2,,,59,0
8224,note_on,160,0,2,,,,,,,,,1,,,66,0
8254,note_on,46,0,7,,,,,,,,,7,,,47,0
8256,note_on,416,0,6,,,,,,,,,5,,,83,60
8256,note_on,0,0,7,,,,,,,,,7,,,59,60
8256,note_on,0,0,7,,,,,,,,,7,,,55,60
8256,note_on,2,0,7,,,,,,,,,7,,,52,60
8256,note_on,32,0,2,,,,,,,,,1,,,67,75
8256,note_on,32,0,5,,,,,,,,,6,,,71,60
8350,note_on,94,0,7,,,,,,,,,7,,,52,0
8352,note_on,2,0,7,,,,,,,,,7,,,52,60
8416,note_on,160,0,6,,,,,,,,,5,,,83,0
8416,note_on,160,0,5,,,,,,,,,6,,,71,0
8446,note_on,94,0,7,,,,,,,,,7,,,52,0
8448,note_on,8448,0,1,,,,,,,,,0,,,71,75
8448,note_on,2,0,7,,,,,,,,,7,,,52,60
8448,note_on,32,0,6,,,,,,,,,5,,,79,60
8542,note_on,94,0,7,,,,,,,,,7,,,52,0
8544,note_on,2,0,7,,,,,,,,,7,,,52,60
8608,note_on,160,0,1,,,,,,,,,0,,,71,0
8608,note_on,160,0,6,,,,,,,,,5,,,79,0
8638,note_on,94,0,7,,,,,,,,,7,,,52,0
8640,note_on,32,0,1,,,,,,,,,0,,,71,75
8640,note_on,32,0,6,,,,,,,,,5,,,76,60
8640,note_on,2,0,7,,,,,,,,,7,,,52,60
8734,note_on,94,0,7,,,,,,,,,7,,,52,0
8736,note_on,2,0,7,,,,,,,,,7,,,52,60
8784,note_on,0,0,7,,,,,,,,,7,,,59,0
8784,note_on,48,0,7,,,,,,,,,7,,,55,0
8800,note_on,160,0,1,,,,,,,,,0,,,71,0
8800,note_on,160,0,6,,,,,,,,,5,,,76,0
8830,note_on,46,0,7,,,,,,,,,7,,,52,0
8832,note_on,0,0,7,,,,,,,,,7,,,60,60
8832,note_on,0,0,7,,,,,,,,,7,,,55,60
8832,note_on,2,0,7,,,,,,,,,7,,,52,60
8832,note_on,32,0,1,,,,,,,,,0,,,72,75
8832,note_on,32,0,6,,,,,,,,,5,,,72,60
8926,note_on,94,0,7,,,,,,,,,7,,,52,0
8928,note_on,2,0,7,,,,,,,,,7,,,52,60
8928,note_on,512,0,5,,,,,,,,,6,,,67,60
8992,note_on,160,0,6,,,,,,,,,5,,,72,0
9022,note_on,94,0,7,,,,,,,,,7,,,52,0
9022,note_on,94,0,5,,,,,,,,,6,,,67,0
9024,note_on,2,0,5,,,,,,,,,6,,,72,60
9024,note_on,800,0,4,,,,,,,,,3,,,52,75
9024,note_on,2,0,7,,,,,,,,,7,,,52,60
9118,note_on,94,0,7,,,,,,,,,7,,,52,0
9118,note_on,94,0,5,,,,,,,,,6,,,72,0
9120,note_on,2,0,7,,,,,,,,,7,,,52,60
9120,note_on,2,0,5,,,,,,,,,6,,,76,60
9168,note_on,912,0,2,,,,,,,,,1,,,67,0
9168,note_on,336,0,1,,,,,,,,,0,,,72,0
9184,note_on,160,0,4,,,,,,,,,3,,,52,0
9214,note_on,94,0,7,,,,,,,,,7,,,52,0
9214,note_on,94,0,5,,,,,,,,,6,,,76,0
9216,note_on,224,0,6,,,,,,,,,5,,,72,60
9216,note_on,32,0,4,,,,,,,,,3,,,52,75
9216,note_on,48,0,1,,,,,,,,,0,,,71,75
9216,note_on,2,0,5,,,,,,,,,6,,,79,60
9216,note_on,48,0,2,,,,,,,,,1,,,67,75
9216,note_on,2,0,7,,,,,,,,,7,,,52,60
9310,note_on,94,0,6,,,,,,,,,5,,,72,0
9310,note_on,94,0,7,,,,,,,,,7,,,52,0
9310,note_on,94,0,5,,,,,,,,,6,,,79,0
9312,note_on,2,0,7,,,,,,,,,7,,,52,60
9312,note_on,2,0,6,,,,,,,,,5,,,71,60
9312,note_on,2,0,5,,,,,,,,,6,,,83,60
9360,note_on,0,0,7,,,,,,,,,7,,,60,0
9360,note_on,48,0,7,,,,,,,,,7,,,55,0
9376,note_on,160,0,4,,,,,,,,,3,,,52,0
9376,note_on,160,0,1,,,,,,,,,0,,,71,0
9376,note_on,160,0,2,,,,,,,,,1,,,67,0
9406,note_on,94,0,6,,,,,,,,,5,,,71,0
9406,note_on,46,0,7,,,,,,,,,7,,,52,0
9406,note_on,94,0,5,,,,,,,,,6,,,83,0
9408,note_on,0,0,6,,,,,,,,,5,,,70,60
9408,note_on,2,0,6,,,,,,,,,5,,,67,60
9408,note_on,2,0,7,,,,,,,,,7,,,54,60
9408,note_on,32,0,2,,,,,,,,,1,,,67,75
9408,note_on,32,0,4,,,,,,,,,3,,,54,75
9408,note_on,32,0,1,,,,,,,,,0,,,70,75
9408,note_on,2,0,5,,,,,,,,,6,,,73,60
9502,note_on,94,0,7,,,,,,,,,7,,,54,0
9504,note_on,96,0,6,,,,,,,,,5,,,66,60
9504,note_on,2,0,7,,,,,,,,,7,,,54,60
9568,note_on,160,0,5,,,,,,,,,6,,,73,0
9598,note_on,94,0,7,,,,,,,,,7,,,54,0
9598,note_on,0,0,6,,,,,,,,,5,,,67,0
9598,note_on,94,0,6,,,,,,,,,5,,,66,0
9598,note_on,0,0,6,,,,,,,,,5,,,70,0
9600,note_on,0,0,7,,,,,,,,,7,,,61,60
9600,note_on,2,0,7,,,,,,,,,7,,,54,60
9600,note_on,2,0,6,,,,,,,,,5,,,70,60
9600,note_on,1376,0,3,,,,,,,,,2,,,61,75
9600,note_on,0,0,2,,,,,,,,,1,,,66,75
9600,note_on,192,0,2,,,,,,,,,1,,,67,0
9694,note_on,94,0,6,,,,,,,,,5,,,70,0
9694,note_on,94,0,7,,,,,,,,,7,,,54,0
9696,note_on,2,0,6,,,,,,,,,5,,,73,60
9696,note_on,2,0,7,,,,,,,,,7,,,54,60
9744,note_on,336,0,4,,,,,,,,,3,,,54,0
9744,note_on,336,0,1,,,,,,,,,0,,,70,0
9760,note_on,160,0,3,,,,,,,,,2,,,61,0
9760,note_on,160,0,2,,,,,,,,,1,,,66,0
9790,note_on,94,0,6,,,,,,,,,5,,,73,0
9790,note_on,94,0,7,,,,,,,,,7,,,54,0
9792,note_on,0,0,7,,,,,,,,,7,,,64,60
9792,note_on,2,0,7,,,,,,,,,7,,,54,60
9792,note_on,32,0,2,,,,,,,,,1,,,64,75
9792,note_on,48,0,1,,,,,,,,,0,,,70,75
9792,note_on,48,0,4,,,,,,,,,3,,,54,75
9792,note_on,32,0,3,,,,,,,,,2,,,61,75
9792,note_on,2,0,6,,,,,,,,,5,,,78,60
9886,note_on,94,0,6,,,,,,,,,5,,,78,0
9886,note_on,94,0,7,,,,,,,,,7,,,54,0
9888,note_on,2,0,7,,,,,,,,,7,,,54,60
9888,note_on,2,0,6,,,,,,,,,5,,,70,60
9952,note_on,0,0,7,,,,,,,,,7,,,64,0
9952,note_on,160,0,2,,,,,,,,,1,,,64,0
9952,note_on,160,0,1,,,,,,,,,0,,,70,0
9952,note_on,160,0,3,,,,,,,,,2,,,61,0
9952,note_on,64,0,7,,,,,,,,,7,,,61,0
9952,note_on,160,0,4,,,,,,,,,3,,,54,0
9982,note_on,94,0,6,,,,,,,,,5,,,70,0
9982,note_on,30,0,7,,,,,,,,,7,,,54,0
9984,note_on,32,0,4,,,,,,,,,3,,,47,75
9984,note_on,32,0,1,,,,,,,,,0,,,71,75
9984,note_on,0,0,7,,,,,,,,,7,,,62,60
9984,note_on,2,0,7,,,,,,,,,7,,,47,60
9984,note_on,2,0,6,,,,,,,,,5,,,66,60
9984,note_on,32,0,2,,,,,,,,,1,,,62,75
9984,note_on,32,0,3,,,,,,,,,2,,,62,75
10078,note_on,94,0,7,,,,,,,,,7,,,47,0
10080,note_on,512,0,5,,,,,,,,,6,,,71,60
10080,note_on,2,0,7,,,,,,,,,7,,,47,60
10144,note_on,64,0,7,,,,,,,,,7,,,62,0
10144,note_on,160,0,6,,,,,,,,,5,,,66,0
10174,note_on,94,0,5,,,,,,,,,6,,,71,0
10174,note_on,30,0,7,,,,,,,,,7,,,47,0
10176,note_on,0,0,7,,,,,,,,,7,,,50,60
10176,note_on,0,0,7,,,,,,,,,7,,,54,60
10176,note_on,2,0,5,,,,,,,,,6,,,74,60
10176,note_on,2,0,7,,,,,,,,,7,,,47,60
10240,note_on,256,0,2,,,,,,,,,1,,,62,0
10240,note_on,256,0,1,,,,,,,,,0,,,71,0
10270,note_on,94,0,5,,,,,,,,,6,,,74,0
10270,note_on,94,0,7,,,,,,,,,7,,,47,0
10272,note_on,2,0,5,,,,,,,,,6,,,78,60
10272,note_on,32,0,2,,,,,,,,,1,,,61,75
10272,note_on,32,0,1,,,,,,,,,0,,,71,75
10272,note_on,2,0,7,,,,,,,,,7,,,47,60
10320,note_on,336,0,4,,,,,,,,,3,,,47,0
10366,note_on,94,0,2,,,,,,,,,1,,,61,0
10366,note_on,94,0,5,,,,,,,,,6,,,78,0
10366,note_on,94,0,7,,,,,,,,,7,,,47,0
10366,note_on,94,0,1,,,,,,,,,0,,,71,0
10368,note_on,2,0,7,,,,,,,,,7,,,47,60
10368,note_on,2,0,2,,,,,,,,,1,,,59,75
10368,note_on,2,0,5,,,,,,,,,6,,,83,60
10368,note_on,48,0,4,,,,,,,,,3,,,47,75
10368,note_on,2,0,1,,,,,,,,,0,,,71,75
10462,note_on,94,0,7,,,,,,,,,7,,,47,0
10462,note_on,94,0,5,,,,,,,,,6,,,83,0
10464,note_on,2,0,7,,,,,,,,,7,,,47,60
10464,note_on,2,0,5,,,,,,,,,6,,,78,60
10512,note_on,528,0,3,,,,,,,,,2,,,62,0
10512,note_on,0,0,7,,,,,,,,,7,,,54,0
10512,note_on,48,0,7,,,,,,,,,7,,,50,0
10528,note_on,160,0,4,,,,,,,,,3,,,47,0
10528,note_on,160,0,1,,,,,,,,,0,,,71,0
10528,note_on,160,0,2,,,,,,,,,1,,,59,0
10558,note_on,46,0,7,,,,,,,,,7,,,47,0
10558,note_on,94,0,5,,,,,,,,,6,,,78,0
10560,note_on,0,0,7,,,,,,,,,7,,,54,75
10560,note_on,2,0,7,,,,,,,,,7,,,45,75
10560,note_on,32,0,4,,,,,,,,,3,,,47,75
10560,note_on,2,0,5,,,,,,,,,6,,,75,75
10560,note_on,48,0,3,,,,,,,,,2,,,63,92
10654,note_on,94,0,7,,,,,,,,,7,,,45,0
10656,note_on,512,0,6,,,,,,,,,5,,,71,75
10656,note_on,2,0,7,,,,,,,,,7,,,45,75
10720,note_on,160,0,5,,,,,,,,,6,,,75,0
10750,note_on,94,0,6,,,,,,,,,5,,,71,0
10750,note_on,94,0,7,,,,,,,,,7,,,45,0
10752,note_on,2,0,7,,,,,,,,,7,,,45,75
10752,note_on,32,0,5,,,,,,,,,6,,,75,75
10752,note_on,224,0,2,,,,,,,,,1,,,66,92
10752,note_on,2,0,6,,,,,,,,,5,,,75,75
10846,note_on,94,0,6,,,,,,,,,5,,,75,0
10846,note_on,94,0,7,,,,,,,,,7,,,45,0
10848,note_on,2,0,7,,,,,,,,,7,,,45,75
10848,note_on,2,0,6,,,,,,,,,5,,,78,75
10896,note_on,336,0,4,,,,,,,,,3,,,47,0
10912,note_on,160,0,2,,,,,,,,,1,,,66,0
10942,note_on,94,0,7,,,,,,,,,7,,,45,0
10942,note_on,94,0,6,,,,,,,,,5,,,78,0
10944,note_on,2,0,7,,,,,,,,,7,,,45,75
10944,note_on,2,0,6,,,,,,,,,5,,,83,75
10944,note_on,48,0,4,,,,,,,,,3,,,47,75
10944,note_on,32,0,2,,,,,,,,,1,,,66,92
11038,note_on,94,0,6,,,,,,,,,5,,,83,0
11038,note_on,94,0,7,,,,,,,,,7,,,45,0
11040,note_on,2,0,6,,,,,,,,,5,,,78,75
11040,note_on,2,0,7,,,,,,,,,7,,,45,75
11088,note_on,48,0,7,,,,,,,,,7,,,54,0
11088,note_on,336,0,5,,,,,,,,,6,,,75,0
11088,note_on,528,0,3,,,,,,,,,2,,,63,0
11104,note_on,160,0,4,,,,,,,,,3,,,47,0
11104,note_on,160,0,2,,,,,,,,,1,,,66,0
11134,note_on,94,0,6,,,,,,,,,5,,,78,0
11134,note_on,46,0,7,,,,,,,,,7,,,45,0
11136,note_on,2,0,6,,,,,,,,,5,,,71,75
11136,note_on,32,0,4,,,,,,,,,3,,,47,75
11136,note_on,48,0,3,,,,,,,,,2,,,64,92
11136,note_on,32,0,2,,,,,,,,,1,,,67,92
11136,note_on,2,0,7,,,,,,,,,7,,,43,75
11136,note_on,0,0,7,,,,,,,,,7,,,52,75
11184,note_on,96,0,5,,,,,,,,,6,,,79,75
11230,note_on,94,0,7,,,,,,,,,7,,,43,0
11230,note_on,46,0,5,,,,,,,,,6,,,79,0
11230,note_on,94,0,6,,,,,,,,,5,,,71,0
11232,note_on,2,0,7,,,,,,,,,7,,,43,75
11232,note_on,2,0,5,,,,,,,,,6,,,79,75
11232,note_on,2,0,6,,,,,,,,,5,,,71,75
11278,note_on,46,0,5,,,,,,,,,6,,,79,0
11280,note_on,2,0,5,,,,,,,,,6,,,79,75
11326,note_on,46,0,5,,,,,,,,,6,,,79,0
11326,note_on,94,0,7,,,,,,,,,7,,,43,0
11326,note_on,94,0,6,,,,,,,,,5,,,71,0
11328,note_on,800,0,1,,,,,,,,,0,,,71,92
11328,note_on,2,0,6,,,,,,,,,5,,,76,75
11328,note_on,2,0,7,,,,,,,,,7,,,43,75
11328,note_on,2,0,5,,,,,,,,,6,,,83,75
11374,note_on,46,0,5,,,,,,,,,6,,,83,0
11376,note_on,2,0,5,,,,,,,,,6,,,79,75
11422,note_on,94,0,6,,,,,,,,,5,,,76,0
11422,note_on,94,0,7,,,,,,,,,7,,,43,0
11422,note_on,46,0,5,,,,,,,,,6,,,79,0
11424,note_on,2,0,7,,,,,,,,,7,,,43,75
11424,note_on,2,0,6,,,,,,,,,5,,,76,75
11424,note_on,2,0,5,,,,,,,,,6,,,79,75
11470,note_on,46,0,5,,,,,,,,,6,,,79,0
11472,note_on,336,0,4,,,,,,,,,3,,,47,0
11472,note_on,2,0,5,,,,,,,,,6,,,79,75
11488,note_on,160,0,1,,,,,,,,,0,,,71,0
11518,note_on,46,0,5,,,,,,,,,6,,,79,0
11518,note_on,94,0,6,,,,,,,,,5,,,76,0
11518,note_on,94,0,7,,,,,,,,,7,,,43,0
11520,note_on,32,0,1,,,,,,,,,0,,,71,92
11520,note_on,2,0,5,,,,,,,,,6,,,83,75
11520,note_on,2,0,6,,,,,,,,,5,,,76,75
11520,note_on,2,0,7,,,,,,,,,7,,,43,75
11566,note_on,46,0,5,,,,,,,,,6,,,83,0
11568,note_on,2,0,5,,,,,,,,,6,,,79,75
11614,note_on,94,0,7,,,,,,,,,7,,,43,0
11614,note_on,94,0,6,,,,,,,,,5,,,76,0
11614,note_on,46,0,5,,,,,,,,,6,,,79,0
11616,note_on,2,0,6,,,,,,,,,5,,,76,75
11616,note_on,2,0,5,,,,,,,,,6,,,79,75
11616,note_on,2,0,7,,,,,,,,,7,,,43,75
11662,note_on,46,0,5,,,,,,,,,6,,,79,0
11664,note_on,2,0,5,,,,,,,,,6,,,79,75
11664,note_on,528,0,3,,,,,,,,,2,,,64,0
11664,note_on,48,0,7,,,,,,,,,7,,,52,0
11664,note_on,528,0,2,,,,,,,,,1,,,67,0
11680,note_on,160,0,1,,,,,,,,,0,,,71,0
11710,note_on,46,0,7,,,,,,,,,7,,,43,0
11710,note_on,94,0,6,,,,,,,,,5,,,76,0
11710,note_on,46,0,5,,,,,,,,,6,,,79,0
11712,note_on,48,0,3,,,,,,,,,2,,,65,92
11712,note_on,2,0,6,,,,,,,,,5,,,77,75
11712,note_on,0,0,6,,,,,,,,,5,,,83,75
11712,note_on,48,0,2,,,,,,,,,1,,,68,92
11712,note_on,2,0,7,,,,,,,,,7,,,49,75
11712,note_on,32,0,1,,,,,,,,,0,,,71,92
11760,note_on,50,0,5,,,,,,,,,6,,,80,75
11806,note_on,46,0,5,,,,,,,,,6,,,80,0
11806,note_on,94,0,6,,,,,,,,,5,,,77,0
11806,note_on,0,0,6,,,,,,,,,5,,,83,0
11808,note_on,2,0,6,,,,,,,,,5,,,77,75
11808,note_on,2,0,5,,,,,,,,,6,,,80,75
11854,note_on,46,0,5,,,,,,,,,6,,,80,0
11856,note_on,2,0,5,,,,,,,,,6,,,80,75
11872,note_on,160,0,1,,,,,,,,,0,,,71,0
11902,note_on,190,0,7,,,,,,,,,7,,,49,0
11902,note_on,46,0,5,,,,,,,,,6,,,80,0
11902,note_on,94,0,6,,,,,,,,,5,,,77,0
11904,note_on,32,0,1,,,,,,,,,0,,,71,92
11904,note_on,2,0,5,,,,,,,,,6,,,83,75
11904,note_on,0,0,7,,,,,,,,,7,,,61,75
11904,note_on,2,0,6,,,,,,,,,5,,,77,75
11904,note_on,2,0,7,,,,,,,,,7,,,49,75
11950,note_on,46,0,5,,,,,,,,,6,,,83,0
11952,note_on,2,0,5,,,,,,,,,6,,,80,75
11998,note_on,94,0,7,,,,,,,,,7,,,49,0
11998,note_on,94,0,6,,,,,,,,,5,,,77,0
11998,note_on,46,0,5,,,,,,,,,6,,,80,0
12000,note_on,2,0,5,,,,,,,,,6,,,80,75
12000,note_on,2,0,7,,,,,,,,,7,,,49,75
12000,note_on,2,0,6,,,,,,,,,5,,,77,75
12046,note_on,46,0,5,,,,,,,,,6,,,80,0
12048,note_on,2,0,5,,,,,,,,,6,,,80,75
12064,note_on,160,0,1,,,,,,,,,0,,,71,0
12094,note_on,94,0,6,,,,,,,,,5,,,77,0
12094,note_on,94,0,7,,,,,,,,,7,,,49,0
12094,note_on,46,0,5,,,,,,,,,6,,,80,0
12096,note_on,2,0,5,,,,,,,,,6,,,83,75
12096,note_on,32,0,1,,,,,,,,,0,,,71,92
12096,note_on,2,0,6,,,,,,,,,5,,,77,75
12096,note_on,2,0,7,,,,,,,,,7,,,49,75
12142,note_on,46,0,5,,,,,,,,,6,,,83,0
12144,note_on,2,0,5,,,,,,,,,6,,,80,75
12190,note_on,94,0,6,,,,,,,,,5,,,77,0
12190,note_on,94,0,1,,,,,,,,,0,,,71,0
12190,note_on,94,0,7,,,,,,,,,7,,,49,0
12190,note_on,46,0,5,,,,,,,,,6,,,80,0
12192,note_on,2,0,7,,,,,,,,,7,,,49,75
12192,note_on,2,0,5,,,,,,,,,6,,,80,75
12192,note_on,2,0,1,,,,,,,,,0,,,71,92
12192,note_on,2,0,6,,,,,,,,,5,,,77,75
12238,note_on,46,0,5,,,,,,,,,6,,,80,0
12240,note_on,528,0,3,,,,,,,,,2,,,65,0
12240,note_on,48,0,7,,,,,,,,,7,,,61,0
12240,note_on,2,0,5,,,,,,,,,6,,,80,75
12240,note_on,528,0,2,,,,,,,,,1,,,68,0
12286,note_on,94,0,1,,,,,,,,,0,,,71,0
12286,note_on,46,0,5,,,,,,,,,6,,,80,0
12286,note_on,94,0,6,,,,,,,,,5,,,77,0
12286,note_on,46,0,7,,,,,,,,,7,,,49,0
12288,note_on,48,0,3,,,,,,,,,2,,,66,75
12288,note_on,2,0,1,,,,,,,,,0,,,69,75
12288,note_on,2,0,7,,,,,,,,,7,,,54,60
12288,note_on,48,0,2,,,,,,,,,1,,,69,75
12288,note_on,0,0,7,,,,,,,,,7,,,57,60
12288,note_on,2,0,5,,,,,,,,,6,,,78,75
12288,note_on,2,0,6,,,,,,,,,5,,,78,60
12288,note_on,0,0,7,,,,,,,,,7,,,61,60
12382,note_on,94,0,7,,,,,,,,,7,,,54,0
12382,note_on,94,0,6,,,,,,,,,5,,,78,0
12384,note_on,2,0,6,,,,,,,,,5,,,66,60
12384,note_on,2,0,7,,,,,,,,,7,,,54,60
12430,note_on,142,0,1,,,,,,,,,0,,,69,0
12432,note_on,2,0,1,,,,,,,,,0,,,71,75
12448,note_on,0,0,7,,,,,,,,,7,,,61,0
12448,note_on,64,0,7,,,,,,,,,7,,,57,0
12448,note_on,160,0,5,,,,,,,,,6,,,78,0
12448,note_on,160,0,3,,,,,,,,,2,,,66,0
12478,note_on,46,0,1,,,,,,,,,0,,,71,0
12478,note_on,94,0,6,,,,,,,,,5,,,66,0
12478,note_on,30,0,7,,,,,,,,,7,,,54,0
12480,note_on,0,0,7,,,,,,,,,7,,,57,60
12480,note_on,2,0,6,,,,,,,,,5,,,66,60
12480,note_on,32,0,3,,,,,,,,,2,,,54,75
12480,note_on,32,0,5,,,,,,,,,6,,,73,75
12480,note_on,1008,0,4,,,,,,,,,3,,,54,92
12480,note_on,2,0,1,,,,,,,,,0,,,73,75
12480,note_on,2,0,7,,,,,,,,,7,,,54,60
12574,note_on,94,0,7,,,,,,,,,7,,,54,0
12574,note_on,94,0,6,,,,,,,,,5,,,66,0
12576,note_on,2,0,7,,,,,,,,,7,,,54,60
12576,note_on,2,0,6,,,,,,,,,5,,,66,60
12640,note_on,160,0,5,,,,,,,,,6,,,73,0
12640,note_on,160,0,4,,,,,,,,,3,,,54,0
12670,note_on,94,0,6,,,,,,,,,5,,,66,0
12670,note_on,94,0,7,,,,,,,,,7,,,54,0
12672,note_on,2,0,7,,,,,,,,,7,,,54,60
12672,note_on,32,0,5,,,,,,,,,6,,,69,75
12672,note_on,32,0,4,,,,,,,,,3,,,54,92
12672,note_on,2,0,6,,,,,,,,,5,,,61,60
12766,note_on,94,0,6,,,,,,,,,5,,,61,0
12766,note_on,94,0,7,,,,,,,,,7,,,54,0
12768,note_on,2,0,6,,,,,,,,,5,,,61,60
12768,note_on,2,0,7,,,,,,,,,7,,,54,60
12816,note_on,48,0,7,,,,,,,,,7,,,57,0
12816,note_on,336,0,1,,,,,,,,,0,,,73,0
12816,note_on,528,0,2,,,,,,,,,1,,,69,0
12816,note_on,336,0,3,,,,,,,,,2,,,54,0
12832,note_on,160,0,4,,,,,,,,,3,,,54,0
12832,note_on,160,0,5,,,,,,,,,6,,,69,0
12862,note_on,94,0,6,,,,,,,,,5,,,61,0
12862,note_on,46,0,7,,,,,,,,,7,,,54,0
12864,note_on,48,0,2,,,,,,,,,1,,,70,75
12864,note_on,32,0,4,,,,,,,,,3,,,54,92
12864,note_on,32,0,5,,,,,,,,,6,,,73,75
12864,note_on,0,0,5,,,,,,,,,6,,,78,75
12864,note_on,2,0,6,,,,,,,,,5,,,70,60
12864,note_on,2,0,7,,,,,,,,,7,,,54,60
12864,note_on,0,0,7,,,,,,,,,7,,,61,60
12958,note_on,94,0,7,,,,,,,,,7,,,54,0
12958,note_on,0,0,7,,,,,,,,,7,,,61,0
12960,note_on,0,0,7,,,,,,,,,7,,,61,60
12960,note_on,2,0,7,,,,,,,,,7,,,54,60
13024,note_on,0,0,5,,,,,,,,,6,,,78,0
13024,note_on,160,0,4,,,,,,,,,3,,,54,0
13024,note_on,160,0,5,,,,,,,,,6,,,73,0
13054,note_on,94,0,7,,,,,,,,,7,,,54,0
13054,note_on,0,0,7,,,,,,,,,7,,,61,0
13056,note_on,32,0,5,,,,,,,,,6,,,73,75
13056,note_on,240,0,1,,,,,,,,,0,,,73,75
13056,note_on,2,0,7,,,,,,,,,7,,,54,60
13056,note_on,0,0,7,,,,,,,,,7,,,61,60
13056,note_on,32,0,4,,,,,,,,,3,,,54,92
13150,note_on,94,0,7,,,,,,,,,7,,,54,0
13150,note_on,0,0,7,,,,,,,,,7,,,61,0
13152,note_on,2,0,7,,,,,,,,,7,,,54,60
13152,note_on,0,0,7,,,,,,,,,7,,,61,60
13200,note_on,336,0,6,,,,,,,,,5,,,70,0
13216,note_on,160,0,5,,,,,,,,,6,,,73,0
13216,note_on,160,0,4,,,,,,,,,3,,,54,0
13216,note_on,160,0,1,,,,,,,,,0,,,73,0
13246,note_on,94,0,7,,,,,,,,,7,,,54,0
13246,note_on,0,0,7,,,,,,,,,7,,,61,0
13248,note_on,2,0,7,,,,,,,,,7,,,52,60
13248,note_on,0,0,7,,,,,,,,,7,,,61,60
13248,note_on,32,0,5,,,,,,,,,6,,,70,75
13248,note_on,32,0,4,,,,,,,,,3,,,52,92
13248,note_on,32,0,1,,,,,,,,,0,,,73,75
13342,note_on,0,0,7,,,,,,,,,7,,,61,0
13342,note_on,94,0,4,,,,,,,,,3,,,52,0
13342,note_on,94,0,7,,,,,,,,,7,,,52,0
13344,note_on,0,0,7,,,,,,,,,7,,,61,60
13344,note_on,2,0,4,,,,,,,,,3,,,52,92
13344,note_on,2,0,7,,,,,,,,,7,,,52,60
13392,note_on,528,0,2,,,,,,,,,1,,,70,0
13408,note_on,160,0,1,,,,,,,,,0,,,73,0
13408,note_on,160,0,5,,,,,,,,,6,,,70,0
13438,note_on,0,0,7,,,,,,,,,7,,,61,0
13438,note_on,94,0,7,,,,,,,,,7,,,52,0
13438,note_on,94,0,4,,,,,,,,,3,,,52,0
13440,note_on,240,0,6,,,,,,,,,5,,,66,60
13440,note_on,0,0,7,,,,,,,,,7,,,59,60
13440,note_on,2,0,7,,,,,,,,,7,,,50,60
13440,note_on,32,0,1,,,,,,,,,0,,,74,75
13440,note_on,48,0,2,,,,,,,,,1,,,71,75
13440,note_on,2,0,4,,,,,,,,,3,,,50,92
13534,note_on,94,0,7,,,,,,,,,7,,,50,0
13534,note_on,0,0,7,,,,,,,,,7,,,59,0
13536,note_on,2,0,7,,,,,,,,,7,,,50,60
13536,note_on,0,0,7,,,,,,,,,7,,,59,60
13536,note_on,128,0,5,,,,,,,,,6,,,71,75
13600,note_on,160,0,6,,,,,,,,,5,,,66,0
13600,note_on,160,0,2,,,,,,,,,1,,,71,0
13630,note_on,94,0,5,,,,,,,,,6,,,71,0
13630,note_on,0,0,7,,,,,,,,,7,,,59,0
13630,note_on,94,0,7,,,,,,,,,7,,,50,0
13632,note_on,32,0,2,,,,,,,,,1,,,59,75
13632,note_on,32,0,6,,,,,,,,,5,,,71,60
13632,note_on,0,0,7,,,,,,,,,7,,,54,60
13632,note_on,2,0,7,,,,,,,,,7,,,50,60
13632,note_on,2,0,5,,,,,,,,,6,,,74,75
13696,note_on,256,0,4,,,,,,,,,3,,,50,0
13726,note_on,94,0,5,,,,,,,,,6,,,74,0
13726,note_on,94,0,7,,,,,,,,,7,,,50,0
13726,note_on,0,0,7,,,,,,,,,7,,,54,0
13728,note_on,32,0,4,,,,,,,,,3,,,49,92
13728,note_on,2,0,7,,,,,,,,,7,,,50,60
13728,note_on,2,0,5,,,,,,,,,6,,,78,75
13728,note_on,0,0,7,,,,,,,,,7,,,54,60
13792,note_on,160,0,6,,,,,,,,,5,,,71,0
13822,note_on,94,0,5,,,,,,,,,6,,,78,0
13822,note_on,94,0,7,,,,,,,,,7,,,50,0
13822,note_on,94,0,4,,,,,,,,,3,,,49,0
13822,note_on,0,0,7,,,,,,,,,7,,,54,0
13824,note_on,32,0,6,,,,,,,,,5,,,74,60
13824,note_on,2,0,4,,,,,,,,,3,,,47,92
13824,note_on,0,0,7,,,,,,,,,7,,,54,60
13824,note_on,2,0,7,,,,,,,,,7,,,47,60
13824,note_on,2,0,5,,,,,,,,,6,,,83,75
13918,note_on,94,0,7,,,,,,,,,7,,,47,0
13918,note_on,0,0,7,,,,,,,,,7,,,54,0
13918,note_on,94,0,5,,,,,,,,,6,,,83,0
13920,note_on,0,0,7,,,,,,,,,7,,,54,60
13920,note_on,2,0,5,,,,,,,,,6,,,78,75
13920,note_on,2,0,7,,,,,,,,,7,,,47,60
13968,note_on,336,0,2,,,,,,,,,1,,,59,0
13968,note_on,528,0,1,,,,,,,,,0,,,74,0
13984,note_on,160,0,6,,,,,,,,,5,,,74,0
13984,note_on,160,0,4,,,,,,,,,3,,,47,0
14014,note_on,94,0,5,,,,,,,,,6,,,78,0
14014,note_on,0,0,7,,,,,,,,,7,,,54,0
14014,note_on,94,0,7,,,,,,,,,7,,,47,0
14016,note_on,0,0,7,,,,,,,,,7,,,54,75
14016,note_on,48,0,1,,,,,,,,,0,,,75,92
14016,note_on,2,0,7,,,,,,,,,7,,,45,75
14016,note_on,2,0,5,,,,,,,,,6,,,71,75
14016,note_on,0,0,5,,,,,,,,,6,,,75,75
14110,note_on,94,0,7,,,,,,,,,7,,,45,0
14110,note_on,0,0,7,,,,,,,,,7,,,54,0
14112,note_on,128,0,6,,,,,,,,,5,,,71,75
14112,note_on,2,0,7,,,,,,,,,7,,,45,75
14112,note_on,0,0,7,,,,,,,,,7,,,54,75
14176,note_on,160,0,5,,,,,,,,,6,,,71,0
14206,note_on,94,0,6,,,,,,,,,5,,,71,0
14206,note_on,94,0,7,,,,,,,,,7,,,45,0
14206,note_on,0,0,7,,,,,,,,,7,,,54,0
14208,note_on,0,0,7,,,,,,,,,7,,,54,75
14208,note_on,2,0,7,,,,,,,,,7,,,45,75
14208,note_on,224,0,4,,,,,,,,,3,,,54,92
14208,note_on,2,0,6,,,,,,,,,5,,,75,75
14302,note_on,0,0,7,,,,,,,,,7,,,54,0
14302,note_on,94,0,7,,,,,,,,,7,,,45,0
14302,note_on,94,0,6,,,,,,,,,5,,,75,0
14304,note_on,0,0,7,,,,,,,,,7,,,54,75
14304,note_on,2,0,7,,,,,,,,,7,,,45,75
14304,note_on,2,0,6,,,,,,,,,5,,,78,75
14368,note_on,160,0,4,,,,,,,,,3,,,54,0
14398,note_on,0,0,7,,,,,,,,,7,,,54,0
14398,note_on,94,0,6,,,,,,,,,5,,,78,0
14398,note_on,94,0,7,,,,,,,,,7,,,45,0
14400,note_on,2,0,6,,,,,,,,,5,,,83,75
14400,note_on,2,0,7,,,,,,,,,7,,,45,75
14400,note_on,32,0,4,,,,,,,,,3,,,54,92
14400,note_on,0,0,7,,,,,,,,,7,,,54,75
14494,note_on,94,0,7,,,,,,,,,7,,,45,0
14494,note_on,94,0,6,,,,,,,,,5,,,83,0
14494,note_on,0,0,7,,,,,,,,,7,,,54,0
14496,note_on,2,0,6,,,,,,,,,5,,,78,75
14496,note_on,2,0,7,,,,,,,,,7,,,45,75
14496,note_on,0,0,7,,,,,,,,,7,,,54,75
14544,note_on,528,0,1,,,,,,,,,0,,,75,0
14544,note_on,368,0,5,,,,,,,,,6,,,75,0
14560,note_on,160,0,4,,,,,,,,,3,,,54,0
14590,note_on,94,0,7,,,,,,,,,7,,,45,0
14590,note_on,94,0,6,,,,,,,,,5,,,78,0
14590,note_on,0,0,7,,,,,,,,,7,,,54,0
14592,note_on,32,0,4,,,,,,,,,3,,,55,108
14592,note_on,2,0,7,,,,,,,,,7,,,43,75
14592,note_on,2,0,6,,,,,,,,,5,,,71,75
14592,note_on,48,0,1,,,,,,,,,0,,,76,92
14592,note_on,0,0,7,,,,,,,,,7,,,55,75
14592,note_on,0,0,6,,,,,,,,,5,,,76,75
14640,note_on,96,0,5,,,,,,,,,6,,,79,75
14686,note_on,94,0,7,,,,,,,,,7,,,43,0
14686,note_on,0,0,7,,,,,,,,,7,,,55,0
14686,note_on,46,0,5,,,,,,,,,6,,,79,0
14688,note_on,2,0,7,,,,,,,,,7,,,43,75
14688,note_on,2,0,5,,,,,,,,,6,,,79,75
14688,note_on,0,0,7,,,,,,,,,7,,,55,75
14734,note_on,46,0,5,,,,,,,,,6,,,79,0
14736,note_on,2,0,5,,,,,,,,,6,,,79,75
14752,note_on,160,0,6,,,,,,,,,5,,,71,0
14782,note_on,46,0,5,,,,,,,,,6,,,79,0
14782,note_on,94,0,7,,,,,,,,,7,,,43,0
14782,note_on,0,0,7,,,,,,,,,7,,,55,0
14784,note_on,2,0,5,,,,,,,,,6,,,83,75
14784,note_on,1968,0,3,,,,,,,,,2,,,59,108
14784,note_on,2,0,7,,,,,,,,,7,,,43,75
14784,note_on,0,0,7,,,,,,,,,7,,,55,75
14830,note_on,46,0,5,,,,,,,,,6,,,83,0
14832,note_on,2,0,5,,,,,,,,,6,,,79,75
14878,note_on,46,0,5,,,,,,,,,6,,,79,0
14878,note_on,94,0,7,,,,,,,,,7,,,43,0
14878,note_on,0,0,7,,,,,,,,,7,,,55,0
14880,note_on,2,0,5,,,,,,,,,6,,,79,75
14880,note_on,2,0,7,,,,,,,,,7,,,43,75
14880,note_on,0,0,7,,,,,,,,,7,,,55,75
14926,note_on,46,0,5,,,,,,,,,6,,,79,0
14928,note_on,2,0,5,,,,,,,,,6,,,79,75
14944,note_on,160,0,3,,,,,,,,,2,,,59,0
14944,note_on,192,0,6,,,,,,,,,5,,,76,0
14974,note_on,0,0,7,,,,,,,,,7,,,55,0
14974,note_on,94,0,7,,,,,,,,,7,,,43,0
14974,note_on,46,0,5,,,,,,,,,6,,,79,0
14976,note_on,2,0,7,,,,,,,,,7,,,55,75
14976,note_on,32,0,3,,,,,,,,,2,,,59,108
14976,note_on,32,0,6,,,,,,,,,5,,,76,75
14976,note_on,2,0,5,,,,,,,,,6,,,83,75
15022,note_on,46,0,5,,,,,,,,,6,,,83,0
15024,note_on,2,0,5,,,,,,,,,6,,,79,75
15070,note_on,46,0,5,,,,,,,,,6,,,79,0
15070,note_on,94,0,7,,,,,,,,,7,,,55,0
15072,note_on,2,0,5,,,,,,,,,6,,,79,75
15072,note_on,2,0,7,,,,,,,,,7,,,55,75
15118,note_on,46,0,5,,,,,,,,,6,,,79,0
15120,note_on,528,0,4,,,,,,,,,3,,,55,0
15120,note_on,2,0,5,,,,,,,,,6,,,79,75
15120,note_on,528,0,1,,,,,,,,,0,,,76,0
15136,note_on,160,0,3,,,,,,,,,2,,,59,0
15136,note_on,160,0,6,,,,,,,,,5,,,76,0
15166,note_on,94,0,7,,,,,,,,,7,,,55,0
15166,note_on,46,0,5,,,,,,,,,6,,,79,0
15168,note_on,2,0,7,,,,,,,,,7,,,49,75
15168,note_on,0,0,7,,,,,,,,,7,,,56,75
15168,note_on,0,0,5,,,,,,,,,6,,,83,75
15168,note_on,32,0,3,,,,,,,,,2,,,59,108
15168,note_on,48,0,1,,,,,,,,,0,,,77,92
15168,note_on,48,0,4,,,,,,,,,3,,,56,108
15168,note_on,2,0,5,,,,,,,,,6,,,77,75
15216,note_on,80,0,6,,,,,,,,,5,,,80,75
15262,note_on,46,0,6,,,,,,,,,5,,,80,0
15262,note_on,94,0,7,,,,,,,,,7,,,49,0
15264,note_on,2,0,6,,,,,,,,,5,,,80,75
15264,note_on,2,0,7,,,,,,,,,7,,,49,75
15310,note_on,46,0,6,,,,,,,,,5,,,80,0
15312,note_on,2,0,6,,,,,,,,,5,,,80,75
15328,note_on,160,0,3,,,,,,,,,2,,,59,0
15328,note_on,160,0,5,,,,,,,,,6,,,83,0
15358,note_on,94,0,7,,,,,,,,,7,,,49,0
15358,note_on,46,0,6,,,,,,,,,5,,,80,0
15360,note_on,2,0,6,,,,,,,,,5,,,83,75
15360,note_on,2,0,7,,,,,,,,,7,,,49,75
15360,note_on,32,0,3,,,,,,,,,2,,,59,108
15406,note_on,46,0,6,,,,,,,,,5,,,83,0
15408,note_on,2,0,6,,,,,,,,,5,,,80,75
15454,note_on,46,0,6,,,,,,,,,5,,,80,0
15454,note_on,94,0,7,,,,,,,,,7,,,49,0
15456,note_on,2,0,6,,,,,,,,,5,,,80,75
15456,note_on,2,0,7,,,,,,,,,7,,,49,75
15502,note_on,46,0,6,,,,,,,,,5,,,80,0
15504,note_on,2,0,6,,,,,,,,,5,,,80,75
15504,note_on,48,0,7,,,,,,,,,7,,,56,0
15520,note_on,160,0,3,,,,,,,,,2,,,59,0
15550,note_on,46,0,6,,,,,,,,,5,,,80,0
15550,note_on,46,0,7,,,,,,,,,7,,,49,0
15552,note_on,2,0,7,,,,,,,,,7,,,49,75
15552,note_on,2,0,6,,,,,,,,,5,,,83,75
15552,note_on,32,0,3,,,,,,,,,2,,,59,108
15552,note_on,0,0,7,,,,,,,,,7,,,61,75
15598,note_on,46,0,6,,,,,,,,,5,,,83,0
15600,note_on,2,0,6,,,,,,,,,5,,,80,75
15646,note_on,94,0,7,,,,,,,,,7,,,49,0
15646,note_on,94,0,3,,,,,,,,,2,,,59,0
15646,note_on,46,0,6,,,,,,,,,5,,,80,0
15648,note_on,2,0,3,,,,,,,,,2,,,59,108
15648,note_on,2,0,7,,,,,,,,,7,,,49,75
15648,note_on,2,0,6,,,,,,,,,5,,,80,75
15694,note_on,46,0,6,,,,,,,,,5,,,80,0
15696,note_on,2,0,6,,,,,,,,,5,,,80,75
15696,note_on,528,0,1,,,,,,,,,0,,,77,0
15696,note_on,528,0,4,,,,,,,,,3,,,56,0
15696,note_on,368,0,5,,,,,,,,,6,,,77,0
15712,note_on,64,0,7,,,,,,,,,7,,,61,0
15742,note_on,30,0,7,,,,,,,,,7,,,49,0
15742,note_on,94,0,3,,,,,,,,,2,,,59,0
15742,note_on,46,0,6,,,,,,,,,5,,,80,0
15744,note_on,2,0,3,,,,,,,,,2,,,57,108
15744,note_on,48,0,1,,,,,,,,,0,,,78,92
15744,note_on,2,0,7,,,,,,,,,7,,,54,75
15744,note_on,0,0,7,,,,,,,,,7,,,61,75
15744,note_on,48,0,4,,,,,,,,,3,,,57,108
15744,note_on,48,0,5,,,,,,,,,6,,,78,75
15744,note_on,2,0,6,,,,,,,,,5,,,81,75
15838,note_on,0,0,7,,,,,,,,,7,,,61,0
15838,note_on,94,0,7,,,,,,,,,7,,,54,0
15840,note_on,0,0,7,,,,,,,,,7,,,61,75
15840,note_on,2,0,7,,,,,,,,,7,,,54,75
15886,note_on,142,0,3,,,,,,,,,2,,,57,0
15888,note_on,2,0,3,,,,,,,,,2,,,59,108
15904,note_on,160,0,5,,,,,,,,,6,,,78,0
15904,note_on,160,0,6,,,,,,,,,5,,,81,0
15904,note_on,160,0,1,,,,,,,,,0,,,78,0
15934,note_on,94,0,7,,,,,,,,,7,,,54,0
15934,note_on,0,0,7,,,,,,,,,7,,,61,0
15934,note_on,46,0,3,,,,,,,,,2,,,59,0
15936,note_on,1968,0,2,,,,,,,,,1,,,66,108
15936,note_on,32,0,1,,,,,,,,,0,,,66,92
15936,note_on,2,0,7,,,,,,,,,7,,,54,92
15936,note_on,0,0,7,,,,,,,,,7,,,57,92
15936,note_on,0,0,7,,,,,,,,,7,,,61,92
15936,note_on,32,0,5,,,,,,,,,6,,,73,92
15936,note_on,2,0,3,,,,,,,,,2,,,61,108
16030,note_on,0,0,7,,,,,,,,,7,,,57,0
16030,note_on,94,0,7,,,,,,,,,7,,,54,0
16030,note_on,0,0,7,,,,,,,,,7,,,61,0
16032,note_on,2,0,7,,,,,,,,,7,,,54,92
16032,note_on,0,0,7,,,,,,,,,7,,,57,92
16032,note_on,0,0,7,,,,,,,,,7,,,61,92
16096,note_on,160,0,2,,,,,,,,,1,,,66,0
16096,note_on,160,0,5,,,,,,,,,6,,,73,0
16126,note_on,0,0,7,,,,,,,,,7,,,61,0
16126,note_on,0,0,7,,,,,,,,,7,,,57,0
16126,note_on,94,0,7,,,,,,,,,7,,,54,0
16128,note_on,2,0,7,,,,,,,,,7,,,54,92
16128,note_on,0,0,7,,,,,,,,,7,,,57,92
16128,note_on,0,0,7,,,,,,,,,7,,,61,92
16128,note_on,32,0,5,,,,,,,,,6,,,69,92
16128,note_on,32,0,2,,,,,,,,,1,,,66,108
16222,note_on,94,0,7,,,,,,,,,7,,,54,0
16222,note_on,0,0,7,,,,,,,,,7,,,57,0
16222,note_on,0,0,7,,,,,,,,,7,,,61,0
16224,note_on,0,0,7,,,,,,,,,7,,,57,92
16224,note_on,2,0,7,,,,,,,,,7,,,54,92
16224,note_on,0,0,7,,,,,,,,,7,,,61,92
16272,note_on,336,0,1,,,,,,,,,0,,,66,0
16272,note_on,336,0,3,,,,,,,,,2,,,61,0
16272,note_on,528,0,4,,,,,,,,,3,,,57,0
16288,note_on,160,0,2,,,,,,,,,1,,,66,0
16288,note_on,160,0,5,,,,,,,,,6,,,69,0
16318,note_on,0,0,7,,,,,,,,,7,,,61,0
16318,note_on,0,0,7,,,,,,,,,7,,,57,0
16318,note_on,94,0,7,,,,,,,,,7,,,54,0
16320,note_on,32,0,5,,,,,,,,,6,,,73,92
16320,note_on,416,0,6,,,,,,,,,5,,,78,92
16320,note_on,48,0,4,,,,,,,,,3,,,58,108
16320,note_on,2,0,7,,,,,,,,,7,,,54,92
16320,note_on,0,0,7,,,,,,,,,7,,,58,92
16320,note_on,0,0,7,,,,,,,,,7,,,61,92
16320,note_on,32,0,2,,,,,,,,,1,,,66,108
16414,note_on,0,0,7,,,,,,,,,7,,,61,0
16414,note_on,94,0,7,,,,,,,,,7,,,54,0
16414,note_on,0,0,7,,,,,,,,,7,,,58,0
16416,note_on,2,0,7,,,,,,,,,7,,,54,92
16416,note_on,0,0,7,,,,,,,,,7,,,58,92
16416,note_on,0,0,7,,,,,,,,,7,,,61,92
16480,note_on,160,0,6,,,,,,,,,5,,,78,0
16480,note_on,160,0,5,,,,,,,,,6,,,73,0
16480,note_on,160,0,2,,,,,,,,,1,,,66,0
16510,note_on,94,0,7,,,,,,,,,7,,,54,0
16510,note_on,0,0,7,,,,,,,,,7,,,58,0
16510,note_on,0,0,7,,,,,,,,,7,,,61,0
16512,note_on,2,0,7,,,,,,,,,7,,,54,92
16512,note_on,0,0,7,,,,,,,,,7,,,58,92
16512,note_on,240,0,1,,,,,,,,,0,,,66,108
16512,note_on,32,0,2,,,,,,,,,1,,,66,108
16512,note_on,0,0,7,,,,,,,,,7,,,61,92
16512,note_on,32,0,6,,,,,,,,,5,,,73,92
16606,note_on,0,0,7,,,,,,,,,7,,,61,0
16606,note_on,0,0,7,,,,,,,,,7,,,58,0
16606,note_on,94,0,7,,,,,,,,,7,,,54,0
16608,note_on,0,0,7,,,,,,,,,7,,,61,92
16608,note_on,2,0,7,,,,,,,,,7,,,54,92
16608,note_on,0,0,7,,,,,,,,,7,,,58,92
16672,note_on,160,0,1,,,,,,,,,0,,,66,0
16672,note_on,160,0,2,,,,,,,,,1,,,66,0
16672,note_on,160,0,6,,,,,,,,,5,,,73,0
16702,note_on,94,0,7,,,,,,,,,7,,,54,0
16702,note_on,0,0,7,,,,,,,,,7,,,61,0
16702,note_on,0,0,7,,,,,,,,,7,,,58,0
16704,note_on,2,0,7,,,,,,,,,7,,,54,92
16704,note_on,0,0,7,,,,,,,,,7,,,61,92
16704,note_on,0,0,7,,,,,,,,,7,,,64,92
16704,note_on,32,0,2,,,,,,,,,1,,,64,108
16704,note_on,32,0,6,,,,,,,,,5,,,70,92
16704,note_on,32,0,1,,,,,,,,,0,,,66,108
16798,note_on,0,0,7,,,,,,,,,7,,,61,0
16798,note_on,94,0,2,,,,,,,,,1,,,64,0
16798,note_on,94,0,7,,,,,,,,,7,,,54,0
16798,note_on,0,0,7,,,,,,,,,7,,,64,0
16800,note_on,2,0,2,,,,,,,,,1,,,64,108
16800,note_on,2,0,7,,,,,,,,,7,,,54,92
16800,note_on,0,0,7,,,,,,,,,7,,,61,92
16800,note_on,0,0,7,,,,,,,,,7,,,64,92
16848,note_on,528,0,4,,,,,,,,,3,,,58,0
16864,note_on,160,0,1,,,,,,,,,0,,,66,0
16864,note_on,160,0,6,,,,,,,,,5,,,70,0
16894,note_on,94,0,7,,,,,,,,,7,,,54,0
16894,note_on,0,0,7,,,,,,,,,7,,,61,0
16894,note_on,0,0,7,,,,,,,,,7,,,64,0
16894,note_on,94,0,2,,,,,,,,,1,,,64,0
16896,note_on,2,0,2,,,,,,,,,1,,,62,108
16896,note_on,32,0,6,,,,,,,,,5,,,66,92
16896,note_on,48,0,4,,,,,,,,,3,,,59,108
16896,note_on,32,0,1,,,,,,,,,0,,,66,108
16896,note_on,624,0,3,,,,,,,,,2,,,62,108
16896,note_on,0,0,7,,,,,,,,,7,,,62,92
16896,note_on,2,0,7,,,,,,,,,7,,,59,92
16990,note_on,0,0,7,,,,,,,,,7,,,62,0
16990,note_on,94,0,7,,,,,,,,,7,,,59,0
16992,note_on,0,0,7,,,,,,,,,7,,,62,92
16992,note_on,2,0,7,,,,,,,,,7,,,59,92
16992,note_on,512,0,5,,,,,,,,,6,,,74,92
17056,note_on,160,0,6,,,,,,,,,5,,,66,0
17056,note_on,160,0,4,,,,,,,,,3,,,59,0
17086,note_on,94,0,7,,,,,,,,,7,,,59,0
17086,note_on,94,0,5,,,,,,,,,6,,,74,0
17086,note_on,0,0,7,,,,,,,,,7,,,62,0
17088,note_on,0,0,7,,,,,,,,,7,,,54,92
17088,note_on,2,0,7,,,,,,,,,7,,,47,92
17088,note_on,0,0,7,,,,,,,,,7,,,50,92
17088,note_on,32,0,4,,,,,,,,,3,,,47,108
17088,note_on,2,0,5,,,,,,,,,6,,,78,92
17152,note_on,256,0,1,,,,,,,,,0,,,66,0
17152,note_on,256,0,2,,,,,,,,,1,,,62,0
17182,note_on,94,0,7,,,,,,,,,7,,,47,0
17182,note_on,0,0,7,,,,,,,,,7,,,50,0
17182,note_on,94,0,5,,,,,,,,,6,,,78,0
17182,note_on,0,0,7,,,,,,,,,7,,,54,0
17184,note_on,32,0,2,,,,,,,,,1,,,64,108
17184,note_on,32,0,1,,,,,,,,,0,,,66,108
17184,note_on,2,0,5,,,,,,,,,6,,,83,92
17184,note_on,2,0,7,,,,,,,,,7,,,47,92
17184,note_on,0,0,7,,,,,,,,,7,,,50,92
17184,note_on,0,0,7,,,,,,,,,7,,,54,92
17232,note_on,336,0,3,,,,,,,,,2,,,62,0
17278,note_on,0,0,7,,,,,,,,,7,,,54,0
17278,note_on,94,0,2,,,,,,,,,1,,,64,0
17278,note_on,94,0,5,,,,,,,,,6,,,83,0
17278,note_on,94,0,1,,,,,,,,,0,,,66,0
17278,note_on,94,0,7,,,,,,,,,7,,,47,0
17278,note_on,0,0,7,,,,,,,,,7,,,50,0
17280,note_on,2,0,2,,,,,,,,,1,,,66,108
17280,note_on,48,0,3,,,,,,,,,2,,,62,108
17280,note_on,2,0,7,,,,,,,,,7,,,47,92
17280,note_on,0,0,7,,,,,,,,,7,,,50,92
17280,note_on,0,0,7,,,,,,,,,7,,,54,92
17280,note_on,2,0,5,,,,,,,,,6,,,78,92
17280,note_on,2,0,1,,,,,,,,,0,,,66,108
17374,note_on,0,0,7,,,,,,,,,7,,,54,0
17374,note_on,94,0,5,,,,,,,,,6,,,78,0
17374,note_on,94,0,7,,,,,,,,,7,,,47,0
17374,note_on,0,0,7,,,,,,,,,7,,,50,0
17376,note_on,2,0,5,,,,,,,,,6,,,74,92
17376,note_on,0,0,7,,,,,,,,,7,,,50,92
17376,note_on,0,0,7,,,,,,,,,7,,,54,92
17376,note_on,2,0,7,,,,,,,,,7,,,47,92
17424,note_on,336,0,4,,,,,,,,,3,,,47,0
17440,note_on,160,0,3,,,,,,,,,2,,,62,0
17440,note_on,160,0,2,,,,,,,,,1,,,66,0
17440,note_on,160,0,1,,,,,,,,,0,,,66,0
17470,note_on,94,0,7,,,,,,,,,7,,,47,0
17470,note_on,0,0,7,,,,,,,,,7,,,54,0
17470,note_on,0,0,7,,,,,,,,,7,,,50,0
17470,note_on,94,0,5,,,,,,,,,6,,,74,0
17472,note_on,48,0,4,,,,,,,,,3,,,47,108
17472,note_on,32,0,2,,,,,,,,,1,,,66,108
17472,note_on,0,0,7,,,,,,,,,7,,,54,92
17472,note_on,0,0,7,,,,,,,,,7,,,50,92
17472,note_on,32,0,3,,,,,,,,,2,,,62,108
17472,note_on,2,0,5,,,,,,,,,6,,,71,92
17472,note_on,2,0,7,,,,,,,,,7,,,47,92
17566,note_on,94,0,7,,,,,,,,,7,,,47,0
17566,note_on,0,0,7,,,,,,,,,7,,,50,0
17566,note_on,0,0,7,,,,,,,,,7,,,54,0
17568,note_on,512,0,6,,,,,,,,,5,,,74,92
17568,note_on,2,0,7,,,,,,,,,7,,,47,92
17568,note_on,0,0,7,,,,,,,,,7,,,50,92
17568,note_on,0,0,7,,,,,,,,,7,,,54,92
17632,note_on,160,0,5,,,,,,,,,6,,,71,0
17662,note_on,94,0,6,,,,,,,,,5,,,74,0
17662,note_on,0,0,7,,,,,,,,,7,,,54,0
17662,note_on,0,0,7,,,,,,,,,7,,,50,0
17662,note_on,94,0,7,,,,,,,,,7,,,47,0
17664,note_on,0,0,7,,,,,,,,,7,,,54,92
17664,note_on,224,0,1,,,,,,,,,0,,,71,108
17664,note_on,0,0,7,,,,,,,,,7,,,50,92
17664,note_on,2,0,7,,,,,,,,,7,,,47,92
17664,note_on,2,0,6,,,,,,,,,5,,,78,92
17758,note_on,94,0,7,,,,,,,,,7,,,47,0
17758,note_on,0,0,7,,,,,,,,,7,,,50,0
17758,note_on,0,0,7,,,,,,,,,7,,,54,0
17758,note_on,94,0,6,,,,,,,,,5,,,78,0
17760,note_on,2,0,7,,,,,,,,,7,,,47,92
17760,note_on,0,0,7,,,,,,,,,7,,,50,92
17760,note_on,2,0,6,,,,,,,,,5,,,83,92
17760,note_on,0,0,7,,,,,,,,,7,,,54,92
17808,note_on,336,0,2,,,,,,,,,1,,,66,0
17808,note_on,336,0,3,,,,,,,,,2,,,62,0
17808,note_on,336,0,4,,,,,,,,,3,,,47,0
17824,note_on,160,0,1,,,,,,,,,0,,,71,0
17854,note_on,94,0,6,,,,,,,,,5,,,83,0
17854,note_on,0,0,7,,,,,,,,,7,,,54,0
17854,note_on,94,0,7,,,,,,,,,7,,,47,0
17854,note_on,0,0,7,,,,,,,,,7,,,50,0
17856,note_on,0,0,7,,,,,,,,,7,,,59,92
17856,note_on,2,0,7,,,,,,,,,7,,,47,92
17856,note_on,48,0,3,,,,,,,,,2,,,62,108
17856,note_on,0,0,7,,,,,,,,,7,,,50,92
17856,note_on,48,0,4,,,,,,,,,3,,,47,108
17856,note_on,32,0,1,,,,,,,,,0,,,71,108
17856,note_on,2,0,6,,,,,,,,,5,,,78,92
17856,note_on,48,0,2,,,,,,,,,1,,,66,108
17950,note_on,94,0,6,,,,,,,,,5,,,78,0
17950,note_on,94,0,7,,,,,,,,,7,,,47,0
17950,note_on,0,0,7,,,,,,,,,7,,,50,0
17950,note_on,0,0,7,,,,,,,,,7,,,59,0
17952,note_on,2,0,6,,,,,,,,,5,,,74,92
17952,note_on,0,0,7,,,,,,,,,7,,,59,92
17952,note_on,2,0,7,,,,,,,,,7,,,47,92
17952,note_on,0,0,7,,,,,,,,,7,,,50,92
18016,note_on,160,0,3,,,,,,,,,2,,,62,0
18016,note_on,160,0,2,,,,,,,,,1,,,66,0
18016,note_on,160,0,4,,,,,,,,,3,,,47,0
18016,note_on,160,0,1,,,,,,,,,0,,,71,0
18046,note_on,94,0,6,,,,,,,,,5,,,74,0
18046,note_on,0,0,7,,,,,,,,,7,,,50,0
18046,note_on,94,0,7,,,,,,,,,7,,,47,0
18046,note_on,0,0,7,,,,,,,,,7,,,59,0
18048,note_on,32,0,2,,,,,,,,,1,,,65,108
18048,note_on,2,0,6,,,,,,,,,5,,,73,92
18048,note_on,32,0,3,,,,,,,,,2,,,56,108
18048,note_on,0,0,7,,,,,,,,,7,,,56,92
18048,note_on,2,0,7,,,,,,,,,7,,,49,92
18048,note_on,32,0,4,,,,,,,,,3,,,49,108
18048,note_on,32,0,1,,,,,,,,,0,,,71,108
18096,note_on,464,0,5,,,,,,,,,6,,,77,92
18142,note_on,0,0,7,,,,,,,,,7,,,56,0
18142,note_on,94,0,7,,,,,,,,,7,,,49,0
18142,note_on,46,0,5,,,,,,,,,6,,,77,0
18144,note_on,0,0,7,,,,,,,,,7,,,56,92
18144,note_on,2,0,7,,,,,,,,,7,,,49,92
18144,note_on,2,0,5,,,,,,,,,6,,,77,92
18190,note_on,46,0,5,,,,,,,,,6,,,77,0
18192,note_on,2,0,5,,,,,,,,,6,,,77,92
18208,note_on,160,0,6,,,,,,,,,5,,,73,0
18208,note_on,160,0,3,,,,,,,,,2,,,56,0
18238,note_on,46,0,5,,,,,,,,,6,,,77,0
18238,note_on,94,0,7,,,,,,,,,7,,,49,0
18238,note_on,0,0,7,,,,,,,,,7,,,56,0
18240,note_on,32,0,3,,,,,,,,,2,,,61,108
18240,note_on,2,0,7,,,,,,,,,7,,,49,92
18240,note_on,2,0,5,,,,,,,,,6,,,77,92
18240,note_on,0,0,5,,,,,,,,,6,,,80,92
18240,note_on,0,0,7,,,,,,,,,7,,,61,92
18286,note_on,0,0,5,,,,,,,,,6,,,80,0
18286,note_on,46,0,5,,,,,,,,,6,,,77,0
18288,note_on,2,0,5,,,,,,,,,6,,,73,92
18304,note_on,256,0,2,,,,,,,,,1,,,65,0
18334,note_on,0,0,7,,,,,,,,,7,,,61,0
18334,note_on,94,0,7,,,,,,,,,7,,,49,0
18334,note_on,46,0,5,,,,,,,,,6,,,73,0
18336,note_on,32,0,2,,,,,,,,,1,,,65,108
18336,note_on,2,0,5,,,,,,,,,6,,,73,92
18336,note_on,2,0,7,,,,,,,,,7,,,49,92
18336,note_on,0,0,7,,,,,,,,,7,,,61,92
18382,note_on,46,0,5,,,,,,,,,6,,,73,0
18384,note_on,336,0,1,,,,,,,,,0,,,71,0
18384,note_on,2,0,5,,,,,,,,,6,,,73,92
18384,note_on,336,0,4,,,,,,,,,3,,,49,0
18430,note_on,94,0,2,,,,,,,,,1,,,65,0
18430,note_on,46,0,5,,,,,,,,,6,,,73,0
18430,note_on,94,0,7,,,,,,,,,7,,,49,0
18430,note_on,0,0,7,,,,,,,,,7,,,61,0
18432,note_on,48,0,1,,,,,,,,,0,,,69,92
18432,note_on,2,0,5,,,,,,,,,6,,,78,92
18432,note_on,2,0,2,,,,,,,,,1,,,66,92
18432,note_on,0,0,5,,,,,,,,,6,,,81,92
18432,note_on,2,0,7,,,,,,,,,7,,,54,92
18432,note_on,0,0,7,,,,,,,,,7,,,61,92
18432,note_on,48,0,4,,,,,,,,,3,,,54,108
18478,note_on,0,0,5,,,,,,,,,6,,,81,0
18478,note_on,46,0,5,,,,,,,,,6,,,78,0
18480,note_on,2,0,5,,,,,,,,,6,,,73,92
18526,note_on,46,0,5,,,,,,,,,6,,,73,0
18526,note_on,94,0,7,,,,,,,,,7,,,54,0
18526,note_on,0,0,7,,,,,,,,,7,,,61,0
18528,note_on,2,0,7,,,,,,,,,7,,,54,92
18528,note_on,0,0,7,,,,,,,,,7,,,61,92
18528,note_on,2,0,5,,,,,,,,,6,,,73,92
18574,note_on,46,0,5,,,,,,,,,6,,,73,0
18576,note_on,336,0,3,,,,,,,,,2,,,61,0
18576,note_on,2,0,5,,,,,,,,,6,,,73,92
18592,note_on,160,0,2,,,,,,,,,1,,,66,0
18592,note_on,160,0,4,,,,,,,,,3,,,54,0
18622,note_on,46,0,5,,,,,,,,,6,,,73,0
18622,note_on,94,0,7,,,,,,,,,7,,,54,0
18622,note_on,0,0,7,,,,,,,,,7,,,61,0
18624,note_on,0,0,5,,,,,,,,,6,,,81,75
18624,note_on,2,0,5,,,,,,,,,6,,,78,75
18624,note_on,2,0,7,,,,,,,,,7,,,49,75
18624,note_on,0,0,7,,,,,,,,,7,,,61,75
18624,note_on,32,0,2,,,,,,,,,1,,,66,92
18624,note_on,32,0,4,,,,,,,,,3,,,49,92
18672,note_on,464,0,6,,,,,,,,,5,,,73,75
18718,note_on,46,0,6,,,,,,,,,5,,,73,0
18718,note_on,94,0,7,,,,,,,,,7,,,49,0
18718,note_on,0,0,7,,,,,,,,,7,,,61,0
18720,note_on,2,0,6,,,,,,,,,5,,,73,75
18720,note_on,2,0,7,,,,,,,,,7,,,49,75
18720,note_on,0,0,7,,,,,,,,,7,,,61,75
18766,note_on,46,0,6,,,,,,,,,5,,,73,0
18768,note_on,2,0,6,,,,,,,,,5,,,73,75
18784,note_on,160,0,2,,,,,,,,,1,,,66,0
18784,note_on,352,0,1,,,,,,,,,0,,,69,0
18784,note_on,160,0,5,,,,,,,,,6,,,78,0
18784,note_on,0,0,5,,,,,,,,,6,,,81,0
18814,note_on,46,0,6,,,,,,,,,5,,,73,0
18814,note_on,0,0,7,,,,,,,,,7,,,61,0
18814,note_on,94,0,7,,,,,,,,,7,,,49,0
18816,note_on,2,0,6,,,,,,,,,5,,,77,75
18816,note_on,0,0,6,,,,,,,,,5,,,80,75
18816,note_on,32,0,1,,,,,,,,,0,,,68,92
18816,note_on,240,0,3,,,,,,,,,2,,,61,92
18816,note_on,32,0,2,,,,,,,,,1,,,65,92
18816,note_on,2,0,7,,,,,,,,,7,,,49,75
18816,note_on,0,0,7,,,,,,,,,7,,,61,75
18862,note_on,46,0,6,,,,,,,,,5,,,77,0
18862,note_on,0,0,6,,,,,,,,,5,,,80,0
18864,note_on,2,0,6,,,,,,,,,5,,,73,75
18910,note_on,94,0,7,,,,,,,,,7,,,49,0
18910,note_on,0,0,7,,,,,,,,,7,,,61,0
18910,note_on,46,0,6,,,,,,,,,5,,,73,0
18912,note_on,0,0,7,,,,,,,,,7,,,61,75
18912,note_on,2,0,7,,,,,,,,,7,,,49,75
18912,note_on,2,0,6,,,,,,,,,5,,,73,75
18958,note_on,46,0,6,,,,,,,,,5,,,73,0
18960,note_on,2,0,6,,,,,,,,,5,,,73,75
18976,note_on,160,0,3,,,,,,,,,2,,,61,0
19006,note_on,94,0,7,,,,,,,,,7,,,49,0
19006,note_on,46,0,6,,,,,,,,,5,,,73,0
19006,note_on,0,0,7,,,,,,,,,7,,,61,0
19008,note_on,2,0,7,,,,,,,,,7,,,37,75
19008,note_on,32,0,3,,,,,,,,,2,,,61,92
19008,note_on,0,0,7,,,,,,,,,7,,,49,75
19008,note_on,0,0,6,,,,,,,,,5,,,77,75
19008,note_on,2,0,6,,,,,,,,,5,,,68,75
19054,note_on,0,0,6,,,,,,,,,5,,,77,0
19054,note_on,46,0,6,,,,,,,,,5,,,68,0
19056,note_on,2,0,6,,,,,,,,,5,,,73,75
19102,note_on,46,0,6,,,,,,,,,5,,,73,0
19102,note_on,94,0,7,,,,,,,,,7,,,37,0
19102,note_on,0,0,7,,,,,,,,,7,,,49,0
19104,note_on,2,0,6,,,,,,,,,5,,,73,75
19104,note_on,2,0,7,,,,,,,,,7,,,37,75
19104,note_on,0,0,7,,,,,,,,,7,,,49,75
19150,note_on,46,0,6,,,,,,,,,5,,,73,0
19152,note_on,2,0,6,,,,,,,,,5,,,73,75
19152,note_on,336,0,2,,,,,,,,,1,,,65,0
19152,note_on,528,0,4,,,,,,,,,3,,,49,0
19152,note_on,336,0,1,,,,,,,,,0,,,68,0
19168,note_on,160,0,3,,,,,,,,,2,,,61,0
19198,note_on,94,0,7,,,,,,,,,7,,,37,0
19198,note_on,0,0,7,,,,,,,,,7,,,49,0
19198,note_on,46,0,6,,,,,,,,,5,,,73,0
19200,note_on,2,0,6,,,,,,,,,5,,,78,60
19200,note_on,0,0,6,,,,,,,,,5,,,81,60
19200,note_on,48,0,4,,,,,,,,,3,,,54,75
19200,note_on,416,0,5,,,,,,,,,6,,,78,60
19200,note_on,32,0,3,,,,,,,,,2,,,62,75
19200,note_on,48,0,1,,,,,,,,,0,,,66,75
19200,note_on,0,0,7,,,,,,,,,7,,,62,60
19200,note_on,2,0,7,,,,,,,,,7,,,54,60
19200,note_on,48,0,2,,,,,,,,,1,,,66,75
19294,note_on,94,0,7,,,,,,,,,7,,,54,0
19296,note_on,2,0,7,,,,,,,,,7,,,54,60
19360,note_on,160,0,2,,,,,,,,,1,,,66,0
19360,note_on,160,0,5,,,,,,,,,6,,,78,0
19360,note_on,0,0,6,,,,,,,,,5,,,81,0
19360,note_on,160,0,6,,,,,,,,,5,,,78,0
19390,note_on,94,0,7,,,,,,,,,7,,,54,0
19392,note_on,2,0,7,,,,,,,,,7,,,54,60
19392,note_on,32,0,5,,,,,,,,,6,,,74,60
19392,note_on,32,0,2,,,,,,,,,1,,,66,75
19392,note_on,32,0,6,,,,,,,,,5,,,69,60
19486,note_on,94,0,7,,,,,,,,,7,,,54,0
19486,note_on,94,0,6,,,,,,,,,5,,,69,0
19488,note_on,2,0,7,,,,,,,,,7,,,54,60
19488,note_on,2,0,6,,,,,,,,,5,,,69,60
19552,note_on,160,0,2,,,,,,,,,1,,,66,0
19552,note_on,160,0,5,,,,,,,,,6,,,74,0
19582,note_on,94,0,7,,,,,,,,,7,,,54,0
19582,note_on,94,0,6,,,,,,,,,5,,,69,0
19584,note_on,32,0,2,,,,,,,,,1,,,66,75
19584,note_on,32,0,5,,,,,,,,,6,,,69,60
19584,note_on,2,0,7,,,,,,,,,7,,,54,60
19584,note_on,2,0,6,,,,,,,,,5,,,66,60
19678,note_on,94,0,7,,,,,,,,,7,,,54,0
19678,note_on,94,0,6,,,,,,,,,5,,,66,0
19680,note_on,2,0,7,,,,,,,,,7,,,54,60
19680,note_on,2,0,6,,,,,,,,,5,,,66,60
19728,note_on,48,0,7,,,,,,,,,7,,,62,0
19728,note_on,528,0,1,,,,,,,,,0,,,66,0
19728,note_on,528,0,4,,,,,,,,,3,,,54,0
19744,note_on,160,0,2,,,,,,,,,1,,,66,0
19744,note_on,160,0,5,,,,,,,,,6,,,69,0
19774,note_on,46,0,7,,,,,,,,,7,,,54,0
19774,note_on,94,0,6,,,,,,,,,5,,,66,0
19776,note_on,32,0,2,,,,,,,,,1,,,67,75
19776,note_on,0,0,7,,,,,,,,,7,,,62,60
19776,note_on,32,0,5,,,,,,,,,6,,,79,60
19776,note_on,2,0,7,,,,,,,,,7,,,59,60
19776,note_on,2,0,6,,,,,,,,,5,,,67,60
19870,note_on,0,0,7,,,,,,,,,7,,,62,0
19870,note_on,94,0,7,,,,,,,,,7,,,59,0
19872,note_on,0,0,7,,,,,,,,,7,,,62,60
19872,note_on,2,0,7,,,,,,,,,7,,,59,60
19936,note_on,160,0,6,,,,,,,,,5,,,67,0
19936,note_on,160,0,5,,,,,,,,,6,,,79,0
19966,note_on,0,0,7,,,,,,,,,7,,,62,0
19966,note_on,94,0,7,,,,,,,,,7,,,59,0
19968,note_on,2,0,7,,,,,,,,,7,,,59,60
19968,note_on,32,0,5,,,,,,,,,6,,,74,60
19968,note_on,0,0,7,,,,,,,,,7,,,62,60
19968,note_on,32,0,6,,,,,,,,,5,,,67,60
20062,note_on,94,0,7,,,,,,,,,7,,,59,0
20062,note_on,0,0,7,,,,,,,,,7,,,62,0
20064,note_on,2,0,7,,,,,,,,,7,,,59,60
20064,note_on,0,0,7,,,,,,,,,7,,,62,60
20112,note_on,912,0,3,,,,,,,,,2,,,62,0
20112,note_on,336,0,2,,,,,,,,,1,,,67,0
20128,note_on,160,0,5,,,,,,,,,6,,,74,0
20158,note_on,94,0,7,,,,,,,,,7,,,59,0
20158,note_on,0,0,7,,,,,,,,,7,,,62,0
20160,note_on,32,0,5,,,,,,,,,6,,,71,60
20160,note_on,48,0,2,,,,,,,,,1,,,66,75
20160,note_on,2,0,7,,,,,,,,,7,,,47,60
20160,note_on,48,0,3,,,,,,,,,2,,,62,75
20160,note_on,192,0,6,,,,,,,,,5,,,62,60
20254,note_on,94,0,7,,,,,,,,,7,,,47,0
20254,note_on,0,0,6,,,,,,,,,5,,,67,0
20254,note_on,94,0,6,,,,,,,,,5,,,62,0
20256,note_on,0,0,6,,,,,,,,,5,,,66,60
20256,note_on,2,0,6,,,,,,,,,5,,,62,60
20256,note_on,2,0,7,,,,,,,,,7,,,47,60
20320,note_on,160,0,2,,,,,,,,,1,,,66,0
20320,note_on,160,0,5,,,,,,,,,6,,,71,0
20320,note_on,160,0,3,,,,,,,,,2,,,62,0
20350,note_on,94,0,6,,,,,,,,,5,,,62,0
20350,note_on,0,0,6,,,,,,,,,5,,,66,0
20350,note_on,94,0,7,,,,,,,,,7,,,47,0
20352,note_on,32,0,2,,,,,,,,,1,,,65,75
20352,note_on,32,0,3,,,,,,,,,2,,,62,75
20352,note_on,2,0,7,,,,,,,,,7,,,49,60
20352,note_on,0,0,7,,,,,,,,,7,,,62,60
20352,note_on,0,0,6,,,,,,,,,5,,,68,60
20352,note_on,2,0,6,,,,,,,,,5,,,65,60
20446,note_on,94,0,7,,,,,,,,,7,,,49,0
20448,note_on,128,0,5,,,,,,,,,6,,,68,60
20448,note_on,2,0,7,,,,,,,,,7,,,49,60
20512,note_on,160,0,6,,,,,,,,,5,,,65,0
20512,note_on,0,0,6,,,,,,,,,5,,,68,0
20512,note_on,64,0,7,,,,,,,,,7,,,62,0
20542,note_on,30,0,7,,,,,,,,,7,,,49,0
20542,note_on,94,0,5,,,,,,,,,6,,,68,0
20544,note_on,32,0,6,,,,,,,,,5,,,65,60
20544,note_on,192,0,3,,,,,,,,,2,,,62,0
20544,note_on,0,0,3,,,,,,,,,2,,,61,75
20544,note_on,0,0,7,,,,,,,,,7,,,61,60
20544,note_on,2,0,7,,,,,,,,,7,,,49,60
20544,note_on,2,0,5,,,,,,,,,6,,,73,60
20544,note_on,816,0,4,,,,,,,,,3,,,49,75
20638,note_on,94,0,5,,,,,,,,,6,,,73,0
20638,note_on,94,0,7,,,,,,,,,7,,,49,0
20640,note_on,2,0,7,,,,,,,,,7,,,49,60
20640,note_on,2,0,5,,,,,,,,,6,,,77,60
20688,note_on,336,0,2,,,,,,,,,1,,,65,0
20704,note_on,160,0,4,,,,,,,,,3,,,49,0
20704,note_on,160,0,6,,,,,,,,,5,,,65,0
20704,note_on,64,0,7,,,,,,,,,7,,,61,0
20704,note_on,160,0,3,,,,,,,,,2,,,61,0
20734,note_on,30,0,7,,,,,,,,,7,,,49,0
20734,note_on,94,0,5,,,,,,,,,6,,,77,0
20736,note_on,48,0,2,,,,,,,,,1,,,65,75
20736,note_on,32,0,3,,,,,,,,,2,,,59,75
20736,note_on,32,0,4,,,,,,,,,3,,,49,75
20736,note_on,2,0,7,,,,,,,,,7,,,49,60
20736,note_on,2,0,5,,,,,,,,,6,,,80,60
20736,note_on,0,0,7,,,,,,,,,7,,,59,60
20736,note_on,32,0,6,,,,,,,,,5,,,73,60
20830,note_on,94,0,7,,,,,,,,,7,,,49,0
20830,note_on,94,0,5,,,,,,,,,6,,,80,0
20832,note_on,2,0,5,,,,,,,,,6,,,77,60
20832,note_on,2,0,7,,,,,,,,,7,,,49,60
20896,note_on,160,0,6,,,,,,,,,5,,,73,0
20896,note_on,160,0,3,,,,,,,,,2,,,59,0
20896,note_on,160,0,2,,,,,,,,,1,,,65,0
20896,note_on,64,0,7,,,,,,,,,7,,,59,0
20896,note_on,160,0,4,,,,,,,,,3,,,49,0
20926,note_on,30,0,7,,,,,,,,,7,,,49,0
20926,note_on,94,0,5,,,,,,,,,6,,,77,0
20928,note_on,2,0,5,,,,,,,,,6,,,73,60
20928,note_on,0,0,7,,,,,,,,,7,,,57,60
20928,note_on,2,0,7,,,,,,,,,7,,,54,60
20928,note_on,32,0,2,,,,,,,,,1,,,66,75
20928,note_on,32,0,3,,,,,,,,,2,,,57,75
20928,note_on,32,0,4,,,,,,,,,3,,,54,75
21022,note_on,0,0,7,,,,,,,,,7,,,57,0
21022,note_on,94,0,7,,,,,,,,,7,,,54,0
21024,note_on,128,0,6,,,,,,,,,5,,,69,60
21024,note_on,0,0,7,,,,,,,,,7,,,61,60
21024,note_on,2,0,7,,,,,,,,,7,,,54,60
21024,note_on,0,0,7,,,,,,,,,7,,,57,60
21088,note_on,160,0,5,,,,,,,,,6,,,73,0
21118,note_on,0,0,7,,,,,,,,,7,,,61,0
21118,note_on,0,0,7,,,,,,,,,7,,,57,0
21118,note_on,94,0,7,,,,,,,,,7,,,54,0
21118,note_on,94,0,6,,,,,,,,,5,,,69,0
21120,note_on,0,0,7,,,,,,,,,7,,,61,60
21120,note_on,0,0,7,,,,,,,,,7,,,57,60
21120,note_on,2,0,7,,,,,,,,,7,,,54,60
21120,note_on,2,0,6,,,,,,,,,5,,,73,60
21184,note_on,256,0,3,,,,,,,,,2,,,57,0
21184,note_on,256,0,2,,,,,,,,,1,,,66,0
21184,note_on,256,0,4,,,,,,,,,3,,,54,0
21214,note_on,94,0,7,,,,,,,,,7,,,54,0
21214,note_on,0,0,7,,,,,,,,,7,,,57,0
21214,note_on,94,0,6,,,,,,,,,5,,,73,0
21214,note_on,0,0,7,,,,,,,,,7,,,61,0
21216,note_on,2,0,6,,,,,,,,,5,,,78,60
21216,note_on,0,0,7,,,,,,,,,7,,,57,60
21216,note_on,0,0,7,,,,,,,,,7,,,61,60
21216,note_on,32,0,2,,,,,,,,,1,,,66,75
21216,note_on,32,0,3,,,,,,,,,2,,,56,75
21216,note_on,32,0,4,,,,,,,,,3,,,54,75
21216,note_on,2,0,7,,,,,,,,,7,,,54,60
21310,note_on,94,0,7,,,,,,,,,7,,,54,0
21310,note_on,0,0,7,,,,,,,,,7,,,57,0
21310,note_on,0,0,7,,,,,,,,,7,,,61,0
21310,note_on,94,0,2,,,,,,,,,1,,,66,0
21310,note_on,94,0,3,,,,,,,,,2,,,56,0
21310,note_on,94,0,4,,,,,,,,,3,,,54,0
21310,note_on,94,0,6,,,,,,,,,5,,,78,0
21312,note_on,2,0,2,,,,,,,,,1,,,66,75
21312,note_on,2,0,3,,,,,,,,,2,,,54,75
21312,note_on,2,0,6,,,,,,,,,5,,,81,60
21312,note_on,2,0,4,,,,,,,,,3,,,54,75
21312,note_on,2,0,7,,,,,,,,,7,,,54,60
21312,note_on,0,0,7,,,,,,,,,7,,,61,60
21312,note_on,0,0,7,,,,,,,,,7,,,57,60
21406,note_on,0,0,7,,,,,,,,,7,,,61,0
21406,note_on,94,0,6,,,,,,,,,5,,,81,0
21406,note_on,0,0,7,,,,,,,,,7,,,57,0
21406,note_on,94,0,7,,,,,,,,,7,,,54,0
21408,note_on,0,0,7,,,,,,,,,7,,,61,60
21408,note_on,0,0,7,,,,,,,,,7,,,57,60
21408,note_on,2,0,7,,,,,,,,,7,,,54,60
21408,note_on,2,0,6,,,,,,,,,5,,,78,60
21472,note_on,160,0,2,,,,,,,,,1,,,66,0
21472,note_on,160,0,4,,,,,,,,,3,,,54,0
21472,note_on,160,0,3,,,,,,,,,2,,,54,0
21502,note_on,0,0,7,,,,,,,,,7,,,57,0
21502,note_on,94,0,7,,,,,,,,,7,,,54,0
21502,note_on,0,0,7,,,,,,,,,7,,,61,0
21502,note_on,94,0,6,,,,,,,,,5,,,78,0
21504,note_on,2,0,7,,,,,,,,,7,,,54,75
21504,note_on,1776,0,1,,,,,,,,,0,,,74,92
21504,note_on,0,0,7,,,,,,,,,7,,,62,75
21504,note_on,2,0,6,,,,,,,,,5,,,69,75
21552,note_on,464,0,5,,,,,,,,,6,,,69,75
21598,note_on,94,0,7,,,,,,,,,7,,,54,0
21598,note_on,0,0,7,,,,,,,,,7,,,62,0
21598,note_on,46,0,5,,,,,,,,,6,,,69,0
21600,note_on,2,0,7,,,,,,,,,7,,,54,75
21600,note_on,2,0,5,,,,,,,,,6,,,69,75
21600,note_on,0,0,7,,,,,,,,,7,,,62,75
21646,note_on,46,0,5,,,,,,,,,6,,,69,0
21648,note_on,2,0,5,,,,,,,,,6,,,69,75
21664,note_on,160,0,6,,,,,,,,,5,,,69,0
21694,note_on,46,0,5,,,,,,,,,6,,,69,0
21694,note_on,0,0,7,,,,,,,,,7,,,62,0
21694,note_on,94,0,7,,,,,,,,,7,,,54,0
21696,note_on,2,0,7,,,,,,,,,7,,,54,75
21696,note_on,0,0,7,,,,,,,,,7,,,62,75
21696,note_on,224,0,4,,,,,,,,,3,,,54,92
21696,note_on,2,0,5,,,,,,,,,6,,,78,75
21742,note_on,46,0,5,,,,,,,,,6,,,78,0
21744,note_on,2,0,5,,,,,,,,,6,,,69,75
21790,note_on,46,0,5,,,,,,,,,6,,,69,0
21790,note_on,0,0,7,,,,,,,,,7,,,62,0
21790,note_on,94,0,7,,,,,,,,,7,,,54,0
21792,note_on,0,0,7,,,,,,,,,7,,,62,75
21792,note_on,2,0,7,,,,,,,,,7,,,54,75
21792,note_on,2,0,5,,,,,,,,,6,,,69,75
21838,note_on,46,0,5,,,,,,,,,6,,,69,0
21840,note_on,2,0,5,,,,,,,,,6,,,69,75
21840,note_on,336,0,1,,,,,,,,,0,,,74,0
21856,note_on,160,0,4,,,,,,,,,3,,,54,0
21886,note_on,94,0,7,,,,,,,,,7,,,54,0
21886,note_on,0,0,7,,,,,,,,,7,,,62,0
21886,note_on,46,0,5,,,,,,,,,6,,,69,0
21888,note_on,2,0,7,,,,,,,,,7,,,54,75
21888,note_on,224,0,6,,,,,,,,,5,,,74,75
21888,note_on,32,0,4,,,,,,,,,3,,,54,92
21888,note_on,2,0,5,,,,,,,,,6,,,78,75
21888,note_on,48,0,1,,,,,,,,,0,,,73,92
21934,note_on,46,0,5,,,,,,,,,6,,,78,0
21936,note_on,2,0,5,,,,,,,,,6,,,69,75
21982,note_on,46,0,5,,,,,,,,,6,,,69,0
21982,note_on,94,0,6,,,,,,,,,5,,,74,0
21982,note_on,94,0,7,,,,,,,,,7,,,54,0
21984,note_on,2,0,5,,,,,,,,,6,,,69,75
21984,note_on,2,0,6,,,,,,,,,5,,,73,75
21984,note_on,2,0,7,,,,,,,,,7,,,54,75
22030,note_on,46,0,5,,,,,,,,,6,,,69,0
22032,note_on,2,0,5,,,,,,,,,6,,,69,75
22048,note_on,160,0,4,,,,,,,,,3,,,54,0
22048,note_on,160,0,1,,,,,,,,,0,,,73,0
22078,note_on,46,0,5,,,,,,,,,6,,,69,0
22078,note_on,94,0,6,,,,,,,,,5,,,73,0
22078,note_on,94,0,7,,,,,,,,,7,,,54,0
22080,note_on,32,0,4,,,,,,,,,3,,,56,92
22080,note_on,32,0,1,,,,,,,,,0,,,72,92
22080,note_on,2,0,6,,,,,,,,,5,,,72,75
22080,note_on,2,0,7,,,,,,,,,7,,,56,75
22128,note_on,50,0,5,,,,,,,,,6,,,75,75
22174,note_on,46,0,5,,,,,,,,,6,,,75,0
22174,note_on,94,0,6,,,,,,,,,5,,,72,0
22174,note_on,94,0,7,,,,,,,,,7,,,56,0
22176,note_on,2,0,6,,,,,,,,,5,,,72,75
22176,note_on,2,0,5,,,,,,,,,6,,,75,75
22176,note_on,2,0,7,,,,,,,,,7,,,56,75
22222,note_on,46,0,5,,,,,,,,,6,,,75,0
22224,note_on,2,0,5,,,,,,,,,6,,,75,75
22270,note_on,46,0,5,,,,,,,,,6,,,75,0
22270,note_on,94,0,7,,,,,,,,,7,,,56,0
22270,note_on,94,0,6,,,,,,,,,5,,,72,0
22272,note_on,800,0,3,,,,,,,,,2,,,63,92
22272,note_on,800,0,2,,,,,,,,,1,,,68,92
22272,note_on,2,0,6,,,,,,,,,5,,,72,75
22272,note_on,2,0,5,,,,,,,,,6,,,80,75
22272,note_on,2,0,7,,,,,,,,,7,,,56,75
22318,note_on,46,0,5,,,,,,,,,6,,,80,0
22320,note_on,2,0,5,,,,,,,,,6,,,75,75
22366,note_on,94,0,6,,,,,,,,,5,,,72,0
22366,note_on,94,0,7,,,,,,,,,7,,,56,0
22366,note_on,46,0,5,,,,,,,,,6,,,75,0
22368,note_on,2,0,7,,,,,,,,,7,,,56,75
22368,note_on,2,0,5,,,,,,,,,6,,,75,75
22368,note_on,2,0,6,,,,,,,,,5,,,72,75
22414,note_on,46,0,5,,,,,,,,,6,,,75,0
22416,note_on,2,0,5,,,,,,,,,6,,,75,75
22432,note_on,160,0,2,,,,,,,,,1,,,68,0
22432,note_on,160,0,3,,,,,,,,,2,,,63,0
22462,note_on,94,0,7,,,,,,,,,7,,,56,0
22462,note_on,46,0,5,,,,,,,,,6,,,75,0
22462,note_on,94,0,6,,,,,,,,,5,,,72,0
22464,note_on,32,0,3,,,,,,,,,2,,,60,92
22464,note_on,2,0,5,,,,,,,,,6,,,80,75
22464,note_on,2,0,6,,,,,,,,,5,,,72,75
22464,note_on,32,0,2,,,,,,,,,1,,,66,92
22464,note_on,2,0,7,,,,,,,,,7,,,56,75
22510,note_on,46,0,5,,,,,,,,,6,,,80,0
22512,note_on,2,0,5,,,,,,,,,6,,,75,75
22558,note_on,46,0,5,,,,,,,,,6,,,75,0
22558,note_on,94,0,7,,,,,,,,,7,,,56,0
22558,note_on,94,0,6,,,,,,,,,5,,,72,0
22560,note_on,2,0,7,,,,,,,,,7,,,56,75
22560,note_on,2,0,5,,,,,,,,,6,,,75,75
22560,note_on,2,0,6,,,,,,,,,5,,,72,75
22606,note_on,46,0,5,,,,,,,,,6,,,75,0
22608,note_on,2,0,5,,,,,,,,,6,,,75,75
22608,note_on,528,0,4,,,,,,,,,3,,,56,0
22608,note_on,528,0,1,,,,,,,,,0,,,72,0
22624,note_on,160,0,2,,,,,,,,,1,,,66,0
22624,note_on,160,0,3,,,,,,,,,2,,,60,0
22654,note_on,94,0,7,,,,,,,,,7,,,56,0
22654,note_on,46,0,5,,,,,,,,,6,,,75,0
22654,note_on,94,0,6,,,,,,,,,5,,,72,0
22656,note_on,32,0,2,,,,,,,,,1,,,64,92
22656,note_on,2,0,7,,,,,,,,,7,,,49,75
22656,note_on,48,0,4,,,,,,,,,3,,,49,92
22656,note_on,2,0,6,,,,,,,,,5,,,68,75
22656,note_on,48,0,1,,,,,,,,,0,,,73,92
22656,note_on,32,0,3,,,,,,,,,2,,,56,92
22656,note_on,2,0,5,,,,,,,,,6,,,76,75
22702,note_on,46,0,5,,,,,,,,,6,,,76,0
22704,note_on,2,0,5,,,,,,,,,6,,,68,75
22750,note_on,46,0,5,,,,,,,,,6,,,68,0
22750,note_on,94,0,7,,,,,,,,,7,,,49,0
22750,note_on,94,0,2,,,,,,,,,1,,,64,0
22750,note_on,94,0,6,,,,,,,,,5,,,68,0
22750,note_on,94,0,3,,,,,,,,,2,,,56,0
22752,note_on,2,0,3,,,,,,,,,2,,,56,92
22752,note_on,2,0,6,,,,,,,,,5,,,68,75
22752,note_on,2,0,5,,,,,,,,,6,,,68,75
22752,note_on,2,0,7,,,,,,,,,7,,,49,75
22752,note_on,2,0,2,,,,,,,,,1,,,61,92
22798,note_on,46,0,5,,,,,,,,,6,,,68,0
22800,note_on,2,0,5,,,,,,,,,6,,,68,75
22816,note_on,160,0,4,,,,,,,,,3,,,49,0
22816,note_on,160,0,1,,,,,,,,,0,,,73,0
22846,note_on,94,0,2,,,,,,,,,1,,,61,0
22846,note_on,94,0,7,,,,,,,,,7,,,49,0
22846,note_on,94,0,6,,,,,,,,,5,,,68,0
22846,note_on,46,0,5,,,,,,,,,6,,,68,0
22846,note_on,94,0,3,,,,,,,,,2,,,56,0
22848,note_on,2,0,3,,,,,,,,,2,,,56,92
22848,note_on,2,0,2,,,,,,,,,1,,,63,92
22848,note_on,32,0,4,,,,,,,,,3,,,56,92
22848,note_on,2,0,6,,,,,,,,,5,,,68,75
22848,note_on,2,0,7,,,,,,,,,7,,,56,75
22848,note_on,32,0,1,,,,,,,,,0,,,72,92
22848,note_on,2,0,5,,,,,,,,,6,,,72,75
22894,note_on,46,0,5,,,,,,,,,6,,,72,0
22896,note_on,2,0,5,,,,,,,,,6,,,68,75
22942,note_on,46,0,5,,,,,,,,,6,,,68,0
22942,note_on,94,0,6,,,,,,,,,5,,,68,0
22942,note_on,94,0,7,,,,,,,,,7,,,56,0
22944,note_on,2,0,5,,,,,,,,,6,,,68,75
22944,note_on,2,0,6,,,,,,,,,5,,,68,75
22944,note_on,2,0,7,,,,,,,,,7,,,56,75
22990,note_on,46,0,5,,,,,,,,,6,,,68,0
22992,note_on,2,0,5,,,,,,,,,6,,,68,75
23038,note_on,46,0,5,,,,,,,,,6,,,68,0
23038,note_on,94,0,7,,,,,,,,,7,,,56,0
23038,note_on,94,0,6,,,,,,,,,5,,,68,0
23040,note_on,2,0,7,,,,,,,,,7,,,44,75
23040,note_on,2,0,6,,,,,,,,,5,,,68,75
23040,note_on,2,0,5,,,,,,,,,6,,,72,75
23040,note_on,0,0,5,,,,,,,,,6,,,75,75
23086,note_on,46,0,5,,,,,,,,,6,,,72,0
23086,note_on,0,0,5,,,,,,,,,6,,,75,0
23088,note_on,2,0,5,,,,,,,,,6,,,68,75
23134,note_on,46,0,5,,,,,,,,,6,,,68,0
23134,note_on,94,0,7,,,,,,,,,7,,,44,0
23134,note_on,94,0,6,,,,,,,,,5,,,68,0
23136,note_on,2,0,6,,,,,,,,,5,,,68,75
23136,note_on,2,0,5,,,,,,,,,6,,,68,75
23136,note_on,2,0,7,,,,,,,,,7,,,44,75
23182,note_on,46,0,5,,,,,,,,,6,,,68,0
23184,note_on,336,0,4,,,,,,,,,3,,,56,0
23184,note_on,336,0,1,,,,,,,,,0,,,72,0
23184,note_on,2,0,5,,,,,,,,,6,,,68,75
23184,note_on,336,0,2,,,,,,,,,1,,,63,0
23184,note_on,336,0,3,,,,,,,,,2,,,56,0
23230,note_on,94,0,6,,,,,,,,,5,,,68,0
23230,note_on,46,0,5,,,,,,,,,6,,,68,0
23230,note_on,94,0,7,,,,,,,,,7,,,44,0
23232,note_on,48,0,1,,,,,,,,,0,,,73,92
23232,note_on,48,0,4,,,,,,,,,3,,,49,92
23232,note_on,48,0,3,,,,,,,,,2,,,56,92
23232,note_on,2,0,6,,,,,,,,,5,,,68,92
23232,note_on,0,0,5,,,,,,,,,6,,,76,92
23232,note_on,48,0,2,,,,,,,,,1,,,61,92
23232,note_on,2,0,5,,,,,,,,,6,,,73,92
23232,note_on,2,0,7,,,,,,,,,7,,,49,92
23326,note_on,94,0,6,,,,,,,,,5,,,68,0
23326,note_on,94,0,7,,,,,,,,,7,,,49,0
23328,note_on,2,0,6,,,,,,,,,5,,,68,92
23328,note_on,2,0,7,,,,,,,,,7,,,49,92
23392,note_on,160,0,5,,,,,,,,,6,,,73,0
23392,note_on,0,0,5,,,,,,,,,6,,,76,0
23392,note_on,160,0,2,,,,,,,,,1,,,61,0
23422,note_on,94,0,6,,,,,,,,,5,,,68,0
23422,note_on,94,0,7,,,,,,,,,7,,,49,0
23424,note_on,2,0,6,,,,,,,,,5,,,65,92
23424,note_on,32,0,5,,,,,,,,,6,,,68,92
23424,note_on,32,0,2,,,,,,,,,1,,,68,108
23424,note_on,2,0,7,,,,,,,,,7,,,49,92
23518,note_on,94,0,7,,,,,,,,,7,,,49,0
23518,note_on,94,0,6,,,,,,,,,5,,,65,0
23520,note_on,2,0,6,,,,,,,,,5,,,65,92
23520,note_on,2,0,7,,,,,,,,,7,,,49,92
23584,note_on,160,0,5,,,,,,,,,6,,,68,0
23584,note_on,160,0,2,,,,,,,,,1,,,68,0
23614,note_on,94,0,7,,,,,,,,,7,,,49,0
23614,note_on,94,0,6,,,,,,,,,5,,,65,0
23616,note_on,32,0,2,,,,,,,,,1,,,68,108
23616,note_on,2,0,7,,,,,,,,,7,,,49,92
23616,note_on,32,0,5,,,,,,,,,6,,,65,92
23616,note_on,2,0,6,,,,,,,,,5,,,61,92
23710,note_on,94,0,6,,,,,,,,,5,,,61,0
23710,note_on,94,0,7,,,,,,,,,7,,,49,0
23712,note_on,2,0,7,,,,,,,,,7,,,49,92
23712,note_on,2,0,6,,,,,,,,,5,,,61,92
23760,note_on,528,0,4,,,,,,,,,3,,,49,0
23760,note_on,528,0,3,,,,,,,,,2,,,56,0
23760,note_on,528,0,1,,,,,,,,,0,,,73,0
23776,note_on,160,0,5,,,,,,,,,6,,,65,0
23776,note_on,160,0,2,,,,,,,,,1,,,68,0
23806,note_on,94,0,6,,,,,,,,,5,,,61,0
23806,note_on,94,0,7,,,,,,,,,7,,,49,0
23808,note_on,2,0,7,,,,,,,,,7,,,54,92
23808,note_on,32,0,2,,,,,,,,,1,,,69,108
23808,note_on,32,0,5,,,,,,,,,6,,,73,92
23808,note_on,2,0,6,,,,,,,,,5,,,61,92
23902,note_on,94,0,7,,,,,,,,,7,,,54,0
23904,note_on,2,0,7,,,,,,,,,7,,,54,92
23904,note_on,0,0,7,,,,,,,,,7,,,57,92
23904,note_on,0,0,7,,,,,,,,,7,,,61,92
23968,note_on,160,0,6,,,,,,,,,5,,,61,0
23968,note_on,160,0,5,,,,,,,,,6,,,73,0
23998,note_on,0,0,7,,,,,,,,,7,,,61,0
23998,note_on,0,0,7,,,,,,,,,7,,,57,0
23998,note_on,94,0,7,,,,,,,,,7,,,54,0
24000,note_on,0,0,7,,,,,,,,,7,,,57,92
24000,note_on,32,0,5,,,,,,,,,6,,,69,92
24000,note_on,0,0,7,,,,,,,,,7,,,61,92
24000,note_on,2,0,7,,,,,,,,,7,,,54,92
24000,note_on,240,0,1,,,,,,,,,0,,,73,108
24094,note_on,0,0,7,,,,,,,,,7,,,57,0
24094,note_on,94,0,7,,,,,,,,,7,,,54,0
24094,note_on,0,0,7,,,,,,,,,7,,,61,0
24096,note_on,0,0,7,,,,,,,,,7,,,61,92
24096,note_on,0,0,7,,,,,,,,,7,,,57,92
24096,note_on,2,0,7,,,,,,,,,7,,,54,92
24160,note_on,160,0,5,,,,,,,,,6,,,69,0
24160,note_on,160,0,1,,,,,,,,,0,,,73,0
24190,note_on,0,0,7,,,,,,,,,7,,,57,0
24190,note_on,0,0,7,,,,,,,,,7,,,61,0
24190,note_on,94,0,7,,,,,,,,,7,,,54,0
24192,note_on,0,0,7,,,,,,,,,7,,,61,92
24192,note_on,32,0,1,,,,,,,,,0,,,73,108
24192,note_on,32,0,5,,,,,,,,,6,,,66,92
24192,note_on,2,0,7,,,,,,,,,7,,,54,92
24192,note_on,0,0,7,,,,,,,,,7,,,57,92
24286,note_on,94,0,7,,,,,,,,,7,,,54,0
24286,note_on,0,0,7,,,,,,,,,7,,,57,0
24286,note_on,0,0,7,,,,,,,,,7,,,61,0
24288,note_on,0,0,7,,,,,,,,,7,,,57,92
24288,note_on,2,0,7,,,,,,,,,7,,,54,92
24288,note_on,0,0,7,,,,,,,,,7,,,61,92
24352,note_on,160,0,1,,,,,,,,,0,,,73,0
24352,note_on,160,0,5,,,,,,,,,6,,,66,0
24382,note_on,0,0,7,,,,,,,,,7,,,57,0
24382,note_on,94,0,7,,,,,,,,,7,,,54,0
24382,note_on,0,0,7,,,,,,,,,7,,,61,0
24384,note_on,32,0,1,,,,,,,,,0,,,74,108
24384,note_on,0,0,7,,,,,,,,,7,,,57,92
24384,note_on,32,0,5,,,,,,,,,6,,,62,92
24384,note_on,2,0,7,,,,,,,,,7,,,54,92
24478,note_on,94,0,7,,,,,,,,,7,,,54,0
24478,note_on,0,0,7,,,,,,,,,7,,,57,0
24480,note_on,512,0,6,,,,,,,,,5,,,69,92
24480,note_on,0,0,7,,,,,,,,,7,,,57,92
24480,note_on,2,0,7,,,,,,,,,7,,,54,92
24544,note_on,160,0,5,,,,,,,,,6,,,62,0
24574,note_on,94,0,7,,,,,,,,,7,,,54,0
24574,note_on,0,0,7,,,,,,,,,7,,,57,0
24574,note_on,94,0,6,,,,,,,,,5,,,69,0
24576,note_on,0,0,6,,,,,,,,,5,,,74,92
24576,note_on,816,0,4,,,,,,,,,3,,,54,108
24576,note_on,2,0,6,,,,,,,,,5,,,69,92
24576,note_on,2,0,7,,,,,,,,,7,,,54,92
24670,note_on,0,0,6,,,,,,,,,5,,,74,0
24670,note_on,94,0,6,,,,,,,,,5,,,69,0
24670,note_on,94,0,7,,,,,,,,,7,,,54,0
24672,note_on,2,0,7,,,,,,,,,7,,,54,92
24672,note_on,0,0,6,,,,,,,,,5,,,78,92
24672,note_on,0,0,6,,,,,,,,,5,,,74,92
24672,note_on,2,0,6,,,,,,,,,5,,,69,92
24720,note_on,336,0,1,,,,,,,,,0,,,74,0
24720,note_on,912,0,2,,,,,,,,,1,,,69,0
24736,note_on,160,0,4,,,,,,,,,3,,,54,0
24766,note_on,94,0,7,,,,,,,,,7,,,54,0
24766,note_on,0,0,6,,,,,,,,,5,,,74,0
24766,note_on,94,0,6,,,,,,,,,5,,,69,0
24766,note_on,0,0,6,,,,,,,,,5,,,78,0
24768,note_on,2,0,6,,,,,,,,,5,,,69,92
24768,note_on,48,0,1,,,,,,,,,0,,,73,108
24768,note_on,2,0,7,,,,,,,,,7,,,54,92
24768,note_on,0,0,6,,,,,,,,,5,,,74,92
24768,note_on,32,0,4,,,,,,,,,3,,,54,108
24768,note_on,48,0,2,,,,,,,,,1,,,69,108
24768,note_on,0,0,6,,,,,,,,,5,,,81,92
24862,note_on,94,0,7,,,,,,,,,7,,,54,0
24862,note_on,0,0,6,,,,,,,,,5,,,81,0
24862,note_on,0,0,6,,,,,,,,,5,,,74,0
24862,note_on,94,0,6,,,,,,,,,5,,,69,0
24864,note_on,0,0,6,,,,,,,,,5,,,78,92
24864,note_on,0,0,6,,,,,,,,,5,,,73,92
24864,note_on,2,0,7,,,,,,,,,7,,,54,92
24864,note_on,2,0,6,,,,,,,,,5,,,69,92
24928,note_on,160,0,2,,,,,,,,,1,,,69,0
24928,note_on,160,0,1,,,,,,,,,0,,,73,0
24928,note_on,160,0,4,,,,,,,,,3,,,54,0
24958,note_on,94,0,7,,,,,,,,,7,,,54,0
24958,note_on,94,0,6,,,,,,,,,5,,,69,0
24958,note_on,0,0,6,,,,,,,,,5,,,73,0
24958,note_on,0,0,6,,,,,,,,,5,,,78,0
24960,note_on,2,0,7,,,,,,,,,7,,,56,92
24960,note_on,2,0,6,,,,,,,,,5,,,69,92
24960,note_on,0,0,6,,,,,,,,,5,,,72,92
24960,note_on,0,0,6,,,,,,,,,5,,,75,92
24960,note_on,32,0,4,,,,,,,,,3,,,56,108
24960,note_on,32,0,1,,,,,,,,,0,,,72,108
24960,note_on,32,0,2,,,,,,,,,1,,,69,108
25054,note_on,94,0,7,,,,,,,,,7,,,56,0
25056,note_on,512,0,5,,,,,,,,,6,,,72,92
25056,note_on,2,0,7,,,,,,,,,7,,,56,92
25120,note_on,160,0,6,,,,,,,,,5,,,69,0
25120,note_on,0,0,6,,,,,,,,,5,,,72,0
25120,note_on,0,0,6,,,,,,,,,5,,,75,0
25150,note_on,94,0,5,,,,,,,,,6,,,72,0
25150,note_on,94,0,7,,,,,,,,,7,,,56,0
25152,note_on,2,0,7,,,,,,,,,7,,,56,92
25152,note_on,32,0,6,,,,,,,,,5,,,68,92
25152,note_on,0,0,6,,,,,,,,,5,,,72,92
25152,note_on,192,0,2,,,,,,,,,1,,,69,0
25152,note_on,2,0,5,,,,,,,,,6,,,75,92
25152,note_on,0,0,2,,,,,,,,,1,,,68,108
25246,note_on,94,0,7,,,,,,,,,7,,,56,0
25246,note_on,94,0,5,,,,,,,,,6,,,75,0
25248,note_on,2,0,5,,,,,,,,,6,,,80,92
25248,note_on,2,0,7,,,,,,,,,7,,,56,92
25296,note_on,336,0,1,,,,,,,,,0,,,72,0
25296,note_on,336,0,4,,,,,,,,,3,,,56,0
25312,note_on,160,0,2,,,,,,,,,1,,,68,0
25312,note_on,160,0,6,,,,,,,,,5,,,68,0
25342,note_on,94,0,5,,,,,,,,,6,,,80,0
25342,note_on,94,0,7,,,,,,,,,7,,,56,0
25344,note_on,32,0,2,,,,,,,,,1,,,66,108
25344,note_on,32,0,6,,,,,,,,,5,,,66,92
25344,note_on,48,0,1,,,,,,,,,0,,,72,108
25344,note_on,48,0,4,,,,,,,,,3,,,56,108
25344,note_on,2,0,5,,,,,,,,,6,,,75,92
25344,note_on,2,0,7,,,,,,,,,7,,,56,92
25438,note_on,94,0,7,,,,,,,,,7,,,56,0
25438,note_on,94,0,5,,,,,,,,,6,,,75,0
25440,note_on,2,0,7,,,,,,,,,7,,,56,92
25440,note_on,2,0,5,,,,,,,,,6,,,72,92
25488,note_on,144,0,6,,,,,,,,,5,,,72,0
25504,note_on,160,0,1,,,,,,,,,0,,,72,0
25504,note_on,160,0,2,,,,,,,,,1,,,66,0
25504,note_on,16,0,6,,,,,,,,,5,,,66,0
25504,note_on,160,0,4,,,,,,,,,3,,,56,0
25534,note_on,94,0,5,,,,,,,,,6,,,72,0
25534,note_on,94,0,7,,,,,,,,,7,,,56,0
25536,note_on,32,0,4,,,,,,,,,3,,,49,108
25536,note_on,32,0,1,,,,,,,,,0,,,73,108
25536,note_on,2,0,7,,,,,,,,,7,,,49,92
25536,note_on,32,0,2,,,,,,,,,1,,,64,108
25536,note_on,0,0,7,,,,,,,,,7,,,56,92
25536,note_on,2,0,5,,,,,,,,,6,,,64,92
25536,note_on,0,0,5,,,,,,,,,6,,,68,92
25584,note_on,80,0,6,,,,,,,,,5,,,68,92
25630,note_on,0,0,7,,,,,,,,,7,,,56,0
25630,note_on,46,0,6,,,,,,,,,5,,,68,0
25630,note_on,94,0,7,,,,,,,,,7,,,49,0
25632,note_on,2,0,7,,,,,,,,,7,,,49,92
25632,note_on,2,0,6,,,,,,,,,5,,,68,92
25632,note_on,0,0,7,,,,,,,,,7,,,56,92
25678,note_on,46,0,6,,,,,,,,,5,,,68,0
25680,note_on,2,0,6,,,,,,,,,5,,,68,92
25696,note_on,0,0,5,,,,,,,,,6,,,68,0
25696,note_on,160,0,5,,,,,,,,,6,,,64,0
25726,note_on,46,0,6,,,,,,,,,5,,,68,0
25726,note_on,0,0,7,,,,,,,,,7,,,56,0
25726,note_on,94,0,7,,,,,,,,,7,,,49,0
25728,note_on,2,0,6,,,,,,,,,5,,,64,92
25728,note_on,0,0,6,,,,,,,,,5,,,73,92
25728,note_on,1968,0,3,,,,,,,,,2,,,56,92
25728,note_on,2,0,7,,,,,,,,,7,,,49,92
25728,note_on,0,0,7,,,,,,,,,7,,,56,92
25774,note_on,46,0,6,,,,,,,,,5,,,64,0
25774,note_on,0,0,6,,,,,,,,,5,,,73,0
25776,note_on,2,0,6,,,,,,,,,5,,,68,92
25792,note_on,256,0,1,,,,,,,,,0,,,73,0
25792,note_on,256,0,2,,,,,,,,,1,,,64,0
25822,note_on,94,0,7,,,,,,,,,7,,,49,0
25822,note_on,0,0,7,,,,,,,,,7,,,56,0
25822,note_on,46,0,6,,,,,,,,,5,,,68,0
25824,note_on,32,0,2,,,,,,,,,1,,,63,108
25824,note_on,2,0,6,,,,,,,,,5,,,68,92
25824,note_on,2,0,7,,,,,,,,,7,,,49,92
25824,note_on,32,0,1,,,,,,,,,0,,,73,108
25824,note_on,0,0,7,,,,,,,,,7,,,56,92
25870,note_on,46,0,6,,,,,,,,,5,,,68,0
25872,note_on,2,0,6,,,,,,,,,5,,,68,92
25872,note_on,336,0,4,,,,,,,,,3,,,49,0
25888,note_on,160,0,3,,,,,,,,,2,,,56,0
25918,note_on,46,0,6,,,,,,,,,5,,,68,0
25918,note_on,94,0,7,,,,,,,,,7,,,49,0
25918,note_on,0,0,7,,,,,,,,,7,,,56,0
25918,note_on,94,0,2,,,,,,,,,1,,,63,0
25918,note_on,94,0,1,,,,,,,,,0,,,73,0
25920,note_on,2,0,2,,,,,,,,,1,,,61,108
25920,note_on,2,0,6,,,,,,,,,5,,,68,92
25920,note_on,2,0,7,,,,,,,,,7,,,49,92
25920,note_on,48,0,4,,,,,,,,,3,,,49,108
25920,note_on,32,0,3,,,,,,,,,2,,,56,92
25920,note_on,0,0,6,,,,,,,,,5,,,76,92
25920,note_on,2,0,1,,,,,,,,,0,,,73,108
25920,note_on,0,0,7,,,,,,,,,7,,,61,92
25966,note_on,0,0,6,,,,,,,,,5,,,76,0
25966,note_on,46,0,6,,,,,,,,,5,,,68,0
25968,note_on,2,0,6,,,,,,,,,5,,,73,92
26014,note_on,0,0,7,,,,,,,,,7,,,61,0
26014,note_on,46,0,6,,,,,,,,,5,,,73,0
26014,note_on,94,0,7,,,,,,,,,7,,,49,0
26016,note_on,2,0,6,,,,,,,,,5,,,73,92
26016,note_on,0,0,7,,,,,,,,,7,,,61,92
26016,note_on,2,0,7,,,,,,,,,7,,,49,92
26062,note_on,46,0,6,,,,,,,,,5,,,73,0
26064,note_on,2,0,6,,,,,,,,,5,,,73,92
26080,note_on,160,0,4,,,,,,,,,3,,,49,0
26080,note_on,160,0,2,,,,,,,,,1,,,61,0
26080,note_on,160,0,3,,,,,,,,,2,,,56,0
26080,note_on,160,0,1,,,,,,,,,0,,,73,0
26110,note_on,46,0,6,,,,,,,,,5,,,73,0
26110,note_on,94,0,7,,,,,,,,,7,,,49,0
26110,note_on,0,0,7,,,,,,,,,7,,,61,0
26112,note_on,32,0,4,,,,,,,,,3,,,54,108
26112,note_on,2,0,7,,,,,,,,,7,,,54,92
26112,note_on,0,0,7,,,,,,,,,7,,,61,92
26112,note_on,32,0,3,,,,,,,,,2,,,57,92
26112,note_on,2,0,6,,,,,,,,,5,,,81,92
26160,note_on,464,0,5,,,,,,,,,6,,,73,92
26206,note_on,0,0,7,,,,,,,,,7,,,61,0
26206,note_on,94,0,7,,,,,,,,,7,,,54,0
26206,note_on,46,0,5,,,,,,,,,6,,,73,0
26208,note_on,2,0,7,,,,,,,,,7,,,54,92
26208,note_on,0,0,7,,,,,,,,,7,,,61,92
26208,note_on,2,0,5,,,,,,,,,6,,,73,92
26254,note_on,46,0,5,,,,,,,,,6,,,73,0
26256,note_on,2,0,5,,,,,,,,,6,,,73,92
26272,note_on,160,0,6,,,,,,,,,5,,,81,0
26302,note_on,46,0,5,,,,,,,,,6,,,73,0
26302,note_on,94,0,7,,,,,,,,,7,,,54,0
26302,note_on,0,0,7,,,,,,,,,7,,,61,0
26304,note_on,2,0,5,,,,,,,,,6,,,81,92
26304,note_on,224,0,1,,,,,,,,,0,,,69,108
26304,note_on,0,0,7,,,,,,,,,7,,,61,92
26304,note_on,2,0,7,,,,,,,,,7,,,54,92
26350,note_on,46,0,5,,,,,,,,,6,,,81,0
26352,note_on,2,0,5,,,,,,,,,6,,,73,92
26368,note_on,256,0,4,,,,,,,,,3,,,54,0
26398,note_on,0,0,7,,,,,,,,,7,,,61,0
26398,note_on,94,0,7,,,,,,,,,7,,,54,0
26398,note_on,46,0,5,,,,,,,,,6,,,73,0
26400,note_on,2,0,7,,,,,,,,,7,,,54,92
26400,note_on,0,0,7,,,,,,,,,7,,,61,92
26400,note_on,32,0,4,,,,,,,,,3,,,54,108
26400,note_on,2,0,5,,,,,,,,,6,,,73,92
26446,note_on,46,0,5,,,,,,,,,6,,,73,0
26448,note_on,2,0,5,,,,,,,,,6,,,73,92
26464,note_on,160,0,1,,,,,,,,,0,,,69,0
26494,note_on,94,0,4,,,,,,,,,3,,,54,0
26494,note_on,94,0,7,,,,,,,,,7,,,54,0
26494,note_on,46,0,5,,,,,,,,,6,,,73,0
26494,note_on,0,0,7,,,,,,,,,7,,,61,0
26496,note_on,0,0,7,,,,,,,,,7,,,61,92
26496,note_on,2,0,7,,,,,,,,,7,,,54,92
26496,note_on,2,0,4,,,,,,,,,3,,,54,108
26496,note_on,2,0,5,,,,,,,,,6,,,81,92
26496,note_on,32,0,1,,,,,,,,,0,,,78,108
26542,note_on,46,0,5,,,,,,,,,6,,,81,0
26544,note_on,2,0,5,,,,,,,,,6,,,73,92
26590,note_on,0,0,7,,,,,,,,,7,,,61,0
26590,note_on,94,0,7,,,,,,,,,7,,,54,0
26590,note_on,46,0,5,,,,,,,,,6,,,73,0
26592,note_on,0,0,7,,,,,,,,,7,,,61,92
26592,note_on,2,0,7,,,,,,,,,7,,,54,92
26592,note_on,2,0,5,,,,,,,,,6,,,73,92
26638,note_on,46,0,5,,,,,,,,,6,,,73,0
26640,note_on,528,0,3,,,,,,,,,2,,,57,0
26640,note_on,2,0,5,,,,,,,,,6,,,73,92
26656,note_on,160,0,4,,,,,,,,,3,,,54,0
26656,note_on,160,0,1,,,,,,,,,0,,,78,0
26686,note_on,0,0,7,,,,,,,,,7,,,61,0
26686,note_on,94,0,7,,,,,,,,,7,,,54,0
26686,note_on,46,0,5,,,,,,,,,6,,,73,0
26688,note_on,2,0,5,,,,,,,,,6,,,73,92
26688,note_on,2,0,7,,,,,,,,,7,,,42,92
26688,note_on,416,0,6,,,,,,,,,5,,,70,92
26688,note_on,0,0,6,,,,,,,,,5,,,76,92
26688,note_on,48,0,3,,,,,,,,,2,,,58,92
26688,note_on,32,0,1,,,,,,,,,0,,,76,108
26782,note_on,94,0,7,,,,,,,,,7,,,42,0
26784,note_on,0,0,7,,,,,,,,,7,,,49,92
26784,note_on,2,0,7,,,,,,,,,7,,,42,92
26848,note_on,0,0,6,,,,,,,,,5,,,76,0
26848,note_on,160,0,5,,,,,,,,,6,,,73,0
26848,note_on,160,0,6,,,,,,,,,5,,,70,0
26878,note_on,0,0,7,,,,,,,,,7,,,49,0
26878,note_on,94,0,7,,,,,,,,,7,,,42,0
26880,note_on,0,0,6,,,,,,,,,5,,,73,92
26880,note_on,32,0,6,,,,,,,,,5,,,70,92
26880,note_on,0,0,7,,,,,,,,,7,,,49,92
26880,note_on,2,0,7,,,,,,,,,7,,,42,92
26880,note_on,224,0,4,,,,,,,,,3,,,49,108
26974,note_on,0,0,7,,,,,,,,,7,,,49,0
26974,note_on,94,0,7,,,,,,,,,7,,,42,0
26976,note_on,0,0,7,,,,,,,,,7,,,49,92
26976,note_on,2,0,7,,,,,,,,,7,,,42,92
27024,note_on,336,0,1,,,,,,,,,0,,,76,0
27040,note_on,0,0,6,,,,,,,,,5,,,73,0
27040,note_on,160,0,6,,,,,,,,,5,,,70,0
27040,note_on,160,0,4,,,,,,,,,3,,,49,0
27070,note_on,0,0,7,,,,,,,,,7,,,49,0
27070,note_on,94,0,7,,,,,,,,,7,,,42,0
27072,note_on,0,0,7,,,,,,,,,7,,,49,92
27072,note_on,2,0,7,,,,,,,,,7,,,42,92
27072,note_on,32,0,6,,,,,,,,,5,,,64,92
27072,note_on,48,0,1,,,,,,,,,0,,,76,108
27072,note_on,0,0,6,,,,,,,,,5,,,70,92
27072,note_on,32,0,4,,,,,,,,,3,,,49,108
27166,note_on,94,0,7,,,,,,,,,7,,,42,0
27166,note_on,0,0,7,,,,,,,,,7,,,49,0
27168,note_on,0,0,7,,,,,,,,,7,,,49,92
27168,note_on,2,0,7,,,,,,,,,7,,,42,92
27216,note_on,528,0,3,,,,,,,,,2,,,58,0
27232,note_on,160,0,4,,,,,,,,,3,,,49,0
27232,note_on,160,0,6,,,,,,,,,5,,,64,0
27232,note_on,160,0,1,,,,,,,,,0,,,76,0
27232,note_on,0,0,6,,,,,,,,,5,,,70,0
27262,note_on,94,0,7,,,,,,,,,7,,,42,0
27262,note_on,0,0,7,,,,,,,,,7,,,49,0
27264,note_on,32,0,6,,,,,,,,,5,,,66,92
27264,note_on,32,0,4,,,,,,,,,3,,,50,108
27264,note_on,0,0,7,,,,,,,,,7,,,50,92
27264,note_on,32,0,1,,,,,,,,,0,,,74,108
27264,note_on,2,0,7,,,,,,,,,7,,,47,92
27264,note_on,48,0,3,,,,,,,,,2,,,59,92
27264,note_on,416,0,5,,,,,,,,,6,,,78,92
27358,note_on,94,0,7,,,,,,,,,7,,,47,0
27358,note_on,0,0,7,,,,,,,,,7,,,50,0
27360,note_on,2,0,7,,,,,,,,,7,,,47,92
27360,note_on,0,0,7,,,,,,,,,7,,,50,92
27424,note_on,160,0,6,,,,,,,,,5,,,66,0
27424,note_on,160,0,5,,,,,,,,,6,,,78,0
27454,note_on,94,0,7,,,,,,,,,7,,,47,0
27454,note_on,0,0,7,,,,,,,,,7,,,50,0
27456,note_on,1376,0,2,,,,,,,,,1,,,66,108
27456,note_on,0,0,7,,,,,,,,,7,,,54,92
27456,note_on,2,0,7,,,,,,,,,7,,,47,92
27456,note_on,32,0,5,,,,,,,,,6,,,74,92
27550,note_on,0,0,7,,,,,,,,,7,,,54,0
27550,note_on,94,0,7,,,,,,,,,7,,,47,0
27552,note_on,2,0,7,,,,,,,,,7,,,47,92
27552,note_on,0,0,7,,,,,,,,,7,,,54,92
27616,note_on,160,0,5,,,,,,,,,6,,,74,0
27616,note_on,160,0,2,,,,,,,,,1,,,66,0
27646,note_on,94,0,7,,,,,,,,,7,,,47,0
27646,note_on,0,0,7,,,,,,,,,7,,,54,0
27648,note_on,0,0,5,,,,,,,,,6,,,71,92
27648,note_on,32,0,5,,,,,,,,,6,,,62,92
27648,note_on,0,0,7,,,,,,,,,7,,,54,92
27648,note_on,2,0,7,,,,,,,,,7,,,47,92
27648,note_on,32,0,2,,,,,,,,,1,,,66,108
27742,note_on,94,0,7,,,,,,,,,7,,,47,0
27742,note_on,0,0,7,,,,,,,,,7,,,54,0
27744,note_on,2,0,7,,,,,,,,,7,,,47,92
27744,note_on,0,0,7,,,,,,,,,7,,,54,92
27792,note_on,528,0,3,,,,,,,,,2,,,59,0
27792,note_on,528,0,4,,,,,,,,,3,,,50,0
27792,note_on,528,0,1,,,,,,,,,0,,,74,0
27808,note_on,0,0,5,,,,,,,,,6,,,71,0
27808,note_on,160,0,5,,,,,,,,,6,,,62,0
27808,note_on,160,0,2,,,,,,,,,1,,,66,0
27838,note_on,94,0,7,,,,,,,,,7,,,47,0
27838,note_on,0,0,7,,,,,,,,,7,,,54,0
27840,note_on,32,0,5,,,,,,,,,6,,,60,92
27840,note_on,0,0,5,,,,,,,,,6,,,63,92
27840,note_on,0,0,7,,,,,,,,,7,,,56,92
27840,note_on,48,0,3,,,,,,,,,2,,,60,92
27840,note_on,48,0,4,,,,,,,,,3,,,51,108
27840,note_on,32,0,2,,,,,,,,,1,,,66,108
27840,note_on,2,0,7,,,,,,,,,7,,,44,92
27934,note_on,94,0,7,,,,,,,,,7,,,44,0
27934,note_on,0,0,7,,,,,,,,,7,,,56,0
27936,note_on,0,0,7,,,,,,,,,7,,,56,92
27936,note_on,512,0,6,,,,,,,,,5,,,66,92
27936,note_on,2,0,7,,,,,,,,,7,,,44,92
28000,note_on,0,0,5,,,,,,,,,6,,,63,0
28000,note_on,160,0,5,,,,,,,,,6,,,60,0
28000,note_on,160,0,2,,,,,,,,,1,,,66,0
28030,note_on,0,0,7,,,,,,,,,7,,,56,0
28030,note_on,94,0,7,,,,,,,,,7,,,44,0
28030,note_on,94,0,6,,,,,,,,,5,,,66,0
28032,note_on,2,0,7,,,,,,,,,7,,,44,92
28032,note_on,0,0,7,,,,,,,,,7,,,56,92
28032,note_on,0,0,6,,,,,,,,,5,,,72,92
28032,note_on,2,0,6,,,,,,,,,5,,,66,92
28032,note_on,32,0,2,,,,,,,,,1,,,66,108
28126,note_on,0,0,6,,,,,,,,,5,,,72,0
28126,note_on,94,0,7,,,,,,,,,7,,,44,0
28126,note_on,0,0,7,,,,,,,,,7,,,56,0
28126,note_on,94,0,6,,,,,,,,,5,,,66,0
28128,note_on,2,0,7,,,,,,,,,7,,,44,92
28128,note_on,0,0,7,,,,,,,,,7,,,56,92
28128,note_on,2,0,6,,,,,,,,,5,,,75,92
28192,note_on,160,0,2,,,,,,,,,1,,,66,0
28222,note_on,94,0,7,,,,,,,,,7,,,44,0
28222,note_on,0,0,7,,,,,,,,,7,,,56,0
28222,note_on,94,0,6,,,,,,,,,5,,,75,0
28224,note_on,0,0,7,,,,,,,,,7,,,56,92
28224,note_on,2,0,7,,,,,,,,,7,,,44,92
28224,note_on,32,0,2,,,,,,,,,1,,,66,108
28224,note_on,2,0,6,,,,,,,,,5,,,72,92
28224,note_on,0,0,6,,,,,,,,,5,,,78,92
28318,note_on,0,0,7,,,,,,,,,7,,,56,0
28318,note_on,94,0,7,,,,,,,,,7,,,44,0
28318,note_on,94,0,6,,,,,,,,,5,,,72,0
28318,note_on,0,0,6,,,,,,,,,5,,,78,0
28318,note_on,94,0,2,,,,,,,,,1,,,66,0
28320,note_on,2,0,6,,,,,,,,,5,,,72,92
28320,note_on,2,0,7,,,,,,,,,7,,,44,92
28320,note_on,2,0,2,,,,,,,,,1,,,66,108
28320,note_on,0,0,7,,,,,,,,,7,,,56,92
28368,note_on,528,0,4,,,,,,,,,3,,,51,0
28368,note_on,528,0,3,,,,,,,,,2,,,60,0
28414,note_on,94,0,6,,,,,,,,,5,,,72,0
28414,note_on,0,0,7,,,,,,,,,7,,,56,0
28414,note_on,94,0,7,,,,,,,,,7,,,44,0
28414,note_on,94,0,2,,,,,,,,,1,,,66,0
28416,note_on,2,0,7,,,,,,,,,7,,,49,108
28416,note_on,0,0,7,,,,,,,,,7,,,56,108
28416,note_on,48,0,3,,,,,,,,,2,,,61,92
28416,note_on,2,0,6,,,,,,,,,5,,,64,108
28416,note_on,48,0,4,,,,,,,,,3,,,52,108
28416,note_on,2,0,2,,,,,,,,,1,,,64,108
28416,note_on,0,0,6,,,,,,,,,5,,,68,108
28510,note_on,0,0,7,,,,,,,,,7,,,56,0
28510,note_on,94,0,7,,,,,,,,,7,,,49,0
28512,note_on,0,0,7,,,,,,,,,7,,,56,108
28512,note_on,512,0,5,,,,,,,,,6,,,73,108
28512,note_on,2,0,7,,,,,,,,,7,,,49,108
28558,note_on,142,0,2,,,,,,,,,1,,,64,0
28560,note_on,2,0,2,,,,,,,,,1,,,66,108
28576,note_on,0,0,6,,,,,,,,,5,,,68,0
28576,note_on,160,0,6,,,,,,,,,5,,,64,0
28576,note_on,160,0,3,,,,,,,,,2,,,61,0
28606,note_on,94,0,7,,,,,,,,,7,,,49,0
28606,note_on,0,0,7,,,,,,,,,7,,,56,0
28606,note_on,46,0,2,,,,,,,,,1,,,66,0
28606,note_on,94,0,5,,,,,,,,,6,,,73,0
28608,note_on,2,0,2,,,,,,,,,1,,,68,108
28608,note_on,0,0,7,,,,,,,,,7,,,56,108
28608,note_on,2,0,7,,,,,,,,,7,,,49,108
28608,note_on,32,0,3,,,,,,,,,2,,,49,92
28608,note_on,816,0,1,,,,,,,,,0,,,73,127
28608,note_on,2,0,5,,,,,,,,,6,,,76,108
28702,note_on,94,0,7,,,,,,,,,7,,,49,0
28702,note_on,94,0,5,,,,,,,,,6,,,76,0
28702,note_on,0,0,7,,,,,,,,,7,,,56,0
28704,note_on,2,0,7,,,,,,,,,7,,,49,108
28704,note_on,0,0,7,,,,,,,,,7,,,56,108
28704,note_on,2,0,5,,,,,,,,,6,,,80,108
28768,note_on,160,0,1,,,,,,,,,0,,,73,0
28798,note_on,94,0,5,,,,,,,,,6,,,80,0
28798,note_on,94,0,7,,,,,,,,,7,,,49,0
28798,note_on,0,0,7,,,,,,,,,7,,,56,0
28800,note_on,32,0,1,,,,,,,,,0,,,73,127
28800,note_on,2,0,5,,,,,,,,,6,,,76,108
28800,note_on,2,0,7,,,,,,,,,7,,,49,108
28800,note_on,0,0,7,,,,,,,,,7,,,56,108
28894,note_on,0,0,7,,,,,,,,,7,,,56,0
28894,note_on,94,0,5,,,,,,,,,6,,,76,0
28894,note_on,94,0,7,,,,,,,,,7,,,49,0
28896,note_on,0,0,7,,,,,,,,,7,,,56,108
28896,note_on,2,0,7,,,,,,,,,7,,,49,108
28896,note_on,2,0,5,,,,,,,,,6,,,73,108
28944,note_on,528,0,4,,,,,,,,,3,,,52,0
28944,note_on,336,0,2,,,,,,,,,1,,,68,0
28944,note_on,336,0,3,,,,,,,,,2,,,49,0
28960,note_on,160,0,1,,,,,,,,,0,,,73,0
28990,note_on,94,0,7,,,,,,,,,7,,,49,0
28990,note_on,94,0,5,,,,,,,,,6,,,73,0
28990,note_on,0,0,7,,,,,,,,,7,,,56,0
28992,note_on,32,0,1,,,,,,,,,0,,,73,127
28992,note_on,2,0,5,,,,,,,,,6,,,68,108
28992,note_on,0,0,7,,,,,,,,,7,,,56,108
28992,note_on,0,0,7,,,,,,,,,7,,,53,108
28992,note_on,2,0,7,,,,,,,,,7,,,49,108
28992,note_on,48,0,4,,,,,,,,,3,,,53,108
28992,note_on,48,0,2,,,,,,,,,1,,,68,127
29040,note_on,464,0,6,,,,,,,,,5,,,73,108
29086,note_on,0,0,7,,,,,,,,,7,,,56,0
29086,note_on,0,0,7,,,,,,,,,7,,,53,0
29086,note_on,94,0,7,,,,,,,,,7,,,49,0
29086,note_on,46,0,6,,,,,,,,,5,,,73,0
29088,note_on,0,0,7,,,,,,,,,7,,,53,108
29088,note_on,2,0,7,,,,,,,,,7,,,49,108
29088,note_on,2,0,6,,,,,,,,,5,,,73,108
29088,note_on,0,0,7,,,,,,,,,7,,,56,108
29134,note_on,46,0,6,,,,,,,,,5,,,73,0
29136,note_on,2,0,6,,,,,,,,,5,,,73,108
29152,note_on,160,0,5,,,,,,,,,6,,,68,0
29152,note_on,160,0,1,,,,,,,,,0,,,73,0
29182,note_on,94,0,7,,,,,,,,,7,,,49,0
29182,note_on,0,0,7,,,,,,,,,7,,,53,0
29182,note_on,0,0,7,,,,,,,,,7,,,56,0
29182,note_on,46,0,6,,,,,,,,,5,,,73,0
29184,note_on,2,0,6,,,,,,,,,5,,,77,108
29184,note_on,0,0,7,,,,,,,,,7,,,53,108
29184,note_on,32,0,1,,,,,,,,,0,,,73,127
29184,note_on,2,0,7,,,,,,,,,7,,,49,108
29184,note_on,0,0,7,,,,,,,,,7,,,56,108
29230,note_on,46,0,6,,,,,,,,,5,,,77,0
29232,note_on,2,0,6,,,,,,,,,5,,,73,108
29248,note_on,256,0,2,,,,,,,,,1,,,68,0
29278,note_on,46,0,6,,,,,,,,,5,,,73,0
29278,note_on,0,0,7,,,,,,,,,7,,,56,0
29278,note_on,0,0,7,,,,,,,,,7,,,53,0
29278,note_on,94,0,7,,,,,,,,,7,,,49,0
29280,note_on,2,0,7,,,,,,,,,7,,,49,108
29280,note_on,0,0,7,,,,,,,,,7,,,53,108
29280,note_on,0,0,7,,,,,,,,,7,,,56,108
29280,note_on,2,0,6,,,,,,,,,5,,,73,108
29280,note_on,32,0,2,,,,,,,,,1,,,68,127
29326,note_on,46,0,6,,,,,,,,,5,,,73,0
29328,note_on,2,0,6,,,,,,,,,5,,,73,108
29344,note_on,160,0,1,,,,,,,,,0,,,73,0
29374,note_on,94,0,7,,,,,,,,,7,,,49,0
29374,note_on,46,0,6,,,,,,,,,5,,,73,0
29374,note_on,0,0,7,,,,,,,,,7,,,53,0
29374,note_on,0,0,7,,,,,,,,,7,,,56,0
29374,note_on,94,0,2,,,,,,,,,1,,,68,0
29376,note_on,32,0,1,,,,,,,,,0,,,71,127
29376,note_on,0,0,6,,,,,,,,,5,,,80,108
29376,note_on,2,0,6,,,,,,,,,5,,,71,108
29376,note_on,2,0,7,,,,,,,,,7,,,49,108
29376,note_on,0,0,7,,,,,,,,,7,,,53,108
29376,note_on,2,0,2,,,,,,,,,1,,,68,127
29422,note_on,0,0,6,,,,,,,,,5,,,80,0
29422,note_on,46,0,6,,,,,,,,,5,,,71,0
29424,note_on,2,0,6,,,,,,,,,5,,,73,108
29470,note_on,94,0,2,,,,,,,,,1,,,68,0
29470,note_on,46,0,6,,,,,,,,,5,,,73,0
29470,note_on,94,0,7,,,,,,,,,7,,,49,0
29470,note_on,0,0,7,,,,,,,,,7,,,53,0
29470,note_on,94,0,1,,,,,,,,,0,,,71,0
29472,note_on,2,0,2,,,,,,,,,1,,,68,127
29472,note_on,2,0,6,,,,,,,,,5,,,73,108
29472,note_on,2,0,7,,,,,,,,,7,,,49,108
29472,note_on,0,0,7,,,,,,,,,7,,,53,108
29472,note_on,2,0,1,,,,,,,,,0,,,71,127
29518,note_on,46,0,6,,,,,,,,,5,,,73,0
29520,note_on,2,0,6,,,,,,,,,5,,,73,108
29520,note_on,528,0,4,,,,,,,,,3,,,53,0
29566,note_on,94,0,7,,,,,,,,,7,,,49,0
29566,note_on,46,0,6,,,,,,,,,5,,,73,0
29566,note_on,0,0,7,,,,,,,,,7,,,53,0
29566,note_on,94,0,2,,,,,,,,,1,,,68,0
29566,note_on,94,0,1,,,,,,,,,0,,,71,0
29568,note_on,2,0,1,,,,,,,,,0,,,69,127
29568,note_on,0,0,7,,,,,,,,,7,,,54,108
29568,note_on,2,0,7,,,,,,,,,7,,,42,108
29568,note_on,48,0,4,,,,,,,,,3,,,54,127
29568,note_on,0,0,6,,,,,,,,,5,,,81,108
29568,note_on,2,0,6,,,,,,,,,5,,,73,108
29568,note_on,2,0,2,,,,,,,,,1,,,61,127
29616,note_on,464,0,5,,,,,,,,,6,,,73,108
29662,note_on,94,0,7,,,,,,,,,7,,,42,0
29662,note_on,46,0,5,,,,,,,,,6,,,73,0
29664,note_on,2,0,7,,,,,,,,,7,,,42,108
29664,note_on,2,0,5,,,,,,,,,6,,,73,108
29710,note_on,142,0,1,,,,,,,,,0,,,69,0
29710,note_on,46,0,5,,,,,,,,,6,,,73,0
29712,note_on,2,0,1,,,,,,,,,0,,,71,127
29712,note_on,2,0,5,,,,,,,,,6,,,73,108
29728,note_on,160,0,2,,,,,,,,,1,,,61,0
29728,note_on,160,0,6,,,,,,,,,5,,,73,0
29728,note_on,0,0,6,,,,,,,,,5,,,81,0
29728,note_on,160,0,4,,,,,,,,,3,,,54,0
29758,note_on,46,0,1,,,,,,,,,0,,,71,0
29758,note_on,94,0,7,,,,,,,,,7,,,42,0
29758,note_on,46,0,5,,,,,,,,,6,,,73,0
29760,note_on,2,0,5,,,,,,,,,6,,,73,108
29760,note_on,2,0,1,,,,,,,,,0,,,73,127
29760,note_on,2,0,7,,,,,,,,,7,,,42,108
29760,note_on,816,0,3,,,,,,,,,2,,,61,127
29760,note_on,32,0,4,,,,,,,,,3,,,42,127
29760,note_on,32,0,2,,,,,,,,,1,,,61,127
29760,note_on,0,0,5,,,,,,,,,6,,,81,108
29806,note_on,46,0,5,,,,,,,,,6,,,73,0
29806,note_on,0,0,5,,,,,,,,,6,,,81,0
29808,note_on,2,0,5,,,,,,,,,6,,,73,108
29854,note_on,46,0,5,,,,,,,,,6,,,73,0
29854,note_on,94,0,7,,,,,,,,,7,,,42,0
29856,note_on,2,0,5,,,,,,,,,6,,,73,108
29856,note_on,2,0,7,,,,,,,,,7,,,42,108
29902,note_on,46,0,5,,,,,,,,,6,,,73,0
29904,note_on,2,0,5,,,,,,,,,6,,,73,108
29904,note_on,48,0,7,,,,,,,,,7,,,54,0
29920,note_on,160,0,3,,,,,,,,,2,,,61,0
29920,note_on,160,0,2,,,,,,,,,1,,,61,0
29920,note_on,160,0,1,,,,,,,,,0,,,73,0
29950,note_on,46,0,5,,,,,,,,,6,,,73,0
29950,note_on,46,0,7,,,,,,,,,7,,,42,0
29952,note_on,0,0,7,,,,,,,,,7,,,54,108
29952,note_on,2,0,7,,,,,,,,,7,,,42,108
29952,note_on,0,0,5,,,,,,,,,6,,,81,108
29952,note_on,2,0,5,,,,,,,,,6,,,74,108
29952,note_on,32,0,3,,,,,,,,,2,,,62,127
29998,note_on,46,0,5,,,,,,,,,6,,,74,0
29998,note_on,0,0,5,,,,,,,,,6,,,81,0
30000,note_on,2,0,5,,,,,,,,,6,,,69,108
30046,note_on,0,0,7,,,,,,,,,7,,,54,0
30046,note_on,94,0,7,,,,,,,,,7,,,42,0
30046,note_on,46,0,5,,,,,,,,,6,,,69,0
30048,note_on,2,0,5,,,,,,,,,6,,,69,108
30048,note_on,0,0,7,,,,,,,,,7,,,54,108
30048,note_on,2,0,7,,,,,,,,,7,,,42,108
30094,note_on,46,0,5,,,,,,,,,6,,,69,0
30096,note_on,336,0,4,,,,,,,,,3,,,42,0
30096,note_on,2,0,5,,,,,,,,,6,,,69,108
30112,note_on,160,0,3,,,,,,,,,2,,,62,0
30142,note_on,46,0,5,,,,,,,,,6,,,69,0
30142,note_on,0,0,7,,,,,,,,,7,,,54,0
30142,note_on,94,0,7,,,,,,,,,7,,,42,0
30144,note_on,224,0,1,,,,,,,,,0,,,68,127
30144,note_on,0,0,7,,,,,,,,,7,,,56,108
30144,note_on,0,0,5,,,,,,,,,6,,,74,108
30144,note_on,2,0,5,,,,,,,,,6,,,71,108
30144,note_on,2,0,7,,,,,,,,,7,,,52,108
30144,note_on,32,0,3,,,,,,,,,2,,,62,127
30238,note_on,0,0,7,,,,,,,,,7,,,56,0
30238,note_on,94,0,7,,,,,,,,,7,,,52,0
30240,note_on,0,0,7,,,,,,,,,7,,,56,108
30240,note_on,512,0,6,,,,,,,,,5,,,71,108
30240,note_on,2,0,7,,,,,,,,,7,,,52,108
30286,note_on,142,0,1,,,,,,,,,0,,,68,0
30288,note_on,2,0,1,,,,,,,,,0,,,69,127
30304,note_on,160,0,5,,,,,,,,,6,,,71,0
30334,note_on,0,0,7,,,,,,,,,7,,,56,0
30334,note_on,94,0,7,,,,,,,,,7,,,52,0
30334,note_on,94,0,6,,,,,,,,,5,,,71,0
30334,note_on,46,0,1,,,,,,,,,0,,,69,0
30336,note_on,0,0,7,,,,,,,,,7,,,56,108
30336,note_on,2,0,6,,,,,,,,,5,,,76,108
30336,note_on,416,0,2,,,,,,,,,1,,,68,127
30336,note_on,2,0,7,,,,,,,,,7,,,52,108
30336,note_on,2,0,1,,,,,,,,,0,,,71,127
30336,note_on,240,0,4,,,,,,,,,3,,,52,127
30430,note_on,94,0,7,,,,,,,,,7,,,52,0
30430,note_on,94,0,6,,,,,,,,,5,,,76,0
30430,note_on,0,0,7,,,,,,,,,7,,,56,0
30432,note_on,2,0,6,,,,,,,,,5,,,80,108
30432,note_on,2,0,7,,,,,,,,,7,,,52,108
30480,note_on,336,0,3,,,,,,,,,2,,,62,0
30496,note_on,160,0,2,,,,,,,,,1,,,68,0
30496,note_on,160,0,1,,,,,,,,,0,,,71,0
30496,note_on,160,0,4,,,,,,,,,3,,,52,0
30496,note_on,192,0,5,,,,,,,,,6,,,74,0
30526,note_on,94,0,7,,,,,,,,,7,,,52,0
30526,note_on,94,0,6,,,,,,,,,5,,,80,0
30528,note_on,0,0,7,,,,,,,,,7,,,52,108
30528,note_on,2,0,7,,,,,,,,,7,,,45,108
30528,note_on,32,0,4,,,,,,,,,3,,,45,127
30528,note_on,48,0,3,,,,,,,,,2,,,61,127
30528,note_on,32,0,1,,,,,,,,,0,,,73,127
30528,note_on,2,0,6,,,,,,,,,5,,,76,108
30528,note_on,32,0,5,,,,,,,,,6,,,73,108
30528,note_on,32,0,2,,,,,,,,,1,,,69,127
30622,note_on,94,0,7,,,,,,,,,7,,,45,0
30622,note_on,94,0,6,,,,,,,,,5,,,76,0
30622,note_on,0,0,7,,,,,,,,,7,,,52,0
30624,note_on,0,0,7,,,,,,,,,7,,,52,108
30624,note_on,2,0,6,,,,,,,,,5,,,73,108
30624,note_on,2,0,7,,,,,,,,,7,,,45,108
30670,note_on,142,0,1,,,,,,,,,0,,,73,0
30672,note_on,2,0,1,,,,,,,,,0,,,74,127
30688,note_on,160,0,4,,,,,,,,,3,,,45,0
30688,note_on,160,0,2,,,,,,,,,1,,,69,0
30688,note_on,160,0,3,,,,,,,,,2,,,61,0
30688,note_on,160,0,5,,,,,,,,,6,,,73,0
30718,note_on,94,0,7,,,,,,,,,7,,,45,0
30718,note_on,46,0,1,,,,,,,,,0,,,74,0
30718,note_on,0,0,7,,,,,,,,,7,,,52,0
30718,note_on,94,0,6,,,,,,,,,5,,,73,0
30720,note_on,2,0,1,,,,,,,,,0,,,76,127
30720,note_on,32,0,4,,,,,,,,,3,,,45,127
30720,note_on,2,0,6,,,,,,,,,5,,,61,108
30720,note_on,0,0,6,,,,,,,,,5,,,69,108
30720,note_on,32,0,3,,,,,,,,,2,,,61,127
30720,note_on,2,0,7,,,,,,,,,7,,,45,108
30720,note_on,0,0,7,,,,,,,,,7,,,52,108
30720,note_on,32,0,2,,,,,,,,,1,,,67,127
30814,note_on,0,0,7,,,,,,,,,7,,,52,0
30814,note_on,94,0,7,,,,,,,,,7,,,45,0
30816,note_on,2,0,7,,,,,,,,,7,,,45,108
30816,note_on,0,0,7,,,,,,,,,7,,,52,108
30816,note_on,128,0,5,,,,,,,,,6,,,69,108
30880,note_on,160,0,6,,,,,,,,,5,,,61,0
30880,note_on,0,0,6,,,,,,,,,5,,,69,0
30910,note_on,94,0,5,,,,,,,,,6,,,69,0
30910,note_on,94,0,7,,,,,,,,,7,,,45,0
30910,note_on,0,0,7,,,,,,,,,7,,,52,0
30912,note_on,2,0,7,,,,,,,,,7,,,45,108
30912,note_on,0,0,7,,,,,,,,,7,,,57,108
30912,note_on,2,0,5,,,,,,,,,6,,,73,108
30976,note_on,256,0,1,,,,,,,,,0,,,76,0
31006,note_on,94,0,5,,,,,,,,,6,,,73,0
31006,note_on,0,0,7,,,,,,,,,7,,,57,0
31006,note_on,94,0,7,,,,,,,,,7,,,45,0
31008,note_on,32,0,1,,,,,,,,,0,,,73,127
31008,note_on,2,0,7,,,,,,,,,7,,,45,108
31008,note_on,2,0,5,,,,,,,,,6,,,76,108
31008,note_on,0,0,7,,,,,,,,,7,,,57,108
31056,note_on,336,0,4,,,,,,,,,3,,,45,0
31056,note_on,336,0,2,,,,,,,,,1,,,67,0
31102,note_on,94,0,7,,,,,,,,,7,,,45,0
31102,note_on,0,0,7,,,,,,,,,7,,,57,0
31102,note_on,94,0,5,,,,,,,,,6,,,76,0
31102,note_on,94,0,1,,,,,,,,,0,,,73,0
31104,note_on,0,0,3,,,,,,,,,2,,,62,127
31104,note_on,2,0,1,,,,,,,,,0,,,69,108
31104,note_on,48,0,4,,,,,,,,,3,,,50,127
31104,note_on,48,0,2,,,,,,,,,1,,,66,127
31104,note_on,2,0,5,,,,,,,,,6,,,81,108
31104,note_on,0,0,7,,,,,,,,,7,,,57,108
31104,note_on,0,0,7,,,,,,,,,7,,,54,108
31104,note_on,2,0,7,,,,,,,,,7,,,50,108
31104,note_on,384,0,3,,,,,,,,,2,,,61,0
31198,note_on,94,0,7,,,,,,,,,7,,,50,0
31198,note_on,0,0,7,,,,,,,,,7,,,57,0
31198,note_on,0,0,7,,,,,,,,,7,,,54,0
31198,note_on,94,0,5,,,,,,,,,6,,,81,0
31200,note_on,2,0,7,,,,,,,,,7,,,50,108
31200,note_on,0,0,7,,,,,,,,,7,,,54,108
31200,note_on,0,0,7,,,,,,,,,7,,,57,108
31200,note_on,2,0,5,,,,,,,,,6,,,78,108
31264,note_on,160,0,4,,,,,,,,,3,,,50,0
31264,note_on,160,0,1,,,,,,,,,0,,,69,0
31264,note_on,160,0,2,,,,,,,,,1,,,66,0
31294,note_on,0,0,7,,,,,,,,,7,,,57,0
31294,note_on,0,0,7,,,,,,,,,7,,,54,0
31294,note_on,94,0,7,,,,,,,,,7,,,50,0
31294,note_on,94,0,5,,,,,,,,,6,,,78,0
31296,note_on,2,0,5,,,,,,,,,6,,,66,92
31296,note_on,0,0,5,,,,,,,,,6,,,69,92
31296,note_on,32,0,1,,,,,,,,,0,,,69,108
31296,note_on,32,0,4,,,,,,,,,3,,,45,108
31296,note_on,2,0,7,,,,,,,,,7,,,45,92
31296,note_on,0,0,7,,,,,,,,,7,,,57,92
31296,note_on,32,0,2,,,,,,,,,1,,,66,127
31390,note_on,94,0,7,,,,,,,,,7,,,45,0
31390,note_on,0,0,7,,,,,,,,,7,,,57,0
31392,note_on,512,0,6,,,,,,,,,5,,,69,92
31392,note_on,2,0,7,,,,,,,,,7,,,45,92
31392,note_on,0,0,7,,,,,,,,,7,,,57,92
31456,note_on,160,0,1,,,,,,,,,0,,,69,0
31456,note_on,160,0,2,,,,,,,,,1,,,66,0
31456,note_on,0,0,5,,,,,,,,,6,,,69,0
31456,note_on,160,0,5,,,,,,,,,6,,,66,0
31486,note_on,94,0,7,,,,,,,,,7,,,45,0
31486,note_on,0,0,7,,,,,,,,,7,,,57,0
31486,note_on,94,0,6,,,,,,,,,5,,,69,0
31488,note_on,0,0,6,,,,,,,,,5,,,73,92
31488,note_on,32,0,1,,,,,,,,,0,,,69,108
31488,note_on,0,0,3,,,,,,,,,2,,,61,108
31488,note_on,384,0,3,,,,,,,,,2,,,62,0
31488,note_on,0,0,7,,,,,,,,,7,,,57,92
31488,note_on,32,0,2,,,,,,,,,1,,,64,108
31488,note_on,2,0,6,,,,,,,,,5,,,64,92
31488,note_on,2,0,7,,,,,,,,,7,,,45,92
31582,note_on,0,0,6,,,,,,,,,5,,,73,0
31582,note_on,0,0,7,,,,,,,,,7,,,57,0
31582,note_on,94,0,7,,,,,,,,,7,,,45,0
31582,note_on,94,0,6,,,,,,,,,5,,,64,0
31584,note_on,2,0,7,,,,,,,,,7,,,45,92
31584,note_on,0,0,7,,,,,,,,,7,,,57,92
31584,note_on,2,0,6,,,,,,,,,5,,,76,92
31648,note_on,160,0,2,,,,,,,,,1,,,64,0
31678,note_on,0,0,7,,,,,,,,,7,,,57,0
31678,note_on,94,0,7,,,,,,,,,7,,,45,0
31678,note_on,94,0,6,,,,,,,,,5,,,76,0
31680,note_on,32,0,2,,,,,,,,,1,,,64,108
31680,note_on,2,0,7,,,,,,,,,7,,,45,92
31680,note_on,0,0,7,,,,,,,,,7,,,57,92
31680,note_on,2,0,6,,,,,,,,,5,,,73,92
31680,note_on,0,0,6,,,,,,,,,5,,,81,92
31774,note_on,0,0,6,,,,,,,,,5,,,81,0
31774,note_on,94,0,6,,,,,,,,,5,,,73,0
31774,note_on,94,0,7,,,,,,,,,7,,,45,0
31774,note_on,0,0,7,,,,,,,,,7,,,57,0
31776,note_on,2,0,6,,,,,,,,,5,,,73,92
31776,note_on,0,0,7,,,,,,,,,7,,,57,92
31776,note_on,2,0,7,,,,,,,,,7,,,45,92
31824,note_on,528,0,4,,,,,,,,,3,,,45,0
31824,note_on,336,0,3,,,,,,,,,2,,,61,0
31824,note_on,336,0,1,,,,,,,,,0,,,69,0
31840,note_on,160,0,2,,,,,,,,,1,,,64,0
31870,note_on,94,0,6,,,,,,,,,5,,,73,0
31870,note_on,94,0,7,,,,,,,,,7,,,45,0
31870,note_on,0,0,7,,,,,,,,,7,,,57,0
31872,note_on,2,0,7,,,,,,,,,7,,,50,75
31872,note_on,48,0,1,,,,,,,,,0,,,69,108
31872,note_on,32,0,2,,,,,,,,,1,,,65,92
31872,note_on,48,0,3,,,,,,,,,2,,,62,92
31872,note_on,48,0,4,,,,,,,,,3,,,50,92
31872,note_on,416,0,5,,,,,,,,,6,,,69,75
31872,note_on,0,0,5,,,,,,,,,6,,,74,75
31872,note_on,2,0,6,,,,,,,,,5,,,65,75
31966,note_on,94,0,7,,,,,,,,,7,,,50,0
31966,note_on,94,0,6,,,,,,,,,5,,,65,0
31968,note_on,2,0,7,,,,,,,,,7,,,50,75
31968,note_on,2,0,6,,,,,,,,,5,,,65,75
32032,note_on,160,0,1,,,,,,,,,0,,,69,0
32032,note_on,160,0,5,,,,,,,,,6,,,69,0
32032,note_on,0,0,5,,,,,,,,,6,,,74,0
32062,note_on,94,0,7,,,,,,,,,7,,,50,0
32062,note_on,94,0,6,,,,,,,,,5,,,65,0
32064,note_on,2,0,6,,,,,,,,,5,,,65,75
32064,note_on,32,0,1,,,,,,,,,0,,,69,92
32064,note_on,2,0,7,,,,,,,,,7,,,50,75
32064,note_on,32,0,5,,,,,,,,,6,,,69,75
32158,note_on,94,0,6,,,,,,,,,5,,,65,0
32158,note_on,94,0,7,,,,,,,,,7,,,50,0
32160,note_on,2,0,7,,,,,,,,,7,,,50,75
32160,note_on,2,0,6,,,,,,,,,5,,,65,75
32224,note_on,160,0,5,,,,,,,,,6,,,69,0
32224,note_on,160,0,1,,,,,,,,,0,,,69,0
32254,note_on,94,0,6,,,,,,,,,5,,,65,0
32254,note_on,94,0,7,,,,,,,,,7,,,50,0
32256,note_on,2,0,6,,,,,,,,,5,,,62,75
32256,note_on,2,0,7,,,,,,,,,7,,,50,75
32256,note_on,32,0,5,,,,,,,,,6,,,65,75
32256,note_on,32,0,1,,,,,,,,,0,,,69,92
32350,note_on,94,0,6,,,,,,,,,5,,,62,0
32350,note_on,94,0,7,,,,,,,,,7,,,50,0
32352,note_on,2,0,6,,,,,,,,,5,,,62,75
32352,note_on,2,0,7,,,,,,,,,7,,,50,75
32400,note_on,528,0,3,,,,,,,,,2,,,62,0
32400,note_on,528,0,4,,,,,,,,,3,,,50,0
32416,note_on,160,0,5,,,,,,,,,6,,,65,0
32416,note_on,160,0,1,,,,,,,,,0,,,69,0
32446,note_on,94,0,7,,,,,,,,,7,,,50,0
32446,note_on,94,0,6,,,,,,,,,5,,,62,0
32448,note_on,0,0,7,,,,,,,,,7,,,58,75
32448,note_on,32,0,1,,,,,,,,,0,,,70,92
32448,note_on,2,0,6,,,,,,,,,5,,,65,75
32448,note_on,32,0,5,,,,,,,,,6,,,62,75
32448,note_on,0,0,6,,,,,,,,,5,,,74,75
32448,note_on,2,0,7,,,,,,,,,7,,,55,75
32542,note_on,94,0,7,,,,,,,,,7,,,55,0
32542,note_on,0,0,7,,,,,,,,,7,,,58,0
32544,note_on,2,0,7,,,,,,,,,7,,,55,75
32544,note_on,0,0,7,,,,,,,,,7,,,58,75
32608,note_on,0,0,6,,,,,,,,,5,,,74,0
32608,note_on,160,0,5,,,,,,,,,6,,,62,0
32608,note_on,160,0,6,,,,,,,,,5,,,65,0
32638,note_on,94,0,7,,,,,,,,,7,,,55,0
32638,note_on,0,0,7,,,,,,,,,7,,,58,0
32640,note_on,0,0,7,,,,,,,,,7,,,58,75
32640,note_on,32,0,6,,,,,,,,,5,,,65,75
32640,note_on,0,0,6,,,,,,,,,5,,,70,75
32640,note_on,2,0,7,,,,,,,,,7,,,55,75
32734,note_on,0,0,7,,,,,,,,,7,,,58,0
32734,note_on,94,0,7,,,,,,,,,7,,,55,0
32736,note_on,2,0,7,,,,,,,,,7,,,55,75
32736,note_on,0,0,7,,,,,,,,,7,,,58,75
32784,note_on,912,0,2,,,,,,,,,1,,,65,0
32800,note_on,0,0,6,,,,,,,,,5,,,70,0
32800,note_on,160,0,6,,,,,,,,,5,,,65,0
32830,note_on,94,0,7,,,,,,,,,7,,,55,0
32830,note_on,0,0,7,,,,,,,,,7,,,58,0
32832,note_on,2,0,7,,,,,,,,,7,,,55,75
32832,note_on,48,0,2,,,,,,,,,1,,,65,92
32832,note_on,32,0,6,,,,,,,,,5,,,65,75
32832,note_on,0,0,7,,,,,,,,,7,,,58,75
32926,note_on,94,0,7,,,,,,,,,7,,,55,0
32926,note_on,0,0,7,,,,,,,,,7,,,58,0
32928,note_on,0,0,7,,,,,,,,,7,,,58,75
32928,note_on,2,0,7,,,,,,,,,7,,,55,75
32992,note_on,160,0,2,,,,,,,,,1,,,65,0
32992,note_on,160,0,6,,,,,,,,,5,,,65,0
33022,note_on,0,0,7,,,,,,,,,7,,,58,0
33022,note_on,94,0,7,,,,,,,,,7,,,55,0
33024,note_on,32,0,2,,,,,,,,,1,,,63,92
33024,note_on,32,0,6,,,,,,,,,5,,,58,75
33024,note_on,2,0,7,,,,,,,,,7,,,55,75
33118,note_on,94,0,7,,,,,,,,,7,,,55,0
33120,note_on,2,0,7,,,,,,,,,7,,,55,75
33120,note_on,512,0,5,,,,,,,,,6,,,63,75
33184,note_on,160,0,6,,,,,,,,,5,,,58,0
33214,note_on,94,0,7,,,,,,,,,7,,,55,0
33214,note_on,94,0,5,,,,,,,,,6,,,63,0
33216,note_on,2,0,7,,,,,,,,,7,,,55,75
33216,note_on,0,0,7,,,,,,,,,7,,,63,75
33216,note_on,816,0,4,,,,,,,,,3,,,55,92
33216,note_on,2,0,5,,,,,,,,,6,,,67,75
33310,note_on,94,0,7,,,,,,,,,7,,,55,0
33310,note_on,94,0,5,,,,,,,,,6,,,67,0
33310,note_on,0,0,7,,,,,,,,,7,,,63,0
33312,note_on,2,0,7,,,,,,,,,7,,,55,75
33312,note_on,0,0,7,,,,,,,,,7,,,63,75
33312,note_on,2,0,5,,,,,,,,,6,,,70,75
33360,note_on,912,0,1,,,,,,,,,0,,,70,0
33360,note_on,336,0,2,,,,,,,,,1,,,63,0
33376,note_on,160,0,4,,,,,,,,,3,,,55,0
33406,note_on,94,0,7,,,,,,,,,7,,,55,0
33406,note_on,94,0,5,,,,,,,,,6,,,70,0
33406,note_on,0,0,7,,,,,,,,,7,,,63,0
33408,note_on,2,0,7,,,,,,,,,7,,,55,75
33408,note_on,0,0,7,,,,,,,,,7,,,63,75
33408,note_on,48,0,1,,,,,,,,,0,,,70,92
33408,note_on,48,0,2,,,,,,,,,1,,,62,92
33408,note_on,32,0,4,,,,,,,,,3,,,55,92
33408,note_on,2,0,5,,,,,,,,,6,,,74,75
33502,note_on,94,0,5,,,,,,,,,6,,,74,0
33502,note_on,94,0,7,,,,,,,,,7,,,55,0
33502,note_on,0,0,7,,,,,,,,,7,,,63,0
33504,note_on,2,0,5,,,,,,,,,6,,,70,75
33504,note_on,2,0,7,,,,,,,,,7,,,55,75
33504,note_on,0,0,7,,,,,,,,,7,,,63,75
33568,note_on,160,0,2,,,,,,,,,1,,,62,0
33568,note_on,160,0,4,,,,,,,,,3,,,55,0
33568,note_on,160,0,1,,,,,,,,,0,,,70,0
33598,note_on,0,0,7,,,,,,,,,7,,,63,0
33598,note_on,94,0,7,,,,,,,,,7,,,55,0
33598,note_on,94,0,5,,,,,,,,,6,,,70,0
33600,note_on,0,0,5,,,,,,,,,6,,,70,60
33600,note_on,0,0,7,,,,,,,,,7,,,61,60
33600,note_on,2,0,5,,,,,,,,,6,,,64,60
33600,note_on,32,0,4,,,,,,,,,3,,,57,92
33600,note_on,32,0,1,,,,,,,,,0,,,70,92
33600,note_on,32,0,2,,,,,,,,,1,,,61,92
33600,note_on,2,0,7,,,,,,,,,7,,,57,60
33694,note_on,94,0,7,,,,,,,,,7,,,57,0
33694,note_on,0,0,7,,,,,,,,,7,,,61,0
33696,note_on,2,0,7,,,,,,,,,7,,,57,60
33696,note_on,0,0,7,,,,,,,,,7,,,61,60
33696,note_on,512,0,6,,,,,,,,,5,,,64,60
33760,note_on,0,0,5,,,,,,,,,6,,,70,0
33760,note_on,160,0,5,,,,,,,,,6,,,64,0
33790,note_on,94,0,6,,,,,,,,,5,,,64,0
33790,note_on,0,0,7,,,,,,,,,7,,,61,0
33790,note_on,94,0,7,,,,,,,,,7,,,57,0
33792,note_on,2,0,7,,,,,,,,,7,,,57,60
33792,note_on,0,0,7,,,,,,,,,7,,,61,60
33792,note_on,0,0,7,,,,,,,,,7,,,64,60
33792,note_on,192,0,1,,,,,,,,,0,,,70,0
33792,note_on,2,0,6,,,,,,,,,5,,,69,60
33792,note_on,0,0,1,,,,,,,,,0,,,69,92
33886,note_on,94,0,7,,,,,,,,,7,,,57,0
33886,note_on,0,0,7,,,,,,,,,7,,,61,0
33886,note_on,0,0,7,,,,,,,,,7,,,64,0
33886,note_on,94,0,6,,,,,,,,,5,,,69,0
33888,note_on,2,0,6,,,,,,,,,5,,,73,60
33888,note_on,0,0,7,,,,,,,,,7,,,64,60
33888,note_on,0,0,7,,,,,,,,,7,,,61,60
33888,note_on,2,0,7,,,,,,,,,7,,,57,60
33936,note_on,336,0,2,,,,,,,,,1,,,61,0
33936,note_on,336,0,4,,,,,,,,,3,,,57,0
33952,note_on,160,0,1,,,,,,,,,0,,,69,0
33982,note_on,0,0,7,,,,,,,,,7,,,64,0
33982,note_on,0,0,7,,,,,,,,,7,,,61,0
33982,note_on,94,0,7,,,,,,,,,7,,,57,0
33982,note_on,94,0,6,,,,,,,,,5,,,73,0
33984,note_on,48,0,4,,,,,,,,,3,,,57,75
33984,note_on,32,0,1,,,,,,,,,0,,,67,92
33984,note_on,48,0,2,,,,,,,,,1,,,61,75
33984,note_on,2,0,6,,,,,,,,,5,,,76,60
33984,note_on,2,0,7,,,,,,,,,7,,,57,60
33984,note_on,0,0,7,,,,,,,,,7,,,61,60
33984,note_on,0,0,7,,,,,,,,,7,,,64,60
34078,note_on,0,0,7,,,,,,,,,7,,,64,0
34078,note_on,94,0,7,,,,,,,,,7,,,57,0
34078,note_on,0,0,7,,,,,,,,,7,,,61,0
34078,note_on,94,0,6,,,,,,,,,5,,,76,0
34080,note_on,0,0,7,,,,,,,,,7,,,64,60
34080,note_on,0,0,7,,,,,,,,,7,,,61,60
34080,note_on,2,0,7,,,,,,,,,7,,,57,60
34080,note_on,2,0,6,,,,,,,,,5,,,73,60
34144,note_on,160,0,4,,,,,,,,,3,,,57,0
34144,note_on,160,0,2,,,,,,,,,1,,,61,0
34144,note_on,160,0,1,,,,,,,,,0,,,67,0
34174,note_on,0,0,7,,,,,,,,,7,,,61,0
34174,note_on,0,0,7,,,,,,,,,7,,,64,0
34174,note_on,94,0,7,,,,,,,,,7,,,57,0
34174,note_on,94,0,6,,,,,,,,,5,,,73,0
34176,note_on,32,0,4,,,,,,,,,3,,,50,75
34176,note_on,32,0,2,,,,,,,,,1,,,62,75
34176,note_on,2,0,6,,,,,,,,,5,,,66,60
34176,note_on,0,0,6,,,,,,,,,5,,,69,60
34176,note_on,2,0,7,,,,,,,,,7,,,50,60
34176,note_on,32,0,1,,,,,,,,,0,,,66,75
34224,note_on,464,0,5,,,,,,,,,6,,,69,60
34270,note_on,94,0,7,,,,,,,,,7,,,50,0
34270,note_on,46,0,5,,,,,,,,,6,,,69,0
34270,note_on,94,0,6,,,,,,,,,5,,,66,0
34270,note_on,0,0,6,,,,,,,,,5,,,69,0
34272,note_on,2,0,5,,,,,,,,,6,,,69,60
34272,note_on,2,0,6,,,,,,,,,5,,,66,60
34272,note_on,2,0,7,,,,,,,,,7,,,50,60
34318,note_on,46,0,5,,,,,,,,,6,,,69,0
34320,note_on,2,0,5,,,,,,,,,6,,,69,60
34366,note_on,46,0,5,,,,,,,,,6,,,69,0
34366,note_on,94,0,7,,,,,,,,,7,,,50,0
34366,note_on,94,0,6,,,,,,,,,5,,,66,0
34368,note_on,2,0,6,,,,,,,,,5,,,66,60
34368,note_on,2,0,5,,,,,,,,,6,,,74,60
34368,note_on,2,0,7,,,,,,,,,7,,,50,60
34414,note_on,46,0,5,,,,,,,,,6,,,74,0
34416,note_on,2,0,5,,,,,,,,,6,,,69,60
34432,note_on,256,0,1,,,,,,,,,0,,,66,0
34462,note_on,46,0,5,,,,,,,,,6,,,69,0
34462,note_on,94,0,7,,,,,,,,,7,,,50,0
34462,note_on,94,0,6,,,,,,,,,5,,,66,0
34464,note_on,32,0,1,,,,,,,,,0,,,64,75
34464,note_on,2,0,5,,,,,,,,,6,,,69,60
34464,note_on,2,0,6,,,,,,,,,5,,,66,60
34464,note_on,2,0,7,,,,,,,,,7,,,50,60
34510,note_on,46,0,5,,,,,,,,,6,,,69,0
34512,note_on,2,0,5,,,,,,,,,6,,,69,60
34558,note_on,46,0,5,,,,,,,,,6,,,69,0
34558,note_on,94,0,7,,,,,,,,,7,,,50,0
34558,note_on,94,0,1,,,,,,,,,0,,,64,0
34558,note_on,94,0,6,,,,,,,,,5,,,66,0
34560,note_on,2,0,5,,,,,,,,,6,,,74,60
34560,note_on,2,0,1,,,,,,,,,0,,,62,75
34560,note_on,2,0,6,,,,,,,,,5,,,66,60
34560,note_on,2,0,7,,,,,,,,,7,,,50,60
34606,note_on,46,0,5,,,,,,,,,6,,,74,0
34608,note_on,2,0,5,,,,,,,,,6,,,69,60
34654,note_on,46,0,5,,,,,,,,,6,,,69,0
34654,note_on,94,0,6,,,,,,,,,5,,,66,0
34654,note_on,94,0,7,,,,,,,,,7,,,50,0
34656,note_on,2,0,7,,,,,,,,,7,,,50,60
34656,note_on,2,0,6,,,,,,,,,5,,,66,60
34656,note_on,2,0,5,,,,,,,,,6,,,69,60
34702,note_on,46,0,5,,,,,,,,,6,,,69,0
34704,note_on,2,0,5,,,,,,,,,6,,,69,60
34704,note_on,528,0,4,,,,,,,,,3,,,50,0
34704,note_on,528,0,2,,,,,,,,,1,,,62,0
34720,note_on,160,0,1,,,,,,,,,0,,,62,0
34750,note_on,46,0,5,,,,,,,,,6,,,69,0
34750,note_on,94,0,6,,,,,,,,,5,,,66,0
34750,note_on,94,0,7,,,,,,,,,7,,,50,0
34752,note_on,32,0,1,,,,,,,,,0,,,72,60
34752,note_on,2,0,7,,,,,,,,,7,,,50,45
34752,note_on,0,0,7,,,,,,,,,7,,,62,45
34752,note_on,2352,0,3,,,,,,,,,2,,,66,60
34752,note_on,48,0,4,,,,,,,,,3,,,50,60
34752,note_on,2,0,5,,,,,,,,,6,,,78,45
34752,note_on,2,0,6,,,,,,,,,5,,,72,45
34752,note_on,48,0,2,,,,,,,,,1,,,69,60
34798,note_on,46,0,5,,,,,,,,,6,,,78,0
34798,note_on,46,0,6,,,,,,,,,5,,,72,0
34800,note_on,2,0,6,,,,,,,,,5,,,69,45
34800,note_on,2,0,5,,,,,,,,,6,,,72,45
34846,note_on,0,0,7,,,,,,,,,7,,,62,0
34846,note_on,94,0,7,,,,,,,,,7,,,50,0
34846,note_on,46,0,6,,,,,,,,,5,,,69,0
34846,note_on,46,0,5,,,,,,,,,6,,,72,0
34848,note_on,2,0,7,,,,,,,,,7,,,50,45
34848,note_on,2,0,6,,,,,,,,,5,,,69,45
34848,note_on,2,0,5,,,,,,,,,6,,,72,45
34848,note_on,0,0,7,,,,,,,,,7,,,62,45
34894,note_on,46,0,6,,,,,,,,,5,,,69,0
34894,note_on,46,0,5,,,,,,,,,6,,,72,0
34896,note_on,2,0,5,,,,,,,,,6,,,72,45
34896,note_on,2,0,6,,,,,,,,,5,,,69,45
34942,note_on,46,0,5,,,,,,,,,6,,,72,0
34942,note_on,46,0,6,,,,,,,,,5,,,69,0
34942,note_on,94,0,7,,,,,,,,,7,,,50,0
34942,note_on,0,0,7,,,,,,,,,7,,,62,0
34944,note_on,2,0,5,,,,,,,,,6,,,78,45
34944,note_on,2,0,6,,,,,,,,,5,,,72,45
34944,note_on,2,0,7,,,,,,,,,7,,,50,45
34944,note_on,0,0,7,,,,,,,,,7,,,62,45
34990,note_on,46,0,5,,,,,,,,,6,,,78,0
34990,note_on,46,0,6,,,,,,,,,5,,,72,0
34992,note_on,2,0,6,,,,,,,,,5,,,69,45
34992,note_on,2,0,5,,,,,,,,,6,,,72,45
35008,note_on,256,0,2,,,,,,,,,1,,,69,0
35008,note_on,256,0,3,,,,,,,,,2,,,66,0
35008,note_on,256,0,1,,,,,,,,,0,,,72,0
35008,note_on,256,0,4,,,,,,,,,3,,,50,0
35038,note_on,46,0,6,,,,,,,,,5,,,69,0
35038,note_on,0,0,7,,,,,,,,,7,,,62,0
35038,note_on,94,0,7,,,,,,,,,7,,,50,0
35038,note_on,46,0,5,,,,,,,,,6,,,72,0
35040,note_on,2,0,6,,,,,,,,,5,,,69,45
35040,note_on,32,0,1,,,,,,,,,0,,,72,60
35040,note_on,2,0,7,,,,,,,,,7,,,50,45
35040,note_on,0,0,7,,,,,,,,,7,,,62,45
35040,note_on,32,0,3,,,,,,,,,2,,,66,60
35040,note_on,2,0,5,,,,,,,,,6,,,72,45
35040,note_on,32,0,2,,,,,,,,,1,,,69,60
35040,note_on,32,0,4,,,,,,,,,3,,,50,60
35086,note_on,46,0,6,,,,,,,,,5,,,69,0
35086,note_on,46,0,5,,,,,,,,,6,,,72,0
35088,note_on,2,0,6,,,,,,,,,5,,,69,45
35088,note_on,2,0,5,,,,,,,,,6,,,72,45
35134,note_on,46,0,6,,,,,,,,,5,,,69,0
35134,note_on,94,0,1,,,,,,,,,0,,,72,0
35134,note_on,46,0,5,,,,,,,,,6,,,72,0
35134,note_on,0,0,7,,,,,,,,,7,,,62,0
35134,note_on,94,0,2,,,,,,,,,1,,,69,0
35134,note_on,94,0,4,,,,,,,,,3,,,50,0
35134,note_on,94,0,3,,,,,,,,,2,,,66,0
35134,note_on,94,0,7,,,,,,,,,7,,,50,0
35136,note_on,2,0,4,,,,,,,,,3,,,50,60
35136,note_on,2,0,2,,,,,,,,,1,,,69,60
35136,note_on,0,0,7,,,,,,,,,7,,,62,45
35136,note_on,2,0,7,,,,,,,,,7,,,50,45
35136,note_on,2,0,5,,,,,,,,,6,,,81,45
35136,note_on,2,0,3,,,,,,,,,2,,,66,60
35136,note_on,2,0,1,,,,,,,,,0,,,72,60
35136,note_on,2,0,6,,,,,,,,,5,,,78,45
35182,note_on,46,0,6,,,,,,,,,5,,,78,0
35182,note_on,46,0,5,,,,,,,,,6,,,81,0
35184,note_on,2,0,5,,,,,,,,,6,,,78,45
35184,note_on,2,0,6,,,,,,,,,5,,,72,45
35230,note_on,94,0,3,,,,,,,,,2,,,66,0
35230,note_on,46,0,5,,,,,,,,,6,,,78,0
35230,note_on,0,0,7,,,,,,,,,7,,,62,0
35230,note_on,94,0,4,,,,,,,,,3,,,50,0
35230,note_on,94,0,7,,,,,,,,,7,,,50,0
35230,note_on,94,0,1,,,,,,,,,0,,,72,0
35230,note_on,46,0,6,,,,,,,,,5,,,72,0
35230,note_on,94,0,2,,,,,,,,,1,,,69,0
35232,note_on,2,0,4,,,,,,,,,3,,,50,60
35232,note_on,2,0,2,,,,,,,,,1,,,69,60
35232,note_on,2,0,3,,,,,,,,,2,,,66,60
35232,note_on,2,0,6,,,,,,,,,5,,,72,45
35232,note_on,2,0,5,,,,,,,,,6,,,78,45
35232,note_on,2,0,1,,,,,,,,,0,,,72,60
35232,note_on,0,0,7,,,,,,,,,7,,,62,45
35232,note_on,2,0,7,,,,,,,,,7,,,50,45
35278,note_on,46,0,5,,,,,,,,,6,,,78,0
35278,note_on,46,0,6,,,,,,,,,5,,,72,0
35280,note_on,2,0,6,,,,,,,,,5,,,72,45
35280,note_on,2,0,5,,,,,,,,,6,,,78,45
35326,note_on,94,0,2,,,,,,,,,1,,,69,0
35326,note_on,0,0,7,,,,,,,,,7,,,62,0
35326,note_on,94,0,3,,,,,,,,,2,,,66,0
35326,note_on,94,0,7,,,,,,,,,7,,,50,0
35326,note_on,46,0,6,,,,,,,,,5,,,72,0
35326,note_on,94,0,1,,,,,,,,,0,,,72,0
35326,note_on,94,0,4,,,,,,,,,3,,,50,0
35326,note_on,46,0,5,,,,,,,,,6,,,78,0
35328,note_on,2,0,1,,,,,,,,,0,,,70,60
35328,note_on,2,0,4,,,,,,,,,3,,,55,60
35328,note_on,2,0,6,,,,,,,,,5,,,70,45
35328,note_on,2,0,3,,,,,,,,,2,,,62,60
35328,note_on,2,0,5,,,,,,,,,6,,,79,45
35328,note_on,0,0,7,,,,,,,,,7,,,62,45
35328,note_on,2,0,7,,,,,,,,,7,,,55,45
35328,note_on,2,0,2,,,,,,,,,1,,,67,60
35374,note_on,46,0,6,,,,,,,,,5,,,70,0
35374,note_on,46,0,5,,,,,,,,,6,,,79,0
35376,note_on,2,0,6,,,,,,,,,5,,,70,45
35376,note_on,2,0,5,,,,,,,,,6,,,74,45
35422,note_on,46,0,6,,,,,,,,,5,,,70,0
35422,note_on,0,0,7,,,,,,,,,7,,,62,0
35422,note_on,94,0,7,,,,,,,,,7,,,55,0
35422,note_on,46,0,5,,,,,,,,,6,,,74,0
35424,note_on,2,0,6,,,,,,,,,5,,,70,45
35424,note_on,2,0,7,,,,,,,,,7,,,55,45
35424,note_on,0,0,7,,,,,,,,,7,,,62,45
35424,note_on,2,0,5,,,,,,,,,6,,,74,45
35470,note_on,46,0,5,,,,,,,,,6,,,74,0
35470,note_on,46,0,6,,,,,,,,,5,,,70,0
35472,note_on,2,0,5,,,,,,,,,6,,,74,45
35472,note_on,2,0,6,,,,,,,,,5,,,70,45
35518,note_on,46,0,5,,,,,,,,,6,,,74,0
35518,note_on,94,0,7,,,,,,,,,7,,,55,0
35518,note_on,0,0,7,,,,,,,,,7,,,62,0
35518,note_on,46,0,6,,,,,,,,,5,,,70,0
35520,note_on,2,0,6,,,,,,,,,5,,,70,45
35520,note_on,0,0,7,,,,,,,,,7,,,62,45
35520,note_on,2,0,5,,,,,,,,,6,,,79,45
35520,note_on,2,0,7,,,,,,,,,7,,,55,45
35566,note_on,46,0,6,,,,,,,,,5,,,70,0
35566,note_on,46,0,5,,,,,,,,,6,,,79,0
35568,note_on,2,0,5,,,,,,,,,6,,,74,45
35568,note_on,2,0,6,,,,,,,,,5,,,70,45
35614,note_on,0,0,7,,,,,,,,,7,,,62,0
35614,note_on,46,0,6,,,,,,,,,5,,,70,0
35614,note_on,46,0,5,,,,,,,,,6,,,74,0
35614,note_on,94,0,7,,,,,,,,,7,,,55,0
35616,note_on,2,0,5,,,,,,,,,6,,,74,45
35616,note_on,0,0,7,,,,,,,,,7,,,62,45
35616,note_on,2,0,6,,,,,,,,,5,,,70,45
35616,note_on,2,0,7,,,,,,,,,7,,,55,45
35662,note_on,46,0,5,,,,,,,,,6,,,74,0
35662,note_on,46,0,6,,,,,,,,,5,,,70,0
35664,note_on,2,0,6,,,,,,,,,5,,,70,45
35664,note_on,2,0,5,,,,,,,,,6,,,74,45
35710,note_on,46,0,6,,,,,,,,,5,,,70,0
35710,note_on,46,0,5,,,,,,,,,6,,,74,0
35710,note_on,94,0,7,,,,,,,,,7,,,55,0
35710,note_on,0,0,7,,,,,,,,,7,,,62,0
35712,note_on,2,0,7,,,,,,,,,7,,,55,45
35712,note_on,0,0,7,,,,,,,,,7,,,62,45
35712,note_on,2,0,6,,,,,,,,,5,,,70,45
35712,note_on,2,0,5,,,,,,,,,6,,,79,45
35758,note_on,46,0,6,,,,,,,,,5,,,70,0
35758,note_on,46,0,5,,,,,,,,,6,,,79,0
35760,note_on,2,0,5,,,,,,,,,6,,,74,45
35760,note_on,2,0,6,,,,,,,,,5,,,70,45
35806,note_on,94,0,7,,,,,,,,,7,,,55,0
35806,note_on,0,0,7,,,,,,,,,7,,,62,0
35806,note_on,46,0,5,,,,,,,,,6,,,74,0
35806,note_on,46,0,6,,,,,,,,,5,,,70,0
35808,note_on,2,0,5,,,,,,,,,6,,,74,45
35808,note_on,2,0,7,,,,,,,,,7,,,55,45
35808,note_on,0,0,7,,,,,,,,,7,,,62,45
35808,note_on,2,0,6,,,,,,,,,5,,,70,45
35854,note_on,46,0,6,,,,,,,,,5,,,70,0
35854,note_on,46,0,5,,,,,,,,,6,,,74,0
35856,note_on,2,0,6,,,,,,,,,5,,,70,45
35856,note_on,2,0,5,,,,,,,,,6,,,74,45
35902,note_on,0,0,7,,,,,,,,,7,,,62,0
35902,note_on,46,0,6,,,,,,,,,5,,,70,0
35902,note_on,46,0,5,,,,,,,,,6,,,74,0
35902,note_on,94,0,7,,,,,,,,,7,,,55,0
35904,note_on,0,0,7,,,,,,,,,7,,,63,45
35904,note_on,0,0,1,,,,,,,,,0,,,75,60
35904,note_on,576,0,1,,,,,,,,,0,,,70,0
35904,note_on,2,0,7,,,,,,,,,7,,,55,45
35904,note_on,2,0,5,,,,,,,,,6,,,79,45
35904,note_on,576,0,3,,,,,,,,,2,,,62,0
35904,note_on,2,0,6,,,,,,,,,5,,,75,45
35904,note_on,0,0,3,,,,,,,,,2,,,58,60
35950,note_on,46,0,6,,,,,,,,,5,,,75,0
35950,note_on,46,0,5,,,,,,,,,6,,,79,0
35952,note_on,2,0,6,,,,,,,,,5,,,70,45
35952,note_on,2,0,5,,,,,,,,,6,,,75,45
35998,note_on,46,0,5,,,,,,,,,6,,,75,0
35998,note_on,46,0,6,,,,,,,,,5,,,70,0
35998,note_on,0,0,7,,,,,,,,,7,,,63,0
35998,note_on,94,0,7,,,,,,,,,7,,,55,0
36000,note_on,0,0,7,,,,,,,,,7,,,63,45
36000,note_on,2,0,6,,,,,,,,,5,,,70,45
36000,note_on,2,0,7,,,,,,,,,7,,,55,45
36000,note_on,2,0,5,,,,,,,,,6,,,75,45
36046,note_on,46,0,5,,,,,,,,,6,,,75,0
36046,note_on,46,0,6,,,,,,,,,5,,,70,0
36048,note_on,2,0,5,,,,,,,,,6,,,75,45
36048,note_on,2,0,6,,,,,,,,,5,,,70,45
36094,note_on,46,0,5,,,,,,,,,6,,,75,0
36094,note_on,94,0,7,,,,,,,,,7,,,55,0
36094,note_on,0,0,7,,,,,,,,,7,,,63,0
36094,note_on,46,0,6,,,,,,,,,5,,,70,0
36096,note_on,2,0,6,,,,,,,,,5,,,75,45
36096,note_on,2,0,7,,,,,,,,,7,,,55,45
36096,note_on,0,0,7,,,,,,,,,7,,,63,45
36096,note_on,2,0,5,,,,,,,,,6,,,79,45
36142,note_on,46,0,5,,,,,,,,,6,,,79,0
36142,note_on,46,0,6,,,,,,,,,5,,,75,0
36144,note_on,2,0,5,,,,,,,,,6,,,75,45
36144,note_on,2,0,6,,,,,,,,,5,,,70,45
36190,note_on,46,0,5,,,,,,,,,6,,,75,0
36190,note_on,94,0,7,,,,,,,,,7,,,55,0
36190,note_on,0,0,7,,,,,,,,,7,,,63,0
36190,note_on,46,0,6,,,,,,,,,5,,,70,0
36192,note_on,2,0,5,,,,,,,,,6,,,75,45
36192,note_on,0,0,7,,,,,,,,,7,,,63,45
36192,note_on,2,0,7,,,,,,,,,7,,,55,45
36192,note_on,2,0,6,,,,,,,,,5,,,70,45
36238,note_on,46,0,5,,,,,,,,,6,,,75,0
36238,note_on,46,0,6,,,,,,,,,5,,,70,0
36240,note_on,2,0,5,,,,,,,,,6,,,75,45
36240,note_on,2,0,6,,,,,,,,,5,,,70,45
36286,note_on,94,0,7,,,,,,,,,7,,,55,0
36286,note_on,46,0,6,,,,,,,,,5,,,70,0
36286,note_on,46,0,5,,,,,,,,,6,,,75,0
36286,note_on,0,0,7,,,,,,,,,7,,,63,0
36288,note_on,2,0,5,,,,,,,,,6,,,79,45
36288,note_on,0,0,1,,,,,,,,,0,,,74,60
36288,note_on,2,0,6,,,,,,,,,5,,,74,45
36288,note_on,0,0,7,,,,,,,,,7,,,63,45
36288,note_on,2,0,7,,,,,,,,,7,,,55,45
36288,note_on,384,0,1,,,,,,,,,0,,,75,0
36334,note_on,46,0,5,,,,,,,,,6,,,79,0
36334,note_on,46,0,6,,,,,,,,,5,,,74,0
36336,note_on,2,0,6,,,,,,,,,5,,,70,45
36336,note_on,2,0,5,,,,,,,,,6,,,74,45
36382,note_on,94,0,7,,,,,,,,,7,,,55,0
36382,note_on,0,0,7,,,,,,,,,7,,,63,0
36382,note_on,46,0,6,,,,,,,,,5,,,70,0
36382,note_on,46,0,5,,,,,,,,,6,,,74,0
36384,note_on,2,0,5,,,,,,,,,6,,,74,45
36384,note_on,2,0,7,,,,,,,,,7,,,55,45
36384,note_on,0,0,7,,,,,,,,,7,,,63,45
36384,note_on,2,0,6,,,,,,,,,5,,,70,45
36430,note_on,46,0,5,,,,,,,,,6,,,74,0
36430,note_on,46,0,6,,,,,,,,,5,,,70,0
36432,note_on,2,0,5,,,,,,,,,6,,,74,45
36432,note_on,2,0,6,,,,,,,,,5,,,70,45
36478,note_on,46,0,5,,,,,,,,,6,,,74,0
36478,note_on,94,0,7,,,,,,,,,7,,,55,0
36478,note_on,0,0,7,,,,,,,,,7,,,63,0
36478,note_on,46,0,6,,,,,,,,,5,,,70,0
36480,note_on,2,0,5,,,,,,,,,6,,,79,45
36480,note_on,0,0,7,,,,,,,,,7,,,64,45
36480,note_on,0,0,7,,,,,,,,,7,,,58,45
36480,note_on,2,0,7,,,,,,,,,7,,,55,45
36480,note_on,192,0,1,,,,,,,,,0,,,74,0
36480,note_on,1152,0,2,,,,,,,,,1,,,67,0
36480,note_on,0,0,2,,,,,,,,,1,,,64,60
36480,note_on,0,0,1,,,,,,,,,0,,,73,60
36480,note_on,2,0,6,,,,,,,,,5,,,76,45
36526,note_on,46,0,6,,,,,,,,,5,,,76,0
36526,note_on,46,0,5,,,,,,,,,6,,,79,0
36528,note_on,2,0,6,,,,,,,,,5,,,73,45
36528,note_on,2,0,5,,,,,,,,,6,,,76,45
36574,note_on,0,0,7,,,,,,,,,7,,,64,0
36574,note_on,0,0,7,,,,,,,,,7,,,58,0
36574,note_on,94,0,7,,,,,,,,,7,,,55,0
36574,note_on,46,0,6,,,,,,,,,5,,,73,0
36574,note_on,46,0,5,,,,,,,,,6,,,76,0
36576,note_on,0,0,7,,,,,,,,,7,,,58,45
36576,note_on,0,0,7,,,,,,,,,7,,,64,45
36576,note_on,2,0,7,,,,,,,,,7,,,55,45
36576,note_on,2,0,6,,,,,,,,,5,,,73,45
36576,note_on,2,0,5,,,,,,,,,6,,,76,45
36622,note_on,46,0,6,,,,,,,,,5,,,73,0
36622,note_on,46,0,5,,,,,,,,,6,,,76,0
36624,note_on,2,0,5,,,,,,,,,6,,,76,45
36624,note_on,2,0,6,,,,,,,,,5,,,73,45
36670,note_on,0,0,7,,,,,,,,,7,,,64,0
36670,note_on,0,0,7,,,,,,,,,7,,,58,0
36670,note_on,94,0,7,,,,,,,,,7,,,55,0
36670,note_on,46,0,5,,,,,,,,,6,,,76,0
36670,note_on,46,0,6,,,,,,,,,5,,,73,0
36672,note_on,2,0,6,,,,,,,,,5,,,76,45
36672,note_on,0,0,7,,,,,,,,,7,,,64,45
36672,note_on,0,0,7,,,,,,,,,7,,,58,45
36672,note_on,2,0,7,,,,,,,,,7,,,55,45
36672,note_on,2,0,5,,,,,,,,,6,,,79,45
36718,note_on,46,0,5,,,,,,,,,6,,,79,0
36718,note_on,46,0,6,,,,,,,,,5,,,76,0
36720,note_on,2,0,6,,,,,,,,,5,,,73,45
36720,note_on,2,0,5,,,,,,,,,6,,,76,45
36766,note_on,46,0,5,,,,,,,,,6,,,76,0
36766,note_on,0,0,7,,,,,,,,,7,,,58,0
36766,note_on,94,0,7,,,,,,,,,7,,,55,0
36766,note_on,46,0,6,,,,,,,,,5,,,73,0
36766,note_on,0,0,7,,,,,,,,,7,,,64,0
36768,note_on,0,0,7,,,,,,,,,7,,,58,45
36768,note_on,2,0,5,,,,,,,,,6,,,76,45
36768,note_on,0,0,7,,,,,,,,,7,,,64,45
36768,note_on,2,0,6,,,,,,,,,5,,,73,45
36768,note_on,2,0,7,,,,,,,,,7,,,55,45
36814,note_on,46,0,5,,,,,,,,,6,,,76,0
36814,note_on,46,0,6,,,,,,,,,5,,,73,0
36816,note_on,2,0,5,,,,,,,,,6,,,76,45
36816,note_on,2,0,6,,,,,,,,,5,,,73,45
36862,note_on,0,0,7,,,,,,,,,7,,,58,0
36862,note_on,94,0,7,,,,,,,,,7,,,55,0
36862,note_on,0,0,7,,,,,,,,,7,,,64,0
36862,note_on,46,0,5,,,,,,,,,6,,,76,0
36862,note_on,46,0,6,,,,,,,,,5,,,73,0
36864,note_on,2,0,6,,,,,,,,,5,,,76,45
36864,note_on,2,0,7,,,,,,,,,7,,,55,45
36864,note_on,0,0,7,,,,,,,,,7,,,58,45
36864,note_on,0,0,7,,,,,,,,,7,,,64,45
36864,note_on,2,0,5,,,,,,,,,6,,,79,45
36910,note_on,46,0,5,,,,,,,,,6,,,79,0
36910,note_on,46,0,6,,,,,,,,,5,,,76,0
36912,note_on,2,0,6,,,,,,,,,5,,,73,45
36912,note_on,2,0,5,,,,,,,,,6,,,76,45
36958,note_on,0,0,7,,,,,,,,,7,,,64,0
36958,note_on,0,0,7,,,,,,,,,7,,,58,0
36958,note_on,94,0,7,,,,,,,,,7,,,55,0
36958,note_on,46,0,6,,,,,,,,,5,,,73,0
36958,note_on,46,0,5,,,,,,,,,6,,,76,0
36960,note_on,2,0,5,,,,,,,,,6,,,76,45
36960,note_on,2,0,6,,,,,,,,,5,,,73,45
36960,note_on,2,0,7,,,,,,,,,7,,,55,45
36960,note_on,0,0,7,,,,,,,,,7,,,58,45
36960,note_on,0,0,7,,,,,,,,,7,,,64,45
37006,note_on,46,0,6,,,,,,,,,5,,,73,0
37006,note_on,46,0,5,,,,,,,,,6,,,76,0
37008,note_on,2,0,5,,,,,,,,,6,,,76,45
37008,note_on,2,0,6,,,,,,,,,5,,,73,45
37054,note_on,46,0,6,,,,,,,,,5,,,73,0
37054,note_on,0,0,7,,,,,,,,,7,,,64,0
37054,note_on,0,0,7,,,,,,,,,7,,,58,0
37054,note_on,46,0,5,,,,,,,,,6,,,76,0
37054,note_on,94,0,7,,,,,,,,,7,,,55,0
37056,note_on,0,0,1,,,,,,,,,0,,,74,60
37056,note_on,2,0,5,,,,,,,,,6,,,79,45
37056,note_on,576,0,1,,,,,,,,,0,,,73,0
37056,note_on,1728,0,4,,,,,,,,,3,,,55,0
37056,note_on,0,0,3,,,,,,,,,2,,,59,60
37056,note_on,576,0,2,,,,,,,,,1,,,64,0
37056,note_on,0,0,7,,,,,,,,,7,,,65,45
37056,note_on,1152,0,3,,,,,,,,,2,,,58,0
37056,note_on,2,0,7,,,,,,,,,7,,,53,45
37056,note_on,0,0,2,,,,,,,,,1,,,67,60
37056,note_on,0,0,4,,,,,,,,,3,,,53,60
37056,note_on,2,0,6,,,,,,,,,5,,,74,45
37056,note_on,0,0,7,,,,,,,,,7,,,59,45
37102,note_on,46,0,6,,,,,,,,,5,,,74,0
37102,note_on,46,0,5,,,,,,,,,6,,,79,0
37104,note_on,2,0,5,,,,,,,,,6,,,74,45
37104,note_on,2,0,6,,,,,,,,,5,,,71,45
37150,note_on,0,0,7,,,,,,,,,7,,,65,0
37150,note_on,0,0,7,,,,,,,,,7,,,59,0
37150,note_on,46,0,5,,,,,,,,,6,,,74,0
37150,note_on,46,0,6,,,,,,,,,5,,,71,0
37150,note_on,94,0,7,,,,,,,,,7,,,53,0
37152,note_on,2,0,5,,,,,,,,,6,,,74,45
37152,note_on,2,0,6,,,,,,,,,5,,,71,45
37152,note_on,0,0,7,,,,,,,,,7,,,65,45
37152,note_on,0,0,7,,,,,,,,,7,,,59,45
37152,note_on,2,0,7,,,,,,,,,7,,,53,45
37198,note_on,46,0,5,,,,,,,,,6,,,74,0
37198,note_on,46,0,6,,,,,,,,,5,,,71,0
37200,note_on,2,0,6,,,,,,,,,5,,,71,45
37200,note_on,2,0,5,,,,,,,,,6,,,74,45
37246,note_on,46,0,5,,,,,,,,,6,,,74,0
37246,note_on,46,0,6,,,,,,,,,5,,,71,0
37246,note_on,94,0,7,,,,,,,,,7,,,53,0
37246,note_on,0,0,7,,,,,,,,,7,,,59,0
37246,note_on,0,0,7,,,,,,,,,7,,,65,0
37248,note_on,0,0,7,,,,,,,,,7,,,65,45
37248,note_on,2,0,5,,,,,,,,,6,,,79,45
37248,note_on,2,0,6,,,,,,,,,5,,,74,45
37248,note_on,2,0,7,,,,,,,,,7,,,53,45
37248,note_on,0,0,7,,,,,,,,,7,,,59,45
37294,note_on,46,0,6,,,,,,,,,5,,,74,0
37294,note_on,46,0,5,,,,,,,,,6,,,79,0
37296,note_on,2,0,5,,,,,,,,,6,,,74,45
37296,note_on,2,0,6,,,,,,,,,5,,,71,45
37342,note_on,0,0,7,,,,,,,,,7,,,65,0
37342,note_on,0,0,7,,,,,,,,,7,,,59,0
37342,note_on,46,0,5,,,,,,,,,6,,,74,0
37342,note_on,46,0,6,,,,,,,,,5,,,71,0
37342,note_on,94,0,7,,,,,,,,,7,,,53,0
37344,note_on,0,0,7,,,,,,,,,7,,,59,45
37344,note_on,2,0,7,,,,,,,,,7,,,53,45
37344,note_on,2,0,5,,,,,,,,,6,,,74,45
37344,note_on,0,0,7,,,,,,,,,7,,,65,45
37344,note_on,2,0,6,,,,,,,,,5,,,71,45
37390,note_on,46,0,5,,,,,,,,,6,,,74,0
37390,note_on,46,0,6,,,,,,,,,5,,,71,0
37392,note_on,2,0,6,,,,,,,,,5,,,71,45
37392,note_on,2,0,5,,,,,,,,,6,,,74,45
37438,note_on,46,0,6,,,,,,,,,5,,,71,0
37438,note_on,0,0,7,,,,,,,,,7,,,65,0
37438,note_on,46,0,5,,,,,,,,,6,,,74,0
37438,note_on,94,0,7,,,,,,,,,7,,,53,0
37438,note_on,0,0,7,,,,,,,,,7,,,59,0
37440,note_on,0,0,7,,,,,,,,,7,,,65,45
37440,note_on,0,0,7,,,,,,,,,7,,,59,45
37440,note_on,2,0,7,,,,,,,,,7,,,53,45
37440,note_on,2,0,5,,,,,,,,,6,,,74,45
37440,note_on,0,0,5,,,,,,,,,6,,,79,45
37440,note_on,2,0,6,,,,,,,,,5,,,71,45
37486,note_on,46,0,6,,,,,,,,,5,,,71,0
37486,note_on,0,0,5,,,,,,,,,6,,,79,0
37486,note_on,46,0,5,,,,,,,,,6,,,74,0
37488,note_on,2,0,6,,,,,,,,,5,,,71,45
37488,note_on,2,0,5,,,,,,,,,6,,,74,45
37534,note_on,46,0,6,,,,,,,,,5,,,71,0
37534,note_on,46,0,5,,,,,,,,,6,,,74,0
37534,note_on,94,0,7,,,,,,,,,7,,,53,0
37534,note_on,0,0,7,,,,,,,,,7,,,59,0
37534,note_on,0,0,7,,,,,,,,,7,,,65,0
37536,note_on,2,0,5,,,,,,,,,6,,,74,45
37536,note_on,0,0,7,,,,,,,,,7,,,59,45
37536,note_on,0,0,7,,,,,,,,,7,,,65,45
37536,note_on,2,0,6,,,,,,,,,5,,,71,45
37536,note_on,2,0,7,,,,,,,,,7,,,53,45
37582,note_on,46,0,6,,,,,,,,,5,,,71,0
37582,note_on,46,0,5,,,,,,,,,6,,,74,0
37584,note_on,2,0,6,,,,,,,,,5,,,71,45
37584,note_on,2,0,5,,,,,,,,,6,,,74,45
37630,note_on,94,0,7,,,,,,,,,7,,,53,0
37630,note_on,0,0,7,,,,,,,,,7,,,59,0
37630,note_on,0,0,7,,,,,,,,,7,,,65,0
37630,note_on,46,0,6,,,,,,,,,5,,,71,0
37630,note_on,46,0,5,,,,,,,,,6,,,74,0
37632,note_on,2,0,6,,,,,,,,,5,,,73,45
37632,note_on,0,0,7,,,,,,,,,7,,,66,45
37632,note_on,576,0,1,,,,,,,,,0,,,74,0
37632,note_on,2,0,7,,,,,,,,,7,,,54,45
37632,note_on,0,0,1,,,,,,,,,0,,,73,60
37632,note_on,2,0,5,,,,,,,,,6,,,79,45
37632,note_on,576,0,4,,,,,,,,,3,,,53,0
37632,note_on,0,0,4,,,,,,,,,3,,,54,60
37632,note_on,0,0,7,,,,,,,,,7,,,59,45
37678,note_on,46,0,5,,,,,,,,,6,,,79,0
37678,note_on,46,0,6,,,,,,,,,5,,,73,0
37680,note_on,2,0,5,,,,,,,,,6,,,73,45
37680,note_on,2,0,6,,,,,,,,,5,,,71,45
37726,note_on,46,0,5,,,,,,,,,6,,,73,0
37726,note_on,94,0,7,,,,,,,,,7,,,54,0
37726,note_on,46,0,6,,,,,,,,,5,,,71,0
37726,note_on,0,0,7,,,,,,,,,7,,,66,0
37726,note_on,0,0,7,,,,,,,,,7,,,59,0
37728,note_on,0,0,7,,,,,,,,,7,,,59,45
37728,note_on,0,0,7,,,,,,,,,7,,,66,45
37728,note_on,2,0,5,,,,,,,,,6,,,73,45
37728,note_on,2,0,6,,,,,,,,,5,,,71,45
37728,note_on,2,0,7,,,,,,,,,7,,,54,45
37774,note_on,46,0,5,,,,,,,,,6,,,73,0
37774,note_on,46,0,6,,,,,,,,,5,,,71,0
37776,note_on,2,0,6,,,,,,,,,5,,,71,45
37776,note_on,2,0,5,,,,,,,,,6,,,73,45
37822,note_on,46,0,5,,,,,,,,,6,,,73,0
37822,note_on,0,0,7,,,,,,,,,7,,,59,0
37822,note_on,0,0,7,,,,,,,,,7,,,66,0
37822,note_on,46,0,6,,,,,,,,,5,,,71,0
37822,note_on,94,0,7,,,,,,,,,7,,,54,0
37824,note_on,2,0,7,,,,,,,,,7,,,54,45
37824,note_on,0,0,7,,,,,,,,,7,,,59,45
37824,note_on,0,0,7,,,,,,,,,7,,,66,45
37824,note_on,2,0,5,,,,,,,,,6,,,79,45
37824,note_on,2,0,6,,,,,,,,,5,,,73,45
37870,note_on,46,0,5,,,,,,,,,6,,,79,0
37870,note_on,46,0,6,,,,,,,,,5,,,73,0
37872,note_on,2,0,6,,,,,,,,,5,,,71,45
37872,note_on,2,0,5,,,,,,,,,6,,,73,45
37918,note_on,46,0,5,,,,,,,,,6,,,73,0
37918,note_on,94,0,7,,,,,,,,,7,,,54,0
37918,note_on,0,0,7,,,,,,,,,7,,,59,0
37918,note_on,0,0,7,,,,,,,,,7,,,66,0
37918,note_on,46,0,6,,,,,,,,,5,,,71,0
37920,note_on,2,0,7,,,,,,,,,7,,,54,45
37920,note_on,2,0,6,,,,,,,,,5,,,71,45
37920,note_on,2,0,5,,,,,,,,,6,,,73,45
37920,note_on,0,0,7,,,,,,,,,7,,,59,45
37920,note_on,0,0,7,,,,,,,,,7,,,66,45
37966,note_on,46,0,5,,,,,,,,,6,,,73,0
37966,note_on,46,0,6,,,,,,,,,5,,,71,0
37968,note_on,2,0,5,,,,,,,,,6,,,73,45
37968,note_on,2,0,6,,,,,,,,,5,,,71,45
38014,note_on,94,0,7,,,,,,,,,7,,,54,0
38014,note_on,0,0,7,,,,,,,,,7,,,59,0
38014,note_on,0,0,7,,,,,,,,,7,,,66,0
38014,note_on,46,0,5,,,,,,,,,6,,,73,0
38014,note_on,46,0,6,,,,,,,,,5,,,71,0
38016,note_on,2,0,6,,,,,,,,,5,,,73,45
38016,note_on,2,0,5,,,,,,,,,6,,,79,45
38016,note_on,0,0,7,,,,,,,,,7,,,66,45
38016,note_on,0,0,7,,,,,,,,,7,,,59,45
38016,note_on,2,0,7,,,,,,,,,7,,,54,45
38062,note_on,46,0,6,,,,,,,,,5,,,73,0
38062,note_on,46,0,5,,,,,,,,,6,,,79,0
38064,note_on,2,0,6,,,,,,,,,5,,,71,45
38064,note_on,2,0,5,,,,,,,,,6,,,73,45
38110,note_on,0,0,7,,,,,,,,,7,,,66,0
38110,note_on,0,0,7,,,,,,,,,7,,,59,0
38110,note_on,94,0,7,,,,,,,,,7,,,54,0
38110,note_on,46,0,5,,,,,,,,,6,,,73,0
38110,note_on,46,0,6,,,,,,,,,5,,,71,0
38112,note_on,2,0,6,,,,,,,,,5,,,71,45
38112,note_on,2,0,5,,,,,,,,,6,,,73,45
38112,note_on,0,0,7,,,,,,,,,7,,,66,45
38112,note_on,2,0,7,,,,,,,,,7,,,54,45
38112,note_on,0,0,7,,,,,,,,,7,,,59,45
38158,note_on,46,0,5,,,,,,,,,6,,,73,0
38158,note_on,46,0,6,,,,,,,,,5,,,71,0
38160,note_on,2,0,5,,,,,,,,,6,,,73,45
38160,note_on,2,0,6,,,,,,,,,5,,,71,45
38206,note_on,0,0,7,,,,,,,,,7,,,66,0
38206,note_on,94,0,7,,,,,,,,,7,,,54,0
38206,note_on,46,0,6,,,,,,,,,5,,,71,0
38206,note_on,0,0,7,,,,,,,,,7,,,59,0
38206,note_on,46,0,5,,,,,,,,,6,,,73,0
38208,note_on,2,0,6,,,,,,,,,5,,,73,45
38208,note_on,2,0,7,,,,,,,,,7,,,54,45
38208,note_on,0,0,7,,,,,,,,,7,,,58,45
38208,note_on,0,0,7,,,,,,,,,7,,,66,45
38208,note_on,2,0,5,,,,,,,,,6,,,78,45
38208,note_on,0,0,2,,,,,,,,,1,,,66,60
38208,note_on,1152,0,2,,,,,,,,,1,,,67,0
38208,note_on,1152,0,3,,,,,,,,,2,,,59,0
38208,note_on,0,0,3,,,,,,,,,2,,,58,60
38254,note_on,46,0,6,,,,,,,,,5,,,73,0
38254,note_on,46,0,5,,,,,,,,,6,,,78,0
38256,note_on,2,0,5,,,,,,,,,6,,,73,45
38256,note_on,2,0,6,,,,,,,,,5,,,70,45
38302,note_on,0,0,7,,,,,,,,,7,,,66,0
38302,note_on,46,0,5,,,,,,,,,6,,,73,0
38302,note_on,46,0,6,,,,,,,,,5,,,70,0
38302,note_on,94,0,7,,,,,,,,,7,,,54,0
38302,note_on,0,0,7,,,,,,,,,7,,,58,0
38304,note_on,2,0,5,,,,,,,,,6,,,73,45
38304,note_on,2,0,6,,,,,,,,,5,,,70,45
38304,note_on,2,0,7,,,,,,,,,7,,,54,45
38304,note_on,0,0,7,,,,,,,,,7,,,58,45
38304,note_on,0,0,7,,,,,,,,,7,,,66,45
38350,note_on,46,0,6,,,,,,,,,5,,,70,0
38350,note_on,46,0,5,,,,,,,,,6,,,73,0
38352,note_on,2,0,6,,,,,,,,,5,,,70,45
38352,note_on,2,0,5,,,,,,,,,6,,,73,45
38398,note_on,0,0,7,,,,,,,,,7,,,58,0
38398,note_on,0,0,7,,,,,,,,,7,,,66,0
38398,note_on,46,0,5,,,,,,,,,6,,,73,0
38398,note_on,46,0,6,,,,,,,,,5,,,70,0
38398,note_on,94,0,7,,,,,,,,,7,,,54,0
38400,note_on,2,0,5,,,,,,,,,6,,,73,45
38400,note_on,0,0,5,,,,,,,,,6,,,78,45
38400,note_on,2,0,6,,,,,,,,,5,,,73,45
38400,note_on,0,0,7,,,,,,,,,7,,,66,45
38400,note_on,0,0,7,,,,,,,,,7,,,58,45
38400,note_on,2,0,7,,,,,,,,,7,,,54,45
38446,note_on,46,0,5,,,,,,,,,6,,,73,0
38446,note_on,46,0,6,,,,,,,,,5,,,73,0
38446,note_on,0,0,5,,,,,,,,,6,,,78,0
38448,note_on,2,0,5,,,,,,,,,6,,,73,45
38448,note_on,2,0,6,,,,,,,,,5,,,70,45
38494,note_on,46,0,5,,,,,,,,,6,,,73,0
38494,note_on,46,0,6,,,,,,,,,5,,,70,0
38494,note_on,94,0,7,,,,,,,,,7,,,54,0
38494,note_on,0,0,7,,,,,,,,,7,,,58,0
38494,note_on,0,0,7,,,,,,,,,7,,,66,0
38496,note_on,2,0,5,,,,,,,,,6,,,73,45
38496,note_on,2,0,7,,,,,,,,,7,,,54,45
38496,note_on,0,0,7,,,,,,,,,7,,,66,45
38496,note_on,2,0,6,,,,,,,,,5,,,70,45
38496,note_on,0,0,7,,,,,,,,,7,,,58,45
38542,note_on,46,0,6,,,,,,,,,5,,,70,0
38542,note_on,46,0,5,,,,,,,,,6,,,73,0
38544,note_on,2,0,6,,,,,,,,,5,,,70,45
38544,note_on,2,0,5,,,,,,,,,6,,,73,45
38590,note_on,0,0,7,,,,,,,,,7,,,66,0
38590,note_on,0,0,7,,,,,,,,,7,,,58,0
38590,note_on,94,0,7,,,,,,,,,7,,,54,0
38590,note_on,46,0,5,,,,,,,,,6,,,73,0
38590,note_on,46,0,6,,,,,,,,,5,,,70,0
38592,note_on,0,0,7,,,,,,,,,7,,,58,45
38592,note_on,960,0,1,,,,,,,,,0,,,73,0
38592,note_on,0,0,1,,,,,,,,,0,,,70,60
38592,note_on,2,0,7,,,,,,,,,7,,,54,45
38592,note_on,2,0,6,,,,,,,,,5,,,70,45
38592,note_on,0,0,5,,,,,,,,,6,,,78,45
38592,note_on,2,0,5,,,,,,,,,6,,,73,45
38592,note_on,0,0,7,,,,,,,,,7,,,66,45
38638,note_on,46,0,6,,,,,,,,,5,,,70,0
38638,note_on,46,0,5,,,,,,,,,6,,,73,0
38638,note_on,0,0,5,,,,,,,,,6,,,78,0
38640,note_on,2,0,5,,,,,,,,,6,,,73,45
38640,note_on,2,0,6,,,,,,,,,5,,,70,45
38686,note_on,46,0,5,,,,,,,,,6,,,73,0
38686,note_on,46,0,6,,,,,,,,,5,,,70,0
38686,note_on,0,0,7,,,,,,,,,7,,,66,0
38686,note_on,0,0,7,,,,,,,,,7,,,58,0
38686,note_on,94,0,7,,,,,,,,,7,,,54,0
38688,note_on,2,0,5,,,,,,,,,6,,,73,45
38688,note_on,0,0,7,,,,,,,,,7,,,66,45
38688,note_on,0,0,7,,,,,,,,,7,,,58,45
38688,note_on,2,0,7,,,,,,,,,7,,,54,45
38688,note_on,2,0,6,,,,,,,,,5,,,70,45
38734,note_on,46,0,5,,,,,,,,,6,,,73,0
38734,note_on,46,0,6,,,,,,,,,5,,,70,0
38736,note_on,2,0,5,,,,,,,,,6,,,73,45
38736,note_on,2,0,6,,,,,,,,,5,,,70,45
38782,note_on,46,0,6,,,,,,,,,5,,,70,0
38782,note_on,94,0,7,,,,,,,,,7,,,54,0
38782,note_on,0,0,7,,,,,,,,,7,,,58,0
38782,note_on,0,0,7,,,,,,,,,7,,,66,0
38782,note_on,46,0,5,,,,,,,,,6,,,73,0
38784,note_on,0,0,3,,,,,,,,,2,,,57,60
38784,note_on,576,0,3,,,,,,,,,2,,,58,0
38784,note_on,576,0,2,,,,,,,,,1,,,66,0
38784,note_on,0,0,2,,,,,,,,,1,,,63,60
38784,note_on,2,0,7,,,,,,,,,7,,,47,45
38784,note_on,0,0,7,,,,,,,,,7,,,57,45
38784,note_on,0,0,1,,,,,,,,,0,,,66,60
38784,note_on,2,0,6,,,,,,,,,5,,,66,45
38784,note_on,1152,0,4,,,,,,,,,3,,,54,0
38784,note_on,0,0,4,,,,,,,,,3,,,47,60
38784,note_on,2,0,5,,,,,,,,,6,,,75,45
38784,note_on,192,0,1,,,,,,,,,0,,,70,0
38830,note_on,46,0,5,,,,,,,,,6,,,75,0
38830,note_on,46,0,6,,,,,,,,,5,,,66,0
38832,note_on,2,0,5,,,,,,,,,6,,,71,45
38832,note_on,2,0,6,,,,,,,,,5,,,63,45
38878,note_on,0,0,7,,,,,,,,,7,,,57,0
38878,note_on,94,0,7,,,,,,,,,7,,,47,0
38878,note_on,46,0,5,,,,,,,,,6,,,71,0
38878,note_on,46,0,6,,,,,,,,,5,,,63,0
38880,note_on,2,0,6,,,,,,,,,5,,,63,45
38880,note_on,2,0,5,,,,,,,,,6,,,71,45
38880,note_on,2,0,7,,,,,,,,,7,,,47,45
38880,note_on,0,0,7,,,,,,,,,7,,,57,45
38926,note_on,46,0,6,,,,,,,,,5,,,63,0
38926,note_on,46,0,5,,,,,,,,,6,,,71,0
38928,note_on,2,0,5,,,,,,,,,6,,,71,45
38928,note_on,2,0,6,,,,,,,,,5,,,63,45
38974,note_on,46,0,6,,,,,,,,,5,,,63,0
38974,note_on,46,0,5,,,,,,,,,6,,,71,0
38974,note_on,94,0,7,,,,,,,,,7,,,47,0
38974,note_on,0,0,7,,,,,,,,,7,,,57,0
38976,note_on,2,0,6,,,,,,,,,5,,,66,45
38976,note_on,2,0,5,,,,,,,,,6,,,75,45
38976,note_on,0,0,7,,,,,,,,,7,,,57,45
38976,note_on,2,0,7,,,,,,,,,7,,,47,45
39022,note_on,46,0,6,,,,,,,,,5,,,66,0
39022,note_on,46,0,5,,,,,,,,,6,,,75,0
39024,note_on,2,0,6,,,,,,,,,5,,,63,45
39024,note_on,2,0,5,,,,,,,,,6,,,71,45
39070,note_on,46,0,5,,,,,,,,,6,,,71,0
39070,note_on,0,0,7,,,,,,,,,7,,,57,0
39070,note_on,46,0,6,,,,,,,,,5,,,63,0
39070,note_on,94,0,7,,,,,,,,,7,,,47,0
39072,note_on,2,0,5,,,,,,,,,6,,,71,45
39072,note_on,2,0,6,,,,,,,,,5,,,63,45
39072,note_on,0,0,7,,,,,,,,,7,,,57,45
39072,note_on,2,0,7,,,,,,,,,7,,,47,45
39118,note_on,46,0,6,,,,,,,,,5,,,63,0
39118,note_on,46,0,5,,,,,,,,,6,,,71,0
39120,note_on,2,0,6,,,,,,,,,5,,,63,45
39120,note_on,2,0,5,,,,,,,,,6,,,71,45
39166,note_on,46,0,6,,,,,,,,,5,,,63,0
39166,note_on,0,0,7,,,,,,,,,7,,,57,0
39166,note_on,94,0,7,,,,,,,,,7,,,47,0
39166,note_on,46,0,5,,,,,,,,,6,,,71,0
39168,note_on,2,0,6,,,,,,,,,5,,,71,45
39168,note_on,2,0,5,,,,,,,,,6,,,76,45
39168,note_on,0,0,1,,,,,,,,,0,,,67,60
39168,note_on,384,0,1,,,,,,,,,0,,,66,0
39168,note_on,0,0,2,,,,,,,,,1,,,64,60
39168,note_on,384,0,2,,,,,,,,,1,,,63,0
39168,note_on,384,0,3,,,,,,,,,2,,,57,0
39168,note_on,0,0,3,,,,,,,,,2,,,55,60
39168,note_on,2,0,7,,,,,,,,,7,,,47,45
39168,note_on,0,0,7,,,,,,,,,7,,,57,45
39214,note_on,46,0,5,,,,,,,,,6,,,76,0
39214,note_on,46,0,6,,,,,,,,,5,,,71,0
39216,note_on,2,0,5,,,,,,,,,6,,,71,45
39216,note_on,2,0,6,,,,,,,,,5,,,67,45
39262,note_on,94,0,7,,,,,,,,,7,,,47,0
39262,note_on,46,0,5,,,,,,,,,6,,,71,0
39262,note_on,0,0,7,,,,,,,,,7,,,57,0
39262,note_on,46,0,6,,,,,,,,,5,,,67,0
39264,note_on,2,0,6,,,,,,,,,5,,,67,45
39264,note_on,2,0,5,,,,,,,,,6,,,71,45
39264,note_on,0,0,7,,,,,,,,,7,,,57,45
39264,note_on,2,0,7,,,,,,,,,7,,,47,45
39310,note_on,46,0,6,,,,,,,,,5,,,67,0
39310,note_on,46,0,5,,,,,,,,,6,,,71,0
39312,note_on,2,0,6,,,,,,,,,5,,,67,45
39312,note_on,2,0,5,,,,,,,,,6,,,71,45
39358,note_on,46,0,6,,,,,,,,,5,,,67,0
39358,note_on,46,0,5,,,,,,,,,6,,,71,0
39358,note_on,0,0,7,,,,,,,,,7,,,57,0
39358,note_on,94,0,7,,,,,,,,,7,,,47,0
39360,note_on,2,0,5,,,,,,,,,6,,,79,45
39360,note_on,192,0,3,,,,,,,,,2,,,55,0
39360,note_on,0,0,7,,,,,,,,,7,,,59,45
39360,note_on,0,0,7,,,,,,,,,7,,,55,45
39360,note_on,2,0,7,,,,,,,,,7,,,47,45
39360,note_on,0,0,3,,,,,,,,,2,,,59,60
39360,note_on,2,0,6,,,,,,,,,5,,,76,45
39406,note_on,46,0,5,,,,,,,,,6,,,79,0
39406,note_on,46,0,6,,,,,,,,,5,,,76,0
39408,note_on,2,0,6,,,,,,,,,5,,,71,45
39408,note_on,2,0,5,,,,,,,,,6,,,76,45
39454,note_on,46,0,6,,,,,,,,,5,,,71,0
39454,note_on,94,0,7,,,,,,,,,7,,,47,0
39454,note_on,0,0,7,,,,,,,,,7,,,55,0
39454,note_on,0,0,7,,,,,,,,,7,,,59,0
39454,note_on,46,0,5,,,,,,,,,6,,,76,0
39456,note_on,2,0,6,,,,,,,,,5,,,71,45
39456,note_on,2,0,7,,,,,,,,,7,,,47,45
39456,note_on,0,0,7,,,,,,,,,7,,,59,45
39456,note_on,2,0,5,,,,,,,,,6,,,76,45
39456,note_on,0,0,7,,,,,,,,,7,,,55,45
39502,note_on,46,0,6,,,,,,,,,5,,,71,0
39502,note_on,46,0,5,,,,,,,,,6,,,76,0
39504,note_on,2,0,6,,,,,,,,,5,,,71,45
39504,note_on,2,0,5,,,,,,,,,6,,,76,45
39550,note_on,46,0,6,,,,,,,,,5,,,71,0
39550,note_on,94,0,7,,,,,,,,,7,,,47,0
39550,note_on,0,0,7,,,,,,,,,7,,,55,0
39550,note_on,0,0,7,,,,,,,,,7,,,59,0
39550,note_on,46,0,5,,,,,,,,,6,,,76,0
39552,note_on,2,0,5,,,,,,,,,6,,,81,45
39552,note_on,0,0,2,,,,,,,,,1,,,63,60
39552,note_on,384,0,2,,,,,,,,,1,,,64,0
39552,note_on,0,0,1,,,,,,,,,0,,,66,60
39552,note_on,2,0,6,,,,,,,,,5,,,78,45
39552,note_on,2,0,7,,,,,,,,,7,,,47,45
39552,note_on,0,0,7,,,,,,,,,7,,,59,45
39552,note_on,384,0,1,,,,,,,,,0,,,67,0
39598,note_on,46,0,5,,,,,,,,,6,,,81,0
39598,note_on,46,0,6,,,,,,,,,5,,,78,0
39600,note_on,2,0,6,,,,,,,,,5,,,75,45
39600,note_on,2,0,5,,,,,,,,,6,,,78,45
39646,note_on,94,0,7,,,,,,,,,7,,,47,0
39646,note_on,0,0,7,,,,,,,,,7,,,59,0
39646,note_on,46,0,5,,,,,,,,,6,,,78,0
39646,note_on,46,0,6,,,,,,,,,5,,,75,0
39648,note_on,2,0,6,,,,,,,,,5,,,75,45
39648,note_on,2,0,5,,,,,,,,,6,,,78,45
39648,note_on,0,0,7,,,,,,,,,7,,,59,45
39648,note_on,2,0,7,,,,,,,,,7,,,47,45
39694,note_on,46,0,6,,,,,,,,,5,,,75,0
39694,note_on,46,0,5,,,,,,,,,6,,,78,0
39696,note_on,2,0,6,,,,,,,,,5,,,75,45
39696,note_on,2,0,5,,,,,,,,,6,,,78,45
39742,note_on,0,0,7,,,,,,,,,7,,,59,0
39742,note_on,94,0,7,,,,,,,,,7,,,47,0
39742,note_on,46,0,6,,,,,,,,,5,,,75,0
39742,note_on,46,0,5,,,,,,,,,6,,,78,0
39744,note_on,0,0,7,,,,,,,,,7,,,59,45
39744,note_on,2,0,7,,,,,,,,,7,,,47,45
39744,note_on,2,0,6,,,,,,,,,5,,,78,45
39744,note_on,2,0,5,,,,,,,,,6,,,81,45
39790,note_on,46,0,6,,,,,,,,,5,,,78,0
39790,note_on,46,0,5,,,,,,,,,6,,,81,0
39792,note_on,2,0,6,,,,,,,,,5,,,75,45
39792,note_on,2,0,5,,,,,,,,,6,,,78,45
39838,note_on,94,0,7,,,,,,,,,7,,,47,0
39838,note_on,0,0,7,,,,,,,,,7,,,59,0
39838,note_on,46,0,6,,,,,,,,,5,,,75,0
39838,note_on,46,0,5,,,,,,,,,6,,,78,0
39840,note_on,2,0,6,,,,,,,,,5,,,75,45
39840,note_on,2,0,5,,,,,,,,,6,,,78,45
39840,note_on,0,0,7,,,,,,,,,7,,,59,45
39840,note_on,2,0,7,,,,,,,,,7,,,47,45
39886,note_on,46,0,5,,,,,,,,,6,,,78,0
39886,note_on,46,0,6,,,,,,,,,5,,,75,0
39888,note_on,528,0,3,,,,,,,,,2,,,59,0
39888,note_on,336,0,2,,,,,,,,,1,,,63,0
39888,note_on,2,0,5,,,,,,,,,6,,,78,45
39888,note_on,336,0,1,,,,,,,,,0,,,66,0
39888,note_on,1104,0,4,,,,,,,,,3,,,47,0
39888,note_on,2,0,6,,,,,,,,,5,,,75,45
39934,note_on,46,0,6,,,,,,,,,5,,,75,0
39934,note_on,0,0,7,,,,,,,,,7,,,59,0
39934,note_on,46,0,5,,,,,,,,,6,,,78,0
39934,note_on,94,0,7,,,,,,,,,7,,,47,0
39936,note_on,48,0,4,,,,,,,,,3,,,52,60
39936,note_on,48,0,2,,,,,,,,,1,,,64,60
39936,note_on,2,0,6,,,,,,,,,5,,,67,60
39936,note_on,48,0,1,,,,,,,,,0,,,67,60
39936,note_on,2,0,5,,,,,,,,,6,,,76,60
39936,note_on,2,0,7,,,,,,,,,7,,,52,60
39936,note_on,0,0,7,,,,,,,,,7,,,59,60
39936,note_on,48,0,3,,,,,,,,,2,,,59,60
40030,note_on,94,0,7,,,,,,,,,7,,,52,0
40030,note_on,0,0,7,,,,,,,,,7,,,59,0
40032,note_on,2,0,7,,,,,,,,,7,,,52,60
40032,note_on,0,0,7,,,,,,,,,7,,,59,60
40096,note_on,160,0,6,,,,,,,,,5,,,67,0
40096,note_on,160,0,5,,,,,,,,,6,,,76,0
40096,note_on,160,0,3,,,,,,,,,2,,,59,0
40126,note_on,94,0,7,,,,,,,,,7,,,52,0
40126,note_on,0,0,7,,,,,,,,,7,,,59,0
40128,note_on,2,0,7,,,,,,,,,7,,,52,60
40128,note_on,32,0,6,,,,,,,,,5,,,67,60
40128,note_on,32,0,5,,,,,,,,,6,,,71,60
40128,note_on,32,0,3,,,,,,,,,2,,,59,60
40222,note_on,94,0,7,,,,,,,,,7,,,52,0
40222,note_on,94,0,6,,,,,,,,,5,,,67,0
40224,note_on,2,0,7,,,,,,,,,7,,,52,60
40224,note_on,2,0,6,,,,,,,,,5,,,67,60
40288,note_on,160,0,3,,,,,,,,,2,,,59,0
40288,note_on,160,0,5,,,,,,,,,6,,,71,0
40318,note_on,94,0,6,,,,,,,,,5,,,67,0
40318,note_on,94,0,7,,,,,,,,,7,,,52,0
40320,note_on,2,0,6,,,,,,,,,5,,,64,60
40320,note_on,32,0,5,,,,,,,,,6,,,67,60
40320,note_on,32,0,3,,,,,,,,,2,,,59,75
40320,note_on,2,0,7,,,,,,,,,7,,,52,60
40414,note_on,94,0,7,,,,,,,,,7,,,52,0
40414,note_on,94,0,6,,,,,,,,,5,,,64,0
40416,note_on,2,0,6,,,,,,,,,5,,,64,60
40416,note_on,2,0,7,,,,,,,,,7,,,52,60
40464,note_on,528,0,4,,,,,,,,,3,,,52,0
40464,note_on,528,0,1,,,,,,,,,0,,,67,0
40464,note_on,528,0,2,,,,,,,,,1,,,64,0
40480,note_on,160,0,5,,,,,,,,,6,,,67,0
40480,note_on,160,0,3,,,,,,,,,2,,,59,0
40510,note_on,94,0,6,,,,,,,,,5,,,64,0
40510,note_on,94,0,7,,,,,,,,,7,,,52,0
40512,note_on,32,0,5,,,,,,,,,6,,,64,60
40512,note_on,2,0,6,,,,,,,,,5,,,76,60
40512,note_on,2,0,7,,,,,,,,,7,,,57,60
40512,note_on,0,0,7,,,,,,,,,7,,,60,60
40512,note_on,32,0,3,,,,,,,,,2,,,60,75
40606,note_on,94,0,7,,,,,,,,,7,,,57,0
40606,note_on,0,0,7,,,,,,,,,7,,,60,0
40608,note_on,2,0,7,,,,,,,,,7,,,57,60
40608,note_on,0,0,7,,,,,,,,,7,,,60,60
40672,note_on,160,0,5,,,,,,,,,6,,,64,0
40672,note_on,160,0,6,,,,,,,,,5,,,76,0
40702,note_on,94,0,7,,,,,,,,,7,,,57,0
40702,note_on,0,0,7,,,,,,,,,7,,,60,0
40704,note_on,240,0,4,,,,,,,,,3,,,52,60
40704,note_on,2,0,7,,,,,,,,,7,,,45,60
40704,note_on,0,0,7,,,,,,,,,7,,,57,60
40704,note_on,32,0,6,,,,,,,,,5,,,64,60
40704,note_on,0,0,6,,,,,,,,,5,,,72,60
40798,note_on,94,0,7,,,,,,,,,7,,,45,0
40798,note_on,0,0,7,,,,,,,,,7,,,57,0
40800,note_on,2,0,7,,,,,,,,,7,,,45,60
40800,note_on,0,0,7,,,,,,,,,7,,,57,60
40864,note_on,160,0,4,,,,,,,,,3,,,52,0
40864,note_on,160,0,6,,,,,,,,,5,,,72,0
40894,note_on,94,0,7,,,,,,,,,7,,,45,0
40894,note_on,0,0,7,,,,,,,,,7,,,57,0
40896,note_on,32,0,6,,,,,,,,,5,,,69,60
40896,note_on,32,0,4,,,,,,,,,3,,,52,75
40896,note_on,2,0,7,,,,,,,,,7,,,45,60
40896,note_on,0,0,7,,,,,,,,,7,,,57,60
40990,note_on,94,0,7,,,,,,,,,7,,,45,0
40990,note_on,0,0,7,,,,,,,,,7,,,57,0
40992,note_on,0,0,7,,,,,,,,,7,,,57,60
40992,note_on,2,0,7,,,,,,,,,7,,,45,60
41056,note_on,160,0,4,,,,,,,,,3,,,52,0
41056,note_on,0,0,6,,,,,,,,,5,,,69,0
41056,note_on,160,0,6,,,,,,,,,5,,,64,0
41086,note_on,0,0,7,,,,,,,,,7,,,57,0
41086,note_on,94,0,7,,,,,,,,,7,,,45,0
41088,note_on,0,0,6,,,,,,,,,5,,,65,60
41088,note_on,32,0,4,,,,,,,,,3,,,53,75
41088,note_on,32,0,6,,,,,,,,,5,,,60,60
41088,note_on,2,0,7,,,,,,,,,7,,,45,60
41088,note_on,0,0,7,,,,,,,,,7,,,57,60
41182,note_on,94,0,7,,,,,,,,,7,,,45,0
41182,note_on,0,0,7,,,,,,,,,7,,,57,0
41184,note_on,512,0,5,,,,,,,,,6,,,65,60
41184,note_on,0,0,7,,,,,,,,,7,,,57,60
41184,note_on,2,0,7,,,,,,,,,7,,,45,60
41248,note_on,160,0,6,,,,,,,,,5,,,60,0
41248,note_on,0,0,6,,,,,,,,,5,,,65,0
41278,note_on,0,0,7,,,,,,,,,7,,,57,0
41278,note_on,94,0,5,,,,,,,,,6,,,65,0
41278,note_on,94,0,7,,,,,,,,,7,,,45,0
41280,note_on,2,0,5,,,,,,,,,6,,,69,60
41280,note_on,0,0,7,,,,,,,,,7,,,53,60
41280,note_on,2,0,7,,,,,,,,,7,,,45,60
41374,note_on,94,0,5,,,,,,,,,6,,,69,0
41374,note_on,0,0,7,,,,,,,,,7,,,53,0
41374,note_on,94,0,7,,,,,,,,,7,,,45,0
41376,note_on,2,0,7,,,,,,,,,7,,,45,60
41376,note_on,2,0,5,,,,,,,,,6,,,72,60
41376,note_on,0,0,7,,,,,,,,,7,,,53,60
41424,note_on,336,0,4,,,,,,,,,3,,,53,0
41424,note_on,912,0,3,,,,,,,,,2,,,60,0
41470,note_on,0,0,7,,,,,,,,,7,,,53,0
41470,note_on,94,0,7,,,,,,,,,7,,,45,0
41470,note_on,94,0,5,,,,,,,,,6,,,72,0
41472,note_on,48,0,3,,,,,,,,,2,,,60,75
41472,note_on,0,0,5,,,,,,,,,6,,,76,60
41472,note_on,0,0,7,,,,,,,,,7,,,53,60
41472,note_on,48,0,4,,,,,,,,,3,,,52,75
41472,note_on,2,0,5,,,,,,,,,6,,,72,60
41472,note_on,2,0,7,,,,,,,,,7,,,45,60
41566,note_on,0,0,5,,,,,,,,,6,,,76,0
41566,note_on,0,0,7,,,,,,,,,7,,,53,0
41566,note_on,94,0,7,,,,,,,,,7,,,45,0
41566,note_on,94,0,5,,,,,,,,,6,,,72,0
41568,note_on,0,0,7,,,,,,,,,7,,,53,60
41568,note_on,2,0,5,,,,,,,,,6,,,64,60
41568,note_on,0,0,5,,,,,,,,,6,,,72,60
41568,note_on,2,0,7,,,,,,,,,7,,,45,60
41632,note_on,160,0,4,,,,,,,,,3,,,52,0
41632,note_on,160,0,3,,,,,,,,,2,,,60,0
41662,note_on,0,0,5,,,,,,,,,6,,,72,0
41662,note_on,94,0,5,,,,,,,,,6,,,64,0
41662,note_on,0,0,7,,,,,,,,,7,,,53,0
41662,note_on,94,0,7,,,,,,,,,7,,,45,0
41664,note_on,0,0,7,,,,,,,,,7,,,54,60
41664,note_on,0,0,7,,,,,,,,,7,,,51,60
41664,note_on,2,0,5,,,,,,,,,6,,,60,60
41664,note_on,32,0,4,,,,,,,,,3,,,51,75
41664,note_on,2,0,7,,,,,,,,,7,,,47,60
41664,note_on,32,0,3,,,,,,,,,2,,,60,75
41664,note_on,0,0,5,,,,,,,,,6,,,66,60
41758,note_on,0,0,7,,,,,,,,,7,,,51,0
41758,note_on,94,0,7,,,,,,,,,7,,,47,0
41758,note_on,0,0,7,,,,,,,,,7,,,54,0
41760,note_on,0,0,7,,,,,,,,,7,,,54,60
41760,note_on,512,0,6,,,,,,,,,5,,,66,60
41760,note_on,2,0,7,,,,,,,,,7,,,47,60
41760,note_on,0,0,7,,,,,,,,,7,,,51,60
41824,note_on,0,0,5,,,,,,,,,6,,,66,0
41824,note_on,160,0,5,,,,,,,,,6,,,60,0
41854,note_on,94,0,6,,,,,,,,,5,,,66,0
41854,note_on,94,0,7,,,,,,,,,7,,,47,0
41854,note_on,0,0,7,,,,,,,,,7,,,51,0
41854,note_on,0,0,7,,,,,,,,,7,,,54,0
41856,note_on,0,0,7,,,,,,,,,7,,,54,60
41856,note_on,0,0,7,,,,,,,,,7,,,51,60
41856,note_on,192,0,3,,,,,,,,,2,,,60,0
41856,note_on,2,0,6,,,,,,,,,5,,,71,60
41856,note_on,0,0,3,,,,,,,,,2,,,59,75
41856,note_on,2,0,7,,,,,,,,,7,,,47,60
41856,note_on,1392,0,2,,,,,,,,,1,,,66,92
41950,note_on,94,0,6,,,,,,,,,5,,,71,0
41950,note_on,94,0,7,,,,,,,,,7,,,47,0
41950,note_on,0,0,7,,,,,,,,,7,,,51,0
41950,note_on,0,0,7,,,,,,,,,7,,,54,0
41952,note_on,2,0,6,,,,,,,,,5,,,75,60
41952,note_on,2,0,7,,,,,,,,,7,,,47,60
41952,note_on,0,0,7,,,,,,,,,7,,,51,60
41952,note_on,0,0,7,,,,,,,,,7,,,54,60
42000,note_on,336,0,4,,,,,,,,,3,,,51,0
42016,note_on,160,0,2,,,,,,,,,1,,,66,0
42016,note_on,160,0,3,,,,,,,,,2,,,59,0
42046,note_on,94,0,6,,,,,,,,,5,,,75,0
42046,note_on,0,0,7,,,,,,,,,7,,,54,0
42046,note_on,94,0,7,,,,,,,,,7,,,47,0
42046,note_on,0,0,7,,,,,,,,,7,,,51,0
42048,note_on,2,0,7,,,,,,,,,7,,,47,60
42048,note_on,32,0,2,,,,,,,,,1,,,66,92
42048,note_on,32,0,3,,,,,,,,,2,,,57,75
42048,note_on,2,0,6,,,,,,,,,5,,,78,60
42048,note_on,48,0,4,,,,,,,,,3,,,51,75
42048,note_on,0,0,7,,,,,,,,,7,,,54,60
42048,note_on,0,0,7,,,,,,,,,7,,,57,60
42142,note_on,94,0,7,,,,,,,,,7,,,47,0
42142,note_on,0,0,7,,,,,,,,,7,,,57,0
42142,note_on,0,0,7,,,,,,,,,7,,,54,0
42142,note_on,94,0,6,,,,,,,,,5,,,78,0
42144,note_on,0,0,7,,,,,,,,,7,,,54,60
42144,note_on,2,0,6,,,,,,,,,5,,,75,60
42144,note_on,2,0,7,,,,,,,,,7,,,47,60
42144,note_on,0,0,7,,,,,,,,,7,,,57,60
42208,note_on,160,0,2,,,,,,,,,1,,,66,0
42208,note_on,160,0,4,,,,,,,,,3,,,51,0
42208,note_on,160,0,3,,,,,,,,,2,,,57,0
42238,note_on,94,0,6,,,,,,,,,5,,,75,0
42238,note_on,94,0,7,,,,,,,,,7,,,47,0
42238,note_on,0,0,7,,,,,,,,,7,,,54,0
42238,note_on,0,0,7,,,,,,,,,7,,,57,0
42240,note_on,0,0,7,,,,,,,,,7,,,55,60
42240,note_on,32,0,4,,,,,,,,,3,,,52,75
42240,note_on,2,0,7,,,,,,,,,7,,,52,60
42240,note_on,2,0,6,,,,,,,,,5,,,71,60
42240,note_on,32,0,3,,,,,,,,,2,,,55,75
42240,note_on,32,0,2,,,,,,,,,1,,,67,92
42288,note_on,464,0,5,,,,,,,,,6,,,76,60
42334,note_on,0,0,7,,,,,,,,,7,,,55,0
42334,note_on,94,0,7,,,,,,,,,7,,,52,0
42334,note_on,46,0,5,,,,,,,,,6,,,76,0
42336,note_on,2,0,5,,,,,,,,,6,,,76,60
42336,note_on,0,0,7,,,,,,,,,7,,,55,60
42336,note_on,0,0,7,,,,,,,,,7,,,59,60
42336,note_on,2,0,7,,,,,,,,,7,,,52,60
42382,note_on,46,0,5,,,,,,,,,6,,,76,0
42384,note_on,2,0,5,,,,,,,,,6,,,76,60
42400,note_on,160,0,6,,,,,,,,,5,,,71,0
42430,note_on,94,0,7,,,,,,,,,7,,,52,0
42430,note_on,0,0,7,,,,,,,,,7,,,55,0
42430,note_on,0,0,7,,,,,,,,,7,,,59,0
42430,note_on,46,0,5,,,,,,,,,6,,,76,0
42432,note_on,2,0,5,,,,,,,,,6,,,79,60
42432,note_on,2,0,7,,,,,,,,,7,,,52,60
42432,note_on,0,0,7,,,,,,,,,7,,,55,60
42432,note_on,1968,0,1,,,,,,,,,0,,,71,92
42432,note_on,0,0,7,,,,,,,,,7,,,59,60
42478,note_on,46,0,5,,,,,,,,,6,,,79,0
42480,note_on,2,0,5,,,,,,,,,6,,,76,60
42496,note_on,256,0,4,,,,,,,,,3,,,52,0
42496,note_on,256,0,3,,,,,,,,,2,,,55,0
42526,note_on,0,0,7,,,,,,,,,7,,,55,0
42526,note_on,94,0,7,,,,,,,,,7,,,52,0
42526,note_on,46,0,5,,,,,,,,,6,,,76,0
42526,note_on,0,0,7,,,,,,,,,7,,,59,0
42528,note_on,32,0,4,,,,,,,,,3,,,52,75
42528,note_on,2,0,7,,,,,,,,,7,,,52,60
42528,note_on,0,0,7,,,,,,,,,7,,,59,60
42528,note_on,32,0,3,,,,,,,,,2,,,54,75
42528,note_on,2,0,5,,,,,,,,,6,,,76,60
42528,note_on,0,0,7,,,,,,,,,7,,,55,60
42574,note_on,46,0,5,,,,,,,,,6,,,76,0
42576,note_on,2,0,5,,,,,,,,,6,,,76,60
42592,note_on,160,0,1,,,,,,,,,0,,,71,0
42622,note_on,46,0,5,,,,,,,,,6,,,76,0
42622,note_on,94,0,4,,,,,,,,,3,,,52,0
42622,note_on,94,0,3,,,,,,,,,2,,,54,0
42622,note_on,94,0,7,,,,,,,,,7,,,52,0
42622,note_on,0,0,7,,,,,,,,,7,,,55,0
42622,note_on,0,0,7,,,,,,,,,7,,,59,0
42624,note_on,2,0,3,,,,,,,,,2,,,52,75
42624,note_on,2,0,7,,,,,,,,,7,,,52,60
42624,note_on,0,0,7,,,,,,,,,7,,,55,60
42624,note_on,0,0,7,,,,,,,,,7,,,64,60
42624,note_on,2,0,5,,,,,,,,,6,,,83,60
42624,note_on,32,0,1,,,,,,,,,0,,,71,92
42624,note_on,2,0,4,,,,,,,,,3,,,52,75
42670,note_on,46,0,5,,,,,,,,,6,,,83,0
42672,note_on,2,0,5,,,,,,,,,6,,,76,60
42718,note_on,46,0,5,,,,,,,,,6,,,76,0
42718,note_on,94,0,7,,,,,,,,,7,,,52,0
42718,note_on,0,0,7,,,,,,,,,7,,,55,0
42718,note_on,0,0,7,,,,,,,,,7,,,64,0
42720,note_on,0,0,7,,,,,,,,,7,,,55,60
42720,note_on,2,0,5,,,,,,,,,6,,,76,60
42720,note_on,2,0,7,,,,,,,,,7,,,52,60
42720,note_on,0,0,7,,,,,,,,,7,,,64,60
42766,note_on,46,0,5,,,,,,,,,6,,,76,0
42768,note_on,2,0,5,,,,,,,,,6,,,76,60
42784,note_on,160,0,3,,,,,,,,,2,,,52,0
42784,note_on,160,0,4,,,,,,,,,3,,,52,0
42784,note_on,160,0,1,,,,,,,,,0,,,71,0
42814,note_on,0,0,7,,,,,,,,,7,,,64,0
42814,note_on,0,0,7,,,,,,,,,7,,,55,0
42814,note_on,46,0,5,,,,,,,,,6,,,76,0
42814,note_on,94,0,7,,,,,,,,,7,,,52,0
42816,note_on,0,0,7,,,,,,,,,7,,,64,60
42816,note_on,0,0,7,,,,,,,,,7,,,55,60
42816,note_on,2,0,7,,,,,,,,,7,,,52,60
42816,note_on,2,0,5,,,,,,,,,6,,,72,60
42816,note_on,32,0,1,,,,,,,,,0,,,72,92
42864,note_on,464,0,6,,,,,,,,,5,,,67,60
42910,note_on,46,0,6,,,,,,,,,5,,,67,0
42910,note_on,0,0,7,,,,,,,,,7,,,64,0
42910,note_on,0,0,7,,,,,,,,,7,,,55,0
42910,note_on,94,0,7,,,,,,,,,7,,,52,0
42912,note_on,2,0,6,,,,,,,,,5,,,67,60
42912,note_on,2,0,7,,,,,,,,,7,,,52,60
42912,note_on,0,0,7,,,,,,,,,7,,,64,60
42912,note_on,0,0,7,,,,,,,,,7,,,55,60
42958,note_on,46,0,6,,,,,,,,,5,,,67,0
42960,note_on,2,0,6,,,,,,,,,5,,,67,60
42976,note_on,160,0,5,,,,,,,,,6,,,72,0
43006,note_on,94,0,7,,,,,,,,,7,,,52,0
43006,note_on,0,0,7,,,,,,,,,7,,,55,0
43006,note_on,0,0,7,,,,,,,,,7,,,64,0
43006,note_on,46,0,6,,,,,,,,,5,,,67,0
43008,note_on,224,0,4,,,,,,,,,3,,,52,92
43008,note_on,224,0,3,,,,,,,,,2,,,60,92
43008,note_on,2,0,7,,,,,,,,,7,,,52,60
43008,note_on,0,0,7,,,,,,,,,7,,,55,60
43008,note_on,0,0,7,,,,,,,,,7,,,60,60
43008,note_on,2,0,6,,,,,,,,,5,,,72,60
43054,note_on,46,0,6,,,,,,,,,5,,,72,0
43056,note_on,2,0,6,,,,,,,,,5,,,76,60
43102,note_on,0,0,7,,,,,,,,,7,,,60,0
43102,note_on,0,0,7,,,,,,,,,7,,,55,0
43102,note_on,94,0,7,,,,,,,,,7,,,52,0
43102,note_on,46,0,6,,,,,,,,,5,,,76,0
43104,note_on,2,0,7,,,,,,,,,7,,,52,60
43104,note_on,2,0,6,,,,,,,,,5,,,76,60
43104,note_on,0,0,7,,,,,,,,,7,,,55,60
43104,note_on,0,0,7,,,,,,,,,7,,,60,60
43150,note_on,46,0,6,,,,,,,,,5,,,76,0
43152,note_on,2,0,6,,,,,,,,,5,,,76,60
43152,note_on,336,0,1,,,,,,,,,0,,,72,0
43152,note_on,912,0,2,,,,,,,,,1,,,67,0
43168,note_on,160,0,3,,,,,,,,,2,,,60,0
43168,note_on,160,0,4,,,,,,,,,3,,,52,0
43198,note_on,0,0,7,,,,,,,,,7,,,60,0
43198,note_on,94,0,7,,,,,,,,,7,,,52,0
43198,note_on,46,0,6,,,,,,,,,5,,,76,0
43198,note_on,0,0,7,,,,,,,,,7,,,55,0
43200,note_on,32,0,3,,,,,,,,,2,,,60,92
43200,note_on,48,0,1,,,,,,,,,0,,,71,108
43200,note_on,2,0,6,,,,,,,,,5,,,79,60
43200,note_on,48,0,2,,,,,,,,,1,,,67,108
43200,note_on,32,0,4,,,,,,,,,3,,,52,92
43200,note_on,0,0,7,,,,,,,,,7,,,59,60
43200,note_on,0,0,7,,,,,,,,,7,,,55,60
43200,note_on,2,0,7,,,,,,,,,7,,,52,60
43246,note_on,46,0,6,,,,,,,,,5,,,79,0
43248,note_on,2,0,6,,,,,,,,,5,,,72,60
43294,note_on,0,0,7,,,,,,,,,7,,,59,0
43294,note_on,0,0,7,,,,,,,,,7,,,55,0
43294,note_on,94,0,7,,,,,,,,,7,,,52,0
43294,note_on,46,0,6,,,,,,,,,5,,,72,0
43296,note_on,0,0,7,,,,,,,,,7,,,55,60
43296,note_on,2,0,7,,,,,,,,,7,,,52,60
43296,note_on,0,0,7,,,,,,,,,7,,,59,60
43296,note_on,2,0,6,,,,,,,,,5,,,72,60
43342,note_on,46,0,6,,,,,,,,,5,,,72,0
43344,note_on,2,0,6,,,,,,,,,5,,,72,60
43360,note_on,160,0,1,,,,,,,,,0,,,71,0
43360,note_on,160,0,2,,,,,,,,,1,,,67,0
43360,note_on,160,0,4,,,,,,,,,3,,,52,0
43360,note_on,160,0,3,,,,,,,,,2,,,60,0
43390,note_on,46,0,6,,,,,,,,,5,,,72,0
43390,note_on,0,0,7,,,,,,,,,7,,,55,0
43390,note_on,94,0,7,,,,,,,,,7,,,52,0
43390,note_on,0,0,7,,,,,,,,,7,,,59,0
43392,note_on,0,0,6,,,,,,,,,5,,,79,60
43392,note_on,32,0,1,,,,,,,,,0,,,70,108
43392,note_on,32,0,3,,,,,,,,,2,,,61,108
43392,note_on,32,0,2,,,,,,,,,1,,,67,108
43392,note_on,32,0,4,,,,,,,,,3,,,54,108
43392,note_on,2,0,7,,,,,,,,,7,,,54,60
43392,note_on,416,0,5,,,,,,,,,6,,,82,60
43392,note_on,2,0,6,,,,,,,,,5,,,73,60
43486,note_on,94,0,7,,,,,,,,,7,,,54,0
43486,note_on,94,0,6,,,,,,,,,5,,,73,0
43486,note_on,0,0,6,,,,,,,,,5,,,79,0
43488,note_on,2,0,6,,,,,,,,,5,,,73,60
43488,note_on,0,0,6,,,,,,,,,5,,,79,60
43488,note_on,2,0,7,,,,,,,,,7,,,54,60
43552,note_on,160,0,5,,,,,,,,,6,,,82,0
43582,note_on,94,0,6,,,,,,,,,5,,,73,0
43582,note_on,0,0,6,,,,,,,,,5,,,79,0
43582,note_on,94,0,7,,,,,,,,,7,,,54,0
43584,note_on,32,0,5,,,,,,,,,6,,,78,60
43584,note_on,192,0,2,,,,,,,,,1,,,67,0
43584,note_on,0,0,2,,,,,,,,,1,,,66,108
43584,note_on,2,0,7,,,,,,,,,7,,,54,60
43584,note_on,0,0,6,,,,,,,,,5,,,73,60
43584,note_on,2,0,6,,,,,,,,,5,,,70,60
43678,note_on,0,0,6,,,,,,,,,5,,,73,0
43678,note_on,94,0,6,,,,,,,,,5,,,70,0
43678,note_on,94,0,7,,,,,,,,,7,,,54,0
43680,note_on,2,0,7,,,,,,,,,7,,,54,60
43680,note_on,0,0,6,,,,,,,,,5,,,73,60
43680,note_on,2,0,6,,,,,,,,,5,,,70,60
43728,note_on,336,0,4,,,,,,,,,3,,,54,0
43728,note_on,336,0,1,,,,,,,,,0,,,70,0
43728,note_on,336,0,3,,,,,,,,,2,,,61,0
43744,note_on,160,0,5,,,,,,,,,6,,,78,0
43744,note_on,160,0,2,,,,,,,,,1,,,66,0
43774,note_on,94,0,6,,,,,,,,,5,,,70,0
43774,note_on,94,0,7,,,,,,,,,7,,,54,0
43774,note_on,0,0,6,,,,,,,,,5,,,73,0
43776,note_on,48,0,3,,,,,,,,,2,,,58,92
43776,note_on,0,0,6,,,,,,,,,5,,,70,60
43776,note_on,2,0,6,,,,,,,,,5,,,64,60
43776,note_on,48,0,1,,,,,,,,,0,,,70,108
43776,note_on,2,0,7,,,,,,,,,7,,,54,60
43776,note_on,32,0,2,,,,,,,,,1,,,64,108
43776,note_on,48,0,4,,,,,,,,,3,,,54,92
43776,note_on,32,0,5,,,,,,,,,6,,,73,60
43870,note_on,94,0,7,,,,,,,,,7,,,54,0
43870,note_on,94,0,6,,,,,,,,,5,,,64,0
43870,note_on,0,0,6,,,,,,,,,5,,,70,0
43872,note_on,2,0,7,,,,,,,,,7,,,54,60
43872,note_on,2,0,6,,,,,,,,,5,,,64,60
43872,note_on,0,0,6,,,,,,,,,5,,,70,60
43936,note_on,160,0,3,,,,,,,,,2,,,58,0
43936,note_on,160,0,2,,,,,,,,,1,,,64,0
43936,note_on,160,0,1,,,,,,,,,0,,,70,0
43936,note_on,160,0,4,,,,,,,,,3,,,54,0
43936,note_on,160,0,5,,,,,,,,,6,,,73,0
43966,note_on,94,0,6,,,,,,,,,5,,,64,0
43966,note_on,0,0,6,,,,,,,,,5,,,70,0
43966,note_on,94,0,7,,,,,,,,,7,,,54,0
43968,note_on,2,0,6,,,,,,,,,5,,,83,60
43968,note_on,32,0,2,,,,,,,,,1,,,62,92
43968,note_on,32,0,3,,,,,,,,,2,,,54,92
43968,note_on,0,0,7,,,,,,,,,7,,,54,60
43968,note_on,32,0,5,,,,,,,,,6,,,74,60
43968,note_on,32,0,4,,,,,,,,,3,,,47,92
43968,note_on,2,0,7,,,,,,,,,7,,,47,60
43968,note_on,32,0,1,,,,,,,,,0,,,71,92
44062,note_on,94,0,7,,,,,,,,,7,,,47,0
44062,note_on,0,0,7,,,,,,,,,7,,,54,0
44064,note_on,0,0,7,,,,,,,,,7,,,54,60
44064,note_on,2,0,7,,,,,,,,,7,,,47,60
44128,note_on,160,0,6,,,,,,,,,5,,,83,0
44128,note_on,160,0,5,,,,,,,,,6,,,74,0
44158,note_on,94,0,7,,,,,,,,,7,,,47,0
44158,note_on,0,0,7,,,,,,,,,7,,,54,0
44160,note_on,2,0,7,,,,,,,,,7,,,47,60
44160,note_on,0,0,7,,,,,,,,,7,,,50,60
44160,note_on,0,0,7,,,,,,,,,7,,,54,60
44160,note_on,32,0,6,,,,,,,,,5,,,78,60
44224,note_on,256,0,2,,,,,,,,,1,,,62,0
44224,note_on,256,0,1,,,,,,,,,0,,,71,0
44254,note_on,94,0,7,,,,,,,,,7,,,47,0
44254,note_on,0,0,7,,,,,,,,,7,,,54,0
44254,note_on,0,0,7,,,,,,,,,7,,,50,0
44256,note_on,32,0,1,,,,,,,,,0,,,71,92
44256,note_on,0,0,7,,,,,,,,,7,,,54,60
44256,note_on,0,0,7,,,,,,,,,7,,,50,60
44256,note_on,32,0,2,,,,,,,,,1,,,61,92
44256,note_on,2,0,7,,,,,,,,,7,,,47,60
44304,note_on,336,0,3,,,,,,,,,2,,,54,0
44320,note_on,160,0,6,,,,,,,,,5,,,78,0
44350,note_on,94,0,7,,,,,,,,,7,,,47,0
44350,note_on,0,0,7,,,,,,,,,7,,,50,0
44350,note_on,0,0,7,,,,,,,,,7,,,54,0
44350,note_on,94,0,1,,,,,,,,,0,,,71,0
44350,note_on,94,0,2,,,,,,,,,1,,,61,0
44352,note_on,48,0,3,,,,,,,,,2,,,54,92
44352,note_on,2,0,2,,,,,,,,,1,,,59,92
44352,note_on,2,0,1,,,,,,,,,0,,,71,92
44352,note_on,32,0,6,,,,,,,,,5,,,74,60
44352,note_on,2,0,7,,,,,,,,,7,,,47,60
44352,note_on,0,0,7,,,,,,,,,7,,,54,60
44352,note_on,0,0,7,,,,,,,,,7,,,50,60
44446,note_on,0,0,7,,,,,,,,,7,,,54,0
44446,note_on,0,0,7,,,,,,,,,7,,,50,0
44446,note_on,94,0,7,,,,,,,,,7,,,47,0
44448,note_on,2,0,7,,,,,,,,,7,,,47,60
44448,note_on,0,0,7,,,,,,,,,7,,,50,60
44448,note_on,0,0,7,,,,,,,,,7,,,54,60
44496,note_on,528,0,4,,,,,,,,,3,,,47,0
44512,note_on,160,0,2,,,,,,,,,1,,,59,0
44512,note_on,160,0,6,,,,,,,,,5,,,74,0
44512,note_on,160,0,1,,,,,,,,,0,,,71,0
44512,note_on,160,0,3,,,,,,,,,2,,,54,0
44542,note_on,0,0,7,,,,,,,,,7,,,54,0
44542,note_on,94,0,7,,,,,,,,,7,,,47,0
44542,note_on,0,0,7,,,,,,,,,7,,,50,0
44544,note_on,0,0,7,,,,,,,,,7,,,50,60
44544,note_on,2,0,7,,,,,,,,,7,,,47,60
44544,note_on,32,0,3,,,,,,,,,2,,,59,92
44544,note_on,32,0,6,,,,,,,,,5,,,62,60
44544,note_on,0,0,7,,,,,,,,,7,,,54,60
44638,note_on,0,0,7,,,,,,,,,7,,,54,0
44638,note_on,0,0,7,,,,,,,,,7,,,50,0
44638,note_on,94,0,7,,,,,,,,,7,,,47,0
44640,note_on,0,0,7,,,,,,,,,7,,,54,60
44640,note_on,512,0,5,,,,,,,,,6,,,66,60
44640,note_on,0,0,7,,,,,,,,,7,,,50,60
44640,note_on,2,0,7,,,,,,,,,7,,,47,60
44704,note_on,160,0,6,,,,,,,,,5,,,62,0
44734,note_on,94,0,7,,,,,,,,,7,,,47,0
44734,note_on,0,0,7,,,,,,,,,7,,,54,0
44734,note_on,94,0,5,,,,,,,,,6,,,66,0
44734,note_on,0,0,7,,,,,,,,,7,,,50,0
44736,note_on,2,0,7,,,,,,,,,7,,,47,60
44736,note_on,0,0,7,,,,,,,,,7,,,50,60
44736,note_on,0,0,7,,,,,,,,,7,,,54,60
44736,note_on,2,0,5,,,,,,,,,6,,,71,60
44736,note_on,224,0,2,,,,,,,,,1,,,62,92
44830,note_on,94,0,5,,,,,,,,,6,,,71,0
44830,note_on,94,0,7,,,,,,,,,7,,,47,0
44830,note_on,0,0,7,,,,,,,,,7,,,50,0
44830,note_on,0,0,7,,,,,,,,,7,,,54,0
44832,note_on,0,0,7,,,,,,,,,7,,,50,60
44832,note_on,2,0,5,,,,,,,,,6,,,74,60
44832,note_on,2,0,7,,,,,,,,,7,,,47,60
44832,note_on,0,0,7,,,,,,,,,7,,,54,60
44926,note_on,94,0,5,,,,,,,,,6,,,74,0
44926,note_on,94,0,7,,,,,,,,,7,,,47,0
44926,note_on,0,0,7,,,,,,,,,7,,,54,0
44926,note_on,0,0,7,,,,,,,,,7,,,50,0
44928,note_on,0,0,7,,,,,,,,,7,,,50,75
44928,note_on,432,0,4,,,,,,,,,3,,,47,92
44928,note_on,2,0,5,,,,,,,,,6,,,78,92
44928,note_on,0,0,7,,,,,,,,,7,,,59,75
44928,note_on,2,0,7,,,,,,,,,7,,,47,75
45022,note_on,94,0,5,,,,,,,,,6,,,78,0
45022,note_on,94,0,7,,,,,,,,,7,,,47,0
45022,note_on,0,0,7,,,,,,,,,7,,,50,0
45022,note_on,0,0,7,,,,,,,,,7,,,59,0
45024,note_on,2,0,5,,,,,,,,,6,,,66,92
45024,note_on,0,0,7,,,,,,,,,7,,,50,75
45024,note_on,2,0,7,,,,,,,,,7,,,47,75
45024,note_on,0,0,7,,,,,,,,,7,,,59,75
45088,note_on,160,0,4,,,,,,,,,3,,,47,0
45118,note_on,0,0,7,,,,,,,,,7,,,59,0
45118,note_on,94,0,5,,,,,,,,,6,,,66,0
45118,note_on,0,0,7,,,,,,,,,7,,,50,0
45118,note_on,94,0,7,,,,,,,,,7,,,47,0
45120,note_on,2,0,7,,,,,,,,,7,,,52,75
45120,note_on,32,0,4,,,,,,,,,3,,,52,92
45120,note_on,0,0,7,,,,,,,,,7,,,62,75
45120,note_on,416,0,6,,,,,,,,,5,,,67,75
45166,note_on,46,0,6,,,,,,,,,5,,,67,0
45168,note_on,50,0,5,,,,,,,,,6,,,71,92
45168,note_on,2,0,6,,,,,,,,,5,,,67,75
45214,note_on,94,0,7,,,,,,,,,7,,,52,0
45214,note_on,46,0,6,,,,,,,,,5,,,67,0
45214,note_on,46,0,5,,,,,,,,,6,,,71,0
45216,note_on,2,0,5,,,,,,,,,6,,,71,92
45216,note_on,2,0,6,,,,,,,,,5,,,67,75
45216,note_on,2,0,7,,,,,,,,,7,,,52,75
45262,note_on,46,0,5,,,,,,,,,6,,,71,0
45262,note_on,46,0,6,,,,,,,,,5,,,67,0
45264,note_on,2,0,6,,,,,,,,,5,,,67,75
45264,note_on,2,0,5,,,,,,,,,6,,,71,92
45280,note_on,736,0,3,,,,,,,,,2,,,59,0
45280,note_on,544,0,2,,,,,,,,,1,,,62,0
45310,note_on,46,0,5,,,,,,,,,6,,,71,0
45310,note_on,46,0,6,,,,,,,,,5,,,67,0
45310,note_on,94,0,7,,,,,,,,,7,,,52,0
45312,note_on,2,0,7,,,,,,,,,7,,,52,75
45312,note_on,32,0,3,,,,,,,,,2,,,57,92
45312,note_on,2,0,5,,,,,,,,,6,,,74,92
45312,note_on,2,0,6,,,,,,,,,5,,,71,75
45312,note_on,800,0,1,,,,,,,,,0,,,67,92
45312,note_on,32,0,2,,,,,,,,,1,,,61,92
45358,note_on,46,0,6,,,,,,,,,5,,,71,0
45358,note_on,46,0,5,,,,,,,,,6,,,74,0
45360,note_on,2,0,5,,,,,,,,,6,,,71,92
45360,note_on,2,0,6,,,,,,,,,5,,,67,75
45406,note_on,94,0,7,,,,,,,,,7,,,52,0
45406,note_on,46,0,6,,,,,,,,,5,,,67,0
45406,note_on,46,0,5,,,,,,,,,6,,,71,0
45408,note_on,2,0,6,,,,,,,,,5,,,67,75
45408,note_on,2,0,7,,,,,,,,,7,,,52,75
45408,note_on,2,0,5,,,,,,,,,6,,,71,92
45454,note_on,46,0,6,,,,,,,,,5,,,67,0
45454,note_on,46,0,5,,,,,,,,,6,,,71,0
45456,note_on,2,0,6,,,,,,,,,5,,,67,75
45456,note_on,2,0,5,,,,,,,,,6,,,71,92
45472,note_on,160,0,3,,,,,,,,,2,,,57,0
45502,note_on,46,0,6,,,,,,,,,5,,,67,0
45502,note_on,46,0,5,,,,,,,,,6,,,71,0
45502,note_on,94,0,7,,,,,,,,,7,,,52,0
45504,note_on,2,0,7,,,,,,,,,7,,,52,75
45504,note_on,2,0,6,,,,,,,,,5,,,71,75
45504,note_on,0,0,2,,,,,,,,,1,,,62,92
45504,note_on,2,0,5,,,,,,,,,6,,,74,92
45504,note_on,192,0,2,,,,,,,,,1,,,61,0
45504,note_on,32,0,3,,,,,,,,,2,,,59,92
45550,note_on,46,0,6,,,,,,,,,5,,,71,0
45550,note_on,46,0,5,,,,,,,,,6,,,74,0
45552,note_on,2,0,6,,,,,,,,,5,,,67,75
45552,note_on,2,0,5,,,,,,,,,6,,,71,92
45598,note_on,46,0,5,,,,,,,,,6,,,71,0
45598,note_on,46,0,6,,,,,,,,,5,,,67,0
45598,note_on,94,0,7,,,,,,,,,7,,,52,0
45600,note_on,2,0,5,,,,,,,,,6,,,71,92
45600,note_on,2,0,6,,,,,,,,,5,,,67,75
45600,note_on,2,0,7,,,,,,,,,7,,,52,75
45646,note_on,46,0,5,,,,,,,,,6,,,71,0
45646,note_on,46,0,6,,,,,,,,,5,,,67,0
45648,note_on,2,0,5,,,,,,,,,6,,,71,92
45648,note_on,48,0,7,,,,,,,,,7,,,62,0
45648,note_on,2,0,6,,,,,,,,,5,,,67,75
45664,note_on,160,0,2,,,,,,,,,1,,,62,0
45664,note_on,160,0,3,,,,,,,,,2,,,59,0
45694,note_on,46,0,6,,,,,,,,,5,,,67,0
45694,note_on,46,0,7,,,,,,,,,7,,,52,0
45694,note_on,46,0,5,,,,,,,,,6,,,71,0
45696,note_on,0,0,7,,,,,,,,,7,,,61,75
45696,note_on,2,0,6,,,,,,,,,5,,,76,75
45696,note_on,32,0,2,,,,,,,,,1,,,64,92
45696,note_on,2,0,7,,,,,,,,,7,,,52,75
45696,note_on,32,0,3,,,,,,,,,2,,,61,92
45696,note_on,2,0,5,,,,,,,,,6,,,79,92
45742,note_on,46,0,6,,,,,,,,,5,,,76,0
45742,note_on,46,0,5,,,,,,,,,6,,,79,0
45744,note_on,2,0,6,,,,,,,,,5,,,67,75
45744,note_on,2,0,5,,,,,,,,,6,,,76,92
45790,note_on,94,0,7,,,,,,,,,7,,,52,0
45790,note_on,46,0,5,,,,,,,,,6,,,76,0
45790,note_on,46,0,6,,,,,,,,,5,,,67,0
45792,note_on,2,0,5,,,,,,,,,6,,,76,92
45792,note_on,2,0,6,,,,,,,,,5,,,67,75
45792,note_on,2,0,7,,,,,,,,,7,,,52,75
45838,note_on,46,0,5,,,,,,,,,6,,,76,0
45838,note_on,46,0,6,,,,,,,,,5,,,67,0
45840,note_on,2,0,5,,,,,,,,,6,,,76,92
45840,note_on,2,0,6,,,,,,,,,5,,,67,75
45856,note_on,736,0,4,,,,,,,,,3,,,52,0
45856,note_on,544,0,1,,,,,,,,,0,,,67,0
45886,note_on,94,0,7,,,,,,,,,7,,,52,0
45886,note_on,46,0,6,,,,,,,,,5,,,67,0
45886,note_on,46,0,5,,,,,,,,,6,,,76,0
45888,note_on,2,0,5,,,,,,,,,6,,,79,92
45888,note_on,2,0,7,,,,,,,,,7,,,52,75
45888,note_on,2,0,6,,,,,,,,,5,,,76,75
45888,note_on,32,0,1,,,,,,,,,0,,,66,92
45888,note_on,32,0,4,,,,,,,,,3,,,50,92
45934,note_on,46,0,5,,,,,,,,,6,,,79,0
45934,note_on,46,0,6,,,,,,,,,5,,,76,0
45936,note_on,2,0,6,,,,,,,,,5,,,67,75
45936,note_on,2,0,5,,,,,,,,,6,,,76,92
45982,note_on,46,0,6,,,,,,,,,5,,,67,0
45982,note_on,94,0,7,,,,,,,,,7,,,52,0
45982,note_on,46,0,5,,,,,,,,,6,,,76,0
45984,note_on,2,0,5,,,,,,,,,6,,,76,92
45984,note_on,2,0,6,,,,,,,,,5,,,67,75
45984,note_on,2,0,7,,,,,,,,,7,,,52,75
46030,note_on,46,0,6,,,,,,,,,5,,,67,0
46030,note_on,46,0,5,,,,,,,,,6,,,76,0
46032,note_on,2,0,6,,,,,,,,,5,,,67,75
46032,note_on,2,0,5,,,,,,,,,6,,,76,92
46048,note_on,160,0,4,,,,,,,,,3,,,50,0
46078,note_on,94,0,7,,,,,,,,,7,,,52,0
46078,note_on,46,0,5,,,,,,,,,6,,,76,0
46078,note_on,46,0,6,,,,,,,,,5,,,67,0
46080,note_on,2,0,7,,,,,,,,,7,,,52,75
46080,note_on,32,0,4,,,,,,,,,3,,,52,92
46080,note_on,2,0,6,,,,,,,,,5,,,76,75
46080,note_on,0,0,1,,,,,,,,,0,,,67,92
46080,note_on,192,0,1,,,,,,,,,0,,,66,0
46080,note_on,2,0,5,,,,,,,,,6,,,79,92
46126,note_on,46,0,5,,,,,,,,,6,,,79,0
46126,note_on,46,0,6,,,,,,,,,5,,,76,0
46128,note_on,2,0,5,,,,,,,,,6,,,76,92
46128,note_on,2,0,6,,,,,,,,,5,,,67,75
46174,note_on,46,0,5,,,,,,,,,6,,,76,0
46174,note_on,94,0,7,,,,,,,,,7,,,52,0
46174,note_on,46,0,6,,,,,,,,,5,,,67,0
46176,note_on,2,0,6,,,,,,,,,5,,,67,75
46176,note_on,2,0,5,,,,,,,,,6,,,76,92
46176,note_on,2,0,7,,,,,,,,,7,,,52,75
46222,note_on,46,0,6,,,,,,,,,5,,,67,0
46222,note_on,46,0,5,,,,,,,,,6,,,76,0
46224,note_on,2,0,6,,,,,,,,,5,,,67,75
46224,note_on,48,0,7,,,,,,,,,7,,,61,0
46224,note_on,2,0,5,,,,,,,,,6,,,76,92
46240,note_on,160,0,1,,,,,,,,,0,,,67,0
46240,note_on,160,0,4,,,,,,,,,3,,,52,0
46270,note_on,46,0,7,,,,,,,,,7,,,52,0
46270,note_on,46,0,6,,,,,,,,,5,,,67,0
46270,note_on,46,0,5,,,,,,,,,6,,,76,0
46272,note_on,0,0,7,,,,,,,,,7,,,64,92
46272,note_on,2,0,6,,,,,,,,,5,,,73,92
46272,note_on,32,0,4,,,,,,,,,3,,,54,108
46272,note_on,2,0,7,,,,,,,,,7,,,54,92
46272,note_on,32,0,1,,,,,,,,,0,,,69,92
46272,note_on,2,0,5,,,,,,,,,6,,,76,92
46318,note_on,46,0,5,,,,,,,,,6,,,76,0
46318,note_on,46,0,6,,,,,,,,,5,,,73,0
46320,note_on,2,0,5,,,,,,,,,6,,,73,92
46320,note_on,2,0,6,,,,,,,,,5,,,69,92
46366,note_on,46,0,6,,,,,,,,,5,,,69,0
46366,note_on,46,0,5,,,,,,,,,6,,,73,0
46366,note_on,94,0,7,,,,,,,,,7,,,54,0
46368,note_on,2,0,6,,,,,,,,,5,,,69,92
46368,note_on,2,0,5,,,,,,,,,6,,,73,92
46368,note_on,2,0,7,,,,,,,,,7,,,54,92
46414,note_on,46,0,5,,,,,,,,,6,,,73,0
46414,note_on,46,0,6,,,,,,,,,5,,,69,0
46416,note_on,2,0,5,,,,,,,,,6,,,73,92
46416,note_on,2,0,6,,,,,,,,,5,,,69,92
46432,note_on,736,0,2,,,,,,,,,1,,,64,0
46432,note_on,736,0,3,,,,,,,,,2,,,61,0
46462,note_on,46,0,5,,,,,,,,,6,,,73,0
46462,note_on,46,0,6,,,,,,,,,5,,,69,0
46462,note_on,94,0,7,,,,,,,,,7,,,54,0
46464,note_on,32,0,2,,,,,,,,,1,,,62,108
46464,note_on,2,0,5,,,,,,,,,6,,,76,92
46464,note_on,32,0,3,,,,,,,,,2,,,59,108
46464,note_on,2,0,6,,,,,,,,,5,,,73,92
46464,note_on,2,0,7,,,,,,,,,7,,,54,92
46510,note_on,46,0,5,,,,,,,,,6,,,76,0
46510,note_on,46,0,6,,,,,,,,,5,,,73,0
46512,note_on,2,0,5,,,,,,,,,6,,,73,92
46512,note_on,2,0,6,,,,,,,,,5,,,69,92
46558,note_on,94,0,7,,,,,,,,,7,,,54,0
46558,note_on,46,0,5,,,,,,,,,6,,,73,0
46558,note_on,46,0,6,,,,,,,,,5,,,69,0
46560,note_on,2,0,5,,,,,,,,,6,,,73,92
46560,note_on,2,0,7,,,,,,,,,7,,,54,92
46560,note_on,2,0,6,,,,,,,,,5,,,69,92
46606,note_on,46,0,6,,,,,,,,,5,,,69,0
46606,note_on,46,0,5,,,,,,,,,6,,,73,0
46608,note_on,2,0,6,,,,,,,,,5,,,69,92
46608,note_on,2,0,5,,,,,,,,,6,,,73,92
46654,note_on,46,0,6,,,,,,,,,5,,,69,0
46654,note_on,46,0,5,,,,,,,,,6,,,73,0
46654,note_on,94,0,7,,,,,,,,,7,,,54,0
46656,note_on,2,0,7,,,,,,,,,7,,,54,92
46656,note_on,0,0,3,,,,,,,,,2,,,61,108
46656,note_on,192,0,3,,,,,,,,,2,,,59,0
46656,note_on,0,0,2,,,,,,,,,1,,,64,108
46656,note_on,192,0,2,,,,,,,,,1,,,62,0
46656,note_on,2,0,5,,,,,,,,,6,,,76,92
46656,note_on,2,0,6,,,,,,,,,5,,,73,92
46702,note_on,46,0,6,,,,,,,,,5,,,73,0
46702,note_on,46,0,5,,,,,,,,,6,,,76,0
46704,note_on,2,0,5,,,,,,,,,6,,,73,92
46704,note_on,2,0,6,,,,,,,,,5,,,69,92
46750,note_on,46,0,6,,,,,,,,,5,,,69,0
46750,note_on,94,0,7,,,,,,,,,7,,,54,0
46750,note_on,46,0,5,,,,,,,,,6,,,73,0
46752,note_on,2,0,7,,,,,,,,,7,,,54,92
46752,note_on,2,0,6,,,,,,,,,5,,,69,92
46752,note_on,2,0,5,,,,,,,,,6,,,73,92
46798,note_on,46,0,5,,,,,,,,,6,,,73,0
46798,note_on,46,0,6,,,,,,,,,5,,,69,0
46800,note_on,2,0,6,,,,,,,,,5,,,69,92
46800,note_on,48,0,7,,,,,,,,,7,,,64,0
46800,note_on,2,0,5,,,,,,,,,6,,,73,92
46816,note_on,160,0,2,,,,,,,,,1,,,64,0
46816,note_on,160,0,3,,,,,,,,,2,,,61,0
46846,note_on,46,0,7,,,,,,,,,7,,,54,0
46846,note_on,46,0,6,,,,,,,,,5,,,69,0
46846,note_on,46,0,5,,,,,,,,,6,,,73,0
46848,note_on,2,0,5,,,,,,,,,6,,,81,92
46848,note_on,0,0,7,,,,,,,,,7,,,62,92
46848,note_on,2,0,7,,,,,,,,,7,,,54,92
46848,note_on,32,0,2,,,,,,,,,1,,,66,108
46848,note_on,32,0,3,,,,,,,,,2,,,62,108
46848,note_on,2,0,6,,,,,,,,,5,,,78,92
46894,note_on,46,0,6,,,,,,,,,5,,,78,0
46894,note_on,46,0,5,,,,,,,,,6,,,81,0
46896,note_on,2,0,6,,,,,,,,,5,,,69,92
46896,note_on,2,0,5,,,,,,,,,6,,,78,92
46942,note_on,94,0,7,,,,,,,,,7,,,54,0
46942,note_on,46,0,6,,,,,,,,,5,,,69,0
46942,note_on,46,0,5,,,,,,,,,6,,,78,0
46944,note_on,2,0,7,,,,,,,,,7,,,54,92
46944,note_on,2,0,6,,,,,,,,,5,,,69,92
46944,note_on,2,0,5,,,,,,,,,6,,,78,92
46990,note_on,46,0,6,,,,,,,,,5,,,69,0
46990,note_on,46,0,5,,,,,,,,,6,,,78,0
46992,note_on,2,0,6,,,,,,,,,5,,,69,92
46992,note_on,2,0,5,,,,,,,,,6,,,78,92
47008,note_on,736,0,1,,,,,,,,,0,,,69,0
47008,note_on,736,0,4,,,,,,,,,3,,,54,0
47038,note_on,46,0,5,,,,,,,,,6,,,78,0
47038,note_on,46,0,6,,,,,,,,,5,,,69,0
47038,note_on,94,0,7,,,,,,,,,7,,,54,0
47040,note_on,2,0,6,,,,,,,,,5,,,74,92
47040,note_on,32,0,1,,,,,,,,,0,,,67,108
47040,note_on,32,0,4,,,,,,,,,3,,,52,108
47040,note_on,2,0,7,,,,,,,,,7,,,54,92
47040,note_on,2,0,5,,,,,,,,,6,,,81,92
47086,note_on,46,0,6,,,,,,,,,5,,,74,0
47086,note_on,46,0,5,,,,,,,,,6,,,81,0
47088,note_on,2,0,5,,,,,,,,,6,,,78,92
47088,note_on,2,0,6,,,,,,,,,5,,,69,92
47134,note_on,46,0,5,,,,,,,,,6,,,78,0
47134,note_on,46,0,6,,,,,,,,,5,,,69,0
47134,note_on,94,0,7,,,,,,,,,7,,,54,0
47136,note_on,2,0,7,,,,,,,,,7,,,54,92
47136,note_on,2,0,5,,,,,,,,,6,,,78,92
47136,note_on,2,0,6,,,,,,,,,5,,,69,92
47182,note_on,46,0,5,,,,,,,,,6,,,78,0
47182,note_on,46,0,6,,,,,,,,,5,,,69,0
47184,note_on,2,0,5,,,,,,,,,6,,,78,92
47184,note_on,2,0,6,,,,,,,,,5,,,69,92
47230,note_on,46,0,6,,,,,,,,,5,,,69,0
47230,note_on,46,0,5,,,,,,,,,6,,,78,0
47230,note_on,94,0,7,,,,,,,,,7,,,54,0
47232,note_on,0,0,4,,,,,,,,,3,,,54,108
47232,note_on,192,0,4,,,,,,,,,3,,,52,0
47232,note_on,192,0,1,,,,,,,,,0,,,67,0
47232,note_on,0,0,1,,,,,,,,,0,,,69,108
47232,note_on,2,0,6,,,,,,,,,5,,,74,92
47232,note_on,2,0,7,,,,,,,,,7,,,54,92
47232,note_on,2,0,5,,,,,,,,,6,,,81,92
47278,note_on,46,0,6,,,,,,,,,5,,,74,0
47278,note_on,46,0,5,,,,,,,,,6,,,81,0
47280,note_on,2,0,6,,,,,,,,,5,,,69,92
47280,note_on,2,0,5,,,,,,,,,6,,,78,92
47326,note_on,46,0,6,,,,,,,,,5,,,69,0
47326,note_on,46,0,5,,,,,,,,,6,,,78,0
47326,note_on,94,0,7,,,,,,,,,7,,,54,0
47328,note_on,2,0,5,,,,,,,,,6,,,78,92
47328,note_on,2,0,6,,,,,,,,,5,,,69,92
47328,note_on,2,0,7,,,,,,,,,7,,,54,92
47374,note_on,46,0,5,,,,,,,,,6,,,78,0
47374,note_on,46,0,6,,,,,,,,,5,,,69,0
47376,note_on,48,0,7,,,,,,,,,7,,,62,0
47376,note_on,2,0,5,,,,,,,,,6,,,78,92
47376,note_on,2,0,6,,,,,,,,,5,,,69,92
47392,note_on,160,0,4,,,,,,,,,3,,,54,0
47392,note_on,160,0,1,,,,,,,,,0,,,69,0
47422,note_on,46,0,6,,,,,,,,,5,,,69,0
47422,note_on,46,0,7,,,,,,,,,7,,,54,0
47422,note_on,46,0,5,,,,,,,,,6,,,78,0
47424,note_on,0,0,7,,,,,,,,,7,,,66,92
47424,note_on,2,0,5,,,,,,,,,6,,,78,92
47424,note_on,2,0,7,,,,,,,,,7,,,55,92
47424,note_on,32,0,1,,,,,,,,,0,,,71,108
47424,note_on,2,0,6,,,,,,,,,5,,,74,92
47424,note_on,32,0,4,,,,,,,,,3,,,55,108
47470,note_on,46,0,5,,,,,,,,,6,,,78,0
47470,note_on,46,0,6,,,,,,,,,5,,,74,0
47472,note_on,2,0,6,,,,,,,,,5,,,71,92
47472,note_on,2,0,5,,,,,,,,,6,,,74,92
47518,note_on,46,0,5,,,,,,,,,6,,,74,0
47518,note_on,46,0,6,,,,,,,,,5,,,71,0
47518,note_on,94,0,7,,,,,,,,,7,,,55,0
47520,note_on,2,0,7,,,,,,,,,7,,,55,92
47520,note_on,2,0,5,,,,,,,,,6,,,74,92
47520,note_on,2,0,6,,,,,,,,,5,,,71,92
47566,note_on,46,0,6,,,,,,,,,5,,,71,0
47566,note_on,46,0,5,,,,,,,,,6,,,74,0
47568,note_on,2,0,6,,,,,,,,,5,,,71,92
47568,note_on,2,0,5,,,,,,,,,6,,,74,92
47584,note_on,736,0,3,,,,,,,,,2,,,62,0
47614,note_on,46,0,6,,,,,,,,,5,,,71,0
47614,note_on,94,0,7,,,,,,,,,7,,,55,0
47614,note_on,46,0,5,,,,,,,,,6,,,74,0
47616,note_on,2,0,7,,,,,,,,,7,,,55,92
47616,note_on,2,0,6,,,,,,,,,5,,,74,92
47616,note_on,2,0,5,,,,,,,,,6,,,78,92
47616,note_on,0,0,2,,,,,,,,,1,,,64,108
47616,note_on,32,0,3,,,,,,,,,2,,,61,108
47616,note_on,768,0,2,,,,,,,,,1,,,66,0
47662,note_on,46,0,6,,,,,,,,,5,,,74,0
47662,note_on,46,0,5,,,,,,,,,6,,,78,0
47664,note_on,2,0,6,,,,,,,,,5,,,71,92
47664,note_on,2,0,5,,,,,,,,,6,,,74,92
47710,note_on,46,0,5,,,,,,,,,6,,,74,0
47710,note_on,46,0,6,,,,,,,,,5,,,71,0
47710,note_on,94,0,7,,,,,,,,,7,,,55,0
47712,note_on,2,0,7,,,,,,,,,7,,,55,92
47712,note_on,2,0,6,,,,,,,,,5,,,71,92
47712,note_on,2,0,5,,,,,,,,,6,,,74,92
47758,note_on,46,0,5,,,,,,,,,6,,,74,0
47758,note_on,46,0,6,,,,,,,,,5,,,71,0
47760,note_on,2,0,5,,,,,,,,,6,,,74,92
47760,note_on,2,0,6,,,,,,,,,5,,,71,92
47806,note_on,94,0,7,,,,,,,,,7,,,55,0
47806,note_on,46,0,5,,,,,,,,,6,,,74,0
47806,note_on,46,0,6,,,,,,,,,5,,,71,0
47808,note_on,192,0,3,,,,,,,,,2,,,61,0
47808,note_on,2,0,5,,,,,,,,,6,,,78,92
47808,note_on,0,0,3,,,,,,,,,2,,,62,108
47808,note_on,0,0,2,,,,,,,,,1,,,66,108
47808,note_on,192,0,2,,,,,,,,,1,,,64,0
47808,note_on,2,0,7,,,,,,,,,7,,,55,92
47808,note_on,2,0,6,,,,,,,,,5,,,74,92
47854,note_on,46,0,5,,,,,,,,,6,,,78,0
47854,note_on,46,0,6,,,,,,,,,5,,,74,0
47856,note_on,2,0,6,,,,,,,,,5,,,71,92
47856,note_on,2,0,5,,,,,,,,,6,,,74,92
47902,note_on,46,0,5,,,,,,,,,6,,,74,0
47902,note_on,94,0,7,,,,,,,,,7,,,55,0
47902,note_on,46,0,6,,,,,,,,,5,,,71,0
47904,note_on,2,0,6,,,,,,,,,5,,,71,92
47904,note_on,2,0,5,,,,,,,,,6,,,74,92
47904,note_on,2,0,7,,,,,,,,,7,,,55,92
47950,note_on,46,0,5,,,,,,,,,6,,,74,0
47950,note_on,46,0,6,,,,,,,,,5,,,71,0
47952,note_on,48,0,7,,,,,,,,,7,,,66,0
47952,note_on,2,0,6,,,,,,,,,5,,,71,92
47952,note_on,2,0,5,,,,,,,,,6,,,74,92
47968,note_on,160,0,3,,,,,,,,,2,,,62,0
47998,note_on,46,0,5,,,,,,,,,6,,,74,0
47998,note_on,46,0,7,,,,,,,,,7,,,55,0
47998,note_on,46,0,6,,,,,,,,,5,,,71,0
48000,note_on,192,0,2,,,,,,,,,1,,,66,0
48000,note_on,0,0,2,,,,,,,,,1,,,67,127
48000,note_on,0,0,7,,,,,,,,,7,,,62,92
48000,note_on,2,0,6,,,,,,,,,5,,,71,92
48000,note_on,2,0,5,,,,,,,,,6,,,74,92
48000,note_on,2,0,7,,,,,,,,,7,,,55,92
48000,note_on,32,0,3,,,,,,,,,2,,,64,127
48000,note_on,0,0,5,,,,,,,,,6,,,79,92
48046,note_on,0,0,5,,,,,,,,,6,,,79,0
48046,note_on,46,0,6,,,,,,,,,5,,,71,0
48046,note_on,46,0,5,,,,,,,,,6,,,74,0
48048,note_on,2,0,5,,,,,,,,,6,,,74,92
48048,note_on,2,0,6,,,,,,,,,5,,,71,92
48094,note_on,94,0,7,,,,,,,,,7,,,55,0
48094,note_on,46,0,5,,,,,,,,,6,,,74,0
48094,note_on,46,0,6,,,,,,,,,5,,,71,0
48096,note_on,2,0,7,,,,,,,,,7,,,55,92
48096,note_on,2,0,6,,,,,,,,,5,,,71,92
48096,note_on,2,0,5,,,,,,,,,6,,,74,92
48142,note_on,46,0,6,,,,,,,,,5,,,71,0
48142,note_on,46,0,5,,,,,,,,,6,,,74,0
48144,note_on,2,0,6,,,,,,,,,5,,,71,92
48144,note_on,2,0,5,,,,,,,,,6,,,74,92
48160,note_on,736,0,1,,,,,,,,,0,,,71,0
48160,note_on,736,0,4,,,,,,,,,3,,,55,0
48190,note_on,46,0,5,,,,,,,,,6,,,74,0
48190,note_on,94,0,7,,,,,,,,,7,,,55,0
48190,note_on,46,0,6,,,,,,,,,5,,,71,0
48192,note_on,32,0,1,,,,,,,,,0,,,72,108
48192,note_on,2,0,5,,,,,,,,,6,,,72,92
48192,note_on,0,0,5,,,,,,,,,6,,,76,92
48192,note_on,2,0,7,,,,,,,,,7,,,52,92
48192,note_on,2,0,6,,,,,,,,,5,,,67,92
48192,note_on,32,0,4,,,,,,,,,3,,,52,108
48238,note_on,46,0,5,,,,,,,,,6,,,72,0
48238,note_on,46,0,6,,,,,,,,,5,,,67,0
48238,note_on,0,0,5,,,,,,,,,6,,,76,0
48240,note_on,2,0,6,,,,,,,,,5,,,67,92
48240,note_on,2,0,5,,,,,,,,,6,,,72,92
48286,note_on,46,0,6,,,,,,,,,5,,,67,0
48286,note_on,46,0,5,,,,,,,,,6,,,72,0
48286,note_on,94,0,7,,,,,,,,,7,,,52,0
48288,note_on,2,0,6,,,,,,,,,5,,,67,92
48288,note_on,2,0,5,,,,,,,,,6,,,72,92
48288,note_on,2,0,7,,,,,,,,,7,,,52,92
48334,note_on,46,0,6,,,,,,,,,5,,,67,0
48334,note_on,46,0,5,,,,,,,,,6,,,72,0
48336,note_on,2,0,6,,,,,,,,,5,,,67,92
48336,note_on,2,0,5,,,,,,,,,6,,,72,92
48336,note_on,48,0,7,,,,,,,,,7,,,62,0
48352,note_on,160,0,1,,,,,,,,,0,,,72,0
48382,note_on,46,0,5,,,,,,,,,6,,,72,0
48382,note_on,46,0,6,,,,,,,,,5,,,67,0
48382,note_on,46,0,7,,,,,,,,,7,,,52,0
48384,note_on,32,0,1,,,,,,,,,0,,,71,108
48384,note_on,2,0,7,,,,,,,,,7,,,52,92
48384,note_on,2,0,5,,,,,,,,,6,,,79,92
48384,note_on,0,0,7,,,,,,,,,7,,,60,92
48384,note_on,2,0,6,,,,,,,,,5,,,71,92
48430,note_on,46,0,5,,,,,,,,,6,,,79,0
48430,note_on,46,0,6,,,,,,,,,5,,,71,0
48432,note_on,2,0,5,,,,,,,,,6,,,76,92
48432,note_on,2,0,6,,,,,,,,,5,,,67,92
48478,note_on,46,0,6,,,,,,,,,5,,,67,0
48478,note_on,0,0,7,,,,,,,,,7,,,60,0
48478,note_on,94,0,7,,,,,,,,,7,,,52,0
48478,note_on,46,0,5,,,,,,,,,6,,,76,0
48480,note_on,2,0,7,,,,,,,,,7,,,52,92
48480,note_on,0,0,7,,,,,,,,,7,,,59,92
48480,note_on,2,0,6,,,,,,,,,5,,,67,92
48480,note_on,2,0,5,,,,,,,,,6,,,76,92
48526,note_on,46,0,6,,,,,,,,,5,,,67,0
48526,note_on,46,0,5,,,,,,,,,6,,,76,0
48528,note_on,336,0,4,,,,,,,,,3,,,52,0
48528,note_on,2,0,6,,,,,,,,,5,,,67,92
48528,note_on,2,0,5,,,,,,,,,6,,,76,92
48544,note_on,160,0,1,,,,,,,,,0,,,71,0
48574,note_on,0,0,7,,,,,,,,,7,,,59,0
48574,note_on,46,0,6,,,,,,,,,5,,,67,0
48574,note_on,46,0,5,,,,,,,,,6,,,76,0
48574,note_on,94,0,7,,,,,,,,,7,,,52,0
48576,note_on,2,0,5,,,,,,,,,6,,,73,108
48576,note_on,48,0,4,,,,,,,,,3,,,54,127
48576,note_on,32,0,1,,,,,,,,,0,,,70,127
48576,note_on,0,0,6,,,,,,,,,5,,,70,108
48576,note_on,2,0,6,,,,,,,,,5,,,67,108
48576,note_on,0,0,7,,,,,,,,,7,,,64,108
48576,note_on,2,0,7,,,,,,,,,7,,,54,108
48622,note_on,0,0,6,,,,,,,,,5,,,70,0
48622,note_on,46,0,6,,,,,,,,,5,,,67,0
48622,note_on,46,0,5,,,,,,,,,6,,,73,0
48624,note_on,2,0,6,,,,,,,,,5,,,66,108
48624,note_on,2,0,5,,,,,,,,,6,,,70,108
48670,note_on,46,0,6,,,,,,,,,5,,,66,0
48670,note_on,94,0,7,,,,,,,,,7,,,54,0
48670,note_on,46,0,5,,,,,,,,,6,,,70,0
48672,note_on,2,0,6,,,,,,,,,5,,,66,108
48672,note_on,2,0,7,,,,,,,,,7,,,54,108
48672,note_on,2,0,5,,,,,,,,,6,,,70,108
48718,note_on,46,0,6,,,,,,,,,5,,,66,0
48718,note_on,46,0,5,,,,,,,,,6,,,70,0
48720,note_on,2,0,6,,,,,,,,,5,,,66,108
48720,note_on,2,0,5,,,,,,,,,6,,,70,108
48766,note_on,46,0,5,,,,,,,,,6,,,70,0
48766,note_on,94,0,7,,,,,,,,,7,,,54,0
48766,note_on,46,0,6,,,,,,,,,5,,,66,0
48768,note_on,2,0,5,,,,,,,,,6,,,73,108
48768,note_on,2,0,7,,,,,,,,,7,,,54,108
48768,note_on,2,0,6,,,,,,,,,5,,,67,108
48768,note_on,0,0,6,,,,,,,,,5,,,70,108
48814,note_on,0,0,6,,,,,,,,,5,,,70,0
48814,note_on,46,0,5,,,,,,,,,6,,,73,0
48814,note_on,46,0,6,,,,,,,,,5,,,67,0
48816,note_on,2,0,6,,,,,,,,,5,,,66,108
48816,note_on,2,0,5,,,,,,,,,6,,,70,108
48862,note_on,46,0,6,,,,,,,,,5,,,66,0
48862,note_on,46,0,5,,,,,,,,,6,,,70,0
48862,note_on,94,0,7,,,,,,,,,7,,,54,0
48864,note_on,2,0,6,,,,,,,,,5,,,66,108
48864,note_on,2,0,5,,,,,,,,,6,,,70,108
48864,note_on,2,0,7,,,,,,,,,7,,,54,108
48910,note_on,46,0,5,,,,,,,,,6,,,70,0
48910,note_on,46,0,6,,,,,,,,,5,,,66,0
48912,note_on,336,0,1,,,,,,,,,0,,,70,0
48912,note_on,48,0,7,,,,,,,,,7,,,64,0
48912,note_on,2,0,6,,,,,,,,,5,,,66,108
48912,note_on,2,0,5,,,,,,,,,6,,,70,108
48958,note_on,46,0,7,,,,,,,,,7,,,54,0
48958,note_on,46,0,6,,,,,,,,,5,,,66,0
48958,note_on,46,0,5,,,,,,,,,6,,,70,0
48960,note_on,2,0,6,,,,,,,,,5,,,66,108
48960,note_on,48,0,1,,,,,,,,,0,,,71,127
48960,note_on,2,0,5,,,,,,,,,6,,,71,108
48960,note_on,0,0,5,,,,,,,,,6,,,74,108
48960,note_on,960,0,2,,,,,,,,,1,,,67,0
48960,note_on,960,0,3,,,,,,,,,2,,,64,0
48960,note_on,0,0,3,,,,,,,,,2,,,62,127
48960,note_on,0,0,2,,,,,,,,,1,,,66,127
48960,note_on,2,0,7,,,,,,,,,7,,,54,108
48960,note_on,0,0,7,,,,,,,,,7,,,62,108
49006,note_on,46,0,6,,,,,,,,,5,,,66,0
49006,note_on,46,0,5,,,,,,,,,6,,,71,0
49006,note_on,0,0,5,,,,,,,,,6,,,74,0
49008,note_on,2,0,6,,,,,,,,,5,,,66,108
49008,note_on,2,0,5,,,,,,,,,6,,,71,108
49054,note_on,46,0,5,,,,,,,,,6,,,71,0
49054,note_on,46,0,6,,,,,,,,,5,,,66,0
49054,note_on,94,0,7,,,,,,,,,7,,,54,0
49056,note_on,2,0,6,,,,,,,,,5,,,66,108
49056,note_on,2,0,5,,,,,,,,,6,,,71,108
49056,note_on,2,0,7,,,,,,,,,7,,,54,108
49102,note_on,46,0,5,,,,,,,,,6,,,71,0
49102,note_on,46,0,6,,,,,,,,,5,,,66,0
49104,note_on,2,0,5,,,,,,,,,6,,,71,108
49104,note_on,2,0,6,,,,,,,,,5,,,66,108
49120,note_on,160,0,1,,,,,,,,,0,,,71,0
49120,note_on,64,0,7,,,,,,,,,7,,,62,0
49150,note_on,46,0,5,,,,,,,,,6,,,71,0
49150,note_on,46,0,6,,,,,,,,,5,,,66,0
49150,note_on,30,0,7,,,,,,,,,7,,,54,0
49152,note_on,0,0,5,,,,,,,,,6,,,76,108
49152,note_on,2,0,6,,,,,,,,,5,,,70,108
49152,note_on,0,0,3,,,,,,,,,2,,,61,127
49152,note_on,192,0,3,,,,,,,,,2,,,62,0
49152,note_on,192,0,2,,,,,,,,,1,,,66,0
49152,note_on,0,0,2,,,,,,,,,1,,,64,127
49152,note_on,0,0,7,,,,,,,,,7,,,64,108
49152,note_on,2,0,5,,,,,,,,,6,,,73,108
49152,note_on,2,0,7,,,,,,,,,7,,,54,108
49152,note_on,32,0,1,,,,,,,,,0,,,73,127
49198,note_on,0,0,5,,,,,,,,,6,,,76,0
49198,note_on,46,0,5,,,,,,,,,6,,,73,0
49198,note_on,46,0,6,,,,,,,,,5,,,70,0
49200,note_on,2,0,6,,,,,,,,,5,,,70,108
49200,note_on,2,0,5,,,,,,,,,6,,,73,108
49246,note_on,46,0,6,,,,,,,,,5,,,70,0
49246,note_on,94,0,7,,,,,,,,,7,,,54,0
49246,note_on,46,0,5,,,,,,,,,6,,,73,0
49248,note_on,2,0,6,,,,,,,,,5,,,70,108
49248,note_on,2,0,5,,,,,,,,,6,,,73,108
49248,note_on,2,0,7,,,,,,,,,7,,,54,108
49294,note_on,46,0,5,,,,,,,,,6,,,73,0
49294,note_on,46,0,6,,,,,,,,,5,,,70,0
49296,note_on,2,0,5,,,,,,,,,6,,,73,108
49296,note_on,2,0,6,,,,,,,,,5,,,70,108
49312,note_on,64,0,7,,,,,,,,,7,,,64,0
49312,note_on,160,0,1,,,,,,,,,0,,,73,0
49342,note_on,30,0,7,,,,,,,,,7,,,54,0
49342,note_on,46,0,6,,,,,,,,,5,,,70,0
49342,note_on,46,0,5,,,,,,,,,6,,,73,0
49344,note_on,2,0,7,,,,,,,,,7,,,54,108
49344,note_on,0,0,7,,,,,,,,,7,,,59,108
49344,note_on,0,0,7,,,,,,,,,7,,,62,108
49344,note_on,0,0,2,,,,,,,,,1,,,66,127
49344,note_on,2,0,6,,,,,,,,,5,,,74,108
49344,note_on,2,0,5,,,,,,,,,6,,,78,108
49344,note_on,192,0,3,,,,,,,,,2,,,61,0
49344,note_on,192,0,2,,,,,,,,,1,,,64,0
49344,note_on,0,0,3,,,,,,,,,2,,,59,127
49344,note_on,32,0,1,,,,,,,,,0,,,74,127
49390,note_on,46,0,6,,,,,,,,,5,,,74,0
49390,note_on,46,0,5,,,,,,,,,6,,,78,0
49392,note_on,2,0,5,,,,,,,,,6,,,74,108
49392,note_on,2,0,6,,,,,,,,,5,,,66,108
49438,note_on,46,0,6,,,,,,,,,5,,,66,0
49438,note_on,94,0,7,,,,,,,,,7,,,54,0
49438,note_on,46,0,5,,,,,,,,,6,,,74,0
49440,note_on,2,0,5,,,,,,,,,6,,,74,108
49440,note_on,2,0,6,,,,,,,,,5,,,66,108
49440,note_on,2,0,7,,,,,,,,,7,,,54,108
49486,note_on,46,0,6,,,,,,,,,5,,,66,0
49486,note_on,46,0,5,,,,,,,,,6,,,74,0
49488,note_on,2,0,6,,,,,,,,,5,,,66,108
49488,note_on,2,0,5,,,,,,,,,6,,,74,108
49504,note_on,0,0,7,,,,,,,,,7,,,62,0
49504,note_on,160,0,1,,,,,,,,,0,,,74,0
49504,note_on,64,0,7,,,,,,,,,7,,,59,0
49534,note_on,46,0,5,,,,,,,,,6,,,74,0
49534,note_on,46,0,6,,,,,,,,,5,,,66,0
49534,note_on,30,0,7,,,,,,,,,7,,,54,0
49536,note_on,0,0,7,,,,,,,,,7,,,58,108
49536,note_on,0,0,7,,,,,,,,,7,,,61,108
49536,note_on,2,0,5,,,,,,,,,6,,,79,108
49536,note_on,2,0,7,,,,,,,,,7,,,54,108
49536,note_on,32,0,1,,,,,,,,,0,,,76,127
49536,note_on,2,0,6,,,,,,,,,5,,,76,108
49536,note_on,0,0,2,,,,,,,,,1,,,67,127
49536,note_on,192,0,2,,,,,,,,,1,,,66,0
49536,note_on,0,0,3,,,,,,,,,2,,,58,127
49536,note_on,192,0,3,,,,,,,,,2,,,59,0
49582,note_on,46,0,5,,,,,,,,,6,,,79,0
49582,note_on,46,0,6,,,,,,,,,5,,,76,0
49584,note_on,2,0,6,,,,,,,,,5,,,66,108
49584,note_on,2,0,5,,,,,,,,,6,,,76,108
49630,note_on,94,0,7,,,,,,,,,7,,,54,0
49630,note_on,46,0,5,,,,,,,,,6,,,76,0
49630,note_on,46,0,6,,,,,,,,,5,,,66,0
49632,note_on,2,0,6,,,,,,,,,5,,,66,108
49632,note_on,2,0,7,,,,,,,,,7,,,54,108
49632,note_on,2,0,5,,,,,,,,,6,,,76,108
49678,note_on,46,0,6,,,,,,,,,5,,,66,0
49678,note_on,46,0,5,,,,,,,,,6,,,76,0
49680,note_on,2,0,5,,,,,,,,,6,,,76,108
49680,note_on,2,0,6,,,,,,,,,5,,,66,108
49696,note_on,64,0,7,,,,,,,,,7,,,58,0
49696,note_on,160,0,1,,,,,,,,,0,,,76,0
49696,note_on,0,0,7,,,,,,,,,7,,,61,0
49726,note_on,30,0,7,,,,,,,,,7,,,54,0
49726,note_on,46,0,5,,,,,,,,,6,,,76,0
49726,note_on,46,0,6,,,,,,,,,5,,,66,0
49728,note_on,0,0,4,,,,,,,,,3,,,54,92
49728,note_on,1152,0,4,,,,,,,,,3,,,54,0
49728,note_on,0,0,7,,,,,,,,,7,,,59,92
49728,note_on,32,0,1,,,,,,,,,0,,,74,108
49728,note_on,2,0,5,,,,,,,,,6,,,78,92
49728,note_on,2,0,7,,,,,,,,,7,,,54,92
49728,note_on,0,0,2,,,,,,,,,1,,,66,108
49728,note_on,192,0,2,,,,,,,,,1,,,67,0
49728,note_on,0,0,3,,,,,,,,,2,,,59,108
49728,note_on,192,0,3,,,,,,,,,2,,,58,0
49728,note_on,2,0,6,,,,,,,,,5,,,74,92
49774,note_on,46,0,6,,,,,,,,,5,,,74,0
49774,note_on,46,0,5,,,,,,,,,6,,,78,0
49776,note_on,2,0,5,,,,,,,,,6,,,74,92
49776,note_on,2,0,6,,,,,,,,,5,,,66,92
49822,note_on,46,0,5,,,,,,,,,6,,,74,0
49822,note_on,46,0,6,,,,,,,,,5,,,66,0
49822,note_on,94,0,7,,,,,,,,,7,,,54,0
49824,note_on,2,0,6,,,,,,,,,5,,,66,92
49824,note_on,2,0,7,,,,,,,,,7,,,54,92
49824,note_on,2,0,5,,,,,,,,,6,,,74,92
49870,note_on,46,0,5,,,,,,,,,6,,,74,0
49870,note_on,46,0,6,,,,,,,,,5,,,66,0
49872,note_on,2,0,5,,,,,,,,,6,,,74,92
49872,note_on,2,0,6,,,,,,,,,5,,,66,92
49888,note_on,160,0,1,,,,,,,,,0,,,74,0
49888,note_on,64,0,7,,,,,,,,,7,,,59,0
49918,note_on,46,0,5,,,,,,,,,6,,,74,0
49918,note_on,46,0,6,,,,,,,,,5,,,66,0
49918,note_on,30,0,7,,,,,,,,,7,,,54,0
49920,note_on,2,0,7,,,,,,,,,7,,,54,92
49920,note_on,192,0,2,,,,,,,,,1,,,66,0
49920,note_on,2,0,5,,,,,,,,,6,,,76,92
49920,note_on,32,0,1,,,,,,,,,0,,,73,108
49920,note_on,2,0,6,,,,,,,,,5,,,73,92
49920,note_on,0,0,2,,,,,,,,,1,,,64,108
49920,note_on,192,0,3,,,,,,,,,2,,,59,0
49920,note_on,0,0,7,,,,,,,,,7,,,61,92
49920,note_on,0,0,7,,,,,,,,,7,,,58,92
49920,note_on,0,0,3,,,,,,,,,2,,,61,108
49966,note_on,46,0,5,,,,,,,,,6,,,76,0
49966,note_on,46,0,6,,,,,,,,,5,,,73,0
49968,note_on,2,0,6,,,,,,,,,5,,,66,92
49968,note_on,2,0,5,,,,,,,,,6,,,73,92
50014,note_on,94,0,7,,,,,,,,,7,,,54,0
50014,note_on,46,0,6,,,,,,,,,5,,,66,0
50014,note_on,46,0,5,,,,,,,,,6,,,73,0
50016,note_on,2,0,7,,,,,,,,,7,,,54,92
50016,note_on,2,0,6,,,,,,,,,5,,,66,92
50016,note_on,2,0,5,,,,,,,,,6,,,73,92
50062,note_on,46,0,6,,,,,,,,,5,,,66,0
50062,note_on,46,0,5,,,,,,,,,6,,,73,0
50064,note_on,2,0,5,,,,,,,,,6,,,73,92
50064,note_on,2,0,6,,,,,,,,,5,,,66,92
50080,note_on,0,0,7,,,,,,,,,7,,,61,0
50080,note_on,64,0,7,,,,,,,,,7,,,58,0
50080,note_on,160,0,1,,,,,,,,,0,,,73,0
50110,note_on,46,0,6,,,,,,,,,5,,,66,0
50110,note_on,46,0,5,,,,,,,,,6,,,73,0
50110,note_on,30,0,7,,,,,,,,,7,,,54,0
50112,note_on,0,0,3,,,,,,,,,2,,,62,108
50112,note_on,0,0,2,,,,,,,,,1,,,62,108
50112,note_on,32,0,1,,,,,,,,,0,,,71,108
50112,note_on,2,0,6,,,,,,,,,5,,,71,92
50112,note_on,192,0,2,,,,,,,,,1,,,64,0
50112,note_on,2,0,5,,,,,,,,,6,,,74,92
50112,note_on,2,0,7,,,,,,,,,7,,,54,92
50112,note_on,0,0,7,,,,,,,,,7,,,59,92
50112,note_on,192,0,3,,,,,,,,,2,,,61,0
50112,note_on,0,0,7,,,,,,,,,7,,,62,92
50158,note_on,46,0,5,,,,,,,,,6,,,74,0
50158,note_on,46,0,6,,,,,,,,,5,,,71,0
50160,note_on,2,0,5,,,,,,,,,6,,,71,92
50160,note_on,2,0,6,,,,,,,,,5,,,66,92
50206,note_on,46,0,5,,,,,,,,,6,,,71,0
50206,note_on,94,0,7,,,,,,,,,7,,,54,0
50206,note_on,46,0,6,,,,,,,,,5,,,66,0
50208,note_on,2,0,5,,,,,,,,,6,,,71,92
50208,note_on,2,0,6,,,,,,,,,5,,,66,92
50208,note_on,2,0,7,,,,,,,,,7,,,54,92
50254,note_on,46,0,5,,,,,,,,,6,,,71,0
50254,note_on,46,0,6,,,,,,,,,5,,,66,0
50256,note_on,2,0,6,,,,,,,,,5,,,66,92
50256,note_on,2,0,5,,,,,,,,,6,,,71,92
50272,note_on,64,0,7,,,,,,,,,7,,,59,0
50272,note_on,0,0,7,,,,,,,,,7,,,62,0
50272,note_on,160,0,1,,,,,,,,,0,,,71,0
50302,note_on,46,0,6,,,,,,,,,5,,,66,0
50302,note_on,46,0,5,,,,,,,,,6,,,71,0
50302,note_on,30,0,7,,,,,,,,,7,,,54,0
50304,note_on,2,0,6,,,,,,,,,5,,,70,75
50304,note_on,0,0,3,,,,,,,,,2,,,54,92
50304,note_on,32,0,1,,,,,,,,,0,,,70,92
50304,note_on,2,0,7,,,,,,,,,7,,,54,75
50304,note_on,0,0,2,,,,,,,,,1,,,61,92
50304,note_on,0,0,7,,,,,,,,,7,,,61,75
50304,note_on,192,0,2,,,,,,,,,1,,,62,0
50304,note_on,2,0,5,,,,,,,,,6,,,73,75
50304,note_on,192,0,3,,,,,,,,,2,,,62,0
50350,note_on,46,0,5,,,,,,,,,6,,,73,0
50350,note_on,46,0,6,,,,,,,,,5,,,70,0
50352,note_on,2,0,5,,,,,,,,,6,,,70,75
50352,note_on,2,0,6,,,,,,,,,5,,,66,75
50398,note_on,46,0,5,,,,,,,,,6,,,70,0
50398,note_on,94,0,7,,,,,,,,,7,,,54,0
50398,note_on,46,0,6,,,,,,,,,5,,,66,0
50400,note_on,2,0,7,,,,,,,,,7,,,54,75
50400,note_on,2,0,5,,,,,,,,,6,,,70,75
50400,note_on,2,0,6,,,,,,,,,5,,,66,75
50446,note_on,46,0,5,,,,,,,,,6,,,70,0
50446,note_on,46,0,6,,,,,,,,,5,,,66,0
50448,note_on,2,0,5,,,,,,,,,6,,,70,75
50448,note_on,2,0,6,,,,,,,,,5,,,66,75
50494,note_on,46,0,6,,,,,,,,,5,,,66,0
50494,note_on,94,0,7,,,,,,,,,7,,,54,0
50494,note_on,46,0,5,,,,,,,,,6,,,70,0
50496,note_on,2,0,5,,,,,,,,,6,,,73,75
50496,note_on,2,0,7,,,,,,,,,7,,,54,75
50496,note_on,2,0,6,,,,,,,,,5,,,70,75
50542,note_on,46,0,5,,,,,,,,,6,,,73,0
50542,note_on,46,0,6,,,,,,,,,5,,,70,0
50544,note_on,2,0,6,,,,,,,,,5,,,66,75
50544,note_on,2,0,5,,,,,,,,,6,,,70,75
50590,note_on,46,0,6,,,,,,,,,5,,,66,0
50590,note_on,46,0,5,,,,,,,,,6,,,70,0
50590,note_on,94,0,7,,,,,,,,,7,,,54,0
50592,note_on,2,0,6,,,,,,,,,5,,,66,75
50592,note_on,2,0,5,,,,,,,,,6,,,70,75
50592,note_on,2,0,7,,,,,,,,,7,,,54,75
50638,note_on,46,0,6,,,,,,,,,5,,,66,0
50638,note_on,46,0,5,,,,,,,,,6,,,70,0
50640,note_on,2,0,5,,,,,,,,,6,,,70,75
50640,note_on,336,0,1,,,,,,,,,0,,,70,0
50640,note_on,48,0,7,,,,,,,,,7,,,61,0
50640,note_on,2,0,6,,,,,,,,,5,,,66,75
50686,note_on,46,0,5,,,,,,,,,6,,,70,0
50686,note_on,46,0,6,,,,,,,,,5,,,66,0
50686,note_on,46,0,7,,,,,,,,,7,,,54,0
50688,note_on,48,0,1,,,,,,,,,0,,,71,92
50688,note_on,2,0,6,,,,,,,,,5,,,71,75
50688,note_on,0,0,7,,,,,,,,,7,,,62,75
50688,note_on,2,0,7,,,,,,,,,7,,,54,75
50688,note_on,2,0,5,,,,,,,,,6,,,74,75
50688,note_on,384,0,2,,,,,,,,,1,,,61,0
50688,note_on,0,0,2,,,,,,,,,1,,,62,92
50734,note_on,46,0,5,,,,,,,,,6,,,74,0
50734,note_on,46,0,6,,,,,,,,,5,,,71,0
50736,note_on,2,0,5,,,,,,,,,6,,,71,75
50736,note_on,2,0,6,,,,,,,,,5,,,66,75
50782,note_on,46,0,5,,,,,,,,,6,,,71,0
50782,note_on,46,0,6,,,,,,,,,5,,,66,0
50782,note_on,94,0,7,,,,,,,,,7,,,54,0
50784,note_on,2,0,6,,,,,,,,,5,,,66,75
50784,note_on,2,0,5,,,,,,,,,6,,,71,75
50784,note_on,2,0,7,,,,,,,,,7,,,54,75
50830,note_on,46,0,6,,,,,,,,,5,,,66,0
50830,note_on,46,0,5,,,,,,,,,6,,,71,0
50832,note_on,2,0,6,,,,,,,,,5,,,66,75
50832,note_on,2,0,5,,,,,,,,,6,,,71,75
50848,note_on,64,0,7,,,,,,,,,7,,,62,0
50878,note_on,46,0,6,,,,,,,,,5,,,66,0
50878,note_on,46,0,5,,,,,,,,,6,,,71,0
50878,note_on,30,0,7,,,,,,,,,7,,,54,0
50880,note_on,2,0,7,,,,,,,,,7,,,54,75
50880,note_on,192,0,2,,,,,,,,,1,,,62,0
50880,note_on,0,0,2,,,,,,,,,1,,,61,92
50880,note_on,0,0,7,,,,,,,,,7,,,61,75
50880,note_on,2,0,6,,,,,,,,,5,,,71,75
50880,note_on,2,0,5,,,,,,,,,6,,,73,75
50926,note_on,46,0,6,,,,,,,,,5,,,71,0
50926,note_on,46,0,5,,,,,,,,,6,,,73,0
50928,note_on,2,0,5,,,,,,,,,6,,,71,75
50928,note_on,2,0,6,,,,,,,,,5,,,66,75
50974,note_on,46,0,5,,,,,,,,,6,,,71,0
50974,note_on,46,0,6,,,,,,,,,5,,,66,0
50974,note_on,94,0,7,,,,,,,,,7,,,54,0
50976,note_on,2,0,5,,,,,,,,,6,,,71,75
50976,note_on,2,0,7,,,,,,,,,7,,,54,75
50976,note_on,2,0,6,,,,,,,,,5,,,66,75
51022,note_on,46,0,6,,,,,,,,,5,,,66,0
51022,note_on,46,0,5,,,,,,,,,6,,,71,0
51024,note_on,2,0,6,,,,,,,,,5,,,66,75
51024,note_on,2,0,5,,,,,,,,,6,,,71,75
51040,note_on,352,0,1,,,,,,,,,0,,,71,0
51070,note_on,46,0,6,,,,,,,,,5,,,66,0
51070,note_on,46,0,5,,,,,,,,,6,,,71,0
51070,note_on,94,0,7,,,,,,,,,7,,,54,0
51072,note_on,2,0,5,,,,,,,,,6,,,73,75
51072,note_on,2,0,6,,,,,,,,,5,,,70,75
51072,note_on,32,0,1,,,,,,,,,0,,,70,92
51072,note_on,2,0,7,,,,,,,,,7,,,54,75
51118,note_on,46,0,6,,,,,,,,,5,,,70,0
51118,note_on,46,0,5,,,,,,,,,6,,,73,0
51120,note_on,2,0,6,,,,,,,,,5,,,66,75
51120,note_on,2,0,5,,,,,,,,,6,,,70,75
51166,note_on,46,0,5,,,,,,,,,6,,,70,0
51166,note_on,46,0,6,,,,,,,,,5,,,66,0
51166,note_on,94,0,7,,,,,,,,,7,,,54,0
51168,note_on,2,0,7,,,,,,,,,7,,,54,75
51168,note_on,2,0,6,,,,,,,,,5,,,66,75
51168,note_on,2,0,5,,,,,,,,,6,,,70,75
51214,note_on,46,0,6,,,,,,,,,5,,,66,0
51214,note_on,46,0,5,,,,,,,,,6,,,70,0
51216,note_on,2,0,6,,,,,,,,,5,,,66,75
51216,note_on,2,0,5,,,,,,,,,6,,,70,75
51262,note_on,46,0,5,,,,,,,,,6,,,70,0
51262,note_on,46,0,6,,,,,,,,,5,,,66,0
51262,note_on,94,0,7,,,,,,,,,7,,,54,0
51264,note_on,2,0,6,,,,,,,,,5,,,70,75
51264,note_on,2,0,5,,,,,,,,,6,,,73,75
51264,note_on,2,0,7,,,,,,,,,7,,,54,75
51310,note_on,46,0,6,,,,,,,,,5,,,70,0
51310,note_on,46,0,5,,,,,,,,,6,,,73,0
51312,note_on,2,0,5,,,,,,,,,6,,,70,75
51312,note_on,2,0,6,,,,,,,,,5,,,66,75
51358,note_on,46,0,5,,,,,,,,,6,,,70,0
51358,note_on,46,0,6,,,,,,,,,5,,,66,0
51358,note_on,94,0,7,,,,,,,,,7,,,54,0
51360,note_on,2,0,6,,,,,,,,,5,,,66,75
51360,note_on,2,0,7,,,,,,,,,7,,,54,75
51360,note_on,2,0,5,,,,,,,,,6,,,70,75
51406,note_on,46,0,6,,,,,,,,,5,,,66,0
51406,note_on,46,0,5,,,,,,,,,6,,,70,0
51408,note_on,48,0,7,,,,,,,,,7,,,61,0
51408,note_on,1680,0,4,,,,,,,,,3,,,54,0
51408,note_on,336,0,1,,,,,,,,,0,,,70,0
51408,note_on,528,0,2,,,,,,,,,1,,,61,0
51408,note_on,2,0,6,,,,,,,,,5,,,66,75
51408,note_on,1104,0,3,,,,,,,,,2,,,54,0
51408,note_on,2,0,5,,,,,,,,,6,,,70,75
51454,note_on,46,0,6,,,,,,,,,5,,,66,0
51454,note_on,46,0,7,,,,,,,,,7,,,54,0
51454,note_on,46,0,5,,,,,,,,,6,,,70,0
51456,note_on,0,0,7,,,,,,,,,7,,,59,60
51456,note_on,2,0,7,,,,,,,,,7,,,47,60
51456,note_on,2,0,6,,,,,,,,,5,,,66,60
51456,note_on,0,0,5,,,,,,,,,6,,,78,60
51456,note_on,2,0,5,,,,,,,,,6,,,74,60
51456,note_on,48,0,1,,,,,,,,,0,,,71,75
51456,note_on,48,0,4,,,,,,,,,3,,,47,75
51456,note_on,48,0,3,,,,,,,,,2,,,54,75
51456,note_on,48,0,2,,,,,,,,,1,,,62,75
51550,note_on,0,0,7,,,,,,,,,7,,,59,0
51550,note_on,94,0,7,,,,,,,,,7,,,47,0
51552,note_on,2,0,7,,,,,,,,,7,,,47,60
51552,note_on,0,0,7,,,,,,,,,7,,,59,60
51616,note_on,160,0,6,,,,,,,,,5,,,66,0
51616,note_on,160,0,5,,,,,,,,,6,,,74,0
51616,note_on,0,0,5,,,,,,,,,6,,,78,0
51646,note_on,0,0,7,,,,,,,,,7,,,59,0
51646,note_on,94,0,7,,,,,,,,,7,,,47,0
51648,note_on,0,0,5,,,,,,,,,6,,,74,60
51648,note_on,0,0,7,,,,,,,,,7,,,59,60
51648,note_on,32,0,5,,,,,,,,,6,,,71,60
51648,note_on,32,0,6,,,,,,,,,5,,,66,60
51648,note_on,2,0,7,,,,,,,,,7,,,47,60
51742,note_on,94,0,7,,,,,,,,,7,,,47,0
51742,note_on,0,0,7,,,,,,,,,7,,,59,0
51744,note_on,2,0,7,,,,,,,,,7,,,47,60
51744,note_on,0,0,7,,,,,,,,,7,,,59,60
51808,note_on,160,0,5,,,,,,,,,6,,,71,0
51808,note_on,160,0,6,,,,,,,,,5,,,66,0
51808,note_on,0,0,5,,,,,,,,,6,,,74,0
51838,note_on,94,0,7,,,,,,,,,7,,,47,0
51838,note_on,0,0,7,,,,,,,,,7,,,59,0
51840,note_on,2,0,7,,,,,,,,,7,,,47,60
51840,note_on,0,0,7,,,,,,,,,7,,,59,60
51840,note_on,0,0,6,,,,,,,,,5,,,66,60
51840,note_on,32,0,6,,,,,,,,,5,,,62,60
51840,note_on,32,0,5,,,,,,,,,6,,,71,60
51934,note_on,94,0,7,,,,,,,,,7,,,47,0
51934,note_on,0,0,7,,,,,,,,,7,,,59,0
51936,note_on,2,0,7,,,,,,,,,7,,,47,60
51936,note_on,0,0,7,,,,,,,,,7,,,59,60
51984,note_on,528,0,1,,,,,,,,,0,,,71,0
51984,end_of_track,0,1,4,,,,,,,,,,,,,
51984,end_of_track,0,1,3,,,,,,,,,,,,,
51984,note_on,528,0,4,,,,,,,,,3,,,47,0
51984,note_on,528,0,3,,,,,,,,,2,,,54,0
51984,end_of_track,0,1,1,,,,,,,,,,,,,
51984,note_on,528,0,2,,,,,,,,,1,,,62,0
51984,end_of_track,0,1,2,,,,,,,,,,,,,
52000,note_on,160,0,5,,,,,,,,,6,,,71,0
52000,note_on,0,0,6,,,,,,,,,5,,,66,0
52000,note_on,160,0,6,,,,,,,,,5,,,62,0
52030,note_on,0,0,7,,,,,,,,,7,,,59,0
52030,note_on,94,0,7,,,,,,,,,7,,,47,0
52032,note_on,32,0,6,,,,,,,,,5,,,74,60
52032,note_on,0,0,6,,,,,,,,,5,,,78,60
52032,note_on,32,0,5,,,,,,,,,6,,,83,60
52032,note_on,2,0,7,,,,,,,,,7,,,47,60
52032,note_on,0,0,7,,,,,,,,,7,,,59,60
52126,note_on,94,0,7,,,,,,,,,7,,,47,0
52126,note_on,0,0,7,,,,,,,,,7,,,59,0
52128,note_on,2,0,7,,,,,,,,,7,,,47,60
52128,note_on,0,0,7,,,,,,,,,7,,,59,60
52192,note_on,160,0,6,,,,,,,,,5,,,74,0
52192,note_on,160,0,5,,,,,,,,,6,,,83,0
52192,note_on,0,0,6,,,,,,,,,5,,,78,0
52222,note_on,94,0,7,,,,,,,,,7,,,47,0
52222,note_on,0,0,7,,,,,,,,,7,,,59,0
52224,note_on,32,0,6,,,,,,,,,5,,,71,60
52224,note_on,2,0,7,,,,,,,,,7,,,47,60
52224,note_on,0,0,7,,,,,,,,,7,,,59,60
52224,note_on,0,0,6,,,,,,,,,5,,,74,60
52224,note_on,32,0,5,,,,,,,,,6,,,78,60
52318,note_on,94,0,7,,,,,,,,,7,,,47,0
52318,note_on,0,0,7,,,,,,,,,7,,,59,0
52320,note_on,2,0,7,,,,,,,,,7,,,47,60
52320,note_on,0,0,7,,,,,,,,,7,,,59,60
52384,note_on,160,0,5,,,,,,,,,6,,,78,0
52384,note_on,160,0,6,,,,,,,,,5,,,71,0
52384,note_on,0,0,6,,,,,,,,,5,,,74,0
52414,note_on,94,0,7,,,,,,,,,7,,,47,0
52414,note_on,0,0,7,,,,,,,,,7,,,59,0
52416,note_on,0,0,5,,,,,,,,,6,,,74,60
52416,note_on,32,0,5,,,,,,,,,6,,,71,60
52416,note_on,32,0,6,,,,,,,,,5,,,66,60
52416,note_on,2,0,7,,,,,,,,,7,,,47,60
52416,note_on,0,0,7,,,,,,,,,7,,,59,60
52510,note_on,0,0,7,,,,,,,,,7,,,59,0
52510,note_on,94,0,7,,,,,,,,,7,,,47,0
52512,note_on,0,0,7,,,,,,,,,7,,,59,60
52512,note_on,2,0,7,,,,,,,,,7,,,47,60
52576,note_on,160,0,6,,,,,,,,,5,,,66,0
52576,note_on,0,0,5,,,,,,,,,6,,,74,0
52576,note_on,160,0,5,,,,,,,,,6,,,71,0
52606,note_on,94,0,7,,,,,,,,,7,,,47,0
52606,note_on,0,0,7,,,,,,,,,7,,,59,0
52608,note_on,2,0,7,,,,,,,,,7,,,35,60
52608,set_tempo,51840,1,0,1111111,,,,,,,,,,,,
52608,note_on,0,0,7,,,,,,,,,7,,,47,60
52608,note_on,0,0,6,,,,,,,,,5,,,66,60
52608,note_on,32,0,6,,,,,,,,,5,,,62,60
52608,note_on,32,0,5,,,,,,,,,6,,,71,60
52702,note_on,0,0,7,,,,,,,,,7,,,47,0
52702,note_on,94,0,7,,,,,,,,,7,,,35,0
52704,note_on,0,0,7,,,,,,,,,7,,,47,60
52704,note_on,2,0,7,,,,,,,,,7,,,35,60
52768,note_on,160,0,5,,,,,,,,,6,,,71,0
52768,note_on,160,0,6,,,,,,,,,5,,,62,0
52768,note_on,0,0,6,,,,,,,,,5,,,66,0
52798,note_on,0,0,7,,,,,,,,,7,,,47,0
52798,note_on,94,0,7,,,,,,,,,7,,,35,0
52800,note_on,32,0,6,,,,,,,,,5,,,59,60
52800,note_on,0,0,6,,,,,,,,,5,,,62,60
52800,note_on,32,0,5,,,,,,,,,6,,,66,60
52800,note_on,0,0,7,,,,,,,,,7,,,47,60
52800,note_on,2,0,7,,,,,,,,,7,,,35,60
52894,note_on,0,0,7,,,,,,,,,7,,,47,0
52894,note_on,94,0,7,,,,,,,,,7,,,35,0
52896,note_on,2,0,7,,,,,,,,,7,,,35,60
52896,note_on,0,0,7,,,,,,,,,7,,,47,60
52960,note_on,0,0,6,,,,,,,,,5,,,62,0
52960,note_on,160,0,5,,,,,,,,,6,,,66,0
52960,note_on,160,0,6,,,,,,,,,5,,,59,0
52960,end_of_track,0,1,5,,,,,,,,,,,,,
52990,note_on,94,0,7,,,,,,,,,7,,,35,0
52990,note_on,0,0,7,,,,,,,,,7,,,47,0
52992,note_on,0,0,7,,,,,,,,,7,,,54,60
52992,note_on,32,0,6,,,,,,,,,5,,,59,60
52992,note_on,0,0,6,,,,,,,,,5,,,62,60
52992,note_on,2,0,7,,,,,,,,,7,,,35,60
52992,note_on,0,0,7,,,,,,,,,7,,,47,60
53086,note_on,94,0,7,,,,,,,,,7,,,35,0
53086,note_on,0,0,7,,,,,,,,,7,,,47,0
53088,note_on,2,0,7,,,,,,,,,7,,,35,60
53088,note_on,0,0,7,,,,,,,,,7,,,47,60
53152,note_on,64,0,7,,,,,,,,,7,,,54,0
53152,note_on,160,0,6,,,,,,,,,5,,,59,0
53152,note_on,0,0,6,,,,,,,,,5,,,62,0
53182,note_on,30,0,7,,,,,,,,,7,,,35,0
53182,note_on,0,0,7,,,,,,,,,7,,,47,0
53184,note_on,2,0,7,,,,,,,,,7,,,35,45
53184,note_on,0,0,7,,,,,,,,,7,,,47,45
53184,note_on,0,0,7,,,,,,,,,7,,,50,45
53184,end_of_track,0,1,0,,,,,,,,,,,,,
53184,set_tempo,576,1,0,1000000,,,,,,,,,,,,
53184,note_on,0,0,7,,,,,,,,,7,,,54,45
53184,note_on,32,0,6,,,,,,,,,5,,,59,45
53712,end_of_track,0,1,7,,,,,,,,,,,,,
53712,end_of_track,0,1,6,,,,,,,,,,,,,
53712,note_on,0,0,7,,,,,,,,,7,,,47,0
53712,note_on,0,0,7,,,,,,,,,7,,,50,0
53712,note_on,0,0,7,,,,,,,,,7,,,54,0
53712,note_on,528,0,6,,,,,,,,,5,,,59,0
53712,note_on,528,0,7,,,,,,,,,7,,,35,0
