tick,type,time,meta,track,tempo,key,numerator,denominator,clocks_per_click,notated_32nd_notes_per_beat,port,program,channel,control,value,note,velocity
0,track_name,0,1,0,,,,,,,,,,,,,
0,track_name,0,1,8,,,,,,,,,,,,,
0,midi_port,0,1,8,,,,,,,0,,,,,,
0,control_change,0,0,7,,,,,,,,,6,10,64,,
0,control_change,0,0,7,,,,,,,,,6,7,88,,
0,program_change,0,0,7,,,,,,,,40,6,,,,
0,track_name,0,1,7,,,,,,,,,,,,,
0,midi_port,0,1,7,,,,,,,0,,,,,,
0,control_change,0,0,15,,,,,,,,,14,10,64,,
0,control_change,0,0,6,,,,,,,,,5,10,64,,
0,control_change,0,0,6,,,,,,,,,5,7,88,,
0,program_change,0,0,6,,,,,,,,68,5,,,,
0,track_name,0,1,6,,,,,,,,,,,,,
0,midi_port,0,1,6,,,,,,,0,,,,,,
0,control_change,0,0,5,,,,,,,,,4,10,64,,
0,control_change,0,0,5,,,,,,,,,4,7,80,,
0,program_change,0,0,5,,,,,,,,56,4,,,,
0,track_name,0,1,5,,,,,,,,,,,,,
0,program_change,0,0,2,,,,,,,,48,1,,,,
0,control_change,0,0,2,,,,,,,,,1,7,127,,
0,control_change,0,0,2,,,,,,,,,1,10,64,,
0,midi_port,0,1,3,,,,,,,0,,,,,,
0,track_name,0,1,3,,,,,,,,,,,,,
0,program_change,0,0,3,,,,,,,,48,2,,,,
0,program_change,0,0,8,,,,,,,,43,7,,,,
0,control_change,0,0,3,,,,,,,,,2,7,127,,
0,midi_port,0,1,4,,,,,,,0,,,,,,
0,track_name,0,1,4,,,,,,,,,,,,,
0,program_change,0,0,4,,,,,,,,48,3,,,,
0,control_change,0,0,4,,,,,,,,,3,7,127,,
0,control_change,0,0,4,,,,,,,,,3,10,64,,
0,midi_port,0,1,5,,,,,,,0,,,,,,
0,control_change,0,0,3,,,,,,,,,2,10,64,,
0,control_change,0,0,8,,,,,,,,,7,7,92,,
0,control_change,0,0,8,,,,,,,,,7,10,64,,
0,midi_port,0,1,9,,,,,,,0,,,,,,
0,end_of_track,0,1,12,,,,,,,,,,,,,
0,midi_port,0,1,13,,,,,,,0,,,,,,
0,track_name,0,1,13,,,,,,,,,,,,,
0,control_change,0,0,13,,,,,,,,,12,7,127,,
0,control_change,0,0,13,,,,,,,,,12,10,64,,
0,end_of_track,0,1,13,,,,,,,,,,,,,
0,control_change,0,0,12,,,,,,,,,11,10,64,,
0,midi_port,0,1,14,,,,,,,0,,,,,,
0,control_change,0,0,14,,,,,,,,,13,7,127,,
0,control_change,0,0,14,,,,,,,,,13,10,64,,
0,end_of_track,0,1,14,,,,,,,,,,,,,
0,midi_port,0,1,15,,,,,,,0,,,,,,
0,track_name,0,1,15,,,,,,,,,,,,,
0,control_change,0,0,15,,,,,,,,,14,7,127,,
0,track_name,0,1,14,,,,,,,,,,,,,
0,track_name,0,1,2,,,,,,,,,,,,,
0,control_change,0,0,12,,,,,,,,,11,7,127,,
0,midi_port,0,1,12,,,,,,,0,,,,,,
0,track_name,0,1,9,,,,,,,,,,,,,
0,control_change,0,0,9,,,,,,,,,8,7,127,,
0,control_change,0,0,9,,,,,,,,,8,10,64,,
0,end_of_track,0,1,9,,,,,,,,,,,,,
0,midi_port,0,1,10,,,,,,,0,,,,,,
0,track_name,0,1,10,,,,,,,,,,,,,
0,track_name,0,1,12,,,,,,,,,,,,,
0,control_change,0,0,10,,,,,,,,,9,7,127,,
0,end_of_track,0,1,10,,,,,,,,,,,,,
0,midi_port,0,1,11,,,,,,,0,,,,,,
0,track_name,0,1,11,,,,,,,,,,,,,
0,control_change,0,0,11,,,,,,,,,10,7,127,,
0,control_change,0,0,11,,,,,,,,,10,10,64,,
0,end_of_track,0,1,11,,,,,,,,,,,,,
0,control_change,0,0,10,,,,,,,,,9,10,64,,
0,midi_port,0,1,2,,,,,,,0,,,,,,
0,end_of_track,0,1,15,,,,,,,,,,,,,
0,copyright,0,1,0,,,,,,,,,,,,,
0,text,0,1,0,,,,,,,,,,,,,
0,set_tempo,0,1,0,416666,,,,,,,,,,,,
0,key_signature,0,1,0,,D,,,,,,,,,,,
0,time_signature,0,1,0,,,4,4,24,8,,,,,,,
0,midi_port,0,1,1,,,,,,,0,,,,,,
0,track_name,0,1,1,,,,,,,,,,,,,
0,program_change,0,0,1,,,,,,,,48,0,,,,
0,control_change,0,0,1,,,,,,,,,0,7,127,,
0,control_change,0,0,1,,,,,,,,,0,10,64,,
0,text,0,1,0,,,,,,,,,,,,,
768,set_tempo,768,1,0,500000,,,,,,,,,,,,
768,note_on,768,0,8,,,,,,,,,7,,,50,108
768,note_on,768,0,7,,,,,,,,,6,,,62,108
768,note_on,768,0,6,,,,,,,,,5,,,62,108
768,note_on,768,0,5,,,,,,,,,4,,,62,108
862,note_on,94,0,5,,,,,,,,,4,,,62,0
862,note_on,94,0,8,,,,,,,,,7,,,50,0
862,note_on,94,0,7,,,,,,,,,6,,,62,0
862,note_on,94,0,6,,,,,,,,,5,,,62,0
864,note_on,2,0,8,,,,,,,,,7,,,62,108
864,note_on,2,0,6,,,,,,,,,5,,,74,108
864,note_on,2,0,7,,,,,,,,,6,,,74,108
864,note_on,2,0,5,,,,,,,,,4,,,74,108
958,note_on,94,0,5,,,,,,,,,4,,,74,0
958,note_on,94,0,8,,,,,,,,,7,,,62,0
958,note_on,94,0,6,,,,,,,,,5,,,74,0
958,note_on,94,0,7,,,,,,,,,6,,,74,0
960,note_on,2,0,7,,,,,,,,,6,,,62,108
960,note_on,2,0,8,,,,,,,,,7,,,50,108
960,note_on,2,0,6,,,,,,,,,5,,,62,108
960,note_on,2,0,5,,,,,,,,,4,,,62,108
1054,note_on,94,0,6,,,,,,,,,5,,,62,0
1054,note_on,94,0,8,,,,,,,,,7,,,50,0
1054,note_on,94,0,5,,,,,,,,,4,,,62,0
1054,note_on,94,0,7,,,,,,,,,6,,,62,0
1056,note_on,2,0,8,,,,,,,,,7,,,50,108
1056,note_on,2,0,5,,,,,,,,,4,,,62,108
1056,note_on,2,0,6,,,,,,,,,5,,,62,108
1056,note_on,2,0,7,,,,,,,,,6,,,62,108
1150,note_on,94,0,7,,,,,,,,,6,,,62,0
1150,note_on,94,0,6,,,,,,,,,5,,,62,0
1150,note_on,94,0,8,,,,,,,,,7,,,50,0
1150,note_on,94,0,5,,,,,,,,,4,,,62,0
1152,note_on,2,0,7,,,,,,,,,6,,,62,108
1152,note_on,2,0,5,,,,,,,,,4,,,62,108
1152,note_on,2,0,6,,,,,,,,,5,,,62,108
1152,note_on,2,0,8,,,,,,,,,7,,,50,108
1246,note_on,94,0,7,,,,,,,,,6,,,62,0
1246,note_on,94,0,5,,,,,,,,,4,,,62,0
1246,note_on,94,0,8,,,,,,,,,7,,,50,0
1246,note_on,94,0,6,,,,,,,,,5,,,62,0
1248,note_on,2,0,5,,,,,,,,,4,,,74,108
1248,note_on,2,0,8,,,,,,,,,7,,,62,108
1248,note_on,2,0,6,,,,,,,,,5,,,74,108
1248,note_on,2,0,7,,,,,,,,,6,,,74,108
1342,note_on,94,0,7,,,,,,,,,6,,,74,0
1342,note_on,94,0,8,,,,,,,,,7,,,62,0
1342,note_on,94,0,5,,,,,,,,,4,,,74,0
1342,note_on,94,0,6,,,,,,,,,5,,,74,0
1344,note_on,2,0,6,,,,,,,,,5,,,62,108
1344,note_on,2,0,5,,,,,,,,,4,,,62,108
1344,note_on,2,0,7,,,,,,,,,6,,,62,108
1344,note_on,2,0,8,,,,,,,,,7,,,50,108
1438,note_on,94,0,7,,,,,,,,,6,,,62,0
1438,note_on,94,0,8,,,,,,,,,7,,,50,0
1438,note_on,94,0,6,,,,,,,,,5,,,62,0
1438,note_on,94,0,5,,,,,,,,,4,,,62,0
1440,note_on,2,0,7,,,,,,,,,6,,,62,108
1440,note_on,2,0,5,,,,,,,,,4,,,62,108
1440,note_on,2,0,6,,,,,,,,,5,,,62,108
1440,note_on,2,0,8,,,,,,,,,7,,,50,108
1534,note_on,94,0,5,,,,,,,,,4,,,62,0
1534,note_on,94,0,8,,,,,,,,,7,,,50,0
1534,note_on,94,0,7,,,,,,,,,6,,,62,0
1534,note_on,94,0,6,,,,,,,,,5,,,62,0
1536,note_on,2,0,6,,,,,,,,,5,,,62,108
1536,note_on,2,0,8,,,,,,,,,7,,,50,108
1536,note_on,2,0,5,,,,,,,,,4,,,62,108
1536,note_on,2,0,7,,,,,,,,,6,,,62,108
1630,note_on,94,0,8,,,,,,,,,7,,,50,0
1632,note_on,2,0,8,,,,,,,,,7,,,50,108
1632,note_on,96,0,5,,,,,,,,,4,,,66,108
1632,note_on,96,0,7,,,,,,,,,6,,,66,108
1632,note_on,96,0,6,,,,,,,,,5,,,66,108
1678,note_on,46,0,5,,,,,,,,,4,,,66,0
1678,note_on,46,0,6,,,,,,,,,5,,,66,0
1678,note_on,46,0,8,,,,,,,,,7,,,50,0
1678,note_on,46,0,7,,,,,,,,,6,,,66,0
1680,note_on,2,0,7,,,,,,,,,6,,,67,108
1680,note_on,2,0,8,,,,,,,,,7,,,52,108
1680,note_on,2,0,5,,,,,,,,,4,,,67,108
1680,note_on,2,0,6,,,,,,,,,5,,,67,108
1726,note_on,0,0,7,,,,,,,,,6,,,67,0
1726,note_on,0,0,6,,,,,,,,,5,,,67,0
1726,note_on,46,0,6,,,,,,,,,5,,,62,0
1726,note_on,46,0,8,,,,,,,,,7,,,52,0
1726,note_on,46,0,5,,,,,,,,,4,,,62,0
1726,note_on,0,0,5,,,,,,,,,4,,,67,0
1726,note_on,46,0,7,,,,,,,,,6,,,62,0
1728,note_on,2,0,5,,,,,,,,,4,,,69,108
1728,note_on,2,0,6,,,,,,,,,5,,,69,108
1728,note_on,2,0,8,,,,,,,,,7,,,54,108
1728,note_on,2,0,7,,,,,,,,,6,,,69,108
1822,note_on,94,0,5,,,,,,,,,4,,,69,0
1822,note_on,94,0,7,,,,,,,,,6,,,69,0
1822,note_on,94,0,6,,,,,,,,,5,,,69,0
1822,note_on,94,0,8,,,,,,,,,7,,,54,0
1824,note_on,2,0,8,,,,,,,,,7,,,52,108
1824,note_on,2,0,5,,,,,,,,,4,,,67,108
1824,note_on,2,0,7,,,,,,,,,6,,,67,108
1824,note_on,2,0,6,,,,,,,,,5,,,67,108
1918,note_on,94,0,7,,,,,,,,,6,,,67,0
1918,note_on,94,0,6,,,,,,,,,5,,,67,0
1918,note_on,94,0,8,,,,,,,,,7,,,52,0
1918,note_on,94,0,5,,,,,,,,,4,,,67,0
1920,note_on,2,0,7,,,,,,,,,6,,,66,108
1920,note_on,2,0,5,,,,,,,,,4,,,66,108
1920,note_on,2,0,8,,,,,,,,,7,,,50,108
1920,note_on,2,0,6,,,,,,,,,5,,,66,108
2014,note_on,94,0,7,,,,,,,,,6,,,66,0
2014,note_on,94,0,5,,,,,,,,,4,,,66,0
2014,note_on,94,0,6,,,,,,,,,5,,,66,0
2014,note_on,94,0,8,,,,,,,,,7,,,50,0
2016,note_on,2,0,5,,,,,,,,,4,,,66,108
2016,note_on,2,0,7,,,,,,,,,6,,,66,108
2016,note_on,2,0,6,,,,,,,,,5,,,66,108
2016,note_on,2,0,8,,,,,,,,,7,,,50,108
2062,note_on,46,0,5,,,,,,,,,4,,,66,0
2062,note_on,46,0,7,,,,,,,,,6,,,66,0
2062,note_on,46,0,6,,,,,,,,,5,,,66,0
2062,note_on,46,0,8,,,,,,,,,7,,,50,0
2064,note_on,2,0,5,,,,,,,,,4,,,67,108
2064,note_on,2,0,7,,,,,,,,,6,,,67,108
2064,note_on,2,0,6,,,,,,,,,5,,,67,108
2064,note_on,2,0,8,,,,,,,,,7,,,52,108
2110,note_on,46,0,5,,,,,,,,,4,,,67,0
2110,note_on,46,0,6,,,,,,,,,5,,,67,0
2110,note_on,46,0,7,,,,,,,,,6,,,67,0
2110,note_on,46,0,8,,,,,,,,,7,,,52,0
2112,note_on,2,0,5,,,,,,,,,4,,,69,108
2112,note_on,2,0,6,,,,,,,,,5,,,69,108
2112,note_on,2,0,7,,,,,,,,,6,,,69,108
2112,note_on,2,0,8,,,,,,,,,7,,,54,108
2206,note_on,94,0,5,,,,,,,,,4,,,69,0
2206,note_on,94,0,6,,,,,,,,,5,,,69,0
2206,note_on,94,0,7,,,,,,,,,6,,,69,0
2206,note_on,94,0,8,,,,,,,,,7,,,54,0
2208,note_on,2,0,8,,,,,,,,,7,,,52,108
2208,note_on,2,0,6,,,,,,,,,5,,,67,108
2208,note_on,2,0,5,,,,,,,,,4,,,67,108
2208,note_on,2,0,7,,,,,,,,,6,,,67,108
2302,note_on,94,0,6,,,,,,,,,5,,,67,0
2302,note_on,94,0,8,,,,,,,,,7,,,52,0
2302,note_on,94,0,5,,,,,,,,,4,,,67,0
2302,note_on,94,0,7,,,,,,,,,6,,,67,0
2304,note_on,0,0,5,,,,,,,,,4,,,66,108
2304,note_on,0,0,6,,,,,,,,,5,,,66,108
2304,note_on,2,0,6,,,,,,,,,5,,,62,108
2304,note_on,2,0,5,,,,,,,,,4,,,62,108
2304,note_on,2,0,8,,,,,,,,,7,,,50,108
2304,note_on,0,0,7,,,,,,,,,6,,,66,108
2304,note_on,2,0,7,,,,,,,,,6,,,62,108
2398,note_on,0,0,6,,,,,,,,,5,,,66,0
2398,note_on,94,0,6,,,,,,,,,5,,,62,0
2398,note_on,94,0,5,,,,,,,,,4,,,62,0
2398,note_on,0,0,5,,,,,,,,,4,,,66,0
2398,note_on,94,0,8,,,,,,,,,7,,,50,0
2398,note_on,0,0,7,,,,,,,,,6,,,66,0
2398,note_on,94,0,7,,,,,,,,,6,,,62,0
2400,note_on,2,0,5,,,,,,,,,4,,,74,108
2400,note_on,2,0,6,,,,,,,,,5,,,74,108
2400,note_on,2,0,8,,,,,,,,,7,,,62,108
2400,note_on,2,0,7,,,,,,,,,6,,,74,108
2494,note_on,94,0,5,,,,,,,,,4,,,74,0
2494,note_on,94,0,7,,,,,,,,,6,,,74,0
2494,note_on,94,0,6,,,,,,,,,5,,,74,0
2494,note_on,94,0,8,,,,,,,,,7,,,62,0
2496,note_on,2,0,6,,,,,,,,,5,,,62,108
2496,note_on,2,0,5,,,,,,,,,4,,,62,108
2496,note_on,2,0,8,,,,,,,,,7,,,50,108
2496,note_on,2,0,7,,,,,,,,,6,,,62,108
2590,note_on,94,0,6,,,,,,,,,5,,,62,0
2590,note_on,94,0,8,,,,,,,,,7,,,50,0
2590,note_on,94,0,7,,,,,,,,,6,,,62,0
2590,note_on,94,0,5,,,,,,,,,4,,,62,0
2592,note_on,2,0,5,,,,,,,,,4,,,62,108
2592,note_on,2,0,6,,,,,,,,,5,,,62,108
2592,note_on,2,0,8,,,,,,,,,7,,,50,108
2592,note_on,2,0,7,,,,,,,,,6,,,62,108
2686,note_on,94,0,6,,,,,,,,,5,,,62,0
2686,note_on,94,0,5,,,,,,,,,4,,,62,0
2686,note_on,94,0,8,,,,,,,,,7,,,50,0
2686,note_on,94,0,7,,,,,,,,,6,,,62,0
2688,note_on,2,0,5,,,,,,,,,4,,,62,108
2688,note_on,2,0,7,,,,,,,,,6,,,62,108
2688,note_on,2,0,6,,,,,,,,,5,,,62,108
2688,note_on,2,0,8,,,,,,,,,7,,,50,108
2782,note_on,94,0,8,,,,,,,,,7,,,50,0
2782,note_on,94,0,5,,,,,,,,,4,,,62,0
2782,note_on,94,0,7,,,,,,,,,6,,,62,0
2782,note_on,94,0,6,,,,,,,,,5,,,62,0
2784,note_on,2,0,5,,,,,,,,,4,,,74,108
2784,note_on,2,0,8,,,,,,,,,7,,,62,108
2784,note_on,2,0,7,,,,,,,,,6,,,74,108
2784,note_on,2,0,6,,,,,,,,,5,,,74,108
2878,note_on,94,0,6,,,,,,,,,5,,,74,0
2878,note_on,94,0,7,,,,,,,,,6,,,74,0
2878,note_on,94,0,8,,,,,,,,,7,,,62,0
2878,note_on,94,0,5,,,,,,,,,4,,,74,0
2880,note_on,2,0,8,,,,,,,,,7,,,50,108
2880,note_on,2,0,5,,,,,,,,,4,,,62,108
2880,note_on,2,0,7,,,,,,,,,6,,,62,108
2880,note_on,2,0,6,,,,,,,,,5,,,62,108
2974,note_on,94,0,6,,,,,,,,,5,,,62,0
2974,note_on,94,0,5,,,,,,,,,4,,,62,0
2974,note_on,94,0,7,,,,,,,,,6,,,62,0
2974,note_on,94,0,8,,,,,,,,,7,,,50,0
2976,note_on,2,0,6,,,,,,,,,5,,,62,108
2976,note_on,2,0,8,,,,,,,,,7,,,50,108
2976,note_on,2,0,5,,,,,,,,,4,,,62,108
2976,note_on,2,0,7,,,,,,,,,6,,,62,108
3070,note_on,94,0,5,,,,,,,,,4,,,62,0
3070,note_on,94,0,8,,,,,,,,,7,,,50,0
3070,note_on,94,0,6,,,,,,,,,5,,,62,0
3070,note_on,94,0,7,,,,,,,,,6,,,62,0
3072,note_on,2,0,7,,,,,,,,,6,,,62,108
3072,note_on,2,0,5,,,,,,,,,4,,,62,108
3072,note_on,2,0,8,,,,,,,,,7,,,50,108
3072,note_on,2,0,6,,,,,,,,,5,,,62,108
3166,note_on,94,0,6,,,,,,,,,5,,,62,0
3166,note_on,94,0,5,,,,,,,,,4,,,62,0
3166,note_on,94,0,7,,,,,,,,,6,,,62,0
3168,note_on,2,0,7,,,,,,,,,6,,,74,108
3168,note_on,0,0,7,,,,,,,,,6,,,78,108
3214,note_on,46,0,7,,,,,,,,,6,,,74,0
3214,note_on,0,0,7,,,,,,,,,6,,,78,0
3216,note_on,2,0,7,,,,,,,,,6,,,76,108
3216,note_on,0,0,7,,,,,,,,,6,,,79,108
3232,note_on,160,0,8,,,,,,,,,7,,,50,0
3262,note_on,46,0,7,,,,,,,,,6,,,76,0
3262,note_on,0,0,7,,,,,,,,,6,,,79,0
3264,note_on,2,0,7,,,,,,,,,6,,,78,108
3264,note_on,0,0,7,,,,,,,,,6,,,81,108
3310,note_on,46,0,7,,,,,,,,,6,,,78,0
3310,note_on,0,0,7,,,,,,,,,6,,,81,0
3312,note_on,2,0,7,,,,,,,,,6,,,76,108
3312,note_on,0,0,7,,,,,,,,,6,,,79,108
3358,note_on,0,0,7,,,,,,,,,6,,,79,0
3358,note_on,46,0,7,,,,,,,,,6,,,76,0
3360,note_on,0,0,7,,,,,,,,,6,,,81,108
3360,note_on,2,0,7,,,,,,,,,6,,,78,108
3406,note_on,0,0,7,,,,,,,,,6,,,81,0
3406,note_on,46,0,7,,,,,,,,,6,,,78,0
3408,note_on,0,0,7,,,,,,,,,6,,,79,108
3408,note_on,2,0,7,,,,,,,,,6,,,76,108
3454,note_on,46,0,7,,,,,,,,,6,,,76,0
3454,note_on,0,0,7,,,,,,,,,6,,,79,0
3456,note_on,2,0,7,,,,,,,,,6,,,74,108
3456,note_on,0,0,7,,,,,,,,,6,,,78,108
3550,note_on,94,0,7,,,,,,,,,6,,,74,0
3550,note_on,0,0,7,,,,,,,,,6,,,78,0
3552,note_on,2,0,7,,,,,,,,,6,,,74,108
3552,note_on,0,0,7,,,,,,,,,6,,,78,108
3598,note_on,46,0,7,,,,,,,,,6,,,74,0
3598,note_on,0,0,7,,,,,,,,,6,,,78,0
3600,note_on,2,0,7,,,,,,,,,6,,,76,108
3600,note_on,0,0,7,,,,,,,,,6,,,79,108
3646,note_on,46,0,7,,,,,,,,,6,,,76,0
3646,note_on,0,0,7,,,,,,,,,6,,,79,0
3648,note_on,0,0,7,,,,,,,,,6,,,81,108
3648,note_on,2,0,7,,,,,,,,,6,,,78,108
3694,note_on,46,0,7,,,,,,,,,6,,,78,0
3694,note_on,0,0,7,,,,,,,,,6,,,81,0
3696,note_on,2,0,7,,,,,,,,,6,,,76,108
3696,note_on,0,0,7,,,,,,,,,6,,,79,108
3742,note_on,46,0,7,,,,,,,,,6,,,76,0
3742,note_on,0,0,7,,,,,,,,,6,,,79,0
3744,note_on,2,0,7,,,,,,,,,6,,,78,108
3744,note_on,0,0,7,,,,,,,,,6,,,81,108
3790,note_on,0,0,7,,,,,,,,,6,,,81,0
3790,note_on,46,0,7,,,,,,,,,6,,,78,0
3792,note_on,0,0,7,,,,,,,,,6,,,79,108
3792,note_on,2,0,7,,,,,,,,,6,,,76,108
3838,note_on,0,0,7,,,,,,,,,6,,,79,0
3838,note_on,46,0,7,,,,,,,,,6,,,76,0
3840,note_on,2,0,7,,,,,,,,,6,,,74,108
3840,note_on,0,0,7,,,,,,,,,6,,,78,108
3840,note_on,608,0,8,,,,,,,,,7,,,50,108
3934,note_on,0,0,7,,,,,,,,,6,,,78,0
3934,note_on,94,0,7,,,,,,,,,6,,,74,0
3934,note_on,94,0,8,,,,,,,,,7,,,50,0
3936,note_on,770,0,6,,,,,,,,,5,,,74,108
3936,note_on,2,0,7,,,,,,,,,6,,,74,108
3936,note_on,2,0,8,,,,,,,,,7,,,62,108
3936,note_on,770,0,5,,,,,,,,,4,,,74,108
4030,note_on,94,0,6,,,,,,,,,5,,,74,0
4030,note_on,94,0,7,,,,,,,,,6,,,74,0
4030,note_on,94,0,8,,,,,,,,,7,,,62,0
4030,note_on,94,0,5,,,,,,,,,4,,,74,0
4032,note_on,2,0,8,,,,,,,,,7,,,50,108
4032,note_on,2,0,6,,,,,,,,,5,,,62,108
4032,note_on,2,0,7,,,,,,,,,6,,,62,108
4032,note_on,2,0,5,,,,,,,,,4,,,62,108
4126,note_on,94,0,8,,,,,,,,,7,,,50,0
4126,note_on,94,0,5,,,,,,,,,4,,,62,0
4126,note_on,94,0,7,,,,,,,,,6,,,62,0
4126,note_on,94,0,6,,,,,,,,,5,,,62,0
4128,note_on,2,0,6,,,,,,,,,5,,,62,108
4128,note_on,2,0,8,,,,,,,,,7,,,50,108
4128,note_on,2,0,5,,,,,,,,,4,,,62,108
4128,note_on,2,0,7,,,,,,,,,6,,,62,108
4222,note_on,94,0,6,,,,,,,,,5,,,62,0
4222,note_on,94,0,8,,,,,,,,,7,,,50,0
4222,note_on,94,0,7,,,,,,,,,6,,,62,0
4222,note_on,94,0,5,,,,,,,,,4,,,62,0
4224,note_on,2,0,8,,,,,,,,,7,,,50,108
4224,note_on,2,0,7,,,,,,,,,6,,,62,108
4224,note_on,2,0,5,,,,,,,,,4,,,62,108
4224,note_on,2,0,6,,,,,,,,,5,,,62,108
4318,note_on,94,0,7,,,,,,,,,6,,,62,0
4318,note_on,94,0,8,,,,,,,,,7,,,50,0
4318,note_on,94,0,5,,,,,,,,,4,,,62,0
4318,note_on,94,0,6,,,,,,,,,5,,,62,0
4320,note_on,2,0,5,,,,,,,,,4,,,74,108
4320,note_on,2,0,7,,,,,,,,,6,,,74,108
4320,note_on,2,0,6,,,,,,,,,5,,,74,108
4320,note_on,2,0,8,,,,,,,,,7,,,62,108
4414,note_on,94,0,7,,,,,,,,,6,,,74,0
4414,note_on,94,0,6,,,,,,,,,5,,,74,0
4414,note_on,94,0,8,,,,,,,,,7,,,62,0
4414,note_on,94,0,5,,,,,,,,,4,,,74,0
4416,note_on,2,0,5,,,,,,,,,4,,,62,108
4416,note_on,2,0,6,,,,,,,,,5,,,62,108
4416,note_on,2,0,8,,,,,,,,,7,,,50,108
4416,note_on,2,0,7,,,,,,,,,6,,,62,108
4510,note_on,94,0,5,,,,,,,,,4,,,62,0
4510,note_on,94,0,6,,,,,,,,,5,,,62,0
4510,note_on,94,0,8,,,,,,,,,7,,,50,0
4510,note_on,94,0,7,,,,,,,,,6,,,62,0
4512,note_on,2,0,6,,,,,,,,,5,,,62,108
4512,note_on,2,0,5,,,,,,,,,4,,,62,108
4512,note_on,2,0,7,,,,,,,,,6,,,62,108
4512,note_on,2,0,8,,,,,,,,,7,,,50,108
4606,note_on,94,0,7,,,,,,,,,6,,,62,0
4606,note_on,94,0,5,,,,,,,,,4,,,62,0
4606,note_on,94,0,8,,,,,,,,,7,,,50,0
4606,note_on,94,0,6,,,,,,,,,5,,,62,0
4608,note_on,2,0,7,,,,,,,,,6,,,62,108
4608,note_on,2,0,5,,,,,,,,,4,,,62,108
4608,note_on,2,0,6,,,,,,,,,5,,,62,108
4608,note_on,2,0,8,,,,,,,,,7,,,50,108
4702,note_on,94,0,5,,,,,,,,,4,,,62,0
4702,note_on,94,0,6,,,,,,,,,5,,,62,0
4702,note_on,94,0,7,,,,,,,,,6,,,62,0
4704,note_on,2,0,5,,,,,,,,,4,,,78,108
4704,note_on,2,0,6,,,,,,,,,5,,,74,108
4750,note_on,46,0,5,,,,,,,,,4,,,78,0
4750,note_on,46,0,6,,,,,,,,,5,,,74,0
4752,note_on,2,0,6,,,,,,,,,5,,,76,108
4752,note_on,2,0,5,,,,,,,,,4,,,79,108
4768,note_on,160,0,8,,,,,,,,,7,,,50,0
4798,note_on,46,0,6,,,,,,,,,5,,,76,0
4798,note_on,46,0,5,,,,,,,,,4,,,79,0
4800,note_on,2,0,5,,,,,,,,,4,,,81,108
4800,note_on,2,0,6,,,,,,,,,5,,,78,108
4846,note_on,46,0,5,,,,,,,,,4,,,81,0
4846,note_on,46,0,6,,,,,,,,,5,,,78,0
4848,note_on,2,0,6,,,,,,,,,5,,,76,108
4848,note_on,2,0,5,,,,,,,,,4,,,79,108
4894,note_on,46,0,6,,,,,,,,,5,,,76,0
4894,note_on,46,0,5,,,,,,,,,4,,,79,0
4896,note_on,2,0,5,,,,,,,,,4,,,81,108
4896,note_on,2,0,6,,,,,,,,,5,,,78,108
4942,note_on,46,0,5,,,,,,,,,4,,,81,0
4942,note_on,46,0,6,,,,,,,,,5,,,78,0
4944,note_on,2,0,5,,,,,,,,,4,,,79,108
4944,note_on,2,0,6,,,,,,,,,5,,,76,108
4990,note_on,46,0,5,,,,,,,,,4,,,79,0
4990,note_on,46,0,6,,,,,,,,,5,,,76,0
4992,note_on,2,0,6,,,,,,,,,5,,,74,108
4992,note_on,2,0,5,,,,,,,,,4,,,78,108
5086,note_on,94,0,5,,,,,,,,,4,,,78,0
5086,note_on,94,0,6,,,,,,,,,5,,,74,0
5088,note_on,2,0,5,,,,,,,,,4,,,78,108
5088,note_on,2,0,6,,,,,,,,,5,,,74,108
5134,note_on,46,0,5,,,,,,,,,4,,,78,0
5134,note_on,46,0,6,,,,,,,,,5,,,74,0
5136,note_on,2,0,5,,,,,,,,,4,,,79,108
5136,note_on,2,0,6,,,,,,,,,5,,,76,108
5182,note_on,46,0,5,,,,,,,,,4,,,79,0
5182,note_on,46,0,6,,,,,,,,,5,,,76,0
5184,note_on,2,0,5,,,,,,,,,4,,,81,108
5184,note_on,2,0,6,,,,,,,,,5,,,78,108
5230,note_on,46,0,6,,,,,,,,,5,,,78,0
5230,note_on,46,0,5,,,,,,,,,4,,,81,0
5232,note_on,2,0,5,,,,,,,,,4,,,79,108
5232,note_on,2,0,6,,,,,,,,,5,,,76,108
5278,note_on,46,0,6,,,,,,,,,5,,,76,0
5278,note_on,46,0,5,,,,,,,,,4,,,79,0
5280,note_on,2,0,6,,,,,,,,,5,,,78,108
5280,note_on,2,0,5,,,,,,,,,4,,,81,108
5326,note_on,46,0,6,,,,,,,,,5,,,78,0
5326,note_on,46,0,5,,,,,,,,,4,,,81,0
5328,note_on,2,0,6,,,,,,,,,5,,,76,108
5328,note_on,2,0,5,,,,,,,,,4,,,79,108
5374,note_on,46,0,6,,,,,,,,,5,,,76,0
5374,note_on,46,0,5,,,,,,,,,4,,,79,0
5376,note_on,2,0,5,,,,,,,,,4,,,74,108
5376,note_on,0,0,5,,,,,,,,,4,,,78,108
5376,note_on,608,0,8,,,,,,,,,7,,,50,108
5376,note_on,2,0,6,,,,,,,,,5,,,74,108
5376,note_on,0,0,6,,,,,,,,,5,,,78,108
5470,note_on,94,0,8,,,,,,,,,7,,,50,0
5470,note_on,94,0,6,,,,,,,,,5,,,74,0
5470,note_on,0,0,6,,,,,,,,,5,,,78,0
5470,note_on,0,0,5,,,,,,,,,4,,,78,0
5470,note_on,94,0,5,,,,,,,,,4,,,74,0
5472,note_on,2,0,5,,,,,,,,,4,,,74,108
5472,note_on,2,0,8,,,,,,,,,7,,,62,108
5472,note_on,770,0,7,,,,,,,,,6,,,74,108
5472,note_on,2,0,6,,,,,,,,,5,,,74,108
5566,note_on,94,0,5,,,,,,,,,4,,,74,0
5566,note_on,94,0,8,,,,,,,,,7,,,62,0
5566,note_on,94,0,7,,,,,,,,,6,,,74,0
5566,note_on,94,0,6,,,,,,,,,5,,,74,0
5568,note_on,2,0,6,,,,,,,,,5,,,62,108
5568,note_on,2,0,5,,,,,,,,,4,,,62,108
5568,note_on,2,0,7,,,,,,,,,6,,,62,108
5568,note_on,2,0,8,,,,,,,,,7,,,50,108
5662,note_on,94,0,5,,,,,,,,,4,,,62,0
5662,note_on,94,0,7,,,,,,,,,6,,,62,0
5662,note_on,94,0,8,,,,,,,,,7,,,50,0
5662,note_on,94,0,6,,,,,,,,,5,,,62,0
5664,note_on,2,0,7,,,,,,,,,6,,,62,108
5664,note_on,2,0,5,,,,,,,,,4,,,62,108
5664,note_on,2,0,6,,,,,,,,,5,,,62,108
5664,note_on,2,0,8,,,,,,,,,7,,,50,108
5758,note_on,94,0,5,,,,,,,,,4,,,62,0
5758,note_on,94,0,6,,,,,,,,,5,,,62,0
5758,note_on,94,0,8,,,,,,,,,7,,,50,0
5758,note_on,94,0,7,,,,,,,,,6,,,62,0
5760,note_on,2,0,8,,,,,,,,,7,,,50,108
5760,note_on,2,0,6,,,,,,,,,5,,,62,108
5760,note_on,2,0,5,,,,,,,,,4,,,62,108
5760,note_on,2,0,7,,,,,,,,,6,,,62,108
5854,note_on,94,0,8,,,,,,,,,7,,,50,0
5854,note_on,94,0,6,,,,,,,,,5,,,62,0
5854,note_on,94,0,5,,,,,,,,,4,,,62,0
5854,note_on,94,0,7,,,,,,,,,6,,,62,0
5856,note_on,2,0,6,,,,,,,,,5,,,74,108
5856,note_on,2,0,5,,,,,,,,,4,,,74,108
5856,note_on,2,0,8,,,,,,,,,7,,,62,108
5856,note_on,2,0,7,,,,,,,,,6,,,74,108
5950,note_on,94,0,5,,,,,,,,,4,,,74,0
5950,note_on,94,0,6,,,,,,,,,5,,,74,0
5950,note_on,94,0,8,,,,,,,,,7,,,62,0
5950,note_on,94,0,7,,,,,,,,,6,,,74,0
5952,note_on,2,0,7,,,,,,,,,6,,,62,108
5952,note_on,2,0,5,,,,,,,,,4,,,62,108
5952,note_on,2,0,8,,,,,,,,,7,,,50,108
5952,note_on,2,0,6,,,,,,,,,5,,,62,108
6046,note_on,94,0,6,,,,,,,,,5,,,62,0
6046,note_on,94,0,7,,,,,,,,,6,,,62,0
6046,note_on,94,0,5,,,,,,,,,4,,,62,0
6046,note_on,94,0,8,,,,,,,,,7,,,50,0
6048,note_on,2,0,5,,,,,,,,,4,,,62,108
6048,note_on,2,0,6,,,,,,,,,5,,,62,108
6048,note_on,2,0,8,,,,,,,,,7,,,50,108
6048,note_on,2,0,7,,,,,,,,,6,,,62,108
6142,note_on,94,0,7,,,,,,,,,6,,,62,0
6142,note_on,94,0,6,,,,,,,,,5,,,62,0
6142,note_on,94,0,8,,,,,,,,,7,,,50,0
6142,note_on,94,0,5,,,,,,,,,4,,,62,0
6144,note_on,2,0,6,,,,,,,,,5,,,62,108
6144,note_on,2,0,5,,,,,,,,,4,,,62,108
6144,note_on,2,0,8,,,,,,,,,7,,,50,108
6144,note_on,2,0,7,,,,,,,,,6,,,62,108
6238,note_on,94,0,7,,,,,,,,,6,,,62,0
6238,note_on,94,0,8,,,,,,,,,7,,,50,0
6238,note_on,94,0,6,,,,,,,,,5,,,62,0
6238,note_on,94,0,5,,,,,,,,,4,,,62,0
6240,note_on,2,0,7,,,,,,,,,6,,,74,108
6240,note_on,0,0,7,,,,,,,,,6,,,78,108
6240,note_on,2,0,6,,,,,,,,,5,,,74,108
6240,note_on,2,0,8,,,,,,,,,7,,,62,108
6240,note_on,0,0,5,,,,,,,,,4,,,78,108
6240,note_on,2,0,5,,,,,,,,,4,,,74,108
6240,note_on,0,0,6,,,,,,,,,5,,,78,108
6286,note_on,46,0,7,,,,,,,,,6,,,74,0
6286,note_on,0,0,7,,,,,,,,,6,,,78,0
6286,note_on,46,0,6,,,,,,,,,5,,,74,0
6286,note_on,0,0,5,,,,,,,,,4,,,78,0
6286,note_on,46,0,5,,,,,,,,,4,,,74,0
6286,note_on,0,0,6,,,,,,,,,5,,,78,0
6288,note_on,2,0,6,,,,,,,,,5,,,76,108
6288,note_on,2,0,7,,,,,,,,,6,,,76,108
6288,note_on,0,0,5,,,,,,,,,4,,,79,108
6288,note_on,2,0,5,,,,,,,,,4,,,76,108
6288,note_on,0,0,7,,,,,,,,,6,,,79,108
6288,note_on,0,0,6,,,,,,,,,5,,,79,108
6334,note_on,46,0,5,,,,,,,,,4,,,76,0
6334,note_on,0,0,5,,,,,,,,,4,,,79,0
6334,note_on,46,0,6,,,,,,,,,5,,,76,0
6334,note_on,0,0,6,,,,,,,,,5,,,79,0
6334,note_on,46,0,7,,,,,,,,,6,,,76,0
6334,note_on,94,0,8,,,,,,,,,7,,,62,0
6334,note_on,0,0,7,,,,,,,,,6,,,79,0
6336,note_on,2,0,6,,,,,,,,,5,,,78,108
6336,note_on,0,0,6,,,,,,,,,5,,,81,108
6336,note_on,2,0,7,,,,,,,,,6,,,78,108
6336,note_on,0,0,7,,,,,,,,,6,,,81,108
6336,note_on,2,0,8,,,,,,,,,7,,,50,108
6336,note_on,0,0,5,,,,,,,,,4,,,81,108
6336,note_on,2,0,5,,,,,,,,,4,,,78,108
6382,note_on,46,0,7,,,,,,,,,6,,,78,0
6382,note_on,0,0,7,,,,,,,,,6,,,81,0
6382,note_on,0,0,5,,,,,,,,,4,,,81,0
6382,note_on,0,0,6,,,,,,,,,5,,,81,0
6382,note_on,46,0,6,,,,,,,,,5,,,78,0
6382,note_on,46,0,5,,,,,,,,,4,,,78,0
6384,note_on,0,0,5,,,,,,,,,4,,,79,108
6384,note_on,0,0,6,,,,,,,,,5,,,79,108
6384,note_on,2,0,6,,,,,,,,,5,,,76,108
6384,note_on,2,0,5,,,,,,,,,4,,,76,108
6384,note_on,2,0,7,,,,,,,,,6,,,76,108
6384,note_on,0,0,7,,,,,,,,,6,,,79,108
6430,note_on,46,0,7,,,,,,,,,6,,,76,0
6430,note_on,94,0,8,,,,,,,,,7,,,50,0
6430,note_on,46,0,6,,,,,,,,,5,,,76,0
6430,note_on,0,0,6,,,,,,,,,5,,,79,0
6430,note_on,0,0,7,,,,,,,,,6,,,79,0
6430,note_on,0,0,5,,,,,,,,,4,,,79,0
6430,note_on,46,0,5,,,,,,,,,4,,,76,0
6432,note_on,2,0,6,,,,,,,,,5,,,78,108
6432,note_on,0,0,6,,,,,,,,,5,,,81,108
6432,note_on,2,0,5,,,,,,,,,4,,,78,108
6432,note_on,0,0,5,,,,,,,,,4,,,81,108
6432,note_on,2,0,8,,,,,,,,,7,,,50,108
6432,note_on,2,0,7,,,,,,,,,6,,,78,108
6432,note_on,0,0,7,,,,,,,,,6,,,81,108
6478,note_on,46,0,7,,,,,,,,,6,,,78,0
6478,note_on,46,0,5,,,,,,,,,4,,,78,0
6478,note_on,0,0,5,,,,,,,,,4,,,81,0
6478,note_on,46,0,6,,,,,,,,,5,,,78,0
6478,note_on,0,0,7,,,,,,,,,6,,,81,0
6478,note_on,0,0,6,,,,,,,,,5,,,81,0
6480,note_on,0,0,5,,,,,,,,,4,,,78,108
6480,note_on,0,0,6,,,,,,,,,5,,,78,108
6480,note_on,2,0,5,,,,,,,,,4,,,74,108
6480,note_on,2,0,7,,,,,,,,,6,,,74,108
6480,note_on,2,0,6,,,,,,,,,5,,,74,108
6480,note_on,0,0,7,,,,,,,,,6,,,78,108
6526,note_on,46,0,7,,,,,,,,,6,,,74,0
6526,note_on,46,0,5,,,,,,,,,4,,,74,0
6526,note_on,0,0,7,,,,,,,,,6,,,78,0
6526,note_on,0,0,6,,,,,,,,,5,,,78,0
6526,note_on,0,0,5,,,,,,,,,4,,,78,0
6526,note_on,94,0,8,,,,,,,,,7,,,50,0
6526,note_on,46,0,6,,,,,,,,,5,,,74,0
6528,note_on,2,0,7,,,,,,,,,6,,,78,108
6528,note_on,0,0,7,,,,,,,,,6,,,83,108
6528,note_on,2,0,8,,,,,,,,,7,,,50,108
6528,note_on,2,0,5,,,,,,,,,4,,,78,108
6528,note_on,0,0,5,,,,,,,,,4,,,83,108
6528,note_on,0,0,6,,,,,,,,,5,,,83,108
6528,note_on,2,0,6,,,,,,,,,5,,,78,108
6574,note_on,46,0,5,,,,,,,,,4,,,78,0
6574,note_on,0,0,5,,,,,,,,,4,,,83,0
6574,note_on,0,0,7,,,,,,,,,6,,,83,0
6574,note_on,46,0,7,,,,,,,,,6,,,78,0
6574,note_on,46,0,6,,,,,,,,,5,,,78,0
6574,note_on,0,0,6,,,,,,,,,5,,,83,0
6576,note_on,2,0,5,,,,,,,,,4,,,74,108
6576,note_on,2,0,7,,,,,,,,,6,,,74,108
6576,note_on,2,0,6,,,,,,,,,5,,,74,108
6622,note_on,46,0,7,,,,,,,,,6,,,74,0
6622,note_on,94,0,8,,,,,,,,,7,,,50,0
6622,note_on,46,0,5,,,,,,,,,4,,,74,0
6622,note_on,46,0,6,,,,,,,,,5,,,74,0
6624,note_on,2,0,5,,,,,,,,,4,,,78,108
6624,note_on,0,0,5,,,,,,,,,4,,,83,108
6624,note_on,2,0,6,,,,,,,,,5,,,78,108
6624,note_on,0,0,6,,,,,,,,,5,,,83,108
6624,note_on,2,0,7,,,,,,,,,6,,,78,108
6624,note_on,0,0,7,,,,,,,,,6,,,83,108
6624,note_on,2,0,8,,,,,,,,,7,,,62,108
6670,note_on,0,0,6,,,,,,,,,5,,,83,0
6670,note_on,46,0,6,,,,,,,,,5,,,78,0
6670,note_on,0,0,5,,,,,,,,,4,,,83,0
6670,note_on,46,0,5,,,,,,,,,4,,,78,0
6670,note_on,0,0,7,,,,,,,,,6,,,83,0
6670,note_on,46,0,7,,,,,,,,,6,,,78,0
6672,note_on,2,0,6,,,,,,,,,5,,,74,108
6672,note_on,2,0,5,,,,,,,,,4,,,74,108
6672,note_on,2,0,7,,,,,,,,,6,,,74,108
6718,note_on,46,0,5,,,,,,,,,4,,,74,0
6718,note_on,46,0,7,,,,,,,,,6,,,74,0
6718,note_on,46,0,6,,,,,,,,,5,,,74,0
6718,note_on,94,0,8,,,,,,,,,7,,,62,0
6720,note_on,2,0,6,,,,,,,,,5,,,78,108
6720,note_on,0,0,6,,,,,,,,,5,,,83,108
6720,note_on,2,0,8,,,,,,,,,7,,,50,108
6720,note_on,2,0,5,,,,,,,,,4,,,78,108
6720,note_on,0,0,5,,,,,,,,,4,,,83,108
6720,note_on,2,0,7,,,,,,,,,6,,,78,108
6720,note_on,0,0,7,,,,,,,,,6,,,83,108
6766,note_on,0,0,6,,,,,,,,,5,,,83,0
6766,note_on,46,0,5,,,,,,,,,4,,,78,0
6766,note_on,0,0,5,,,,,,,,,4,,,83,0
6766,note_on,46,0,7,,,,,,,,,6,,,78,0
6766,note_on,0,0,7,,,,,,,,,6,,,83,0
6766,note_on,46,0,6,,,,,,,,,5,,,78,0
6768,note_on,2,0,5,,,,,,,,,4,,,74,108
6768,note_on,2,0,6,,,,,,,,,5,,,74,108
6768,note_on,2,0,7,,,,,,,,,6,,,74,108
6814,note_on,46,0,6,,,,,,,,,5,,,74,0
6814,note_on,94,0,8,,,,,,,,,7,,,50,0
6814,note_on,46,0,7,,,,,,,,,6,,,74,0
6814,note_on,46,0,5,,,,,,,,,4,,,74,0
6816,note_on,0,0,5,,,,,,,,,4,,,83,108
6816,note_on,2,0,8,,,,,,,,,7,,,50,108
6816,note_on,0,0,7,,,,,,,,,6,,,83,108
6816,note_on,0,0,6,,,,,,,,,5,,,83,108
6816,note_on,2,0,7,,,,,,,,,6,,,78,108
6816,note_on,2,0,5,,,,,,,,,4,,,78,108
6816,note_on,2,0,6,,,,,,,,,5,,,78,108
6862,note_on,46,0,5,,,,,,,,,4,,,78,0
6862,note_on,0,0,5,,,,,,,,,4,,,83,0
6862,note_on,46,0,7,,,,,,,,,6,,,78,0
6862,note_on,0,0,7,,,,,,,,,6,,,83,0
6862,note_on,0,0,6,,,,,,,,,5,,,83,0
6862,note_on,46,0,6,,,,,,,,,5,,,78,0
6864,note_on,2,0,6,,,,,,,,,5,,,74,108
6864,note_on,2,0,5,,,,,,,,,4,,,74,108
6864,note_on,2,0,7,,,,,,,,,6,,,74,108
6910,note_on,46,0,6,,,,,,,,,5,,,74,0
6910,note_on,46,0,7,,,,,,,,,6,,,74,0
6910,note_on,94,0,8,,,,,,,,,7,,,50,0
6910,note_on,46,0,5,,,,,,,,,4,,,74,0
6912,note_on,2,0,8,,,,,,,,,7,,,49,108
6912,note_on,2,0,5,,,,,,,,,4,,,79,108
6912,note_on,0,0,5,,,,,,,,,4,,,83,108
6912,note_on,0,0,7,,,,,,,,,6,,,83,108
6912,note_on,2,0,7,,,,,,,,,6,,,79,108
6912,note_on,0,0,6,,,,,,,,,5,,,83,108
6912,note_on,2,0,6,,,,,,,,,5,,,79,108
6958,note_on,0,0,7,,,,,,,,,6,,,83,0
6958,note_on,0,0,6,,,,,,,,,5,,,83,0
6958,note_on,0,0,5,,,,,,,,,4,,,83,0
6958,note_on,46,0,5,,,,,,,,,4,,,79,0
6958,note_on,46,0,6,,,,,,,,,5,,,79,0
6958,note_on,46,0,7,,,,,,,,,6,,,79,0
6960,note_on,2,0,5,,,,,,,,,4,,,76,108
6960,note_on,2,0,6,,,,,,,,,5,,,76,108
6960,note_on,2,0,7,,,,,,,,,6,,,76,108
7006,note_on,46,0,7,,,,,,,,,6,,,76,0
7006,note_on,46,0,5,,,,,,,,,4,,,76,0
7006,note_on,94,0,8,,,,,,,,,7,,,49,0
7006,note_on,46,0,6,,,,,,,,,5,,,76,0
7008,note_on,2,0,6,,,,,,,,,5,,,79,108
7008,note_on,0,0,6,,,,,,,,,5,,,83,108
7008,note_on,2,0,5,,,,,,,,,4,,,79,108
7008,note_on,0,0,5,,,,,,,,,4,,,83,108
7008,note_on,2,0,7,,,,,,,,,6,,,79,108
7008,note_on,0,0,7,,,,,,,,,6,,,83,108
7008,note_on,2,0,8,,,,,,,,,7,,,61,108
7054,note_on,0,0,7,,,,,,,,,6,,,83,0
7054,note_on,0,0,6,,,,,,,,,5,,,83,0
7054,note_on,46,0,6,,,,,,,,,5,,,79,0
7054,note_on,46,0,5,,,,,,,,,4,,,79,0
7054,note_on,0,0,5,,,,,,,,,4,,,83,0
7054,note_on,46,0,7,,,,,,,,,6,,,79,0
7056,note_on,2,0,7,,,,,,,,,6,,,76,108
7056,note_on,2,0,5,,,,,,,,,4,,,76,108
7056,note_on,2,0,6,,,,,,,,,5,,,76,108
7102,note_on,94,0,8,,,,,,,,,7,,,61,0
7102,note_on,46,0,6,,,,,,,,,5,,,76,0
7102,note_on,46,0,5,,,,,,,,,4,,,76,0
7102,note_on,46,0,7,,,,,,,,,6,,,76,0
7104,note_on,2,0,7,,,,,,,,,6,,,79,108
7104,note_on,2,0,8,,,,,,,,,7,,,49,108
7104,note_on,0,0,5,,,,,,,,,4,,,83,108
7104,note_on,2,0,5,,,,,,,,,4,,,79,108
7104,note_on,2,0,6,,,,,,,,,5,,,79,108
7104,note_on,0,0,7,,,,,,,,,6,,,83,108
7104,note_on,0,0,6,,,,,,,,,5,,,83,108
7150,note_on,0,0,7,,,,,,,,,6,,,83,0
7150,note_on,46,0,5,,,,,,,,,4,,,79,0
7150,note_on,0,0,5,,,,,,,,,4,,,83,0
7150,note_on,46,0,7,,,,,,,,,6,,,79,0
7150,note_on,0,0,6,,,,,,,,,5,,,83,0
7150,note_on,46,0,6,,,,,,,,,5,,,79,0
7152,note_on,2,0,6,,,,,,,,,5,,,76,108
7152,note_on,2,0,7,,,,,,,,,6,,,76,108
7152,note_on,2,0,5,,,,,,,,,4,,,76,108
7198,note_on,94,0,8,,,,,,,,,7,,,49,0
7198,note_on,46,0,6,,,,,,,,,5,,,76,0
7198,note_on,46,0,7,,,,,,,,,6,,,76,0
7198,note_on,46,0,5,,,,,,,,,4,,,76,0
7200,note_on,2,0,6,,,,,,,,,5,,,79,108
7200,note_on,0,0,6,,,,,,,,,5,,,83,108
7200,note_on,0,0,7,,,,,,,,,6,,,83,108
7200,note_on,2,0,7,,,,,,,,,6,,,79,108
7200,note_on,0,0,5,,,,,,,,,4,,,83,108
7200,note_on,2,0,8,,,,,,,,,7,,,49,108
7200,note_on,2,0,5,,,,,,,,,4,,,79,108
7246,note_on,46,0,5,,,,,,,,,4,,,79,0
7246,note_on,0,0,7,,,,,,,,,6,,,83,0
7246,note_on,46,0,7,,,,,,,,,6,,,79,0
7246,note_on,0,0,5,,,,,,,,,4,,,83,0
7246,note_on,0,0,6,,,,,,,,,5,,,83,0
7246,note_on,46,0,6,,,,,,,,,5,,,79,0
7248,note_on,2,0,7,,,,,,,,,6,,,76,108
7248,note_on,2,0,5,,,,,,,,,4,,,76,108
7248,note_on,2,0,6,,,,,,,,,5,,,76,108
7294,note_on,46,0,7,,,,,,,,,6,,,76,0
7294,note_on,46,0,5,,,,,,,,,4,,,76,0
7294,note_on,94,0,8,,,,,,,,,7,,,49,0
7294,note_on,46,0,6,,,,,,,,,5,,,76,0
7296,note_on,0,0,6,,,,,,,,,5,,,81,108
7296,note_on,2,0,5,,,,,,,,,4,,,76,108
7296,note_on,0,0,5,,,,,,,,,4,,,81,108
7296,note_on,2,0,7,,,,,,,,,6,,,76,108
7296,note_on,0,0,7,,,,,,,,,6,,,81,108
7296,note_on,2,0,8,,,,,,,,,7,,,49,108
7296,note_on,2,0,6,,,,,,,,,5,,,76,108
7342,note_on,46,0,5,,,,,,,,,4,,,76,0
7342,note_on,0,0,5,,,,,,,,,4,,,81,0
7342,note_on,46,0,6,,,,,,,,,5,,,76,0
7342,note_on,0,0,6,,,,,,,,,5,,,81,0
7342,note_on,46,0,7,,,,,,,,,6,,,76,0
7342,note_on,0,0,7,,,,,,,,,6,,,81,0
7344,note_on,2,0,5,,,,,,,,,4,,,73,108
7344,note_on,2,0,6,,,,,,,,,5,,,73,108
7344,note_on,2,0,7,,,,,,,,,6,,,73,108
7390,note_on,46,0,5,,,,,,,,,4,,,73,0
7390,note_on,46,0,6,,,,,,,,,5,,,73,0
7390,note_on,46,0,7,,,,,,,,,6,,,73,0
7390,note_on,94,0,8,,,,,,,,,7,,,49,0
7392,note_on,2,0,8,,,,,,,,,7,,,61,108
7392,note_on,2,0,7,,,,,,,,,6,,,76,108
7392,note_on,2,0,5,,,,,,,,,4,,,76,108
7392,note_on,0,0,5,,,,,,,,,4,,,81,108
7392,note_on,0,0,6,,,,,,,,,5,,,81,108
7392,note_on,2,0,6,,,,,,,,,5,,,76,108
7392,note_on,0,0,7,,,,,,,,,6,,,81,108
7438,note_on,46,0,5,,,,,,,,,4,,,76,0
7438,note_on,0,0,5,,,,,,,,,4,,,81,0
7438,note_on,0,0,7,,,,,,,,,6,,,81,0
7438,note_on,46,0,6,,,,,,,,,5,,,76,0
7438,note_on,0,0,6,,,,,,,,,5,,,81,0
7438,note_on,46,0,7,,,,,,,,,6,,,76,0
7440,note_on,2,0,5,,,,,,,,,4,,,73,108
7440,note_on,2,0,7,,,,,,,,,6,,,73,108
7440,note_on,2,0,6,,,,,,,,,5,,,73,108
7486,note_on,94,0,8,,,,,,,,,7,,,61,0
7486,note_on,46,0,5,,,,,,,,,4,,,73,0
7486,note_on,46,0,7,,,,,,,,,6,,,73,0
7486,note_on,46,0,6,,,,,,,,,5,,,73,0
7488,note_on,2,0,8,,,,,,,,,7,,,49,108
7488,note_on,0,0,5,,,,,,,,,4,,,81,108
7488,note_on,2,0,5,,,,,,,,,4,,,76,108
7488,note_on,0,0,6,,,,,,,,,5,,,81,108
7488,note_on,2,0,6,,,,,,,,,5,,,76,108
7488,note_on,2,0,7,,,,,,,,,6,,,76,108
7488,note_on,0,0,7,,,,,,,,,6,,,81,108
7534,note_on,0,0,5,,,,,,,,,4,,,81,0
7534,note_on,46,0,6,,,,,,,,,5,,,76,0
7534,note_on,46,0,7,,,,,,,,,6,,,76,0
7534,note_on,46,0,5,,,,,,,,,4,,,76,0
7534,note_on,0,0,7,,,,,,,,,6,,,81,0
7534,note_on,0,0,6,,,,,,,,,5,,,81,0
7536,note_on,2,0,6,,,,,,,,,5,,,73,108
7536,note_on,2,0,5,,,,,,,,,4,,,73,108
7536,note_on,2,0,7,,,,,,,,,6,,,73,108
7582,note_on,46,0,6,,,,,,,,,5,,,73,0
7582,note_on,94,0,8,,,,,,,,,7,,,49,0
7582,note_on,46,0,7,,,,,,,,,6,,,73,0
7582,note_on,46,0,5,,,,,,,,,4,,,73,0
7584,note_on,2,0,6,,,,,,,,,5,,,76,108
7584,note_on,0,0,6,,,,,,,,,5,,,81,108
7584,note_on,2,0,8,,,,,,,,,7,,,49,108
7584,note_on,0,0,7,,,,,,,,,6,,,81,108
7584,note_on,2,0,7,,,,,,,,,6,,,76,108
7584,note_on,2,0,5,,,,,,,,,4,,,76,108
7584,note_on,0,0,5,,,,,,,,,4,,,81,108
7630,note_on,46,0,6,,,,,,,,,5,,,76,0
7630,note_on,0,0,7,,,,,,,,,6,,,81,0
7630,note_on,46,0,7,,,,,,,,,6,,,76,0
7630,note_on,46,0,5,,,,,,,,,4,,,76,0
7630,note_on,0,0,5,,,,,,,,,4,,,81,0
7630,note_on,0,0,6,,,,,,,,,5,,,81,0
7632,note_on,2,0,6,,,,,,,,,5,,,73,108
7632,note_on,2,0,7,,,,,,,,,6,,,73,108
7632,note_on,2,0,5,,,,,,,,,4,,,73,108
7678,note_on,94,0,8,,,,,,,,,7,,,49,0
7678,note_on,46,0,6,,,,,,,,,5,,,73,0
7678,note_on,46,0,7,,,,,,,,,6,,,73,0
7678,note_on,46,0,5,,,,,,,,,4,,,73,0
7680,note_on,2,0,5,,,,,,,,,4,,,78,108
7680,note_on,2,0,7,,,,,,,,,6,,,78,108
7680,note_on,2,0,8,,,,,,,,,7,,,47,108
7680,note_on,0,0,6,,,,,,,,,5,,,81,108
7680,note_on,0,0,5,,,,,,,,,4,,,81,108
7680,note_on,0,0,7,,,,,,,,,6,,,81,108
7680,note_on,2,0,6,,,,,,,,,5,,,78,108
7726,note_on,46,0,5,,,,,,,,,4,,,78,0
7726,note_on,0,0,5,,,,,,,,,4,,,81,0
7726,note_on,46,0,7,,,,,,,,,6,,,78,0
7726,note_on,0,0,7,,,,,,,,,6,,,81,0
7726,note_on,0,0,6,,,,,,,,,5,,,81,0
7726,note_on,46,0,6,,,,,,,,,5,,,78,0
7728,note_on,2,0,5,,,,,,,,,4,,,74,108
7728,note_on,2,0,7,,,,,,,,,6,,,74,108
7728,note_on,2,0,6,,,,,,,,,5,,,74,108
7774,note_on,46,0,7,,,,,,,,,6,,,74,0
7774,note_on,46,0,6,,,,,,,,,5,,,74,0
7774,note_on,94,0,8,,,,,,,,,7,,,47,0
7774,note_on,46,0,5,,,,,,,,,4,,,74,0
7776,note_on,2,0,8,,,,,,,,,7,,,59,108
7776,note_on,0,0,6,,,,,,,,,5,,,81,108
7776,note_on,0,0,7,,,,,,,,,6,,,81,108
7776,note_on,2,0,5,,,,,,,,,4,,,78,108
7776,note_on,0,0,5,,,,,,,,,4,,,81,108
7776,note_on,2,0,7,,,,,,,,,6,,,78,108
7776,note_on,2,0,6,,,,,,,,,5,,,78,108
7822,note_on,46,0,7,,,,,,,,,6,,,78,0
7822,note_on,46,0,6,,,,,,,,,5,,,78,0
7822,note_on,0,0,7,,,,,,,,,6,,,81,0
7822,note_on,46,0,5,,,,,,,,,4,,,78,0
7822,note_on,0,0,5,,,,,,,,,4,,,81,0
7822,note_on,0,0,6,,,,,,,,,5,,,81,0
7824,note_on,2,0,5,,,,,,,,,4,,,74,108
7824,note_on,2,0,7,,,,,,,,,6,,,74,108
7824,note_on,2,0,6,,,,,,,,,5,,,74,108
7870,note_on,46,0,6,,,,,,,,,5,,,74,0
7870,note_on,46,0,7,,,,,,,,,6,,,74,0
7870,note_on,94,0,8,,,,,,,,,7,,,59,0
7870,note_on,46,0,5,,,,,,,,,4,,,74,0
7872,note_on,2,0,7,,,,,,,,,6,,,78,108
7872,note_on,0,0,7,,,,,,,,,6,,,81,108
7872,note_on,0,0,6,,,,,,,,,5,,,81,108
7872,note_on,2,0,6,,,,,,,,,5,,,78,108
7872,note_on,2,0,5,,,,,,,,,4,,,78,108
7872,note_on,0,0,5,,,,,,,,,4,,,81,108
7872,note_on,2,0,8,,,,,,,,,7,,,47,108
7918,note_on,0,0,6,,,,,,,,,5,,,81,0
7918,note_on,46,0,7,,,,,,,,,6,,,78,0
7918,note_on,0,0,7,,,,,,,,,6,,,81,0
7918,note_on,46,0,6,,,,,,,,,5,,,78,0
7918,note_on,46,0,5,,,,,,,,,4,,,78,0
7918,note_on,0,0,5,,,,,,,,,4,,,81,0
7920,note_on,2,0,5,,,,,,,,,4,,,74,108
7920,note_on,2,0,6,,,,,,,,,5,,,74,108
7920,note_on,2,0,7,,,,,,,,,6,,,74,108
7966,note_on,46,0,5,,,,,,,,,4,,,74,0
7966,note_on,46,0,7,,,,,,,,,6,,,74,0
7966,note_on,94,0,8,,,,,,,,,7,,,47,0
7966,note_on,46,0,6,,,,,,,,,5,,,74,0
7968,note_on,2,0,5,,,,,,,,,4,,,78,108
7968,note_on,2,0,7,,,,,,,,,6,,,78,108
7968,note_on,0,0,6,,,,,,,,,5,,,81,108
7968,note_on,2,0,8,,,,,,,,,7,,,47,108
7968,note_on,2,0,6,,,,,,,,,5,,,78,108
7968,note_on,0,0,7,,,,,,,,,6,,,81,108
7968,note_on,0,0,5,,,,,,,,,4,,,81,108
8014,note_on,0,0,5,,,,,,,,,4,,,81,0
8014,note_on,0,0,7,,,,,,,,,6,,,81,0
8014,note_on,46,0,5,,,,,,,,,4,,,78,0
8014,note_on,46,0,6,,,,,,,,,5,,,78,0
8014,note_on,0,0,6,,,,,,,,,5,,,81,0
8014,note_on,46,0,7,,,,,,,,,6,,,78,0
8016,note_on,2,0,7,,,,,,,,,6,,,74,108
8016,note_on,2,0,6,,,,,,,,,5,,,74,108
8016,note_on,2,0,5,,,,,,,,,4,,,74,108
8062,note_on,46,0,5,,,,,,,,,4,,,74,0
8062,note_on,46,0,7,,,,,,,,,6,,,74,0
8062,note_on,46,0,6,,,,,,,,,5,,,74,0
8062,note_on,94,0,8,,,,,,,,,7,,,47,0
8064,note_on,2,0,8,,,,,,,,,7,,,47,108
8064,note_on,2,0,5,,,,,,,,,4,,,74,108
8064,note_on,0,0,5,,,,,,,,,4,,,79,108
8064,note_on,0,0,7,,,,,,,,,6,,,79,108
8064,note_on,2,0,7,,,,,,,,,6,,,74,108
8064,note_on,2,0,6,,,,,,,,,5,,,74,108
8064,note_on,0,0,6,,,,,,,,,5,,,79,108
8110,note_on,0,0,6,,,,,,,,,5,,,79,0
8110,note_on,46,0,5,,,,,,,,,4,,,74,0
8110,note_on,46,0,6,,,,,,,,,5,,,74,0
8110,note_on,46,0,7,,,,,,,,,6,,,74,0
8110,note_on,0,0,7,,,,,,,,,6,,,79,0
8110,note_on,0,0,5,,,,,,,,,4,,,79,0
8112,note_on,2,0,7,,,,,,,,,6,,,71,108
8112,note_on,2,0,6,,,,,,,,,5,,,71,108
8112,note_on,2,0,5,,,,,,,,,4,,,71,108
8158,note_on,46,0,7,,,,,,,,,6,,,71,0
8158,note_on,46,0,5,,,,,,,,,4,,,71,0
8158,note_on,46,0,6,,,,,,,,,5,,,71,0
8158,note_on,94,0,8,,,,,,,,,7,,,47,0
8160,note_on,2,0,8,,,,,,,,,7,,,59,108
8160,note_on,2,0,7,,,,,,,,,6,,,74,108
8160,note_on,2,0,5,,,,,,,,,4,,,74,108
8160,note_on,0,0,5,,,,,,,,,4,,,79,108
8160,note_on,0,0,7,,,,,,,,,6,,,79,108
8160,note_on,0,0,6,,,,,,,,,5,,,79,108
8160,note_on,2,0,6,,,,,,,,,5,,,74,108
8206,note_on,46,0,6,,,,,,,,,5,,,74,0
8206,note_on,46,0,5,,,,,,,,,4,,,74,0
8206,note_on,0,0,5,,,,,,,,,4,,,79,0
8206,note_on,46,0,7,,,,,,,,,6,,,74,0
8206,note_on,0,0,7,,,,,,,,,6,,,79,0
8206,note_on,0,0,6,,,,,,,,,5,,,79,0
8208,note_on,2,0,7,,,,,,,,,6,,,71,108
8208,note_on,2,0,5,,,,,,,,,4,,,71,108
8208,note_on,2,0,6,,,,,,,,,5,,,71,108
8254,note_on,94,0,8,,,,,,,,,7,,,59,0
8254,note_on,46,0,6,,,,,,,,,5,,,71,0
8254,note_on,46,0,5,,,,,,,,,4,,,71,0
8254,note_on,46,0,7,,,,,,,,,6,,,71,0
8256,note_on,0,0,7,,,,,,,,,6,,,79,108
8256,note_on,2,0,7,,,,,,,,,6,,,74,108
8256,note_on,0,0,5,,,,,,,,,4,,,79,108
8256,note_on,0,0,6,,,,,,,,,5,,,79,108
8256,note_on,2,0,6,,,,,,,,,5,,,74,108
8256,note_on,2,0,8,,,,,,,,,7,,,47,108
8256,note_on,2,0,5,,,,,,,,,4,,,74,108
8302,note_on,46,0,5,,,,,,,,,4,,,74,0
8302,note_on,0,0,5,,,,,,,,,4,,,79,0
8302,note_on,46,0,7,,,,,,,,,6,,,74,0
8302,note_on,0,0,7,,,,,,,,,6,,,79,0
8302,note_on,46,0,6,,,,,,,,,5,,,74,0
8302,note_on,0,0,6,,,,,,,,,5,,,79,0
8304,note_on,2,0,7,,,,,,,,,6,,,71,108
8304,note_on,2,0,6,,,,,,,,,5,,,71,108
8304,note_on,2,0,5,,,,,,,,,4,,,71,108
8350,note_on,46,0,7,,,,,,,,,6,,,71,0
8350,note_on,94,0,8,,,,,,,,,7,,,47,0
8350,note_on,46,0,6,,,,,,,,,5,,,71,0
8350,note_on,46,0,5,,,,,,,,,4,,,71,0
8352,note_on,0,0,5,,,,,,,,,4,,,79,108
8352,note_on,2,0,6,,,,,,,,,5,,,74,108
8352,note_on,0,0,6,,,,,,,,,5,,,79,108
8352,note_on,2,0,8,,,,,,,,,7,,,47,108
8352,note_on,0,0,7,,,,,,,,,6,,,79,108
8352,note_on,2,0,7,,,,,,,,,6,,,74,108
8352,note_on,2,0,5,,,,,,,,,4,,,74,108
8398,note_on,46,0,6,,,,,,,,,5,,,74,0
8398,note_on,0,0,5,,,,,,,,,4,,,79,0
8398,note_on,46,0,5,,,,,,,,,4,,,74,0
8398,note_on,0,0,7,,,,,,,,,6,,,79,0
8398,note_on,46,0,7,,,,,,,,,6,,,74,0
8398,note_on,0,0,6,,,,,,,,,5,,,79,0
8400,note_on,2,0,5,,,,,,,,,4,,,71,108
8400,note_on,2,0,7,,,,,,,,,6,,,71,108
8400,note_on,2,0,6,,,,,,,,,5,,,71,108
8446,note_on,46,0,6,,,,,,,,,5,,,71,0
8446,note_on,46,0,5,,,,,,,,,4,,,71,0
8446,note_on,46,0,7,,,,,,,,,6,,,71,0
8446,note_on,94,0,8,,,,,,,,,7,,,47,0
8448,note_on,2,0,8,,,,,,,,,7,,,45,108
8448,note_on,0,0,5,,,,,,,,,4,,,79,108
8448,note_on,2,0,5,,,,,,,,,4,,,76,108
8448,note_on,0,0,7,,,,,,,,,6,,,79,108
8448,note_on,2,0,7,,,,,,,,,6,,,76,108
8448,note_on,0,0,6,,,,,,,,,5,,,79,108
8448,note_on,2,0,6,,,,,,,,,5,,,76,108
8494,note_on,46,0,5,,,,,,,,,4,,,76,0
8494,note_on,0,0,7,,,,,,,,,6,,,79,0
8494,note_on,0,0,5,,,,,,,,,4,,,79,0
8494,note_on,46,0,7,,,,,,,,,6,,,76,0
8494,note_on,46,0,6,,,,,,,,,5,,,76,0
8494,note_on,0,0,6,,,,,,,,,5,,,79,0
8496,note_on,2,0,5,,,,,,,,,4,,,73,108
8496,note_on,2,0,7,,,,,,,,,6,,,73,108
8496,note_on,2,0,6,,,,,,,,,5,,,73,108
8542,note_on,94,0,8,,,,,,,,,7,,,45,0
8542,note_on,46,0,7,,,,,,,,,6,,,73,0
8542,note_on,46,0,6,,,,,,,,,5,,,73,0
8542,note_on,46,0,5,,,,,,,,,4,,,73,0
8544,note_on,2,0,8,,,,,,,,,7,,,57,108
8544,note_on,0,0,6,,,,,,,,,5,,,79,108
8544,note_on,2,0,6,,,,,,,,,5,,,76,108
8544,note_on,2,0,7,,,,,,,,,6,,,76,108
8544,note_on,0,0,7,,,,,,,,,6,,,79,108
8544,note_on,2,0,5,,,,,,,,,4,,,76,108
8544,note_on,0,0,5,,,,,,,,,4,,,79,108
8590,note_on,46,0,5,,,,,,,,,4,,,76,0
8590,note_on,0,0,5,,,,,,,,,4,,,79,0
8590,note_on,46,0,6,,,,,,,,,5,,,76,0
8590,note_on,0,0,6,,,,,,,,,5,,,79,0
8590,note_on,46,0,7,,,,,,,,,6,,,76,0
8590,note_on,0,0,7,,,,,,,,,6,,,79,0
8592,note_on,2,0,7,,,,,,,,,6,,,73,108
8592,note_on,2,0,6,,,,,,,,,5,,,73,108
8592,note_on,2,0,5,,,,,,,,,4,,,73,108
8638,note_on,94,0,8,,,,,,,,,7,,,57,0
8638,note_on,46,0,6,,,,,,,,,5,,,73,0
8638,note_on,46,0,5,,,,,,,,,4,,,73,0
8638,note_on,46,0,7,,,,,,,,,6,,,73,0
8640,note_on,2,0,8,,,,,,,,,7,,,45,108
8640,note_on,0,0,6,,,,,,,,,5,,,79,108
8640,note_on,2,0,6,,,,,,,,,5,,,76,108
8640,note_on,2,0,7,,,,,,,,,6,,,76,108
8640,note_on,2,0,5,,,,,,,,,4,,,76,108
8640,note_on,0,0,5,,,,,,,,,4,,,79,108
8640,note_on,0,0,7,,,,,,,,,6,,,79,108
8686,note_on,0,0,6,,,,,,,,,5,,,79,0
8686,note_on,46,0,6,,,,,,,,,5,,,76,0
8686,note_on,46,0,5,,,,,,,,,4,,,76,0
8686,note_on,0,0,5,,,,,,,,,4,,,79,0
8686,note_on,0,0,7,,,,,,,,,6,,,79,0
8686,note_on,46,0,7,,,,,,,,,6,,,76,0
8688,note_on,2,0,7,,,,,,,,,6,,,73,108
8688,note_on,2,0,6,,,,,,,,,5,,,73,108
8688,note_on,2,0,5,,,,,,,,,4,,,73,108
8734,note_on,46,0,5,,,,,,,,,4,,,73,0
8734,note_on,46,0,7,,,,,,,,,6,,,73,0
8734,note_on,46,0,6,,,,,,,,,5,,,73,0
8734,note_on,94,0,8,,,,,,,,,7,,,45,0
8736,note_on,0,0,6,,,,,,,,,5,,,79,108
8736,note_on,2,0,6,,,,,,,,,5,,,76,108
8736,note_on,2,0,8,,,,,,,,,7,,,45,108
8736,note_on,2,0,5,,,,,,,,,4,,,76,108
8736,note_on,0,0,5,,,,,,,,,4,,,79,108
8736,note_on,0,0,7,,,,,,,,,6,,,79,108
8736,note_on,2,0,7,,,,,,,,,6,,,76,108
8782,note_on,0,0,7,,,,,,,,,6,,,79,0
8782,note_on,46,0,7,,,,,,,,,6,,,76,0
8782,note_on,46,0,5,,,,,,,,,4,,,76,0
8782,note_on,46,0,6,,,,,,,,,5,,,76,0
8782,note_on,0,0,6,,,,,,,,,5,,,79,0
8782,note_on,0,0,5,,,,,,,,,4,,,79,0
8784,note_on,2,0,5,,,,,,,,,4,,,73,108
8784,note_on,2,0,7,,,,,,,,,6,,,73,108
8784,note_on,2,0,6,,,,,,,,,5,,,73,108
8830,note_on,46,0,5,,,,,,,,,4,,,73,0
8830,note_on,46,0,7,,,,,,,,,6,,,73,0
8830,note_on,94,0,8,,,,,,,,,7,,,45,0
8830,note_on,46,0,6,,,,,,,,,5,,,73,0
8832,note_on,2,0,8,,,,,,,,,7,,,45,108
8832,note_on,0,0,7,,,,,,,,,6,,,78,108
8832,note_on,2,0,7,,,,,,,,,6,,,73,108
8832,note_on,2,0,6,,,,,,,,,5,,,73,108
8832,note_on,0,0,6,,,,,,,,,5,,,78,108
8832,note_on,0,0,5,,,,,,,,,4,,,78,108
8832,note_on,2,0,5,,,,,,,,,4,,,73,108
8878,note_on,46,0,7,,,,,,,,,6,,,73,0
8878,note_on,46,0,5,,,,,,,,,4,,,73,0
8878,note_on,0,0,5,,,,,,,,,4,,,78,0
8878,note_on,0,0,7,,,,,,,,,6,,,78,0
8878,note_on,0,0,6,,,,,,,,,5,,,78,0
8878,note_on,46,0,6,,,,,,,,,5,,,73,0
8880,note_on,2,0,7,,,,,,,,,6,,,69,108
8880,note_on,2,0,6,,,,,,,,,5,,,69,108
8880,note_on,2,0,5,,,,,,,,,4,,,69,108
8926,note_on,46,0,7,,,,,,,,,6,,,69,0
8926,note_on,46,0,6,,,,,,,,,5,,,69,0
8926,note_on,94,0,8,,,,,,,,,7,,,45,0
8926,note_on,46,0,5,,,,,,,,,4,,,69,0
8928,note_on,2,0,6,,,,,,,,,5,,,73,108
8928,note_on,0,0,6,,,,,,,,,5,,,78,108
8928,note_on,0,0,7,,,,,,,,,6,,,78,108
8928,note_on,2,0,8,,,,,,,,,7,,,57,108
8928,note_on,2,0,7,,,,,,,,,6,,,73,108
8928,note_on,2,0,5,,,,,,,,,4,,,73,108
8928,note_on,0,0,5,,,,,,,,,4,,,78,108
8974,note_on,0,0,5,,,,,,,,,4,,,78,0
8974,note_on,46,0,5,,,,,,,,,4,,,73,0
8974,note_on,46,0,6,,,,,,,,,5,,,73,0
8974,note_on,0,0,6,,,,,,,,,5,,,78,0
8974,note_on,0,0,7,,,,,,,,,6,,,78,0
8974,note_on,46,0,7,,,,,,,,,6,,,73,0
8976,note_on,2,0,6,,,,,,,,,5,,,69,108
8976,note_on,2,0,7,,,,,,,,,6,,,69,108
8976,note_on,2,0,5,,,,,,,,,4,,,69,108
9022,note_on,46,0,6,,,,,,,,,5,,,69,0
9022,note_on,46,0,7,,,,,,,,,6,,,69,0
9022,note_on,46,0,5,,,,,,,,,4,,,69,0
9022,note_on,94,0,8,,,,,,,,,7,,,57,0
9024,note_on,2,0,6,,,,,,,,,5,,,73,108
9024,note_on,0,0,5,,,,,,,,,4,,,78,108
9024,note_on,2,0,7,,,,,,,,,6,,,73,108
9024,note_on,2,0,5,,,,,,,,,4,,,73,108
9024,note_on,0,0,6,,,,,,,,,5,,,78,108
9024,note_on,0,0,7,,,,,,,,,6,,,78,108
9024,note_on,2,0,8,,,,,,,,,7,,,45,108
9070,note_on,46,0,6,,,,,,,,,5,,,73,0
9070,note_on,46,0,5,,,,,,,,,4,,,73,0
9070,note_on,0,0,5,,,,,,,,,4,,,78,0
9070,note_on,0,0,6,,,,,,,,,5,,,78,0
9070,note_on,46,0,7,,,,,,,,,6,,,73,0
9070,note_on,0,0,7,,,,,,,,,6,,,78,0
9072,note_on,2,0,6,,,,,,,,,5,,,69,108
9072,note_on,2,0,5,,,,,,,,,4,,,69,108
9072,note_on,2,0,7,,,,,,,,,6,,,69,108
9118,note_on,46,0,5,,,,,,,,,4,,,69,0
9118,note_on,46,0,7,,,,,,,,,6,,,69,0
9118,note_on,94,0,8,,,,,,,,,7,,,45,0
9118,note_on,46,0,6,,,,,,,,,5,,,69,0
9120,note_on,2,0,6,,,,,,,,,5,,,73,108
9120,note_on,2,0,7,,,,,,,,,6,,,73,108
9120,note_on,0,0,7,,,,,,,,,6,,,78,108
9120,note_on,0,0,6,,,,,,,,,5,,,78,108
9120,note_on,2,0,8,,,,,,,,,7,,,45,108
9120,note_on,2,0,5,,,,,,,,,4,,,73,108
9120,note_on,0,0,5,,,,,,,,,4,,,78,108
9166,note_on,46,0,5,,,,,,,,,4,,,73,0
9166,note_on,0,0,5,,,,,,,,,4,,,78,0
9166,note_on,46,0,7,,,,,,,,,6,,,73,0
9166,note_on,0,0,7,,,,,,,,,6,,,78,0
9166,note_on,46,0,6,,,,,,,,,5,,,73,0
9166,note_on,0,0,6,,,,,,,,,5,,,78,0
9168,note_on,2,0,6,,,,,,,,,5,,,69,108
9168,note_on,2,0,5,,,,,,,,,4,,,69,108
9168,note_on,2,0,7,,,,,,,,,6,,,69,108
9214,note_on,46,0,6,,,,,,,,,5,,,69,0
9214,note_on,94,0,8,,,,,,,,,7,,,45,0
9214,note_on,46,0,7,,,,,,,,,6,,,69,0
9214,note_on,46,0,5,,,,,,,,,4,,,69,0
9216,note_on,0,0,7,,,,,,,,,6,,,78,108
9216,note_on,2,0,7,,,,,,,,,6,,,74,108
9216,note_on,2,0,8,,,,,,,,,7,,,43,108
9216,note_on,0,0,6,,,,,,,,,5,,,78,108
9216,note_on,2,0,5,,,,,,,,,4,,,74,108
9216,note_on,0,0,5,,,,,,,,,4,,,78,108
9216,note_on,2,0,6,,,,,,,,,5,,,74,108
9262,note_on,46,0,6,,,,,,,,,5,,,74,0
9262,note_on,46,0,5,,,,,,,,,4,,,74,0
9262,note_on,0,0,7,,,,,,,,,6,,,78,0
9262,note_on,46,0,7,,,,,,,,,6,,,74,0
9262,note_on,0,0,5,,,,,,,,,4,,,78,0
9262,note_on,0,0,6,,,,,,,,,5,,,78,0
9264,note_on,2,0,6,,,,,,,,,5,,,71,108
9264,note_on,2,0,7,,,,,,,,,6,,,71,108
9264,note_on,2,0,5,,,,,,,,,4,,,71,108
9310,note_on,46,0,5,,,,,,,,,4,,,71,0
9310,note_on,94,0,8,,,,,,,,,7,,,43,0
9310,note_on,46,0,7,,,,,,,,,6,,,71,0
9310,note_on,46,0,6,,,,,,,,,5,,,71,0
9312,note_on,0,0,5,,,,,,,,,4,,,78,108
9312,note_on,2,0,5,,,,,,,,,4,,,74,108
9312,note_on,2,0,6,,,,,,,,,5,,,74,108
9312,note_on,0,0,6,,,,,,,,,5,,,78,108
9312,note_on,2,0,7,,,,,,,,,6,,,74,108
9312,note_on,0,0,7,,,,,,,,,6,,,78,108
9312,note_on,2,0,8,,,,,,,,,7,,,55,108
9358,note_on,46,0,6,,,,,,,,,5,,,74,0
9358,note_on,46,0,7,,,,,,,,,6,,,74,0
9358,note_on,0,0,7,,,,,,,,,6,,,78,0
9358,note_on,0,0,6,,,,,,,,,5,,,78,0
9358,note_on,0,0,5,,,,,,,,,4,,,78,0
9358,note_on,46,0,5,,,,,,,,,4,,,74,0
9360,note_on,2,0,6,,,,,,,,,5,,,71,108
9360,note_on,2,0,5,,,,,,,,,4,,,71,108
9360,note_on,2,0,7,,,,,,,,,6,,,71,108
9406,note_on,94,0,8,,,,,,,,,7,,,55,0
9406,note_on,46,0,6,,,,,,,,,5,,,71,0
9406,note_on,46,0,5,,,,,,,,,4,,,71,0
9406,note_on,46,0,7,,,,,,,,,6,,,71,0
9408,note_on,2,0,8,,,,,,,,,7,,,43,108
9408,note_on,2,0,5,,,,,,,,,4,,,74,108
9408,note_on,0,0,5,,,,,,,,,4,,,78,108
9408,note_on,2,0,7,,,,,,,,,6,,,74,108
9408,note_on,0,0,7,,,,,,,,,6,,,78,108
9408,note_on,2,0,6,,,,,,,,,5,,,74,108
9408,note_on,0,0,6,,,,,,,,,5,,,78,108
9454,note_on,46,0,5,,,,,,,,,4,,,74,0
9454,note_on,0,0,5,,,,,,,,,4,,,78,0
9454,note_on,46,0,7,,,,,,,,,6,,,74,0
9454,note_on,0,0,7,,,,,,,,,6,,,78,0
9454,note_on,0,0,6,,,,,,,,,5,,,78,0
9454,note_on,46,0,6,,,,,,,,,5,,,74,0
9456,note_on,2,0,5,,,,,,,,,4,,,71,108
9456,note_on,2,0,6,,,,,,,,,5,,,71,108
9456,note_on,2,0,7,,,,,,,,,6,,,71,108
9502,note_on,94,0,8,,,,,,,,,7,,,43,0
9502,note_on,46,0,5,,,,,,,,,4,,,71,0
9502,note_on,46,0,6,,,,,,,,,5,,,71,0
9502,note_on,46,0,7,,,,,,,,,6,,,71,0
9504,note_on,2,0,7,,,,,,,,,6,,,74,108
9504,note_on,0,0,7,,,,,,,,,6,,,78,108
9504,note_on,2,0,5,,,,,,,,,4,,,74,108
9504,note_on,0,0,5,,,,,,,,,4,,,78,108
9504,note_on,2,0,8,,,,,,,,,7,,,43,108
9504,note_on,0,0,6,,,,,,,,,5,,,78,108
9504,note_on,2,0,6,,,,,,,,,5,,,74,108
9550,note_on,46,0,7,,,,,,,,,6,,,74,0
9550,note_on,0,0,6,,,,,,,,,5,,,78,0
9550,note_on,46,0,6,,,,,,,,,5,,,74,0
9550,note_on,46,0,5,,,,,,,,,4,,,74,0
9550,note_on,0,0,5,,,,,,,,,4,,,78,0
9550,note_on,0,0,7,,,,,,,,,6,,,78,0
9552,note_on,2,0,7,,,,,,,,,6,,,71,108
9552,note_on,2,0,5,,,,,,,,,4,,,71,108
9552,note_on,2,0,6,,,,,,,,,5,,,71,108
9598,note_on,46,0,5,,,,,,,,,4,,,71,0
9598,note_on,94,0,8,,,,,,,,,7,,,43,0
9598,note_on,46,0,7,,,,,,,,,6,,,71,0
9598,note_on,46,0,6,,,,,,,,,5,,,71,0
9600,note_on,2,0,6,,,,,,,,,5,,,71,108
9600,note_on,2,0,8,,,,,,,,,7,,,43,108
9600,note_on,2,0,7,,,,,,,,,6,,,71,108
9600,note_on,0,0,6,,,,,,,,,5,,,76,108
9600,note_on,0,0,7,,,,,,,,,6,,,76,108
9600,note_on,2,0,5,,,,,,,,,4,,,71,108
9600,note_on,0,0,5,,,,,,,,,4,,,76,108
9646,note_on,46,0,7,,,,,,,,,6,,,71,0
9646,note_on,46,0,5,,,,,,,,,4,,,71,0
9646,note_on,0,0,5,,,,,,,,,4,,,76,0
9646,note_on,0,0,7,,,,,,,,,6,,,76,0
9646,note_on,46,0,6,,,,,,,,,5,,,71,0
9646,note_on,0,0,6,,,,,,,,,5,,,76,0
9648,note_on,2,0,6,,,,,,,,,5,,,67,108
9648,note_on,2,0,7,,,,,,,,,6,,,67,108
9648,note_on,2,0,5,,,,,,,,,4,,,67,108
9694,note_on,46,0,7,,,,,,,,,6,,,67,0
9694,note_on,46,0,6,,,,,,,,,5,,,67,0
9694,note_on,94,0,8,,,,,,,,,7,,,43,0
9694,note_on,46,0,5,,,,,,,,,4,,,67,0
9696,note_on,2,0,5,,,,,,,,,4,,,71,108
9696,note_on,0,0,6,,,,,,,,,5,,,76,108
9696,note_on,2,0,7,,,,,,,,,6,,,71,108
9696,note_on,2,0,6,,,,,,,,,5,,,71,108
9696,note_on,0,0,5,,,,,,,,,4,,,76,108
9696,note_on,2,0,8,,,,,,,,,7,,,55,108
9696,note_on,0,0,7,,,,,,,,,6,,,76,108
9742,note_on,46,0,5,,,,,,,,,4,,,71,0
9742,note_on,0,0,7,,,,,,,,,6,,,76,0
9742,note_on,0,0,6,,,,,,,,,5,,,76,0
9742,note_on,0,0,5,,,,,,,,,4,,,76,0
9742,note_on,46,0,7,,,,,,,,,6,,,71,0
9742,note_on,46,0,6,,,,,,,,,5,,,71,0
9744,note_on,2,0,7,,,,,,,,,6,,,67,108
9744,note_on,2,0,6,,,,,,,,,5,,,67,108
9744,note_on,2,0,5,,,,,,,,,4,,,67,108
9790,note_on,46,0,6,,,,,,,,,5,,,67,0
9790,note_on,94,0,8,,,,,,,,,7,,,55,0
9790,note_on,46,0,7,,,,,,,,,6,,,67,0
9790,note_on,46,0,5,,,,,,,,,4,,,67,0
9792,note_on,2,0,5,,,,,,,,,4,,,71,108
9792,note_on,0,0,5,,,,,,,,,4,,,76,108
9792,note_on,2,0,6,,,,,,,,,5,,,71,108
9792,note_on,2,0,8,,,,,,,,,7,,,43,108
9792,note_on,2,0,7,,,,,,,,,6,,,71,108
9792,note_on,0,0,6,,,,,,,,,5,,,76,108
9792,note_on,0,0,7,,,,,,,,,6,,,76,108
9838,note_on,46,0,7,,,,,,,,,6,,,71,0
9838,note_on,46,0,6,,,,,,,,,5,,,71,0
9838,note_on,0,0,6,,,,,,,,,5,,,76,0
9838,note_on,0,0,5,,,,,,,,,4,,,76,0
9838,note_on,46,0,5,,,,,,,,,4,,,71,0
9838,note_on,0,0,7,,,,,,,,,6,,,76,0
9840,note_on,2,0,6,,,,,,,,,5,,,67,108
9840,note_on,2,0,5,,,,,,,,,4,,,67,108
9840,note_on,2,0,7,,,,,,,,,6,,,67,108
9886,note_on,46,0,5,,,,,,,,,4,,,67,0
9886,note_on,46,0,7,,,,,,,,,6,,,67,0
9886,note_on,46,0,6,,,,,,,,,5,,,67,0
9886,note_on,94,0,8,,,,,,,,,7,,,43,0
9888,note_on,2,0,6,,,,,,,,,5,,,71,108
9888,note_on,0,0,6,,,,,,,,,5,,,76,108
9888,note_on,0,0,7,,,,,,,,,6,,,76,108
9888,note_on,2,0,7,,,,,,,,,6,,,71,108
9888,note_on,2,0,8,,,,,,,,,7,,,43,108
9888,note_on,0,0,5,,,,,,,,,4,,,76,108
9888,note_on,2,0,5,,,,,,,,,4,,,71,108
9934,note_on,46,0,5,,,,,,,,,4,,,71,0
9934,note_on,0,0,7,,,,,,,,,6,,,76,0
9934,note_on,46,0,7,,,,,,,,,6,,,71,0
9934,note_on,46,0,6,,,,,,,,,5,,,71,0
9934,note_on,0,0,5,,,,,,,,,4,,,76,0
9934,note_on,0,0,6,,,,,,,,,5,,,76,0
9936,note_on,2,0,5,,,,,,,,,4,,,67,108
9936,note_on,2,0,7,,,,,,,,,6,,,67,108
9936,note_on,2,0,6,,,,,,,,,5,,,67,108
9982,note_on,46,0,6,,,,,,,,,5,,,67,0
9982,note_on,94,0,8,,,,,,,,,7,,,43,0
9982,note_on,46,0,7,,,,,,,,,6,,,67,0
9982,note_on,46,0,5,,,,,,,,,4,,,67,0
9984,note_on,0,0,5,,,,,,,,,4,,,76,108
9984,note_on,2,0,6,,,,,,,,,5,,,73,108
9984,note_on,2,0,7,,,,,,,,,6,,,73,108
9984,note_on,0,0,7,,,,,,,,,6,,,76,108
9984,note_on,2,0,8,,,,,,,,,7,,,45,108
9984,note_on,2,0,5,,,,,,,,,4,,,73,108
9984,note_on,0,0,6,,,,,,,,,5,,,76,108
10030,note_on,0,0,6,,,,,,,,,5,,,76,0
10030,note_on,46,0,5,,,,,,,,,4,,,73,0
10030,note_on,0,0,5,,,,,,,,,4,,,76,0
10030,note_on,46,0,6,,,,,,,,,5,,,73,0
10030,note_on,46,0,7,,,,,,,,,6,,,73,0
10030,note_on,0,0,7,,,,,,,,,6,,,76,0
10032,note_on,2,0,7,,,,,,,,,6,,,67,108
10032,note_on,2,0,5,,,,,,,,,4,,,67,108
10032,note_on,2,0,6,,,,,,,,,5,,,67,108
10078,note_on,46,0,7,,,,,,,,,6,,,67,0
10078,note_on,94,0,8,,,,,,,,,7,,,45,0
10078,note_on,46,0,6,,,,,,,,,5,,,67,0
10078,note_on,46,0,5,,,,,,,,,4,,,67,0
10080,note_on,0,0,6,,,,,,,,,5,,,76,108
10080,note_on,0,0,7,,,,,,,,,6,,,76,108
10080,note_on,2,0,7,,,,,,,,,6,,,73,108
10080,note_on,2,0,6,,,,,,,,,5,,,73,108
10080,note_on,2,0,8,,,,,,,,,7,,,57,108
10080,note_on,2,0,5,,,,,,,,,4,,,73,108
10080,note_on,0,0,5,,,,,,,,,4,,,76,108
10126,note_on,46,0,6,,,,,,,,,5,,,73,0
10126,note_on,46,0,5,,,,,,,,,4,,,73,0
10126,note_on,0,0,5,,,,,,,,,4,,,76,0
10126,note_on,46,0,7,,,,,,,,,6,,,73,0
10126,note_on,0,0,7,,,,,,,,,6,,,76,0
10126,note_on,0,0,6,,,,,,,,,5,,,76,0
10128,note_on,2,0,6,,,,,,,,,5,,,67,108
10128,note_on,2,0,7,,,,,,,,,6,,,67,108
10128,note_on,2,0,5,,,,,,,,,4,,,67,108
10174,note_on,46,0,7,,,,,,,,,6,,,67,0
10174,note_on,46,0,5,,,,,,,,,4,,,67,0
10174,note_on,46,0,6,,,,,,,,,5,,,67,0
10174,note_on,94,0,8,,,,,,,,,7,,,57,0
10176,note_on,2,0,5,,,,,,,,,4,,,73,108
10176,note_on,0,0,7,,,,,,,,,6,,,76,108
10176,note_on,2,0,7,,,,,,,,,6,,,73,108
10176,note_on,2,0,8,,,,,,,,,7,,,45,108
10176,note_on,2,0,6,,,,,,,,,5,,,73,108
10176,note_on,0,0,5,,,,,,,,,4,,,76,108
10176,note_on,0,0,6,,,,,,,,,5,,,76,108
10222,note_on,46,0,7,,,,,,,,,6,,,73,0
10222,note_on,46,0,6,,,,,,,,,5,,,73,0
10222,note_on,0,0,6,,,,,,,,,5,,,76,0
10222,note_on,0,0,5,,,,,,,,,4,,,76,0
10222,note_on,46,0,5,,,,,,,,,4,,,73,0
10222,note_on,0,0,7,,,,,,,,,6,,,76,0
10224,note_on,2,0,6,,,,,,,,,5,,,67,108
10224,note_on,2,0,5,,,,,,,,,4,,,67,108
10224,note_on,2,0,7,,,,,,,,,6,,,67,108
10270,note_on,46,0,6,,,,,,,,,5,,,67,0
10270,note_on,94,0,8,,,,,,,,,7,,,45,0
10270,note_on,46,0,5,,,,,,,,,4,,,67,0
10270,note_on,46,0,7,,,,,,,,,6,,,67,0
10272,note_on,2,0,7,,,,,,,,,6,,,73,108
10272,note_on,0,0,7,,,,,,,,,6,,,76,108
10272,note_on,2,0,8,,,,,,,,,7,,,45,108
10272,note_on,0,0,6,,,,,,,,,5,,,76,108
10272,note_on,2,0,6,,,,,,,,,5,,,73,108
10272,note_on,2,0,5,,,,,,,,,4,,,73,108
10272,note_on,0,0,5,,,,,,,,,4,,,76,108
10318,note_on,46,0,7,,,,,,,,,6,,,73,0
10318,note_on,0,0,7,,,,,,,,,6,,,76,0
10318,note_on,0,0,6,,,,,,,,,5,,,76,0
10318,note_on,46,0,6,,,,,,,,,5,,,73,0
10318,note_on,46,0,5,,,,,,,,,4,,,73,0
10318,note_on,0,0,5,,,,,,,,,4,,,76,0
10320,note_on,2,0,6,,,,,,,,,5,,,67,108
10320,note_on,2,0,5,,,,,,,,,4,,,67,108
10320,note_on,2,0,7,,,,,,,,,6,,,67,108
10366,note_on,46,0,5,,,,,,,,,4,,,67,0
10366,note_on,94,0,8,,,,,,,,,7,,,45,0
10366,note_on,46,0,6,,,,,,,,,5,,,67,0
10366,note_on,46,0,7,,,,,,,,,6,,,67,0
10368,note_on,2,0,7,,,,,,,,,6,,,76,108
10368,note_on,0,0,7,,,,,,,,,6,,,79,108
10368,note_on,0,0,5,,,,,,,,,4,,,79,108
10368,note_on,2,0,5,,,,,,,,,4,,,76,108
10368,note_on,2,0,8,,,,,,,,,7,,,45,108
10368,note_on,0,0,6,,,,,,,,,5,,,79,108
10368,note_on,2,0,6,,,,,,,,,5,,,76,108
10414,note_on,46,0,5,,,,,,,,,4,,,76,0
10414,note_on,0,0,5,,,,,,,,,4,,,79,0
10414,note_on,0,0,7,,,,,,,,,6,,,79,0
10414,note_on,0,0,6,,,,,,,,,5,,,79,0
10414,note_on,46,0,6,,,,,,,,,5,,,76,0
10414,note_on,46,0,7,,,,,,,,,6,,,76,0
10416,note_on,2,0,5,,,,,,,,,4,,,73,108
10416,note_on,2,0,6,,,,,,,,,5,,,73,108
10416,note_on,2,0,7,,,,,,,,,6,,,73,108
10462,note_on,94,0,8,,,,,,,,,7,,,45,0
10462,note_on,46,0,5,,,,,,,,,4,,,73,0
10462,note_on,46,0,7,,,,,,,,,6,,,73,0
10462,note_on,46,0,6,,,,,,,,,5,,,73,0
10464,note_on,2,0,6,,,,,,,,,5,,,76,108
10464,note_on,0,0,6,,,,,,,,,5,,,79,108
10464,note_on,2,0,5,,,,,,,,,4,,,76,108
10464,note_on,0,0,5,,,,,,,,,4,,,79,108
10464,note_on,2,0,7,,,,,,,,,6,,,76,108
10464,note_on,2,0,8,,,,,,,,,7,,,57,108
10464,note_on,0,0,7,,,,,,,,,6,,,79,108
10510,note_on,0,0,7,,,,,,,,,6,,,79,0
10510,note_on,46,0,7,,,,,,,,,6,,,76,0
10510,note_on,0,0,6,,,,,,,,,5,,,79,0
10510,note_on,0,0,5,,,,,,,,,4,,,79,0
10510,note_on,46,0,5,,,,,,,,,4,,,76,0
10510,note_on,46,0,6,,,,,,,,,5,,,76,0
10512,note_on,2,0,6,,,,,,,,,5,,,73,108
10512,note_on,2,0,7,,,,,,,,,6,,,73,108
10512,note_on,2,0,5,,,,,,,,,4,,,73,108
10558,note_on,46,0,5,,,,,,,,,4,,,73,0
10558,note_on,94,0,8,,,,,,,,,7,,,57,0
10558,note_on,46,0,7,,,,,,,,,6,,,73,0
10558,note_on,46,0,6,,,,,,,,,5,,,73,0
10560,note_on,2,0,8,,,,,,,,,7,,,45,108
10560,note_on,0,0,5,,,,,,,,,4,,,79,108
10560,note_on,2,0,5,,,,,,,,,4,,,76,108
10560,note_on,0,0,6,,,,,,,,,5,,,79,108
10560,note_on,2,0,6,,,,,,,,,5,,,76,108
10560,note_on,2,0,7,,,,,,,,,6,,,76,108
10560,note_on,0,0,7,,,,,,,,,6,,,79,108
10606,note_on,46,0,5,,,,,,,,,4,,,76,0
10606,note_on,0,0,5,,,,,,,,,4,,,79,0
10606,note_on,0,0,6,,,,,,,,,5,,,79,0
10606,note_on,46,0,6,,,,,,,,,5,,,76,0
10606,note_on,0,0,7,,,,,,,,,6,,,79,0
10606,note_on,46,0,7,,,,,,,,,6,,,76,0
10608,note_on,2,0,5,,,,,,,,,4,,,73,108
10608,note_on,2,0,6,,,,,,,,,5,,,73,108
10608,note_on,2,0,7,,,,,,,,,6,,,73,108
10654,note_on,46,0,5,,,,,,,,,4,,,73,0
10654,note_on,46,0,7,,,,,,,,,6,,,73,0
10654,note_on,94,0,8,,,,,,,,,7,,,45,0
10654,note_on,46,0,6,,,,,,,,,5,,,73,0
10656,note_on,0,0,5,,,,,,,,,4,,,79,108
10656,note_on,2,0,6,,,,,,,,,5,,,76,108
10656,note_on,0,0,6,,,,,,,,,5,,,79,108
10656,note_on,0,0,7,,,,,,,,,6,,,79,108
10656,note_on,2,0,5,,,,,,,,,4,,,76,108
10656,note_on,2,0,7,,,,,,,,,6,,,76,108
10656,note_on,2,0,8,,,,,,,,,7,,,45,108
10702,note_on,46,0,7,,,,,,,,,6,,,76,0
10702,note_on,0,0,6,,,,,,,,,5,,,79,0
10702,note_on,0,0,7,,,,,,,,,6,,,79,0
10702,note_on,46,0,5,,,,,,,,,4,,,76,0
10702,note_on,0,0,5,,,,,,,,,4,,,79,0
10702,note_on,46,0,6,,,,,,,,,5,,,76,0
10704,note_on,2,0,5,,,,,,,,,4,,,73,108
10704,note_on,2,0,6,,,,,,,,,5,,,73,108
10704,note_on,2,0,7,,,,,,,,,6,,,73,108
10750,note_on,46,0,6,,,,,,,,,5,,,73,0
10750,note_on,46,0,5,,,,,,,,,4,,,73,0
10750,note_on,46,0,7,,,,,,,,,6,,,73,0
10750,note_on,94,0,8,,,,,,,,,7,,,45,0
10752,note_on,0,0,5,,,,,,,,,4,,,73,108
10752,note_on,2,0,5,,,,,,,,,4,,,67,108
10752,note_on,0,0,7,,,,,,,,,6,,,73,108
10752,note_on,2,0,7,,,,,,,,,6,,,67,108
10752,note_on,2,0,6,,,,,,,,,5,,,67,108
10752,note_on,0,0,6,,,,,,,,,5,,,73,108
10752,note_on,2,0,8,,,,,,,,,7,,,45,108
10798,note_on,46,0,7,,,,,,,,,6,,,67,0
10798,note_on,0,0,7,,,,,,,,,6,,,73,0
10798,note_on,0,0,5,,,,,,,,,4,,,73,0
10798,note_on,46,0,5,,,,,,,,,4,,,67,0
10798,note_on,0,0,6,,,,,,,,,5,,,73,0
10798,note_on,46,0,6,,,,,,,,,5,,,67,0
10800,note_on,2,0,6,,,,,,,,,5,,,64,108
10800,note_on,2,0,5,,,,,,,,,4,,,64,108
10800,note_on,2,0,7,,,,,,,,,6,,,64,108
10846,note_on,46,0,6,,,,,,,,,5,,,64,0
10846,note_on,46,0,5,,,,,,,,,4,,,64,0
10846,note_on,94,0,8,,,,,,,,,7,,,45,0
10846,note_on,46,0,7,,,,,,,,,6,,,64,0
10848,note_on,0,0,6,,,,,,,,,5,,,73,108
10848,note_on,2,0,6,,,,,,,,,5,,,67,108
10848,note_on,2,0,8,,,,,,,,,7,,,57,108
10848,note_on,2,0,7,,,,,,,,,6,,,67,108
10848,note_on,0,0,7,,,,,,,,,6,,,73,108
10848,note_on,0,0,5,,,,,,,,,4,,,73,108
10848,note_on,2,0,5,,,,,,,,,4,,,67,108
10894,note_on,46,0,7,,,,,,,,,6,,,67,0
10894,note_on,0,0,7,,,,,,,,,6,,,73,0
10894,note_on,0,0,5,,,,,,,,,4,,,73,0
10894,note_on,46,0,5,,,,,,,,,4,,,67,0
10894,note_on,0,0,6,,,,,,,,,5,,,73,0
10894,note_on,46,0,6,,,,,,,,,5,,,67,0
10896,note_on,2,0,7,,,,,,,,,6,,,64,108
10896,note_on,2,0,5,,,,,,,,,4,,,64,108
10896,note_on,2,0,6,,,,,,,,,5,,,64,108
10942,note_on,46,0,5,,,,,,,,,4,,,64,0
10942,note_on,46,0,6,,,,,,,,,5,,,64,0
10942,note_on,94,0,8,,,,,,,,,7,,,57,0
10942,note_on,46,0,7,,,,,,,,,6,,,64,0
10944,note_on,0,0,5,,,,,,,,,4,,,73,108
10944,note_on,2,0,5,,,,,,,,,4,,,67,108
10944,note_on,2,0,8,,,,,,,,,7,,,45,108
10944,note_on,2,0,7,,,,,,,,,6,,,67,108
10944,note_on,0,0,7,,,,,,,,,6,,,73,108
10944,note_on,2,0,6,,,,,,,,,5,,,67,108
10944,note_on,0,0,6,,,,,,,,,5,,,73,108
10990,note_on,46,0,7,,,,,,,,,6,,,67,0
10990,note_on,0,0,7,,,,,,,,,6,,,73,0
10990,note_on,46,0,6,,,,,,,,,5,,,67,0
10990,note_on,0,0,6,,,,,,,,,5,,,73,0
10990,note_on,0,0,5,,,,,,,,,4,,,73,0
10990,note_on,46,0,5,,,,,,,,,4,,,67,0
10992,note_on,2,0,6,,,,,,,,,5,,,64,108
10992,note_on,2,0,5,,,,,,,,,4,,,64,108
10992,note_on,2,0,7,,,,,,,,,6,,,64,108
11038,note_on,94,0,8,,,,,,,,,7,,,45,0
11038,note_on,46,0,7,,,,,,,,,6,,,64,0
11038,note_on,46,0,5,,,,,,,,,4,,,64,0
11038,note_on,46,0,6,,,,,,,,,5,,,64,0
11040,note_on,2,0,8,,,,,,,,,7,,,45,108
11040,note_on,2,0,7,,,,,,,,,6,,,67,108
11040,note_on,0,0,7,,,,,,,,,6,,,73,108
11040,note_on,2,0,6,,,,,,,,,5,,,67,108
11040,note_on,0,0,6,,,,,,,,,5,,,73,108
11040,note_on,2,0,5,,,,,,,,,4,,,67,108
11040,note_on,0,0,5,,,,,,,,,4,,,73,108
11086,note_on,0,0,5,,,,,,,,,4,,,73,0
11086,note_on,0,0,7,,,,,,,,,6,,,73,0
11086,note_on,46,0,7,,,,,,,,,6,,,67,0
11086,note_on,46,0,5,,,,,,,,,4,,,67,0
11086,note_on,46,0,6,,,,,,,,,5,,,67,0
11086,note_on,0,0,6,,,,,,,,,5,,,73,0
11088,note_on,2,0,7,,,,,,,,,6,,,64,108
11088,note_on,2,0,5,,,,,,,,,4,,,64,108
11088,note_on,2,0,6,,,,,,,,,5,,,64,108
11134,note_on,46,0,6,,,,,,,,,5,,,64,0
11134,note_on,94,0,8,,,,,,,,,7,,,45,0
11134,note_on,46,0,5,,,,,,,,,4,,,64,0
11134,note_on,46,0,7,,,,,,,,,6,,,64,0
11136,note_on,2,0,6,,,,,,,,,5,,,61,108
11136,note_on,2,0,7,,,,,,,,,6,,,61,108
11136,note_on,0,0,6,,,,,,,,,5,,,64,108
11136,note_on,2,0,8,,,,,,,,,7,,,45,108
11136,note_on,0,0,5,,,,,,,,,4,,,64,108
11136,note_on,2,0,5,,,,,,,,,4,,,61,108
11136,note_on,0,0,7,,,,,,,,,6,,,64,108
11182,note_on,46,0,5,,,,,,,,,4,,,61,0
11182,note_on,46,0,7,,,,,,,,,6,,,61,0
11182,note_on,0,0,7,,,,,,,,,6,,,64,0
11182,note_on,0,0,5,,,,,,,,,4,,,64,0
11182,note_on,46,0,6,,,,,,,,,5,,,61,0
11182,note_on,0,0,6,,,,,,,,,5,,,64,0
11184,note_on,2,0,5,,,,,,,,,4,,,57,108
11184,note_on,2,0,6,,,,,,,,,5,,,57,108
11184,note_on,2,0,7,,,,,,,,,6,,,57,108
11230,note_on,46,0,5,,,,,,,,,4,,,57,0
11230,note_on,94,0,8,,,,,,,,,7,,,45,0
11230,note_on,46,0,6,,,,,,,,,5,,,57,0
11230,note_on,46,0,7,,,,,,,,,6,,,57,0
11232,note_on,2,0,7,,,,,,,,,6,,,61,108
11232,note_on,0,0,7,,,,,,,,,6,,,64,108
11232,note_on,0,0,6,,,,,,,,,5,,,64,108
11232,note_on,2,0,5,,,,,,,,,4,,,61,108
11232,note_on,0,0,5,,,,,,,,,4,,,64,108
11232,note_on,2,0,6,,,,,,,,,5,,,61,108
11232,note_on,2,0,8,,,,,,,,,7,,,57,108
11278,note_on,46,0,5,,,,,,,,,4,,,61,0
11278,note_on,46,0,7,,,,,,,,,6,,,61,0
11278,note_on,0,0,5,,,,,,,,,4,,,64,0
11278,note_on,0,0,7,,,,,,,,,6,,,64,0
11278,note_on,0,0,6,,,,,,,,,5,,,64,0
11278,note_on,46,0,6,,,,,,,,,5,,,61,0
11280,note_on,2,0,5,,,,,,,,,4,,,57,108
11280,note_on,2,0,6,,,,,,,,,5,,,57,108
11280,note_on,2,0,7,,,,,,,,,6,,,57,108
11326,note_on,46,0,5,,,,,,,,,4,,,57,0
11326,note_on,46,0,6,,,,,,,,,5,,,57,0
11326,note_on,46,0,7,,,,,,,,,6,,,57,0
11326,note_on,94,0,8,,,,,,,,,7,,,57,0
11328,note_on,0,0,6,,,,,,,,,5,,,64,108
11328,note_on,2,0,6,,,,,,,,,5,,,61,108
11328,note_on,0,0,7,,,,,,,,,6,,,64,108
11328,note_on,2,0,7,,,,,,,,,6,,,61,108
11328,note_on,2,0,8,,,,,,,,,7,,,45,108
11328,note_on,0,0,5,,,,,,,,,4,,,64,108
11328,note_on,2,0,5,,,,,,,,,4,,,61,108
11374,note_on,0,0,5,,,,,,,,,4,,,64,0
11374,note_on,46,0,5,,,,,,,,,4,,,61,0
11374,note_on,0,0,6,,,,,,,,,5,,,64,0
11374,note_on,46,0,6,,,,,,,,,5,,,61,0
11374,note_on,46,0,7,,,,,,,,,6,,,61,0
11374,note_on,0,0,7,,,,,,,,,6,,,64,0
11376,note_on,2,0,7,,,,,,,,,6,,,57,108
11376,note_on,2,0,6,,,,,,,,,5,,,57,108
11376,note_on,2,0,5,,,,,,,,,4,,,57,108
11422,note_on,46,0,7,,,,,,,,,6,,,57,0
11422,note_on,46,0,5,,,,,,,,,4,,,57,0
11422,note_on,94,0,8,,,,,,,,,7,,,45,0
11422,note_on,46,0,6,,,,,,,,,5,,,57,0
11424,note_on,2,0,6,,,,,,,,,5,,,61,108
11424,note_on,0,0,6,,,,,,,,,5,,,64,108
11424,note_on,0,0,7,,,,,,,,,6,,,64,108
11424,note_on,2,0,7,,,,,,,,,6,,,61,108
11424,note_on,2,0,5,,,,,,,,,4,,,61,108
11424,note_on,2,0,8,,,,,,,,,7,,,45,108
11424,note_on,0,0,5,,,,,,,,,4,,,64,108
11470,note_on,46,0,6,,,,,,,,,5,,,61,0
11470,note_on,0,0,6,,,,,,,,,5,,,64,0
11470,note_on,46,0,5,,,,,,,,,4,,,61,0
11470,note_on,0,0,7,,,,,,,,,6,,,64,0
11470,note_on,46,0,7,,,,,,,,,6,,,61,0
11470,note_on,0,0,5,,,,,,,,,4,,,64,0
11472,note_on,2,0,7,,,,,,,,,6,,,57,108
11472,note_on,2,0,6,,,,,,,,,5,,,57,108
11472,note_on,2,0,5,,,,,,,,,4,,,57,108
11518,note_on,94,0,8,,,,,,,,,7,,,45,0
11518,note_on,46,0,5,,,,,,,,,4,,,57,0
11518,note_on,46,0,6,,,,,,,,,5,,,57,0
11518,note_on,46,0,7,,,,,,,,,6,,,57,0
11520,note_on,0,0,7,,,,,,,,,6,,,55,108
11520,note_on,0,0,5,,,,,,,,,4,,,55,108
11520,note_on,0,0,5,,,,,,,,,4,,,61,108
11520,note_on,2,0,7,,,,,,,,,6,,,52,108
11520,note_on,0,0,6,,,,,,,,,5,,,61,108
11520,note_on,0,0,6,,,,,,,,,5,,,55,108
11520,note_on,2,0,8,,,,,,,,,7,,,45,108
11520,note_on,2,0,6,,,,,,,,,5,,,52,108
11520,note_on,0,0,7,,,,,,,,,6,,,61,108
11520,note_on,2,0,5,,,,,,,,,4,,,52,108
11680,note_on,160,0,5,,,,,,,,,4,,,52,0
11680,note_on,0,0,5,,,,,,,,,4,,,61,0
11680,note_on,0,0,5,,,,,,,,,4,,,55,0
11680,note_on,0,0,6,,,,,,,,,5,,,55,0
11680,note_on,160,0,8,,,,,,,,,7,,,45,0
11680,note_on,0,0,6,,,,,,,,,5,,,61,0
11680,note_on,160,0,6,,,,,,,,,5,,,52,0
11680,note_on,0,0,7,,,,,,,,,6,,,61,0
11680,note_on,0,0,7,,,,,,,,,6,,,55,0
11680,note_on,160,0,7,,,,,,,,,6,,,52,0
12288,note_on,0,0,7,,,,,,,,,6,,,78,108
12288,note_on,0,0,6,,,,,,,,,5,,,81,108
12288,note_on,0,0,6,,,,,,,,,5,,,78,108
12288,note_on,608,0,6,,,,,,,,,5,,,74,108
12288,note_on,0,0,5,,,,,,,,,4,,,81,108
12288,note_on,0,0,5,,,,,,,,,4,,,78,108
12288,note_on,608,0,5,,,,,,,,,4,,,74,108
12288,note_on,0,0,7,,,,,,,,,6,,,81,108
12288,note_on,608,0,7,,,,,,,,,6,,,74,108
12288,note_on,608,0,8,,,,,,,,,7,,,50,108
12334,note_on,0,0,5,,,,,,,,,4,,,81,0
12334,note_on,46,0,7,,,,,,,,,6,,,74,0
12334,note_on,0,0,7,,,,,,,,,6,,,78,0
12334,note_on,0,0,7,,,,,,,,,6,,,81,0
12334,note_on,46,0,6,,,,,,,,,5,,,74,0
12334,note_on,46,0,5,,,,,,,,,4,,,74,0
12334,note_on,0,0,5,,,,,,,,,4,,,78,0
12334,note_on,0,0,6,,,,,,,,,5,,,78,0
12334,note_on,0,0,6,,,,,,,,,5,,,81,0
12336,note_on,2,0,7,,,,,,,,,6,,,69,108
12336,note_on,2,0,5,,,,,,,,,4,,,69,108
12336,note_on,2,0,6,,,,,,,,,5,,,69,108
12382,note_on,46,0,5,,,,,,,,,4,,,69,0
12382,note_on,46,0,7,,,,,,,,,6,,,69,0
12382,note_on,94,0,8,,,,,,,,,7,,,50,0
12382,note_on,46,0,6,,,,,,,,,5,,,69,0
12384,note_on,2,0,6,,,,,,,,,5,,,74,108
12384,note_on,2,0,7,,,,,,,,,6,,,74,108
12384,note_on,0,0,5,,,,,,,,,4,,,78,108
12384,note_on,2,0,5,,,,,,,,,4,,,74,108
12384,note_on,0,0,6,,,,,,,,,5,,,78,108
12384,note_on,0,0,5,,,,,,,,,4,,,81,108
12384,note_on,0,0,7,,,,,,,,,6,,,81,108
12384,note_on,0,0,7,,,,,,,,,6,,,78,108
12384,note_on,2,0,8,,,,,,,,,7,,,62,108
12384,note_on,0,0,6,,,,,,,,,5,,,81,108
12430,note_on,0,0,6,,,,,,,,,5,,,81,0
12430,note_on,0,0,5,,,,,,,,,4,,,78,0
12430,note_on,0,0,6,,,,,,,,,5,,,78,0
12430,note_on,46,0,7,,,,,,,,,6,,,74,0
12430,note_on,0,0,5,,,,,,,,,4,,,81,0
12430,note_on,0,0,7,,,,,,,,,6,,,81,0
12430,note_on,0,0,7,,,,,,,,,6,,,78,0
12430,note_on,46,0,5,,,,,,,,,4,,,74,0
12430,note_on,46,0,6,,,,,,,,,5,,,74,0
12432,note_on,2,0,5,,,,,,,,,4,,,69,108
12432,note_on,2,0,6,,,,,,,,,5,,,69,108
12432,note_on,2,0,7,,,,,,,,,6,,,69,108
12478,note_on,46,0,5,,,,,,,,,4,,,69,0
12478,note_on,46,0,7,,,,,,,,,6,,,69,0
12478,note_on,94,0,8,,,,,,,,,7,,,62,0
12478,note_on,46,0,6,,,,,,,,,5,,,69,0
12480,note_on,0,0,5,,,,,,,,,4,,,78,108
12480,note_on,2,0,8,,,,,,,,,7,,,50,108
12480,note_on,2,0,5,,,,,,,,,4,,,74,108
12480,note_on,0,0,5,,,,,,,,,4,,,81,108
12480,note_on,0,0,7,,,,,,,,,6,,,81,108
12480,note_on,0,0,7,,,,,,,,,6,,,78,108
12480,note_on,2,0,7,,,,,,,,,6,,,74,108
12480,note_on,2,0,6,,,,,,,,,5,,,74,108
12480,note_on,0,0,6,,,,,,,,,5,,,78,108
12480,note_on,0,0,6,,,,,,,,,5,,,81,108
12526,note_on,0,0,6,,,,,,,,,5,,,78,0
12526,note_on,0,0,5,,,,,,,,,4,,,81,0
12526,note_on,0,0,6,,,,,,,,,5,,,81,0
12526,note_on,46,0,6,,,,,,,,,5,,,74,0
12526,note_on,0,0,7,,,,,,,,,6,,,81,0
12526,note_on,0,0,7,,,,,,,,,6,,,78,0
12526,note_on,46,0,5,,,,,,,,,4,,,74,0
12526,note_on,0,0,5,,,,,,,,,4,,,78,0
12526,note_on,46,0,7,,,,,,,,,6,,,74,0
12528,note_on,2,0,6,,,,,,,,,5,,,69,108
12528,note_on,2,0,7,,,,,,,,,6,,,69,108
12528,note_on,2,0,5,,,,,,,,,4,,,69,108
12574,note_on,46,0,7,,,,,,,,,6,,,69,0
12574,note_on,94,0,8,,,,,,,,,7,,,50,0
12574,note_on,46,0,5,,,,,,,,,4,,,69,0
12574,note_on,46,0,6,,,,,,,,,5,,,69,0
12576,note_on,2,0,7,,,,,,,,,6,,,74,108
12576,note_on,0,0,7,,,,,,,,,6,,,78,108
12576,note_on,0,0,7,,,,,,,,,6,,,81,108
12576,note_on,2,0,8,,,,,,,,,7,,,50,108
12576,note_on,2,0,5,,,,,,,,,4,,,74,108
12576,note_on,0,0,6,,,,,,,,,5,,,81,108
12576,note_on,0,0,5,,,,,,,,,4,,,81,108
12576,note_on,0,0,6,,,,,,,,,5,,,78,108
12576,note_on,2,0,6,,,,,,,,,5,,,74,108
12576,note_on,0,0,5,,,,,,,,,4,,,78,108
12622,note_on,0,0,5,,,,,,,,,4,,,81,0
12622,note_on,46,0,6,,,,,,,,,5,,,74,0
12622,note_on,0,0,5,,,,,,,,,4,,,78,0
12622,note_on,0,0,6,,,,,,,,,5,,,78,0
12622,note_on,0,0,7,,,,,,,,,6,,,78,0
12622,note_on,0,0,7,,,,,,,,,6,,,81,0
12622,note_on,46,0,5,,,,,,,,,4,,,74,0
12622,note_on,46,0,7,,,,,,,,,6,,,74,0
12622,note_on,0,0,6,,,,,,,,,5,,,81,0
12624,note_on,2,0,5,,,,,,,,,4,,,69,108
12624,note_on,2,0,7,,,,,,,,,6,,,69,108
12624,note_on,2,0,6,,,,,,,,,5,,,69,108
12670,note_on,46,0,5,,,,,,,,,4,,,69,0
12670,note_on,94,0,8,,,,,,,,,7,,,50,0
12670,note_on,46,0,7,,,,,,,,,6,,,69,0
12670,note_on,46,0,6,,,,,,,,,5,,,69,0
12672,note_on,0,0,6,,,,,,,,,5,,,81,108
12672,note_on,0,0,6,,,,,,,,,5,,,76,108
12672,note_on,2,0,6,,,,,,,,,5,,,74,108
12672,note_on,0,0,7,,,,,,,,,6,,,81,108
12672,note_on,2,0,8,,,,,,,,,7,,,45,108
12672,note_on,0,0,5,,,,,,,,,4,,,81,108
12672,note_on,0,0,5,,,,,,,,,4,,,76,108
12672,note_on,2,0,5,,,,,,,,,4,,,74,108
12672,note_on,2,0,7,,,,,,,,,6,,,74,108
12672,note_on,0,0,7,,,,,,,,,6,,,76,108
12718,note_on,0,0,6,,,,,,,,,5,,,76,0
12718,note_on,0,0,7,,,,,,,,,6,,,76,0
12718,note_on,0,0,7,,,,,,,,,6,,,81,0
12718,note_on,46,0,6,,,,,,,,,5,,,74,0
12718,note_on,46,0,7,,,,,,,,,6,,,74,0
12718,note_on,0,0,6,,,,,,,,,5,,,81,0
12718,note_on,0,0,5,,,,,,,,,4,,,81,0
12718,note_on,0,0,5,,,,,,,,,4,,,76,0
12718,note_on,46,0,5,,,,,,,,,4,,,74,0
12720,note_on,2,0,7,,,,,,,,,6,,,69,108
12720,note_on,2,0,5,,,,,,,,,4,,,69,108
12720,note_on,2,0,6,,,,,,,,,5,,,69,108
12766,note_on,46,0,7,,,,,,,,,6,,,69,0
12766,note_on,46,0,5,,,,,,,,,4,,,69,0
12766,note_on,94,0,8,,,,,,,,,7,,,45,0
12766,note_on,46,0,6,,,,,,,,,5,,,69,0
12768,note_on,2,0,6,,,,,,,,,5,,,74,108
12768,note_on,0,0,6,,,,,,,,,5,,,76,108
12768,note_on,0,0,6,,,,,,,,,5,,,81,108
12768,note_on,0,0,5,,,,,,,,,4,,,81,108
12768,note_on,2,0,5,,,,,,,,,4,,,74,108
12768,note_on,2,0,8,,,,,,,,,7,,,57,108
12768,note_on,0,0,5,,,,,,,,,4,,,76,108
12768,note_on,2,0,7,,,,,,,,,6,,,74,108
12768,note_on,0,0,7,,,,,,,,,6,,,76,108
12768,note_on,0,0,7,,,,,,,,,6,,,81,108
12814,note_on,46,0,5,,,,,,,,,4,,,74,0
12814,note_on,0,0,5,,,,,,,,,4,,,81,0
12814,note_on,0,0,5,,,,,,,,,4,,,76,0
12814,note_on,46,0,6,,,,,,,,,5,,,74,0
12814,note_on,0,0,6,,,,,,,,,5,,,76,0
12814,note_on,0,0,6,,,,,,,,,5,,,81,0
12814,note_on,46,0,7,,,,,,,,,6,,,74,0
12814,note_on,0,0,7,,,,,,,,,6,,,81,0
12814,note_on,0,0,7,,,,,,,,,6,,,76,0
12816,note_on,2,0,7,,,,,,,,,6,,,69,108
12816,note_on,2,0,5,,,,,,,,,4,,,69,108
12816,note_on,2,0,6,,,,,,,,,5,,,69,108
12862,note_on,46,0,7,,,,,,,,,6,,,69,0
12862,note_on,94,0,8,,,,,,,,,7,,,57,0
12862,note_on,46,0,5,,,,,,,,,4,,,69,0
12862,note_on,46,0,6,,,,,,,,,5,,,69,0
12864,note_on,0,0,5,,,,,,,,,4,,,81,108
12864,note_on,0,0,5,,,,,,,,,4,,,76,108
12864,note_on,2,0,5,,,,,,,,,4,,,74,108
12864,note_on,0,0,6,,,,,,,,,5,,,81,108
12864,note_on,0,0,6,,,,,,,,,5,,,76,108
12864,note_on,2,0,6,,,,,,,,,5,,,74,108
12864,note_on,0,0,7,,,,,,,,,6,,,76,108
12864,note_on,0,0,7,,,,,,,,,6,,,81,108
12864,note_on,2,0,8,,,,,,,,,7,,,45,108
12864,note_on,2,0,7,,,,,,,,,6,,,74,108
12910,note_on,46,0,5,,,,,,,,,4,,,74,0
12910,note_on,0,0,5,,,,,,,,,4,,,76,0
12910,note_on,0,0,5,,,,,,,,,4,,,81,0
12910,note_on,0,0,6,,,,,,,,,5,,,76,0
12910,note_on,46,0,7,,,,,,,,,6,,,74,0
12910,note_on,46,0,6,,,,,,,,,5,,,74,0
12910,note_on,0,0,6,,,,,,,,,5,,,81,0
12910,note_on,0,0,7,,,,,,,,,6,,,76,0
12910,note_on,0,0,7,,,,,,,,,6,,,81,0
12912,note_on,2,0,5,,,,,,,,,4,,,69,108
12912,note_on,2,0,7,,,,,,,,,6,,,69,108
12912,note_on,2,0,6,,,,,,,,,5,,,69,108
12958,note_on,46,0,5,,,,,,,,,4,,,69,0
12958,note_on,46,0,7,,,,,,,,,6,,,69,0
12958,note_on,46,0,6,,,,,,,,,5,,,69,0
12958,note_on,94,0,8,,,,,,,,,7,,,45,0
12960,note_on,2,0,6,,,,,,,,,5,,,74,108
12960,note_on,0,0,6,,,,,,,,,5,,,76,108
12960,note_on,2,0,7,,,,,,,,,6,,,74,108
12960,note_on,0,0,5,,,,,,,,,4,,,81,108
12960,note_on,0,0,5,,,,,,,,,4,,,76,108
12960,note_on,2,0,5,,,,,,,,,4,,,74,108
12960,note_on,0,0,6,,,,,,,,,5,,,81,108
12960,note_on,0,0,7,,,,,,,,,6,,,81,108
12960,note_on,0,0,7,,,,,,,,,6,,,76,108
12960,note_on,2,0,8,,,,,,,,,7,,,45,108
13006,note_on,0,0,7,,,,,,,,,6,,,81,0
13006,note_on,46,0,5,,,,,,,,,4,,,74,0
13006,note_on,0,0,5,,,,,,,,,4,,,81,0
13006,note_on,0,0,5,,,,,,,,,4,,,76,0
13006,note_on,0,0,6,,,,,,,,,5,,,81,0
13006,note_on,46,0,6,,,,,,,,,5,,,74,0
13006,note_on,46,0,7,,,,,,,,,6,,,74,0
13006,note_on,0,0,7,,,,,,,,,6,,,76,0
13006,note_on,0,0,6,,,,,,,,,5,,,76,0
13008,note_on,2,0,5,,,,,,,,,4,,,69,108
13008,note_on,2,0,7,,,,,,,,,6,,,69,108
13008,note_on,2,0,6,,,,,,,,,5,,,69,108
13054,note_on,46,0,7,,,,,,,,,6,,,69,0
13054,note_on,46,0,5,,,,,,,,,4,,,69,0
13054,note_on,94,0,8,,,,,,,,,7,,,45,0
13054,note_on,46,0,6,,,,,,,,,5,,,69,0
13056,note_on,0,0,7,,,,,,,,,6,,,76,108
13056,note_on,0,0,5,,,,,,,,,4,,,81,108
13056,note_on,0,0,5,,,,,,,,,4,,,76,108
13056,note_on,2,0,5,,,,,,,,,4,,,73,108
13056,note_on,2,0,8,,,,,,,,,7,,,45,108
13056,note_on,0,0,6,,,,,,,,,5,,,76,108
13056,note_on,0,0,7,,,,,,,,,6,,,81,108
13056,note_on,0,0,6,,,,,,,,,5,,,81,108
13056,note_on,2,0,7,,,,,,,,,6,,,73,108
13056,note_on,2,0,6,,,,,,,,,5,,,73,108
13102,note_on,46,0,6,,,,,,,,,5,,,73,0
13102,note_on,0,0,5,,,,,,,,,4,,,81,0
13102,note_on,0,0,6,,,,,,,,,5,,,76,0
13102,note_on,0,0,6,,,,,,,,,5,,,81,0
13102,note_on,46,0,5,,,,,,,,,4,,,73,0
13102,note_on,0,0,5,,,,,,,,,4,,,76,0
13102,note_on,46,0,7,,,,,,,,,6,,,73,0
13102,note_on,0,0,7,,,,,,,,,6,,,81,0
13102,note_on,0,0,7,,,,,,,,,6,,,76,0
13104,note_on,2,0,7,,,,,,,,,6,,,69,108
13104,note_on,2,0,5,,,,,,,,,4,,,69,108
13104,note_on,2,0,6,,,,,,,,,5,,,69,108
13150,note_on,94,0,8,,,,,,,,,7,,,45,0
13150,note_on,46,0,7,,,,,,,,,6,,,69,0
13150,note_on,46,0,5,,,,,,,,,4,,,69,0
13150,note_on,46,0,6,,,,,,,,,5,,,69,0
13152,note_on,2,0,7,,,,,,,,,6,,,73,108
13152,note_on,0,0,7,,,,,,,,,6,,,76,108
13152,note_on,0,0,7,,,,,,,,,6,,,81,108
13152,note_on,0,0,6,,,,,,,,,5,,,81,108
13152,note_on,2,0,6,,,,,,,,,5,,,73,108
13152,note_on,0,0,6,,,,,,,,,5,,,76,108
13152,note_on,2,0,8,,,,,,,,,7,,,57,108
13152,note_on,0,0,5,,,,,,,,,4,,,81,108
13152,note_on,0,0,5,,,,,,,,,4,,,76,108
13152,note_on,2,0,5,,,,,,,,,4,,,73,108
13198,note_on,0,0,5,,,,,,,,,4,,,81,0
13198,note_on,46,0,5,,,,,,,,,4,,,73,0
13198,note_on,46,0,7,,,,,,,,,6,,,73,0
13198,note_on,0,0,5,,,,,,,,,4,,,76,0
13198,note_on,0,0,7,,,,,,,,,6,,,76,0
13198,note_on,0,0,6,,,,,,,,,5,,,81,0
13198,note_on,0,0,6,,,,,,,,,5,,,76,0
13198,note_on,46,0,6,,,,,,,,,5,,,73,0
13198,note_on,0,0,7,,,,,,,,,6,,,81,0
13200,note_on,2,0,7,,,,,,,,,6,,,69,108
13200,note_on,2,0,6,,,,,,,,,5,,,69,108
13200,note_on,2,0,5,,,,,,,,,4,,,69,108
13246,note_on,46,0,5,,,,,,,,,4,,,69,0
13246,note_on,46,0,6,,,,,,,,,5,,,69,0
13246,note_on,94,0,8,,,,,,,,,7,,,57,0
13246,note_on,46,0,7,,,,,,,,,6,,,69,0
13248,note_on,2,0,7,,,,,,,,,6,,,73,108
13248,note_on,0,0,7,,,,,,,,,6,,,81,108
13248,note_on,0,0,7,,,,,,,,,6,,,76,108
13248,note_on,0,0,5,,,,,,,,,4,,,81,108
13248,note_on,0,0,6,,,,,,,,,5,,,76,108
13248,note_on,0,0,6,,,,,,,,,5,,,81,108
13248,note_on,2,0,6,,,,,,,,,5,,,73,108
13248,note_on,0,0,5,,,,,,,,,4,,,76,108
13248,note_on,2,0,8,,,,,,,,,7,,,45,108
13248,note_on,2,0,5,,,,,,,,,4,,,73,108
13294,note_on,0,0,6,,,,,,,,,5,,,76,0
13294,note_on,0,0,6,,,,,,,,,5,,,81,0
13294,note_on,0,0,5,,,,,,,,,4,,,76,0
13294,note_on,0,0,5,,,,,,,,,4,,,81,0
13294,note_on,46,0,7,,,,,,,,,6,,,73,0
13294,note_on,0,0,7,,,,,,,,,6,,,76,0
13294,note_on,0,0,7,,,,,,,,,6,,,81,0
13294,note_on,46,0,6,,,,,,,,,5,,,73,0
13294,note_on,46,0,5,,,,,,,,,4,,,73,0
13296,note_on,2,0,5,,,,,,,,,4,,,69,108
13296,note_on,2,0,6,,,,,,,,,5,,,69,108
13296,note_on,2,0,7,,,,,,,,,6,,,69,108
13342,note_on,94,0,8,,,,,,,,,7,,,45,0
13342,note_on,46,0,7,,,,,,,,,6,,,69,0
13342,note_on,46,0,6,,,,,,,,,5,,,69,0
13342,note_on,46,0,5,,,,,,,,,4,,,69,0
13344,note_on,0,0,7,,,,,,,,,6,,,76,108
13344,note_on,2,0,5,,,,,,,,,4,,,73,108
13344,note_on,0,0,5,,,,,,,,,4,,,76,108
13344,note_on,2,0,7,,,,,,,,,6,,,73,108
13344,note_on,0,0,6,,,,,,,,,5,,,81,108
13344,note_on,0,0,5,,,,,,,,,4,,,81,108
13344,note_on,0,0,7,,,,,,,,,6,,,81,108
13344,note_on,2,0,8,,,,,,,,,7,,,45,108
13344,note_on,2,0,6,,,,,,,,,5,,,73,108
13344,note_on,0,0,6,,,,,,,,,5,,,76,108
13390,note_on,46,0,5,,,,,,,,,4,,,73,0
13390,note_on,0,0,5,,,,,,,,,4,,,76,0
13390,note_on,0,0,5,,,,,,,,,4,,,81,0
13390,note_on,0,0,7,,,,,,,,,6,,,76,0
13390,note_on,0,0,6,,,,,,,,,5,,,81,0
13390,note_on,0,0,6,,,,,,,,,5,,,76,0
13390,note_on,46,0,6,,,,,,,,,5,,,73,0
13390,note_on,46,0,7,,,,,,,,,6,,,73,0
13390,note_on,0,0,7,,,,,,,,,6,,,81,0
13392,note_on,2,0,6,,,,,,,,,5,,,69,108
13392,note_on,2,0,7,,,,,,,,,6,,,69,108
13392,note_on,2,0,5,,,,,,,,,4,,,69,108
13438,note_on,46,0,6,,,,,,,,,5,,,69,0
13438,note_on,46,0,7,,,,,,,,,6,,,69,0
13438,note_on,46,0,5,,,,,,,,,4,,,69,0
13438,note_on,94,0,8,,,,,,,,,7,,,45,0
13440,note_on,13440,0,1,,,,,,,,,0,,,74,108
13440,note_on,13440,0,2,,,,,,,,,1,,,66,108
13440,note_on,2,0,5,,,,,,,,,4,,,69,108
13440,note_on,0,0,5,,,,,,,,,4,,,74,108
13440,note_on,2,0,6,,,,,,,,,5,,,69,108
13440,note_on,13440,0,3,,,,,,,,,2,,,57,108
13440,note_on,13440,0,4,,,,,,,,,3,,,50,108
13440,note_on,0,0,6,,,,,,,,,5,,,78,108
13440,note_on,0,0,6,,,,,,,,,5,,,74,108
13440,note_on,0,0,7,,,,,,,,,6,,,78,108
13440,note_on,0,0,7,,,,,,,,,6,,,74,108
13440,note_on,2,0,7,,,,,,,,,6,,,69,108
13440,note_on,0,0,5,,,,,,,,,4,,,78,108
13440,note_on,2,0,8,,,,,,,,,7,,,50,108
13534,note_on,94,0,8,,,,,,,,,7,,,50,0
13534,note_on,0,0,6,,,,,,,,,5,,,78,0
13534,note_on,94,0,6,,,,,,,,,5,,,69,0
13534,note_on,0,0,6,,,,,,,,,5,,,74,0
13534,note_on,0,0,7,,,,,,,,,6,,,74,0
13534,note_on,0,0,7,,,,,,,,,6,,,78,0
13534,note_on,0,0,5,,,,,,,,,4,,,78,0
13534,note_on,0,0,5,,,,,,,,,4,,,74,0
13534,note_on,94,0,5,,,,,,,,,4,,,69,0
13534,note_on,94,0,7,,,,,,,,,6,,,69,0
13536,note_on,2,0,5,,,,,,,,,4,,,74,108
13536,note_on,2,0,6,,,,,,,,,5,,,74,108
13536,note_on,2,0,7,,,,,,,,,6,,,74,108
13536,note_on,2,0,8,,,,,,,,,7,,,62,108
13582,note_on,142,0,4,,,,,,,,,3,,,50,0
13582,note_on,142,0,3,,,,,,,,,2,,,57,0
13582,note_on,142,0,2,,,,,,,,,1,,,66,0
13582,note_on,142,0,1,,,,,,,,,0,,,74,0
13584,note_on,2,0,1,,,,,,,,,0,,,74,108
13584,note_on,2,0,2,,,,,,,,,1,,,66,108
13584,note_on,2,0,4,,,,,,,,,3,,,50,108
13584,note_on,2,0,3,,,,,,,,,2,,,57,108
13630,note_on,46,0,2,,,,,,,,,1,,,66,0
13630,note_on,94,0,5,,,,,,,,,4,,,74,0
13630,note_on,46,0,3,,,,,,,,,2,,,57,0
13630,note_on,94,0,8,,,,,,,,,7,,,62,0
13630,note_on,46,0,1,,,,,,,,,0,,,74,0
13630,note_on,46,0,4,,,,,,,,,3,,,50,0
13630,note_on,94,0,6,,,,,,,,,5,,,74,0
13630,note_on,94,0,7,,,,,,,,,6,,,74,0
13632,note_on,2,0,8,,,,,,,,,7,,,50,108
13632,note_on,2,0,4,,,,,,,,,3,,,50,108
13632,note_on,2,0,3,,,,,,,,,2,,,57,108
13632,note_on,2,0,2,,,,,,,,,1,,,66,108
13632,note_on,2,0,5,,,,,,,,,4,,,62,108
13632,note_on,2,0,6,,,,,,,,,5,,,62,108
13632,note_on,2,0,7,,,,,,,,,6,,,62,108
13632,note_on,2,0,1,,,,,,,,,0,,,74,108
13726,note_on,94,0,8,,,,,,,,,7,,,50,0
13726,note_on,94,0,6,,,,,,,,,5,,,62,0
13726,note_on,94,0,7,,,,,,,,,6,,,62,0
13726,note_on,94,0,5,,,,,,,,,4,,,62,0
13728,note_on,2,0,5,,,,,,,,,4,,,62,108
13728,note_on,2,0,8,,,,,,,,,7,,,50,108
13728,note_on,2,0,7,,,,,,,,,6,,,62,108
13728,note_on,2,0,6,,,,,,,,,5,,,62,108
13792,note_on,160,0,1,,,,,,,,,0,,,74,0
13792,note_on,160,0,2,,,,,,,,,1,,,66,0
13792,note_on,160,0,3,,,,,,,,,2,,,57,0
13792,note_on,160,0,4,,,,,,,,,3,,,50,0
13822,note_on,94,0,6,,,,,,,,,5,,,62,0
13822,note_on,94,0,5,,,,,,,,,4,,,62,0
13822,note_on,94,0,8,,,,,,,,,7,,,50,0
13822,note_on,94,0,7,,,,,,,,,6,,,62,0
13824,note_on,2,0,5,,,,,,,,,4,,,62,108
13824,note_on,2,0,6,,,,,,,,,5,,,62,108
13824,note_on,32,0,2,,,,,,,,,1,,,66,108
13824,note_on,32,0,4,,,,,,,,,3,,,50,108
13824,note_on,2,0,7,,,,,,,,,6,,,62,108
13824,note_on,32,0,1,,,,,,,,,0,,,74,108
13824,note_on,32,0,3,,,,,,,,,2,,,57,108
13824,note_on,2,0,8,,,,,,,,,7,,,50,108
13918,note_on,94,0,7,,,,,,,,,6,,,62,0
13918,note_on,94,0,5,,,,,,,,,4,,,62,0
13918,note_on,94,0,6,,,,,,,,,5,,,62,0
13918,note_on,94,0,8,,,,,,,,,7,,,50,0
13920,note_on,2,0,8,,,,,,,,,7,,,62,108
13920,note_on,2,0,5,,,,,,,,,4,,,74,108
13920,note_on,2,0,7,,,,,,,,,6,,,74,108
13920,note_on,2,0,6,,,,,,,,,5,,,74,108
13966,note_on,142,0,2,,,,,,,,,1,,,66,0
13966,note_on,142,0,4,,,,,,,,,3,,,50,0
13966,note_on,142,0,1,,,,,,,,,0,,,74,0
13966,note_on,142,0,3,,,,,,,,,2,,,57,0
13968,note_on,2,0,4,,,,,,,,,3,,,50,108
13968,note_on,2,0,3,,,,,,,,,2,,,57,108
13968,note_on,2,0,1,,,,,,,,,0,,,74,108
13968,note_on,2,0,2,,,,,,,,,1,,,66,108
14014,note_on,46,0,3,,,,,,,,,2,,,57,0
14014,note_on,94,0,6,,,,,,,,,5,,,74,0
14014,note_on,94,0,8,,,,,,,,,7,,,62,0
14014,note_on,46,0,2,,,,,,,,,1,,,66,0
14014,note_on,46,0,4,,,,,,,,,3,,,50,0
14014,note_on,46,0,1,,,,,,,,,0,,,74,0
14014,note_on,94,0,5,,,,,,,,,4,,,74,0
14014,note_on,94,0,7,,,,,,,,,6,,,74,0
14016,note_on,2,0,7,,,,,,,,,6,,,62,108
14016,note_on,2,0,6,,,,,,,,,5,,,62,108
14016,note_on,2,0,8,,,,,,,,,7,,,50,108
14016,note_on,2,0,2,,,,,,,,,1,,,66,108
14016,note_on,2,0,4,,,,,,,,,3,,,50,108
14016,note_on,2,0,5,,,,,,,,,4,,,62,108
14016,note_on,2,0,3,,,,,,,,,2,,,57,108
14016,note_on,2,0,1,,,,,,,,,0,,,74,108
14110,note_on,94,0,6,,,,,,,,,5,,,62,0
14110,note_on,94,0,8,,,,,,,,,7,,,50,0
14110,note_on,94,0,5,,,,,,,,,4,,,62,0
14110,note_on,94,0,7,,,,,,,,,6,,,62,0
14112,note_on,2,0,6,,,,,,,,,5,,,62,108
14112,note_on,2,0,5,,,,,,,,,4,,,62,108
14112,note_on,2,0,7,,,,,,,,,6,,,62,108
14112,note_on,2,0,8,,,,,,,,,7,,,50,108
14176,note_on,160,0,3,,,,,,,,,2,,,57,0
14176,note_on,160,0,1,,,,,,,,,0,,,74,0
14176,note_on,160,0,4,,,,,,,,,3,,,50,0
14176,note_on,160,0,2,,,,,,,,,1,,,66,0
14206,note_on,94,0,6,,,,,,,,,5,,,62,0
14206,note_on,94,0,7,,,,,,,,,6,,,62,0
14206,note_on,94,0,8,,,,,,,,,7,,,50,0
14206,note_on,94,0,5,,,,,,,,,4,,,62,0
14208,note_on,2,0,6,,,,,,,,,5,,,62,108
14208,note_on,2,0,8,,,,,,,,,7,,,50,108
14208,note_on,2,0,5,,,,,,,,,4,,,62,108
14208,note_on,2,0,7,,,,,,,,,6,,,62,108
14302,note_on,94,0,7,,,,,,,,,6,,,62,0
14302,note_on,94,0,6,,,,,,,,,5,,,62,0
14302,note_on,94,0,5,,,,,,,,,4,,,62,0
14304,note_on,0,0,6,,,,,,,,,5,,,78,108
14304,note_on,0,0,7,,,,,,,,,6,,,78,108
14304,note_on,2,0,7,,,,,,,,,6,,,74,108
14304,note_on,2,0,6,,,,,,,,,5,,,74,108
14350,note_on,0,0,7,,,,,,,,,6,,,78,0
14350,note_on,46,0,6,,,,,,,,,5,,,74,0
14350,note_on,0,0,6,,,,,,,,,5,,,78,0
14350,note_on,46,0,7,,,,,,,,,6,,,74,0
14352,note_on,2,0,6,,,,,,,,,5,,,76,108
14352,note_on,0,0,6,,,,,,,,,5,,,79,108
14352,note_on,0,0,7,,,,,,,,,6,,,79,108
14352,note_on,2,0,7,,,,,,,,,6,,,76,108
14368,note_on,160,0,8,,,,,,,,,7,,,50,0
14398,note_on,46,0,6,,,,,,,,,5,,,76,0
14398,note_on,0,0,6,,,,,,,,,5,,,79,0
14398,note_on,46,0,7,,,,,,,,,6,,,76,0
14398,note_on,0,0,7,,,,,,,,,6,,,79,0
14400,note_on,0,0,6,,,,,,,,,5,,,81,108
14400,note_on,0,0,7,,,,,,,,,6,,,81,108
14400,note_on,2,0,7,,,,,,,,,6,,,78,108
14400,note_on,2,0,6,,,,,,,,,5,,,78,108
14446,note_on,46,0,7,,,,,,,,,6,,,78,0
14446,note_on,0,0,6,,,,,,,,,5,,,81,0
14446,note_on,46,0,6,,,,,,,,,5,,,78,0
14446,note_on,0,0,7,,,,,,,,,6,,,81,0
14448,note_on,2,0,6,,,,,,,,,5,,,76,108
14448,note_on,0,0,6,,,,,,,,,5,,,79,108
14448,note_on,0,0,7,,,,,,,,,6,,,79,108
14448,note_on,2,0,7,,,,,,,,,6,,,76,108
14494,note_on,46,0,6,,,,,,,,,5,,,76,0
14494,note_on,0,0,7,,,,,,,,,6,,,79,0
14494,note_on,0,0,6,,,,,,,,,5,,,79,0
14494,note_on,46,0,7,,,,,,,,,6,,,76,0
14496,note_on,2,0,6,,,,,,,,,5,,,78,108
14496,note_on,0,0,6,,,,,,,,,5,,,81,108
14496,note_on,0,0,7,,,,,,,,,6,,,81,108
14496,note_on,2,0,7,,,,,,,,,6,,,78,108
14542,note_on,46,0,7,,,,,,,,,6,,,78,0
14542,note_on,46,0,6,,,,,,,,,5,,,78,0
14542,note_on,0,0,7,,,,,,,,,6,,,81,0
14542,note_on,0,0,6,,,,,,,,,5,,,81,0
14544,note_on,2,0,7,,,,,,,,,6,,,76,108
14544,note_on,0,0,7,,,,,,,,,6,,,79,108
14544,note_on,2,0,6,,,,,,,,,5,,,76,108
14544,note_on,0,0,6,,,,,,,,,5,,,79,108
14590,note_on,0,0,7,,,,,,,,,6,,,79,0
14590,note_on,0,0,6,,,,,,,,,5,,,79,0
14590,note_on,46,0,6,,,,,,,,,5,,,76,0
14590,note_on,46,0,7,,,,,,,,,6,,,76,0
14592,note_on,0,0,6,,,,,,,,,5,,,78,108
14592,note_on,2,0,6,,,,,,,,,5,,,74,108
14592,note_on,2,0,7,,,,,,,,,6,,,74,108
14592,note_on,0,0,7,,,,,,,,,6,,,78,108
14686,note_on,0,0,6,,,,,,,,,5,,,78,0
14686,note_on,94,0,6,,,,,,,,,5,,,74,0
14686,note_on,94,0,7,,,,,,,,,6,,,74,0
14686,note_on,0,0,7,,,,,,,,,6,,,78,0
14688,note_on,0,0,6,,,,,,,,,5,,,78,108
14688,note_on,2,0,6,,,,,,,,,5,,,74,108
14688,note_on,2,0,7,,,,,,,,,6,,,74,108
14688,note_on,0,0,7,,,,,,,,,6,,,78,108
14734,note_on,46,0,6,,,,,,,,,5,,,74,0
14734,note_on,0,0,7,,,,,,,,,6,,,78,0
14734,note_on,0,0,6,,,,,,,,,5,,,78,0
14734,note_on,46,0,7,,,,,,,,,6,,,74,0
14736,note_on,2,0,7,,,,,,,,,6,,,76,108
14736,note_on,0,0,7,,,,,,,,,6,,,79,108
14736,note_on,2,0,6,,,,,,,,,5,,,76,108
14736,note_on,0,0,6,,,,,,,,,5,,,79,108
14782,note_on,46,0,6,,,,,,,,,5,,,76,0
14782,note_on,0,0,6,,,,,,,,,5,,,79,0
14782,note_on,0,0,7,,,,,,,,,6,,,79,0
14782,note_on,46,0,7,,,,,,,,,6,,,76,0
14784,note_on,2,0,6,,,,,,,,,5,,,78,108
14784,note_on,0,0,7,,,,,,,,,6,,,81,108
14784,note_on,0,0,6,,,,,,,,,5,,,81,108
14784,note_on,2,0,7,,,,,,,,,6,,,78,108
14830,note_on,0,0,7,,,,,,,,,6,,,81,0
14830,note_on,46,0,7,,,,,,,,,6,,,78,0
14830,note_on,0,0,6,,,,,,,,,5,,,81,0
14830,note_on,46,0,6,,,,,,,,,5,,,78,0
14832,note_on,0,0,7,,,,,,,,,6,,,79,108
14832,note_on,2,0,7,,,,,,,,,6,,,76,108
14832,note_on,2,0,6,,,,,,,,,5,,,76,108
14832,note_on,0,0,6,,,,,,,,,5,,,79,108
14878,note_on,46,0,6,,,,,,,,,5,,,76,0
14878,note_on,0,0,6,,,,,,,,,5,,,79,0
14878,note_on,0,0,7,,,,,,,,,6,,,79,0
14878,note_on,46,0,7,,,,,,,,,6,,,76,0
14880,note_on,0,0,6,,,,,,,,,5,,,81,108
14880,note_on,2,0,6,,,,,,,,,5,,,78,108
14880,note_on,0,0,7,,,,,,,,,6,,,81,108
14880,note_on,2,0,7,,,,,,,,,6,,,78,108
14926,note_on,46,0,7,,,,,,,,,6,,,78,0
14926,note_on,0,0,7,,,,,,,,,6,,,81,0
14926,note_on,46,0,6,,,,,,,,,5,,,78,0
14926,note_on,0,0,6,,,,,,,,,5,,,81,0
14928,note_on,2,0,7,,,,,,,,,6,,,74,108
14928,note_on,0,0,7,,,,,,,,,6,,,78,108
14928,note_on,2,0,6,,,,,,,,,5,,,74,108
14928,note_on,0,0,6,,,,,,,,,5,,,78,108
14974,note_on,46,0,6,,,,,,,,,5,,,74,0
14974,note_on,46,0,7,,,,,,,,,6,,,74,0
14974,note_on,0,0,7,,,,,,,,,6,,,78,0
14974,note_on,0,0,6,,,,,,,,,5,,,78,0
14976,note_on,800,0,4,,,,,,,,,3,,,45,108
14976,note_on,800,0,2,,,,,,,,,1,,,64,108
14976,note_on,0,0,7,,,,,,,,,6,,,76,108
14976,note_on,2,0,7,,,,,,,,,6,,,73,108
14976,note_on,800,0,1,,,,,,,,,0,,,73,108
14976,note_on,800,0,3,,,,,,,,,2,,,57,108
14976,note_on,2,0,6,,,,,,,,,5,,,73,108
14976,note_on,0,0,6,,,,,,,,,5,,,76,108
14976,note_on,608,0,8,,,,,,,,,7,,,45,108
15070,note_on,94,0,8,,,,,,,,,7,,,45,0
15070,note_on,94,0,6,,,,,,,,,5,,,73,0
15070,note_on,94,0,7,,,,,,,,,6,,,73,0
15070,note_on,0,0,6,,,,,,,,,5,,,76,0
15070,note_on,0,0,7,,,,,,,,,6,,,76,0
15072,note_on,2,0,7,,,,,,,,,6,,,69,108
15072,note_on,2,0,6,,,,,,,,,5,,,69,108
15072,note_on,2,0,8,,,,,,,,,7,,,57,108
15118,note_on,142,0,2,,,,,,,,,1,,,64,0
15118,note_on,142,0,4,,,,,,,,,3,,,45,0
15118,note_on,142,0,1,,,,,,,,,0,,,73,0
15118,note_on,142,0,3,,,,,,,,,2,,,57,0
15120,note_on,2,0,3,,,,,,,,,2,,,57,108
15120,note_on,2,0,4,,,,,,,,,3,,,45,108
15120,note_on,2,0,1,,,,,,,,,0,,,73,108
15120,note_on,2,0,2,,,,,,,,,1,,,64,108
15166,note_on,46,0,2,,,,,,,,,1,,,64,0
15166,note_on,46,0,4,,,,,,,,,3,,,45,0
15166,note_on,46,0,3,,,,,,,,,2,,,57,0
15166,note_on,94,0,6,,,,,,,,,5,,,69,0
15166,note_on,94,0,7,,,,,,,,,6,,,69,0
15166,note_on,46,0,1,,,,,,,,,0,,,73,0
15166,note_on,94,0,8,,,,,,,,,7,,,57,0
15168,note_on,2,0,8,,,,,,,,,7,,,45,108
15168,note_on,2,0,6,,,,,,,,,5,,,57,108
15168,note_on,2,0,3,,,,,,,,,2,,,57,108
15168,note_on,2,0,1,,,,,,,,,0,,,73,108
15168,note_on,2,0,2,,,,,,,,,1,,,64,108
15168,note_on,2,0,7,,,,,,,,,6,,,57,108
15168,note_on,2,0,4,,,,,,,,,3,,,45,108
15262,note_on,94,0,8,,,,,,,,,7,,,45,0
15262,note_on,94,0,6,,,,,,,,,5,,,57,0
15262,note_on,94,0,7,,,,,,,,,6,,,57,0
15264,note_on,2,0,6,,,,,,,,,5,,,57,108
15264,note_on,2,0,8,,,,,,,,,7,,,45,108
15264,note_on,2,0,7,,,,,,,,,6,,,57,108
15328,note_on,160,0,4,,,,,,,,,3,,,45,0
15328,note_on,160,0,2,,,,,,,,,1,,,64,0
15328,note_on,160,0,1,,,,,,,,,0,,,73,0
15328,note_on,160,0,3,,,,,,,,,2,,,57,0
15358,note_on,94,0,6,,,,,,,,,5,,,57,0
15358,note_on,94,0,7,,,,,,,,,6,,,57,0
15358,note_on,94,0,8,,,,,,,,,7,,,45,0
15360,note_on,2,0,7,,,,,,,,,6,,,57,108
15360,note_on,32,0,1,,,,,,,,,0,,,73,108
15360,note_on,32,0,3,,,,,,,,,2,,,57,108
15360,note_on,2,0,6,,,,,,,,,5,,,57,108
15360,note_on,32,0,2,,,,,,,,,1,,,64,108
15360,note_on,32,0,4,,,,,,,,,3,,,45,108
15360,note_on,2,0,8,,,,,,,,,7,,,45,108
15454,note_on,94,0,6,,,,,,,,,5,,,57,0
15454,note_on,94,0,8,,,,,,,,,7,,,45,0
15454,note_on,94,0,7,,,,,,,,,6,,,57,0
15456,note_on,2,0,6,,,,,,,,,5,,,69,108
15456,note_on,2,0,7,,,,,,,,,6,,,69,108
15456,note_on,2,0,8,,,,,,,,,7,,,57,108
15502,note_on,142,0,1,,,,,,,,,0,,,73,0
15502,note_on,142,0,2,,,,,,,,,1,,,64,0
15502,note_on,142,0,3,,,,,,,,,2,,,57,0
15502,note_on,142,0,4,,,,,,,,,3,,,45,0
15504,note_on,2,0,1,,,,,,,,,0,,,73,108
15504,note_on,2,0,3,,,,,,,,,2,,,57,108
15504,note_on,2,0,2,,,,,,,,,1,,,64,108
15504,note_on,2,0,4,,,,,,,,,3,,,45,108
15550,note_on,46,0,3,,,,,,,,,2,,,57,0
15550,note_on,46,0,4,,,,,,,,,3,,,45,0
15550,note_on,46,0,1,,,,,,,,,0,,,73,0
15550,note_on,46,0,2,,,,,,,,,1,,,64,0
15550,note_on,94,0,6,,,,,,,,,5,,,69,0
15550,note_on,94,0,8,,,,,,,,,7,,,57,0
15550,note_on,94,0,7,,,,,,,,,6,,,69,0
15552,note_on,2,0,1,,,,,,,,,0,,,73,108
15552,note_on,2,0,4,,,,,,,,,3,,,45,108
15552,note_on,2,0,3,,,,,,,,,2,,,57,108
15552,note_on,2,0,2,,,,,,,,,1,,,64,108
15552,note_on,2,0,6,,,,,,,,,5,,,57,108
15552,note_on,2,0,8,,,,,,,,,7,,,45,108
15552,note_on,2,0,7,,,,,,,,,6,,,57,108
15646,note_on,94,0,7,,,,,,,,,6,,,57,0
15646,note_on,94,0,6,,,,,,,,,5,,,57,0
15646,note_on,94,0,8,,,,,,,,,7,,,45,0
15648,note_on,2,0,6,,,,,,,,,5,,,57,108
15648,note_on,2,0,7,,,,,,,,,6,,,57,108
15648,note_on,2,0,8,,,,,,,,,7,,,45,108
15712,note_on,160,0,4,,,,,,,,,3,,,45,0
15712,note_on,160,0,1,,,,,,,,,0,,,73,0
15712,note_on,160,0,2,,,,,,,,,1,,,64,0
15712,note_on,160,0,3,,,,,,,,,2,,,57,0
15742,note_on,94,0,8,,,,,,,,,7,,,45,0
15742,note_on,94,0,7,,,,,,,,,6,,,57,0
15742,note_on,94,0,6,,,,,,,,,5,,,57,0
15744,note_on,2,0,8,,,,,,,,,7,,,45,108
15744,note_on,2,0,6,,,,,,,,,5,,,57,108
15744,note_on,2,0,7,,,,,,,,,6,,,57,108
15838,note_on,94,0,7,,,,,,,,,6,,,57,0
15838,note_on,94,0,6,,,,,,,,,5,,,57,0
15840,note_on,0,0,6,,,,,,,,,5,,,76,108
15840,note_on,0,0,7,,,,,,,,,6,,,76,108
15840,note_on,2,0,7,,,,,,,,,6,,,73,108
15840,note_on,2,0,6,,,,,,,,,5,,,73,108
15886,note_on,0,0,7,,,,,,,,,6,,,76,0
15886,note_on,46,0,7,,,,,,,,,6,,,73,0
15886,note_on,46,0,6,,,,,,,,,5,,,73,0
15886,note_on,0,0,6,,,,,,,,,5,,,76,0
15888,note_on,0,0,7,,,,,,,,,6,,,78,108
15888,note_on,0,0,6,,,,,,,,,5,,,78,108
15888,note_on,2,0,6,,,,,,,,,5,,,74,108
15888,note_on,2,0,7,,,,,,,,,6,,,74,108
15904,note_on,160,0,8,,,,,,,,,7,,,45,0
15934,note_on,0,0,6,,,,,,,,,5,,,78,0
15934,note_on,46,0,6,,,,,,,,,5,,,74,0
15934,note_on,0,0,7,,,,,,,,,6,,,78,0
15934,note_on,46,0,7,,,,,,,,,6,,,74,0
15936,note_on,0,0,7,,,,,,,,,6,,,79,108
15936,note_on,0,0,6,,,,,,,,,5,,,79,108
15936,note_on,2,0,7,,,,,,,,,6,,,76,108
15936,note_on,2,0,6,,,,,,,,,5,,,76,108
15982,note_on,46,0,7,,,,,,,,,6,,,76,0
15982,note_on,0,0,7,,,,,,,,,6,,,79,0
15982,note_on,0,0,6,,,,,,,,,5,,,79,0
15982,note_on,46,0,6,,,,,,,,,5,,,76,0
15984,note_on,0,0,7,,,,,,,,,6,,,78,108
15984,note_on,2,0,7,,,,,,,,,6,,,74,108
15984,note_on,0,0,6,,,,,,,,,5,,,78,108
15984,note_on,2,0,6,,,,,,,,,5,,,74,108
16030,note_on,0,0,7,,,,,,,,,6,,,78,0
16030,note_on,46,0,6,,,,,,,,,5,,,74,0
16030,note_on,46,0,7,,,,,,,,,6,,,74,0
16030,note_on,0,0,6,,,,,,,,,5,,,78,0
16032,note_on,2,0,7,,,,,,,,,6,,,76,108
16032,note_on,0,0,7,,,,,,,,,6,,,79,108
16032,note_on,0,0,6,,,,,,,,,5,,,79,108
16032,note_on,2,0,6,,,,,,,,,5,,,76,108
16078,note_on,46,0,7,,,,,,,,,6,,,76,0
16078,note_on,0,0,7,,,,,,,,,6,,,79,0
16078,note_on,0,0,6,,,,,,,,,5,,,79,0
16078,note_on,46,0,6,,,,,,,,,5,,,76,0
16080,note_on,0,0,6,,,,,,,,,5,,,78,108
16080,note_on,2,0,6,,,,,,,,,5,,,74,108
16080,note_on,2,0,7,,,,,,,,,6,,,74,108
16080,note_on,0,0,7,,,,,,,,,6,,,78,108
16126,note_on,46,0,6,,,,,,,,,5,,,74,0
16126,note_on,0,0,6,,,,,,,,,5,,,78,0
16126,note_on,0,0,7,,,,,,,,,6,,,78,0
16126,note_on,46,0,7,,,,,,,,,6,,,74,0
16128,note_on,2,0,6,,,,,,,,,5,,,73,108
16128,note_on,2,0,7,,,,,,,,,6,,,73,108
16128,note_on,0,0,7,,,,,,,,,6,,,76,108
16128,note_on,0,0,6,,,,,,,,,5,,,76,108
16222,note_on,94,0,6,,,,,,,,,5,,,73,0
16222,note_on,0,0,6,,,,,,,,,5,,,76,0
16222,note_on,94,0,7,,,,,,,,,6,,,73,0
16222,note_on,0,0,7,,,,,,,,,6,,,76,0
16224,note_on,0,0,7,,,,,,,,,6,,,76,108
16224,note_on,0,0,6,,,,,,,,,5,,,76,108
16224,note_on,2,0,6,,,,,,,,,5,,,73,108
16224,note_on,2,0,7,,,,,,,,,6,,,73,108
16270,note_on,46,0,7,,,,,,,,,6,,,73,0
16270,note_on,0,0,6,,,,,,,,,5,,,76,0
16270,note_on,46,0,6,,,,,,,,,5,,,73,0
16270,note_on,0,0,7,,,,,,,,,6,,,76,0
16272,note_on,0,0,6,,,,,,,,,5,,,78,108
16272,note_on,2,0,6,,,,,,,,,5,,,74,108
16272,note_on,2,0,7,,,,,,,,,6,,,74,108
16272,note_on,0,0,7,,,,,,,,,6,,,78,108
16318,note_on,0,0,6,,,,,,,,,5,,,78,0
16318,note_on,46,0,6,,,,,,,,,5,,,74,0
16318,note_on,46,0,7,,,,,,,,,6,,,74,0
16318,note_on,0,0,7,,,,,,,,,6,,,78,0
16320,note_on,0,0,6,,,,,,,,,5,,,79,108
16320,note_on,2,0,6,,,,,,,,,5,,,76,108
16320,note_on,0,0,7,,,,,,,,,6,,,79,108
16320,note_on,2,0,7,,,,,,,,,6,,,76,108
16366,note_on,0,0,6,,,,,,,,,5,,,79,0
16366,note_on,46,0,6,,,,,,,,,5,,,76,0
16366,note_on,46,0,7,,,,,,,,,6,,,76,0
16366,note_on,0,0,7,,,,,,,,,6,,,79,0
16368,note_on,2,0,7,,,,,,,,,6,,,74,108
16368,note_on,0,0,6,,,,,,,,,5,,,78,108
16368,note_on,2,0,6,,,,,,,,,5,,,74,108
16368,note_on,0,0,7,,,,,,,,,6,,,78,108
16414,note_on,46,0,6,,,,,,,,,5,,,74,0
16414,note_on,46,0,7,,,,,,,,,6,,,74,0
16414,note_on,0,0,7,,,,,,,,,6,,,78,0
16414,note_on,0,0,6,,,,,,,,,5,,,78,0
16416,note_on,0,0,7,,,,,,,,,6,,,79,108
16416,note_on,2,0,6,,,,,,,,,5,,,76,108
16416,note_on,0,0,6,,,,,,,,,5,,,79,108
16416,note_on,2,0,7,,,,,,,,,6,,,76,108
16462,note_on,46,0,7,,,,,,,,,6,,,76,0
16462,note_on,0,0,7,,,,,,,,,6,,,79,0
16462,note_on,46,0,6,,,,,,,,,5,,,76,0
16462,note_on,0,0,6,,,,,,,,,5,,,79,0
16464,note_on,2,0,6,,,,,,,,,5,,,74,108
16464,note_on,2,0,7,,,,,,,,,6,,,74,108
16464,note_on,0,0,7,,,,,,,,,6,,,78,108
16464,note_on,0,0,6,,,,,,,,,5,,,78,108
16510,note_on,0,0,6,,,,,,,,,5,,,78,0
16510,note_on,46,0,7,,,,,,,,,6,,,74,0
16510,note_on,0,0,7,,,,,,,,,6,,,78,0
16510,note_on,46,0,6,,,,,,,,,5,,,74,0
16512,note_on,608,0,8,,,,,,,,,7,,,45,108
16512,note_on,2,0,6,,,,,,,,,5,,,73,108
16512,note_on,0,0,6,,,,,,,,,5,,,76,108
16512,note_on,800,0,2,,,,,,,,,1,,,64,108
16512,note_on,800,0,1,,,,,,,,,0,,,73,108
16512,note_on,800,0,3,,,,,,,,,2,,,61,108
16512,note_on,800,0,4,,,,,,,,,3,,,57,108
16512,note_on,0,0,7,,,,,,,,,6,,,76,108
16512,note_on,2,0,7,,,,,,,,,6,,,73,108
16606,note_on,0,0,6,,,,,,,,,5,,,76,0
16606,note_on,94,0,6,,,,,,,,,5,,,73,0
16606,note_on,94,0,7,,,,,,,,,6,,,73,0
16606,note_on,0,0,7,,,,,,,,,6,,,76,0
16606,note_on,94,0,8,,,,,,,,,7,,,45,0
16608,note_on,0,0,7,,,,,,,,,6,,,69,108
16608,program_change,2,0,7,,,,,,,,42,6,,,,
16608,note_on,2,0,8,,,,,,,,,7,,,57,108
16702,note_on,94,0,8,,,,,,,,,7,,,57,0
16702,note_on,94,0,7,,,,,,,,,6,,,69,0
16704,note_on,2,0,8,,,,,,,,,7,,,45,108
16704,note_on,2,0,7,,,,,,,,,6,,,57,108
16798,note_on,94,0,8,,,,,,,,,7,,,45,0
16798,note_on,94,0,7,,,,,,,,,6,,,57,0
16800,note_on,2,0,8,,,,,,,,,7,,,45,108
16800,note_on,2,0,7,,,,,,,,,6,,,57,108
16848,note_on,336,0,1,,,,,,,,,0,,,73,0
16848,note_on,336,0,4,,,,,,,,,3,,,57,0
16848,note_on,336,0,2,,,,,,,,,1,,,64,0
16848,note_on,336,0,3,,,,,,,,,2,,,61,0
16894,note_on,94,0,8,,,,,,,,,7,,,45,0
16894,note_on,94,0,7,,,,,,,,,6,,,57,0
16896,note_on,48,0,4,,,,,,,,,3,,,57,108
16896,note_on,48,0,2,,,,,,,,,1,,,66,108
16896,note_on,48,0,1,,,,,,,,,0,,,74,108
16896,note_on,48,0,3,,,,,,,,,2,,,57,108
16896,note_on,2,0,8,,,,,,,,,7,,,45,108
16896,note_on,2,0,7,,,,,,,,,6,,,57,108
16990,note_on,94,0,7,,,,,,,,,6,,,57,0
16990,note_on,94,0,8,,,,,,,,,7,,,45,0
16992,note_on,2,0,7,,,,,,,,,6,,,69,108
16992,note_on,2,0,8,,,,,,,,,7,,,57,108
17086,note_on,94,0,8,,,,,,,,,7,,,57,0
17086,note_on,94,0,7,,,,,,,,,6,,,69,0
17088,note_on,2,0,8,,,,,,,,,7,,,45,108
17088,note_on,2,0,7,,,,,,,,,6,,,57,108
17182,note_on,94,0,8,,,,,,,,,7,,,45,0
17182,note_on,94,0,7,,,,,,,,,6,,,57,0
17184,note_on,2,0,8,,,,,,,,,7,,,45,108
17184,note_on,2,0,7,,,,,,,,,6,,,57,108
17232,note_on,336,0,4,,,,,,,,,3,,,57,0
17232,note_on,336,0,2,,,,,,,,,1,,,66,0
17232,note_on,336,0,3,,,,,,,,,2,,,57,0
17232,note_on,336,0,1,,,,,,,,,0,,,74,0
17278,note_on,94,0,8,,,,,,,,,7,,,45,0
17278,note_on,94,0,7,,,,,,,,,6,,,57,0
17280,note_on,2,0,8,,,,,,,,,7,,,45,108
17280,note_on,48,0,3,,,,,,,,,2,,,61,108
17280,note_on,48,0,1,,,,,,,,,0,,,76,108
17280,note_on,48,0,4,,,,,,,,,3,,,57,108
17280,note_on,48,0,2,,,,,,,,,1,,,67,108
17280,note_on,2,0,7,,,,,,,,,6,,,57,108
17374,note_on,94,0,8,,,,,,,,,7,,,45,0
17374,note_on,94,0,7,,,,,,,,,6,,,57,0
17376,note_on,2,0,8,,,,,,,,,7,,,57,108
17376,note_on,2,0,7,,,,,,,,,6,,,69,108
17470,note_on,94,0,8,,,,,,,,,7,,,57,0
17470,note_on,94,0,7,,,,,,,,,6,,,69,0
17472,note_on,2,0,8,,,,,,,,,7,,,45,108
17472,note_on,2,0,7,,,,,,,,,6,,,57,108
17566,note_on,94,0,8,,,,,,,,,7,,,45,0
17566,note_on,94,0,7,,,,,,,,,6,,,57,0
17568,note_on,2,0,8,,,,,,,,,7,,,45,108
17568,note_on,2,0,7,,,,,,,,,6,,,57,108
17616,note_on,336,0,1,,,,,,,,,0,,,76,0
17616,note_on,336,0,2,,,,,,,,,1,,,67,0
17616,note_on,336,0,4,,,,,,,,,3,,,57,0
17616,note_on,336,0,3,,,,,,,,,2,,,61,0
17662,note_on,94,0,7,,,,,,,,,6,,,57,0
17662,note_on,94,0,8,,,,,,,,,7,,,45,0
17664,note_on,2,0,8,,,,,,,,,7,,,45,108
17664,note_on,48,0,4,,,,,,,,,3,,,57,108
17664,note_on,48,0,2,,,,,,,,,1,,,66,108
17664,note_on,48,0,1,,,,,,,,,0,,,74,108
17664,note_on,48,0,3,,,,,,,,,2,,,57,108
17664,note_on,2,0,7,,,,,,,,,6,,,57,108
17758,note_on,94,0,8,,,,,,,,,7,,,45,0
17758,note_on,94,0,7,,,,,,,,,6,,,57,0
17760,note_on,2,0,8,,,,,,,,,7,,,57,108
17760,note_on,2,0,7,,,,,,,,,6,,,69,108
17854,note_on,94,0,7,,,,,,,,,6,,,69,0
17854,note_on,94,0,8,,,,,,,,,7,,,57,0
17856,note_on,2,0,8,,,,,,,,,7,,,45,108
17856,note_on,2,0,7,,,,,,,,,6,,,57,108
17950,note_on,94,0,8,,,,,,,,,7,,,45,0
17950,note_on,94,0,7,,,,,,,,,6,,,57,0
17952,note_on,2,0,8,,,,,,,,,7,,,45,108
17952,note_on,2,0,7,,,,,,,,,6,,,57,108
18000,note_on,336,0,4,,,,,,,,,3,,,57,0
18000,note_on,336,0,2,,,,,,,,,1,,,66,0
18000,note_on,336,0,1,,,,,,,,,0,,,74,0
18000,note_on,336,0,3,,,,,,,,,2,,,57,0
18046,note_on,94,0,7,,,,,,,,,6,,,57,0
18046,note_on,94,0,8,,,,,,,,,7,,,45,0
18048,note_on,48,0,2,,,,,,,,,1,,,64,108
18048,note_on,48,0,1,,,,,,,,,0,,,74,108
18048,note_on,2,0,8,,,,,,,,,7,,,45,108
18048,note_on,48,0,4,,,,,,,,,3,,,57,108
18048,note_on,2,0,7,,,,,,,,,6,,,57,108
18048,note_on,48,0,3,,,,,,,,,2,,,57,108
18142,note_on,94,0,8,,,,,,,,,7,,,45,0
18142,note_on,94,0,7,,,,,,,,,6,,,57,0
18144,note_on,2,0,8,,,,,,,,,7,,,57,108
18144,note_on,2,0,7,,,,,,,,,6,,,69,108
18238,note_on,94,0,8,,,,,,,,,7,,,57,0
18238,note_on,94,0,7,,,,,,,,,6,,,69,0
18240,note_on,2,0,8,,,,,,,,,7,,,45,108
18240,note_on,2,0,7,,,,,,,,,6,,,57,108
18334,note_on,94,0,8,,,,,,,,,7,,,45,0
18334,note_on,94,0,7,,,,,,,,,6,,,57,0
18336,note_on,2,0,7,,,,,,,,,6,,,57,108
18336,note_on,2,0,8,,,,,,,,,7,,,45,108
18384,note_on,336,0,4,,,,,,,,,3,,,57,0
18384,note_on,336,0,3,,,,,,,,,2,,,57,0
18384,note_on,336,0,1,,,,,,,,,0,,,74,0
18384,note_on,336,0,2,,,,,,,,,1,,,64,0
18430,note_on,94,0,7,,,,,,,,,6,,,57,0
18430,note_on,94,0,8,,,,,,,,,7,,,45,0
18432,note_on,2,0,8,,,,,,,,,7,,,45,108
18432,note_on,48,0,3,,,,,,,,,2,,,57,108
18432,note_on,48,0,1,,,,,,,,,0,,,73,108
18432,note_on,2,0,7,,,,,,,,,6,,,57,108
18432,note_on,48,0,4,,,,,,,,,3,,,57,108
18432,note_on,48,0,2,,,,,,,,,1,,,64,108
18526,note_on,94,0,8,,,,,,,,,7,,,45,0
18526,note_on,94,0,7,,,,,,,,,6,,,57,0
18528,note_on,2,0,7,,,,,,,,,6,,,69,108
18528,note_on,2,0,8,,,,,,,,,7,,,57,108
18622,note_on,94,0,8,,,,,,,,,7,,,57,0
18622,note_on,94,0,7,,,,,,,,,6,,,69,0
18624,note_on,2,0,8,,,,,,,,,7,,,45,108
18624,note_on,2,0,7,,,,,,,,,6,,,57,108
18718,note_on,94,0,7,,,,,,,,,6,,,57,0
18718,note_on,94,0,8,,,,,,,,,7,,,45,0
18720,note_on,2,0,8,,,,,,,,,7,,,45,108
18720,note_on,2,0,7,,,,,,,,,6,,,57,108
18768,note_on,336,0,3,,,,,,,,,2,,,57,0
18768,note_on,336,0,4,,,,,,,,,3,,,57,0
18768,note_on,336,0,2,,,,,,,,,1,,,64,0
18768,note_on,336,0,1,,,,,,,,,0,,,73,0
18814,note_on,94,0,7,,,,,,,,,6,,,57,0
18814,note_on,94,0,8,,,,,,,,,7,,,45,0
18816,note_on,2,0,7,,,,,,,,,6,,,57,108
18816,note_on,2,0,8,,,,,,,,,7,,,45,108
18976,note_on,160,0,7,,,,,,,,,6,,,57,0
18976,note_on,160,0,8,,,,,,,,,7,,,45,0
19200,note_on,432,0,3,,,,,,,,,2,,,61,60
19200,note_on,224,0,8,,,,,,,,,7,,,45,60
19200,note_on,432,0,4,,,,,,,,,3,,,57,60
19200,note_on,432,0,1,,,,,,,,,0,,,73,60
19200,note_on,224,0,7,,,,,,,,,6,,,57,60
19200,note_on,432,0,2,,,,,,,,,1,,,64,60
19294,note_on,94,0,7,,,,,,,,,6,,,57,0
19294,note_on,94,0,8,,,,,,,,,7,,,45,0
19296,note_on,2,0,7,,,,,,,,,6,,,69,60
19296,note_on,2,0,8,,,,,,,,,7,,,57,60
19390,note_on,94,0,7,,,,,,,,,6,,,69,0
19390,note_on,94,0,8,,,,,,,,,7,,,57,0
19392,note_on,2,0,8,,,,,,,,,7,,,45,60
19392,note_on,2,0,7,,,,,,,,,6,,,57,60
19486,note_on,94,0,8,,,,,,,,,7,,,45,0
19486,note_on,94,0,7,,,,,,,,,6,,,57,0
19488,note_on,2,0,8,,,,,,,,,7,,,45,60
19488,note_on,2,0,7,,,,,,,,,6,,,57,60
19536,note_on,336,0,3,,,,,,,,,2,,,61,0
19536,note_on,336,0,1,,,,,,,,,0,,,73,0
19536,note_on,336,0,4,,,,,,,,,3,,,57,0
19536,note_on,336,0,2,,,,,,,,,1,,,64,0
19582,note_on,94,0,7,,,,,,,,,6,,,57,0
19582,note_on,94,0,8,,,,,,,,,7,,,45,0
19584,note_on,48,0,1,,,,,,,,,0,,,74,60
19584,note_on,48,0,4,,,,,,,,,3,,,57,60
19584,note_on,2,0,7,,,,,,,,,6,,,57,60
19584,note_on,48,0,3,,,,,,,,,2,,,57,60
19584,note_on,2,0,8,,,,,,,,,7,,,45,60
19584,note_on,48,0,2,,,,,,,,,1,,,66,60
19678,note_on,94,0,7,,,,,,,,,6,,,57,0
19678,note_on,94,0,8,,,,,,,,,7,,,45,0
19680,note_on,2,0,7,,,,,,,,,6,,,69,60
19680,note_on,2,0,8,,,,,,,,,7,,,57,60
19774,note_on,94,0,8,,,,,,,,,7,,,57,0
19774,note_on,94,0,7,,,,,,,,,6,,,69,0
19776,note_on,2,0,8,,,,,,,,,7,,,45,60
19776,note_on,2,0,7,,,,,,,,,6,,,57,60
19870,note_on,94,0,8,,,,,,,,,7,,,45,0
19870,note_on,94,0,7,,,,,,,,,6,,,57,0
19872,note_on,2,0,8,,,,,,,,,7,,,45,60
19872,note_on,2,0,7,,,,,,,,,6,,,57,60
19920,note_on,336,0,4,,,,,,,,,3,,,57,0
19920,note_on,336,0,1,,,,,,,,,0,,,74,0
19920,note_on,336,0,2,,,,,,,,,1,,,66,0
19920,note_on,336,0,3,,,,,,,,,2,,,57,0
19966,note_on,94,0,7,,,,,,,,,6,,,57,0
19966,note_on,94,0,8,,,,,,,,,7,,,45,0
19968,note_on,2,0,7,,,,,,,,,6,,,57,60
19968,note_on,48,0,4,,,,,,,,,3,,,57,60
19968,note_on,48,0,3,,,,,,,,,2,,,61,60
19968,note_on,48,0,1,,,,,,,,,0,,,76,60
19968,note_on,48,0,2,,,,,,,,,1,,,67,60
19968,note_on,2,0,8,,,,,,,,,7,,,45,60
20062,note_on,94,0,7,,,,,,,,,6,,,57,0
20062,note_on,94,0,8,,,,,,,,,7,,,45,0
20064,note_on,2,0,7,,,,,,,,,6,,,69,60
20064,note_on,2,0,8,,,,,,,,,7,,,57,60
20158,note_on,94,0,8,,,,,,,,,7,,,57,0
20158,note_on,94,0,7,,,,,,,,,6,,,69,0
20160,note_on,2,0,7,,,,,,,,,6,,,57,60
20160,note_on,2,0,8,,,,,,,,,7,,,45,60
20254,note_on,94,0,8,,,,,,,,,7,,,45,0
20254,note_on,94,0,7,,,,,,,,,6,,,57,0
20256,note_on,2,0,7,,,,,,,,,6,,,57,60
20256,note_on,2,0,8,,,,,,,,,7,,,45,60
20304,note_on,336,0,4,,,,,,,,,3,,,57,0
20304,note_on,336,0,2,,,,,,,,,1,,,67,0
20304,note_on,336,0,1,,,,,,,,,0,,,76,0
20304,note_on,336,0,3,,,,,,,,,2,,,61,0
20350,note_on,94,0,8,,,,,,,,,7,,,45,0
20350,note_on,94,0,7,,,,,,,,,6,,,57,0
20352,note_on,48,0,3,,,,,,,,,2,,,57,60
20352,note_on,48,0,4,,,,,,,,,3,,,57,60
20352,note_on,2,0,8,,,,,,,,,7,,,45,60
20352,note_on,2,0,7,,,,,,,,,6,,,57,60
20352,note_on,48,0,2,,,,,,,,,1,,,66,60
20352,note_on,48,0,1,,,,,,,,,0,,,74,60
20446,note_on,94,0,8,,,,,,,,,7,,,45,0
20446,note_on,94,0,7,,,,,,,,,6,,,57,0
20448,note_on,2,0,7,,,,,,,,,6,,,69,60
20448,note_on,2,0,8,,,,,,,,,7,,,57,60
20542,note_on,94,0,7,,,,,,,,,6,,,69,0
20542,note_on,94,0,8,,,,,,,,,7,,,57,0
20544,note_on,2,0,7,,,,,,,,,6,,,57,60
20544,note_on,2,0,8,,,,,,,,,7,,,45,60
20638,note_on,94,0,8,,,,,,,,,7,,,45,0
20638,note_on,94,0,7,,,,,,,,,6,,,57,0
20640,note_on,2,0,8,,,,,,,,,7,,,45,60
20640,note_on,2,0,7,,,,,,,,,6,,,57,60
20688,note_on,336,0,4,,,,,,,,,3,,,57,0
20688,note_on,336,0,2,,,,,,,,,1,,,66,0
20688,note_on,336,0,1,,,,,,,,,0,,,74,0
20688,note_on,336,0,3,,,,,,,,,2,,,57,0
20734,note_on,94,0,8,,,,,,,,,7,,,45,0
20734,note_on,94,0,7,,,,,,,,,6,,,57,0
20736,note_on,2,0,8,,,,,,,,,7,,,45,60
20736,note_on,48,0,2,,,,,,,,,1,,,64,60
20736,note_on,48,0,3,,,,,,,,,2,,,57,60
20736,note_on,2,0,7,,,,,,,,,6,,,57,60
20736,note_on,48,0,4,,,,,,,,,3,,,57,60
20736,note_on,48,0,1,,,,,,,,,0,,,74,60
20830,note_on,94,0,8,,,,,,,,,7,,,45,0
20830,note_on,94,0,7,,,,,,,,,6,,,57,0
20832,note_on,2,0,8,,,,,,,,,7,,,57,60
20832,note_on,2,0,7,,,,,,,,,6,,,69,60
20926,note_on,94,0,7,,,,,,,,,6,,,69,0
20926,note_on,94,0,8,,,,,,,,,7,,,57,0
20928,note_on,2,0,7,,,,,,,,,6,,,57,60
20928,note_on,2,0,8,,,,,,,,,7,,,45,60
21022,note_on,94,0,7,,,,,,,,,6,,,57,0
21022,note_on,94,0,8,,,,,,,,,7,,,45,0
21024,note_on,2,0,7,,,,,,,,,6,,,57,60
21024,note_on,2,0,8,,,,,,,,,7,,,45,60
21072,note_on,336,0,1,,,,,,,,,0,,,74,0
21072,note_on,336,0,4,,,,,,,,,3,,,57,0
21072,note_on,336,0,2,,,,,,,,,1,,,64,0
21072,note_on,336,0,3,,,,,,,,,2,,,57,0
21118,note_on,94,0,8,,,,,,,,,7,,,45,0
21118,note_on,94,0,7,,,,,,,,,6,,,57,0
21120,note_on,48,0,3,,,,,,,,,2,,,57,60
21120,note_on,48,0,1,,,,,,,,,0,,,73,60
21120,note_on,2,0,8,,,,,,,,,7,,,45,60
21120,note_on,48,0,4,,,,,,,,,3,,,57,60
21120,note_on,2,0,7,,,,,,,,,6,,,57,60
21120,note_on,48,0,2,,,,,,,,,1,,,64,60
21214,note_on,94,0,8,,,,,,,,,7,,,45,0
21214,note_on,94,0,7,,,,,,,,,6,,,57,0
21216,note_on,2,0,7,,,,,,,,,6,,,69,60
21216,note_on,2,0,8,,,,,,,,,7,,,57,60
21310,note_on,94,0,7,,,,,,,,,6,,,69,0
21310,note_on,94,0,8,,,,,,,,,7,,,57,0
21312,note_on,2,0,7,,,,,,,,,6,,,57,60
21312,note_on,2,0,8,,,,,,,,,7,,,45,60
21406,note_on,94,0,7,,,,,,,,,6,,,57,0
21406,note_on,94,0,8,,,,,,,,,7,,,45,0
21408,note_on,2,0,7,,,,,,,,,6,,,57,60
21408,note_on,2,0,8,,,,,,,,,7,,,45,60
21456,note_on,336,0,1,,,,,,,,,0,,,73,0
21456,note_on,336,0,3,,,,,,,,,2,,,57,0
21456,note_on,336,0,2,,,,,,,,,1,,,64,0
21456,note_on,336,0,4,,,,,,,,,3,,,57,0
21502,note_on,94,0,8,,,,,,,,,7,,,45,0
21502,note_on,94,0,7,,,,,,,,,6,,,57,0
21504,note_on,2,0,8,,,,,,,,,7,,,45,60
21504,note_on,2,0,7,,,,,,,,,6,,,57,60
21664,note_on,160,0,7,,,,,,,,,6,,,57,0
21664,note_on,160,0,8,,,,,,,,,7,,,45,0
21888,note_on,0,0,5,,,,,,,,,4,,,66,92
21888,note_on,5282,0,6,,,,,,,,,5,,,62,92
21888,note_on,0,0,6,,,,,,,,,5,,,66,92
21888,note_on,0,0,6,,,,,,,,,5,,,69,92
21888,note_on,0,0,5,,,,,,,,,4,,,69,92
21888,note_on,7586,0,5,,,,,,,,,4,,,62,92
21888,program_change,224,0,7,,,,,,,,40,6,,,,
21888,note_on,224,0,8,,,,,,,,,7,,,50,108
21888,note_on,432,0,4,,,,,,,,,3,,,50,108
21888,note_on,432,0,3,,,,,,,,,2,,,54,108
21888,note_on,432,0,1,,,,,,,,,0,,,69,108
21888,note_on,0,0,7,,,,,,,,,6,,,69,92
21888,note_on,0,0,7,,,,,,,,,6,,,66,92
21888,note_on,0,0,7,,,,,,,,,6,,,62,92
21888,note_on,432,0,2,,,,,,,,,1,,,62,108
21982,note_on,94,0,5,,,,,,,,,4,,,62,0
21982,note_on,94,0,6,,,,,,,,,5,,,62,0
21982,note_on,0,0,6,,,,,,,,,5,,,66,0
21982,note_on,0,0,5,,,,,,,,,4,,,66,0
21982,note_on,94,0,8,,,,,,,,,7,,,50,0
21982,note_on,0,0,6,,,,,,,,,5,,,69,0
21982,note_on,0,0,5,,,,,,,,,4,,,69,0
21982,note_on,94,0,7,,,,,,,,,6,,,62,0
21982,note_on,0,0,7,,,,,,,,,6,,,66,0
21982,note_on,0,0,7,,,,,,,,,6,,,69,0
21984,note_on,2,0,5,,,,,,,,,4,,,74,92
21984,note_on,2,0,8,,,,,,,,,7,,,62,108
21984,note_on,2,0,6,,,,,,,,,5,,,74,92
21984,note_on,2,0,7,,,,,,,,,6,,,74,92
22078,note_on,94,0,5,,,,,,,,,4,,,74,0
22078,note_on,94,0,8,,,,,,,,,7,,,62,0
22078,note_on,94,0,6,,,,,,,,,5,,,74,0
22078,note_on,94,0,7,,,,,,,,,6,,,74,0
22080,note_on,2,0,8,,,,,,,,,7,,,50,108
22080,note_on,0,0,5,,,,,,,,,4,,,69,92
22080,note_on,0,0,7,,,,,,,,,6,,,66,92
22080,note_on,0,0,7,,,,,,,,,6,,,69,92
22080,note_on,0,0,5,,,,,,,,,4,,,66,92
22080,note_on,2,0,7,,,,,,,,,6,,,62,92
22080,note_on,0,0,6,,,,,,,,,5,,,66,92
22080,note_on,2,0,6,,,,,,,,,5,,,62,92
22080,note_on,2,0,5,,,,,,,,,4,,,62,92
22080,note_on,0,0,6,,,,,,,,,5,,,69,92
22144,note_on,256,0,2,,,,,,,,,1,,,62,0
22144,note_on,256,0,3,,,,,,,,,2,,,54,0
22144,note_on,256,0,1,,,,,,,,,0,,,69,0
22144,note_on,256,0,4,,,,,,,,,3,,,50,0
22174,note_on,94,0,6,,,,,,,,,5,,,62,0
22174,note_on,0,0,7,,,,,,,,,6,,,69,0
22174,note_on,0,0,7,,,,,,,,,6,,,66,0
22174,note_on,94,0,7,,,,,,,,,6,,,62,0
22174,note_on,94,0,8,,,,,,,,,7,,,50,0
22174,note_on,0,0,5,,,,,,,,,4,,,69,0
22174,note_on,0,0,5,,,,,,,,,4,,,66,0
22174,note_on,94,0,5,,,,,,,,,4,,,62,0
22174,note_on,0,0,6,,,,,,,,,5,,,69,0
22174,note_on,0,0,6,,,,,,,,,5,,,66,0
22176,note_on,2,0,5,,,,,,,,,4,,,62,92
22176,note_on,32,0,4,,,,,,,,,3,,,50,108
22176,note_on,32,0,3,,,,,,,,,2,,,54,108
22176,note_on,2,0,7,,,,,,,,,6,,,62,92
22176,note_on,0,0,7,,,,,,,,,6,,,69,92
22176,note_on,0,0,5,,,,,,,,,4,,,69,92
22176,note_on,32,0,1,,,,,,,,,0,,,69,108
22176,note_on,32,0,2,,,,,,,,,1,,,62,108
22176,note_on,2,0,8,,,,,,,,,7,,,50,108
22176,note_on,0,0,6,,,,,,,,,5,,,69,92
22176,note_on,2,0,6,,,,,,,,,5,,,62,92
22270,note_on,94,0,8,,,,,,,,,7,,,50,0
22270,note_on,0,0,5,,,,,,,,,4,,,69,0
22270,note_on,94,0,5,,,,,,,,,4,,,62,0
22270,note_on,94,0,2,,,,,,,,,1,,,62,0
22270,note_on,94,0,3,,,,,,,,,2,,,54,0
22270,note_on,94,0,1,,,,,,,,,0,,,69,0
22270,note_on,94,0,6,,,,,,,,,5,,,62,0
22270,note_on,94,0,4,,,,,,,,,3,,,50,0
22270,note_on,0,0,6,,,,,,,,,5,,,69,0
22270,note_on,94,0,7,,,,,,,,,6,,,62,0
22270,note_on,0,0,7,,,,,,,,,6,,,69,0
22272,note_on,0,0,6,,,,,,,,,5,,,69,92
22272,note_on,0,0,5,,,,,,,,,4,,,69,92
22272,note_on,0,0,5,,,,,,,,,4,,,66,92
22272,note_on,2,0,5,,,,,,,,,4,,,62,92
22272,note_on,2,0,8,,,,,,,,,7,,,50,108
22272,note_on,2,0,3,,,,,,,,,2,,,54,108
22272,note_on,0,0,6,,,,,,,,,5,,,66,92
22272,note_on,2,0,6,,,,,,,,,5,,,62,92
22272,note_on,0,0,7,,,,,,,,,6,,,66,92
22272,note_on,2,0,7,,,,,,,,,6,,,62,92
22272,note_on,2,0,4,,,,,,,,,3,,,50,108
22272,note_on,2,0,1,,,,,,,,,0,,,69,108
22272,note_on,2,0,2,,,,,,,,,1,,,62,108
22272,note_on,0,0,7,,,,,,,,,6,,,69,92
22366,note_on,0,0,7,,,,,,,,,6,,,66,0
22366,note_on,0,0,5,,,,,,,,,4,,,69,0
22366,note_on,0,0,5,,,,,,,,,4,,,66,0
22366,note_on,94,0,5,,,,,,,,,4,,,62,0
22366,note_on,94,0,7,,,,,,,,,6,,,62,0
22366,note_on,0,0,6,,,,,,,,,5,,,69,0
22366,note_on,0,0,6,,,,,,,,,5,,,66,0
22366,note_on,94,0,6,,,,,,,,,5,,,62,0
22366,note_on,94,0,8,,,,,,,,,7,,,50,0
22366,note_on,0,0,7,,,,,,,,,6,,,69,0
22368,note_on,2,0,6,,,,,,,,,5,,,74,92
22368,note_on,2,0,8,,,,,,,,,7,,,62,108
22368,note_on,2,0,7,,,,,,,,,6,,,74,92
22368,note_on,2,0,5,,,,,,,,,4,,,74,92
22462,note_on,94,0,5,,,,,,,,,4,,,74,0
22462,note_on,94,0,7,,,,,,,,,6,,,74,0
22462,note_on,94,0,6,,,,,,,,,5,,,74,0
22462,note_on,94,0,8,,,,,,,,,7,,,62,0
22464,note_on,0,0,6,,,,,,,,,5,,,69,92
22464,note_on,0,0,7,,,,,,,,,6,,,69,92
22464,note_on,0,0,7,,,,,,,,,6,,,66,92
22464,note_on,0,0,5,,,,,,,,,4,,,69,92
22464,note_on,2,0,8,,,,,,,,,7,,,50,108
22464,note_on,2,0,7,,,,,,,,,6,,,62,92
22464,note_on,2,0,6,,,,,,,,,5,,,62,92
22464,note_on,0,0,6,,,,,,,,,5,,,66,92
22464,note_on,0,0,5,,,,,,,,,4,,,66,92
22464,note_on,2,0,5,,,,,,,,,4,,,62,92
22558,note_on,0,0,5,,,,,,,,,4,,,69,0
22558,note_on,0,0,5,,,,,,,,,4,,,66,0
22558,note_on,94,0,5,,,,,,,,,4,,,62,0
22558,note_on,0,0,6,,,,,,,,,5,,,66,0
22558,note_on,0,0,7,,,,,,,,,6,,,69,0
22558,note_on,94,0,6,,,,,,,,,5,,,62,0
22558,note_on,94,0,8,,,,,,,,,7,,,50,0
22558,note_on,94,0,7,,,,,,,,,6,,,62,0
22558,note_on,0,0,6,,,,,,,,,5,,,69,0
22558,note_on,0,0,7,,,,,,,,,6,,,66,0
22560,note_on,0,0,7,,,,,,,,,6,,,66,92
22560,note_on,0,0,5,,,,,,,,,4,,,69,92
22560,note_on,2,0,8,,,,,,,,,7,,,50,108
22560,note_on,2,0,7,,,,,,,,,6,,,62,92
22560,note_on,0,0,5,,,,,,,,,4,,,66,92
22560,note_on,0,0,6,,,,,,,,,5,,,69,92
22560,note_on,2,0,5,,,,,,,,,4,,,62,92
22560,note_on,0,0,7,,,,,,,,,6,,,69,92
22560,note_on,0,0,6,,,,,,,,,5,,,66,92
22560,note_on,2,0,6,,,,,,,,,5,,,62,92
22608,note_on,336,0,4,,,,,,,,,3,,,50,0
22608,note_on,336,0,1,,,,,,,,,0,,,69,0
22608,note_on,336,0,2,,,,,,,,,1,,,62,0
22608,note_on,336,0,3,,,,,,,,,2,,,54,0
22654,note_on,94,0,7,,,,,,,,,6,,,62,0
22654,note_on,0,0,5,,,,,,,,,4,,,69,0
22654,note_on,0,0,5,,,,,,,,,4,,,66,0
22654,note_on,94,0,6,,,,,,,,,5,,,62,0
22654,note_on,0,0,6,,,,,,,,,5,,,66,0
22654,note_on,0,0,6,,,,,,,,,5,,,69,0
22654,note_on,0,0,7,,,,,,,,,6,,,66,0
22654,note_on,94,0,8,,,,,,,,,7,,,50,0
22654,note_on,0,0,7,,,,,,,,,6,,,69,0
22654,note_on,94,0,5,,,,,,,,,4,,,62,0
22656,note_on,48,0,2,,,,,,,,,1,,,62,108
22656,note_on,2,0,7,,,,,,,,,6,,,62,92
22656,note_on,0,0,7,,,,,,,,,6,,,67,92
22656,note_on,0,0,7,,,,,,,,,6,,,71,92
22656,note_on,0,0,5,,,,,,,,,4,,,71,92
22656,note_on,0,0,5,,,,,,,,,4,,,67,92
22656,note_on,2,0,5,,,,,,,,,4,,,62,92
22656,note_on,48,0,4,,,,,,,,,3,,,55,108
22656,note_on,48,0,3,,,,,,,,,2,,,59,108
22656,note_on,2,0,6,,,,,,,,,5,,,62,92
22656,note_on,0,0,6,,,,,,,,,5,,,67,92
22656,note_on,0,0,6,,,,,,,,,5,,,71,92
22656,note_on,48,0,1,,,,,,,,,0,,,71,108
22656,note_on,2,0,8,,,,,,,,,7,,,43,108
22750,note_on,0,0,7,,,,,,,,,6,,,67,0
22750,note_on,94,0,6,,,,,,,,,5,,,62,0
22750,note_on,94,0,7,,,,,,,,,6,,,62,0
22750,note_on,0,0,7,,,,,,,,,6,,,71,0
22750,note_on,0,0,6,,,,,,,,,5,,,71,0
22750,note_on,0,0,5,,,,,,,,,4,,,71,0
22750,note_on,0,0,5,,,,,,,,,4,,,67,0
22750,note_on,94,0,5,,,,,,,,,4,,,62,0
22750,note_on,94,0,8,,,,,,,,,7,,,43,0
22750,note_on,0,0,6,,,,,,,,,5,,,67,0
22752,note_on,2,0,7,,,,,,,,,6,,,74,92
22752,note_on,2,0,5,,,,,,,,,4,,,74,92
22752,note_on,2,0,8,,,,,,,,,7,,,55,108
22752,note_on,2,0,6,,,,,,,,,5,,,74,92
22846,note_on,94,0,6,,,,,,,,,5,,,74,0
22846,note_on,94,0,8,,,,,,,,,7,,,55,0
22846,note_on,94,0,7,,,,,,,,,6,,,74,0
22846,note_on,94,0,5,,,,,,,,,4,,,74,0
22848,note_on,0,0,5,,,,,,,,,4,,,71,92
22848,note_on,2,0,6,,,,,,,,,5,,,62,92
22848,note_on,0,0,6,,,,,,,,,5,,,67,92
22848,note_on,0,0,6,,,,,,,,,5,,,71,92
22848,note_on,2,0,7,,,,,,,,,6,,,62,92
22848,note_on,0,0,7,,,,,,,,,6,,,67,92
22848,note_on,0,0,7,,,,,,,,,6,,,71,92
22848,note_on,2,0,8,,,,,,,,,7,,,43,108
22848,note_on,2,0,5,,,,,,,,,4,,,62,92
22848,note_on,0,0,5,,,,,,,,,4,,,67,92
22912,note_on,256,0,3,,,,,,,,,2,,,59,0
22912,note_on,256,0,2,,,,,,,,,1,,,62,0
22912,note_on,256,0,1,,,,,,,,,0,,,71,0
22912,note_on,256,0,4,,,,,,,,,3,,,55,0
22942,note_on,94,0,5,,,,,,,,,4,,,62,0
22942,note_on,0,0,5,,,,,,,,,4,,,71,0
22942,note_on,0,0,5,,,,,,,,,4,,,67,0
22942,note_on,0,0,6,,,,,,,,,5,,,67,0
22942,note_on,0,0,6,,,,,,,,,5,,,71,0
22942,note_on,94,0,7,,,,,,,,,6,,,62,0
22942,note_on,0,0,7,,,,,,,,,6,,,67,0
22942,note_on,0,0,7,,,,,,,,,6,,,71,0
22942,note_on,94,0,8,,,,,,,,,7,,,43,0
22942,note_on,94,0,6,,,,,,,,,5,,,62,0
22944,note_on,2,0,7,,,,,,,,,6,,,62,92
22944,note_on,0,0,7,,,,,,,,,6,,,71,92
22944,note_on,32,0,2,,,,,,,,,1,,,62,108
22944,note_on,2,0,8,,,,,,,,,7,,,43,108
22944,note_on,32,0,3,,,,,,,,,2,,,59,108
22944,note_on,0,0,6,,,,,,,,,5,,,71,92
22944,note_on,32,0,4,,,,,,,,,3,,,55,108
22944,note_on,0,0,6,,,,,,,,,5,,,67,92
22944,note_on,2,0,6,,,,,,,,,5,,,62,92
22944,note_on,32,0,1,,,,,,,,,0,,,71,108
22944,note_on,0,0,7,,,,,,,,,6,,,67,92
22944,note_on,0,0,5,,,,,,,,,4,,,71,92
22944,note_on,0,0,5,,,,,,,,,4,,,67,92
22944,note_on,2,0,5,,,,,,,,,4,,,62,92
23038,note_on,0,0,6,,,,,,,,,5,,,67,0
23038,note_on,0,0,7,,,,,,,,,6,,,71,0
23038,note_on,0,0,7,,,,,,,,,6,,,67,0
23038,note_on,94,0,7,,,,,,,,,6,,,62,0
23038,note_on,94,0,5,,,,,,,,,4,,,62,0
23038,note_on,0,0,6,,,,,,,,,5,,,71,0
23038,note_on,94,0,8,,,,,,,,,7,,,43,0
23038,note_on,94,0,6,,,,,,,,,5,,,62,0
23038,note_on,94,0,3,,,,,,,,,2,,,59,0
23038,note_on,94,0,2,,,,,,,,,1,,,62,0
23038,note_on,0,0,5,,,,,,,,,4,,,71,0
23038,note_on,94,0,1,,,,,,,,,0,,,71,0
23038,note_on,0,0,5,,,,,,,,,4,,,67,0
23038,note_on,94,0,4,,,,,,,,,3,,,55,0
23040,note_on,0,0,5,,,,,,,,,4,,,71,92
23040,note_on,2,0,5,,,,,,,,,4,,,62,92
23040,note_on,2,0,4,,,,,,,,,3,,,55,108
23040,note_on,2,0,7,,,,,,,,,6,,,62,92
23040,note_on,0,0,7,,,,,,,,,6,,,67,92
23040,note_on,0,0,7,,,,,,,,,6,,,71,92
23040,note_on,0,0,5,,,,,,,,,4,,,67,92
23040,note_on,2,0,3,,,,,,,,,2,,,59,108
23040,note_on,0,0,6,,,,,,,,,5,,,67,92
23040,note_on,2,0,6,,,,,,,,,5,,,62,92
23040,note_on,2,0,2,,,,,,,,,1,,,62,108
23040,note_on,0,0,6,,,,,,,,,5,,,71,92
23040,note_on,2,0,1,,,,,,,,,0,,,71,108
23040,note_on,2,0,8,,,,,,,,,7,,,43,108
23134,note_on,0,0,6,,,,,,,,,5,,,71,0
23134,note_on,0,0,6,,,,,,,,,5,,,67,0
23134,note_on,94,0,6,,,,,,,,,5,,,62,0
23134,note_on,94,0,7,,,,,,,,,6,,,62,0
23134,note_on,0,0,7,,,,,,,,,6,,,67,0
23134,note_on,94,0,8,,,,,,,,,7,,,43,0
23134,note_on,0,0,5,,,,,,,,,4,,,71,0
23134,note_on,0,0,5,,,,,,,,,4,,,67,0
23134,note_on,94,0,5,,,,,,,,,4,,,62,0
23134,note_on,0,0,7,,,,,,,,,6,,,71,0
23136,note_on,2,0,7,,,,,,,,,6,,,74,92
23136,note_on,2,0,5,,,,,,,,,4,,,74,92
23136,note_on,2,0,8,,,,,,,,,7,,,55,108
23136,note_on,2,0,6,,,,,,,,,5,,,74,92
23230,note_on,94,0,5,,,,,,,,,4,,,74,0
23230,note_on,94,0,7,,,,,,,,,6,,,74,0
23230,note_on,94,0,8,,,,,,,,,7,,,55,0
23230,note_on,94,0,6,,,,,,,,,5,,,74,0
23232,note_on,2,0,7,,,,,,,,,6,,,62,92
23232,note_on,0,0,5,,,,,,,,,4,,,67,92
23232,note_on,0,0,5,,,,,,,,,4,,,71,92
23232,note_on,2,0,5,,,,,,,,,4,,,62,92
23232,note_on,0,0,6,,,,,,,,,5,,,67,92
23232,note_on,0,0,7,,,,,,,,,6,,,67,92
23232,note_on,0,0,7,,,,,,,,,6,,,71,92
23232,note_on,0,0,6,,,,,,,,,5,,,71,92
23232,note_on,2,0,8,,,,,,,,,7,,,43,108
23232,note_on,2,0,6,,,,,,,,,5,,,62,92
23326,note_on,94,0,8,,,,,,,,,7,,,43,0
23326,note_on,94,0,5,,,,,,,,,4,,,62,0
23326,note_on,0,0,5,,,,,,,,,4,,,67,0
23326,note_on,0,0,5,,,,,,,,,4,,,71,0
23326,note_on,0,0,7,,,,,,,,,6,,,71,0
23326,note_on,0,0,6,,,,,,,,,5,,,71,0
23326,note_on,0,0,7,,,,,,,,,6,,,67,0
23326,note_on,94,0,6,,,,,,,,,5,,,62,0
23326,note_on,94,0,7,,,,,,,,,6,,,62,0
23326,note_on,0,0,6,,,,,,,,,5,,,67,0
23328,note_on,2,0,6,,,,,,,,,5,,,62,92
23328,note_on,0,0,6,,,,,,,,,5,,,71,92
23328,note_on,0,0,5,,,,,,,,,4,,,71,92
23328,note_on,2,0,5,,,,,,,,,4,,,62,92
23328,note_on,0,0,7,,,,,,,,,6,,,71,92
23328,note_on,0,0,7,,,,,,,,,6,,,67,92
23328,note_on,2,0,7,,,,,,,,,6,,,62,92
23328,note_on,2,0,8,,,,,,,,,7,,,43,108
23328,note_on,0,0,6,,,,,,,,,5,,,67,92
23328,note_on,0,0,5,,,,,,,,,4,,,67,92
23376,note_on,336,0,3,,,,,,,,,2,,,59,0
23376,note_on,336,0,4,,,,,,,,,3,,,55,0
23376,note_on,336,0,1,,,,,,,,,0,,,71,0
23376,note_on,336,0,2,,,,,,,,,1,,,62,0
23422,note_on,0,0,5,,,,,,,,,4,,,67,0
23422,note_on,0,0,5,,,,,,,,,4,,,71,0
23422,note_on,0,0,6,,,,,,,,,5,,,71,0
23422,note_on,0,0,6,,,,,,,,,5,,,67,0
23422,note_on,94,0,6,,,,,,,,,5,,,62,0
23422,note_on,94,0,5,,,,,,,,,4,,,62,0
23422,note_on,0,0,7,,,,,,,,,6,,,67,0
23422,note_on,0,0,7,,,,,,,,,6,,,71,0
23422,note_on,94,0,7,,,,,,,,,6,,,62,0
23422,note_on,94,0,8,,,,,,,,,7,,,43,0
23424,note_on,0,0,6,,,,,,,,,5,,,71,92
23424,note_on,2,0,8,,,,,,,,,7,,,52,108
23424,note_on,0,0,6,,,,,,,,,5,,,68,92
23424,note_on,48,0,3,,,,,,,,,2,,,56,108
23424,note_on,48,0,1,,,,,,,,,0,,,71,108
23424,note_on,48,0,2,,,,,,,,,1,,,64,108
23424,note_on,2,0,6,,,,,,,,,5,,,64,92
23424,note_on,2,0,7,,,,,,,,,6,,,64,92
23424,note_on,0,0,7,,,,,,,,,6,,,71,92
23424,note_on,0,0,5,,,,,,,,,4,,,71,92
23424,note_on,0,0,5,,,,,,,,,4,,,68,92
23424,note_on,2,0,5,,,,,,,,,4,,,64,92
23424,note_on,48,0,4,,,,,,,,,3,,,52,108
23424,note_on,0,0,7,,,,,,,,,6,,,68,92
23518,note_on,94,0,5,,,,,,,,,4,,,64,0
23518,note_on,0,0,5,,,,,,,,,4,,,68,0
23518,note_on,0,0,5,,,,,,,,,4,,,71,0
23518,note_on,94,0,6,,,,,,,,,5,,,64,0
23518,note_on,0,0,6,,,,,,,,,5,,,68,0
23518,note_on,0,0,6,,,,,,,,,5,,,71,0
23518,note_on,0,0,7,,,,,,,,,6,,,68,0
23518,note_on,94,0,8,,,,,,,,,7,,,52,0
23518,note_on,94,0,7,,,,,,,,,6,,,64,0
23518,note_on,0,0,7,,,,,,,,,6,,,71,0
23520,note_on,2,0,7,,,,,,,,,6,,,76,92
23520,note_on,2,0,6,,,,,,,,,5,,,76,92
23520,note_on,2,0,5,,,,,,,,,4,,,76,92
23520,note_on,2,0,8,,,,,,,,,7,,,64,108
23614,note_on,94,0,6,,,,,,,,,5,,,76,0
23614,note_on,94,0,7,,,,,,,,,6,,,76,0
23614,note_on,94,0,5,,,,,,,,,4,,,76,0
23614,note_on,94,0,8,,,,,,,,,7,,,64,0
23616,note_on,0,0,7,,,,,,,,,6,,,71,92
23616,note_on,2,0,6,,,,,,,,,5,,,64,92
23616,note_on,0,0,6,,,,,,,,,5,,,68,92
23616,note_on,0,0,7,,,,,,,,,6,,,68,92
23616,note_on,2,0,7,,,,,,,,,6,,,64,92
23616,note_on,0,0,6,,,,,,,,,5,,,71,92
23616,note_on,0,0,5,,,,,,,,,4,,,71,92
23616,note_on,2,0,5,,,,,,,,,4,,,64,92
23616,note_on,0,0,5,,,,,,,,,4,,,68,92
23616,note_on,2,0,8,,,,,,,,,7,,,52,108
23680,note_on,256,0,3,,,,,,,,,2,,,56,0
23680,note_on,256,0,4,,,,,,,,,3,,,52,0
23680,note_on,256,0,2,,,,,,,,,1,,,64,0
23680,note_on,256,0,1,,,,,,,,,0,,,71,0
23710,note_on,0,0,6,,,,,,,,,5,,,71,0
23710,note_on,0,0,6,,,,,,,,,5,,,68,0
23710,note_on,0,0,5,,,,,,,,,4,,,71,0
23710,note_on,94,0,6,,,,,,,,,5,,,64,0
23710,note_on,94,0,5,,,,,,,,,4,,,64,0
23710,note_on,94,0,8,,,,,,,,,7,,,52,0
23710,note_on,94,0,7,,,,,,,,,6,,,64,0
23710,note_on,0,0,7,,,,,,,,,6,,,68,0
23710,note_on,0,0,7,,,,,,,,,6,,,71,0
23710,note_on,0,0,5,,,,,,,,,4,,,68,0
23712,note_on,0,0,5,,,,,,,,,4,,,68,92
23712,note_on,0,0,5,,,,,,,,,4,,,71,92
23712,note_on,32,0,1,,,,,,,,,0,,,71,108
23712,note_on,2,0,8,,,,,,,,,7,,,52,108
23712,note_on,32,0,2,,,,,,,,,1,,,64,108
23712,note_on,0,0,6,,,,,,,,,5,,,71,92
23712,note_on,0,0,6,,,,,,,,,5,,,68,92
23712,note_on,2,0,5,,,,,,,,,4,,,64,92
23712,note_on,2,0,6,,,,,,,,,5,,,64,92
23712,note_on,0,0,7,,,,,,,,,6,,,68,92
23712,note_on,0,0,7,,,,,,,,,6,,,71,92
23712,note_on,2,0,7,,,,,,,,,6,,,64,92
23712,note_on,32,0,4,,,,,,,,,3,,,52,108
23712,note_on,32,0,3,,,,,,,,,2,,,56,108
23806,note_on,0,0,7,,,,,,,,,6,,,68,0
23806,note_on,94,0,7,,,,,,,,,6,,,64,0
23806,note_on,94,0,8,,,,,,,,,7,,,52,0
23806,note_on,0,0,6,,,,,,,,,5,,,71,0
23806,note_on,94,0,5,,,,,,,,,4,,,64,0
23806,note_on,94,0,3,,,,,,,,,2,,,56,0
23806,note_on,0,0,7,,,,,,,,,6,,,71,0
23806,note_on,0,0,6,,,,,,,,,5,,,68,0
23806,note_on,94,0,2,,,,,,,,,1,,,64,0
23806,note_on,0,0,5,,,,,,,,,4,,,71,0
23806,note_on,0,0,5,,,,,,,,,4,,,68,0
23806,note_on,94,0,1,,,,,,,,,0,,,71,0
23806,note_on,94,0,4,,,,,,,,,3,,,52,0
23806,note_on,94,0,6,,,,,,,,,5,,,64,0
23808,note_on,0,0,6,,,,,,,,,5,,,68,92
23808,note_on,0,0,7,,,,,,,,,6,,,68,92
23808,note_on,0,0,6,,,,,,,,,5,,,71,92
23808,note_on,0,0,5,,,,,,,,,4,,,71,92
23808,note_on,0,0,7,,,,,,,,,6,,,71,92
23808,note_on,2,0,6,,,,,,,,,5,,,64,92
23808,note_on,2,0,4,,,,,,,,,3,,,52,108
23808,note_on,2,0,3,,,,,,,,,2,,,56,108
23808,note_on,2,0,2,,,,,,,,,1,,,64,108
23808,note_on,0,0,5,,,,,,,,,4,,,68,92
23808,note_on,2,0,5,,,,,,,,,4,,,64,92
23808,note_on,2,0,1,,,,,,,,,0,,,71,108
23808,note_on,2,0,7,,,,,,,,,6,,,64,92
23808,note_on,2,0,8,,,,,,,,,7,,,52,108
23902,note_on,0,0,5,,,,,,,,,4,,,71,0
23902,note_on,0,0,5,,,,,,,,,4,,,68,0
23902,note_on,94,0,5,,,,,,,,,4,,,64,0
23902,note_on,0,0,7,,,,,,,,,6,,,71,0
23902,note_on,0,0,7,,,,,,,,,6,,,68,0
23902,note_on,94,0,7,,,,,,,,,6,,,64,0
23902,note_on,94,0,6,,,,,,,,,5,,,64,0
23902,note_on,0,0,6,,,,,,,,,5,,,68,0
23902,note_on,94,0,8,,,,,,,,,7,,,52,0
23902,note_on,0,0,6,,,,,,,,,5,,,71,0
23904,note_on,2,0,8,,,,,,,,,7,,,64,108
23904,note_on,2,0,7,,,,,,,,,6,,,76,92
23904,note_on,2,0,5,,,,,,,,,4,,,76,92
23904,note_on,2,0,6,,,,,,,,,5,,,76,92
23998,note_on,94,0,8,,,,,,,,,7,,,64,0
23998,note_on,94,0,5,,,,,,,,,4,,,76,0
23998,note_on,94,0,6,,,,,,,,,5,,,76,0
23998,note_on,94,0,7,,,,,,,,,6,,,76,0
24000,note_on,2,0,5,,,,,,,,,4,,,64,92
24000,note_on,0,0,7,,,,,,,,,6,,,68,92
24000,note_on,0,0,7,,,,,,,,,6,,,71,92
24000,note_on,0,0,6,,,,,,,,,5,,,71,92
24000,note_on,0,0,6,,,,,,,,,5,,,68,92
24000,note_on,2,0,6,,,,,,,,,5,,,64,92
24000,note_on,2,0,7,,,,,,,,,6,,,64,92
24000,note_on,0,0,5,,,,,,,,,4,,,71,92
24000,note_on,0,0,5,,,,,,,,,4,,,68,92
24000,note_on,2,0,8,,,,,,,,,7,,,52,108
24094,note_on,0,0,5,,,,,,,,,4,,,71,0
24094,note_on,94,0,6,,,,,,,,,5,,,64,0
24094,note_on,94,0,8,,,,,,,,,7,,,52,0
24094,note_on,94,0,7,,,,,,,,,6,,,64,0
24094,note_on,0,0,7,,,,,,,,,6,,,68,0
24094,note_on,0,0,6,,,,,,,,,5,,,68,0
24094,note_on,0,0,7,,,,,,,,,6,,,71,0
24094,note_on,94,0,5,,,,,,,,,4,,,64,0
24094,note_on,0,0,5,,,,,,,,,4,,,68,0
24094,note_on,0,0,6,,,,,,,,,5,,,71,0
24096,note_on,0,0,7,,,,,,,,,6,,,68,92
24096,note_on,0,0,7,,,,,,,,,6,,,71,92
24096,note_on,2,0,8,,,,,,,,,7,,,52,108
24096,note_on,0,0,6,,,,,,,,,5,,,68,92
24096,note_on,0,0,6,,,,,,,,,5,,,71,92
24096,note_on,2,0,5,,,,,,,,,4,,,64,92
24096,note_on,2,0,7,,,,,,,,,6,,,64,92
24096,note_on,0,0,5,,,,,,,,,4,,,68,92
24096,note_on,2,0,6,,,,,,,,,5,,,64,92
24096,note_on,0,0,5,,,,,,,,,4,,,71,92
24144,note_on,336,0,2,,,,,,,,,1,,,64,0
24144,note_on,336,0,1,,,,,,,,,0,,,71,0
24144,note_on,336,0,3,,,,,,,,,2,,,56,0
24144,note_on,336,0,4,,,,,,,,,3,,,52,0
24190,note_on,0,0,7,,,,,,,,,6,,,71,0
24190,note_on,0,0,7,,,,,,,,,6,,,68,0
24190,note_on,94,0,7,,,,,,,,,6,,,64,0
24190,note_on,94,0,5,,,,,,,,,4,,,64,0
24190,note_on,0,0,5,,,,,,,,,4,,,71,0
24190,note_on,0,0,5,,,,,,,,,4,,,68,0
24190,note_on,0,0,6,,,,,,,,,5,,,68,0
24190,note_on,0,0,6,,,,,,,,,5,,,71,0
24190,note_on,94,0,8,,,,,,,,,7,,,52,0
24190,note_on,94,0,6,,,,,,,,,5,,,64,0
24192,note_on,48,0,3,,,,,,,,,2,,,61,108
24192,note_on,0,0,6,,,,,,,,,5,,,73,92
24192,note_on,48,0,2,,,,,,,,,1,,,64,108
24192,note_on,0,0,7,,,,,,,,,6,,,73,92
24192,note_on,48,0,4,,,,,,,,,3,,,57,108
24192,note_on,0,0,6,,,,,,,,,5,,,69,92
24192,note_on,48,0,1,,,,,,,,,0,,,73,108
24192,note_on,2,0,7,,,,,,,,,6,,,64,92
24192,note_on,0,0,5,,,,,,,,,4,,,73,92
24192,note_on,0,0,5,,,,,,,,,4,,,69,92
24192,note_on,2,0,8,,,,,,,,,7,,,45,108
24192,note_on,2,0,6,,,,,,,,,5,,,64,92
24192,note_on,2,0,5,,,,,,,,,4,,,64,92
24192,note_on,0,0,7,,,,,,,,,6,,,69,92
24286,note_on,0,0,7,,,,,,,,,6,,,73,0
24286,note_on,0,0,5,,,,,,,,,4,,,73,0
24286,note_on,94,0,6,,,,,,,,,5,,,64,0
24286,note_on,94,0,7,,,,,,,,,6,,,64,0
24286,note_on,0,0,5,,,,,,,,,4,,,69,0
24286,note_on,94,0,5,,,,,,,,,4,,,64,0
24286,note_on,0,0,7,,,,,,,,,6,,,69,0
24286,note_on,0,0,6,,,,,,,,,5,,,69,0
24286,note_on,94,0,8,,,,,,,,,7,,,45,0
24286,note_on,0,0,6,,,,,,,,,5,,,73,0
24288,note_on,2,0,8,,,,,,,,,7,,,57,108
24288,note_on,2,0,7,,,,,,,,,6,,,76,92
24288,note_on,2,0,5,,,,,,,,,4,,,76,92
24288,note_on,2,0,6,,,,,,,,,5,,,76,92
24382,note_on,94,0,8,,,,,,,,,7,,,57,0
24382,note_on,94,0,7,,,,,,,,,6,,,76,0
24382,note_on,94,0,5,,,,,,,,,4,,,76,0
24382,note_on,94,0,6,,,,,,,,,5,,,76,0
24384,note_on,2,0,7,,,,,,,,,6,,,64,92
24384,note_on,0,0,7,,,,,,,,,6,,,73,92
24384,note_on,0,0,7,,,,,,,,,6,,,69,92
24384,note_on,2,0,8,,,,,,,,,7,,,45,108
24384,note_on,0,0,6,,,,,,,,,5,,,69,92
24384,note_on,0,0,6,,,,,,,,,5,,,73,92
24384,note_on,2,0,6,,,,,,,,,5,,,64,92
24384,note_on,0,0,5,,,,,,,,,4,,,73,92
24384,note_on,0,0,5,,,,,,,,,4,,,69,92
24384,note_on,2,0,5,,,,,,,,,4,,,64,92
24448,note_on,256,0,2,,,,,,,,,1,,,64,0
24448,note_on,256,0,3,,,,,,,,,2,,,61,0
24448,note_on,256,0,4,,,,,,,,,3,,,57,0
24448,note_on,256,0,1,,,,,,,,,0,,,73,0
24478,note_on,94,0,7,,,,,,,,,6,,,64,0
24478,note_on,94,0,8,,,,,,,,,7,,,45,0
24478,note_on,94,0,6,,,,,,,,,5,,,64,0
24478,note_on,0,0,6,,,,,,,,,5,,,69,0
24478,note_on,0,0,6,,,,,,,,,5,,,73,0
24478,note_on,0,0,5,,,,,,,,,4,,,73,0
24478,note_on,0,0,5,,,,,,,,,4,,,69,0
24478,note_on,94,0,5,,,,,,,,,4,,,64,0
24478,note_on,0,0,7,,,,,,,,,6,,,69,0
24478,note_on,0,0,7,,,,,,,,,6,,,73,0
24480,note_on,32,0,3,,,,,,,,,2,,,61,108
24480,note_on,0,0,7,,,,,,,,,6,,,73,92
24480,note_on,32,0,4,,,,,,,,,3,,,57,108
24480,note_on,32,0,2,,,,,,,,,1,,,64,108
24480,note_on,2,0,6,,,,,,,,,5,,,64,92
24480,note_on,0,0,7,,,,,,,,,6,,,69,92
24480,note_on,2,0,5,,,,,,,,,4,,,64,92
24480,note_on,0,0,6,,,,,,,,,5,,,69,92
24480,note_on,2,0,8,,,,,,,,,7,,,45,108
24480,note_on,0,0,5,,,,,,,,,4,,,69,92
24480,note_on,0,0,5,,,,,,,,,4,,,73,92
24480,note_on,0,0,6,,,,,,,,,5,,,73,92
24480,note_on,32,0,1,,,,,,,,,0,,,73,108
24480,note_on,2,0,7,,,,,,,,,6,,,64,92
24574,note_on,94,0,6,,,,,,,,,5,,,64,0
24574,note_on,0,0,6,,,,,,,,,5,,,69,0
24574,note_on,0,0,6,,,,,,,,,5,,,73,0
24574,note_on,94,0,1,,,,,,,,,0,,,73,0
24574,note_on,0,0,7,,,,,,,,,6,,,69,0
24574,note_on,0,0,7,,,,,,,,,6,,,73,0
24574,note_on,94,0,3,,,,,,,,,2,,,61,0
24574,note_on,94,0,4,,,,,,,,,3,,,57,0
24574,note_on,94,0,8,,,,,,,,,7,,,45,0
24574,note_on,94,0,5,,,,,,,,,4,,,64,0
24574,note_on,0,0,5,,,,,,,,,4,,,69,0
24574,note_on,0,0,5,,,,,,,,,4,,,73,0
24574,note_on,94,0,2,,,,,,,,,1,,,64,0
24574,note_on,94,0,7,,,,,,,,,6,,,64,0
24576,note_on,2,0,3,,,,,,,,,2,,,61,108
24576,note_on,0,0,6,,,,,,,,,5,,,73,92
24576,note_on,2,0,7,,,,,,,,,6,,,64,92
24576,note_on,2,0,6,,,,,,,,,5,,,64,92
24576,note_on,0,0,7,,,,,,,,,6,,,69,92
24576,note_on,0,0,7,,,,,,,,,6,,,73,92
24576,note_on,2,0,1,,,,,,,,,0,,,73,108
24576,note_on,0,0,6,,,,,,,,,5,,,69,92
24576,note_on,0,0,5,,,,,,,,,4,,,73,92
24576,note_on,2,0,5,,,,,,,,,4,,,64,92
24576,note_on,2,0,4,,,,,,,,,3,,,57,108
24576,note_on,2,0,8,,,,,,,,,7,,,45,108
24576,note_on,0,0,5,,,,,,,,,4,,,69,92
24576,note_on,2,0,2,,,,,,,,,1,,,64,108
24670,note_on,94,0,7,,,,,,,,,6,,,64,0
24670,note_on,94,0,8,,,,,,,,,7,,,45,0
24670,note_on,94,0,5,,,,,,,,,4,,,64,0
24670,note_on,0,0,7,,,,,,,,,6,,,69,0
24670,note_on,0,0,5,,,,,,,,,4,,,69,0
24670,note_on,0,0,6,,,,,,,,,5,,,73,0
24670,note_on,0,0,6,,,,,,,,,5,,,69,0
24670,note_on,94,0,6,,,,,,,,,5,,,64,0
24670,note_on,0,0,7,,,,,,,,,6,,,73,0
24670,note_on,0,0,5,,,,,,,,,4,,,73,0
24672,note_on,2,0,5,,,,,,,,,4,,,76,92
24672,note_on,2,0,7,,,,,,,,,6,,,76,92
24672,note_on,2,0,8,,,,,,,,,7,,,57,108
24672,note_on,2,0,6,,,,,,,,,5,,,76,92
24766,note_on,94,0,7,,,,,,,,,6,,,76,0
24766,note_on,94,0,6,,,,,,,,,5,,,76,0
24766,note_on,94,0,5,,,,,,,,,4,,,76,0
24766,note_on,94,0,8,,,,,,,,,7,,,57,0
24768,note_on,2,0,8,,,,,,,,,7,,,45,108
24768,note_on,2,0,6,,,,,,,,,5,,,64,92
24768,note_on,2,0,5,,,,,,,,,4,,,64,92
24768,note_on,0,0,5,,,,,,,,,4,,,69,92
24768,note_on,0,0,7,,,,,,,,,6,,,73,92
24768,note_on,0,0,7,,,,,,,,,6,,,69,92
24768,note_on,2,0,7,,,,,,,,,6,,,64,92
24768,note_on,0,0,5,,,,,,,,,4,,,73,92
24768,note_on,0,0,6,,,,,,,,,5,,,73,92
24768,note_on,0,0,6,,,,,,,,,5,,,69,92
24862,note_on,0,0,6,,,,,,,,,5,,,69,0
24862,note_on,0,0,6,,,,,,,,,5,,,73,0
24862,note_on,94,0,6,,,,,,,,,5,,,64,0
24862,note_on,0,0,5,,,,,,,,,4,,,73,0
24862,note_on,94,0,7,,,,,,,,,6,,,64,0
24862,note_on,0,0,7,,,,,,,,,6,,,69,0
24862,note_on,0,0,7,,,,,,,,,6,,,73,0
24862,note_on,94,0,8,,,,,,,,,7,,,45,0
24862,note_on,94,0,5,,,,,,,,,4,,,64,0
24862,note_on,0,0,5,,,,,,,,,4,,,69,0
24864,note_on,0,0,7,,,,,,,,,6,,,69,92
24864,note_on,0,0,7,,,,,,,,,6,,,73,92
24864,note_on,2,0,8,,,,,,,,,7,,,45,108
24864,note_on,2,0,5,,,,,,,,,4,,,64,92
24864,note_on,2,0,7,,,,,,,,,6,,,64,92
24864,note_on,0,0,6,,,,,,,,,5,,,69,92
24864,note_on,0,0,6,,,,,,,,,5,,,73,92
24864,note_on,0,0,5,,,,,,,,,4,,,69,92
24864,note_on,2,0,6,,,,,,,,,5,,,64,92
24864,note_on,0,0,5,,,,,,,,,4,,,73,92
24912,note_on,336,0,2,,,,,,,,,1,,,64,0
24912,note_on,336,0,3,,,,,,,,,2,,,61,0
24912,note_on,336,0,4,,,,,,,,,3,,,57,0
24912,note_on,336,0,1,,,,,,,,,0,,,73,0
24958,note_on,0,0,6,,,,,,,,,5,,,73,0
24958,note_on,0,0,7,,,,,,,,,6,,,73,0
24958,note_on,0,0,6,,,,,,,,,5,,,69,0
24958,note_on,94,0,5,,,,,,,,,4,,,64,0
24958,note_on,94,0,8,,,,,,,,,7,,,45,0
24958,note_on,0,0,5,,,,,,,,,4,,,73,0
24958,note_on,0,0,7,,,,,,,,,6,,,69,0
24958,note_on,94,0,6,,,,,,,,,5,,,64,0
24958,note_on,0,0,5,,,,,,,,,4,,,69,0
24958,note_on,94,0,7,,,,,,,,,6,,,64,0
24960,note_on,0,0,6,,,,,,,,,5,,,73,92
24960,note_on,2,0,5,,,,,,,,,4,,,66,92
24960,note_on,0,0,6,,,,,,,,,5,,,70,92
24960,note_on,48,0,3,,,,,,,,,2,,,58,108
24960,note_on,48,0,1,,,,,,,,,0,,,73,108
24960,note_on,48,0,4,,,,,,,,,3,,,54,108
24960,note_on,48,0,2,,,,,,,,,1,,,66,108
24960,note_on,0,0,7,,,,,,,,,6,,,70,92
24960,note_on,0,0,7,,,,,,,,,6,,,73,92
24960,note_on,2,0,7,,,,,,,,,6,,,66,92
24960,note_on,2,0,8,,,,,,,,,7,,,54,108
24960,note_on,2,0,6,,,,,,,,,5,,,66,92
24960,note_on,0,0,5,,,,,,,,,4,,,70,92
24960,note_on,0,0,5,,,,,,,,,4,,,73,92
25054,note_on,0,0,6,,,,,,,,,5,,,73,0
25054,note_on,0,0,7,,,,,,,,,6,,,73,0
25054,note_on,0,0,7,,,,,,,,,6,,,70,0
25054,note_on,94,0,7,,,,,,,,,6,,,66,0
25054,note_on,94,0,8,,,,,,,,,7,,,54,0
25054,note_on,0,0,5,,,,,,,,,4,,,73,0
25054,note_on,0,0,6,,,,,,,,,5,,,70,0
25054,note_on,94,0,5,,,,,,,,,4,,,66,0
25054,note_on,0,0,5,,,,,,,,,4,,,70,0
25054,note_on,94,0,6,,,,,,,,,5,,,66,0
25056,note_on,2,0,5,,,,,,,,,4,,,78,92
25056,note_on,2,0,8,,,,,,,,,7,,,58,108
25056,note_on,2,0,6,,,,,,,,,5,,,78,92
25056,note_on,2,0,7,,,,,,,,,6,,,78,92
25150,note_on,94,0,8,,,,,,,,,7,,,58,0
25150,note_on,94,0,5,,,,,,,,,4,,,78,0
25150,note_on,94,0,6,,,,,,,,,5,,,78,0
25150,note_on,94,0,7,,,,,,,,,6,,,78,0
25152,note_on,0,0,6,,,,,,,,,5,,,70,92
25152,note_on,0,0,6,,,,,,,,,5,,,73,92
25152,note_on,0,0,7,,,,,,,,,6,,,73,92
25152,note_on,0,0,5,,,,,,,,,4,,,70,92
25152,note_on,2,0,7,,,,,,,,,6,,,66,92
25152,note_on,0,0,5,,,,,,,,,4,,,73,92
25152,note_on,2,0,5,,,,,,,,,4,,,66,92
25152,note_on,2,0,8,,,,,,,,,7,,,54,108
25152,note_on,2,0,6,,,,,,,,,5,,,66,92
25152,note_on,0,0,7,,,,,,,,,6,,,70,92
25246,note_on,94,0,6,,,,,,,,,5,,,66,0
25246,note_on,0,0,6,,,,,,,,,5,,,73,0
25246,note_on,0,0,6,,,,,,,,,5,,,70,0
25246,note_on,0,0,7,,,,,,,,,6,,,73,0
25246,note_on,94,0,8,,,,,,,,,7,,,54,0
25246,note_on,0,0,7,,,,,,,,,6,,,70,0
25246,note_on,94,0,7,,,,,,,,,6,,,66,0
25246,note_on,94,0,5,,,,,,,,,4,,,66,0
25246,note_on,0,0,5,,,,,,,,,4,,,70,0
25246,note_on,0,0,5,,,,,,,,,4,,,73,0
25248,note_on,2,0,5,,,,,,,,,4,,,66,92
25248,note_on,0,0,5,,,,,,,,,4,,,73,92
25248,note_on,0,0,5,,,,,,,,,4,,,70,92
25248,note_on,0,0,6,,,,,,,,,5,,,73,92
25248,note_on,0,0,6,,,,,,,,,5,,,70,92
25248,note_on,2,0,6,,,,,,,,,5,,,66,92
25248,note_on,2,0,8,,,,,,,,,7,,,54,108
25248,note_on,2,0,7,,,,,,,,,6,,,66,92
25248,note_on,0,0,7,,,,,,,,,6,,,70,92
25248,note_on,0,0,7,,,,,,,,,6,,,73,92
25296,note_on,336,0,2,,,,,,,,,1,,,66,0
25296,note_on,336,0,3,,,,,,,,,2,,,58,0
25296,note_on,336,0,4,,,,,,,,,3,,,54,0
25296,note_on,336,0,1,,,,,,,,,0,,,73,0
25342,note_on,0,0,7,,,,,,,,,6,,,73,0
25342,note_on,94,0,7,,,,,,,,,6,,,66,0
25342,note_on,0,0,7,,,,,,,,,6,,,70,0
25342,note_on,0,0,6,,,,,,,,,5,,,73,0
25342,note_on,0,0,6,,,,,,,,,5,,,70,0
25342,note_on,0,0,5,,,,,,,,,4,,,73,0
25342,note_on,0,0,5,,,,,,,,,4,,,70,0
25342,note_on,94,0,6,,,,,,,,,5,,,66,0
25342,note_on,94,0,8,,,,,,,,,7,,,54,0
25342,note_on,94,0,5,,,,,,,,,4,,,66,0
25344,note_on,2,0,5,,,,,,,,,4,,,66,92
25344,note_on,0,0,7,,,,,,,,,6,,,70,92
25344,note_on,2,0,7,,,,,,,,,6,,,66,92
25344,note_on,48,0,1,,,,,,,,,0,,,73,108
25344,note_on,48,0,4,,,,,,,,,3,,,54,108
25344,note_on,48,0,3,,,,,,,,,2,,,58,108
25344,note_on,48,0,2,,,,,,,,,1,,,66,108
25344,note_on,2,0,8,,,,,,,,,7,,,54,108
25344,note_on,2,0,6,,,,,,,,,5,,,66,92
25344,note_on,0,0,6,,,,,,,,,5,,,70,92
25344,note_on,0,0,6,,,,,,,,,5,,,73,92
25344,note_on,0,0,5,,,,,,,,,4,,,70,92
25344,note_on,0,0,5,,,,,,,,,4,,,73,92
25344,note_on,0,0,7,,,,,,,,,6,,,73,92
25438,note_on,0,0,5,,,,,,,,,4,,,70,0
25438,note_on,0,0,5,,,,,,,,,4,,,73,0
25438,note_on,0,0,6,,,,,,,,,5,,,73,0
25438,note_on,0,0,6,,,,,,,,,5,,,70,0
25438,note_on,94,0,6,,,,,,,,,5,,,66,0
25438,note_on,94,0,8,,,,,,,,,7,,,54,0
25438,note_on,94,0,5,,,,,,,,,4,,,66,0
25438,note_on,94,0,7,,,,,,,,,6,,,66,0
25438,note_on,0,0,7,,,,,,,,,6,,,70,0
25438,note_on,0,0,7,,,,,,,,,6,,,73,0
25440,note_on,2,0,5,,,,,,,,,4,,,78,92
25440,note_on,2,0,6,,,,,,,,,5,,,78,92
25440,note_on,2,0,8,,,,,,,,,7,,,58,108
25440,note_on,2,0,7,,,,,,,,,6,,,78,92
25534,note_on,94,0,8,,,,,,,,,7,,,58,0
25534,note_on,94,0,6,,,,,,,,,5,,,78,0
25534,note_on,94,0,7,,,,,,,,,6,,,78,0
25534,note_on,94,0,5,,,,,,,,,4,,,78,0
25536,note_on,2,0,7,,,,,,,,,6,,,66,92
25536,note_on,0,0,7,,,,,,,,,6,,,73,92
25536,note_on,0,0,6,,,,,,,,,5,,,73,92
25536,note_on,0,0,6,,,,,,,,,5,,,70,92
25536,note_on,2,0,8,,,,,,,,,7,,,54,108
25536,note_on,0,0,5,,,,,,,,,4,,,70,92
25536,note_on,2,0,5,,,,,,,,,4,,,66,92
25536,note_on,2,0,6,,,,,,,,,5,,,66,92
25536,note_on,0,0,7,,,,,,,,,6,,,70,92
25536,note_on,0,0,5,,,,,,,,,4,,,73,92
25630,note_on,94,0,7,,,,,,,,,6,,,70,0
25630,note_on,0,0,6,,,,,,,,,5,,,70,0
25630,note_on,0,0,6,,,,,,,,,5,,,73,0
25630,note_on,0,0,7,,,,,,,,,6,,,66,0
25630,note_on,94,0,6,,,,,,,,,5,,,66,0
25630,note_on,0,0,7,,,,,,,,,6,,,73,0
25630,note_on,94,0,5,,,,,,,,,4,,,66,0
25630,note_on,0,0,5,,,,,,,,,4,,,70,0
25630,note_on,0,0,5,,,,,,,,,4,,,73,0
25630,note_on,94,0,8,,,,,,,,,7,,,54,0
25632,note_on,2,0,8,,,,,,,,,7,,,54,108
25632,note_on,2,0,6,,,,,,,,,5,,,66,92
25632,note_on,0,0,6,,,,,,,,,5,,,70,92
25632,note_on,0,0,6,,,,,,,,,5,,,73,92
25632,note_on,0,0,7,,,,,,,,,6,,,70,92
25632,note_on,0,0,7,,,,,,,,,6,,,73,92
25632,note_on,0,0,5,,,,,,,,,4,,,73,92
25632,note_on,0,0,5,,,,,,,,,4,,,70,92
25632,note_on,2,0,5,,,,,,,,,4,,,66,92
25632,note_on,2,0,7,,,,,,,,,6,,,66,92
25680,note_on,336,0,3,,,,,,,,,2,,,58,0
25680,note_on,336,0,4,,,,,,,,,3,,,54,0
25680,note_on,336,0,1,,,,,,,,,0,,,73,0
25680,note_on,336,0,2,,,,,,,,,1,,,66,0
25726,note_on,0,0,7,,,,,,,,,6,,,73,0
25726,note_on,0,0,5,,,,,,,,,4,,,73,0
25726,note_on,0,0,5,,,,,,,,,4,,,70,0
25726,note_on,94,0,5,,,,,,,,,4,,,66,0
25726,note_on,94,0,8,,,,,,,,,7,,,54,0
25726,note_on,0,0,7,,,,,,,,,6,,,70,0
25726,note_on,0,0,6,,,,,,,,,5,,,70,0
25726,note_on,0,0,6,,,,,,,,,5,,,73,0
25726,note_on,94,0,6,,,,,,,,,5,,,66,0
25726,note_on,94,0,7,,,,,,,,,6,,,66,0
25728,note_on,48,0,3,,,,,,,,,2,,,59,108
25728,note_on,48,0,4,,,,,,,,,3,,,54,108
25728,note_on,48,0,1,,,,,,,,,0,,,74,108
25728,note_on,2,0,8,,,,,,,,,7,,,54,108
25728,note_on,2,0,5,,,,,,,,,4,,,71,92
25728,note_on,0,0,7,,,,,,,,,6,,,74,92
25728,note_on,0,0,5,,,,,,,,,4,,,74,92
25728,note_on,2,0,7,,,,,,,,,6,,,71,92
25728,note_on,2,0,6,,,,,,,,,5,,,71,92
25728,note_on,0,0,6,,,,,,,,,5,,,74,92
25728,note_on,48,0,2,,,,,,,,,1,,,66,108
25822,note_on,94,0,6,,,,,,,,,5,,,71,0
25822,note_on,94,0,7,,,,,,,,,6,,,71,0
25822,note_on,0,0,5,,,,,,,,,4,,,74,0
25822,note_on,0,0,6,,,,,,,,,5,,,74,0
25822,note_on,0,0,7,,,,,,,,,6,,,74,0
25822,note_on,94,0,8,,,,,,,,,7,,,54,0
25822,note_on,94,0,5,,,,,,,,,4,,,71,0
25824,note_on,2,0,7,,,,,,,,,6,,,83,92
25824,note_on,2,0,6,,,,,,,,,5,,,83,92
25824,note_on,2,0,5,,,,,,,,,4,,,83,92
25824,note_on,2,0,8,,,,,,,,,7,,,59,108
25918,note_on,94,0,8,,,,,,,,,7,,,59,0
25918,note_on,94,0,6,,,,,,,,,5,,,83,0
25918,note_on,94,0,7,,,,,,,,,6,,,83,0
25918,note_on,94,0,5,,,,,,,,,4,,,83,0
25920,note_on,2,0,5,,,,,,,,,4,,,71,92
25920,note_on,0,0,5,,,,,,,,,4,,,74,92
25920,note_on,2,0,7,,,,,,,,,6,,,71,92
25920,note_on,0,0,7,,,,,,,,,6,,,74,92
25920,note_on,2,0,6,,,,,,,,,5,,,71,92
25920,note_on,0,0,6,,,,,,,,,5,,,74,92
25920,note_on,2,0,8,,,,,,,,,7,,,54,108
26014,note_on,94,0,7,,,,,,,,,6,,,71,0
26014,note_on,94,0,5,,,,,,,,,4,,,71,0
26014,note_on,0,0,7,,,,,,,,,6,,,74,0
26014,note_on,94,0,6,,,,,,,,,5,,,71,0
26014,note_on,0,0,6,,,,,,,,,5,,,74,0
26014,note_on,0,0,5,,,,,,,,,4,,,74,0
26014,note_on,94,0,8,,,,,,,,,7,,,54,0
26016,note_on,2,0,7,,,,,,,,,6,,,71,92
26016,note_on,0,0,7,,,,,,,,,6,,,74,92
26016,note_on,2,0,6,,,,,,,,,5,,,71,92
26016,note_on,0,0,6,,,,,,,,,5,,,74,92
26016,note_on,2,0,5,,,,,,,,,4,,,71,92
26016,note_on,0,0,5,,,,,,,,,4,,,74,92
26016,note_on,2,0,8,,,,,,,,,7,,,54,108
26064,note_on,336,0,4,,,,,,,,,3,,,54,0
26064,note_on,336,0,3,,,,,,,,,2,,,59,0
26064,note_on,336,0,1,,,,,,,,,0,,,74,0
26064,note_on,336,0,2,,,,,,,,,1,,,66,0
26110,note_on,94,0,6,,,,,,,,,5,,,71,0
26110,note_on,94,0,8,,,,,,,,,7,,,54,0
26110,note_on,0,0,5,,,,,,,,,4,,,74,0
26110,note_on,0,0,7,,,,,,,,,6,,,74,0
26110,note_on,94,0,7,,,,,,,,,6,,,71,0
26110,note_on,94,0,5,,,,,,,,,4,,,71,0
26110,note_on,0,0,6,,,,,,,,,5,,,74,0
26112,note_on,0,0,5,,,,,,,,,4,,,74,92
26112,note_on,2,0,5,,,,,,,,,4,,,71,92
26112,note_on,48,0,4,,,,,,,,,3,,,54,108
26112,note_on,0,0,7,,,,,,,,,6,,,74,92
26112,note_on,2,0,8,,,,,,,,,7,,,54,108
26112,note_on,48,0,1,,,,,,,,,0,,,71,108
26112,note_on,2,0,6,,,,,,,,,5,,,71,92
26112,note_on,0,0,6,,,,,,,,,5,,,74,92
26112,note_on,2,0,7,,,,,,,,,6,,,71,92
26112,note_on,48,0,3,,,,,,,,,2,,,62,108
26112,note_on,48,0,2,,,,,,,,,1,,,66,108
26206,note_on,0,0,6,,,,,,,,,5,,,74,0
26206,note_on,94,0,6,,,,,,,,,5,,,71,0
26206,note_on,0,0,5,,,,,,,,,4,,,74,0
26206,note_on,0,0,7,,,,,,,,,6,,,74,0
26206,note_on,94,0,5,,,,,,,,,4,,,71,0
26206,note_on,94,0,8,,,,,,,,,7,,,54,0
26206,note_on,94,0,7,,,,,,,,,6,,,71,0
26208,note_on,2,0,6,,,,,,,,,5,,,83,92
26208,note_on,2,0,5,,,,,,,,,4,,,83,92
26208,note_on,2,0,7,,,,,,,,,6,,,83,92
26208,note_on,2,0,8,,,,,,,,,7,,,59,108
26302,note_on,94,0,5,,,,,,,,,4,,,83,0
26302,note_on,94,0,8,,,,,,,,,7,,,59,0
26302,note_on,94,0,7,,,,,,,,,6,,,83,0
26302,note_on,94,0,6,,,,,,,,,5,,,83,0
26304,note_on,2,0,7,,,,,,,,,6,,,71,92
26304,note_on,0,0,7,,,,,,,,,6,,,74,92
26304,note_on,0,0,5,,,,,,,,,4,,,74,92
26304,note_on,2,0,5,,,,,,,,,4,,,71,92
26304,note_on,0,0,6,,,,,,,,,5,,,74,92
26304,note_on,2,0,6,,,,,,,,,5,,,71,92
26304,note_on,2,0,8,,,,,,,,,7,,,54,108
26398,note_on,0,0,5,,,,,,,,,4,,,74,0
26398,note_on,94,0,7,,,,,,,,,6,,,71,0
26398,note_on,0,0,7,,,,,,,,,6,,,74,0
26398,note_on,94,0,5,,,,,,,,,4,,,71,0
26398,note_on,94,0,6,,,,,,,,,5,,,71,0
26398,note_on,94,0,8,,,,,,,,,7,,,54,0
26398,note_on,0,0,6,,,,,,,,,5,,,74,0
26400,note_on,2,0,5,,,,,,,,,4,,,71,92
26400,note_on,2,0,8,,,,,,,,,7,,,54,108
26400,note_on,0,0,6,,,,,,,,,5,,,74,92
26400,note_on,0,0,7,,,,,,,,,6,,,74,92
26400,note_on,2,0,6,,,,,,,,,5,,,71,92
26400,note_on,2,0,7,,,,,,,,,6,,,71,92
26400,note_on,0,0,5,,,,,,,,,4,,,74,92
26448,note_on,336,0,3,,,,,,,,,2,,,62,0
26448,note_on,336,0,4,,,,,,,,,3,,,54,0
26448,note_on,336,0,2,,,,,,,,,1,,,66,0
26448,note_on,336,0,1,,,,,,,,,0,,,71,0
26494,note_on,94,0,7,,,,,,,,,6,,,71,0
26494,note_on,0,0,7,,,,,,,,,6,,,74,0
26494,note_on,0,0,6,,,,,,,,,5,,,74,0
26494,note_on,94,0,6,,,,,,,,,5,,,71,0
26494,note_on,94,0,5,,,,,,,,,4,,,71,0
26494,note_on,0,0,5,,,,,,,,,4,,,74,0
26494,note_on,94,0,8,,,,,,,,,7,,,54,0
26496,note_on,48,0,3,,,,,,,,,2,,,61,108
26496,note_on,48,0,2,,,,,,,,,1,,,66,108
26496,note_on,2,0,8,,,,,,,,,7,,,54,108
26496,note_on,0,0,5,,,,,,,,,4,,,73,92
26496,note_on,2,0,5,,,,,,,,,4,,,71,92
26496,note_on,0,0,6,,,,,,,,,5,,,73,92
26496,note_on,0,0,7,,,,,,,,,6,,,73,92
26496,note_on,2,0,7,,,,,,,,,6,,,71,92
26496,note_on,48,0,1,,,,,,,,,0,,,71,108
26496,note_on,48,0,4,,,,,,,,,3,,,54,108
26496,note_on,2,0,6,,,,,,,,,5,,,71,92
26590,note_on,0,0,6,,,,,,,,,5,,,73,0
26590,note_on,94,0,8,,,,,,,,,7,,,54,0
26590,note_on,94,0,7,,,,,,,,,6,,,71,0
26590,note_on,0,0,7,,,,,,,,,6,,,73,0
26590,note_on,0,0,5,,,,,,,,,4,,,73,0
26590,note_on,94,0,5,,,,,,,,,4,,,71,0
26590,note_on,94,0,6,,,,,,,,,5,,,71,0
26592,note_on,2,0,7,,,,,,,,,6,,,83,92
26592,note_on,2,0,5,,,,,,,,,4,,,83,92
26592,note_on,2,0,8,,,,,,,,,7,,,59,108
26592,note_on,2,0,6,,,,,,,,,5,,,83,92
26686,note_on,94,0,5,,,,,,,,,4,,,83,0
26686,note_on,94,0,8,,,,,,,,,7,,,59,0
26686,note_on,94,0,7,,,,,,,,,6,,,83,0
26686,note_on,94,0,6,,,,,,,,,5,,,83,0
26688,note_on,0,0,6,,,,,,,,,5,,,73,92
26688,note_on,0,0,7,,,,,,,,,6,,,73,92
26688,note_on,2,0,7,,,,,,,,,6,,,71,92
26688,note_on,0,0,5,,,,,,,,,4,,,73,92
26688,note_on,2,0,6,,,,,,,,,5,,,71,92
26688,note_on,2,0,5,,,,,,,,,4,,,71,92
26688,note_on,2,0,8,,,,,,,,,7,,,54,108
26782,note_on,94,0,8,,,,,,,,,7,,,54,0
26782,note_on,94,0,5,,,,,,,,,4,,,71,0
26782,note_on,0,0,5,,,,,,,,,4,,,73,0
26782,note_on,94,0,6,,,,,,,,,5,,,71,0
26782,note_on,0,0,6,,,,,,,,,5,,,73,0
26782,note_on,0,0,7,,,,,,,,,6,,,73,0
26782,note_on,94,0,7,,,,,,,,,6,,,71,0
26784,note_on,2,0,6,,,,,,,,,5,,,71,92
26784,note_on,0,0,6,,,,,,,,,5,,,73,92
26784,note_on,2,0,7,,,,,,,,,6,,,71,92
26784,note_on,0,0,7,,,,,,,,,6,,,73,92
26784,note_on,2,0,8,,,,,,,,,7,,,54,108
26784,note_on,0,0,5,,,,,,,,,4,,,73,92
26784,note_on,2,0,5,,,,,,,,,4,,,71,92
26878,note_on,0,0,5,,,,,,,,,4,,,73,0
26878,note_on,0,0,6,,,,,,,,,5,,,73,0
26878,note_on,94,0,7,,,,,,,,,6,,,71,0
26878,note_on,0,0,7,,,,,,,,,6,,,73,0
26878,note_on,94,0,5,,,,,,,,,4,,,71,0
26878,note_on,94,0,6,,,,,,,,,5,,,71,0
26878,note_on,94,0,8,,,,,,,,,7,,,54,0
26880,note_on,2,0,7,,,,,,,,,6,,,70,92
26880,note_on,0,0,7,,,,,,,,,6,,,73,92
26880,note_on,0,0,6,,,,,,,,,5,,,73,92
26880,note_on,2,0,5,,,,,,,,,4,,,70,92
26880,note_on,2,0,8,,,,,,,,,7,,,54,108
26880,note_on,2,0,6,,,,,,,,,5,,,70,92
26880,note_on,0,0,1,,,,,,,,,0,,,70,108
26880,note_on,384,0,1,,,,,,,,,0,,,71,0
26880,note_on,0,0,5,,,,,,,,,4,,,73,92
26974,note_on,94,0,5,,,,,,,,,4,,,70,0
26974,note_on,94,0,8,,,,,,,,,7,,,54,0
26974,note_on,0,0,5,,,,,,,,,4,,,73,0
26974,note_on,94,0,7,,,,,,,,,6,,,70,0
26974,note_on,0,0,7,,,,,,,,,6,,,73,0
26974,note_on,94,0,6,,,,,,,,,5,,,70,0
26974,note_on,0,0,6,,,,,,,,,5,,,73,0
26976,note_on,2,0,7,,,,,,,,,6,,,82,92
26976,note_on,2,0,8,,,,,,,,,7,,,58,108
26976,note_on,2,0,5,,,,,,,,,4,,,82,92
26976,note_on,2,0,6,,,,,,,,,5,,,82,92
27070,note_on,94,0,7,,,,,,,,,6,,,82,0
27070,note_on,94,0,6,,,,,,,,,5,,,82,0
27070,note_on,94,0,8,,,,,,,,,7,,,58,0
27070,note_on,94,0,5,,,,,,,,,4,,,82,0
27072,note_on,0,0,6,,,,,,,,,5,,,73,92
27072,note_on,2,0,8,,,,,,,,,7,,,54,108
27072,note_on,0,0,5,,,,,,,,,4,,,73,92
27072,note_on,2,0,6,,,,,,,,,5,,,70,92
27072,note_on,2,0,7,,,,,,,,,6,,,70,92
27072,note_on,2,0,5,,,,,,,,,4,,,70,92
27072,note_on,0,0,7,,,,,,,,,6,,,73,92
27166,note_on,94,0,7,,,,,,,,,6,,,70,0
27166,note_on,0,0,7,,,,,,,,,6,,,73,0
27166,note_on,0,0,6,,,,,,,,,5,,,73,0
27166,note_on,0,0,5,,,,,,,,,4,,,73,0
27166,note_on,94,0,5,,,,,,,,,4,,,70,0
27166,note_on,94,0,6,,,,,,,,,5,,,70,0
27166,note_on,94,0,8,,,,,,,,,7,,,54,0
27168,note_on,2,0,7,,,,,,,,,6,,,70,92
27168,note_on,2,0,8,,,,,,,,,7,,,54,108
27168,note_on,0,0,7,,,,,,,,,6,,,73,92
27168,note_on,0,0,6,,,,,,,,,5,,,73,92
27168,note_on,2,0,5,,,,,,,,,4,,,70,92
27168,note_on,2,0,6,,,,,,,,,5,,,70,92
27168,note_on,0,0,5,,,,,,,,,4,,,73,92
27216,note_on,720,0,2,,,,,,,,,1,,,66,0
27216,note_on,720,0,3,,,,,,,,,2,,,61,0
27216,note_on,720,0,4,,,,,,,,,3,,,54,0
27216,note_on,336,0,1,,,,,,,,,0,,,70,0
27262,note_on,94,0,5,,,,,,,,,4,,,70,0
27262,note_on,0,0,5,,,,,,,,,4,,,73,0
27262,note_on,94,0,6,,,,,,,,,5,,,70,0
27262,note_on,94,0,7,,,,,,,,,6,,,70,0
27262,note_on,0,0,7,,,,,,,,,6,,,73,0
27262,note_on,94,0,8,,,,,,,,,7,,,54,0
27262,note_on,0,0,6,,,,,,,,,5,,,73,0
27264,note_on,0,0,6,,,,,,,,,5,,,71,92
27264,note_on,2,0,6,,,,,,,,,5,,,66,92
27264,note_on,0,0,6,,,,,,,,,5,,,74,92
27264,note_on,2,0,8,,,,,,,,,7,,,47,108
27264,note_on,0,0,7,,,,,,,,,6,,,71,92
27264,note_on,0,0,7,,,,,,,,,6,,,74,92
27264,note_on,48,0,1,,,,,,,,,0,,,71,108
27264,note_on,2,0,5,,,,,,,,,4,,,66,92
27264,note_on,0,0,5,,,,,,,,,4,,,71,92
27264,note_on,48,0,2,,,,,,,,,1,,,66,108
27264,note_on,0,0,5,,,,,,,,,4,,,74,92
27264,note_on,2,0,7,,,,,,,,,6,,,66,92
27264,note_on,48,0,3,,,,,,,,,2,,,62,108
27264,note_on,48,0,4,,,,,,,,,3,,,47,108
27358,note_on,0,0,6,,,,,,,,,5,,,74,0
27358,note_on,0,0,6,,,,,,,,,5,,,71,0
27358,note_on,94,0,6,,,,,,,,,5,,,66,0
27358,note_on,94,0,5,,,,,,,,,4,,,66,0
27358,note_on,0,0,5,,,,,,,,,4,,,71,0
27358,note_on,0,0,7,,,,,,,,,6,,,74,0
27358,note_on,94,0,8,,,,,,,,,7,,,47,0
27358,note_on,94,0,7,,,,,,,,,6,,,66,0
27358,note_on,0,0,5,,,,,,,,,4,,,74,0
27358,note_on,0,0,7,,,,,,,,,6,,,71,0
27360,note_on,2,0,6,,,,,,,,,5,,,71,92
27360,note_on,2,0,8,,,,,,,,,7,,,59,108
27360,note_on,2,0,7,,,,,,,,,6,,,71,92
27454,note_on,94,0,8,,,,,,,,,7,,,59,0
27454,note_on,94,0,6,,,,,,,,,5,,,71,0
27454,note_on,94,0,7,,,,,,,,,6,,,71,0
27456,note_on,2,0,6,,,,,,,,,5,,,59,92
27456,note_on,2,0,7,,,,,,,,,6,,,59,92
27456,note_on,2,0,8,,,,,,,,,7,,,47,108
27550,note_on,94,0,6,,,,,,,,,5,,,59,0
27550,note_on,94,0,7,,,,,,,,,6,,,59,0
27550,note_on,94,0,8,,,,,,,,,7,,,47,0
27552,note_on,2,0,7,,,,,,,,,6,,,59,92
27552,note_on,2,0,6,,,,,,,,,5,,,59,92
27552,note_on,2,0,8,,,,,,,,,7,,,47,108
27600,note_on,336,0,2,,,,,,,,,1,,,66,0
27600,note_on,336,0,3,,,,,,,,,2,,,62,0
27600,note_on,336,0,1,,,,,,,,,0,,,71,0
27600,note_on,336,0,4,,,,,,,,,3,,,47,0
27646,note_on,94,0,7,,,,,,,,,6,,,59,0
27646,note_on,94,0,6,,,,,,,,,5,,,59,0
27646,note_on,94,0,8,,,,,,,,,7,,,47,0
27648,note_on,2,0,6,,,,,,,,,5,,,59,92
27648,note_on,2,0,8,,,,,,,,,7,,,47,108
27648,note_on,2,0,7,,,,,,,,,6,,,59,92
27742,note_on,94,0,7,,,,,,,,,6,,,59,0
27742,note_on,94,0,6,,,,,,,,,5,,,59,0
27744,note_on,2,0,6,,,,,,,,,5,,,71,92
27744,note_on,0,0,6,,,,,,,,,5,,,74,92
27744,note_on,2,0,7,,,,,,,,,6,,,71,92
27744,note_on,0,0,7,,,,,,,,,6,,,74,92
27790,note_on,0,0,6,,,,,,,,,5,,,74,0
27790,note_on,46,0,6,,,,,,,,,5,,,71,0
27790,note_on,0,0,7,,,,,,,,,6,,,74,0
27790,note_on,46,0,7,,,,,,,,,6,,,71,0
27792,note_on,0,0,6,,,,,,,,,5,,,76,92
27792,note_on,2,0,6,,,,,,,,,5,,,73,92
27792,note_on,0,0,7,,,,,,,,,6,,,76,92
27792,note_on,2,0,7,,,,,,,,,6,,,73,92
27808,note_on,160,0,8,,,,,,,,,7,,,47,0
27838,note_on,46,0,6,,,,,,,,,5,,,73,0
27838,note_on,0,0,6,,,,,,,,,5,,,76,0
27838,note_on,46,0,7,,,,,,,,,6,,,73,0
27838,note_on,0,0,7,,,,,,,,,6,,,76,0
27840,note_on,0,0,6,,,,,,,,,5,,,78,92
27840,note_on,0,0,7,,,,,,,,,6,,,78,92
27840,note_on,2,0,6,,,,,,,,,5,,,74,92
27840,note_on,2,0,7,,,,,,,,,6,,,74,92
27886,note_on,46,0,7,,,,,,,,,6,,,74,0
27886,note_on,0,0,6,,,,,,,,,5,,,78,0
27886,note_on,0,0,7,,,,,,,,,6,,,78,0
27886,note_on,46,0,6,,,,,,,,,5,,,74,0
27888,note_on,2,0,6,,,,,,,,,5,,,73,92
27888,note_on,2,0,7,,,,,,,,,6,,,73,92
27888,note_on,0,0,7,,,,,,,,,6,,,76,92
27888,note_on,0,0,6,,,,,,,,,5,,,76,92
27934,note_on,46,0,7,,,,,,,,,6,,,73,0
27934,note_on,0,0,7,,,,,,,,,6,,,76,0
27934,note_on,46,0,6,,,,,,,,,5,,,73,0
27934,note_on,0,0,6,,,,,,,,,5,,,76,0
27936,note_on,0,0,7,,,,,,,,,6,,,78,92
27936,note_on,2,0,7,,,,,,,,,6,,,74,92
27936,note_on,2,0,6,,,,,,,,,5,,,74,92
27936,note_on,0,0,6,,,,,,,,,5,,,78,92
27982,note_on,46,0,6,,,,,,,,,5,,,74,0
27982,note_on,0,0,6,,,,,,,,,5,,,78,0
27982,note_on,0,0,7,,,,,,,,,6,,,78,0
27982,note_on,46,0,7,,,,,,,,,6,,,74,0
27984,note_on,2,0,6,,,,,,,,,5,,,73,92
27984,note_on,0,0,6,,,,,,,,,5,,,76,92
27984,note_on,2,0,7,,,,,,,,,6,,,73,92
27984,note_on,0,0,7,,,,,,,,,6,,,76,92
28030,note_on,0,0,6,,,,,,,,,5,,,76,0
28030,note_on,46,0,6,,,,,,,,,5,,,73,0
28030,note_on,0,0,7,,,,,,,,,6,,,76,0
28030,note_on,46,0,7,,,,,,,,,6,,,73,0
28032,note_on,2,0,6,,,,,,,,,5,,,71,92
28032,note_on,0,0,7,,,,,,,,,6,,,74,92
28032,note_on,2,0,7,,,,,,,,,6,,,71,92
28032,note_on,0,0,6,,,,,,,,,5,,,74,92
28126,note_on,0,0,7,,,,,,,,,6,,,74,0
28126,note_on,94,0,7,,,,,,,,,6,,,71,0
28126,note_on,0,0,6,,,,,,,,,5,,,74,0
28126,note_on,94,0,6,,,,,,,,,5,,,71,0
28128,note_on,0,0,6,,,,,,,,,5,,,74,92
28128,note_on,2,0,6,,,,,,,,,5,,,71,92
28128,note_on,0,0,7,,,,,,,,,6,,,74,92
28128,note_on,2,0,7,,,,,,,,,6,,,71,92
28174,note_on,0,0,6,,,,,,,,,5,,,74,0
28174,note_on,46,0,6,,,,,,,,,5,,,71,0
28174,note_on,46,0,7,,,,,,,,,6,,,71,0
28174,note_on,0,0,7,,,,,,,,,6,,,74,0
28176,note_on,0,0,6,,,,,,,,,5,,,76,92
28176,note_on,2,0,6,,,,,,,,,5,,,73,92
28176,note_on,2,0,7,,,,,,,,,6,,,73,92
28176,note_on,0,0,7,,,,,,,,,6,,,76,92
28222,note_on,46,0,7,,,,,,,,,6,,,73,0
28222,note_on,0,0,7,,,,,,,,,6,,,76,0
28222,note_on,46,0,6,,,,,,,,,5,,,73,0
28222,note_on,0,0,6,,,,,,,,,5,,,76,0
28224,note_on,2,0,7,,,,,,,,,6,,,74,92
28224,note_on,2,0,6,,,,,,,,,5,,,74,92
28224,note_on,0,0,6,,,,,,,,,5,,,78,92
28224,note_on,0,0,7,,,,,,,,,6,,,78,92
28270,note_on,46,0,7,,,,,,,,,6,,,74,0
28270,note_on,0,0,7,,,,,,,,,6,,,78,0
28270,note_on,46,0,6,,,,,,,,,5,,,74,0
28270,note_on,0,0,6,,,,,,,,,5,,,78,0
28272,note_on,2,0,6,,,,,,,,,5,,,73,92
28272,note_on,0,0,6,,,,,,,,,5,,,76,92
28272,note_on,0,0,7,,,,,,,,,6,,,76,92
28272,note_on,2,0,7,,,,,,,,,6,,,73,92
28318,note_on,0,0,6,,,,,,,,,5,,,76,0
28318,note_on,46,0,6,,,,,,,,,5,,,73,0
28318,note_on,0,0,7,,,,,,,,,6,,,76,0
28318,note_on,46,0,7,,,,,,,,,6,,,73,0
28320,note_on,0,0,7,,,,,,,,,6,,,78,92
28320,note_on,2,0,7,,,,,,,,,6,,,74,92
28320,note_on,2,0,6,,,,,,,,,5,,,74,92
28320,note_on,0,0,6,,,,,,,,,5,,,78,92
28366,note_on,46,0,7,,,,,,,,,6,,,74,0
28366,note_on,0,0,6,,,,,,,,,5,,,78,0
28366,note_on,0,0,7,,,,,,,,,6,,,78,0
28366,note_on,46,0,6,,,,,,,,,5,,,74,0
28368,note_on,2,0,6,,,,,,,,,5,,,73,92
28368,note_on,0,0,6,,,,,,,,,5,,,76,92
28368,note_on,2,0,7,,,,,,,,,6,,,73,92
28368,note_on,0,0,7,,,,,,,,,6,,,76,92
28414,note_on,46,0,6,,,,,,,,,5,,,73,0
28414,note_on,0,0,6,,,,,,,,,5,,,76,0
28414,note_on,46,0,7,,,,,,,,,6,,,73,0
28414,note_on,0,0,7,,,,,,,,,6,,,76,0
28416,note_on,2,0,6,,,,,,,,,5,,,71,60
28416,note_on,0,0,6,,,,,,,,,5,,,74,60
28416,note_on,2,0,7,,,,,,,,,6,,,71,60
28416,note_on,0,0,7,,,,,,,,,6,,,74,60
28416,note_on,608,0,8,,,,,,,,,7,,,47,60
28510,note_on,0,0,6,,,,,,,,,5,,,74,0
28510,note_on,94,0,6,,,,,,,,,5,,,71,0
28510,note_on,0,0,7,,,,,,,,,6,,,74,0
28510,note_on,94,0,7,,,,,,,,,6,,,71,0
28512,note_on,0,0,7,,,,,,,,,6,,,74,60
28512,note_on,0,0,6,,,,,,,,,5,,,74,60
28512,note_on,2,0,7,,,,,,,,,6,,,71,60
28512,note_on,2,0,6,,,,,,,,,5,,,71,60
28558,note_on,46,0,7,,,,,,,,,6,,,71,0
28558,note_on,0,0,6,,,,,,,,,5,,,74,0
28558,note_on,46,0,6,,,,,,,,,5,,,71,0
28558,note_on,0,0,7,,,,,,,,,6,,,74,0
28560,note_on,0,0,6,,,,,,,,,5,,,76,60
28560,note_on,2,0,7,,,,,,,,,6,,,73,60
28560,note_on,2,0,6,,,,,,,,,5,,,73,60
28560,note_on,0,0,7,,,,,,,,,6,,,76,60
28576,note_on,160,0,8,,,,,,,,,7,,,47,0
28606,note_on,0,0,7,,,,,,,,,6,,,76,0
28606,note_on,46,0,6,,,,,,,,,5,,,73,0
28606,note_on,0,0,6,,,,,,,,,5,,,76,0
28606,note_on,46,0,7,,,,,,,,,6,,,73,0
28608,note_on,2,0,6,,,,,,,,,5,,,74,60
28608,note_on,2,0,7,,,,,,,,,6,,,74,60
28608,note_on,0,0,7,,,,,,,,,6,,,78,60
28608,note_on,0,0,6,,,,,,,,,5,,,78,60
28654,note_on,46,0,7,,,,,,,,,6,,,74,0
28654,note_on,0,0,6,,,,,,,,,5,,,78,0
28654,note_on,46,0,6,,,,,,,,,5,,,74,0
28654,note_on,0,0,7,,,,,,,,,6,,,78,0
28656,note_on,0,0,7,,,,,,,,,6,,,76,60
28656,note_on,0,0,6,,,,,,,,,5,,,76,60
28656,note_on,2,0,7,,,,,,,,,6,,,73,60
28656,note_on,2,0,6,,,,,,,,,5,,,73,60
28702,note_on,0,0,6,,,,,,,,,5,,,76,0
28702,note_on,0,0,7,,,,,,,,,6,,,76,0
28702,note_on,46,0,7,,,,,,,,,6,,,73,0
28702,note_on,46,0,6,,,,,,,,,5,,,73,0
28704,note_on,2,0,6,,,,,,,,,5,,,74,60
28704,note_on,0,0,6,,,,,,,,,5,,,78,60
28704,note_on,0,0,7,,,,,,,,,6,,,78,60
28704,note_on,2,0,7,,,,,,,,,6,,,74,60
28750,note_on,0,0,6,,,,,,,,,5,,,78,0
28750,note_on,46,0,7,,,,,,,,,6,,,74,0
28750,note_on,0,0,7,,,,,,,,,6,,,78,0
28750,note_on,46,0,6,,,,,,,,,5,,,74,0
28752,note_on,0,0,6,,,,,,,,,5,,,76,60
28752,note_on,2,0,7,,,,,,,,,6,,,73,60
28752,note_on,0,0,7,,,,,,,,,6,,,76,60
28752,note_on,2,0,6,,,,,,,,,5,,,73,60
28798,note_on,46,0,6,,,,,,,,,5,,,73,0
28798,note_on,0,0,6,,,,,,,,,5,,,76,0
28798,note_on,46,0,7,,,,,,,,,6,,,73,0
28798,note_on,0,0,7,,,,,,,,,6,,,76,0
28800,note_on,2,0,7,,,,,,,,,6,,,71,60
28800,note_on,0,0,6,,,,,,,,,5,,,74,60
28800,note_on,2,0,6,,,,,,,,,5,,,71,60
28800,note_on,0,0,7,,,,,,,,,6,,,74,60
28894,note_on,0,0,7,,,,,,,,,6,,,74,0
28894,note_on,0,0,6,,,,,,,,,5,,,74,0
28894,note_on,94,0,6,,,,,,,,,5,,,71,0
28894,note_on,94,0,7,,,,,,,,,6,,,71,0
28896,note_on,0,0,6,,,,,,,,,5,,,74,60
28896,note_on,2,0,6,,,,,,,,,5,,,71,60
28896,note_on,0,0,7,,,,,,,,,6,,,74,60
28896,note_on,2,0,7,,,,,,,,,6,,,71,60
28942,note_on,0,0,6,,,,,,,,,5,,,74,0
28942,note_on,46,0,6,,,,,,,,,5,,,71,0
28942,note_on,0,0,7,,,,,,,,,6,,,74,0
28942,note_on,46,0,7,,,,,,,,,6,,,71,0
28944,note_on,0,0,7,,,,,,,,,6,,,76,60
28944,note_on,2,0,7,,,,,,,,,6,,,73,60
28944,note_on,2,0,6,,,,,,,,,5,,,73,60
28944,note_on,0,0,6,,,,,,,,,5,,,76,60
28990,note_on,0,0,7,,,,,,,,,6,,,76,0
28990,note_on,46,0,6,,,,,,,,,5,,,73,0
28990,note_on,0,0,6,,,,,,,,,5,,,76,0
28990,note_on,46,0,7,,,,,,,,,6,,,73,0
28992,note_on,2,0,6,,,,,,,,,5,,,74,60
28992,note_on,2,0,7,,,,,,,,,6,,,74,60
28992,note_on,0,0,7,,,,,,,,,6,,,78,60
28992,note_on,0,0,6,,,,,,,,,5,,,78,60
29038,note_on,46,0,7,,,,,,,,,6,,,74,0
29038,note_on,0,0,7,,,,,,,,,6,,,78,0
29038,note_on,46,0,6,,,,,,,,,5,,,74,0
29038,note_on,0,0,6,,,,,,,,,5,,,78,0
29040,note_on,0,0,6,,,,,,,,,5,,,76,60
29040,note_on,2,0,6,,,,,,,,,5,,,73,60
29040,note_on,0,0,7,,,,,,,,,6,,,76,60
29040,note_on,2,0,7,,,,,,,,,6,,,73,60
29086,note_on,0,0,7,,,,,,,,,6,,,76,0
29086,note_on,46,0,6,,,,,,,,,5,,,73,0
29086,note_on,0,0,6,,,,,,,,,5,,,76,0
29086,note_on,46,0,7,,,,,,,,,6,,,73,0
29088,note_on,2,0,7,,,,,,,,,6,,,74,60
29088,note_on,0,0,7,,,,,,,,,6,,,78,60
29088,note_on,0,0,6,,,,,,,,,5,,,78,60
29088,note_on,2,0,6,,,,,,,,,5,,,74,60
29134,note_on,46,0,7,,,,,,,,,6,,,74,0
29134,note_on,0,0,6,,,,,,,,,5,,,78,0
29134,note_on,46,0,6,,,,,,,,,5,,,74,0
29134,note_on,0,0,7,,,,,,,,,6,,,78,0
29136,note_on,2,0,6,,,,,,,,,5,,,73,60
29136,note_on,2,0,7,,,,,,,,,6,,,73,60
29136,note_on,0,0,7,,,,,,,,,6,,,76,60
29136,note_on,0,0,6,,,,,,,,,5,,,76,60
29182,note_on,0,0,7,,,,,,,,,6,,,76,0
29182,note_on,46,0,6,,,,,,,,,5,,,73,0
29182,note_on,0,0,6,,,,,,,,,5,,,76,0
29182,note_on,46,0,7,,,,,,,,,6,,,73,0
29184,note_on,0,0,7,,,,,,,,,6,,,74,108
29184,note_on,1584,0,1,,,,,,,,,0,,,71,108
29184,note_on,0,0,6,,,,,,,,,5,,,74,108
29184,note_on,2,0,6,,,,,,,,,5,,,71,108
29184,note_on,608,0,8,,,,,,,,,7,,,47,108
29184,note_on,1584,0,4,,,,,,,,,3,,,59,108
29184,note_on,1584,0,2,,,,,,,,,1,,,66,108
29184,note_on,2,0,7,,,,,,,,,6,,,71,108
29184,note_on,1584,0,3,,,,,,,,,2,,,62,108
29278,note_on,94,0,8,,,,,,,,,7,,,47,0
29278,note_on,0,0,7,,,,,,,,,6,,,74,0
29278,note_on,94,0,7,,,,,,,,,6,,,71,0
29278,note_on,94,0,6,,,,,,,,,5,,,71,0
29278,note_on,0,0,6,,,,,,,,,5,,,74,0
29280,note_on,0,0,7,,,,,,,,,6,,,74,108
29280,note_on,2,0,8,,,,,,,,,7,,,59,108
29280,note_on,0,0,6,,,,,,,,,5,,,74,108
29280,note_on,0,0,6,,,,,,,,,5,,,71,108
29280,note_on,2,0,6,,,,,,,,,5,,,66,108
29280,note_on,2,0,7,,,,,,,,,6,,,66,108
29280,note_on,0,0,7,,,,,,,,,6,,,71,108
29374,note_on,94,0,6,,,,,,,,,5,,,66,0
29374,note_on,0,0,6,,,,,,,,,5,,,71,0
29374,note_on,0,0,7,,,,,,,,,6,,,71,0
29374,note_on,0,0,6,,,,,,,,,5,,,74,0
29374,note_on,94,0,7,,,,,,,,,6,,,66,0
29374,note_on,0,0,7,,,,,,,,,6,,,74,0
29374,note_on,94,0,8,,,,,,,,,7,,,59,0
29376,note_on,2,0,7,,,,,,,,,6,,,62,108
29376,note_on,2,0,6,,,,,,,,,5,,,62,108
29376,note_on,2,0,8,,,,,,,,,7,,,47,108
29376,note_on,0,0,6,,,,,,,,,5,,,66,108
29376,note_on,0,0,7,,,,,,,,,6,,,66,108
29440,note_on,256,0,4,,,,,,,,,3,,,59,0
29440,note_on,256,0,2,,,,,,,,,1,,,66,0
29440,note_on,256,0,3,,,,,,,,,2,,,62,0
29440,note_on,256,0,1,,,,,,,,,0,,,71,0
29470,note_on,94,0,8,,,,,,,,,7,,,47,0
29470,note_on,94,0,6,,,,,,,,,5,,,62,0
29470,note_on,94,0,7,,,,,,,,,6,,,62,0
29470,note_on,0,0,7,,,,,,,,,6,,,66,0
29470,note_on,0,0,6,,,,,,,,,5,,,66,0
29472,note_on,2,0,7,,,,,,,,,6,,,62,108
29472,note_on,0,0,7,,,,,,,,,6,,,66,108
29472,note_on,32,0,1,,,,,,,,,0,,,71,108
29472,note_on,32,0,2,,,,,,,,,1,,,66,108
29472,note_on,2,0,8,,,,,,,,,7,,,47,108
29472,note_on,0,0,6,,,,,,,,,5,,,66,108
29472,note_on,32,0,3,,,,,,,,,2,,,62,108
29472,note_on,32,0,4,,,,,,,,,3,,,59,108
29472,note_on,2,0,6,,,,,,,,,5,,,62,108
29566,note_on,94,0,6,,,,,,,,,5,,,62,0
29566,note_on,0,0,6,,,,,,,,,5,,,66,0
29566,note_on,94,0,1,,,,,,,,,0,,,71,0
29566,note_on,94,0,4,,,,,,,,,3,,,59,0
29566,note_on,94,0,8,,,,,,,,,7,,,47,0
29566,note_on,94,0,3,,,,,,,,,2,,,62,0
29566,note_on,94,0,2,,,,,,,,,1,,,66,0
29566,note_on,0,0,7,,,,,,,,,6,,,66,0
29566,note_on,94,0,7,,,,,,,,,6,,,62,0
29568,note_on,0,0,7,,,,,,,,,6,,,71,108
29568,note_on,0,0,6,,,,,,,,,5,,,71,108
29568,note_on,2,0,2,,,,,,,,,1,,,66,108
29568,note_on,2,0,6,,,,,,,,,5,,,62,108
29568,note_on,2,0,3,,,,,,,,,2,,,62,108
29568,note_on,2,0,1,,,,,,,,,0,,,71,108
29568,note_on,2,0,7,,,,,,,,,6,,,62,108
29568,note_on,0,0,7,,,,,,,,,6,,,66,108
29568,note_on,2,0,4,,,,,,,,,3,,,59,108
29568,note_on,2,0,8,,,,,,,,,7,,,47,108
29568,note_on,0,0,6,,,,,,,,,5,,,66,108
29662,note_on,0,0,6,,,,,,,,,5,,,71,0
29662,note_on,0,0,6,,,,,,,,,5,,,66,0
29662,note_on,94,0,6,,,,,,,,,5,,,62,0
29662,note_on,0,0,7,,,,,,,,,6,,,66,0
29662,note_on,94,0,7,,,,,,,,,6,,,62,0
29662,note_on,0,0,7,,,,,,,,,6,,,71,0
29662,note_on,94,0,8,,,,,,,,,7,,,47,0
29664,note_on,2,0,6,,,,,,,,,5,,,74,108
29664,note_on,2,0,8,,,,,,,,,7,,,59,108
29664,note_on,2,0,7,,,,,,,,,6,,,74,108
29758,note_on,94,0,8,,,,,,,,,7,,,59,0
29758,note_on,94,0,6,,,,,,,,,5,,,74,0
29758,note_on,94,0,7,,,,,,,,,6,,,74,0
29760,note_on,2,0,8,,,,,,,,,7,,,47,108
29760,note_on,2,0,6,,,,,,,,,5,,,62,108
29760,note_on,0,0,6,,,,,,,,,5,,,66,108
29760,note_on,0,0,6,,,,,,,,,5,,,71,108
29760,note_on,2,0,7,,,,,,,,,6,,,62,108
29760,note_on,0,0,7,,,,,,,,,6,,,71,108
29760,note_on,0,0,7,,,,,,,,,6,,,66,108
29854,note_on,0,0,6,,,,,,,,,5,,,71,0
29854,note_on,0,0,6,,,,,,,,,5,,,66,0
29854,note_on,94,0,6,,,,,,,,,5,,,62,0
29854,note_on,94,0,8,,,,,,,,,7,,,47,0
29854,note_on,94,0,7,,,,,,,,,6,,,62,0
29854,note_on,0,0,7,,,,,,,,,6,,,66,0
29854,note_on,0,0,7,,,,,,,,,6,,,71,0
29856,note_on,0,0,7,,,,,,,,,6,,,71,108
29856,note_on,2,0,8,,,,,,,,,7,,,47,108
29856,note_on,0,0,6,,,,,,,,,5,,,71,108
29856,note_on,0,0,6,,,,,,,,,5,,,66,108
29856,note_on,2,0,6,,,,,,,,,5,,,62,108
29856,note_on,2,0,7,,,,,,,,,6,,,62,108
29856,note_on,0,0,7,,,,,,,,,6,,,66,108
29904,note_on,336,0,1,,,,,,,,,0,,,71,0
29904,note_on,336,0,4,,,,,,,,,3,,,59,0
29904,note_on,336,0,3,,,,,,,,,2,,,62,0
29904,note_on,336,0,2,,,,,,,,,1,,,66,0
29950,note_on,0,0,7,,,,,,,,,6,,,66,0
29950,note_on,0,0,7,,,,,,,,,6,,,71,0
29950,note_on,94,0,6,,,,,,,,,5,,,62,0
29950,note_on,94,0,8,,,,,,,,,7,,,47,0
29950,note_on,0,0,6,,,,,,,,,5,,,66,0
29950,note_on,94,0,7,,,,,,,,,6,,,62,0
29950,note_on,0,0,6,,,,,,,,,5,,,71,0
29952,note_on,2,0,6,,,,,,,,,5,,,63,108
29952,note_on,0,0,7,,,,,,,,,6,,,71,108
29952,note_on,0,0,7,,,,,,,,,6,,,66,108
29952,note_on,2,0,7,,,,,,,,,6,,,63,108
29952,note_on,48,0,1,,,,,,,,,0,,,71,108
29952,note_on,2,0,8,,,,,,,,,7,,,45,108
29952,note_on,48,0,4,,,,,,,,,3,,,57,108
29952,note_on,48,0,2,,,,,,,,,1,,,66,108
29952,note_on,48,0,3,,,,,,,,,2,,,63,108
29952,note_on,0,0,6,,,,,,,,,5,,,71,108
29952,note_on,0,0,6,,,,,,,,,5,,,66,108
30046,note_on,0,0,6,,,,,,,,,5,,,71,0
30046,note_on,0,0,6,,,,,,,,,5,,,66,0
30046,note_on,94,0,6,,,,,,,,,5,,,63,0
30046,note_on,94,0,7,,,,,,,,,6,,,63,0
30046,note_on,0,0,7,,,,,,,,,6,,,66,0
30046,note_on,0,0,7,,,,,,,,,6,,,71,0
30046,note_on,94,0,8,,,,,,,,,7,,,45,0
30048,note_on,2,0,8,,,,,,,,,7,,,57,108
30048,note_on,2,0,7,,,,,,,,,6,,,75,108
30048,note_on,2,0,6,,,,,,,,,5,,,75,108
30142,note_on,94,0,6,,,,,,,,,5,,,75,0
30142,note_on,94,0,7,,,,,,,,,6,,,75,0
30142,note_on,94,0,8,,,,,,,,,7,,,57,0
30144,note_on,0,0,7,,,,,,,,,6,,,66,108
30144,note_on,2,0,7,,,,,,,,,6,,,63,108
30144,note_on,2,0,8,,,,,,,,,7,,,45,108
30144,note_on,0,0,6,,,,,,,,,5,,,66,108
30144,note_on,0,0,6,,,,,,,,,5,,,71,108
30144,note_on,0,0,7,,,,,,,,,6,,,71,108
30144,note_on,2,0,6,,,,,,,,,5,,,63,108
30208,note_on,256,0,2,,,,,,,,,1,,,66,0
30208,note_on,256,0,1,,,,,,,,,0,,,71,0
30208,note_on,256,0,3,,,,,,,,,2,,,63,0
30208,note_on,256,0,4,,,,,,,,,3,,,57,0
30238,note_on,94,0,8,,,,,,,,,7,,,45,0
30238,note_on,0,0,6,,,,,,,,,5,,,71,0
30238,note_on,94,0,7,,,,,,,,,6,,,63,0
30238,note_on,0,0,7,,,,,,,,,6,,,66,0
30238,note_on,94,0,6,,,,,,,,,5,,,63,0
30238,note_on,0,0,6,,,,,,,,,5,,,66,0
30238,note_on,0,0,7,,,,,,,,,6,,,71,0
30240,note_on,32,0,4,,,,,,,,,3,,,57,108
30240,note_on,0,0,6,,,,,,,,,5,,,66,108
30240,note_on,2,0,8,,,,,,,,,7,,,45,108
30240,note_on,0,0,6,,,,,,,,,5,,,71,108
30240,note_on,32,0,2,,,,,,,,,1,,,66,108
30240,note_on,0,0,7,,,,,,,,,6,,,71,108
30240,note_on,2,0,6,,,,,,,,,5,,,63,108
30240,note_on,32,0,1,,,,,,,,,0,,,71,108
30240,note_on,32,0,3,,,,,,,,,2,,,63,108
30240,note_on,0,0,7,,,,,,,,,6,,,66,108
30240,note_on,2,0,7,,,,,,,,,6,,,63,108
30334,note_on,0,0,6,,,,,,,,,5,,,66,0
30334,note_on,94,0,6,,,,,,,,,5,,,63,0
30334,note_on,94,0,1,,,,,,,,,0,,,71,0
30334,note_on,0,0,6,,,,,,,,,5,,,71,0
30334,note_on,94,0,4,,,,,,,,,3,,,57,0
30334,note_on,0,0,7,,,,,,,,,6,,,66,0
30334,note_on,94,0,8,,,,,,,,,7,,,45,0
30334,note_on,0,0,7,,,,,,,,,6,,,71,0
30334,note_on,94,0,2,,,,,,,,,1,,,66,0
30334,note_on,94,0,3,,,,,,,,,2,,,63,0
30334,note_on,94,0,7,,,,,,,,,6,,,63,0
30336,note_on,2,0,2,,,,,,,,,1,,,66,108
30336,note_on,2,0,1,,,,,,,,,0,,,71,108
30336,note_on,2,0,7,,,,,,,,,6,,,63,108
30336,note_on,0,0,7,,,,,,,,,6,,,66,108
30336,note_on,2,0,3,,,,,,,,,2,,,63,108
30336,note_on,0,0,7,,,,,,,,,6,,,71,108
30336,note_on,2,0,4,,,,,,,,,3,,,57,108
30336,note_on,2,0,6,,,,,,,,,5,,,63,108
30336,note_on,0,0,6,,,,,,,,,5,,,66,108
30336,note_on,2,0,8,,,,,,,,,7,,,45,108
30336,note_on,0,0,6,,,,,,,,,5,,,71,108
30430,note_on,0,0,7,,,,,,,,,6,,,71,0
30430,note_on,0,0,6,,,,,,,,,5,,,71,0
30430,note_on,0,0,6,,,,,,,,,5,,,66,0
30430,note_on,94,0,6,,,,,,,,,5,,,63,0
30430,note_on,0,0,7,,,,,,,,,6,,,66,0
30430,note_on,94,0,8,,,,,,,,,7,,,45,0
30430,note_on,94,0,7,,,,,,,,,6,,,63,0
30432,note_on,2,0,8,,,,,,,,,7,,,57,108
30432,note_on,2,0,7,,,,,,,,,6,,,75,108
30432,note_on,2,0,6,,,,,,,,,5,,,75,108
30526,note_on,94,0,7,,,,,,,,,6,,,75,0
30526,note_on,94,0,8,,,,,,,,,7,,,57,0
30526,note_on,94,0,6,,,,,,,,,5,,,75,0
30528,note_on,0,0,6,,,,,,,,,5,,,71,108
30528,note_on,0,0,6,,,,,,,,,5,,,66,108
30528,note_on,2,0,6,,,,,,,,,5,,,63,108
30528,note_on,0,0,7,,,,,,,,,6,,,66,108
30528,note_on,2,0,8,,,,,,,,,7,,,45,108
30528,note_on,2,0,7,,,,,,,,,6,,,63,108
30528,note_on,0,0,7,,,,,,,,,6,,,71,108
30622,note_on,0,0,7,,,,,,,,,6,,,71,0
30622,note_on,94,0,7,,,,,,,,,6,,,63,0
30622,note_on,94,0,8,,,,,,,,,7,,,45,0
30622,note_on,0,0,7,,,,,,,,,6,,,66,0
30622,note_on,94,0,6,,,,,,,,,5,,,63,0
30622,note_on,0,0,6,,,,,,,,,5,,,66,0
30622,note_on,0,0,6,,,,,,,,,5,,,71,0
30624,note_on,0,0,6,,,,,,,,,5,,,66,108
30624,note_on,0,0,6,,,,,,,,,5,,,71,108
30624,note_on,0,0,7,,,,,,,,,6,,,71,108
30624,note_on,0,0,7,,,,,,,,,6,,,66,108
30624,note_on,2,0,7,,,,,,,,,6,,,63,108
30624,note_on,2,0,6,,,,,,,,,5,,,63,108
30624,note_on,2,0,8,,,,,,,,,7,,,45,108
30672,note_on,336,0,4,,,,,,,,,3,,,57,0
30672,note_on,336,0,3,,,,,,,,,2,,,63,0
30672,note_on,336,0,2,,,,,,,,,1,,,66,0
30672,note_on,336,0,1,,,,,,,,,0,,,71,0
30718,note_on,0,0,7,,,,,,,,,6,,,66,0
30718,note_on,94,0,7,,,,,,,,,6,,,63,0
30718,note_on,94,0,6,,,,,,,,,5,,,63,0
30718,note_on,94,0,8,,,,,,,,,7,,,45,0
30718,note_on,0,0,6,,,,,,,,,5,,,66,0
30718,note_on,0,0,7,,,,,,,,,6,,,71,0
30718,note_on,0,0,6,,,,,,,,,5,,,71,0
30720,note_on,48,0,4,,,,,,,,,3,,,55,108
30720,note_on,0,0,7,,,,,,,,,6,,,67,108
30720,note_on,0,0,7,,,,,,,,,6,,,71,108
30720,note_on,48,0,3,,,,,,,,,2,,,64,108
30720,note_on,2,0,6,,,,,,,,,5,,,64,108
30720,note_on,0,0,6,,,,,,,,,5,,,71,108
30720,note_on,48,0,2,,,,,,,,,1,,,67,108
30720,note_on,48,0,1,,,,,,,,,0,,,71,108
30720,note_on,2,0,8,,,,,,,,,7,,,43,108
30720,note_on,0,0,6,,,,,,,,,5,,,67,108
30720,note_on,2,0,7,,,,,,,,,6,,,64,108
30814,note_on,0,0,7,,,,,,,,,6,,,71,0
30814,note_on,0,0,7,,,,,,,,,6,,,67,0
30814,note_on,94,0,7,,,,,,,,,6,,,64,0
30814,note_on,94,0,6,,,,,,,,,5,,,64,0
30814,note_on,0,0,6,,,,,,,,,5,,,67,0
30814,note_on,0,0,6,,,,,,,,,5,,,71,0
30814,note_on,94,0,8,,,,,,,,,7,,,43,0
30816,note_on,2,0,8,,,,,,,,,7,,,55,108
30816,note_on,2,0,7,,,,,,,,,6,,,76,108
30816,note_on,2,0,6,,,,,,,,,5,,,76,108
30910,note_on,94,0,8,,,,,,,,,7,,,55,0
30910,note_on,94,0,6,,,,,,,,,5,,,76,0
30910,note_on,94,0,7,,,,,,,,,6,,,76,0
30912,note_on,2,0,6,,,,,,,,,5,,,64,108
30912,note_on,2,0,7,,,,,,,,,6,,,64,108
30912,note_on,0,0,7,,,,,,,,,6,,,67,108
30912,note_on,0,0,7,,,,,,,,,6,,,71,108
30912,note_on,2,0,8,,,,,,,,,7,,,43,108
30912,note_on,0,0,6,,,,,,,,,5,,,67,108
30912,note_on,0,0,6,,,,,,,,,5,,,71,108
31006,note_on,94,0,8,,,,,,,,,7,,,43,0
31006,note_on,94,0,7,,,,,,,,,6,,,64,0
31006,note_on,0,0,7,,,,,,,,,6,,,71,0
31006,note_on,0,0,7,,,,,,,,,6,,,67,0
31006,note_on,94,0,6,,,,,,,,,5,,,64,0
31006,note_on,0,0,6,,,,,,,,,5,,,67,0
31006,note_on,0,0,6,,,,,,,,,5,,,71,0
31008,note_on,0,0,7,,,,,,,,,6,,,71,108
31008,note_on,2,0,7,,,,,,,,,6,,,64,108
31008,note_on,0,0,7,,,,,,,,,6,,,67,108
31008,note_on,2,0,8,,,,,,,,,7,,,43,108
31008,note_on,0,0,6,,,,,,,,,5,,,71,108
31008,note_on,0,0,6,,,,,,,,,5,,,67,108
31008,note_on,2,0,6,,,,,,,,,5,,,64,108
31056,note_on,336,0,2,,,,,,,,,1,,,67,0
31056,note_on,336,0,3,,,,,,,,,2,,,64,0
31056,note_on,336,0,1,,,,,,,,,0,,,71,0
31056,note_on,336,0,4,,,,,,,,,3,,,55,0
31102,note_on,0,0,6,,,,,,,,,5,,,71,0
31102,note_on,94,0,8,,,,,,,,,7,,,43,0
31102,note_on,94,0,6,,,,,,,,,5,,,64,0
31102,note_on,0,0,6,,,,,,,,,5,,,67,0
31102,note_on,94,0,7,,,,,,,,,6,,,64,0
31102,note_on,0,0,7,,,,,,,,,6,,,67,0
31102,note_on,0,0,7,,,,,,,,,6,,,71,0
31104,note_on,48,0,4,,,,,,,,,3,,,55,108
31104,note_on,0,0,6,,,,,,,,,5,,,71,108
31104,note_on,48,0,2,,,,,,,,,1,,,67,108
31104,note_on,2,0,7,,,,,,,,,6,,,64,108
31104,note_on,0,0,7,,,,,,,,,6,,,71,108
31104,note_on,0,0,6,,,,,,,,,5,,,67,108
31104,note_on,2,0,8,,,,,,,,,7,,,43,108
31104,note_on,2,0,6,,,,,,,,,5,,,64,108
31104,note_on,48,0,3,,,,,,,,,2,,,64,108
31104,note_on,0,0,7,,,,,,,,,6,,,67,108
31104,note_on,48,0,1,,,,,,,,,0,,,71,108
31198,note_on,94,0,6,,,,,,,,,5,,,64,0
31198,note_on,0,0,6,,,,,,,,,5,,,67,0
31198,note_on,0,0,6,,,,,,,,,5,,,71,0
31198,note_on,0,0,7,,,,,,,,,6,,,67,0
31198,note_on,94,0,8,,,,,,,,,7,,,43,0
31198,note_on,94,0,7,,,,,,,,,6,,,64,0
31198,note_on,0,0,7,,,,,,,,,6,,,71,0
31200,note_on,2,0,6,,,,,,,,,5,,,76,108
31200,note_on,2,0,8,,,,,,,,,7,,,55,108
31200,note_on,2,0,7,,,,,,,,,6,,,76,108
31294,note_on,94,0,8,,,,,,,,,7,,,55,0
31294,note_on,94,0,7,,,,,,,,,6,,,76,0
31294,note_on,94,0,6,,,,,,,,,5,,,76,0
31296,note_on,0,0,7,,,,,,,,,6,,,67,108
31296,note_on,2,0,8,,,,,,,,,7,,,43,108
31296,note_on,2,0,7,,,,,,,,,6,,,64,108
31296,note_on,0,0,7,,,,,,,,,6,,,71,108
31296,note_on,2,0,6,,,,,,,,,5,,,64,108
31296,note_on,0,0,6,,,,,,,,,5,,,71,108
31296,note_on,0,0,6,,,,,,,,,5,,,67,108
31390,note_on,94,0,8,,,,,,,,,7,,,43,0
31390,note_on,0,0,6,,,,,,,,,5,,,71,0
31390,note_on,0,0,6,,,,,,,,,5,,,67,0
31390,note_on,0,0,7,,,,,,,,,6,,,71,0
31390,note_on,94,0,6,,,,,,,,,5,,,64,0
31390,note_on,94,0,7,,,,,,,,,6,,,64,0
31390,note_on,0,0,7,,,,,,,,,6,,,67,0
31392,note_on,2,0,7,,,,,,,,,6,,,64,108
31392,note_on,0,0,7,,,,,,,,,6,,,67,108
31392,note_on,2,0,6,,,,,,,,,5,,,64,108
31392,note_on,0,0,6,,,,,,,,,5,,,67,108
31392,note_on,0,0,6,,,,,,,,,5,,,71,108
31392,note_on,0,0,7,,,,,,,,,6,,,71,108
31392,note_on,2,0,8,,,,,,,,,7,,,43,108
31440,note_on,336,0,3,,,,,,,,,2,,,64,0
31440,note_on,336,0,4,,,,,,,,,3,,,55,0
31440,note_on,336,0,1,,,,,,,,,0,,,71,0
31440,note_on,336,0,2,,,,,,,,,1,,,67,0
31486,note_on,94,0,7,,,,,,,,,6,,,64,0
31486,note_on,0,0,7,,,,,,,,,6,,,67,0
31486,note_on,0,0,7,,,,,,,,,6,,,71,0
31486,note_on,94,0,8,,,,,,,,,7,,,43,0
31486,note_on,94,0,6,,,,,,,,,5,,,64,0
31486,note_on,0,0,6,,,,,,,,,5,,,67,0
31486,note_on,0,0,6,,,,,,,,,5,,,71,0
31488,note_on,48,0,2,,,,,,,,,1,,,68,108
31488,note_on,2,0,8,,,,,,,,,7,,,49,108
31488,note_on,48,0,4,,,,,,,,,3,,,49,108
31488,note_on,48,0,1,,,,,,,,,0,,,71,108
31488,note_on,0,0,6,,,,,,,,,5,,,71,108
31488,note_on,48,0,3,,,,,,,,,2,,,65,108
31488,note_on,2,0,6,,,,,,,,,5,,,65,108
31488,note_on,0,0,7,,,,,,,,,6,,,71,108
31488,note_on,0,0,7,,,,,,,,,6,,,68,108
31488,note_on,2,0,7,,,,,,,,,6,,,65,108
31488,note_on,0,0,6,,,,,,,,,5,,,68,108
31582,note_on,0,0,6,,,,,,,,,5,,,68,0
31582,note_on,0,0,6,,,,,,,,,5,,,71,0
31582,note_on,94,0,7,,,,,,,,,6,,,65,0
31582,note_on,0,0,7,,,,,,,,,6,,,68,0
31582,note_on,0,0,7,,,,,,,,,6,,,71,0
31582,note_on,94,0,8,,,,,,,,,7,,,49,0
31582,note_on,94,0,6,,,,,,,,,5,,,65,0
31584,note_on,2,0,6,,,,,,,,,5,,,77,108
31584,note_on,2,0,7,,,,,,,,,6,,,77,108
31584,note_on,2,0,8,,,,,,,,,7,,,61,108
31678,note_on,94,0,8,,,,,,,,,7,,,61,0
31678,note_on,94,0,7,,,,,,,,,6,,,77,0
31678,note_on,94,0,6,,,,,,,,,5,,,77,0
31680,note_on,2,0,8,,,,,,,,,7,,,49,108
31680,note_on,2,0,7,,,,,,,,,6,,,65,108
31680,note_on,0,0,7,,,,,,,,,6,,,68,108
31680,note_on,0,0,7,,,,,,,,,6,,,71,108
31680,note_on,2,0,6,,,,,,,,,5,,,65,108
31680,note_on,0,0,6,,,,,,,,,5,,,71,108
31680,note_on,0,0,6,,,,,,,,,5,,,68,108
31774,note_on,0,0,6,,,,,,,,,5,,,71,0
31774,note_on,0,0,7,,,,,,,,,6,,,71,0
31774,note_on,0,0,7,,,,,,,,,6,,,68,0
31774,note_on,94,0,6,,,,,,,,,5,,,65,0
31774,note_on,94,0,7,,,,,,,,,6,,,65,0
31774,note_on,94,0,8,,,,,,,,,7,,,49,0
31774,note_on,0,0,6,,,,,,,,,5,,,68,0
31776,note_on,2,0,8,,,,,,,,,7,,,49,108
31776,note_on,2,0,7,,,,,,,,,6,,,65,108
31776,note_on,0,0,7,,,,,,,,,6,,,71,108
31776,note_on,0,0,7,,,,,,,,,6,,,68,108
31776,note_on,2,0,6,,,,,,,,,5,,,65,108
31776,note_on,0,0,6,,,,,,,,,5,,,68,108
31776,note_on,0,0,6,,,,,,,,,5,,,71,108
31870,note_on,94,0,6,,,,,,,,,5,,,65,0
31870,note_on,0,0,7,,,,,,,,,6,,,68,0
31870,note_on,94,0,7,,,,,,,,,6,,,65,0
31870,note_on,0,0,6,,,,,,,,,5,,,71,0
31870,note_on,0,0,6,,,,,,,,,5,,,68,0
31870,note_on,0,0,7,,,,,,,,,6,,,71,0
31870,note_on,94,0,8,,,,,,,,,7,,,49,0
31872,note_on,0,0,6,,,,,,,,,5,,,71,108
31872,note_on,2,0,8,,,,,,,,,7,,,49,108
31872,note_on,2,0,6,,,,,,,,,5,,,65,108
31872,note_on,0,0,7,,,,,,,,,6,,,71,108
31872,note_on,0,0,7,,,,,,,,,6,,,68,108
31872,note_on,2,0,7,,,,,,,,,6,,,65,108
31872,note_on,0,0,6,,,,,,,,,5,,,68,108
31966,note_on,94,0,6,,,,,,,,,5,,,65,0
31966,note_on,0,0,6,,,,,,,,,5,,,68,0
31966,note_on,0,0,7,,,,,,,,,6,,,71,0
31966,note_on,0,0,6,,,,,,,,,5,,,71,0
31966,note_on,94,0,8,,,,,,,,,7,,,49,0
31966,note_on,94,0,7,,,,,,,,,6,,,65,0
31966,note_on,0,0,7,,,,,,,,,6,,,68,0
31968,note_on,2,0,8,,,,,,,,,7,,,61,108
31968,note_on,2,0,7,,,,,,,,,6,,,77,108
31968,note_on,2,0,6,,,,,,,,,5,,,77,108
32062,note_on,94,0,7,,,,,,,,,6,,,77,0
32062,note_on,94,0,8,,,,,,,,,7,,,61,0
32062,note_on,94,0,6,,,,,,,,,5,,,77,0
32064,note_on,2,0,7,,,,,,,,,6,,,65,108
32064,note_on,0,0,7,,,,,,,,,6,,,68,108
32064,note_on,0,0,7,,,,,,,,,6,,,71,108
32064,note_on,2,0,8,,,,,,,,,7,,,49,108
32064,note_on,0,0,6,,,,,,,,,5,,,71,108
32064,note_on,0,0,6,,,,,,,,,5,,,68,108
32064,note_on,2,0,6,,,,,,,,,5,,,65,108
32158,note_on,0,0,6,,,,,,,,,5,,,68,0
32158,note_on,94,0,7,,,,,,,,,6,,,65,0
32158,note_on,94,0,8,,,,,,,,,7,,,49,0
32158,note_on,0,0,7,,,,,,,,,6,,,68,0
32158,note_on,0,0,7,,,,,,,,,6,,,71,0
32158,note_on,0,0,6,,,,,,,,,5,,,71,0
32158,note_on,94,0,6,,,,,,,,,5,,,65,0
32160,note_on,0,0,6,,,,,,,,,5,,,71,108
32160,note_on,0,0,6,,,,,,,,,5,,,68,108
32160,note_on,2,0,6,,,,,,,,,5,,,65,108
32160,note_on,2,0,7,,,,,,,,,6,,,65,108
32160,note_on,0,0,7,,,,,,,,,6,,,68,108
32160,note_on,0,0,7,,,,,,,,,6,,,71,108
32160,note_on,2,0,8,,,,,,,,,7,,,49,108
32254,note_on,94,0,8,,,,,,,,,7,,,49,0
32254,note_on,94,0,7,,,,,,,,,6,,,65,0
32254,note_on,0,0,7,,,,,,,,,6,,,68,0
32254,note_on,0,0,7,,,,,,,,,6,,,71,0
32254,note_on,0,0,6,,,,,,,,,5,,,71,0
32254,note_on,94,0,6,,,,,,,,,5,,,65,0
32254,note_on,0,0,6,,,,,,,,,5,,,68,0
32256,note_on,2,0,6,,,,,,,,,5,,,66,108
32256,note_on,2,0,7,,,,,,,,,6,,,66,108
32256,note_on,0,0,7,,,,,,,,,6,,,70,108
32256,note_on,0,0,7,,,,,,,,,6,,,73,108
32256,note_on,2,0,8,,,,,,,,,7,,,42,108
32256,note_on,0,0,6,,,,,,,,,5,,,70,108
32256,note_on,0,0,6,,,,,,,,,5,,,73,108
32256,note_on,0,0,4,,,,,,,,,3,,,54,108
32256,note_on,0,0,3,,,,,,,,,2,,,61,108
32256,note_on,768,0,1,,,,,,,,,0,,,71,0
32256,note_on,0,0,1,,,,,,,,,0,,,70,108
32256,note_on,768,0,4,,,,,,,,,3,,,49,0
32256,note_on,768,0,3,,,,,,,,,2,,,65,0
32256,note_on,768,0,2,,,,,,,,,1,,,68,0
32256,note_on,0,0,2,,,,,,,,,1,,,66,108
32350,note_on,94,0,8,,,,,,,,,7,,,42,0
32350,note_on,94,0,7,,,,,,,,,6,,,66,0
32350,note_on,0,0,7,,,,,,,,,6,,,70,0
32350,note_on,0,0,6,,,,,,,,,5,,,73,0
32350,note_on,0,0,7,,,,,,,,,6,,,73,0
32350,note_on,0,0,6,,,,,,,,,5,,,70,0
32350,note_on,94,0,6,,,,,,,,,5,,,66,0
32352,note_on,2,0,8,,,,,,,,,7,,,54,108
32352,note_on,2,0,6,,,,,,,,,5,,,78,108
32352,note_on,2,0,7,,,,,,,,,6,,,78,108
32446,note_on,94,0,6,,,,,,,,,5,,,78,0
32446,note_on,94,0,8,,,,,,,,,7,,,54,0
32446,note_on,94,0,7,,,,,,,,,6,,,78,0
32448,note_on,0,0,7,,,,,,,,,6,,,70,108
32448,note_on,2,0,8,,,,,,,,,7,,,42,108
32448,note_on,0,0,7,,,,,,,,,6,,,73,108
32448,note_on,0,0,6,,,,,,,,,5,,,73,108
32448,note_on,2,0,6,,,,,,,,,5,,,66,108
32448,note_on,0,0,6,,,,,,,,,5,,,70,108
32448,note_on,2,0,7,,,,,,,,,6,,,66,108
32542,note_on,0,0,6,,,,,,,,,5,,,73,0
32542,note_on,0,0,6,,,,,,,,,5,,,70,0
32542,note_on,94,0,6,,,,,,,,,5,,,66,0
32542,note_on,0,0,7,,,,,,,,,6,,,70,0
32542,note_on,0,0,7,,,,,,,,,6,,,73,0
32542,note_on,94,0,7,,,,,,,,,6,,,66,0
32542,note_on,94,0,8,,,,,,,,,7,,,42,0
32544,note_on,0,0,7,,,,,,,,,6,,,73,108
32544,note_on,2,0,8,,,,,,,,,7,,,42,108
32544,note_on,2,0,6,,,,,,,,,5,,,66,108
32544,note_on,0,0,6,,,,,,,,,5,,,70,108
32544,note_on,0,0,6,,,,,,,,,5,,,73,108
32544,note_on,0,0,7,,,,,,,,,6,,,70,108
32544,note_on,2,0,7,,,,,,,,,6,,,66,108
32638,note_on,94,0,6,,,,,,,,,5,,,66,0
32638,note_on,0,0,6,,,,,,,,,5,,,70,0
32638,note_on,0,0,6,,,,,,,,,5,,,73,0
32638,note_on,94,0,8,,,,,,,,,7,,,42,0
32638,note_on,94,0,7,,,,,,,,,6,,,66,0
32638,note_on,0,0,7,,,,,,,,,6,,,70,0
32638,note_on,0,0,7,,,,,,,,,6,,,73,0
32640,note_on,2,0,8,,,,,,,,,7,,,42,108
32640,note_on,384,0,2,,,,,,,,,1,,,66,0
32640,note_on,0,0,2,,,,,,,,,1,,,64,108
32640,note_on,2,0,7,,,,,,,,,6,,,66,108
32640,note_on,0,0,7,,,,,,,,,6,,,70,108
32640,note_on,0,0,7,,,,,,,,,6,,,73,108
32640,note_on,0,0,6,,,,,,,,,5,,,73,108
32640,note_on,0,0,6,,,,,,,,,5,,,70,108
32640,note_on,2,0,6,,,,,,,,,5,,,66,108
32734,note_on,0,0,6,,,,,,,,,5,,,73,0
32734,note_on,0,0,6,,,,,,,,,5,,,70,0
32734,note_on,94,0,6,,,,,,,,,5,,,66,0
32734,note_on,0,0,7,,,,,,,,,6,,,70,0
32734,note_on,0,0,7,,,,,,,,,6,,,73,0
32734,note_on,94,0,7,,,,,,,,,6,,,66,0
32734,note_on,94,0,8,,,,,,,,,7,,,42,0
32736,note_on,2,0,8,,,,,,,,,7,,,54,108
32736,note_on,2,0,6,,,,,,,,,5,,,78,108
32736,note_on,2,0,7,,,,,,,,,6,,,78,108
32830,note_on,94,0,7,,,,,,,,,6,,,78,0
32830,note_on,94,0,8,,,,,,,,,7,,,54,0
32830,note_on,94,0,6,,,,,,,,,5,,,78,0
32832,note_on,2,0,7,,,,,,,,,6,,,66,108
32832,note_on,0,0,7,,,,,,,,,6,,,70,108
32832,note_on,2,0,6,,,,,,,,,5,,,66,108
32832,note_on,0,0,6,,,,,,,,,5,,,70,108
32832,note_on,0,0,7,,,,,,,,,6,,,73,108
32832,note_on,0,0,6,,,,,,,,,5,,,73,108
32832,note_on,2,0,8,,,,,,,,,7,,,42,108
32926,note_on,94,0,6,,,,,,,,,5,,,66,0
32926,note_on,0,0,7,,,,,,,,,6,,,73,0
32926,note_on,0,0,7,,,,,,,,,6,,,70,0
32926,note_on,94,0,8,,,,,,,,,7,,,42,0
32926,note_on,94,0,7,,,,,,,,,6,,,66,0
32926,note_on,0,0,6,,,,,,,,,5,,,73,0
32926,note_on,0,0,6,,,,,,,,,5,,,70,0
32928,note_on,0,0,6,,,,,,,,,5,,,70,108
32928,note_on,2,0,6,,,,,,,,,5,,,66,108
32928,note_on,2,0,7,,,,,,,,,6,,,66,108
32928,note_on,0,0,7,,,,,,,,,6,,,70,108
32928,note_on,0,0,7,,,,,,,,,6,,,73,108
32928,note_on,0,0,6,,,,,,,,,5,,,73,108
32928,note_on,2,0,8,,,,,,,,,7,,,42,108
33022,note_on,0,0,7,,,,,,,,,6,,,73,0
33022,note_on,94,0,7,,,,,,,,,6,,,66,0
33022,note_on,0,0,7,,,,,,,,,6,,,70,0
33022,note_on,94,0,8,,,,,,,,,7,,,42,0
33022,note_on,94,0,6,,,,,,,,,5,,,66,0
33022,note_on,0,0,6,,,,,,,,,5,,,70,0
33022,note_on,0,0,6,,,,,,,,,5,,,73,0
33024,note_on,2,0,6,,,,,,,,,5,,,66,108
33024,note_on,0,0,1,,,,,,,,,0,,,69,108
33024,note_on,768,0,1,,,,,,,,,0,,,70,0
33024,note_on,2,0,8,,,,,,,,,7,,,42,108
33024,note_on,384,0,2,,,,,,,,,1,,,64,0
33024,note_on,0,0,2,,,,,,,,,1,,,63,108
33024,note_on,768,0,3,,,,,,,,,2,,,61,0
33024,note_on,0,0,3,,,,,,,,,2,,,59,108
33024,note_on,0,0,6,,,,,,,,,5,,,69,108
33024,note_on,0,0,6,,,,,,,,,5,,,75,108
33024,note_on,0,0,7,,,,,,,,,6,,,75,108
33024,note_on,2,0,7,,,,,,,,,6,,,66,108
33024,note_on,0,0,7,,,,,,,,,6,,,69,108
33118,note_on,0,0,7,,,,,,,,,6,,,75,0
33118,note_on,0,0,7,,,,,,,,,6,,,69,0
33118,note_on,94,0,7,,,,,,,,,6,,,66,0
33118,note_on,94,0,8,,,,,,,,,7,,,42,0
33118,note_on,94,0,6,,,,,,,,,5,,,66,0
33118,note_on,0,0,6,,,,,,,,,5,,,69,0
33118,note_on,0,0,6,,,,,,,,,5,,,75,0
33120,note_on,2,0,6,,,,,,,,,5,,,78,108
33120,note_on,2,0,7,,,,,,,,,6,,,78,108
33120,note_on,2,0,8,,,,,,,,,7,,,54,108
33214,note_on,94,0,8,,,,,,,,,7,,,54,0
33214,note_on,94,0,6,,,,,,,,,5,,,78,0
33214,note_on,94,0,7,,,,,,,,,6,,,78,0
33216,note_on,0,0,7,,,,,,,,,6,,,69,108
33216,note_on,0,0,7,,,,,,,,,6,,,75,108
33216,note_on,2,0,7,,,,,,,,,6,,,66,108
33216,note_on,2,0,8,,,,,,,,,7,,,42,108
33216,note_on,2,0,6,,,,,,,,,5,,,66,108
33216,note_on,0,0,6,,,,,,,,,5,,,69,108
33216,note_on,0,0,6,,,,,,,,,5,,,75,108
33310,note_on,0,0,6,,,,,,,,,5,,,75,0
33310,note_on,0,0,7,,,,,,,,,6,,,75,0
33310,note_on,0,0,7,,,,,,,,,6,,,69,0
33310,note_on,94,0,8,,,,,,,,,7,,,42,0
33310,note_on,94,0,7,,,,,,,,,6,,,66,0
33310,note_on,94,0,6,,,,,,,,,5,,,66,0
33310,note_on,0,0,6,,,,,,,,,5,,,69,0
33312,note_on,0,0,7,,,,,,,,,6,,,75,108
33312,note_on,0,0,7,,,,,,,,,6,,,69,108
33312,note_on,2,0,7,,,,,,,,,6,,,66,108
33312,note_on,2,0,6,,,,,,,,,5,,,66,108
33312,note_on,0,0,6,,,,,,,,,5,,,75,108
33312,note_on,0,0,6,,,,,,,,,5,,,69,108
33312,note_on,2,0,8,,,,,,,,,7,,,42,108
33406,note_on,94,0,7,,,,,,,,,6,,,66,0
33406,note_on,94,0,6,,,,,,,,,5,,,66,0
33406,note_on,0,0,7,,,,,,,,,6,,,75,0
33406,note_on,0,0,7,,,,,,,,,6,,,69,0
33406,note_on,0,0,6,,,,,,,,,5,,,69,0
33406,note_on,0,0,6,,,,,,,,,5,,,75,0
33406,note_on,94,0,8,,,,,,,,,7,,,42,0
33408,note_on,2,0,8,,,,,,,,,7,,,42,108
33408,note_on,2,0,6,,,,,,,,,5,,,66,108
33408,note_on,0,0,6,,,,,,,,,5,,,75,108
33408,note_on,2,0,7,,,,,,,,,6,,,66,108
33408,note_on,0,0,7,,,,,,,,,6,,,69,108
33408,note_on,0,0,7,,,,,,,,,6,,,75,108
33408,note_on,0,0,6,,,,,,,,,5,,,69,108
33502,note_on,0,0,7,,,,,,,,,6,,,75,0
33502,note_on,94,0,7,,,,,,,,,6,,,66,0
33502,note_on,0,0,7,,,,,,,,,6,,,69,0
33502,note_on,0,0,6,,,,,,,,,5,,,75,0
33502,note_on,0,0,6,,,,,,,,,5,,,69,0
33502,note_on,94,0,8,,,,,,,,,7,,,42,0
33502,note_on,94,0,6,,,,,,,,,5,,,66,0
33504,note_on,2,0,7,,,,,,,,,6,,,78,108
33504,note_on,2,0,8,,,,,,,,,7,,,54,108
33504,note_on,2,0,6,,,,,,,,,5,,,78,108
33598,note_on,94,0,6,,,,,,,,,5,,,78,0
33598,note_on,94,0,7,,,,,,,,,6,,,78,0
33598,note_on,94,0,8,,,,,,,,,7,,,54,0
33600,note_on,0,0,7,,,,,,,,,6,,,69,108
33600,note_on,2,0,7,,,,,,,,,6,,,66,108
33600,note_on,0,0,6,,,,,,,,,5,,,75,108
33600,note_on,0,0,6,,,,,,,,,5,,,69,108
33600,note_on,2,0,6,,,,,,,,,5,,,66,108
33600,note_on,2,0,8,,,,,,,,,7,,,42,108
33600,note_on,0,0,7,,,,,,,,,6,,,75,108
33694,note_on,94,0,8,,,,,,,,,7,,,42,0
33694,note_on,0,0,7,,,,,,,,,6,,,69,0
33694,note_on,0,0,6,,,,,,,,,5,,,69,0
33694,note_on,94,0,6,,,,,,,,,5,,,66,0
33694,note_on,0,0,7,,,,,,,,,6,,,75,0
33694,note_on,0,0,6,,,,,,,,,5,,,75,0
33694,note_on,94,0,7,,,,,,,,,6,,,66,0
33696,note_on,2,0,7,,,,,,,,,6,,,66,108
33696,note_on,2,0,6,,,,,,,,,5,,,66,108
33696,note_on,0,0,6,,,,,,,,,5,,,69,108
33696,note_on,2,0,8,,,,,,,,,7,,,42,108
33696,note_on,0,0,7,,,,,,,,,6,,,69,108
33696,note_on,0,0,7,,,,,,,,,6,,,75,108
33696,note_on,0,0,6,,,,,,,,,5,,,75,108
33790,note_on,94,0,6,,,,,,,,,5,,,66,0
33790,note_on,94,0,8,,,,,,,,,7,,,42,0
33790,note_on,0,0,7,,,,,,,,,6,,,75,0
33790,note_on,0,0,7,,,,,,,,,6,,,69,0
33790,note_on,94,0,7,,,,,,,,,6,,,66,0
33790,note_on,0,0,6,,,,,,,,,5,,,69,0
33790,note_on,0,0,6,,,,,,,,,5,,,75,0
33792,note_on,2,0,8,,,,,,,,,7,,,42,108
33792,note_on,0,0,3,,,,,,,,,2,,,60,108
33792,note_on,768,0,3,,,,,,,,,2,,,59,0
33792,note_on,0,0,6,,,,,,,,,5,,,75,108
33792,note_on,2,0,6,,,,,,,,,5,,,69,108
33792,note_on,0,0,6,,,,,,,,,5,,,72,108
33792,note_on,0,0,7,,,,,,,,,6,,,72,108
33792,note_on,0,0,7,,,,,,,,,6,,,75,108
33792,note_on,2,0,7,,,,,,,,,6,,,69,108
33886,note_on,94,0,6,,,,,,,,,5,,,69,0
33886,note_on,0,0,6,,,,,,,,,5,,,72,0
33886,note_on,0,0,6,,,,,,,,,5,,,75,0
33886,note_on,94,0,7,,,,,,,,,6,,,69,0
33886,note_on,0,0,7,,,,,,,,,6,,,72,0
33886,note_on,0,0,7,,,,,,,,,6,,,75,0
33886,note_on,94,0,8,,,,,,,,,7,,,42,0
33888,note_on,2,0,6,,,,,,,,,5,,,78,108
33888,note_on,2,0,8,,,,,,,,,7,,,54,108
33888,note_on,2,0,7,,,,,,,,,6,,,78,108
33982,note_on,94,0,6,,,,,,,,,5,,,78,0
33982,note_on,94,0,8,,,,,,,,,7,,,54,0
33982,note_on,94,0,7,,,,,,,,,6,,,78,0
33984,note_on,2,0,7,,,,,,,,,6,,,69,108
33984,note_on,0,0,7,,,,,,,,,6,,,72,108
33984,note_on,0,0,7,,,,,,,,,6,,,75,108
33984,note_on,0,0,6,,,,,,,,,5,,,75,108
33984,note_on,0,0,6,,,,,,,,,5,,,72,108
33984,note_on,2,0,6,,,,,,,,,5,,,69,108
33984,note_on,2,0,8,,,,,,,,,7,,,42,108
34078,note_on,0,0,6,,,,,,,,,5,,,72,0
34078,note_on,0,0,6,,,,,,,,,5,,,75,0
34078,note_on,94,0,6,,,,,,,,,5,,,69,0
34078,note_on,0,0,7,,,,,,,,,6,,,75,0
34078,note_on,0,0,7,,,,,,,,,6,,,72,0
34078,note_on,94,0,7,,,,,,,,,6,,,69,0
34078,note_on,94,0,8,,,,,,,,,7,,,42,0
34080,note_on,2,0,8,,,,,,,,,7,,,42,108
34080,note_on,2,0,7,,,,,,,,,6,,,69,108
34080,note_on,0,0,7,,,,,,,,,6,,,75,108
34080,note_on,0,0,7,,,,,,,,,6,,,72,108
34080,note_on,0,0,6,,,,,,,,,5,,,75,108
34080,note_on,0,0,6,,,,,,,,,5,,,72,108
34080,note_on,2,0,6,,,,,,,,,5,,,69,108
34174,note_on,94,0,7,,,,,,,,,6,,,69,0
34174,note_on,94,0,8,,,,,,,,,7,,,42,0
34174,note_on,0,0,7,,,,,,,,,6,,,72,0
34174,note_on,94,0,6,,,,,,,,,5,,,69,0
34174,note_on,0,0,6,,,,,,,,,5,,,72,0
34174,note_on,0,0,6,,,,,,,,,5,,,75,0
34174,note_on,0,0,7,,,,,,,,,6,,,75,0
34176,note_on,2,0,7,,,,,,,,,6,,,69,108
34176,note_on,0,0,7,,,,,,,,,6,,,72,108
34176,note_on,0,0,7,,,,,,,,,6,,,75,108
34176,note_on,2,0,8,,,,,,,,,7,,,42,108
34176,note_on,2,0,6,,,,,,,,,5,,,69,108
34176,note_on,0,0,6,,,,,,,,,5,,,75,108
34176,note_on,0,0,6,,,,,,,,,5,,,72,108
34270,note_on,94,0,8,,,,,,,,,7,,,42,0
34270,note_on,0,0,7,,,,,,,,,6,,,75,0
34270,note_on,94,0,6,,,,,,,,,5,,,69,0
34270,note_on,0,0,6,,,,,,,,,5,,,72,0
34270,note_on,0,0,6,,,,,,,,,5,,,75,0
34270,note_on,94,0,7,,,,,,,,,6,,,69,0
34270,note_on,0,0,7,,,,,,,,,6,,,72,0
34272,note_on,2,0,8,,,,,,,,,7,,,54,108
34272,note_on,2,0,6,,,,,,,,,5,,,78,108
34272,note_on,2,0,7,,,,,,,,,6,,,78,108
34366,note_on,94,0,7,,,,,,,,,6,,,78,0
34366,note_on,94,0,6,,,,,,,,,5,,,78,0
34366,note_on,94,0,8,,,,,,,,,7,,,54,0
34368,note_on,2,0,8,,,,,,,,,7,,,42,108
34368,note_on,2,0,6,,,,,,,,,5,,,69,108
34368,note_on,0,0,6,,,,,,,,,5,,,72,108
34368,note_on,0,0,6,,,,,,,,,5,,,75,108
34368,note_on,0,0,7,,,,,,,,,6,,,75,108
34368,note_on,0,0,7,,,,,,,,,6,,,72,108
34368,note_on,2,0,7,,,,,,,,,6,,,69,108
34462,note_on,94,0,8,,,,,,,,,7,,,42,0
34462,note_on,0,0,6,,,,,,,,,5,,,75,0
34462,note_on,0,0,6,,,,,,,,,5,,,72,0
34462,note_on,94,0,6,,,,,,,,,5,,,69,0
34462,note_on,94,0,7,,,,,,,,,6,,,69,0
34462,note_on,0,0,7,,,,,,,,,6,,,72,0
34462,note_on,0,0,7,,,,,,,,,6,,,75,0
34464,note_on,2,0,7,,,,,,,,,6,,,69,108
34464,note_on,0,0,7,,,,,,,,,6,,,72,108
34464,note_on,0,0,7,,,,,,,,,6,,,75,108
34464,note_on,2,0,6,,,,,,,,,5,,,69,108
34464,note_on,0,0,6,,,,,,,,,5,,,72,108
34464,note_on,0,0,6,,,,,,,,,5,,,75,108
34464,note_on,2,0,8,,,,,,,,,7,,,42,108
34512,note_on,1488,0,1,,,,,,,,,0,,,69,0
34512,note_on,2256,0,4,,,,,,,,,3,,,54,0
34512,note_on,1488,0,2,,,,,,,,,1,,,63,0
34512,note_on,720,0,3,,,,,,,,,2,,,60,0
34558,note_on,94,0,6,,,,,,,,,5,,,69,0
34558,note_on,94,0,8,,,,,,,,,7,,,42,0
34558,note_on,0,0,6,,,,,,,,,5,,,75,0
34558,note_on,0,0,7,,,,,,,,,6,,,75,0
34558,note_on,0,0,7,,,,,,,,,6,,,72,0
34558,note_on,94,0,7,,,,,,,,,6,,,69,0
34558,note_on,0,0,6,,,,,,,,,5,,,72,0
34560,note_on,0,0,6,,,,,,,,,5,,,68,108
34560,note_on,2,0,6,,,,,,,,,5,,,64,108
34560,note_on,48,0,4,,,,,,,,,3,,,49,108
34560,note_on,48,0,2,,,,,,,,,1,,,64,108
34560,note_on,48,0,1,,,,,,,,,0,,,68,108
34560,note_on,0,0,6,,,,,,,,,5,,,73,108
34560,note_on,2,0,8,,,,,,,,,7,,,49,108
34560,note_on,0,0,7,,,,,,,,,6,,,73,108
34560,note_on,0,0,7,,,,,,,,,6,,,68,108
34560,note_on,2,0,7,,,,,,,,,6,,,64,108
34560,note_on,48,0,3,,,,,,,,,2,,,61,108
34654,note_on,0,0,6,,,,,,,,,5,,,73,0
34654,note_on,94,0,8,,,,,,,,,7,,,49,0
34654,note_on,0,0,6,,,,,,,,,5,,,68,0
34654,note_on,94,0,6,,,,,,,,,5,,,64,0
34654,note_on,94,0,7,,,,,,,,,6,,,64,0
34654,note_on,0,0,7,,,,,,,,,6,,,68,0
34654,note_on,0,0,7,,,,,,,,,6,,,73,0
34656,note_on,2,0,7,,,,,,,,,6,,,76,108
34656,note_on,2,0,6,,,,,,,,,5,,,76,108
34656,note_on,2,0,8,,,,,,,,,7,,,61,108
34750,note_on,94,0,6,,,,,,,,,5,,,76,0
34750,note_on,94,0,8,,,,,,,,,7,,,61,0
34750,note_on,94,0,7,,,,,,,,,6,,,76,0
34752,note_on,0,0,6,,,,,,,,,5,,,73,108
34752,note_on,0,0,6,,,,,,,,,5,,,68,108
34752,note_on,2,0,8,,,,,,,,,7,,,49,108
34752,note_on,2,0,7,,,,,,,,,6,,,64,108
34752,note_on,0,0,7,,,,,,,,,6,,,68,108
34752,note_on,0,0,7,,,,,,,,,6,,,73,108
34752,note_on,2,0,6,,,,,,,,,5,,,64,108
34846,note_on,0,0,6,,,,,,,,,5,,,68,0
34846,note_on,94,0,7,,,,,,,,,6,,,64,0
34846,note_on,0,0,7,,,,,,,,,6,,,68,0
34846,note_on,0,0,7,,,,,,,,,6,,,73,0
34846,note_on,94,0,6,,,,,,,,,5,,,64,0
34846,note_on,94,0,8,,,,,,,,,7,,,49,0
34846,note_on,0,0,6,,,,,,,,,5,,,73,0
34848,note_on,0,0,6,,,,,,,,,5,,,73,108
34848,note_on,0,0,6,,,,,,,,,5,,,68,108
34848,note_on,2,0,6,,,,,,,,,5,,,64,108
34848,note_on,2,0,7,,,,,,,,,6,,,64,108
34848,note_on,0,0,7,,,,,,,,,6,,,68,108
34848,note_on,0,0,7,,,,,,,,,6,,,73,108
34848,note_on,2,0,8,,,,,,,,,7,,,49,108
34942,note_on,94,0,7,,,,,,,,,6,,,64,0
34942,note_on,0,0,7,,,,,,,,,6,,,68,0
34942,note_on,0,0,7,,,,,,,,,6,,,73,0
34942,note_on,94,0,8,,,,,,,,,7,,,49,0
34942,note_on,0,0,6,,,,,,,,,5,,,73,0
34942,note_on,0,0,6,,,,,,,,,5,,,68,0
34942,note_on,94,0,6,,,,,,,,,5,,,64,0
34944,note_on,2,0,6,,,,,,,,,5,,,64,108
34944,note_on,0,0,6,,,,,,,,,5,,,68,108
34944,note_on,2,0,8,,,,,,,,,7,,,49,108
34944,note_on,2,0,7,,,,,,,,,6,,,64,108
34944,note_on,0,0,6,,,,,,,,,5,,,73,108
34944,note_on,0,0,7,,,,,,,,,6,,,73,108
34944,note_on,0,0,7,,,,,,,,,6,,,68,108
35038,note_on,0,0,7,,,,,,,,,6,,,73,0
35038,note_on,0,0,6,,,,,,,,,5,,,73,0
35038,note_on,94,0,8,,,,,,,,,7,,,49,0
35038,note_on,94,0,7,,,,,,,,,6,,,64,0
35038,note_on,0,0,7,,,,,,,,,6,,,68,0
35038,note_on,0,0,6,,,,,,,,,5,,,68,0
35038,note_on,94,0,6,,,,,,,,,5,,,64,0
35040,note_on,2,0,6,,,,,,,,,5,,,76,108
35040,note_on,2,0,7,,,,,,,,,6,,,76,108
35040,note_on,2,0,8,,,,,,,,,7,,,61,108
35134,note_on,94,0,8,,,,,,,,,7,,,61,0
35134,note_on,94,0,7,,,,,,,,,6,,,76,0
35134,note_on,94,0,6,,,,,,,,,5,,,76,0
35136,note_on,0,0,6,,,,,,,,,5,,,73,108
35136,note_on,2,0,6,,,,,,,,,5,,,64,108
35136,note_on,0,0,6,,,,,,,,,5,,,68,108
35136,note_on,0,0,7,,,,,,,,,6,,,73,108
35136,note_on,0,0,7,,,,,,,,,6,,,68,108
35136,note_on,2,0,8,,,,,,,,,7,,,49,108
35136,note_on,2,0,7,,,,,,,,,6,,,64,108
35230,note_on,94,0,7,,,,,,,,,6,,,64,0
35230,note_on,0,0,7,,,,,,,,,6,,,73,0
35230,note_on,94,0,6,,,,,,,,,5,,,64,0
35230,note_on,0,0,6,,,,,,,,,5,,,68,0
35230,note_on,94,0,8,,,,,,,,,7,,,49,0
35230,note_on,0,0,6,,,,,,,,,5,,,73,0
35230,note_on,0,0,7,,,,,,,,,6,,,68,0
35232,note_on,2,0,8,,,,,,,,,7,,,49,108
35232,note_on,2,0,6,,,,,,,,,5,,,64,108
35232,note_on,0,0,6,,,,,,,,,5,,,73,108
35232,note_on,0,0,7,,,,,,,,,6,,,73,108
35232,note_on,0,0,7,,,,,,,,,6,,,68,108
35232,note_on,2,0,7,,,,,,,,,6,,,64,108
35232,note_on,0,0,6,,,,,,,,,5,,,68,108
35280,note_on,720,0,3,,,,,,,,,2,,,61,0
35280,note_on,720,0,2,,,,,,,,,1,,,64,0
35280,note_on,720,0,4,,,,,,,,,3,,,49,0
35280,note_on,720,0,1,,,,,,,,,0,,,68,0
35326,note_on,94,0,8,,,,,,,,,7,,,49,0
35326,note_on,0,0,6,,,,,,,,,5,,,73,0
35326,note_on,94,0,7,,,,,,,,,6,,,64,0
35326,note_on,94,0,6,,,,,,,,,5,,,64,0
35326,note_on,0,0,6,,,,,,,,,5,,,68,0
35326,note_on,0,0,7,,,,,,,,,6,,,73,0
35326,note_on,0,0,7,,,,,,,,,6,,,68,0
35328,note_on,2,0,7,,,,,,,,,6,,,63,108
35328,note_on,2,0,8,,,,,,,,,7,,,44,108
35328,note_on,48,0,3,,,,,,,,,2,,,61,108
35328,note_on,0,0,7,,,,,,,,,6,,,73,108
35328,note_on,0,0,7,,,,,,,,,6,,,68,108
35328,note_on,0,0,6,,,,,,,,,5,,,73,108
35328,note_on,0,0,6,,,,,,,,,5,,,68,108
35328,note_on,2,0,6,,,,,,,,,5,,,63,108
35328,note_on,48,0,2,,,,,,,,,1,,,63,108
35328,note_on,48,0,1,,,,,,,,,0,,,68,108
35328,note_on,48,0,4,,,,,,,,,3,,,56,108
35422,note_on,94,0,8,,,,,,,,,7,,,44,0
35422,note_on,94,0,7,,,,,,,,,6,,,63,0
35422,note_on,94,0,6,,,,,,,,,5,,,63,0
35422,note_on,0,0,6,,,,,,,,,5,,,73,0
35422,note_on,0,0,6,,,,,,,,,5,,,68,0
35422,note_on,0,0,7,,,,,,,,,6,,,73,0
35422,note_on,0,0,7,,,,,,,,,6,,,68,0
35424,note_on,2,0,7,,,,,,,,,6,,,75,108
35424,note_on,2,0,6,,,,,,,,,5,,,75,108
35424,note_on,2,0,8,,,,,,,,,7,,,56,108
35518,note_on,94,0,6,,,,,,,,,5,,,75,0
35518,note_on,94,0,8,,,,,,,,,7,,,56,0
35518,note_on,94,0,7,,,,,,,,,6,,,75,0
35520,note_on,0,0,7,,,,,,,,,6,,,73,108
35520,note_on,0,0,7,,,,,,,,,6,,,68,108
35520,note_on,0,0,6,,,,,,,,,5,,,73,108
35520,note_on,0,0,6,,,,,,,,,5,,,68,108
35520,note_on,2,0,6,,,,,,,,,5,,,63,108
35520,note_on,2,0,7,,,,,,,,,6,,,63,108
35520,note_on,2,0,8,,,,,,,,,7,,,44,108
35614,note_on,0,0,6,,,,,,,,,5,,,68,0
35614,note_on,94,0,6,,,,,,,,,5,,,63,0
35614,note_on,94,0,8,,,,,,,,,7,,,44,0
35614,note_on,0,0,6,,,,,,,,,5,,,73,0
35614,note_on,94,0,7,,,,,,,,,6,,,63,0
35614,note_on,0,0,7,,,,,,,,,6,,,68,0
35614,note_on,0,0,7,,,,,,,,,6,,,73,0
35616,note_on,2,0,7,,,,,,,,,6,,,63,108
35616,note_on,0,0,6,,,,,,,,,5,,,73,108
35616,note_on,0,0,6,,,,,,,,,5,,,68,108
35616,note_on,2,0,6,,,,,,,,,5,,,63,108
35616,note_on,0,0,7,,,,,,,,,6,,,73,108
35616,note_on,2,0,8,,,,,,,,,7,,,44,108
35616,note_on,0,0,7,,,,,,,,,6,,,68,108
35710,note_on,94,0,8,,,,,,,,,7,,,44,0
35710,note_on,0,0,6,,,,,,,,,5,,,68,0
35710,note_on,0,0,6,,,,,,,,,5,,,73,0
35710,note_on,94,0,7,,,,,,,,,6,,,63,0
35710,note_on,0,0,7,,,,,,,,,6,,,68,0
35710,note_on,0,0,7,,,,,,,,,6,,,73,0
35710,note_on,94,0,6,,,,,,,,,5,,,63,0
35712,note_on,2,0,7,,,,,,,,,6,,,63,108
35712,note_on,0,0,7,,,,,,,,,6,,,68,108
35712,note_on,0,0,7,,,,,,,,,6,,,73,108
35712,note_on,0,0,6,,,,,,,,,5,,,73,108
35712,note_on,0,0,6,,,,,,,,,5,,,68,108
35712,note_on,2,0,6,,,,,,,,,5,,,63,108
35712,note_on,2,0,8,,,,,,,,,7,,,44,108
35806,note_on,94,0,7,,,,,,,,,6,,,63,0
35806,note_on,0,0,7,,,,,,,,,6,,,68,0
35806,note_on,0,0,6,,,,,,,,,5,,,73,0
35806,note_on,0,0,6,,,,,,,,,5,,,68,0
35806,note_on,94,0,6,,,,,,,,,5,,,63,0
35806,note_on,94,0,8,,,,,,,,,7,,,44,0
35806,note_on,0,0,7,,,,,,,,,6,,,73,0
35808,note_on,2,0,8,,,,,,,,,7,,,56,108
35808,note_on,2,0,7,,,,,,,,,6,,,75,108
35808,note_on,2,0,6,,,,,,,,,5,,,75,108
35902,note_on,94,0,6,,,,,,,,,5,,,75,0
35902,note_on,94,0,8,,,,,,,,,7,,,56,0
35902,note_on,94,0,7,,,,,,,,,6,,,75,0
35904,note_on,0,0,7,,,,,,,,,6,,,73,108
35904,note_on,0,0,7,,,,,,,,,6,,,68,108
35904,note_on,2,0,7,,,,,,,,,6,,,63,108
35904,note_on,2,0,6,,,,,,,,,5,,,63,108
35904,note_on,2,0,8,,,,,,,,,7,,,44,108
35904,note_on,0,0,6,,,,,,,,,5,,,68,108
35904,note_on,0,0,6,,,,,,,,,5,,,73,108
35998,note_on,0,0,7,,,,,,,,,6,,,73,0
35998,note_on,94,0,7,,,,,,,,,6,,,63,0
35998,note_on,0,0,7,,,,,,,,,6,,,68,0
35998,note_on,0,0,6,,,,,,,,,5,,,68,0
35998,note_on,0,0,6,,,,,,,,,5,,,73,0
35998,note_on,94,0,8,,,,,,,,,7,,,44,0
35998,note_on,94,0,6,,,,,,,,,5,,,63,0
36000,note_on,0,0,7,,,,,,,,,6,,,73,108
36000,note_on,0,0,7,,,,,,,,,6,,,68,108
36000,note_on,2,0,7,,,,,,,,,6,,,63,108
36000,note_on,2,0,8,,,,,,,,,7,,,44,108
36000,note_on,2,0,6,,,,,,,,,5,,,63,108
36000,note_on,0,0,6,,,,,,,,,5,,,68,108
36000,note_on,0,0,6,,,,,,,,,5,,,73,108
36094,note_on,94,0,6,,,,,,,,,5,,,63,0
36094,note_on,0,0,6,,,,,,,,,5,,,68,0
36094,note_on,0,0,6,,,,,,,,,5,,,73,0
36094,note_on,94,0,8,,,,,,,,,7,,,44,0
36094,note_on,0,0,7,,,,,,,,,6,,,68,0
36094,note_on,0,0,7,,,,,,,,,6,,,73,0
36094,note_on,94,0,7,,,,,,,,,6,,,63,0
36096,note_on,0,0,3,,,,,,,,,2,,,60,108
36096,note_on,768,0,3,,,,,,,,,2,,,61,0
36096,note_on,0,0,6,,,,,,,,,5,,,72,108
36096,note_on,0,0,6,,,,,,,,,5,,,68,108
36096,note_on,2,0,8,,,,,,,,,7,,,44,108
36096,note_on,2,0,6,,,,,,,,,5,,,63,108
36096,note_on,0,0,7,,,,,,,,,6,,,72,108
36096,note_on,0,0,7,,,,,,,,,6,,,68,108
36096,note_on,2,0,7,,,,,,,,,6,,,63,108
36190,note_on,0,0,7,,,,,,,,,6,,,72,0
36190,note_on,94,0,7,,,,,,,,,6,,,63,0
36190,note_on,94,0,6,,,,,,,,,5,,,63,0
36190,note_on,0,0,6,,,,,,,,,5,,,68,0
36190,note_on,0,0,6,,,,,,,,,5,,,72,0
36190,note_on,94,0,8,,,,,,,,,7,,,44,0
36190,note_on,0,0,7,,,,,,,,,6,,,68,0
36192,note_on,2,0,6,,,,,,,,,5,,,75,108
36192,note_on,2,0,7,,,,,,,,,6,,,75,108
36192,note_on,2,0,8,,,,,,,,,7,,,56,108
36286,note_on,94,0,6,,,,,,,,,5,,,75,0
36286,note_on,94,0,8,,,,,,,,,7,,,56,0
36286,note_on,94,0,7,,,,,,,,,6,,,75,0
36288,note_on,0,0,6,,,,,,,,,5,,,72,108
36288,note_on,0,0,6,,,,,,,,,5,,,68,108
36288,note_on,2,0,6,,,,,,,,,5,,,63,108
36288,note_on,2,0,8,,,,,,,,,7,,,44,108
36288,note_on,2,0,7,,,,,,,,,6,,,63,108
36288,note_on,0,0,7,,,,,,,,,6,,,68,108
36288,note_on,0,0,7,,,,,,,,,6,,,72,108
36382,note_on,0,0,6,,,,,,,,,5,,,68,0
36382,note_on,94,0,6,,,,,,,,,5,,,63,0
36382,note_on,94,0,7,,,,,,,,,6,,,63,0
36382,note_on,0,0,7,,,,,,,,,6,,,72,0
36382,note_on,94,0,8,,,,,,,,,7,,,44,0
36382,note_on,0,0,6,,,,,,,,,5,,,72,0
36382,note_on,0,0,7,,,,,,,,,6,,,68,0
36384,note_on,2,0,7,,,,,,,,,6,,,63,108
36384,note_on,0,0,7,,,,,,,,,6,,,68,108
36384,note_on,0,0,7,,,,,,,,,6,,,72,108
36384,note_on,0,0,6,,,,,,,,,5,,,72,108
36384,note_on,0,0,6,,,,,,,,,5,,,68,108
36384,note_on,2,0,6,,,,,,,,,5,,,63,108
36384,note_on,2,0,8,,,,,,,,,7,,,44,108
36478,note_on,0,0,7,,,,,,,,,6,,,72,0
36478,note_on,0,0,7,,,,,,,,,6,,,68,0
36478,note_on,94,0,6,,,,,,,,,5,,,63,0
36478,note_on,0,0,6,,,,,,,,,5,,,68,0
36478,note_on,94,0,7,,,,,,,,,6,,,63,0
36478,note_on,0,0,6,,,,,,,,,5,,,72,0
36478,note_on,94,0,8,,,,,,,,,7,,,44,0
36480,note_on,2,0,8,,,,,,,,,7,,,44,108
36480,note_on,2,0,6,,,,,,,,,5,,,63,108
36480,note_on,0,0,6,,,,,,,,,5,,,68,108
36480,note_on,0,0,6,,,,,,,,,5,,,72,108
36480,note_on,0,0,7,,,,,,,,,6,,,72,108
36480,note_on,0,0,7,,,,,,,,,6,,,68,108
36480,note_on,2,0,7,,,,,,,,,6,,,63,108
36574,note_on,0,0,6,,,,,,,,,5,,,72,0
36574,note_on,0,0,7,,,,,,,,,6,,,72,0
36574,note_on,94,0,7,,,,,,,,,6,,,63,0
36574,note_on,0,0,6,,,,,,,,,5,,,68,0
36574,note_on,94,0,6,,,,,,,,,5,,,63,0
36574,note_on,0,0,7,,,,,,,,,6,,,68,0
36574,note_on,94,0,8,,,,,,,,,7,,,44,0
36576,note_on,2,0,8,,,,,,,,,7,,,56,108
36576,note_on,2,0,6,,,,,,,,,5,,,75,108
36576,note_on,2,0,7,,,,,,,,,6,,,75,108
36670,note_on,94,0,8,,,,,,,,,7,,,56,0
36670,note_on,94,0,6,,,,,,,,,5,,,75,0
36670,note_on,94,0,7,,,,,,,,,6,,,75,0
36672,note_on,0,0,6,,,,,,,,,5,,,68,108
36672,note_on,0,0,6,,,,,,,,,5,,,72,108
36672,note_on,0,0,7,,,,,,,,,6,,,72,108
36672,note_on,2,0,6,,,,,,,,,5,,,63,108
36672,note_on,0,0,7,,,,,,,,,6,,,68,108
36672,note_on,2,0,8,,,,,,,,,7,,,44,108
36672,note_on,2,0,7,,,,,,,,,6,,,63,108
36766,note_on,94,0,7,,,,,,,,,6,,,63,0
36766,note_on,0,0,6,,,,,,,,,5,,,68,0
36766,note_on,94,0,8,,,,,,,,,7,,,44,0
36766,note_on,94,0,6,,,,,,,,,5,,,63,0
36766,note_on,0,0,6,,,,,,,,,5,,,72,0
36766,note_on,0,0,7,,,,,,,,,6,,,68,0
36766,note_on,0,0,7,,,,,,,,,6,,,72,0
36768,note_on,0,0,6,,,,,,,,,5,,,72,108
36768,note_on,2,0,6,,,,,,,,,5,,,63,108
36768,note_on,2,0,7,,,,,,,,,6,,,63,108
36768,note_on,0,0,7,,,,,,,,,6,,,68,108
36768,note_on,0,0,6,,,,,,,,,5,,,68,108
36768,note_on,0,0,7,,,,,,,,,6,,,72,108
36768,note_on,2,0,8,,,,,,,,,7,,,44,108
36816,note_on,1488,0,2,,,,,,,,,1,,,63,0
36816,note_on,720,0,3,,,,,,,,,2,,,60,0
36816,note_on,1488,0,4,,,,,,,,,3,,,56,0
36816,note_on,1488,0,1,,,,,,,,,0,,,68,0
36862,note_on,0,0,6,,,,,,,,,5,,,72,0
36862,note_on,0,0,6,,,,,,,,,5,,,68,0
36862,note_on,94,0,6,,,,,,,,,5,,,63,0
36862,note_on,0,0,7,,,,,,,,,6,,,72,0
36862,note_on,0,0,7,,,,,,,,,6,,,68,0
36862,note_on,94,0,8,,,,,,,,,7,,,44,0
36862,note_on,94,0,7,,,,,,,,,6,,,63,0
36864,note_on,0,0,6,,,,,,,,,5,,,68,92
36864,note_on,2,0,6,,,,,,,,,5,,,64,92
36864,note_on,48,0,4,,,,,,,,,3,,,49,92
36864,note_on,2,0,8,,,,,,,,,7,,,49,92
36864,note_on,2,0,7,,,,,,,,,6,,,64,92
36864,note_on,48,0,1,,,,,,,,,0,,,68,92
36864,note_on,0,0,7,,,,,,,,,6,,,68,92
36864,note_on,48,0,2,,,,,,,,,1,,,64,92
36864,note_on,48,0,3,,,,,,,,,2,,,61,92
36958,note_on,94,0,7,,,,,,,,,6,,,64,0
36958,note_on,94,0,6,,,,,,,,,5,,,64,0
36958,note_on,0,0,6,,,,,,,,,5,,,68,0
36958,note_on,0,0,7,,,,,,,,,6,,,68,0
36958,note_on,94,0,8,,,,,,,,,7,,,49,0
36960,note_on,2,0,6,,,,,,,,,5,,,73,92
36960,note_on,2,0,7,,,,,,,,,6,,,73,92
36960,note_on,2,0,8,,,,,,,,,7,,,61,92
37054,note_on,94,0,6,,,,,,,,,5,,,73,0
37054,note_on,94,0,8,,,,,,,,,7,,,61,0
37054,note_on,94,0,7,,,,,,,,,6,,,73,0
37056,note_on,2,0,8,,,,,,,,,7,,,49,92
37056,note_on,2,0,6,,,,,,,,,5,,,61,92
37056,note_on,2,0,7,,,,,,,,,6,,,61,92
37150,note_on,94,0,7,,,,,,,,,6,,,61,0
37150,note_on,94,0,8,,,,,,,,,7,,,49,0
37150,note_on,94,0,6,,,,,,,,,5,,,61,0
37152,note_on,2,0,8,,,,,,,,,7,,,49,92
37152,note_on,2,0,7,,,,,,,,,6,,,61,92
37152,note_on,2,0,6,,,,,,,,,5,,,61,92
37246,note_on,94,0,8,,,,,,,,,7,,,49,0
37246,note_on,94,0,6,,,,,,,,,5,,,61,0
37246,note_on,94,0,7,,,,,,,,,6,,,61,0
37248,note_on,2,0,7,,,,,,,,,6,,,61,92
37248,note_on,2,0,6,,,,,,,,,5,,,61,92
37248,note_on,2,0,8,,,,,,,,,7,,,49,92
37342,note_on,94,0,7,,,,,,,,,6,,,61,0
37342,note_on,94,0,8,,,,,,,,,7,,,49,0
37342,note_on,94,0,6,,,,,,,,,5,,,61,0
37344,note_on,2,0,8,,,,,,,,,7,,,61,92
37344,note_on,2,0,6,,,,,,,,,5,,,73,92
37344,note_on,2,0,7,,,,,,,,,6,,,73,92
37438,note_on,94,0,6,,,,,,,,,5,,,73,0
37438,note_on,94,0,7,,,,,,,,,6,,,73,0
37438,note_on,94,0,8,,,,,,,,,7,,,61,0
37440,note_on,2,0,6,,,,,,,,,5,,,61,92
37440,note_on,2,0,7,,,,,,,,,6,,,61,92
37440,note_on,2,0,8,,,,,,,,,7,,,49,92
37534,note_on,94,0,8,,,,,,,,,7,,,49,0
37534,note_on,94,0,6,,,,,,,,,5,,,61,0
37534,note_on,94,0,7,,,,,,,,,6,,,61,0
37536,note_on,2,0,8,,,,,,,,,7,,,49,92
37536,note_on,2,0,7,,,,,,,,,6,,,61,92
37536,note_on,2,0,6,,,,,,,,,5,,,61,92
37584,note_on,720,0,2,,,,,,,,,1,,,64,0
37584,note_on,720,0,1,,,,,,,,,0,,,68,0
37584,note_on,720,0,4,,,,,,,,,3,,,49,0
37584,note_on,720,0,3,,,,,,,,,2,,,61,0
37630,note_on,94,0,8,,,,,,,,,7,,,49,0
37630,note_on,94,0,6,,,,,,,,,5,,,61,0
37630,note_on,94,0,7,,,,,,,,,6,,,61,0
37632,note_on,2,0,8,,,,,,,,,7,,,49,92
37632,note_on,2,0,6,,,,,,,,,5,,,61,92
37632,note_on,2,0,7,,,,,,,,,6,,,61,92
37726,note_on,94,0,6,,,,,,,,,5,,,61,0
37726,note_on,94,0,7,,,,,,,,,6,,,61,0
37728,note_on,2,0,6,,,,,,,,,5,,,73,92
37728,note_on,0,0,6,,,,,,,,,5,,,76,92
37728,note_on,2,0,7,,,,,,,,,6,,,73,92
37728,note_on,0,0,7,,,,,,,,,6,,,76,92
37774,note_on,46,0,6,,,,,,,,,5,,,73,0
37774,note_on,0,0,6,,,,,,,,,5,,,76,0
37774,note_on,0,0,7,,,,,,,,,6,,,76,0
37774,note_on,46,0,7,,,,,,,,,6,,,73,0
37776,note_on,0,0,6,,,,,,,,,5,,,78,92
37776,note_on,2,0,6,,,,,,,,,5,,,75,92
37776,note_on,2,0,7,,,,,,,,,6,,,75,92
37776,note_on,0,0,7,,,,,,,,,6,,,78,92
37792,note_on,160,0,8,,,,,,,,,7,,,49,0
37822,note_on,0,0,7,,,,,,,,,6,,,78,0
37822,note_on,46,0,7,,,,,,,,,6,,,75,0
37822,note_on,46,0,6,,,,,,,,,5,,,75,0
37822,note_on,0,0,6,,,,,,,,,5,,,78,0
37824,note_on,0,0,7,,,,,,,,,6,,,80,92
37824,note_on,2,0,6,,,,,,,,,5,,,76,92
37824,note_on,0,0,6,,,,,,,,,5,,,80,92
37824,note_on,2,0,7,,,,,,,,,6,,,76,92
37870,note_on,46,0,6,,,,,,,,,5,,,76,0
37870,note_on,0,0,6,,,,,,,,,5,,,80,0
37870,note_on,0,0,7,,,,,,,,,6,,,80,0
37870,note_on,46,0,7,,,,,,,,,6,,,76,0
37872,note_on,0,0,6,,,,,,,,,5,,,78,92
37872,note_on,0,0,7,,,,,,,,,6,,,78,92
37872,note_on,2,0,7,,,,,,,,,6,,,75,92
37872,note_on,2,0,6,,,,,,,,,5,,,75,92
37918,note_on,0,0,7,,,,,,,,,6,,,78,0
37918,note_on,46,0,6,,,,,,,,,5,,,75,0
37918,note_on,0,0,6,,,,,,,,,5,,,78,0
37918,note_on,46,0,7,,,,,,,,,6,,,75,0
37920,note_on,0,0,6,,,,,,,,,5,,,80,92
37920,note_on,0,0,7,,,,,,,,,6,,,80,92
37920,note_on,2,0,7,,,,,,,,,6,,,76,92
37920,note_on,2,0,6,,,,,,,,,5,,,76,92
37966,note_on,46,0,6,,,,,,,,,5,,,76,0
37966,note_on,0,0,6,,,,,,,,,5,,,80,0
37966,note_on,0,0,7,,,,,,,,,6,,,80,0
37966,note_on,46,0,7,,,,,,,,,6,,,76,0
37968,note_on,2,0,6,,,,,,,,,5,,,75,92
37968,note_on,0,0,6,,,,,,,,,5,,,78,92
37968,note_on,0,0,7,,,,,,,,,6,,,78,92
37968,note_on,2,0,7,,,,,,,,,6,,,75,92
38014,note_on,0,0,7,,,,,,,,,6,,,78,0
38014,note_on,46,0,7,,,,,,,,,6,,,75,0
38014,note_on,46,0,6,,,,,,,,,5,,,75,0
38014,note_on,0,0,6,,,,,,,,,5,,,78,0
38016,note_on,0,0,6,,,,,,,,,5,,,76,92
38016,note_on,2,0,6,,,,,,,,,5,,,73,92
38016,note_on,0,0,7,,,,,,,,,6,,,76,92
38016,note_on,2,0,7,,,,,,,,,6,,,73,92
38110,note_on,0,0,7,,,,,,,,,6,,,76,0
38110,note_on,94,0,6,,,,,,,,,5,,,73,0
38110,note_on,0,0,6,,,,,,,,,5,,,76,0
38110,note_on,94,0,7,,,,,,,,,6,,,73,0
38112,note_on,2,0,7,,,,,,,,,6,,,73,92
38112,note_on,0,0,7,,,,,,,,,6,,,76,92
38112,note_on,2,0,6,,,,,,,,,5,,,73,92
38112,note_on,0,0,6,,,,,,,,,5,,,76,92
38158,note_on,0,0,7,,,,,,,,,6,,,76,0
38158,note_on,46,0,7,,,,,,,,,6,,,73,0
38158,note_on,0,0,6,,,,,,,,,5,,,76,0
38158,note_on,46,0,6,,,,,,,,,5,,,73,0
38160,note_on,0,0,6,,,,,,,,,5,,,78,92
38160,note_on,0,0,7,,,,,,,,,6,,,78,92
38160,note_on,2,0,6,,,,,,,,,5,,,75,92
38160,note_on,2,0,7,,,,,,,,,6,,,75,92
38206,note_on,0,0,6,,,,,,,,,5,,,78,0
38206,note_on,0,0,7,,,,,,,,,6,,,78,0
38206,note_on,46,0,7,,,,,,,,,6,,,75,0
38206,note_on,46,0,6,,,,,,,,,5,,,75,0
38208,note_on,2,0,7,,,,,,,,,6,,,76,92
38208,note_on,0,0,7,,,,,,,,,6,,,80,92
38208,note_on,0,0,6,,,,,,,,,5,,,80,92
38208,note_on,2,0,6,,,,,,,,,5,,,76,92
38254,note_on,0,0,6,,,,,,,,,5,,,80,0
38254,note_on,46,0,7,,,,,,,,,6,,,76,0
38254,note_on,0,0,7,,,,,,,,,6,,,80,0
38254,note_on,46,0,6,,,,,,,,,5,,,76,0
38256,note_on,2,0,6,,,,,,,,,5,,,75,92
38256,note_on,0,0,6,,,,,,,,,5,,,78,92
38256,note_on,2,0,7,,,,,,,,,6,,,75,92
38256,note_on,0,0,7,,,,,,,,,6,,,78,92
38302,note_on,46,0,6,,,,,,,,,5,,,75,0
38302,note_on,46,0,7,,,,,,,,,6,,,75,0
38302,note_on,0,0,7,,,,,,,,,6,,,78,0
38302,note_on,0,0,6,,,,,,,,,5,,,78,0
38304,note_on,0,0,6,,,,,,,,,5,,,80,92
38304,note_on,2,0,6,,,,,,,,,5,,,76,92
38304,note_on,0,0,7,,,,,,,,,6,,,80,92
38304,note_on,2,0,7,,,,,,,,,6,,,76,92
38350,note_on,0,0,7,,,,,,,,,6,,,80,0
38350,note_on,46,0,7,,,,,,,,,6,,,76,0
38350,note_on,46,0,6,,,,,,,,,5,,,76,0
38350,note_on,0,0,6,,,,,,,,,5,,,80,0
38352,note_on,0,0,6,,,,,,,,,5,,,78,92
38352,note_on,2,0,7,,,,,,,,,6,,,75,92
38352,note_on,0,0,7,,,,,,,,,6,,,78,92
38352,note_on,2,0,6,,,,,,,,,5,,,75,92
38398,note_on,0,0,6,,,,,,,,,5,,,78,0
38398,note_on,46,0,6,,,,,,,,,5,,,75,0
38398,note_on,0,0,7,,,,,,,,,6,,,78,0
38398,note_on,46,0,7,,,,,,,,,6,,,75,0
38400,note_on,2,0,7,,,,,,,,,6,,,73,92
38400,note_on,0,0,7,,,,,,,,,6,,,76,92
38400,note_on,2,0,6,,,,,,,,,5,,,73,92
38400,note_on,816,0,4,,,,,,,,,3,,,58,92
38400,note_on,816,0,1,,,,,,,,,0,,,73,92
38400,note_on,0,0,6,,,,,,,,,5,,,76,92
38400,note_on,608,0,8,,,,,,,,,7,,,46,92
38400,note_on,816,0,3,,,,,,,,,2,,,61,92
38400,note_on,816,0,2,,,,,,,,,1,,,66,92
38494,note_on,0,0,7,,,,,,,,,6,,,76,0
38494,note_on,0,0,6,,,,,,,,,5,,,76,0
38494,note_on,94,0,6,,,,,,,,,5,,,73,0
38494,note_on,94,0,8,,,,,,,,,7,,,46,0
38494,note_on,94,0,7,,,,,,,,,6,,,73,0
38496,note_on,2,0,8,,,,,,,,,7,,,58,92
38496,note_on,2,0,6,,,,,,,,,5,,,73,92
38496,note_on,0,0,6,,,,,,,,,5,,,76,92
38496,note_on,2,0,7,,,,,,,,,6,,,73,92
38496,note_on,0,0,7,,,,,,,,,6,,,76,92
38542,note_on,0,0,6,,,,,,,,,5,,,76,0
38542,note_on,46,0,7,,,,,,,,,6,,,73,0
38542,note_on,0,0,7,,,,,,,,,6,,,76,0
38542,note_on,46,0,6,,,,,,,,,5,,,73,0
38544,note_on,2,0,7,,,,,,,,,6,,,74,92
38544,note_on,0,0,6,,,,,,,,,5,,,78,92
38544,note_on,2,0,6,,,,,,,,,5,,,74,92
38544,note_on,0,0,7,,,,,,,,,6,,,78,92
38560,note_on,160,0,1,,,,,,,,,0,,,73,0
38560,note_on,160,0,2,,,,,,,,,1,,,66,0
38560,note_on,160,0,3,,,,,,,,,2,,,61,0
38560,note_on,160,0,4,,,,,,,,,3,,,58,0
38590,note_on,0,0,6,,,,,,,,,5,,,78,0
38590,note_on,0,0,7,,,,,,,,,6,,,78,0
38590,note_on,46,0,7,,,,,,,,,6,,,74,0
38590,note_on,46,0,6,,,,,,,,,5,,,74,0
38590,note_on,94,0,8,,,,,,,,,7,,,58,0
38592,note_on,2,0,8,,,,,,,,,7,,,46,92
38592,note_on,0,0,7,,,,,,,,,6,,,79,92
38592,note_on,32,0,1,,,,,,,,,0,,,73,92
38592,note_on,2,0,7,,,,,,,,,6,,,76,92
38592,note_on,2,0,6,,,,,,,,,5,,,76,92
38592,note_on,32,0,4,,,,,,,,,3,,,58,92
38592,note_on,32,0,2,,,,,,,,,1,,,66,92
38592,note_on,0,0,6,,,,,,,,,5,,,79,92
38592,note_on,32,0,3,,,,,,,,,2,,,61,92
38638,note_on,0,0,6,,,,,,,,,5,,,79,0
38638,note_on,46,0,6,,,,,,,,,5,,,76,0
38638,note_on,0,0,7,,,,,,,,,6,,,79,0
38638,note_on,46,0,7,,,,,,,,,6,,,76,0
38640,note_on,0,0,7,,,,,,,,,6,,,78,92
38640,note_on,2,0,7,,,,,,,,,6,,,74,92
38640,note_on,2,0,6,,,,,,,,,5,,,74,92
38640,note_on,0,0,6,,,,,,,,,5,,,78,92
38686,note_on,94,0,8,,,,,,,,,7,,,46,0
38686,note_on,46,0,6,,,,,,,,,5,,,74,0
38686,note_on,0,0,6,,,,,,,,,5,,,78,0
38686,note_on,94,0,4,,,,,,,,,3,,,58,0
38686,note_on,94,0,1,,,,,,,,,0,,,73,0
38686,note_on,94,0,2,,,,,,,,,1,,,66,0
38686,note_on,94,0,3,,,,,,,,,2,,,61,0
38686,note_on,46,0,7,,,,,,,,,6,,,74,0
38686,note_on,0,0,7,,,,,,,,,6,,,78,0
38688,note_on,2,0,3,,,,,,,,,2,,,61,92
38688,note_on,2,0,2,,,,,,,,,1,,,66,92
38688,note_on,2,0,1,,,,,,,,,0,,,73,92
38688,note_on,2,0,8,,,,,,,,,7,,,46,92
38688,note_on,2,0,4,,,,,,,,,3,,,58,92
38688,note_on,0,0,7,,,,,,,,,6,,,79,92
38688,note_on,0,0,6,,,,,,,,,5,,,79,92
38688,note_on,2,0,6,,,,,,,,,5,,,76,92
38688,note_on,2,0,7,,,,,,,,,6,,,76,92
38734,note_on,46,0,7,,,,,,,,,6,,,76,0
38734,note_on,0,0,7,,,,,,,,,6,,,79,0
38734,note_on,0,0,6,,,,,,,,,5,,,79,0
38734,note_on,46,0,6,,,,,,,,,5,,,76,0
38736,note_on,0,0,6,,,,,,,,,5,,,78,92
38736,note_on,2,0,6,,,,,,,,,5,,,74,92
38736,note_on,0,0,7,,,,,,,,,6,,,78,92
38736,note_on,2,0,7,,,,,,,,,6,,,74,92
38782,note_on,94,0,1,,,,,,,,,0,,,73,0
38782,note_on,94,0,2,,,,,,,,,1,,,66,0
38782,note_on,94,0,3,,,,,,,,,2,,,61,0
38782,note_on,46,0,7,,,,,,,,,6,,,74,0
38782,note_on,94,0,4,,,,,,,,,3,,,58,0
38782,note_on,46,0,6,,,,,,,,,5,,,74,0
38782,note_on,94,0,8,,,,,,,,,7,,,46,0
38782,note_on,0,0,6,,,,,,,,,5,,,78,0
38782,note_on,0,0,7,,,,,,,,,6,,,78,0
38784,note_on,2,0,2,,,,,,,,,1,,,66,92
38784,note_on,0,0,7,,,,,,,,,6,,,73,92
38784,note_on,2,0,7,,,,,,,,,6,,,66,92
38784,note_on,0,0,7,,,,,,,,,6,,,76,92
38784,note_on,0,0,6,,,,,,,,,5,,,76,92
38784,note_on,2,0,8,,,,,,,,,7,,,46,92
38784,note_on,2,0,4,,,,,,,,,3,,,58,92
38784,note_on,2,0,3,,,,,,,,,2,,,64,92
38784,note_on,2,0,1,,,,,,,,,0,,,73,92
38784,note_on,2,0,6,,,,,,,,,5,,,66,92
38784,note_on,0,0,6,,,,,,,,,5,,,73,92
38878,note_on,94,0,8,,,,,,,,,7,,,46,0
38880,note_on,2,0,8,,,,,,,,,7,,,58,92
38944,note_on,160,0,7,,,,,,,,,6,,,66,0
38944,note_on,160,0,4,,,,,,,,,3,,,58,0
38944,note_on,0,0,7,,,,,,,,,6,,,73,0
38944,note_on,160,0,6,,,,,,,,,5,,,66,0
38944,note_on,160,0,2,,,,,,,,,1,,,66,0
38944,note_on,0,0,6,,,,,,,,,5,,,76,0
38944,note_on,160,0,1,,,,,,,,,0,,,73,0
38944,note_on,0,0,6,,,,,,,,,5,,,73,0
38944,note_on,160,0,3,,,,,,,,,2,,,64,0
38944,note_on,0,0,7,,,,,,,,,6,,,76,0
38974,note_on,94,0,8,,,,,,,,,7,,,58,0
38976,note_on,32,0,3,,,,,,,,,2,,,64,92
38976,note_on,32,0,2,,,,,,,,,1,,,66,92
38976,note_on,32,0,1,,,,,,,,,0,,,73,92
38976,note_on,2,0,8,,,,,,,,,7,,,46,92
38976,note_on,32,0,4,,,,,,,,,3,,,58,92
39070,note_on,94,0,8,,,,,,,,,7,,,46,0
39072,note_on,2,0,8,,,,,,,,,7,,,46,92
39136,note_on,160,0,2,,,,,,,,,1,,,66,0
39136,note_on,160,0,1,,,,,,,,,0,,,73,0
39136,note_on,160,0,3,,,,,,,,,2,,,64,0
39136,note_on,160,0,4,,,,,,,,,3,,,58,0
39166,note_on,94,0,8,,,,,,,,,7,,,46,0
39168,note_on,32,0,2,,,,,,,,,1,,,66,92
39168,note_on,0,0,6,,,,,,,,,5,,,66,92
39168,note_on,224,0,6,,,,,,,,,5,,,62,92
39168,note_on,0,0,6,,,,,,,,,5,,,71,92
39168,note_on,2,0,8,,,,,,,,,7,,,47,92
39168,note_on,0,0,7,,,,,,,,,6,,,71,92
39168,note_on,32,0,3,,,,,,,,,2,,,62,92
39168,note_on,32,0,1,,,,,,,,,0,,,74,92
39168,note_on,32,0,4,,,,,,,,,3,,,59,92
39168,note_on,224,0,7,,,,,,,,,6,,,62,92
39168,note_on,0,0,7,,,,,,,,,6,,,66,92
39262,note_on,0,0,6,,,,,,,,,5,,,71,0
39262,note_on,0,0,6,,,,,,,,,5,,,66,0
39262,note_on,94,0,6,,,,,,,,,5,,,62,0
39262,note_on,94,0,7,,,,,,,,,6,,,62,0
39262,note_on,94,0,8,,,,,,,,,7,,,47,0
39262,note_on,0,0,7,,,,,,,,,6,,,66,0
39262,note_on,0,0,7,,,,,,,,,6,,,71,0
39264,note_on,2,0,8,,,,,,,,,7,,,59,92
39264,note_on,2,0,6,,,,,,,,,5,,,78,92
39264,note_on,2,0,7,,,,,,,,,6,,,78,92
39358,note_on,94,0,7,,,,,,,,,6,,,78,0
39358,note_on,94,0,8,,,,,,,,,7,,,59,0
39358,note_on,94,0,6,,,,,,,,,5,,,78,0
39360,note_on,0,0,7,,,,,,,,,6,,,66,92
39360,note_on,2,0,7,,,,,,,,,6,,,62,92
39360,note_on,2,0,6,,,,,,,,,5,,,62,92
39360,note_on,0,0,6,,,,,,,,,5,,,71,92
39360,note_on,0,0,6,,,,,,,,,5,,,66,92
39360,note_on,0,0,7,,,,,,,,,6,,,71,92
39360,note_on,2,0,8,,,,,,,,,7,,,47,92
39454,note_on,94,0,8,,,,,,,,,7,,,47,0
39454,note_on,94,0,6,,,,,,,,,5,,,62,0
39454,note_on,0,0,6,,,,,,,,,5,,,66,0
39454,note_on,0,0,6,,,,,,,,,5,,,71,0
39454,note_on,0,0,7,,,,,,,,,6,,,66,0
39454,note_on,0,0,7,,,,,,,,,6,,,71,0
39454,note_on,94,0,7,,,,,,,,,6,,,62,0
39456,note_on,0,0,7,,,,,,,,,6,,,66,92
39456,note_on,0,0,7,,,,,,,,,6,,,71,92
39456,note_on,0,0,6,,,,,,,,,5,,,66,92
39456,note_on,2,0,6,,,,,,,,,5,,,62,92
39456,note_on,0,0,6,,,,,,,,,5,,,71,92
39456,note_on,2,0,8,,,,,,,,,7,,,47,92
39456,note_on,2,0,7,,,,,,,,,6,,,62,92
39504,note_on,336,0,1,,,,,,,,,0,,,74,0
39504,note_on,336,0,2,,,,,,,,,1,,,66,0
39504,note_on,336,0,3,,,,,,,,,2,,,62,0
39504,note_on,336,0,4,,,,,,,,,3,,,59,0
39550,note_on,94,0,6,,,,,,,,,5,,,62,0
39550,note_on,0,0,6,,,,,,,,,5,,,66,0
39550,note_on,0,0,6,,,,,,,,,5,,,71,0
39550,note_on,94,0,8,,,,,,,,,7,,,47,0
39550,note_on,0,0,7,,,,,,,,,6,,,71,0
39550,note_on,0,0,7,,,,,,,,,6,,,66,0
39550,note_on,94,0,7,,,,,,,,,6,,,62,0
39552,note_on,48,0,2,,,,,,,,,1,,,66,92
39552,note_on,48,0,4,,,,,,,,,3,,,59,92
39552,note_on,0,0,6,,,,,,,,,5,,,71,92
39552,note_on,0,0,6,,,,,,,,,5,,,66,92
39552,note_on,2,0,6,,,,,,,,,5,,,62,92
39552,note_on,2,0,7,,,,,,,,,6,,,62,92
39552,note_on,48,0,3,,,,,,,,,2,,,62,92
39552,note_on,0,0,7,,,,,,,,,6,,,66,92
39552,note_on,0,0,7,,,,,,,,,6,,,71,92
39552,note_on,48,0,1,,,,,,,,,0,,,74,92
39552,note_on,2,0,8,,,,,,,,,7,,,47,92
39646,note_on,0,0,6,,,,,,,,,5,,,71,0
39646,note_on,0,0,6,,,,,,,,,5,,,66,0
39646,note_on,94,0,6,,,,,,,,,5,,,62,0
39646,note_on,94,0,8,,,,,,,,,7,,,47,0
39646,note_on,0,0,7,,,,,,,,,6,,,71,0
39646,note_on,94,0,7,,,,,,,,,6,,,62,0
39646,note_on,0,0,7,,,,,,,,,6,,,66,0
39648,note_on,2,0,7,,,,,,,,,6,,,78,92
39648,note_on,2,0,6,,,,,,,,,5,,,78,92
39648,note_on,2,0,8,,,,,,,,,7,,,59,92
39742,note_on,94,0,8,,,,,,,,,7,,,59,0
39742,note_on,94,0,7,,,,,,,,,6,,,78,0
39742,note_on,94,0,6,,,,,,,,,5,,,78,0
39744,note_on,0,0,6,,,,,,,,,5,,,66,92
39744,note_on,2,0,6,,,,,,,,,5,,,62,92
39744,note_on,0,0,6,,,,,,,,,5,,,71,92
39744,note_on,2,0,8,,,,,,,,,7,,,47,92
39744,note_on,2,0,7,,,,,,,,,6,,,62,92
39744,note_on,0,0,7,,,,,,,,,6,,,66,92
39744,note_on,0,0,7,,,,,,,,,6,,,71,92
39838,note_on,0,0,6,,,,,,,,,5,,,71,0
39838,note_on,0,0,6,,,,,,,,,5,,,66,0
39838,note_on,94,0,6,,,,,,,,,5,,,62,0
39838,note_on,94,0,8,,,,,,,,,7,,,47,0
39838,note_on,94,0,7,,,,,,,,,6,,,62,0
39838,note_on,0,0,7,,,,,,,,,6,,,66,0
39838,note_on,0,0,7,,,,,,,,,6,,,71,0
39840,note_on,0,0,6,,,,,,,,,5,,,71,92
39840,note_on,0,0,7,,,,,,,,,6,,,66,92
39840,note_on,0,0,7,,,,,,,,,6,,,71,92
39840,note_on,2,0,8,,,,,,,,,7,,,47,92
39840,note_on,2,0,6,,,,,,,,,5,,,62,92
39840,note_on,0,0,6,,,,,,,,,5,,,66,92
39840,note_on,2,0,7,,,,,,,,,6,,,62,92
39888,note_on,336,0,4,,,,,,,,,3,,,59,0
39888,note_on,336,0,1,,,,,,,,,0,,,74,0
39888,note_on,336,0,3,,,,,,,,,2,,,62,0
39888,note_on,336,0,2,,,,,,,,,1,,,66,0
39934,note_on,94,0,7,,,,,,,,,6,,,62,0
39934,note_on,94,0,6,,,,,,,,,5,,,62,0
39934,note_on,0,0,6,,,,,,,,,5,,,66,0
39934,note_on,0,0,6,,,,,,,,,5,,,71,0
39934,note_on,94,0,8,,,,,,,,,7,,,47,0
39934,note_on,0,0,7,,,,,,,,,6,,,66,0
39934,note_on,0,0,7,,,,,,,,,6,,,71,0
39936,note_on,0,0,6,,,,,,,,,5,,,64,92
39936,note_on,2,0,6,,,,,,,,,5,,,62,92
39936,note_on,0,0,7,,,,,,,,,6,,,71,92
39936,note_on,0,0,7,,,,,,,,,6,,,64,92
39936,note_on,0,0,6,,,,,,,,,5,,,71,92
39936,note_on,48,0,3,,,,,,,,,2,,,62,92
39936,note_on,48,0,2,,,,,,,,,1,,,64,92
39936,note_on,2,0,8,,,,,,,,,7,,,44,92
39936,note_on,48,0,1,,,,,,,,,0,,,71,92
39936,note_on,48,0,4,,,,,,,,,3,,,56,92
39936,note_on,2,0,7,,,,,,,,,6,,,62,92
40030,note_on,0,0,7,,,,,,,,,6,,,71,0
40030,note_on,0,0,7,,,,,,,,,6,,,64,0
40030,note_on,0,0,6,,,,,,,,,5,,,64,0
40030,note_on,94,0,7,,,,,,,,,6,,,62,0
40030,note_on,0,0,6,,,,,,,,,5,,,71,0
40030,note_on,94,0,8,,,,,,,,,7,,,44,0
40030,note_on,94,0,6,,,,,,,,,5,,,62,0
40032,note_on,0,0,7,,,,,,,,,6,,,74,92
40032,note_on,2,0,8,,,,,,,,,7,,,56,92
40032,note_on,2,0,6,,,,,,,,,5,,,71,92
40032,note_on,0,0,6,,,,,,,,,5,,,74,92
40032,note_on,2,0,7,,,,,,,,,6,,,71,92
40078,note_on,0,0,7,,,,,,,,,6,,,74,0
40078,note_on,46,0,7,,,,,,,,,6,,,71,0
40078,note_on,0,0,6,,,,,,,,,5,,,74,0
40078,note_on,46,0,6,,,,,,,,,5,,,71,0
40080,note_on,2,0,6,,,,,,,,,5,,,73,92
40080,note_on,2,0,7,,,,,,,,,6,,,73,92
40080,note_on,0,0,7,,,,,,,,,6,,,76,92
40080,note_on,0,0,6,,,,,,,,,5,,,76,92
40096,note_on,160,0,1,,,,,,,,,0,,,71,0
40096,note_on,160,0,3,,,,,,,,,2,,,62,0
40096,note_on,160,0,2,,,,,,,,,1,,,64,0
40096,note_on,160,0,4,,,,,,,,,3,,,56,0
40126,note_on,46,0,6,,,,,,,,,5,,,73,0
40126,note_on,94,0,8,,,,,,,,,7,,,56,0
40126,note_on,46,0,7,,,,,,,,,6,,,73,0
40126,note_on,0,0,6,,,,,,,,,5,,,76,0
40126,note_on,0,0,7,,,,,,,,,6,,,76,0
40128,note_on,2,0,8,,,,,,,,,7,,,44,92
40128,note_on,32,0,1,,,,,,,,,0,,,71,92
40128,note_on,2,0,6,,,,,,,,,5,,,74,92
40128,note_on,32,0,2,,,,,,,,,1,,,64,92
40128,note_on,0,0,7,,,,,,,,,6,,,78,92
40128,note_on,0,0,6,,,,,,,,,5,,,78,92
40128,note_on,2,0,7,,,,,,,,,6,,,74,92
40128,note_on,32,0,3,,,,,,,,,2,,,62,92
40128,note_on,32,0,4,,,,,,,,,3,,,56,92
40174,note_on,0,0,6,,,,,,,,,5,,,78,0
40174,note_on,46,0,7,,,,,,,,,6,,,74,0
40174,note_on,0,0,7,,,,,,,,,6,,,78,0
40174,note_on,46,0,6,,,,,,,,,5,,,74,0
40176,note_on,2,0,6,,,,,,,,,5,,,73,92
40176,note_on,2,0,7,,,,,,,,,6,,,73,92
40176,note_on,0,0,7,,,,,,,,,6,,,76,92
40176,note_on,0,0,6,,,,,,,,,5,,,76,92
40222,note_on,94,0,4,,,,,,,,,3,,,56,0
40222,note_on,0,0,6,,,,,,,,,5,,,76,0
40222,note_on,94,0,3,,,,,,,,,2,,,62,0
40222,note_on,46,0,7,,,,,,,,,6,,,73,0
40222,note_on,0,0,7,,,,,,,,,6,,,76,0
40222,note_on,94,0,2,,,,,,,,,1,,,64,0
40222,note_on,94,0,1,,,,,,,,,0,,,71,0
40222,note_on,46,0,6,,,,,,,,,5,,,73,0
40222,note_on,94,0,8,,,,,,,,,7,,,44,0
40224,note_on,0,0,7,,,,,,,,,6,,,78,92
40224,note_on,2,0,7,,,,,,,,,6,,,74,92
40224,note_on,2,0,3,,,,,,,,,2,,,62,92
40224,note_on,2,0,2,,,,,,,,,1,,,64,92
40224,note_on,2,0,6,,,,,,,,,5,,,74,92
40224,note_on,0,0,6,,,,,,,,,5,,,78,92
40224,note_on,2,0,4,,,,,,,,,3,,,56,92
40224,note_on,2,0,8,,,,,,,,,7,,,44,92
40224,note_on,2,0,1,,,,,,,,,0,,,71,92
40270,note_on,46,0,6,,,,,,,,,5,,,74,0
40270,note_on,0,0,7,,,,,,,,,6,,,78,0
40270,note_on,46,0,7,,,,,,,,,6,,,74,0
40270,note_on,0,0,6,,,,,,,,,5,,,78,0
40272,note_on,2,0,6,,,,,,,,,5,,,73,92
40272,note_on,2,0,7,,,,,,,,,6,,,73,92
40272,note_on,0,0,7,,,,,,,,,6,,,76,92
40272,note_on,0,0,6,,,,,,,,,5,,,76,92
40318,note_on,46,0,7,,,,,,,,,6,,,73,0
40318,note_on,94,0,8,,,,,,,,,7,,,44,0
40318,note_on,94,0,4,,,,,,,,,3,,,56,0
40318,note_on,46,0,6,,,,,,,,,5,,,73,0
40318,note_on,0,0,7,,,,,,,,,6,,,76,0
40318,note_on,0,0,6,,,,,,,,,5,,,76,0
40318,note_on,94,0,3,,,,,,,,,2,,,62,0
40318,note_on,94,0,1,,,,,,,,,0,,,71,0
40318,note_on,94,0,2,,,,,,,,,1,,,64,0
40320,note_on,2,0,6,,,,,,,,,5,,,71,92
40320,note_on,2,0,8,,,,,,,,,7,,,44,92
40320,note_on,0,0,6,,,,,,,,,5,,,74,92
40320,note_on,2,0,7,,,,,,,,,6,,,71,92
40320,note_on,2,0,1,,,,,,,,,0,,,71,92
40320,note_on,2,0,2,,,,,,,,,1,,,64,92
40320,note_on,0,0,7,,,,,,,,,6,,,74,92
40320,note_on,2,0,3,,,,,,,,,2,,,62,92
40320,note_on,2,0,4,,,,,,,,,3,,,56,92
40414,note_on,94,0,8,,,,,,,,,7,,,44,0
40416,note_on,2,0,8,,,,,,,,,7,,,56,92
40480,note_on,160,0,6,,,,,,,,,5,,,71,0
40480,note_on,160,0,1,,,,,,,,,0,,,71,0
40480,note_on,160,0,4,,,,,,,,,3,,,56,0
40480,note_on,160,0,3,,,,,,,,,2,,,62,0
40480,note_on,160,0,7,,,,,,,,,6,,,71,0
40480,note_on,0,0,7,,,,,,,,,6,,,74,0
40480,note_on,0,0,6,,,,,,,,,5,,,74,0
40480,note_on,160,0,2,,,,,,,,,1,,,64,0
40510,note_on,94,0,8,,,,,,,,,7,,,56,0
40512,note_on,32,0,2,,,,,,,,,1,,,64,92
40512,note_on,32,0,3,,,,,,,,,2,,,62,92
40512,note_on,32,0,1,,,,,,,,,0,,,71,92
40512,note_on,2,0,8,,,,,,,,,7,,,44,92
40512,note_on,32,0,4,,,,,,,,,3,,,56,92
40606,note_on,94,0,8,,,,,,,,,7,,,44,0
40608,note_on,2,0,8,,,,,,,,,7,,,44,92
40672,note_on,160,0,4,,,,,,,,,3,,,56,0
40672,note_on,160,0,3,,,,,,,,,2,,,62,0
40672,note_on,160,0,1,,,,,,,,,0,,,71,0
40672,note_on,160,0,2,,,,,,,,,1,,,64,0
40702,note_on,94,0,8,,,,,,,,,7,,,44,0
40704,note_on,224,0,6,,,,,,,,,5,,,61,92
40704,note_on,32,0,1,,,,,,,,,0,,,73,92
40704,note_on,0,0,7,,,,,,,,,6,,,69,92
40704,note_on,32,0,4,,,,,,,,,3,,,57,92
40704,note_on,0,0,7,,,,,,,,,6,,,64,92
40704,note_on,224,0,7,,,,,,,,,6,,,61,92
40704,note_on,32,0,2,,,,,,,,,1,,,64,92
40704,note_on,2,0,8,,,,,,,,,7,,,45,92
40704,note_on,0,0,6,,,,,,,,,5,,,64,92
40704,note_on,32,0,3,,,,,,,,,2,,,61,92
40704,note_on,0,0,6,,,,,,,,,5,,,69,92
40798,note_on,0,0,6,,,,,,,,,5,,,64,0
40798,note_on,94,0,8,,,,,,,,,7,,,45,0
40798,note_on,0,0,6,,,,,,,,,5,,,69,0
40798,note_on,94,0,6,,,,,,,,,5,,,61,0
40798,note_on,0,0,7,,,,,,,,,6,,,64,0
40798,note_on,94,0,7,,,,,,,,,6,,,61,0
40798,note_on,0,0,7,,,,,,,,,6,,,69,0
40800,note_on,2,0,7,,,,,,,,,6,,,76,92
40800,note_on,2,0,6,,,,,,,,,5,,,76,92
40800,note_on,2,0,8,,,,,,,,,7,,,57,92
40894,note_on,94,0,7,,,,,,,,,6,,,76,0
40894,note_on,94,0,8,,,,,,,,,7,,,57,0
40894,note_on,94,0,6,,,,,,,,,5,,,76,0
40896,note_on,2,0,7,,,,,,,,,6,,,61,92
40896,note_on,0,0,7,,,,,,,,,6,,,64,92
40896,note_on,0,0,7,,,,,,,,,6,,,69,92
40896,note_on,2,0,8,,,,,,,,,7,,,45,92
40896,note_on,2,0,6,,,,,,,,,5,,,61,92
40896,note_on,0,0,6,,,,,,,,,5,,,69,92
40896,note_on,0,0,6,,,,,,,,,5,,,64,92
40990,note_on,94,0,6,,,,,,,,,5,,,61,0
40990,note_on,0,0,6,,,,,,,,,5,,,69,0
40990,note_on,94,0,8,,,,,,,,,7,,,45,0
40990,note_on,0,0,6,,,,,,,,,5,,,64,0
40990,note_on,0,0,7,,,,,,,,,6,,,64,0
40990,note_on,94,0,7,,,,,,,,,6,,,61,0
40990,note_on,0,0,7,,,,,,,,,6,,,69,0
40992,note_on,2,0,6,,,,,,,,,5,,,61,92
40992,note_on,0,0,6,,,,,,,,,5,,,64,92
40992,note_on,0,0,6,,,,,,,,,5,,,69,92
40992,note_on,2,0,8,,,,,,,,,7,,,45,92
40992,note_on,0,0,7,,,,,,,,,6,,,69,92
40992,note_on,0,0,7,,,,,,,,,6,,,64,92
40992,note_on,2,0,7,,,,,,,,,6,,,61,92
41040,note_on,336,0,1,,,,,,,,,0,,,73,0
41040,note_on,336,0,2,,,,,,,,,1,,,64,0
41040,note_on,336,0,3,,,,,,,,,2,,,61,0
41040,note_on,336,0,4,,,,,,,,,3,,,57,0
41086,note_on,0,0,6,,,,,,,,,5,,,69,0
41086,note_on,94,0,6,,,,,,,,,5,,,61,0
41086,note_on,94,0,8,,,,,,,,,7,,,45,0
41086,note_on,0,0,6,,,,,,,,,5,,,64,0
41086,note_on,0,0,7,,,,,,,,,6,,,69,0
41086,note_on,0,0,7,,,,,,,,,6,,,64,0
41086,note_on,94,0,7,,,,,,,,,6,,,61,0
41088,note_on,0,0,6,,,,,,,,,5,,,64,92
41088,note_on,0,0,6,,,,,,,,,5,,,69,92
41088,note_on,2,0,7,,,,,,,,,6,,,61,92
41088,note_on,48,0,2,,,,,,,,,1,,,69,92
41088,note_on,2,0,8,,,,,,,,,7,,,45,92
41088,note_on,0,0,7,,,,,,,,,6,,,69,92
41088,note_on,48,0,3,,,,,,,,,2,,,64,92
41088,note_on,2,0,6,,,,,,,,,5,,,61,92
41088,note_on,48,0,4,,,,,,,,,3,,,57,92
41088,note_on,48,0,1,,,,,,,,,0,,,73,92
41088,note_on,0,0,7,,,,,,,,,6,,,64,92
41182,note_on,0,0,7,,,,,,,,,6,,,69,0
41182,note_on,0,0,7,,,,,,,,,6,,,64,0
41182,note_on,94,0,7,,,,,,,,,6,,,61,0
41182,note_on,94,0,8,,,,,,,,,7,,,45,0
41182,note_on,0,0,6,,,,,,,,,5,,,69,0
41182,note_on,94,0,6,,,,,,,,,5,,,61,0
41182,note_on,0,0,6,,,,,,,,,5,,,64,0
41184,note_on,2,0,6,,,,,,,,,5,,,76,92
41184,note_on,2,0,8,,,,,,,,,7,,,57,92
41184,note_on,2,0,7,,,,,,,,,6,,,76,92
41278,note_on,94,0,7,,,,,,,,,6,,,76,0
41278,note_on,94,0,8,,,,,,,,,7,,,57,0
41278,note_on,94,0,6,,,,,,,,,5,,,76,0
41280,note_on,0,0,6,,,,,,,,,5,,,69,92
41280,note_on,2,0,8,,,,,,,,,7,,,45,92
41280,note_on,0,0,6,,,,,,,,,5,,,64,92
41280,note_on,2,0,6,,,,,,,,,5,,,61,92
41280,note_on,2,0,7,,,,,,,,,6,,,61,92
41280,note_on,0,0,7,,,,,,,,,6,,,64,92
41280,note_on,0,0,7,,,,,,,,,6,,,69,92
41374,note_on,94,0,6,,,,,,,,,5,,,61,0
41374,note_on,0,0,6,,,,,,,,,5,,,64,0
41374,note_on,0,0,6,,,,,,,,,5,,,69,0
41374,note_on,94,0,8,,,,,,,,,7,,,45,0
41374,note_on,94,0,7,,,,,,,,,6,,,61,0
41374,note_on,0,0,7,,,,,,,,,6,,,64,0
41374,note_on,0,0,7,,,,,,,,,6,,,69,0
41376,note_on,0,0,6,,,,,,,,,5,,,69,92
41376,note_on,0,0,7,,,,,,,,,6,,,64,92
41376,note_on,2,0,7,,,,,,,,,6,,,61,92
41376,note_on,0,0,7,,,,,,,,,6,,,69,92
41376,note_on,2,0,8,,,,,,,,,7,,,45,92
41376,note_on,0,0,6,,,,,,,,,5,,,64,92
41376,note_on,2,0,6,,,,,,,,,5,,,61,92
41424,note_on,336,0,1,,,,,,,,,0,,,73,0
41424,note_on,336,0,2,,,,,,,,,1,,,69,0
41424,note_on,336,0,3,,,,,,,,,2,,,64,0
41424,note_on,336,0,4,,,,,,,,,3,,,57,0
41470,note_on,0,0,6,,,,,,,,,5,,,69,0
41470,note_on,0,0,7,,,,,,,,,6,,,69,0
41470,note_on,0,0,6,,,,,,,,,5,,,64,0
41470,note_on,0,0,7,,,,,,,,,6,,,64,0
41470,note_on,94,0,7,,,,,,,,,6,,,61,0
41470,note_on,94,0,6,,,,,,,,,5,,,61,0
41470,note_on,94,0,8,,,,,,,,,7,,,45,0
41472,note_on,2,0,7,,,,,,,,,6,,,66,92
41472,note_on,48,0,3,,,,,,,,,2,,,66,92
41472,note_on,0,0,7,,,,,,,,,6,,,69,92
41472,note_on,2,0,8,,,,,,,,,7,,,51,92
41472,note_on,48,0,2,,,,,,,,,1,,,69,92
41472,note_on,2,0,6,,,,,,,,,5,,,66,92
41472,note_on,48,0,4,,,,,,,,,3,,,51,92
41472,note_on,48,0,1,,,,,,,,,0,,,73,92
41472,note_on,0,0,6,,,,,,,,,5,,,69,92
41566,note_on,94,0,6,,,,,,,,,5,,,66,0
41566,note_on,94,0,7,,,,,,,,,6,,,66,0
41566,note_on,0,0,7,,,,,,,,,6,,,69,0
41566,note_on,0,0,6,,,,,,,,,5,,,69,0
41566,note_on,94,0,8,,,,,,,,,7,,,51,0
41568,note_on,2,0,7,,,,,,,,,6,,,78,92
41568,note_on,2,0,8,,,,,,,,,7,,,63,92
41568,note_on,2,0,6,,,,,,,,,5,,,78,92
41662,note_on,94,0,7,,,,,,,,,6,,,78,0
41662,note_on,94,0,6,,,,,,,,,5,,,78,0
41662,note_on,94,0,8,,,,,,,,,7,,,63,0
41664,note_on,0,0,6,,,,,,,,,5,,,69,92
41664,note_on,2,0,6,,,,,,,,,5,,,66,92
41664,note_on,2,0,8,,,,,,,,,7,,,51,92
41664,note_on,2,0,7,,,,,,,,,6,,,66,92
41664,note_on,0,0,7,,,,,,,,,6,,,69,92
41758,note_on,0,0,6,,,,,,,,,5,,,69,0
41758,note_on,94,0,8,,,,,,,,,7,,,51,0
41758,note_on,94,0,7,,,,,,,,,6,,,66,0
41758,note_on,0,0,7,,,,,,,,,6,,,69,0
41758,note_on,94,0,6,,,,,,,,,5,,,66,0
41760,note_on,2,0,7,,,,,,,,,6,,,66,92
41760,note_on,0,0,7,,,,,,,,,6,,,69,92
41760,note_on,0,0,6,,,,,,,,,5,,,69,92
41760,note_on,2,0,8,,,,,,,,,7,,,51,92
41760,note_on,2,0,6,,,,,,,,,5,,,66,92
41854,note_on,0,0,6,,,,,,,,,5,,,69,0
41854,note_on,94,0,8,,,,,,,,,7,,,51,0
41854,note_on,94,0,6,,,,,,,,,5,,,66,0
41854,note_on,94,0,7,,,,,,,,,6,,,66,0
41854,note_on,0,0,7,,,,,,,,,6,,,69,0
41856,note_on,0,0,6,,,,,,,,,5,,,69,92
41856,note_on,2,0,6,,,,,,,,,5,,,66,92
41856,note_on,2,0,8,,,,,,,,,7,,,51,92
41856,note_on,2,0,7,,,,,,,,,6,,,66,92
41856,note_on,0,0,7,,,,,,,,,6,,,69,92
41950,note_on,94,0,7,,,,,,,,,6,,,66,0
41950,note_on,0,0,7,,,,,,,,,6,,,69,0
41950,note_on,94,0,8,,,,,,,,,7,,,51,0
41950,note_on,94,0,6,,,,,,,,,5,,,66,0
41950,note_on,0,0,6,,,,,,,,,5,,,69,0
41952,note_on,2,0,8,,,,,,,,,7,,,63,92
41952,note_on,2,0,6,,,,,,,,,5,,,78,92
41952,note_on,2,0,7,,,,,,,,,6,,,78,92
42046,note_on,94,0,6,,,,,,,,,5,,,78,0
42046,note_on,94,0,8,,,,,,,,,7,,,63,0
42046,note_on,94,0,7,,,,,,,,,6,,,78,0
42048,note_on,0,0,7,,,,,,,,,6,,,69,92
42048,note_on,2,0,7,,,,,,,,,6,,,66,92
42048,note_on,2,0,8,,,,,,,,,7,,,51,92
42048,note_on,2,0,6,,,,,,,,,5,,,66,92
42048,note_on,0,0,6,,,,,,,,,5,,,69,92
42142,note_on,94,0,8,,,,,,,,,7,,,51,0
42142,note_on,0,0,6,,,,,,,,,5,,,69,0
42142,note_on,94,0,7,,,,,,,,,6,,,66,0
42142,note_on,0,0,7,,,,,,,,,6,,,69,0
42142,note_on,94,0,6,,,,,,,,,5,,,66,0
42144,note_on,0,0,7,,,,,,,,,6,,,69,92
42144,note_on,2,0,7,,,,,,,,,6,,,66,92
42144,note_on,2,0,6,,,,,,,,,5,,,66,92
42144,note_on,0,0,6,,,,,,,,,5,,,69,92
42144,note_on,2,0,8,,,,,,,,,7,,,51,92
42192,note_on,720,0,2,,,,,,,,,1,,,69,0
42192,note_on,720,0,1,,,,,,,,,0,,,73,0
42192,note_on,720,0,4,,,,,,,,,3,,,51,0
42192,note_on,720,0,3,,,,,,,,,2,,,66,0
42238,note_on,94,0,6,,,,,,,,,5,,,66,0
42238,note_on,0,0,6,,,,,,,,,5,,,69,0
42238,note_on,94,0,7,,,,,,,,,6,,,66,0
42238,note_on,0,0,7,,,,,,,,,6,,,69,0
42238,note_on,94,0,8,,,,,,,,,7,,,51,0
42240,note_on,48,0,3,,,,,,,,,2,,,59,92
42240,note_on,48,0,2,,,,,,,,,1,,,68,92
42240,note_on,48,0,1,,,,,,,,,0,,,71,92
42240,note_on,48,0,4,,,,,,,,,3,,,52,92
42240,note_on,2,0,6,,,,,,,,,5,,,64,92
42240,note_on,2,0,8,,,,,,,,,7,,,52,92
42240,note_on,0,0,6,,,,,,,,,5,,,68,92
42240,note_on,2,0,7,,,,,,,,,6,,,64,92
42240,note_on,0,0,7,,,,,,,,,6,,,68,92
42334,note_on,94,0,7,,,,,,,,,6,,,64,0
42334,note_on,94,0,8,,,,,,,,,7,,,52,0
42334,note_on,0,0,7,,,,,,,,,6,,,68,0
42334,note_on,94,0,6,,,,,,,,,5,,,64,0
42334,note_on,0,0,6,,,,,,,,,5,,,68,0
42336,note_on,2,0,6,,,,,,,,,5,,,76,92
42336,note_on,2,0,7,,,,,,,,,6,,,76,92
42336,note_on,2,0,8,,,,,,,,,7,,,64,92
42430,note_on,94,0,8,,,,,,,,,7,,,64,0
42430,note_on,94,0,7,,,,,,,,,6,,,76,0
42430,note_on,94,0,6,,,,,,,,,5,,,76,0
42432,note_on,2,0,6,,,,,,,,,5,,,64,92
42432,note_on,2,0,8,,,,,,,,,7,,,52,92
42432,note_on,2,0,7,,,,,,,,,6,,,64,92
42526,note_on,94,0,7,,,,,,,,,6,,,64,0
42526,note_on,94,0,8,,,,,,,,,7,,,52,0
42526,note_on,94,0,6,,,,,,,,,5,,,64,0
42528,note_on,2,0,7,,,,,,,,,6,,,64,92
42528,note_on,2,0,8,,,,,,,,,7,,,52,92
42528,note_on,2,0,6,,,,,,,,,5,,,64,92
42576,note_on,336,0,1,,,,,,,,,0,,,71,0
42576,note_on,336,0,2,,,,,,,,,1,,,68,0
42576,note_on,336,0,4,,,,,,,,,3,,,52,0
42576,note_on,336,0,3,,,,,,,,,2,,,59,0
42622,note_on,94,0,7,,,,,,,,,6,,,64,0
42622,note_on,94,0,6,,,,,,,,,5,,,64,0
42622,note_on,94,0,8,,,,,,,,,7,,,52,0
42624,note_on,2,0,7,,,,,,,,,6,,,64,92
42624,note_on,2,0,6,,,,,,,,,5,,,64,92
42624,note_on,2,0,8,,,,,,,,,7,,,52,92
42718,note_on,94,0,7,,,,,,,,,6,,,64,0
42718,note_on,94,0,6,,,,,,,,,5,,,64,0
42718,note_on,94,0,8,,,,,,,,,7,,,52,0
42720,note_on,2,0,8,,,,,,,,,7,,,64,92
42720,note_on,2,0,7,,,,,,,,,6,,,76,92
42720,note_on,2,0,6,,,,,,,,,5,,,76,92
42814,note_on,94,0,6,,,,,,,,,5,,,76,0
42814,note_on,94,0,7,,,,,,,,,6,,,76,0
42814,note_on,94,0,8,,,,,,,,,7,,,64,0
42816,note_on,2,0,8,,,,,,,,,7,,,52,92
42816,note_on,2,0,6,,,,,,,,,5,,,64,92
42816,note_on,2,0,7,,,,,,,,,6,,,64,92
42910,note_on,94,0,7,,,,,,,,,6,,,64,0
42910,note_on,94,0,8,,,,,,,,,7,,,52,0
42910,note_on,94,0,6,,,,,,,,,5,,,64,0
42912,note_on,2,0,6,,,,,,,,,5,,,64,92
42912,note_on,2,0,8,,,,,,,,,7,,,52,92
42912,note_on,2,0,7,,,,,,,,,6,,,64,92
43006,note_on,94,0,6,,,,,,,,,5,,,64,0
43006,note_on,94,0,8,,,,,,,,,7,,,52,0
43006,note_on,94,0,7,,,,,,,,,6,,,64,0
43008,note_on,2,0,6,,,,,,,,,5,,,64,92
43008,note_on,432,0,4,,,,,,,,,3,,,52,92
43008,note_on,432,0,3,,,,,,,,,2,,,59,92
43008,note_on,2,0,7,,,,,,,,,6,,,64,92
43008,note_on,2,0,8,,,,,,,,,7,,,52,92
43008,note_on,432,0,1,,,,,,,,,0,,,74,92
43008,note_on,432,0,2,,,,,,,,,1,,,68,92
43102,note_on,94,0,6,,,,,,,,,5,,,64,0
43102,note_on,94,0,7,,,,,,,,,6,,,64,0
43102,note_on,94,0,8,,,,,,,,,7,,,52,0
43104,note_on,2,0,6,,,,,,,,,5,,,76,92
43104,note_on,2,0,7,,,,,,,,,6,,,76,92
43104,note_on,0,0,7,,,,,,,,,6,,,80,92
43104,note_on,2,0,8,,,,,,,,,7,,,64,92
43104,note_on,0,0,6,,,,,,,,,5,,,80,92
43150,note_on,46,0,7,,,,,,,,,6,,,76,0
43150,note_on,0,0,6,,,,,,,,,5,,,80,0
43150,note_on,46,0,6,,,,,,,,,5,,,76,0
43150,note_on,0,0,7,,,,,,,,,6,,,80,0
43152,note_on,2,0,7,,,,,,,,,6,,,78,92
43152,note_on,0,0,7,,,,,,,,,6,,,81,92
43152,note_on,0,0,6,,,,,,,,,5,,,81,92
43152,note_on,2,0,6,,,,,,,,,5,,,78,92
43168,note_on,160,0,4,,,,,,,,,3,,,52,0
43168,note_on,160,0,2,,,,,,,,,1,,,68,0
43168,note_on,160,0,1,,,,,,,,,0,,,74,0
43168,note_on,160,0,3,,,,,,,,,2,,,59,0
43198,note_on,0,0,7,,,,,,,,,6,,,81,0
43198,note_on,46,0,7,,,,,,,,,6,,,78,0
43198,note_on,46,0,6,,,,,,,,,5,,,78,0
43198,note_on,94,0,8,,,,,,,,,7,,,64,0
43198,note_on,0,0,6,,,,,,,,,5,,,81,0
43200,note_on,2,0,6,,,,,,,,,5,,,80,92
43200,note_on,2,0,8,,,,,,,,,7,,,52,92
43200,note_on,32,0,4,,,,,,,,,3,,,52,92
43200,note_on,32,0,2,,,,,,,,,1,,,68,92
43200,note_on,32,0,1,,,,,,,,,0,,,74,92
43200,note_on,2,0,7,,,,,,,,,6,,,80,92
43200,note_on,0,0,7,,,,,,,,,6,,,83,92
43200,note_on,32,0,3,,,,,,,,,2,,,59,92
43200,note_on,0,0,6,,,,,,,,,5,,,83,92
43246,note_on,46,0,7,,,,,,,,,6,,,80,0
43246,note_on,0,0,6,,,,,,,,,5,,,83,0
43246,note_on,46,0,6,,,,,,,,,5,,,80,0
43246,note_on,0,0,7,,,,,,,,,6,,,83,0
43248,note_on,0,0,7,,,,,,,,,6,,,81,92
43248,note_on,2,0,7,,,,,,,,,6,,,78,92
43248,note_on,0,0,6,,,,,,,,,5,,,81,92
43248,note_on,2,0,6,,,,,,,,,5,,,78,92
43294,note_on,46,0,6,,,,,,,,,5,,,78,0
43294,note_on,94,0,8,,,,,,,,,7,,,52,0
43294,note_on,94,0,1,,,,,,,,,0,,,74,0
43294,note_on,94,0,4,,,,,,,,,3,,,52,0
43294,note_on,46,0,7,,,,,,,,,6,,,78,0
43294,note_on,0,0,7,,,,,,,,,6,,,81,0
43294,note_on,94,0,2,,,,,,,,,1,,,68,0
43294,note_on,94,0,3,,,,,,,,,2,,,59,0
43294,note_on,0,0,6,,,,,,,,,5,,,81,0
43296,note_on,2,0,2,,,,,,,,,1,,,68,92
43296,note_on,2,0,1,,,,,,,,,0,,,74,92
43296,note_on,0,0,6,,,,,,,,,5,,,83,92
43296,note_on,2,0,6,,,,,,,,,5,,,80,92
43296,note_on,2,0,3,,,,,,,,,2,,,59,92
43296,note_on,2,0,7,,,,,,,,,6,,,80,92
43296,note_on,0,0,7,,,,,,,,,6,,,83,92
43296,note_on,2,0,4,,,,,,,,,3,,,52,92
43296,note_on,2,0,8,,,,,,,,,7,,,52,92
43342,note_on,0,0,7,,,,,,,,,6,,,83,0
43342,note_on,0,0,6,,,,,,,,,5,,,83,0
43342,note_on,46,0,7,,,,,,,,,6,,,80,0
43342,note_on,46,0,6,,,,,,,,,5,,,80,0
43344,note_on,2,0,7,,,,,,,,,6,,,78,92
43344,note_on,0,0,6,,,,,,,,,5,,,81,92
43344,note_on,2,0,6,,,,,,,,,5,,,78,92
43344,note_on,0,0,7,,,,,,,,,6,,,81,92
43390,note_on,94,0,2,,,,,,,,,1,,,68,0
43390,note_on,94,0,4,,,,,,,,,3,,,52,0
43390,note_on,94,0,1,,,,,,,,,0,,,74,0
43390,note_on,94,0,8,,,,,,,,,7,,,52,0
43390,note_on,0,0,6,,,,,,,,,5,,,81,0
43390,note_on,0,0,7,,,,,,,,,6,,,81,0
43390,note_on,46,0,6,,,,,,,,,5,,,78,0
43390,note_on,46,0,7,,,,,,,,,6,,,78,0
43390,note_on,94,0,3,,,,,,,,,2,,,59,0
43392,note_on,2,0,7,,,,,,,,,6,,,76,92
43392,note_on,0,0,7,,,,,,,,,6,,,80,92
43392,note_on,2,0,1,,,,,,,,,0,,,74,92
43392,note_on,2,0,6,,,,,,,,,5,,,76,92
43392,note_on,0,0,6,,,,,,,,,5,,,80,92
43392,note_on,2,0,2,,,,,,,,,1,,,68,92
43392,note_on,2,0,8,,,,,,,,,7,,,52,92
43392,note_on,2,0,3,,,,,,,,,2,,,59,92
43392,note_on,2,0,4,,,,,,,,,3,,,52,92
43486,note_on,94,0,8,,,,,,,,,7,,,52,0
43488,note_on,2,0,8,,,,,,,,,7,,,64,92
43552,note_on,160,0,4,,,,,,,,,3,,,52,0
43552,note_on,160,0,3,,,,,,,,,2,,,59,0
43552,note_on,0,0,6,,,,,,,,,5,,,80,0
43552,note_on,160,0,6,,,,,,,,,5,,,76,0
43552,note_on,0,0,7,,,,,,,,,6,,,80,0
43552,note_on,160,0,2,,,,,,,,,1,,,68,0
43552,note_on,160,0,1,,,,,,,,,0,,,74,0
43552,note_on,160,0,7,,,,,,,,,6,,,76,0
43582,note_on,94,0,8,,,,,,,,,7,,,64,0
43584,note_on,32,0,4,,,,,,,,,3,,,52,92
43584,note_on,2,0,8,,,,,,,,,7,,,52,92
43584,note_on,32,0,3,,,,,,,,,2,,,64,92
43584,note_on,32,0,1,,,,,,,,,0,,,74,92
43584,note_on,32,0,2,,,,,,,,,1,,,68,92
43678,note_on,94,0,8,,,,,,,,,7,,,52,0
43680,note_on,2,0,8,,,,,,,,,7,,,52,92
43744,note_on,160,0,1,,,,,,,,,0,,,74,0
43744,note_on,160,0,3,,,,,,,,,2,,,64,0
43744,note_on,160,0,4,,,,,,,,,3,,,52,0
43744,note_on,160,0,2,,,,,,,,,1,,,68,0
43774,note_on,94,0,8,,,,,,,,,7,,,52,0
43776,note_on,2,0,8,,,,,,,,,7,,,45,92
43776,note_on,32,0,3,,,,,,,,,2,,,64,92
43776,note_on,32,0,2,,,,,,,,,1,,,67,92
43776,note_on,0,0,7,,,,,,,,,6,,,76,92
43776,note_on,32,0,4,,,,,,,,,3,,,45,92
43776,note_on,0,0,5,,,,,,,,,4,,,76,92
43776,note_on,0,0,5,,,,,,,,,4,,,73,92
43776,note_on,16418,0,5,,,,,,,,,4,,,69,92
43776,note_on,0,0,6,,,,,,,,,5,,,76,92
43776,note_on,0,0,6,,,,,,,,,5,,,73,92
43776,note_on,224,0,6,,,,,,,,,5,,,69,92
43776,note_on,0,0,7,,,,,,,,,6,,,73,92
43776,note_on,224,0,7,,,,,,,,,6,,,69,92
43776,note_on,32,0,1,,,,,,,,,0,,,73,92
43870,note_on,0,0,5,,,,,,,,,4,,,76,0
43870,note_on,0,0,5,,,,,,,,,4,,,73,0
43870,note_on,94,0,5,,,,,,,,,4,,,69,0
43870,note_on,0,0,7,,,,,,,,,6,,,73,0
43870,note_on,94,0,7,,,,,,,,,6,,,69,0
43870,note_on,0,0,7,,,,,,,,,6,,,76,0
43870,note_on,94,0,8,,,,,,,,,7,,,45,0
43870,note_on,0,0,6,,,,,,,,,5,,,76,0
43870,note_on,94,0,6,,,,,,,,,5,,,69,0
43870,note_on,0,0,6,,,,,,,,,5,,,73,0
43872,note_on,2,0,7,,,,,,,,,6,,,81,92
43872,note_on,2,0,5,,,,,,,,,4,,,81,92
43872,note_on,2,0,6,,,,,,,,,5,,,81,92
43872,note_on,2,0,8,,,,,,,,,7,,,57,92
43936,note_on,160,0,3,,,,,,,,,2,,,64,0
43966,note_on,94,0,7,,,,,,,,,6,,,81,0
43966,note_on,94,0,8,,,,,,,,,7,,,57,0
43966,note_on,94,0,5,,,,,,,,,4,,,81,0
43966,note_on,94,0,6,,,,,,,,,5,,,81,0
43968,note_on,0,0,5,,,,,,,,,4,,,73,92
43968,note_on,2,0,5,,,,,,,,,4,,,69,92
43968,note_on,0,0,6,,,,,,,,,5,,,76,92
43968,note_on,0,0,6,,,,,,,,,5,,,73,92
43968,note_on,2,0,6,,,,,,,,,5,,,69,92
43968,note_on,0,0,5,,,,,,,,,4,,,76,92
43968,note_on,32,0,3,,,,,,,,,2,,,61,92
43968,note_on,2,0,8,,,,,,,,,7,,,45,92
43968,note_on,0,0,7,,,,,,,,,6,,,76,92
43968,note_on,2,0,7,,,,,,,,,6,,,69,92
43968,note_on,0,0,7,,,,,,,,,6,,,73,92
44062,note_on,94,0,5,,,,,,,,,4,,,69,0
44062,note_on,0,0,6,,,,,,,,,5,,,76,0
44062,note_on,94,0,6,,,,,,,,,5,,,69,0
44062,note_on,0,0,7,,,,,,,,,6,,,76,0
44062,note_on,0,0,7,,,,,,,,,6,,,73,0
44062,note_on,0,0,6,,,,,,,,,5,,,73,0
44062,note_on,0,0,5,,,,,,,,,4,,,73,0
44062,note_on,94,0,7,,,,,,,,,6,,,69,0
44062,note_on,94,0,8,,,,,,,,,7,,,45,0
44062,note_on,0,0,5,,,,,,,,,4,,,76,0
44064,note_on,2,0,8,,,,,,,,,7,,,45,92
44064,note_on,2,0,7,,,,,,,,,6,,,69,92
44064,note_on,0,0,7,,,,,,,,,6,,,73,92
44064,note_on,0,0,7,,,,,,,,,6,,,76,92
44064,note_on,0,0,6,,,,,,,,,5,,,73,92
44064,note_on,2,0,6,,,,,,,,,5,,,69,92
44064,note_on,2,0,5,,,,,,,,,4,,,69,92
44064,note_on,0,0,6,,,,,,,,,5,,,76,92
44064,note_on,0,0,5,,,,,,,,,4,,,73,92
44064,note_on,0,0,5,,,,,,,,,4,,,76,92
44112,note_on,336,0,1,,,,,,,,,0,,,73,0
44112,note_on,336,0,2,,,,,,,,,1,,,67,0
44112,note_on,336,0,4,,,,,,,,,3,,,45,0
44128,note_on,160,0,3,,,,,,,,,2,,,61,0
44158,note_on,0,0,7,,,,,,,,,6,,,76,0
44158,note_on,0,0,6,,,,,,,,,5,,,73,0
44158,note_on,94,0,7,,,,,,,,,6,,,69,0
44158,note_on,0,0,5,,,,,,,,,4,,,73,0
44158,note_on,94,0,5,,,,,,,,,4,,,69,0
44158,note_on,94,0,6,,,,,,,,,5,,,69,0
44158,note_on,0,0,5,,,,,,,,,4,,,76,0
44158,note_on,94,0,8,,,,,,,,,7,,,45,0
44158,note_on,0,0,6,,,,,,,,,5,,,76,0
44158,note_on,0,0,7,,,,,,,,,6,,,73,0
44160,note_on,32,0,3,,,,,,,,,2,,,57,92
44160,note_on,48,0,1,,,,,,,,,0,,,74,92
44160,note_on,0,0,7,,,,,,,,,6,,,74,92
44160,note_on,2,0,8,,,,,,,,,7,,,50,92
44160,note_on,48,0,2,,,,,,,,,1,,,66,92
44160,note_on,48,0,4,,,,,,,,,3,,,50,92
44160,note_on,2,0,5,,,,,,,,,4,,,69,92
44160,note_on,0,0,5,,,,,,,,,4,,,74,92
44160,note_on,0,0,5,,,,,,,,,4,,,78,92
44160,note_on,2,0,6,,,,,,,,,5,,,69,92
44160,note_on,0,0,6,,,,,,,,,5,,,74,92
44160,note_on,2,0,7,,,,,,,,,6,,,69,92
44160,note_on,0,0,6,,,,,,,,,5,,,78,92
44160,note_on,0,0,7,,,,,,,,,6,,,78,92
44254,note_on,94,0,6,,,,,,,,,5,,,69,0
44254,note_on,0,0,6,,,,,,,,,5,,,78,0
44254,note_on,0,0,5,,,,,,,,,4,,,78,0
44254,note_on,0,0,5,,,,,,,,,4,,,74,0
44254,note_on,94,0,8,,,,,,,,,7,,,50,0
44254,note_on,94,0,7,,,,,,,,,6,,,69,0
44254,note_on,0,0,7,,,,,,,,,6,,,74,0
44254,note_on,0,0,7,,,,,,,,,6,,,78,0
44254,note_on,0,0,6,,,,,,,,,5,,,74,0
44254,note_on,94,0,5,,,,,,,,,4,,,69,0
44256,note_on,2,0,6,,,,,,,,,5,,,81,92
44256,note_on,2,0,5,,,,,,,,,4,,,81,92
44256,note_on,2,0,8,,,,,,,,,7,,,62,92
44256,note_on,2,0,7,,,,,,,,,6,,,81,92
44350,note_on,94,0,8,,,,,,,,,7,,,62,0
44350,note_on,94,0,6,,,,,,,,,5,,,81,0
44350,note_on,94,0,5,,,,,,,,,4,,,81,0
44350,note_on,94,0,7,,,,,,,,,6,,,81,0
44352,note_on,2,0,7,,,,,,,,,6,,,69,92
44352,note_on,0,0,7,,,,,,,,,6,,,74,92
44352,note_on,2,0,5,,,,,,,,,4,,,69,92
44352,note_on,0,0,6,,,,,,,,,5,,,78,92
44352,note_on,2,0,6,,,,,,,,,5,,,69,92
44352,note_on,0,0,6,,,,,,,,,5,,,74,92
44352,note_on,0,0,5,,,,,,,,,4,,,74,92
44352,note_on,2,0,8,,,,,,,,,7,,,50,92
44352,note_on,0,0,7,,,,,,,,,6,,,78,92
44352,note_on,0,0,5,,,,,,,,,4,,,78,92
44446,note_on,94,0,8,,,,,,,,,7,,,50,0
44446,note_on,0,0,7,,,,,,,,,6,,,74,0
44446,note_on,0,0,5,,,,,,,,,4,,,74,0
44446,note_on,0,0,7,,,,,,,,,6,,,78,0
44446,note_on,94,0,5,,,,,,,,,4,,,69,0
44446,note_on,0,0,6,,,,,,,,,5,,,78,0
44446,note_on,0,0,6,,,,,,,,,5,,,74,0
44446,note_on,94,0,6,,,,,,,,,5,,,69,0
44446,note_on,0,0,5,,,,,,,,,4,,,78,0
44446,note_on,94,0,7,,,,,,,,,6,,,69,0
44448,note_on,2,0,8,,,,,,,,,7,,,50,92
44448,note_on,0,0,5,,,,,,,,,4,,,74,92
44448,note_on,2,0,6,,,,,,,,,5,,,69,92
44448,note_on,0,0,6,,,,,,,,,5,,,74,92
44448,note_on,2,0,5,,,,,,,,,4,,,69,92
44448,note_on,0,0,6,,,,,,,,,5,,,78,92
44448,note_on,2,0,7,,,,,,,,,6,,,69,92
44448,note_on,0,0,5,,,,,,,,,4,,,78,92
44448,note_on,0,0,7,,,,,,,,,6,,,74,92
44448,note_on,0,0,7,,,,,,,,,6,,,78,92
44496,note_on,336,0,1,,,,,,,,,0,,,74,0
44496,note_on,336,0,4,,,,,,,,,3,,,50,0
44496,note_on,336,0,2,,,,,,,,,1,,,66,0
44496,note_on,336,0,3,,,,,,,,,2,,,57,0
44542,note_on,0,0,7,,,,,,,,,6,,,78,0
44542,note_on,94,0,8,,,,,,,,,7,,,50,0
44542,note_on,94,0,7,,,,,,,,,6,,,69,0
44542,note_on,0,0,7,,,,,,,,,6,,,74,0
44542,note_on,0,0,6,,,,,,,,,5,,,78,0
44542,note_on,94,0,6,,,,,,,,,5,,,69,0
44542,note_on,94,0,5,,,,,,,,,4,,,69,0
44542,note_on,0,0,5,,,,,,,,,4,,,74,0
44542,note_on,0,0,6,,,,,,,,,5,,,74,0
44542,note_on,0,0,5,,,,,,,,,4,,,78,0
44544,note_on,48,0,3,,,,,,,,,2,,,57,92
44544,note_on,48,0,4,,,,,,,,,3,,,57,92
44544,note_on,2,0,5,,,,,,,,,4,,,69,92
44544,note_on,0,0,5,,,,,,,,,4,,,74,92
44544,note_on,0,0,5,,,,,,,,,4,,,76,92
44544,note_on,0,0,7,,,,,,,,,6,,,74,92
44544,note_on,2,0,6,,,,,,,,,5,,,69,92
44544,note_on,0,0,6,,,,,,,,,5,,,74,92
44544,note_on,0,0,6,,,,,,,,,5,,,76,92
44544,note_on,0,0,7,,,,,,,,,6,,,76,92
44544,note_on,48,0,2,,,,,,,,,1,,,64,92
44544,note_on,2,0,8,,,,,,,,,7,,,45,92
44544,note_on,2,0,7,,,,,,,,,6,,,69,92
44544,note_on,48,0,1,,,,,,,,,0,,,74,92
44638,note_on,94,0,6,,,,,,,,,5,,,69,0
44638,note_on,0,0,5,,,,,,,,,4,,,74,0
44638,note_on,94,0,5,,,,,,,,,4,,,69,0
44638,note_on,0,0,6,,,,,,,,,5,,,74,0
44638,note_on,0,0,6,,,,,,,,,5,,,76,0
44638,note_on,0,0,5,,,,,,,,,4,,,76,0
44638,note_on,94,0,8,,,,,,,,,7,,,45,0
44638,note_on,0,0,7,,,,,,,,,6,,,76,0
44638,note_on,0,0,7,,,,,,,,,6,,,74,0
44638,note_on,94,0,7,,,,,,,,,6,,,69,0
44640,note_on,2,0,6,,,,,,,,,5,,,81,92
44640,note_on,2,0,7,,,,,,,,,6,,,81,92
44640,note_on,2,0,8,,,,,,,,,7,,,57,92
44640,note_on,2,0,5,,,,,,,,,4,,,81,92
44734,note_on,94,0,8,,,,,,,,,7,,,57,0
44734,note_on,94,0,5,,,,,,,,,4,,,81,0
44734,note_on,94,0,6,,,,,,,,,5,,,81,0
44734,note_on,94,0,7,,,,,,,,,6,,,81,0
44736,note_on,2,0,5,,,,,,,,,4,,,69,92
44736,note_on,2,0,8,,,,,,,,,7,,,45,92
44736,note_on,0,0,7,,,,,,,,,6,,,76,92
44736,note_on,2,0,6,,,,,,,,,5,,,69,92
44736,note_on,0,0,6,,,,,,,,,5,,,74,92
44736,note_on,0,0,6,,,,,,,,,5,,,76,92
44736,note_on,2,0,7,,,,,,,,,6,,,69,92
44736,note_on,0,0,7,,,,,,,,,6,,,74,92
44736,note_on,0,0,5,,,,,,,,,4,,,74,92
44736,note_on,0,0,5,,,,,,,,,4,,,76,92
44830,note_on,94,0,8,,,,,,,,,7,,,45,0
44830,note_on,0,0,5,,,,,,,,,4,,,74,0
44830,note_on,0,0,6,,,,,,,,,5,,,76,0
44830,note_on,0,0,7,,,,,,,,,6,,,76,0
44830,note_on,0,0,6,,,,,,,,,5,,,74,0
44830,note_on,94,0,6,,,,,,,,,5,,,69,0
44830,note_on,94,0,7,,,,,,,,,6,,,69,0
44830,note_on,0,0,7,,,,,,,,,6,,,74,0
44830,note_on,94,0,5,,,,,,,,,4,,,69,0
44830,note_on,0,0,5,,,,,,,,,4,,,76,0
44832,note_on,2,0,8,,,,,,,,,7,,,45,92
44832,note_on,0,0,6,,,,,,,,,5,,,76,92
44832,note_on,0,0,5,,,,,,,,,4,,,74,92
44832,note_on,2,0,7,,,,,,,,,6,,,69,92
44832,note_on,0,0,7,,,,,,,,,6,,,74,92
44832,note_on,0,0,7,,,,,,,,,6,,,76,92
44832,note_on,2,0,5,,,,,,,,,4,,,69,92
44832,note_on,0,0,6,,,,,,,,,5,,,74,92
44832,note_on,2,0,6,,,,,,,,,5,,,69,92
44832,note_on,0,0,5,,,,,,,,,4,,,76,92
44926,note_on,0,0,5,,,,,,,,,4,,,76,0
44926,note_on,0,0,5,,,,,,,,,4,,,74,0
44926,note_on,0,0,7,,,,,,,,,6,,,76,0
44926,note_on,0,0,7,,,,,,,,,6,,,74,0
44926,note_on,94,0,7,,,,,,,,,6,,,69,0
44926,note_on,94,0,5,,,,,,,,,4,,,69,0
44926,note_on,94,0,8,,,,,,,,,7,,,45,0
44926,note_on,94,0,6,,,,,,,,,5,,,69,0
44926,note_on,0,0,6,,,,,,,,,5,,,74,0
44926,note_on,0,0,6,,,,,,,,,5,,,76,0
44928,note_on,0,0,5,,,,,,,,,4,,,73,92
44928,note_on,0,0,5,,,,,,,,,4,,,76,92
44928,note_on,2,0,6,,,,,,,,,5,,,69,92
44928,note_on,2,0,5,,,,,,,,,4,,,69,92
44928,note_on,0,0,6,,,,,,,,,5,,,73,92
44928,note_on,0,0,1,,,,,,,,,0,,,73,92
44928,note_on,2,0,7,,,,,,,,,6,,,69,92
44928,note_on,0,0,7,,,,,,,,,6,,,73,92
44928,note_on,0,0,4,,,,,,,,,3,,,45,92
44928,note_on,384,0,4,,,,,,,,,3,,,57,0
44928,note_on,0,0,7,,,,,,,,,6,,,76,92
44928,note_on,384,0,1,,,,,,,,,0,,,74,0
44928,note_on,0,0,6,,,,,,,,,5,,,76,92
44928,note_on,2,0,8,,,,,,,,,7,,,45,92
45022,note_on,94,0,6,,,,,,,,,5,,,69,0
45022,note_on,94,0,7,,,,,,,,,6,,,69,0
45022,note_on,0,0,7,,,,,,,,,6,,,73,0
45022,note_on,0,0,7,,,,,,,,,6,,,76,0
45022,note_on,0,0,5,,,,,,,,,4,,,76,0
45022,note_on,0,0,5,,,,,,,,,4,,,73,0
45022,note_on,94,0,8,,,,,,,,,7,,,45,0
45022,note_on,94,0,5,,,,,,,,,4,,,69,0
45022,note_on,0,0,6,,,,,,,,,5,,,73,0
45022,note_on,0,0,6,,,,,,,,,5,,,76,0
45024,note_on,2,0,7,,,,,,,,,6,,,81,92
45024,note_on,2,0,8,,,,,,,,,7,,,57,92
45024,note_on,2,0,5,,,,,,,,,4,,,81,92
45024,note_on,2,0,6,,,,,,,,,5,,,81,92
45118,note_on,94,0,5,,,,,,,,,4,,,81,0
45118,note_on,94,0,7,,,,,,,,,6,,,81,0
45118,note_on,94,0,6,,,,,,,,,5,,,81,0
45118,note_on,94,0,8,,,,,,,,,7,,,57,0
45120,note_on,0,0,6,,,,,,,,,5,,,76,92
45120,note_on,0,0,7,,,,,,,,,6,,,76,92
45120,note_on,2,0,6,,,,,,,,,5,,,69,92
45120,note_on,2,0,8,,,,,,,,,7,,,45,92
45120,note_on,2,0,5,,,,,,,,,4,,,69,92
45120,note_on,0,0,5,,,,,,,,,4,,,73,92
45120,note_on,0,0,5,,,,,,,,,4,,,76,92
45120,note_on,2,0,7,,,,,,,,,6,,,69,92
45120,note_on,0,0,7,,,,,,,,,6,,,73,92
45120,note_on,0,0,6,,,,,,,,,5,,,73,92
45214,note_on,94,0,7,,,,,,,,,6,,,69,0
45214,note_on,94,0,5,,,,,,,,,4,,,69,0
45214,note_on,0,0,5,,,,,,,,,4,,,76,0
45214,note_on,0,0,5,,,,,,,,,4,,,73,0
45214,note_on,94,0,6,,,,,,,,,5,,,69,0
45214,note_on,0,0,6,,,,,,,,,5,,,73,0
45214,note_on,0,0,6,,,,,,,,,5,,,76,0
45214,note_on,0,0,7,,,,,,,,,6,,,76,0
45214,note_on,94,0,8,,,,,,,,,7,,,45,0
45214,note_on,0,0,7,,,,,,,,,6,,,73,0
45216,note_on,0,0,6,,,,,,,,,5,,,76,92
45216,note_on,2,0,7,,,,,,,,,6,,,69,92
45216,note_on,0,0,7,,,,,,,,,6,,,73,92
45216,note_on,0,0,7,,,,,,,,,6,,,76,92
45216,note_on,2,0,6,,,,,,,,,5,,,69,92
45216,note_on,0,0,6,,,,,,,,,5,,,73,92
45216,note_on,2,0,8,,,,,,,,,7,,,45,92
45216,note_on,2,0,5,,,,,,,,,4,,,69,92
45216,note_on,0,0,5,,,,,,,,,4,,,73,92
45216,note_on,0,0,5,,,,,,,,,4,,,76,92
45264,note_on,720,0,3,,,,,,,,,2,,,57,0
45264,note_on,336,0,4,,,,,,,,,3,,,45,0
45264,note_on,720,0,2,,,,,,,,,1,,,64,0
45264,note_on,336,0,1,,,,,,,,,0,,,73,0
45310,note_on,94,0,6,,,,,,,,,5,,,69,0
45310,note_on,94,0,7,,,,,,,,,6,,,69,0
45310,note_on,94,0,8,,,,,,,,,7,,,45,0
45310,note_on,0,0,7,,,,,,,,,6,,,73,0
45310,note_on,0,0,7,,,,,,,,,6,,,76,0
45310,note_on,0,0,5,,,,,,,,,4,,,76,0
45310,note_on,0,0,5,,,,,,,,,4,,,73,0
45310,note_on,94,0,5,,,,,,,,,4,,,69,0
45310,note_on,0,0,6,,,,,,,,,5,,,73,0
45310,note_on,0,0,6,,,,,,,,,5,,,76,0
45312,note_on,2,0,5,,,,,,,,,4,,,74,92
45312,note_on,0,0,5,,,,,,,,,4,,,78,92
45312,note_on,48,0,1,,,,,,,,,0,,,74,92
45312,note_on,48,0,2,,,,,,,,,1,,,66,92
45312,note_on,0,0,8,,,,,,,,,7,,,57,92
45312,note_on,48,0,4,,,,,,,,,3,,,50,92
45312,note_on,2,0,8,,,,,,,,,7,,,50,92
45312,note_on,48,0,3,,,,,,,,,2,,,57,92
45312,note_on,0,0,6,,,,,,,,,5,,,78,92
45312,note_on,2,0,6,,,,,,,,,5,,,74,92
45312,note_on,2,0,7,,,,,,,,,6,,,74,92
45312,note_on,0,0,7,,,,,,,,,6,,,78,92
45406,note_on,94,0,7,,,,,,,,,6,,,74,0
45406,note_on,94,0,5,,,,,,,,,4,,,74,0
45406,note_on,94,0,8,,,,,,,,,7,,,50,0
45406,note_on,0,0,8,,,,,,,,,7,,,57,0
45406,note_on,94,0,6,,,,,,,,,5,,,74,0
45406,note_on,0,0,5,,,,,,,,,4,,,78,0
45406,note_on,0,0,6,,,,,,,,,5,,,78,0
45406,note_on,0,0,7,,,,,,,,,6,,,78,0
45408,note_on,2,0,7,,,,,,,,,6,,,74,92
45408,note_on,2,0,8,,,,,,,,,7,,,62,92
45408,note_on,2,0,5,,,,,,,,,4,,,74,92
45408,note_on,2,0,6,,,,,,,,,5,,,74,92
45502,note_on,94,0,5,,,,,,,,,4,,,74,0
45502,note_on,94,0,6,,,,,,,,,5,,,74,0
45502,note_on,94,0,7,,,,,,,,,6,,,74,0
45502,note_on,94,0,8,,,,,,,,,7,,,62,0
45504,note_on,2,0,8,,,,,,,,,7,,,50,92
45504,note_on,2,0,6,,,,,,,,,5,,,62,92
45504,note_on,2,0,5,,,,,,,,,4,,,62,92
45504,note_on,2,0,7,,,,,,,,,6,,,62,92
45598,note_on,94,0,7,,,,,,,,,6,,,62,0
45598,note_on,94,0,8,,,,,,,,,7,,,50,0
45598,note_on,94,0,5,,,,,,,,,4,,,62,0
45598,note_on,94,0,6,,,,,,,,,5,,,62,0
45600,note_on,2,0,5,,,,,,,,,4,,,62,92
45600,note_on,2,0,8,,,,,,,,,7,,,50,92
45600,note_on,2,0,6,,,,,,,,,5,,,62,92
45600,note_on,2,0,7,,,,,,,,,6,,,62,92
45648,note_on,336,0,1,,,,,,,,,0,,,74,0
45648,note_on,336,0,3,,,,,,,,,2,,,57,0
45648,note_on,336,0,4,,,,,,,,,3,,,50,0
45648,note_on,336,0,2,,,,,,,,,1,,,66,0
45694,note_on,94,0,6,,,,,,,,,5,,,62,0
45694,note_on,94,0,8,,,,,,,,,7,,,50,0
45694,note_on,94,0,7,,,,,,,,,6,,,62,0
45694,note_on,94,0,5,,,,,,,,,4,,,62,0
45696,note_on,2,0,6,,,,,,,,,5,,,62,92
45696,note_on,2,0,7,,,,,,,,,6,,,62,92
45696,note_on,2,0,5,,,,,,,,,4,,,62,92
45696,note_on,2,0,8,,,,,,,,,7,,,50,92
45790,note_on,94,0,8,,,,,,,,,7,,,50,0
45790,note_on,94,0,7,,,,,,,,,6,,,62,0
45790,note_on,94,0,5,,,,,,,,,4,,,62,0
45790,note_on,94,0,6,,,,,,,,,5,,,62,0
45792,note_on,2,0,8,,,,,,,,,7,,,62,92
45792,note_on,2,0,7,,,,,,,,,6,,,74,92
45792,note_on,2,0,5,,,,,,,,,4,,,74,92
45792,note_on,2,0,6,,,,,,,,,5,,,74,92
45886,note_on,94,0,8,,,,,,,,,7,,,62,0
45886,note_on,94,0,5,,,,,,,,,4,,,74,0
45886,note_on,94,0,7,,,,,,,,,6,,,74,0
45886,note_on,94,0,6,,,,,,,,,5,,,74,0
45888,note_on,2,0,5,,,,,,,,,4,,,62,92
45888,note_on,2,0,6,,,,,,,,,5,,,62,92
45888,note_on,2,0,7,,,,,,,,,6,,,62,92
45888,note_on,2,0,8,,,,,,,,,7,,,50,92
45982,note_on,94,0,8,,,,,,,,,7,,,50,0
45982,note_on,94,0,5,,,,,,,,,4,,,62,0
45982,note_on,94,0,6,,,,,,,,,5,,,62,0
45982,note_on,94,0,7,,,,,,,,,6,,,62,0
45984,note_on,2,0,8,,,,,,,,,7,,,50,92
45984,note_on,2,0,5,,,,,,,,,4,,,62,92
45984,note_on,2,0,6,,,,,,,,,5,,,62,92
45984,note_on,2,0,7,,,,,,,,,6,,,62,92
46078,note_on,94,0,7,,,,,,,,,6,,,62,0
46078,note_on,94,0,8,,,,,,,,,7,,,50,0
46078,note_on,94,0,5,,,,,,,,,4,,,62,0
46078,note_on,94,0,6,,,,,,,,,5,,,62,0
46080,note_on,2,0,8,,,,,,,,,7,,,50,92
46080,note_on,2,0,7,,,,,,,,,6,,,62,92
46080,note_on,2,0,6,,,,,,,,,5,,,62,92
46080,note_on,2,0,5,,,,,,,,,4,,,62,92
46174,note_on,94,0,8,,,,,,,,,7,,,50,0
46176,note_on,96,0,5,,,,,,,,,4,,,66,92
46176,note_on,96,0,7,,,,,,,,,6,,,66,92
46176,note_on,2,0,8,,,,,,,,,7,,,50,92
46176,note_on,96,0,6,,,,,,,,,5,,,66,92
46222,note_on,46,0,7,,,,,,,,,6,,,66,0
46222,note_on,46,0,8,,,,,,,,,7,,,50,0
46222,note_on,46,0,6,,,,,,,,,5,,,66,0
46222,note_on,46,0,5,,,,,,,,,4,,,66,0
46224,note_on,2,0,5,,,,,,,,,4,,,67,92
46224,note_on,2,0,8,,,,,,,,,7,,,52,92
46224,note_on,2,0,6,,,,,,,,,5,,,67,92
46224,note_on,2,0,7,,,,,,,,,6,,,67,92
46270,note_on,46,0,5,,,,,,,,,4,,,62,0
46270,note_on,0,0,5,,,,,,,,,4,,,67,0
46270,note_on,46,0,8,,,,,,,,,7,,,52,0
46270,note_on,0,0,7,,,,,,,,,6,,,67,0
46270,note_on,0,0,6,,,,,,,,,5,,,67,0
46270,note_on,46,0,6,,,,,,,,,5,,,62,0
46270,note_on,46,0,7,,,,,,,,,6,,,62,0
46272,note_on,2,0,7,,,,,,,,,6,,,69,92
46272,note_on,2,0,6,,,,,,,,,5,,,69,92
46272,note_on,2,0,8,,,,,,,,,7,,,54,92
46272,note_on,2,0,5,,,,,,,,,4,,,69,92
46366,note_on,94,0,6,,,,,,,,,5,,,69,0
46366,note_on,94,0,5,,,,,,,,,4,,,69,0
46366,note_on,94,0,8,,,,,,,,,7,,,54,0
46366,note_on,94,0,7,,,,,,,,,6,,,69,0
46368,note_on,2,0,6,,,,,,,,,5,,,67,92
46368,note_on,2,0,7,,,,,,,,,6,,,67,92
46368,note_on,2,0,5,,,,,,,,,4,,,67,92
46368,note_on,2,0,8,,,,,,,,,7,,,52,92
46462,note_on,94,0,8,,,,,,,,,7,,,52,0
46462,note_on,94,0,7,,,,,,,,,6,,,67,0
46462,note_on,94,0,6,,,,,,,,,5,,,67,0
46462,note_on,94,0,5,,,,,,,,,4,,,67,0
46464,note_on,2,0,6,,,,,,,,,5,,,66,92
46464,note_on,2,0,5,,,,,,,,,4,,,66,92
46464,note_on,2,0,7,,,,,,,,,6,,,66,92
46464,note_on,2,0,8,,,,,,,,,7,,,50,92
46558,note_on,94,0,8,,,,,,,,,7,,,50,0
46558,note_on,94,0,6,,,,,,,,,5,,,66,0
46558,note_on,94,0,5,,,,,,,,,4,,,66,0
46558,note_on,94,0,7,,,,,,,,,6,,,66,0
46560,note_on,2,0,7,,,,,,,,,6,,,66,92
46560,note_on,2,0,8,,,,,,,,,7,,,50,92
46560,note_on,2,0,5,,,,,,,,,4,,,66,92
46560,note_on,2,0,6,,,,,,,,,5,,,66,92
46606,note_on,46,0,8,,,,,,,,,7,,,50,0
46606,note_on,46,0,7,,,,,,,,,6,,,66,0
46606,note_on,46,0,5,,,,,,,,,4,,,66,0
46606,note_on,46,0,6,,,,,,,,,5,,,66,0
46608,note_on,2,0,8,,,,,,,,,7,,,52,92
46608,note_on,2,0,6,,,,,,,,,5,,,67,92
46608,note_on,2,0,5,,,,,,,,,4,,,67,92
46608,note_on,2,0,7,,,,,,,,,6,,,67,92
46654,note_on,46,0,7,,,,,,,,,6,,,67,0
46654,note_on,46,0,5,,,,,,,,,4,,,67,0
46654,note_on,46,0,6,,,,,,,,,5,,,67,0
46654,note_on,46,0,8,,,,,,,,,7,,,52,0
46656,note_on,2,0,5,,,,,,,,,4,,,69,92
46656,note_on,2,0,7,,,,,,,,,6,,,69,92
46656,note_on,2,0,6,,,,,,,,,5,,,69,92
46656,note_on,2,0,8,,,,,,,,,7,,,54,92
46750,note_on,94,0,8,,,,,,,,,7,,,54,0
46750,note_on,94,0,7,,,,,,,,,6,,,69,0
46750,note_on,94,0,5,,,,,,,,,4,,,69,0
46750,note_on,94,0,6,,,,,,,,,5,,,69,0
46752,note_on,2,0,5,,,,,,,,,4,,,67,92
46752,note_on,2,0,6,,,,,,,,,5,,,67,92
46752,note_on,2,0,7,,,,,,,,,6,,,67,92
46752,note_on,2,0,8,,,,,,,,,7,,,52,92
46846,note_on,94,0,6,,,,,,,,,5,,,67,0
46846,note_on,94,0,8,,,,,,,,,7,,,52,0
46846,note_on,94,0,7,,,,,,,,,6,,,67,0
46846,note_on,94,0,5,,,,,,,,,4,,,67,0
46848,note_on,0,0,6,,,,,,,,,5,,,66,92
46848,note_on,2,0,7,,,,,,,,,6,,,62,92
46848,note_on,2,0,5,,,,,,,,,4,,,62,92
46848,note_on,0,0,5,,,,,,,,,4,,,66,92
46848,note_on,0,0,7,,,,,,,,,6,,,66,92
46848,note_on,2,0,6,,,,,,,,,5,,,62,92
46848,note_on,2,0,8,,,,,,,,,7,,,50,92
46942,note_on,94,0,7,,,,,,,,,6,,,62,0
46942,note_on,0,0,7,,,,,,,,,6,,,66,0
46942,note_on,94,0,6,,,,,,,,,5,,,62,0
46942,note_on,94,0,8,,,,,,,,,7,,,50,0
46942,note_on,94,0,5,,,,,,,,,4,,,62,0
46942,note_on,0,0,6,,,,,,,,,5,,,66,0
46942,note_on,0,0,5,,,,,,,,,4,,,66,0
46944,note_on,2,0,8,,,,,,,,,7,,,62,92
46944,note_on,2,0,5,,,,,,,,,4,,,74,92
46944,note_on,2,0,6,,,,,,,,,5,,,74,92
46944,note_on,2,0,7,,,,,,,,,6,,,74,92
47038,note_on,94,0,8,,,,,,,,,7,,,62,0
47038,note_on,94,0,6,,,,,,,,,5,,,74,0
47038,note_on,94,0,5,,,,,,,,,4,,,74,0
47038,note_on,94,0,7,,,,,,,,,6,,,74,0
47040,note_on,2,0,8,,,,,,,,,7,,,50,92
47040,note_on,2,0,6,,,,,,,,,5,,,62,92
47040,note_on,2,0,7,,,,,,,,,6,,,62,92
47040,note_on,2,0,5,,,,,,,,,4,,,62,92
47134,note_on,94,0,5,,,,,,,,,4,,,62,0
47134,note_on,94,0,7,,,,,,,,,6,,,62,0
47134,note_on,94,0,6,,,,,,,,,5,,,62,0
47134,note_on,94,0,8,,,,,,,,,7,,,50,0
47136,note_on,2,0,5,,,,,,,,,4,,,62,92
47136,note_on,2,0,8,,,,,,,,,7,,,50,92
47136,note_on,2,0,7,,,,,,,,,6,,,62,92
47136,note_on,2,0,6,,,,,,,,,5,,,62,92
47230,note_on,94,0,5,,,,,,,,,4,,,62,0
47230,note_on,94,0,8,,,,,,,,,7,,,50,0
47230,note_on,94,0,6,,,,,,,,,5,,,62,0
47230,note_on,94,0,7,,,,,,,,,6,,,62,0
47232,note_on,2,0,7,,,,,,,,,6,,,62,92
47232,note_on,2,0,5,,,,,,,,,4,,,62,92
47232,note_on,2,0,8,,,,,,,,,7,,,50,92
47232,note_on,2,0,6,,,,,,,,,5,,,62,92
47326,note_on,94,0,6,,,,,,,,,5,,,62,0
47326,note_on,94,0,8,,,,,,,,,7,,,50,0
47326,note_on,94,0,7,,,,,,,,,6,,,62,0
47326,note_on,94,0,5,,,,,,,,,4,,,62,0
47328,note_on,2,0,5,,,,,,,,,4,,,74,92
47328,note_on,2,0,7,,,,,,,,,6,,,74,92
47328,note_on,2,0,8,,,,,,,,,7,,,62,92
47328,note_on,2,0,6,,,,,,,,,5,,,74,92
47422,note_on,94,0,8,,,,,,,,,7,,,62,0
47422,note_on,94,0,5,,,,,,,,,4,,,74,0
47422,note_on,94,0,7,,,,,,,,,6,,,74,0
47422,note_on,94,0,6,,,,,,,,,5,,,74,0
47424,note_on,2,0,7,,,,,,,,,6,,,62,92
47424,note_on,2,0,6,,,,,,,,,5,,,62,92
47424,note_on,2,0,8,,,,,,,,,7,,,50,92
47424,note_on,2,0,5,,,,,,,,,4,,,62,92
47518,note_on,94,0,7,,,,,,,,,6,,,62,0
47518,note_on,94,0,6,,,,,,,,,5,,,62,0
47518,note_on,94,0,5,,,,,,,,,4,,,62,0
47518,note_on,94,0,8,,,,,,,,,7,,,50,0
47520,note_on,2,0,8,,,,,,,,,7,,,50,92
47520,note_on,2,0,5,,,,,,,,,4,,,62,92
47520,note_on,2,0,6,,,,,,,,,5,,,62,92
47520,note_on,2,0,7,,,,,,,,,6,,,62,92
47614,note_on,94,0,8,,,,,,,,,7,,,50,0
47614,note_on,94,0,6,,,,,,,,,5,,,62,0
47614,note_on,94,0,7,,,,,,,,,6,,,62,0
47614,note_on,94,0,5,,,,,,,,,4,,,62,0
47616,note_on,2,0,6,,,,,,,,,5,,,62,92
47616,note_on,1968,0,3,,,,,,,,,2,,,62,92
47616,note_on,2,0,7,,,,,,,,,6,,,62,92
47616,note_on,2,0,5,,,,,,,,,4,,,62,92
47616,note_on,2,0,8,,,,,,,,,7,,,50,92
47616,note_on,1968,0,1,,,,,,,,,0,,,69,92
47710,note_on,94,0,8,,,,,,,,,7,,,50,0
47710,note_on,94,0,6,,,,,,,,,5,,,62,0
47710,note_on,94,0,7,,,,,,,,,6,,,62,0
47710,note_on,94,0,5,,,,,,,,,4,,,62,0
47712,note_on,0,0,6,,,,,,,,,5,,,78,92
47712,note_on,0,0,7,,,,,,,,,6,,,78,92
47712,note_on,2,0,7,,,,,,,,,6,,,74,92
47712,note_on,2,0,6,,,,,,,,,5,,,74,92
47712,note_on,2,0,8,,,,,,,,,7,,,62,92
47712,note_on,2,0,5,,,,,,,,,4,,,74,92
47712,note_on,0,0,5,,,,,,,,,4,,,78,92
47758,note_on,0,0,7,,,,,,,,,6,,,78,0
47758,note_on,46,0,7,,,,,,,,,6,,,74,0
47758,note_on,0,0,5,,,,,,,,,4,,,78,0
47758,note_on,46,0,6,,,,,,,,,5,,,74,0
47758,note_on,0,0,6,,,,,,,,,5,,,78,0
47758,note_on,46,0,5,,,,,,,,,4,,,74,0
47760,note_on,2,0,6,,,,,,,,,5,,,76,92
47760,note_on,2,0,5,,,,,,,,,4,,,76,92
47760,note_on,2,0,7,,,,,,,,,6,,,76,92
47760,note_on,0,0,7,,,,,,,,,6,,,79,92
47760,note_on,0,0,6,,,,,,,,,5,,,79,92
47760,note_on,0,0,5,,,,,,,,,4,,,79,92
47776,note_on,160,0,1,,,,,,,,,0,,,69,0
47806,note_on,46,0,5,,,,,,,,,4,,,76,0
47806,note_on,0,0,5,,,,,,,,,4,,,79,0
47806,note_on,46,0,7,,,,,,,,,6,,,76,0
47806,note_on,0,0,7,,,,,,,,,6,,,79,0
47806,note_on,94,0,8,,,,,,,,,7,,,62,0
47806,note_on,46,0,6,,,,,,,,,5,,,76,0
47806,note_on,0,0,6,,,,,,,,,5,,,79,0
47808,note_on,0,0,7,,,,,,,,,6,,,81,92
47808,note_on,0,0,5,,,,,,,,,4,,,81,92
47808,note_on,2,0,8,,,,,,,,,7,,,50,92
47808,note_on,32,0,1,,,,,,,,,0,,,69,92
47808,note_on,0,0,6,,,,,,,,,5,,,81,92
47808,note_on,2,0,6,,,,,,,,,5,,,78,92
47808,note_on,2,0,7,,,,,,,,,6,,,78,92
47808,note_on,2,0,5,,,,,,,,,4,,,78,92
47854,note_on,46,0,5,,,,,,,,,4,,,78,0
47854,note_on,0,0,6,,,,,,,,,5,,,81,0
47854,note_on,46,0,6,,,,,,,,,5,,,78,0
47854,note_on,0,0,7,,,,,,,,,6,,,81,0
47854,note_on,0,0,5,,,,,,,,,4,,,81,0
47854,note_on,46,0,7,,,,,,,,,6,,,78,0
47856,note_on,2,0,7,,,,,,,,,6,,,76,92
47856,note_on,0,0,7,,,,,,,,,6,,,79,92
47856,note_on,0,0,6,,,,,,,,,5,,,79,92
47856,note_on,2,0,6,,,,,,,,,5,,,76,92
47856,note_on,2,0,5,,,,,,,,,4,,,76,92
47856,note_on,0,0,5,,,,,,,,,4,,,79,92
47902,note_on,94,0,8,,,,,,,,,7,,,50,0
47902,note_on,46,0,6,,,,,,,,,5,,,76,0
47902,note_on,0,0,6,,,,,,,,,5,,,79,0
47902,note_on,0,0,5,,,,,,,,,4,,,79,0
47902,note_on,46,0,7,,,,,,,,,6,,,76,0
47902,note_on,46,0,5,,,,,,,,,4,,,76,0
47902,note_on,0,0,7,,,,,,,,,6,,,79,0
47904,note_on,0,0,5,,,,,,,,,4,,,81,92
47904,note_on,2,0,7,,,,,,,,,6,,,78,92
47904,note_on,0,0,7,,,,,,,,,6,,,81,92
47904,note_on,2,0,5,,,,,,,,,4,,,78,92
47904,note_on,2,0,6,,,,,,,,,5,,,78,92
47904,note_on,0,0,6,,,,,,,,,5,,,81,92
47904,note_on,2,0,8,,,,,,,,,7,,,50,92
47950,note_on,46,0,6,,,,,,,,,5,,,78,0
47950,note_on,46,0,7,,,,,,,,,6,,,78,0
47950,note_on,0,0,7,,,,,,,,,6,,,81,0
47950,note_on,0,0,5,,,,,,,,,4,,,81,0
47950,note_on,0,0,6,,,,,,,,,5,,,81,0
47950,note_on,46,0,5,,,,,,,,,4,,,78,0
47952,note_on,2,0,5,,,,,,,,,4,,,74,92
47952,note_on,0,0,7,,,,,,,,,6,,,78,92
47952,note_on,2,0,7,,,,,,,,,6,,,74,92
47952,note_on,336,0,3,,,,,,,,,2,,,62,0
47952,note_on,0,0,6,,,,,,,,,5,,,78,92
47952,note_on,2,0,6,,,,,,,,,5,,,74,92
47952,note_on,0,0,5,,,,,,,,,4,,,78,92
47968,note_on,160,0,1,,,,,,,,,0,,,69,0
47998,note_on,46,0,7,,,,,,,,,6,,,74,0
47998,note_on,0,0,7,,,,,,,,,6,,,78,0
47998,note_on,0,0,6,,,,,,,,,5,,,78,0
47998,note_on,46,0,6,,,,,,,,,5,,,74,0
47998,note_on,0,0,5,,,,,,,,,4,,,78,0
47998,note_on,94,0,8,,,,,,,,,7,,,50,0
47998,note_on,46,0,5,,,,,,,,,4,,,74,0
48000,note_on,2352,0,2,,,,,,,,,1,,,66,92
48000,note_on,2352,0,4,,,,,,,,,3,,,50,92
48000,note_on,0,0,7,,,,,,,,,6,,,83,92
48000,note_on,2,0,7,,,,,,,,,6,,,78,92
48000,note_on,2,0,8,,,,,,,,,7,,,50,92
48000,note_on,2,0,5,,,,,,,,,4,,,78,92
48000,note_on,0,0,5,,,,,,,,,4,,,83,92
48000,note_on,48,0,3,,,,,,,,,2,,,62,92
48000,note_on,0,0,6,,,,,,,,,5,,,83,92
48000,note_on,2,0,6,,,,,,,,,5,,,78,92
48000,note_on,32,0,1,,,,,,,,,0,,,71,92
48046,note_on,46,0,5,,,,,,,,,4,,,78,0
48046,note_on,0,0,7,,,,,,,,,6,,,83,0
48046,note_on,0,0,5,,,,,,,,,4,,,83,0
48046,note_on,46,0,7,,,,,,,,,6,,,78,0
48046,note_on,0,0,6,,,,,,,,,5,,,83,0
48046,note_on,46,0,6,,,,,,,,,5,,,78,0
48048,note_on,2,0,6,,,,,,,,,5,,,74,92
48048,note_on,2,0,7,,,,,,,,,6,,,74,92
48048,note_on,2,0,5,,,,,,,,,4,,,74,92
48094,note_on,46,0,7,,,,,,,,,6,,,74,0
48094,note_on,94,0,8,,,,,,,,,7,,,50,0
48094,note_on,46,0,5,,,,,,,,,4,,,74,0
48094,note_on,46,0,6,,,,,,,,,5,,,74,0
48096,note_on,0,0,5,,,,,,,,,4,,,83,92
48096,note_on,2,0,8,,,,,,,,,7,,,62,92
48096,note_on,2,0,5,,,,,,,,,4,,,78,92
48096,note_on,2,0,7,,,,,,,,,6,,,78,92
48096,note_on,0,0,7,,,,,,,,,6,,,83,92
48096,note_on,2,0,6,,,,,,,,,5,,,78,92
48096,note_on,0,0,6,,,,,,,,,5,,,83,92
48142,note_on,0,0,6,,,,,,,,,5,,,83,0
48142,note_on,0,0,7,,,,,,,,,6,,,83,0
48142,note_on,46,0,7,,,,,,,,,6,,,78,0
48142,note_on,0,0,5,,,,,,,,,4,,,83,0
48142,note_on,46,0,5,,,,,,,,,4,,,78,0
48142,note_on,46,0,6,,,,,,,,,5,,,78,0
48144,note_on,2,0,7,,,,,,,,,6,,,74,92
48144,note_on,2,0,5,,,,,,,,,4,,,74,92
48144,note_on,2,0,6,,,,,,,,,5,,,74,92
48160,note_on,160,0,4,,,,,,,,,3,,,50,0
48160,note_on,160,0,2,,,,,,,,,1,,,66,0
48190,note_on,46,0,6,,,,,,,,,5,,,74,0
48190,note_on,46,0,5,,,,,,,,,4,,,74,0
48190,note_on,46,0,7,,,,,,,,,6,,,74,0
48190,note_on,94,0,8,,,,,,,,,7,,,62,0
48192,note_on,0,0,6,,,,,,,,,5,,,83,92
48192,note_on,2,0,6,,,,,,,,,5,,,78,92
48192,note_on,32,0,2,,,,,,,,,1,,,66,92
48192,note_on,2,0,5,,,,,,,,,4,,,78,92
48192,note_on,0,0,5,,,,,,,,,4,,,83,92
48192,note_on,2,0,7,,,,,,,,,6,,,78,92
48192,note_on,2,0,8,,,,,,,,,7,,,50,92
48192,note_on,0,0,7,,,,,,,,,6,,,83,92
48192,note_on,32,0,4,,,,,,,,,3,,,50,92
48238,note_on,46,0,7,,,,,,,,,6,,,78,0
48238,note_on,0,0,6,,,,,,,,,5,,,83,0
48238,note_on,0,0,5,,,,,,,,,4,,,83,0
48238,note_on,46,0,5,,,,,,,,,4,,,78,0
48238,note_on,0,0,7,,,,,,,,,6,,,83,0
48238,note_on,46,0,6,,,,,,,,,5,,,78,0
48240,note_on,2,0,7,,,,,,,,,6,,,74,92
48240,note_on,2,0,6,,,,,,,,,5,,,74,92
48240,note_on,2,0,5,,,,,,,,,4,,,74,92
48286,note_on,46,0,7,,,,,,,,,6,,,74,0
48286,note_on,94,0,8,,,,,,,,,7,,,50,0
48286,note_on,46,0,5,,,,,,,,,4,,,74,0
48286,note_on,46,0,6,,,,,,,,,5,,,74,0
48288,note_on,2,0,6,,,,,,,,,5,,,78,92
48288,note_on,2,0,7,,,,,,,,,6,,,78,92
48288,note_on,0,0,7,,,,,,,,,6,,,83,92
48288,note_on,0,0,6,,,,,,,,,5,,,83,92
48288,note_on,2,0,5,,,,,,,,,4,,,78,92
48288,note_on,0,0,5,,,,,,,,,4,,,83,92
48288,note_on,2,0,8,,,,,,,,,7,,,50,92
48334,note_on,46,0,7,,,,,,,,,6,,,78,0
48334,note_on,0,0,7,,,,,,,,,6,,,83,0
48334,note_on,46,0,5,,,,,,,,,4,,,78,0
48334,note_on,46,0,6,,,,,,,,,5,,,78,0
48334,note_on,0,0,6,,,,,,,,,5,,,83,0
48334,note_on,0,0,5,,,,,,,,,4,,,83,0
48336,note_on,2,0,5,,,,,,,,,4,,,74,92
48336,note_on,336,0,3,,,,,,,,,2,,,62,0
48336,note_on,2,0,6,,,,,,,,,5,,,74,92
48336,note_on,2,0,7,,,,,,,,,6,,,74,92
48352,note_on,160,0,2,,,,,,,,,1,,,66,0
48352,note_on,160,0,4,,,,,,,,,3,,,50,0
48382,note_on,46,0,5,,,,,,,,,4,,,74,0
48382,note_on,46,0,6,,,,,,,,,5,,,74,0
48382,note_on,94,0,8,,,,,,,,,7,,,50,0
48382,note_on,46,0,7,,,,,,,,,6,,,74,0
48384,note_on,2,0,8,,,,,,,,,7,,,49,92
48384,note_on,32,0,2,,,,,,,,,1,,,67,92
48384,note_on,48,0,3,,,,,,,,,2,,,64,92
48384,note_on,0,0,7,,,,,,,,,6,,,83,92
48384,note_on,2,0,7,,,,,,,,,6,,,79,92
48384,note_on,2,0,6,,,,,,,,,5,,,79,92
48384,note_on,0,0,6,,,,,,,,,5,,,83,92
48384,note_on,32,0,4,,,,,,,,,3,,,49,92
48384,note_on,2,0,5,,,,,,,,,4,,,79,92
48384,note_on,0,0,5,,,,,,,,,4,,,83,92
48430,note_on,46,0,6,,,,,,,,,5,,,79,0
48430,note_on,46,0,7,,,,,,,,,6,,,79,0
48430,note_on,46,0,5,,,,,,,,,4,,,79,0
48430,note_on,0,0,7,,,,,,,,,6,,,83,0
48430,note_on,0,0,6,,,,,,,,,5,,,83,0
48430,note_on,0,0,5,,,,,,,,,4,,,83,0
48432,note_on,2,0,5,,,,,,,,,4,,,76,92
48432,note_on,2,0,7,,,,,,,,,6,,,76,92
48432,note_on,2,0,6,,,,,,,,,5,,,76,92
48478,note_on,94,0,8,,,,,,,,,7,,,49,0
48478,note_on,46,0,6,,,,,,,,,5,,,76,0
48478,note_on,46,0,7,,,,,,,,,6,,,76,0
48478,note_on,46,0,5,,,,,,,,,4,,,76,0
48480,note_on,2,0,5,,,,,,,,,4,,,79,92
48480,note_on,2,0,7,,,,,,,,,6,,,79,92
48480,note_on,0,0,7,,,,,,,,,6,,,83,92
48480,note_on,2,0,8,,,,,,,,,7,,,61,92
48480,note_on,2,0,6,,,,,,,,,5,,,79,92
48480,note_on,0,0,6,,,,,,,,,5,,,83,92
48480,note_on,0,0,5,,,,,,,,,4,,,83,92
48526,note_on,0,0,6,,,,,,,,,5,,,83,0
48526,note_on,0,0,7,,,,,,,,,6,,,83,0
48526,note_on,46,0,7,,,,,,,,,6,,,79,0
48526,note_on,46,0,6,,,,,,,,,5,,,79,0
48526,note_on,0,0,5,,,,,,,,,4,,,83,0
48526,note_on,46,0,5,,,,,,,,,4,,,79,0
48528,note_on,2,0,6,,,,,,,,,5,,,76,92
48528,note_on,2,0,7,,,,,,,,,6,,,76,92
48528,note_on,2,0,5,,,,,,,,,4,,,76,92
48574,note_on,94,0,8,,,,,,,,,7,,,61,0
48574,note_on,46,0,5,,,,,,,,,4,,,76,0
48574,note_on,46,0,7,,,,,,,,,6,,,76,0
48574,note_on,46,0,6,,,,,,,,,5,,,76,0
48576,note_on,2,0,8,,,,,,,,,7,,,49,92
48576,note_on,0,0,5,,,,,,,,,4,,,83,92
48576,note_on,2,0,7,,,,,,,,,6,,,79,92
48576,note_on,0,0,7,,,,,,,,,6,,,83,92
48576,note_on,0,0,6,,,,,,,,,5,,,83,92
48576,note_on,2,0,5,,,,,,,,,4,,,79,92
48576,note_on,2,0,6,,,,,,,,,5,,,79,92
48622,note_on,0,0,5,,,,,,,,,4,,,83,0
48622,note_on,0,0,7,,,,,,,,,6,,,83,0
48622,note_on,46,0,7,,,,,,,,,6,,,79,0
48622,note_on,46,0,5,,,,,,,,,4,,,79,0
48622,note_on,46,0,6,,,,,,,,,5,,,79,0
48622,note_on,0,0,6,,,,,,,,,5,,,83,0
48624,note_on,2,0,5,,,,,,,,,4,,,76,92
48624,note_on,2,0,6,,,,,,,,,5,,,76,92
48624,note_on,2,0,7,,,,,,,,,6,,,76,92
48670,note_on,46,0,7,,,,,,,,,6,,,76,0
48670,note_on,46,0,6,,,,,,,,,5,,,76,0
48670,note_on,46,0,5,,,,,,,,,4,,,76,0
48670,note_on,94,0,8,,,,,,,,,7,,,49,0
48672,note_on,2,0,5,,,,,,,,,4,,,79,92
48672,note_on,0,0,5,,,,,,,,,4,,,83,92
48672,note_on,2,0,8,,,,,,,,,7,,,49,92
48672,note_on,0,0,6,,,,,,,,,5,,,83,92
48672,note_on,2,0,6,,,,,,,,,5,,,79,92
48672,note_on,2,0,7,,,,,,,,,6,,,79,92
48672,note_on,0,0,7,,,,,,,,,6,,,83,92
48718,note_on,46,0,7,,,,,,,,,6,,,79,0
48718,note_on,0,0,7,,,,,,,,,6,,,83,0
48718,note_on,0,0,5,,,,,,,,,4,,,83,0
48718,note_on,46,0,5,,,,,,,,,4,,,79,0
48718,note_on,0,0,6,,,,,,,,,5,,,83,0
48718,note_on,46,0,6,,,,,,,,,5,,,79,0
48720,note_on,2,0,7,,,,,,,,,6,,,76,92
48720,note_on,2,0,5,,,,,,,,,4,,,76,92
48720,note_on,2,0,6,,,,,,,,,5,,,76,92
48766,note_on,46,0,5,,,,,,,,,4,,,76,0
48766,note_on,94,0,8,,,,,,,,,7,,,49,0
48766,note_on,46,0,7,,,,,,,,,6,,,76,0
48766,note_on,46,0,6,,,,,,,,,5,,,76,0
48768,note_on,0,0,2,,,,,,,,,1,,,64,92
48768,note_on,0,0,7,,,,,,,,,6,,,81,92
48768,note_on,2,0,7,,,,,,,,,6,,,76,92
48768,note_on,2,0,8,,,,,,,,,7,,,49,92
48768,note_on,384,0,2,,,,,,,,,1,,,67,0
48768,note_on,0,0,1,,,,,,,,,0,,,69,92
48768,note_on,768,0,1,,,,,,,,,0,,,71,0
48768,note_on,2,0,5,,,,,,,,,4,,,76,92
48768,note_on,0,0,5,,,,,,,,,4,,,81,92
48768,note_on,0,0,6,,,,,,,,,5,,,81,92
48768,note_on,2,0,6,,,,,,,,,5,,,76,92
48814,note_on,46,0,7,,,,,,,,,6,,,76,0
48814,note_on,0,0,6,,,,,,,,,5,,,81,0
48814,note_on,0,0,7,,,,,,,,,6,,,81,0
48814,note_on,46,0,5,,,,,,,,,4,,,76,0
48814,note_on,46,0,6,,,,,,,,,5,,,76,0
48814,note_on,0,0,5,,,,,,,,,4,,,81,0
48816,note_on,2,0,5,,,,,,,,,4,,,73,92
48816,note_on,2,0,7,,,,,,,,,6,,,73,92
48816,note_on,2,0,6,,,,,,,,,5,,,73,92
48862,note_on,46,0,5,,,,,,,,,4,,,73,0
48862,note_on,46,0,7,,,,,,,,,6,,,73,0
48862,note_on,46,0,6,,,,,,,,,5,,,73,0
48862,note_on,94,0,8,,,,,,,,,7,,,49,0
48864,note_on,2,0,5,,,,,,,,,4,,,76,92
48864,note_on,2,0,8,,,,,,,,,7,,,61,92
48864,note_on,0,0,5,,,,,,,,,4,,,81,92
48864,note_on,2,0,7,,,,,,,,,6,,,76,92
48864,note_on,2,0,6,,,,,,,,,5,,,76,92
48864,note_on,0,0,6,,,,,,,,,5,,,81,92
48864,note_on,0,0,7,,,,,,,,,6,,,81,92
48910,note_on,46,0,5,,,,,,,,,4,,,76,0
48910,note_on,0,0,5,,,,,,,,,4,,,81,0
48910,note_on,0,0,6,,,,,,,,,5,,,81,0
48910,note_on,46,0,7,,,,,,,,,6,,,76,0
48910,note_on,0,0,7,,,,,,,,,6,,,81,0
48910,note_on,46,0,6,,,,,,,,,5,,,76,0
48912,note_on,2,0,7,,,,,,,,,6,,,73,92
48912,note_on,2,0,5,,,,,,,,,4,,,73,92
48912,note_on,2,0,6,,,,,,,,,5,,,73,92
48958,note_on,46,0,7,,,,,,,,,6,,,73,0
48958,note_on,94,0,8,,,,,,,,,7,,,61,0
48958,note_on,46,0,6,,,,,,,,,5,,,73,0
48958,note_on,46,0,5,,,,,,,,,4,,,73,0
48960,note_on,0,0,7,,,,,,,,,6,,,81,92
48960,note_on,2,0,7,,,,,,,,,6,,,76,92
48960,note_on,0,0,5,,,,,,,,,4,,,81,92
48960,note_on,2,0,5,,,,,,,,,4,,,76,92
48960,note_on,2,0,8,,,,,,,,,7,,,49,92
48960,note_on,2,0,6,,,,,,,,,5,,,76,92
48960,note_on,0,0,6,,,,,,,,,5,,,81,92
49006,note_on,0,0,7,,,,,,,,,6,,,81,0
49006,note_on,0,0,6,,,,,,,,,5,,,81,0
49006,note_on,46,0,6,,,,,,,,,5,,,76,0
49006,note_on,0,0,5,,,,,,,,,4,,,81,0
49006,note_on,46,0,5,,,,,,,,,4,,,76,0
49006,note_on,46,0,7,,,,,,,,,6,,,76,0
49008,note_on,2,0,6,,,,,,,,,5,,,73,92
49008,note_on,2,0,5,,,,,,,,,4,,,73,92
49008,note_on,2,0,7,,,,,,,,,6,,,73,92
49054,note_on,46,0,5,,,,,,,,,4,,,73,0
49054,note_on,94,0,8,,,,,,,,,7,,,49,0
49054,note_on,46,0,7,,,,,,,,,6,,,73,0
49054,note_on,46,0,6,,,,,,,,,5,,,73,0
49056,note_on,2,0,5,,,,,,,,,4,,,76,92
49056,note_on,0,0,5,,,,,,,,,4,,,81,92
49056,note_on,2,0,6,,,,,,,,,5,,,76,92
49056,note_on,0,0,6,,,,,,,,,5,,,81,92
49056,note_on,0,0,7,,,,,,,,,6,,,81,92
49056,note_on,2,0,7,,,,,,,,,6,,,76,92
49056,note_on,2,0,8,,,,,,,,,7,,,49,92
49102,note_on,0,0,5,,,,,,,,,4,,,81,0
49102,note_on,46,0,5,,,,,,,,,4,,,76,0
49102,note_on,46,0,7,,,,,,,,,6,,,76,0
49102,note_on,0,0,6,,,,,,,,,5,,,81,0
49102,note_on,0,0,7,,,,,,,,,6,,,81,0
49102,note_on,46,0,6,,,,,,,,,5,,,76,0
49104,note_on,2,0,6,,,,,,,,,5,,,73,92
49104,note_on,2,0,7,,,,,,,,,6,,,73,92
49104,note_on,2,0,5,,,,,,,,,4,,,73,92
49150,note_on,94,0,8,,,,,,,,,7,,,49,0
49150,note_on,46,0,5,,,,,,,,,4,,,73,0
49150,note_on,46,0,6,,,,,,,,,5,,,73,0
49150,note_on,46,0,7,,,,,,,,,6,,,73,0
49152,note_on,2,0,8,,,,,,,,,7,,,47,92
49152,note_on,0,0,5,,,,,,,,,4,,,81,92
49152,note_on,768,0,4,,,,,,,,,3,,,49,0
49152,note_on,0,0,3,,,,,,,,,2,,,62,92
49152,note_on,768,0,3,,,,,,,,,2,,,64,0
49152,note_on,0,0,2,,,,,,,,,1,,,66,92
49152,note_on,384,0,2,,,,,,,,,1,,,64,0
49152,note_on,2,0,6,,,,,,,,,5,,,78,92
49152,note_on,0,0,6,,,,,,,,,5,,,81,92
49152,note_on,2,0,5,,,,,,,,,4,,,78,92
49152,note_on,0,0,4,,,,,,,,,3,,,47,92
49152,note_on,0,0,7,,,,,,,,,6,,,81,92
49152,note_on,2,0,7,,,,,,,,,6,,,78,92
49198,note_on,46,0,7,,,,,,,,,6,,,78,0
49198,note_on,0,0,7,,,,,,,,,6,,,81,0
49198,note_on,46,0,6,,,,,,,,,5,,,78,0
49198,note_on,0,0,6,,,,,,,,,5,,,81,0
49198,note_on,46,0,5,,,,,,,,,4,,,78,0
49198,note_on,0,0,5,,,,,,,,,4,,,81,0
49200,note_on,2,0,7,,,,,,,,,6,,,74,92
49200,note_on,2,0,6,,,,,,,,,5,,,74,92
49200,note_on,2,0,5,,,,,,,,,4,,,74,92
49246,note_on,46,0,6,,,,,,,,,5,,,74,0
49246,note_on,46,0,5,,,,,,,,,4,,,74,0
49246,note_on,94,0,8,,,,,,,,,7,,,47,0
49246,note_on,46,0,7,,,,,,,,,6,,,74,0
49248,note_on,2,0,5,,,,,,,,,4,,,78,92
49248,note_on,0,0,5,,,,,,,,,4,,,81,92
49248,note_on,2,0,7,,,,,,,,,6,,,78,92
49248,note_on,0,0,7,,,,,,,,,6,,,81,92
49248,note_on,0,0,6,,,,,,,,,5,,,81,92
49248,note_on,2,0,8,,,,,,,,,7,,,59,92
49248,note_on,2,0,6,,,,,,,,,5,,,78,92
49294,note_on,0,0,6,,,,,,,,,5,,,81,0
49294,note_on,46,0,6,,,,,,,,,5,,,78,0
49294,note_on,0,0,7,,,,,,,,,6,,,81,0
49294,note_on,46,0,7,,,,,,,,,6,,,78,0
49294,note_on,0,0,5,,,,,,,,,4,,,81,0
49294,note_on,46,0,5,,,,,,,,,4,,,78,0
49296,note_on,2,0,5,,,,,,,,,4,,,74,92
49296,note_on,2,0,7,,,,,,,,,6,,,74,92
49296,note_on,2,0,6,,,,,,,,,5,,,74,92
49342,note_on,46,0,7,,,,,,,,,6,,,74,0
49342,note_on,94,0,8,,,,,,,,,7,,,59,0
49342,note_on,46,0,5,,,,,,,,,4,,,74,0
49342,note_on,46,0,6,,,,,,,,,5,,,74,0
49344,note_on,0,0,6,,,,,,,,,5,,,81,92
49344,note_on,2,0,8,,,,,,,,,7,,,47,92
49344,note_on,2,0,7,,,,,,,,,6,,,78,92
49344,note_on,0,0,5,,,,,,,,,4,,,81,92
49344,note_on,2,0,5,,,,,,,,,4,,,78,92
49344,note_on,0,0,7,,,,,,,,,6,,,81,92
49344,note_on,2,0,6,,,,,,,,,5,,,78,92
49390,note_on,46,0,6,,,,,,,,,5,,,78,0
49390,note_on,0,0,7,,,,,,,,,6,,,81,0
49390,note_on,46,0,7,,,,,,,,,6,,,78,0
49390,note_on,0,0,6,,,,,,,,,5,,,81,0
49390,note_on,0,0,5,,,,,,,,,4,,,81,0
49390,note_on,46,0,5,,,,,,,,,4,,,78,0
49392,note_on,2,0,5,,,,,,,,,4,,,74,92
49392,note_on,2,0,6,,,,,,,,,5,,,74,92
49392,note_on,2,0,7,,,,,,,,,6,,,74,92
49438,note_on,46,0,5,,,,,,,,,4,,,74,0
49438,note_on,46,0,6,,,,,,,,,5,,,74,0
49438,note_on,46,0,7,,,,,,,,,6,,,74,0
49438,note_on,94,0,8,,,,,,,,,7,,,47,0
49440,note_on,0,0,7,,,,,,,,,6,,,81,92
49440,note_on,2,0,6,,,,,,,,,5,,,78,92
49440,note_on,0,0,6,,,,,,,,,5,,,81,92
49440,note_on,0,0,5,,,,,,,,,4,,,81,92
49440,note_on,2,0,5,,,,,,,,,4,,,78,92
49440,note_on,2,0,8,,,,,,,,,7,,,47,92
49440,note_on,2,0,7,,,,,,,,,6,,,78,92
49486,note_on,46,0,5,,,,,,,,,4,,,78,0
49486,note_on,0,0,5,,,,,,,,,4,,,81,0
49486,note_on,0,0,7,,,,,,,,,6,,,81,0
49486,note_on,46,0,6,,,,,,,,,5,,,78,0
49486,note_on,0,0,6,,,,,,,,,5,,,81,0
49486,note_on,46,0,7,,,,,,,,,6,,,78,0
49488,note_on,2,0,7,,,,,,,,,6,,,74,92
49488,note_on,2,0,5,,,,,,,,,4,,,74,92
49488,note_on,2,0,6,,,,,,,,,5,,,74,92
49534,note_on,46,0,7,,,,,,,,,6,,,74,0
49534,note_on,46,0,6,,,,,,,,,5,,,74,0
49534,note_on,46,0,5,,,,,,,,,4,,,74,0
49534,note_on,94,0,8,,,,,,,,,7,,,47,0
49536,note_on,2,0,7,,,,,,,,,6,,,74,92
49536,note_on,0,0,7,,,,,,,,,6,,,79,92
49536,note_on,2,0,8,,,,,,,,,7,,,47,92
49536,note_on,2,0,5,,,,,,,,,4,,,74,92
49536,note_on,0,0,5,,,,,,,,,4,,,79,92
49536,note_on,384,0,2,,,,,,,,,1,,,66,0
49536,note_on,0,0,1,,,,,,,,,0,,,67,92
49536,note_on,2,0,6,,,,,,,,,5,,,74,92
49536,note_on,0,0,2,,,,,,,,,1,,,62,92
49536,note_on,768,0,1,,,,,,,,,0,,,69,0
49536,note_on,0,0,6,,,,,,,,,5,,,79,92
49582,note_on,46,0,7,,,,,,,,,6,,,74,0
49582,note_on,46,0,6,,,,,,,,,5,,,74,0
49582,note_on,0,0,5,,,,,,,,,4,,,79,0
49582,note_on,46,0,5,,,,,,,,,4,,,74,0
49582,note_on,0,0,7,,,,,,,,,6,,,79,0
49582,note_on,0,0,6,,,,,,,,,5,,,79,0
49584,note_on,2,0,7,,,,,,,,,6,,,71,92
49584,note_on,2,0,6,,,,,,,,,5,,,71,92
49584,note_on,2,0,5,,,,,,,,,4,,,71,92
49630,note_on,94,0,8,,,,,,,,,7,,,47,0
49630,note_on,46,0,6,,,,,,,,,5,,,71,0
49630,note_on,46,0,5,,,,,,,,,4,,,71,0
49630,note_on,46,0,7,,,,,,,,,6,,,71,0
49632,note_on,2,0,8,,,,,,,,,7,,,59,92
49632,note_on,2,0,6,,,,,,,,,5,,,74,92
49632,note_on,0,0,7,,,,,,,,,6,,,79,92
49632,note_on,2,0,7,,,,,,,,,6,,,74,92
49632,note_on,0,0,6,,,,,,,,,5,,,79,92
49632,note_on,0,0,5,,,,,,,,,4,,,79,92
49632,note_on,2,0,5,,,,,,,,,4,,,74,92
49678,note_on,46,0,7,,,,,,,,,6,,,74,0
49678,note_on,0,0,7,,,,,,,,,6,,,79,0
49678,note_on,46,0,5,,,,,,,,,4,,,74,0
49678,note_on,46,0,6,,,,,,,,,5,,,74,0
49678,note_on,0,0,6,,,,,,,,,5,,,79,0
49678,note_on,0,0,5,,,,,,,,,4,,,79,0
49680,note_on,2,0,6,,,,,,,,,5,,,71,92
49680,note_on,2,0,7,,,,,,,,,6,,,71,92
49680,note_on,2,0,5,,,,,,,,,4,,,71,92
49726,note_on,46,0,6,,,,,,,,,5,,,71,0
49726,note_on,46,0,7,,,,,,,,,6,,,71,0
49726,note_on,94,0,8,,,,,,,,,7,,,59,0
49726,note_on,46,0,5,,,,,,,,,4,,,71,0
49728,note_on,0,0,6,,,,,,,,,5,,,79,92
49728,note_on,2,0,6,,,,,,,,,5,,,74,92
49728,note_on,2,0,5,,,,,,,,,4,,,74,92
49728,note_on,2,0,8,,,,,,,,,7,,,47,92
49728,note_on,2,0,7,,,,,,,,,6,,,74,92
49728,note_on,0,0,5,,,,,,,,,4,,,79,92
49728,note_on,0,0,7,,,,,,,,,6,,,79,92
49774,note_on,46,0,6,,,,,,,,,5,,,74,0
49774,note_on,0,0,6,,,,,,,,,5,,,79,0
49774,note_on,0,0,7,,,,,,,,,6,,,79,0
49774,note_on,46,0,5,,,,,,,,,4,,,74,0
49774,note_on,46,0,7,,,,,,,,,6,,,74,0
49774,note_on,0,0,5,,,,,,,,,4,,,79,0
49776,note_on,2,0,7,,,,,,,,,6,,,71,92
49776,note_on,2,0,5,,,,,,,,,4,,,71,92
49776,note_on,2,0,6,,,,,,,,,5,,,71,92
49822,note_on,94,0,8,,,,,,,,,7,,,47,0
49822,note_on,46,0,7,,,,,,,,,6,,,71,0
49822,note_on,46,0,5,,,,,,,,,4,,,71,0
49822,note_on,46,0,6,,,,,,,,,5,,,71,0
49824,note_on,2,0,6,,,,,,,,,5,,,74,92
49824,note_on,0,0,7,,,,,,,,,6,,,79,92
49824,note_on,2,0,5,,,,,,,,,4,,,74,92
49824,note_on,0,0,5,,,,,,,,,4,,,79,92
49824,note_on,0,0,6,,,,,,,,,5,,,79,92
49824,note_on,2,0,7,,,,,,,,,6,,,74,92
49824,note_on,2,0,8,,,,,,,,,7,,,47,92
49870,note_on,46,0,5,,,,,,,,,4,,,74,0
49870,note_on,0,0,5,,,,,,,,,4,,,79,0
49870,note_on,46,0,6,,,,,,,,,5,,,74,0
49870,note_on,0,0,6,,,,,,,,,5,,,79,0
49870,note_on,0,0,7,,,,,,,,,6,,,79,0
49870,note_on,46,0,7,,,,,,,,,6,,,74,0
49872,note_on,2,0,7,,,,,,,,,6,,,71,92
49872,note_on,2,0,6,,,,,,,,,5,,,71,92
49872,note_on,2,0,5,,,,,,,,,4,,,71,92
49918,note_on,94,0,8,,,,,,,,,7,,,47,0
49918,note_on,46,0,6,,,,,,,,,5,,,71,0
49918,note_on,46,0,5,,,,,,,,,4,,,71,0
49918,note_on,46,0,7,,,,,,,,,6,,,71,0
49920,note_on,384,0,2,,,,,,,,,1,,,62,0
49920,note_on,0,0,2,,,,,,,,,1,,,64,92
49920,note_on,768,0,3,,,,,,,,,2,,,62,0
49920,note_on,0,0,3,,,,,,,,,2,,,61,92
49920,note_on,2,0,7,,,,,,,,,6,,,76,92
49920,note_on,0,0,7,,,,,,,,,6,,,79,92
49920,note_on,0,0,6,,,,,,,,,5,,,79,92
49920,note_on,0,0,4,,,,,,,,,3,,,45,92
49920,note_on,2,0,8,,,,,,,,,7,,,45,92
49920,note_on,2,0,5,,,,,,,,,4,,,76,92
49920,note_on,0,0,5,,,,,,,,,4,,,79,92
49920,note_on,2,0,6,,,,,,,,,5,,,76,92
49920,note_on,768,0,4,,,,,,,,,3,,,47,0
49966,note_on,0,0,6,,,,,,,,,5,,,79,0
49966,note_on,46,0,6,,,,,,,,,5,,,76,0
49966,note_on,0,0,7,,,,,,,,,6,,,79,0
49966,note_on,46,0,7,,,,,,,,,6,,,76,0
49966,note_on,46,0,5,,,,,,,,,4,,,76,0
49966,note_on,0,0,5,,,,,,,,,4,,,79,0
49968,note_on,2,0,7,,,,,,,,,6,,,73,92
49968,note_on,2,0,6,,,,,,,,,5,,,73,92
49968,note_on,2,0,5,,,,,,,,,4,,,73,92
50014,note_on,46,0,7,,,,,,,,,6,,,73,0
50014,note_on,94,0,8,,,,,,,,,7,,,45,0
50014,note_on,46,0,6,,,,,,,,,5,,,73,0
50014,note_on,46,0,5,,,,,,,,,4,,,73,0
50016,note_on,2,0,8,,,,,,,,,7,,,57,92
50016,note_on,0,0,5,,,,,,,,,4,,,79,92
50016,note_on,2,0,7,,,,,,,,,6,,,76,92
50016,note_on,0,0,7,,,,,,,,,6,,,79,92
50016,note_on,2,0,5,,,,,,,,,4,,,76,92
50016,note_on,2,0,6,,,,,,,,,5,,,76,92
50016,note_on,0,0,6,,,,,,,,,5,,,79,92
50062,note_on,46,0,6,,,,,,,,,5,,,76,0
50062,note_on,0,0,5,,,,,,,,,4,,,79,0
50062,note_on,46,0,5,,,,,,,,,4,,,76,0
50062,note_on,0,0,6,,,,,,,,,5,,,79,0
50062,note_on,0,0,7,,,,,,,,,6,,,79,0
50062,note_on,46,0,7,,,,,,,,,6,,,76,0
50064,note_on,2,0,6,,,,,,,,,5,,,73,92
50064,note_on,2,0,7,,,,,,,,,6,,,73,92
50064,note_on,2,0,5,,,,,,,,,4,,,73,92
50110,note_on,46,0,6,,,,,,,,,5,,,73,0
50110,note_on,46,0,7,,,,,,,,,6,,,73,0
50110,note_on,94,0,8,,,,,,,,,7,,,57,0
50110,note_on,46,0,5,,,,,,,,,4,,,73,0
50112,note_on,2,0,5,,,,,,,,,4,,,76,92
50112,note_on,2,0,7,,,,,,,,,6,,,76,92
50112,note_on,0,0,7,,,,,,,,,6,,,79,92
50112,note_on,0,0,5,,,,,,,,,4,,,79,92
50112,note_on,2,0,6,,,,,,,,,5,,,76,92
50112,note_on,0,0,6,,,,,,,,,5,,,79,92
50112,note_on,2,0,8,,,,,,,,,7,,,45,92
50158,note_on,0,0,5,,,,,,,,,4,,,79,0
50158,note_on,0,0,6,,,,,,,,,5,,,79,0
50158,note_on,46,0,6,,,,,,,,,5,,,76,0
50158,note_on,46,0,7,,,,,,,,,6,,,76,0
50158,note_on,46,0,5,,,,,,,,,4,,,76,0
50158,note_on,0,0,7,,,,,,,,,6,,,79,0
50160,note_on,2,0,6,,,,,,,,,5,,,73,92
50160,note_on,2,0,7,,,,,,,,,6,,,73,92
50160,note_on,2,0,5,,,,,,,,,4,,,73,92
50206,note_on,46,0,6,,,,,,,,,5,,,73,0
50206,note_on,46,0,7,,,,,,,,,6,,,73,0
50206,note_on,46,0,5,,,,,,,,,4,,,73,0
50206,note_on,94,0,8,,,,,,,,,7,,,45,0
50208,note_on,2,0,5,,,,,,,,,4,,,76,92
50208,note_on,0,0,6,,,,,,,,,5,,,79,92
50208,note_on,0,0,5,,,,,,,,,4,,,79,92
50208,note_on,2,0,7,,,,,,,,,6,,,76,92
50208,note_on,0,0,7,,,,,,,,,6,,,79,92
50208,note_on,2,0,8,,,,,,,,,7,,,45,92
50208,note_on,2,0,6,,,,,,,,,5,,,76,92
50254,note_on,46,0,7,,,,,,,,,6,,,76,0
50254,note_on,0,0,7,,,,,,,,,6,,,79,0
50254,note_on,46,0,6,,,,,,,,,5,,,76,0
50254,note_on,0,0,6,,,,,,,,,5,,,79,0
50254,note_on,0,0,5,,,,,,,,,4,,,79,0
50254,note_on,46,0,5,,,,,,,,,4,,,76,0
50256,note_on,2,0,6,,,,,,,,,5,,,73,92
50256,note_on,2,0,7,,,,,,,,,6,,,73,92
50256,note_on,2,0,5,,,,,,,,,4,,,73,92
50302,note_on,46,0,7,,,,,,,,,6,,,73,0
50302,note_on,46,0,5,,,,,,,,,4,,,73,0
50302,note_on,46,0,6,,,,,,,,,5,,,73,0
50302,note_on,94,0,8,,,,,,,,,7,,,45,0
50304,note_on,0,0,6,,,,,,,,,5,,,79,92
50304,note_on,2,0,8,,,,,,,,,7,,,45,92
50304,note_on,2,0,5,,,,,,,,,4,,,76,92
50304,note_on,2,0,6,,,,,,,,,5,,,76,92
50304,note_on,2,0,7,,,,,,,,,6,,,76,92
50304,note_on,0,0,7,,,,,,,,,6,,,79,92
50304,note_on,0,0,5,,,,,,,,,4,,,79,92
50350,note_on,46,0,5,,,,,,,,,4,,,76,0
50350,note_on,0,0,5,,,,,,,,,4,,,79,0
50350,note_on,46,0,6,,,,,,,,,5,,,76,0
50350,note_on,0,0,6,,,,,,,,,5,,,79,0
50350,note_on,46,0,7,,,,,,,,,6,,,76,0
50350,note_on,0,0,7,,,,,,,,,6,,,79,0
50352,note_on,2,0,6,,,,,,,,,5,,,73,92
50352,note_on,2,0,7,,,,,,,,,6,,,73,92
50352,note_on,2,0,5,,,,,,,,,4,,,73,92
50398,note_on,46,0,7,,,,,,,,,6,,,73,0
50398,note_on,46,0,6,,,,,,,,,5,,,73,0
50398,note_on,94,0,8,,,,,,,,,7,,,45,0
50398,note_on,46,0,5,,,,,,,,,4,,,73,0
50400,note_on,0,0,6,,,,,,,,,5,,,79,92
50400,note_on,2,0,6,,,,,,,,,5,,,76,92
50400,note_on,2,0,5,,,,,,,,,4,,,76,92
50400,note_on,0,0,7,,,,,,,,,6,,,79,92
50400,note_on,2,0,7,,,,,,,,,6,,,76,92
50400,note_on,0,0,5,,,,,,,,,4,,,79,92
50400,note_on,2,0,8,,,,,,,,,7,,,57,92
50446,note_on,46,0,6,,,,,,,,,5,,,76,0
50446,note_on,0,0,5,,,,,,,,,4,,,79,0
50446,note_on,0,0,6,,,,,,,,,5,,,79,0
50446,note_on,46,0,5,,,,,,,,,4,,,76,0
50446,note_on,46,0,7,,,,,,,,,6,,,76,0
50446,note_on,0,0,7,,,,,,,,,6,,,79,0
50448,note_on,2,0,5,,,,,,,,,4,,,73,92
50448,note_on,2,0,7,,,,,,,,,6,,,73,92
50448,note_on,2,0,6,,,,,,,,,5,,,73,92
50494,note_on,94,0,8,,,,,,,,,7,,,57,0
50494,note_on,46,0,5,,,,,,,,,4,,,73,0
50494,note_on,46,0,7,,,,,,,,,6,,,73,0
50494,note_on,46,0,6,,,,,,,,,5,,,73,0
50496,note_on,0,0,5,,,,,,,,,4,,,79,92
50496,note_on,2,0,5,,,,,,,,,4,,,76,92
50496,note_on,0,0,6,,,,,,,,,5,,,79,92
50496,note_on,2,0,6,,,,,,,,,5,,,76,92
50496,note_on,2,0,8,,,,,,,,,7,,,45,92
50496,note_on,0,0,7,,,,,,,,,6,,,79,92
50496,note_on,2,0,7,,,,,,,,,6,,,76,92
50542,note_on,46,0,6,,,,,,,,,5,,,76,0
50542,note_on,46,0,7,,,,,,,,,6,,,76,0
50542,note_on,0,0,6,,,,,,,,,5,,,79,0
50542,note_on,0,0,7,,,,,,,,,6,,,79,0
50542,note_on,46,0,5,,,,,,,,,4,,,76,0
50542,note_on,0,0,5,,,,,,,,,4,,,79,0
50544,note_on,2,0,6,,,,,,,,,5,,,73,92
50544,note_on,2,0,7,,,,,,,,,6,,,73,92
50544,note_on,2,0,5,,,,,,,,,4,,,73,92
50590,note_on,46,0,7,,,,,,,,,6,,,73,0
50590,note_on,46,0,6,,,,,,,,,5,,,73,0
50590,note_on,94,0,8,,,,,,,,,7,,,45,0
50590,note_on,46,0,5,,,,,,,,,4,,,73,0
50592,note_on,0,0,5,,,,,,,,,4,,,79,92
50592,note_on,2,0,7,,,,,,,,,6,,,76,92
50592,note_on,2,0,6,,,,,,,,,5,,,76,92
50592,note_on,2,0,8,,,,,,,,,7,,,45,92
50592,note_on,0,0,7,,,,,,,,,6,,,79,92
50592,note_on,2,0,5,,,,,,,,,4,,,76,92
50592,note_on,0,0,6,,,,,,,,,5,,,79,92
50638,note_on,46,0,6,,,,,,,,,5,,,76,0
50638,note_on,0,0,6,,,,,,,,,5,,,79,0
50638,note_on,0,0,5,,,,,,,,,4,,,79,0
50638,note_on,46,0,7,,,,,,,,,6,,,76,0
50638,note_on,0,0,7,,,,,,,,,6,,,79,0
50638,note_on,46,0,5,,,,,,,,,4,,,76,0
50640,note_on,2,0,5,,,,,,,,,4,,,73,92
50640,note_on,720,0,2,,,,,,,,,1,,,64,0
50640,note_on,720,0,4,,,,,,,,,3,,,45,0
50640,note_on,2,0,7,,,,,,,,,6,,,73,92
50640,note_on,1104,0,1,,,,,,,,,0,,,67,0
50640,note_on,720,0,3,,,,,,,,,2,,,61,0
50640,note_on,2,0,6,,,,,,,,,5,,,73,92
50686,note_on,94,0,8,,,,,,,,,7,,,45,0
50686,note_on,46,0,6,,,,,,,,,5,,,73,0
50686,note_on,46,0,5,,,,,,,,,4,,,73,0
50686,note_on,46,0,7,,,,,,,,,6,,,73,0
50688,note_on,48,0,3,,,,,,,,,2,,,61,92
50688,note_on,48,0,2,,,,,,,,,1,,,64,92
50688,note_on,0,0,6,,,,,,,,,5,,,76,92
50688,note_on,2,0,8,,,,,,,,,7,,,45,92
50688,note_on,48,0,4,,,,,,,,,3,,,45,92
50688,note_on,2,0,6,,,,,,,,,5,,,73,92
50688,note_on,0,0,5,,,,,,,,,4,,,76,92
50688,note_on,2,0,7,,,,,,,,,6,,,73,92
50688,note_on,2,0,5,,,,,,,,,4,,,73,92
50688,note_on,48,0,1,,,,,,,,,0,,,67,92
50688,note_on,0,0,7,,,,,,,,,6,,,76,92
50734,note_on,46,0,7,,,,,,,,,6,,,73,0
50734,note_on,0,0,5,,,,,,,,,4,,,76,0
50734,note_on,46,0,5,,,,,,,,,4,,,73,0
50734,note_on,46,0,6,,,,,,,,,5,,,73,0
50734,note_on,0,0,7,,,,,,,,,6,,,76,0
50734,note_on,0,0,6,,,,,,,,,5,,,76,0
50736,note_on,2,0,7,,,,,,,,,6,,,67,92
50736,note_on,2,0,6,,,,,,,,,5,,,67,92
50736,note_on,2,0,5,,,,,,,,,4,,,67,92
50782,note_on,46,0,6,,,,,,,,,5,,,67,0
50782,note_on,46,0,5,,,,,,,,,4,,,67,0
50782,note_on,94,0,8,,,,,,,,,7,,,45,0
50782,note_on,46,0,7,,,,,,,,,6,,,67,0
50784,note_on,2,0,6,,,,,,,,,5,,,73,92
50784,note_on,0,0,5,,,,,,,,,4,,,76,92
50784,note_on,2,0,5,,,,,,,,,4,,,73,92
50784,note_on,0,0,6,,,,,,,,,5,,,76,92
50784,note_on,0,0,7,,,,,,,,,6,,,76,92
50784,note_on,2,0,7,,,,,,,,,6,,,73,92
50784,note_on,2,0,8,,,,,,,,,7,,,57,92
50830,note_on,46,0,7,,,,,,,,,6,,,73,0
50830,note_on,46,0,5,,,,,,,,,4,,,73,0
50830,note_on,0,0,5,,,,,,,,,4,,,76,0
50830,note_on,46,0,6,,,,,,,,,5,,,73,0
50830,note_on,0,0,7,,,,,,,,,6,,,76,0
50830,note_on,0,0,6,,,,,,,,,5,,,76,0
50832,note_on,2,0,7,,,,,,,,,6,,,67,92
50832,note_on,2,0,6,,,,,,,,,5,,,67,92
50832,note_on,2,0,5,,,,,,,,,4,,,67,92
50878,note_on,46,0,7,,,,,,,,,6,,,67,0
50878,note_on,46,0,6,,,,,,,,,5,,,67,0
50878,note_on,94,0,8,,,,,,,,,7,,,57,0
50878,note_on,46,0,5,,,,,,,,,4,,,67,0
50880,note_on,0,0,7,,,,,,,,,6,,,76,92
50880,note_on,0,0,5,,,,,,,,,4,,,76,92
50880,note_on,2,0,7,,,,,,,,,6,,,73,92
50880,note_on,2,0,5,,,,,,,,,4,,,73,92
50880,note_on,0,0,6,,,,,,,,,5,,,76,92
50880,note_on,2,0,6,,,,,,,,,5,,,73,92
50880,note_on,2,0,8,,,,,,,,,7,,,45,92
50926,note_on,0,0,6,,,,,,,,,5,,,76,0
50926,note_on,46,0,6,,,,,,,,,5,,,73,0
50926,note_on,0,0,5,,,,,,,,,4,,,76,0
50926,note_on,0,0,7,,,,,,,,,6,,,76,0
50926,note_on,46,0,7,,,,,,,,,6,,,73,0
50926,note_on,46,0,5,,,,,,,,,4,,,73,0
50928,note_on,2,0,6,,,,,,,,,5,,,67,92
50928,note_on,2,0,5,,,,,,,,,4,,,67,92
50928,note_on,2,0,7,,,,,,,,,6,,,67,92
50974,note_on,46,0,5,,,,,,,,,4,,,67,0
50974,note_on,94,0,8,,,,,,,,,7,,,45,0
50974,note_on,46,0,7,,,,,,,,,6,,,67,0
50974,note_on,46,0,6,,,,,,,,,5,,,67,0
50976,note_on,0,0,5,,,,,,,,,4,,,76,92
50976,note_on,0,0,7,,,,,,,,,6,,,76,92
50976,note_on,2,0,5,,,,,,,,,4,,,73,92
50976,note_on,0,0,6,,,,,,,,,5,,,76,92
50976,note_on,2,0,6,,,,,,,,,5,,,73,92
50976,note_on,2,0,7,,,,,,,,,6,,,73,92
50976,note_on,2,0,8,,,,,,,,,7,,,45,92
51022,note_on,46,0,7,,,,,,,,,6,,,73,0
51022,note_on,0,0,6,,,,,,,,,5,,,76,0
51022,note_on,46,0,5,,,,,,,,,4,,,73,0
51022,note_on,0,0,5,,,,,,,,,4,,,76,0
51022,note_on,46,0,6,,,,,,,,,5,,,73,0
51022,note_on,0,0,7,,,,,,,,,6,,,76,0
51024,note_on,2,0,7,,,,,,,,,6,,,67,92
51024,note_on,2,0,5,,,,,,,,,4,,,67,92
51024,note_on,2,0,6,,,,,,,,,5,,,67,92
51070,note_on,46,0,5,,,,,,,,,4,,,67,0
51070,note_on,46,0,7,,,,,,,,,6,,,67,0
51070,note_on,46,0,6,,,,,,,,,5,,,67,0
51070,note_on,94,0,8,,,,,,,,,7,,,45,0
51072,note_on,2,0,6,,,,,,,,,5,,,67,92
51072,note_on,0,0,6,,,,,,,,,5,,,73,92
51072,note_on,2,0,5,,,,,,,,,4,,,67,92
51072,note_on,0,0,7,,,,,,,,,6,,,73,92
51072,note_on,2,0,7,,,,,,,,,6,,,67,92
51072,note_on,0,0,5,,,,,,,,,4,,,73,92
51072,note_on,2,0,8,,,,,,,,,7,,,45,92
51118,note_on,0,0,7,,,,,,,,,6,,,73,0
51118,note_on,46,0,6,,,,,,,,,5,,,67,0
51118,note_on,0,0,6,,,,,,,,,5,,,73,0
51118,note_on,46,0,7,,,,,,,,,6,,,67,0
51118,note_on,46,0,5,,,,,,,,,4,,,67,0
51118,note_on,0,0,5,,,,,,,,,4,,,73,0
51120,note_on,2,0,6,,,,,,,,,5,,,64,92
51120,note_on,2,0,7,,,,,,,,,6,,,64,92
51120,note_on,2,0,5,,,,,,,,,4,,,64,92
51166,note_on,46,0,6,,,,,,,,,5,,,64,0
51166,note_on,46,0,7,,,,,,,,,6,,,64,0
51166,note_on,46,0,5,,,,,,,,,4,,,64,0
51166,note_on,94,0,8,,,,,,,,,7,,,45,0
51168,note_on,2,0,7,,,,,,,,,6,,,67,92
51168,note_on,2,0,5,,,,,,,,,4,,,67,92
51168,note_on,0,0,5,,,,,,,,,4,,,73,92
51168,note_on,0,0,7,,,,,,,,,6,,,73,92
51168,note_on,0,0,6,,,,,,,,,5,,,73,92
51168,note_on,2,0,6,,,,,,,,,5,,,67,92
51168,note_on,2,0,8,,,,,,,,,7,,,57,92
51214,note_on,46,0,6,,,,,,,,,5,,,67,0
51214,note_on,46,0,5,,,,,,,,,4,,,67,0
51214,note_on,0,0,6,,,,,,,,,5,,,73,0
51214,note_on,46,0,7,,,,,,,,,6,,,67,0
51214,note_on,0,0,7,,,,,,,,,6,,,73,0
51214,note_on,0,0,5,,,,,,,,,4,,,73,0
51216,note_on,2,0,6,,,,,,,,,5,,,64,92
51216,note_on,2,0,7,,,,,,,,,6,,,64,92
51216,note_on,2,0,5,,,,,,,,,4,,,64,92
51262,note_on,46,0,5,,,,,,,,,4,,,64,0
51262,note_on,94,0,8,,,,,,,,,7,,,57,0
51262,note_on,46,0,7,,,,,,,,,6,,,64,0
51262,note_on,46,0,6,,,,,,,,,5,,,64,0
51264,note_on,2,0,7,,,,,,,,,6,,,67,92
51264,note_on,2,0,8,,,,,,,,,7,,,45,92
51264,note_on,2,0,5,,,,,,,,,4,,,67,92
51264,note_on,2,0,6,,,,,,,,,5,,,67,92
51264,note_on,0,0,6,,,,,,,,,5,,,73,92
51264,note_on,0,0,7,,,,,,,,,6,,,73,92
51264,note_on,0,0,5,,,,,,,,,4,,,73,92
51310,note_on,0,0,5,,,,,,,,,4,,,73,0
51310,note_on,0,0,7,,,,,,,,,6,,,73,0
51310,note_on,46,0,7,,,,,,,,,6,,,67,0
51310,note_on,46,0,6,,,,,,,,,5,,,67,0
51310,note_on,0,0,6,,,,,,,,,5,,,73,0
51310,note_on,46,0,5,,,,,,,,,4,,,67,0
51312,note_on,2,0,7,,,,,,,,,6,,,64,92
51312,note_on,2,0,5,,,,,,,,,4,,,64,92
51312,note_on,2,0,6,,,,,,,,,5,,,64,92
51358,note_on,46,0,5,,,,,,,,,4,,,64,0
51358,note_on,46,0,7,,,,,,,,,6,,,64,0
51358,note_on,94,0,8,,,,,,,,,7,,,45,0
51358,note_on,46,0,6,,,,,,,,,5,,,64,0
51360,note_on,0,0,5,,,,,,,,,4,,,73,92
51360,note_on,0,0,6,,,,,,,,,5,,,73,92
51360,note_on,2,0,5,,,,,,,,,4,,,67,92
51360,note_on,2,0,6,,,,,,,,,5,,,67,92
51360,note_on,2,0,8,,,,,,,,,7,,,45,92
51360,note_on,2,0,7,,,,,,,,,6,,,67,92
51360,note_on,0,0,7,,,,,,,,,6,,,73,92
51406,note_on,46,0,7,,,,,,,,,6,,,67,0
51406,note_on,46,0,5,,,,,,,,,4,,,67,0
51406,note_on,0,0,5,,,,,,,,,4,,,73,0
51406,note_on,46,0,6,,,,,,,,,5,,,67,0
51406,note_on,0,0,6,,,,,,,,,5,,,73,0
51406,note_on,0,0,7,,,,,,,,,6,,,73,0
51408,note_on,2,0,7,,,,,,,,,6,,,64,92
51408,note_on,2,0,6,,,,,,,,,5,,,64,92
51408,note_on,2,0,5,,,,,,,,,4,,,64,92
51454,note_on,46,0,5,,,,,,,,,4,,,64,0
51454,note_on,94,0,8,,,,,,,,,7,,,45,0
51454,note_on,46,0,6,,,,,,,,,5,,,64,0
51454,note_on,46,0,7,,,,,,,,,6,,,64,0
51456,note_on,2,0,8,,,,,,,,,7,,,45,92
51456,note_on,2,0,6,,,,,,,,,5,,,55,92
51456,note_on,0,0,6,,,,,,,,,5,,,61,92
51456,note_on,0,0,7,,,,,,,,,6,,,64,92
51456,note_on,0,0,5,,,,,,,,,4,,,61,92
51456,note_on,0,0,5,,,,,,,,,4,,,64,92
51456,note_on,2,0,7,,,,,,,,,6,,,55,92
51456,note_on,0,0,7,,,,,,,,,6,,,61,92
51456,note_on,0,0,6,,,,,,,,,5,,,64,92
51456,note_on,2,0,5,,,,,,,,,4,,,55,92
51616,note_on,928,0,4,,,,,,,,,3,,,45,0
51616,note_on,0,0,6,,,,,,,,,5,,,64,0
51616,note_on,160,0,7,,,,,,,,,6,,,55,0
51616,note_on,0,0,7,,,,,,,,,6,,,61,0
51616,note_on,0,0,7,,,,,,,,,6,,,64,0
51616,note_on,160,0,8,,,,,,,,,7,,,45,0
51616,note_on,928,0,2,,,,,,,,,1,,,64,0
51616,note_on,928,0,1,,,,,,,,,0,,,67,0
51616,note_on,0,0,6,,,,,,,,,5,,,61,0
51616,note_on,0,0,5,,,,,,,,,4,,,64,0
51616,note_on,0,0,5,,,,,,,,,4,,,61,0
51616,note_on,160,0,5,,,,,,,,,4,,,55,0
51616,note_on,928,0,3,,,,,,,,,2,,,61,0
51616,note_on,160,0,6,,,,,,,,,5,,,55,0
52224,note_on,0,0,6,,,,,,,,,5,,,81,127
52224,note_on,0,0,7,,,,,,,,,6,,,81,127
52224,note_on,0,0,6,,,,,,,,,5,,,78,127
52224,note_on,608,0,6,,,,,,,,,5,,,74,127
52224,note_on,0,0,7,,,,,,,,,6,,,78,127
52224,note_on,608,0,7,,,,,,,,,6,,,74,127
52224,note_on,608,0,4,,,,,,,,,3,,,50,127
52224,note_on,0,0,5,,,,,,,,,4,,,78,127
52224,note_on,0,0,5,,,,,,,,,4,,,81,127
52224,note_on,608,0,1,,,,,,,,,0,,,74,127
52224,note_on,608,0,2,,,,,,,,,1,,,66,127
52224,note_on,608,0,3,,,,,,,,,2,,,57,127
52224,note_on,608,0,8,,,,,,,,,7,,,50,127
52224,note_on,608,0,5,,,,,,,,,4,,,74,127
52270,note_on,0,0,7,,,,,,,,,6,,,81,0
52270,note_on,46,0,6,,,,,,,,,5,,,74,0
52270,note_on,0,0,6,,,,,,,,,5,,,81,0
52270,note_on,0,0,7,,,,,,,,,6,,,78,0
52270,note_on,0,0,6,,,,,,,,,5,,,78,0
52270,note_on,46,0,5,,,,,,,,,4,,,74,0
52270,note_on,0,0,5,,,,,,,,,4,,,78,0
52270,note_on,0,0,5,,,,,,,,,4,,,81,0
52270,note_on,46,0,7,,,,,,,,,6,,,74,0
52272,note_on,2,0,7,,,,,,,,,6,,,69,127
52272,note_on,2,0,6,,,,,,,,,5,,,69,127
52272,note_on,2,0,5,,,,,,,,,4,,,69,127
52318,note_on,46,0,6,,,,,,,,,5,,,69,0
52318,note_on,94,0,8,,,,,,,,,7,,,50,0
52318,note_on,46,0,5,,,,,,,,,4,,,69,0
52318,note_on,46,0,7,,,,,,,,,6,,,69,0
52320,note_on,0,0,7,,,,,,,,,6,,,78,127
52320,note_on,2,0,8,,,,,,,,,7,,,62,127
52320,note_on,0,0,6,,,,,,,,,5,,,81,127
52320,note_on,0,0,7,,,,,,,,,6,,,81,127
52320,note_on,2,0,5,,,,,,,,,4,,,74,127
52320,note_on,0,0,5,,,,,,,,,4,,,78,127
52320,note_on,0,0,5,,,,,,,,,4,,,81,127
52320,note_on,2,0,6,,,,,,,,,5,,,74,127
52320,note_on,0,0,6,,,,,,,,,5,,,78,127
52320,note_on,2,0,7,,,,,,,,,6,,,74,127
52366,note_on,142,0,2,,,,,,,,,1,,,66,0
52366,note_on,0,0,7,,,,,,,,,6,,,78,0
52366,note_on,46,0,7,,,,,,,,,6,,,74,0
52366,note_on,0,0,7,,,,,,,,,6,,,81,0
52366,note_on,46,0,5,,,,,,,,,4,,,74,0
52366,note_on,142,0,1,,,,,,,,,0,,,74,0
52366,note_on,0,0,5,,,,,,,,,4,,,78,0
52366,note_on,0,0,5,,,,,,,,,4,,,81,0
52366,note_on,46,0,6,,,,,,,,,5,,,74,0
52366,note_on,0,0,6,,,,,,,,,5,,,78,0
52366,note_on,0,0,6,,,,,,,,,5,,,81,0
52366,note_on,142,0,3,,,,,,,,,2,,,57,0
52366,note_on,142,0,4,,,,,,,,,3,,,50,0
52368,note_on,2,0,7,,,,,,,,,6,,,69,127
52368,note_on,2,0,6,,,,,,,,,5,,,69,127
52368,note_on,2,0,4,,,,,,,,,3,,,50,127
52368,note_on,2,0,1,,,,,,,,,0,,,74,127
52368,note_on,2,0,2,,,,,,,,,1,,,66,127
52368,note_on,2,0,3,,,,,,,,,2,,,57,127
52368,note_on,2,0,5,,,,,,,,,4,,,69,127
52414,note_on,46,0,4,,,,,,,,,3,,,50,0
52414,note_on,46,0,7,,,,,,,,,6,,,69,0
52414,note_on,46,0,2,,,,,,,,,1,,,66,0
52414,note_on,46,0,1,,,,,,,,,0,,,74,0
52414,note_on,94,0,8,,,,,,,,,7,,,62,0
52414,note_on,46,0,5,,,,,,,,,4,,,69,0
52414,note_on,46,0,6,,,,,,,,,5,,,69,0
52414,note_on,46,0,3,,,,,,,,,2,,,57,0
52416,note_on,0,0,5,,,,,,,,,4,,,78,127
52416,note_on,0,0,5,,,,,,,,,4,,,81,127
52416,note_on,2,0,7,,,,,,,,,6,,,74,127
52416,note_on,0,0,7,,,,,,,,,6,,,78,127
52416,note_on,2,0,3,,,,,,,,,2,,,57,127
52416,note_on,2,0,5,,,,,,,,,4,,,74,127
52416,note_on,0,0,7,,,,,,,,,6,,,81,127
52416,note_on,2,0,8,,,,,,,,,7,,,50,127
52416,note_on,2,0,1,,,,,,,,,0,,,74,127
52416,note_on,2,0,6,,,,,,,,,5,,,74,127
52416,note_on,0,0,6,,,,,,,,,5,,,81,127
52416,note_on,2,0,2,,,,,,,,,1,,,66,127
52416,note_on,0,0,6,,,,,,,,,5,,,78,127
52416,note_on,2,0,4,,,,,,,,,3,,,50,127
52462,note_on,46,0,5,,,,,,,,,4,,,74,0
52462,note_on,0,0,5,,,,,,,,,4,,,78,0
52462,note_on,0,0,5,,,,,,,,,4,,,81,0
52462,note_on,46,0,6,,,,,,,,,5,,,74,0
52462,note_on,0,0,6,,,,,,,,,5,,,78,0
52462,note_on,46,0,7,,,,,,,,,6,,,74,0
52462,note_on,0,0,7,,,,,,,,,6,,,78,0
52462,note_on,0,0,7,,,,,,,,,6,,,81,0
52462,note_on,0,0,6,,,,,,,,,5,,,81,0
52464,note_on,2,0,6,,,,,,,,,5,,,69,127
52464,note_on,2,0,5,,,,,,,,,4,,,69,127
52464,note_on,2,0,7,,,,,,,,,6,,,69,127
52510,note_on,94,0,8,,,,,,,,,7,,,50,0
52510,note_on,46,0,5,,,,,,,,,4,,,69,0
52510,note_on,46,0,6,,,,,,,,,5,,,69,0
52510,note_on,46,0,7,,,,,,,,,6,,,69,0
52512,note_on,0,0,7,,,,,,,,,6,,,78,127
52512,note_on,2,0,7,,,,,,,,,6,,,74,127
52512,note_on,0,0,7,,,,,,,,,6,,,81,127
52512,note_on,2,0,8,,,,,,,,,7,,,50,127
52512,note_on,0,0,5,,,,,,,,,4,,,78,127
52512,note_on,0,0,5,,,,,,,,,4,,,81,127
52512,note_on,2,0,6,,,,,,,,,5,,,74,127
52512,note_on,0,0,6,,,,,,,,,5,,,78,127
52512,note_on,0,0,6,,,,,,,,,5,,,81,127
52512,note_on,2,0,5,,,,,,,,,4,,,74,127
52558,note_on,0,0,7,,,,,,,,,6,,,81,0
52558,note_on,0,0,7,,,,,,,,,6,,,78,0
52558,note_on,46,0,7,,,,,,,,,6,,,74,0
52558,note_on,46,0,6,,,,,,,,,5,,,74,0
52558,note_on,0,0,6,,,,,,,,,5,,,78,0
52558,note_on,0,0,5,,,,,,,,,4,,,81,0
52558,note_on,0,0,5,,,,,,,,,4,,,78,0
52558,note_on,46,0,5,,,,,,,,,4,,,74,0
52558,note_on,0,0,6,,,,,,,,,5,,,81,0
52560,note_on,2,0,6,,,,,,,,,5,,,69,127
52560,note_on,2,0,5,,,,,,,,,4,,,69,127
52560,note_on,2,0,7,,,,,,,,,6,,,69,127
52576,note_on,160,0,3,,,,,,,,,2,,,57,0
52576,note_on,160,0,1,,,,,,,,,0,,,74,0
52576,note_on,160,0,4,,,,,,,,,3,,,50,0
52576,note_on,160,0,2,,,,,,,,,1,,,66,0
52606,note_on,46,0,7,,,,,,,,,6,,,69,0
52606,note_on,46,0,6,,,,,,,,,5,,,69,0
52606,note_on,94,0,8,,,,,,,,,7,,,50,0
52606,note_on,46,0,5,,,,,,,,,4,,,69,0
52608,note_on,2,0,8,,,,,,,,,7,,,45,127
52608,note_on,32,0,4,,,,,,,,,3,,,57,127
52608,note_on,0,0,6,,,,,,,,,5,,,81,127
52608,note_on,2,0,6,,,,,,,,,5,,,74,127
52608,note_on,2,0,7,,,,,,,,,6,,,74,127
52608,note_on,32,0,3,,,,,,,,,2,,,57,127
52608,note_on,2,0,5,,,,,,,,,4,,,74,127
52608,note_on,0,0,5,,,,,,,,,4,,,76,127
52608,note_on,0,0,5,,,,,,,,,4,,,81,127
52608,note_on,32,0,2,,,,,,,,,1,,,64,127
52608,note_on,0,0,7,,,,,,,,,6,,,76,127
52608,note_on,0,0,6,,,,,,,,,5,,,76,127
52608,note_on,32,0,1,,,,,,,,,0,,,74,127
52608,note_on,0,0,7,,,,,,,,,6,,,81,127
52654,note_on,0,0,7,,,,,,,,,6,,,81,0
52654,note_on,46,0,6,,,,,,,,,5,,,74,0
52654,note_on,0,0,6,,,,,,,,,5,,,76,0
52654,note_on,0,0,6,,,,,,,,,5,,,81,0
52654,note_on,0,0,7,,,,,,,,,6,,,76,0
52654,note_on,46,0,7,,,,,,,,,6,,,74,0
52654,note_on,0,0,5,,,,,,,,,4,,,76,0
52654,note_on,0,0,5,,,,,,,,,4,,,81,0
52654,note_on,46,0,5,,,,,,,,,4,,,74,0
52656,note_on,2,0,6,,,,,,,,,5,,,69,127
52656,note_on,2,0,5,,,,,,,,,4,,,69,127
52656,note_on,2,0,7,,,,,,,,,6,,,69,127
52702,note_on,46,0,7,,,,,,,,,6,,,69,0
52702,note_on,46,0,5,,,,,,,,,4,,,69,0
52702,note_on,94,0,3,,,,,,,,,2,,,57,0
52702,note_on,94,0,1,,,,,,,,,0,,,74,0
52702,note_on,94,0,2,,,,,,,,,1,,,64,0
52702,note_on,94,0,8,,,,,,,,,7,,,45,0
52702,note_on,46,0,6,,,,,,,,,5,,,69,0
52702,note_on,94,0,4,,,,,,,,,3,,,57,0
52704,note_on,2,0,6,,,,,,,,,5,,,74,127
52704,note_on,2,0,8,,,,,,,,,7,,,57,127
52704,note_on,0,0,5,,,,,,,,,4,,,81,127
52704,note_on,0,0,5,,,,,,,,,4,,,76,127
52704,note_on,2,0,5,,,,,,,,,4,,,74,127
52704,note_on,2,0,1,,,,,,,,,0,,,74,127
52704,note_on,0,0,6,,,,,,,,,5,,,76,127
52704,note_on,0,0,6,,,,,,,,,5,,,81,127
52704,note_on,2,0,7,,,,,,,,,6,,,74,127
52704,note_on,2,0,4,,,,,,,,,3,,,57,127
52704,note_on,2,0,2,,,,,,,,,1,,,64,127
52704,note_on,2,0,3,,,,,,,,,2,,,57,127
52704,note_on,0,0,7,,,,,,,,,6,,,76,127
52704,note_on,0,0,7,,,,,,,,,6,,,81,127
52750,note_on,0,0,6,,,,,,,,,5,,,76,0
52750,note_on,46,0,7,,,,,,,,,6,,,74,0
52750,note_on,0,0,7,,,,,,,,,6,,,76,0
52750,note_on,46,0,6,,,,,,,,,5,,,74,0
52750,note_on,0,0,6,,,,,,,,,5,,,81,0
52750,note_on,0,0,7,,,,,,,,,6,,,81,0
52750,note_on,46,0,5,,,,,,,,,4,,,74,0
52750,note_on,0,0,5,,,,,,,,,4,,,76,0
52750,note_on,0,0,5,,,,,,,,,4,,,81,0
52752,note_on,2,0,5,,,,,,,,,4,,,69,127
52752,note_on,2,0,6,,,,,,,,,5,,,69,127
52752,note_on,2,0,7,,,,,,,,,6,,,69,127
52798,note_on,94,0,4,,,,,,,,,3,,,57,0
52798,note_on,94,0,2,,,,,,,,,1,,,64,0
52798,note_on,94,0,1,,,,,,,,,0,,,74,0
52798,note_on,46,0,7,,,,,,,,,6,,,69,0
52798,note_on,46,0,5,,,,,,,,,4,,,69,0
52798,note_on,94,0,3,,,,,,,,,2,,,57,0
52798,note_on,94,0,8,,,,,,,,,7,,,57,0
52798,note_on,46,0,6,,,,,,,,,5,,,69,0
52800,note_on,0,0,5,,,,,,,,,4,,,76,127
52800,note_on,2,0,7,,,,,,,,,6,,,74,127
52800,note_on,0,0,7,,,,,,,,,6,,,76,127
52800,note_on,2,0,8,,,,,,,,,7,,,45,127
52800,note_on,0,0,7,,,,,,,,,6,,,81,127
52800,note_on,2,0,1,,,,,,,,,0,,,74,127
52800,note_on,2,0,4,,,,,,,,,3,,,57,127
52800,note_on,0,0,5,,,,,,,,,4,,,81,127
52800,note_on,0,0,6,,,,,,,,,5,,,76,127
52800,note_on,0,0,6,,,,,,,,,5,,,81,127
52800,note_on,2,0,2,,,,,,,,,1,,,64,127
52800,note_on,2,0,3,,,,,,,,,2,,,57,127
52800,note_on,2,0,5,,,,,,,,,4,,,74,127
52800,note_on,2,0,6,,,,,,,,,5,,,74,127
52846,note_on,46,0,6,,,,,,,,,5,,,74,0
52846,note_on,0,0,6,,,,,,,,,5,,,76,0
52846,note_on,0,0,6,,,,,,,,,5,,,81,0
52846,note_on,0,0,5,,,,,,,,,4,,,81,0
52846,note_on,46,0,7,,,,,,,,,6,,,74,0
52846,note_on,0,0,7,,,,,,,,,6,,,76,0
52846,note_on,46,0,5,,,,,,,,,4,,,74,0
52846,note_on,0,0,7,,,,,,,,,6,,,81,0
52846,note_on,0,0,5,,,,,,,,,4,,,76,0
52848,note_on,2,0,6,,,,,,,,,5,,,69,127
52848,note_on,2,0,7,,,,,,,,,6,,,69,127
52848,note_on,2,0,5,,,,,,,,,4,,,69,127
52894,note_on,94,0,1,,,,,,,,,0,,,74,0
52894,note_on,94,0,3,,,,,,,,,2,,,57,0
52894,note_on,46,0,5,,,,,,,,,4,,,69,0
52894,note_on,46,0,7,,,,,,,,,6,,,69,0
52894,note_on,94,0,2,,,,,,,,,1,,,64,0
52894,note_on,46,0,6,,,,,,,,,5,,,69,0
52894,note_on,94,0,4,,,,,,,,,3,,,57,0
52894,note_on,94,0,8,,,,,,,,,7,,,45,0
52896,note_on,2,0,5,,,,,,,,,4,,,74,127
52896,note_on,0,0,5,,,,,,,,,4,,,76,127
52896,note_on,0,0,5,,,,,,,,,4,,,81,127
52896,note_on,0,0,6,,,,,,,,,5,,,81,127
52896,note_on,0,0,7,,,,,,,,,6,,,81,127
52896,note_on,0,0,7,,,,,,,,,6,,,76,127
52896,note_on,2,0,1,,,,,,,,,0,,,74,127
52896,note_on,2,0,3,,,,,,,,,2,,,57,127
52896,note_on,2,0,2,,,,,,,,,1,,,64,127
52896,note_on,2,0,4,,,,,,,,,3,,,57,127
52896,note_on,2,0,8,,,,,,,,,7,,,45,127
52896,note_on,2,0,6,,,,,,,,,5,,,74,127
52896,note_on,0,0,6,,,,,,,,,5,,,76,127
52896,note_on,2,0,7,,,,,,,,,6,,,74,127
52942,note_on,46,0,7,,,,,,,,,6,,,74,0
52942,note_on,0,0,7,,,,,,,,,6,,,76,0
52942,note_on,0,0,7,,,,,,,,,6,,,81,0
52942,note_on,0,0,6,,,,,,,,,5,,,81,0
52942,note_on,0,0,6,,,,,,,,,5,,,76,0
52942,note_on,46,0,6,,,,,,,,,5,,,74,0
52942,note_on,46,0,5,,,,,,,,,4,,,74,0
52942,note_on,0,0,5,,,,,,,,,4,,,76,0
52942,note_on,0,0,5,,,,,,,,,4,,,81,0
52944,note_on,2,0,7,,,,,,,,,6,,,69,127
52944,note_on,2,0,5,,,,,,,,,4,,,69,127
52944,note_on,2,0,6,,,,,,,,,5,,,69,127
52990,note_on,94,0,8,,,,,,,,,7,,,45,0
52990,note_on,94,0,4,,,,,,,,,3,,,57,0
52990,note_on,94,0,2,,,,,,,,,1,,,64,0
52990,note_on,46,0,7,,,,,,,,,6,,,69,0
52990,note_on,46,0,6,,,,,,,,,5,,,69,0
52990,note_on,94,0,3,,,,,,,,,2,,,57,0
52990,note_on,46,0,5,,,,,,,,,4,,,69,0
52990,note_on,94,0,1,,,,,,,,,0,,,74,0
52992,note_on,2,0,3,,,,,,,,,2,,,57,127
52992,note_on,2,0,2,,,,,,,,,1,,,64,127
52992,note_on,0,0,6,,,,,,,,,5,,,81,127
52992,note_on,2,0,4,,,,,,,,,3,,,45,127
52992,note_on,0,0,6,,,,,,,,,5,,,76,127
52992,note_on,2,0,8,,,,,,,,,7,,,45,127
52992,note_on,2,0,6,,,,,,,,,5,,,73,127
52992,note_on,2,0,7,,,,,,,,,6,,,73,127
52992,note_on,0,0,7,,,,,,,,,6,,,81,127
52992,note_on,0,0,7,,,,,,,,,6,,,76,127
52992,note_on,2,0,1,,,,,,,,,0,,,73,127
52992,note_on,2,0,5,,,,,,,,,4,,,73,127
52992,note_on,0,0,5,,,,,,,,,4,,,76,127
52992,note_on,0,0,5,,,,,,,,,4,,,81,127
53038,note_on,0,0,5,,,,,,,,,4,,,81,0
53038,note_on,0,0,5,,,,,,,,,4,,,76,0
53038,note_on,0,0,7,,,,,,,,,6,,,81,0
53038,note_on,0,0,7,,,,,,,,,6,,,76,0
53038,note_on,46,0,7,,,,,,,,,6,,,73,0
53038,note_on,46,0,5,,,,,,,,,4,,,73,0
53038,note_on,46,0,6,,,,,,,,,5,,,73,0
53038,note_on,0,0,6,,,,,,,,,5,,,81,0
53038,note_on,0,0,6,,,,,,,,,5,,,76,0
53040,note_on,2,0,5,,,,,,,,,4,,,69,127
53040,note_on,2,0,6,,,,,,,,,5,,,69,127
53040,note_on,2,0,7,,,,,,,,,6,,,69,127
53086,note_on,94,0,8,,,,,,,,,7,,,45,0
53086,note_on,46,0,5,,,,,,,,,4,,,69,0
53086,note_on,46,0,6,,,,,,,,,5,,,69,0
53086,note_on,46,0,7,,,,,,,,,6,,,69,0
53088,note_on,0,0,6,,,,,,,,,5,,,76,127
53088,note_on,2,0,8,,,,,,,,,7,,,57,127
53088,note_on,0,0,7,,,,,,,,,6,,,81,127
53088,note_on,0,0,7,,,,,,,,,6,,,76,127
53088,note_on,2,0,6,,,,,,,,,5,,,73,127
53088,note_on,2,0,7,,,,,,,,,6,,,73,127
53088,note_on,2,0,5,,,,,,,,,4,,,73,127
53088,note_on,0,0,5,,,,,,,,,4,,,81,127
53088,note_on,0,0,6,,,,,,,,,5,,,81,127
53088,note_on,0,0,5,,,,,,,,,4,,,76,127
53134,note_on,0,0,5,,,,,,,,,4,,,76,0
53134,note_on,0,0,7,,,,,,,,,6,,,81,0
53134,note_on,0,0,7,,,,,,,,,6,,,76,0
53134,note_on,0,0,5,,,,,,,,,4,,,81,0
53134,note_on,0,0,6,,,,,,,,,5,,,76,0
53134,note_on,46,0,7,,,,,,,,,6,,,73,0
53134,note_on,46,0,5,,,,,,,,,4,,,73,0
53134,note_on,46,0,6,,,,,,,,,5,,,73,0
53134,note_on,0,0,6,,,,,,,,,5,,,81,0
53136,note_on,2,0,6,,,,,,,,,5,,,69,127
53136,note_on,2,0,7,,,,,,,,,6,,,69,127
53136,note_on,2,0,5,,,,,,,,,4,,,69,127
53182,note_on,46,0,6,,,,,,,,,5,,,69,0
53182,note_on,46,0,7,,,,,,,,,6,,,69,0
53182,note_on,94,0,8,,,,,,,,,7,,,57,0
53182,note_on,46,0,5,,,,,,,,,4,,,69,0
53184,note_on,0,0,7,,,,,,,,,6,,,81,127
53184,note_on,0,0,6,,,,,,,,,5,,,81,127
53184,note_on,2,0,7,,,,,,,,,6,,,73,127
53184,note_on,2,0,5,,,,,,,,,4,,,73,127
53184,note_on,0,0,5,,,,,,,,,4,,,81,127
53184,note_on,2,0,6,,,,,,,,,5,,,73,127
53184,note_on,0,0,6,,,,,,,,,5,,,76,127
53184,note_on,2,0,8,,,,,,,,,7,,,45,127
53184,note_on,0,0,7,,,,,,,,,6,,,76,127
53184,note_on,0,0,5,,,,,,,,,4,,,76,127
53230,note_on,0,0,5,,,,,,,,,4,,,76,0
53230,note_on,0,0,7,,,,,,,,,6,,,76,0
53230,note_on,0,0,7,,,,,,,,,6,,,81,0
53230,note_on,46,0,7,,,,,,,,,6,,,73,0
53230,note_on,0,0,5,,,,,,,,,4,,,81,0
53230,note_on,46,0,5,,,,,,,,,4,,,73,0
53230,note_on,46,0,6,,,,,,,,,5,,,73,0
53230,note_on,0,0,6,,,,,,,,,5,,,76,0
53230,note_on,0,0,6,,,,,,,,,5,,,81,0
53232,note_on,2,0,7,,,,,,,,,6,,,69,127
53232,note_on,2,0,5,,,,,,,,,4,,,69,127
53232,note_on,2,0,6,,,,,,,,,5,,,69,127
53278,note_on,94,0,8,,,,,,,,,7,,,45,0
53278,note_on,46,0,5,,,,,,,,,4,,,69,0
53278,note_on,46,0,6,,,,,,,,,5,,,69,0
53278,note_on,46,0,7,,,,,,,,,6,,,69,0
53280,note_on,0,0,7,,,,,,,,,6,,,81,127
53280,note_on,2,0,5,,,,,,,,,4,,,73,127
53280,note_on,0,0,7,,,,,,,,,6,,,76,127
53280,note_on,0,0,5,,,,,,,,,4,,,76,127
53280,note_on,2,0,6,,,,,,,,,5,,,73,127
53280,note_on,0,0,6,,,,,,,,,5,,,76,127
53280,note_on,0,0,6,,,,,,,,,5,,,81,127
53280,note_on,0,0,5,,,,,,,,,4,,,81,127
53280,note_on,2,0,8,,,,,,,,,7,,,45,127
53280,note_on,2,0,7,,,,,,,,,6,,,73,127
53326,note_on,0,0,7,,,,,,,,,6,,,76,0
53326,note_on,46,0,7,,,,,,,,,6,,,73,0
53326,note_on,0,0,6,,,,,,,,,5,,,76,0
53326,note_on,0,0,6,,,,,,,,,5,,,81,0
53326,note_on,0,0,5,,,,,,,,,4,,,76,0
53326,note_on,46,0,5,,,,,,,,,4,,,73,0
53326,note_on,0,0,7,,,,,,,,,6,,,81,0
53326,note_on,46,0,6,,,,,,,,,5,,,73,0
53326,note_on,0,0,5,,,,,,,,,4,,,81,0
53328,note_on,2,0,5,,,,,,,,,4,,,69,127
53328,note_on,336,0,4,,,,,,,,,3,,,45,0
53328,note_on,336,0,1,,,,,,,,,0,,,73,0
53328,note_on,2,0,7,,,,,,,,,6,,,69,127
53328,note_on,2,0,6,,,,,,,,,5,,,69,127
53328,note_on,336,0,2,,,,,,,,,1,,,64,0
53328,note_on,336,0,3,,,,,,,,,2,,,57,0
53374,note_on,46,0,5,,,,,,,,,4,,,69,0
53374,note_on,94,0,8,,,,,,,,,7,,,45,0
53374,note_on,46,0,7,,,,,,,,,6,,,69,0
53374,note_on,46,0,6,,,,,,,,,5,,,69,0
53376,note_on,2,0,8,,,,,,,,,7,,,50,127
53376,note_on,0,0,7,,,,,,,,,6,,,81,127
53376,note_on,0,0,7,,,,,,,,,6,,,78,127
53376,note_on,0,0,7,,,,,,,,,6,,,74,127
53376,note_on,2,0,7,,,,,,,,,6,,,69,127
53376,note_on,48,0,1,,,,,,,,,0,,,74,127
53376,note_on,48,0,2,,,,,,,,,1,,,66,127
53376,note_on,48,0,4,,,,,,,,,3,,,50,127
53376,note_on,48,0,3,,,,,,,,,2,,,57,127
53376,note_on,0,0,5,,,,,,,,,4,,,81,127
53376,note_on,0,0,5,,,,,,,,,4,,,78,127
53376,note_on,0,0,5,,,,,,,,,4,,,74,127
53376,note_on,2,0,5,,,,,,,,,4,,,69,127
53376,note_on,2,0,6,,,,,,,,,5,,,69,127
53376,note_on,0,0,6,,,,,,,,,5,,,74,127
53376,note_on,0,0,6,,,,,,,,,5,,,78,127
53376,note_on,0,0,6,,,,,,,,,5,,,81,127
53536,note_on,0,0,6,,,,,,,,,5,,,81,0
53536,note_on,0,0,6,,,,,,,,,5,,,78,0
53536,note_on,0,0,6,,,,,,,,,5,,,74,0
53536,note_on,160,0,6,,,,,,,,,5,,,69,0
53536,note_on,0,0,7,,,,,,,,,6,,,81,0
53536,note_on,0,0,7,,,,,,,,,6,,,78,0
53536,note_on,160,0,7,,,,,,,,,6,,,69,0
53536,note_on,160,0,8,,,,,,,,,7,,,50,0
53536,note_on,0,0,5,,,,,,,,,4,,,81,0
53536,note_on,0,0,5,,,,,,,,,4,,,78,0
53536,note_on,160,0,5,,,,,,,,,4,,,69,0
53536,note_on,0,0,5,,,,,,,,,4,,,74,0
53536,note_on,0,0,7,,,,,,,,,6,,,74,0
53568,note_on,32,0,7,,,,,,,,,6,,,74,127
53568,note_on,32,0,6,,,,,,,,,5,,,74,127
53568,note_on,0,0,7,,,,,,,,,6,,,78,127
53568,note_on,32,0,5,,,,,,,,,4,,,74,127
53568,note_on,0,0,5,,,,,,,,,4,,,78,127
53568,note_on,0,0,6,,,,,,,,,5,,,78,127
53614,note_on,46,0,7,,,,,,,,,6,,,74,0
53614,note_on,0,0,7,,,,,,,,,6,,,78,0
53614,note_on,46,0,5,,,,,,,,,4,,,74,0
53614,note_on,0,0,5,,,,,,,,,4,,,78,0
53614,note_on,46,0,6,,,,,,,,,5,,,74,0
53614,note_on,0,0,6,,,,,,,,,5,,,78,0
53616,note_on,0,0,7,,,,,,,,,6,,,81,127
53616,note_on,2,0,5,,,,,,,,,4,,,78,127
53616,note_on,0,0,5,,,,,,,,,4,,,81,127
53616,note_on,2,0,6,,,,,,,,,5,,,78,127
53616,note_on,0,0,6,,,,,,,,,5,,,81,127
53616,note_on,2,0,7,,,,,,,,,6,,,78,127
53662,note_on,46,0,6,,,,,,,,,5,,,78,0
53662,note_on,0,0,7,,,,,,,,,6,,,81,0
53662,note_on,46,0,5,,,,,,,,,4,,,78,0
53662,note_on,0,0,5,,,,,,,,,4,,,81,0
53662,note_on,46,0,7,,,,,,,,,6,,,78,0
53662,note_on,0,0,6,,,,,,,,,5,,,81,0
53664,note_on,2,0,5,,,,,,,,,4,,,74,127
53664,note_on,0,0,6,,,,,,,,,5,,,78,127
53664,note_on,0,0,7,,,,,,,,,6,,,78,127
53664,note_on,0,0,5,,,,,,,,,4,,,78,127
53664,note_on,2,0,7,,,,,,,,,6,,,74,127
53664,note_on,2,0,6,,,,,,,,,5,,,74,127
53710,note_on,0,0,7,,,,,,,,,6,,,78,0
53710,note_on,46,0,7,,,,,,,,,6,,,74,0
53710,note_on,46,0,6,,,,,,,,,5,,,74,0
53710,note_on,0,0,5,,,,,,,,,4,,,78,0
53710,note_on,46,0,5,,,,,,,,,4,,,74,0
53710,note_on,0,0,6,,,,,,,,,5,,,78,0
53712,end_of_track,0,1,3,,,,,,,,,,,,,
53712,note_on,0,0,5,,,,,,,,,4,,,81,127
53712,end_of_track,0,1,4,,,,,,,,,,,,,
53712,note_on,336,0,4,,,,,,,,,3,,,50,0
53712,note_on,2,0,5,,,,,,,,,4,,,78,127
53712,note_on,336,0,3,,,,,,,,,2,,,57,0
53712,note_on,0,0,7,,,,,,,,,6,,,81,127
53712,end_of_track,0,1,2,,,,,,,,,,,,,
53712,note_on,2,0,7,,,,,,,,,6,,,78,127
53712,end_of_track,0,1,1,,,,,,,,,,,,,
53712,note_on,336,0,1,,,,,,,,,0,,,74,0
53712,note_on,0,0,6,,,,,,,,,5,,,81,127
53712,note_on,2,0,6,,,,,,,,,5,,,78,127
53712,note_on,336,0,2,,,,,,,,,1,,,66,0
53758,note_on,0,0,7,,,,,,,,,6,,,81,0
53758,note_on,0,0,5,,,,,,,,,4,,,81,0
53758,note_on,46,0,5,,,,,,,,,4,,,78,0
53758,note_on,0,0,6,,,,,,,,,5,,,81,0
53758,note_on,46,0,6,,,,,,,,,5,,,78,0
53758,note_on,46,0,7,,,,,,,,,6,,,78,0
53760,note_on,2,0,7,,,,,,,,,6,,,69,127
53760,note_on,0,0,7,,,,,,,,,6,,,74,127
53760,note_on,224,0,8,,,,,,,,,7,,,50,127
53760,note_on,0,0,6,,,,,,,,,5,,,74,127
53760,note_on,2,0,6,,,,,,,,,5,,,69,127
53760,note_on,0,0,5,,,,,,,,,4,,,74,127
53760,note_on,2,0,5,,,,,,,,,4,,,69,127
53806,note_on,0,0,6,,,,,,,,,5,,,74,0
53806,note_on,46,0,5,,,,,,,,,4,,,69,0
53806,note_on,46,0,6,,,,,,,,,5,,,69,0
53806,note_on,46,0,7,,,,,,,,,6,,,69,0
53806,note_on,0,0,7,,,,,,,,,6,,,74,0
53806,note_on,0,0,5,,,,,,,,,4,,,74,0
53808,note_on,2,0,6,,,,,,,,,5,,,78,127
53808,note_on,2,0,5,,,,,,,,,4,,,78,127
53808,note_on,2,0,7,,,,,,,,,6,,,78,127
53854,note_on,46,0,5,,,,,,,,,4,,,78,0
53854,note_on,46,0,7,,,,,,,,,6,,,78,0
53854,note_on,46,0,6,,,,,,,,,5,,,78,0
53856,note_on,2,0,6,,,,,,,,,5,,,69,127
53856,note_on,0,0,7,,,,,,,,,6,,,74,127
53856,note_on,0,0,6,,,,,,,,,5,,,74,127
53856,note_on,0,0,5,,,,,,,,,4,,,74,127
53856,note_on,2,0,5,,,,,,,,,4,,,69,127
53856,note_on,2,0,7,,,,,,,,,6,,,69,127
53902,note_on,0,0,6,,,,,,,,,5,,,74,0
53902,note_on,0,0,7,,,,,,,,,6,,,74,0
53902,note_on,46,0,7,,,,,,,,,6,,,69,0
53902,note_on,46,0,5,,,,,,,,,4,,,69,0
53902,note_on,0,0,5,,,,,,,,,4,,,74,0
53902,note_on,46,0,6,,,,,,,,,5,,,69,0
53904,note_on,2,0,5,,,,,,,,,4,,,78,127
53904,note_on,2,0,7,,,,,,,,,6,,,78,127
53904,note_on,2,0,6,,,,,,,,,5,,,78,127
53920,note_on,160,0,8,,,,,,,,,7,,,50,0
53950,note_on,46,0,7,,,,,,,,,6,,,78,0
53950,note_on,46,0,6,,,,,,,,,5,,,78,0
53950,note_on,46,0,5,,,,,,,,,4,,,78,0
53952,note_on,2,0,7,,,,,,,,,6,,,66,127
53952,note_on,0,0,7,,,,,,,,,6,,,69,127
53952,note_on,2,0,6,,,,,,,,,5,,,66,127
53952,note_on,0,0,6,,,,,,,,,5,,,69,127
53952,note_on,2,0,5,,,,,,,,,4,,,66,127
53952,note_on,0,0,5,,,,,,,,,4,,,69,127
53998,note_on,46,0,5,,,,,,,,,4,,,66,0
53998,note_on,0,0,5,,,,,,,,,4,,,69,0
53998,note_on,0,0,7,,,,,,,,,6,,,69,0
53998,note_on,46,0,7,,,,,,,,,6,,,66,0
53998,note_on,46,0,6,,,,,,,,,5,,,66,0
53998,note_on,0,0,6,,,,,,,,,5,,,69,0
54000,note_on,2,0,5,,,,,,,,,4,,,74,127
54000,note_on,2,0,7,,,,,,,,,6,,,74,127
54000,note_on,2,0,6,,,,,,,,,5,,,74,127
54046,note_on,46,0,5,,,,,,,,,4,,,74,0
54046,note_on,46,0,7,,,,,,,,,6,,,74,0
54046,note_on,46,0,6,,,,,,,,,5,,,74,0
54048,note_on,2,0,7,,,,,,,,,6,,,66,127
54048,note_on,0,0,6,,,,,,,,,5,,,69,127
54048,note_on,2,0,6,,,,,,,,,5,,,66,127
54048,note_on,0,0,7,,,,,,,,,6,,,69,127
54048,note_on,0,0,5,,,,,,,,,4,,,69,127
54048,note_on,2,0,5,,,,,,,,,4,,,66,127
54094,note_on,0,0,7,,,,,,,,,6,,,69,0
54094,note_on,0,0,6,,,,,,,,,5,,,69,0
54094,note_on,46,0,6,,,,,,,,,5,,,66,0
54094,note_on,46,0,7,,,,,,,,,6,,,66,0
54094,note_on,46,0,5,,,,,,,,,4,,,66,0
54094,note_on,0,0,5,,,,,,,,,4,,,69,0
54096,note_on,2,0,5,,,,,,,,,4,,,74,127
54096,note_on,2,0,7,,,,,,,,,6,,,74,127
54096,note_on,2,0,6,,,,,,,,,5,,,74,127
54142,note_on,46,0,5,,,,,,,,,4,,,74,0
54142,note_on,46,0,6,,,,,,,,,5,,,74,0
54142,note_on,46,0,7,,,,,,,,,6,,,74,0
54144,note_on,0,0,7,,,,,,,,,6,,,66,127
54144,note_on,2,0,7,,,,,,,,,6,,,62,127
54144,note_on,0,0,6,,,,,,,,,5,,,66,127
54144,note_on,0,0,5,,,,,,,,,4,,,66,127
54144,note_on,2,0,5,,,,,,,,,4,,,62,127
54144,note_on,224,0,8,,,,,,,,,7,,,50,127
54144,note_on,2,0,6,,,,,,,,,5,,,62,127
54144,set_tempo,53376,1,0,535714,,,,,,,,,,,,
54238,note_on,94,0,7,,,,,,,,,6,,,62,0
54238,note_on,94,0,8,,,,,,,,,7,,,50,0
54238,note_on,0,0,7,,,,,,,,,6,,,66,0
54238,note_on,0,0,5,,,,,,,,,4,,,66,0
54238,note_on,94,0,5,,,,,,,,,4,,,62,0
54238,note_on,0,0,6,,,,,,,,,5,,,66,0
54238,note_on,94,0,6,,,,,,,,,5,,,62,0
54240,note_on,2,0,5,,,,,,,,,4,,,62,127
54240,note_on,2,0,8,,,,,,,,,7,,,50,127
54240,note_on,2,0,6,,,,,,,,,5,,,62,127
54240,note_on,2,0,7,,,,,,,,,6,,,62,127
54286,note_on,46,0,6,,,,,,,,,5,,,62,0
54286,note_on,46,0,5,,,,,,,,,4,,,62,0
54286,note_on,46,0,8,,,,,,,,,7,,,50,0
54286,note_on,46,0,7,,,,,,,,,6,,,62,0
54288,note_on,2,0,8,,,,,,,,,7,,,52,127
54288,note_on,2,0,6,,,,,,,,,5,,,64,127
54288,note_on,2,0,5,,,,,,,,,4,,,64,127
54288,note_on,2,0,7,,,,,,,,,6,,,64,127
54334,note_on,46,0,6,,,,,,,,,5,,,64,0
54334,note_on,46,0,5,,,,,,,,,4,,,64,0
54334,note_on,46,0,7,,,,,,,,,6,,,64,0
54334,note_on,46,0,8,,,,,,,,,7,,,52,0
54336,note_on,2,0,8,,,,,,,,,7,,,54,127
54336,note_on,2,0,5,,,,,,,,,4,,,66,127
54336,note_on,2,0,6,,,,,,,,,5,,,66,127
54336,set_tempo,192,1,0,576923,,,,,,,,,,,,
54336,note_on,2,0,7,,,,,,,,,6,,,66,127
54430,note_on,94,0,7,,,,,,,,,6,,,66,0
54430,note_on,94,0,6,,,,,,,,,5,,,66,0
54430,note_on,94,0,8,,,,,,,,,7,,,54,0
54430,note_on,94,0,5,,,,,,,,,4,,,66,0
54432,note_on,2,0,8,,,,,,,,,7,,,54,127
54432,note_on,2,0,5,,,,,,,,,4,,,66,127
54432,note_on,2,0,6,,,,,,,,,5,,,66,127
54432,note_on,2,0,7,,,,,,,,,6,,,66,127
54478,note_on,46,0,8,,,,,,,,,7,,,54,0
54478,note_on,46,0,5,,,,,,,,,4,,,66,0
54478,note_on,46,0,7,,,,,,,,,6,,,66,0
54478,note_on,46,0,6,,,,,,,,,5,,,66,0
54480,note_on,2,0,7,,,,,,,,,6,,,67,127
54480,note_on,2,0,5,,,,,,,,,4,,,67,127
54480,note_on,2,0,6,,,,,,,,,5,,,67,127
54480,note_on,2,0,8,,,,,,,,,7,,,55,127
54526,note_on,46,0,6,,,,,,,,,5,,,67,0
54526,note_on,46,0,7,,,,,,,,,6,,,67,0
54526,note_on,46,0,8,,,,,,,,,7,,,55,0
54526,note_on,46,0,5,,,,,,,,,4,,,67,0
54528,note_on,2,0,5,,,,,,,,,4,,,69,127
54528,set_tempo,192,1,0,625000,,,,,,,,,,,,
54528,note_on,2,0,7,,,,,,,,,6,,,69,127
54528,note_on,2,0,8,,,,,,,,,7,,,57,127
54528,note_on,2,0,6,,,,,,,,,5,,,69,127
54688,note_on,160,0,8,,,,,,,,,7,,,57,0
54688,note_on,160,0,7,,,,,,,,,6,,,69,0
54688,note_on,160,0,6,,,,,,,,,5,,,69,0
54688,note_on,160,0,5,,,,,,,,,4,,,69,0
54816,note_on,0,0,7,,,,,,,,,6,,,62,127
54816,note_on,128,0,8,,,,,,,,,7,,,50,127
54816,note_on,128,0,7,,,,,,,,,6,,,57,127
54816,note_on,0,0,6,,,,,,,,,5,,,62,127
54816,note_on,128,0,6,,,,,,,,,5,,,57,127
54816,note_on,0,0,7,,,,,,,,,6,,,66,127
54816,set_tempo,288,1,0,681818,,,,,,,,,,,,
54816,end_of_track,0,1,0,,,,,,,,,,,,,
54816,note_on,128,0,5,,,,,,,,,4,,,62,127
54816,note_on,0,0,6,,,,,,,,,5,,,66,127
54910,note_on,94,0,7,,,,,,,,,6,,,57,0
54910,note_on,0,0,7,,,,,,,,,6,,,62,0
54910,note_on,0,0,7,,,,,,,,,6,,,66,0
54910,note_on,94,0,8,,,,,,,,,7,,,50,0
54910,note_on,94,0,5,,,,,,,,,4,,,62,0
54910,note_on,0,0,6,,,,,,,,,5,,,62,0
54910,note_on,0,0,6,,,,,,,,,5,,,66,0
54910,note_on,94,0,6,,,,,,,,,5,,,57,0
54912,note_on,0,0,6,,,,,,,,,5,,,69,127
54912,note_on,0,0,7,,,,,,,,,6,,,69,127
54912,note_on,0,0,7,,,,,,,,,6,,,64,127
54912,note_on,2,0,7,,,,,,,,,6,,,62,127
54912,note_on,0,0,6,,,,,,,,,5,,,64,127
54912,note_on,2,0,6,,,,,,,,,5,,,62,127
54912,note_on,2,0,5,,,,,,,,,4,,,69,127
54912,note_on,2,0,8,,,,,,,,,7,,,57,127
55072,note_on,160,0,8,,,,,,,,,7,,,57,0
55072,note_on,0,0,6,,,,,,,,,5,,,69,0
55072,note_on,0,0,7,,,,,,,,,6,,,69,0
55072,note_on,0,0,7,,,,,,,,,6,,,64,0
55072,note_on,160,0,7,,,,,,,,,6,,,62,0
55072,note_on,160,0,6,,,,,,,,,5,,,62,0
55072,note_on,0,0,6,,,,,,,,,5,,,64,0
55072,note_on,160,0,5,,,,,,,,,4,,,69,0
55104,note_on,0,0,7,,,,,,,,,6,,,61,127
55104,note_on,0,0,7,,,,,,,,,6,,,64,127
55104,note_on,0,0,7,,,,,,,,,6,,,69,127
55104,note_on,0,0,6,,,,,,,,,5,,,69,127
55104,note_on,32,0,7,,,,,,,,,6,,,57,127
55104,note_on,0,0,5,,,,,,,,,4,,,69,127
55104,note_on,32,0,5,,,,,,,,,4,,,57,127
55104,note_on,32,0,8,,,,,,,,,7,,,45,127
55104,note_on,0,0,6,,,,,,,,,5,,,61,127
55104,note_on,32,0,6,,,,,,,,,5,,,57,127
55104,note_on,0,0,6,,,,,,,,,5,,,64,127
55264,note_on,160,0,8,,,,,,,,,7,,,45,0
55264,note_on,160,0,7,,,,,,,,,6,,,57,0
55264,note_on,0,0,7,,,,,,,,,6,,,61,0
55264,note_on,0,0,7,,,,,,,,,6,,,64,0
55264,note_on,0,0,7,,,,,,,,,6,,,69,0
55264,note_on,160,0,5,,,,,,,,,4,,,57,0
55264,note_on,0,0,6,,,,,,,,,5,,,69,0
55264,note_on,0,0,6,,,,,,,,,5,,,64,0
55264,note_on,160,0,6,,,,,,,,,5,,,57,0
55264,note_on,0,0,5,,,,,,,,,4,,,69,0
55264,note_on,0,0,6,,,,,,,,,5,,,61,0
55296,note_on,32,0,7,,,,,,,,,6,,,62,127
55296,note_on,32,0,5,,,,,,,,,4,,,62,127
55296,note_on,0,0,8,,,,,,,,,7,,,54,127
55296,note_on,32,0,8,,,,,,,,,7,,,50,127
55296,note_on,32,0,6,,,,,,,,,5,,,62,127
55296,note_on,0,0,8,,,,,,,,,7,,,57,127
55824,end_of_track,0,1,6,,,,,,,,,,,,,
55824,end_of_track,0,1,7,,,,,,,,,,,,,
55824,end_of_track,0,1,5,,,,,,,,,,,,,
55824,note_on,528,0,5,,,,,,,,,4,,,62,0
55824,end_of_track,0,1,8,,,,,,,,,,,,,
55824,note_on,0,0,8,,,,,,,,,7,,,57,0
55824,note_on,0,0,8,,,,,,,,,7,,,54,0
55824,note_on,528,0,8,,,,,,,,,7,,,50,0
55824,note_on,528,0,7,,,,,,,,,6,,,62,0
55824,note_on,528,0,6,,,,,,,,,5,,,62,0
