tick,type,time,control,value,channel,meta,track,program,numerator,denominator,clocks_per_click,notated_32nd_notes_per_beat,data,tempo,note,velocity
0,control_change,0,0,0,0,0,0,,,,,,,,,
0,program_change,0,,,0,0,0,40,,,,,,,,
0,control_change,0,0,0,0,0,0,,,,,,,,,
0,program_change,0,,,0,0,0,40,,,,,,,,
0,control_change,0,0,0,1,0,0,,,,,,,,,
0,program_change,0,,,1,0,0,41,,,,,,,,
0,control_change,0,0,0,2,0,0,,,,,,,,,
0,program_change,0,,,2,0,0,43,,,,,,,,
0,time_signature,0,,,,1,0,,4,4,96,8,,,,
0,sequencer_specific,0,,,,1,0,,,,,,"(0, 0, 65)",,,
0,set_tempo,0,,,,1,0,,,,,,,2400000,,
0,note_on,0,,,2,0,0,,,,,,,,50,75
256,note_off,256,,,2,0,0,,,,,,,,50,0
384,note_on,128,,,2,0,0,,,,,,,,50,75
640,note_off,256,,,2,0,0,,,,,,,,50,0
768,note_on,128,,,2,0,0,,,,,,,,50,75
1024,note_off,256,,,2,0,0,,,,,,,,50,0
1152,note_on,128,,,2,0,0,,,,,,,,50,75
1408,note_off,256,,,2,0,0,,,,,,,,50,0
1536,note_on,128,,,0,0,0,,,,,,,,78,75
1536,note_on,0,,,0,0,0,,,,,,,,74,75
1536,note_on,0,,,1,0,0,,,,,,,,69,75
1536,note_on,0,,,2,0,0,,,,,,,,50,75
1724,note_off,188,,,2,0,0,,,,,,,,50,64
1728,note_on,4,,,2,0,0,,,,,,,,50,75
1856,note_off,128,,,2,0,0,,,,,,,,50,64
1920,note_on,64,,,2,0,0,,,,,,,,50,75
2048,note_off,128,,,0,0,0,,,,,,,,78,64
2048,note_off,0,,,0,0,0,,,,,,,,74,64
2048,note_off,0,,,2,0,0,,,,,,,,50,64
2112,note_on,64,,,2,0,0,,,,,,,,50,75
2240,note_off,128,,,2,0,0,,,,,,,,50,64
2304,note_on,64,,,0,0,0,,,,,,,,76,75
2304,note_on,0,,,0,0,0,,,,,,,,73,75
2304,note_on,0,,,2,0,0,,,,,,,,57,75
2432,note_off,128,,,2,0,0,,,,,,,,57,64
2496,note_on,64,,,2,0,0,,,,,,,,45,75
2624,note_off,128,,,2,0,0,,,,,,,,45,64
2688,note_on,64,,,2,0,0,,,,,,,,45,75
2816,note_off,128,,,0,0,0,,,,,,,,76,64
2816,note_off,0,,,0,0,0,,,,,,,,73,64
2816,note_off,0,,,2,0,0,,,,,,,,45,64
2880,note_on,64,,,2,0,0,,,,,,,,45,75
3008,note_off,128,,,2,0,0,,,,,,,,45,64
3068,note_off,60,,,1,0,0,,,,,,,,69,64
3072,note_on,4,,,0,0,0,,,,,,,,78,75
3072,note_on,0,,,0,0,0,,,,,,,,74,75
3072,note_on,0,,,1,0,0,,,,,,,,69,75
3072,note_on,0,,,2,0,0,,,,,,,,50,75
3200,note_off,128,,,2,0,0,,,,,,,,50,64
3264,note_on,64,,,2,0,0,,,,,,,,50,75
3392,note_off,128,,,2,0,0,,,,,,,,50,64
3456,note_on,64,,,2,0,0,,,,,,,,50,75
3584,note_off,128,,,0,0,0,,,,,,,,78,64
3584,note_off,0,,,0,0,0,,,,,,,,74,64
3584,note_off,0,,,2,0,0,,,,,,,,50,64
3648,note_on,64,,,2,0,0,,,,,,,,50,75
3776,note_off,128,,,2,0,0,,,,,,,,50,64
3840,note_on,64,,,0,0,0,,,,,,,,76,75
3840,note_on,0,,,0,0,0,,,,,,,,73,75
3840,note_on,0,,,2,0,0,,,,,,,,57,75
3968,note_off,128,,,2,0,0,,,,,,,,57,64
4032,note_on,64,,,2,0,0,,,,,,,,45,75
4160,note_off,128,,,2,0,0,,,,,,,,45,64
4224,note_on,64,,,2,0,0,,,,,,,,45,75
4352,note_off,128,,,0,0,0,,,,,,,,76,64
4352,note_off,0,,,0,0,0,,,,,,,,73,64
4352,note_off,0,,,2,0,0,,,,,,,,45,64
4416,note_on,64,,,2,0,0,,,,,,,,45,75
4544,note_off,128,,,2,0,0,,,,,,,,45,64
4604,note_off,60,,,1,0,0,,,,,,,,69,64
4608,note_on,4,,,0,0,0,,,,,,,,78,75
4608,note_on,0,,,0,0,0,,,,,,,,74,75
4608,note_on,0,,,1,0,0,,,,,,,,69,75
4608,note_on,0,,,2,0,0,,,,,,,,50,75
4736,note_off,128,,,2,0,0,,,,,,,,50,64
4800,note_on,64,,,2,0,0,,,,,,,,50,75
4864,note_off,64,,,0,0,0,,,,,,,,78,64
4864,note_off,0,,,0,0,0,,,,,,,,74,64
4928,note_off,64,,,2,0,0,,,,,,,,50,64
4992,note_on,64,,,0,0,0,,,,,,,,81,75
4992,note_on,0,,,0,0,0,,,,,,,,78,75
4992,note_on,0,,,2,0,0,,,,,,,,50,75
5120,note_off,128,,,2,0,0,,,,,,,,50,64
5184,note_on,64,,,2,0,0,,,,,,,,50,75
5248,note_off,64,,,0,0,0,,,,,,,,81,64
5248,note_off,0,,,0,0,0,,,,,,,,78,64
5312,note_off,64,,,2,0,0,,,,,,,,50,64
5372,note_off,60,,,1,0,0,,,,,,,,69,64
5376,note_on,4,,,0,0,0,,,,,,,,83,75
5376,note_on,0,,,0,0,0,,,,,,,,78,75
5376,note_on,0,,,1,0,0,,,,,,,,71,75
5376,note_on,0,,,2,0,0,,,,,,,,55,75
5504,note_off,128,,,2,0,0,,,,,,,,55,64
5568,note_on,64,,,2,0,0,,,,,,,,55,75
5696,note_off,128,,,2,0,0,,,,,,,,55,64
5760,note_on,64,,,2,0,0,,,,,,,,55,75
5888,note_off,128,,,0,0,0,,,,,,,,78,64
5888,note_off,0,,,2,0,0,,,,,,,,55,64
5952,note_on,64,,,2,0,0,,,,,,,,55,75
6080,note_off,128,,,2,0,0,,,,,,,,55,64
6144,note_on,64,,,0,0,0,,,,,,,,76,75
6144,note_on,0,,,2,0,0,,,,,,,,49,75
6272,note_off,128,,,2,0,0,,,,,,,,49,64
6336,note_on,64,,,2,0,0,,,,,,,,49,75
6464,note_off,128,,,2,0,0,,,,,,,,49,64
6528,note_on,64,,,2,0,0,,,,,,,,49,75
6656,note_off,128,,,0,0,0,,,,,,,,83,64
6656,note_off,0,,,2,0,0,,,,,,,,49,64
6720,note_on,64,,,2,0,0,,,,,,,,49,75
6848,note_off,128,,,2,0,0,,,,,,,,49,64
6908,note_off,60,,,1,0,0,,,,,,,,71,64
6912,note_on,4,,,0,0,0,,,,,,,,81,75
6912,note_on,0,,,1,0,0,,,,,,,,69,75
6912,note_on,0,,,2,0,0,,,,,,,,54,75
7040,note_off,128,,,2,0,0,,,,,,,,54,64
7104,note_on,64,,,2,0,0,,,,,,,,54,75
7172,note_off,68,,,0,0,0,,,,,,,,76,64
7232,note_off,60,,,2,0,0,,,,,,,,54,64
7296,note_on,64,,,2,0,0,,,,,,,,54,75
7424,note_off,128,,,2,0,0,,,,,,,,54,64
7488,note_on,64,,,2,0,0,,,,,,,,54,75
7616,note_off,128,,,2,0,0,,,,,,,,54,64
7680,note_on,64,,,0,0,0,,,,,,,,74,75
7680,note_on,0,,,2,0,0,,,,,,,,47,75
7808,note_off,128,,,2,0,0,,,,,,,,47,64
7872,note_on,64,,,2,0,0,,,,,,,,47,75
8000,note_off,128,,,2,0,0,,,,,,,,47,64
8064,note_on,64,,,2,0,0,,,,,,,,47,75
8192,note_off,128,,,0,0,0,,,,,,,,81,64
8192,note_off,0,,,1,0,0,,,,,,,,69,64
8192,note_off,0,,,2,0,0,,,,,,,,47,64
8256,note_on,64,,,2,0,0,,,,,,,,47,75
8384,note_off,128,,,2,0,0,,,,,,,,47,64
8448,note_on,64,,,0,0,0,,,,,,,,80,75
8448,note_on,0,,,1,0,0,,,,,,,,68,75
8448,note_on,0,,,2,0,0,,,,,,,,52,75
8576,note_off,128,,,2,0,0,,,,,,,,52,64
8640,note_on,64,,,2,0,0,,,,,,,,52,75
8708,note_off,68,,,0,0,0,,,,,,,,74,64
8768,note_off,60,,,2,0,0,,,,,,,,52,64
8832,note_on,64,,,2,0,0,,,,,,,,52,75
8960,note_off,128,,,0,0,0,,,,,,,,80,64
8960,note_off,0,,,1,0,0,,,,,,,,68,64
8960,note_off,0,,,2,0,0,,,,,,,,52,64
9024,note_on,64,,,2,0,0,,,,,,,,52,75
9152,note_off,128,,,2,0,0,,,,,,,,52,64
9216,note_on,64,,,0,0,0,,,,,,,,76,75
9216,note_on,0,,,0,0,0,,,,,,,,76,75
9216,note_on,0,,,1,0,0,,,,,,,,69,75
9216,note_on,0,,,2,0,0,,,,,,,,45,75
9344,note_off,128,,,2,0,0,,,,,,,,45,64
9408,note_on,64,,,2,0,0,,,,,,,,45,75
9536,note_off,128,,,2,0,0,,,,,,,,45,64
9600,note_on,64,,,2,0,0,,,,,,,,45,75
9728,note_off,128,,,1,0,0,,,,,,,,69,64
9728,note_off,0,,,2,0,0,,,,,,,,45,64
9792,note_on,64,,,2,0,0,,,,,,,,45,75
9920,note_off,128,,,2,0,0,,,,,,,,45,64
9984,note_on,64,,,1,0,0,,,,,,,,73,75
9984,note_on,0,,,2,0,0,,,,,,,,45,75
10112,note_off,128,,,2,0,0,,,,,,,,45,64
10176,note_on,64,,,2,0,0,,,,,,,,45,75
10304,note_off,128,,,2,0,0,,,,,,,,45,64
10368,note_on,64,,,2,0,0,,,,,,,,45,75
10496,note_off,128,,,1,0,0,,,,,,,,73,64
10496,note_off,0,,,2,0,0,,,,,,,,45,64
10560,note_on,64,,,2,0,0,,,,,,,,45,75
10688,note_off,128,,,2,0,0,,,,,,,,45,64
10752,note_on,64,,,1,0,0,,,,,,,,69,75
10752,note_on,0,,,2,0,0,,,,,,,,45,75
10880,note_off,128,,,2,0,0,,,,,,,,45,64
10944,note_on,64,,,2,0,0,,,,,,,,45,75
11008,note_off,64,,,1,0,0,,,,,,,,69,64
11072,note_off,64,,,2,0,0,,,,,,,,45,64
11136,note_on,64,,,1,0,0,,,,,,,,69,75
11136,note_on,0,,,2,0,0,,,,,,,,45,75
11264,note_off,128,,,0,0,0,,,,,,,,76,64
11264,note_off,0,,,0,0,0,,,,,,,,76,64
11264,note_off,0,,,2,0,0,,,,,,,,45,64
11328,note_on,64,,,2,0,0,,,,,,,,45,75
11392,note_off,64,,,1,0,0,,,,,,,,69,64
11456,note_off,64,,,2,0,0,,,,,,,,45,64
11520,note_on,64,,,0,0,0,,,,,,,,76,75
11520,note_on,0,,,0,0,0,,,,,,,,73,75
11520,note_on,0,,,1,0,0,,,,,,,,69,75
11520,note_on,0,,,2,0,0,,,,,,,,45,75
11776,note_off,256,,,0,0,0,,,,,,,,76,64
11776,note_off,0,,,0,0,0,,,,,,,,73,64
11776,note_off,0,,,1,0,0,,,,,,,,69,64
11776,note_off,0,,,2,0,0,,,,,,,,45,64
12288,note_on,512,,,0,0,0,,,,,,,,81,75
12288,note_on,0,,,0,0,0,,,,,,,,73,75
12288,note_on,0,,,1,0,0,,,,,,,,64,75
12288,note_on,0,,,2,0,0,,,,,,,,45,75
12416,note_off,128,,,2,0,0,,,,,,,,45,64
12480,note_on,64,,,2,0,0,,,,,,,,45,75
12544,note_off,64,,,0,0,0,,,,,,,,81,64
12544,note_off,0,,,0,0,0,,,,,,,,73,64
12544,note_off,0,,,1,0,0,,,,,,,,64,64
12608,note_off,64,,,2,0,0,,,,,,,,45,64
12672,note_on,64,,,0,0,0,,,,,,,,80,75
12672,note_on,0,,,0,0,0,,,,,,,,71,75
12672,note_on,0,,,1,0,0,,,,,,,,64,75
12672,note_on,0,,,2,0,0,,,,,,,,40,75
12800,note_off,128,,,2,0,0,,,,,,,,40,64
12864,note_on,64,,,2,0,0,,,,,,,,40,75
12928,note_off,64,,,0,0,0,,,,,,,,80,64
12928,note_off,0,,,0,0,0,,,,,,,,71,64
12928,note_off,0,,,1,0,0,,,,,,,,64,64
12992,note_off,64,,,2,0,0,,,,,,,,40,64
13056,note_on,64,,,0,0,0,,,,,,,,81,75
13056,note_on,0,,,0,0,0,,,,,,,,73,75
13056,note_on,0,,,1,0,0,,,,,,,,64,75
13056,note_on,0,,,2,0,0,,,,,,,,45,75
13568,note_off,512,,,0,0,0,,,,,,,,81,64
13568,note_off,0,,,0,0,0,,,,,,,,73,64
13568,note_off,0,,,1,0,0,,,,,,,,64,64
13568,note_off,0,,,2,0,0,,,,,,,,45,64
13824,note_on,256,,,0,0,0,,,,,,,,78,75
13824,note_on,0,,,0,0,0,,,,,,,,74,75
13824,note_on,0,,,1,0,0,,,,,,,,69,75
13824,note_on,0,,,2,0,0,,,,,,,,50,75
14012,note_off,188,,,2,0,0,,,,,,,,50,64
14016,note_on,4,,,2,0,0,,,,,,,,50,75
14144,note_off,128,,,2,0,0,,,,,,,,50,64
14208,note_on,64,,,2,0,0,,,,,,,,50,75
14336,note_off,128,,,0,0,0,,,,,,,,78,64
14336,note_off,0,,,0,0,0,,,,,,,,74,64
14336,note_off,0,,,2,0,0,,,,,,,,50,64
14400,note_on,64,,,2,0,0,,,,,,,,50,75
14528,note_off,128,,,2,0,0,,,,,,,,50,64
14592,note_on,64,,,0,0,0,,,,,,,,76,75
14592,note_on,0,,,0,0,0,,,,,,,,73,75
14592,note_on,0,,,2,0,0,,,,,,,,57,75
14720,note_off,128,,,2,0,0,,,,,,,,57,64
14784,note_on,64,,,2,0,0,,,,,,,,45,75
14912,note_off,128,,,2,0,0,,,,,,,,45,64
14976,note_on,64,,,2,0,0,,,,,,,,45,75
15104,note_off,128,,,0,0,0,,,,,,,,76,64
15104,note_off,0,,,0,0,0,,,,,,,,73,64
15104,note_off,0,,,2,0,0,,,,,,,,45,64
15168,note_on,64,,,2,0,0,,,,,,,,45,75
15296,note_off,128,,,2,0,0,,,,,,,,45,64
15356,note_off,60,,,1,0,0,,,,,,,,69,64
15360,note_on,4,,,0,0,0,,,,,,,,78,75
15360,note_on,0,,,0,0,0,,,,,,,,74,75
15360,note_on,0,,,1,0,0,,,,,,,,69,75
15360,note_on,0,,,2,0,0,,,,,,,,50,75
15488,note_off,128,,,2,0,0,,,,,,,,50,64
15552,note_on,64,,,2,0,0,,,,,,,,50,75
15680,note_off,128,,,2,0,0,,,,,,,,50,64
15744,note_on,64,,,2,0,0,,,,,,,,50,75
15872,note_off,128,,,0,0,0,,,,,,,,78,64
15872,note_off,0,,,0,0,0,,,,,,,,74,64
15872,note_off,0,,,2,0,0,,,,,,,,50,64
15936,note_on,64,,,2,0,0,,,,,,,,50,75
16064,note_off,128,,,2,0,0,,,,,,,,50,64
16128,note_on,64,,,0,0,0,,,,,,,,76,75
16128,note_on,0,,,0,0,0,,,,,,,,73,75
16128,note_on,0,,,2,0,0,,,,,,,,57,75
16256,note_off,128,,,2,0,0,,,,,,,,57,64
16320,note_on,64,,,2,0,0,,,,,,,,45,75
16448,note_off,128,,,2,0,0,,,,,,,,45,64
16512,note_on,64,,,2,0,0,,,,,,,,45,75
16640,note_off,128,,,0,0,0,,,,,,,,76,64
16640,note_off,0,,,0,0,0,,,,,,,,73,64
16640,note_off,0,,,2,0,0,,,,,,,,45,64
16704,note_on,64,,,2,0,0,,,,,,,,45,75
16832,note_off,128,,,2,0,0,,,,,,,,45,64
16892,note_off,60,,,1,0,0,,,,,,,,69,64
16896,note_on,4,,,0,0,0,,,,,,,,78,75
16896,note_on,0,,,0,0,0,,,,,,,,74,75
16896,note_on,0,,,1,0,0,,,,,,,,69,75
16896,note_on,0,,,2,0,0,,,,,,,,50,75
17024,note_off,128,,,2,0,0,,,,,,,,50,64
17088,note_on,64,,,2,0,0,,,,,,,,50,75
17152,note_off,64,,,0,0,0,,,,,,,,78,64
17152,note_off,0,,,0,0,0,,,,,,,,74,64
17216,note_off,64,,,2,0,0,,,,,,,,50,64
17280,note_on,64,,,0,0,0,,,,,,,,81,75
17280,note_on,0,,,0,0,0,,,,,,,,78,75
17280,note_on,0,,,2,0,0,,,,,,,,50,75
17408,note_off,128,,,2,0,0,,,,,,,,50,64
17472,note_on,64,,,2,0,0,,,,,,,,50,75
17536,note_off,64,,,0,0,0,,,,,,,,81,64
17536,note_off,0,,,0,0,0,,,,,,,,78,64
17600,note_off,64,,,2,0,0,,,,,,,,50,64
17660,note_off,60,,,1,0,0,,,,,,,,69,64
17664,note_on,4,,,0,0,0,,,,,,,,83,75
17664,note_on,0,,,0,0,0,,,,,,,,78,75
17664,note_on,0,,,1,0,0,,,,,,,,71,75
17664,note_on,0,,,2,0,0,,,,,,,,55,75
17792,note_off,128,,,2,0,0,,,,,,,,55,64
17856,note_on,64,,,2,0,0,,,,,,,,55,75
17984,note_off,128,,,2,0,0,,,,,,,,55,64
18048,note_on,64,,,2,0,0,,,,,,,,55,75
18176,note_off,128,,,0,0,0,,,,,,,,78,64
18176,note_off,0,,,2,0,0,,,,,,,,55,64
18240,note_on,64,,,2,0,0,,,,,,,,55,75
18368,note_off,128,,,2,0,0,,,,,,,,55,64
18432,note_on,64,,,0,0,0,,,,,,,,76,75
18432,note_on,0,,,2,0,0,,,,,,,,49,75
18560,note_off,128,,,2,0,0,,,,,,,,49,64
18624,note_on,64,,,2,0,0,,,,,,,,49,75
18752,note_off,128,,,2,0,0,,,,,,,,49,64
18816,note_on,64,,,2,0,0,,,,,,,,49,75
18944,note_off,128,,,0,0,0,,,,,,,,83,64
18944,note_off,0,,,2,0,0,,,,,,,,49,64
19008,note_on,64,,,2,0,0,,,,,,,,49,75
19136,note_off,128,,,2,0,0,,,,,,,,49,64
19196,note_off,60,,,1,0,0,,,,,,,,71,64
19200,note_on,4,,,0,0,0,,,,,,,,81,75
19200,note_on,0,,,1,0,0,,,,,,,,69,75
19200,note_on,0,,,2,0,0,,,,,,,,54,75
19328,note_off,128,,,2,0,0,,,,,,,,54,64
19392,note_on,64,,,2,0,0,,,,,,,,54,75
19460,note_off,68,,,0,0,0,,,,,,,,76,64
19520,note_off,60,,,2,0,0,,,,,,,,54,64
19584,note_on,64,,,2,0,0,,,,,,,,54,75
19712,note_off,128,,,2,0,0,,,,,,,,54,64
19776,note_on,64,,,2,0,0,,,,,,,,54,75
19904,note_off,128,,,2,0,0,,,,,,,,54,64
19968,note_on,64,,,0,0,0,,,,,,,,74,75
19968,note_on,0,,,2,0,0,,,,,,,,47,75
20096,note_off,128,,,2,0,0,,,,,,,,47,64
20160,note_on,64,,,2,0,0,,,,,,,,47,75
20288,note_off,128,,,2,0,0,,,,,,,,47,64
20352,note_on,64,,,2,0,0,,,,,,,,47,75
20480,note_off,128,,,0,0,0,,,,,,,,81,64
20480,note_off,0,,,1,0,0,,,,,,,,69,64
20480,note_off,0,,,2,0,0,,,,,,,,47,64
20544,note_on,64,,,2,0,0,,,,,,,,47,75
20672,note_off,128,,,2,0,0,,,,,,,,47,64
20736,note_on,64,,,0,0,0,,,,,,,,80,75
20736,note_on,0,,,1,0,0,,,,,,,,68,75
20736,note_on,0,,,2,0,0,,,,,,,,52,75
20864,note_off,128,,,2,0,0,,,,,,,,52,64
20928,note_on,64,,,2,0,0,,,,,,,,52,75
20996,note_off,68,,,0,0,0,,,,,,,,74,64
21056,note_off,60,,,2,0,0,,,,,,,,52,64
21120,note_on,64,,,2,0,0,,,,,,,,52,75
21248,note_off,128,,,0,0,0,,,,,,,,80,64
21248,note_off,0,,,1,0,0,,,,,,,,68,64
21248,note_off,0,,,2,0,0,,,,,,,,52,64
21312,note_on,64,,,2,0,0,,,,,,,,52,75
21440,note_off,128,,,2,0,0,,,,,,,,52,64
21504,note_on,64,,,0,0,0,,,,,,,,76,75
21504,note_on,0,,,0,0,0,,,,,,,,76,75
21504,note_on,0,,,1,0,0,,,,,,,,69,75
21504,note_on,0,,,2,0,0,,,,,,,,45,75
21632,note_off,128,,,2,0,0,,,,,,,,45,64
21696,note_on,64,,,2,0,0,,,,,,,,45,75
21824,note_off,128,,,2,0,0,,,,,,,,45,64
21888,note_on,64,,,2,0,0,,,,,,,,45,75
22016,note_off,128,,,1,0,0,,,,,,,,69,64
22016,note_off,0,,,2,0,0,,,,,,,,45,64
22080,note_on,64,,,2,0,0,,,,,,,,45,75
22208,note_off,128,,,2,0,0,,,,,,,,45,64
22272,note_on,64,,,1,0,0,,,,,,,,73,75
22272,note_on,0,,,2,0,0,,,,,,,,45,75
22400,note_off,128,,,2,0,0,,,,,,,,45,64
22464,note_on,64,,,2,0,0,,,,,,,,45,75
22592,note_off,128,,,2,0,0,,,,,,,,45,64
22656,note_on,64,,,2,0,0,,,,,,,,45,75
22784,note_off,128,,,1,0,0,,,,,,,,73,64
22784,note_off,0,,,2,0,0,,,,,,,,45,64
22848,note_on,64,,,2,0,0,,,,,,,,45,75
22976,note_off,128,,,2,0,0,,,,,,,,45,64
23040,note_on,64,,,1,0,0,,,,,,,,69,75
23040,note_on,0,,,2,0,0,,,,,,,,45,75
23168,note_off,128,,,2,0,0,,,,,,,,45,64
23232,note_on,64,,,2,0,0,,,,,,,,45,75
23296,note_off,64,,,1,0,0,,,,,,,,69,64
23360,note_off,64,,,2,0,0,,,,,,,,45,64
23424,note_on,64,,,1,0,0,,,,,,,,69,75
23424,note_on,0,,,2,0,0,,,,,,,,45,75
23552,note_off,128,,,0,0,0,,,,,,,,76,64
23552,note_off,0,,,0,0,0,,,,,,,,76,64
23552,note_off,0,,,2,0,0,,,,,,,,45,64
23616,note_on,64,,,2,0,0,,,,,,,,45,75
23680,note_off,64,,,1,0,0,,,,,,,,69,64
23744,note_off,64,,,2,0,0,,,,,,,,45,64
23808,note_on,64,,,0,0,0,,,,,,,,76,75
23808,note_on,0,,,0,0,0,,,,,,,,73,75
23808,note_on,0,,,1,0,0,,,,,,,,69,75
23808,note_on,0,,,2,0,0,,,,,,,,45,75
24064,note_off,256,,,0,0,0,,,,,,,,76,64
24064,note_off,0,,,0,0,0,,,,,,,,73,64
24064,note_off,0,,,1,0,0,,,,,,,,69,64
24064,note_off,0,,,2,0,0,,,,,,,,45,64
24576,note_on,512,,,0,0,0,,,,,,,,81,75
24576,note_on,0,,,0,0,0,,,,,,,,73,75
24576,note_on,0,,,1,0,0,,,,,,,,64,75
24576,note_on,0,,,2,0,0,,,,,,,,45,75
24704,note_off,128,,,2,0,0,,,,,,,,45,64
24768,note_on,64,,,2,0,0,,,,,,,,45,75
24832,note_off,64,,,0,0,0,,,,,,,,81,64
24832,note_off,0,,,0,0,0,,,,,,,,73,64
24832,note_off,0,,,1,0,0,,,,,,,,64,64
24896,note_off,64,,,2,0,0,,,,,,,,45,64
24960,note_on,64,,,0,0,0,,,,,,,,80,75
24960,note_on,0,,,0,0,0,,,,,,,,71,75
24960,note_on,0,,,1,0,0,,,,,,,,64,75
24960,note_on,0,,,2,0,0,,,,,,,,40,75
25088,note_off,128,,,2,0,0,,,,,,,,40,64
25152,note_on,64,,,2,0,0,,,,,,,,40,75
25216,note_off,64,,,0,0,0,,,,,,,,80,64
25216,note_off,0,,,0,0,0,,,,,,,,71,64
25216,note_off,0,,,1,0,0,,,,,,,,64,64
25280,note_off,64,,,2,0,0,,,,,,,,40,64
25344,note_on,64,,,0,0,0,,,,,,,,81,75
25344,note_on,0,,,0,0,0,,,,,,,,73,75
25344,note_on,0,,,1,0,0,,,,,,,,64,75
25344,note_on,0,,,2,0,0,,,,,,,,45,75
25856,note_off,512,,,0,0,0,,,,,,,,81,64
25856,note_off,0,,,0,0,0,,,,,,,,73,64
25856,note_off,0,,,1,0,0,,,,,,,,64,64
25856,note_off,0,,,2,0,0,,,,,,,,45,64
26112,note_on,256,,,0,0,0,,,,,,,,76,75
26112,note_on,0,,,0,0,0,,,,,,,,73,75
26112,note_on,0,,,1,0,0,,,,,,,,67,75
26112,note_on,0,,,2,0,0,,,,,,,,52,75
26240,note_off,128,,,2,0,0,,,,,,,,52,64
26304,note_on,64,,,2,0,0,,,,,,,,52,75
26432,note_off,128,,,2,0,0,,,,,,,,52,64
26496,note_on,64,,,2,0,0,,,,,,,,52,75
26624,note_off,128,,,0,0,0,,,,,,,,76,64
26624,note_off,0,,,0,0,0,,,,,,,,73,64
26624,note_off,0,,,1,0,0,,,,,,,,67,64
26624,note_off,0,,,2,0,0,,,,,,,,52,64
26688,note_on,64,,,2,0,0,,,,,,,,52,75
26816,note_off,128,,,2,0,0,,,,,,,,52,64
26880,note_on,64,,,0,0,0,,,,,,,,73,75
26880,note_on,0,,,0,0,0,,,,,,,,70,75
26880,note_on,0,,,2,0,0,,,,,,,,54,75
27008,note_off,128,,,2,0,0,,,,,,,,54,64
27072,note_on,64,,,2,0,0,,,,,,,,54,75
27200,note_off,128,,,2,0,0,,,,,,,,54,64
27264,note_on,64,,,2,0,0,,,,,,,,54,75
27392,note_off,128,,,0,0,0,,,,,,,,73,64
27392,note_off,0,,,0,0,0,,,,,,,,70,64
27392,note_off,0,,,2,0,0,,,,,,,,54,64
27456,note_on,64,,,2,0,0,,,,,,,,54,75
27584,note_off,128,,,2,0,0,,,,,,,,54,64
27648,note_on,64,,,0,0,0,,,,,,,,74,75
27648,note_on,0,,,0,0,0,,,,,,,,71,75
27648,note_on,0,,,1,0,0,,,,,,,,66,75
27648,note_on,0,,,2,0,0,,,,,,,,47,75
27776,note_off,128,,,2,0,0,,,,,,,,47,64
27840,note_on,64,,,2,0,0,,,,,,,,47,75
27968,note_off,128,,,2,0,0,,,,,,,,47,64
28032,note_on,64,,,2,0,0,,,,,,,,47,75
28160,note_off,128,,,0,0,0,,,,,,,,74,64
28160,note_off,0,,,0,0,0,,,,,,,,71,64
28160,note_off,0,,,1,0,0,,,,,,,,66,64
28160,note_off,0,,,2,0,0,,,,,,,,47,64
28224,note_on,64,,,2,0,0,,,,,,,,47,75
28352,note_off,128,,,2,0,0,,,,,,,,47,64
28416,note_on,64,,,0,0,0,,,,,,,,78,75
28416,note_on,0,,,0,0,0,,,,,,,,74,75
28416,note_on,0,,,1,0,0,,,,,,,,71,75
28416,note_on,0,,,2,0,0,,,,,,,,47,75
28544,note_off,128,,,2,0,0,,,,,,,,47,64
28608,note_on,64,,,2,0,0,,,,,,,,47,75
28736,note_off,128,,,2,0,0,,,,,,,,47,64
28800,note_on,64,,,2,0,0,,,,,,,,47,75
28928,note_off,128,,,2,0,0,,,,,,,,47,64
28992,note_on,64,,,2,0,0,,,,,,,,47,75
29120,note_off,128,,,2,0,0,,,,,,,,47,64
29184,note_on,64,,,2,0,0,,,,,,,,47,75
29312,note_off,128,,,2,0,0,,,,,,,,47,64
29376,note_on,64,,,2,0,0,,,,,,,,47,75
29504,note_off,128,,,2,0,0,,,,,,,,47,64
29568,note_on,64,,,2,0,0,,,,,,,,47,75
29696,note_off,128,,,2,0,0,,,,,,,,47,64
29760,note_on,64,,,2,0,0,,,,,,,,47,75
29888,note_off,128,,,2,0,0,,,,,,,,47,64
29952,note_on,64,,,2,0,0,,,,,,,,47,75
30016,note_off,64,,,1,0,0,,,,,,,,71,64
30048,note_on,32,,,1,0,0,,,,,,,,74,75
30080,note_off,32,,,0,0,0,,,,,,,,78,64
30080,note_off,0,,,0,0,0,,,,,,,,74,64
30080,note_off,0,,,2,0,0,,,,,,,,47,64
30112,note_off,32,,,1,0,0,,,,,,,,74,64
30144,note_on,32,,,0,0,0,,,,,,,,74,75
30144,note_on,0,,,0,0,0,,,,,,,,71,75
30144,note_on,0,,,1,0,0,,,,,,,,73,75
30144,note_on,0,,,2,0,0,,,,,,,,47,75
30208,note_off,64,,,1,0,0,,,,,,,,73,64
30240,note_on,32,,,1,0,0,,,,,,,,71,75
30272,note_off,32,,,0,0,0,,,,,,,,74,64
30272,note_off,0,,,0,0,0,,,,,,,,71,64
30272,note_off,0,,,2,0,0,,,,,,,,47,64
30304,note_off,32,,,1,0,0,,,,,,,,71,64
30336,note_on,32,,,0,0,0,,,,,,,,73,75
30336,note_on,0,,,0,0,0,,,,,,,,70,75
30336,note_on,0,,,1,0,0,,,,,,,,70,75
30336,note_on,0,,,2,0,0,,,,,,,,47,75
30464,note_off,128,,,2,0,0,,,,,,,,47,64
30528,note_off,64,,,1,0,0,,,,,,,,70,64
30528,note_on,0,,,2,0,0,,,,,,,,47,75
30592,note_off,64,,,0,0,0,,,,,,,,73,64
30592,note_off,0,,,0,0,0,,,,,,,,70,64
30624,note_on,32,,,1,0,0,,,,,,,,71,75
30656,note_off,32,,,2,0,0,,,,,,,,47,64
30688,note_off,32,,,1,0,0,,,,,,,,71,64
30720,note_on,32,,,0,0,0,,,,,,,,74,75
30720,note_on,0,,,0,0,0,,,,,,,,66,75
30720,note_on,0,,,1,0,0,,,,,,,,71,75
30720,note_on,0,,,2,0,0,,,,,,,,47,75
30848,note_off,128,,,2,0,0,,,,,,,,47,64
30912,note_on,64,,,2,0,0,,,,,,,,47,75
31040,note_off,128,,,2,0,0,,,,,,,,47,64
31104,note_on,64,,,2,0,0,,,,,,,,47,75
31232,note_off,128,,,0,0,0,,,,,,,,74,64
31232,note_off,0,,,0,0,0,,,,,,,,66,64
31232,note_off,0,,,1,0,0,,,,,,,,71,64
31232,note_off,0,,,2,0,0,,,,,,,,47,64
31296,note_on,64,,,2,0,0,,,,,,,,47,75
31424,note_off,128,,,2,0,0,,,,,,,,47,64
31488,note_on,64,,,0,0,0,,,,,,,,78,75
31488,note_on,0,,,0,0,0,,,,,,,,74,75
31488,note_on,0,,,1,0,0,,,,,,,,69,75
31488,note_on,0,,,2,0,0,,,,,,,,50,75
31616,note_off,128,,,2,0,0,,,,,,,,50,64
31680,note_on,64,,,2,0,0,,,,,,,,50,75
31808,note_off,128,,,2,0,0,,,,,,,,50,64
31872,note_on,64,,,2,0,0,,,,,,,,50,75
32000,note_off,128,,,0,0,0,,,,,,,,78,64
32000,note_off,0,,,0,0,0,,,,,,,,74,64
32000,note_off,0,,,1,0,0,,,,,,,,69,64
32000,note_off,0,,,2,0,0,,,,,,,,50,64
32064,note_on,64,,,2,0,0,,,,,,,,50,75
32192,note_off,128,,,2,0,0,,,,,,,,50,64
32256,note_on,64,,,0,0,0,,,,,,,,76,75
32256,note_on,0,,,0,0,0,,,,,,,,73,75
32256,note_on,0,,,1,0,0,,,,,,,,69,75
32256,note_on,0,,,2,0,0,,,,,,,,45,75
32384,note_off,128,,,2,0,0,,,,,,,,45,64
32448,note_on,64,,,2,0,0,,,,,,,,45,75
32576,note_off,128,,,2,0,0,,,,,,,,45,64
32640,note_on,64,,,2,0,0,,,,,,,,45,75
32768,note_off,128,,,0,0,0,,,,,,,,76,64
32768,note_off,0,,,0,0,0,,,,,,,,73,64
32768,note_off,0,,,1,0,0,,,,,,,,69,64
32768,note_off,0,,,2,0,0,,,,,,,,45,64
32832,note_on,64,,,2,0,0,,,,,,,,45,75
32960,note_off,128,,,2,0,0,,,,,,,,45,64
33024,note_on,64,,,0,0,0,,,,,,,,78,75
33024,note_on,0,,,0,0,0,,,,,,,,74,75
33024,note_on,0,,,1,0,0,,,,,,,,69,75
33024,note_on,0,,,2,0,0,,,,,,,,50,75
33152,note_off,128,,,2,0,0,,,,,,,,50,64
33216,note_on,64,,,2,0,0,,,,,,,,50,75
33344,note_off,128,,,2,0,0,,,,,,,,50,64
33408,note_on,64,,,2,0,0,,,,,,,,50,75
33536,note_off,128,,,1,0,0,,,,,,,,69,64
33536,note_off,0,,,2,0,0,,,,,,,,50,64
33600,note_on,64,,,2,0,0,,,,,,,,50,75
33728,note_off,128,,,2,0,0,,,,,,,,50,64
33792,note_on,64,,,1,0,0,,,,,,,,69,75
33792,note_on,0,,,2,0,0,,,,,,,,50,75
33920,note_off,128,,,2,0,0,,,,,,,,50,64
33984,note_on,64,,,2,0,0,,,,,,,,50,75
34112,note_off,128,,,2,0,0,,,,,,,,50,64
34176,note_on,64,,,2,0,0,,,,,,,,50,75
34304,note_off,128,,,0,0,0,,,,,,,,78,64
34304,note_off,0,,,0,0,0,,,,,,,,74,64
34304,note_off,0,,,1,0,0,,,,,,,,69,64
34304,note_off,0,,,2,0,0,,,,,,,,50,64
34368,note_on,64,,,2,0,0,,,,,,,,50,75
34496,note_off,128,,,2,0,0,,,,,,,,50,64
34560,note_on,64,,,0,0,0,,,,,,,,74,75
34560,note_on,0,,,0,0,0,,,,,,,,74,75
34560,note_on,0,,,1,0,0,,,,,,,,67,75
34560,note_on,0,,,2,0,0,,,,,,,,43,75
34688,note_off,128,,,2,0,0,,,,,,,,43,64
34752,note_on,64,,,2,0,0,,,,,,,,43,75
34880,note_off,128,,,2,0,0,,,,,,,,43,64
34944,note_on,64,,,2,0,0,,,,,,,,43,75
35072,note_off,128,,,0,0,0,,,,,,,,74,64
35072,note_off,0,,,2,0,0,,,,,,,,43,64
35136,note_on,64,,,2,0,0,,,,,,,,43,75
35264,note_off,128,,,2,0,0,,,,,,,,43,64
35328,note_on,64,,,0,0,0,,,,,,,,71,75
35328,note_on,0,,,2,0,0,,,,,,,,43,75
35456,note_off,128,,,2,0,0,,,,,,,,43,64
35520,note_on,64,,,2,0,0,,,,,,,,43,75
35648,note_off,128,,,2,0,0,,,,,,,,43,64
35712,note_off,64,,,0,0,0,,,,,,,,74,64
35712,note_on,0,,,2,0,0,,,,,,,,43,75
35840,note_off,128,,,0,0,0,,,,,,,,71,64
35840,note_off,0,,,1,0,0,,,,,,,,67,64
35840,note_off,0,,,2,0,0,,,,,,,,43,64
35904,note_on,64,,,0,0,0,,,,,,,,79,75
35904,note_on,0,,,2,0,0,,,,,,,,43,75
36032,note_off,128,,,0,0,0,,,,,,,,79,64
36032,note_off,0,,,2,0,0,,,,,,,,43,64
36096,note_on,64,,,0,0,0,,,,,,,,76,75
36096,note_on,0,,,0,0,0,,,,,,,,73,75
36096,note_on,0,,,1,0,0,,,,,,,,69,75
36096,note_on,0,,,2,0,0,,,,,,,,45,75
36224,note_off,128,,,2,0,0,,,,,,,,45,64
36288,note_on,64,,,2,0,0,,,,,,,,45,75
36416,note_off,128,,,2,0,0,,,,,,,,45,64
36480,note_on,64,,,2,0,0,,,,,,,,45,75
36608,note_off,128,,,0,0,0,,,,,,,,76,64
36608,note_off,0,,,0,0,0,,,,,,,,73,64
36608,note_off,0,,,1,0,0,,,,,,,,69,64
36608,note_off,0,,,2,0,0,,,,,,,,45,64
36672,note_on,64,,,2,0,0,,,,,,,,45,75
36800,note_off,128,,,2,0,0,,,,,,,,45,64
36864,note_on,64,,,0,0,0,,,,,,,,78,75
36864,note_on,0,,,0,0,0,,,,,,,,74,75
36864,note_on,0,,,1,0,0,,,,,,,,69,75
36864,note_on,0,,,2,0,0,,,,,,,,50,75
36992,note_off,128,,,2,0,0,,,,,,,,50,64
37056,note_on,64,,,2,0,0,,,,,,,,50,75
37184,note_off,128,,,2,0,0,,,,,,,,50,64
37248,note_on,64,,,2,0,0,,,,,,,,50,75
37376,note_off,128,,,0,0,0,,,,,,,,78,64
37376,note_off,0,,,0,0,0,,,,,,,,74,64
37376,note_off,0,,,1,0,0,,,,,,,,69,64
37376,note_off,0,,,2,0,0,,,,,,,,50,64
37440,note_on,64,,,2,0,0,,,,,,,,50,75
37568,note_off,128,,,2,0,0,,,,,,,,50,64
37632,note_on,64,,,0,0,0,,,,,,,,76,75
37632,note_on,0,,,0,0,0,,,,,,,,73,75
37632,note_on,0,,,1,0,0,,,,,,,,69,75
37632,note_on,0,,,2,0,0,,,,,,,,45,75
37760,note_off,128,,,2,0,0,,,,,,,,45,64
37824,note_on,64,,,2,0,0,,,,,,,,45,75
37952,note_off,128,,,2,0,0,,,,,,,,45,64
38016,note_on,64,,,2,0,0,,,,,,,,45,75
38144,note_off,128,,,0,0,0,,,,,,,,76,64
38144,note_off,0,,,0,0,0,,,,,,,,73,64
38144,note_off,0,,,1,0,0,,,,,,,,69,64
38144,note_off,0,,,2,0,0,,,,,,,,45,64
38208,note_on,64,,,2,0,0,,,,,,,,45,75
38336,note_off,128,,,2,0,0,,,,,,,,45,64
38400,note_on,64,,,0,0,0,,,,,,,,78,75
38400,note_on,0,,,0,0,0,,,,,,,,74,75
38400,note_on,0,,,1,0,0,,,,,,,,69,75
38400,note_on,0,,,2,0,0,,,,,,,,50,75
38528,note_off,128,,,2,0,0,,,,,,,,50,64
38592,note_on,64,,,2,0,0,,,,,,,,50,75
38656,note_off,64,,,0,0,0,,,,,,,,78,64
38656,note_off,0,,,0,0,0,,,,,,,,74,64
38656,note_off,0,,,1,0,0,,,,,,,,69,64
38720,note_off,64,,,2,0,0,,,,,,,,50,64
38784,note_on,64,,,0,0,0,,,,,,,,76,75
38784,note_on,0,,,0,0,0,,,,,,,,73,75
38784,note_on,0,,,1,0,0,,,,,,,,69,75
38784,note_on,0,,,2,0,0,,,,,,,,45,75
38912,note_off,128,,,2,0,0,,,,,,,,45,64
38976,note_on,64,,,2,0,0,,,,,,,,45,75
39040,note_off,64,,,0,0,0,,,,,,,,76,64
39040,note_off,0,,,0,0,0,,,,,,,,73,64
39040,note_off,0,,,1,0,0,,,,,,,,69,64
39104,note_off,64,,,2,0,0,,,,,,,,45,64
39168,note_on,64,,,0,0,0,,,,,,,,78,75
39168,note_on,0,,,0,0,0,,,,,,,,74,75
39168,note_on,0,,,1,0,0,,,,,,,,69,75
39168,note_on,0,,,2,0,0,,,,,,,,50,75
39680,note_off,512,,,0,0,0,,,,,,,,78,64
39680,note_off,0,,,0,0,0,,,,,,,,74,64
39680,note_off,0,,,1,0,0,,,,,,,,69,64
39680,note_off,0,,,2,0,0,,,,,,,,50,64
39936,note_on,256,,,0,0,0,,,,,,,,76,75
39936,note_on,0,,,0,0,0,,,,,,,,73,75
39936,note_on,0,,,1,0,0,,,,,,,,67,75
39936,note_on,0,,,2,0,0,,,,,,,,52,75
40064,note_off,128,,,2,0,0,,,,,,,,52,64
40128,note_on,64,,,2,0,0,,,,,,,,52,75
40256,note_off,128,,,2,0,0,,,,,,,,52,64
40320,note_on,64,,,2,0,0,,,,,,,,52,75
40448,note_off,128,,,0,0,0,,,,,,,,76,64
40448,note_off,0,,,0,0,0,,,,,,,,73,64
40448,note_off,0,,,1,0,0,,,,,,,,67,64
40448,note_off,0,,,2,0,0,,,,,,,,52,64
40512,note_on,64,,,2,0,0,,,,,,,,52,75
40640,note_off,128,,,2,0,0,,,,,,,,52,64
40704,note_on,64,,,0,0,0,,,,,,,,73,75
40704,note_on,0,,,0,0,0,,,,,,,,70,75
40704,note_on,0,,,2,0,0,,,,,,,,54,75
40832,note_off,128,,,2,0,0,,,,,,,,54,64
40896,note_on,64,,,2,0,0,,,,,,,,54,75
41024,note_off,128,,,2,0,0,,,,,,,,54,64
41088,note_on,64,,,2,0,0,,,,,,,,54,75
41216,note_off,128,,,0,0,0,,,,,,,,73,64
41216,note_off,0,,,0,0,0,,,,,,,,70,64
41216,note_off,0,,,2,0,0,,,,,,,,54,64
41280,note_on,64,,,2,0,0,,,,,,,,54,75
41408,note_off,128,,,2,0,0,,,,,,,,54,64
41472,note_on,64,,,0,0,0,,,,,,,,74,75
41472,note_on,0,,,0,0,0,,,,,,,,71,75
41472,note_on,0,,,1,0,0,,,,,,,,66,75
41472,note_on,0,,,2,0,0,,,,,,,,47,75
41600,note_off,128,,,2,0,0,,,,,,,,47,64
41664,note_on,64,,,2,0,0,,,,,,,,47,75
41792,note_off,128,,,2,0,0,,,,,,,,47,64
41856,note_on,64,,,2,0,0,,,,,,,,47,75
41984,note_off,128,,,0,0,0,,,,,,,,74,64
41984,note_off,0,,,0,0,0,,,,,,,,71,64
41984,note_off,0,,,1,0,0,,,,,,,,66,64
41984,note_off,0,,,2,0,0,,,,,,,,47,64
42048,note_on,64,,,2,0,0,,,,,,,,47,75
42176,note_off,128,,,2,0,0,,,,,,,,47,64
42240,note_on,64,,,0,0,0,,,,,,,,78,75
42240,note_on,0,,,0,0,0,,,,,,,,74,75
42240,note_on,0,,,1,0,0,,,,,,,,71,75
42240,note_on,0,,,2,0,0,,,,,,,,47,75
42368,note_off,128,,,2,0,0,,,,,,,,47,64
42432,note_on,64,,,2,0,0,,,,,,,,47,75
42560,note_off,128,,,2,0,0,,,,,,,,47,64
42624,note_on,64,,,2,0,0,,,,,,,,47,75
42752,note_off,128,,,2,0,0,,,,,,,,47,64
42816,note_on,64,,,2,0,0,,,,,,,,47,75
42944,note_off,128,,,2,0,0,,,,,,,,47,64
43008,note_on,64,,,2,0,0,,,,,,,,47,75
43136,note_off,128,,,2,0,0,,,,,,,,47,64
43200,note_on,64,,,2,0,0,,,,,,,,47,75
43328,note_off,128,,,2,0,0,,,,,,,,47,64
43392,note_on,64,,,2,0,0,,,,,,,,47,75
43520,note_off,128,,,2,0,0,,,,,,,,47,64
43584,note_on,64,,,2,0,0,,,,,,,,47,75
43712,note_off,128,,,2,0,0,,,,,,,,47,64
43776,note_on,64,,,2,0,0,,,,,,,,47,75
43840,note_off,64,,,1,0,0,,,,,,,,71,64
43872,note_on,32,,,1,0,0,,,,,,,,74,75
43904,note_off,32,,,0,0,0,,,,,,,,78,64
43904,note_off,0,,,0,0,0,,,,,,,,74,64
43904,note_off,0,,,2,0,0,,,,,,,,47,64
43936,note_off,32,,,1,0,0,,,,,,,,74,64
43968,note_on,32,,,0,0,0,,,,,,,,74,75
43968,note_on,0,,,0,0,0,,,,,,,,71,75
43968,note_on,0,,,1,0,0,,,,,,,,73,75
43968,note_on,0,,,2,0,0,,,,,,,,47,75
44032,note_off,64,,,1,0,0,,,,,,,,73,64
44064,note_on,32,,,1,0,0,,,,,,,,71,75
44096,note_off,32,,,0,0,0,,,,,,,,74,64
44096,note_off,0,,,0,0,0,,,,,,,,71,64
44096,note_off,0,,,2,0,0,,,,,,,,47,64
44128,note_off,32,,,1,0,0,,,,,,,,71,64
44160,note_on,32,,,0,0,0,,,,,,,,73,75
44160,note_on,0,,,0,0,0,,,,,,,,70,75
44160,note_on,0,,,1,0,0,,,,,,,,70,75
44160,note_on,0,,,2,0,0,,,,,,,,47,75
44288,note_off,128,,,2,0,0,,,,,,,,47,64
44352,note_off,64,,,1,0,0,,,,,,,,70,64
44352,note_on,0,,,2,0,0,,,,,,,,47,75
44416,note_off,64,,,0,0,0,,,,,,,,73,64
44416,note_off,0,,,0,0,0,,,,,,,,70,64
44448,note_on,32,,,1,0,0,,,,,,,,71,75
44480,note_off,32,,,2,0,0,,,,,,,,47,64
44512,note_off,32,,,1,0,0,,,,,,,,71,64
44544,note_on,32,,,0,0,0,,,,,,,,74,75
44544,note_on,0,,,0,0,0,,,,,,,,66,75
44544,note_on,0,,,1,0,0,,,,,,,,71,75
44544,note_on,0,,,2,0,0,,,,,,,,47,75
44672,note_off,128,,,2,0,0,,,,,,,,47,64
44736,note_on,64,,,2,0,0,,,,,,,,47,75
44864,note_off,128,,,2,0,0,,,,,,,,47,64
44928,note_on,64,,,2,0,0,,,,,,,,47,75
45056,note_off,128,,,0,0,0,,,,,,,,74,64
45056,note_off,0,,,0,0,0,,,,,,,,66,64
45056,note_off,0,,,1,0,0,,,,,,,,71,64
45056,note_off,0,,,2,0,0,,,,,,,,47,64
45120,note_on,64,,,2,0,0,,,,,,,,47,75
45248,note_off,128,,,2,0,0,,,,,,,,47,64
45312,note_on,64,,,0,0,0,,,,,,,,78,75
45312,note_on,0,,,0,0,0,,,,,,,,74,75
45312,note_on,0,,,1,0,0,,,,,,,,69,75
45312,note_on,0,,,2,0,0,,,,,,,,50,75
45440,note_off,128,,,2,0,0,,,,,,,,50,64
45504,note_on,64,,,2,0,0,,,,,,,,50,75
45632,note_off,128,,,2,0,0,,,,,,,,50,64
45696,note_on,64,,,2,0,0,,,,,,,,50,75
45824,note_off,128,,,0,0,0,,,,,,,,78,64
45824,note_off,0,,,0,0,0,,,,,,,,74,64
45824,note_off,0,,,1,0,0,,,,,,,,69,64
45824,note_off,0,,,2,0,0,,,,,,,,50,64
45888,note_on,64,,,2,0,0,,,,,,,,50,75
46016,note_off,128,,,2,0,0,,,,,,,,50,64
46080,note_on,64,,,0,0,0,,,,,,,,76,75
46080,note_on,0,,,0,0,0,,,,,,,,73,75
46080,note_on,0,,,1,0,0,,,,,,,,69,75
46080,note_on,0,,,2,0,0,,,,,,,,45,75
46208,note_off,128,,,2,0,0,,,,,,,,45,64
46272,note_on,64,,,2,0,0,,,,,,,,45,75
46400,note_off,128,,,2,0,0,,,,,,,,45,64
46464,note_on,64,,,2,0,0,,,,,,,,45,75
46592,note_off,128,,,0,0,0,,,,,,,,76,64
46592,note_off,0,,,0,0,0,,,,,,,,73,64
46592,note_off,0,,,1,0,0,,,,,,,,69,64
46592,note_off,0,,,2,0,0,,,,,,,,45,64
46656,note_on,64,,,2,0,0,,,,,,,,45,75
46784,note_off,128,,,2,0,0,,,,,,,,45,64
46848,note_on,64,,,0,0,0,,,,,,,,78,75
46848,note_on,0,,,0,0,0,,,,,,,,74,75
46848,note_on,0,,,1,0,0,,,,,,,,69,75
46848,note_on,0,,,2,0,0,,,,,,,,50,75
46976,note_off,128,,,2,0,0,,,,,,,,50,64
47040,note_on,64,,,2,0,0,,,,,,,,50,75
47168,note_off,128,,,2,0,0,,,,,,,,50,64
47232,note_on,64,,,2,0,0,,,,,,,,50,75
47360,note_off,128,,,1,0,0,,,,,,,,69,64
47360,note_off,0,,,2,0,0,,,,,,,,50,64
47424,note_on,64,,,2,0,0,,,,,,,,50,75
47552,note_off,128,,,2,0,0,,,,,,,,50,64
47616,note_on,64,,,1,0,0,,,,,,,,69,75
47616,note_on,0,,,2,0,0,,,,,,,,50,75
47744,note_off,128,,,2,0,0,,,,,,,,50,64
47808,note_on,64,,,2,0,0,,,,,,,,50,75
47936,note_off,128,,,2,0,0,,,,,,,,50,64
48000,note_on,64,,,2,0,0,,,,,,,,50,75
48128,note_off,128,,,0,0,0,,,,,,,,78,64
48128,note_off,0,,,0,0,0,,,,,,,,74,64
48128,note_off,0,,,1,0,0,,,,,,,,69,64
48128,note_off,0,,,2,0,0,,,,,,,,50,64
48192,note_on,64,,,2,0,0,,,,,,,,50,75
48320,note_off,128,,,2,0,0,,,,,,,,50,64
48384,note_on,64,,,0,0,0,,,,,,,,74,75
48384,note_on,0,,,0,0,0,,,,,,,,74,75
48384,note_on,0,,,1,0,0,,,,,,,,67,75
48384,note_on,0,,,2,0,0,,,,,,,,43,75
48512,note_off,128,,,2,0,0,,,,,,,,43,64
48576,note_on,64,,,2,0,0,,,,,,,,43,75
48704,note_off,128,,,2,0,0,,,,,,,,43,64
48768,note_on,64,,,2,0,0,,,,,,,,43,75
48896,note_off,128,,,0,0,0,,,,,,,,74,64
48896,note_off,0,,,2,0,0,,,,,,,,43,64
48960,note_on,64,,,2,0,0,,,,,,,,43,75
49088,note_off,128,,,2,0,0,,,,,,,,43,64
49152,note_on,64,,,0,0,0,,,,,,,,71,75
49152,note_on,0,,,2,0,0,,,,,,,,43,75
49280,note_off,128,,,2,0,0,,,,,,,,43,64
49344,note_on,64,,,2,0,0,,,,,,,,43,75
49472,note_off,128,,,2,0,0,,,,,,,,43,64
49536,note_off,64,,,0,0,0,,,,,,,,74,64
49536,note_on,0,,,2,0,0,,,,,,,,43,75
49664,note_off,128,,,0,0,0,,,,,,,,71,64
49664,note_off,0,,,1,0,0,,,,,,,,67,64
49664,note_off,0,,,2,0,0,,,,,,,,43,64
49728,note_on,64,,,0,0,0,,,,,,,,79,75
49728,note_on,0,,,2,0,0,,,,,,,,43,75
49856,note_off,128,,,0,0,0,,,,,,,,79,64
49856,note_off,0,,,2,0,0,,,,,,,,43,64
49920,note_on,64,,,0,0,0,,,,,,,,76,75
49920,note_on,0,,,0,0,0,,,,,,,,73,75
49920,note_on,0,,,1,0,0,,,,,,,,69,75
49920,note_on,0,,,2,0,0,,,,,,,,45,75
50048,note_off,128,,,2,0,0,,,,,,,,45,64
50112,note_on,64,,,2,0,0,,,,,,,,45,75
50240,note_off,128,,,2,0,0,,,,,,,,45,64
50304,note_on,64,,,2,0,0,,,,,,,,45,75
50432,note_off,128,,,0,0,0,,,,,,,,76,64
50432,note_off,0,,,0,0,0,,,,,,,,73,64
50432,note_off,0,,,1,0,0,,,,,,,,69,64
50432,note_off,0,,,2,0,0,,,,,,,,45,64
50496,note_on,64,,,2,0,0,,,,,,,,45,75
50624,note_off,128,,,2,0,0,,,,,,,,45,64
50688,note_on,64,,,0,0,0,,,,,,,,78,75
50688,note_on,0,,,0,0,0,,,,,,,,74,75
50688,note_on,0,,,1,0,0,,,,,,,,69,75
50688,note_on,0,,,2,0,0,,,,,,,,50,75
50816,note_off,128,,,2,0,0,,,,,,,,50,64
50880,note_on,64,,,2,0,0,,,,,,,,50,75
51008,note_off,128,,,2,0,0,,,,,,,,50,64
51072,note_on,64,,,2,0,0,,,,,,,,50,75
51200,note_off,128,,,0,0,0,,,,,,,,78,64
51200,note_off,0,,,0,0,0,,,,,,,,74,64
51200,note_off,0,,,1,0,0,,,,,,,,69,64
51200,note_off,0,,,2,0,0,,,,,,,,50,64
51264,note_on,64,,,2,0,0,,,,,,,,50,75
51392,note_off,128,,,2,0,0,,,,,,,,50,64
51456,note_on,64,,,0,0,0,,,,,,,,76,75
51456,note_on,0,,,0,0,0,,,,,,,,73,75
51456,note_on,0,,,1,0,0,,,,,,,,69,75
51456,note_on,0,,,2,0,0,,,,,,,,45,75
51584,note_off,128,,,2,0,0,,,,,,,,45,64
51648,note_on,64,,,2,0,0,,,,,,,,45,75
51776,note_off,128,,,2,0,0,,,,,,,,45,64
51840,note_on,64,,,2,0,0,,,,,,,,45,75
51968,note_off,128,,,0,0,0,,,,,,,,76,64
51968,note_off,0,,,0,0,0,,,,,,,,73,64
51968,note_off,0,,,1,0,0,,,,,,,,69,64
51968,note_off,0,,,2,0,0,,,,,,,,45,64
52032,note_on,64,,,2,0,0,,,,,,,,45,75
52160,note_off,128,,,2,0,0,,,,,,,,45,64
52224,note_on,64,,,0,0,0,,,,,,,,78,75
52224,note_on,0,,,0,0,0,,,,,,,,74,75
52224,note_on,0,,,1,0,0,,,,,,,,69,75
52224,note_on,0,,,2,0,0,,,,,,,,50,75
52352,note_off,128,,,2,0,0,,,,,,,,50,64
52416,note_on,64,,,2,0,0,,,,,,,,50,100
52480,note_off,64,,,0,0,0,,,,,,,,78,64
52480,note_off,0,,,0,0,0,,,,,,,,74,64
52480,note_off,0,,,1,0,0,,,,,,,,69,64
52544,note_off,64,,,2,0,0,,,,,,,,50,64
52608,note_on,64,,,0,0,0,,,,,,,,76,75
52608,note_on,0,,,0,0,0,,,,,,,,73,100
52608,note_on,0,,,1,0,0,,,,,,,,69,100
52608,note_on,0,,,2,0,0,,,,,,,,45,100
52736,note_off,128,,,2,0,0,,,,,,,,45,64
52800,note_on,64,,,2,0,0,,,,,,,,45,100
52864,note_off,64,,,0,0,0,,,,,,,,76,64
52864,note_off,0,,,0,0,0,,,,,,,,73,64
52864,note_off,0,,,1,0,0,,,,,,,,69,64
52928,note_off,64,,,2,0,0,,,,,,,,45,64
52992,note_on,64,,,0,0,0,,,,,,,,78,75
52992,note_on,0,,,0,0,0,,,,,,,,74,100
52992,note_on,0,,,1,0,0,,,,,,,,69,100
52992,note_on,0,,,2,0,0,,,,,,,,50,100
53504,note_off,512,,,0,0,0,,,,,,,,78,64
53504,note_off,0,,,0,0,0,,,,,,,,74,64
53504,note_off,0,,,1,0,0,,,,,,,,69,64
53504,note_off,0,,,2,0,0,,,,,,,,50,64
58368,set_tempo,4864,,,,1,0,,,,,,,3000000,,
58368,end_of_track,0,,,,1,0,,,,,,,,,
