tick,type,time,control,value,channel,meta,track,program,numerator,denominator,clocks_per_click,notated_32nd_notes_per_beat,data,tempo,note,velocity
0,control_change,0,0,0,0,0,0,,,,,,,,,
0,program_change,0,,,0,0,0,40,,,,,,,,
0,control_change,0,0,0,0,0,0,,,,,,,,,
0,program_change,0,,,0,0,0,40,,,,,,,,
0,control_change,0,0,0,1,0,0,,,,,,,,,
0,program_change,0,,,1,0,0,41,,,,,,,,
0,control_change,0,0,0,2,0,0,,,,,,,,,
0,program_change,0,,,2,0,0,43,,,,,,,,
0,time_signature,0,,,,1,0,,4,4,96,8,,,,
0,sequencer_specific,0,,,,1,0,,,,,,"(0, 0, 65)",,,
0,set_tempo,0,,,,1,0,,,,,,,666666,,
0,note_on,0,,,0,0,0,,,,,,,,78,100
0,note_on,0,,,0,0,0,,,,,,,,81,100
0,note_on,0,,,1,0,0,,,,,,,,69,43
0,note_on,0,,,2,0,0,,,,,,,,50,100
48,note_off,48,,,0,0,0,,,,,,,,78,64
48,note_on,0,,,0,0,0,,,,,,,,76,100
48,note_off,0,,,0,0,0,,,,,,,,81,64
48,note_on,0,,,0,0,0,,,,,,,,79,100
100,note_off,52,,,0,0,0,,,,,,,,76,64
100,note_on,0,,,0,0,0,,,,,,,,74,100
100,note_off,0,,,0,0,0,,,,,,,,79,64
100,note_on,0,,,0,0,0,,,,,,,,78,100
128,note_off,28,,,2,0,0,,,,,,,,50,64
192,note_on,64,,,2,0,0,,,,,,,,50,100
256,note_off,64,,,1,0,0,,,,,,,,69,27
320,note_off,64,,,2,0,0,,,,,,,,50,64
384,note_on,64,,,0,0,0,,,,,,,,78,100
384,note_on,0,,,0,0,0,,,,,,,,81,100
384,note_on,0,,,1,0,0,,,,,,,,62,43
384,note_on,0,,,2,0,0,,,,,,,,50,100
400,note_off,16,,,0,0,0,,,,,,,,74,64
400,note_off,0,,,0,0,0,,,,,,,,78,64
432,note_off,32,,,0,0,0,,,,,,,,78,64
432,note_on,0,,,0,0,0,,,,,,,,76,100
432,note_off,0,,,0,0,0,,,,,,,,81,64
432,note_on,0,,,0,0,0,,,,,,,,79,100
484,note_off,52,,,0,0,0,,,,,,,,76,64
484,note_on,0,,,0,0,0,,,,,,,,74,100
484,note_off,0,,,0,0,0,,,,,,,,79,64
484,note_on,0,,,0,0,0,,,,,,,,78,100
512,note_off,28,,,2,0,0,,,,,,,,50,64
576,note_on,64,,,2,0,0,,,,,,,,50,100
640,note_off,64,,,1,0,0,,,,,,,,62,27
704,note_off,64,,,2,0,0,,,,,,,,50,64
768,note_on,64,,,0,0,0,,,,,,,,81,100
768,note_on,0,,,0,0,0,,,,,,,,76,100
768,note_on,0,,,1,0,0,,,,,,,,64,43
768,note_on,0,,,2,0,0,,,,,,,,49,100
784,note_off,16,,,0,0,0,,,,,,,,74,64
784,note_off,0,,,0,0,0,,,,,,,,78,64
896,note_off,112,,,0,0,0,,,,,,,,81,64
896,note_off,0,,,0,0,0,,,,,,,,76,64
896,note_off,0,,,1,0,0,,,,,,,,64,27
896,note_off,0,,,2,0,0,,,,,,,,49,64
960,note_on,64,,,0,0,0,,,,,,,,69,100
960,note_on,0,,,0,0,0,,,,,,,,69,100
960,note_on,0,,,1,0,0,,,,,,,,61,43
960,note_on,0,,,2,0,0,,,,,,,,49,100
1088,note_off,128,,,0,0,0,,,,,,,,69,64
1088,note_off,0,,,0,0,0,,,,,,,,69,64
1088,note_off,0,,,1,0,0,,,,,,,,61,27
1088,note_off,0,,,2,0,0,,,,,,,,49,64
1152,note_on,64,,,0,0,0,,,,,,,,69,100
1152,note_on,0,,,0,0,0,,,,,,,,69,100
1152,note_on,0,,,1,0,0,,,,,,,,61,43
1152,note_on,0,,,2,0,0,,,,,,,,49,100
1280,note_off,128,,,0,0,0,,,,,,,,69,64
1280,note_off,0,,,0,0,0,,,,,,,,69,64
1280,note_off,0,,,1,0,0,,,,,,,,61,27
1280,note_off,0,,,2,0,0,,,,,,,,49,64
1344,note_on,64,,,0,0,0,,,,,,,,69,100
1344,note_on,0,,,0,0,0,,,,,,,,69,100
1344,note_on,0,,,1,0,0,,,,,,,,61,43
1344,note_on,0,,,2,0,0,,,,,,,,49,100
1472,note_off,128,,,0,0,0,,,,,,,,69,64
1472,note_off,0,,,0,0,0,,,,,,,,69,64
1472,note_off,0,,,1,0,0,,,,,,,,61,27
1472,note_off,0,,,2,0,0,,,,,,,,49,64
1536,note_on,64,,,0,0,0,,,,,,,,78,100
1536,note_on,0,,,0,0,0,,,,,,,,81,100
1536,note_on,0,,,1,0,0,,,,,,,,69,43
1536,note_on,0,,,2,0,0,,,,,,,,50,100
1584,note_off,48,,,0,0,0,,,,,,,,78,64
1584,note_on,0,,,0,0,0,,,,,,,,76,100
1584,note_off,0,,,0,0,0,,,,,,,,81,64
1584,note_on,0,,,0,0,0,,,,,,,,79,100
1636,note_off,52,,,0,0,0,,,,,,,,76,64
1636,note_on,0,,,0,0,0,,,,,,,,74,100
1636,note_off,0,,,0,0,0,,,,,,,,79,64
1636,note_on,0,,,0,0,0,,,,,,,,78,100
1664,note_off,28,,,2,0,0,,,,,,,,50,64
1728,note_on,64,,,2,0,0,,,,,,,,50,100
1792,note_off,64,,,1,0,0,,,,,,,,69,27
1856,note_off,64,,,2,0,0,,,,,,,,50,64
1920,note_on,64,,,0,0,0,,,,,,,,78,100
1920,note_on,0,,,0,0,0,,,,,,,,81,100
1920,note_on,0,,,1,0,0,,,,,,,,62,43
1920,note_on,0,,,2,0,0,,,,,,,,50,100
1936,note_off,16,,,0,0,0,,,,,,,,74,64
1936,note_off,0,,,0,0,0,,,,,,,,78,64
1968,note_off,32,,,0,0,0,,,,,,,,78,64
1968,note_on,0,,,0,0,0,,,,,,,,76,100
1968,note_off,0,,,0,0,0,,,,,,,,81,64
1968,note_on,0,,,0,0,0,,,,,,,,79,100
2020,note_off,52,,,0,0,0,,,,,,,,76,64
2020,note_on,0,,,0,0,0,,,,,,,,74,100
2020,note_off,0,,,0,0,0,,,,,,,,79,64
2020,note_on,0,,,0,0,0,,,,,,,,78,100
2048,note_off,28,,,2,0,0,,,,,,,,50,64
2112,note_on,64,,,2,0,0,,,,,,,,50,100
2176,note_off,64,,,1,0,0,,,,,,,,62,27
2240,note_off,64,,,2,0,0,,,,,,,,50,64
2304,note_on,64,,,0,0,0,,,,,,,,81,100
2304,note_on,0,,,0,0,0,,,,,,,,76,100
2304,note_on,0,,,1,0,0,,,,,,,,64,43
2304,note_on,0,,,2,0,0,,,,,,,,49,100
2320,note_off,16,,,0,0,0,,,,,,,,74,64
2320,note_off,0,,,0,0,0,,,,,,,,78,64
2432,note_off,112,,,0,0,0,,,,,,,,81,64
2432,note_off,0,,,0,0,0,,,,,,,,76,64
2432,note_off,0,,,1,0,0,,,,,,,,64,27
2432,note_off,0,,,2,0,0,,,,,,,,49,64
2496,note_on,64,,,0,0,0,,,,,,,,69,100
2496,note_on,0,,,0,0,0,,,,,,,,69,100
2496,note_on,0,,,1,0,0,,,,,,,,61,43
2496,note_on,0,,,2,0,0,,,,,,,,49,100
2624,note_off,128,,,0,0,0,,,,,,,,69,64
2624,note_off,0,,,0,0,0,,,,,,,,69,64
2624,note_off,0,,,1,0,0,,,,,,,,61,27
2624,note_off,0,,,2,0,0,,,,,,,,49,64
2688,note_on,64,,,0,0,0,,,,,,,,69,100
2688,note_on,0,,,0,0,0,,,,,,,,69,100
2688,note_on,0,,,1,0,0,,,,,,,,61,43
2688,note_on,0,,,2,0,0,,,,,,,,49,100
2816,note_off,128,,,0,0,0,,,,,,,,69,64
2816,note_off,0,,,0,0,0,,,,,,,,69,64
2816,note_off,0,,,1,0,0,,,,,,,,61,27
2816,note_off,0,,,2,0,0,,,,,,,,49,64
2880,note_on,64,,,0,0,0,,,,,,,,69,100
2880,note_on,0,,,0,0,0,,,,,,,,69,100
2880,note_on,0,,,1,0,0,,,,,,,,61,43
2880,note_on,0,,,2,0,0,,,,,,,,49,100
3008,note_off,128,,,0,0,0,,,,,,,,69,64
3008,note_off,0,,,0,0,0,,,,,,,,69,64
3008,note_off,0,,,1,0,0,,,,,,,,61,27
3008,note_off,0,,,2,0,0,,,,,,,,49,64
3072,note_on,64,,,0,0,0,,,,,,,,81,100
3072,note_on,0,,,0,0,0,,,,,,,,78,100
3072,note_on,0,,,1,0,0,,,,,,,,62,43
3072,note_on,0,,,2,0,0,,,,,,,,50,100
3120,note_off,48,,,0,0,0,,,,,,,,81,64
3120,note_on,0,,,0,0,0,,,,,,,,78,100
3120,note_off,0,,,0,0,0,,,,,,,,78,64
3120,note_on,0,,,0,0,0,,,,,,,,76,100
3172,note_off,52,,,0,0,0,,,,,,,,78,64
3172,note_on,0,,,0,0,0,,,,,,,,78,100
3172,note_off,0,,,0,0,0,,,,,,,,76,64
3172,note_on,0,,,0,0,0,,,,,,,,74,100
3200,note_off,28,,,2,0,0,,,,,,,,50,64
3264,note_on,64,,,2,0,0,,,,,,,,50,100
3328,note_off,64,,,1,0,0,,,,,,,,62,27
3392,note_off,64,,,2,0,0,,,,,,,,50,64
3456,note_on,64,,,0,0,0,,,,,,,,81,100
3456,note_on,0,,,0,0,0,,,,,,,,78,100
3456,note_on,0,,,1,0,0,,,,,,,,66,43
3456,note_on,0,,,2,0,0,,,,,,,,50,100
3472,note_off,16,,,0,0,0,,,,,,,,78,64
3472,note_off,0,,,0,0,0,,,,,,,,74,64
3504,note_off,32,,,0,0,0,,,,,,,,81,64
3504,note_on,0,,,0,0,0,,,,,,,,79,100
3504,note_off,0,,,0,0,0,,,,,,,,78,64
3504,note_on,0,,,0,0,0,,,,,,,,76,100
3520,note_off,16,,,2,0,0,,,,,,,,50,64
3552,note_on,32,,,2,0,0,,,,,,,,52,100
3556,note_off,4,,,0,0,0,,,,,,,,79,64
3556,note_on,0,,,0,0,0,,,,,,,,78,100
3556,note_off,0,,,0,0,0,,,,,,,,76,64
3556,note_on,0,,,0,0,0,,,,,,,,74,100
3616,note_off,60,,,2,0,0,,,,,,,,52,64
3648,note_on,32,,,2,0,0,,,,,,,,54,100
3712,note_off,64,,,1,0,0,,,,,,,,66,27
3712,note_off,0,,,2,0,0,,,,,,,,54,64
3744,note_on,32,,,2,0,0,,,,,,,,55,100
3808,note_off,64,,,2,0,0,,,,,,,,55,64
3840,note_on,32,,,0,0,0,,,,,,,,76,100
3840,note_on,0,,,0,0,0,,,,,,,,73,100
3840,note_on,0,,,1,0,0,,,,,,,,69,43
3840,note_on,0,,,2,0,0,,,,,,,,57,100
3856,note_off,16,,,0,0,0,,,,,,,,78,64
3856,note_off,0,,,0,0,0,,,,,,,,74,64
4096,note_off,240,,,0,0,0,,,,,,,,76,64
4096,note_off,0,,,0,0,0,,,,,,,,73,64
4096,note_off,0,,,1,0,0,,,,,,,,69,27
4096,note_off,0,,,2,0,0,,,,,,,,57,64
4608,note_on,512,,,0,0,0,,,,,,,,81,100
4608,note_on,0,,,0,0,0,,,,,,,,81,100
4608,note_on,0,,,1,0,0,,,,,,,,76,43
4608,note_on,0,,,2,0,0,,,,,,,,54,100
4656,note_off,48,,,0,0,0,,,,,,,,81,64
4656,note_on,0,,,0,0,0,,,,,,,,79,100
4656,note_off,0,,,0,0,0,,,,,,,,81,64
4656,note_on,0,,,0,0,0,,,,,,,,79,100
4708,note_off,52,,,0,0,0,,,,,,,,79,64
4708,note_on,0,,,0,0,0,,,,,,,,78,100
4708,note_off,0,,,0,0,0,,,,,,,,79,64
4708,note_on,0,,,0,0,0,,,,,,,,78,100
4736,note_off,28,,,2,0,0,,,,,,,,54,64
4800,note_on,64,,,2,0,0,,,,,,,,50,100
4864,note_off,64,,,1,0,0,,,,,,,,76,27
4928,note_off,64,,,2,0,0,,,,,,,,50,64
4992,note_on,64,,,0,0,0,,,,,,,,81,100
4992,note_on,0,,,0,0,0,,,,,,,,81,100
4992,note_on,0,,,1,0,0,,,,,,,,76,43
4992,note_on,0,,,2,0,0,,,,,,,,54,100
5008,note_off,16,,,0,0,0,,,,,,,,78,64
5008,note_off,0,,,0,0,0,,,,,,,,78,64
5040,note_off,32,,,0,0,0,,,,,,,,81,64
5040,note_on,0,,,0,0,0,,,,,,,,79,100
5040,note_off,0,,,0,0,0,,,,,,,,81,64
5040,note_on,0,,,0,0,0,,,,,,,,79,100
5092,note_off,52,,,0,0,0,,,,,,,,79,64
5092,note_on,0,,,0,0,0,,,,,,,,78,100
5092,note_off,0,,,0,0,0,,,,,,,,79,64
5092,note_on,0,,,0,0,0,,,,,,,,78,100
5120,note_off,28,,,2,0,0,,,,,,,,54,64
5184,note_on,64,,,2,0,0,,,,,,,,50,100
5248,note_off,64,,,1,0,0,,,,,,,,76,27
5312,note_off,64,,,2,0,0,,,,,,,,50,64
5376,note_on,64,,,0,0,0,,,,,,,,74,100
5376,note_on,0,,,0,0,0,,,,,,,,74,100
5376,note_on,0,,,1,0,0,,,,,,,,73,43
5376,note_on,0,,,2,0,0,,,,,,,,59,100
5392,note_off,16,,,0,0,0,,,,,,,,78,64
5392,note_off,0,,,0,0,0,,,,,,,,78,64
5424,note_off,32,,,0,0,0,,,,,,,,74,64
5424,note_on,0,,,0,0,0,,,,,,,,73,100
5424,note_off,0,,,0,0,0,,,,,,,,74,64
5424,note_on,0,,,0,0,0,,,,,,,,73,100
5476,note_off,52,,,0,0,0,,,,,,,,73,64
5476,note_on,0,,,0,0,0,,,,,,,,71,100
5476,note_off,0,,,0,0,0,,,,,,,,73,64
5476,note_on,0,,,0,0,0,,,,,,,,71,100
5504,note_off,28,,,2,0,0,,,,,,,,59,64
5568,note_on,64,,,2,0,0,,,,,,,,55,100
5632,note_off,64,,,1,0,0,,,,,,,,73,27
5696,note_off,64,,,2,0,0,,,,,,,,55,64
5760,note_on,64,,,0,0,0,,,,,,,,74,100
5760,note_on,0,,,0,0,0,,,,,,,,74,100
5760,note_on,0,,,1,0,0,,,,,,,,71,43
5760,note_on,0,,,2,0,0,,,,,,,,59,100
5776,note_off,16,,,0,0,0,,,,,,,,71,64
5776,note_off,0,,,0,0,0,,,,,,,,71,64
5808,note_off,32,,,0,0,0,,,,,,,,74,64
5808,note_on,0,,,0,0,0,,,,,,,,73,100
5808,note_off,0,,,0,0,0,,,,,,,,74,64
5808,note_on,0,,,0,0,0,,,,,,,,73,100
5860,note_off,52,,,0,0,0,,,,,,,,73,64
5860,note_on,0,,,0,0,0,,,,,,,,71,100
5860,note_off,0,,,0,0,0,,,,,,,,73,64
5860,note_on,0,,,0,0,0,,,,,,,,71,100
5888,note_off,28,,,2,0,0,,,,,,,,59,64
5952,note_on,64,,,2,0,0,,,,,,,,55,100
6016,note_off,64,,,1,0,0,,,,,,,,71,27
6080,note_off,64,,,2,0,0,,,,,,,,55,64
6144,note_on,64,,,0,0,0,,,,,,,,79,100
6144,note_on,0,,,0,0,0,,,,,,,,79,100
6144,note_on,0,,,1,0,0,,,,,,,,73,43
6144,note_on,0,,,2,0,0,,,,,,,,52,100
6160,note_off,16,,,0,0,0,,,,,,,,71,64
6160,note_off,0,,,0,0,0,,,,,,,,71,64
6192,note_off,32,,,0,0,0,,,,,,,,79,64
6192,note_on,0,,,0,0,0,,,,,,,,78,100
6192,note_off,0,,,0,0,0,,,,,,,,79,64
6192,note_on,0,,,0,0,0,,,,,,,,78,100
6244,note_off,52,,,0,0,0,,,,,,,,78,64
6244,note_on,0,,,0,0,0,,,,,,,,76,100
6244,note_off,0,,,0,0,0,,,,,,,,78,64
6244,note_on,0,,,0,0,0,,,,,,,,76,100
6272,note_off,28,,,2,0,0,,,,,,,,52,64
6336,note_on,64,,,2,0,0,,,,,,,,49,100
6400,note_off,64,,,1,0,0,,,,,,,,73,27
6464,note_off,64,,,2,0,0,,,,,,,,49,64
6528,note_on,64,,,0,0,0,,,,,,,,79,100
6528,note_on,0,,,0,0,0,,,,,,,,79,100
6528,note_on,0,,,1,0,0,,,,,,,,69,43
6528,note_on,0,,,2,0,0,,,,,,,,52,100
6544,note_off,16,,,0,0,0,,,,,,,,76,64
6544,note_off,0,,,0,0,0,,,,,,,,76,64
6576,note_off,32,,,0,0,0,,,,,,,,79,64
6576,note_on,0,,,0,0,0,,,,,,,,78,100
6576,note_off,0,,,0,0,0,,,,,,,,79,64
6576,note_on,0,,,0,0,0,,,,,,,,78,100
6628,note_off,52,,,0,0,0,,,,,,,,78,64
6628,note_on,0,,,0,0,0,,,,,,,,76,100
6628,note_off,0,,,0,0,0,,,,,,,,78,64
6628,note_on,0,,,0,0,0,,,,,,,,76,100
6656,note_off,28,,,2,0,0,,,,,,,,52,64
6720,note_on,64,,,2,0,0,,,,,,,,49,100
6784,note_off,64,,,1,0,0,,,,,,,,69,27
6848,note_off,64,,,2,0,0,,,,,,,,49,64
6912,note_on,64,,,0,0,0,,,,,,,,73,100
6912,note_on,0,,,0,0,0,,,,,,,,73,100
6912,note_on,0,,,1,0,0,,,,,,,,67,43
6912,note_on,0,,,2,0,0,,,,,,,,57,100
6928,note_off,16,,,0,0,0,,,,,,,,76,64
6928,note_off,0,,,0,0,0,,,,,,,,76,64
6960,note_off,32,,,0,0,0,,,,,,,,73,64
6960,note_on,0,,,0,0,0,,,,,,,,71,100
6960,note_off,0,,,0,0,0,,,,,,,,73,64
6960,note_on,0,,,0,0,0,,,,,,,,71,100
7012,note_off,52,,,0,0,0,,,,,,,,71,64
7012,note_on,0,,,0,0,0,,,,,,,,69,100
7012,note_off,0,,,0,0,0,,,,,,,,71,64
7012,note_on,0,,,0,0,0,,,,,,,,69,100
7040,note_off,28,,,2,0,0,,,,,,,,57,64
7104,note_on,64,,,2,0,0,,,,,,,,45,100
7168,note_off,64,,,1,0,0,,,,,,,,67,27
7232,note_off,64,,,2,0,0,,,,,,,,45,64
7296,note_on,64,,,0,0,0,,,,,,,,73,100
7296,note_on,0,,,0,0,0,,,,,,,,73,100
7296,note_on,0,,,1,0,0,,,,,,,,64,43
7296,note_on,0,,,2,0,0,,,,,,,,57,100
7312,note_off,16,,,0,0,0,,,,,,,,69,64
7312,note_off,0,,,0,0,0,,,,,,,,69,64
7344,note_off,32,,,0,0,0,,,,,,,,73,64
7344,note_on,0,,,0,0,0,,,,,,,,71,100
7344,note_off,0,,,0,0,0,,,,,,,,73,64
7344,note_on,0,,,0,0,0,,,,,,,,71,100
7396,note_off,52,,,0,0,0,,,,,,,,71,64
7396,note_on,0,,,0,0,0,,,,,,,,69,100
7396,note_off,0,,,0,0,0,,,,,,,,71,64
7396,note_on,0,,,0,0,0,,,,,,,,69,100
7424,note_off,28,,,2,0,0,,,,,,,,57,64
7488,note_on,64,,,2,0,0,,,,,,,,45,100
7552,note_off,64,,,1,0,0,,,,,,,,64,27
7616,note_off,64,,,2,0,0,,,,,,,,45,64
7680,note_on,64,,,0,0,0,,,,,,,,78,100
7680,note_on,0,,,0,0,0,,,,,,,,78,100
7680,note_on,0,,,1,0,0,,,,,,,,69,43
7680,note_on,0,,,2,0,0,,,,,,,,50,100
7696,note_off,16,,,0,0,0,,,,,,,,69,64
7696,note_off,0,,,0,0,0,,,,,,,,69,64
7936,note_off,240,,,0,0,0,,,,,,,,78,64
7936,note_off,0,,,0,0,0,,,,,,,,78,64
7936,note_off,0,,,1,0,0,,,,,,,,69,27
7936,note_off,0,,,2,0,0,,,,,,,,50,64
8256,note_on,320,,,0,0,0,,,,,,,,77,75
8256,note_on,0,,,0,0,0,,,,,,,,77,75
8256,note_on,0,,,1,0,0,,,,,,,,74,32
8256,note_on,0,,,2,0,0,,,,,,,,50,75
8384,note_off,128,,,0,0,0,,,,,,,,77,64
8384,note_off,0,,,0,0,0,,,,,,,,77,64
8384,note_off,0,,,1,0,0,,,,,,,,74,27
8384,note_off,0,,,2,0,0,,,,,,,,50,64
8448,note_on,64,,,0,0,0,,,,,,,,77,75
8448,note_on,0,,,0,0,0,,,,,,,,77,75
8448,note_on,0,,,1,0,0,,,,,,,,74,32
8448,note_on,0,,,2,0,0,,,,,,,,50,75
8576,note_off,128,,,0,0,0,,,,,,,,77,64
8576,note_off,0,,,0,0,0,,,,,,,,77,64
8576,note_off,0,,,1,0,0,,,,,,,,74,27
8576,note_off,0,,,2,0,0,,,,,,,,50,64
8640,note_on,64,,,0,0,0,,,,,,,,76,75
8640,note_on,0,,,0,0,0,,,,,,,,76,75
8640,note_on,0,,,1,0,0,,,,,,,,73,32
8640,note_on,0,,,2,0,0,,,,,,,,45,75
8768,note_off,128,,,0,0,0,,,,,,,,76,64
8768,note_off,0,,,0,0,0,,,,,,,,76,64
8768,note_off,0,,,1,0,0,,,,,,,,73,27
8768,note_off,0,,,2,0,0,,,,,,,,45,64
8832,note_on,64,,,0,0,0,,,,,,,,76,75
8832,note_on,0,,,0,0,0,,,,,,,,76,75
8832,note_on,0,,,1,0,0,,,,,,,,73,32
8832,note_on,0,,,2,0,0,,,,,,,,45,75
8960,note_off,128,,,0,0,0,,,,,,,,76,64
8960,note_off,0,,,0,0,0,,,,,,,,76,64
8960,note_off,0,,,1,0,0,,,,,,,,73,27
8960,note_off,0,,,2,0,0,,,,,,,,45,64
9024,note_on,64,,,0,0,0,,,,,,,,77,75
9024,note_on,0,,,0,0,0,,,,,,,,77,75
9024,note_on,0,,,1,0,0,,,,,,,,76,32
9024,note_on,0,,,2,0,0,,,,,,,,45,75
9116,note_off,92,,,0,0,0,,,,,,,,77,64
9116,note_off,0,,,0,0,0,,,,,,,,77,64
9120,note_on,4,,,0,0,0,,,,,,,,79,75
9120,note_on,0,,,0,0,0,,,,,,,,79,75
9152,note_off,32,,,1,0,0,,,,,,,,76,27
9152,note_off,0,,,2,0,0,,,,,,,,45,64
9212,note_off,60,,,0,0,0,,,,,,,,79,64
9212,note_off,0,,,0,0,0,,,,,,,,79,64
9216,note_on,4,,,0,0,0,,,,,,,,77,75
9216,note_on,0,,,0,0,0,,,,,,,,77,75
9216,note_on,0,,,1,0,0,,,,,,,,74,32
9216,note_on,0,,,2,0,0,,,,,,,,50,75
9344,note_off,128,,,0,0,0,,,,,,,,77,64
9344,note_off,0,,,0,0,0,,,,,,,,77,64
9344,note_off,0,,,1,0,0,,,,,,,,74,27
9344,note_off,0,,,2,0,0,,,,,,,,50,64
9408,note_on,64,,,0,0,0,,,,,,,,74,75
9408,note_on,0,,,0,0,0,,,,,,,,74,75
9408,note_on,0,,,1,0,0,,,,,,,,69,32
9408,note_on,0,,,2,0,0,,,,,,,,50,75
9536,note_off,128,,,0,0,0,,,,,,,,74,64
9536,note_off,0,,,0,0,0,,,,,,,,74,64
9536,note_off,0,,,1,0,0,,,,,,,,69,27
9536,note_off,0,,,2,0,0,,,,,,,,50,64
9600,note_on,64,,,0,0,0,,,,,,,,74,75
9600,note_on,0,,,0,0,0,,,,,,,,74,75
9600,note_on,0,,,1,0,0,,,,,,,,69,32
9600,note_on,0,,,2,0,0,,,,,,,,50,75
9728,note_off,128,,,0,0,0,,,,,,,,74,64
9728,note_off,0,,,0,0,0,,,,,,,,74,64
9728,note_off,0,,,1,0,0,,,,,,,,69,27
9728,note_off,0,,,2,0,0,,,,,,,,50,64
9792,note_on,64,,,0,0,0,,,,,,,,77,75
9792,note_on,0,,,0,0,0,,,,,,,,77,75
9792,note_on,0,,,1,0,0,,,,,,,,74,32
9792,note_on,0,,,2,0,0,,,,,,,,50,75
9920,note_off,128,,,0,0,0,,,,,,,,77,64
9920,note_off,0,,,0,0,0,,,,,,,,77,64
9920,note_off,0,,,1,0,0,,,,,,,,74,27
9920,note_off,0,,,2,0,0,,,,,,,,50,64
9984,note_on,64,,,0,0,0,,,,,,,,77,75
9984,note_on,0,,,0,0,0,,,,,,,,77,75
9984,note_on,0,,,1,0,0,,,,,,,,74,32
9984,note_on,0,,,2,0,0,,,,,,,,50,75
10112,note_off,128,,,0,0,0,,,,,,,,77,64
10112,note_off,0,,,0,0,0,,,,,,,,77,64
10112,note_off,0,,,1,0,0,,,,,,,,74,27
10112,note_off,0,,,2,0,0,,,,,,,,50,64
10176,note_on,64,,,0,0,0,,,,,,,,76,75
10176,note_on,0,,,0,0,0,,,,,,,,76,75
10176,note_on,0,,,1,0,0,,,,,,,,73,32
10176,note_on,0,,,2,0,0,,,,,,,,45,75
10304,note_off,128,,,0,0,0,,,,,,,,76,64
10304,note_off,0,,,0,0,0,,,,,,,,76,64
10304,note_off,0,,,1,0,0,,,,,,,,73,27
10304,note_off,0,,,2,0,0,,,,,,,,45,64
10368,note_on,64,,,0,0,0,,,,,,,,76,75
10368,note_on,0,,,0,0,0,,,,,,,,76,75
10368,note_on,0,,,1,0,0,,,,,,,,73,32
10368,note_on,0,,,2,0,0,,,,,,,,45,75
10496,note_off,128,,,0,0,0,,,,,,,,76,64
10496,note_off,0,,,0,0,0,,,,,,,,76,64
10496,note_off,0,,,1,0,0,,,,,,,,73,27
10496,note_off,0,,,2,0,0,,,,,,,,45,64
10560,note_on,64,,,0,0,0,,,,,,,,77,75
10560,note_on,0,,,0,0,0,,,,,,,,77,75
10560,note_on,0,,,1,0,0,,,,,,,,74,32
10560,note_on,0,,,2,0,0,,,,,,,,45,75
10652,note_off,92,,,0,0,0,,,,,,,,77,64
10652,note_off,0,,,0,0,0,,,,,,,,77,64
10656,note_on,4,,,0,0,0,,,,,,,,79,75
10656,note_on,0,,,0,0,0,,,,,,,,79,75
10688,note_off,32,,,1,0,0,,,,,,,,74,27
10688,note_off,0,,,2,0,0,,,,,,,,45,64
10748,note_off,60,,,0,0,0,,,,,,,,79,64
10748,note_off,0,,,0,0,0,,,,,,,,79,64
10752,note_on,4,,,0,0,0,,,,,,,,77,75
10752,note_on,0,,,0,0,0,,,,,,,,77,75
10752,note_on,0,,,1,0,0,,,,,,,,74,32
10752,note_on,0,,,2,0,0,,,,,,,,50,75
10880,note_off,128,,,0,0,0,,,,,,,,77,64
10880,note_off,0,,,0,0,0,,,,,,,,77,64
10880,note_off,0,,,1,0,0,,,,,,,,74,27
10880,note_off,0,,,2,0,0,,,,,,,,50,64
10944,note_on,64,,,0,0,0,,,,,,,,74,75
10944,note_on,0,,,0,0,0,,,,,,,,74,75
10944,note_on,0,,,1,0,0,,,,,,,,65,32
10944,note_on,0,,,2,0,0,,,,,,,,50,75
11072,note_off,128,,,0,0,0,,,,,,,,74,64
11072,note_off,0,,,0,0,0,,,,,,,,74,64
11072,note_off,0,,,1,0,0,,,,,,,,65,27
11072,note_off,0,,,2,0,0,,,,,,,,50,64
11136,note_on,64,,,0,0,0,,,,,,,,74,75
11136,note_on,0,,,0,0,0,,,,,,,,74,75
11136,note_on,0,,,1,0,0,,,,,,,,65,32
11136,note_on,0,,,2,0,0,,,,,,,,50,75
11264,note_off,128,,,0,0,0,,,,,,,,74,64
11264,note_off,0,,,0,0,0,,,,,,,,74,64
11264,note_off,0,,,1,0,0,,,,,,,,65,27
11264,note_off,0,,,2,0,0,,,,,,,,50,64
11328,note_on,64,,,0,0,0,,,,,,,,74,75
11328,note_on,0,,,0,0,0,,,,,,,,74,75
11328,note_on,0,,,1,0,0,,,,,,,,65,32
11328,note_on,0,,,2,0,0,,,,,,,,50,75
11456,note_off,128,,,0,0,0,,,,,,,,74,64
11456,note_off,0,,,0,0,0,,,,,,,,74,64
11456,note_off,0,,,1,0,0,,,,,,,,65,27
11456,note_off,0,,,2,0,0,,,,,,,,50,64
11520,note_on,64,,,0,0,0,,,,,,,,75,76
11520,note_on,0,,,0,0,0,,,,,,,,75,76
11520,note_on,0,,,1,0,0,,,,,,,,67,32
11520,note_on,0,,,2,0,0,,,,,,,,48,76
11648,note_off,128,,,0,0,0,,,,,,,,75,64
11648,note_off,0,,,0,0,0,,,,,,,,75,64
11648,note_off,0,,,1,0,0,,,,,,,,67,27
11648,note_off,0,,,2,0,0,,,,,,,,48,64
11712,note_on,64,,,0,0,0,,,,,,,,75,78
11712,note_on,0,,,0,0,0,,,,,,,,75,78
11712,note_on,0,,,1,0,0,,,,,,,,67,33
11712,note_on,0,,,2,0,0,,,,,,,,48,78
11840,note_off,128,,,0,0,0,,,,,,,,75,64
11840,note_off,0,,,0,0,0,,,,,,,,75,64
11840,note_off,0,,,1,0,0,,,,,,,,67,27
11840,note_off,0,,,2,0,0,,,,,,,,48,64
11904,note_on,64,,,0,0,0,,,,,,,,76,80
11904,note_on,0,,,0,0,0,,,,,,,,76,80
11904,note_on,0,,,1,0,0,,,,,,,,67,34
11904,note_on,0,,,2,0,0,,,,,,,,46,80
12032,note_off,128,,,0,0,0,,,,,,,,76,64
12032,note_off,0,,,0,0,0,,,,,,,,76,64
12032,note_off,0,,,1,0,0,,,,,,,,67,27
12032,note_off,0,,,2,0,0,,,,,,,,46,64
12096,note_on,64,,,0,0,0,,,,,,,,76,82
12096,note_on,0,,,0,0,0,,,,,,,,76,82
12096,note_on,0,,,1,0,0,,,,,,,,67,35
12096,note_on,0,,,2,0,0,,,,,,,,46,82
12224,note_off,128,,,0,0,0,,,,,,,,76,64
12224,note_off,0,,,0,0,0,,,,,,,,76,64
12224,note_off,0,,,1,0,0,,,,,,,,67,27
12224,note_off,0,,,2,0,0,,,,,,,,46,64
12288,note_on,64,,,0,0,0,,,,,,,,77,84
12288,note_on,0,,,0,0,0,,,,,,,,77,84
12288,note_on,0,,,1,0,0,,,,,,,,69,36
12288,note_on,0,,,2,0,0,,,,,,,,45,84
12416,note_off,128,,,0,0,0,,,,,,,,77,64
12416,note_off,0,,,0,0,0,,,,,,,,77,64
12416,note_off,0,,,1,0,0,,,,,,,,69,27
12416,note_off,0,,,2,0,0,,,,,,,,45,64
12480,note_on,64,,,0,0,0,,,,,,,,77,86
12480,note_on,0,,,0,0,0,,,,,,,,77,86
12480,note_on,0,,,1,0,0,,,,,,,,69,36
12480,note_on,0,,,2,0,0,,,,,,,,45,86
12608,note_off,128,,,0,0,0,,,,,,,,77,64
12608,note_off,0,,,0,0,0,,,,,,,,77,64
12608,note_off,0,,,1,0,0,,,,,,,,69,27
12608,note_off,0,,,2,0,0,,,,,,,,45,64
12672,note_on,64,,,0,0,0,,,,,,,,78,88
12672,note_on,0,,,0,0,0,,,,,,,,78,88
12672,note_on,0,,,1,0,0,,,,,,,,69,37
12672,note_on,0,,,2,0,0,,,,,,,,50,88
12800,note_off,128,,,0,0,0,,,,,,,,78,64
12800,note_off,0,,,0,0,0,,,,,,,,78,64
12800,note_off,0,,,1,0,0,,,,,,,,69,27
12800,note_off,0,,,2,0,0,,,,,,,,50,64
12864,note_on,64,,,0,0,0,,,,,,,,78,90
12864,note_on,0,,,0,0,0,,,,,,,,78,90
12864,note_on,0,,,1,0,0,,,,,,,,69,38
12864,note_on,0,,,2,0,0,,,,,,,,48,90
12992,note_off,128,,,0,0,0,,,,,,,,78,64
12992,note_off,0,,,0,0,0,,,,,,,,78,64
12992,note_off,0,,,1,0,0,,,,,,,,69,27
12992,note_off,0,,,2,0,0,,,,,,,,48,64
13056,note_on,64,,,0,0,0,,,,,,,,79,92
13056,note_on,0,,,0,0,0,,,,,,,,79,92
13056,note_on,0,,,1,0,0,,,,,,,,70,39
13056,note_on,0,,,2,0,0,,,,,,,,46,92
13184,note_off,128,,,0,0,0,,,,,,,,79,64
13184,note_off,0,,,0,0,0,,,,,,,,79,64
13184,note_off,0,,,1,0,0,,,,,,,,70,27
13184,note_off,0,,,2,0,0,,,,,,,,46,64
13248,note_on,64,,,0,0,0,,,,,,,,79,94
13248,note_on,0,,,0,0,0,,,,,,,,79,94
13248,note_on,0,,,1,0,0,,,,,,,,74,40
13248,note_on,0,,,2,0,0,,,,,,,,46,94
13376,note_off,128,,,0,0,0,,,,,,,,79,64
13376,note_off,0,,,0,0,0,,,,,,,,79,64
13376,note_off,0,,,1,0,0,,,,,,,,74,27
13376,note_off,0,,,2,0,0,,,,,,,,46,64
13440,note_on,64,,,0,0,0,,,,,,,,80,96
13440,note_on,0,,,0,0,0,,,,,,,,80,96
13440,note_on,0,,,1,0,0,,,,,,,,74,41
13440,note_on,0,,,2,0,0,,,,,,,,52,96
13568,note_off,128,,,0,0,0,,,,,,,,80,64
13568,note_off,0,,,0,0,0,,,,,,,,80,64
13568,note_off,0,,,1,0,0,,,,,,,,74,27
13568,note_off,0,,,2,0,0,,,,,,,,52,64
13632,note_on,64,,,0,0,0,,,,,,,,80,98
13632,note_on,0,,,0,0,0,,,,,,,,80,98
13632,note_on,0,,,1,0,0,,,,,,,,76,42
13632,note_on,0,,,2,0,0,,,,,,,,50,98
13760,note_off,128,,,0,0,0,,,,,,,,80,64
13760,note_off,0,,,0,0,0,,,,,,,,80,64
13760,note_off,0,,,1,0,0,,,,,,,,76,27
13760,note_off,0,,,2,0,0,,,,,,,,50,64
13824,note_on,64,,,0,0,0,,,,,,,,81,100
13824,note_on,0,,,0,0,0,,,,,,,,81,100
13824,note_on,0,,,1,0,0,,,,,,,,76,43
13824,note_on,0,,,2,0,0,,,,,,,,49,100
13952,note_off,128,,,0,0,0,,,,,,,,81,64
13952,note_off,0,,,0,0,0,,,,,,,,81,64
13952,note_off,0,,,1,0,0,,,,,,,,76,27
13952,note_off,0,,,2,0,0,,,,,,,,49,64
14016,note_on,64,,,1,0,0,,,,,,,,78,43
14016,note_on,0,,,2,0,0,,,,,,,,50,100
14144,note_off,128,,,1,0,0,,,,,,,,78,27
14144,note_off,0,,,2,0,0,,,,,,,,50,64
14208,note_on,64,,,0,0,0,,,,,,,,81,100
14208,note_on,0,,,0,0,0,,,,,,,,81,100
14208,note_on,0,,,1,0,0,,,,,,,,76,43
14208,note_on,0,,,2,0,0,,,,,,,,49,100
14336,note_off,128,,,0,0,0,,,,,,,,81,64
14336,note_off,0,,,0,0,0,,,,,,,,81,64
14336,note_off,0,,,1,0,0,,,,,,,,76,27
14336,note_off,0,,,2,0,0,,,,,,,,49,64
14400,note_on,64,,,1,0,0,,,,,,,,74,43
14400,note_on,0,,,2,0,0,,,,,,,,47,100
14528,note_off,128,,,1,0,0,,,,,,,,74,27
14528,note_off,0,,,2,0,0,,,,,,,,47,64
14592,note_on,64,,,0,0,0,,,,,,,,81,100
14592,note_on,0,,,0,0,0,,,,,,,,81,100
14592,note_on,0,,,1,0,0,,,,,,,,73,43
14592,note_on,0,,,2,0,0,,,,,,,,45,100
14720,note_off,128,,,0,0,0,,,,,,,,81,64
14720,note_off,0,,,0,0,0,,,,,,,,81,64
14720,note_off,0,,,1,0,0,,,,,,,,73,27
14720,note_off,0,,,2,0,0,,,,,,,,45,64
14784,note_on,64,,,1,0,0,,,,,,,,74,43
14784,note_on,0,,,2,0,0,,,,,,,,47,100
14912,note_off,128,,,1,0,0,,,,,,,,74,27
14912,note_off,0,,,2,0,0,,,,,,,,47,64
14976,note_on,64,,,1,0,0,,,,,,,,76,43
14976,note_on,0,,,2,0,0,,,,,,,,49,100
15104,note_off,128,,,1,0,0,,,,,,,,76,27
15104,note_off,0,,,2,0,0,,,,,,,,49,64
15168,note_on,64,,,0,0,0,,,,,,,,79,100
15168,note_on,0,,,0,0,0,,,,,,,,79,100
15168,note_on,0,,,1,0,0,,,,,,,,74,43
15168,note_on,0,,,2,0,0,,,,,,,,45,100
15296,note_off,128,,,0,0,0,,,,,,,,79,64
15296,note_off,0,,,0,0,0,,,,,,,,79,64
15296,note_off,0,,,1,0,0,,,,,,,,74,27
15296,note_off,0,,,2,0,0,,,,,,,,45,64
15360,note_on,64,,,0,0,0,,,,,,,,78,100
15360,note_on,0,,,0,0,0,,,,,,,,78,100
15360,note_on,0,,,1,0,0,,,,,,,,74,43
15360,note_on,0,,,2,0,0,,,,,,,,50,100
15424,note_off,64,,,0,0,0,,,,,,,,78,64
15424,note_off,0,,,0,0,0,,,,,,,,78,64
15456,note_on,32,,,0,0,0,,,,,,,,79,100
15456,note_on,0,,,0,0,0,,,,,,,,79,100
15488,note_off,32,,,1,0,0,,,,,,,,74,27
15488,note_off,0,,,2,0,0,,,,,,,,50,64
15520,note_off,32,,,0,0,0,,,,,,,,79,64
15520,note_off,0,,,0,0,0,,,,,,,,79,64
15552,note_on,32,,,0,0,0,,,,,,,,81,100
15552,note_on,0,,,0,0,0,,,,,,,,81,100
15552,note_on,0,,,1,0,0,,,,,,,,74,43
15552,note_on,0,,,2,0,0,,,,,,,,50,100
15616,note_off,64,,,0,0,0,,,,,,,,81,64
15616,note_off,0,,,0,0,0,,,,,,,,81,64
15648,note_on,32,,,0,0,0,,,,,,,,78,100
15648,note_on,0,,,0,0,0,,,,,,,,78,100
15680,note_off,32,,,1,0,0,,,,,,,,74,27
15680,note_off,0,,,2,0,0,,,,,,,,50,64
15712,note_off,32,,,0,0,0,,,,,,,,78,64
15712,note_off,0,,,0,0,0,,,,,,,,78,64
15744,note_on,32,,,0,0,0,,,,,,,,76,100
15744,note_on,0,,,0,0,0,,,,,,,,76,100
15744,note_on,0,,,1,0,0,,,,,,,,73,43
15744,note_on,0,,,2,0,0,,,,,,,,45,100
15808,note_off,64,,,0,0,0,,,,,,,,76,64
15808,note_off,0,,,0,0,0,,,,,,,,76,64
15840,note_on,32,,,0,0,0,,,,,,,,78,100
15840,note_on,0,,,0,0,0,,,,,,,,78,100
15872,note_off,32,,,1,0,0,,,,,,,,73,27
15872,note_off,0,,,2,0,0,,,,,,,,45,64
15904,note_off,32,,,0,0,0,,,,,,,,78,64
15904,note_off,0,,,0,0,0,,,,,,,,78,64
15936,note_on,32,,,0,0,0,,,,,,,,79,100
15936,note_on,0,,,0,0,0,,,,,,,,79,100
15936,note_on,0,,,1,0,0,,,,,,,,73,43
15936,note_on,0,,,2,0,0,,,,,,,,45,100
16000,note_off,64,,,0,0,0,,,,,,,,79,64
16000,note_off,0,,,0,0,0,,,,,,,,79,64
16032,note_on,32,,,0,0,0,,,,,,,,76,100
16032,note_on,0,,,0,0,0,,,,,,,,76,100
16064,note_off,32,,,1,0,0,,,,,,,,73,27
16064,note_off,0,,,2,0,0,,,,,,,,45,64
16096,note_off,32,,,0,0,0,,,,,,,,76,64
16096,note_off,0,,,0,0,0,,,,,,,,76,64
16128,note_on,32,,,0,0,0,,,,,,,,78,100
16128,note_on,0,,,0,0,0,,,,,,,,78,100
16128,note_on,0,,,1,0,0,,,,,,,,74,43
16128,note_on,0,,,2,0,0,,,,,,,,50,100
16192,note_off,64,,,0,0,0,,,,,,,,78,64
16192,note_off,0,,,0,0,0,,,,,,,,78,64
16224,note_on,32,,,0,0,0,,,,,,,,79,100
16224,note_on,0,,,0,0,0,,,,,,,,79,100
16256,note_off,32,,,1,0,0,,,,,,,,74,27
16256,note_off,0,,,2,0,0,,,,,,,,50,64
16288,note_off,32,,,0,0,0,,,,,,,,79,64
16288,note_off,0,,,0,0,0,,,,,,,,79,64
16320,note_on,32,,,0,0,0,,,,,,,,81,100
16320,note_on,0,,,0,0,0,,,,,,,,81,100
16320,note_on,0,,,1,0,0,,,,,,,,74,43
16320,note_on,0,,,2,0,0,,,,,,,,50,100
16384,note_off,64,,,0,0,0,,,,,,,,81,64
16384,note_off,0,,,0,0,0,,,,,,,,81,64
16416,note_on,32,,,0,0,0,,,,,,,,78,100
16416,note_on,0,,,0,0,0,,,,,,,,78,100
16448,note_off,32,,,1,0,0,,,,,,,,74,27
16448,note_off,0,,,2,0,0,,,,,,,,50,64
16480,note_off,32,,,0,0,0,,,,,,,,78,64
16480,note_off,0,,,0,0,0,,,,,,,,78,64
16512,note_on,32,,,0,0,0,,,,,,,,76,100
16512,note_on,0,,,0,0,0,,,,,,,,76,100
16512,note_on,0,,,1,0,0,,,,,,,,69,43
16512,note_on,0,,,2,0,0,,,,,,,,45,100
16576,note_off,64,,,0,0,0,,,,,,,,76,64
16576,note_off,0,,,0,0,0,,,,,,,,76,64
16608,note_on,32,,,0,0,0,,,,,,,,78,100
16608,note_on,0,,,0,0,0,,,,,,,,78,100
16640,note_off,32,,,1,0,0,,,,,,,,69,27
16640,note_off,0,,,2,0,0,,,,,,,,45,64
16672,note_off,32,,,0,0,0,,,,,,,,78,64
16672,note_off,0,,,0,0,0,,,,,,,,78,64
16704,note_on,32,,,0,0,0,,,,,,,,79,100
16704,note_on,0,,,0,0,0,,,,,,,,79,100
16704,note_on,0,,,1,0,0,,,,,,,,69,43
16704,note_on,0,,,2,0,0,,,,,,,,45,100
16768,note_off,64,,,0,0,0,,,,,,,,79,64
16768,note_off,0,,,0,0,0,,,,,,,,79,64
16800,note_on,32,,,0,0,0,,,,,,,,76,100
16800,note_on,0,,,0,0,0,,,,,,,,76,100
16832,note_off,32,,,1,0,0,,,,,,,,69,27
16832,note_off,0,,,2,0,0,,,,,,,,45,64
16864,note_off,32,,,0,0,0,,,,,,,,76,64
16864,note_off,0,,,0,0,0,,,,,,,,76,64
16896,note_on,32,,,0,0,0,,,,,,,,74,100
16896,note_on,0,,,0,0,0,,,,,,,,74,100
16896,note_on,0,,,1,0,0,,,,,,,,66,43
16896,note_on,0,,,2,0,0,,,,,,,,50,100
17152,note_off,256,,,0,0,0,,,,,,,,74,64
17152,note_off,0,,,0,0,0,,,,,,,,74,64
17152,note_off,0,,,1,0,0,,,,,,,,66,27
17152,note_off,0,,,2,0,0,,,,,,,,50,64
17472,note_on,320,,,2,0,0,,,,,,,,50,100
17600,note_off,128,,,2,0,0,,,,,,,,50,64
17664,note_on,64,,,2,0,0,,,,,,,,50,100
17792,note_off,128,,,2,0,0,,,,,,,,50,64
17856,note_on,64,,,2,0,0,,,,,,,,52,100
17984,note_off,128,,,2,0,0,,,,,,,,52,64
18048,note_on,64,,,2,0,0,,,,,,,,54,100
18176,note_off,128,,,2,0,0,,,,,,,,54,64
18240,note_on,64,,,2,0,0,,,,,,,,50,100
18368,note_off,128,,,2,0,0,,,,,,,,50,64
18432,note_on,64,,,2,0,0,,,,,,,,45,100
18560,note_off,128,,,2,0,0,,,,,,,,45,64
18624,note_on,64,,,2,0,0,,,,,,,,47,100
18752,note_off,128,,,2,0,0,,,,,,,,47,64
18816,note_on,64,,,2,0,0,,,,,,,,49,100
18944,note_off,128,,,2,0,0,,,,,,,,49,64
19008,note_on,64,,,2,0,0,,,,,,,,45,100
19136,note_off,128,,,2,0,0,,,,,,,,45,64
19200,note_on,64,,,2,0,0,,,,,,,,45,100
19328,note_off,128,,,2,0,0,,,,,,,,45,64
19392,note_on,64,,,2,0,0,,,,,,,,47,100
19520,note_off,128,,,2,0,0,,,,,,,,47,64
19584,note_on,64,,,2,0,0,,,,,,,,49,100
19712,note_off,128,,,2,0,0,,,,,,,,49,64
19776,note_on,64,,,2,0,0,,,,,,,,45,100
19904,note_off,128,,,2,0,0,,,,,,,,45,64
19968,note_on,64,,,2,0,0,,,,,,,,50,100
20096,note_off,128,,,2,0,0,,,,,,,,50,64
20160,note_on,64,,,2,0,0,,,,,,,,52,100
20288,note_off,128,,,2,0,0,,,,,,,,52,64
20352,note_on,64,,,2,0,0,,,,,,,,54,100
20480,note_off,128,,,2,0,0,,,,,,,,54,64
20544,note_on,64,,,2,0,0,,,,,,,,50,100
20672,note_off,128,,,2,0,0,,,,,,,,50,64
20736,note_on,64,,,2,0,0,,,,,,,,55,100
20864,note_off,128,,,2,0,0,,,,,,,,55,64
20928,note_on,64,,,2,0,0,,,,,,,,54,100
21056,note_off,128,,,2,0,0,,,,,,,,54,64
21120,note_on,64,,,2,0,0,,,,,,,,55,100
21248,note_off,128,,,2,0,0,,,,,,,,55,64
21312,note_on,64,,,2,0,0,,,,,,,,43,100
21440,note_off,128,,,2,0,0,,,,,,,,43,64
21504,note_on,64,,,2,0,0,,,,,,,,61,100
21632,note_off,128,,,2,0,0,,,,,,,,61,64
21696,note_on,64,,,2,0,0,,,,,,,,59,100
21824,note_off,128,,,2,0,0,,,,,,,,59,64
21888,note_on,64,,,2,0,0,,,,,,,,61,100
22016,note_off,128,,,2,0,0,,,,,,,,61,64
22080,note_on,64,,,2,0,0,,,,,,,,49,100
22208,note_off,128,,,2,0,0,,,,,,,,49,64
22272,note_on,64,,,2,0,0,,,,,,,,54,100
22400,note_off,128,,,2,0,0,,,,,,,,54,64
22464,note_on,64,,,2,0,0,,,,,,,,52,100
22592,note_off,128,,,2,0,0,,,,,,,,52,64
22656,note_on,64,,,2,0,0,,,,,,,,54,100
22784,note_off,128,,,2,0,0,,,,,,,,54,64
22848,note_on,64,,,2,0,0,,,,,,,,42,100
22976,note_off,128,,,2,0,0,,,,,,,,42,64
23040,note_on,64,,,2,0,0,,,,,,,,59,100
23168,note_off,128,,,2,0,0,,,,,,,,59,64
23232,note_on,64,,,2,0,0,,,,,,,,57,100
23360,note_off,128,,,2,0,0,,,,,,,,57,64
23424,note_on,64,,,2,0,0,,,,,,,,59,100
23552,note_off,128,,,2,0,0,,,,,,,,59,64
23616,note_on,64,,,2,0,0,,,,,,,,47,100
23744,note_off,128,,,2,0,0,,,,,,,,47,64
23808,note_on,64,,,2,0,0,,,,,,,,52,100
23936,note_off,128,,,2,0,0,,,,,,,,52,64
24000,note_on,64,,,2,0,0,,,,,,,,50,100
24128,note_off,128,,,2,0,0,,,,,,,,50,64
24192,note_on,64,,,2,0,0,,,,,,,,52,100
24320,note_off,128,,,2,0,0,,,,,,,,52,64
24384,note_on,64,,,2,0,0,,,,,,,,40,100
24512,note_off,128,,,2,0,0,,,,,,,,40,64
24576,note_on,64,,,2,0,0,,,,,,,,50,100
24704,note_off,128,,,2,0,0,,,,,,,,50,64
24768,note_on,64,,,2,0,0,,,,,,,,49,100
24896,note_off,128,,,2,0,0,,,,,,,,49,64
24960,note_on,64,,,2,0,0,,,,,,,,50,100
25088,note_off,128,,,2,0,0,,,,,,,,50,64
25152,note_on,64,,,2,0,0,,,,,,,,38,100
25280,note_off,128,,,2,0,0,,,,,,,,38,64
25344,note_on,64,,,2,0,0,,,,,,,,50,100
25472,note_off,128,,,2,0,0,,,,,,,,50,64
25536,note_on,64,,,2,0,0,,,,,,,,54,100
25664,note_off,128,,,2,0,0,,,,,,,,54,64
25728,note_on,64,,,2,0,0,,,,,,,,52,100
25856,note_off,128,,,2,0,0,,,,,,,,52,64
25920,note_on,64,,,2,0,0,,,,,,,,50,100
26048,note_off,128,,,2,0,0,,,,,,,,50,64
26112,note_on,64,,,2,0,0,,,,,,,,45,100
26304,note_on,192,,,0,0,0,,,,,,,,73,100
26304,note_on,0,,,0,0,0,,,,,,,,69,100
26368,note_off,64,,,0,0,0,,,,,,,,73,64
26368,note_off,0,,,0,0,0,,,,,,,,69,64
26368,note_off,0,,,2,0,0,,,,,,,,45,64
26400,note_on,32,,,0,0,0,,,,,,,,74,100
26400,note_on,0,,,0,0,0,,,,,,,,71,100
26464,note_off,64,,,0,0,0,,,,,,,,74,64
26464,note_off,0,,,0,0,0,,,,,,,,71,64
26496,note_on,32,,,0,0,0,,,,,,,,76,100
26496,note_on,0,,,0,0,0,,,,,,,,73,100
26496,note_on,0,,,2,0,0,,,,,,,,45,100
26560,note_off,64,,,0,0,0,,,,,,,,76,64
26560,note_off,0,,,0,0,0,,,,,,,,73,64
26592,note_on,32,,,0,0,0,,,,,,,,74,100
26592,note_on,0,,,0,0,0,,,,,,,,71,100
26656,note_off,64,,,0,0,0,,,,,,,,74,64
26656,note_off,0,,,0,0,0,,,,,,,,71,64
26688,note_on,32,,,0,0,0,,,,,,,,76,100
26688,note_on,0,,,0,0,0,,,,,,,,73,100
26752,note_off,64,,,0,0,0,,,,,,,,76,64
26752,note_off,0,,,0,0,0,,,,,,,,73,64
26752,note_off,0,,,2,0,0,,,,,,,,45,64
26784,note_on,32,,,0,0,0,,,,,,,,74,100
26784,note_on,0,,,0,0,0,,,,,,,,71,100
26848,note_off,64,,,0,0,0,,,,,,,,74,64
26848,note_off,0,,,0,0,0,,,,,,,,71,64
26880,note_on,32,,,0,0,0,,,,,,,,73,100
26880,note_on,0,,,0,0,0,,,,,,,,69,100
26880,note_on,0,,,2,0,0,,,,,,,,45,100
26944,note_off,64,,,0,0,0,,,,,,,,73,64
26944,note_off,0,,,0,0,0,,,,,,,,69,64
26976,note_on,32,,,0,0,0,,,,,,,,74,100
26976,note_on,0,,,0,0,0,,,,,,,,71,100
27040,note_off,64,,,0,0,0,,,,,,,,74,64
27040,note_off,0,,,0,0,0,,,,,,,,71,64
27072,note_on,32,,,0,0,0,,,,,,,,73,100
27072,note_on,0,,,0,0,0,,,,,,,,69,100
27136,note_off,64,,,0,0,0,,,,,,,,73,64
27136,note_off,0,,,0,0,0,,,,,,,,69,64
27136,note_off,0,,,2,0,0,,,,,,,,45,64
27168,note_on,32,,,0,0,0,,,,,,,,74,100
27168,note_on,0,,,0,0,0,,,,,,,,71,100
27232,note_off,64,,,0,0,0,,,,,,,,74,64
27232,note_off,0,,,0,0,0,,,,,,,,71,64
27264,note_on,32,,,0,0,0,,,,,,,,76,100
27264,note_on,0,,,0,0,0,,,,,,,,73,100
27264,note_on,0,,,2,0,0,,,,,,,,45,100
27328,note_off,64,,,0,0,0,,,,,,,,76,64
27328,note_off,0,,,0,0,0,,,,,,,,73,64
27360,note_on,32,,,0,0,0,,,,,,,,74,100
27360,note_on,0,,,0,0,0,,,,,,,,71,100
27424,note_off,64,,,0,0,0,,,,,,,,74,64
27424,note_off,0,,,0,0,0,,,,,,,,71,64
27456,note_on,32,,,0,0,0,,,,,,,,76,100
27456,note_on,0,,,0,0,0,,,,,,,,73,100
27520,note_off,64,,,0,0,0,,,,,,,,76,64
27520,note_off,0,,,0,0,0,,,,,,,,73,64
27520,note_off,0,,,2,0,0,,,,,,,,45,64
27552,note_on,32,,,0,0,0,,,,,,,,74,100
27552,note_on,0,,,0,0,0,,,,,,,,71,100
27616,note_off,64,,,0,0,0,,,,,,,,74,64
27616,note_off,0,,,0,0,0,,,,,,,,71,64
27648,note_on,32,,,0,0,0,,,,,,,,73,100
27648,note_on,0,,,0,0,0,,,,,,,,69,100
27648,note_on,0,,,2,0,0,,,,,,,,45,100
27904,note_off,256,,,0,0,0,,,,,,,,73,64
27904,note_off,0,,,0,0,0,,,,,,,,69,64
27904,note_off,0,,,2,0,0,,,,,,,,45,64
28416,note_on,512,,,2,0,0,,,,,,,,45,100
28672,note_off,256,,,2,0,0,,,,,,,,45,64
29184,note_on,512,,,2,0,0,,,,,,,,45,100
29440,note_off,256,,,2,0,0,,,,,,,,45,64
29952,note_on,512,,,2,0,0,,,,,,,,45,100
30208,note_off,256,,,2,0,0,,,,,,,,45,64
30720,note_on,512,,,2,0,0,,,,,,,,45,100
30976,note_off,256,,,2,0,0,,,,,,,,45,64
31104,note_on,128,,,2,0,0,,,,,,,,45,100
31360,note_off,256,,,2,0,0,,,,,,,,45,64
31488,note_on,128,,,2,0,0,,,,,,,,45,100
31616,note_off,128,,,2,0,0,,,,,,,,45,64
31680,note_on,64,,,2,0,0,,,,,,,,57,100
31808,note_off,128,,,2,0,0,,,,,,,,57,64
31872,note_on,64,,,2,0,0,,,,,,,,50,100
32000,note_off,128,,,2,0,0,,,,,,,,50,64
32064,note_on,64,,,2,0,0,,,,,,,,52,100
32192,note_off,128,,,2,0,0,,,,,,,,52,64
32256,note_on,64,,,2,0,0,,,,,,,,45,100
32512,note_off,256,,,2,0,0,,,,,,,,45,64
32640,note_on,128,,,2,0,0,,,,,,,,45,100
32896,note_off,256,,,2,0,0,,,,,,,,45,64
33024,note_on,128,,,2,0,0,,,,,,,,45,100
33152,note_off,128,,,2,0,0,,,,,,,,45,64
33216,note_on,64,,,2,0,0,,,,,,,,57,100
33344,note_off,128,,,2,0,0,,,,,,,,57,64
33408,note_on,64,,,2,0,0,,,,,,,,50,100
33536,note_off,128,,,2,0,0,,,,,,,,50,64
33600,note_on,64,,,2,0,0,,,,,,,,52,100
33728,note_off,128,,,2,0,0,,,,,,,,52,64
33792,note_on,64,,,2,0,0,,,,,,,,45,100
33920,note_off,128,,,2,0,0,,,,,,,,45,64
33984,note_on,64,,,0,0,0,,,,,,,,81,100
33984,note_on,0,,,0,0,0,,,,,,,,76,100
33984,note_on,0,,,1,0,0,,,,,,,,73,43
33984,note_on,0,,,2,0,0,,,,,,,,57,100
34112,note_off,128,,,0,0,0,,,,,,,,81,64
34112,note_off,0,,,0,0,0,,,,,,,,76,64
34112,note_off,0,,,1,0,0,,,,,,,,73,27
34112,note_off,0,,,2,0,0,,,,,,,,57,64
34176,note_on,64,,,0,0,0,,,,,,,,83,100
34176,note_on,0,,,0,0,0,,,,,,,,78,100
34176,note_on,0,,,1,0,0,,,,,,,,74,43
34176,note_on,0,,,2,0,0,,,,,,,,50,100
34304,note_off,128,,,0,0,0,,,,,,,,83,64
34304,note_off,0,,,0,0,0,,,,,,,,78,64
34304,note_off,0,,,1,0,0,,,,,,,,74,27
34304,note_off,0,,,2,0,0,,,,,,,,50,64
34368,note_on,64,,,0,0,0,,,,,,,,80,100
34368,note_on,0,,,0,0,0,,,,,,,,74,100
34368,note_on,0,,,1,0,0,,,,,,,,71,43
34368,note_on,0,,,2,0,0,,,,,,,,52,100
34496,note_off,128,,,0,0,0,,,,,,,,80,64
34496,note_off,0,,,0,0,0,,,,,,,,74,64
34496,note_off,0,,,1,0,0,,,,,,,,71,27
34496,note_off,0,,,2,0,0,,,,,,,,52,64
34560,note_on,64,,,0,0,0,,,,,,,,81,100
34560,note_on,0,,,0,0,0,,,,,,,,76,100
34560,note_on,0,,,1,0,0,,,,,,,,73,43
34560,note_on,0,,,2,0,0,,,,,,,,45,100
35072,note_off,512,,,0,0,0,,,,,,,,81,64
35072,note_off,0,,,0,0,0,,,,,,,,76,64
35072,note_off,0,,,1,0,0,,,,,,,,73,27
35072,note_off,0,,,2,0,0,,,,,,,,45,64
35328,note_on,256,,,0,0,0,,,,,,,,78,100
35328,note_on,0,,,0,0,0,,,,,,,,81,100
35328,note_on,0,,,1,0,0,,,,,,,,69,43
35328,note_on,0,,,2,0,0,,,,,,,,50,100
35376,note_off,48,,,0,0,0,,,,,,,,78,64
35376,note_on,0,,,0,0,0,,,,,,,,76,100
35376,note_off,0,,,0,0,0,,,,,,,,81,64
35376,note_on,0,,,0,0,0,,,,,,,,79,100
35428,note_off,52,,,0,0,0,,,,,,,,76,64
35428,note_on,0,,,0,0,0,,,,,,,,74,100
35428,note_off,0,,,0,0,0,,,,,,,,79,64
35428,note_on,0,,,0,0,0,,,,,,,,78,100
35456,note_off,28,,,2,0,0,,,,,,,,50,64
35520,note_on,64,,,2,0,0,,,,,,,,50,100
35584,note_off,64,,,1,0,0,,,,,,,,69,27
35648,note_off,64,,,2,0,0,,,,,,,,50,64
35712,note_on,64,,,0,0,0,,,,,,,,78,100
35712,note_on,0,,,0,0,0,,,,,,,,81,100
35712,note_on,0,,,1,0,0,,,,,,,,62,43
35712,note_on,0,,,2,0,0,,,,,,,,50,100
35728,note_off,16,,,0,0,0,,,,,,,,74,64
35728,note_off,0,,,0,0,0,,,,,,,,78,64
35760,note_off,32,,,0,0,0,,,,,,,,78,64
35760,note_on,0,,,0,0,0,,,,,,,,76,100
35760,note_off,0,,,0,0,0,,,,,,,,81,64
35760,note_on,0,,,0,0,0,,,,,,,,79,100
35812,note_off,52,,,0,0,0,,,,,,,,76,64
35812,note_on,0,,,0,0,0,,,,,,,,74,100
35812,note_off,0,,,0,0,0,,,,,,,,79,64
35812,note_on,0,,,0,0,0,,,,,,,,78,100
35840,note_off,28,,,2,0,0,,,,,,,,50,64
35904,note_on,64,,,2,0,0,,,,,,,,50,100
35968,note_off,64,,,1,0,0,,,,,,,,62,27
36032,note_off,64,,,2,0,0,,,,,,,,50,64
36096,note_on,64,,,0,0,0,,,,,,,,81,100
36096,note_on,0,,,0,0,0,,,,,,,,76,100
36096,note_on,0,,,1,0,0,,,,,,,,64,43
36096,note_on,0,,,2,0,0,,,,,,,,49,100
36112,note_off,16,,,0,0,0,,,,,,,,74,64
36112,note_off,0,,,0,0,0,,,,,,,,78,64
36224,note_off,112,,,0,0,0,,,,,,,,81,64
36224,note_off,0,,,0,0,0,,,,,,,,76,64
36224,note_off,0,,,1,0,0,,,,,,,,64,27
36224,note_off,0,,,2,0,0,,,,,,,,49,64
36288,note_on,64,,,0,0,0,,,,,,,,69,100
36288,note_on,0,,,0,0,0,,,,,,,,69,100
36288,note_on,0,,,1,0,0,,,,,,,,61,43
36288,note_on,0,,,2,0,0,,,,,,,,49,100
36416,note_off,128,,,0,0,0,,,,,,,,69,64
36416,note_off,0,,,0,0,0,,,,,,,,69,64
36416,note_off,0,,,1,0,0,,,,,,,,61,27
36416,note_off,0,,,2,0,0,,,,,,,,49,64
36480,note_on,64,,,0,0,0,,,,,,,,69,100
36480,note_on,0,,,0,0,0,,,,,,,,69,100
36480,note_on,0,,,1,0,0,,,,,,,,61,43
36480,note_on,0,,,2,0,0,,,,,,,,49,100
36608,note_off,128,,,0,0,0,,,,,,,,69,64
36608,note_off,0,,,0,0,0,,,,,,,,69,64
36608,note_off,0,,,1,0,0,,,,,,,,61,27
36608,note_off,0,,,2,0,0,,,,,,,,49,64
36672,note_on,64,,,0,0,0,,,,,,,,69,100
36672,note_on,0,,,0,0,0,,,,,,,,69,100
36672,note_on,0,,,1,0,0,,,,,,,,61,43
36672,note_on,0,,,2,0,0,,,,,,,,49,100
36800,note_off,128,,,0,0,0,,,,,,,,69,64
36800,note_off,0,,,0,0,0,,,,,,,,69,64
36800,note_off,0,,,1,0,0,,,,,,,,61,27
36800,note_off,0,,,2,0,0,,,,,,,,49,64
36864,note_on,64,,,0,0,0,,,,,,,,78,100
36864,note_on,0,,,0,0,0,,,,,,,,81,100
36864,note_on,0,,,1,0,0,,,,,,,,69,43
36864,note_on,0,,,2,0,0,,,,,,,,50,100
36912,note_off,48,,,0,0,0,,,,,,,,78,64
36912,note_on,0,,,0,0,0,,,,,,,,76,100
36912,note_off,0,,,0,0,0,,,,,,,,81,64
36912,note_on,0,,,0,0,0,,,,,,,,79,100
36964,note_off,52,,,0,0,0,,,,,,,,76,64
36964,note_on,0,,,0,0,0,,,,,,,,74,100
36964,note_off,0,,,0,0,0,,,,,,,,79,64
36964,note_on,0,,,0,0,0,,,,,,,,78,100
36992,note_off,28,,,2,0,0,,,,,,,,50,64
37056,note_on,64,,,2,0,0,,,,,,,,50,100
37120,note_off,64,,,1,0,0,,,,,,,,69,27
37184,note_off,64,,,2,0,0,,,,,,,,50,64
37248,note_on,64,,,0,0,0,,,,,,,,78,100
37248,note_on,0,,,0,0,0,,,,,,,,81,100
37248,note_on,0,,,1,0,0,,,,,,,,62,43
37248,note_on,0,,,2,0,0,,,,,,,,50,100
37264,note_off,16,,,0,0,0,,,,,,,,74,64
37264,note_off,0,,,0,0,0,,,,,,,,78,64
37296,note_off,32,,,0,0,0,,,,,,,,78,64
37296,note_on,0,,,0,0,0,,,,,,,,76,100
37296,note_off,0,,,0,0,0,,,,,,,,81,64
37296,note_on,0,,,0,0,0,,,,,,,,79,100
37348,note_off,52,,,0,0,0,,,,,,,,76,64
37348,note_on,0,,,0,0,0,,,,,,,,74,100
37348,note_off,0,,,0,0,0,,,,,,,,79,64
37348,note_on,0,,,0,0,0,,,,,,,,78,100
37376,note_off,28,,,2,0,0,,,,,,,,50,64
37440,note_on,64,,,2,0,0,,,,,,,,50,100
37504,note_off,64,,,1,0,0,,,,,,,,62,27
37568,note_off,64,,,2,0,0,,,,,,,,50,64
37632,note_on,64,,,0,0,0,,,,,,,,81,100
37632,note_on,0,,,0,0,0,,,,,,,,76,100
37632,note_on,0,,,1,0,0,,,,,,,,64,43
37632,note_on,0,,,2,0,0,,,,,,,,49,100
37648,note_off,16,,,0,0,0,,,,,,,,74,64
37648,note_off,0,,,0,0,0,,,,,,,,78,64
37760,note_off,112,,,0,0,0,,,,,,,,81,64
37760,note_off,0,,,0,0,0,,,,,,,,76,64
37760,note_off,0,,,1,0,0,,,,,,,,64,27
37760,note_off,0,,,2,0,0,,,,,,,,49,64
37824,note_on,64,,,0,0,0,,,,,,,,69,100
37824,note_on,0,,,0,0,0,,,,,,,,69,100
37824,note_on,0,,,1,0,0,,,,,,,,61,43
37824,note_on,0,,,2,0,0,,,,,,,,49,100
37952,note_off,128,,,0,0,0,,,,,,,,69,64
37952,note_off,0,,,0,0,0,,,,,,,,69,64
37952,note_off,0,,,1,0,0,,,,,,,,61,27
37952,note_off,0,,,2,0,0,,,,,,,,49,64
38016,note_on,64,,,0,0,0,,,,,,,,69,100
38016,note_on,0,,,0,0,0,,,,,,,,69,100
38016,note_on,0,,,1,0,0,,,,,,,,61,43
38016,note_on,0,,,2,0,0,,,,,,,,49,100
38144,note_off,128,,,0,0,0,,,,,,,,69,64
38144,note_off,0,,,0,0,0,,,,,,,,69,64
38144,note_off,0,,,1,0,0,,,,,,,,61,27
38144,note_off,0,,,2,0,0,,,,,,,,49,64
38208,note_on,64,,,0,0,0,,,,,,,,69,100
38208,note_on,0,,,0,0,0,,,,,,,,69,100
38208,note_on,0,,,1,0,0,,,,,,,,61,43
38208,note_on,0,,,2,0,0,,,,,,,,49,100
38336,note_off,128,,,0,0,0,,,,,,,,69,64
38336,note_off,0,,,0,0,0,,,,,,,,69,64
38336,note_off,0,,,1,0,0,,,,,,,,61,27
38336,note_off,0,,,2,0,0,,,,,,,,49,64
38400,note_on,64,,,0,0,0,,,,,,,,81,100
38400,note_on,0,,,0,0,0,,,,,,,,78,100
38400,note_on,0,,,1,0,0,,,,,,,,62,43
38400,note_on,0,,,2,0,0,,,,,,,,50,100
38448,note_off,48,,,0,0,0,,,,,,,,81,64
38448,note_on,0,,,0,0,0,,,,,,,,78,100
38448,note_off,0,,,0,0,0,,,,,,,,78,64
38448,note_on,0,,,0,0,0,,,,,,,,76,100
38500,note_off,52,,,0,0,0,,,,,,,,78,64
38500,note_on,0,,,0,0,0,,,,,,,,78,100
38500,note_off,0,,,0,0,0,,,,,,,,76,64
38500,note_on,0,,,0,0,0,,,,,,,,74,100
38528,note_off,28,,,2,0,0,,,,,,,,50,64
38592,note_on,64,,,2,0,0,,,,,,,,50,100
38656,note_off,64,,,1,0,0,,,,,,,,62,27
38720,note_off,64,,,2,0,0,,,,,,,,50,64
38784,note_on,64,,,0,0,0,,,,,,,,81,100
38784,note_on,0,,,0,0,0,,,,,,,,78,100
38784,note_on,0,,,1,0,0,,,,,,,,66,43
38784,note_on,0,,,2,0,0,,,,,,,,50,100
38800,note_off,16,,,0,0,0,,,,,,,,78,64
38800,note_off,0,,,0,0,0,,,,,,,,74,64
38832,note_off,32,,,0,0,0,,,,,,,,81,64
38832,note_on,0,,,0,0,0,,,,,,,,79,100
38832,note_off,0,,,0,0,0,,,,,,,,78,64
38832,note_on,0,,,0,0,0,,,,,,,,76,100
38848,note_off,16,,,2,0,0,,,,,,,,50,64
38880,note_on,32,,,2,0,0,,,,,,,,52,100
38884,note_off,4,,,0,0,0,,,,,,,,79,64
38884,note_on,0,,,0,0,0,,,,,,,,78,100
38884,note_off,0,,,0,0,0,,,,,,,,76,64
38884,note_on,0,,,0,0,0,,,,,,,,74,100
38944,note_off,60,,,2,0,0,,,,,,,,52,64
38976,note_on,32,,,2,0,0,,,,,,,,54,100
39040,note_off,64,,,1,0,0,,,,,,,,66,27
39040,note_off,0,,,2,0,0,,,,,,,,54,64
39072,note_on,32,,,2,0,0,,,,,,,,55,100
39136,note_off,64,,,2,0,0,,,,,,,,55,64
39168,note_on,32,,,0,0,0,,,,,,,,76,100
39168,note_on,0,,,0,0,0,,,,,,,,73,100
39168,note_on,0,,,1,0,0,,,,,,,,69,43
39168,note_on,0,,,2,0,0,,,,,,,,57,100
39184,note_off,16,,,0,0,0,,,,,,,,78,64
39184,note_off,0,,,0,0,0,,,,,,,,74,64
39424,note_off,240,,,0,0,0,,,,,,,,76,64
39424,note_off,0,,,0,0,0,,,,,,,,73,64
39424,note_off,0,,,1,0,0,,,,,,,,69,27
39424,note_off,0,,,2,0,0,,,,,,,,57,64
39936,note_on,512,,,0,0,0,,,,,,,,81,100
39936,note_on,0,,,0,0,0,,,,,,,,81,100
39936,note_on,0,,,1,0,0,,,,,,,,76,43
39936,note_on,0,,,2,0,0,,,,,,,,54,100
39984,note_off,48,,,0,0,0,,,,,,,,81,64
39984,note_on,0,,,0,0,0,,,,,,,,79,100
39984,note_off,0,,,0,0,0,,,,,,,,81,64
39984,note_on,0,,,0,0,0,,,,,,,,79,100
40036,note_off,52,,,0,0,0,,,,,,,,79,64
40036,note_on,0,,,0,0,0,,,,,,,,78,100
40036,note_off,0,,,0,0,0,,,,,,,,79,64
40036,note_on,0,,,0,0,0,,,,,,,,78,100
40064,note_off,28,,,2,0,0,,,,,,,,54,64
40128,note_on,64,,,2,0,0,,,,,,,,50,100
40192,note_off,64,,,1,0,0,,,,,,,,76,27
40256,note_off,64,,,2,0,0,,,,,,,,50,64
40320,note_on,64,,,0,0,0,,,,,,,,81,100
40320,note_on,0,,,0,0,0,,,,,,,,81,100
40320,note_on,0,,,1,0,0,,,,,,,,76,43
40320,note_on,0,,,2,0,0,,,,,,,,54,100
40336,note_off,16,,,0,0,0,,,,,,,,78,64
40336,note_off,0,,,0,0,0,,,,,,,,78,64
40368,note_off,32,,,0,0,0,,,,,,,,81,64
40368,note_on,0,,,0,0,0,,,,,,,,79,100
40368,note_off,0,,,0,0,0,,,,,,,,81,64
40368,note_on,0,,,0,0,0,,,,,,,,79,100
40420,note_off,52,,,0,0,0,,,,,,,,79,64
40420,note_on,0,,,0,0,0,,,,,,,,78,100
40420,note_off,0,,,0,0,0,,,,,,,,79,64
40420,note_on,0,,,0,0,0,,,,,,,,78,100
40448,note_off,28,,,2,0,0,,,,,,,,54,64
40512,note_on,64,,,2,0,0,,,,,,,,50,100
40576,note_off,64,,,1,0,0,,,,,,,,76,27
40640,note_off,64,,,2,0,0,,,,,,,,50,64
40704,note_on,64,,,0,0,0,,,,,,,,74,100
40704,note_on,0,,,0,0,0,,,,,,,,74,100
40704,note_on,0,,,1,0,0,,,,,,,,73,43
40704,note_on,0,,,2,0,0,,,,,,,,59,100
40720,note_off,16,,,0,0,0,,,,,,,,78,64
40720,note_off,0,,,0,0,0,,,,,,,,78,64
40752,note_off,32,,,0,0,0,,,,,,,,74,64
40752,note_on,0,,,0,0,0,,,,,,,,73,100
40752,note_off,0,,,0,0,0,,,,,,,,74,64
40752,note_on,0,,,0,0,0,,,,,,,,73,100
40804,note_off,52,,,0,0,0,,,,,,,,73,64
40804,note_on,0,,,0,0,0,,,,,,,,71,100
40804,note_off,0,,,0,0,0,,,,,,,,73,64
40804,note_on,0,,,0,0,0,,,,,,,,71,100
40832,note_off,28,,,2,0,0,,,,,,,,59,64
40896,note_on,64,,,2,0,0,,,,,,,,55,100
40960,note_off,64,,,1,0,0,,,,,,,,73,27
41024,note_off,64,,,2,0,0,,,,,,,,55,64
41088,note_on,64,,,0,0,0,,,,,,,,74,100
41088,note_on,0,,,0,0,0,,,,,,,,74,100
41088,note_on,0,,,1,0,0,,,,,,,,71,43
41088,note_on,0,,,2,0,0,,,,,,,,59,100
41104,note_off,16,,,0,0,0,,,,,,,,71,64
41104,note_off,0,,,0,0,0,,,,,,,,71,64
41136,note_off,32,,,0,0,0,,,,,,,,74,64
41136,note_on,0,,,0,0,0,,,,,,,,73,100
41136,note_off,0,,,0,0,0,,,,,,,,74,64
41136,note_on,0,,,0,0,0,,,,,,,,73,100
41188,note_off,52,,,0,0,0,,,,,,,,73,64
41188,note_on,0,,,0,0,0,,,,,,,,71,100
41188,note_off,0,,,0,0,0,,,,,,,,73,64
41188,note_on,0,,,0,0,0,,,,,,,,71,100
41216,note_off,28,,,2,0,0,,,,,,,,59,64
41280,note_on,64,,,2,0,0,,,,,,,,55,100
41344,note_off,64,,,1,0,0,,,,,,,,71,27
41408,note_off,64,,,2,0,0,,,,,,,,55,64
41472,note_on,64,,,0,0,0,,,,,,,,79,100
41472,note_on,0,,,0,0,0,,,,,,,,79,100
41472,note_on,0,,,1,0,0,,,,,,,,73,43
41472,note_on,0,,,2,0,0,,,,,,,,52,100
41488,note_off,16,,,0,0,0,,,,,,,,71,64
41488,note_off,0,,,0,0,0,,,,,,,,71,64
41520,note_off,32,,,0,0,0,,,,,,,,79,64
41520,note_on,0,,,0,0,0,,,,,,,,78,100
41520,note_off,0,,,0,0,0,,,,,,,,79,64
41520,note_on,0,,,0,0,0,,,,,,,,78,100
41572,note_off,52,,,0,0,0,,,,,,,,78,64
41572,note_on,0,,,0,0,0,,,,,,,,76,100
41572,note_off,0,,,0,0,0,,,,,,,,78,64
41572,note_on,0,,,0,0,0,,,,,,,,76,100
41600,note_off,28,,,2,0,0,,,,,,,,52,64
41664,note_on,64,,,2,0,0,,,,,,,,49,100
41728,note_off,64,,,1,0,0,,,,,,,,73,27
41792,note_off,64,,,2,0,0,,,,,,,,49,64
41856,note_on,64,,,0,0,0,,,,,,,,79,100
41856,note_on,0,,,0,0,0,,,,,,,,79,100
41856,note_on,0,,,1,0,0,,,,,,,,69,43
41856,note_on,0,,,2,0,0,,,,,,,,52,100
41872,note_off,16,,,0,0,0,,,,,,,,76,64
41872,note_off,0,,,0,0,0,,,,,,,,76,64
41904,note_off,32,,,0,0,0,,,,,,,,79,64
41904,note_on,0,,,0,0,0,,,,,,,,78,100
41904,note_off,0,,,0,0,0,,,,,,,,79,64
41904,note_on,0,,,0,0,0,,,,,,,,78,100
41956,note_off,52,,,0,0,0,,,,,,,,78,64
41956,note_on,0,,,0,0,0,,,,,,,,76,100
41956,note_off,0,,,0,0,0,,,,,,,,78,64
41956,note_on,0,,,0,0,0,,,,,,,,76,100
41984,note_off,28,,,2,0,0,,,,,,,,52,64
42048,note_on,64,,,2,0,0,,,,,,,,49,100
42112,note_off,64,,,1,0,0,,,,,,,,69,27
42176,note_off,64,,,2,0,0,,,,,,,,49,64
42240,note_on,64,,,0,0,0,,,,,,,,73,100
42240,note_on,0,,,0,0,0,,,,,,,,73,100
42240,note_on,0,,,1,0,0,,,,,,,,67,43
42240,note_on,0,,,2,0,0,,,,,,,,57,100
42256,note_off,16,,,0,0,0,,,,,,,,76,64
42256,note_off,0,,,0,0,0,,,,,,,,76,64
42288,note_off,32,,,0,0,0,,,,,,,,73,64
42288,note_on,0,,,0,0,0,,,,,,,,71,100
42288,note_off,0,,,0,0,0,,,,,,,,73,64
42288,note_on,0,,,0,0,0,,,,,,,,71,100
42340,note_off,52,,,0,0,0,,,,,,,,71,64
42340,note_on,0,,,0,0,0,,,,,,,,69,100
42340,note_off,0,,,0,0,0,,,,,,,,71,64
42340,note_on,0,,,0,0,0,,,,,,,,69,100
42368,note_off,28,,,2,0,0,,,,,,,,57,64
42432,note_on,64,,,2,0,0,,,,,,,,45,100
42496,note_off,64,,,1,0,0,,,,,,,,67,27
42560,note_off,64,,,2,0,0,,,,,,,,45,64
42624,note_on,64,,,0,0,0,,,,,,,,73,100
42624,note_on,0,,,0,0,0,,,,,,,,73,100
42624,note_on,0,,,1,0,0,,,,,,,,64,43
42624,note_on,0,,,2,0,0,,,,,,,,57,100
42640,note_off,16,,,0,0,0,,,,,,,,69,64
42640,note_off,0,,,0,0,0,,,,,,,,69,64
42672,note_off,32,,,0,0,0,,,,,,,,73,64
42672,note_on,0,,,0,0,0,,,,,,,,71,100
42672,note_off,0,,,0,0,0,,,,,,,,73,64
42672,note_on,0,,,0,0,0,,,,,,,,71,100
42724,note_off,52,,,0,0,0,,,,,,,,71,64
42724,note_on,0,,,0,0,0,,,,,,,,69,100
42724,note_off,0,,,0,0,0,,,,,,,,71,64
42724,note_on,0,,,0,0,0,,,,,,,,69,100
42752,note_off,28,,,2,0,0,,,,,,,,57,64
42816,note_on,64,,,2,0,0,,,,,,,,45,100
42880,note_off,64,,,1,0,0,,,,,,,,64,27
42944,note_off,64,,,2,0,0,,,,,,,,45,64
43008,note_on,64,,,0,0,0,,,,,,,,78,100
43008,note_on,0,,,0,0,0,,,,,,,,78,100
43008,note_on,0,,,1,0,0,,,,,,,,69,43
43008,note_on,0,,,2,0,0,,,,,,,,50,100
43024,note_off,16,,,0,0,0,,,,,,,,69,64
43024,note_off,0,,,0,0,0,,,,,,,,69,64
43264,note_off,240,,,0,0,0,,,,,,,,78,64
43264,note_off,0,,,0,0,0,,,,,,,,78,64
43264,note_off,0,,,1,0,0,,,,,,,,69,27
43264,note_off,0,,,2,0,0,,,,,,,,50,64
43584,note_on,320,,,0,0,0,,,,,,,,77,75
43584,note_on,0,,,0,0,0,,,,,,,,77,75
43584,note_on,0,,,1,0,0,,,,,,,,74,32
43584,note_on,0,,,2,0,0,,,,,,,,50,75
43712,note_off,128,,,0,0,0,,,,,,,,77,64
43712,note_off,0,,,0,0,0,,,,,,,,77,64
43712,note_off,0,,,1,0,0,,,,,,,,74,27
43712,note_off,0,,,2,0,0,,,,,,,,50,64
43776,note_on,64,,,0,0,0,,,,,,,,77,75
43776,note_on,0,,,0,0,0,,,,,,,,77,75
43776,note_on,0,,,1,0,0,,,,,,,,74,32
43776,note_on,0,,,2,0,0,,,,,,,,50,75
43904,note_off,128,,,0,0,0,,,,,,,,77,64
43904,note_off,0,,,0,0,0,,,,,,,,77,64
43904,note_off,0,,,1,0,0,,,,,,,,74,27
43904,note_off,0,,,2,0,0,,,,,,,,50,64
43968,note_on,64,,,0,0,0,,,,,,,,76,75
43968,note_on,0,,,0,0,0,,,,,,,,76,75
43968,note_on,0,,,1,0,0,,,,,,,,73,32
43968,note_on,0,,,2,0,0,,,,,,,,45,75
44096,note_off,128,,,0,0,0,,,,,,,,76,64
44096,note_off,0,,,0,0,0,,,,,,,,76,64
44096,note_off,0,,,1,0,0,,,,,,,,73,27
44096,note_off,0,,,2,0,0,,,,,,,,45,64
44160,note_on,64,,,0,0,0,,,,,,,,76,75
44160,note_on,0,,,0,0,0,,,,,,,,76,75
44160,note_on,0,,,1,0,0,,,,,,,,73,32
44160,note_on,0,,,2,0,0,,,,,,,,45,75
44288,note_off,128,,,0,0,0,,,,,,,,76,64
44288,note_off,0,,,0,0,0,,,,,,,,76,64
44288,note_off,0,,,1,0,0,,,,,,,,73,27
44288,note_off,0,,,2,0,0,,,,,,,,45,64
44352,note_on,64,,,0,0,0,,,,,,,,77,75
44352,note_on,0,,,0,0,0,,,,,,,,77,75
44352,note_on,0,,,1,0,0,,,,,,,,76,32
44352,note_on,0,,,2,0,0,,,,,,,,45,75
44444,note_off,92,,,0,0,0,,,,,,,,77,64
44444,note_off,0,,,0,0,0,,,,,,,,77,64
44448,note_on,4,,,0,0,0,,,,,,,,79,75
44448,note_on,0,,,0,0,0,,,,,,,,79,75
44480,note_off,32,,,1,0,0,,,,,,,,76,27
44480,note_off,0,,,2,0,0,,,,,,,,45,64
44540,note_off,60,,,0,0,0,,,,,,,,79,64
44540,note_off,0,,,0,0,0,,,,,,,,79,64
44544,note_on,4,,,0,0,0,,,,,,,,77,75
44544,note_on,0,,,0,0,0,,,,,,,,77,75
44544,note_on,0,,,1,0,0,,,,,,,,74,32
44544,note_on,0,,,2,0,0,,,,,,,,50,75
44672,note_off,128,,,0,0,0,,,,,,,,77,64
44672,note_off,0,,,0,0,0,,,,,,,,77,64
44672,note_off,0,,,1,0,0,,,,,,,,74,27
44672,note_off,0,,,2,0,0,,,,,,,,50,64
44736,note_on,64,,,0,0,0,,,,,,,,74,75
44736,note_on,0,,,0,0,0,,,,,,,,74,75
44736,note_on,0,,,1,0,0,,,,,,,,69,32
44736,note_on,0,,,2,0,0,,,,,,,,50,75
44864,note_off,128,,,0,0,0,,,,,,,,74,64
44864,note_off,0,,,0,0,0,,,,,,,,74,64
44864,note_off,0,,,1,0,0,,,,,,,,69,27
44864,note_off,0,,,2,0,0,,,,,,,,50,64
44928,note_on,64,,,0,0,0,,,,,,,,74,75
44928,note_on,0,,,0,0,0,,,,,,,,74,75
44928,note_on,0,,,1,0,0,,,,,,,,69,32
44928,note_on,0,,,2,0,0,,,,,,,,50,75
45056,note_off,128,,,0,0,0,,,,,,,,74,64
45056,note_off,0,,,0,0,0,,,,,,,,74,64
45056,note_off,0,,,1,0,0,,,,,,,,69,27
45056,note_off,0,,,2,0,0,,,,,,,,50,64
45120,note_on,64,,,0,0,0,,,,,,,,77,75
45120,note_on,0,,,0,0,0,,,,,,,,77,75
45120,note_on,0,,,1,0,0,,,,,,,,74,32
45120,note_on,0,,,2,0,0,,,,,,,,50,75
45248,note_off,128,,,0,0,0,,,,,,,,77,64
45248,note_off,0,,,0,0,0,,,,,,,,77,64
45248,note_off,0,,,1,0,0,,,,,,,,74,27
45248,note_off,0,,,2,0,0,,,,,,,,50,64
45312,note_on,64,,,0,0,0,,,,,,,,77,75
45312,note_on,0,,,0,0,0,,,,,,,,77,75
45312,note_on,0,,,1,0,0,,,,,,,,74,32
45312,note_on,0,,,2,0,0,,,,,,,,50,75
45440,note_off,128,,,0,0,0,,,,,,,,77,64
45440,note_off,0,,,0,0,0,,,,,,,,77,64
45440,note_off,0,,,1,0,0,,,,,,,,74,27
45440,note_off,0,,,2,0,0,,,,,,,,50,64
45504,note_on,64,,,0,0,0,,,,,,,,76,75
45504,note_on,0,,,0,0,0,,,,,,,,76,75
45504,note_on,0,,,1,0,0,,,,,,,,73,32
45504,note_on,0,,,2,0,0,,,,,,,,45,75
45632,note_off,128,,,0,0,0,,,,,,,,76,64
45632,note_off,0,,,0,0,0,,,,,,,,76,64
45632,note_off,0,,,1,0,0,,,,,,,,73,27
45632,note_off,0,,,2,0,0,,,,,,,,45,64
45696,note_on,64,,,0,0,0,,,,,,,,76,75
45696,note_on,0,,,0,0,0,,,,,,,,76,75
45696,note_on,0,,,1,0,0,,,,,,,,73,32
45696,note_on,0,,,2,0,0,,,,,,,,45,75
45824,note_off,128,,,0,0,0,,,,,,,,76,64
45824,note_off,0,,,0,0,0,,,,,,,,76,64
45824,note_off,0,,,1,0,0,,,,,,,,73,27
45824,note_off,0,,,2,0,0,,,,,,,,45,64
45888,note_on,64,,,0,0,0,,,,,,,,77,75
45888,note_on,0,,,0,0,0,,,,,,,,77,75
45888,note_on,0,,,1,0,0,,,,,,,,74,32
45888,note_on,0,,,2,0,0,,,,,,,,45,75
45980,note_off,92,,,0,0,0,,,,,,,,77,64
45980,note_off,0,,,0,0,0,,,,,,,,77,64
45984,note_on,4,,,0,0,0,,,,,,,,79,75
45984,note_on,0,,,0,0,0,,,,,,,,79,75
46016,note_off,32,,,1,0,0,,,,,,,,74,27
46016,note_off,0,,,2,0,0,,,,,,,,45,64
46076,note_off,60,,,0,0,0,,,,,,,,79,64
46076,note_off,0,,,0,0,0,,,,,,,,79,64
46080,note_on,4,,,0,0,0,,,,,,,,77,75
46080,note_on,0,,,0,0,0,,,,,,,,77,75
46080,note_on,0,,,1,0,0,,,,,,,,74,32
46080,note_on,0,,,2,0,0,,,,,,,,50,75
46208,note_off,128,,,0,0,0,,,,,,,,77,64
46208,note_off,0,,,0,0,0,,,,,,,,77,64
46208,note_off,0,,,1,0,0,,,,,,,,74,27
46208,note_off,0,,,2,0,0,,,,,,,,50,64
46272,note_on,64,,,0,0,0,,,,,,,,74,75
46272,note_on,0,,,0,0,0,,,,,,,,74,75
46272,note_on,0,,,1,0,0,,,,,,,,65,32
46272,note_on,0,,,2,0,0,,,,,,,,50,75
46400,note_off,128,,,0,0,0,,,,,,,,74,64
46400,note_off,0,,,0,0,0,,,,,,,,74,64
46400,note_off,0,,,1,0,0,,,,,,,,65,27
46400,note_off,0,,,2,0,0,,,,,,,,50,64
46464,note_on,64,,,0,0,0,,,,,,,,74,75
46464,note_on,0,,,0,0,0,,,,,,,,74,75
46464,note_on,0,,,1,0,0,,,,,,,,65,32
46464,note_on,0,,,2,0,0,,,,,,,,50,75
46592,note_off,128,,,0,0,0,,,,,,,,74,64
46592,note_off,0,,,0,0,0,,,,,,,,74,64
46592,note_off,0,,,1,0,0,,,,,,,,65,27
46592,note_off,0,,,2,0,0,,,,,,,,50,64
46656,note_on,64,,,0,0,0,,,,,,,,74,75
46656,note_on,0,,,0,0,0,,,,,,,,74,75
46656,note_on,0,,,1,0,0,,,,,,,,65,32
46656,note_on,0,,,2,0,0,,,,,,,,50,75
46784,note_off,128,,,0,0,0,,,,,,,,74,64
46784,note_off,0,,,0,0,0,,,,,,,,74,64
46784,note_off,0,,,1,0,0,,,,,,,,65,27
46784,note_off,0,,,2,0,0,,,,,,,,50,64
46848,note_on,64,,,0,0,0,,,,,,,,75,76
46848,note_on,0,,,0,0,0,,,,,,,,75,76
46848,note_on,0,,,1,0,0,,,,,,,,67,32
46848,note_on,0,,,2,0,0,,,,,,,,48,76
46976,note_off,128,,,0,0,0,,,,,,,,75,64
46976,note_off,0,,,0,0,0,,,,,,,,75,64
46976,note_off,0,,,1,0,0,,,,,,,,67,27
46976,note_off,0,,,2,0,0,,,,,,,,48,64
47040,note_on,64,,,0,0,0,,,,,,,,75,78
47040,note_on,0,,,0,0,0,,,,,,,,75,78
47040,note_on,0,,,1,0,0,,,,,,,,67,33
47040,note_on,0,,,2,0,0,,,,,,,,48,78
47168,note_off,128,,,0,0,0,,,,,,,,75,64
47168,note_off,0,,,0,0,0,,,,,,,,75,64
47168,note_off,0,,,1,0,0,,,,,,,,67,27
47168,note_off,0,,,2,0,0,,,,,,,,48,64
47232,note_on,64,,,0,0,0,,,,,,,,76,80
47232,note_on,0,,,0,0,0,,,,,,,,76,80
47232,note_on,0,,,1,0,0,,,,,,,,67,34
47232,note_on,0,,,2,0,0,,,,,,,,46,80
47360,note_off,128,,,0,0,0,,,,,,,,76,64
47360,note_off,0,,,0,0,0,,,,,,,,76,64
47360,note_off,0,,,1,0,0,,,,,,,,67,27
47360,note_off,0,,,2,0,0,,,,,,,,46,64
47424,note_on,64,,,0,0,0,,,,,,,,76,82
47424,note_on,0,,,0,0,0,,,,,,,,76,82
47424,note_on,0,,,1,0,0,,,,,,,,67,35
47424,note_on,0,,,2,0,0,,,,,,,,46,82
47552,note_off,128,,,0,0,0,,,,,,,,76,64
47552,note_off,0,,,0,0,0,,,,,,,,76,64
47552,note_off,0,,,1,0,0,,,,,,,,67,27
47552,note_off,0,,,2,0,0,,,,,,,,46,64
47616,note_on,64,,,0,0,0,,,,,,,,77,84
47616,note_on,0,,,0,0,0,,,,,,,,77,84
47616,note_on,0,,,1,0,0,,,,,,,,69,36
47616,note_on,0,,,2,0,0,,,,,,,,45,84
47744,note_off,128,,,0,0,0,,,,,,,,77,64
47744,note_off,0,,,0,0,0,,,,,,,,77,64
47744,note_off,0,,,1,0,0,,,,,,,,69,27
47744,note_off,0,,,2,0,0,,,,,,,,45,64
47808,note_on,64,,,0,0,0,,,,,,,,77,86
47808,note_on,0,,,0,0,0,,,,,,,,77,86
47808,note_on,0,,,1,0,0,,,,,,,,69,36
47808,note_on,0,,,2,0,0,,,,,,,,45,86
47936,note_off,128,,,0,0,0,,,,,,,,77,64
47936,note_off,0,,,0,0,0,,,,,,,,77,64
47936,note_off,0,,,1,0,0,,,,,,,,69,27
47936,note_off,0,,,2,0,0,,,,,,,,45,64
48000,note_on,64,,,0,0,0,,,,,,,,78,88
48000,note_on,0,,,0,0,0,,,,,,,,78,88
48000,note_on,0,,,1,0,0,,,,,,,,69,37
48000,note_on,0,,,2,0,0,,,,,,,,50,88
48128,note_off,128,,,0,0,0,,,,,,,,78,64
48128,note_off,0,,,0,0,0,,,,,,,,78,64
48128,note_off,0,,,1,0,0,,,,,,,,69,27
48128,note_off,0,,,2,0,0,,,,,,,,50,64
48192,note_on,64,,,0,0,0,,,,,,,,78,90
48192,note_on,0,,,0,0,0,,,,,,,,78,90
48192,note_on,0,,,1,0,0,,,,,,,,69,38
48192,note_on,0,,,2,0,0,,,,,,,,48,90
48320,note_off,128,,,0,0,0,,,,,,,,78,64
48320,note_off,0,,,0,0,0,,,,,,,,78,64
48320,note_off,0,,,1,0,0,,,,,,,,69,27
48320,note_off,0,,,2,0,0,,,,,,,,48,64
48384,note_on,64,,,0,0,0,,,,,,,,79,92
48384,note_on,0,,,0,0,0,,,,,,,,79,92
48384,note_on,0,,,1,0,0,,,,,,,,70,39
48384,note_on,0,,,2,0,0,,,,,,,,46,92
48512,note_off,128,,,0,0,0,,,,,,,,79,64
48512,note_off,0,,,0,0,0,,,,,,,,79,64
48512,note_off,0,,,1,0,0,,,,,,,,70,27
48512,note_off,0,,,2,0,0,,,,,,,,46,64
48576,note_on,64,,,0,0,0,,,,,,,,79,94
48576,note_on,0,,,0,0,0,,,,,,,,79,94
48576,note_on,0,,,1,0,0,,,,,,,,74,40
48576,note_on,0,,,2,0,0,,,,,,,,46,94
48704,note_off,128,,,0,0,0,,,,,,,,79,64
48704,note_off,0,,,0,0,0,,,,,,,,79,64
48704,note_off,0,,,1,0,0,,,,,,,,74,27
48704,note_off,0,,,2,0,0,,,,,,,,46,64
48768,note_on,64,,,0,0,0,,,,,,,,80,96
48768,note_on,0,,,0,0,0,,,,,,,,80,96
48768,note_on,0,,,1,0,0,,,,,,,,74,41
48768,note_on,0,,,2,0,0,,,,,,,,52,96
48896,note_off,128,,,0,0,0,,,,,,,,80,64
48896,note_off,0,,,0,0,0,,,,,,,,80,64
48896,note_off,0,,,1,0,0,,,,,,,,74,27
48896,note_off,0,,,2,0,0,,,,,,,,52,64
48960,note_on,64,,,0,0,0,,,,,,,,80,98
48960,note_on,0,,,0,0,0,,,,,,,,80,98
48960,note_on,0,,,1,0,0,,,,,,,,76,42
48960,note_on,0,,,2,0,0,,,,,,,,50,98
49088,note_off,128,,,0,0,0,,,,,,,,80,64
49088,note_off,0,,,0,0,0,,,,,,,,80,64
49088,note_off,0,,,1,0,0,,,,,,,,76,27
49088,note_off,0,,,2,0,0,,,,,,,,50,64
49152,note_on,64,,,0,0,0,,,,,,,,81,100
49152,note_on,0,,,0,0,0,,,,,,,,81,100
49152,note_on,0,,,1,0,0,,,,,,,,76,43
49152,note_on,0,,,2,0,0,,,,,,,,49,100
49280,note_off,128,,,0,0,0,,,,,,,,81,64
49280,note_off,0,,,0,0,0,,,,,,,,81,64
49280,note_off,0,,,1,0,0,,,,,,,,76,27
49280,note_off,0,,,2,0,0,,,,,,,,49,64
49344,note_on,64,,,1,0,0,,,,,,,,78,43
49344,note_on,0,,,2,0,0,,,,,,,,50,100
49472,note_off,128,,,1,0,0,,,,,,,,78,27
49472,note_off,0,,,2,0,0,,,,,,,,50,64
49536,note_on,64,,,0,0,0,,,,,,,,81,100
49536,note_on,0,,,0,0,0,,,,,,,,81,100
49536,note_on,0,,,1,0,0,,,,,,,,76,43
49536,note_on,0,,,2,0,0,,,,,,,,49,100
49664,note_off,128,,,0,0,0,,,,,,,,81,64
49664,note_off,0,,,0,0,0,,,,,,,,81,64
49664,note_off,0,,,1,0,0,,,,,,,,76,27
49664,note_off,0,,,2,0,0,,,,,,,,49,64
49728,note_on,64,,,1,0,0,,,,,,,,74,43
49728,note_on,0,,,2,0,0,,,,,,,,47,100
49856,note_off,128,,,1,0,0,,,,,,,,74,27
49856,note_off,0,,,2,0,0,,,,,,,,47,64
49920,note_on,64,,,0,0,0,,,,,,,,81,100
49920,note_on,0,,,0,0,0,,,,,,,,81,100
49920,note_on,0,,,1,0,0,,,,,,,,73,43
49920,note_on,0,,,2,0,0,,,,,,,,45,100
50048,note_off,128,,,0,0,0,,,,,,,,81,64
50048,note_off,0,,,0,0,0,,,,,,,,81,64
50048,note_off,0,,,1,0,0,,,,,,,,73,27
50048,note_off,0,,,2,0,0,,,,,,,,45,64
50112,note_on,64,,,1,0,0,,,,,,,,74,43
50112,note_on,0,,,2,0,0,,,,,,,,47,100
50240,note_off,128,,,1,0,0,,,,,,,,74,27
50240,note_off,0,,,2,0,0,,,,,,,,47,64
50304,note_on,64,,,1,0,0,,,,,,,,76,43
50304,note_on,0,,,2,0,0,,,,,,,,49,100
50432,note_off,128,,,1,0,0,,,,,,,,76,27
50432,note_off,0,,,2,0,0,,,,,,,,49,64
50496,note_on,64,,,0,0,0,,,,,,,,79,100
50496,note_on,0,,,0,0,0,,,,,,,,79,100
50496,note_on,0,,,1,0,0,,,,,,,,74,43
50496,note_on,0,,,2,0,0,,,,,,,,45,100
50624,note_off,128,,,0,0,0,,,,,,,,79,64
50624,note_off,0,,,0,0,0,,,,,,,,79,64
50624,note_off,0,,,1,0,0,,,,,,,,74,27
50624,note_off,0,,,2,0,0,,,,,,,,45,64
50688,note_on,64,,,0,0,0,,,,,,,,78,100
50688,note_on,0,,,0,0,0,,,,,,,,78,100
50688,note_on,0,,,1,0,0,,,,,,,,74,43
50688,note_on,0,,,2,0,0,,,,,,,,50,100
50752,note_off,64,,,0,0,0,,,,,,,,78,64
50752,note_off,0,,,0,0,0,,,,,,,,78,64
50784,note_on,32,,,0,0,0,,,,,,,,79,100
50784,note_on,0,,,0,0,0,,,,,,,,79,100
50816,note_off,32,,,1,0,0,,,,,,,,74,27
50816,note_off,0,,,2,0,0,,,,,,,,50,64
50848,note_off,32,,,0,0,0,,,,,,,,79,64
50848,note_off,0,,,0,0,0,,,,,,,,79,64
50880,note_on,32,,,0,0,0,,,,,,,,81,100
50880,note_on,0,,,0,0,0,,,,,,,,81,100
50880,note_on,0,,,1,0,0,,,,,,,,74,43
50880,note_on,0,,,2,0,0,,,,,,,,50,100
50944,note_off,64,,,0,0,0,,,,,,,,81,64
50944,note_off,0,,,0,0,0,,,,,,,,81,64
50976,note_on,32,,,0,0,0,,,,,,,,78,100
50976,note_on,0,,,0,0,0,,,,,,,,78,100
51008,note_off,32,,,1,0,0,,,,,,,,74,27
51008,note_off,0,,,2,0,0,,,,,,,,50,64
51040,note_off,32,,,0,0,0,,,,,,,,78,64
51040,note_off,0,,,0,0,0,,,,,,,,78,64
51072,note_on,32,,,0,0,0,,,,,,,,76,100
51072,note_on,0,,,0,0,0,,,,,,,,76,100
51072,note_on,0,,,1,0,0,,,,,,,,73,43
51072,note_on,0,,,2,0,0,,,,,,,,45,100
51136,note_off,64,,,0,0,0,,,,,,,,76,64
51136,note_off,0,,,0,0,0,,,,,,,,76,64
51168,note_on,32,,,0,0,0,,,,,,,,78,100
51168,note_on,0,,,0,0,0,,,,,,,,78,100
51200,note_off,32,,,1,0,0,,,,,,,,73,27
51200,note_off,0,,,2,0,0,,,,,,,,45,64
51232,note_off,32,,,0,0,0,,,,,,,,78,64
51232,note_off,0,,,0,0,0,,,,,,,,78,64
51264,note_on,32,,,0,0,0,,,,,,,,79,100
51264,note_on,0,,,0,0,0,,,,,,,,79,100
51264,note_on,0,,,1,0,0,,,,,,,,73,43
51264,note_on,0,,,2,0,0,,,,,,,,45,100
51328,note_off,64,,,0,0,0,,,,,,,,79,64
51328,note_off,0,,,0,0,0,,,,,,,,79,64
51360,note_on,32,,,0,0,0,,,,,,,,76,100
51360,note_on,0,,,0,0,0,,,,,,,,76,100
51392,note_off,32,,,1,0,0,,,,,,,,73,27
51392,note_off,0,,,2,0,0,,,,,,,,45,64
51424,note_off,32,,,0,0,0,,,,,,,,76,64
51424,note_off,0,,,0,0,0,,,,,,,,76,64
51456,note_on,32,,,0,0,0,,,,,,,,78,100
51456,note_on,0,,,0,0,0,,,,,,,,78,100
51456,note_on,0,,,1,0,0,,,,,,,,74,43
51456,note_on,0,,,2,0,0,,,,,,,,50,100
51520,note_off,64,,,0,0,0,,,,,,,,78,64
51520,note_off,0,,,0,0,0,,,,,,,,78,64
51552,note_on,32,,,0,0,0,,,,,,,,79,100
51552,note_on,0,,,0,0,0,,,,,,,,79,100
51584,note_off,32,,,1,0,0,,,,,,,,74,27
51584,note_off,0,,,2,0,0,,,,,,,,50,64
51616,note_off,32,,,0,0,0,,,,,,,,79,64
51616,note_off,0,,,0,0,0,,,,,,,,79,64
51648,note_on,32,,,0,0,0,,,,,,,,81,100
51648,note_on,0,,,0,0,0,,,,,,,,81,100
51648,note_on,0,,,1,0,0,,,,,,,,74,43
51648,note_on,0,,,2,0,0,,,,,,,,50,100
51712,note_off,64,,,0,0,0,,,,,,,,81,64
51712,note_off,0,,,0,0,0,,,,,,,,81,64
51744,note_on,32,,,0,0,0,,,,,,,,78,100
51744,note_on,0,,,0,0,0,,,,,,,,78,100
51776,note_off,32,,,1,0,0,,,,,,,,74,27
51776,note_off,0,,,2,0,0,,,,,,,,50,64
51808,note_off,32,,,0,0,0,,,,,,,,78,64
51808,note_off,0,,,0,0,0,,,,,,,,78,64
51840,note_on,32,,,0,0,0,,,,,,,,76,100
51840,note_on,0,,,0,0,0,,,,,,,,76,100
51840,note_on,0,,,1,0,0,,,,,,,,69,43
51840,note_on,0,,,2,0,0,,,,,,,,45,100
51904,note_off,64,,,0,0,0,,,,,,,,76,64
51904,note_off,0,,,0,0,0,,,,,,,,76,64
51936,note_on,32,,,0,0,0,,,,,,,,78,100
51936,note_on,0,,,0,0,0,,,,,,,,78,100
51968,note_off,32,,,1,0,0,,,,,,,,69,27
51968,note_off,0,,,2,0,0,,,,,,,,45,64
52000,note_off,32,,,0,0,0,,,,,,,,78,64
52000,note_off,0,,,0,0,0,,,,,,,,78,64
52032,note_on,32,,,0,0,0,,,,,,,,79,100
52032,note_on,0,,,0,0,0,,,,,,,,79,100
52032,note_on,0,,,1,0,0,,,,,,,,69,43
52032,note_on,0,,,2,0,0,,,,,,,,45,100
52096,note_off,64,,,0,0,0,,,,,,,,79,64
52096,note_off,0,,,0,0,0,,,,,,,,79,64
52128,note_on,32,,,0,0,0,,,,,,,,76,100
52128,note_on,0,,,0,0,0,,,,,,,,76,100
52160,note_off,32,,,1,0,0,,,,,,,,69,27
52160,note_off,0,,,2,0,0,,,,,,,,45,64
52192,note_off,32,,,0,0,0,,,,,,,,76,64
52192,note_off,0,,,0,0,0,,,,,,,,76,64
52224,note_on,32,,,0,0,0,,,,,,,,74,100
52224,note_on,0,,,0,0,0,,,,,,,,74,100
52224,note_on,0,,,1,0,0,,,,,,,,66,43
52224,note_on,0,,,2,0,0,,,,,,,,50,100
52480,note_off,256,,,0,0,0,,,,,,,,74,64
52480,note_off,0,,,0,0,0,,,,,,,,74,64
52480,note_off,0,,,1,0,0,,,,,,,,66,27
52480,note_off,0,,,2,0,0,,,,,,,,50,64
52800,note_on,320,,,2,0,0,,,,,,,,50,100
52928,note_off,128,,,2,0,0,,,,,,,,50,64
52992,note_on,64,,,2,0,0,,,,,,,,50,100
53120,note_off,128,,,2,0,0,,,,,,,,50,64
53184,note_on,64,,,2,0,0,,,,,,,,52,100
53312,note_off,128,,,2,0,0,,,,,,,,52,64
53376,note_on,64,,,2,0,0,,,,,,,,54,100
53504,note_off,128,,,2,0,0,,,,,,,,54,64
53568,note_on,64,,,2,0,0,,,,,,,,50,100
53696,note_off,128,,,2,0,0,,,,,,,,50,64
53760,note_on,64,,,2,0,0,,,,,,,,45,100
53888,note_off,128,,,2,0,0,,,,,,,,45,64
53952,note_on,64,,,2,0,0,,,,,,,,47,100
54080,note_off,128,,,2,0,0,,,,,,,,47,64
54144,note_on,64,,,2,0,0,,,,,,,,49,100
54272,note_off,128,,,2,0,0,,,,,,,,49,64
54336,note_on,64,,,2,0,0,,,,,,,,45,100
54464,note_off,128,,,2,0,0,,,,,,,,45,64
54528,note_on,64,,,2,0,0,,,,,,,,45,100
54656,note_off,128,,,2,0,0,,,,,,,,45,64
54720,note_on,64,,,2,0,0,,,,,,,,47,100
54848,note_off,128,,,2,0,0,,,,,,,,47,64
54912,note_on,64,,,2,0,0,,,,,,,,49,100
55040,note_off,128,,,2,0,0,,,,,,,,49,64
55104,note_on,64,,,2,0,0,,,,,,,,45,100
55232,note_off,128,,,2,0,0,,,,,,,,45,64
55296,note_on,64,,,2,0,0,,,,,,,,50,100
55424,note_off,128,,,2,0,0,,,,,,,,50,64
55488,note_on,64,,,2,0,0,,,,,,,,52,100
55616,note_off,128,,,2,0,0,,,,,,,,52,64
55680,note_on,64,,,2,0,0,,,,,,,,54,100
55808,note_off,128,,,2,0,0,,,,,,,,54,64
55872,note_on,64,,,2,0,0,,,,,,,,50,100
56000,note_off,128,,,2,0,0,,,,,,,,50,64
56064,note_on,64,,,2,0,0,,,,,,,,55,100
56192,note_off,128,,,2,0,0,,,,,,,,55,64
56256,note_on,64,,,2,0,0,,,,,,,,54,100
56384,note_off,128,,,2,0,0,,,,,,,,54,64
56448,note_on,64,,,2,0,0,,,,,,,,55,100
56576,note_off,128,,,2,0,0,,,,,,,,55,64
56832,note_on,256,,,2,0,0,,,,,,,,61,100
56960,note_off,128,,,2,0,0,,,,,,,,61,64
57024,note_on,64,,,2,0,0,,,,,,,,59,100
57152,note_off,128,,,2,0,0,,,,,,,,59,64
57216,note_on,64,,,2,0,0,,,,,,,,61,100
57344,note_off,128,,,2,0,0,,,,,,,,61,64
57408,note_on,64,,,2,0,0,,,,,,,,49,100
57536,note_off,128,,,2,0,0,,,,,,,,49,64
57600,note_on,64,,,2,0,0,,,,,,,,54,100
57728,note_off,128,,,2,0,0,,,,,,,,54,64
57792,note_on,64,,,2,0,0,,,,,,,,52,100
57920,note_off,128,,,2,0,0,,,,,,,,52,64
57984,note_on,64,,,2,0,0,,,,,,,,54,100
58112,note_off,128,,,2,0,0,,,,,,,,54,64
58368,note_on,256,,,2,0,0,,,,,,,,59,100
58496,note_off,128,,,2,0,0,,,,,,,,59,64
58560,note_on,64,,,2,0,0,,,,,,,,57,100
58688,note_off,128,,,2,0,0,,,,,,,,57,64
58752,note_on,64,,,2,0,0,,,,,,,,59,100
58880,note_off,128,,,2,0,0,,,,,,,,59,64
58944,note_on,64,,,2,0,0,,,,,,,,47,100
59072,note_off,128,,,2,0,0,,,,,,,,47,64
59136,note_on,64,,,2,0,0,,,,,,,,52,100
59264,note_off,128,,,2,0,0,,,,,,,,52,64
59328,note_on,64,,,2,0,0,,,,,,,,50,100
59456,note_off,128,,,2,0,0,,,,,,,,50,64
59520,note_on,64,,,2,0,0,,,,,,,,52,100
59648,note_off,128,,,2,0,0,,,,,,,,52,64
59712,note_on,64,,,2,0,0,,,,,,,,40,100
59840,note_off,128,,,2,0,0,,,,,,,,40,64
59904,note_on,64,,,2,0,0,,,,,,,,50,100
60032,note_off,128,,,2,0,0,,,,,,,,50,64
60096,note_on,64,,,2,0,0,,,,,,,,49,100
60224,note_off,128,,,2,0,0,,,,,,,,49,64
60288,note_on,64,,,2,0,0,,,,,,,,50,100
60416,note_off,128,,,2,0,0,,,,,,,,50,64
60480,note_on,64,,,2,0,0,,,,,,,,38,100
60608,note_off,128,,,2,0,0,,,,,,,,38,64
60672,note_on,64,,,2,0,0,,,,,,,,50,100
60800,note_off,128,,,2,0,0,,,,,,,,50,64
60864,note_on,64,,,2,0,0,,,,,,,,54,100
60992,note_off,128,,,2,0,0,,,,,,,,54,64
61056,note_on,64,,,2,0,0,,,,,,,,52,100
61184,note_off,128,,,2,0,0,,,,,,,,52,64
61248,note_on,64,,,2,0,0,,,,,,,,50,100
61376,note_off,128,,,2,0,0,,,,,,,,50,64
61440,note_on,64,,,2,0,0,,,,,,,,45,100
61632,note_on,192,,,0,0,0,,,,,,,,73,100
61632,note_on,0,,,0,0,0,,,,,,,,69,100
61696,note_off,64,,,0,0,0,,,,,,,,73,64
61696,note_off,0,,,0,0,0,,,,,,,,69,64
61696,note_off,0,,,2,0,0,,,,,,,,45,64
61728,note_on,32,,,0,0,0,,,,,,,,74,100
61728,note_on,0,,,0,0,0,,,,,,,,71,100
61792,note_off,64,,,0,0,0,,,,,,,,74,64
61792,note_off,0,,,0,0,0,,,,,,,,71,64
61824,note_on,32,,,0,0,0,,,,,,,,76,100
61824,note_on,0,,,0,0,0,,,,,,,,73,100
61824,note_on,0,,,2,0,0,,,,,,,,45,100
61888,note_off,64,,,0,0,0,,,,,,,,76,64
61888,note_off,0,,,0,0,0,,,,,,,,73,64
61920,note_on,32,,,0,0,0,,,,,,,,74,100
61920,note_on,0,,,0,0,0,,,,,,,,71,100
61984,note_off,64,,,0,0,0,,,,,,,,74,64
61984,note_off,0,,,0,0,0,,,,,,,,71,64
62016,note_on,32,,,0,0,0,,,,,,,,76,100
62016,note_on,0,,,0,0,0,,,,,,,,73,100
62080,note_off,64,,,0,0,0,,,,,,,,76,64
62080,note_off,0,,,0,0,0,,,,,,,,73,64
62080,note_off,0,,,2,0,0,,,,,,,,45,64
62112,note_on,32,,,0,0,0,,,,,,,,74,100
62112,note_on,0,,,0,0,0,,,,,,,,71,100
62176,note_off,64,,,0,0,0,,,,,,,,74,64
62176,note_off,0,,,0,0,0,,,,,,,,71,64
62208,note_on,32,,,0,0,0,,,,,,,,73,100
62208,note_on,0,,,0,0,0,,,,,,,,69,100
62208,note_on,0,,,2,0,0,,,,,,,,45,100
62272,note_off,64,,,0,0,0,,,,,,,,73,64
62272,note_off,0,,,0,0,0,,,,,,,,69,64
62304,note_on,32,,,0,0,0,,,,,,,,74,100
62304,note_on,0,,,0,0,0,,,,,,,,71,100
62368,note_off,64,,,0,0,0,,,,,,,,74,64
62368,note_off,0,,,0,0,0,,,,,,,,71,64
62400,note_on,32,,,0,0,0,,,,,,,,73,100
62400,note_on,0,,,0,0,0,,,,,,,,69,100
62464,note_off,64,,,0,0,0,,,,,,,,73,64
62464,note_off,0,,,0,0,0,,,,,,,,69,64
62464,note_off,0,,,2,0,0,,,,,,,,45,64
62496,note_on,32,,,0,0,0,,,,,,,,74,100
62496,note_on,0,,,0,0,0,,,,,,,,71,100
62560,note_off,64,,,0,0,0,,,,,,,,74,64
62560,note_off,0,,,0,0,0,,,,,,,,71,64
62592,note_on,32,,,0,0,0,,,,,,,,76,100
62592,note_on,0,,,0,0,0,,,,,,,,73,100
62592,note_on,0,,,2,0,0,,,,,,,,45,100
62656,note_off,64,,,0,0,0,,,,,,,,76,64
62656,note_off,0,,,0,0,0,,,,,,,,73,64
62688,note_on,32,,,0,0,0,,,,,,,,74,100
62688,note_on,0,,,0,0,0,,,,,,,,71,100
62752,note_off,64,,,0,0,0,,,,,,,,74,64
62752,note_off,0,,,0,0,0,,,,,,,,71,64
62784,note_on,32,,,0,0,0,,,,,,,,76,100
62784,note_on,0,,,0,0,0,,,,,,,,73,100
62848,note_off,64,,,0,0,0,,,,,,,,76,64
62848,note_off,0,,,0,0,0,,,,,,,,73,64
62848,note_off,0,,,2,0,0,,,,,,,,45,64
62880,note_on,32,,,0,0,0,,,,,,,,74,100
62880,note_on,0,,,0,0,0,,,,,,,,71,100
62944,note_off,64,,,0,0,0,,,,,,,,74,64
62944,note_off,0,,,0,0,0,,,,,,,,71,64
62976,note_on,32,,,0,0,0,,,,,,,,73,100
62976,note_on,0,,,0,0,0,,,,,,,,69,100
62976,note_on,0,,,2,0,0,,,,,,,,45,100
63232,note_off,256,,,0,0,0,,,,,,,,73,64
63232,note_off,0,,,0,0,0,,,,,,,,69,64
63232,note_off,0,,,2,0,0,,,,,,,,45,64
63744,note_on,512,,,2,0,0,,,,,,,,45,100
64000,note_off,256,,,2,0,0,,,,,,,,45,64
64512,note_on,512,,,2,0,0,,,,,,,,45,100
64768,note_off,256,,,2,0,0,,,,,,,,45,64
65280,note_on,512,,,2,0,0,,,,,,,,45,100
65536,note_off,256,,,2,0,0,,,,,,,,45,64
66048,note_on,512,,,2,0,0,,,,,,,,45,100
66304,note_off,256,,,2,0,0,,,,,,,,45,64
66432,note_on,128,,,2,0,0,,,,,,,,45,100
66688,note_off,256,,,2,0,0,,,,,,,,45,64
66816,note_on,128,,,2,0,0,,,,,,,,45,100
66944,note_off,128,,,2,0,0,,,,,,,,45,64
67008,note_on,64,,,2,0,0,,,,,,,,57,100
67136,note_off,128,,,2,0,0,,,,,,,,57,64
67200,note_on,64,,,2,0,0,,,,,,,,50,100
67328,note_off,128,,,2,0,0,,,,,,,,50,64
67392,note_on,64,,,2,0,0,,,,,,,,52,100
67520,note_off,128,,,2,0,0,,,,,,,,52,64
67584,note_on,64,,,2,0,0,,,,,,,,45,100
67840,note_off,256,,,2,0,0,,,,,,,,45,64
67968,note_on,128,,,2,0,0,,,,,,,,45,100
68224,note_off,256,,,2,0,0,,,,,,,,45,64
68352,note_on,128,,,2,0,0,,,,,,,,45,100
68480,note_off,128,,,2,0,0,,,,,,,,45,64
68544,note_on,64,,,2,0,0,,,,,,,,57,100
68672,note_off,128,,,2,0,0,,,,,,,,57,64
68736,note_on,64,,,2,0,0,,,,,,,,50,100
68864,note_off,128,,,2,0,0,,,,,,,,50,64
68928,note_on,64,,,2,0,0,,,,,,,,52,100
69056,note_off,128,,,2,0,0,,,,,,,,52,64
69120,note_on,64,,,2,0,0,,,,,,,,45,100
69248,note_off,128,,,2,0,0,,,,,,,,45,64
69312,note_on,64,,,0,0,0,,,,,,,,81,100
69312,note_on,0,,,0,0,0,,,,,,,,76,100
69312,note_on,0,,,1,0,0,,,,,,,,73,43
69312,note_on,0,,,2,0,0,,,,,,,,57,100
69440,note_off,128,,,0,0,0,,,,,,,,81,64
69440,note_off,0,,,0,0,0,,,,,,,,76,64
69440,note_off,0,,,1,0,0,,,,,,,,73,27
69440,note_off,0,,,2,0,0,,,,,,,,57,64
69504,note_on,64,,,0,0,0,,,,,,,,83,100
69504,note_on,0,,,0,0,0,,,,,,,,78,100
69504,note_on,0,,,1,0,0,,,,,,,,74,43
69504,note_on,0,,,2,0,0,,,,,,,,50,100
69632,note_off,128,,,0,0,0,,,,,,,,83,64
69632,note_off,0,,,0,0,0,,,,,,,,78,64
69632,note_off,0,,,1,0,0,,,,,,,,74,27
69632,note_off,0,,,2,0,0,,,,,,,,50,64
69696,note_on,64,,,0,0,0,,,,,,,,80,100
69696,note_on,0,,,0,0,0,,,,,,,,74,100
69696,note_on,0,,,1,0,0,,,,,,,,71,43
69696,note_on,0,,,2,0,0,,,,,,,,52,100
69824,note_off,128,,,0,0,0,,,,,,,,80,64
69824,note_off,0,,,0,0,0,,,,,,,,74,64
69824,note_off,0,,,1,0,0,,,,,,,,71,27
69824,note_off,0,,,2,0,0,,,,,,,,52,64
69888,note_on,64,,,0,0,0,,,,,,,,81,100
69888,note_on,0,,,0,0,0,,,,,,,,76,100
69888,note_on,0,,,1,0,0,,,,,,,,73,43
69888,note_on,0,,,2,0,0,,,,,,,,45,100
70400,note_off,512,,,0,0,0,,,,,,,,81,64
70400,note_off,0,,,0,0,0,,,,,,,,76,64
70400,note_off,0,,,1,0,0,,,,,,,,73,27
70400,note_off,0,,,2,0,0,,,,,,,,45,64
70656,note_on,256,,,0,0,0,,,,,,,,73,100
70656,note_on,0,,,0,0,0,,,,,,,,76,100
70656,note_on,0,,,1,0,0,,,,,,,,69,43
70656,note_on,0,,,2,0,0,,,,,,,,45,100
70704,note_off,48,,,0,0,0,,,,,,,,73,64
70704,note_on,0,,,0,0,0,,,,,,,,71,100
70704,note_off,0,,,0,0,0,,,,,,,,76,64
70704,note_on,0,,,0,0,0,,,,,,,,74,100
70756,note_off,52,,,0,0,0,,,,,,,,71,64
70756,note_on,0,,,0,0,0,,,,,,,,69,100
70756,note_off,0,,,0,0,0,,,,,,,,74,64
70756,note_on,0,,,0,0,0,,,,,,,,73,100
70784,note_off,28,,,2,0,0,,,,,,,,45,64
70848,note_on,64,,,2,0,0,,,,,,,,45,100
70912,note_off,64,,,1,0,0,,,,,,,,69,27
70976,note_off,64,,,2,0,0,,,,,,,,45,64
71040,note_on,64,,,0,0,0,,,,,,,,73,100
71040,note_on,0,,,0,0,0,,,,,,,,76,100
71040,note_on,0,,,0,0,0,,,,,,,,57,100
71040,note_on,0,,,1,0,0,,,,,,,,61,43
71040,note_on,0,,,2,0,0,,,,,,,,45,100
71056,note_off,16,,,0,0,0,,,,,,,,69,64
71056,note_off,0,,,0,0,0,,,,,,,,73,64
71088,note_off,32,,,0,0,0,,,,,,,,73,64
71088,note_on,0,,,0,0,0,,,,,,,,71,100
71088,note_off,0,,,0,0,0,,,,,,,,76,64
71088,note_on,0,,,0,0,0,,,,,,,,74,100
71140,note_off,52,,,0,0,0,,,,,,,,71,64
71140,note_on,0,,,0,0,0,,,,,,,,69,100
71140,note_off,0,,,0,0,0,,,,,,,,74,64
71140,note_on,0,,,0,0,0,,,,,,,,73,100
71168,note_off,28,,,0,0,0,,,,,,,,57,64
71168,note_off,0,,,2,0,0,,,,,,,,45,64
71232,note_on,64,,,2,0,0,,,,,,,,45,100
71296,note_off,64,,,1,0,0,,,,,,,,61,27
71360,note_off,64,,,2,0,0,,,,,,,,45,64
71424,note_on,64,,,0,0,0,,,,,,,,76,100
71424,note_on,0,,,0,0,0,,,,,,,,71,100
71424,note_on,0,,,1,0,0,,,,,,,,64,43
71424,note_on,0,,,2,0,0,,,,,,,,44,100
71440,note_off,16,,,0,0,0,,,,,,,,69,64
71440,note_off,0,,,0,0,0,,,,,,,,73,64
71552,note_off,112,,,0,0,0,,,,,,,,76,64
71552,note_off,0,,,0,0,0,,,,,,,,71,64
71552,note_off,0,,,1,0,0,,,,,,,,64,27
71552,note_off,0,,,2,0,0,,,,,,,,44,64
71616,note_on,64,,,0,0,0,,,,,,,,64,100
71616,note_on,0,,,0,0,0,,,,,,,,64,100
71616,note_on,0,,,1,0,0,,,,,,,,59,43
71616,note_on,0,,,2,0,0,,,,,,,,44,100
71744,note_off,128,,,0,0,0,,,,,,,,64,64
71744,note_off,0,,,0,0,0,,,,,,,,64,64
71744,note_off,0,,,1,0,0,,,,,,,,59,27
71744,note_off,0,,,2,0,0,,,,,,,,44,64
71808,note_on,64,,,0,0,0,,,,,,,,64,100
71808,note_on,0,,,0,0,0,,,,,,,,64,100
71808,note_on,0,,,1,0,0,,,,,,,,59,43
71808,note_on,0,,,2,0,0,,,,,,,,44,100
71936,note_off,128,,,0,0,0,,,,,,,,64,64
71936,note_off,0,,,0,0,0,,,,,,,,64,64
71936,note_off,0,,,1,0,0,,,,,,,,59,27
71936,note_off,0,,,2,0,0,,,,,,,,44,64
72000,note_on,64,,,0,0,0,,,,,,,,64,100
72000,note_on,0,,,0,0,0,,,,,,,,64,100
72000,note_on,0,,,1,0,0,,,,,,,,59,43
72000,note_on,0,,,2,0,0,,,,,,,,44,100
72128,note_off,128,,,0,0,0,,,,,,,,64,64
72128,note_off,0,,,0,0,0,,,,,,,,64,64
72128,note_off,0,,,1,0,0,,,,,,,,59,27
72128,note_off,0,,,2,0,0,,,,,,,,44,64
72192,note_on,64,,,0,0,0,,,,,,,,73,100
72192,note_on,0,,,0,0,0,,,,,,,,76,100
72192,note_on,0,,,1,0,0,,,,,,,,69,43
72192,note_on,0,,,2,0,0,,,,,,,,45,100
72240,note_off,48,,,0,0,0,,,,,,,,73,64
72240,note_on,0,,,0,0,0,,,,,,,,71,100
72240,note_off,0,,,0,0,0,,,,,,,,76,64
72240,note_on,0,,,0,0,0,,,,,,,,74,100
72292,note_off,52,,,0,0,0,,,,,,,,71,64
72292,note_on,0,,,0,0,0,,,,,,,,69,100
72292,note_off,0,,,0,0,0,,,,,,,,74,64
72292,note_on,0,,,0,0,0,,,,,,,,73,100
72320,note_off,28,,,2,0,0,,,,,,,,45,64
72384,note_on,64,,,2,0,0,,,,,,,,45,100
72448,note_off,64,,,1,0,0,,,,,,,,69,27
72512,note_off,64,,,2,0,0,,,,,,,,45,64
72576,note_on,64,,,0,0,0,,,,,,,,73,100
72576,note_on,0,,,0,0,0,,,,,,,,76,100
72576,note_on,0,,,1,0,0,,,,,,,,61,43
72576,note_on,0,,,2,0,0,,,,,,,,45,100
72592,note_off,16,,,0,0,0,,,,,,,,69,64
72592,note_off,0,,,0,0,0,,,,,,,,73,64
72624,note_off,32,,,0,0,0,,,,,,,,73,64
72624,note_on,0,,,0,0,0,,,,,,,,71,100
72624,note_off,0,,,0,0,0,,,,,,,,76,64
72624,note_on,0,,,0,0,0,,,,,,,,74,100
72676,note_off,52,,,0,0,0,,,,,,,,71,64
72676,note_on,0,,,0,0,0,,,,,,,,69,100
72676,note_off,0,,,0,0,0,,,,,,,,74,64
72676,note_on,0,,,0,0,0,,,,,,,,73,100
72704,note_off,28,,,2,0,0,,,,,,,,45,64
72768,note_on,64,,,2,0,0,,,,,,,,45,100
72832,note_off,64,,,1,0,0,,,,,,,,61,27
72896,note_off,64,,,2,0,0,,,,,,,,45,64
72960,note_on,64,,,0,0,0,,,,,,,,76,100
72960,note_on,0,,,0,0,0,,,,,,,,71,100
72960,note_on,0,,,1,0,0,,,,,,,,64,43
72960,note_on,0,,,2,0,0,,,,,,,,44,100
72976,note_off,16,,,0,0,0,,,,,,,,69,64
72976,note_off,0,,,0,0,0,,,,,,,,73,64
73088,note_off,112,,,0,0,0,,,,,,,,76,64
73088,note_off,0,,,0,0,0,,,,,,,,71,64
73088,note_off,0,,,1,0,0,,,,,,,,64,27
73088,note_off,0,,,2,0,0,,,,,,,,44,64
73152,note_on,64,,,0,0,0,,,,,,,,64,100
73152,note_on,0,,,0,0,0,,,,,,,,64,100
73152,note_on,0,,,1,0,0,,,,,,,,59,43
73152,note_on,0,,,2,0,0,,,,,,,,44,100
73280,note_off,128,,,0,0,0,,,,,,,,64,64
73280,note_off,0,,,0,0,0,,,,,,,,64,64
73280,note_off,0,,,1,0,0,,,,,,,,59,27
73280,note_off,0,,,2,0,0,,,,,,,,44,64
73344,note_on,64,,,0,0,0,,,,,,,,64,100
73344,note_on,0,,,0,0,0,,,,,,,,64,100
73344,note_on,0,,,1,0,0,,,,,,,,59,43
73344,note_on,0,,,2,0,0,,,,,,,,44,100
73472,note_off,128,,,0,0,0,,,,,,,,64,64
73472,note_off,0,,,0,0,0,,,,,,,,64,64
73472,note_off,0,,,1,0,0,,,,,,,,59,27
73472,note_off,0,,,2,0,0,,,,,,,,44,64
73536,note_on,64,,,0,0,0,,,,,,,,64,100
73536,note_on,0,,,0,0,0,,,,,,,,64,100
73536,note_on,0,,,1,0,0,,,,,,,,59,43
73536,note_on,0,,,2,0,0,,,,,,,,44,100
73664,note_off,128,,,0,0,0,,,,,,,,64,64
73664,note_off,0,,,0,0,0,,,,,,,,64,64
73664,note_off,0,,,1,0,0,,,,,,,,59,27
73664,note_off,0,,,2,0,0,,,,,,,,44,64
73728,note_on,64,,,0,0,0,,,,,,,,73,100
73728,note_on,0,,,0,0,0,,,,,,,,76,100
73728,note_on,0,,,1,0,0,,,,,,,,69,43
73728,note_on,0,,,2,0,0,,,,,,,,45,100
73776,note_off,48,,,0,0,0,,,,,,,,73,64
73776,note_on,0,,,0,0,0,,,,,,,,71,100
73776,note_off,0,,,0,0,0,,,,,,,,76,64
73776,note_on,0,,,0,0,0,,,,,,,,74,100
73828,note_off,52,,,0,0,0,,,,,,,,71,64
73828,note_on,0,,,0,0,0,,,,,,,,69,100
73828,note_off,0,,,0,0,0,,,,,,,,74,64
73828,note_on,0,,,0,0,0,,,,,,,,73,100
73856,note_off,28,,,2,0,0,,,,,,,,45,64
73920,note_on,64,,,2,0,0,,,,,,,,45,100
73984,note_off,64,,,1,0,0,,,,,,,,69,27
74048,note_off,64,,,2,0,0,,,,,,,,45,64
74112,note_on,64,,,0,0,0,,,,,,,,73,100
74112,note_on,0,,,0,0,0,,,,,,,,76,100
74112,note_on,0,,,1,0,0,,,,,,,,61,43
74112,note_on,0,,,2,0,0,,,,,,,,45,100
74128,note_off,16,,,0,0,0,,,,,,,,69,64
74128,note_off,0,,,0,0,0,,,,,,,,73,64
74160,note_off,32,,,0,0,0,,,,,,,,73,64
74160,note_on,0,,,0,0,0,,,,,,,,71,100
74160,note_off,0,,,0,0,0,,,,,,,,76,64
74160,note_on,0,,,0,0,0,,,,,,,,74,100
74176,note_off,16,,,2,0,0,,,,,,,,45,64
74208,note_on,32,,,2,0,0,,,,,,,,47,100
74212,note_off,4,,,0,0,0,,,,,,,,71,64
74212,note_on,0,,,0,0,0,,,,,,,,69,100
74212,note_off,0,,,0,0,0,,,,,,,,74,64
74212,note_on,0,,,0,0,0,,,,,,,,73,100
74272,note_off,60,,,2,0,0,,,,,,,,47,64
74304,note_on,32,,,2,0,0,,,,,,,,49,100
74368,note_off,64,,,1,0,0,,,,,,,,61,27
74368,note_off,0,,,2,0,0,,,,,,,,49,64
74400,note_on,32,,,2,0,0,,,,,,,,50,100
74464,note_off,64,,,2,0,0,,,,,,,,50,64
74496,note_on,32,,,0,0,0,,,,,,,,68,100
74496,note_on,0,,,0,0,0,,,,,,,,71,100
74496,note_on,0,,,1,0,0,,,,,,,,64,43
74496,note_on,0,,,2,0,0,,,,,,,,52,100
74512,note_off,16,,,0,0,0,,,,,,,,69,64
74512,note_off,0,,,0,0,0,,,,,,,,73,64
74624,note_off,112,,,2,0,0,,,,,,,,52,64
74688,note_on,64,,,2,0,0,,,,,,,,54,100
74752,note_off,64,,,0,0,0,,,,,,,,68,64
74752,note_off,0,,,0,0,0,,,,,,,,71,64
74752,note_off,0,,,1,0,0,,,,,,,,64,27
74816,note_off,64,,,2,0,0,,,,,,,,54,64
74880,note_on,64,,,2,0,0,,,,,,,,52,100
75008,note_off,128,,,2,0,0,,,,,,,,52,64
75072,note_on,64,,,2,0,0,,,,,,,,50,100
75200,note_off,128,,,2,0,0,,,,,,,,50,64
75264,note_on,64,,,2,0,0,,,,,,,,49,100
75648,note_off,384,,,2,0,0,,,,,,,,49,64
75840,note_on,192,,,2,0,0,,,,,,,,45,100
75968,note_off,128,,,2,0,0,,,,,,,,45,64
76032,note_on,64,,,2,0,0,,,,,,,,50,100
76288,note_off,256,,,2,0,0,,,,,,,,50,64
76416,note_on,128,,,2,0,0,,,,,,,,38,100
76672,note_off,256,,,2,0,0,,,,,,,,38,64
76800,note_on,128,,,2,0,0,,,,,,,,51,100
77184,note_off,384,,,2,0,0,,,,,,,,51,64
77376,note_on,192,,,2,0,0,,,,,,,,47,100
77504,note_off,128,,,2,0,0,,,,,,,,47,64
77568,note_on,64,,,2,0,0,,,,,,,,52,100
77824,note_off,256,,,2,0,0,,,,,,,,52,64
77952,note_on,128,,,2,0,0,,,,,,,,40,100
78208,note_off,256,,,2,0,0,,,,,,,,40,64
78336,note_on,128,,,2,0,0,,,,,,,,53,100
78720,note_off,384,,,2,0,0,,,,,,,,53,64
78912,note_on,192,,,2,0,0,,,,,,,,49,100
79040,note_off,128,,,2,0,0,,,,,,,,49,64
79104,note_on,64,,,0,0,0,,,,,,,,81,75
79104,note_on,0,,,0,0,0,,,,,,,,73,75
79104,note_on,0,,,2,0,0,,,,,,,,42,100
79232,note_off,128,,,2,0,0,,,,,,,,42,64
79296,note_on,64,,,2,0,0,,,,,,,,54,100
79388,note_off,92,,,2,0,0,,,,,,,,54,64
79392,note_on,4,,,2,0,0,,,,,,,,56,100
79484,note_off,92,,,2,0,0,,,,,,,,56,64
79488,note_on,4,,,2,0,0,,,,,,,,57,100
79616,note_off,128,,,0,0,0,,,,,,,,81,64
79616,note_off,0,,,2,0,0,,,,,,,,57,64
79680,note_on,64,,,2,0,0,,,,,,,,54,100
79808,note_off,128,,,2,0,0,,,,,,,,54,64
79872,note_on,64,,,0,0,0,,,,,,,,80,75
80064,note_on,192,,,2,0,0,,,,,,,,49,100
80156,note_off,92,,,2,0,0,,,,,,,,49,64
80160,note_on,4,,,2,0,0,,,,,,,,51,100
80252,note_off,92,,,2,0,0,,,,,,,,51,64
80256,note_on,4,,,2,0,0,,,,,,,,53,100
80384,note_off,128,,,0,0,0,,,,,,,,80,64
80384,note_off,0,,,2,0,0,,,,,,,,53,64
80448,note_on,64,,,2,0,0,,,,,,,,49,100
80576,note_off,128,,,2,0,0,,,,,,,,49,64
80640,note_on,64,,,0,0,0,,,,,,,,81,75
80832,note_on,192,,,2,0,0,,,,,,,,54,100
80860,note_off,28,,,2,0,0,,,,,,,,54,64
80928,note_on,68,,,2,0,0,,,,,,,,56,100
80956,note_off,28,,,2,0,0,,,,,,,,56,64
81024,note_on,68,,,2,0,0,,,,,,,,57,100
81152,note_off,128,,,0,0,0,,,,,,,,81,64
81152,note_off,0,,,2,0,0,,,,,,,,57,64
81216,note_on,64,,,2,0,0,,,,,,,,54,100
81344,note_off,128,,,2,0,0,,,,,,,,54,64
81408,note_on,64,,,0,0,0,,,,,,,,80,75
81600,note_on,192,,,2,0,0,,,,,,,,49,100
81628,note_off,28,,,2,0,0,,,,,,,,49,64
81696,note_on,68,,,2,0,0,,,,,,,,51,100
81724,note_off,28,,,2,0,0,,,,,,,,51,64
81792,note_on,68,,,2,0,0,,,,,,,,53,100
81920,note_off,128,,,0,0,0,,,,,,,,80,64
81920,note_off,0,,,0,0,0,,,,,,,,73,64
81920,note_off,0,,,2,0,0,,,,,,,,53,64
81984,note_on,64,,,2,0,0,,,,,,,,49,100
82112,note_off,128,,,2,0,0,,,,,,,,49,64
82176,note_on,64,,,0,0,0,,,,,,,,81,100
82176,note_on,0,,,0,0,0,,,,,,,,73,100
82176,note_on,0,,,2,0,0,,,,,,,,54,100
82304,note_off,128,,,0,0,0,,,,,,,,81,64
82304,note_off,0,,,0,0,0,,,,,,,,73,64
82368,note_on,64,,,0,0,0,,,,,,,,81,100
82368,note_on,0,,,0,0,0,,,,,,,,78,100
82432,note_off,64,,,0,0,0,,,,,,,,81,64
82432,note_off,0,,,0,0,0,,,,,,,,78,64
82432,note_off,0,,,2,0,0,,,,,,,,54,64
82464,note_on,32,,,0,0,0,,,,,,,,83,100
82464,note_on,0,,,0,0,0,,,,,,,,80,100
82528,note_off,64,,,0,0,0,,,,,,,,83,64
82528,note_off,0,,,0,0,0,,,,,,,,80,64
82560,note_on,32,,,0,0,0,,,,,,,,85,100
82560,note_on,0,,,0,0,0,,,,,,,,81,100
82688,note_off,128,,,0,0,0,,,,,,,,85,64
82688,note_off,0,,,0,0,0,,,,,,,,81,64
82752,note_on,64,,,0,0,0,,,,,,,,81,100
82752,note_on,0,,,0,0,0,,,,,,,,78,100
82880,note_off,128,,,0,0,0,,,,,,,,81,64
82880,note_off,0,,,0,0,0,,,,,,,,78,64
82944,note_on,64,,,0,0,0,,,,,,,,73,100
82944,note_on,0,,,0,0,0,,,,,,,,70,100
82944,note_on,0,,,1,0,0,,,,,,,,66,43
83136,note_on,192,,,2,0,0,,,,,,,,54,100
83228,note_off,92,,,2,0,0,,,,,,,,54,64
83232,note_on,4,,,2,0,0,,,,,,,,56,100
83324,note_off,92,,,2,0,0,,,,,,,,56,64
83328,note_on,4,,,2,0,0,,,,,,,,58,100
83456,note_off,128,,,0,0,0,,,,,,,,73,64
83456,note_off,0,,,0,0,0,,,,,,,,70,64
83456,note_off,0,,,2,0,0,,,,,,,,58,64
83520,note_on,64,,,2,0,0,,,,,,,,54,100
83648,note_off,128,,,2,0,0,,,,,,,,54,64
83712,note_on,64,,,0,0,0,,,,,,,,74,75
83712,note_on,0,,,0,0,0,,,,,,,,71,75
83904,note_on,192,,,2,0,0,,,,,,,,47,100
83996,note_off,92,,,2,0,0,,,,,,,,47,64
84000,note_on,4,,,2,0,0,,,,,,,,49,100
84092,note_off,92,,,2,0,0,,,,,,,,49,64
84096,note_on,4,,,2,0,0,,,,,,,,50,100
84224,note_off,128,,,0,0,0,,,,,,,,74,64
84224,note_off,0,,,0,0,0,,,,,,,,71,64
84224,note_off,0,,,2,0,0,,,,,,,,50,64
84288,note_on,64,,,2,0,0,,,,,,,,47,100
84416,note_off,128,,,2,0,0,,,,,,,,47,64
84480,note_on,64,,,0,0,0,,,,,,,,73,75
84480,note_on,0,,,0,0,0,,,,,,,,70,75
84672,note_on,192,,,2,0,0,,,,,,,,54,100
84700,note_off,28,,,2,0,0,,,,,,,,54,64
84768,note_on,68,,,2,0,0,,,,,,,,56,100
84796,note_off,28,,,2,0,0,,,,,,,,56,64
84864,note_on,68,,,2,0,0,,,,,,,,58,100
84992,note_off,128,,,0,0,0,,,,,,,,73,64
84992,note_off,0,,,0,0,0,,,,,,,,70,64
84992,note_off,0,,,2,0,0,,,,,,,,58,64
85056,note_on,64,,,2,0,0,,,,,,,,54,100
85184,note_off,128,,,2,0,0,,,,,,,,54,64
85248,note_on,64,,,0,0,0,,,,,,,,74,75
85248,note_on,0,,,0,0,0,,,,,,,,71,75
85440,note_on,192,,,2,0,0,,,,,,,,47,100
85468,note_off,28,,,2,0,0,,,,,,,,47,64
85536,note_on,68,,,2,0,0,,,,,,,,49,100
85564,note_off,28,,,2,0,0,,,,,,,,49,64
85632,note_on,68,,,2,0,0,,,,,,,,50,100
85760,note_off,128,,,0,0,0,,,,,,,,74,64
85760,note_off,0,,,0,0,0,,,,,,,,71,64
85760,note_off,0,,,2,0,0,,,,,,,,50,64
85824,note_on,64,,,2,0,0,,,,,,,,47,100
85952,note_off,128,,,2,0,0,,,,,,,,47,64
86016,note_on,64,,,0,0,0,,,,,,,,73,75
86016,note_on,0,,,0,0,0,,,,,,,,70,75
86208,note_on,192,,,2,0,0,,,,,,,,54,100
86300,note_off,92,,,2,0,0,,,,,,,,54,64
86304,note_on,4,,,2,0,0,,,,,,,,56,100
86396,note_off,92,,,2,0,0,,,,,,,,56,64
86400,note_on,4,,,2,0,0,,,,,,,,58,100
86528,note_off,128,,,0,0,0,,,,,,,,73,64
86528,note_off,0,,,0,0,0,,,,,,,,70,64
86528,note_off,0,,,1,0,0,,,,,,,,66,27
86528,note_off,0,,,2,0,0,,,,,,,,58,64
86592,note_on,64,,,2,0,0,,,,,,,,54,100
86720,note_off,128,,,2,0,0,,,,,,,,54,64
86784,note_on,64,,,0,0,0,,,,,,,,74,100
86784,note_on,0,,,0,0,0,,,,,,,,71,100
86784,note_on,0,,,1,0,0,,,,,,,,66,43
86784,note_on,0,,,2,0,0,,,,,,,,47,100
86912,note_off,128,,,0,0,0,,,,,,,,74,64
86912,note_off,0,,,0,0,0,,,,,,,,71,64
86976,note_on,64,,,0,0,0,,,,,,,,74,100
86976,note_on,0,,,0,0,0,,,,,,,,71,100
87040,note_off,64,,,0,0,0,,,,,,,,74,64
87040,note_off,0,,,0,0,0,,,,,,,,71,64
87040,note_off,0,,,1,0,0,,,,,,,,66,27
87040,note_off,0,,,2,0,0,,,,,,,,47,64
87072,note_on,32,,,0,0,0,,,,,,,,76,100
87072,note_on,0,,,0,0,0,,,,,,,,73,100
87136,note_off,64,,,0,0,0,,,,,,,,76,64
87136,note_off,0,,,0,0,0,,,,,,,,73,64
87168,note_on,32,,,0,0,0,,,,,,,,78,100
87168,note_on,0,,,0,0,0,,,,,,,,74,100
87296,note_off,128,,,0,0,0,,,,,,,,78,64
87296,note_off,0,,,0,0,0,,,,,,,,74,64
87360,note_on,64,,,0,0,0,,,,,,,,74,100
87360,note_on,0,,,0,0,0,,,,,,,,71,100
87488,note_off,128,,,0,0,0,,,,,,,,74,64
87488,note_off,0,,,0,0,0,,,,,,,,71,64
87552,note_on,64,,,2,0,0,,,,,,,,47,100
87808,note_off,256,,,2,0,0,,,,,,,,47,64
87936,note_on,128,,,2,0,0,,,,,,,,46,100
88192,note_off,256,,,2,0,0,,,,,,,,46,64
88320,note_on,128,,,2,0,0,,,,,,,,47,100
88576,note_off,256,,,2,0,0,,,,,,,,47,64
88704,note_on,128,,,2,0,0,,,,,,,,47,100
88960,note_off,256,,,2,0,0,,,,,,,,47,64
89088,note_on,128,,,2,0,0,,,,,,,,49,100
89344,note_off,256,,,2,0,0,,,,,,,,49,64
89472,note_on,128,,,2,0,0,,,,,,,,50,100
89728,note_off,256,,,2,0,0,,,,,,,,50,64
89856,note_on,128,,,2,0,0,,,,,,,,52,100
90112,note_off,256,,,2,0,0,,,,,,,,52,64
90240,note_on,128,,,2,0,0,,,,,,,,47,100
90496,note_off,256,,,2,0,0,,,,,,,,47,64
90624,note_on,128,,,2,0,0,,,,,,,,49,100
90880,note_off,256,,,2,0,0,,,,,,,,49,64
91008,note_on,128,,,2,0,0,,,,,,,,54,100
91264,note_off,256,,,2,0,0,,,,,,,,54,64
91392,note_on,128,,,2,0,0,,,,,,,,50,100
91584,note_on,192,,,0,0,0,,,,,,,,74,85
91584,note_on,0,,,0,0,0,,,,,,,,71,100
91648,note_off,64,,,0,0,0,,,,,,,,74,64
91648,note_off,0,,,0,0,0,,,,,,,,71,64
91648,note_off,0,,,2,0,0,,,,,,,,50,64
91680,note_on,32,,,0,0,0,,,,,,,,76,85
91680,note_on,0,,,0,0,0,,,,,,,,73,100
91744,note_off,64,,,0,0,0,,,,,,,,76,64
91744,note_off,0,,,0,0,0,,,,,,,,73,64
91776,note_on,32,,,0,0,0,,,,,,,,78,85
91776,note_on,0,,,0,0,0,,,,,,,,74,100
91904,note_off,128,,,0,0,0,,,,,,,,78,64
91904,note_off,0,,,0,0,0,,,,,,,,74,64
91968,note_on,64,,,0,0,0,,,,,,,,74,85
91968,note_on,0,,,0,0,0,,,,,,,,71,100
92096,note_off,128,,,0,0,0,,,,,,,,74,64
92096,note_off,0,,,0,0,0,,,,,,,,71,64
96576,note_on,4480,,,0,0,0,,,,,,,,78,100
96576,note_on,0,,,0,0,0,,,,,,,,81,100
96576,note_on,0,,,1,0,0,,,,,,,,69,43
96576,note_on,0,,,2,0,0,,,,,,,,50,100
96704,note_off,128,,,0,0,0,,,,,,,,78,64
96704,note_off,0,,,0,0,0,,,,,,,,81,64
96704,note_off,0,,,1,0,0,,,,,,,,69,27
96704,note_off,0,,,2,0,0,,,,,,,,50,64
96768,note_on,64,,,0,0,0,,,,,,,,78,100
96768,note_on,0,,,0,0,0,,,,,,,,81,100
96768,note_on,0,,,1,0,0,,,,,,,,69,43
96768,note_on,0,,,2,0,0,,,,,,,,50,100
96816,note_off,48,,,0,0,0,,,,,,,,78,64
96816,note_on,0,,,0,0,0,,,,,,,,76,100
96816,note_off,0,,,0,0,0,,,,,,,,81,64
96816,note_on,0,,,0,0,0,,,,,,,,79,100
96868,note_off,52,,,0,0,0,,,,,,,,76,64
96868,note_on,0,,,0,0,0,,,,,,,,74,100
96868,note_off,0,,,0,0,0,,,,,,,,79,64
96868,note_on,0,,,0,0,0,,,,,,,,78,100
96896,note_off,28,,,2,0,0,,,,,,,,50,64
96960,note_on,64,,,2,0,0,,,,,,,,50,100
97024,note_off,64,,,1,0,0,,,,,,,,69,27
97088,note_off,64,,,2,0,0,,,,,,,,50,64
97152,note_on,64,,,0,0,0,,,,,,,,78,100
97152,note_on,0,,,0,0,0,,,,,,,,81,100
97152,note_on,0,,,1,0,0,,,,,,,,62,43
97152,note_on,0,,,2,0,0,,,,,,,,50,100
97168,note_off,16,,,0,0,0,,,,,,,,74,64
97168,note_off,0,,,0,0,0,,,,,,,,78,64
97200,note_off,32,,,0,0,0,,,,,,,,78,64
97200,note_on,0,,,0,0,0,,,,,,,,76,100
97200,note_off,0,,,0,0,0,,,,,,,,81,64
97200,note_on,0,,,0,0,0,,,,,,,,79,100
97252,note_off,52,,,0,0,0,,,,,,,,76,64
97252,note_on,0,,,0,0,0,,,,,,,,74,100
97252,note_off,0,,,0,0,0,,,,,,,,79,64
97252,note_on,0,,,0,0,0,,,,,,,,78,100
97280,note_off,28,,,2,0,0,,,,,,,,50,64
97344,note_on,64,,,2,0,0,,,,,,,,50,100
97408,note_off,64,,,1,0,0,,,,,,,,62,27
97472,note_off,64,,,2,0,0,,,,,,,,50,64
97536,note_on,64,,,0,0,0,,,,,,,,81,100
97536,note_on,0,,,0,0,0,,,,,,,,76,100
97536,note_on,0,,,1,0,0,,,,,,,,64,43
97536,note_on,0,,,2,0,0,,,,,,,,45,100
97552,note_off,16,,,0,0,0,,,,,,,,74,64
97552,note_off,0,,,0,0,0,,,,,,,,78,64
97664,note_off,112,,,0,0,0,,,,,,,,81,64
97664,note_off,0,,,0,0,0,,,,,,,,76,64
97664,note_off,0,,,1,0,0,,,,,,,,64,27
97664,note_off,0,,,2,0,0,,,,,,,,45,64
97728,note_on,64,,,0,0,0,,,,,,,,69,100
97728,note_on,0,,,0,0,0,,,,,,,,69,100
97728,note_on,0,,,1,0,0,,,,,,,,61,43
97728,note_on,0,,,2,0,0,,,,,,,,45,100
97856,note_off,128,,,0,0,0,,,,,,,,69,64
97856,note_off,0,,,0,0,0,,,,,,,,69,64
97856,note_off,0,,,1,0,0,,,,,,,,61,27
97856,note_off,0,,,2,0,0,,,,,,,,45,64
97920,note_on,64,,,0,0,0,,,,,,,,69,100
97920,note_on,0,,,0,0,0,,,,,,,,69,100
97920,note_on,0,,,1,0,0,,,,,,,,61,43
97920,note_on,0,,,2,0,0,,,,,,,,45,100
98048,note_off,128,,,0,0,0,,,,,,,,69,64
98048,note_off,0,,,0,0,0,,,,,,,,69,64
98048,note_off,0,,,1,0,0,,,,,,,,61,27
98048,note_off,0,,,2,0,0,,,,,,,,45,64
98112,note_on,64,,,0,0,0,,,,,,,,69,100
98112,note_on,0,,,0,0,0,,,,,,,,69,100
98112,note_on,0,,,1,0,0,,,,,,,,61,43
98112,note_on,0,,,2,0,0,,,,,,,,45,100
98240,note_off,128,,,0,0,0,,,,,,,,69,64
98240,note_off,0,,,0,0,0,,,,,,,,69,64
98240,note_off,0,,,1,0,0,,,,,,,,61,27
98240,note_off,0,,,2,0,0,,,,,,,,45,64
98304,note_on,64,,,0,0,0,,,,,,,,78,100
98304,note_on,0,,,0,0,0,,,,,,,,81,100
98304,note_on,0,,,1,0,0,,,,,,,,69,43
98304,note_on,0,,,2,0,0,,,,,,,,50,100
98352,note_off,48,,,0,0,0,,,,,,,,78,64
98352,note_on,0,,,0,0,0,,,,,,,,76,100
98352,note_off,0,,,0,0,0,,,,,,,,81,64
98352,note_on,0,,,0,0,0,,,,,,,,79,100
98404,note_off,52,,,0,0,0,,,,,,,,76,64
98404,note_on,0,,,0,0,0,,,,,,,,74,100
98404,note_off,0,,,0,0,0,,,,,,,,79,64
98404,note_on,0,,,0,0,0,,,,,,,,78,100
98432,note_off,28,,,2,0,0,,,,,,,,50,64
98496,note_on,64,,,2,0,0,,,,,,,,50,100
98560,note_off,64,,,1,0,0,,,,,,,,69,27
98624,note_off,64,,,2,0,0,,,,,,,,50,64
98688,note_on,64,,,0,0,0,,,,,,,,78,100
98688,note_on,0,,,0,0,0,,,,,,,,81,100
98688,note_on,0,,,1,0,0,,,,,,,,62,43
98688,note_on,0,,,2,0,0,,,,,,,,50,100
98704,note_off,16,,,0,0,0,,,,,,,,74,64
98704,note_off,0,,,0,0,0,,,,,,,,78,64
98736,note_off,32,,,0,0,0,,,,,,,,78,64
98736,note_on,0,,,0,0,0,,,,,,,,76,100
98736,note_off,0,,,0,0,0,,,,,,,,81,64
98736,note_on,0,,,0,0,0,,,,,,,,79,100
98788,note_off,52,,,0,0,0,,,,,,,,76,64
98788,note_on,0,,,0,0,0,,,,,,,,74,100
98788,note_off,0,,,0,0,0,,,,,,,,79,64
98788,note_on,0,,,0,0,0,,,,,,,,78,100
98816,note_off,28,,,2,0,0,,,,,,,,50,64
98880,note_on,64,,,2,0,0,,,,,,,,50,100
98944,note_off,64,,,1,0,0,,,,,,,,62,27
99008,note_off,64,,,2,0,0,,,,,,,,50,64
99072,note_on,64,,,0,0,0,,,,,,,,81,100
99072,note_on,0,,,0,0,0,,,,,,,,78,100
99072,note_on,0,,,1,0,0,,,,,,,,62,43
99072,note_on,0,,,2,0,0,,,,,,,,50,100
99088,note_off,16,,,0,0,0,,,,,,,,74,64
99088,note_off,0,,,0,0,0,,,,,,,,78,64
99120,note_off,32,,,0,0,0,,,,,,,,81,64
99120,note_on,0,,,0,0,0,,,,,,,,79,100
99120,note_off,0,,,0,0,0,,,,,,,,78,64
99120,note_on,0,,,0,0,0,,,,,,,,76,100
99172,note_off,52,,,0,0,0,,,,,,,,79,64
99172,note_on,0,,,0,0,0,,,,,,,,78,100
99172,note_off,0,,,0,0,0,,,,,,,,76,64
99172,note_on,0,,,0,0,0,,,,,,,,74,100
99200,note_off,28,,,2,0,0,,,,,,,,50,64
99264,note_on,64,,,2,0,0,,,,,,,,50,100
99328,note_off,64,,,1,0,0,,,,,,,,62,27
99392,note_off,64,,,2,0,0,,,,,,,,50,64
99456,note_on,64,,,0,0,0,,,,,,,,81,100
99456,note_on,0,,,0,0,0,,,,,,,,78,100
99456,note_on,0,,,1,0,0,,,,,,,,62,43
99456,note_on,0,,,2,0,0,,,,,,,,50,100
99472,note_off,16,,,0,0,0,,,,,,,,78,64
99472,note_off,0,,,0,0,0,,,,,,,,74,64
99504,note_off,32,,,0,0,0,,,,,,,,81,64
99504,note_on,0,,,0,0,0,,,,,,,,79,100
99504,note_off,0,,,0,0,0,,,,,,,,78,64
99504,note_on,0,,,0,0,0,,,,,,,,76,100
99520,note_off,16,,,2,0,0,,,,,,,,50,64
99552,note_on,32,,,2,0,0,,,,,,,,52,100
99556,note_off,4,,,0,0,0,,,,,,,,79,64
99556,note_on,0,,,0,0,0,,,,,,,,78,100
99556,note_off,0,,,0,0,0,,,,,,,,76,64
99556,note_on,0,,,0,0,0,,,,,,,,74,100
99616,note_off,60,,,2,0,0,,,,,,,,52,64
99648,note_on,32,,,2,0,0,,,,,,,,54,100
99712,note_off,64,,,1,0,0,,,,,,,,62,27
99712,note_off,0,,,2,0,0,,,,,,,,54,64
99744,note_on,32,,,2,0,0,,,,,,,,55,100
99808,note_off,64,,,2,0,0,,,,,,,,55,64
99840,note_on,32,,,0,0,0,,,,,,,,76,100
99840,note_on,0,,,0,0,0,,,,,,,,73,100
99840,note_on,0,,,1,0,0,,,,,,,,57,43
99840,note_on,0,,,2,0,0,,,,,,,,57,100
99856,note_off,16,,,0,0,0,,,,,,,,78,64
99856,note_off,0,,,0,0,0,,,,,,,,74,64
100096,note_off,240,,,0,0,0,,,,,,,,76,64
100096,note_off,0,,,0,0,0,,,,,,,,73,64
100096,note_off,0,,,1,0,0,,,,,,,,57,27
100096,note_off,0,,,2,0,0,,,,,,,,57,64
109824,note_on,9728,,,0,0,0,,,,,,,,78,100
109824,note_on,0,,,0,0,0,,,,,,,,74,100
109824,note_on,0,,,1,0,0,,,,,,,,69,43
109824,note_on,0,,,2,0,0,,,,,,,,50,100
109824,note_on,0,,,2,0,0,,,,,,,,38,100
109888,note_off,64,,,0,0,0,,,,,,,,78,64
109888,note_off,0,,,0,0,0,,,,,,,,74,64
109920,note_on,32,,,0,0,0,,,,,,,,79,100
109920,note_on,0,,,0,0,0,,,,,,,,76,100
109952,note_off,32,,,1,0,0,,,,,,,,69,27
109952,note_off,0,,,2,0,0,,,,,,,,50,64
109952,note_off,0,,,2,0,0,,,,,,,,38,64
109984,note_off,32,,,0,0,0,,,,,,,,79,64
109984,note_off,0,,,0,0,0,,,,,,,,76,64
110016,note_on,32,,,0,0,0,,,,,,,,81,100
110016,note_on,0,,,0,0,0,,,,,,,,78,100
110016,note_on,0,,,1,0,0,,,,,,,,69,43
110016,note_on,0,,,2,0,0,,,,,,,,50,100
110016,note_on,0,,,2,0,0,,,,,,,,38,100
110080,note_off,64,,,0,0,0,,,,,,,,81,64
110080,note_off,0,,,0,0,0,,,,,,,,78,64
110112,note_on,32,,,0,0,0,,,,,,,,78,100
110112,note_on,0,,,0,0,0,,,,,,,,74,100
110144,note_off,32,,,1,0,0,,,,,,,,69,27
110144,note_off,0,,,2,0,0,,,,,,,,50,64
110144,note_off,0,,,2,0,0,,,,,,,,38,64
110176,note_off,32,,,0,0,0,,,,,,,,78,64
110176,note_off,0,,,0,0,0,,,,,,,,74,64
110208,note_on,32,,,0,0,0,,,,,,,,76,100
110208,note_on,0,,,0,0,0,,,,,,,,73,100
110208,note_on,0,,,1,0,0,,,,,,,,64,43
110208,note_on,0,,,2,0,0,,,,,,,,45,100
110272,note_off,64,,,0,0,0,,,,,,,,76,64
110272,note_off,0,,,0,0,0,,,,,,,,73,64
110304,note_on,32,,,0,0,0,,,,,,,,78,100
110304,note_on,0,,,0,0,0,,,,,,,,74,100
110336,note_off,32,,,1,0,0,,,,,,,,64,27
110336,note_off,0,,,2,0,0,,,,,,,,45,64
110368,note_off,32,,,0,0,0,,,,,,,,78,64
110368,note_off,0,,,0,0,0,,,,,,,,74,64
110400,note_on,32,,,0,0,0,,,,,,,,79,100
110400,note_on,0,,,0,0,0,,,,,,,,76,100
110400,note_on,0,,,1,0,0,,,,,,,,64,43
110400,note_on,0,,,2,0,0,,,,,,,,45,100
110464,note_off,64,,,0,0,0,,,,,,,,79,64
110464,note_off,0,,,0,0,0,,,,,,,,76,64
110496,note_on,32,,,0,0,0,,,,,,,,76,100
110496,note_on,0,,,0,0,0,,,,,,,,73,100
110528,note_off,32,,,1,0,0,,,,,,,,64,27
110528,note_off,0,,,2,0,0,,,,,,,,45,64
110560,note_off,32,,,0,0,0,,,,,,,,76,64
110560,note_off,0,,,0,0,0,,,,,,,,73,64
110592,note_on,32,,,0,0,0,,,,,,,,78,100
110592,note_on,0,,,0,0,0,,,,,,,,74,100
110592,note_on,0,,,1,0,0,,,,,,,,57,43
110592,note_on,0,,,2,0,0,,,,,,,,50,100
110656,note_off,64,,,0,0,0,,,,,,,,78,64
110656,note_off,0,,,0,0,0,,,,,,,,74,64
110688,note_on,32,,,0,0,0,,,,,,,,79,100
110688,note_on,0,,,0,0,0,,,,,,,,76,100
110720,note_off,32,,,1,0,0,,,,,,,,57,27
110720,note_off,0,,,2,0,0,,,,,,,,50,64
110752,note_off,32,,,0,0,0,,,,,,,,79,64
110752,note_off,0,,,0,0,0,,,,,,,,76,64
110784,note_on,32,,,0,0,0,,,,,,,,81,100
110784,note_on,0,,,0,0,0,,,,,,,,78,100
110784,note_on,0,,,1,0,0,,,,,,,,57,43
110784,note_on,0,,,2,0,0,,,,,,,,50,100
110848,note_off,64,,,0,0,0,,,,,,,,81,64
110848,note_off,0,,,0,0,0,,,,,,,,78,64
110880,note_on,32,,,0,0,0,,,,,,,,78,100
110880,note_on,0,,,0,0,0,,,,,,,,74,100
110912,note_off,32,,,1,0,0,,,,,,,,57,27
110912,note_off,0,,,2,0,0,,,,,,,,50,64
110944,note_off,32,,,0,0,0,,,,,,,,78,64
110944,note_off,0,,,0,0,0,,,,,,,,74,64
110976,note_on,32,,,0,0,0,,,,,,,,76,100
110976,note_on,0,,,0,0,0,,,,,,,,73,100
110976,note_on,0,,,1,0,0,,,,,,,,64,43
110976,note_on,0,,,2,0,0,,,,,,,,45,100
111040,note_off,64,,,0,0,0,,,,,,,,76,64
111040,note_off,0,,,0,0,0,,,,,,,,73,64
111072,note_on,32,,,0,0,0,,,,,,,,78,100
111072,note_on,0,,,0,0,0,,,,,,,,74,100
111104,note_off,32,,,1,0,0,,,,,,,,64,27
111104,note_off,0,,,2,0,0,,,,,,,,45,64
111136,note_off,32,,,0,0,0,,,,,,,,78,64
111136,note_off,0,,,0,0,0,,,,,,,,74,64
111168,note_on,32,,,0,0,0,,,,,,,,79,100
111168,note_on,0,,,0,0,0,,,,,,,,76,100
111168,note_on,0,,,1,0,0,,,,,,,,64,43
111168,note_on,0,,,2,0,0,,,,,,,,45,100
111232,note_off,64,,,0,0,0,,,,,,,,79,64
111232,note_off,0,,,0,0,0,,,,,,,,76,64
111264,note_on,32,,,0,0,0,,,,,,,,76,100
111264,note_on,0,,,0,0,0,,,,,,,,73,100
111296,note_off,32,,,1,0,0,,,,,,,,64,27
111296,note_off,0,,,2,0,0,,,,,,,,45,64
111328,note_off,32,,,0,0,0,,,,,,,,76,64
111328,note_off,0,,,0,0,0,,,,,,,,73,64
111360,note_on,32,,,0,0,0,,,,,,,,78,100
111360,note_on,0,,,0,0,0,,,,,,,,74,100
111360,note_on,0,,,1,0,0,,,,,,,,69,43
111360,note_on,0,,,2,0,0,,,,,,,,50,100
111360,note_on,0,,,2,0,0,,,,,,,,38,100
111424,note_off,64,,,0,0,0,,,,,,,,78,64
111424,note_off,0,,,0,0,0,,,,,,,,74,64
111456,note_on,32,,,0,0,0,,,,,,,,79,100
111456,note_on,0,,,0,0,0,,,,,,,,76,100
111488,note_off,32,,,1,0,0,,,,,,,,69,27
111488,note_off,0,,,2,0,0,,,,,,,,50,64
111488,note_off,0,,,2,0,0,,,,,,,,38,64
111520,note_off,32,,,0,0,0,,,,,,,,79,64
111520,note_off,0,,,0,0,0,,,,,,,,76,64
111552,note_on,32,,,0,0,0,,,,,,,,81,100
111552,note_on,0,,,0,0,0,,,,,,,,78,100
111552,note_on,0,,,1,0,0,,,,,,,,69,43
111552,note_on,0,,,2,0,0,,,,,,,,50,100
111552,note_on,0,,,2,0,0,,,,,,,,38,100
111616,note_off,64,,,0,0,0,,,,,,,,81,64
111616,note_off,0,,,0,0,0,,,,,,,,78,64
111648,note_on,32,,,0,0,0,,,,,,,,78,100
111648,note_on,0,,,0,0,0,,,,,,,,74,100
111680,note_off,32,,,1,0,0,,,,,,,,69,27
111680,note_off,0,,,2,0,0,,,,,,,,50,64
111680,note_off,0,,,2,0,0,,,,,,,,38,64
111712,note_off,32,,,0,0,0,,,,,,,,78,64
111712,note_off,0,,,0,0,0,,,,,,,,74,64
111744,note_on,32,,,0,0,0,,,,,,,,76,100
111744,note_on,0,,,0,0,0,,,,,,,,73,100
111744,note_on,0,,,1,0,0,,,,,,,,64,43
111744,note_on,0,,,2,0,0,,,,,,,,45,100
111808,note_off,64,,,0,0,0,,,,,,,,76,64
111808,note_off,0,,,0,0,0,,,,,,,,73,64
111840,note_on,32,,,0,0,0,,,,,,,,78,100
111840,note_on,0,,,0,0,0,,,,,,,,74,100
111872,note_off,32,,,1,0,0,,,,,,,,64,27
111872,note_off,0,,,2,0,0,,,,,,,,45,64
111904,note_off,32,,,0,0,0,,,,,,,,78,64
111904,note_off,0,,,0,0,0,,,,,,,,74,64
111936,note_on,32,,,0,0,0,,,,,,,,79,100
111936,note_on,0,,,0,0,0,,,,,,,,76,100
111936,note_on,0,,,1,0,0,,,,,,,,64,43
111936,note_on,0,,,2,0,0,,,,,,,,45,100
112000,note_off,64,,,0,0,0,,,,,,,,79,64
112000,note_off,0,,,0,0,0,,,,,,,,76,64
112032,note_on,32,,,0,0,0,,,,,,,,76,100
112032,note_on,0,,,0,0,0,,,,,,,,73,100
112064,note_off,32,,,1,0,0,,,,,,,,64,27
112064,note_off,0,,,2,0,0,,,,,,,,45,64
112096,note_off,32,,,0,0,0,,,,,,,,76,64
112096,note_off,0,,,0,0,0,,,,,,,,73,64
112128,note_on,32,,,0,0,0,,,,,,,,78,100
112128,note_on,0,,,0,0,0,,,,,,,,74,100
112128,note_on,0,,,1,0,0,,,,,,,,69,43
112128,note_on,0,,,2,0,0,,,,,,,,50,100
112256,note_off,128,,,0,0,0,,,,,,,,78,64
112256,note_off,0,,,0,0,0,,,,,,,,74,64
112256,note_off,0,,,1,0,0,,,,,,,,69,27
112256,note_off,0,,,2,0,0,,,,,,,,50,64
112320,note_on,64,,,0,0,0,,,,,,,,74,100
112320,note_on,0,,,0,0,0,,,,,,,,78,100
112320,note_on,0,,,1,0,0,,,,,,,,69,43
112320,note_on,0,,,2,0,0,,,,,,,,62,100
112448,note_off,128,,,0,0,0,,,,,,,,74,64
112448,note_off,0,,,0,0,0,,,,,,,,78,64
112448,note_off,0,,,1,0,0,,,,,,,,69,27
112448,note_off,0,,,2,0,0,,,,,,,,62,64
112512,note_on,64,,,0,0,0,,,,,,,,76,100
112512,note_on,0,,,0,0,0,,,,,,,,79,100
112512,note_on,0,,,1,0,0,,,,,,,,69,43
112512,note_on,0,,,2,0,0,,,,,,,,55,100
112640,note_off,128,,,0,0,0,,,,,,,,76,64
112640,note_off,0,,,0,0,0,,,,,,,,79,64
112640,note_off,0,,,1,0,0,,,,,,,,69,27
112640,note_off,0,,,2,0,0,,,,,,,,55,64
112704,note_on,64,,,0,0,0,,,,,,,,73,100
112704,note_on,0,,,0,0,0,,,,,,,,76,100
112704,note_on,0,,,1,0,0,,,,,,,,69,43
112704,note_on,0,,,2,0,0,,,,,,,,57,100
112832,note_off,128,,,0,0,0,,,,,,,,73,64
112832,note_off,0,,,0,0,0,,,,,,,,76,64
112832,note_off,0,,,1,0,0,,,,,,,,69,27
112832,note_off,0,,,2,0,0,,,,,,,,57,64
112896,note_on,64,,,0,0,0,,,,,,,,74,100
112896,note_on,0,,,0,0,0,,,,,,,,74,100
112896,note_on,0,,,1,0,0,,,,,,,,62,43
112896,note_on,0,,,2,0,0,,,,,,,,50,100
113408,note_off,512,,,0,0,0,,,,,,,,74,64
113408,note_off,0,,,0,0,0,,,,,,,,74,64
113408,note_off,0,,,1,0,0,,,,,,,,62,27
113408,note_off,0,,,2,0,0,,,,,,,,50,64
113664,note_on,256,,,0,0,0,,,,,,,,73,100
113664,note_on,0,,,0,0,0,,,,,,,,76,100
113664,note_on,0,,,1,0,0,,,,,,,,69,43
113664,note_on,0,,,2,0,0,,,,,,,,45,100
113712,note_off,48,,,0,0,0,,,,,,,,73,64
113712,note_on,0,,,0,0,0,,,,,,,,71,100
113712,note_off,0,,,0,0,0,,,,,,,,76,64
113712,note_on,0,,,0,0,0,,,,,,,,74,100
113764,note_off,52,,,0,0,0,,,,,,,,71,64
113764,note_on,0,,,0,0,0,,,,,,,,69,100
113764,note_off,0,,,0,0,0,,,,,,,,74,64
113764,note_on,0,,,0,0,0,,,,,,,,73,100
113792,note_off,28,,,2,0,0,,,,,,,,45,64
113856,note_on,64,,,2,0,0,,,,,,,,45,100
113920,note_off,64,,,1,0,0,,,,,,,,69,27
113984,note_off,64,,,2,0,0,,,,,,,,45,64
114048,note_on,64,,,0,0,0,,,,,,,,73,100
114048,note_on,0,,,0,0,0,,,,,,,,76,100
114048,note_on,0,,,0,0,0,,,,,,,,57,100
114048,note_on,0,,,1,0,0,,,,,,,,61,43
114048,note_on,0,,,2,0,0,,,,,,,,45,100
114064,note_off,16,,,0,0,0,,,,,,,,69,64
114064,note_off,0,,,0,0,0,,,,,,,,73,64
114096,note_off,32,,,0,0,0,,,,,,,,73,64
114096,note_on,0,,,0,0,0,,,,,,,,71,100
114096,note_off,0,,,0,0,0,,,,,,,,76,64
114096,note_on,0,,,0,0,0,,,,,,,,74,100
114148,note_off,52,,,0,0,0,,,,,,,,71,64
114148,note_on,0,,,0,0,0,,,,,,,,69,100
114148,note_off,0,,,0,0,0,,,,,,,,74,64
114148,note_on,0,,,0,0,0,,,,,,,,73,100
114176,note_off,28,,,0,0,0,,,,,,,,57,64
114176,note_off,0,,,2,0,0,,,,,,,,45,64
114240,note_on,64,,,2,0,0,,,,,,,,45,100
114304,note_off,64,,,1,0,0,,,,,,,,61,27
114368,note_off,64,,,2,0,0,,,,,,,,45,64
114432,note_on,64,,,0,0,0,,,,,,,,76,100
114432,note_on,0,,,0,0,0,,,,,,,,71,100
114432,note_on,0,,,1,0,0,,,,,,,,64,43
114432,note_on,0,,,2,0,0,,,,,,,,44,100
114448,note_off,16,,,0,0,0,,,,,,,,69,64
114448,note_off,0,,,0,0,0,,,,,,,,73,64
114560,note_off,112,,,0,0,0,,,,,,,,76,64
114560,note_off,0,,,0,0,0,,,,,,,,71,64
114560,note_off,0,,,1,0,0,,,,,,,,64,27
114560,note_off,0,,,2,0,0,,,,,,,,44,64
114624,note_on,64,,,0,0,0,,,,,,,,64,100
114624,note_on,0,,,0,0,0,,,,,,,,64,100
114624,note_on,0,,,1,0,0,,,,,,,,59,43
114624,note_on,0,,,2,0,0,,,,,,,,44,100
114752,note_off,128,,,0,0,0,,,,,,,,64,64
114752,note_off,0,,,0,0,0,,,,,,,,64,64
114752,note_off,0,,,1,0,0,,,,,,,,59,27
114752,note_off,0,,,2,0,0,,,,,,,,44,64
114816,note_on,64,,,0,0,0,,,,,,,,64,100
114816,note_on,0,,,0,0,0,,,,,,,,64,100
114816,note_on,0,,,1,0,0,,,,,,,,59,43
114816,note_on,0,,,2,0,0,,,,,,,,44,100
114944,note_off,128,,,0,0,0,,,,,,,,64,64
114944,note_off,0,,,0,0,0,,,,,,,,64,64
114944,note_off,0,,,1,0,0,,,,,,,,59,27
114944,note_off,0,,,2,0,0,,,,,,,,44,64
115008,note_on,64,,,0,0,0,,,,,,,,64,100
115008,note_on,0,,,0,0,0,,,,,,,,64,100
115008,note_on,0,,,1,0,0,,,,,,,,59,43
115008,note_on,0,,,2,0,0,,,,,,,,44,100
115136,note_off,128,,,0,0,0,,,,,,,,64,64
115136,note_off,0,,,0,0,0,,,,,,,,64,64
115136,note_off,0,,,1,0,0,,,,,,,,59,27
115136,note_off,0,,,2,0,0,,,,,,,,44,64
115200,note_on,64,,,0,0,0,,,,,,,,73,100
115200,note_on,0,,,0,0,0,,,,,,,,76,100
115200,note_on,0,,,1,0,0,,,,,,,,69,43
115200,note_on,0,,,2,0,0,,,,,,,,45,100
115248,note_off,48,,,0,0,0,,,,,,,,73,64
115248,note_on,0,,,0,0,0,,,,,,,,71,100
115248,note_off,0,,,0,0,0,,,,,,,,76,64
115248,note_on,0,,,0,0,0,,,,,,,,74,100
115300,note_off,52,,,0,0,0,,,,,,,,71,64
115300,note_on,0,,,0,0,0,,,,,,,,69,100
115300,note_off,0,,,0,0,0,,,,,,,,74,64
115300,note_on,0,,,0,0,0,,,,,,,,73,100
115328,note_off,28,,,2,0,0,,,,,,,,45,64
115392,note_on,64,,,2,0,0,,,,,,,,45,100
115456,note_off,64,,,1,0,0,,,,,,,,69,27
115520,note_off,64,,,2,0,0,,,,,,,,45,64
115584,note_on,64,,,0,0,0,,,,,,,,73,100
115584,note_on,0,,,0,0,0,,,,,,,,76,100
115584,note_on,0,,,1,0,0,,,,,,,,61,43
115584,note_on,0,,,2,0,0,,,,,,,,45,100
115600,note_off,16,,,0,0,0,,,,,,,,69,64
115600,note_off,0,,,0,0,0,,,,,,,,73,64
115632,note_off,32,,,0,0,0,,,,,,,,73,64
115632,note_on,0,,,0,0,0,,,,,,,,71,100
115632,note_off,0,,,0,0,0,,,,,,,,76,64
115632,note_on,0,,,0,0,0,,,,,,,,74,100
115684,note_off,52,,,0,0,0,,,,,,,,71,64
115684,note_on,0,,,0,0,0,,,,,,,,69,100
115684,note_off,0,,,0,0,0,,,,,,,,74,64
115684,note_on,0,,,0,0,0,,,,,,,,73,100
115712,note_off,28,,,2,0,0,,,,,,,,45,64
115776,note_on,64,,,2,0,0,,,,,,,,45,100
115840,note_off,64,,,1,0,0,,,,,,,,61,27
115904,note_off,64,,,2,0,0,,,,,,,,45,64
115968,note_on,64,,,0,0,0,,,,,,,,76,100
115968,note_on,0,,,0,0,0,,,,,,,,71,100
115968,note_on,0,,,1,0,0,,,,,,,,64,43
115968,note_on,0,,,2,0,0,,,,,,,,44,100
115984,note_off,16,,,0,0,0,,,,,,,,69,64
115984,note_off,0,,,0,0,0,,,,,,,,73,64
116096,note_off,112,,,0,0,0,,,,,,,,76,64
116096,note_off,0,,,0,0,0,,,,,,,,71,64
116096,note_off,0,,,1,0,0,,,,,,,,64,27
116096,note_off,0,,,2,0,0,,,,,,,,44,64
116160,note_on,64,,,0,0,0,,,,,,,,64,100
116160,note_on,0,,,0,0,0,,,,,,,,64,100
116160,note_on,0,,,1,0,0,,,,,,,,59,43
116160,note_on,0,,,2,0,0,,,,,,,,44,100
116288,note_off,128,,,0,0,0,,,,,,,,64,64
116288,note_off,0,,,0,0,0,,,,,,,,64,64
116288,note_off,0,,,1,0,0,,,,,,,,59,27
116288,note_off,0,,,2,0,0,,,,,,,,44,64
116352,note_on,64,,,0,0,0,,,,,,,,64,100
116352,note_on,0,,,0,0,0,,,,,,,,64,100
116352,note_on,0,,,1,0,0,,,,,,,,59,43
116352,note_on,0,,,2,0,0,,,,,,,,44,100
116480,note_off,128,,,0,0,0,,,,,,,,64,64
116480,note_off,0,,,0,0,0,,,,,,,,64,64
116480,note_off,0,,,1,0,0,,,,,,,,59,27
116480,note_off,0,,,2,0,0,,,,,,,,44,64
116544,note_on,64,,,0,0,0,,,,,,,,64,100
116544,note_on,0,,,0,0,0,,,,,,,,64,100
116544,note_on,0,,,1,0,0,,,,,,,,59,43
116544,note_on,0,,,2,0,0,,,,,,,,44,100
116672,note_off,128,,,0,0,0,,,,,,,,64,64
116672,note_off,0,,,0,0,0,,,,,,,,64,64
116672,note_off,0,,,1,0,0,,,,,,,,59,27
116672,note_off,0,,,2,0,0,,,,,,,,44,64
116736,note_on,64,,,0,0,0,,,,,,,,73,100
116736,note_on,0,,,0,0,0,,,,,,,,76,100
116736,note_on,0,,,1,0,0,,,,,,,,69,43
116736,note_on,0,,,2,0,0,,,,,,,,45,100
116784,note_off,48,,,0,0,0,,,,,,,,73,64
116784,note_on,0,,,0,0,0,,,,,,,,71,100
116784,note_off,0,,,0,0,0,,,,,,,,76,64
116784,note_on,0,,,0,0,0,,,,,,,,74,100
116836,note_off,52,,,0,0,0,,,,,,,,71,64
116836,note_on,0,,,0,0,0,,,,,,,,69,100
116836,note_off,0,,,0,0,0,,,,,,,,74,64
116836,note_on,0,,,0,0,0,,,,,,,,73,100
116864,note_off,28,,,2,0,0,,,,,,,,45,64
116928,note_on,64,,,2,0,0,,,,,,,,45,100
116992,note_off,64,,,1,0,0,,,,,,,,69,27
117056,note_off,64,,,2,0,0,,,,,,,,45,64
117120,note_on,64,,,0,0,0,,,,,,,,73,100
117120,note_on,0,,,0,0,0,,,,,,,,76,100
117120,note_on,0,,,1,0,0,,,,,,,,61,43
117120,note_on,0,,,2,0,0,,,,,,,,45,100
117136,note_off,16,,,0,0,0,,,,,,,,69,64
117136,note_off,0,,,0,0,0,,,,,,,,73,64
117168,note_off,32,,,0,0,0,,,,,,,,73,64
117168,note_on,0,,,0,0,0,,,,,,,,71,100
117168,note_off,0,,,0,0,0,,,,,,,,76,64
117168,note_on,0,,,0,0,0,,,,,,,,74,100
117184,note_off,16,,,2,0,0,,,,,,,,45,64
117216,note_on,32,,,2,0,0,,,,,,,,47,100
117220,note_off,4,,,0,0,0,,,,,,,,71,64
117220,note_on,0,,,0,0,0,,,,,,,,69,100
117220,note_off,0,,,0,0,0,,,,,,,,74,64
117220,note_on,0,,,0,0,0,,,,,,,,73,100
117280,note_off,60,,,2,0,0,,,,,,,,47,64
117312,note_on,32,,,2,0,0,,,,,,,,49,100
117376,note_off,64,,,1,0,0,,,,,,,,61,27
117376,note_off,0,,,2,0,0,,,,,,,,49,64
117408,note_on,32,,,2,0,0,,,,,,,,50,100
117472,note_off,64,,,2,0,0,,,,,,,,50,64
117504,note_on,32,,,0,0,0,,,,,,,,68,100
117504,note_on,0,,,0,0,0,,,,,,,,71,100
117504,note_on,0,,,1,0,0,,,,,,,,64,43
117504,note_on,0,,,2,0,0,,,,,,,,52,100
117520,note_off,16,,,0,0,0,,,,,,,,69,64
117520,note_off,0,,,0,0,0,,,,,,,,73,64
117632,note_off,112,,,2,0,0,,,,,,,,52,64
117696,note_on,64,,,2,0,0,,,,,,,,54,100
117760,note_off,64,,,0,0,0,,,,,,,,68,64
117760,note_off,0,,,0,0,0,,,,,,,,71,64
117760,note_off,0,,,1,0,0,,,,,,,,64,27
117824,note_off,64,,,2,0,0,,,,,,,,54,64
117888,note_on,64,,,2,0,0,,,,,,,,52,100
118016,note_off,128,,,2,0,0,,,,,,,,52,64
118080,note_on,64,,,2,0,0,,,,,,,,50,100
118208,note_off,128,,,2,0,0,,,,,,,,50,64
118272,note_on,64,,,2,0,0,,,,,,,,49,100
118656,note_off,384,,,2,0,0,,,,,,,,49,64
118848,note_on,192,,,2,0,0,,,,,,,,45,100
118976,note_off,128,,,2,0,0,,,,,,,,45,64
119040,note_on,64,,,2,0,0,,,,,,,,50,100
119296,note_off,256,,,2,0,0,,,,,,,,50,64
119424,note_on,128,,,2,0,0,,,,,,,,38,100
119680,note_off,256,,,2,0,0,,,,,,,,38,64
119808,note_on,128,,,2,0,0,,,,,,,,51,100
120192,note_off,384,,,2,0,0,,,,,,,,51,64
120384,note_on,192,,,2,0,0,,,,,,,,47,100
120512,note_off,128,,,2,0,0,,,,,,,,47,64
120576,note_on,64,,,2,0,0,,,,,,,,52,100
120832,note_off,256,,,2,0,0,,,,,,,,52,64
120960,note_on,128,,,2,0,0,,,,,,,,40,100
121216,note_off,256,,,2,0,0,,,,,,,,40,64
121344,note_on,128,,,2,0,0,,,,,,,,53,100
121728,note_off,384,,,2,0,0,,,,,,,,53,64
121920,note_on,192,,,2,0,0,,,,,,,,49,100
122048,note_off,128,,,2,0,0,,,,,,,,49,64
122112,note_on,64,,,0,0,0,,,,,,,,81,75
122112,note_on,0,,,0,0,0,,,,,,,,73,75
122112,note_on,0,,,2,0,0,,,,,,,,42,100
122240,note_off,128,,,2,0,0,,,,,,,,42,64
122304,note_on,64,,,2,0,0,,,,,,,,54,100
122396,note_off,92,,,2,0,0,,,,,,,,54,64
122400,note_on,4,,,2,0,0,,,,,,,,56,100
122492,note_off,92,,,2,0,0,,,,,,,,56,64
122496,note_on,4,,,2,0,0,,,,,,,,57,100
122624,note_off,128,,,0,0,0,,,,,,,,81,64
122624,note_off,0,,,2,0,0,,,,,,,,57,64
122688,note_on,64,,,2,0,0,,,,,,,,54,100
122816,note_off,128,,,2,0,0,,,,,,,,54,64
122880,note_on,64,,,0,0,0,,,,,,,,80,75
123072,note_on,192,,,2,0,0,,,,,,,,49,100
123164,note_off,92,,,2,0,0,,,,,,,,49,64
123168,note_on,4,,,2,0,0,,,,,,,,51,100
123260,note_off,92,,,2,0,0,,,,,,,,51,64
123264,note_on,4,,,2,0,0,,,,,,,,53,100
123392,note_off,128,,,0,0,0,,,,,,,,80,64
123392,note_off,0,,,2,0,0,,,,,,,,53,64
123456,note_on,64,,,2,0,0,,,,,,,,49,100
123584,note_off,128,,,2,0,0,,,,,,,,49,64
123648,note_on,64,,,0,0,0,,,,,,,,81,75
123840,note_on,192,,,2,0,0,,,,,,,,54,100
123868,note_off,28,,,2,0,0,,,,,,,,54,64
123936,note_on,68,,,2,0,0,,,,,,,,56,100
123964,note_off,28,,,2,0,0,,,,,,,,56,64
124032,note_on,68,,,2,0,0,,,,,,,,57,100
124160,note_off,128,,,0,0,0,,,,,,,,81,64
124160,note_off,0,,,2,0,0,,,,,,,,57,64
124224,note_on,64,,,2,0,0,,,,,,,,54,100
124352,note_off,128,,,2,0,0,,,,,,,,54,64
124416,note_on,64,,,0,0,0,,,,,,,,80,75
124608,note_on,192,,,2,0,0,,,,,,,,49,100
124636,note_off,28,,,2,0,0,,,,,,,,49,64
124704,note_on,68,,,2,0,0,,,,,,,,51,100
124732,note_off,28,,,2,0,0,,,,,,,,51,64
124800,note_on,68,,,2,0,0,,,,,,,,53,100
124928,note_off,128,,,0,0,0,,,,,,,,80,64
124928,note_off,0,,,0,0,0,,,,,,,,73,64
124928,note_off,0,,,2,0,0,,,,,,,,53,64
124992,note_on,64,,,2,0,0,,,,,,,,49,100
125120,note_off,128,,,2,0,0,,,,,,,,49,64
125184,note_on,64,,,0,0,0,,,,,,,,81,100
125184,note_on,0,,,0,0,0,,,,,,,,73,100
125184,note_on,0,,,2,0,0,,,,,,,,54,100
125312,note_off,128,,,0,0,0,,,,,,,,81,64
125312,note_off,0,,,0,0,0,,,,,,,,73,64
125376,note_on,64,,,0,0,0,,,,,,,,81,100
125376,note_on,0,,,0,0,0,,,,,,,,78,100
125440,note_off,64,,,0,0,0,,,,,,,,81,64
125440,note_off,0,,,0,0,0,,,,,,,,78,64
125440,note_off,0,,,2,0,0,,,,,,,,54,64
125472,note_on,32,,,0,0,0,,,,,,,,83,100
125472,note_on,0,,,0,0,0,,,,,,,,80,100
125536,note_off,64,,,0,0,0,,,,,,,,83,64
125536,note_off,0,,,0,0,0,,,,,,,,80,64
125568,note_on,32,,,0,0,0,,,,,,,,85,100
125568,note_on,0,,,0,0,0,,,,,,,,81,100
125696,note_off,128,,,0,0,0,,,,,,,,85,64
125696,note_off,0,,,0,0,0,,,,,,,,81,64
125760,note_on,64,,,0,0,0,,,,,,,,81,100
125760,note_on,0,,,0,0,0,,,,,,,,78,100
125888,note_off,128,,,0,0,0,,,,,,,,81,64
125888,note_off,0,,,0,0,0,,,,,,,,78,64
125952,note_on,64,,,0,0,0,,,,,,,,73,100
125952,note_on,0,,,0,0,0,,,,,,,,70,100
125952,note_on,0,,,1,0,0,,,,,,,,66,43
126144,note_on,192,,,2,0,0,,,,,,,,54,100
126236,note_off,92,,,2,0,0,,,,,,,,54,64
126240,note_on,4,,,2,0,0,,,,,,,,56,100
126332,note_off,92,,,2,0,0,,,,,,,,56,64
126336,note_on,4,,,2,0,0,,,,,,,,58,100
126464,note_off,128,,,0,0,0,,,,,,,,73,64
126464,note_off,0,,,0,0,0,,,,,,,,70,64
126464,note_off,0,,,2,0,0,,,,,,,,58,64
126528,note_on,64,,,2,0,0,,,,,,,,54,100
126656,note_off,128,,,2,0,0,,,,,,,,54,64
126720,note_on,64,,,0,0,0,,,,,,,,74,75
126720,note_on,0,,,0,0,0,,,,,,,,71,75
126912,note_on,192,,,2,0,0,,,,,,,,47,100
127004,note_off,92,,,2,0,0,,,,,,,,47,64
127008,note_on,4,,,2,0,0,,,,,,,,49,100
127100,note_off,92,,,2,0,0,,,,,,,,49,64
127104,note_on,4,,,2,0,0,,,,,,,,50,100
127232,note_off,128,,,0,0,0,,,,,,,,74,64
127232,note_off,0,,,0,0,0,,,,,,,,71,64
127232,note_off,0,,,2,0,0,,,,,,,,50,64
127296,note_on,64,,,2,0,0,,,,,,,,47,100
127424,note_off,128,,,2,0,0,,,,,,,,47,64
127488,note_on,64,,,0,0,0,,,,,,,,73,75
127488,note_on,0,,,0,0,0,,,,,,,,70,75
127680,note_on,192,,,2,0,0,,,,,,,,54,100
127708,note_off,28,,,2,0,0,,,,,,,,54,64
127776,note_on,68,,,2,0,0,,,,,,,,56,100
127804,note_off,28,,,2,0,0,,,,,,,,56,64
127872,note_on,68,,,2,0,0,,,,,,,,58,100
128000,note_off,128,,,0,0,0,,,,,,,,73,64
128000,note_off,0,,,0,0,0,,,,,,,,70,64
128000,note_off,0,,,2,0,0,,,,,,,,58,64
128064,note_on,64,,,2,0,0,,,,,,,,54,100
128192,note_off,128,,,2,0,0,,,,,,,,54,64
128256,note_on,64,,,0,0,0,,,,,,,,74,75
128256,note_on,0,,,0,0,0,,,,,,,,71,75
128448,note_on,192,,,2,0,0,,,,,,,,47,100
128476,note_off,28,,,2,0,0,,,,,,,,47,64
128544,note_on,68,,,2,0,0,,,,,,,,49,100
128572,note_off,28,,,2,0,0,,,,,,,,49,64
128640,note_on,68,,,2,0,0,,,,,,,,50,100
128768,note_off,128,,,0,0,0,,,,,,,,74,64
128768,note_off,0,,,0,0,0,,,,,,,,71,64
128768,note_off,0,,,2,0,0,,,,,,,,50,64
128832,note_on,64,,,2,0,0,,,,,,,,47,100
128960,note_off,128,,,2,0,0,,,,,,,,47,64
129024,note_on,64,,,0,0,0,,,,,,,,73,75
129024,note_on,0,,,0,0,0,,,,,,,,70,75
129216,note_on,192,,,2,0,0,,,,,,,,54,100
129308,note_off,92,,,2,0,0,,,,,,,,54,64
129312,note_on,4,,,2,0,0,,,,,,,,56,100
129404,note_off,92,,,2,0,0,,,,,,,,56,64
129408,note_on,4,,,2,0,0,,,,,,,,58,100
129536,note_off,128,,,0,0,0,,,,,,,,73,64
129536,note_off,0,,,0,0,0,,,,,,,,70,64
129536,note_off,0,,,1,0,0,,,,,,,,66,27
129536,note_off,0,,,2,0,0,,,,,,,,58,64
129600,note_on,64,,,2,0,0,,,,,,,,54,100
129728,note_off,128,,,2,0,0,,,,,,,,54,64
129792,note_on,64,,,0,0,0,,,,,,,,74,100
129792,note_on,0,,,0,0,0,,,,,,,,71,100
129792,note_on,0,,,1,0,0,,,,,,,,66,43
129792,note_on,0,,,2,0,0,,,,,,,,47,100
129920,note_off,128,,,0,0,0,,,,,,,,74,64
129920,note_off,0,,,0,0,0,,,,,,,,71,64
129984,note_on,64,,,0,0,0,,,,,,,,74,100
129984,note_on,0,,,0,0,0,,,,,,,,71,100
130048,note_off,64,,,0,0,0,,,,,,,,74,64
130048,note_off,0,,,0,0,0,,,,,,,,71,64
130048,note_off,0,,,1,0,0,,,,,,,,66,27
130048,note_off,0,,,2,0,0,,,,,,,,47,64
130080,note_on,32,,,0,0,0,,,,,,,,76,100
130080,note_on,0,,,0,0,0,,,,,,,,73,100
130144,note_off,64,,,0,0,0,,,,,,,,76,64
130144,note_off,0,,,0,0,0,,,,,,,,73,64
130176,note_on,32,,,0,0,0,,,,,,,,78,100
130176,note_on,0,,,0,0,0,,,,,,,,74,100
130304,note_off,128,,,0,0,0,,,,,,,,78,64
130304,note_off,0,,,0,0,0,,,,,,,,74,64
130368,note_on,64,,,0,0,0,,,,,,,,74,100
130368,note_on,0,,,0,0,0,,,,,,,,71,100
130496,note_off,128,,,0,0,0,,,,,,,,74,64
130496,note_off,0,,,0,0,0,,,,,,,,71,64
130560,note_on,64,,,2,0,0,,,,,,,,47,100
130816,note_off,256,,,2,0,0,,,,,,,,47,64
130944,note_on,128,,,2,0,0,,,,,,,,46,100
131200,note_off,256,,,2,0,0,,,,,,,,46,64
131328,note_on,128,,,2,0,0,,,,,,,,47,100
131584,note_off,256,,,2,0,0,,,,,,,,47,64
131712,note_on,128,,,2,0,0,,,,,,,,47,100
131968,note_off,256,,,2,0,0,,,,,,,,47,64
132096,note_on,128,,,2,0,0,,,,,,,,49,100
132352,note_off,256,,,2,0,0,,,,,,,,49,64
132480,note_on,128,,,2,0,0,,,,,,,,50,100
132736,note_off,256,,,2,0,0,,,,,,,,50,64
132864,note_on,128,,,2,0,0,,,,,,,,52,100
133120,note_off,256,,,2,0,0,,,,,,,,52,64
133248,note_on,128,,,2,0,0,,,,,,,,47,100
133504,note_off,256,,,2,0,0,,,,,,,,47,64
133632,note_on,128,,,2,0,0,,,,,,,,49,100
133888,note_off,256,,,2,0,0,,,,,,,,49,64
134016,note_on,128,,,2,0,0,,,,,,,,54,100
134272,note_off,256,,,2,0,0,,,,,,,,54,64
134400,note_on,128,,,2,0,0,,,,,,,,50,100
134592,note_on,192,,,0,0,0,,,,,,,,74,85
134592,note_on,0,,,0,0,0,,,,,,,,71,100
134656,note_off,64,,,0,0,0,,,,,,,,74,64
134656,note_off,0,,,0,0,0,,,,,,,,71,64
134656,note_off,0,,,2,0,0,,,,,,,,50,64
134688,note_on,32,,,0,0,0,,,,,,,,76,85
134688,note_on,0,,,0,0,0,,,,,,,,73,100
134752,note_off,64,,,0,0,0,,,,,,,,76,64
134752,note_off,0,,,0,0,0,,,,,,,,73,64
134784,note_on,32,,,0,0,0,,,,,,,,78,85
134784,note_on,0,,,0,0,0,,,,,,,,74,100
134912,note_off,128,,,0,0,0,,,,,,,,78,64
134912,note_off,0,,,0,0,0,,,,,,,,74,64
134976,note_on,64,,,0,0,0,,,,,,,,74,85
134976,note_on,0,,,0,0,0,,,,,,,,71,100
135104,note_off,128,,,0,0,0,,,,,,,,74,64
135104,note_off,0,,,0,0,0,,,,,,,,71,64
139584,note_on,4480,,,0,0,0,,,,,,,,78,100
139584,note_on,0,,,0,0,0,,,,,,,,81,100
139584,note_on,0,,,1,0,0,,,,,,,,69,43
139584,note_on,0,,,2,0,0,,,,,,,,50,100
139712,note_off,128,,,0,0,0,,,,,,,,78,64
139712,note_off,0,,,0,0,0,,,,,,,,81,64
139712,note_off,0,,,1,0,0,,,,,,,,69,27
139712,note_off,0,,,2,0,0,,,,,,,,50,64
139776,note_on,64,,,0,0,0,,,,,,,,78,100
139776,note_on,0,,,0,0,0,,,,,,,,81,100
139776,note_on,0,,,1,0,0,,,,,,,,69,43
139776,note_on,0,,,2,0,0,,,,,,,,50,100
139824,note_off,48,,,0,0,0,,,,,,,,78,64
139824,note_on,0,,,0,0,0,,,,,,,,76,100
139824,note_off,0,,,0,0,0,,,,,,,,81,64
139824,note_on,0,,,0,0,0,,,,,,,,79,100
139876,note_off,52,,,0,0,0,,,,,,,,76,64
139876,note_on,0,,,0,0,0,,,,,,,,74,100
139876,note_off,0,,,0,0,0,,,,,,,,79,64
139876,note_on,0,,,0,0,0,,,,,,,,78,100
139904,note_off,28,,,2,0,0,,,,,,,,50,64
139968,note_on,64,,,2,0,0,,,,,,,,50,100
140032,note_off,64,,,1,0,0,,,,,,,,69,27
140096,note_off,64,,,2,0,0,,,,,,,,50,64
140160,note_on,64,,,0,0,0,,,,,,,,78,100
140160,note_on,0,,,0,0,0,,,,,,,,81,100
140160,note_on,0,,,1,0,0,,,,,,,,62,43
140160,note_on,0,,,2,0,0,,,,,,,,50,100
140176,note_off,16,,,0,0,0,,,,,,,,74,64
140176,note_off,0,,,0,0,0,,,,,,,,78,64
140208,note_off,32,,,0,0,0,,,,,,,,78,64
140208,note_on,0,,,0,0,0,,,,,,,,76,100
140208,note_off,0,,,0,0,0,,,,,,,,81,64
140208,note_on,0,,,0,0,0,,,,,,,,79,100
140260,note_off,52,,,0,0,0,,,,,,,,76,64
140260,note_on,0,,,0,0,0,,,,,,,,74,100
140260,note_off,0,,,0,0,0,,,,,,,,79,64
140260,note_on,0,,,0,0,0,,,,,,,,78,100
140288,note_off,28,,,2,0,0,,,,,,,,50,64
140352,note_on,64,,,2,0,0,,,,,,,,50,100
140416,note_off,64,,,1,0,0,,,,,,,,62,27
140480,note_off,64,,,2,0,0,,,,,,,,50,64
140544,note_on,64,,,0,0,0,,,,,,,,81,100
140544,note_on,0,,,0,0,0,,,,,,,,76,100
140544,note_on,0,,,1,0,0,,,,,,,,64,43
140544,note_on,0,,,2,0,0,,,,,,,,45,100
140560,note_off,16,,,0,0,0,,,,,,,,74,64
140560,note_off,0,,,0,0,0,,,,,,,,78,64
140672,note_off,112,,,0,0,0,,,,,,,,81,64
140672,note_off,0,,,0,0,0,,,,,,,,76,64
140672,note_off,0,,,1,0,0,,,,,,,,64,27
140672,note_off,0,,,2,0,0,,,,,,,,45,64
140736,note_on,64,,,0,0,0,,,,,,,,69,100
140736,note_on,0,,,0,0,0,,,,,,,,69,100
140736,note_on,0,,,1,0,0,,,,,,,,61,43
140736,note_on,0,,,2,0,0,,,,,,,,45,100
140864,note_off,128,,,0,0,0,,,,,,,,69,64
140864,note_off,0,,,0,0,0,,,,,,,,69,64
140864,note_off,0,,,1,0,0,,,,,,,,61,27
140864,note_off,0,,,2,0,0,,,,,,,,45,64
140928,note_on,64,,,0,0,0,,,,,,,,69,100
140928,note_on,0,,,0,0,0,,,,,,,,69,100
140928,note_on,0,,,1,0,0,,,,,,,,61,43
140928,note_on,0,,,2,0,0,,,,,,,,45,100
141056,note_off,128,,,0,0,0,,,,,,,,69,64
141056,note_off,0,,,0,0,0,,,,,,,,69,64
141056,note_off,0,,,1,0,0,,,,,,,,61,27
141056,note_off,0,,,2,0,0,,,,,,,,45,64
141120,note_on,64,,,0,0,0,,,,,,,,69,100
141120,note_on,0,,,0,0,0,,,,,,,,69,100
141120,note_on,0,,,1,0,0,,,,,,,,61,43
141120,note_on,0,,,2,0,0,,,,,,,,45,100
141248,note_off,128,,,0,0,0,,,,,,,,69,64
141248,note_off,0,,,0,0,0,,,,,,,,69,64
141248,note_off,0,,,1,0,0,,,,,,,,61,27
141248,note_off,0,,,2,0,0,,,,,,,,45,64
141312,note_on,64,,,0,0,0,,,,,,,,78,100
141312,note_on,0,,,0,0,0,,,,,,,,81,100
141312,note_on,0,,,1,0,0,,,,,,,,69,43
141312,note_on,0,,,2,0,0,,,,,,,,50,100
141360,note_off,48,,,0,0,0,,,,,,,,78,64
141360,note_on,0,,,0,0,0,,,,,,,,76,100
141360,note_off,0,,,0,0,0,,,,,,,,81,64
141360,note_on,0,,,0,0,0,,,,,,,,79,100
141412,note_off,52,,,0,0,0,,,,,,,,76,64
141412,note_on,0,,,0,0,0,,,,,,,,74,100
141412,note_off,0,,,0,0,0,,,,,,,,79,64
141412,note_on,0,,,0,0,0,,,,,,,,78,100
141440,note_off,28,,,2,0,0,,,,,,,,50,64
141504,note_on,64,,,2,0,0,,,,,,,,50,100
141568,note_off,64,,,1,0,0,,,,,,,,69,27
141632,note_off,64,,,2,0,0,,,,,,,,50,64
141696,note_on,64,,,0,0,0,,,,,,,,78,100
141696,note_on,0,,,0,0,0,,,,,,,,81,100
141696,note_on,0,,,1,0,0,,,,,,,,62,43
141696,note_on,0,,,2,0,0,,,,,,,,50,100
141712,note_off,16,,,0,0,0,,,,,,,,74,64
141712,note_off,0,,,0,0,0,,,,,,,,78,64
141744,note_off,32,,,0,0,0,,,,,,,,78,64
141744,note_on,0,,,0,0,0,,,,,,,,76,100
141744,note_off,0,,,0,0,0,,,,,,,,81,64
141744,note_on,0,,,0,0,0,,,,,,,,79,100
141796,note_off,52,,,0,0,0,,,,,,,,76,64
141796,note_on,0,,,0,0,0,,,,,,,,74,100
141796,note_off,0,,,0,0,0,,,,,,,,79,64
141796,note_on,0,,,0,0,0,,,,,,,,78,100
141824,note_off,28,,,2,0,0,,,,,,,,50,64
141888,note_on,64,,,2,0,0,,,,,,,,50,100
141952,note_off,64,,,1,0,0,,,,,,,,62,27
142016,note_off,64,,,2,0,0,,,,,,,,50,64
142080,note_on,64,,,0,0,0,,,,,,,,81,100
142080,note_on,0,,,0,0,0,,,,,,,,78,100
142080,note_on,0,,,1,0,0,,,,,,,,62,43
142080,note_on,0,,,2,0,0,,,,,,,,50,100
142096,note_off,16,,,0,0,0,,,,,,,,74,64
142096,note_off,0,,,0,0,0,,,,,,,,78,64
142128,note_off,32,,,0,0,0,,,,,,,,81,64
142128,note_on,0,,,0,0,0,,,,,,,,79,100
142128,note_off,0,,,0,0,0,,,,,,,,78,64
142128,note_on,0,,,0,0,0,,,,,,,,76,100
142180,note_off,52,,,0,0,0,,,,,,,,79,64
142180,note_on,0,,,0,0,0,,,,,,,,78,100
142180,note_off,0,,,0,0,0,,,,,,,,76,64
142180,note_on,0,,,0,0,0,,,,,,,,74,100
142208,note_off,28,,,2,0,0,,,,,,,,50,64
142272,note_on,64,,,2,0,0,,,,,,,,50,100
142336,note_off,64,,,1,0,0,,,,,,,,62,27
142400,note_off,64,,,2,0,0,,,,,,,,50,64
142464,note_on,64,,,0,0,0,,,,,,,,81,100
142464,note_on,0,,,0,0,0,,,,,,,,78,100
142464,note_on,0,,,1,0,0,,,,,,,,62,43
142464,note_on,0,,,2,0,0,,,,,,,,50,100
142480,note_off,16,,,0,0,0,,,,,,,,78,64
142480,note_off,0,,,0,0,0,,,,,,,,74,64
142512,note_off,32,,,0,0,0,,,,,,,,81,64
142512,note_on,0,,,0,0,0,,,,,,,,79,100
142512,note_off,0,,,0,0,0,,,,,,,,78,64
142512,note_on,0,,,0,0,0,,,,,,,,76,100
142528,note_off,16,,,2,0,0,,,,,,,,50,64
142560,note_on,32,,,2,0,0,,,,,,,,52,100
142564,note_off,4,,,0,0,0,,,,,,,,79,64
142564,note_on,0,,,0,0,0,,,,,,,,78,100
142564,note_off,0,,,0,0,0,,,,,,,,76,64
142564,note_on,0,,,0,0,0,,,,,,,,74,100
142624,note_off,60,,,2,0,0,,,,,,,,52,64
142656,note_on,32,,,2,0,0,,,,,,,,54,100
142720,note_off,64,,,1,0,0,,,,,,,,62,27
142720,note_off,0,,,2,0,0,,,,,,,,54,64
142752,note_on,32,,,2,0,0,,,,,,,,55,100
142816,note_off,64,,,2,0,0,,,,,,,,55,64
142848,note_on,32,,,0,0,0,,,,,,,,76,100
142848,note_on,0,,,0,0,0,,,,,,,,73,100
142848,note_on,0,,,1,0,0,,,,,,,,57,43
142848,note_on,0,,,2,0,0,,,,,,,,57,100
142864,note_off,16,,,0,0,0,,,,,,,,78,64
142864,note_off,0,,,0,0,0,,,,,,,,74,64
143104,note_off,240,,,0,0,0,,,,,,,,76,64
143104,note_off,0,,,0,0,0,,,,,,,,73,64
143104,note_off,0,,,1,0,0,,,,,,,,57,27
143104,note_off,0,,,2,0,0,,,,,,,,57,64
152832,note_on,9728,,,0,0,0,,,,,,,,78,100
152832,note_on,0,,,0,0,0,,,,,,,,74,100
152832,note_on,0,,,1,0,0,,,,,,,,69,43
152832,note_on,0,,,2,0,0,,,,,,,,50,100
152832,note_on,0,,,2,0,0,,,,,,,,38,100
152896,note_off,64,,,0,0,0,,,,,,,,78,64
152896,note_off,0,,,0,0,0,,,,,,,,74,64
152928,note_on,32,,,0,0,0,,,,,,,,79,100
152928,note_on,0,,,0,0,0,,,,,,,,76,100
152960,note_off,32,,,1,0,0,,,,,,,,69,27
152960,note_off,0,,,2,0,0,,,,,,,,50,64
152960,note_off,0,,,2,0,0,,,,,,,,38,64
152992,note_off,32,,,0,0,0,,,,,,,,79,64
152992,note_off,0,,,0,0,0,,,,,,,,76,64
153024,note_on,32,,,0,0,0,,,,,,,,81,100
153024,note_on,0,,,0,0,0,,,,,,,,78,100
153024,note_on,0,,,1,0,0,,,,,,,,69,43
153024,note_on,0,,,2,0,0,,,,,,,,50,100
153024,note_on,0,,,2,0,0,,,,,,,,38,100
153088,note_off,64,,,0,0,0,,,,,,,,81,64
153088,note_off,0,,,0,0,0,,,,,,,,78,64
153120,note_on,32,,,0,0,0,,,,,,,,78,100
153120,note_on,0,,,0,0,0,,,,,,,,74,100
153152,note_off,32,,,1,0,0,,,,,,,,69,27
153152,note_off,0,,,2,0,0,,,,,,,,50,64
153152,note_off,0,,,2,0,0,,,,,,,,38,64
153184,note_off,32,,,0,0,0,,,,,,,,78,64
153184,note_off,0,,,0,0,0,,,,,,,,74,64
153216,note_on,32,,,0,0,0,,,,,,,,76,100
153216,note_on,0,,,0,0,0,,,,,,,,73,100
153216,note_on,0,,,1,0,0,,,,,,,,64,43
153216,note_on,0,,,2,0,0,,,,,,,,45,100
153280,note_off,64,,,0,0,0,,,,,,,,76,64
153280,note_off,0,,,0,0,0,,,,,,,,73,64
153312,note_on,32,,,0,0,0,,,,,,,,78,100
153312,note_on,0,,,0,0,0,,,,,,,,74,100
153344,note_off,32,,,1,0,0,,,,,,,,64,27
153344,note_off,0,,,2,0,0,,,,,,,,45,64
153376,note_off,32,,,0,0,0,,,,,,,,78,64
153376,note_off,0,,,0,0,0,,,,,,,,74,64
153408,note_on,32,,,0,0,0,,,,,,,,79,100
153408,note_on,0,,,0,0,0,,,,,,,,76,100
153408,note_on,0,,,1,0,0,,,,,,,,64,43
153408,note_on,0,,,2,0,0,,,,,,,,45,100
153472,note_off,64,,,0,0,0,,,,,,,,79,64
153472,note_off,0,,,0,0,0,,,,,,,,76,64
153504,note_on,32,,,0,0,0,,,,,,,,76,100
153504,note_on,0,,,0,0,0,,,,,,,,73,100
153536,note_off,32,,,1,0,0,,,,,,,,64,27
153536,note_off,0,,,2,0,0,,,,,,,,45,64
153568,note_off,32,,,0,0,0,,,,,,,,76,64
153568,note_off,0,,,0,0,0,,,,,,,,73,64
153600,note_on,32,,,0,0,0,,,,,,,,78,100
153600,note_on,0,,,0,0,0,,,,,,,,74,100
153600,note_on,0,,,1,0,0,,,,,,,,57,43
153600,note_on,0,,,2,0,0,,,,,,,,50,100
153664,note_off,64,,,0,0,0,,,,,,,,78,64
153664,note_off,0,,,0,0,0,,,,,,,,74,64
153696,note_on,32,,,0,0,0,,,,,,,,79,100
153696,note_on,0,,,0,0,0,,,,,,,,76,100
153728,note_off,32,,,1,0,0,,,,,,,,57,27
153728,note_off,0,,,2,0,0,,,,,,,,50,64
153760,note_off,32,,,0,0,0,,,,,,,,79,64
153760,note_off,0,,,0,0,0,,,,,,,,76,64
153792,note_on,32,,,0,0,0,,,,,,,,81,100
153792,note_on,0,,,0,0,0,,,,,,,,78,100
153792,note_on,0,,,1,0,0,,,,,,,,57,43
153792,note_on,0,,,2,0,0,,,,,,,,50,100
153856,note_off,64,,,0,0,0,,,,,,,,81,64
153856,note_off,0,,,0,0,0,,,,,,,,78,64
153888,note_on,32,,,0,0,0,,,,,,,,78,100
153888,note_on,0,,,0,0,0,,,,,,,,74,100
153920,note_off,32,,,1,0,0,,,,,,,,57,27
153920,note_off,0,,,2,0,0,,,,,,,,50,64
153952,note_off,32,,,0,0,0,,,,,,,,78,64
153952,note_off,0,,,0,0,0,,,,,,,,74,64
153984,note_on,32,,,0,0,0,,,,,,,,76,100
153984,note_on,0,,,0,0,0,,,,,,,,73,100
153984,note_on,0,,,1,0,0,,,,,,,,64,43
153984,note_on,0,,,2,0,0,,,,,,,,45,100
154048,note_off,64,,,0,0,0,,,,,,,,76,64
154048,note_off,0,,,0,0,0,,,,,,,,73,64
154080,note_on,32,,,0,0,0,,,,,,,,78,100
154080,note_on,0,,,0,0,0,,,,,,,,74,100
154112,note_off,32,,,1,0,0,,,,,,,,64,27
154112,note_off,0,,,2,0,0,,,,,,,,45,64
154144,note_off,32,,,0,0,0,,,,,,,,78,64
154144,note_off,0,,,0,0,0,,,,,,,,74,64
154176,note_on,32,,,0,0,0,,,,,,,,79,100
154176,note_on,0,,,0,0,0,,,,,,,,76,100
154176,note_on,0,,,1,0,0,,,,,,,,64,43
154176,note_on,0,,,2,0,0,,,,,,,,45,100
154240,note_off,64,,,0,0,0,,,,,,,,79,64
154240,note_off,0,,,0,0,0,,,,,,,,76,64
154272,note_on,32,,,0,0,0,,,,,,,,76,100
154272,note_on,0,,,0,0,0,,,,,,,,73,100
154304,note_off,32,,,1,0,0,,,,,,,,64,27
154304,note_off,0,,,2,0,0,,,,,,,,45,64
154336,note_off,32,,,0,0,0,,,,,,,,76,64
154336,note_off,0,,,0,0,0,,,,,,,,73,64
154368,note_on,32,,,0,0,0,,,,,,,,78,100
154368,note_on,0,,,0,0,0,,,,,,,,74,100
154368,note_on,0,,,1,0,0,,,,,,,,69,43
154368,note_on,0,,,2,0,0,,,,,,,,50,100
154368,note_on,0,,,2,0,0,,,,,,,,38,100
154432,note_off,64,,,0,0,0,,,,,,,,78,64
154432,note_off,0,,,0,0,0,,,,,,,,74,64
154464,note_on,32,,,0,0,0,,,,,,,,79,100
154464,note_on,0,,,0,0,0,,,,,,,,76,100
154496,note_off,32,,,1,0,0,,,,,,,,69,27
154496,note_off,0,,,2,0,0,,,,,,,,50,64
154496,note_off,0,,,2,0,0,,,,,,,,38,64
154528,note_off,32,,,0,0,0,,,,,,,,79,64
154528,note_off,0,,,0,0,0,,,,,,,,76,64
154560,note_on,32,,,0,0,0,,,,,,,,81,100
154560,note_on,0,,,0,0,0,,,,,,,,78,100
154560,note_on,0,,,1,0,0,,,,,,,,69,43
154560,note_on,0,,,2,0,0,,,,,,,,50,100
154560,note_on,0,,,2,0,0,,,,,,,,38,100
154624,note_off,64,,,0,0,0,,,,,,,,81,64
154624,note_off,0,,,0,0,0,,,,,,,,78,64
154656,note_on,32,,,0,0,0,,,,,,,,78,100
154656,note_on,0,,,0,0,0,,,,,,,,74,100
154688,note_off,32,,,1,0,0,,,,,,,,69,27
154688,note_off,0,,,2,0,0,,,,,,,,50,64
154688,note_off,0,,,2,0,0,,,,,,,,38,64
154720,note_off,32,,,0,0,0,,,,,,,,78,64
154720,note_off,0,,,0,0,0,,,,,,,,74,64
154752,note_on,32,,,0,0,0,,,,,,,,76,100
154752,note_on,0,,,0,0,0,,,,,,,,73,100
154752,note_on,0,,,1,0,0,,,,,,,,64,43
154752,note_on,0,,,2,0,0,,,,,,,,45,100
154816,note_off,64,,,0,0,0,,,,,,,,76,64
154816,note_off,0,,,0,0,0,,,,,,,,73,64
154848,note_on,32,,,0,0,0,,,,,,,,78,100
154848,note_on,0,,,0,0,0,,,,,,,,74,100
154880,note_off,32,,,1,0,0,,,,,,,,64,27
154880,note_off,0,,,2,0,0,,,,,,,,45,64
154912,note_off,32,,,0,0,0,,,,,,,,78,64
154912,note_off,0,,,0,0,0,,,,,,,,74,64
154944,note_on,32,,,0,0,0,,,,,,,,79,100
154944,note_on,0,,,0,0,0,,,,,,,,76,100
154944,note_on,0,,,1,0,0,,,,,,,,64,43
154944,note_on,0,,,2,0,0,,,,,,,,45,100
155008,note_off,64,,,0,0,0,,,,,,,,79,64
155008,note_off,0,,,0,0,0,,,,,,,,76,64
155040,note_on,32,,,0,0,0,,,,,,,,76,100
155040,note_on,0,,,0,0,0,,,,,,,,73,100
155072,note_off,32,,,1,0,0,,,,,,,,64,27
155072,note_off,0,,,2,0,0,,,,,,,,45,64
155104,note_off,32,,,0,0,0,,,,,,,,76,64
155104,note_off,0,,,0,0,0,,,,,,,,73,64
155136,note_on,32,,,0,0,0,,,,,,,,78,100
155136,note_on,0,,,0,0,0,,,,,,,,74,100
155136,note_on,0,,,1,0,0,,,,,,,,69,43
155136,note_on,0,,,2,0,0,,,,,,,,50,100
155264,note_off,128,,,0,0,0,,,,,,,,78,64
155264,note_off,0,,,0,0,0,,,,,,,,74,64
155264,note_off,0,,,1,0,0,,,,,,,,69,27
155264,note_off,0,,,2,0,0,,,,,,,,50,64
155328,note_on,64,,,0,0,0,,,,,,,,74,100
155328,note_on,0,,,0,0,0,,,,,,,,78,100
155328,note_on,0,,,1,0,0,,,,,,,,69,43
155328,note_on,0,,,2,0,0,,,,,,,,62,100
155456,note_off,128,,,0,0,0,,,,,,,,74,64
155456,note_off,0,,,0,0,0,,,,,,,,78,64
155456,note_off,0,,,1,0,0,,,,,,,,69,27
155456,note_off,0,,,2,0,0,,,,,,,,62,64
155520,note_on,64,,,0,0,0,,,,,,,,76,100
155520,note_on,0,,,0,0,0,,,,,,,,79,100
155520,note_on,0,,,1,0,0,,,,,,,,69,43
155520,note_on,0,,,2,0,0,,,,,,,,55,100
155648,note_off,128,,,0,0,0,,,,,,,,76,64
155648,note_off,0,,,0,0,0,,,,,,,,79,64
155648,note_off,0,,,1,0,0,,,,,,,,69,27
155648,note_off,0,,,2,0,0,,,,,,,,55,64
155712,note_on,64,,,0,0,0,,,,,,,,73,100
155712,note_on,0,,,0,0,0,,,,,,,,76,100
155712,note_on,0,,,1,0,0,,,,,,,,69,43
155712,note_on,0,,,2,0,0,,,,,,,,57,100
155840,note_off,128,,,0,0,0,,,,,,,,73,64
155840,note_off,0,,,0,0,0,,,,,,,,76,64
155840,note_off,0,,,1,0,0,,,,,,,,69,27
155840,note_off,0,,,2,0,0,,,,,,,,57,64
155904,note_on,64,,,0,0,0,,,,,,,,74,100
155904,note_on,0,,,0,0,0,,,,,,,,74,100
155904,note_on,0,,,1,0,0,,,,,,,,62,43
155904,note_on,0,,,2,0,0,,,,,,,,50,100
156416,note_off,512,,,0,0,0,,,,,,,,74,64
156416,note_off,0,,,0,0,0,,,,,,,,74,64
156416,note_off,0,,,1,0,0,,,,,,,,62,27
156416,note_off,0,,,2,0,0,,,,,,,,50,64
156416,end_of_track,0,,,,1,0,,,,,,,,,
