tick,type,time,control,value,channel,meta,track,program,numerator,denominator,clocks_per_click,notated_32nd_notes_per_beat,data,tempo,note,velocity
0,control_change,0,0,0,0,0,0,,,,,,,,,
0,program_change,0,,,0,0,0,40,,,,,,,,
0,control_change,0,0,0,0,0,0,,,,,,,,,
0,program_change,0,,,0,0,0,40,,,,,,,,
0,control_change,0,0,0,0,0,0,,,,,,,,,
0,program_change,0,,,0,0,0,40,,,,,,,,
0,control_change,0,0,0,1,0,0,,,,,,,,,
0,program_change,0,,,1,0,0,43,,,,,,,,
0,control_change,0,0,0,2,0,0,,,,,,,,,
0,program_change,0,,,2,0,0,6,,,,,,,,
0,time_signature,0,,,,1,0,,6,4,96,8,,,,
0,sequencer_specific,0,,,,1,0,,,,,,"(0, 0, 65)",,,
0,set_tempo,0,,,,1,0,,,,,,,300000,,
0,note_on,0,,,0,0,0,,,,,,,,78,100
0,note_on,0,,,0,0,0,,,,,,,,74,100
0,note_on,0,,,0,0,0,,,,,,,,69,100
0,note_on,0,,,1,0,0,,,,,,,,50,106
0,note_on,0,,,2,0,0,,,,,,,,50,87
188,note_off,188,,,0,0,0,,,,,,,,78,64
188,note_off,0,,,0,0,0,,,,,,,,74,64
188,note_off,0,,,0,0,0,,,,,,,,69,64
192,note_on,4,,,0,0,0,,,,,,,,81,100
192,note_on,0,,,0,0,0,,,,,,,,78,100
192,note_on,0,,,0,0,0,,,,,,,,66,100
320,note_off,128,,,0,0,0,,,,,,,,81,64
320,note_off,0,,,0,0,0,,,,,,,,78,64
320,note_off,0,,,0,0,0,,,,,,,,66,64
384,note_on,64,,,0,0,0,,,,,,,,78,100
384,note_on,0,,,0,0,0,,,,,,,,74,100
384,note_on,0,,,0,0,0,,,,,,,,69,100
384,note_off,0,,,1,0,0,,,,,,,,50,67
384,note_off,0,,,2,0,0,,,,,,,,50,55
512,note_off,128,,,0,0,0,,,,,,,,78,64
512,note_off,0,,,0,0,0,,,,,,,,74,64
512,note_off,0,,,0,0,0,,,,,,,,69,64
576,note_on,64,,,0,0,0,,,,,,,,76,100
576,note_on,0,,,0,0,0,,,,,,,,73,100
576,note_on,0,,,0,0,0,,,,,,,,69,100
576,note_on,0,,,1,0,0,,,,,,,,45,106
576,note_on,0,,,2,0,0,,,,,,,,45,87
764,note_off,188,,,0,0,0,,,,,,,,76,64
764,note_off,0,,,0,0,0,,,,,,,,73,64
764,note_off,0,,,0,0,0,,,,,,,,69,64
768,note_on,4,,,0,0,0,,,,,,,,81,100
768,note_on,0,,,0,0,0,,,,,,,,76,100
768,note_on,0,,,0,0,0,,,,,,,,64,100
896,note_off,128,,,0,0,0,,,,,,,,76,64
896,note_off,0,,,0,0,0,,,,,,,,64,64
956,note_off,60,,,0,0,0,,,,,,,,81,64
960,note_on,4,,,0,0,0,,,,,,,,76,100
960,note_on,0,,,0,0,0,,,,,,,,73,100
960,note_on,0,,,0,0,0,,,,,,,,69,100
960,note_off,0,,,1,0,0,,,,,,,,45,67
960,note_off,0,,,2,0,0,,,,,,,,45,55
1088,note_off,128,,,0,0,0,,,,,,,,73,64
1088,note_off,0,,,0,0,0,,,,,,,,69,64
1148,note_off,60,,,0,0,0,,,,,,,,76,64
1152,note_on,4,,,0,0,0,,,,,,,,78,100
1152,note_on,0,,,0,0,0,,,,,,,,74,100
1152,note_on,0,,,0,0,0,,,,,,,,69,100
1152,note_on,0,,,1,0,0,,,,,,,,50,106
1152,note_on,0,,,2,0,0,,,,,,,,50,87
1340,note_off,188,,,0,0,0,,,,,,,,78,64
1340,note_off,0,,,0,0,0,,,,,,,,74,64
1340,note_off,0,,,0,0,0,,,,,,,,69,64
1344,note_on,4,,,0,0,0,,,,,,,,81,100
1344,note_on,0,,,0,0,0,,,,,,,,78,100
1344,note_on,0,,,0,0,0,,,,,,,,66,100
1472,note_off,128,,,0,0,0,,,,,,,,81,64
1472,note_off,0,,,0,0,0,,,,,,,,78,64
1472,note_off,0,,,0,0,0,,,,,,,,66,64
1536,note_on,64,,,0,0,0,,,,,,,,78,100
1536,note_on,0,,,0,0,0,,,,,,,,74,100
1536,note_on,0,,,0,0,0,,,,,,,,69,100
1536,note_off,0,,,1,0,0,,,,,,,,50,67
1536,note_off,0,,,2,0,0,,,,,,,,50,55
1664,note_off,128,,,0,0,0,,,,,,,,78,64
1664,note_off,0,,,0,0,0,,,,,,,,74,64
1664,note_off,0,,,0,0,0,,,,,,,,69,64
1728,note_on,64,,,0,0,0,,,,,,,,76,100
1728,note_on,0,,,0,0,0,,,,,,,,73,100
1728,note_on,0,,,0,0,0,,,,,,,,69,100
1728,note_on,0,,,1,0,0,,,,,,,,45,106
1728,note_on,0,,,2,0,0,,,,,,,,45,87
1916,note_off,188,,,0,0,0,,,,,,,,76,64
1916,note_off,0,,,0,0,0,,,,,,,,73,64
1916,note_off,0,,,0,0,0,,,,,,,,69,64
1920,note_on,4,,,0,0,0,,,,,,,,81,100
1920,note_on,0,,,0,0,0,,,,,,,,76,100
1920,note_on,0,,,0,0,0,,,,,,,,64,100
2048,note_off,128,,,0,0,0,,,,,,,,76,64
2048,note_off,0,,,0,0,0,,,,,,,,64,64
2108,note_off,60,,,0,0,0,,,,,,,,81,64
2112,note_on,4,,,0,0,0,,,,,,,,76,100
2112,note_on,0,,,0,0,0,,,,,,,,73,100
2112,note_on,0,,,0,0,0,,,,,,,,69,100
2112,note_off,0,,,1,0,0,,,,,,,,45,67
2112,note_off,0,,,2,0,0,,,,,,,,45,55
2240,note_off,128,,,0,0,0,,,,,,,,73,64
2240,note_off,0,,,0,0,0,,,,,,,,69,64
2300,note_off,60,,,0,0,0,,,,,,,,76,64
2304,note_on,4,,,0,0,0,,,,,,,,78,100
2304,note_on,0,,,0,0,0,,,,,,,,74,100
2304,note_on,0,,,0,0,0,,,,,,,,69,100
2304,note_on,0,,,1,0,0,,,,,,,,50,106
2304,note_on,0,,,2,0,0,,,,,,,,50,87
2492,note_off,188,,,0,0,0,,,,,,,,78,64
2492,note_off,0,,,0,0,0,,,,,,,,74,64
2492,note_off,0,,,0,0,0,,,,,,,,69,64
2496,note_on,4,,,0,0,0,,,,,,,,81,100
2496,note_on,0,,,0,0,0,,,,,,,,78,100
2496,note_on,0,,,0,0,0,,,,,,,,66,100
2624,note_off,128,,,0,0,0,,,,,,,,81,64
2624,note_off,0,,,0,0,0,,,,,,,,78,64
2624,note_off,0,,,0,0,0,,,,,,,,66,64
2688,note_on,64,,,0,0,0,,,,,,,,78,100
2688,note_on,0,,,0,0,0,,,,,,,,74,100
2688,note_on,0,,,0,0,0,,,,,,,,69,100
2688,note_off,0,,,1,0,0,,,,,,,,50,67
2688,note_off,0,,,2,0,0,,,,,,,,50,55
2816,note_off,128,,,0,0,0,,,,,,,,78,64
2816,note_off,0,,,0,0,0,,,,,,,,74,64
2816,note_off,0,,,0,0,0,,,,,,,,69,64
2880,note_on,64,,,0,0,0,,,,,,,,78,100
2880,note_on,0,,,0,0,0,,,,,,,,74,100
2880,note_on,0,,,0,0,0,,,,,,,,69,100
2880,note_on,0,,,1,0,0,,,,,,,,38,106
2880,note_on,0,,,2,0,0,,,,,,,,38,87
3068,note_off,188,,,0,0,0,,,,,,,,78,64
3068,note_off,0,,,0,0,0,,,,,,,,74,64
3068,note_off,0,,,0,0,0,,,,,,,,69,64
3072,note_on,4,,,0,0,0,,,,,,,,81,100
3072,note_on,0,,,0,0,0,,,,,,,,78,100
3072,note_on,0,,,0,0,0,,,,,,,,66,100
3200,note_off,128,,,0,0,0,,,,,,,,81,64
3200,note_off,0,,,0,0,0,,,,,,,,78,64
3200,note_off,0,,,0,0,0,,,,,,,,66,64
3264,note_on,64,,,0,0,0,,,,,,,,78,100
3264,note_on,0,,,0,0,0,,,,,,,,74,100
3264,note_on,0,,,0,0,0,,,,,,,,69,100
3264,note_off,0,,,1,0,0,,,,,,,,38,67
3264,note_off,0,,,2,0,0,,,,,,,,38,55
3392,note_off,128,,,0,0,0,,,,,,,,78,64
3392,note_off,0,,,0,0,0,,,,,,,,74,64
3392,note_off,0,,,0,0,0,,,,,,,,69,64
3456,note_on,64,,,0,0,0,,,,,,,,76,100
3456,note_on,0,,,0,0,0,,,,,,,,73,100
3456,note_on,0,,,0,0,0,,,,,,,,64,100
3456,note_on,0,,,1,0,0,,,,,,,,45,106
3456,note_on,0,,,2,0,0,,,,,,,,45,87
3712,note_off,256,,,1,0,0,,,,,,,,45,67
3712,note_off,0,,,2,0,0,,,,,,,,45,55
3840,note_off,128,,,0,0,0,,,,,,,,76,64
3840,note_off,0,,,0,0,0,,,,,,,,73,64
3840,note_off,0,,,0,0,0,,,,,,,,64,64
3840,note_on,0,,,1,0,0,,,,,,,,57,106
3840,note_on,0,,,2,0,0,,,,,,,,57,87
3968,note_off,128,,,1,0,0,,,,,,,,57,67
3968,note_off,0,,,2,0,0,,,,,,,,57,55
4032,note_on,64,,,1,0,0,,,,,,,,52,106
4032,note_on,0,,,2,0,0,,,,,,,,52,87
4288,note_off,256,,,1,0,0,,,,,,,,52,67
4288,note_off,0,,,2,0,0,,,,,,,,52,55
4416,note_on,128,,,0,0,0,,,,,,,,76,100
4416,note_on,0,,,0,0,0,,,,,,,,73,100
4416,note_on,0,,,0,0,0,,,,,,,,64,100
4416,note_on,0,,,1,0,0,,,,,,,,45,106
4416,note_on,0,,,2,0,0,,,,,,,,45,87
4544,note_off,128,,,0,0,0,,,,,,,,76,64
4544,note_off,0,,,1,0,0,,,,,,,,45,67
4544,note_off,0,,,2,0,0,,,,,,,,45,55
4608,note_off,64,,,0,0,0,,,,,,,,73,64
4608,note_off,0,,,0,0,0,,,,,,,,64,64
4608,note_on,0,,,0,0,0,,,,,,,,78,100
4608,note_on,0,,,0,0,0,,,,,,,,74,100
4608,note_on,0,,,0,0,0,,,,,,,,69,100
4608,note_on,0,,,1,0,0,,,,,,,,50,106
4608,note_on,0,,,2,0,0,,,,,,,,50,87
4796,note_off,188,,,0,0,0,,,,,,,,78,64
4796,note_off,0,,,0,0,0,,,,,,,,74,64
4796,note_off,0,,,0,0,0,,,,,,,,69,64
4800,note_on,4,,,0,0,0,,,,,,,,81,100
4800,note_on,0,,,0,0,0,,,,,,,,78,100
4800,note_on,0,,,0,0,0,,,,,,,,66,100
4928,note_off,128,,,0,0,0,,,,,,,,81,64
4928,note_off,0,,,0,0,0,,,,,,,,78,64
4928,note_off,0,,,0,0,0,,,,,,,,66,64
4992,note_on,64,,,0,0,0,,,,,,,,78,100
4992,note_on,0,,,0,0,0,,,,,,,,74,100
4992,note_on,0,,,0,0,0,,,,,,,,69,100
4992,note_off,0,,,1,0,0,,,,,,,,50,67
4992,note_off,0,,,2,0,0,,,,,,,,50,55
5120,note_off,128,,,0,0,0,,,,,,,,78,64
5120,note_off,0,,,0,0,0,,,,,,,,74,64
5120,note_off,0,,,0,0,0,,,,,,,,69,64
5184,note_on,64,,,0,0,0,,,,,,,,78,100
5184,note_on,0,,,0,0,0,,,,,,,,74,100
5184,note_on,0,,,0,0,0,,,,,,,,69,100
5184,note_on,0,,,1,0,0,,,,,,,,50,106
5184,note_on,0,,,2,0,0,,,,,,,,50,87
5372,note_off,188,,,0,0,0,,,,,,,,78,64
5372,note_off,0,,,0,0,0,,,,,,,,74,64
5372,note_off,0,,,0,0,0,,,,,,,,69,64
5376,note_on,4,,,0,0,0,,,,,,,,81,100
5376,note_on,0,,,0,0,0,,,,,,,,78,100
5376,note_on,0,,,0,0,0,,,,,,,,66,100
5504,note_off,128,,,0,0,0,,,,,,,,81,64
5504,note_off,0,,,0,0,0,,,,,,,,78,64
5504,note_off,0,,,0,0,0,,,,,,,,66,64
5568,note_on,64,,,0,0,0,,,,,,,,78,100
5568,note_on,0,,,0,0,0,,,,,,,,74,100
5568,note_on,0,,,0,0,0,,,,,,,,69,100
5568,note_off,0,,,1,0,0,,,,,,,,50,67
5568,note_off,0,,,2,0,0,,,,,,,,50,55
5696,note_off,128,,,0,0,0,,,,,,,,78,64
5696,note_off,0,,,0,0,0,,,,,,,,74,64
5696,note_off,0,,,0,0,0,,,,,,,,69,64
5760,note_on,64,,,0,0,0,,,,,,,,78,100
5760,note_on,0,,,0,0,0,,,,,,,,74,100
5760,note_on,0,,,0,0,0,,,,,,,,71,100
5760,note_on,0,,,1,0,0,,,,,,,,50,106
5760,note_on,0,,,2,0,0,,,,,,,,50,87
5948,note_off,188,,,0,0,0,,,,,,,,78,64
5948,note_off,0,,,0,0,0,,,,,,,,74,64
5948,note_off,0,,,0,0,0,,,,,,,,71,64
5952,note_on,4,,,0,0,0,,,,,,,,83,100
5952,note_on,0,,,0,0,0,,,,,,,,78,100
5952,note_on,0,,,0,0,0,,,,,,,,66,100
6080,note_off,128,,,0,0,0,,,,,,,,83,64
6080,note_off,0,,,0,0,0,,,,,,,,78,64
6080,note_off,0,,,0,0,0,,,,,,,,66,64
6144,note_on,64,,,0,0,0,,,,,,,,78,100
6144,note_on,0,,,0,0,0,,,,,,,,74,100
6144,note_on,0,,,0,0,0,,,,,,,,71,100
6144,note_off,0,,,1,0,0,,,,,,,,50,67
6144,note_off,0,,,2,0,0,,,,,,,,50,55
6272,note_off,128,,,0,0,0,,,,,,,,78,64
6272,note_off,0,,,0,0,0,,,,,,,,74,64
6272,note_off,0,,,0,0,0,,,,,,,,71,64
6336,note_on,64,,,0,0,0,,,,,,,,78,100
6336,note_on,0,,,0,0,0,,,,,,,,74,100
6336,note_on,0,,,0,0,0,,,,,,,,71,100
6336,note_on,0,,,1,0,0,,,,,,,,50,106
6336,note_on,0,,,2,0,0,,,,,,,,50,87
6524,note_off,188,,,0,0,0,,,,,,,,78,64
6524,note_off,0,,,0,0,0,,,,,,,,74,64
6524,note_off,0,,,0,0,0,,,,,,,,71,64
6528,note_on,4,,,0,0,0,,,,,,,,83,100
6528,note_on,0,,,0,0,0,,,,,,,,78,100
6528,note_on,0,,,0,0,0,,,,,,,,66,100
6656,note_off,128,,,0,0,0,,,,,,,,83,64
6656,note_off,0,,,0,0,0,,,,,,,,78,64
6656,note_off,0,,,0,0,0,,,,,,,,66,64
6720,note_on,64,,,0,0,0,,,,,,,,78,100
6720,note_on,0,,,0,0,0,,,,,,,,74,100
6720,note_on,0,,,0,0,0,,,,,,,,71,100
6720,note_off,0,,,1,0,0,,,,,,,,50,67
6720,note_off,0,,,2,0,0,,,,,,,,50,55
6848,note_off,128,,,0,0,0,,,,,,,,78,64
6848,note_off,0,,,0,0,0,,,,,,,,74,64
6848,note_off,0,,,0,0,0,,,,,,,,71,64
6912,note_on,64,,,0,0,0,,,,,,,,76,100
6912,note_on,0,,,0,0,0,,,,,,,,79,100
6912,note_on,0,,,0,0,0,,,,,,,,67,100
6912,note_on,0,,,1,0,0,,,,,,,,49,106
6912,note_on,0,,,2,0,0,,,,,,,,49,87
7100,note_off,188,,,0,0,0,,,,,,,,76,64
7100,note_off,0,,,0,0,0,,,,,,,,79,64
7100,note_off,0,,,0,0,0,,,,,,,,67,64
7104,note_on,4,,,0,0,0,,,,,,,,79,100
7104,note_on,0,,,0,0,0,,,,,,,,83,100
7104,note_on,0,,,0,0,0,,,,,,,,64,100
7232,note_off,128,,,0,0,0,,,,,,,,79,64
7232,note_off,0,,,0,0,0,,,,,,,,83,64
7232,note_off,0,,,0,0,0,,,,,,,,64,64
7296,note_on,64,,,0,0,0,,,,,,,,76,100
7296,note_on,0,,,0,0,0,,,,,,,,79,100
7296,note_on,0,,,0,0,0,,,,,,,,67,100
7296,note_off,0,,,1,0,0,,,,,,,,49,67
7296,note_off,0,,,2,0,0,,,,,,,,49,55
7424,note_off,128,,,0,0,0,,,,,,,,76,64
7424,note_off,0,,,0,0,0,,,,,,,,79,64
7424,note_off,0,,,0,0,0,,,,,,,,67,64
7488,note_on,64,,,0,0,0,,,,,,,,76,100
7488,note_on,0,,,0,0,0,,,,,,,,79,100
7488,note_on,0,,,0,0,0,,,,,,,,67,100
7488,note_on,0,,,1,0,0,,,,,,,,49,106
7488,note_on,0,,,2,0,0,,,,,,,,49,87
7676,note_off,188,,,0,0,0,,,,,,,,76,64
7676,note_off,0,,,0,0,0,,,,,,,,79,64
7676,note_off,0,,,0,0,0,,,,,,,,67,64
7680,note_on,4,,,0,0,0,,,,,,,,79,100
7680,note_on,0,,,0,0,0,,,,,,,,83,100
7680,note_on,0,,,0,0,0,,,,,,,,64,100
7808,note_off,128,,,0,0,0,,,,,,,,79,64
7808,note_off,0,,,0,0,0,,,,,,,,83,64
7808,note_off,0,,,0,0,0,,,,,,,,64,64
7872,note_on,64,,,0,0,0,,,,,,,,76,100
7872,note_on,0,,,0,0,0,,,,,,,,79,100
7872,note_on,0,,,0,0,0,,,,,,,,67,100
7872,note_off,0,,,1,0,0,,,,,,,,49,67
7872,note_off,0,,,2,0,0,,,,,,,,49,55
8000,note_off,128,,,0,0,0,,,,,,,,76,64
8000,note_off,0,,,0,0,0,,,,,,,,79,64
8000,note_off,0,,,0,0,0,,,,,,,,67,64
8064,note_on,64,,,0,0,0,,,,,,,,76,100
8064,note_on,0,,,0,0,0,,,,,,,,73,100
8064,note_on,0,,,0,0,0,,,,,,,,69,100
8064,note_on,0,,,1,0,0,,,,,,,,49,106
8064,note_on,0,,,2,0,0,,,,,,,,49,87
8252,note_off,188,,,0,0,0,,,,,,,,76,64
8252,note_off,0,,,0,0,0,,,,,,,,73,64
8252,note_off,0,,,0,0,0,,,,,,,,69,64
8256,note_on,4,,,0,0,0,,,,,,,,81,100
8256,note_on,0,,,0,0,0,,,,,,,,76,100
8256,note_on,0,,,0,0,0,,,,,,,,64,100
8384,note_off,128,,,0,0,0,,,,,,,,81,64
8384,note_off,0,,,0,0,0,,,,,,,,76,64
8384,note_off,0,,,0,0,0,,,,,,,,64,64
8448,note_on,64,,,0,0,0,,,,,,,,76,100
8448,note_on,0,,,0,0,0,,,,,,,,73,100
8448,note_on,0,,,0,0,0,,,,,,,,69,100
8448,note_off,0,,,1,0,0,,,,,,,,49,67
8448,note_off,0,,,2,0,0,,,,,,,,49,55
8576,note_off,128,,,0,0,0,,,,,,,,76,64
8576,note_off,0,,,0,0,0,,,,,,,,73,64
8576,note_off,0,,,0,0,0,,,,,,,,69,64
8640,note_on,64,,,0,0,0,,,,,,,,76,100
8640,note_on,0,,,0,0,0,,,,,,,,73,100
8640,note_on,0,,,0,0,0,,,,,,,,69,100
8640,note_on,0,,,1,0,0,,,,,,,,49,106
8640,note_on,0,,,2,0,0,,,,,,,,49,87
8828,note_off,188,,,0,0,0,,,,,,,,76,64
8828,note_off,0,,,0,0,0,,,,,,,,73,64
8828,note_off,0,,,0,0,0,,,,,,,,69,64
8832,note_on,4,,,0,0,0,,,,,,,,81,100
8832,note_on,0,,,0,0,0,,,,,,,,76,100
8832,note_on,0,,,0,0,0,,,,,,,,64,100
8960,note_off,128,,,0,0,0,,,,,,,,81,64
8960,note_off,0,,,0,0,0,,,,,,,,76,64
8960,note_off,0,,,0,0,0,,,,,,,,64,64
9024,note_on,64,,,0,0,0,,,,,,,,76,100
9024,note_on,0,,,0,0,0,,,,,,,,73,100
9024,note_on,0,,,0,0,0,,,,,,,,69,100
9024,note_off,0,,,1,0,0,,,,,,,,49,67
9024,note_off,0,,,2,0,0,,,,,,,,49,55
9152,note_off,128,,,0,0,0,,,,,,,,76,64
9152,note_off,0,,,0,0,0,,,,,,,,73,64
9152,note_off,0,,,0,0,0,,,,,,,,69,64
9216,note_on,64,,,0,0,0,,,,,,,,74,100
9216,note_on,0,,,0,0,0,,,,,,,,78,100
9216,note_on,0,,,0,0,0,,,,,,,,66,100
9216,note_on,0,,,1,0,0,,,,,,,,47,106
9216,note_on,0,,,2,0,0,,,,,,,,47,87
9404,note_off,188,,,0,0,0,,,,,,,,74,64
9404,note_off,0,,,0,0,0,,,,,,,,78,64
9404,note_off,0,,,0,0,0,,,,,,,,66,64
9408,note_on,4,,,0,0,0,,,,,,,,78,100
9408,note_on,0,,,0,0,0,,,,,,,,81,100
9408,note_on,0,,,0,0,0,,,,,,,,62,100
9536,note_off,128,,,0,0,0,,,,,,,,78,64
9536,note_off,0,,,0,0,0,,,,,,,,81,64
9536,note_off,0,,,0,0,0,,,,,,,,62,64
9600,note_on,64,,,0,0,0,,,,,,,,74,100
9600,note_on,0,,,0,0,0,,,,,,,,78,100
9600,note_on,0,,,0,0,0,,,,,,,,66,100
9600,note_off,0,,,1,0,0,,,,,,,,47,67
9600,note_off,0,,,2,0,0,,,,,,,,47,55
9728,note_off,128,,,0,0,0,,,,,,,,74,64
9728,note_off,0,,,0,0,0,,,,,,,,78,64
9728,note_off,0,,,0,0,0,,,,,,,,66,64
9792,note_on,64,,,0,0,0,,,,,,,,74,100
9792,note_on,0,,,0,0,0,,,,,,,,78,100
9792,note_on,0,,,0,0,0,,,,,,,,66,100
9792,note_on,0,,,1,0,0,,,,,,,,47,106
9792,note_on,0,,,2,0,0,,,,,,,,47,87
9980,note_off,188,,,0,0,0,,,,,,,,74,64
9980,note_off,0,,,0,0,0,,,,,,,,78,64
9980,note_off,0,,,0,0,0,,,,,,,,66,64
9984,note_on,4,,,0,0,0,,,,,,,,78,100
9984,note_on,0,,,0,0,0,,,,,,,,81,100
9984,note_on,0,,,0,0,0,,,,,,,,62,100
10112,note_off,128,,,0,0,0,,,,,,,,78,64
10112,note_off,0,,,0,0,0,,,,,,,,81,64
10112,note_off,0,,,0,0,0,,,,,,,,62,64
10176,note_on,64,,,0,0,0,,,,,,,,74,100
10176,note_on,0,,,0,0,0,,,,,,,,78,100
10176,note_on,0,,,0,0,0,,,,,,,,66,100
10176,note_off,0,,,1,0,0,,,,,,,,47,67
10176,note_off,0,,,2,0,0,,,,,,,,47,55
10304,note_off,128,,,0,0,0,,,,,,,,74,64
10304,note_off,0,,,0,0,0,,,,,,,,78,64
10304,note_off,0,,,0,0,0,,,,,,,,66,64
10368,note_on,64,,,0,0,0,,,,,,,,74,100
10368,note_on,0,,,0,0,0,,,,,,,,71,100
10368,note_on,0,,,0,0,0,,,,,,,,67,100
10368,note_on,0,,,1,0,0,,,,,,,,47,106
10368,note_on,0,,,2,0,0,,,,,,,,47,87
10556,note_off,188,,,0,0,0,,,,,,,,74,64
10556,note_off,0,,,0,0,0,,,,,,,,71,64
10556,note_off,0,,,0,0,0,,,,,,,,67,64
10560,note_on,4,,,0,0,0,,,,,,,,79,100
10560,note_on,0,,,0,0,0,,,,,,,,74,100
10560,note_on,0,,,0,0,0,,,,,,,,62,100
10688,note_off,128,,,0,0,0,,,,,,,,79,64
10688,note_off,0,,,0,0,0,,,,,,,,74,64
10688,note_off,0,,,0,0,0,,,,,,,,62,64
10752,note_on,64,,,0,0,0,,,,,,,,74,100
10752,note_on,0,,,0,0,0,,,,,,,,71,100
10752,note_on,0,,,0,0,0,,,,,,,,67,100
10752,note_off,0,,,1,0,0,,,,,,,,47,67
10752,note_off,0,,,2,0,0,,,,,,,,47,55
10880,note_off,128,,,0,0,0,,,,,,,,74,64
10880,note_off,0,,,0,0,0,,,,,,,,71,64
10880,note_off,0,,,0,0,0,,,,,,,,67,64
10944,note_on,64,,,0,0,0,,,,,,,,74,100
10944,note_on,0,,,0,0,0,,,,,,,,71,100
10944,note_on,0,,,0,0,0,,,,,,,,67,100
10944,note_on,0,,,1,0,0,,,,,,,,47,106
10944,note_on,0,,,2,0,0,,,,,,,,47,87
11132,note_off,188,,,0,0,0,,,,,,,,74,64
11132,note_off,0,,,0,0,0,,,,,,,,71,64
11132,note_off,0,,,0,0,0,,,,,,,,67,64
11136,note_on,4,,,0,0,0,,,,,,,,79,100
11136,note_on,0,,,0,0,0,,,,,,,,74,100
11136,note_on,0,,,0,0,0,,,,,,,,62,100
11264,note_off,128,,,0,0,0,,,,,,,,79,64
11264,note_off,0,,,0,0,0,,,,,,,,74,64
11264,note_off,0,,,0,0,0,,,,,,,,62,64
11328,note_on,64,,,0,0,0,,,,,,,,74,100
11328,note_on,0,,,0,0,0,,,,,,,,71,100
11328,note_on,0,,,0,0,0,,,,,,,,67,100
11328,note_off,0,,,1,0,0,,,,,,,,47,67
11328,note_off,0,,,2,0,0,,,,,,,,47,55
11456,note_off,128,,,0,0,0,,,,,,,,74,64
11456,note_off,0,,,0,0,0,,,,,,,,71,64
11456,note_off,0,,,0,0,0,,,,,,,,67,64
11520,note_on,64,,,0,0,0,,,,,,,,76,100
11520,note_on,0,,,0,0,0,,,,,,,,73,100
11520,note_on,0,,,0,0,0,,,,,,,,67,100
11520,note_on,0,,,1,0,0,,,,,,,,45,106
11520,note_on,0,,,2,0,0,,,,,,,,45,87
11708,note_off,188,,,0,0,0,,,,,,,,76,64
11708,note_off,0,,,0,0,0,,,,,,,,67,64
11712,note_on,4,,,0,0,0,,,,,,,,79,100
11712,note_on,0,,,0,0,0,,,,,,,,76,100
11712,note_on,0,,,0,0,0,,,,,,,,64,100
11804,note_off,92,,,0,0,0,,,,,,,,73,64
11840,note_off,36,,,0,0,0,,,,,,,,79,64
11840,note_off,0,,,0,0,0,,,,,,,,64,64
11904,note_on,64,,,0,0,0,,,,,,,,76,100
11904,note_off,0,,,0,0,0,,,,,,,,76,64
11904,note_on,0,,,0,0,0,,,,,,,,73,100
11904,note_on,0,,,0,0,0,,,,,,,,67,100
11904,note_off,0,,,1,0,0,,,,,,,,45,67
11904,note_off,0,,,2,0,0,,,,,,,,45,55
12032,note_off,128,,,0,0,0,,,,,,,,76,64
12032,note_off,0,,,0,0,0,,,,,,,,67,64
12096,note_on,64,,,0,0,0,,,,,,,,78,100
12096,note_off,0,,,0,0,0,,,,,,,,73,64
12096,note_on,0,,,0,0,0,,,,,,,,74,100
12096,note_on,0,,,0,0,0,,,,,,,,66,100
12096,note_on,0,,,1,0,0,,,,,,,,45,106
12096,note_on,0,,,2,0,0,,,,,,,,45,87
12284,note_off,188,,,0,0,0,,,,,,,,78,64
12284,note_off,0,,,0,0,0,,,,,,,,74,64
12284,note_off,0,,,0,0,0,,,,,,,,66,64
12288,note_on,4,,,0,0,0,,,,,,,,81,100
12288,note_on,0,,,0,0,0,,,,,,,,78,100
12288,note_on,0,,,0,0,0,,,,,,,,62,100
12416,note_off,128,,,0,0,0,,,,,,,,81,64
12416,note_off,0,,,0,0,0,,,,,,,,78,64
12416,note_off,0,,,0,0,0,,,,,,,,62,64
12480,note_on,64,,,0,0,0,,,,,,,,78,100
12480,note_on,0,,,0,0,0,,,,,,,,74,100
12480,note_on,0,,,0,0,0,,,,,,,,66,100
12480,note_off,0,,,1,0,0,,,,,,,,45,67
12480,note_off,0,,,2,0,0,,,,,,,,45,55
12608,note_off,128,,,0,0,0,,,,,,,,78,64
12608,note_off,0,,,0,0,0,,,,,,,,74,64
12608,note_off,0,,,0,0,0,,,,,,,,66,64
12672,note_on,64,,,0,0,0,,,,,,,,76,100
12672,note_on,0,,,0,0,0,,,,,,,,73,100
12672,note_on,0,,,0,0,0,,,,,,,,67,100
12672,note_on,0,,,1,0,0,,,,,,,,45,106
12672,note_on,0,,,2,0,0,,,,,,,,45,87
12860,note_off,188,,,0,0,0,,,,,,,,76,64
12860,note_off,0,,,0,0,0,,,,,,,,67,64
12864,note_on,4,,,0,0,0,,,,,,,,79,100
12864,note_on,0,,,0,0,0,,,,,,,,76,100
12864,note_on,0,,,0,0,0,,,,,,,,64,100
12956,note_off,92,,,0,0,0,,,,,,,,73,64
12992,note_off,36,,,0,0,0,,,,,,,,79,64
12992,note_off,0,,,0,0,0,,,,,,,,64,64
13056,note_on,64,,,0,0,0,,,,,,,,76,100
13056,note_off,0,,,0,0,0,,,,,,,,76,64
13056,note_on,0,,,0,0,0,,,,,,,,73,100
13056,note_on,0,,,0,0,0,,,,,,,,67,100
13056,note_off,0,,,1,0,0,,,,,,,,45,67
13056,note_off,0,,,2,0,0,,,,,,,,45,55
13184,note_off,128,,,0,0,0,,,,,,,,76,64
13184,note_off,0,,,0,0,0,,,,,,,,67,64
13248,note_on,64,,,0,0,0,,,,,,,,78,100
13248,note_off,0,,,0,0,0,,,,,,,,73,64
13248,note_on,0,,,0,0,0,,,,,,,,74,100
13248,note_on,0,,,0,0,0,,,,,,,,66,100
13248,note_on,0,,,1,0,0,,,,,,,,45,106
13248,note_on,0,,,2,0,0,,,,,,,,45,87
13436,note_off,188,,,0,0,0,,,,,,,,78,64
13436,note_off,0,,,0,0,0,,,,,,,,74,64
13436,note_off,0,,,0,0,0,,,,,,,,66,64
13440,note_on,4,,,0,0,0,,,,,,,,81,100
13440,note_on,0,,,0,0,0,,,,,,,,78,100
13440,note_on,0,,,0,0,0,,,,,,,,62,100
13568,note_off,128,,,0,0,0,,,,,,,,81,64
13568,note_off,0,,,0,0,0,,,,,,,,78,64
13568,note_off,0,,,0,0,0,,,,,,,,62,64
13632,note_on,64,,,0,0,0,,,,,,,,78,100
13632,note_on,0,,,0,0,0,,,,,,,,74,100
13632,note_on,0,,,0,0,0,,,,,,,,66,100
13632,note_off,0,,,1,0,0,,,,,,,,45,67
13632,note_off,0,,,2,0,0,,,,,,,,45,55
13760,note_off,128,,,0,0,0,,,,,,,,78,64
13760,note_off,0,,,0,0,0,,,,,,,,74,64
13760,note_off,0,,,0,0,0,,,,,,,,66,64
13824,note_on,64,,,0,0,0,,,,,,,,76,100
13824,note_on,0,,,0,0,0,,,,,,,,73,100
13824,note_on,0,,,0,0,0,,,,,,,,67,100
13824,note_on,0,,,1,0,0,,,,,,,,45,106
13824,note_on,0,,,2,0,0,,,,,,,,45,87
14012,note_off,188,,,0,0,0,,,,,,,,76,64
14012,note_off,0,,,0,0,0,,,,,,,,67,64
14016,note_on,4,,,0,0,0,,,,,,,,79,100
14016,note_on,0,,,0,0,0,,,,,,,,76,100
14016,note_on,0,,,0,0,0,,,,,,,,64,100
14108,note_off,92,,,0,0,0,,,,,,,,73,64
14144,note_off,36,,,0,0,0,,,,,,,,79,64
14144,note_off,0,,,0,0,0,,,,,,,,64,64
14208,note_on,64,,,0,0,0,,,,,,,,76,100
14208,note_off,0,,,0,0,0,,,,,,,,76,64
14208,note_on,0,,,0,0,0,,,,,,,,73,100
14208,note_on,0,,,0,0,0,,,,,,,,67,100
14208,note_off,0,,,1,0,0,,,,,,,,45,67
14208,note_off,0,,,2,0,0,,,,,,,,45,55
14336,note_off,128,,,0,0,0,,,,,,,,76,64
14336,note_off,0,,,0,0,0,,,,,,,,67,64
14400,note_on,64,,,0,0,0,,,,,,,,78,100
14400,note_off,0,,,0,0,0,,,,,,,,73,64
14400,note_on,0,,,0,0,0,,,,,,,,74,100
14400,note_on,0,,,0,0,0,,,,,,,,66,100
14400,note_on,0,,,1,0,0,,,,,,,,45,106
14400,note_on,0,,,2,0,0,,,,,,,,45,87
14588,note_off,188,,,0,0,0,,,,,,,,78,64
14588,note_off,0,,,0,0,0,,,,,,,,74,64
14588,note_off,0,,,0,0,0,,,,,,,,66,64
14592,note_on,4,,,0,0,0,,,,,,,,81,100
14592,note_on,0,,,0,0,0,,,,,,,,78,100
14592,note_on,0,,,0,0,0,,,,,,,,62,100
14720,note_off,128,,,0,0,0,,,,,,,,81,64
14720,note_off,0,,,0,0,0,,,,,,,,78,64
14720,note_off,0,,,0,0,0,,,,,,,,62,64
14784,note_on,64,,,0,0,0,,,,,,,,78,100
14784,note_on,0,,,0,0,0,,,,,,,,74,100
14784,note_on,0,,,0,0,0,,,,,,,,66,100
14784,note_off,0,,,1,0,0,,,,,,,,45,67
14784,note_off,0,,,2,0,0,,,,,,,,45,55
14912,note_off,128,,,0,0,0,,,,,,,,78,64
14912,note_off,0,,,0,0,0,,,,,,,,74,64
14912,note_off,0,,,0,0,0,,,,,,,,66,64
14976,note_on,64,,,0,0,0,,,,,,,,76,100
14976,note_on,0,,,0,0,0,,,,,,,,73,100
14976,note_on,0,,,0,0,0,,,,,,,,67,100
14976,note_on,0,,,1,0,0,,,,,,,,45,106
14976,note_on,0,,,2,0,0,,,,,,,,45,87
15164,note_off,188,,,0,0,0,,,,,,,,76,64
15164,note_off,0,,,0,0,0,,,,,,,,67,64
15168,note_on,4,,,0,0,0,,,,,,,,79,100
15168,note_on,0,,,0,0,0,,,,,,,,76,100
15168,note_on,0,,,0,0,0,,,,,,,,64,100
15260,note_off,92,,,0,0,0,,,,,,,,73,64
15296,note_off,36,,,0,0,0,,,,,,,,79,64
15296,note_off,0,,,0,0,0,,,,,,,,64,64
15360,note_on,64,,,0,0,0,,,,,,,,76,100
15360,note_off,0,,,0,0,0,,,,,,,,76,64
15360,note_on,0,,,0,0,0,,,,,,,,73,100
15360,note_on,0,,,0,0,0,,,,,,,,67,100
15360,note_off,0,,,1,0,0,,,,,,,,45,67
15360,note_off,0,,,2,0,0,,,,,,,,45,55
15488,note_off,128,,,0,0,0,,,,,,,,76,64
15488,note_off,0,,,0,0,0,,,,,,,,67,64
15552,note_on,64,,,0,0,0,,,,,,,,76,100
15552,note_off,0,,,0,0,0,,,,,,,,73,64
15552,note_on,0,,,0,0,0,,,,,,,,73,100
15552,note_on,0,,,0,0,0,,,,,,,,67,100
15552,note_on,0,,,1,0,0,,,,,,,,45,106
15552,note_on,0,,,2,0,0,,,,,,,,45,87
15740,note_off,188,,,0,0,0,,,,,,,,76,64
15740,note_off,0,,,0,0,0,,,,,,,,67,64
15744,note_on,4,,,0,0,0,,,,,,,,79,100
15744,note_on,0,,,0,0,0,,,,,,,,76,100
15744,note_on,0,,,0,0,0,,,,,,,,64,100
15836,note_off,92,,,0,0,0,,,,,,,,73,64
15872,note_off,36,,,0,0,0,,,,,,,,79,64
15872,note_off,0,,,0,0,0,,,,,,,,64,64
15936,note_on,64,,,0,0,0,,,,,,,,76,100
15936,note_off,0,,,0,0,0,,,,,,,,76,64
15936,note_on,0,,,0,0,0,,,,,,,,73,100
15936,note_on,0,,,0,0,0,,,,,,,,67,100
15936,note_off,0,,,1,0,0,,,,,,,,45,67
15936,note_off,0,,,2,0,0,,,,,,,,45,55
16064,note_off,128,,,0,0,0,,,,,,,,76,64
16064,note_off,0,,,0,0,0,,,,,,,,67,64
16128,note_off,64,,,0,0,0,,,,,,,,73,64
16128,note_on,0,,,0,0,0,,,,,,,,78,100
16128,note_on,0,,,0,0,0,,,,,,,,74,100
16128,note_on,0,,,0,0,0,,,,,,,,69,100
16128,note_on,0,,,1,0,0,,,,,,,,50,106
16128,note_on,0,,,2,0,0,,,,,,,,50,87
16512,note_off,384,,,0,0,0,,,,,,,,78,64
16512,note_off,0,,,0,0,0,,,,,,,,74,64
16512,note_off,0,,,0,0,0,,,,,,,,69,64
16512,note_off,0,,,1,0,0,,,,,,,,50,67
16512,note_off,0,,,2,0,0,,,,,,,,50,55
17280,note_on,768,,,1,0,0,,,,,,,,62,106
17468,note_off,188,,,1,0,0,,,,,,,,62,67
17856,note_on,388,,,1,0,0,,,,,,,,50,106
18044,note_off,188,,,1,0,0,,,,,,,,50,67
18432,note_on,388,,,1,0,0,,,,,,,,55,106
18620,note_off,188,,,1,0,0,,,,,,,,55,67
19008,note_on,388,,,1,0,0,,,,,,,,43,106
19196,note_off,188,,,1,0,0,,,,,,,,43,67
19584,note_on,388,,,1,0,0,,,,,,,,61,106
19772,note_off,188,,,1,0,0,,,,,,,,61,67
20160,note_on,388,,,1,0,0,,,,,,,,49,106
20348,note_off,188,,,1,0,0,,,,,,,,49,67
20736,note_on,388,,,1,0,0,,,,,,,,50,106
20924,note_off,188,,,1,0,0,,,,,,,,50,67
21312,note_on,388,,,1,0,0,,,,,,,,49,106
21500,note_off,188,,,1,0,0,,,,,,,,49,67
21888,note_on,388,,,1,0,0,,,,,,,,50,106
22076,note_off,188,,,1,0,0,,,,,,,,50,67
22464,note_on,388,,,1,0,0,,,,,,,,49,106
22652,note_off,188,,,1,0,0,,,,,,,,49,67
23040,note_on,388,,,1,0,0,,,,,,,,50,106
23296,note_off,256,,,1,0,0,,,,,,,,50,67
23424,note_on,128,,,1,0,0,,,,,,,,52,106
23552,note_off,128,,,1,0,0,,,,,,,,52,67
23616,note_on,64,,,1,0,0,,,,,,,,54,106
23872,note_off,256,,,1,0,0,,,,,,,,54,67
24000,note_on,128,,,1,0,0,,,,,,,,50,106
24128,note_off,128,,,1,0,0,,,,,,,,50,67
24192,note_on,64,,,1,0,0,,,,,,,,55,106
24576,note_off,384,,,1,0,0,,,,,,,,55,67
24768,note_on,192,,,1,0,0,,,,,,,,55,106
25152,note_off,384,,,1,0,0,,,,,,,,55,67
25344,note_on,192,,,1,0,0,,,,,,,,49,106
25532,note_off,188,,,1,0,0,,,,,,,,49,67
25920,note_on,388,,,1,0,0,,,,,,,,49,106
26108,note_off,188,,,1,0,0,,,,,,,,49,67
26496,note_on,388,,,1,0,0,,,,,,,,54,106
26684,note_off,188,,,1,0,0,,,,,,,,54,67
27072,note_on,388,,,1,0,0,,,,,,,,54,106
27260,note_off,188,,,1,0,0,,,,,,,,54,67
27648,note_on,388,,,1,0,0,,,,,,,,47,106
27836,note_off,188,,,1,0,0,,,,,,,,47,67
28224,note_on,388,,,1,0,0,,,,,,,,47,106
28412,note_off,188,,,1,0,0,,,,,,,,47,67
28800,note_on,388,,,1,0,0,,,,,,,,52,106
28988,note_off,188,,,1,0,0,,,,,,,,52,67
29376,note_on,388,,,1,0,0,,,,,,,,52,106
29564,note_off,188,,,1,0,0,,,,,,,,52,67
29952,note_on,388,,,1,0,0,,,,,,,,45,106
30140,note_off,188,,,1,0,0,,,,,,,,45,67
30528,note_on,388,,,1,0,0,,,,,,,,45,106
30716,note_off,188,,,1,0,0,,,,,,,,45,67
31104,note_on,388,,,1,0,0,,,,,,,,50,106
31360,note_off,256,,,1,0,0,,,,,,,,50,67
31488,note_on,128,,,1,0,0,,,,,,,,50,106
31616,note_off,128,,,1,0,0,,,,,,,,50,67
31680,note_on,64,,,1,0,0,,,,,,,,50,106
31936,note_off,256,,,1,0,0,,,,,,,,50,67
32064,note_on,128,,,1,0,0,,,,,,,,50,106
32192,note_off,128,,,1,0,0,,,,,,,,50,67
32256,note_on,64,,,0,0,0,,,,,,,,80,100
32256,note_on,0,,,0,0,0,,,,,,,,83,100
32256,note_on,0,,,0,0,0,,,,,,,,64,100
32256,note_on,0,,,1,0,0,,,,,,,,52,106
32256,note_on,0,,,2,0,0,,,,,,,,52,87
32384,note_off,128,,,0,0,0,,,,,,,,80,64
32384,note_off,0,,,0,0,0,,,,,,,,83,64
32384,note_off,0,,,0,0,0,,,,,,,,64,64
32384,note_off,0,,,1,0,0,,,,,,,,52,67
32384,note_off,0,,,2,0,0,,,,,,,,52,55
32448,note_on,64,,,0,0,0,,,,,,,,80,100
32448,note_on,0,,,0,0,0,,,,,,,,83,100
32448,note_on,0,,,0,0,0,,,,,,,,64,100
32448,note_on,0,,,1,0,0,,,,,,,,52,106
32448,note_on,0,,,2,0,0,,,,,,,,52,87
32576,note_off,128,,,0,0,0,,,,,,,,80,64
32576,note_off,0,,,0,0,0,,,,,,,,83,64
32576,note_off,0,,,0,0,0,,,,,,,,64,64
32576,note_off,0,,,1,0,0,,,,,,,,52,67
32576,note_off,0,,,2,0,0,,,,,,,,52,55
32640,note_on,64,,,0,0,0,,,,,,,,80,100
32640,note_on,0,,,0,0,0,,,,,,,,83,100
32640,note_on,0,,,0,0,0,,,,,,,,64,100
32640,note_on,0,,,1,0,0,,,,,,,,52,106
32640,note_on,0,,,2,0,0,,,,,,,,52,87
32768,note_off,128,,,0,0,0,,,,,,,,80,64
32768,note_off,0,,,0,0,0,,,,,,,,83,64
32768,note_off,0,,,0,0,0,,,,,,,,64,64
32768,note_off,0,,,1,0,0,,,,,,,,52,67
32768,note_off,0,,,2,0,0,,,,,,,,52,55
32832,note_on,64,,,0,0,0,,,,,,,,80,100
32832,note_on,0,,,0,0,0,,,,,,,,83,100
32832,note_on,0,,,0,0,0,,,,,,,,64,100
32832,note_on,0,,,1,0,0,,,,,,,,52,106
32832,note_on,0,,,2,0,0,,,,,,,,52,87
32960,note_off,128,,,0,0,0,,,,,,,,80,64
32960,note_off,0,,,0,0,0,,,,,,,,83,64
32960,note_off,0,,,0,0,0,,,,,,,,64,64
32960,note_off,0,,,1,0,0,,,,,,,,52,67
32960,note_off,0,,,2,0,0,,,,,,,,52,55
33024,note_on,64,,,0,0,0,,,,,,,,80,100
33024,note_on,0,,,0,0,0,,,,,,,,83,100
33024,note_on,0,,,0,0,0,,,,,,,,64,100
33024,note_on,0,,,1,0,0,,,,,,,,52,106
33024,note_on,0,,,2,0,0,,,,,,,,52,87
33152,note_off,128,,,0,0,0,,,,,,,,80,64
33152,note_off,0,,,0,0,0,,,,,,,,83,64
33152,note_off,0,,,0,0,0,,,,,,,,64,64
33152,note_off,0,,,1,0,0,,,,,,,,52,67
33152,note_off,0,,,2,0,0,,,,,,,,52,55
33216,note_on,64,,,0,0,0,,,,,,,,80,100
33216,note_on,0,,,0,0,0,,,,,,,,83,100
33216,note_on,0,,,0,0,0,,,,,,,,64,100
33216,note_on,0,,,1,0,0,,,,,,,,52,106
33216,note_on,0,,,2,0,0,,,,,,,,52,87
33344,note_off,128,,,0,0,0,,,,,,,,80,64
33344,note_off,0,,,0,0,0,,,,,,,,83,64
33344,note_off,0,,,0,0,0,,,,,,,,64,64
33344,note_off,0,,,1,0,0,,,,,,,,52,67
33344,note_off,0,,,2,0,0,,,,,,,,52,55
33408,note_on,64,,,0,0,0,,,,,,,,81,100
33408,note_on,0,,,0,0,0,,,,,,,,85,100
33408,note_on,0,,,0,0,0,,,,,,,,64,100
33408,note_on,0,,,1,0,0,,,,,,,,45,106
33408,note_on,0,,,2,0,0,,,,,,,,45,87
33536,note_off,128,,,0,0,0,,,,,,,,81,64
33536,note_off,0,,,0,0,0,,,,,,,,85,64
33536,note_off,0,,,0,0,0,,,,,,,,64,64
33536,note_off,0,,,1,0,0,,,,,,,,45,67
33536,note_off,0,,,2,0,0,,,,,,,,45,55
33600,note_on,64,,,0,0,0,,,,,,,,81,100
33600,note_on,0,,,0,0,0,,,,,,,,85,100
33600,note_on,0,,,0,0,0,,,,,,,,64,100
33600,note_on,0,,,1,0,0,,,,,,,,45,106
33600,note_on,0,,,2,0,0,,,,,,,,45,87
33728,note_off,128,,,0,0,0,,,,,,,,81,64
33728,note_off,0,,,0,0,0,,,,,,,,85,64
33728,note_off,0,,,0,0,0,,,,,,,,64,64
33728,note_off,0,,,1,0,0,,,,,,,,45,67
33728,note_off,0,,,2,0,0,,,,,,,,45,55
33792,note_on,64,,,0,0,0,,,,,,,,81,100
33792,note_on,0,,,0,0,0,,,,,,,,85,100
33792,note_on,0,,,0,0,0,,,,,,,,64,100
33792,note_on,0,,,1,0,0,,,,,,,,45,106
33792,note_on,0,,,2,0,0,,,,,,,,45,87
33920,note_off,128,,,0,0,0,,,,,,,,81,64
33920,note_off,0,,,0,0,0,,,,,,,,85,64
33920,note_off,0,,,0,0,0,,,,,,,,64,64
33920,note_off,0,,,1,0,0,,,,,,,,45,67
33920,note_off,0,,,2,0,0,,,,,,,,45,55
33984,note_on,64,,,0,0,0,,,,,,,,81,100
33984,note_on,0,,,0,0,0,,,,,,,,85,100
33984,note_on,0,,,0,0,0,,,,,,,,64,100
33984,note_on,0,,,1,0,0,,,,,,,,45,106
33984,note_on,0,,,2,0,0,,,,,,,,45,87
34112,note_off,128,,,0,0,0,,,,,,,,81,64
34112,note_off,0,,,0,0,0,,,,,,,,85,64
34112,note_off,0,,,0,0,0,,,,,,,,64,64
34112,note_off,0,,,1,0,0,,,,,,,,45,67
34112,note_off,0,,,2,0,0,,,,,,,,45,55
34176,note_on,64,,,0,0,0,,,,,,,,81,100
34176,note_on,0,,,0,0,0,,,,,,,,85,100
34176,note_on,0,,,0,0,0,,,,,,,,64,100
34176,note_on,0,,,1,0,0,,,,,,,,45,106
34176,note_on,0,,,2,0,0,,,,,,,,45,87
34304,note_off,128,,,0,0,0,,,,,,,,81,64
34304,note_off,0,,,0,0,0,,,,,,,,85,64
34304,note_off,0,,,0,0,0,,,,,,,,64,64
34304,note_off,0,,,1,0,0,,,,,,,,45,67
34304,note_off,0,,,2,0,0,,,,,,,,45,55
34368,note_on,64,,,0,0,0,,,,,,,,81,100
34368,note_on,0,,,0,0,0,,,,,,,,85,100
34368,note_on,0,,,0,0,0,,,,,,,,64,100
34368,note_on,0,,,1,0,0,,,,,,,,45,106
34368,note_on,0,,,2,0,0,,,,,,,,45,87
34496,note_off,128,,,0,0,0,,,,,,,,81,64
34496,note_off,0,,,0,0,0,,,,,,,,85,64
34496,note_off,0,,,0,0,0,,,,,,,,64,64
34496,note_off,0,,,1,0,0,,,,,,,,45,67
34496,note_off,0,,,2,0,0,,,,,,,,45,55
34560,note_on,64,,,0,0,0,,,,,,,,80,100
34560,note_on,0,,,0,0,0,,,,,,,,83,100
34560,note_on,0,,,0,0,0,,,,,,,,64,100
34560,note_on,0,,,1,0,0,,,,,,,,52,106
34560,note_on,0,,,2,0,0,,,,,,,,52,87
34688,note_off,128,,,0,0,0,,,,,,,,80,64
34688,note_off,0,,,0,0,0,,,,,,,,83,64
34688,note_off,0,,,0,0,0,,,,,,,,64,64
34688,note_off,0,,,1,0,0,,,,,,,,52,67
34688,note_off,0,,,2,0,0,,,,,,,,52,55
34752,note_on,64,,,0,0,0,,,,,,,,80,100
34752,note_on,0,,,0,0,0,,,,,,,,83,100
34752,note_on,0,,,0,0,0,,,,,,,,64,100
34752,note_on,0,,,1,0,0,,,,,,,,52,106
34752,note_on,0,,,2,0,0,,,,,,,,52,87
34880,note_off,128,,,0,0,0,,,,,,,,80,64
34880,note_off,0,,,0,0,0,,,,,,,,83,64
34880,note_off,0,,,0,0,0,,,,,,,,64,64
34880,note_off,0,,,1,0,0,,,,,,,,52,67
34880,note_off,0,,,2,0,0,,,,,,,,52,55
34944,note_on,64,,,0,0,0,,,,,,,,80,100
34944,note_on,0,,,0,0,0,,,,,,,,83,100
34944,note_on,0,,,0,0,0,,,,,,,,64,100
34944,note_on,0,,,1,0,0,,,,,,,,52,106
34944,note_on,0,,,2,0,0,,,,,,,,52,87
35072,note_off,128,,,0,0,0,,,,,,,,80,64
35072,note_off,0,,,0,0,0,,,,,,,,83,64
35072,note_off,0,,,0,0,0,,,,,,,,64,64
35072,note_off,0,,,1,0,0,,,,,,,,52,67
35072,note_off,0,,,2,0,0,,,,,,,,52,55
35136,note_on,64,,,0,0,0,,,,,,,,80,100
35136,note_on,0,,,0,0,0,,,,,,,,83,100
35136,note_on,0,,,0,0,0,,,,,,,,64,100
35136,note_on,0,,,1,0,0,,,,,,,,52,106
35136,note_on,0,,,2,0,0,,,,,,,,52,87
35264,note_off,128,,,0,0,0,,,,,,,,80,64
35264,note_off,0,,,0,0,0,,,,,,,,83,64
35264,note_off,0,,,0,0,0,,,,,,,,64,64
35264,note_off,0,,,1,0,0,,,,,,,,52,67
35264,note_off,0,,,2,0,0,,,,,,,,52,55
35328,note_on,64,,,0,0,0,,,,,,,,80,100
35328,note_on,0,,,0,0,0,,,,,,,,83,100
35328,note_on,0,,,0,0,0,,,,,,,,64,100
35328,note_on,0,,,1,0,0,,,,,,,,52,106
35328,note_on,0,,,2,0,0,,,,,,,,52,87
35456,note_off,128,,,0,0,0,,,,,,,,80,64
35456,note_off,0,,,0,0,0,,,,,,,,83,64
35456,note_off,0,,,0,0,0,,,,,,,,64,64
35456,note_off,0,,,1,0,0,,,,,,,,52,67
35456,note_off,0,,,2,0,0,,,,,,,,52,55
35520,note_on,64,,,0,0,0,,,,,,,,80,100
35520,note_on,0,,,0,0,0,,,,,,,,83,100
35520,note_on,0,,,0,0,0,,,,,,,,64,100
35520,note_on,0,,,1,0,0,,,,,,,,52,106
35520,note_on,0,,,2,0,0,,,,,,,,52,87
35648,note_off,128,,,0,0,0,,,,,,,,80,64
35648,note_off,0,,,0,0,0,,,,,,,,83,64
35648,note_off,0,,,0,0,0,,,,,,,,64,64
35648,note_off,0,,,1,0,0,,,,,,,,52,67
35648,note_off,0,,,2,0,0,,,,,,,,52,55
35712,note_on,64,,,0,0,0,,,,,,,,81,100
35712,note_on,0,,,0,0,0,,,,,,,,85,100
35712,note_on,0,,,0,0,0,,,,,,,,64,100
35712,note_on,0,,,1,0,0,,,,,,,,45,106
35712,note_on,0,,,2,0,0,,,,,,,,45,87
35840,note_off,128,,,0,0,0,,,,,,,,81,64
35840,note_off,0,,,0,0,0,,,,,,,,85,64
35840,note_off,0,,,0,0,0,,,,,,,,64,64
35840,note_off,0,,,1,0,0,,,,,,,,45,67
35840,note_off,0,,,2,0,0,,,,,,,,45,55
35904,note_on,64,,,0,0,0,,,,,,,,81,100
35904,note_on,0,,,0,0,0,,,,,,,,85,100
35904,note_on,0,,,0,0,0,,,,,,,,64,100
35904,note_on,0,,,1,0,0,,,,,,,,45,106
35904,note_on,0,,,2,0,0,,,,,,,,45,87
36032,note_off,128,,,0,0,0,,,,,,,,81,64
36032,note_off,0,,,0,0,0,,,,,,,,85,64
36032,note_off,0,,,0,0,0,,,,,,,,64,64
36032,note_off,0,,,1,0,0,,,,,,,,45,67
36032,note_off,0,,,2,0,0,,,,,,,,45,55
36096,note_on,64,,,0,0,0,,,,,,,,81,100
36096,note_on,0,,,0,0,0,,,,,,,,85,100
36096,note_on,0,,,0,0,0,,,,,,,,64,100
36096,note_on,0,,,1,0,0,,,,,,,,45,106
36096,note_on,0,,,2,0,0,,,,,,,,45,87
36224,note_off,128,,,0,0,0,,,,,,,,81,64
36224,note_off,0,,,0,0,0,,,,,,,,85,64
36224,note_off,0,,,0,0,0,,,,,,,,64,64
36224,note_off,0,,,1,0,0,,,,,,,,45,67
36224,note_off,0,,,2,0,0,,,,,,,,45,55
36288,note_on,64,,,0,0,0,,,,,,,,81,100
36288,note_on,0,,,0,0,0,,,,,,,,85,100
36288,note_on,0,,,0,0,0,,,,,,,,64,100
36288,note_on,0,,,1,0,0,,,,,,,,45,106
36288,note_on,0,,,2,0,0,,,,,,,,45,87
36416,note_off,128,,,0,0,0,,,,,,,,81,64
36416,note_off,0,,,0,0,0,,,,,,,,85,64
36416,note_off,0,,,0,0,0,,,,,,,,64,64
36416,note_off,0,,,1,0,0,,,,,,,,45,67
36416,note_off,0,,,2,0,0,,,,,,,,45,55
36480,note_on,64,,,0,0,0,,,,,,,,81,100
36480,note_on,0,,,0,0,0,,,,,,,,85,100
36480,note_on,0,,,0,0,0,,,,,,,,64,100
36480,note_on,0,,,1,0,0,,,,,,,,45,106
36480,note_on,0,,,2,0,0,,,,,,,,45,87
36608,note_off,128,,,0,0,0,,,,,,,,81,64
36608,note_off,0,,,0,0,0,,,,,,,,85,64
36608,note_off,0,,,0,0,0,,,,,,,,64,64
36608,note_off,0,,,1,0,0,,,,,,,,45,67
36608,note_off,0,,,2,0,0,,,,,,,,45,55
36672,note_on,64,,,0,0,0,,,,,,,,81,100
36672,note_on,0,,,0,0,0,,,,,,,,85,100
36672,note_on,0,,,0,0,0,,,,,,,,64,100
36672,note_on,0,,,1,0,0,,,,,,,,45,106
36672,note_on,0,,,2,0,0,,,,,,,,45,87
36800,note_off,128,,,0,0,0,,,,,,,,81,64
36800,note_off,0,,,0,0,0,,,,,,,,85,64
36800,note_off,0,,,0,0,0,,,,,,,,64,64
36800,note_off,0,,,1,0,0,,,,,,,,45,67
36800,note_off,0,,,2,0,0,,,,,,,,45,55
36864,note_on,64,,,0,0,0,,,,,,,,80,100
36864,note_on,0,,,0,0,0,,,,,,,,83,100
36864,note_on,0,,,0,0,0,,,,,,,,64,100
36864,note_on,0,,,1,0,0,,,,,,,,52,106
36864,note_on,0,,,2,0,0,,,,,,,,52,87
36992,note_off,128,,,0,0,0,,,,,,,,80,64
36992,note_off,0,,,0,0,0,,,,,,,,83,64
36992,note_off,0,,,0,0,0,,,,,,,,64,64
36992,note_off,0,,,1,0,0,,,,,,,,52,67
36992,note_off,0,,,2,0,0,,,,,,,,52,55
37056,note_on,64,,,0,0,0,,,,,,,,80,100
37056,note_on,0,,,0,0,0,,,,,,,,83,100
37056,note_on,0,,,0,0,0,,,,,,,,64,100
37056,note_on,0,,,1,0,0,,,,,,,,52,106
37056,note_on,0,,,2,0,0,,,,,,,,52,87
37184,note_off,128,,,0,0,0,,,,,,,,80,64
37184,note_off,0,,,0,0,0,,,,,,,,83,64
37184,note_off,0,,,0,0,0,,,,,,,,64,64
37184,note_off,0,,,1,0,0,,,,,,,,52,67
37184,note_off,0,,,2,0,0,,,,,,,,52,55
37248,note_on,64,,,0,0,0,,,,,,,,80,100
37248,note_on,0,,,0,0,0,,,,,,,,83,100
37248,note_on,0,,,0,0,0,,,,,,,,64,100
37248,note_on,0,,,1,0,0,,,,,,,,52,106
37248,note_on,0,,,2,0,0,,,,,,,,52,87
37376,note_off,128,,,0,0,0,,,,,,,,80,64
37376,note_off,0,,,0,0,0,,,,,,,,83,64
37376,note_off,0,,,0,0,0,,,,,,,,64,64
37376,note_off,0,,,1,0,0,,,,,,,,52,67
37376,note_off,0,,,2,0,0,,,,,,,,52,55
37440,note_on,64,,,0,0,0,,,,,,,,80,100
37440,note_on,0,,,0,0,0,,,,,,,,83,100
37440,note_on,0,,,0,0,0,,,,,,,,64,100
37440,note_on,0,,,1,0,0,,,,,,,,52,106
37440,note_on,0,,,2,0,0,,,,,,,,52,87
37568,note_off,128,,,0,0,0,,,,,,,,80,64
37568,note_off,0,,,0,0,0,,,,,,,,83,64
37568,note_off,0,,,0,0,0,,,,,,,,64,64
37568,note_off,0,,,1,0,0,,,,,,,,52,67
37568,note_off,0,,,2,0,0,,,,,,,,52,55
37632,note_on,64,,,0,0,0,,,,,,,,80,100
37632,note_on,0,,,0,0,0,,,,,,,,83,100
37632,note_on,0,,,0,0,0,,,,,,,,64,100
37632,note_on,0,,,1,0,0,,,,,,,,52,106
37632,note_on,0,,,2,0,0,,,,,,,,52,87
37760,note_off,128,,,0,0,0,,,,,,,,80,64
37760,note_off,0,,,0,0,0,,,,,,,,83,64
37760,note_off,0,,,0,0,0,,,,,,,,64,64
37760,note_off,0,,,1,0,0,,,,,,,,52,67
37760,note_off,0,,,2,0,0,,,,,,,,52,55
37824,note_on,64,,,0,0,0,,,,,,,,80,100
37824,note_on,0,,,0,0,0,,,,,,,,83,100
37824,note_on,0,,,0,0,0,,,,,,,,64,100
37824,note_on,0,,,1,0,0,,,,,,,,52,106
37824,note_on,0,,,2,0,0,,,,,,,,52,87
37952,note_off,128,,,0,0,0,,,,,,,,80,64
37952,note_off,0,,,0,0,0,,,,,,,,83,64
37952,note_off,0,,,0,0,0,,,,,,,,64,64
37952,note_off,0,,,1,0,0,,,,,,,,52,67
37952,note_off,0,,,2,0,0,,,,,,,,52,55
38016,note_on,64,,,0,0,0,,,,,,,,81,100
38016,note_on,0,,,0,0,0,,,,,,,,81,100
38016,note_on,0,,,0,0,0,,,,,,,,64,100
38016,note_on,0,,,1,0,0,,,,,,,,45,106
38016,note_on,0,,,2,0,0,,,,,,,,45,87
38784,note_off,768,,,0,0,0,,,,,,,,81,64
38784,note_off,0,,,0,0,0,,,,,,,,81,64
38784,note_off,0,,,0,0,0,,,,,,,,64,64
38784,note_off,0,,,1,0,0,,,,,,,,45,67
38784,note_off,0,,,2,0,0,,,,,,,,45,55
39168,note_on,384,,,0,0,0,,,,,,,,78,100
39168,note_on,0,,,0,0,0,,,,,,,,74,100
39168,note_on,0,,,0,0,0,,,,,,,,69,100
39168,note_on,0,,,1,0,0,,,,,,,,50,106
39168,note_on,0,,,2,0,0,,,,,,,,50,87
39356,note_off,188,,,0,0,0,,,,,,,,78,64
39356,note_off,0,,,0,0,0,,,,,,,,74,64
39356,note_off,0,,,0,0,0,,,,,,,,69,64
39360,note_on,4,,,0,0,0,,,,,,,,81,100
39360,note_on,0,,,0,0,0,,,,,,,,78,100
39360,note_on,0,,,0,0,0,,,,,,,,66,100
39488,note_off,128,,,0,0,0,,,,,,,,81,64
39488,note_off,0,,,0,0,0,,,,,,,,78,64
39488,note_off,0,,,0,0,0,,,,,,,,66,64
39552,note_on,64,,,0,0,0,,,,,,,,78,100
39552,note_on,0,,,0,0,0,,,,,,,,74,100
39552,note_on,0,,,0,0,0,,,,,,,,69,100
39552,note_off,0,,,1,0,0,,,,,,,,50,67
39552,note_off,0,,,2,0,0,,,,,,,,50,55
39680,note_off,128,,,0,0,0,,,,,,,,78,64
39680,note_off,0,,,0,0,0,,,,,,,,74,64
39680,note_off,0,,,0,0,0,,,,,,,,69,64
39744,note_on,64,,,0,0,0,,,,,,,,76,100
39744,note_on,0,,,0,0,0,,,,,,,,73,100
39744,note_on,0,,,0,0,0,,,,,,,,69,100
39744,note_on,0,,,1,0,0,,,,,,,,45,106
39744,note_on,0,,,2,0,0,,,,,,,,45,87
39932,note_off,188,,,0,0,0,,,,,,,,76,64
39932,note_off,0,,,0,0,0,,,,,,,,73,64
39932,note_off,0,,,0,0,0,,,,,,,,69,64
39936,note_on,4,,,0,0,0,,,,,,,,81,100
39936,note_on,0,,,0,0,0,,,,,,,,76,100
39936,note_on,0,,,0,0,0,,,,,,,,64,100
40064,note_off,128,,,0,0,0,,,,,,,,76,64
40064,note_off,0,,,0,0,0,,,,,,,,64,64
40124,note_off,60,,,0,0,0,,,,,,,,81,64
40128,note_on,4,,,0,0,0,,,,,,,,76,100
40128,note_on,0,,,0,0,0,,,,,,,,73,100
40128,note_on,0,,,0,0,0,,,,,,,,69,100
40128,note_off,0,,,1,0,0,,,,,,,,45,67
40128,note_off,0,,,2,0,0,,,,,,,,45,55
40256,note_off,128,,,0,0,0,,,,,,,,73,64
40256,note_off,0,,,0,0,0,,,,,,,,69,64
40316,note_off,60,,,0,0,0,,,,,,,,76,64
40320,note_on,4,,,0,0,0,,,,,,,,78,100
40320,note_on,0,,,0,0,0,,,,,,,,74,100
40320,note_on,0,,,0,0,0,,,,,,,,69,100
40320,note_on,0,,,1,0,0,,,,,,,,50,106
40320,note_on,0,,,2,0,0,,,,,,,,50,87
40508,note_off,188,,,0,0,0,,,,,,,,78,64
40508,note_off,0,,,0,0,0,,,,,,,,74,64
40508,note_off,0,,,0,0,0,,,,,,,,69,64
40512,note_on,4,,,0,0,0,,,,,,,,81,100
40512,note_on,0,,,0,0,0,,,,,,,,78,100
40512,note_on,0,,,0,0,0,,,,,,,,66,100
40640,note_off,128,,,0,0,0,,,,,,,,81,64
40640,note_off,0,,,0,0,0,,,,,,,,78,64
40640,note_off,0,,,0,0,0,,,,,,,,66,64
40704,note_on,64,,,0,0,0,,,,,,,,78,100
40704,note_on,0,,,0,0,0,,,,,,,,74,100
40704,note_on,0,,,0,0,0,,,,,,,,69,100
40704,note_off,0,,,1,0,0,,,,,,,,50,67
40704,note_off,0,,,2,0,0,,,,,,,,50,55
40832,note_off,128,,,0,0,0,,,,,,,,78,64
40832,note_off,0,,,0,0,0,,,,,,,,74,64
40832,note_off,0,,,0,0,0,,,,,,,,69,64
40896,note_on,64,,,0,0,0,,,,,,,,76,100
40896,note_on,0,,,0,0,0,,,,,,,,73,100
40896,note_on,0,,,0,0,0,,,,,,,,69,100
40896,note_on,0,,,1,0,0,,,,,,,,45,106
40896,note_on,0,,,2,0,0,,,,,,,,45,87
41084,note_off,188,,,0,0,0,,,,,,,,76,64
41084,note_off,0,,,0,0,0,,,,,,,,73,64
41084,note_off,0,,,0,0,0,,,,,,,,69,64
41088,note_on,4,,,0,0,0,,,,,,,,81,100
41088,note_on,0,,,0,0,0,,,,,,,,76,100
41088,note_on,0,,,0,0,0,,,,,,,,64,100
41216,note_off,128,,,0,0,0,,,,,,,,76,64
41216,note_off,0,,,0,0,0,,,,,,,,64,64
41276,note_off,60,,,0,0,0,,,,,,,,81,64
41280,note_on,4,,,0,0,0,,,,,,,,76,100
41280,note_on,0,,,0,0,0,,,,,,,,73,100
41280,note_on,0,,,0,0,0,,,,,,,,69,100
41280,note_off,0,,,1,0,0,,,,,,,,45,67
41280,note_off,0,,,2,0,0,,,,,,,,45,55
41408,note_off,128,,,0,0,0,,,,,,,,73,64
41408,note_off,0,,,0,0,0,,,,,,,,69,64
41468,note_off,60,,,0,0,0,,,,,,,,76,64
41472,note_on,4,,,0,0,0,,,,,,,,78,100
41472,note_on,0,,,0,0,0,,,,,,,,74,100
41472,note_on,0,,,0,0,0,,,,,,,,69,100
41472,note_on,0,,,1,0,0,,,,,,,,50,106
41472,note_on,0,,,2,0,0,,,,,,,,50,87
41660,note_off,188,,,0,0,0,,,,,,,,78,64
41660,note_off,0,,,0,0,0,,,,,,,,74,64
41660,note_off,0,,,0,0,0,,,,,,,,69,64
41664,note_on,4,,,0,0,0,,,,,,,,81,100
41664,note_on,0,,,0,0,0,,,,,,,,78,100
41664,note_on,0,,,0,0,0,,,,,,,,66,100
41792,note_off,128,,,0,0,0,,,,,,,,81,64
41792,note_off,0,,,0,0,0,,,,,,,,78,64
41792,note_off,0,,,0,0,0,,,,,,,,66,64
41856,note_on,64,,,0,0,0,,,,,,,,78,100
41856,note_on,0,,,0,0,0,,,,,,,,74,100
41856,note_on,0,,,0,0,0,,,,,,,,69,100
41856,note_off,0,,,1,0,0,,,,,,,,50,67
41856,note_off,0,,,2,0,0,,,,,,,,50,55
41984,note_off,128,,,0,0,0,,,,,,,,78,64
41984,note_off,0,,,0,0,0,,,,,,,,74,64
41984,note_off,0,,,0,0,0,,,,,,,,69,64
42048,note_on,64,,,0,0,0,,,,,,,,78,100
42048,note_on,0,,,0,0,0,,,,,,,,74,100
42048,note_on,0,,,0,0,0,,,,,,,,69,100
42048,note_on,0,,,1,0,0,,,,,,,,38,106
42048,note_on,0,,,2,0,0,,,,,,,,38,87
42236,note_off,188,,,0,0,0,,,,,,,,78,64
42236,note_off,0,,,0,0,0,,,,,,,,74,64
42236,note_off,0,,,0,0,0,,,,,,,,69,64
42240,note_on,4,,,0,0,0,,,,,,,,81,100
42240,note_on,0,,,0,0,0,,,,,,,,78,100
42240,note_on,0,,,0,0,0,,,,,,,,66,100
42368,note_off,128,,,0,0,0,,,,,,,,81,64
42368,note_off,0,,,0,0,0,,,,,,,,78,64
42368,note_off,0,,,0,0,0,,,,,,,,66,64
42432,note_on,64,,,0,0,0,,,,,,,,78,100
42432,note_on,0,,,0,0,0,,,,,,,,74,100
42432,note_on,0,,,0,0,0,,,,,,,,69,100
42432,note_off,0,,,1,0,0,,,,,,,,38,67
42432,note_off,0,,,2,0,0,,,,,,,,38,55
42560,note_off,128,,,0,0,0,,,,,,,,78,64
42560,note_off,0,,,0,0,0,,,,,,,,74,64
42560,note_off,0,,,0,0,0,,,,,,,,69,64
42624,note_on,64,,,0,0,0,,,,,,,,76,100
42624,note_on,0,,,0,0,0,,,,,,,,73,100
42624,note_on,0,,,0,0,0,,,,,,,,64,100
42624,note_on,0,,,1,0,0,,,,,,,,45,106
42624,note_on,0,,,2,0,0,,,,,,,,45,87
42880,note_off,256,,,1,0,0,,,,,,,,45,67
42880,note_off,0,,,2,0,0,,,,,,,,45,55
43008,note_off,128,,,0,0,0,,,,,,,,76,64
43008,note_off,0,,,0,0,0,,,,,,,,73,64
43008,note_off,0,,,0,0,0,,,,,,,,64,64
43008,note_on,0,,,1,0,0,,,,,,,,57,106
43008,note_on,0,,,2,0,0,,,,,,,,57,87
43136,note_off,128,,,1,0,0,,,,,,,,57,67
43136,note_off,0,,,2,0,0,,,,,,,,57,55
43200,note_on,64,,,1,0,0,,,,,,,,52,106
43200,note_on,0,,,2,0,0,,,,,,,,52,87
43456,note_off,256,,,1,0,0,,,,,,,,52,67
43456,note_off,0,,,2,0,0,,,,,,,,52,55
43584,note_on,128,,,0,0,0,,,,,,,,76,100
43584,note_on,0,,,0,0,0,,,,,,,,73,100
43584,note_on,0,,,0,0,0,,,,,,,,64,100
43584,note_on,0,,,1,0,0,,,,,,,,45,106
43584,note_on,0,,,2,0,0,,,,,,,,45,87
43712,note_off,128,,,0,0,0,,,,,,,,76,64
43712,note_off,0,,,1,0,0,,,,,,,,45,67
43712,note_off,0,,,2,0,0,,,,,,,,45,55
43776,note_off,64,,,0,0,0,,,,,,,,73,64
43776,note_off,0,,,0,0,0,,,,,,,,64,64
43776,note_on,0,,,0,0,0,,,,,,,,78,100
43776,note_on,0,,,0,0,0,,,,,,,,74,100
43776,note_on,0,,,0,0,0,,,,,,,,69,100
43776,note_on,0,,,1,0,0,,,,,,,,50,106
43776,note_on,0,,,2,0,0,,,,,,,,50,87
43964,note_off,188,,,0,0,0,,,,,,,,78,64
43964,note_off,0,,,0,0,0,,,,,,,,74,64
43964,note_off,0,,,0,0,0,,,,,,,,69,64
43968,note_on,4,,,0,0,0,,,,,,,,81,100
43968,note_on,0,,,0,0,0,,,,,,,,78,100
43968,note_on,0,,,0,0,0,,,,,,,,66,100
44096,note_off,128,,,0,0,0,,,,,,,,81,64
44096,note_off,0,,,0,0,0,,,,,,,,78,64
44096,note_off,0,,,0,0,0,,,,,,,,66,64
44160,note_on,64,,,0,0,0,,,,,,,,78,100
44160,note_on,0,,,0,0,0,,,,,,,,74,100
44160,note_on,0,,,0,0,0,,,,,,,,69,100
44160,note_off,0,,,1,0,0,,,,,,,,50,67
44160,note_off,0,,,2,0,0,,,,,,,,50,55
44288,note_off,128,,,0,0,0,,,,,,,,78,64
44288,note_off,0,,,0,0,0,,,,,,,,74,64
44288,note_off,0,,,0,0,0,,,,,,,,69,64
44352,note_on,64,,,0,0,0,,,,,,,,78,100
44352,note_on,0,,,0,0,0,,,,,,,,74,100
44352,note_on,0,,,0,0,0,,,,,,,,69,100
44352,note_on,0,,,1,0,0,,,,,,,,50,106
44352,note_on,0,,,2,0,0,,,,,,,,50,87
44540,note_off,188,,,0,0,0,,,,,,,,78,64
44540,note_off,0,,,0,0,0,,,,,,,,74,64
44540,note_off,0,,,0,0,0,,,,,,,,69,64
44544,note_on,4,,,0,0,0,,,,,,,,81,100
44544,note_on,0,,,0,0,0,,,,,,,,78,100
44544,note_on,0,,,0,0,0,,,,,,,,66,100
44672,note_off,128,,,0,0,0,,,,,,,,81,64
44672,note_off,0,,,0,0,0,,,,,,,,78,64
44672,note_off,0,,,0,0,0,,,,,,,,66,64
44736,note_on,64,,,0,0,0,,,,,,,,78,100
44736,note_on,0,,,0,0,0,,,,,,,,74,100
44736,note_on,0,,,0,0,0,,,,,,,,69,100
44736,note_off,0,,,1,0,0,,,,,,,,50,67
44736,note_off,0,,,2,0,0,,,,,,,,50,55
44864,note_off,128,,,0,0,0,,,,,,,,78,64
44864,note_off,0,,,0,0,0,,,,,,,,74,64
44864,note_off,0,,,0,0,0,,,,,,,,69,64
44928,note_on,64,,,0,0,0,,,,,,,,78,100
44928,note_on,0,,,0,0,0,,,,,,,,74,100
44928,note_on,0,,,0,0,0,,,,,,,,71,100
44928,note_on,0,,,1,0,0,,,,,,,,50,106
44928,note_on,0,,,2,0,0,,,,,,,,50,87
45116,note_off,188,,,0,0,0,,,,,,,,78,64
45116,note_off,0,,,0,0,0,,,,,,,,74,64
45116,note_off,0,,,0,0,0,,,,,,,,71,64
45120,note_on,4,,,0,0,0,,,,,,,,83,100
45120,note_on,0,,,0,0,0,,,,,,,,78,100
45120,note_on,0,,,0,0,0,,,,,,,,66,100
45248,note_off,128,,,0,0,0,,,,,,,,83,64
45248,note_off,0,,,0,0,0,,,,,,,,78,64
45248,note_off,0,,,0,0,0,,,,,,,,66,64
45312,note_on,64,,,0,0,0,,,,,,,,78,100
45312,note_on,0,,,0,0,0,,,,,,,,74,100
45312,note_on,0,,,0,0,0,,,,,,,,71,100
45312,note_off,0,,,1,0,0,,,,,,,,50,67
45312,note_off,0,,,2,0,0,,,,,,,,50,55
45440,note_off,128,,,0,0,0,,,,,,,,78,64
45440,note_off,0,,,0,0,0,,,,,,,,74,64
45440,note_off,0,,,0,0,0,,,,,,,,71,64
45504,note_on,64,,,0,0,0,,,,,,,,78,100
45504,note_on,0,,,0,0,0,,,,,,,,74,100
45504,note_on,0,,,0,0,0,,,,,,,,71,100
45504,note_on,0,,,1,0,0,,,,,,,,50,106
45504,note_on,0,,,2,0,0,,,,,,,,50,87
45692,note_off,188,,,0,0,0,,,,,,,,78,64
45692,note_off,0,,,0,0,0,,,,,,,,74,64
45692,note_off,0,,,0,0,0,,,,,,,,71,64
45696,note_on,4,,,0,0,0,,,,,,,,83,100
45696,note_on,0,,,0,0,0,,,,,,,,78,100
45696,note_on,0,,,0,0,0,,,,,,,,66,100
45824,note_off,128,,,0,0,0,,,,,,,,83,64
45824,note_off,0,,,0,0,0,,,,,,,,78,64
45824,note_off,0,,,0,0,0,,,,,,,,66,64
45888,note_on,64,,,0,0,0,,,,,,,,78,100
45888,note_on,0,,,0,0,0,,,,,,,,74,100
45888,note_on,0,,,0,0,0,,,,,,,,71,100
45888,note_off,0,,,1,0,0,,,,,,,,50,67
45888,note_off,0,,,2,0,0,,,,,,,,50,55
46016,note_off,128,,,0,0,0,,,,,,,,78,64
46016,note_off,0,,,0,0,0,,,,,,,,74,64
46016,note_off,0,,,0,0,0,,,,,,,,71,64
46080,note_on,64,,,0,0,0,,,,,,,,76,100
46080,note_on,0,,,0,0,0,,,,,,,,79,100
46080,note_on,0,,,0,0,0,,,,,,,,67,100
46080,note_on,0,,,1,0,0,,,,,,,,49,106
46080,note_on,0,,,2,0,0,,,,,,,,49,87
46268,note_off,188,,,0,0,0,,,,,,,,76,64
46268,note_off,0,,,0,0,0,,,,,,,,79,64
46268,note_off,0,,,0,0,0,,,,,,,,67,64
46272,note_on,4,,,0,0,0,,,,,,,,79,100
46272,note_on,0,,,0,0,0,,,,,,,,83,100
46272,note_on,0,,,0,0,0,,,,,,,,64,100
46400,note_off,128,,,0,0,0,,,,,,,,79,64
46400,note_off,0,,,0,0,0,,,,,,,,83,64
46400,note_off,0,,,0,0,0,,,,,,,,64,64
46464,note_on,64,,,0,0,0,,,,,,,,76,100
46464,note_on,0,,,0,0,0,,,,,,,,79,100
46464,note_on,0,,,0,0,0,,,,,,,,67,100
46464,note_off,0,,,1,0,0,,,,,,,,49,67
46464,note_off,0,,,2,0,0,,,,,,,,49,55
46592,note_off,128,,,0,0,0,,,,,,,,76,64
46592,note_off,0,,,0,0,0,,,,,,,,79,64
46592,note_off,0,,,0,0,0,,,,,,,,67,64
46656,note_on,64,,,0,0,0,,,,,,,,76,100
46656,note_on,0,,,0,0,0,,,,,,,,79,100
46656,note_on,0,,,0,0,0,,,,,,,,67,100
46656,note_on,0,,,1,0,0,,,,,,,,49,106
46656,note_on,0,,,2,0,0,,,,,,,,49,87
46844,note_off,188,,,0,0,0,,,,,,,,76,64
46844,note_off,0,,,0,0,0,,,,,,,,79,64
46844,note_off,0,,,0,0,0,,,,,,,,67,64
46848,note_on,4,,,0,0,0,,,,,,,,79,100
46848,note_on,0,,,0,0,0,,,,,,,,83,100
46848,note_on,0,,,0,0,0,,,,,,,,64,100
46976,note_off,128,,,0,0,0,,,,,,,,79,64
46976,note_off,0,,,0,0,0,,,,,,,,83,64
46976,note_off,0,,,0,0,0,,,,,,,,64,64
47040,note_on,64,,,0,0,0,,,,,,,,76,100
47040,note_on,0,,,0,0,0,,,,,,,,79,100
47040,note_on,0,,,0,0,0,,,,,,,,67,100
47040,note_off,0,,,1,0,0,,,,,,,,49,67
47040,note_off,0,,,2,0,0,,,,,,,,49,55
47168,note_off,128,,,0,0,0,,,,,,,,76,64
47168,note_off,0,,,0,0,0,,,,,,,,79,64
47168,note_off,0,,,0,0,0,,,,,,,,67,64
47232,note_on,64,,,0,0,0,,,,,,,,76,100
47232,note_on,0,,,0,0,0,,,,,,,,73,100
47232,note_on,0,,,0,0,0,,,,,,,,69,100
47232,note_on,0,,,1,0,0,,,,,,,,49,106
47232,note_on,0,,,2,0,0,,,,,,,,49,87
47420,note_off,188,,,0,0,0,,,,,,,,76,64
47420,note_off,0,,,0,0,0,,,,,,,,73,64
47420,note_off,0,,,0,0,0,,,,,,,,69,64
47424,note_on,4,,,0,0,0,,,,,,,,81,100
47424,note_on,0,,,0,0,0,,,,,,,,76,100
47424,note_on,0,,,0,0,0,,,,,,,,64,100
47552,note_off,128,,,0,0,0,,,,,,,,81,64
47552,note_off,0,,,0,0,0,,,,,,,,76,64
47552,note_off,0,,,0,0,0,,,,,,,,64,64
47616,note_on,64,,,0,0,0,,,,,,,,76,100
47616,note_on,0,,,0,0,0,,,,,,,,73,100
47616,note_on,0,,,0,0,0,,,,,,,,69,100
47616,note_off,0,,,1,0,0,,,,,,,,49,67
47616,note_off,0,,,2,0,0,,,,,,,,49,55
47744,note_off,128,,,0,0,0,,,,,,,,76,64
47744,note_off,0,,,0,0,0,,,,,,,,73,64
47744,note_off,0,,,0,0,0,,,,,,,,69,64
47808,note_on,64,,,0,0,0,,,,,,,,76,100
47808,note_on,0,,,0,0,0,,,,,,,,73,100
47808,note_on,0,,,0,0,0,,,,,,,,69,100
47808,note_on,0,,,1,0,0,,,,,,,,49,106
47808,note_on,0,,,2,0,0,,,,,,,,49,87
47996,note_off,188,,,0,0,0,,,,,,,,76,64
47996,note_off,0,,,0,0,0,,,,,,,,73,64
47996,note_off,0,,,0,0,0,,,,,,,,69,64
48000,note_on,4,,,0,0,0,,,,,,,,81,100
48000,note_on,0,,,0,0,0,,,,,,,,76,100
48000,note_on,0,,,0,0,0,,,,,,,,64,100
48128,note_off,128,,,0,0,0,,,,,,,,81,64
48128,note_off,0,,,0,0,0,,,,,,,,76,64
48128,note_off,0,,,0,0,0,,,,,,,,64,64
48192,note_on,64,,,0,0,0,,,,,,,,76,100
48192,note_on,0,,,0,0,0,,,,,,,,73,100
48192,note_on,0,,,0,0,0,,,,,,,,69,100
48192,note_off,0,,,1,0,0,,,,,,,,49,67
48192,note_off,0,,,2,0,0,,,,,,,,49,55
48320,note_off,128,,,0,0,0,,,,,,,,76,64
48320,note_off,0,,,0,0,0,,,,,,,,73,64
48320,note_off,0,,,0,0,0,,,,,,,,69,64
48384,note_on,64,,,0,0,0,,,,,,,,74,100
48384,note_on,0,,,0,0,0,,,,,,,,78,100
48384,note_on,0,,,0,0,0,,,,,,,,66,100
48384,note_on,0,,,1,0,0,,,,,,,,47,106
48384,note_on,0,,,2,0,0,,,,,,,,47,87
48572,note_off,188,,,0,0,0,,,,,,,,74,64
48572,note_off,0,,,0,0,0,,,,,,,,78,64
48572,note_off,0,,,0,0,0,,,,,,,,66,64
48576,note_on,4,,,0,0,0,,,,,,,,78,100
48576,note_on,0,,,0,0,0,,,,,,,,81,100
48576,note_on,0,,,0,0,0,,,,,,,,62,100
48704,note_off,128,,,0,0,0,,,,,,,,78,64
48704,note_off,0,,,0,0,0,,,,,,,,81,64
48704,note_off,0,,,0,0,0,,,,,,,,62,64
48768,note_on,64,,,0,0,0,,,,,,,,74,100
48768,note_on,0,,,0,0,0,,,,,,,,78,100
48768,note_on,0,,,0,0,0,,,,,,,,66,100
48768,note_off,0,,,1,0,0,,,,,,,,47,67
48768,note_off,0,,,2,0,0,,,,,,,,47,55
48896,note_off,128,,,0,0,0,,,,,,,,74,64
48896,note_off,0,,,0,0,0,,,,,,,,78,64
48896,note_off,0,,,0,0,0,,,,,,,,66,64
48960,note_on,64,,,0,0,0,,,,,,,,74,100
48960,note_on,0,,,0,0,0,,,,,,,,78,100
48960,note_on,0,,,0,0,0,,,,,,,,66,100
48960,note_on,0,,,1,0,0,,,,,,,,47,106
48960,note_on,0,,,2,0,0,,,,,,,,47,87
49148,note_off,188,,,0,0,0,,,,,,,,74,64
49148,note_off,0,,,0,0,0,,,,,,,,78,64
49148,note_off,0,,,0,0,0,,,,,,,,66,64
49152,note_on,4,,,0,0,0,,,,,,,,78,100
49152,note_on,0,,,0,0,0,,,,,,,,81,100
49152,note_on,0,,,0,0,0,,,,,,,,62,100
49280,note_off,128,,,0,0,0,,,,,,,,78,64
49280,note_off,0,,,0,0,0,,,,,,,,81,64
49280,note_off,0,,,0,0,0,,,,,,,,62,64
49344,note_on,64,,,0,0,0,,,,,,,,74,100
49344,note_on,0,,,0,0,0,,,,,,,,78,100
49344,note_on,0,,,0,0,0,,,,,,,,66,100
49344,note_off,0,,,1,0,0,,,,,,,,47,67
49344,note_off,0,,,2,0,0,,,,,,,,47,55
49472,note_off,128,,,0,0,0,,,,,,,,74,64
49472,note_off,0,,,0,0,0,,,,,,,,78,64
49472,note_off,0,,,0,0,0,,,,,,,,66,64
49536,note_on,64,,,0,0,0,,,,,,,,74,100
49536,note_on,0,,,0,0,0,,,,,,,,71,100
49536,note_on,0,,,0,0,0,,,,,,,,67,100
49536,note_on,0,,,1,0,0,,,,,,,,47,106
49536,note_on,0,,,2,0,0,,,,,,,,47,87
49724,note_off,188,,,0,0,0,,,,,,,,74,64
49724,note_off,0,,,0,0,0,,,,,,,,71,64
49724,note_off,0,,,0,0,0,,,,,,,,67,64
49728,note_on,4,,,0,0,0,,,,,,,,79,100
49728,note_on,0,,,0,0,0,,,,,,,,74,100
49728,note_on,0,,,0,0,0,,,,,,,,62,100
49856,note_off,128,,,0,0,0,,,,,,,,79,64
49856,note_off,0,,,0,0,0,,,,,,,,74,64
49856,note_off,0,,,0,0,0,,,,,,,,62,64
49920,note_on,64,,,0,0,0,,,,,,,,74,100
49920,note_on,0,,,0,0,0,,,,,,,,71,100
49920,note_on,0,,,0,0,0,,,,,,,,67,100
49920,note_off,0,,,1,0,0,,,,,,,,47,67
49920,note_off,0,,,2,0,0,,,,,,,,47,55
50048,note_off,128,,,0,0,0,,,,,,,,74,64
50048,note_off,0,,,0,0,0,,,,,,,,71,64
50048,note_off,0,,,0,0,0,,,,,,,,67,64
50112,note_on,64,,,0,0,0,,,,,,,,74,100
50112,note_on,0,,,0,0,0,,,,,,,,71,100
50112,note_on,0,,,0,0,0,,,,,,,,67,100
50112,note_on,0,,,1,0,0,,,,,,,,47,106
50112,note_on,0,,,2,0,0,,,,,,,,47,87
50300,note_off,188,,,0,0,0,,,,,,,,74,64
50300,note_off,0,,,0,0,0,,,,,,,,71,64
50300,note_off,0,,,0,0,0,,,,,,,,67,64
50304,note_on,4,,,0,0,0,,,,,,,,79,100
50304,note_on,0,,,0,0,0,,,,,,,,74,100
50304,note_on,0,,,0,0,0,,,,,,,,62,100
50432,note_off,128,,,0,0,0,,,,,,,,79,64
50432,note_off,0,,,0,0,0,,,,,,,,74,64
50432,note_off,0,,,0,0,0,,,,,,,,62,64
50496,note_on,64,,,0,0,0,,,,,,,,74,100
50496,note_on,0,,,0,0,0,,,,,,,,71,100
50496,note_on,0,,,0,0,0,,,,,,,,67,100
50496,note_off,0,,,1,0,0,,,,,,,,47,67
50496,note_off,0,,,2,0,0,,,,,,,,47,55
50624,note_off,128,,,0,0,0,,,,,,,,74,64
50624,note_off,0,,,0,0,0,,,,,,,,71,64
50624,note_off,0,,,0,0,0,,,,,,,,67,64
50688,note_on,64,,,0,0,0,,,,,,,,76,100
50688,note_on,0,,,0,0,0,,,,,,,,73,100
50688,note_on,0,,,0,0,0,,,,,,,,67,100
50688,note_on,0,,,1,0,0,,,,,,,,45,106
50688,note_on,0,,,2,0,0,,,,,,,,45,87
50876,note_off,188,,,0,0,0,,,,,,,,76,64
50876,note_off,0,,,0,0,0,,,,,,,,67,64
50880,note_on,4,,,0,0,0,,,,,,,,79,100
50880,note_on,0,,,0,0,0,,,,,,,,76,100
50880,note_on,0,,,0,0,0,,,,,,,,64,100
50972,note_off,92,,,0,0,0,,,,,,,,73,64
51008,note_off,36,,,0,0,0,,,,,,,,79,64
51008,note_off,0,,,0,0,0,,,,,,,,64,64
51072,note_on,64,,,0,0,0,,,,,,,,76,100
51072,note_off,0,,,0,0,0,,,,,,,,76,64
51072,note_on,0,,,0,0,0,,,,,,,,73,100
51072,note_on,0,,,0,0,0,,,,,,,,67,100
51072,note_off,0,,,1,0,0,,,,,,,,45,67
51072,note_off,0,,,2,0,0,,,,,,,,45,55
51200,note_off,128,,,0,0,0,,,,,,,,76,64
51200,note_off,0,,,0,0,0,,,,,,,,67,64
51264,note_on,64,,,0,0,0,,,,,,,,78,100
51264,note_off,0,,,0,0,0,,,,,,,,73,64
51264,note_on,0,,,0,0,0,,,,,,,,74,100
51264,note_on,0,,,0,0,0,,,,,,,,66,100
51264,note_on,0,,,1,0,0,,,,,,,,45,106
51264,note_on,0,,,2,0,0,,,,,,,,45,87
51452,note_off,188,,,0,0,0,,,,,,,,78,64
51452,note_off,0,,,0,0,0,,,,,,,,74,64
51452,note_off,0,,,0,0,0,,,,,,,,66,64
51456,note_on,4,,,0,0,0,,,,,,,,81,100
51456,note_on,0,,,0,0,0,,,,,,,,78,100
51456,note_on,0,,,0,0,0,,,,,,,,62,100
51584,note_off,128,,,0,0,0,,,,,,,,81,64
51584,note_off,0,,,0,0,0,,,,,,,,78,64
51584,note_off,0,,,0,0,0,,,,,,,,62,64
51648,note_on,64,,,0,0,0,,,,,,,,78,100
51648,note_on,0,,,0,0,0,,,,,,,,74,100
51648,note_on,0,,,0,0,0,,,,,,,,66,100
51648,note_off,0,,,1,0,0,,,,,,,,45,67
51648,note_off,0,,,2,0,0,,,,,,,,45,55
51776,note_off,128,,,0,0,0,,,,,,,,78,64
51776,note_off,0,,,0,0,0,,,,,,,,74,64
51776,note_off,0,,,0,0,0,,,,,,,,66,64
51840,note_on,64,,,0,0,0,,,,,,,,76,100
51840,note_on,0,,,0,0,0,,,,,,,,73,100
51840,note_on,0,,,0,0,0,,,,,,,,67,100
51840,note_on,0,,,1,0,0,,,,,,,,45,106
51840,note_on,0,,,2,0,0,,,,,,,,45,87
52028,note_off,188,,,0,0,0,,,,,,,,76,64
52028,note_off,0,,,0,0,0,,,,,,,,67,64
52032,note_on,4,,,0,0,0,,,,,,,,79,100
52032,note_on,0,,,0,0,0,,,,,,,,76,100
52032,note_on,0,,,0,0,0,,,,,,,,64,100
52124,note_off,92,,,0,0,0,,,,,,,,73,64
52160,note_off,36,,,0,0,0,,,,,,,,79,64
52160,note_off,0,,,0,0,0,,,,,,,,64,64
52224,note_on,64,,,0,0,0,,,,,,,,76,100
52224,note_off,0,,,0,0,0,,,,,,,,76,64
52224,note_on,0,,,0,0,0,,,,,,,,73,100
52224,note_on,0,,,0,0,0,,,,,,,,67,100
52224,note_off,0,,,1,0,0,,,,,,,,45,67
52224,note_off,0,,,2,0,0,,,,,,,,45,55
52352,note_off,128,,,0,0,0,,,,,,,,76,64
52352,note_off,0,,,0,0,0,,,,,,,,67,64
52416,note_on,64,,,0,0,0,,,,,,,,78,100
52416,note_off,0,,,0,0,0,,,,,,,,73,64
52416,note_on,0,,,0,0,0,,,,,,,,74,100
52416,note_on,0,,,0,0,0,,,,,,,,66,100
52416,note_on,0,,,1,0,0,,,,,,,,45,106
52416,note_on,0,,,2,0,0,,,,,,,,45,87
52604,note_off,188,,,0,0,0,,,,,,,,78,64
52604,note_off,0,,,0,0,0,,,,,,,,74,64
52604,note_off,0,,,0,0,0,,,,,,,,66,64
52608,note_on,4,,,0,0,0,,,,,,,,81,100
52608,note_on,0,,,0,0,0,,,,,,,,78,100
52608,note_on,0,,,0,0,0,,,,,,,,62,100
52736,note_off,128,,,0,0,0,,,,,,,,81,64
52736,note_off,0,,,0,0,0,,,,,,,,78,64
52736,note_off,0,,,0,0,0,,,,,,,,62,64
52800,note_on,64,,,0,0,0,,,,,,,,78,100
52800,note_on,0,,,0,0,0,,,,,,,,74,100
52800,note_on,0,,,0,0,0,,,,,,,,66,100
52800,note_off,0,,,1,0,0,,,,,,,,45,67
52800,note_off,0,,,2,0,0,,,,,,,,45,55
52928,note_off,128,,,0,0,0,,,,,,,,78,64
52928,note_off,0,,,0,0,0,,,,,,,,74,64
52928,note_off,0,,,0,0,0,,,,,,,,66,64
52992,note_on,64,,,0,0,0,,,,,,,,76,100
52992,note_on,0,,,0,0,0,,,,,,,,73,100
52992,note_on,0,,,0,0,0,,,,,,,,67,100
52992,note_on,0,,,1,0,0,,,,,,,,45,106
52992,note_on,0,,,2,0,0,,,,,,,,45,87
53180,note_off,188,,,0,0,0,,,,,,,,76,64
53180,note_off,0,,,0,0,0,,,,,,,,67,64
53184,note_on,4,,,0,0,0,,,,,,,,79,100
53184,note_on,0,,,0,0,0,,,,,,,,76,100
53184,note_on,0,,,0,0,0,,,,,,,,64,100
53276,note_off,92,,,0,0,0,,,,,,,,73,64
53312,note_off,36,,,0,0,0,,,,,,,,79,64
53312,note_off,0,,,0,0,0,,,,,,,,64,64
53376,note_on,64,,,0,0,0,,,,,,,,76,100
53376,note_off,0,,,0,0,0,,,,,,,,76,64
53376,note_on,0,,,0,0,0,,,,,,,,73,100
53376,note_on,0,,,0,0,0,,,,,,,,67,100
53376,note_off,0,,,1,0,0,,,,,,,,45,67
53376,note_off,0,,,2,0,0,,,,,,,,45,55
53504,note_off,128,,,0,0,0,,,,,,,,76,64
53504,note_off,0,,,0,0,0,,,,,,,,67,64
53568,note_on,64,,,0,0,0,,,,,,,,78,100
53568,note_off,0,,,0,0,0,,,,,,,,73,64
53568,note_on,0,,,0,0,0,,,,,,,,74,100
53568,note_on,0,,,0,0,0,,,,,,,,66,100
53568,note_on,0,,,1,0,0,,,,,,,,45,106
53568,note_on,0,,,2,0,0,,,,,,,,45,87
53756,note_off,188,,,0,0,0,,,,,,,,78,64
53756,note_off,0,,,0,0,0,,,,,,,,74,64
53756,note_off,0,,,0,0,0,,,,,,,,66,64
53760,note_on,4,,,0,0,0,,,,,,,,81,100
53760,note_on,0,,,0,0,0,,,,,,,,78,100
53760,note_on,0,,,0,0,0,,,,,,,,62,100
53888,note_off,128,,,0,0,0,,,,,,,,81,64
53888,note_off,0,,,0,0,0,,,,,,,,78,64
53888,note_off,0,,,0,0,0,,,,,,,,62,64
53952,note_on,64,,,0,0,0,,,,,,,,78,100
53952,note_on,0,,,0,0,0,,,,,,,,74,100
53952,note_on,0,,,0,0,0,,,,,,,,66,100
53952,note_off,0,,,1,0,0,,,,,,,,45,67
53952,note_off,0,,,2,0,0,,,,,,,,45,55
54080,note_off,128,,,0,0,0,,,,,,,,78,64
54080,note_off,0,,,0,0,0,,,,,,,,74,64
54080,note_off,0,,,0,0,0,,,,,,,,66,64
54144,note_on,64,,,0,0,0,,,,,,,,76,100
54144,note_on,0,,,0,0,0,,,,,,,,73,100
54144,note_on,0,,,0,0,0,,,,,,,,67,100
54144,note_on,0,,,1,0,0,,,,,,,,45,106
54144,note_on,0,,,2,0,0,,,,,,,,45,87
54332,note_off,188,,,0,0,0,,,,,,,,76,64
54332,note_off,0,,,0,0,0,,,,,,,,67,64
54336,note_on,4,,,0,0,0,,,,,,,,79,100
54336,note_on,0,,,0,0,0,,,,,,,,76,100
54336,note_on,0,,,0,0,0,,,,,,,,64,100
54428,note_off,92,,,0,0,0,,,,,,,,73,64
54464,note_off,36,,,0,0,0,,,,,,,,79,64
54464,note_off,0,,,0,0,0,,,,,,,,64,64
54528,note_on,64,,,0,0,0,,,,,,,,76,100
54528,note_off,0,,,0,0,0,,,,,,,,76,64
54528,note_on,0,,,0,0,0,,,,,,,,73,100
54528,note_on,0,,,0,0,0,,,,,,,,67,100
54528,note_off,0,,,1,0,0,,,,,,,,45,67
54528,note_off,0,,,2,0,0,,,,,,,,45,55
54656,note_off,128,,,0,0,0,,,,,,,,76,64
54656,note_off,0,,,0,0,0,,,,,,,,67,64
54720,note_on,64,,,0,0,0,,,,,,,,76,100
54720,note_off,0,,,0,0,0,,,,,,,,73,64
54720,note_on,0,,,0,0,0,,,,,,,,73,100
54720,note_on,0,,,0,0,0,,,,,,,,67,100
54720,note_on,0,,,1,0,0,,,,,,,,45,106
54720,note_on,0,,,2,0,0,,,,,,,,45,87
54908,note_off,188,,,0,0,0,,,,,,,,76,64
54908,note_off,0,,,0,0,0,,,,,,,,67,64
54912,note_on,4,,,0,0,0,,,,,,,,79,100
54912,note_on,0,,,0,0,0,,,,,,,,76,100
54912,note_on,0,,,0,0,0,,,,,,,,64,100
55004,note_off,92,,,0,0,0,,,,,,,,73,64
55040,note_off,36,,,0,0,0,,,,,,,,79,64
55040,note_off,0,,,0,0,0,,,,,,,,64,64
55104,note_on,64,,,0,0,0,,,,,,,,76,100
55104,note_off,0,,,0,0,0,,,,,,,,76,64
55104,note_on,0,,,0,0,0,,,,,,,,73,100
55104,note_on,0,,,0,0,0,,,,,,,,67,100
55104,note_off,0,,,1,0,0,,,,,,,,45,67
55104,note_off,0,,,2,0,0,,,,,,,,45,55
55232,note_off,128,,,0,0,0,,,,,,,,76,64
55232,note_off,0,,,0,0,0,,,,,,,,67,64
55296,note_off,64,,,0,0,0,,,,,,,,73,64
55296,note_on,0,,,0,0,0,,,,,,,,78,100
55296,note_on,0,,,0,0,0,,,,,,,,74,100
55296,note_on,0,,,0,0,0,,,,,,,,69,100
55296,note_on,0,,,1,0,0,,,,,,,,50,106
55680,note_off,384,,,0,0,0,,,,,,,,78,64
55680,note_off,0,,,0,0,0,,,,,,,,74,64
55680,note_off,0,,,0,0,0,,,,,,,,69,64
55680,note_off,0,,,1,0,0,,,,,,,,50,67
56448,note_on,768,,,1,0,0,,,,,,,,62,106
56636,note_off,188,,,1,0,0,,,,,,,,62,67
57024,note_on,388,,,1,0,0,,,,,,,,50,106
57212,note_off,188,,,1,0,0,,,,,,,,50,67
57600,note_on,388,,,1,0,0,,,,,,,,55,106
57788,note_off,188,,,1,0,0,,,,,,,,55,67
58176,note_on,388,,,1,0,0,,,,,,,,43,106
58364,note_off,188,,,1,0,0,,,,,,,,43,67
58752,note_on,388,,,1,0,0,,,,,,,,61,106
58940,note_off,188,,,1,0,0,,,,,,,,61,67
59328,note_on,388,,,1,0,0,,,,,,,,49,106
59516,note_off,188,,,1,0,0,,,,,,,,49,67
59904,note_on,388,,,1,0,0,,,,,,,,50,106
60092,note_off,188,,,1,0,0,,,,,,,,50,67
60480,note_on,388,,,1,0,0,,,,,,,,49,106
60668,note_off,188,,,1,0,0,,,,,,,,49,67
61056,note_on,388,,,1,0,0,,,,,,,,50,106
61244,note_off,188,,,1,0,0,,,,,,,,50,67
61632,note_on,388,,,1,0,0,,,,,,,,49,106
61820,note_off,188,,,1,0,0,,,,,,,,49,67
62208,note_on,388,,,1,0,0,,,,,,,,50,106
62464,note_off,256,,,1,0,0,,,,,,,,50,67
62592,note_on,128,,,1,0,0,,,,,,,,52,106
62720,note_off,128,,,1,0,0,,,,,,,,52,67
62784,note_on,64,,,1,0,0,,,,,,,,54,106
63040,note_off,256,,,1,0,0,,,,,,,,54,67
63168,note_on,128,,,1,0,0,,,,,,,,50,106
63296,note_off,128,,,1,0,0,,,,,,,,50,67
63360,note_on,64,,,1,0,0,,,,,,,,55,106
63744,note_off,384,,,1,0,0,,,,,,,,55,67
63936,note_on,192,,,1,0,0,,,,,,,,55,106
64320,note_off,384,,,1,0,0,,,,,,,,55,67
64512,note_on,192,,,1,0,0,,,,,,,,49,106
64700,note_off,188,,,1,0,0,,,,,,,,49,67
65088,note_on,388,,,1,0,0,,,,,,,,49,106
65276,note_off,188,,,1,0,0,,,,,,,,49,67
65664,note_on,388,,,1,0,0,,,,,,,,54,106
65852,note_off,188,,,1,0,0,,,,,,,,54,67
66240,note_on,388,,,1,0,0,,,,,,,,54,106
66428,note_off,188,,,1,0,0,,,,,,,,54,67
66816,note_on,388,,,1,0,0,,,,,,,,47,106
67004,note_off,188,,,1,0,0,,,,,,,,47,67
67392,note_on,388,,,1,0,0,,,,,,,,47,106
67580,note_off,188,,,1,0,0,,,,,,,,47,67
67968,note_on,388,,,1,0,0,,,,,,,,52,106
68156,note_off,188,,,1,0,0,,,,,,,,52,67
68544,note_on,388,,,1,0,0,,,,,,,,52,106
68732,note_off,188,,,1,0,0,,,,,,,,52,67
69120,note_on,388,,,1,0,0,,,,,,,,45,106
69308,note_off,188,,,1,0,0,,,,,,,,45,67
69696,note_on,388,,,1,0,0,,,,,,,,45,106
69884,note_off,188,,,1,0,0,,,,,,,,45,67
70272,note_on,388,,,1,0,0,,,,,,,,50,106
70528,note_off,256,,,1,0,0,,,,,,,,50,67
70656,note_on,128,,,1,0,0,,,,,,,,50,106
70784,note_off,128,,,1,0,0,,,,,,,,50,67
70848,note_on,64,,,1,0,0,,,,,,,,50,106
71104,note_off,256,,,1,0,0,,,,,,,,50,67
71232,note_on,128,,,1,0,0,,,,,,,,50,106
71360,note_off,128,,,1,0,0,,,,,,,,50,67
71424,note_on,64,,,0,0,0,,,,,,,,80,100
71424,note_on,0,,,0,0,0,,,,,,,,83,100
71424,note_on,0,,,0,0,0,,,,,,,,64,100
71424,note_on,0,,,1,0,0,,,,,,,,52,106
71424,note_on,0,,,2,0,0,,,,,,,,52,87
71552,note_off,128,,,0,0,0,,,,,,,,80,64
71552,note_off,0,,,0,0,0,,,,,,,,83,64
71552,note_off,0,,,0,0,0,,,,,,,,64,64
71552,note_off,0,,,1,0,0,,,,,,,,52,67
71552,note_off,0,,,2,0,0,,,,,,,,52,55
71616,note_on,64,,,0,0,0,,,,,,,,80,100
71616,note_on,0,,,0,0,0,,,,,,,,83,100
71616,note_on,0,,,0,0,0,,,,,,,,64,100
71616,note_on,0,,,1,0,0,,,,,,,,52,106
71616,note_on,0,,,2,0,0,,,,,,,,52,87
71744,note_off,128,,,0,0,0,,,,,,,,80,64
71744,note_off,0,,,0,0,0,,,,,,,,83,64
71744,note_off,0,,,0,0,0,,,,,,,,64,64
71744,note_off,0,,,1,0,0,,,,,,,,52,67
71744,note_off,0,,,2,0,0,,,,,,,,52,55
71808,note_on,64,,,0,0,0,,,,,,,,80,100
71808,note_on,0,,,0,0,0,,,,,,,,83,100
71808,note_on,0,,,0,0,0,,,,,,,,64,100
71808,note_on,0,,,1,0,0,,,,,,,,52,106
71808,note_on,0,,,2,0,0,,,,,,,,52,87
71936,note_off,128,,,0,0,0,,,,,,,,80,64
71936,note_off,0,,,0,0,0,,,,,,,,83,64
71936,note_off,0,,,0,0,0,,,,,,,,64,64
71936,note_off,0,,,1,0,0,,,,,,,,52,67
71936,note_off,0,,,2,0,0,,,,,,,,52,55
72000,note_on,64,,,0,0,0,,,,,,,,80,100
72000,note_on,0,,,0,0,0,,,,,,,,83,100
72000,note_on,0,,,0,0,0,,,,,,,,64,100
72000,note_on,0,,,1,0,0,,,,,,,,52,106
72000,note_on,0,,,2,0,0,,,,,,,,52,87
72128,note_off,128,,,0,0,0,,,,,,,,80,64
72128,note_off,0,,,0,0,0,,,,,,,,83,64
72128,note_off,0,,,0,0,0,,,,,,,,64,64
72128,note_off,0,,,1,0,0,,,,,,,,52,67
72128,note_off,0,,,2,0,0,,,,,,,,52,55
72192,note_on,64,,,0,0,0,,,,,,,,80,100
72192,note_on,0,,,0,0,0,,,,,,,,83,100
72192,note_on,0,,,0,0,0,,,,,,,,64,100
72192,note_on,0,,,1,0,0,,,,,,,,52,106
72192,note_on,0,,,2,0,0,,,,,,,,52,87
72320,note_off,128,,,0,0,0,,,,,,,,80,64
72320,note_off,0,,,0,0,0,,,,,,,,83,64
72320,note_off,0,,,0,0,0,,,,,,,,64,64
72320,note_off,0,,,1,0,0,,,,,,,,52,67
72320,note_off,0,,,2,0,0,,,,,,,,52,55
72384,note_on,64,,,0,0,0,,,,,,,,80,100
72384,note_on,0,,,0,0,0,,,,,,,,83,100
72384,note_on,0,,,0,0,0,,,,,,,,64,100
72384,note_on,0,,,1,0,0,,,,,,,,52,106
72384,note_on,0,,,2,0,0,,,,,,,,52,87
72512,note_off,128,,,0,0,0,,,,,,,,80,64
72512,note_off,0,,,0,0,0,,,,,,,,83,64
72512,note_off,0,,,0,0,0,,,,,,,,64,64
72512,note_off,0,,,1,0,0,,,,,,,,52,67
72512,note_off,0,,,2,0,0,,,,,,,,52,55
72576,note_on,64,,,0,0,0,,,,,,,,81,100
72576,note_on,0,,,0,0,0,,,,,,,,85,100
72576,note_on,0,,,0,0,0,,,,,,,,64,100
72576,note_on,0,,,1,0,0,,,,,,,,45,106
72576,note_on,0,,,2,0,0,,,,,,,,45,87
72704,note_off,128,,,0,0,0,,,,,,,,81,64
72704,note_off,0,,,0,0,0,,,,,,,,85,64
72704,note_off,0,,,0,0,0,,,,,,,,64,64
72704,note_off,0,,,1,0,0,,,,,,,,45,67
72704,note_off,0,,,2,0,0,,,,,,,,45,55
72768,note_on,64,,,0,0,0,,,,,,,,81,100
72768,note_on,0,,,0,0,0,,,,,,,,85,100
72768,note_on,0,,,0,0,0,,,,,,,,64,100
72768,note_on,0,,,1,0,0,,,,,,,,45,106
72768,note_on,0,,,2,0,0,,,,,,,,45,87
72896,note_off,128,,,0,0,0,,,,,,,,81,64
72896,note_off,0,,,0,0,0,,,,,,,,85,64
72896,note_off,0,,,0,0,0,,,,,,,,64,64
72896,note_off,0,,,1,0,0,,,,,,,,45,67
72896,note_off,0,,,2,0,0,,,,,,,,45,55
72960,note_on,64,,,0,0,0,,,,,,,,81,100
72960,note_on,0,,,0,0,0,,,,,,,,85,100
72960,note_on,0,,,0,0,0,,,,,,,,64,100
72960,note_on,0,,,1,0,0,,,,,,,,45,106
72960,note_on,0,,,2,0,0,,,,,,,,45,87
73088,note_off,128,,,0,0,0,,,,,,,,81,64
73088,note_off,0,,,0,0,0,,,,,,,,85,64
73088,note_off,0,,,0,0,0,,,,,,,,64,64
73088,note_off,0,,,1,0,0,,,,,,,,45,67
73088,note_off,0,,,2,0,0,,,,,,,,45,55
73152,note_on,64,,,0,0,0,,,,,,,,81,100
73152,note_on,0,,,0,0,0,,,,,,,,85,100
73152,note_on,0,,,0,0,0,,,,,,,,64,100
73152,note_on,0,,,1,0,0,,,,,,,,45,106
73152,note_on,0,,,2,0,0,,,,,,,,45,87
73280,note_off,128,,,0,0,0,,,,,,,,81,64
73280,note_off,0,,,0,0,0,,,,,,,,85,64
73280,note_off,0,,,0,0,0,,,,,,,,64,64
73280,note_off,0,,,1,0,0,,,,,,,,45,67
73280,note_off,0,,,2,0,0,,,,,,,,45,55
73344,note_on,64,,,0,0,0,,,,,,,,81,100
73344,note_on,0,,,0,0,0,,,,,,,,85,100
73344,note_on,0,,,0,0,0,,,,,,,,64,100
73344,note_on,0,,,1,0,0,,,,,,,,45,106
73344,note_on,0,,,2,0,0,,,,,,,,45,87
73472,note_off,128,,,0,0,0,,,,,,,,81,64
73472,note_off,0,,,0,0,0,,,,,,,,85,64
73472,note_off,0,,,0,0,0,,,,,,,,64,64
73472,note_off,0,,,1,0,0,,,,,,,,45,67
73472,note_off,0,,,2,0,0,,,,,,,,45,55
73536,note_on,64,,,0,0,0,,,,,,,,81,100
73536,note_on,0,,,0,0,0,,,,,,,,85,100
73536,note_on,0,,,0,0,0,,,,,,,,64,100
73536,note_on,0,,,1,0,0,,,,,,,,45,106
73536,note_on,0,,,2,0,0,,,,,,,,45,87
73664,note_off,128,,,0,0,0,,,,,,,,81,64
73664,note_off,0,,,0,0,0,,,,,,,,85,64
73664,note_off,0,,,0,0,0,,,,,,,,64,64
73664,note_off,0,,,1,0,0,,,,,,,,45,67
73664,note_off,0,,,2,0,0,,,,,,,,45,55
73728,note_on,64,,,0,0,0,,,,,,,,80,100
73728,note_on,0,,,0,0,0,,,,,,,,83,100
73728,note_on,0,,,0,0,0,,,,,,,,64,100
73728,note_on,0,,,1,0,0,,,,,,,,52,106
73728,note_on,0,,,2,0,0,,,,,,,,52,87
73856,note_off,128,,,0,0,0,,,,,,,,80,64
73856,note_off,0,,,0,0,0,,,,,,,,83,64
73856,note_off,0,,,0,0,0,,,,,,,,64,64
73856,note_off,0,,,1,0,0,,,,,,,,52,67
73856,note_off,0,,,2,0,0,,,,,,,,52,55
73920,note_on,64,,,0,0,0,,,,,,,,80,100
73920,note_on,0,,,0,0,0,,,,,,,,83,100
73920,note_on,0,,,0,0,0,,,,,,,,64,100
73920,note_on,0,,,1,0,0,,,,,,,,52,106
73920,note_on,0,,,2,0,0,,,,,,,,52,87
74048,note_off,128,,,0,0,0,,,,,,,,80,64
74048,note_off,0,,,0,0,0,,,,,,,,83,64
74048,note_off,0,,,0,0,0,,,,,,,,64,64
74048,note_off,0,,,1,0,0,,,,,,,,52,67
74048,note_off,0,,,2,0,0,,,,,,,,52,55
74112,note_on,64,,,0,0,0,,,,,,,,80,100
74112,note_on,0,,,0,0,0,,,,,,,,83,100
74112,note_on,0,,,0,0,0,,,,,,,,64,100
74112,note_on,0,,,1,0,0,,,,,,,,52,106
74112,note_on,0,,,2,0,0,,,,,,,,52,87
74240,note_off,128,,,0,0,0,,,,,,,,80,64
74240,note_off,0,,,0,0,0,,,,,,,,83,64
74240,note_off,0,,,0,0,0,,,,,,,,64,64
74240,note_off,0,,,1,0,0,,,,,,,,52,67
74240,note_off,0,,,2,0,0,,,,,,,,52,55
74304,note_on,64,,,0,0,0,,,,,,,,80,100
74304,note_on,0,,,0,0,0,,,,,,,,83,100
74304,note_on,0,,,0,0,0,,,,,,,,64,100
74304,note_on,0,,,1,0,0,,,,,,,,52,106
74304,note_on,0,,,2,0,0,,,,,,,,52,87
74432,note_off,128,,,0,0,0,,,,,,,,80,64
74432,note_off,0,,,0,0,0,,,,,,,,83,64
74432,note_off,0,,,0,0,0,,,,,,,,64,64
74432,note_off,0,,,1,0,0,,,,,,,,52,67
74432,note_off,0,,,2,0,0,,,,,,,,52,55
74496,note_on,64,,,0,0,0,,,,,,,,80,100
74496,note_on,0,,,0,0,0,,,,,,,,83,100
74496,note_on,0,,,0,0,0,,,,,,,,64,100
74496,note_on,0,,,1,0,0,,,,,,,,52,106
74496,note_on,0,,,2,0,0,,,,,,,,52,87
74624,note_off,128,,,0,0,0,,,,,,,,80,64
74624,note_off,0,,,0,0,0,,,,,,,,83,64
74624,note_off,0,,,0,0,0,,,,,,,,64,64
74624,note_off,0,,,1,0,0,,,,,,,,52,67
74624,note_off,0,,,2,0,0,,,,,,,,52,55
74688,note_on,64,,,0,0,0,,,,,,,,80,100
74688,note_on,0,,,0,0,0,,,,,,,,83,100
74688,note_on,0,,,0,0,0,,,,,,,,64,100
74688,note_on,0,,,1,0,0,,,,,,,,52,106
74688,note_on,0,,,2,0,0,,,,,,,,52,87
74816,note_off,128,,,0,0,0,,,,,,,,80,64
74816,note_off,0,,,0,0,0,,,,,,,,83,64
74816,note_off,0,,,0,0,0,,,,,,,,64,64
74816,note_off,0,,,1,0,0,,,,,,,,52,67
74816,note_off,0,,,2,0,0,,,,,,,,52,55
74880,note_on,64,,,0,0,0,,,,,,,,81,100
74880,note_on,0,,,0,0,0,,,,,,,,85,100
74880,note_on,0,,,0,0,0,,,,,,,,64,100
74880,note_on,0,,,1,0,0,,,,,,,,45,106
74880,note_on,0,,,2,0,0,,,,,,,,45,87
75008,note_off,128,,,0,0,0,,,,,,,,81,64
75008,note_off,0,,,0,0,0,,,,,,,,85,64
75008,note_off,0,,,0,0,0,,,,,,,,64,64
75008,note_off,0,,,1,0,0,,,,,,,,45,67
75008,note_off,0,,,2,0,0,,,,,,,,45,55
75072,note_on,64,,,0,0,0,,,,,,,,81,100
75072,note_on,0,,,0,0,0,,,,,,,,85,100
75072,note_on,0,,,0,0,0,,,,,,,,64,100
75072,note_on,0,,,1,0,0,,,,,,,,45,106
75072,note_on,0,,,2,0,0,,,,,,,,45,87
75200,note_off,128,,,0,0,0,,,,,,,,81,64
75200,note_off,0,,,0,0,0,,,,,,,,85,64
75200,note_off,0,,,0,0,0,,,,,,,,64,64
75200,note_off,0,,,1,0,0,,,,,,,,45,67
75200,note_off,0,,,2,0,0,,,,,,,,45,55
75264,note_on,64,,,0,0,0,,,,,,,,81,100
75264,note_on,0,,,0,0,0,,,,,,,,85,100
75264,note_on,0,,,0,0,0,,,,,,,,64,100
75264,note_on,0,,,1,0,0,,,,,,,,45,106
75264,note_on,0,,,2,0,0,,,,,,,,45,87
75392,note_off,128,,,0,0,0,,,,,,,,81,64
75392,note_off,0,,,0,0,0,,,,,,,,85,64
75392,note_off,0,,,0,0,0,,,,,,,,64,64
75392,note_off,0,,,1,0,0,,,,,,,,45,67
75392,note_off,0,,,2,0,0,,,,,,,,45,55
75456,note_on,64,,,0,0,0,,,,,,,,81,100
75456,note_on,0,,,0,0,0,,,,,,,,85,100
75456,note_on,0,,,0,0,0,,,,,,,,64,100
75456,note_on,0,,,1,0,0,,,,,,,,45,106
75456,note_on,0,,,2,0,0,,,,,,,,45,87
75584,note_off,128,,,0,0,0,,,,,,,,81,64
75584,note_off,0,,,0,0,0,,,,,,,,85,64
75584,note_off,0,,,0,0,0,,,,,,,,64,64
75584,note_off,0,,,1,0,0,,,,,,,,45,67
75584,note_off,0,,,2,0,0,,,,,,,,45,55
75648,note_on,64,,,0,0,0,,,,,,,,81,100
75648,note_on,0,,,0,0,0,,,,,,,,85,100
75648,note_on,0,,,0,0,0,,,,,,,,64,100
75648,note_on,0,,,1,0,0,,,,,,,,45,106
75648,note_on,0,,,2,0,0,,,,,,,,45,87
75776,note_off,128,,,0,0,0,,,,,,,,81,64
75776,note_off,0,,,0,0,0,,,,,,,,85,64
75776,note_off,0,,,0,0,0,,,,,,,,64,64
75776,note_off,0,,,1,0,0,,,,,,,,45,67
75776,note_off,0,,,2,0,0,,,,,,,,45,55
75840,note_on,64,,,0,0,0,,,,,,,,81,100
75840,note_on,0,,,0,0,0,,,,,,,,85,100
75840,note_on,0,,,0,0,0,,,,,,,,64,100
75840,note_on,0,,,1,0,0,,,,,,,,45,106
75840,note_on,0,,,2,0,0,,,,,,,,45,87
75968,note_off,128,,,0,0,0,,,,,,,,81,64
75968,note_off,0,,,0,0,0,,,,,,,,85,64
75968,note_off,0,,,0,0,0,,,,,,,,64,64
75968,note_off,0,,,1,0,0,,,,,,,,45,67
75968,note_off,0,,,2,0,0,,,,,,,,45,55
76032,note_on,64,,,0,0,0,,,,,,,,80,100
76032,note_on,0,,,0,0,0,,,,,,,,83,100
76032,note_on,0,,,0,0,0,,,,,,,,64,100
76032,note_on,0,,,1,0,0,,,,,,,,52,106
76032,note_on,0,,,2,0,0,,,,,,,,52,87
76032,note_on,0,,,0,0,0,,,,,,,,72,64
76160,note_off,128,,,0,0,0,,,,,,,,80,64
76160,note_off,0,,,0,0,0,,,,,,,,83,64
76160,note_off,0,,,0,0,0,,,,,,,,64,64
76160,note_off,0,,,1,0,0,,,,,,,,52,67
76160,note_off,0,,,2,0,0,,,,,,,,52,55
76220,note_off,60,,,0,0,0,,,,,,,,72,0
76224,note_on,4,,,0,0,0,,,,,,,,80,100
76224,note_on,0,,,0,0,0,,,,,,,,83,100
76224,note_on,0,,,0,0,0,,,,,,,,64,100
76224,note_on,0,,,1,0,0,,,,,,,,52,106
76224,note_on,0,,,2,0,0,,,,,,,,52,87
76224,note_on,0,,,0,0,0,,,,,,,,76,64
76352,note_off,128,,,0,0,0,,,,,,,,80,64
76352,note_off,0,,,0,0,0,,,,,,,,83,64
76352,note_off,0,,,0,0,0,,,,,,,,64,64
76352,note_off,0,,,1,0,0,,,,,,,,52,67
76352,note_off,0,,,2,0,0,,,,,,,,52,55
76412,note_off,60,,,0,0,0,,,,,,,,76,0
76416,note_on,4,,,0,0,0,,,,,,,,80,100
76416,note_on,0,,,0,0,0,,,,,,,,83,100
76416,note_on,0,,,0,0,0,,,,,,,,64,100
76416,note_on,0,,,1,0,0,,,,,,,,52,106
76416,note_on,0,,,2,0,0,,,,,,,,52,87
76416,note_on,0,,,0,0,0,,,,,,,,77,64
76544,note_off,128,,,0,0,0,,,,,,,,80,64
76544,note_off,0,,,0,0,0,,,,,,,,83,64
76544,note_off,0,,,0,0,0,,,,,,,,64,64
76544,note_off,0,,,1,0,0,,,,,,,,52,67
76544,note_off,0,,,2,0,0,,,,,,,,52,55
76604,note_off,60,,,0,0,0,,,,,,,,77,0
76608,note_on,4,,,0,0,0,,,,,,,,80,100
76608,note_on,0,,,0,0,0,,,,,,,,83,100
76608,note_on,0,,,0,0,0,,,,,,,,64,100
76608,note_on,0,,,1,0,0,,,,,,,,52,106
76608,note_on,0,,,2,0,0,,,,,,,,52,87
76608,note_on,0,,,0,0,0,,,,,,,,79,64
76736,note_off,128,,,0,0,0,,,,,,,,80,64
76736,note_off,0,,,0,0,0,,,,,,,,83,64
76736,note_off,0,,,0,0,0,,,,,,,,64,64
76736,note_off,0,,,1,0,0,,,,,,,,52,67
76736,note_off,0,,,2,0,0,,,,,,,,52,55
76796,note_off,60,,,0,0,0,,,,,,,,79,0
76800,note_on,4,,,0,0,0,,,,,,,,80,100
76800,note_on,0,,,0,0,0,,,,,,,,83,100
76800,note_on,0,,,0,0,0,,,,,,,,64,100
76800,note_on,0,,,1,0,0,,,,,,,,52,106
76800,note_on,0,,,2,0,0,,,,,,,,52,87
76800,note_on,0,,,0,0,0,,,,,,,,79,64
76928,note_off,128,,,0,0,0,,,,,,,,80,64
76928,note_off,0,,,0,0,0,,,,,,,,83,64
76928,note_off,0,,,0,0,0,,,,,,,,64,64
76928,note_off,0,,,1,0,0,,,,,,,,52,67
76928,note_off,0,,,2,0,0,,,,,,,,52,55
76988,note_off,60,,,0,0,0,,,,,,,,79,0
76992,note_on,4,,,0,0,0,,,,,,,,80,100
76992,note_on,0,,,0,0,0,,,,,,,,83,100
76992,note_on,0,,,0,0,0,,,,,,,,64,100
76992,note_on,0,,,1,0,0,,,,,,,,52,106
76992,note_on,0,,,2,0,0,,,,,,,,52,87
76992,note_on,0,,,0,0,0,,,,,,,,81,64
77120,note_off,128,,,0,0,0,,,,,,,,80,64
77120,note_off,0,,,0,0,0,,,,,,,,83,64
77120,note_off,0,,,0,0,0,,,,,,,,64,64
77120,note_off,0,,,1,0,0,,,,,,,,52,67
77120,note_off,0,,,2,0,0,,,,,,,,52,55
77180,note_off,60,,,0,0,0,,,,,,,,81,0
77184,note_on,4,,,0,0,0,,,,,,,,81,100
77184,note_on,0,,,0,0,0,,,,,,,,81,100
77184,note_on,0,,,0,0,0,,,,,,,,64,100
77184,note_on,0,,,1,0,0,,,,,,,,45,106
77184,note_on,0,,,2,0,0,,,,,,,,45,87
77184,note_on,0,,,0,0,0,,,,,,,,72,64
77372,note_off,188,,,0,0,0,,,,,,,,72,0
77376,note_on,4,,,0,0,0,,,,,,,,76,64
77564,note_off,188,,,0,0,0,,,,,,,,76,0
77568,note_on,4,,,0,0,0,,,,,,,,72,64
77756,note_off,188,,,0,0,0,,,,,,,,72,0
77952,note_off,196,,,0,0,0,,,,,,,,81,64
77952,note_off,0,,,0,0,0,,,,,,,,81,64
77952,note_off,0,,,0,0,0,,,,,,,,64,64
77952,note_off,0,,,1,0,0,,,,,,,,45,67
77952,note_off,0,,,2,0,0,,,,,,,,45,55
78336,note_on,384,,,0,0,0,,,,,,,,73,100
78336,note_on,0,,,0,0,0,,,,,,,,69,100
78336,note_on,0,,,0,0,0,,,,,,,,64,100
78336,note_on,0,,,1,0,0,,,,,,,,45,106
78336,note_on,0,,,2,0,0,,,,,,,,45,87
78524,note_off,188,,,0,0,0,,,,,,,,73,0
78524,note_off,0,,,0,0,0,,,,,,,,69,0
78528,note_on,4,,,0,0,0,,,,,,,,76,100
78528,note_on,0,,,0,0,0,,,,,,,,73,100
78592,note_off,64,,,0,0,0,,,,,,,,64,0
78656,note_off,64,,,0,0,0,,,,,,,,76,0
78656,note_off,0,,,0,0,0,,,,,,,,73,0
78720,note_on,64,,,0,0,0,,,,,,,,73,100
78720,note_on,0,,,0,0,0,,,,,,,,69,100
78720,note_on,0,,,0,0,0,,,,,,,,64,100
78720,note_off,0,,,1,0,0,,,,,,,,45,0
78720,note_off,0,,,2,0,0,,,,,,,,45,0
78848,note_off,128,,,0,0,0,,,,,,,,73,0
78848,note_off,0,,,0,0,0,,,,,,,,69,0
78848,note_off,0,,,0,0,0,,,,,,,,64,0
78912,note_on,64,,,0,0,0,,,,,,,,71,100
78912,note_on,0,,,0,0,0,,,,,,,,68,100
78912,note_on,0,,,0,0,0,,,,,,,,64,100
78912,note_on,0,,,1,0,0,,,,,,,,52,106
78912,note_on,0,,,2,0,0,,,,,,,,52,87
79100,note_off,188,,,0,0,0,,,,,,,,71,0
79100,note_off,0,,,0,0,0,,,,,,,,68,0
79104,note_on,4,,,0,0,0,,,,,,,,76,100
79104,note_on,0,,,0,0,0,,,,,,,,71,100
79168,note_off,64,,,0,0,0,,,,,,,,64,0
79232,note_off,64,,,0,0,0,,,,,,,,76,0
79232,note_off,0,,,0,0,0,,,,,,,,71,0
79296,note_on,64,,,0,0,0,,,,,,,,71,100
79296,note_on,0,,,0,0,0,,,,,,,,68,100
79296,note_on,0,,,0,0,0,,,,,,,,64,100
79296,note_off,0,,,1,0,0,,,,,,,,52,0
79296,note_off,0,,,2,0,0,,,,,,,,52,0
79424,note_off,128,,,0,0,0,,,,,,,,71,0
79424,note_off,0,,,0,0,0,,,,,,,,68,0
79424,note_off,0,,,0,0,0,,,,,,,,64,0
79488,note_on,64,,,0,0,0,,,,,,,,73,100
79488,note_on,0,,,0,0,0,,,,,,,,69,100
79488,note_on,0,,,0,0,0,,,,,,,,64,100
79488,note_on,0,,,1,0,0,,,,,,,,45,106
79488,note_on,0,,,2,0,0,,,,,,,,45,87
79676,note_off,188,,,0,0,0,,,,,,,,73,0
79676,note_off,0,,,0,0,0,,,,,,,,69,0
79680,note_on,4,,,0,0,0,,,,,,,,76,100
79680,note_on,0,,,0,0,0,,,,,,,,73,100
79744,note_off,64,,,0,0,0,,,,,,,,64,0
79808,note_off,64,,,0,0,0,,,,,,,,76,0
79808,note_off,0,,,0,0,0,,,,,,,,73,0
79872,note_on,64,,,0,0,0,,,,,,,,73,100
79872,note_on,0,,,0,0,0,,,,,,,,69,100
79872,note_on,0,,,0,0,0,,,,,,,,64,100
79872,note_off,0,,,1,0,0,,,,,,,,45,0
79872,note_off,0,,,2,0,0,,,,,,,,45,0
80000,note_off,128,,,0,0,0,,,,,,,,73,0
80000,note_off,0,,,0,0,0,,,,,,,,69,0
80000,note_off,0,,,0,0,0,,,,,,,,64,0
80064,note_on,64,,,0,0,0,,,,,,,,71,100
80064,note_on,0,,,0,0,0,,,,,,,,68,100
80064,note_on,0,,,0,0,0,,,,,,,,64,100
80064,note_on,0,,,1,0,0,,,,,,,,52,106
80064,note_on,0,,,2,0,0,,,,,,,,52,87
80252,note_off,188,,,0,0,0,,,,,,,,71,0
80252,note_off,0,,,0,0,0,,,,,,,,68,0
80256,note_on,4,,,0,0,0,,,,,,,,76,100
80256,note_on,0,,,0,0,0,,,,,,,,71,100
80320,note_off,64,,,0,0,0,,,,,,,,64,0
80384,note_off,64,,,0,0,0,,,,,,,,76,0
80384,note_off,0,,,0,0,0,,,,,,,,71,0
80448,note_on,64,,,0,0,0,,,,,,,,71,100
80448,note_on,0,,,0,0,0,,,,,,,,68,100
80448,note_on,0,,,0,0,0,,,,,,,,64,100
80448,note_off,0,,,1,0,0,,,,,,,,52,0
80448,note_off,0,,,2,0,0,,,,,,,,52,0
80576,note_off,128,,,0,0,0,,,,,,,,71,0
80576,note_off,0,,,0,0,0,,,,,,,,68,0
80576,note_off,0,,,0,0,0,,,,,,,,64,0
80640,note_on,64,,,0,0,0,,,,,,,,73,100
80640,note_on,0,,,0,0,0,,,,,,,,69,100
80640,note_on,0,,,0,0,0,,,,,,,,64,100
80640,note_on,0,,,1,0,0,,,,,,,,45,106
80640,note_on,0,,,2,0,0,,,,,,,,45,87
80896,note_off,256,,,0,0,0,,,,,,,,73,0
80896,note_off,0,,,0,0,0,,,,,,,,69,0
80896,note_off,0,,,0,0,0,,,,,,,,64,0
80896,note_off,0,,,1,0,0,,,,,,,,45,0
80896,note_off,0,,,2,0,0,,,,,,,,45,0
81024,note_on,128,,,0,0,0,,,,,,,,69,100
81024,note_on,0,,,0,0,0,,,,,,,,64,100
81024,note_on,0,,,0,0,0,,,,,,,,61,100
81024,note_on,0,,,1,0,0,,,,,,,,45,106
81024,note_on,0,,,2,0,0,,,,,,,,45,87
81152,note_off,128,,,0,0,0,,,,,,,,69,0
81152,note_off,0,,,0,0,0,,,,,,,,64,0
81152,note_off,0,,,0,0,0,,,,,,,,61,0
81152,note_off,0,,,1,0,0,,,,,,,,45,0
81152,note_off,0,,,2,0,0,,,,,,,,45,0
81216,note_on,64,,,1,0,0,,,,,,,,46,106
81216,note_on,0,,,2,0,0,,,,,,,,46,87
81472,note_off,256,,,1,0,0,,,,,,,,46,0
81472,note_off,0,,,2,0,0,,,,,,,,46,0
81600,note_on,128,,,1,0,0,,,,,,,,46,106
81600,note_on,0,,,2,0,0,,,,,,,,46,87
81728,note_off,128,,,1,0,0,,,,,,,,46,0
81728,note_off,0,,,2,0,0,,,,,,,,46,0
81792,note_on,64,,,0,0,0,,,,,,,,74,100
81792,note_on,0,,,0,0,0,,,,,,,,71,100
81792,note_on,0,,,0,0,0,,,,,,,,66,100
81792,note_on,0,,,1,0,0,,,,,,,,47,106
81792,note_on,0,,,2,0,0,,,,,,,,47,87
81980,note_off,188,,,0,0,0,,,,,,,,74,0
81980,note_off,0,,,0,0,0,,,,,,,,71,0
81984,note_on,4,,,0,0,0,,,,,,,,78,100
81984,note_on,0,,,0,0,0,,,,,,,,74,100
82048,note_off,64,,,0,0,0,,,,,,,,66,0
82112,note_off,64,,,0,0,0,,,,,,,,78,0
82112,note_off,0,,,0,0,0,,,,,,,,74,0
82176,note_on,64,,,0,0,0,,,,,,,,74,100
82176,note_on,0,,,0,0,0,,,,,,,,71,100
82176,note_on,0,,,0,0,0,,,,,,,,66,100
82176,note_off,0,,,1,0,0,,,,,,,,47,0
82176,note_off,0,,,2,0,0,,,,,,,,47,0
82304,note_off,128,,,0,0,0,,,,,,,,74,0
82304,note_off,0,,,0,0,0,,,,,,,,71,0
82304,note_off,0,,,0,0,0,,,,,,,,66,0
82368,note_on,64,,,0,0,0,,,,,,,,73,100
82368,note_on,0,,,0,0,0,,,,,,,,69,100
82368,note_on,0,,,0,0,0,,,,,,,,66,100
82368,note_on,0,,,1,0,0,,,,,,,,54,106
82368,note_on,0,,,2,0,0,,,,,,,,54,87
82556,note_off,188,,,0,0,0,,,,,,,,73,0
82556,note_off,0,,,0,0,0,,,,,,,,69,0
82560,note_on,4,,,0,0,0,,,,,,,,78,100
82560,note_on,0,,,0,0,0,,,,,,,,73,100
82624,note_off,64,,,0,0,0,,,,,,,,66,0
82688,note_off,64,,,0,0,0,,,,,,,,78,0
82688,note_off,0,,,0,0,0,,,,,,,,73,0
82752,note_on,64,,,0,0,0,,,,,,,,73,100
82752,note_on,0,,,0,0,0,,,,,,,,69,100
82752,note_on,0,,,0,0,0,,,,,,,,66,100
82752,note_off,0,,,1,0,0,,,,,,,,54,0
82752,note_off,0,,,2,0,0,,,,,,,,54,0
82880,note_off,128,,,0,0,0,,,,,,,,73,0
82880,note_off,0,,,0,0,0,,,,,,,,69,0
82880,note_off,0,,,0,0,0,,,,,,,,66,0
82944,note_on,64,,,0,0,0,,,,,,,,74,100
82944,note_on,0,,,0,0,0,,,,,,,,71,100
82944,note_on,0,,,0,0,0,,,,,,,,66,100
82944,note_on,0,,,1,0,0,,,,,,,,47,106
82944,note_on,0,,,2,0,0,,,,,,,,47,87
83132,note_off,188,,,0,0,0,,,,,,,,74,0
83132,note_off,0,,,0,0,0,,,,,,,,71,0
83136,note_on,4,,,0,0,0,,,,,,,,78,100
83136,note_on,0,,,0,0,0,,,,,,,,74,100
83200,note_off,64,,,0,0,0,,,,,,,,66,0
83264,note_off,64,,,0,0,0,,,,,,,,78,0
83264,note_off,0,,,0,0,0,,,,,,,,74,0
83328,note_on,64,,,0,0,0,,,,,,,,74,100
83328,note_on,0,,,0,0,0,,,,,,,,71,100
83328,note_on,0,,,0,0,0,,,,,,,,66,100
83328,note_off,0,,,1,0,0,,,,,,,,47,0
83328,note_off,0,,,2,0,0,,,,,,,,47,0
83456,note_off,128,,,0,0,0,,,,,,,,74,0
83456,note_off,0,,,0,0,0,,,,,,,,71,0
83456,note_off,0,,,0,0,0,,,,,,,,66,0
83520,note_on,64,,,0,0,0,,,,,,,,73,100
83520,note_on,0,,,0,0,0,,,,,,,,69,100
83520,note_on,0,,,0,0,0,,,,,,,,66,100
83520,note_on,0,,,1,0,0,,,,,,,,54,106
83520,note_on,0,,,2,0,0,,,,,,,,54,87
83708,note_off,188,,,0,0,0,,,,,,,,73,0
83708,note_off,0,,,0,0,0,,,,,,,,69,0
83712,note_on,4,,,0,0,0,,,,,,,,78,100
83712,note_on,0,,,0,0,0,,,,,,,,73,100
83776,note_off,64,,,0,0,0,,,,,,,,66,0
83840,note_off,64,,,0,0,0,,,,,,,,78,0
83840,note_off,0,,,0,0,0,,,,,,,,73,0
83904,note_on,64,,,0,0,0,,,,,,,,73,100
83904,note_on,0,,,0,0,0,,,,,,,,69,100
83904,note_on,0,,,0,0,0,,,,,,,,66,100
83904,note_off,0,,,1,0,0,,,,,,,,54,0
83904,note_off,0,,,2,0,0,,,,,,,,54,0
84032,note_off,128,,,0,0,0,,,,,,,,73,0
84032,note_off,0,,,0,0,0,,,,,,,,69,0
84032,note_off,0,,,0,0,0,,,,,,,,66,0
84096,note_on,64,,,0,0,0,,,,,,,,74,100
84096,note_on,0,,,0,0,0,,,,,,,,71,100
84096,note_on,0,,,0,0,0,,,,,,,,66,100
84096,note_on,0,,,1,0,0,,,,,,,,47,106
84096,note_on,0,,,2,0,0,,,,,,,,47,87
84352,note_off,256,,,0,0,0,,,,,,,,74,0
84352,note_off,0,,,0,0,0,,,,,,,,71,0
84352,note_off,0,,,0,0,0,,,,,,,,66,0
84352,note_off,0,,,1,0,0,,,,,,,,47,0
84352,note_off,0,,,2,0,0,,,,,,,,47,0
84480,note_on,128,,,0,0,0,,,,,,,,71,100
84480,note_on,0,,,0,0,0,,,,,,,,66,100
84480,note_on,0,,,0,0,0,,,,,,,,62,100
84480,note_on,0,,,1,0,0,,,,,,,,47,106
84480,note_on,0,,,2,0,0,,,,,,,,47,87
84608,note_off,128,,,0,0,0,,,,,,,,71,0
84608,note_off,0,,,0,0,0,,,,,,,,66,0
84608,note_off,0,,,0,0,0,,,,,,,,62,0
84608,note_off,0,,,1,0,0,,,,,,,,47,0
84608,note_off,0,,,2,0,0,,,,,,,,47,0
84672,note_on,64,,,1,0,0,,,,,,,,47,106
84672,note_on,0,,,2,0,0,,,,,,,,47,87
84928,note_off,256,,,1,0,0,,,,,,,,47,0
84928,note_off,0,,,2,0,0,,,,,,,,47,0
85248,note_on,320,,,1,0,0,,,,,,,,63,106
85632,note_off,384,,,1,0,0,,,,,,,,63,0
85824,note_on,192,,,1,0,0,,,,,,,,63,106
86208,note_off,384,,,1,0,0,,,,,,,,63,0
86400,note_on,192,,,1,0,0,,,,,,,,64,106
87168,note_off,768,,,1,0,0,,,,,,,,64,0
87552,note_on,384,,,1,0,0,,,,,,,,61,106
87936,note_off,384,,,1,0,0,,,,,,,,61,0
88128,note_on,192,,,1,0,0,,,,,,,,61,106
88512,note_off,384,,,1,0,0,,,,,,,,61,0
88704,note_on,192,,,1,0,0,,,,,,,,62,106
89472,note_off,768,,,1,0,0,,,,,,,,62,0
89856,note_on,384,,,1,0,0,,,,,,,,59,106
90240,note_off,384,,,1,0,0,,,,,,,,59,0
90432,note_on,192,,,1,0,0,,,,,,,,59,106
90816,note_off,384,,,1,0,0,,,,,,,,59,0
91008,note_on,192,,,1,0,0,,,,,,,,61,106
91776,note_off,768,,,1,0,0,,,,,,,,61,0
92160,note_on,384,,,1,0,0,,,,,,,,59,106
92544,note_off,384,,,1,0,0,,,,,,,,59,0
92736,note_on,192,,,1,0,0,,,,,,,,47,106
93120,note_off,384,,,1,0,0,,,,,,,,47,0
93312,note_on,192,,,1,0,0,,,,,,,,54,106
93696,note_off,384,,,1,0,0,,,,,,,,54,0
93888,note_on,192,,,1,0,0,,,,,,,,42,106
94272,note_off,384,,,1,0,0,,,,,,,,42,0
94464,note_on,192,,,0,0,0,,,,,,,,74,100
94464,note_on,0,,,1,0,0,,,,,,,,47,106
94464,note_on,0,,,2,0,0,,,,,,,,47,87
94720,note_off,256,,,0,0,0,,,,,,,,74,0
94720,note_off,0,,,1,0,0,,,,,,,,47,0
94720,note_off,0,,,2,0,0,,,,,,,,47,0
94848,note_on,128,,,0,0,0,,,,,,,,71,100
94848,note_on,0,,,1,0,0,,,,,,,,47,106
94848,note_on,0,,,2,0,0,,,,,,,,47,87
94976,note_off,128,,,0,0,0,,,,,,,,71,0
94976,note_off,0,,,1,0,0,,,,,,,,47,0
94976,note_off,0,,,2,0,0,,,,,,,,47,0
95040,note_on,64,,,0,0,0,,,,,,,,69,100
95040,note_on,0,,,1,0,0,,,,,,,,49,106
95040,note_on,0,,,2,0,0,,,,,,,,49,87
95296,note_off,256,,,0,0,0,,,,,,,,69,0
95296,note_off,0,,,1,0,0,,,,,,,,49,0
95296,note_off,0,,,2,0,0,,,,,,,,49,0
95424,note_on,128,,,0,0,0,,,,,,,,67,100
95424,note_on,0,,,1,0,0,,,,,,,,49,106
95424,note_on,0,,,2,0,0,,,,,,,,49,87
95552,note_off,128,,,0,0,0,,,,,,,,67,0
95552,note_off,0,,,1,0,0,,,,,,,,49,0
95552,note_off,0,,,2,0,0,,,,,,,,49,0
95616,note_on,64,,,0,0,0,,,,,,,,78,100
95616,note_on,0,,,0,0,0,,,,,,,,74,100
95616,note_on,0,,,0,0,0,,,,,,,,69,100
95616,note_on,0,,,1,0,0,,,,,,,,50,106
95616,note_on,0,,,2,0,0,,,,,,,,50,87
95804,note_off,188,,,0,0,0,,,,,,,,78,0
95804,note_off,0,,,0,0,0,,,,,,,,74,0
95804,note_off,0,,,0,0,0,,,,,,,,69,0
95808,note_on,4,,,0,0,0,,,,,,,,81,100
95808,note_on,0,,,0,0,0,,,,,,,,78,100
95808,note_on,0,,,0,0,0,,,,,,,,66,100
95936,note_off,128,,,0,0,0,,,,,,,,81,0
95936,note_off,0,,,0,0,0,,,,,,,,78,0
95936,note_off,0,,,0,0,0,,,,,,,,66,0
96000,note_on,64,,,0,0,0,,,,,,,,78,100
96000,note_on,0,,,0,0,0,,,,,,,,74,100
96000,note_on,0,,,0,0,0,,,,,,,,69,100
96000,note_off,0,,,1,0,0,,,,,,,,50,0
96000,note_off,0,,,2,0,0,,,,,,,,50,0
96128,note_off,128,,,0,0,0,,,,,,,,78,0
96128,note_off,0,,,0,0,0,,,,,,,,74,0
96128,note_off,0,,,0,0,0,,,,,,,,69,0
96192,note_on,64,,,0,0,0,,,,,,,,76,100
96192,note_on,0,,,0,0,0,,,,,,,,73,100
96192,note_on,0,,,0,0,0,,,,,,,,69,100
96192,note_on,0,,,1,0,0,,,,,,,,45,106
96192,note_on,0,,,2,0,0,,,,,,,,45,87
96380,note_off,188,,,0,0,0,,,,,,,,76,0
96380,note_off,0,,,0,0,0,,,,,,,,73,0
96380,note_off,0,,,0,0,0,,,,,,,,69,0
96384,note_on,4,,,0,0,0,,,,,,,,81,100
96384,note_on,0,,,0,0,0,,,,,,,,76,100
96384,note_on,0,,,0,0,0,,,,,,,,64,100
96512,note_off,128,,,0,0,0,,,,,,,,81,0
96512,note_off,0,,,0,0,0,,,,,,,,76,0
96512,note_off,0,,,0,0,0,,,,,,,,64,0
96576,note_on,64,,,0,0,0,,,,,,,,76,100
96576,note_on,0,,,0,0,0,,,,,,,,73,100
96576,note_on,0,,,0,0,0,,,,,,,,69,100
96576,note_off,0,,,1,0,0,,,,,,,,45,0
96576,note_off,0,,,2,0,0,,,,,,,,45,0
96704,note_off,128,,,0,0,0,,,,,,,,76,0
96704,note_off,0,,,0,0,0,,,,,,,,73,0
96704,note_off,0,,,0,0,0,,,,,,,,69,0
96768,note_on,64,,,0,0,0,,,,,,,,78,100
96768,note_on,0,,,0,0,0,,,,,,,,74,100
96768,note_on,0,,,0,0,0,,,,,,,,69,100
96768,note_on,0,,,1,0,0,,,,,,,,50,106
96768,note_on,0,,,2,0,0,,,,,,,,50,87
96956,note_off,188,,,0,0,0,,,,,,,,78,0
96956,note_off,0,,,0,0,0,,,,,,,,74,0
96956,note_off,0,,,0,0,0,,,,,,,,69,0
96960,note_on,4,,,0,0,0,,,,,,,,81,100
96960,note_on,0,,,0,0,0,,,,,,,,78,100
96960,note_on,0,,,0,0,0,,,,,,,,66,100
97088,note_off,128,,,0,0,0,,,,,,,,81,0
97088,note_off,0,,,0,0,0,,,,,,,,78,0
97088,note_off,0,,,0,0,0,,,,,,,,66,0
97152,note_on,64,,,0,0,0,,,,,,,,78,100
97152,note_on,0,,,0,0,0,,,,,,,,74,100
97152,note_on,0,,,0,0,0,,,,,,,,69,100
97152,note_off,0,,,1,0,0,,,,,,,,50,0
97152,note_off,0,,,2,0,0,,,,,,,,50,0
97280,note_off,128,,,0,0,0,,,,,,,,78,0
97280,note_off,0,,,0,0,0,,,,,,,,74,0
97280,note_off,0,,,0,0,0,,,,,,,,69,0
97344,note_on,64,,,0,0,0,,,,,,,,76,100
97344,note_on,0,,,0,0,0,,,,,,,,73,100
97344,note_on,0,,,0,0,0,,,,,,,,69,100
97344,note_on,0,,,1,0,0,,,,,,,,45,106
97344,note_on,0,,,2,0,0,,,,,,,,45,87
97532,note_off,188,,,0,0,0,,,,,,,,76,0
97532,note_off,0,,,0,0,0,,,,,,,,73,0
97532,note_off,0,,,0,0,0,,,,,,,,69,0
97536,note_on,4,,,0,0,0,,,,,,,,81,100
97536,note_on,0,,,0,0,0,,,,,,,,76,100
97536,note_on,0,,,0,0,0,,,,,,,,64,100
97664,note_off,128,,,0,0,0,,,,,,,,81,0
97664,note_off,0,,,0,0,0,,,,,,,,76,0
97664,note_off,0,,,0,0,0,,,,,,,,64,0
97728,note_on,64,,,0,0,0,,,,,,,,76,100
97728,note_on,0,,,0,0,0,,,,,,,,73,100
97728,note_on,0,,,0,0,0,,,,,,,,69,100
97728,note_off,0,,,1,0,0,,,,,,,,45,0
97728,note_off,0,,,2,0,0,,,,,,,,45,0
97856,note_off,128,,,0,0,0,,,,,,,,76,0
97856,note_off,0,,,0,0,0,,,,,,,,73,0
97856,note_off,0,,,0,0,0,,,,,,,,69,0
97920,note_on,64,,,0,0,0,,,,,,,,78,100
97920,note_on,0,,,0,0,0,,,,,,,,74,100
97920,note_on,0,,,0,0,0,,,,,,,,69,100
97920,note_on,0,,,1,0,0,,,,,,,,50,106
97920,note_on,0,,,2,0,0,,,,,,,,50,87
98108,note_off,188,,,0,0,0,,,,,,,,78,0
98108,note_off,0,,,0,0,0,,,,,,,,74,0
98108,note_off,0,,,0,0,0,,,,,,,,69,0
98112,note_on,4,,,0,0,0,,,,,,,,81,100
98112,note_on,0,,,0,0,0,,,,,,,,78,100
98112,note_on,0,,,0,0,0,,,,,,,,66,100
98240,note_off,128,,,0,0,0,,,,,,,,81,0
98240,note_off,0,,,0,0,0,,,,,,,,78,0
98240,note_off,0,,,0,0,0,,,,,,,,66,0
98304,note_on,64,,,0,0,0,,,,,,,,78,100
98304,note_on,0,,,0,0,0,,,,,,,,74,100
98304,note_on,0,,,0,0,0,,,,,,,,69,100
98304,note_off,0,,,1,0,0,,,,,,,,50,0
98304,note_off,0,,,2,0,0,,,,,,,,50,0
98432,note_off,128,,,0,0,0,,,,,,,,78,0
98432,note_off,0,,,0,0,0,,,,,,,,74,0
98432,note_off,0,,,0,0,0,,,,,,,,69,0
98496,note_on,64,,,0,0,0,,,,,,,,78,100
98496,note_on,0,,,0,0,0,,,,,,,,74,100
98496,note_on,0,,,0,0,0,,,,,,,,69,100
98496,note_on,0,,,1,0,0,,,,,,,,38,106
98496,note_on,0,,,2,0,0,,,,,,,,38,87
98684,note_off,188,,,0,0,0,,,,,,,,78,0
98684,note_off,0,,,0,0,0,,,,,,,,74,0
98684,note_off,0,,,0,0,0,,,,,,,,69,0
98688,note_on,4,,,0,0,0,,,,,,,,81,100
98688,note_on,0,,,0,0,0,,,,,,,,78,100
98688,note_on,0,,,0,0,0,,,,,,,,66,100
98816,note_off,128,,,0,0,0,,,,,,,,81,0
98816,note_off,0,,,0,0,0,,,,,,,,78,0
98816,note_off,0,,,0,0,0,,,,,,,,66,0
98880,note_on,64,,,0,0,0,,,,,,,,78,100
98880,note_on,0,,,0,0,0,,,,,,,,74,100
98880,note_on,0,,,0,0,0,,,,,,,,69,100
98880,note_off,0,,,1,0,0,,,,,,,,38,0
98880,note_off,0,,,2,0,0,,,,,,,,38,0
99008,note_off,128,,,0,0,0,,,,,,,,78,0
99008,note_off,0,,,0,0,0,,,,,,,,74,0
99008,note_off,0,,,0,0,0,,,,,,,,69,0
99072,note_on,64,,,0,0,0,,,,,,,,76,100
99072,note_on,0,,,0,0,0,,,,,,,,73,100
99072,note_on,0,,,0,0,0,,,,,,,,64,100
99072,note_on,0,,,1,0,0,,,,,,,,45,106
99072,note_on,0,,,2,0,0,,,,,,,,45,87
99328,note_off,256,,,1,0,0,,,,,,,,45,0
99328,note_off,0,,,2,0,0,,,,,,,,45,0
99456,note_off,128,,,0,0,0,,,,,,,,76,0
99456,note_off,0,,,0,0,0,,,,,,,,73,0
99456,note_off,0,,,0,0,0,,,,,,,,64,0
99456,note_on,0,,,1,0,0,,,,,,,,57,106
99584,note_off,128,,,1,0,0,,,,,,,,57,0
99648,note_on,64,,,1,0,0,,,,,,,,57,106
99904,note_off,256,,,1,0,0,,,,,,,,57,0
100032,note_on,128,,,1,0,0,,,,,,,,55,106
100160,note_off,128,,,1,0,0,,,,,,,,55,0
100224,note_on,64,,,1,0,0,,,,,,,,54,106
100608,note_off,384,,,1,0,0,,,,,,,,54,0
100800,note_on,192,,,1,0,0,,,,,,,,54,106
101184,note_off,384,,,1,0,0,,,,,,,,54,0
101376,note_on,192,,,1,0,0,,,,,,,,55,106
102144,note_off,768,,,1,0,0,,,,,,,,55,0
102528,note_on,384,,,1,0,0,,,,,,,,52,106
102912,note_off,384,,,1,0,0,,,,,,,,52,0
103104,note_on,192,,,1,0,0,,,,,,,,52,106
103488,note_off,384,,,1,0,0,,,,,,,,52,0
103680,note_on,192,,,1,0,0,,,,,,,,54,106
104448,note_off,768,,,1,0,0,,,,,,,,54,0
104832,note_on,384,,,1,0,0,,,,,,,,50,106
105216,note_off,384,,,1,0,0,,,,,,,,50,0
105408,note_on,192,,,1,0,0,,,,,,,,50,106
105792,note_off,384,,,1,0,0,,,,,,,,50,0
105984,note_on,192,,,1,0,0,,,,,,,,52,106
106752,note_off,768,,,1,0,0,,,,,,,,52,0
107136,note_on,384,,,1,0,0,,,,,,,,49,106
107520,note_off,384,,,1,0,0,,,,,,,,49,0
107712,note_on,192,,,1,0,0,,,,,,,,49,106
108096,note_off,384,,,1,0,0,,,,,,,,49,0
108288,note_on,192,,,1,0,0,,,,,,,,50,106
109056,note_off,768,,,1,0,0,,,,,,,,50,0
109440,note_on,384,,,1,0,0,,,,,,,,49,106
109824,note_off,384,,,1,0,0,,,,,,,,49,0
110016,note_on,192,,,1,0,0,,,,,,,,49,106
110400,note_off,384,,,1,0,0,,,,,,,,49,0
110592,note_on,192,,,1,0,0,,,,,,,,50,106
111360,note_off,768,,,1,0,0,,,,,,,,50,0
111744,note_on,384,,,1,0,0,,,,,,,,57,106
112512,note_off,768,,,1,0,0,,,,,,,,57,0
112896,note_on,384,,,0,0,0,,,,,,,,78,100
112896,note_on,0,,,0,0,0,,,,,,,,74,100
112896,note_on,0,,,0,0,0,,,,,,,,74,100
112896,note_on,0,,,1,0,0,,,,,,,,50,106
112896,note_on,0,,,2,0,0,,,,,,,,50,87
113084,note_off,188,,,0,0,0,,,,,,,,78,0
113084,note_off,0,,,0,0,0,,,,,,,,74,0
113084,note_off,0,,,0,0,0,,,,,,,,74,0
113088,note_on,4,,,0,0,0,,,,,,,,81,100
113088,note_on,0,,,0,0,0,,,,,,,,78,100
113088,note_on,0,,,0,0,0,,,,,,,,69,100
113152,note_off,64,,,1,0,0,,,,,,,,50,0
113152,note_off,0,,,2,0,0,,,,,,,,50,0
113216,note_off,64,,,0,0,0,,,,,,,,81,0
113216,note_off,0,,,0,0,0,,,,,,,,78,0
113216,note_off,0,,,0,0,0,,,,,,,,69,0
113280,note_on,64,,,0,0,0,,,,,,,,78,100
113280,note_on,0,,,0,0,0,,,,,,,,74,100
113280,note_on,0,,,0,0,0,,,,,,,,74,100
113280,note_on,0,,,1,0,0,,,,,,,,50,106
113280,note_on,0,,,2,0,0,,,,,,,,50,87
113408,note_off,128,,,0,0,0,,,,,,,,78,0
113408,note_off,0,,,0,0,0,,,,,,,,74,0
113408,note_off,0,,,0,0,0,,,,,,,,74,0
113408,note_off,0,,,1,0,0,,,,,,,,50,0
113408,note_off,0,,,2,0,0,,,,,,,,50,0
113472,note_on,64,,,0,0,0,,,,,,,,76,100
113472,note_on,0,,,0,0,0,,,,,,,,73,100
113472,note_on,0,,,0,0,0,,,,,,,,73,100
113472,note_on,0,,,1,0,0,,,,,,,,45,106
113472,note_on,0,,,2,0,0,,,,,,,,45,87
113660,note_off,188,,,0,0,0,,,,,,,,76,0
113660,note_off,0,,,0,0,0,,,,,,,,73,0
113660,note_off,0,,,0,0,0,,,,,,,,73,0
113664,note_on,4,,,0,0,0,,,,,,,,81,100
113664,note_on,0,,,0,0,0,,,,,,,,76,100
113664,note_on,0,,,0,0,0,,,,,,,,69,100
113728,note_off,64,,,1,0,0,,,,,,,,45,0
113728,note_off,0,,,2,0,0,,,,,,,,45,0
113792,note_off,64,,,0,0,0,,,,,,,,81,0
113792,note_off,0,,,0,0,0,,,,,,,,76,0
113792,note_off,0,,,0,0,0,,,,,,,,69,0
113856,note_on,64,,,0,0,0,,,,,,,,76,100
113856,note_on,0,,,0,0,0,,,,,,,,73,100
113856,note_on,0,,,0,0,0,,,,,,,,73,100
113856,note_on,0,,,1,0,0,,,,,,,,45,106
113856,note_on,0,,,2,0,0,,,,,,,,45,87
113984,note_off,128,,,0,0,0,,,,,,,,76,0
113984,note_off,0,,,0,0,0,,,,,,,,73,0
113984,note_off,0,,,0,0,0,,,,,,,,73,0
113984,note_off,0,,,1,0,0,,,,,,,,45,0
113984,note_off,0,,,2,0,0,,,,,,,,45,0
114048,note_on,64,,,0,0,0,,,,,,,,78,100
114048,note_on,0,,,0,0,0,,,,,,,,74,100
114048,note_on,0,,,0,0,0,,,,,,,,74,100
114048,note_on,0,,,1,0,0,,,,,,,,50,106
114048,note_on,0,,,2,0,0,,,,,,,,50,87
114236,note_off,188,,,0,0,0,,,,,,,,78,0
114236,note_off,0,,,0,0,0,,,,,,,,74,0
114236,note_off,0,,,0,0,0,,,,,,,,74,0
114240,note_on,4,,,0,0,0,,,,,,,,81,100
114240,note_on,0,,,0,0,0,,,,,,,,78,100
114240,note_on,0,,,0,0,0,,,,,,,,69,100
114304,note_off,64,,,1,0,0,,,,,,,,50,0
114304,note_off,0,,,2,0,0,,,,,,,,50,0
114368,note_off,64,,,0,0,0,,,,,,,,81,0
114368,note_off,0,,,0,0,0,,,,,,,,78,0
114368,note_off,0,,,0,0,0,,,,,,,,69,0
114432,note_on,64,,,0,0,0,,,,,,,,78,100
114432,note_on,0,,,0,0,0,,,,,,,,74,100
114432,note_on,0,,,0,0,0,,,,,,,,74,100
114432,note_on,0,,,1,0,0,,,,,,,,50,106
114432,note_on,0,,,2,0,0,,,,,,,,50,87
114560,note_off,128,,,0,0,0,,,,,,,,78,0
114560,note_off,0,,,0,0,0,,,,,,,,74,0
114560,note_off,0,,,0,0,0,,,,,,,,74,0
114560,note_off,0,,,1,0,0,,,,,,,,50,0
114560,note_off,0,,,2,0,0,,,,,,,,50,0
114624,note_on,64,,,0,0,0,,,,,,,,76,100
114624,note_on,0,,,0,0,0,,,,,,,,73,100
114624,note_on,0,,,0,0,0,,,,,,,,73,100
114624,note_on,0,,,1,0,0,,,,,,,,45,106
114624,note_on,0,,,2,0,0,,,,,,,,45,87
114812,note_off,188,,,0,0,0,,,,,,,,76,0
114812,note_off,0,,,0,0,0,,,,,,,,73,0
114812,note_off,0,,,0,0,0,,,,,,,,73,0
114816,note_on,4,,,0,0,0,,,,,,,,81,100
114816,note_on,0,,,0,0,0,,,,,,,,76,100
114816,note_on,0,,,0,0,0,,,,,,,,69,100
114880,note_off,64,,,1,0,0,,,,,,,,45,0
114880,note_off,0,,,2,0,0,,,,,,,,45,0
114944,note_off,64,,,0,0,0,,,,,,,,81,0
114944,note_off,0,,,0,0,0,,,,,,,,76,0
114944,note_off,0,,,0,0,0,,,,,,,,69,0
115008,note_on,64,,,0,0,0,,,,,,,,76,100
115008,note_on,0,,,0,0,0,,,,,,,,73,100
115008,note_on,0,,,0,0,0,,,,,,,,73,100
115008,note_on,0,,,1,0,0,,,,,,,,45,106
115008,note_on,0,,,2,0,0,,,,,,,,45,87
115136,note_off,128,,,0,0,0,,,,,,,,76,0
115136,note_off,0,,,0,0,0,,,,,,,,73,0
115136,note_off,0,,,0,0,0,,,,,,,,73,0
115136,note_off,0,,,1,0,0,,,,,,,,45,0
115136,note_off,0,,,2,0,0,,,,,,,,45,0
115200,note_on,64,,,0,0,0,,,,,,,,78,100
115200,note_on,0,,,0,0,0,,,,,,,,74,100
115200,note_on,0,,,0,0,0,,,,,,,,62,100
115200,note_on,0,,,1,0,0,,,,,,,,50,106
115200,note_on,0,,,2,0,0,,,,,,,,50,87
115328,note_off,128,,,0,0,0,,,,,,,,78,0
115328,note_off,0,,,0,0,0,,,,,,,,74,0
115392,note_on,64,,,0,0,0,,,,,,,,79,100
115392,note_on,0,,,0,0,0,,,,,,,,76,100
115456,note_off,64,,,1,0,0,,,,,,,,50,0
115456,note_off,0,,,2,0,0,,,,,,,,50,0
115520,note_off,64,,,0,0,0,,,,,,,,79,0
115520,note_off,0,,,0,0,0,,,,,,,,76,0
115584,note_on,64,,,0,0,0,,,,,,,,81,100
115584,note_on,0,,,0,0,0,,,,,,,,78,100
115584,note_off,0,,,0,0,0,,,,,,,,62,0
115584,note_on,0,,,1,0,0,,,,,,,,50,106
115584,note_on,0,,,2,0,0,,,,,,,,50,87
115712,note_off,128,,,0,0,0,,,,,,,,81,0
115712,note_off,0,,,0,0,0,,,,,,,,78,0
115712,note_off,0,,,1,0,0,,,,,,,,50,0
115712,note_off,0,,,2,0,0,,,,,,,,50,0
115776,note_on,64,,,0,0,0,,,,,,,,78,100
115776,note_on,0,,,0,0,0,,,,,,,,74,100
115776,note_on,0,,,0,0,0,,,,,,,,69,100
115776,note_on,0,,,1,0,0,,,,,,,,57,106
115776,note_on,0,,,2,0,0,,,,,,,,57,87
115964,note_off,188,,,0,0,0,,,,,,,,78,0
115964,note_off,0,,,0,0,0,,,,,,,,74,0
115968,note_on,4,,,0,0,0,,,,,,,,79,100
115968,note_on,0,,,0,0,0,,,,,,,,76,100
116032,note_off,64,,,1,0,0,,,,,,,,57,0
116032,note_off,0,,,2,0,0,,,,,,,,57,0
116096,note_off,64,,,0,0,0,,,,,,,,79,0
116096,note_off,0,,,0,0,0,,,,,,,,76,0
116160,note_on,64,,,0,0,0,,,,,,,,76,100
116160,note_on,0,,,0,0,0,,,,,,,,73,100
116160,note_off,0,,,0,0,0,,,,,,,,69,0
116160,note_on,0,,,1,0,0,,,,,,,,45,106
116160,note_on,0,,,2,0,0,,,,,,,,45,87
116288,note_off,128,,,0,0,0,,,,,,,,76,0
116288,note_off,0,,,0,0,0,,,,,,,,73,0
116288,note_off,0,,,1,0,0,,,,,,,,45,0
116288,note_off,0,,,2,0,0,,,,,,,,45,0
116352,note_on,64,,,0,0,0,,,,,,,,74,100
116352,note_on,0,,,0,0,0,,,,,,,,74,100
116352,note_on,0,,,0,0,0,,,,,,,,62,100
116352,note_on,0,,,1,0,0,,,,,,,,50,106
116352,note_on,0,,,2,0,0,,,,,,,,50,87
117120,note_off,768,,,0,0,0,,,,,,,,74,0
117120,note_off,0,,,0,0,0,,,,,,,,74,0
117120,note_off,0,,,0,0,0,,,,,,,,62,0
117120,note_off,0,,,1,0,0,,,,,,,,50,0
117120,note_off,0,,,2,0,0,,,,,,,,50,0
117504,note_on,384,,,0,0,0,,,,,,,,73,100
117504,note_on,0,,,0,0,0,,,,,,,,69,100
117504,note_on,0,,,0,0,0,,,,,,,,64,100
117504,note_on,0,,,1,0,0,,,,,,,,45,106
117504,note_on,0,,,2,0,0,,,,,,,,45,87
117692,note_off,188,,,0,0,0,,,,,,,,73,0
117692,note_off,0,,,0,0,0,,,,,,,,69,0
117696,note_on,4,,,0,0,0,,,,,,,,76,100
117696,note_on,0,,,0,0,0,,,,,,,,73,100
117760,note_off,64,,,0,0,0,,,,,,,,64,0
117824,note_off,64,,,0,0,0,,,,,,,,76,0
117824,note_off,0,,,0,0,0,,,,,,,,73,0
117888,note_on,64,,,0,0,0,,,,,,,,73,100
117888,note_on,0,,,0,0,0,,,,,,,,69,100
117888,note_on,0,,,0,0,0,,,,,,,,64,100
117888,note_off,0,,,1,0,0,,,,,,,,45,0
117888,note_off,0,,,2,0,0,,,,,,,,45,0
118016,note_off,128,,,0,0,0,,,,,,,,73,0
118016,note_off,0,,,0,0,0,,,,,,,,69,0
118016,note_off,0,,,0,0,0,,,,,,,,64,0
118080,note_on,64,,,0,0,0,,,,,,,,71,100
118080,note_on,0,,,0,0,0,,,,,,,,68,100
118080,note_on,0,,,0,0,0,,,,,,,,64,100
118080,note_on,0,,,1,0,0,,,,,,,,52,106
118080,note_on,0,,,2,0,0,,,,,,,,52,87
118268,note_off,188,,,0,0,0,,,,,,,,71,0
118268,note_off,0,,,0,0,0,,,,,,,,68,0
118272,note_on,4,,,0,0,0,,,,,,,,76,100
118272,note_on,0,,,0,0,0,,,,,,,,71,100
118336,note_off,64,,,0,0,0,,,,,,,,64,0
118400,note_off,64,,,0,0,0,,,,,,,,76,0
118400,note_off,0,,,0,0,0,,,,,,,,71,0
118464,note_on,64,,,0,0,0,,,,,,,,71,100
118464,note_on,0,,,0,0,0,,,,,,,,68,100
118464,note_on,0,,,0,0,0,,,,,,,,64,100
118464,note_off,0,,,1,0,0,,,,,,,,52,0
118464,note_off,0,,,2,0,0,,,,,,,,52,0
118592,note_off,128,,,0,0,0,,,,,,,,71,0
118592,note_off,0,,,0,0,0,,,,,,,,68,0
118592,note_off,0,,,0,0,0,,,,,,,,64,0
118656,note_on,64,,,0,0,0,,,,,,,,73,100
118656,note_on,0,,,0,0,0,,,,,,,,69,100
118656,note_on,0,,,0,0,0,,,,,,,,64,100
118656,note_on,0,,,1,0,0,,,,,,,,45,106
118656,note_on,0,,,2,0,0,,,,,,,,45,87
118844,note_off,188,,,0,0,0,,,,,,,,73,0
118844,note_off,0,,,0,0,0,,,,,,,,69,0
118848,note_on,4,,,0,0,0,,,,,,,,76,100
118848,note_on,0,,,0,0,0,,,,,,,,73,100
118912,note_off,64,,,0,0,0,,,,,,,,64,0
118976,note_off,64,,,0,0,0,,,,,,,,76,0
118976,note_off,0,,,0,0,0,,,,,,,,73,0
119040,note_on,64,,,0,0,0,,,,,,,,73,100
119040,note_on,0,,,0,0,0,,,,,,,,69,100
119040,note_on,0,,,0,0,0,,,,,,,,64,100
119040,note_off,0,,,1,0,0,,,,,,,,45,0
119040,note_off,0,,,2,0,0,,,,,,,,45,0
119168,note_off,128,,,0,0,0,,,,,,,,73,0
119168,note_off,0,,,0,0,0,,,,,,,,69,0
119168,note_off,0,,,0,0,0,,,,,,,,64,0
119232,note_on,64,,,0,0,0,,,,,,,,71,100
119232,note_on,0,,,0,0,0,,,,,,,,68,100
119232,note_on,0,,,0,0,0,,,,,,,,64,100
119232,note_on,0,,,1,0,0,,,,,,,,52,106
119232,note_on,0,,,2,0,0,,,,,,,,52,87
119420,note_off,188,,,0,0,0,,,,,,,,71,0
119420,note_off,0,,,0,0,0,,,,,,,,68,0
119424,note_on,4,,,0,0,0,,,,,,,,76,100
119424,note_on,0,,,0,0,0,,,,,,,,71,100
119488,note_off,64,,,0,0,0,,,,,,,,64,0
119552,note_off,64,,,0,0,0,,,,,,,,76,0
119552,note_off,0,,,0,0,0,,,,,,,,71,0
119616,note_on,64,,,0,0,0,,,,,,,,71,100
119616,note_on,0,,,0,0,0,,,,,,,,68,100
119616,note_on,0,,,0,0,0,,,,,,,,64,100
119616,note_off,0,,,1,0,0,,,,,,,,52,0
119616,note_off,0,,,2,0,0,,,,,,,,52,0
119744,note_off,128,,,0,0,0,,,,,,,,71,0
119744,note_off,0,,,0,0,0,,,,,,,,68,0
119744,note_off,0,,,0,0,0,,,,,,,,64,0
119808,note_on,64,,,0,0,0,,,,,,,,73,100
119808,note_on,0,,,0,0,0,,,,,,,,69,100
119808,note_on,0,,,0,0,0,,,,,,,,64,100
119808,note_on,0,,,1,0,0,,,,,,,,45,106
119808,note_on,0,,,2,0,0,,,,,,,,45,87
120064,note_off,256,,,0,0,0,,,,,,,,73,0
120064,note_off,0,,,0,0,0,,,,,,,,69,0
120064,note_off,0,,,0,0,0,,,,,,,,64,0
120064,note_off,0,,,1,0,0,,,,,,,,45,0
120064,note_off,0,,,2,0,0,,,,,,,,45,0
120192,note_on,128,,,0,0,0,,,,,,,,69,100
120192,note_on,0,,,0,0,0,,,,,,,,64,100
120192,note_on,0,,,0,0,0,,,,,,,,61,100
120192,note_on,0,,,1,0,0,,,,,,,,45,106
120192,note_on,0,,,2,0,0,,,,,,,,45,87
120320,note_off,128,,,0,0,0,,,,,,,,69,0
120320,note_off,0,,,0,0,0,,,,,,,,64,0
120320,note_off,0,,,0,0,0,,,,,,,,61,0
120320,note_off,0,,,1,0,0,,,,,,,,45,0
120320,note_off,0,,,2,0,0,,,,,,,,45,0
120384,note_on,64,,,1,0,0,,,,,,,,46,106
120384,note_on,0,,,2,0,0,,,,,,,,46,87
120640,note_off,256,,,1,0,0,,,,,,,,46,0
120640,note_off,0,,,2,0,0,,,,,,,,46,0
120768,note_on,128,,,1,0,0,,,,,,,,46,106
120768,note_on,0,,,2,0,0,,,,,,,,46,87
120896,note_off,128,,,1,0,0,,,,,,,,46,0
120896,note_off,0,,,2,0,0,,,,,,,,46,0
120960,note_on,64,,,0,0,0,,,,,,,,74,100
120960,note_on,0,,,0,0,0,,,,,,,,71,100
120960,note_on,0,,,0,0,0,,,,,,,,66,100
120960,note_on,0,,,1,0,0,,,,,,,,47,106
120960,note_on,0,,,2,0,0,,,,,,,,47,87
121148,note_off,188,,,0,0,0,,,,,,,,74,0
121148,note_off,0,,,0,0,0,,,,,,,,71,0
121152,note_on,4,,,0,0,0,,,,,,,,78,100
121152,note_on,0,,,0,0,0,,,,,,,,74,100
121216,note_off,64,,,0,0,0,,,,,,,,66,0
121280,note_off,64,,,0,0,0,,,,,,,,78,0
121280,note_off,0,,,0,0,0,,,,,,,,74,0
121344,note_on,64,,,0,0,0,,,,,,,,74,100
121344,note_on,0,,,0,0,0,,,,,,,,71,100
121344,note_on,0,,,0,0,0,,,,,,,,66,100
121344,note_off,0,,,1,0,0,,,,,,,,47,0
121344,note_off,0,,,2,0,0,,,,,,,,47,0
121472,note_off,128,,,0,0,0,,,,,,,,74,0
121472,note_off,0,,,0,0,0,,,,,,,,71,0
121472,note_off,0,,,0,0,0,,,,,,,,66,0
121536,note_on,64,,,0,0,0,,,,,,,,73,100
121536,note_on,0,,,0,0,0,,,,,,,,69,100
121536,note_on,0,,,0,0,0,,,,,,,,66,100
121536,note_on,0,,,1,0,0,,,,,,,,54,106
121536,note_on,0,,,2,0,0,,,,,,,,54,87
121724,note_off,188,,,0,0,0,,,,,,,,73,0
121724,note_off,0,,,0,0,0,,,,,,,,69,0
121728,note_on,4,,,0,0,0,,,,,,,,78,100
121728,note_on,0,,,0,0,0,,,,,,,,73,100
121792,note_off,64,,,0,0,0,,,,,,,,66,0
121856,note_off,64,,,0,0,0,,,,,,,,78,0
121856,note_off,0,,,0,0,0,,,,,,,,73,0
121920,note_on,64,,,0,0,0,,,,,,,,73,100
121920,note_on,0,,,0,0,0,,,,,,,,69,100
121920,note_on,0,,,0,0,0,,,,,,,,66,100
121920,note_off,0,,,1,0,0,,,,,,,,54,0
121920,note_off,0,,,2,0,0,,,,,,,,54,0
122048,note_off,128,,,0,0,0,,,,,,,,73,0
122048,note_off,0,,,0,0,0,,,,,,,,69,0
122048,note_off,0,,,0,0,0,,,,,,,,66,0
122112,note_on,64,,,0,0,0,,,,,,,,74,100
122112,note_on,0,,,0,0,0,,,,,,,,71,100
122112,note_on,0,,,0,0,0,,,,,,,,66,100
122112,note_on,0,,,1,0,0,,,,,,,,47,106
122112,note_on,0,,,2,0,0,,,,,,,,47,87
122300,note_off,188,,,0,0,0,,,,,,,,74,0
122300,note_off,0,,,0,0,0,,,,,,,,71,0
122304,note_on,4,,,0,0,0,,,,,,,,78,100
122304,note_on,0,,,0,0,0,,,,,,,,74,100
122368,note_off,64,,,0,0,0,,,,,,,,66,0
122432,note_off,64,,,0,0,0,,,,,,,,78,0
122432,note_off,0,,,0,0,0,,,,,,,,74,0
122496,note_on,64,,,0,0,0,,,,,,,,74,100
122496,note_on,0,,,0,0,0,,,,,,,,71,100
122496,note_on,0,,,0,0,0,,,,,,,,66,100
122496,note_off,0,,,1,0,0,,,,,,,,47,0
122496,note_off,0,,,2,0,0,,,,,,,,47,0
122624,note_off,128,,,0,0,0,,,,,,,,74,0
122624,note_off,0,,,0,0,0,,,,,,,,71,0
122624,note_off,0,,,0,0,0,,,,,,,,66,0
122688,note_on,64,,,0,0,0,,,,,,,,73,100
122688,note_on,0,,,0,0,0,,,,,,,,69,100
122688,note_on,0,,,0,0,0,,,,,,,,66,100
122688,note_on,0,,,1,0,0,,,,,,,,54,106
122688,note_on,0,,,2,0,0,,,,,,,,54,87
122876,note_off,188,,,0,0,0,,,,,,,,73,0
122876,note_off,0,,,0,0,0,,,,,,,,69,0
122880,note_on,4,,,0,0,0,,,,,,,,78,100
122880,note_on,0,,,0,0,0,,,,,,,,73,100
122944,note_off,64,,,0,0,0,,,,,,,,66,0
123008,note_off,64,,,0,0,0,,,,,,,,78,0
123008,note_off,0,,,0,0,0,,,,,,,,73,0
123072,note_on,64,,,0,0,0,,,,,,,,73,100
123072,note_on,0,,,0,0,0,,,,,,,,69,100
123072,note_on,0,,,0,0,0,,,,,,,,66,100
123072,note_off,0,,,1,0,0,,,,,,,,54,0
123072,note_off,0,,,2,0,0,,,,,,,,54,0
123200,note_off,128,,,0,0,0,,,,,,,,73,0
123200,note_off,0,,,0,0,0,,,,,,,,69,0
123200,note_off,0,,,0,0,0,,,,,,,,66,0
123264,note_on,64,,,0,0,0,,,,,,,,74,100
123264,note_on,0,,,0,0,0,,,,,,,,71,100
123264,note_on,0,,,0,0,0,,,,,,,,66,100
123264,note_on,0,,,1,0,0,,,,,,,,47,106
123264,note_on,0,,,2,0,0,,,,,,,,47,87
123520,note_off,256,,,0,0,0,,,,,,,,74,0
123520,note_off,0,,,0,0,0,,,,,,,,71,0
123520,note_off,0,,,0,0,0,,,,,,,,66,0
123520,note_off,0,,,1,0,0,,,,,,,,47,0
123520,note_off,0,,,2,0,0,,,,,,,,47,0
123648,note_on,128,,,0,0,0,,,,,,,,71,100
123648,note_on,0,,,0,0,0,,,,,,,,66,100
123648,note_on,0,,,0,0,0,,,,,,,,62,100
123648,note_on,0,,,1,0,0,,,,,,,,47,106
123648,note_on,0,,,2,0,0,,,,,,,,47,87
123776,note_off,128,,,0,0,0,,,,,,,,71,0
123776,note_off,0,,,0,0,0,,,,,,,,66,0
123776,note_off,0,,,0,0,0,,,,,,,,62,0
123776,note_off,0,,,1,0,0,,,,,,,,47,0
123776,note_off,0,,,2,0,0,,,,,,,,47,0
123840,note_on,64,,,1,0,0,,,,,,,,47,106
123840,note_on,0,,,2,0,0,,,,,,,,47,87
124096,note_off,256,,,1,0,0,,,,,,,,47,0
124096,note_off,0,,,2,0,0,,,,,,,,47,0
124416,note_on,320,,,1,0,0,,,,,,,,63,106
124800,note_off,384,,,1,0,0,,,,,,,,63,0
124992,note_on,192,,,1,0,0,,,,,,,,63,106
125376,note_off,384,,,1,0,0,,,,,,,,63,0
125568,note_on,192,,,1,0,0,,,,,,,,64,106
126336,note_off,768,,,1,0,0,,,,,,,,64,0
126720,note_on,384,,,1,0,0,,,,,,,,61,106
127104,note_off,384,,,1,0,0,,,,,,,,61,0
127296,note_on,192,,,1,0,0,,,,,,,,61,106
127680,note_off,384,,,1,0,0,,,,,,,,61,0
127872,note_on,192,,,1,0,0,,,,,,,,62,106
128640,note_off,768,,,1,0,0,,,,,,,,62,0
129024,note_on,384,,,1,0,0,,,,,,,,59,106
129408,note_off,384,,,1,0,0,,,,,,,,59,0
129600,note_on,192,,,1,0,0,,,,,,,,59,106
129984,note_off,384,,,1,0,0,,,,,,,,59,0
130176,note_on,192,,,1,0,0,,,,,,,,61,106
130944,note_off,768,,,1,0,0,,,,,,,,61,0
131328,note_on,384,,,1,0,0,,,,,,,,59,106
131712,note_off,384,,,1,0,0,,,,,,,,59,0
131904,note_on,192,,,1,0,0,,,,,,,,47,106
132288,note_off,384,,,1,0,0,,,,,,,,47,0
132480,note_on,192,,,1,0,0,,,,,,,,54,106
132864,note_off,384,,,1,0,0,,,,,,,,54,0
133056,note_on,192,,,1,0,0,,,,,,,,42,106
133440,note_off,384,,,1,0,0,,,,,,,,42,0
133632,note_on,192,,,0,0,0,,,,,,,,74,100
133632,note_on,0,,,1,0,0,,,,,,,,47,106
133632,note_on,0,,,2,0,0,,,,,,,,47,87
133888,note_off,256,,,0,0,0,,,,,,,,74,0
133888,note_off,0,,,1,0,0,,,,,,,,47,0
133888,note_off,0,,,2,0,0,,,,,,,,47,0
134016,note_on,128,,,0,0,0,,,,,,,,71,100
134016,note_on,0,,,1,0,0,,,,,,,,47,106
134016,note_on,0,,,2,0,0,,,,,,,,47,87
134144,note_off,128,,,0,0,0,,,,,,,,71,0
134144,note_off,0,,,1,0,0,,,,,,,,47,0
134144,note_off,0,,,2,0,0,,,,,,,,47,0
134208,note_on,64,,,0,0,0,,,,,,,,69,100
134208,note_on,0,,,1,0,0,,,,,,,,49,106
134208,note_on,0,,,2,0,0,,,,,,,,49,87
134464,note_off,256,,,0,0,0,,,,,,,,69,0
134464,note_off,0,,,1,0,0,,,,,,,,49,0
134464,note_off,0,,,2,0,0,,,,,,,,49,0
134592,note_on,128,,,0,0,0,,,,,,,,67,100
134592,note_on,0,,,1,0,0,,,,,,,,49,106
134592,note_on,0,,,2,0,0,,,,,,,,49,87
134720,note_off,128,,,0,0,0,,,,,,,,67,0
134720,note_off,0,,,1,0,0,,,,,,,,49,0
134720,note_off,0,,,2,0,0,,,,,,,,49,0
134784,note_on,64,,,0,0,0,,,,,,,,78,100
134784,note_on,0,,,0,0,0,,,,,,,,74,100
134784,note_on,0,,,0,0,0,,,,,,,,69,100
134784,note_on,0,,,1,0,0,,,,,,,,50,106
134784,note_on,0,,,2,0,0,,,,,,,,50,87
134972,note_off,188,,,0,0,0,,,,,,,,78,0
134972,note_off,0,,,0,0,0,,,,,,,,74,0
134972,note_off,0,,,0,0,0,,,,,,,,69,0
134976,note_on,4,,,0,0,0,,,,,,,,81,100
134976,note_on,0,,,0,0,0,,,,,,,,78,100
134976,note_on,0,,,0,0,0,,,,,,,,66,100
135104,note_off,128,,,0,0,0,,,,,,,,81,0
135104,note_off,0,,,0,0,0,,,,,,,,78,0
135104,note_off,0,,,0,0,0,,,,,,,,66,0
135168,note_on,64,,,0,0,0,,,,,,,,78,100
135168,note_on,0,,,0,0,0,,,,,,,,74,100
135168,note_on,0,,,0,0,0,,,,,,,,69,100
135168,note_off,0,,,1,0,0,,,,,,,,50,0
135168,note_off,0,,,2,0,0,,,,,,,,50,0
135296,note_off,128,,,0,0,0,,,,,,,,78,0
135296,note_off,0,,,0,0,0,,,,,,,,74,0
135296,note_off,0,,,0,0,0,,,,,,,,69,0
135360,note_on,64,,,0,0,0,,,,,,,,76,100
135360,note_on,0,,,0,0,0,,,,,,,,73,100
135360,note_on,0,,,0,0,0,,,,,,,,69,100
135360,note_on,0,,,1,0,0,,,,,,,,45,106
135360,note_on,0,,,2,0,0,,,,,,,,45,87
135548,note_off,188,,,0,0,0,,,,,,,,76,0
135548,note_off,0,,,0,0,0,,,,,,,,73,0
135548,note_off,0,,,0,0,0,,,,,,,,69,0
135552,note_on,4,,,0,0,0,,,,,,,,81,100
135552,note_on,0,,,0,0,0,,,,,,,,76,100
135552,note_on,0,,,0,0,0,,,,,,,,64,100
135680,note_off,128,,,0,0,0,,,,,,,,81,0
135680,note_off,0,,,0,0,0,,,,,,,,76,0
135680,note_off,0,,,0,0,0,,,,,,,,64,0
135744,note_on,64,,,0,0,0,,,,,,,,76,100
135744,note_on,0,,,0,0,0,,,,,,,,73,100
135744,note_on,0,,,0,0,0,,,,,,,,69,100
135744,note_off,0,,,1,0,0,,,,,,,,45,0
135744,note_off,0,,,2,0,0,,,,,,,,45,0
135872,note_off,128,,,0,0,0,,,,,,,,76,0
135872,note_off,0,,,0,0,0,,,,,,,,73,0
135872,note_off,0,,,0,0,0,,,,,,,,69,0
135936,note_on,64,,,0,0,0,,,,,,,,78,100
135936,note_on,0,,,0,0,0,,,,,,,,74,100
135936,note_on,0,,,0,0,0,,,,,,,,69,100
135936,note_on,0,,,1,0,0,,,,,,,,50,106
135936,note_on,0,,,2,0,0,,,,,,,,50,87
136124,note_off,188,,,0,0,0,,,,,,,,78,0
136124,note_off,0,,,0,0,0,,,,,,,,74,0
136124,note_off,0,,,0,0,0,,,,,,,,69,0
136128,note_on,4,,,0,0,0,,,,,,,,81,100
136128,note_on,0,,,0,0,0,,,,,,,,78,100
136128,note_on,0,,,0,0,0,,,,,,,,66,100
136256,note_off,128,,,0,0,0,,,,,,,,81,0
136256,note_off,0,,,0,0,0,,,,,,,,78,0
136256,note_off,0,,,0,0,0,,,,,,,,66,0
136320,note_on,64,,,0,0,0,,,,,,,,78,100
136320,note_on,0,,,0,0,0,,,,,,,,74,100
136320,note_on,0,,,0,0,0,,,,,,,,69,100
136320,note_off,0,,,1,0,0,,,,,,,,50,0
136320,note_off,0,,,2,0,0,,,,,,,,50,0
136448,note_off,128,,,0,0,0,,,,,,,,78,0
136448,note_off,0,,,0,0,0,,,,,,,,74,0
136448,note_off,0,,,0,0,0,,,,,,,,69,0
136512,note_on,64,,,0,0,0,,,,,,,,76,100
136512,note_on,0,,,0,0,0,,,,,,,,73,100
136512,note_on,0,,,0,0,0,,,,,,,,69,100
136512,note_on,0,,,1,0,0,,,,,,,,45,106
136512,note_on,0,,,2,0,0,,,,,,,,45,87
136700,note_off,188,,,0,0,0,,,,,,,,76,0
136700,note_off,0,,,0,0,0,,,,,,,,73,0
136700,note_off,0,,,0,0,0,,,,,,,,69,0
136704,note_on,4,,,0,0,0,,,,,,,,81,100
136704,note_on,0,,,0,0,0,,,,,,,,76,100
136704,note_on,0,,,0,0,0,,,,,,,,64,100
136832,note_off,128,,,0,0,0,,,,,,,,81,0
136832,note_off,0,,,0,0,0,,,,,,,,76,0
136832,note_off,0,,,0,0,0,,,,,,,,64,0
136896,note_on,64,,,0,0,0,,,,,,,,76,100
136896,note_on,0,,,0,0,0,,,,,,,,73,100
136896,note_on,0,,,0,0,0,,,,,,,,69,100
136896,note_off,0,,,1,0,0,,,,,,,,45,0
136896,note_off,0,,,2,0,0,,,,,,,,45,0
137024,note_off,128,,,0,0,0,,,,,,,,76,0
137024,note_off,0,,,0,0,0,,,,,,,,73,0
137024,note_off,0,,,0,0,0,,,,,,,,69,0
137088,note_on,64,,,0,0,0,,,,,,,,78,100
137088,note_on,0,,,0,0,0,,,,,,,,74,100
137088,note_on,0,,,0,0,0,,,,,,,,69,100
137088,note_on,0,,,1,0,0,,,,,,,,50,106
137088,note_on,0,,,2,0,0,,,,,,,,50,87
137276,note_off,188,,,0,0,0,,,,,,,,78,0
137276,note_off,0,,,0,0,0,,,,,,,,74,0
137276,note_off,0,,,0,0,0,,,,,,,,69,0
137280,note_on,4,,,0,0,0,,,,,,,,81,100
137280,note_on,0,,,0,0,0,,,,,,,,78,100
137280,note_on,0,,,0,0,0,,,,,,,,66,100
137408,note_off,128,,,0,0,0,,,,,,,,81,0
137408,note_off,0,,,0,0,0,,,,,,,,78,0
137408,note_off,0,,,0,0,0,,,,,,,,66,0
137472,note_on,64,,,0,0,0,,,,,,,,78,100
137472,note_on,0,,,0,0,0,,,,,,,,74,100
137472,note_on,0,,,0,0,0,,,,,,,,69,100
137472,note_off,0,,,1,0,0,,,,,,,,50,0
137472,note_off,0,,,2,0,0,,,,,,,,50,0
137600,note_off,128,,,0,0,0,,,,,,,,78,0
137600,note_off,0,,,0,0,0,,,,,,,,74,0
137600,note_off,0,,,0,0,0,,,,,,,,69,0
137664,note_on,64,,,0,0,0,,,,,,,,78,100
137664,note_on,0,,,0,0,0,,,,,,,,74,100
137664,note_on,0,,,0,0,0,,,,,,,,69,100
137664,note_on,0,,,1,0,0,,,,,,,,38,106
137664,note_on,0,,,2,0,0,,,,,,,,38,87
137852,note_off,188,,,0,0,0,,,,,,,,78,0
137852,note_off,0,,,0,0,0,,,,,,,,74,0
137852,note_off,0,,,0,0,0,,,,,,,,69,0
137856,note_on,4,,,0,0,0,,,,,,,,81,100
137856,note_on,0,,,0,0,0,,,,,,,,78,100
137856,note_on,0,,,0,0,0,,,,,,,,66,100
137984,note_off,128,,,0,0,0,,,,,,,,81,0
137984,note_off,0,,,0,0,0,,,,,,,,78,0
137984,note_off,0,,,0,0,0,,,,,,,,66,0
138048,note_on,64,,,0,0,0,,,,,,,,78,100
138048,note_on,0,,,0,0,0,,,,,,,,74,100
138048,note_on,0,,,0,0,0,,,,,,,,69,100
138048,note_off,0,,,1,0,0,,,,,,,,38,0
138048,note_off,0,,,2,0,0,,,,,,,,38,0
138176,note_off,128,,,0,0,0,,,,,,,,78,0
138176,note_off,0,,,0,0,0,,,,,,,,74,0
138176,note_off,0,,,0,0,0,,,,,,,,69,0
138240,note_on,64,,,0,0,0,,,,,,,,76,100
138240,note_on,0,,,0,0,0,,,,,,,,73,100
138240,note_on,0,,,0,0,0,,,,,,,,64,100
138240,note_on,0,,,1,0,0,,,,,,,,45,106
138240,note_on,0,,,2,0,0,,,,,,,,45,87
138496,note_off,256,,,1,0,0,,,,,,,,45,0
138496,note_off,0,,,2,0,0,,,,,,,,45,0
138624,note_off,128,,,0,0,0,,,,,,,,76,0
138624,note_off,0,,,0,0,0,,,,,,,,73,0
138624,note_off,0,,,0,0,0,,,,,,,,64,0
138624,note_on,0,,,1,0,0,,,,,,,,57,106
138752,note_off,128,,,1,0,0,,,,,,,,57,0
138816,note_on,64,,,1,0,0,,,,,,,,57,106
139072,note_off,256,,,1,0,0,,,,,,,,57,0
139200,note_on,128,,,1,0,0,,,,,,,,55,106
139328,note_off,128,,,1,0,0,,,,,,,,55,0
139392,note_on,64,,,1,0,0,,,,,,,,54,106
139776,note_off,384,,,1,0,0,,,,,,,,54,0
139968,note_on,192,,,1,0,0,,,,,,,,54,106
140352,note_off,384,,,1,0,0,,,,,,,,54,0
140544,note_on,192,,,1,0,0,,,,,,,,55,106
141312,note_off,768,,,1,0,0,,,,,,,,55,0
141696,note_on,384,,,1,0,0,,,,,,,,52,106
142080,note_off,384,,,1,0,0,,,,,,,,52,0
142272,note_on,192,,,1,0,0,,,,,,,,52,106
142656,note_off,384,,,1,0,0,,,,,,,,52,0
142848,note_on,192,,,1,0,0,,,,,,,,54,106
143616,note_off,768,,,1,0,0,,,,,,,,54,0
144000,note_on,384,,,1,0,0,,,,,,,,50,106
144384,note_off,384,,,1,0,0,,,,,,,,50,0
144576,note_on,192,,,1,0,0,,,,,,,,50,106
144960,note_off,384,,,1,0,0,,,,,,,,50,0
145152,note_on,192,,,1,0,0,,,,,,,,52,106
145920,note_off,768,,,1,0,0,,,,,,,,52,0
146304,note_on,384,,,1,0,0,,,,,,,,49,106
146688,note_off,384,,,1,0,0,,,,,,,,49,0
146880,note_on,192,,,1,0,0,,,,,,,,49,106
147264,note_off,384,,,1,0,0,,,,,,,,49,0
147456,note_on,192,,,1,0,0,,,,,,,,50,106
148224,note_off,768,,,1,0,0,,,,,,,,50,0
148608,note_on,384,,,1,0,0,,,,,,,,49,106
148992,note_off,384,,,1,0,0,,,,,,,,49,0
149184,note_on,192,,,1,0,0,,,,,,,,49,106
149568,note_off,384,,,1,0,0,,,,,,,,49,0
149760,note_on,192,,,1,0,0,,,,,,,,50,106
150528,note_off,768,,,1,0,0,,,,,,,,50,0
150912,note_on,384,,,1,0,0,,,,,,,,57,106
151680,note_off,768,,,1,0,0,,,,,,,,57,0
152064,note_on,384,,,0,0,0,,,,,,,,78,100
152064,note_on,0,,,0,0,0,,,,,,,,74,100
152064,note_on,0,,,0,0,0,,,,,,,,74,100
152064,note_on,0,,,1,0,0,,,,,,,,50,106
152064,note_on,0,,,2,0,0,,,,,,,,50,87
152252,note_off,188,,,0,0,0,,,,,,,,78,0
152252,note_off,0,,,0,0,0,,,,,,,,74,0
152252,note_off,0,,,0,0,0,,,,,,,,74,0
152256,note_on,4,,,0,0,0,,,,,,,,81,100
152256,note_on,0,,,0,0,0,,,,,,,,78,100
152256,note_on,0,,,0,0,0,,,,,,,,69,100
152320,note_off,64,,,1,0,0,,,,,,,,50,0
152320,note_off,0,,,2,0,0,,,,,,,,50,0
152384,note_off,64,,,0,0,0,,,,,,,,81,0
152384,note_off,0,,,0,0,0,,,,,,,,78,0
152384,note_off,0,,,0,0,0,,,,,,,,69,0
152448,note_on,64,,,0,0,0,,,,,,,,78,100
152448,note_on,0,,,0,0,0,,,,,,,,74,100
152448,note_on,0,,,0,0,0,,,,,,,,74,100
152448,note_on,0,,,1,0,0,,,,,,,,50,106
152448,note_on,0,,,2,0,0,,,,,,,,50,87
152576,note_off,128,,,0,0,0,,,,,,,,78,0
152576,note_off,0,,,0,0,0,,,,,,,,74,0
152576,note_off,0,,,0,0,0,,,,,,,,74,0
152576,note_off,0,,,1,0,0,,,,,,,,50,0
152576,note_off,0,,,2,0,0,,,,,,,,50,0
152640,note_on,64,,,0,0,0,,,,,,,,76,100
152640,note_on,0,,,0,0,0,,,,,,,,73,100
152640,note_on,0,,,0,0,0,,,,,,,,73,100
152640,note_on,0,,,1,0,0,,,,,,,,45,106
152640,note_on,0,,,2,0,0,,,,,,,,45,87
152828,note_off,188,,,0,0,0,,,,,,,,76,0
152828,note_off,0,,,0,0,0,,,,,,,,73,0
152828,note_off,0,,,0,0,0,,,,,,,,73,0
152832,note_on,4,,,0,0,0,,,,,,,,81,100
152832,note_on,0,,,0,0,0,,,,,,,,76,100
152832,note_on,0,,,0,0,0,,,,,,,,69,100
152896,note_off,64,,,1,0,0,,,,,,,,45,0
152896,note_off,0,,,2,0,0,,,,,,,,45,0
152960,note_off,64,,,0,0,0,,,,,,,,81,0
152960,note_off,0,,,0,0,0,,,,,,,,76,0
152960,note_off,0,,,0,0,0,,,,,,,,69,0
153024,note_on,64,,,0,0,0,,,,,,,,76,100
153024,note_on,0,,,0,0,0,,,,,,,,73,100
153024,note_on,0,,,0,0,0,,,,,,,,73,100
153024,note_on,0,,,1,0,0,,,,,,,,45,106
153024,note_on,0,,,2,0,0,,,,,,,,45,87
153152,note_off,128,,,0,0,0,,,,,,,,76,0
153152,note_off,0,,,0,0,0,,,,,,,,73,0
153152,note_off,0,,,0,0,0,,,,,,,,73,0
153152,note_off,0,,,1,0,0,,,,,,,,45,0
153152,note_off,0,,,2,0,0,,,,,,,,45,0
153216,note_on,64,,,0,0,0,,,,,,,,78,100
153216,note_on,0,,,0,0,0,,,,,,,,74,100
153216,note_on,0,,,0,0,0,,,,,,,,74,100
153216,note_on,0,,,1,0,0,,,,,,,,50,106
153216,note_on,0,,,2,0,0,,,,,,,,50,87
153404,note_off,188,,,0,0,0,,,,,,,,78,0
153404,note_off,0,,,0,0,0,,,,,,,,74,0
153404,note_off,0,,,0,0,0,,,,,,,,74,0
153408,note_on,4,,,0,0,0,,,,,,,,81,100
153408,note_on,0,,,0,0,0,,,,,,,,78,100
153408,note_on,0,,,0,0,0,,,,,,,,69,100
153472,note_off,64,,,1,0,0,,,,,,,,50,0
153472,note_off,0,,,2,0,0,,,,,,,,50,0
153536,note_off,64,,,0,0,0,,,,,,,,81,0
153536,note_off,0,,,0,0,0,,,,,,,,78,0
153536,note_off,0,,,0,0,0,,,,,,,,69,0
153600,note_on,64,,,0,0,0,,,,,,,,78,100
153600,note_on,0,,,0,0,0,,,,,,,,74,100
153600,note_on,0,,,0,0,0,,,,,,,,74,100
153600,note_on,0,,,1,0,0,,,,,,,,50,106
153600,note_on,0,,,2,0,0,,,,,,,,50,87
153728,note_off,128,,,0,0,0,,,,,,,,78,0
153728,note_off,0,,,0,0,0,,,,,,,,74,0
153728,note_off,0,,,0,0,0,,,,,,,,74,0
153728,note_off,0,,,1,0,0,,,,,,,,50,0
153728,note_off,0,,,2,0,0,,,,,,,,50,0
153792,note_on,64,,,0,0,0,,,,,,,,76,100
153792,note_on,0,,,0,0,0,,,,,,,,73,100
153792,note_on,0,,,0,0,0,,,,,,,,73,100
153792,note_on,0,,,1,0,0,,,,,,,,45,106
153792,note_on,0,,,2,0,0,,,,,,,,45,87
153980,note_off,188,,,0,0,0,,,,,,,,76,0
153980,note_off,0,,,0,0,0,,,,,,,,73,0
153980,note_off,0,,,0,0,0,,,,,,,,73,0
153984,note_on,4,,,0,0,0,,,,,,,,81,100
153984,note_on,0,,,0,0,0,,,,,,,,76,100
153984,note_on,0,,,0,0,0,,,,,,,,69,100
154048,note_off,64,,,1,0,0,,,,,,,,45,0
154048,note_off,0,,,2,0,0,,,,,,,,45,0
154112,note_off,64,,,0,0,0,,,,,,,,81,0
154112,note_off,0,,,0,0,0,,,,,,,,76,0
154112,note_off,0,,,0,0,0,,,,,,,,69,0
154176,note_on,64,,,0,0,0,,,,,,,,76,100
154176,note_on,0,,,0,0,0,,,,,,,,73,100
154176,note_on,0,,,0,0,0,,,,,,,,73,100
154176,note_on,0,,,1,0,0,,,,,,,,45,106
154176,note_on,0,,,2,0,0,,,,,,,,45,87
154304,note_off,128,,,0,0,0,,,,,,,,76,0
154304,note_off,0,,,0,0,0,,,,,,,,73,0
154304,note_off,0,,,0,0,0,,,,,,,,73,0
154304,note_off,0,,,1,0,0,,,,,,,,45,0
154304,note_off,0,,,2,0,0,,,,,,,,45,0
154368,note_on,64,,,0,0,0,,,,,,,,78,100
154368,note_on,0,,,0,0,0,,,,,,,,74,100
154368,note_on,0,,,0,0,0,,,,,,,,62,100
154368,note_on,0,,,1,0,0,,,,,,,,50,106
154368,note_on,0,,,2,0,0,,,,,,,,50,87
154496,note_off,128,,,0,0,0,,,,,,,,78,0
154496,note_off,0,,,0,0,0,,,,,,,,74,0
154560,note_on,64,,,0,0,0,,,,,,,,79,100
154560,note_on,0,,,0,0,0,,,,,,,,76,100
154624,note_off,64,,,1,0,0,,,,,,,,50,0
154624,note_off,0,,,2,0,0,,,,,,,,50,0
154688,note_off,64,,,0,0,0,,,,,,,,79,0
154688,note_off,0,,,0,0,0,,,,,,,,76,0
154752,note_on,64,,,0,0,0,,,,,,,,81,100
154752,note_on,0,,,0,0,0,,,,,,,,78,100
154752,note_off,0,,,0,0,0,,,,,,,,62,0
154752,note_on,0,,,1,0,0,,,,,,,,50,106
154752,note_on,0,,,2,0,0,,,,,,,,50,87
154880,note_off,128,,,0,0,0,,,,,,,,81,0
154880,note_off,0,,,0,0,0,,,,,,,,78,0
154880,note_off,0,,,1,0,0,,,,,,,,50,0
154880,note_off,0,,,2,0,0,,,,,,,,50,0
154944,note_on,64,,,0,0,0,,,,,,,,78,100
154944,note_on,0,,,0,0,0,,,,,,,,74,100
154944,note_on,0,,,0,0,0,,,,,,,,69,100
154944,note_on,0,,,1,0,0,,,,,,,,57,106
154944,note_on,0,,,2,0,0,,,,,,,,57,87
155132,note_off,188,,,0,0,0,,,,,,,,78,0
155132,note_off,0,,,0,0,0,,,,,,,,74,0
155136,note_on,4,,,0,0,0,,,,,,,,79,100
155136,note_on,0,,,0,0,0,,,,,,,,76,100
155200,note_off,64,,,1,0,0,,,,,,,,57,0
155200,note_off,0,,,2,0,0,,,,,,,,57,0
155264,note_off,64,,,0,0,0,,,,,,,,79,0
155264,note_off,0,,,0,0,0,,,,,,,,76,0
155328,note_on,64,,,0,0,0,,,,,,,,76,100
155328,note_on,0,,,0,0,0,,,,,,,,73,100
155328,note_off,0,,,0,0,0,,,,,,,,69,0
155328,note_on,0,,,1,0,0,,,,,,,,45,106
155328,note_on,0,,,2,0,0,,,,,,,,45,87
155456,note_off,128,,,0,0,0,,,,,,,,76,0
155456,note_off,0,,,0,0,0,,,,,,,,73,0
155456,note_off,0,,,1,0,0,,,,,,,,45,0
155456,note_off,0,,,2,0,0,,,,,,,,45,0
155520,note_on,64,,,0,0,0,,,,,,,,74,100
155520,note_on,0,,,0,0,0,,,,,,,,74,100
155520,note_on,0,,,0,0,0,,,,,,,,62,100
155520,note_on,0,,,1,0,0,,,,,,,,50,106
155520,note_on,0,,,2,0,0,,,,,,,,50,87
156288,note_off,768,,,0,0,0,,,,,,,,74,0
156288,note_off,0,,,0,0,0,,,,,,,,74,0
156288,note_off,0,,,0,0,0,,,,,,,,62,0
156288,note_off,0,,,1,0,0,,,,,,,,50,0
156288,note_off,0,,,2,0,0,,,,,,,,50,0
156288,end_of_track,0,,,,1,0,,,,,,,,,
