tick,type,numerator,denominator,clocks_per_click,notated_32nd_notes_per_beat,time,meta,track,key,tempo,program,channel,note,velocity
0,time_signature,4,4,24,8,0,1,0,,,,,,
0,track_name,,,,,0,1,4,,,,,,
0,program_change,,,,,0,0,4,,,68,12,,
0,track_name,,,,,0,1,5,,,,,,
0,program_change,,,,,0,0,5,,,42,3,,
0,track_name,,,,,0,1,6,,,,,,
0,program_change,,,,,0,0,6,,,6,1,,
0,program_change,,,,,0,0,3,,,66,6,,
0,program_change,,,,,0,0,2,,,71,2,,
0,track_name,,,,,0,1,2,,,,,,
0,program_change,,,,,0,0,1,,,90,0,,
0,track_name,,,,,0,1,1,,,,,,
0,track_name,,,,,0,1,3,,,,,,
0,key_signature,,,,,0,1,0,C,,,,,
0,set_tempo,,,,,0,1,0,,625000,,,,
3584,note_on,,,,,3584,0,2,,,,2,69,127
3584,note_on,,,,,0,0,6,,,,1,69,117
3584,note_on,,,,,0,0,6,,,,1,64,117
3584,note_on,,,,,0,0,6,,,,1,60,117
3584,note_on,,,,,3584,0,6,,,,1,57,117
3584,note_on,,,,,0,0,6,,,,1,45,101
3584,note_on,,,,,3584,0,5,,,,3,45,101
3584,note_on,,,,,3584,0,3,,,,6,60,114
4096,note_on,,,,,0,0,6,,,,1,57,117
4096,note_off,,,,,0,0,6,,,,1,60,0
4096,note_off,,,,,512,0,6,,,,1,57,0
4096,note_on,,,,,0,0,6,,,,1,64,117
4096,note_on,,,,,0,0,6,,,,1,72,117
4096,note_on,,,,,0,0,6,,,,1,45,101
4096,note_on,,,,,0,0,5,,,,3,45,101
4096,note_on,,,,,0,0,2,,,,2,72,127
4096,note_off,,,,,512,0,2,,,,2,69,0
4096,note_off,,,,,0,0,6,,,,1,45,0
4096,note_off,,,,,512,0,3,,,,6,60,0
4096,note_on,,,,,0,0,3,,,,6,64,114
4096,note_off,,,,,512,0,5,,,,3,45,0
4096,note_off,,,,,0,0,6,,,,1,64,0
4096,note_off,,,,,0,0,6,,,,1,69,0
4266,note_on,,,,,0,0,6,,,,1,71,117
4266,note_off,,,,,170,0,6,,,,1,72,0
4267,note_on,,,,,0,0,2,,,,2,71,127
4267,note_off,,,,,171,0,2,,,,2,72,0
4437,note_off,,,,,170,0,2,,,,2,71,0
4437,note_on,,,,,171,0,6,,,,1,69,117
4437,note_off,,,,,0,0,6,,,,1,71,0
4437,note_on,,,,,0,0,2,,,,2,69,127
4608,note_off,,,,,171,0,6,,,,1,57,0
4608,note_on,,,,,0,0,5,,,,3,45,101
4608,note_off,,,,,512,0,5,,,,3,45,0
4608,note_off,,,,,0,0,6,,,,1,64,0
4608,note_on,,,,,0,0,6,,,,1,76,117
4608,note_on,,,,,0,0,6,,,,1,57,117
4608,note_off,,,,,512,0,3,,,,6,64,0
4608,note_off,,,,,0,0,6,,,,1,69,0
4608,note_on,,,,,0,0,2,,,,2,76,127
4608,note_off,,,,,171,0,2,,,,2,69,0
4608,note_off,,,,,0,0,6,,,,1,45,0
4608,note_on,,,,,0,0,6,,,,1,64,117
4608,note_on,,,,,0,0,6,,,,1,60,117
4608,note_on,,,,,0,0,6,,,,1,45,101
4778,note_off,,,,,170,0,6,,,,1,76,0
4778,note_on,,,,,0,0,6,,,,1,74,117
4779,note_on,,,,,0,0,2,,,,2,74,127
4779,note_off,,,,,171,0,2,,,,2,76,0
4949,note_on,,,,,171,0,6,,,,1,72,117
4949,note_on,,,,,0,0,2,,,,2,72,127
4949,note_off,,,,,170,0,2,,,,2,74,0
4949,note_off,,,,,0,0,6,,,,1,74,0
5120,note_on,,,,,0,0,6,,,,1,45,101
5120,note_off,,,,,0,0,6,,,,1,45,0
5120,note_on,,,,,0,0,6,,,,1,81,117
5120,note_on,,,,,0,0,6,,,,1,76,117
5120,note_off,,,,,0,0,6,,,,1,64,0
5120,note_on,,,,,0,0,5,,,,3,45,101
5120,note_on,,,,,0,0,6,,,,1,57,117
5120,note_off,,,,,0,0,6,,,,1,72,0
5120,note_off,,,,,171,0,6,,,,1,57,0
5120,note_off,,,,,512,0,5,,,,3,45,0
5120,note_on,,,,,0,0,6,,,,1,72,117
5120,note_off,,,,,0,0,6,,,,1,60,0
5120,note_on,,,,,0,0,2,,,,2,81,127
5120,note_off,,,,,171,0,2,,,,2,72,0
5120,note_on,,,,,512,0,3,,,,6,72,114
5632,note_on,,,,,0,0,6,,,,1,69,117
5632,note_on,,,,,0,0,6,,,,1,72,117
5632,note_on,,,,,0,0,5,,,,3,45,101
5632,note_on,,,,,0,0,6,,,,1,57,117
5632,note_off,,,,,0,0,6,,,,1,81,0
5632,note_off,,,,,0,0,6,,,,1,76,0
5632,note_off,,,,,512,0,6,,,,1,57,0
5632,note_on,,,,,0,0,6,,,,1,76,117
5632,note_off,,,,,512,0,3,,,,6,72,0
5632,note_on,,,,,0,0,3,,,,6,72,114
5632,note_off,,,,,512,0,2,,,,2,81,0
5632,note_on,,,,,0,0,2,,,,2,76,127
5632,note_off,,,,,0,0,6,,,,1,72,0
5632,note_off,,,,,0,0,6,,,,1,45,0
5632,note_off,,,,,512,0,5,,,,3,45,0
5632,note_on,,,,,0,0,6,,,,1,45,101
6144,note_off,,,,,512,0,6,,,,1,57,0
6144,note_off,,,,,512,0,5,,,,3,45,0
6144,note_on,,,,,0,0,2,,,,2,79,127
6144,note_off,,,,,512,0,2,,,,2,76,0
6144,note_on,,,,,0,0,3,,,,6,69,114
6144,note_on,,,,,0,0,6,,,,1,50,101
6144,note_off,,,,,0,0,6,,,,1,45,0
6144,note_off,,,,,512,0,3,,,,6,72,0
6144,note_on,,,,,0,0,6,,,,1,77,117
6144,note_on,,,,,0,0,6,,,,1,74,117
6144,note_on,,,,,0,0,6,,,,1,69,117
6144,note_on,,,,,0,0,6,,,,1,62,117
6144,note_off,,,,,0,0,6,,,,1,76,0
6144,note_off,,,,,0,0,6,,,,1,72,0
6144,note_off,,,,,0,0,6,,,,1,69,0
6144,note_on,,,,,0,0,6,,,,1,79,117
6144,note_on,,,,,0,0,5,,,,3,50,101
6212,note_off,,,,,68,0,6,,,,1,79,0
6229,note_on,,,,,17,0,6,,,,1,77,117
6272,note_off,,,,,128,0,2,,,,2,79,0
6272,note_on,,,,,0,0,2,,,,2,77,127
6297,note_off,,,,,68,0,6,,,,1,77,0
6314,note_on,,,,,17,0,6,,,,1,79,117
6382,note_off,,,,,68,0,6,,,,1,79,0
6400,note_on,,,,,18,0,6,,,,1,77,117
6400,note_on,,,,,0,0,2,,,,2,79,127
6400,note_off,,,,,128,0,2,,,,2,77,0
6468,note_off,,,,,68,0,6,,,,1,77,0
6485,note_on,,,,,17,0,6,,,,1,79,117
6528,note_on,,,,,0,0,2,,,,2,77,127
6528,note_off,,,,,128,0,2,,,,2,79,0
6553,note_off,,,,,68,0,6,,,,1,79,0
6656,note_off,,,,,128,0,2,,,,2,77,0
6656,note_off,,,,,512,0,5,,,,3,50,0
6656,note_off,,,,,103,0,6,,,,1,62,0
6656,note_on,,,,,0,0,5,,,,3,57,101
6656,note_off,,,,,0,0,6,,,,1,69,0
6656,note_off,,,,,0,0,6,,,,1,74,0
6656,note_off,,,,,0,0,6,,,,1,77,0
6656,note_on,,,,,0,0,2,,,,2,76,127
6656,note_on,,,,,0,0,6,,,,1,57,117
6656,note_on,,,,,0,0,6,,,,1,72,117
6656,note_on,,,,,0,0,6,,,,1,76,117
6656,note_off,,,,,0,0,6,,,,1,50,0
6656,note_on,,,,,0,0,6,,,,1,57,101
6656,note_on,,,,,0,0,3,,,,6,72,114
6656,note_off,,,,,512,0,3,,,,6,69,0
6656,note_on,,,,,0,0,6,,,,1,69,117
7168,note_on,,,,,0,0,5,,,,3,60,101
7168,note_off,,,,,512,0,5,,,,3,57,0
7168,note_off,,,,,512,0,6,,,,1,57,0
7168,note_off,,,,,0,0,6,,,,1,69,0
7168,note_on,,,,,0,0,6,,,,1,60,101
7168,note_off,,,,,0,0,6,,,,1,57,0
7168,note_on,,,,,0,0,6,,,,1,64,117
7168,note_on,,,,,0,0,6,,,,1,60,117
7168,note_off,,,,,0,0,6,,,,1,76,0
7168,note_off,,,,,0,0,6,,,,1,72,0
7168,note_off,,,,,512,0,2,,,,2,76,0
7168,note_off,,,,,512,0,3,,,,6,72,0
7168,note_on,,,,,0,0,3,,,,6,69,114
7680,note_off,,,,,512,0,5,,,,3,60,0
7680,note_on,,,,,0,0,6,,,,1,57,101
7680,note_on,,,,,0,0,6,,,,1,69,117
7680,note_off,,,,,0,0,6,,,,1,60,0
7680,note_on,,,,,0,0,5,,,,3,57,101
7680,note_off,,,,,512,0,3,,,,6,69,0
7680,note_on,,,,,0,0,6,,,,1,64,117
7680,note_on,,,,,0,0,6,,,,1,60,117
7680,note_on,,,,,0,0,6,,,,1,57,117
7680,note_off,,,,,0,0,6,,,,1,64,0
7680,note_off,,,,,512,0,6,,,,1,60,0
7680,note_on,,,,,0,0,3,,,,6,64,114
7680,note_on,,,,,512,0,2,,,,2,69,127
8192,note_on,,,,,0,0,2,,,,2,72,127
8192,note_off,,,,,512,0,2,,,,2,69,0
8192,note_off,,,,,512,0,5,,,,3,57,0
8192,note_on,,,,,0,0,5,,,,3,45,101
8192,note_off,,,,,512,0,3,,,,6,64,0
8192,note_on,,,,,0,0,3,,,,6,64,114
8192,note_off,,,,,512,0,6,,,,1,57,0
8192,note_off,,,,,0,0,6,,,,1,69,0
8192,note_off,,,,,0,0,6,,,,1,64,0
8192,note_off,,,,,0,0,6,,,,1,57,0
8192,note_on,,,,,0,0,6,,,,1,57,117
8192,note_on,,,,,0,0,6,,,,1,64,117
8192,note_off,,,,,0,0,6,,,,1,60,0
8192,note_on,,,,,0,0,6,,,,1,72,117
8192,note_on,,,,,0,0,6,,,,1,45,101
8362,note_on,,,,,0,0,6,,,,1,71,117
8362,note_off,,,,,170,0,6,,,,1,72,0
8363,note_off,,,,,171,0,2,,,,2,72,0
8363,note_on,,,,,0,0,2,,,,2,71,127
8533,note_off,,,,,170,0,2,,,,2,71,0
8533,note_on,,,,,0,0,2,,,,2,69,127
8533,note_on,,,,,171,0,6,,,,1,69,117
8533,note_off,,,,,0,0,6,,,,1,71,0
8704,note_off,,,,,0,0,6,,,,1,69,0
8704,note_on,,,,,0,0,6,,,,1,64,117
8704,note_on,,,,,0,0,6,,,,1,60,117
8704,note_on,,,,,0,0,6,,,,1,76,117
8704,note_off,,,,,0,0,6,,,,1,45,0
8704,note_on,,,,,0,0,6,,,,1,45,101
8704,note_on,,,,,0,0,6,,,,1,57,117
8704,note_off,,,,,512,0,5,,,,3,45,0
8704,note_on,,,,,0,0,5,,,,3,45,101
8704,note_off,,,,,171,0,6,,,,1,57,0
8704,note_off,,,,,512,0,3,,,,6,64,0
8704,note_off,,,,,171,0,2,,,,2,69,0
8704,note_on,,,,,0,0,2,,,,2,76,127
8704,note_off,,,,,0,0,6,,,,1,64,0
8874,note_off,,,,,170,0,6,,,,1,76,0
8874,note_on,,,,,0,0,6,,,,1,74,117
8875,note_off,,,,,171,0,2,,,,2,76,0
8875,note_on,,,,,0,0,2,,,,2,74,127
9045,note_off,,,,,0,0,6,,,,1,74,0
9045,note_on,,,,,0,0,2,,,,2,72,127
9045,note_off,,,,,170,0,2,,,,2,74,0
9045,note_on,,,,,171,0,6,,,,1,72,117
9216,note_off,,,,,171,0,6,,,,1,57,0
9216,note_off,,,,,0,0,6,,,,1,60,0
9216,note_off,,,,,0,0,6,,,,1,72,0
9216,note_on,,,,,0,0,6,,,,1,62,117
9216,note_off,,,,,171,0,2,,,,2,72,0
9216,note_on,,,,,512,0,3,,,,6,69,114
9216,note_on,,,,,0,0,2,,,,2,77,127
9216,note_on,,,,,0,0,5,,,,3,50,101
9216,note_off,,,,,512,0,5,,,,3,45,0
9216,note_on,,,,,0,0,6,,,,1,69,117
9216,note_on,,,,,0,0,6,,,,1,77,117
9216,note_off,,,,,0,0,6,,,,1,45,0
9216,note_on,,,,,0,0,6,,,,1,50,101
9216,note_off,,,,,0,0,6,,,,1,64,0
9728,note_on,,,,,0,0,6,,,,1,66,117
9728,note_off,,,,,512,0,5,,,,3,50,0
9728,note_off,,,,,512,0,6,,,,1,62,0
9728,note_off,,,,,512,0,3,,,,6,69,0
9728,note_on,,,,,0,0,3,,,,6,66,114
9728,note_on,,,,,0,0,2,,,,2,69,127
9728,note_off,,,,,512,0,2,,,,2,77,0
9728,note_off,,,,,0,0,6,,,,1,50,0
9728,note_on,,,,,0,0,6,,,,1,51,101
9728,note_off,,,,,0,0,6,,,,1,69,0
9728,note_off,,,,,0,0,6,,,,1,77,0
9728,note_on,,,,,0,0,6,,,,1,69,117
9728,note_on,,,,,0,0,6,,,,1,60,117
9728,note_on,,,,,0,0,5,,,,3,51,101
10240,note_on,,,,,0,0,6,,,,1,52,101
10240,note_off,,,,,512,0,3,,,,6,66,0
10240,note_off,,,,,0,0,6,,,,1,51,0
10240,note_on,,,,,0,0,6,,,,1,68,117
10240,note_on,,,,,0,0,6,,,,1,64,117
10240,note_on,,,,,0,0,3,,,,6,64,114
10240,note_off,,,,,0,0,6,,,,1,66,0
10240,note_on,,,,,0,0,2,,,,2,68,127
10240,note_on,,,,,0,0,6,,,,1,59,117
10240,note_off,,,,,0,0,6,,,,1,69,0
10240,note_off,,,,,512,0,2,,,,2,69,0
10240,note_off,,,,,512,0,6,,,,1,60,0
10240,note_off,,,,,512,0,5,,,,3,51,0
10240,note_on,,,,,0,0,5,,,,3,52,101
10752,note_off,,,,,0,0,6,,,,1,68,0
10752,note_on,,,,,0,0,6,,,,1,60,117
10752,note_on,,,,,0,0,6,,,,1,64,117
10752,note_on,,,,,0,0,6,,,,1,69,117
10752,note_off,,,,,0,0,6,,,,1,52,0
10752,note_on,,,,,0,0,6,,,,1,45,101
10752,note_off,,,,,0,0,6,,,,1,64,0
10752,note_off,,,,,512,0,6,,,,1,59,0
10752,note_on,,,,,0,0,3,,,,6,64,114
10752,note_on,,,,,0,0,2,,,,2,69,127
10752,note_on,,,,,0,0,5,,,,3,45,101
10752,note_off,,,,,512,0,5,,,,3,52,0
10752,note_off,,,,,512,0,2,,,,2,68,0
10752,note_off,,,,,512,0,3,,,,6,64,0
11264,note_on,,,,,0,0,6,,,,1,64,117
11264,note_off,,,,,0,0,6,,,,1,69,0
11264,note_off,,,,,0,0,6,,,,1,64,0
11264,note_off,,,,,512,0,6,,,,1,60,0
11264,note_on,,,,,0,0,5,,,,3,48,101
11264,note_off,,,,,512,0,5,,,,3,45,0
11264,note_off,,,,,0,0,6,,,,1,45,0
11264,note_on,,,,,0,0,3,,,,6,64,114
11264,note_off,,,,,512,0,3,,,,6,64,0
11264,note_off,,,,,512,0,2,,,,2,69,0
11264,note_on,,,,,0,0,6,,,,1,48,101
11776,note_on,,,,,0,0,6,,,,1,45,101
11776,note_off,,,,,0,0,6,,,,1,48,0
11776,note_on,,,,,0,0,6,,,,1,76,117
11776,note_on,,,,,0,0,6,,,,1,72,117
11776,note_on,,,,,0,0,6,,,,1,69,117
11776,note_on,,,,,0,0,6,,,,1,57,117
11776,note_off,,,,,512,0,6,,,,1,64,0
11776,note_off,,,,,512,0,5,,,,3,48,0
11776,note_off,,,,,512,0,3,,,,6,64,0
11776,note_on,,,,,0,0,3,,,,6,72,114
11776,note_on,,,,,0,0,5,,,,3,45,101
11776,note_on,,,,,512,0,2,,,,2,76,127
12288,note_on,,,,,0,0,2,,,,2,77,127
12288,note_on,,,,,0,0,6,,,,1,50,101
12288,note_on,,,,,0,0,6,,,,1,77,117
12288,note_on,,,,,0,0,6,,,,1,69,117
12288,note_off,,,,,0,0,6,,,,1,45,0
12288,note_off,,,,,0,0,6,,,,1,76,0
12288,note_off,,,,,0,0,6,,,,1,72,0
12288,note_off,,,,,0,0,6,,,,1,69,0
12288,note_off,,,,,512,0,6,,,,1,57,0
12288,note_off,,,,,512,0,2,,,,2,76,0
12288,note_on,,,,,0,0,3,,,,6,69,114
12288,note_off,,,,,512,0,3,,,,6,72,0
12288,note_on,,,,,0,0,5,,,,3,50,101
12288,note_off,,,,,512,0,5,,,,3,45,0
12458,note_off,,,,,170,0,6,,,,1,77,0
12458,note_on,,,,,0,0,6,,,,1,76,117
12459,note_off,,,,,171,0,2,,,,2,77,0
12459,note_on,,,,,0,0,2,,,,2,76,127
12629,note_off,,,,,0,0,6,,,,1,76,0
12629,note_on,,,,,171,0,6,,,,1,74,117
12629,note_off,,,,,170,0,2,,,,2,76,0
12629,note_on,,,,,0,0,2,,,,2,74,127
12800,note_on,,,,,0,0,6,,,,1,69,117
12800,note_on,,,,,0,0,6,,,,1,77,117
12800,note_off,,,,,0,0,6,,,,1,74,0
12800,note_off,,,,,171,0,6,,,,1,69,0
12800,note_on,,,,,0,0,2,,,,2,77,127
12800,note_off,,,,,171,0,2,,,,2,74,0
12970,note_off,,,,,170,0,6,,,,1,77,0
12970,note_on,,,,,0,0,6,,,,1,76,117
12971,note_off,,,,,171,0,2,,,,2,77,0
12971,note_on,,,,,0,0,2,,,,2,76,127
13141,note_off,,,,,0,0,6,,,,1,76,0
13141,note_on,,,,,171,0,6,,,,1,74,117
13141,note_on,,,,,0,0,2,,,,2,74,127
13141,note_off,,,,,170,0,2,,,,2,76,0
13312,note_on,,,,,0,0,3,,,,6,67,114
13312,note_off,,,,,1024,0,3,,,,6,69,0
13312,note_off,,,,,0,0,6,,,,1,50,0
13312,note_on,,,,,0,0,2,,,,2,79,127
13312,note_off,,,,,171,0,6,,,,1,69,0
13312,note_off,,,,,0,0,6,,,,1,74,0
13312,note_on,,,,,0,0,6,,,,1,67,117
13312,note_on,,,,,0,0,6,,,,1,79,117
13312,note_on,,,,,0,0,6,,,,1,47,101
13312,note_off,,,,,171,0,2,,,,2,74,0
13312,note_off,,,,,1024,0,5,,,,3,50,0
13312,note_on,,,,,0,0,5,,,,3,47,101
13824,note_off,,,,,0,0,6,,,,1,79,0
13824,note_on,,,,,0,0,6,,,,1,67,117
13824,note_on,,,,,0,0,6,,,,1,74,117
13824,note_on,,,,,0,0,2,,,,2,74,127
13824,note_off,,,,,512,0,2,,,,2,79,0
13824,note_off,,,,,512,0,6,,,,1,67,0
14336,note_on,,,,,0,0,2,,,,2,76,127
14336,note_off,,,,,512,0,2,,,,2,74,0
14336,note_on,,,,,0,0,6,,,,1,48,101
14336,note_off,,,,,1024,0,3,,,,6,67,0
14336,note_off,,,,,0,0,6,,,,1,47,0
14336,note_on,,,,,0,0,6,,,,1,76,117
14336,note_on,,,,,0,0,3,,,,6,67,114
14336,note_on,,,,,0,0,5,,,,3,48,101
14336,note_off,,,,,1024,0,5,,,,3,47,0
14336,note_on,,,,,0,0,6,,,,1,67,117
14336,note_off,,,,,0,0,6,,,,1,74,0
14336,note_off,,,,,512,0,6,,,,1,67,0
14506,note_off,,,,,170,0,6,,,,1,76,0
14506,note_on,,,,,0,0,6,,,,1,74,117
14507,note_off,,,,,171,0,2,,,,2,76,0
14507,note_on,,,,,0,0,2,,,,2,74,127
14677,note_off,,,,,0,0,6,,,,1,74,0
14677,note_on,,,,,0,0,2,,,,2,72,127
14677,note_on,,,,,171,0,6,,,,1,72,117
14677,note_off,,,,,170,0,2,,,,2,74,0
14848,note_off,,,,,171,0,2,,,,2,72,0
14848,note_on,,,,,0,0,6,,,,1,76,117
14848,note_on,,,,,0,0,6,,,,1,67,117
14848,note_off,,,,,0,0,6,,,,1,72,0
14848,note_on,,,,,0,0,2,,,,2,76,127
14848,note_off,,,,,171,0,6,,,,1,67,0
15018,note_off,,,,,170,0,6,,,,1,76,0
15018,note_on,,,,,0,0,6,,,,1,74,117
15019,note_off,,,,,171,0,2,,,,2,76,0
15019,note_on,,,,,0,0,2,,,,2,74,127
15189,note_on,,,,,0,0,2,,,,2,72,127
15189,note_on,,,,,171,0,6,,,,1,72,117
15189,note_off,,,,,0,0,6,,,,1,74,0
15189,note_off,,,,,170,0,2,,,,2,74,0
15360,note_on,,,,,0,0,3,,,,6,65,114
15360,note_on,,,,,0,0,6,,,,1,45,101
15360,note_off,,,,,0,0,6,,,,1,72,0
15360,note_off,,,,,0,0,6,,,,1,48,0
15360,note_on,,,,,0,0,6,,,,1,65,117
15360,note_off,,,,,171,0,2,,,,2,72,0
15360,note_on,,,,,0,0,2,,,,2,77,127
15360,note_off,,,,,1024,0,3,,,,6,67,0
15360,note_on,,,,,0,0,6,,,,1,77,117
15360,note_on,,,,,0,0,5,,,,3,45,101
15360,note_off,,,,,1024,0,5,,,,3,48,0
15360,note_off,,,,,171,0,6,,,,1,67,0
15872,note_on,,,,,0,0,6,,,,1,72,117
15872,note_on,,,,,0,0,6,,,,1,65,117
15872,note_off,,,,,0,0,6,,,,1,77,0
15872,note_on,,,,,0,0,2,,,,2,72,127
15872,note_off,,,,,512,0,6,,,,1,65,0
15872,note_off,,,,,512,0,2,,,,2,77,0
16384,note_on,,,,,0,0,5,,,,3,47,101
16384,note_off,,,,,1024,0,5,,,,3,45,0
16384,note_on,,,,,0,0,2,,,,2,74,127
16384,note_on,,,,,0,0,6,,,,1,74,117
16384,note_on,,,,,0,0,6,,,,1,47,101
16384,note_off,,,,,0,0,6,,,,1,45,0
16384,note_off,,,,,512,0,2,,,,2,72,0
16384,note_off,,,,,512,0,6,,,,1,65,0
16384,note_on,,,,,0,0,6,,,,1,65,117
16384,note_off,,,,,0,0,6,,,,1,72,0
16554,note_off,,,,,170,0,6,,,,1,74,0
16554,note_on,,,,,0,0,6,,,,1,72,117
16555,note_off,,,,,171,0,2,,,,2,74,0
16555,note_on,,,,,0,0,2,,,,2,72,127
16725,note_off,,,,,0,0,6,,,,1,72,0
16725,note_off,,,,,170,0,2,,,,2,72,0
16725,note_on,,,,,171,0,6,,,,1,71,117
16725,note_on,,,,,0,0,2,,,,2,71,127
16896,note_on,,,,,0,0,6,,,,1,74,117
16896,note_off,,,,,0,0,6,,,,1,71,0
16896,note_off,,,,,171,0,6,,,,1,65,0
16896,note_on,,,,,0,0,6,,,,1,65,117
16896,note_on,,,,,0,0,2,,,,2,74,127
16896,note_off,,,,,171,0,2,,,,2,71,0
17066,note_off,,,,,170,0,6,,,,1,74,0
17066,note_on,,,,,0,0,6,,,,1,72,117
17067,note_off,,,,,171,0,2,,,,2,74,0
17067,note_on,,,,,0,0,2,,,,2,72,127
17237,note_off,,,,,170,0,2,,,,2,72,0
17237,note_on,,,,,0,0,2,,,,2,71,127
17237,note_on,,,,,171,0,6,,,,1,71,117
17237,note_off,,,,,0,0,6,,,,1,72,0
17408,note_on,,,,,0,0,5,,,,3,44,101
17408,note_off,,,,,1024,0,5,,,,3,47,0
17408,note_on,,,,,0,0,2,,,,2,76,127
17408,note_off,,,,,171,0,2,,,,2,71,0
17408,note_on,,,,,0,0,6,,,,1,44,101
17408,note_off,,,,,171,0,6,,,,1,65,0
17408,note_on,,,,,0,0,6,,,,1,76,117
17408,note_on,,,,,0,0,6,,,,1,64,117
17408,note_off,,,,,0,0,6,,,,1,71,0
17408,note_off,,,,,2048,0,3,,,,6,65,0
17408,note_on,,,,,0,0,3,,,,6,64,114
17408,note_off,,,,,0,0,6,,,,1,47,0
17920,note_off,,,,,512,0,6,,,,1,64,0
17920,note_off,,,,,0,0,6,,,,1,76,0
17920,note_on,,,,,0,0,6,,,,1,64,117
17920,note_off,,,,,512,0,2,,,,2,76,0
17920,note_on,,,,,0,0,6,,,,1,71,117
17920,note_on,,,,,0,0,2,,,,2,71,127
18432,note_on,,,,,0,0,5,,,,3,45,101
18432,note_on,,,,,0,0,6,,,,1,72,117
18432,note_off,,,,,1024,0,5,,,,3,44,0
18432,note_on,,,,,0,0,3,,,,6,64,114
18432,note_off,,,,,1024,0,3,,,,6,64,0
18432,note_on,,,,,0,0,6,,,,1,64,117
18432,note_on,,,,,0,0,2,,,,2,72,127
18432,note_off,,,,,512,0,2,,,,2,71,0
18432,note_off,,,,,512,0,6,,,,1,64,0
18432,note_off,,,,,0,0,6,,,,1,71,0
18432,note_off,,,,,0,0,6,,,,1,44,0
18432,note_on,,,,,0,0,6,,,,1,45,101
18944,note_on,,,,,0,0,5,,,,3,57,101
18944,note_on,,,,,0,0,3,,,,6,60,114
18944,note_off,,,,,512,0,5,,,,3,45,0
18944,note_on,,,,,0,0,6,,,,1,57,101
18944,note_off,,,,,0,0,6,,,,1,45,0
18944,note_on,,,,,0,0,6,,,,1,69,117
18944,note_on,,,,,0,0,6,,,,1,57,117
18944,note_off,,,,,512,0,3,,,,6,64,0
18944,note_on,,,,,0,0,2,,,,2,69,127
18944,note_off,,,,,512,0,6,,,,1,72,0
18944,note_off,,,,,512,0,2,,,,2,72,0
19456,note_off,,,,,512,0,6,,,,1,64,0
19456,note_on,,,,,0,0,6,,,,1,64,117
19456,note_on,,,,,0,0,6,,,,1,55,117
19456,note_off,,,,,0,0,6,,,,1,69,0
19456,note_on,,,,,0,0,3,,,,6,64,114
19456,note_off,,,,,512,0,3,,,,6,60,0
19456,note_on,,,,,0,0,5,,,,3,55,101
19456,note_off,,,,,0,0,6,,,,1,57,0
19456,note_off,,,,,0,0,6,,,,1,57,0
19456,note_off,,,,,512,0,5,,,,3,57,0
19456,note_off,,,,,512,0,2,,,,2,69,0
19456,note_on,,,,,0,0,6,,,,1,55,101
19968,note_on,,,,,0,0,6,,,,1,76,117
19968,note_off,,,,,0,0,6,,,,1,55,0
19968,note_on,,,,,0,0,6,,,,1,67,117
19968,note_on,,,,,0,0,6,,,,1,59,117
19968,note_on,,,,,512,0,2,,,,2,76,62
19968,note_off,,,,,512,0,6,,,,1,55,0
19968,note_off,,,,,512,0,3,,,,6,64,0
19968,note_on,,,,,0,0,6,,,,1,52,101
19968,note_off,,,,,512,0,5,,,,3,55,0
19968,note_on,,,,,0,0,5,,,,3,52,62
19968,note_off,,,,,0,0,6,,,,1,64,0
19968,note_on,,,,,0,0,3,,,,6,67,62
20480,note_on,,,,,0,0,5,,,,3,59,62
20480,note_off,,,,,0,0,6,,,,1,67,0
20480,note_on,,,,,0,0,6,,,,1,59,101
20480,note_on,,,,,0,0,6,,,,1,75,103
20480,note_on,,,,,0,0,3,,,,6,75,62
20480,note_on,,,,,0,0,6,,,,1,71,103
20480,note_on,,,,,0,0,6,,,,1,59,92
20480,note_off,,,,,0,0,6,,,,1,52,0
20480,note_off,,,,,512,0,3,,,,6,67,0
20480,note_on,,,,,0,0,2,,,,2,75,62
20480,note_off,,,,,512,0,2,,,,2,76,0
20480,note_off,,,,,512,0,5,,,,3,52,0
20480,note_off,,,,,0,0,6,,,,1,76,0
20480,note_off,,,,,512,0,6,,,,1,59,0
20736,note_on,,,,,0,0,2,,,,2,76,62
20736,note_off,,,,,256,0,2,,,,2,75,0
20736,note_off,,,,,256,0,3,,,,6,75,0
20736,note_on,,,,,0,0,3,,,,6,76,62
20736,note_off,,,,,256,0,6,,,,1,75,0
20736,note_on,,,,,0,0,6,,,,1,76,103
20992,note_on,,,,,0,0,6,,,,1,63,92
20992,note_on,,,,,0,0,6,,,,1,59,92
20992,note_off,,,,,256,0,6,,,,1,59,0
20992,note_off,,,,,0,0,6,,,,1,76,0
20992,note_on,,,,,0,0,6,,,,1,78,103
20992,note_off,,,,,256,0,2,,,,2,76,0
20992,note_on,,,,,0,0,2,,,,2,78,62
20992,note_off,,,,,256,0,3,,,,6,76,0
20992,note_on,,,,,0,0,3,,,,6,78,62
21248,note_off,,,,,256,0,2,,,,2,78,0
21248,note_on,,,,,0,0,2,,,,2,79,62
21248,note_off,,,,,256,0,3,,,,6,78,0
21248,note_on,,,,,0,0,3,,,,6,79,62
21248,note_on,,,,,0,0,6,,,,1,79,103
21248,note_off,,,,,256,0,6,,,,1,78,0
21504,note_on,,,,,0,0,6,,,,1,63,92
21504,note_on,,,,,0,0,6,,,,1,59,92
21504,note_off,,,,,0,0,6,,,,1,79,0
21504,note_off,,,,,0,0,6,,,,1,63,0
21504,note_off,,,,,256,0,6,,,,1,59,0
21504,note_on,,,,,0,0,5,,,,3,59,62
21504,note_off,,,,,1024,0,5,,,,3,59,0
21504,note_on,,,,,0,0,3,,,,6,81,62
21504,note_off,,,,,256,0,3,,,,6,79,0
21504,note_on,,,,,0,0,6,,,,1,81,103
21504,note_on,,,,,0,0,6,,,,1,59,101
21504,note_off,,,,,0,0,6,,,,1,59,0
21504,note_on,,,,,0,0,2,,,,2,81,62
21504,note_off,,,,,256,0,2,,,,2,79,0
21760,note_on,,,,,0,0,6,,,,1,78,103
21760,note_on,,,,,0,0,2,,,,2,78,62
21760,note_off,,,,,256,0,3,,,,6,81,0
21760,note_on,,,,,0,0,3,,,,6,78,62
21760,note_off,,,,,256,0,6,,,,1,81,0
21760,note_off,,,,,256,0,2,,,,2,81,0
22016,note_off,,,,,256,0,2,,,,2,78,0
22016,note_on,,,,,0,0,2,,,,2,76,62
22016,note_off,,,,,256,0,6,,,,1,59,0
22016,note_off,,,,,0,0,6,,,,1,63,0
22016,note_off,,,,,0,0,6,,,,1,78,0
22016,note_on,,,,,0,0,6,,,,1,59,92
22016,note_on,,,,,0,0,6,,,,1,63,92
22016,note_on,,,,,0,0,6,,,,1,76,103
22016,note_off,,,,,256,0,3,,,,6,78,0
22016,note_on,,,,,0,0,3,,,,6,76,62
22272,note_off,,,,,256,0,3,,,,6,76,0
22272,note_on,,,,,0,0,3,,,,6,78,62
22272,note_off,,,,,256,0,6,,,,1,76,0
22272,note_off,,,,,256,0,2,,,,2,76,0
22272,note_on,,,,,0,0,2,,,,2,78,62
22272,note_on,,,,,0,0,6,,,,1,78,103
22528,note_on,,,,,0,0,3,,,,6,79,62
22528,note_off,,,,,0,0,6,,,,1,59,0
22528,note_off,,,,,0,0,6,,,,1,59,0
22528,note_off,,,,,0,0,6,,,,1,63,0
22528,note_off,,,,,0,0,6,,,,1,78,0
22528,note_on,,,,,0,0,6,,,,1,59,92
22528,note_off,,,,,1024,0,5,,,,3,59,0
22528,note_on,,,,,0,0,6,,,,1,71,103
22528,note_on,,,,,0,0,6,,,,1,64,92
22528,note_on,,,,,0,0,6,,,,1,79,103
22528,note_on,,,,,0,0,6,,,,1,59,101
22528,note_on,,,,,0,0,2,,,,2,79,62
22528,note_off,,,,,256,0,2,,,,2,78,0
22528,note_off,,,,,256,0,3,,,,6,78,0
22528,note_on,,,,,0,0,5,,,,3,59,62
22528,note_off,,,,,256,0,6,,,,1,71,0
22784,note_off,,,,,256,0,6,,,,1,79,0
22784,note_on,,,,,0,0,6,,,,1,76,103
22784,note_off,,,,,256,0,3,,,,6,79,0
22784,note_on,,,,,0,0,3,,,,6,76,62
22784,note_on,,,,,0,0,2,,,,2,76,62
22784,note_off,,,,,256,0,2,,,,2,79,0
23040,note_off,,,,,256,0,3,,,,6,76,0
23040,note_on,,,,,0,0,3,,,,6,75,62
23040,note_on,,,,,0,0,2,,,,2,75,62
23040,note_off,,,,,256,0,2,,,,2,76,0
23040,note_off,,,,,256,0,6,,,,1,59,0
23040,note_on,,,,,0,0,6,,,,1,75,103
23040,note_on,,,,,0,0,6,,,,1,64,92
23040,note_on,,,,,0,0,6,,,,1,59,92
23040,note_off,,,,,0,0,6,,,,1,76,0
23040,note_off,,,,,0,0,6,,,,1,64,0
23296,note_on,,,,,0,0,3,,,,6,76,62
23296,note_on,,,,,0,0,2,,,,2,76,62
23296,note_off,,,,,256,0,2,,,,2,75,0
23296,note_off,,,,,256,0,3,,,,6,75,0
23296,note_on,,,,,0,0,6,,,,1,76,103
23296,note_off,,,,,256,0,6,,,,1,75,0
23552,note_on,,,,,0,0,5,,,,3,59,62
23552,note_on,,,,,0,0,2,,,,2,78,62
23552,note_off,,,,,256,0,2,,,,2,76,0
23552,note_off,,,,,256,0,3,,,,6,76,0
23552,note_on,,,,,0,0,6,,,,1,59,101
23552,note_on,,,,,0,0,3,,,,6,78,62
23552,note_on,,,,,0,0,6,,,,1,78,103
23552,note_off,,,,,256,0,6,,,,1,59,0
23552,note_off,,,,,0,0,6,,,,1,64,0
23552,note_off,,,,,0,0,6,,,,1,76,0
23552,note_on,,,,,0,0,6,,,,1,59,92
23552,note_off,,,,,0,0,6,,,,1,59,0
23552,note_on,,,,,0,0,6,,,,1,63,92
23552,note_off,,,,,1024,0,5,,,,3,59,0
23808,note_off,,,,,256,0,3,,,,6,78,0
23808,note_on,,,,,0,0,6,,,,1,79,103
23808,note_off,,,,,256,0,6,,,,1,78,0
23808,note_off,,,,,256,0,2,,,,2,78,0
23808,note_on,,,,,0,0,2,,,,2,79,62
23808,note_on,,,,,0,0,3,,,,6,79,62
24064,note_on,,,,,0,0,2,,,,2,81,62
24064,note_off,,,,,0,0,6,,,,1,63,0
24064,note_off,,,,,256,0,3,,,,6,79,0
24064,note_off,,,,,0,0,6,,,,1,79,0
24064,note_on,,,,,0,0,3,,,,6,81,62
24064,note_off,,,,,256,0,2,,,,2,79,0
24064,note_on,,,,,0,0,6,,,,1,59,92
24064,note_off,,,,,256,0,6,,,,1,59,0
24064,note_on,,,,,0,0,6,,,,1,81,103
24064,note_on,,,,,0,0,6,,,,1,63,92
24320,note_off,,,,,256,0,3,,,,6,81,0
24320,note_on,,,,,0,0,3,,,,6,78,62
24320,note_off,,,,,256,0,2,,,,2,81,0
24320,note_on,,,,,0,0,6,,,,1,78,103
24320,note_off,,,,,256,0,6,,,,1,81,0
24320,note_on,,,,,0,0,2,,,,2,78,62
24576,note_off,,,,,256,0,2,,,,2,78,0
24576,note_on,,,,,0,0,2,,,,2,79,62
24576,note_on,,,,,0,0,5,,,,3,59,62
24576,note_off,,,,,1024,0,5,,,,3,59,0
24576,note_off,,,,,0,0,6,,,,1,59,0
24576,note_off,,,,,0,0,6,,,,1,63,0
24576,note_on,,,,,0,0,3,,,,6,79,62
24576,note_on,,,,,0,0,6,,,,1,79,103
24576,note_off,,,,,256,0,3,,,,6,78,0
24576,note_off,,,,,0,0,6,,,,1,59,0
24576,note_on,,,,,0,0,6,,,,1,59,101
24576,note_off,,,,,256,0,6,,,,1,71,0
24576,note_on,,,,,0,0,6,,,,1,59,92
24576,note_on,,,,,0,0,6,,,,1,64,92
24576,note_on,,,,,0,0,6,,,,1,71,103
24576,note_off,,,,,0,0,6,,,,1,78,0
24832,note_on,,,,,0,0,6,,,,1,76,103
24832,note_off,,,,,256,0,6,,,,1,79,0
24832,note_on,,,,,0,0,2,,,,2,76,62
24832,note_on,,,,,0,0,3,,,,6,76,62
24832,note_off,,,,,256,0,3,,,,6,79,0
24832,note_off,,,,,256,0,2,,,,2,79,0
25088,note_off,,,,,256,0,2,,,,2,76,0
25088,note_on,,,,,0,0,2,,,,2,75,62
25088,note_on,,,,,0,0,6,,,,1,59,92
25088,note_off,,,,,0,0,6,,,,1,76,0
25088,note_off,,,,,256,0,6,,,,1,59,0
25088,note_off,,,,,0,0,6,,,,1,64,0
25088,note_on,,,,,0,0,6,,,,1,64,92
25088,note_on,,,,,0,0,3,,,,6,75,62
25088,note_off,,,,,256,0,3,,,,6,76,0
25088,note_on,,,,,0,0,6,,,,1,75,103
25344,note_on,,,,,0,0,2,,,,2,76,62
25344,note_off,,,,,256,0,3,,,,6,75,0
25344,note_on,,,,,0,0,3,,,,6,76,62
25344,note_off,,,,,256,0,2,,,,2,75,0
25344,note_on,,,,,0,0,6,,,,1,76,103
25344,note_off,,,,,256,0,6,,,,1,75,0
25600,note_on,,,,,0,0,6,,,,1,63,92
25600,note_off,,,,,0,0,6,,,,1,76,0
25600,note_off,,,,,0,0,6,,,,1,59,0
25600,note_off,,,,,0,0,6,,,,1,64,0
25600,note_on,,,,,0,0,6,,,,1,59,101
25600,note_off,,,,,256,0,6,,,,1,59,0
25600,note_on,,,,,0,0,6,,,,1,59,92
25600,note_on,,,,,0,0,6,,,,1,78,103
25600,note_off,,,,,256,0,3,,,,6,76,0
25600,note_on,,,,,0,0,2,,,,2,78,62
25600,note_on,,,,,0,0,5,,,,3,59,62
25600,note_off,,,,,1024,0,5,,,,3,59,0
25600,note_off,,,,,256,0,2,,,,2,76,0
25600,note_on,,,,,0,0,3,,,,6,78,62
25856,note_off,,,,,256,0,3,,,,6,78,0
25856,note_off,,,,,256,0,6,,,,1,78,0
25856,note_on,,,,,0,0,6,,,,1,79,103
25856,note_on,,,,,0,0,2,,,,2,79,62
25856,note_off,,,,,256,0,2,,,,2,78,0
25856,note_on,,,,,0,0,3,,,,6,79,62
26112,note_off,,,,,256,0,3,,,,6,79,0
26112,note_on,,,,,0,0,6,,,,1,63,92
26112,note_on,,,,,0,0,3,,,,6,81,62
26112,note_on,,,,,0,0,2,,,,2,81,62
26112,note_off,,,,,256,0,2,,,,2,79,0
26112,note_on,,,,,0,0,6,,,,1,59,92
26112,note_off,,,,,0,0,6,,,,1,79,0
26112,note_off,,,,,0,0,6,,,,1,63,0
26112,note_off,,,,,256,0,6,,,,1,59,0
26112,note_on,,,,,0,0,6,,,,1,81,103
26368,note_off,,,,,256,0,3,,,,6,81,0
26368,note_off,,,,,256,0,6,,,,1,81,0
26368,note_on,,,,,0,0,6,,,,1,78,103
26368,note_off,,,,,256,0,2,,,,2,81,0
26368,note_on,,,,,0,0,3,,,,6,78,62
26368,note_on,,,,,0,0,2,,,,2,78,62
26624,note_on,,,,,0,0,6,,,,1,79,103
26624,note_off,,,,,0,0,6,,,,1,59,0
26624,note_on,,,,,0,0,3,,,,6,71,62
26624,note_off,,,,,256,0,3,,,,6,78,0
26624,note_off,,,,,1024,0,5,,,,3,59,0
26624,note_on,,,,,0,0,5,,,,3,64,62
26624,note_on,,,,,0,0,6,,,,1,64,101
26624,note_on,,,,,0,0,6,,,,1,71,103
26624,note_off,,,,,0,0,6,,,,1,63,0
26624,note_off,,,,,0,0,6,,,,1,78,0
26624,note_off,,,,,0,0,6,,,,1,59,0
26624,note_off,,,,,256,0,6,,,,1,71,0
26624,note_on,,,,,0,0,6,,,,1,64,92
26624,note_off,,,,,256,0,2,,,,2,78,0
26624,note_on,,,,,0,0,2,,,,2,79,62
27136,note_on,,,,,0,0,5,,,,3,52,62
27136,note_off,,,,,512,0,5,,,,3,64,0
27136,note_on,,,,,0,0,2,,,,2,76,62
27136,note_off,,,,,512,0,3,,,,6,71,0
27136,note_on,,,,,0,0,3,,,,6,67,62
27136,note_off,,,,,512,0,2,,,,2,79,0
27136,note_on,,,,,0,0,6,,,,1,71,103
27136,note_on,,,,,0,0,6,,,,1,52,101
27136,note_off,,,,,0,0,6,,,,1,64,0
27136,note_on,,,,,0,0,6,,,,1,76,103
27136,note_on,,,,,0,0,6,,,,1,67,103
27136,note_off,,,,,0,0,6,,,,1,79,0
27136,note_off,,,,,512,0,6,,,,1,64,0
27136,note_off,,,,,0,0,6,,,,1,71,0
27648,note_on,,,,,0,0,5,,,,3,55,62
27648,note_off,,,,,512,0,5,,,,3,52,0
27648,note_off,,,,,512,0,2,,,,2,76,0
27648,note_on,,,,,0,0,3,,,,6,64,62
27648,note_off,,,,,512,0,3,,,,6,67,0
27648,note_off,,,,,512,0,6,,,,1,67,0
27648,note_on,,,,,0,0,6,,,,1,64,103
27648,note_on,,,,,0,0,6,,,,1,55,92
27648,note_off,,,,,0,0,6,,,,1,76,0
27648,note_off,,,,,0,0,6,,,,1,71,0
27648,note_on,,,,,0,0,6,,,,1,55,101
27648,note_off,,,,,0,0,6,,,,1,52,0
28160,note_off,,,,,512,0,6,,,,1,55,0
28160,note_on,,,,,0,0,3,,,,6,67,62
28160,note_off,,,,,512,0,3,,,,6,64,0
28160,note_off,,,,,0,0,6,,,,1,64,0
28160,note_on,,,,,0,0,6,,,,1,67,103
28160,note_on,,,,,0,0,6,,,,1,71,103
28160,note_on,,,,,0,0,5,,,,3,52,62
28160,note_off,,,,,512,0,5,,,,3,55,0
28160,note_on,,,,,0,0,6,,,,1,76,103
28160,note_off,,,,,0,0,6,,,,1,55,0
28160,note_on,,,,,0,0,6,,,,1,52,101
28160,note_on,,,,,512,0,2,,,,2,76,62
28672,note_on,,,,,0,0,6,,,,1,69,103
28672,note_off,,,,,512,0,5,,,,3,52,0
28672,note_on,,,,,0,0,2,,,,2,73,62
28672,note_off,,,,,512,0,2,,,,2,76,0
28672,note_on,,,,,0,0,6,,,,1,57,92
28672,note_off,,,,,0,0,6,,,,1,76,0
28672,note_on,,,,,0,0,3,,,,6,73,62
28672,note_off,,,,,512,0,3,,,,6,67,0
28672,note_on,,,,,0,0,6,,,,1,73,103
28672,note_off,,,,,0,0,6,,,,1,71,0
28672,note_off,,,,,512,0,6,,,,1,67,0
28672,note_off,,,,,0,0,6,,,,1,52,0
28672,note_on,,,,,0,0,6,,,,1,57,101
28672,note_on,,,,,0,0,5,,,,3,57,62
28928,note_off,,,,,256,0,6,,,,1,73,0
28928,note_off,,,,,256,0,2,,,,2,73,0
28928,note_on,,,,,0,0,2,,,,2,74,62
28928,note_off,,,,,256,0,3,,,,6,73,0
28928,note_on,,,,,0,0,3,,,,6,74,62
28928,note_on,,,,,0,0,6,,,,1,74,103
29184,note_on,,,,,0,0,6,,,,1,76,103
29184,note_on,,,,,0,0,6,,,,1,57,92
29184,note_on,,,,,0,0,2,,,,2,76,62
29184,note_off,,,,,256,0,2,,,,2,74,0
29184,note_off,,,,,0,0,6,,,,1,74,0
29184,note_off,,,,,256,0,6,,,,1,57,0
29184,note_off,,,,,256,0,3,,,,6,74,0
29184,note_on,,,,,0,0,3,,,,6,76,62
29184,note_on,,,,,0,0,6,,,,1,61,92
29440,note_off,,,,,256,0,6,,,,1,76,0
29440,note_on,,,,,0,0,6,,,,1,77,103
29440,note_on,,,,,0,0,3,,,,6,77,62
29440,note_off,,,,,256,0,3,,,,6,76,0
29440,note_on,,,,,0,0,2,,,,2,77,62
29440,note_off,,,,,256,0,2,,,,2,76,0
29696,note_off,,,,,0,0,6,,,,1,61,0
29696,note_off,,,,,1024,0,5,,,,3,57,0
29696,note_on,,,,,0,0,5,,,,3,57,62
29696,note_on,,,,,0,0,2,,,,2,79,62
29696,note_off,,,,,256,0,2,,,,2,77,0
29696,note_off,,,,,256,0,6,,,,1,57,0
29696,note_off,,,,,0,0,6,,,,1,77,0
29696,note_on,,,,,0,0,3,,,,6,79,62
29696,note_on,,,,,0,0,6,,,,1,57,101
29696,note_off,,,,,0,0,6,,,,1,57,0
29696,note_on,,,,,0,0,6,,,,1,79,103
29696,note_on,,,,,0,0,6,,,,1,61,92
29696,note_off,,,,,256,0,3,,,,6,77,0
29696,note_on,,,,,0,0,6,,,,1,57,92
29952,note_off,,,,,256,0,6,,,,1,79,0
29952,note_off,,,,,256,0,3,,,,6,79,0
29952,note_off,,,,,256,0,2,,,,2,79,0
29952,note_on,,,,,0,0,2,,,,2,76,62
29952,note_on,,,,,0,0,6,,,,1,76,103
29952,note_on,,,,,0,0,3,,,,6,76,62
30208,note_off,,,,,256,0,6,,,,1,57,0
30208,note_on,,,,,0,0,3,,,,6,74,62
30208,note_off,,,,,256,0,2,,,,2,76,0
30208,note_on,,,,,0,0,2,,,,2,74,62
30208,note_off,,,,,0,0,6,,,,1,61,0
30208,note_off,,,,,0,0,6,,,,1,76,0
30208,note_on,,,,,0,0,6,,,,1,57,92
30208,note_on,,,,,0,0,6,,,,1,61,92
30208,note_off,,,,,256,0,3,,,,6,76,0
30208,note_on,,,,,0,0,6,,,,1,74,103
30464,note_off,,,,,256,0,3,,,,6,74,0
30464,note_on,,,,,0,0,6,,,,1,76,103
30464,note_off,,,,,256,0,6,,,,1,74,0
30464,note_off,,,,,256,0,2,,,,2,74,0
30464,note_on,,,,,0,0,2,,,,2,76,62
30464,note_on,,,,,0,0,3,,,,6,76,62
30720,note_off,,,,,0,0,6,,,,1,61,0
30720,note_on,,,,,0,0,6,,,,1,69,103
30720,note_off,,,,,256,0,2,,,,2,76,0
30720,note_on,,,,,0,0,2,,,,2,77,62
30720,note_off,,,,,1024,0,5,,,,3,57,0
30720,note_on,,,,,0,0,6,,,,1,77,103
30720,note_off,,,,,0,0,6,,,,1,76,0
30720,note_off,,,,,256,0,3,,,,6,76,0
30720,note_on,,,,,0,0,3,,,,6,77,62
30720,note_on,,,,,0,0,6,,,,1,62,92
30720,note_on,,,,,0,0,6,,,,1,57,92
30720,note_off,,,,,0,0,6,,,,1,57,0
30720,note_off,,,,,0,0,6,,,,1,57,0
30720,note_on,,,,,0,0,5,,,,3,57,62
30720,note_on,,,,,0,0,6,,,,1,57,101
30720,note_off,,,,,256,0,6,,,,1,69,0
30976,note_on,,,,,0,0,6,,,,1,74,103
30976,note_on,,,,,0,0,2,,,,2,74,62
30976,note_off,,,,,256,0,2,,,,2,77,0
30976,note_off,,,,,256,0,6,,,,1,77,0
30976,note_on,,,,,0,0,3,,,,6,74,62
30976,note_off,,,,,256,0,3,,,,6,77,0
31232,note_on,,,,,0,0,6,,,,1,62,92
31232,note_off,,,,,256,0,6,,,,1,57,0
31232,note_on,,,,,0,0,2,,,,2,73,62
31232,note_off,,,,,256,0,2,,,,2,74,0
31232,note_off,,,,,0,0,6,,,,1,62,0
31232,note_off,,,,,0,0,6,,,,1,74,0
31232,note_on,,,,,0,0,6,,,,1,73,103
31232,note_on,,,,,0,0,3,,,,6,73,62
31232,note_off,,,,,256,0,3,,,,6,74,0
31232,note_on,,,,,0,0,6,,,,1,57,92
31488,note_off,,,,,256,0,2,,,,2,73,0
31488,note_off,,,,,256,0,6,,,,1,73,0
31488,note_on,,,,,0,0,6,,,,1,74,103
31488,note_on,,,,,0,0,2,,,,2,74,62
31488,note_off,,,,,256,0,3,,,,6,73,0
31488,note_on,,,,,0,0,3,,,,6,74,62
31744,note_on,,,,,0,0,2,,,,2,76,62
31744,note_off,,,,,256,0,2,,,,2,74,0
31744,note_off,,,,,256,0,6,,,,1,57,0
31744,note_off,,,,,0,0,6,,,,1,62,0
31744,note_off,,,,,0,0,6,,,,1,74,0
31744,note_on,,,,,0,0,6,,,,1,57,92
31744,note_on,,,,,0,0,6,,,,1,61,92
31744,note_on,,,,,0,0,6,,,,1,76,103
31744,note_off,,,,,0,0,6,,,,1,57,0
31744,note_on,,,,,0,0,6,,,,1,57,101
31744,note_off,,,,,256,0,3,,,,6,74,0
31744,note_on,,,,,0,0,3,,,,6,76,62
31744,note_on,,,,,0,0,5,,,,3,57,62
31744,note_off,,,,,1024,0,5,,,,3,57,0
32000,note_off,,,,,256,0,3,,,,6,76,0
32000,note_on,,,,,0,0,3,,,,6,77,62
32000,note_off,,,,,256,0,6,,,,1,76,0
32000,note_on,,,,,0,0,6,,,,1,77,103
32000,note_off,,,,,256,0,2,,,,2,76,0
32000,note_on,,,,,0,0,2,,,,2,77,62
32256,note_off,,,,,256,0,2,,,,2,77,0
32256,note_off,,,,,256,0,3,,,,6,77,0
32256,note_on,,,,,0,0,3,,,,6,79,62
32256,note_on,,,,,0,0,6,,,,1,57,92
32256,note_on,,,,,0,0,2,,,,2,79,62
32256,note_on,,,,,0,0,6,,,,1,61,92
32256,note_on,,,,,0,0,6,,,,1,79,103
32256,note_off,,,,,256,0,6,,,,1,57,0
32256,note_off,,,,,0,0,6,,,,1,61,0
32256,note_off,,,,,0,0,6,,,,1,77,0
32512,note_off,,,,,256,0,2,,,,2,79,0
32512,note_on,,,,,0,0,2,,,,2,76,62
32512,note_on,,,,,0,0,3,,,,6,76,62
32512,note_off,,,,,256,0,6,,,,1,79,0
32512,note_on,,,,,0,0,6,,,,1,76,103
32512,note_off,,,,,256,0,3,,,,6,79,0
32768,note_on,,,,,0,0,2,,,,2,77,62
32768,note_off,,,,,256,0,2,,,,2,76,0
32768,note_off,,,,,1024,0,5,,,,3,57,0
32768,note_on,,,,,0,0,5,,,,3,57,62
32768,note_on,,,,,0,0,6,,,,1,57,101
32768,note_on,,,,,0,0,6,,,,1,77,103
32768,note_off,,,,,256,0,6,,,,1,69,0
32768,note_off,,,,,256,0,3,,,,6,76,0
32768,note_off,,,,,0,0,6,,,,1,57,0
32768,note_on,,,,,0,0,3,,,,6,77,62
32768,note_on,,,,,0,0,6,,,,1,62,92
32768,note_on,,,,,0,0,6,,,,1,57,92
32768,note_on,,,,,0,0,6,,,,1,69,103
32768,note_off,,,,,0,0,6,,,,1,61,0
32768,note_off,,,,,0,0,6,,,,1,57,0
32768,note_off,,,,,0,0,6,,,,1,76,0
33024,note_on,,,,,0,0,6,,,,1,74,103
33024,note_on,,,,,0,0,3,,,,6,74,62
33024,note_on,,,,,0,0,2,,,,2,74,62
33024,note_off,,,,,256,0,2,,,,2,77,0
33024,note_off,,,,,256,0,6,,,,1,77,0
33024,note_off,,,,,256,0,3,,,,6,77,0
33280,note_on,,,,,0,0,2,,,,2,73,62
33280,note_off,,,,,256,0,2,,,,2,74,0
33280,note_off,,,,,0,0,6,,,,1,74,0
33280,note_off,,,,,0,0,6,,,,1,62,0
33280,note_on,,,,,0,0,6,,,,1,73,103
33280,note_on,,,,,0,0,6,,,,1,62,92
33280,note_on,,,,,0,0,6,,,,1,57,92
33280,note_off,,,,,256,0,3,,,,6,74,0
33280,note_on,,,,,0,0,3,,,,6,73,62
33280,note_off,,,,,256,0,6,,,,1,57,0
33536,note_off,,,,,256,0,3,,,,6,73,0
33536,note_on,,,,,0,0,2,,,,2,74,62
33536,note_off,,,,,256,0,2,,,,2,73,0
33536,note_off,,,,,256,0,6,,,,1,73,0
33536,note_on,,,,,0,0,6,,,,1,74,103
33536,note_on,,,,,0,0,3,,,,6,74,62
33792,note_on,,,,,0,0,6,,,,1,57,101
33792,note_off,,,,,1024,0,5,,,,3,57,0
33792,note_on,,,,,0,0,5,,,,3,57,62
33792,note_off,,,,,256,0,6,,,,1,57,0
33792,note_on,,,,,0,0,6,,,,1,57,92
33792,note_on,,,,,0,0,6,,,,1,76,103
33792,note_off,,,,,256,0,3,,,,6,74,0
33792,note_on,,,,,0,0,6,,,,1,61,92
33792,note_off,,,,,0,0,6,,,,1,62,0
33792,note_off,,,,,0,0,6,,,,1,74,0
33792,note_on,,,,,0,0,2,,,,2,76,62
33792,note_off,,,,,256,0,2,,,,2,74,0
33792,note_off,,,,,0,0,6,,,,1,57,0
33792,note_on,,,,,0,0,3,,,,6,76,62
34048,note_off,,,,,256,0,6,,,,1,76,0
34048,note_on,,,,,0,0,6,,,,1,77,103
34048,note_on,,,,,0,0,3,,,,6,77,62
34048,note_off,,,,,256,0,3,,,,6,76,0
34048,note_on,,,,,0,0,2,,,,2,77,62
34048,note_off,,,,,256,0,2,,,,2,76,0
34304,note_on,,,,,0,0,6,,,,1,61,92
34304,note_off,,,,,256,0,3,,,,6,77,0
34304,note_on,,,,,0,0,3,,,,6,79,62
34304,note_on,,,,,0,0,6,,,,1,79,103
34304,note_on,,,,,0,0,6,,,,1,57,92
34304,note_off,,,,,256,0,2,,,,2,77,0
34304,note_off,,,,,0,0,6,,,,1,61,0
34304,note_off,,,,,256,0,6,,,,1,57,0
34304,note_on,,,,,0,0,2,,,,2,79,62
34304,note_off,,,,,0,0,6,,,,1,77,0
34560,note_off,,,,,256,0,6,,,,1,79,0
34560,note_on,,,,,0,0,6,,,,1,76,103
34560,note_on,,,,,0,0,3,,,,6,76,62
34560,note_off,,,,,256,0,3,,,,6,79,0
34560,note_off,,,,,256,0,2,,,,2,79,0
34560,note_on,,,,,0,0,2,,,,2,76,62
34816,note_on,,,,,0,0,2,,,,2,77,62
34816,note_off,,,,,256,0,2,,,,2,76,0
34816,note_off,,,,,1024,0,5,,,,3,57,0
34816,note_on,,,,,0,0,6,,,,1,69,103
34816,note_off,,,,,0,0,6,,,,1,76,0
34816,note_off,,,,,0,0,6,,,,1,61,0
34816,note_off,,,,,0,0,6,,,,1,57,0
34816,note_off,,,,,0,0,6,,,,1,57,0
34816,note_off,,,,,256,0,6,,,,1,69,0
34816,note_off,,,,,256,0,3,,,,6,76,0
34816,note_on,,,,,0,0,6,,,,1,77,103
34816,note_on,,,,,0,0,3,,,,6,69,62
34816,note_on,,,,,0,0,6,,,,1,62,101
34816,note_on,,,,,0,0,6,,,,1,62,92
34816,note_on,,,,,0,0,6,,,,1,74,103
34816,note_on,,,,,0,0,5,,,,3,62,62
35328,note_on,,,,,0,0,6,,,,1,50,101
35328,note_on,,,,,0,0,2,,,,2,74,62
35328,note_off,,,,,512,0,2,,,,2,77,0
35328,note_off,,,,,512,0,5,,,,3,62,0
35328,note_on,,,,,0,0,5,,,,3,50,62
35328,note_off,,,,,512,0,3,,,,6,69,0
35328,note_off,,,,,512,0,6,,,,1,62,0
35328,note_on,,,,,0,0,3,,,,6,65,62
35328,note_off,,,,,0,0,6,,,,1,74,0
35328,note_off,,,,,0,0,6,,,,1,77,0
35328,note_on,,,,,0,0,6,,,,1,69,103
35328,note_on,,,,,0,0,6,,,,1,74,103
35328,note_off,,,,,0,0,6,,,,1,62,0
35328,note_off,,,,,0,0,6,,,,1,69,0
35328,note_on,,,,,0,0,6,,,,1,65,103
35840,note_off,,,,,0,0,6,,,,1,74,0
35840,note_off,,,,,512,0,6,,,,1,65,0
35840,note_off,,,,,0,0,6,,,,1,69,0
35840,note_on,,,,,0,0,6,,,,1,53,92
35840,note_off,,,,,0,0,6,,,,1,50,0
35840,note_on,,,,,0,0,6,,,,1,53,101
35840,note_off,,,,,512,0,5,,,,3,50,0
35840,note_off,,,,,512,0,3,,,,6,65,0
35840,note_on,,,,,0,0,3,,,,6,69,62
35840,note_on,,,,,0,0,5,,,,3,53,62
35840,note_off,,,,,512,0,2,,,,2,74,0
36352,note_on,,,,,0,0,6,,,,1,50,114
36352,note_off,,,,,512,0,3,,,,6,69,0
36352,note_on,,,,,0,0,3,,,,6,65,101
36352,note_on,,,,,0,0,6,,,,1,69,116
36352,note_on,,,,,0,0,6,,,,1,65,116
36352,note_off,,,,,512,0,6,,,,1,53,0
36352,note_on,,,,,512,0,2,,,,2,69,114
36352,note_off,,,,,0,0,6,,,,1,53,0
36352,note_on,,,,,0,0,5,,,,3,50,101
36352,note_off,,,,,512,0,5,,,,3,53,0
36864,note_off,,,,,512,0,6,,,,1,65,0
36864,note_off,,,,,512,0,2,,,,2,69,0
36864,note_on,,,,,0,0,6,,,,1,55,127
36864,note_on,,,,,0,0,6,,,,1,62,127
36864,note_on,,,,,0,0,6,,,,1,71,127
36864,note_on,,,,,0,0,6,,,,1,55,114
36864,note_off,,,,,0,0,6,,,,1,50,0
36864,note_off,,,,,0,0,6,,,,1,69,0
36864,note_on,,,,,0,0,2,,,,2,71,114
36864,note_off,,,,,512,0,5,,,,3,50,0
36864,note_on,,,,,0,0,5,,,,3,55,101
36864,note_on,,,,,0,0,3,,,,6,71,101
36864,note_off,,,,,512,0,3,,,,6,65,0
37034,note_off,,,,,170,0,6,,,,1,71,0
37034,note_on,,,,,0,0,6,,,,1,69,127
37035,note_on,,,,,0,0,3,,,,6,69,101
37035,note_off,,,,,171,0,3,,,,6,71,0
37035,note_off,,,,,171,0,2,,,,2,71,0
37035,note_on,,,,,0,0,2,,,,2,69,114
37205,note_on,,,,,171,0,6,,,,1,67,127
37205,note_on,,,,,0,0,3,,,,6,67,101
37205,note_off,,,,,170,0,3,,,,6,69,0
37205,note_off,,,,,170,0,2,,,,2,69,0
37205,note_on,,,,,0,0,2,,,,2,67,114
37205,note_off,,,,,0,0,6,,,,1,69,0
37376,note_off,,,,,171,0,3,,,,6,67,0
37376,note_on,,,,,0,0,3,,,,6,74,101
37376,note_off,,,,,512,0,5,,,,3,55,0
37376,note_on,,,,,0,0,6,,,,1,74,127
37376,note_on,,,,,0,0,6,,,,1,59,127
37376,note_off,,,,,171,0,2,,,,2,67,0
37376,note_on,,,,,0,0,2,,,,2,74,114
37376,note_on,,,,,0,0,5,,,,3,55,101
37376,note_off,,,,,0,0,6,,,,1,62,0
37376,note_off,,,,,171,0,6,,,,1,55,0
37376,note_on,,,,,0,0,6,,,,1,55,127
37376,note_off,,,,,0,0,6,,,,1,55,0
37376,note_on,,,,,0,0,6,,,,1,55,114
37376,note_off,,,,,0,0,6,,,,1,67,0
37546,note_on,,,,,0,0,6,,,,1,72,127
37546,note_off,,,,,170,0,6,,,,1,74,0
37547,note_off,,,,,171,0,2,,,,2,74,0
37547,note_on,,,,,0,0,2,,,,2,72,114
37547,note_off,,,,,171,0,3,,,,6,74,0
37547,note_on,,,,,0,0,3,,,,6,72,101
37717,note_off,,,,,170,0,3,,,,6,72,0
37717,note_off,,,,,0,0,6,,,,1,72,0
37717,note_off,,,,,170,0,2,,,,2,72,0
37717,note_on,,,,,171,0,6,,,,1,71,127
37717,note_on,,,,,0,0,3,,,,6,71,101
37717,note_on,,,,,0,0,2,,,,2,71,114
37888,note_off,,,,,171,0,2,,,,2,71,0
37888,note_off,,,,,171,0,6,,,,1,55,0
37888,note_off,,,,,0,0,6,,,,1,59,0
37888,note_on,,,,,0,0,2,,,,2,79,114
37888,note_on,,,,,0,0,6,,,,1,52,114
37888,note_off,,,,,0,0,6,,,,1,71,0
37888,note_on,,,,,0,0,6,,,,1,60,127
37888,note_on,,,,,0,0,6,,,,1,79,127
37888,note_on,,,,,0,0,6,,,,1,67,127
37888,note_off,,,,,0,0,6,,,,1,55,0
37888,note_on,,,,,0,0,5,,,,3,52,101
37888,note_off,,,,,512,0,5,,,,3,55,0
37888,note_off,,,,,171,0,3,,,,6,71,0
37888,note_on,,,,,0,0,3,,,,6,67,101
38400,note_off,,,,,0,0,6,,,,1,52,0
38400,note_off,,,,,0,0,6,,,,1,79,0
38400,note_on,,,,,0,0,6,,,,1,52,114
38400,note_off,,,,,0,0,6,,,,1,67,0
38400,note_off,,,,,512,0,6,,,,1,60,0
38400,note_on,,,,,0,0,2,,,,2,67,114
38400,note_off,,,,,512,0,2,,,,2,79,0
38400,note_on,,,,,0,0,3,,,,6,67,101
38400,note_off,,,,,512,0,3,,,,6,67,0
38400,note_off,,,,,512,0,5,,,,3,52,0
38400,note_on,,,,,0,0,5,,,,3,52,101
38400,note_on,,,,,0,0,6,,,,1,67,127
38400,note_on,,,,,0,0,6,,,,1,60,127
38912,note_on,,,,,0,0,3,,,,6,69,101
38912,note_off,,,,,512,0,3,,,,6,67,0
38912,note_on,,,,,0,0,6,,,,1,60,127
38912,note_on,,,,,0,0,6,,,,1,69,127
38912,note_on,,,,,0,0,2,,,,2,69,114
38912,note_off,,,,,0,0,6,,,,1,67,0
38912,note_off,,,,,512,0,6,,,,1,60,0
38912,note_off,,,,,0,0,6,,,,1,52,0
38912,note_off,,,,,512,0,2,,,,2,67,0
38912,note_off,,,,,512,0,5,,,,3,52,0
38912,note_on,,,,,0,0,5,,,,3,53,101
38912,note_on,,,,,0,0,6,,,,1,53,127
38912,note_on,,,,,0,0,6,,,,1,53,114
39082,note_on,,,,,0,0,6,,,,1,67,127
39082,note_off,,,,,170,0,6,,,,1,69,0
39083,note_on,,,,,0,0,3,,,,6,67,101
39083,note_off,,,,,171,0,3,,,,6,69,0
39083,note_on,,,,,0,0,2,,,,2,67,114
39083,note_off,,,,,171,0,2,,,,2,69,0
39253,note_on,,,,,171,0,6,,,,1,65,127
39253,note_off,,,,,0,0,6,,,,1,67,0
39253,note_off,,,,,170,0,2,,,,2,67,0
39253,note_on,,,,,0,0,3,,,,6,65,101
39253,note_off,,,,,170,0,3,,,,6,67,0
39253,note_on,,,,,0,0,2,,,,2,65,114
39424,note_off,,,,,0,0,6,,,,1,65,0
39424,note_off,,,,,171,0,3,,,,6,65,0
39424,note_off,,,,,512,0,5,,,,3,53,0
39424,note_on,,,,,0,0,5,,,,3,53,101
39424,note_off,,,,,171,0,6,,,,1,53,0
39424,note_off,,,,,0,0,6,,,,1,60,0
39424,note_on,,,,,0,0,6,,,,1,53,127
39424,note_on,,,,,0,0,3,,,,6,72,101
39424,note_on,,,,,0,0,6,,,,1,57,127
39424,note_off,,,,,0,0,6,,,,1,53,0
39424,note_on,,,,,0,0,6,,,,1,53,114
39424,note_off,,,,,171,0,2,,,,2,65,0
39424,note_on,,,,,0,0,2,,,,2,72,114
39424,note_on,,,,,0,0,6,,,,1,72,127
39594,note_off,,,,,170,0,6,,,,1,72,0
39594,note_on,,,,,0,0,6,,,,1,71,127
39595,note_on,,,,,0,0,3,,,,6,71,101
39595,note_off,,,,,171,0,2,,,,2,72,0
39595,note_on,,,,,0,0,2,,,,2,71,114
39595,note_off,,,,,171,0,3,,,,6,72,0
39765,note_off,,,,,170,0,3,,,,6,71,0
39765,note_on,,,,,0,0,3,,,,6,69,101
39765,note_off,,,,,170,0,2,,,,2,71,0
39765,note_on,,,,,171,0,6,,,,1,69,127
39765,note_off,,,,,0,0,6,,,,1,71,0
39765,note_on,,,,,0,0,2,,,,2,69,114
39936,note_off,,,,,171,0,3,,,,6,69,0
39936,note_off,,,,,0,0,6,,,,1,53,0
39936,note_off,,,,,0,0,6,,,,1,57,0
39936,note_off,,,,,0,0,6,,,,1,69,0
39936,note_on,,,,,0,0,6,,,,1,59,127
39936,note_on,,,,,0,0,6,,,,1,65,127
39936,note_on,,,,,0,0,6,,,,1,77,127
39936,note_on,,,,,0,0,6,,,,1,50,114
39936,note_off,,,,,512,0,5,,,,3,53,0
39936,note_on,,,,,0,0,5,,,,3,50,101
39936,note_on,,,,,0,0,3,,,,6,65,101
39936,note_off,,,,,171,0,6,,,,1,53,0
39936,note_off,,,,,171,0,2,,,,2,69,0
39936,note_on,,,,,0,0,2,,,,2,77,114
40448,note_off,,,,,512,0,3,,,,6,65,0
40448,note_on,,,,,0,0,3,,,,6,65,101
40448,note_off,,,,,512,0,5,,,,3,50,0
40448,note_on,,,,,0,0,5,,,,3,50,101
40448,note_off,,,,,0,0,6,,,,1,50,0
40448,note_on,,,,,0,0,2,,,,2,72,114
40448,note_on,,,,,0,0,6,,,,1,50,114
40448,note_on,,,,,0,0,6,,,,1,65,127
40448,note_on,,,,,0,0,6,,,,1,59,127
40448,note_off,,,,,0,0,6,,,,1,77,0
40448,note_off,,,,,0,0,6,,,,1,65,0
40448,note_off,,,,,512,0,6,,,,1,59,0
40448,note_off,,,,,512,0,2,,,,2,77,0
40448,note_on,,,,,0,0,6,,,,1,69,127
40960,note_on,,,,,0,0,2,,,,2,68,114
40960,note_on,,,,,0,0,3,,,,6,68,101
40960,note_on,,,,,0,0,6,,,,1,59,127
40960,note_off,,,,,0,0,6,,,,1,50,0
40960,note_off,,,,,0,0,6,,,,1,69,0
40960,note_off,,,,,512,0,3,,,,6,65,0
40960,note_off,,,,,512,0,2,,,,2,72,0
40960,note_off,,,,,0,0,6,,,,1,65,0
40960,note_off,,,,,512,0,6,,,,1,59,0
40960,note_on,,,,,0,0,6,,,,1,52,114
40960,note_on,,,,,0,0,5,,,,3,52,101
40960,note_off,,,,,512,0,5,,,,3,50,0
40960,note_on,,,,,0,0,6,,,,1,68,127
41130,note_off,,,,,170,0,6,,,,1,68,0
41130,note_on,,,,,0,0,6,,,,1,66,127
41131,note_on,,,,,0,0,2,,,,2,66,114
41131,note_off,,,,,171,0,3,,,,6,68,0
41131,note_on,,,,,0,0,3,,,,6,66,101
41131,note_off,,,,,171,0,2,,,,2,68,0
41301,note_on,,,,,171,0,6,,,,1,64,127
41301,note_off,,,,,170,0,3,,,,6,66,0
41301,note_off,,,,,0,0,6,,,,1,66,0
41301,note_on,,,,,0,0,3,,,,6,64,101
41301,note_on,,,,,0,0,2,,,,2,64,114
41301,note_off,,,,,170,0,2,,,,2,66,0
41472,note_on,,,,,0,0,2,,,,2,71,114
41472,note_off,,,,,171,0,2,,,,2,64,0
41472,note_on,,,,,0,0,6,,,,1,56,127
41472,note_off,,,,,171,0,3,,,,6,64,0
41472,note_on,,,,,0,0,3,,,,6,71,101
41472,note_on,,,,,0,0,6,,,,1,54,114
41472,note_off,,,,,512,0,5,,,,3,52,0
41472,note_off,,,,,0,0,6,,,,1,52,0
41472,note_on,,,,,0,0,6,,,,1,71,127
41472,note_off,,,,,171,0,6,,,,1,59,0
41472,note_off,,,,,0,0,6,,,,1,64,0
41472,note_on,,,,,0,0,6,,,,1,59,127
41472,note_on,,,,,0,0,5,,,,3,54,101
41642,note_off,,,,,170,0,6,,,,1,71,0
41642,note_on,,,,,0,0,6,,,,1,69,127
41643,note_off,,,,,171,0,2,,,,2,71,0
41643,note_on,,,,,0,0,2,,,,2,69,114
41643,note_off,,,,,171,0,3,,,,6,71,0
41643,note_on,,,,,0,0,3,,,,6,69,101
41813,note_off,,,,,170,0,3,,,,6,69,0
41813,note_on,,,,,0,0,3,,,,6,68,101
41813,note_on,,,,,0,0,2,,,,2,68,114
41813,note_off,,,,,170,0,2,,,,2,69,0
41813,note_on,,,,,171,0,6,,,,1,68,127
41813,note_off,,,,,0,0,6,,,,1,69,0
41984,note_on,,,,,0,0,5,,,,3,56,101
41984,note_off,,,,,171,0,6,,,,1,56,0
41984,note_off,,,,,0,0,6,,,,1,68,0
41984,note_off,,,,,0,0,6,,,,1,54,0
41984,note_on,,,,,0,0,6,,,,1,56,114
41984,note_on,,,,,0,0,3,,,,6,64,101
41984,note_off,,,,,171,0,3,,,,6,68,0
41984,note_on,,,,,0,0,6,,,,1,56,109
41984,note_on,,,,,0,0,6,,,,1,76,127
41984,note_on,,,,,0,0,6,,,,1,59,109
41984,note_off,,,,,0,0,6,,,,1,59,0
41984,note_off,,,,,512,0,5,,,,3,54,0
41984,note_on,,,,,0,0,2,,,,2,76,114
41984,note_off,,,,,171,0,2,,,,2,68,0
42496,note_off,,,,,0,0,6,,,,1,76,0
42496,note_off,,,,,0,0,6,,,,1,56,0
42496,note_on,,,,,0,0,6,,,,1,71,127
42496,note_on,,,,,0,0,6,,,,1,64,114
42496,note_on,,,,,0,0,6,,,,1,56,114
42496,note_off,,,,,512,0,3,,,,6,64,0
42496,note_on,,,,,0,0,6,,,,1,56,114
42496,note_on,,,,,0,0,5,,,,3,56,101
42496,note_off,,,,,512,0,5,,,,3,56,0
42496,note_off,,,,,512,0,6,,,,1,56,0
42496,note_off,,,,,512,0,2,,,,2,76,0
42496,note_on,,,,,0,0,2,,,,2,71,114
42496,note_on,,,,,0,0,3,,,,6,64,101
42496,note_off,,,,,0,0,6,,,,1,59,0
43008,note_off,,,,,512,0,2,,,,2,71,0
43008,note_on,,,,,0,0,2,,,,2,72,114
43008,note_on,,,,,0,0,5,,,,3,57,101
43008,note_off,,,,,512,0,5,,,,3,56,0
43008,note_on,,,,,0,0,6,,,,1,57,114
43008,note_off,,,,,0,0,6,,,,1,64,0
43008,note_off,,,,,0,0,6,,,,1,71,0
43008,note_on,,,,,0,0,6,,,,1,57,119
43008,note_on,,,,,0,0,6,,,,1,60,119
43008,note_on,,,,,0,0,6,,,,1,64,119
43008,note_on,,,,,0,0,6,,,,1,69,119
43008,note_on,,,,,0,0,6,,,,1,72,119
43008,note_off,,,,,0,0,6,,,,1,56,0
43008,note_off,,,,,512,0,3,,,,6,64,0
43008,note_off,,,,,512,0,6,,,,1,56,0
43008,note_on,,,,,0,0,3,,,,6,69,101
43264,note_off,,,,,256,0,2,,,,2,72,0
43264,note_off,,,,,256,0,3,,,,6,69,0
43264,note_on,,,,,0,0,3,,,,6,69,101
43264,note_off,,,,,0,0,6,,,,1,72,0
43264,note_on,,,,,0,0,6,,,,1,72,123
43264,note_on,,,,,0,0,6,,,,1,69,123
43264,note_off,,,,,256,0,6,,,,1,69,0
43264,note_on,,,,,0,0,2,,,,2,72,114
43520,note_off,,,,,256,0,6,,,,1,57,0
43520,note_off,,,,,0,0,6,,,,1,60,0
43520,note_off,,,,,0,0,6,,,,1,57,0
43520,note_on,,,,,0,0,6,,,,1,55,127
43520,note_on,,,,,0,0,5,,,,3,55,101
43520,note_off,,,,,512,0,5,,,,3,57,0
43520,note_on,,,,,0,0,6,,,,1,59,127
43520,note_off,,,,,0,0,6,,,,1,64,0
43520,note_on,,,,,0,0,6,,,,1,55,114
43776,note_on,,,,,0,0,6,,,,1,76,127
43776,note_off,,,,,0,0,6,,,,1,72,0
43776,note_off,,,,,256,0,6,,,,1,69,0
43776,note_on,,,,,0,0,2,,,,2,76,114
43776,note_on,,,,,0,0,3,,,,6,72,101
43776,note_off,,,,,512,0,3,,,,6,69,0
43776,note_off,,,,,512,0,2,,,,2,72,0
44032,note_off,,,,,256,0,3,,,,6,72,0
44032,note_on,,,,,0,0,3,,,,6,69,101
44032,note_on,,,,,0,0,6,,,,1,53,114
44032,note_off,,,,,0,0,6,,,,1,55,0
44032,note_on,,,,,0,0,5,,,,3,53,101
44032,note_off,,,,,512,0,5,,,,3,55,0
44032,note_on,,,,,0,0,6,,,,1,69,127
44032,note_on,,,,,0,0,6,,,,1,57,127
44032,note_on,,,,,0,0,6,,,,1,53,127
44032,note_off,,,,,0,0,6,,,,1,76,0
44032,note_off,,,,,0,0,6,,,,1,59,0
44032,note_on,,,,,0,0,2,,,,2,72,114
44032,note_off,,,,,256,0,2,,,,2,76,0
44032,note_off,,,,,256,0,6,,,,1,55,0
44032,note_on,,,,,0,0,6,,,,1,72,127
44288,note_off,,,,,256,0,2,,,,2,72,0
44288,note_off,,,,,256,0,3,,,,6,69,0
44288,note_on,,,,,0,0,3,,,,6,69,101
44288,note_on,,,,,0,0,2,,,,2,72,114
44288,note_on,,,,,0,0,6,,,,1,72,127
44288,note_on,,,,,0,0,6,,,,1,69,127
44288,note_off,,,,,0,0,6,,,,1,72,0
44288,note_off,,,,,256,0,6,,,,1,69,0
44544,note_on,,,,,0,0,6,,,,1,52,114
44544,note_off,,,,,256,0,6,,,,1,53,0
44544,note_off,,,,,0,0,6,,,,1,53,0
44544,note_off,,,,,0,0,6,,,,1,57,0
44544,note_on,,,,,0,0,6,,,,1,55,127
44544,note_off,,,,,512,0,5,,,,3,53,0
44544,note_on,,,,,0,0,5,,,,3,52,101
44800,note_on,,,,,0,0,2,,,,2,76,114
44800,note_off,,,,,512,0,3,,,,6,69,0
44800,note_on,,,,,0,0,3,,,,6,72,101
44800,note_off,,,,,512,0,2,,,,2,72,0
44800,note_off,,,,,256,0,6,,,,1,69,0
44800,note_off,,,,,0,0,6,,,,1,72,0
44800,note_on,,,,,0,0,6,,,,1,76,127
45056,note_on,,,,,0,0,6,,,,1,69,127
45056,note_on,,,,,0,0,6,,,,1,62,127
45056,note_off,,,,,256,0,6,,,,1,55,0
45056,note_on,,,,,0,0,6,,,,1,72,127
45056,note_on,,,,,0,0,3,,,,6,69,101
45056,note_off,,,,,256,0,3,,,,6,72,0
45056,note_off,,,,,0,0,6,,,,1,52,0
45056,note_on,,,,,0,0,6,,,,1,50,114
45056,note_on,,,,,0,0,6,,,,1,65,127
45056,note_off,,,,,512,0,5,,,,3,52,0
45056,note_on,,,,,0,0,5,,,,3,50,101
45056,note_on,,,,,0,0,2,,,,2,72,114
45056,note_off,,,,,256,0,2,,,,2,76,0
45312,note_on,,,,,0,0,6,,,,1,72,127
45312,note_on,,,,,0,0,6,,,,1,69,127
45312,note_off,,,,,0,0,6,,,,1,76,0
45312,note_off,,,,,0,0,6,,,,1,72,0
45312,note_off,,,,,256,0,6,,,,1,69,0
45312,note_off,,,,,256,0,3,,,,6,69,0
45312,note_on,,,,,0,0,3,,,,6,69,101
45312,note_on,,,,,0,0,2,,,,2,72,114
45312,note_off,,,,,256,0,2,,,,2,72,0
45568,note_off,,,,,0,0,6,,,,1,65,0
45568,note_off,,,,,0,0,6,,,,1,50,0
45568,note_on,,,,,0,0,5,,,,3,48,101
45568,note_on,,,,,0,0,6,,,,1,60,127
45568,note_off,,,,,512,0,5,,,,3,50,0
45568,note_on,,,,,0,0,6,,,,1,64,127
45568,note_off,,,,,256,0,6,,,,1,62,0
45568,note_on,,,,,0,0,6,,,,1,48,114
45824,note_off,,,,,512,0,2,,,,2,72,0
45824,note_off,,,,,0,0,6,,,,1,72,0
45824,note_on,,,,,0,0,6,,,,1,76,127
45824,note_on,,,,,0,0,3,,,,6,72,101
45824,note_off,,,,,512,0,3,,,,6,69,0
45824,note_on,,,,,0,0,2,,,,2,76,114
45824,note_off,,,,,256,0,6,,,,1,69,0
46080,note_off,,,,,0,0,6,,,,1,48,0
46080,note_on,,,,,0,0,6,,,,1,47,114
46080,note_on,,,,,0,0,6,,,,1,59,127
46080,note_off,,,,,0,0,6,,,,1,76,0
46080,note_on,,,,,0,0,6,,,,1,72,127
46080,note_off,,,,,0,0,6,,,,1,64,0
46080,note_on,,,,,0,0,3,,,,6,69,101
46080,note_on,,,,,0,0,5,,,,3,47,101
46080,note_off,,,,,256,0,3,,,,6,72,0
46080,note_on,,,,,0,0,2,,,,2,72,114
46080,note_on,,,,,0,0,6,,,,1,69,127
46080,note_off,,,,,512,0,5,,,,3,48,0
46080,note_off,,,,,256,0,2,,,,2,76,0
46080,note_off,,,,,256,0,6,,,,1,60,0
46080,note_on,,,,,0,0,6,,,,1,62,127
46336,note_on,,,,,0,0,6,,,,1,72,127
46336,note_on,,,,,0,0,6,,,,1,69,127
46336,note_off,,,,,0,0,6,,,,1,72,0
46336,note_off,,,,,256,0,6,,,,1,69,0
46336,note_off,,,,,256,0,3,,,,6,69,0
46336,note_on,,,,,0,0,2,,,,2,72,114
46336,note_off,,,,,256,0,2,,,,2,72,0
46336,note_on,,,,,0,0,3,,,,6,69,101
46592,note_on,,,,,0,0,6,,,,1,45,114
46592,note_off,,,,,512,0,5,,,,3,47,0
46592,note_on,,,,,0,0,6,,,,1,60,127
46592,note_on,,,,,0,0,5,,,,3,45,101
46592,note_off,,,,,0,0,6,,,,1,47,0
46592,note_off,,,,,256,0,6,,,,1,59,0
46592,note_on,,,,,0,0,6,,,,1,57,127
46592,note_off,,,,,0,0,6,,,,1,62,0
46848,note_off,,,,,0,0,6,,,,1,72,0
46848,note_on,,,,,0,0,6,,,,1,76,127
46848,note_off,,,,,512,0,3,,,,6,69,0
46848,note_off,,,,,512,0,2,,,,2,72,0
46848,note_on,,,,,0,0,2,,,,2,76,114
46848,note_on,,,,,0,0,3,,,,6,72,101
46848,note_off,,,,,256,0,6,,,,1,69,0
47104,note_on,,,,,0,0,5,,,,3,52,101
47104,note_on,,,,,0,0,2,,,,2,80,114
47104,note_off,,,,,256,0,6,,,,1,57,0
47104,note_off,,,,,0,0,6,,,,1,60,0
47104,note_on,,,,,0,0,6,,,,1,64,127
47104,note_on,,,,,0,0,3,,,,6,71,101
47104,note_off,,,,,256,0,3,,,,6,72,0
47104,note_on,,,,,0,0,6,,,,1,80,127
47104,note_off,,,,,512,0,5,,,,3,45,0
47104,note_off,,,,,0,0,6,,,,1,45,0
47104,note_on,,,,,0,0,6,,,,1,52,114
47104,note_off,,,,,256,0,2,,,,2,76,0
47360,note_on,,,,,0,0,6,,,,1,81,127
47360,note_off,,,,,256,0,2,,,,2,80,0
47360,note_off,,,,,256,0,6,,,,1,76,0
47360,note_off,,,,,0,0,6,,,,1,80,0
47360,note_on,,,,,0,0,2,,,,2,81,114
47360,note_on,,,,,0,0,6,,,,1,71,127
47616,note_off,,,,,256,0,6,,,,1,64,0
47616,note_on,,,,,0,0,5,,,,3,54,101
47616,note_off,,,,,512,0,5,,,,3,52,0
47616,note_off,,,,,256,0,2,,,,2,81,0
47616,note_on,,,,,0,0,2,,,,2,83,114
47616,note_on,,,,,0,0,6,,,,1,54,114
47616,note_off,,,,,0,0,6,,,,1,52,0
47616,note_on,,,,,0,0,6,,,,1,83,127
47616,note_on,,,,,0,0,6,,,,1,64,127
47616,note_off,,,,,0,0,6,,,,1,81,0
47872,note_on,,,,,0,0,6,,,,1,74,127
47872,note_on,,,,,0,0,2,,,,2,74,114
47872,note_off,,,,,256,0,2,,,,2,83,0
47872,note_off,,,,,256,0,6,,,,1,83,0
48128,note_off,,,,,0,0,6,,,,1,74,0
48128,note_off,,,,,256,0,6,,,,1,64,0
48128,note_on,,,,,0,0,6,,,,1,52,114
48128,note_off,,,,,0,0,6,,,,1,54,0
48128,note_off,,,,,512,0,5,,,,3,54,0
48128,note_on,,,,,0,0,2,,,,2,71,114
48128,note_on,,,,,0,0,6,,,,1,71,127
48128,note_off,,,,,256,0,2,,,,2,74,0
48128,note_off,,,,,1024,0,3,,,,6,71,0
48128,note_on,,,,,0,0,3,,,,6,64,101
48128,note_on,,,,,0,0,5,,,,3,52,101
48128,note_on,,,,,0,0,6,,,,1,64,127
48384,note_on,,,,,0,0,6,,,,1,72,127
48384,note_off,,,,,0,0,6,,,,1,71,0
48384,note_on,,,,,0,0,6,,,,1,68,127
48384,note_off,,,,,256,0,2,,,,2,71,0
48384,note_on,,,,,0,0,2,,,,2,72,114
48384,note_off,,,,,256,0,6,,,,1,71,0
48640,note_off,,,,,256,0,6,,,,1,64,0
48640,note_off,,,,,0,0,6,,,,1,72,0
48640,note_on,,,,,0,0,6,,,,1,59,127
48640,note_on,,,,,0,0,6,,,,1,74,127
48640,note_on,,,,,0,0,2,,,,2,74,114
48640,note_off,,,,,256,0,2,,,,2,72,0
48896,note_on,,,,,0,0,2,,,,2,71,114
48896,note_off,,,,,0,0,6,,,,1,74,0
48896,note_off,,,,,256,0,2,,,,2,74,0
48896,note_off,,,,,256,0,6,,,,1,68,0
48896,note_on,,,,,0,0,6,,,,1,68,127
48896,note_on,,,,,0,0,6,,,,1,64,127
49152,note_off,,,,,256,0,6,,,,1,59,0
49152,note_on,,,,,0,0,2,,,,2,72,114
49152,note_off,,,,,256,0,2,,,,2,71,0
49152,note_off,,,,,1024,0,5,,,,3,52,0
49152,note_on,,,,,0,0,5,,,,3,57,101
49152,note_on,,,,,0,0,3,,,,6,69,101
49152,note_off,,,,,1024,0,3,,,,6,64,0
49152,note_on,,,,,0,0,6,,,,1,72,127
49152,note_on,,,,,0,0,6,,,,1,69,127
49152,note_on,,,,,0,0,6,,,,1,64,127
49152,note_on,,,,,0,0,6,,,,1,57,127
49152,note_off,,,,,0,0,6,,,,1,52,0
49152,note_off,,,,,0,0,6,,,,1,68,0
49152,note_on,,,,,0,0,6,,,,1,57,114
49408,note_off,,,,,256,0,6,,,,1,64,0
49664,note_off,,,,,512,0,5,,,,3,57,0
49664,note_off,,,,,512,0,3,,,,6,69,0
49664,note_on,,,,,0,0,3,,,,6,76,101
49664,note_off,,,,,512,0,2,,,,2,72,0
49664,note_on,,,,,0,0,5,,,,3,45,101
49664,note_on,,,,,0,0,2,,,,2,81,114
49664,note_off,,,,,0,0,6,,,,1,64,0
49664,note_off,,,,,0,0,6,,,,1,69,0
49664,note_off,,,,,0,0,6,,,,1,72,0
49664,note_on,,,,,0,0,6,,,,1,72,127
49664,note_on,,,,,0,0,6,,,,1,81,127
49664,note_off,,,,,0,0,6,,,,1,57,0
49664,note_on,,,,,0,0,6,,,,1,45,114
49664,note_off,,,,,256,0,6,,,,1,57,0
50176,note_off,,,,,512,0,3,,,,6,76,0
50176,note_on,,,,,0,0,3,,,,6,76,101
50176,note_off,,,,,512,0,2,,,,2,81,0
50176,note_on,,,,,0,0,2,,,,2,71,114
50176,note_off,,,,,512,0,5,,,,3,45,0
50176,note_on,,,,,0,0,5,,,,3,52,101
50176,note_on,,,,,0,0,6,,,,1,52,114
50176,note_on,,,,,0,0,6,,,,1,69,127
50176,note_on,,,,,0,0,6,,,,1,71,127
50176,note_off,,,,,0,0,6,,,,1,81,0
50176,note_off,,,,,512,0,6,,,,1,72,0
50176,note_off,,,,,0,0,6,,,,1,45,0
50688,note_off,,,,,512,0,2,,,,2,71,0
50688,note_on,,,,,0,0,2,,,,2,80,114
50688,note_off,,,,,512,0,3,,,,6,76,0
50688,note_on,,,,,0,0,3,,,,6,76,101
50688,note_off,,,,,512,0,6,,,,1,69,0
50688,note_off,,,,,512,0,5,,,,3,52,0
50688,note_on,,,,,0,0,5,,,,3,40,101
50688,note_off,,,,,0,0,6,,,,1,71,0
50688,note_on,,,,,0,0,6,,,,1,80,127
50688,note_on,,,,,0,0,6,,,,1,40,114
50688,note_off,,,,,0,0,6,,,,1,52,0
50688,note_on,,,,,0,0,6,,,,1,71,127
51200,note_off,,,,,512,0,2,,,,2,80,0
51200,note_off,,,,,512,0,6,,,,1,71,0
51200,note_on,,,,,0,0,6,,,,1,45,114
51200,note_on,,,,,0,0,6,,,,1,52,114
51200,note_off,,,,,0,0,6,,,,1,40,0
51200,note_off,,,,,512,0,5,,,,3,40,0
51200,note_on,,,,,0,0,5,,,,3,52,101
51200,note_on,,,,,0,0,2,,,,2,81,114
51200,note_on,,,,,0,0,3,,,,6,76,101
51200,note_off,,,,,512,0,3,,,,6,76,0
51200,note_on,,,,,0,0,6,,,,1,76,127
51200,note_on,,,,,0,0,6,,,,1,72,127
51200,note_off,,,,,0,0,6,,,,1,80,0
51200,note_on,,,,,0,0,5,,,,3,45,101
51200,note_on,,,,,0,0,6,,,,1,81,127
52224,note_off,,,,,1024,0,3,,,,6,76,0
52224,note_off,,,,,1024,0,6,,,,1,72,0
52224,note_off,,,,,0,0,6,,,,1,76,0
52224,note_off,,,,,1024,0,5,,,,3,45,0
52224,note_off,,,,,0,0,5,,,,3,52,0
52224,note_off,,,,,0,0,6,,,,1,45,0
52224,note_off,,,,,0,0,6,,,,1,81,0
52224,note_off,,,,,0,0,6,,,,1,52,0
52224,note_off,,,,,1024,0,2,,,,2,81,0
52736,note_on,,,,,512,0,6,,,,1,57,78
52736,note_on,,,,,0,0,6,,,,1,64,78
52736,note_on,,,,,0,0,6,,,,1,67,78
52736,note_on,,,,,0,0,6,,,,1,57,62
52736,note_on,,,,,512,0,3,,,,6,69,75
52736,note_on,,,,,52736,0,4,,,,12,76,127
52736,note_on,,,,,0,0,6,,,,1,72,78
52736,note_on,,,,,512,0,5,,,,3,57,75
52736,note_on,,,,,512,0,2,,,,2,76,49
53248,note_on,,,,,0,0,6,,,,1,69,78
53248,note_on,,,,,0,0,6,,,,1,64,78
53248,note_on,,,,,0,0,6,,,,1,60,78
53248,note_on,,,,,0,0,6,,,,1,57,78
53248,note_off,,,,,0,0,6,,,,1,57,0
53248,note_off,,,,,0,0,6,,,,1,72,0
53248,note_on,,,,,0,0,6,,,,1,57,62
53248,note_on,,,,,0,0,3,,,,6,64,75
53248,note_off,,,,,512,0,2,,,,2,76,0
53248,note_on,,,,,0,0,2,,,,2,69,49
53248,note_off,,,,,512,0,3,,,,6,69,0
53248,note_on,,,,,0,0,4,,,,12,72,127
53248,note_off,,,,,512,0,4,,,,12,76,0
53248,note_off,,,,,0,0,6,,,,1,67,0
53248,note_off,,,,,512,0,5,,,,3,57,0
53248,note_on,,,,,0,0,5,,,,3,57,75
53248,note_off,,,,,512,0,6,,,,1,57,0
53248,note_off,,,,,0,0,6,,,,1,64,0
53418,note_off,,,,,170,0,4,,,,12,72,0
53418,note_on,,,,,0,0,4,,,,12,71,127
53589,note_on,,,,,171,0,4,,,,12,69,127
53589,note_off,,,,,0,0,4,,,,12,71,0
53760,note_on,,,,,0,0,6,,,,1,69,78
53760,note_on,,,,,0,0,6,,,,1,57,78
53760,note_off,,,,,0,0,6,,,,1,69,0
53760,note_off,,,,,0,0,6,,,,1,64,0
53760,note_off,,,,,0,0,6,,,,1,60,0
53760,note_off,,,,,512,0,6,,,,1,57,0
53760,note_off,,,,,171,0,4,,,,12,69,0
53760,note_on,,,,,0,0,6,,,,1,57,62
53760,note_on,,,,,0,0,3,,,,6,69,75
53760,note_off,,,,,512,0,3,,,,6,64,0
53760,note_off,,,,,512,0,5,,,,3,57,0
53760,note_on,,,,,0,0,5,,,,3,57,75
53760,note_on,,,,,0,0,6,,,,1,72,78
53760,note_off,,,,,0,0,6,,,,1,57,0
53760,note_on,,,,,0,0,2,,,,2,72,49
53760,note_off,,,,,512,0,2,,,,2,69,0
53760,note_on,,,,,0,0,4,,,,12,76,127
53930,note_off,,,,,170,0,4,,,,12,76,0
53930,note_on,,,,,0,0,4,,,,12,74,127
54101,note_off,,,,,0,0,4,,,,12,74,0
54101,note_on,,,,,171,0,4,,,,12,72,127
54272,note_on,,,,,0,0,6,,,,1,72,78
54272,note_on,,,,,0,0,2,,,,2,76,49
54272,note_off,,,,,512,0,2,,,,2,72,0
54272,note_on,,,,,0,0,4,,,,12,81,127
54272,note_off,,,,,171,0,4,,,,12,72,0
54272,note_off,,,,,512,0,6,,,,1,57,0
54272,note_off,,,,,0,0,6,,,,1,69,0
54272,note_off,,,,,0,0,6,,,,1,72,0
54272,note_on,,,,,0,0,6,,,,1,57,78
54272,note_on,,,,,0,0,5,,,,3,57,75
54272,note_on,,,,,0,0,6,,,,1,76,78
54272,note_off,,,,,0,0,6,,,,1,57,0
54272,note_on,,,,,0,0,6,,,,1,57,62
54272,note_off,,,,,512,0,5,,,,3,57,0
54272,note_off,,,,,512,0,3,,,,6,69,0
54272,note_on,,,,,0,0,3,,,,6,72,75
54784,note_on,,,,,0,0,6,,,,1,57,62
54784,note_off,,,,,0,0,6,,,,1,72,0
54784,note_off,,,,,0,0,6,,,,1,76,0
54784,note_on,,,,,0,0,6,,,,1,57,78
54784,note_on,,,,,0,0,6,,,,1,69,78
54784,note_off,,,,,512,0,2,,,,2,76,0
54784,note_on,,,,,0,0,2,,,,2,72,49
54784,note_off,,,,,0,0,6,,,,1,57,0
54784,note_on,,,,,0,0,6,,,,1,72,78
54784,note_off,,,,,512,0,6,,,,1,57,0
54784,note_on,,,,,0,0,4,,,,12,76,127
54784,note_off,,,,,512,0,4,,,,12,81,0
54784,note_on,,,,,0,0,3,,,,6,69,75
54784,note_off,,,,,512,0,3,,,,6,72,0
54784,note_off,,,,,512,0,5,,,,3,57,0
54784,note_on,,,,,0,0,5,,,,3,57,75
55296,note_off,,,,,512,0,6,,,,1,57,0
55296,note_on,,,,,0,0,4,,,,12,77,127
55296,note_off,,,,,512,0,4,,,,12,76,0
55296,note_on,,,,,0,0,3,,,,6,69,75
55296,note_off,,,,,512,0,3,,,,6,69,0
55296,note_off,,,,,512,0,2,,,,2,72,0
55296,note_on,,,,,0,0,5,,,,3,62,75
55296,note_on,,,,,0,0,6,,,,1,62,62
55296,note_off,,,,,0,0,6,,,,1,57,0
55296,note_on,,,,,0,0,6,,,,1,74,78
55296,note_on,,,,,0,0,6,,,,1,69,78
55296,note_on,,,,,0,0,6,,,,1,65,78
55296,note_on,,,,,0,0,6,,,,1,62,78
55296,note_off,,,,,0,0,6,,,,1,72,0
55296,note_off,,,,,0,0,6,,,,1,69,0
55296,note_off,,,,,512,0,5,,,,3,57,0
55296,note_on,,,,,0,0,2,,,,2,74,49
55466,note_off,,,,,170,0,4,,,,12,77,0
55466,note_on,,,,,0,0,4,,,,12,81,127
55637,note_off,,,,,0,0,4,,,,12,81,0
55637,note_on,,,,,171,0,4,,,,12,79,127
55808,note_off,,,,,512,0,5,,,,3,62,0
55808,note_on,,,,,0,0,5,,,,3,62,75
55808,note_off,,,,,171,0,4,,,,12,79,0
55808,note_on,,,,,0,0,6,,,,1,62,62
55808,note_off,,,,,0,0,6,,,,1,62,0
55808,note_on,,,,,0,0,6,,,,1,62,78
55808,note_off,,,,,512,0,3,,,,6,69,0
55808,note_on,,,,,0,0,3,,,,6,69,75
55808,note_off,,,,,512,0,6,,,,1,62,0
55808,note_on,,,,,0,0,4,,,,12,77,127
55978,note_on,,,,,0,0,4,,,,12,76,127
55978,note_off,,,,,170,0,4,,,,12,77,0
56149,note_on,,,,,171,0,4,,,,12,74,127
56149,note_off,,,,,0,0,4,,,,12,76,0
56320,note_on,,,,,0,0,2,,,,2,74,49
56320,note_off,,,,,171,0,4,,,,12,74,0
56320,note_off,,,,,1024,0,2,,,,2,74,0
56320,note_on,,,,,0,0,4,,,,12,77,127
56320,note_on,,,,,0,0,6,,,,1,59,62
56320,note_on,,,,,0,0,6,,,,1,67,78
56320,note_on,,,,,0,0,6,,,,1,59,78
56320,note_off,,,,,0,0,6,,,,1,62,0
56320,note_off,,,,,512,0,6,,,,1,69,0
56320,note_off,,,,,512,0,5,,,,3,62,0
56320,note_on,,,,,0,0,3,,,,6,67,75
56320,note_off,,,,,512,0,3,,,,6,69,0
56320,note_off,,,,,0,0,6,,,,1,62,0
56320,note_on,,,,,0,0,5,,,,3,59,75
56490,note_on,,,,,0,0,4,,,,12,81,127
56490,note_off,,,,,170,0,4,,,,12,77,0
56661,note_off,,,,,0,0,4,,,,12,81,0
56661,note_on,,,,,171,0,4,,,,12,79,127
56832,note_off,,,,,171,0,4,,,,12,79,0
56832,note_off,,,,,512,0,5,,,,3,59,0
56832,note_on,,,,,0,0,6,,,,1,59,62
56832,note_off,,,,,0,0,6,,,,1,59,0
56832,note_on,,,,,0,0,6,,,,1,59,78
56832,note_on,,,,,0,0,5,,,,3,59,75
56832,note_on,,,,,0,0,4,,,,12,77,127
56832,note_off,,,,,512,0,6,,,,1,59,0
56832,note_on,,,,,0,0,3,,,,6,67,75
56832,note_off,,,,,512,0,3,,,,6,67,0
57002,note_off,,,,,170,0,4,,,,12,77,0
57002,note_on,,,,,0,0,4,,,,12,76,127
57173,note_on,,,,,171,0,4,,,,12,74,127
57173,note_off,,,,,0,0,4,,,,12,76,0
57344,note_off,,,,,1024,0,2,,,,2,74,0
57344,note_on,,,,,0,0,2,,,,2,72,49
57344,note_on,,,,,0,0,6,,,,1,60,62
57344,note_on,,,,,0,0,6,,,,1,72,78
57344,note_on,,,,,0,0,6,,,,1,67,78
57344,note_off,,,,,512,0,5,,,,3,59,0
57344,note_on,,,,,0,0,6,,,,1,64,78
57344,note_off,,,,,512,0,3,,,,6,67,0
57344,note_on,,,,,0,0,6,,,,1,60,78
57344,note_off,,,,,0,0,6,,,,1,59,0
57344,note_off,,,,,0,0,6,,,,1,59,0
57344,note_off,,,,,0,0,6,,,,1,67,0
57344,note_off,,,,,0,0,6,,,,1,74,0
57344,note_off,,,,,512,0,6,,,,1,65,0
57344,note_on,,,,,0,0,4,,,,12,76,127
57344,note_off,,,,,171,0,4,,,,12,74,0
57344,note_on,,,,,0,0,5,,,,3,60,75
57344,note_on,,,,,0,0,3,,,,6,67,75
57514,note_off,,,,,170,0,4,,,,12,76,0
57514,note_on,,,,,0,0,4,,,,12,79,127
57685,note_off,,,,,0,0,4,,,,12,79,0
57685,note_on,,,,,171,0,4,,,,12,77,127
57856,note_on,,,,,0,0,3,,,,6,67,75
57856,note_on,,,,,0,0,5,,,,3,60,75
57856,note_off,,,,,512,0,5,,,,3,60,0
57856,note_off,,,,,512,0,3,,,,6,67,0
57856,note_off,,,,,512,0,6,,,,1,60,0
57856,note_on,,,,,0,0,6,,,,1,60,78
57856,note_off,,,,,0,0,6,,,,1,60,0
57856,note_on,,,,,0,0,4,,,,12,76,127
57856,note_off,,,,,171,0,4,,,,12,77,0
57856,note_on,,,,,0,0,6,,,,1,60,62
58026,note_off,,,,,170,0,4,,,,12,76,0
58026,note_on,,,,,0,0,4,,,,12,74,127
58197,note_on,,,,,171,0,4,,,,12,72,127
58197,note_off,,,,,0,0,4,,,,12,74,0
58368,note_on,,,,,0,0,5,,,,3,57,75
58368,note_on,,,,,0,0,3,,,,6,65,75
58368,note_off,,,,,512,0,6,,,,1,67,0
58368,note_off,,,,,0,0,6,,,,1,60,0
58368,note_off,,,,,512,0,5,,,,3,60,0
58368,note_on,,,,,0,0,2,,,,2,72,49
58368,note_off,,,,,171,0,4,,,,12,72,0
58368,note_on,,,,,0,0,4,,,,12,76,127
58368,note_off,,,,,1024,0,2,,,,2,72,0
58368,note_on,,,,,0,0,6,,,,1,57,62
58368,note_on,,,,,0,0,6,,,,1,65,78
58368,note_off,,,,,512,0,3,,,,6,67,0
58368,note_off,,,,,0,0,6,,,,1,60,0
58368,note_on,,,,,0,0,6,,,,1,57,78
58538,note_on,,,,,0,0,4,,,,12,79,127
58538,note_off,,,,,170,0,4,,,,12,76,0
58709,note_on,,,,,171,0,4,,,,12,77,127
58709,note_off,,,,,0,0,4,,,,12,79,0
58880,note_off,,,,,512,0,5,,,,3,57,0
58880,note_on,,,,,0,0,5,,,,3,57,75
58880,note_on,,,,,0,0,6,,,,1,57,62
58880,note_off,,,,,0,0,6,,,,1,57,0
58880,note_on,,,,,0,0,6,,,,1,57,78
58880,note_off,,,,,512,0,3,,,,6,65,0
58880,note_on,,,,,0,0,3,,,,6,65,75
58880,note_off,,,,,512,0,6,,,,1,57,0
58880,note_off,,,,,171,0,4,,,,12,77,0
58880,note_on,,,,,0,0,4,,,,12,76,127
59050,note_on,,,,,0,0,4,,,,12,74,127
59050,note_off,,,,,170,0,4,,,,12,76,0
59221,note_off,,,,,0,0,4,,,,12,74,0
59221,note_on,,,,,171,0,4,,,,12,72,127
59392,note_on,,,,,0,0,6,,,,1,59,62
59392,note_off,,,,,0,0,6,,,,1,57,0
59392,note_on,,,,,0,0,6,,,,1,71,78
59392,note_off,,,,,1024,0,2,,,,2,72,0
59392,note_on,,,,,0,0,2,,,,2,71,49
59392,note_off,,,,,171,0,4,,,,12,72,0
59392,note_on,,,,,0,0,5,,,,3,59,75
59392,note_on,,,,,0,0,4,,,,12,74,127
59392,note_off,,,,,512,0,3,,,,6,65,0
59392,note_on,,,,,0,0,6,,,,1,62,78
59392,note_on,,,,,0,0,6,,,,1,59,78
59392,note_off,,,,,0,0,6,,,,1,57,0
59392,note_on,,,,,0,0,3,,,,6,65,75
59392,note_off,,,,,0,0,6,,,,1,72,0
59392,note_off,,,,,512,0,6,,,,1,64,0
59392,note_off,,,,,512,0,5,,,,3,57,0
59562,note_on,,,,,0,0,4,,,,12,77,127
59562,note_off,,,,,170,0,4,,,,12,74,0
59733,note_off,,,,,0,0,4,,,,12,77,0
59733,note_on,,,,,171,0,4,,,,12,76,127
59904,note_on,,,,,0,0,4,,,,12,74,127
59904,note_off,,,,,171,0,4,,,,12,76,0
59904,note_off,,,,,512,0,3,,,,6,65,0
59904,note_on,,,,,0,0,6,,,,1,59,78
59904,note_off,,,,,0,0,6,,,,1,59,0
59904,note_on,,,,,0,0,5,,,,3,59,75
59904,note_off,,,,,512,0,5,,,,3,59,0
59904,note_on,,,,,0,0,3,,,,6,65,75
59904,note_off,,,,,512,0,6,,,,1,59,0
59904,note_on,,,,,0,0,6,,,,1,59,62
60074,note_off,,,,,170,0,4,,,,12,74,0
60074,note_on,,,,,0,0,4,,,,12,72,127
60245,note_on,,,,,171,0,4,,,,12,71,127
60245,note_off,,,,,0,0,4,,,,12,72,0
60416,note_on,,,,,0,0,6,,,,1,64,78
60416,note_off,,,,,512,0,3,,,,6,65,0
60416,note_off,,,,,1024,0,2,,,,2,71,0
60416,note_on,,,,,0,0,6,,,,1,56,62
60416,note_on,,,,,0,0,6,,,,1,56,78
60416,note_on,,,,,0,0,3,,,,6,64,75
60416,note_off,,,,,512,0,5,,,,3,59,0
60416,note_on,,,,,0,0,4,,,,12,74,127
60416,note_off,,,,,171,0,4,,,,12,71,0
60416,note_off,,,,,512,0,6,,,,1,65,0
60416,note_off,,,,,0,0,6,,,,1,59,0
60416,note_off,,,,,0,0,6,,,,1,59,0
60416,note_on,,,,,0,0,5,,,,3,56,75
60416,note_on,,,,,0,0,2,,,,2,71,49
60586,note_off,,,,,170,0,4,,,,12,74,0
60586,note_on,,,,,0,0,4,,,,12,77,127
60757,note_off,,,,,0,0,4,,,,12,77,0
60757,note_on,,,,,171,0,4,,,,12,76,127
60928,note_off,,,,,171,0,4,,,,12,76,0
60928,note_off,,,,,512,0,3,,,,6,64,0
60928,note_on,,,,,0,0,4,,,,12,74,127
60928,note_on,,,,,0,0,3,,,,6,64,75
60928,note_off,,,,,512,0,6,,,,1,56,0
60928,note_on,,,,,0,0,6,,,,1,56,78
60928,note_off,,,,,0,0,6,,,,1,56,0
60928,note_on,,,,,0,0,6,,,,1,56,62
60928,note_on,,,,,0,0,5,,,,3,56,75
60928,note_off,,,,,512,0,5,,,,3,56,0
61098,note_on,,,,,0,0,4,,,,12,72,127
61098,note_off,,,,,170,0,4,,,,12,74,0
61269,note_on,,,,,171,0,4,,,,12,71,127
61269,note_off,,,,,0,0,4,,,,12,72,0
61440,note_on,,,,,0,0,6,,,,1,64,78
61440,note_off,,,,,512,0,6,,,,1,62,0
61440,note_off,,,,,0,0,6,,,,1,64,0
61440,note_on,,,,,0,0,6,,,,1,57,62
61440,note_off,,,,,0,0,6,,,,1,56,0
61440,note_off,,,,,0,0,6,,,,1,56,0
61440,note_on,,,,,0,0,6,,,,1,57,78
61440,note_on,,,,,0,0,6,,,,1,60,78
61440,note_off,,,,,0,0,6,,,,1,71,0
61440,note_on,,,,,0,0,6,,,,1,69,78
61440,note_on,,,,,0,0,3,,,,6,64,75
61440,note_on,,,,,0,0,5,,,,3,57,75
61440,note_off,,,,,512,0,5,,,,3,56,0
61440,note_on,,,,,0,0,4,,,,12,72,127
61440,note_off,,,,,171,0,4,,,,12,71,0
61440,note_on,,,,,0,0,2,,,,2,69,49
61440,note_off,,,,,1024,0,2,,,,2,71,0
61440,note_off,,,,,512,0,3,,,,6,64,0
61952,note_off,,,,,0,0,6,,,,1,60,0
61952,note_on,,,,,0,0,6,,,,1,57,62
61952,note_off,,,,,0,0,6,,,,1,57,0
61952,note_on,,,,,0,0,6,,,,1,64,78
61952,note_on,,,,,0,0,6,,,,1,60,78
61952,note_on,,,,,0,0,6,,,,1,57,78
61952,note_off,,,,,0,0,6,,,,1,69,0
61952,note_off,,,,,0,0,6,,,,1,64,0
61952,note_off,,,,,512,0,3,,,,6,64,0
61952,note_off,,,,,512,0,6,,,,1,57,0
61952,note_on,,,,,0,0,3,,,,6,64,75
61952,note_off,,,,,512,0,4,,,,12,72,0
61952,note_on,,,,,0,0,4,,,,12,69,127
61952,note_off,,,,,512,0,5,,,,3,57,0
61952,note_on,,,,,0,0,5,,,,3,57,75
62464,note_on,,,,,0,0,6,,,,1,57,62
62464,note_off,,,,,0,0,6,,,,1,57,0
62464,note_on,,,,,0,0,6,,,,1,69,78
62464,note_on,,,,,0,0,6,,,,1,57,78
62464,note_off,,,,,512,0,5,,,,3,57,0
62464,note_off,,,,,0,0,6,,,,1,60,0
62464,note_off,,,,,512,0,6,,,,1,57,0
62464,note_on,,,,,0,0,5,,,,3,57,75
62464,note_off,,,,,0,0,6,,,,1,64,0
62464,note_on,,,,,0,0,6,,,,1,64,78
62464,note_on,,,,,0,0,6,,,,1,60,78
62464,note_on,,,,,0,0,2,,,,2,72,49
62464,note_off,,,,,1024,0,2,,,,2,69,0
62464,note_off,,,,,512,0,3,,,,6,64,0
62464,note_on,,,,,0,0,3,,,,6,69,75
62496,note_off,,,,,544,0,4,,,,12,69,0
62976,note_on,,,,,480,0,4,,,,12,76,127
62976,note_off,,,,,512,0,5,,,,3,57,0
62976,note_on,,,,,0,0,5,,,,3,57,75
62976,note_on,,,,,0,0,3,,,,6,69,75
62976,note_off,,,,,512,0,3,,,,6,69,0
62976,note_off,,,,,512,0,6,,,,1,57,0
62976,note_on,,,,,0,0,6,,,,1,57,78
62976,note_off,,,,,0,0,6,,,,1,57,0
62976,note_on,,,,,0,0,6,,,,1,57,62
63488,note_on,,,,,0,0,6,,,,1,57,78
63488,note_on,,,,,0,0,2,,,,2,69,49
63488,note_off,,,,,1024,0,2,,,,2,72,0
63488,note_off,,,,,512,0,6,,,,1,60,0
63488,note_off,,,,,512,0,5,,,,3,57,0
63488,note_on,,,,,0,0,5,,,,3,45,75
63488,note_off,,,,,0,0,6,,,,1,57,0
63488,note_off,,,,,0,0,6,,,,1,64,0
63488,note_off,,,,,0,0,6,,,,1,69,0
63488,note_off,,,,,512,0,4,,,,12,76,0
63488,note_off,,,,,0,0,6,,,,1,57,0
63488,note_on,,,,,0,0,4,,,,12,72,127
63488,note_off,,,,,512,0,3,,,,6,69,0
63488,note_on,,,,,0,0,6,,,,1,60,78
63488,note_on,,,,,0,0,6,,,,1,64,78
63488,note_on,,,,,0,0,6,,,,1,69,78
63488,note_on,,,,,0,0,6,,,,1,45,62
63488,note_on,,,,,0,0,3,,,,6,64,75
63658,note_off,,,,,170,0,4,,,,12,72,0
63658,note_on,,,,,0,0,4,,,,12,71,127
63829,note_on,,,,,171,0,4,,,,12,69,127
63829,note_off,,,,,0,0,4,,,,12,71,0
64000,note_off,,,,,512,0,2,,,,2,69,0
64000,note_off,,,,,171,0,4,,,,12,69,0
64000,note_on,,,,,0,0,4,,,,12,76,127
64000,note_on,,,,,0,0,5,,,,3,45,75
64000,note_on,,,,,0,0,2,,,,2,72,49
64000,note_off,,,,,0,0,6,,,,1,60,0
64000,note_off,,,,,0,0,6,,,,1,64,0
64000,note_off,,,,,0,0,6,,,,1,69,0
64000,note_on,,,,,0,0,6,,,,1,57,78
64000,note_off,,,,,512,0,5,,,,3,45,0
64000,note_on,,,,,0,0,6,,,,1,69,78
64000,note_on,,,,,0,0,3,,,,6,69,75
64000,note_off,,,,,512,0,3,,,,6,64,0
64000,note_on,,,,,0,0,6,,,,1,72,78
64000,note_off,,,,,0,0,6,,,,1,45,0
64000,note_on,,,,,0,0,6,,,,1,45,62
64000,note_off,,,,,512,0,6,,,,1,57,0
64170,note_on,,,,,0,0,4,,,,12,74,127
64170,note_off,,,,,170,0,4,,,,12,76,0
64341,note_on,,,,,171,0,4,,,,12,72,127
64341,note_off,,,,,0,0,4,,,,12,74,0
64512,note_on,,,,,0,0,3,,,,6,72,75
64512,note_on,,,,,0,0,5,,,,3,57,75
64512,note_off,,,,,512,0,3,,,,6,69,0
64512,note_on,,,,,0,0,6,,,,1,57,62
64512,note_off,,,,,0,0,6,,,,1,45,0
64512,note_on,,,,,0,0,6,,,,1,76,78
64512,note_on,,,,,0,0,6,,,,1,72,78
64512,note_off,,,,,512,0,5,,,,3,45,0
64512,note_off,,,,,171,0,4,,,,12,72,0
64512,note_on,,,,,0,0,4,,,,12,81,127
64512,note_off,,,,,0,0,6,,,,1,72,0
64512,note_off,,,,,0,0,6,,,,1,69,0
64512,note_off,,,,,512,0,6,,,,1,57,0
64512,note_off,,,,,512,0,2,,,,2,72,0
64512,note_on,,,,,0,0,2,,,,2,76,49
64512,note_on,,,,,0,0,6,,,,1,57,78
65024,note_on,,,,,0,0,5,,,,3,57,75
65024,note_off,,,,,512,0,6,,,,1,57,0
65024,note_off,,,,,0,0,6,,,,1,72,0
65024,note_on,,,,,0,0,6,,,,1,72,78
65024,note_off,,,,,512,0,5,,,,3,57,0
65024,note_off,,,,,0,0,6,,,,1,57,0
65024,note_off,,,,,0,0,6,,,,1,76,0
65024,note_on,,,,,0,0,3,,,,6,69,75
65024,note_off,,,,,512,0,3,,,,6,72,0
65024,note_on,,,,,0,0,6,,,,1,69,78
65024,note_on,,,,,0,0,4,,,,12,76,127
65024,note_off,,,,,512,0,4,,,,12,81,0
65024,note_off,,,,,512,0,2,,,,2,76,0
65024,note_on,,,,,0,0,2,,,,2,72,49
65024,note_on,,,,,0,0,6,,,,1,57,62
65024,note_on,,,,,0,0,6,,,,1,57,78
65536,note_off,,,,,512,0,3,,,,6,69,0
65536,note_on,,,,,0,0,3,,,,6,69,75
65536,note_on,,,,,0,0,5,,,,3,62,75
65536,note_off,,,,,512,0,5,,,,3,57,0
65536,note_on,,,,,0,0,6,,,,1,62,62
65536,note_on,,,,,0,0,6,,,,1,74,78
65536,note_on,,,,,0,0,2,,,,2,74,49
65536,note_on,,,,,0,0,4,,,,12,77,127
65536,note_off,,,,,512,0,4,,,,12,76,0
65536,note_off,,,,,512,0,2,,,,2,72,0
65536,note_off,,,,,0,0,6,,,,1,69,0
65536,note_off,,,,,0,0,6,,,,1,72,0
65536,note_off,,,,,512,0,6,,,,1,57,0
65536,note_off,,,,,0,0,6,,,,1,57,0
65536,note_on,,,,,0,0,6,,,,1,62,78
65536,note_on,,,,,0,0,6,,,,1,65,78
65536,note_on,,,,,0,0,6,,,,1,69,78
65706,note_off,,,,,170,0,4,,,,12,77,0
65706,note_on,,,,,0,0,4,,,,12,79,127
65877,note_off,,,,,171,0,4,,,,12,79,0
65877,note_on,,,,,0,0,4,,,,12,81,127
66048,note_off,,,,,171,0,4,,,,12,81,0
66048,note_on,,,,,0,0,4,,,,12,81,127
66048,note_on,,,,,0,0,6,,,,1,62,78
66048,note_off,,,,,512,0,3,,,,6,69,0
66048,note_off,,,,,0,0,6,,,,1,62,0
66048,note_on,,,,,0,0,6,,,,1,62,62
66048,note_on,,,,,0,0,5,,,,3,62,75
66048,note_off,,,,,512,0,5,,,,3,62,0
66048,note_off,,,,,512,0,6,,,,1,62,0
66048,note_on,,,,,0,0,3,,,,6,69,75
66560,note_on,,,,,0,0,6,,,,1,67,78
66560,note_off,,,,,512,0,3,,,,6,69,0
66560,note_on,,,,,0,0,3,,,,6,65,75
66560,note_on,,,,,0,0,5,,,,3,59,75
66560,note_off,,,,,512,0,5,,,,3,62,0
66560,note_off,,,,,512,0,6,,,,1,69,0
66560,note_off,,,,,0,0,6,,,,1,62,0
66560,note_off,,,,,0,0,6,,,,1,62,0
66560,note_on,,,,,0,0,6,,,,1,59,78
66560,note_on,,,,,0,0,6,,,,1,59,62
66592,note_off,,,,,544,0,4,,,,12,81,0
66731,note_off,,,,,171,0,3,,,,6,65,0
66731,note_on,,,,,0,0,3,,,,6,67,75
66901,note_on,,,,,0,0,3,,,,6,69,75
66901,note_off,,,,,170,0,3,,,,6,67,0
67072,note_on,,,,,0,0,6,,,,1,59,78
67072,note_off,,,,,512,0,6,,,,1,59,0
67072,note_on,,,,,480,0,4,,,,12,74,127
67072,note_on,,,,,0,0,3,,,,6,69,75
67072,note_off,,,,,171,0,3,,,,6,69,0
67072,note_off,,,,,0,0,6,,,,1,59,0
67072,note_off,,,,,512,0,5,,,,3,59,0
67072,note_on,,,,,0,0,6,,,,1,59,62
67072,note_on,,,,,0,0,5,,,,3,59,75
67584,note_off,,,,,512,0,5,,,,3,59,0
67584,note_on,,,,,0,0,2,,,,2,72,49
67584,note_off,,,,,2048,0,2,,,,2,74,0
67584,note_off,,,,,512,0,4,,,,12,74,0
67584,note_off,,,,,512,0,6,,,,1,65,0
67584,note_off,,,,,0,0,6,,,,1,74,0
67584,note_off,,,,,0,0,6,,,,1,59,0
67584,note_off,,,,,0,0,6,,,,1,59,0
67584,note_on,,,,,0,0,6,,,,1,60,78
67584,note_on,,,,,0,0,6,,,,1,64,78
67584,note_on,,,,,0,0,6,,,,1,72,78
67584,note_on,,,,,0,0,3,,,,6,67,75
67584,note_off,,,,,512,0,3,,,,6,69,0
67584,note_on,,,,,0,0,5,,,,3,60,75
67584,note_on,,,,,0,0,6,,,,1,60,62
67584,note_on,,,,,0,0,4,,,,12,76,127
67754,note_on,,,,,0,0,4,,,,12,77,127
67754,note_off,,,,,170,0,4,,,,12,76,0
67925,note_off,,,,,171,0,4,,,,12,77,0
67925,note_on,,,,,0,0,4,,,,12,79,127
68096,note_on,,,,,0,0,6,,,,1,60,62
68096,note_off,,,,,0,0,6,,,,1,60,0
68096,note_on,,,,,0,0,6,,,,1,60,78
68096,note_on,,,,,0,0,4,,,,12,79,127
68096,note_off,,,,,171,0,4,,,,12,79,0
68096,note_off,,,,,512,0,6,,,,1,60,0
68096,note_off,,,,,512,0,5,,,,3,60,0
68096,note_on,,,,,0,0,3,,,,6,67,75
68096,note_on,,,,,0,0,5,,,,3,60,75
68096,note_off,,,,,512,0,3,,,,6,67,0
68608,note_on,,,,,0,0,3,,,,6,64,75
68608,note_off,,,,,512,0,3,,,,6,67,0
68608,note_off,,,,,0,0,6,,,,1,60,0
68608,note_on,,,,,0,0,6,,,,1,57,62
68608,note_on,,,,,0,0,6,,,,1,65,78
68608,note_on,,,,,0,0,6,,,,1,57,78
68608,note_off,,,,,0,0,6,,,,1,60,0
68608,note_on,,,,,0,0,5,,,,3,57,75
68608,note_off,,,,,512,0,6,,,,1,67,0
68608,note_off,,,,,512,0,5,,,,3,60,0
68640,note_off,,,,,544,0,4,,,,12,79,0
68779,note_off,,,,,171,0,3,,,,6,64,0
68779,note_on,,,,,0,0,3,,,,6,65,75
68949,note_off,,,,,170,0,3,,,,6,65,0
68949,note_on,,,,,0,0,3,,,,6,67,75
69120,note_on,,,,,0,0,6,,,,1,57,78
69120,note_off,,,,,512,0,6,,,,1,57,0
69120,note_on,,,,,480,0,4,,,,12,72,127
69120,note_on,,,,,0,0,6,,,,1,57,62
69120,note_on,,,,,0,0,5,,,,3,57,75
69120,note_off,,,,,171,0,3,,,,6,67,0
69120,note_on,,,,,0,0,3,,,,6,67,75
69120,note_off,,,,,0,0,6,,,,1,57,0
69120,note_off,,,,,512,0,5,,,,3,57,0
69632,note_on,,,,,0,0,2,,,,2,71,49
69632,note_off,,,,,512,0,6,,,,1,64,0
69632,note_off,,,,,0,0,6,,,,1,65,0
69632,note_off,,,,,0,0,6,,,,1,57,0
69632,note_off,,,,,0,0,6,,,,1,57,0
69632,note_on,,,,,0,0,6,,,,1,59,78
69632,note_on,,,,,0,0,6,,,,1,62,78
69632,note_on,,,,,0,0,6,,,,1,65,78
69632,note_on,,,,,0,0,6,,,,1,71,78
69632,note_on,,,,,0,0,6,,,,1,59,62
69632,note_off,,,,,0,0,6,,,,1,72,0
69632,note_off,,,,,2048,0,2,,,,2,72,0
69632,note_on,,,,,0,0,5,,,,3,59,75
69632,note_on,,,,,0,0,3,,,,6,65,75
69632,note_off,,,,,512,0,3,,,,6,67,0
69632,note_off,,,,,512,0,4,,,,12,72,0
69632,note_on,,,,,0,0,4,,,,12,74,127
69632,note_off,,,,,512,0,5,,,,3,57,0
69802,note_off,,,,,170,0,4,,,,12,74,0
69802,note_on,,,,,0,0,4,,,,12,76,127
69973,note_off,,,,,171,0,4,,,,12,76,0
69973,note_on,,,,,0,0,4,,,,12,77,127
70058,note_off,,,,,85,0,4,,,,12,77,0
70144,note_on,,,,,0,0,6,,,,1,59,78
70144,note_off,,,,,0,0,6,,,,1,59,0
70144,note_on,,,,,0,0,6,,,,1,59,62
70144,note_on,,,,,0,0,5,,,,3,59,75
70144,note_off,,,,,512,0,5,,,,3,59,0
70144,note_off,,,,,512,0,3,,,,6,65,0
70144,note_on,,,,,0,0,3,,,,6,65,75
70144,note_off,,,,,512,0,6,,,,1,59,0
70144,note_on,,,,,86,0,4,,,,12,77,127
70656,note_off,,,,,0,0,6,,,,1,59,0
70656,note_on,,,,,0,0,6,,,,1,64,78
70656,note_on,,,,,0,0,6,,,,1,56,78
70656,note_off,,,,,0,0,6,,,,1,59,0
70656,note_on,,,,,0,0,3,,,,6,62,75
70656,note_on,,,,,0,0,6,,,,1,56,62
70656,note_off,,,,,512,0,3,,,,6,65,0
70656,note_off,,,,,512,0,6,,,,1,65,0
70656,note_off,,,,,512,0,5,,,,3,59,0
70656,note_on,,,,,0,0,5,,,,3,56,75
70688,note_off,,,,,544,0,4,,,,12,77,0
70827,note_on,,,,,0,0,3,,,,6,64,75
70827,note_off,,,,,171,0,3,,,,6,62,0
70997,note_off,,,,,170,0,3,,,,6,64,0
70997,note_on,,,,,0,0,3,,,,6,65,75
71168,note_on,,,,,0,0,6,,,,1,56,78
71168,note_on,,,,,0,0,6,,,,1,56,62
71168,note_on,,,,,480,0,4,,,,12,71,127
71168,note_off,,,,,512,0,6,,,,1,56,0
71168,note_on,,,,,0,0,3,,,,6,65,75
71168,note_off,,,,,171,0,3,,,,6,65,0
71168,note_off,,,,,0,0,6,,,,1,56,0
71168,note_off,,,,,512,0,5,,,,3,56,0
71168,note_on,,,,,0,0,5,,,,3,56,75
71680,note_on,,,,,0,0,6,,,,1,57,62
71680,note_off,,,,,2048,0,2,,,,2,71,0
71680,note_on,,,,,0,0,2,,,,2,69,49
71680,note_off,,,,,512,0,6,,,,1,62,0
71680,note_off,,,,,0,0,6,,,,1,71,0
71680,note_off,,,,,0,0,6,,,,1,64,0
71680,note_off,,,,,0,0,6,,,,1,56,0
71680,note_off,,,,,0,0,6,,,,1,56,0
71680,note_on,,,,,0,0,6,,,,1,57,78
71680,note_on,,,,,0,0,6,,,,1,60,78
71680,note_on,,,,,0,0,6,,,,1,64,78
71680,note_on,,,,,0,0,6,,,,1,69,78
71680,note_off,,,,,512,0,3,,,,6,65,0
71680,note_off,,,,,512,0,4,,,,12,71,0
71680,note_on,,,,,0,0,4,,,,12,72,127
71680,note_on,,,,,0,0,3,,,,6,64,75
71680,note_off,,,,,512,0,5,,,,3,56,0
71680,note_on,,,,,0,0,5,,,,3,57,75
71936,note_off,,,,,256,0,4,,,,12,72,0
71936,note_on,,,,,0,0,4,,,,12,69,127
72192,note_off,,,,,512,0,2,,,,2,69,0
72192,note_on,,,,,0,0,2,,,,2,76,49
72192,note_off,,,,,512,0,5,,,,3,57,0
72192,note_on,,,,,0,0,5,,,,3,45,75
72192,note_on,,,,,0,0,4,,,,12,81,127
72192,note_off,,,,,256,0,4,,,,12,69,0
72192,note_off,,,,,0,0,6,,,,1,64,0
72192,note_off,,,,,0,0,6,,,,1,60,0
72192,note_off,,,,,0,0,6,,,,1,69,0
72192,note_on,,,,,0,0,6,,,,1,57,78
72192,note_off,,,,,512,0,6,,,,1,57,0
72192,note_on,,,,,0,0,6,,,,1,72,78
72192,note_on,,,,,0,0,6,,,,1,76,78
72192,note_off,,,,,0,0,6,,,,1,57,0
72192,note_on,,,,,0,0,6,,,,1,45,62
72704,note_off,,,,,512,0,2,,,,2,76,0
72704,note_on,,,,,0,0,2,,,,2,76,49
72704,note_off,,,,,0,0,6,,,,1,45,0
72704,note_off,,,,,512,0,5,,,,3,45,0
72704,note_on,,,,,0,0,6,,,,1,72,78
72704,note_on,,,,,0,0,6,,,,1,57,78
72704,note_on,,,,,0,0,6,,,,1,76,78
72704,note_off,,,,,0,0,6,,,,1,72,0
72704,note_off,,,,,512,0,6,,,,1,57,0
72704,note_off,,,,,1024,0,3,,,,6,64,0
72704,note_off,,,,,0,0,6,,,,1,76,0
73216,note_on,,,,,512,0,3,,,,6,60,75
73216,note_off,,,,,512,0,6,,,,1,57,0
73216,note_off,,,,,0,0,6,,,,1,72,0
73216,note_off,,,,,0,0,6,,,,1,76,0
73216,note_on,,,,,0,0,2,,,,2,76,49
73216,note_off,,,,,512,0,2,,,,2,76,0
73216,note_on,,,,,0,0,6,,,,1,76,78
73216,note_on,,,,,0,0,6,,,,1,57,78
73216,note_on,,,,,0,0,6,,,,1,72,78
73472,note_off,,,,,256,0,3,,,,6,60,0
73472,note_on,,,,,0,0,3,,,,6,57,75
73728,note_off,,,,,512,0,6,,,,1,57,0
73728,note_off,,,,,0,0,6,,,,1,72,0
73728,note_off,,,,,0,0,6,,,,1,76,0
73728,note_on,,,,,0,0,6,,,,1,57,78
73728,note_on,,,,,0,0,6,,,,1,72,78
73728,note_on,,,,,0,0,6,,,,1,76,78
73728,note_on,,,,,0,0,3,,,,6,72,75
73728,note_on,,,,,0,0,2,,,,2,76,49
73728,note_off,,,,,512,0,2,,,,2,76,0
73728,note_off,,,,,256,0,3,,,,6,57,0
73984,note_off,,,,,1792,0,4,,,,12,81,0
73984,note_on,,,,,0,0,4,,,,12,79,127
74240,note_off,,,,,256,0,4,,,,12,79,0
74240,note_on,,,,,0,0,4,,,,12,78,127
74496,note_off,,,,,256,0,4,,,,12,78,0
74496,note_on,,,,,0,0,4,,,,12,76,127
74752,note_off,,,,,1024,0,2,,,,2,76,0
74752,note_off,,,,,256,0,4,,,,12,76,0
74752,note_off,,,,,0,0,6,,,,1,76,0
74752,note_off,,,,,0,0,6,,,,1,72,0
74752,note_off,,,,,1024,0,6,,,,1,57,0
74752,note_on,,,,,0,0,4,,,,12,78,127
74752,note_off,,,,,1024,0,3,,,,6,72,0
75008,note_off,,,,,256,0,4,,,,12,78,0
75008,note_on,,,,,0,0,4,,,,12,76,127
75264,note_on,,,,,512,0,6,,,,1,57,78
75264,note_off,,,,,256,0,4,,,,12,76,0
75264,note_on,,,,,0,0,4,,,,12,75,127
75264,note_on,,,,,512,0,3,,,,6,73,75
75264,note_on,,,,,512,0,2,,,,2,76,49
75264,note_on,,,,,0,0,6,,,,1,64,78
75264,note_on,,,,,0,0,6,,,,1,69,78
75264,note_on,,,,,2560,0,5,,,,3,57,75
75264,note_on,,,,,0,0,6,,,,1,73,78
75264,note_on,,,,,0,0,6,,,,1,57,62
75520,note_off,,,,,256,0,4,,,,12,75,0
75520,note_on,,,,,0,0,4,,,,12,73,127
75776,note_on,,,,,0,0,3,,,,6,66,75
75776,note_off,,,,,0,0,6,,,,1,73,0
75776,note_off,,,,,0,0,6,,,,1,64,0
75776,note_off,,,,,0,0,6,,,,1,69,0
75776,note_on,,,,,0,0,6,,,,1,59,78
75776,note_on,,,,,0,0,6,,,,1,63,78
75776,note_on,,,,,0,0,6,,,,1,66,78
75776,note_on,,,,,0,0,6,,,,1,71,78
75776,note_off,,,,,0,0,6,,,,1,57,0
75776,note_on,,,,,0,0,6,,,,1,59,62
75776,note_off,,,,,512,0,6,,,,1,57,0
75776,note_off,,,,,512,0,5,,,,3,57,0
75776,note_on,,,,,0,0,5,,,,3,59,75
75776,note_off,,,,,512,0,3,,,,6,73,0
75776,note_off,,,,,512,0,2,,,,2,76,0
75776,note_on,,,,,0,0,2,,,,2,75,49
75776,note_off,,,,,256,0,4,,,,12,73,0
75776,note_on,,,,,0,0,4,,,,12,75,127
76032,note_off,,,,,256,0,4,,,,12,75,0
76032,note_on,,,,,0,0,4,,,,12,71,127
76288,note_on,,,,,0,0,6,,,,1,47,62
76288,note_off,,,,,0,0,6,,,,1,59,0
76288,note_on,,,,,0,0,6,,,,1,75,78
76288,note_on,,,,,0,0,6,,,,1,66,78
76288,note_on,,,,,0,0,6,,,,1,59,78
76288,note_off,,,,,0,0,6,,,,1,71,0
76288,note_off,,,,,0,0,6,,,,1,66,0
76288,note_off,,,,,0,0,6,,,,1,63,0
76288,note_off,,,,,512,0,6,,,,1,59,0
76288,note_on,,,,,0,0,4,,,,12,83,127
76288,note_off,,,,,512,0,5,,,,3,59,0
76288,note_on,,,,,0,0,3,,,,6,66,75
76288,note_on,,,,,0,0,2,,,,2,75,49
76288,note_off,,,,,512,0,2,,,,2,75,0
76288,note_on,,,,,0,0,5,,,,3,47,75
76288,note_off,,,,,256,0,4,,,,12,71,0
76288,note_off,,,,,512,0,3,,,,6,66,0
76800,note_off,,,,,512,0,3,,,,6,66,0
76800,note_off,,,,,0,0,6,,,,1,47,0
76800,note_on,,,,,0,0,6,,,,1,75,78
76800,note_off,,,,,0,0,6,,,,1,75,0
76800,note_on,,,,,0,0,6,,,,1,66,78
76800,note_on,,,,,0,0,6,,,,1,59,78
76800,note_off,,,,,0,0,6,,,,1,66,0
76800,note_on,,,,,0,0,3,,,,6,66,75
76800,note_off,,,,,512,0,5,,,,3,47,0
76800,note_off,,,,,512,0,2,,,,2,75,0
76800,note_on,,,,,0,0,2,,,,2,75,49
76800,note_off,,,,,512,0,6,,,,1,59,0
77312,note_on,,,,,0,0,6,,,,1,75,78
77312,note_off,,,,,512,0,2,,,,2,75,0
77312,note_on,,,,,0,0,2,,,,2,75,49
77312,note_on,,,,,0,0,6,,,,1,66,78
77312,note_off,,,,,512,0,3,,,,6,66,0
77312,note_off,,,,,0,0,6,,,,1,75,0
77312,note_on,,,,,0,0,6,,,,1,59,78
77312,note_off,,,,,512,0,6,,,,1,59,0
77312,note_off,,,,,0,0,6,,,,1,66,0
77312,note_on,,,,,0,0,3,,,,6,66,75
77824,note_on,,,,,0,0,6,,,,1,66,78
77824,note_on,,,,,0,0,6,,,,1,75,78
77824,note_on,,,,,0,0,6,,,,1,59,78
77824,note_off,,,,,512,0,2,,,,2,75,0
77824,note_off,,,,,512,0,6,,,,1,59,0
77824,note_on,,,,,0,0,2,,,,2,75,49
77824,note_on,,,,,0,0,3,,,,6,66,75
77824,note_off,,,,,512,0,3,,,,6,66,0
77824,note_off,,,,,0,0,6,,,,1,75,0
77824,note_off,,,,,0,0,6,,,,1,66,0
78080,note_off,,,,,1792,0,4,,,,12,83,0
78080,note_on,,,,,0,0,4,,,,12,81,127
78336,note_off,,,,,256,0,4,,,,12,81,0
78336,note_on,,,,,0,0,4,,,,12,79,127
78592,note_off,,,,,256,0,4,,,,12,79,0
78592,note_on,,,,,0,0,4,,,,12,78,127
78848,note_off,,,,,1024,0,2,,,,2,75,0
78848,note_off,,,,,1024,0,3,,,,6,66,0
78848,note_off,,,,,0,0,6,,,,1,75,0
78848,note_off,,,,,256,0,4,,,,12,78,0
78848,note_off,,,,,0,0,6,,,,1,66,0
78848,note_off,,,,,1024,0,6,,,,1,59,0
78848,note_on,,,,,0,0,4,,,,12,79,127
79104,note_off,,,,,256,0,4,,,,12,79,0
79104,note_on,,,,,0,0,4,,,,12,78,127
79360,note_on,,,,,0,0,6,,,,1,71,78
79360,note_on,,,,,0,0,6,,,,1,47,62
79360,note_on,,,,,2560,0,5,,,,3,47,75
79360,note_on,,,,,512,0,6,,,,1,63,78
79360,note_on,,,,,0,0,6,,,,1,66,78
79360,note_on,,,,,512,0,2,,,,2,78,49
79360,note_on,,,,,512,0,3,,,,6,71,75
79360,note_off,,,,,256,0,4,,,,12,78,0
79360,note_on,,,,,0,0,4,,,,12,76,127
79616,note_off,,,,,256,0,4,,,,12,76,0
79616,note_on,,,,,0,0,4,,,,12,75,127
79872,note_off,,,,,512,0,5,,,,3,47,0
79872,note_off,,,,,256,0,4,,,,12,75,0
79872,note_on,,,,,0,0,4,,,,12,76,127
79872,note_off,,,,,512,0,2,,,,2,78,0
79872,note_on,,,,,0,0,2,,,,2,79,49
79872,note_off,,,,,512,0,3,,,,6,71,0
79872,note_on,,,,,0,0,5,,,,3,47,75
79872,note_on,,,,,0,0,3,,,,6,71,75
79872,note_off,,,,,0,0,6,,,,1,47,0
79872,note_on,,,,,0,0,6,,,,1,67,78
79872,note_on,,,,,0,0,6,,,,1,64,78
79872,note_off,,,,,0,0,6,,,,1,71,0
79872,note_off,,,,,0,0,6,,,,1,66,0
79872,note_off,,,,,512,0,6,,,,1,63,0
79872,note_on,,,,,0,0,6,,,,1,47,62
79872,note_on,,,,,0,0,6,,,,1,71,78
80128,note_on,,,,,0,0,4,,,,12,79,127
80128,note_off,,,,,256,0,4,,,,12,76,0
80384,note_on,,,,,0,0,6,,,,1,78,78
80384,note_off,,,,,0,0,6,,,,1,71,0
80384,note_on,,,,,0,0,6,,,,1,75,78
80384,note_off,,,,,512,0,2,,,,2,79,0
80384,note_off,,,,,512,0,5,,,,3,47,0
80384,note_on,,,,,0,0,5,,,,3,47,75
80384,note_off,,,,,0,0,6,,,,1,47,0
80384,note_on,,,,,0,0,6,,,,1,47,62
80384,note_off,,,,,0,0,6,,,,1,67,0
80384,note_off,,,,,512,0,6,,,,1,64,0
80384,note_on,,,,,0,0,2,,,,2,78,49
80384,note_on,,,,,0,0,4,,,,12,78,127
80384,note_off,,,,,256,0,4,,,,12,79,0
80384,note_off,,,,,512,0,3,,,,6,71,0
80384,note_on,,,,,0,0,3,,,,6,71,75
80896,note_on,,,,,0,0,6,,,,1,76,38
80896,note_on,,,,,0,0,6,,,,1,47,62
80896,note_off,,,,,0,0,6,,,,1,47,0
80896,note_on,,,,,0,0,6,,,,1,79,38
80896,note_on,,,,,0,0,6,,,,1,78,78
80896,note_on,,,,,0,0,6,,,,1,75,78
80896,note_off,,,,,512,0,6,,,,1,75,0
80896,note_off,,,,,0,0,6,,,,1,78,0
80896,note_off,,,,,512,0,5,,,,3,47,0
80896,note_off,,,,,512,0,3,,,,6,71,0
80896,note_on,,,,,0,0,3,,,,6,71,75
80896,note_on,,,,,0,0,2,,,,2,78,49
80896,note_off,,,,,512,0,2,,,,2,78,0
80896,note_on,,,,,0,0,5,,,,3,47,75
80964,note_off,,,,,68,0,6,,,,1,76,0
80964,note_off,,,,,0,0,6,,,,1,79,0
80981,note_on,,,,,17,0,6,,,,1,75,38
80981,note_on,,,,,0,0,6,,,,1,78,38
81049,note_off,,,,,68,0,6,,,,1,75,0
81049,note_off,,,,,0,0,6,,,,1,78,0
81066,note_on,,,,,17,0,6,,,,1,76,38
81066,note_on,,,,,0,0,6,,,,1,79,38
81134,note_off,,,,,68,0,6,,,,1,76,0
81134,note_off,,,,,0,0,6,,,,1,79,0
81152,note_on,,,,,0,0,4,,,,12,81,127
81152,note_off,,,,,768,0,4,,,,12,78,0
81152,note_on,,,,,18,0,6,,,,1,75,38
81152,note_on,,,,,0,0,6,,,,1,78,38
81220,note_off,,,,,68,0,6,,,,1,75,0
81220,note_off,,,,,0,0,6,,,,1,78,0
81237,note_on,,,,,17,0,6,,,,1,76,38
81237,note_on,,,,,0,0,6,,,,1,79,38
81305,note_off,,,,,0,0,6,,,,1,79,0
81305,note_off,,,,,68,0,6,,,,1,76,0
81322,note_on,,,,,0,0,6,,,,1,78,38
81322,note_on,,,,,17,0,6,,,,1,75,38
81390,note_off,,,,,0,0,6,,,,1,78,0
81390,note_off,,,,,68,0,6,,,,1,75,0
81408,note_off,,,,,0,0,6,,,,1,47,0
81408,note_on,,,,,0,0,6,,,,1,79,38
81408,note_on,,,,,0,0,4,,,,12,79,127
81408,note_off,,,,,256,0,4,,,,12,81,0
81408,note_on,,,,,18,0,6,,,,1,76,38
81408,note_off,,,,,512,0,5,,,,3,47,0
81408,note_on,,,,,0,0,5,,,,3,47,75
81408,note_on,,,,,0,0,6,,,,1,47,62
81476,note_off,,,,,68,0,6,,,,1,76,0
81476,note_off,,,,,0,0,6,,,,1,79,0
81664,note_off,,,,,256,0,4,,,,12,79,0
81664,note_on,,,,,0,0,4,,,,12,78,127
81920,note_off,,,,,0,0,6,,,,1,47,0
81920,note_on,,,,,0,0,6,,,,1,71,78
81920,note_on,,,,,0,0,6,,,,1,76,78
81920,note_on,,,,,0,0,6,,,,1,79,78
81920,note_on,,,,,0,0,6,,,,1,47,62
81920,note_off,,,,,444,0,6,,,,1,75,0
81920,note_off,,,,,512,0,5,,,,3,47,0
81920,note_off,,,,,0,0,6,,,,1,78,0
81920,note_on,,,,,0,0,5,,,,3,47,75
81920,note_off,,,,,256,0,4,,,,12,78,0
81920,note_off,,,,,1024,0,2,,,,2,78,0
81920,note_on,,,,,0,0,2,,,,2,76,49
81920,note_off,,,,,1024,0,3,,,,6,71,0
81920,note_on,,,,,0,0,3,,,,6,71,75
81920,note_on,,,,,0,0,4,,,,12,79,127
82176,note_off,,,,,256,0,4,,,,12,79,0
82176,note_on,,,,,0,0,4,,,,12,76,127
82432,note_off,,,,,512,0,5,,,,3,47,0
82432,note_on,,,,,0,0,6,,,,1,47,62
82432,note_off,,,,,0,0,6,,,,1,47,0
82432,note_off,,,,,0,0,6,,,,1,79,0
82432,note_on,,,,,0,0,6,,,,1,75,78
82432,note_off,,,,,0,0,6,,,,1,76,0
82432,note_off,,,,,512,0,3,,,,6,71,0
82432,note_on,,,,,0,0,3,,,,6,71,75
82432,note_on,,,,,0,0,2,,,,2,75,49
82432,note_off,,,,,512,0,2,,,,2,76,0
82432,note_on,,,,,0,0,6,,,,1,78,78
82432,note_on,,,,,0,0,5,,,,3,47,75
82432,note_off,,,,,512,0,6,,,,1,71,0
82432,note_off,,,,,256,0,4,,,,12,76,0
82432,note_on,,,,,0,0,4,,,,12,75,127
82944,note_on,,,,,0,0,5,,,,3,47,75
82944,note_on,,,,,0,0,6,,,,1,76,38
82944,note_on,,,,,0,0,6,,,,1,78,78
82944,note_on,,,,,0,0,6,,,,1,79,38
82944,note_off,,,,,0,0,6,,,,1,47,0
82944,note_on,,,,,0,0,6,,,,1,47,62
82944,note_on,,,,,0,0,6,,,,1,75,78
82944,note_off,,,,,0,0,6,,,,1,78,0
82944,note_off,,,,,512,0,2,,,,2,75,0
82944,note_on,,,,,0,0,2,,,,2,75,49
82944,note_on,,,,,0,0,3,,,,6,71,75
82944,note_off,,,,,512,0,3,,,,6,71,0
82944,note_off,,,,,512,0,5,,,,3,47,0
82944,note_off,,,,,512,0,6,,,,1,75,0
83012,note_off,,,,,0,0,6,,,,1,79,0
83012,note_off,,,,,68,0,6,,,,1,76,0
83029,note_on,,,,,17,0,6,,,,1,75,38
83029,note_on,,,,,0,0,6,,,,1,78,38
83097,note_off,,,,,0,0,6,,,,1,78,0
83097,note_off,,,,,68,0,6,,,,1,75,0
83114,note_on,,,,,0,0,6,,,,1,79,38
83114,note_on,,,,,17,0,6,,,,1,76,38
83136,note_off,,,,,704,0,4,,,,12,75,0
83136,note_on,,,,,0,0,4,,,,12,76,127
83182,note_off,,,,,68,0,6,,,,1,76,0
83182,note_off,,,,,0,0,6,,,,1,79,0
83200,note_on,,,,,0,0,6,,,,1,78,38
83200,note_on,,,,,18,0,6,,,,1,75,38
83200,note_on,,,,,0,0,4,,,,12,78,127
83200,note_off,,,,,64,0,4,,,,12,76,0
83268,note_off,,,,,68,0,6,,,,1,75,0
83268,note_off,,,,,0,0,6,,,,1,78,0
83285,note_on,,,,,17,0,6,,,,1,76,38
83285,note_on,,,,,0,0,6,,,,1,79,38
83353,note_off,,,,,0,0,6,,,,1,79,0
83353,note_off,,,,,68,0,6,,,,1,76,0
83370,note_on,,,,,17,0,6,,,,1,75,38
83370,note_on,,,,,0,0,6,,,,1,78,38
83438,note_off,,,,,68,0,6,,,,1,75,0
83438,note_off,,,,,0,0,6,,,,1,78,0
83456,note_off,,,,,256,0,4,,,,12,78,0
83456,note_on,,,,,18,0,6,,,,1,76,38
83456,note_on,,,,,0,0,6,,,,1,79,38
83456,note_off,,,,,0,0,6,,,,1,47,0
83456,note_on,,,,,0,0,6,,,,1,47,62
83456,note_off,,,,,512,0,5,,,,3,47,0
83456,note_on,,,,,0,0,5,,,,3,47,75
83456,note_on,,,,,0,0,4,,,,12,76,127
83524,note_off,,,,,68,0,6,,,,1,76,0
83524,note_off,,,,,0,0,6,,,,1,79,0
83712,note_off,,,,,256,0,4,,,,12,76,0
83712,note_on,,,,,0,0,4,,,,12,75,127
83968,note_on,,,,,0,0,2,,,,2,67,49
83968,note_off,,,,,1024,0,2,,,,2,75,0
83968,note_on,,,,,0,0,5,,,,3,47,75
83968,note_on,,,,,0,0,4,,,,12,76,127
83968,note_off,,,,,512,0,5,,,,3,47,0
83968,note_off,,,,,256,0,4,,,,12,75,0
83968,note_on,,,,,0,0,6,,,,1,76,78
83968,note_on,,,,,0,0,6,,,,1,79,78
83968,note_off,,,,,1024,0,3,,,,6,71,0
83968,note_on,,,,,0,0,3,,,,6,64,75
83968,note_on,,,,,0,0,6,,,,1,47,62
83968,note_off,,,,,0,0,6,,,,1,47,0
83968,note_on,,,,,0,0,6,,,,1,71,78
83968,note_off,,,,,0,0,6,,,,1,78,0
83968,note_off,,,,,444,0,6,,,,1,75,0
84224,note_off,,,,,256,0,4,,,,12,76,0
84224,note_on,,,,,0,0,4,,,,12,72,127
84480,note_off,,,,,0,0,6,,,,1,76,0
84480,note_off,,,,,256,0,4,,,,12,72,0
84480,note_on,,,,,0,0,6,,,,1,66,78
84480,note_on,,,,,0,0,5,,,,3,47,75
84480,note_on,,,,,0,0,6,,,,1,47,62
84480,note_off,,,,,0,0,6,,,,1,47,0
84480,note_on,,,,,0,0,6,,,,1,63,78
84480,note_off,,,,,0,0,6,,,,1,79,0
84480,note_on,,,,,0,0,4,,,,12,71,127
84480,note_off,,,,,512,0,5,,,,3,47,0
84480,note_off,,,,,512,0,6,,,,1,71,0
84480,note_off,,,,,512,0,3,,,,6,64,0
84480,note_off,,,,,512,0,2,,,,2,67,0
84480,note_on,,,,,0,0,2,,,,2,65,49
84480,note_on,,,,,0,0,3,,,,6,63,75
84992,note_off,,,,,0,0,6,,,,1,47,0
84992,note_on,,,,,0,0,6,,,,1,47,62
84992,note_off,,,,,512,0,6,,,,1,63,0
84992,note_off,,,,,0,0,6,,,,1,66,0
84992,note_on,,,,,0,0,3,,,,6,63,75
84992,note_on,,,,,0,0,6,,,,1,63,78
84992,note_off,,,,,512,0,5,,,,3,47,0
84992,note_off,,,,,512,0,2,,,,2,65,0
84992,note_on,,,,,0,0,2,,,,2,65,49
84992,note_on,,,,,0,0,6,,,,1,64,38
84992,note_off,,,,,512,0,3,,,,6,63,0
84992,note_on,,,,,0,0,6,,,,1,66,78
84992,note_on,,,,,0,0,6,,,,1,67,38
84992,note_on,,,,,0,0,5,,,,3,47,75
85060,note_off,,,,,68,0,6,,,,1,64,0
85060,note_off,,,,,0,0,6,,,,1,67,0
85077,note_on,,,,,0,0,6,,,,1,66,38
85077,note_on,,,,,17,0,6,,,,1,63,38
85145,note_off,,,,,68,0,6,,,,1,63,0
85145,note_off,,,,,0,0,6,,,,1,66,0
85162,note_on,,,,,17,0,6,,,,1,64,38
85162,note_on,,,,,0,0,6,,,,1,67,38
85230,note_off,,,,,68,0,6,,,,1,64,0
85230,note_off,,,,,0,0,6,,,,1,67,0
85248,note_on,,,,,0,0,6,,,,1,66,38
85248,note_off,,,,,768,0,4,,,,12,71,0
85248,note_on,,,,,0,0,4,,,,12,69,127
85248,note_on,,,,,18,0,6,,,,1,63,38
85316,note_off,,,,,68,0,6,,,,1,63,0
85316,note_off,,,,,0,0,6,,,,1,66,0
85333,note_on,,,,,17,0,6,,,,1,64,38
85333,note_on,,,,,0,0,6,,,,1,67,38
85401,note_off,,,,,68,0,6,,,,1,64,0
85401,note_off,,,,,0,0,6,,,,1,67,0
85418,note_on,,,,,17,0,6,,,,1,63,38
85418,note_on,,,,,0,0,6,,,,1,66,38
85486,note_off,,,,,68,0,6,,,,1,63,0
85486,note_off,,,,,0,0,6,,,,1,66,0
85504,note_on,,,,,0,0,5,,,,3,47,75
85504,note_on,,,,,0,0,4,,,,12,67,127
85504,note_off,,,,,256,0,4,,,,12,69,0
85504,note_on,,,,,0,0,6,,,,1,47,62
85504,note_off,,,,,0,0,6,,,,1,47,0
85504,note_on,,,,,0,0,6,,,,1,67,38
85504,note_on,,,,,18,0,6,,,,1,64,38
85504,note_off,,,,,512,0,5,,,,3,47,0
85572,note_off,,,,,0,0,6,,,,1,67,0
85572,note_off,,,,,68,0,6,,,,1,64,0
85760,note_off,,,,,256,0,4,,,,12,67,0
85760,note_on,,,,,0,0,4,,,,12,66,127
86016,note_on,,,,,0,0,6,,,,1,67,117
86016,note_off,,,,,1024,0,2,,,,2,65,0
86016,note_off,,,,,1024,0,3,,,,6,63,0
86016,note_on,,,,,0,0,3,,,,6,67,75
86016,note_on,,,,,0,0,6,,,,1,40,101
86016,note_off,,,,,0,0,6,,,,1,47,0
86016,note_off,,,,,0,0,6,,,,1,66,0
86016,note_on,,,,,0,0,6,,,,1,71,117
86016,note_off,,,,,444,0,6,,,,1,63,0
86016,note_on,,,,,0,0,5,,,,3,40,75
86016,note_off,,,,,512,0,5,,,,3,47,0
86016,note_off,,,,,256,0,4,,,,12,66,0
86016,note_on,,,,,0,0,4,,,,12,67,127
86016,note_on,,,,,0,0,2,,,,2,76,127
86016,note_on,,,,,0,0,6,,,,1,76,117
86272,note_off,,,,,0,0,6,,,,1,76,0
86272,note_on,,,,,0,0,6,,,,1,71,117
86272,note_off,,,,,256,0,6,,,,1,71,0
86272,note_on,,,,,0,0,3,,,,6,67,75
86272,note_on,,,,,0,0,6,,,,1,76,117
86272,note_off,,,,,256,0,2,,,,2,76,0
86272,note_on,,,,,0,0,2,,,,2,76,127
86272,note_off,,,,,256,0,3,,,,6,67,0
86528,note_on,,,,,0,0,6,,,,1,67,117
86528,note_off,,,,,512,0,4,,,,12,67,0
86528,note_on,,,,,0,0,4,,,,12,64,127
86528,note_on,,,,,0,0,6,,,,1,52,101
86528,note_on,,,,,0,0,5,,,,3,52,75
86528,note_off,,,,,512,0,5,,,,3,40,0
86528,note_off,,,,,256,0,6,,,,1,67,0
86528,note_off,,,,,0,0,6,,,,1,40,0
86784,note_off,,,,,512,0,2,,,,2,76,0
86784,note_on,,,,,0,0,2,,,,2,79,127
86784,note_off,,,,,0,0,6,,,,1,76,0
86784,note_on,,,,,0,0,6,,,,1,79,117
86784,note_on,,,,,0,0,3,,,,6,71,75
86784,note_off,,,,,512,0,3,,,,6,67,0
86784,note_off,,,,,256,0,6,,,,1,71,0
87040,note_on,,,,,0,0,6,,,,1,40,101
87040,note_off,,,,,0,0,6,,,,1,52,0
87040,note_on,,,,,0,0,6,,,,1,76,117
87040,note_on,,,,,0,0,6,,,,1,71,117
87040,note_on,,,,,0,0,6,,,,1,67,117
87040,note_off,,,,,0,0,6,,,,1,79,0
87040,note_on,,,,,0,0,5,,,,3,40,75
87040,note_off,,,,,256,0,3,,,,6,71,0
87040,note_on,,,,,0,0,3,,,,6,67,75
87040,note_off,,,,,512,0,4,,,,12,64,0
87040,note_on,,,,,0,0,2,,,,2,76,127
87040,note_off,,,,,256,0,6,,,,1,67,0
87040,note_off,,,,,512,0,5,,,,3,52,0
87040,note_off,,,,,256,0,2,,,,2,79,0
87296,note_off,,,,,256,0,3,,,,6,67,0
87296,note_on,,,,,0,0,6,,,,1,76,117
87296,note_on,,,,,0,0,6,,,,1,71,117
87296,note_off,,,,,0,0,6,,,,1,76,0
87296,note_on,,,,,0,0,3,,,,6,67,75
87296,note_off,,,,,256,0,2,,,,2,76,0
87296,note_on,,,,,0,0,2,,,,2,76,127
87296,note_off,,,,,256,0,6,,,,1,71,0
87552,note_on,,,,,0,0,6,,,,1,67,117
87552,note_off,,,,,256,0,6,,,,1,67,0
87552,note_on,,,,,0,0,5,,,,3,52,75
87552,note_off,,,,,512,0,5,,,,3,40,0
87552,note_off,,,,,0,0,6,,,,1,40,0
87552,note_on,,,,,0,0,6,,,,1,52,101
87808,note_on,,,,,0,0,6,,,,1,79,117
87808,note_on,,,,,0,0,2,,,,2,79,127
87808,note_off,,,,,512,0,2,,,,2,76,0
87808,note_off,,,,,512,0,3,,,,6,67,0
87808,note_off,,,,,0,0,6,,,,1,76,0
87808,note_off,,,,,256,0,6,,,,1,71,0
87808,note_on,,,,,0,0,3,,,,6,71,75
88064,note_off,,,,,256,0,6,,,,1,67,0
88064,note_on,,,,,0,0,6,,,,1,73,117
88064,note_on,,,,,0,0,6,,,,1,76,117
88064,note_off,,,,,0,0,6,,,,1,52,0
88064,note_on,,,,,0,0,6,,,,1,45,101
88064,note_on,,,,,0,0,6,,,,1,67,117
88064,note_off,,,,,0,0,6,,,,1,79,0
88064,note_on,,,,,0,0,5,,,,3,45,75
88064,note_off,,,,,512,0,5,,,,3,52,0
88064,note_on,,,,,0,0,2,,,,2,76,127
88064,note_off,,,,,256,0,2,,,,2,79,0
88064,note_off,,,,,256,0,3,,,,6,71,0
88064,note_on,,,,,0,0,3,,,,6,67,75
88320,note_on,,,,,0,0,2,,,,2,76,127
88320,note_off,,,,,256,0,2,,,,2,76,0
88320,note_off,,,,,256,0,3,,,,6,67,0
88320,note_on,,,,,0,0,3,,,,6,67,75
88320,note_off,,,,,256,0,6,,,,1,73,0
88320,note_on,,,,,0,0,6,,,,1,73,117
88320,note_on,,,,,0,0,6,,,,1,76,117
88320,note_off,,,,,0,0,6,,,,1,76,0
88576,note_off,,,,,0,0,6,,,,1,45,0
88576,note_on,,,,,0,0,6,,,,1,67,117
88576,note_off,,,,,256,0,6,,,,1,67,0
88576,note_on,,,,,0,0,6,,,,1,57,101
88576,note_off,,,,,512,0,5,,,,3,45,0
88576,note_on,,,,,0,0,5,,,,3,57,75
88832,note_on,,,,,0,0,3,,,,6,71,75
88832,note_off,,,,,512,0,3,,,,6,67,0
88832,note_on,,,,,0,0,2,,,,2,79,127
88832,note_off,,,,,512,0,2,,,,2,76,0
88832,note_on,,,,,0,0,6,,,,1,79,117
88832,note_off,,,,,0,0,6,,,,1,76,0
88832,note_off,,,,,256,0,6,,,,1,73,0
89088,note_on,,,,,0,0,6,,,,1,73,117
89088,note_off,,,,,256,0,2,,,,2,79,0
89088,note_off,,,,,256,0,6,,,,1,67,0
89088,note_off,,,,,0,0,6,,,,1,79,0
89088,note_off,,,,,512,0,5,,,,3,57,0
89088,note_on,,,,,0,0,6,,,,1,67,117
89088,note_on,,,,,0,0,3,,,,6,67,75
89088,note_on,,,,,0,0,5,,,,3,45,75
89088,note_off,,,,,256,0,3,,,,6,71,0
89088,note_on,,,,,0,0,6,,,,1,45,101
89088,note_off,,,,,0,0,6,,,,1,57,0
89088,note_on,,,,,0,0,6,,,,1,76,117
89088,note_on,,,,,0,0,2,,,,2,76,127
89344,note_off,,,,,256,0,3,,,,6,67,0
89344,note_on,,,,,0,0,2,,,,2,76,127
89344,note_on,,,,,0,0,3,,,,6,67,75
89344,note_on,,,,,0,0,6,,,,1,76,117
89344,note_on,,,,,0,0,6,,,,1,73,117
89344,note_off,,,,,0,0,6,,,,1,76,0
89344,note_off,,,,,256,0,6,,,,1,73,0
89344,note_off,,,,,256,0,2,,,,2,76,0
89600,note_off,,,,,0,0,6,,,,1,45,0
89600,note_on,,,,,0,0,6,,,,1,67,117
89600,note_off,,,,,256,0,6,,,,1,67,0
89600,note_off,,,,,512,0,5,,,,3,45,0
89600,note_on,,,,,0,0,5,,,,3,57,75
89600,note_on,,,,,0,0,6,,,,1,57,101
89856,note_off,,,,,256,0,6,,,,1,73,0
89856,note_on,,,,,0,0,6,,,,1,79,117
89856,note_off,,,,,0,0,6,,,,1,76,0
89856,note_off,,,,,512,0,2,,,,2,76,0
89856,note_on,,,,,0,0,3,,,,6,71,75
89856,note_on,,,,,0,0,2,,,,2,79,127
89856,note_off,,,,,512,0,3,,,,6,67,0
90112,note_off,,,,,512,0,5,,,,3,57,0
90112,note_off,,,,,256,0,3,,,,6,71,0
90112,note_on,,,,,0,0,3,,,,6,74,75
90112,note_on,,,,,0,0,2,,,,2,77,49
90112,note_off,,,,,256,0,2,,,,2,79,0
90112,note_on,,,,,3072,0,4,,,,12,74,127
90112,note_on,,,,,0,0,5,,,,3,50,75
90112,note_off,,,,,256,0,6,,,,1,67,0
90112,note_on,,,,,0,0,6,,,,1,50,62
90112,note_on,,,,,0,0,6,,,,1,77,58
90112,note_on,,,,,0,0,6,,,,1,74,58
90112,note_off,,,,,0,0,6,,,,1,79,0
90112,note_on,,,,,0,0,6,,,,1,69,58
90112,note_off,,,,,0,0,6,,,,1,57,0
90368,note_off,,,,,256,0,4,,,,12,74,0
90368,note_on,,,,,0,0,4,,,,12,76,127
90624,note_off,,,,,512,0,2,,,,2,77,0
90624,note_on,,,,,0,0,4,,,,12,77,127
90624,note_off,,,,,256,0,4,,,,12,76,0
90624,note_off,,,,,0,0,6,,,,1,74,0
90624,note_on,,,,,0,0,2,,,,2,65,49
90624,note_off,,,,,0,0,6,,,,1,77,0
90624,note_on,,,,,0,0,6,,,,1,62,58
90624,note_off,,,,,512,0,6,,,,1,69,0
90624,note_off,,,,,512,0,3,,,,6,74,0
90624,note_on,,,,,0,0,3,,,,6,62,75
90624,note_on,,,,,0,0,6,,,,1,65,58
90880,note_off,,,,,256,0,4,,,,12,77,0
90880,note_on,,,,,0,0,4,,,,12,79,127
91136,note_off,,,,,512,0,6,,,,1,62,0
91136,note_on,,,,,0,0,6,,,,1,64,58
91136,note_off,,,,,512,0,3,,,,6,62,0
91136,note_on,,,,,0,0,3,,,,6,64,75
91136,note_off,,,,,1024,0,5,,,,3,50,0
91136,note_on,,,,,0,0,6,,,,1,67,58
91136,note_off,,,,,256,0,4,,,,12,79,0
91136,note_on,,,,,0,0,2,,,,2,67,49
91136,note_off,,,,,512,0,2,,,,2,65,0
91136,note_off,,,,,0,0,6,,,,1,65,0
91136,note_off,,,,,0,0,6,,,,1,50,0
91136,note_on,,,,,0,0,4,,,,12,81,127
91392,note_on,,,,,0,0,4,,,,12,77,127
91392,note_off,,,,,256,0,4,,,,12,81,0
91648,note_off,,,,,512,0,6,,,,1,64,0
91648,note_on,,,,,0,0,2,,,,2,69,49
91648,note_off,,,,,512,0,2,,,,2,67,0
91648,note_on,,,,,0,0,6,,,,1,65,58
91648,note_off,,,,,0,0,6,,,,1,67,0
91648,note_off,,,,,512,0,3,,,,6,64,0
91648,note_on,,,,,0,0,3,,,,6,65,75
91648,note_on,,,,,0,0,4,,,,12,76,127
91648,note_on,,,,,0,0,6,,,,1,69,58
91648,note_off,,,,,256,0,4,,,,12,77,0
91904,note_on,,,,,0,0,4,,,,12,74,127
91904,note_off,,,,,256,0,4,,,,12,76,0
92160,note_off,,,,,512,0,2,,,,2,69,0
92160,note_off,,,,,512,0,3,,,,6,65,0
92160,note_on,,,,,0,0,3,,,,6,62,75
92160,note_off,,,,,512,0,6,,,,1,65,0
92160,note_on,,,,,1024,0,5,,,,3,58,75
92160,note_on,,,,,0,0,6,,,,1,58,62
92160,note_on,,,,,0,0,6,,,,1,62,58
92160,note_on,,,,,0,0,6,,,,1,58,58
92160,note_off,,,,,0,0,6,,,,1,69,0
92160,note_on,,,,,0,0,2,,,,2,67,49
92160,note_off,,,,,256,0,4,,,,12,74,0
92160,note_on,,,,,0,0,4,,,,12,67,127
92416,note_on,,,,,0,0,4,,,,12,69,127
92416,note_off,,,,,256,0,4,,,,12,67,0
92672,note_on,,,,,0,0,6,,,,1,55,58
92672,note_on,,,,,0,0,6,,,,1,58,58
92672,note_off,,,,,0,0,6,,,,1,58,0
92672,note_on,,,,,0,0,6,,,,1,55,62
92672,note_off,,,,,512,0,6,,,,1,58,0
92672,note_on,,,,,0,0,3,,,,6,58,75
92672,note_off,,,,,512,0,3,,,,6,62,0
92672,note_on,,,,,0,0,4,,,,12,70,127
92672,note_off,,,,,256,0,4,,,,12,69,0
92672,note_off,,,,,512,0,5,,,,3,58,0
92672,note_on,,,,,0,0,5,,,,3,55,75
92928,note_off,,,,,256,0,4,,,,12,70,0
92928,note_on,,,,,0,0,4,,,,12,72,127
93184,note_off,,,,,0,0,6,,,,1,58,0
93184,note_off,,,,,0,0,6,,,,1,55,0
93184,note_on,,,,,0,0,6,,,,1,60,58
93184,note_off,,,,,0,0,6,,,,1,55,0
93184,note_off,,,,,512,0,6,,,,1,62,0
93184,note_off,,,,,512,0,3,,,,6,58,0
93184,note_on,,,,,0,0,3,,,,6,60,75
93184,note_on,,,,,0,0,6,,,,1,57,62
93184,note_on,,,,,0,0,5,,,,3,57,75
93184,note_off,,,,,256,0,4,,,,12,72,0
93184,note_on,,,,,0,0,4,,,,12,74,127
93184,note_on,,,,,0,0,6,,,,1,57,58
93184,note_off,,,,,512,0,5,,,,3,55,0
93440,note_off,,,,,256,0,4,,,,12,74,0
93440,note_on,,,,,0,0,4,,,,12,70,127
93696,note_off,,,,,0,0,6,,,,1,57,0
93696,note_off,,,,,0,0,6,,,,1,60,0
93696,note_off,,,,,256,0,4,,,,12,70,0
93696,note_on,,,,,0,0,4,,,,12,69,127
93696,note_off,,,,,512,0,6,,,,1,57,0
93696,note_on,,,,,0,0,3,,,,6,62,75
93696,note_off,,,,,512,0,5,,,,3,57,0
93696,note_on,,,,,0,0,6,,,,1,62,58
93696,note_on,,,,,0,0,5,,,,3,58,75
93696,note_on,,,,,0,0,6,,,,1,58,62
93696,note_off,,,,,512,0,3,,,,6,60,0
93952,note_on,,,,,0,0,4,,,,12,67,127
93952,note_off,,,,,256,0,4,,,,12,69,0
94208,note_off,,,,,512,0,3,,,,6,62,0
94208,note_off,,,,,0,0,6,,,,1,58,0
94208,note_on,,,,,0,0,5,,,,3,52,75
94208,note_off,,,,,512,0,6,,,,1,62,0
94208,note_on,,,,,0,0,6,,,,1,67,58
94208,note_on,,,,,0,0,6,,,,1,52,62
94208,note_on,,,,,0,0,6,,,,1,64,58
94208,note_off,,,,,256,0,4,,,,12,67,0
94208,note_on,,,,,0,0,4,,,,12,72,127
94208,note_off,,,,,512,0,5,,,,3,58,0
94208,note_on,,,,,0,0,3,,,,6,60,75
94464,note_off,,,,,256,0,4,,,,12,72,0
94464,note_on,,,,,0,0,4,,,,12,74,127
94720,note_off,,,,,512,0,3,,,,6,60,0
94720,note_on,,,,,0,0,3,,,,6,60,75
94720,note_on,,,,,0,0,2,,,,2,64,49
94720,note_on,,,,,0,0,6,,,,1,64,58
94720,note_on,,,,,0,0,6,,,,1,60,58
94720,note_off,,,,,0,0,6,,,,1,67,0
94720,note_off,,,,,512,0,6,,,,1,64,0
94720,note_off,,,,,256,0,4,,,,12,74,0
94720,note_on,,,,,0,0,4,,,,12,76,127
94720,note_off,,,,,2560,0,2,,,,2,67,0
94976,note_off,,,,,256,0,4,,,,12,76,0
94976,note_on,,,,,0,0,4,,,,12,77,127
95232,note_off,,,,,1024,0,5,,,,3,52,0
95232,note_off,,,,,256,0,4,,,,12,77,0
95232,note_off,,,,,0,0,6,,,,1,52,0
95232,note_on,,,,,0,0,3,,,,6,62,75
95232,note_off,,,,,512,0,3,,,,6,60,0
95232,note_on,,,,,0,0,2,,,,2,65,49
95232,note_off,,,,,512,0,2,,,,2,64,0
95232,note_on,,,,,0,0,6,,,,1,65,58
95232,note_on,,,,,0,0,6,,,,1,62,58
95232,note_off,,,,,512,0,6,,,,1,60,0
95232,note_on,,,,,0,0,4,,,,12,79,127
95232,note_off,,,,,0,0,6,,,,1,64,0
95488,note_on,,,,,0,0,4,,,,12,76,127
95488,note_off,,,,,256,0,4,,,,12,79,0
95744,note_on,,,,,0,0,3,,,,6,64,75
95744,note_off,,,,,512,0,3,,,,6,62,0
95744,note_off,,,,,256,0,4,,,,12,76,0
95744,note_on,,,,,0,0,6,,,,1,67,58
95744,note_on,,,,,0,0,6,,,,1,64,58
95744,note_off,,,,,0,0,6,,,,1,65,0
95744,note_on,,,,,0,0,4,,,,12,74,127
95744,note_off,,,,,512,0,6,,,,1,62,0
95744,note_off,,,,,512,0,2,,,,2,65,0
95744,note_on,,,,,0,0,2,,,,2,67,49
96000,note_on,,,,,0,0,4,,,,12,72,127
96000,note_off,,,,,256,0,4,,,,12,74,0
96256,note_off,,,,,512,0,3,,,,6,64,0
96256,note_on,,,,,0,0,2,,,,2,65,49
96256,note_on,,,,,0,0,6,,,,1,57,62
96256,note_on,,,,,0,0,6,,,,1,60,58
96256,note_on,,,,,0,0,6,,,,1,57,58
96256,note_off,,,,,0,0,6,,,,1,67,0
96256,note_off,,,,,512,0,6,,,,1,64,0
96256,note_off,,,,,512,0,2,,,,2,67,0
96256,note_on,,,,,0,0,3,,,,6,60,75
96256,note_on,,,,,0,0,4,,,,12,65,127
96256,note_off,,,,,256,0,4,,,,12,72,0
96256,note_on,,,,,1024,0,5,,,,3,57,75
96512,note_off,,,,,256,0,4,,,,12,65,0
96512,note_on,,,,,0,0,4,,,,12,67,127
96691,note_off,,,,,179,0,4,,,,12,67,0
96768,note_off,,,,,0,0,6,,,,1,57,0
96768,note_on,,,,,0,0,5,,,,3,53,75
96768,note_off,,,,,512,0,6,,,,1,57,0
96768,note_on,,,,,0,0,6,,,,1,53,58
96768,note_on,,,,,0,0,6,,,,1,57,58
96768,note_on,,,,,0,0,3,,,,6,57,75
96768,note_off,,,,,512,0,3,,,,6,60,0
96768,note_off,,,,,512,0,5,,,,3,57,0
96768,note_on,,,,,77,0,4,,,,12,69,127
96768,note_on,,,,,0,0,6,,,,1,53,62
96947,note_off,,,,,179,0,4,,,,12,69,0
97024,note_on,,,,,77,0,4,,,,12,70,127
97203,note_off,,,,,179,0,4,,,,12,70,0
97280,note_on,,,,,77,0,4,,,,12,72,127
97280,note_on,,,,,0,0,3,,,,6,58,75
97280,note_off,,,,,512,0,3,,,,6,57,0
97280,note_off,,,,,0,0,6,,,,1,53,0
97280,note_off,,,,,512,0,5,,,,3,53,0
97280,note_on,,,,,0,0,5,,,,3,55,75
97280,note_off,,,,,512,0,6,,,,1,60,0
97280,note_on,,,,,0,0,6,,,,1,55,62
97280,note_on,,,,,0,0,6,,,,1,58,58
97280,note_on,,,,,0,0,6,,,,1,55,58
97280,note_off,,,,,0,0,6,,,,1,57,0
97280,note_off,,,,,0,0,6,,,,1,53,0
97459,note_off,,,,,179,0,4,,,,12,72,0
97536,note_on,,,,,77,0,4,,,,12,69,127
97792,note_off,,,,,512,0,5,,,,3,55,0
97792,note_on,,,,,0,0,5,,,,3,57,75
97792,note_off,,,,,512,0,3,,,,6,58,0
97792,note_on,,,,,0,0,4,,,,12,67,127
97792,note_on,,,,,0,0,3,,,,6,60,75
97792,note_on,,,,,0,0,6,,,,1,57,62
97792,note_off,,,,,0,0,6,,,,1,55,0
97792,note_on,,,,,0,0,6,,,,1,60,58
97792,note_on,,,,,0,0,6,,,,1,57,58
97792,note_off,,,,,0,0,6,,,,1,58,0
97792,note_off,,,,,512,0,6,,,,1,55,0
97792,note_off,,,,,256,0,4,,,,12,69,0
98048,note_off,,,,,256,0,4,,,,12,67,0
98048,note_on,,,,,0,0,4,,,,12,65,127
98304,note_off,,,,,512,0,3,,,,6,60,0
98304,note_on,,,,,0,0,3,,,,6,58,75
98304,note_on,,,,,0,0,4,,,,12,70,127
98304,note_on,,,,,0,0,5,,,,3,50,75
98304,note_off,,,,,512,0,5,,,,3,57,0
98304,note_on,,,,,0,0,6,,,,1,65,78
98304,note_on,,,,,0,0,6,,,,1,50,62
98304,note_off,,,,,512,0,6,,,,1,57,0
98304,note_off,,,,,0,0,6,,,,1,60,0
98304,note_on,,,,,0,0,6,,,,1,62,78
98304,note_off,,,,,256,0,4,,,,12,65,0
98304,note_off,,,,,0,0,6,,,,1,57,0
98560,note_off,,,,,256,0,4,,,,12,70,0
98560,note_on,,,,,0,0,4,,,,12,72,127
98816,note_off,,,,,2560,0,2,,,,2,65,0
98816,note_on,,,,,0,0,6,,,,1,62,78
98816,note_on,,,,,0,0,3,,,,6,58,75
98816,note_on,,,,,0,0,2,,,,2,62,49
98816,note_on,,,,,0,0,6,,,,1,58,78
98816,note_off,,,,,0,0,6,,,,1,65,0
98816,note_off,,,,,512,0,6,,,,1,62,0
98816,note_off,,,,,256,0,4,,,,12,72,0
98816,note_on,,,,,0,0,4,,,,12,74,127
98816,note_off,,,,,512,0,3,,,,6,58,0
99072,note_on,,,,,0,0,4,,,,12,76,127
99072,note_off,,,,,256,0,4,,,,12,74,0
99328,note_off,,,,,512,0,3,,,,6,58,0
99328,note_on,,,,,0,0,3,,,,6,60,75
99328,note_off,,,,,512,0,2,,,,2,62,0
99328,note_off,,,,,512,0,6,,,,1,58,0
99328,note_off,,,,,1024,0,5,,,,3,50,0
99328,note_off,,,,,256,0,4,,,,12,76,0
99328,note_on,,,,,0,0,4,,,,12,77,127
99328,note_on,,,,,0,0,2,,,,2,64,49
99328,note_off,,,,,0,0,6,,,,1,62,0
99328,note_on,,,,,0,0,6,,,,1,60,78
99328,note_on,,,,,0,0,6,,,,1,64,78
99328,note_off,,,,,0,0,6,,,,1,50,0
99584,note_off,,,,,256,0,4,,,,12,77,0
99584,note_on,,,,,0,0,4,,,,12,74,127
99840,note_off,,,,,0,0,6,,,,1,64,0
99840,note_off,,,,,512,0,6,,,,1,60,0
99840,note_off,,,,,512,0,2,,,,2,64,0
99840,note_off,,,,,256,0,4,,,,12,74,0
99840,note_on,,,,,0,0,4,,,,12,72,127
99840,note_on,,,,,0,0,6,,,,1,65,78
99840,note_on,,,,,0,0,6,,,,1,62,78
99840,note_off,,,,,512,0,3,,,,6,60,0
99840,note_on,,,,,0,0,3,,,,6,62,75
99840,note_on,,,,,0,0,2,,,,2,65,49
100096,note_on,,,,,0,0,4,,,,12,70,127
100096,note_off,,,,,256,0,4,,,,12,72,0
100352,note_on,,,,,0,0,6,,,,1,55,78
100352,note_off,,,,,0,0,6,,,,1,65,0
100352,note_off,,,,,512,0,6,,,,1,62,0
100352,note_on,,,,,0,0,3,,,,6,58,75
100352,note_on,,,,,0,0,4,,,,12,64,127
100352,note_off,,,,,256,0,4,,,,12,70,0
100352,note_on,,,,,0,0,6,,,,1,58,78
100352,note_on,,,,,0,0,2,,,,2,64,49
100352,note_off,,,,,512,0,2,,,,2,65,0
100352,note_on,,,,,1024,0,5,,,,3,55,75
100352,note_off,,,,,512,0,3,,,,6,62,0
100352,note_on,,,,,0,0,6,,,,1,55,62
100531,note_off,,,,,179,0,4,,,,12,64,0
100608,note_on,,,,,77,0,4,,,,12,65,127
100787,note_off,,,,,179,0,4,,,,12,65,0
100864,note_on,,,,,77,0,4,,,,12,67,127
100864,note_on,,,,,0,0,3,,,,6,55,75
100864,note_on,,,,,0,0,6,,,,1,52,62
100864,note_on,,,,,0,0,6,,,,1,55,78
100864,note_off,,,,,0,0,6,,,,1,55,0
100864,note_off,,,,,512,0,5,,,,3,55,0
100864,note_on,,,,,0,0,5,,,,3,52,75
100864,note_off,,,,,512,0,6,,,,1,55,0
100864,note_off,,,,,512,0,3,,,,6,58,0
101120,note_off,,,,,256,0,4,,,,12,67,0
101120,note_on,,,,,0,0,4,,,,12,69,127
101376,note_on,,,,,0,0,4,,,,12,70,127
101376,note_off,,,,,512,0,5,,,,3,52,0
101376,note_on,,,,,0,0,5,,,,3,53,75
101376,note_off,,,,,256,0,4,,,,12,69,0
101376,note_off,,,,,0,0,6,,,,1,55,0
101376,note_on,,,,,0,0,3,,,,6,57,75
101376,note_off,,,,,512,0,3,,,,6,55,0
101376,note_on,,,,,0,0,6,,,,1,53,62
101376,note_off,,,,,0,0,6,,,,1,52,0
101376,note_off,,,,,512,0,6,,,,1,58,0
101376,note_on,,,,,0,0,6,,,,1,57,78
101376,note_on,,,,,0,0,6,,,,1,53,78
101632,note_on,,,,,0,0,4,,,,12,67,127
101632,note_off,,,,,256,0,4,,,,12,70,0
101888,note_on,,,,,0,0,6,,,,1,55,78
101888,note_off,,,,,0,0,6,,,,1,57,0
101888,note_off,,,,,512,0,5,,,,3,53,0
101888,note_on,,,,,0,0,5,,,,3,55,75
101888,note_off,,,,,512,0,6,,,,1,53,0
101888,note_on,,,,,0,0,6,,,,1,58,78
101888,note_off,,,,,0,0,6,,,,1,53,0
101888,note_on,,,,,0,0,6,,,,1,55,62
101888,note_off,,,,,256,0,4,,,,12,67,0
101888,note_on,,,,,0,0,4,,,,12,65,127
101888,note_off,,,,,512,0,3,,,,6,57,0
101888,note_on,,,,,0,0,3,,,,6,58,75
102144,note_off,,,,,256,0,4,,,,12,65,0
102144,note_on,,,,,0,0,4,,,,12,64,127
102400,note_off,,,,,512,0,5,,,,3,55,0
102400,note_on,,,,,0,0,5,,,,3,49,75
102400,note_off,,,,,0,0,6,,,,1,58,0
102400,note_on,,,,,0,0,3,,,,6,57,75
102400,note_on,,,,,0,0,6,,,,1,49,62
102400,note_on,,,,,0,0,6,,,,1,64,78
102400,note_on,,,,,0,0,6,,,,1,61,78
102400,note_off,,,,,0,0,6,,,,1,55,0
102400,note_on,,,,,0,0,4,,,,12,69,127
102400,note_off,,,,,512,0,6,,,,1,55,0
102400,note_off,,,,,512,0,3,,,,6,58,0
102400,note_off,,,,,256,0,4,,,,12,64,0
102656,note_on,,,,,0,0,4,,,,12,71,127
102656,note_off,,,,,256,0,4,,,,12,69,0
102912,note_off,,,,,512,0,3,,,,6,57,0
102912,note_on,,,,,0,0,3,,,,6,57,75
102912,note_off,,,,,2560,0,2,,,,2,64,0
102912,note_on,,,,,0,0,2,,,,2,61,49
102912,note_on,,,,,0,0,4,,,,12,73,127
102912,note_off,,,,,256,0,4,,,,12,71,0
102912,note_off,,,,,512,0,6,,,,1,61,0
102912,note_off,,,,,0,0,6,,,,1,64,0
102912,note_on,,,,,0,0,6,,,,1,57,78
102912,note_on,,,,,0,0,6,,,,1,61,78
103168,note_off,,,,,256,0,4,,,,12,73,0
103168,note_on,,,,,0,0,4,,,,12,74,127
103424,note_off,,,,,0,0,6,,,,1,49,0
103424,note_off,,,,,512,0,6,,,,1,57,0
103424,note_off,,,,,0,0,6,,,,1,61,0
103424,note_on,,,,,0,0,6,,,,1,59,78
103424,note_on,,,,,0,0,6,,,,1,62,78
103424,note_off,,,,,256,0,4,,,,12,74,0
103424,note_on,,,,,0,0,3,,,,6,59,75
103424,note_off,,,,,512,0,2,,,,2,61,0
103424,note_off,,,,,1024,0,5,,,,3,49,0
103424,note_off,,,,,512,0,3,,,,6,57,0
103424,note_on,,,,,0,0,2,,,,2,62,49
103424,note_on,,,,,0,0,4,,,,12,76,127
103680,note_off,,,,,256,0,4,,,,12,76,0
103680,note_on,,,,,0,0,4,,,,12,73,127
103936,note_on,,,,,0,0,6,,,,1,64,78
103936,note_off,,,,,512,0,2,,,,2,62,0
103936,note_on,,,,,0,0,2,,,,2,64,49
103936,note_off,,,,,512,0,6,,,,1,59,0
103936,note_on,,,,,0,0,4,,,,12,71,127
103936,note_off,,,,,256,0,4,,,,12,73,0
103936,note_on,,,,,0,0,6,,,,1,61,78
103936,note_off,,,,,0,0,6,,,,1,62,0
103936,note_off,,,,,512,0,3,,,,6,59,0
103936,note_on,,,,,0,0,3,,,,6,60,75
104192,note_off,,,,,256,0,4,,,,12,71,0
104192,note_on,,,,,0,0,4,,,,12,69,127
104448,note_off,,,,,512,0,2,,,,2,64,0
104448,note_on,,,,,0,0,2,,,,2,65,49
104448,note_off,,,,,256,0,4,,,,12,69,0
104448,note_on,,,,,0,0,4,,,,12,77,127
104448,note_on,,,,,0,0,6,,,,1,62,78
104448,note_off,,,,,512,0,3,,,,6,60,0
104448,note_off,,,,,0,0,6,,,,1,64,0
104448,note_on,,,,,0,0,6,,,,1,50,62
104448,note_on,,,,,0,0,6,,,,1,65,78
104448,note_on,,,,,1024,0,5,,,,3,50,75
104448,note_on,,,,,0,0,3,,,,6,62,75
104448,note_off,,,,,512,0,6,,,,1,61,0
104704,note_on,,,,,0,0,4,,,,12,76,127
104704,note_off,,,,,256,0,4,,,,12,77,0
104960,note_on,,,,,0,0,2,,,,2,69,49
104960,note_off,,,,,512,0,2,,,,2,65,0
104960,note_off,,,,,256,0,4,,,,12,76,0
104960,note_on,,,,,0,0,4,,,,12,74,127
104960,note_on,,,,,0,0,6,,,,1,53,62
104960,note_off,,,,,0,0,6,,,,1,50,0
104960,note_on,,,,,0,0,6,,,,1,69,78
104960,note_on,,,,,0,0,6,,,,1,53,78
104960,note_on,,,,,0,0,5,,,,3,53,75
104960,note_off,,,,,512,0,5,,,,3,50,0
104960,note_off,,,,,512,0,6,,,,1,65,0
105472,note_off,,,,,512,0,6,,,,1,53,0
105472,note_off,,,,,0,0,6,,,,1,69,0
105472,note_off,,,,,512,0,5,,,,3,53,0
105472,note_on,,,,,0,0,5,,,,3,52,75
105472,note_off,,,,,0,0,6,,,,1,53,0
105472,note_on,,,,,0,0,6,,,,1,52,62
105472,note_on,,,,,0,0,6,,,,1,67,78
105472,note_off,,,,,512,0,2,,,,2,69,0
105472,note_on,,,,,0,0,2,,,,2,67,49
105504,note_off,,,,,544,0,4,,,,12,74,0
105984,note_on,,,,,0,0,3,,,,6,69,75
105984,note_off,,,,,512,0,6,,,,1,62,0
105984,note_off,,,,,0,0,6,,,,1,67,0
105984,note_on,,,,,0,0,6,,,,1,65,78
105984,note_on,,,,,0,0,6,,,,1,69,78
105984,note_on,,,,,0,0,6,,,,1,74,78
105984,note_off,,,,,0,0,6,,,,1,52,0
105984,note_on,,,,,0,0,6,,,,1,50,62
105984,note_off,,,,,512,0,2,,,,2,67,0
105984,note_off,,,,,1536,0,3,,,,6,62,0
105984,note_off,,,,,512,0,5,,,,3,52,0
105984,note_on,,,,,0,0,5,,,,3,50,75
105984,note_on,,,,,0,0,2,,,,2,74,49
105984,note_on,,,,,480,0,4,,,,12,74,127
106496,note_on,,,,,0,0,6,,,,1,45,62
106496,note_on,,,,,0,0,4,,,,12,73,127
106496,note_off,,,,,512,0,2,,,,2,74,0
106496,note_on,,,,,0,0,2,,,,2,76,49
106496,note_on,,,,,0,0,6,,,,1,69,38
106496,note_on,,,,,0,0,6,,,,1,73,38
106496,note_off,,,,,0,0,6,,,,1,69,0
106496,note_off,,,,,512,0,6,,,,1,65,0
106496,note_on,,,,,0,0,6,,,,1,76,38
106496,note_off,,,,,0,0,6,,,,1,74,0
106496,note_off,,,,,0,0,6,,,,1,50,0
106496,note_off,,,,,512,0,4,,,,12,74,0
106496,note_on,,,,,0,0,3,,,,6,73,75
106496,note_off,,,,,512,0,3,,,,6,69,0
106496,note_off,,,,,512,0,5,,,,3,50,0
106496,note_on,,,,,0,0,5,,,,3,45,75
106666,note_on,,,,,0,0,4,,,,12,71,127
106666,note_off,,,,,170,0,4,,,,12,73,0
106837,note_off,,,,,0,0,4,,,,12,71,0
106837,note_on,,,,,171,0,4,,,,12,69,127
107008,note_off,,,,,512,0,6,,,,1,69,0
107008,note_on,,,,,0,0,6,,,,1,69,38
107008,note_on,,,,,0,0,6,,,,1,57,62
107008,note_off,,,,,0,0,6,,,,1,45,0
107008,note_off,,,,,0,0,6,,,,1,76,0
107008,note_off,,,,,0,0,6,,,,1,73,0
107008,note_off,,,,,512,0,2,,,,2,76,0
107008,note_on,,,,,0,0,2,,,,2,77,49
107008,note_on,,,,,0,0,3,,,,6,74,75
107008,note_off,,,,,512,0,3,,,,6,73,0
107008,note_on,,,,,0,0,4,,,,12,77,127
107008,note_off,,,,,171,0,4,,,,12,69,0
107008,note_off,,,,,512,0,5,,,,3,45,0
107008,note_on,,,,,0,0,5,,,,3,57,75
107008,note_on,,,,,0,0,6,,,,1,77,38
107008,note_on,,,,,0,0,6,,,,1,74,38
107520,note_on,,,,,0,0,3,,,,6,73,75
107520,note_off,,,,,512,0,3,,,,6,74,0
107520,note_off,,,,,512,0,5,,,,3,57,0
107520,note_off,,,,,512,0,6,,,,1,69,0
107520,note_off,,,,,512,0,4,,,,12,77,0
107520,note_on,,,,,0,0,4,,,,12,76,127
107520,note_off,,,,,512,0,2,,,,2,77,0
107520,note_on,,,,,0,0,6,,,,1,45,62
107520,note_off,,,,,0,0,6,,,,1,57,0
107520,note_on,,,,,0,0,2,,,,2,76,49
107520,note_on,,,,,0,0,6,,,,1,73,38
107520,note_on,,,,,0,0,6,,,,1,69,38
107520,note_on,,,,,0,0,5,,,,3,45,75
107520,note_off,,,,,0,0,6,,,,1,74,0
107520,note_on,,,,,0,0,6,,,,1,76,38
107520,note_off,,,,,0,0,6,,,,1,77,0
107690,note_on,,,,,0,0,4,,,,12,74,127
107690,note_off,,,,,170,0,4,,,,12,76,0
107861,note_off,,,,,0,0,4,,,,12,74,0
107861,note_on,,,,,171,0,4,,,,12,73,127
108032,note_off,,,,,171,0,4,,,,12,73,0
108032,note_on,,,,,0,0,5,,,,3,57,75
108032,note_off,,,,,512,0,5,,,,3,45,0
108032,note_on,,,,,0,0,4,,,,12,74,127
108032,note_off,,,,,512,0,6,,,,1,69,0
108032,note_on,,,,,0,0,6,,,,1,57,62
108032,note_on,,,,,0,0,3,,,,6,62,75
108032,note_off,,,,,512,0,3,,,,6,73,0
108032,note_off,,,,,0,0,6,,,,1,45,0
108032,note_on,,,,,0,0,6,,,,1,77,38
108032,note_on,,,,,0,0,2,,,,2,65,49
108032,note_on,,,,,0,0,6,,,,1,69,38
108032,note_off,,,,,0,0,6,,,,1,76,0
108032,note_off,,,,,0,0,6,,,,1,73,0
108032,note_off,,,,,512,0,2,,,,2,76,0
108032,note_on,,,,,0,0,6,,,,1,74,38
108544,note_off,,,,,512,0,2,,,,2,65,0
108544,note_off,,,,,512,0,3,,,,6,62,0
108544,note_on,,,,,0,0,3,,,,6,61,75
108544,note_on,,,,,0,0,4,,,,12,73,127
108544,note_on,,,,,0,0,2,,,,2,64,49
108544,note_off,,,,,512,0,4,,,,12,74,0
108544,note_on,,,,,0,0,6,,,,1,76,38
108544,note_off,,,,,0,0,6,,,,1,57,0
108544,note_on,,,,,0,0,5,,,,3,45,75
108544,note_on,,,,,0,0,6,,,,1,73,38
108544,note_on,,,,,0,0,6,,,,1,69,38
108544,note_off,,,,,0,0,6,,,,1,77,0
108544,note_off,,,,,0,0,6,,,,1,74,0
108544,note_off,,,,,512,0,6,,,,1,69,0
108544,note_on,,,,,0,0,6,,,,1,45,62
108544,note_off,,,,,512,0,5,,,,3,57,0
108714,note_off,,,,,170,0,4,,,,12,73,0
108714,note_on,,,,,0,0,4,,,,12,71,127
108885,note_off,,,,,0,0,4,,,,12,71,0
108885,note_on,,,,,171,0,4,,,,12,69,127
109056,note_off,,,,,512,0,5,,,,3,45,0
109056,note_on,,,,,0,0,3,,,,6,62,75
109056,note_off,,,,,0,0,6,,,,1,45,0
109056,note_on,,,,,0,0,5,,,,3,57,75
109056,note_on,,,,,0,0,4,,,,12,77,127
109056,note_on,,,,,0,0,6,,,,1,74,38
109056,note_on,,,,,0,0,6,,,,1,69,38
109056,note_off,,,,,512,0,3,,,,6,61,0
109056,note_on,,,,,0,0,6,,,,1,57,62
109056,note_on,,,,,0,0,2,,,,2,65,49
109056,note_off,,,,,512,0,2,,,,2,64,0
109056,note_off,,,,,0,0,6,,,,1,76,0
109056,note_off,,,,,0,0,6,,,,1,73,0
109056,note_off,,,,,512,0,6,,,,1,69,0
109056,note_off,,,,,171,0,4,,,,12,69,0
109056,note_on,,,,,0,0,6,,,,1,77,38
109568,note_off,,,,,512,0,6,,,,1,69,0
109568,note_on,,,,,0,0,3,,,,6,61,75
109568,note_off,,,,,0,0,6,,,,1,74,0
109568,note_on,,,,,0,0,2,,,,2,64,49
109568,note_off,,,,,512,0,2,,,,2,65,0
109568,note_off,,,,,512,0,3,,,,6,62,0
109568,note_on,,,,,0,0,6,,,,1,76,38
109568,note_off,,,,,0,0,6,,,,1,57,0
109568,note_off,,,,,0,0,6,,,,1,77,0
109568,note_on,,,,,0,0,6,,,,1,45,62
109568,note_on,,,,,0,0,6,,,,1,69,38
109568,note_on,,,,,0,0,4,,,,12,76,127
109568,note_off,,,,,512,0,4,,,,12,77,0
109568,note_on,,,,,0,0,6,,,,1,73,38
109568,note_off,,,,,512,0,5,,,,3,57,0
109568,note_on,,,,,0,0,5,,,,3,45,75
109738,note_off,,,,,170,0,4,,,,12,76,0
109738,note_on,,,,,0,0,4,,,,12,74,127
109909,note_on,,,,,171,0,4,,,,12,73,127
109909,note_off,,,,,0,0,4,,,,12,74,0
110080,note_on,,,,,0,0,6,,,,1,77,38
110080,note_off,,,,,0,0,6,,,,1,76,0
110080,note_on,,,,,0,0,6,,,,1,69,38
110080,note_off,,,,,0,0,6,,,,1,73,0
110080,note_off,,,,,512,0,6,,,,1,69,0
110080,note_on,,,,,0,0,6,,,,1,74,38
110080,note_off,,,,,0,0,6,,,,1,45,0
110080,note_on,,,,,0,0,3,,,,6,65,75
110080,note_on,,,,,0,0,2,,,,2,69,49
110080,note_off,,,,,512,0,3,,,,6,61,0
110080,note_off,,,,,512,0,5,,,,3,45,0
110080,note_on,,,,,0,0,5,,,,3,57,75
110080,note_on,,,,,0,0,6,,,,1,57,62
110080,note_on,,,,,0,0,4,,,,12,74,127
110080,note_off,,,,,512,0,2,,,,2,64,0
110080,note_off,,,,,171,0,4,,,,12,73,0
110592,note_on,,,,,0,0,4,,,,12,73,127
110592,note_off,,,,,512,0,4,,,,12,74,0
110592,note_on,,,,,0,0,5,,,,3,45,75
110592,note_off,,,,,512,0,3,,,,6,65,0
110592,note_off,,,,,512,0,5,,,,3,57,0
110592,note_off,,,,,512,0,6,,,,1,69,0
110592,note_off,,,,,0,0,6,,,,1,74,0
110592,note_off,,,,,0,0,6,,,,1,77,0
110592,note_on,,,,,0,0,6,,,,1,69,78
110592,note_on,,,,,0,0,6,,,,1,69,78
110592,note_on,,,,,0,0,6,,,,1,73,78
110592,note_on,,,,,0,0,6,,,,1,76,78
110592,note_on,,,,,0,0,3,,,,6,64,75
110592,note_on,,,,,0,0,6,,,,1,45,62
110592,note_on,,,,,0,0,2,,,,2,69,49
110592,note_off,,,,,512,0,2,,,,2,69,0
110592,note_off,,,,,0,0,6,,,,1,57,0
110763,note_off,,,,,171,0,4,,,,12,73,0
110763,note_on,,,,,0,0,4,,,,12,71,127
110933,note_off,,,,,170,0,4,,,,12,71,0
110933,note_on,,,,,0,0,4,,,,12,69,127
111104,note_off,,,,,0,0,6,,,,1,45,0
111104,note_on,,,,,0,0,6,,,,1,57,62
111104,note_off,,,,,512,0,3,,,,6,64,0
111104,note_on,,,,,512,0,6,,,,1,57,78
111104,note_on,,,,,0,0,3,,,,6,60,75
111104,note_off,,,,,512,0,2,,,,2,69,0
111104,note_on,,,,,0,0,2,,,,2,64,49
111104,note_off,,,,,512,0,5,,,,3,45,0
111104,note_on,,,,,0,0,5,,,,3,57,75
111104,note_off,,,,,171,0,4,,,,12,69,0
111616,note_on,,,,,0,0,5,,,,3,53,75
111616,note_off,,,,,512,0,5,,,,3,57,0
111616,note_on,,,,,0,0,3,,,,6,62,75
111616,note_on,,,,,0,0,2,,,,2,69,49
111616,note_on,,,,,0,0,6,,,,1,74,58
111616,note_off,,,,,512,0,6,,,,1,69,0
111616,note_off,,,,,512,0,2,,,,2,64,0
111616,note_off,,,,,0,0,6,,,,1,73,0
111616,note_off,,,,,0,0,6,,,,1,76,0
111616,note_off,,,,,0,0,6,,,,1,57,0
111616,note_off,,,,,0,0,6,,,,1,57,0
111616,note_on,,,,,0,0,6,,,,1,53,78
111616,note_on,,,,,0,0,6,,,,1,69,58
111616,note_off,,,,,512,0,3,,,,6,60,0
111616,note_on,,,,,0,0,6,,,,1,53,62
111616,note_off,,,,,0,0,6,,,,1,69,0
112128,note_off,,,,,0,0,6,,,,1,74,0
112128,note_on,,,,,0,0,3,,,,6,65,75
112128,note_off,,,,,512,0,3,,,,6,62,0
112128,note_off,,,,,512,0,2,,,,2,69,0
112128,note_on,,,,,0,0,2,,,,2,74,49
112128,note_off,,,,,512,0,6,,,,1,53,0
112128,note_off,,,,,512,0,5,,,,3,53,0
112128,note_on,,,,,0,0,5,,,,3,50,75
112128,note_on,,,,,1024,0,4,,,,12,81,127
112128,note_on,,,,,0,0,6,,,,1,77,58
112128,note_off,,,,,0,0,6,,,,1,53,0
112128,note_on,,,,,0,0,6,,,,1,50,62
112640,note_off,,,,,512,0,4,,,,12,81,0
112640,note_on,,,,,0,0,4,,,,12,82,127
112640,note_on,,,,,0,0,3,,,,6,70,75
112640,note_off,,,,,512,0,3,,,,6,65,0
112640,note_off,,,,,512,0,6,,,,1,69,0
112640,note_off,,,,,512,0,2,,,,2,74,0
112640,note_on,,,,,0,0,2,,,,2,74,49
112640,note_on,,,,,0,0,6,,,,1,70,58
112640,note_on,,,,,0,0,6,,,,1,74,58
112640,note_off,,,,,512,0,5,,,,3,50,0
112640,note_off,,,,,0,0,6,,,,1,50,0
112640,note_off,,,,,0,0,6,,,,1,77,0
112640,note_on,,,,,0,0,6,,,,1,55,78
112640,note_on,,,,,0,0,5,,,,3,55,75
112640,note_on,,,,,0,0,6,,,,1,55,62
112811,note_off,,,,,171,0,4,,,,12,82,0
112811,note_on,,,,,0,0,4,,,,12,81,127
112981,note_off,,,,,170,0,4,,,,12,81,0
112981,note_on,,,,,0,0,4,,,,12,79,127
113152,note_off,,,,,0,0,6,,,,1,55,0
113152,note_on,,,,,0,0,6,,,,1,53,62
113152,note_off,,,,,512,0,5,,,,3,55,0
113152,note_off,,,,,0,0,6,,,,1,70,0
113152,note_on,,,,,0,0,6,,,,1,53,78
113152,note_off,,,,,512,0,6,,,,1,55,0
113152,note_on,,,,,0,0,5,,,,3,53,75
113152,note_on,,,,,0,0,6,,,,1,69,58
113152,note_on,,,,,0,0,3,,,,6,69,75
113152,note_off,,,,,171,0,4,,,,12,79,0
113152,note_on,,,,,0,0,4,,,,12,81,127
113152,note_off,,,,,512,0,3,,,,6,70,0
113323,note_off,,,,,171,0,4,,,,12,81,0
113323,note_on,,,,,0,0,4,,,,12,79,127
113493,note_off,,,,,170,0,4,,,,12,79,0
113493,note_on,,,,,0,0,4,,,,12,77,127
113664,note_on,,,,,0,0,6,,,,1,52,62
113664,note_off,,,,,0,0,6,,,,1,53,0
113664,note_on,,,,,0,0,2,,,,2,79,49
113664,note_off,,,,,1024,0,2,,,,2,74,0
113664,note_on,,,,,0,0,6,,,,1,67,58
113664,note_off,,,,,0,0,6,,,,1,69,0
113664,note_off,,,,,512,0,6,,,,1,53,0
113664,note_off,,,,,512,0,5,,,,3,53,0
113664,note_on,,,,,0,0,4,,,,12,79,127
113664,note_off,,,,,171,0,4,,,,12,77,0
113664,note_off,,,,,512,0,3,,,,6,69,0
113664,note_on,,,,,0,0,5,,,,3,52,75
113664,note_on,,,,,0,0,3,,,,6,67,75
113835,note_on,,,,,0,0,4,,,,12,77,127
113835,note_off,,,,,171,0,4,,,,12,79,0
114005,note_on,,,,,0,0,4,,,,12,76,127
114005,note_off,,,,,170,0,4,,,,12,77,0
114176,note_on,,,,,0,0,4,,,,12,77,127
114176,note_off,,,,,512,0,6,,,,1,67,0
114176,note_on,,,,,0,0,6,,,,1,65,58
114176,note_off,,,,,0,0,6,,,,1,52,0
114176,note_on,,,,,0,0,6,,,,1,50,62
114176,note_off,,,,,512,0,3,,,,6,67,0
114176,note_on,,,,,0,0,2,,,,2,77,49
114176,note_off,,,,,171,0,4,,,,12,76,0
114176,note_off,,,,,512,0,2,,,,2,79,0
114176,note_on,,,,,0,0,3,,,,6,69,75
114176,note_on,,,,,0,0,5,,,,3,50,75
114176,note_off,,,,,512,0,5,,,,3,52,0
114347,note_on,,,,,0,0,4,,,,12,76,127
114347,note_off,,,,,171,0,4,,,,12,77,0
114517,note_off,,,,,170,0,4,,,,12,76,0
114517,note_on,,,,,0,0,4,,,,12,74,127
114688,note_off,,,,,512,0,5,,,,3,50,0
114688,note_on,,,,,0,0,3,,,,6,72,75
114688,note_on,,,,,0,0,6,,,,1,73,78
114688,note_on,,,,,0,0,6,,,,1,69,78
114688,note_on,,,,,0,0,2,,,,2,76,49
114688,note_off,,,,,512,0,2,,,,2,77,0
114688,note_on,,,,,0,0,6,,,,1,57,62
114688,note_on,,,,,0,0,6,,,,1,64,78
114688,note_on,,,,,0,0,6,,,,1,57,78
114688,note_off,,,,,0,0,6,,,,1,50,0
114688,note_off,,,,,0,0,6,,,,1,65,0
114688,note_off,,,,,512,0,6,,,,1,74,0
114688,note_off,,,,,171,0,4,,,,12,74,0
114688,note_on,,,,,0,0,5,,,,3,57,75
114688,note_on,,,,,0,0,4,,,,12,73,127
114688,note_off,,,,,512,0,3,,,,6,69,0
114859,note_off,,,,,171,0,4,,,,12,73,0
114859,note_on,,,,,0,0,4,,,,12,71,127
115029,note_off,,,,,170,0,4,,,,12,71,0
115029,note_on,,,,,0,0,4,,,,12,69,127
115200,note_on,,,,,0,0,6,,,,1,69,78
115200,note_off,,,,,0,0,6,,,,1,69,0
115200,note_off,,,,,0,0,6,,,,1,64,0
115200,note_off,,,,,512,0,6,,,,1,57,0
115200,note_off,,,,,0,0,6,,,,1,57,0
115200,note_off,,,,,512,0,5,,,,3,57,0
115200,note_on,,,,,0,0,5,,,,3,50,75
115200,note_on,,,,,0,0,6,,,,1,74,78
115200,note_on,,,,,0,0,6,,,,1,65,78
115200,note_on,,,,,0,0,6,,,,1,50,62
115200,note_off,,,,,0,0,6,,,,1,73,0
115200,note_on,,,,,0,0,4,,,,12,77,127
115200,note_off,,,,,171,0,4,,,,12,69,0
115200,note_off,,,,,512,0,2,,,,2,76,0
115200,note_on,,,,,0,0,2,,,,2,74,49
115200,note_on,,,,,0,0,3,,,,6,69,75
115200,note_off,,,,,512,0,3,,,,6,72,0
115371,note_on,,,,,0,0,4,,,,12,76,127
115371,note_off,,,,,171,0,4,,,,12,77,0
115541,note_on,,,,,0,0,4,,,,12,74,127
115541,note_off,,,,,170,0,4,,,,12,76,0
115712,note_on,,,,,0,0,5,,,,3,57,75
115712,note_off,,,,,512,0,5,,,,3,50,0
115712,note_on,,,,,0,0,4,,,,12,74,127
115712,note_off,,,,,171,0,4,,,,12,74,0
115712,note_on,,,,,0,0,6,,,,1,73,78
115712,note_on,,,,,0,0,6,,,,1,69,78
115712,note_off,,,,,512,0,3,,,,6,69,0
115712,note_on,,,,,0,0,3,,,,6,69,75
115712,note_on,,,,,0,0,6,,,,1,57,62
115712,note_off,,,,,0,0,6,,,,1,50,0
115712,note_off,,,,,512,0,6,,,,1,65,0
115712,note_off,,,,,0,0,6,,,,1,69,0
115712,note_off,,,,,0,0,6,,,,1,74,0
115712,note_on,,,,,0,0,6,,,,1,57,78
115712,note_on,,,,,0,0,6,,,,1,64,78
115712,note_on,,,,,0,0,2,,,,2,74,49
115712,note_off,,,,,512,0,2,,,,2,74,0
115840,note_off,,,,,128,0,4,,,,12,74,0
115840,note_on,,,,,0,0,4,,,,12,73,127
115968,note_off,,,,,128,0,4,,,,12,73,0
115968,note_on,,,,,0,0,4,,,,12,74,127
116096,note_on,,,,,0,0,4,,,,12,73,127
116096,note_off,,,,,128,0,4,,,,12,74,0
116224,note_on,,,,,0,0,4,,,,12,74,127
116224,note_off,,,,,128,0,4,,,,12,73,0
116224,note_on,,,,,0,0,5,,,,3,45,75
116224,note_off,,,,,512,0,5,,,,3,57,0
116224,note_off,,,,,512,0,6,,,,1,57,0
116224,note_off,,,,,0,0,6,,,,1,57,0
116224,note_on,,,,,0,0,6,,,,1,45,62
116224,note_off,,,,,512,0,2,,,,2,74,0
116224,note_on,,,,,0,0,2,,,,2,72,49
116224,note_off,,,,,512,0,3,,,,6,69,0
116224,note_on,,,,,0,0,3,,,,6,69,75
116352,note_on,,,,,0,0,4,,,,12,73,127
116352,note_off,,,,,128,0,4,,,,12,74,0
116480,note_off,,,,,128,0,4,,,,12,73,0
116480,note_on,,,,,0,0,4,,,,12,74,127
116736,note_off,,,,,256,0,4,,,,12,74,0
116736,note_on,,,,,0,0,3,,,,6,69,101
116736,note_off,,,,,512,0,3,,,,6,69,0
116736,note_off,,,,,0,0,6,,,,1,45,0
116736,note_on,,,,,0,0,6,,,,1,77,127
116736,note_on,,,,,0,0,6,,,,1,50,114
116736,note_on,,,,,0,0,2,,,,2,77,127
116736,note_off,,,,,512,0,2,,,,2,72,0
116736,note_on,,,,,0,0,6,,,,1,69,127
116736,note_off,,,,,0,0,6,,,,1,73,0
116736,note_off,,,,,0,0,6,,,,1,69,0
116736,note_off,,,,,512,0,6,,,,1,64,0
116736,note_on,,,,,0,0,4,,,,12,74,127
116736,note_on,,,,,0,0,5,,,,3,50,114
116736,note_off,,,,,512,0,5,,,,3,45,0
116906,note_off,,,,,170,0,6,,,,1,77,0
116906,note_on,,,,,0,0,6,,,,1,76,127
116907,note_off,,,,,171,0,2,,,,2,77,0
116907,note_on,,,,,0,0,2,,,,2,76,127
117077,note_on,,,,,171,0,6,,,,1,74,127
117077,note_off,,,,,0,0,6,,,,1,76,0
117077,note_on,,,,,0,0,2,,,,2,74,127
117077,note_off,,,,,170,0,2,,,,2,76,0
117248,note_off,,,,,512,0,5,,,,3,50,0
117248,note_on,,,,,0,0,6,,,,1,50,114
117248,note_off,,,,,0,0,6,,,,1,50,0
117248,note_on,,,,,0,0,6,,,,1,81,127
117248,note_on,,,,,0,0,6,,,,1,65,127
117248,note_on,,,,,0,0,6,,,,1,62,127
117248,note_on,,,,,0,0,5,,,,3,50,114
117248,note_off,,,,,512,0,3,,,,6,69,0
117248,note_off,,,,,171,0,2,,,,2,74,0
117248,note_off,,,,,171,0,6,,,,1,74,0
117248,note_on,,,,,0,0,2,,,,2,81,127
117418,note_off,,,,,170,0,6,,,,1,81,0
117418,note_on,,,,,0,0,6,,,,1,79,127
117419,note_on,,,,,0,0,2,,,,2,79,127
117419,note_off,,,,,171,0,2,,,,2,81,0
117589,note_on,,,,,0,0,2,,,,2,77,127
117589,note_off,,,,,170,0,2,,,,2,79,0
117589,note_off,,,,,0,0,6,,,,1,79,0
117589,note_on,,,,,171,0,6,,,,1,77,127
117760,note_on,,,,,0,0,6,,,,1,81,127
117760,note_on,,,,,0,0,6,,,,1,86,127
117760,note_off,,,,,0,0,6,,,,1,50,0
117760,note_on,,,,,0,0,6,,,,1,50,114
117760,note_off,,,,,1024,0,4,,,,12,74,0
117760,note_on,,,,,0,0,2,,,,2,86,127
117760,note_off,,,,,0,0,6,,,,1,77,0
117760,note_on,,,,,0,0,6,,,,1,62,127
117760,note_on,,,,,512,0,3,,,,6,77,101
117760,note_off,,,,,0,0,6,,,,1,65,0
117760,note_off,,,,,0,0,6,,,,1,62,0
117760,note_off,,,,,171,0,6,,,,1,69,0
117760,note_on,,,,,0,0,5,,,,3,50,114
117760,note_off,,,,,512,0,5,,,,3,50,0
117760,note_on,,,,,0,0,6,,,,1,77,127
117760,note_off,,,,,171,0,2,,,,2,77,0
118272,note_off,,,,,512,0,6,,,,1,62,0
118272,note_off,,,,,0,0,6,,,,1,86,0
118272,note_on,,,,,0,0,6,,,,1,62,127
118272,note_on,,,,,0,0,6,,,,1,74,127
118272,note_on,,,,,0,0,6,,,,1,77,127
118272,note_on,,,,,0,0,6,,,,1,81,127
118272,note_off,,,,,0,0,6,,,,1,50,0
118272,note_on,,,,,0,0,6,,,,1,50,114
118272,note_off,,,,,0,0,6,,,,1,81,0
118272,note_off,,,,,0,0,6,,,,1,77,0
118272,note_off,,,,,512,0,2,,,,2,86,0
118272,note_off,,,,,512,0,5,,,,3,50,0
118272,note_on,,,,,0,0,5,,,,3,50,114
118272,note_off,,,,,512,0,3,,,,6,77,0
118272,note_on,,,,,0,0,3,,,,6,74,101
118272,note_on,,,,,0,0,2,,,,2,81,127
118784,note_on,,,,,0,0,3,,,,6,79,101
118784,note_off,,,,,0,0,6,,,,1,77,0
118784,note_off,,,,,0,0,6,,,,1,74,0
118784,note_off,,,,,512,0,6,,,,1,62,0
118784,note_off,,,,,512,0,5,,,,3,50,0
118784,note_on,,,,,0,0,5,,,,3,55,114
118784,note_on,,,,,0,0,6,,,,1,55,127
118784,note_off,,,,,512,0,2,,,,2,81,0
118784,note_on,,,,,0,0,6,,,,1,74,127
118784,note_on,,,,,0,0,6,,,,1,79,127
118784,note_off,,,,,0,0,6,,,,1,50,0
118784,note_off,,,,,0,0,6,,,,1,81,0
118784,note_off,,,,,512,0,3,,,,6,74,0
118784,note_on,,,,,0,0,6,,,,1,55,114
118784,note_on,,,,,0,0,2,,,,2,84,127
118784,note_on,,,,,0,0,6,,,,1,82,127
118912,note_on,,,,,0,0,2,,,,2,82,127
118912,note_off,,,,,128,0,2,,,,2,84,0
119040,note_on,,,,,0,0,2,,,,2,84,127
119040,note_off,,,,,128,0,2,,,,2,82,0
119168,note_on,,,,,0,0,2,,,,2,82,127
119168,note_off,,,,,128,0,2,,,,2,84,0
119296,note_on,,,,,0,0,6,,,,1,77,127
119296,note_on,,,,,0,0,6,,,,1,74,127
119296,note_on,,,,,0,0,5,,,,3,50,114
119296,note_on,,,,,0,0,2,,,,2,81,127
119296,note_on,,,,,0,0,3,,,,6,77,101
119296,note_off,,,,,512,0,3,,,,6,79,0
119296,note_off,,,,,0,0,6,,,,1,55,0
119296,note_on,,,,,0,0,6,,,,1,81,127
119296,note_off,,,,,512,0,5,,,,3,55,0
119296,note_off,,,,,0,0,6,,,,1,82,0
119296,note_on,,,,,0,0,6,,,,1,50,114
119296,note_off,,,,,0,0,6,,,,1,74,0
119296,note_off,,,,,512,0,6,,,,1,55,0
119296,note_off,,,,,128,0,2,,,,2,82,0
119296,note_off,,,,,0,0,6,,,,1,79,0
119808,note_off,,,,,512,0,5,,,,3,50,0
119808,note_on,,,,,0,0,3,,,,6,74,101
119808,note_off,,,,,512,0,3,,,,6,77,0
119808,note_on,,,,,0,0,6,,,,1,53,114
119808,note_off,,,,,0,0,6,,,,1,50,0
119808,note_on,,,,,0,0,6,,,,1,69,127
119808,note_off,,,,,512,0,2,,,,2,81,0
119808,note_on,,,,,0,0,6,,,,1,53,127
119808,note_off,,,,,512,0,6,,,,1,74,0
119808,note_on,,,,,0,0,6,,,,1,69,127
119808,note_off,,,,,0,0,6,,,,1,77,0
119808,note_on,,,,,0,0,5,,,,3,53,114
119808,note_off,,,,,0,0,6,,,,1,81,0
120320,note_off,,,,,0,0,6,,,,1,53,0
120320,note_on,,,,,0,0,6,,,,1,50,114
120320,note_off,,,,,512,0,5,,,,3,53,0
120320,note_on,,,,,0,0,5,,,,3,50,114
120320,note_off,,,,,512,0,6,,,,1,53,0
120320,note_off,,,,,0,0,6,,,,1,69,0
120320,note_on,,,,,0,0,6,,,,1,74,127
120320,note_on,,,,,512,0,2,,,,2,74,127
120832,note_on,,,,,0,0,3,,,,6,69,101
120832,note_off,,,,,1024,0,3,,,,6,74,0
120832,note_on,,,,,0,0,5,,,,3,50,114
120832,note_off,,,,,512,0,5,,,,3,50,0
120832,note_off,,,,,512,0,2,,,,2,74,0
120832,note_on,,,,,0,0,2,,,,2,77,127
120832,note_on,,,,,0,0,6,,,,1,50,114
120832,note_off,,,,,0,0,6,,,,1,50,0
120832,note_off,,,,,512,0,6,,,,1,69,0
120832,note_off,,,,,0,0,6,,,,1,74,0
120832,note_on,,,,,0,0,6,,,,1,69,127
120832,note_on,,,,,0,0,6,,,,1,77,127
121002,note_on,,,,,0,0,6,,,,1,76,127
121002,note_off,,,,,170,0,6,,,,1,77,0
121003,note_on,,,,,0,0,2,,,,2,76,127
121003,note_off,,,,,171,0,2,,,,2,77,0
121173,note_on,,,,,0,0,2,,,,2,74,127
121173,note_off,,,,,170,0,2,,,,2,76,0
121173,note_off,,,,,0,0,6,,,,1,76,0
121173,note_on,,,,,171,0,6,,,,1,74,127
121344,note_off,,,,,512,0,5,,,,3,50,0
121344,note_on,,,,,0,0,5,,,,3,50,114
121344,note_on,,,,,0,0,2,,,,2,81,127
121344,note_off,,,,,512,0,3,,,,6,69,0
121344,note_on,,,,,0,0,6,,,,1,81,127
121344,note_off,,,,,171,0,2,,,,2,74,0
121344,note_off,,,,,171,0,6,,,,1,74,0
121344,note_on,,,,,0,0,6,,,,1,62,127
121344,note_on,,,,,0,0,6,,,,1,50,114
121344,note_off,,,,,0,0,6,,,,1,50,0
121344,note_on,,,,,0,0,6,,,,1,65,127
121514,note_on,,,,,0,0,6,,,,1,79,127
121514,note_off,,,,,170,0,6,,,,1,81,0
121515,note_off,,,,,171,0,2,,,,2,81,0
121515,note_on,,,,,0,0,2,,,,2,79,127
121685,note_off,,,,,170,0,2,,,,2,79,0
121685,note_on,,,,,171,0,6,,,,1,77,127
121685,note_on,,,,,0,0,2,,,,2,77,127
121685,note_off,,,,,0,0,6,,,,1,79,0
121856,note_off,,,,,171,0,2,,,,2,77,0
121856,note_off,,,,,0,0,6,,,,1,50,0
121856,note_on,,,,,0,0,6,,,,1,82,127
121856,note_off,,,,,171,0,6,,,,1,69,0
121856,note_off,,,,,0,0,6,,,,1,62,0
121856,note_off,,,,,0,0,6,,,,1,65,0
121856,note_on,,,,,0,0,6,,,,1,62,127
121856,note_on,,,,,0,0,6,,,,1,74,127
121856,note_on,,,,,0,0,6,,,,1,77,127
121856,note_off,,,,,0,0,6,,,,1,77,0
121856,note_off,,,,,512,0,5,,,,3,50,0
121856,note_on,,,,,0,0,5,,,,3,43,114
121856,note_on,,,,,512,0,3,,,,6,77,101
121856,note_on,,,,,0,0,2,,,,2,82,127
121856,note_on,,,,,0,0,6,,,,1,43,114
122368,note_on,,,,,0,0,3,,,,6,70,101
122368,note_off,,,,,512,0,5,,,,3,43,0
122368,note_on,,,,,0,0,5,,,,3,43,114
122368,note_off,,,,,512,0,3,,,,6,77,0
122368,note_on,,,,,0,0,6,,,,1,65,127
122368,note_off,,,,,0,0,6,,,,1,43,0
122368,note_on,,,,,0,0,6,,,,1,74,127
122368,note_on,,,,,0,0,6,,,,1,70,127
122368,note_on,,,,,0,0,6,,,,1,55,127
122368,note_off,,,,,512,0,2,,,,2,82,0
122368,note_on,,,,,0,0,2,,,,2,74,127
122368,note_off,,,,,0,0,6,,,,1,82,0
122368,note_off,,,,,0,0,6,,,,1,77,0
122368,note_off,,,,,0,0,6,,,,1,74,0
122368,note_on,,,,,0,0,6,,,,1,43,114
122368,note_off,,,,,512,0,6,,,,1,62,0
122880,note_on,,,,,0,0,6,,,,1,57,127
122880,note_off,,,,,0,0,6,,,,1,74,0
122880,note_on,,,,,0,0,6,,,,1,64,127
122880,note_on,,,,,0,0,6,,,,1,69,127
122880,note_off,,,,,512,0,3,,,,6,70,0
122880,note_on,,,,,0,0,3,,,,6,69,101
122880,note_on,,,,,0,0,6,,,,1,73,127
122880,note_on,,,,,0,0,6,,,,1,45,114
122880,note_off,,,,,0,0,6,,,,1,43,0
122880,note_off,,,,,0,0,6,,,,1,70,0
122880,note_off,,,,,512,0,6,,,,1,55,0
122880,note_on,,,,,0,0,2,,,,2,73,127
122880,note_off,,,,,512,0,2,,,,2,74,0
122880,note_off,,,,,512,0,5,,,,3,43,0
122880,note_on,,,,,0,0,5,,,,3,45,114
122880,note_off,,,,,0,0,6,,,,1,65,0
123392,note_off,,,,,0,0,6,,,,1,45,0
123392,note_on,,,,,0,0,6,,,,1,74,127
123392,note_on,,,,,0,0,6,,,,1,69,127
123392,note_on,,,,,0,0,6,,,,1,65,127
123392,note_off,,,,,0,0,6,,,,1,69,0
123392,note_off,,,,,0,0,6,,,,1,64,0
123392,note_off,,,,,512,0,5,,,,3,45,0
123392,note_on,,,,,0,0,5,,,,3,50,114
123392,note_on,,,,,0,0,3,,,,6,69,101
123392,note_off,,,,,512,0,3,,,,6,69,0
123392,note_off,,,,,512,0,2,,,,2,73,0
123392,note_on,,,,,0,0,2,,,,2,74,127
123392,note_off,,,,,512,0,6,,,,1,57,0
123392,note_on,,,,,0,0,6,,,,1,50,114
123392,note_off,,,,,0,0,6,,,,1,73,0
123904,note_off,,,,,0,0,6,,,,1,74,0
123904,note_on,,,,,0,0,5,,,,3,53,114
123904,note_off,,,,,512,0,5,,,,3,50,0
123904,note_off,,,,,512,0,2,,,,2,74,0
123904,note_off,,,,,512,0,3,,,,6,69,0
123904,note_on,,,,,0,0,3,,,,6,69,101
123904,note_off,,,,,0,0,6,,,,1,50,0
123904,note_on,,,,,0,0,6,,,,1,74,127
123904,note_on,,,,,0,0,6,,,,1,69,127
123904,note_on,,,,,0,0,6,,,,1,53,127
123904,note_on,,,,,0,0,6,,,,1,53,114
123904,note_off,,,,,512,0,6,,,,1,65,0
123904,note_off,,,,,0,0,6,,,,1,69,0
124416,note_off,,,,,0,0,6,,,,1,53,0
124416,note_on,,,,,512,0,2,,,,2,81,127
124416,note_on,,,,,0,0,6,,,,1,81,127
124416,note_on,,,,,0,0,6,,,,1,77,127
124416,note_off,,,,,0,0,6,,,,1,74,0
124416,note_on,,,,,0,0,6,,,,1,50,114
124416,note_off,,,,,0,0,6,,,,1,69,0
124416,note_off,,,,,512,0,5,,,,3,53,0
124416,note_on,,,,,0,0,5,,,,3,50,114
124416,note_off,,,,,512,0,6,,,,1,53,0
124928,note_on,,,,,0,0,2,,,,2,82,127
124928,note_off,,,,,512,0,2,,,,2,81,0
124928,note_on,,,,,0,0,6,,,,1,55,114
124928,note_on,,,,,0,0,6,,,,1,74,127
124928,note_on,,,,,0,0,6,,,,1,55,127
124928,note_off,,,,,1024,0,3,,,,6,69,0
124928,note_off,,,,,512,0,6,,,,1,77,0
124928,note_on,,,,,0,0,3,,,,6,74,101
124928,note_on,,,,,0,0,6,,,,1,82,127
124928,note_off,,,,,512,0,5,,,,3,50,0
124928,note_on,,,,,0,0,5,,,,3,55,114
124928,note_off,,,,,0,0,6,,,,1,81,0
124928,note_off,,,,,0,0,6,,,,1,50,0
125098,note_off,,,,,170,0,6,,,,1,82,0
125098,note_on,,,,,0,0,6,,,,1,81,127
125099,note_on,,,,,0,0,2,,,,2,81,127
125099,note_off,,,,,171,0,2,,,,2,82,0
125269,note_on,,,,,171,0,6,,,,1,79,127
125269,note_off,,,,,170,0,2,,,,2,81,0
125269,note_on,,,,,0,0,2,,,,2,79,127
125269,note_off,,,,,0,0,6,,,,1,81,0
125440,note_off,,,,,171,0,6,,,,1,55,0
125440,note_on,,,,,0,0,5,,,,3,55,114
125440,note_off,,,,,512,0,5,,,,3,55,0
125440,note_off,,,,,171,0,2,,,,2,79,0
125440,note_on,,,,,0,0,2,,,,2,82,127
125440,note_on,,,,,0,0,6,,,,1,55,127
125440,note_off,,,,,0,0,6,,,,1,79,0
125440,note_on,,,,,0,0,6,,,,1,82,127
125440,note_on,,,,,0,0,6,,,,1,55,114
125440,note_off,,,,,0,0,6,,,,1,55,0
125610,note_off,,,,,170,0,6,,,,1,82,0
125610,note_on,,,,,0,0,6,,,,1,81,127
125611,note_off,,,,,171,0,2,,,,2,82,0
125611,note_on,,,,,0,0,2,,,,2,81,127
125781,note_on,,,,,171,0,6,,,,1,79,127
125781,note_off,,,,,0,0,6,,,,1,81,0
125781,note_off,,,,,170,0,2,,,,2,81,0
125781,note_on,,,,,0,0,2,,,,2,79,127
125952,note_on,,,,,0,0,5,,,,3,52,114
125952,note_off,,,,,512,0,5,,,,3,55,0
125952,note_on,,,,,0,0,2,,,,2,84,127
125952,note_off,,,,,171,0,2,,,,2,79,0
125952,note_on,,,,,0,0,6,,,,1,84,127
125952,note_on,,,,,0,0,6,,,,1,72,127
125952,note_off,,,,,0,0,6,,,,1,79,0
125952,note_off,,,,,0,0,6,,,,1,55,0
125952,note_off,,,,,1024,0,3,,,,6,74,0
125952,note_off,,,,,0,0,6,,,,1,55,0
125952,note_off,,,,,171,0,6,,,,1,74,0
125952,note_on,,,,,0,0,6,,,,1,52,114
125952,note_on,,,,,0,0,3,,,,6,72,101
126464,note_on,,,,,0,0,5,,,,3,52,114
126464,note_on,,,,,0,0,6,,,,1,79,127
126464,note_on,,,,,0,0,2,,,,2,79,127
126464,note_off,,,,,512,0,2,,,,2,84,0
126464,note_off,,,,,512,0,5,,,,3,52,0
126464,note_off,,,,,512,0,6,,,,1,72,0
126464,note_on,,,,,0,0,6,,,,1,52,114
126464,note_off,,,,,0,0,6,,,,1,52,0
126464,note_off,,,,,0,0,6,,,,1,84,0
126464,note_on,,,,,0,0,6,,,,1,72,127
126976,note_off,,,,,1024,0,3,,,,6,72,0
126976,note_on,,,,,0,0,3,,,,6,72,101
126976,note_on,,,,,0,0,5,,,,3,53,114
126976,note_off,,,,,0,0,6,,,,1,79,0
126976,note_off,,,,,0,0,6,,,,1,52,0
126976,note_on,,,,,0,0,6,,,,1,53,127
126976,note_on,,,,,0,0,6,,,,1,72,127
126976,note_on,,,,,0,0,6,,,,1,81,127
126976,note_on,,,,,0,0,6,,,,1,53,114
126976,note_off,,,,,512,0,2,,,,2,79,0
126976,note_on,,,,,0,0,2,,,,2,81,127
126976,note_off,,,,,512,0,6,,,,1,72,0
126976,note_off,,,,,512,0,5,,,,3,52,0
127146,note_on,,,,,0,0,6,,,,1,79,127
127146,note_off,,,,,170,0,6,,,,1,81,0
127147,note_on,,,,,0,0,2,,,,2,79,127
127147,note_off,,,,,171,0,2,,,,2,81,0
127317,note_on,,,,,0,0,2,,,,2,77,127
127317,note_off,,,,,170,0,2,,,,2,79,0
127317,note_off,,,,,0,0,6,,,,1,79,0
127317,note_on,,,,,171,0,6,,,,1,77,127
127488,note_on,,,,,0,0,6,,,,1,53,114
127488,note_off,,,,,0,0,6,,,,1,53,0
127488,note_on,,,,,0,0,6,,,,1,81,127
127488,note_on,,,,,0,0,6,,,,1,53,127
127488,note_off,,,,,0,0,6,,,,1,77,0
127488,note_off,,,,,512,0,5,,,,3,53,0
127488,note_on,,,,,0,0,5,,,,3,53,114
127488,note_off,,,,,171,0,6,,,,1,53,0
127488,note_on,,,,,0,0,2,,,,2,81,127
127488,note_off,,,,,171,0,2,,,,2,77,0
127658,note_on,,,,,0,0,6,,,,1,79,127
127658,note_off,,,,,170,0,6,,,,1,81,0
127659,note_off,,,,,171,0,2,,,,2,81,0
127659,note_on,,,,,0,0,2,,,,2,79,127
127829,note_off,,,,,0,0,6,,,,1,79,0
127829,note_off,,,,,170,0,2,,,,2,79,0
127829,note_on,,,,,0,0,2,,,,2,77,127
127829,note_on,,,,,171,0,6,,,,1,77,127
128000,note_off,,,,,0,0,6,,,,1,77,0
128000,note_off,,,,,0,0,6,,,,1,53,0
128000,note_on,,,,,0,0,6,,,,1,70,127
128000,note_on,,,,,0,0,6,,,,1,82,127
128000,note_on,,,,,0,0,6,,,,1,50,114
128000,note_on,,,,,0,0,3,,,,6,70,101
128000,note_off,,,,,171,0,6,,,,1,72,0
128000,note_off,,,,,0,0,6,,,,1,53,0
128000,note_off,,,,,171,0,2,,,,2,77,0
128000,note_off,,,,,512,0,5,,,,3,53,0
128000,note_on,,,,,0,0,2,,,,2,82,127
128000,note_off,,,,,1024,0,3,,,,6,72,0
128000,note_on,,,,,0,0,5,,,,3,50,114
128512,note_off,,,,,512,0,6,,,,1,70,0
128512,note_on,,,,,0,0,6,,,,1,70,127
128512,note_on,,,,,0,0,6,,,,1,77,127
128512,note_off,,,,,0,0,6,,,,1,82,0
128512,note_on,,,,,0,0,6,,,,1,50,114
128512,note_off,,,,,0,0,6,,,,1,50,0
128512,note_on,,,,,0,0,5,,,,3,50,114
128512,note_off,,,,,512,0,5,,,,3,50,0
128512,note_off,,,,,512,0,2,,,,2,82,0
128512,note_on,,,,,0,0,2,,,,2,77,127
129024,note_off,,,,,0,0,6,,,,1,77,0
129024,note_off,,,,,0,0,6,,,,1,50,0
129024,note_on,,,,,0,0,6,,,,1,52,114
129024,note_on,,,,,0,0,6,,,,1,70,127
129024,note_on,,,,,0,0,6,,,,1,79,127
129024,note_off,,,,,512,0,2,,,,2,77,0
129024,note_on,,,,,0,0,2,,,,2,79,127
129024,note_on,,,,,0,0,5,,,,3,52,114
129024,note_off,,,,,512,0,5,,,,3,50,0
129024,note_off,,,,,512,0,6,,,,1,70,0
129194,note_off,,,,,170,0,6,,,,1,79,0
129194,note_on,,,,,0,0,6,,,,1,77,127
129195,note_off,,,,,171,0,2,,,,2,79,0
129195,note_on,,,,,0,0,2,,,,2,77,127
129365,note_off,,,,,170,0,2,,,,2,77,0
129365,note_on,,,,,0,0,2,,,,2,76,127
129365,note_on,,,,,171,0,6,,,,1,76,127
129365,note_off,,,,,0,0,6,,,,1,77,0
129536,note_on,,,,,0,0,5,,,,3,52,114
129536,note_off,,,,,512,0,5,,,,3,52,0
129536,note_off,,,,,171,0,2,,,,2,76,0
129536,note_on,,,,,0,0,2,,,,2,79,127
129536,note_off,,,,,171,0,6,,,,1,76,0
129536,note_on,,,,,0,0,6,,,,1,79,127
129536,note_off,,,,,0,0,6,,,,1,52,0
129536,note_on,,,,,0,0,6,,,,1,52,114
129706,note_off,,,,,170,0,6,,,,1,79,0
129706,note_on,,,,,0,0,6,,,,1,77,127
129707,note_on,,,,,0,0,2,,,,2,77,127
129707,note_off,,,,,171,0,2,,,,2,79,0
129877,note_on,,,,,171,0,6,,,,1,76,127
129877,note_off,,,,,170,0,2,,,,2,77,0
129877,note_on,,,,,0,0,2,,,,2,76,127
129877,note_off,,,,,0,0,6,,,,1,77,0
130048,note_off,,,,,512,0,5,,,,3,52,0
130048,note_on,,,,,0,0,2,,,,2,81,127
130048,note_on,,,,,0,0,5,,,,3,49,114
130048,note_off,,,,,171,0,6,,,,1,70,0
130048,note_off,,,,,2048,0,3,,,,6,70,0
130048,note_off,,,,,171,0,2,,,,2,76,0
130048,note_on,,,,,0,0,3,,,,6,69,101
130048,note_off,,,,,0,0,6,,,,1,76,0
130048,note_on,,,,,0,0,6,,,,1,69,127
130048,note_on,,,,,0,0,6,,,,1,49,114
130048,note_off,,,,,0,0,6,,,,1,52,0
130048,note_on,,,,,0,0,6,,,,1,81,127
130560,note_off,,,,,512,0,2,,,,2,81,0
130560,note_on,,,,,0,0,6,,,,1,49,114
130560,note_off,,,,,0,0,6,,,,1,49,0
130560,note_on,,,,,0,0,6,,,,1,76,127
130560,note_on,,,,,0,0,6,,,,1,73,127
130560,note_on,,,,,0,0,6,,,,1,69,127
130560,note_off,,,,,0,0,6,,,,1,81,0
130560,note_on,,,,,0,0,2,,,,2,76,127
130560,note_off,,,,,512,0,6,,,,1,69,0
130560,note_off,,,,,512,0,5,,,,3,49,0
130560,note_on,,,,,0,0,5,,,,3,49,114
131072,note_off,,,,,512,0,2,,,,2,76,0
131072,note_on,,,,,0,0,2,,,,2,77,127
131072,note_on,,,,,0,0,5,,,,3,62,114
131072,note_on,,,,,0,0,3,,,,6,74,101
131072,note_off,,,,,512,0,5,,,,3,49,0
131072,note_off,,,,,512,0,6,,,,1,69,0
131072,note_off,,,,,0,0,6,,,,1,73,0
131072,note_off,,,,,0,0,6,,,,1,76,0
131072,note_off,,,,,0,0,6,,,,1,49,0
131072,note_on,,,,,0,0,6,,,,1,62,114
131072,note_on,,,,,0,0,6,,,,1,62,114
131072,note_on,,,,,0,0,6,,,,1,65,114
131072,note_on,,,,,0,0,6,,,,1,74,114
131072,note_on,,,,,0,0,6,,,,1,77,114
131072,note_off,,,,,1024,0,3,,,,6,69,0
131328,note_on,,,,,0,0,2,,,,2,77,127
131328,note_off,,,,,256,0,2,,,,2,77,0
131328,note_off,,,,,256,0,6,,,,1,74,0
131328,note_off,,,,,0,0,6,,,,1,77,0
131328,note_on,,,,,0,0,6,,,,1,74,118
131328,note_off,,,,,256,0,3,,,,6,74,0
131328,note_on,,,,,0,0,6,,,,1,77,118
131328,note_on,,,,,0,0,3,,,,6,74,101
131584,note_off,,,,,256,0,6,,,,1,62,0
131584,note_on,,,,,0,0,6,,,,1,60,114
131584,note_off,,,,,0,0,6,,,,1,62,0
131584,note_off,,,,,0,0,6,,,,1,65,0
131584,note_on,,,,,0,0,5,,,,3,60,114
131584,note_off,,,,,512,0,5,,,,3,62,0
131584,note_on,,,,,0,0,6,,,,1,60,121
131584,note_on,,,,,0,0,6,,,,1,64,121
131840,note_off,,,,,256,0,6,,,,1,74,0
131840,note_off,,,,,0,0,6,,,,1,77,0
131840,note_on,,,,,0,0,6,,,,1,81,125
131840,note_on,,,,,0,0,3,,,,6,77,101
131840,note_off,,,,,512,0,2,,,,2,77,0
131840,note_on,,,,,0,0,2,,,,2,81,127
131840,note_off,,,,,512,0,3,,,,6,74,0
132096,note_off,,,,,256,0,3,,,,6,77,0
132096,note_on,,,,,0,0,3,,,,6,74,101
132096,note_on,,,,,0,0,6,,,,1,58,114
132096,note_on,,,,,0,0,2,,,,2,77,127
132096,note_off,,,,,256,0,2,,,,2,81,0
132096,note_off,,,,,512,0,5,,,,3,60,0
132096,note_on,,,,,0,0,5,,,,3,58,114
132096,note_off,,,,,256,0,6,,,,1,60,0
132096,note_off,,,,,0,0,6,,,,1,64,0
132096,note_off,,,,,0,0,6,,,,1,81,0
132096,note_on,,,,,0,0,6,,,,1,58,127
132096,note_on,,,,,0,0,6,,,,1,62,127
132096,note_off,,,,,0,0,6,,,,1,60,0
132096,note_on,,,,,0,0,6,,,,1,77,127
132096,note_on,,,,,0,0,6,,,,1,74,127
132352,note_off,,,,,256,0,2,,,,2,77,0
132352,note_off,,,,,256,0,6,,,,1,74,0
132352,note_off,,,,,256,0,3,,,,6,74,0
132352,note_on,,,,,0,0,3,,,,6,74,101
132352,note_off,,,,,0,0,6,,,,1,77,0
132352,note_on,,,,,0,0,6,,,,1,74,127
132352,note_on,,,,,0,0,2,,,,2,77,127
132352,note_on,,,,,0,0,6,,,,1,77,127
132608,note_off,,,,,256,0,6,,,,1,58,0
132608,note_on,,,,,0,0,6,,,,1,57,114
132608,note_off,,,,,0,0,6,,,,1,58,0
132608,note_on,,,,,0,0,6,,,,1,61,127
132608,note_on,,,,,0,0,6,,,,1,57,127
132608,note_off,,,,,0,0,6,,,,1,62,0
132608,note_off,,,,,512,0,5,,,,3,58,0
132608,note_on,,,,,0,0,5,,,,3,57,114
132864,note_off,,,,,512,0,2,,,,2,77,0
132864,note_on,,,,,0,0,2,,,,2,81,127
132864,note_off,,,,,0,0,6,,,,1,77,0
132864,note_off,,,,,256,0,6,,,,1,74,0
132864,note_on,,,,,0,0,6,,,,1,81,127
132864,note_off,,,,,512,0,3,,,,6,74,0
132864,note_on,,,,,0,0,3,,,,6,77,101
133120,note_off,,,,,256,0,2,,,,2,81,0
133120,note_off,,,,,256,0,3,,,,6,77,0
133120,note_on,,,,,0,0,3,,,,6,74,101
133120,note_on,,,,,0,0,2,,,,2,77,127
133120,note_off,,,,,512,0,5,,,,3,57,0
133120,note_on,,,,,0,0,6,,,,1,55,114
133120,note_on,,,,,0,0,5,,,,3,55,114
133120,note_on,,,,,0,0,6,,,,1,77,127
133120,note_on,,,,,0,0,6,,,,1,74,127
133120,note_on,,,,,0,0,6,,,,1,58,127
133120,note_on,,,,,0,0,6,,,,1,55,127
133120,note_off,,,,,0,0,6,,,,1,81,0
133120,note_off,,,,,0,0,6,,,,1,61,0
133120,note_off,,,,,256,0,6,,,,1,57,0
133120,note_off,,,,,0,0,6,,,,1,57,0
133376,note_off,,,,,256,0,2,,,,2,77,0
133376,note_on,,,,,0,0,2,,,,2,77,127
133376,note_on,,,,,0,0,3,,,,6,74,101
133376,note_off,,,,,256,0,3,,,,6,74,0
133376,note_on,,,,,0,0,6,,,,1,74,127
133376,note_on,,,,,0,0,6,,,,1,77,127
133376,note_off,,,,,0,0,6,,,,1,77,0
133376,note_off,,,,,256,0,6,,,,1,74,0
133632,note_off,,,,,0,0,6,,,,1,55,0
133632,note_on,,,,,0,0,6,,,,1,53,127
133632,note_on,,,,,0,0,6,,,,1,57,127
133632,note_off,,,,,512,0,5,,,,3,55,0
133632,note_on,,,,,0,0,5,,,,3,53,114
133632,note_off,,,,,0,0,6,,,,1,58,0
133632,note_off,,,,,256,0,6,,,,1,55,0
133632,note_on,,,,,0,0,6,,,,1,53,114
133888,note_off,,,,,512,0,2,,,,2,77,0
133888,note_on,,,,,0,0,2,,,,2,81,127
133888,note_off,,,,,512,0,3,,,,6,74,0
133888,note_on,,,,,0,0,3,,,,6,77,101
133888,note_on,,,,,0,0,6,,,,1,81,127
133888,note_off,,,,,0,0,6,,,,1,77,0
133888,note_off,,,,,256,0,6,,,,1,74,0
134144,note_on,,,,,0,0,2,,,,2,77,127
134144,note_on,,,,,0,0,3,,,,6,74,101
134144,note_off,,,,,0,0,6,,,,1,53,0
134144,note_on,,,,,0,0,6,,,,1,52,114
134144,note_off,,,,,256,0,2,,,,2,81,0
134144,note_off,,,,,256,0,3,,,,6,77,0
134144,note_on,,,,,0,0,5,,,,3,52,114
134144,note_on,,,,,0,0,6,,,,1,55,127
134144,note_off,,,,,0,0,6,,,,1,81,0
134144,note_off,,,,,512,0,5,,,,3,53,0
134144,note_off,,,,,0,0,6,,,,1,57,0
134144,note_on,,,,,0,0,6,,,,1,77,127
134144,note_on,,,,,0,0,6,,,,1,74,127
134144,note_off,,,,,256,0,6,,,,1,53,0
134400,note_on,,,,,0,0,3,,,,6,74,101
134400,note_off,,,,,256,0,2,,,,2,77,0
134400,note_on,,,,,0,0,2,,,,2,77,127
134400,note_on,,,,,0,0,6,,,,1,77,127
134400,note_off,,,,,256,0,6,,,,1,74,0
134400,note_off,,,,,0,0,6,,,,1,77,0
134400,note_off,,,,,256,0,3,,,,6,74,0
134400,note_on,,,,,0,0,6,,,,1,74,127
134656,note_on,,,,,0,0,6,,,,1,50,114
134656,note_off,,,,,256,0,6,,,,1,55,0
134656,note_on,,,,,0,0,6,,,,1,53,127
134656,note_off,,,,,0,0,6,,,,1,52,0
134656,note_off,,,,,512,0,5,,,,3,52,0
134656,note_on,,,,,0,0,5,,,,3,50,114
134912,note_off,,,,,0,0,6,,,,1,77,0
134912,note_on,,,,,0,0,2,,,,2,81,127
134912,note_on,,,,,0,0,6,,,,1,81,127
134912,note_off,,,,,512,0,3,,,,6,74,0
134912,note_on,,,,,0,0,3,,,,6,77,101
134912,note_off,,,,,512,0,2,,,,2,77,0
134912,note_off,,,,,256,0,6,,,,1,74,0
135168,note_off,,,,,256,0,3,,,,6,77,0
135168,note_on,,,,,0,0,3,,,,6,73,101
135168,note_on,,,,,0,0,6,,,,1,57,127
135168,note_off,,,,,0,0,6,,,,1,50,0
135168,note_on,,,,,0,0,6,,,,1,73,127
135168,note_on,,,,,0,0,6,,,,1,76,127
135168,note_on,,,,,0,0,6,,,,1,57,114
135168,note_off,,,,,256,0,2,,,,2,81,0
135168,note_off,,,,,0,0,6,,,,1,81,0
135168,note_off,,,,,256,0,6,,,,1,53,0
135168,note_off,,,,,512,0,5,,,,3,50,0
135168,note_on,,,,,0,0,5,,,,3,57,114
135168,note_on,,,,,0,0,2,,,,2,76,127
135424,note_on,,,,,0,0,6,,,,1,77,127
135424,note_on,,,,,0,0,6,,,,1,74,127
135424,note_off,,,,,0,0,6,,,,1,76,0
135424,note_off,,,,,256,0,6,,,,1,73,0
135424,note_on,,,,,0,0,2,,,,2,77,127
135424,note_off,,,,,256,0,2,,,,2,76,0
135680,note_off,,,,,512,0,5,,,,3,57,0
135680,note_on,,,,,0,0,2,,,,2,79,127
135680,note_off,,,,,256,0,2,,,,2,77,0
135680,note_on,,,,,0,0,5,,,,3,45,114
135680,note_off,,,,,0,0,6,,,,1,74,0
135680,note_on,,,,,0,0,6,,,,1,45,114
135680,note_off,,,,,0,0,6,,,,1,57,0
135680,note_on,,,,,0,0,6,,,,1,76,127
135680,note_off,,,,,0,0,6,,,,1,77,0
135680,note_on,,,,,0,0,6,,,,1,79,127
135680,note_off,,,,,256,0,6,,,,1,57,0
135936,note_on,,,,,0,0,2,,,,2,73,127
135936,note_off,,,,,256,0,2,,,,2,79,0
135936,note_off,,,,,256,0,6,,,,1,76,0
135936,note_off,,,,,0,0,6,,,,1,79,0
135936,note_on,,,,,0,0,6,,,,1,69,127
135936,note_on,,,,,0,0,6,,,,1,73,127
136192,note_off,,,,,1024,0,3,,,,6,73,0
136192,note_on,,,,,0,0,3,,,,6,76,101
136192,note_off,,,,,0,0,6,,,,1,73,0
136192,note_off,,,,,256,0,6,,,,1,69,0
136192,note_off,,,,,512,0,5,,,,3,45,0
136192,note_on,,,,,0,0,6,,,,1,76,127
136192,note_off,,,,,0,0,6,,,,1,45,0
136192,note_off,,,,,256,0,2,,,,2,73,0
136192,note_on,,,,,0,0,2,,,,2,79,127
136192,note_on,,,,,0,0,6,,,,1,79,127
136192,note_on,,,,,0,0,5,,,,3,57,114
136192,note_on,,,,,0,0,6,,,,1,57,114
136448,note_on,,,,,0,0,6,,,,1,81,127
136448,note_off,,,,,0,0,6,,,,1,79,0
136448,note_on,,,,,0,0,2,,,,2,81,127
136448,note_off,,,,,256,0,2,,,,2,79,0
136448,note_off,,,,,256,0,6,,,,1,76,0
136448,note_on,,,,,0,0,6,,,,1,77,127
136704,note_off,,,,,256,0,6,,,,1,77,0
136704,note_off,,,,,0,0,6,,,,1,81,0
136704,note_off,,,,,0,0,6,,,,1,57,0
136704,note_on,,,,,0,0,6,,,,1,82,127
136704,note_on,,,,,0,0,5,,,,3,45,114
136704,note_on,,,,,0,0,6,,,,1,45,114
136704,note_on,,,,,0,0,6,,,,1,79,127
136704,note_off,,,,,512,0,5,,,,3,57,0
136704,note_off,,,,,256,0,2,,,,2,81,0
136704,note_on,,,,,0,0,2,,,,2,82,127
136960,note_off,,,,,256,0,2,,,,2,82,0
136960,note_on,,,,,0,0,2,,,,2,76,127
136960,note_off,,,,,256,0,6,,,,1,79,0
136960,note_off,,,,,0,0,6,,,,1,82,0
136960,note_on,,,,,0,0,6,,,,1,73,127
136960,note_on,,,,,0,0,6,,,,1,76,127
137216,note_on,,,,,0,0,3,,,,6,74,101
137216,note_off,,,,,1024,0,3,,,,6,76,0
137216,note_on,,,,,0,0,2,,,,2,77,127
137216,note_on,,,,,0,0,6,,,,1,50,114
137216,note_off,,,,,0,0,6,,,,1,45,0
137216,note_on,,,,,0,0,6,,,,1,74,127
137216,note_off,,,,,0,0,6,,,,1,76,0
137216,note_off,,,,,256,0,2,,,,2,76,0
137216,note_on,,,,,0,0,6,,,,1,77,127
137216,note_off,,,,,512,0,5,,,,3,45,0
137216,note_on,,,,,0,0,5,,,,3,50,114
137216,note_off,,,,,256,0,6,,,,1,73,0
137728,note_on,,,,,0,0,3,,,,6,69,101
137728,note_off,,,,,512,0,3,,,,6,74,0
137728,note_off,,,,,512,0,5,,,,3,50,0
137728,note_on,,,,,0,0,5,,,,3,38,114
137728,note_off,,,,,0,0,6,,,,1,50,0
137728,note_off,,,,,512,0,2,,,,2,77,0
137728,note_on,,,,,0,0,6,,,,1,69,127
137728,note_on,,,,,0,0,6,,,,1,65,127
137728,note_off,,,,,0,0,6,,,,1,77,0
137728,note_off,,,,,512,0,6,,,,1,74,0
137728,note_on,,,,,0,0,2,,,,2,74,127
137728,note_on,,,,,0,0,6,,,,1,74,127
137728,note_on,,,,,0,0,6,,,,1,38,114
138240,note_on,,,,,0,0,2,,,,2,76,127
138240,note_off,,,,,512,0,2,,,,2,74,0
138240,note_off,,,,,512,0,3,,,,6,69,0
138240,note_on,,,,,0,0,3,,,,6,70,101
138240,note_on,,,,,0,0,6,,,,1,43,114
138240,note_off,,,,,512,0,5,,,,3,38,0
138240,note_on,,,,,0,0,5,,,,3,43,114
138240,note_off,,,,,512,0,6,,,,1,65,0
138240,note_off,,,,,0,0,6,,,,1,69,0
138240,note_off,,,,,0,0,6,,,,1,74,0
138240,note_on,,,,,0,0,6,,,,1,67,127
138240,note_on,,,,,0,0,6,,,,1,70,127
138240,note_on,,,,,0,0,6,,,,1,76,127
138240,note_off,,,,,0,0,6,,,,1,38,0
138752,note_on,,,,,0,0,6,,,,1,64,127
138752,note_on,,,,,0,0,2,,,,2,73,127
138752,note_off,,,,,512,0,2,,,,2,76,0
138752,note_off,,,,,512,0,5,,,,3,43,0
138752,note_on,,,,,0,0,5,,,,3,45,114
138752,note_off,,,,,0,0,6,,,,1,76,0
138752,note_off,,,,,512,0,3,,,,6,70,0
138752,note_off,,,,,512,0,6,,,,1,67,0
138752,note_off,,,,,0,0,6,,,,1,70,0
138752,note_on,,,,,0,0,6,,,,1,45,114
138752,note_off,,,,,0,0,6,,,,1,43,0
138752,note_on,,,,,0,0,6,,,,1,73,127
138752,note_on,,,,,0,0,6,,,,1,69,127
138752,note_on,,,,,0,0,3,,,,6,69,101
139264,note_off,,,,,512,0,2,,,,2,73,0
139264,note_on,,,,,0,0,6,,,,1,50,75
139264,note_on,,,,,0,0,6,,,,1,74,91
139264,note_on,,,,,0,0,6,,,,1,69,91
139264,note_on,,,,,0,0,6,,,,1,65,91
139264,note_off,,,,,0,0,6,,,,1,73,0
139264,note_off,,,,,0,0,6,,,,1,69,0
139264,note_off,,,,,512,0,6,,,,1,64,0
139264,note_on,,,,,0,0,2,,,,2,74,62
139264,note_off,,,,,0,0,6,,,,1,45,0
139264,note_off,,,,,512,0,5,,,,3,45,0
139264,note_on,,,,,0,0,5,,,,3,50,75
139264,note_on,,,,,0,0,3,,,,6,65,75
139264,note_on,,,,,21504,0,4,,,,12,74,127
139264,note_off,,,,,512,0,3,,,,6,69,0
139776,note_on,,,,,0,0,6,,,,1,67,91
139776,note_off,,,,,0,0,6,,,,1,69,0
139776,note_off,,,,,512,0,6,,,,1,65,0
139776,note_off,,,,,512,0,3,,,,6,65,0
139776,note_on,,,,,0,0,3,,,,6,67,75
139776,note_off,,,,,0,0,6,,,,1,50,0
139776,note_on,,,,,0,0,6,,,,1,52,75
139776,note_on,,,,,0,0,5,,,,3,52,75
139776,note_off,,,,,512,0,5,,,,3,50,0
140288,note_on,,,,,0,0,6,,,,1,53,75
140288,note_off,,,,,0,0,6,,,,1,52,0
140288,note_on,,,,,0,0,6,,,,1,69,91
140288,note_on,,,,,0,0,6,,,,1,53,91
140288,note_off,,,,,512,0,6,,,,1,67,0
140288,note_on,,,,,0,0,3,,,,6,69,75
140288,note_off,,,,,512,0,3,,,,6,67,0
140288,note_on,,,,,0,0,5,,,,3,53,75
140288,note_off,,,,,512,0,5,,,,3,52,0
140288,note_on,,,,,0,0,4,,,,12,77,127
140288,note_off,,,,,1024,0,4,,,,12,74,0
140800,note_off,,,,,512,0,6,,,,1,53,0
140800,note_off,,,,,0,0,6,,,,1,69,0
140800,note_on,,,,,0,0,6,,,,1,52,75
140800,note_off,,,,,512,0,3,,,,6,69,0
140800,note_on,,,,,0,0,3,,,,6,67,75
140800,note_on,,,,,0,0,5,,,,3,52,75
140800,note_off,,,,,512,0,5,,,,3,53,0
140800,note_off,,,,,0,0,6,,,,1,53,0
140800,note_on,,,,,0,0,6,,,,1,67,91
141312,note_off,,,,,512,0,3,,,,6,67,0
141312,note_on,,,,,0,0,3,,,,6,65,75
141312,note_on,,,,,0,0,5,,,,3,50,75
141312,note_off,,,,,512,0,5,,,,3,52,0
141312,note_on,,,,,0,0,2,,,,2,69,62
141312,note_off,,,,,0,0,6,,,,1,67,0
141312,note_on,,,,,0,0,6,,,,1,50,75
141312,note_off,,,,,0,0,6,,,,1,52,0
141312,note_off,,,,,2048,0,2,,,,2,74,0
141312,note_on,,,,,0,0,6,,,,1,69,91
141312,note_on,,,,,0,0,6,,,,1,74,91
141312,note_off,,,,,512,0,6,,,,1,74,0
141312,note_on,,,,,0,0,6,,,,1,65,91
141568,note_off,,,,,1280,0,4,,,,12,77,0
141568,note_on,,,,,0,0,4,,,,12,76,127
141824,note_off,,,,,256,0,4,,,,12,76,0
141824,note_on,,,,,0,0,4,,,,12,74,127
142080,note_on,,,,,0,0,4,,,,12,72,127
142080,note_off,,,,,256,0,4,,,,12,74,0
142336,note_off,,,,,1024,0,3,,,,6,65,0
142336,note_off,,,,,0,0,6,,,,1,69,0
142336,note_off,,,,,256,0,4,,,,12,72,0
142336,note_off,,,,,1024,0,5,,,,3,50,0
142336,note_off,,,,,0,0,6,,,,1,50,0
142336,note_off,,,,,0,0,6,,,,1,74,0
142336,note_off,,,,,1024,0,2,,,,2,69,0
142336,note_off,,,,,1024,0,6,,,,1,65,0
142336,note_on,,,,,0,0,4,,,,12,70,127
142592,note_on,,,,,0,0,4,,,,12,69,127
142592,note_off,,,,,256,0,4,,,,12,70,0
142848,note_off,,,,,256,0,4,,,,12,69,0
142848,note_on,,,,,0,0,4,,,,12,67,127
143104,note_off,,,,,256,0,4,,,,12,67,0
143104,note_on,,,,,0,0,4,,,,12,65,127
143360,note_on,,,,,1024,0,6,,,,1,64,91
143360,note_on,,,,,1024,0,2,,,,2,69,62
143360,note_on,,,,,0,0,6,,,,1,69,91
143360,note_on,,,,,1024,0,3,,,,6,64,75
143360,note_on,,,,,1024,0,5,,,,3,49,75
143360,note_off,,,,,256,0,4,,,,12,65,0
143360,note_on,,,,,0,0,4,,,,12,64,127
143360,note_on,,,,,0,0,6,,,,1,49,75
143872,note_off,,,,,512,0,5,,,,3,49,0
143872,note_on,,,,,0,0,5,,,,3,50,75
143872,note_off,,,,,0,0,6,,,,1,49,0
143872,note_on,,,,,0,0,6,,,,1,50,75
143872,note_off,,,,,512,0,3,,,,6,64,0
143872,note_on,,,,,0,0,3,,,,6,65,75
143872,note_off,,,,,512,0,6,,,,1,64,0
143872,note_on,,,,,0,0,6,,,,1,65,91
144384,note_off,,,,,1024,0,4,,,,12,64,0
144384,note_on,,,,,0,0,4,,,,12,79,127
144384,note_on,,,,,0,0,3,,,,6,67,75
144384,note_off,,,,,512,0,5,,,,3,50,0
144384,note_on,,,,,0,0,5,,,,3,52,75
144384,note_off,,,,,512,0,6,,,,1,65,0
144384,note_on,,,,,0,0,6,,,,1,67,91
144384,note_on,,,,,0,0,6,,,,1,52,75
144384,note_off,,,,,512,0,3,,,,6,65,0
144384,note_off,,,,,0,0,6,,,,1,50,0
144896,note_on,,,,,0,0,3,,,,6,64,75
144896,note_off,,,,,512,0,3,,,,6,67,0
144896,note_off,,,,,512,0,6,,,,1,52,0
144896,note_on,,,,,0,0,6,,,,1,49,75
144896,note_on,,,,,0,0,5,,,,3,49,75
144896,note_off,,,,,512,0,5,,,,3,52,0
145408,note_on,,,,,0,0,5,,,,3,45,75
145408,note_off,,,,,512,0,5,,,,3,49,0
145408,note_on,,,,,0,0,2,,,,2,73,62
145408,note_off,,,,,2048,0,2,,,,2,69,0
145408,note_on,,,,,0,0,3,,,,6,67,75
145408,note_off,,,,,512,0,3,,,,6,64,0
145408,note_off,,,,,512,0,6,,,,1,69,0
145408,note_off,,,,,0,0,6,,,,1,67,0
145408,note_on,,,,,0,0,6,,,,1,64,91
145408,note_on,,,,,0,0,6,,,,1,69,91
145408,note_on,,,,,0,0,6,,,,1,73,91
145408,note_off,,,,,0,0,6,,,,1,49,0
145408,note_on,,,,,0,0,6,,,,1,45,75
145664,note_off,,,,,1280,0,4,,,,12,79,0
145664,note_on,,,,,0,0,4,,,,12,77,127
145920,note_off,,,,,256,0,4,,,,12,77,0
145920,note_on,,,,,0,0,4,,,,12,76,127
146176,note_on,,,,,0,0,4,,,,12,74,127
146176,note_off,,,,,256,0,4,,,,12,76,0
146432,note_off,,,,,1024,0,3,,,,6,67,0
146432,note_off,,,,,1024,0,5,,,,3,45,0
146432,note_off,,,,,1024,0,2,,,,2,73,0
146432,note_off,,,,,0,0,6,,,,1,69,0
146432,note_off,,,,,256,0,4,,,,12,74,0
146432,note_off,,,,,0,0,6,,,,1,45,0
146432,note_off,,,,,0,0,6,,,,1,73,0
146432,note_off,,,,,1024,0,6,,,,1,64,0
146432,note_on,,,,,0,0,4,,,,12,73,127
146688,note_off,,,,,256,0,4,,,,12,73,0
146688,note_on,,,,,0,0,4,,,,12,71,127
146944,note_off,,,,,256,0,4,,,,12,71,0
146944,note_on,,,,,0,0,4,,,,12,69,127
147200,note_off,,,,,256,0,4,,,,12,69,0
147200,note_on,,,,,0,0,4,,,,12,67,127
147456,note_on,,,,,1024,0,2,,,,2,74,62
147456,note_off,,,,,256,0,4,,,,12,67,0
147456,note_on,,,,,1024,0,5,,,,3,50,75
147456,note_on,,,,,1024,0,3,,,,6,65,75
147456,note_on,,,,,0,0,4,,,,12,65,127
147456,note_on,,,,,1024,0,6,,,,1,65,91
147456,note_on,,,,,0,0,6,,,,1,69,91
147456,note_on,,,,,0,0,6,,,,1,74,91
147456,note_on,,,,,0,0,6,,,,1,50,75
147968,note_on,,,,,0,0,6,,,,1,52,75
147968,note_on,,,,,0,0,5,,,,3,52,75
147968,note_off,,,,,512,0,5,,,,3,50,0
147968,note_off,,,,,512,0,3,,,,6,65,0
147968,note_off,,,,,0,0,6,,,,1,50,0
147968,note_on,,,,,0,0,3,,,,6,67,75
147968,note_off,,,,,0,0,6,,,,1,69,0
147968,note_off,,,,,512,0,6,,,,1,65,0
147968,note_on,,,,,0,0,6,,,,1,67,91
148480,note_on,,,,,0,0,6,,,,1,53,75
148480,note_off,,,,,512,0,3,,,,6,67,0
148480,note_on,,,,,0,0,3,,,,6,69,75
148480,note_on,,,,,0,0,4,,,,12,81,127
148480,note_off,,,,,512,0,5,,,,3,52,0
148480,note_off,,,,,1024,0,4,,,,12,65,0
148480,note_off,,,,,512,0,6,,,,1,67,0
148480,note_on,,,,,0,0,6,,,,1,53,91
148480,note_on,,,,,0,0,6,,,,1,69,91
148480,note_off,,,,,0,0,6,,,,1,52,0
148480,note_on,,,,,0,0,5,,,,3,53,75
148992,note_off,,,,,0,0,6,,,,1,69,0
148992,note_on,,,,,0,0,3,,,,6,67,75
148992,note_off,,,,,512,0,6,,,,1,53,0
148992,note_on,,,,,0,0,6,,,,1,52,75
148992,note_on,,,,,0,0,6,,,,1,67,91
148992,note_off,,,,,512,0,3,,,,6,69,0
148992,note_on,,,,,0,0,5,,,,3,52,75
148992,note_off,,,,,512,0,5,,,,3,53,0
148992,note_off,,,,,0,0,6,,,,1,53,0
149504,note_on,,,,,0,0,2,,,,2,69,62
149504,note_off,,,,,2048,0,2,,,,2,74,0
149504,note_on,,,,,0,0,3,,,,6,65,75
149504,note_off,,,,,512,0,3,,,,6,67,0
149504,note_off,,,,,512,0,5,,,,3,52,0
149504,note_off,,,,,512,0,6,,,,1,74,0
149504,note_on,,,,,0,0,6,,,,1,50,75
149504,note_off,,,,,0,0,6,,,,1,67,0
149504,note_on,,,,,0,0,6,,,,1,65,91
149504,note_on,,,,,0,0,6,,,,1,69,91
149504,note_on,,,,,0,0,6,,,,1,74,91
149504,note_off,,,,,0,0,6,,,,1,52,0
149504,note_on,,,,,0,0,5,,,,3,50,75
149760,note_off,,,,,1280,0,4,,,,12,81,0
149760,note_on,,,,,0,0,4,,,,12,79,127
150016,note_on,,,,,0,0,4,,,,12,77,127
150016,note_off,,,,,256,0,4,,,,12,79,0
150272,note_off,,,,,256,0,4,,,,12,77,0
150272,note_on,,,,,0,0,4,,,,12,76,127
150528,note_off,,,,,1024,0,3,,,,6,65,0
150528,note_on,,,,,0,0,4,,,,12,74,127
150528,note_off,,,,,0,0,6,,,,1,50,0
150528,note_off,,,,,1024,0,6,,,,1,65,0
150528,note_off,,,,,0,0,6,,,,1,69,0
150528,note_off,,,,,0,0,6,,,,1,74,0
150528,note_off,,,,,256,0,4,,,,12,76,0
150528,note_off,,,,,1024,0,2,,,,2,69,0
150528,note_off,,,,,1024,0,5,,,,3,50,0
150784,note_off,,,,,256,0,4,,,,12,74,0
150784,note_on,,,,,0,0,4,,,,12,72,127
151040,note_on,,,,,0,0,4,,,,12,70,127
151040,note_off,,,,,256,0,4,,,,12,72,0
151296,note_on,,,,,0,0,4,,,,12,69,127
151296,note_off,,,,,256,0,4,,,,12,70,0
151552,note_on,,,,,1024,0,5,,,,3,55,75
151552,note_on,,,,,0,0,6,,,,1,62,91
151552,note_on,,,,,1024,0,6,,,,1,55,91
151552,note_on,,,,,0,0,4,,,,12,70,127
151552,note_on,,,,,0,0,6,,,,1,55,75
151552,note_on,,,,,1024,0,3,,,,6,62,75
151552,note_on,,,,,1024,0,2,,,,2,70,62
151552,note_on,,,,,0,0,6,,,,1,70,91
151552,note_off,,,,,256,0,4,,,,12,69,0
152064,note_on,,,,,0,0,6,,,,1,57,91
152064,note_on,,,,,0,0,6,,,,1,72,91
152064,note_off,,,,,0,0,6,,,,1,55,0
152064,note_on,,,,,0,0,6,,,,1,57,75
152064,note_off,,,,,0,0,6,,,,1,70,0
152064,note_off,,,,,512,0,6,,,,1,55,0
152064,note_off,,,,,512,0,2,,,,2,70,0
152064,note_on,,,,,0,0,2,,,,2,72,62
152064,note_off,,,,,512,0,5,,,,3,55,0
152064,note_on,,,,,0,0,5,,,,3,57,75
152576,note_on,,,,,0,0,4,,,,12,82,127
152576,note_on,,,,,0,0,6,,,,1,55,75
152576,note_off,,,,,0,0,6,,,,1,57,0
152576,note_on,,,,,0,0,6,,,,1,70,91
152576,note_on,,,,,0,0,6,,,,1,55,91
152576,note_off,,,,,0,0,6,,,,1,72,0
152576,note_off,,,,,1024,0,4,,,,12,70,0
152576,note_on,,,,,0,0,2,,,,2,70,62
152576,note_off,,,,,512,0,2,,,,2,72,0
152576,note_off,,,,,512,0,6,,,,1,57,0
152576,note_on,,,,,0,0,5,,,,3,55,75
152576,note_off,,,,,512,0,5,,,,3,57,0
153088,note_off,,,,,0,0,6,,,,1,70,0
153088,note_off,,,,,512,0,6,,,,1,55,0
153088,note_off,,,,,0,0,6,,,,1,55,0
153088,note_on,,,,,0,0,6,,,,1,53,75
153088,note_on,,,,,0,0,6,,,,1,53,91
153088,note_on,,,,,0,0,6,,,,1,69,91
153088,note_on,,,,,0,0,5,,,,3,53,75
153088,note_on,,,,,0,0,2,,,,2,69,62
153088,note_off,,,,,512,0,2,,,,2,70,0
153088,note_off,,,,,512,0,5,,,,3,55,0
153600,note_off,,,,,0,0,6,,,,1,53,0
153600,note_off,,,,,0,0,6,,,,1,53,0
153600,note_off,,,,,512,0,6,,,,1,62,0
153600,note_off,,,,,0,0,6,,,,1,69,0
153600,note_on,,,,,0,0,6,,,,1,67,91
153600,note_off,,,,,512,0,5,,,,3,53,0
153600,note_on,,,,,0,0,6,,,,1,72,91
153600,note_on,,,,,0,0,3,,,,6,67,75
153600,note_off,,,,,2048,0,3,,,,6,62,0
153600,note_on,,,,,0,0,6,,,,1,52,75
153600,note_on,,,,,0,0,2,,,,2,72,62
153600,note_off,,,,,512,0,2,,,,2,69,0
153600,note_on,,,,,0,0,5,,,,3,52,75
153856,note_on,,,,,0,0,4,,,,12,81,127
153856,note_off,,,,,1280,0,4,,,,12,82,0
154112,note_off,,,,,256,0,4,,,,12,81,0
154112,note_on,,,,,0,0,4,,,,12,79,127
154368,note_off,,,,,256,0,4,,,,12,79,0
154368,note_on,,,,,0,0,4,,,,12,77,127
154624,note_off,,,,,0,0,6,,,,1,72,0
154624,note_on,,,,,0,0,2,,,,2,72,62
154624,note_off,,,,,1024,0,2,,,,2,72,0
154624,note_on,,,,,0,0,3,,,,6,67,75
154624,note_off,,,,,1024,0,3,,,,6,67,0
154624,note_on,,,,,0,0,6,,,,1,48,75
154624,note_off,,,,,0,0,6,,,,1,52,0
154624,note_on,,,,,0,0,6,,,,1,72,91
154624,note_on,,,,,0,0,5,,,,3,48,75
154624,note_off,,,,,1024,0,5,,,,3,52,0
154624,note_off,,,,,1024,0,6,,,,1,67,0
154624,note_on,,,,,0,0,4,,,,12,76,127
154624,note_on,,,,,0,0,6,,,,1,64,91
154624,note_on,,,,,0,0,6,,,,1,67,91
154624,note_off,,,,,256,0,4,,,,12,77,0
154880,note_on,,,,,0,0,4,,,,12,74,127
154880,note_off,,,,,256,0,4,,,,12,76,0
155136,note_on,,,,,0,0,4,,,,12,72,127
155136,note_off,,,,,256,0,4,,,,12,74,0
155392,note_off,,,,,256,0,4,,,,12,72,0
155392,note_on,,,,,0,0,4,,,,12,70,127
155648,note_on,,,,,0,0,6,,,,1,69,91
155648,note_off,,,,,1024,0,3,,,,6,67,0
155648,note_on,,,,,0,0,6,,,,1,53,75
155648,note_on,,,,,0,0,3,,,,6,69,75
155648,note_on,,,,,0,0,6,,,,1,65,91
155648,note_on,,,,,0,0,6,,,,1,72,91
155648,note_on,,,,,0,0,6,,,,1,53,91
155648,note_on,,,,,0,0,4,,,,12,69,127
155648,note_on,,,,,0,0,2,,,,2,72,101
155648,note_off,,,,,1024,0,2,,,,2,72,0
155648,note_off,,,,,0,0,6,,,,1,72,0
155648,note_off,,,,,0,0,6,,,,1,67,0
155648,note_off,,,,,1024,0,6,,,,1,64,0
155648,note_off,,,,,256,0,4,,,,12,70,0
155648,note_on,,,,,0,0,5,,,,3,53,75
155648,note_off,,,,,1024,0,5,,,,3,48,0
155648,note_off,,,,,0,0,6,,,,1,48,0
155904,note_off,,,,,0,0,6,,,,1,72,0
155904,note_off,,,,,256,0,6,,,,1,69,0
155904,note_on,,,,,0,0,6,,,,1,69,91
155904,note_off,,,,,256,0,2,,,,2,72,0
155904,note_off,,,,,256,0,3,,,,6,69,0
155904,note_on,,,,,0,0,3,,,,6,69,75
155904,note_on,,,,,0,0,2,,,,2,72,101
155904,note_on,,,,,0,0,4,,,,12,67,127
155904,note_off,,,,,256,0,4,,,,12,69,0
155904,note_on,,,,,0,0,6,,,,1,72,91
156160,note_off,,,,,256,0,6,,,,1,53,0
156160,note_off,,,,,0,0,6,,,,1,65,0
156160,note_on,,,,,0,0,6,,,,1,65,91
156160,note_off,,,,,0,0,6,,,,1,53,0
156160,note_on,,,,,0,0,6,,,,1,41,75
156160,note_off,,,,,256,0,4,,,,12,67,0
156160,note_on,,,,,0,0,5,,,,3,41,75
156160,note_off,,,,,512,0,5,,,,3,53,0
156160,note_on,,,,,0,0,4,,,,12,65,127
156160,note_on,,,,,0,0,6,,,,1,53,91
156416,note_off,,,,,256,0,6,,,,1,69,0
156416,note_off,,,,,0,0,6,,,,1,72,0
156416,note_on,,,,,0,0,6,,,,1,77,91
156416,note_off,,,,,512,0,2,,,,2,72,0
156416,note_off,,,,,512,0,3,,,,6,69,0
156416,note_on,,,,,0,0,3,,,,6,72,75
156416,note_on,,,,,0,0,2,,,,2,77,101
156672,note_on,,,,,0,0,5,,,,3,53,75
156672,note_on,,,,,0,0,2,,,,2,72,101
156672,note_off,,,,,256,0,3,,,,6,72,0
156672,note_on,,,,,0,0,3,,,,6,69,75
156672,note_off,,,,,512,0,5,,,,3,41,0
156672,note_on,,,,,0,0,6,,,,1,72,91
156672,note_off,,,,,0,0,6,,,,1,41,0
156672,note_on,,,,,0,0,6,,,,1,69,91
156672,note_on,,,,,0,0,6,,,,1,65,91
156672,note_on,,,,,0,0,6,,,,1,53,91
156672,note_off,,,,,0,0,6,,,,1,77,0
156672,note_off,,,,,0,0,6,,,,1,65,0
156672,note_off,,,,,256,0,6,,,,1,53,0
156672,note_on,,,,,0,0,6,,,,1,53,75
156672,note_off,,,,,256,0,2,,,,2,77,0
156704,note_off,,,,,544,0,4,,,,12,65,0
156928,note_off,,,,,256,0,2,,,,2,72,0
156928,note_on,,,,,0,0,6,,,,1,69,91
156928,note_off,,,,,0,0,6,,,,1,72,0
156928,note_off,,,,,256,0,6,,,,1,69,0
156928,note_on,,,,,0,0,6,,,,1,72,91
156928,note_off,,,,,256,0,3,,,,6,69,0
156928,note_on,,,,,0,0,3,,,,6,69,75
156928,note_on,,,,,0,0,2,,,,2,72,101
157184,note_off,,,,,512,0,5,,,,3,53,0
157184,note_on,,,,,0,0,5,,,,3,41,75
157184,note_on,,,,,0,0,6,,,,1,41,75
157184,note_off,,,,,0,0,6,,,,1,53,0
157184,note_on,,,,,480,0,4,,,,12,72,127
157184,note_on,,,,,0,0,6,,,,1,53,91
157184,note_off,,,,,0,0,6,,,,1,65,0
157184,note_on,,,,,0,0,6,,,,1,65,91
157184,note_off,,,,,256,0,6,,,,1,53,0
157440,note_on,,,,,0,0,2,,,,2,77,101
157440,note_off,,,,,512,0,2,,,,2,72,0
157440,note_on,,,,,0,0,3,,,,6,72,75
157440,note_off,,,,,512,0,3,,,,6,69,0
157440,note_on,,,,,0,0,6,,,,1,77,91
157440,note_off,,,,,0,0,6,,,,1,72,0
157440,note_off,,,,,256,0,6,,,,1,69,0
157696,note_on,,,,,0,0,4,,,,12,65,127
157696,note_off,,,,,0,0,6,,,,1,77,0
157696,note_on,,,,,0,0,6,,,,1,53,91
157696,note_on,,,,,0,0,6,,,,1,69,91
157696,note_on,,,,,0,0,6,,,,1,72,91
157696,note_off,,,,,0,0,6,,,,1,41,0
157696,note_on,,,,,0,0,6,,,,1,53,75
157696,note_off,,,,,256,0,2,,,,2,77,0
157696,note_on,,,,,0,0,2,,,,2,72,49
157696,note_on,,,,,0,0,4,,,,12,65,127
157696,note_off,,,,,256,0,6,,,,1,53,0
157696,note_on,,,,,0,0,6,,,,1,65,91
157696,note_off,,,,,0,0,6,,,,1,65,0
157696,note_on,,,,,0,0,5,,,,3,53,75
157696,note_off,,,,,512,0,5,,,,3,41,0
157696,note_off,,,,,512,0,4,,,,12,72,0
157696,note_on,,,,,0,0,3,,,,6,72,75
157696,note_off,,,,,256,0,3,,,,6,72,0
157866,note_on,,,,,0,0,4,,,,12,69,127
157866,note_off,,,,,0,0,4,,,,12,65,0
157866,note_off,,,,,170,0,4,,,,12,65,0
158037,note_on,,,,,0,0,4,,,,12,70,127
158037,note_off,,,,,171,0,4,,,,12,69,0
158208,note_on,,,,,0,0,4,,,,12,72,127
158208,note_off,,,,,171,0,4,,,,12,70,0
158378,note_on,,,,,0,0,4,,,,12,70,127
158378,note_off,,,,,170,0,4,,,,12,72,0
158549,note_on,,,,,171,0,4,,,,12,69,127
158549,note_off,,,,,0,0,4,,,,12,70,0
158720,note_on,,,,,0,0,4,,,,12,65,127
158720,note_on,,,,,0,0,2,,,,2,69,49
158720,note_off,,,,,1024,0,2,,,,2,72,0
158720,note_on,,,,,0,0,6,,,,1,51,75
158720,note_off,,,,,0,0,6,,,,1,53,0
158720,note_off,,,,,1024,0,3,,,,6,72,0
158720,note_on,,,,,0,0,3,,,,6,65,75
158720,note_off,,,,,1024,0,6,,,,1,53,0
158720,note_off,,,,,171,0,4,,,,12,69,0
158720,note_on,,,,,0,0,5,,,,3,51,75
158720,note_off,,,,,1024,0,5,,,,3,53,0
158720,note_on,,,,,0,0,4,,,,12,65,127
158890,note_off,,,,,170,0,4,,,,12,65,0
158890,note_on,,,,,0,0,4,,,,12,69,127
158890,note_off,,,,,0,0,4,,,,12,65,0
159061,note_on,,,,,0,0,4,,,,12,70,127
159061,note_off,,,,,171,0,4,,,,12,69,0
159232,note_off,,,,,171,0,4,,,,12,70,0
159232,note_on,,,,,0,0,4,,,,12,72,127
159402,note_off,,,,,170,0,4,,,,12,72,0
159402,note_on,,,,,0,0,4,,,,12,70,127
159573,note_off,,,,,0,0,4,,,,12,70,0
159573,note_on,,,,,171,0,4,,,,12,69,127
159744,note_off,,,,,1024,0,2,,,,2,69,0
159744,note_on,,,,,0,0,6,,,,1,50,75
159744,note_on,,,,,0,0,6,,,,1,74,57
159744,note_on,,,,,0,0,6,,,,1,70,57
159744,note_on,,,,,0,0,6,,,,1,65,57
159744,note_off,,,,,171,0,4,,,,12,69,0
159744,note_off,,,,,0,0,6,,,,1,72,0
159744,note_off,,,,,0,0,6,,,,1,69,0
159744,note_off,,,,,1024,0,6,,,,1,65,0
159744,note_on,,,,,0,0,3,,,,6,65,75
159744,note_off,,,,,1024,0,3,,,,6,65,0
159744,note_off,,,,,1024,0,5,,,,3,51,0
159744,note_on,,,,,0,0,5,,,,3,50,75
159744,note_on,,,,,0,0,4,,,,12,65,127
159744,note_on,,,,,0,0,4,,,,12,65,127
159744,note_off,,,,,0,0,6,,,,1,51,0
159744,note_on,,,,,0,0,2,,,,2,70,49
159872,note_off,,,,,0,0,4,,,,12,65,0
159872,note_off,,,,,128,0,4,,,,12,65,0
159914,note_on,,,,,42,0,4,,,,12,70,127
160085,note_on,,,,,0,0,4,,,,12,72,127
160085,note_off,,,,,171,0,4,,,,12,70,0
160256,note_on,,,,,0,0,4,,,,12,74,127
160256,note_off,,,,,171,0,4,,,,12,72,0
160426,note_off,,,,,170,0,4,,,,12,74,0
160426,note_on,,,,,0,0,4,,,,12,72,127
160597,note_off,,,,,0,0,4,,,,12,72,0
160597,note_on,,,,,171,0,4,,,,12,70,127
160768,note_off,,,,,171,0,4,,,,12,70,0
160768,note_off,,,,,1024,0,5,,,,3,50,0
160768,note_on,,,,,0,0,2,,,,2,74,49
160768,note_on,,,,,0,0,4,,,,12,65,127
160768,note_off,,,,,1024,0,6,,,,1,50,0
160768,note_on,,,,,0,0,4,,,,12,65,127
160768,note_off,,,,,1024,0,3,,,,6,65,0
160768,note_on,,,,,0,0,3,,,,6,70,75
160768,note_off,,,,,1024,0,2,,,,2,70,0
160896,note_off,,,,,128,0,4,,,,12,65,0
160896,note_off,,,,,0,0,4,,,,12,65,0
160938,note_on,,,,,42,0,4,,,,12,70,127
161109,note_off,,,,,171,0,4,,,,12,70,0
161109,note_on,,,,,0,0,4,,,,12,72,127
161280,note_off,,,,,171,0,4,,,,12,72,0
161280,note_on,,,,,0,0,4,,,,12,74,127
161450,note_off,,,,,170,0,4,,,,12,74,0
161450,note_on,,,,,0,0,4,,,,12,72,127
161621,note_on,,,,,171,0,4,,,,12,70,127
161621,note_off,,,,,0,0,4,,,,12,72,0
161792,note_off,,,,,1024,0,3,,,,6,70,0
161792,note_on,,,,,0,0,3,,,,6,67,75
161792,note_on,,,,,1024,0,5,,,,3,52,75
161792,note_on,,,,,0,0,4,,,,12,64,127
161792,note_on,,,,,0,0,4,,,,12,64,127
161792,note_on,,,,,0,0,6,,,,1,71,57
161792,note_on,,,,,0,0,6,,,,1,67,57
161792,note_on,,,,,0,0,6,,,,1,64,57
161792,note_off,,,,,0,0,6,,,,1,74,0
161792,note_off,,,,,0,0,6,,,,1,70,0
161792,note_off,,,,,1024,0,6,,,,1,65,0
161792,note_off,,,,,171,0,4,,,,12,70,0
161792,note_on,,,,,0,0,2,,,,2,70,49
161792,note_off,,,,,1024,0,2,,,,2,74,0
161792,note_on,,,,,0,0,6,,,,1,52,75
161962,note_on,,,,,0,0,4,,,,12,67,127
161962,note_off,,,,,0,0,4,,,,12,64,0
161962,note_off,,,,,170,0,4,,,,12,64,0
162133,note_on,,,,,0,0,4,,,,12,69,127
162133,note_off,,,,,171,0,4,,,,12,67,0
162304,note_on,,,,,0,0,4,,,,12,70,127
162304,note_off,,,,,171,0,4,,,,12,69,0
162474,note_off,,,,,170,0,4,,,,12,70,0
162474,note_on,,,,,0,0,4,,,,12,69,127
162645,note_off,,,,,0,0,4,,,,12,69,0
162645,note_on,,,,,171,0,4,,,,12,67,127
162816,note_on,,,,,0,0,6,,,,1,50,75
162816,note_on,,,,,0,0,5,,,,3,50,75
162816,note_off,,,,,1024,0,6,,,,1,52,0
162816,note_on,,,,,0,0,4,,,,12,64,127
162816,note_on,,,,,0,0,4,,,,12,64,127
162816,note_off,,,,,1024,0,5,,,,3,52,0
162816,note_off,,,,,171,0,4,,,,12,67,0
162986,note_off,,,,,0,0,4,,,,12,64,0
162986,note_on,,,,,0,0,4,,,,12,67,127
162986,note_off,,,,,170,0,4,,,,12,64,0
163157,note_off,,,,,171,0,4,,,,12,67,0
163157,note_on,,,,,0,0,4,,,,12,69,127
163328,note_off,,,,,171,0,4,,,,12,69,0
163328,note_on,,,,,0,0,4,,,,12,70,127
163498,note_on,,,,,0,0,4,,,,12,69,127
163498,note_off,,,,,170,0,4,,,,12,70,0
163669,note_on,,,,,171,0,4,,,,12,67,127
163669,note_off,,,,,0,0,4,,,,12,69,0
163840,note_on,,,,,0,0,4,,,,12,62,127
163840,note_on,,,,,0,0,4,,,,12,62,127
163840,note_on,,,,,0,0,6,,,,1,48,75
163840,note_on,,,,,0,0,2,,,,2,69,49
163840,note_off,,,,,2048,0,2,,,,2,70,0
163840,note_off,,,,,171,0,4,,,,12,67,0
163840,note_off,,,,,0,0,6,,,,1,71,0
163840,note_off,,,,,0,0,6,,,,1,50,0
163840,note_on,,,,,0,0,3,,,,6,64,75
163840,note_off,,,,,2048,0,3,,,,6,67,0
163840,note_on,,,,,0,0,6,,,,1,64,57
163840,note_on,,,,,0,0,6,,,,1,69,57
163840,note_on,,,,,0,0,6,,,,1,72,57
163840,note_on,,,,,0,0,5,,,,3,48,75
163840,note_off,,,,,1024,0,5,,,,3,50,0
163840,note_off,,,,,0,0,6,,,,1,67,0
163840,note_off,,,,,1024,0,6,,,,1,64,0
163968,note_off,,,,,0,0,4,,,,12,62,0
163968,note_off,,,,,128,0,4,,,,12,62,0
164010,note_on,,,,,42,0,4,,,,12,69,127
164181,note_off,,,,,171,0,4,,,,12,69,0
164181,note_on,,,,,0,0,4,,,,12,70,127
164352,note_off,,,,,171,0,4,,,,12,70,0
164352,note_on,,,,,0,0,4,,,,12,72,127
164522,note_off,,,,,170,0,4,,,,12,72,0
164522,note_on,,,,,0,0,4,,,,12,70,127
164693,note_off,,,,,0,0,4,,,,12,70,0
164693,note_on,,,,,171,0,4,,,,12,69,127
164864,note_off,,,,,1024,0,6,,,,1,48,0
164864,note_on,,,,,0,0,4,,,,12,62,127
164864,note_on,,,,,0,0,2,,,,2,72,49
164864,note_off,,,,,1024,0,2,,,,2,69,0
164864,note_on,,,,,0,0,3,,,,6,69,75
164864,note_off,,,,,1024,0,3,,,,6,64,0
164864,note_off,,,,,1024,0,5,,,,3,48,0
164864,note_on,,,,,0,0,4,,,,12,62,127
164864,note_off,,,,,171,0,4,,,,12,69,0
164992,note_off,,,,,128,0,4,,,,12,62,0
164992,note_off,,,,,0,0,4,,,,12,62,0
165034,note_on,,,,,42,0,4,,,,12,69,127
165205,note_off,,,,,171,0,4,,,,12,69,0
165205,note_on,,,,,0,0,4,,,,12,70,127
165376,note_off,,,,,171,0,4,,,,12,70,0
165376,note_on,,,,,0,0,4,,,,12,72,127
165546,note_off,,,,,170,0,4,,,,12,72,0
165546,note_on,,,,,0,0,4,,,,12,70,127
165717,note_off,,,,,0,0,4,,,,12,70,0
165717,note_on,,,,,171,0,4,,,,12,69,127
165888,note_on,,,,,0,0,6,,,,1,69,57
165888,note_off,,,,,0,0,6,,,,1,69,0
165888,note_on,,,,,0,0,6,,,,1,65,57
165888,note_on,,,,,0,0,4,,,,12,62,127
165888,note_on,,,,,0,0,4,,,,12,62,127
165888,note_off,,,,,171,0,4,,,,12,69,0
165888,note_off,,,,,1024,0,6,,,,1,64,0
165888,note_off,,,,,1024,0,2,,,,2,72,0
165888,note_on,,,,,0,0,2,,,,2,69,49
165888,note_off,,,,,1024,0,3,,,,6,69,0
165888,note_on,,,,,0,0,6,,,,1,62,57
165888,note_off,,,,,0,0,6,,,,1,72,0
165888,note_on,,,,,1024,0,5,,,,3,50,75
165888,note_on,,,,,0,0,6,,,,1,50,75
165888,note_on,,,,,0,0,3,,,,6,65,75
166058,note_off,,,,,170,0,4,,,,12,62,0
166058,note_off,,,,,0,0,4,,,,12,62,0
166058,note_on,,,,,0,0,4,,,,12,65,127
166229,note_off,,,,,171,0,4,,,,12,65,0
166229,note_on,,,,,0,0,4,,,,12,67,127
166400,note_off,,,,,171,0,4,,,,12,67,0
166400,note_on,,,,,0,0,4,,,,12,69,127
166570,note_on,,,,,0,0,4,,,,12,67,127
166570,note_off,,,,,170,0,4,,,,12,69,0
166741,note_on,,,,,171,0,4,,,,12,65,127
166741,note_off,,,,,0,0,4,,,,12,67,0
166912,note_off,,,,,171,0,4,,,,12,65,0
166912,note_off,,,,,1024,0,5,,,,3,50,0
166912,note_on,,,,,0,0,5,,,,3,48,75
166912,note_off,,,,,1024,0,6,,,,1,50,0
166912,note_on,,,,,0,0,6,,,,1,48,75
166912,note_on,,,,,0,0,4,,,,12,62,127
166912,note_on,,,,,0,0,4,,,,12,62,127
167082,note_on,,,,,0,0,4,,,,12,65,127
167082,note_off,,,,,0,0,4,,,,12,62,0
167082,note_off,,,,,170,0,4,,,,12,62,0
167253,note_on,,,,,0,0,4,,,,12,67,127
167253,note_off,,,,,171,0,4,,,,12,65,0
167424,note_on,,,,,0,0,4,,,,12,69,127
167424,note_off,,,,,171,0,4,,,,12,67,0
167594,note_off,,,,,170,0,4,,,,12,69,0
167594,note_on,,,,,0,0,4,,,,12,67,127
167765,note_on,,,,,171,0,4,,,,12,65,127
167765,note_off,,,,,0,0,4,,,,12,67,0
167936,note_off,,,,,1024,0,5,,,,3,48,0
167936,note_on,,,,,0,0,5,,,,3,46,75
167936,note_on,,,,,0,0,6,,,,1,62,57
167936,note_off,,,,,0,0,6,,,,1,69,0
167936,note_off,,,,,0,0,6,,,,1,48,0
167936,note_off,,,,,2048,0,2,,,,2,69,0
167936,note_on,,,,,0,0,2,,,,2,67,49
167936,note_on,,,,,0,0,6,,,,1,46,75
167936,note_on,,,,,0,0,6,,,,1,70,57
167936,note_off,,,,,0,0,6,,,,1,65,0
167936,note_on,,,,,0,0,6,,,,1,67,57
167936,note_off,,,,,1024,0,6,,,,1,62,0
167936,note_off,,,,,2048,0,3,,,,6,65,0
167936,note_on,,,,,0,0,3,,,,6,62,75
167936,note_on,,,,,0,0,4,,,,12,62,127
167936,note_off,,,,,171,0,4,,,,12,65,0
167936,note_on,,,,,0,0,4,,,,12,62,127
168064,note_off,,,,,0,0,4,,,,12,62,0
168064,note_off,,,,,128,0,4,,,,12,62,0
168106,note_on,,,,,42,0,4,,,,12,67,127
168234,note_off,,,,,128,0,4,,,,12,67,0
168277,note_on,,,,,43,0,4,,,,12,69,127
168448,note_on,,,,,0,0,4,,,,12,70,127
168448,note_off,,,,,171,0,4,,,,12,69,0
168618,note_on,,,,,0,0,4,,,,12,69,127
168618,note_off,,,,,170,0,4,,,,12,70,0
168789,note_off,,,,,0,0,4,,,,12,69,0
168789,note_on,,,,,171,0,4,,,,12,67,127
168960,note_off,,,,,1024,0,2,,,,2,67,0
168960,note_off,,,,,1024,0,5,,,,3,46,0
168960,note_on,,,,,0,0,4,,,,12,62,127
168960,note_on,,,,,0,0,4,,,,12,62,127
168960,note_off,,,,,171,0,4,,,,12,67,0
168960,note_off,,,,,1024,0,3,,,,6,62,0
168960,note_on,,,,,0,0,3,,,,6,67,75
168960,note_on,,,,,0,0,2,,,,2,70,49
168960,note_off,,,,,1024,0,6,,,,1,46,0
169088,note_off,,,,,128,0,4,,,,12,62,0
169088,note_off,,,,,0,0,4,,,,12,62,0
169130,note_on,,,,,42,0,4,,,,12,67,127
169301,note_on,,,,,0,0,4,,,,12,69,127
169301,note_off,,,,,171,0,4,,,,12,67,0
169472,note_on,,,,,0,0,4,,,,12,70,127
169472,note_off,,,,,171,0,4,,,,12,69,0
169642,note_off,,,,,170,0,4,,,,12,70,0
169642,note_on,,,,,0,0,4,,,,12,69,127
169813,note_on,,,,,171,0,4,,,,12,67,127
169813,note_off,,,,,0,0,4,,,,12,69,0
169984,note_on,,,,,1024,0,5,,,,3,48,75
169984,note_off,,,,,1024,0,6,,,,1,62,0
169984,note_off,,,,,171,0,4,,,,12,67,0
169984,note_on,,,,,0,0,4,,,,12,60,127
169984,note_off,,,,,1024,0,2,,,,2,70,0
169984,note_on,,,,,0,0,3,,,,6,64,75
169984,note_off,,,,,0,0,6,,,,1,67,0
169984,note_off,,,,,0,0,6,,,,1,70,0
169984,note_on,,,,,0,0,6,,,,1,60,57
169984,note_on,,,,,0,0,6,,,,1,64,57
169984,note_on,,,,,0,0,6,,,,1,67,57
169984,note_on,,,,,0,0,6,,,,1,48,75
169984,note_off,,,,,1024,0,3,,,,6,67,0
169984,note_on,,,,,0,0,2,,,,2,67,49
170154,note_on,,,,,0,0,4,,,,12,62,127
170154,note_off,,,,,170,0,4,,,,12,60,0
170325,note_on,,,,,0,0,4,,,,12,64,127
170325,note_off,,,,,171,0,4,,,,12,62,0
170496,note_off,,,,,0,0,6,,,,1,64,0
170496,note_on,,,,,0,0,4,,,,12,64,127
170496,note_off,,,,,171,0,4,,,,12,64,0
170496,note_on,,,,,0,0,6,,,,1,64,57
170496,note_off,,,,,0,0,6,,,,1,67,0
170496,note_on,,,,,0,0,6,,,,1,60,57
170496,note_off,,,,,512,0,6,,,,1,60,0
170496,note_on,,,,,0,0,6,,,,1,67,57
170496,note_on,,,,,0,0,6,,,,1,36,75
170496,note_off,,,,,512,0,2,,,,2,67,0
170496,note_on,,,,,0,0,2,,,,2,67,49
170496,note_on,,,,,0,0,3,,,,6,64,75
170496,note_off,,,,,512,0,3,,,,6,64,0
170496,note_off,,,,,512,0,5,,,,3,48,0
170496,note_on,,,,,0,0,5,,,,3,36,75
170496,note_off,,,,,0,0,6,,,,1,48,0
170666,note_off,,,,,170,0,4,,,,12,64,0
170666,note_on,,,,,0,0,4,,,,12,65,127
170837,note_on,,,,,0,0,4,,,,12,67,127
170837,note_off,,,,,171,0,4,,,,12,65,0
171008,note_off,,,,,0,0,6,,,,1,67,0
171008,note_on,,,,,0,0,3,,,,6,67,75
171008,note_off,,,,,512,0,3,,,,6,64,0
171008,note_off,,,,,512,0,2,,,,2,67,0
171008,note_on,,,,,0,0,2,,,,2,72,49
171008,note_off,,,,,512,0,6,,,,1,60,0
171008,note_on,,,,,0,0,4,,,,12,67,127
171008,note_off,,,,,171,0,4,,,,12,67,0
171008,note_off,,,,,0,0,6,,,,1,64,0
171008,note_on,,,,,0,0,5,,,,3,48,75
171008,note_on,,,,,0,0,6,,,,1,60,57
171008,note_off,,,,,512,0,5,,,,3,36,0
171008,note_on,,,,,0,0,6,,,,1,48,75
171008,note_on,,,,,0,0,6,,,,1,67,57
171008,note_on,,,,,0,0,6,,,,1,64,57
171008,note_off,,,,,0,0,6,,,,1,36,0
171178,note_on,,,,,0,0,4,,,,12,69,127
171178,note_off,,,,,170,0,4,,,,12,67,0
171349,note_off,,,,,171,0,4,,,,12,69,0
171349,note_on,,,,,0,0,4,,,,12,70,127
171477,note_off,,,,,128,0,4,,,,12,70,0
171520,note_off,,,,,512,0,6,,,,1,60,0
171520,note_off,,,,,0,0,6,,,,1,67,0
171520,note_on,,,,,0,0,6,,,,1,67,57
171520,note_off,,,,,0,0,6,,,,1,64,0
171520,note_on,,,,,0,0,6,,,,1,60,57
171520,note_on,,,,,0,0,6,,,,1,64,57
171520,note_on,,,,,0,0,6,,,,1,36,75
171520,note_off,,,,,512,0,5,,,,3,48,0
171520,note_on,,,,,0,0,2,,,,2,72,49
171520,note_off,,,,,512,0,3,,,,6,67,0
171520,note_on,,,,,0,0,3,,,,6,67,75
171520,note_on,,,,,0,0,5,,,,3,36,75
171520,note_on,,,,,43,0,4,,,,12,70,127
171520,note_off,,,,,512,0,2,,,,2,72,0
171520,note_off,,,,,0,0,6,,,,1,48,0
171690,note_on,,,,,0,0,4,,,,12,72,127
171690,note_off,,,,,170,0,4,,,,12,70,0
171861,note_off,,,,,171,0,4,,,,12,72,0
171861,note_on,,,,,0,0,4,,,,12,74,127
172032,note_off,,,,,512,0,6,,,,1,60,0
172032,note_on,,,,,0,0,3,,,,6,72,75
172032,note_on,,,,,0,0,2,,,,2,76,49
172032,note_off,,,,,512,0,2,,,,2,72,0
172032,note_off,,,,,512,0,3,,,,6,67,0
172032,note_on,,,,,0,0,6,,,,1,71,51
172032,note_off,,,,,512,0,5,,,,3,36,0
172032,note_off,,,,,0,0,6,,,,1,64,0
172032,note_off,,,,,0,0,6,,,,1,67,0
172032,note_off,,,,,0,0,6,,,,1,36,0
172032,note_on,,,,,0,0,6,,,,1,60,51
172032,note_on,,,,,0,0,6,,,,1,64,51
172032,note_on,,,,,0,0,6,,,,1,48,75
172032,note_off,,,,,171,0,4,,,,12,74,0
172032,note_on,,,,,0,0,4,,,,12,76,127
172032,note_on,,,,,0,0,5,,,,3,48,75
172202,note_on,,,,,0,0,4,,,,12,77,127
172202,note_off,,,,,170,0,4,,,,12,76,0
172373,note_off,,,,,171,0,4,,,,12,77,0
172373,note_on,,,,,0,0,4,,,,12,79,127
172544,note_off,,,,,0,0,6,,,,1,64,0
172544,note_off,,,,,0,0,6,,,,1,71,0
172544,note_on,,,,,0,0,6,,,,1,60,59
172544,note_on,,,,,0,0,6,,,,1,64,59
172544,note_on,,,,,0,0,6,,,,1,71,59
172544,note_off,,,,,0,0,6,,,,1,48,0
172544,note_on,,,,,0,0,6,,,,1,36,75
172544,note_off,,,,,512,0,6,,,,1,60,0
172544,note_on,,,,,0,0,2,,,,2,76,49
172544,note_on,,,,,0,0,4,,,,12,79,127
172544,note_off,,,,,171,0,4,,,,12,79,0
172544,note_on,,,,,0,0,3,,,,6,72,75
172544,note_off,,,,,512,0,3,,,,6,72,0
172544,note_off,,,,,512,0,5,,,,3,48,0
172544,note_on,,,,,0,0,5,,,,3,36,75
172544,note_off,,,,,512,0,2,,,,2,76,0
172714,note_on,,,,,0,0,4,,,,12,81,127
172714,note_off,,,,,170,0,4,,,,12,79,0
172885,note_on,,,,,0,0,4,,,,12,82,127
172885,note_off,,,,,171,0,4,,,,12,81,0
173056,note_off,,,,,0,0,6,,,,1,64,0
173056,note_off,,,,,171,0,4,,,,12,82,0
173056,note_on,,,,,0,0,4,,,,12,82,127
173056,note_off,,,,,512,0,2,,,,2,76,0
173056,note_on,,,,,0,0,2,,,,2,72,49
173056,note_on,,,,,0,0,3,,,,6,67,75
173056,note_off,,,,,0,0,6,,,,1,71,0
173056,note_on,,,,,0,0,6,,,,1,48,75
173056,note_off,,,,,0,0,6,,,,1,36,0
173056,note_on,,,,,0,0,6,,,,1,72,66
173056,note_off,,,,,512,0,3,,,,6,72,0
173056,note_on,,,,,0,0,6,,,,1,71,66
173056,note_off,,,,,512,0,6,,,,1,60,0
173056,note_off,,,,,512,0,5,,,,3,36,0
173056,note_on,,,,,0,0,5,,,,3,48,75
173056,note_on,,,,,0,0,6,,,,1,64,66
173226,note_on,,,,,0,0,4,,,,12,81,127
173226,note_off,,,,,170,0,4,,,,12,82,0
173397,note_off,,,,,0,0,4,,,,12,81,0
173397,note_on,,,,,171,0,4,,,,12,79,127
173568,note_on,,,,,0,0,5,,,,3,36,75
173568,note_on,,,,,0,0,6,,,,1,64,74
173568,note_off,,,,,512,0,3,,,,6,67,0
173568,note_on,,,,,0,0,3,,,,6,67,75
173568,note_off,,,,,0,0,6,,,,1,71,0
173568,note_on,,,,,0,0,6,,,,1,36,75
173568,note_off,,,,,0,0,6,,,,1,48,0
173568,note_on,,,,,0,0,6,,,,1,72,74
173568,note_off,,,,,512,0,5,,,,3,48,0
173568,note_off,,,,,512,0,6,,,,1,64,0
173568,note_off,,,,,0,0,6,,,,1,72,0
173568,note_on,,,,,0,0,6,,,,1,71,74
173568,note_on,,,,,0,0,4,,,,12,79,127
173568,note_on,,,,,0,0,2,,,,2,72,49
173568,note_off,,,,,512,0,2,,,,2,72,0
173568,note_off,,,,,171,0,4,,,,12,79,0
173738,note_off,,,,,170,0,4,,,,12,79,0
173738,note_on,,,,,0,0,4,,,,12,77,127
173909,note_off,,,,,0,0,4,,,,12,77,0
173909,note_on,,,,,171,0,4,,,,12,76,127
174080,note_on,,,,,0,0,5,,,,3,41,75
174080,note_off,,,,,512,0,5,,,,3,36,0
174080,note_on,,,,,0,0,6,,,,1,41,75
174080,note_off,,,,,0,0,6,,,,1,36,0
174080,note_on,,,,,0,0,6,,,,1,72,81
174080,note_on,,,,,0,0,6,,,,1,69,81
174080,note_on,,,,,0,0,4,,,,12,81,127
174080,note_off,,,,,512,0,3,,,,6,67,0
174080,note_on,,,,,0,0,6,,,,1,65,81
174080,note_off,,,,,171,0,4,,,,12,76,0
174080,note_off,,,,,512,0,2,,,,2,72,0
174080,note_on,,,,,0,0,6,,,,1,53,91
174080,note_off,,,,,0,0,6,,,,1,72,0
174080,note_off,,,,,0,0,6,,,,1,71,0
174080,note_off,,,,,512,0,6,,,,1,64,0
174080,note_on,,,,,0,0,2,,,,2,72,49
174080,note_on,,,,,0,0,3,,,,6,69,75
174336,note_on,,,,,0,0,6,,,,1,72,85
174336,note_on,,,,,0,0,6,,,,1,69,85
174336,note_off,,,,,256,0,3,,,,6,69,0
174336,note_off,,,,,256,0,2,,,,2,72,0
174336,note_on,,,,,0,0,2,,,,2,72,49
174336,note_on,,,,,0,0,3,,,,6,69,75
174336,note_off,,,,,256,0,6,,,,1,69,0
174336,note_off,,,,,0,0,6,,,,1,72,0
174592,note_on,,,,,0,0,6,,,,1,41,75
174592,note_off,,,,,256,0,6,,,,1,53,0
174592,note_off,,,,,0,0,6,,,,1,65,0
174592,note_on,,,,,0,0,6,,,,1,53,91
174592,note_on,,,,,0,0,6,,,,1,65,89
174592,note_off,,,,,0,0,6,,,,1,41,0
174592,note_off,,,,,512,0,5,,,,3,41,0
174592,note_off,,,,,512,0,4,,,,12,81,0
174592,note_on,,,,,0,0,4,,,,12,77,127
174592,note_on,,,,,0,0,5,,,,3,41,75
174848,note_on,,,,,0,0,3,,,,6,72,75
174848,note_off,,,,,512,0,3,,,,6,69,0
174848,note_off,,,,,512,0,2,,,,2,72,0
174848,note_off,,,,,256,0,6,,,,1,69,0
174848,note_off,,,,,0,0,6,,,,1,72,0
174848,note_on,,,,,0,0,2,,,,2,77,49
174848,note_on,,,,,0,0,6,,,,1,77,92
175104,note_on,,,,,0,0,6,,,,1,65,96
175104,note_off,,,,,256,0,3,,,,6,72,0
175104,note_on,,,,,0,0,6,,,,1,53,91
175104,note_off,,,,,0,0,6,,,,1,77,0
175104,note_off,,,,,0,0,6,,,,1,65,0
175104,note_off,,,,,256,0,2,,,,2,77,0
175104,note_on,,,,,0,0,6,,,,1,69,96
175104,note_on,,,,,0,0,5,,,,3,41,75
175104,note_off,,,,,512,0,5,,,,3,41,0
175104,note_on,,,,,0,0,2,,,,2,72,49
175104,note_off,,,,,256,0,6,,,,1,53,0
175104,note_on,,,,,0,0,6,,,,1,72,96
175104,note_on,,,,,0,0,3,,,,6,69,75
175104,note_on,,,,,0,0,6,,,,1,41,75
175104,note_off,,,,,0,0,6,,,,1,41,0
175136,note_off,,,,,544,0,4,,,,12,77,0
175360,note_off,,,,,256,0,6,,,,1,69,0
175360,note_off,,,,,0,0,6,,,,1,72,0
175360,note_on,,,,,0,0,6,,,,1,69,100
175360,note_on,,,,,0,0,6,,,,1,72,100
175360,note_on,,,,,0,0,2,,,,2,72,49
175360,note_off,,,,,256,0,2,,,,2,72,0
175360,note_on,,,,,0,0,3,,,,6,69,75
175360,note_off,,,,,256,0,3,,,,6,69,0
175616,note_on,,,,,480,0,4,,,,12,72,127
175616,note_on,,,,,0,0,6,,,,1,65,104
175616,note_on,,,,,0,0,5,,,,3,41,75
175616,note_on,,,,,0,0,6,,,,1,41,75
175616,note_off,,,,,0,0,6,,,,1,41,0
175616,note_on,,,,,0,0,6,,,,1,53,91
175616,note_off,,,,,0,0,6,,,,1,65,0
175616,note_off,,,,,256,0,6,,,,1,53,0
175616,note_off,,,,,512,0,5,,,,3,41,0
175872,note_off,,,,,0,0,6,,,,1,72,0
175872,note_off,,,,,256,0,6,,,,1,69,0
175872,note_off,,,,,512,0,2,,,,2,72,0
175872,note_on,,,,,0,0,2,,,,2,77,49
175872,note_off,,,,,512,0,3,,,,6,69,0
175872,note_on,,,,,0,0,3,,,,6,72,75
175872,note_on,,,,,0,0,6,,,,1,77,107
176128,note_off,,,,,256,0,3,,,,6,72,0
176128,note_on,,,,,0,0,3,,,,6,69,75
176128,note_on,,,,,0,0,6,,,,1,72,91
176128,note_on,,,,,0,0,4,,,,12,77,127
176128,note_on,,,,,0,0,2,,,,2,72,49
176128,note_off,,,,,256,0,2,,,,2,77,0
176128,note_on,,,,,0,0,6,,,,1,41,75
176128,note_on,,,,,0,0,5,,,,3,41,75
176128,note_off,,,,,256,0,6,,,,1,53,0
176128,note_off,,,,,0,0,6,,,,1,65,0
176128,note_off,,,,,0,0,6,,,,1,77,0
176128,note_off,,,,,0,0,6,,,,1,41,0
176128,note_on,,,,,0,0,6,,,,1,53,91
176128,note_on,,,,,0,0,6,,,,1,65,91
176128,note_on,,,,,0,0,6,,,,1,69,91
176128,note_off,,,,,512,0,4,,,,12,72,0
176128,note_off,,,,,512,0,5,,,,3,41,0
176256,note_off,,,,,128,0,4,,,,12,77,0
176256,note_on,,,,,0,0,4,,,,12,79,127
176384,note_on,,,,,0,0,4,,,,12,81,127
176384,note_off,,,,,128,0,4,,,,12,79,0
176640,note_off,,,,,512,0,6,,,,1,53,0
176640,note_on,,,,,0,0,6,,,,1,53,91
176640,note_off,,,,,0,0,6,,,,1,41,0
176640,note_on,,,,,0,0,6,,,,1,41,75
176640,note_off,,,,,512,0,5,,,,3,41,0
176640,note_on,,,,,0,0,5,,,,3,41,75
177152,note_off,,,,,1024,0,2,,,,2,72,0
177152,note_on,,,,,0,0,2,,,,2,69,49
177152,note_on,,,,,0,0,6,,,,1,41,75
177152,note_off,,,,,512,0,6,,,,1,53,0
177152,note_on,,,,,0,0,6,,,,1,53,91
177152,note_off,,,,,0,0,6,,,,1,41,0
177152,note_off,,,,,512,0,5,,,,3,41,0
177152,note_off,,,,,1024,0,3,,,,6,69,0
177152,note_on,,,,,0,0,3,,,,6,65,75
177152,note_on,,,,,0,0,4,,,,12,81,127
177152,note_off,,,,,768,0,4,,,,12,81,0
177152,note_on,,,,,0,0,5,,,,3,41,75
177408,note_on,,,,,0,0,4,,,,12,79,127
177408,note_off,,,,,256,0,4,,,,12,81,0
177536,note_on,,,,,0,0,4,,,,12,77,127
177536,note_off,,,,,128,0,4,,,,12,79,0
177664,note_off,,,,,512,0,2,,,,2,69,0
177664,note_off,,,,,512,0,3,,,,6,65,0
177664,note_on,,,,,0,0,2,,,,2,67,49
177664,note_off,,,,,0,0,6,,,,1,41,0
177664,note_on,,,,,0,0,6,,,,1,72,91
177664,note_on,,,,,0,0,6,,,,1,67,91
177664,note_on,,,,,0,0,6,,,,1,64,91
177664,note_off,,,,,0,0,6,,,,1,53,0
177664,note_off,,,,,0,0,6,,,,1,69,0
177664,note_off,,,,,512,0,6,,,,1,65,0
177664,note_on,,,,,0,0,5,,,,3,48,75
177664,note_off,,,,,512,0,5,,,,3,41,0
177664,note_on,,,,,0,0,6,,,,1,48,75
177664,note_off,,,,,0,0,6,,,,1,72,0
177664,note_on,,,,,0,0,3,,,,6,64,75
177664,note_on,,,,,128,0,4,,,,12,76,127
177664,note_off,,,,,0,0,4,,,,12,77,0
177792,note_on,,,,,0,0,4,,,,12,74,127
177792,note_off,,,,,128,0,4,,,,12,76,0
177920,note_off,,,,,0,0,4,,,,12,74,0
177920,note_on,,,,,128,0,4,,,,12,72,127
178048,note_off,,,,,128,0,4,,,,12,72,0
178048,note_on,,,,,0,0,4,,,,12,70,127
178176,note_off,,,,,512,0,2,,,,2,67,0
178176,note_on,,,,,0,0,3,,,,6,65,75
178176,note_off,,,,,512,0,3,,,,6,64,0
178176,note_off,,,,,512,0,6,,,,1,64,0
178176,note_off,,,,,0,0,6,,,,1,67,0
178176,note_off,,,,,0,0,6,,,,1,72,0
178176,note_on,,,,,128,0,4,,,,12,69,127
178176,note_on,,,,,0,0,6,,,,1,60,91
178176,note_on,,,,,0,0,6,,,,1,53,91
178176,note_on,,,,,0,0,6,,,,1,69,91
178176,note_off,,,,,0,0,6,,,,1,48,0
178176,note_on,,,,,0,0,6,,,,1,53,75
178176,note_on,,,,,0,0,5,,,,3,53,75
178176,note_off,,,,,512,0,5,,,,3,48,0
178176,note_on,,,,,0,0,2,,,,2,69,49
178176,note_on,,,,,0,0,6,,,,1,65,91
178176,note_off,,,,,0,0,4,,,,12,70,0
178688,note_off,,,,,512,0,5,,,,3,53,0
178688,note_on,,,,,0,0,5,,,,3,50,75
178688,note_off,,,,,512,0,3,,,,6,65,0
178688,note_on,,,,,0,0,3,,,,6,65,75
178688,note_off,,,,,0,0,6,,,,1,65,0
178688,note_on,,,,,0,0,6,,,,1,62,91
178688,note_on,,,,,0,0,6,,,,1,50,75
178688,note_on,,,,,0,0,6,,,,1,65,91
178688,note_on,,,,,0,0,6,,,,1,69,91
178688,note_off,,,,,0,0,6,,,,1,53,0
178688,note_off,,,,,512,0,6,,,,1,53,0
178688,note_off,,,,,0,0,6,,,,1,60,0
178688,note_on,,,,,0,0,2,,,,2,69,49
178688,note_off,,,,,512,0,2,,,,2,69,0
178688,note_off,,,,,0,0,6,,,,1,69,0
178944,note_on,,,,,0,0,4,,,,12,67,127
178944,note_off,,,,,768,0,4,,,,12,69,0
179072,note_off,,,,,128,0,4,,,,12,67,0
179072,note_on,,,,,0,0,4,,,,12,65,127
179200,note_on,,,,,0,0,6,,,,1,46,75
179200,note_off,,,,,0,0,6,,,,1,50,0
179200,note_on,,,,,0,0,6,,,,1,67,91
179200,note_off,,,,,512,0,6,,,,1,69,0
179200,note_off,,,,,512,0,3,,,,6,65,0
179200,note_on,,,,,0,0,3,,,,6,62,75
179200,note_on,,,,,0,0,5,,,,3,46,75
179200,note_off,,,,,512,0,5,,,,3,50,0
179200,note_on,,,,,0,0,2,,,,2,67,49
179200,note_off,,,,,512,0,2,,,,2,69,0
179200,note_off,,,,,128,0,4,,,,12,65,0
179200,note_on,,,,,0,0,4,,,,12,69,127
179328,note_off,,,,,128,0,4,,,,12,69,0
179328,note_on,,,,,0,0,4,,,,12,67,127
179456,note_off,,,,,128,0,4,,,,12,67,0
179456,note_on,,,,,0,0,4,,,,12,69,127
179520,note_on,,,,,64,0,4,,,,12,67,127
179520,note_off,,,,,0,0,4,,,,12,69,0
179584,note_off,,,,,64,0,4,,,,12,67,0
179584,note_on,,,,,0,0,4,,,,12,69,127
179648,note_on,,,,,64,0,4,,,,12,67,127
179648,note_off,,,,,0,0,4,,,,12,69,0
179712,note_on,,,,,0,0,2,,,,2,67,49
179712,note_off,,,,,64,0,4,,,,12,67,0
179712,note_on,,,,,0,0,4,,,,12,69,127
179712,note_off,,,,,0,0,6,,,,1,65,0
179712,note_on,,,,,0,0,6,,,,1,60,91
179712,note_off,,,,,512,0,2,,,,2,67,0
179712,note_off,,,,,512,0,6,,,,1,62,0
179712,note_on,,,,,0,0,6,,,,1,64,91
179712,note_off,,,,,0,0,6,,,,1,46,0
179712,note_off,,,,,512,0,5,,,,3,46,0
179712,note_on,,,,,0,0,5,,,,3,48,75
179712,note_on,,,,,0,0,6,,,,1,48,75
179712,note_off,,,,,512,0,3,,,,6,62,0
179712,note_on,,,,,0,0,3,,,,6,64,75
179840,note_off,,,,,128,0,4,,,,12,69,0
179840,note_on,,,,,0,0,4,,,,12,67,127
180224,note_on,,,,,0,0,6,,,,1,60,127
180224,note_off,,,,,512,0,6,,,,1,67,0
180224,note_off,,,,,0,0,6,,,,1,60,0
180224,note_on,,,,,0,0,3,,,,6,60,101
180224,note_on,,,,,0,0,5,,,,3,41,75
180224,note_off,,,,,512,0,3,,,,6,64,0
180224,note_off,,,,,0,0,6,,,,1,48,0
180224,note_off,,,,,512,0,5,,,,3,48,0
180224,note_off,,,,,0,0,6,,,,1,64,0
180224,note_on,,,,,0,0,6,,,,1,53,127
180224,note_off,,,,,512,0,2,,,,2,67,0
180224,note_on,,,,,0,0,6,,,,1,69,127
180224,note_on,,,,,0,0,6,,,,1,41,114
180224,note_on,,,,,384,0,4,,,,12,65,127
180224,note_on,,,,,0,0,2,,,,2,65,49
180352,note_off,,,,,128,0,4,,,,12,67,0
180394,note_off,,,,,170,0,6,,,,1,69,0
180394,note_on,,,,,0,0,6,,,,1,67,127
180565,note_on,,,,,171,0,6,,,,1,65,127
180565,note_off,,,,,0,0,6,,,,1,67,0
180736,note_off,,,,,0,0,6,,,,1,41,0
180736,note_off,,,,,171,0,6,,,,1,53,0
180736,note_on,,,,,0,0,6,,,,1,72,127
180736,note_on,,,,,0,0,6,,,,1,57,127
180736,note_off,,,,,0,0,6,,,,1,65,0
180736,note_on,,,,,0,0,6,,,,1,53,127
180736,note_on,,,,,0,0,6,,,,1,41,114
180736,note_off,,,,,512,0,2,,,,2,65,0
180736,note_off,,,,,512,0,3,,,,6,60,0
180736,note_off,,,,,512,0,5,,,,3,41,0
180736,note_on,,,,,0,0,5,,,,3,41,75
180736,note_on,,,,,0,0,2,,,,2,72,101
180906,note_on,,,,,0,0,6,,,,1,70,127
180906,note_off,,,,,170,0,6,,,,1,72,0
180907,note_off,,,,,171,0,2,,,,2,72,0
180907,note_on,,,,,0,0,2,,,,2,70,101
181077,note_off,,,,,0,0,6,,,,1,70,0
181077,note_off,,,,,170,0,2,,,,2,70,0
181077,note_on,,,,,171,0,6,,,,1,69,127
181077,note_on,,,,,0,0,2,,,,2,69,101
181248,note_off,,,,,171,0,2,,,,2,69,0
181248,note_on,,,,,0,0,6,,,,1,41,114
181248,note_off,,,,,0,0,6,,,,1,41,0
181248,note_on,,,,,0,0,6,,,,1,77,127
181248,note_on,,,,,0,0,6,,,,1,72,127
181248,note_on,,,,,0,0,6,,,,1,69,127
181248,note_on,,,,,0,0,6,,,,1,53,127
181248,note_off,,,,,0,0,6,,,,1,69,0
181248,note_off,,,,,0,0,6,,,,1,57,0
181248,note_off,,,,,0,0,6,,,,1,53,0
181248,note_off,,,,,171,0,6,,,,1,60,0
181248,note_off,,,,,512,0,5,,,,3,41,0
181248,note_off,,,,,896,0,4,,,,12,65,0
181248,note_on,,,,,0,0,5,,,,3,41,75
181248,note_on,,,,,0,0,2,,,,2,77,101
181248,note_on,,,,,512,0,3,,,,6,69,101
181760,note_on,,,,,0,0,6,,,,1,53,127
181760,note_on,,,,,0,0,6,,,,1,69,127
181760,note_off,,,,,0,0,6,,,,1,77,0
181760,note_on,,,,,0,0,6,,,,1,65,127
181760,note_off,,,,,0,0,6,,,,1,72,0
181760,note_off,,,,,512,0,3,,,,6,69,0
181760,note_off,,,,,512,0,6,,,,1,53,0
181760,note_on,,,,,0,0,3,,,,6,69,101
181760,note_off,,,,,512,0,5,,,,3,41,0
181760,note_on,,,,,0,0,6,,,,1,72,127
181760,note_off,,,,,0,0,6,,,,1,69,0
181760,note_off,,,,,0,0,6,,,,1,41,0
181760,note_on,,,,,0,0,5,,,,3,41,75
181760,note_on,,,,,0,0,6,,,,1,41,114
181760,note_off,,,,,512,0,2,,,,2,77,0
181760,note_on,,,,,0,0,2,,,,2,72,101
182272,note_off,,,,,512,0,5,,,,3,41,0
182272,note_off,,,,,512,0,2,,,,2,72,0
182272,note_on,,,,,0,0,2,,,,2,76,101
182272,note_on,,,,,0,0,3,,,,6,70,101
182272,note_off,,,,,512,0,3,,,,6,69,0
182272,note_on,,,,,0,0,5,,,,3,46,75
182272,note_off,,,,,512,0,6,,,,1,53,0
182272,note_off,,,,,0,0,6,,,,1,41,0
182272,note_on,,,,,0,0,6,,,,1,74,127
182272,note_on,,,,,0,0,6,,,,1,70,127
182272,note_on,,,,,0,0,6,,,,1,65,127
182272,note_on,,,,,0,0,6,,,,1,58,127
182272,note_off,,,,,0,0,6,,,,1,72,0
182272,note_off,,,,,0,0,6,,,,1,69,0
182272,note_off,,,,,0,0,6,,,,1,65,0
182272,note_on,,,,,0,0,6,,,,1,46,114
182400,note_on,,,,,0,0,2,,,,2,74,101
182400,note_off,,,,,128,0,2,,,,2,76,0
182528,note_on,,,,,0,0,2,,,,2,76,101
182528,note_off,,,,,128,0,2,,,,2,74,0
182656,note_off,,,,,128,0,2,,,,2,76,0
182656,note_on,,,,,0,0,2,,,,2,74,101
182784,note_on,,,,,0,0,6,,,,1,65,127
182784,note_on,,,,,0,0,2,,,,2,72,101
182784,note_on,,,,,0,0,6,,,,1,69,127
182784,note_on,,,,,0,0,6,,,,1,72,127
182784,note_off,,,,,0,0,6,,,,1,46,0
182784,note_on,,,,,0,0,6,,,,1,41,114
182784,note_on,,,,,0,0,3,,,,6,69,101
182784,note_off,,,,,512,0,3,,,,6,70,0
182784,note_off,,,,,0,0,6,,,,1,70,0
182784,note_off,,,,,0,0,6,,,,1,65,0
182784,note_off,,,,,128,0,2,,,,2,74,0
182784,note_off,,,,,512,0,6,,,,1,58,0
182784,note_off,,,,,512,0,5,,,,3,46,0
182784,note_on,,,,,0,0,5,,,,3,41,75
182784,note_on,,,,,0,0,6,,,,1,53,127
182784,note_off,,,,,0,0,6,,,,1,74,0
183296,note_off,,,,,512,0,6,,,,1,53,0
183296,note_off,,,,,512,0,5,,,,3,41,0
183296,note_on,,,,,0,0,5,,,,3,45,75
183296,note_off,,,,,0,0,6,,,,1,69,0
183296,note_off,,,,,0,0,6,,,,1,65,0
183296,note_off,,,,,512,0,2,,,,2,72,0
183296,note_on,,,,,0,0,3,,,,6,60,101
183296,note_off,,,,,512,0,3,,,,6,69,0
183296,note_on,,,,,0,0,6,,,,1,45,114
183296,note_off,,,,,0,0,6,,,,1,41,0
183296,note_on,,,,,0,0,6,,,,1,60,127
183296,note_on,,,,,0,0,6,,,,1,57,127
183296,note_off,,,,,0,0,6,,,,1,72,0
183808,note_off,,,,,512,0,5,,,,3,45,0
183808,note_off,,,,,512,0,3,,,,6,60,0
183808,note_on,,,,,512,0,2,,,,2,65,101
183808,note_on,,,,,0,0,3,,,,6,57,101
183808,note_on,,,,,0,0,5,,,,3,41,75
183808,note_on,,,,,0,0,6,,,,1,65,127
183808,note_on,,,,,0,0,6,,,,1,53,127
183808,note_on,,,,,0,0,6,,,,1,57,127
183808,note_on,,,,,0,0,6,,,,1,60,127
183808,note_off,,,,,0,0,6,,,,1,45,0
183808,note_on,,,,,0,0,6,,,,1,41,114
183808,note_off,,,,,512,0,6,,,,1,57,0
183808,note_off,,,,,0,0,6,,,,1,60,0
184320,note_off,,,,,0,0,6,,,,1,65,0
184320,note_off,,,,,512,0,5,,,,3,41,0
184320,note_off,,,,,0,0,6,,,,1,57,0
184320,note_off,,,,,512,0,6,,,,1,53,0
184320,note_on,,,,,0,0,2,,,,2,69,101
184320,note_off,,,,,512,0,2,,,,2,65,0
184320,note_on,,,,,0,0,6,,,,1,60,127
184320,note_on,,,,,0,0,6,,,,1,53,127
184320,note_off,,,,,0,0,6,,,,1,41,0
184320,note_off,,,,,512,0,3,,,,6,57,0
184320,note_off,,,,,0,0,6,,,,1,60,0
184320,note_on,,,,,0,0,5,,,,3,41,75
184320,note_on,,,,,0,0,3,,,,6,60,101
184320,note_on,,,,,0,0,6,,,,1,69,127
184320,note_on,,,,,0,0,6,,,,1,41,114
184490,note_off,,,,,170,0,6,,,,1,69,0
184490,note_on,,,,,0,0,6,,,,1,67,127
184491,note_off,,,,,171,0,2,,,,2,69,0
184491,note_on,,,,,0,0,2,,,,2,67,101
184661,note_on,,,,,171,0,6,,,,1,65,127
184661,note_off,,,,,0,0,6,,,,1,67,0
184661,note_off,,,,,170,0,2,,,,2,67,0
184661,note_on,,,,,0,0,2,,,,2,65,101
184832,note_on,,,,,0,0,6,,,,1,72,127
184832,note_off,,,,,171,0,2,,,,2,65,0
184832,note_on,,,,,0,0,6,,,,1,53,127
184832,note_on,,,,,0,0,6,,,,1,41,114
184832,note_off,,,,,512,0,5,,,,3,41,0
184832,note_off,,,,,0,0,6,,,,1,41,0
184832,note_off,,,,,0,0,6,,,,1,65,0
184832,note_off,,,,,171,0,6,,,,1,53,0
184832,note_off,,,,,512,0,3,,,,6,60,0
184832,note_on,,,,,0,0,2,,,,2,72,101
184832,note_on,,,,,0,0,5,,,,3,41,75
185002,note_off,,,,,170,0,6,,,,1,72,0
185002,note_on,,,,,0,0,6,,,,1,70,127
185003,note_on,,,,,0,0,2,,,,2,70,101
185003,note_off,,,,,171,0,2,,,,2,72,0
185173,note_off,,,,,170,0,2,,,,2,70,0
185173,note_off,,,,,0,0,6,,,,1,70,0
185173,note_on,,,,,171,0,6,,,,1,69,127
185173,note_on,,,,,0,0,2,,,,2,69,101
185344,note_off,,,,,171,0,2,,,,2,69,0
185344,note_on,,,,,0,0,2,,,,2,74,101
185344,note_on,,,,,0,0,6,,,,1,46,114
185344,note_off,,,,,0,0,6,,,,1,41,0
185344,note_on,,,,,0,0,6,,,,1,74,127
185344,note_on,,,,,0,0,6,,,,1,70,127
185344,note_on,,,,,0,0,6,,,,1,65,127
185344,note_off,,,,,0,0,6,,,,1,69,0
185344,note_off,,,,,0,0,6,,,,1,53,0
185344,note_off,,,,,171,0,6,,,,1,60,0
185344,note_off,,,,,512,0,5,,,,3,41,0
185344,note_on,,,,,0,0,5,,,,3,46,75
185344,note_on,,,,,512,0,3,,,,6,65,101
185856,note_off,,,,,512,0,2,,,,2,74,0
185856,note_on,,,,,0,0,2,,,,2,65,101
185856,note_off,,,,,512,0,5,,,,3,46,0
185856,note_off,,,,,512,0,6,,,,1,65,0
185856,note_on,,,,,0,0,5,,,,3,47,75
185856,note_on,,,,,0,0,6,,,,1,65,127
185856,note_off,,,,,512,0,3,,,,6,65,0
185856,note_on,,,,,0,0,6,,,,1,65,127
185856,note_on,,,,,0,0,6,,,,1,47,114
185856,note_off,,,,,0,0,6,,,,1,70,0
185856,note_off,,,,,0,0,6,,,,1,74,0
185856,note_on,,,,,0,0,6,,,,1,62,127
185856,note_off,,,,,0,0,6,,,,1,46,0
185856,note_on,,,,,0,0,3,,,,6,62,101
186368,note_on,,,,,0,0,6,,,,1,48,114
186368,note_on,,,,,0,0,3,,,,6,60,101
186368,note_on,,,,,0,0,2,,,,2,64,101
186368,note_off,,,,,512,0,2,,,,2,65,0
186368,note_off,,,,,0,0,6,,,,1,47,0
186368,note_on,,,,,0,0,5,,,,3,48,75
186368,note_off,,,,,512,0,5,,,,3,47,0
186368,note_off,,,,,512,0,6,,,,1,62,0
186368,note_off,,,,,0,0,6,,,,1,65,0
186368,note_off,,,,,0,0,6,,,,1,65,0
186368,note_on,,,,,0,0,6,,,,1,55,127
186368,note_on,,,,,0,0,6,,,,1,60,127
186368,note_on,,,,,0,0,6,,,,1,64,127
186368,note_off,,,,,512,0,3,,,,6,62,0
186880,note_off,,,,,512,0,5,,,,3,48,0
186880,note_off,,,,,512,0,2,,,,2,64,0
186880,note_on,,,,,0,0,5,,,,3,53,75
186880,note_on,,,,,0,0,2,,,,2,65,101
186880,note_off,,,,,0,0,6,,,,1,60,0
186880,note_off,,,,,512,0,6,,,,1,55,0
186880,note_off,,,,,0,0,6,,,,1,64,0
186880,note_on,,,,,0,0,6,,,,1,53,127
186880,note_on,,,,,0,0,6,,,,1,57,127
186880,note_on,,,,,0,0,6,,,,1,60,127
186880,note_on,,,,,0,0,6,,,,1,53,114
186880,note_off,,,,,0,0,6,,,,1,48,0
186880,note_off,,,,,512,0,3,,,,6,60,0
186880,note_on,,,,,0,0,6,,,,1,65,127
186880,note_on,,,,,0,0,3,,,,6,60,101
187392,note_off,,,,,512,0,2,,,,2,65,0
187392,note_on,,,,,0,0,3,,,,6,60,101
187392,note_on,,,,,0,0,6,,,,1,60,127
187392,note_on,,,,,0,0,6,,,,1,57,127
187392,note_off,,,,,512,0,6,,,,1,53,0
187392,note_off,,,,,0,0,6,,,,1,53,0
187392,note_on,,,,,0,0,5,,,,3,57,75
187392,note_off,,,,,512,0,5,,,,3,53,0
187392,note_off,,,,,512,0,3,,,,6,60,0
187392,note_off,,,,,0,0,6,,,,1,57,0
187392,note_on,,,,,0,0,6,,,,1,57,114
187392,note_off,,,,,0,0,6,,,,1,65,0
187392,note_off,,,,,0,0,6,,,,1,60,0
187904,note_on,,,,,0,0,6,,,,1,69,127
187904,note_on,,,,,0,0,6,,,,1,53,127
187904,note_off,,,,,0,0,6,,,,1,60,0
187904,note_off,,,,,512,0,6,,,,1,57,0
187904,note_off,,,,,0,0,6,,,,1,57,0
187904,note_on,,,,,0,0,6,,,,1,53,114
187904,note_on,,,,,0,0,6,,,,1,72,127
187904,note_off,,,,,512,0,3,,,,6,60,0
187904,note_on,,,,,0,0,3,,,,6,69,101
187904,note_on,,,,,512,0,2,,,,2,77,101
187904,note_on,,,,,0,0,5,,,,3,53,75
187904,note_off,,,,,512,0,5,,,,3,57,0
187904,note_on,,,,,0,0,6,,,,1,77,127
188416,note_on,,,,,0,0,6,,,,1,77,127
188416,note_on,,,,,0,0,6,,,,1,69,127
188416,note_off,,,,,512,0,3,,,,6,69,0
188416,note_off,,,,,0,0,6,,,,1,53,0
188416,note_off,,,,,0,0,6,,,,1,77,0
188416,note_on,,,,,0,0,6,,,,1,50,114
188416,note_off,,,,,0,0,6,,,,1,69,0
188416,note_off,,,,,512,0,6,,,,1,53,0
188416,note_on,,,,,0,0,5,,,,3,50,75
188416,note_off,,,,,512,0,5,,,,3,53,0
188416,note_on,,,,,0,0,3,,,,6,69,101
188416,note_off,,,,,0,0,6,,,,1,72,0
188416,note_off,,,,,512,0,2,,,,2,77,0
188416,note_on,,,,,0,0,2,,,,2,77,101
188586,note_on,,,,,0,0,6,,,,1,76,127
188586,note_off,,,,,170,0,6,,,,1,77,0
188587,note_on,,,,,0,0,2,,,,2,76,101
188587,note_off,,,,,171,0,2,,,,2,77,0
188757,note_on,,,,,171,0,6,,,,1,74,127
188757,note_off,,,,,0,0,6,,,,1,76,0
188757,note_on,,,,,0,0,2,,,,2,74,101
188757,note_off,,,,,170,0,2,,,,2,76,0
188928,note_off,,,,,512,0,5,,,,3,50,0
188928,note_on,,,,,0,0,2,,,,2,77,101
188928,note_off,,,,,171,0,2,,,,2,74,0
188928,note_off,,,,,0,0,6,,,,1,50,0
188928,note_on,,,,,0,0,6,,,,1,77,127
188928,note_on,,,,,0,0,6,,,,1,69,127
188928,note_off,,,,,0,0,6,,,,1,74,0
188928,note_off,,,,,171,0,6,,,,1,69,0
188928,note_on,,,,,0,0,5,,,,3,50,75
188928,note_on,,,,,0,0,6,,,,1,50,114
189098,note_off,,,,,170,0,6,,,,1,77,0
189098,note_on,,,,,0,0,6,,,,1,76,127
189099,note_on,,,,,0,0,2,,,,2,76,101
189099,note_off,,,,,171,0,2,,,,2,77,0
189269,note_off,,,,,0,0,6,,,,1,76,0
189269,note_on,,,,,171,0,6,,,,1,74,127
189269,note_on,,,,,0,0,2,,,,2,74,101
189269,note_off,,,,,170,0,2,,,,2,76,0
189440,note_on,,,,,0,0,6,,,,1,67,127
189440,note_on,,,,,0,0,6,,,,1,79,127
189440,note_on,,,,,0,0,6,,,,1,47,114
189440,note_off,,,,,1024,0,3,,,,6,69,0
189440,note_on,,,,,0,0,3,,,,6,67,101
189440,note_off,,,,,0,0,6,,,,1,74,0
189440,note_off,,,,,171,0,6,,,,1,69,0
189440,note_off,,,,,0,0,6,,,,1,50,0
189440,note_on,,,,,0,0,5,,,,3,47,75
189440,note_on,,,,,0,0,2,,,,2,79,101
189440,note_off,,,,,512,0,5,,,,3,50,0
189440,note_off,,,,,171,0,2,,,,2,74,0
189952,note_on,,,,,0,0,5,,,,3,47,75
189952,note_off,,,,,512,0,5,,,,3,47,0
189952,note_off,,,,,512,0,6,,,,1,67,0
189952,note_off,,,,,0,0,6,,,,1,79,0
189952,note_on,,,,,0,0,6,,,,1,67,127
189952,note_on,,,,,0,0,6,,,,1,74,127
189952,note_off,,,,,0,0,6,,,,1,47,0
189952,note_on,,,,,0,0,6,,,,1,47,114
189952,note_off,,,,,512,0,2,,,,2,79,0
189952,note_on,,,,,0,0,2,,,,2,74,101
190464,note_on,,,,,0,0,6,,,,1,48,114
190464,note_off,,,,,0,0,6,,,,1,47,0
190464,note_on,,,,,0,0,6,,,,1,76,127
190464,note_on,,,,,0,0,6,,,,1,67,127
190464,note_on,,,,,0,0,2,,,,2,76,101
190464,note_on,,,,,0,0,5,,,,3,48,75
190464,note_off,,,,,0,0,6,,,,1,74,0
190464,note_off,,,,,512,0,2,,,,2,74,0
190464,note_off,,,,,512,0,5,,,,3,47,0
190464,note_off,,,,,512,0,6,,,,1,67,0
190634,note_on,,,,,0,0,6,,,,1,74,127
190634,note_off,,,,,170,0,6,,,,1,76,0
190635,note_off,,,,,171,0,2,,,,2,76,0
190635,note_on,,,,,0,0,2,,,,2,74,101
190805,note_off,,,,,0,0,6,,,,1,74,0
190805,note_on,,,,,171,0,6,,,,1,72,127
190805,note_off,,,,,170,0,2,,,,2,74,0
190805,note_on,,,,,0,0,2,,,,2,72,101
190976,note_on,,,,,0,0,5,,,,3,48,75
190976,note_off,,,,,171,0,2,,,,2,72,0
190976,note_off,,,,,171,0,6,,,,1,67,0
190976,note_off,,,,,0,0,6,,,,1,72,0
190976,note_on,,,,,0,0,6,,,,1,67,127
190976,note_on,,,,,0,0,6,,,,1,76,127
190976,note_off,,,,,0,0,6,,,,1,48,0
190976,note_on,,,,,0,0,6,,,,1,48,114
190976,note_off,,,,,512,0,5,,,,3,48,0
190976,note_on,,,,,0,0,2,,,,2,76,101
191146,note_on,,,,,0,0,6,,,,1,74,127
191146,note_off,,,,,170,0,6,,,,1,76,0
191147,note_off,,,,,171,0,2,,,,2,76,0
191147,note_on,,,,,0,0,2,,,,2,74,101
191317,note_off,,,,,170,0,2,,,,2,74,0
191317,note_on,,,,,0,0,2,,,,2,72,101
191317,note_on,,,,,171,0,6,,,,1,72,127
191317,note_off,,,,,0,0,6,,,,1,74,0
191488,note_on,,,,,0,0,3,,,,6,65,101
191488,note_off,,,,,512,0,5,,,,3,48,0
191488,note_on,,,,,0,0,2,,,,2,77,101
191488,note_off,,,,,171,0,2,,,,2,72,0
191488,note_off,,,,,2048,0,3,,,,6,67,0
191488,note_off,,,,,171,0,6,,,,1,67,0
191488,note_off,,,,,0,0,6,,,,1,72,0
191488,note_on,,,,,0,0,6,,,,1,65,127
191488,note_on,,,,,0,0,5,,,,3,45,75
191488,note_off,,,,,0,0,6,,,,1,48,0
191488,note_on,,,,,0,0,6,,,,1,45,114
191488,note_on,,,,,0,0,6,,,,1,77,127
192000,note_off,,,,,512,0,6,,,,1,65,0
192000,note_off,,,,,0,0,6,,,,1,77,0
192000,note_on,,,,,0,0,6,,,,1,65,127
192000,note_on,,,,,0,0,6,,,,1,72,127
192000,note_on,,,,,0,0,5,,,,3,45,75
192000,note_off,,,,,512,0,5,,,,3,45,0
192000,note_on,,,,,0,0,2,,,,2,72,101
192000,note_off,,,,,0,0,6,,,,1,45,0
192000,note_on,,,,,0,0,6,,,,1,45,114
192000,note_off,,,,,512,0,2,,,,2,77,0
192512,note_on,,,,,0,0,5,,,,3,47,75
192512,note_on,,,,,0,0,6,,,,1,74,127
192512,note_on,,,,,0,0,6,,,,1,47,114
192512,note_on,,,,,0,0,6,,,,1,65,127
192512,note_off,,,,,512,0,2,,,,2,72,0
192512,note_on,,,,,0,0,2,,,,2,74,101
192512,note_off,,,,,512,0,6,,,,1,65,0
192512,note_off,,,,,0,0,6,,,,1,72,0
192512,note_off,,,,,0,0,6,,,,1,45,0
192512,note_off,,,,,512,0,5,,,,3,45,0
192682,note_off,,,,,170,0,6,,,,1,74,0
192682,note_on,,,,,0,0,6,,,,1,72,127
192683,note_off,,,,,171,0,2,,,,2,74,0
192683,note_on,,,,,0,0,2,,,,2,72,101
192853,note_off,,,,,170,0,2,,,,2,72,0
192853,note_on,,,,,0,0,2,,,,2,71,101
192853,note_off,,,,,0,0,6,,,,1,72,0
192853,note_on,,,,,171,0,6,,,,1,71,127
193024,note_on,,,,,0,0,5,,,,3,47,75
193024,note_on,,,,,0,0,6,,,,1,47,114
193024,note_off,,,,,0,0,6,,,,1,47,0
193024,note_on,,,,,0,0,6,,,,1,74,127
193024,note_on,,,,,0,0,6,,,,1,65,127
193024,note_off,,,,,0,0,6,,,,1,71,0
193024,note_off,,,,,171,0,6,,,,1,65,0
193024,note_off,,,,,171,0,2,,,,2,71,0
193024,note_off,,,,,512,0,5,,,,3,47,0
193024,note_on,,,,,0,0,2,,,,2,74,101
193194,note_on,,,,,0,0,6,,,,1,72,127
193194,note_off,,,,,170,0,6,,,,1,74,0
193195,note_on,,,,,0,0,2,,,,2,72,101
193195,note_off,,,,,171,0,2,,,,2,74,0
193365,note_on,,,,,0,0,2,,,,2,71,101
193365,note_off,,,,,170,0,2,,,,2,72,0
193365,note_on,,,,,171,0,6,,,,1,71,127
193365,note_off,,,,,0,0,6,,,,1,72,0
193536,note_on,,,,,0,0,6,,,,1,64,127
193536,note_on,,,,,0,0,6,,,,1,64,127
193536,note_off,,,,,0,0,6,,,,1,71,0
193536,note_off,,,,,171,0,6,,,,1,65,0
193536,note_off,,,,,2048,0,3,,,,6,65,0
193536,note_on,,,,,0,0,3,,,,6,64,101
193536,note_on,,,,,0,0,6,,,,1,44,114
193536,note_on,,,,,0,0,6,,,,1,76,127
193536,note_off,,,,,171,0,2,,,,2,71,0
193536,note_on,,,,,0,0,5,,,,3,44,75
193536,note_off,,,,,512,0,5,,,,3,47,0
193536,note_off,,,,,0,0,6,,,,1,47,0
193536,note_on,,,,,0,0,2,,,,2,76,101
194048,note_off,,,,,512,0,6,,,,1,64,0
194048,note_on,,,,,0,0,6,,,,1,74,127
194048,note_off,,,,,0,0,6,,,,1,44,0
194048,note_on,,,,,0,0,6,,,,1,44,114
194048,note_off,,,,,0,0,6,,,,1,76,0
194048,note_on,,,,,0,0,6,,,,1,64,127
194048,note_on,,,,,0,0,2,,,,2,71,101
194048,note_on,,,,,0,0,5,,,,3,44,75
194048,note_off,,,,,512,0,5,,,,3,44,0
194048,note_off,,,,,512,0,2,,,,2,76,0
194560,note_off,,,,,512,0,5,,,,3,44,0
194560,note_off,,,,,0,0,6,,,,1,74,0
194560,note_on,,,,,0,0,3,,,,6,64,101
194560,note_off,,,,,1024,0,3,,,,6,64,0
194560,note_on,,,,,0,0,6,,,,1,64,127
194560,note_on,,,,,0,0,6,,,,1,72,127
194560,note_off,,,,,0,0,6,,,,1,44,0
194560,note_on,,,,,0,0,6,,,,1,45,114
194560,note_on,,,,,0,0,5,,,,3,45,75
194560,note_on,,,,,0,0,2,,,,2,72,101
194560,note_off,,,,,512,0,2,,,,2,71,0
194560,note_off,,,,,0,0,6,,,,1,64,0
194560,note_off,,,,,512,0,6,,,,1,64,0
195072,note_on,,,,,0,0,6,,,,1,57,127
195072,note_off,,,,,0,0,6,,,,1,45,0
195072,note_on,,,,,0,0,6,,,,1,45,114
195072,note_on,,,,,0,0,5,,,,3,45,75
195072,note_off,,,,,512,0,5,,,,3,45,0
195072,note_on,,,,,0,0,6,,,,1,69,127
195072,note_off,,,,,512,0,6,,,,1,72,0
195072,note_on,,,,,0,0,3,,,,6,60,101
195072,note_off,,,,,512,0,3,,,,6,64,0
195072,note_on,,,,,0,0,2,,,,2,69,101
195072,note_off,,,,,512,0,2,,,,2,72,0
195584,note_off,,,,,512,0,3,,,,6,60,0
195584,note_off,,,,,512,0,5,,,,3,45,0
195584,note_on,,,,,0,0,5,,,,3,48,75
195584,note_off,,,,,512,0,2,,,,2,69,0
195584,note_on,,,,,0,0,3,,,,6,64,101
195584,note_on,,,,,0,0,6,,,,1,48,114
195584,note_off,,,,,0,0,6,,,,1,45,0
195584,note_off,,,,,512,0,6,,,,1,64,0
195584,note_off,,,,,0,0,6,,,,1,57,0
195584,note_on,,,,,0,0,6,,,,1,60,127
196096,note_off,,,,,0,0,6,,,,1,48,0
196096,note_on,,,,,0,0,5,,,,3,45,75
196096,note_on,,,,,0,0,3,,,,6,64,62
196096,note_off,,,,,512,0,5,,,,3,48,0
196096,note_on,,,,,0,0,6,,,,1,45,62
196096,note_on,,,,,0,0,6,,,,1,72,78
196096,note_off,,,,,512,0,3,,,,6,64,0
196096,note_off,,,,,512,0,6,,,,1,69,0
196096,note_on,,,,,512,0,2,,,,2,72,62
196096,note_on,,,,,14848,0,4,,,,12,76,127
196096,note_on,,,,,0,0,6,,,,1,57,78
196096,note_off,,,,,0,0,6,,,,1,60,0
196608,note_on,,,,,0,0,4,,,,12,76,127
196608,note_off,,,,,512,0,3,,,,6,64,0
196608,note_off,,,,,0,0,6,,,,1,72,0
196608,note_off,,,,,512,0,4,,,,12,76,0
196608,note_off,,,,,512,0,6,,,,1,57,0
196608,note_off,,,,,512,0,2,,,,2,72,0
196608,note_off,,,,,0,0,6,,,,1,45,0
196608,note_off,,,,,512,0,5,,,,3,45,0
196736,note_on,,,,,0,0,4,,,,12,69,127
196736,note_off,,,,,128,0,4,,,,12,76,0
196864,note_off,,,,,128,0,4,,,,12,69,0
196864,note_on,,,,,0,0,4,,,,12,71,127
196992,note_on,,,,,0,0,4,,,,12,72,127
196992,note_off,,,,,128,0,4,,,,12,71,0
197120,note_on,,,,,512,0,2,,,,2,72,62
197120,note_on,,,,,512,0,3,,,,6,64,62
197120,note_on,,,,,0,0,6,,,,1,45,62
197120,note_off,,,,,128,0,4,,,,12,72,0
197120,note_on,,,,,0,0,4,,,,12,74,127
197120,note_on,,,,,0,0,6,,,,1,72,78
197120,note_on,,,,,512,0,6,,,,1,64,78
197120,note_on,,,,,512,0,5,,,,3,45,75
197248,note_on,,,,,0,0,4,,,,12,76,127
197248,note_off,,,,,128,0,4,,,,12,74,0
197376,note_off,,,,,128,0,4,,,,12,76,0
197376,note_on,,,,,0,0,4,,,,12,78,127
197504,note_off,,,,,128,0,4,,,,12,78,0
197504,note_on,,,,,0,0,4,,,,12,80,127
197632,note_off,,,,,512,0,2,,,,2,72,0
197632,note_on,,,,,0,0,2,,,,2,76,62
197632,note_off,,,,,128,0,4,,,,12,80,0
197632,note_on,,,,,0,0,4,,,,12,81,127
197632,note_off,,,,,512,0,5,,,,3,45,0
197632,note_on,,,,,0,0,5,,,,3,48,75
197632,note_on,,,,,0,0,3,,,,6,69,62
197632,note_on,,,,,0,0,6,,,,1,48,62
197632,note_off,,,,,512,0,3,,,,6,64,0
197632,note_on,,,,,0,0,6,,,,1,69,78
197632,note_off,,,,,512,0,6,,,,1,72,0
197632,note_off,,,,,0,0,6,,,,1,45,0
198144,note_off,,,,,512,0,4,,,,12,81,0
198144,note_off,,,,,512,0,2,,,,2,76,0
198144,note_on,,,,,0,0,2,,,,2,72,62
198144,note_on,,,,,0,0,5,,,,3,45,75
198144,note_off,,,,,512,0,6,,,,1,64,0
198144,note_off,,,,,0,0,6,,,,1,69,0
198144,note_on,,,,,0,0,6,,,,1,64,78
198144,note_on,,,,,0,0,6,,,,1,72,78
198144,note_off,,,,,0,0,6,,,,1,48,0
198144,note_on,,,,,0,0,6,,,,1,45,62
198144,note_off,,,,,512,0,5,,,,3,48,0
198144,note_on,,,,,0,0,4,,,,12,76,127
198656,note_off,,,,,1024,0,3,,,,6,69,0
198656,note_off,,,,,512,0,2,,,,2,72,0
198656,note_off,,,,,512,0,5,,,,3,45,0
198656,note_off,,,,,512,0,6,,,,1,45,0
198656,note_off,,,,,512,0,4,,,,12,76,0
198656,note_on,,,,,0,0,4,,,,12,79,127
198688,note_off,,,,,32,0,6,,,,1,64,0
198688,note_off,,,,,0,0,6,,,,1,72,0
198784,note_off,,,,,128,0,4,,,,12,79,0
198784,note_on,,,,,0,0,4,,,,12,77,127
198912,note_on,,,,,0,0,4,,,,12,79,127
198912,note_off,,,,,128,0,4,,,,12,77,0
199040,note_on,,,,,0,0,4,,,,12,77,127
199040,note_off,,,,,128,0,4,,,,12,79,0
199168,note_on,,,,,512,0,3,,,,6,64,62
199168,note_on,,,,,0,0,6,,,,1,45,62
199168,note_on,,,,,0,0,6,,,,1,72,78
199168,note_on,,,,,480,0,6,,,,1,64,78
199168,note_on,,,,,512,0,2,,,,2,72,62
199168,note_on,,,,,0,0,4,,,,12,76,127
199168,note_off,,,,,128,0,4,,,,12,77,0
199168,note_on,,,,,512,0,5,,,,3,45,75
199680,note_on,,,,,0,0,3,,,,6,69,62
199680,note_off,,,,,512,0,4,,,,12,76,0
199680,note_on,,,,,0,0,5,,,,3,48,75
199680,note_off,,,,,512,0,3,,,,6,64,0
199680,note_off,,,,,512,0,5,,,,3,45,0
199680,note_on,,,,,0,0,6,,,,1,48,62
199680,note_on,,,,,0,0,2,,,,2,76,62
199680,note_off,,,,,512,0,2,,,,2,72,0
199680,note_off,,,,,512,0,6,,,,1,72,0
199680,note_on,,,,,0,0,6,,,,1,69,78
199680,note_off,,,,,0,0,6,,,,1,45,0
200192,note_on,,,,,0,0,6,,,,1,64,78
200192,note_on,,,,,0,0,2,,,,2,72,62
200192,note_off,,,,,0,0,6,,,,1,69,0
200192,note_off,,,,,512,0,6,,,,1,64,0
200192,note_on,,,,,0,0,6,,,,1,45,62
200192,note_on,,,,,0,0,6,,,,1,72,78
200192,note_on,,,,,512,0,4,,,,12,69,127
200192,note_off,,,,,512,0,5,,,,3,48,0
200192,note_on,,,,,0,0,5,,,,3,45,75
200192,note_off,,,,,0,0,6,,,,1,48,0
200192,note_off,,,,,512,0,2,,,,2,76,0
200704,note_off,,,,,1024,0,3,,,,6,69,0
200704,note_off,,,,,512,0,5,,,,3,45,0
200704,note_on,,,,,0,0,4,,,,12,68,127
200704,note_off,,,,,512,0,2,,,,2,72,0
200704,note_off,,,,,512,0,4,,,,12,69,0
200704,note_off,,,,,0,0,6,,,,1,45,0
200704,note_off,,,,,0,0,6,,,,1,72,0
200704,note_off,,,,,512,0,6,,,,1,64,0
200832,note_off,,,,,128,0,4,,,,12,68,0
200832,note_on,,,,,0,0,4,,,,12,64,127
200960,note_off,,,,,128,0,4,,,,12,64,0
200960,note_on,,,,,0,0,4,,,,12,66,127
201088,note_on,,,,,0,0,4,,,,12,68,127
201088,note_off,,,,,128,0,4,,,,12,66,0
201216,note_on,,,,,512,0,2,,,,2,68,62
201216,note_on,,,,,512,0,5,,,,3,52,75
201216,note_off,,,,,128,0,4,,,,12,68,0
201216,note_on,,,,,512,0,3,,,,6,64,62
201216,note_on,,,,,0,0,4,,,,12,69,127
201216,note_on,,,,,512,0,6,,,,1,64,78
201216,note_on,,,,,0,0,6,,,,1,68,78
201216,note_on,,,,,0,0,6,,,,1,52,62
201344,note_off,,,,,128,0,4,,,,12,69,0
201344,note_on,,,,,0,0,4,,,,12,71,127
201472,note_on,,,,,0,0,4,,,,12,72,127
201472,note_off,,,,,128,0,4,,,,12,71,0
201600,note_off,,,,,128,0,4,,,,12,72,0
201600,note_on,,,,,0,0,4,,,,12,74,127
201728,note_off,,,,,512,0,3,,,,6,64,0
201728,note_on,,,,,0,0,3,,,,6,64,62
201728,note_off,,,,,512,0,5,,,,3,52,0
201728,note_off,,,,,128,0,4,,,,12,74,0
201728,note_on,,,,,0,0,4,,,,12,76,127
201728,note_on,,,,,0,0,6,,,,1,56,78
201728,note_on,,,,,0,0,6,,,,1,56,62
201728,note_off,,,,,512,0,2,,,,2,68,0
201728,note_on,,,,,0,0,2,,,,2,71,62
201728,note_on,,,,,0,0,5,,,,3,56,75
201728,note_off,,,,,0,0,6,,,,1,52,0
201728,note_off,,,,,512,0,6,,,,1,68,0
201728,note_on,,,,,0,0,6,,,,1,71,78
202240,note_off,,,,,0,0,6,,,,1,56,0
202240,note_off,,,,,0,0,6,,,,1,56,0
202240,note_off,,,,,0,0,6,,,,1,71,0
202240,note_on,,,,,0,0,6,,,,1,64,78
202240,note_on,,,,,0,0,6,,,,1,68,78
202240,note_on,,,,,0,0,6,,,,1,52,62
202240,note_off,,,,,512,0,6,,,,1,64,0
202240,note_on,,,,,0,0,2,,,,2,68,62
202240,note_off,,,,,512,0,2,,,,2,71,0
202240,note_on,,,,,0,0,4,,,,12,71,127
202240,note_off,,,,,512,0,5,,,,3,56,0
202240,note_on,,,,,0,0,5,,,,3,52,75
202240,note_off,,,,,512,0,4,,,,12,76,0
202752,note_off,,,,,512,0,2,,,,2,68,0
202752,note_off,,,,,1024,0,3,,,,6,64,0
202752,note_off,,,,,512,0,6,,,,1,52,0
202752,note_on,,,,,0,0,4,,,,12,72,127
202752,note_off,,,,,512,0,4,,,,12,71,0
202752,note_off,,,,,512,0,5,,,,3,52,0
202784,note_off,,,,,32,0,6,,,,1,64,0
202784,note_off,,,,,0,0,6,,,,1,68,0
203264,note_on,,,,,0,0,4,,,,12,69,127
203264,note_off,,,,,512,0,4,,,,12,72,0
203264,note_on,,,,,0,0,6,,,,1,57,62
203264,note_on,,,,,0,0,6,,,,1,64,78
203264,note_on,,,,,512,0,2,,,,2,72,62
203264,note_on,,,,,512,0,3,,,,6,64,62
203264,note_on,,,,,480,0,6,,,,1,57,78
203264,note_on,,,,,0,0,6,,,,1,72,78
203264,note_on,,,,,512,0,5,,,,3,57,75
203776,note_on,,,,,0,0,5,,,,3,60,75
203776,note_on,,,,,0,0,2,,,,2,69,62
203776,note_on,,,,,0,0,6,,,,1,60,62
203776,note_on,,,,,0,0,3,,,,6,64,62
203776,note_off,,,,,512,0,3,,,,6,64,0
203776,note_off,,,,,512,0,2,,,,2,72,0
203776,note_off,,,,,512,0,6,,,,1,57,0
203776,note_off,,,,,0,0,6,,,,1,72,0
203776,note_on,,,,,0,0,6,,,,1,60,78
203776,note_on,,,,,0,0,6,,,,1,69,78
203776,note_off,,,,,0,0,6,,,,1,57,0
203776,note_off,,,,,512,0,5,,,,3,57,0
203808,note_off,,,,,544,0,4,,,,12,69,0
204288,note_on,,,,,0,0,2,,,,2,72,62
204288,note_on,,,,,480,0,4,,,,12,76,127
204288,note_off,,,,,0,0,6,,,,1,69,0
204288,note_off,,,,,512,0,2,,,,2,69,0
204288,note_on,,,,,0,0,6,,,,1,57,62
204288,note_on,,,,,0,0,6,,,,1,64,78
204288,note_on,,,,,0,0,6,,,,1,57,78
204288,note_off,,,,,0,0,6,,,,1,60,0
204288,note_off,,,,,0,0,6,,,,1,60,0
204288,note_off,,,,,512,0,6,,,,1,64,0
204288,note_on,,,,,0,0,6,,,,1,72,78
204288,note_on,,,,,0,0,5,,,,3,57,75
204288,note_off,,,,,512,0,5,,,,3,60,0
204800,note_off,,,,,512,0,5,,,,3,57,0
204800,note_on,,,,,0,0,4,,,,12,77,127
204800,note_off,,,,,512,0,4,,,,12,76,0
204800,note_off,,,,,0,0,6,,,,1,72,0
204800,note_off,,,,,0,0,6,,,,1,64,0
204800,note_off,,,,,512,0,6,,,,1,57,0
204800,note_off,,,,,1024,0,3,,,,6,64,0
204800,note_off,,,,,512,0,2,,,,2,72,0
204800,note_off,,,,,0,0,6,,,,1,57,0
205056,note_off,,,,,256,0,4,,,,12,77,0
205056,note_on,,,,,0,0,4,,,,12,79,127
205312,note_on,,,,,512,0,5,,,,3,62,75
205312,note_on,,,,,0,0,4,,,,12,81,127
205312,note_on,,,,,512,0,2,,,,2,77,62
205312,note_off,,,,,256,0,4,,,,12,79,0
205312,note_on,,,,,512,0,3,,,,6,69,62
205312,note_on,,,,,512,0,6,,,,1,62,78
205312,note_on,,,,,0,0,6,,,,1,69,78
205312,note_on,,,,,0,0,6,,,,1,77,78
205312,note_on,,,,,0,0,6,,,,1,62,62
205568,note_on,,,,,0,0,4,,,,12,77,127
205568,note_off,,,,,256,0,4,,,,12,81,0
205824,note_on,,,,,0,0,4,,,,12,76,127
205824,note_on,,,,,0,0,6,,,,1,76,78
205824,note_on,,,,,0,0,5,,,,3,60,75
205824,note_off,,,,,512,0,5,,,,3,62,0
205824,note_on,,,,,0,0,6,,,,1,60,78
205824,note_off,,,,,0,0,6,,,,1,77,0
205824,note_off,,,,,0,0,6,,,,1,62,0
205824,note_off,,,,,512,0,6,,,,1,62,0
205824,note_off,,,,,256,0,4,,,,12,77,0
205824,note_on,,,,,0,0,2,,,,2,81,62
205824,note_off,,,,,512,0,2,,,,2,77,0
205824,note_on,,,,,0,0,6,,,,1,60,62
206336,note_off,,,,,512,0,4,,,,12,76,0
206336,note_on,,,,,0,0,4,,,,12,74,127
206336,note_off,,,,,1024,0,3,,,,6,69,0
206336,note_on,,,,,0,0,6,,,,1,59,62
206336,note_on,,,,,0,0,6,,,,1,74,78
206336,note_on,,,,,0,0,6,,,,1,59,78
206336,note_off,,,,,0,0,6,,,,1,76,0
206336,note_off,,,,,512,0,6,,,,1,60,0
206336,note_on,,,,,0,0,3,,,,6,69,62
206336,note_off,,,,,0,0,6,,,,1,60,0
206336,note_on,,,,,0,0,2,,,,2,74,62
206336,note_on,,,,,0,0,5,,,,3,59,75
206336,note_off,,,,,512,0,5,,,,3,60,0
206336,note_off,,,,,512,0,2,,,,2,81,0
206848,note_on,,,,,0,0,4,,,,12,76,127
206848,note_off,,,,,512,0,5,,,,3,59,0
206848,note_off,,,,,512,0,4,,,,12,74,0
206848,note_off,,,,,512,0,3,,,,6,69,0
206848,note_off,,,,,512,0,2,,,,2,74,0
206848,note_off,,,,,512,0,6,,,,1,69,0
206848,note_off,,,,,0,0,6,,,,1,59,0
206880,note_off,,,,,32,0,6,,,,1,59,0
206880,note_off,,,,,0,0,6,,,,1,74,0
207104,note_on,,,,,0,0,4,,,,12,77,127
207104,note_off,,,,,256,0,4,,,,12,76,0
207360,note_off,,,,,256,0,4,,,,12,77,0
207360,note_on,,,,,512,0,2,,,,2,76,62
207360,note_on,,,,,0,0,4,,,,12,79,127
207360,note_on,,,,,480,0,6,,,,1,60,78
207360,note_on,,,,,0,0,6,,,,1,60,62
207360,note_on,,,,,0,0,6,,,,1,76,78
207360,note_on,,,,,0,0,6,,,,1,69,78
207360,note_on,,,,,512,0,3,,,,6,67,62
207360,note_on,,,,,512,0,5,,,,3,60,75
207616,note_on,,,,,0,0,4,,,,12,76,127
207616,note_off,,,,,256,0,4,,,,12,79,0
207872,note_off,,,,,256,0,4,,,,12,76,0
207872,note_off,,,,,512,0,5,,,,3,60,0
207872,note_off,,,,,512,0,6,,,,1,60,0
207872,note_off,,,,,512,0,2,,,,2,76,0
207872,note_on,,,,,0,0,5,,,,3,59,75
207872,note_on,,,,,0,0,2,,,,2,79,62
207872,note_on,,,,,0,0,4,,,,12,74,127
207872,note_on,,,,,0,0,6,,,,1,59,78
207872,note_off,,,,,0,0,6,,,,1,76,0
207872,note_on,,,,,0,0,6,,,,1,74,78
207872,note_off,,,,,0,0,6,,,,1,60,0
207872,note_on,,,,,0,0,6,,,,1,59,62
208384,note_on,,,,,0,0,4,,,,12,72,127
208384,note_off,,,,,512,0,4,,,,12,74,0
208384,note_off,,,,,512,0,5,,,,3,59,0
208384,note_on,,,,,0,0,5,,,,3,57,75
208384,note_on,,,,,0,0,2,,,,2,72,62
208384,note_off,,,,,512,0,2,,,,2,79,0
208384,note_off,,,,,1024,0,3,,,,6,67,0
208384,note_on,,,,,0,0,3,,,,6,67,62
208384,note_on,,,,,0,0,6,,,,1,57,62
208384,note_off,,,,,0,0,6,,,,1,59,0
208384,note_on,,,,,0,0,6,,,,1,72,78
208384,note_on,,,,,0,0,6,,,,1,57,78
208384,note_off,,,,,0,0,6,,,,1,74,0
208384,note_off,,,,,512,0,6,,,,1,59,0
208896,note_off,,,,,512,0,5,,,,3,57,0
208896,note_off,,,,,0,0,6,,,,1,72,0
208896,note_off,,,,,512,0,4,,,,12,72,0
208896,note_on,,,,,0,0,4,,,,12,74,127
208896,note_off,,,,,512,0,3,,,,6,67,0
208896,note_off,,,,,0,0,6,,,,1,57,0
208896,note_off,,,,,512,0,2,,,,2,72,0
208896,note_off,,,,,0,0,6,,,,1,57,0
208896,note_off,,,,,512,0,6,,,,1,69,0
209152,note_on,,,,,0,0,4,,,,12,76,127
209152,note_off,,,,,256,0,4,,,,12,74,0
209408,note_on,,,,,0,0,6,,,,1,59,62
209408,note_on,,,,,0,0,6,,,,1,74,78
209408,note_on,,,,,512,0,6,,,,1,59,78
209408,note_on,,,,,512,0,2,,,,2,74,62
209408,note_on,,,,,512,0,3,,,,6,65,62
209408,note_on,,,,,0,0,6,,,,1,64,78
209408,note_off,,,,,256,0,4,,,,12,76,0
209408,note_on,,,,,0,0,4,,,,12,77,127
209408,note_on,,,,,512,0,5,,,,3,59,75
209664,note_off,,,,,256,0,4,,,,12,77,0
209664,note_on,,,,,0,0,4,,,,12,74,127
209920,note_off,,,,,0,0,6,,,,1,59,0
209920,note_off,,,,,512,0,5,,,,3,59,0
209920,note_on,,,,,0,0,5,,,,3,57,75
209920,note_on,,,,,0,0,6,,,,1,72,78
209920,note_on,,,,,0,0,6,,,,1,57,78
209920,note_on,,,,,0,0,6,,,,1,57,62
209920,note_off,,,,,512,0,6,,,,1,59,0
209920,note_off,,,,,512,0,2,,,,2,74,0
209920,note_on,,,,,0,0,2,,,,2,77,62
209920,note_off,,,,,256,0,4,,,,12,74,0
209920,note_on,,,,,0,0,4,,,,12,72,127
209920,note_off,,,,,0,0,6,,,,1,74,0
210432,note_on,,,,,0,0,6,,,,1,56,78
210432,note_on,,,,,0,0,6,,,,1,56,62
210432,note_on,,,,,0,0,3,,,,6,64,62
210432,note_off,,,,,1024,0,3,,,,6,65,0
210432,note_off,,,,,0,0,6,,,,1,57,0
210432,note_on,,,,,0,0,6,,,,1,71,78
210432,note_off,,,,,0,0,6,,,,1,72,0
210432,note_on,,,,,0,0,4,,,,12,71,127
210432,note_on,,,,,0,0,5,,,,3,56,75
210432,note_off,,,,,512,0,5,,,,3,57,0
210432,note_on,,,,,0,0,2,,,,2,71,62
210432,note_off,,,,,512,0,2,,,,2,77,0
210432,note_off,,,,,512,0,4,,,,12,72,0
210432,note_off,,,,,512,0,6,,,,1,57,0
210944,note_off,,,,,512,0,5,,,,3,56,0
210944,note_off,,,,,512,0,4,,,,12,71,0
210944,note_off,,,,,512,0,6,,,,1,64,0
210944,note_off,,,,,0,0,6,,,,1,56,0
210944,note_off,,,,,512,0,3,,,,6,64,0
210944,note_on,,,,,0,0,4,,,,12,72,127
210944,note_off,,,,,512,0,2,,,,2,71,0
210976,note_off,,,,,0,0,6,,,,1,71,0
210976,note_off,,,,,32,0,6,,,,1,56,0
211200,note_on,,,,,0,0,4,,,,12,69,127
211200,note_off,,,,,256,0,4,,,,12,72,0
211456,note_off,,,,,256,0,4,,,,12,69,0
211456,note_on,,,,,512,0,5,,,,3,56,75
211456,note_on,,,,,0,0,6,,,,1,56,62
211456,note_on,,,,,512,0,3,,,,6,64,62
211456,note_on,,,,,512,0,2,,,,2,71,62
211456,note_on,,,,,0,0,4,,,,12,74,127
211456,note_on,,,,,480,0,6,,,,1,56,78
211456,note_on,,,,,0,0,6,,,,1,64,78
211456,note_on,,,,,0,0,6,,,,1,71,78
211712,note_off,,,,,256,0,4,,,,12,74,0
211712,note_on,,,,,0,0,4,,,,12,71,127
211968,note_off,,,,,0,0,6,,,,1,56,0
211968,note_on,,,,,0,0,6,,,,1,57,62
211968,note_off,,,,,512,0,5,,,,3,56,0
211968,note_on,,,,,0,0,5,,,,3,57,75
211968,note_off,,,,,256,0,4,,,,12,71,0
211968,note_on,,,,,0,0,6,,,,1,72,78
211968,note_on,,,,,0,0,6,,,,1,57,78
211968,note_on,,,,,0,0,4,,,,12,72,127
211968,note_off,,,,,0,0,6,,,,1,71,0
211968,note_off,,,,,512,0,6,,,,1,56,0
211968,note_off,,,,,512,0,2,,,,2,71,0
211968,note_on,,,,,0,0,2,,,,2,72,62
212172,note_off,,,,,204,0,4,,,,12,72,0
212224,note_on,,,,,52,0,4,,,,12,69,127
212428,note_off,,,,,204,0,4,,,,12,69,0
212480,note_off,,,,,1024,0,3,,,,6,64,0
212480,note_off,,,,,512,0,2,,,,2,72,0
212480,note_on,,,,,0,0,6,,,,1,56,62
212480,note_off,,,,,512,0,6,,,,1,57,0
212480,note_on,,,,,0,0,3,,,,6,64,62
212480,note_on,,,,,0,0,6,,,,1,71,78
212480,note_on,,,,,0,0,6,,,,1,56,78
212480,note_off,,,,,0,0,6,,,,1,72,0
212480,note_on,,,,,0,0,2,,,,2,71,62
212480,note_off,,,,,512,0,5,,,,3,57,0
212480,note_on,,,,,0,0,5,,,,3,56,75
212480,note_off,,,,,0,0,6,,,,1,57,0
212480,note_on,,,,,52,0,4,,,,12,74,127
212684,note_off,,,,,204,0,4,,,,12,74,0
212736,note_on,,,,,52,0,4,,,,12,71,127
212940,note_off,,,,,204,0,4,,,,12,71,0
212992,note_off,,,,,512,0,6,,,,1,64,0
212992,note_off,,,,,512,0,3,,,,6,64,0
212992,note_on,,,,,52,0,4,,,,12,72,127
212992,note_off,,,,,512,0,5,,,,3,56,0
212992,note_off,,,,,0,0,6,,,,1,56,0
212992,note_off,,,,,0,0,6,,,,1,56,0
212992,note_off,,,,,0,0,6,,,,1,71,0
212992,note_off,,,,,512,0,2,,,,2,71,0
213158,note_off,,,,,166,0,4,,,,12,72,0
213248,note_on,,,,,90,0,4,,,,12,69,127
213414,note_off,,,,,166,0,4,,,,12,69,0
213504,note_on,,,,,0,0,6,,,,1,62,62
213504,note_on,,,,,512,0,2,,,,2,74,62
213504,note_on,,,,,90,0,4,,,,12,77,127
213504,note_on,,,,,512,0,3,,,,6,65,62
213504,note_on,,,,,512,0,5,,,,3,62,75
213504,note_on,,,,,512,0,6,,,,1,62,78
213504,note_on,,,,,0,0,6,,,,1,65,78
213504,note_on,,,,,0,0,6,,,,1,69,78
213504,note_on,,,,,0,0,6,,,,1,74,78
213670,note_off,,,,,166,0,4,,,,12,77,0
213760,note_on,,,,,90,0,4,,,,12,74,127
213913,note_off,,,,,409,0,6,,,,1,65,0
213926,note_off,,,,,166,0,4,,,,12,74,0
214016,note_off,,,,,0,0,6,,,,1,69,0
214016,note_on,,,,,0,0,6,,,,1,57,62
214016,note_off,,,,,0,0,6,,,,1,62,0
214016,note_off,,,,,512,0,3,,,,6,65,0
214016,note_on,,,,,0,0,3,,,,6,64,62
214016,note_on,,,,,0,0,5,,,,3,57,75
214016,note_off,,,,,512,0,5,,,,3,62,0
214016,note_off,,,,,103,0,6,,,,1,62,0
214016,note_on,,,,,0,0,6,,,,1,72,78
214016,note_on,,,,,0,0,6,,,,1,64,78
214016,note_on,,,,,0,0,6,,,,1,57,78
214016,note_off,,,,,0,0,6,,,,1,74,0
214016,note_on,,,,,90,0,4,,,,12,76,127
214016,note_on,,,,,0,0,2,,,,2,72,62
214016,note_on,,,,,0,0,6,,,,1,69,78
214016,note_off,,,,,512,0,2,,,,2,74,0
214182,note_off,,,,,166,0,4,,,,12,76,0
214272,note_on,,,,,90,0,4,,,,12,72,127
214438,note_off,,,,,166,0,4,,,,12,72,0
214528,note_on,,,,,90,0,4,,,,12,74,127
214528,note_off,,,,,512,0,2,,,,2,72,0
214528,note_on,,,,,0,0,2,,,,2,71,62
214528,note_off,,,,,0,0,6,,,,1,72,0
214528,note_on,,,,,0,0,6,,,,1,68,78
214528,note_on,,,,,0,0,6,,,,1,71,78
214528,note_off,,,,,0,0,6,,,,1,57,0
214528,note_on,,,,,0,0,6,,,,1,52,62
214528,note_on,,,,,0,0,5,,,,3,52,75
214528,note_off,,,,,512,0,5,,,,3,57,0
214528,note_off,,,,,512,0,3,,,,6,64,0
214528,note_off,,,,,512,0,6,,,,1,57,0
214528,note_on,,,,,0,0,3,,,,6,68,62
214528,note_off,,,,,0,0,6,,,,1,69,0
214694,note_off,,,,,166,0,4,,,,12,74,0
214784,note_on,,,,,90,0,4,,,,12,71,127
214835,note_off,,,,,307,0,6,,,,1,64,0
214950,note_off,,,,,166,0,4,,,,12,71,0
215040,note_off,,,,,512,0,2,,,,2,71,0
215040,note_on,,,,,90,0,4,,,,12,72,127
215040,note_off,,,,,205,0,6,,,,1,52,0
215040,note_off,,,,,512,0,3,,,,6,68,0
215040,note_off,,,,,512,0,5,,,,3,52,0
215072,note_off,,,,,32,0,6,,,,1,68,0
215072,note_off,,,,,0,0,6,,,,1,71,0
215296,note_on,,,,,0,0,4,,,,12,69,127
215296,note_off,,,,,256,0,4,,,,12,72,0
215552,note_on,,,,,0,0,6,,,,1,74,78
215552,note_on,,,,,0,0,6,,,,1,69,78
215552,note_on,,,,,0,0,6,,,,1,65,78
215552,note_on,,,,,480,0,6,,,,1,62,78
215552,note_on,,,,,0,0,6,,,,1,62,62
215552,note_on,,,,,512,0,2,,,,2,74,62
215552,note_on,,,,,512,0,5,,,,3,62,75
215552,note_on,,,,,512,0,3,,,,6,65,62
215552,note_on,,,,,0,0,4,,,,12,77,127
215552,note_off,,,,,256,0,4,,,,12,69,0
215718,note_off,,,,,166,0,4,,,,12,77,0
215808,note_on,,,,,90,0,4,,,,12,74,127
215961,note_off,,,,,409,0,6,,,,1,65,0
215974,note_off,,,,,166,0,4,,,,12,74,0
216064,note_on,,,,,0,0,6,,,,1,72,78
216064,note_on,,,,,0,0,6,,,,1,69,78
216064,note_on,,,,,0,0,6,,,,1,64,78
216064,note_on,,,,,0,0,6,,,,1,57,78
216064,note_off,,,,,0,0,6,,,,1,74,0
216064,note_off,,,,,0,0,6,,,,1,69,0
216064,note_off,,,,,512,0,2,,,,2,74,0
216064,note_on,,,,,0,0,3,,,,6,64,62
216064,note_off,,,,,512,0,3,,,,6,65,0
216064,note_off,,,,,512,0,5,,,,3,62,0
216064,note_on,,,,,0,0,5,,,,3,57,75
216064,note_on,,,,,0,0,2,,,,2,72,62
216064,note_off,,,,,0,0,6,,,,1,62,0
216064,note_on,,,,,0,0,6,,,,1,57,62
216064,note_off,,,,,103,0,6,,,,1,62,0
216064,note_on,,,,,90,0,4,,,,12,76,127
216320,note_on,,,,,0,0,4,,,,12,72,127
216320,note_off,,,,,256,0,4,,,,12,76,0
216576,note_off,,,,,512,0,6,,,,1,57,0
216576,note_on,,,,,0,0,5,,,,3,52,75
216576,note_on,,,,,0,0,2,,,,2,71,62
216576,note_off,,,,,512,0,2,,,,2,72,0
216576,note_off,,,,,512,0,5,,,,3,57,0
216576,note_on,,,,,0,0,4,,,,12,74,127
216576,note_off,,,,,256,0,4,,,,12,72,0
216576,note_off,,,,,512,0,3,,,,6,64,0
216576,note_on,,,,,0,0,3,,,,6,68,62
216576,note_off,,,,,0,0,6,,,,1,69,0
216576,note_on,,,,,0,0,6,,,,1,52,62
216576,note_on,,,,,0,0,6,,,,1,71,78
216576,note_off,,,,,0,0,6,,,,1,72,0
216576,note_on,,,,,0,0,6,,,,1,68,78
216576,note_off,,,,,0,0,6,,,,1,57,0
216742,note_off,,,,,166,0,4,,,,12,74,0
216832,note_on,,,,,90,0,4,,,,12,71,127
216883,note_off,,,,,307,0,6,,,,1,64,0
216998,note_off,,,,,166,0,4,,,,12,71,0
217088,note_off,,,,,512,0,2,,,,2,71,0
217088,note_off,,,,,205,0,6,,,,1,68,0
217088,note_off,,,,,0,0,6,,,,1,52,0
217088,note_off,,,,,512,0,3,,,,6,68,0
217088,note_off,,,,,512,0,5,,,,3,52,0
217088,note_on,,,,,90,0,4,,,,12,72,127
217088,note_off,,,,,0,0,6,,,,1,71,0
217600,note_on,,,,,512,0,5,,,,3,57,75
217600,note_on,,,,,512,0,2,,,,2,72,62
217600,note_on,,,,,0,0,6,,,,1,57,62
217600,note_off,,,,,512,0,4,,,,12,72,0
217600,note_on,,,,,0,0,6,,,,1,69,43
217600,note_on,,,,,512,0,6,,,,1,60,43
217600,note_on,,,,,512,0,3,,,,6,64,62
217600,note_on,,,,,0,0,4,,,,12,69,127
218009,note_off,,,,,409,0,6,,,,1,60,0
218112,note_on,,,,,0,0,3,,,,6,64,62
218112,note_off,,,,,512,0,5,,,,3,57,0
218112,note_off,,,,,512,0,3,,,,6,64,0
218112,note_on,,,,,0,0,5,,,,3,60,75
218112,note_on,,,,,0,0,2,,,,2,69,62
218112,note_on,,,,,0,0,6,,,,1,60,62
218112,note_off,,,,,0,0,6,,,,1,57,0
218112,note_off,,,,,512,0,2,,,,2,72,0
218112,note_on,,,,,103,0,6,,,,1,64,43
218144,note_off,,,,,544,0,4,,,,12,69,0
218419,note_off,,,,,307,0,6,,,,1,69,0
218521,note_off,,,,,102,0,6,,,,1,64,0
218624,note_on,,,,,0,0,6,,,,1,57,62
218624,note_on,,,,,103,0,6,,,,1,60,43
218624,note_off,,,,,0,0,6,,,,1,60,0
218624,note_on,,,,,0,0,6,,,,1,69,43
218624,note_off,,,,,512,0,2,,,,2,69,0
218624,note_on,,,,,0,0,2,,,,2,72,62
218624,note_off,,,,,512,0,5,,,,3,60,0
218624,note_on,,,,,0,0,5,,,,3,57,75
218624,note_on,,,,,480,0,4,,,,12,81,127
219033,note_off,,,,,409,0,4,,,,12,81,0
219033,note_off,,,,,0,0,6,,,,1,69,0
219033,note_off,,,,,409,0,6,,,,1,60,0
219136,note_on,,,,,0,0,3,,,,6,71,62
219136,note_off,,,,,1024,0,3,,,,6,64,0
219136,note_off,,,,,512,0,5,,,,3,57,0
219136,note_on,,,,,0,0,6,,,,1,59,62
219136,note_on,,,,,0,0,5,,,,3,59,75
219136,note_on,,,,,0,0,6,,,,1,63,78
219136,note_on,,,,,0,0,6,,,,1,71,43
219136,note_on,,,,,0,0,6,,,,1,78,43
219136,note_off,,,,,0,0,6,,,,1,57,0
219136,note_off,,,,,512,0,2,,,,2,72,0
219136,note_on,,,,,0,0,2,,,,2,78,62
219136,note_on,,,,,103,0,6,,,,1,59,78
219136,note_on,,,,,103,0,4,,,,12,75,127
219272,note_off,,,,,136,0,6,,,,1,78,0
219306,note_on,,,,,34,0,6,,,,1,76,43
219307,note_off,,,,,171,0,2,,,,2,78,0
219307,note_on,,,,,0,0,2,,,,2,76,62
219443,note_off,,,,,137,0,6,,,,1,76,0
219477,note_off,,,,,170,0,2,,,,2,76,0
219477,note_on,,,,,0,0,2,,,,2,75,62
219477,note_on,,,,,34,0,6,,,,1,75,43
219545,note_off,,,,,0,0,6,,,,1,63,0
219545,note_off,,,,,68,0,6,,,,1,59,0
219545,note_off,,,,,0,0,6,,,,1,71,0
219613,note_off,,,,,68,0,6,,,,1,75,0
219648,note_off,,,,,512,0,3,,,,6,71,0
219648,note_on,,,,,0,0,2,,,,2,75,62
219648,note_off,,,,,171,0,2,,,,2,75,0
219648,note_on,,,,,35,0,6,,,,1,59,78
219648,note_on,,,,,0,0,6,,,,1,66,43
219648,note_on,,,,,0,0,6,,,,1,75,43
219784,note_off,,,,,136,0,6,,,,1,75,0
219818,note_on,,,,,34,0,6,,,,1,72,43
219819,note_on,,,,,0,0,2,,,,2,73,62
219819,note_off,,,,,171,0,2,,,,2,75,0
219955,note_off,,,,,137,0,6,,,,1,72,0
219989,note_on,,,,,0,0,2,,,,2,71,62
219989,note_off,,,,,170,0,2,,,,2,73,0
219989,note_on,,,,,34,0,6,,,,1,71,43
220057,note_off,,,,,68,0,6,,,,1,59,0
220057,note_off,,,,,0,0,6,,,,1,66,0
220125,note_off,,,,,68,0,6,,,,1,71,0
220160,note_off,,,,,0,0,6,,,,1,59,0
220160,note_on,,,,,0,0,6,,,,1,57,62
220160,note_on,,,,,0,0,6,,,,1,78,43
220160,note_on,,,,,0,0,6,,,,1,71,43
220160,note_on,,,,,0,0,6,,,,1,63,78
220160,note_on,,,,,35,0,6,,,,1,57,78
220160,note_on,,,,,512,0,3,,,,6,71,62
220160,note_off,,,,,1024,0,5,,,,3,59,0
220160,note_off,,,,,171,0,2,,,,2,71,0
220160,note_on,,,,,0,0,2,,,,2,78,62
220160,note_on,,,,,0,0,5,,,,3,57,75
220296,note_off,,,,,136,0,6,,,,1,78,0
220330,note_on,,,,,34,0,6,,,,1,76,43
220331,note_off,,,,,171,0,2,,,,2,78,0
220331,note_on,,,,,0,0,2,,,,2,76,62
220467,note_off,,,,,137,0,6,,,,1,76,0
220501,note_on,,,,,34,0,6,,,,1,75,43
220501,note_off,,,,,170,0,2,,,,2,76,0
220501,note_on,,,,,0,0,2,,,,2,75,62
220569,note_off,,,,,0,0,6,,,,1,63,0
220569,note_off,,,,,68,0,6,,,,1,57,0
220569,note_off,,,,,0,0,6,,,,1,71,0
220637,note_off,,,,,68,0,6,,,,1,75,0
220672,note_on,,,,,0,0,6,,,,1,75,43
220672,note_off,,,,,512,0,3,,,,6,71,0
220672,note_on,,,,,0,0,6,,,,1,66,43
220672,note_on,,,,,35,0,6,,,,1,57,78
220672,note_off,,,,,171,0,2,,,,2,75,0
220672,note_on,,,,,0,0,2,,,,2,75,62
220774,note_off,,,,,1638,0,4,,,,12,75,0
220808,note_off,,,,,136,0,6,,,,1,75,0
220842,note_on,,,,,34,0,6,,,,1,72,43
220843,note_on,,,,,0,0,2,,,,2,73,62
220843,note_off,,,,,171,0,2,,,,2,75,0
220979,note_off,,,,,137,0,6,,,,1,72,0
221013,note_on,,,,,34,0,6,,,,1,71,43
221013,note_on,,,,,0,0,2,,,,2,71,62
221013,note_off,,,,,170,0,2,,,,2,73,0
221081,note_off,,,,,68,0,6,,,,1,57,0
221081,note_off,,,,,0,0,6,,,,1,66,0
221149,note_off,,,,,68,0,6,,,,1,71,0
221184,note_on,,,,,410,0,4,,,,12,76,127
221184,note_off,,,,,35,0,6,,,,1,57,0
221184,note_on,,,,,0,0,6,,,,1,55,78
221184,note_on,,,,,0,0,6,,,,1,64,78
221184,note_on,,,,,0,0,6,,,,1,71,62
221184,note_on,,,,,0,0,6,,,,1,83,62
221184,note_off,,,,,1024,0,5,,,,3,57,0
221184,note_on,,,,,0,0,5,,,,3,55,75
221184,note_on,,,,,512,0,3,,,,6,76,62
221184,note_off,,,,,171,0,2,,,,2,71,0
221184,note_on,,,,,0,0,2,,,,2,83,62
221184,note_on,,,,,0,0,6,,,,1,55,62
221320,note_off,,,,,136,0,4,,,,12,76,0
221354,note_on,,,,,34,0,4,,,,12,78,127
221491,note_off,,,,,137,0,4,,,,12,78,0
221525,note_on,,,,,34,0,4,,,,12,79,127
221593,note_off,,,,,0,0,6,,,,1,64,0
221593,note_off,,,,,0,0,6,,,,1,71,0
221593,note_off,,,,,0,0,6,,,,1,83,0
221593,note_off,,,,,409,0,6,,,,1,55,0
221661,note_off,,,,,136,0,4,,,,12,79,0
221696,note_on,,,,,35,0,4,,,,12,79,127
221696,note_on,,,,,103,0,6,,,,1,55,78
221696,note_on,,,,,0,0,6,,,,1,64,78
221832,note_off,,,,,136,0,4,,,,12,79,0
221866,note_on,,,,,34,0,4,,,,12,81,127
222003,note_off,,,,,137,0,4,,,,12,81,0
222037,note_on,,,,,34,0,4,,,,12,83,127
222105,note_off,,,,,0,0,6,,,,1,64,0
222105,note_off,,,,,409,0,6,,,,1,55,0
222173,note_off,,,,,136,0,4,,,,12,83,0
222208,note_off,,,,,1024,0,5,,,,3,55,0
222208,note_on,,,,,0,0,5,,,,3,55,75
222208,note_off,,,,,0,0,6,,,,1,55,0
222208,note_on,,,,,0,0,6,,,,1,64,78
222208,note_on,,,,,0,0,3,,,,6,76,62
222208,note_on,,,,,103,0,6,,,,1,55,78
222208,note_off,,,,,1024,0,2,,,,2,83,0
222208,note_on,,,,,35,0,4,,,,12,83,127
222208,note_off,,,,,1024,0,3,,,,6,76,0
222208,note_on,,,,,0,0,6,,,,1,55,62
222617,note_off,,,,,409,0,6,,,,1,55,0
222617,note_off,,,,,409,0,4,,,,12,83,0
222617,note_off,,,,,0,0,6,,,,1,64,0
222720,note_on,,,,,512,0,2,,,,2,79,62
222720,note_on,,,,,0,0,6,,,,1,79,51
222720,note_on,,,,,0,0,6,,,,1,71,51
222720,note_on,,,,,0,0,6,,,,1,64,78
222720,note_on,,,,,103,0,6,,,,1,55,78
223129,note_off,,,,,409,0,6,,,,1,55,0
223129,note_off,,,,,0,0,6,,,,1,71,0
223129,note_off,,,,,0,0,6,,,,1,79,0
223129,note_off,,,,,0,0,6,,,,1,64,0
223232,note_on,,,,,615,0,4,,,,12,73,127
223232,note_on,,,,,0,0,2,,,,2,76,62
223232,note_on,,,,,0,0,3,,,,6,69,62
223232,note_on,,,,,0,0,5,,,,3,57,75
223232,note_on,,,,,103,0,6,,,,1,57,78
223232,note_on,,,,,0,0,6,,,,1,61,78
223232,note_on,,,,,0,0,6,,,,1,69,48
223232,note_on,,,,,0,0,6,,,,1,76,48
223232,note_off,,,,,1024,0,5,,,,3,55,0
223232,note_off,,,,,0,0,6,,,,1,55,0
223232,note_on,,,,,0,0,6,,,,1,57,62
223232,note_off,,,,,512,0,2,,,,2,79,0
223232,note_off,,,,,1024,0,3,,,,6,76,0
223368,note_off,,,,,136,0,6,,,,1,76,0
223402,note_on,,,,,34,0,6,,,,1,74,47
223403,note_off,,,,,171,0,2,,,,2,76,0
223403,note_on,,,,,0,0,2,,,,2,74,62
223539,note_off,,,,,137,0,6,,,,1,74,0
223573,note_on,,,,,34,0,6,,,,1,73,46
223573,note_on,,,,,0,0,2,,,,2,73,62
223573,note_off,,,,,170,0,2,,,,2,74,0
223641,note_off,,,,,0,0,6,,,,1,69,0
223641,note_off,,,,,0,0,6,,,,1,61,0
223641,note_off,,,,,68,0,6,,,,1,57,0
223709,note_off,,,,,68,0,6,,,,1,73,0
223744,note_on,,,,,0,0,2,,,,2,73,62
223744,note_off,,,,,171,0,2,,,,2,73,0
223744,note_on,,,,,35,0,6,,,,1,57,78
223744,note_on,,,,,0,0,6,,,,1,64,44
223744,note_on,,,,,0,0,6,,,,1,73,44
223744,note_off,,,,,512,0,3,,,,6,69,0
223880,note_off,,,,,136,0,6,,,,1,73,0
223914,note_on,,,,,34,0,6,,,,1,71,43
223915,note_on,,,,,0,0,2,,,,2,71,62
223915,note_off,,,,,171,0,2,,,,2,73,0
224051,note_off,,,,,137,0,6,,,,1,71,0
224085,note_on,,,,,34,0,6,,,,1,69,42
224085,note_on,,,,,0,0,2,,,,2,69,62
224085,note_off,,,,,170,0,2,,,,2,71,0
224153,note_off,,,,,0,0,6,,,,1,64,0
224153,note_off,,,,,68,0,6,,,,1,57,0
224221,note_off,,,,,68,0,6,,,,1,69,0
224256,note_on,,,,,35,0,6,,,,1,55,78
224256,note_on,,,,,0,0,6,,,,1,61,78
224256,note_off,,,,,171,0,2,,,,2,69,0
224256,note_on,,,,,0,0,2,,,,2,76,62
224256,note_on,,,,,0,0,6,,,,1,69,41
224256,note_on,,,,,0,0,6,,,,1,76,41
224256,note_off,,,,,0,0,6,,,,1,57,0
224256,note_off,,,,,1024,0,5,,,,3,57,0
224256,note_on,,,,,0,0,5,,,,3,55,75
224256,note_on,,,,,0,0,6,,,,1,55,62
224256,note_on,,,,,512,0,3,,,,6,69,62
224392,note_off,,,,,136,0,6,,,,1,76,0
224426,note_on,,,,,34,0,6,,,,1,74,40
224427,note_off,,,,,171,0,2,,,,2,76,0
224427,note_on,,,,,0,0,2,,,,2,74,62
224563,note_off,,,,,137,0,6,,,,1,74,0
224597,note_on,,,,,34,0,6,,,,1,73,39
224597,note_off,,,,,170,0,2,,,,2,74,0
224597,note_on,,,,,0,0,2,,,,2,73,62
224665,note_off,,,,,68,0,6,,,,1,55,0
224665,note_off,,,,,0,0,6,,,,1,61,0
224665,note_off,,,,,0,0,6,,,,1,69,0
224733,note_off,,,,,68,0,6,,,,1,73,0
224768,note_off,,,,,512,0,3,,,,6,69,0
224768,note_on,,,,,0,0,2,,,,2,73,62
224768,note_off,,,,,171,0,2,,,,2,73,0
224768,note_on,,,,,35,0,6,,,,1,55,78
224768,note_on,,,,,0,0,6,,,,1,73,37
224768,note_on,,,,,0,0,6,,,,1,64,37
224870,note_off,,,,,1638,0,4,,,,12,73,0
224904,note_off,,,,,136,0,6,,,,1,73,0
224938,note_on,,,,,34,0,6,,,,1,71,36
224939,note_on,,,,,0,0,2,,,,2,71,62
224939,note_off,,,,,171,0,2,,,,2,73,0
225075,note_off,,,,,137,0,6,,,,1,71,0
225109,note_on,,,,,0,0,2,,,,2,69,62
225109,note_on,,,,,34,0,6,,,,1,69,35
225109,note_off,,,,,170,0,2,,,,2,71,0
225177,note_off,,,,,0,0,6,,,,1,64,0
225177,note_off,,,,,68,0,6,,,,1,55,0
225245,note_off,,,,,68,0,6,,,,1,69,0
225280,note_on,,,,,0,0,5,,,,3,53,75
225280,note_off,,,,,1024,0,5,,,,3,55,0
225280,note_on,,,,,0,0,2,,,,2,81,62
225280,note_on,,,,,512,0,3,,,,6,69,62
225280,note_on,,,,,410,0,4,,,,12,74,127
225280,note_on,,,,,0,0,6,,,,1,53,78
225280,note_off,,,,,171,0,2,,,,2,69,0
225280,note_off,,,,,35,0,6,,,,1,55,0
225280,note_on,,,,,0,0,6,,,,1,53,62
225280,note_on,,,,,0,0,6,,,,1,62,78
225280,note_on,,,,,0,0,6,,,,1,69,62
225280,note_on,,,,,0,0,6,,,,1,81,62
225416,note_off,,,,,136,0,4,,,,12,74,0
225450,note_on,,,,,34,0,4,,,,12,76,127
225587,note_off,,,,,137,0,4,,,,12,76,0
225621,note_on,,,,,34,0,4,,,,12,77,127
225689,note_off,,,,,0,0,6,,,,1,81,0
225689,note_off,,,,,0,0,6,,,,1,69,0
225689,note_off,,,,,409,0,6,,,,1,53,0
225689,note_off,,,,,0,0,6,,,,1,62,0
225757,note_off,,,,,136,0,4,,,,12,77,0
225792,note_on,,,,,35,0,4,,,,12,77,127
225792,note_on,,,,,0,0,6,,,,1,62,78
225792,note_on,,,,,103,0,6,,,,1,53,78
225928,note_off,,,,,136,0,4,,,,12,77,0
225962,note_on,,,,,34,0,4,,,,12,79,127
226099,note_off,,,,,137,0,4,,,,12,79,0
226133,note_on,,,,,34,0,4,,,,12,81,127
226201,note_off,,,,,0,0,6,,,,1,62,0
226201,note_off,,,,,409,0,6,,,,1,53,0
226269,note_off,,,,,136,0,4,,,,12,81,0
226304,note_off,,,,,1024,0,5,,,,3,53,0
226304,note_on,,,,,0,0,5,,,,3,53,75
226304,note_off,,,,,0,0,6,,,,1,53,0
226304,note_on,,,,,0,0,6,,,,1,62,78
226304,note_on,,,,,103,0,6,,,,1,53,78
226304,note_on,,,,,0,0,6,,,,1,53,62
226304,note_off,,,,,1024,0,2,,,,2,81,0
226304,note_on,,,,,0,0,3,,,,6,74,62
226304,note_on,,,,,35,0,4,,,,12,81,127
226304,note_off,,,,,1024,0,3,,,,6,69,0
226713,note_off,,,,,409,0,4,,,,12,81,0
226713,note_off,,,,,409,0,6,,,,1,53,0
226713,note_off,,,,,0,0,6,,,,1,62,0
226816,note_on,,,,,512,0,2,,,,2,77,62
226816,note_on,,,,,0,0,6,,,,1,77,51
226816,note_on,,,,,0,0,6,,,,1,69,51
226816,note_on,,,,,0,0,6,,,,1,62,78
226816,note_on,,,,,103,0,6,,,,1,53,78
227225,note_off,,,,,409,0,6,,,,1,53,0
227225,note_off,,,,,0,0,6,,,,1,62,0
227225,note_off,,,,,0,0,6,,,,1,69,0
227225,note_off,,,,,0,0,6,,,,1,77,0
227328,note_off,,,,,1024,0,3,,,,6,74,0
227328,note_on,,,,,103,0,6,,,,1,55,78
227328,note_off,,,,,1024,0,5,,,,3,53,0
227328,note_off,,,,,512,0,2,,,,2,77,0
227328,note_on,,,,,0,0,6,,,,1,67,48
227328,note_on,,,,,0,0,6,,,,1,74,48
227328,note_off,,,,,0,0,6,,,,1,53,0
227328,note_on,,,,,0,0,6,,,,1,55,62
227328,note_on,,,,,615,0,4,,,,12,71,127
227328,note_on,,,,,0,0,2,,,,2,74,62
227328,note_on,,,,,0,0,3,,,,6,67,62
227328,note_on,,,,,0,0,5,,,,3,55,75
227328,note_on,,,,,0,0,6,,,,1,59,78
227464,note_off,,,,,136,0,6,,,,1,74,0
227498,note_on,,,,,34,0,6,,,,1,72,47
227499,note_off,,,,,171,0,2,,,,2,74,0
227499,note_on,,,,,0,0,2,,,,2,72,62
227635,note_off,,,,,137,0,6,,,,1,72,0
227669,note_off,,,,,170,0,2,,,,2,72,0
227669,note_on,,,,,0,0,2,,,,2,71,62
227669,note_on,,,,,34,0,6,,,,1,71,46
227737,note_off,,,,,68,0,6,,,,1,55,0
227737,note_off,,,,,0,0,6,,,,1,59,0
227737,note_off,,,,,0,0,6,,,,1,67,0
227805,note_off,,,,,68,0,6,,,,1,71,0
227840,note_on,,,,,0,0,6,,,,1,62,44
227840,note_on,,,,,35,0,6,,,,1,55,78
227840,note_off,,,,,512,0,3,,,,6,67,0
227840,note_on,,,,,0,0,6,,,,1,71,44
227840,note_on,,,,,0,0,2,,,,2,71,62
227840,note_off,,,,,171,0,2,,,,2,71,0
227976,note_off,,,,,136,0,6,,,,1,71,0
228010,note_on,,,,,34,0,6,,,,1,69,43
228011,note_off,,,,,171,0,2,,,,2,71,0
228011,note_on,,,,,0,0,2,,,,2,69,62
228147,note_off,,,,,137,0,6,,,,1,69,0
228181,note_on,,,,,34,0,6,,,,1,67,42
228181,note_on,,,,,0,0,2,,,,2,67,62
228181,note_off,,,,,170,0,2,,,,2,69,0
228249,note_off,,,,,0,0,6,,,,1,62,0
228249,note_off,,,,,68,0,6,,,,1,55,0
228317,note_off,,,,,68,0,6,,,,1,67,0
228352,note_off,,,,,171,0,2,,,,2,67,0
228352,note_on,,,,,512,0,3,,,,6,67,62
228352,note_on,,,,,0,0,2,,,,2,74,62
228352,note_on,,,,,0,0,5,,,,3,53,75
228352,note_off,,,,,1024,0,5,,,,3,55,0
228352,note_on,,,,,0,0,6,,,,1,53,62
228352,note_off,,,,,0,0,6,,,,1,55,0
228352,note_on,,,,,0,0,6,,,,1,74,41
228352,note_on,,,,,35,0,6,,,,1,53,78
228352,note_on,,,,,0,0,6,,,,1,59,78
228352,note_on,,,,,0,0,6,,,,1,67,41
228488,note_off,,,,,136,0,6,,,,1,74,0
228522,note_on,,,,,34,0,6,,,,1,72,40
228523,note_on,,,,,0,0,2,,,,2,72,62
228523,note_off,,,,,171,0,2,,,,2,74,0
228659,note_off,,,,,137,0,6,,,,1,72,0
228693,note_on,,,,,0,0,2,,,,2,71,62
228693,note_off,,,,,170,0,2,,,,2,72,0
228693,note_on,,,,,34,0,6,,,,1,71,39
228761,note_off,,,,,0,0,6,,,,1,67,0
228761,note_off,,,,,0,0,6,,,,1,59,0
228761,note_off,,,,,68,0,6,,,,1,53,0
228829,note_off,,,,,68,0,6,,,,1,71,0
228864,note_on,,,,,35,0,6,,,,1,53,78
228864,note_on,,,,,0,0,2,,,,2,71,62
228864,note_off,,,,,171,0,2,,,,2,71,0
228864,note_off,,,,,512,0,3,,,,6,67,0
228864,note_on,,,,,0,0,6,,,,1,71,37
228864,note_on,,,,,0,0,6,,,,1,62,37
228966,note_off,,,,,1638,0,4,,,,12,71,0
229000,note_off,,,,,136,0,6,,,,1,71,0
229034,note_on,,,,,34,0,6,,,,1,69,36
229035,note_off,,,,,171,0,2,,,,2,71,0
229035,note_on,,,,,0,0,2,,,,2,69,62
229171,note_off,,,,,137,0,6,,,,1,69,0
229205,note_on,,,,,34,0,6,,,,1,67,35
229205,note_off,,,,,170,0,2,,,,2,69,0
229205,note_on,,,,,0,0,2,,,,2,67,62
229273,note_off,,,,,0,0,6,,,,1,62,0
229273,note_off,,,,,68,0,6,,,,1,53,0
229341,note_off,,,,,68,0,6,,,,1,67,0
229376,note_on,,,,,0,0,6,,,,1,67,62
229376,note_on,,,,,0,0,6,,,,1,79,62
229376,note_on,,,,,0,0,6,,,,1,52,62
229376,note_off,,,,,35,0,6,,,,1,53,0
229376,note_on,,,,,0,0,5,,,,3,52,75
229376,note_off,,,,,1024,0,5,,,,3,53,0
229376,note_on,,,,,512,0,3,,,,6,67,62
229376,note_on,,,,,0,0,6,,,,1,60,78
229376,note_on,,,,,0,0,2,,,,2,79,62
229376,note_off,,,,,171,0,2,,,,2,67,0
229376,note_on,,,,,410,0,4,,,,12,72,127
229546,note_off,,,,,170,0,4,,,,12,72,0
229546,note_on,,,,,0,0,4,,,,12,74,127
229717,note_off,,,,,171,0,4,,,,12,74,0
229717,note_on,,,,,0,0,4,,,,12,76,127
229785,note_off,,,,,409,0,6,,,,1,60,0
229785,note_off,,,,,0,0,6,,,,1,67,0
229785,note_off,,,,,0,0,6,,,,1,79,0
229888,note_off,,,,,171,0,4,,,,12,76,0
229888,note_on,,,,,103,0,6,,,,1,60,78
229888,note_on,,,,,0,0,4,,,,12,76,127
230058,note_off,,,,,170,0,4,,,,12,76,0
230058,note_on,,,,,0,0,4,,,,12,77,127
230229,note_off,,,,,171,0,4,,,,12,77,0
230229,note_on,,,,,0,0,4,,,,12,79,127
230297,note_off,,,,,409,0,6,,,,1,60,0
230400,note_off,,,,,1024,0,5,,,,3,52,0
230400,note_on,,,,,0,0,5,,,,3,52,75
230400,note_on,,,,,0,0,6,,,,1,52,62
230400,note_off,,,,,1024,0,2,,,,2,79,0
230400,note_on,,,,,0,0,3,,,,6,72,62
230400,note_off,,,,,171,0,4,,,,12,79,0
230400,note_on,,,,,0,0,4,,,,12,79,127
230400,note_on,,,,,103,0,6,,,,1,60,78
230400,note_off,,,,,0,0,6,,,,1,52,0
230400,note_off,,,,,1024,0,3,,,,6,67,0
230809,note_off,,,,,409,0,6,,,,1,60,0
230912,note_on,,,,,103,0,6,,,,1,60,78
230912,note_on,,,,,0,0,6,,,,1,76,51
230912,note_on,,,,,0,0,6,,,,1,67,51
230912,note_on,,,,,512,0,2,,,,2,76,62
230912,note_off,,,,,512,0,4,,,,12,79,0
231321,note_off,,,,,0,0,6,,,,1,76,0
231321,note_off,,,,,0,0,6,,,,1,67,0
231321,note_off,,,,,409,0,6,,,,1,60,0
231424,note_off,,,,,512,0,2,,,,2,76,0
231424,note_on,,,,,0,0,3,,,,6,65,62
231424,note_on,,,,,0,0,6,,,,1,53,62
231424,note_off,,,,,0,0,6,,,,1,52,0
231424,note_on,,,,,103,0,6,,,,1,53,78
231424,note_on,,,,,0,0,2,,,,2,72,62
231424,note_on,,,,,0,0,6,,,,1,57,78
231424,note_on,,,,,0,0,6,,,,1,65,48
231424,note_on,,,,,512,0,4,,,,12,69,127
231424,note_on,,,,,0,0,5,,,,3,53,75
231424,note_off,,,,,1024,0,5,,,,3,52,0
231424,note_on,,,,,0,0,6,,,,1,72,48
231424,note_off,,,,,1024,0,3,,,,6,72,0
231560,note_off,,,,,136,0,6,,,,1,72,0
231594,note_on,,,,,34,0,6,,,,1,71,47
231595,note_off,,,,,171,0,2,,,,2,72,0
231595,note_on,,,,,0,0,2,,,,2,71,62
231731,note_off,,,,,137,0,6,,,,1,71,0
231765,note_on,,,,,0,0,2,,,,2,69,62
231765,note_off,,,,,170,0,2,,,,2,71,0
231765,note_on,,,,,34,0,6,,,,1,69,46
231833,note_off,,,,,68,0,6,,,,1,53,0
231833,note_off,,,,,0,0,6,,,,1,65,0
231833,note_off,,,,,0,0,6,,,,1,57,0
231901,note_off,,,,,68,0,6,,,,1,69,0
231936,note_off,,,,,512,0,3,,,,6,65,0
231936,note_on,,,,,35,0,6,,,,1,53,78
231936,note_off,,,,,171,0,2,,,,2,69,0
231936,note_on,,,,,0,0,2,,,,2,69,62
231936,note_on,,,,,0,0,6,,,,1,60,44
231936,note_on,,,,,0,0,6,,,,1,69,44
232072,note_off,,,,,136,0,6,,,,1,69,0
232106,note_on,,,,,34,0,6,,,,1,67,43
232107,note_on,,,,,0,0,2,,,,2,67,62
232107,note_off,,,,,171,0,2,,,,2,69,0
232243,note_off,,,,,137,0,6,,,,1,67,0
232277,note_off,,,,,170,0,2,,,,2,67,0
232277,note_on,,,,,0,0,2,,,,2,65,62
232277,note_on,,,,,34,0,6,,,,1,65,42
232345,note_off,,,,,68,0,6,,,,1,53,0
232345,note_off,,,,,0,0,6,,,,1,60,0
232413,note_off,,,,,68,0,6,,,,1,65,0
232448,note_on,,,,,0,0,5,,,,3,52,75
232448,note_off,,,,,1024,0,5,,,,3,53,0
232448,note_off,,,,,0,0,6,,,,1,53,0
232448,note_on,,,,,0,0,6,,,,1,65,41
232448,note_on,,,,,0,0,6,,,,1,52,62
232448,note_on,,,,,0,0,6,,,,1,72,41
232448,note_on,,,,,512,0,3,,,,6,65,62
232448,note_on,,,,,35,0,6,,,,1,57,78
232448,note_on,,,,,0,0,2,,,,2,72,62
232448,note_off,,,,,171,0,2,,,,2,65,0
232584,note_off,,,,,136,0,6,,,,1,72,0
232618,note_on,,,,,34,0,6,,,,1,71,40
232619,note_on,,,,,0,0,2,,,,2,71,62
232619,note_off,,,,,171,0,2,,,,2,72,0
232755,note_off,,,,,137,0,6,,,,1,71,0
232789,note_on,,,,,0,0,2,,,,2,69,62
232789,note_off,,,,,170,0,2,,,,2,71,0
232789,note_on,,,,,34,0,6,,,,1,69,39
232857,note_off,,,,,0,0,6,,,,1,65,0
232857,note_off,,,,,68,0,6,,,,1,57,0
232925,note_off,,,,,68,0,6,,,,1,69,0
232960,note_off,,,,,512,0,3,,,,6,65,0
232960,note_on,,,,,35,0,6,,,,1,60,37
232960,note_on,,,,,0,0,6,,,,1,69,37
232960,note_off,,,,,171,0,2,,,,2,69,0
232960,note_on,,,,,0,0,2,,,,2,69,62
233096,note_off,,,,,136,0,6,,,,1,69,0
233130,note_on,,,,,34,0,6,,,,1,67,36
233131,note_on,,,,,0,0,2,,,,2,67,62
233131,note_off,,,,,171,0,2,,,,2,69,0
233267,note_off,,,,,137,0,6,,,,1,67,0
233301,note_on,,,,,34,0,6,,,,1,65,35
233301,note_on,,,,,0,0,2,,,,2,65,62
233301,note_off,,,,,170,0,2,,,,2,67,0
233369,note_off,,,,,68,0,6,,,,1,60,0
233437,note_off,,,,,68,0,6,,,,1,65,0
233472,note_off,,,,,1024,0,5,,,,3,52,0
233472,note_on,,,,,512,0,3,,,,6,71,62
233472,note_on,,,,,0,0,5,,,,3,50,75
233472,note_off,,,,,171,0,2,,,,2,65,0
233472,note_on,,,,,0,0,6,,,,1,65,78
233472,note_on,,,,,0,0,2,,,,2,77,62
233472,note_on,,,,,0,0,6,,,,1,50,62
233472,note_on,,,,,0,0,6,,,,1,77,78
233472,note_on,,,,,0,0,6,,,,1,59,78
233472,note_on,,,,,0,0,4,,,,12,71,127
233472,note_off,,,,,2048,0,4,,,,12,69,0
233472,note_off,,,,,35,0,6,,,,1,52,0
233608,note_off,,,,,136,0,4,,,,12,71,0
233642,note_on,,,,,34,0,4,,,,12,72,127
233779,note_off,,,,,137,0,4,,,,12,72,0
233813,note_on,,,,,34,0,4,,,,12,74,127
233881,note_off,,,,,409,0,6,,,,1,59,0
233881,note_off,,,,,0,0,6,,,,1,65,0
233881,note_off,,,,,0,0,6,,,,1,77,0
233949,note_off,,,,,136,0,4,,,,12,74,0
233984,note_on,,,,,35,0,4,,,,12,74,127
233984,note_on,,,,,0,0,6,,,,1,50,62
233984,note_on,,,,,103,0,6,,,,1,65,78
233984,note_off,,,,,0,0,6,,,,1,50,0
233984,note_on,,,,,0,0,5,,,,3,50,75
233984,note_off,,,,,512,0,5,,,,3,50,0
234120,note_off,,,,,136,0,4,,,,12,74,0
234154,note_on,,,,,34,0,4,,,,12,76,127
234291,note_off,,,,,137,0,4,,,,12,76,0
234325,note_on,,,,,34,0,4,,,,12,77,127
234393,note_off,,,,,409,0,6,,,,1,65,0
234461,note_off,,,,,136,0,4,,,,12,77,0
234496,note_off,,,,,0,0,6,,,,1,50,0
234496,note_on,,,,,0,0,6,,,,1,56,62
234496,note_off,,,,,1024,0,2,,,,2,77,0
234496,note_on,,,,,103,0,6,,,,1,56,78
234496,note_off,,,,,512,0,5,,,,3,50,0
234496,note_on,,,,,0,0,5,,,,3,56,75
234496,note_on,,,,,0,0,3,,,,6,65,62
234496,note_off,,,,,1024,0,3,,,,6,71,0
234496,note_on,,,,,0,0,6,,,,1,64,78
234496,note_on,,,,,35,0,4,,,,12,77,127
234496,note_on,,,,,0,0,2,,,,2,71,62
234632,note_off,,,,,136,0,4,,,,12,77,0
234666,note_on,,,,,34,0,4,,,,12,76,127
234803,note_off,,,,,137,0,4,,,,12,76,0
234837,note_on,,,,,34,0,4,,,,12,74,127
234905,note_off,,,,,409,0,6,,,,1,56,0
234905,note_off,,,,,0,0,6,,,,1,64,0
234973,note_off,,,,,136,0,4,,,,12,74,0
235008,note_off,,,,,512,0,5,,,,3,56,0
235008,note_on,,,,,0,0,5,,,,3,56,75
235008,note_on,,,,,103,0,6,,,,1,56,78
235008,note_on,,,,,0,0,6,,,,1,64,78
235008,note_on,,,,,0,0,6,,,,1,71,78
235008,note_on,,,,,35,0,4,,,,12,74,127
235008,note_on,,,,,0,0,6,,,,1,56,62
235008,note_off,,,,,0,0,6,,,,1,56,0
235144,note_off,,,,,136,0,4,,,,12,74,0
235178,note_on,,,,,34,0,4,,,,12,72,127
235315,note_off,,,,,137,0,4,,,,12,72,0
235349,note_on,,,,,34,0,4,,,,12,71,127
235417,note_off,,,,,0,0,6,,,,1,71,0
235417,note_off,,,,,0,0,6,,,,1,64,0
235417,note_off,,,,,409,0,6,,,,1,56,0
235485,note_off,,,,,136,0,4,,,,12,71,0
235520,note_on,,,,,0,0,2,,,,2,72,62
235520,note_off,,,,,1024,0,2,,,,2,71,0
235520,note_on,,,,,0,0,6,,,,1,57,62
235520,note_off,,,,,0,0,6,,,,1,56,0
235520,note_on,,,,,0,0,6,,,,1,72,78
235520,note_on,,,,,0,0,6,,,,1,64,78
235520,note_on,,,,,0,0,5,,,,3,57,75
235520,note_on,,,,,103,0,6,,,,1,57,78
235520,note_on,,,,,35,0,4,,,,12,72,127
235520,note_off,,,,,512,0,5,,,,3,56,0
235520,note_on,,,,,0,0,3,,,,6,64,62
235520,note_off,,,,,1024,0,3,,,,6,65,0
235724,note_off,,,,,204,0,4,,,,12,72,0
235776,note_on,,,,,52,0,4,,,,12,76,127
235929,note_off,,,,,409,0,6,,,,1,57,0
235929,note_off,,,,,0,0,6,,,,1,72,0
235929,note_off,,,,,0,0,6,,,,1,64,0
236032,note_on,,,,,0,0,6,,,,1,72,78
236032,note_off,,,,,0,0,6,,,,1,57,0
236032,note_on,,,,,0,0,6,,,,1,64,78
236032,note_on,,,,,103,0,6,,,,1,60,78
236032,note_on,,,,,0,0,6,,,,1,60,62
236032,note_on,,,,,0,0,2,,,,2,69,62
236032,note_off,,,,,512,0,2,,,,2,72,0
236032,note_off,,,,,512,0,5,,,,3,57,0
236032,note_on,,,,,0,0,5,,,,3,60,75
236390,note_off,,,,,614,0,4,,,,12,76,0
236441,note_off,,,,,0,0,6,,,,1,64,0
236441,note_off,,,,,0,0,6,,,,1,72,0
236441,note_off,,,,,409,0,6,,,,1,60,0
236544,note_on,,,,,103,0,6,,,,1,57,78
236544,note_on,,,,,0,0,6,,,,1,68,78
236544,note_on,,,,,0,0,6,,,,1,74,78
236544,note_off,,,,,0,0,6,,,,1,60,0
236544,note_on,,,,,0,0,6,,,,1,59,62
236544,note_off,,,,,1024,0,3,,,,6,64,0
236544,note_on,,,,,0,0,3,,,,6,68,62
236544,note_off,,,,,512,0,2,,,,2,69,0
236544,note_on,,,,,0,0,5,,,,3,59,75
236544,note_off,,,,,512,0,5,,,,3,60,0
236544,note_on,,,,,154,0,4,,,,12,74,127
236544,note_on,,,,,0,0,2,,,,2,74,62
236748,note_off,,,,,204,0,4,,,,12,74,0
236800,note_on,,,,,52,0,4,,,,12,77,127
236953,note_off,,,,,409,0,6,,,,1,57,0
236953,note_off,,,,,0,0,6,,,,1,68,0
236953,note_off,,,,,0,0,6,,,,1,74,0
237056,note_on,,,,,0,0,6,,,,1,71,78
237056,note_on,,,,,103,0,6,,,,1,62,78
237056,note_off,,,,,512,0,5,,,,3,59,0
237056,note_off,,,,,0,0,6,,,,1,59,0
237056,note_on,,,,,0,0,6,,,,1,62,62
237056,note_on,,,,,0,0,2,,,,2,71,62
237056,note_off,,,,,512,0,2,,,,2,74,0
237056,note_on,,,,,0,0,5,,,,3,62,75
237056,note_on,,,,,0,0,6,,,,1,74,78
237414,note_off,,,,,614,0,4,,,,12,77,0
237465,note_off,,,,,409,0,6,,,,1,62,0
237465,note_off,,,,,0,0,6,,,,1,71,0
237465,note_off,,,,,0,0,6,,,,1,74,0
237568,note_on,,,,,0,0,5,,,,3,60,75
237568,note_off,,,,,512,0,5,,,,3,62,0
237568,note_on,,,,,0,0,6,,,,1,60,78
237568,note_on,,,,,0,0,6,,,,1,69,78
237568,note_on,,,,,0,0,6,,,,1,76,78
237568,note_on,,,,,0,0,6,,,,1,60,62
237568,note_off,,,,,1024,0,3,,,,6,68,0
237568,note_on,,,,,0,0,3,,,,6,69,62
237568,note_on,,,,,0,0,2,,,,2,76,62
237568,note_off,,,,,512,0,2,,,,2,71,0
237568,note_on,,,,,154,0,4,,,,12,76,127
237568,note_off,,,,,103,0,6,,,,1,62,0
237824,note_off,,,,,256,0,4,,,,12,76,0
237824,note_on,,,,,0,0,4,,,,12,81,127
237977,note_off,,,,,0,0,6,,,,1,76,0
237977,note_off,,,,,0,0,6,,,,1,69,0
237977,note_off,,,,,409,0,6,,,,1,60,0
238080,note_on,,,,,0,0,6,,,,1,57,62
238080,note_off,,,,,0,0,6,,,,1,60,0
238080,note_on,,,,,0,0,6,,,,1,72,78
238080,note_on,,,,,0,0,6,,,,1,69,78
238080,note_on,,,,,103,0,6,,,,1,57,78
238080,note_on,,,,,0,0,2,,,,2,72,62
238080,note_on,,,,,0,0,5,,,,3,57,75
238080,note_off,,,,,512,0,5,,,,3,60,0
238080,note_off,,,,,512,0,2,,,,2,76,0
238489,note_off,,,,,409,0,6,,,,1,57,0
238489,note_off,,,,,0,0,6,,,,1,69,0
238489,note_off,,,,,0,0,6,,,,1,72,0
238592,note_off,,,,,512,0,2,,,,2,72,0
238592,note_on,,,,,0,0,2,,,,2,74,62
238592,note_on,,,,,0,0,6,,,,1,71,78
238592,note_on,,,,,0,0,6,,,,1,74,78
238592,note_off,,,,,0,0,6,,,,1,57,0
238592,note_on,,,,,0,0,6,,,,1,64,62
238592,note_on,,,,,0,0,3,,,,6,71,62
238592,note_on,,,,,0,0,5,,,,3,64,75
238592,note_on,,,,,103,0,6,,,,1,64,78
238592,note_off,,,,,512,0,5,,,,3,57,0
238592,note_off,,,,,1024,0,3,,,,6,69,0
238592,note_on,,,,,0,0,4,,,,12,80,127
238592,note_off,,,,,768,0,4,,,,12,81,0
238848,note_off,,,,,256,0,4,,,,12,80,0
238848,note_on,,,,,0,0,4,,,,12,83,127
239001,note_off,,,,,0,0,6,,,,1,74,0
239001,note_off,,,,,0,0,6,,,,1,71,0
239001,note_off,,,,,409,0,6,,,,1,64,0
239104,note_off,,,,,512,0,5,,,,3,64,0
239104,note_on,,,,,0,0,3,,,,6,68,62
239104,note_off,,,,,512,0,3,,,,6,71,0
239104,note_on,,,,,0,0,6,,,,1,52,62
239104,note_off,,,,,0,0,6,,,,1,64,0
239104,note_on,,,,,0,0,6,,,,1,74,78
239104,note_on,,,,,103,0,6,,,,1,68,78
239104,note_on,,,,,0,0,5,,,,3,52,75
239513,note_off,,,,,409,0,6,,,,1,68,0
239513,note_off,,,,,0,0,6,,,,1,74,0
239616,note_off,,,,,1024,0,2,,,,2,74,0
239616,note_on,,,,,0,0,6,,,,1,57,62
239616,note_on,,,,,103,0,6,,,,1,57,78
239616,note_off,,,,,0,0,6,,,,1,52,0
239616,note_on,,,,,0,0,6,,,,1,72,78
239616,note_on,,,,,0,0,6,,,,1,64,78
239616,note_on,,,,,0,0,2,,,,2,72,62
239616,note_on,,,,,0,0,4,,,,12,72,127
239616,note_on,,,,,0,0,5,,,,3,57,75
239616,note_off,,,,,512,0,5,,,,3,52,0
239616,note_on,,,,,0,0,3,,,,6,64,62
239616,note_off,,,,,512,0,3,,,,6,68,0
239616,note_off,,,,,768,0,4,,,,12,83,0
239786,note_off,,,,,170,0,4,,,,12,72,0
239786,note_on,,,,,0,0,4,,,,12,71,127
239957,note_off,,,,,0,0,4,,,,12,71,0
239957,note_on,,,,,171,0,4,,,,12,69,127
240025,note_off,,,,,409,0,6,,,,1,57,0
240025,note_off,,,,,0,0,6,,,,1,64,0
240025,note_off,,,,,0,0,6,,,,1,72,0
240128,note_off,,,,,512,0,3,,,,6,64,0
240128,note_on,,,,,0,0,3,,,,6,65,62
240128,note_on,,,,,0,0,6,,,,1,56,62
240128,note_off,,,,,0,0,6,,,,1,57,0
240128,note_off,,,,,171,0,4,,,,12,69,0
240128,note_on,,,,,0,0,2,,,,2,74,62
240128,note_off,,,,,512,0,2,,,,2,72,0
240128,note_on,,,,,0,0,6,,,,1,74,78
240128,note_on,,,,,0,0,6,,,,1,65,78
240128,note_on,,,,,103,0,6,,,,1,56,78
240128,note_on,,,,,0,0,4,,,,12,77,127
240128,note_on,,,,,0,0,5,,,,3,56,75
240128,note_off,,,,,512,0,5,,,,3,57,0
240298,note_off,,,,,170,0,4,,,,12,77,0
240298,note_on,,,,,0,0,4,,,,12,76,127
240469,note_off,,,,,0,0,4,,,,12,76,0
240469,note_on,,,,,171,0,4,,,,12,74,127
240537,note_off,,,,,409,0,6,,,,1,56,0
240537,note_off,,,,,0,0,6,,,,1,65,0
240537,note_off,,,,,0,0,6,,,,1,74,0
240640,note_on,,,,,0,0,4,,,,12,72,127
240640,note_on,,,,,0,0,3,,,,6,64,62
240640,note_off,,,,,0,0,6,,,,1,56,0
240640,note_on,,,,,0,0,5,,,,3,57,75
240640,note_off,,,,,512,0,5,,,,3,56,0
240640,note_on,,,,,0,0,6,,,,1,72,78
240640,note_off,,,,,512,0,2,,,,2,74,0
240640,note_on,,,,,0,0,2,,,,2,72,62
240640,note_on,,,,,0,0,6,,,,1,57,62
240640,note_on,,,,,103,0,6,,,,1,57,78
240640,note_off,,,,,171,0,4,,,,12,74,0
240640,note_on,,,,,0,0,6,,,,1,64,78
240640,note_off,,,,,512,0,3,,,,6,65,0
240810,note_off,,,,,170,0,4,,,,12,72,0
240810,note_on,,,,,0,0,4,,,,12,71,127
240981,note_off,,,,,0,0,4,,,,12,71,0
240981,note_on,,,,,171,0,4,,,,12,69,127
241049,note_off,,,,,0,0,6,,,,1,72,0
241049,note_off,,,,,409,0,6,,,,1,57,0
241049,note_off,,,,,0,0,6,,,,1,64,0
241152,note_on,,,,,0,0,2,,,,2,74,62
241152,note_off,,,,,512,0,2,,,,2,72,0
241152,note_on,,,,,0,0,4,,,,12,77,127
241152,note_off,,,,,171,0,4,,,,12,69,0
241152,note_on,,,,,0,0,3,,,,6,65,62
241152,note_off,,,,,512,0,3,,,,6,64,0
241152,note_on,,,,,0,0,5,,,,3,56,75
241152,note_on,,,,,103,0,6,,,,1,56,78
241152,note_on,,,,,0,0,6,,,,1,65,78
241152,note_on,,,,,0,0,6,,,,1,74,78
241152,note_off,,,,,0,0,6,,,,1,57,0
241152,note_on,,,,,0,0,6,,,,1,56,62
241152,note_off,,,,,512,0,5,,,,3,57,0
241322,note_off,,,,,170,0,4,,,,12,77,0
241322,note_on,,,,,0,0,4,,,,12,76,127
241493,note_on,,,,,171,0,4,,,,12,74,127
241493,note_off,,,,,0,0,4,,,,12,76,0
241561,note_off,,,,,409,0,6,,,,1,56,0
241561,note_off,,,,,0,0,6,,,,1,74,0
241561,note_off,,,,,0,0,6,,,,1,65,0
241664,note_on,,,,,0,0,5,,,,3,57,75
241664,note_off,,,,,171,0,4,,,,12,74,0
241664,note_on,,,,,0,0,2,,,,2,72,62
241664,note_off,,,,,512,0,2,,,,2,74,0
241664,note_off,,,,,512,0,3,,,,6,65,0
241664,note_on,,,,,0,0,3,,,,6,64,62
241664,note_on,,,,,0,0,4,,,,12,72,127
241664,note_off,,,,,512,0,5,,,,3,56,0
241664,note_on,,,,,0,0,6,,,,1,72,38
241664,note_on,,,,,0,0,6,,,,1,64,38
241664,note_on,,,,,0,0,6,,,,1,57,38
241664,note_off,,,,,103,0,6,,,,1,56,0
241664,note_on,,,,,0,0,6,,,,1,57,62
241834,note_on,,,,,0,0,4,,,,12,71,127
241834,note_off,,,,,170,0,4,,,,12,72,0
242005,note_off,,,,,0,0,4,,,,12,71,0
242005,note_on,,,,,171,0,4,,,,12,69,127
242073,note_off,,,,,0,0,6,,,,1,64,0
242073,note_off,,,,,0,0,6,,,,1,72,0
242073,note_off,,,,,409,0,6,,,,1,57,0
242176,note_off,,,,,512,0,2,,,,2,72,0
242176,note_on,,,,,0,0,5,,,,3,62,75
242176,note_off,,,,,512,0,5,,,,3,57,0
242176,note_off,,,,,512,0,3,,,,6,64,0
242176,note_on,,,,,0,0,3,,,,6,65,62
242176,note_on,,,,,0,0,2,,,,2,74,62
242176,note_on,,,,,0,0,6,,,,1,62,62
242176,note_off,,,,,0,0,6,,,,1,57,0
242176,note_on,,,,,0,0,6,,,,1,74,38
242176,note_on,,,,,0,0,6,,,,1,65,38
242176,note_on,,,,,103,0,6,,,,1,62,38
242176,note_off,,,,,171,0,4,,,,12,69,0
242176,note_on,,,,,0,0,4,,,,12,77,127
242346,note_off,,,,,170,0,4,,,,12,77,0
242346,note_on,,,,,0,0,4,,,,12,76,127
242380,note_off,,,,,204,0,6,,,,1,65,0
242432,note_on,,,,,0,0,3,,,,6,69,62
242432,note_on,,,,,52,0,6,,,,1,69,38
242432,note_off,,,,,256,0,3,,,,6,65,0
242517,note_on,,,,,171,0,4,,,,12,74,127
242517,note_off,,,,,0,0,4,,,,12,76,0
242585,note_off,,,,,0,0,6,,,,1,74,0
242585,note_off,,,,,153,0,6,,,,1,62,0
242636,note_off,,,,,51,0,6,,,,1,69,0
242688,note_off,,,,,512,0,2,,,,2,74,0
242688,note_on,,,,,0,0,3,,,,6,69,62
242688,note_off,,,,,256,0,3,,,,6,69,0
242688,note_off,,,,,0,0,6,,,,1,62,0
242688,note_on,,,,,0,0,6,,,,1,64,62
242688,note_on,,,,,52,0,6,,,,1,64,38
242688,note_on,,,,,0,0,6,,,,1,69,38
242688,note_off,,,,,512,0,5,,,,3,62,0
242688,note_on,,,,,0,0,5,,,,3,64,75
242688,note_on,,,,,0,0,4,,,,12,72,127
242688,note_off,,,,,171,0,4,,,,12,74,0
242688,note_on,,,,,0,0,6,,,,1,72,38
242688,note_on,,,,,0,0,2,,,,2,72,62
243097,note_off,,,,,0,0,6,,,,1,72,0
243097,note_off,,,,,0,0,6,,,,1,69,0
243097,note_off,,,,,409,0,6,,,,1,64,0
243200,note_off,,,,,512,0,5,,,,3,64,0
243200,note_on,,,,,103,0,6,,,,1,68,38
243200,note_on,,,,,0,0,5,,,,3,52,75
243200,note_on,,,,,0,0,2,,,,2,71,62
243200,note_off,,,,,512,0,2,,,,2,72,0
243200,note_off,,,,,512,0,4,,,,12,72,0
243200,note_on,,,,,0,0,6,,,,1,71,38
243200,note_off,,,,,0,0,6,,,,1,64,0
243200,note_on,,,,,0,0,6,,,,1,52,62
243200,note_on,,,,,0,0,4,,,,12,71,127
243200,note_on,,,,,0,0,3,,,,6,68,62
243200,note_off,,,,,512,0,3,,,,6,69,0
243328,note_off,,,,,128,0,4,,,,12,71,0
243328,note_on,,,,,0,0,4,,,,12,72,127
243456,note_on,,,,,128,0,4,,,,12,71,127
243456,note_off,,,,,0,0,4,,,,12,72,0
243584,note_off,,,,,128,0,4,,,,12,71,0
243584,note_on,,,,,0,0,4,,,,12,72,127
243609,note_off,,,,,409,0,6,,,,1,68,0
243609,note_off,,,,,0,0,6,,,,1,71,0
243712,note_on,,,,,0,0,3,,,,6,64,62
243712,note_off,,,,,512,0,3,,,,6,68,0
243712,note_on,,,,,128,0,4,,,,12,69,127
243712,note_off,,,,,0,0,4,,,,12,72,0
243712,note_on,,,,,0,0,6,,,,1,72,38
243712,note_on,,,,,0,0,5,,,,3,57,75
243712,note_on,,,,,0,0,6,,,,1,57,62
243712,note_off,,,,,512,0,5,,,,3,52,0
243712,note_on,,,,,0,0,6,,,,1,64,38
243712,note_on,,,,,103,0,6,,,,1,57,38
243712,note_on,,,,,0,0,2,,,,2,72,62
243712,note_off,,,,,512,0,2,,,,2,71,0
243712,note_off,,,,,0,0,6,,,,1,52,0
244121,note_off,,,,,409,0,6,,,,1,57,0
244121,note_off,,,,,0,0,6,,,,1,72,0
244121,note_off,,,,,0,0,6,,,,1,64,0
244224,note_on,,,,,0,0,6,,,,1,57,62
244224,note_on,,,,,0,0,6,,,,1,64,38
244224,note_on,,,,,103,0,6,,,,1,57,38
244224,note_on,,,,,0,0,5,,,,3,57,75
244224,note_off,,,,,0,0,6,,,,1,57,0
244224,note_off,,,,,512,0,5,,,,3,57,0
244224,note_on,,,,,0,0,6,,,,1,72,38
244224,note_on,,,,,0,0,2,,,,2,72,62
244224,note_off,,,,,512,0,3,,,,6,64,0
244224,note_on,,,,,0,0,3,,,,6,64,62
244224,note_off,,,,,512,0,2,,,,2,72,0
244633,note_off,,,,,409,0,6,,,,1,57,0
244633,note_off,,,,,0,0,6,,,,1,72,0
244736,note_on,,,,,0,0,6,,,,1,60,62
244736,note_off,,,,,512,0,2,,,,2,72,0
244736,note_off,,,,,512,0,5,,,,3,57,0
244736,note_on,,,,,0,0,5,,,,3,60,75
244736,note_off,,,,,1024,0,4,,,,12,69,0
244736,note_on,,,,,0,0,6,,,,1,69,38
244736,note_on,,,,,103,0,6,,,,1,60,38
244736,note_off,,,,,0,0,6,,,,1,57,0
244736,note_on,,,,,0,0,2,,,,2,69,62
245043,note_off,,,,,307,0,6,,,,1,64,0
245145,note_off,,,,,0,0,6,,,,1,69,0
245145,note_off,,,,,102,0,6,,,,1,60,0
245248,note_off,,,,,512,0,2,,,,2,69,0
245248,note_on,,,,,0,0,5,,,,3,57,75
245248,note_on,,,,,103,0,6,,,,1,57,38
245248,note_off,,,,,0,0,6,,,,1,60,0
245248,note_on,,,,,0,0,6,,,,1,72,38
245248,note_off,,,,,512,0,5,,,,3,60,0
245248,note_on,,,,,0,0,6,,,,1,57,62
245248,note_off,,,,,1024,0,3,,,,6,64,0
245248,note_on,,,,,512,0,4,,,,12,76,127
245248,note_on,,,,,0,0,3,,,,6,64,62
245248,note_on,,,,,0,0,2,,,,2,72,62
245248,note_on,,,,,0,0,6,,,,1,64,38
245657,note_off,,,,,0,0,6,,,,1,72,0
245657,note_off,,,,,0,0,6,,,,1,64,0
245657,note_off,,,,,409,0,6,,,,1,57,0
245760,note_off,,,,,512,0,4,,,,12,76,0
245760,note_on,,,,,0,0,4,,,,12,75,127
245760,note_on,,,,,0,0,5,,,,3,59,75
245760,note_on,,,,,0,0,6,,,,1,59,62
245760,note_on,,,,,0,0,6,,,,1,66,78
245760,note_on,,,,,0,0,6,,,,1,63,78
245760,note_on,,,,,0,0,6,,,,1,59,78
245760,note_off,,,,,103,0,6,,,,1,57,0
245760,note_on,,,,,0,0,2,,,,2,71,62
245760,note_on,,,,,0,0,3,,,,6,66,62
245760,note_off,,,,,512,0,3,,,,6,64,0
245760,note_off,,,,,512,0,2,,,,2,72,0
245760,note_off,,,,,512,0,5,,,,3,57,0
245760,note_on,,,,,0,0,6,,,,1,71,78
245964,note_off,,,,,204,0,4,,,,12,75,0
246016,note_on,,,,,52,0,4,,,,12,75,127
246220,note_off,,,,,204,0,4,,,,12,75,0
246272,note_on,,,,,52,0,4,,,,12,76,127
246476,note_off,,,,,204,0,4,,,,12,76,0
246528,note_on,,,,,52,0,4,,,,12,75,127
246579,note_off,,,,,819,0,6,,,,1,59,0
246579,note_off,,,,,0,0,6,,,,1,63,0
246579,note_off,,,,,0,0,6,,,,1,66,0
246732,note_off,,,,,204,0,4,,,,12,75,0
246784,note_off,,,,,1024,0,5,,,,3,59,0
246784,note_on,,,,,52,0,4,,,,12,74,127
246784,note_on,,,,,0,0,6,,,,1,56,62
246784,note_off,,,,,0,0,6,,,,1,59,0
246784,note_on,,,,,0,0,5,,,,3,56,75
246784,note_on,,,,,0,0,6,,,,1,62,78
246784,note_on,,,,,0,0,3,,,,6,64,62
246784,note_on,,,,,0,0,2,,,,2,71,62
246784,note_off,,,,,1024,0,3,,,,6,66,0
246784,note_off,,,,,1024,0,2,,,,2,71,0
246784,note_on,,,,,0,0,6,,,,1,64,78
246784,note_on,,,,,205,0,6,,,,1,56,78
246988,note_off,,,,,204,0,4,,,,12,74,0
247040,note_on,,,,,52,0,4,,,,12,74,127
247244,note_off,,,,,204,0,4,,,,12,74,0
247296,note_on,,,,,52,0,4,,,,12,76,127
247398,note_off,,,,,614,0,6,,,,1,71,0
247500,note_off,,,,,204,0,4,,,,12,76,0
247552,note_on,,,,,52,0,4,,,,12,74,127
247603,note_off,,,,,205,0,6,,,,1,56,0
247603,note_off,,,,,0,0,6,,,,1,64,0
247603,note_off,,,,,0,0,6,,,,1,62,0
247756,note_off,,,,,204,0,4,,,,12,74,0
247808,note_on,,,,,52,0,4,,,,12,73,127
247808,note_off,,,,,0,0,6,,,,1,56,0
247808,note_on,,,,,0,0,6,,,,1,69,78
247808,note_on,,,,,0,0,6,,,,1,64,78
247808,note_on,,,,,0,0,6,,,,1,61,78
247808,note_on,,,,,0,0,6,,,,1,57,62
247808,note_on,,,,,0,0,3,,,,6,64,62
247808,note_on,,,,,0,0,5,,,,3,57,75
247808,note_off,,,,,1024,0,2,,,,2,71,0
247808,note_on,,,,,205,0,6,,,,1,57,78
247808,note_off,,,,,1024,0,3,,,,6,64,0
247808,note_on,,,,,0,0,2,,,,2,69,62
247808,note_off,,,,,1024,0,5,,,,3,56,0
248000,note_off,,,,,192,0,4,,,,12,73,0
248064,note_on,,,,,64,0,4,,,,12,73,127
248320,note_on,,,,,0,0,4,,,,12,74,127
248320,note_off,,,,,256,0,4,,,,12,73,0
248576,note_off,,,,,256,0,4,,,,12,74,0
248576,note_on,,,,,0,0,4,,,,12,73,127
248627,note_off,,,,,819,0,6,,,,1,57,0
248627,note_off,,,,,0,0,6,,,,1,61,0
248627,note_off,,,,,0,0,6,,,,1,64,0
248832,note_off,,,,,1024,0,3,,,,6,64,0
248832,note_on,,,,,0,0,3,,,,6,66,62
248832,note_on,,,,,205,0,6,,,,1,60,78
248832,note_on,,,,,0,0,6,,,,1,66,78
248832,note_off,,,,,0,0,6,,,,1,57,0
248832,note_off,,,,,1024,0,5,,,,3,57,0
248832,note_off,,,,,256,0,4,,,,12,73,0
248832,note_on,,,,,0,0,4,,,,12,72,127
248832,note_on,,,,,0,0,6,,,,1,51,62
248832,note_on,,,,,0,0,2,,,,2,72,62
248832,note_off,,,,,1024,0,2,,,,2,69,0
248832,note_on,,,,,0,0,5,,,,3,51,75
249024,note_off,,,,,192,0,4,,,,12,72,0
249088,note_on,,,,,64,0,4,,,,12,72,127
249344,note_on,,,,,0,0,4,,,,12,74,127
249344,note_off,,,,,256,0,4,,,,12,72,0
249446,note_off,,,,,614,0,6,,,,1,69,0
249600,note_off,,,,,256,0,4,,,,12,74,0
249600,note_on,,,,,0,0,4,,,,12,72,127
249651,note_off,,,,,205,0,6,,,,1,60,0
249651,note_off,,,,,0,0,6,,,,1,66,0
249856,note_on,,,,,0,0,2,,,,2,71,62
249856,note_on,,,,,0,0,4,,,,12,71,127
249856,note_off,,,,,256,0,4,,,,12,72,0
249856,note_off,,,,,1024,0,5,,,,3,51,0
249856,note_on,,,,,0,0,5,,,,3,52,75
249856,note_on,,,,,0,0,6,,,,1,59,78
249856,note_on,,,,,0,0,6,,,,1,64,78
249856,note_on,,,,,0,0,6,,,,1,68,78
249856,note_off,,,,,1024,0,2,,,,2,72,0
249856,note_on,,,,,0,0,6,,,,1,52,62
249856,note_off,,,,,1024,0,3,,,,6,66,0
249856,note_off,,,,,205,0,6,,,,1,51,0
249856,note_on,,,,,0,0,3,,,,6,59,62
250026,note_off,,,,,170,0,4,,,,12,71,0
250026,note_on,,,,,0,0,4,,,,12,64,127
250197,note_off,,,,,171,0,4,,,,12,64,0
250197,note_on,,,,,0,0,4,,,,12,66,127
250368,note_on,,,,,0,0,4,,,,12,68,127
250368,note_off,,,,,171,0,4,,,,12,66,0
250538,note_off,,,,,170,0,4,,,,12,68,0
250538,note_on,,,,,0,0,4,,,,12,66,127
250675,note_off,,,,,0,0,6,,,,1,64,0
250675,note_off,,,,,819,0,6,,,,1,59,0
250675,note_off,,,,,0,0,6,,,,1,68,0
250709,note_off,,,,,0,0,4,,,,12,66,0
250709,note_on,,,,,171,0,4,,,,12,64,127
250880,note_off,,,,,1024,0,2,,,,2,71,0
250880,note_off,,,,,171,0,4,,,,12,64,0
250880,note_on,,,,,0,0,4,,,,12,74,127
250880,note_on,,,,,205,0,6,,,,1,59,78
250880,note_on,,,,,0,0,6,,,,1,64,78
250880,note_on,,,,,0,0,6,,,,1,71,78
250880,note_on,,,,,0,0,2,,,,2,71,62
250880,note_on,,,,,0,0,5,,,,3,44,75
250880,note_off,,,,,1024,0,5,,,,3,52,0
250880,note_off,,,,,1024,0,3,,,,6,59,0
250880,note_on,,,,,0,0,3,,,,6,64,62
250880,note_off,,,,,0,0,6,,,,1,52,0
250880,note_on,,,,,0,0,6,,,,1,44,62
251050,note_on,,,,,0,0,4,,,,12,71,127
251050,note_off,,,,,170,0,4,,,,12,74,0
251221,note_off,,,,,171,0,4,,,,12,71,0
251221,note_on,,,,,0,0,4,,,,12,72,127
251392,note_off,,,,,171,0,4,,,,12,72,0
251392,note_on,,,,,0,0,4,,,,12,74,127
251562,note_on,,,,,0,0,4,,,,12,72,127
251562,note_off,,,,,170,0,4,,,,12,74,0
251699,note_off,,,,,819,0,6,,,,1,59,0
251699,note_off,,,,,0,0,6,,,,1,64,0
251699,note_off,,,,,0,0,6,,,,1,71,0
251733,note_off,,,,,0,0,4,,,,12,72,0
251733,note_on,,,,,171,0,4,,,,12,71,127
251904,note_off,,,,,1024,0,2,,,,2,71,0
251904,note_on,,,,,0,0,2,,,,2,69,62
251904,note_on,,,,,0,0,5,,,,3,45,75
251904,note_on,,,,,205,0,6,,,,1,60,78
251904,note_on,,,,,0,0,6,,,,1,64,78
251904,note_on,,,,,0,0,6,,,,1,69,78
251904,note_off,,,,,0,0,6,,,,1,44,0
251904,note_on,,,,,0,0,6,,,,1,45,62
251904,note_off,,,,,1024,0,5,,,,3,44,0
251904,note_off,,,,,171,0,4,,,,12,71,0
251904,note_on,,,,,0,0,3,,,,6,60,62
251904,note_off,,,,,1024,0,3,,,,6,64,0
251904,note_on,,,,,0,0,4,,,,12,72,127
252032,note_on,,,,,0,0,4,,,,12,69,127
252032,note_off,,,,,128,0,4,,,,12,72,0
252160,note_off,,,,,128,0,4,,,,12,69,0
252160,note_on,,,,,0,0,4,,,,12,71,127
252288,note_off,,,,,128,0,4,,,,12,71,0
252288,note_on,,,,,0,0,4,,,,12,72,127
252416,note_off,,,,,128,0,4,,,,12,72,0
252416,note_on,,,,,0,0,4,,,,12,74,127
252544,note_off,,,,,128,0,4,,,,12,74,0
252544,note_on,,,,,0,0,4,,,,12,76,127
252672,note_off,,,,,128,0,4,,,,12,76,0
252672,note_on,,,,,0,0,4,,,,12,78,127
252723,note_off,,,,,819,0,6,,,,1,60,0
252723,note_off,,,,,0,0,6,,,,1,64,0
252723,note_off,,,,,0,0,6,,,,1,69,0
252800,note_on,,,,,0,0,4,,,,12,80,127
252800,note_off,,,,,128,0,4,,,,12,78,0
252928,note_on,,,,,0,0,6,,,,1,72,78
252928,note_on,,,,,0,0,3,,,,6,64,62
252928,note_off,,,,,1024,0,3,,,,6,60,0
252928,note_off,,,,,1024,0,5,,,,3,45,0
252928,note_on,,,,,0,0,5,,,,3,45,75
252928,note_on,,,,,0,0,4,,,,12,81,127
252928,note_off,,,,,0,0,6,,,,1,45,0
252928,note_on,,,,,205,0,6,,,,1,64,78
252928,note_on,,,,,0,0,2,,,,2,72,62
252928,note_off,,,,,1024,0,2,,,,2,69,0
252928,note_on,,,,,0,0,6,,,,1,45,62
252928,note_on,,,,,0,0,6,,,,1,69,78
252928,note_off,,,,,128,0,4,,,,12,80,0
253030,note_off,,,,,102,0,4,,,,12,81,0
253056,note_on,,,,,26,0,4,,,,12,69,127
253184,note_on,,,,,0,0,4,,,,12,71,127
253184,note_off,,,,,128,0,4,,,,12,69,0
253312,note_off,,,,,128,0,4,,,,12,71,0
253312,note_on,,,,,0,0,4,,,,12,72,127
253440,note_off,,,,,512,0,6,,,,1,45,0
253440,note_on,,,,,0,0,6,,,,1,43,62
253440,note_on,,,,,0,0,4,,,,12,74,127
253440,note_off,,,,,512,0,5,,,,3,45,0
253440,note_off,,,,,128,0,4,,,,12,72,0
253440,note_on,,,,,0,0,5,,,,3,43,75
253568,note_off,,,,,128,0,4,,,,12,74,0
253568,note_on,,,,,0,0,4,,,,12,76,127
253696,note_on,,,,,0,0,4,,,,12,78,127
253696,note_off,,,,,128,0,4,,,,12,76,0
253747,note_off,,,,,307,0,6,,,,1,64,0
253747,note_off,,,,,0,0,6,,,,1,69,0
253747,note_off,,,,,0,0,6,,,,1,72,0
253824,note_off,,,,,128,0,4,,,,12,78,0
253952,note_off,,,,,1024,0,2,,,,2,72,0
253952,note_on,,,,,0,0,6,,,,1,60,78
253952,note_on,,,,,0,0,6,,,,1,64,78
253952,note_off,,,,,205,0,6,,,,1,43,0
253952,note_on,,,,,0,0,5,,,,3,41,75
253952,note_off,,,,,512,0,5,,,,3,43,0
253952,note_on,,,,,0,0,6,,,,1,69,78
253952,note_on,,,,,128,0,4,,,,12,81,127
253952,note_on,,,,,0,0,6,,,,1,41,62
253952,note_on,,,,,0,0,3,,,,6,69,62
253952,note_off,,,,,1024,0,3,,,,6,64,0
253952,note_on,,,,,0,0,2,,,,2,72,62
254361,note_off,,,,,409,0,4,,,,12,81,0
254361,note_off,,,,,0,0,6,,,,1,69,0
254361,note_off,,,,,0,0,6,,,,1,64,0
254361,note_off,,,,,409,0,6,,,,1,60,0
254464,note_on,,,,,0,0,6,,,,1,65,78
254464,note_off,,,,,0,0,6,,,,1,41,0
254464,note_on,,,,,103,0,6,,,,1,53,78
254464,note_on,,,,,0,0,6,,,,1,40,62
254464,note_on,,,,,0,0,6,,,,1,69,78
254464,note_on,,,,,0,0,6,,,,1,60,78
254464,note_off,,,,,512,0,2,,,,2,72,0
254464,note_on,,,,,0,0,5,,,,3,40,75
254464,note_off,,,,,512,0,5,,,,3,41,0
254464,note_on,,,,,103,0,4,,,,12,69,127
254464,note_on,,,,,0,0,3,,,,6,65,62
254464,note_off,,,,,512,0,3,,,,6,69,0
254464,note_on,,,,,0,0,2,,,,2,69,62
254720,note_on,,,,,0,0,4,,,,12,71,127
254720,note_off,,,,,256,0,4,,,,12,69,0
254873,note_off,,,,,409,0,6,,,,1,53,0
254873,note_off,,,,,0,0,6,,,,1,60,0
254873,note_off,,,,,0,0,6,,,,1,65,0
254976,note_off,,,,,0,0,6,,,,1,40,0
254976,note_on,,,,,0,0,6,,,,1,38,62
254976,note_on,,,,,103,0,6,,,,1,64,78
254976,note_off,,,,,256,0,4,,,,12,71,0
254976,note_off,,,,,512,0,2,,,,2,69,0
254976,note_on,,,,,0,0,4,,,,12,71,127
254976,note_off,,,,,512,0,3,,,,6,65,0
254976,note_on,,,,,0,0,3,,,,6,69,62
254976,note_on,,,,,0,0,2,,,,2,71,62
254976,note_off,,,,,512,0,5,,,,3,40,0
254976,note_on,,,,,0,0,5,,,,3,38,75
254976,note_on,,,,,0,0,6,,,,1,71,78
255104,note_off,,,,,128,0,4,,,,12,71,0
255104,note_on,,,,,0,0,4,,,,12,72,127
255232,note_off,,,,,0,0,4,,,,12,72,0
255232,note_on,,,,,128,0,4,,,,12,71,127
255296,note_on,,,,,0,0,4,,,,12,72,127
255296,note_off,,,,,64,0,4,,,,12,71,0
255360,note_on,,,,,0,0,4,,,,12,71,127
255360,note_off,,,,,64,0,4,,,,12,72,0
255385,note_off,,,,,409,0,6,,,,1,69,0
255424,note_on,,,,,0,0,4,,,,12,72,127
255424,note_off,,,,,64,0,4,,,,12,71,0
255488,note_on,,,,,0,0,5,,,,3,40,75
255488,note_on,,,,,0,0,2,,,,2,71,62
255488,note_off,,,,,512,0,2,,,,2,71,0
255488,note_on,,,,,64,0,4,,,,12,71,127
255488,note_off,,,,,0,0,4,,,,12,72,0
255488,note_off,,,,,512,0,3,,,,6,69,0
255488,note_on,,,,,0,0,3,,,,6,68,62
255488,note_off,,,,,512,0,5,,,,3,38,0
255488,note_on,,,,,0,0,6,,,,1,40,62
255488,note_off,,,,,0,0,6,,,,1,38,0
255488,note_on,,,,,103,0,6,,,,1,68,78
255795,note_off,,,,,0,0,6,,,,1,71,0
255795,note_off,,,,,307,0,6,,,,1,64,0
255897,note_off,,,,,102,0,6,,,,1,68,0
256000,note_on,,,,,0,0,6,,,,1,69,78
256000,note_on,,,,,0,0,6,,,,1,64,78
256000,note_off,,,,,512,0,2,,,,2,71,0
256000,note_on,,,,,0,0,5,,,,3,45,75
256000,note_off,,,,,512,0,5,,,,3,40,0
256000,note_on,,,,,0,0,2,,,,2,69,62
256000,note_off,,,,,512,0,3,,,,6,68,0
256000,note_on,,,,,0,0,4,,,,12,69,127
256000,note_off,,,,,512,0,4,,,,12,71,0
256000,note_off,,,,,0,0,6,,,,1,40,0
256000,note_on,,,,,0,0,3,,,,6,64,62
256000,note_on,,,,,0,0,6,,,,1,45,62
256000,note_on,,,,,103,0,6,,,,1,60,78
256819,note_off,,,,,819,0,6,,,,1,60,0
256819,note_off,,,,,0,0,6,,,,1,64,0
256819,note_off,,,,,0,0,6,,,,1,69,0
257024,note_off,,,,,205,0,6,,,,1,45,0
257024,note_off,,,,,1024,0,3,,,,6,64,0
257024,note_off,,,,,1024,0,5,,,,3,45,0
257024,note_off,,,,,1024,0,2,,,,2,69,0
257024,note_off,,,,,1024,0,4,,,,12,69,0
257536,note_on,,,,,512,0,3,,,,6,60,101
257536,note_on,,,,,512,0,5,,,,3,45,101
257536,note_on,,,,,512,0,2,,,,2,69,127
257536,note_on,,,,,512,0,6,,,,1,57,127
257536,note_on,,,,,0,0,6,,,,1,60,127
257536,note_on,,,,,0,0,6,,,,1,64,127
257536,note_on,,,,,0,0,6,,,,1,69,127
257536,note_on,,,,,0,0,6,,,,1,45,114
257945,note_off,,,,,0,0,6,,,,1,60,0
257945,note_off,,,,,409,0,6,,,,1,57,0
257945,note_off,,,,,0,0,6,,,,1,64,0
257945,note_off,,,,,0,0,6,,,,1,69,0
258048,note_on,,,,,0,0,2,,,,2,72,127
258048,note_off,,,,,512,0,2,,,,2,69,0
258048,note_on,,,,,0,0,3,,,,6,64,101
258048,note_off,,,,,512,0,3,,,,6,60,0
258048,note_on,,,,,0,0,6,,,,1,57,127
258048,note_on,,,,,0,0,6,,,,1,64,127
258048,note_on,,,,,0,0,6,,,,1,72,127
258048,note_on,,,,,0,0,6,,,,1,45,114
258048,note_off,,,,,103,0,6,,,,1,45,0
258048,note_off,,,,,512,0,5,,,,3,45,0
258048,note_on,,,,,0,0,5,,,,3,45,101
258218,note_off,,,,,170,0,6,,,,1,72,0
258218,note_on,,,,,0,0,6,,,,1,71,127
258219,note_on,,,,,0,0,2,,,,2,71,127
258219,note_off,,,,,171,0,2,,,,2,72,0
258389,note_off,,,,,170,0,2,,,,2,71,0
258389,note_on,,,,,171,0,6,,,,1,69,127
258389,note_off,,,,,0,0,6,,,,1,71,0
258389,note_on,,,,,0,0,2,,,,2,69,127
258560,note_on,,,,,0,0,5,,,,3,45,101
258560,note_off,,,,,512,0,3,,,,6,64,0
258560,note_off,,,,,512,0,5,,,,3,45,0
258560,note_on,,,,,0,0,6,,,,1,60,127
258560,note_on,,,,,0,0,2,,,,2,76,127
258560,note_on,,,,,0,0,6,,,,1,64,127
258560,note_on,,,,,0,0,6,,,,1,45,114
258560,note_on,,,,,0,0,6,,,,1,76,127
258560,note_off,,,,,171,0,6,,,,1,57,0
258560,note_off,,,,,0,0,6,,,,1,64,0
258560,note_off,,,,,0,0,6,,,,1,69,0
258560,note_on,,,,,0,0,6,,,,1,57,127
258560,note_off,,,,,171,0,2,,,,2,69,0
258560,note_off,,,,,0,0,6,,,,1,45,0
258730,note_off,,,,,170,0,6,,,,1,76,0
258730,note_on,,,,,0,0,6,,,,1,74,127
258731,note_off,,,,,171,0,2,,,,2,76,0
258731,note_on,,,,,0,0,2,,,,2,74,127
258901,note_on,,,,,171,0,6,,,,1,72,127
258901,note_off,,,,,0,0,6,,,,1,74,0
258901,note_on,,,,,0,0,2,,,,2,72,127
258901,note_off,,,,,170,0,2,,,,2,74,0
259072,note_off,,,,,171,0,2,,,,2,72,0
259072,note_on,,,,,0,0,2,,,,2,81,127
259072,note_on,,,,,0,0,6,,,,1,72,127
259072,note_on,,,,,0,0,6,,,,1,81,127
259072,note_off,,,,,0,0,6,,,,1,60,0
259072,note_off,,,,,512,0,5,,,,3,45,0
259072,note_on,,,,,0,0,5,,,,3,45,101
259072,note_on,,,,,512,0,3,,,,6,72,101
259072,note_off,,,,,0,0,6,,,,1,64,0
259072,note_on,,,,,0,0,6,,,,1,45,114
259072,note_off,,,,,0,0,6,,,,1,45,0
259072,note_off,,,,,171,0,6,,,,1,57,0
259072,note_on,,,,,0,0,6,,,,1,76,127
259072,note_off,,,,,0,0,6,,,,1,72,0
259072,note_on,,,,,0,0,6,,,,1,57,127
259584,note_off,,,,,512,0,5,,,,3,45,0
259584,note_off,,,,,512,0,2,,,,2,81,0
259584,note_off,,,,,512,0,3,,,,6,72,0
259584,note_on,,,,,0,0,5,,,,3,45,101
259584,note_on,,,,,0,0,3,,,,6,72,101
259584,note_on,,,,,0,0,2,,,,2,76,127
259584,note_on,,,,,0,0,6,,,,1,45,114
259584,note_on,,,,,0,0,6,,,,1,76,127
259584,note_off,,,,,0,0,6,,,,1,45,0
259584,note_on,,,,,0,0,6,,,,1,72,127
259584,note_on,,,,,0,0,6,,,,1,69,127
259584,note_off,,,,,512,0,6,,,,1,57,0
259584,note_off,,,,,0,0,6,,,,1,72,0
259584,note_on,,,,,0,0,6,,,,1,57,127
259584,note_off,,,,,0,0,6,,,,1,81,0
259584,note_off,,,,,0,0,6,,,,1,76,0
260096,note_on,,,,,0,0,2,,,,2,79,127
260096,note_off,,,,,512,0,6,,,,1,57,0
260096,note_off,,,,,0,0,6,,,,1,69,0
260096,note_off,,,,,0,0,6,,,,1,72,0
260096,note_off,,,,,0,0,6,,,,1,76,0
260096,note_off,,,,,512,0,5,,,,3,45,0
260096,note_on,,,,,0,0,6,,,,1,62,127
260096,note_on,,,,,0,0,6,,,,1,74,127
260096,note_on,,,,,0,0,6,,,,1,77,127
260096,note_on,,,,,0,0,6,,,,1,79,127
260096,note_off,,,,,0,0,6,,,,1,45,0
260096,note_on,,,,,0,0,6,,,,1,50,114
260096,note_on,,,,,0,0,3,,,,6,69,101
260096,note_off,,,,,512,0,3,,,,6,72,0
260096,note_off,,,,,512,0,2,,,,2,76,0
260096,note_on,,,,,0,0,6,,,,1,69,127
260096,note_on,,,,,0,0,5,,,,3,50,101
260164,note_off,,,,,68,0,6,,,,1,79,0
260181,note_on,,,,,17,0,6,,,,1,77,127
260224,note_off,,,,,128,0,2,,,,2,79,0
260224,note_on,,,,,0,0,2,,,,2,77,127
260249,note_off,,,,,68,0,6,,,,1,77,0
260266,note_on,,,,,17,0,6,,,,1,79,127
260334,note_off,,,,,68,0,6,,,,1,79,0
260352,note_on,,,,,18,0,6,,,,1,77,127
260352,note_on,,,,,0,0,2,,,,2,79,127
260352,note_off,,,,,128,0,2,,,,2,77,0
260420,note_off,,,,,68,0,6,,,,1,77,0
260437,note_on,,,,,17,0,6,,,,1,79,127
260480,note_on,,,,,0,0,2,,,,2,77,127
260480,note_off,,,,,128,0,2,,,,2,79,0
260505,note_off,,,,,68,0,6,,,,1,79,0
260608,note_on,,,,,0,0,5,,,,3,57,101
260608,note_off,,,,,512,0,5,,,,3,50,0
260608,note_on,,,,,0,0,6,,,,1,72,127
260608,note_on,,,,,0,0,2,,,,2,76,127
260608,note_off,,,,,0,0,6,,,,1,69,0
260608,note_on,,,,,0,0,6,,,,1,69,127
260608,note_on,,,,,0,0,6,,,,1,57,127
260608,note_off,,,,,0,0,6,,,,1,77,0
260608,note_off,,,,,512,0,3,,,,6,69,0
260608,note_off,,,,,0,0,6,,,,1,74,0
260608,note_off,,,,,128,0,2,,,,2,77,0
260608,note_on,,,,,0,0,6,,,,1,76,127
260608,note_off,,,,,103,0,6,,,,1,62,0
260608,note_off,,,,,0,0,6,,,,1,50,0
260608,note_on,,,,,0,0,6,,,,1,57,114
260608,note_on,,,,,0,0,3,,,,6,72,101
261120,note_on,,,,,0,0,6,,,,1,64,127
261120,note_on,,,,,0,0,6,,,,1,60,127
261120,note_off,,,,,0,0,6,,,,1,76,0
261120,note_off,,,,,0,0,6,,,,1,72,0
261120,note_off,,,,,512,0,3,,,,6,72,0
261120,note_off,,,,,0,0,6,,,,1,57,0
261120,note_off,,,,,512,0,5,,,,3,57,0
261120,note_on,,,,,0,0,5,,,,3,60,101
261120,note_off,,,,,512,0,6,,,,1,57,0
261120,note_on,,,,,0,0,6,,,,1,60,114
261120,note_off,,,,,0,0,6,,,,1,69,0
261120,note_on,,,,,0,0,3,,,,6,69,101
261120,note_off,,,,,512,0,2,,,,2,76,0
261632,note_on,,,,,0,0,6,,,,1,64,127
261632,note_on,,,,,0,0,5,,,,3,57,101
261632,note_on,,,,,0,0,6,,,,1,69,127
261632,note_off,,,,,512,0,3,,,,6,69,0
261632,note_on,,,,,0,0,3,,,,6,64,101
261632,note_on,,,,,512,0,2,,,,2,69,127
261632,note_off,,,,,512,0,5,,,,3,60,0
261632,note_off,,,,,0,0,6,,,,1,64,0
261632,note_on,,,,,0,0,6,,,,1,57,114
261632,note_off,,,,,0,0,6,,,,1,60,0
261632,note_off,,,,,512,0,6,,,,1,60,0
261632,note_on,,,,,0,0,6,,,,1,60,127
261632,note_on,,,,,0,0,6,,,,1,57,127
262144,note_on,,,,,0,0,6,,,,1,45,114
262144,note_on,,,,,0,0,6,,,,1,72,127
262144,note_on,,,,,0,0,6,,,,1,64,127
262144,note_on,,,,,0,0,6,,,,1,57,127
262144,note_off,,,,,0,0,6,,,,1,57,0
262144,note_off,,,,,0,0,6,,,,1,69,0
262144,note_off,,,,,0,0,6,,,,1,60,0
262144,note_on,,,,,0,0,5,,,,3,45,101
262144,note_off,,,,,512,0,5,,,,3,57,0
262144,note_off,,,,,0,0,6,,,,1,64,0
262144,note_off,,,,,512,0,3,,,,6,64,0
262144,note_on,,,,,0,0,3,,,,6,64,101
262144,note_off,,,,,512,0,6,,,,1,57,0
262144,note_off,,,,,512,0,2,,,,2,69,0
262144,note_on,,,,,0,0,2,,,,2,72,127
262314,note_off,,,,,170,0,6,,,,1,72,0
262314,note_on,,,,,0,0,6,,,,1,71,127
262315,note_off,,,,,171,0,2,,,,2,72,0
262315,note_on,,,,,0,0,2,,,,2,71,127
262485,note_on,,,,,171,0,6,,,,1,69,127
262485,note_off,,,,,0,0,6,,,,1,71,0
262485,note_on,,,,,0,0,2,,,,2,69,127
262485,note_off,,,,,170,0,2,,,,2,71,0
262656,note_off,,,,,171,0,6,,,,1,57,0
262656,note_off,,,,,0,0,6,,,,1,64,0
262656,note_off,,,,,0,0,6,,,,1,69,0
262656,note_on,,,,,0,0,6,,,,1,57,127
262656,note_on,,,,,0,0,6,,,,1,60,127
262656,note_on,,,,,0,0,6,,,,1,64,127
262656,note_on,,,,,0,0,6,,,,1,76,127
262656,note_on,,,,,0,0,6,,,,1,45,114
262656,note_off,,,,,0,0,6,,,,1,45,0
262656,note_off,,,,,512,0,5,,,,3,45,0
262656,note_off,,,,,512,0,3,,,,6,64,0
262656,note_off,,,,,171,0,2,,,,2,69,0
262656,note_on,,,,,0,0,2,,,,2,76,127
262656,note_on,,,,,0,0,5,,,,3,45,101
262826,note_on,,,,,0,0,6,,,,1,74,127
262826,note_off,,,,,170,0,6,,,,1,76,0
262827,note_on,,,,,0,0,2,,,,2,74,127
262827,note_off,,,,,171,0,2,,,,2,76,0
262997,note_on,,,,,171,0,6,,,,1,72,127
262997,note_off,,,,,170,0,2,,,,2,74,0
262997,note_on,,,,,0,0,2,,,,2,72,127
262997,note_off,,,,,0,0,6,,,,1,74,0
263168,note_off,,,,,0,0,6,,,,1,72,0
263168,note_on,,,,,0,0,6,,,,1,62,127
263168,note_off,,,,,0,0,6,,,,1,64,0
263168,note_on,,,,,0,0,6,,,,1,69,127
263168,note_on,,,,,0,0,6,,,,1,50,114
263168,note_off,,,,,0,0,6,,,,1,60,0
263168,note_on,,,,,512,0,3,,,,6,69,101
263168,note_off,,,,,0,0,6,,,,1,45,0
263168,note_off,,,,,512,0,5,,,,3,45,0
263168,note_on,,,,,0,0,5,,,,3,50,101
263168,note_off,,,,,171,0,2,,,,2,72,0
263168,note_on,,,,,0,0,2,,,,2,77,127
263168,note_off,,,,,171,0,6,,,,1,57,0
263168,note_on,,,,,0,0,6,,,,1,77,127
263680,note_off,,,,,512,0,6,,,,1,62,0
263680,note_off,,,,,0,0,6,,,,1,69,0
263680,note_on,,,,,0,0,5,,,,3,51,101
263680,note_off,,,,,512,0,5,,,,3,50,0
263680,note_on,,,,,0,0,3,,,,6,66,101
263680,note_off,,,,,512,0,2,,,,2,77,0
263680,note_on,,,,,0,0,6,,,,1,51,114
263680,note_off,,,,,512,0,3,,,,6,69,0
263680,note_off,,,,,0,0,6,,,,1,50,0
263680,note_on,,,,,0,0,6,,,,1,69,127
263680,note_on,,,,,0,0,6,,,,1,66,127
263680,note_on,,,,,0,0,6,,,,1,60,127
263680,note_off,,,,,0,0,6,,,,1,77,0
263680,note_on,,,,,0,0,2,,,,2,69,127
264192,note_on,,,,,0,0,2,,,,2,68,127
264192,note_off,,,,,512,0,3,,,,6,66,0
264192,note_on,,,,,0,0,3,,,,6,64,101
264192,note_off,,,,,512,0,5,,,,3,51,0
264192,note_on,,,,,0,0,5,,,,3,52,101
264192,note_off,,,,,512,0,2,,,,2,69,0
264192,note_on,,,,,0,0,6,,,,1,64,127
264192,note_off,,,,,512,0,6,,,,1,60,0
264192,note_off,,,,,0,0,6,,,,1,66,0
264192,note_off,,,,,0,0,6,,,,1,69,0
264192,note_on,,,,,0,0,6,,,,1,59,127
264192,note_on,,,,,0,0,6,,,,1,68,127
264192,note_off,,,,,0,0,6,,,,1,51,0
264192,note_on,,,,,0,0,6,,,,1,52,114
264704,note_on,,,,,0,0,6,,,,1,45,114
264704,note_off,,,,,0,0,6,,,,1,52,0
264704,note_on,,,,,0,0,6,,,,1,69,127
264704,note_on,,,,,0,0,6,,,,1,64,127
264704,note_on,,,,,0,0,6,,,,1,60,127
264704,note_off,,,,,512,0,3,,,,6,64,0
264704,note_off,,,,,512,0,6,,,,1,59,0
264704,note_on,,,,,0,0,3,,,,6,64,101
264704,note_off,,,,,512,0,5,,,,3,52,0
264704,note_on,,,,,0,0,2,,,,2,69,127
264704,note_off,,,,,512,0,2,,,,2,68,0
264704,note_off,,,,,0,0,6,,,,1,64,0
264704,note_on,,,,,0,0,5,,,,3,45,101
264704,note_off,,,,,0,0,6,,,,1,68,0
265216,note_off,,,,,0,0,6,,,,1,45,0
265216,note_on,,,,,0,0,6,,,,1,64,127
265216,note_on,,,,,0,0,5,,,,3,48,101
265216,note_off,,,,,512,0,5,,,,3,45,0
265216,note_on,,,,,0,0,3,,,,6,64,101
265216,note_off,,,,,512,0,3,,,,6,64,0
265216,note_off,,,,,0,0,6,,,,1,69,0
265216,note_on,,,,,0,0,6,,,,1,48,114
265216,note_off,,,,,0,0,6,,,,1,64,0
265216,note_off,,,,,512,0,2,,,,2,69,0
265216,note_off,,,,,512,0,6,,,,1,60,0
265728,note_on,,,,,0,0,5,,,,3,45,101
265728,note_on,,,,,0,0,6,,,,1,76,127
265728,note_off,,,,,0,0,6,,,,1,48,0
265728,note_off,,,,,512,0,5,,,,3,48,0
265728,note_on,,,,,0,0,6,,,,1,45,114
265728,note_on,,,,,0,0,6,,,,1,72,127
265728,note_on,,,,,0,0,6,,,,1,69,127
265728,note_on,,,,,0,0,6,,,,1,57,127
265728,note_off,,,,,512,0,6,,,,1,64,0
265728,note_on,,,,,512,0,2,,,,2,76,127
265728,note_off,,,,,512,0,3,,,,6,64,0
265728,note_on,,,,,0,0,3,,,,6,72,101
266240,note_on,,,,,0,0,6,,,,1,69,127
266240,note_off,,,,,0,0,6,,,,1,45,0
266240,note_off,,,,,0,0,6,,,,1,76,0
266240,note_off,,,,,0,0,6,,,,1,72,0
266240,note_off,,,,,0,0,6,,,,1,69,0
266240,note_off,,,,,512,0,6,,,,1,57,0
266240,note_on,,,,,0,0,5,,,,3,50,101
266240,note_on,,,,,0,0,6,,,,1,77,127
266240,note_off,,,,,512,0,5,,,,3,45,0
266240,note_off,,,,,512,0,3,,,,6,72,0
266240,note_on,,,,,0,0,2,,,,2,77,127
266240,note_off,,,,,512,0,2,,,,2,76,0
266240,note_on,,,,,0,0,3,,,,6,69,101
266240,note_on,,,,,0,0,6,,,,1,50,114
266410,note_on,,,,,0,0,6,,,,1,76,127
266410,note_off,,,,,170,0,6,,,,1,77,0
266411,note_on,,,,,0,0,2,,,,2,76,127
266411,note_off,,,,,171,0,2,,,,2,77,0
266581,note_on,,,,,171,0,6,,,,1,74,127
266581,note_off,,,,,0,0,6,,,,1,76,0
266581,note_on,,,,,0,0,2,,,,2,74,127
266581,note_off,,,,,170,0,2,,,,2,76,0
266752,note_off,,,,,171,0,6,,,,1,69,0
266752,note_off,,,,,0,0,6,,,,1,74,0
266752,note_on,,,,,0,0,6,,,,1,69,127
266752,note_on,,,,,0,0,6,,,,1,77,127
266752,note_on,,,,,0,0,2,,,,2,77,127
266752,note_off,,,,,171,0,2,,,,2,74,0
266922,note_off,,,,,170,0,6,,,,1,77,0
266922,note_on,,,,,0,0,6,,,,1,76,127
266923,note_off,,,,,171,0,2,,,,2,77,0
266923,note_on,,,,,0,0,2,,,,2,76,127
267093,note_on,,,,,171,0,6,,,,1,74,127
267093,note_off,,,,,170,0,2,,,,2,76,0
267093,note_on,,,,,0,0,2,,,,2,74,127
267093,note_off,,,,,0,0,6,,,,1,76,0
267264,note_on,,,,,0,0,2,,,,2,79,127
267264,note_off,,,,,171,0,2,,,,2,74,0
267264,note_off,,,,,1024,0,3,,,,6,69,0
267264,note_off,,,,,0,0,6,,,,1,50,0
267264,note_on,,,,,0,0,6,,,,1,47,114
267264,note_on,,,,,0,0,6,,,,1,79,127
267264,note_on,,,,,0,0,6,,,,1,67,127
267264,note_off,,,,,0,0,6,,,,1,74,0
267264,note_off,,,,,171,0,6,,,,1,69,0
267264,note_off,,,,,1024,0,5,,,,3,50,0
267264,note_on,,,,,0,0,5,,,,3,47,101
267264,note_on,,,,,0,0,3,,,,6,67,101
267776,note_off,,,,,0,0,6,,,,1,79,0
267776,note_on,,,,,0,0,2,,,,2,74,127
267776,note_off,,,,,512,0,2,,,,2,79,0
267776,note_off,,,,,512,0,6,,,,1,67,0
267776,note_on,,,,,0,0,6,,,,1,67,127
267776,note_on,,,,,0,0,6,,,,1,74,127
268288,note_off,,,,,512,0,2,,,,2,74,0
268288,note_on,,,,,0,0,2,,,,2,76,127
268288,note_on,,,,,0,0,3,,,,6,67,101
268288,note_off,,,,,0,0,6,,,,1,47,0
268288,note_on,,,,,0,0,6,,,,1,76,127
268288,note_on,,,,,0,0,6,,,,1,67,127
268288,note_off,,,,,0,0,6,,,,1,74,0
268288,note_off,,,,,512,0,6,,,,1,67,0
268288,note_off,,,,,1024,0,3,,,,6,67,0
268288,note_off,,,,,1024,0,5,,,,3,47,0
268288,note_on,,,,,0,0,5,,,,3,48,101
268288,note_on,,,,,0,0,6,,,,1,48,114
268458,note_on,,,,,0,0,6,,,,1,74,127
268458,note_off,,,,,170,0,6,,,,1,76,0
268459,note_on,,,,,0,0,2,,,,2,74,127
268459,note_off,,,,,171,0,2,,,,2,76,0
268629,note_off,,,,,170,0,2,,,,2,74,0
268629,note_on,,,,,171,0,6,,,,1,72,127
268629,note_off,,,,,0,0,6,,,,1,74,0
268629,note_on,,,,,0,0,2,,,,2,72,127
268800,note_off,,,,,171,0,2,,,,2,72,0
268800,note_on,,,,,0,0,2,,,,2,76,127
268800,note_on,,,,,0,0,6,,,,1,76,127
268800,note_off,,,,,171,0,6,,,,1,67,0
268800,note_off,,,,,0,0,6,,,,1,72,0
268800,note_on,,,,,0,0,6,,,,1,67,127
268970,note_on,,,,,0,0,6,,,,1,74,127
268970,note_off,,,,,170,0,6,,,,1,76,0
268971,note_off,,,,,171,0,2,,,,2,76,0
268971,note_on,,,,,0,0,2,,,,2,74,127
269141,note_off,,,,,0,0,6,,,,1,74,0
269141,note_on,,,,,171,0,6,,,,1,72,127
269141,note_off,,,,,170,0,2,,,,2,74,0
269141,note_on,,,,,0,0,2,,,,2,72,127
269312,note_on,,,,,0,0,6,,,,1,77,127
269312,note_on,,,,,0,0,6,,,,1,45,114
269312,note_off,,,,,0,0,6,,,,1,48,0
269312,note_on,,,,,0,0,6,,,,1,65,127
269312,note_off,,,,,0,0,6,,,,1,72,0
269312,note_off,,,,,1024,0,5,,,,3,48,0
269312,note_on,,,,,0,0,5,,,,3,45,101
269312,note_off,,,,,171,0,2,,,,2,72,0
269312,note_off,,,,,171,0,6,,,,1,67,0
269312,note_off,,,,,1024,0,3,,,,6,67,0
269312,note_on,,,,,0,0,3,,,,6,65,101
269312,note_on,,,,,0,0,2,,,,2,77,127
269824,note_off,,,,,512,0,2,,,,2,77,0
269824,note_on,,,,,0,0,6,,,,1,72,127
269824,note_on,,,,,0,0,6,,,,1,65,127
269824,note_off,,,,,512,0,6,,,,1,65,0
269824,note_off,,,,,0,0,6,,,,1,77,0
269824,note_on,,,,,0,0,2,,,,2,72,127
270336,note_off,,,,,0,0,6,,,,1,72,0
270336,note_on,,,,,0,0,6,,,,1,47,114
270336,note_on,,,,,0,0,6,,,,1,74,127
270336,note_on,,,,,0,0,6,,,,1,65,127
270336,note_off,,,,,0,0,6,,,,1,45,0
270336,note_on,,,,,0,0,2,,,,2,74,127
270336,note_off,,,,,512,0,2,,,,2,72,0
270336,note_off,,,,,1024,0,5,,,,3,45,0
270336,note_on,,,,,0,0,5,,,,3,47,101
270336,note_off,,,,,512,0,6,,,,1,65,0
270506,note_on,,,,,0,0,6,,,,1,72,127
270506,note_off,,,,,170,0,6,,,,1,74,0
270507,note_off,,,,,171,0,2,,,,2,74,0
270507,note_on,,,,,0,0,2,,,,2,72,127
270677,note_on,,,,,0,0,2,,,,2,71,127
270677,note_off,,,,,170,0,2,,,,2,72,0
270677,note_on,,,,,171,0,6,,,,1,71,127
270677,note_off,,,,,0,0,6,,,,1,72,0
270848,note_off,,,,,171,0,2,,,,2,71,0
270848,note_off,,,,,171,0,6,,,,1,65,0
270848,note_off,,,,,0,0,6,,,,1,71,0
270848,note_on,,,,,0,0,6,,,,1,65,127
270848,note_on,,,,,0,0,6,,,,1,74,127
270848,note_on,,,,,0,0,2,,,,2,74,127
271018,note_off,,,,,170,0,6,,,,1,74,0
271018,note_on,,,,,0,0,6,,,,1,72,127
271019,note_off,,,,,171,0,2,,,,2,74,0
271019,note_on,,,,,0,0,2,,,,2,72,127
271189,note_off,,,,,0,0,6,,,,1,72,0
271189,note_off,,,,,170,0,2,,,,2,72,0
271189,note_on,,,,,0,0,2,,,,2,71,127
271189,note_on,,,,,171,0,6,,,,1,71,127
271360,note_off,,,,,171,0,2,,,,2,71,0
271360,note_on,,,,,0,0,2,,,,2,76,127
271360,note_on,,,,,0,0,6,,,,1,64,127
271360,note_off,,,,,2048,0,3,,,,6,65,0
271360,note_on,,,,,0,0,6,,,,1,44,114
271360,note_off,,,,,0,0,6,,,,1,47,0
271360,note_on,,,,,0,0,6,,,,1,76,127
271360,note_off,,,,,0,0,6,,,,1,71,0
271360,note_off,,,,,171,0,6,,,,1,65,0
271360,note_off,,,,,1024,0,5,,,,3,47,0
271360,note_on,,,,,0,0,5,,,,3,44,101
271360,note_on,,,,,0,0,3,,,,6,64,101
271872,note_on,,,,,0,0,2,,,,2,71,127
271872,note_off,,,,,512,0,6,,,,1,64,0
271872,note_off,,,,,512,0,2,,,,2,76,0
271872,note_off,,,,,0,0,6,,,,1,76,0
271872,note_on,,,,,0,0,6,,,,1,64,127
271872,note_on,,,,,0,0,6,,,,1,71,127
272384,note_off,,,,,512,0,2,,,,2,71,0
272384,note_on,,,,,0,0,2,,,,2,72,127
272384,note_off,,,,,512,0,6,,,,1,64,0
272384,note_off,,,,,0,0,6,,,,1,71,0
272384,note_on,,,,,0,0,6,,,,1,64,127
272384,note_on,,,,,0,0,6,,,,1,72,127
272384,note_off,,,,,1024,0,5,,,,3,44,0
272384,note_on,,,,,0,0,5,,,,3,45,101
272384,note_off,,,,,0,0,6,,,,1,44,0
272384,note_on,,,,,0,0,6,,,,1,45,114
272384,note_off,,,,,1024,0,3,,,,6,64,0
272384,note_on,,,,,0,0,3,,,,6,64,101
272896,note_off,,,,,512,0,5,,,,3,45,0
272896,note_on,,,,,0,0,5,,,,3,57,101
272896,note_on,,,,,0,0,3,,,,6,60,101
272896,note_off,,,,,512,0,3,,,,6,64,0
272896,note_off,,,,,512,0,2,,,,2,72,0
272896,note_off,,,,,512,0,6,,,,1,72,0
272896,note_on,,,,,0,0,6,,,,1,57,127
272896,note_on,,,,,0,0,6,,,,1,69,127
272896,note_off,,,,,0,0,6,,,,1,45,0
272896,note_on,,,,,0,0,6,,,,1,57,114
272896,note_on,,,,,0,0,2,,,,2,69,127
273408,note_off,,,,,512,0,2,,,,2,69,0
273408,note_off,,,,,512,0,6,,,,1,64,0
273408,note_off,,,,,512,0,5,,,,3,57,0
273408,note_on,,,,,0,0,5,,,,3,55,101
273408,note_off,,,,,0,0,6,,,,1,57,0
273408,note_off,,,,,0,0,6,,,,1,69,0
273408,note_on,,,,,0,0,6,,,,1,55,127
273408,note_on,,,,,0,0,6,,,,1,64,127
273408,note_on,,,,,0,0,6,,,,1,55,114
273408,note_on,,,,,0,0,3,,,,6,64,101
273408,note_off,,,,,0,0,6,,,,1,57,0
273408,note_off,,,,,512,0,3,,,,6,60,0
273920,note_on,,,,,512,0,2,,,,2,76,62
273920,note_on,,,,,0,0,3,,,,6,67,62
273920,note_off,,,,,512,0,3,,,,6,64,0
273920,note_off,,,,,0,0,6,,,,1,64,0
273920,note_off,,,,,512,0,5,,,,3,55,0
273920,note_on,,,,,0,0,5,,,,3,52,62
273920,note_on,,,,,0,0,6,,,,1,52,62
273920,note_off,,,,,0,0,6,,,,1,55,0
273920,note_on,,,,,0,0,6,,,,1,76,78
273920,note_on,,,,,0,0,6,,,,1,67,78
273920,note_on,,,,,0,0,6,,,,1,59,78
273920,note_off,,,,,512,0,6,,,,1,55,0
274432,note_on,,,,,0,0,6,,,,1,59,63
274432,note_on,,,,,0,0,6,,,,1,59,62
274432,note_on,,,,,0,0,6,,,,1,75,63
274432,note_off,,,,,512,0,5,,,,3,52,0
274432,note_on,,,,,0,0,5,,,,3,59,62
274432,note_on,,,,,0,0,3,,,,6,75,62
274432,note_on,,,,,0,0,2,,,,2,75,62
274432,note_off,,,,,512,0,2,,,,2,76,0
274432,note_off,,,,,512,0,6,,,,1,59,0
274432,note_off,,,,,0,0,6,,,,1,67,0
274432,note_off,,,,,0,0,6,,,,1,76,0
274432,note_off,,,,,0,0,6,,,,1,52,0
274432,note_off,,,,,512,0,3,,,,6,67,0
274432,note_on,,,,,0,0,6,,,,1,71,63
274688,note_off,,,,,256,0,3,,,,6,75,0
274688,note_on,,,,,0,0,3,,,,6,76,62
274688,note_off,,,,,256,0,6,,,,1,75,0
274688,note_on,,,,,0,0,6,,,,1,76,63
274688,note_off,,,,,256,0,2,,,,2,75,0
274688,note_on,,,,,0,0,2,,,,2,76,62
274944,note_off,,,,,0,0,6,,,,1,76,0
274944,note_on,,,,,0,0,6,,,,1,59,63
274944,note_on,,,,,0,0,6,,,,1,63,63
274944,note_off,,,,,256,0,2,,,,2,76,0
274944,note_on,,,,,0,0,6,,,,1,78,63
274944,note_on,,,,,0,0,2,,,,2,78,62
274944,note_off,,,,,256,0,3,,,,6,76,0
274944,note_on,,,,,0,0,3,,,,6,78,62
274944,note_off,,,,,256,0,6,,,,1,59,0
275200,note_off,,,,,256,0,3,,,,6,78,0
275200,note_on,,,,,0,0,3,,,,6,79,62
275200,note_off,,,,,256,0,2,,,,2,78,0
275200,note_on,,,,,0,0,6,,,,1,79,63
275200,note_off,,,,,256,0,6,,,,1,78,0
275200,note_on,,,,,0,0,2,,,,2,79,62
275456,note_on,,,,,0,0,6,,,,1,59,63
275456,note_off,,,,,0,0,6,,,,1,63,0
275456,note_off,,,,,256,0,6,,,,1,59,0
275456,note_off,,,,,256,0,2,,,,2,79,0
275456,note_on,,,,,0,0,2,,,,2,81,62
275456,note_off,,,,,0,0,6,,,,1,59,0
275456,note_on,,,,,0,0,6,,,,1,59,62
275456,note_on,,,,,0,0,6,,,,1,81,63
275456,note_on,,,,,0,0,6,,,,1,63,63
275456,note_off,,,,,0,0,6,,,,1,79,0
275456,note_on,,,,,0,0,3,,,,6,81,62
275456,note_off,,,,,256,0,3,,,,6,79,0
275456,note_on,,,,,0,0,5,,,,3,59,62
275456,note_off,,,,,1024,0,5,,,,3,59,0
275712,note_off,,,,,256,0,3,,,,6,81,0
275712,note_off,,,,,256,0,6,,,,1,81,0
275712,note_off,,,,,256,0,2,,,,2,81,0
275712,note_on,,,,,0,0,2,,,,2,78,62
275712,note_on,,,,,0,0,3,,,,6,78,62
275712,note_on,,,,,0,0,6,,,,1,78,63
275968,note_on,,,,,0,0,3,,,,6,76,62
275968,note_on,,,,,0,0,6,,,,1,59,63
275968,note_off,,,,,0,0,6,,,,1,78,0
275968,note_off,,,,,256,0,3,,,,6,78,0
275968,note_off,,,,,0,0,6,,,,1,63,0
275968,note_off,,,,,256,0,6,,,,1,59,0
275968,note_on,,,,,0,0,6,,,,1,63,63
275968,note_on,,,,,0,0,2,,,,2,76,62
275968,note_off,,,,,256,0,2,,,,2,78,0
275968,note_on,,,,,0,0,6,,,,1,76,63
276224,note_off,,,,,256,0,2,,,,2,76,0
276224,note_on,,,,,0,0,3,,,,6,78,62
276224,note_off,,,,,256,0,3,,,,6,76,0
276224,note_on,,,,,0,0,6,,,,1,78,63
276224,note_off,,,,,256,0,6,,,,1,76,0
276224,note_on,,,,,0,0,2,,,,2,78,62
276480,note_off,,,,,1024,0,5,,,,3,59,0
276480,note_off,,,,,0,0,6,,,,1,59,0
276480,note_off,,,,,0,0,6,,,,1,59,0
276480,note_off,,,,,0,0,6,,,,1,63,0
276480,note_on,,,,,0,0,6,,,,1,59,63
276480,note_on,,,,,0,0,6,,,,1,64,63
276480,note_on,,,,,0,0,6,,,,1,71,63
276480,note_on,,,,,0,0,6,,,,1,79,63
276480,note_on,,,,,0,0,6,,,,1,59,62
276480,note_off,,,,,256,0,6,,,,1,71,0
276480,note_off,,,,,0,0,6,,,,1,78,0
276480,note_on,,,,,0,0,5,,,,3,59,62
276480,note_off,,,,,256,0,2,,,,2,78,0
276480,note_off,,,,,256,0,3,,,,6,78,0
276480,note_on,,,,,0,0,3,,,,6,79,62
276480,note_on,,,,,0,0,2,,,,2,79,62
276736,note_on,,,,,0,0,6,,,,1,76,63
276736,note_off,,,,,256,0,6,,,,1,79,0
276736,note_off,,,,,256,0,3,,,,6,79,0
276736,note_off,,,,,256,0,2,,,,2,79,0
276736,note_on,,,,,0,0,3,,,,6,76,62
276736,note_on,,,,,0,0,2,,,,2,76,62
276992,note_on,,,,,0,0,6,,,,1,64,63
276992,note_on,,,,,0,0,6,,,,1,75,63
276992,note_off,,,,,0,0,6,,,,1,64,0
276992,note_off,,,,,256,0,6,,,,1,59,0
276992,note_off,,,,,256,0,2,,,,2,76,0
276992,note_on,,,,,0,0,2,,,,2,75,62
276992,note_off,,,,,0,0,6,,,,1,76,0
276992,note_off,,,,,256,0,3,,,,6,76,0
276992,note_on,,,,,0,0,6,,,,1,59,63
276992,note_on,,,,,0,0,3,,,,6,75,62
277248,note_on,,,,,0,0,2,,,,2,76,62
277248,note_off,,,,,256,0,2,,,,2,75,0
277248,note_off,,,,,256,0,6,,,,1,75,0
277248,note_on,,,,,0,0,6,,,,1,76,63
277248,note_off,,,,,256,0,3,,,,6,75,0
277248,note_on,,,,,0,0,3,,,,6,76,62
277504,note_off,,,,,0,0,6,,,,1,59,0
277504,note_on,,,,,0,0,6,,,,1,78,63
277504,note_on,,,,,0,0,6,,,,1,63,63
277504,note_on,,,,,0,0,6,,,,1,59,63
277504,note_off,,,,,0,0,6,,,,1,76,0
277504,note_off,,,,,0,0,6,,,,1,64,0
277504,note_off,,,,,256,0,6,,,,1,59,0
277504,note_on,,,,,0,0,3,,,,6,78,62
277504,note_off,,,,,256,0,3,,,,6,76,0
277504,note_off,,,,,1024,0,5,,,,3,59,0
277504,note_on,,,,,0,0,5,,,,3,59,62
277504,note_off,,,,,256,0,2,,,,2,76,0
277504,note_on,,,,,0,0,2,,,,2,78,62
277504,note_on,,,,,0,0,6,,,,1,59,62
277760,note_on,,,,,0,0,3,,,,6,79,62
277760,note_off,,,,,256,0,3,,,,6,78,0
277760,note_off,,,,,256,0,6,,,,1,78,0
277760,note_on,,,,,0,0,2,,,,2,79,62
277760,note_off,,,,,256,0,2,,,,2,78,0
277760,note_on,,,,,0,0,6,,,,1,79,63
278016,note_off,,,,,256,0,6,,,,1,59,0
278016,note_off,,,,,0,0,6,,,,1,63,0
278016,note_off,,,,,0,0,6,,,,1,79,0
278016,note_on,,,,,0,0,6,,,,1,59,63
278016,note_off,,,,,256,0,2,,,,2,79,0
278016,note_on,,,,,0,0,6,,,,1,81,63
278016,note_off,,,,,256,0,3,,,,6,79,0
278016,note_on,,,,,0,0,3,,,,6,81,62
278016,note_on,,,,,0,0,2,,,,2,81,62
278016,note_on,,,,,0,0,6,,,,1,63,63
278272,note_on,,,,,0,0,2,,,,2,78,62
278272,note_off,,,,,256,0,2,,,,2,81,0
278272,note_off,,,,,256,0,6,,,,1,81,0
278272,note_on,,,,,0,0,6,,,,1,78,63
278272,note_on,,,,,0,0,3,,,,6,78,62
278272,note_off,,,,,256,0,3,,,,6,81,0
278528,note_off,,,,,0,0,6,,,,1,59,0
278528,note_on,,,,,0,0,2,,,,2,79,62
278528,note_off,,,,,0,0,6,,,,1,59,0
278528,note_off,,,,,256,0,6,,,,1,71,0
278528,note_on,,,,,0,0,3,,,,6,79,62
278528,note_off,,,,,256,0,3,,,,6,78,0
278528,note_on,,,,,0,0,5,,,,3,59,62
278528,note_off,,,,,256,0,2,,,,2,78,0
278528,note_on,,,,,0,0,6,,,,1,71,63
278528,note_off,,,,,0,0,6,,,,1,63,0
278528,note_off,,,,,0,0,6,,,,1,78,0
278528,note_on,,,,,0,0,6,,,,1,59,63
278528,note_on,,,,,0,0,6,,,,1,64,63
278528,note_on,,,,,0,0,6,,,,1,59,62
278528,note_on,,,,,0,0,6,,,,1,79,63
278528,note_off,,,,,1024,0,5,,,,3,59,0
278784,note_off,,,,,256,0,6,,,,1,79,0
278784,note_on,,,,,0,0,2,,,,2,76,62
278784,note_off,,,,,256,0,2,,,,2,79,0
278784,note_on,,,,,0,0,6,,,,1,76,63
278784,note_on,,,,,0,0,3,,,,6,76,62
278784,note_off,,,,,256,0,3,,,,6,79,0
279040,note_on,,,,,0,0,3,,,,6,75,62
279040,note_off,,,,,256,0,3,,,,6,76,0
279040,note_on,,,,,0,0,2,,,,2,75,62
279040,note_off,,,,,256,0,2,,,,2,76,0
279040,note_off,,,,,256,0,6,,,,1,59,0
279040,note_on,,,,,0,0,6,,,,1,75,63
279040,note_off,,,,,0,0,6,,,,1,76,0
279040,note_off,,,,,0,0,6,,,,1,64,0
279040,note_on,,,,,0,0,6,,,,1,64,63
279040,note_on,,,,,0,0,6,,,,1,59,63
279296,note_off,,,,,256,0,2,,,,2,75,0
279296,note_on,,,,,0,0,6,,,,1,76,63
279296,note_off,,,,,256,0,3,,,,6,75,0
279296,note_on,,,,,0,0,3,,,,6,76,62
279296,note_on,,,,,0,0,2,,,,2,76,62
279296,note_off,,,,,256,0,6,,,,1,75,0
279552,note_off,,,,,0,0,6,,,,1,76,0
279552,note_off,,,,,0,0,6,,,,1,64,0
279552,note_on,,,,,0,0,6,,,,1,63,63
279552,note_on,,,,,0,0,6,,,,1,78,63
279552,note_off,,,,,256,0,2,,,,2,76,0
279552,note_on,,,,,0,0,2,,,,2,78,62
279552,note_off,,,,,0,0,6,,,,1,59,0
279552,note_on,,,,,0,0,6,,,,1,59,62
279552,note_off,,,,,256,0,6,,,,1,59,0
279552,note_on,,,,,0,0,3,,,,6,78,62
279552,note_on,,,,,0,0,5,,,,3,59,62
279552,note_off,,,,,1024,0,5,,,,3,59,0
279552,note_on,,,,,0,0,6,,,,1,59,63
279552,note_off,,,,,256,0,3,,,,6,76,0
279808,note_on,,,,,0,0,6,,,,1,79,63
279808,note_off,,,,,256,0,2,,,,2,78,0
279808,note_on,,,,,0,0,3,,,,6,79,62
279808,note_off,,,,,256,0,6,,,,1,78,0
279808,note_on,,,,,0,0,2,,,,2,79,62
279808,note_off,,,,,256,0,3,,,,6,78,0
280064,note_on,,,,,0,0,6,,,,1,81,63
280064,note_on,,,,,0,0,3,,,,6,81,62
280064,note_on,,,,,0,0,2,,,,2,81,62
280064,note_off,,,,,256,0,2,,,,2,79,0
280064,note_on,,,,,0,0,6,,,,1,59,63
280064,note_off,,,,,0,0,6,,,,1,79,0
280064,note_off,,,,,0,0,6,,,,1,63,0
280064,note_off,,,,,256,0,6,,,,1,59,0
280064,note_off,,,,,256,0,3,,,,6,79,0
280064,note_on,,,,,0,0,6,,,,1,63,63
280320,note_on,,,,,0,0,2,,,,2,78,62
280320,note_off,,,,,256,0,2,,,,2,81,0
280320,note_off,,,,,256,0,3,,,,6,81,0
280320,note_on,,,,,0,0,6,,,,1,78,63
280320,note_on,,,,,0,0,3,,,,6,78,62
280320,note_off,,,,,256,0,6,,,,1,81,0
280576,note_on,,,,,0,0,5,,,,3,64,62
280576,note_off,,,,,1024,0,5,,,,3,59,0
280576,note_off,,,,,0,0,6,,,,1,59,0
280576,note_off,,,,,256,0,2,,,,2,78,0
280576,note_on,,,,,0,0,2,,,,2,79,62
280576,note_off,,,,,256,0,6,,,,1,71,0
280576,note_off,,,,,256,0,3,,,,6,78,0
280576,note_on,,,,,0,0,3,,,,6,71,62
280576,note_off,,,,,0,0,6,,,,1,63,0
280576,note_off,,,,,0,0,6,,,,1,78,0
280576,note_on,,,,,0,0,6,,,,1,64,63
280576,note_on,,,,,0,0,6,,,,1,71,63
280576,note_on,,,,,0,0,6,,,,1,79,63
280576,note_on,,,,,0,0,6,,,,1,64,62
280576,note_off,,,,,0,0,6,,,,1,59,0
281088,note_off,,,,,512,0,6,,,,1,64,0
281088,note_on,,,,,0,0,3,,,,6,67,62
281088,note_off,,,,,512,0,3,,,,6,71,0
281088,note_on,,,,,0,0,5,,,,3,52,62
281088,note_off,,,,,0,0,6,,,,1,79,0
281088,note_off,,,,,512,0,5,,,,3,64,0
281088,note_on,,,,,0,0,6,,,,1,52,62
281088,note_off,,,,,0,0,6,,,,1,64,0
281088,note_on,,,,,0,0,6,,,,1,71,63
281088,note_on,,,,,0,0,6,,,,1,67,63
281088,note_on,,,,,0,0,6,,,,1,76,63
281088,note_off,,,,,512,0,2,,,,2,79,0
281088,note_off,,,,,0,0,6,,,,1,71,0
281088,note_on,,,,,0,0,2,,,,2,76,62
281600,note_on,,,,,0,0,3,,,,6,64,62
281600,note_off,,,,,512,0,6,,,,1,67,0
281600,note_off,,,,,512,0,3,,,,6,67,0
281600,note_off,,,,,0,0,6,,,,1,52,0
281600,note_on,,,,,0,0,6,,,,1,64,63
281600,note_on,,,,,0,0,6,,,,1,55,63
281600,note_off,,,,,0,0,6,,,,1,76,0
281600,note_off,,,,,0,0,6,,,,1,71,0
281600,note_on,,,,,0,0,6,,,,1,55,62
281600,note_off,,,,,512,0,2,,,,2,76,0
281600,note_off,,,,,512,0,5,,,,3,52,0
281600,note_on,,,,,0,0,5,,,,3,55,62
282112,note_on,,,,,0,0,6,,,,1,52,62
282112,note_off,,,,,0,0,6,,,,1,55,0
282112,note_on,,,,,0,0,6,,,,1,76,63
282112,note_on,,,,,0,0,6,,,,1,71,63
282112,note_on,,,,,0,0,6,,,,1,67,63
282112,note_on,,,,,512,0,2,,,,2,76,62
282112,note_off,,,,,512,0,6,,,,1,55,0
282112,note_on,,,,,0,0,3,,,,6,67,62
282112,note_on,,,,,0,0,5,,,,3,52,62
282112,note_off,,,,,512,0,3,,,,6,64,0
282112,note_off,,,,,0,0,6,,,,1,64,0
282112,note_off,,,,,512,0,5,,,,3,55,0
282624,note_on,,,,,0,0,6,,,,1,57,78
282624,note_on,,,,,0,0,6,,,,1,57,62
282624,note_off,,,,,512,0,5,,,,3,52,0
282624,note_on,,,,,0,0,5,,,,3,57,62
282624,note_on,,,,,0,0,6,,,,1,73,78
282624,note_on,,,,,0,0,6,,,,1,69,78
282624,note_off,,,,,0,0,6,,,,1,52,0
282624,note_off,,,,,0,0,6,,,,1,71,0
282624,note_off,,,,,512,0,2,,,,2,76,0
282624,note_on,,,,,0,0,2,,,,2,73,62
282624,note_off,,,,,0,0,6,,,,1,76,0
282624,note_off,,,,,512,0,3,,,,6,67,0
282624,note_on,,,,,0,0,3,,,,6,73,62
282624,note_off,,,,,512,0,6,,,,1,67,0
282880,note_off,,,,,256,0,6,,,,1,73,0
282880,note_off,,,,,256,0,3,,,,6,73,0
282880,note_on,,,,,0,0,3,,,,6,74,62
282880,note_on,,,,,0,0,2,,,,2,74,62
282880,note_off,,,,,256,0,2,,,,2,73,0
282880,note_on,,,,,0,0,6,,,,1,74,78
283136,note_off,,,,,256,0,6,,,,1,57,0
283136,note_off,,,,,0,0,6,,,,1,74,0
283136,note_on,,,,,0,0,6,,,,1,57,78
283136,note_on,,,,,0,0,6,,,,1,61,78
283136,note_off,,,,,256,0,3,,,,6,74,0
283136,note_on,,,,,0,0,6,,,,1,76,78
283136,note_on,,,,,0,0,3,,,,6,76,62
283136,note_on,,,,,0,0,2,,,,2,76,62
283136,note_off,,,,,256,0,2,,,,2,74,0
283392,note_on,,,,,0,0,6,,,,1,77,78
283392,note_off,,,,,256,0,6,,,,1,76,0
283392,note_on,,,,,0,0,3,,,,6,77,62
283392,note_off,,,,,256,0,2,,,,2,76,0
283392,note_on,,,,,0,0,2,,,,2,77,62
283392,note_off,,,,,256,0,3,,,,6,76,0
283648,note_off,,,,,256,0,3,,,,6,77,0
283648,note_on,,,,,0,0,6,,,,1,57,62
283648,note_off,,,,,0,0,6,,,,1,57,0
283648,note_on,,,,,0,0,6,,,,1,79,78
283648,note_on,,,,,0,0,6,,,,1,61,78
283648,note_on,,,,,0,0,6,,,,1,57,78
283648,note_off,,,,,0,0,6,,,,1,77,0
283648,note_off,,,,,0,0,6,,,,1,61,0
283648,note_off,,,,,256,0,6,,,,1,57,0
283648,note_on,,,,,0,0,5,,,,3,57,62
283648,note_on,,,,,0,0,2,,,,2,79,62
283648,note_off,,,,,256,0,2,,,,2,77,0
283648,note_off,,,,,1024,0,5,,,,3,57,0
283648,note_on,,,,,0,0,3,,,,6,79,62
283904,note_on,,,,,0,0,3,,,,6,76,62
283904,note_off,,,,,256,0,6,,,,1,79,0
283904,note_off,,,,,256,0,2,,,,2,79,0
283904,note_off,,,,,256,0,3,,,,6,79,0
283904,note_on,,,,,0,0,6,,,,1,76,78
283904,note_on,,,,,0,0,2,,,,2,76,62
284160,note_on,,,,,0,0,2,,,,2,74,62
284160,note_off,,,,,256,0,2,,,,2,76,0
284160,note_on,,,,,0,0,3,,,,6,74,62
284160,note_off,,,,,256,0,6,,,,1,57,0
284160,note_off,,,,,256,0,3,,,,6,76,0
284160,note_off,,,,,0,0,6,,,,1,76,0
284160,note_on,,,,,0,0,6,,,,1,57,78
284160,note_on,,,,,0,0,6,,,,1,61,78
284160,note_on,,,,,0,0,6,,,,1,74,78
284160,note_off,,,,,0,0,6,,,,1,61,0
284416,note_off,,,,,256,0,2,,,,2,74,0
284416,note_on,,,,,0,0,6,,,,1,76,78
284416,note_on,,,,,0,0,2,,,,2,76,62
284416,note_on,,,,,0,0,3,,,,6,76,62
284416,note_off,,,,,256,0,6,,,,1,74,0
284416,note_off,,,,,256,0,3,,,,6,74,0
284672,note_on,,,,,0,0,3,,,,6,77,62
284672,note_on,,,,,0,0,5,,,,3,57,62
284672,note_off,,,,,1024,0,5,,,,3,57,0
284672,note_off,,,,,256,0,2,,,,2,76,0
284672,note_on,,,,,0,0,2,,,,2,77,62
284672,note_off,,,,,256,0,3,,,,6,76,0
284672,note_on,,,,,0,0,6,,,,1,57,62
284672,note_on,,,,,0,0,6,,,,1,77,78
284672,note_on,,,,,0,0,6,,,,1,69,78
284672,note_on,,,,,0,0,6,,,,1,57,78
284672,note_on,,,,,0,0,6,,,,1,62,78
284672,note_off,,,,,0,0,6,,,,1,57,0
284672,note_off,,,,,0,0,6,,,,1,57,0
284672,note_off,,,,,256,0,6,,,,1,69,0
284672,note_off,,,,,0,0,6,,,,1,61,0
284672,note_off,,,,,0,0,6,,,,1,76,0
284928,note_off,,,,,256,0,2,,,,2,77,0
284928,note_off,,,,,256,0,6,,,,1,77,0
284928,note_on,,,,,0,0,6,,,,1,74,78
284928,note_on,,,,,0,0,3,,,,6,74,62
284928,note_off,,,,,256,0,3,,,,6,77,0
284928,note_on,,,,,0,0,2,,,,2,74,62
285184,note_on,,,,,0,0,2,,,,2,73,62
285184,note_on,,,,,0,0,6,,,,1,73,78
285184,note_off,,,,,256,0,6,,,,1,57,0
285184,note_off,,,,,0,0,6,,,,1,62,0
285184,note_off,,,,,0,0,6,,,,1,74,0
285184,note_on,,,,,0,0,6,,,,1,62,78
285184,note_off,,,,,256,0,2,,,,2,74,0
285184,note_on,,,,,0,0,6,,,,1,57,78
285184,note_off,,,,,256,0,3,,,,6,74,0
285184,note_on,,,,,0,0,3,,,,6,73,62
285440,note_off,,,,,256,0,6,,,,1,73,0
285440,note_on,,,,,0,0,6,,,,1,74,78
285440,note_off,,,,,256,0,3,,,,6,73,0
285440,note_on,,,,,0,0,3,,,,6,74,62
285440,note_off,,,,,256,0,2,,,,2,73,0
285440,note_on,,,,,0,0,2,,,,2,74,62
285696,note_on,,,,,0,0,5,,,,3,57,62
285696,note_off,,,,,1024,0,5,,,,3,57,0
285696,note_off,,,,,256,0,6,,,,1,57,0
285696,note_on,,,,,0,0,6,,,,1,57,62
285696,note_off,,,,,0,0,6,,,,1,57,0
285696,note_off,,,,,256,0,3,,,,6,74,0
285696,note_on,,,,,0,0,3,,,,6,76,62
285696,note_on,,,,,0,0,2,,,,2,76,62
285696,note_on,,,,,0,0,6,,,,1,76,78
285696,note_off,,,,,256,0,2,,,,2,74,0
285696,note_off,,,,,0,0,6,,,,1,62,0
285696,note_on,,,,,0,0,6,,,,1,57,78
285696,note_on,,,,,0,0,6,,,,1,61,78
285696,note_off,,,,,0,0,6,,,,1,74,0
285952,note_on,,,,,0,0,3,,,,6,77,62
285952,note_on,,,,,0,0,6,,,,1,77,78
285952,note_off,,,,,256,0,2,,,,2,76,0
285952,note_on,,,,,0,0,2,,,,2,77,62
285952,note_off,,,,,256,0,6,,,,1,76,0
285952,note_off,,,,,256,0,3,,,,6,76,0
286208,note_on,,,,,0,0,6,,,,1,79,78
286208,note_off,,,,,256,0,3,,,,6,77,0
286208,note_on,,,,,0,0,6,,,,1,61,78
286208,note_on,,,,,0,0,6,,,,1,57,78
286208,note_off,,,,,0,0,6,,,,1,77,0
286208,note_off,,,,,0,0,6,,,,1,61,0
286208,note_on,,,,,0,0,2,,,,2,79,62
286208,note_off,,,,,256,0,2,,,,2,77,0
286208,note_on,,,,,0,0,3,,,,6,79,62
286208,note_off,,,,,256,0,6,,,,1,57,0
286464,note_on,,,,,0,0,6,,,,1,76,78
286464,note_off,,,,,256,0,6,,,,1,79,0
286464,note_on,,,,,0,0,3,,,,6,76,62
286464,note_off,,,,,256,0,3,,,,6,79,0
286464,note_off,,,,,256,0,2,,,,2,79,0
286464,note_on,,,,,0,0,2,,,,2,76,62
286720,note_off,,,,,0,0,6,,,,1,61,0
286720,note_off,,,,,256,0,2,,,,2,76,0
286720,note_on,,,,,0,0,2,,,,2,77,62
286720,note_off,,,,,1024,0,5,,,,3,57,0
286720,note_on,,,,,0,0,5,,,,3,57,62
286720,note_off,,,,,256,0,6,,,,1,69,0
286720,note_off,,,,,0,0,6,,,,1,57,0
286720,note_off,,,,,0,0,6,,,,1,57,0
286720,note_off,,,,,0,0,6,,,,1,76,0
286720,note_on,,,,,0,0,6,,,,1,62,78
286720,note_on,,,,,0,0,3,,,,6,77,62
286720,note_off,,,,,256,0,3,,,,6,76,0
286720,note_on,,,,,0,0,6,,,,1,57,78
286720,note_on,,,,,0,0,6,,,,1,77,78
286720,note_on,,,,,0,0,6,,,,1,69,78
286720,note_on,,,,,0,0,6,,,,1,57,62
286976,note_off,,,,,256,0,6,,,,1,77,0
286976,note_on,,,,,0,0,6,,,,1,74,78
286976,note_off,,,,,256,0,3,,,,6,77,0
286976,note_off,,,,,256,0,2,,,,2,77,0
286976,note_on,,,,,0,0,2,,,,2,74,62
286976,note_on,,,,,0,0,3,,,,6,74,62
287232,note_off,,,,,256,0,3,,,,6,74,0
287232,note_on,,,,,0,0,3,,,,6,73,62
287232,note_on,,,,,0,0,6,,,,1,57,78
287232,note_off,,,,,0,0,6,,,,1,74,0
287232,note_on,,,,,0,0,2,,,,2,73,62
287232,note_off,,,,,256,0,2,,,,2,74,0
287232,note_on,,,,,0,0,6,,,,1,73,78
287232,note_off,,,,,0,0,6,,,,1,62,0
287232,note_off,,,,,256,0,6,,,,1,57,0
287232,note_on,,,,,0,0,6,,,,1,62,78
287488,note_off,,,,,256,0,3,,,,6,73,0
287488,note_on,,,,,0,0,2,,,,2,74,62
287488,note_off,,,,,256,0,6,,,,1,73,0
287488,note_on,,,,,0,0,6,,,,1,74,78
287488,note_off,,,,,256,0,2,,,,2,73,0
287488,note_on,,,,,0,0,3,,,,6,74,62
287744,note_off,,,,,0,0,6,,,,1,74,0
287744,note_on,,,,,0,0,6,,,,1,57,78
287744,note_off,,,,,0,0,6,,,,1,62,0
287744,note_on,,,,,0,0,6,,,,1,61,78
287744,note_on,,,,,0,0,6,,,,1,76,78
287744,note_off,,,,,0,0,6,,,,1,57,0
287744,note_on,,,,,0,0,6,,,,1,57,62
287744,note_off,,,,,256,0,6,,,,1,57,0
287744,note_off,,,,,1024,0,5,,,,3,57,0
287744,note_off,,,,,256,0,3,,,,6,74,0
287744,note_on,,,,,0,0,3,,,,6,76,62
287744,note_on,,,,,0,0,5,,,,3,57,62
287744,note_off,,,,,256,0,2,,,,2,74,0
287744,note_on,,,,,0,0,2,,,,2,76,62
288000,note_off,,,,,256,0,6,,,,1,76,0
288000,note_on,,,,,0,0,6,,,,1,77,78
288000,note_on,,,,,0,0,3,,,,6,77,62
288000,note_off,,,,,256,0,2,,,,2,76,0
288000,note_on,,,,,0,0,2,,,,2,77,62
288000,note_off,,,,,256,0,3,,,,6,76,0
288256,note_on,,,,,0,0,2,,,,2,79,62
288256,note_on,,,,,0,0,6,,,,1,79,78
288256,note_on,,,,,0,0,6,,,,1,61,78
288256,note_on,,,,,0,0,6,,,,1,57,78
288256,note_off,,,,,0,0,6,,,,1,77,0
288256,note_off,,,,,0,0,6,,,,1,61,0
288256,note_off,,,,,256,0,3,,,,6,77,0
288256,note_on,,,,,0,0,3,,,,6,79,62
288256,note_off,,,,,256,0,6,,,,1,57,0
288256,note_off,,,,,256,0,2,,,,2,77,0
288512,note_on,,,,,0,0,3,,,,6,76,62
288512,note_off,,,,,256,0,3,,,,6,79,0
288512,note_off,,,,,256,0,6,,,,1,79,0
288512,note_on,,,,,0,0,2,,,,2,76,62
288512,note_off,,,,,256,0,2,,,,2,79,0
288512,note_on,,,,,0,0,6,,,,1,76,78
288768,note_on,,,,,0,0,3,,,,6,69,62
288768,note_on,,,,,0,0,5,,,,3,62,62
288768,note_off,,,,,1024,0,5,,,,3,57,0
288768,note_off,,,,,256,0,3,,,,6,76,0
288768,note_on,,,,,0,0,6,,,,1,74,78
288768,note_off,,,,,0,0,6,,,,1,57,0
288768,note_off,,,,,0,0,6,,,,1,57,0
288768,note_off,,,,,0,0,6,,,,1,61,0
288768,note_off,,,,,0,0,6,,,,1,76,0
288768,note_on,,,,,0,0,6,,,,1,62,78
288768,note_on,,,,,0,0,6,,,,1,69,78
288768,note_on,,,,,0,0,6,,,,1,77,78
288768,note_on,,,,,0,0,6,,,,1,62,62
288768,note_off,,,,,256,0,2,,,,2,76,0
288768,note_on,,,,,0,0,2,,,,2,77,62
288768,note_off,,,,,256,0,6,,,,1,69,0
289280,note_off,,,,,512,0,3,,,,6,69,0
289280,note_off,,,,,512,0,2,,,,2,77,0
289280,note_on,,,,,0,0,2,,,,2,74,62
289280,note_on,,,,,0,0,3,,,,6,65,62
289280,note_on,,,,,0,0,5,,,,3,50,62
289280,note_off,,,,,0,0,6,,,,1,77,0
289280,note_off,,,,,0,0,6,,,,1,62,0
289280,note_on,,,,,0,0,6,,,,1,74,78
289280,note_on,,,,,0,0,6,,,,1,69,78
289280,note_on,,,,,0,0,6,,,,1,65,78
289280,note_off,,,,,0,0,6,,,,1,74,0
289280,note_off,,,,,0,0,6,,,,1,69,0
289280,note_off,,,,,512,0,6,,,,1,62,0
289280,note_off,,,,,512,0,5,,,,3,62,0
289280,note_on,,,,,0,0,6,,,,1,50,62
289792,note_off,,,,,0,0,6,,,,1,69,0
289792,note_off,,,,,0,0,6,,,,1,74,0
289792,note_off,,,,,512,0,5,,,,3,50,0
289792,note_on,,,,,0,0,5,,,,3,53,62
289792,note_on,,,,,0,0,3,,,,6,69,62
289792,note_on,,,,,0,0,6,,,,1,53,78
289792,note_off,,,,,0,0,6,,,,1,50,0
289792,note_on,,,,,0,0,6,,,,1,53,62
289792,note_off,,,,,512,0,2,,,,2,74,0
289792,note_off,,,,,512,0,3,,,,6,65,0
289792,note_off,,,,,512,0,6,,,,1,65,0
290304,note_off,,,,,512,0,6,,,,1,53,0
290304,note_on,,,,,0,0,6,,,,1,65,127
290304,note_on,,,,,0,0,6,,,,1,69,127
290304,note_on,,,,,512,0,2,,,,2,69,114
290304,note_off,,,,,0,0,6,,,,1,53,0
290304,note_on,,,,,0,0,6,,,,1,50,114
290304,note_on,,,,,0,0,5,,,,3,50,101
290304,note_off,,,,,512,0,3,,,,6,69,0
290304,note_on,,,,,0,0,3,,,,6,65,101
290304,note_off,,,,,512,0,5,,,,3,53,0
290816,note_on,,,,,0,0,5,,,,3,55,101
290816,note_off,,,,,512,0,3,,,,6,65,0
290816,note_on,,,,,0,0,3,,,,6,71,101
290816,note_on,,,,,0,0,6,,,,1,55,114
290816,note_on,,,,,0,0,6,,,,1,71,127
290816,note_on,,,,,0,0,6,,,,1,62,127
290816,note_on,,,,,0,0,6,,,,1,55,127
290816,note_off,,,,,0,0,6,,,,1,50,0
290816,note_off,,,,,512,0,5,,,,3,50,0
290816,note_off,,,,,512,0,6,,,,1,65,0
290816,note_off,,,,,0,0,6,,,,1,69,0
290816,note_on,,,,,0,0,2,,,,2,71,114
290816,note_off,,,,,512,0,2,,,,2,69,0
290986,note_off,,,,,170,0,6,,,,1,71,0
290986,note_on,,,,,0,0,6,,,,1,69,127
290987,note_on,,,,,0,0,2,,,,2,69,114
290987,note_off,,,,,171,0,2,,,,2,71,0
290987,note_off,,,,,171,0,3,,,,6,71,0
290987,note_on,,,,,0,0,3,,,,6,69,101
291157,note_off,,,,,170,0,3,,,,6,69,0
291157,note_on,,,,,0,0,3,,,,6,67,101
291157,note_off,,,,,170,0,2,,,,2,69,0
291157,note_on,,,,,0,0,2,,,,2,67,114
291157,note_on,,,,,171,0,6,,,,1,67,127
291157,note_off,,,,,0,0,6,,,,1,69,0
291328,note_on,,,,,0,0,6,,,,1,55,127
291328,note_on,,,,,0,0,6,,,,1,59,127
291328,note_on,,,,,0,0,6,,,,1,74,127
291328,note_off,,,,,0,0,6,,,,1,55,0
291328,note_on,,,,,0,0,6,,,,1,55,114
291328,note_off,,,,,512,0,5,,,,3,55,0
291328,note_on,,,,,0,0,5,,,,3,55,101
291328,note_off,,,,,171,0,2,,,,2,67,0
291328,note_on,,,,,0,0,2,,,,2,74,114
291328,note_off,,,,,0,0,6,,,,1,62,0
291328,note_off,,,,,0,0,6,,,,1,67,0
291328,note_on,,,,,0,0,3,,,,6,74,101
291328,note_off,,,,,171,0,3,,,,6,67,0
291328,note_off,,,,,171,0,6,,,,1,55,0
291498,note_on,,,,,0,0,6,,,,1,72,127
291498,note_off,,,,,170,0,6,,,,1,74,0
291499,note_on,,,,,0,0,2,,,,2,72,114
291499,note_off,,,,,171,0,2,,,,2,74,0
291499,note_on,,,,,0,0,3,,,,6,72,101
291499,note_off,,,,,171,0,3,,,,6,74,0
291669,note_on,,,,,0,0,3,,,,6,71,101
291669,note_off,,,,,0,0,6,,,,1,72,0
291669,note_on,,,,,171,0,6,,,,1,71,127
291669,note_off,,,,,170,0,3,,,,6,72,0
291669,note_off,,,,,170,0,2,,,,2,72,0
291669,note_on,,,,,0,0,2,,,,2,71,114
291840,note_off,,,,,0,0,6,,,,1,55,0
291840,note_off,,,,,171,0,2,,,,2,71,0
291840,note_on,,,,,0,0,2,,,,2,79,114
291840,note_on,,,,,0,0,6,,,,1,67,127
291840,note_on,,,,,0,0,5,,,,3,52,101
291840,note_off,,,,,512,0,5,,,,3,55,0
291840,note_on,,,,,0,0,6,,,,1,60,127
291840,note_off,,,,,0,0,6,,,,1,71,0
291840,note_off,,,,,0,0,6,,,,1,59,0
291840,note_on,,,,,0,0,6,,,,1,79,127
291840,note_off,,,,,171,0,6,,,,1,55,0
291840,note_off,,,,,171,0,3,,,,6,71,0
291840,note_on,,,,,0,0,3,,,,6,67,101
291840,note_on,,,,,0,0,6,,,,1,52,114
292352,note_on,,,,,0,0,6,,,,1,67,127
292352,note_off,,,,,0,0,6,,,,1,67,0
292352,note_on,,,,,0,0,6,,,,1,60,127
292352,note_off,,,,,0,0,6,,,,1,52,0
292352,note_on,,,,,0,0,6,,,,1,52,114
292352,note_off,,,,,512,0,5,,,,3,52,0
292352,note_off,,,,,512,0,6,,,,1,60,0
292352,note_off,,,,,0,0,6,,,,1,79,0
292352,note_on,,,,,0,0,5,,,,3,52,101
292352,note_off,,,,,512,0,3,,,,6,67,0
292352,note_off,,,,,512,0,2,,,,2,79,0
292352,note_on,,,,,0,0,2,,,,2,67,114
292352,note_on,,,,,0,0,3,,,,6,67,101
292864,note_on,,,,,0,0,6,,,,1,53,127
292864,note_on,,,,,0,0,6,,,,1,60,127
292864,note_on,,,,,0,0,6,,,,1,69,127
292864,note_off,,,,,0,0,6,,,,1,52,0
292864,note_on,,,,,0,0,6,,,,1,53,114
292864,note_off,,,,,512,0,2,,,,2,67,0
292864,note_on,,,,,0,0,5,,,,3,53,101
292864,note_on,,,,,0,0,2,,,,2,69,114
292864,note_off,,,,,512,0,5,,,,3,52,0
292864,note_off,,,,,512,0,3,,,,6,67,0
292864,note_on,,,,,0,0,3,,,,6,69,101
292864,note_off,,,,,512,0,6,,,,1,60,0
292864,note_off,,,,,0,0,6,,,,1,67,0
293034,note_off,,,,,170,0,6,,,,1,69,0
293034,note_on,,,,,0,0,6,,,,1,67,127
293035,note_on,,,,,0,0,2,,,,2,67,114
293035,note_off,,,,,171,0,2,,,,2,69,0
293035,note_off,,,,,171,0,3,,,,6,69,0
293035,note_on,,,,,0,0,3,,,,6,67,101
293205,note_off,,,,,0,0,6,,,,1,67,0
293205,note_on,,,,,171,0,6,,,,1,65,127
293205,note_on,,,,,0,0,3,,,,6,65,101
293205,note_off,,,,,170,0,3,,,,6,67,0
293205,note_off,,,,,170,0,2,,,,2,67,0
293205,note_on,,,,,0,0,2,,,,2,65,114
293376,note_off,,,,,171,0,3,,,,6,65,0
293376,note_off,,,,,512,0,5,,,,3,53,0
293376,note_on,,,,,0,0,5,,,,3,53,101
293376,note_on,,,,,0,0,3,,,,6,72,101
293376,note_off,,,,,0,0,6,,,,1,60,0
293376,note_off,,,,,0,0,6,,,,1,53,0
293376,note_on,,,,,0,0,6,,,,1,53,114
293376,note_off,,,,,0,0,6,,,,1,65,0
293376,note_on,,,,,0,0,2,,,,2,72,114
293376,note_off,,,,,171,0,2,,,,2,65,0
293376,note_on,,,,,0,0,6,,,,1,53,127
293376,note_on,,,,,0,0,6,,,,1,57,127
293376,note_on,,,,,0,0,6,,,,1,72,127
293376,note_off,,,,,171,0,6,,,,1,53,0
293546,note_on,,,,,0,0,6,,,,1,71,127
293546,note_off,,,,,170,0,6,,,,1,72,0
293547,note_off,,,,,171,0,2,,,,2,72,0
293547,note_off,,,,,171,0,3,,,,6,72,0
293547,note_on,,,,,0,0,3,,,,6,71,101
293547,note_on,,,,,0,0,2,,,,2,71,114
293717,note_on,,,,,0,0,2,,,,2,69,114
293717,note_off,,,,,170,0,2,,,,2,71,0
293717,note_off,,,,,170,0,3,,,,6,71,0
293717,note_on,,,,,171,0,6,,,,1,69,127
293717,note_on,,,,,0,0,3,,,,6,69,101
293717,note_off,,,,,0,0,6,,,,1,71,0
293888,note_off,,,,,171,0,2,,,,2,69,0
293888,note_off,,,,,171,0,3,,,,6,69,0
293888,note_on,,,,,0,0,2,,,,2,77,114
293888,note_on,,,,,0,0,3,,,,6,65,101
293888,note_off,,,,,0,0,6,,,,1,69,0
293888,note_on,,,,,0,0,6,,,,1,59,127
293888,note_off,,,,,512,0,5,,,,3,53,0
293888,note_on,,,,,0,0,5,,,,3,50,101
293888,note_off,,,,,171,0,6,,,,1,53,0
293888,note_on,,,,,0,0,6,,,,1,50,114
293888,note_off,,,,,0,0,6,,,,1,57,0
293888,note_on,,,,,0,0,6,,,,1,65,127
293888,note_on,,,,,0,0,6,,,,1,77,127
293888,note_off,,,,,0,0,6,,,,1,53,0
294400,note_off,,,,,512,0,6,,,,1,59,0
294400,note_on,,,,,0,0,6,,,,1,65,127
294400,note_on,,,,,0,0,6,,,,1,69,127
294400,note_off,,,,,0,0,6,,,,1,50,0
294400,note_on,,,,,0,0,6,,,,1,50,114
294400,note_on,,,,,0,0,6,,,,1,59,127
294400,note_on,,,,,0,0,2,,,,2,72,114
294400,note_on,,,,,0,0,5,,,,3,50,101
294400,note_off,,,,,512,0,3,,,,6,65,0
294400,note_off,,,,,512,0,2,,,,2,77,0
294400,note_off,,,,,0,0,6,,,,1,77,0
294400,note_off,,,,,0,0,6,,,,1,65,0
294400,note_off,,,,,512,0,5,,,,3,50,0
294400,note_on,,,,,0,0,3,,,,6,65,101
294912,note_off,,,,,512,0,3,,,,6,65,0
294912,note_on,,,,,0,0,3,,,,6,68,101
294912,note_on,,,,,0,0,6,,,,1,68,127
294912,note_off,,,,,512,0,5,,,,3,50,0
294912,note_on,,,,,0,0,5,,,,3,52,101
294912,note_off,,,,,0,0,6,,,,1,69,0
294912,note_off,,,,,0,0,6,,,,1,50,0
294912,note_on,,,,,0,0,6,,,,1,59,127
294912,note_on,,,,,0,0,6,,,,1,52,114
294912,note_off,,,,,512,0,2,,,,2,72,0
294912,note_on,,,,,0,0,2,,,,2,68,114
294912,note_off,,,,,0,0,6,,,,1,65,0
294912,note_off,,,,,512,0,6,,,,1,59,0
295082,note_off,,,,,170,0,6,,,,1,68,0
295082,note_on,,,,,0,0,6,,,,1,66,127
295083,note_on,,,,,0,0,2,,,,2,66,114
295083,note_off,,,,,171,0,2,,,,2,68,0
295083,note_off,,,,,171,0,3,,,,6,68,0
295083,note_on,,,,,0,0,3,,,,6,66,101
295253,note_off,,,,,170,0,3,,,,6,66,0
295253,note_on,,,,,171,0,6,,,,1,64,127
295253,note_off,,,,,0,0,6,,,,1,66,0
295253,note_off,,,,,170,0,2,,,,2,66,0
295253,note_on,,,,,0,0,2,,,,2,64,114
295253,note_on,,,,,0,0,3,,,,6,64,101
295424,note_on,,,,,0,0,5,,,,3,54,101
295424,note_off,,,,,512,0,5,,,,3,52,0
295424,note_off,,,,,171,0,2,,,,2,64,0
295424,note_on,,,,,0,0,2,,,,2,71,114
295424,note_on,,,,,0,0,6,,,,1,56,127
295424,note_off,,,,,0,0,6,,,,1,64,0
295424,note_off,,,,,171,0,6,,,,1,59,0
295424,note_on,,,,,0,0,3,,,,6,71,101
295424,note_on,,,,,0,0,6,,,,1,59,127
295424,note_on,,,,,0,0,6,,,,1,71,127
295424,note_off,,,,,0,0,6,,,,1,52,0
295424,note_on,,,,,0,0,6,,,,1,54,114
295424,note_off,,,,,171,0,3,,,,6,64,0
295594,note_off,,,,,170,0,6,,,,1,71,0
295594,note_on,,,,,0,0,6,,,,1,69,127
295595,note_off,,,,,171,0,3,,,,6,71,0
295595,note_on,,,,,0,0,3,,,,6,69,101
295595,note_on,,,,,0,0,2,,,,2,69,114
295595,note_off,,,,,171,0,2,,,,2,71,0
295765,note_on,,,,,0,0,3,,,,6,68,101
295765,note_off,,,,,0,0,6,,,,1,69,0
295765,note_on,,,,,171,0,6,,,,1,68,127
295765,note_on,,,,,0,0,2,,,,2,68,114
295765,note_off,,,,,170,0,2,,,,2,69,0
295765,note_off,,,,,170,0,3,,,,6,69,0
295936,note_on,,,,,0,0,5,,,,3,56,101
295936,note_on,,,,,0,0,6,,,,1,56,114
295936,note_off,,,,,0,0,6,,,,1,54,0
295936,note_on,,,,,0,0,6,,,,1,76,109
295936,note_on,,,,,0,0,6,,,,1,59,109
295936,note_on,,,,,0,0,6,,,,1,56,109
295936,note_off,,,,,0,0,6,,,,1,68,0
295936,note_off,,,,,0,0,6,,,,1,59,0
295936,note_off,,,,,171,0,6,,,,1,56,0
295936,note_on,,,,,0,0,3,,,,6,64,101
295936,note_off,,,,,171,0,3,,,,6,68,0
295936,note_off,,,,,171,0,2,,,,2,68,0
295936,note_on,,,,,0,0,2,,,,2,76,114
295936,note_off,,,,,512,0,5,,,,3,54,0
296448,note_off,,,,,0,0,6,,,,1,56,0
296448,note_on,,,,,0,0,6,,,,1,56,114
296448,note_off,,,,,0,0,6,,,,1,76,0
296448,note_off,,,,,0,0,6,,,,1,59,0
296448,note_off,,,,,512,0,5,,,,3,56,0
296448,note_on,,,,,0,0,6,,,,1,71,114
296448,note_on,,,,,0,0,5,,,,3,56,101
296448,note_off,,,,,512,0,6,,,,1,56,0
296448,note_on,,,,,0,0,6,,,,1,56,114
296448,note_on,,,,,0,0,6,,,,1,64,114
296448,note_on,,,,,0,0,2,,,,2,71,114
296448,note_off,,,,,512,0,2,,,,2,76,0
296448,note_off,,,,,512,0,3,,,,6,64,0
296448,note_on,,,,,0,0,3,,,,6,64,101
296960,note_on,,,,,0,0,6,,,,1,60,118
296960,note_on,,,,,0,0,6,,,,1,64,118
296960,note_off,,,,,0,0,6,,,,1,64,0
296960,note_off,,,,,512,0,6,,,,1,56,0
296960,note_on,,,,,0,0,6,,,,1,69,118
296960,note_on,,,,,0,0,6,,,,1,72,118
296960,note_on,,,,,0,0,6,,,,1,57,118
296960,note_off,,,,,0,0,6,,,,1,71,0
296960,note_on,,,,,0,0,6,,,,1,57,114
296960,note_on,,,,,0,0,5,,,,3,57,101
296960,note_off,,,,,512,0,5,,,,3,56,0
296960,note_on,,,,,0,0,2,,,,2,72,114
296960,note_off,,,,,512,0,2,,,,2,71,0
296960,note_off,,,,,512,0,3,,,,6,64,0
296960,note_on,,,,,0,0,3,,,,6,69,101
296960,note_off,,,,,0,0,6,,,,1,56,0
297216,note_off,,,,,256,0,6,,,,1,69,0
297216,note_on,,,,,0,0,6,,,,1,69,120
297216,note_on,,,,,0,0,6,,,,1,72,120
297216,note_off,,,,,0,0,6,,,,1,72,0
297216,note_off,,,,,256,0,3,,,,6,69,0
297216,note_on,,,,,0,0,2,,,,2,72,114
297216,note_off,,,,,256,0,2,,,,2,72,0
297216,note_on,,,,,0,0,3,,,,6,69,101
297472,note_off,,,,,512,0,5,,,,3,57,0
297472,note_off,,,,,256,0,6,,,,1,57,0
297472,note_off,,,,,0,0,6,,,,1,60,0
297472,note_off,,,,,0,0,6,,,,1,64,0
297472,note_on,,,,,0,0,6,,,,1,55,122
297472,note_on,,,,,0,0,6,,,,1,59,122
297472,note_off,,,,,0,0,6,,,,1,57,0
297472,note_on,,,,,0,0,6,,,,1,55,114
297472,note_on,,,,,0,0,5,,,,3,55,101
297728,note_off,,,,,256,0,6,,,,1,69,0
297728,note_off,,,,,0,0,6,,,,1,72,0
297728,note_on,,,,,0,0,6,,,,1,76,124
297728,note_off,,,,,512,0,3,,,,6,69,0
297728,note_on,,,,,0,0,2,,,,2,76,114
297728,note_on,,,,,0,0,3,,,,6,72,101
297728,note_off,,,,,512,0,2,,,,2,72,0
297984,note_on,,,,,0,0,5,,,,3,53,101
297984,note_off,,,,,512,0,5,,,,3,55,0
297984,note_off,,,,,256,0,6,,,,1,55,0
297984,note_off,,,,,0,0,6,,,,1,59,0
297984,note_off,,,,,0,0,6,,,,1,76,0
297984,note_on,,,,,0,0,6,,,,1,53,127
297984,note_on,,,,,0,0,6,,,,1,57,127
297984,note_on,,,,,0,0,6,,,,1,69,127
297984,note_on,,,,,0,0,6,,,,1,72,127
297984,note_off,,,,,0,0,6,,,,1,55,0
297984,note_on,,,,,0,0,6,,,,1,53,114
297984,note_off,,,,,256,0,3,,,,6,72,0
297984,note_off,,,,,256,0,2,,,,2,76,0
297984,note_on,,,,,0,0,3,,,,6,69,101
297984,note_on,,,,,0,0,2,,,,2,72,114
298240,note_off,,,,,0,0,6,,,,1,72,0
298240,note_off,,,,,256,0,3,,,,6,69,0
298240,note_on,,,,,0,0,3,,,,6,69,101
298240,note_off,,,,,256,0,2,,,,2,72,0
298240,note_on,,,,,0,0,2,,,,2,72,114
298240,note_on,,,,,0,0,6,,,,1,72,127
298240,note_on,,,,,0,0,6,,,,1,69,127
298240,note_off,,,,,256,0,6,,,,1,69,0
298496,note_off,,,,,512,0,5,,,,3,53,0
298496,note_off,,,,,256,0,6,,,,1,53,0
298496,note_off,,,,,0,0,6,,,,1,57,0
298496,note_on,,,,,0,0,6,,,,1,55,127
298496,note_off,,,,,0,0,6,,,,1,53,0
298496,note_on,,,,,0,0,6,,,,1,52,114
298496,note_on,,,,,0,0,5,,,,3,52,101
298752,note_off,,,,,512,0,2,,,,2,72,0
298752,note_on,,,,,0,0,2,,,,2,76,114
298752,note_off,,,,,256,0,6,,,,1,69,0
298752,note_off,,,,,0,0,6,,,,1,72,0
298752,note_on,,,,,0,0,6,,,,1,76,127
298752,note_off,,,,,512,0,3,,,,6,69,0
298752,note_on,,,,,0,0,3,,,,6,72,101
299008,note_off,,,,,512,0,5,,,,3,52,0
299008,note_on,,,,,0,0,5,,,,3,50,101
299008,note_on,,,,,0,0,2,,,,2,72,114
299008,note_off,,,,,256,0,2,,,,2,76,0
299008,note_on,,,,,0,0,3,,,,6,69,101
299008,note_off,,,,,256,0,3,,,,6,72,0
299008,note_on,,,,,0,0,6,,,,1,50,114
299008,note_on,,,,,0,0,6,,,,1,72,127
299008,note_on,,,,,0,0,6,,,,1,69,127
299008,note_on,,,,,0,0,6,,,,1,65,127
299008,note_off,,,,,256,0,6,,,,1,55,0
299008,note_on,,,,,0,0,6,,,,1,62,127
299008,note_off,,,,,0,0,6,,,,1,52,0
299264,note_on,,,,,0,0,2,,,,2,72,114
299264,note_off,,,,,256,0,2,,,,2,72,0
299264,note_off,,,,,256,0,3,,,,6,69,0
299264,note_on,,,,,0,0,3,,,,6,69,101
299264,note_off,,,,,256,0,6,,,,1,69,0
299264,note_off,,,,,0,0,6,,,,1,72,0
299264,note_off,,,,,0,0,6,,,,1,76,0
299264,note_on,,,,,0,0,6,,,,1,69,127
299264,note_on,,,,,0,0,6,,,,1,72,127
299520,note_on,,,,,0,0,5,,,,3,48,101
299520,note_off,,,,,0,0,6,,,,1,50,0
299520,note_off,,,,,256,0,6,,,,1,62,0
299520,note_off,,,,,0,0,6,,,,1,65,0
299520,note_off,,,,,512,0,5,,,,3,50,0
299520,note_on,,,,,0,0,6,,,,1,48,114
299520,note_on,,,,,0,0,6,,,,1,64,127
299520,note_on,,,,,0,0,6,,,,1,60,127
299776,note_on,,,,,0,0,3,,,,6,72,101
299776,note_on,,,,,0,0,2,,,,2,76,114
299776,note_off,,,,,512,0,2,,,,2,72,0
299776,note_off,,,,,512,0,3,,,,6,69,0
299776,note_off,,,,,256,0,6,,,,1,69,0
299776,note_off,,,,,0,0,6,,,,1,72,0
299776,note_on,,,,,0,0,6,,,,1,76,127
300032,note_on,,,,,0,0,3,,,,6,69,101
300032,note_on,,,,,0,0,6,,,,1,47,114
300032,note_off,,,,,0,0,6,,,,1,48,0
300032,note_on,,,,,0,0,6,,,,1,72,127
300032,note_on,,,,,0,0,6,,,,1,69,127
300032,note_on,,,,,0,0,6,,,,1,62,127
300032,note_on,,,,,0,0,2,,,,2,72,114
300032,note_off,,,,,0,0,6,,,,1,76,0
300032,note_off,,,,,0,0,6,,,,1,64,0
300032,note_off,,,,,256,0,6,,,,1,60,0
300032,note_off,,,,,512,0,5,,,,3,48,0
300032,note_on,,,,,0,0,5,,,,3,47,101
300032,note_off,,,,,256,0,2,,,,2,76,0
300032,note_off,,,,,256,0,3,,,,6,72,0
300032,note_on,,,,,0,0,6,,,,1,59,127
300288,note_off,,,,,256,0,2,,,,2,72,0
300288,note_on,,,,,0,0,6,,,,1,72,127
300288,note_on,,,,,0,0,6,,,,1,69,127
300288,note_off,,,,,0,0,6,,,,1,72,0
300288,note_off,,,,,256,0,6,,,,1,69,0
300288,note_off,,,,,256,0,3,,,,6,69,0
300288,note_on,,,,,0,0,3,,,,6,69,101
300288,note_on,,,,,0,0,2,,,,2,72,114
300544,note_off,,,,,512,0,5,,,,3,47,0
300544,note_on,,,,,0,0,6,,,,1,45,114
300544,note_on,,,,,0,0,5,,,,3,45,101
300544,note_on,,,,,0,0,6,,,,1,60,127
300544,note_on,,,,,0,0,6,,,,1,57,127
300544,note_off,,,,,0,0,6,,,,1,47,0
300544,note_off,,,,,256,0,6,,,,1,59,0
300544,note_off,,,,,0,0,6,,,,1,62,0
300800,note_on,,,,,0,0,2,,,,2,76,114
300800,note_on,,,,,0,0,6,,,,1,76,127
300800,note_off,,,,,0,0,6,,,,1,72,0
300800,note_off,,,,,256,0,6,,,,1,69,0
300800,note_off,,,,,512,0,2,,,,2,72,0
300800,note_on,,,,,0,0,3,,,,6,72,101
300800,note_off,,,,,512,0,3,,,,6,69,0
301056,note_on,,,,,0,0,3,,,,6,71,101
301056,note_off,,,,,256,0,3,,,,6,72,0
301056,note_on,,,,,0,0,5,,,,3,52,101
301056,note_on,,,,,0,0,6,,,,1,64,127
301056,note_off,,,,,0,0,6,,,,1,45,0
301056,note_on,,,,,0,0,6,,,,1,52,114
301056,note_on,,,,,0,0,6,,,,1,80,127
301056,note_off,,,,,0,0,6,,,,1,60,0
301056,note_off,,,,,512,0,5,,,,3,45,0
301056,note_on,,,,,0,0,2,,,,2,80,114
301056,note_off,,,,,256,0,2,,,,2,76,0
301056,note_off,,,,,256,0,6,,,,1,57,0
301312,note_on,,,,,0,0,2,,,,2,81,114
301312,note_on,,,,,0,0,6,,,,1,81,127
301312,note_on,,,,,0,0,6,,,,1,71,127
301312,note_off,,,,,256,0,2,,,,2,80,0
301312,note_off,,,,,0,0,6,,,,1,80,0
301312,note_off,,,,,256,0,6,,,,1,76,0
301568,note_off,,,,,0,0,6,,,,1,52,0
301568,note_on,,,,,0,0,2,,,,2,83,114
301568,note_off,,,,,256,0,2,,,,2,81,0
301568,note_off,,,,,256,0,6,,,,1,64,0
301568,note_off,,,,,0,0,6,,,,1,81,0
301568,note_on,,,,,0,0,6,,,,1,64,127
301568,note_on,,,,,0,0,6,,,,1,83,127
301568,note_off,,,,,512,0,5,,,,3,52,0
301568,note_on,,,,,0,0,6,,,,1,54,114
301568,note_on,,,,,0,0,5,,,,3,54,101
301824,note_on,,,,,0,0,6,,,,1,74,127
301824,note_off,,,,,256,0,6,,,,1,83,0
301824,note_off,,,,,256,0,2,,,,2,83,0
301824,note_on,,,,,0,0,2,,,,2,74,114
302080,note_off,,,,,512,0,5,,,,3,54,0
302080,note_on,,,,,0,0,5,,,,3,52,101
302080,note_on,,,,,0,0,6,,,,1,71,127
302080,note_off,,,,,0,0,6,,,,1,54,0
302080,note_on,,,,,0,0,6,,,,1,52,114
302080,note_off,,,,,256,0,2,,,,2,74,0
302080,note_on,,,,,0,0,2,,,,2,71,114
302080,note_on,,,,,0,0,3,,,,6,64,101
302080,note_off,,,,,0,0,6,,,,1,74,0
302080,note_off,,,,,256,0,6,,,,1,64,0
302080,note_on,,,,,0,0,6,,,,1,64,127
302080,note_off,,,,,1024,0,3,,,,6,71,0
302336,note_on,,,,,0,0,6,,,,1,68,127
302336,note_off,,,,,0,0,6,,,,1,71,0
302336,note_off,,,,,256,0,6,,,,1,71,0
302336,note_on,,,,,0,0,2,,,,2,72,114
302336,note_off,,,,,256,0,2,,,,2,71,0
302336,note_on,,,,,0,0,6,,,,1,72,127
302592,note_off,,,,,256,0,6,,,,1,64,0
302592,note_off,,,,,0,0,6,,,,1,72,0
302592,note_on,,,,,0,0,6,,,,1,59,127
302592,note_on,,,,,0,0,6,,,,1,74,127
302592,note_on,,,,,0,0,2,,,,2,74,114
302592,note_off,,,,,256,0,2,,,,2,72,0
302848,note_off,,,,,256,0,6,,,,1,68,0
302848,note_off,,,,,0,0,6,,,,1,74,0
302848,note_on,,,,,0,0,6,,,,1,68,127
302848,note_on,,,,,0,0,6,,,,1,64,127
302848,note_off,,,,,256,0,2,,,,2,74,0
302848,note_on,,,,,0,0,2,,,,2,71,114
303104,note_off,,,,,0,0,6,,,,1,68,0
303104,note_on,,,,,0,0,5,,,,3,57,101
303104,note_off,,,,,1024,0,5,,,,3,52,0
303104,note_off,,,,,256,0,6,,,,1,59,0
303104,note_off,,,,,256,0,2,,,,2,71,0
303104,note_on,,,,,0,0,2,,,,2,72,114
303104,note_on,,,,,0,0,6,,,,1,57,114
303104,note_on,,,,,0,0,6,,,,1,72,127
303104,note_off,,,,,1024,0,3,,,,6,64,0
303104,note_on,,,,,0,0,6,,,,1,69,127
303104,note_off,,,,,0,0,6,,,,1,52,0
303104,note_on,,,,,0,0,6,,,,1,57,127
303104,note_on,,,,,0,0,3,,,,6,69,101
303104,note_on,,,,,0,0,6,,,,1,64,127
303360,note_off,,,,,256,0,6,,,,1,64,0
303616,note_off,,,,,512,0,3,,,,6,69,0
303616,note_on,,,,,0,0,5,,,,3,45,101
303616,note_off,,,,,512,0,5,,,,3,57,0
303616,note_on,,,,,0,0,6,,,,1,45,114
303616,note_off,,,,,0,0,6,,,,1,57,0
303616,note_on,,,,,0,0,6,,,,1,81,127
303616,note_off,,,,,0,0,6,,,,1,72,0
303616,note_off,,,,,0,0,6,,,,1,69,0
303616,note_off,,,,,0,0,6,,,,1,64,0
303616,note_on,,,,,0,0,6,,,,1,72,127
303616,note_on,,,,,0,0,3,,,,6,76,101
303616,note_off,,,,,512,0,2,,,,2,72,0
303616,note_on,,,,,0,0,2,,,,2,81,114
303616,note_off,,,,,256,0,6,,,,1,57,0
304128,note_on,,,,,0,0,6,,,,1,71,127
304128,note_off,,,,,512,0,5,,,,3,45,0
304128,note_on,,,,,0,0,5,,,,3,52,101
304128,note_on,,,,,0,0,6,,,,1,52,114
304128,note_off,,,,,0,0,6,,,,1,45,0
304128,note_on,,,,,0,0,6,,,,1,69,127
304128,note_off,,,,,0,0,6,,,,1,81,0
304128,note_off,,,,,512,0,6,,,,1,72,0
304128,note_off,,,,,512,0,2,,,,2,81,0
304128,note_off,,,,,512,0,3,,,,6,76,0
304128,note_on,,,,,0,0,3,,,,6,76,101
304128,note_on,,,,,0,0,2,,,,2,71,114
304235,set_tempo,,,,,304235,1,0,,645161,,,,
304235,set_tempo,,,,,0,1,0,,689655,,,,
304235,set_tempo,,,,,0,1,0,,714285,,,,
304235,set_tempo,,,,,0,1,0,,740740,,,,
304235,set_tempo,,,,,0,1,0,,769230,,,,
304235,set_tempo,,,,,0,1,0,,666666,,,,
304640,note_on,,,,,0,0,3,,,,6,76,101
304640,note_off,,,,,512,0,2,,,,2,71,0
304640,note_on,,,,,0,0,2,,,,2,80,114
304640,note_off,,,,,0,0,6,,,,1,71,0
304640,note_off,,,,,512,0,6,,,,1,69,0
304640,note_off,,,,,512,0,5,,,,3,52,0
304640,note_on,,,,,0,0,6,,,,1,71,127
304640,note_on,,,,,0,0,5,,,,3,40,101
304640,note_on,,,,,0,0,6,,,,1,80,127
304640,note_off,,,,,0,0,6,,,,1,52,0
304640,note_on,,,,,0,0,6,,,,1,40,114
304640,note_off,,,,,512,0,3,,,,6,76,0
305152,note_off,,,,,0,0,6,,,,1,80,0
305152,note_off,,,,,512,0,5,,,,3,40,0
305152,note_on,,,,,0,0,5,,,,3,45,101
305152,note_on,,,,,0,0,6,,,,1,72,127
305152,note_off,,,,,512,0,6,,,,1,71,0
305152,note_on,,,,,0,0,6,,,,1,76,127
305152,note_off,,,,,512,0,2,,,,2,80,0
305152,note_on,,,,,0,0,2,,,,2,81,114
305152,note_on,,,,,0,0,6,,,,1,81,127
305152,note_on,,,,,0,0,6,,,,1,45,114
305152,note_off,,,,,512,0,3,,,,6,76,0
305152,note_on,,,,,0,0,3,,,,6,76,101
305152,note_on,,,,,0,0,6,,,,1,52,114
305152,note_on,,,,,0,0,5,,,,3,52,101
305152,note_off,,,,,0,0,6,,,,1,40,0
305259,set_tempo,,,,,0,1,0,,952380,,,,
305259,set_tempo,,,,,1024,1,0,,800000,,,,
305259,set_tempo,,,,,0,1,0,,833333,,,,
305259,set_tempo,,,,,0,1,0,,869565,,,,
305259,set_tempo,,,,,0,1,0,,1000000,,,,
305259,set_tempo,,,,,0,1,0,,909090,,,,
306283,set_tempo,,,,,0,1,0,,1176470,,,,
306283,set_tempo,,,,,0,1,0,,1111111,,,,
306283,set_tempo,,,,,0,1,0,,1250000,,,,
306283,set_tempo,,,,,0,1,0,,1428571,,,,
306283,set_tempo,,,,,1024,1,0,,1052631,,,,
306283,set_tempo,,,,,0,1,0,,1333333,,,,
307712,note_off,,,,,0,0,6,,,,1,76,0
307712,note_off,,,,,2560,0,6,,,,1,72,0
307712,note_off,,,,,0,0,6,,,,1,81,0
307712,note_off,,,,,0,0,6,,,,1,45,0
307712,note_off,,,,,0,0,5,,,,3,52,0
307712,note_off,,,,,2560,0,2,,,,2,81,0
307712,note_off,,,,,2560,0,3,,,,6,76,0
307712,note_off,,,,,0,0,6,,,,1,52,0
307712,note_off,,,,,2560,0,5,,,,3,45,0
311403,end_of_track,,,,,5120,1,0,,,,,,
311403,end_of_track,,,,,311403,1,1,,,,,,
311403,end_of_track,,,,,3691,1,2,,,,,,
311403,end_of_track,,,,,3691,1,3,,,,,,
311403,end_of_track,,,,,54379,1,4,,,,,,
311403,end_of_track,,,,,3691,1,5,,,,,,
311403,end_of_track,,,,,3691,1,6,,,,,,
