tick,type,time,meta,track,tempo,key,numerator,denominator,clocks_per_click,notated_32nd_notes_per_beat,port,program,channel,control,value,note,velocity
0,track_name,0,1,0,,,,,,,,,,,,,
0,midi_port,0,1,5,,,,,,,0,,,,,,
0,track_name,0,1,2,,,,,,,,,,,,,
0,control_change,0,0,4,,,,,,,,,2,10,64,,
0,control_change,0,0,4,,,,,,,,,2,7,127,,
0,program_change,0,0,4,,,,,,,,6,2,,,,
0,track_name,0,1,4,,,,,,,,,,,,,
0,midi_port,0,1,4,,,,,,,0,,,,,,
0,control_change,0,0,3,,,,,,,,,2,10,64,,
0,control_change,0,0,3,,,,,,,,,2,7,127,,
0,program_change,0,0,3,,,,,,,,6,2,,,,
0,track_name,0,1,3,,,,,,,,,,,,,
0,midi_port,0,1,3,,,,,,,0,,,,,,
0,control_change,0,0,2,,,,,,,,,1,10,64,,
0,control_change,0,0,2,,,,,,,,,1,7,127,,
0,program_change,0,0,2,,,,,,,,70,1,,,,
0,track_name,0,1,5,,,,,,,,,,,,,
0,program_change,0,0,5,,,,,,,,44,3,,,,
0,midi_port,0,1,2,,,,,,,0,,,,,,
0,program_change,0,0,1,,,,,,,,68,0,,,,
0,midi_port,0,1,1,,,,,,,0,,,,,,
0,track_name,0,1,1,,,,,,,,,,,,,
0,time_signature,0,1,0,,,3,4,24,8,,,,,,,
0,key_signature,0,1,0,,D,,,,,,,,,,,
0,set_tempo,0,1,0,1000000,,,,,,,,,,,,
0,control_change,0,0,5,,,,,,,,,3,7,127,,
0,control_change,0,0,1,,,,,,,,,0,7,127,,
0,control_change,0,0,5,,,,,,,,,3,10,64,,
0,text,0,1,0,,,,,,,,,,,,,
0,control_change,0,0,1,,,,,,,,,0,10,64,,
192,note_on,192,0,1,,,,,,,,,0,,,67,110
352,note_on,160,0,1,,,,,,,,,0,,,67,0
384,note_on,32,0,1,,,,,,,,,0,,,76,110
544,note_on,160,0,1,,,,,,,,,0,,,76,0
576,note_on,32,0,1,,,,,,,,,0,,,76,110
736,note_on,160,0,1,,,,,,,,,0,,,76,0
768,note_on,768,0,2,,,,,,,,,1,,,43,110
768,note_on,768,0,5,,,,,,,,,3,,,43,110
768,note_on,0,0,3,,,,,,,,,2,,,71,110
768,note_on,32,0,1,,,,,,,,,0,,,74,110
768,note_on,768,0,3,,,,,,,,,2,,,62,110
768,note_on,768,0,4,,,,,,,,,2,,,43,110
862,note_on,94,0,3,,,,,,,,,2,,,71,0
864,note_on,2,0,3,,,,,,,,,2,,,69,110
928,note_on,160,0,2,,,,,,,,,1,,,43,0
928,note_on,64,0,3,,,,,,,,,2,,,62,0
928,note_on,160,0,4,,,,,,,,,2,,,43,0
928,note_on,160,0,5,,,,,,,,,3,,,43,0
958,note_on,30,0,3,,,,,,,,,2,,,69,0
960,note_on,32,0,4,,,,,,,,,2,,,55,110
960,note_on,32,0,5,,,,,,,,,3,,,55,110
960,note_on,0,0,3,,,,,,,,,2,,,71,110
960,note_on,2,0,3,,,,,,,,,2,,,62,110
960,note_on,32,0,2,,,,,,,,,1,,,55,110
1054,note_on,94,0,3,,,,,,,,,2,,,71,0
1056,note_on,2,0,3,,,,,,,,,2,,,72,110
1104,note_on,336,0,1,,,,,,,,,0,,,74,0
1120,note_on,160,0,5,,,,,,,,,3,,,55,0
1120,note_on,160,0,2,,,,,,,,,1,,,55,0
1120,note_on,64,0,3,,,,,,,,,2,,,62,0
1120,note_on,160,0,4,,,,,,,,,2,,,55,0
1150,note_on,30,0,3,,,,,,,,,2,,,72,0
1152,note_on,2,0,3,,,,,,,,,2,,,69,110
1152,note_on,0,0,3,,,,,,,,,2,,,74,110
1152,note_on,48,0,1,,,,,,,,,0,,,74,110
1152,note_on,32,0,4,,,,,,,,,2,,,55,110
1152,note_on,32,0,5,,,,,,,,,3,,,55,110
1152,note_on,32,0,2,,,,,,,,,1,,,55,110
1200,note_on,0,0,1,,,,,,,,,0,,,76,110
1200,note_on,48,0,1,,,,,,,,,0,,,74,0
1248,note_on,48,0,1,,,,,,,,,0,,,76,0
1248,note_on,0,0,1,,,,,,,,,0,,,78,110
1296,note_on,48,0,1,,,,,,,,,0,,,78,0
1296,note_on,0,0,1,,,,,,,,,0,,,79,110
1312,note_on,160,0,5,,,,,,,,,3,,,55,0
1312,note_on,160,0,2,,,,,,,,,1,,,55,0
1312,note_on,0,0,3,,,,,,,,,2,,,74,0
1312,note_on,160,0,4,,,,,,,,,2,,,55,0
1312,note_on,160,0,3,,,,,,,,,2,,,69,0
1344,note_on,32,0,5,,,,,,,,,3,,,54,110
1344,note_on,48,0,1,,,,,,,,,0,,,79,0
1344,note_on,32,0,4,,,,,,,,,2,,,54,110
1344,note_on,0,0,1,,,,,,,,,0,,,81,110
1344,note_on,0,0,3,,,,,,,,,2,,,69,110
1344,note_on,32,0,3,,,,,,,,,2,,,62,110
1344,note_on,32,0,2,,,,,,,,,1,,,54,110
1392,note_on,48,0,1,,,,,,,,,0,,,81,0
1392,note_on,0,0,1,,,,,,,,,0,,,79,110
1440,note_on,48,0,1,,,,,,,,,0,,,79,0
1440,note_on,0,0,1,,,,,,,,,0,,,78,110
1488,note_on,48,0,1,,,,,,,,,0,,,78,0
1488,note_on,0,0,1,,,,,,,,,0,,,76,110
1504,note_on,160,0,3,,,,,,,,,2,,,69,0
1536,note_on,48,0,1,,,,,,,,,0,,,76,0
1536,note_on,0,0,1,,,,,,,,,0,,,74,110
1536,note_on,32,0,3,,,,,,,,,2,,,72,110
1584,note_on,48,0,1,,,,,,,,,0,,,74,0
1584,note_on,0,0,1,,,,,,,,,0,,,72,110
1632,note_on,0,0,1,,,,,,,,,0,,,71,110
1632,note_on,48,0,1,,,,,,,,,0,,,72,0
1680,note_on,144,0,3,,,,,,,,,2,,,62,0
1680,note_on,0,0,1,,,,,,,,,0,,,69,110
1680,note_on,48,0,1,,,,,,,,,0,,,71,0
1680,note_on,336,0,4,,,,,,,,,2,,,54,0
1680,note_on,336,0,2,,,,,,,,,1,,,54,0
1680,note_on,336,0,5,,,,,,,,,3,,,54,0
1696,note_on,16,0,3,,,,,,,,,2,,,72,0
1726,note_on,46,0,1,,,,,,,,,0,,,69,0
1728,note_on,48,0,2,,,,,,,,,1,,,55,110
1728,note_on,0,0,3,,,,,,,,,2,,,67,110
1728,note_on,48,0,4,,,,,,,,,2,,,55,110
1728,note_on,48,0,5,,,,,,,,,3,,,55,110
1728,note_on,2,0,1,,,,,,,,,0,,,71,110
1728,note_on,32,0,3,,,,,,,,,2,,,62,110
1728,note_on,0,0,3,,,,,,,,,2,,,71,110
1776,note_on,48,0,2,,,,,,,,,1,,,55,0
1776,note_on,0,0,2,,,,,,,,,1,,,57,110
1824,note_on,48,0,2,,,,,,,,,1,,,57,0
1824,note_on,0,0,2,,,,,,,,,1,,,59,110
1872,note_on,48,0,2,,,,,,,,,1,,,59,0
1872,note_on,0,0,2,,,,,,,,,1,,,60,110
1888,note_on,0,0,3,,,,,,,,,2,,,67,0
1888,note_on,160,0,5,,,,,,,,,3,,,55,0
1888,note_on,0,0,3,,,,,,,,,2,,,71,0
1888,note_on,160,0,4,,,,,,,,,2,,,55,0
1888,note_on,160,0,3,,,,,,,,,2,,,62,0
1920,note_on,32,0,4,,,,,,,,,2,,,50,110
1920,note_on,32,0,3,,,,,,,,,2,,,66,110
1920,note_on,48,0,2,,,,,,,,,1,,,60,0
1920,note_on,0,0,2,,,,,,,,,1,,,62,110
1920,note_on,32,0,5,,,,,,,,,3,,,50,110
1920,note_on,0,0,1,,,,,,,,,0,,,78,110
1920,note_on,192,0,1,,,,,,,,,0,,,71,0
1920,note_on,0,0,3,,,,,,,,,2,,,69,110
1968,note_on,0,0,2,,,,,,,,,1,,,60,110
1968,note_on,48,0,2,,,,,,,,,1,,,62,0
2016,note_on,0,0,2,,,,,,,,,1,,,59,110
2016,note_on,48,0,2,,,,,,,,,1,,,60,0
2064,note_on,0,0,2,,,,,,,,,1,,,57,110
2064,note_on,48,0,2,,,,,,,,,1,,,59,0
2080,note_on,160,0,3,,,,,,,,,2,,,69,0
2080,note_on,160,0,1,,,,,,,,,0,,,78,0
2112,note_on,32,0,3,,,,,,,,,2,,,74,110
2112,note_on,0,0,2,,,,,,,,,1,,,55,110
2112,note_on,48,0,2,,,,,,,,,1,,,57,0
2112,note_on,32,0,1,,,,,,,,,0,,,81,110
2160,note_on,0,0,2,,,,,,,,,1,,,54,110
2160,note_on,48,0,2,,,,,,,,,1,,,55,0
2208,note_on,48,0,2,,,,,,,,,1,,,54,0
2208,note_on,0,0,2,,,,,,,,,1,,,52,110
2256,note_on,336,0,5,,,,,,,,,3,,,50,0
2256,note_on,144,0,3,,,,,,,,,2,,,66,0
2256,note_on,0,0,2,,,,,,,,,1,,,50,110
2256,note_on,48,0,2,,,,,,,,,1,,,52,0
2256,note_on,336,0,4,,,,,,,,,2,,,50,0
2272,note_on,16,0,3,,,,,,,,,2,,,74,0
2272,note_on,160,0,1,,,,,,,,,0,,,81,0
2302,note_on,46,0,2,,,,,,,,,1,,,50,0
2304,note_on,32,0,3,,,,,,,,,2,,,64,110
2304,note_on,2,0,2,,,,,,,,,1,,,45,110
2304,note_on,48,0,4,,,,,,,,,2,,,45,110
2304,note_on,32,0,1,,,,,,,,,0,,,73,110
2304,note_on,48,0,5,,,,,,,,,3,,,45,110
2304,note_on,0,0,3,,,,,,,,,2,,,73,110
2352,note_on,0,0,1,,,,,,,,,0,,,74,110
2352,note_on,48,0,1,,,,,,,,,0,,,73,0
2400,note_on,0,0,1,,,,,,,,,0,,,76,110
2400,note_on,48,0,1,,,,,,,,,0,,,74,0
2448,note_on,48,0,1,,,,,,,,,0,,,76,0
2448,note_on,0,0,1,,,,,,,,,0,,,78,110
2464,note_on,160,0,3,,,,,,,,,2,,,64,0
2464,note_on,0,0,3,,,,,,,,,2,,,73,0
2464,note_on,160,0,4,,,,,,,,,2,,,45,0
2464,note_on,160,0,2,,,,,,,,,1,,,45,0
2464,note_on,160,0,5,,,,,,,,,3,,,45,0
2496,note_on,48,0,1,,,,,,,,,0,,,78,0
2496,note_on,0,0,1,,,,,,,,,0,,,79,110
2496,note_on,32,0,3,,,,,,,,,2,,,67,110
2496,note_on,0,0,3,,,,,,,,,2,,,76,110
2496,note_on,32,0,5,,,,,,,,,3,,,57,110
2496,note_on,32,0,2,,,,,,,,,1,,,57,110
2496,note_on,32,0,4,,,,,,,,,2,,,57,110
2544,note_on,48,0,1,,,,,,,,,0,,,79,0
2544,note_on,0,0,1,,,,,,,,,0,,,78,110
2592,note_on,0,0,1,,,,,,,,,0,,,76,110
2592,note_on,48,0,1,,,,,,,,,0,,,78,0
2640,note_on,48,0,1,,,,,,,,,0,,,76,0
2640,note_on,0,0,1,,,,,,,,,0,,,74,110
2656,note_on,160,0,2,,,,,,,,,1,,,57,0
2656,note_on,160,0,5,,,,,,,,,3,,,57,0
2656,note_on,160,0,4,,,,,,,,,2,,,57,0
2656,note_on,0,0,3,,,,,,,,,2,,,76,0
2656,note_on,160,0,3,,,,,,,,,2,,,67,0
2688,note_on,32,0,4,,,,,,,,,2,,,45,110
2688,note_on,32,0,2,,,,,,,,,1,,,45,110
2688,note_on,32,0,5,,,,,,,,,3,,,45,110
2688,note_on,0,0,3,,,,,,,,,2,,,69,110
2688,note_on,32,0,3,,,,,,,,,2,,,67,110
2688,note_on,0,0,3,,,,,,,,,2,,,73,110
2688,note_on,48,0,1,,,,,,,,,0,,,74,0
2688,note_on,0,0,1,,,,,,,,,0,,,73,110
2736,note_on,48,0,1,,,,,,,,,0,,,73,0
2736,note_on,0,0,1,,,,,,,,,0,,,71,110
2784,note_on,0,0,1,,,,,,,,,0,,,69,110
2784,note_on,48,0,1,,,,,,,,,0,,,71,0
2832,note_on,0,0,1,,,,,,,,,0,,,67,110
2832,note_on,48,0,1,,,,,,,,,0,,,69,0
2848,note_on,160,0,3,,,,,,,,,2,,,67,0
2848,note_on,0,0,3,,,,,,,,,2,,,69,0
2848,note_on,0,0,3,,,,,,,,,2,,,73,0
2848,note_on,160,0,4,,,,,,,,,2,,,45,0
2848,note_on,160,0,5,,,,,,,,,3,,,45,0
2848,note_on,160,0,2,,,,,,,,,1,,,45,0
2878,note_on,46,0,1,,,,,,,,,0,,,67,0
2880,note_on,2,0,1,,,,,,,,,0,,,66,110
2880,note_on,32,0,3,,,,,,,,,2,,,66,110
2880,note_on,32,0,2,,,,,,,,,1,,,50,110
2880,note_on,0,0,3,,,,,,,,,2,,,69,110
2880,note_on,0,0,3,,,,,,,,,2,,,74,110
2880,note_on,32,0,4,,,,,,,,,2,,,50,110
2880,note_on,32,0,5,,,,,,,,,3,,,50,110
2928,note_on,0,0,2,,,,,,,,,1,,,52,110
2928,note_on,48,0,2,,,,,,,,,1,,,50,0
2976,note_on,0,0,2,,,,,,,,,1,,,54,110
2976,note_on,48,0,2,,,,,,,,,1,,,52,0
3024,note_on,0,0,2,,,,,,,,,1,,,55,110
3024,note_on,48,0,2,,,,,,,,,1,,,54,0
3040,note_on,0,0,3,,,,,,,,,2,,,74,0
3040,note_on,160,0,3,,,,,,,,,2,,,66,0
3040,note_on,160,0,4,,,,,,,,,2,,,50,0
3040,note_on,0,0,3,,,,,,,,,2,,,69,0
3040,note_on,160,0,5,,,,,,,,,3,,,50,0
3072,note_on,48,0,2,,,,,,,,,1,,,55,0
3072,note_on,32,0,4,,,,,,,,,2,,,45,110
3072,note_on,0,0,2,,,,,,,,,1,,,57,110
3072,note_on,32,0,3,,,,,,,,,2,,,67,110
3072,note_on,0,0,3,,,,,,,,,2,,,73,110
3072,note_on,32,0,5,,,,,,,,,3,,,45,110
3072,note_on,192,0,1,,,,,,,,,0,,,66,0
3072,note_on,0,0,1,,,,,,,,,0,,,73,110
3120,note_on,0,0,2,,,,,,,,,1,,,55,110
3120,note_on,48,0,2,,,,,,,,,1,,,57,0
3168,note_on,48,0,2,,,,,,,,,1,,,55,0
3168,note_on,0,0,2,,,,,,,,,1,,,54,110
3216,note_on,48,0,2,,,,,,,,,1,,,54,0
3216,note_on,0,0,2,,,,,,,,,1,,,52,110
3232,note_on,160,0,3,,,,,,,,,2,,,73,0
3232,note_on,160,0,1,,,,,,,,,0,,,73,0
3264,note_on,48,0,2,,,,,,,,,1,,,52,0
3264,note_on,0,0,2,,,,,,,,,1,,,50,110
3264,note_on,32,0,1,,,,,,,,,0,,,76,110
3264,note_on,32,0,3,,,,,,,,,2,,,76,110
3312,note_on,48,0,2,,,,,,,,,1,,,50,0
3312,note_on,0,0,2,,,,,,,,,1,,,49,110
3360,note_on,48,0,2,,,,,,,,,1,,,49,0
3360,note_on,0,0,2,,,,,,,,,1,,,47,110
3408,note_on,336,0,4,,,,,,,,,2,,,45,0
3408,note_on,48,0,2,,,,,,,,,1,,,47,0
3408,note_on,336,0,5,,,,,,,,,3,,,45,0
3408,note_on,0,0,2,,,,,,,,,1,,,45,110
3408,note_on,144,0,3,,,,,,,,,2,,,67,0
3424,note_on,160,0,1,,,,,,,,,0,,,76,0
3424,note_on,16,0,3,,,,,,,,,2,,,76,0
3454,note_on,46,0,2,,,,,,,,,1,,,45,0
3456,note_on,2,0,2,,,,,,,,,1,,,50,110
3456,note_on,48,0,4,,,,,,,,,2,,,50,110
3456,note_on,48,0,5,,,,,,,,,3,,,50,110
3456,note_on,32,0,3,,,,,,,,,2,,,66,110
3456,note_on,0,0,3,,,,,,,,,2,,,69,110
3456,note_on,0,0,3,,,,,,,,,2,,,74,110
3456,note_on,32,0,1,,,,,,,,,0,,,78,110
3504,note_on,0,0,2,,,,,,,,,1,,,52,110
3504,note_on,48,0,2,,,,,,,,,1,,,50,0
3550,note_on,94,0,1,,,,,,,,,0,,,78,0
3552,note_on,0,0,2,,,,,,,,,1,,,54,110
3552,note_on,48,0,2,,,,,,,,,1,,,52,0
3552,note_on,2,0,1,,,,,,,,,0,,,74,110
3600,note_on,0,0,2,,,,,,,,,1,,,50,110
3600,note_on,48,0,2,,,,,,,,,1,,,54,0
3616,note_on,160,0,4,,,,,,,,,2,,,50,0
3616,note_on,160,0,3,,,,,,,,,2,,,66,0
3616,note_on,0,0,3,,,,,,,,,2,,,69,0
3616,note_on,160,0,5,,,,,,,,,3,,,50,0
3616,note_on,0,0,3,,,,,,,,,2,,,74,0
3646,note_on,94,0,1,,,,,,,,,0,,,74,0
3646,note_on,46,0,2,,,,,,,,,1,,,50,0
3648,note_on,32,0,4,,,,,,,,,2,,,57,110
3648,note_on,32,0,5,,,,,,,,,3,,,57,110
3648,note_on,2,0,1,,,,,,,,,0,,,76,110
3648,note_on,0,0,3,,,,,,,,,2,,,69,110
3648,note_on,0,0,3,,,,,,,,,2,,,74,110
3648,note_on,32,0,3,,,,,,,,,2,,,64,110
3648,note_on,2,0,2,,,,,,,,,1,,,57,110
3742,note_on,94,0,3,,,,,,,,,2,,,74,0
3744,note_on,2,0,3,,,,,,,,,2,,,73,110
3790,note_on,46,0,3,,,,,,,,,2,,,73,0
3792,note_on,2,0,3,,,,,,,,,2,,,71,110
3808,note_on,160,0,4,,,,,,,,,2,,,57,0
3808,note_on,160,0,2,,,,,,,,,1,,,57,0
3808,note_on,160,0,5,,,,,,,,,3,,,57,0
3808,note_on,0,0,3,,,,,,,,,2,,,69,0
3808,note_on,16,0,3,,,,,,,,,2,,,64,0
3838,note_on,30,0,3,,,,,,,,,2,,,71,0
3840,note_on,2,0,3,,,,,,,,,2,,,64,110
3840,note_on,0,0,3,,,,,,,,,2,,,69,110
3840,note_on,32,0,5,,,,,,,,,3,,,45,110
3840,note_on,0,0,3,,,,,,,,,2,,,73,110
3840,note_on,32,0,2,,,,,,,,,1,,,45,110
3840,note_on,32,0,4,,,,,,,,,2,,,45,110
3904,note_on,256,0,1,,,,,,,,,0,,,76,0
3936,note_on,32,0,1,,,,,,,,,0,,,74,110
4000,note_on,0,0,3,,,,,,,,,2,,,73,0
4000,note_on,160,0,3,,,,,,,,,2,,,64,0
4000,note_on,0,0,3,,,,,,,,,2,,,69,0
4000,note_on,160,0,2,,,,,,,,,1,,,45,0
4000,note_on,160,0,5,,,,,,,,,3,,,45,0
4000,note_on,160,0,4,,,,,,,,,2,,,45,0
4030,note_on,94,0,1,,,,,,,,,0,,,74,0
4032,note_on,32,0,2,,,,,,,,,1,,,50,110
4032,note_on,32,0,4,,,,,,,,,2,,,50,110
4032,note_on,0,0,3,,,,,,,,,2,,,74,110
4032,note_on,0,0,3,,,,,,,,,2,,,69,110
4032,note_on,32,0,3,,,,,,,,,2,,,66,110
4032,note_on,2,0,1,,,,,,,,,0,,,74,110
4032,note_on,32,0,5,,,,,,,,,3,,,50,110
4560,note_on,528,0,4,,,,,,,,,2,,,50,0
4560,note_on,528,0,3,,,,,,,,,2,,,66,0
4560,note_on,0,0,3,,,,,,,,,2,,,69,0
4560,note_on,0,0,3,,,,,,,,,2,,,74,0
4560,note_on,528,0,5,,,,,,,,,3,,,50,0
4560,note_on,528,0,2,,,,,,,,,1,,,50,0
4560,note_on,528,0,1,,,,,,,,,0,,,74,0
4608,end_of_track,0,1,0,,,,,,,,,,,,,
4608,set_tempo,4608,1,0,1000000,,,,,,,,,,,,
4800,note_on,240,0,1,,,,,,,,,0,,,67,110
4960,note_on,160,0,1,,,,,,,,,0,,,67,0
4992,note_on,32,0,1,,,,,,,,,0,,,76,110
5152,note_on,160,0,1,,,,,,,,,0,,,76,0
5184,note_on,32,0,1,,,,,,,,,0,,,76,110
5344,note_on,160,0,1,,,,,,,,,0,,,76,0
5376,note_on,816,0,5,,,,,,,,,3,,,43,110
5376,note_on,816,0,2,,,,,,,,,1,,,43,110
5376,note_on,816,0,4,,,,,,,,,2,,,43,110
5376,note_on,0,0,3,,,,,,,,,2,,,71,110
5376,note_on,32,0,1,,,,,,,,,0,,,74,110
5376,note_on,816,0,3,,,,,,,,,2,,,62,110
5470,note_on,94,0,3,,,,,,,,,2,,,71,0
5472,note_on,2,0,3,,,,,,,,,2,,,69,110
5536,note_on,160,0,4,,,,,,,,,2,,,43,0
5536,note_on,64,0,3,,,,,,,,,2,,,62,0
5536,note_on,160,0,2,,,,,,,,,1,,,43,0
5536,note_on,160,0,5,,,,,,,,,3,,,43,0
5566,note_on,30,0,3,,,,,,,,,2,,,69,0
5568,note_on,32,0,5,,,,,,,,,3,,,55,110
5568,note_on,32,0,4,,,,,,,,,2,,,55,110
5568,note_on,0,0,3,,,,,,,,,2,,,71,110
5568,note_on,2,0,3,,,,,,,,,2,,,62,110
5568,note_on,32,0,2,,,,,,,,,1,,,55,110
5662,note_on,94,0,3,,,,,,,,,2,,,71,0
5664,note_on,2,0,3,,,,,,,,,2,,,72,110
5712,note_on,336,0,1,,,,,,,,,0,,,74,0
5728,note_on,160,0,2,,,,,,,,,1,,,55,0
5728,note_on,64,0,3,,,,,,,,,2,,,62,0
5728,note_on,160,0,4,,,,,,,,,2,,,55,0
5728,note_on,160,0,5,,,,,,,,,3,,,55,0
5758,note_on,30,0,3,,,,,,,,,2,,,72,0
5760,note_on,32,0,4,,,,,,,,,2,,,55,110
5760,note_on,0,0,3,,,,,,,,,2,,,74,110
5760,note_on,2,0,3,,,,,,,,,2,,,69,110
5760,note_on,32,0,5,,,,,,,,,3,,,55,110
5760,note_on,32,0,2,,,,,,,,,1,,,55,110
5760,note_on,48,0,1,,,,,,,,,0,,,74,110
5808,note_on,48,0,1,,,,,,,,,0,,,74,0
5808,note_on,0,0,1,,,,,,,,,0,,,76,110
5856,note_on,0,0,1,,,,,,,,,0,,,78,110
5856,note_on,48,0,1,,,,,,,,,0,,,76,0
5904,note_on,0,0,1,,,,,,,,,0,,,79,110
5904,note_on,48,0,1,,,,,,,,,0,,,78,0
5920,note_on,160,0,2,,,,,,,,,1,,,55,0
5920,note_on,160,0,5,,,,,,,,,3,,,55,0
5920,note_on,160,0,3,,,,,,,,,2,,,69,0
5920,note_on,0,0,3,,,,,,,,,2,,,74,0
5920,note_on,160,0,4,,,,,,,,,2,,,55,0
5952,note_on,32,0,4,,,,,,,,,2,,,54,110
5952,note_on,32,0,2,,,,,,,,,1,,,54,110
5952,note_on,48,0,1,,,,,,,,,0,,,79,0
5952,note_on,0,0,1,,,,,,,,,0,,,81,110
5952,note_on,32,0,5,,,,,,,,,3,,,54,110
5952,note_on,0,0,3,,,,,,,,,2,,,69,110
5952,note_on,32,0,3,,,,,,,,,2,,,62,110
6000,note_on,0,0,1,,,,,,,,,0,,,79,110
6000,note_on,48,0,1,,,,,,,,,0,,,81,0
6048,note_on,0,0,1,,,,,,,,,0,,,78,110
6048,note_on,48,0,1,,,,,,,,,0,,,79,0
6096,note_on,0,0,1,,,,,,,,,0,,,76,110
6096,note_on,48,0,1,,,,,,,,,0,,,78,0
6112,note_on,160,0,3,,,,,,,,,2,,,69,0
6144,note_on,0,0,1,,,,,,,,,0,,,74,110
6144,note_on,48,0,1,,,,,,,,,0,,,76,0
6144,note_on,32,0,3,,,,,,,,,2,,,72,110
6192,note_on,48,0,1,,,,,,,,,0,,,74,0
6192,note_on,0,0,1,,,,,,,,,0,,,72,110
6240,note_on,48,0,1,,,,,,,,,0,,,72,0
6240,note_on,0,0,1,,,,,,,,,0,,,71,110
6288,note_on,48,0,1,,,,,,,,,0,,,71,0
6288,note_on,0,0,1,,,,,,,,,0,,,69,110
6288,note_on,336,0,2,,,,,,,,,1,,,54,0
6288,note_on,336,0,5,,,,,,,,,3,,,54,0
6288,note_on,336,0,4,,,,,,,,,2,,,54,0
6288,note_on,144,0,3,,,,,,,,,2,,,62,0
6304,note_on,16,0,3,,,,,,,,,2,,,72,0
6334,note_on,46,0,1,,,,,,,,,0,,,69,0
6336,note_on,0,0,3,,,,,,,,,2,,,67,110
6336,note_on,48,0,4,,,,,,,,,2,,,55,110
6336,note_on,48,0,2,,,,,,,,,1,,,55,110
6336,note_on,48,0,5,,,,,,,,,3,,,55,110
6336,note_on,32,0,3,,,,,,,,,2,,,62,110
6336,note_on,2,0,1,,,,,,,,,0,,,71,110
6336,note_on,0,0,3,,,,,,,,,2,,,71,110
6384,note_on,48,0,2,,,,,,,,,1,,,55,0
6384,note_on,0,0,2,,,,,,,,,1,,,57,110
6432,note_on,0,0,2,,,,,,,,,1,,,59,110
6432,note_on,48,0,2,,,,,,,,,1,,,57,0
6480,note_on,48,0,2,,,,,,,,,1,,,59,0
6480,note_on,0,0,2,,,,,,,,,1,,,60,110
6496,note_on,160,0,5,,,,,,,,,3,,,55,0
6496,note_on,0,0,3,,,,,,,,,2,,,67,0
6496,note_on,160,0,3,,,,,,,,,2,,,62,0
6496,note_on,160,0,4,,,,,,,,,2,,,55,0
6496,note_on,0,0,3,,,,,,,,,2,,,71,0
6528,note_on,48,0,2,,,,,,,,,1,,,60,0
6528,note_on,32,0,4,,,,,,,,,2,,,50,110
6528,note_on,0,0,2,,,,,,,,,1,,,62,110
6528,note_on,0,0,3,,,,,,,,,2,,,69,110
6528,note_on,192,0,1,,,,,,,,,0,,,71,0
6528,note_on,32,0,5,,,,,,,,,3,,,50,110
6528,note_on,32,0,3,,,,,,,,,2,,,66,110
6528,note_on,0,0,1,,,,,,,,,0,,,78,110
6576,note_on,0,0,2,,,,,,,,,1,,,60,110
6576,note_on,48,0,2,,,,,,,,,1,,,62,0
6624,note_on,0,0,2,,,,,,,,,1,,,59,110
6624,note_on,48,0,2,,,,,,,,,1,,,60,0
6672,note_on,48,0,2,,,,,,,,,1,,,59,0
6672,note_on,0,0,2,,,,,,,,,1,,,57,110
6688,note_on,160,0,1,,,,,,,,,0,,,78,0
6688,note_on,160,0,3,,,,,,,,,2,,,69,0
6720,note_on,32,0,1,,,,,,,,,0,,,81,110
6720,note_on,48,0,2,,,,,,,,,1,,,57,0
6720,note_on,32,0,3,,,,,,,,,2,,,74,110
6720,note_on,0,0,2,,,,,,,,,1,,,55,110
6768,note_on,48,0,2,,,,,,,,,1,,,55,0
6768,note_on,0,0,2,,,,,,,,,1,,,54,110
6816,note_on,48,0,2,,,,,,,,,1,,,54,0
6816,note_on,0,0,2,,,,,,,,,1,,,52,110
6864,note_on,336,0,4,,,,,,,,,2,,,50,0
6864,note_on,336,0,5,,,,,,,,,3,,,50,0
6864,note_on,0,0,2,,,,,,,,,1,,,50,110
6864,note_on,48,0,2,,,,,,,,,1,,,52,0
6864,note_on,144,0,3,,,,,,,,,2,,,66,0
6880,note_on,160,0,1,,,,,,,,,0,,,81,0
6880,note_on,16,0,3,,,,,,,,,2,,,74,0
6910,note_on,46,0,2,,,,,,,,,1,,,50,0
6912,note_on,48,0,4,,,,,,,,,2,,,45,110
6912,note_on,32,0,1,,,,,,,,,0,,,73,110
6912,note_on,2,0,2,,,,,,,,,1,,,45,110
6912,note_on,0,0,3,,,,,,,,,2,,,73,110
6912,note_on,48,0,5,,,,,,,,,3,,,45,110
6912,note_on,32,0,3,,,,,,,,,2,,,64,110
6960,note_on,48,0,1,,,,,,,,,0,,,73,0
6960,note_on,0,0,1,,,,,,,,,0,,,74,110
7008,note_on,0,0,1,,,,,,,,,0,,,76,110
7008,note_on,48,0,1,,,,,,,,,0,,,74,0
7056,note_on,48,0,1,,,,,,,,,0,,,76,0
7056,note_on,0,0,1,,,,,,,,,0,,,78,110
7072,note_on,160,0,3,,,,,,,,,2,,,64,0
7072,note_on,0,0,3,,,,,,,,,2,,,73,0
7072,note_on,160,0,5,,,,,,,,,3,,,45,0
7072,note_on,160,0,4,,,,,,,,,2,,,45,0
7072,note_on,160,0,2,,,,,,,,,1,,,45,0
7104,note_on,0,0,3,,,,,,,,,2,,,76,110
7104,note_on,32,0,3,,,,,,,,,2,,,67,110
7104,note_on,32,0,4,,,,,,,,,2,,,57,110
7104,note_on,32,0,2,,,,,,,,,1,,,57,110
7104,note_on,32,0,5,,,,,,,,,3,,,57,110
7104,note_on,48,0,1,,,,,,,,,0,,,78,0
7104,note_on,0,0,1,,,,,,,,,0,,,79,110
7152,note_on,48,0,1,,,,,,,,,0,,,79,0
7152,note_on,0,0,1,,,,,,,,,0,,,78,110
7200,note_on,48,0,1,,,,,,,,,0,,,78,0
7200,note_on,0,0,1,,,,,,,,,0,,,76,110
7248,note_on,48,0,1,,,,,,,,,0,,,76,0
7248,note_on,0,0,1,,,,,,,,,0,,,74,110
7264,note_on,160,0,2,,,,,,,,,1,,,57,0
7264,note_on,160,0,4,,,,,,,,,2,,,57,0
7264,note_on,0,0,3,,,,,,,,,2,,,76,0
7264,note_on,160,0,3,,,,,,,,,2,,,67,0
7264,note_on,160,0,5,,,,,,,,,3,,,57,0
7296,note_on,0,0,1,,,,,,,,,0,,,73,110
7296,note_on,32,0,4,,,,,,,,,2,,,45,110
7296,note_on,32,0,5,,,,,,,,,3,,,45,110
7296,note_on,0,0,3,,,,,,,,,2,,,73,110
7296,note_on,32,0,2,,,,,,,,,1,,,45,110
7296,note_on,0,0,3,,,,,,,,,2,,,69,110
7296,note_on,32,0,3,,,,,,,,,2,,,67,110
7296,note_on,48,0,1,,,,,,,,,0,,,74,0
7344,note_on,0,0,1,,,,,,,,,0,,,71,110
7344,note_on,48,0,1,,,,,,,,,0,,,73,0
7392,note_on,0,0,1,,,,,,,,,0,,,69,110
7392,note_on,48,0,1,,,,,,,,,0,,,71,0
7440,note_on,0,0,1,,,,,,,,,0,,,67,110
7440,note_on,48,0,1,,,,,,,,,0,,,69,0
7456,note_on,160,0,3,,,,,,,,,2,,,67,0
7456,note_on,160,0,4,,,,,,,,,2,,,45,0
7456,note_on,0,0,3,,,,,,,,,2,,,69,0
7456,note_on,0,0,3,,,,,,,,,2,,,73,0
7456,note_on,160,0,5,,,,,,,,,3,,,45,0
7456,note_on,160,0,2,,,,,,,,,1,,,45,0
7486,note_on,46,0,1,,,,,,,,,0,,,67,0
7488,note_on,2,0,1,,,,,,,,,0,,,66,110
7488,note_on,32,0,5,,,,,,,,,3,,,50,110
7488,note_on,0,0,3,,,,,,,,,2,,,69,110
7488,note_on,32,0,4,,,,,,,,,2,,,50,110
7488,note_on,32,0,2,,,,,,,,,1,,,50,110
7488,note_on,0,0,3,,,,,,,,,2,,,74,110
7488,note_on,32,0,3,,,,,,,,,2,,,66,110
7536,note_on,0,0,2,,,,,,,,,1,,,52,110
7536,note_on,48,0,2,,,,,,,,,1,,,50,0
7584,note_on,0,0,2,,,,,,,,,1,,,54,110
7584,note_on,48,0,2,,,,,,,,,1,,,52,0
7632,note_on,48,0,2,,,,,,,,,1,,,54,0
7632,note_on,0,0,2,,,,,,,,,1,,,55,110
7648,note_on,160,0,4,,,,,,,,,2,,,50,0
7648,note_on,0,0,3,,,,,,,,,2,,,74,0
7648,note_on,160,0,3,,,,,,,,,2,,,66,0
7648,note_on,160,0,5,,,,,,,,,3,,,50,0
7648,note_on,0,0,3,,,,,,,,,2,,,69,0
7680,note_on,0,0,1,,,,,,,,,0,,,73,110
7680,note_on,48,0,2,,,,,,,,,1,,,55,0
7680,note_on,0,0,2,,,,,,,,,1,,,57,110
7680,note_on,0,0,3,,,,,,,,,2,,,73,110
7680,note_on,192,0,1,,,,,,,,,0,,,66,0
7680,note_on,32,0,4,,,,,,,,,2,,,45,110
7680,note_on,32,0,3,,,,,,,,,2,,,67,110
7680,note_on,32,0,5,,,,,,,,,3,,,45,110
7728,note_on,0,0,2,,,,,,,,,1,,,55,110
7728,note_on,48,0,2,,,,,,,,,1,,,57,0
7776,note_on,48,0,2,,,,,,,,,1,,,55,0
7776,note_on,0,0,2,,,,,,,,,1,,,54,110
7824,note_on,0,0,2,,,,,,,,,1,,,52,110
7824,note_on,48,0,2,,,,,,,,,1,,,54,0
7840,note_on,160,0,3,,,,,,,,,2,,,73,0
7840,note_on,160,0,1,,,,,,,,,0,,,73,0
7872,note_on,32,0,1,,,,,,,,,0,,,76,110
7872,note_on,32,0,3,,,,,,,,,2,,,76,110
7872,note_on,48,0,2,,,,,,,,,1,,,52,0
7872,note_on,0,0,2,,,,,,,,,1,,,50,110
7920,note_on,0,0,2,,,,,,,,,1,,,49,110
7920,note_on,48,0,2,,,,,,,,,1,,,50,0
7968,note_on,48,0,2,,,,,,,,,1,,,49,0
7968,note_on,0,0,2,,,,,,,,,1,,,47,110
8016,note_on,336,0,4,,,,,,,,,2,,,45,0
8016,note_on,0,0,2,,,,,,,,,1,,,45,110
8016,note_on,48,0,2,,,,,,,,,1,,,47,0
8016,note_on,336,0,5,,,,,,,,,3,,,45,0
8016,note_on,144,0,3,,,,,,,,,2,,,67,0
8032,note_on,160,0,1,,,,,,,,,0,,,76,0
8032,note_on,16,0,3,,,,,,,,,2,,,76,0
8062,note_on,46,0,2,,,,,,,,,1,,,45,0
8064,note_on,32,0,1,,,,,,,,,0,,,78,110
8064,note_on,48,0,4,,,,,,,,,2,,,50,110
8064,note_on,48,0,5,,,,,,,,,3,,,50,110
8064,note_on,2,0,2,,,,,,,,,1,,,50,110
8064,note_on,0,0,3,,,,,,,,,2,,,74,110
8064,note_on,0,0,3,,,,,,,,,2,,,69,110
8064,note_on,32,0,3,,,,,,,,,2,,,66,110
8112,note_on,48,0,2,,,,,,,,,1,,,50,0
8112,note_on,0,0,2,,,,,,,,,1,,,52,110
8158,note_on,94,0,1,,,,,,,,,0,,,78,0
8160,note_on,0,0,2,,,,,,,,,1,,,54,110
8160,note_on,2,0,1,,,,,,,,,0,,,74,110
8160,note_on,48,0,2,,,,,,,,,1,,,52,0
8208,note_on,48,0,2,,,,,,,,,1,,,54,0
8208,note_on,0,0,2,,,,,,,,,1,,,50,110
8224,note_on,160,0,5,,,,,,,,,3,,,50,0
8224,note_on,160,0,4,,,,,,,,,2,,,50,0
8224,note_on,160,0,3,,,,,,,,,2,,,66,0
8224,note_on,0,0,3,,,,,,,,,2,,,69,0
8224,note_on,0,0,3,,,,,,,,,2,,,74,0
8254,note_on,94,0,1,,,,,,,,,0,,,74,0
8254,note_on,46,0,2,,,,,,,,,1,,,50,0
8256,note_on,32,0,3,,,,,,,,,2,,,64,110
8256,note_on,32,0,4,,,,,,,,,2,,,57,110
8256,note_on,0,0,3,,,,,,,,,2,,,74,110
8256,note_on,2,0,1,,,,,,,,,0,,,76,110
8256,note_on,32,0,5,,,,,,,,,3,,,57,110
8256,note_on,2,0,2,,,,,,,,,1,,,57,110
8256,note_on,0,0,3,,,,,,,,,2,,,69,110
8350,note_on,94,0,3,,,,,,,,,2,,,74,0
8352,note_on,2,0,3,,,,,,,,,2,,,73,110
8398,note_on,46,0,3,,,,,,,,,2,,,73,0
8400,note_on,2,0,3,,,,,,,,,2,,,71,110
8416,note_on,160,0,2,,,,,,,,,1,,,57,0
8416,note_on,160,0,4,,,,,,,,,2,,,57,0
8416,note_on,160,0,5,,,,,,,,,3,,,57,0
8416,note_on,16,0,3,,,,,,,,,2,,,64,0
8416,note_on,0,0,3,,,,,,,,,2,,,69,0
8446,note_on,30,0,3,,,,,,,,,2,,,71,0
8448,note_on,2,0,3,,,,,,,,,2,,,64,110
8448,note_on,0,0,3,,,,,,,,,2,,,73,110
8448,note_on,0,0,3,,,,,,,,,2,,,69,110
8448,note_on,32,0,4,,,,,,,,,2,,,45,110
8448,note_on,32,0,5,,,,,,,,,3,,,45,110
8448,note_on,32,0,2,,,,,,,,,1,,,45,110
8512,note_on,256,0,1,,,,,,,,,0,,,76,0
8544,note_on,32,0,1,,,,,,,,,0,,,74,110
8608,note_on,160,0,4,,,,,,,,,2,,,45,0
8608,note_on,160,0,3,,,,,,,,,2,,,64,0
8608,note_on,0,0,3,,,,,,,,,2,,,69,0
8608,note_on,0,0,3,,,,,,,,,2,,,73,0
8608,note_on,160,0,2,,,,,,,,,1,,,45,0
8608,note_on,160,0,5,,,,,,,,,3,,,45,0
8638,note_on,94,0,1,,,,,,,,,0,,,74,0
8640,note_on,32,0,3,,,,,,,,,2,,,66,110
8640,note_on,32,0,4,,,,,,,,,2,,,50,110
8640,note_on,2,0,1,,,,,,,,,0,,,74,110
8640,note_on,0,0,3,,,,,,,,,2,,,69,110
8640,note_on,0,0,3,,,,,,,,,2,,,74,110
8640,note_on,32,0,2,,,,,,,,,1,,,50,110
8640,note_on,32,0,5,,,,,,,,,3,,,50,110
9168,note_on,528,0,4,,,,,,,,,2,,,50,0
9168,note_on,0,0,3,,,,,,,,,2,,,74,0
9168,note_on,528,0,2,,,,,,,,,1,,,50,0
9168,note_on,0,0,3,,,,,,,,,2,,,69,0
9168,note_on,528,0,5,,,,,,,,,3,,,50,0
9168,note_on,528,0,3,,,,,,,,,2,,,66,0
9168,note_on,528,0,1,,,,,,,,,0,,,74,0
9216,note_on,48,0,1,,,,,,,,,0,,,62,110
9376,note_on,160,0,1,,,,,,,,,0,,,62,0
9408,note_on,32,0,1,,,,,,,,,0,,,74,110
9568,note_on,160,0,1,,,,,,,,,0,,,74,0
9600,note_on,32,0,1,,,,,,,,,0,,,74,110
9760,note_on,160,0,1,,,,,,,,,0,,,74,0
9792,note_on,0,0,3,,,,,,,,,2,,,64,110
9792,note_on,624,0,3,,,,,,,,,2,,,62,110
9792,note_on,624,0,4,,,,,,,,,2,,,45,110
9792,note_on,624,0,5,,,,,,,,,3,,,45,110
9792,note_on,32,0,1,,,,,,,,,0,,,74,110
9792,note_on,624,0,2,,,,,,,,,1,,,45,110
9952,note_on,160,0,1,,,,,,,,,0,,,74,0
9952,note_on,160,0,5,,,,,,,,,3,,,45,0
9952,note_on,160,0,2,,,,,,,,,1,,,45,0
9952,note_on,160,0,3,,,,,,,,,2,,,62,0
9952,note_on,0,0,3,,,,,,,,,2,,,64,0
9952,note_on,160,0,4,,,,,,,,,2,,,45,0
9984,note_on,32,0,2,,,,,,,,,1,,,57,110
9984,note_on,32,0,1,,,,,,,,,0,,,73,110
9984,note_on,32,0,5,,,,,,,,,3,,,57,110
9984,note_on,32,0,3,,,,,,,,,2,,,61,110
9984,note_on,0,0,3,,,,,,,,,2,,,69,110
9984,note_on,32,0,4,,,,,,,,,2,,,57,110
10144,note_on,160,0,4,,,,,,,,,2,,,57,0
10144,note_on,160,0,2,,,,,,,,,1,,,57,0
10144,note_on,160,0,5,,,,,,,,,3,,,57,0
10144,note_on,0,0,3,,,,,,,,,2,,,69,0
10144,note_on,160,0,3,,,,,,,,,2,,,61,0
10176,note_on,32,0,3,,,,,,,,,2,,,64,110
10176,note_on,32,0,2,,,,,,,,,1,,,57,110
10176,note_on,32,0,4,,,,,,,,,2,,,57,110
10176,note_on,0,0,3,,,,,,,,,2,,,73,110
10176,note_on,32,0,5,,,,,,,,,3,,,57,110
10320,note_on,336,0,1,,,,,,,,,0,,,73,0
10336,note_on,160,0,3,,,,,,,,,2,,,64,0
10336,note_on,160,0,4,,,,,,,,,2,,,57,0
10336,note_on,160,0,5,,,,,,,,,3,,,57,0
10336,note_on,0,0,3,,,,,,,,,2,,,73,0
10336,note_on,160,0,2,,,,,,,,,1,,,57,0
10368,note_on,32,0,2,,,,,,,,,1,,,57,110
10368,note_on,48,0,1,,,,,,,,,0,,,73,110
10368,note_on,32,0,4,,,,,,,,,2,,,57,110
10368,note_on,32,0,5,,,,,,,,,3,,,57,110
10368,note_on,32,0,3,,,,,,,,,2,,,67,110
10368,note_on,0,0,3,,,,,,,,,2,,,76,110
10416,note_on,0,0,1,,,,,,,,,0,,,74,110
10416,note_on,48,0,1,,,,,,,,,0,,,73,0
10464,note_on,0,0,1,,,,,,,,,0,,,76,110
10464,note_on,48,0,1,,,,,,,,,0,,,74,0
10512,note_on,0,0,1,,,,,,,,,0,,,78,110
10512,note_on,48,0,1,,,,,,,,,0,,,76,0
10528,note_on,160,0,3,,,,,,,,,2,,,67,0
10528,note_on,0,0,3,,,,,,,,,2,,,76,0
10560,note_on,0,0,1,,,,,,,,,0,,,79,110
10560,note_on,48,0,1,,,,,,,,,0,,,78,0
10560,note_on,32,0,3,,,,,,,,,2,,,67,110
10560,note_on,0,0,3,,,,,,,,,2,,,73,110
10608,note_on,0,0,1,,,,,,,,,0,,,78,110
10608,note_on,48,0,1,,,,,,,,,0,,,79,0
10656,note_on,48,0,1,,,,,,,,,0,,,78,0
10656,note_on,0,0,1,,,,,,,,,0,,,76,110
10704,note_on,48,0,1,,,,,,,,,0,,,76,0
10704,note_on,336,0,4,,,,,,,,,2,,,57,0
10704,note_on,336,0,2,,,,,,,,,1,,,57,0
10704,note_on,336,0,5,,,,,,,,,3,,,57,0
10704,note_on,0,0,1,,,,,,,,,0,,,74,110
10720,note_on,160,0,3,,,,,,,,,2,,,67,0
10720,note_on,0,0,3,,,,,,,,,2,,,73,0
10752,note_on,48,0,4,,,,,,,,,2,,,45,110
10752,note_on,0,0,1,,,,,,,,,0,,,73,110
10752,note_on,0,0,3,,,,,,,,,2,,,76,110
10752,note_on,32,0,3,,,,,,,,,2,,,67,110
10752,note_on,48,0,1,,,,,,,,,0,,,74,0
10752,note_on,48,0,2,,,,,,,,,1,,,45,110
10752,note_on,48,0,5,,,,,,,,,3,,,45,110
10800,note_on,48,0,1,,,,,,,,,0,,,73,0
10800,note_on,0,0,1,,,,,,,,,0,,,71,110
10848,note_on,0,0,1,,,,,,,,,0,,,69,110
10848,note_on,48,0,1,,,,,,,,,0,,,71,0
10896,note_on,0,0,1,,,,,,,,,0,,,67,110
10896,note_on,48,0,1,,,,,,,,,0,,,69,0
10912,note_on,160,0,5,,,,,,,,,3,,,45,0
10912,note_on,160,0,2,,,,,,,,,1,,,45,0
10912,note_on,160,0,4,,,,,,,,,2,,,45,0
10912,note_on,0,0,3,,,,,,,,,2,,,76,0
10912,note_on,160,0,3,,,,,,,,,2,,,67,0
10942,note_on,46,0,1,,,,,,,,,0,,,67,0
10944,note_on,32,0,2,,,,,,,,,1,,,50,110
10944,note_on,32,0,5,,,,,,,,,3,,,50,110
10944,note_on,32,0,4,,,,,,,,,2,,,50,110
10944,note_on,0,0,3,,,,,,,,,2,,,69,110
10944,note_on,32,0,3,,,,,,,,,2,,,67,110
10944,note_on,2,0,1,,,,,,,,,0,,,67,110
10992,note_on,0,0,2,,,,,,,,,1,,,52,110
10992,note_on,48,0,2,,,,,,,,,1,,,50,0
11040,note_on,48,0,2,,,,,,,,,1,,,52,0
11040,note_on,0,0,2,,,,,,,,,1,,,54,110
11088,note_on,48,0,2,,,,,,,,,1,,,54,0
11088,note_on,0,0,2,,,,,,,,,1,,,55,110
11104,note_on,0,0,3,,,,,,,,,2,,,69,0
11104,note_on,160,0,1,,,,,,,,,0,,,67,0
11104,note_on,160,0,3,,,,,,,,,2,,,67,0
11136,note_on,32,0,1,,,,,,,,,0,,,66,110
11136,note_on,48,0,2,,,,,,,,,1,,,55,0
11136,note_on,0,0,2,,,,,,,,,1,,,57,110
11136,note_on,32,0,3,,,,,,,,,2,,,66,110
11136,note_on,0,0,3,,,,,,,,,2,,,74,110
11184,note_on,48,0,2,,,,,,,,,1,,,57,0
11184,note_on,0,0,2,,,,,,,,,1,,,55,110
11232,note_on,48,0,2,,,,,,,,,1,,,55,0
11232,note_on,0,0,2,,,,,,,,,1,,,54,110
11280,note_on,0,0,2,,,,,,,,,1,,,52,110
11280,note_on,48,0,2,,,,,,,,,1,,,54,0
11296,note_on,160,0,3,,,,,,,,,2,,,66,0
11296,note_on,0,0,3,,,,,,,,,2,,,74,0
11296,note_on,160,0,1,,,,,,,,,0,,,66,0
11326,note_on,46,0,2,,,,,,,,,1,,,52,0
11328,note_on,2,0,2,,,,,,,,,1,,,50,110
11328,note_on,0,0,3,,,,,,,,,2,,,74,110
11328,note_on,32,0,3,,,,,,,,,2,,,66,110
11328,note_on,32,0,1,,,,,,,,,0,,,78,110
11376,note_on,0,0,2,,,,,,,,,1,,,52,110
11376,note_on,48,0,2,,,,,,,,,1,,,50,0
11424,note_on,0,0,2,,,,,,,,,1,,,54,110
11424,note_on,48,0,2,,,,,,,,,1,,,52,0
11472,note_on,528,0,4,,,,,,,,,2,,,50,0
11472,note_on,0,0,2,,,,,,,,,1,,,50,110
11472,note_on,48,0,2,,,,,,,,,1,,,54,0
11472,note_on,528,0,5,,,,,,,,,3,,,50,0
11488,note_on,160,0,1,,,,,,,,,0,,,78,0
11488,note_on,160,0,3,,,,,,,,,2,,,66,0
11488,note_on,0,0,3,,,,,,,,,2,,,74,0
11518,note_on,46,0,2,,,,,,,,,1,,,50,0
11520,note_on,32,0,3,,,,,,,,,2,,,69,110
11520,note_on,32,0,1,,,,,,,,,0,,,71,110
11520,note_on,48,0,4,,,,,,,,,2,,,52,110
11520,note_on,2,0,2,,,,,,,,,1,,,52,110
11520,note_on,48,0,5,,,,,,,,,3,,,52,110
11520,note_on,0,0,3,,,,,,,,,2,,,71,110
11568,note_on,48,0,2,,,,,,,,,1,,,52,0
11568,note_on,0,0,2,,,,,,,,,1,,,54,110
11616,note_on,48,0,2,,,,,,,,,1,,,54,0
11616,note_on,0,0,2,,,,,,,,,1,,,55,110
11664,note_on,48,0,2,,,,,,,,,1,,,55,0
11664,note_on,0,0,2,,,,,,,,,1,,,57,110
11680,note_on,0,0,3,,,,,,,,,2,,,71,0
11680,note_on,160,0,3,,,,,,,,,2,,,69,0
11680,note_on,160,0,1,,,,,,,,,0,,,71,0
11712,note_on,48,0,2,,,,,,,,,1,,,57,0
11712,note_on,0,0,2,,,,,,,,,1,,,59,110
11712,note_on,32,0,1,,,,,,,,,0,,,76,110
11712,note_on,0,0,3,,,,,,,,,2,,,76,110
11712,note_on,32,0,3,,,,,,,,,2,,,67,110
11760,note_on,48,0,2,,,,,,,,,1,,,59,0
11760,note_on,0,0,2,,,,,,,,,1,,,57,110
11808,note_on,48,0,2,,,,,,,,,1,,,57,0
11808,note_on,0,0,2,,,,,,,,,1,,,55,110
11856,note_on,0,0,2,,,,,,,,,1,,,54,110
11856,note_on,48,0,2,,,,,,,,,1,,,55,0
11872,note_on,0,0,3,,,,,,,,,2,,,76,0
11872,note_on,160,0,3,,,,,,,,,2,,,67,0
11872,note_on,160,0,1,,,,,,,,,0,,,76,0
11902,note_on,46,0,2,,,,,,,,,1,,,54,0
11904,note_on,32,0,1,,,,,,,,,0,,,79,110
11904,note_on,2,0,2,,,,,,,,,1,,,52,110
11904,note_on,0,0,3,,,,,,,,,2,,,76,110
11904,note_on,32,0,3,,,,,,,,,2,,,67,110
11952,note_on,48,0,2,,,,,,,,,1,,,52,0
11952,note_on,0,0,2,,,,,,,,,1,,,54,110
12000,note_on,0,0,2,,,,,,,,,1,,,55,110
12000,note_on,48,0,2,,,,,,,,,1,,,54,0
12048,note_on,0,0,2,,,,,,,,,1,,,52,110
12048,note_on,48,0,2,,,,,,,,,1,,,55,0
12048,note_on,528,0,4,,,,,,,,,2,,,52,0
12048,note_on,528,0,5,,,,,,,,,3,,,52,0
12064,note_on,0,0,3,,,,,,,,,2,,,76,0
12064,note_on,160,0,1,,,,,,,,,0,,,79,0
12064,note_on,160,0,3,,,,,,,,,2,,,67,0
12094,note_on,46,0,2,,,,,,,,,1,,,52,0
12096,note_on,48,0,5,,,,,,,,,3,,,54,110
12096,note_on,2,0,2,,,,,,,,,1,,,54,110
12096,note_on,32,0,3,,,,,,,,,2,,,64,110
12096,note_on,48,0,4,,,,,,,,,2,,,54,110
12096,note_on,32,0,1,,,,,,,,,0,,,70,110
12096,note_on,0,0,3,,,,,,,,,2,,,70,110
12144,note_on,0,0,2,,,,,,,,,1,,,52,110
12144,note_on,48,0,2,,,,,,,,,1,,,54,0
12192,note_on,48,0,2,,,,,,,,,1,,,52,0
12192,note_on,0,0,2,,,,,,,,,1,,,54,110
12240,note_on,48,0,2,,,,,,,,,1,,,54,0
12240,note_on,0,0,2,,,,,,,,,1,,,55,110
12256,note_on,0,0,3,,,,,,,,,2,,,70,0
12256,note_on,160,0,3,,,,,,,,,2,,,64,0
12288,note_on,48,0,2,,,,,,,,,1,,,55,0
12288,note_on,0,0,2,,,,,,,,,1,,,54,110
12288,note_on,32,0,3,,,,,,,,,2,,,64,110
12288,note_on,0,0,3,,,,,,,,,2,,,73,110
12336,note_on,0,0,2,,,,,,,,,1,,,52,110
12336,note_on,48,0,2,,,,,,,,,1,,,54,0
12352,note_on,256,0,1,,,,,,,,,0,,,70,0
12384,note_on,0,0,2,,,,,,,,,1,,,50,110
12384,note_on,48,0,2,,,,,,,,,1,,,52,0
12384,note_on,32,0,1,,,,,,,,,0,,,66,110
12432,note_on,48,0,2,,,,,,,,,1,,,50,0
12432,note_on,336,0,4,,,,,,,,,2,,,54,0
12432,note_on,336,0,5,,,,,,,,,3,,,54,0
12432,note_on,0,0,2,,,,,,,,,1,,,49,110
12448,note_on,160,0,3,,,,,,,,,2,,,64,0
12448,note_on,0,0,3,,,,,,,,,2,,,73,0
12478,note_on,94,0,1,,,,,,,,,0,,,66,0
12478,note_on,46,0,2,,,,,,,,,1,,,49,0
12480,note_on,32,0,3,,,,,,,,,2,,,66,110
12480,note_on,48,0,4,,,,,,,,,2,,,50,110
12480,note_on,0,0,3,,,,,,,,,2,,,71,110
12480,note_on,2,0,2,,,,,,,,,1,,,50,110
12480,note_on,2,0,1,,,,,,,,,0,,,71,110
12480,note_on,48,0,5,,,,,,,,,3,,,50,110
12528,note_on,48,0,2,,,,,,,,,1,,,50,0
12528,note_on,0,0,2,,,,,,,,,1,,,49,110
12576,note_on,48,0,2,,,,,,,,,1,,,49,0
12576,note_on,0,0,2,,,,,,,,,1,,,50,110
12624,note_on,48,0,2,,,,,,,,,1,,,50,0
12624,note_on,0,0,2,,,,,,,,,1,,,47,110
12640,note_on,160,0,5,,,,,,,,,3,,,50,0
12640,note_on,0,0,3,,,,,,,,,2,,,71,0
12640,note_on,160,0,3,,,,,,,,,2,,,66,0
12640,note_on,160,0,4,,,,,,,,,2,,,50,0
12670,note_on,46,0,2,,,,,,,,,1,,,47,0
12672,note_on,2,0,2,,,,,,,,,1,,,55,110
12672,note_on,32,0,3,,,,,,,,,2,,,64,110
12672,note_on,0,0,3,,,,,,,,,2,,,71,110
12672,note_on,32,0,4,,,,,,,,,2,,,55,110
12672,note_on,32,0,5,,,,,,,,,3,,,55,110
12720,note_on,0,0,2,,,,,,,,,1,,,54,110
12720,note_on,48,0,2,,,,,,,,,1,,,55,0
12766,note_on,94,0,3,,,,,,,,,2,,,71,0
12766,note_on,286,0,1,,,,,,,,,0,,,71,0
12768,note_on,0,0,2,,,,,,,,,1,,,55,110
12768,note_on,48,0,2,,,,,,,,,1,,,54,0
12768,note_on,2,0,1,,,,,,,,,0,,,76,110
12768,note_on,2,0,3,,,,,,,,,2,,,73,110
12816,note_on,0,0,2,,,,,,,,,1,,,52,110
12816,note_on,48,0,2,,,,,,,,,1,,,55,0
12832,note_on,64,0,3,,,,,,,,,2,,,64,0
12832,note_on,160,0,4,,,,,,,,,2,,,55,0
12832,note_on,160,0,5,,,,,,,,,3,,,55,0
12862,note_on,30,0,3,,,,,,,,,2,,,73,0
12862,note_on,46,0,2,,,,,,,,,1,,,52,0
12862,note_on,94,0,1,,,,,,,,,0,,,76,0
12864,note_on,32,0,5,,,,,,,,,3,,,54,110
12864,note_on,2,0,1,,,,,,,,,0,,,74,110
12864,note_on,2,0,2,,,,,,,,,1,,,54,110
12864,note_on,0,0,3,,,,,,,,,2,,,71,110
12864,note_on,2,0,3,,,,,,,,,2,,,62,110
12864,note_on,32,0,4,,,,,,,,,2,,,54,110
12958,note_on,94,0,3,,,,,,,,,2,,,71,0
12960,note_on,2,0,3,,,,,,,,,2,,,70,110
13006,note_on,46,0,3,,,,,,,,,2,,,70,0
13008,note_on,2,0,3,,,,,,,,,2,,,68,110
13024,note_on,16,0,3,,,,,,,,,2,,,62,0
13024,note_on,160,0,5,,,,,,,,,3,,,54,0
13024,note_on,160,0,2,,,,,,,,,1,,,54,0
13024,note_on,160,0,4,,,,,,,,,2,,,54,0
13054,note_on,30,0,3,,,,,,,,,2,,,68,0
13056,note_on,32,0,5,,,,,,,,,3,,,42,110
13056,note_on,32,0,2,,,,,,,,,1,,,42,110
13056,note_on,2,0,3,,,,,,,,,2,,,61,110
13056,note_on,0,0,3,,,,,,,,,2,,,70,110
13056,note_on,32,0,4,,,,,,,,,2,,,42,110
13152,note_on,0,0,1,,,,,,,,,0,,,73,110
13152,note_on,288,0,1,,,,,,,,,0,,,74,0
13198,note_on,46,0,1,,,,,,,,,0,,,73,0
13200,note_on,2,0,1,,,,,,,,,0,,,71,110
13216,note_on,160,0,4,,,,,,,,,2,,,42,0
13216,note_on,160,0,3,,,,,,,,,2,,,61,0
13216,note_on,0,0,3,,,,,,,,,2,,,70,0
13216,note_on,160,0,2,,,,,,,,,1,,,42,0
13216,note_on,160,0,5,,,,,,,,,3,,,42,0
13246,note_on,46,0,1,,,,,,,,,0,,,71,0
13248,note_on,32,0,2,,,,,,,,,1,,,47,110
13248,note_on,32,0,4,,,,,,,,,2,,,47,110
13248,note_on,2,0,1,,,,,,,,,0,,,71,110
13248,note_on,32,0,3,,,,,,,,,2,,,62,110
13248,note_on,0,0,3,,,,,,,,,2,,,71,110
13248,note_on,0,0,3,,,,,,,,,2,,,66,110
13248,note_on,32,0,5,,,,,,,,,3,,,47,110
13408,note_on,0,0,3,,,,,,,,,2,,,66,0
13408,note_on,160,0,5,,,,,,,,,3,,,47,0
13408,note_on,160,0,4,,,,,,,,,2,,,47,0
13408,note_on,160,0,1,,,,,,,,,0,,,71,0
13408,note_on,160,0,3,,,,,,,,,2,,,62,0
13408,note_on,0,0,3,,,,,,,,,2,,,71,0
13408,note_on,160,0,2,,,,,,,,,1,,,47,0
13440,note_on,32,0,1,,,,,,,,,0,,,67,110
13600,note_on,160,0,1,,,,,,,,,0,,,67,0
13632,note_on,32,0,1,,,,,,,,,0,,,76,110
13792,note_on,160,0,1,,,,,,,,,0,,,76,0
13824,note_on,32,0,1,,,,,,,,,0,,,76,110
13984,note_on,160,0,1,,,,,,,,,0,,,76,0
14016,note_on,0,0,3,,,,,,,,,2,,,71,110
14016,note_on,608,0,2,,,,,,,,,1,,,43,110
14016,note_on,608,0,5,,,,,,,,,3,,,43,110
14016,note_on,32,0,1,,,,,,,,,0,,,74,110
14016,note_on,608,0,3,,,,,,,,,2,,,62,110
14016,note_on,608,0,4,,,,,,,,,2,,,43,110
14176,note_on,160,0,2,,,,,,,,,1,,,43,0
14176,note_on,160,0,3,,,,,,,,,2,,,71,0
14176,note_on,160,0,5,,,,,,,,,3,,,43,0
14176,note_on,160,0,4,,,,,,,,,2,,,43,0
14208,note_on,32,0,5,,,,,,,,,3,,,55,110
14208,note_on,32,0,2,,,,,,,,,1,,,55,110
14208,note_on,32,0,3,,,,,,,,,2,,,69,110
14208,note_on,32,0,4,,,,,,,,,2,,,55,110
14302,note_on,94,0,3,,,,,,,,,2,,,69,0
14304,note_on,2,0,3,,,,,,,,,2,,,67,110
14352,note_on,336,0,1,,,,,,,,,0,,,74,0
14352,note_on,48,0,3,,,,,,,,,2,,,62,0
14368,note_on,160,0,2,,,,,,,,,1,,,55,0
14368,note_on,160,0,4,,,,,,,,,2,,,55,0
14368,note_on,160,0,5,,,,,,,,,3,,,55,0
14398,note_on,46,0,3,,,,,,,,,2,,,67,0
14400,note_on,32,0,4,,,,,,,,,2,,,43,110
14400,note_on,2,0,3,,,,,,,,,2,,,62,110
14400,note_on,48,0,1,,,,,,,,,0,,,71,110
14400,note_on,32,0,2,,,,,,,,,1,,,55,110
14400,note_on,0,0,3,,,,,,,,,2,,,67,110
14400,note_on,0,0,3,,,,,,,,,2,,,71,110
14400,note_on,32,0,5,,,,,,,,,3,,,43,110
14448,note_on,0,0,2,,,,,,,,,1,,,57,110
14448,note_on,48,0,2,,,,,,,,,1,,,55,0
14496,note_on,48,0,2,,,,,,,,,1,,,57,0
14496,note_on,0,0,2,,,,,,,,,1,,,59,110
14542,note_on,142,0,1,,,,,,,,,0,,,71,0
14544,note_on,2,0,1,,,,,,,,,0,,,69,110
14544,note_on,48,0,2,,,,,,,,,1,,,59,0
14544,note_on,0,0,2,,,,,,,,,1,,,60,110
14590,note_on,46,0,1,,,,,,,,,0,,,69,0
14592,note_on,48,0,2,,,,,,,,,1,,,60,0
14592,note_on,0,0,2,,,,,,,,,1,,,62,110
14592,note_on,2,0,1,,,,,,,,,0,,,67,110
14640,note_on,0,0,2,,,,,,,,,1,,,60,110
14640,note_on,48,0,2,,,,,,,,,1,,,62,0
14688,note_on,48,0,2,,,,,,,,,1,,,60,0
14688,note_on,0,0,2,,,,,,,,,1,,,59,110
14736,note_on,48,0,2,,,,,,,,,1,,,59,0
14736,note_on,0,0,2,,,,,,,,,1,,,57,110
14736,note_on,336,0,5,,,,,,,,,3,,,43,0
14736,note_on,336,0,3,,,,,,,,,2,,,62,0
14736,note_on,336,0,4,,,,,,,,,2,,,43,0
14736,note_on,0,0,3,,,,,,,,,2,,,71,0
14736,note_on,0,0,3,,,,,,,,,2,,,67,0
14752,note_on,160,0,1,,,,,,,,,0,,,67,0
14784,note_on,0,0,2,,,,,,,,,1,,,55,110
14784,note_on,48,0,2,,,,,,,,,1,,,57,0
14784,note_on,0,0,3,,,,,,,,,2,,,67,110
14784,note_on,48,0,4,,,,,,,,,2,,,47,110
14784,note_on,48,0,3,,,,,,,,,2,,,62,110
14784,note_on,32,0,1,,,,,,,,,0,,,79,110
14784,note_on,48,0,5,,,,,,,,,3,,,47,110
14832,note_on,0,0,2,,,,,,,,,1,,,54,110
14832,note_on,48,0,2,,,,,,,,,1,,,55,0
14880,note_on,48,0,2,,,,,,,,,1,,,54,0
14880,note_on,0,0,2,,,,,,,,,1,,,52,110
14928,note_on,48,0,2,,,,,,,,,1,,,52,0
14928,note_on,0,0,2,,,,,,,,,1,,,50,110
14944,note_on,160,0,1,,,,,,,,,0,,,79,0
14944,note_on,160,0,3,,,,,,,,,2,,,62,0
14944,note_on,160,0,5,,,,,,,,,3,,,47,0
14944,note_on,0,0,3,,,,,,,,,2,,,67,0
14944,note_on,160,0,4,,,,,,,,,2,,,47,0
14974,note_on,46,0,2,,,,,,,,,1,,,50,0
14976,note_on,32,0,5,,,,,,,,,3,,,48,110
14976,note_on,32,0,4,,,,,,,,,2,,,48,110
14976,note_on,2,0,2,,,,,,,,,1,,,48,110
14976,note_on,32,0,1,,,,,,,,,0,,,76,110
14976,note_on,0,0,3,,,,,,,,,2,,,67,110
14976,note_on,32,0,3,,,,,,,,,2,,,64,110
15024,note_on,48,0,2,,,,,,,,,1,,,48,0
15024,note_on,0,0,2,,,,,,,,,1,,,50,110
15072,note_on,48,0,2,,,,,,,,,1,,,50,0
15072,note_on,0,0,2,,,,,,,,,1,,,52,110
15118,note_on,142,0,1,,,,,,,,,0,,,76,0
15120,note_on,48,0,2,,,,,,,,,1,,,52,0
15120,note_on,2,0,1,,,,,,,,,0,,,74,110
15120,note_on,0,0,2,,,,,,,,,1,,,54,110
15136,note_on,160,0,3,,,,,,,,,2,,,67,0
15166,note_on,46,0,1,,,,,,,,,0,,,74,0
15168,note_on,32,0,3,,,,,,,,,2,,,72,110
15168,note_on,0,0,2,,,,,,,,,1,,,55,110
15168,note_on,2,0,1,,,,,,,,,0,,,72,110
15168,note_on,48,0,2,,,,,,,,,1,,,54,0
15216,note_on,48,0,2,,,,,,,,,1,,,55,0
15216,note_on,0,0,2,,,,,,,,,1,,,54,110
15264,note_on,0,0,2,,,,,,,,,1,,,52,110
15264,note_on,48,0,2,,,,,,,,,1,,,54,0
15312,note_on,48,0,2,,,,,,,,,1,,,52,0
15312,note_on,144,0,3,,,,,,,,,2,,,64,0
15312,note_on,0,0,2,,,,,,,,,1,,,50,110
15328,note_on,160,0,1,,,,,,,,,0,,,72,0
15328,note_on,16,0,3,,,,,,,,,2,,,72,0
15360,note_on,0,0,3,,,,,,,,,2,,,72,110
15360,note_on,48,0,2,,,,,,,,,1,,,50,0
15360,note_on,32,0,3,,,,,,,,,2,,,64,110
15360,note_on,32,0,1,,,,,,,,,0,,,81,110
15360,note_on,0,0,3,,,,,,,,,2,,,69,110
15360,note_on,0,0,2,,,,,,,,,1,,,48,110
15408,note_on,48,0,2,,,,,,,,,1,,,48,0
15408,note_on,0,0,2,,,,,,,,,1,,,50,110
15456,note_on,48,0,2,,,,,,,,,1,,,50,0
15456,note_on,0,0,2,,,,,,,,,1,,,52,110
15504,note_on,528,0,5,,,,,,,,,3,,,48,0
15504,note_on,528,0,4,,,,,,,,,2,,,48,0
15504,note_on,0,0,2,,,,,,,,,1,,,48,110
15504,note_on,48,0,2,,,,,,,,,1,,,52,0
15520,note_on,160,0,1,,,,,,,,,0,,,81,0
15520,note_on,0,0,3,,,,,,,,,2,,,72,0
15520,note_on,0,0,3,,,,,,,,,2,,,69,0
15520,note_on,160,0,3,,,,,,,,,2,,,64,0
15550,note_on,46,0,2,,,,,,,,,1,,,48,0
15552,note_on,32,0,1,,,,,,,,,0,,,78,110
15552,note_on,48,0,5,,,,,,,,,3,,,50,110
15552,note_on,48,0,4,,,,,,,,,2,,,50,110
15552,note_on,32,0,3,,,,,,,,,2,,,66,110
15552,note_on,0,0,3,,,,,,,,,2,,,69,110
15552,note_on,2,0,2,,,,,,,,,1,,,50,110
15600,note_on,48,0,2,,,,,,,,,1,,,50,0
15600,note_on,0,0,2,,,,,,,,,1,,,52,110
15648,note_on,48,0,2,,,,,,,,,1,,,52,0
15648,note_on,0,0,2,,,,,,,,,1,,,54,110
15694,note_on,142,0,1,,,,,,,,,0,,,78,0
15696,note_on,2,0,1,,,,,,,,,0,,,76,110
15696,note_on,48,0,2,,,,,,,,,1,,,54,0
15696,note_on,0,0,2,,,,,,,,,1,,,55,110
15712,note_on,160,0,3,,,,,,,,,2,,,69,0
15742,note_on,46,0,1,,,,,,,,,0,,,76,0
15744,note_on,48,0,2,,,,,,,,,1,,,55,0
15744,note_on,0,0,2,,,,,,,,,1,,,57,110
15744,note_on,2,0,1,,,,,,,,,0,,,74,110
15744,note_on,32,0,3,,,,,,,,,2,,,74,110
15792,note_on,48,0,2,,,,,,,,,1,,,57,0
15792,note_on,0,0,2,,,,,,,,,1,,,55,110
15840,note_on,48,0,2,,,,,,,,,1,,,55,0
15840,note_on,0,0,2,,,,,,,,,1,,,54,110
15888,note_on,144,0,3,,,,,,,,,2,,,66,0
15888,note_on,0,0,2,,,,,,,,,1,,,52,110
15888,note_on,48,0,2,,,,,,,,,1,,,54,0
15904,note_on,16,0,3,,,,,,,,,2,,,74,0
15904,note_on,160,0,1,,,,,,,,,0,,,74,0
15936,note_on,32,0,3,,,,,,,,,2,,,62,110
15936,note_on,0,0,3,,,,,,,,,2,,,72,110
15936,note_on,0,0,3,,,,,,,,,2,,,66,110
15936,note_on,48,0,2,,,,,,,,,1,,,52,0
15936,note_on,0,0,2,,,,,,,,,1,,,50,110
15936,note_on,32,0,1,,,,,,,,,0,,,78,110
15984,note_on,48,0,2,,,,,,,,,1,,,50,0
15984,note_on,0,0,2,,,,,,,,,1,,,48,110
16032,note_on,48,0,2,,,,,,,,,1,,,48,0
16032,note_on,0,0,2,,,,,,,,,1,,,47,110
16080,note_on,528,0,5,,,,,,,,,3,,,50,0
16080,note_on,48,0,2,,,,,,,,,1,,,47,0
16080,note_on,0,0,2,,,,,,,,,1,,,45,110
16080,note_on,528,0,4,,,,,,,,,2,,,50,0
16096,note_on,160,0,1,,,,,,,,,0,,,78,0
16096,note_on,160,0,3,,,,,,,,,2,,,62,0
16096,note_on,0,0,3,,,,,,,,,2,,,66,0
16096,note_on,0,0,3,,,,,,,,,2,,,72,0
16126,note_on,46,0,2,,,,,,,,,1,,,45,0
16128,note_on,48,0,5,,,,,,,,,3,,,43,110
16128,note_on,48,0,4,,,,,,,,,2,,,43,110
16128,note_on,0,0,3,,,,,,,,,2,,,71,110
16128,note_on,2,0,2,,,,,,,,,1,,,43,110
16128,note_on,32,0,1,,,,,,,,,0,,,79,110
16128,note_on,32,0,3,,,,,,,,,2,,,62,110
16176,note_on,0,0,2,,,,,,,,,1,,,45,110
16176,note_on,48,0,2,,,,,,,,,1,,,43,0
16222,note_on,94,0,3,,,,,,,,,2,,,62,0
16222,note_on,0,0,3,,,,,,,,,2,,,71,0
16224,note_on,0,0,3,,,,,,,,,2,,,67,110
16224,note_on,0,0,2,,,,,,,,,1,,,47,110
16224,note_on,2,0,3,,,,,,,,,2,,,59,110
16224,note_on,48,0,2,,,,,,,,,1,,,45,0
16270,note_on,142,0,1,,,,,,,,,0,,,79,0
16272,note_on,2,0,1,,,,,,,,,0,,,67,110
16272,note_on,48,0,2,,,,,,,,,1,,,47,0
16272,note_on,0,0,2,,,,,,,,,1,,,43,110
16288,note_on,160,0,4,,,,,,,,,2,,,43,0
16288,note_on,160,0,5,,,,,,,,,3,,,43,0
16318,note_on,46,0,2,,,,,,,,,1,,,43,0
16318,note_on,94,0,3,,,,,,,,,2,,,59,0
16318,note_on,46,0,1,,,,,,,,,0,,,67,0
16318,note_on,0,0,3,,,,,,,,,2,,,67,0
16320,note_on,0,0,3,,,,,,,,,2,,,67,110
16320,note_on,32,0,5,,,,,,,,,3,,,50,110
16320,note_on,32,0,4,,,,,,,,,2,,,50,110
16320,note_on,2,0,2,,,,,,,,,1,,,50,110
16320,note_on,2,0,3,,,,,,,,,2,,,57,110
16320,note_on,2,0,1,,,,,,,,,0,,,71,110
16344,note_on,24,0,1,,,,,,,,,0,,,71,0
16344,note_on,0,0,1,,,,,,,,,0,,,69,110
16414,note_on,94,0,3,,,,,,,,,2,,,67,0
16416,note_on,2,0,3,,,,,,,,,2,,,66,110
16462,note_on,46,0,3,,,,,,,,,2,,,66,0
16464,note_on,2,0,3,,,,,,,,,2,,,64,110
16480,note_on,160,0,2,,,,,,,,,1,,,50,0
16480,note_on,16,0,3,,,,,,,,,2,,,57,0
16480,note_on,160,0,4,,,,,,,,,2,,,50,0
16480,note_on,160,0,5,,,,,,,,,3,,,50,0
16510,note_on,30,0,3,,,,,,,,,2,,,64,0
16512,note_on,0,0,3,,,,,,,,,2,,,62,110
16512,note_on,0,0,3,,,,,,,,,2,,,66,110
16512,note_on,32,0,5,,,,,,,,,3,,,38,110
16512,note_on,32,0,4,,,,,,,,,2,,,38,110
16512,note_on,2,0,3,,,,,,,,,2,,,57,110
16512,note_on,32,0,2,,,,,,,,,1,,,38,110
16576,note_on,232,0,1,,,,,,,,,0,,,69,0
16608,note_on,32,0,1,,,,,,,,,0,,,67,110
16672,note_on,160,0,5,,,,,,,,,3,,,38,0
16672,note_on,160,0,2,,,,,,,,,1,,,38,0
16672,note_on,160,0,4,,,,,,,,,2,,,38,0
16672,note_on,160,0,3,,,,,,,,,2,,,57,0
16672,note_on,0,0,3,,,,,,,,,2,,,66,0
16672,note_on,0,0,3,,,,,,,,,2,,,62,0
16702,note_on,94,0,1,,,,,,,,,0,,,67,0
16704,note_on,32,0,2,,,,,,,,,1,,,43,110
16704,note_on,32,0,3,,,,,,,,,2,,,59,110
16704,note_on,32,0,4,,,,,,,,,2,,,43,110
16704,note_on,0,0,3,,,,,,,,,2,,,62,110
16704,note_on,2,0,1,,,,,,,,,0,,,67,110
16704,note_on,0,0,3,,,,,,,,,2,,,67,110
16704,note_on,32,0,5,,,,,,,,,3,,,43,110
17232,note_on,0,0,3,,,,,,,,,2,,,62,0
17232,note_on,528,0,3,,,,,,,,,2,,,59,0
17232,note_on,528,0,4,,,,,,,,,2,,,43,0
17232,note_on,528,0,5,,,,,,,,,3,,,43,0
17232,note_on,0,0,3,,,,,,,,,2,,,67,0
17232,note_on,528,0,1,,,,,,,,,0,,,67,0
17232,note_on,528,0,2,,,,,,,,,1,,,43,0
17280,note_on,48,0,1,,,,,,,,,0,,,62,110
17440,note_on,160,0,1,,,,,,,,,0,,,62,0
17472,note_on,32,0,1,,,,,,,,,0,,,74,110
17632,note_on,160,0,1,,,,,,,,,0,,,74,0
17664,note_on,32,0,1,,,,,,,,,0,,,74,110
17824,note_on,160,0,1,,,,,,,,,0,,,74,0
17856,note_on,624,0,2,,,,,,,,,1,,,45,110
17856,note_on,624,0,3,,,,,,,,,2,,,62,110
17856,note_on,0,0,3,,,,,,,,,2,,,64,110
17856,note_on,624,0,4,,,,,,,,,2,,,45,110
17856,note_on,624,0,5,,,,,,,,,3,,,45,110
17856,note_on,32,0,1,,,,,,,,,0,,,74,110
18016,note_on,0,0,3,,,,,,,,,2,,,64,0
18016,note_on,160,0,5,,,,,,,,,3,,,45,0
18016,note_on,160,0,1,,,,,,,,,0,,,74,0
18016,note_on,160,0,2,,,,,,,,,1,,,45,0
18016,note_on,160,0,4,,,,,,,,,2,,,45,0
18016,note_on,160,0,3,,,,,,,,,2,,,62,0
18048,note_on,32,0,2,,,,,,,,,1,,,57,110
18048,note_on,32,0,5,,,,,,,,,3,,,57,110
18048,note_on,0,0,3,,,,,,,,,2,,,69,110
18048,note_on,32,0,3,,,,,,,,,2,,,61,110
18048,note_on,32,0,1,,,,,,,,,0,,,73,110
18048,note_on,32,0,4,,,,,,,,,2,,,57,110
18208,note_on,0,0,3,,,,,,,,,2,,,69,0
18208,note_on,160,0,5,,,,,,,,,3,,,57,0
18208,note_on,160,0,3,,,,,,,,,2,,,61,0
18208,note_on,160,0,2,,,,,,,,,1,,,57,0
18208,note_on,160,0,4,,,,,,,,,2,,,57,0
18240,note_on,32,0,5,,,,,,,,,3,,,57,110
18240,note_on,32,0,3,,,,,,,,,2,,,64,110
18240,note_on,32,0,2,,,,,,,,,1,,,57,110
18240,note_on,32,0,4,,,,,,,,,2,,,57,110
18240,note_on,0,0,3,,,,,,,,,2,,,73,110
18384,note_on,336,0,1,,,,,,,,,0,,,73,0
18400,note_on,160,0,4,,,,,,,,,2,,,57,0
18400,note_on,160,0,5,,,,,,,,,3,,,57,0
18400,note_on,0,0,3,,,,,,,,,2,,,73,0
18400,note_on,160,0,2,,,,,,,,,1,,,57,0
18400,note_on,160,0,3,,,,,,,,,2,,,64,0
18432,note_on,32,0,5,,,,,,,,,3,,,57,110
18432,note_on,32,0,3,,,,,,,,,2,,,67,110
18432,note_on,0,0,3,,,,,,,,,2,,,76,110
18432,note_on,32,0,4,,,,,,,,,2,,,57,110
18432,note_on,32,0,2,,,,,,,,,1,,,57,110
18432,note_on,48,0,1,,,,,,,,,0,,,73,110
18480,note_on,48,0,1,,,,,,,,,0,,,73,0
18480,note_on,0,0,1,,,,,,,,,0,,,74,110
18528,note_on,48,0,1,,,,,,,,,0,,,74,0
18528,note_on,0,0,1,,,,,,,,,0,,,76,110
18576,note_on,48,0,1,,,,,,,,,0,,,76,0
18576,note_on,0,0,1,,,,,,,,,0,,,78,110
18592,note_on,160,0,3,,,,,,,,,2,,,67,0
18592,note_on,0,0,3,,,,,,,,,2,,,76,0
18624,note_on,48,0,1,,,,,,,,,0,,,78,0
18624,note_on,0,0,1,,,,,,,,,0,,,79,110
18624,note_on,0,0,3,,,,,,,,,2,,,73,110
18624,note_on,32,0,3,,,,,,,,,2,,,67,110
18672,note_on,48,0,1,,,,,,,,,0,,,79,0
18672,note_on,0,0,1,,,,,,,,,0,,,78,110
18720,note_on,0,0,1,,,,,,,,,0,,,76,110
18720,note_on,48,0,1,,,,,,,,,0,,,78,0
18768,note_on,336,0,4,,,,,,,,,2,,,57,0
18768,note_on,336,0,2,,,,,,,,,1,,,57,0
18768,note_on,48,0,1,,,,,,,,,0,,,76,0
18768,note_on,0,0,1,,,,,,,,,0,,,74,110
18768,note_on,336,0,5,,,,,,,,,3,,,57,0
18784,note_on,0,0,3,,,,,,,,,2,,,73,0
18784,note_on,160,0,3,,,,,,,,,2,,,67,0
18816,note_on,32,0,3,,,,,,,,,2,,,67,110
18816,note_on,0,0,1,,,,,,,,,0,,,73,110
18816,note_on,48,0,2,,,,,,,,,1,,,45,110
18816,note_on,48,0,4,,,,,,,,,2,,,45,110
18816,note_on,48,0,1,,,,,,,,,0,,,74,0
18816,note_on,48,0,5,,,,,,,,,3,,,45,110
18816,note_on,0,0,3,,,,,,,,,2,,,76,110
18864,note_on,0,0,1,,,,,,,,,0,,,71,110
18864,note_on,48,0,1,,,,,,,,,0,,,73,0
18912,note_on,0,0,1,,,,,,,,,0,,,69,110
18912,note_on,48,0,1,,,,,,,,,0,,,71,0
18960,note_on,48,0,1,,,,,,,,,0,,,69,0
18960,note_on,0,0,1,,,,,,,,,0,,,67,110
18976,note_on,0,0,3,,,,,,,,,2,,,76,0
18976,note_on,160,0,2,,,,,,,,,1,,,45,0
18976,note_on,160,0,4,,,,,,,,,2,,,45,0
18976,note_on,160,0,3,,,,,,,,,2,,,67,0
18976,note_on,160,0,5,,,,,,,,,3,,,45,0
19006,note_on,46,0,1,,,,,,,,,0,,,67,0
19008,note_on,2,0,1,,,,,,,,,0,,,67,110
19008,note_on,32,0,4,,,,,,,,,2,,,50,110
19008,note_on,32,0,2,,,,,,,,,1,,,50,110
19008,note_on,32,0,5,,,,,,,,,3,,,50,110
19008,note_on,32,0,3,,,,,,,,,2,,,67,110
19008,note_on,0,0,3,,,,,,,,,2,,,69,110
19056,note_on,0,0,2,,,,,,,,,1,,,52,110
19056,note_on,48,0,2,,,,,,,,,1,,,50,0
19104,note_on,0,0,2,,,,,,,,,1,,,54,110
19104,note_on,48,0,2,,,,,,,,,1,,,52,0
19152,note_on,48,0,2,,,,,,,,,1,,,54,0
19152,note_on,0,0,2,,,,,,,,,1,,,55,110
19168,note_on,0,0,3,,,,,,,,,2,,,69,0
19168,note_on,160,0,3,,,,,,,,,2,,,67,0
19168,note_on,160,0,1,,,,,,,,,0,,,67,0
19200,note_on,32,0,3,,,,,,,,,2,,,66,110
19200,note_on,0,0,3,,,,,,,,,2,,,74,110
19200,note_on,48,0,2,,,,,,,,,1,,,55,0
19200,note_on,0,0,2,,,,,,,,,1,,,57,110
19200,note_on,32,0,1,,,,,,,,,0,,,66,110
19248,note_on,48,0,2,,,,,,,,,1,,,57,0
19248,note_on,0,0,2,,,,,,,,,1,,,55,110
19296,note_on,48,0,2,,,,,,,,,1,,,55,0
19296,note_on,0,0,2,,,,,,,,,1,,,54,110
19344,note_on,48,0,2,,,,,,,,,1,,,54,0
19344,note_on,0,0,2,,,,,,,,,1,,,52,110
19360,note_on,160,0,1,,,,,,,,,0,,,66,0
19360,note_on,160,0,3,,,,,,,,,2,,,66,0
19360,note_on,0,0,3,,,,,,,,,2,,,74,0
19390,note_on,46,0,2,,,,,,,,,1,,,52,0
19392,note_on,32,0,1,,,,,,,,,0,,,78,110
19392,note_on,32,0,3,,,,,,,,,2,,,66,110
19392,note_on,0,0,3,,,,,,,,,2,,,74,110
19392,note_on,2,0,2,,,,,,,,,1,,,50,110
19440,note_on,48,0,2,,,,,,,,,1,,,50,0
19440,note_on,0,0,2,,,,,,,,,1,,,52,110
19488,note_on,0,0,2,,,,,,,,,1,,,54,110
19488,note_on,48,0,2,,,,,,,,,1,,,52,0
19536,note_on,0,0,2,,,,,,,,,1,,,50,110
19536,note_on,48,0,2,,,,,,,,,1,,,54,0
19536,note_on,528,0,4,,,,,,,,,2,,,50,0
19536,note_on,528,0,5,,,,,,,,,3,,,50,0
19552,note_on,160,0,1,,,,,,,,,0,,,78,0
19552,note_on,0,0,3,,,,,,,,,2,,,74,0
19552,note_on,160,0,3,,,,,,,,,2,,,66,0
19582,note_on,46,0,2,,,,,,,,,1,,,50,0
19584,note_on,48,0,4,,,,,,,,,2,,,52,110
19584,note_on,32,0,1,,,,,,,,,0,,,71,110
19584,note_on,0,0,3,,,,,,,,,2,,,71,110
19584,note_on,2,0,2,,,,,,,,,1,,,52,110
19584,note_on,48,0,5,,,,,,,,,3,,,52,110
19584,note_on,32,0,3,,,,,,,,,2,,,69,110
19632,note_on,48,0,2,,,,,,,,,1,,,52,0
19632,note_on,0,0,2,,,,,,,,,1,,,54,110
19680,note_on,0,0,2,,,,,,,,,1,,,55,110
19680,note_on,48,0,2,,,,,,,,,1,,,54,0
19728,note_on,0,0,2,,,,,,,,,1,,,57,110
19728,note_on,48,0,2,,,,,,,,,1,,,55,0
19744,note_on,160,0,1,,,,,,,,,0,,,71,0
19744,note_on,0,0,3,,,,,,,,,2,,,71,0
19744,note_on,160,0,3,,,,,,,,,2,,,69,0
19776,note_on,0,0,3,,,,,,,,,2,,,76,110
19776,note_on,32,0,3,,,,,,,,,2,,,67,110
19776,note_on,32,0,1,,,,,,,,,0,,,76,110
19776,note_on,0,0,2,,,,,,,,,1,,,59,110
19776,note_on,48,0,2,,,,,,,,,1,,,57,0
19824,note_on,0,0,2,,,,,,,,,1,,,57,110
19824,note_on,48,0,2,,,,,,,,,1,,,59,0
19872,note_on,48,0,2,,,,,,,,,1,,,57,0
19872,note_on,0,0,2,,,,,,,,,1,,,55,110
19920,note_on,0,0,2,,,,,,,,,1,,,54,110
19920,note_on,48,0,2,,,,,,,,,1,,,55,0
19936,note_on,160,0,1,,,,,,,,,0,,,76,0
19936,note_on,0,0,3,,,,,,,,,2,,,76,0
19936,note_on,160,0,3,,,,,,,,,2,,,67,0
19966,note_on,46,0,2,,,,,,,,,1,,,54,0
19968,note_on,32,0,1,,,,,,,,,0,,,79,110
19968,note_on,32,0,3,,,,,,,,,2,,,67,110
19968,note_on,0,0,3,,,,,,,,,2,,,76,110
19968,note_on,2,0,2,,,,,,,,,1,,,52,110
20016,note_on,0,0,2,,,,,,,,,1,,,54,110
20016,note_on,48,0,2,,,,,,,,,1,,,52,0
20064,note_on,0,0,2,,,,,,,,,1,,,55,110
20064,note_on,48,0,2,,,,,,,,,1,,,54,0
20112,note_on,0,0,2,,,,,,,,,1,,,52,110
20112,note_on,528,0,5,,,,,,,,,3,,,52,0
20112,note_on,528,0,4,,,,,,,,,2,,,52,0
20112,note_on,48,0,2,,,,,,,,,1,,,55,0
20128,note_on,0,0,3,,,,,,,,,2,,,76,0
20128,note_on,160,0,1,,,,,,,,,0,,,79,0
20128,note_on,160,0,3,,,,,,,,,2,,,67,0
20158,note_on,46,0,2,,,,,,,,,1,,,52,0
20160,note_on,48,0,4,,,,,,,,,2,,,54,110
20160,note_on,2,0,2,,,,,,,,,1,,,54,110
20160,note_on,32,0,1,,,,,,,,,0,,,70,110
20160,note_on,48,0,5,,,,,,,,,3,,,54,110
20160,note_on,32,0,3,,,,,,,,,2,,,64,110
20160,note_on,0,0,3,,,,,,,,,2,,,70,110
20208,note_on,48,0,2,,,,,,,,,1,,,54,0
20208,note_on,0,0,2,,,,,,,,,1,,,52,110
20256,note_on,48,0,2,,,,,,,,,1,,,52,0
20256,note_on,0,0,2,,,,,,,,,1,,,54,110
20304,note_on,48,0,2,,,,,,,,,1,,,54,0
20304,note_on,0,0,2,,,,,,,,,1,,,55,110
20320,note_on,160,0,3,,,,,,,,,2,,,64,0
20320,note_on,0,0,3,,,,,,,,,2,,,70,0
20352,note_on,48,0,2,,,,,,,,,1,,,55,0
20352,note_on,0,0,2,,,,,,,,,1,,,54,110
20352,note_on,0,0,3,,,,,,,,,2,,,73,110
20352,note_on,32,0,3,,,,,,,,,2,,,64,110
20400,note_on,48,0,2,,,,,,,,,1,,,54,0
20400,note_on,0,0,2,,,,,,,,,1,,,52,110
20416,note_on,256,0,1,,,,,,,,,0,,,70,0
20448,note_on,48,0,2,,,,,,,,,1,,,52,0
20448,note_on,0,0,2,,,,,,,,,1,,,50,110
20448,note_on,32,0,1,,,,,,,,,0,,,66,110
20496,note_on,336,0,4,,,,,,,,,2,,,54,0
20496,note_on,48,0,2,,,,,,,,,1,,,50,0
20496,note_on,0,0,2,,,,,,,,,1,,,49,110
20496,note_on,336,0,5,,,,,,,,,3,,,54,0
20512,note_on,0,0,3,,,,,,,,,2,,,73,0
20512,note_on,160,0,3,,,,,,,,,2,,,64,0
20542,note_on,94,0,1,,,,,,,,,0,,,66,0
20542,note_on,46,0,2,,,,,,,,,1,,,49,0
20544,note_on,48,0,5,,,,,,,,,3,,,50,110
20544,note_on,0,0,3,,,,,,,,,2,,,71,110
20544,note_on,32,0,3,,,,,,,,,2,,,66,110
20544,note_on,48,0,4,,,,,,,,,2,,,50,110
20544,note_on,2,0,1,,,,,,,,,0,,,71,110
20544,note_on,2,0,2,,,,,,,,,1,,,50,110
20592,note_on,48,0,2,,,,,,,,,1,,,50,0
20592,note_on,0,0,2,,,,,,,,,1,,,49,110
20640,note_on,48,0,2,,,,,,,,,1,,,49,0
20640,note_on,0,0,2,,,,,,,,,1,,,50,110
20688,note_on,48,0,2,,,,,,,,,1,,,50,0
20688,note_on,0,0,2,,,,,,,,,1,,,47,110
20704,note_on,160,0,4,,,,,,,,,2,,,50,0
20704,note_on,0,0,3,,,,,,,,,2,,,71,0
20704,note_on,160,0,5,,,,,,,,,3,,,50,0
20704,note_on,160,0,3,,,,,,,,,2,,,66,0
20734,note_on,46,0,2,,,,,,,,,1,,,47,0
20736,note_on,2,0,2,,,,,,,,,1,,,55,110
20736,note_on,0,0,3,,,,,,,,,2,,,71,110
20736,note_on,32,0,5,,,,,,,,,3,,,55,110
20736,note_on,32,0,4,,,,,,,,,2,,,55,110
20736,note_on,32,0,3,,,,,,,,,2,,,64,110
20784,note_on,0,0,2,,,,,,,,,1,,,54,110
20784,note_on,48,0,2,,,,,,,,,1,,,55,0
20830,note_on,94,0,3,,,,,,,,,2,,,71,0
20830,note_on,286,0,1,,,,,,,,,0,,,71,0
20832,note_on,2,0,1,,,,,,,,,0,,,76,110
20832,note_on,0,0,2,,,,,,,,,1,,,55,110
20832,note_on,48,0,2,,,,,,,,,1,,,54,0
20832,note_on,2,0,3,,,,,,,,,2,,,73,110
20880,note_on,48,0,2,,,,,,,,,1,,,55,0
20880,note_on,0,0,2,,,,,,,,,1,,,52,110
20896,note_on,64,0,3,,,,,,,,,2,,,64,0
20896,note_on,160,0,5,,,,,,,,,3,,,55,0
20896,note_on,160,0,4,,,,,,,,,2,,,55,0
20926,note_on,94,0,1,,,,,,,,,0,,,76,0
20926,note_on,30,0,3,,,,,,,,,2,,,73,0
20926,note_on,46,0,2,,,,,,,,,1,,,52,0
20928,note_on,0,0,3,,,,,,,,,2,,,71,110
20928,note_on,2,0,3,,,,,,,,,2,,,62,110
20928,note_on,32,0,5,,,,,,,,,3,,,54,110
20928,note_on,2,0,2,,,,,,,,,1,,,54,110
20928,note_on,32,0,4,,,,,,,,,2,,,54,110
20928,note_on,2,0,1,,,,,,,,,0,,,74,110
21022,note_on,94,0,3,,,,,,,,,2,,,71,0
21024,note_on,2,0,3,,,,,,,,,2,,,70,110
21070,note_on,46,0,3,,,,,,,,,2,,,70,0
21072,note_on,2,0,3,,,,,,,,,2,,,68,110
21088,note_on,160,0,4,,,,,,,,,2,,,54,0
21088,note_on,160,0,2,,,,,,,,,1,,,54,0
21088,note_on,16,0,3,,,,,,,,,2,,,62,0
21088,note_on,160,0,5,,,,,,,,,3,,,54,0
21118,note_on,30,0,3,,,,,,,,,2,,,68,0
21120,note_on,32,0,4,,,,,,,,,2,,,42,110
21120,note_on,32,0,2,,,,,,,,,1,,,42,110
21120,note_on,2,0,3,,,,,,,,,2,,,61,110
21120,note_on,32,0,5,,,,,,,,,3,,,42,110
21120,note_on,0,0,3,,,,,,,,,2,,,70,110
21216,note_on,0,0,1,,,,,,,,,0,,,73,110
21216,note_on,288,0,1,,,,,,,,,0,,,74,0
21262,note_on,46,0,1,,,,,,,,,0,,,73,0
21264,note_on,2,0,1,,,,,,,,,0,,,71,110
21280,note_on,160,0,4,,,,,,,,,2,,,42,0
21280,note_on,160,0,2,,,,,,,,,1,,,42,0
21280,note_on,160,0,3,,,,,,,,,2,,,61,0
21280,note_on,0,0,3,,,,,,,,,2,,,70,0
21280,note_on,160,0,5,,,,,,,,,3,,,42,0
21310,note_on,46,0,1,,,,,,,,,0,,,71,0
21312,note_on,32,0,2,,,,,,,,,1,,,47,110
21312,note_on,0,0,3,,,,,,,,,2,,,66,110
21312,note_on,32,0,3,,,,,,,,,2,,,62,110
21312,note_on,32,0,4,,,,,,,,,2,,,47,110
21312,note_on,32,0,5,,,,,,,,,3,,,47,110
21312,note_on,2,0,1,,,,,,,,,0,,,71,110
21312,note_on,0,0,3,,,,,,,,,2,,,71,110
21472,note_on,0,0,3,,,,,,,,,2,,,66,0
21472,note_on,0,0,3,,,,,,,,,2,,,71,0
21472,note_on,160,0,3,,,,,,,,,2,,,62,0
21472,note_on,160,0,2,,,,,,,,,1,,,47,0
21472,note_on,160,0,4,,,,,,,,,2,,,47,0
21472,note_on,160,0,5,,,,,,,,,3,,,47,0
21472,note_on,160,0,1,,,,,,,,,0,,,71,0
21504,note_on,32,0,1,,,,,,,,,0,,,67,110
21664,note_on,160,0,1,,,,,,,,,0,,,67,0
21696,note_on,32,0,1,,,,,,,,,0,,,76,110
21856,note_on,160,0,1,,,,,,,,,0,,,76,0
21888,note_on,32,0,1,,,,,,,,,0,,,76,110
22048,note_on,160,0,1,,,,,,,,,0,,,76,0
22080,note_on,0,0,3,,,,,,,,,2,,,71,110
22080,note_on,608,0,3,,,,,,,,,2,,,62,110
22080,note_on,32,0,1,,,,,,,,,0,,,74,110
22080,note_on,608,0,5,,,,,,,,,3,,,43,110
22080,note_on,608,0,2,,,,,,,,,1,,,43,110
22080,note_on,608,0,4,,,,,,,,,2,,,43,110
22240,note_on,160,0,5,,,,,,,,,3,,,43,0
22240,note_on,160,0,2,,,,,,,,,1,,,43,0
22240,note_on,160,0,3,,,,,,,,,2,,,71,0
22240,note_on,160,0,4,,,,,,,,,2,,,43,0
22272,note_on,32,0,5,,,,,,,,,3,,,55,110
22272,note_on,32,0,4,,,,,,,,,2,,,55,110
22272,note_on,32,0,3,,,,,,,,,2,,,69,110
22272,note_on,32,0,2,,,,,,,,,1,,,55,110
22366,note_on,94,0,3,,,,,,,,,2,,,69,0
22368,note_on,2,0,3,,,,,,,,,2,,,67,110
22416,note_on,48,0,3,,,,,,,,,2,,,62,0
22416,note_on,336,0,1,,,,,,,,,0,,,74,0
22432,note_on,160,0,4,,,,,,,,,2,,,55,0
22432,note_on,160,0,2,,,,,,,,,1,,,55,0
22432,note_on,160,0,5,,,,,,,,,3,,,55,0
22462,note_on,46,0,3,,,,,,,,,2,,,67,0
22464,note_on,32,0,4,,,,,,,,,2,,,43,110
22464,note_on,0,0,3,,,,,,,,,2,,,71,110
22464,note_on,0,0,3,,,,,,,,,2,,,67,110
22464,note_on,48,0,1,,,,,,,,,0,,,71,110
22464,note_on,32,0,5,,,,,,,,,3,,,43,110
22464,note_on,2,0,3,,,,,,,,,2,,,62,110
22464,note_on,32,0,2,,,,,,,,,1,,,55,110
22512,note_on,48,0,2,,,,,,,,,1,,,55,0
22512,note_on,0,0,2,,,,,,,,,1,,,57,110
22560,note_on,0,0,2,,,,,,,,,1,,,59,110
22560,note_on,48,0,2,,,,,,,,,1,,,57,0
22606,note_on,142,0,1,,,,,,,,,0,,,71,0
22608,note_on,48,0,2,,,,,,,,,1,,,59,0
22608,note_on,2,0,1,,,,,,,,,0,,,69,110
22608,note_on,0,0,2,,,,,,,,,1,,,60,110
22654,note_on,46,0,1,,,,,,,,,0,,,69,0
22656,note_on,2,0,1,,,,,,,,,0,,,67,110
22656,note_on,48,0,2,,,,,,,,,1,,,60,0
22656,note_on,0,0,2,,,,,,,,,1,,,62,110
22704,note_on,0,0,2,,,,,,,,,1,,,60,110
22704,note_on,48,0,2,,,,,,,,,1,,,62,0
22752,note_on,0,0,2,,,,,,,,,1,,,59,110
22752,note_on,48,0,2,,,,,,,,,1,,,60,0
22800,note_on,0,0,2,,,,,,,,,1,,,57,110
22800,note_on,336,0,4,,,,,,,,,2,,,43,0
22800,note_on,48,0,2,,,,,,,,,1,,,59,0
22800,note_on,0,0,3,,,,,,,,,2,,,67,0
22800,note_on,336,0,5,,,,,,,,,3,,,43,0
22800,note_on,336,0,3,,,,,,,,,2,,,62,0
22800,note_on,0,0,3,,,,,,,,,2,,,71,0
22816,note_on,160,0,1,,,,,,,,,0,,,67,0
22848,note_on,0,0,3,,,,,,,,,2,,,67,110
22848,note_on,48,0,5,,,,,,,,,3,,,47,110
22848,note_on,48,0,4,,,,,,,,,2,,,47,110
22848,note_on,48,0,3,,,,,,,,,2,,,62,110
22848,note_on,32,0,1,,,,,,,,,0,,,79,110
22848,note_on,48,0,2,,,,,,,,,1,,,57,0
22848,note_on,0,0,2,,,,,,,,,1,,,55,110
22896,note_on,48,0,2,,,,,,,,,1,,,55,0
22896,note_on,0,0,2,,,,,,,,,1,,,54,110
22944,note_on,0,0,2,,,,,,,,,1,,,52,110
22944,note_on,48,0,2,,,,,,,,,1,,,54,0
22992,note_on,48,0,2,,,,,,,,,1,,,52,0
22992,note_on,0,0,2,,,,,,,,,1,,,50,110
23008,note_on,160,0,5,,,,,,,,,3,,,47,0
23008,note_on,0,0,3,,,,,,,,,2,,,67,0
23008,note_on,160,0,3,,,,,,,,,2,,,62,0
23008,note_on,160,0,1,,,,,,,,,0,,,79,0
23008,note_on,160,0,4,,,,,,,,,2,,,47,0
23038,note_on,46,0,2,,,,,,,,,1,,,50,0
23040,note_on,2,0,2,,,,,,,,,1,,,48,110
23040,note_on,0,0,3,,,,,,,,,2,,,67,110
23040,note_on,32,0,5,,,,,,,,,3,,,48,110
23040,note_on,32,0,3,,,,,,,,,2,,,64,110
23040,note_on,32,0,4,,,,,,,,,2,,,48,110
23040,note_on,32,0,1,,,,,,,,,0,,,76,110
23088,note_on,48,0,2,,,,,,,,,1,,,48,0
23088,note_on,0,0,2,,,,,,,,,1,,,50,110
23136,note_on,48,0,2,,,,,,,,,1,,,50,0
23136,note_on,0,0,2,,,,,,,,,1,,,52,110
23182,note_on,142,0,1,,,,,,,,,0,,,76,0
23184,note_on,0,0,2,,,,,,,,,1,,,54,110
23184,note_on,48,0,2,,,,,,,,,1,,,52,0
23184,note_on,2,0,1,,,,,,,,,0,,,74,110
23200,note_on,160,0,3,,,,,,,,,2,,,67,0
23230,note_on,46,0,1,,,,,,,,,0,,,74,0
23232,note_on,2,0,1,,,,,,,,,0,,,72,110
23232,note_on,48,0,2,,,,,,,,,1,,,54,0
23232,note_on,32,0,3,,,,,,,,,2,,,72,110
23232,note_on,0,0,2,,,,,,,,,1,,,55,110
23280,note_on,0,0,2,,,,,,,,,1,,,54,110
23280,note_on,48,0,2,,,,,,,,,1,,,55,0
23328,note_on,48,0,2,,,,,,,,,1,,,54,0
23328,note_on,0,0,2,,,,,,,,,1,,,52,110
23376,note_on,0,0,2,,,,,,,,,1,,,50,110
23376,note_on,48,0,2,,,,,,,,,1,,,52,0
23376,note_on,144,0,3,,,,,,,,,2,,,64,0
23392,note_on,160,0,1,,,,,,,,,0,,,72,0
23392,note_on,16,0,3,,,,,,,,,2,,,72,0
23424,note_on,32,0,3,,,,,,,,,2,,,64,110
23424,note_on,0,0,2,,,,,,,,,1,,,48,110
23424,note_on,32,0,1,,,,,,,,,0,,,81,110
23424,note_on,48,0,2,,,,,,,,,1,,,50,0
23424,note_on,0,0,3,,,,,,,,,2,,,72,110
23424,note_on,0,0,3,,,,,,,,,2,,,69,110
23472,note_on,48,0,2,,,,,,,,,1,,,48,0
23472,note_on,0,0,2,,,,,,,,,1,,,50,110
23520,note_on,0,0,2,,,,,,,,,1,,,52,110
23520,note_on,48,0,2,,,,,,,,,1,,,50,0
23568,note_on,0,0,2,,,,,,,,,1,,,48,110
23568,note_on,528,0,5,,,,,,,,,3,,,48,0
23568,note_on,48,0,2,,,,,,,,,1,,,52,0
23568,note_on,528,0,4,,,,,,,,,2,,,48,0
23584,note_on,160,0,3,,,,,,,,,2,,,64,0
23584,note_on,160,0,1,,,,,,,,,0,,,81,0
23584,note_on,0,0,3,,,,,,,,,2,,,72,0
23584,note_on,0,0,3,,,,,,,,,2,,,69,0
23614,note_on,46,0,2,,,,,,,,,1,,,48,0
23616,note_on,32,0,1,,,,,,,,,0,,,78,110
23616,note_on,32,0,3,,,,,,,,,2,,,66,110
23616,note_on,48,0,5,,,,,,,,,3,,,50,110
23616,note_on,2,0,2,,,,,,,,,1,,,50,110
23616,note_on,48,0,4,,,,,,,,,2,,,50,110
23616,note_on,0,0,3,,,,,,,,,2,,,69,110
23664,note_on,48,0,2,,,,,,,,,1,,,50,0
23664,note_on,0,0,2,,,,,,,,,1,,,52,110
23712,note_on,48,0,2,,,,,,,,,1,,,52,0
23712,note_on,0,0,2,,,,,,,,,1,,,54,110
23758,note_on,142,0,1,,,,,,,,,0,,,78,0
23760,note_on,0,0,2,,,,,,,,,1,,,55,110
23760,note_on,2,0,1,,,,,,,,,0,,,76,110
23760,note_on,48,0,2,,,,,,,,,1,,,54,0
23776,note_on,160,0,3,,,,,,,,,2,,,69,0
23806,note_on,46,0,1,,,,,,,,,0,,,76,0
23808,note_on,0,0,2,,,,,,,,,1,,,57,110
23808,note_on,32,0,3,,,,,,,,,2,,,74,110
23808,note_on,2,0,1,,,,,,,,,0,,,74,110
23808,note_on,48,0,2,,,,,,,,,1,,,55,0
23856,note_on,0,0,2,,,,,,,,,1,,,55,110
23856,note_on,48,0,2,,,,,,,,,1,,,57,0
23904,note_on,0,0,2,,,,,,,,,1,,,54,110
23904,note_on,48,0,2,,,,,,,,,1,,,55,0
23952,note_on,0,0,2,,,,,,,,,1,,,52,110
23952,note_on,48,0,2,,,,,,,,,1,,,54,0
23952,note_on,144,0,3,,,,,,,,,2,,,66,0
23968,note_on,160,0,1,,,,,,,,,0,,,74,0
23968,note_on,16,0,3,,,,,,,,,2,,,74,0
24000,note_on,32,0,1,,,,,,,,,0,,,78,110
24000,note_on,32,0,3,,,,,,,,,2,,,62,110
24000,note_on,0,0,3,,,,,,,,,2,,,66,110
24000,note_on,0,0,3,,,,,,,,,2,,,72,110
24000,note_on,48,0,2,,,,,,,,,1,,,52,0
24000,note_on,0,0,2,,,,,,,,,1,,,50,110
24048,note_on,0,0,2,,,,,,,,,1,,,48,110
24048,note_on,48,0,2,,,,,,,,,1,,,50,0
24096,note_on,0,0,2,,,,,,,,,1,,,47,110
24096,note_on,48,0,2,,,,,,,,,1,,,48,0
24144,note_on,528,0,4,,,,,,,,,2,,,50,0
24144,note_on,48,0,2,,,,,,,,,1,,,47,0
24144,note_on,528,0,5,,,,,,,,,3,,,50,0
24144,note_on,0,0,2,,,,,,,,,1,,,45,110
24160,note_on,0,0,3,,,,,,,,,2,,,66,0
24160,note_on,160,0,1,,,,,,,,,0,,,78,0
24160,note_on,160,0,3,,,,,,,,,2,,,62,0
24160,note_on,0,0,3,,,,,,,,,2,,,72,0
24190,note_on,46,0,2,,,,,,,,,1,,,45,0
24192,note_on,32,0,1,,,,,,,,,0,,,79,110
24192,note_on,2,0,2,,,,,,,,,1,,,43,110
24192,note_on,48,0,4,,,,,,,,,2,,,43,110
24192,note_on,48,0,5,,,,,,,,,3,,,43,110
24192,note_on,0,0,3,,,,,,,,,2,,,71,110
24192,note_on,32,0,3,,,,,,,,,2,,,62,110
24240,note_on,48,0,2,,,,,,,,,1,,,43,0
24240,note_on,0,0,2,,,,,,,,,1,,,45,110
24286,note_on,0,0,3,,,,,,,,,2,,,71,0
24286,note_on,94,0,3,,,,,,,,,2,,,62,0
24288,note_on,48,0,2,,,,,,,,,1,,,45,0
24288,note_on,0,0,2,,,,,,,,,1,,,47,110
24288,note_on,0,0,3,,,,,,,,,2,,,67,110
24288,note_on,2,0,3,,,,,,,,,2,,,59,110
24334,note_on,142,0,1,,,,,,,,,0,,,79,0
24336,note_on,2,0,1,,,,,,,,,0,,,67,110
24336,note_on,0,0,2,,,,,,,,,1,,,43,110
24336,note_on,48,0,2,,,,,,,,,1,,,47,0
24352,note_on,160,0,5,,,,,,,,,3,,,43,0
24352,note_on,160,0,4,,,,,,,,,2,,,43,0
24382,note_on,94,0,3,,,,,,,,,2,,,59,0
24382,note_on,0,0,3,,,,,,,,,2,,,67,0
24382,note_on,46,0,1,,,,,,,,,0,,,67,0
24382,note_on,46,0,2,,,,,,,,,1,,,43,0
24384,note_on,32,0,5,,,,,,,,,3,,,50,110
24384,note_on,2,0,1,,,,,,,,,0,,,71,110
24384,note_on,32,0,4,,,,,,,,,2,,,50,110
24384,note_on,2,0,3,,,,,,,,,2,,,57,110
24384,note_on,0,0,3,,,,,,,,,2,,,67,110
24384,note_on,2,0,2,,,,,,,,,1,,,50,110
24408,note_on,0,0,1,,,,,,,,,0,,,69,110
24408,note_on,24,0,1,,,,,,,,,0,,,71,0
24478,note_on,94,0,3,,,,,,,,,2,,,67,0
24480,note_on,2,0,3,,,,,,,,,2,,,66,110
24526,note_on,46,0,3,,,,,,,,,2,,,66,0
24528,note_on,2,0,3,,,,,,,,,2,,,64,110
24544,note_on,160,0,2,,,,,,,,,1,,,50,0
24544,note_on,160,0,4,,,,,,,,,2,,,50,0
24544,note_on,160,0,5,,,,,,,,,3,,,50,0
24544,note_on,16,0,3,,,,,,,,,2,,,57,0
24574,note_on,30,0,3,,,,,,,,,2,,,64,0
24576,note_on,32,0,5,,,,,,,,,3,,,38,110
24576,note_on,32,0,4,,,,,,,,,2,,,38,110
24576,note_on,0,0,3,,,,,,,,,2,,,62,110
24576,note_on,0,0,3,,,,,,,,,2,,,66,110
24576,note_on,2,0,3,,,,,,,,,2,,,57,110
24576,note_on,32,0,2,,,,,,,,,1,,,38,110
24640,note_on,232,0,1,,,,,,,,,0,,,69,0
24672,note_on,32,0,1,,,,,,,,,0,,,67,110
24736,note_on,160,0,4,,,,,,,,,2,,,38,0
24736,note_on,0,0,3,,,,,,,,,2,,,66,0
24736,note_on,0,0,3,,,,,,,,,2,,,62,0
24736,note_on,160,0,3,,,,,,,,,2,,,57,0
24736,note_on,160,0,5,,,,,,,,,3,,,38,0
24736,note_on,160,0,2,,,,,,,,,1,,,38,0
24766,note_on,94,0,1,,,,,,,,,0,,,67,0
24768,note_on,32,0,4,,,,,,,,,2,,,43,110
24768,note_on,32,0,2,,,,,,,,,1,,,43,110
24768,note_on,32,0,5,,,,,,,,,3,,,43,110
24768,note_on,0,0,3,,,,,,,,,2,,,62,110
24768,note_on,2,0,1,,,,,,,,,0,,,67,110
24768,note_on,32,0,3,,,,,,,,,2,,,59,110
24768,note_on,0,0,3,,,,,,,,,2,,,67,110
25296,note_on,528,0,4,,,,,,,,,2,,,43,0
25296,end_of_track,0,1,1,,,,,,,,,,,,,
25296,note_on,528,0,5,,,,,,,,,3,,,43,0
25296,end_of_track,0,1,4,,,,,,,,,,,,,
25296,note_on,528,0,2,,,,,,,,,1,,,43,0
25296,end_of_track,0,1,2,,,,,,,,,,,,,
25296,note_on,528,0,3,,,,,,,,,2,,,59,0
25296,note_on,0,0,3,,,,,,,,,2,,,62,0
25296,note_on,0,0,3,,,,,,,,,2,,,67,0
25296,end_of_track,0,1,3,,,,,,,,,,,,,
25296,note_on,528,0,1,,,,,,,,,0,,,67,0
25296,end_of_track,0,1,5,,,,,,,,,,,,,
