tick,type,time,meta,track,tempo,key,numerator,denominator,clocks_per_click,notated_32nd_notes_per_beat,port,program,channel,control,value,note,velocity
0,track_name,0,1,0,,,,,,,,,,,,,
0,program_change,0,0,4,,,,,,,,48,4,,,,
0,program_change,0,0,4,,,,,,,,48,4,,,,
0,track_name,0,1,4,,,,,,,,,,,,,
0,midi_port,0,1,4,,,,,,,0,,,,,,
0,time_signature,0,1,3,,,2,4,24,8,,,,,,,
0,control_change,0,0,3,,,,,,,,,2,10,127,,
0,key_signature,0,1,3,,Bb,,,,,,,,,,,
0,control_change,0,0,3,,,,,,,,,2,10,64,,
0,control_change,0,0,3,,,,,,,,,2,7,127,,
0,program_change,0,0,3,,,,,,,,48,2,,,,
0,program_change,0,0,3,,,,,,,,48,2,,,,
0,track_name,0,1,3,,,,,,,,,,,,,
0,midi_port,0,1,3,,,,,,,0,,,,,,
0,time_signature,0,1,7,,,2,4,24,8,,,,,,,
0,time_signature,0,1,2,,,2,4,24,8,,,,,,,
0,control_change,0,0,2,,,,,,,,,0,10,0,,
0,key_signature,0,1,2,,Bb,,,,,,,,,,,
0,control_change,0,0,2,,,,,,,,,0,10,64,,
0,control_change,0,0,2,,,,,,,,,0,7,127,,
0,program_change,0,0,2,,,,,,,,48,0,,,,
0,program_change,0,0,2,,,,,,,,48,0,,,,
0,control_change,0,0,4,,,,,,,,,4,7,127,,
0,track_name,0,1,2,,,,,,,,,,,,,
0,control_change,0,0,4,,,,,,,,,4,10,64,,
0,time_signature,0,1,4,,,2,4,24,8,,,,,,,
0,key_signature,0,1,7,,Bb,,,,,,,,,,,
0,control_change,0,0,7,,,,,,,,,0,10,64,,
0,control_change,0,0,7,,,,,,,,,0,7,127,,
0,track_name,0,1,7,,,,,,,,,,,,,
0,midi_port,0,1,7,,,,,,,0,,,,,,
0,time_signature,0,1,6,,,2,4,24,8,,,,,,,
0,key_signature,0,1,6,,Bb,,,,,,,,,,,
0,control_change,0,0,6,,,,,,,,,8,10,64,,
0,control_change,0,0,6,,,,,,,,,8,7,127,,
0,program_change,0,0,6,,,,,,,,48,8,,,,
0,program_change,0,0,6,,,,,,,,48,8,,,,
0,track_name,0,1,6,,,,,,,,,,,,,
0,midi_port,0,1,6,,,,,,,0,,,,,,
0,time_signature,0,1,5,,,2,4,24,8,,,,,,,
0,key_signature,0,1,5,,Bb,,,,,,,,,,,
0,control_change,0,0,5,,,,,,,,,6,10,64,,
0,control_change,0,0,5,,,,,,,,,6,7,127,,
0,program_change,0,0,5,,,,,,,,48,6,,,,
0,program_change,0,0,5,,,,,,,,48,6,,,,
0,track_name,0,1,5,,,,,,,,,,,,,
0,midi_port,0,1,5,,,,,,,0,,,,,,
0,key_signature,0,1,4,,Bb,,,,,,,,,,,
0,midi_port,0,1,2,,,,,,,0,,,,,,
0,end_of_track,0,1,7,,,,,,,,,,,,,
0,text,0,1,0,,,,,,,,,,,,,
0,set_tempo,0,1,0,252100,,,,,,,,,,,,
0,midi_port,0,1,1,,,,,,,0,,,,,,
0,track_name,0,1,1,,,,,,,,,,,,,
0,program_change,0,0,1,,,,,,,,40,11,,,,
0,program_change,0,0,1,,,,,,,,40,11,,,,
0,control_change,0,0,1,,,,,,,,,11,10,64,,
0,control_change,0,0,1,,,,,,,,,11,10,127,,
0,key_signature,0,1,1,,Bb,,,,,,,,,,,
0,time_signature,0,1,1,,,2,4,24,8,,,,,,,
0,control_change,0,0,1,,,,,,,,,11,7,127,,
0,time_signature,0,1,0,,,2,4,24,8,,,,,,,
0,key_signature,0,1,0,,Bb,,,,,,,,,,,
384,set_tempo,384,1,0,500000,,,,,,,,,,,,
768,program_change,768,0,4,,,,,,,,48,4,,,,
768,program_change,768,0,2,,,,,,,,48,0,,,,
768,program_change,768,0,1,,,,,,,,40,11,,,,
768,program_change,768,0,3,,,,,,,,48,2,,,,
768,program_change,768,0,5,,,,,,,,48,6,,,,
768,program_change,768,0,6,,,,,,,,48,8,,,,
1056,note_on,288,0,1,,,,,,,,,11,,,75,110
1056,note_on,288,0,4,,,,,,,,,4,,,67,92
1056,note_on,288,0,2,,,,,,,,,0,,,75,110
1056,note_on,288,0,3,,,,,,,,,2,,,72,110
1150,note_on,94,0,2,,,,,,,,,0,,,75,0
1150,note_on,94,0,3,,,,,,,,,2,,,72,0
1150,note_on,94,0,1,,,,,,,,,11,,,75,0
1150,note_on,94,0,4,,,,,,,,,4,,,67,0
1152,note_on,2,0,4,,,,,,,,,4,,,67,92
1152,note_on,384,0,5,,,,,,,,,6,,,55,75
1152,note_on,2,0,3,,,,,,,,,2,,,72,110
1152,note_on,384,0,6,,,,,,,,,8,,,43,75
1152,note_on,2,0,1,,,,,,,,,11,,,75,110
1152,note_on,2,0,2,,,,,,,,,0,,,75,110
1246,note_on,94,0,4,,,,,,,,,4,,,67,0
1246,note_on,94,0,5,,,,,,,,,6,,,55,0
1246,note_on,94,0,6,,,,,,,,,8,,,43,0
1248,note_on,2,0,6,,,,,,,,,8,,,42,75
1248,note_on,2,0,4,,,,,,,,,4,,,69,92
1248,note_on,2,0,5,,,,,,,,,6,,,54,75
1312,note_on,160,0,3,,,,,,,,,2,,,72,0
1312,note_on,160,0,2,,,,,,,,,0,,,75,0
1312,note_on,160,0,1,,,,,,,,,11,,,75,0
1342,note_on,94,0,5,,,,,,,,,6,,,54,0
1342,note_on,94,0,6,,,,,,,,,8,,,42,0
1342,note_on,94,0,4,,,,,,,,,4,,,69,0
1344,note_on,32,0,1,,,,,,,,,11,,,74,110
1344,note_on,2,0,6,,,,,,,,,8,,,43,75
1344,note_on,2,0,5,,,,,,,,,6,,,55,75
1344,note_on,2,0,4,,,,,,,,,4,,,70,92
1344,note_on,32,0,2,,,,,,,,,0,,,74,110
1344,note_on,32,0,3,,,,,,,,,2,,,70,110
1438,note_on,94,0,2,,,,,,,,,0,,,74,0
1438,note_on,94,0,4,,,,,,,,,4,,,70,0
1438,note_on,94,0,3,,,,,,,,,2,,,70,0
1438,note_on,94,0,1,,,,,,,,,11,,,74,0
1438,note_on,94,0,5,,,,,,,,,6,,,55,0
1438,note_on,94,0,6,,,,,,,,,8,,,43,0
1440,note_on,2,0,1,,,,,,,,,11,,,79,110
1440,note_on,2,0,4,,,,,,,,,4,,,62,92
1440,note_on,2,0,3,,,,,,,,,2,,,82,110
1440,note_on,2,0,2,,,,,,,,,0,,,79,110
1440,note_on,2,0,6,,,,,,,,,8,,,31,75
1440,note_on,2,0,5,,,,,,,,,6,,,43,75
1534,note_on,94,0,3,,,,,,,,,2,,,82,0
1534,note_on,94,0,2,,,,,,,,,0,,,79,0
1534,note_on,94,0,6,,,,,,,,,8,,,31,0
1534,note_on,94,0,4,,,,,,,,,4,,,62,0
1534,note_on,94,0,5,,,,,,,,,6,,,43,0
1534,note_on,94,0,1,,,,,,,,,11,,,79,0
1536,note_on,2,0,5,,,,,,,,,6,,,62,75
1536,note_on,2,0,2,,,,,,,,,0,,,79,110
1536,note_on,2,0,3,,,,,,,,,2,,,82,110
1536,note_on,2,0,4,,,,,,,,,4,,,62,92
1536,note_on,2,0,6,,,,,,,,,8,,,50,75
1536,note_on,2,0,1,,,,,,,,,11,,,79,110
1630,note_on,94,0,5,,,,,,,,,6,,,62,0
1630,note_on,94,0,6,,,,,,,,,8,,,50,0
1630,note_on,94,0,4,,,,,,,,,4,,,62,0
1632,note_on,2,0,6,,,,,,,,,8,,,48,75
1632,note_on,2,0,5,,,,,,,,,6,,,60,75
1632,note_on,2,0,4,,,,,,,,,4,,,64,92
1696,note_on,160,0,2,,,,,,,,,0,,,79,0
1696,note_on,160,0,3,,,,,,,,,2,,,82,0
1696,note_on,160,0,1,,,,,,,,,11,,,79,0
1726,note_on,94,0,6,,,,,,,,,8,,,48,0
1726,note_on,94,0,4,,,,,,,,,4,,,64,0
1726,note_on,94,0,5,,,,,,,,,6,,,60,0
1728,note_on,32,0,3,,,,,,,,,2,,,81,110
1728,note_on,32,0,2,,,,,,,,,0,,,78,110
1728,note_on,2,0,6,,,,,,,,,8,,,50,75
1728,note_on,32,0,1,,,,,,,,,11,,,78,110
1728,note_on,2,0,4,,,,,,,,,4,,,66,92
1728,note_on,2,0,5,,,,,,,,,6,,,62,75
1822,note_on,94,0,3,,,,,,,,,2,,,81,0
1822,note_on,94,0,5,,,,,,,,,6,,,62,0
1822,note_on,94,0,4,,,,,,,,,4,,,66,0
1822,note_on,94,0,6,,,,,,,,,8,,,50,0
1822,note_on,94,0,1,,,,,,,,,11,,,78,0
1822,note_on,94,0,2,,,,,,,,,0,,,78,0
1824,note_on,2,0,1,,,,,,,,,11,,,79,110
1824,note_on,2,0,6,,,,,,,,,8,,,46,75
1824,note_on,2,0,4,,,,,,,,,4,,,62,92
1824,note_on,2,0,3,,,,,,,,,2,,,74,110
1824,note_on,2,0,5,,,,,,,,,6,,,58,75
1824,note_on,2,0,2,,,,,,,,,0,,,79,110
1918,note_on,94,0,2,,,,,,,,,0,,,79,0
1918,note_on,94,0,1,,,,,,,,,11,,,79,0
1918,note_on,94,0,4,,,,,,,,,4,,,62,0
1918,note_on,94,0,6,,,,,,,,,8,,,46,0
1918,note_on,94,0,3,,,,,,,,,2,,,74,0
1918,note_on,94,0,5,,,,,,,,,6,,,58,0
1920,note_on,2,0,2,,,,,,,,,0,,,75,110
1920,note_on,2,0,1,,,,,,,,,11,,,75,110
1920,note_on,2,0,4,,,,,,,,,4,,,67,92
1920,note_on,2,0,6,,,,,,,,,8,,,43,75
1920,note_on,2,0,3,,,,,,,,,2,,,72,110
1920,note_on,2,0,5,,,,,,,,,6,,,55,75
2014,note_on,94,0,4,,,,,,,,,4,,,67,0
2014,note_on,94,0,5,,,,,,,,,6,,,55,0
2014,note_on,94,0,6,,,,,,,,,8,,,43,0
2016,note_on,2,0,6,,,,,,,,,8,,,42,75
2016,note_on,2,0,5,,,,,,,,,6,,,54,75
2016,note_on,2,0,4,,,,,,,,,4,,,69,92
2080,note_on,160,0,2,,,,,,,,,0,,,75,0
2080,note_on,160,0,1,,,,,,,,,11,,,75,0
2080,note_on,160,0,3,,,,,,,,,2,,,72,0
2110,note_on,94,0,6,,,,,,,,,8,,,42,0
2110,note_on,94,0,5,,,,,,,,,6,,,54,0
2110,note_on,94,0,4,,,,,,,,,4,,,69,0
2112,note_on,32,0,2,,,,,,,,,0,,,74,110
2112,note_on,32,0,3,,,,,,,,,2,,,70,110
2112,note_on,2,0,5,,,,,,,,,6,,,55,75
2112,note_on,32,0,1,,,,,,,,,11,,,74,110
2112,note_on,2,0,6,,,,,,,,,8,,,43,75
2112,note_on,2,0,4,,,,,,,,,4,,,70,92
2206,note_on,94,0,4,,,,,,,,,4,,,70,0
2206,note_on,94,0,3,,,,,,,,,2,,,70,0
2206,note_on,94,0,2,,,,,,,,,0,,,74,0
2206,note_on,94,0,5,,,,,,,,,6,,,55,0
2206,note_on,94,0,6,,,,,,,,,8,,,43,0
2206,note_on,94,0,1,,,,,,,,,11,,,74,0
2208,note_on,2,0,2,,,,,,,,,0,,,79,110
2208,note_on,2,0,5,,,,,,,,,6,,,43,75
2208,note_on,2,0,1,,,,,,,,,11,,,79,110
2208,note_on,2,0,4,,,,,,,,,4,,,62,92
2208,note_on,2,0,6,,,,,,,,,8,,,31,75
2208,note_on,2,0,3,,,,,,,,,2,,,82,110
2302,note_on,94,0,5,,,,,,,,,6,,,43,0
2302,note_on,94,0,1,,,,,,,,,11,,,79,0
2302,note_on,94,0,2,,,,,,,,,0,,,79,0
2302,note_on,94,0,6,,,,,,,,,8,,,31,0
2302,note_on,94,0,3,,,,,,,,,2,,,82,0
2302,note_on,94,0,4,,,,,,,,,4,,,62,0
2304,note_on,2,0,1,,,,,,,,,11,,,79,110
2304,note_on,2,0,2,,,,,,,,,0,,,79,110
2304,note_on,2,0,4,,,,,,,,,4,,,62,92
2304,note_on,2,0,6,,,,,,,,,8,,,50,75
2304,note_on,2,0,3,,,,,,,,,2,,,82,110
2304,note_on,2,0,5,,,,,,,,,6,,,62,75
2398,note_on,94,0,6,,,,,,,,,8,,,50,0
2398,note_on,94,0,4,,,,,,,,,4,,,62,0
2398,note_on,94,0,5,,,,,,,,,6,,,62,0
2400,note_on,2,0,5,,,,,,,,,6,,,60,75
2400,note_on,2,0,4,,,,,,,,,4,,,64,92
2400,note_on,2,0,6,,,,,,,,,8,,,48,75
2464,note_on,160,0,3,,,,,,,,,2,,,82,0
2464,note_on,160,0,2,,,,,,,,,0,,,79,0
2464,note_on,160,0,1,,,,,,,,,11,,,79,0
2494,note_on,94,0,5,,,,,,,,,6,,,60,0
2494,note_on,94,0,4,,,,,,,,,4,,,64,0
2494,note_on,94,0,6,,,,,,,,,8,,,48,0
2496,note_on,2,0,4,,,,,,,,,4,,,66,92
2496,note_on,32,0,1,,,,,,,,,11,,,78,110
2496,note_on,32,0,2,,,,,,,,,0,,,78,110
2496,note_on,2,0,5,,,,,,,,,6,,,62,75
2496,note_on,2,0,6,,,,,,,,,8,,,50,75
2496,note_on,32,0,3,,,,,,,,,2,,,81,110
2590,note_on,94,0,6,,,,,,,,,8,,,50,0
2590,note_on,94,0,5,,,,,,,,,6,,,62,0
2590,note_on,94,0,4,,,,,,,,,4,,,66,0
2590,note_on,94,0,2,,,,,,,,,0,,,78,0
2590,note_on,94,0,1,,,,,,,,,11,,,78,0
2590,note_on,94,0,3,,,,,,,,,2,,,81,0
2592,note_on,2,0,3,,,,,,,,,2,,,79,110
2592,note_on,2,0,1,,,,,,,,,11,,,79,110
2592,note_on,2,0,5,,,,,,,,,6,,,58,75
2592,note_on,2,0,4,,,,,,,,,4,,,62,92
2592,note_on,2,0,2,,,,,,,,,0,,,79,110
2592,note_on,2,0,6,,,,,,,,,8,,,46,75
2686,note_on,94,0,1,,,,,,,,,11,,,79,0
2686,note_on,94,0,5,,,,,,,,,6,,,58,0
2686,note_on,94,0,4,,,,,,,,,4,,,62,0
2686,note_on,94,0,6,,,,,,,,,8,,,46,0
2686,note_on,94,0,3,,,,,,,,,2,,,79,0
2686,note_on,94,0,2,,,,,,,,,0,,,79,0
2688,note_on,2,0,2,,,,,,,,,0,,,81,110
2688,note_on,2,0,3,,,,,,,,,2,,,81,110
2688,note_on,2,0,1,,,,,,,,,11,,,81,110
2688,note_on,2,0,5,,,,,,,,,6,,,50,75
2688,note_on,2,0,6,,,,,,,,,8,,,38,75
2688,note_on,2,0,4,,,,,,,,,4,,,62,92
2734,note_on,46,0,1,,,,,,,,,11,,,81,0
2734,note_on,46,0,3,,,,,,,,,2,,,81,0
2734,note_on,46,0,2,,,,,,,,,0,,,81,0
2736,note_on,2,0,3,,,,,,,,,2,,,79,110
2736,note_on,2,0,1,,,,,,,,,11,,,79,110
2736,note_on,2,0,2,,,,,,,,,0,,,79,110
2782,note_on,46,0,2,,,,,,,,,0,,,79,0
2782,note_on,46,0,1,,,,,,,,,11,,,79,0
2782,note_on,46,0,3,,,,,,,,,2,,,79,0
2784,note_on,2,0,3,,,,,,,,,2,,,78,110
2784,note_on,2,0,2,,,,,,,,,0,,,78,110
2784,note_on,2,0,1,,,,,,,,,11,,,78,110
2830,note_on,46,0,2,,,,,,,,,0,,,78,0
2830,note_on,46,0,1,,,,,,,,,11,,,78,0
2830,note_on,46,0,3,,,,,,,,,2,,,78,0
2832,note_on,2,0,1,,,,,,,,,11,,,76,110
2832,note_on,2,0,3,,,,,,,,,2,,,76,110
2832,note_on,2,0,2,,,,,,,,,0,,,76,110
2848,note_on,160,0,4,,,,,,,,,4,,,62,0
2848,note_on,160,0,5,,,,,,,,,6,,,50,0
2848,note_on,160,0,6,,,,,,,,,8,,,38,0
2878,note_on,46,0,3,,,,,,,,,2,,,76,0
2878,note_on,46,0,2,,,,,,,,,0,,,76,0
2878,note_on,46,0,1,,,,,,,,,11,,,76,0
2880,note_on,32,0,6,,,,,,,,,8,,,26,75
2880,note_on,32,0,5,,,,,,,,,6,,,38,75
2880,note_on,2,0,1,,,,,,,,,11,,,74,110
2880,note_on,2,0,2,,,,,,,,,0,,,74,110
2880,note_on,32,0,4,,,,,,,,,4,,,66,92
2880,note_on,2,0,3,,,,,,,,,2,,,74,110
2926,note_on,46,0,2,,,,,,,,,0,,,74,0
2926,note_on,46,0,3,,,,,,,,,2,,,74,0
2926,note_on,46,0,1,,,,,,,,,11,,,74,0
2928,note_on,2,0,2,,,,,,,,,0,,,72,110
2928,note_on,2,0,1,,,,,,,,,11,,,72,110
2928,note_on,2,0,3,,,,,,,,,2,,,72,110
2974,note_on,46,0,3,,,,,,,,,2,,,72,0
2974,note_on,46,0,2,,,,,,,,,0,,,72,0
2974,note_on,46,0,1,,,,,,,,,11,,,72,0
2976,note_on,2,0,3,,,,,,,,,2,,,70,110
2976,note_on,2,0,2,,,,,,,,,0,,,70,110
2976,note_on,2,0,1,,,,,,,,,11,,,70,110
3022,note_on,46,0,3,,,,,,,,,2,,,70,0
3022,note_on,46,0,1,,,,,,,,,11,,,70,0
3022,note_on,46,0,2,,,,,,,,,0,,,70,0
3024,note_on,2,0,1,,,,,,,,,11,,,69,110
3024,note_on,2,0,2,,,,,,,,,0,,,69,110
3024,note_on,2,0,3,,,,,,,,,2,,,69,110
3040,note_on,160,0,6,,,,,,,,,8,,,26,0
3040,note_on,160,0,5,,,,,,,,,6,,,38,0
3040,note_on,160,0,4,,,,,,,,,4,,,66,0
3070,note_on,46,0,1,,,,,,,,,11,,,69,0
3070,note_on,46,0,2,,,,,,,,,0,,,69,0
3070,note_on,46,0,3,,,,,,,,,2,,,69,0
3072,note_on,2,0,1,,,,,,,,,11,,,70,110
3072,set_tempo,2688,1,0,512820,,,,,,,,,,,,
3072,note_on,32,0,6,,,,,,,,,8,,,31,75
3072,note_on,32,0,4,,,,,,,,,4,,,62,92
3072,note_on,32,0,5,,,,,,,,,6,,,43,75
3072,note_on,2,0,2,,,,,,,,,0,,,70,110
3072,note_on,2,0,3,,,,,,,,,2,,,70,110
3166,note_on,94,0,2,,,,,,,,,0,,,70,0
3166,note_on,94,0,5,,,,,,,,,6,,,43,0
3166,note_on,94,0,3,,,,,,,,,2,,,70,0
3166,note_on,94,0,1,,,,,,,,,11,,,70,0
3166,note_on,94,0,6,,,,,,,,,8,,,31,0
3168,note_on,2,0,2,,,,,,,,,0,,,66,110
3168,note_on,2,0,5,,,,,,,,,6,,,50,75
3168,note_on,2,0,3,,,,,,,,,2,,,66,110
3168,note_on,2,0,6,,,,,,,,,8,,,38,75
3168,set_tempo,96,1,0,504201,,,,,,,,,,,,
3168,note_on,2,0,1,,,,,,,,,11,,,66,110
3232,note_on,160,0,4,,,,,,,,,4,,,62,0
3262,note_on,94,0,5,,,,,,,,,6,,,50,0
3262,note_on,94,0,6,,,,,,,,,8,,,38,0
3262,note_on,94,0,2,,,,,,,,,0,,,66,0
3262,note_on,94,0,3,,,,,,,,,2,,,66,0
3262,note_on,94,0,1,,,,,,,,,11,,,66,0
3264,set_tempo,96,1,0,512820,,,,,,,,,,,,
3264,note_on,2,0,5,,,,,,,,,6,,,51,75
3264,note_on,2,0,6,,,,,,,,,8,,,39,75
3264,note_on,2,0,2,,,,,,,,,0,,,67,110
3264,note_on,2,0,1,,,,,,,,,11,,,67,110
3264,note_on,32,0,4,,,,,,,,,4,,,67,92
3264,note_on,2,0,3,,,,,,,,,2,,,67,110
3358,note_on,94,0,1,,,,,,,,,11,,,67,0
3358,note_on,94,0,6,,,,,,,,,8,,,39,0
3358,note_on,94,0,3,,,,,,,,,2,,,67,0
3358,note_on,94,0,2,,,,,,,,,0,,,67,0
3358,note_on,94,0,5,,,,,,,,,6,,,51,0
3358,note_on,94,0,4,,,,,,,,,4,,,67,0
3360,note_on,2,0,2,,,,,,,,,0,,,75,110
3360,note_on,2,0,6,,,,,,,,,8,,,30,75
3360,set_tempo,96,1,0,500000,,,,,,,,,,,,
3360,note_on,2,0,4,,,,,,,,,4,,,69,92
3360,note_on,2,0,3,,,,,,,,,2,,,75,110
3360,note_on,2,0,5,,,,,,,,,6,,,42,75
3360,note_on,2,0,1,,,,,,,,,11,,,75,110
3454,note_on,94,0,5,,,,,,,,,6,,,42,0
3454,note_on,94,0,3,,,,,,,,,2,,,75,0
3454,note_on,94,0,4,,,,,,,,,4,,,69,0
3454,note_on,94,0,6,,,,,,,,,8,,,30,0
3454,note_on,94,0,2,,,,,,,,,0,,,75,0
3454,note_on,94,0,1,,,,,,,,,11,,,75,0
3456,note_on,2,0,2,,,,,,,,,0,,,74,110
3456,note_on,2,0,5,,,,,,,,,6,,,43,75
3456,note_on,2,0,1,,,,,,,,,11,,,74,110
3456,note_on,2,0,4,,,,,,,,,4,,,70,92
3456,note_on,2,0,6,,,,,,,,,8,,,31,75
3456,note_on,2,0,3,,,,,,,,,2,,,74,110
3550,note_on,94,0,6,,,,,,,,,8,,,31,0
3550,note_on,94,0,3,,,,,,,,,2,,,74,0
3550,note_on,94,0,1,,,,,,,,,11,,,74,0
3550,note_on,94,0,5,,,,,,,,,6,,,43,0
3550,note_on,94,0,2,,,,,,,,,0,,,74,0
3550,note_on,94,0,4,,,,,,,,,4,,,70,0
3552,note_on,2,0,5,,,,,,,,,6,,,50,75
3552,note_on,2,0,1,,,,,,,,,11,,,66,110
3552,note_on,2,0,3,,,,,,,,,2,,,66,110
3552,note_on,2,0,2,,,,,,,,,0,,,66,110
3552,note_on,2,0,4,,,,,,,,,4,,,69,92
3552,note_on,2,0,6,,,,,,,,,8,,,38,75
3646,note_on,94,0,1,,,,,,,,,11,,,66,0
3646,note_on,94,0,3,,,,,,,,,2,,,66,0
3646,note_on,94,0,2,,,,,,,,,0,,,66,0
3646,note_on,94,0,6,,,,,,,,,8,,,38,0
3646,note_on,94,0,4,,,,,,,,,4,,,69,0
3646,note_on,94,0,5,,,,,,,,,6,,,50,0
3648,note_on,2,0,2,,,,,,,,,0,,,67,110
3648,note_on,2,0,6,,,,,,,,,8,,,39,75
3648,note_on,2,0,5,,,,,,,,,6,,,51,75
3648,note_on,2,0,4,,,,,,,,,4,,,67,92
3648,note_on,2,0,3,,,,,,,,,2,,,67,110
3648,note_on,2,0,1,,,,,,,,,11,,,67,110
3742,note_on,94,0,6,,,,,,,,,8,,,39,0
3742,note_on,94,0,1,,,,,,,,,11,,,67,0
3742,note_on,94,0,4,,,,,,,,,4,,,67,0
3742,note_on,94,0,2,,,,,,,,,0,,,67,0
3742,note_on,94,0,3,,,,,,,,,2,,,67,0
3742,note_on,94,0,5,,,,,,,,,6,,,51,0
3744,note_on,2,0,6,,,,,,,,,8,,,31,75
3744,note_on,2,0,5,,,,,,,,,6,,,43,75
3744,note_on,2,0,2,,,,,,,,,0,,,74,110
3744,note_on,2,0,4,,,,,,,,,4,,,70,92
3744,note_on,2,0,3,,,,,,,,,2,,,74,110
3744,note_on,2,0,1,,,,,,,,,11,,,74,110
3838,note_on,94,0,6,,,,,,,,,8,,,31,0
3838,note_on,94,0,2,,,,,,,,,0,,,74,0
3838,note_on,94,0,5,,,,,,,,,6,,,43,0
3838,note_on,94,0,3,,,,,,,,,2,,,74,0
3838,note_on,94,0,4,,,,,,,,,4,,,70,0
3838,note_on,94,0,1,,,,,,,,,11,,,74,0
3840,note_on,2,0,5,,,,,,,,,6,,,48,75
3840,note_on,2,0,2,,,,,,,,,0,,,75,110
3840,note_on,2,0,3,,,,,,,,,2,,,75,110
3840,note_on,2,0,6,,,,,,,,,8,,,36,75
3840,note_on,2,0,4,,,,,,,,,4,,,67,92
3840,note_on,2,0,1,,,,,,,,,11,,,75,110
3886,note_on,46,0,3,,,,,,,,,2,,,75,0
3886,note_on,46,0,2,,,,,,,,,0,,,75,0
3886,note_on,46,0,1,,,,,,,,,11,,,75,0
3888,note_on,2,0,2,,,,,,,,,0,,,74,110
3888,note_on,2,0,3,,,,,,,,,2,,,74,110
3888,note_on,2,0,1,,,,,,,,,11,,,74,110
3934,note_on,46,0,2,,,,,,,,,0,,,74,0
3934,note_on,46,0,3,,,,,,,,,2,,,74,0
3934,note_on,46,0,1,,,,,,,,,11,,,74,0
3936,note_on,2,0,1,,,,,,,,,11,,,72,110
3936,note_on,2,0,3,,,,,,,,,2,,,72,110
3936,note_on,2,0,2,,,,,,,,,0,,,72,110
3982,note_on,46,0,2,,,,,,,,,0,,,72,0
3982,note_on,46,0,1,,,,,,,,,11,,,72,0
3982,note_on,46,0,3,,,,,,,,,2,,,72,0
3984,note_on,2,0,1,,,,,,,,,11,,,70,110
3984,note_on,2,0,2,,,,,,,,,0,,,70,110
3984,note_on,2,0,3,,,,,,,,,2,,,70,110
4000,note_on,160,0,4,,,,,,,,,4,,,67,0
4000,note_on,160,0,6,,,,,,,,,8,,,36,0
4000,note_on,160,0,5,,,,,,,,,6,,,48,0
4030,note_on,46,0,1,,,,,,,,,11,,,70,0
4030,note_on,46,0,2,,,,,,,,,0,,,70,0
4030,note_on,46,0,3,,,,,,,,,2,,,70,0
4032,note_on,2,0,3,,,,,,,,,2,,,69,110
4032,note_on,32,0,6,,,,,,,,,8,,,37,75
4032,note_on,2,0,2,,,,,,,,,0,,,69,110
4032,note_on,2,0,1,,,,,,,,,11,,,69,110
4032,note_on,32,0,5,,,,,,,,,6,,,49,75
4032,note_on,32,0,4,,,,,,,,,4,,,64,92
4078,note_on,46,0,1,,,,,,,,,11,,,69,0
4078,note_on,46,0,3,,,,,,,,,2,,,69,0
4078,note_on,46,0,2,,,,,,,,,0,,,69,0
4080,note_on,2,0,2,,,,,,,,,0,,,67,110
4080,note_on,2,0,1,,,,,,,,,11,,,67,110
4080,note_on,2,0,3,,,,,,,,,2,,,67,110
4126,note_on,46,0,3,,,,,,,,,2,,,67,0
4126,note_on,46,0,2,,,,,,,,,0,,,67,0
4126,note_on,46,0,1,,,,,,,,,11,,,67,0
4128,note_on,2,0,3,,,,,,,,,2,,,66,110
4128,note_on,2,0,2,,,,,,,,,0,,,66,110
4128,note_on,2,0,1,,,,,,,,,11,,,66,110
4174,note_on,46,0,3,,,,,,,,,2,,,66,0
4174,note_on,46,0,1,,,,,,,,,11,,,66,0
4174,note_on,46,0,2,,,,,,,,,0,,,66,0
4176,note_on,2,0,1,,,,,,,,,11,,,64,110
4176,note_on,2,0,2,,,,,,,,,0,,,64,110
4176,note_on,2,0,3,,,,,,,,,2,,,64,110
4192,note_on,160,0,5,,,,,,,,,6,,,49,0
4192,note_on,160,0,4,,,,,,,,,4,,,64,0
4192,note_on,160,0,6,,,,,,,,,8,,,37,0
4222,note_on,46,0,3,,,,,,,,,2,,,64,0
4222,note_on,46,0,1,,,,,,,,,11,,,64,0
4222,note_on,46,0,2,,,,,,,,,0,,,64,0
4224,note_on,32,0,6,,,,,,,,,8,,,38,75
4224,note_on,2,0,2,,,,,,,,,0,,,66,110
4224,note_on,2,0,3,,,,,,,,,2,,,66,110
4224,note_on,2,0,1,,,,,,,,,11,,,66,110
4224,note_on,32,0,5,,,,,,,,,6,,,50,75
4224,note_on,32,0,4,,,,,,,,,4,,,57,92
4318,note_on,94,0,5,,,,,,,,,6,,,50,0
4318,note_on,94,0,1,,,,,,,,,11,,,66,0
4318,note_on,94,0,3,,,,,,,,,2,,,66,0
4318,note_on,94,0,6,,,,,,,,,8,,,38,0
4318,note_on,94,0,4,,,,,,,,,4,,,57,0
4318,note_on,94,0,2,,,,,,,,,0,,,66,0
4320,note_on,2,0,4,,,,,,,,,4,,,67,92
4320,note_on,2,0,5,,,,,,,,,6,,,52,75
4320,note_on,2,0,6,,,,,,,,,8,,,40,75
4320,note_on,2,0,1,,,,,,,,,11,,,62,110
4320,note_on,2,0,3,,,,,,,,,2,,,62,110
4320,note_on,2,0,2,,,,,,,,,0,,,62,110
4414,note_on,94,0,5,,,,,,,,,6,,,52,0
4414,note_on,94,0,6,,,,,,,,,8,,,40,0
4414,note_on,94,0,4,,,,,,,,,4,,,67,0
4416,note_on,2,0,5,,,,,,,,,6,,,54,75
4416,note_on,2,0,6,,,,,,,,,8,,,42,75
4416,note_on,2,0,4,,,,,,,,,4,,,69,92
4510,note_on,94,0,6,,,,,,,,,8,,,42,0
4510,note_on,94,0,4,,,,,,,,,4,,,69,0
4510,note_on,94,0,5,,,,,,,,,6,,,54,0
4512,note_on,2,0,4,,,,,,,,,4,,,66,92
4512,note_on,2,0,5,,,,,,,,,6,,,50,75
4512,note_on,2,0,6,,,,,,,,,8,,,38,75
4576,note_on,256,0,1,,,,,,,,,11,,,62,0
4576,note_on,256,0,2,,,,,,,,,0,,,62,0
4576,note_on,256,0,3,,,,,,,,,2,,,62,0
4606,note_on,94,0,5,,,,,,,,,6,,,50,0
4606,note_on,94,0,4,,,,,,,,,4,,,66,0
4606,note_on,94,0,6,,,,,,,,,8,,,38,0
4608,note_on,32,0,3,,,,,,,,,2,,,77,110
4608,note_on,32,0,2,,,,,,,,,0,,,83,110
4608,note_on,32,0,1,,,,,,,,,11,,,83,110
4704,note_on,98,0,5,,,,,,,,,6,,,55,75
4704,note_on,98,0,4,,,,,,,,,4,,,62,92
4704,note_on,98,0,6,,,,,,,,,8,,,43,75
4768,note_on,160,0,2,,,,,,,,,0,,,83,0
4768,note_on,160,0,1,,,,,,,,,11,,,83,0
4798,note_on,94,0,5,,,,,,,,,6,,,55,0
4798,note_on,94,0,4,,,,,,,,,4,,,62,0
4798,note_on,94,0,6,,,,,,,,,8,,,43,0
4800,note_on,32,0,2,,,,,,,,,0,,,84,110
4800,note_on,2,0,6,,,,,,,,,8,,,31,75
4800,note_on,32,0,1,,,,,,,,,11,,,84,110
4800,note_on,2,0,5,,,,,,,,,6,,,43,75
4800,note_on,2,0,4,,,,,,,,,4,,,62,92
4864,note_on,256,0,3,,,,,,,,,2,,,77,0
4894,note_on,94,0,2,,,,,,,,,0,,,84,0
4894,note_on,94,0,1,,,,,,,,,11,,,84,0
4896,note_on,2,0,2,,,,,,,,,0,,,86,110
4896,note_on,2,0,1,,,,,,,,,11,,,86,110
4896,note_on,32,0,3,,,,,,,,,2,,,80,110
4942,note_on,46,0,3,,,,,,,,,2,,,80,0
4944,note_on,2,0,3,,,,,,,,,2,,,79,110
4960,note_on,160,0,5,,,,,,,,,6,,,43,0
4960,note_on,160,0,6,,,,,,,,,8,,,31,0
4960,note_on,160,0,4,,,,,,,,,4,,,62,0
4990,note_on,94,0,1,,,,,,,,,11,,,86,0
4990,note_on,46,0,3,,,,,,,,,2,,,79,0
4990,note_on,94,0,2,,,,,,,,,0,,,86,0
4992,note_on,2,0,2,,,,,,,,,0,,,83,110
4992,note_on,2,0,1,,,,,,,,,11,,,83,110
4992,note_on,2,0,3,,,,,,,,,2,,,77,110
5088,note_on,128,0,5,,,,,,,,,6,,,55,75
5088,note_on,128,0,4,,,,,,,,,4,,,62,92
5088,note_on,128,0,6,,,,,,,,,8,,,43,75
5152,note_on,160,0,1,,,,,,,,,11,,,83,0
5152,note_on,160,0,2,,,,,,,,,0,,,83,0
5182,note_on,94,0,5,,,,,,,,,6,,,55,0
5182,note_on,94,0,4,,,,,,,,,4,,,62,0
5182,note_on,94,0,6,,,,,,,,,8,,,43,0
5184,note_on,2,0,4,,,,,,,,,4,,,62,92
5184,note_on,2,0,5,,,,,,,,,6,,,43,75
5184,note_on,2,0,6,,,,,,,,,8,,,31,75
5184,note_on,32,0,2,,,,,,,,,0,,,84,110
5184,note_on,32,0,1,,,,,,,,,11,,,84,110
5248,note_on,256,0,3,,,,,,,,,2,,,77,0
5278,note_on,94,0,2,,,,,,,,,0,,,84,0
5278,note_on,94,0,1,,,,,,,,,11,,,84,0
5280,note_on,32,0,3,,,,,,,,,2,,,80,110
5280,note_on,2,0,1,,,,,,,,,11,,,86,110
5280,note_on,2,0,2,,,,,,,,,0,,,86,110
5326,note_on,46,0,3,,,,,,,,,2,,,80,0
5328,note_on,2,0,3,,,,,,,,,2,,,79,110
5344,note_on,160,0,6,,,,,,,,,8,,,31,0
5344,note_on,160,0,4,,,,,,,,,4,,,62,0
5344,note_on,160,0,5,,,,,,,,,6,,,43,0
5374,note_on,94,0,2,,,,,,,,,0,,,86,0
5374,note_on,46,0,3,,,,,,,,,2,,,79,0
5374,note_on,94,0,1,,,,,,,,,11,,,86,0
5376,note_on,2,0,1,,,,,,,,,11,,,83,110
5376,note_on,2,0,3,,,,,,,,,2,,,77,110
5376,note_on,2,0,2,,,,,,,,,0,,,83,110
5422,note_on,46,0,1,,,,,,,,,11,,,83,0
5422,note_on,46,0,2,,,,,,,,,0,,,83,0
5424,note_on,2,0,1,,,,,,,,,11,,,84,110
5424,note_on,2,0,2,,,,,,,,,0,,,84,110
5470,note_on,46,0,1,,,,,,,,,11,,,84,0
5470,note_on,46,0,2,,,,,,,,,0,,,84,0
5472,note_on,128,0,6,,,,,,,,,8,,,43,75
5472,note_on,2,0,2,,,,,,,,,0,,,86,110
5472,note_on,128,0,5,,,,,,,,,6,,,55,75
5472,note_on,2,0,1,,,,,,,,,11,,,86,110
5472,note_on,128,0,4,,,,,,,,,4,,,71,92
5518,note_on,46,0,1,,,,,,,,,11,,,86,0
5518,note_on,46,0,2,,,,,,,,,0,,,86,0
5520,note_on,2,0,2,,,,,,,,,0,,,84,110
5520,note_on,2,0,1,,,,,,,,,11,,,84,110
5566,note_on,46,0,1,,,,,,,,,11,,,84,0
5566,note_on,94,0,5,,,,,,,,,6,,,55,0
5566,note_on,94,0,6,,,,,,,,,8,,,43,0
5566,note_on,46,0,2,,,,,,,,,0,,,84,0
5566,note_on,94,0,4,,,,,,,,,4,,,71,0
5568,note_on,2,0,1,,,,,,,,,11,,,83,110
5568,note_on,2,0,6,,,,,,,,,8,,,31,75
5568,note_on,2,0,2,,,,,,,,,0,,,83,110
5568,note_on,2,0,5,,,,,,,,,6,,,43,75
5568,note_on,2,0,4,,,,,,,,,4,,,71,92
5614,note_on,46,0,2,,,,,,,,,0,,,83,0
5614,note_on,46,0,1,,,,,,,,,11,,,83,0
5616,note_on,2,0,1,,,,,,,,,11,,,81,110
5616,note_on,2,0,2,,,,,,,,,0,,,81,110
5632,note_on,256,0,3,,,,,,,,,2,,,77,0
5662,note_on,46,0,2,,,,,,,,,0,,,81,0
5662,note_on,46,0,1,,,,,,,,,11,,,81,0
5664,note_on,32,0,3,,,,,,,,,2,,,75,110
5664,note_on,2,0,2,,,,,,,,,0,,,79,110
5664,note_on,2,0,1,,,,,,,,,11,,,79,110
5710,note_on,46,0,3,,,,,,,,,2,,,75,0
5710,note_on,46,0,1,,,,,,,,,11,,,79,0
5710,note_on,46,0,2,,,,,,,,,0,,,79,0
5712,note_on,2,0,3,,,,,,,,,2,,,74,110
5712,note_on,2,0,2,,,,,,,,,0,,,77,110
5712,note_on,2,0,1,,,,,,,,,11,,,77,110
5728,note_on,160,0,6,,,,,,,,,8,,,31,0
5728,note_on,160,0,5,,,,,,,,,6,,,43,0
5728,note_on,160,0,4,,,,,,,,,4,,,71,0
5758,note_on,46,0,3,,,,,,,,,2,,,74,0
5758,note_on,46,0,1,,,,,,,,,11,,,77,0
5758,note_on,46,0,2,,,,,,,,,0,,,77,0
5760,note_on,32,0,5,,,,,,,,,6,,,60,75
5760,note_on,2,0,3,,,,,,,,,2,,,72,110
5760,note_on,32,0,6,,,,,,,,,8,,,48,75
5760,note_on,2,0,1,,,,,,,,,11,,,75,110
5760,note_on,2,0,2,,,,,,,,,0,,,75,110
5760,note_on,32,0,4,,,,,,,,,4,,,67,92
5854,note_on,94,0,5,,,,,,,,,6,,,60,0
5854,note_on,94,0,6,,,,,,,,,8,,,48,0
5854,note_on,94,0,2,,,,,,,,,0,,,75,0
5854,note_on,94,0,1,,,,,,,,,11,,,75,0
5856,note_on,2,0,5,,,,,,,,,6,,,55,75
5856,note_on,2,0,6,,,,,,,,,8,,,43,75
5856,note_on,2,0,1,,,,,,,,,11,,,74,110
5856,note_on,2,0,2,,,,,,,,,0,,,74,110
5950,note_on,94,0,6,,,,,,,,,8,,,43,0
5950,note_on,94,0,2,,,,,,,,,0,,,74,0
5950,note_on,94,0,5,,,,,,,,,6,,,55,0
5950,note_on,94,0,1,,,,,,,,,11,,,74,0
5952,note_on,2,0,5,,,,,,,,,6,,,51,75
5952,note_on,2,0,2,,,,,,,,,0,,,72,110
5952,note_on,2,0,1,,,,,,,,,11,,,72,110
5952,note_on,2,0,6,,,,,,,,,8,,,39,75
6016,note_on,256,0,4,,,,,,,,,4,,,67,0
6046,note_on,94,0,5,,,,,,,,,6,,,51,0
6046,note_on,94,0,6,,,,,,,,,8,,,39,0
6048,note_on,32,0,4,,,,,,,,,4,,,63,92
6048,note_on,2,0,5,,,,,,,,,6,,,48,75
6048,note_on,2,0,6,,,,,,,,,8,,,36,75
6096,note_on,336,0,3,,,,,,,,,2,,,72,0
6112,note_on,160,0,2,,,,,,,,,0,,,72,0
6112,note_on,160,0,1,,,,,,,,,11,,,72,0
6142,note_on,94,0,6,,,,,,,,,8,,,36,0
6142,note_on,94,0,4,,,,,,,,,4,,,63,0
6142,note_on,94,0,5,,,,,,,,,6,,,48,0
6144,note_on,32,0,2,,,,,,,,,0,,,81,110
6144,note_on,32,0,1,,,,,,,,,11,,,81,110
6144,note_on,48,0,3,,,,,,,,,2,,,75,110
6240,note_on,98,0,4,,,,,,,,,4,,,60,92
6240,note_on,98,0,5,,,,,,,,,6,,,53,75
6240,note_on,98,0,6,,,,,,,,,8,,,41,75
6304,note_on,160,0,2,,,,,,,,,0,,,81,0
6304,note_on,160,0,1,,,,,,,,,11,,,81,0
6334,note_on,94,0,4,,,,,,,,,4,,,60,0
6334,note_on,94,0,6,,,,,,,,,8,,,41,0
6334,note_on,94,0,5,,,,,,,,,6,,,53,0
6336,note_on,2,0,5,,,,,,,,,6,,,41,75
6336,note_on,32,0,1,,,,,,,,,11,,,82,110
6336,note_on,2,0,6,,,,,,,,,8,,,29,75
6336,note_on,32,0,2,,,,,,,,,0,,,82,110
6336,note_on,2,0,4,,,,,,,,,4,,,60,92
6400,note_on,256,0,3,,,,,,,,,2,,,75,0
6430,note_on,94,0,2,,,,,,,,,0,,,82,0
6430,note_on,94,0,1,,,,,,,,,11,,,82,0
6432,note_on,2,0,1,,,,,,,,,11,,,84,110
6432,note_on,2,0,2,,,,,,,,,0,,,84,110
6432,note_on,32,0,3,,,,,,,,,2,,,79,110
6478,note_on,46,0,3,,,,,,,,,2,,,79,0
6480,note_on,2,0,3,,,,,,,,,2,,,77,110
6496,note_on,160,0,4,,,,,,,,,4,,,60,0
6496,note_on,160,0,6,,,,,,,,,8,,,29,0
6496,note_on,160,0,5,,,,,,,,,6,,,41,0
6526,note_on,94,0,2,,,,,,,,,0,,,84,0
6526,note_on,94,0,1,,,,,,,,,11,,,84,0
6526,note_on,46,0,3,,,,,,,,,2,,,77,0
6528,note_on,2,0,1,,,,,,,,,11,,,81,110
6528,note_on,2,0,2,,,,,,,,,0,,,81,110
6528,note_on,2,0,3,,,,,,,,,2,,,75,110
6624,note_on,128,0,5,,,,,,,,,6,,,53,75
6624,note_on,128,0,4,,,,,,,,,4,,,60,92
6624,note_on,128,0,6,,,,,,,,,8,,,41,75
6688,note_on,160,0,1,,,,,,,,,11,,,81,0
6688,note_on,160,0,2,,,,,,,,,0,,,81,0
6718,note_on,94,0,4,,,,,,,,,4,,,60,0
6718,note_on,94,0,6,,,,,,,,,8,,,41,0
6718,note_on,94,0,5,,,,,,,,,6,,,53,0
6720,note_on,2,0,4,,,,,,,,,4,,,60,92
6720,note_on,2,0,6,,,,,,,,,8,,,29,75
6720,note_on,2,0,5,,,,,,,,,6,,,41,75
6720,note_on,32,0,2,,,,,,,,,0,,,82,110
6720,note_on,32,0,1,,,,,,,,,11,,,82,110
6784,note_on,256,0,3,,,,,,,,,2,,,75,0
6814,note_on,94,0,1,,,,,,,,,11,,,82,0
6814,note_on,94,0,2,,,,,,,,,0,,,82,0
6816,note_on,2,0,1,,,,,,,,,11,,,84,110
6816,note_on,2,0,2,,,,,,,,,0,,,84,110
6816,note_on,32,0,3,,,,,,,,,2,,,79,110
6862,note_on,46,0,3,,,,,,,,,2,,,79,0
6864,note_on,2,0,3,,,,,,,,,2,,,77,110
6880,note_on,160,0,5,,,,,,,,,6,,,41,0
6880,note_on,160,0,6,,,,,,,,,8,,,29,0
6880,note_on,160,0,4,,,,,,,,,4,,,60,0
6910,note_on,94,0,2,,,,,,,,,0,,,84,0
6910,note_on,46,0,3,,,,,,,,,2,,,77,0
6910,note_on,94,0,1,,,,,,,,,11,,,84,0
6912,note_on,2,0,3,,,,,,,,,2,,,75,110
6912,note_on,2,0,1,,,,,,,,,11,,,81,110
6912,note_on,2,0,2,,,,,,,,,0,,,81,110
6958,note_on,46,0,1,,,,,,,,,11,,,81,0
6958,note_on,46,0,2,,,,,,,,,0,,,81,0
6960,note_on,2,0,1,,,,,,,,,11,,,82,110
6960,note_on,2,0,2,,,,,,,,,0,,,82,110
7006,note_on,46,0,1,,,,,,,,,11,,,82,0
7006,note_on,46,0,2,,,,,,,,,0,,,82,0
7008,note_on,2,0,1,,,,,,,,,11,,,84,110
7008,note_on,128,0,6,,,,,,,,,8,,,41,75
7008,note_on,128,0,5,,,,,,,,,6,,,53,75
7008,note_on,128,0,4,,,,,,,,,4,,,69,92
7008,note_on,2,0,2,,,,,,,,,0,,,84,110
7054,note_on,46,0,2,,,,,,,,,0,,,84,0
7054,note_on,46,0,1,,,,,,,,,11,,,84,0
7056,note_on,2,0,2,,,,,,,,,0,,,82,110
7056,note_on,2,0,1,,,,,,,,,11,,,82,110
7102,note_on,94,0,4,,,,,,,,,4,,,69,0
7102,note_on,46,0,2,,,,,,,,,0,,,82,0
7102,note_on,94,0,5,,,,,,,,,6,,,53,0
7102,note_on,94,0,6,,,,,,,,,8,,,41,0
7102,note_on,46,0,1,,,,,,,,,11,,,82,0
7104,note_on,2,0,4,,,,,,,,,4,,,69,92
7104,note_on,2,0,6,,,,,,,,,8,,,29,75
7104,note_on,2,0,5,,,,,,,,,6,,,41,75
7104,note_on,2,0,2,,,,,,,,,0,,,81,110
7104,note_on,2,0,1,,,,,,,,,11,,,81,110
7150,note_on,46,0,2,,,,,,,,,0,,,81,0
7150,note_on,46,0,1,,,,,,,,,11,,,81,0
7152,note_on,2,0,2,,,,,,,,,0,,,79,110
7152,note_on,2,0,1,,,,,,,,,11,,,79,110
7168,note_on,256,0,3,,,,,,,,,2,,,75,0
7198,note_on,46,0,2,,,,,,,,,0,,,79,0
7198,note_on,46,0,1,,,,,,,,,11,,,79,0
7200,note_on,2,0,2,,,,,,,,,0,,,77,110
7200,note_on,32,0,3,,,,,,,,,2,,,74,110
7200,note_on,2,0,1,,,,,,,,,11,,,77,110
7246,note_on,46,0,2,,,,,,,,,0,,,77,0
7246,note_on,46,0,3,,,,,,,,,2,,,74,0
7246,note_on,46,0,1,,,,,,,,,11,,,77,0
7248,note_on,2,0,3,,,,,,,,,2,,,72,110
7248,note_on,2,0,2,,,,,,,,,0,,,75,110
7248,note_on,2,0,1,,,,,,,,,11,,,75,110
7264,note_on,160,0,6,,,,,,,,,8,,,29,0
7264,note_on,160,0,4,,,,,,,,,4,,,69,0
7264,note_on,160,0,5,,,,,,,,,6,,,41,0
7294,note_on,46,0,2,,,,,,,,,0,,,75,0
7294,note_on,46,0,3,,,,,,,,,2,,,72,0
7294,note_on,46,0,1,,,,,,,,,11,,,75,0
7296,note_on,2,0,2,,,,,,,,,0,,,74,110
7296,note_on,32,0,6,,,,,,,,,8,,,46,75
7296,note_on,2,0,3,,,,,,,,,2,,,70,110
7296,note_on,32,0,4,,,,,,,,,4,,,65,92
7296,note_on,2,0,1,,,,,,,,,11,,,74,110
7296,note_on,32,0,5,,,,,,,,,6,,,58,75
7390,note_on,94,0,6,,,,,,,,,8,,,46,0
7390,note_on,94,0,5,,,,,,,,,6,,,58,0
7390,note_on,94,0,1,,,,,,,,,11,,,74,0
7390,note_on,94,0,2,,,,,,,,,0,,,74,0
7392,note_on,2,0,6,,,,,,,,,8,,,41,75
7392,note_on,2,0,2,,,,,,,,,0,,,72,110
7392,note_on,2,0,5,,,,,,,,,6,,,53,75
7392,note_on,2,0,1,,,,,,,,,11,,,72,110
7486,note_on,94,0,2,,,,,,,,,0,,,72,0
7486,note_on,94,0,1,,,,,,,,,11,,,72,0
7486,note_on,94,0,6,,,,,,,,,8,,,41,0
7486,note_on,94,0,5,,,,,,,,,6,,,53,0
7488,note_on,2,0,1,,,,,,,,,11,,,70,110
7488,note_on,2,0,5,,,,,,,,,6,,,50,75
7488,note_on,2,0,2,,,,,,,,,0,,,70,110
7488,note_on,2,0,6,,,,,,,,,8,,,38,75
7552,note_on,256,0,4,,,,,,,,,4,,,65,0
7582,note_on,94,0,6,,,,,,,,,8,,,38,0
7582,note_on,94,0,5,,,,,,,,,6,,,50,0
7584,note_on,2,0,5,,,,,,,,,6,,,46,75
7584,note_on,32,0,4,,,,,,,,,4,,,62,92
7584,note_on,2,0,6,,,,,,,,,8,,,34,75
7632,note_on,336,0,3,,,,,,,,,2,,,70,0
7648,note_on,160,0,2,,,,,,,,,0,,,70,0
7648,note_on,160,0,1,,,,,,,,,11,,,70,0
7678,note_on,94,0,4,,,,,,,,,4,,,62,0
7678,note_on,94,0,6,,,,,,,,,8,,,34,0
7678,note_on,94,0,5,,,,,,,,,6,,,46,0
7680,note_on,2,0,6,,,,,,,,,8,,,43,75
7680,note_on,48,0,3,,,,,,,,,2,,,67,110
7680,note_on,32,0,2,,,,,,,,,0,,,67,110
7680,note_on,32,0,1,,,,,,,,,11,,,67,110
7680,note_on,2,0,5,,,,,,,,,6,,,55,75
7680,note_on,2,0,4,,,,,,,,,4,,,58,92
7750,note_on,70,0,5,,,,,,,,,6,,,55,0
7750,note_on,70,0,4,,,,,,,,,4,,,58,0
7750,note_on,70,0,6,,,,,,,,,8,,,43,0
7776,note_on,26,0,6,,,,,,,,,8,,,43,75
7776,note_on,26,0,5,,,,,,,,,6,,,55,75
7776,note_on,26,0,4,,,,,,,,,4,,,58,92
7840,note_on,160,0,3,,,,,,,,,2,,,67,0
7840,note_on,160,0,2,,,,,,,,,0,,,67,0
7840,note_on,160,0,1,,,,,,,,,11,,,67,0
7846,note_on,70,0,4,,,,,,,,,4,,,58,0
7846,note_on,70,0,5,,,,,,,,,6,,,55,0
7846,note_on,70,0,6,,,,,,,,,8,,,43,0
7872,note_on,26,0,4,,,,,,,,,4,,,58,92
7872,note_on,26,0,6,,,,,,,,,8,,,43,75
7872,note_on,32,0,3,,,,,,,,,2,,,67,110
7872,note_on,26,0,5,,,,,,,,,6,,,55,75
7872,note_on,32,0,2,,,,,,,,,0,,,67,110
7872,note_on,32,0,1,,,,,,,,,11,,,67,110
7942,note_on,70,0,5,,,,,,,,,6,,,55,0
7942,note_on,70,0,4,,,,,,,,,4,,,58,0
7942,note_on,70,0,6,,,,,,,,,8,,,43,0
7966,note_on,94,0,1,,,,,,,,,11,,,67,0
7966,note_on,94,0,2,,,,,,,,,0,,,67,0
7966,note_on,94,0,3,,,,,,,,,2,,,67,0
7968,note_on,26,0,4,,,,,,,,,4,,,58,92
7968,note_on,2,0,3,,,,,,,,,2,,,67,110
7968,note_on,2,0,1,,,,,,,,,11,,,67,110
7968,note_on,2,0,2,,,,,,,,,0,,,67,110
7968,note_on,26,0,6,,,,,,,,,8,,,43,75
7968,note_on,26,0,5,,,,,,,,,6,,,55,75
8038,note_on,70,0,4,,,,,,,,,4,,,58,0
8038,note_on,70,0,5,,,,,,,,,6,,,55,0
8038,note_on,70,0,6,,,,,,,,,8,,,43,0
8062,note_on,94,0,3,,,,,,,,,2,,,67,0
8062,note_on,94,0,2,,,,,,,,,0,,,67,0
8062,note_on,94,0,1,,,,,,,,,11,,,67,0
8064,note_on,2,0,3,,,,,,,,,2,,,67,110
8064,note_on,2,0,1,,,,,,,,,11,,,67,110
8064,note_on,26,0,4,,,,,,,,,4,,,58,92
8064,note_on,26,0,5,,,,,,,,,6,,,55,75
8064,note_on,2,0,2,,,,,,,,,0,,,67,110
8064,note_on,26,0,6,,,,,,,,,8,,,43,75
8110,note_on,46,0,3,,,,,,,,,2,,,67,0
8110,note_on,46,0,2,,,,,,,,,0,,,67,0
8110,note_on,46,0,1,,,,,,,,,11,,,67,0
8112,note_on,2,0,2,,,,,,,,,0,,,69,110
8112,note_on,2,0,1,,,,,,,,,11,,,69,110
8112,note_on,2,0,3,,,,,,,,,2,,,69,110
8134,note_on,70,0,4,,,,,,,,,4,,,58,0
8134,note_on,70,0,5,,,,,,,,,6,,,55,0
8134,note_on,70,0,6,,,,,,,,,8,,,43,0
8158,note_on,46,0,1,,,,,,,,,11,,,69,0
8158,note_on,46,0,2,,,,,,,,,0,,,69,0
8158,note_on,46,0,3,,,,,,,,,2,,,69,0
8160,note_on,26,0,5,,,,,,,,,6,,,55,75
8160,note_on,2,0,1,,,,,,,,,11,,,70,110
8160,note_on,2,0,3,,,,,,,,,2,,,70,110
8160,note_on,26,0,4,,,,,,,,,4,,,58,92
8160,note_on,2,0,2,,,,,,,,,0,,,70,110
8160,note_on,26,0,6,,,,,,,,,8,,,43,75
8206,note_on,46,0,1,,,,,,,,,11,,,70,0
8206,note_on,46,0,3,,,,,,,,,2,,,70,0
8206,note_on,46,0,2,,,,,,,,,0,,,70,0
8208,note_on,2,0,1,,,,,,,,,11,,,72,110
8208,note_on,2,0,2,,,,,,,,,0,,,72,110
8208,note_on,2,0,3,,,,,,,,,2,,,72,110
8230,note_on,70,0,4,,,,,,,,,4,,,58,0
8230,note_on,70,0,5,,,,,,,,,6,,,55,0
8230,note_on,70,0,6,,,,,,,,,8,,,43,0
8254,note_on,46,0,3,,,,,,,,,2,,,72,0
8254,note_on,46,0,1,,,,,,,,,11,,,72,0
8254,note_on,46,0,2,,,,,,,,,0,,,72,0
8256,note_on,2,0,1,,,,,,,,,11,,,74,110
8256,note_on,26,0,5,,,,,,,,,6,,,55,75
8256,note_on,26,0,4,,,,,,,,,4,,,58,92
8256,note_on,26,0,6,,,,,,,,,8,,,43,75
8256,note_on,2,0,2,,,,,,,,,0,,,74,110
8256,note_on,2,0,3,,,,,,,,,2,,,74,110
8326,note_on,70,0,4,,,,,,,,,4,,,58,0
8326,note_on,70,0,5,,,,,,,,,6,,,55,0
8326,note_on,70,0,6,,,,,,,,,8,,,43,0
8352,note_on,26,0,6,,,,,,,,,8,,,43,75
8352,note_on,26,0,4,,,,,,,,,4,,,58,92
8352,note_on,26,0,5,,,,,,,,,6,,,55,75
8416,note_on,160,0,2,,,,,,,,,0,,,74,0
8416,note_on,160,0,1,,,,,,,,,11,,,74,0
8416,note_on,160,0,3,,,,,,,,,2,,,74,0
8422,note_on,70,0,4,,,,,,,,,4,,,58,0
8422,note_on,70,0,5,,,,,,,,,6,,,55,0
8422,note_on,70,0,6,,,,,,,,,8,,,43,0
8448,note_on,32,0,1,,,,,,,,,11,,,67,60
8448,note_on,26,0,4,,,,,,,,,4,,,58,60
8448,note_on,32,0,3,,,,,,,,,2,,,67,60
8448,note_on,26,0,5,,,,,,,,,6,,,55,60
8448,note_on,26,0,6,,,,,,,,,8,,,43,60
8448,note_on,32,0,2,,,,,,,,,0,,,67,60
8518,note_on,70,0,5,,,,,,,,,6,,,55,0
8518,note_on,70,0,6,,,,,,,,,8,,,43,0
8518,note_on,70,0,4,,,,,,,,,4,,,58,0
8544,note_on,26,0,6,,,,,,,,,8,,,43,60
8544,note_on,26,0,5,,,,,,,,,6,,,55,60
8544,note_on,26,0,4,,,,,,,,,4,,,58,60
8608,note_on,160,0,3,,,,,,,,,2,,,67,0
8608,note_on,160,0,2,,,,,,,,,0,,,67,0
8608,note_on,160,0,1,,,,,,,,,11,,,67,0
8614,note_on,70,0,6,,,,,,,,,8,,,43,0
8614,note_on,70,0,4,,,,,,,,,4,,,58,0
8614,note_on,70,0,5,,,,,,,,,6,,,55,0
8640,note_on,32,0,1,,,,,,,,,11,,,67,60
8640,note_on,26,0,6,,,,,,,,,8,,,43,60
8640,note_on,26,0,4,,,,,,,,,4,,,58,60
8640,note_on,32,0,3,,,,,,,,,2,,,67,60
8640,note_on,32,0,2,,,,,,,,,0,,,67,60
8640,note_on,26,0,5,,,,,,,,,6,,,55,60
8710,note_on,70,0,4,,,,,,,,,4,,,58,0
8710,note_on,70,0,5,,,,,,,,,6,,,55,0
8710,note_on,70,0,6,,,,,,,,,8,,,43,0
8734,note_on,94,0,2,,,,,,,,,0,,,67,0
8734,note_on,94,0,3,,,,,,,,,2,,,67,0
8734,note_on,94,0,1,,,,,,,,,11,,,67,0
8736,note_on,2,0,3,,,,,,,,,2,,,67,60
8736,note_on,2,0,2,,,,,,,,,0,,,67,60
8736,note_on,26,0,5,,,,,,,,,6,,,55,60
8736,note_on,26,0,4,,,,,,,,,4,,,58,60
8736,note_on,26,0,6,,,,,,,,,8,,,43,60
8736,note_on,2,0,1,,,,,,,,,11,,,67,60
8806,note_on,70,0,5,,,,,,,,,6,,,55,0
8806,note_on,70,0,6,,,,,,,,,8,,,43,0
8806,note_on,70,0,4,,,,,,,,,4,,,58,0
8830,note_on,94,0,2,,,,,,,,,0,,,67,0
8830,note_on,94,0,1,,,,,,,,,11,,,67,0
8830,note_on,94,0,3,,,,,,,,,2,,,67,0
8832,note_on,2,0,2,,,,,,,,,0,,,67,60
8832,note_on,26,0,5,,,,,,,,,6,,,55,60
8832,note_on,2,0,1,,,,,,,,,11,,,67,60
8832,note_on,26,0,6,,,,,,,,,8,,,43,60
8832,note_on,2,0,3,,,,,,,,,2,,,67,60
8832,note_on,26,0,4,,,,,,,,,4,,,58,60
8878,note_on,46,0,1,,,,,,,,,11,,,67,0
8878,note_on,46,0,2,,,,,,,,,0,,,67,0
8878,note_on,46,0,3,,,,,,,,,2,,,67,0
8880,note_on,2,0,1,,,,,,,,,11,,,69,60
8880,note_on,2,0,2,,,,,,,,,0,,,69,60
8880,note_on,2,0,3,,,,,,,,,2,,,69,60
8902,note_on,70,0,6,,,,,,,,,8,,,43,0
8902,note_on,70,0,4,,,,,,,,,4,,,58,0
8902,note_on,70,0,5,,,,,,,,,6,,,55,0
8926,note_on,46,0,1,,,,,,,,,11,,,69,0
8926,note_on,46,0,2,,,,,,,,,0,,,69,0
8926,note_on,46,0,3,,,,,,,,,2,,,69,0
8928,note_on,26,0,5,,,,,,,,,6,,,55,60
8928,note_on,2,0,3,,,,,,,,,2,,,70,60
8928,note_on,26,0,4,,,,,,,,,4,,,58,60
8928,note_on,26,0,6,,,,,,,,,8,,,43,60
8928,note_on,2,0,1,,,,,,,,,11,,,70,60
8928,note_on,2,0,2,,,,,,,,,0,,,70,60
8974,note_on,46,0,1,,,,,,,,,11,,,70,0
8974,note_on,46,0,2,,,,,,,,,0,,,70,0
8974,note_on,46,0,3,,,,,,,,,2,,,70,0
8976,note_on,2,0,3,,,,,,,,,2,,,72,60
8976,note_on,2,0,1,,,,,,,,,11,,,72,60
8976,note_on,2,0,2,,,,,,,,,0,,,72,60
8998,note_on,70,0,4,,,,,,,,,4,,,58,0
8998,note_on,70,0,6,,,,,,,,,8,,,43,0
8998,note_on,70,0,5,,,,,,,,,6,,,55,0
9022,note_on,46,0,1,,,,,,,,,11,,,72,0
9022,note_on,46,0,3,,,,,,,,,2,,,72,0
9022,note_on,46,0,2,,,,,,,,,0,,,72,0
9024,note_on,2,0,3,,,,,,,,,2,,,74,60
9024,note_on,26,0,5,,,,,,,,,6,,,55,60
9024,note_on,26,0,4,,,,,,,,,4,,,58,60
9024,note_on,26,0,6,,,,,,,,,8,,,43,60
9024,note_on,2,0,1,,,,,,,,,11,,,74,60
9024,note_on,2,0,2,,,,,,,,,0,,,74,60
9094,note_on,70,0,4,,,,,,,,,4,,,58,0
9094,note_on,70,0,6,,,,,,,,,8,,,43,0
9094,note_on,70,0,5,,,,,,,,,6,,,55,0
9118,note_on,94,0,2,,,,,,,,,0,,,74,0
9118,note_on,94,0,1,,,,,,,,,11,,,74,0
9118,note_on,94,0,3,,,,,,,,,2,,,74,0
9120,note_on,26,0,5,,,,,,,,,6,,,55,108
9120,note_on,26,0,4,,,,,,,,,4,,,58,108
9120,note_on,2,0,1,,,,,,,,,11,,,82,108
9120,note_on,2,0,2,,,,,,,,,0,,,82,108
9120,note_on,26,0,6,,,,,,,,,8,,,43,108
9120,note_on,2,0,3,,,,,,,,,2,,,82,108
9190,note_on,70,0,5,,,,,,,,,6,,,55,0
9190,note_on,70,0,6,,,,,,,,,8,,,43,0
9190,note_on,70,0,4,,,,,,,,,4,,,58,0
9214,note_on,94,0,1,,,,,,,,,11,,,82,0
9214,note_on,94,0,2,,,,,,,,,0,,,82,0
9214,note_on,94,0,3,,,,,,,,,2,,,82,0
9216,note_on,2,0,2,,,,,,,,,0,,,82,108
9216,note_on,26,0,5,,,,,,,,,6,,,48,108
9216,note_on,2,0,1,,,,,,,,,11,,,82,108
9216,note_on,2,0,3,,,,,,,,,2,,,82,108
9216,note_on,26,0,6,,,,,,,,,8,,,36,108
9216,note_on,26,0,4,,,,,,,,,4,,,63,108
9238,note_on,22,0,3,,,,,,,,,2,,,82,0
9238,note_on,22,0,1,,,,,,,,,11,,,82,0
9238,note_on,22,0,2,,,,,,,,,0,,,82,0
9240,note_on,2,0,3,,,,,,,,,2,,,81,108
9240,note_on,2,0,2,,,,,,,,,0,,,81,108
9240,note_on,2,0,1,,,,,,,,,11,,,81,108
9262,note_on,22,0,2,,,,,,,,,0,,,81,0
9262,note_on,22,0,3,,,,,,,,,2,,,81,0
9262,note_on,22,0,1,,,,,,,,,11,,,81,0
9264,note_on,2,0,1,,,,,,,,,11,,,79,108
9264,note_on,2,0,2,,,,,,,,,0,,,79,108
9264,note_on,2,0,3,,,,,,,,,2,,,79,108
9286,note_on,70,0,5,,,,,,,,,6,,,48,0
9286,note_on,70,0,6,,,,,,,,,8,,,36,0
9286,note_on,70,0,4,,,,,,,,,4,,,63,0
9310,note_on,46,0,2,,,,,,,,,0,,,79,0
9310,note_on,46,0,3,,,,,,,,,2,,,79,0
9310,note_on,46,0,1,,,,,,,,,11,,,79,0
9312,note_on,2,0,2,,,,,,,,,0,,,81,108
9312,note_on,26,0,4,,,,,,,,,4,,,63,108
9312,note_on,26,0,5,,,,,,,,,6,,,48,108
9312,note_on,26,0,6,,,,,,,,,8,,,36,108
9312,note_on,2,0,3,,,,,,,,,2,,,81,108
9312,note_on,2,0,1,,,,,,,,,11,,,81,108
9382,note_on,70,0,4,,,,,,,,,4,,,63,0
9382,note_on,70,0,5,,,,,,,,,6,,,48,0
9382,note_on,70,0,6,,,,,,,,,8,,,36,0
9406,note_on,94,0,1,,,,,,,,,11,,,81,0
9406,note_on,94,0,2,,,,,,,,,0,,,81,0
9406,note_on,94,0,3,,,,,,,,,2,,,81,0
9408,note_on,26,0,5,,,,,,,,,6,,,49,108
9408,note_on,26,0,6,,,,,,,,,8,,,37,108
9408,note_on,2,0,1,,,,,,,,,11,,,81,108
9408,note_on,2,0,2,,,,,,,,,0,,,81,108
9408,note_on,26,0,4,,,,,,,,,4,,,64,108
9408,note_on,2,0,3,,,,,,,,,2,,,81,108
9430,note_on,22,0,3,,,,,,,,,2,,,81,0
9430,note_on,22,0,2,,,,,,,,,0,,,81,0
9430,note_on,22,0,1,,,,,,,,,11,,,81,0
9432,note_on,2,0,1,,,,,,,,,11,,,79,108
9432,note_on,2,0,2,,,,,,,,,0,,,79,108
9432,note_on,2,0,3,,,,,,,,,2,,,79,108
9454,note_on,22,0,2,,,,,,,,,0,,,79,0
9454,note_on,22,0,3,,,,,,,,,2,,,79,0
9454,note_on,22,0,1,,,,,,,,,11,,,79,0
9456,note_on,2,0,1,,,,,,,,,11,,,78,108
9456,note_on,2,0,2,,,,,,,,,0,,,78,108
9456,note_on,2,0,3,,,,,,,,,2,,,78,108
9478,note_on,70,0,4,,,,,,,,,4,,,64,0
9478,note_on,70,0,5,,,,,,,,,6,,,49,0
9478,note_on,70,0,6,,,,,,,,,8,,,37,0
9502,note_on,46,0,1,,,,,,,,,11,,,78,0
9502,note_on,46,0,2,,,,,,,,,0,,,78,0
9502,note_on,46,0,3,,,,,,,,,2,,,78,0
9504,note_on,26,0,6,,,,,,,,,8,,,37,108
9504,note_on,2,0,1,,,,,,,,,11,,,79,108
9504,note_on,26,0,4,,,,,,,,,4,,,64,108
9504,note_on,2,0,2,,,,,,,,,0,,,79,108
9504,note_on,2,0,3,,,,,,,,,2,,,79,108
9504,note_on,26,0,5,,,,,,,,,6,,,49,108
9574,note_on,70,0,6,,,,,,,,,8,,,37,0
9574,note_on,70,0,4,,,,,,,,,4,,,64,0
9574,note_on,70,0,5,,,,,,,,,6,,,49,0
9598,note_on,94,0,3,,,,,,,,,2,,,79,0
9598,note_on,94,0,2,,,,,,,,,0,,,79,0
9598,note_on,94,0,1,,,,,,,,,11,,,79,0
9600,note_on,2,0,2,,,,,,,,,0,,,78,108
9600,note_on,26,0,4,,,,,,,,,4,,,57,108
9600,note_on,26,0,5,,,,,,,,,6,,,50,108
9600,note_on,26,0,6,,,,,,,,,8,,,38,108
9600,note_on,2,0,3,,,,,,,,,2,,,78,108
9600,note_on,2,0,1,,,,,,,,,11,,,78,108
9694,note_on,94,0,5,,,,,,,,,6,,,50,0
9694,note_on,94,0,1,,,,,,,,,11,,,78,0
9694,note_on,94,0,6,,,,,,,,,8,,,38,0
9694,note_on,94,0,3,,,,,,,,,2,,,78,0
9694,note_on,94,0,2,,,,,,,,,0,,,78,0
9694,note_on,94,0,4,,,,,,,,,4,,,57,0
9696,note_on,2,0,5,,,,,,,,,6,,,50,108
9696,note_on,2,0,1,,,,,,,,,11,,,76,108
9696,note_on,2,0,4,,,,,,,,,4,,,57,108
9696,note_on,2,0,6,,,,,,,,,8,,,38,108
9696,note_on,2,0,2,,,,,,,,,0,,,76,108
9696,note_on,2,0,3,,,,,,,,,2,,,76,108
9790,note_on,94,0,1,,,,,,,,,11,,,76,0
9790,note_on,94,0,3,,,,,,,,,2,,,76,0
9790,note_on,94,0,4,,,,,,,,,4,,,57,0
9790,note_on,94,0,5,,,,,,,,,6,,,50,0
9790,note_on,94,0,2,,,,,,,,,0,,,76,0
9790,note_on,94,0,6,,,,,,,,,8,,,38,0
9792,note_on,2,0,1,,,,,,,,,11,,,74,108
9792,note_on,2,0,4,,,,,,,,,4,,,57,108
9792,note_on,2,0,3,,,,,,,,,2,,,74,108
9792,note_on,2,0,2,,,,,,,,,0,,,74,108
9792,note_on,2,0,6,,,,,,,,,8,,,42,108
9792,note_on,2,0,5,,,,,,,,,6,,,54,108
9886,note_on,94,0,5,,,,,,,,,6,,,54,0
9886,note_on,94,0,4,,,,,,,,,4,,,57,0
9886,note_on,94,0,6,,,,,,,,,8,,,42,0
9888,note_on,2,0,5,,,,,,,,,6,,,54,108
9888,note_on,2,0,4,,,,,,,,,4,,,57,108
9888,note_on,2,0,6,,,,,,,,,8,,,42,108
9952,note_on,160,0,1,,,,,,,,,11,,,74,0
9952,note_on,160,0,3,,,,,,,,,2,,,74,0
9952,note_on,160,0,2,,,,,,,,,0,,,74,0
9982,note_on,94,0,4,,,,,,,,,4,,,57,0
9982,note_on,94,0,6,,,,,,,,,8,,,42,0
9982,note_on,94,0,5,,,,,,,,,6,,,54,0
9984,note_on,2,0,4,,,,,,,,,4,,,58,60
9984,note_on,32,0,2,,,,,,,,,0,,,67,60
9984,note_on,32,0,3,,,,,,,,,2,,,67,60
9984,note_on,2,0,5,,,,,,,,,6,,,55,60
9984,note_on,2,0,6,,,,,,,,,8,,,43,60
9984,note_on,32,0,1,,,,,,,,,11,,,67,60
10054,note_on,70,0,4,,,,,,,,,4,,,58,0
10054,note_on,70,0,5,,,,,,,,,6,,,55,0
10054,note_on,70,0,6,,,,,,,,,8,,,43,0
10080,note_on,26,0,5,,,,,,,,,6,,,55,60
10080,note_on,26,0,4,,,,,,,,,4,,,58,60
10080,note_on,26,0,6,,,,,,,,,8,,,43,60
10144,note_on,160,0,3,,,,,,,,,2,,,67,0
10144,note_on,160,0,1,,,,,,,,,11,,,67,0
10144,note_on,160,0,2,,,,,,,,,0,,,67,0
10150,note_on,70,0,4,,,,,,,,,4,,,58,0
10150,note_on,70,0,6,,,,,,,,,8,,,43,0
10150,note_on,70,0,5,,,,,,,,,6,,,55,0
10176,note_on,32,0,1,,,,,,,,,11,,,67,60
10176,note_on,26,0,6,,,,,,,,,8,,,43,60
10176,note_on,32,0,3,,,,,,,,,2,,,67,60
10176,note_on,32,0,2,,,,,,,,,0,,,67,60
10176,note_on,26,0,5,,,,,,,,,6,,,55,60
10176,note_on,26,0,4,,,,,,,,,4,,,58,60
10246,note_on,70,0,4,,,,,,,,,4,,,58,0
10246,note_on,70,0,6,,,,,,,,,8,,,43,0
10246,note_on,70,0,5,,,,,,,,,6,,,55,0
10270,note_on,94,0,3,,,,,,,,,2,,,67,0
10270,note_on,94,0,1,,,,,,,,,11,,,67,0
10270,note_on,94,0,2,,,,,,,,,0,,,67,0
10272,note_on,2,0,2,,,,,,,,,0,,,67,60
10272,note_on,26,0,4,,,,,,,,,4,,,58,60
10272,note_on,26,0,6,,,,,,,,,8,,,43,60
10272,note_on,26,0,5,,,,,,,,,6,,,55,60
10272,note_on,2,0,1,,,,,,,,,11,,,67,60
10272,note_on,2,0,3,,,,,,,,,2,,,67,60
10342,note_on,70,0,4,,,,,,,,,4,,,58,0
10342,note_on,70,0,5,,,,,,,,,6,,,55,0
10342,note_on,70,0,6,,,,,,,,,8,,,43,0
10366,note_on,94,0,1,,,,,,,,,11,,,67,0
10366,note_on,94,0,3,,,,,,,,,2,,,67,0
10366,note_on,94,0,2,,,,,,,,,0,,,67,0
10368,note_on,26,0,6,,,,,,,,,8,,,43,60
10368,note_on,2,0,1,,,,,,,,,11,,,67,60
10368,note_on,26,0,4,,,,,,,,,4,,,58,60
10368,note_on,26,0,5,,,,,,,,,6,,,55,60
10368,note_on,2,0,3,,,,,,,,,2,,,67,60
10368,note_on,2,0,2,,,,,,,,,0,,,67,60
10414,note_on,46,0,1,,,,,,,,,11,,,67,0
10414,note_on,46,0,3,,,,,,,,,2,,,67,0
10414,note_on,46,0,2,,,,,,,,,0,,,67,0
10416,note_on,2,0,2,,,,,,,,,0,,,69,60
10416,note_on,2,0,3,,,,,,,,,2,,,69,60
10416,note_on,2,0,1,,,,,,,,,11,,,69,60
10438,note_on,70,0,4,,,,,,,,,4,,,58,0
10438,note_on,70,0,6,,,,,,,,,8,,,43,0
10438,note_on,70,0,5,,,,,,,,,6,,,55,0
10462,note_on,46,0,2,,,,,,,,,0,,,69,0
10462,note_on,46,0,3,,,,,,,,,2,,,69,0
10462,note_on,46,0,1,,,,,,,,,11,,,69,0
10464,note_on,26,0,6,,,,,,,,,8,,,43,60
10464,note_on,26,0,5,,,,,,,,,6,,,55,60
10464,note_on,2,0,2,,,,,,,,,0,,,70,60
10464,note_on,2,0,3,,,,,,,,,2,,,70,60
10464,note_on,26,0,4,,,,,,,,,4,,,58,60
10464,note_on,2,0,1,,,,,,,,,11,,,70,60
10510,note_on,46,0,1,,,,,,,,,11,,,70,0
10510,note_on,46,0,2,,,,,,,,,0,,,70,0
10510,note_on,46,0,3,,,,,,,,,2,,,70,0
10512,note_on,2,0,1,,,,,,,,,11,,,72,60
10512,note_on,2,0,2,,,,,,,,,0,,,72,60
10512,note_on,2,0,3,,,,,,,,,2,,,72,60
10534,note_on,70,0,5,,,,,,,,,6,,,55,0
10534,note_on,70,0,4,,,,,,,,,4,,,58,0
10534,note_on,70,0,6,,,,,,,,,8,,,43,0
10558,note_on,46,0,3,,,,,,,,,2,,,72,0
10558,note_on,46,0,1,,,,,,,,,11,,,72,0
10558,note_on,46,0,2,,,,,,,,,0,,,72,0
10560,note_on,2,0,1,,,,,,,,,11,,,74,60
10560,note_on,2,0,3,,,,,,,,,2,,,74,60
10560,note_on,26,0,5,,,,,,,,,6,,,55,60
10560,note_on,26,0,4,,,,,,,,,4,,,58,60
10560,note_on,26,0,6,,,,,,,,,8,,,43,60
10560,note_on,2,0,2,,,,,,,,,0,,,74,60
10630,note_on,70,0,4,,,,,,,,,4,,,58,0
10630,note_on,70,0,6,,,,,,,,,8,,,43,0
10630,note_on,70,0,5,,,,,,,,,6,,,55,0
10654,note_on,94,0,2,,,,,,,,,0,,,74,0
10654,note_on,94,0,3,,,,,,,,,2,,,74,0
10654,note_on,94,0,1,,,,,,,,,11,,,74,0
10656,note_on,2,0,1,,,,,,,,,11,,,82,127
10656,note_on,26,0,6,,,,,,,,,8,,,43,108
10656,note_on,26,0,5,,,,,,,,,6,,,55,108
10656,note_on,26,0,4,,,,,,,,,4,,,62,108
10656,note_on,2,0,3,,,,,,,,,2,,,82,127
10656,note_on,2,0,2,,,,,,,,,0,,,82,127
10726,note_on,70,0,6,,,,,,,,,8,,,43,0
10726,note_on,70,0,4,,,,,,,,,4,,,62,0
10726,note_on,70,0,5,,,,,,,,,6,,,55,0
10750,note_on,94,0,1,,,,,,,,,11,,,82,0
10750,note_on,94,0,3,,,,,,,,,2,,,82,0
10750,note_on,94,0,2,,,,,,,,,0,,,82,0
10752,note_on,26,0,5,,,,,,,,,6,,,48,108
10752,note_on,26,0,6,,,,,,,,,8,,,36,108
10752,note_on,2,0,1,,,,,,,,,11,,,82,127
10752,note_on,2,0,3,,,,,,,,,2,,,82,127
10752,note_on,26,0,4,,,,,,,,,4,,,63,108
10752,note_on,2,0,2,,,,,,,,,0,,,82,127
10774,note_on,22,0,3,,,,,,,,,2,,,82,0
10774,note_on,22,0,2,,,,,,,,,0,,,82,0
10774,note_on,22,0,1,,,,,,,,,11,,,82,0
10776,note_on,2,0,2,,,,,,,,,0,,,81,127
10776,note_on,2,0,1,,,,,,,,,11,,,81,127
10776,note_on,2,0,3,,,,,,,,,2,,,81,127
10798,note_on,22,0,1,,,,,,,,,11,,,81,0
10798,note_on,22,0,2,,,,,,,,,0,,,81,0
10798,note_on,22,0,3,,,,,,,,,2,,,81,0
10800,note_on,2,0,3,,,,,,,,,2,,,79,127
10800,note_on,2,0,1,,,,,,,,,11,,,79,127
10800,note_on,2,0,2,,,,,,,,,0,,,79,127
10822,note_on,70,0,6,,,,,,,,,8,,,36,0
10822,note_on,70,0,4,,,,,,,,,4,,,63,0
10822,note_on,70,0,5,,,,,,,,,6,,,48,0
10846,note_on,46,0,2,,,,,,,,,0,,,79,0
10846,note_on,46,0,3,,,,,,,,,2,,,79,0
10846,note_on,46,0,1,,,,,,,,,11,,,79,0
10848,note_on,26,0,4,,,,,,,,,4,,,63,108
10848,note_on,26,0,6,,,,,,,,,8,,,36,108
10848,note_on,2,0,2,,,,,,,,,0,,,81,127
10848,note_on,26,0,5,,,,,,,,,6,,,48,108
10848,note_on,2,0,3,,,,,,,,,2,,,81,127
10848,note_on,2,0,1,,,,,,,,,11,,,81,127
10918,note_on,70,0,5,,,,,,,,,6,,,48,0
10918,note_on,70,0,4,,,,,,,,,4,,,63,0
10918,note_on,70,0,6,,,,,,,,,8,,,36,0
10942,note_on,94,0,3,,,,,,,,,2,,,81,0
10942,note_on,94,0,2,,,,,,,,,0,,,81,0
10942,note_on,94,0,1,,,,,,,,,11,,,81,0
10944,note_on,2,0,2,,,,,,,,,0,,,81,127
10944,note_on,26,0,5,,,,,,,,,6,,,49,108
10944,note_on,2,0,1,,,,,,,,,11,,,81,127
10944,note_on,2,0,3,,,,,,,,,2,,,81,127
10944,note_on,26,0,6,,,,,,,,,8,,,37,108
10944,note_on,26,0,4,,,,,,,,,4,,,64,108
10966,note_on,22,0,3,,,,,,,,,2,,,81,0
10966,note_on,22,0,2,,,,,,,,,0,,,81,0
10966,note_on,22,0,1,,,,,,,,,11,,,81,0
10968,note_on,2,0,3,,,,,,,,,2,,,79,127
10968,note_on,2,0,2,,,,,,,,,0,,,79,127
10968,note_on,2,0,1,,,,,,,,,11,,,79,127
10990,note_on,22,0,1,,,,,,,,,11,,,79,0
10990,note_on,22,0,3,,,,,,,,,2,,,79,0
10990,note_on,22,0,2,,,,,,,,,0,,,79,0
10992,note_on,2,0,1,,,,,,,,,11,,,78,127
10992,note_on,2,0,2,,,,,,,,,0,,,78,127
10992,note_on,2,0,3,,,,,,,,,2,,,78,127
11014,note_on,70,0,5,,,,,,,,,6,,,49,0
11014,note_on,70,0,6,,,,,,,,,8,,,37,0
11014,note_on,70,0,4,,,,,,,,,4,,,64,0
11038,note_on,46,0,2,,,,,,,,,0,,,78,0
11038,note_on,46,0,1,,,,,,,,,11,,,78,0
11038,note_on,46,0,3,,,,,,,,,2,,,78,0
11040,note_on,26,0,4,,,,,,,,,4,,,64,108
11040,note_on,2,0,1,,,,,,,,,11,,,79,127
11040,note_on,26,0,5,,,,,,,,,6,,,49,108
11040,note_on,2,0,2,,,,,,,,,0,,,79,127
11040,note_on,26,0,6,,,,,,,,,8,,,37,108
11040,note_on,2,0,3,,,,,,,,,2,,,79,127
11110,note_on,70,0,5,,,,,,,,,6,,,49,0
11110,note_on,70,0,4,,,,,,,,,4,,,64,0
11110,note_on,70,0,6,,,,,,,,,8,,,37,0
11134,note_on,94,0,1,,,,,,,,,11,,,79,0
11134,note_on,94,0,3,,,,,,,,,2,,,79,0
11134,note_on,94,0,2,,,,,,,,,0,,,79,0
11136,note_on,26,0,6,,,,,,,,,8,,,38,108
11136,note_on,2,0,2,,,,,,,,,0,,,78,127
11136,note_on,26,0,5,,,,,,,,,6,,,50,108
11136,note_on,26,0,4,,,,,,,,,4,,,57,108
11136,note_on,2,0,1,,,,,,,,,11,,,78,127
11136,note_on,2,0,3,,,,,,,,,2,,,78,127
11230,note_on,94,0,6,,,,,,,,,8,,,38,0
11230,note_on,94,0,2,,,,,,,,,0,,,78,0
11230,note_on,94,0,5,,,,,,,,,6,,,50,0
11230,note_on,94,0,1,,,,,,,,,11,,,78,0
11230,note_on,94,0,4,,,,,,,,,4,,,57,0
11230,note_on,94,0,3,,,,,,,,,2,,,78,0
11232,note_on,2,0,3,,,,,,,,,2,,,72,127
11232,note_on,2,0,1,,,,,,,,,11,,,72,127
11232,note_on,2,0,4,,,,,,,,,4,,,66,108
11232,note_on,2,0,6,,,,,,,,,8,,,38,108
11232,note_on,2,0,5,,,,,,,,,6,,,50,108
11232,note_on,2,0,2,,,,,,,,,0,,,72,127
11326,note_on,94,0,4,,,,,,,,,4,,,66,0
11326,note_on,94,0,3,,,,,,,,,2,,,72,0
11326,note_on,94,0,5,,,,,,,,,6,,,50,0
11326,note_on,94,0,1,,,,,,,,,11,,,72,0
11326,note_on,94,0,6,,,,,,,,,8,,,38,0
11326,note_on,94,0,2,,,,,,,,,0,,,72,0
11328,note_on,2,0,6,,,,,,,,,8,,,38,108
11328,note_on,2,0,1,,,,,,,,,11,,,74,127
11328,note_on,2,0,4,,,,,,,,,4,,,66,108
11328,set_tempo,7968,1,0,530973,,,,,,,,,,,,
11328,note_on,2,0,2,,,,,,,,,0,,,74,127
11328,note_on,2,0,5,,,,,,,,,6,,,50,108
11328,note_on,2,0,3,,,,,,,,,2,,,74,127
11350,note_on,22,0,1,,,,,,,,,11,,,74,0
11350,note_on,22,0,3,,,,,,,,,2,,,74,0
11350,note_on,22,0,2,,,,,,,,,0,,,74,0
11352,note_on,2,0,1,,,,,,,,,11,,,72,127
11352,note_on,2,0,2,,,,,,,,,0,,,72,127
11352,note_on,2,0,3,,,,,,,,,2,,,72,127
11374,note_on,22,0,2,,,,,,,,,0,,,72,0
11374,note_on,22,0,1,,,,,,,,,11,,,72,0
11374,note_on,22,0,3,,,,,,,,,2,,,72,0
11376,note_on,2,0,2,,,,,,,,,0,,,70,127
11376,note_on,2,0,3,,,,,,,,,2,,,70,127
11376,note_on,2,0,1,,,,,,,,,11,,,70,127
11422,note_on,94,0,4,,,,,,,,,4,,,66,0
11422,note_on,94,0,6,,,,,,,,,8,,,38,0
11422,note_on,46,0,2,,,,,,,,,0,,,70,0
11422,note_on,94,0,5,,,,,,,,,6,,,50,0
11422,note_on,46,0,3,,,,,,,,,2,,,70,0
11422,note_on,46,0,1,,,,,,,,,11,,,70,0
11424,note_on,2,0,2,,,,,,,,,0,,,72,127
11424,note_on,2,0,6,,,,,,,,,8,,,38,108
11424,note_on,2,0,1,,,,,,,,,11,,,72,127
11424,note_on,2,0,5,,,,,,,,,6,,,50,108
11424,set_tempo,96,1,0,500000,,,,,,,,,,,,
11424,note_on,2,0,3,,,,,,,,,2,,,72,127
11424,note_on,2,0,4,,,,,,,,,4,,,66,108
11518,note_on,94,0,4,,,,,,,,,4,,,66,0
11518,note_on,94,0,1,,,,,,,,,11,,,72,0
11518,note_on,94,0,6,,,,,,,,,8,,,38,0
11518,note_on,94,0,3,,,,,,,,,2,,,72,0
11518,note_on,94,0,2,,,,,,,,,0,,,72,0
11518,note_on,94,0,5,,,,,,,,,6,,,50,0
11520,note_on,2,0,1,,,,,,,,,11,,,78,127
11520,note_on,2,0,2,,,,,,,,,0,,,78,127
11520,note_on,2,0,4,,,,,,,,,4,,,69,108
11520,note_on,2,0,3,,,,,,,,,2,,,78,127
11520,note_on,2,0,6,,,,,,,,,8,,,38,108
11520,note_on,2,0,5,,,,,,,,,6,,,50,108
11614,note_on,94,0,5,,,,,,,,,6,,,50,0
11614,note_on,94,0,6,,,,,,,,,8,,,38,0
11614,note_on,94,0,4,,,,,,,,,4,,,69,0
11614,note_on,94,0,1,,,,,,,,,11,,,78,0
11614,note_on,94,0,3,,,,,,,,,2,,,78,0
11614,note_on,94,0,2,,,,,,,,,0,,,78,0
11616,note_on,2,0,4,,,,,,,,,4,,,66,108
11616,note_on,2,0,6,,,,,,,,,8,,,38,108
11616,note_on,2,0,1,,,,,,,,,11,,,72,127
11616,note_on,2,0,3,,,,,,,,,2,,,72,127
11616,note_on,2,0,2,,,,,,,,,0,,,72,127
11616,note_on,2,0,5,,,,,,,,,6,,,50,108
11616,set_tempo,192,1,0,487804,,,,,,,,,,,,
11710,note_on,94,0,3,,,,,,,,,2,,,72,0
11710,note_on,94,0,5,,,,,,,,,6,,,50,0
11710,note_on,94,0,2,,,,,,,,,0,,,72,0
11710,note_on,94,0,6,,,,,,,,,8,,,38,0
11710,note_on,94,0,1,,,,,,,,,11,,,72,0
11710,note_on,94,0,4,,,,,,,,,4,,,66,0
11712,note_on,2,0,1,,,,,,,,,11,,,74,127
11712,note_on,2,0,2,,,,,,,,,0,,,74,127
11712,note_on,2,0,3,,,,,,,,,2,,,74,127
11712,note_on,2,0,6,,,,,,,,,8,,,38,108
11712,note_on,2,0,5,,,,,,,,,6,,,50,108
11712,note_on,2,0,4,,,,,,,,,4,,,66,108
11734,note_on,22,0,3,,,,,,,,,2,,,74,0
11734,note_on,22,0,2,,,,,,,,,0,,,74,0
11734,note_on,22,0,1,,,,,,,,,11,,,74,0
11736,note_on,2,0,3,,,,,,,,,2,,,72,127
11736,note_on,2,0,2,,,,,,,,,0,,,72,127
11736,note_on,2,0,1,,,,,,,,,11,,,72,127
11758,note_on,22,0,2,,,,,,,,,0,,,72,0
11758,note_on,22,0,3,,,,,,,,,2,,,72,0
11758,note_on,22,0,1,,,,,,,,,11,,,72,0
11760,note_on,2,0,2,,,,,,,,,0,,,70,127
11760,note_on,2,0,3,,,,,,,,,2,,,70,127
11760,note_on,2,0,1,,,,,,,,,11,,,70,127
11806,note_on,46,0,2,,,,,,,,,0,,,70,0
11806,note_on,46,0,3,,,,,,,,,2,,,70,0
11806,note_on,46,0,1,,,,,,,,,11,,,70,0
11806,note_on,94,0,6,,,,,,,,,8,,,38,0
11806,note_on,94,0,4,,,,,,,,,4,,,66,0
11806,note_on,94,0,5,,,,,,,,,6,,,50,0
11808,note_on,2,0,3,,,,,,,,,2,,,72,127
11808,note_on,2,0,2,,,,,,,,,0,,,72,127
11808,note_on,2,0,5,,,,,,,,,6,,,50,108
11808,note_on,2,0,4,,,,,,,,,4,,,66,108
11808,note_on,2,0,6,,,,,,,,,8,,,38,108
11808,note_on,2,0,1,,,,,,,,,11,,,72,127
11902,note_on,94,0,5,,,,,,,,,6,,,50,0
11902,note_on,94,0,2,,,,,,,,,0,,,72,0
11902,note_on,94,0,3,,,,,,,,,2,,,72,0
11902,note_on,94,0,4,,,,,,,,,4,,,66,0
11902,note_on,94,0,1,,,,,,,,,11,,,72,0
11902,note_on,94,0,6,,,,,,,,,8,,,38,0
11904,note_on,2,0,1,,,,,,,,,11,,,81,127
11904,note_on,2,0,2,,,,,,,,,0,,,81,127
11904,note_on,2,0,6,,,,,,,,,8,,,38,108
11904,note_on,2,0,5,,,,,,,,,6,,,50,108
11904,note_on,2,0,4,,,,,,,,,4,,,66,108
11904,note_on,2,0,3,,,,,,,,,2,,,81,127
11998,note_on,94,0,2,,,,,,,,,0,,,81,0
11998,note_on,94,0,1,,,,,,,,,11,,,81,0
11998,note_on,94,0,3,,,,,,,,,2,,,81,0
11998,note_on,94,0,6,,,,,,,,,8,,,38,0
11998,note_on,94,0,4,,,,,,,,,4,,,66,0
11998,note_on,94,0,5,,,,,,,,,6,,,50,0
12000,note_on,2,0,4,,,,,,,,,4,,,69,108
12000,note_on,2,0,1,,,,,,,,,11,,,72,127
12000,note_on,2,0,2,,,,,,,,,0,,,72,127
12000,note_on,2,0,6,,,,,,,,,8,,,38,108
12000,note_on,2,0,5,,,,,,,,,6,,,50,108
12000,note_on,2,0,3,,,,,,,,,2,,,72,127
12094,note_on,94,0,3,,,,,,,,,2,,,72,0
12094,note_on,94,0,5,,,,,,,,,6,,,50,0
12094,note_on,94,0,1,,,,,,,,,11,,,72,0
12094,note_on,94,0,6,,,,,,,,,8,,,38,0
12094,note_on,94,0,2,,,,,,,,,0,,,72,0
12094,note_on,94,0,4,,,,,,,,,4,,,69,0
12096,note_on,2,0,4,,,,,,,,,4,,,69,108
12096,note_on,2,0,1,,,,,,,,,11,,,74,127
12096,note_on,2,0,2,,,,,,,,,0,,,74,127
12096,note_on,2,0,6,,,,,,,,,8,,,38,108
12096,note_on,2,0,3,,,,,,,,,2,,,74,127
12096,note_on,2,0,5,,,,,,,,,6,,,50,108
12118,note_on,22,0,1,,,,,,,,,11,,,74,0
12118,note_on,22,0,3,,,,,,,,,2,,,74,0
12118,note_on,22,0,2,,,,,,,,,0,,,74,0
12120,note_on,2,0,2,,,,,,,,,0,,,72,127
12120,note_on,2,0,3,,,,,,,,,2,,,72,127
12120,note_on,2,0,1,,,,,,,,,11,,,72,127
12142,note_on,22,0,2,,,,,,,,,0,,,72,0
12142,note_on,22,0,3,,,,,,,,,2,,,72,0
12142,note_on,22,0,1,,,,,,,,,11,,,72,0
12144,note_on,2,0,3,,,,,,,,,2,,,70,127
12144,note_on,2,0,1,,,,,,,,,11,,,70,127
12144,note_on,2,0,2,,,,,,,,,0,,,70,127
12190,note_on,46,0,1,,,,,,,,,11,,,70,0
12190,note_on,94,0,5,,,,,,,,,6,,,50,0
12190,note_on,94,0,6,,,,,,,,,8,,,38,0
12190,note_on,46,0,3,,,,,,,,,2,,,70,0
12190,note_on,46,0,2,,,,,,,,,0,,,70,0
12190,note_on,94,0,4,,,,,,,,,4,,,69,0
12192,note_on,2,0,4,,,,,,,,,4,,,66,108
12192,note_on,2,0,6,,,,,,,,,8,,,38,108
12192,note_on,2,0,5,,,,,,,,,6,,,50,108
12192,note_on,2,0,3,,,,,,,,,2,,,72,127
12192,note_on,2,0,1,,,,,,,,,11,,,72,127
12192,note_on,2,0,2,,,,,,,,,0,,,72,127
12286,note_on,94,0,5,,,,,,,,,6,,,50,0
12286,note_on,94,0,3,,,,,,,,,2,,,72,0
12286,note_on,94,0,1,,,,,,,,,11,,,72,0
12286,note_on,94,0,2,,,,,,,,,0,,,72,0
12286,note_on,94,0,6,,,,,,,,,8,,,38,0
12286,note_on,94,0,4,,,,,,,,,4,,,66,0
12288,note_on,2,0,2,,,,,,,,,0,,,70,127
12288,note_on,2,0,5,,,,,,,,,6,,,55,108
12288,note_on,2,0,1,,,,,,,,,11,,,70,127
12288,note_on,2,0,3,,,,,,,,,2,,,70,127
12288,note_on,2,0,6,,,,,,,,,8,,,43,108
12288,note_on,2,0,4,,,,,,,,,4,,,62,108
12382,note_on,94,0,5,,,,,,,,,6,,,55,0
12382,note_on,94,0,1,,,,,,,,,11,,,70,0
12382,note_on,94,0,3,,,,,,,,,2,,,70,0
12382,note_on,94,0,6,,,,,,,,,8,,,43,0
12382,note_on,94,0,4,,,,,,,,,4,,,62,0
12382,note_on,94,0,2,,,,,,,,,0,,,70,0
12384,note_on,2,0,5,,,,,,,,,6,,,55,108
12384,note_on,2,0,2,,,,,,,,,0,,,79,127
12384,note_on,2,0,3,,,,,,,,,2,,,79,127
12384,note_on,2,0,4,,,,,,,,,4,,,62,108
12384,note_on,2,0,1,,,,,,,,,11,,,79,127
12384,note_on,2,0,6,,,,,,,,,8,,,43,108
12478,note_on,94,0,1,,,,,,,,,11,,,79,0
12478,note_on,94,0,5,,,,,,,,,6,,,55,0
12478,note_on,94,0,2,,,,,,,,,0,,,79,0
12478,note_on,94,0,3,,,,,,,,,2,,,79,0
12478,note_on,94,0,4,,,,,,,,,4,,,62,0
12478,note_on,94,0,6,,,,,,,,,8,,,43,0
12480,note_on,2,0,4,,,,,,,,,4,,,63,108
12480,note_on,2,0,6,,,,,,,,,8,,,36,108
12480,note_on,2,0,5,,,,,,,,,6,,,48,108
12480,note_on,2,0,2,,,,,,,,,0,,,81,127
12480,note_on,2,0,3,,,,,,,,,2,,,81,127
12480,note_on,2,0,1,,,,,,,,,11,,,81,127
12574,note_on,94,0,5,,,,,,,,,6,,,48,0
12574,note_on,94,0,1,,,,,,,,,11,,,81,0
12574,note_on,94,0,6,,,,,,,,,8,,,36,0
12574,note_on,94,0,2,,,,,,,,,0,,,81,0
12574,note_on,94,0,4,,,,,,,,,4,,,63,0
12574,note_on,94,0,3,,,,,,,,,2,,,81,0
12576,note_on,2,0,1,,,,,,,,,11,,,78,127
12576,note_on,2,0,6,,,,,,,,,8,,,38,108
12576,note_on,2,0,3,,,,,,,,,2,,,78,127
12576,note_on,2,0,5,,,,,,,,,6,,,50,108
12576,note_on,2,0,2,,,,,,,,,0,,,78,127
12576,note_on,2,0,4,,,,,,,,,4,,,62,108
12670,note_on,94,0,4,,,,,,,,,4,,,62,0
12670,note_on,94,0,6,,,,,,,,,8,,,38,0
12670,note_on,94,0,3,,,,,,,,,2,,,78,0
12670,note_on,94,0,5,,,,,,,,,6,,,50,0
12670,note_on,94,0,2,,,,,,,,,0,,,78,0
12670,note_on,94,0,1,,,,,,,,,11,,,78,0
12672,note_on,2,0,5,,,,,,,,,6,,,43,108
12672,note_on,2,0,6,,,,,,,,,8,,,31,108
12672,note_on,2,0,4,,,,,,,,,4,,,62,108
12672,note_on,2,0,3,,,,,,,,,2,,,79,127
12672,note_on,2,0,2,,,,,,,,,0,,,79,127
12672,note_on,2,0,1,,,,,,,,,11,,,79,127
12928,note_on,256,0,1,,,,,,,,,11,,,79,0
12928,note_on,256,0,2,,,,,,,,,0,,,79,0
12960,note_on,32,0,1,,,,,,,,,11,,,74,127
12960,note_on,32,0,2,,,,,,,,,0,,,67,75
13008,note_on,336,0,6,,,,,,,,,8,,,31,0
13008,note_on,336,0,3,,,,,,,,,2,,,79,0
13008,note_on,336,0,4,,,,,,,,,4,,,62,0
13008,note_on,336,0,5,,,,,,,,,6,,,43,0
13054,note_on,94,0,2,,,,,,,,,0,,,67,0
13054,note_on,94,0,1,,,,,,,,,11,,,74,0
13056,note_on,2,0,1,,,,,,,,,11,,,75,127
13056,note_on,2,0,2,,,,,,,,,0,,,67,75
13078,note_on,22,0,1,,,,,,,,,11,,,75,0
13080,note_on,2,0,1,,,,,,,,,11,,,74,127
13102,note_on,22,0,1,,,,,,,,,11,,,74,0
13104,note_on,2,0,1,,,,,,,,,11,,,72,127
13150,note_on,94,0,2,,,,,,,,,0,,,67,0
13150,note_on,46,0,1,,,,,,,,,11,,,72,0
13152,note_on,2,0,2,,,,,,,,,0,,,69,75
13152,note_on,2,0,1,,,,,,,,,11,,,74,127
13246,note_on,94,0,1,,,,,,,,,11,,,74,0
13246,note_on,94,0,2,,,,,,,,,0,,,69,0
13248,note_on,2,0,1,,,,,,,,,11,,,75,127
13248,note_on,2,0,2,,,,,,,,,0,,,70,75
13270,note_on,22,0,1,,,,,,,,,11,,,75,0
13272,note_on,2,0,1,,,,,,,,,11,,,74,127
13294,note_on,22,0,1,,,,,,,,,11,,,74,0
13296,note_on,2,0,1,,,,,,,,,11,,,72,127
13342,note_on,46,0,1,,,,,,,,,11,,,72,0
13342,note_on,94,0,2,,,,,,,,,0,,,70,0
13344,note_on,2,0,2,,,,,,,,,0,,,69,75
13344,note_on,2,0,1,,,,,,,,,11,,,74,127
13438,note_on,94,0,1,,,,,,,,,11,,,74,0
13438,note_on,94,0,2,,,,,,,,,0,,,69,0
13440,note_on,2,0,2,,,,,,,,,0,,,67,75
13440,note_on,2,0,1,,,,,,,,,11,,,79,127
13534,note_on,94,0,1,,,,,,,,,11,,,79,0
13534,note_on,94,0,2,,,,,,,,,0,,,67,0
13536,note_on,2,0,1,,,,,,,,,11,,,81,127
13536,note_on,2,0,2,,,,,,,,,0,,,62,75
13630,note_on,94,0,1,,,,,,,,,11,,,81,0
13630,note_on,94,0,2,,,,,,,,,0,,,62,0
13632,note_on,2,0,2,,,,,,,,,0,,,55,75
13632,note_on,2,0,1,,,,,,,,,11,,,82,127
13726,note_on,94,0,2,,,,,,,,,0,,,55,0
13726,note_on,94,0,1,,,,,,,,,11,,,82,0
13728,note_on,2,0,1,,,,,,,,,11,,,81,127
13728,note_on,2,0,2,,,,,,,,,0,,,62,75
13822,note_on,94,0,2,,,,,,,,,0,,,62,0
13822,note_on,94,0,1,,,,,,,,,11,,,81,0
13824,note_on,2,0,2,,,,,,,,,0,,,67,75
13824,note_on,2,0,1,,,,,,,,,11,,,81,127
13846,note_on,22,0,1,,,,,,,,,11,,,81,0
13848,note_on,2,0,1,,,,,,,,,11,,,79,127
13870,note_on,22,0,1,,,,,,,,,11,,,79,0
13872,note_on,2,0,1,,,,,,,,,11,,,78,127
13918,note_on,94,0,2,,,,,,,,,0,,,67,0
13918,note_on,46,0,1,,,,,,,,,11,,,78,0
13920,note_on,2,0,1,,,,,,,,,11,,,79,127
13920,note_on,2,0,2,,,,,,,,,0,,,69,75
14014,note_on,94,0,1,,,,,,,,,11,,,79,0
14014,note_on,94,0,2,,,,,,,,,0,,,69,0
14016,note_on,2,0,1,,,,,,,,,11,,,81,127
14016,note_on,2,0,2,,,,,,,,,0,,,70,75
14038,note_on,22,0,1,,,,,,,,,11,,,81,0
14040,note_on,2,0,1,,,,,,,,,11,,,79,127
14062,note_on,22,0,1,,,,,,,,,11,,,79,0
14064,note_on,2,0,1,,,,,,,,,11,,,78,127
14110,note_on,46,0,1,,,,,,,,,11,,,78,0
14110,note_on,94,0,2,,,,,,,,,0,,,70,0
14112,note_on,2,0,2,,,,,,,,,0,,,67,75
14112,note_on,2,0,1,,,,,,,,,11,,,79,127
14206,note_on,94,0,1,,,,,,,,,11,,,79,0
14206,note_on,94,0,2,,,,,,,,,0,,,67,0
14208,note_on,2,0,1,,,,,,,,,11,,,72,127
14208,note_on,2,0,2,,,,,,,,,0,,,69,75
14254,note_on,46,0,1,,,,,,,,,11,,,72,0
14256,note_on,2,0,1,,,,,,,,,11,,,75,127
14302,note_on,94,0,2,,,,,,,,,0,,,69,0
14302,note_on,46,0,1,,,,,,,,,11,,,75,0
14304,note_on,2,0,1,,,,,,,,,11,,,74,127
14304,note_on,2,0,2,,,,,,,,,0,,,62,75
14350,note_on,46,0,1,,,,,,,,,11,,,74,0
14352,note_on,2,0,1,,,,,,,,,11,,,72,127
14398,note_on,46,0,1,,,,,,,,,11,,,72,0
14398,note_on,94,0,2,,,,,,,,,0,,,62,0
14400,note_on,2,0,2,,,,,,,,,0,,,66,75
14400,note_on,2,0,1,,,,,,,,,11,,,81,127
14494,note_on,94,0,2,,,,,,,,,0,,,66,0
14496,note_on,2,0,2,,,,,,,,,0,,,62,75
14560,note_on,160,0,1,,,,,,,,,11,,,81,0
14590,note_on,94,0,2,,,,,,,,,0,,,62,0
14592,note_on,2,0,2,,,,,,,,,0,,,69,75
14592,note_on,32,0,1,,,,,,,,,11,,,72,127
14638,note_on,46,0,1,,,,,,,,,11,,,72,0
14640,note_on,2,0,1,,,,,,,,,11,,,75,127
14686,note_on,46,0,1,,,,,,,,,11,,,75,0
14686,note_on,94,0,2,,,,,,,,,0,,,69,0
14688,note_on,2,0,2,,,,,,,,,0,,,62,75
14688,note_on,2,0,1,,,,,,,,,11,,,74,127
14734,note_on,46,0,1,,,,,,,,,11,,,74,0
14736,note_on,2,0,1,,,,,,,,,11,,,72,127
14782,note_on,46,0,1,,,,,,,,,11,,,72,0
14782,note_on,94,0,2,,,,,,,,,0,,,62,0
14784,note_on,2,0,1,,,,,,,,,11,,,81,127
14784,note_on,2,0,2,,,,,,,,,0,,,66,75
14878,note_on,94,0,2,,,,,,,,,0,,,66,0
14880,note_on,2,0,2,,,,,,,,,0,,,62,75
14944,note_on,160,0,1,,,,,,,,,11,,,81,0
14974,note_on,94,0,2,,,,,,,,,0,,,62,0
14976,note_on,32,0,1,,,,,,,,,11,,,72,127
14976,note_on,2,0,2,,,,,,,,,0,,,69,75
15022,note_on,46,0,1,,,,,,,,,11,,,72,0
15024,note_on,2,0,1,,,,,,,,,11,,,75,127
15070,note_on,46,0,1,,,,,,,,,11,,,75,0
15070,note_on,94,0,2,,,,,,,,,0,,,69,0
15072,note_on,2,0,1,,,,,,,,,11,,,74,127
15072,note_on,2,0,2,,,,,,,,,0,,,62,75
15118,note_on,46,0,1,,,,,,,,,11,,,74,0
15120,note_on,2,0,1,,,,,,,,,11,,,72,127
15166,note_on,46,0,1,,,,,,,,,11,,,72,0
15166,note_on,94,0,2,,,,,,,,,0,,,62,0
15168,note_on,2,0,2,,,,,,,,,0,,,66,75
15168,note_on,2,0,1,,,,,,,,,11,,,81,127
15214,note_on,46,0,1,,,,,,,,,11,,,81,0
15216,note_on,2,0,1,,,,,,,,,11,,,72,127
15262,note_on,94,0,2,,,,,,,,,0,,,66,0
15262,note_on,46,0,1,,,,,,,,,11,,,72,0
15264,note_on,2,0,2,,,,,,,,,0,,,62,75
15264,note_on,2,0,1,,,,,,,,,11,,,70,127
15310,note_on,46,0,1,,,,,,,,,11,,,70,0
15312,note_on,2,0,1,,,,,,,,,11,,,69,127
15358,note_on,46,0,1,,,,,,,,,11,,,69,0
15358,note_on,94,0,2,,,,,,,,,0,,,62,0
15360,note_on,2,0,1,,,,,,,,,11,,,70,127
15360,note_on,2,0,2,,,,,,,,,0,,,67,75
15454,note_on,94,0,2,,,,,,,,,0,,,67,0
15454,note_on,94,0,1,,,,,,,,,11,,,70,0
15456,note_on,2,0,1,,,,,,,,,11,,,67,127
15456,note_on,2,0,2,,,,,,,,,0,,,69,75
15550,note_on,94,0,2,,,,,,,,,0,,,69,0
15552,note_on,2,0,2,,,,,,,,,0,,,70,75
15646,note_on,190,0,1,,,,,,,,,11,,,67,0
15646,note_on,94,0,2,,,,,,,,,0,,,70,0
15648,note_on,2,0,2,,,,,,,,,0,,,69,75
15648,note_on,2,0,1,,,,,,,,,11,,,74,127
15742,note_on,94,0,2,,,,,,,,,0,,,69,0
15742,note_on,94,0,1,,,,,,,,,11,,,74,0
15744,note_on,2,0,2,,,,,,,,,0,,,67,75
15744,note_on,2,0,1,,,,,,,,,11,,,75,127
15766,note_on,22,0,1,,,,,,,,,11,,,75,0
15768,note_on,2,0,1,,,,,,,,,11,,,74,127
15790,note_on,22,0,1,,,,,,,,,11,,,74,0
15792,note_on,2,0,1,,,,,,,,,11,,,72,127
15838,note_on,46,0,1,,,,,,,,,11,,,72,0
15838,note_on,94,0,2,,,,,,,,,0,,,67,0
15840,note_on,2,0,2,,,,,,,,,0,,,69,75
15840,note_on,2,0,1,,,,,,,,,11,,,74,127
15934,note_on,94,0,1,,,,,,,,,11,,,74,0
15934,note_on,94,0,2,,,,,,,,,0,,,69,0
15936,note_on,2,0,1,,,,,,,,,11,,,75,127
15936,note_on,2,0,2,,,,,,,,,0,,,70,75
15958,note_on,22,0,1,,,,,,,,,11,,,75,0
15960,note_on,2,0,1,,,,,,,,,11,,,74,127
15982,note_on,22,0,1,,,,,,,,,11,,,74,0
15984,note_on,2,0,1,,,,,,,,,11,,,72,127
16030,note_on,94,0,2,,,,,,,,,0,,,70,0
16030,note_on,46,0,1,,,,,,,,,11,,,72,0
16032,note_on,2,0,1,,,,,,,,,11,,,74,127
16032,note_on,2,0,2,,,,,,,,,0,,,69,75
16126,note_on,94,0,1,,,,,,,,,11,,,74,0
16126,note_on,94,0,2,,,,,,,,,0,,,69,0
16128,note_on,2,0,2,,,,,,,,,0,,,67,75
16128,note_on,2,0,1,,,,,,,,,11,,,82,127
16222,note_on,94,0,1,,,,,,,,,11,,,82,0
16224,note_on,2,0,1,,,,,,,,,11,,,79,127
16318,note_on,94,0,1,,,,,,,,,11,,,79,0
16320,note_on,2,0,1,,,,,,,,,11,,,75,127
16414,note_on,94,0,1,,,,,,,,,11,,,75,0
16416,note_on,2,0,1,,,,,,,,,11,,,74,127
16464,note_on,336,0,2,,,,,,,,,0,,,67,0
16510,note_on,94,0,1,,,,,,,,,11,,,74,0
16512,note_on,48,0,2,,,,,,,,,0,,,69,75
16512,note_on,2,0,1,,,,,,,,,11,,,74,127
16534,note_on,22,0,1,,,,,,,,,11,,,74,0
16536,note_on,2,0,1,,,,,,,,,11,,,72,127
16558,note_on,22,0,1,,,,,,,,,11,,,72,0
16560,note_on,2,0,1,,,,,,,,,11,,,70,127
16606,note_on,94,0,2,,,,,,,,,0,,,69,0
16606,note_on,46,0,1,,,,,,,,,11,,,70,0
16608,note_on,2,0,2,,,,,,,,,0,,,70,75
16608,note_on,2,0,1,,,,,,,,,11,,,72,127
16702,note_on,94,0,1,,,,,,,,,11,,,72,0
16702,note_on,94,0,2,,,,,,,,,0,,,70,0
16704,note_on,2,0,2,,,,,,,,,0,,,69,75
16704,note_on,2,0,1,,,,,,,,,11,,,74,127
16726,note_on,22,0,1,,,,,,,,,11,,,74,0
16728,note_on,2,0,1,,,,,,,,,11,,,72,127
16750,note_on,22,0,1,,,,,,,,,11,,,72,0
16752,note_on,2,0,1,,,,,,,,,11,,,70,127
16798,note_on,94,0,2,,,,,,,,,0,,,69,0
16798,note_on,46,0,1,,,,,,,,,11,,,70,0
16800,note_on,2,0,2,,,,,,,,,0,,,67,75
16800,note_on,2,0,1,,,,,,,,,11,,,72,127
16894,note_on,94,0,1,,,,,,,,,11,,,72,0
16894,note_on,94,0,2,,,,,,,,,0,,,67,0
16896,note_on,2,0,2,,,,,,,,,0,,,65,75
16896,note_on,2,0,1,,,,,,,,,11,,,81,127
16990,note_on,94,0,1,,,,,,,,,11,,,81,0
16992,note_on,2,0,1,,,,,,,,,11,,,77,127
17086,note_on,94,0,1,,,,,,,,,11,,,77,0
17088,note_on,2,0,1,,,,,,,,,11,,,74,127
17182,note_on,94,0,1,,,,,,,,,11,,,74,0
17184,note_on,2,0,1,,,,,,,,,11,,,72,127
17232,note_on,336,0,2,,,,,,,,,0,,,65,0
17278,note_on,94,0,1,,,,,,,,,11,,,72,0
17280,note_on,48,0,2,,,,,,,,,0,,,67,75
17280,note_on,2,0,1,,,,,,,,,11,,,72,127
17302,note_on,22,0,1,,,,,,,,,11,,,72,0
17304,note_on,2,0,1,,,,,,,,,11,,,70,127
17326,note_on,22,0,1,,,,,,,,,11,,,70,0
17328,note_on,2,0,1,,,,,,,,,11,,,69,127
17374,note_on,94,0,2,,,,,,,,,0,,,67,0
17374,note_on,46,0,1,,,,,,,,,11,,,69,0
17376,note_on,2,0,1,,,,,,,,,11,,,70,127
17376,note_on,2,0,2,,,,,,,,,0,,,69,75
17470,note_on,94,0,1,,,,,,,,,11,,,70,0
17470,note_on,94,0,2,,,,,,,,,0,,,69,0
17472,note_on,2,0,2,,,,,,,,,0,,,67,75
17472,note_on,2,0,1,,,,,,,,,11,,,72,127
17494,note_on,22,0,1,,,,,,,,,11,,,72,0
17496,note_on,2,0,1,,,,,,,,,11,,,70,127
17518,note_on,22,0,1,,,,,,,,,11,,,70,0
17520,note_on,2,0,1,,,,,,,,,11,,,69,127
17566,note_on,46,0,1,,,,,,,,,11,,,69,0
17566,note_on,94,0,2,,,,,,,,,0,,,67,0
17568,note_on,2,0,2,,,,,,,,,0,,,65,75
17568,note_on,2,0,1,,,,,,,,,11,,,70,127
17662,note_on,94,0,1,,,,,,,,,11,,,70,0
17662,note_on,94,0,2,,,,,,,,,0,,,65,0
17664,note_on,2,0,1,,,,,,,,,11,,,79,127
17664,note_on,2,0,2,,,,,,,,,0,,,63,75
17758,note_on,94,0,1,,,,,,,,,11,,,79,0
17760,note_on,2,0,1,,,,,,,,,11,,,75,127
17854,note_on,94,0,1,,,,,,,,,11,,,75,0
17856,note_on,2,0,1,,,,,,,,,11,,,72,127
17950,note_on,94,0,1,,,,,,,,,11,,,72,0
17952,note_on,2,0,1,,,,,,,,,11,,,70,127
18000,note_on,336,0,2,,,,,,,,,0,,,63,0
18046,note_on,94,0,1,,,,,,,,,11,,,70,0
18048,note_on,2,0,1,,,,,,,,,11,,,69,127
18048,note_on,48,0,2,,,,,,,,,0,,,65,75
18094,note_on,46,0,1,,,,,,,,,11,,,69,0
18096,note_on,2,0,1,,,,,,,,,11,,,72,127
18142,note_on,46,0,1,,,,,,,,,11,,,72,0
18142,note_on,94,0,2,,,,,,,,,0,,,65,0
18144,note_on,2,0,2,,,,,,,,,0,,,67,75
18144,note_on,2,0,1,,,,,,,,,11,,,70,127
18190,note_on,46,0,1,,,,,,,,,11,,,70,0
18192,note_on,2,0,1,,,,,,,,,11,,,69,127
18238,note_on,94,0,2,,,,,,,,,0,,,67,0
18238,note_on,46,0,1,,,,,,,,,11,,,69,0
18240,note_on,2,0,1,,,,,,,,,11,,,77,127
18240,note_on,2,0,2,,,,,,,,,0,,,69,75
18286,note_on,46,0,1,,,,,,,,,11,,,77,0
18288,note_on,2,0,1,,,,,,,,,11,,,72,127
18334,note_on,94,0,2,,,,,,,,,0,,,69,0
18334,note_on,46,0,1,,,,,,,,,11,,,72,0
18336,note_on,2,0,1,,,,,,,,,11,,,70,127
18336,note_on,2,0,2,,,,,,,,,0,,,65,75
18382,note_on,46,0,1,,,,,,,,,11,,,70,0
18384,note_on,2,0,1,,,,,,,,,11,,,69,127
18430,note_on,94,0,2,,,,,,,,,0,,,65,0
18430,note_on,46,0,1,,,,,,,,,11,,,69,0
18432,note_on,2,0,2,,,,,,,,,0,,,57,75
18432,note_on,2,0,1,,,,,,,,,11,,,77,127
18478,note_on,46,0,1,,,,,,,,,11,,,77,0
18480,note_on,2,0,1,,,,,,,,,11,,,79,127
18526,note_on,46,0,1,,,,,,,,,11,,,79,0
18526,note_on,94,0,2,,,,,,,,,0,,,57,0
18528,note_on,2,0,1,,,,,,,,,11,,,81,127
18528,note_on,2,0,2,,,,,,,,,0,,,65,75
18574,note_on,46,0,1,,,,,,,,,11,,,81,0
18576,note_on,2,0,1,,,,,,,,,11,,,79,127
18622,note_on,94,0,2,,,,,,,,,0,,,65,0
18622,note_on,46,0,1,,,,,,,,,11,,,79,0
18624,note_on,2,0,1,,,,,,,,,11,,,77,127
18624,note_on,2,0,2,,,,,,,,,0,,,57,75
18670,note_on,46,0,1,,,,,,,,,11,,,77,0
18672,note_on,2,0,1,,,,,,,,,11,,,75,127
18718,note_on,94,0,2,,,,,,,,,0,,,57,0
18718,note_on,46,0,1,,,,,,,,,11,,,75,0
18720,note_on,2,0,1,,,,,,,,,11,,,74,127
18720,note_on,2,0,2,,,,,,,,,0,,,65,75
18766,note_on,46,0,1,,,,,,,,,11,,,74,0
18768,note_on,2,0,1,,,,,,,,,11,,,72,127
18814,note_on,46,0,1,,,,,,,,,11,,,72,0
18814,note_on,94,0,2,,,,,,,,,0,,,65,0
18816,note_on,2,0,2,,,,,,,,,0,,,58,75
18816,note_on,2,0,1,,,,,,,,,11,,,74,127
18910,note_on,94,0,2,,,,,,,,,0,,,58,0
18910,note_on,94,0,1,,,,,,,,,11,,,74,0
18912,note_on,2,0,2,,,,,,,,,0,,,60,75
18912,note_on,2,0,1,,,,,,,,,11,,,70,127
19006,note_on,94,0,2,,,,,,,,,0,,,60,0
19008,note_on,2,0,2,,,,,,,,,0,,,62,75
19102,note_on,94,0,2,,,,,,,,,0,,,62,0
19102,note_on,190,0,1,,,,,,,,,11,,,70,0
19104,note_on,2,0,2,,,,,,,,,0,,,60,75
19104,note_on,2,0,1,,,,,,,,,11,,,74,127
19198,note_on,94,0,2,,,,,,,,,0,,,60,0
19198,note_on,94,0,1,,,,,,,,,11,,,74,0
19200,note_on,2,0,1,,,,,,,,,11,,,79,127
19200,note_on,2,0,2,,,,,,,,,0,,,58,75
19246,note_on,46,0,1,,,,,,,,,11,,,79,0
19248,note_on,2,0,1,,,,,,,,,11,,,81,127
19294,note_on,46,0,1,,,,,,,,,11,,,81,0
19296,note_on,2,0,1,,,,,,,,,11,,,82,127
19342,note_on,46,0,1,,,,,,,,,11,,,82,0
19344,note_on,2,0,1,,,,,,,,,11,,,81,127
19390,note_on,46,0,1,,,,,,,,,11,,,81,0
19392,note_on,2,0,1,,,,,,,,,11,,,79,127
19438,note_on,46,0,1,,,,,,,,,11,,,79,0
19440,note_on,2,0,1,,,,,,,,,11,,,77,127
19456,note_on,256,0,2,,,,,,,,,0,,,58,0
19486,note_on,46,0,1,,,,,,,,,11,,,77,0
19488,note_on,32,0,2,,,,,,,,,0,,,58,75
19488,note_on,2,0,1,,,,,,,,,11,,,76,127
19534,note_on,46,0,1,,,,,,,,,11,,,76,0
19536,note_on,2,0,1,,,,,,,,,11,,,74,127
19582,note_on,94,0,2,,,,,,,,,0,,,58,0
19582,note_on,46,0,1,,,,,,,,,11,,,74,0
19584,note_on,2,0,1,,,,,,,,,11,,,73,127
19584,note_on,2,0,2,,,,,,,,,0,,,57,75
19630,note_on,46,0,1,,,,,,,,,11,,,73,0
19632,note_on,2,0,1,,,,,,,,,11,,,69,127
19678,note_on,46,0,1,,,,,,,,,11,,,69,0
19680,note_on,2,0,1,,,,,,,,,11,,,70,127
19680,note_on,6672,0,5,,,,,,,,,6,,,57,75
19774,note_on,94,0,5,,,,,,,,,6,,,57,0
19776,note_on,2,0,5,,,,,,,,,6,,,45,75
19870,note_on,190,0,1,,,,,,,,,11,,,70,0
19872,note_on,2,0,1,,,,,,,,,11,,,69,127
19920,note_on,336,0,2,,,,,,,,,0,,,57,0
19966,note_on,94,0,1,,,,,,,,,11,,,69,0
19968,note_on,2,0,1,,,,,,,,,11,,,74,127
20014,note_on,46,0,1,,,,,,,,,11,,,74,0
20016,note_on,2,0,1,,,,,,,,,11,,,69,127
20062,note_on,286,0,5,,,,,,,,,6,,,45,0
20062,note_on,46,0,1,,,,,,,,,11,,,69,0
20064,note_on,2,0,5,,,,,,,,,6,,,57,75
20064,note_on,2,0,1,,,,,,,,,11,,,70,127
20158,note_on,94,0,5,,,,,,,,,6,,,57,0
20160,note_on,2,0,5,,,,,,,,,6,,,45,75
20254,note_on,190,0,1,,,,,,,,,11,,,70,0
20256,note_on,2,0,1,,,,,,,,,11,,,69,127
20350,note_on,94,0,1,,,,,,,,,11,,,69,0
20352,note_on,2,0,1,,,,,,,,,11,,,76,127
20398,note_on,46,0,1,,,,,,,,,11,,,76,0
20400,note_on,2,0,1,,,,,,,,,11,,,69,127
20446,note_on,286,0,5,,,,,,,,,6,,,45,0
20446,note_on,46,0,1,,,,,,,,,11,,,69,0
20448,note_on,2,0,1,,,,,,,,,11,,,70,127
20448,note_on,2,0,5,,,,,,,,,6,,,57,75
20542,note_on,94,0,5,,,,,,,,,6,,,57,0
20544,note_on,2,0,5,,,,,,,,,6,,,45,75
20638,note_on,190,0,1,,,,,,,,,11,,,70,0
20640,note_on,2,0,1,,,,,,,,,11,,,69,127
20704,note_on,160,0,5,,,,,,,,,6,,,45,0
20734,note_on,94,0,1,,,,,,,,,11,,,69,0
20736,note_on,2,0,1,,,,,,,,,11,,,80,127
20736,note_on,32,0,5,,,,,,,,,6,,,58,75
20830,note_on,94,0,1,,,,,,,,,11,,,80,0
20830,note_on,94,0,5,,,,,,,,,6,,,58,0
20832,note_on,2,0,1,,,,,,,,,11,,,81,127
20832,note_on,2,0,5,,,,,,,,,6,,,57,75
20926,note_on,94,0,1,,,,,,,,,11,,,81,0
20926,note_on,94,0,5,,,,,,,,,6,,,57,0
20928,note_on,2,0,1,,,,,,,,,11,,,73,127
20928,note_on,2,0,5,,,,,,,,,6,,,55,75
21022,note_on,94,0,1,,,,,,,,,11,,,73,0
21022,note_on,94,0,5,,,,,,,,,6,,,55,0
21024,note_on,2,0,5,,,,,,,,,6,,,53,75
21024,note_on,2,0,1,,,,,,,,,11,,,74,127
21118,note_on,94,0,1,,,,,,,,,11,,,74,0
21118,note_on,94,0,5,,,,,,,,,6,,,53,0
21120,note_on,2,0,5,,,,,,,,,6,,,58,75
21120,note_on,2,0,1,,,,,,,,,11,,,80,127
21214,note_on,94,0,1,,,,,,,,,11,,,80,0
21214,note_on,94,0,5,,,,,,,,,6,,,58,0
21216,note_on,2,0,1,,,,,,,,,11,,,81,127
21216,note_on,2,0,5,,,,,,,,,6,,,57,75
21310,note_on,94,0,5,,,,,,,,,6,,,57,0
21310,note_on,94,0,1,,,,,,,,,11,,,81,0
21312,note_on,2,0,5,,,,,,,,,6,,,55,75
21312,note_on,2,0,1,,,,,,,,,11,,,73,127
21406,note_on,94,0,1,,,,,,,,,11,,,73,0
21406,note_on,94,0,5,,,,,,,,,6,,,55,0
21408,note_on,2,0,1,,,,,,,,,11,,,74,127
21408,note_on,2,0,5,,,,,,,,,6,,,53,75
21502,note_on,94,0,1,,,,,,,,,11,,,74,0
21502,note_on,94,0,5,,,,,,,,,6,,,53,0
21504,note_on,2,0,5,,,,,,,,,6,,,45,75
21504,note_on,2,0,1,,,,,,,,,11,,,79,127
21550,note_on,46,0,1,,,,,,,,,11,,,79,0
21552,note_on,2,0,1,,,,,,,,,11,,,77,127
21574,note_on,22,0,1,,,,,,,,,11,,,77,0
21576,note_on,2,0,1,,,,,,,,,11,,,76,127
21598,note_on,22,0,1,,,,,,,,,11,,,76,0
21598,note_on,94,0,5,,,,,,,,,6,,,45,0
21600,note_on,2,0,5,,,,,,,,,6,,,50,75
21600,note_on,2,0,1,,,,,,,,,11,,,77,127
21646,note_on,46,0,1,,,,,,,,,11,,,77,0
21648,note_on,2,0,1,,,,,,,,,11,,,76,127
21670,note_on,22,0,1,,,,,,,,,11,,,76,0
21672,note_on,2,0,1,,,,,,,,,11,,,74,127
21694,note_on,94,0,5,,,,,,,,,6,,,50,0
21694,note_on,22,0,1,,,,,,,,,11,,,74,0
21696,note_on,2,0,1,,,,,,,,,11,,,79,127
21696,note_on,2,0,5,,,,,,,,,6,,,45,75
21742,note_on,46,0,1,,,,,,,,,11,,,79,0
21744,note_on,2,0,1,,,,,,,,,11,,,77,127
21766,note_on,22,0,1,,,,,,,,,11,,,77,0
21768,note_on,2,0,1,,,,,,,,,11,,,76,127
21790,note_on,22,0,1,,,,,,,,,11,,,76,0
21790,note_on,94,0,5,,,,,,,,,6,,,45,0
21792,note_on,2,0,1,,,,,,,,,11,,,77,127
21792,note_on,2,0,5,,,,,,,,,6,,,50,75
21838,note_on,46,0,1,,,,,,,,,11,,,77,0
21840,note_on,2,0,1,,,,,,,,,11,,,76,127
21862,note_on,22,0,1,,,,,,,,,11,,,76,0
21864,note_on,2,0,1,,,,,,,,,11,,,74,127
21886,note_on,94,0,5,,,,,,,,,6,,,50,0
21886,note_on,22,0,1,,,,,,,,,11,,,74,0
21888,note_on,2,0,1,,,,,,,,,11,,,79,127
21888,note_on,2,0,5,,,,,,,,,6,,,45,75
21934,note_on,46,0,1,,,,,,,,,11,,,79,0
21936,note_on,2,0,1,,,,,,,,,11,,,77,127
21958,note_on,22,0,1,,,,,,,,,11,,,77,0
21960,note_on,2,0,1,,,,,,,,,11,,,76,127
21982,note_on,94,0,5,,,,,,,,,6,,,45,0
21982,note_on,22,0,1,,,,,,,,,11,,,76,0
21984,note_on,2,0,1,,,,,,,,,11,,,77,127
21984,note_on,2,0,5,,,,,,,,,6,,,50,75
22030,note_on,46,0,1,,,,,,,,,11,,,77,0
22032,note_on,2,0,1,,,,,,,,,11,,,76,127
22054,note_on,22,0,1,,,,,,,,,11,,,76,0
22056,note_on,2,0,1,,,,,,,,,11,,,74,127
22078,note_on,94,0,5,,,,,,,,,6,,,50,0
22078,note_on,22,0,1,,,,,,,,,11,,,74,0
22080,note_on,2,0,1,,,,,,,,,11,,,77,127
22080,note_on,2,0,5,,,,,,,,,6,,,57,75
22102,note_on,22,0,1,,,,,,,,,11,,,77,0
22104,note_on,2,0,1,,,,,,,,,11,,,76,127
22126,note_on,22,0,1,,,,,,,,,11,,,76,0
22128,note_on,2,0,1,,,,,,,,,11,,,77,127
22150,note_on,22,0,1,,,,,,,,,11,,,77,0
22152,note_on,2,0,1,,,,,,,,,11,,,76,127
22174,note_on,94,0,5,,,,,,,,,6,,,57,0
22176,note_on,2256,0,2,,,,,,,,,0,,,70,127
22176,note_on,9168,0,6,,,,,,,,,8,,,33,75
22176,note_on,2,0,5,,,,,,,,,6,,,45,75
22176,note_on,9168,0,3,,,,,,,,,2,,,67,127
22222,note_on,70,0,1,,,,,,,,,11,,,76,0
22224,note_on,2,0,1,,,,,,,,,11,,,74,127
22270,note_on,94,0,3,,,,,,,,,2,,,67,0
22270,note_on,94,0,5,,,,,,,,,6,,,45,0
22270,note_on,46,0,1,,,,,,,,,11,,,74,0
22270,note_on,94,0,6,,,,,,,,,8,,,33,0
22270,note_on,94,0,2,,,,,,,,,0,,,70,0
22272,note_on,2,0,5,,,,,,,,,6,,,50,75
22272,note_on,2,0,3,,,,,,,,,2,,,67,127
22272,note_on,2,0,6,,,,,,,,,8,,,38,75
22272,note_on,9264,0,4,,,,,,,,,4,,,62,92
22272,note_on,2,0,1,,,,,,,,,11,,,70,127
22272,note_on,2,0,2,,,,,,,,,0,,,70,127
22366,note_on,94,0,6,,,,,,,,,8,,,38,0
22366,note_on,94,0,5,,,,,,,,,6,,,50,0
22366,note_on,94,0,4,,,,,,,,,4,,,62,0
22368,note_on,2,0,4,,,,,,,,,4,,,64,92
22368,note_on,2,0,5,,,,,,,,,6,,,49,75
22368,note_on,2,0,6,,,,,,,,,8,,,37,75
22432,note_on,160,0,2,,,,,,,,,0,,,70,0
22432,note_on,160,0,1,,,,,,,,,11,,,70,0
22432,note_on,160,0,3,,,,,,,,,2,,,67,0
22462,note_on,94,0,4,,,,,,,,,4,,,64,0
22462,note_on,94,0,6,,,,,,,,,8,,,37,0
22462,note_on,94,0,5,,,,,,,,,6,,,49,0
22464,note_on,32,0,1,,,,,,,,,11,,,69,127
22464,note_on,32,0,2,,,,,,,,,0,,,69,127
22464,note_on,2,0,6,,,,,,,,,8,,,38,75
22464,note_on,32,0,3,,,,,,,,,2,,,65,127
22464,note_on,2,0,4,,,,,,,,,4,,,65,92
22464,note_on,2,0,5,,,,,,,,,6,,,50,75
22558,note_on,94,0,3,,,,,,,,,2,,,65,0
22558,note_on,94,0,1,,,,,,,,,11,,,69,0
22558,note_on,94,0,2,,,,,,,,,0,,,69,0
22558,note_on,94,0,4,,,,,,,,,4,,,65,0
22558,note_on,94,0,6,,,,,,,,,8,,,38,0
22558,note_on,94,0,5,,,,,,,,,6,,,50,0
22560,note_on,2,0,4,,,,,,,,,4,,,57,92
22560,note_on,2,0,2,,,,,,,,,0,,,74,127
22560,note_on,2,0,6,,,,,,,,,8,,,26,75
22560,note_on,2,0,3,,,,,,,,,2,,,77,127
22560,note_on,2,0,1,,,,,,,,,11,,,74,127
22560,note_on,2,0,5,,,,,,,,,6,,,38,75
22654,note_on,94,0,6,,,,,,,,,8,,,26,0
22654,note_on,94,0,3,,,,,,,,,2,,,77,0
22654,note_on,94,0,4,,,,,,,,,4,,,57,0
22654,note_on,94,0,2,,,,,,,,,0,,,74,0
22654,note_on,94,0,5,,,,,,,,,6,,,38,0
22654,note_on,94,0,1,,,,,,,,,11,,,74,0
22656,note_on,2,0,3,,,,,,,,,2,,,77,127
22656,note_on,2,0,2,,,,,,,,,0,,,74,127
22656,note_on,2,0,6,,,,,,,,,8,,,45,75
22656,note_on,2,0,4,,,,,,,,,4,,,57,92
22656,note_on,2,0,5,,,,,,,,,6,,,57,75
22656,note_on,2,0,1,,,,,,,,,11,,,74,127
22750,note_on,94,0,5,,,,,,,,,6,,,57,0
22750,note_on,94,0,6,,,,,,,,,8,,,45,0
22752,note_on,2,0,5,,,,,,,,,6,,,56,75
22752,note_on,2,0,6,,,,,,,,,8,,,44,75
22816,note_on,160,0,1,,,,,,,,,11,,,74,0
22816,note_on,160,0,4,,,,,,,,,4,,,57,0
22816,note_on,160,0,3,,,,,,,,,2,,,77,0
22816,note_on,160,0,2,,,,,,,,,0,,,74,0
22846,note_on,94,0,5,,,,,,,,,6,,,56,0
22846,note_on,94,0,6,,,,,,,,,8,,,44,0
22848,note_on,32,0,4,,,,,,,,,4,,,69,92
22848,note_on,2,0,6,,,,,,,,,8,,,45,75
22848,note_on,32,0,2,,,,,,,,,0,,,73,127
22848,note_on,32,0,3,,,,,,,,,2,,,76,127
22848,note_on,32,0,1,,,,,,,,,11,,,73,127
22848,note_on,2,0,5,,,,,,,,,6,,,57,75
22942,note_on,94,0,2,,,,,,,,,0,,,73,0
22942,note_on,94,0,6,,,,,,,,,8,,,45,0
22942,note_on,94,0,5,,,,,,,,,6,,,57,0
22942,note_on,94,0,1,,,,,,,,,11,,,73,0
22942,note_on,94,0,3,,,,,,,,,2,,,76,0
22944,note_on,2,0,3,,,,,,,,,2,,,79,127
22944,note_on,2,0,2,,,,,,,,,0,,,82,127
22944,note_on,2,0,1,,,,,,,,,11,,,82,127
22944,note_on,2,0,6,,,,,,,,,8,,,33,75
22944,note_on,2,0,5,,,,,,,,,6,,,45,75
23008,note_on,160,0,4,,,,,,,,,4,,,69,0
23038,note_on,94,0,2,,,,,,,,,0,,,82,0
23038,note_on,94,0,5,,,,,,,,,6,,,45,0
23038,note_on,94,0,1,,,,,,,,,11,,,82,0
23038,note_on,94,0,6,,,,,,,,,8,,,33,0
23038,note_on,94,0,3,,,,,,,,,2,,,79,0
23040,note_on,2,0,2,,,,,,,,,0,,,82,127
23040,note_on,2,0,3,,,,,,,,,2,,,79,127
23040,note_on,2,0,6,,,,,,,,,8,,,45,75
23040,note_on,32,0,4,,,,,,,,,4,,,73,92
23040,note_on,2,0,5,,,,,,,,,6,,,57,75
23040,note_on,2,0,1,,,,,,,,,11,,,82,127
23134,note_on,94,0,5,,,,,,,,,6,,,57,0
23134,note_on,94,0,6,,,,,,,,,8,,,45,0
23136,note_on,2,0,5,,,,,,,,,6,,,56,75
23136,note_on,2,0,6,,,,,,,,,8,,,44,75
23200,note_on,160,0,2,,,,,,,,,0,,,82,0
23200,note_on,160,0,1,,,,,,,,,11,,,82,0
23200,note_on,160,0,4,,,,,,,,,4,,,73,0
23200,note_on,160,0,3,,,,,,,,,2,,,79,0
23230,note_on,94,0,6,,,,,,,,,8,,,44,0
23230,note_on,94,0,5,,,,,,,,,6,,,56,0
23232,note_on,2,0,6,,,,,,,,,8,,,45,75
23232,note_on,32,0,3,,,,,,,,,2,,,77,127
23232,note_on,2,0,5,,,,,,,,,6,,,57,75
23232,note_on,32,0,4,,,,,,,,,4,,,73,92
23232,note_on,32,0,2,,,,,,,,,0,,,81,127
23232,note_on,32,0,1,,,,,,,,,11,,,81,127
23326,note_on,94,0,5,,,,,,,,,6,,,57,0
23326,note_on,94,0,1,,,,,,,,,11,,,81,0
23326,note_on,94,0,6,,,,,,,,,8,,,45,0
23326,note_on,94,0,3,,,,,,,,,2,,,77,0
23326,note_on,94,0,2,,,,,,,,,0,,,81,0
23328,note_on,2,0,2,,,,,,,,,0,,,79,127
23328,note_on,2,0,3,,,,,,,,,2,,,76,127
23328,note_on,2,0,5,,,,,,,,,6,,,45,75
23328,note_on,2,0,1,,,,,,,,,11,,,79,127
23328,note_on,2,0,6,,,,,,,,,8,,,33,75
23392,note_on,160,0,4,,,,,,,,,4,,,73,0
23422,note_on,94,0,2,,,,,,,,,0,,,79,0
23422,note_on,94,0,3,,,,,,,,,2,,,76,0
23422,note_on,94,0,1,,,,,,,,,11,,,79,0
23422,note_on,94,0,6,,,,,,,,,8,,,33,0
23422,note_on,94,0,5,,,,,,,,,6,,,45,0
23424,note_on,2,0,6,,,,,,,,,8,,,38,75
23424,note_on,2,0,1,,,,,,,,,11,,,77,127
23424,note_on,2,0,5,,,,,,,,,6,,,50,75
23424,note_on,32,0,4,,,,,,,,,4,,,69,92
23424,note_on,2,0,2,,,,,,,,,0,,,77,127
23424,note_on,2,0,3,,,,,,,,,2,,,74,127
23470,note_on,46,0,1,,,,,,,,,11,,,77,0
23470,note_on,46,0,2,,,,,,,,,0,,,77,0
23470,note_on,46,0,3,,,,,,,,,2,,,74,0
23472,note_on,2,0,3,,,,,,,,,2,,,76,127
23472,note_on,2,0,1,,,,,,,,,11,,,79,127
23472,note_on,2,0,2,,,,,,,,,0,,,79,127
23518,note_on,46,0,3,,,,,,,,,2,,,76,0
23518,note_on,46,0,2,,,,,,,,,0,,,79,0
23518,note_on,46,0,1,,,,,,,,,11,,,79,0
23520,note_on,2,0,2,,,,,,,,,0,,,81,127
23520,note_on,2,0,3,,,,,,,,,2,,,77,127
23520,note_on,2,0,1,,,,,,,,,11,,,81,127
23566,note_on,46,0,1,,,,,,,,,11,,,81,0
23566,note_on,46,0,2,,,,,,,,,0,,,81,0
23566,note_on,46,0,3,,,,,,,,,2,,,77,0
23568,note_on,2,0,3,,,,,,,,,2,,,76,127
23568,note_on,2,0,2,,,,,,,,,0,,,79,127
23568,note_on,2,0,1,,,,,,,,,11,,,79,127
23584,note_on,160,0,4,,,,,,,,,4,,,69,0
23614,note_on,46,0,3,,,,,,,,,2,,,76,0
23614,note_on,46,0,1,,,,,,,,,11,,,79,0
23614,note_on,46,0,2,,,,,,,,,0,,,79,0
23616,note_on,2,0,2,,,,,,,,,0,,,77,127
23616,note_on,32,0,4,,,,,,,,,4,,,62,92
23616,note_on,2,0,1,,,,,,,,,11,,,77,127
23616,note_on,2,0,3,,,,,,,,,2,,,74,127
23662,note_on,46,0,3,,,,,,,,,2,,,74,0
23662,note_on,46,0,2,,,,,,,,,0,,,77,0
23662,note_on,46,0,1,,,,,,,,,11,,,77,0
23664,note_on,2,0,1,,,,,,,,,11,,,76,127
23664,note_on,2,0,3,,,,,,,,,2,,,73,127
23664,note_on,2,0,2,,,,,,,,,0,,,76,127
23710,note_on,46,0,3,,,,,,,,,2,,,73,0
23710,note_on,46,0,2,,,,,,,,,0,,,76,0
23710,note_on,46,0,1,,,,,,,,,11,,,76,0
23712,note_on,2,0,1,,,,,,,,,11,,,74,127
23712,note_on,2,0,2,,,,,,,,,0,,,74,127
23712,note_on,2,0,3,,,,,,,,,2,,,71,127
23758,note_on,46,0,1,,,,,,,,,11,,,74,0
23758,note_on,46,0,2,,,,,,,,,0,,,74,0
23758,note_on,46,0,3,,,,,,,,,2,,,71,0
23760,note_on,336,0,5,,,,,,,,,6,,,50,0
23760,note_on,2,0,1,,,,,,,,,11,,,73,127
23760,note_on,2,0,2,,,,,,,,,0,,,73,127
23760,note_on,2,0,3,,,,,,,,,2,,,69,127
23760,note_on,336,0,6,,,,,,,,,8,,,38,0
23776,note_on,160,0,4,,,,,,,,,4,,,62,0
23806,note_on,46,0,1,,,,,,,,,11,,,73,0
23806,note_on,46,0,2,,,,,,,,,0,,,73,0
23806,note_on,46,0,3,,,,,,,,,2,,,69,0
23808,note_on,2,0,3,,,,,,,,,2,,,77,127
23808,note_on,48,0,6,,,,,,,,,8,,,38,75
23808,note_on,32,0,4,,,,,,,,,4,,,69,92
23808,note_on,2,0,1,,,,,,,,,11,,,77,127
23808,note_on,48,0,5,,,,,,,,,6,,,50,75
23808,note_on,2,0,2,,,,,,,,,0,,,77,127
23902,note_on,94,0,4,,,,,,,,,4,,,69,0
23902,note_on,94,0,6,,,,,,,,,8,,,38,0
23902,note_on,94,0,1,,,,,,,,,11,,,77,0
23902,note_on,94,0,5,,,,,,,,,6,,,50,0
23902,note_on,94,0,3,,,,,,,,,2,,,77,0
23902,note_on,94,0,2,,,,,,,,,0,,,77,0
23904,note_on,2,0,3,,,,,,,,,2,,,73,127
23904,note_on,2,0,4,,,,,,,,,4,,,67,92
23904,note_on,2,0,1,,,,,,,,,11,,,73,127
23904,note_on,2,0,5,,,,,,,,,6,,,52,75
23904,note_on,2,0,2,,,,,,,,,0,,,73,127
23904,note_on,2,0,6,,,,,,,,,8,,,40,75
23998,note_on,94,0,6,,,,,,,,,8,,,40,0
23998,note_on,94,0,1,,,,,,,,,11,,,73,0
23998,note_on,94,0,4,,,,,,,,,4,,,67,0
23998,note_on,94,0,2,,,,,,,,,0,,,73,0
23998,note_on,94,0,5,,,,,,,,,6,,,52,0
23998,note_on,94,0,3,,,,,,,,,2,,,73,0
24000,note_on,2,0,1,,,,,,,,,11,,,74,127
24000,note_on,2,0,4,,,,,,,,,4,,,69,92
24000,note_on,2,0,5,,,,,,,,,6,,,53,75
24000,note_on,2,0,3,,,,,,,,,2,,,74,127
24000,note_on,2,0,2,,,,,,,,,0,,,74,127
24000,note_on,2,0,6,,,,,,,,,8,,,41,75
24094,note_on,94,0,4,,,,,,,,,4,,,69,0
24094,note_on,94,0,5,,,,,,,,,6,,,53,0
24094,note_on,94,0,3,,,,,,,,,2,,,74,0
24094,note_on,94,0,1,,,,,,,,,11,,,74,0
24094,note_on,94,0,2,,,,,,,,,0,,,74,0
24094,note_on,94,0,6,,,,,,,,,8,,,41,0
24096,note_on,2,0,3,,,,,,,,,2,,,82,127
24096,note_on,2,0,5,,,,,,,,,6,,,49,75
24096,note_on,2,0,1,,,,,,,,,11,,,82,127
24096,note_on,2,0,4,,,,,,,,,4,,,64,92
24096,note_on,2,0,6,,,,,,,,,8,,,37,75
24096,note_on,2,0,2,,,,,,,,,0,,,82,127
24190,note_on,94,0,1,,,,,,,,,11,,,82,0
24190,note_on,94,0,6,,,,,,,,,8,,,37,0
24190,note_on,94,0,5,,,,,,,,,6,,,49,0
24190,note_on,94,0,4,,,,,,,,,4,,,64,0
24190,note_on,94,0,2,,,,,,,,,0,,,82,0
24190,note_on,94,0,3,,,,,,,,,2,,,82,0
24192,note_on,2,0,3,,,,,,,,,2,,,81,127
24192,note_on,2,0,6,,,,,,,,,8,,,38,75
24192,note_on,2,0,5,,,,,,,,,6,,,50,75
24192,note_on,2,0,4,,,,,,,,,4,,,65,92
24192,note_on,2,0,2,,,,,,,,,0,,,81,127
24192,note_on,2,0,1,,,,,,,,,11,,,81,127
24286,note_on,94,0,5,,,,,,,,,6,,,50,0
24286,note_on,94,0,2,,,,,,,,,0,,,81,0
24286,note_on,94,0,6,,,,,,,,,8,,,38,0
24286,note_on,94,0,4,,,,,,,,,4,,,65,0
24286,note_on,94,0,3,,,,,,,,,2,,,81,0
24286,note_on,94,0,1,,,,,,,,,11,,,81,0
24288,note_on,2,0,5,,,,,,,,,6,,,52,75
24288,note_on,2,0,3,,,,,,,,,2,,,73,127
24288,note_on,2,0,1,,,,,,,,,11,,,73,127
24288,note_on,2,0,4,,,,,,,,,4,,,67,92
24288,note_on,2,0,6,,,,,,,,,8,,,40,75
24288,note_on,2,0,2,,,,,,,,,0,,,73,127
24382,note_on,94,0,4,,,,,,,,,4,,,67,0
24382,note_on,94,0,2,,,,,,,,,0,,,73,0
24382,note_on,94,0,6,,,,,,,,,8,,,40,0
24382,note_on,94,0,5,,,,,,,,,6,,,52,0
24382,note_on,94,0,3,,,,,,,,,2,,,73,0
24382,note_on,94,0,1,,,,,,,,,11,,,73,0
24384,note_on,2,0,1,,,,,,,,,11,,,74,127
24384,note_on,2,0,2,,,,,,,,,0,,,74,127
24384,note_on,2,0,4,,,,,,,,,4,,,69,92
24384,note_on,2,0,5,,,,,,,,,6,,,53,75
24384,note_on,2,0,6,,,,,,,,,8,,,41,75
24384,note_on,2,0,3,,,,,,,,,2,,,74,127
24478,note_on,94,0,1,,,,,,,,,11,,,74,0
24478,note_on,94,0,6,,,,,,,,,8,,,41,0
24478,note_on,94,0,3,,,,,,,,,2,,,74,0
24478,note_on,94,0,2,,,,,,,,,0,,,74,0
24478,note_on,94,0,5,,,,,,,,,6,,,53,0
24478,note_on,94,0,4,,,,,,,,,4,,,69,0
24480,note_on,2,0,6,,,,,,,,,8,,,38,75
24480,note_on,2,0,5,,,,,,,,,6,,,50,75
24480,note_on,2,0,4,,,,,,,,,4,,,65,92
24480,note_on,2,0,2,,,,,,,,,0,,,81,127
24480,note_on,2,0,3,,,,,,,,,2,,,81,127
24480,note_on,2,0,1,,,,,,,,,11,,,81,127
24574,note_on,94,0,6,,,,,,,,,8,,,38,0
24574,note_on,94,0,4,,,,,,,,,4,,,65,0
24574,note_on,94,0,3,,,,,,,,,2,,,81,0
24574,note_on,94,0,5,,,,,,,,,6,,,50,0
24574,note_on,94,0,2,,,,,,,,,0,,,81,0
24574,note_on,94,0,1,,,,,,,,,11,,,81,0
24576,note_on,2,0,4,,,,,,,,,4,,,62,92
24576,note_on,2,0,1,,,,,,,,,11,,,82,127
24576,note_on,2,0,5,,,,,,,,,6,,,55,75
24576,note_on,2,0,3,,,,,,,,,2,,,82,127
24576,note_on,2,0,6,,,,,,,,,8,,,43,75
24576,note_on,2,0,2,,,,,,,,,0,,,82,127
24622,note_on,46,0,3,,,,,,,,,2,,,82,0
24622,note_on,46,0,2,,,,,,,,,0,,,82,0
24622,note_on,46,0,1,,,,,,,,,11,,,82,0
24624,note_on,2,0,1,,,,,,,,,11,,,81,127
24624,note_on,2,0,2,,,,,,,,,0,,,81,127
24624,note_on,2,0,3,,,,,,,,,2,,,81,127
24670,note_on,46,0,1,,,,,,,,,11,,,81,0
24670,note_on,46,0,3,,,,,,,,,2,,,81,0
24670,note_on,46,0,2,,,,,,,,,0,,,81,0
24672,note_on,2,0,2,,,,,,,,,0,,,79,127
24672,note_on,2,0,1,,,,,,,,,11,,,79,127
24672,note_on,2,0,3,,,,,,,,,2,,,79,127
24718,note_on,46,0,2,,,,,,,,,0,,,79,0
24718,note_on,46,0,1,,,,,,,,,11,,,79,0
24718,note_on,46,0,3,,,,,,,,,2,,,79,0
24720,note_on,2,0,2,,,,,,,,,0,,,77,127
24720,note_on,2,0,1,,,,,,,,,11,,,77,127
24720,note_on,2,0,3,,,,,,,,,2,,,77,127
24736,note_on,160,0,5,,,,,,,,,6,,,55,0
24736,note_on,160,0,6,,,,,,,,,8,,,43,0
24736,note_on,160,0,4,,,,,,,,,4,,,62,0
24766,note_on,46,0,3,,,,,,,,,2,,,77,0
24766,note_on,46,0,2,,,,,,,,,0,,,77,0
24766,note_on,46,0,1,,,,,,,,,11,,,77,0
24768,note_on,2,0,2,,,,,,,,,0,,,76,127
24768,note_on,32,0,5,,,,,,,,,6,,,56,75
24768,note_on,2,0,1,,,,,,,,,11,,,76,127
24768,note_on,2,0,3,,,,,,,,,2,,,76,127
24768,note_on,32,0,4,,,,,,,,,4,,,64,92
24768,note_on,32,0,6,,,,,,,,,8,,,44,75
24814,note_on,46,0,3,,,,,,,,,2,,,76,0
24814,note_on,46,0,2,,,,,,,,,0,,,76,0
24814,note_on,46,0,1,,,,,,,,,11,,,76,0
24816,note_on,2,0,3,,,,,,,,,2,,,74,127
24816,note_on,2,0,1,,,,,,,,,11,,,74,127
24816,note_on,2,0,2,,,,,,,,,0,,,74,127
24862,note_on,46,0,3,,,,,,,,,2,,,74,0
24862,note_on,46,0,1,,,,,,,,,11,,,74,0
24862,note_on,46,0,2,,,,,,,,,0,,,74,0
24864,note_on,2,0,3,,,,,,,,,2,,,73,127
24864,note_on,2,0,1,,,,,,,,,11,,,73,127
24864,note_on,2,0,2,,,,,,,,,0,,,73,127
24910,note_on,46,0,2,,,,,,,,,0,,,73,0
24910,note_on,46,0,1,,,,,,,,,11,,,73,0
24910,note_on,46,0,3,,,,,,,,,2,,,73,0
24912,note_on,2,0,3,,,,,,,,,2,,,71,127
24912,note_on,2,0,2,,,,,,,,,0,,,71,127
24912,note_on,2,0,1,,,,,,,,,11,,,71,127
24928,note_on,160,0,4,,,,,,,,,4,,,64,0
24928,note_on,160,0,5,,,,,,,,,6,,,56,0
24928,note_on,160,0,6,,,,,,,,,8,,,44,0
24958,note_on,46,0,2,,,,,,,,,0,,,71,0
24958,note_on,46,0,3,,,,,,,,,2,,,71,0
24958,note_on,46,0,1,,,,,,,,,11,,,71,0
24960,note_on,2,0,1,,,,,,,,,11,,,73,127
24960,note_on,2,0,3,,,,,,,,,2,,,73,127
24960,note_on,32,0,4,,,,,,,,,4,,,64,92
24960,note_on,32,0,5,,,,,,,,,6,,,57,75
24960,note_on,32,0,6,,,,,,,,,8,,,45,75
24960,note_on,2,0,2,,,,,,,,,0,,,73,127
25054,note_on,94,0,2,,,,,,,,,0,,,73,0
25054,note_on,94,0,3,,,,,,,,,2,,,73,0
25054,note_on,94,0,6,,,,,,,,,8,,,45,0
25054,note_on,94,0,1,,,,,,,,,11,,,73,0
25054,note_on,94,0,5,,,,,,,,,6,,,57,0
25056,note_on,2,0,5,,,,,,,,,6,,,55,75
25056,note_on,2,0,1,,,,,,,,,11,,,69,127
25056,note_on,2,0,2,,,,,,,,,0,,,69,127
25056,note_on,2,0,6,,,,,,,,,8,,,43,75
25056,note_on,2,0,3,,,,,,,,,2,,,69,127
25120,note_on,160,0,4,,,,,,,,,4,,,64,0
25150,note_on,94,0,5,,,,,,,,,6,,,55,0
25150,note_on,94,0,6,,,,,,,,,8,,,43,0
25152,note_on,2,0,5,,,,,,,,,6,,,54,75
25152,note_on,32,0,4,,,,,,,,,4,,,69,92
25152,note_on,2,0,6,,,,,,,,,8,,,42,75
25246,note_on,94,0,4,,,,,,,,,4,,,69,0
25246,note_on,94,0,6,,,,,,,,,8,,,42,0
25246,note_on,94,0,5,,,,,,,,,6,,,54,0
25248,note_on,2,0,6,,,,,,,,,8,,,40,75
25248,note_on,2,0,4,,,,,,,,,4,,,67,92
25248,note_on,2,0,5,,,,,,,,,6,,,52,75
25312,note_on,256,0,2,,,,,,,,,0,,,69,0
25312,note_on,256,0,1,,,,,,,,,11,,,69,0
25312,note_on,256,0,3,,,,,,,,,2,,,69,0
25342,note_on,94,0,4,,,,,,,,,4,,,67,0
25342,note_on,94,0,6,,,,,,,,,8,,,40,0
25342,note_on,94,0,5,,,,,,,,,6,,,52,0
25344,note_on,2,0,6,,,,,,,,,8,,,38,75
25344,note_on,32,0,1,,,,,,,,,11,,,78,127
25344,note_on,32,0,3,,,,,,,,,2,,,72,127
25344,note_on,32,0,2,,,,,,,,,0,,,78,127
25344,note_on,2,0,4,,,,,,,,,4,,,66,92
25344,note_on,2,0,5,,,,,,,,,6,,,50,75
25438,note_on,94,0,6,,,,,,,,,8,,,38,0
25438,note_on,94,0,5,,,,,,,,,6,,,50,0
25440,note_on,2,0,6,,,,,,,,,8,,,50,75
25440,note_on,2,0,5,,,,,,,,,6,,,62,75
25504,note_on,160,0,4,,,,,,,,,4,,,66,0
25504,note_on,160,0,2,,,,,,,,,0,,,78,0
25504,note_on,160,0,1,,,,,,,,,11,,,78,0
25534,note_on,94,0,6,,,,,,,,,8,,,50,0
25534,note_on,94,0,5,,,,,,,,,6,,,62,0
25536,note_on,2,0,5,,,,,,,,,6,,,50,75
25536,note_on,32,0,2,,,,,,,,,0,,,79,127
25536,note_on,32,0,1,,,,,,,,,11,,,79,127
25536,note_on,2,0,6,,,,,,,,,8,,,38,75
25536,note_on,32,0,4,,,,,,,,,4,,,69,92
25600,note_on,256,0,3,,,,,,,,,2,,,72,0
25630,note_on,94,0,4,,,,,,,,,4,,,69,0
25630,note_on,94,0,2,,,,,,,,,0,,,79,0
25630,note_on,94,0,1,,,,,,,,,11,,,79,0
25632,note_on,2,0,1,,,,,,,,,11,,,81,127
25632,note_on,32,0,3,,,,,,,,,2,,,75,127
25632,note_on,2,0,4,,,,,,,,,4,,,69,92
25632,note_on,2,0,2,,,,,,,,,0,,,81,127
25678,note_on,46,0,3,,,,,,,,,2,,,75,0
25680,note_on,2,0,3,,,,,,,,,2,,,74,127
25726,note_on,46,0,3,,,,,,,,,2,,,74,0
25726,note_on,94,0,1,,,,,,,,,11,,,81,0
25726,note_on,94,0,2,,,,,,,,,0,,,81,0
25728,note_on,2,0,1,,,,,,,,,11,,,78,127
25728,note_on,2,0,2,,,,,,,,,0,,,78,127
25728,note_on,2,0,3,,,,,,,,,2,,,72,127
25822,note_on,190,0,4,,,,,,,,,4,,,69,0
25822,note_on,286,0,5,,,,,,,,,6,,,50,0
25822,note_on,286,0,6,,,,,,,,,8,,,38,0
25824,note_on,2,0,6,,,,,,,,,8,,,50,75
25824,note_on,2,0,5,,,,,,,,,6,,,62,75
25824,note_on,2,0,4,,,,,,,,,4,,,69,92
25888,note_on,160,0,2,,,,,,,,,0,,,78,0
25888,note_on,160,0,1,,,,,,,,,11,,,78,0
25918,note_on,94,0,5,,,,,,,,,6,,,62,0
25918,note_on,94,0,6,,,,,,,,,8,,,50,0
25918,note_on,94,0,4,,,,,,,,,4,,,69,0
25920,note_on,2,0,5,,,,,,,,,6,,,50,75
25920,note_on,32,0,2,,,,,,,,,0,,,79,127
25920,note_on,2,0,4,,,,,,,,,4,,,69,92
25920,note_on,2,0,6,,,,,,,,,8,,,38,75
25920,note_on,32,0,1,,,,,,,,,11,,,79,127
25984,note_on,256,0,3,,,,,,,,,2,,,72,0
26014,note_on,94,0,2,,,,,,,,,0,,,79,0
26014,note_on,94,0,1,,,,,,,,,11,,,79,0
26016,note_on,2,0,1,,,,,,,,,11,,,81,127
26016,note_on,2,0,2,,,,,,,,,0,,,81,127
26016,note_on,32,0,3,,,,,,,,,2,,,75,127
26062,note_on,46,0,3,,,,,,,,,2,,,75,0
26064,note_on,2,0,3,,,,,,,,,2,,,74,127
26110,note_on,94,0,1,,,,,,,,,11,,,81,0
26110,note_on,46,0,3,,,,,,,,,2,,,74,0
26110,note_on,94,0,2,,,,,,,,,0,,,81,0
26112,note_on,2,0,1,,,,,,,,,11,,,78,127
26112,note_on,2,0,3,,,,,,,,,2,,,72,127
26112,note_on,2,0,2,,,,,,,,,0,,,78,127
26158,note_on,46,0,1,,,,,,,,,11,,,78,0
26158,note_on,46,0,2,,,,,,,,,0,,,78,0
26160,note_on,2,0,1,,,,,,,,,11,,,79,127
26160,note_on,2,0,2,,,,,,,,,0,,,79,127
26206,note_on,286,0,4,,,,,,,,,4,,,69,0
26206,note_on,286,0,5,,,,,,,,,6,,,50,0
26206,note_on,46,0,1,,,,,,,,,11,,,79,0
26206,note_on,286,0,6,,,,,,,,,8,,,38,0
26206,note_on,46,0,2,,,,,,,,,0,,,79,0
26208,note_on,2,0,6,,,,,,,,,8,,,50,75
26208,note_on,2,0,4,,,,,,,,,4,,,66,92
26208,note_on,2,0,1,,,,,,,,,11,,,81,127
26208,note_on,2,0,5,,,,,,,,,6,,,62,75
26208,note_on,2,0,2,,,,,,,,,0,,,81,127
26254,note_on,46,0,2,,,,,,,,,0,,,81,0
26254,note_on,46,0,1,,,,,,,,,11,,,81,0
26256,note_on,2,0,2,,,,,,,,,0,,,79,127
26256,note_on,2,0,1,,,,,,,,,11,,,79,127
26302,note_on,94,0,4,,,,,,,,,4,,,66,0
26302,note_on,94,0,6,,,,,,,,,8,,,50,0
26302,note_on,46,0,1,,,,,,,,,11,,,79,0
26302,note_on,46,0,2,,,,,,,,,0,,,79,0
26302,note_on,94,0,5,,,,,,,,,6,,,62,0
26304,note_on,2,0,1,,,,,,,,,11,,,78,127
26304,note_on,2,0,5,,,,,,,,,6,,,50,75
26304,note_on,2,0,4,,,,,,,,,4,,,66,92
26304,note_on,2,0,2,,,,,,,,,0,,,78,127
26304,note_on,2,0,6,,,,,,,,,8,,,38,75
26350,note_on,46,0,2,,,,,,,,,0,,,78,0
26350,note_on,46,0,1,,,,,,,,,11,,,78,0
26352,note_on,2,0,2,,,,,,,,,0,,,76,127
26352,note_on,2,0,1,,,,,,,,,11,,,76,127
26368,note_on,256,0,3,,,,,,,,,2,,,72,0
26398,note_on,46,0,1,,,,,,,,,11,,,76,0
26398,note_on,46,0,2,,,,,,,,,0,,,76,0
26400,note_on,2,0,1,,,,,,,,,11,,,74,127
26400,note_on,2,0,2,,,,,,,,,0,,,74,127
26400,note_on,32,0,3,,,,,,,,,2,,,70,127
26446,note_on,46,0,3,,,,,,,,,2,,,70,0
26446,note_on,46,0,1,,,,,,,,,11,,,74,0
26446,note_on,46,0,2,,,,,,,,,0,,,74,0
26448,note_on,2,0,3,,,,,,,,,2,,,69,127
26448,note_on,2,0,1,,,,,,,,,11,,,72,127
26448,note_on,2,0,2,,,,,,,,,0,,,72,127
26464,note_on,160,0,4,,,,,,,,,4,,,66,0
26464,note_on,160,0,5,,,,,,,,,6,,,50,0
26464,note_on,160,0,6,,,,,,,,,8,,,38,0
26494,note_on,46,0,2,,,,,,,,,0,,,72,0
26494,note_on,46,0,3,,,,,,,,,2,,,69,0
26494,note_on,46,0,1,,,,,,,,,11,,,72,0
26496,note_on,32,0,6,,,,,,,,,8,,,43,75
26496,note_on,2,0,1,,,,,,,,,11,,,70,127
26496,note_on,32,0,4,,,,,,,,,4,,,62,92
26496,note_on,32,0,5,,,,,,,,,6,,,55,75
26496,note_on,2,0,3,,,,,,,,,2,,,67,127
26496,note_on,2,0,2,,,,,,,,,0,,,70,127
26590,note_on,94,0,6,,,,,,,,,8,,,43,0
26590,note_on,94,0,2,,,,,,,,,0,,,70,0
26590,note_on,94,0,5,,,,,,,,,6,,,55,0
26590,note_on,94,0,1,,,,,,,,,11,,,70,0
26592,note_on,2,0,6,,,,,,,,,8,,,38,75
26592,note_on,2,0,2,,,,,,,,,0,,,69,127
26592,note_on,2,0,1,,,,,,,,,11,,,69,127
26592,note_on,2,0,5,,,,,,,,,6,,,50,75
26686,note_on,94,0,6,,,,,,,,,8,,,38,0
26686,note_on,94,0,2,,,,,,,,,0,,,69,0
26686,note_on,94,0,5,,,,,,,,,6,,,50,0
26686,note_on,94,0,1,,,,,,,,,11,,,69,0
26688,note_on,2,0,1,,,,,,,,,11,,,67,127
26688,note_on,2,0,6,,,,,,,,,8,,,34,75
26688,note_on,2,0,2,,,,,,,,,0,,,67,127
26688,note_on,2,0,5,,,,,,,,,6,,,46,75
26752,note_on,256,0,4,,,,,,,,,4,,,62,0
26782,note_on,94,0,5,,,,,,,,,6,,,46,0
26782,note_on,94,0,6,,,,,,,,,8,,,34,0
26784,note_on,2,0,5,,,,,,,,,6,,,43,75
26784,note_on,2,0,6,,,,,,,,,8,,,31,75
26784,note_on,32,0,4,,,,,,,,,4,,,70,92
26832,note_on,336,0,3,,,,,,,,,2,,,67,0
26848,note_on,160,0,1,,,,,,,,,11,,,67,0
26848,note_on,160,0,2,,,,,,,,,0,,,67,0
26878,note_on,94,0,4,,,,,,,,,4,,,70,0
26880,note_on,48,0,3,,,,,,,,,2,,,70,127
26880,note_on,32,0,2,,,,,,,,,0,,,76,127
26880,note_on,2,0,4,,,,,,,,,4,,,67,92
26880,note_on,32,0,1,,,,,,,,,11,,,76,127
26974,note_on,190,0,5,,,,,,,,,6,,,43,0
26974,note_on,94,0,4,,,,,,,,,4,,,67,0
26974,note_on,190,0,6,,,,,,,,,8,,,31,0
26976,note_on,2,0,6,,,,,,,,,8,,,48,75
26976,note_on,2,0,5,,,,,,,,,6,,,60,75
26976,note_on,2,0,4,,,,,,,,,4,,,67,92
27040,note_on,160,0,1,,,,,,,,,11,,,76,0
27040,note_on,160,0,2,,,,,,,,,0,,,76,0
27070,note_on,94,0,6,,,,,,,,,8,,,48,0
27070,note_on,94,0,5,,,,,,,,,6,,,60,0
27070,note_on,94,0,4,,,,,,,,,4,,,67,0
27072,note_on,32,0,1,,,,,,,,,11,,,77,127
27072,note_on,2,0,5,,,,,,,,,6,,,48,75
27072,note_on,2,0,6,,,,,,,,,8,,,36,75
27072,note_on,2,0,4,,,,,,,,,4,,,67,92
27072,note_on,32,0,2,,,,,,,,,0,,,77,127
27136,note_on,256,0,3,,,,,,,,,2,,,70,0
27166,note_on,94,0,2,,,,,,,,,0,,,77,0
27166,note_on,94,0,1,,,,,,,,,11,,,77,0
27168,note_on,32,0,3,,,,,,,,,2,,,74,127
27168,note_on,2,0,2,,,,,,,,,0,,,79,127
27168,note_on,2,0,1,,,,,,,,,11,,,79,127
27214,note_on,46,0,3,,,,,,,,,2,,,74,0
27216,note_on,2,0,3,,,,,,,,,2,,,72,127
27262,note_on,46,0,3,,,,,,,,,2,,,72,0
27262,note_on,94,0,2,,,,,,,,,0,,,79,0
27262,note_on,94,0,1,,,,,,,,,11,,,79,0
27264,note_on,2,0,2,,,,,,,,,0,,,76,127
27264,note_on,2,0,3,,,,,,,,,2,,,70,127
27264,note_on,2,0,1,,,,,,,,,11,,,76,127
27358,note_on,286,0,4,,,,,,,,,4,,,67,0
27358,note_on,286,0,6,,,,,,,,,8,,,36,0
27358,note_on,286,0,5,,,,,,,,,6,,,48,0
27360,note_on,2,0,6,,,,,,,,,8,,,48,75
27360,note_on,2,0,5,,,,,,,,,6,,,60,75
27360,note_on,2,0,4,,,,,,,,,4,,,67,92
27424,note_on,160,0,1,,,,,,,,,11,,,76,0
27424,note_on,160,0,2,,,,,,,,,0,,,76,0
27454,note_on,94,0,4,,,,,,,,,4,,,67,0
27454,note_on,94,0,5,,,,,,,,,6,,,60,0
27454,note_on,94,0,6,,,,,,,,,8,,,48,0
27456,note_on,32,0,2,,,,,,,,,0,,,77,127
27456,note_on,2,0,4,,,,,,,,,4,,,67,92
27456,note_on,2,0,5,,,,,,,,,6,,,48,75
27456,note_on,2,0,6,,,,,,,,,8,,,36,75
27456,note_on,32,0,1,,,,,,,,,11,,,77,127
27520,note_on,256,0,3,,,,,,,,,2,,,70,0
27550,note_on,94,0,2,,,,,,,,,0,,,77,0
27550,note_on,94,0,1,,,,,,,,,11,,,77,0
27552,note_on,32,0,3,,,,,,,,,2,,,74,127
27552,note_on,2,0,2,,,,,,,,,0,,,79,127
27552,note_on,2,0,1,,,,,,,,,11,,,79,127
27598,note_on,46,0,3,,,,,,,,,2,,,74,0
27600,note_on,2,0,3,,,,,,,,,2,,,72,127
27646,note_on,94,0,2,,,,,,,,,0,,,79,0
27646,note_on,46,0,3,,,,,,,,,2,,,72,0
27646,note_on,94,0,1,,,,,,,,,11,,,79,0
27648,note_on,2,0,1,,,,,,,,,11,,,76,127
27648,note_on,2,0,3,,,,,,,,,2,,,70,127
27648,note_on,2,0,2,,,,,,,,,0,,,76,127
27694,note_on,46,0,1,,,,,,,,,11,,,76,0
27694,note_on,46,0,2,,,,,,,,,0,,,76,0
27696,note_on,2,0,1,,,,,,,,,11,,,77,127
27696,note_on,2,0,2,,,,,,,,,0,,,77,127
27742,note_on,46,0,1,,,,,,,,,11,,,77,0
27742,note_on,286,0,4,,,,,,,,,4,,,67,0
27742,note_on,46,0,2,,,,,,,,,0,,,77,0
27742,note_on,286,0,6,,,,,,,,,8,,,36,0
27742,note_on,286,0,5,,,,,,,,,6,,,48,0
27744,note_on,2,0,2,,,,,,,,,0,,,79,127
27744,note_on,2,0,1,,,,,,,,,11,,,79,127
27744,note_on,2,0,6,,,,,,,,,8,,,48,75
27744,note_on,2,0,4,,,,,,,,,4,,,64,92
27744,note_on,2,0,5,,,,,,,,,6,,,60,75
27790,note_on,46,0,1,,,,,,,,,11,,,79,0
27790,note_on,46,0,2,,,,,,,,,0,,,79,0
27792,note_on,2,0,2,,,,,,,,,0,,,77,127
27792,note_on,2,0,1,,,,,,,,,11,,,77,127
27838,note_on,46,0,1,,,,,,,,,11,,,77,0
27838,note_on,94,0,4,,,,,,,,,4,,,64,0
27838,note_on,94,0,6,,,,,,,,,8,,,48,0
27838,note_on,94,0,5,,,,,,,,,6,,,60,0
27838,note_on,46,0,2,,,,,,,,,0,,,77,0
27840,note_on,2,0,5,,,,,,,,,6,,,48,75
27840,note_on,2,0,2,,,,,,,,,0,,,76,127
27840,note_on,2,0,4,,,,,,,,,4,,,64,92
27840,note_on,2,0,6,,,,,,,,,8,,,36,75
27840,note_on,2,0,1,,,,,,,,,11,,,76,127
27886,note_on,46,0,2,,,,,,,,,0,,,76,0
27886,note_on,46,0,1,,,,,,,,,11,,,76,0
27888,note_on,2,0,2,,,,,,,,,0,,,74,127
27888,note_on,2,0,1,,,,,,,,,11,,,74,127
27904,note_on,256,0,3,,,,,,,,,2,,,70,0
27934,note_on,46,0,1,,,,,,,,,11,,,74,0
27934,note_on,46,0,2,,,,,,,,,0,,,74,0
27936,note_on,2,0,2,,,,,,,,,0,,,72,127
27936,note_on,32,0,3,,,,,,,,,2,,,69,127
27936,note_on,2,0,1,,,,,,,,,11,,,72,127
27982,note_on,46,0,1,,,,,,,,,11,,,72,0
27982,note_on,46,0,3,,,,,,,,,2,,,69,0
27982,note_on,46,0,2,,,,,,,,,0,,,72,0
27984,note_on,2,0,2,,,,,,,,,0,,,70,127
27984,note_on,2,0,3,,,,,,,,,2,,,67,127
27984,note_on,2,0,1,,,,,,,,,11,,,70,127
28000,note_on,160,0,5,,,,,,,,,6,,,48,0
28000,note_on,160,0,4,,,,,,,,,4,,,64,0
28000,note_on,160,0,6,,,,,,,,,8,,,36,0
28030,note_on,46,0,1,,,,,,,,,11,,,70,0
28030,note_on,46,0,3,,,,,,,,,2,,,67,0
28030,note_on,46,0,2,,,,,,,,,0,,,70,0
28032,note_on,32,0,5,,,,,,,,,6,,,53,75
28032,note_on,2,0,2,,,,,,,,,0,,,69,127
28032,note_on,2,0,3,,,,,,,,,2,,,65,127
28032,note_on,32,0,4,,,,,,,,,4,,,60,92
28032,note_on,32,0,6,,,,,,,,,8,,,41,75
28032,note_on,2,0,1,,,,,,,,,11,,,69,127
28126,note_on,94,0,6,,,,,,,,,8,,,41,0
28126,note_on,94,0,5,,,,,,,,,6,,,53,0
28126,note_on,94,0,1,,,,,,,,,11,,,69,0
28126,note_on,94,0,2,,,,,,,,,0,,,69,0
28128,note_on,2,0,6,,,,,,,,,8,,,36,75
28128,note_on,2,0,5,,,,,,,,,6,,,48,75
28128,note_on,2,0,2,,,,,,,,,0,,,67,127
28128,note_on,2,0,1,,,,,,,,,11,,,67,127
28222,note_on,94,0,2,,,,,,,,,0,,,67,0
28222,note_on,94,0,5,,,,,,,,,6,,,48,0
28222,note_on,94,0,6,,,,,,,,,8,,,36,0
28222,note_on,94,0,1,,,,,,,,,11,,,67,0
28224,note_on,2,0,6,,,,,,,,,8,,,33,75
28224,note_on,2,0,1,,,,,,,,,11,,,65,127
28224,note_on,2,0,2,,,,,,,,,0,,,65,127
28224,note_on,2,0,5,,,,,,,,,6,,,45,75
28318,note_on,94,0,6,,,,,,,,,8,,,33,0
28318,note_on,94,0,5,,,,,,,,,6,,,45,0
28320,note_on,2,0,6,,,,,,,,,8,,,29,75
28320,note_on,2,0,5,,,,,,,,,6,,,41,75
28368,note_on,336,0,4,,,,,,,,,4,,,60,0
28368,note_on,336,0,3,,,,,,,,,2,,,65,0
28384,note_on,160,0,2,,,,,,,,,0,,,65,0
28384,note_on,160,0,1,,,,,,,,,11,,,65,0
28414,note_on,94,0,5,,,,,,,,,6,,,41,0
28414,note_on,94,0,6,,,,,,,,,8,,,29,0
28416,note_on,48,0,4,,,,,,,,,4,,,65,92
28416,note_on,48,0,3,,,,,,,,,2,,,74,127
28416,note_on,2,0,6,,,,,,,,,8,,,38,75
28416,note_on,32,0,2,,,,,,,,,0,,,74,127
28416,note_on,32,0,1,,,,,,,,,11,,,74,127
28416,note_on,2,0,5,,,,,,,,,6,,,50,75
28486,note_on,70,0,4,,,,,,,,,4,,,65,0
28486,note_on,70,0,6,,,,,,,,,8,,,38,0
28486,note_on,70,0,5,,,,,,,,,6,,,50,0
28512,note_on,26,0,5,,,,,,,,,6,,,50,75
28512,note_on,26,0,6,,,,,,,,,8,,,38,75
28512,note_on,26,0,4,,,,,,,,,4,,,65,92
28576,note_on,160,0,2,,,,,,,,,0,,,74,0
28576,note_on,160,0,3,,,,,,,,,2,,,74,0
28576,note_on,160,0,1,,,,,,,,,11,,,74,0
28582,note_on,70,0,6,,,,,,,,,8,,,38,0
28582,note_on,70,0,5,,,,,,,,,6,,,50,0
28582,note_on,70,0,4,,,,,,,,,4,,,65,0
28608,note_on,26,0,5,,,,,,,,,6,,,50,75
28608,note_on,26,0,6,,,,,,,,,8,,,38,75
28608,note_on,26,0,4,,,,,,,,,4,,,65,92
28608,note_on,32,0,3,,,,,,,,,2,,,74,127
28608,note_on,32,0,1,,,,,,,,,11,,,74,127
28608,note_on,32,0,2,,,,,,,,,0,,,74,127
28678,note_on,70,0,6,,,,,,,,,8,,,38,0
28678,note_on,70,0,4,,,,,,,,,4,,,65,0
28678,note_on,70,0,5,,,,,,,,,6,,,50,0
28702,note_on,94,0,1,,,,,,,,,11,,,74,0
28702,note_on,94,0,3,,,,,,,,,2,,,74,0
28702,note_on,94,0,2,,,,,,,,,0,,,74,0
28704,note_on,26,0,4,,,,,,,,,4,,,65,92
28704,note_on,2,0,3,,,,,,,,,2,,,74,127
28704,note_on,2,0,1,,,,,,,,,11,,,74,127
28704,note_on,26,0,5,,,,,,,,,6,,,50,75
28704,note_on,26,0,6,,,,,,,,,8,,,38,75
28704,note_on,2,0,2,,,,,,,,,0,,,74,127
28774,note_on,70,0,5,,,,,,,,,6,,,50,0
28774,note_on,70,0,4,,,,,,,,,4,,,65,0
28774,note_on,70,0,6,,,,,,,,,8,,,38,0
28798,note_on,94,0,2,,,,,,,,,0,,,74,0
28798,note_on,94,0,1,,,,,,,,,11,,,74,0
28798,note_on,94,0,3,,,,,,,,,2,,,74,0
28800,note_on,26,0,5,,,,,,,,,6,,,50,75
28800,note_on,2,0,2,,,,,,,,,0,,,74,127
28800,note_on,2,0,1,,,,,,,,,11,,,74,127
28800,note_on,26,0,4,,,,,,,,,4,,,65,92
28800,note_on,2,0,3,,,,,,,,,2,,,74,127
28800,note_on,26,0,6,,,,,,,,,8,,,38,75
28846,note_on,46,0,2,,,,,,,,,0,,,74,0
28846,note_on,46,0,1,,,,,,,,,11,,,74,0
28846,note_on,46,0,3,,,,,,,,,2,,,74,0
28848,note_on,2,0,3,,,,,,,,,2,,,76,127
28848,note_on,2,0,1,,,,,,,,,11,,,76,127
28848,note_on,2,0,2,,,,,,,,,0,,,76,127
28870,note_on,70,0,6,,,,,,,,,8,,,38,0
28870,note_on,70,0,4,,,,,,,,,4,,,65,0
28870,note_on,70,0,5,,,,,,,,,6,,,50,0
28894,note_on,46,0,2,,,,,,,,,0,,,76,0
28894,note_on,46,0,1,,,,,,,,,11,,,76,0
28894,note_on,46,0,3,,,,,,,,,2,,,76,0
28896,note_on,26,0,6,,,,,,,,,8,,,38,75
28896,note_on,2,0,2,,,,,,,,,0,,,77,127
28896,note_on,2,0,1,,,,,,,,,11,,,77,127
28896,note_on,2,0,3,,,,,,,,,2,,,77,127
28896,note_on,26,0,5,,,,,,,,,6,,,50,75
28896,note_on,26,0,4,,,,,,,,,4,,,65,92
28942,note_on,46,0,1,,,,,,,,,11,,,77,0
28942,note_on,46,0,3,,,,,,,,,2,,,77,0
28942,note_on,46,0,2,,,,,,,,,0,,,77,0
28944,note_on,2,0,2,,,,,,,,,0,,,79,127
28944,note_on,2,0,1,,,,,,,,,11,,,79,127
28944,note_on,2,0,3,,,,,,,,,2,,,79,127
28966,note_on,70,0,5,,,,,,,,,6,,,50,0
28966,note_on,70,0,4,,,,,,,,,4,,,65,0
28966,note_on,70,0,6,,,,,,,,,8,,,38,0
28990,note_on,46,0,2,,,,,,,,,0,,,79,0
28990,note_on,46,0,3,,,,,,,,,2,,,79,0
28990,note_on,46,0,1,,,,,,,,,11,,,79,0
28992,note_on,26,0,6,,,,,,,,,8,,,38,75
28992,note_on,2,0,2,,,,,,,,,0,,,81,127
28992,note_on,26,0,5,,,,,,,,,6,,,50,75
28992,note_on,2,0,3,,,,,,,,,2,,,81,127
28992,note_on,26,0,4,,,,,,,,,4,,,65,92
28992,note_on,2,0,1,,,,,,,,,11,,,81,127
29062,note_on,70,0,4,,,,,,,,,4,,,65,0
29062,note_on,70,0,6,,,,,,,,,8,,,38,0
29062,note_on,70,0,5,,,,,,,,,6,,,50,0
29088,note_on,26,0,4,,,,,,,,,4,,,65,92
29088,note_on,26,0,5,,,,,,,,,6,,,50,75
29088,note_on,26,0,6,,,,,,,,,8,,,38,75
29152,note_on,160,0,3,,,,,,,,,2,,,81,0
29152,note_on,160,0,2,,,,,,,,,0,,,81,0
29152,note_on,160,0,1,,,,,,,,,11,,,81,0
29158,note_on,70,0,5,,,,,,,,,6,,,50,0
29158,note_on,70,0,6,,,,,,,,,8,,,38,0
29158,note_on,70,0,4,,,,,,,,,4,,,65,0
29184,note_on,26,0,6,,,,,,,,,8,,,38,60
29184,note_on,26,0,5,,,,,,,,,6,,,50,60
29184,note_on,32,0,1,,,,,,,,,11,,,74,45
29184,note_on,32,0,3,,,,,,,,,2,,,74,45
29184,note_on,32,0,2,,,,,,,,,0,,,74,45
29184,note_on,26,0,4,,,,,,,,,4,,,65,60
29254,note_on,70,0,6,,,,,,,,,8,,,38,0
29254,note_on,70,0,5,,,,,,,,,6,,,50,0
29254,note_on,70,0,4,,,,,,,,,4,,,65,0
29280,note_on,26,0,5,,,,,,,,,6,,,50,60
29280,note_on,26,0,4,,,,,,,,,4,,,65,60
29280,note_on,26,0,6,,,,,,,,,8,,,38,60
29344,note_on,160,0,3,,,,,,,,,2,,,74,0
29344,note_on,160,0,1,,,,,,,,,11,,,74,0
29344,note_on,160,0,2,,,,,,,,,0,,,74,0
29350,note_on,70,0,5,,,,,,,,,6,,,50,0
29350,note_on,70,0,6,,,,,,,,,8,,,38,0
29350,note_on,70,0,4,,,,,,,,,4,,,65,0
29376,note_on,26,0,6,,,,,,,,,8,,,38,60
29376,note_on,32,0,3,,,,,,,,,2,,,74,45
29376,note_on,26,0,5,,,,,,,,,6,,,50,60
29376,note_on,32,0,2,,,,,,,,,0,,,74,45
29376,note_on,32,0,1,,,,,,,,,11,,,74,45
29376,note_on,26,0,4,,,,,,,,,4,,,65,60
29446,note_on,70,0,5,,,,,,,,,6,,,50,0
29446,note_on,70,0,4,,,,,,,,,4,,,65,0
29446,note_on,70,0,6,,,,,,,,,8,,,38,0
29470,note_on,94,0,3,,,,,,,,,2,,,74,0
29470,note_on,94,0,1,,,,,,,,,11,,,74,0
29470,note_on,94,0,2,,,,,,,,,0,,,74,0
29472,note_on,2,0,2,,,,,,,,,0,,,74,45
29472,note_on,2,0,3,,,,,,,,,2,,,74,45
29472,note_on,26,0,4,,,,,,,,,4,,,65,60
29472,note_on,26,0,6,,,,,,,,,8,,,38,60
29472,note_on,2,0,1,,,,,,,,,11,,,74,45
29472,note_on,26,0,5,,,,,,,,,6,,,50,60
29542,note_on,70,0,4,,,,,,,,,4,,,65,0
29542,note_on,70,0,5,,,,,,,,,6,,,50,0
29542,note_on,70,0,6,,,,,,,,,8,,,38,0
29566,note_on,94,0,2,,,,,,,,,0,,,74,0
29566,note_on,94,0,1,,,,,,,,,11,,,74,0
29566,note_on,94,0,3,,,,,,,,,2,,,74,0
29568,note_on,26,0,6,,,,,,,,,8,,,38,60
29568,note_on,2,0,1,,,,,,,,,11,,,74,45
29568,note_on,26,0,4,,,,,,,,,4,,,65,60
29568,note_on,2,0,3,,,,,,,,,2,,,74,45
29568,note_on,2,0,2,,,,,,,,,0,,,74,45
29568,note_on,26,0,5,,,,,,,,,6,,,50,60
29614,note_on,46,0,1,,,,,,,,,11,,,74,0
29614,note_on,46,0,3,,,,,,,,,2,,,74,0
29614,note_on,46,0,2,,,,,,,,,0,,,74,0
29616,note_on,2,0,2,,,,,,,,,0,,,76,45
29616,note_on,2,0,3,,,,,,,,,2,,,76,45
29616,note_on,2,0,1,,,,,,,,,11,,,76,45
29638,note_on,70,0,6,,,,,,,,,8,,,38,0
29638,note_on,70,0,5,,,,,,,,,6,,,50,0
29638,note_on,70,0,4,,,,,,,,,4,,,65,0
29662,note_on,46,0,2,,,,,,,,,0,,,76,0
29662,note_on,46,0,1,,,,,,,,,11,,,76,0
29662,note_on,46,0,3,,,,,,,,,2,,,76,0
29664,note_on,26,0,6,,,,,,,,,8,,,38,60
29664,note_on,26,0,4,,,,,,,,,4,,,65,60
29664,note_on,26,0,5,,,,,,,,,6,,,50,60
29664,note_on,2,0,2,,,,,,,,,0,,,77,45
29664,note_on,2,0,3,,,,,,,,,2,,,77,45
29664,note_on,2,0,1,,,,,,,,,11,,,77,45
29710,note_on,46,0,2,,,,,,,,,0,,,77,0
29710,note_on,46,0,3,,,,,,,,,2,,,77,0
29710,note_on,46,0,1,,,,,,,,,11,,,77,0
29712,note_on,2,0,2,,,,,,,,,0,,,79,45
29712,note_on,2,0,1,,,,,,,,,11,,,79,45
29712,note_on,2,0,3,,,,,,,,,2,,,79,45
29734,note_on,70,0,5,,,,,,,,,6,,,50,0
29734,note_on,70,0,4,,,,,,,,,4,,,65,0
29734,note_on,70,0,6,,,,,,,,,8,,,38,0
29758,note_on,46,0,2,,,,,,,,,0,,,79,0
29758,note_on,46,0,1,,,,,,,,,11,,,79,0
29758,note_on,46,0,3,,,,,,,,,2,,,79,0
29760,note_on,26,0,4,,,,,,,,,4,,,65,60
29760,note_on,2,0,2,,,,,,,,,0,,,81,45
29760,note_on,2,0,1,,,,,,,,,11,,,81,45
29760,note_on,26,0,5,,,,,,,,,6,,,50,60
29760,note_on,2,0,3,,,,,,,,,2,,,81,45
29760,note_on,26,0,6,,,,,,,,,8,,,38,60
29830,note_on,70,0,5,,,,,,,,,6,,,50,0
29830,note_on,70,0,4,,,,,,,,,4,,,65,0
29830,note_on,70,0,6,,,,,,,,,8,,,38,0
29854,note_on,94,0,2,,,,,,,,,0,,,81,0
29854,note_on,94,0,3,,,,,,,,,2,,,81,0
29854,note_on,94,0,1,,,,,,,,,11,,,81,0
29856,note_on,2,0,3,,,,,,,,,2,,,82,127
29856,note_on,2,0,1,,,,,,,,,11,,,82,127
29856,note_on,2,0,2,,,,,,,,,0,,,82,127
29856,note_on,26,0,4,,,,,,,,,4,,,62,127
29856,note_on,26,0,5,,,,,,,,,6,,,55,127
29856,note_on,26,0,6,,,,,,,,,8,,,43,127
29926,note_on,70,0,4,,,,,,,,,4,,,62,0
29926,note_on,70,0,6,,,,,,,,,8,,,43,0
29926,note_on,70,0,5,,,,,,,,,6,,,55,0
29950,note_on,94,0,3,,,,,,,,,2,,,82,0
29950,note_on,94,0,2,,,,,,,,,0,,,82,0
29950,note_on,94,0,1,,,,,,,,,11,,,82,0
29952,note_on,2,0,1,,,,,,,,,11,,,82,127
29952,note_on,26,0,4,,,,,,,,,4,,,64,127
29952,note_on,2,0,2,,,,,,,,,0,,,82,127
29952,note_on,2,0,3,,,,,,,,,2,,,82,127
29952,note_on,26,0,6,,,,,,,,,8,,,37,127
29952,note_on,26,0,5,,,,,,,,,6,,,49,127
29974,note_on,22,0,1,,,,,,,,,11,,,82,0
29974,note_on,22,0,2,,,,,,,,,0,,,82,0
29974,note_on,22,0,3,,,,,,,,,2,,,82,0
29976,note_on,2,0,1,,,,,,,,,11,,,81,127
29976,note_on,2,0,2,,,,,,,,,0,,,81,127
29976,note_on,2,0,3,,,,,,,,,2,,,81,127
29998,note_on,22,0,2,,,,,,,,,0,,,81,0
29998,note_on,22,0,1,,,,,,,,,11,,,81,0
29998,note_on,22,0,3,,,,,,,,,2,,,81,0
30000,note_on,2,0,1,,,,,,,,,11,,,79,127
30000,note_on,2,0,2,,,,,,,,,0,,,79,127
30000,note_on,2,0,3,,,,,,,,,2,,,79,127
30022,note_on,70,0,5,,,,,,,,,6,,,49,0
30022,note_on,70,0,4,,,,,,,,,4,,,64,0
30022,note_on,70,0,6,,,,,,,,,8,,,37,0
30046,note_on,46,0,2,,,,,,,,,0,,,79,0
30046,note_on,46,0,3,,,,,,,,,2,,,79,0
30046,note_on,46,0,1,,,,,,,,,11,,,79,0
30048,note_on,26,0,6,,,,,,,,,8,,,37,127
30048,note_on,26,0,4,,,,,,,,,4,,,64,127
30048,note_on,2,0,2,,,,,,,,,0,,,81,127
30048,note_on,2,0,3,,,,,,,,,2,,,81,127
30048,note_on,26,0,5,,,,,,,,,6,,,49,127
30048,note_on,2,0,1,,,,,,,,,11,,,81,127
30118,note_on,70,0,5,,,,,,,,,6,,,49,0
30118,note_on,70,0,6,,,,,,,,,8,,,37,0
30118,note_on,70,0,4,,,,,,,,,4,,,64,0
30142,note_on,94,0,2,,,,,,,,,0,,,81,0
30142,note_on,94,0,3,,,,,,,,,2,,,81,0
30142,note_on,94,0,1,,,,,,,,,11,,,81,0
30144,note_on,2,0,1,,,,,,,,,11,,,81,127
30144,note_on,2,0,3,,,,,,,,,2,,,81,127
30144,note_on,2,0,2,,,,,,,,,0,,,81,127
30144,note_on,26,0,4,,,,,,,,,4,,,61,127
30144,note_on,26,0,6,,,,,,,,,8,,,33,127
30144,note_on,26,0,5,,,,,,,,,6,,,45,127
30166,note_on,22,0,1,,,,,,,,,11,,,81,0
30166,note_on,22,0,3,,,,,,,,,2,,,81,0
30166,note_on,22,0,2,,,,,,,,,0,,,81,0
30168,note_on,2,0,1,,,,,,,,,11,,,79,127
30168,note_on,2,0,2,,,,,,,,,0,,,79,127
30168,note_on,2,0,3,,,,,,,,,2,,,79,127
30190,note_on,22,0,1,,,,,,,,,11,,,79,0
30190,note_on,22,0,2,,,,,,,,,0,,,79,0
30190,note_on,22,0,3,,,,,,,,,2,,,79,0
30192,note_on,2,0,2,,,,,,,,,0,,,77,127
30192,note_on,2,0,1,,,,,,,,,11,,,77,127
30192,note_on,2,0,3,,,,,,,,,2,,,77,127
30214,note_on,70,0,5,,,,,,,,,6,,,45,0
30214,note_on,70,0,4,,,,,,,,,4,,,61,0
30214,note_on,70,0,6,,,,,,,,,8,,,33,0
30238,note_on,46,0,2,,,,,,,,,0,,,77,0
30238,note_on,46,0,3,,,,,,,,,2,,,77,0
30238,note_on,46,0,1,,,,,,,,,11,,,77,0
30240,note_on,2,0,2,,,,,,,,,0,,,79,127
30240,note_on,26,0,4,,,,,,,,,4,,,61,127
30240,note_on,2,0,1,,,,,,,,,11,,,79,127
30240,note_on,2,0,3,,,,,,,,,2,,,79,127
30240,note_on,26,0,5,,,,,,,,,6,,,45,127
30240,note_on,26,0,6,,,,,,,,,8,,,33,127
30310,note_on,70,0,6,,,,,,,,,8,,,33,0
30310,note_on,70,0,5,,,,,,,,,6,,,45,0
30310,note_on,70,0,4,,,,,,,,,4,,,61,0
30334,note_on,94,0,2,,,,,,,,,0,,,79,0
30334,note_on,94,0,1,,,,,,,,,11,,,79,0
30334,note_on,94,0,3,,,,,,,,,2,,,79,0
30336,note_on,26,0,5,,,,,,,,,6,,,50,75
30336,note_on,26,0,4,,,,,,,,,4,,,57,92
30336,note_on,26,0,6,,,,,,,,,8,,,38,75
30336,note_on,2,0,1,,,,,,,,,11,,,77,127
30336,note_on,2,0,2,,,,,,,,,0,,,77,127
30336,note_on,2,0,3,,,,,,,,,2,,,77,127
30430,note_on,94,0,2,,,,,,,,,0,,,77,0
30430,note_on,94,0,4,,,,,,,,,4,,,57,0
30430,note_on,94,0,3,,,,,,,,,2,,,77,0
30430,note_on,94,0,6,,,,,,,,,8,,,38,0
30430,note_on,94,0,5,,,,,,,,,6,,,50,0
30430,note_on,94,0,1,,,,,,,,,11,,,77,0
30432,note_on,2,0,2,,,,,,,,,0,,,74,127
30432,note_on,2,0,4,,,,,,,,,4,,,65,92
30432,note_on,2,0,6,,,,,,,,,8,,,38,75
30432,note_on,2,0,5,,,,,,,,,6,,,50,75
30432,note_on,2,0,3,,,,,,,,,2,,,74,127
30432,note_on,2,0,1,,,,,,,,,11,,,74,127
30526,note_on,94,0,3,,,,,,,,,2,,,74,0
30526,note_on,94,0,2,,,,,,,,,0,,,74,0
30526,note_on,94,0,4,,,,,,,,,4,,,65,0
30526,note_on,94,0,6,,,,,,,,,8,,,38,0
30526,note_on,94,0,1,,,,,,,,,11,,,74,0
30526,note_on,94,0,5,,,,,,,,,6,,,50,0
30528,note_on,2,0,1,,,,,,,,,11,,,74,127
30528,note_on,2,0,3,,,,,,,,,2,,,74,127
30528,note_on,2,0,4,,,,,,,,,4,,,65,92
30528,note_on,2,0,2,,,,,,,,,0,,,74,127
30528,note_on,2,0,6,,,,,,,,,8,,,38,75
30528,note_on,2,0,5,,,,,,,,,6,,,50,75
30622,note_on,94,0,3,,,,,,,,,2,,,74,0
30622,note_on,94,0,4,,,,,,,,,4,,,65,0
30622,note_on,94,0,6,,,,,,,,,8,,,38,0
30622,note_on,94,0,2,,,,,,,,,0,,,74,0
30622,note_on,94,0,1,,,,,,,,,11,,,74,0
30622,note_on,94,0,5,,,,,,,,,6,,,50,0
30624,note_on,2,0,5,,,,,,,,,6,,,50,75
30624,note_on,2,0,4,,,,,,,,,4,,,65,92
30624,note_on,2,0,2,,,,,,,,,0,,,74,127
30624,note_on,2,0,6,,,,,,,,,8,,,38,75
30624,note_on,2,0,1,,,,,,,,,11,,,74,127
30624,note_on,2,0,3,,,,,,,,,2,,,74,127
30718,note_on,94,0,2,,,,,,,,,0,,,74,0
30718,note_on,94,0,1,,,,,,,,,11,,,74,0
30718,note_on,94,0,5,,,,,,,,,6,,,50,0
30718,note_on,94,0,6,,,,,,,,,8,,,38,0
30718,note_on,94,0,4,,,,,,,,,4,,,65,0
30718,note_on,94,0,3,,,,,,,,,2,,,74,0
30720,note_on,2,0,5,,,,,,,,,6,,,45,75
30720,note_on,2,0,6,,,,,,,,,8,,,33,75
30720,note_on,2,0,1,,,,,,,,,11,,,73,127
30720,note_on,2,0,4,,,,,,,,,4,,,64,92
30720,note_on,2,0,2,,,,,,,,,0,,,73,127
30720,note_on,2,0,3,,,,,,,,,2,,,73,127
30814,note_on,94,0,4,,,,,,,,,4,,,64,0
30814,note_on,94,0,6,,,,,,,,,8,,,33,0
30814,note_on,94,0,2,,,,,,,,,0,,,73,0
30814,note_on,94,0,1,,,,,,,,,11,,,73,0
30814,note_on,94,0,5,,,,,,,,,6,,,45,0
30814,note_on,94,0,3,,,,,,,,,2,,,73,0
30816,note_on,2,0,1,,,,,,,,,11,,,67,127
30816,note_on,2,0,3,,,,,,,,,2,,,67,127
30816,note_on,2,0,6,,,,,,,,,8,,,33,75
30816,note_on,2,0,4,,,,,,,,,4,,,64,92
30816,note_on,2,0,2,,,,,,,,,0,,,67,127
30816,note_on,2,0,5,,,,,,,,,6,,,45,75
30910,note_on,94,0,1,,,,,,,,,11,,,67,0
30910,note_on,94,0,5,,,,,,,,,6,,,45,0
30910,note_on,94,0,3,,,,,,,,,2,,,67,0
30910,note_on,94,0,6,,,,,,,,,8,,,33,0
30910,note_on,94,0,2,,,,,,,,,0,,,67,0
30910,note_on,94,0,4,,,,,,,,,4,,,64,0
30912,note_on,2,0,3,,,,,,,,,2,,,69,127
30912,note_on,2,0,1,,,,,,,,,11,,,69,127
30912,note_on,2,0,5,,,,,,,,,6,,,45,75
30912,note_on,2,0,4,,,,,,,,,4,,,64,92
30912,note_on,2,0,6,,,,,,,,,8,,,33,75
30912,note_on,2,0,2,,,,,,,,,0,,,69,127
30934,note_on,22,0,1,,,,,,,,,11,,,69,0
30934,note_on,22,0,3,,,,,,,,,2,,,69,0
30934,note_on,22,0,2,,,,,,,,,0,,,69,0
30936,note_on,2,0,2,,,,,,,,,0,,,67,127
30936,note_on,2,0,3,,,,,,,,,2,,,67,127
30936,note_on,2,0,1,,,,,,,,,11,,,67,127
30958,note_on,22,0,1,,,,,,,,,11,,,67,0
30958,note_on,22,0,3,,,,,,,,,2,,,67,0
30958,note_on,22,0,2,,,,,,,,,0,,,67,0
30960,note_on,2,0,1,,,,,,,,,11,,,65,127
30960,note_on,2,0,3,,,,,,,,,2,,,65,127
30960,note_on,2,0,2,,,,,,,,,0,,,65,127
31006,note_on,94,0,6,,,,,,,,,8,,,33,0
31006,note_on,46,0,1,,,,,,,,,11,,,65,0
31006,note_on,94,0,5,,,,,,,,,6,,,45,0
31006,note_on,94,0,4,,,,,,,,,4,,,64,0
31006,note_on,46,0,3,,,,,,,,,2,,,65,0
31006,note_on,46,0,2,,,,,,,,,0,,,65,0
31008,note_on,2,0,3,,,,,,,,,2,,,67,127
31008,note_on,2,0,5,,,,,,,,,6,,,45,75
31008,note_on,2,0,6,,,,,,,,,8,,,33,75
31008,note_on,2,0,4,,,,,,,,,4,,,64,92
31008,note_on,2,0,1,,,,,,,,,11,,,67,127
31008,note_on,2,0,2,,,,,,,,,0,,,67,127
31102,note_on,94,0,2,,,,,,,,,0,,,67,0
31102,note_on,94,0,5,,,,,,,,,6,,,45,0
31102,note_on,94,0,1,,,,,,,,,11,,,67,0
31102,note_on,94,0,3,,,,,,,,,2,,,67,0
31102,note_on,94,0,4,,,,,,,,,4,,,64,0
31102,note_on,94,0,6,,,,,,,,,8,,,33,0
31104,note_on,2,0,4,,,,,,,,,4,,,64,92
31104,note_on,2,0,3,,,,,,,,,2,,,73,127
31104,note_on,2,0,6,,,,,,,,,8,,,33,75
31104,note_on,2,0,5,,,,,,,,,6,,,45,75
31104,note_on,2,0,1,,,,,,,,,11,,,73,127
31104,note_on,2,0,2,,,,,,,,,0,,,73,127
31198,note_on,94,0,1,,,,,,,,,11,,,73,0
31198,note_on,94,0,5,,,,,,,,,6,,,45,0
31198,note_on,94,0,6,,,,,,,,,8,,,33,0
31198,note_on,94,0,3,,,,,,,,,2,,,73,0
31198,note_on,94,0,2,,,,,,,,,0,,,73,0
31198,note_on,94,0,4,,,,,,,,,4,,,64,0
31200,note_on,2,0,6,,,,,,,,,8,,,33,75
31200,note_on,2,0,2,,,,,,,,,0,,,67,127
31200,note_on,2,0,3,,,,,,,,,2,,,67,127
31200,note_on,2,0,5,,,,,,,,,6,,,45,75
31200,note_on,2,0,4,,,,,,,,,4,,,64,92
31200,note_on,2,0,1,,,,,,,,,11,,,67,127
31294,note_on,94,0,3,,,,,,,,,2,,,67,0
31294,note_on,94,0,6,,,,,,,,,8,,,33,0
31294,note_on,94,0,5,,,,,,,,,6,,,45,0
31294,note_on,94,0,2,,,,,,,,,0,,,67,0
31294,note_on,94,0,4,,,,,,,,,4,,,64,0
31294,note_on,94,0,1,,,,,,,,,11,,,67,0
31296,note_on,2,0,2,,,,,,,,,0,,,69,127
31296,note_on,2,0,3,,,,,,,,,2,,,69,127
31296,note_on,2,0,5,,,,,,,,,6,,,45,75
31296,note_on,2,0,6,,,,,,,,,8,,,33,75
31296,note_on,2,0,1,,,,,,,,,11,,,69,127
31296,note_on,2,0,4,,,,,,,,,4,,,64,92
31318,note_on,22,0,1,,,,,,,,,11,,,69,0
31318,note_on,22,0,3,,,,,,,,,2,,,69,0
31318,note_on,22,0,2,,,,,,,,,0,,,69,0
31320,note_on,2,0,2,,,,,,,,,0,,,67,127
31320,note_on,2,0,1,,,,,,,,,11,,,67,127
31320,note_on,2,0,3,,,,,,,,,2,,,67,127
31342,note_on,22,0,3,,,,,,,,,2,,,67,0
31342,note_on,22,0,1,,,,,,,,,11,,,67,0
31342,note_on,22,0,2,,,,,,,,,0,,,67,0
31344,note_on,2,0,3,,,,,,,,,2,,,65,127
31344,note_on,2,0,1,,,,,,,,,11,,,65,127
31344,note_on,2,0,2,,,,,,,,,0,,,65,127
31390,note_on,46,0,1,,,,,,,,,11,,,65,0
31390,note_on,94,0,5,,,,,,,,,6,,,45,0
31390,note_on,46,0,2,,,,,,,,,0,,,65,0
31390,note_on,94,0,4,,,,,,,,,4,,,64,0
31390,note_on,46,0,3,,,,,,,,,2,,,65,0
31390,note_on,94,0,6,,,,,,,,,8,,,33,0
31392,note_on,2,0,5,,,,,,,,,6,,,45,75
31392,note_on,2,0,4,,,,,,,,,4,,,64,92
31392,note_on,2,0,3,,,,,,,,,2,,,67,127
31392,note_on,2,0,6,,,,,,,,,8,,,33,75
31392,note_on,2,0,2,,,,,,,,,0,,,67,127
31392,note_on,2,0,1,,,,,,,,,11,,,67,127
31486,note_on,94,0,5,,,,,,,,,6,,,45,0
31486,note_on,94,0,1,,,,,,,,,11,,,67,0
31486,note_on,94,0,6,,,,,,,,,8,,,33,0
31486,note_on,94,0,4,,,,,,,,,4,,,64,0
31486,note_on,94,0,3,,,,,,,,,2,,,67,0
31486,note_on,94,0,2,,,,,,,,,0,,,67,0
31488,note_on,2,0,6,,,,,,,,,8,,,33,75
31488,note_on,2,0,3,,,,,,,,,2,,,76,127
31488,note_on,2,0,5,,,,,,,,,6,,,45,75
31488,note_on,2,0,2,,,,,,,,,0,,,76,127
31488,note_on,2,0,4,,,,,,,,,4,,,61,92
31488,note_on,2,0,1,,,,,,,,,11,,,76,127
31582,note_on,94,0,2,,,,,,,,,0,,,76,0
31582,note_on,94,0,6,,,,,,,,,8,,,33,0
31582,note_on,94,0,3,,,,,,,,,2,,,76,0
31582,note_on,94,0,5,,,,,,,,,6,,,45,0
31582,note_on,94,0,4,,,,,,,,,4,,,61,0
31582,note_on,94,0,1,,,,,,,,,11,,,76,0
31584,note_on,2,0,2,,,,,,,,,0,,,67,127
31584,note_on,2,0,6,,,,,,,,,8,,,33,75
31584,note_on,2,0,3,,,,,,,,,2,,,67,127
31584,note_on,2,0,1,,,,,,,,,11,,,67,127
31584,note_on,2,0,5,,,,,,,,,6,,,45,75
31584,note_on,2,0,4,,,,,,,,,4,,,61,92
31678,note_on,94,0,5,,,,,,,,,6,,,45,0
31678,note_on,94,0,6,,,,,,,,,8,,,33,0
31678,note_on,94,0,1,,,,,,,,,11,,,67,0
31678,note_on,94,0,4,,,,,,,,,4,,,61,0
31678,note_on,94,0,2,,,,,,,,,0,,,67,0
31678,note_on,94,0,3,,,,,,,,,2,,,67,0
31680,note_on,2,0,5,,,,,,,,,6,,,45,75
31680,note_on,2,0,6,,,,,,,,,8,,,33,75
31680,note_on,2,0,2,,,,,,,,,0,,,69,127
31680,note_on,2,0,4,,,,,,,,,4,,,61,92
31680,note_on,2,0,3,,,,,,,,,2,,,69,127
31680,note_on,2,0,1,,,,,,,,,11,,,69,127
31702,note_on,22,0,2,,,,,,,,,0,,,69,0
31702,note_on,22,0,3,,,,,,,,,2,,,69,0
31702,note_on,22,0,1,,,,,,,,,11,,,69,0
31704,note_on,2,0,1,,,,,,,,,11,,,67,127
31704,note_on,2,0,3,,,,,,,,,2,,,67,127
31704,note_on,2,0,2,,,,,,,,,0,,,67,127
31726,note_on,22,0,1,,,,,,,,,11,,,67,0
31726,note_on,22,0,3,,,,,,,,,2,,,67,0
31726,note_on,22,0,2,,,,,,,,,0,,,67,0
31728,note_on,2,0,1,,,,,,,,,11,,,65,127
31728,note_on,2,0,3,,,,,,,,,2,,,65,127
31728,note_on,2,0,2,,,,,,,,,0,,,65,127
31774,note_on,46,0,1,,,,,,,,,11,,,65,0
31774,note_on,94,0,4,,,,,,,,,4,,,61,0
31774,note_on,94,0,6,,,,,,,,,8,,,33,0
31774,note_on,46,0,3,,,,,,,,,2,,,65,0
31774,note_on,46,0,2,,,,,,,,,0,,,65,0
31774,note_on,94,0,5,,,,,,,,,6,,,45,0
31776,note_on,2,0,5,,,,,,,,,6,,,45,75
31776,note_on,2,0,6,,,,,,,,,8,,,33,75
31776,note_on,2,0,2,,,,,,,,,0,,,67,127
31776,note_on,2,0,4,,,,,,,,,4,,,61,92
31776,note_on,2,0,1,,,,,,,,,11,,,67,127
31776,note_on,2,0,3,,,,,,,,,2,,,67,127
31870,note_on,94,0,1,,,,,,,,,11,,,67,0
31870,note_on,94,0,4,,,,,,,,,4,,,61,0
31870,note_on,94,0,3,,,,,,,,,2,,,67,0
31870,note_on,94,0,6,,,,,,,,,8,,,33,0
31870,note_on,94,0,5,,,,,,,,,6,,,45,0
31870,note_on,94,0,2,,,,,,,,,0,,,67,0
31872,note_on,2,0,4,,,,,,,,,4,,,61,92
31872,note_on,2,0,6,,,,,,,,,8,,,33,75
31872,note_on,2,0,1,,,,,,,,,11,,,79,127
31872,note_on,2,0,5,,,,,,,,,6,,,45,75
31872,note_on,2,0,3,,,,,,,,,2,,,76,127
31872,note_on,2,0,2,,,,,,,,,0,,,79,127
31966,note_on,94,0,4,,,,,,,,,4,,,61,0
31966,note_on,94,0,3,,,,,,,,,2,,,76,0
31966,note_on,94,0,2,,,,,,,,,0,,,79,0
31966,note_on,94,0,1,,,,,,,,,11,,,79,0
31966,note_on,94,0,6,,,,,,,,,8,,,33,0
31966,note_on,94,0,5,,,,,,,,,6,,,45,0
31968,note_on,2,0,4,,,,,,,,,4,,,61,92
31968,note_on,2,0,3,,,,,,,,,2,,,74,127
31968,note_on,2,0,6,,,,,,,,,8,,,33,75
31968,note_on,2,0,5,,,,,,,,,6,,,45,75
31968,note_on,2,0,1,,,,,,,,,11,,,77,127
31968,note_on,2,0,2,,,,,,,,,0,,,77,127
32014,note_on,46,0,2,,,,,,,,,0,,,77,0
32014,note_on,46,0,3,,,,,,,,,2,,,74,0
32014,note_on,46,0,1,,,,,,,,,11,,,77,0
32016,note_on,2,0,2,,,,,,,,,0,,,79,127
32016,note_on,2,0,3,,,,,,,,,2,,,76,127
32016,note_on,2,0,1,,,,,,,,,11,,,79,127
32062,note_on,46,0,2,,,,,,,,,0,,,79,0
32062,note_on,94,0,6,,,,,,,,,8,,,33,0
32062,note_on,94,0,4,,,,,,,,,4,,,61,0
32062,note_on,46,0,3,,,,,,,,,2,,,76,0
32062,note_on,46,0,1,,,,,,,,,11,,,79,0
32062,note_on,94,0,5,,,,,,,,,6,,,45,0
32064,note_on,2,0,2,,,,,,,,,0,,,81,127
32064,note_on,2,0,6,,,,,,,,,8,,,33,75
32064,note_on,2,0,5,,,,,,,,,6,,,45,75
32064,note_on,2,0,3,,,,,,,,,2,,,77,127
32064,note_on,2,0,4,,,,,,,,,4,,,61,92
32064,note_on,2,0,1,,,,,,,,,11,,,81,127
32110,note_on,46,0,2,,,,,,,,,0,,,81,0
32110,note_on,46,0,3,,,,,,,,,2,,,77,0
32110,note_on,46,0,1,,,,,,,,,11,,,81,0
32112,note_on,2,0,2,,,,,,,,,0,,,79,127
32112,note_on,2,0,3,,,,,,,,,2,,,76,127
32112,note_on,2,0,1,,,,,,,,,11,,,79,127
32158,note_on,94,0,6,,,,,,,,,8,,,33,0
32158,note_on,94,0,5,,,,,,,,,6,,,45,0
32158,note_on,94,0,4,,,,,,,,,4,,,61,0
32158,note_on,46,0,2,,,,,,,,,0,,,79,0
32158,note_on,46,0,1,,,,,,,,,11,,,79,0
32158,note_on,46,0,3,,,,,,,,,2,,,76,0
32160,note_on,2,0,4,,,,,,,,,4,,,61,92
32160,note_on,2,0,2,,,,,,,,,0,,,77,127
32160,note_on,2,0,3,,,,,,,,,2,,,74,127
32160,note_on,2,0,1,,,,,,,,,11,,,77,127
32160,note_on,2,0,5,,,,,,,,,6,,,45,75
32160,note_on,2,0,6,,,,,,,,,8,,,33,75
32206,note_on,46,0,2,,,,,,,,,0,,,77,0
32206,note_on,46,0,1,,,,,,,,,11,,,77,0
32206,note_on,46,0,3,,,,,,,,,2,,,74,0
32208,note_on,2,0,3,,,,,,,,,2,,,73,127
32208,note_on,2,0,2,,,,,,,,,0,,,76,127
32208,note_on,2,0,1,,,,,,,,,11,,,76,127
32254,note_on,46,0,2,,,,,,,,,0,,,76,0
32254,note_on,94,0,5,,,,,,,,,6,,,45,0
32254,note_on,94,0,6,,,,,,,,,8,,,33,0
32254,note_on,46,0,1,,,,,,,,,11,,,76,0
32254,note_on,94,0,4,,,,,,,,,4,,,61,0
32254,note_on,46,0,3,,,,,,,,,2,,,73,0
32256,note_on,2,0,2,,,,,,,,,0,,,77,127
32256,note_on,2,0,1,,,,,,,,,11,,,77,127
32256,note_on,2,0,4,,,,,,,,,4,,,57,92
32256,note_on,2,0,5,,,,,,,,,6,,,50,75
32256,note_on,2,0,6,,,,,,,,,8,,,38,75
32256,note_on,2,0,3,,,,,,,,,2,,,74,127
32350,note_on,94,0,3,,,,,,,,,2,,,74,0
32350,note_on,94,0,5,,,,,,,,,6,,,50,0
32350,note_on,94,0,4,,,,,,,,,4,,,57,0
32350,note_on,94,0,6,,,,,,,,,8,,,38,0
32350,note_on,94,0,2,,,,,,,,,0,,,77,0
32350,note_on,94,0,1,,,,,,,,,11,,,77,0
32352,note_on,2,0,4,,,,,,,,,4,,,57,92
32352,note_on,2,0,5,,,,,,,,,6,,,50,75
32352,note_on,2,0,3,,,,,,,,,2,,,65,127
32352,note_on,2,0,2,,,,,,,,,0,,,74,127
32352,note_on,2,0,1,,,,,,,,,11,,,74,127
32352,note_on,2,0,6,,,,,,,,,8,,,38,75
32446,note_on,94,0,3,,,,,,,,,2,,,65,0
32446,note_on,94,0,4,,,,,,,,,4,,,57,0
32446,note_on,94,0,1,,,,,,,,,11,,,74,0
32446,note_on,94,0,6,,,,,,,,,8,,,38,0
32446,note_on,94,0,2,,,,,,,,,0,,,74,0
32446,note_on,94,0,5,,,,,,,,,6,,,50,0
32448,note_on,2,0,4,,,,,,,,,4,,,58,92
32448,note_on,2,0,3,,,,,,,,,2,,,67,127
32448,note_on,2,0,6,,,,,,,,,8,,,31,75
32448,note_on,2,0,1,,,,,,,,,11,,,76,127
32448,note_on,2,0,5,,,,,,,,,6,,,43,75
32448,note_on,2,0,2,,,,,,,,,0,,,76,127
32542,note_on,94,0,6,,,,,,,,,8,,,31,0
32542,note_on,94,0,1,,,,,,,,,11,,,76,0
32542,note_on,94,0,4,,,,,,,,,4,,,58,0
32542,note_on,94,0,3,,,,,,,,,2,,,67,0
32542,note_on,94,0,5,,,,,,,,,6,,,43,0
32542,note_on,94,0,2,,,,,,,,,0,,,76,0
32544,note_on,2,0,4,,,,,,,,,4,,,57,92
32544,note_on,2,0,5,,,,,,,,,6,,,45,75
32544,note_on,2,0,3,,,,,,,,,2,,,64,127
32544,note_on,2,0,1,,,,,,,,,11,,,73,127
32544,note_on,2,0,6,,,,,,,,,8,,,33,75
32544,note_on,2,0,2,,,,,,,,,0,,,73,127
32638,note_on,94,0,5,,,,,,,,,6,,,45,0
32638,note_on,94,0,3,,,,,,,,,2,,,64,0
32638,note_on,94,0,2,,,,,,,,,0,,,73,0
32638,note_on,94,0,1,,,,,,,,,11,,,73,0
32638,note_on,94,0,6,,,,,,,,,8,,,33,0
32638,note_on,94,0,4,,,,,,,,,4,,,57,0
32640,note_on,2,0,2,,,,,,,,,0,,,74,127
32640,note_on,2,0,1,,,,,,,,,11,,,74,127
32640,note_on,2,0,5,,,,,,,,,6,,,50,75
32640,note_on,2,0,4,,,,,,,,,4,,,57,92
32640,note_on,2,0,6,,,,,,,,,8,,,38,75
32640,note_on,2,0,3,,,,,,,,,2,,,65,127
32734,note_on,94,0,1,,,,,,,,,11,,,74,0
32736,note_on,2,0,1,,,,,,,,,11,,,80,127
32926,note_on,190,0,1,,,,,,,,,11,,,80,0
32928,note_on,2,0,1,,,,,,,,,11,,,81,127
32976,note_on,336,0,6,,,,,,,,,8,,,38,0
32976,note_on,336,0,2,,,,,,,,,0,,,74,0
32976,note_on,336,0,3,,,,,,,,,2,,,65,0
32976,note_on,336,0,5,,,,,,,,,6,,,50,0
32976,note_on,336,0,4,,,,,,,,,4,,,57,0
33022,note_on,94,0,1,,,,,,,,,11,,,81,0
33024,note_on,2,0,1,,,,,,,,,11,,,76,127
33024,note_on,48,0,5,,,,,,,,,6,,,45,75
33118,note_on,94,0,1,,,,,,,,,11,,,76,0
33120,note_on,2,0,1,,,,,,,,,11,,,77,127
33184,note_on,160,0,5,,,,,,,,,6,,,45,0
33310,note_on,190,0,1,,,,,,,,,11,,,77,0
33312,note_on,2,0,1,,,,,,,,,11,,,79,127
33406,note_on,94,0,1,,,,,,,,,11,,,79,0
33408,note_on,2,0,1,,,,,,,,,11,,,73,127
33408,note_on,224,0,5,,,,,,,,,6,,,45,75
33502,note_on,94,0,1,,,,,,,,,11,,,73,0
33504,note_on,2,0,1,,,,,,,,,11,,,74,127
33694,note_on,190,0,1,,,,,,,,,11,,,74,0
33696,note_on,2,0,1,,,,,,,,,11,,,76,127
33744,note_on,336,0,5,,,,,,,,,6,,,45,0
33790,note_on,94,0,1,,,,,,,,,11,,,76,0
33792,note_on,2,0,1,,,,,,,,,11,,,69,127
33792,note_on,48,0,5,,,,,,,,,6,,,45,75
33886,note_on,94,0,1,,,,,,,,,11,,,69,0
33888,note_on,2,0,1,,,,,,,,,11,,,82,127
33952,note_on,160,0,5,,,,,,,,,6,,,45,0
33982,note_on,94,0,1,,,,,,,,,11,,,82,0
33984,note_on,2,0,1,,,,,,,,,11,,,81,127
33984,note_on,32,0,5,,,,,,,,,6,,,49,75
34030,note_on,46,0,1,,,,,,,,,11,,,81,0
34032,note_on,2,0,1,,,,,,,,,11,,,79,127
34078,note_on,46,0,1,,,,,,,,,11,,,79,0
34080,note_on,2,0,1,,,,,,,,,11,,,77,127
34126,note_on,46,0,1,,,,,,,,,11,,,77,0
34128,note_on,2,0,1,,,,,,,,,11,,,76,127
34144,note_on,160,0,5,,,,,,,,,6,,,49,0
34174,note_on,46,0,1,,,,,,,,,11,,,76,0
34176,note_on,2,0,1,,,,,,,,,11,,,77,127
34176,note_on,32,0,5,,,,,,,,,6,,,50,75
34270,note_on,94,0,1,,,,,,,,,11,,,77,0
34270,note_on,94,0,5,,,,,,,,,6,,,50,0
34272,note_on,2,0,1,,,,,,,,,11,,,76,127
34272,note_on,2,0,5,,,,,,,,,6,,,52,75
34366,note_on,94,0,5,,,,,,,,,6,,,52,0
34366,note_on,94,0,1,,,,,,,,,11,,,76,0
34368,note_on,2,0,5,,,,,,,,,6,,,53,75
34368,note_on,2,0,1,,,,,,,,,11,,,74,127
34462,note_on,94,0,5,,,,,,,,,6,,,53,0
34464,note_on,2,0,5,,,,,,,,,6,,,52,75
34558,note_on,94,0,5,,,,,,,,,6,,,52,0
34560,note_on,2,0,5,,,,,,,,,6,,,50,75
34606,note_on,238,0,1,,,,,,,,,11,,,74,0
34608,note_on,2,0,1,,,,,,,,,11,,,74,127
34654,note_on,46,0,1,,,,,,,,,11,,,74,0
34656,note_on,2,0,1,,,,,,,,,11,,,76,127
34702,note_on,46,0,1,,,,,,,,,11,,,76,0
34704,note_on,2,0,1,,,,,,,,,11,,,74,127
34750,note_on,46,0,1,,,,,,,,,11,,,74,0
34752,note_on,2,0,1,,,,,,,,,11,,,76,127
34798,note_on,46,0,1,,,,,,,,,11,,,76,0
34800,note_on,2,0,1,,,,,,,,,11,,,74,127
34846,note_on,46,0,1,,,,,,,,,11,,,74,0
34848,note_on,2,0,1,,,,,,,,,11,,,76,127
34894,note_on,46,0,1,,,,,,,,,11,,,76,0
34896,note_on,336,0,5,,,,,,,,,6,,,50,0
34896,note_on,2,0,1,,,,,,,,,11,,,74,127
34942,note_on,46,0,1,,,,,,,,,11,,,74,0
34944,note_on,48,0,5,,,,,,,,,6,,,50,75
34944,note_on,2,0,1,,,,,,,,,11,,,77,127
34990,note_on,46,0,1,,,,,,,,,11,,,77,0
34992,note_on,2,0,1,,,,,,,,,11,,,74,127
35038,note_on,46,0,1,,,,,,,,,11,,,74,0
35040,note_on,2,0,1,,,,,,,,,11,,,76,127
35086,note_on,46,0,1,,,,,,,,,11,,,76,0
35088,note_on,2,0,1,,,,,,,,,11,,,74,127
35134,note_on,46,0,1,,,,,,,,,11,,,74,0
35136,note_on,2,0,1,,,,,,,,,11,,,76,127
35182,note_on,46,0,1,,,,,,,,,11,,,76,0
35184,note_on,2,0,1,,,,,,,,,11,,,74,127
35230,note_on,46,0,1,,,,,,,,,11,,,74,0
35232,note_on,2,0,1,,,,,,,,,11,,,76,127
35278,note_on,46,0,1,,,,,,,,,11,,,76,0
35280,note_on,2,0,1,,,,,,,,,11,,,74,127
35280,note_on,336,0,5,,,,,,,,,6,,,50,0
35326,note_on,46,0,1,,,,,,,,,11,,,74,0
35328,note_on,2,0,1,,,,,,,,,11,,,79,127
35328,note_on,48,0,5,,,,,,,,,6,,,50,75
35374,note_on,46,0,1,,,,,,,,,11,,,79,0
35376,note_on,2,0,1,,,,,,,,,11,,,74,127
35422,note_on,46,0,1,,,,,,,,,11,,,74,0
35424,note_on,2,0,1,,,,,,,,,11,,,76,127
35470,note_on,46,0,1,,,,,,,,,11,,,76,0
35472,note_on,2,0,1,,,,,,,,,11,,,74,127
35488,note_on,160,0,5,,,,,,,,,6,,,50,0
35518,note_on,46,0,1,,,,,,,,,11,,,74,0
35520,note_on,2,0,1,,,,,,,,,11,,,76,127
35566,note_on,46,0,1,,,,,,,,,11,,,76,0
35568,note_on,2,0,1,,,,,,,,,11,,,74,127
35614,note_on,46,0,1,,,,,,,,,11,,,74,0
35616,note_on,2,0,1,,,,,,,,,11,,,76,127
35662,note_on,46,0,1,,,,,,,,,11,,,76,0
35664,note_on,2,0,1,,,,,,,,,11,,,74,127
35710,note_on,46,0,1,,,,,,,,,11,,,74,0
35712,note_on,2,0,1,,,,,,,,,11,,,81,127
35712,note_on,224,0,5,,,,,,,,,6,,,50,75
35758,note_on,46,0,1,,,,,,,,,11,,,81,0
35760,note_on,2,0,1,,,,,,,,,11,,,74,127
35806,note_on,46,0,1,,,,,,,,,11,,,74,0
35808,note_on,2,0,1,,,,,,,,,11,,,76,127
35854,note_on,46,0,1,,,,,,,,,11,,,76,0
35856,note_on,2,0,1,,,,,,,,,11,,,74,127
35902,note_on,46,0,1,,,,,,,,,11,,,74,0
35904,note_on,2,0,1,,,,,,,,,11,,,76,127
35950,note_on,46,0,1,,,,,,,,,11,,,76,0
35952,note_on,2,0,1,,,,,,,,,11,,,74,127
35998,note_on,46,0,1,,,,,,,,,11,,,74,0
36000,note_on,2,0,1,,,,,,,,,11,,,76,127
36046,note_on,46,0,1,,,,,,,,,11,,,76,0
36048,note_on,2,0,1,,,,,,,,,11,,,74,127
36048,note_on,336,0,5,,,,,,,,,6,,,50,0
36094,note_on,46,0,1,,,,,,,,,11,,,74,0
36096,note_on,48,0,5,,,,,,,,,6,,,55,75
36096,note_on,3120,0,2,,,,,,,,,0,,,82,127
36096,note_on,2,0,1,,,,,,,,,11,,,82,127
36096,note_on,3120,0,4,,,,,,,,,4,,,67,92
36190,note_on,94,0,5,,,,,,,,,6,,,55,0
36190,note_on,94,0,2,,,,,,,,,0,,,82,0
36190,note_on,94,0,4,,,,,,,,,4,,,67,0
36192,note_on,2,0,4,,,,,,,,,4,,,67,92
36192,note_on,2,0,5,,,,,,,,,6,,,55,75
36192,note_on,2,0,2,,,,,,,,,0,,,82,127
36286,note_on,94,0,4,,,,,,,,,4,,,67,0
36286,note_on,94,0,5,,,,,,,,,6,,,55,0
36286,note_on,94,0,2,,,,,,,,,0,,,82,0
36288,note_on,2,0,4,,,,,,,,,4,,,67,92
36288,note_on,2,0,2,,,,,,,,,0,,,82,127
36288,note_on,2,0,5,,,,,,,,,6,,,55,75
36382,note_on,94,0,4,,,,,,,,,4,,,67,0
36382,note_on,94,0,5,,,,,,,,,6,,,55,0
36382,note_on,94,0,2,,,,,,,,,0,,,82,0
36384,note_on,2,0,4,,,,,,,,,4,,,67,92
36384,note_on,2,0,2,,,,,,,,,0,,,82,127
36384,note_on,2,0,5,,,,,,,,,6,,,55,75
36432,note_on,336,0,1,,,,,,,,,11,,,82,0
36478,note_on,94,0,4,,,,,,,,,4,,,67,0
36478,note_on,94,0,5,,,,,,,,,6,,,55,0
36478,note_on,94,0,2,,,,,,,,,0,,,82,0
36480,note_on,2,0,4,,,,,,,,,4,,,67,92
36480,note_on,2,0,2,,,,,,,,,0,,,82,127
36480,note_on,2,0,5,,,,,,,,,6,,,48,75
36528,note_on,96,0,1,,,,,,,,,11,,,72,127
36574,note_on,46,0,1,,,,,,,,,11,,,72,0
36576,note_on,2,0,1,,,,,,,,,11,,,74,127
36622,note_on,46,0,1,,,,,,,,,11,,,74,0
36624,note_on,2,0,1,,,,,,,,,11,,,72,127
36670,note_on,46,0,1,,,,,,,,,11,,,72,0
36672,note_on,2,0,1,,,,,,,,,11,,,74,127
36718,note_on,46,0,1,,,,,,,,,11,,,74,0
36720,note_on,2,0,1,,,,,,,,,11,,,72,127
36766,note_on,46,0,1,,,,,,,,,11,,,72,0
36768,note_on,2,0,1,,,,,,,,,11,,,74,127
36814,note_on,46,0,1,,,,,,,,,11,,,74,0
36816,note_on,336,0,5,,,,,,,,,6,,,48,0
36816,note_on,2,0,1,,,,,,,,,11,,,72,127
36816,note_on,336,0,4,,,,,,,,,4,,,67,0
36816,note_on,336,0,2,,,,,,,,,0,,,82,0
36862,note_on,46,0,1,,,,,,,,,11,,,72,0
36864,note_on,2,0,1,,,,,,,,,11,,,76,127
36864,note_on,48,0,5,,,,,,,,,6,,,48,75
36910,note_on,46,0,1,,,,,,,,,11,,,76,0
36912,note_on,2,0,1,,,,,,,,,11,,,72,127
36958,note_on,46,0,1,,,,,,,,,11,,,72,0
36960,note_on,2,0,1,,,,,,,,,11,,,74,127
37006,note_on,46,0,1,,,,,,,,,11,,,74,0
37008,note_on,2,0,1,,,,,,,,,11,,,72,127
37024,note_on,160,0,5,,,,,,,,,6,,,48,0
37054,note_on,46,0,1,,,,,,,,,11,,,72,0
37056,note_on,2,0,1,,,,,,,,,11,,,74,127
37102,note_on,46,0,1,,,,,,,,,11,,,74,0
37104,note_on,2,0,1,,,,,,,,,11,,,72,127
37150,note_on,46,0,1,,,,,,,,,11,,,72,0
37152,note_on,2,0,1,,,,,,,,,11,,,74,127
37198,note_on,46,0,1,,,,,,,,,11,,,74,0
37200,note_on,2,0,1,,,,,,,,,11,,,72,127
37246,note_on,46,0,1,,,,,,,,,11,,,72,0
37248,note_on,224,0,5,,,,,,,,,6,,,48,75
37248,note_on,2,0,1,,,,,,,,,11,,,77,127
37294,note_on,46,0,1,,,,,,,,,11,,,77,0
37296,note_on,2,0,1,,,,,,,,,11,,,72,127
37342,note_on,46,0,1,,,,,,,,,11,,,72,0
37344,note_on,2,0,1,,,,,,,,,11,,,74,127
37390,note_on,46,0,1,,,,,,,,,11,,,74,0
37392,note_on,2,0,1,,,,,,,,,11,,,72,127
37438,note_on,46,0,1,,,,,,,,,11,,,72,0
37440,note_on,2,0,1,,,,,,,,,11,,,74,127
37486,note_on,46,0,1,,,,,,,,,11,,,74,0
37488,note_on,2,0,1,,,,,,,,,11,,,72,127
37534,note_on,46,0,1,,,,,,,,,11,,,72,0
37536,note_on,2,0,1,,,,,,,,,11,,,74,127
37582,note_on,46,0,1,,,,,,,,,11,,,74,0
37584,note_on,2,0,1,,,,,,,,,11,,,72,127
37584,note_on,336,0,5,,,,,,,,,6,,,48,0
37630,note_on,46,0,1,,,,,,,,,11,,,72,0
37632,note_on,48,0,5,,,,,,,,,6,,,48,75
37632,note_on,2,0,1,,,,,,,,,11,,,79,127
37678,note_on,46,0,1,,,,,,,,,11,,,79,0
37680,note_on,2,0,1,,,,,,,,,11,,,72,127
37726,note_on,46,0,1,,,,,,,,,11,,,72,0
37728,note_on,2,0,1,,,,,,,,,11,,,74,127
37774,note_on,46,0,1,,,,,,,,,11,,,74,0
37776,note_on,2,0,1,,,,,,,,,11,,,72,127
37792,note_on,160,0,5,,,,,,,,,6,,,48,0
37822,note_on,46,0,1,,,,,,,,,11,,,72,0
37824,note_on,2,0,1,,,,,,,,,11,,,74,127
37870,note_on,46,0,1,,,,,,,,,11,,,74,0
37872,note_on,2,0,1,,,,,,,,,11,,,72,127
37918,note_on,46,0,1,,,,,,,,,11,,,72,0
37920,note_on,2,0,1,,,,,,,,,11,,,74,127
37966,note_on,46,0,1,,,,,,,,,11,,,74,0
37968,note_on,2,0,1,,,,,,,,,11,,,72,127
38014,note_on,46,0,1,,,,,,,,,11,,,72,0
38016,note_on,224,0,5,,,,,,,,,6,,,53,75
38016,note_on,2,0,1,,,,,,,,,11,,,81,127
38016,note_on,1200,0,2,,,,,,,,,0,,,81,127
38016,note_on,1200,0,4,,,,,,,,,4,,,65,92
38110,note_on,94,0,2,,,,,,,,,0,,,81,0
38110,note_on,94,0,4,,,,,,,,,4,,,65,0
38110,note_on,94,0,5,,,,,,,,,6,,,53,0
38112,note_on,2,0,2,,,,,,,,,0,,,81,127
38112,note_on,2,0,4,,,,,,,,,4,,,65,92
38112,note_on,2,0,5,,,,,,,,,6,,,53,75
38206,note_on,94,0,2,,,,,,,,,0,,,81,0
38206,note_on,94,0,4,,,,,,,,,4,,,65,0
38206,note_on,94,0,5,,,,,,,,,6,,,53,0
38208,note_on,2,0,2,,,,,,,,,0,,,81,127
38208,note_on,2,0,5,,,,,,,,,6,,,53,75
38208,note_on,2,0,4,,,,,,,,,4,,,65,92
38302,note_on,94,0,4,,,,,,,,,4,,,65,0
38302,note_on,94,0,2,,,,,,,,,0,,,81,0
38302,note_on,94,0,5,,,,,,,,,6,,,53,0
38304,note_on,2,0,5,,,,,,,,,6,,,53,75
38304,note_on,2,0,4,,,,,,,,,4,,,65,92
38304,note_on,2,0,2,,,,,,,,,0,,,81,127
38352,note_on,336,0,1,,,,,,,,,11,,,81,0
38398,note_on,94,0,5,,,,,,,,,6,,,53,0
38398,note_on,94,0,4,,,,,,,,,4,,,65,0
38398,note_on,94,0,2,,,,,,,,,0,,,81,0
38400,note_on,2,0,4,,,,,,,,,4,,,65,92
38400,note_on,2,0,2,,,,,,,,,0,,,81,127
38400,note_on,2,0,5,,,,,,,,,6,,,46,75
38448,note_on,96,0,1,,,,,,,,,11,,,70,127
38494,note_on,46,0,1,,,,,,,,,11,,,70,0
38496,note_on,2,0,1,,,,,,,,,11,,,72,127
38542,note_on,46,0,1,,,,,,,,,11,,,72,0
38544,note_on,2,0,1,,,,,,,,,11,,,70,127
38590,note_on,46,0,1,,,,,,,,,11,,,70,0
38592,note_on,2,0,1,,,,,,,,,11,,,72,127
38638,note_on,46,0,1,,,,,,,,,11,,,72,0
38640,note_on,2,0,1,,,,,,,,,11,,,70,127
38686,note_on,46,0,1,,,,,,,,,11,,,70,0
38688,note_on,2,0,1,,,,,,,,,11,,,72,127
38734,note_on,46,0,1,,,,,,,,,11,,,72,0
38736,note_on,2,0,1,,,,,,,,,11,,,70,127
38736,note_on,336,0,5,,,,,,,,,6,,,46,0
38736,note_on,336,0,2,,,,,,,,,0,,,81,0
38736,note_on,336,0,4,,,,,,,,,4,,,65,0
38782,note_on,46,0,1,,,,,,,,,11,,,70,0
38784,note_on,2,0,1,,,,,,,,,11,,,74,127
38784,note_on,48,0,5,,,,,,,,,6,,,46,75
38830,note_on,46,0,1,,,,,,,,,11,,,74,0
38832,note_on,2,0,1,,,,,,,,,11,,,70,127
38878,note_on,46,0,1,,,,,,,,,11,,,70,0
38880,note_on,2,0,1,,,,,,,,,11,,,72,127
38926,note_on,46,0,1,,,,,,,,,11,,,72,0
38928,note_on,2,0,1,,,,,,,,,11,,,70,127
38974,note_on,46,0,1,,,,,,,,,11,,,70,0
38976,note_on,2,0,1,,,,,,,,,11,,,72,127
39022,note_on,46,0,1,,,,,,,,,11,,,72,0
39024,note_on,2,0,1,,,,,,,,,11,,,70,127
39070,note_on,46,0,1,,,,,,,,,11,,,70,0
39072,note_on,2,0,1,,,,,,,,,11,,,72,127
39118,note_on,46,0,1,,,,,,,,,11,,,72,0
39120,note_on,2,0,1,,,,,,,,,11,,,70,127
39120,note_on,336,0,5,,,,,,,,,6,,,46,0
39166,note_on,46,0,1,,,,,,,,,11,,,70,0
39168,note_on,2,0,1,,,,,,,,,11,,,75,127
39168,note_on,48,0,5,,,,,,,,,6,,,46,75
39214,note_on,46,0,1,,,,,,,,,11,,,75,0
39216,note_on,2,0,1,,,,,,,,,11,,,70,127
39262,note_on,46,0,1,,,,,,,,,11,,,70,0
39264,note_on,2,0,1,,,,,,,,,11,,,72,127
39310,note_on,46,0,1,,,,,,,,,11,,,72,0
39312,note_on,2,0,1,,,,,,,,,11,,,70,127
39328,note_on,160,0,5,,,,,,,,,6,,,46,0
39358,note_on,46,0,1,,,,,,,,,11,,,70,0
39360,note_on,2,0,1,,,,,,,,,11,,,72,127
39406,note_on,46,0,1,,,,,,,,,11,,,72,0
39408,note_on,2,0,1,,,,,,,,,11,,,70,127
39454,note_on,46,0,1,,,,,,,,,11,,,70,0
39456,note_on,2,0,1,,,,,,,,,11,,,72,127
39502,note_on,46,0,1,,,,,,,,,11,,,72,0
39504,note_on,2,0,1,,,,,,,,,11,,,70,127
39550,note_on,46,0,1,,,,,,,,,11,,,70,0
39552,note_on,224,0,5,,,,,,,,,6,,,46,75
39552,note_on,2,0,1,,,,,,,,,11,,,77,127
39598,note_on,46,0,1,,,,,,,,,11,,,77,0
39600,note_on,2,0,1,,,,,,,,,11,,,70,127
39646,note_on,46,0,1,,,,,,,,,11,,,70,0
39648,note_on,2,0,1,,,,,,,,,11,,,72,127
39694,note_on,46,0,1,,,,,,,,,11,,,72,0
39696,note_on,2,0,1,,,,,,,,,11,,,70,127
39742,note_on,46,0,1,,,,,,,,,11,,,70,0
39744,note_on,2,0,1,,,,,,,,,11,,,72,127
39790,note_on,46,0,1,,,,,,,,,11,,,72,0
39792,note_on,2,0,1,,,,,,,,,11,,,70,127
39838,note_on,46,0,1,,,,,,,,,11,,,70,0
39840,note_on,2,0,1,,,,,,,,,11,,,72,127
39886,note_on,46,0,1,,,,,,,,,11,,,72,0
39888,note_on,2,0,1,,,,,,,,,11,,,70,127
39888,note_on,336,0,5,,,,,,,,,6,,,46,0
39934,note_on,46,0,1,,,,,,,,,11,,,70,0
39936,note_on,48,0,5,,,,,,,,,6,,,53,75
39936,note_on,2,0,1,,,,,,,,,11,,,69,127
39936,note_on,1200,0,4,,,,,,,,,4,,,69,92
39936,note_on,1200,0,2,,,,,,,,,0,,,75,127
40030,note_on,94,0,5,,,,,,,,,6,,,53,0
40030,note_on,94,0,4,,,,,,,,,4,,,69,0
40030,note_on,94,0,2,,,,,,,,,0,,,75,0
40030,note_on,94,0,1,,,,,,,,,11,,,69,0
40032,note_on,2,0,1,,,,,,,,,11,,,65,127
40032,note_on,2,0,2,,,,,,,,,0,,,75,127
40032,note_on,2,0,5,,,,,,,,,6,,,53,75
40032,note_on,2,0,4,,,,,,,,,4,,,69,92
40126,note_on,94,0,2,,,,,,,,,0,,,75,0
40126,note_on,94,0,5,,,,,,,,,6,,,53,0
40126,note_on,94,0,4,,,,,,,,,4,,,69,0
40128,note_on,2,0,2,,,,,,,,,0,,,75,127
40128,note_on,2,0,5,,,,,,,,,6,,,53,75
40128,note_on,2,0,4,,,,,,,,,4,,,69,92
40222,note_on,94,0,2,,,,,,,,,0,,,75,0
40222,note_on,94,0,4,,,,,,,,,4,,,69,0
40222,note_on,94,0,5,,,,,,,,,6,,,53,0
40222,note_on,190,0,1,,,,,,,,,11,,,65,0
40224,note_on,2,0,1,,,,,,,,,11,,,72,127
40224,note_on,2,0,5,,,,,,,,,6,,,53,75
40224,note_on,2,0,2,,,,,,,,,0,,,75,127
40224,note_on,2,0,4,,,,,,,,,4,,,69,92
40318,note_on,94,0,2,,,,,,,,,0,,,75,0
40318,note_on,94,0,4,,,,,,,,,4,,,69,0
40318,note_on,94,0,1,,,,,,,,,11,,,72,0
40318,note_on,94,0,5,,,,,,,,,6,,,53,0
40320,note_on,2,0,5,,,,,,,,,6,,,46,75
40320,note_on,2,0,1,,,,,,,,,11,,,74,127
40320,note_on,2,0,4,,,,,,,,,4,,,65,92
40320,note_on,2,0,2,,,,,,,,,0,,,74,127
40366,note_on,46,0,1,,,,,,,,,11,,,74,0
40368,note_on,2,0,1,,,,,,,,,11,,,72,127
40390,note_on,22,0,1,,,,,,,,,11,,,72,0
40392,note_on,2,0,1,,,,,,,,,11,,,70,127
40414,note_on,22,0,1,,,,,,,,,11,,,70,0
40416,note_on,2,0,1,,,,,,,,,11,,,77,127
40462,note_on,46,0,1,,,,,,,,,11,,,77,0
40464,note_on,2,0,1,,,,,,,,,11,,,75,127
40480,note_on,160,0,5,,,,,,,,,6,,,46,0
40486,note_on,22,0,1,,,,,,,,,11,,,75,0
40488,note_on,2,0,1,,,,,,,,,11,,,74,127
40510,note_on,22,0,1,,,,,,,,,11,,,74,0
40512,note_on,32,0,5,,,,,,,,,6,,,50,75
40512,note_on,2,0,1,,,,,,,,,11,,,82,127
40606,note_on,94,0,1,,,,,,,,,11,,,82,0
40608,note_on,2,0,1,,,,,,,,,11,,,80,127
40656,note_on,336,0,2,,,,,,,,,0,,,74,0
40656,note_on,336,0,4,,,,,,,,,4,,,65,0
40672,note_on,160,0,5,,,,,,,,,6,,,50,0
40702,note_on,94,0,1,,,,,,,,,11,,,80,0
40704,note_on,32,0,5,,,,,,,,,6,,,51,75
40704,note_on,2,0,1,,,,,,,,,11,,,80,127
40798,note_on,94,0,1,,,,,,,,,11,,,80,0
40800,note_on,2,0,1,,,,,,,,,11,,,78,127
40864,note_on,160,0,5,,,,,,,,,6,,,51,0
40894,note_on,94,0,1,,,,,,,,,11,,,78,0
40896,note_on,2,0,1,,,,,,,,,11,,,79,127
40896,note_on,32,0,5,,,,,,,,,6,,,39,75
40990,note_on,94,0,1,,,,,,,,,11,,,79,0
40992,note_on,2,0,1,,,,,,,,,11,,,72,127
41056,note_on,160,0,5,,,,,,,,,6,,,39,0
41086,note_on,94,0,1,,,,,,,,,11,,,72,0
41088,note_on,2,0,1,,,,,,,,,11,,,76,127
41088,note_on,32,0,5,,,,,,,,,6,,,48,75
41134,note_on,46,0,1,,,,,,,,,11,,,76,0
41136,note_on,2,0,1,,,,,,,,,11,,,74,127
41158,note_on,22,0,1,,,,,,,,,11,,,74,0
41160,note_on,2,0,1,,,,,,,,,11,,,72,127
41182,note_on,22,0,1,,,,,,,,,11,,,72,0
41184,note_on,2,0,1,,,,,,,,,11,,,79,127
41230,note_on,46,0,1,,,,,,,,,11,,,79,0
41232,note_on,2,0,1,,,,,,,,,11,,,77,127
41248,note_on,160,0,5,,,,,,,,,6,,,48,0
41254,note_on,22,0,1,,,,,,,,,11,,,77,0
41256,note_on,2,0,1,,,,,,,,,11,,,76,127
41278,note_on,22,0,1,,,,,,,,,11,,,76,0
41280,note_on,32,0,5,,,,,,,,,6,,,52,75
41280,note_on,2,0,1,,,,,,,,,11,,,84,127
41374,note_on,94,0,1,,,,,,,,,11,,,84,0
41376,note_on,2,0,1,,,,,,,,,11,,,82,127
41440,note_on,160,0,5,,,,,,,,,6,,,52,0
41470,note_on,94,0,1,,,,,,,,,11,,,82,0
41472,note_on,32,0,5,,,,,,,,,6,,,53,75
41472,note_on,2,0,1,,,,,,,,,11,,,82,127
41566,note_on,94,0,1,,,,,,,,,11,,,82,0
41568,note_on,2,0,1,,,,,,,,,11,,,80,127
41632,note_on,160,0,5,,,,,,,,,6,,,53,0
41662,note_on,94,0,1,,,,,,,,,11,,,80,0
41664,note_on,2,0,1,,,,,,,,,11,,,81,127
41664,note_on,32,0,5,,,,,,,,,6,,,41,75
41758,note_on,94,0,1,,,,,,,,,11,,,81,0
41760,note_on,2,0,1,,,,,,,,,11,,,74,127
41824,note_on,160,0,5,,,,,,,,,6,,,41,0
41854,note_on,94,0,1,,,,,,,,,11,,,74,0
41856,note_on,32,0,5,,,,,,,,,6,,,50,75
41856,note_on,2,0,1,,,,,,,,,11,,,78,127
41902,note_on,46,0,1,,,,,,,,,11,,,78,0
41904,note_on,2,0,1,,,,,,,,,11,,,76,127
41926,note_on,22,0,1,,,,,,,,,11,,,76,0
41928,note_on,2,0,1,,,,,,,,,11,,,74,127
41950,note_on,22,0,1,,,,,,,,,11,,,74,0
41952,note_on,2,0,1,,,,,,,,,11,,,81,127
41998,note_on,46,0,1,,,,,,,,,11,,,81,0
42000,note_on,2,0,1,,,,,,,,,11,,,79,127
42016,note_on,160,0,5,,,,,,,,,6,,,50,0
42022,note_on,22,0,1,,,,,,,,,11,,,79,0
42024,note_on,2,0,1,,,,,,,,,11,,,78,127
42046,note_on,22,0,1,,,,,,,,,11,,,78,0
42048,note_on,2,0,1,,,,,,,,,11,,,86,127
42048,note_on,32,0,5,,,,,,,,,6,,,54,75
42142,note_on,94,0,1,,,,,,,,,11,,,86,0
42144,note_on,2,0,1,,,,,,,,,11,,,84,127
42208,note_on,160,0,5,,,,,,,,,6,,,54,0
42238,note_on,94,0,1,,,,,,,,,11,,,84,0
42240,note_on,32,0,5,,,,,,,,,6,,,55,75
42240,note_on,2,0,1,,,,,,,,,11,,,84,127
42334,note_on,94,0,1,,,,,,,,,11,,,84,0
42336,note_on,2,0,1,,,,,,,,,11,,,81,127
42400,note_on,160,0,5,,,,,,,,,6,,,55,0
42430,note_on,94,0,1,,,,,,,,,11,,,81,0
42432,note_on,2,0,1,,,,,,,,,11,,,82,127
42432,note_on,32,0,5,,,,,,,,,6,,,43,75
42592,note_on,160,0,5,,,,,,,,,6,,,43,0
42592,note_on,160,0,1,,,,,,,,,11,,,82,0
42624,note_on,32,0,5,,,,,,,,,6,,,46,75
42672,note_on,80,0,1,,,,,,,,,11,,,70,127
42718,note_on,46,0,1,,,,,,,,,11,,,70,0
42720,note_on,2,0,1,,,,,,,,,11,,,72,127
42766,note_on,46,0,1,,,,,,,,,11,,,72,0
42768,note_on,2,0,1,,,,,,,,,11,,,70,127
42814,note_on,46,0,1,,,,,,,,,11,,,70,0
42816,note_on,2,0,1,,,,,,,,,11,,,69,127
42862,note_on,46,0,1,,,,,,,,,11,,,69,0
42864,note_on,2,0,1,,,,,,,,,11,,,70,127
42910,note_on,46,0,1,,,,,,,,,11,,,70,0
42912,note_on,2,0,1,,,,,,,,,11,,,72,127
42958,note_on,46,0,1,,,,,,,,,11,,,72,0
42960,note_on,2,0,1,,,,,,,,,11,,,70,127
42960,note_on,336,0,5,,,,,,,,,6,,,46,0
43006,note_on,46,0,1,,,,,,,,,11,,,70,0
43008,note_on,2,0,1,,,,,,,,,11,,,74,127
43008,note_on,48,0,5,,,,,,,,,6,,,46,75
43054,note_on,46,0,1,,,,,,,,,11,,,74,0
43056,note_on,2,0,1,,,,,,,,,11,,,70,127
43102,note_on,46,0,1,,,,,,,,,11,,,70,0
43104,note_on,2,0,1,,,,,,,,,11,,,72,127
43150,note_on,46,0,1,,,,,,,,,11,,,72,0
43152,note_on,2,0,1,,,,,,,,,11,,,70,127
43168,note_on,160,0,5,,,,,,,,,6,,,46,0
43198,note_on,46,0,1,,,,,,,,,11,,,70,0
43200,note_on,2,0,1,,,,,,,,,11,,,69,127
43246,note_on,46,0,1,,,,,,,,,11,,,69,0
43248,note_on,2,0,1,,,,,,,,,11,,,70,127
43294,note_on,46,0,1,,,,,,,,,11,,,70,0
43296,note_on,2,0,1,,,,,,,,,11,,,72,127
43342,note_on,46,0,1,,,,,,,,,11,,,72,0
43344,note_on,2,0,1,,,,,,,,,11,,,70,127
43390,note_on,46,0,1,,,,,,,,,11,,,70,0
43392,note_on,2,0,1,,,,,,,,,11,,,75,127
43392,note_on,224,0,5,,,,,,,,,6,,,46,75
43438,note_on,46,0,1,,,,,,,,,11,,,75,0
43440,note_on,2,0,1,,,,,,,,,11,,,70,127
43486,note_on,46,0,1,,,,,,,,,11,,,70,0
43488,note_on,2,0,1,,,,,,,,,11,,,72,127
43534,note_on,46,0,1,,,,,,,,,11,,,72,0
43536,note_on,2,0,1,,,,,,,,,11,,,70,127
43582,note_on,46,0,1,,,,,,,,,11,,,70,0
43584,note_on,2,0,1,,,,,,,,,11,,,69,127
43630,note_on,46,0,1,,,,,,,,,11,,,69,0
43632,note_on,2,0,1,,,,,,,,,11,,,70,127
43678,note_on,46,0,1,,,,,,,,,11,,,70,0
43680,note_on,2,0,1,,,,,,,,,11,,,72,127
43726,note_on,46,0,1,,,,,,,,,11,,,72,0
43728,note_on,2,0,1,,,,,,,,,11,,,70,127
43728,note_on,336,0,5,,,,,,,,,6,,,46,0
43774,note_on,46,0,1,,,,,,,,,11,,,70,0
43776,note_on,2,0,1,,,,,,,,,11,,,77,127
43776,note_on,48,0,5,,,,,,,,,6,,,46,75
43822,note_on,46,0,1,,,,,,,,,11,,,77,0
43824,note_on,2,0,1,,,,,,,,,11,,,70,127
43870,note_on,46,0,1,,,,,,,,,11,,,70,0
43872,note_on,2,0,1,,,,,,,,,11,,,72,127
43918,note_on,46,0,1,,,,,,,,,11,,,72,0
43920,note_on,2,0,1,,,,,,,,,11,,,70,127
43936,note_on,160,0,5,,,,,,,,,6,,,46,0
43966,note_on,46,0,1,,,,,,,,,11,,,70,0
43968,note_on,2,0,1,,,,,,,,,11,,,69,127
44014,note_on,46,0,1,,,,,,,,,11,,,69,0
44016,note_on,2,0,1,,,,,,,,,11,,,70,127
44062,note_on,46,0,1,,,,,,,,,11,,,70,0
44064,note_on,2,0,1,,,,,,,,,11,,,72,127
44110,note_on,46,0,1,,,,,,,,,11,,,72,0
44112,note_on,2,0,1,,,,,,,,,11,,,70,127
44158,note_on,46,0,1,,,,,,,,,11,,,70,0
44160,note_on,2,0,1,,,,,,,,,11,,,79,127
44160,note_on,224,0,5,,,,,,,,,6,,,51,75
44206,note_on,46,0,1,,,,,,,,,11,,,79,0
44208,note_on,2,0,1,,,,,,,,,11,,,81,127
44254,note_on,46,0,1,,,,,,,,,11,,,81,0
44254,note_on,94,0,5,,,,,,,,,6,,,51,0
44256,note_on,2,0,5,,,,,,,,,6,,,53,75
44256,note_on,2,0,1,,,,,,,,,11,,,82,127
44350,note_on,94,0,5,,,,,,,,,6,,,53,0
44352,note_on,2,0,5,,,,,,,,,6,,,55,75
44398,note_on,142,0,1,,,,,,,,,11,,,82,0
44400,note_on,2,0,1,,,,,,,,,11,,,79,127
44446,note_on,94,0,5,,,,,,,,,6,,,55,0
44446,note_on,46,0,1,,,,,,,,,11,,,79,0
44448,note_on,2,0,5,,,,,,,,,6,,,57,75
44448,note_on,2,0,1,,,,,,,,,11,,,77,127
44494,note_on,46,0,1,,,,,,,,,11,,,77,0
44496,note_on,2,0,1,,,,,,,,,11,,,75,127
44542,note_on,94,0,5,,,,,,,,,6,,,57,0
44542,note_on,46,0,1,,,,,,,,,11,,,75,0
44544,note_on,2,0,1,,,,,,,,,11,,,74,127
44544,note_on,2,0,5,,,,,,,,,6,,,58,75
44590,note_on,46,0,1,,,,,,,,,11,,,74,0
44592,note_on,2,0,1,,,,,,,,,11,,,72,127
44614,note_on,22,0,1,,,,,,,,,11,,,72,0
44616,note_on,2,0,1,,,,,,,,,11,,,70,127
44638,note_on,94,0,5,,,,,,,,,6,,,58,0
44638,note_on,22,0,1,,,,,,,,,11,,,70,0
44640,note_on,2,0,1,,,,,,,,,11,,,77,127
44640,note_on,2,0,5,,,,,,,,,6,,,46,75
44686,note_on,46,0,1,,,,,,,,,11,,,77,0
44688,note_on,2,0,1,,,,,,,,,11,,,70,127
44734,note_on,94,0,5,,,,,,,,,6,,,46,0
44734,note_on,46,0,1,,,,,,,,,11,,,70,0
44736,note_on,2,0,1,,,,,,,,,11,,,74,127
44736,note_on,2,0,5,,,,,,,,,6,,,53,75
44758,note_on,22,0,1,,,,,,,,,11,,,74,0
44760,note_on,2,0,1,,,,,,,,,11,,,72,127
44782,note_on,22,0,1,,,,,,,,,11,,,72,0
44784,note_on,2,0,1,,,,,,,,,11,,,74,127
44806,note_on,22,0,1,,,,,,,,,11,,,74,0
44808,note_on,2,0,1,,,,,,,,,11,,,72,127
44830,note_on,94,0,5,,,,,,,,,6,,,53,0
44832,note_on,11856,0,6,,,,,,,,,8,,,29,75
44832,note_on,4176,0,2,,,,,,,,,0,,,79,127
44832,note_on,11856,0,3,,,,,,,,,2,,,75,127
44832,note_on,2,0,5,,,,,,,,,6,,,41,75
44878,note_on,70,0,1,,,,,,,,,11,,,72,0
44880,note_on,2,0,1,,,,,,,,,11,,,70,127
44926,note_on,94,0,5,,,,,,,,,6,,,41,0
44926,note_on,94,0,2,,,,,,,,,0,,,79,0
44926,note_on,46,0,1,,,,,,,,,11,,,70,0
44926,note_on,94,0,6,,,,,,,,,8,,,29,0
44926,note_on,94,0,3,,,,,,,,,2,,,75,0
44928,note_on,2,0,5,,,,,,,,,6,,,58,75
44928,note_on,2,0,3,,,,,,,,,2,,,75,127
44928,note_on,2,0,6,,,,,,,,,8,,,46,75
44928,note_on,4272,0,4,,,,,,,,,4,,,70,92
44928,note_on,2,0,2,,,,,,,,,0,,,79,127
44928,note_on,2,0,1,,,,,,,,,11,,,70,127
45022,note_on,94,0,4,,,,,,,,,4,,,70,0
45022,note_on,94,0,5,,,,,,,,,6,,,58,0
45022,note_on,94,0,6,,,,,,,,,8,,,46,0
45024,note_on,2,0,4,,,,,,,,,4,,,72,92
45024,note_on,2,0,5,,,,,,,,,6,,,57,75
45024,note_on,2,0,6,,,,,,,,,8,,,45,75
45088,note_on,160,0,3,,,,,,,,,2,,,75,0
45088,note_on,160,0,2,,,,,,,,,0,,,79,0
45118,note_on,94,0,5,,,,,,,,,6,,,57,0
45118,note_on,94,0,6,,,,,,,,,8,,,45,0
45118,note_on,94,0,4,,,,,,,,,4,,,72,0
45120,note_on,2,0,4,,,,,,,,,4,,,74,92
45120,note_on,2,0,5,,,,,,,,,6,,,58,75
45120,note_on,32,0,2,,,,,,,,,0,,,77,127
45120,note_on,2,0,6,,,,,,,,,8,,,46,75
45120,note_on,32,0,3,,,,,,,,,2,,,74,127
45184,note_on,256,0,1,,,,,,,,,11,,,70,0
45214,note_on,94,0,6,,,,,,,,,8,,,46,0
45214,note_on,94,0,2,,,,,,,,,0,,,77,0
45214,note_on,94,0,3,,,,,,,,,2,,,74,0
45214,note_on,94,0,5,,,,,,,,,6,,,58,0
45214,note_on,94,0,4,,,,,,,,,4,,,74,0
45216,note_on,32,0,1,,,,,,,,,11,,,82,127
45216,note_on,2,0,6,,,,,,,,,8,,,34,75
45216,note_on,2,0,2,,,,,,,,,0,,,82,127
45216,note_on,2,0,3,,,,,,,,,2,,,86,127
45216,note_on,2,0,5,,,,,,,,,6,,,46,75
45216,note_on,2,0,4,,,,,,,,,4,,,65,92
45310,note_on,94,0,1,,,,,,,,,11,,,82,0
45310,note_on,94,0,6,,,,,,,,,8,,,34,0
45310,note_on,94,0,5,,,,,,,,,6,,,46,0
45310,note_on,94,0,4,,,,,,,,,4,,,65,0
45310,note_on,94,0,2,,,,,,,,,0,,,82,0
45310,note_on,94,0,3,,,,,,,,,2,,,86,0
45312,note_on,2,0,6,,,,,,,,,8,,,41,75
45312,note_on,2,0,1,,,,,,,,,11,,,82,127
45312,note_on,2,0,2,,,,,,,,,0,,,82,127
45312,note_on,2,0,4,,,,,,,,,4,,,65,92
45312,note_on,2,0,5,,,,,,,,,6,,,53,75
45312,note_on,2,0,3,,,,,,,,,2,,,86,127
45406,note_on,94,0,5,,,,,,,,,6,,,53,0
45406,note_on,94,0,6,,,,,,,,,8,,,41,0
45408,note_on,2,0,6,,,,,,,,,8,,,39,75
45408,note_on,2,0,5,,,,,,,,,6,,,51,75
45472,note_on,160,0,3,,,,,,,,,2,,,86,0
45472,note_on,160,0,1,,,,,,,,,11,,,82,0
45472,note_on,160,0,2,,,,,,,,,0,,,82,0
45502,note_on,94,0,6,,,,,,,,,8,,,39,0
45502,note_on,94,0,5,,,,,,,,,6,,,51,0
45504,note_on,2,0,6,,,,,,,,,8,,,41,75
45504,note_on,32,0,1,,,,,,,,,11,,,81,127
45504,note_on,32,0,3,,,,,,,,,2,,,84,127
45504,note_on,2,0,5,,,,,,,,,6,,,53,75
45504,note_on,32,0,2,,,,,,,,,0,,,81,127
45568,note_on,256,0,4,,,,,,,,,4,,,65,0
45598,note_on,94,0,1,,,,,,,,,11,,,81,0
45598,note_on,94,0,5,,,,,,,,,6,,,53,0
45598,note_on,94,0,3,,,,,,,,,2,,,84,0
45598,note_on,94,0,6,,,,,,,,,8,,,41,0
45598,note_on,94,0,2,,,,,,,,,0,,,81,0
45600,note_on,32,0,4,,,,,,,,,4,,,65,92
45600,note_on,2,0,6,,,,,,,,,8,,,34,75
45600,note_on,2,0,3,,,,,,,,,2,,,74,127
45600,note_on,2,0,1,,,,,,,,,11,,,82,127
45600,note_on,2,0,2,,,,,,,,,0,,,82,127
45600,note_on,2,0,5,,,,,,,,,6,,,46,75
45694,note_on,94,0,5,,,,,,,,,6,,,46,0
45694,note_on,94,0,4,,,,,,,,,4,,,65,0
45694,note_on,94,0,1,,,,,,,,,11,,,82,0
45694,note_on,94,0,3,,,,,,,,,2,,,74,0
45694,note_on,94,0,6,,,,,,,,,8,,,34,0
45694,note_on,94,0,2,,,,,,,,,0,,,82,0
45696,note_on,2,0,2,,,,,,,,,0,,,79,127
45696,note_on,2,0,6,,,,,,,,,8,,,46,75
45696,note_on,2,0,5,,,,,,,,,6,,,58,75
45696,note_on,2,0,4,,,,,,,,,4,,,70,92
45696,note_on,2,0,1,,,,,,,,,11,,,79,127
45696,note_on,2,0,3,,,,,,,,,2,,,75,127
45790,note_on,94,0,6,,,,,,,,,8,,,46,0
45790,note_on,94,0,5,,,,,,,,,6,,,58,0
45790,note_on,94,0,4,,,,,,,,,4,,,70,0
45792,note_on,2,0,4,,,,,,,,,4,,,72,92
45792,note_on,2,0,6,,,,,,,,,8,,,45,75
45792,note_on,2,0,5,,,,,,,,,6,,,57,75
45856,note_on,160,0,3,,,,,,,,,2,,,75,0
45856,note_on,160,0,1,,,,,,,,,11,,,79,0
45856,note_on,160,0,2,,,,,,,,,0,,,79,0
45886,note_on,94,0,5,,,,,,,,,6,,,57,0
45886,note_on,94,0,6,,,,,,,,,8,,,45,0
45886,note_on,94,0,4,,,,,,,,,4,,,72,0
45888,note_on,2,0,5,,,,,,,,,6,,,58,75
45888,note_on,32,0,3,,,,,,,,,2,,,74,127
45888,note_on,2,0,6,,,,,,,,,8,,,46,75
45888,note_on,2,0,4,,,,,,,,,4,,,74,92
45888,note_on,32,0,2,,,,,,,,,0,,,77,127
45888,note_on,32,0,1,,,,,,,,,11,,,77,127
45982,note_on,94,0,2,,,,,,,,,0,,,77,0
45982,note_on,94,0,1,,,,,,,,,11,,,77,0
45982,note_on,94,0,3,,,,,,,,,2,,,74,0
45982,note_on,94,0,6,,,,,,,,,8,,,46,0
45982,note_on,94,0,5,,,,,,,,,6,,,58,0
45982,note_on,94,0,4,,,,,,,,,4,,,74,0
45984,note_on,2,0,2,,,,,,,,,0,,,82,127
45984,note_on,2,0,3,,,,,,,,,2,,,86,127
45984,note_on,2,0,1,,,,,,,,,11,,,82,127
45984,note_on,2,0,4,,,,,,,,,4,,,65,92
45984,note_on,2,0,5,,,,,,,,,6,,,46,75
45984,note_on,2,0,6,,,,,,,,,8,,,34,75
46078,note_on,94,0,5,,,,,,,,,6,,,46,0
46078,note_on,94,0,2,,,,,,,,,0,,,82,0
46078,note_on,94,0,1,,,,,,,,,11,,,82,0
46078,note_on,94,0,4,,,,,,,,,4,,,65,0
46078,note_on,94,0,6,,,,,,,,,8,,,34,0
46078,note_on,94,0,3,,,,,,,,,2,,,86,0
46080,note_on,2,0,3,,,,,,,,,2,,,86,127
46080,note_on,2,0,1,,,,,,,,,11,,,82,127
46080,note_on,2,0,4,,,,,,,,,4,,,65,92
46080,note_on,2,0,6,,,,,,,,,8,,,41,75
46080,note_on,2,0,5,,,,,,,,,6,,,53,75
46080,note_on,2,0,2,,,,,,,,,0,,,82,127
46174,note_on,94,0,5,,,,,,,,,6,,,53,0
46174,note_on,94,0,6,,,,,,,,,8,,,41,0
46176,note_on,2,0,6,,,,,,,,,8,,,39,75
46176,note_on,2,0,5,,,,,,,,,6,,,51,75
46240,note_on,160,0,1,,,,,,,,,11,,,82,0
46240,note_on,160,0,2,,,,,,,,,0,,,82,0
46240,note_on,160,0,3,,,,,,,,,2,,,86,0
46270,note_on,94,0,6,,,,,,,,,8,,,39,0
46270,note_on,94,0,5,,,,,,,,,6,,,51,0
46272,note_on,32,0,3,,,,,,,,,2,,,84,127
46272,note_on,2,0,6,,,,,,,,,8,,,41,75
46272,note_on,32,0,2,,,,,,,,,0,,,81,127
46272,note_on,2,0,5,,,,,,,,,6,,,53,75
46272,note_on,32,0,1,,,,,,,,,11,,,81,127
46336,note_on,256,0,4,,,,,,,,,4,,,65,0
46366,note_on,94,0,1,,,,,,,,,11,,,81,0
46366,note_on,94,0,5,,,,,,,,,6,,,53,0
46366,note_on,94,0,6,,,,,,,,,8,,,41,0
46366,note_on,94,0,3,,,,,,,,,2,,,84,0
46366,note_on,94,0,2,,,,,,,,,0,,,81,0
46368,note_on,32,0,4,,,,,,,,,4,,,65,92
46368,note_on,2,0,5,,,,,,,,,6,,,46,75
46368,note_on,2,0,3,,,,,,,,,2,,,82,127
46368,note_on,2,0,1,,,,,,,,,11,,,82,127
46368,note_on,2,0,6,,,,,,,,,8,,,34,75
46368,note_on,2,0,2,,,,,,,,,0,,,82,127
46462,note_on,94,0,6,,,,,,,,,8,,,34,0
46462,note_on,94,0,1,,,,,,,,,11,,,82,0
46462,note_on,94,0,2,,,,,,,,,0,,,82,0
46462,note_on,94,0,3,,,,,,,,,2,,,82,0
46462,note_on,94,0,4,,,,,,,,,4,,,65,0
46462,note_on,94,0,5,,,,,,,,,6,,,46,0
46464,note_on,2,0,3,,,,,,,,,2,,,84,127
46464,note_on,2,0,4,,,,,,,,,4,,,65,92
46464,note_on,2,0,1,,,,,,,,,11,,,84,127
46464,note_on,2,0,5,,,,,,,,,6,,,53,75
46464,note_on,2,0,6,,,,,,,,,8,,,41,75
46464,note_on,2,0,2,,,,,,,,,0,,,84,127
46510,note_on,46,0,3,,,,,,,,,2,,,84,0
46510,note_on,46,0,1,,,,,,,,,11,,,84,0
46510,note_on,46,0,2,,,,,,,,,0,,,84,0
46512,note_on,2,0,2,,,,,,,,,0,,,82,127
46512,note_on,2,0,3,,,,,,,,,2,,,82,127
46512,note_on,2,0,1,,,,,,,,,11,,,82,127
46558,note_on,46,0,2,,,,,,,,,0,,,82,0
46558,note_on,46,0,3,,,,,,,,,2,,,82,0
46558,note_on,46,0,1,,,,,,,,,11,,,82,0
46560,note_on,2,0,1,,,,,,,,,11,,,81,127
46560,note_on,2,0,3,,,,,,,,,2,,,81,127
46560,note_on,2,0,2,,,,,,,,,0,,,81,127
46606,note_on,46,0,3,,,,,,,,,2,,,81,0
46606,note_on,46,0,2,,,,,,,,,0,,,81,0
46606,note_on,46,0,1,,,,,,,,,11,,,81,0
46608,note_on,2,0,3,,,,,,,,,2,,,79,127
46608,note_on,2,0,2,,,,,,,,,0,,,79,127
46608,note_on,2,0,1,,,,,,,,,11,,,79,127
46624,note_on,160,0,4,,,,,,,,,4,,,65,0
46624,note_on,160,0,5,,,,,,,,,6,,,53,0
46624,note_on,160,0,6,,,,,,,,,8,,,41,0
46654,note_on,46,0,2,,,,,,,,,0,,,79,0
46654,note_on,46,0,3,,,,,,,,,2,,,79,0
46654,note_on,46,0,1,,,,,,,,,11,,,79,0
46656,note_on,2,0,1,,,,,,,,,11,,,77,127
46656,note_on,2,0,2,,,,,,,,,0,,,77,127
46656,note_on,2,0,3,,,,,,,,,2,,,77,127
46656,note_on,32,0,6,,,,,,,,,8,,,29,75
46656,note_on,32,0,5,,,,,,,,,6,,,41,75
46656,note_on,32,0,4,,,,,,,,,4,,,65,92
46702,note_on,46,0,3,,,,,,,,,2,,,77,0
46702,note_on,46,0,1,,,,,,,,,11,,,77,0
46702,note_on,46,0,2,,,,,,,,,0,,,77,0
46704,note_on,2,0,2,,,,,,,,,0,,,75,127
46704,note_on,2,0,3,,,,,,,,,2,,,75,127
46704,note_on,2,0,1,,,,,,,,,11,,,75,127
46750,note_on,46,0,1,,,,,,,,,11,,,75,0
46750,note_on,46,0,3,,,,,,,,,2,,,75,0
46750,note_on,46,0,2,,,,,,,,,0,,,75,0
46752,note_on,2,0,3,,,,,,,,,2,,,74,127
46752,note_on,2,0,1,,,,,,,,,11,,,74,127
46752,note_on,2,0,2,,,,,,,,,0,,,74,127
46798,note_on,46,0,2,,,,,,,,,0,,,74,0
46798,note_on,46,0,1,,,,,,,,,11,,,74,0
46798,note_on,46,0,3,,,,,,,,,2,,,74,0
46800,note_on,2,0,3,,,,,,,,,2,,,72,127
46800,note_on,2,0,1,,,,,,,,,11,,,72,127
46800,note_on,2,0,2,,,,,,,,,0,,,72,127
46816,note_on,160,0,4,,,,,,,,,4,,,65,0
46816,note_on,160,0,6,,,,,,,,,8,,,29,0
46816,note_on,160,0,5,,,,,,,,,6,,,41,0
46846,note_on,46,0,3,,,,,,,,,2,,,72,0
46846,note_on,46,0,2,,,,,,,,,0,,,72,0
46846,note_on,46,0,1,,,,,,,,,11,,,72,0
46848,note_on,2,0,1,,,,,,,,,11,,,74,127
46848,note_on,2,0,2,,,,,,,,,0,,,74,127
46848,note_on,32,0,6,,,,,,,,,8,,,34,75
46848,note_on,32,0,4,,,,,,,,,4,,,65,92
46848,note_on,32,0,5,,,,,,,,,6,,,46,75
46848,note_on,2,0,3,,,,,,,,,2,,,74,127
46942,note_on,94,0,1,,,,,,,,,11,,,74,0
46942,note_on,94,0,5,,,,,,,,,6,,,46,0
46942,note_on,94,0,2,,,,,,,,,0,,,74,0
46942,note_on,94,0,6,,,,,,,,,8,,,34,0
46942,note_on,94,0,3,,,,,,,,,2,,,74,0
46944,note_on,2,0,5,,,,,,,,,6,,,58,75
46944,note_on,2,0,2,,,,,,,,,0,,,70,127
46944,note_on,2,0,1,,,,,,,,,11,,,70,127
46944,note_on,2,0,6,,,,,,,,,8,,,46,75
46944,note_on,2,0,3,,,,,,,,,2,,,70,127
47008,note_on,160,0,4,,,,,,,,,4,,,65,0
47038,note_on,94,0,6,,,,,,,,,8,,,46,0
47038,note_on,94,0,5,,,,,,,,,6,,,58,0
47040,note_on,2,0,6,,,,,,,,,8,,,45,75
47040,note_on,2,0,5,,,,,,,,,6,,,57,75
47134,note_on,190,0,2,,,,,,,,,0,,,70,0
47134,note_on,190,0,1,,,,,,,,,11,,,70,0
47134,note_on,190,0,3,,,,,,,,,2,,,70,0
47134,note_on,94,0,6,,,,,,,,,8,,,45,0
47134,note_on,94,0,5,,,,,,,,,6,,,57,0
47136,note_on,2,0,5,,,,,,,,,6,,,54,75
47136,note_on,2,0,1,,,,,,,,,11,,,75,127
47136,note_on,2,0,3,,,,,,,,,2,,,72,127
47136,note_on,2,0,6,,,,,,,,,8,,,42,75
47136,note_on,2,0,2,,,,,,,,,0,,,75,127
47230,note_on,94,0,2,,,,,,,,,0,,,75,0
47230,note_on,94,0,3,,,,,,,,,2,,,72,0
47230,note_on,94,0,1,,,,,,,,,11,,,75,0
47230,note_on,94,0,5,,,,,,,,,6,,,54,0
47230,note_on,94,0,6,,,,,,,,,8,,,42,0
47232,note_on,2,0,2,,,,,,,,,0,,,75,127
47232,note_on,224,0,4,,,,,,,,,4,,,67,92
47232,note_on,2,0,3,,,,,,,,,2,,,72,127
47232,note_on,2,0,1,,,,,,,,,11,,,75,127
47232,note_on,2,0,5,,,,,,,,,6,,,55,75
47232,note_on,2,0,6,,,,,,,,,8,,,43,75
47326,note_on,94,0,5,,,,,,,,,6,,,55,0
47326,note_on,94,0,4,,,,,,,,,4,,,67,0
47326,note_on,94,0,6,,,,,,,,,8,,,43,0
47328,note_on,2,0,4,,,,,,,,,4,,,69,92
47328,note_on,2,0,5,,,,,,,,,6,,,54,75
47328,note_on,2,0,6,,,,,,,,,8,,,42,75
47392,note_on,160,0,1,,,,,,,,,11,,,75,0
47392,note_on,160,0,2,,,,,,,,,0,,,75,0
47392,note_on,160,0,3,,,,,,,,,2,,,72,0
47422,note_on,94,0,6,,,,,,,,,8,,,42,0
47422,note_on,94,0,4,,,,,,,,,4,,,69,0
47422,note_on,94,0,5,,,,,,,,,6,,,54,0
47424,note_on,32,0,3,,,,,,,,,2,,,70,127
47424,note_on,32,0,1,,,,,,,,,11,,,74,127
47424,note_on,2,0,5,,,,,,,,,6,,,55,75
47424,note_on,32,0,2,,,,,,,,,0,,,74,127
47424,note_on,2,0,4,,,,,,,,,4,,,70,92
47424,note_on,2,0,6,,,,,,,,,8,,,43,75
47518,note_on,94,0,1,,,,,,,,,11,,,74,0
47518,note_on,94,0,3,,,,,,,,,2,,,70,0
47518,note_on,94,0,5,,,,,,,,,6,,,55,0
47518,note_on,94,0,4,,,,,,,,,4,,,70,0
47518,note_on,94,0,2,,,,,,,,,0,,,74,0
47518,note_on,94,0,6,,,,,,,,,8,,,43,0
47520,note_on,2,0,5,,,,,,,,,6,,,43,75
47520,note_on,2,0,6,,,,,,,,,8,,,31,75
47520,note_on,2,0,2,,,,,,,,,0,,,79,127
47520,note_on,2,0,1,,,,,,,,,11,,,79,127
47520,note_on,2,0,4,,,,,,,,,4,,,62,92
47520,note_on,2,0,3,,,,,,,,,2,,,82,127
47614,note_on,94,0,2,,,,,,,,,0,,,79,0
47614,note_on,94,0,3,,,,,,,,,2,,,82,0
47614,note_on,94,0,1,,,,,,,,,11,,,79,0
47614,note_on,94,0,6,,,,,,,,,8,,,31,0
47614,note_on,94,0,4,,,,,,,,,4,,,62,0
47614,note_on,94,0,5,,,,,,,,,6,,,43,0
47616,note_on,2,0,4,,,,,,,,,4,,,62,92
47616,note_on,2,0,2,,,,,,,,,0,,,79,127
47616,note_on,2,0,3,,,,,,,,,2,,,82,127
47616,note_on,2,0,1,,,,,,,,,11,,,79,127
47616,note_on,2,0,5,,,,,,,,,6,,,62,75
47616,note_on,2,0,6,,,,,,,,,8,,,50,75
47710,note_on,94,0,5,,,,,,,,,6,,,62,0
47710,note_on,94,0,6,,,,,,,,,8,,,50,0
47710,note_on,94,0,4,,,,,,,,,4,,,62,0
47712,note_on,2,0,5,,,,,,,,,6,,,60,75
47712,note_on,2,0,4,,,,,,,,,4,,,64,92
47712,note_on,2,0,6,,,,,,,,,8,,,48,75
47776,note_on,160,0,1,,,,,,,,,11,,,79,0
47776,note_on,160,0,3,,,,,,,,,2,,,82,0
47776,note_on,160,0,2,,,,,,,,,0,,,79,0
47806,note_on,94,0,5,,,,,,,,,6,,,60,0
47806,note_on,94,0,4,,,,,,,,,4,,,64,0
47806,note_on,94,0,6,,,,,,,,,8,,,48,0
47808,note_on,32,0,2,,,,,,,,,0,,,78,127
47808,note_on,2,0,4,,,,,,,,,4,,,66,92
47808,note_on,2,0,6,,,,,,,,,8,,,50,75
47808,note_on,32,0,1,,,,,,,,,11,,,78,127
47808,note_on,2,0,5,,,,,,,,,6,,,62,75
47808,note_on,32,0,3,,,,,,,,,2,,,81,127
47902,note_on,94,0,4,,,,,,,,,4,,,66,0
47902,note_on,94,0,5,,,,,,,,,6,,,62,0
47902,note_on,94,0,3,,,,,,,,,2,,,81,0
47902,note_on,94,0,1,,,,,,,,,11,,,78,0
47902,note_on,94,0,6,,,,,,,,,8,,,50,0
47902,note_on,94,0,2,,,,,,,,,0,,,78,0
47904,note_on,2,0,3,,,,,,,,,2,,,74,127
47904,note_on,2,0,1,,,,,,,,,11,,,79,127
47904,note_on,2,0,5,,,,,,,,,6,,,55,75
47904,note_on,2,0,6,,,,,,,,,8,,,43,75
47904,note_on,2,0,2,,,,,,,,,0,,,79,127
47904,note_on,2,0,4,,,,,,,,,4,,,62,92
47998,note_on,94,0,2,,,,,,,,,0,,,79,0
47998,note_on,94,0,5,,,,,,,,,6,,,55,0
47998,note_on,94,0,6,,,,,,,,,8,,,43,0
47998,note_on,94,0,1,,,,,,,,,11,,,79,0
47998,note_on,94,0,4,,,,,,,,,4,,,62,0
47998,note_on,94,0,3,,,,,,,,,2,,,74,0
48000,note_on,2,0,4,,,,,,,,,4,,,67,92
48000,note_on,2,0,2,,,,,,,,,0,,,75,127
48000,note_on,2,0,5,,,,,,,,,6,,,55,75
48000,note_on,2,0,1,,,,,,,,,11,,,75,127
48000,note_on,2,0,3,,,,,,,,,2,,,72,127
48000,note_on,2,0,6,,,,,,,,,8,,,43,75
48094,note_on,94,0,4,,,,,,,,,4,,,67,0
48094,note_on,94,0,5,,,,,,,,,6,,,55,0
48094,note_on,94,0,6,,,,,,,,,8,,,43,0
48096,note_on,2,0,5,,,,,,,,,6,,,54,75
48096,note_on,2,0,4,,,,,,,,,4,,,69,92
48096,note_on,2,0,6,,,,,,,,,8,,,42,75
48160,note_on,160,0,2,,,,,,,,,0,,,75,0
48160,note_on,160,0,1,,,,,,,,,11,,,75,0
48160,note_on,160,0,3,,,,,,,,,2,,,72,0
48190,note_on,94,0,6,,,,,,,,,8,,,42,0
48190,note_on,94,0,5,,,,,,,,,6,,,54,0
48190,note_on,94,0,4,,,,,,,,,4,,,69,0
48192,note_on,2,0,6,,,,,,,,,8,,,43,75
48192,note_on,32,0,2,,,,,,,,,0,,,74,127
48192,note_on,32,0,1,,,,,,,,,11,,,74,127
48192,note_on,2,0,4,,,,,,,,,4,,,70,92
48192,note_on,32,0,3,,,,,,,,,2,,,70,127
48192,note_on,2,0,5,,,,,,,,,6,,,55,75
48286,note_on,94,0,1,,,,,,,,,11,,,74,0
48286,note_on,94,0,6,,,,,,,,,8,,,43,0
48286,note_on,94,0,5,,,,,,,,,6,,,55,0
48286,note_on,94,0,2,,,,,,,,,0,,,74,0
48286,note_on,94,0,3,,,,,,,,,2,,,70,0
48288,note_on,2,0,5,,,,,,,,,6,,,43,75
48288,note_on,2,0,1,,,,,,,,,11,,,79,127
48288,note_on,2,0,3,,,,,,,,,2,,,82,127
48288,note_on,2,0,6,,,,,,,,,8,,,31,75
48288,note_on,2,0,2,,,,,,,,,0,,,79,127
48352,note_on,160,0,4,,,,,,,,,4,,,70,0
48382,note_on,94,0,6,,,,,,,,,8,,,31,0
48382,note_on,94,0,3,,,,,,,,,2,,,82,0
48382,note_on,94,0,5,,,,,,,,,6,,,43,0
48382,note_on,94,0,1,,,,,,,,,11,,,79,0
48382,note_on,94,0,2,,,,,,,,,0,,,79,0
48384,note_on,32,0,4,,,,,,,,,4,,,62,92
48384,note_on,2,0,6,,,,,,,,,8,,,50,75
48384,note_on,2,0,3,,,,,,,,,2,,,82,127
48384,note_on,2,0,1,,,,,,,,,11,,,79,127
48384,note_on,2,0,2,,,,,,,,,0,,,79,127
48384,note_on,2,0,5,,,,,,,,,6,,,62,75
48478,note_on,94,0,6,,,,,,,,,8,,,50,0
48478,note_on,94,0,4,,,,,,,,,4,,,62,0
48478,note_on,94,0,5,,,,,,,,,6,,,62,0
48480,note_on,2,0,5,,,,,,,,,6,,,60,75
48480,note_on,2,0,6,,,,,,,,,8,,,48,75
48480,note_on,2,0,4,,,,,,,,,4,,,64,92
48544,note_on,160,0,3,,,,,,,,,2,,,82,0
48544,note_on,160,0,1,,,,,,,,,11,,,79,0
48544,note_on,160,0,2,,,,,,,,,0,,,79,0
48574,note_on,94,0,4,,,,,,,,,4,,,64,0
48574,note_on,94,0,5,,,,,,,,,6,,,60,0
48574,note_on,94,0,6,,,,,,,,,8,,,48,0
48576,note_on,32,0,2,,,,,,,,,0,,,78,127
48576,note_on,2,0,4,,,,,,,,,4,,,66,92
48576,note_on,32,0,3,,,,,,,,,2,,,81,127
48576,note_on,2,0,6,,,,,,,,,8,,,50,75
48576,note_on,2,0,5,,,,,,,,,6,,,62,75
48576,note_on,32,0,1,,,,,,,,,11,,,78,127
48670,note_on,94,0,4,,,,,,,,,4,,,66,0
48670,note_on,94,0,5,,,,,,,,,6,,,62,0
48670,note_on,94,0,3,,,,,,,,,2,,,81,0
48670,note_on,94,0,6,,,,,,,,,8,,,50,0
48670,note_on,94,0,2,,,,,,,,,0,,,78,0
48670,note_on,94,0,1,,,,,,,,,11,,,78,0
48672,note_on,2,0,1,,,,,,,,,11,,,79,127
48672,note_on,2,0,2,,,,,,,,,0,,,79,127
48672,note_on,2,0,6,,,,,,,,,8,,,43,75
48672,note_on,2,0,4,,,,,,,,,4,,,62,92
48672,note_on,2,0,3,,,,,,,,,2,,,79,127
48672,note_on,2,0,5,,,,,,,,,6,,,55,75
48766,note_on,94,0,6,,,,,,,,,8,,,43,0
48766,note_on,94,0,5,,,,,,,,,6,,,55,0
48766,note_on,94,0,4,,,,,,,,,4,,,62,0
48766,note_on,94,0,3,,,,,,,,,2,,,79,0
48766,note_on,94,0,2,,,,,,,,,0,,,79,0
48766,note_on,94,0,1,,,,,,,,,11,,,79,0
48768,note_on,2,0,4,,,,,,,,,4,,,62,92
48768,note_on,2,0,3,,,,,,,,,2,,,78,127
48768,note_on,2,0,5,,,,,,,,,6,,,62,75
48768,note_on,2,0,1,,,,,,,,,11,,,81,127
48768,note_on,2,0,2,,,,,,,,,0,,,81,127
48768,note_on,2,0,6,,,,,,,,,8,,,50,75
48814,note_on,46,0,2,,,,,,,,,0,,,81,0
48814,note_on,46,0,3,,,,,,,,,2,,,78,0
48814,note_on,46,0,1,,,,,,,,,11,,,81,0
48816,note_on,2,0,3,,,,,,,,,2,,,76,127
48816,note_on,2,0,2,,,,,,,,,0,,,79,127
48816,note_on,2,0,1,,,,,,,,,11,,,79,127
48862,note_on,46,0,2,,,,,,,,,0,,,79,0
48862,note_on,46,0,3,,,,,,,,,2,,,76,0
48862,note_on,46,0,1,,,,,,,,,11,,,79,0
48864,note_on,2,0,1,,,,,,,,,11,,,78,127
48864,note_on,2,0,3,,,,,,,,,2,,,74,127
48864,note_on,2,0,2,,,,,,,,,0,,,78,127
48910,note_on,46,0,1,,,,,,,,,11,,,78,0
48910,note_on,46,0,2,,,,,,,,,0,,,78,0
48910,note_on,46,0,3,,,,,,,,,2,,,74,0
48912,note_on,2,0,3,,,,,,,,,2,,,72,127
48912,note_on,2,0,2,,,,,,,,,0,,,76,127
48912,note_on,2,0,1,,,,,,,,,11,,,76,127
48928,note_on,160,0,4,,,,,,,,,4,,,62,0
48928,note_on,160,0,6,,,,,,,,,8,,,50,0
48928,note_on,160,0,5,,,,,,,,,6,,,62,0
48958,note_on,46,0,1,,,,,,,,,11,,,76,0
48958,note_on,46,0,2,,,,,,,,,0,,,76,0
48958,note_on,46,0,3,,,,,,,,,2,,,72,0
48960,note_on,2,0,3,,,,,,,,,2,,,70,127
48960,note_on,2,0,1,,,,,,,,,11,,,74,127
48960,note_on,32,0,6,,,,,,,,,8,,,38,75
48960,note_on,32,0,5,,,,,,,,,6,,,50,75
48960,note_on,32,0,4,,,,,,,,,4,,,62,92
48960,note_on,2,0,2,,,,,,,,,0,,,74,127
49006,note_on,46,0,3,,,,,,,,,2,,,70,0
49006,note_on,46,0,2,,,,,,,,,0,,,74,0
49006,note_on,46,0,1,,,,,,,,,11,,,74,0
49008,note_on,2,0,1,,,,,,,,,11,,,72,127
49008,note_on,2,0,3,,,,,,,,,2,,,69,127
49008,note_on,2,0,2,,,,,,,,,0,,,72,127
49054,note_on,46,0,1,,,,,,,,,11,,,72,0
49054,note_on,46,0,3,,,,,,,,,2,,,69,0
49054,note_on,46,0,2,,,,,,,,,0,,,72,0
49056,note_on,2,0,1,,,,,,,,,11,,,70,127
49056,note_on,2,0,3,,,,,,,,,2,,,67,127
49056,note_on,2,0,2,,,,,,,,,0,,,70,127
49102,note_on,46,0,2,,,,,,,,,0,,,70,0
49102,note_on,46,0,1,,,,,,,,,11,,,70,0
49102,note_on,46,0,3,,,,,,,,,2,,,67,0
49104,note_on,2,0,2,,,,,,,,,0,,,69,127
49104,note_on,2,0,3,,,,,,,,,2,,,66,127
49104,note_on,2,0,1,,,,,,,,,11,,,69,127
49120,note_on,160,0,4,,,,,,,,,4,,,62,0
49120,note_on,160,0,5,,,,,,,,,6,,,50,0
49120,note_on,160,0,6,,,,,,,,,8,,,38,0
49150,note_on,46,0,2,,,,,,,,,0,,,69,0
49150,note_on,46,0,1,,,,,,,,,11,,,69,0
49150,note_on,46,0,3,,,,,,,,,2,,,66,0
49152,note_on,2,0,3,,,,,,,,,2,,,67,127
49152,note_on,2,0,1,,,,,,,,,11,,,70,127
49152,note_on,32,0,5,,,,,,,,,6,,,55,75
49152,note_on,2,0,2,,,,,,,,,0,,,70,127
49152,note_on,32,0,6,,,,,,,,,8,,,43,75
49152,note_on,32,0,4,,,,,,,,,4,,,62,92
49246,note_on,94,0,1,,,,,,,,,11,,,70,0
49246,note_on,94,0,3,,,,,,,,,2,,,67,0
49246,note_on,94,0,5,,,,,,,,,6,,,55,0
49246,note_on,94,0,2,,,,,,,,,0,,,70,0
49248,note_on,2,0,1,,,,,,,,,11,,,67,127
49248,note_on,2,0,5,,,,,,,,,6,,,57,75
49248,note_on,2,0,2,,,,,,,,,0,,,67,127
49248,note_on,2,0,3,,,,,,,,,2,,,62,127
49312,note_on,160,0,4,,,,,,,,,4,,,62,0
49312,note_on,160,0,6,,,,,,,,,8,,,43,0
49342,note_on,94,0,5,,,,,,,,,6,,,57,0
49344,note_on,2,0,5,,,,,,,,,6,,,58,75
49438,note_on,94,0,5,,,,,,,,,6,,,58,0
49438,note_on,190,0,1,,,,,,,,,11,,,67,0
49440,note_on,2,0,5,,,,,,,,,6,,,57,75
49440,note_on,2,0,1,,,,,,,,,11,,,67,127
49504,note_on,256,0,2,,,,,,,,,0,,,67,0
49504,note_on,256,0,3,,,,,,,,,2,,,62,0
49534,note_on,94,0,5,,,,,,,,,6,,,57,0
49534,note_on,94,0,1,,,,,,,,,11,,,67,0
49536,note_on,2,0,1,,,,,,,,,11,,,70,127
49536,note_on,2,0,5,,,,,,,,,6,,,55,75
49582,note_on,46,0,1,,,,,,,,,11,,,70,0
49584,note_on,2,0,1,,,,,,,,,11,,,69,127
49606,note_on,22,0,1,,,,,,,,,11,,,69,0
49608,note_on,2,0,1,,,,,,,,,11,,,67,127
49630,note_on,22,0,1,,,,,,,,,11,,,67,0
49630,note_on,94,0,5,,,,,,,,,6,,,55,0
49632,note_on,2,0,1,,,,,,,,,11,,,74,127
49632,note_on,2,0,5,,,,,,,,,6,,,55,75
49678,note_on,46,0,1,,,,,,,,,11,,,74,0
49680,note_on,2,0,1,,,,,,,,,11,,,72,127
49702,note_on,22,0,1,,,,,,,,,11,,,72,0
49704,note_on,2,0,1,,,,,,,,,11,,,70,127
49726,note_on,94,0,5,,,,,,,,,6,,,55,0
49726,note_on,22,0,1,,,,,,,,,11,,,70,0
49728,note_on,2,0,1,,,,,,,,,11,,,79,127
49728,note_on,2,0,5,,,,,,,,,6,,,55,75
49822,note_on,94,0,5,,,,,,,,,6,,,55,0
49822,note_on,94,0,1,,,,,,,,,11,,,79,0
49824,note_on,2,0,1,,,,,,,,,11,,,74,127
49824,note_on,2,0,5,,,,,,,,,6,,,55,75
49918,note_on,94,0,1,,,,,,,,,11,,,74,0
49918,note_on,94,0,5,,,,,,,,,6,,,55,0
49920,note_on,2,0,5,,,,,,,,,6,,,55,75
49920,note_on,2,0,1,,,,,,,,,11,,,75,127
50014,note_on,94,0,5,,,,,,,,,6,,,55,0
50014,note_on,94,0,1,,,,,,,,,11,,,75,0
50016,note_on,2,0,5,,,,,,,,,6,,,55,75
50016,note_on,2,0,1,,,,,,,,,11,,,73,127
50110,note_on,94,0,5,,,,,,,,,6,,,55,0
50110,note_on,94,0,1,,,,,,,,,11,,,73,0
50112,note_on,2,0,5,,,,,,,,,6,,,54,75
50112,note_on,2,0,1,,,,,,,,,11,,,74,127
50206,note_on,94,0,5,,,,,,,,,6,,,54,0
50206,note_on,94,0,1,,,,,,,,,11,,,74,0
50208,note_on,2,0,5,,,,,,,,,6,,,55,75
50208,note_on,2,0,1,,,,,,,,,11,,,75,127
50302,note_on,94,0,5,,,,,,,,,6,,,55,0
50302,note_on,94,0,1,,,,,,,,,11,,,75,0
50304,note_on,2,0,1,,,,,,,,,11,,,66,127
50304,note_on,2,0,5,,,,,,,,,6,,,50,75
50350,note_on,46,0,1,,,,,,,,,11,,,66,0
50352,note_on,2,0,1,,,,,,,,,11,,,64,127
50374,note_on,22,0,1,,,,,,,,,11,,,64,0
50376,note_on,2,0,1,,,,,,,,,11,,,62,127
50398,note_on,22,0,1,,,,,,,,,11,,,62,0
50398,note_on,94,0,5,,,,,,,,,6,,,50,0
50400,note_on,2,0,5,,,,,,,,,6,,,54,75
50400,note_on,2,0,1,,,,,,,,,11,,,72,127
50446,note_on,46,0,1,,,,,,,,,11,,,72,0
50448,note_on,2,0,1,,,,,,,,,11,,,70,127
50470,note_on,22,0,1,,,,,,,,,11,,,70,0
50472,note_on,2,0,1,,,,,,,,,11,,,69,127
50494,note_on,22,0,1,,,,,,,,,11,,,69,0
50494,note_on,94,0,5,,,,,,,,,6,,,54,0
50496,note_on,2,0,5,,,,,,,,,6,,,54,75
50496,note_on,2,0,1,,,,,,,,,11,,,81,127
50590,note_on,94,0,5,,,,,,,,,6,,,54,0
50590,note_on,94,0,1,,,,,,,,,11,,,81,0
50592,note_on,2,0,5,,,,,,,,,6,,,54,75
50592,note_on,2,0,1,,,,,,,,,11,,,72,127
50686,note_on,94,0,5,,,,,,,,,6,,,54,0
50686,note_on,94,0,1,,,,,,,,,11,,,72,0
50688,note_on,2,0,5,,,,,,,,,6,,,55,75
50688,note_on,2,0,1,,,,,,,,,11,,,74,127
50710,note_on,22,0,1,,,,,,,,,11,,,74,0
50712,note_on,2,0,1,,,,,,,,,11,,,72,127
50734,note_on,22,0,1,,,,,,,,,11,,,72,0
50736,note_on,2,0,1,,,,,,,,,11,,,74,127
50758,note_on,22,0,1,,,,,,,,,11,,,74,0
50760,note_on,2,0,1,,,,,,,,,11,,,72,127
50782,note_on,94,0,5,,,,,,,,,6,,,55,0
50784,note_on,2,0,5,,,,,,,,,6,,,55,75
50878,note_on,94,0,5,,,,,,,,,6,,,55,0
50878,note_on,118,0,1,,,,,,,,,11,,,72,0
50880,note_on,2,0,1,,,,,,,,,11,,,70,127
50880,note_on,2,0,5,,,,,,,,,6,,,55,75
50974,note_on,94,0,1,,,,,,,,,11,,,70,0
50974,note_on,94,0,5,,,,,,,,,6,,,55,0
50976,note_on,2,0,1,,,,,,,,,11,,,67,127
50976,note_on,2,0,5,,,,,,,,,6,,,55,75
51070,note_on,94,0,1,,,,,,,,,11,,,67,0
51070,note_on,94,0,5,,,,,,,,,6,,,55,0
51072,note_on,2,0,1,,,,,,,,,11,,,70,127
51072,note_on,2,0,5,,,,,,,,,6,,,55,75
51118,note_on,46,0,1,,,,,,,,,11,,,70,0
51120,note_on,2,0,1,,,,,,,,,11,,,69,127
51142,note_on,22,0,1,,,,,,,,,11,,,69,0
51144,note_on,2,0,1,,,,,,,,,11,,,67,127
51166,note_on,94,0,5,,,,,,,,,6,,,55,0
51166,note_on,22,0,1,,,,,,,,,11,,,67,0
51168,note_on,2,0,5,,,,,,,,,6,,,55,75
51168,note_on,2,0,1,,,,,,,,,11,,,74,127
51214,note_on,46,0,1,,,,,,,,,11,,,74,0
51216,note_on,2,0,1,,,,,,,,,11,,,72,127
51238,note_on,22,0,1,,,,,,,,,11,,,72,0
51240,note_on,2,0,1,,,,,,,,,11,,,70,127
51262,note_on,22,0,1,,,,,,,,,11,,,70,0
51262,note_on,94,0,5,,,,,,,,,6,,,55,0
51264,note_on,2,0,1,,,,,,,,,11,,,79,127
51264,note_on,2,0,5,,,,,,,,,6,,,55,75
51358,note_on,94,0,1,,,,,,,,,11,,,79,0
51358,note_on,94,0,5,,,,,,,,,6,,,55,0
51360,note_on,2,0,5,,,,,,,,,6,,,55,75
51360,note_on,2,0,1,,,,,,,,,11,,,74,127
51454,note_on,94,0,5,,,,,,,,,6,,,55,0
51454,note_on,94,0,1,,,,,,,,,11,,,74,0
51456,note_on,2,0,5,,,,,,,,,6,,,55,75
51456,note_on,2,0,1,,,,,,,,,11,,,75,127
51550,note_on,94,0,5,,,,,,,,,6,,,55,0
51550,note_on,94,0,1,,,,,,,,,11,,,75,0
51552,note_on,2,0,1,,,,,,,,,11,,,73,127
51552,note_on,2,0,5,,,,,,,,,6,,,55,75
51646,note_on,94,0,1,,,,,,,,,11,,,73,0
51646,note_on,94,0,5,,,,,,,,,6,,,55,0
51648,note_on,2,0,1,,,,,,,,,11,,,74,127
51648,note_on,2,0,5,,,,,,,,,6,,,54,75
51742,note_on,94,0,1,,,,,,,,,11,,,74,0
51742,note_on,94,0,5,,,,,,,,,6,,,54,0
51744,note_on,2,0,5,,,,,,,,,6,,,54,75
51744,note_on,2,0,1,,,,,,,,,11,,,74,127
51838,note_on,94,0,5,,,,,,,,,6,,,54,0
51838,note_on,94,0,1,,,,,,,,,11,,,74,0
51840,note_on,2,0,5,,,,,,,,,6,,,55,75
51840,note_on,2,0,1,,,,,,,,,11,,,82,127
51886,note_on,46,0,1,,,,,,,,,11,,,82,0
51888,note_on,2,0,1,,,,,,,,,11,,,81,127
51910,note_on,22,0,1,,,,,,,,,11,,,81,0
51912,note_on,2,0,1,,,,,,,,,11,,,79,127
51934,note_on,22,0,1,,,,,,,,,11,,,79,0
51934,note_on,94,0,5,,,,,,,,,6,,,55,0
51936,note_on,2,0,1,,,,,,,,,11,,,82,127
51936,note_on,2,0,5,,,,,,,,,6,,,55,75
51982,note_on,46,0,1,,,,,,,,,11,,,82,0
51984,note_on,2,0,1,,,,,,,,,11,,,81,127
52006,note_on,22,0,1,,,,,,,,,11,,,81,0
52008,note_on,2,0,1,,,,,,,,,11,,,79,127
52030,note_on,94,0,5,,,,,,,,,6,,,55,0
52030,note_on,22,0,1,,,,,,,,,11,,,79,0
52032,note_on,2,0,5,,,,,,,,,6,,,55,75
52032,note_on,2,0,1,,,,,,,,,11,,,82,127
52078,note_on,46,0,1,,,,,,,,,11,,,82,0
52080,note_on,2,0,1,,,,,,,,,11,,,81,127
52102,note_on,22,0,1,,,,,,,,,11,,,81,0
52104,note_on,2,0,1,,,,,,,,,11,,,79,127
52126,note_on,22,0,1,,,,,,,,,11,,,79,0
52126,note_on,94,0,5,,,,,,,,,6,,,55,0
52128,note_on,2,0,5,,,,,,,,,6,,,55,75
52128,note_on,2,0,1,,,,,,,,,11,,,82,127
52174,note_on,46,0,1,,,,,,,,,11,,,82,0
52176,note_on,2,0,1,,,,,,,,,11,,,81,127
52198,note_on,22,0,1,,,,,,,,,11,,,81,0
52200,note_on,2,0,1,,,,,,,,,11,,,79,127
52222,note_on,94,0,5,,,,,,,,,6,,,55,0
52222,note_on,22,0,1,,,,,,,,,11,,,79,0
52224,note_on,2,0,5,,,,,,,,,6,,,62,75
52224,note_on,2,0,1,,,,,,,,,11,,,79,127
52318,note_on,94,0,1,,,,,,,,,11,,,79,0
52318,note_on,94,0,5,,,,,,,,,6,,,62,0
52320,note_on,2,0,1,,,,,,,,,11,,,78,127
52320,note_on,2,0,5,,,,,,,,,6,,,50,75
52510,note_on,190,0,5,,,,,,,,,6,,,50,0
52510,note_on,190,0,1,,,,,,,,,11,,,78,0
52512,note_on,2,0,1,,,,,,,,,11,,,82,127
52512,note_on,2,0,5,,,,,,,,,6,,,55,75
52606,note_on,94,0,1,,,,,,,,,11,,,82,0
52606,note_on,94,0,5,,,,,,,,,6,,,55,0
52608,note_on,2,0,5,,,,,,,,,6,,,55,75
52608,note_on,2,0,1,,,,,,,,,11,,,84,127
52630,note_on,22,0,1,,,,,,,,,11,,,84,0
52632,note_on,2,0,1,,,,,,,,,11,,,82,127
52654,note_on,22,0,1,,,,,,,,,11,,,82,0
52656,note_on,2,0,1,,,,,,,,,11,,,81,127
52702,note_on,46,0,1,,,,,,,,,11,,,81,0
52702,note_on,94,0,5,,,,,,,,,6,,,55,0
52704,note_on,2,0,1,,,,,,,,,11,,,82,127
52704,note_on,2,0,5,,,,,,,,,6,,,55,75
52798,note_on,94,0,5,,,,,,,,,6,,,55,0
52798,note_on,94,0,1,,,,,,,,,11,,,82,0
52800,note_on,2,0,1,,,,,,,,,11,,,84,127
52800,note_on,2,0,5,,,,,,,,,6,,,55,75
52822,note_on,22,0,1,,,,,,,,,11,,,84,0
52824,note_on,2,0,1,,,,,,,,,11,,,82,127
52846,note_on,22,0,1,,,,,,,,,11,,,82,0
52848,note_on,2,0,1,,,,,,,,,11,,,81,127
52894,note_on,94,0,5,,,,,,,,,6,,,55,0
52894,note_on,46,0,1,,,,,,,,,11,,,81,0
52896,note_on,2,0,5,,,,,,,,,6,,,55,75
52896,note_on,2,0,1,,,,,,,,,11,,,82,127
52990,note_on,94,0,1,,,,,,,,,11,,,82,0
52990,note_on,94,0,5,,,,,,,,,6,,,55,0
52992,note_on,2,0,5,,,,,,,,,6,,,49,75
52992,note_on,2,0,1,,,,,,,,,11,,,82,127
53086,note_on,94,0,1,,,,,,,,,11,,,82,0
53088,note_on,2,0,1,,,,,,,,,11,,,81,127
53134,note_on,46,0,1,,,,,,,,,11,,,81,0
53136,note_on,2,0,1,,,,,,,,,11,,,79,127
53182,note_on,46,0,1,,,,,,,,,11,,,79,0
53184,note_on,2,0,1,,,,,,,,,11,,,77,127
53230,note_on,46,0,1,,,,,,,,,11,,,77,0
53232,note_on,2,0,1,,,,,,,,,11,,,76,127
53278,note_on,46,0,1,,,,,,,,,11,,,76,0
53280,note_on,2,0,1,,,,,,,,,11,,,74,127
53326,note_on,46,0,1,,,,,,,,,11,,,74,0
53328,note_on,2,0,1,,,,,,,,,11,,,73,127
53328,note_on,336,0,5,,,,,,,,,6,,,49,0
53374,note_on,46,0,1,,,,,,,,,11,,,73,0
53376,note_on,2,0,1,,,,,,,,,11,,,82,127
53376,note_on,48,0,5,,,,,,,,,6,,,53,75
53398,note_on,22,0,1,,,,,,,,,11,,,82,0
53400,note_on,2,0,1,,,,,,,,,11,,,81,127
53422,note_on,22,0,1,,,,,,,,,11,,,81,0
53424,note_on,2,0,1,,,,,,,,,11,,,79,127
53470,note_on,94,0,5,,,,,,,,,6,,,53,0
53470,note_on,46,0,1,,,,,,,,,11,,,79,0
53472,note_on,2,0,1,,,,,,,,,11,,,81,127
53472,note_on,2,0,5,,,,,,,,,6,,,53,75
53566,note_on,94,0,1,,,,,,,,,11,,,81,0
53566,note_on,94,0,5,,,,,,,,,6,,,53,0
53568,note_on,2,0,1,,,,,,,,,11,,,82,127
53568,note_on,2,0,5,,,,,,,,,6,,,53,75
53590,note_on,22,0,1,,,,,,,,,11,,,82,0
53592,note_on,2,0,1,,,,,,,,,11,,,81,127
53614,note_on,22,0,1,,,,,,,,,11,,,81,0
53616,note_on,2,0,1,,,,,,,,,11,,,79,127
53662,note_on,46,0,1,,,,,,,,,11,,,79,0
53662,note_on,94,0,5,,,,,,,,,6,,,53,0
53664,note_on,2,0,5,,,,,,,,,6,,,53,75
53664,note_on,2,0,1,,,,,,,,,11,,,81,127
53758,note_on,94,0,1,,,,,,,,,11,,,81,0
53758,note_on,94,0,5,,,,,,,,,6,,,53,0
53760,note_on,2,0,5,,,,,,,,,6,,,47,75
53760,note_on,2,0,1,,,,,,,,,11,,,81,127
53854,note_on,94,0,1,,,,,,,,,11,,,81,0
53856,note_on,2,0,1,,,,,,,,,11,,,79,127
53902,note_on,46,0,1,,,,,,,,,11,,,79,0
53904,note_on,2,0,1,,,,,,,,,11,,,77,127
53950,note_on,46,0,1,,,,,,,,,11,,,77,0
53952,note_on,2,0,1,,,,,,,,,11,,,75,127
53998,note_on,46,0,1,,,,,,,,,11,,,75,0
54000,note_on,2,0,1,,,,,,,,,11,,,74,127
54046,note_on,46,0,1,,,,,,,,,11,,,74,0
54048,note_on,2,0,1,,,,,,,,,11,,,72,127
54094,note_on,46,0,1,,,,,,,,,11,,,72,0
54096,note_on,2,0,1,,,,,,,,,11,,,71,127
54096,note_on,336,0,5,,,,,,,,,6,,,47,0
54142,note_on,46,0,1,,,,,,,,,11,,,71,0
54144,note_on,48,0,5,,,,,,,,,6,,,51,75
54144,note_on,2,0,1,,,,,,,,,11,,,81,127
54166,note_on,22,0,1,,,,,,,,,11,,,81,0
54168,note_on,2,0,1,,,,,,,,,11,,,79,127
54190,note_on,22,0,1,,,,,,,,,11,,,79,0
54192,note_on,2,0,1,,,,,,,,,11,,,78,127
54238,note_on,46,0,1,,,,,,,,,11,,,78,0
54238,note_on,94,0,5,,,,,,,,,6,,,51,0
54240,note_on,2,0,5,,,,,,,,,6,,,51,75
54240,note_on,2,0,1,,,,,,,,,11,,,79,127
54334,note_on,94,0,1,,,,,,,,,11,,,79,0
54334,note_on,94,0,5,,,,,,,,,6,,,51,0
54336,note_on,2,0,1,,,,,,,,,11,,,81,127
54336,note_on,2,0,5,,,,,,,,,6,,,51,75
54358,note_on,22,0,1,,,,,,,,,11,,,81,0
54360,note_on,2,0,1,,,,,,,,,11,,,79,127
54382,note_on,22,0,1,,,,,,,,,11,,,79,0
54384,note_on,2,0,1,,,,,,,,,11,,,78,127
54430,note_on,94,0,5,,,,,,,,,6,,,51,0
54430,note_on,46,0,1,,,,,,,,,11,,,78,0
54432,note_on,2,0,5,,,,,,,,,6,,,51,75
54432,note_on,2,0,1,,,,,,,,,11,,,79,127
54526,note_on,94,0,5,,,,,,,,,6,,,51,0
54526,note_on,94,0,1,,,,,,,,,11,,,79,0
54528,note_on,2,0,5,,,,,,,,,6,,,45,75
54528,note_on,2,0,1,,,,,,,,,11,,,79,127
54622,note_on,94,0,1,,,,,,,,,11,,,79,0
54624,note_on,2,0,1,,,,,,,,,11,,,78,127
54670,note_on,46,0,1,,,,,,,,,11,,,78,0
54672,note_on,2,0,1,,,,,,,,,11,,,75,127
54718,note_on,46,0,1,,,,,,,,,11,,,75,0
54720,note_on,2,0,1,,,,,,,,,11,,,74,127
54766,note_on,46,0,1,,,,,,,,,11,,,74,0
54768,note_on,2,0,1,,,,,,,,,11,,,72,127
54814,note_on,46,0,1,,,,,,,,,11,,,72,0
54816,note_on,2,0,1,,,,,,,,,11,,,70,127
54862,note_on,46,0,1,,,,,,,,,11,,,70,0
54864,note_on,2,0,1,,,,,,,,,11,,,69,127
54864,note_on,336,0,5,,,,,,,,,6,,,45,0
54910,note_on,46,0,1,,,,,,,,,11,,,69,0
54912,note_on,2,0,1,,,,,,,,,11,,,79,127
54912,note_on,48,0,5,,,,,,,,,6,,,50,75
54934,note_on,22,0,1,,,,,,,,,11,,,79,0
54936,note_on,2,0,1,,,,,,,,,11,,,78,127
54958,note_on,22,0,1,,,,,,,,,11,,,78,0
54960,note_on,2,0,1,,,,,,,,,11,,,76,127
55006,note_on,94,0,5,,,,,,,,,6,,,50,0
55006,note_on,46,0,1,,,,,,,,,11,,,76,0
55008,note_on,2,0,5,,,,,,,,,6,,,50,75
55008,note_on,2,0,1,,,,,,,,,11,,,78,127
55102,note_on,94,0,5,,,,,,,,,6,,,50,0
55102,note_on,94,0,1,,,,,,,,,11,,,78,0
55104,note_on,2,0,5,,,,,,,,,6,,,50,75
55104,note_on,2,0,1,,,,,,,,,11,,,79,127
55126,note_on,22,0,1,,,,,,,,,11,,,79,0
55128,note_on,2,0,1,,,,,,,,,11,,,78,127
55150,note_on,22,0,1,,,,,,,,,11,,,78,0
55152,note_on,2,0,1,,,,,,,,,11,,,76,127
55198,note_on,46,0,1,,,,,,,,,11,,,76,0
55198,note_on,94,0,5,,,,,,,,,6,,,50,0
55200,note_on,2,0,1,,,,,,,,,11,,,78,127
55200,note_on,2,0,5,,,,,,,,,6,,,50,75
55294,note_on,94,0,1,,,,,,,,,11,,,78,0
55294,note_on,94,0,5,,,,,,,,,6,,,50,0
55296,note_on,2,0,1,,,,,,,,,11,,,78,127
55296,note_on,2,0,5,,,,,,,,,6,,,50,75
55342,note_on,46,0,1,,,,,,,,,11,,,78,0
55344,note_on,2,0,1,,,,,,,,,11,,,72,127
55366,note_on,22,0,1,,,,,,,,,11,,,72,0
55368,note_on,2,0,1,,,,,,,,,11,,,71,127
55390,note_on,22,0,1,,,,,,,,,11,,,71,0
55392,note_on,2,0,1,,,,,,,,,11,,,72,127
55438,note_on,46,0,1,,,,,,,,,11,,,72,0
55440,note_on,2,0,1,,,,,,,,,11,,,71,127
55462,note_on,22,0,1,,,,,,,,,11,,,71,0
55464,note_on,2,0,1,,,,,,,,,11,,,72,127
55486,note_on,22,0,1,,,,,,,,,11,,,72,0
55488,note_on,2,0,1,,,,,,,,,11,,,74,127
55534,note_on,46,0,1,,,,,,,,,11,,,74,0
55536,note_on,2,0,1,,,,,,,,,11,,,72,127
55558,note_on,22,0,1,,,,,,,,,11,,,72,0
55560,note_on,2,0,1,,,,,,,,,11,,,71,127
55582,note_on,22,0,1,,,,,,,,,11,,,71,0
55584,note_on,2,0,1,,,,,,,,,11,,,72,127
55630,note_on,46,0,1,,,,,,,,,11,,,72,0
55632,note_on,2,0,1,,,,,,,,,11,,,71,127
55654,note_on,22,0,1,,,,,,,,,11,,,71,0
55656,note_on,2,0,1,,,,,,,,,11,,,72,127
55678,note_on,22,0,1,,,,,,,,,11,,,72,0
55680,note_on,2,0,1,,,,,,,,,11,,,75,127
55726,note_on,46,0,1,,,,,,,,,11,,,75,0
55728,note_on,2,0,1,,,,,,,,,11,,,72,127
55750,note_on,22,0,1,,,,,,,,,11,,,72,0
55752,note_on,2,0,1,,,,,,,,,11,,,71,127
55774,note_on,22,0,1,,,,,,,,,11,,,71,0
55776,note_on,2,0,1,,,,,,,,,11,,,72,127
55822,note_on,46,0,1,,,,,,,,,11,,,72,0
55824,note_on,2,0,1,,,,,,,,,11,,,71,127
55846,note_on,22,0,1,,,,,,,,,11,,,71,0
55848,note_on,2,0,1,,,,,,,,,11,,,72,127
55870,note_on,22,0,1,,,,,,,,,11,,,72,0
55872,note_on,2,0,1,,,,,,,,,11,,,78,127
55918,note_on,46,0,1,,,,,,,,,11,,,78,0
55920,note_on,2,0,1,,,,,,,,,11,,,72,127
55942,note_on,22,0,1,,,,,,,,,11,,,72,0
55944,note_on,2,0,1,,,,,,,,,11,,,71,127
55966,note_on,22,0,1,,,,,,,,,11,,,71,0
55968,note_on,2,0,1,,,,,,,,,11,,,72,127
56014,note_on,46,0,1,,,,,,,,,11,,,72,0
56016,note_on,2,0,1,,,,,,,,,11,,,71,127
56038,note_on,22,0,1,,,,,,,,,11,,,71,0
56040,note_on,2,0,1,,,,,,,,,11,,,72,127
56062,note_on,22,0,1,,,,,,,,,11,,,72,0
56064,note_on,2,0,1,,,,,,,,,11,,,62,127
56158,note_on,862,0,5,,,,,,,,,6,,,50,0
56160,note_on,2,0,5,,,,,,,,,6,,,52,75
56254,note_on,94,0,5,,,,,,,,,6,,,52,0
56256,note_on,2,0,5,,,,,,,,,6,,,54,75
56320,note_on,256,0,1,,,,,,,,,11,,,62,0
56350,note_on,94,0,5,,,,,,,,,6,,,54,0
56352,note_on,2,0,5,,,,,,,,,6,,,50,75
56352,note_on,32,0,1,,,,,,,,,11,,,81,127
56446,note_on,94,0,1,,,,,,,,,11,,,81,0
56446,note_on,94,0,5,,,,,,,,,6,,,50,0
56448,note_on,2,0,5,,,,,,,,,6,,,55,75
56448,note_on,2,0,1,,,,,,,,,11,,,82,127
56494,note_on,46,0,1,,,,,,,,,11,,,82,0
56496,note_on,2,0,1,,,,,,,,,11,,,78,127
56542,note_on,46,0,1,,,,,,,,,11,,,78,0
56544,note_on,2,0,1,,,,,,,,,11,,,79,127
56590,note_on,46,0,1,,,,,,,,,11,,,79,0
56592,note_on,2,0,1,,,,,,,,,11,,,74,127
56638,note_on,46,0,1,,,,,,,,,11,,,74,0
56640,note_on,2,0,1,,,,,,,,,11,,,75,127
56686,note_on,46,0,1,,,,,,,,,11,,,75,0
56688,note_on,2,0,1,,,,,,,,,11,,,73,127
56734,note_on,46,0,1,,,,,,,,,11,,,73,0
56736,note_on,2,0,1,,,,,,,,,11,,,74,127
56782,note_on,46,0,1,,,,,,,,,11,,,74,0
56784,note_on,336,0,5,,,,,,,,,6,,,55,0
56784,note_on,2,0,1,,,,,,,,,11,,,69,127
56830,note_on,46,0,1,,,,,,,,,11,,,69,0
56832,note_on,48,0,5,,,,,,,,,6,,,55,75
56832,note_on,2,0,1,,,,,,,,,11,,,70,127
56926,note_on,94,0,5,,,,,,,,,6,,,55,0
56928,note_on,2,0,5,,,,,,,,,6,,,57,75
57022,note_on,94,0,5,,,,,,,,,6,,,57,0
57024,note_on,2,0,5,,,,,,,,,6,,,58,75
57088,note_on,256,0,1,,,,,,,,,11,,,70,0
57118,note_on,94,0,5,,,,,,,,,6,,,58,0
57120,note_on,2,0,5,,,,,,,,,6,,,55,75
57120,note_on,32,0,1,,,,,,,,,11,,,74,127
57214,note_on,94,0,5,,,,,,,,,6,,,55,0
57214,note_on,94,0,1,,,,,,,,,11,,,74,0
57216,note_on,2,0,5,,,,,,,,,6,,,48,75
57216,note_on,2,0,1,,,,,,,,,11,,,75,127
57262,note_on,46,0,1,,,,,,,,,11,,,75,0
57264,note_on,2,0,1,,,,,,,,,11,,,72,127
57310,note_on,46,0,1,,,,,,,,,11,,,72,0
57312,note_on,2,0,1,,,,,,,,,11,,,74,127
57358,note_on,46,0,1,,,,,,,,,11,,,74,0
57360,note_on,2,0,1,,,,,,,,,11,,,69,127
57406,note_on,46,0,1,,,,,,,,,11,,,69,0
57408,note_on,2,0,1,,,,,,,,,11,,,70,127
57454,note_on,46,0,1,,,,,,,,,11,,,70,0
57456,note_on,2,0,1,,,,,,,,,11,,,67,127
57502,note_on,46,0,1,,,,,,,,,11,,,67,0
57504,note_on,2,0,1,,,,,,,,,11,,,69,127
57550,note_on,46,0,1,,,,,,,,,11,,,69,0
57552,note_on,2,0,1,,,,,,,,,11,,,66,127
57552,note_on,336,0,5,,,,,,,,,6,,,48,0
57598,note_on,46,0,1,,,,,,,,,11,,,66,0
57600,note_on,2,0,1,,,,,,,,,11,,,67,127
57600,note_on,48,0,5,,,,,,,,,6,,,55,75
57694,note_on,94,0,5,,,,,,,,,6,,,55,0
57696,note_on,2,0,5,,,,,,,,,6,,,57,75
57790,note_on,94,0,5,,,,,,,,,6,,,57,0
57792,note_on,2,0,5,,,,,,,,,6,,,58,75
57856,note_on,256,0,1,,,,,,,,,11,,,67,0
57886,note_on,94,0,5,,,,,,,,,6,,,58,0
57888,note_on,32,0,1,,,,,,,,,11,,,74,127
57888,note_on,2,0,5,,,,,,,,,6,,,55,75
57982,note_on,94,0,5,,,,,,,,,6,,,55,0
57982,note_on,94,0,1,,,,,,,,,11,,,74,0
57984,note_on,2,0,5,,,,,,,,,6,,,48,75
57984,note_on,2,0,1,,,,,,,,,11,,,75,127
58030,note_on,46,0,1,,,,,,,,,11,,,75,0
58032,note_on,2,0,1,,,,,,,,,11,,,74,127
58054,note_on,22,0,1,,,,,,,,,11,,,74,0
58056,note_on,2,0,1,,,,,,,,,11,,,72,127
58078,note_on,22,0,1,,,,,,,,,11,,,72,0
58078,note_on,94,0,5,,,,,,,,,6,,,48,0
58080,note_on,2,0,1,,,,,,,,,11,,,75,127
58080,note_on,2,0,5,,,,,,,,,6,,,36,75
58126,note_on,46,0,1,,,,,,,,,11,,,75,0
58128,note_on,2,0,1,,,,,,,,,11,,,74,127
58150,note_on,22,0,1,,,,,,,,,11,,,74,0
58152,note_on,2,0,1,,,,,,,,,11,,,72,127
58174,note_on,94,0,5,,,,,,,,,6,,,36,0
58174,note_on,22,0,1,,,,,,,,,11,,,72,0
58176,note_on,2,0,1,,,,,,,,,11,,,81,127
58176,note_on,2,0,5,,,,,,,,,6,,,50,75
58222,note_on,46,0,1,,,,,,,,,11,,,81,0
58224,note_on,2,0,1,,,,,,,,,11,,,79,127
58246,note_on,22,0,1,,,,,,,,,11,,,79,0
58248,note_on,2,0,1,,,,,,,,,11,,,78,127
58270,note_on,94,0,5,,,,,,,,,6,,,50,0
58270,note_on,22,0,1,,,,,,,,,11,,,78,0
58272,note_on,2,0,1,,,,,,,,,11,,,81,127
58272,note_on,2,0,5,,,,,,,,,6,,,38,75
58318,note_on,46,0,1,,,,,,,,,11,,,81,0
58320,note_on,2,0,1,,,,,,,,,11,,,79,127
58342,note_on,22,0,1,,,,,,,,,11,,,79,0
58344,note_on,2,0,1,,,,,,,,,11,,,78,127
58366,note_on,22,0,1,,,,,,,,,11,,,78,0
58366,note_on,94,0,5,,,,,,,,,6,,,38,0
58368,note_on,2,0,5,,,,,,,,,6,,,55,75
58368,note_on,2,0,1,,,,,,,,,11,,,82,127
58414,note_on,46,0,1,,,,,,,,,11,,,82,0
58416,note_on,2,0,1,,,,,,,,,11,,,81,127
58438,note_on,22,0,1,,,,,,,,,11,,,81,0
58440,note_on,2,0,1,,,,,,,,,11,,,79,127
58462,note_on,22,0,1,,,,,,,,,11,,,79,0
58462,note_on,94,0,5,,,,,,,,,6,,,55,0
58464,note_on,2,0,1,,,,,,,,,11,,,82,127
58464,note_on,2,0,5,,,,,,,,,6,,,43,75
58510,note_on,46,0,1,,,,,,,,,11,,,82,0
58512,note_on,2,0,1,,,,,,,,,11,,,81,127
58534,note_on,22,0,1,,,,,,,,,11,,,81,0
58536,note_on,2,0,1,,,,,,,,,11,,,79,127
58558,note_on,22,0,1,,,,,,,,,11,,,79,0
58558,note_on,94,0,5,,,,,,,,,6,,,43,0
58560,note_on,2,0,1,,,,,,,,,11,,,81,127
58560,note_on,2,0,5,,,,,,,,,6,,,50,75
58606,note_on,46,0,1,,,,,,,,,11,,,81,0
58608,note_on,2,0,1,,,,,,,,,11,,,79,127
58630,note_on,22,0,1,,,,,,,,,11,,,79,0
58632,note_on,2,0,1,,,,,,,,,11,,,78,127
58654,note_on,94,0,5,,,,,,,,,6,,,50,0
58654,note_on,22,0,1,,,,,,,,,11,,,78,0
58656,note_on,2,0,1,,,,,,,,,11,,,81,127
58656,note_on,2,0,5,,,,,,,,,6,,,38,75
58702,note_on,46,0,1,,,,,,,,,11,,,81,0
58704,note_on,2,0,1,,,,,,,,,11,,,79,127
58726,note_on,22,0,1,,,,,,,,,11,,,79,0
58728,note_on,2,0,1,,,,,,,,,11,,,78,127
58750,note_on,22,0,1,,,,,,,,,11,,,78,0
58750,note_on,94,0,5,,,,,,,,,6,,,38,0
58752,note_on,2,0,1,,,,,,,,,11,,,78,127
58752,note_on,2,0,5,,,,,,,,,6,,,55,75
58798,note_on,46,0,1,,,,,,,,,11,,,78,0
58800,note_on,2,0,1,,,,,,,,,11,,,79,127
58846,note_on,94,0,5,,,,,,,,,6,,,55,0
58848,note_on,2,0,5,,,,,,,,,6,,,57,75
58942,note_on,94,0,5,,,,,,,,,6,,,57,0
58944,note_on,2,0,5,,,,,,,,,6,,,58,75
59038,note_on,238,0,1,,,,,,,,,11,,,79,0
59038,note_on,94,0,5,,,,,,,,,6,,,58,0
59040,note_on,2,0,1,,,,,,,,,11,,,74,127
59040,note_on,2,0,5,,,,,,,,,6,,,55,75
59134,note_on,94,0,1,,,,,,,,,11,,,74,0
59134,note_on,94,0,5,,,,,,,,,6,,,55,0
59136,note_on,2,0,5,,,,,,,,,6,,,48,75
59136,note_on,2,0,1,,,,,,,,,11,,,75,127
59182,note_on,46,0,1,,,,,,,,,11,,,75,0
59184,note_on,2,0,1,,,,,,,,,11,,,72,127
59206,note_on,22,0,1,,,,,,,,,11,,,72,0
59208,note_on,2,0,1,,,,,,,,,11,,,74,127
59230,note_on,22,0,1,,,,,,,,,11,,,74,0
59230,note_on,94,0,5,,,,,,,,,6,,,48,0
59232,note_on,2,0,1,,,,,,,,,11,,,75,127
59232,note_on,2,0,5,,,,,,,,,6,,,36,75
59278,note_on,46,0,1,,,,,,,,,11,,,75,0
59280,note_on,2,0,1,,,,,,,,,11,,,74,127
59302,note_on,22,0,1,,,,,,,,,11,,,74,0
59304,note_on,2,0,1,,,,,,,,,11,,,72,127
59326,note_on,22,0,1,,,,,,,,,11,,,72,0
59326,note_on,94,0,5,,,,,,,,,6,,,36,0
59328,note_on,2,0,1,,,,,,,,,11,,,81,127
59328,note_on,2,0,5,,,,,,,,,6,,,50,75
59374,note_on,46,0,1,,,,,,,,,11,,,81,0
59376,note_on,2,0,1,,,,,,,,,11,,,78,127
59398,note_on,22,0,1,,,,,,,,,11,,,78,0
59400,note_on,2,0,1,,,,,,,,,11,,,79,127
59422,note_on,94,0,5,,,,,,,,,6,,,50,0
59422,note_on,22,0,1,,,,,,,,,11,,,79,0
59424,note_on,2,0,5,,,,,,,,,6,,,38,75
59424,note_on,2,0,1,,,,,,,,,11,,,81,127
59470,note_on,46,0,1,,,,,,,,,11,,,81,0
59472,note_on,2,0,1,,,,,,,,,11,,,79,127
59494,note_on,22,0,1,,,,,,,,,11,,,79,0
59496,note_on,2,0,1,,,,,,,,,11,,,78,127
59518,note_on,22,0,1,,,,,,,,,11,,,78,0
59518,note_on,94,0,5,,,,,,,,,6,,,38,0
59520,note_on,2,0,1,,,,,,,,,11,,,82,127
59520,note_on,2,0,5,,,,,,,,,6,,,55,75
59566,note_on,46,0,1,,,,,,,,,11,,,82,0
59568,note_on,2,0,1,,,,,,,,,11,,,79,127
59590,note_on,22,0,1,,,,,,,,,11,,,79,0
59592,note_on,2,0,1,,,,,,,,,11,,,81,127
59614,note_on,94,0,5,,,,,,,,,6,,,55,0
59614,note_on,22,0,1,,,,,,,,,11,,,81,0
59616,note_on,2,0,1,,,,,,,,,11,,,82,127
59616,note_on,2,0,5,,,,,,,,,6,,,43,75
59662,note_on,46,0,1,,,,,,,,,11,,,82,0
59664,note_on,2,0,1,,,,,,,,,11,,,81,127
59686,note_on,22,0,1,,,,,,,,,11,,,81,0
59688,note_on,2,0,1,,,,,,,,,11,,,79,127
59710,note_on,94,0,5,,,,,,,,,6,,,43,0
59710,note_on,22,0,1,,,,,,,,,11,,,79,0
59712,note_on,2,0,5,,,,,,,,,6,,,62,75
59712,note_on,2,0,1,,,,,,,,,11,,,81,127
59758,note_on,46,0,1,,,,,,,,,11,,,81,0
59760,note_on,2,0,1,,,,,,,,,11,,,79,127
59782,note_on,22,0,1,,,,,,,,,11,,,79,0
59784,note_on,2,0,1,,,,,,,,,11,,,78,127
59806,note_on,94,0,5,,,,,,,,,6,,,62,0
59806,note_on,22,0,1,,,,,,,,,11,,,78,0
59808,note_on,2,0,5,,,,,,,,,6,,,50,75
59808,note_on,2,0,1,,,,,,,,,11,,,81,127
59854,note_on,46,0,1,,,,,,,,,11,,,81,0
59856,note_on,2,0,1,,,,,,,,,11,,,79,127
59878,note_on,22,0,1,,,,,,,,,11,,,79,0
59880,note_on,2,0,1,,,,,,,,,11,,,78,127
59902,note_on,22,0,1,,,,,,,,,11,,,78,0
59902,note_on,94,0,5,,,,,,,,,6,,,50,0
59904,note_on,10592,0,4,,,,,,,,,4,,,70,92
59904,note_on,2,0,1,,,,,,,,,11,,,79,127
59904,note_on,2,0,5,,,,,,,,,6,,,55,75
59904,note_on,10592,0,6,,,,,,,,,8,,,43,75
59998,note_on,94,0,5,,,,,,,,,6,,,55,0
59998,note_on,94,0,6,,,,,,,,,8,,,43,0
59998,note_on,94,0,4,,,,,,,,,4,,,70,0
60000,note_on,2,0,4,,,,,,,,,4,,,72,92
60000,note_on,2,0,5,,,,,,,,,6,,,57,75
60000,note_on,2,0,6,,,,,,,,,8,,,45,75
60094,note_on,94,0,5,,,,,,,,,6,,,57,0
60094,note_on,94,0,4,,,,,,,,,4,,,72,0
60094,note_on,94,0,6,,,,,,,,,8,,,45,0
60096,note_on,2,0,4,,,,,,,,,4,,,74,92
60096,note_on,2,0,5,,,,,,,,,6,,,58,75
60096,note_on,2,0,6,,,,,,,,,8,,,46,75
60160,note_on,256,0,1,,,,,,,,,11,,,79,0
60190,note_on,94,0,5,,,,,,,,,6,,,58,0
60190,note_on,94,0,6,,,,,,,,,8,,,46,0
60190,note_on,94,0,4,,,,,,,,,4,,,74,0
60192,note_on,2,0,5,,,,,,,,,6,,,54,75
60192,note_on,10688,0,3,,,,,,,,,2,,,72,127
60192,note_on,10688,0,2,,,,,,,,,0,,,75,127
60192,note_on,32,0,1,,,,,,,,,11,,,75,127
60192,note_on,2,0,4,,,,,,,,,4,,,69,92
60192,note_on,2,0,6,,,,,,,,,8,,,42,75
60286,note_on,94,0,6,,,,,,,,,8,,,42,0
60286,note_on,94,0,1,,,,,,,,,11,,,75,0
60286,note_on,94,0,4,,,,,,,,,4,,,69,0
60286,note_on,94,0,5,,,,,,,,,6,,,54,0
60286,note_on,94,0,2,,,,,,,,,0,,,75,0
60286,note_on,94,0,3,,,,,,,,,2,,,72,0
60288,note_on,2,0,1,,,,,,,,,11,,,75,127
60288,note_on,2,0,5,,,,,,,,,6,,,55,75
60288,note_on,2,0,6,,,,,,,,,8,,,43,75
60288,note_on,2,0,3,,,,,,,,,2,,,72,127
60288,note_on,2,0,4,,,,,,,,,4,,,67,92
60288,note_on,2,0,2,,,,,,,,,0,,,75,127
60382,note_on,94,0,6,,,,,,,,,8,,,43,0
60382,note_on,94,0,4,,,,,,,,,4,,,67,0
60382,note_on,94,0,5,,,,,,,,,6,,,55,0
60384,note_on,2,0,5,,,,,,,,,6,,,54,75
60384,note_on,2,0,6,,,,,,,,,8,,,42,75
60384,note_on,2,0,4,,,,,,,,,4,,,69,92
60448,note_on,160,0,1,,,,,,,,,11,,,75,0
60448,note_on,160,0,3,,,,,,,,,2,,,72,0
60448,note_on,160,0,2,,,,,,,,,0,,,75,0
60478,note_on,94,0,5,,,,,,,,,6,,,54,0
60478,note_on,94,0,6,,,,,,,,,8,,,42,0
60478,note_on,94,0,4,,,,,,,,,4,,,69,0
60480,note_on,32,0,1,,,,,,,,,11,,,74,127
60480,note_on,2,0,6,,,,,,,,,8,,,43,75
60480,note_on,32,0,2,,,,,,,,,0,,,74,127
60480,note_on,32,0,3,,,,,,,,,2,,,70,127
60480,note_on,2,0,4,,,,,,,,,4,,,70,92
60480,note_on,2,0,5,,,,,,,,,6,,,55,75
60574,note_on,94,0,3,,,,,,,,,2,,,70,0
60574,note_on,94,0,1,,,,,,,,,11,,,74,0
60574,note_on,94,0,5,,,,,,,,,6,,,55,0
60574,note_on,94,0,6,,,,,,,,,8,,,43,0
60574,note_on,94,0,2,,,,,,,,,0,,,74,0
60576,note_on,2,0,6,,,,,,,,,8,,,31,75
60576,note_on,2,0,3,,,,,,,,,2,,,82,127
60576,note_on,2,0,2,,,,,,,,,0,,,79,127
60576,note_on,2,0,1,,,,,,,,,11,,,79,127
60576,note_on,2,0,5,,,,,,,,,6,,,43,75
60640,note_on,160,0,4,,,,,,,,,4,,,70,0
60670,note_on,94,0,2,,,,,,,,,0,,,79,0
60670,note_on,94,0,1,,,,,,,,,11,,,79,0
60670,note_on,94,0,3,,,,,,,,,2,,,82,0
60670,note_on,94,0,6,,,,,,,,,8,,,31,0
60670,note_on,94,0,5,,,,,,,,,6,,,43,0
60672,note_on,2,0,5,,,,,,,,,6,,,62,75
60672,note_on,2,0,1,,,,,,,,,11,,,79,127
60672,note_on,32,0,4,,,,,,,,,4,,,62,92
60672,note_on,2,0,3,,,,,,,,,2,,,82,127
60672,note_on,2,0,2,,,,,,,,,0,,,79,127
60672,note_on,2,0,6,,,,,,,,,8,,,50,75
60766,note_on,94,0,5,,,,,,,,,6,,,62,0
60766,note_on,94,0,4,,,,,,,,,4,,,62,0
60766,note_on,94,0,6,,,,,,,,,8,,,50,0
60768,note_on,2,0,4,,,,,,,,,4,,,64,92
60768,note_on,2,0,6,,,,,,,,,8,,,48,75
60768,note_on,2,0,5,,,,,,,,,6,,,60,75
60832,note_on,160,0,2,,,,,,,,,0,,,79,0
60832,note_on,160,0,3,,,,,,,,,2,,,82,0
60832,note_on,160,0,1,,,,,,,,,11,,,79,0
60862,note_on,94,0,6,,,,,,,,,8,,,48,0
60862,note_on,94,0,5,,,,,,,,,6,,,60,0
60862,note_on,94,0,4,,,,,,,,,4,,,64,0
60864,note_on,32,0,2,,,,,,,,,0,,,78,127
60864,note_on,32,0,1,,,,,,,,,11,,,78,127
60864,note_on,32,0,3,,,,,,,,,2,,,81,127
60864,note_on,2,0,4,,,,,,,,,4,,,66,92
60864,note_on,2,0,6,,,,,,,,,8,,,50,75
60864,note_on,2,0,5,,,,,,,,,6,,,62,75
60958,note_on,94,0,6,,,,,,,,,8,,,50,0
60958,note_on,94,0,4,,,,,,,,,4,,,66,0
60958,note_on,94,0,2,,,,,,,,,0,,,78,0
60958,note_on,94,0,1,,,,,,,,,11,,,78,0
60958,note_on,94,0,5,,,,,,,,,6,,,62,0
60958,note_on,94,0,3,,,,,,,,,2,,,81,0
60960,note_on,2,0,2,,,,,,,,,0,,,79,127
60960,note_on,2,0,6,,,,,,,,,8,,,43,75
60960,note_on,2,0,1,,,,,,,,,11,,,79,127
60960,note_on,2,0,5,,,,,,,,,6,,,55,75
60960,note_on,2,0,4,,,,,,,,,4,,,62,92
60960,note_on,2,0,3,,,,,,,,,2,,,79,127
61054,note_on,94,0,5,,,,,,,,,6,,,55,0
61054,note_on,94,0,4,,,,,,,,,4,,,62,0
61054,note_on,94,0,3,,,,,,,,,2,,,79,0
61054,note_on,94,0,1,,,,,,,,,11,,,79,0
61054,note_on,94,0,2,,,,,,,,,0,,,79,0
61054,note_on,94,0,6,,,,,,,,,8,,,43,0
61056,note_on,2,0,5,,,,,,,,,6,,,62,75
61056,note_on,2,0,2,,,,,,,,,0,,,81,127
61056,note_on,2,0,6,,,,,,,,,8,,,50,75
61056,note_on,2,0,4,,,,,,,,,4,,,62,92
61056,note_on,2,0,1,,,,,,,,,11,,,81,127
61056,note_on,2,0,3,,,,,,,,,2,,,81,127
61102,note_on,46,0,3,,,,,,,,,2,,,81,0
61102,note_on,46,0,2,,,,,,,,,0,,,81,0
61102,note_on,46,0,1,,,,,,,,,11,,,81,0
61104,note_on,2,0,2,,,,,,,,,0,,,79,127
61104,note_on,2,0,3,,,,,,,,,2,,,79,127
61104,note_on,2,0,1,,,,,,,,,11,,,79,127
61150,note_on,46,0,3,,,,,,,,,2,,,79,0
61150,note_on,46,0,1,,,,,,,,,11,,,79,0
61150,note_on,46,0,2,,,,,,,,,0,,,79,0
61152,note_on,2,0,3,,,,,,,,,2,,,78,127
61152,note_on,2,0,2,,,,,,,,,0,,,78,127
61152,note_on,2,0,1,,,,,,,,,11,,,78,127
61198,note_on,46,0,2,,,,,,,,,0,,,78,0
61198,note_on,46,0,1,,,,,,,,,11,,,78,0
61198,note_on,46,0,3,,,,,,,,,2,,,78,0
61200,note_on,2,0,3,,,,,,,,,2,,,76,127
61200,note_on,2,0,1,,,,,,,,,11,,,76,127
61200,note_on,2,0,2,,,,,,,,,0,,,76,127
61216,note_on,160,0,5,,,,,,,,,6,,,62,0
61216,note_on,160,0,6,,,,,,,,,8,,,50,0
61246,note_on,46,0,2,,,,,,,,,0,,,76,0
61246,note_on,46,0,3,,,,,,,,,2,,,76,0
61246,note_on,46,0,1,,,,,,,,,11,,,76,0
61248,note_on,32,0,5,,,,,,,,,6,,,50,75
61248,note_on,2,0,1,,,,,,,,,11,,,74,127
61248,note_on,2,0,3,,,,,,,,,2,,,74,127
61248,note_on,2,0,2,,,,,,,,,0,,,74,127
61248,note_on,32,0,6,,,,,,,,,8,,,38,75
61294,note_on,46,0,1,,,,,,,,,11,,,74,0
61294,note_on,46,0,2,,,,,,,,,0,,,74,0
61294,note_on,46,0,3,,,,,,,,,2,,,74,0
61296,note_on,2,0,3,,,,,,,,,2,,,72,127
61296,note_on,2,0,2,,,,,,,,,0,,,72,127
61296,note_on,2,0,1,,,,,,,,,11,,,72,127
61312,note_on,256,0,4,,,,,,,,,4,,,62,0
61342,note_on,46,0,3,,,,,,,,,2,,,72,0
61342,note_on,46,0,1,,,,,,,,,11,,,72,0
61342,note_on,46,0,2,,,,,,,,,0,,,72,0
61344,note_on,2,0,3,,,,,,,,,2,,,70,127
61344,note_on,32,0,4,,,,,,,,,4,,,62,92
61344,note_on,2,0,1,,,,,,,,,11,,,70,127
61344,note_on,2,0,2,,,,,,,,,0,,,70,127
61390,note_on,46,0,1,,,,,,,,,11,,,70,0
61390,note_on,46,0,3,,,,,,,,,2,,,70,0
61390,note_on,46,0,2,,,,,,,,,0,,,70,0
61392,note_on,2,0,1,,,,,,,,,11,,,69,127
61392,note_on,2,0,3,,,,,,,,,2,,,69,127
61392,note_on,2,0,2,,,,,,,,,0,,,69,127
61408,note_on,160,0,6,,,,,,,,,8,,,38,0
61408,note_on,160,0,5,,,,,,,,,6,,,50,0
61438,note_on,46,0,1,,,,,,,,,11,,,69,0
61438,note_on,46,0,3,,,,,,,,,2,,,69,0
61438,note_on,46,0,2,,,,,,,,,0,,,69,0
61438,note_on,94,0,4,,,,,,,,,4,,,62,0
61440,note_on,32,0,6,,,,,,,,,8,,,43,75
61440,note_on,2,0,2,,,,,,,,,0,,,70,127
61440,note_on,32,0,5,,,,,,,,,6,,,55,75
61440,note_on,2,0,3,,,,,,,,,2,,,70,127
61440,note_on,2,0,4,,,,,,,,,4,,,62,92
61440,note_on,2,0,1,,,,,,,,,11,,,70,127
61534,note_on,94,0,2,,,,,,,,,0,,,70,0
61534,note_on,94,0,1,,,,,,,,,11,,,70,0
61534,note_on,94,0,5,,,,,,,,,6,,,55,0
61534,note_on,94,0,3,,,,,,,,,2,,,70,0
61534,note_on,94,0,6,,,,,,,,,8,,,43,0
61536,note_on,2,0,5,,,,,,,,,6,,,57,75
61536,note_on,2,0,2,,,,,,,,,0,,,67,127
61536,note_on,2,0,3,,,,,,,,,2,,,67,127
61536,note_on,2,0,1,,,,,,,,,11,,,67,127
61536,note_on,2,0,6,,,,,,,,,8,,,45,75
61630,note_on,94,0,5,,,,,,,,,6,,,57,0
61630,note_on,94,0,6,,,,,,,,,8,,,45,0
61632,note_on,2,0,5,,,,,,,,,6,,,58,75
61632,note_on,2,0,6,,,,,,,,,8,,,46,75
61726,note_on,94,0,6,,,,,,,,,8,,,46,0
61726,note_on,94,0,5,,,,,,,,,6,,,58,0
61728,note_on,2,0,5,,,,,,,,,6,,,57,75
61728,note_on,2,0,6,,,,,,,,,8,,,45,75
61776,note_on,336,0,4,,,,,,,,,4,,,62,0
61792,note_on,256,0,3,,,,,,,,,2,,,67,0
61792,note_on,256,0,1,,,,,,,,,11,,,67,0
61792,note_on,256,0,2,,,,,,,,,0,,,67,0
61822,note_on,94,0,6,,,,,,,,,8,,,45,0
61822,note_on,94,0,5,,,,,,,,,6,,,57,0
61824,note_on,32,0,2,,,,,,,,,0,,,67,127
61824,note_on,2,0,5,,,,,,,,,6,,,55,75
61824,note_on,32,0,1,,,,,,,,,11,,,67,127
61824,note_on,2,0,6,,,,,,,,,8,,,43,75
61824,note_on,48,0,4,,,,,,,,,4,,,58,92
61824,note_on,32,0,3,,,,,,,,,2,,,67,127
61894,note_on,70,0,6,,,,,,,,,8,,,43,0
61894,note_on,70,0,4,,,,,,,,,4,,,58,0
61894,note_on,70,0,5,,,,,,,,,6,,,55,0
61920,note_on,26,0,6,,,,,,,,,8,,,43,75
61920,note_on,26,0,4,,,,,,,,,4,,,58,92
61920,note_on,26,0,5,,,,,,,,,6,,,55,75
61984,note_on,160,0,3,,,,,,,,,2,,,67,0
61984,note_on,160,0,1,,,,,,,,,11,,,67,0
61984,note_on,160,0,2,,,,,,,,,0,,,67,0
61990,note_on,70,0,5,,,,,,,,,6,,,55,0
61990,note_on,70,0,6,,,,,,,,,8,,,43,0
61990,note_on,70,0,4,,,,,,,,,4,,,58,0
62016,note_on,26,0,5,,,,,,,,,6,,,55,75
62016,note_on,26,0,6,,,,,,,,,8,,,43,75
62016,note_on,32,0,2,,,,,,,,,0,,,67,127
62016,note_on,32,0,1,,,,,,,,,11,,,67,127
62016,note_on,26,0,4,,,,,,,,,4,,,58,92
62016,note_on,32,0,3,,,,,,,,,2,,,67,127
62086,note_on,70,0,5,,,,,,,,,6,,,55,0
62086,note_on,70,0,6,,,,,,,,,8,,,43,0
62086,note_on,70,0,4,,,,,,,,,4,,,58,0
62110,note_on,94,0,1,,,,,,,,,11,,,67,0
62110,note_on,94,0,3,,,,,,,,,2,,,67,0
62110,note_on,94,0,2,,,,,,,,,0,,,67,0
62112,note_on,26,0,6,,,,,,,,,8,,,43,75
62112,note_on,2,0,3,,,,,,,,,2,,,67,127
62112,note_on,2,0,1,,,,,,,,,11,,,67,127
62112,note_on,2,0,2,,,,,,,,,0,,,67,127
62112,note_on,26,0,5,,,,,,,,,6,,,55,75
62112,note_on,26,0,4,,,,,,,,,4,,,58,92
62182,note_on,70,0,6,,,,,,,,,8,,,43,0
62182,note_on,70,0,4,,,,,,,,,4,,,58,0
62182,note_on,70,0,5,,,,,,,,,6,,,55,0
62206,note_on,94,0,2,,,,,,,,,0,,,67,0
62206,note_on,94,0,1,,,,,,,,,11,,,67,0
62206,note_on,94,0,3,,,,,,,,,2,,,67,0
62208,note_on,2,0,3,,,,,,,,,2,,,67,127
62208,note_on,26,0,6,,,,,,,,,8,,,43,75
62208,note_on,26,0,5,,,,,,,,,6,,,55,75
62208,note_on,2,0,2,,,,,,,,,0,,,67,127
62208,note_on,26,0,4,,,,,,,,,4,,,58,92
62208,note_on,2,0,1,,,,,,,,,11,,,67,127
62254,note_on,46,0,1,,,,,,,,,11,,,67,0
62254,note_on,46,0,2,,,,,,,,,0,,,67,0
62254,note_on,46,0,3,,,,,,,,,2,,,67,0
62256,note_on,2,0,1,,,,,,,,,11,,,69,127
62256,note_on,2,0,3,,,,,,,,,2,,,69,127
62256,note_on,2,0,2,,,,,,,,,0,,,69,127
62278,note_on,70,0,6,,,,,,,,,8,,,43,0
62278,note_on,70,0,5,,,,,,,,,6,,,55,0
62278,note_on,70,0,4,,,,,,,,,4,,,58,0
62302,note_on,46,0,2,,,,,,,,,0,,,69,0
62302,note_on,46,0,1,,,,,,,,,11,,,69,0
62302,note_on,46,0,3,,,,,,,,,2,,,69,0
62304,note_on,2,0,2,,,,,,,,,0,,,70,127
62304,note_on,2,0,3,,,,,,,,,2,,,70,127
62304,note_on,26,0,6,,,,,,,,,8,,,43,75
62304,note_on,26,0,4,,,,,,,,,4,,,58,92
62304,note_on,26,0,5,,,,,,,,,6,,,55,75
62304,note_on,2,0,1,,,,,,,,,11,,,70,127
62350,note_on,46,0,3,,,,,,,,,2,,,70,0
62350,note_on,46,0,1,,,,,,,,,11,,,70,0
62350,note_on,46,0,2,,,,,,,,,0,,,70,0
62352,note_on,2,0,3,,,,,,,,,2,,,72,127
62352,note_on,2,0,2,,,,,,,,,0,,,72,127
62352,note_on,2,0,1,,,,,,,,,11,,,72,127
62374,note_on,70,0,5,,,,,,,,,6,,,55,0
62374,note_on,70,0,6,,,,,,,,,8,,,43,0
62374,note_on,70,0,4,,,,,,,,,4,,,58,0
62398,note_on,46,0,2,,,,,,,,,0,,,72,0
62398,note_on,46,0,1,,,,,,,,,11,,,72,0
62398,note_on,46,0,3,,,,,,,,,2,,,72,0
62400,note_on,26,0,5,,,,,,,,,6,,,55,75
62400,note_on,26,0,4,,,,,,,,,4,,,58,92
62400,note_on,2,0,1,,,,,,,,,11,,,74,127
62400,note_on,2,0,3,,,,,,,,,2,,,74,127
62400,note_on,2,0,2,,,,,,,,,0,,,74,127
62400,note_on,26,0,6,,,,,,,,,8,,,43,75
62470,note_on,70,0,6,,,,,,,,,8,,,43,0
62470,note_on,70,0,5,,,,,,,,,6,,,55,0
62470,note_on,70,0,4,,,,,,,,,4,,,58,0
62496,note_on,26,0,4,,,,,,,,,4,,,58,92
62496,note_on,26,0,6,,,,,,,,,8,,,43,75
62496,note_on,26,0,5,,,,,,,,,6,,,55,75
62560,note_on,160,0,3,,,,,,,,,2,,,74,0
62560,note_on,160,0,1,,,,,,,,,11,,,74,0
62560,note_on,160,0,2,,,,,,,,,0,,,74,0
62566,note_on,70,0,6,,,,,,,,,8,,,43,0
62566,note_on,70,0,5,,,,,,,,,6,,,55,0
62566,note_on,70,0,4,,,,,,,,,4,,,58,0
62592,note_on,32,0,2,,,,,,,,,0,,,67,45
62592,note_on,32,0,1,,,,,,,,,11,,,67,45
62592,note_on,26,0,6,,,,,,,,,8,,,43,60
62592,note_on,26,0,4,,,,,,,,,4,,,58,60
62592,note_on,26,0,5,,,,,,,,,6,,,55,60
62592,note_on,32,0,3,,,,,,,,,2,,,67,45
62662,note_on,70,0,4,,,,,,,,,4,,,58,0
62662,note_on,70,0,6,,,,,,,,,8,,,43,0
62662,note_on,70,0,5,,,,,,,,,6,,,55,0
62688,note_on,26,0,6,,,,,,,,,8,,,43,60
62688,note_on,26,0,5,,,,,,,,,6,,,55,60
62688,note_on,26,0,4,,,,,,,,,4,,,58,60
62752,note_on,160,0,2,,,,,,,,,0,,,67,0
62752,note_on,160,0,3,,,,,,,,,2,,,67,0
62752,note_on,160,0,1,,,,,,,,,11,,,67,0
62758,note_on,70,0,4,,,,,,,,,4,,,58,0
62758,note_on,70,0,5,,,,,,,,,6,,,55,0
62758,note_on,70,0,6,,,,,,,,,8,,,43,0
62784,note_on,26,0,6,,,,,,,,,8,,,43,60
62784,note_on,32,0,2,,,,,,,,,0,,,67,45
62784,note_on,26,0,4,,,,,,,,,4,,,58,60
62784,note_on,32,0,1,,,,,,,,,11,,,67,45
62784,note_on,32,0,3,,,,,,,,,2,,,67,45
62784,note_on,26,0,5,,,,,,,,,6,,,55,60
62854,note_on,70,0,5,,,,,,,,,6,,,55,0
62854,note_on,70,0,4,,,,,,,,,4,,,58,0
62854,note_on,70,0,6,,,,,,,,,8,,,43,0
62878,note_on,94,0,1,,,,,,,,,11,,,67,0
62878,note_on,94,0,2,,,,,,,,,0,,,67,0
62878,note_on,94,0,3,,,,,,,,,2,,,67,0
62880,note_on,2,0,3,,,,,,,,,2,,,67,45
62880,note_on,26,0,4,,,,,,,,,4,,,58,60
62880,note_on,26,0,6,,,,,,,,,8,,,43,60
62880,note_on,2,0,2,,,,,,,,,0,,,67,45
62880,note_on,26,0,5,,,,,,,,,6,,,55,60
62880,note_on,2,0,1,,,,,,,,,11,,,67,45
62950,note_on,70,0,5,,,,,,,,,6,,,55,0
62950,note_on,70,0,4,,,,,,,,,4,,,58,0
62950,note_on,70,0,6,,,,,,,,,8,,,43,0
62974,note_on,94,0,3,,,,,,,,,2,,,67,0
62974,note_on,94,0,2,,,,,,,,,0,,,67,0
62974,note_on,94,0,1,,,,,,,,,11,,,67,0
62976,note_on,26,0,6,,,,,,,,,8,,,43,60
62976,note_on,26,0,4,,,,,,,,,4,,,58,60
62976,note_on,2,0,2,,,,,,,,,0,,,67,45
62976,note_on,26,0,5,,,,,,,,,6,,,55,60
62976,note_on,2,0,3,,,,,,,,,2,,,67,45
62976,note_on,2,0,1,,,,,,,,,11,,,67,45
63022,note_on,46,0,2,,,,,,,,,0,,,67,0
63022,note_on,46,0,3,,,,,,,,,2,,,67,0
63022,note_on,46,0,1,,,,,,,,,11,,,67,0
63024,note_on,2,0,3,,,,,,,,,2,,,69,45
63024,note_on,2,0,2,,,,,,,,,0,,,69,45
63024,note_on,2,0,1,,,,,,,,,11,,,69,45
63046,note_on,70,0,4,,,,,,,,,4,,,58,0
63046,note_on,70,0,6,,,,,,,,,8,,,43,0
63046,note_on,70,0,5,,,,,,,,,6,,,55,0
63070,note_on,46,0,2,,,,,,,,,0,,,69,0
63070,note_on,46,0,1,,,,,,,,,11,,,69,0
63070,note_on,46,0,3,,,,,,,,,2,,,69,0
63072,note_on,26,0,6,,,,,,,,,8,,,43,60
63072,note_on,2,0,1,,,,,,,,,11,,,70,45
63072,note_on,26,0,4,,,,,,,,,4,,,58,60
63072,note_on,26,0,5,,,,,,,,,6,,,55,60
63072,note_on,2,0,2,,,,,,,,,0,,,70,45
63072,note_on,2,0,3,,,,,,,,,2,,,70,45
63118,note_on,46,0,2,,,,,,,,,0,,,70,0
63118,note_on,46,0,1,,,,,,,,,11,,,70,0
63118,note_on,46,0,3,,,,,,,,,2,,,70,0
63120,note_on,2,0,2,,,,,,,,,0,,,72,45
63120,note_on,2,0,1,,,,,,,,,11,,,72,45
63120,note_on,2,0,3,,,,,,,,,2,,,72,45
63142,note_on,70,0,6,,,,,,,,,8,,,43,0
63142,note_on,70,0,4,,,,,,,,,4,,,58,0
63142,note_on,70,0,5,,,,,,,,,6,,,55,0
63166,note_on,46,0,2,,,,,,,,,0,,,72,0
63166,note_on,46,0,3,,,,,,,,,2,,,72,0
63166,note_on,46,0,1,,,,,,,,,11,,,72,0
63168,note_on,26,0,6,,,,,,,,,8,,,43,60
63168,note_on,2,0,3,,,,,,,,,2,,,74,45
63168,note_on,2,0,1,,,,,,,,,11,,,74,45
63168,note_on,26,0,5,,,,,,,,,6,,,55,60
63168,note_on,26,0,4,,,,,,,,,4,,,58,60
63168,note_on,2,0,2,,,,,,,,,0,,,74,45
63238,note_on,70,0,5,,,,,,,,,6,,,55,0
63238,note_on,70,0,6,,,,,,,,,8,,,43,0
63238,note_on,70,0,4,,,,,,,,,4,,,58,0
63262,note_on,94,0,3,,,,,,,,,2,,,74,0
63262,note_on,94,0,1,,,,,,,,,11,,,74,0
63262,note_on,94,0,2,,,,,,,,,0,,,74,0
63264,note_on,2,0,1,,,,,,,,,11,,,82,127
63264,note_on,26,0,6,,,,,,,,,8,,,43,108
63264,note_on,26,0,4,,,,,,,,,4,,,58,108
63264,note_on,2,0,2,,,,,,,,,0,,,82,127
63264,note_on,26,0,5,,,,,,,,,6,,,55,108
63264,note_on,2,0,3,,,,,,,,,2,,,82,127
63334,note_on,70,0,5,,,,,,,,,6,,,55,0
63334,note_on,70,0,4,,,,,,,,,4,,,58,0
63334,note_on,70,0,6,,,,,,,,,8,,,43,0
63358,note_on,94,0,3,,,,,,,,,2,,,82,0
63358,note_on,94,0,2,,,,,,,,,0,,,82,0
63358,note_on,94,0,1,,,,,,,,,11,,,82,0
63360,note_on,26,0,6,,,,,,,,,8,,,36,108
63360,note_on,26,0,5,,,,,,,,,6,,,48,108
63360,note_on,2,0,2,,,,,,,,,0,,,82,127
63360,note_on,2,0,1,,,,,,,,,11,,,82,127
63360,note_on,26,0,4,,,,,,,,,4,,,63,108
63360,note_on,2,0,3,,,,,,,,,2,,,82,127
63382,note_on,22,0,2,,,,,,,,,0,,,82,0
63382,note_on,22,0,3,,,,,,,,,2,,,82,0
63382,note_on,22,0,1,,,,,,,,,11,,,82,0
63384,note_on,2,0,2,,,,,,,,,0,,,81,127
63384,note_on,2,0,3,,,,,,,,,2,,,81,127
63384,note_on,2,0,1,,,,,,,,,11,,,81,127
63406,note_on,22,0,2,,,,,,,,,0,,,81,0
63406,note_on,22,0,3,,,,,,,,,2,,,81,0
63406,note_on,22,0,1,,,,,,,,,11,,,81,0
63408,note_on,2,0,2,,,,,,,,,0,,,79,127
63408,note_on,2,0,1,,,,,,,,,11,,,79,127
63408,note_on,2,0,3,,,,,,,,,2,,,79,127
63430,note_on,70,0,4,,,,,,,,,4,,,63,0
63430,note_on,70,0,6,,,,,,,,,8,,,36,0
63430,note_on,70,0,5,,,,,,,,,6,,,48,0
63454,note_on,46,0,1,,,,,,,,,11,,,79,0
63454,note_on,46,0,3,,,,,,,,,2,,,79,0
63454,note_on,46,0,2,,,,,,,,,0,,,79,0
63456,note_on,2,0,2,,,,,,,,,0,,,81,127
63456,note_on,2,0,3,,,,,,,,,2,,,81,127
63456,note_on,2,0,1,,,,,,,,,11,,,81,127
63456,note_on,26,0,4,,,,,,,,,4,,,63,108
63456,note_on,26,0,5,,,,,,,,,6,,,48,108
63456,note_on,26,0,6,,,,,,,,,8,,,36,108
63526,note_on,70,0,5,,,,,,,,,6,,,48,0
63526,note_on,70,0,4,,,,,,,,,4,,,63,0
63526,note_on,70,0,6,,,,,,,,,8,,,36,0
63550,note_on,94,0,3,,,,,,,,,2,,,81,0
63550,note_on,94,0,2,,,,,,,,,0,,,81,0
63550,note_on,94,0,1,,,,,,,,,11,,,81,0
63552,note_on,2,0,1,,,,,,,,,11,,,81,127
63552,note_on,26,0,5,,,,,,,,,6,,,49,108
63552,note_on,2,0,2,,,,,,,,,0,,,81,127
63552,note_on,2,0,3,,,,,,,,,2,,,81,127
63552,note_on,26,0,6,,,,,,,,,8,,,37,108
63552,note_on,26,0,4,,,,,,,,,4,,,64,108
63574,note_on,22,0,1,,,,,,,,,11,,,81,0
63574,note_on,22,0,2,,,,,,,,,0,,,81,0
63574,note_on,22,0,3,,,,,,,,,2,,,81,0
63576,note_on,2,0,2,,,,,,,,,0,,,79,127
63576,note_on,2,0,1,,,,,,,,,11,,,79,127
63576,note_on,2,0,3,,,,,,,,,2,,,79,127
63598,note_on,22,0,2,,,,,,,,,0,,,79,0
63598,note_on,22,0,3,,,,,,,,,2,,,79,0
63598,note_on,22,0,1,,,,,,,,,11,,,79,0
63600,note_on,2,0,2,,,,,,,,,0,,,78,127
63600,note_on,2,0,3,,,,,,,,,2,,,78,127
63600,note_on,2,0,1,,,,,,,,,11,,,78,127
63622,note_on,70,0,5,,,,,,,,,6,,,49,0
63622,note_on,70,0,4,,,,,,,,,4,,,64,0
63622,note_on,70,0,6,,,,,,,,,8,,,37,0
63646,note_on,46,0,3,,,,,,,,,2,,,78,0
63646,note_on,46,0,1,,,,,,,,,11,,,78,0
63646,note_on,46,0,2,,,,,,,,,0,,,78,0
63648,note_on,26,0,6,,,,,,,,,8,,,37,108
63648,note_on,2,0,2,,,,,,,,,0,,,79,127
63648,note_on,2,0,3,,,,,,,,,2,,,79,127
63648,note_on,26,0,4,,,,,,,,,4,,,64,108
63648,note_on,2,0,1,,,,,,,,,11,,,79,127
63648,note_on,26,0,5,,,,,,,,,6,,,49,108
63718,note_on,70,0,6,,,,,,,,,8,,,37,0
63718,note_on,70,0,4,,,,,,,,,4,,,64,0
63718,note_on,70,0,5,,,,,,,,,6,,,49,0
63742,note_on,94,0,2,,,,,,,,,0,,,79,0
63742,note_on,94,0,1,,,,,,,,,11,,,79,0
63742,note_on,94,0,3,,,,,,,,,2,,,79,0
63744,note_on,26,0,5,,,,,,,,,6,,,50,75
63744,note_on,2,0,2,,,,,,,,,0,,,78,127
63744,note_on,2,0,3,,,,,,,,,2,,,78,127
63744,note_on,26,0,6,,,,,,,,,8,,,38,75
63744,note_on,26,0,4,,,,,,,,,4,,,57,75
63744,note_on,2,0,1,,,,,,,,,11,,,78,127
63838,note_on,94,0,1,,,,,,,,,11,,,78,0
63838,note_on,94,0,2,,,,,,,,,0,,,78,0
63838,note_on,94,0,4,,,,,,,,,4,,,57,0
63838,note_on,94,0,5,,,,,,,,,6,,,50,0
63838,note_on,94,0,6,,,,,,,,,8,,,38,0
63838,note_on,94,0,3,,,,,,,,,2,,,78,0
63840,note_on,2,0,2,,,,,,,,,0,,,76,127
63840,note_on,2,0,4,,,,,,,,,4,,,57,75
63840,note_on,2,0,3,,,,,,,,,2,,,76,127
63840,note_on,2,0,1,,,,,,,,,11,,,76,127
63840,note_on,2,0,5,,,,,,,,,6,,,50,75
63840,note_on,2,0,6,,,,,,,,,8,,,38,75
63934,note_on,94,0,3,,,,,,,,,2,,,76,0
63934,note_on,94,0,1,,,,,,,,,11,,,76,0
63934,note_on,94,0,5,,,,,,,,,6,,,50,0
63934,note_on,94,0,4,,,,,,,,,4,,,57,0
63934,note_on,94,0,2,,,,,,,,,0,,,76,0
63934,note_on,94,0,6,,,,,,,,,8,,,38,0
63936,note_on,2,0,4,,,,,,,,,4,,,57,75
63936,note_on,2,0,6,,,,,,,,,8,,,38,75
63936,note_on,2,0,1,,,,,,,,,11,,,74,127
63936,note_on,2,0,5,,,,,,,,,6,,,50,75
63936,note_on,2,0,2,,,,,,,,,0,,,74,127
63936,note_on,2,0,3,,,,,,,,,2,,,74,127
64030,note_on,94,0,6,,,,,,,,,8,,,38,0
64030,note_on,94,0,5,,,,,,,,,6,,,50,0
64030,note_on,94,0,4,,,,,,,,,4,,,57,0
64032,note_on,2,0,5,,,,,,,,,6,,,50,75
64032,note_on,2,0,4,,,,,,,,,4,,,57,75
64032,note_on,2,0,6,,,,,,,,,8,,,38,75
64096,note_on,160,0,1,,,,,,,,,11,,,74,0
64096,note_on,160,0,2,,,,,,,,,0,,,74,0
64096,note_on,160,0,3,,,,,,,,,2,,,74,0
64126,note_on,94,0,6,,,,,,,,,8,,,38,0
64126,note_on,94,0,4,,,,,,,,,4,,,57,0
64126,note_on,94,0,5,,,,,,,,,6,,,50,0
64128,note_on,2,0,6,,,,,,,,,8,,,38,75
64128,note_on,32,0,2,,,,,,,,,0,,,72,127
64128,note_on,2,0,5,,,,,,,,,6,,,50,75
64128,note_on,32,0,1,,,,,,,,,11,,,72,127
64128,note_on,2,0,4,,,,,,,,,4,,,66,75
64128,note_on,32,0,3,,,,,,,,,2,,,72,127
64222,note_on,94,0,4,,,,,,,,,4,,,66,0
64222,note_on,94,0,6,,,,,,,,,8,,,38,0
64222,note_on,94,0,5,,,,,,,,,6,,,50,0
64224,note_on,2,0,5,,,,,,,,,6,,,50,75
64224,note_on,2,0,6,,,,,,,,,8,,,38,75
64224,note_on,2,0,4,,,,,,,,,4,,,66,75
64288,note_on,160,0,1,,,,,,,,,11,,,72,0
64288,note_on,160,0,3,,,,,,,,,2,,,72,0
64288,note_on,160,0,2,,,,,,,,,0,,,72,0
64318,note_on,94,0,6,,,,,,,,,8,,,38,0
64318,note_on,94,0,5,,,,,,,,,6,,,50,0
64318,note_on,94,0,4,,,,,,,,,4,,,66,0
64320,note_on,32,0,3,,,,,,,,,2,,,72,127
64320,note_on,2,0,4,,,,,,,,,4,,,66,75
64320,note_on,32,0,1,,,,,,,,,11,,,72,127
64320,note_on,2,0,5,,,,,,,,,6,,,50,75
64320,note_on,32,0,2,,,,,,,,,0,,,72,127
64320,note_on,2,0,6,,,,,,,,,8,,,38,75
64414,note_on,94,0,6,,,,,,,,,8,,,38,0
64414,note_on,94,0,3,,,,,,,,,2,,,72,0
64414,note_on,94,0,1,,,,,,,,,11,,,72,0
64414,note_on,94,0,4,,,,,,,,,4,,,66,0
64414,note_on,94,0,5,,,,,,,,,6,,,50,0
64414,note_on,94,0,2,,,,,,,,,0,,,72,0
64416,note_on,2,0,3,,,,,,,,,2,,,72,127
64416,note_on,2,0,5,,,,,,,,,6,,,50,75
64416,note_on,2,0,2,,,,,,,,,0,,,72,127
64416,note_on,2,0,4,,,,,,,,,4,,,66,75
64416,note_on,2,0,6,,,,,,,,,8,,,38,75
64416,note_on,2,0,1,,,,,,,,,11,,,72,127
64510,note_on,94,0,1,,,,,,,,,11,,,72,0
64510,note_on,94,0,6,,,,,,,,,8,,,38,0
64510,note_on,94,0,5,,,,,,,,,6,,,50,0
64510,note_on,94,0,4,,,,,,,,,4,,,66,0
64510,note_on,94,0,3,,,,,,,,,2,,,72,0
64510,note_on,94,0,2,,,,,,,,,0,,,72,0
64512,note_on,2,0,3,,,,,,,,,2,,,74,127
64512,note_on,2,0,1,,,,,,,,,11,,,74,127
64512,note_on,2,0,5,,,,,,,,,6,,,50,75
64512,note_on,2,0,4,,,,,,,,,4,,,66,75
64512,note_on,2,0,2,,,,,,,,,0,,,74,127
64512,note_on,2,0,6,,,,,,,,,8,,,38,75
64558,note_on,46,0,3,,,,,,,,,2,,,74,0
64558,note_on,46,0,1,,,,,,,,,11,,,74,0
64558,note_on,46,0,2,,,,,,,,,0,,,74,0
64560,note_on,2,0,2,,,,,,,,,0,,,76,127
64560,note_on,2,0,3,,,,,,,,,2,,,76,127
64560,note_on,2,0,1,,,,,,,,,11,,,76,127
64606,note_on,94,0,5,,,,,,,,,6,,,50,0
64606,note_on,46,0,3,,,,,,,,,2,,,76,0
64606,note_on,46,0,1,,,,,,,,,11,,,76,0
64606,note_on,94,0,6,,,,,,,,,8,,,38,0
64606,note_on,46,0,2,,,,,,,,,0,,,76,0
64606,note_on,94,0,4,,,,,,,,,4,,,66,0
64608,note_on,2,0,6,,,,,,,,,8,,,38,75
64608,note_on,2,0,3,,,,,,,,,2,,,78,127
64608,note_on,2,0,2,,,,,,,,,0,,,78,127
64608,note_on,2,0,4,,,,,,,,,4,,,66,75
64608,note_on,2,0,5,,,,,,,,,6,,,50,75
64608,note_on,2,0,1,,,,,,,,,11,,,78,127
64654,note_on,46,0,3,,,,,,,,,2,,,78,0
64654,note_on,46,0,1,,,,,,,,,11,,,78,0
64654,note_on,46,0,2,,,,,,,,,0,,,78,0
64656,note_on,2,0,3,,,,,,,,,2,,,79,127
64656,note_on,2,0,1,,,,,,,,,11,,,79,127
64656,note_on,2,0,2,,,,,,,,,0,,,79,127
64702,note_on,94,0,6,,,,,,,,,8,,,38,0
64702,note_on,46,0,1,,,,,,,,,11,,,79,0
64702,note_on,94,0,4,,,,,,,,,4,,,66,0
64702,note_on,46,0,2,,,,,,,,,0,,,79,0
64702,note_on,46,0,3,,,,,,,,,2,,,79,0
64702,note_on,94,0,5,,,,,,,,,6,,,50,0
64704,note_on,2,0,3,,,,,,,,,2,,,81,127
64704,note_on,2,0,5,,,,,,,,,6,,,50,75
64704,note_on,2,0,6,,,,,,,,,8,,,38,75
64704,note_on,2,0,2,,,,,,,,,0,,,81,127
64704,note_on,2,0,4,,,,,,,,,4,,,66,75
64704,note_on,2,0,1,,,,,,,,,11,,,81,127
64798,note_on,94,0,6,,,,,,,,,8,,,38,0
64798,note_on,94,0,4,,,,,,,,,4,,,66,0
64798,note_on,94,0,5,,,,,,,,,6,,,50,0
64800,note_on,2,0,4,,,,,,,,,4,,,66,75
64800,note_on,2,0,6,,,,,,,,,8,,,38,75
64800,note_on,2,0,5,,,,,,,,,6,,,50,75
64864,note_on,160,0,2,,,,,,,,,0,,,81,0
64864,note_on,160,0,1,,,,,,,,,11,,,81,0
64864,note_on,160,0,3,,,,,,,,,2,,,81,0
64894,note_on,94,0,4,,,,,,,,,4,,,66,0
64894,note_on,94,0,5,,,,,,,,,6,,,50,0
64894,note_on,94,0,6,,,,,,,,,8,,,38,0
64896,note_on,32,0,3,,,,,,,,,2,,,72,127
64896,note_on,32,0,2,,,,,,,,,0,,,72,127
64896,note_on,2,0,4,,,,,,,,,4,,,66,75
64896,note_on,2,0,5,,,,,,,,,6,,,50,75
64896,note_on,2,0,6,,,,,,,,,8,,,38,75
64896,note_on,32,0,1,,,,,,,,,11,,,72,127
64990,note_on,94,0,4,,,,,,,,,4,,,66,0
64990,note_on,94,0,5,,,,,,,,,6,,,50,0
64990,note_on,94,0,6,,,,,,,,,8,,,38,0
64992,note_on,2,0,4,,,,,,,,,4,,,66,75
64992,note_on,2,0,6,,,,,,,,,8,,,38,75
64992,note_on,2,0,5,,,,,,,,,6,,,50,75
65056,note_on,160,0,1,,,,,,,,,11,,,72,0
65056,note_on,160,0,2,,,,,,,,,0,,,72,0
65056,note_on,160,0,3,,,,,,,,,2,,,72,0
65086,note_on,94,0,6,,,,,,,,,8,,,38,0
65086,note_on,94,0,4,,,,,,,,,4,,,66,0
65086,note_on,94,0,5,,,,,,,,,6,,,50,0
65088,note_on,2,0,6,,,,,,,,,8,,,38,75
65088,note_on,32,0,1,,,,,,,,,11,,,72,127
65088,note_on,2,0,4,,,,,,,,,4,,,66,75
65088,note_on,32,0,2,,,,,,,,,0,,,72,127
65088,note_on,2,0,5,,,,,,,,,6,,,50,75
65088,note_on,32,0,3,,,,,,,,,2,,,72,127
65182,note_on,94,0,4,,,,,,,,,4,,,66,0
65182,note_on,94,0,2,,,,,,,,,0,,,72,0
65182,note_on,94,0,5,,,,,,,,,6,,,50,0
65182,note_on,94,0,1,,,,,,,,,11,,,72,0
65182,note_on,94,0,6,,,,,,,,,8,,,38,0
65182,note_on,94,0,3,,,,,,,,,2,,,72,0
65184,note_on,2,0,5,,,,,,,,,6,,,50,75
65184,note_on,2,0,2,,,,,,,,,0,,,72,127
65184,note_on,2,0,3,,,,,,,,,2,,,72,127
65184,note_on,2,0,6,,,,,,,,,8,,,38,75
65184,note_on,2,0,4,,,,,,,,,4,,,66,75
65184,note_on,2,0,1,,,,,,,,,11,,,72,127
65278,note_on,94,0,5,,,,,,,,,6,,,50,0
65278,note_on,94,0,2,,,,,,,,,0,,,72,0
65278,note_on,94,0,6,,,,,,,,,8,,,38,0
65278,note_on,94,0,1,,,,,,,,,11,,,72,0
65278,note_on,94,0,3,,,,,,,,,2,,,72,0
65278,note_on,94,0,4,,,,,,,,,4,,,66,0
65280,note_on,0,0,2,,,,,,,,,0,,,70,127
65280,control_change,2,0,2,,,,,,,,,0,10,64,,
65280,note_on,2,0,1,,,,,,,,,11,,,70,127
65280,note_on,2,0,4,,,,,,,,,4,,,62,75
65280,note_on,2,0,5,,,,,,,,,6,,,55,75
65280,note_on,2,0,3,,,,,,,,,2,,,70,127
65280,note_on,2,0,6,,,,,,,,,8,,,43,75
65374,note_on,94,0,3,,,,,,,,,2,,,70,0
65374,note_on,94,0,5,,,,,,,,,6,,,55,0
65374,note_on,94,0,4,,,,,,,,,4,,,62,0
65374,note_on,94,0,6,,,,,,,,,8,,,43,0
65374,note_on,94,0,2,,,,,,,,,0,,,70,0
65374,note_on,94,0,1,,,,,,,,,11,,,70,0
65376,note_on,2,0,4,,,,,,,,,4,,,62,75
65376,set_tempo,53760,1,0,600000,,,,,,,,,,,,
65376,note_on,2,0,3,,,,,,,,,2,,,70,127
65376,note_on,2,0,6,,,,,,,,,8,,,43,75
65376,note_on,2,0,5,,,,,,,,,6,,,55,75
65376,note_on,2,0,1,,,,,,,,,11,,,79,127
65376,note_on,2,0,2,,,,,,,,,0,,,79,127
65470,note_on,94,0,2,,,,,,,,,0,,,79,0
65470,note_on,94,0,4,,,,,,,,,4,,,62,0
65470,note_on,94,0,5,,,,,,,,,6,,,55,0
65470,note_on,94,0,1,,,,,,,,,11,,,79,0
65470,note_on,94,0,3,,,,,,,,,2,,,70,0
65470,note_on,94,0,6,,,,,,,,,8,,,43,0
65472,note_on,2,0,2,,,,,,,,,0,,,81,127
65472,note_on,2,0,4,,,,,,,,,4,,,63,75
65472,set_tempo,96,1,0,666666,,,,,,,,,,,,
65472,note_on,2,0,6,,,,,,,,,8,,,36,75
65472,note_on,2,0,1,,,,,,,,,11,,,81,127
65472,note_on,2,0,5,,,,,,,,,6,,,48,75
65472,note_on,2,0,3,,,,,,,,,2,,,72,127
65566,note_on,94,0,2,,,,,,,,,0,,,81,0
65566,note_on,94,0,6,,,,,,,,,8,,,36,0
65566,note_on,94,0,4,,,,,,,,,4,,,63,0
65566,note_on,94,0,1,,,,,,,,,11,,,81,0
65566,note_on,94,0,5,,,,,,,,,6,,,48,0
65566,note_on,94,0,3,,,,,,,,,2,,,72,0
65568,set_tempo,96,1,0,750000,,,,,,,,,,,,
65568,note_on,2,0,6,,,,,,,,,8,,,38,75
65568,note_on,2,0,2,,,,,,,,,0,,,78,127
65568,note_on,2,0,3,,,,,,,,,2,,,69,127
65568,note_on,2,0,5,,,,,,,,,6,,,50,75
65568,note_on,2,0,4,,,,,,,,,4,,,62,75
65568,note_on,2,0,1,,,,,,,,,11,,,78,127
65662,note_on,94,0,1,,,,,,,,,11,,,78,0
65662,note_on,94,0,2,,,,,,,,,0,,,78,0
65662,note_on,94,0,5,,,,,,,,,6,,,50,0
65662,note_on,94,0,6,,,,,,,,,8,,,38,0
65662,note_on,94,0,4,,,,,,,,,4,,,62,0
65662,note_on,94,0,3,,,,,,,,,2,,,69,0
65664,note_on,2,0,6,,,,,,,,,8,,,31,75
65664,note_on,2,0,1,,,,,,,,,11,,,79,127
65664,set_tempo,96,1,0,1000000,,,,,,,,,,,,
65664,note_on,2,0,5,,,,,,,,,6,,,43,75
65664,note_on,2,0,4,,,,,,,,,4,,,62,75
65664,note_on,2,0,2,,,,,,,,,0,,,79,127
65664,note_on,2,0,3,,,,,,,,,2,,,70,127
66000,note_on,336,0,5,,,,,,,,,6,,,43,0
66000,note_on,336,0,3,,,,,,,,,2,,,70,0
66000,note_on,336,0,4,,,,,,,,,4,,,62,0
66000,note_on,336,0,6,,,,,,,,,8,,,31,0
66000,note_on,336,0,2,,,,,,,,,0,,,79,0
66000,note_on,336,0,1,,,,,,,,,11,,,79,0
66432,time_signature,432,1,1,,,3,4,24,8,,,,,,,
66432,time_signature,432,1,5,,,3,4,24,8,,,,,,,
66432,time_signature,432,1,2,,,3,4,24,8,,,,,,,
66432,time_signature,432,1,6,,,3,4,24,8,,,,,,,
66432,time_signature,768,1,0,,,3,4,24,8,,,,,,,
66432,time_signature,432,1,4,,,3,4,24,8,,,,,,,
66432,time_signature,432,1,3,,,3,4,24,8,,,,,,,
67008,program_change,0,0,2,,,,,,,,45,0,,,,
67008,note_on,0,0,2,,,,,,,,,0,,,67,127
67008,control_change,576,0,2,,,,,,,,,0,10,0,,
67008,control_change,576,0,4,,,,,,,,,4,10,0,,
67008,note_on,0,0,4,,,,,,,,,4,,,67,75
67008,program_change,0,0,4,,,,,,,,45,4,,,,
67008,set_tempo,576,1,0,1714285,,,,,,,,,,,,
67102,note_on,94,0,4,,,,,,,,,4,,,67,0
67102,note_on,94,0,2,,,,,,,,,0,,,67,0
67104,note_on,2,0,4,,,,,,,,,4,,,67,75
67104,note_on,2,0,2,,,,,,,,,0,,,67,127
67198,note_on,94,0,2,,,,,,,,,0,,,67,0
67198,note_on,94,0,4,,,,,,,,,4,,,67,0
67200,note_on,2,0,2,,,,,,,,,0,,,67,127
67200,note_on,2,0,4,,,,,,,,,4,,,67,75
67294,note_on,94,0,4,,,,,,,,,4,,,67,0
67294,note_on,94,0,2,,,,,,,,,0,,,67,0
67296,note_on,2,0,2,,,,,,,,,0,,,67,127
67296,note_on,2,0,4,,,,,,,,,4,,,67,75
67390,note_on,94,0,4,,,,,,,,,4,,,67,0
67390,note_on,94,0,2,,,,,,,,,0,,,67,0
67392,note_on,2,0,2,,,,,,,,,0,,,75,127
67392,note_on,2,0,4,,,,,,,,,4,,,75,75
67486,note_on,94,0,2,,,,,,,,,0,,,75,0
67486,note_on,94,0,4,,,,,,,,,4,,,75,0
67488,note_on,2,0,2,,,,,,,,,0,,,67,127
67488,note_on,2,0,4,,,,,,,,,4,,,67,75
67582,note_on,94,0,4,,,,,,,,,4,,,67,0
67582,note_on,94,0,2,,,,,,,,,0,,,67,0
67584,note_on,2,0,4,,,,,,,,,4,,,66,75
67584,note_on,2,0,2,,,,,,,,,0,,,66,127
67678,note_on,94,0,4,,,,,,,,,4,,,66,0
67678,note_on,94,0,2,,,,,,,,,0,,,66,0
67680,note_on,2,0,2,,,,,,,,,0,,,66,127
67680,note_on,2,0,4,,,,,,,,,4,,,66,75
67774,note_on,94,0,2,,,,,,,,,0,,,66,0
67774,note_on,94,0,4,,,,,,,,,4,,,66,0
67776,note_on,2,0,4,,,,,,,,,4,,,65,75
67776,note_on,2,0,2,,,,,,,,,0,,,65,127
67870,note_on,94,0,2,,,,,,,,,0,,,65,0
67870,note_on,94,0,4,,,,,,,,,4,,,65,0
67872,note_on,2,0,4,,,,,,,,,4,,,65,75
67872,note_on,2,0,2,,,,,,,,,0,,,65,127
67966,note_on,94,0,4,,,,,,,,,4,,,65,0
67966,note_on,94,0,2,,,,,,,,,0,,,65,0
67968,note_on,2,0,4,,,,,,,,,4,,,74,75
67968,note_on,2,0,2,,,,,,,,,0,,,74,127
68062,note_on,94,0,4,,,,,,,,,4,,,74,0
68062,note_on,94,0,2,,,,,,,,,0,,,74,0
68064,note_on,2,0,2,,,,,,,,,0,,,65,127
68064,note_on,2,0,4,,,,,,,,,4,,,65,75
68158,note_on,94,0,2,,,,,,,,,0,,,65,0
68158,note_on,94,0,4,,,,,,,,,4,,,65,0
68160,note_on,2,0,4,,,,,,,,,4,,,64,75
68160,note_on,2,0,2,,,,,,,,,0,,,64,127
68254,note_on,94,0,4,,,,,,,,,4,,,64,0
68254,note_on,94,0,2,,,,,,,,,0,,,64,0
68256,note_on,2,0,4,,,,,,,,,4,,,64,75
68256,note_on,2,0,2,,,,,,,,,0,,,64,127
68350,note_on,94,0,4,,,,,,,,,4,,,64,0
68350,note_on,94,0,2,,,,,,,,,0,,,64,0
68352,note_on,2,0,2,,,,,,,,,0,,,63,127
68352,note_on,2,0,4,,,,,,,,,4,,,63,75
68446,note_on,94,0,4,,,,,,,,,4,,,63,0
68446,note_on,94,0,2,,,,,,,,,0,,,63,0
68448,note_on,2,0,2,,,,,,,,,0,,,63,127
68448,note_on,2,0,4,,,,,,,,,4,,,63,75
68542,note_on,94,0,4,,,,,,,,,4,,,63,0
68542,note_on,94,0,2,,,,,,,,,0,,,63,0
68544,note_on,2,0,2,,,,,,,,,0,,,72,127
68544,note_on,2,0,4,,,,,,,,,4,,,72,75
68638,note_on,94,0,2,,,,,,,,,0,,,72,0
68638,note_on,94,0,4,,,,,,,,,4,,,72,0
68640,note_on,2,0,2,,,,,,,,,0,,,63,127
68640,note_on,2,0,4,,,,,,,,,4,,,63,75
68734,note_on,94,0,2,,,,,,,,,0,,,63,0
68734,note_on,94,0,4,,,,,,,,,4,,,63,0
68736,note_on,2,0,2,,,,,,,,,0,,,62,127
68736,note_on,2,0,4,,,,,,,,,4,,,62,75
68830,note_on,94,0,4,,,,,,,,,4,,,62,0
68830,note_on,94,0,2,,,,,,,,,0,,,62,0
68832,note_on,2,0,4,,,,,,,,,4,,,62,75
68832,note_on,2,0,2,,,,,,,,,0,,,62,127
68926,note_on,94,0,2,,,,,,,,,0,,,62,0
68926,note_on,94,0,4,,,,,,,,,4,,,62,0
68928,note_on,2,0,4,,,,,,,,,4,,,62,75
68928,note_on,2,0,2,,,,,,,,,0,,,62,127
69022,note_on,94,0,4,,,,,,,,,4,,,62,0
69022,note_on,94,0,2,,,,,,,,,0,,,62,0
69024,note_on,2,0,4,,,,,,,,,4,,,62,75
69024,note_on,2,0,2,,,,,,,,,0,,,62,127
69118,note_on,94,0,2,,,,,,,,,0,,,62,0
69118,note_on,94,0,4,,,,,,,,,4,,,62,0
69120,note_on,2,0,2,,,,,,,,,0,,,72,127
69120,note_on,2,0,4,,,,,,,,,4,,,72,75
69214,note_on,94,0,4,,,,,,,,,4,,,72,0
69214,note_on,94,0,2,,,,,,,,,0,,,72,0
69216,note_on,2,0,4,,,,,,,,,4,,,62,75
69216,note_on,2,0,2,,,,,,,,,0,,,62,127
69310,note_on,94,0,2,,,,,,,,,0,,,62,0
69310,note_on,94,0,4,,,,,,,,,4,,,62,0
69312,note_on,2,0,4,,,,,,,,,4,,,67,75
69312,note_on,2,0,2,,,,,,,,,0,,,67,127
69406,note_on,94,0,4,,,,,,,,,4,,,67,0
69406,note_on,94,0,2,,,,,,,,,0,,,67,0
69408,note_on,2,0,2,,,,,,,,,0,,,58,127
69408,note_on,2,0,4,,,,,,,,,4,,,58,75
69502,note_on,94,0,4,,,,,,,,,4,,,58,0
69502,note_on,94,0,2,,,,,,,,,0,,,58,0
69504,note_on,2,0,2,,,,,,,,,0,,,60,127
69504,note_on,2,0,4,,,,,,,,,4,,,60,75
69598,note_on,94,0,4,,,,,,,,,4,,,60,0
69598,note_on,94,0,2,,,,,,,,,0,,,60,0
69600,note_on,2,0,4,,,,,,,,,4,,,57,75
69600,note_on,2,0,2,,,,,,,,,0,,,57,127
69694,note_on,94,0,2,,,,,,,,,0,,,57,0
69694,note_on,94,0,4,,,,,,,,,4,,,57,0
69696,note_on,2,0,4,,,,,,,,,4,,,62,75
69696,note_on,2,0,2,,,,,,,,,0,,,62,127
69790,note_on,94,0,2,,,,,,,,,0,,,62,0
69790,note_on,94,0,4,,,,,,,,,4,,,62,0
69792,note_on,2,0,4,,,,,,,,,4,,,62,75
69792,note_on,2,0,2,,,,,,,,,0,,,62,127
69886,note_on,94,0,4,,,,,,,,,4,,,62,0
69886,note_on,94,0,2,,,,,,,,,0,,,62,0
69888,note_on,2,0,4,,,,,,,,,4,,,67,75
69888,note_on,2,0,2,,,,,,,,,0,,,67,127
69982,note_on,94,0,4,,,,,,,,,4,,,67,0
69982,note_on,94,0,2,,,,,,,,,0,,,67,0
69984,note_on,2,0,4,,,,,,,,,4,,,67,75
69984,note_on,2,0,2,,,,,,,,,0,,,67,127
70078,note_on,94,0,4,,,,,,,,,4,,,67,0
70078,note_on,94,0,2,,,,,,,,,0,,,67,0
70080,note_on,2,0,2,,,,,,,,,0,,,67,127
70080,note_on,3648,0,1,,,,,,,,,11,,,74,127
70080,note_on,2,0,4,,,,,,,,,4,,,67,75
70174,note_on,94,0,2,,,,,,,,,0,,,67,0
70174,note_on,94,0,4,,,,,,,,,4,,,67,0
70176,note_on,2,0,4,,,,,,,,,4,,,67,75
70176,note_on,2,0,2,,,,,,,,,0,,,67,127
70240,note_on,160,0,1,,,,,,,,,11,,,74,0
70270,note_on,94,0,2,,,,,,,,,0,,,67,0
70270,note_on,94,0,4,,,,,,,,,4,,,67,0
70272,note_on,2,0,4,,,,,,,,,4,,,75,75
70272,note_on,2,0,2,,,,,,,,,0,,,75,127
70272,note_on,32,0,1,,,,,,,,,11,,,79,127
70366,note_on,94,0,2,,,,,,,,,0,,,75,0
70366,note_on,94,0,4,,,,,,,,,4,,,75,0
70368,note_on,2,0,4,,,,,,,,,4,,,67,75
70368,note_on,2,0,2,,,,,,,,,0,,,67,127
70432,note_on,160,0,1,,,,,,,,,11,,,79,0
70462,note_on,94,0,2,,,,,,,,,0,,,67,0
70462,note_on,94,0,4,,,,,,,,,4,,,67,0
70464,note_on,2,0,4,,,,,,,,,4,,,66,75
70464,note_on,32,0,1,,,,,,,,,11,,,81,127
70464,note_on,2,0,2,,,,,,,,,0,,,66,127
70558,note_on,94,0,2,,,,,,,,,0,,,66,0
70558,note_on,94,0,4,,,,,,,,,4,,,66,0
70558,note_on,94,0,1,,,,,,,,,11,,,81,0
70560,note_on,2,0,2,,,,,,,,,0,,,66,127
70560,note_on,2,0,4,,,,,,,,,4,,,66,75
70560,note_on,2,0,1,,,,,,,,,11,,,78,127
70654,note_on,94,0,1,,,,,,,,,11,,,78,0
70654,note_on,94,0,2,,,,,,,,,0,,,66,0
70654,note_on,94,0,4,,,,,,,,,4,,,66,0
70656,note_on,2,0,1,,,,,,,,,11,,,75,127
70656,note_on,2,0,4,,,,,,,,,4,,,65,75
70656,note_on,2,0,2,,,,,,,,,0,,,65,127
70702,note_on,46,0,1,,,,,,,,,11,,,75,0
70704,note_on,2,0,1,,,,,,,,,11,,,74,127
70750,note_on,94,0,4,,,,,,,,,4,,,65,0
70750,note_on,94,0,2,,,,,,,,,0,,,65,0
70752,note_on,2,0,4,,,,,,,,,4,,,65,75
70752,note_on,2,0,2,,,,,,,,,0,,,65,127
70846,note_on,94,0,4,,,,,,,,,4,,,65,0
70846,note_on,94,0,2,,,,,,,,,0,,,65,0
70848,note_on,2,0,4,,,,,,,,,4,,,74,75
70848,note_on,2,0,2,,,,,,,,,0,,,74,127
70942,note_on,94,0,4,,,,,,,,,4,,,74,0
70942,note_on,94,0,2,,,,,,,,,0,,,74,0
70944,note_on,2,0,4,,,,,,,,,4,,,65,75
70944,note_on,2,0,2,,,,,,,,,0,,,65,127
71008,note_on,304,0,1,,,,,,,,,11,,,74,0
71038,note_on,94,0,2,,,,,,,,,0,,,65,0
71038,note_on,94,0,4,,,,,,,,,4,,,65,0
71040,note_on,32,0,1,,,,,,,,,11,,,79,127
71040,note_on,2,0,4,,,,,,,,,4,,,64,75
71040,note_on,2,0,2,,,,,,,,,0,,,64,127
71134,note_on,94,0,1,,,,,,,,,11,,,79,0
71134,note_on,94,0,4,,,,,,,,,4,,,64,0
71134,note_on,94,0,2,,,,,,,,,0,,,64,0
71136,note_on,2,0,1,,,,,,,,,11,,,75,127
71136,note_on,2,0,2,,,,,,,,,0,,,64,127
71136,note_on,2,0,4,,,,,,,,,4,,,64,75
71230,note_on,94,0,1,,,,,,,,,11,,,75,0
71230,note_on,94,0,2,,,,,,,,,0,,,64,0
71230,note_on,94,0,4,,,,,,,,,4,,,64,0
71232,note_on,2,0,1,,,,,,,,,11,,,74,127
71232,note_on,2,0,2,,,,,,,,,0,,,63,127
71232,note_on,2,0,4,,,,,,,,,4,,,63,75
71278,note_on,46,0,1,,,,,,,,,11,,,74,0
71280,note_on,2,0,1,,,,,,,,,11,,,72,127
71326,note_on,94,0,4,,,,,,,,,4,,,63,0
71326,note_on,94,0,2,,,,,,,,,0,,,63,0
71328,note_on,2,0,4,,,,,,,,,4,,,63,75
71328,note_on,2,0,2,,,,,,,,,0,,,63,127
71422,note_on,94,0,4,,,,,,,,,4,,,63,0
71422,note_on,94,0,2,,,,,,,,,0,,,63,0
71424,note_on,2,0,2,,,,,,,,,0,,,72,127
71424,note_on,2,0,4,,,,,,,,,4,,,72,75
71518,note_on,94,0,4,,,,,,,,,4,,,72,0
71518,note_on,94,0,2,,,,,,,,,0,,,72,0
71520,note_on,2,0,4,,,,,,,,,4,,,63,75
71520,note_on,2,0,2,,,,,,,,,0,,,63,127
71584,note_on,304,0,1,,,,,,,,,11,,,72,0
71614,note_on,94,0,4,,,,,,,,,4,,,63,0
71614,note_on,94,0,2,,,,,,,,,0,,,63,0
71616,note_on,2,0,2,,,,,,,,,0,,,62,127
71616,note_on,2,0,4,,,,,,,,,4,,,62,75
71616,note_on,32,0,1,,,,,,,,,11,,,72,127
71710,note_on,94,0,4,,,,,,,,,4,,,62,0
71710,note_on,94,0,2,,,,,,,,,0,,,62,0
71710,note_on,94,0,1,,,,,,,,,11,,,72,0
71712,note_on,2,0,2,,,,,,,,,0,,,62,127
71712,note_on,2,0,4,,,,,,,,,4,,,62,75
71712,note_on,2,0,1,,,,,,,,,11,,,78,127
71806,note_on,94,0,2,,,,,,,,,0,,,62,0
71806,note_on,94,0,1,,,,,,,,,11,,,78,0
71806,note_on,94,0,4,,,,,,,,,4,,,62,0
71808,note_on,2,0,4,,,,,,,,,4,,,62,75
71808,note_on,2,0,2,,,,,,,,,0,,,62,127
71808,note_on,2,0,1,,,,,,,,,11,,,81,127
71902,note_on,94,0,2,,,,,,,,,0,,,62,0
71902,note_on,94,0,1,,,,,,,,,11,,,81,0
71902,note_on,94,0,4,,,,,,,,,4,,,62,0
71904,note_on,2,0,2,,,,,,,,,0,,,62,127
71904,note_on,2,0,1,,,,,,,,,11,,,72,127
71904,note_on,2,0,4,,,,,,,,,4,,,62,75
71998,note_on,94,0,2,,,,,,,,,0,,,62,0
71998,note_on,94,0,4,,,,,,,,,4,,,62,0
71998,note_on,94,0,1,,,,,,,,,11,,,72,0
72000,note_on,2,0,1,,,,,,,,,11,,,70,127
72000,note_on,2,0,2,,,,,,,,,0,,,66,127
72000,note_on,2,0,4,,,,,,,,,4,,,66,75
72094,note_on,94,0,1,,,,,,,,,11,,,70,0
72094,note_on,94,0,2,,,,,,,,,0,,,66,0
72094,note_on,94,0,4,,,,,,,,,4,,,66,0
72096,note_on,2,0,1,,,,,,,,,11,,,69,127
72096,note_on,2,0,2,,,,,,,,,0,,,62,127
72096,note_on,2,0,4,,,,,,,,,4,,,62,75
72190,note_on,94,0,1,,,,,,,,,11,,,69,0
72190,note_on,94,0,2,,,,,,,,,0,,,62,0
72190,note_on,94,0,4,,,,,,,,,4,,,62,0
72192,note_on,2,0,4,,,,,,,,,4,,,67,75
72192,note_on,2,0,1,,,,,,,,,11,,,70,127
72192,note_on,2,0,2,,,,,,,,,0,,,67,127
72286,note_on,94,0,1,,,,,,,,,11,,,70,0
72286,note_on,94,0,4,,,,,,,,,4,,,67,0
72286,note_on,94,0,2,,,,,,,,,0,,,67,0
72288,note_on,2,0,2,,,,,,,,,0,,,62,127
72288,note_on,2,0,4,,,,,,,,,4,,,62,75
72288,note_on,2,0,1,,,,,,,,,11,,,66,127
72382,note_on,94,0,4,,,,,,,,,4,,,62,0
72382,note_on,94,0,1,,,,,,,,,11,,,66,0
72382,note_on,94,0,2,,,,,,,,,0,,,62,0
72384,note_on,2,0,4,,,,,,,,,4,,,58,75
72384,note_on,2,0,2,,,,,,,,,0,,,58,127
72384,note_on,2,0,1,,,,,,,,,11,,,66,127
72430,note_on,46,0,1,,,,,,,,,11,,,66,0
72432,note_on,2,0,1,,,,,,,,,11,,,67,127
72478,note_on,94,0,2,,,,,,,,,0,,,58,0
72478,note_on,94,0,4,,,,,,,,,4,,,58,0
72480,note_on,2,0,2,,,,,,,,,0,,,55,127
72480,note_on,2,0,4,,,,,,,,,4,,,55,75
72574,note_on,94,0,2,,,,,,,,,0,,,55,0
72574,note_on,94,0,4,,,,,,,,,4,,,55,0
72574,note_on,142,0,1,,,,,,,,,11,,,67,0
72576,note_on,2,0,4,,,,,,,,,4,,,62,75
72576,note_on,2,0,2,,,,,,,,,0,,,62,127
72670,note_on,94,0,2,,,,,,,,,0,,,62,0
72670,note_on,94,0,4,,,,,,,,,4,,,62,0
72672,note_on,2,0,2,,,,,,,,,0,,,62,127
72672,note_on,2,0,4,,,,,,,,,4,,,50,75
72766,note_on,94,0,2,,,,,,,,,0,,,62,0
72766,note_on,94,0,4,,,,,,,,,4,,,50,0
72768,note_on,2,0,2,,,,,,,,,0,,,67,127
72768,note_on,2,0,4,,,,,,,,,4,,,67,75
72862,note_on,94,0,2,,,,,,,,,0,,,67,0
72862,note_on,94,0,4,,,,,,,,,4,,,67,0
72864,note_on,2,0,4,,,,,,,,,4,,,67,75
72864,note_on,2,0,2,,,,,,,,,0,,,67,127
72958,note_on,94,0,2,,,,,,,,,0,,,67,0
72958,note_on,94,0,4,,,,,,,,,4,,,67,0
72960,note_on,2,0,2,,,,,,,,,0,,,67,127
72960,note_on,386,0,1,,,,,,,,,11,,,82,127
72960,note_on,2,0,4,,,,,,,,,4,,,67,75
73054,note_on,94,0,2,,,,,,,,,0,,,67,0
73054,note_on,94,0,4,,,,,,,,,4,,,67,0
73056,note_on,2,0,2,,,,,,,,,0,,,67,127
73056,note_on,2,0,4,,,,,,,,,4,,,67,75
73120,note_on,160,0,1,,,,,,,,,11,,,82,0
73150,note_on,94,0,2,,,,,,,,,0,,,67,0
73150,note_on,94,0,4,,,,,,,,,4,,,67,0
73152,note_on,2,0,2,,,,,,,,,0,,,75,127
73152,note_on,32,0,1,,,,,,,,,11,,,79,127
73152,note_on,2,0,4,,,,,,,,,4,,,75,75
73246,note_on,94,0,2,,,,,,,,,0,,,75,0
73246,note_on,94,0,4,,,,,,,,,4,,,75,0
73248,note_on,2,0,2,,,,,,,,,0,,,67,127
73248,note_on,2,0,4,,,,,,,,,4,,,67,75
73312,note_on,160,0,1,,,,,,,,,11,,,79,0
73342,note_on,94,0,2,,,,,,,,,0,,,67,0
73342,note_on,94,0,4,,,,,,,,,4,,,67,0
73344,note_on,2,0,2,,,,,,,,,0,,,66,127
73344,note_on,2,0,4,,,,,,,,,4,,,66,75
73344,note_on,32,0,1,,,,,,,,,11,,,81,127
73390,note_on,46,0,1,,,,,,,,,11,,,81,0
73392,note_on,2,0,1,,,,,,,,,11,,,79,127
73438,note_on,94,0,4,,,,,,,,,4,,,66,0
73438,note_on,46,0,1,,,,,,,,,11,,,79,0
73438,note_on,94,0,2,,,,,,,,,0,,,66,0
73440,note_on,2,0,1,,,,,,,,,11,,,81,127
73440,note_on,2,0,4,,,,,,,,,4,,,66,75
73440,note_on,2,0,2,,,,,,,,,0,,,66,127
73486,note_on,46,0,1,,,,,,,,,11,,,81,0
73488,note_on,2,0,1,,,,,,,,,11,,,81,127
73534,note_on,94,0,2,,,,,,,,,0,,,66,0
73534,note_on,46,0,1,,,,,,,,,11,,,81,0
73534,note_on,94,0,4,,,,,,,,,4,,,66,0
73536,note_on,2,0,2,,,,,,,,,0,,,65,127
73536,note_on,2,0,1,,,,,,,,,11,,,81,127
73536,note_on,2,0,4,,,,,,,,,4,,,65,75
73582,note_on,46,0,1,,,,,,,,,11,,,81,0
73584,note_on,2,0,1,,,,,,,,,11,,,79,127
73630,note_on,94,0,4,,,,,,,,,4,,,65,0
73630,note_on,94,0,2,,,,,,,,,0,,,65,0
73630,note_on,46,0,1,,,,,,,,,11,,,79,0
73632,note_on,2,0,1,,,,,,,,,11,,,81,127
73632,note_on,2,0,2,,,,,,,,,0,,,65,127
73632,note_on,2,0,4,,,,,,,,,4,,,65,75
73678,note_on,46,0,1,,,,,,,,,11,,,81,0
73680,note_on,2,0,1,,,,,,,,,11,,,81,127
73726,note_on,94,0,2,,,,,,,,,0,,,65,0
73726,note_on,46,0,1,,,,,,,,,11,,,81,0
73726,note_on,94,0,4,,,,,,,,,4,,,65,0
73728,note_on,2,0,4,,,,,,,,,4,,,74,75
73728,note_on,2,0,1,,,,,,,,,11,,,74,127
73728,note_on,2,0,2,,,,,,,,,0,,,74,127
73774,note_on,46,0,1,,,,,,,,,11,,,74,0
73776,note_on,2,0,1,,,,,,,,,11,,,72,127
73822,note_on,46,0,1,,,,,,,,,11,,,72,0
73822,note_on,94,0,4,,,,,,,,,4,,,74,0
73822,note_on,94,0,2,,,,,,,,,0,,,74,0
73824,note_on,2,0,2,,,,,,,,,0,,,65,127
73824,note_on,2,0,1,,,,,,,,,11,,,74,127
73824,note_on,2,0,4,,,,,,,,,4,,,65,75
73870,note_on,46,0,1,,,,,,,,,11,,,74,0
73872,note_on,2,0,1,,,,,,,,,11,,,74,127
73918,note_on,46,0,1,,,,,,,,,11,,,74,0
73918,note_on,94,0,2,,,,,,,,,0,,,65,0
73918,note_on,94,0,4,,,,,,,,,4,,,65,0
73920,note_on,2,0,1,,,,,,,,,11,,,79,127
73920,note_on,2,0,4,,,,,,,,,4,,,64,75
73920,note_on,2,0,2,,,,,,,,,0,,,64,127
73966,note_on,46,0,1,,,,,,,,,11,,,79,0
73968,note_on,2,0,1,,,,,,,,,11,,,77,127
74014,note_on,94,0,2,,,,,,,,,0,,,64,0
74014,note_on,94,0,4,,,,,,,,,4,,,64,0
74014,note_on,46,0,1,,,,,,,,,11,,,77,0
74016,note_on,2,0,1,,,,,,,,,11,,,79,127
74016,note_on,2,0,2,,,,,,,,,0,,,64,127
74016,note_on,2,0,4,,,,,,,,,4,,,64,75
74062,note_on,46,0,1,,,,,,,,,11,,,79,0
74064,note_on,2,0,1,,,,,,,,,11,,,79,127
74110,note_on,94,0,4,,,,,,,,,4,,,64,0
74110,note_on,46,0,1,,,,,,,,,11,,,79,0
74110,note_on,94,0,2,,,,,,,,,0,,,64,0
74112,note_on,2,0,4,,,,,,,,,4,,,63,75
74112,note_on,2,0,2,,,,,,,,,0,,,63,127
74112,note_on,2,0,1,,,,,,,,,11,,,79,127
74158,note_on,46,0,1,,,,,,,,,11,,,79,0
74160,note_on,2,0,1,,,,,,,,,11,,,77,127
74206,note_on,94,0,2,,,,,,,,,0,,,63,0
74206,note_on,46,0,1,,,,,,,,,11,,,77,0
74206,note_on,94,0,4,,,,,,,,,4,,,63,0
74208,note_on,2,0,4,,,,,,,,,4,,,63,75
74208,note_on,2,0,2,,,,,,,,,0,,,63,127
74208,note_on,2,0,1,,,,,,,,,11,,,79,127
74254,note_on,46,0,1,,,,,,,,,11,,,79,0
74256,note_on,2,0,1,,,,,,,,,11,,,79,127
74302,note_on,94,0,4,,,,,,,,,4,,,63,0
74302,note_on,94,0,2,,,,,,,,,0,,,63,0
74302,note_on,46,0,1,,,,,,,,,11,,,79,0
74304,note_on,2,0,2,,,,,,,,,0,,,72,127
74304,note_on,2,0,1,,,,,,,,,11,,,72,127
74304,note_on,2,0,4,,,,,,,,,4,,,72,75
74350,note_on,46,0,1,,,,,,,,,11,,,72,0
74352,note_on,2,0,1,,,,,,,,,11,,,70,127
74398,note_on,94,0,4,,,,,,,,,4,,,72,0
74398,note_on,46,0,1,,,,,,,,,11,,,70,0
74398,note_on,94,0,2,,,,,,,,,0,,,72,0
74400,note_on,2,0,1,,,,,,,,,11,,,72,127
74400,note_on,2,0,2,,,,,,,,,0,,,63,127
74400,note_on,2,0,4,,,,,,,,,4,,,63,75
74446,note_on,46,0,1,,,,,,,,,11,,,72,0
74448,note_on,2,0,1,,,,,,,,,11,,,72,127
74494,note_on,46,0,1,,,,,,,,,11,,,72,0
74494,note_on,94,0,4,,,,,,,,,4,,,63,0
74494,note_on,94,0,2,,,,,,,,,0,,,63,0
74496,note_on,2,0,1,,,,,,,,,11,,,78,127
74496,note_on,2,0,2,,,,,,,,,0,,,62,127
74496,note_on,2,0,4,,,,,,,,,4,,,62,75
74542,note_on,46,0,1,,,,,,,,,11,,,78,0
74544,note_on,2,0,1,,,,,,,,,11,,,79,127
74590,note_on,94,0,4,,,,,,,,,4,,,62,0
74590,note_on,94,0,2,,,,,,,,,0,,,62,0
74590,note_on,46,0,1,,,,,,,,,11,,,79,0
74592,note_on,2,0,4,,,,,,,,,4,,,62,75
74592,note_on,2,0,1,,,,,,,,,11,,,81,127
74592,note_on,2,0,2,,,,,,,,,0,,,62,127
74638,note_on,46,0,1,,,,,,,,,11,,,81,0
74640,note_on,2,0,1,,,,,,,,,11,,,79,127
74686,note_on,46,0,1,,,,,,,,,11,,,79,0
74686,note_on,94,0,4,,,,,,,,,4,,,62,0
74686,note_on,94,0,2,,,,,,,,,0,,,62,0
74688,note_on,2,0,1,,,,,,,,,11,,,78,127
74688,note_on,2,0,4,,,,,,,,,4,,,62,75
74688,note_on,2,0,2,,,,,,,,,0,,,62,127
74734,note_on,46,0,1,,,,,,,,,11,,,78,0
74736,note_on,2,0,1,,,,,,,,,11,,,79,127
74782,note_on,94,0,2,,,,,,,,,0,,,62,0
74782,note_on,46,0,1,,,,,,,,,11,,,79,0
74782,note_on,94,0,4,,,,,,,,,4,,,62,0
74784,note_on,2,0,1,,,,,,,,,11,,,81,127
74784,note_on,2,0,4,,,,,,,,,4,,,62,75
74784,note_on,2,0,2,,,,,,,,,0,,,62,127
74830,note_on,46,0,1,,,,,,,,,11,,,81,0
74832,note_on,2,0,1,,,,,,,,,11,,,79,127
74878,note_on,94,0,4,,,,,,,,,4,,,62,0
74878,note_on,94,0,2,,,,,,,,,0,,,62,0
74878,note_on,46,0,1,,,,,,,,,11,,,79,0
74880,note_on,2,0,1,,,,,,,,,11,,,78,127
74880,note_on,2,0,2,,,,,,,,,0,,,72,127
74880,note_on,2,0,4,,,,,,,,,4,,,72,75
74926,note_on,46,0,1,,,,,,,,,11,,,78,0
74928,note_on,2,0,1,,,,,,,,,11,,,76,127
74974,note_on,46,0,1,,,,,,,,,11,,,76,0
74974,note_on,94,0,4,,,,,,,,,4,,,72,0
74974,note_on,94,0,2,,,,,,,,,0,,,72,0
74976,note_on,2,0,1,,,,,,,,,11,,,74,127
74976,note_on,2,0,4,,,,,,,,,4,,,62,75
74976,note_on,2,0,2,,,,,,,,,0,,,62,127
75022,note_on,46,0,1,,,,,,,,,11,,,74,0
75024,note_on,2,0,1,,,,,,,,,11,,,72,127
75070,note_on,94,0,4,,,,,,,,,4,,,62,0
75070,note_on,46,0,1,,,,,,,,,11,,,72,0
75070,note_on,94,0,2,,,,,,,,,0,,,62,0
75072,note_on,2,0,4,,,,,,,,,4,,,67,75
75072,note_on,2,0,1,,,,,,,,,11,,,70,127
75072,note_on,2,0,2,,,,,,,,,0,,,67,127
75166,note_on,94,0,4,,,,,,,,,4,,,67,0
75166,note_on,94,0,2,,,,,,,,,0,,,67,0
75168,note_on,2,0,4,,,,,,,,,4,,,67,75
75168,note_on,2,0,2,,,,,,,,,0,,,67,127
75232,note_on,160,0,1,,,,,,,,,11,,,70,0
75262,note_on,94,0,2,,,,,,,,,0,,,67,0
75262,note_on,94,0,4,,,,,,,,,4,,,67,0
75264,note_on,2,0,2,,,,,,,,,0,,,67,127
75264,note_on,2,0,4,,,,,,,,,4,,,67,75
75358,note_on,94,0,2,,,,,,,,,0,,,67,0
75358,note_on,94,0,4,,,,,,,,,4,,,67,0
75360,note_on,2,0,4,,,,,,,,,4,,,67,75
75360,note_on,128,0,1,,,,,,,,,11,,,74,127
75360,note_on,2,0,2,,,,,,,,,0,,,67,127
75454,note_on,94,0,4,,,,,,,,,4,,,67,0
75454,note_on,94,0,1,,,,,,,,,11,,,74,0
75454,note_on,94,0,2,,,,,,,,,0,,,67,0
75456,note_on,2,0,4,,,,,,,,,4,,,75,75
75456,note_on,2,0,1,,,,,,,,,11,,,79,127
75456,note_on,2,0,2,,,,,,,,,0,,,75,127
75550,note_on,94,0,4,,,,,,,,,4,,,75,0
75550,note_on,94,0,2,,,,,,,,,0,,,75,0
75550,note_on,94,0,1,,,,,,,,,11,,,79,0
75552,note_on,2,0,2,,,,,,,,,0,,,67,127
75552,note_on,2,0,1,,,,,,,,,11,,,82,127
75552,note_on,2,0,4,,,,,,,,,4,,,67,75
75646,note_on,94,0,4,,,,,,,,,4,,,67,0
75646,note_on,94,0,2,,,,,,,,,0,,,67,0
75646,note_on,94,0,1,,,,,,,,,11,,,82,0
75648,note_on,2,0,2,,,,,,,,,0,,,66,127
75648,note_on,2,0,1,,,,,,,,,11,,,81,127
75648,note_on,2,0,4,,,,,,,,,4,,,66,75
75742,note_on,94,0,2,,,,,,,,,0,,,66,0
75742,note_on,94,0,1,,,,,,,,,11,,,81,0
75742,note_on,94,0,4,,,,,,,,,4,,,66,0
75744,note_on,2,0,1,,,,,,,,,11,,,74,127
75744,note_on,2,0,4,,,,,,,,,4,,,66,75
75744,note_on,2,0,2,,,,,,,,,0,,,66,127
75838,note_on,94,0,4,,,,,,,,,4,,,66,0
75838,note_on,94,0,2,,,,,,,,,0,,,66,0
75840,note_on,2,0,4,,,,,,,,,4,,,65,75
75840,note_on,2,0,2,,,,,,,,,0,,,65,127
75934,note_on,94,0,4,,,,,,,,,4,,,65,0
75934,note_on,190,0,1,,,,,,,,,11,,,74,0
75934,note_on,94,0,2,,,,,,,,,0,,,65,0
75936,note_on,2,0,2,,,,,,,,,0,,,65,127
75936,note_on,2,0,1,,,,,,,,,11,,,77,127
75936,note_on,2,0,4,,,,,,,,,4,,,65,75
76030,note_on,94,0,2,,,,,,,,,0,,,65,0
76030,note_on,94,0,4,,,,,,,,,4,,,65,0
76032,note_on,2,0,4,,,,,,,,,4,,,74,75
76032,note_on,2,0,2,,,,,,,,,0,,,74,127
76126,note_on,94,0,4,,,,,,,,,4,,,74,0
76126,note_on,190,0,1,,,,,,,,,11,,,77,0
76126,note_on,94,0,2,,,,,,,,,0,,,74,0
76128,note_on,2,0,1,,,,,,,,,11,,,81,127
76128,note_on,2,0,2,,,,,,,,,0,,,65,127
76128,note_on,2,0,4,,,,,,,,,4,,,65,75
76222,note_on,94,0,1,,,,,,,,,11,,,81,0
76222,note_on,94,0,4,,,,,,,,,4,,,65,0
76222,note_on,94,0,2,,,,,,,,,0,,,65,0
76224,note_on,2,0,1,,,,,,,,,11,,,79,127
76224,note_on,2,0,4,,,,,,,,,4,,,64,75
76224,note_on,2,0,2,,,,,,,,,0,,,64,127
76318,note_on,94,0,4,,,,,,,,,4,,,64,0
76318,note_on,94,0,2,,,,,,,,,0,,,64,0
76318,note_on,94,0,1,,,,,,,,,11,,,79,0
76320,note_on,2,0,1,,,,,,,,,11,,,72,127
76320,note_on,2,0,4,,,,,,,,,4,,,64,75
76320,note_on,2,0,2,,,,,,,,,0,,,64,127
76414,note_on,94,0,2,,,,,,,,,0,,,64,0
76414,note_on,94,0,4,,,,,,,,,4,,,64,0
76416,note_on,2,0,2,,,,,,,,,0,,,63,127
76416,note_on,2,0,4,,,,,,,,,4,,,63,75
76510,note_on,190,0,1,,,,,,,,,11,,,72,0
76510,note_on,94,0,2,,,,,,,,,0,,,63,0
76510,note_on,94,0,4,,,,,,,,,4,,,63,0
76512,note_on,2,0,2,,,,,,,,,0,,,63,127
76512,note_on,2,0,4,,,,,,,,,4,,,63,75
76512,note_on,2,0,1,,,,,,,,,11,,,75,127
76606,note_on,94,0,2,,,,,,,,,0,,,63,0
76606,note_on,94,0,4,,,,,,,,,4,,,63,0
76608,note_on,2,0,2,,,,,,,,,0,,,72,127
76608,note_on,2,0,4,,,,,,,,,4,,,72,75
76702,note_on,94,0,2,,,,,,,,,0,,,72,0
76702,note_on,94,0,4,,,,,,,,,4,,,72,0
76702,note_on,190,0,1,,,,,,,,,11,,,75,0
76704,note_on,2,0,1,,,,,,,,,11,,,79,127
76704,note_on,2,0,2,,,,,,,,,0,,,63,127
76704,note_on,2,0,4,,,,,,,,,4,,,63,75
76798,note_on,94,0,2,,,,,,,,,0,,,63,0
76798,note_on,94,0,4,,,,,,,,,4,,,63,0
76798,note_on,94,0,1,,,,,,,,,11,,,79,0
76800,note_on,2,0,1,,,,,,,,,11,,,78,127
76800,note_on,2,0,2,,,,,,,,,0,,,62,127
76800,note_on,2,0,4,,,,,,,,,4,,,62,75
76894,note_on,94,0,1,,,,,,,,,11,,,78,0
76894,note_on,94,0,2,,,,,,,,,0,,,62,0
76894,note_on,94,0,4,,,,,,,,,4,,,62,0
76896,note_on,2,0,2,,,,,,,,,0,,,62,127
76896,note_on,2,0,4,,,,,,,,,4,,,62,75
76896,note_on,2,0,1,,,,,,,,,11,,,81,127
76990,note_on,94,0,4,,,,,,,,,4,,,62,0
76990,note_on,94,0,2,,,,,,,,,0,,,62,0
76992,note_on,2,0,4,,,,,,,,,4,,,62,75
76992,note_on,2,0,2,,,,,,,,,0,,,62,127
77086,note_on,190,0,1,,,,,,,,,11,,,81,0
77086,note_on,94,0,2,,,,,,,,,0,,,62,0
77086,note_on,94,0,4,,,,,,,,,4,,,62,0
77088,note_on,2,0,2,,,,,,,,,0,,,62,127
77088,note_on,2,0,4,,,,,,,,,4,,,62,75
77088,note_on,2,0,1,,,,,,,,,11,,,74,127
77182,note_on,94,0,2,,,,,,,,,0,,,62,0
77182,note_on,94,0,4,,,,,,,,,4,,,62,0
77184,note_on,2,0,2,,,,,,,,,0,,,66,127
77184,note_on,2,0,4,,,,,,,,,4,,,66,75
77278,note_on,94,0,2,,,,,,,,,0,,,66,0
77278,note_on,190,0,1,,,,,,,,,11,,,74,0
77278,note_on,94,0,4,,,,,,,,,4,,,66,0
77280,note_on,2,0,4,,,,,,,,,4,,,62,75
77280,note_on,2,0,1,,,,,,,,,11,,,72,127
77280,note_on,2,0,2,,,,,,,,,0,,,62,127
77374,note_on,94,0,4,,,,,,,,,4,,,62,0
77374,note_on,94,0,1,,,,,,,,,11,,,72,0
77374,note_on,94,0,2,,,,,,,,,0,,,62,0
77376,note_on,2,0,4,,,,,,,,,4,,,55,75
77376,note_on,2,0,1,,,,,,,,,11,,,71,127
77376,note_on,2,0,2,,,,,,,,,0,,,55,127
77470,note_on,94,0,1,,,,,,,,,11,,,71,0
77470,note_on,94,0,2,,,,,,,,,0,,,55,0
77470,note_on,94,0,4,,,,,,,,,4,,,55,0
77472,note_on,2,0,1,,,,,,,,,11,,,74,127
77472,note_on,2,0,2,,,,,,,,,0,,,55,127
77472,note_on,2,0,4,,,,,,,,,4,,,55,75
77566,note_on,94,0,4,,,,,,,,,4,,,55,0
77566,note_on,94,0,2,,,,,,,,,0,,,55,0
77568,note_on,2,0,2,,,,,,,,,0,,,55,127
77568,note_on,2,0,4,,,,,,,,,4,,,55,75
77662,note_on,94,0,4,,,,,,,,,4,,,55,0
77662,note_on,190,0,1,,,,,,,,,11,,,74,0
77662,note_on,94,0,2,,,,,,,,,0,,,55,0
77664,note_on,2,0,2,,,,,,,,,0,,,55,127
77664,note_on,2,0,1,,,,,,,,,11,,,67,127
77664,note_on,2,0,4,,,,,,,,,4,,,55,75
77758,note_on,94,0,2,,,,,,,,,0,,,55,0
77758,note_on,94,0,4,,,,,,,,,4,,,55,0
77760,note_on,2,0,2,,,,,,,,,0,,,59,127
77760,note_on,2,0,4,,,,,,,,,4,,,59,75
77854,note_on,94,0,4,,,,,,,,,4,,,59,0
77854,note_on,94,0,2,,,,,,,,,0,,,59,0
77854,note_on,190,0,1,,,,,,,,,11,,,67,0
77856,note_on,2,0,4,,,,,,,,,4,,,55,75
77856,note_on,2,0,1,,,,,,,,,11,,,65,127
77856,note_on,2,0,2,,,,,,,,,0,,,55,127
77950,note_on,94,0,4,,,,,,,,,4,,,55,0
77950,note_on,94,0,1,,,,,,,,,11,,,65,0
77950,note_on,94,0,2,,,,,,,,,0,,,55,0
77952,note_on,2,0,2,,,,,,,,,0,,,60,127
77952,note_on,2,0,4,,,,,,,,,4,,,60,75
77952,note_on,2,0,1,,,,,,,,,11,,,63,127
78046,note_on,94,0,2,,,,,,,,,0,,,60,0
78046,note_on,94,0,4,,,,,,,,,4,,,60,0
78048,note_on,2,0,2,,,,,,,,,0,,,60,127
78048,note_on,2,0,4,,,,,,,,,4,,,60,75
78112,note_on,160,0,1,,,,,,,,,11,,,63,0
78142,note_on,94,0,4,,,,,,,,,4,,,60,0
78142,note_on,94,0,2,,,,,,,,,0,,,60,0
78144,note_on,2,0,2,,,,,,,,,0,,,60,127
78144,note_on,2,0,4,,,,,,,,,4,,,60,75
78192,note_on,80,0,1,,,,,,,,,11,,,72,127
78238,note_on,94,0,2,,,,,,,,,0,,,60,0
78238,note_on,94,0,4,,,,,,,,,4,,,60,0
78238,note_on,46,0,1,,,,,,,,,11,,,72,0
78240,note_on,2,0,2,,,,,,,,,0,,,60,127
78240,note_on,2,0,4,,,,,,,,,4,,,60,75
78240,note_on,2,0,1,,,,,,,,,11,,,74,127
78286,note_on,46,0,1,,,,,,,,,11,,,74,0
78288,note_on,2,0,1,,,,,,,,,11,,,72,127
78334,note_on,94,0,4,,,,,,,,,4,,,60,0
78334,note_on,46,0,1,,,,,,,,,11,,,72,0
78334,note_on,94,0,2,,,,,,,,,0,,,60,0
78336,note_on,2,0,4,,,,,,,,,4,,,72,75
78336,note_on,2,0,1,,,,,,,,,11,,,75,127
78336,note_on,2,0,2,,,,,,,,,0,,,72,127
78382,note_on,46,0,1,,,,,,,,,11,,,75,0
78384,note_on,2,0,1,,,,,,,,,11,,,72,127
78430,note_on,46,0,1,,,,,,,,,11,,,72,0
78430,note_on,94,0,2,,,,,,,,,0,,,72,0
78430,note_on,94,0,4,,,,,,,,,4,,,72,0
78432,note_on,2,0,1,,,,,,,,,11,,,74,127
78432,note_on,2,0,4,,,,,,,,,4,,,60,75
78432,note_on,2,0,2,,,,,,,,,0,,,60,127
78478,note_on,46,0,1,,,,,,,,,11,,,74,0
78480,note_on,2,0,1,,,,,,,,,11,,,72,127
78526,note_on,94,0,2,,,,,,,,,0,,,60,0
78526,note_on,94,0,4,,,,,,,,,4,,,60,0
78526,note_on,46,0,1,,,,,,,,,11,,,72,0
78528,note_on,2,0,1,,,,,,,,,11,,,79,127
78528,note_on,2,0,2,,,,,,,,,0,,,60,127
78528,note_on,2,0,4,,,,,,,,,4,,,60,75
78622,note_on,94,0,2,,,,,,,,,0,,,60,0
78622,note_on,94,0,4,,,,,,,,,4,,,60,0
78624,note_on,2,0,2,,,,,,,,,0,,,60,127
78624,note_on,2,0,4,,,,,,,,,4,,,60,75
78688,note_on,160,0,1,,,,,,,,,11,,,79,0
78718,note_on,94,0,4,,,,,,,,,4,,,60,0
78718,note_on,94,0,2,,,,,,,,,0,,,60,0
78720,note_on,2,0,2,,,,,,,,,0,,,60,127
78720,note_on,2,0,4,,,,,,,,,4,,,60,75
78768,note_on,80,0,1,,,,,,,,,11,,,72,127
78814,note_on,94,0,4,,,,,,,,,4,,,60,0
78814,note_on,46,0,1,,,,,,,,,11,,,72,0
78814,note_on,94,0,2,,,,,,,,,0,,,60,0
78816,note_on,2,0,4,,,,,,,,,4,,,60,75
78816,note_on,2,0,1,,,,,,,,,11,,,74,127
78816,note_on,2,0,2,,,,,,,,,0,,,60,127
78862,note_on,46,0,1,,,,,,,,,11,,,74,0
78864,note_on,2,0,1,,,,,,,,,11,,,72,127
78910,note_on,94,0,4,,,,,,,,,4,,,60,0
78910,note_on,94,0,2,,,,,,,,,0,,,60,0
78910,note_on,46,0,1,,,,,,,,,11,,,72,0
78912,note_on,2,0,2,,,,,,,,,0,,,72,127
78912,note_on,2,0,4,,,,,,,,,4,,,72,75
78912,note_on,2,0,1,,,,,,,,,11,,,75,127
78958,note_on,46,0,1,,,,,,,,,11,,,75,0
78960,note_on,2,0,1,,,,,,,,,11,,,72,127
79006,note_on,46,0,1,,,,,,,,,11,,,72,0
79006,note_on,94,0,4,,,,,,,,,4,,,72,0
79006,note_on,94,0,2,,,,,,,,,0,,,72,0
79008,note_on,2,0,2,,,,,,,,,0,,,60,127
79008,note_on,2,0,4,,,,,,,,,4,,,60,75
79008,note_on,2,0,1,,,,,,,,,11,,,74,127
79054,note_on,46,0,1,,,,,,,,,11,,,74,0
79056,note_on,2,0,1,,,,,,,,,11,,,72,127
79102,note_on,94,0,4,,,,,,,,,4,,,60,0
79102,note_on,94,0,2,,,,,,,,,0,,,60,0
79102,note_on,46,0,1,,,,,,,,,11,,,72,0
79104,note_on,2,0,4,,,,,,,,,4,,,65,75
79104,note_on,2,0,1,,,,,,,,,11,,,80,127
79104,note_on,2,0,2,,,,,,,,,0,,,65,127
79198,note_on,94,0,1,,,,,,,,,11,,,80,0
79198,note_on,94,0,2,,,,,,,,,0,,,65,0
79198,note_on,94,0,4,,,,,,,,,4,,,65,0
79200,note_on,2,0,1,,,,,,,,,11,,,77,127
79200,note_on,2,0,2,,,,,,,,,0,,,65,127
79200,note_on,2,0,4,,,,,,,,,4,,,65,75
79246,note_on,46,0,1,,,,,,,,,11,,,77,0
79248,note_on,2,0,1,,,,,,,,,11,,,74,127
79294,note_on,94,0,2,,,,,,,,,0,,,65,0
79294,note_on,94,0,4,,,,,,,,,4,,,65,0
79294,note_on,46,0,1,,,,,,,,,11,,,74,0
79296,note_on,2,0,1,,,,,,,,,11,,,72,127
79296,note_on,2,0,4,,,,,,,,,4,,,55,75
79296,note_on,2,0,2,,,,,,,,,0,,,55,127
79390,note_on,94,0,4,,,,,,,,,4,,,55,0
79390,note_on,94,0,2,,,,,,,,,0,,,55,0
79390,note_on,94,0,1,,,,,,,,,11,,,72,0
79392,note_on,2,0,2,,,,,,,,,0,,,55,127
79392,note_on,2,0,4,,,,,,,,,4,,,55,75
79392,note_on,2,0,1,,,,,,,,,11,,,72,127
79402,note_on,10,0,1,,,,,,,,,11,,,72,0
79404,note_on,2,0,1,,,,,,,,,11,,,71,127
79414,note_on,10,0,1,,,,,,,,,11,,,71,0
79416,note_on,2,0,1,,,,,,,,,11,,,72,127
79426,note_on,10,0,1,,,,,,,,,11,,,72,0
79428,note_on,2,0,1,,,,,,,,,11,,,71,127
79438,note_on,10,0,1,,,,,,,,,11,,,71,0
79440,note_on,2,0,1,,,,,,,,,11,,,72,127
79450,note_on,10,0,1,,,,,,,,,11,,,72,0
79452,note_on,2,0,1,,,,,,,,,11,,,71,127
79462,note_on,10,0,1,,,,,,,,,11,,,71,0
79464,note_on,2,0,1,,,,,,,,,11,,,72,127
79474,note_on,10,0,1,,,,,,,,,11,,,72,0
79476,note_on,2,0,1,,,,,,,,,11,,,71,127
79486,note_on,94,0,2,,,,,,,,,0,,,55,0
79486,note_on,94,0,4,,,,,,,,,4,,,55,0
79488,note_on,2,0,2,,,,,,,,,0,,,67,127
79488,note_on,2,0,4,,,,,,,,,4,,,67,75
79582,note_on,94,0,2,,,,,,,,,0,,,67,0
79582,note_on,94,0,4,,,,,,,,,4,,,67,0
79582,note_on,106,0,1,,,,,,,,,11,,,71,0
79584,note_on,2,0,2,,,,,,,,,0,,,55,127
79584,note_on,2,0,4,,,,,,,,,4,,,55,75
79584,note_on,2,0,1,,,,,,,,,11,,,72,127
79678,note_on,94,0,2,,,,,,,,,0,,,55,0
79678,note_on,94,0,1,,,,,,,,,11,,,72,0
79678,note_on,94,0,4,,,,,,,,,4,,,55,0
79680,note_on,2,0,2,,,,,,,,,0,,,60,127
79680,note_on,2,0,1,,,,,,,,,11,,,72,127
79680,note_on,2,0,4,,,,,,,,,4,,,60,75
79774,note_on,94,0,2,,,,,,,,,0,,,60,0
79774,note_on,94,0,4,,,,,,,,,4,,,60,0
79776,note_on,2,0,4,,,,,,,,,4,,,60,75
79776,note_on,2,0,2,,,,,,,,,0,,,60,127
79840,note_on,160,0,1,,,,,,,,,11,,,72,0
79870,note_on,94,0,4,,,,,,,,,4,,,60,0
79870,note_on,94,0,2,,,,,,,,,0,,,60,0
79872,note_on,2,0,4,,,,,,,,,4,,,60,75
79872,note_on,2,0,2,,,,,,,,,0,,,60,127
79966,note_on,94,0,4,,,,,,,,,4,,,60,0
79966,note_on,94,0,2,,,,,,,,,0,,,60,0
79968,note_on,128,0,1,,,,,,,,,11,,,72,127
79968,note_on,2,0,2,,,,,,,,,0,,,60,127
79968,note_on,2,0,4,,,,,,,,,4,,,60,75
80062,note_on,94,0,2,,,,,,,,,0,,,60,0
80062,note_on,94,0,4,,,,,,,,,4,,,60,0
80062,note_on,94,0,1,,,,,,,,,11,,,72,0
80064,note_on,2,0,2,,,,,,,,,0,,,68,127
80064,note_on,2,0,4,,,,,,,,,4,,,68,75
80064,note_on,2,0,1,,,,,,,,,11,,,77,127
80158,note_on,94,0,4,,,,,,,,,4,,,68,0
80158,note_on,94,0,1,,,,,,,,,11,,,77,0
80158,note_on,94,0,2,,,,,,,,,0,,,68,0
80160,note_on,2,0,4,,,,,,,,,4,,,60,75
80160,note_on,2,0,2,,,,,,,,,0,,,60,127
80160,note_on,2,0,1,,,,,,,,,11,,,80,127
80254,note_on,94,0,4,,,,,,,,,4,,,60,0
80254,note_on,94,0,2,,,,,,,,,0,,,60,0
80254,note_on,94,0,1,,,,,,,,,11,,,80,0
80256,note_on,2,0,1,,,,,,,,,11,,,80,127
80256,note_on,2,0,2,,,,,,,,,0,,,59,127
80256,note_on,2,0,4,,,,,,,,,4,,,59,75
80350,note_on,94,0,4,,,,,,,,,4,,,59,0
80350,note_on,94,0,2,,,,,,,,,0,,,59,0
80352,note_on,2,0,4,,,,,,,,,4,,,59,75
80352,note_on,2,0,2,,,,,,,,,0,,,59,127
80446,note_on,94,0,4,,,,,,,,,4,,,59,0
80446,note_on,94,0,2,,,,,,,,,0,,,59,0
80448,note_on,2,0,2,,,,,,,,,0,,,58,127
80448,note_on,2,0,4,,,,,,,,,4,,,58,75
80494,note_on,238,0,1,,,,,,,,,11,,,80,0
80496,note_on,2,0,1,,,,,,,,,11,,,79,127
80542,note_on,94,0,2,,,,,,,,,0,,,58,0
80542,note_on,46,0,1,,,,,,,,,11,,,79,0
80542,note_on,94,0,4,,,,,,,,,4,,,58,0
80544,note_on,2,0,1,,,,,,,,,11,,,77,127
80544,note_on,2,0,2,,,,,,,,,0,,,58,127
80544,note_on,2,0,4,,,,,,,,,4,,,58,75
80590,note_on,46,0,1,,,,,,,,,11,,,77,0
80592,note_on,2,0,1,,,,,,,,,11,,,75,127
80638,note_on,94,0,2,,,,,,,,,0,,,58,0
80638,note_on,46,0,1,,,,,,,,,11,,,75,0
80638,note_on,94,0,4,,,,,,,,,4,,,58,0
80640,note_on,2,0,2,,,,,,,,,0,,,67,127
80640,note_on,2,0,4,,,,,,,,,4,,,67,75
80640,note_on,2,0,1,,,,,,,,,11,,,74,127
80686,note_on,46,0,1,,,,,,,,,11,,,74,0
80688,note_on,2,0,1,,,,,,,,,11,,,75,127
80734,note_on,94,0,2,,,,,,,,,0,,,67,0
80734,note_on,46,0,1,,,,,,,,,11,,,75,0
80734,note_on,94,0,4,,,,,,,,,4,,,67,0
80736,note_on,2,0,4,,,,,,,,,4,,,58,75
80736,note_on,2,0,1,,,,,,,,,11,,,78,127
80736,note_on,2,0,2,,,,,,,,,0,,,58,127
80782,note_on,46,0,1,,,,,,,,,11,,,78,0
80784,note_on,2,0,1,,,,,,,,,11,,,79,127
80830,note_on,46,0,1,,,,,,,,,11,,,79,0
80830,note_on,94,0,4,,,,,,,,,4,,,58,0
80830,note_on,94,0,2,,,,,,,,,0,,,58,0
80832,note_on,2,0,1,,,,,,,,,11,,,79,127
80832,note_on,2,0,2,,,,,,,,,0,,,57,127
80832,note_on,2,0,4,,,,,,,,,4,,,57,75
80926,note_on,94,0,4,,,,,,,,,4,,,57,0
80926,note_on,94,0,2,,,,,,,,,0,,,57,0
80928,note_on,2,0,4,,,,,,,,,4,,,57,75
80928,note_on,2,0,2,,,,,,,,,0,,,57,127
81022,note_on,94,0,4,,,,,,,,,4,,,57,0
81022,note_on,94,0,2,,,,,,,,,0,,,57,0
81024,note_on,2,0,2,,,,,,,,,0,,,56,127
81024,note_on,2,0,4,,,,,,,,,4,,,56,75
81070,note_on,238,0,1,,,,,,,,,11,,,79,0
81072,note_on,2,0,1,,,,,,,,,11,,,77,127
81118,note_on,46,0,1,,,,,,,,,11,,,77,0
81118,note_on,94,0,4,,,,,,,,,4,,,56,0
81118,note_on,94,0,2,,,,,,,,,0,,,56,0
81120,note_on,2,0,2,,,,,,,,,0,,,56,127
81120,note_on,2,0,4,,,,,,,,,4,,,56,75
81120,note_on,2,0,1,,,,,,,,,11,,,75,127
81166,note_on,46,0,1,,,,,,,,,11,,,75,0
81168,note_on,2,0,1,,,,,,,,,11,,,74,127
81214,note_on,94,0,4,,,,,,,,,4,,,56,0
81214,note_on,94,0,2,,,,,,,,,0,,,56,0
81214,note_on,46,0,1,,,,,,,,,11,,,74,0
81216,note_on,2,0,2,,,,,,,,,0,,,65,127
81216,note_on,2,0,1,,,,,,,,,11,,,72,127
81216,note_on,2,0,4,,,,,,,,,4,,,65,75
81262,note_on,46,0,1,,,,,,,,,11,,,72,0
81264,note_on,2,0,1,,,,,,,,,11,,,73,127
81310,note_on,94,0,2,,,,,,,,,0,,,65,0
81310,note_on,46,0,1,,,,,,,,,11,,,73,0
81310,note_on,94,0,4,,,,,,,,,4,,,65,0
81312,note_on,2,0,4,,,,,,,,,4,,,56,75
81312,note_on,2,0,1,,,,,,,,,11,,,76,127
81312,note_on,2,0,2,,,,,,,,,0,,,56,127
81358,note_on,46,0,1,,,,,,,,,11,,,76,0
81360,note_on,2,0,1,,,,,,,,,11,,,77,127
81406,note_on,94,0,2,,,,,,,,,0,,,56,0
81406,note_on,46,0,1,,,,,,,,,11,,,77,0
81406,note_on,94,0,4,,,,,,,,,4,,,56,0
81408,note_on,2,0,4,,,,,,,,,4,,,55,75
81408,note_on,2,0,2,,,,,,,,,0,,,55,127
81408,note_on,2,0,1,,,,,,,,,11,,,77,127
81454,note_on,46,0,1,,,,,,,,,11,,,77,0
81456,note_on,2,0,1,,,,,,,,,11,,,75,127
81502,note_on,94,0,4,,,,,,,,,4,,,55,0
81502,note_on,46,0,1,,,,,,,,,11,,,75,0
81502,note_on,94,0,2,,,,,,,,,0,,,55,0
81504,note_on,2,0,4,,,,,,,,,4,,,55,75
81504,note_on,2,0,1,,,,,,,,,11,,,74,127
81504,note_on,2,0,2,,,,,,,,,0,,,55,127
81550,note_on,46,0,1,,,,,,,,,11,,,74,0
81552,note_on,2,0,1,,,,,,,,,11,,,72,127
81598,note_on,94,0,2,,,,,,,,,0,,,55,0
81598,note_on,46,0,1,,,,,,,,,11,,,72,0
81598,note_on,94,0,4,,,,,,,,,4,,,55,0
81600,note_on,2,0,1,,,,,,,,,11,,,71,127
81600,note_on,2,0,2,,,,,,,,,0,,,55,127
81600,note_on,2,0,4,,,,,,,,,4,,,55,75
81646,note_on,46,0,1,,,,,,,,,11,,,71,0
81648,note_on,2,0,1,,,,,,,,,11,,,69,127
81694,note_on,94,0,4,,,,,,,,,4,,,55,0
81694,note_on,46,0,1,,,,,,,,,11,,,69,0
81694,note_on,94,0,2,,,,,,,,,0,,,55,0
81696,note_on,2,0,4,,,,,,,,,4,,,55,75
81696,note_on,2,0,2,,,,,,,,,0,,,55,127
81696,note_on,2,0,1,,,,,,,,,11,,,67,127
81742,note_on,46,0,1,,,,,,,,,11,,,67,0
81744,note_on,2,0,1,,,,,,,,,11,,,71,127
81790,note_on,94,0,2,,,,,,,,,0,,,55,0
81790,note_on,94,0,4,,,,,,,,,4,,,55,0
81790,note_on,46,0,1,,,,,,,,,11,,,71,0
81792,note_on,2,0,4,,,,,,,,,4,,,65,75
81792,note_on,2,0,2,,,,,,,,,0,,,65,127
81792,note_on,2,0,1,,,,,,,,,11,,,74,127
81838,note_on,46,0,1,,,,,,,,,11,,,74,0
81840,note_on,2,0,1,,,,,,,,,11,,,77,127
81886,note_on,94,0,2,,,,,,,,,0,,,65,0
81886,note_on,94,0,4,,,,,,,,,4,,,65,0
81886,note_on,46,0,1,,,,,,,,,11,,,77,0
81888,note_on,2,0,4,,,,,,,,,4,,,55,75
81888,note_on,2,0,2,,,,,,,,,0,,,55,127
81888,note_on,2,0,1,,,,,,,,,11,,,75,127
81934,note_on,46,0,1,,,,,,,,,11,,,75,0
81936,note_on,2,0,1,,,,,,,,,11,,,74,127
81982,note_on,46,0,1,,,,,,,,,11,,,74,0
81982,note_on,94,0,2,,,,,,,,,0,,,55,0
81982,note_on,94,0,4,,,,,,,,,4,,,55,0
81984,note_on,2,0,1,,,,,,,,,11,,,75,127
81984,note_on,2,0,4,,,,,,,,,4,,,60,75
81984,note_on,2,0,2,,,,,,,,,0,,,60,127
82030,note_on,46,0,1,,,,,,,,,11,,,75,0
82032,note_on,2,0,1,,,,,,,,,11,,,74,127
82078,note_on,94,0,4,,,,,,,,,4,,,60,0
82078,note_on,94,0,2,,,,,,,,,0,,,60,0
82078,note_on,46,0,1,,,,,,,,,11,,,74,0
82080,note_on,2,0,4,,,,,,,,,4,,,60,75
82080,note_on,2,0,2,,,,,,,,,0,,,60,127
82080,note_on,2,0,1,,,,,,,,,11,,,72,127
82174,note_on,94,0,4,,,,,,,,,4,,,60,0
82174,note_on,94,0,1,,,,,,,,,11,,,72,0
82174,note_on,94,0,2,,,,,,,,,0,,,60,0
82176,note_on,2,0,1,,,,,,,,,11,,,79,127
82176,note_on,2,0,4,,,,,,,,,4,,,60,75
82176,note_on,2,0,2,,,,,,,,,0,,,60,127
82222,note_on,46,0,1,,,,,,,,,11,,,79,0
82224,note_on,2,0,1,,,,,,,,,11,,,77,127
82270,note_on,94,0,4,,,,,,,,,4,,,60,0
82270,note_on,46,0,1,,,,,,,,,11,,,77,0
82270,note_on,94,0,2,,,,,,,,,0,,,60,0
82272,note_on,2,0,2,,,,,,,,,0,,,60,127
82272,note_on,2,0,4,,,,,,,,,4,,,60,75
82272,note_on,2,0,1,,,,,,,,,11,,,75,127
82366,note_on,94,0,4,,,,,,,,,4,,,60,0
82366,note_on,94,0,1,,,,,,,,,11,,,75,0
82366,note_on,94,0,2,,,,,,,,,0,,,60,0
82368,note_on,2,0,2,,,,,,,,,0,,,67,127
82368,note_on,2,0,4,,,,,,,,,4,,,67,75
82368,note_on,2,0,1,,,,,,,,,11,,,74,127
82414,note_on,46,0,1,,,,,,,,,11,,,74,0
82416,note_on,2,0,1,,,,,,,,,11,,,72,127
82462,note_on,94,0,2,,,,,,,,,0,,,67,0
82462,note_on,46,0,1,,,,,,,,,11,,,72,0
82462,note_on,94,0,4,,,,,,,,,4,,,67,0
82464,note_on,2,0,1,,,,,,,,,11,,,71,127
82464,note_on,2,0,2,,,,,,,,,0,,,55,127
82464,note_on,2,0,4,,,,,,,,,4,,,55,75
82558,note_on,94,0,2,,,,,,,,,0,,,55,0
82558,note_on,94,0,4,,,,,,,,,4,,,55,0
82558,note_on,94,0,1,,,,,,,,,11,,,71,0
82560,note_on,2,0,1,,,,,,,,,11,,,72,127
82560,note_on,2,0,2,,,,,,,,,0,,,60,127
82560,note_on,2,0,4,,,,,,,,,4,,,60,75
82654,note_on,94,0,4,,,,,,,,,4,,,60,0
82654,note_on,94,0,2,,,,,,,,,0,,,60,0
82656,note_on,2,0,4,,,,,,,,,4,,,60,75
82656,note_on,2,0,2,,,,,,,,,0,,,60,127
82720,note_on,160,0,1,,,,,,,,,11,,,72,0
82750,note_on,94,0,2,,,,,,,,,0,,,60,0
82750,note_on,94,0,4,,,,,,,,,4,,,60,0
82752,note_on,2,0,2,,,,,,,,,0,,,60,127
82752,note_on,2,0,4,,,,,,,,,4,,,60,75
82784,note_on,64,0,1,,,,,,,,,11,,,72,127
82814,note_on,30,0,1,,,,,,,,,11,,,72,0
82816,note_on,2,0,1,,,,,,,,,11,,,74,127
82846,note_on,94,0,4,,,,,,,,,4,,,60,0
82846,note_on,30,0,1,,,,,,,,,11,,,74,0
82846,note_on,94,0,2,,,,,,,,,0,,,60,0
82848,note_on,2,0,1,,,,,,,,,11,,,75,127
82848,note_on,2,0,2,,,,,,,,,0,,,60,127
82848,note_on,2,0,4,,,,,,,,,4,,,60,75
82878,note_on,30,0,1,,,,,,,,,11,,,75,0
82880,note_on,2,0,1,,,,,,,,,11,,,77,127
82910,note_on,30,0,1,,,,,,,,,11,,,77,0
82912,note_on,2,0,1,,,,,,,,,11,,,79,127
82942,note_on,30,0,1,,,,,,,,,11,,,79,0
82942,note_on,94,0,4,,,,,,,,,4,,,60,0
82942,note_on,94,0,2,,,,,,,,,0,,,60,0
82944,note_on,2,0,4,,,,,,,,,4,,,68,75
82944,note_on,2,0,1,,,,,,,,,11,,,80,127
82944,note_on,2,0,2,,,,,,,,,0,,,68,127
82974,note_on,30,0,1,,,,,,,,,11,,,80,0
82976,note_on,2,0,1,,,,,,,,,11,,,79,127
83006,note_on,30,0,1,,,,,,,,,11,,,79,0
83008,note_on,2,0,1,,,,,,,,,11,,,77,127
83038,note_on,94,0,4,,,,,,,,,4,,,68,0
83038,note_on,30,0,1,,,,,,,,,11,,,77,0
83038,note_on,94,0,2,,,,,,,,,0,,,68,0
83040,note_on,2,0,4,,,,,,,,,4,,,60,75
83040,note_on,2,0,2,,,,,,,,,0,,,60,127
83040,note_on,2,0,1,,,,,,,,,11,,,75,127
83070,note_on,30,0,1,,,,,,,,,11,,,75,0
83072,note_on,2,0,1,,,,,,,,,11,,,74,127
83102,note_on,30,0,1,,,,,,,,,11,,,74,0
83104,note_on,2,0,1,,,,,,,,,11,,,72,127
83134,note_on,94,0,2,,,,,,,,,0,,,60,0
83134,note_on,30,0,1,,,,,,,,,11,,,72,0
83134,note_on,94,0,4,,,,,,,,,4,,,60,0
83136,note_on,2,0,2,,,,,,,,,0,,,59,127
83136,note_on,2,0,1,,,,,,,,,11,,,74,127
83136,note_on,2,0,4,,,,,,,,,4,,,59,75
83230,note_on,94,0,2,,,,,,,,,0,,,59,0
83230,note_on,94,0,4,,,,,,,,,4,,,59,0
83232,note_on,2,0,2,,,,,,,,,0,,,59,127
83232,note_on,2,0,4,,,,,,,,,4,,,59,75
83296,note_on,160,0,1,,,,,,,,,11,,,74,0
83326,note_on,94,0,4,,,,,,,,,4,,,59,0
83326,note_on,94,0,2,,,,,,,,,0,,,59,0
83328,note_on,2,0,2,,,,,,,,,0,,,58,127
83328,note_on,2,0,4,,,,,,,,,4,,,58,75
83360,note_on,64,0,1,,,,,,,,,11,,,70,127
83390,note_on,30,0,1,,,,,,,,,11,,,70,0
83392,note_on,2,0,1,,,,,,,,,11,,,72,127
83422,note_on,94,0,2,,,,,,,,,0,,,58,0
83422,note_on,94,0,4,,,,,,,,,4,,,58,0
83422,note_on,30,0,1,,,,,,,,,11,,,72,0
83424,note_on,2,0,4,,,,,,,,,4,,,58,75
83424,note_on,2,0,1,,,,,,,,,11,,,74,127
83424,note_on,2,0,2,,,,,,,,,0,,,58,127
83454,note_on,30,0,1,,,,,,,,,11,,,74,0
83456,note_on,2,0,1,,,,,,,,,11,,,75,127
83486,note_on,30,0,1,,,,,,,,,11,,,75,0
83488,note_on,2,0,1,,,,,,,,,11,,,77,127
83518,note_on,94,0,2,,,,,,,,,0,,,58,0
83518,note_on,94,0,4,,,,,,,,,4,,,58,0
83518,note_on,30,0,1,,,,,,,,,11,,,77,0
83520,note_on,2,0,1,,,,,,,,,11,,,79,127
83520,note_on,2,0,2,,,,,,,,,0,,,67,127
83520,note_on,2,0,4,,,,,,,,,4,,,67,75
83550,note_on,30,0,1,,,,,,,,,11,,,79,0
83552,note_on,2,0,1,,,,,,,,,11,,,77,127
83582,note_on,30,0,1,,,,,,,,,11,,,77,0
83584,note_on,2,0,1,,,,,,,,,11,,,75,127
83614,note_on,94,0,2,,,,,,,,,0,,,67,0
83614,note_on,94,0,4,,,,,,,,,4,,,67,0
83614,note_on,30,0,1,,,,,,,,,11,,,75,0
83616,note_on,2,0,1,,,,,,,,,11,,,74,127
83616,note_on,2,0,2,,,,,,,,,0,,,58,127
83616,note_on,2,0,4,,,,,,,,,4,,,58,75
83646,note_on,30,0,1,,,,,,,,,11,,,74,0
83648,note_on,2,0,1,,,,,,,,,11,,,72,127
83678,note_on,30,0,1,,,,,,,,,11,,,72,0
83680,note_on,2,0,1,,,,,,,,,11,,,70,127
83710,note_on,30,0,1,,,,,,,,,11,,,70,0
83710,note_on,94,0,4,,,,,,,,,4,,,58,0
83710,note_on,94,0,2,,,,,,,,,0,,,58,0
83712,note_on,2,0,2,,,,,,,,,0,,,57,127
83712,note_on,2,0,1,,,,,,,,,11,,,72,127
83712,note_on,2,0,4,,,,,,,,,4,,,57,75
83806,note_on,94,0,4,,,,,,,,,4,,,57,0
83806,note_on,94,0,2,,,,,,,,,0,,,57,0
83808,note_on,2,0,2,,,,,,,,,0,,,57,127
83808,note_on,2,0,4,,,,,,,,,4,,,57,75
83872,note_on,160,0,1,,,,,,,,,11,,,72,0
83902,note_on,94,0,4,,,,,,,,,4,,,57,0
83902,note_on,94,0,2,,,,,,,,,0,,,57,0
83904,note_on,2,0,2,,,,,,,,,0,,,56,127
83904,note_on,2,0,4,,,,,,,,,4,,,56,75
83936,note_on,64,0,1,,,,,,,,,11,,,68,127
83966,note_on,30,0,1,,,,,,,,,11,,,68,0
83968,note_on,2,0,1,,,,,,,,,11,,,70,127
83998,note_on,30,0,1,,,,,,,,,11,,,70,0
83998,note_on,94,0,4,,,,,,,,,4,,,56,0
83998,note_on,94,0,2,,,,,,,,,0,,,56,0
84000,note_on,2,0,4,,,,,,,,,4,,,56,75
84000,note_on,2,0,2,,,,,,,,,0,,,56,127
84000,note_on,2,0,1,,,,,,,,,11,,,72,127
84030,note_on,30,0,1,,,,,,,,,11,,,72,0
84032,note_on,2,0,1,,,,,,,,,11,,,74,127
84062,note_on,30,0,1,,,,,,,,,11,,,74,0
84064,note_on,2,0,1,,,,,,,,,11,,,75,127
84094,note_on,30,0,1,,,,,,,,,11,,,75,0
84094,note_on,94,0,4,,,,,,,,,4,,,56,0
84094,note_on,94,0,2,,,,,,,,,0,,,56,0
84096,note_on,2,0,4,,,,,,,,,4,,,65,75
84096,note_on,2,0,2,,,,,,,,,0,,,65,127
84096,note_on,2,0,1,,,,,,,,,11,,,77,127
84126,note_on,30,0,1,,,,,,,,,11,,,77,0
84128,note_on,2,0,1,,,,,,,,,11,,,75,127
84158,note_on,30,0,1,,,,,,,,,11,,,75,0
84160,note_on,2,0,1,,,,,,,,,11,,,74,127
84190,note_on,30,0,1,,,,,,,,,11,,,74,0
84190,note_on,94,0,2,,,,,,,,,0,,,65,0
84190,note_on,94,0,4,,,,,,,,,4,,,65,0
84192,note_on,2,0,2,,,,,,,,,0,,,56,127
84192,note_on,2,0,4,,,,,,,,,4,,,56,75
84192,note_on,2,0,1,,,,,,,,,11,,,75,127
84222,note_on,30,0,1,,,,,,,,,11,,,75,0
84224,note_on,2,0,1,,,,,,,,,11,,,74,127
84254,note_on,30,0,1,,,,,,,,,11,,,74,0
84256,note_on,2,0,1,,,,,,,,,11,,,72,127
84286,note_on,94,0,4,,,,,,,,,4,,,56,0
84286,note_on,30,0,1,,,,,,,,,11,,,72,0
84286,note_on,94,0,2,,,,,,,,,0,,,56,0
84288,note_on,2,0,1,,,,,,,,,11,,,71,127
84288,note_on,2,0,2,,,,,,,,,0,,,55,127
84288,note_on,2,0,4,,,,,,,,,4,,,55,75
84318,note_on,30,0,1,,,,,,,,,11,,,71,0
84320,note_on,2,0,1,,,,,,,,,11,,,67,127
84350,note_on,30,0,1,,,,,,,,,11,,,67,0
84352,note_on,2,0,1,,,,,,,,,11,,,69,127
84382,note_on,94,0,2,,,,,,,,,0,,,55,0
84382,note_on,30,0,1,,,,,,,,,11,,,69,0
84382,note_on,94,0,4,,,,,,,,,4,,,55,0
84384,note_on,2,0,1,,,,,,,,,11,,,71,127
84384,note_on,2,0,2,,,,,,,,,0,,,55,127
84384,note_on,2,0,4,,,,,,,,,4,,,55,75
84414,note_on,30,0,1,,,,,,,,,11,,,71,0
84416,note_on,2,0,1,,,,,,,,,11,,,71,127
84446,note_on,30,0,1,,,,,,,,,11,,,71,0
84448,note_on,2,0,1,,,,,,,,,11,,,72,127
84478,note_on,94,0,4,,,,,,,,,4,,,55,0
84478,note_on,30,0,1,,,,,,,,,11,,,72,0
84478,note_on,94,0,2,,,,,,,,,0,,,55,0
84480,note_on,2,0,2,,,,,,,,,0,,,55,127
84480,note_on,2,0,1,,,,,,,,,11,,,74,127
84480,note_on,2,0,4,,,,,,,,,4,,,55,75
84510,note_on,30,0,1,,,,,,,,,11,,,74,0
84512,note_on,2,0,1,,,,,,,,,11,,,74,127
84542,note_on,30,0,1,,,,,,,,,11,,,74,0
84544,note_on,2,0,1,,,,,,,,,11,,,75,127
84574,note_on,30,0,1,,,,,,,,,11,,,75,0
84574,note_on,94,0,4,,,,,,,,,4,,,55,0
84574,note_on,94,0,2,,,,,,,,,0,,,55,0
84576,note_on,2,0,1,,,,,,,,,11,,,77,127
84576,note_on,2,0,2,,,,,,,,,0,,,55,127
84576,note_on,2,0,4,,,,,,,,,4,,,55,75
84606,note_on,30,0,1,,,,,,,,,11,,,77,0
84608,note_on,2,0,1,,,,,,,,,11,,,77,127
84638,note_on,30,0,1,,,,,,,,,11,,,77,0
84640,note_on,2,0,1,,,,,,,,,11,,,79,127
84670,note_on,94,0,4,,,,,,,,,4,,,55,0
84670,note_on,30,0,1,,,,,,,,,11,,,79,0
84670,note_on,94,0,2,,,,,,,,,0,,,55,0
84672,note_on,2,0,2,,,,,,,,,0,,,65,127
84672,note_on,2,0,4,,,,,,,,,4,,,65,75
84672,note_on,2,0,1,,,,,,,,,11,,,80,127
84702,note_on,30,0,1,,,,,,,,,11,,,80,0
84704,note_on,2,0,1,,,,,,,,,11,,,79,127
84734,note_on,30,0,1,,,,,,,,,11,,,79,0
84736,note_on,2,0,1,,,,,,,,,11,,,77,127
84766,note_on,30,0,1,,,,,,,,,11,,,77,0
84766,note_on,94,0,4,,,,,,,,,4,,,65,0
84766,note_on,94,0,2,,,,,,,,,0,,,65,0
84768,note_on,2,0,2,,,,,,,,,0,,,59,127
84768,note_on,2,0,4,,,,,,,,,4,,,59,75
84768,note_on,2,0,1,,,,,,,,,11,,,77,127
84798,note_on,30,0,1,,,,,,,,,11,,,77,0
84800,note_on,2,0,1,,,,,,,,,11,,,75,127
84830,note_on,30,0,1,,,,,,,,,11,,,75,0
84832,note_on,2,0,1,,,,,,,,,11,,,74,127
84862,note_on,94,0,2,,,,,,,,,0,,,59,0
84862,note_on,94,0,4,,,,,,,,,4,,,59,0
84862,note_on,30,0,1,,,,,,,,,11,,,74,0
84864,note_on,2,0,1,,,,,,,,,11,,,75,127
84864,note_on,2,0,4,,,,,,,,,4,,,60,75
84864,note_on,2,0,2,,,,,,,,,0,,,60,127
84958,note_on,94,0,2,,,,,,,,,0,,,60,0
84958,note_on,94,0,4,,,,,,,,,4,,,60,0
84960,note_on,2,0,2,,,,,,,,,0,,,60,127
84960,note_on,2,0,4,,,,,,,,,4,,,60,75
85024,note_on,160,0,1,,,,,,,,,11,,,75,0
85054,note_on,94,0,2,,,,,,,,,0,,,60,0
85054,note_on,94,0,4,,,,,,,,,4,,,60,0
85056,note_on,2,0,4,,,,,,,,,4,,,60,75
85056,note_on,2,0,2,,,,,,,,,0,,,60,127
85104,note_on,80,0,1,,,,,,,,,11,,,72,127
85150,note_on,94,0,4,,,,,,,,,4,,,60,0
85150,note_on,46,0,1,,,,,,,,,11,,,72,0
85150,note_on,94,0,2,,,,,,,,,0,,,60,0
85152,note_on,2,0,2,,,,,,,,,0,,,60,127
85152,note_on,2,0,1,,,,,,,,,11,,,75,127
85152,note_on,2,0,4,,,,,,,,,4,,,60,75
85198,note_on,46,0,1,,,,,,,,,11,,,75,0
85200,note_on,2,0,1,,,,,,,,,11,,,79,127
85246,note_on,94,0,2,,,,,,,,,0,,,60,0
85246,note_on,94,0,4,,,,,,,,,4,,,60,0
85246,note_on,46,0,1,,,,,,,,,11,,,79,0
85248,note_on,2,0,2,,,,,,,,,0,,,72,127
85248,note_on,2,0,1,,,,,,,,,11,,,79,127
85248,note_on,2,0,4,,,,,,,,,4,,,72,75
85294,note_on,46,0,1,,,,,,,,,11,,,79,0
85296,note_on,2,0,1,,,,,,,,,11,,,75,127
85342,note_on,46,0,1,,,,,,,,,11,,,75,0
85342,note_on,94,0,4,,,,,,,,,4,,,72,0
85342,note_on,94,0,2,,,,,,,,,0,,,72,0
85344,note_on,2,0,1,,,,,,,,,11,,,74,127
85344,note_on,2,0,2,,,,,,,,,0,,,60,127
85344,note_on,2,0,4,,,,,,,,,4,,,60,75
85390,note_on,46,0,1,,,,,,,,,11,,,74,0
85392,note_on,2,0,1,,,,,,,,,11,,,72,127
85438,note_on,94,0,2,,,,,,,,,0,,,60,0
85438,note_on,94,0,4,,,,,,,,,4,,,60,0
85438,note_on,46,0,1,,,,,,,,,11,,,72,0
85440,note_on,2,0,1,,,,,,,,,11,,,78,127
85440,note_on,2,0,4,,,,,,,,,4,,,62,75
85440,note_on,2,0,2,,,,,,,,,0,,,62,127
85486,note_on,46,0,1,,,,,,,,,11,,,78,0
85488,note_on,2,0,1,,,,,,,,,11,,,79,127
85534,note_on,94,0,2,,,,,,,,,0,,,62,0
85534,note_on,46,0,1,,,,,,,,,11,,,79,0
85534,note_on,94,0,4,,,,,,,,,4,,,62,0
85536,note_on,2,0,1,,,,,,,,,11,,,81,127
85536,note_on,2,0,2,,,,,,,,,0,,,62,127
85536,note_on,2,0,4,,,,,,,,,4,,,62,75
85582,note_on,46,0,1,,,,,,,,,11,,,81,0
85584,note_on,2,0,1,,,,,,,,,11,,,79,127
85630,note_on,94,0,4,,,,,,,,,4,,,62,0
85630,note_on,94,0,2,,,,,,,,,0,,,62,0
85630,note_on,46,0,1,,,,,,,,,11,,,79,0
85632,note_on,2,0,4,,,,,,,,,4,,,62,75
85632,note_on,2,0,2,,,,,,,,,0,,,62,127
85632,note_on,2,0,1,,,,,,,,,11,,,78,127
85678,note_on,46,0,1,,,,,,,,,11,,,78,0
85680,note_on,2,0,1,,,,,,,,,11,,,79,127
85726,note_on,94,0,4,,,,,,,,,4,,,62,0
85726,note_on,46,0,1,,,,,,,,,11,,,79,0
85726,note_on,94,0,2,,,,,,,,,0,,,62,0
85728,note_on,2,0,2,,,,,,,,,0,,,62,127
85728,note_on,2,0,4,,,,,,,,,4,,,62,75
85728,note_on,2,0,1,,,,,,,,,11,,,81,127
85774,note_on,46,0,1,,,,,,,,,11,,,81,0
85776,note_on,2,0,1,,,,,,,,,11,,,79,127
85822,note_on,94,0,4,,,,,,,,,4,,,62,0
85822,note_on,46,0,1,,,,,,,,,11,,,79,0
85822,note_on,94,0,2,,,,,,,,,0,,,62,0
85824,note_on,2,0,4,,,,,,,,,4,,,74,75
85824,note_on,2,0,1,,,,,,,,,11,,,78,127
85824,note_on,2,0,2,,,,,,,,,0,,,74,127
85870,note_on,46,0,1,,,,,,,,,11,,,78,0
85872,note_on,2,0,1,,,,,,,,,11,,,76,127
85918,note_on,46,0,1,,,,,,,,,11,,,76,0
85918,note_on,94,0,2,,,,,,,,,0,,,74,0
85918,note_on,94,0,4,,,,,,,,,4,,,74,0
85920,note_on,2,0,1,,,,,,,,,11,,,74,127
85920,note_on,2,0,2,,,,,,,,,0,,,62,127
85920,note_on,2,0,4,,,,,,,,,4,,,62,75
85966,note_on,46,0,1,,,,,,,,,11,,,74,0
85968,note_on,2,0,1,,,,,,,,,11,,,72,127
86014,note_on,94,0,4,,,,,,,,,4,,,62,0
86014,note_on,46,0,1,,,,,,,,,11,,,72,0
86014,note_on,94,0,2,,,,,,,,,0,,,62,0
86016,note_on,2,0,2,,,,,,,,,0,,,67,127
86016,note_on,2,0,4,,,,,,,,,4,,,67,75
86016,note_on,2,0,1,,,,,,,,,11,,,70,127
86062,note_on,46,0,1,,,,,,,,,11,,,70,0
86064,note_on,2,0,1,,,,,,,,,11,,,69,127
86110,note_on,94,0,4,,,,,,,,,4,,,67,0
86110,note_on,94,0,2,,,,,,,,,0,,,67,0
86110,note_on,46,0,1,,,,,,,,,11,,,69,0
86112,note_on,2,0,1,,,,,,,,,11,,,67,127
86112,note_on,2,0,2,,,,,,,,,0,,,67,127
86112,note_on,2,0,4,,,,,,,,,4,,,67,75
86206,note_on,94,0,1,,,,,,,,,11,,,67,0
86206,note_on,94,0,4,,,,,,,,,4,,,67,0
86206,note_on,94,0,2,,,,,,,,,0,,,67,0
86208,note_on,2,0,4,,,,,,,,,4,,,67,75
86208,note_on,2,0,2,,,,,,,,,0,,,67,127
86302,note_on,94,0,4,,,,,,,,,4,,,67,0
86302,note_on,94,0,2,,,,,,,,,0,,,67,0
86304,note_on,2,0,4,,,,,,,,,4,,,67,75
86304,note_on,98,0,1,,,,,,,,,11,,,74,127
86304,note_on,2,0,2,,,,,,,,,0,,,67,127
86398,note_on,94,0,1,,,,,,,,,11,,,74,0
86398,note_on,94,0,2,,,,,,,,,0,,,67,0
86398,note_on,94,0,4,,,,,,,,,4,,,67,0
86400,note_on,2,0,2,,,,,,,,,0,,,75,127
86400,note_on,2,0,4,,,,,,,,,4,,,75,75
86400,note_on,2,0,1,,,,,,,,,11,,,79,127
86430,note_on,30,0,1,,,,,,,,,11,,,79,0
86432,note_on,2,0,1,,,,,,,,,11,,,81,127
86462,note_on,30,0,1,,,,,,,,,11,,,81,0
86464,note_on,2,0,1,,,,,,,,,11,,,82,127
86494,note_on,30,0,1,,,,,,,,,11,,,82,0
86494,note_on,94,0,4,,,,,,,,,4,,,75,0
86494,note_on,94,0,2,,,,,,,,,0,,,75,0
86496,note_on,2,0,4,,,,,,,,,4,,,67,75
86496,note_on,2,0,2,,,,,,,,,0,,,67,127
86496,note_on,2,0,1,,,,,,,,,11,,,82,127
86526,note_on,30,0,1,,,,,,,,,11,,,82,0
86528,note_on,2,0,1,,,,,,,,,11,,,81,127
86558,note_on,30,0,1,,,,,,,,,11,,,81,0
86560,note_on,2,0,1,,,,,,,,,11,,,79,127
86590,note_on,94,0,2,,,,,,,,,0,,,67,0
86590,note_on,94,0,4,,,,,,,,,4,,,67,0
86590,note_on,30,0,1,,,,,,,,,11,,,79,0
86592,note_on,2,0,1,,,,,,,,,11,,,81,127
86592,note_on,2,0,4,,,,,,,,,4,,,66,75
86592,note_on,2,0,2,,,,,,,,,0,,,66,127
86686,note_on,94,0,4,,,,,,,,,4,,,66,0
86686,note_on,94,0,2,,,,,,,,,0,,,66,0
86686,note_on,94,0,1,,,,,,,,,11,,,81,0
86688,note_on,2,0,4,,,,,,,,,4,,,66,75
86688,note_on,2,0,1,,,,,,,,,11,,,75,127
86688,note_on,2,0,2,,,,,,,,,0,,,66,127
86782,note_on,94,0,1,,,,,,,,,11,,,75,0
86782,note_on,94,0,4,,,,,,,,,4,,,66,0
86782,note_on,94,0,2,,,,,,,,,0,,,66,0
86784,note_on,2,0,1,,,,,,,,,11,,,74,127
86784,note_on,2,0,4,,,,,,,,,4,,,65,75
86784,note_on,2,0,2,,,,,,,,,0,,,65,127
86878,note_on,94,0,1,,,,,,,,,11,,,74,0
86878,note_on,94,0,4,,,,,,,,,4,,,65,0
86878,note_on,94,0,2,,,,,,,,,0,,,65,0
86880,note_on,2,0,1,,,,,,,,,11,,,77,127
86880,note_on,2,0,2,,,,,,,,,0,,,65,127
86880,note_on,2,0,4,,,,,,,,,4,,,65,75
86974,note_on,94,0,2,,,,,,,,,0,,,65,0
86974,note_on,94,0,4,,,,,,,,,4,,,65,0
86974,note_on,94,0,1,,,,,,,,,11,,,77,0
86976,note_on,2,0,1,,,,,,,,,11,,,79,127
86976,note_on,2,0,4,,,,,,,,,4,,,74,75
86976,note_on,2,0,2,,,,,,,,,0,,,74,127
87070,note_on,94,0,2,,,,,,,,,0,,,74,0
87070,note_on,94,0,1,,,,,,,,,11,,,79,0
87070,note_on,94,0,4,,,,,,,,,4,,,74,0
87072,note_on,2,0,1,,,,,,,,,11,,,80,127
87072,note_on,2,0,2,,,,,,,,,0,,,65,127
87072,note_on,2,0,4,,,,,,,,,4,,,65,75
87166,note_on,94,0,4,,,,,,,,,4,,,65,0
87166,note_on,94,0,1,,,,,,,,,11,,,80,0
87166,note_on,94,0,2,,,,,,,,,0,,,65,0
87168,note_on,2,0,4,,,,,,,,,4,,,64,75
87168,note_on,2,0,1,,,,,,,,,11,,,79,127
87168,note_on,2,0,2,,,,,,,,,0,,,64,127
87262,note_on,94,0,1,,,,,,,,,11,,,79,0
87262,note_on,94,0,2,,,,,,,,,0,,,64,0
87262,note_on,94,0,4,,,,,,,,,4,,,64,0
87264,note_on,2,0,2,,,,,,,,,0,,,64,127
87264,note_on,2,0,1,,,,,,,,,11,,,75,127
87264,note_on,2,0,4,,,,,,,,,4,,,64,75
87358,note_on,94,0,1,,,,,,,,,11,,,75,0
87358,note_on,94,0,4,,,,,,,,,4,,,64,0
87358,note_on,94,0,2,,,,,,,,,0,,,64,0
87360,note_on,2,0,1,,,,,,,,,11,,,72,127
87360,note_on,2,0,4,,,,,,,,,4,,,63,75
87360,note_on,2,0,2,,,,,,,,,0,,,63,127
87454,note_on,94,0,1,,,,,,,,,11,,,72,0
87454,note_on,94,0,4,,,,,,,,,4,,,63,0
87454,note_on,94,0,2,,,,,,,,,0,,,63,0
87456,note_on,2,0,2,,,,,,,,,0,,,63,127
87456,note_on,2,0,4,,,,,,,,,4,,,63,75
87456,note_on,2,0,1,,,,,,,,,11,,,75,127
87550,note_on,94,0,1,,,,,,,,,11,,,75,0
87550,note_on,94,0,2,,,,,,,,,0,,,63,0
87550,note_on,94,0,4,,,,,,,,,4,,,63,0
87552,note_on,2,0,2,,,,,,,,,0,,,72,127
87552,note_on,2,0,1,,,,,,,,,11,,,78,127
87552,note_on,2,0,4,,,,,,,,,4,,,72,75
87646,note_on,94,0,1,,,,,,,,,11,,,78,0
87646,note_on,94,0,2,,,,,,,,,0,,,72,0
87646,note_on,94,0,4,,,,,,,,,4,,,72,0
87648,note_on,2,0,1,,,,,,,,,11,,,79,127
87648,note_on,2,0,2,,,,,,,,,0,,,63,127
87648,note_on,2,0,4,,,,,,,,,4,,,63,75
87742,note_on,94,0,4,,,,,,,,,4,,,63,0
87742,note_on,94,0,2,,,,,,,,,0,,,63,0
87742,note_on,94,0,1,,,,,,,,,11,,,79,0
87744,note_on,2,0,2,,,,,,,,,0,,,62,127
87744,note_on,2,0,1,,,,,,,,,11,,,78,127
87744,note_on,2,0,4,,,,,,,,,4,,,62,75
87790,note_on,46,0,1,,,,,,,,,11,,,78,0
87792,note_on,2,0,1,,,,,,,,,11,,,79,127
87838,note_on,94,0,4,,,,,,,,,4,,,62,0
87838,note_on,46,0,1,,,,,,,,,11,,,79,0
87838,note_on,94,0,2,,,,,,,,,0,,,62,0
87840,note_on,2,0,1,,,,,,,,,11,,,81,127
87840,note_on,2,0,4,,,,,,,,,4,,,62,75
87840,note_on,2,0,2,,,,,,,,,0,,,62,127
87934,note_on,94,0,1,,,,,,,,,11,,,81,0
87934,note_on,94,0,2,,,,,,,,,0,,,62,0
87934,note_on,94,0,4,,,,,,,,,4,,,62,0
87936,note_on,2,0,4,,,,,,,,,4,,,62,75
87936,note_on,2,0,1,,,,,,,,,11,,,72,127
87936,note_on,2,0,2,,,,,,,,,0,,,62,127
87982,note_on,46,0,1,,,,,,,,,11,,,72,0
87984,note_on,2,0,1,,,,,,,,,11,,,74,127
88030,note_on,94,0,4,,,,,,,,,4,,,62,0
88030,note_on,46,0,1,,,,,,,,,11,,,74,0
88030,note_on,94,0,2,,,,,,,,,0,,,62,0
88032,note_on,2,0,2,,,,,,,,,0,,,62,127
88032,note_on,2,0,1,,,,,,,,,11,,,75,127
88032,note_on,2,0,4,,,,,,,,,4,,,62,75
88126,note_on,94,0,1,,,,,,,,,11,,,75,0
88126,note_on,94,0,4,,,,,,,,,4,,,62,0
88126,note_on,94,0,2,,,,,,,,,0,,,62,0
88128,note_on,2,0,4,,,,,,,,,4,,,66,75
88128,note_on,2,0,2,,,,,,,,,0,,,66,127
88128,note_on,2,0,1,,,,,,,,,11,,,69,127
88174,note_on,46,0,1,,,,,,,,,11,,,69,0
88176,note_on,2,0,1,,,,,,,,,11,,,70,127
88222,note_on,94,0,2,,,,,,,,,0,,,66,0
88222,note_on,94,0,4,,,,,,,,,4,,,66,0
88222,note_on,46,0,1,,,,,,,,,11,,,70,0
88224,note_on,2,0,4,,,,,,,,,4,,,62,75
88224,note_on,2,0,1,,,,,,,,,11,,,72,127
88224,note_on,2,0,2,,,,,,,,,0,,,62,127
88318,note_on,94,0,4,,,,,,,,,4,,,62,0
88318,note_on,94,0,1,,,,,,,,,11,,,72,0
88318,note_on,94,0,2,,,,,,,,,0,,,62,0
88320,note_on,2,0,1,,,,,,,,,11,,,70,127
88320,note_on,2,0,2,,,,,,,,,0,,,55,127
88320,note_on,2,0,4,,,,,,,,,4,,,55,75
88366,note_on,46,0,1,,,,,,,,,11,,,70,0
88368,note_on,2,0,1,,,,,,,,,11,,,74,127
88414,note_on,94,0,2,,,,,,,,,0,,,55,0
88414,note_on,94,0,4,,,,,,,,,4,,,55,0
88414,note_on,46,0,1,,,,,,,,,11,,,74,0
88416,note_on,2,0,2,,,,,,,,,0,,,55,127
88416,note_on,2,0,1,,,,,,,,,11,,,72,127
88416,note_on,2,0,4,,,,,,,,,4,,,55,75
88462,note_on,46,0,1,,,,,,,,,11,,,72,0
88464,note_on,2,0,1,,,,,,,,,11,,,70,127
88510,note_on,94,0,2,,,,,,,,,0,,,55,0
88510,note_on,46,0,1,,,,,,,,,11,,,70,0
88510,note_on,94,0,4,,,,,,,,,4,,,55,0
88512,note_on,2,0,1,,,,,,,,,11,,,82,127
88512,note_on,2,0,2,,,,,,,,,0,,,67,127
88512,note_on,2,0,4,,,,,,,,,4,,,67,75
88558,note_on,46,0,1,,,,,,,,,11,,,82,0
88560,note_on,2,0,1,,,,,,,,,11,,,81,127
88606,note_on,94,0,2,,,,,,,,,0,,,67,0
88606,note_on,94,0,4,,,,,,,,,4,,,67,0
88606,note_on,46,0,1,,,,,,,,,11,,,81,0
88608,note_on,2,0,4,,,,,,,,,4,,,55,75
88608,note_on,2,0,1,,,,,,,,,11,,,79,127
88608,note_on,2,0,2,,,,,,,,,0,,,55,127
88654,note_on,46,0,1,,,,,,,,,11,,,79,0
88656,note_on,2,0,1,,,,,,,,,11,,,82,127
88702,note_on,46,0,1,,,,,,,,,11,,,82,0
88702,note_on,94,0,2,,,,,,,,,0,,,55,0
88702,note_on,94,0,4,,,,,,,,,4,,,55,0
88704,note_on,2,0,2,,,,,,,,,0,,,62,127
88704,note_on,2,0,1,,,,,,,,,11,,,81,127
88704,note_on,2,0,4,,,,,,,,,4,,,62,75
88750,note_on,46,0,1,,,,,,,,,11,,,81,0
88752,note_on,2,0,1,,,,,,,,,11,,,79,127
88798,note_on,94,0,2,,,,,,,,,0,,,62,0
88798,note_on,46,0,1,,,,,,,,,11,,,79,0
88798,note_on,94,0,4,,,,,,,,,4,,,62,0
88800,note_on,2,0,1,,,,,,,,,11,,,78,127
88800,note_on,2,0,2,,,,,,,,,0,,,62,127
88800,note_on,2,0,4,,,,,,,,,4,,,50,75
88846,note_on,46,0,1,,,,,,,,,11,,,78,0
88848,note_on,2,0,1,,,,,,,,,11,,,81,127
88894,note_on,46,0,1,,,,,,,,,11,,,81,0
88894,note_on,94,0,4,,,,,,,,,4,,,50,0
88894,note_on,94,0,2,,,,,,,,,0,,,62,0
88896,note_on,2,0,4,,,,,,,,,4,,,67,75
88896,note_on,2,0,1,,,,,,,,,11,,,79,127
88896,note_on,2,0,2,,,,,,,,,0,,,67,127
88990,note_on,94,0,4,,,,,,,,,4,,,67,0
88990,note_on,94,0,2,,,,,,,,,0,,,67,0
88992,note_on,2,0,4,,,,,,,,,4,,,67,75
88992,note_on,2,0,2,,,,,,,,,0,,,67,127
89056,note_on,160,0,1,,,,,,,,,11,,,79,0
89086,note_on,94,0,4,,,,,,,,,4,,,67,0
89086,note_on,94,0,2,,,,,,,,,0,,,67,0
89088,note_on,2,0,4,,,,,,,,,4,,,67,75
89088,note_on,2,0,2,,,,,,,,,0,,,67,127
89182,note_on,94,0,4,,,,,,,,,4,,,67,0
89182,note_on,94,0,2,,,,,,,,,0,,,67,0
89184,note_on,2,0,4,,,,,,,,,4,,,67,75
89184,note_on,2,0,2,,,,,,,,,0,,,67,127
89278,note_on,94,0,2,,,,,,,,,0,,,67,0
89278,note_on,94,0,4,,,,,,,,,4,,,67,0
89280,note_on,2,0,2,,,,,,,,,0,,,75,127
89280,note_on,2,0,4,,,,,,,,,4,,,75,75
89374,note_on,94,0,4,,,,,,,,,4,,,75,0
89374,note_on,94,0,2,,,,,,,,,0,,,75,0
89376,note_on,2,0,2,,,,,,,,,0,,,67,127
89376,note_on,2,0,4,,,,,,,,,4,,,67,75
89470,note_on,94,0,4,,,,,,,,,4,,,67,0
89470,note_on,94,0,2,,,,,,,,,0,,,67,0
89472,note_on,2,0,2,,,,,,,,,0,,,66,127
89472,note_on,2,0,4,,,,,,,,,4,,,66,75
89566,note_on,94,0,2,,,,,,,,,0,,,66,0
89566,note_on,94,0,4,,,,,,,,,4,,,66,0
89568,note_on,2,0,2,,,,,,,,,0,,,66,127
89568,note_on,2,0,4,,,,,,,,,4,,,66,75
89662,note_on,94,0,4,,,,,,,,,4,,,66,0
89662,note_on,94,0,2,,,,,,,,,0,,,66,0
89664,note_on,2,0,4,,,,,,,,,4,,,65,75
89664,note_on,2,0,2,,,,,,,,,0,,,65,127
89758,note_on,94,0,2,,,,,,,,,0,,,65,0
89758,note_on,94,0,4,,,,,,,,,4,,,65,0
89760,note_on,2,0,4,,,,,,,,,4,,,65,75
89760,note_on,2,0,2,,,,,,,,,0,,,65,127
89854,note_on,94,0,4,,,,,,,,,4,,,65,0
89854,note_on,94,0,2,,,,,,,,,0,,,65,0
89856,note_on,2,0,2,,,,,,,,,0,,,74,127
89856,note_on,2,0,4,,,,,,,,,4,,,74,75
89950,note_on,94,0,4,,,,,,,,,4,,,74,0
89950,note_on,94,0,2,,,,,,,,,0,,,74,0
89952,note_on,2,0,2,,,,,,,,,0,,,65,127
89952,note_on,2,0,4,,,,,,,,,4,,,65,75
90046,note_on,94,0,4,,,,,,,,,4,,,65,0
90046,note_on,94,0,2,,,,,,,,,0,,,65,0
90048,note_on,2,0,2,,,,,,,,,0,,,64,127
90048,note_on,2,0,4,,,,,,,,,4,,,64,75
90142,note_on,94,0,4,,,,,,,,,4,,,64,0
90142,note_on,94,0,2,,,,,,,,,0,,,64,0
90144,note_on,2,0,4,,,,,,,,,4,,,64,75
90144,note_on,2,0,2,,,,,,,,,0,,,64,127
90238,note_on,94,0,2,,,,,,,,,0,,,64,0
90238,note_on,94,0,4,,,,,,,,,4,,,64,0
90240,note_on,2,0,2,,,,,,,,,0,,,63,127
90240,note_on,2,0,4,,,,,,,,,4,,,63,75
90334,note_on,94,0,4,,,,,,,,,4,,,63,0
90334,note_on,94,0,2,,,,,,,,,0,,,63,0
90336,note_on,2,0,4,,,,,,,,,4,,,63,75
90336,note_on,2,0,2,,,,,,,,,0,,,63,127
90430,note_on,94,0,4,,,,,,,,,4,,,63,0
90430,note_on,94,0,2,,,,,,,,,0,,,63,0
90432,note_on,2,0,2,,,,,,,,,0,,,72,127
90432,note_on,2,0,4,,,,,,,,,4,,,72,75
90526,note_on,94,0,4,,,,,,,,,4,,,72,0
90526,note_on,94,0,2,,,,,,,,,0,,,72,0
90528,note_on,2,0,4,,,,,,,,,4,,,63,75
90528,note_on,2,0,2,,,,,,,,,0,,,63,127
90622,note_on,94,0,4,,,,,,,,,4,,,63,0
90622,note_on,94,0,2,,,,,,,,,0,,,63,0
90624,note_on,2,0,2,,,,,,,,,0,,,62,127
90624,note_on,2,0,4,,,,,,,,,4,,,62,75
90718,note_on,94,0,4,,,,,,,,,4,,,62,0
90718,note_on,94,0,2,,,,,,,,,0,,,62,0
90720,note_on,2,0,2,,,,,,,,,0,,,62,127
90720,note_on,2,0,4,,,,,,,,,4,,,62,75
90814,note_on,94,0,2,,,,,,,,,0,,,62,0
90814,note_on,94,0,4,,,,,,,,,4,,,62,0
90816,note_on,2,0,2,,,,,,,,,0,,,62,127
90816,note_on,2,0,4,,,,,,,,,4,,,62,75
90910,note_on,94,0,4,,,,,,,,,4,,,62,0
90910,note_on,94,0,2,,,,,,,,,0,,,62,0
90912,note_on,2,0,2,,,,,,,,,0,,,62,127
90912,note_on,2,0,4,,,,,,,,,4,,,62,75
91006,note_on,94,0,4,,,,,,,,,4,,,62,0
91006,note_on,94,0,2,,,,,,,,,0,,,62,0
91008,note_on,2,0,4,,,,,,,,,4,,,72,75
91008,note_on,2,0,2,,,,,,,,,0,,,72,127
91102,note_on,94,0,2,,,,,,,,,0,,,72,0
91102,note_on,94,0,4,,,,,,,,,4,,,72,0
91104,note_on,2,0,2,,,,,,,,,0,,,62,127
91104,note_on,2,0,4,,,,,,,,,4,,,62,75
91198,note_on,94,0,2,,,,,,,,,0,,,62,0
91198,note_on,94,0,4,,,,,,,,,4,,,62,0
91200,note_on,2,0,2,,,,,,,,,0,,,67,127
91200,note_on,2,0,4,,,,,,,,,4,,,67,75
91294,note_on,94,0,2,,,,,,,,,0,,,67,0
91294,note_on,94,0,4,,,,,,,,,4,,,67,0
91296,note_on,2,0,4,,,,,,,,,4,,,58,75
91296,note_on,2,0,2,,,,,,,,,0,,,58,127
91390,note_on,94,0,4,,,,,,,,,4,,,58,0
91390,note_on,94,0,2,,,,,,,,,0,,,58,0
91392,note_on,2,0,2,,,,,,,,,0,,,60,127
91392,note_on,2,0,4,,,,,,,,,4,,,60,75
91486,note_on,94,0,2,,,,,,,,,0,,,60,0
91486,note_on,94,0,4,,,,,,,,,4,,,60,0
91488,note_on,2,0,4,,,,,,,,,4,,,57,75
91488,note_on,2,0,2,,,,,,,,,0,,,57,127
91582,note_on,94,0,4,,,,,,,,,4,,,57,0
91582,note_on,94,0,2,,,,,,,,,0,,,57,0
91584,note_on,2,0,4,,,,,,,,,4,,,62,75
91584,note_on,2,0,2,,,,,,,,,0,,,62,127
91678,note_on,94,0,4,,,,,,,,,4,,,62,0
91678,note_on,94,0,2,,,,,,,,,0,,,62,0
91680,note_on,2,0,4,,,,,,,,,4,,,50,75
91680,note_on,2,0,2,,,,,,,,,0,,,62,127
91774,note_on,94,0,4,,,,,,,,,4,,,50,0
91774,note_on,94,0,2,,,,,,,,,0,,,62,0
91776,note_on,2,0,4,,,,,,,,,4,,,55,75
91776,note_on,2,0,2,,,,,,,,,0,,,55,127
92304,note_on,528,0,2,,,,,,,,,0,,,55,0
92304,note_on,528,0,4,,,,,,,,,4,,,55,0
92352,control_change,48,0,2,,,,,,,,,0,10,0,,
92352,time_signature,0,1,2,,,3,8,24,8,,,,,,,
92352,time_signature,25920,1,5,,,3,8,24,8,,,,,,,
92352,control_change,0,0,1,,,,,,,,,11,10,127,,
92352,control_change,25920,0,3,,,,,,,,,2,10,127,,
92352,time_signature,48,1,4,,,3,8,24,8,,,,,,,
92352,time_signature,0,1,0,,,3,8,24,8,,,,,,,
92352,set_tempo,25344,1,0,600000,,,,,,,,,,,,
92352,time_signature,25920,1,6,,,3,8,24,8,,,,,,,
92352,time_signature,3296,1,1,,,3,8,24,8,,,,,,,
92352,time_signature,0,1,3,,,3,8,24,8,,,,,,,
93024,program_change,672,0,1,,,,,,,,40,11,,,,
93024,program_change,672,0,3,,,,,,,,48,2,,,,
93024,program_change,672,0,6,,,,,,,,48,8,,,,
93024,program_change,672,0,5,,,,,,,,48,6,,,,
93024,program_change,672,0,2,,,,,,,,48,0,,,,
93024,program_change,672,0,4,,,,,,,,48,4,,,,
93504,note_on,480,0,6,,,,,,,,,8,,,31,75
93504,control_change,480,0,2,,,,,,,,,0,10,0,,
93504,note_on,0,0,2,,,,,,,,,0,,,74,127
93504,note_on,0,0,4,,,,,,,,,4,,,67,75
93504,note_on,480,0,5,,,,,,,,,6,,,43,75
93504,note_on,0,0,3,,,,,,,,,2,,,70,127
93504,control_change,480,0,3,,,,,,,,,2,10,127,,
93504,note_on,0,0,1,,,,,,,,,11,,,74,127
93504,control_change,480,0,1,,,,,,,,,11,10,127,,
93504,control_change,480,0,4,,,,,,,,,4,10,64,,
93598,note_on,94,0,2,,,,,,,,,0,,,74,0
93598,note_on,94,0,3,,,,,,,,,2,,,70,0
93598,note_on,94,0,5,,,,,,,,,6,,,43,0
93598,note_on,94,0,6,,,,,,,,,8,,,31,0
93598,note_on,94,0,1,,,,,,,,,11,,,74,0
93600,note_on,2,0,3,,,,,,,,,2,,,70,127
93600,note_on,2,0,6,,,,,,,,,8,,,43,75
93600,note_on,2,0,1,,,,,,,,,11,,,74,127
93600,note_on,2,0,2,,,,,,,,,0,,,74,127
93600,note_on,2,0,5,,,,,,,,,6,,,55,75
93664,note_on,160,0,4,,,,,,,,,4,,,67,0
93694,note_on,94,0,2,,,,,,,,,0,,,74,0
93694,note_on,94,0,5,,,,,,,,,6,,,55,0
93694,note_on,94,0,6,,,,,,,,,8,,,43,0
93694,note_on,94,0,1,,,,,,,,,11,,,74,0
93694,note_on,94,0,3,,,,,,,,,2,,,70,0
93696,note_on,32,0,4,,,,,,,,,4,,,67,75
93696,note_on,2,0,5,,,,,,,,,6,,,48,75
93696,note_on,2,0,6,,,,,,,,,8,,,36,75
93696,note_on,2,0,3,,,,,,,,,2,,,72,127
93696,note_on,2,0,1,,,,,,,,,11,,,75,127
93696,note_on,2,0,2,,,,,,,,,0,,,75,127
93790,note_on,94,0,6,,,,,,,,,8,,,36,0
93790,note_on,94,0,1,,,,,,,,,11,,,75,0
93790,note_on,94,0,2,,,,,,,,,0,,,75,0
93790,note_on,94,0,3,,,,,,,,,2,,,72,0
93790,note_on,94,0,5,,,,,,,,,6,,,48,0
93790,note_on,94,0,4,,,,,,,,,4,,,67,0
93792,note_on,2,0,3,,,,,,,,,2,,,70,127
93792,note_on,2,0,6,,,,,,,,,8,,,31,75
93792,note_on,2,0,1,,,,,,,,,11,,,74,127
93792,note_on,2,0,5,,,,,,,,,6,,,43,75
93792,note_on,2,0,2,,,,,,,,,0,,,74,127
93792,note_on,2,0,4,,,,,,,,,4,,,67,75
93886,note_on,94,0,1,,,,,,,,,11,,,74,0
93886,note_on,94,0,3,,,,,,,,,2,,,70,0
93886,note_on,94,0,2,,,,,,,,,0,,,74,0
93886,note_on,94,0,6,,,,,,,,,8,,,31,0
93886,note_on,94,0,5,,,,,,,,,6,,,43,0
93888,note_on,2,0,1,,,,,,,,,11,,,74,127
93888,note_on,2,0,3,,,,,,,,,2,,,70,127
93888,note_on,2,0,5,,,,,,,,,6,,,55,75
93888,note_on,2,0,2,,,,,,,,,0,,,74,127
93888,note_on,2,0,6,,,,,,,,,8,,,43,75
93952,note_on,160,0,4,,,,,,,,,4,,,67,0
93982,note_on,94,0,6,,,,,,,,,8,,,43,0
93982,note_on,94,0,1,,,,,,,,,11,,,74,0
93982,note_on,94,0,2,,,,,,,,,0,,,74,0
93982,note_on,94,0,3,,,,,,,,,2,,,70,0
93982,note_on,94,0,5,,,,,,,,,6,,,55,0
93984,note_on,32,0,4,,,,,,,,,4,,,67,75
93984,note_on,2,0,5,,,,,,,,,6,,,48,75
93984,note_on,2,0,6,,,,,,,,,8,,,36,75
93984,note_on,2,0,2,,,,,,,,,0,,,75,127
93984,note_on,2,0,3,,,,,,,,,2,,,72,127
93984,note_on,2,0,1,,,,,,,,,11,,,75,127
94078,note_on,94,0,2,,,,,,,,,0,,,75,0
94078,note_on,94,0,5,,,,,,,,,6,,,48,0
94078,note_on,94,0,4,,,,,,,,,4,,,67,0
94078,note_on,94,0,1,,,,,,,,,11,,,75,0
94078,note_on,94,0,3,,,,,,,,,2,,,72,0
94078,note_on,94,0,6,,,,,,,,,8,,,36,0
94080,note_on,2,0,3,,,,,,,,,2,,,70,127
94080,note_on,2,0,2,,,,,,,,,0,,,74,127
94080,note_on,2,0,5,,,,,,,,,6,,,43,75
94080,note_on,2,0,1,,,,,,,,,11,,,74,127
94080,note_on,2,0,6,,,,,,,,,8,,,31,75
94080,note_on,2,0,4,,,,,,,,,4,,,67,75
94126,note_on,46,0,3,,,,,,,,,2,,,70,0
94126,note_on,46,0,2,,,,,,,,,0,,,74,0
94126,note_on,46,0,1,,,,,,,,,11,,,74,0
94128,note_on,2,0,2,,,,,,,,,0,,,81,127
94128,note_on,2,0,3,,,,,,,,,2,,,81,127
94128,note_on,2,0,1,,,,,,,,,11,,,81,127
94174,note_on,46,0,2,,,,,,,,,0,,,81,0
94174,note_on,46,0,3,,,,,,,,,2,,,81,0
94174,note_on,46,0,1,,,,,,,,,11,,,81,0
94176,note_on,2,0,1,,,,,,,,,11,,,82,127
94176,note_on,2,0,2,,,,,,,,,0,,,82,127
94176,note_on,2,0,3,,,,,,,,,2,,,82,127
94222,note_on,142,0,5,,,,,,,,,6,,,43,0
94222,note_on,46,0,1,,,,,,,,,11,,,82,0
94222,note_on,46,0,3,,,,,,,,,2,,,82,0
94222,note_on,142,0,4,,,,,,,,,4,,,67,0
94222,note_on,142,0,6,,,,,,,,,8,,,31,0
94222,note_on,46,0,2,,,,,,,,,0,,,82,0
94224,note_on,2,0,4,,,,,,,,,4,,,62,75
94224,note_on,2,0,6,,,,,,,,,8,,,34,75
94224,note_on,2,0,2,,,,,,,,,0,,,79,127
94224,note_on,2,0,3,,,,,,,,,2,,,79,127
94224,note_on,2,0,5,,,,,,,,,6,,,46,75
94224,note_on,2,0,1,,,,,,,,,11,,,79,127
94270,note_on,46,0,4,,,,,,,,,4,,,62,0
94270,note_on,46,0,6,,,,,,,,,8,,,34,0
94270,note_on,46,0,5,,,,,,,,,6,,,46,0
94270,note_on,46,0,2,,,,,,,,,0,,,79,0
94270,note_on,46,0,3,,,,,,,,,2,,,79,0
94270,note_on,46,0,1,,,,,,,,,11,,,79,0
94272,note_on,2,0,5,,,,,,,,,6,,,48,75
94272,note_on,2,0,6,,,,,,,,,8,,,36,75
94272,note_on,2,0,4,,,,,,,,,4,,,63,75
94272,note_on,2,0,1,,,,,,,,,11,,,81,127
94272,note_on,2,0,2,,,,,,,,,0,,,81,127
94272,note_on,2,0,3,,,,,,,,,2,,,81,127
94318,note_on,46,0,1,,,,,,,,,11,,,81,0
94318,note_on,46,0,3,,,,,,,,,2,,,81,0
94318,note_on,46,0,6,,,,,,,,,8,,,36,0
94318,note_on,46,0,2,,,,,,,,,0,,,81,0
94318,note_on,46,0,4,,,,,,,,,4,,,63,0
94318,note_on,46,0,5,,,,,,,,,6,,,48,0
94320,note_on,2,0,4,,,,,,,,,4,,,57,75
94320,note_on,2,0,1,,,,,,,,,11,,,78,127
94320,note_on,2,0,2,,,,,,,,,0,,,78,127
94320,note_on,2,0,3,,,,,,,,,2,,,78,127
94320,note_on,2,0,6,,,,,,,,,8,,,38,75
94320,note_on,2,0,5,,,,,,,,,6,,,50,75
94366,note_on,46,0,2,,,,,,,,,0,,,78,0
94366,note_on,46,0,3,,,,,,,,,2,,,78,0
94366,note_on,46,0,5,,,,,,,,,6,,,50,0
94366,note_on,46,0,4,,,,,,,,,4,,,57,0
94366,note_on,46,0,6,,,,,,,,,8,,,38,0
94366,note_on,46,0,1,,,,,,,,,11,,,78,0
94368,note_on,2,0,3,,,,,,,,,2,,,79,127
94368,note_on,2,0,2,,,,,,,,,0,,,79,127
94368,note_on,2,0,4,,,,,,,,,4,,,58,75
94368,note_on,2,0,5,,,,,,,,,6,,,43,75
94368,note_on,2,0,1,,,,,,,,,11,,,79,127
94368,note_on,2,0,6,,,,,,,,,8,,,31,75
94414,note_on,46,0,3,,,,,,,,,2,,,79,0
94414,note_on,46,0,1,,,,,,,,,11,,,79,0
94414,note_on,46,0,2,,,,,,,,,0,,,79,0
94416,note_on,2,0,3,,,,,,,,,2,,,69,127
94416,note_on,2,0,1,,,,,,,,,11,,,69,127
94416,note_on,2,0,2,,,,,,,,,0,,,69,127
94462,note_on,94,0,5,,,,,,,,,6,,,43,0
94462,note_on,94,0,4,,,,,,,,,4,,,58,0
94462,note_on,46,0,3,,,,,,,,,2,,,69,0
94462,note_on,46,0,2,,,,,,,,,0,,,69,0
94462,note_on,94,0,6,,,,,,,,,8,,,31,0
94462,note_on,46,0,1,,,,,,,,,11,,,69,0
94464,note_on,2,0,1,,,,,,,,,11,,,70,127
94464,note_on,2,0,3,,,,,,,,,2,,,70,127
94464,note_on,2,0,2,,,,,,,,,0,,,70,127
94510,note_on,46,0,1,,,,,,,,,11,,,70,0
94510,note_on,46,0,3,,,,,,,,,2,,,70,0
94510,note_on,46,0,2,,,,,,,,,0,,,70,0
94512,note_on,50,0,5,,,,,,,,,6,,,46,75
94512,note_on,2,0,3,,,,,,,,,2,,,67,127
94512,note_on,50,0,6,,,,,,,,,8,,,34,75
94512,note_on,2,0,1,,,,,,,,,11,,,67,127
94512,note_on,2,0,2,,,,,,,,,0,,,67,127
94512,note_on,50,0,4,,,,,,,,,4,,,62,75
94558,note_on,46,0,2,,,,,,,,,0,,,67,0
94558,note_on,46,0,6,,,,,,,,,8,,,34,0
94558,note_on,46,0,4,,,,,,,,,4,,,62,0
94558,note_on,46,0,3,,,,,,,,,2,,,67,0
94558,note_on,46,0,5,,,,,,,,,6,,,46,0
94558,note_on,46,0,1,,,,,,,,,11,,,67,0
94560,note_on,2,0,6,,,,,,,,,8,,,36,75
94560,note_on,2,0,1,,,,,,,,,11,,,69,127
94560,note_on,2,0,3,,,,,,,,,2,,,69,127
94560,note_on,2,0,2,,,,,,,,,0,,,69,127
94560,note_on,2,0,5,,,,,,,,,6,,,48,75
94560,note_on,2,0,4,,,,,,,,,4,,,63,75
94606,note_on,46,0,5,,,,,,,,,6,,,48,0
94606,note_on,46,0,2,,,,,,,,,0,,,69,0
94606,note_on,46,0,1,,,,,,,,,11,,,69,0
94606,note_on,46,0,6,,,,,,,,,8,,,36,0
94606,note_on,46,0,3,,,,,,,,,2,,,69,0
94606,note_on,46,0,4,,,,,,,,,4,,,63,0
94608,note_on,2,0,3,,,,,,,,,2,,,66,127
94608,note_on,2,0,2,,,,,,,,,0,,,66,127
94608,note_on,2,0,5,,,,,,,,,6,,,50,75
94608,note_on,2,0,6,,,,,,,,,8,,,38,75
94608,note_on,2,0,1,,,,,,,,,11,,,66,127
94608,note_on,2,0,4,,,,,,,,,4,,,57,75
94654,note_on,46,0,3,,,,,,,,,2,,,66,0
94654,note_on,46,0,1,,,,,,,,,11,,,66,0
94654,note_on,46,0,4,,,,,,,,,4,,,57,0
94654,note_on,46,0,2,,,,,,,,,0,,,66,0
94654,note_on,46,0,5,,,,,,,,,6,,,50,0
94654,note_on,46,0,6,,,,,,,,,8,,,38,0
94656,note_on,2,0,6,,,,,,,,,8,,,31,75
94656,note_on,2,0,4,,,,,,,,,4,,,58,75
94656,note_on,2,0,1,,,,,,,,,11,,,67,127
94656,note_on,2,0,2,,,,,,,,,0,,,67,127
94656,note_on,2,0,3,,,,,,,,,2,,,67,127
94656,note_on,2,0,5,,,,,,,,,6,,,43,75
94750,note_on,94,0,1,,,,,,,,,11,,,67,0
94750,note_on,94,0,5,,,,,,,,,6,,,43,0
94750,note_on,94,0,6,,,,,,,,,8,,,31,0
94750,note_on,94,0,2,,,,,,,,,0,,,67,0
94750,note_on,94,0,3,,,,,,,,,2,,,67,0
94752,note_on,2,0,6,,,,,,,,,8,,,43,75
94752,note_on,2,0,3,,,,,,,,,2,,,70,127
94752,note_on,2,0,1,,,,,,,,,11,,,74,127
94752,note_on,2,0,5,,,,,,,,,6,,,55,75
94752,note_on,2,0,2,,,,,,,,,0,,,74,127
94816,note_on,160,0,4,,,,,,,,,4,,,58,0
94846,note_on,94,0,5,,,,,,,,,6,,,55,0
94846,note_on,94,0,1,,,,,,,,,11,,,74,0
94846,note_on,94,0,6,,,,,,,,,8,,,43,0
94846,note_on,94,0,3,,,,,,,,,2,,,70,0
94846,note_on,94,0,2,,,,,,,,,0,,,74,0
94848,note_on,2,0,1,,,,,,,,,11,,,75,127
94848,note_on,2,0,5,,,,,,,,,6,,,48,75
94848,note_on,2,0,2,,,,,,,,,0,,,75,127
94848,note_on,2,0,3,,,,,,,,,2,,,72,127
94848,note_on,32,0,4,,,,,,,,,4,,,67,75
94848,note_on,2,0,6,,,,,,,,,8,,,36,75
94942,note_on,94,0,5,,,,,,,,,6,,,48,0
94942,note_on,94,0,4,,,,,,,,,4,,,67,0
94942,note_on,94,0,1,,,,,,,,,11,,,75,0
94942,note_on,94,0,6,,,,,,,,,8,,,36,0
94942,note_on,94,0,3,,,,,,,,,2,,,72,0
94942,note_on,94,0,2,,,,,,,,,0,,,75,0
94944,note_on,2,0,2,,,,,,,,,0,,,74,127
94944,note_on,2,0,4,,,,,,,,,4,,,67,75
94944,note_on,2,0,6,,,,,,,,,8,,,31,75
94944,note_on,2,0,3,,,,,,,,,2,,,70,127
94944,note_on,2,0,5,,,,,,,,,6,,,43,75
94944,note_on,2,0,1,,,,,,,,,11,,,74,127
95038,note_on,94,0,6,,,,,,,,,8,,,31,0
95038,note_on,94,0,1,,,,,,,,,11,,,74,0
95038,note_on,94,0,5,,,,,,,,,6,,,43,0
95038,note_on,94,0,3,,,,,,,,,2,,,70,0
95038,note_on,94,0,2,,,,,,,,,0,,,74,0
95040,note_on,2,0,5,,,,,,,,,6,,,55,75
95040,note_on,2,0,3,,,,,,,,,2,,,70,127
95040,note_on,2,0,2,,,,,,,,,0,,,74,127
95040,note_on,2,0,6,,,,,,,,,8,,,43,75
95040,note_on,2,0,1,,,,,,,,,11,,,74,127
95104,note_on,160,0,4,,,,,,,,,4,,,67,0
95134,note_on,94,0,3,,,,,,,,,2,,,70,0
95134,note_on,94,0,6,,,,,,,,,8,,,43,0
95134,note_on,94,0,5,,,,,,,,,6,,,55,0
95134,note_on,94,0,1,,,,,,,,,11,,,74,0
95134,note_on,94,0,2,,,,,,,,,0,,,74,0
95136,note_on,32,0,4,,,,,,,,,4,,,67,75
95136,note_on,2,0,1,,,,,,,,,11,,,75,127
95136,note_on,2,0,6,,,,,,,,,8,,,36,75
95136,note_on,2,0,3,,,,,,,,,2,,,72,127
95136,note_on,2,0,5,,,,,,,,,6,,,48,75
95136,note_on,2,0,2,,,,,,,,,0,,,75,127
95230,note_on,94,0,4,,,,,,,,,4,,,67,0
95230,note_on,94,0,1,,,,,,,,,11,,,75,0
95230,note_on,94,0,5,,,,,,,,,6,,,48,0
95230,note_on,94,0,6,,,,,,,,,8,,,36,0
95230,note_on,94,0,2,,,,,,,,,0,,,75,0
95230,note_on,94,0,3,,,,,,,,,2,,,72,0
95232,note_on,2,0,5,,,,,,,,,6,,,43,75
95232,note_on,2,0,4,,,,,,,,,4,,,67,75
95232,note_on,2,0,6,,,,,,,,,8,,,31,75
95232,note_on,2,0,1,,,,,,,,,11,,,74,127
95232,note_on,2,0,3,,,,,,,,,2,,,70,127
95232,note_on,2,0,2,,,,,,,,,0,,,74,127
95278,note_on,46,0,3,,,,,,,,,2,,,70,0
95278,note_on,46,0,2,,,,,,,,,0,,,74,0
95278,note_on,46,0,1,,,,,,,,,11,,,74,0
95280,note_on,2,0,3,,,,,,,,,2,,,81,127
95280,note_on,2,0,2,,,,,,,,,0,,,81,127
95280,note_on,2,0,1,,,,,,,,,11,,,81,127
95326,note_on,46,0,3,,,,,,,,,2,,,81,0
95326,note_on,46,0,2,,,,,,,,,0,,,81,0
95326,note_on,46,0,1,,,,,,,,,11,,,81,0
95328,note_on,2,0,2,,,,,,,,,0,,,82,127
95328,note_on,2,0,3,,,,,,,,,2,,,82,127
95328,note_on,2,0,1,,,,,,,,,11,,,82,127
95374,note_on,142,0,6,,,,,,,,,8,,,31,0
95374,note_on,142,0,5,,,,,,,,,6,,,43,0
95374,note_on,46,0,2,,,,,,,,,0,,,82,0
95374,note_on,46,0,1,,,,,,,,,11,,,82,0
95374,note_on,142,0,4,,,,,,,,,4,,,67,0
95374,note_on,46,0,3,,,,,,,,,2,,,82,0
95376,note_on,2,0,5,,,,,,,,,6,,,46,75
95376,note_on,2,0,4,,,,,,,,,4,,,62,75
95376,note_on,2,0,3,,,,,,,,,2,,,79,127
95376,note_on,2,0,1,,,,,,,,,11,,,79,127
95376,note_on,2,0,2,,,,,,,,,0,,,79,127
95376,note_on,2,0,6,,,,,,,,,8,,,34,75
95422,note_on,46,0,6,,,,,,,,,8,,,34,0
95422,note_on,46,0,4,,,,,,,,,4,,,62,0
95422,note_on,46,0,2,,,,,,,,,0,,,79,0
95422,note_on,46,0,1,,,,,,,,,11,,,79,0
95422,note_on,46,0,3,,,,,,,,,2,,,79,0
95422,note_on,46,0,5,,,,,,,,,6,,,46,0
95424,note_on,2,0,5,,,,,,,,,6,,,48,75
95424,note_on,2,0,1,,,,,,,,,11,,,81,127
95424,note_on,2,0,3,,,,,,,,,2,,,81,127
95424,note_on,2,0,2,,,,,,,,,0,,,81,127
95424,note_on,2,0,4,,,,,,,,,4,,,63,75
95424,note_on,2,0,6,,,,,,,,,8,,,36,75
95470,note_on,46,0,1,,,,,,,,,11,,,81,0
95470,note_on,46,0,4,,,,,,,,,4,,,63,0
95470,note_on,46,0,5,,,,,,,,,6,,,48,0
95470,note_on,46,0,3,,,,,,,,,2,,,81,0
95470,note_on,46,0,2,,,,,,,,,0,,,81,0
95470,note_on,46,0,6,,,,,,,,,8,,,36,0
95472,note_on,2,0,4,,,,,,,,,4,,,57,75
95472,note_on,2,0,3,,,,,,,,,2,,,78,127
95472,note_on,2,0,2,,,,,,,,,0,,,78,127
95472,note_on,2,0,5,,,,,,,,,6,,,50,75
95472,note_on,2,0,1,,,,,,,,,11,,,78,127
95472,note_on,2,0,6,,,,,,,,,8,,,38,75
95518,note_on,46,0,6,,,,,,,,,8,,,38,0
95518,note_on,46,0,2,,,,,,,,,0,,,78,0
95518,note_on,46,0,3,,,,,,,,,2,,,78,0
95518,note_on,46,0,5,,,,,,,,,6,,,50,0
95518,note_on,46,0,4,,,,,,,,,4,,,57,0
95518,note_on,46,0,1,,,,,,,,,11,,,78,0
95520,note_on,2,0,1,,,,,,,,,11,,,79,127
95520,note_on,2,0,6,,,,,,,,,8,,,31,75
95520,note_on,2,0,4,,,,,,,,,4,,,58,75
95520,note_on,2,0,2,,,,,,,,,0,,,79,127
95520,note_on,2,0,5,,,,,,,,,6,,,43,75
95520,note_on,2,0,3,,,,,,,,,2,,,79,127
95566,note_on,46,0,1,,,,,,,,,11,,,79,0
95566,note_on,46,0,2,,,,,,,,,0,,,79,0
95566,note_on,46,0,3,,,,,,,,,2,,,79,0
95568,note_on,2,0,3,,,,,,,,,2,,,69,127
95568,note_on,2,0,2,,,,,,,,,0,,,69,127
95568,note_on,2,0,1,,,,,,,,,11,,,69,127
95614,note_on,46,0,2,,,,,,,,,0,,,69,0
95614,note_on,46,0,1,,,,,,,,,11,,,69,0
95614,note_on,94,0,6,,,,,,,,,8,,,31,0
95614,note_on,94,0,5,,,,,,,,,6,,,43,0
95614,note_on,46,0,3,,,,,,,,,2,,,69,0
95614,note_on,94,0,4,,,,,,,,,4,,,58,0
95616,note_on,2,0,2,,,,,,,,,0,,,70,127
95616,note_on,2,0,6,,,,,,,,,8,,,43,75
95616,note_on,2,0,5,,,,,,,,,6,,,55,75
95616,note_on,2,0,3,,,,,,,,,2,,,70,127
95616,note_on,2,0,1,,,,,,,,,11,,,70,127
95616,note_on,2,0,4,,,,,,,,,4,,,62,75
95662,note_on,46,0,2,,,,,,,,,0,,,70,0
95662,note_on,46,0,3,,,,,,,,,2,,,70,0
95662,note_on,46,0,1,,,,,,,,,11,,,70,0
95664,note_on,2,0,1,,,,,,,,,11,,,67,127
95664,note_on,2,0,2,,,,,,,,,0,,,67,127
95664,note_on,2,0,3,,,,,,,,,2,,,67,127
95710,note_on,46,0,1,,,,,,,,,11,,,67,0
95710,note_on,46,0,2,,,,,,,,,0,,,67,0
95710,note_on,46,0,3,,,,,,,,,2,,,67,0
95712,note_on,2,0,1,,,,,,,,,11,,,70,127
95712,note_on,2,0,3,,,,,,,,,2,,,70,127
95712,note_on,2,0,2,,,,,,,,,0,,,70,127
95758,note_on,46,0,2,,,,,,,,,0,,,70,0
95758,note_on,46,0,1,,,,,,,,,11,,,70,0
95758,note_on,142,0,4,,,,,,,,,4,,,62,0
95758,note_on,46,0,3,,,,,,,,,2,,,70,0
95760,note_on,2,0,3,,,,,,,,,2,,,73,127
95760,note_on,2,0,1,,,,,,,,,11,,,73,127
95760,note_on,2,0,4,,,,,,,,,4,,,64,75
95760,note_on,2,0,2,,,,,,,,,0,,,73,127
95776,note_on,160,0,5,,,,,,,,,6,,,55,0
95776,note_on,160,0,6,,,,,,,,,8,,,43,0
95806,note_on,46,0,2,,,,,,,,,0,,,73,0
95806,note_on,46,0,4,,,,,,,,,4,,,64,0
95806,note_on,46,0,1,,,,,,,,,11,,,73,0
95806,note_on,46,0,3,,,,,,,,,2,,,73,0
95808,note_on,32,0,5,,,,,,,,,6,,,50,75
95808,note_on,2,0,2,,,,,,,,,0,,,73,127
95808,note_on,32,0,6,,,,,,,,,8,,,38,75
95808,note_on,2,0,3,,,,,,,,,2,,,73,127
95808,note_on,2,0,4,,,,,,,,,4,,,57,75
95808,note_on,2,0,1,,,,,,,,,11,,,73,127
95854,note_on,46,0,6,,,,,,,,,8,,,38,0
95854,note_on,46,0,5,,,,,,,,,6,,,50,0
95856,note_on,2,0,5,,,,,,,,,6,,,51,75
95856,note_on,2,0,6,,,,,,,,,8,,,39,75
95902,note_on,94,0,1,,,,,,,,,11,,,73,0
95902,note_on,94,0,2,,,,,,,,,0,,,73,0
95902,note_on,94,0,3,,,,,,,,,2,,,73,0
95902,note_on,46,0,5,,,,,,,,,6,,,51,0
95902,note_on,46,0,6,,,,,,,,,8,,,39,0
95904,note_on,2,0,3,,,,,,,,,2,,,74,127
95904,note_on,2,0,2,,,,,,,,,0,,,74,127
95904,note_on,2,0,6,,,,,,,,,8,,,38,75
95904,note_on,2,0,5,,,,,,,,,6,,,50,75
95904,note_on,2,0,1,,,,,,,,,11,,,74,127
95950,note_on,46,0,5,,,,,,,,,6,,,50,0
95950,note_on,46,0,6,,,,,,,,,8,,,38,0
95952,note_on,2,0,6,,,,,,,,,8,,,36,75
95952,note_on,2,0,5,,,,,,,,,6,,,48,75
95968,note_on,160,0,4,,,,,,,,,4,,,57,0
95998,note_on,46,0,6,,,,,,,,,8,,,36,0
95998,note_on,94,0,2,,,,,,,,,0,,,74,0
95998,note_on,94,0,3,,,,,,,,,2,,,74,0
95998,note_on,46,0,5,,,,,,,,,6,,,48,0
95998,note_on,94,0,1,,,,,,,,,11,,,74,0
96000,note_on,2,0,6,,,,,,,,,8,,,34,75
96000,note_on,2,0,5,,,,,,,,,6,,,46,75
96046,note_on,46,0,6,,,,,,,,,8,,,34,0
96046,note_on,46,0,5,,,,,,,,,6,,,46,0
96048,note_on,2,0,6,,,,,,,,,8,,,33,75
96048,note_on,2,0,5,,,,,,,,,6,,,45,75
96094,note_on,46,0,6,,,,,,,,,8,,,33,0
96094,note_on,46,0,5,,,,,,,,,6,,,45,0
96096,note_on,2,0,6,,,,,,,,,8,,,31,75
96096,note_on,2,0,5,,,,,,,,,6,,,43,75
96096,note_on,98,0,1,,,,,,,,,11,,,86,127
96096,set_tempo,3744,1,0,631578,,,,,,,,,,,,
96096,note_on,98,0,2,,,,,,,,,0,,,86,127
96096,note_on,128,0,4,,,,,,,,,4,,,70,75
96118,note_on,22,0,2,,,,,,,,,0,,,86,0
96118,note_on,22,0,1,,,,,,,,,11,,,86,0
96120,note_on,2,0,2,,,,,,,,,0,,,84,127
96120,note_on,2,0,1,,,,,,,,,11,,,84,127
96142,note_on,22,0,1,,,,,,,,,11,,,84,0
96142,note_on,22,0,2,,,,,,,,,0,,,84,0
96144,note_on,2,0,1,,,,,,,,,11,,,82,127
96144,note_on,2,0,2,,,,,,,,,0,,,82,127
96166,note_on,22,0,2,,,,,,,,,0,,,82,0
96166,note_on,22,0,1,,,,,,,,,11,,,82,0
96168,note_on,2,0,1,,,,,,,,,11,,,81,127
96168,note_on,2,0,2,,,,,,,,,0,,,81,127
96190,note_on,94,0,6,,,,,,,,,8,,,31,0
96190,note_on,22,0,2,,,,,,,,,0,,,81,0
96190,note_on,94,0,4,,,,,,,,,4,,,70,0
96190,note_on,94,0,5,,,,,,,,,6,,,43,0
96190,note_on,22,0,1,,,,,,,,,11,,,81,0
96192,note_on,2,0,2,,,,,,,,,0,,,82,127
96192,note_on,2,0,5,,,,,,,,,6,,,43,75
96192,note_on,2,0,6,,,,,,,,,8,,,31,75
96192,note_on,2,0,4,,,,,,,,,4,,,70,75
96192,note_on,2,0,1,,,,,,,,,11,,,82,127
96214,note_on,22,0,1,,,,,,,,,11,,,82,0
96214,note_on,22,0,2,,,,,,,,,0,,,82,0
96216,note_on,2,0,1,,,,,,,,,11,,,81,127
96216,note_on,2,0,2,,,,,,,,,0,,,81,127
96238,note_on,22,0,2,,,,,,,,,0,,,81,0
96238,note_on,22,0,1,,,,,,,,,11,,,81,0
96240,note_on,2,0,2,,,,,,,,,0,,,79,127
96240,note_on,2,0,1,,,,,,,,,11,,,79,127
96262,note_on,22,0,1,,,,,,,,,11,,,79,0
96262,note_on,22,0,2,,,,,,,,,0,,,79,0
96264,note_on,2,0,1,,,,,,,,,11,,,77,127
96264,note_on,2,0,2,,,,,,,,,0,,,77,127
96286,note_on,94,0,6,,,,,,,,,8,,,31,0
96286,note_on,94,0,4,,,,,,,,,4,,,70,0
96286,note_on,22,0,1,,,,,,,,,11,,,77,0
96286,note_on,94,0,5,,,,,,,,,6,,,43,0
96286,note_on,22,0,2,,,,,,,,,0,,,77,0
96288,note_on,2,0,1,,,,,,,,,11,,,79,127
96288,note_on,2,0,5,,,,,,,,,6,,,43,75
96288,note_on,2,0,4,,,,,,,,,4,,,70,75
96288,note_on,2,0,6,,,,,,,,,8,,,31,75
96288,note_on,2,0,2,,,,,,,,,0,,,79,127
96310,note_on,22,0,1,,,,,,,,,11,,,79,0
96310,note_on,22,0,2,,,,,,,,,0,,,79,0
96312,note_on,2,0,1,,,,,,,,,11,,,77,127
96312,note_on,2,0,2,,,,,,,,,0,,,77,127
96334,note_on,22,0,2,,,,,,,,,0,,,77,0
96334,note_on,22,0,1,,,,,,,,,11,,,77,0
96336,note_on,2,0,1,,,,,,,,,11,,,75,127
96336,note_on,2,0,2,,,,,,,,,0,,,75,127
96358,note_on,22,0,1,,,,,,,,,11,,,75,0
96358,note_on,22,0,2,,,,,,,,,0,,,75,0
96360,note_on,2,0,1,,,,,,,,,11,,,74,127
96360,note_on,2,0,2,,,,,,,,,0,,,74,127
96382,note_on,94,0,6,,,,,,,,,8,,,31,0
96382,note_on,22,0,1,,,,,,,,,11,,,74,0
96382,note_on,94,0,5,,,,,,,,,6,,,43,0
96382,note_on,22,0,2,,,,,,,,,0,,,74,0
96382,note_on,94,0,4,,,,,,,,,4,,,70,0
96384,note_on,2,0,1,,,,,,,,,11,,,75,127
96384,note_on,2,0,5,,,,,,,,,6,,,48,75
96384,note_on,2,0,4,,,,,,,,,4,,,70,75
96384,note_on,2,0,2,,,,,,,,,0,,,75,127
96384,note_on,386,0,3,,,,,,,,,2,,,79,127
96384,note_on,2,0,6,,,,,,,,,8,,,36,75
96406,note_on,22,0,3,,,,,,,,,2,,,79,0
96408,note_on,2,0,3,,,,,,,,,2,,,77,127
96430,note_on,22,0,3,,,,,,,,,2,,,77,0
96432,note_on,2,0,3,,,,,,,,,2,,,75,127
96454,note_on,22,0,3,,,,,,,,,2,,,75,0
96456,note_on,2,0,3,,,,,,,,,2,,,74,127
96478,note_on,94,0,4,,,,,,,,,4,,,70,0
96478,note_on,22,0,3,,,,,,,,,2,,,74,0
96478,note_on,94,0,5,,,,,,,,,6,,,48,0
96478,note_on,94,0,2,,,,,,,,,0,,,75,0
96478,note_on,94,0,6,,,,,,,,,8,,,36,0
96478,note_on,94,0,1,,,,,,,,,11,,,75,0
96480,note_on,2,0,4,,,,,,,,,4,,,70,75
96480,note_on,2,0,1,,,,,,,,,11,,,75,127
96480,note_on,2,0,3,,,,,,,,,2,,,75,127
96480,note_on,2,0,5,,,,,,,,,6,,,48,75
96480,note_on,2,0,6,,,,,,,,,8,,,36,75
96480,note_on,2,0,2,,,,,,,,,0,,,75,127
96502,note_on,22,0,3,,,,,,,,,2,,,75,0
96504,note_on,2,0,3,,,,,,,,,2,,,74,127
96526,note_on,22,0,3,,,,,,,,,2,,,74,0
96528,note_on,2,0,3,,,,,,,,,2,,,72,127
96550,note_on,22,0,3,,,,,,,,,2,,,72,0
96552,note_on,2,0,3,,,,,,,,,2,,,70,127
96574,note_on,94,0,2,,,,,,,,,0,,,75,0
96574,note_on,94,0,6,,,,,,,,,8,,,36,0
96574,note_on,94,0,5,,,,,,,,,6,,,48,0
96574,note_on,94,0,4,,,,,,,,,4,,,70,0
96574,note_on,94,0,1,,,,,,,,,11,,,75,0
96574,note_on,22,0,3,,,,,,,,,2,,,70,0
96576,note_on,2,0,5,,,,,,,,,6,,,48,75
96576,note_on,2,0,2,,,,,,,,,0,,,75,127
96576,note_on,2,0,4,,,,,,,,,4,,,63,75
96576,note_on,2,0,3,,,,,,,,,2,,,72,127
96576,note_on,2,0,6,,,,,,,,,8,,,36,75
96576,note_on,2,0,1,,,,,,,,,11,,,75,127
96598,note_on,22,0,3,,,,,,,,,2,,,72,0
96600,note_on,2,0,3,,,,,,,,,2,,,70,127
96622,note_on,22,0,3,,,,,,,,,2,,,70,0
96624,note_on,2,0,3,,,,,,,,,2,,,69,127
96646,note_on,22,0,3,,,,,,,,,2,,,69,0
96648,note_on,2,0,3,,,,,,,,,2,,,67,127
96670,note_on,94,0,2,,,,,,,,,0,,,75,0
96670,note_on,94,0,4,,,,,,,,,4,,,63,0
96670,note_on,94,0,5,,,,,,,,,6,,,48,0
96670,note_on,94,0,6,,,,,,,,,8,,,36,0
96670,note_on,22,0,3,,,,,,,,,2,,,67,0
96670,note_on,94,0,1,,,,,,,,,11,,,75,0
96672,note_on,2,0,1,,,,,,,,,11,,,84,127
96672,note_on,2,0,6,,,,,,,,,8,,,41,75
96672,note_on,2,0,4,,,,,,,,,4,,,63,75
96672,note_on,2,0,3,,,,,,,,,2,,,69,127
96672,note_on,2,0,2,,,,,,,,,0,,,84,127
96672,note_on,2,0,5,,,,,,,,,6,,,53,75
96694,note_on,22,0,1,,,,,,,,,11,,,84,0
96694,note_on,22,0,2,,,,,,,,,0,,,84,0
96696,note_on,2,0,1,,,,,,,,,11,,,82,127
96696,note_on,2,0,2,,,,,,,,,0,,,82,127
96718,note_on,22,0,2,,,,,,,,,0,,,82,0
96718,note_on,22,0,1,,,,,,,,,11,,,82,0
96720,note_on,2,0,1,,,,,,,,,11,,,81,127
96720,note_on,2,0,2,,,,,,,,,0,,,81,127
96742,note_on,22,0,1,,,,,,,,,11,,,81,0
96742,note_on,22,0,2,,,,,,,,,0,,,81,0
96744,note_on,2,0,2,,,,,,,,,0,,,79,127
96744,note_on,2,0,1,,,,,,,,,11,,,79,127
96766,note_on,94,0,3,,,,,,,,,2,,,69,0
96766,note_on,94,0,4,,,,,,,,,4,,,63,0
96766,note_on,22,0,2,,,,,,,,,0,,,79,0
96766,note_on,94,0,6,,,,,,,,,8,,,41,0
96766,note_on,94,0,5,,,,,,,,,6,,,53,0
96766,note_on,22,0,1,,,,,,,,,11,,,79,0
96768,note_on,2,0,1,,,,,,,,,11,,,81,127
96768,note_on,2,0,6,,,,,,,,,8,,,41,75
96768,note_on,2,0,2,,,,,,,,,0,,,81,127
96768,note_on,2,0,5,,,,,,,,,6,,,53,75
96768,note_on,2,0,4,,,,,,,,,4,,,63,75
96768,note_on,2,0,3,,,,,,,,,2,,,69,127
96790,note_on,22,0,1,,,,,,,,,11,,,81,0
96790,note_on,22,0,2,,,,,,,,,0,,,81,0
96792,note_on,2,0,1,,,,,,,,,11,,,79,127
96792,note_on,2,0,2,,,,,,,,,0,,,79,127
96814,note_on,22,0,1,,,,,,,,,11,,,79,0
96814,note_on,22,0,2,,,,,,,,,0,,,79,0
96816,note_on,2,0,2,,,,,,,,,0,,,77,127
96816,note_on,2,0,1,,,,,,,,,11,,,77,127
96838,note_on,22,0,2,,,,,,,,,0,,,77,0
96838,note_on,22,0,1,,,,,,,,,11,,,77,0
96840,note_on,2,0,1,,,,,,,,,11,,,75,127
96840,note_on,2,0,2,,,,,,,,,0,,,75,127
96862,note_on,94,0,3,,,,,,,,,2,,,69,0
96862,note_on,94,0,6,,,,,,,,,8,,,41,0
96862,note_on,94,0,4,,,,,,,,,4,,,63,0
96862,note_on,94,0,5,,,,,,,,,6,,,53,0
96862,note_on,22,0,1,,,,,,,,,11,,,75,0
96862,note_on,22,0,2,,,,,,,,,0,,,75,0
96864,note_on,2,0,1,,,,,,,,,11,,,77,127
96864,note_on,2,0,6,,,,,,,,,8,,,41,75
96864,note_on,2,0,5,,,,,,,,,6,,,53,75
96864,note_on,2,0,3,,,,,,,,,2,,,69,127
96864,note_on,2,0,4,,,,,,,,,4,,,69,75
96864,note_on,2,0,2,,,,,,,,,0,,,77,127
96886,note_on,22,0,2,,,,,,,,,0,,,77,0
96886,note_on,22,0,1,,,,,,,,,11,,,77,0
96888,note_on,2,0,1,,,,,,,,,11,,,75,127
96888,note_on,2,0,2,,,,,,,,,0,,,75,127
96910,note_on,22,0,2,,,,,,,,,0,,,75,0
96910,note_on,22,0,1,,,,,,,,,11,,,75,0
96912,note_on,2,0,1,,,,,,,,,11,,,74,127
96912,note_on,2,0,2,,,,,,,,,0,,,74,127
96934,note_on,22,0,2,,,,,,,,,0,,,74,0
96934,note_on,22,0,1,,,,,,,,,11,,,74,0
96936,note_on,2,0,2,,,,,,,,,0,,,72,127
96936,note_on,2,0,1,,,,,,,,,11,,,72,127
96958,note_on,94,0,3,,,,,,,,,2,,,69,0
96958,note_on,22,0,2,,,,,,,,,0,,,72,0
96958,note_on,22,0,1,,,,,,,,,11,,,72,0
96958,note_on,94,0,4,,,,,,,,,4,,,69,0
96958,note_on,94,0,6,,,,,,,,,8,,,41,0
96958,note_on,94,0,5,,,,,,,,,6,,,53,0
96960,note_on,2,0,1,,,,,,,,,11,,,74,127
96960,note_on,2,0,4,,,,,,,,,4,,,69,75
96960,note_on,2,0,3,,,,,,,,,2,,,77,127
96960,note_on,2,0,2,,,,,,,,,0,,,74,127
96960,note_on,2,0,6,,,,,,,,,8,,,34,75
96960,note_on,2,0,5,,,,,,,,,6,,,46,75
96982,note_on,22,0,3,,,,,,,,,2,,,77,0
96984,note_on,2,0,3,,,,,,,,,2,,,75,127
97006,note_on,22,0,3,,,,,,,,,2,,,75,0
97008,note_on,2,0,3,,,,,,,,,2,,,74,127
97030,note_on,22,0,3,,,,,,,,,2,,,74,0
97032,note_on,2,0,3,,,,,,,,,2,,,72,127
97054,note_on,94,0,2,,,,,,,,,0,,,74,0
97054,note_on,94,0,4,,,,,,,,,4,,,69,0
97054,note_on,94,0,1,,,,,,,,,11,,,74,0
97054,note_on,94,0,6,,,,,,,,,8,,,34,0
97054,note_on,94,0,5,,,,,,,,,6,,,46,0
97054,note_on,22,0,3,,,,,,,,,2,,,72,0
97056,note_on,2,0,6,,,,,,,,,8,,,34,75
97056,note_on,2,0,5,,,,,,,,,6,,,46,75
97056,note_on,2,0,2,,,,,,,,,0,,,74,127
97056,note_on,2,0,3,,,,,,,,,2,,,74,127
97056,note_on,2,0,1,,,,,,,,,11,,,74,127
97056,note_on,2,0,4,,,,,,,,,4,,,69,75
97078,note_on,22,0,3,,,,,,,,,2,,,74,0
97080,note_on,2,0,3,,,,,,,,,2,,,72,127
97102,note_on,22,0,3,,,,,,,,,2,,,72,0
97104,note_on,2,0,3,,,,,,,,,2,,,70,127
97126,note_on,22,0,3,,,,,,,,,2,,,70,0
97128,note_on,2,0,3,,,,,,,,,2,,,69,127
97150,note_on,94,0,2,,,,,,,,,0,,,74,0
97150,note_on,94,0,1,,,,,,,,,11,,,74,0
97150,note_on,94,0,4,,,,,,,,,4,,,69,0
97150,note_on,94,0,5,,,,,,,,,6,,,46,0
97150,note_on,22,0,3,,,,,,,,,2,,,69,0
97150,note_on,94,0,6,,,,,,,,,8,,,34,0
97152,note_on,2,0,4,,,,,,,,,4,,,62,75
97152,note_on,2,0,5,,,,,,,,,6,,,46,75
97152,note_on,2,0,2,,,,,,,,,0,,,74,127
97152,note_on,2,0,3,,,,,,,,,2,,,70,127
97152,note_on,2,0,6,,,,,,,,,8,,,34,75
97152,note_on,2,0,1,,,,,,,,,11,,,74,127
97174,note_on,22,0,3,,,,,,,,,2,,,70,0
97176,note_on,2,0,3,,,,,,,,,2,,,69,127
97198,note_on,22,0,3,,,,,,,,,2,,,69,0
97200,note_on,2,0,3,,,,,,,,,2,,,67,127
97222,note_on,22,0,3,,,,,,,,,2,,,67,0
97224,note_on,2,0,3,,,,,,,,,2,,,65,127
97246,note_on,94,0,2,,,,,,,,,0,,,74,0
97246,note_on,94,0,4,,,,,,,,,4,,,62,0
97246,note_on,22,0,3,,,,,,,,,2,,,65,0
97246,note_on,94,0,6,,,,,,,,,8,,,34,0
97246,note_on,94,0,5,,,,,,,,,6,,,46,0
97246,note_on,94,0,1,,,,,,,,,11,,,74,0
97248,note_on,2,0,6,,,,,,,,,8,,,39,75
97248,note_on,2,0,2,,,,,,,,,0,,,82,127
97248,note_on,2,0,4,,,,,,,,,4,,,62,75
97248,note_on,2,0,3,,,,,,,,,2,,,67,127
97248,note_on,2,0,5,,,,,,,,,6,,,51,75
97248,note_on,2,0,1,,,,,,,,,11,,,82,127
97270,note_on,22,0,2,,,,,,,,,0,,,82,0
97270,note_on,22,0,1,,,,,,,,,11,,,82,0
97272,note_on,2,0,2,,,,,,,,,0,,,81,127
97272,note_on,2,0,1,,,,,,,,,11,,,81,127
97294,note_on,22,0,2,,,,,,,,,0,,,81,0
97294,note_on,22,0,1,,,,,,,,,11,,,81,0
97296,note_on,2,0,2,,,,,,,,,0,,,79,127
97296,note_on,2,0,1,,,,,,,,,11,,,79,127
97318,note_on,22,0,2,,,,,,,,,0,,,79,0
97318,note_on,22,0,1,,,,,,,,,11,,,79,0
97320,note_on,2,0,1,,,,,,,,,11,,,77,127
97320,note_on,2,0,2,,,,,,,,,0,,,77,127
97342,note_on,22,0,1,,,,,,,,,11,,,77,0
97342,note_on,94,0,4,,,,,,,,,4,,,62,0
97342,note_on,94,0,5,,,,,,,,,6,,,51,0
97342,note_on,94,0,3,,,,,,,,,2,,,67,0
97342,note_on,22,0,2,,,,,,,,,0,,,77,0
97342,note_on,94,0,6,,,,,,,,,8,,,39,0
97344,note_on,2,0,6,,,,,,,,,8,,,39,75
97344,note_on,2,0,4,,,,,,,,,4,,,62,75
97344,note_on,2,0,5,,,,,,,,,6,,,51,75
97344,note_on,2,0,3,,,,,,,,,2,,,67,127
97344,note_on,2,0,2,,,,,,,,,0,,,79,127
97344,note_on,2,0,1,,,,,,,,,11,,,79,127
97366,note_on,22,0,2,,,,,,,,,0,,,79,0
97366,note_on,22,0,1,,,,,,,,,11,,,79,0
97368,note_on,2,0,1,,,,,,,,,11,,,77,127
97368,note_on,2,0,2,,,,,,,,,0,,,77,127
97390,note_on,22,0,1,,,,,,,,,11,,,77,0
97390,note_on,22,0,2,,,,,,,,,0,,,77,0
97392,note_on,2,0,1,,,,,,,,,11,,,75,127
97392,note_on,2,0,2,,,,,,,,,0,,,75,127
97414,note_on,22,0,1,,,,,,,,,11,,,75,0
97414,note_on,22,0,2,,,,,,,,,0,,,75,0
97416,note_on,2,0,1,,,,,,,,,11,,,74,127
97416,note_on,2,0,2,,,,,,,,,0,,,74,127
97438,note_on,94,0,6,,,,,,,,,8,,,39,0
97438,note_on,94,0,3,,,,,,,,,2,,,67,0
97438,note_on,94,0,5,,,,,,,,,6,,,51,0
97438,note_on,94,0,4,,,,,,,,,4,,,62,0
97438,note_on,22,0,2,,,,,,,,,0,,,74,0
97438,note_on,22,0,1,,,,,,,,,11,,,74,0
97440,note_on,2,0,1,,,,,,,,,11,,,75,127
97440,note_on,2,0,5,,,,,,,,,6,,,51,75
97440,note_on,2,0,2,,,,,,,,,0,,,75,127
97440,note_on,2,0,4,,,,,,,,,4,,,67,75
97440,note_on,2,0,3,,,,,,,,,2,,,67,127
97440,note_on,2,0,6,,,,,,,,,8,,,39,75
97462,note_on,22,0,1,,,,,,,,,11,,,75,0
97462,note_on,22,0,2,,,,,,,,,0,,,75,0
97464,note_on,2,0,1,,,,,,,,,11,,,74,127
97464,note_on,2,0,2,,,,,,,,,0,,,74,127
97486,note_on,22,0,1,,,,,,,,,11,,,74,0
97486,note_on,22,0,2,,,,,,,,,0,,,74,0
97488,note_on,2,0,1,,,,,,,,,11,,,72,127
97488,note_on,2,0,2,,,,,,,,,0,,,72,127
97510,note_on,22,0,1,,,,,,,,,11,,,72,0
97510,note_on,22,0,2,,,,,,,,,0,,,72,0
97512,note_on,2,0,2,,,,,,,,,0,,,70,127
97512,note_on,2,0,1,,,,,,,,,11,,,70,127
97534,note_on,94,0,5,,,,,,,,,6,,,51,0
97534,note_on,94,0,4,,,,,,,,,4,,,67,0
97534,note_on,22,0,2,,,,,,,,,0,,,70,0
97534,note_on,94,0,3,,,,,,,,,2,,,67,0
97534,note_on,94,0,6,,,,,,,,,8,,,39,0
97534,note_on,22,0,1,,,,,,,,,11,,,70,0
97536,note_on,2,0,3,,,,,,,,,2,,,75,127
97536,note_on,2,0,6,,,,,,,,,8,,,33,75
97536,note_on,2,0,5,,,,,,,,,6,,,45,75
97536,note_on,2,0,4,,,,,,,,,4,,,67,75
97536,note_on,2,0,2,,,,,,,,,0,,,72,127
97536,note_on,2,0,1,,,,,,,,,11,,,72,127
97558,note_on,22,0,3,,,,,,,,,2,,,75,0
97560,note_on,2,0,3,,,,,,,,,2,,,74,127
97582,note_on,22,0,3,,,,,,,,,2,,,74,0
97584,note_on,2,0,3,,,,,,,,,2,,,72,127
97606,note_on,22,0,3,,,,,,,,,2,,,72,0
97608,note_on,2,0,3,,,,,,,,,2,,,70,127
97630,note_on,94,0,1,,,,,,,,,11,,,72,0
97630,note_on,94,0,5,,,,,,,,,6,,,45,0
97630,note_on,94,0,6,,,,,,,,,8,,,33,0
97630,note_on,94,0,4,,,,,,,,,4,,,67,0
97630,note_on,22,0,3,,,,,,,,,2,,,70,0
97630,note_on,94,0,2,,,,,,,,,0,,,72,0
97632,note_on,2,0,3,,,,,,,,,2,,,72,127
97632,note_on,2,0,6,,,,,,,,,8,,,33,75
97632,note_on,2,0,4,,,,,,,,,4,,,67,75
97632,note_on,2,0,2,,,,,,,,,0,,,72,127
97632,note_on,2,0,5,,,,,,,,,6,,,45,75
97632,note_on,2,0,1,,,,,,,,,11,,,72,127
97654,note_on,22,0,3,,,,,,,,,2,,,72,0
97656,note_on,2,0,3,,,,,,,,,2,,,70,127
97678,note_on,22,0,3,,,,,,,,,2,,,70,0
97680,note_on,2,0,3,,,,,,,,,2,,,69,127
97702,note_on,22,0,3,,,,,,,,,2,,,69,0
97704,note_on,2,0,3,,,,,,,,,2,,,67,127
97726,note_on,94,0,6,,,,,,,,,8,,,33,0
97726,note_on,94,0,4,,,,,,,,,4,,,67,0
97726,note_on,94,0,2,,,,,,,,,0,,,72,0
97726,note_on,22,0,3,,,,,,,,,2,,,67,0
97726,note_on,94,0,1,,,,,,,,,11,,,72,0
97726,note_on,94,0,5,,,,,,,,,6,,,45,0
97728,note_on,2,0,4,,,,,,,,,4,,,60,75
97728,note_on,2,0,2,,,,,,,,,0,,,72,127
97728,note_on,2,0,3,,,,,,,,,2,,,69,127
97728,note_on,2,0,1,,,,,,,,,11,,,72,127
97728,note_on,2,0,6,,,,,,,,,8,,,33,75
97728,note_on,2,0,5,,,,,,,,,6,,,45,75
97750,note_on,22,0,3,,,,,,,,,2,,,69,0
97752,note_on,2,0,3,,,,,,,,,2,,,67,127
97774,note_on,22,0,3,,,,,,,,,2,,,67,0
97776,note_on,2,0,3,,,,,,,,,2,,,66,127
97798,note_on,22,0,3,,,,,,,,,2,,,66,0
97800,note_on,2,0,3,,,,,,,,,2,,,64,127
97822,note_on,94,0,4,,,,,,,,,4,,,60,0
97822,note_on,94,0,6,,,,,,,,,8,,,33,0
97822,note_on,22,0,3,,,,,,,,,2,,,64,0
97822,note_on,94,0,1,,,,,,,,,11,,,72,0
97822,note_on,94,0,2,,,,,,,,,0,,,72,0
97822,note_on,94,0,5,,,,,,,,,6,,,45,0
97824,note_on,2,0,1,,,,,,,,,11,,,81,127
97824,note_on,2,0,3,,,,,,,,,2,,,66,127
97824,note_on,2,0,4,,,,,,,,,4,,,60,75
97824,note_on,2,0,6,,,,,,,,,8,,,38,75
97824,note_on,2,0,2,,,,,,,,,0,,,81,127
97824,note_on,2,0,5,,,,,,,,,6,,,50,75
97846,note_on,22,0,1,,,,,,,,,11,,,81,0
97846,note_on,22,0,2,,,,,,,,,0,,,81,0
97848,note_on,2,0,2,,,,,,,,,0,,,79,127
97848,note_on,2,0,1,,,,,,,,,11,,,79,127
97870,note_on,22,0,1,,,,,,,,,11,,,79,0
97870,note_on,22,0,2,,,,,,,,,0,,,79,0
97872,note_on,2,0,2,,,,,,,,,0,,,78,127
97872,note_on,2,0,1,,,,,,,,,11,,,78,127
97894,note_on,22,0,2,,,,,,,,,0,,,78,0
97894,note_on,22,0,1,,,,,,,,,11,,,78,0
97896,note_on,2,0,2,,,,,,,,,0,,,76,127
97896,note_on,2,0,1,,,,,,,,,11,,,76,127
97918,note_on,94,0,5,,,,,,,,,6,,,50,0
97918,note_on,22,0,2,,,,,,,,,0,,,76,0
97918,note_on,94,0,6,,,,,,,,,8,,,38,0
97918,note_on,94,0,4,,,,,,,,,4,,,60,0
97918,note_on,22,0,1,,,,,,,,,11,,,76,0
97918,note_on,94,0,3,,,,,,,,,2,,,66,0
97920,note_on,2,0,1,,,,,,,,,11,,,78,127
97920,note_on,2,0,2,,,,,,,,,0,,,78,127
97920,note_on,2,0,5,,,,,,,,,6,,,50,75
97920,note_on,2,0,6,,,,,,,,,8,,,38,75
97920,note_on,2,0,3,,,,,,,,,2,,,66,127
97920,note_on,2,0,4,,,,,,,,,4,,,60,75
97942,note_on,22,0,2,,,,,,,,,0,,,78,0
97942,note_on,22,0,1,,,,,,,,,11,,,78,0
97944,note_on,2,0,2,,,,,,,,,0,,,76,127
97944,note_on,2,0,1,,,,,,,,,11,,,76,127
97966,note_on,22,0,1,,,,,,,,,11,,,76,0
97966,note_on,22,0,2,,,,,,,,,0,,,76,0
97968,note_on,2,0,2,,,,,,,,,0,,,74,127
97968,note_on,2,0,1,,,,,,,,,11,,,74,127
97990,note_on,22,0,1,,,,,,,,,11,,,74,0
97990,note_on,22,0,2,,,,,,,,,0,,,74,0
97992,note_on,2,0,2,,,,,,,,,0,,,72,127
97992,note_on,2,0,1,,,,,,,,,11,,,72,127
98014,note_on,94,0,5,,,,,,,,,6,,,50,0
98014,note_on,22,0,1,,,,,,,,,11,,,72,0
98014,note_on,22,0,2,,,,,,,,,0,,,72,0
98014,note_on,94,0,4,,,,,,,,,4,,,60,0
98014,note_on,94,0,6,,,,,,,,,8,,,38,0
98014,note_on,94,0,3,,,,,,,,,2,,,66,0
98016,note_on,2,0,6,,,,,,,,,8,,,38,75
98016,note_on,2,0,5,,,,,,,,,6,,,50,75
98016,note_on,2,0,4,,,,,,,,,4,,,66,75
98016,note_on,2,0,3,,,,,,,,,2,,,66,127
98016,note_on,2,0,1,,,,,,,,,11,,,74,127
98016,note_on,2,0,2,,,,,,,,,0,,,74,127
98038,note_on,22,0,2,,,,,,,,,0,,,74,0
98038,note_on,22,0,1,,,,,,,,,11,,,74,0
98040,note_on,2,0,1,,,,,,,,,11,,,72,127
98040,note_on,2,0,2,,,,,,,,,0,,,72,127
98062,note_on,22,0,1,,,,,,,,,11,,,72,0
98062,note_on,22,0,2,,,,,,,,,0,,,72,0
98064,note_on,2,0,1,,,,,,,,,11,,,70,127
98064,note_on,2,0,2,,,,,,,,,0,,,70,127
98086,note_on,22,0,1,,,,,,,,,11,,,70,0
98086,note_on,22,0,2,,,,,,,,,0,,,70,0
98088,note_on,2,0,1,,,,,,,,,11,,,69,127
98088,note_on,2,0,2,,,,,,,,,0,,,69,127
98110,note_on,22,0,2,,,,,,,,,0,,,69,0
98110,note_on,94,0,5,,,,,,,,,6,,,50,0
98110,note_on,22,0,1,,,,,,,,,11,,,69,0
98110,note_on,94,0,4,,,,,,,,,4,,,66,0
98110,note_on,94,0,3,,,,,,,,,2,,,66,0
98110,note_on,94,0,6,,,,,,,,,8,,,38,0
98112,note_on,2,0,2,,,,,,,,,0,,,70,127
98112,note_on,2,0,5,,,,,,,,,6,,,55,75
98112,note_on,2,0,1,,,,,,,,,11,,,70,127
98112,note_on,2,0,4,,,,,,,,,4,,,62,75
98112,note_on,2,0,3,,,,,,,,,2,,,67,127
98112,note_on,2,0,6,,,,,,,,,8,,,43,75
98206,note_on,94,0,2,,,,,,,,,0,,,70,0
98206,note_on,94,0,3,,,,,,,,,2,,,67,0
98206,note_on,94,0,1,,,,,,,,,11,,,70,0
98208,note_on,2,0,2,,,,,,,,,0,,,73,127
98208,note_on,2,0,3,,,,,,,,,2,,,73,127
98208,note_on,2,0,1,,,,,,,,,11,,,73,127
98272,note_on,160,0,4,,,,,,,,,4,,,62,0
98272,note_on,160,0,5,,,,,,,,,6,,,55,0
98272,note_on,160,0,6,,,,,,,,,8,,,43,0
98302,note_on,94,0,1,,,,,,,,,11,,,73,0
98302,note_on,94,0,3,,,,,,,,,2,,,73,0
98302,note_on,94,0,2,,,,,,,,,0,,,73,0
98304,note_on,2,0,3,,,,,,,,,2,,,74,127
98304,note_on,2,0,2,,,,,,,,,0,,,74,127
98304,note_on,2,0,1,,,,,,,,,11,,,74,127
98398,note_on,94,0,2,,,,,,,,,0,,,74,0
98398,note_on,94,0,3,,,,,,,,,2,,,74,0
98398,note_on,94,0,1,,,,,,,,,11,,,74,0
98400,note_on,2,0,2,,,,,,,,,0,,,69,127
98400,note_on,128,0,6,,,,,,,,,8,,,45,75
98400,note_on,128,0,5,,,,,,,,,6,,,57,75
98400,note_on,2,0,3,,,,,,,,,2,,,69,127
98400,note_on,128,0,4,,,,,,,,,4,,,69,75
98400,note_on,2,0,1,,,,,,,,,11,,,69,127
98494,note_on,94,0,5,,,,,,,,,6,,,57,0
98494,note_on,94,0,2,,,,,,,,,0,,,69,0
98494,note_on,94,0,1,,,,,,,,,11,,,69,0
98494,note_on,94,0,4,,,,,,,,,4,,,69,0
98494,note_on,94,0,6,,,,,,,,,8,,,45,0
98494,note_on,94,0,3,,,,,,,,,2,,,69,0
98496,note_on,2,0,3,,,,,,,,,2,,,73,127
98496,note_on,2,0,1,,,,,,,,,11,,,73,127
98496,note_on,2,0,2,,,,,,,,,0,,,73,127
98590,note_on,94,0,1,,,,,,,,,11,,,73,0
98590,note_on,94,0,3,,,,,,,,,2,,,73,0
98590,note_on,94,0,2,,,,,,,,,0,,,73,0
98592,note_on,2,0,1,,,,,,,,,11,,,74,127
98592,note_on,2,0,2,,,,,,,,,0,,,74,127
98592,note_on,2,0,3,,,,,,,,,2,,,74,127
98686,note_on,94,0,1,,,,,,,,,11,,,74,0
98686,note_on,94,0,3,,,,,,,,,2,,,74,0
98686,note_on,94,0,2,,,,,,,,,0,,,74,0
98688,note_on,194,0,6,,,,,,,,,8,,,43,75
98688,note_on,194,0,5,,,,,,,,,6,,,55,75
98688,note_on,2,0,1,,,,,,,,,11,,,67,127
98688,note_on,2,0,2,,,,,,,,,0,,,67,127
98688,note_on,2,0,3,,,,,,,,,2,,,67,127
98688,note_on,194,0,4,,,,,,,,,4,,,67,75
98782,note_on,94,0,2,,,,,,,,,0,,,67,0
98782,note_on,94,0,1,,,,,,,,,11,,,67,0
98782,note_on,94,0,3,,,,,,,,,2,,,67,0
98784,note_on,2,0,1,,,,,,,,,11,,,73,127
98784,note_on,2,0,3,,,,,,,,,2,,,73,127
98784,note_on,2,0,2,,,,,,,,,0,,,73,127
98848,note_on,160,0,4,,,,,,,,,4,,,67,0
98848,note_on,160,0,5,,,,,,,,,6,,,55,0
98848,note_on,160,0,6,,,,,,,,,8,,,43,0
98878,note_on,94,0,2,,,,,,,,,0,,,73,0
98878,note_on,94,0,1,,,,,,,,,11,,,73,0
98878,note_on,94,0,3,,,,,,,,,2,,,73,0
98880,note_on,2,0,2,,,,,,,,,0,,,74,127
98880,note_on,2,0,3,,,,,,,,,2,,,74,127
98880,note_on,2,0,1,,,,,,,,,11,,,74,127
98974,note_on,94,0,1,,,,,,,,,11,,,74,0
98974,note_on,94,0,2,,,,,,,,,0,,,74,0
98974,note_on,94,0,3,,,,,,,,,2,,,74,0
98976,note_on,2,0,2,,,,,,,,,0,,,62,127
98976,note_on,2,0,3,,,,,,,,,2,,,62,127
98976,note_on,2,0,1,,,,,,,,,11,,,62,127
98976,note_on,128,0,6,,,,,,,,,8,,,38,75
98976,note_on,128,0,4,,,,,,,,,4,,,66,75
98976,note_on,128,0,5,,,,,,,,,6,,,50,75
99022,note_on,46,0,5,,,,,,,,,6,,,50,0
99022,note_on,46,0,6,,,,,,,,,8,,,38,0
99024,note_on,2,0,5,,,,,,,,,6,,,51,75
99024,note_on,2,0,6,,,,,,,,,8,,,39,75
99070,note_on,46,0,5,,,,,,,,,6,,,51,0
99070,note_on,94,0,4,,,,,,,,,4,,,66,0
99070,note_on,46,0,6,,,,,,,,,8,,,39,0
99070,note_on,94,0,1,,,,,,,,,11,,,62,0
99070,note_on,94,0,3,,,,,,,,,2,,,62,0
99070,note_on,94,0,2,,,,,,,,,0,,,62,0
99072,note_on,2,0,6,,,,,,,,,8,,,38,75
99072,set_tempo,2976,1,0,618556,,,,,,,,,,,,
99072,note_on,2,0,5,,,,,,,,,6,,,50,75
99118,note_on,46,0,5,,,,,,,,,6,,,50,0
99118,note_on,46,0,6,,,,,,,,,8,,,38,0
99120,note_on,2,0,5,,,,,,,,,6,,,48,75
99120,note_on,2,0,6,,,,,,,,,8,,,36,75
99166,note_on,46,0,6,,,,,,,,,8,,,36,0
99166,note_on,46,0,5,,,,,,,,,6,,,48,0
99168,note_on,2,0,6,,,,,,,,,8,,,34,75
99168,note_on,2,0,5,,,,,,,,,6,,,46,75
99214,note_on,46,0,6,,,,,,,,,8,,,34,0
99214,note_on,46,0,5,,,,,,,,,6,,,46,0
99216,note_on,2,0,6,,,,,,,,,8,,,33,75
99216,note_on,2,0,5,,,,,,,,,6,,,45,75
99262,note_on,46,0,6,,,,,,,,,8,,,33,0
99262,note_on,46,0,5,,,,,,,,,6,,,45,0
99264,note_on,2,0,5,,,,,,,,,6,,,43,60
99264,note_on,194,0,1,,,,,,,,,11,,,62,60
99264,note_on,194,0,2,,,,,,,,,0,,,62,60
99264,note_on,194,0,3,,,,,,,,,2,,,58,60
99264,note_on,2,0,6,,,,,,,,,8,,,31,60
99264,note_on,194,0,4,,,,,,,,,4,,,55,60
99358,note_on,94,0,1,,,,,,,,,11,,,62,0
99358,note_on,94,0,3,,,,,,,,,2,,,58,0
99358,note_on,94,0,5,,,,,,,,,6,,,43,0
99358,note_on,94,0,2,,,,,,,,,0,,,62,0
99358,note_on,94,0,6,,,,,,,,,8,,,31,0
99360,note_on,2,0,2,,,,,,,,,0,,,62,60
99360,note_on,2,0,5,,,,,,,,,6,,,55,60
99360,note_on,2,0,3,,,,,,,,,2,,,58,60
99360,note_on,2,0,1,,,,,,,,,11,,,62,60
99360,note_on,2,0,6,,,,,,,,,8,,,43,60
99424,note_on,160,0,4,,,,,,,,,4,,,55,0
99454,note_on,94,0,5,,,,,,,,,6,,,55,0
99454,note_on,94,0,6,,,,,,,,,8,,,43,0
99454,note_on,94,0,3,,,,,,,,,2,,,58,0
99454,note_on,94,0,1,,,,,,,,,11,,,62,0
99454,note_on,94,0,2,,,,,,,,,0,,,62,0
99456,note_on,2,0,6,,,,,,,,,8,,,31,60
99456,note_on,2,0,2,,,,,,,,,0,,,63,60
99456,note_on,2,0,1,,,,,,,,,11,,,63,60
99456,note_on,2,0,3,,,,,,,,,2,,,60,60
99456,note_on,2,0,5,,,,,,,,,6,,,43,60
99456,note_on,32,0,4,,,,,,,,,4,,,55,60
99550,note_on,94,0,4,,,,,,,,,4,,,55,0
99550,note_on,94,0,5,,,,,,,,,6,,,43,0
99550,note_on,94,0,3,,,,,,,,,2,,,60,0
99550,note_on,94,0,2,,,,,,,,,0,,,63,0
99550,note_on,94,0,6,,,,,,,,,8,,,31,0
99550,note_on,94,0,1,,,,,,,,,11,,,63,0
99552,note_on,2,0,2,,,,,,,,,0,,,62,60
99552,note_on,2,0,1,,,,,,,,,11,,,62,60
99552,note_on,2,0,3,,,,,,,,,2,,,58,60
99552,note_on,2,0,4,,,,,,,,,4,,,55,60
99552,note_on,2,0,6,,,,,,,,,8,,,31,60
99552,note_on,2,0,5,,,,,,,,,6,,,43,60
99646,note_on,94,0,6,,,,,,,,,8,,,31,0
99646,note_on,94,0,3,,,,,,,,,2,,,58,0
99646,note_on,94,0,2,,,,,,,,,0,,,62,0
99646,note_on,94,0,5,,,,,,,,,6,,,43,0
99646,note_on,94,0,1,,,,,,,,,11,,,62,0
99648,note_on,2,0,5,,,,,,,,,6,,,55,60
99648,note_on,2,0,1,,,,,,,,,11,,,62,60
99648,note_on,2,0,3,,,,,,,,,2,,,58,60
99648,note_on,2,0,6,,,,,,,,,8,,,43,60
99648,note_on,2,0,2,,,,,,,,,0,,,62,60
99712,note_on,160,0,4,,,,,,,,,4,,,55,0
99742,note_on,94,0,1,,,,,,,,,11,,,62,0
99742,note_on,94,0,5,,,,,,,,,6,,,55,0
99742,note_on,94,0,6,,,,,,,,,8,,,43,0
99742,note_on,94,0,2,,,,,,,,,0,,,62,0
99742,note_on,94,0,3,,,,,,,,,2,,,58,0
99744,note_on,2,0,5,,,,,,,,,6,,,43,60
99744,note_on,2,0,6,,,,,,,,,8,,,31,60
99744,note_on,2,0,1,,,,,,,,,11,,,63,60
99744,note_on,32,0,4,,,,,,,,,4,,,55,60
99744,note_on,2,0,3,,,,,,,,,2,,,60,60
99744,note_on,2,0,2,,,,,,,,,0,,,63,60
99838,note_on,94,0,1,,,,,,,,,11,,,63,0
99838,note_on,94,0,4,,,,,,,,,4,,,55,0
99838,note_on,94,0,5,,,,,,,,,6,,,43,0
99838,note_on,94,0,6,,,,,,,,,8,,,31,0
99838,note_on,94,0,3,,,,,,,,,2,,,60,0
99838,note_on,94,0,2,,,,,,,,,0,,,63,0
99840,note_on,2,0,6,,,,,,,,,8,,,31,60
99840,note_on,2,0,3,,,,,,,,,2,,,58,60
99840,note_on,2,0,2,,,,,,,,,0,,,62,60
99840,note_on,2,0,5,,,,,,,,,6,,,43,60
99840,note_on,2,0,4,,,,,,,,,4,,,55,60
99840,note_on,2,0,1,,,,,,,,,11,,,62,60
99886,note_on,46,0,2,,,,,,,,,0,,,62,0
99886,note_on,46,0,3,,,,,,,,,2,,,58,0
99886,note_on,46,0,1,,,,,,,,,11,,,62,0
99888,note_on,2,0,3,,,,,,,,,2,,,79,127
99888,note_on,2,0,1,,,,,,,,,11,,,79,127
99888,note_on,2,0,2,,,,,,,,,0,,,79,127
99934,note_on,46,0,1,,,,,,,,,11,,,79,0
99934,note_on,46,0,2,,,,,,,,,0,,,79,0
99934,note_on,46,0,3,,,,,,,,,2,,,79,0
99936,note_on,2,0,1,,,,,,,,,11,,,82,127
99936,note_on,2,0,2,,,,,,,,,0,,,82,127
99936,note_on,2,0,3,,,,,,,,,2,,,82,127
99982,note_on,46,0,1,,,,,,,,,11,,,82,0
99982,note_on,142,0,6,,,,,,,,,8,,,31,0
99982,note_on,46,0,3,,,,,,,,,2,,,82,0
99982,note_on,46,0,2,,,,,,,,,0,,,82,0
99982,note_on,142,0,5,,,,,,,,,6,,,43,0
99982,note_on,142,0,4,,,,,,,,,4,,,55,0
99984,note_on,2,0,4,,,,,,,,,4,,,62,127
99984,note_on,2,0,3,,,,,,,,,2,,,79,127
99984,note_on,2,0,5,,,,,,,,,6,,,46,127
99984,note_on,2,0,6,,,,,,,,,8,,,34,127
99984,note_on,2,0,1,,,,,,,,,11,,,79,127
99984,note_on,2,0,2,,,,,,,,,0,,,79,127
100030,note_on,46,0,6,,,,,,,,,8,,,34,0
100030,note_on,46,0,3,,,,,,,,,2,,,79,0
100030,note_on,46,0,1,,,,,,,,,11,,,79,0
100030,note_on,46,0,2,,,,,,,,,0,,,79,0
100030,note_on,46,0,5,,,,,,,,,6,,,46,0
100030,note_on,46,0,4,,,,,,,,,4,,,62,0
100032,note_on,2,0,5,,,,,,,,,6,,,48,127
100032,note_on,2,0,3,,,,,,,,,2,,,81,127
100032,note_on,2,0,1,,,,,,,,,11,,,81,127
100032,note_on,2,0,2,,,,,,,,,0,,,81,127
100032,note_on,2,0,6,,,,,,,,,8,,,36,127
100032,note_on,2,0,4,,,,,,,,,4,,,63,127
100078,note_on,46,0,3,,,,,,,,,2,,,81,0
100078,note_on,46,0,1,,,,,,,,,11,,,81,0
100078,note_on,46,0,5,,,,,,,,,6,,,48,0
100078,note_on,46,0,4,,,,,,,,,4,,,63,0
100078,note_on,46,0,2,,,,,,,,,0,,,81,0
100078,note_on,46,0,6,,,,,,,,,8,,,36,0
100080,note_on,2,0,2,,,,,,,,,0,,,78,127
100080,note_on,2,0,1,,,,,,,,,11,,,78,127
100080,note_on,2,0,5,,,,,,,,,6,,,50,127
100080,note_on,2,0,3,,,,,,,,,2,,,78,127
100080,note_on,2,0,4,,,,,,,,,4,,,57,127
100080,note_on,2,0,6,,,,,,,,,8,,,38,127
100126,note_on,46,0,6,,,,,,,,,8,,,38,0
100126,note_on,46,0,2,,,,,,,,,0,,,78,0
100126,note_on,46,0,5,,,,,,,,,6,,,50,0
100126,note_on,46,0,1,,,,,,,,,11,,,78,0
100126,note_on,46,0,4,,,,,,,,,4,,,57,0
100126,note_on,46,0,3,,,,,,,,,2,,,78,0
100128,note_on,2,0,5,,,,,,,,,6,,,43,127
100128,note_on,2,0,6,,,,,,,,,8,,,31,127
100128,note_on,2,0,4,,,,,,,,,4,,,58,127
100128,note_on,2,0,2,,,,,,,,,0,,,79,127
100128,note_on,2,0,1,,,,,,,,,11,,,79,127
100128,note_on,2,0,3,,,,,,,,,2,,,67,127
100222,note_on,94,0,3,,,,,,,,,2,,,67,0
100222,note_on,94,0,6,,,,,,,,,8,,,31,0
100222,note_on,94,0,2,,,,,,,,,0,,,79,0
100222,note_on,94,0,5,,,,,,,,,6,,,43,0
100222,note_on,94,0,1,,,,,,,,,11,,,79,0
100224,note_on,2,0,3,,,,,,,,,2,,,58,60
100224,note_on,2,0,6,,,,,,,,,8,,,43,60
100224,note_on,2,0,5,,,,,,,,,6,,,55,60
100224,set_tempo,1152,1,0,612244,,,,,,,,,,,,
100224,note_on,2,0,2,,,,,,,,,0,,,62,60
100224,note_on,2,0,1,,,,,,,,,11,,,62,60
100288,note_on,160,0,4,,,,,,,,,4,,,58,0
100318,note_on,94,0,2,,,,,,,,,0,,,62,0
100318,note_on,94,0,3,,,,,,,,,2,,,58,0
100318,note_on,94,0,6,,,,,,,,,8,,,43,0
100318,note_on,94,0,5,,,,,,,,,6,,,55,0
100318,note_on,94,0,1,,,,,,,,,11,,,62,0
100320,note_on,2,0,1,,,,,,,,,11,,,63,60
100320,note_on,2,0,5,,,,,,,,,6,,,43,60
100320,note_on,2,0,3,,,,,,,,,2,,,60,60
100320,note_on,32,0,4,,,,,,,,,4,,,55,60
100320,note_on,2,0,2,,,,,,,,,0,,,63,60
100320,note_on,2,0,6,,,,,,,,,8,,,31,60
100414,note_on,94,0,1,,,,,,,,,11,,,63,0
100414,note_on,94,0,5,,,,,,,,,6,,,43,0
100414,note_on,94,0,2,,,,,,,,,0,,,63,0
100414,note_on,94,0,4,,,,,,,,,4,,,55,0
100414,note_on,94,0,3,,,,,,,,,2,,,60,0
100414,note_on,94,0,6,,,,,,,,,8,,,31,0
100416,note_on,2,0,4,,,,,,,,,4,,,55,60
100416,note_on,2,0,2,,,,,,,,,0,,,62,60
100416,note_on,2,0,3,,,,,,,,,2,,,58,60
100416,note_on,2,0,5,,,,,,,,,6,,,43,60
100416,note_on,2,0,1,,,,,,,,,11,,,62,60
100416,note_on,2,0,6,,,,,,,,,8,,,31,60
100510,note_on,94,0,5,,,,,,,,,6,,,43,0
100510,note_on,94,0,2,,,,,,,,,0,,,62,0
100510,note_on,94,0,1,,,,,,,,,11,,,62,0
100510,note_on,94,0,3,,,,,,,,,2,,,58,0
100510,note_on,94,0,6,,,,,,,,,8,,,31,0
100512,note_on,2,0,1,,,,,,,,,11,,,62,60
100512,note_on,2,0,3,,,,,,,,,2,,,58,60
100512,note_on,2,0,6,,,,,,,,,8,,,43,60
100512,note_on,2,0,2,,,,,,,,,0,,,62,60
100512,note_on,2,0,5,,,,,,,,,6,,,55,60
100576,note_on,160,0,4,,,,,,,,,4,,,55,0
100606,note_on,94,0,2,,,,,,,,,0,,,62,0
100606,note_on,94,0,1,,,,,,,,,11,,,62,0
100606,note_on,94,0,6,,,,,,,,,8,,,43,0
100606,note_on,94,0,3,,,,,,,,,2,,,58,0
100606,note_on,94,0,5,,,,,,,,,6,,,55,0
100608,note_on,2,0,1,,,,,,,,,11,,,63,60
100608,note_on,32,0,4,,,,,,,,,4,,,55,60
100608,note_on,2,0,3,,,,,,,,,2,,,60,60
100608,note_on,2,0,6,,,,,,,,,8,,,31,60
100608,note_on,2,0,2,,,,,,,,,0,,,63,60
100608,note_on,2,0,5,,,,,,,,,6,,,43,60
100702,note_on,94,0,5,,,,,,,,,6,,,43,0
100702,note_on,94,0,6,,,,,,,,,8,,,31,0
100702,note_on,94,0,2,,,,,,,,,0,,,63,0
100702,note_on,94,0,1,,,,,,,,,11,,,63,0
100702,note_on,94,0,4,,,,,,,,,4,,,55,0
100702,note_on,94,0,3,,,,,,,,,2,,,60,0
100704,note_on,2,0,6,,,,,,,,,8,,,31,60
100704,note_on,2,0,2,,,,,,,,,0,,,62,60
100704,note_on,2,0,1,,,,,,,,,11,,,62,60
100704,note_on,2,0,3,,,,,,,,,2,,,58,60
100704,note_on,2,0,4,,,,,,,,,4,,,55,60
100704,note_on,2,0,5,,,,,,,,,6,,,43,60
100750,note_on,46,0,1,,,,,,,,,11,,,62,0
100750,note_on,46,0,2,,,,,,,,,0,,,62,0
100750,note_on,46,0,3,,,,,,,,,2,,,58,0
100752,note_on,2,0,2,,,,,,,,,0,,,79,60
100752,note_on,2,0,1,,,,,,,,,11,,,79,60
100752,note_on,2,0,3,,,,,,,,,2,,,79,60
100798,note_on,94,0,5,,,,,,,,,6,,,43,0
100798,note_on,46,0,2,,,,,,,,,0,,,79,0
100798,note_on,46,0,3,,,,,,,,,2,,,79,0
100798,note_on,94,0,6,,,,,,,,,8,,,31,0
100798,note_on,94,0,4,,,,,,,,,4,,,55,0
100798,note_on,46,0,1,,,,,,,,,11,,,79,0
100800,note_on,2,0,1,,,,,,,,,11,,,82,60
100800,note_on,2,0,2,,,,,,,,,0,,,82,60
100800,note_on,2,0,3,,,,,,,,,2,,,82,60
100846,note_on,46,0,1,,,,,,,,,11,,,82,0
100846,note_on,46,0,3,,,,,,,,,2,,,82,0
100846,note_on,46,0,2,,,,,,,,,0,,,82,0
100848,note_on,2,0,1,,,,,,,,,11,,,79,60
100848,note_on,2,0,3,,,,,,,,,2,,,79,60
100848,note_on,50,0,4,,,,,,,,,4,,,62,60
100848,note_on,50,0,6,,,,,,,,,8,,,34,60
100848,note_on,50,0,5,,,,,,,,,6,,,46,60
100848,note_on,2,0,2,,,,,,,,,0,,,79,60
100894,note_on,46,0,5,,,,,,,,,6,,,46,0
100894,note_on,46,0,3,,,,,,,,,2,,,79,0
100894,note_on,46,0,6,,,,,,,,,8,,,34,0
100894,note_on,46,0,2,,,,,,,,,0,,,79,0
100894,note_on,46,0,4,,,,,,,,,4,,,62,0
100894,note_on,46,0,1,,,,,,,,,11,,,79,0
100896,note_on,2,0,3,,,,,,,,,2,,,81,60
100896,note_on,2,0,1,,,,,,,,,11,,,81,60
100896,note_on,2,0,6,,,,,,,,,8,,,36,60
100896,note_on,2,0,4,,,,,,,,,4,,,63,60
100896,note_on,2,0,5,,,,,,,,,6,,,48,60
100896,note_on,2,0,2,,,,,,,,,0,,,81,60
100942,note_on,46,0,2,,,,,,,,,0,,,81,0
100942,note_on,46,0,3,,,,,,,,,2,,,81,0
100942,note_on,46,0,4,,,,,,,,,4,,,63,0
100942,note_on,46,0,5,,,,,,,,,6,,,48,0
100942,note_on,46,0,6,,,,,,,,,8,,,36,0
100942,note_on,46,0,1,,,,,,,,,11,,,81,0
100944,note_on,2,0,5,,,,,,,,,6,,,50,60
100944,note_on,2,0,4,,,,,,,,,4,,,57,60
100944,note_on,2,0,6,,,,,,,,,8,,,38,60
100944,note_on,2,0,1,,,,,,,,,11,,,78,60
100944,note_on,2,0,2,,,,,,,,,0,,,78,60
100944,note_on,2,0,3,,,,,,,,,2,,,78,60
100990,note_on,46,0,6,,,,,,,,,8,,,38,0
100990,note_on,46,0,1,,,,,,,,,11,,,78,0
100990,note_on,46,0,3,,,,,,,,,2,,,78,0
100990,note_on,46,0,5,,,,,,,,,6,,,50,0
100990,note_on,46,0,2,,,,,,,,,0,,,78,0
100990,note_on,46,0,4,,,,,,,,,4,,,57,0
100992,note_on,2,0,2,,,,,,,,,0,,,79,60
100992,note_on,2,0,5,,,,,,,,,6,,,43,60
100992,note_on,2,0,6,,,,,,,,,8,,,31,60
100992,note_on,2,0,1,,,,,,,,,11,,,79,60
100992,note_on,2,0,4,,,,,,,,,4,,,58,60
100992,note_on,2,0,3,,,,,,,,,2,,,79,60
100992,set_tempo,768,1,0,600000,,,,,,,,,,,,
101152,note_on,160,0,6,,,,,,,,,8,,,31,0
101152,note_on,160,0,5,,,,,,,,,6,,,43,0
101152,note_on,160,0,4,,,,,,,,,4,,,58,0
101152,note_on,160,0,3,,,,,,,,,2,,,79,0
101152,note_on,160,0,1,,,,,,,,,11,,,79,0
101152,note_on,160,0,2,,,,,,,,,0,,,79,0
101280,note_on,128,0,1,,,,,,,,,11,,,79,127
101280,note_on,128,0,5,,,,,,,,,6,,,43,75
101374,note_on,94,0,5,,,,,,,,,6,,,43,0
101422,note_on,142,0,1,,,,,,,,,11,,,79,0
101424,note_on,2,0,1,,,,,,,,,11,,,77,127
101470,note_on,46,0,1,,,,,,,,,11,,,77,0
101472,note_on,2,0,1,,,,,,,,,11,,,75,127
101566,note_on,94,0,1,,,,,,,,,11,,,75,0
101568,note_on,2,0,1,,,,,,,,,11,,,74,127
101568,note_on,194,0,5,,,,,,,,,6,,,43,75
101710,note_on,142,0,1,,,,,,,,,11,,,74,0
101712,note_on,2,0,1,,,,,,,,,11,,,72,127
101728,note_on,160,0,5,,,,,,,,,6,,,43,0
101758,note_on,46,0,1,,,,,,,,,11,,,72,0
101760,note_on,2,0,1,,,,,,,,,11,,,70,127
101854,note_on,94,0,1,,,,,,,,,11,,,70,0
101856,note_on,128,0,5,,,,,,,,,6,,,60,75
101856,note_on,2,0,1,,,,,,,,,11,,,75,127
101950,note_on,94,0,5,,,,,,,,,6,,,60,0
101952,note_on,2,0,5,,,,,,,,,6,,,54,75
101998,note_on,142,0,1,,,,,,,,,11,,,75,0
102000,note_on,2,0,1,,,,,,,,,11,,,74,127
102046,note_on,46,0,1,,,,,,,,,11,,,74,0
102046,note_on,94,0,5,,,,,,,,,6,,,54,0
102048,note_on,2,0,1,,,,,,,,,11,,,72,127
102048,note_on,2,0,5,,,,,,,,,6,,,50,75
102142,note_on,94,0,1,,,,,,,,,11,,,72,0
102142,note_on,94,0,5,,,,,,,,,6,,,50,0
102144,note_on,2,0,5,,,,,,,,,6,,,55,75
102144,note_on,2,0,1,,,,,,,,,11,,,70,127
102286,note_on,142,0,1,,,,,,,,,11,,,70,0
102288,note_on,2,0,1,,,,,,,,,11,,,69,127
102304,note_on,160,0,5,,,,,,,,,6,,,55,0
102334,note_on,46,0,1,,,,,,,,,11,,,69,0
102336,note_on,32,0,5,,,,,,,,,6,,,43,75
102336,note_on,2,0,1,,,,,,,,,11,,,67,127
102430,note_on,94,0,5,,,,,,,,,6,,,43,0
102430,note_on,94,0,1,,,,,,,,,11,,,67,0
102432,note_on,2,0,5,,,,,,,,,6,,,55,75
102432,note_on,2,0,1,,,,,,,,,11,,,79,127
102462,note_on,30,0,1,,,,,,,,,11,,,79,0
102464,note_on,2,0,1,,,,,,,,,11,,,81,127
102494,note_on,30,0,1,,,,,,,,,11,,,81,0
102496,note_on,2,0,1,,,,,,,,,11,,,82,127
102526,note_on,30,0,1,,,,,,,,,11,,,82,0
102526,note_on,94,0,5,,,,,,,,,6,,,55,0
102528,note_on,2,0,5,,,,,,,,,6,,,49,75
102528,note_on,2,0,1,,,,,,,,,11,,,82,127
102558,note_on,30,0,1,,,,,,,,,11,,,82,0
102560,note_on,2,0,1,,,,,,,,,11,,,81,127
102590,note_on,30,0,1,,,,,,,,,11,,,81,0
102592,note_on,2,0,1,,,,,,,,,11,,,79,127
102622,note_on,30,0,1,,,,,,,,,11,,,79,0
102622,note_on,94,0,5,,,,,,,,,6,,,49,0
102624,note_on,2,0,5,,,,,,,,,6,,,50,75
102624,note_on,2,0,1,,,,,,,,,11,,,78,127
102654,note_on,30,0,1,,,,,,,,,11,,,78,0
102656,note_on,2,0,1,,,,,,,,,11,,,79,127
102686,note_on,30,0,1,,,,,,,,,11,,,79,0
102688,note_on,2,0,1,,,,,,,,,11,,,81,127
102718,note_on,30,0,1,,,,,,,,,11,,,81,0
102718,note_on,94,0,5,,,,,,,,,6,,,50,0
102720,note_on,2,0,1,,,,,,,,,11,,,79,127
102720,note_on,2,0,5,,,,,,,,,6,,,55,75
102750,note_on,30,0,1,,,,,,,,,11,,,79,0
102752,note_on,2,0,1,,,,,,,,,11,,,81,127
102782,note_on,30,0,1,,,,,,,,,11,,,81,0
102784,note_on,2,0,1,,,,,,,,,11,,,82,127
102814,note_on,94,0,5,,,,,,,,,6,,,55,0
102814,note_on,30,0,1,,,,,,,,,11,,,82,0
102816,note_on,2,0,5,,,,,,,,,6,,,43,75
102816,note_on,2,0,1,,,,,,,,,11,,,82,127
102846,note_on,30,0,1,,,,,,,,,11,,,82,0
102848,note_on,2,0,1,,,,,,,,,11,,,81,127
102878,note_on,30,0,1,,,,,,,,,11,,,81,0
102880,note_on,2,0,1,,,,,,,,,11,,,79,127
102910,note_on,94,0,5,,,,,,,,,6,,,43,0
102910,note_on,30,0,1,,,,,,,,,11,,,79,0
102912,note_on,2,0,1,,,,,,,,,11,,,75,127
102912,note_on,2,0,5,,,,,,,,,6,,,55,75
102942,note_on,30,0,1,,,,,,,,,11,,,75,0
102944,note_on,2,0,1,,,,,,,,,11,,,74,127
102958,note_on,46,0,5,,,,,,,,,6,,,55,0
102960,note_on,2,0,5,,,,,,,,,6,,,57,75
102974,note_on,30,0,1,,,,,,,,,11,,,74,0
102976,note_on,2,0,1,,,,,,,,,11,,,73,127
103006,note_on,30,0,1,,,,,,,,,11,,,73,0
103006,note_on,46,0,5,,,,,,,,,6,,,57,0
103008,note_on,2,0,1,,,,,,,,,11,,,73,127
103008,note_on,2,0,5,,,,,,,,,6,,,54,75
103054,note_on,46,0,5,,,,,,,,,6,,,54,0
103056,note_on,2,0,5,,,,,,,,,6,,,55,75
103102,note_on,46,0,5,,,,,,,,,6,,,55,0
103102,note_on,94,0,1,,,,,,,,,11,,,73,0
103104,note_on,2,0,5,,,,,,,,,6,,,57,75
103104,note_on,2,0,1,,,,,,,,,11,,,74,127
103150,note_on,46,0,5,,,,,,,,,6,,,57,0
103152,note_on,2,0,5,,,,,,,,,6,,,54,75
103198,note_on,46,0,5,,,,,,,,,6,,,54,0
103200,note_on,2,0,5,,,,,,,,,6,,,52,75
103246,note_on,46,0,5,,,,,,,,,6,,,52,0
103248,note_on,2,0,5,,,,,,,,,6,,,50,75
103264,note_on,160,0,1,,,,,,,,,11,,,74,0
103294,note_on,46,0,5,,,,,,,,,6,,,50,0
103296,note_on,32,0,1,,,,,,,,,11,,,74,127
103296,note_on,2,0,5,,,,,,,,,6,,,55,75
103326,note_on,30,0,1,,,,,,,,,11,,,74,0
103328,note_on,2,0,1,,,,,,,,,11,,,77,127
103358,note_on,30,0,1,,,,,,,,,11,,,77,0
103360,note_on,2,0,1,,,,,,,,,11,,,83,127
103390,note_on,30,0,1,,,,,,,,,11,,,83,0
103392,note_on,2,0,1,,,,,,,,,11,,,84,127
103414,note_on,22,0,1,,,,,,,,,11,,,84,0
103416,note_on,2,0,1,,,,,,,,,11,,,83,127
103438,note_on,22,0,1,,,,,,,,,11,,,83,0
103440,note_on,0,0,1,,,,,,,,,11,,,84,127
103440,note_on,2,0,1,,,,,,,,,11,,,83,127
103456,note_on,160,0,5,,,,,,,,,6,,,55,0
103462,note_on,0,0,1,,,,,,,,,11,,,84,0
103462,note_on,22,0,1,,,,,,,,,11,,,83,0
103464,note_on,2,0,1,,,,,,,,,11,,,84,127
103486,note_on,22,0,1,,,,,,,,,11,,,84,0
103488,note_on,2,0,1,,,,,,,,,11,,,83,127
103488,note_on,32,0,5,,,,,,,,,6,,,53,75
103582,note_on,94,0,1,,,,,,,,,11,,,83,0
103582,note_on,94,0,5,,,,,,,,,6,,,53,0
103584,note_on,2,0,5,,,,,,,,,6,,,52,75
103584,note_on,2,0,1,,,,,,,,,11,,,67,127
103614,note_on,30,0,1,,,,,,,,,11,,,67,0
103616,note_on,2,0,1,,,,,,,,,11,,,72,127
103646,note_on,30,0,1,,,,,,,,,11,,,72,0
103648,note_on,2,0,1,,,,,,,,,11,,,76,127
103678,note_on,30,0,1,,,,,,,,,11,,,76,0
103678,note_on,94,0,5,,,,,,,,,6,,,52,0
103680,note_on,2,0,5,,,,,,,,,6,,,50,75
103680,note_on,2,0,1,,,,,,,,,11,,,77,127
103702,note_on,22,0,1,,,,,,,,,11,,,77,0
103704,note_on,2,0,1,,,,,,,,,11,,,76,127
103726,note_on,22,0,1,,,,,,,,,11,,,76,0
103728,note_on,0,0,1,,,,,,,,,11,,,77,127
103728,note_on,2,0,1,,,,,,,,,11,,,76,127
103750,note_on,0,0,1,,,,,,,,,11,,,77,0
103750,note_on,22,0,1,,,,,,,,,11,,,76,0
103752,note_on,2,0,1,,,,,,,,,11,,,77,127
103774,note_on,22,0,1,,,,,,,,,11,,,77,0
103774,note_on,94,0,5,,,,,,,,,6,,,50,0
103776,note_on,2,0,1,,,,,,,,,11,,,76,127
103776,note_on,2,0,5,,,,,,,,,6,,,48,75
103870,note_on,94,0,5,,,,,,,,,6,,,48,0
103870,note_on,94,0,1,,,,,,,,,11,,,76,0
103872,note_on,2,0,1,,,,,,,,,11,,,72,127
103872,note_on,2,0,5,,,,,,,,,6,,,53,75
103902,note_on,30,0,1,,,,,,,,,11,,,72,0
103904,note_on,2,0,1,,,,,,,,,11,,,77,127
103934,note_on,30,0,1,,,,,,,,,11,,,77,0
103936,note_on,2,0,1,,,,,,,,,11,,,81,127
103966,note_on,30,0,1,,,,,,,,,11,,,81,0
103968,note_on,2,0,1,,,,,,,,,11,,,82,127
103990,note_on,22,0,1,,,,,,,,,11,,,82,0
103992,note_on,2,0,1,,,,,,,,,11,,,81,127
104014,note_on,22,0,1,,,,,,,,,11,,,81,0
104016,note_on,2,0,1,,,,,,,,,11,,,81,127
104016,note_on,0,0,1,,,,,,,,,11,,,82,127
104032,note_on,160,0,5,,,,,,,,,6,,,53,0
104038,note_on,22,0,1,,,,,,,,,11,,,81,0
104038,note_on,0,0,1,,,,,,,,,11,,,82,0
104040,note_on,2,0,1,,,,,,,,,11,,,82,127
104062,note_on,22,0,1,,,,,,,,,11,,,82,0
104064,note_on,32,0,5,,,,,,,,,6,,,51,75
104064,note_on,2,0,1,,,,,,,,,11,,,81,127
104158,note_on,94,0,1,,,,,,,,,11,,,81,0
104158,note_on,94,0,5,,,,,,,,,6,,,51,0
104160,note_on,2,0,5,,,,,,,,,6,,,50,75
104160,note_on,2,0,1,,,,,,,,,11,,,65,127
104190,note_on,30,0,1,,,,,,,,,11,,,65,0
104192,note_on,2,0,1,,,,,,,,,11,,,70,127
104222,note_on,30,0,1,,,,,,,,,11,,,70,0
104224,note_on,2,0,1,,,,,,,,,11,,,74,127
104254,note_on,30,0,1,,,,,,,,,11,,,74,0
104254,note_on,94,0,5,,,,,,,,,6,,,50,0
104256,note_on,2,0,5,,,,,,,,,6,,,48,75
104256,note_on,2,0,1,,,,,,,,,11,,,75,127
104278,note_on,22,0,1,,,,,,,,,11,,,75,0
104280,note_on,2,0,1,,,,,,,,,11,,,74,127
104302,note_on,22,0,1,,,,,,,,,11,,,74,0
104304,note_on,2,0,1,,,,,,,,,11,,,74,127
104304,note_on,0,0,1,,,,,,,,,11,,,75,127
104326,note_on,22,0,1,,,,,,,,,11,,,74,0
104326,note_on,0,0,1,,,,,,,,,11,,,75,0
104328,note_on,2,0,1,,,,,,,,,11,,,75,127
104350,note_on,94,0,5,,,,,,,,,6,,,48,0
104350,note_on,22,0,1,,,,,,,,,11,,,75,0
104352,note_on,2,0,1,,,,,,,,,11,,,74,127
104352,note_on,2,0,5,,,,,,,,,6,,,46,75
104446,note_on,94,0,5,,,,,,,,,6,,,46,0
104446,note_on,94,0,1,,,,,,,,,11,,,74,0
104448,note_on,2,0,5,,,,,,,,,6,,,50,75
104448,note_on,2,0,1,,,,,,,,,11,,,70,127
104478,note_on,30,0,1,,,,,,,,,11,,,70,0
104480,note_on,2,0,1,,,,,,,,,11,,,77,127
104510,note_on,30,0,1,,,,,,,,,11,,,77,0
104512,note_on,2,0,1,,,,,,,,,11,,,80,127
104542,note_on,30,0,1,,,,,,,,,11,,,80,0
104544,note_on,2,0,1,,,,,,,,,11,,,82,127
104566,note_on,22,0,1,,,,,,,,,11,,,82,0
104568,note_on,2,0,1,,,,,,,,,11,,,80,127
104590,note_on,22,0,1,,,,,,,,,11,,,80,0
104592,note_on,2,0,1,,,,,,,,,11,,,80,127
104592,note_on,0,0,1,,,,,,,,,11,,,82,127
104608,note_on,160,0,5,,,,,,,,,6,,,50,0
104614,note_on,22,0,1,,,,,,,,,11,,,80,0
104614,note_on,0,0,1,,,,,,,,,11,,,82,0
104616,note_on,2,0,1,,,,,,,,,11,,,82,127
104638,note_on,22,0,1,,,,,,,,,11,,,82,0
104640,note_on,32,0,5,,,,,,,,,6,,,46,75
104640,note_on,2,0,1,,,,,,,,,11,,,80,127
104734,note_on,94,0,1,,,,,,,,,11,,,80,0
104734,note_on,94,0,5,,,,,,,,,6,,,46,0
104736,note_on,2,0,5,,,,,,,,,6,,,51,75
104736,note_on,2,0,1,,,,,,,,,11,,,79,127
104766,note_on,30,0,1,,,,,,,,,11,,,79,0
104768,note_on,2,0,1,,,,,,,,,11,,,81,127
104798,note_on,30,0,1,,,,,,,,,11,,,81,0
104800,note_on,2,0,1,,,,,,,,,11,,,82,127
104830,note_on,30,0,1,,,,,,,,,11,,,82,0
104832,note_on,2,0,1,,,,,,,,,11,,,79,127
104862,note_on,30,0,1,,,,,,,,,11,,,79,0
104864,note_on,2,0,1,,,,,,,,,11,,,77,127
104894,note_on,30,0,1,,,,,,,,,11,,,77,0
104896,note_on,160,0,5,,,,,,,,,6,,,51,0
104896,note_on,2,0,1,,,,,,,,,11,,,75,127
104926,note_on,30,0,1,,,,,,,,,11,,,75,0
104928,note_on,2,0,1,,,,,,,,,11,,,74,127
104928,note_on,32,0,5,,,,,,,,,6,,,52,75
104958,note_on,30,0,1,,,,,,,,,11,,,74,0
104960,note_on,2,0,1,,,,,,,,,11,,,72,127
104990,note_on,30,0,1,,,,,,,,,11,,,72,0
104992,note_on,2,0,1,,,,,,,,,11,,,70,127
105022,note_on,30,0,1,,,,,,,,,11,,,70,0
105022,note_on,94,0,5,,,,,,,,,6,,,52,0
105024,note_on,2,0,5,,,,,,,,,6,,,53,75
105024,note_on,2,0,1,,,,,,,,,11,,,69,127
105070,note_on,46,0,5,,,,,,,,,6,,,53,0
105070,note_on,46,0,1,,,,,,,,,11,,,69,0
105072,note_on,2,0,5,,,,,,,,,6,,,55,75
105072,note_on,2,0,1,,,,,,,,,11,,,67,127
105118,note_on,46,0,5,,,,,,,,,6,,,55,0
105118,note_on,46,0,1,,,,,,,,,11,,,67,0
105120,note_on,2,0,5,,,,,,,,,6,,,57,75
105120,note_on,2,0,1,,,,,,,,,11,,,65,127
105166,note_on,46,0,5,,,,,,,,,6,,,57,0
105168,note_on,2,0,5,,,,,,,,,6,,,58,75
105214,note_on,94,0,1,,,,,,,,,11,,,65,0
105214,note_on,46,0,5,,,,,,,,,6,,,58,0
105216,note_on,2,0,5,,,,,,,,,6,,,57,75
105262,note_on,46,0,5,,,,,,,,,6,,,57,0
105264,note_on,2,0,5,,,,,,,,,6,,,55,75
105310,note_on,46,0,5,,,,,,,,,6,,,55,0
105312,control_change,4160,0,3,,,,,,,,,2,10,0,,
105312,note_on,2,0,5,,,,,,,,,6,,,53,75
105312,note_on,98,0,1,,,,,,,,,11,,,69,127
105312,note_on,0,0,4,,,,,,,,,4,,,65,45
105312,control_change,4160,0,4,,,,,,,,,4,10,0,,
105312,note_on,0,0,2,,,,,,,,,0,,,72,45
105312,control_change,4160,0,2,,,,,,,,,0,10,0,,
105312,set_tempo,4320,1,0,666666,,,,,,,,,,,,
105312,note_on,0,0,3,,,,,,,,,2,,,69,45
105334,note_on,22,0,1,,,,,,,,,11,,,69,0
105336,note_on,2,0,1,,,,,,,,,11,,,72,127
105358,note_on,22,0,1,,,,,,,,,11,,,72,0
105360,note_on,2,0,1,,,,,,,,,11,,,70,127
105382,note_on,22,0,1,,,,,,,,,11,,,70,0
105384,note_on,2,0,1,,,,,,,,,11,,,72,127
105406,note_on,94,0,3,,,,,,,,,2,,,69,0
105406,note_on,94,0,4,,,,,,,,,4,,,65,0
105406,note_on,94,0,2,,,,,,,,,0,,,72,0
105406,note_on,22,0,1,,,,,,,,,11,,,72,0
105408,note_on,2,0,1,,,,,,,,,11,,,69,127
105408,note_on,2,0,2,,,,,,,,,0,,,72,45
105408,note_on,2,0,3,,,,,,,,,2,,,69,45
105408,note_on,2,0,4,,,,,,,,,4,,,65,45
105430,note_on,22,0,1,,,,,,,,,11,,,69,0
105432,note_on,2,0,1,,,,,,,,,11,,,65,127
105454,note_on,22,0,1,,,,,,,,,11,,,65,0
105456,note_on,2,0,1,,,,,,,,,11,,,69,127
105478,note_on,22,0,1,,,,,,,,,11,,,69,0
105480,note_on,2,0,1,,,,,,,,,11,,,72,127
105502,note_on,94,0,3,,,,,,,,,2,,,69,0
105502,note_on,94,0,4,,,,,,,,,4,,,65,0
105502,note_on,94,0,2,,,,,,,,,0,,,72,0
105502,note_on,22,0,1,,,,,,,,,11,,,72,0
105504,note_on,2,0,2,,,,,,,,,0,,,72,45
105504,note_on,2,0,4,,,,,,,,,4,,,65,45
105504,note_on,2,0,1,,,,,,,,,11,,,69,127
105504,note_on,2,0,3,,,,,,,,,2,,,69,45
105526,note_on,22,0,1,,,,,,,,,11,,,69,0
105528,note_on,2,0,1,,,,,,,,,11,,,65,127
105550,note_on,22,0,1,,,,,,,,,11,,,65,0
105552,note_on,2,0,1,,,,,,,,,11,,,69,127
105568,note_on,256,0,5,,,,,,,,,6,,,53,0
105574,note_on,22,0,1,,,,,,,,,11,,,69,0
105576,note_on,2,0,1,,,,,,,,,11,,,72,127
105598,note_on,94,0,4,,,,,,,,,4,,,65,0
105598,note_on,94,0,2,,,,,,,,,0,,,72,0
105598,note_on,22,0,1,,,,,,,,,11,,,72,0
105598,note_on,94,0,3,,,,,,,,,2,,,69,0
105600,note_on,2,0,1,,,,,,,,,11,,,70,127
105600,note_on,2,0,2,,,,,,,,,0,,,74,45
105600,note_on,2,0,4,,,,,,,,,4,,,65,45
105600,note_on,2,0,3,,,,,,,,,2,,,70,45
105622,note_on,22,0,1,,,,,,,,,11,,,70,0
105624,note_on,2,0,1,,,,,,,,,11,,,74,127
105646,note_on,22,0,1,,,,,,,,,11,,,74,0
105648,note_on,2,0,1,,,,,,,,,11,,,72,127
105670,note_on,22,0,1,,,,,,,,,11,,,72,0
105672,note_on,2,0,1,,,,,,,,,11,,,74,127
105694,note_on,94,0,2,,,,,,,,,0,,,74,0
105694,note_on,94,0,3,,,,,,,,,2,,,70,0
105694,note_on,94,0,4,,,,,,,,,4,,,65,0
105694,note_on,22,0,1,,,,,,,,,11,,,74,0
105696,note_on,2,0,3,,,,,,,,,2,,,70,45
105696,note_on,2,0,2,,,,,,,,,0,,,74,45
105696,note_on,2,0,4,,,,,,,,,4,,,65,45
105696,note_on,2,0,1,,,,,,,,,11,,,70,127
105718,note_on,22,0,1,,,,,,,,,11,,,70,0
105720,note_on,2,0,1,,,,,,,,,11,,,65,127
105742,note_on,22,0,1,,,,,,,,,11,,,65,0
105744,note_on,2,0,1,,,,,,,,,11,,,70,127
105766,note_on,22,0,1,,,,,,,,,11,,,70,0
105768,note_on,2,0,1,,,,,,,,,11,,,74,127
105790,note_on,94,0,3,,,,,,,,,2,,,70,0
105790,note_on,22,0,1,,,,,,,,,11,,,74,0
105790,note_on,94,0,2,,,,,,,,,0,,,74,0
105790,note_on,94,0,4,,,,,,,,,4,,,65,0
105792,note_on,2,0,4,,,,,,,,,4,,,65,45
105792,note_on,2,0,1,,,,,,,,,11,,,70,127
105792,note_on,2,0,2,,,,,,,,,0,,,74,45
105792,note_on,2,0,3,,,,,,,,,2,,,70,45
105814,note_on,22,0,1,,,,,,,,,11,,,70,0
105816,note_on,2,0,1,,,,,,,,,11,,,65,127
105838,note_on,22,0,1,,,,,,,,,11,,,65,0
105840,note_on,2,0,1,,,,,,,,,11,,,70,127
105862,note_on,22,0,1,,,,,,,,,11,,,70,0
105864,note_on,2,0,1,,,,,,,,,11,,,74,127
105886,note_on,22,0,1,,,,,,,,,11,,,74,0
105886,note_on,94,0,3,,,,,,,,,2,,,70,0
105886,note_on,94,0,2,,,,,,,,,0,,,74,0
105886,note_on,94,0,4,,,,,,,,,4,,,65,0
105888,note_on,2,0,1,,,,,,,,,11,,,72,127
105888,note_on,2,0,3,,,,,,,,,2,,,72,45
105888,note_on,2,0,2,,,,,,,,,0,,,75,45
105888,note_on,2,0,4,,,,,,,,,4,,,65,45
105910,note_on,22,0,1,,,,,,,,,11,,,72,0
105912,note_on,2,0,1,,,,,,,,,11,,,75,127
105934,note_on,22,0,1,,,,,,,,,11,,,75,0
105936,note_on,2,0,1,,,,,,,,,11,,,74,127
105958,note_on,22,0,1,,,,,,,,,11,,,74,0
105960,note_on,2,0,1,,,,,,,,,11,,,75,127
105982,note_on,22,0,1,,,,,,,,,11,,,75,0
105982,note_on,94,0,4,,,,,,,,,4,,,65,0
105982,note_on,94,0,3,,,,,,,,,2,,,72,0
105982,note_on,94,0,2,,,,,,,,,0,,,75,0
105984,note_on,2,0,1,,,,,,,,,11,,,72,127
105984,note_on,2,0,2,,,,,,,,,0,,,75,45
105984,note_on,2,0,4,,,,,,,,,4,,,65,45
105984,note_on,2,0,3,,,,,,,,,2,,,72,45
106006,note_on,22,0,1,,,,,,,,,11,,,72,0
106008,note_on,2,0,1,,,,,,,,,11,,,65,127
106030,note_on,22,0,1,,,,,,,,,11,,,65,0
106032,note_on,2,0,1,,,,,,,,,11,,,72,127
106054,note_on,22,0,1,,,,,,,,,11,,,72,0
106056,note_on,2,0,1,,,,,,,,,11,,,75,127
106078,note_on,94,0,3,,,,,,,,,2,,,72,0
106078,note_on,94,0,4,,,,,,,,,4,,,65,0
106078,note_on,94,0,2,,,,,,,,,0,,,75,0
106078,note_on,22,0,1,,,,,,,,,11,,,75,0
106080,note_on,2,0,1,,,,,,,,,11,,,72,127
106080,note_on,2,0,3,,,,,,,,,2,,,72,45
106080,note_on,2,0,2,,,,,,,,,0,,,75,45
106080,note_on,2,0,4,,,,,,,,,4,,,65,45
106102,note_on,22,0,1,,,,,,,,,11,,,72,0
106104,note_on,2,0,1,,,,,,,,,11,,,65,127
106126,note_on,22,0,1,,,,,,,,,11,,,65,0
106128,note_on,2,0,1,,,,,,,,,11,,,72,127
106150,note_on,22,0,1,,,,,,,,,11,,,72,0
106152,note_on,2,0,1,,,,,,,,,11,,,75,127
106174,note_on,22,0,1,,,,,,,,,11,,,75,0
106174,note_on,94,0,4,,,,,,,,,4,,,65,0
106174,note_on,94,0,3,,,,,,,,,2,,,72,0
106174,note_on,94,0,2,,,,,,,,,0,,,75,0
106176,note_on,2,0,1,,,,,,,,,11,,,74,127
106176,note_on,2,0,3,,,,,,,,,2,,,70,45
106176,note_on,2,0,4,,,,,,,,,4,,,65,45
106176,note_on,2,0,2,,,,,,,,,0,,,74,45
106198,note_on,22,0,1,,,,,,,,,11,,,74,0
106200,note_on,2,0,1,,,,,,,,,11,,,77,127
106222,note_on,22,0,1,,,,,,,,,11,,,77,0
106224,note_on,2,0,1,,,,,,,,,11,,,75,127
106246,note_on,22,0,1,,,,,,,,,11,,,75,0
106248,note_on,2,0,1,,,,,,,,,11,,,77,127
106270,note_on,94,0,2,,,,,,,,,0,,,74,0
106270,note_on,94,0,3,,,,,,,,,2,,,70,0
106270,note_on,22,0,1,,,,,,,,,11,,,77,0
106270,note_on,94,0,4,,,,,,,,,4,,,65,0
106272,note_on,2,0,3,,,,,,,,,2,,,70,45
106272,note_on,2,0,1,,,,,,,,,11,,,74,127
106272,note_on,2,0,2,,,,,,,,,0,,,74,45
106272,note_on,2,0,4,,,,,,,,,4,,,65,45
106294,note_on,22,0,1,,,,,,,,,11,,,74,0
106296,note_on,2,0,1,,,,,,,,,11,,,70,127
106318,note_on,22,0,1,,,,,,,,,11,,,70,0
106320,note_on,2,0,1,,,,,,,,,11,,,74,127
106342,note_on,22,0,1,,,,,,,,,11,,,74,0
106344,note_on,2,0,1,,,,,,,,,11,,,77,127
106366,note_on,94,0,3,,,,,,,,,2,,,70,0
106366,note_on,94,0,2,,,,,,,,,0,,,74,0
106366,note_on,94,0,4,,,,,,,,,4,,,65,0
106366,note_on,22,0,1,,,,,,,,,11,,,77,0
106368,note_on,2,0,1,,,,,,,,,11,,,74,127
106368,note_on,2,0,3,,,,,,,,,2,,,70,45
106368,note_on,2,0,4,,,,,,,,,4,,,65,45
106368,note_on,2,0,2,,,,,,,,,0,,,74,45
106390,note_on,22,0,1,,,,,,,,,11,,,74,0
106392,note_on,2,0,1,,,,,,,,,11,,,70,127
106414,note_on,22,0,1,,,,,,,,,11,,,70,0
106416,note_on,2,0,1,,,,,,,,,11,,,74,127
106438,note_on,22,0,1,,,,,,,,,11,,,74,0
106440,note_on,2,0,1,,,,,,,,,11,,,77,127
106462,note_on,94,0,3,,,,,,,,,2,,,70,0
106462,note_on,94,0,4,,,,,,,,,4,,,65,0
106462,note_on,22,0,1,,,,,,,,,11,,,77,0
106462,note_on,94,0,2,,,,,,,,,0,,,74,0
106464,note_on,2,0,2,,,,,,,,,0,,,75,45
106464,note_on,2,0,3,,,,,,,,,2,,,72,45
106464,note_on,2,0,1,,,,,,,,,11,,,72,127
106464,note_on,2,0,4,,,,,,,,,4,,,65,45
106486,note_on,22,0,1,,,,,,,,,11,,,72,0
106488,note_on,2,0,1,,,,,,,,,11,,,75,127
106510,note_on,22,0,1,,,,,,,,,11,,,75,0
106512,note_on,2,0,1,,,,,,,,,11,,,74,127
106534,note_on,22,0,1,,,,,,,,,11,,,74,0
106536,note_on,2,0,1,,,,,,,,,11,,,75,127
106558,note_on,94,0,3,,,,,,,,,2,,,72,0
106558,note_on,22,0,1,,,,,,,,,11,,,75,0
106558,note_on,94,0,4,,,,,,,,,4,,,65,0
106558,note_on,94,0,2,,,,,,,,,0,,,75,0
106560,note_on,2,0,1,,,,,,,,,11,,,72,127
106560,note_on,2,0,3,,,,,,,,,2,,,72,45
106560,note_on,2,0,2,,,,,,,,,0,,,75,45
106560,note_on,2,0,4,,,,,,,,,4,,,65,45
106582,note_on,22,0,1,,,,,,,,,11,,,72,0
106584,note_on,2,0,1,,,,,,,,,11,,,65,127
106606,note_on,22,0,1,,,,,,,,,11,,,65,0
106608,note_on,2,0,1,,,,,,,,,11,,,72,127
106630,note_on,22,0,1,,,,,,,,,11,,,72,0
106632,note_on,2,0,1,,,,,,,,,11,,,75,127
106654,note_on,94,0,4,,,,,,,,,4,,,65,0
106654,note_on,94,0,3,,,,,,,,,2,,,72,0
106654,note_on,22,0,1,,,,,,,,,11,,,75,0
106654,note_on,94,0,2,,,,,,,,,0,,,75,0
106656,note_on,2,0,4,,,,,,,,,4,,,65,45
106656,note_on,2,0,1,,,,,,,,,11,,,72,127
106656,note_on,2,0,3,,,,,,,,,2,,,69,45
106656,note_on,2,0,2,,,,,,,,,0,,,75,45
106678,note_on,22,0,1,,,,,,,,,11,,,72,0
106680,note_on,2,0,1,,,,,,,,,11,,,65,127
106702,note_on,22,0,1,,,,,,,,,11,,,65,0
106704,note_on,2,0,1,,,,,,,,,11,,,72,127
106726,note_on,22,0,1,,,,,,,,,11,,,72,0
106728,note_on,2,0,1,,,,,,,,,11,,,75,127
106750,note_on,94,0,2,,,,,,,,,0,,,75,0
106750,note_on,94,0,3,,,,,,,,,2,,,69,0
106750,note_on,22,0,1,,,,,,,,,11,,,75,0
106750,note_on,94,0,4,,,,,,,,,4,,,65,0
106752,note_on,2,0,2,,,,,,,,,0,,,74,45
106752,set_tempo,1440,1,0,645161,,,,,,,,,,,,
106752,note_on,2,0,3,,,,,,,,,2,,,65,45
106752,note_on,1184,0,5,,,,,,,,,6,,,46,75
106752,note_on,2,0,1,,,,,,,,,11,,,74,127
106752,note_on,2,0,4,,,,,,,,,4,,,58,45
106894,note_on,142,0,1,,,,,,,,,11,,,74,0
106896,note_on,2,0,1,,,,,,,,,11,,,77,127
106912,note_on,160,0,3,,,,,,,,,2,,,65,0
106912,note_on,160,0,5,,,,,,,,,6,,,46,0
106912,note_on,160,0,2,,,,,,,,,0,,,74,0
106912,note_on,160,0,4,,,,,,,,,4,,,58,0
106942,note_on,46,0,1,,,,,,,,,11,,,77,0
106944,note_on,2,0,1,,,,,,,,,11,,,82,127
106990,note_on,46,0,1,,,,,,,,,11,,,82,0
106992,note_on,2,0,1,,,,,,,,,11,,,81,127
107014,note_on,22,0,1,,,,,,,,,11,,,81,0
107016,note_on,2,0,1,,,,,,,,,11,,,79,127
107038,note_on,22,0,1,,,,,,,,,11,,,79,0
107040,set_tempo,288,1,0,631578,,,,,,,,,,,,
107040,note_on,128,0,5,,,,,,,,,6,,,46,75
107040,note_on,2,0,1,,,,,,,,,11,,,77,127
107182,note_on,142,0,1,,,,,,,,,11,,,77,0
107184,note_on,2,0,1,,,,,,,,,11,,,77,127
107230,note_on,46,0,1,,,,,,,,,11,,,77,0
107232,note_on,2,0,1,,,,,,,,,11,,,79,127
107278,note_on,46,0,1,,,,,,,,,11,,,79,0
107280,note_on,2,0,1,,,,,,,,,11,,,77,127
107296,note_on,256,0,5,,,,,,,,,6,,,46,0
107302,note_on,22,0,1,,,,,,,,,11,,,77,0
107304,note_on,2,0,1,,,,,,,,,11,,,75,127
107326,note_on,22,0,1,,,,,,,,,11,,,75,0
107328,note_on,32,0,5,,,,,,,,,6,,,46,75
107328,note_on,2,0,1,,,,,,,,,11,,,74,127
107328,set_tempo,288,1,0,618556,,,,,,,,,,,,
107470,note_on,142,0,1,,,,,,,,,11,,,74,0
107472,note_on,2,0,1,,,,,,,,,11,,,74,127
107488,note_on,160,0,5,,,,,,,,,6,,,46,0
107518,note_on,46,0,1,,,,,,,,,11,,,74,0
107520,note_on,2,0,1,,,,,,,,,11,,,75,127
107566,note_on,46,0,1,,,,,,,,,11,,,75,0
107568,note_on,2,0,1,,,,,,,,,11,,,74,127
107590,note_on,22,0,1,,,,,,,,,11,,,74,0
107592,note_on,2,0,1,,,,,,,,,11,,,72,127
107614,note_on,22,0,1,,,,,,,,,11,,,72,0
107616,note_on,2,0,1,,,,,,,,,11,,,74,127
107616,note_on,128,0,5,,,,,,,,,6,,,46,75
107638,note_on,22,0,1,,,,,,,,,11,,,74,0
107640,note_on,2,0,1,,,,,,,,,11,,,72,127
107662,note_on,22,0,1,,,,,,,,,11,,,72,0
107664,note_on,2,0,1,,,,,,,,,11,,,74,127
107686,note_on,22,0,1,,,,,,,,,11,,,74,0
107688,note_on,2,0,1,,,,,,,,,11,,,70,127
107710,note_on,22,0,1,,,,,,,,,11,,,70,0
107712,note_on,2,0,1,,,,,,,,,11,,,77,127
107734,note_on,22,0,1,,,,,,,,,11,,,77,0
107736,note_on,2,0,1,,,,,,,,,11,,,75,127
107758,note_on,22,0,1,,,,,,,,,11,,,75,0
107760,note_on,2,0,1,,,,,,,,,11,,,77,127
107776,note_on,160,0,5,,,,,,,,,6,,,46,0
107782,note_on,22,0,1,,,,,,,,,11,,,77,0
107784,note_on,2,0,1,,,,,,,,,11,,,74,127
107806,note_on,22,0,1,,,,,,,,,11,,,74,0
107808,note_on,32,0,5,,,,,,,,,6,,,53,75
107808,note_on,2,0,1,,,,,,,,,11,,,81,127
107830,note_on,22,0,1,,,,,,,,,11,,,81,0
107832,note_on,2,0,1,,,,,,,,,11,,,79,127
107854,note_on,46,0,5,,,,,,,,,6,,,53,0
107854,note_on,22,0,1,,,,,,,,,11,,,79,0
107856,note_on,2,0,1,,,,,,,,,11,,,81,127
107856,note_on,2,0,5,,,,,,,,,6,,,51,75
107878,note_on,22,0,1,,,,,,,,,11,,,81,0
107880,note_on,2,0,1,,,,,,,,,11,,,77,127
107902,note_on,46,0,5,,,,,,,,,6,,,51,0
107902,note_on,22,0,1,,,,,,,,,11,,,77,0
107904,note_on,2,0,1,,,,,,,,,11,,,82,127
107904,note_on,2,0,5,,,,,,,,,6,,,50,75
107950,note_on,46,0,5,,,,,,,,,6,,,50,0
107950,note_on,46,0,1,,,,,,,,,11,,,82,0
107952,note_on,2,0,5,,,,,,,,,6,,,46,75
107952,note_on,2,0,1,,,,,,,,,11,,,70,127
107998,note_on,46,0,5,,,,,,,,,6,,,46,0
107998,note_on,46,0,1,,,,,,,,,11,,,70,0
108000,note_on,2,0,5,,,,,,,,,6,,,53,75
108000,note_on,2,0,1,,,,,,,,,11,,,74,127
108022,note_on,22,0,1,,,,,,,,,11,,,74,0
108024,note_on,2,0,1,,,,,,,,,11,,,72,127
108046,note_on,22,0,1,,,,,,,,,11,,,72,0
108048,note_on,0,0,1,,,,,,,,,11,,,74,127
108048,note_on,2,0,1,,,,,,,,,11,,,72,127
108070,note_on,22,0,1,,,,,,,,,11,,,72,0
108070,note_on,0,0,1,,,,,,,,,11,,,74,0
108072,note_on,2,0,1,,,,,,,,,11,,,74,127
108094,note_on,22,0,1,,,,,,,,,11,,,74,0
108094,note_on,94,0,5,,,,,,,,,6,,,53,0
108096,note_on,2,0,5,,,,,,,,,6,,,41,75
108096,note_on,2,0,1,,,,,,,,,11,,,72,127
108142,note_on,46,0,1,,,,,,,,,11,,,72,0
108144,note_on,2,0,1,,,,,,,,,11,,,70,127
108190,note_on,94,0,5,,,,,,,,,6,,,41,0
108190,note_on,46,0,1,,,,,,,,,11,,,70,0
108192,note_on,0,0,4,,,,,,,,,4,,,70,75
108192,note_on,2,0,5,,,,,,,,,6,,,46,108
108192,note_on,1280,0,2,,,,,,,,,0,,,77,127
108192,control_change,1280,0,3,,,,,,,,,2,10,127,,
108192,control_change,1280,0,4,,,,,,,,,4,10,64,,
108192,note_on,0,0,3,,,,,,,,,2,,,74,127
108192,note_on,2,0,1,,,,,,,,,11,,,77,127
108192,note_on,7040,0,6,,,,,,,,,8,,,34,108
108286,note_on,94,0,1,,,,,,,,,11,,,77,0
108286,note_on,94,0,5,,,,,,,,,6,,,46,0
108286,note_on,94,0,2,,,,,,,,,0,,,77,0
108286,note_on,94,0,3,,,,,,,,,2,,,74,0
108286,note_on,94,0,6,,,,,,,,,8,,,34,0
108288,note_on,2,0,5,,,,,,,,,6,,,58,108
108288,note_on,2,0,6,,,,,,,,,8,,,46,108
108288,note_on,2,0,1,,,,,,,,,11,,,77,127
108288,note_on,2,0,3,,,,,,,,,2,,,74,127
108288,note_on,2,0,2,,,,,,,,,0,,,77,127
108352,note_on,160,0,4,,,,,,,,,4,,,70,0
108382,note_on,94,0,6,,,,,,,,,8,,,46,0
108382,note_on,94,0,2,,,,,,,,,0,,,77,0
108382,note_on,94,0,1,,,,,,,,,11,,,77,0
108382,note_on,94,0,3,,,,,,,,,2,,,74,0
108382,note_on,94,0,5,,,,,,,,,6,,,58,0
108384,note_on,2,0,2,,,,,,,,,0,,,79,127
108384,note_on,2,0,5,,,,,,,,,6,,,51,108
108384,note_on,2,0,1,,,,,,,,,11,,,79,127
108384,note_on,32,0,4,,,,,,,,,4,,,70,75
108384,note_on,2,0,3,,,,,,,,,2,,,75,127
108384,note_on,2,0,6,,,,,,,,,8,,,39,108
108478,note_on,94,0,1,,,,,,,,,11,,,79,0
108478,note_on,94,0,2,,,,,,,,,0,,,79,0
108478,note_on,94,0,4,,,,,,,,,4,,,70,0
108478,note_on,94,0,5,,,,,,,,,6,,,51,0
108478,note_on,94,0,6,,,,,,,,,8,,,39,0
108478,note_on,94,0,3,,,,,,,,,2,,,75,0
108480,note_on,2,0,6,,,,,,,,,8,,,34,108
108480,note_on,2,0,1,,,,,,,,,11,,,77,127
108480,note_on,2,0,2,,,,,,,,,0,,,77,127
108480,note_on,2,0,4,,,,,,,,,4,,,70,75
108480,note_on,2,0,5,,,,,,,,,6,,,46,108
108480,note_on,2,0,3,,,,,,,,,2,,,74,127
108574,note_on,94,0,1,,,,,,,,,11,,,77,0
108574,note_on,94,0,3,,,,,,,,,2,,,74,0
108574,note_on,94,0,5,,,,,,,,,6,,,46,0
108574,note_on,94,0,6,,,,,,,,,8,,,34,0
108574,note_on,94,0,2,,,,,,,,,0,,,77,0
108576,note_on,2,0,3,,,,,,,,,2,,,74,127
108576,note_on,2,0,2,,,,,,,,,0,,,77,127
108576,note_on,2,0,6,,,,,,,,,8,,,46,108
108576,note_on,2,0,5,,,,,,,,,6,,,58,108
108576,note_on,2,0,1,,,,,,,,,11,,,77,127
108640,note_on,160,0,4,,,,,,,,,4,,,70,0
108670,note_on,94,0,3,,,,,,,,,2,,,74,0
108670,note_on,94,0,6,,,,,,,,,8,,,46,0
108670,note_on,94,0,2,,,,,,,,,0,,,77,0
108670,note_on,94,0,5,,,,,,,,,6,,,58,0
108670,note_on,94,0,1,,,,,,,,,11,,,77,0
108672,note_on,2,0,6,,,,,,,,,8,,,39,108
108672,note_on,32,0,4,,,,,,,,,4,,,70,75
108672,note_on,2,0,2,,,,,,,,,0,,,79,127
108672,note_on,2,0,5,,,,,,,,,6,,,51,108
108672,note_on,2,0,1,,,,,,,,,11,,,79,127
108672,note_on,2,0,3,,,,,,,,,2,,,75,127
108766,note_on,94,0,4,,,,,,,,,4,,,70,0
108766,note_on,94,0,5,,,,,,,,,6,,,51,0
108766,note_on,94,0,3,,,,,,,,,2,,,75,0
108766,note_on,94,0,6,,,,,,,,,8,,,39,0
108766,note_on,94,0,2,,,,,,,,,0,,,79,0
108766,note_on,94,0,1,,,,,,,,,11,,,79,0
108768,note_on,2,0,1,,,,,,,,,11,,,77,127
108768,note_on,2,0,5,,,,,,,,,6,,,46,108
108768,note_on,2,0,3,,,,,,,,,2,,,74,127
108768,note_on,2,0,4,,,,,,,,,4,,,70,75
108768,note_on,2,0,6,,,,,,,,,8,,,34,108
108768,note_on,2,0,2,,,,,,,,,0,,,77,127
108814,note_on,46,0,3,,,,,,,,,2,,,74,0
108814,note_on,46,0,2,,,,,,,,,0,,,77,0
108814,note_on,46,0,1,,,,,,,,,11,,,77,0
108816,note_on,2,0,1,,,,,,,,,11,,,72,127
108816,note_on,2,0,2,,,,,,,,,0,,,72,127
108816,note_on,2,0,3,,,,,,,,,2,,,72,127
108862,note_on,46,0,2,,,,,,,,,0,,,72,0
108862,note_on,46,0,3,,,,,,,,,2,,,72,0
108862,note_on,94,0,6,,,,,,,,,8,,,34,0
108862,note_on,94,0,4,,,,,,,,,4,,,70,0
108862,note_on,46,0,1,,,,,,,,,11,,,72,0
108862,note_on,94,0,5,,,,,,,,,6,,,46,0
108864,note_on,2,0,2,,,,,,,,,0,,,74,127
108864,note_on,2,0,3,,,,,,,,,2,,,74,127
108864,note_on,2,0,1,,,,,,,,,11,,,74,127
108910,note_on,46,0,1,,,,,,,,,11,,,74,0
108910,note_on,46,0,2,,,,,,,,,0,,,74,0
108910,note_on,46,0,3,,,,,,,,,2,,,74,0
108912,note_on,50,0,6,,,,,,,,,8,,,34,108
108912,note_on,50,0,5,,,,,,,,,6,,,46,108
108912,note_on,50,0,4,,,,,,,,,4,,,65,75
108912,note_on,2,0,2,,,,,,,,,0,,,70,127
108912,note_on,2,0,1,,,,,,,,,11,,,70,127
108912,note_on,2,0,3,,,,,,,,,2,,,70,127
108958,note_on,46,0,4,,,,,,,,,4,,,65,0
108958,note_on,46,0,2,,,,,,,,,0,,,70,0
108958,note_on,46,0,5,,,,,,,,,6,,,46,0
108958,note_on,46,0,3,,,,,,,,,2,,,70,0
108958,note_on,46,0,6,,,,,,,,,8,,,34,0
108958,note_on,46,0,1,,,,,,,,,11,,,70,0
108960,note_on,2,0,6,,,,,,,,,8,,,39,108
108960,note_on,2,0,4,,,,,,,,,4,,,67,75
108960,note_on,2,0,3,,,,,,,,,2,,,72,127
108960,note_on,2,0,1,,,,,,,,,11,,,72,127
108960,note_on,2,0,5,,,,,,,,,6,,,51,108
108960,note_on,2,0,2,,,,,,,,,0,,,72,127
109006,note_on,46,0,4,,,,,,,,,4,,,67,0
109006,note_on,46,0,3,,,,,,,,,2,,,72,0
109006,note_on,46,0,1,,,,,,,,,11,,,72,0
109006,note_on,46,0,2,,,,,,,,,0,,,72,0
109006,note_on,46,0,5,,,,,,,,,6,,,51,0
109006,note_on,46,0,6,,,,,,,,,8,,,39,0
109008,note_on,2,0,2,,,,,,,,,0,,,69,127
109008,note_on,2,0,1,,,,,,,,,11,,,69,127
109008,note_on,2,0,4,,,,,,,,,4,,,60,75
109008,note_on,2,0,5,,,,,,,,,6,,,53,108
109008,note_on,2,0,3,,,,,,,,,2,,,69,127
109008,note_on,2,0,6,,,,,,,,,8,,,41,108
109054,note_on,46,0,3,,,,,,,,,2,,,69,0
109054,note_on,46,0,2,,,,,,,,,0,,,69,0
109054,note_on,46,0,6,,,,,,,,,8,,,41,0
109054,note_on,46,0,4,,,,,,,,,4,,,60,0
109054,note_on,46,0,1,,,,,,,,,11,,,69,0
109054,note_on,46,0,5,,,,,,,,,6,,,53,0
109056,note_on,2,0,5,,,,,,,,,6,,,46,108
109056,note_on,2,0,6,,,,,,,,,8,,,34,108
109056,note_on,2,0,2,,,,,,,,,0,,,70,127
109056,note_on,2,0,3,,,,,,,,,2,,,70,127
109056,note_on,2,0,1,,,,,,,,,11,,,70,127
109056,note_on,2,0,4,,,,,,,,,4,,,62,75
109102,note_on,46,0,1,,,,,,,,,11,,,70,0
109102,note_on,46,0,2,,,,,,,,,0,,,70,0
109102,note_on,46,0,3,,,,,,,,,2,,,70,0
109104,note_on,2,0,1,,,,,,,,,11,,,81,127
109104,note_on,2,0,2,,,,,,,,,0,,,81,127
109104,note_on,2,0,3,,,,,,,,,2,,,81,127
109150,note_on,46,0,1,,,,,,,,,11,,,81,0
109150,note_on,46,0,2,,,,,,,,,0,,,81,0
109150,note_on,46,0,3,,,,,,,,,2,,,81,0
109152,note_on,2,0,2,,,,,,,,,0,,,82,127
109152,note_on,2,0,3,,,,,,,,,2,,,82,127
109152,note_on,2,0,1,,,,,,,,,11,,,82,127
109198,note_on,142,0,4,,,,,,,,,4,,,62,0
109198,note_on,46,0,2,,,,,,,,,0,,,82,0
109198,note_on,142,0,5,,,,,,,,,6,,,46,0
109198,note_on,46,0,3,,,,,,,,,2,,,82,0
109198,note_on,142,0,6,,,,,,,,,8,,,34,0
109198,note_on,46,0,1,,,,,,,,,11,,,82,0
109200,note_on,2,0,4,,,,,,,,,4,,,65,75
109200,note_on,2,0,1,,,,,,,,,11,,,74,127
109200,note_on,2,0,5,,,,,,,,,6,,,46,108
109200,note_on,2,0,3,,,,,,,,,2,,,74,127
109200,note_on,2,0,2,,,,,,,,,0,,,74,127
109200,note_on,2,0,6,,,,,,,,,8,,,34,108
109246,note_on,46,0,1,,,,,,,,,11,,,74,0
109246,note_on,46,0,4,,,,,,,,,4,,,65,0
109246,note_on,46,0,2,,,,,,,,,0,,,74,0
109246,note_on,46,0,6,,,,,,,,,8,,,34,0
109246,note_on,46,0,3,,,,,,,,,2,,,74,0
109246,note_on,46,0,5,,,,,,,,,6,,,46,0
109248,note_on,2,0,5,,,,,,,,,6,,,51,108
109248,note_on,2,0,2,,,,,,,,,0,,,75,127
109248,note_on,2,0,4,,,,,,,,,4,,,67,75
109248,note_on,2,0,6,,,,,,,,,8,,,39,108
109248,note_on,2,0,1,,,,,,,,,11,,,75,127
109248,note_on,2,0,3,,,,,,,,,2,,,75,127
109294,note_on,46,0,5,,,,,,,,,6,,,51,0
109294,note_on,46,0,4,,,,,,,,,4,,,67,0
109294,note_on,46,0,6,,,,,,,,,8,,,39,0
109294,note_on,46,0,1,,,,,,,,,11,,,75,0
109294,note_on,46,0,3,,,,,,,,,2,,,75,0
109294,note_on,46,0,2,,,,,,,,,0,,,75,0
109296,note_on,2,0,6,,,,,,,,,8,,,41,108
109296,note_on,2,0,1,,,,,,,,,11,,,72,127
109296,note_on,2,0,2,,,,,,,,,0,,,72,127
109296,note_on,2,0,5,,,,,,,,,6,,,53,108
109296,note_on,2,0,4,,,,,,,,,4,,,63,75
109296,note_on,2,0,3,,,,,,,,,2,,,72,127
109342,note_on,46,0,1,,,,,,,,,11,,,72,0
109342,note_on,46,0,5,,,,,,,,,6,,,53,0
109342,note_on,46,0,6,,,,,,,,,8,,,41,0
109342,note_on,46,0,4,,,,,,,,,4,,,63,0
109342,note_on,46,0,3,,,,,,,,,2,,,72,0
109342,note_on,46,0,2,,,,,,,,,0,,,72,0
109344,note_on,2,0,6,,,,,,,,,8,,,34,108
109344,note_on,2,0,4,,,,,,,,,4,,,62,75
109344,note_on,2,0,5,,,,,,,,,6,,,46,108
109344,note_on,2,0,2,,,,,,,,,0,,,70,127
109344,note_on,2,0,1,,,,,,,,,11,,,70,127
109344,note_on,2,0,3,,,,,,,,,2,,,70,127
109438,note_on,94,0,6,,,,,,,,,8,,,34,0
109438,note_on,94,0,2,,,,,,,,,0,,,70,0
109438,note_on,94,0,3,,,,,,,,,2,,,70,0
109438,note_on,94,0,5,,,,,,,,,6,,,46,0
109438,note_on,94,0,1,,,,,,,,,11,,,70,0
109440,note_on,2,0,5,,,,,,,,,6,,,58,108
109440,note_on,2,0,1,,,,,,,,,11,,,77,127
109440,note_on,2,0,3,,,,,,,,,2,,,74,127
109440,note_on,2,0,2,,,,,,,,,0,,,77,127
109440,note_on,2,0,6,,,,,,,,,8,,,46,108
109504,note_on,160,0,4,,,,,,,,,4,,,62,0
109534,note_on,94,0,5,,,,,,,,,6,,,58,0
109534,note_on,94,0,2,,,,,,,,,0,,,77,0
109534,note_on,94,0,1,,,,,,,,,11,,,77,0
109534,note_on,94,0,3,,,,,,,,,2,,,74,0
109534,note_on,94,0,6,,,,,,,,,8,,,46,0
109536,note_on,32,0,4,,,,,,,,,4,,,70,75
109536,note_on,2,0,3,,,,,,,,,2,,,75,127
109536,note_on,2,0,2,,,,,,,,,0,,,79,127
109536,note_on,2,0,5,,,,,,,,,6,,,51,108
109536,note_on,2,0,1,,,,,,,,,11,,,79,127
109536,note_on,2,0,6,,,,,,,,,8,,,39,108
109630,note_on,94,0,6,,,,,,,,,8,,,39,0
109630,note_on,94,0,5,,,,,,,,,6,,,51,0
109630,note_on,94,0,2,,,,,,,,,0,,,79,0
109630,note_on,94,0,4,,,,,,,,,4,,,70,0
109630,note_on,94,0,1,,,,,,,,,11,,,79,0
109630,note_on,94,0,3,,,,,,,,,2,,,75,0
109632,note_on,2,0,6,,,,,,,,,8,,,34,108
109632,note_on,2,0,5,,,,,,,,,6,,,46,108
109632,note_on,2,0,2,,,,,,,,,0,,,77,127
109632,note_on,2,0,1,,,,,,,,,11,,,77,127
109632,note_on,2,0,3,,,,,,,,,2,,,74,127
109632,note_on,2,0,4,,,,,,,,,4,,,70,75
109726,note_on,94,0,6,,,,,,,,,8,,,34,0
109726,note_on,94,0,3,,,,,,,,,2,,,74,0
109726,note_on,94,0,2,,,,,,,,,0,,,77,0
109726,note_on,94,0,1,,,,,,,,,11,,,77,0
109726,note_on,94,0,5,,,,,,,,,6,,,46,0
109728,note_on,2,0,2,,,,,,,,,0,,,77,127
109728,note_on,2,0,3,,,,,,,,,2,,,74,127
109728,note_on,2,0,1,,,,,,,,,11,,,77,127
109728,note_on,2,0,5,,,,,,,,,6,,,58,108
109728,note_on,2,0,6,,,,,,,,,8,,,46,108
109792,note_on,160,0,4,,,,,,,,,4,,,70,0
109822,note_on,94,0,3,,,,,,,,,2,,,74,0
109822,note_on,94,0,1,,,,,,,,,11,,,77,0
109822,note_on,94,0,2,,,,,,,,,0,,,77,0
109822,note_on,94,0,5,,,,,,,,,6,,,58,0
109822,note_on,94,0,6,,,,,,,,,8,,,46,0
109824,note_on,2,0,3,,,,,,,,,2,,,75,127
109824,note_on,2,0,1,,,,,,,,,11,,,79,127
109824,note_on,32,0,4,,,,,,,,,4,,,70,75
109824,note_on,2,0,5,,,,,,,,,6,,,51,108
109824,note_on,2,0,2,,,,,,,,,0,,,79,127
109824,note_on,2,0,6,,,,,,,,,8,,,39,108
109918,note_on,94,0,5,,,,,,,,,6,,,51,0
109918,note_on,94,0,2,,,,,,,,,0,,,79,0
109918,note_on,94,0,1,,,,,,,,,11,,,79,0
109918,note_on,94,0,4,,,,,,,,,4,,,70,0
109918,note_on,94,0,3,,,,,,,,,2,,,75,0
109918,note_on,94,0,6,,,,,,,,,8,,,39,0
109920,note_on,2,0,6,,,,,,,,,8,,,34,108
109920,note_on,2,0,5,,,,,,,,,6,,,46,108
109920,note_on,2,0,1,,,,,,,,,11,,,77,127
109920,note_on,2,0,2,,,,,,,,,0,,,77,127
109920,note_on,2,0,4,,,,,,,,,4,,,70,75
109920,note_on,2,0,3,,,,,,,,,2,,,74,127
109966,note_on,46,0,3,,,,,,,,,2,,,74,0
109966,note_on,46,0,2,,,,,,,,,0,,,77,0
109966,note_on,46,0,1,,,,,,,,,11,,,77,0
109968,note_on,2,0,1,,,,,,,,,11,,,72,127
109968,note_on,2,0,2,,,,,,,,,0,,,72,127
109968,note_on,2,0,3,,,,,,,,,2,,,72,127
110014,note_on,94,0,6,,,,,,,,,8,,,34,0
110014,note_on,94,0,5,,,,,,,,,6,,,46,0
110014,note_on,46,0,3,,,,,,,,,2,,,72,0
110014,note_on,46,0,1,,,,,,,,,11,,,72,0
110014,note_on,94,0,4,,,,,,,,,4,,,70,0
110014,note_on,46,0,2,,,,,,,,,0,,,72,0
110016,note_on,2,0,2,,,,,,,,,0,,,74,127
110016,note_on,2,0,3,,,,,,,,,2,,,74,127
110016,note_on,2,0,1,,,,,,,,,11,,,74,127
110062,note_on,46,0,1,,,,,,,,,11,,,74,0
110062,note_on,46,0,3,,,,,,,,,2,,,74,0
110062,note_on,46,0,2,,,,,,,,,0,,,74,0
110064,note_on,50,0,5,,,,,,,,,6,,,46,108
110064,note_on,2,0,1,,,,,,,,,11,,,70,127
110064,note_on,2,0,3,,,,,,,,,2,,,70,127
110064,note_on,50,0,6,,,,,,,,,8,,,34,108
110064,note_on,2,0,2,,,,,,,,,0,,,70,127
110064,note_on,50,0,4,,,,,,,,,4,,,65,75
110110,note_on,46,0,5,,,,,,,,,6,,,46,0
110110,note_on,46,0,3,,,,,,,,,2,,,70,0
110110,note_on,46,0,4,,,,,,,,,4,,,65,0
110110,note_on,46,0,1,,,,,,,,,11,,,70,0
110110,note_on,46,0,2,,,,,,,,,0,,,70,0
110110,note_on,46,0,6,,,,,,,,,8,,,34,0
110112,note_on,2,0,4,,,,,,,,,4,,,67,75
110112,note_on,2,0,1,,,,,,,,,11,,,72,127
110112,note_on,2,0,2,,,,,,,,,0,,,72,127
110112,note_on,2,0,3,,,,,,,,,2,,,72,127
110112,note_on,2,0,5,,,,,,,,,6,,,51,108
110112,note_on,2,0,6,,,,,,,,,8,,,39,108
110158,note_on,46,0,4,,,,,,,,,4,,,67,0
110158,note_on,46,0,5,,,,,,,,,6,,,51,0
110158,note_on,46,0,1,,,,,,,,,11,,,72,0
110158,note_on,46,0,2,,,,,,,,,0,,,72,0
110158,note_on,46,0,3,,,,,,,,,2,,,72,0
110158,note_on,46,0,6,,,,,,,,,8,,,39,0
110160,note_on,2,0,6,,,,,,,,,8,,,41,108
110160,note_on,2,0,1,,,,,,,,,11,,,69,127
110160,note_on,2,0,3,,,,,,,,,2,,,69,127
110160,note_on,2,0,4,,,,,,,,,4,,,60,75
110160,note_on,2,0,2,,,,,,,,,0,,,69,127
110160,note_on,2,0,5,,,,,,,,,6,,,53,108
110206,note_on,46,0,1,,,,,,,,,11,,,69,0
110206,note_on,46,0,6,,,,,,,,,8,,,41,0
110206,note_on,46,0,2,,,,,,,,,0,,,69,0
110206,note_on,46,0,3,,,,,,,,,2,,,69,0
110206,note_on,46,0,5,,,,,,,,,6,,,53,0
110206,note_on,46,0,4,,,,,,,,,4,,,60,0
110208,note_on,2,0,2,,,,,,,,,0,,,70,127
110208,note_on,2,0,4,,,,,,,,,4,,,62,75
110208,note_on,2,0,1,,,,,,,,,11,,,70,127
110208,note_on,2,0,6,,,,,,,,,8,,,34,108
110208,note_on,2,0,3,,,,,,,,,2,,,70,127
110208,note_on,2,0,5,,,,,,,,,6,,,46,108
110254,note_on,46,0,1,,,,,,,,,11,,,70,0
110254,note_on,46,0,3,,,,,,,,,2,,,70,0
110254,note_on,46,0,2,,,,,,,,,0,,,70,0
110256,note_on,2,0,1,,,,,,,,,11,,,77,127
110256,note_on,2,0,2,,,,,,,,,0,,,77,127
110256,note_on,2,0,3,,,,,,,,,2,,,77,127
110302,note_on,94,0,5,,,,,,,,,6,,,46,0
110302,note_on,94,0,6,,,,,,,,,8,,,34,0
110302,note_on,94,0,4,,,,,,,,,4,,,62,0
110302,note_on,46,0,2,,,,,,,,,0,,,77,0
110302,note_on,46,0,1,,,,,,,,,11,,,77,0
110302,note_on,46,0,3,,,,,,,,,2,,,77,0
110304,note_on,2,0,2,,,,,,,,,0,,,74,127
110304,note_on,2,0,5,,,,,,,,,6,,,58,108
110304,note_on,2,0,6,,,,,,,,,8,,,46,108
110304,note_on,2,0,3,,,,,,,,,2,,,74,127
110304,note_on,2,0,1,,,,,,,,,11,,,74,127
110304,note_on,2,0,4,,,,,,,,,4,,,65,75
110350,note_on,46,0,2,,,,,,,,,0,,,74,0
110350,note_on,46,0,4,,,,,,,,,4,,,65,0
110350,note_on,46,0,3,,,,,,,,,2,,,74,0
110350,note_on,46,0,1,,,,,,,,,11,,,74,0
110352,note_on,2,0,2,,,,,,,,,0,,,70,127
110352,note_on,2,0,3,,,,,,,,,2,,,70,127
110352,note_on,2,0,4,,,,,,,,,4,,,62,75
110352,note_on,2,0,1,,,,,,,,,11,,,70,127
110398,note_on,46,0,1,,,,,,,,,11,,,70,0
110398,note_on,46,0,2,,,,,,,,,0,,,70,0
110398,note_on,46,0,4,,,,,,,,,4,,,62,0
110398,note_on,46,0,3,,,,,,,,,2,,,70,0
110400,note_on,2,0,1,,,,,,,,,11,,,74,127
110400,note_on,2,0,2,,,,,,,,,0,,,74,127
110400,note_on,2,0,3,,,,,,,,,2,,,74,127
110400,note_on,2,0,4,,,,,,,,,4,,,65,75
110446,note_on,46,0,2,,,,,,,,,0,,,74,0
110446,note_on,46,0,1,,,,,,,,,11,,,74,0
110446,note_on,46,0,3,,,,,,,,,2,,,74,0
110446,note_on,46,0,4,,,,,,,,,4,,,65,0
110448,note_on,2,0,2,,,,,,,,,0,,,76,127
110448,note_on,2,0,4,,,,,,,,,4,,,67,75
110448,note_on,2,0,3,,,,,,,,,2,,,76,127
110448,note_on,2,0,1,,,,,,,,,11,,,76,127
110464,note_on,160,0,5,,,,,,,,,6,,,58,0
110464,note_on,160,0,6,,,,,,,,,8,,,46,0
110494,note_on,46,0,4,,,,,,,,,4,,,67,0
110494,note_on,46,0,2,,,,,,,,,0,,,76,0
110494,note_on,46,0,3,,,,,,,,,2,,,76,0
110494,note_on,46,0,1,,,,,,,,,11,,,76,0
110496,note_on,2,0,4,,,,,,,,,4,,,60,75
110496,note_on,32,0,6,,,,,,,,,8,,,45,108
110496,note_on,2,0,1,,,,,,,,,11,,,77,127
110496,note_on,2,0,3,,,,,,,,,2,,,77,127
110496,note_on,2,0,2,,,,,,,,,0,,,77,127
110496,note_on,32,0,5,,,,,,,,,6,,,57,108
110542,note_on,46,0,6,,,,,,,,,8,,,45,0
110542,note_on,46,0,5,,,,,,,,,6,,,57,0
110544,note_on,2,0,5,,,,,,,,,6,,,58,108
110544,note_on,2,0,6,,,,,,,,,8,,,46,108
110590,note_on,46,0,6,,,,,,,,,8,,,46,0
110590,note_on,94,0,3,,,,,,,,,2,,,77,0
110590,note_on,94,0,1,,,,,,,,,11,,,77,0
110590,note_on,94,0,2,,,,,,,,,0,,,77,0
110590,note_on,94,0,4,,,,,,,,,4,,,60,0
110590,note_on,46,0,5,,,,,,,,,6,,,58,0
110592,note_on,2,0,5,,,,,,,,,6,,,60,108
110592,note_on,2,0,6,,,,,,,,,8,,,48,108
110638,note_on,46,0,5,,,,,,,,,6,,,60,0
110638,note_on,46,0,6,,,,,,,,,8,,,48,0
110640,note_on,2,0,5,,,,,,,,,6,,,58,108
110640,note_on,2,0,6,,,,,,,,,8,,,46,108
110686,note_on,46,0,6,,,,,,,,,8,,,46,0
110686,note_on,46,0,5,,,,,,,,,6,,,58,0
110688,note_on,2,0,6,,,,,,,,,8,,,45,108
110688,note_on,2,0,5,,,,,,,,,6,,,57,108
110734,note_on,46,0,6,,,,,,,,,8,,,45,0
110734,note_on,46,0,5,,,,,,,,,6,,,57,0
110736,note_on,2,0,6,,,,,,,,,8,,,43,108
110736,note_on,2,0,5,,,,,,,,,6,,,55,108
110782,note_on,46,0,5,,,,,,,,,6,,,55,0
110782,note_on,46,0,6,,,,,,,,,8,,,43,0
110784,note_on,194,0,1,,,,,,,,,11,,,69,127
110784,note_on,194,0,3,,,,,,,,,2,,,65,127
110784,note_on,194,0,4,,,,,,,,,4,,,60,75
110784,note_on,194,0,2,,,,,,,,,0,,,69,127
110784,note_on,2,0,5,,,,,,,,,6,,,53,108
110784,note_on,2,0,6,,,,,,,,,8,,,41,108
110878,note_on,94,0,1,,,,,,,,,11,,,69,0
110878,note_on,94,0,3,,,,,,,,,2,,,65,0
110878,note_on,94,0,2,,,,,,,,,0,,,69,0
110880,note_on,2,0,1,,,,,,,,,11,,,69,127
110880,note_on,2,0,2,,,,,,,,,0,,,69,127
110880,note_on,2,0,3,,,,,,,,,2,,,65,127
110944,note_on,160,0,4,,,,,,,,,4,,,60,0
110944,note_on,160,0,6,,,,,,,,,8,,,41,0
110944,note_on,160,0,5,,,,,,,,,6,,,53,0
110974,note_on,94,0,2,,,,,,,,,0,,,69,0
110974,note_on,94,0,1,,,,,,,,,11,,,69,0
110974,note_on,94,0,3,,,,,,,,,2,,,65,0
110976,note_on,32,0,6,,,,,,,,,8,,,40,108
110976,note_on,32,0,4,,,,,,,,,4,,,60,75
110976,note_on,2,0,2,,,,,,,,,0,,,70,127
110976,note_on,32,0,5,,,,,,,,,6,,,52,108
110976,note_on,2,0,1,,,,,,,,,11,,,70,127
110976,note_on,2,0,3,,,,,,,,,2,,,67,127
111070,note_on,94,0,5,,,,,,,,,6,,,52,0
111070,note_on,94,0,6,,,,,,,,,8,,,40,0
111070,note_on,94,0,1,,,,,,,,,11,,,70,0
111070,note_on,94,0,4,,,,,,,,,4,,,60,0
111070,note_on,94,0,3,,,,,,,,,2,,,67,0
111070,note_on,94,0,2,,,,,,,,,0,,,70,0
111072,note_on,2,0,6,,,,,,,,,8,,,41,108
111072,note_on,2,0,2,,,,,,,,,0,,,69,127
111072,note_on,2,0,4,,,,,,,,,4,,,60,75
111072,note_on,2,0,3,,,,,,,,,2,,,65,127
111072,note_on,2,0,1,,,,,,,,,11,,,69,127
111072,note_on,2,0,5,,,,,,,,,6,,,53,108
111166,note_on,94,0,3,,,,,,,,,2,,,65,0
111166,note_on,94,0,2,,,,,,,,,0,,,69,0
111166,note_on,94,0,1,,,,,,,,,11,,,69,0
111168,note_on,2,0,1,,,,,,,,,11,,,69,127
111168,note_on,2,0,2,,,,,,,,,0,,,69,127
111168,note_on,2,0,3,,,,,,,,,2,,,65,127
111232,note_on,160,0,4,,,,,,,,,4,,,60,0
111232,note_on,160,0,6,,,,,,,,,8,,,41,0
111232,note_on,160,0,5,,,,,,,,,6,,,53,0
111262,note_on,94,0,3,,,,,,,,,2,,,65,0
111262,note_on,94,0,2,,,,,,,,,0,,,69,0
111262,note_on,94,0,1,,,,,,,,,11,,,69,0
111264,note_on,2,0,3,,,,,,,,,2,,,67,127
111264,note_on,2,0,1,,,,,,,,,11,,,70,127
111264,note_on,32,0,4,,,,,,,,,4,,,60,75
111264,note_on,32,0,6,,,,,,,,,8,,,40,108
111264,note_on,2,0,2,,,,,,,,,0,,,70,127
111264,note_on,32,0,5,,,,,,,,,6,,,52,108
111358,note_on,94,0,5,,,,,,,,,6,,,52,0
111358,note_on,94,0,1,,,,,,,,,11,,,70,0
111358,note_on,94,0,3,,,,,,,,,2,,,67,0
111358,note_on,94,0,6,,,,,,,,,8,,,40,0
111358,note_on,94,0,4,,,,,,,,,4,,,60,0
111358,note_on,94,0,2,,,,,,,,,0,,,70,0
111360,note_on,2,0,4,,,,,,,,,4,,,60,75
111360,note_on,2,0,5,,,,,,,,,6,,,53,108
111360,note_on,2,0,1,,,,,,,,,11,,,69,127
111360,note_on,2,0,3,,,,,,,,,2,,,65,127
111360,note_on,2,0,2,,,,,,,,,0,,,69,127
111360,note_on,2,0,6,,,,,,,,,8,,,41,108
111406,note_on,46,0,3,,,,,,,,,2,,,65,0
111406,note_on,46,0,2,,,,,,,,,0,,,69,0
111406,note_on,46,0,1,,,,,,,,,11,,,69,0
111408,note_on,2,0,1,,,,,,,,,11,,,81,127
111408,note_on,2,0,2,,,,,,,,,0,,,81,127
111408,note_on,2,0,3,,,,,,,,,2,,,81,127
111454,note_on,46,0,1,,,,,,,,,11,,,81,0
111454,note_on,46,0,2,,,,,,,,,0,,,81,0
111454,note_on,46,0,3,,,,,,,,,2,,,81,0
111456,note_on,2,0,2,,,,,,,,,0,,,82,127
111456,note_on,2,0,1,,,,,,,,,11,,,82,127
111456,note_on,2,0,3,,,,,,,,,2,,,82,127
111502,note_on,142,0,4,,,,,,,,,4,,,60,0
111502,note_on,142,0,6,,,,,,,,,8,,,41,0
111502,note_on,46,0,2,,,,,,,,,0,,,82,0
111502,note_on,142,0,5,,,,,,,,,6,,,53,0
111502,note_on,46,0,3,,,,,,,,,2,,,82,0
111502,note_on,46,0,1,,,,,,,,,11,,,82,0
111504,note_on,2,0,3,,,,,,,,,2,,,74,127
111504,note_on,2,0,1,,,,,,,,,11,,,74,127
111504,note_on,2,0,2,,,,,,,,,0,,,74,127
111504,note_on,2,0,4,,,,,,,,,4,,,65,75
111504,note_on,2,0,5,,,,,,,,,6,,,46,108
111504,note_on,2,0,6,,,,,,,,,8,,,34,108
111550,note_on,46,0,5,,,,,,,,,6,,,46,0
111550,note_on,46,0,2,,,,,,,,,0,,,74,0
111550,note_on,46,0,3,,,,,,,,,2,,,74,0
111550,note_on,46,0,4,,,,,,,,,4,,,65,0
111550,note_on,46,0,6,,,,,,,,,8,,,34,0
111550,note_on,46,0,1,,,,,,,,,11,,,74,0
111552,note_on,2,0,4,,,,,,,,,4,,,67,75
111552,note_on,2,0,3,,,,,,,,,2,,,75,127
111552,note_on,2,0,1,,,,,,,,,11,,,75,127
111552,note_on,2,0,5,,,,,,,,,6,,,51,108
111552,note_on,2,0,6,,,,,,,,,8,,,39,108
111552,note_on,2,0,2,,,,,,,,,0,,,75,127
111598,note_on,46,0,1,,,,,,,,,11,,,75,0
111598,note_on,46,0,6,,,,,,,,,8,,,39,0
111598,note_on,46,0,2,,,,,,,,,0,,,75,0
111598,note_on,46,0,4,,,,,,,,,4,,,67,0
111598,note_on,46,0,5,,,,,,,,,6,,,51,0
111598,note_on,46,0,3,,,,,,,,,2,,,75,0
111600,note_on,2,0,5,,,,,,,,,6,,,53,108
111600,note_on,2,0,1,,,,,,,,,11,,,72,127
111600,note_on,2,0,2,,,,,,,,,0,,,72,127
111600,note_on,2,0,6,,,,,,,,,8,,,41,108
111600,note_on,2,0,4,,,,,,,,,4,,,65,75
111600,note_on,2,0,3,,,,,,,,,2,,,72,127
111646,note_on,46,0,3,,,,,,,,,2,,,72,0
111646,note_on,46,0,1,,,,,,,,,11,,,72,0
111646,note_on,46,0,5,,,,,,,,,6,,,53,0
111646,note_on,46,0,2,,,,,,,,,0,,,72,0
111646,note_on,46,0,6,,,,,,,,,8,,,41,0
111646,note_on,46,0,4,,,,,,,,,4,,,65,0
111648,note_on,2,0,1,,,,,,,,,11,,,70,127
111648,note_on,2,0,2,,,,,,,,,0,,,70,127
111648,note_on,2,0,6,,,,,,,,,8,,,34,108
111648,note_on,2,0,4,,,,,,,,,4,,,65,75
111648,note_on,2,0,5,,,,,,,,,6,,,46,108
111648,note_on,2,0,3,,,,,,,,,2,,,74,127
111742,note_on,94,0,5,,,,,,,,,6,,,46,0
111742,note_on,94,0,2,,,,,,,,,0,,,70,0
111742,note_on,94,0,3,,,,,,,,,2,,,74,0
111742,note_on,94,0,1,,,,,,,,,11,,,70,0
111742,note_on,94,0,6,,,,,,,,,8,,,34,0
111744,note_on,2,0,2,,,,,,,,,0,,,69,127
111744,note_on,2,0,6,,,,,,,,,8,,,41,108
111744,note_on,2,0,1,,,,,,,,,11,,,69,127
111744,note_on,2,0,5,,,,,,,,,6,,,53,108
111744,note_on,2,0,3,,,,,,,,,2,,,65,127
111808,note_on,160,0,4,,,,,,,,,4,,,65,0
111838,note_on,94,0,6,,,,,,,,,8,,,41,0
111838,note_on,94,0,5,,,,,,,,,6,,,53,0
111838,note_on,94,0,3,,,,,,,,,2,,,65,0
111838,note_on,94,0,1,,,,,,,,,11,,,69,0
111838,note_on,94,0,2,,,,,,,,,0,,,69,0
111840,note_on,2,0,2,,,,,,,,,0,,,70,127
111840,note_on,2,0,5,,,,,,,,,6,,,52,108
111840,note_on,2,0,3,,,,,,,,,2,,,67,127
111840,note_on,32,0,4,,,,,,,,,4,,,60,75
111840,note_on,2,0,1,,,,,,,,,11,,,70,127
111840,note_on,2,0,6,,,,,,,,,8,,,40,108
111934,note_on,94,0,6,,,,,,,,,8,,,40,0
111934,note_on,94,0,1,,,,,,,,,11,,,70,0
111934,note_on,94,0,4,,,,,,,,,4,,,60,0
111934,note_on,94,0,5,,,,,,,,,6,,,52,0
111934,note_on,94,0,2,,,,,,,,,0,,,70,0
111934,note_on,94,0,3,,,,,,,,,2,,,67,0
111936,note_on,2,0,5,,,,,,,,,6,,,53,108
111936,note_on,2,0,3,,,,,,,,,2,,,65,127
111936,note_on,2,0,1,,,,,,,,,11,,,69,127
111936,note_on,2,0,2,,,,,,,,,0,,,69,127
111936,note_on,2,0,6,,,,,,,,,8,,,41,108
111936,note_on,2,0,4,,,,,,,,,4,,,60,75
112030,note_on,94,0,5,,,,,,,,,6,,,53,0
112030,note_on,94,0,2,,,,,,,,,0,,,69,0
112030,note_on,94,0,6,,,,,,,,,8,,,41,0
112030,note_on,94,0,3,,,,,,,,,2,,,65,0
112030,note_on,94,0,1,,,,,,,,,11,,,69,0
112032,note_on,2,0,1,,,,,,,,,11,,,69,127
112032,note_on,2,0,2,,,,,,,,,0,,,69,127
112032,note_on,2,0,5,,,,,,,,,6,,,53,108
112032,note_on,2,0,6,,,,,,,,,8,,,41,108
112032,note_on,2,0,3,,,,,,,,,2,,,65,127
112096,note_on,160,0,4,,,,,,,,,4,,,60,0
112126,note_on,94,0,1,,,,,,,,,11,,,69,0
112126,note_on,94,0,2,,,,,,,,,0,,,69,0
112126,note_on,94,0,6,,,,,,,,,8,,,41,0
112126,note_on,94,0,5,,,,,,,,,6,,,53,0
112126,note_on,94,0,3,,,,,,,,,2,,,65,0
112128,note_on,2,0,6,,,,,,,,,8,,,40,108
112128,note_on,2,0,5,,,,,,,,,6,,,52,108
112128,note_on,32,0,4,,,,,,,,,4,,,60,75
112128,note_on,2,0,3,,,,,,,,,2,,,67,127
112128,note_on,2,0,1,,,,,,,,,11,,,70,127
112128,note_on,2,0,2,,,,,,,,,0,,,70,127
112222,note_on,94,0,2,,,,,,,,,0,,,70,0
112222,note_on,94,0,6,,,,,,,,,8,,,40,0
112222,note_on,94,0,1,,,,,,,,,11,,,70,0
112222,note_on,94,0,4,,,,,,,,,4,,,60,0
112222,note_on,94,0,3,,,,,,,,,2,,,67,0
112222,note_on,94,0,5,,,,,,,,,6,,,52,0
112224,note_on,2,0,3,,,,,,,,,2,,,65,127
112224,note_on,2,0,4,,,,,,,,,4,,,60,75
112224,note_on,2,0,1,,,,,,,,,11,,,69,127
112224,note_on,2,0,5,,,,,,,,,6,,,53,108
112224,note_on,2,0,6,,,,,,,,,8,,,41,108
112224,note_on,2,0,2,,,,,,,,,0,,,69,127
112270,note_on,46,0,2,,,,,,,,,0,,,69,0
112270,note_on,46,0,1,,,,,,,,,11,,,69,0
112270,note_on,46,0,3,,,,,,,,,2,,,65,0
112272,note_on,2,0,1,,,,,,,,,11,,,81,127
112272,note_on,2,0,3,,,,,,,,,2,,,81,127
112272,note_on,2,0,2,,,,,,,,,0,,,81,127
112318,note_on,46,0,3,,,,,,,,,2,,,81,0
112318,note_on,46,0,2,,,,,,,,,0,,,81,0
112318,note_on,94,0,5,,,,,,,,,6,,,53,0
112318,note_on,94,0,6,,,,,,,,,8,,,41,0
112318,note_on,46,0,1,,,,,,,,,11,,,81,0
112318,note_on,94,0,4,,,,,,,,,4,,,60,0
112320,note_on,2,0,2,,,,,,,,,0,,,82,127
112320,note_on,2,0,1,,,,,,,,,11,,,82,127
112320,note_on,2,0,3,,,,,,,,,2,,,82,127
112366,note_on,46,0,1,,,,,,,,,11,,,82,0
112366,note_on,46,0,2,,,,,,,,,0,,,82,0
112366,note_on,46,0,3,,,,,,,,,2,,,82,0
112368,note_on,50,0,6,,,,,,,,,8,,,34,108
112368,note_on,50,0,5,,,,,,,,,6,,,46,108
112368,note_on,2,0,1,,,,,,,,,11,,,74,127
112368,note_on,2,0,2,,,,,,,,,0,,,74,127
112368,note_on,50,0,4,,,,,,,,,4,,,65,75
112368,note_on,2,0,3,,,,,,,,,2,,,74,127
112414,note_on,46,0,4,,,,,,,,,4,,,65,0
112414,note_on,46,0,6,,,,,,,,,8,,,34,0
112414,note_on,46,0,1,,,,,,,,,11,,,74,0
112414,note_on,46,0,5,,,,,,,,,6,,,46,0
112414,note_on,46,0,3,,,,,,,,,2,,,74,0
112414,note_on,46,0,2,,,,,,,,,0,,,74,0
112416,note_on,2,0,3,,,,,,,,,2,,,75,127
112416,note_on,2,0,6,,,,,,,,,8,,,39,108
112416,note_on,2,0,5,,,,,,,,,6,,,51,108
112416,note_on,2,0,1,,,,,,,,,11,,,75,127
112416,note_on,2,0,2,,,,,,,,,0,,,75,127
112416,note_on,2,0,4,,,,,,,,,4,,,67,75
112462,note_on,46,0,5,,,,,,,,,6,,,51,0
112462,note_on,46,0,4,,,,,,,,,4,,,67,0
112462,note_on,46,0,2,,,,,,,,,0,,,75,0
112462,note_on,46,0,3,,,,,,,,,2,,,75,0
112462,note_on,46,0,1,,,,,,,,,11,,,75,0
112462,note_on,46,0,6,,,,,,,,,8,,,39,0
112464,note_on,2,0,4,,,,,,,,,4,,,65,75
112464,note_on,2,0,5,,,,,,,,,6,,,53,108
112464,note_on,2,0,1,,,,,,,,,11,,,72,127
112464,note_on,2,0,6,,,,,,,,,8,,,41,108
112464,note_on,2,0,2,,,,,,,,,0,,,72,127
112464,note_on,2,0,3,,,,,,,,,2,,,72,127
112510,note_on,46,0,4,,,,,,,,,4,,,65,0
112510,note_on,46,0,5,,,,,,,,,6,,,53,0
112510,note_on,46,0,6,,,,,,,,,8,,,41,0
112510,note_on,46,0,3,,,,,,,,,2,,,72,0
112510,note_on,46,0,2,,,,,,,,,0,,,72,0
112510,note_on,46,0,1,,,,,,,,,11,,,72,0
112512,note_on,2,0,1,,,,,,,,,11,,,70,127
112512,note_on,2,0,5,,,,,,,,,6,,,46,108
112512,note_on,2,0,6,,,,,,,,,8,,,34,108
112512,note_on,2,0,3,,,,,,,,,2,,,74,127
112512,note_on,2,0,4,,,,,,,,,4,,,65,75
112512,note_on,2,0,2,,,,,,,,,0,,,70,127
112512,set_tempo,5184,1,0,588235,,,,,,,,,,,,
112558,note_on,46,0,1,,,,,,,,,11,,,70,0
112560,note_on,2,0,1,,,,,,,,,11,,,74,127
112606,note_on,46,0,1,,,,,,,,,11,,,74,0
112606,note_on,94,0,5,,,,,,,,,6,,,46,0
112608,note_on,2,0,1,,,,,,,,,11,,,72,127
112608,note_on,2,0,5,,,,,,,,,6,,,45,108
112654,note_on,46,0,1,,,,,,,,,11,,,72,0
112656,note_on,2,0,1,,,,,,,,,11,,,75,127
112672,note_on,160,0,6,,,,,,,,,8,,,34,0
112672,note_on,160,0,3,,,,,,,,,2,,,74,0
112672,note_on,160,0,4,,,,,,,,,4,,,65,0
112672,note_on,160,0,2,,,,,,,,,0,,,70,0
112702,note_on,94,0,5,,,,,,,,,6,,,45,0
112702,note_on,46,0,1,,,,,,,,,11,,,75,0
112704,note_on,2,0,5,,,,,,,,,6,,,46,108
112704,note_on,2,0,1,,,,,,,,,11,,,74,127
112750,note_on,46,0,1,,,,,,,,,11,,,74,0
112752,note_on,2,0,1,,,,,,,,,11,,,77,127
112798,note_on,46,0,1,,,,,,,,,11,,,77,0
112798,note_on,94,0,5,,,,,,,,,6,,,46,0
112800,note_on,2,0,1,,,,,,,,,11,,,75,127
112800,note_on,2,0,5,,,,,,,,,6,,,48,108
112846,note_on,46,0,1,,,,,,,,,11,,,75,0
112848,note_on,2,0,1,,,,,,,,,11,,,74,127
112894,note_on,46,0,1,,,,,,,,,11,,,74,0
112894,note_on,94,0,5,,,,,,,,,6,,,48,0
112896,note_on,2,0,5,,,,,,,,,6,,,45,108
112896,note_on,2,0,1,,,,,,,,,11,,,72,127
112942,note_on,46,0,1,,,,,,,,,11,,,72,0
112944,note_on,2,0,1,,,,,,,,,11,,,79,127
112990,note_on,46,0,1,,,,,,,,,11,,,79,0
112990,note_on,94,0,5,,,,,,,,,6,,,45,0
112992,note_on,2,0,1,,,,,,,,,11,,,77,127
112992,note_on,2,0,5,,,,,,,,,6,,,53,108
113038,note_on,46,0,1,,,,,,,,,11,,,77,0
113040,note_on,2,0,1,,,,,,,,,11,,,75,127
113086,note_on,94,0,5,,,,,,,,,6,,,53,0
113086,note_on,46,0,1,,,,,,,,,11,,,75,0
113088,note_on,2,0,5,,,,,,,,,6,,,46,108
113088,note_on,2,0,1,,,,,,,,,11,,,74,127
113134,note_on,46,0,1,,,,,,,,,11,,,74,0
113136,note_on,2,0,1,,,,,,,,,11,,,72,127
113182,note_on,46,0,1,,,,,,,,,11,,,72,0
113182,note_on,94,0,5,,,,,,,,,6,,,46,0
113184,note_on,2,0,5,,,,,,,,,6,,,50,108
113184,note_on,2,0,1,,,,,,,,,11,,,70,127
113230,note_on,46,0,1,,,,,,,,,11,,,70,0
113232,note_on,2,0,1,,,,,,,,,11,,,82,127
113278,note_on,46,0,1,,,,,,,,,11,,,82,0
113278,note_on,94,0,5,,,,,,,,,6,,,50,0
113280,note_on,2,0,1,,,,,,,,,11,,,81,127
113280,note_on,2,0,5,,,,,,,,,6,,,53,108
113326,note_on,46,0,1,,,,,,,,,11,,,81,0
113328,note_on,2,0,1,,,,,,,,,11,,,79,127
113374,note_on,94,0,5,,,,,,,,,6,,,53,0
113374,note_on,46,0,1,,,,,,,,,11,,,79,0
113376,note_on,2,0,5,,,,,,,,,6,,,46,108
113376,note_on,2,0,1,,,,,,,,,11,,,77,127
113422,note_on,46,0,1,,,,,,,,,11,,,77,0
113424,note_on,2,0,1,,,,,,,,,11,,,75,127
113470,note_on,94,0,5,,,,,,,,,6,,,46,0
113470,note_on,46,0,1,,,,,,,,,11,,,75,0
113472,note_on,2,0,5,,,,,,,,,6,,,58,108
113472,note_on,2,0,1,,,,,,,,,11,,,74,127
113518,note_on,46,0,1,,,,,,,,,11,,,74,0
113520,note_on,2,0,1,,,,,,,,,11,,,79,127
113566,note_on,94,0,5,,,,,,,,,6,,,58,0
113566,note_on,46,0,1,,,,,,,,,11,,,79,0
113568,note_on,2,0,5,,,,,,,,,6,,,57,108
113568,note_on,2,0,1,,,,,,,,,11,,,77,127
113614,note_on,46,0,1,,,,,,,,,11,,,77,0
113616,note_on,2,0,1,,,,,,,,,11,,,75,127
113662,note_on,46,0,1,,,,,,,,,11,,,75,0
113662,note_on,94,0,5,,,,,,,,,6,,,57,0
113664,note_on,2,0,1,,,,,,,,,11,,,74,127
113664,note_on,2,0,5,,,,,,,,,6,,,58,108
113710,note_on,46,0,1,,,,,,,,,11,,,74,0
113712,note_on,2,0,1,,,,,,,,,11,,,72,127
113758,note_on,94,0,5,,,,,,,,,6,,,58,0
113758,note_on,46,0,1,,,,,,,,,11,,,72,0
113760,note_on,2,0,5,,,,,,,,,6,,,50,108
113760,note_on,2,0,1,,,,,,,,,11,,,70,127
113854,note_on,94,0,5,,,,,,,,,6,,,50,0
113854,note_on,94,0,1,,,,,,,,,11,,,70,0
113856,note_on,2,0,5,,,,,,,,,6,,,48,108
113950,note_on,94,0,5,,,,,,,,,6,,,48,0
113952,note_on,2,0,5,,,,,,,,,6,,,47,108
113952,note_on,98,0,1,,,,,,,,,11,,,77,127
113998,note_on,46,0,1,,,,,,,,,11,,,77,0
114000,note_on,2,0,1,,,,,,,,,11,,,80,127
114046,note_on,94,0,5,,,,,,,,,6,,,47,0
114046,note_on,46,0,1,,,,,,,,,11,,,80,0
114048,note_on,2,0,1,,,,,,,,,11,,,79,127
114048,note_on,2,0,5,,,,,,,,,6,,,50,108
114094,note_on,46,0,1,,,,,,,,,11,,,79,0
114096,note_on,2,0,1,,,,,,,,,11,,,77,127
114142,note_on,94,0,5,,,,,,,,,6,,,50,0
114142,note_on,46,0,1,,,,,,,,,11,,,77,0
114144,note_on,2,0,1,,,,,,,,,11,,,79,127
114144,note_on,2,0,5,,,,,,,,,6,,,53,108
114190,note_on,46,0,1,,,,,,,,,11,,,79,0
114192,note_on,2,0,1,,,,,,,,,11,,,80,127
114238,note_on,46,0,1,,,,,,,,,11,,,80,0
114238,note_on,94,0,5,,,,,,,,,6,,,53,0
114240,note_on,2,0,1,,,,,,,,,11,,,71,127
114240,note_on,2,0,5,,,,,,,,,6,,,55,108
114286,note_on,46,0,1,,,,,,,,,11,,,71,0
114288,note_on,2,0,1,,,,,,,,,11,,,80,127
114334,note_on,46,0,1,,,,,,,,,11,,,80,0
114334,note_on,94,0,5,,,,,,,,,6,,,55,0
114336,note_on,2,0,1,,,,,,,,,11,,,79,127
114336,note_on,2,0,5,,,,,,,,,6,,,47,108
114382,note_on,46,0,1,,,,,,,,,11,,,79,0
114384,note_on,2,0,1,,,,,,,,,11,,,77,127
114430,note_on,46,0,1,,,,,,,,,11,,,77,0
114430,note_on,94,0,5,,,,,,,,,6,,,47,0
114432,note_on,2,0,5,,,,,,,,,6,,,43,108
114432,note_on,2,0,1,,,,,,,,,11,,,75,127
114478,note_on,46,0,1,,,,,,,,,11,,,75,0
114480,note_on,2,0,1,,,,,,,,,11,,,74,127
114526,note_on,46,0,1,,,,,,,,,11,,,74,0
114526,note_on,94,0,5,,,,,,,,,6,,,43,0
114528,note_on,2,0,1,,,,,,,,,11,,,75,127
114528,note_on,2,0,5,,,,,,,,,6,,,48,108
114574,note_on,46,0,1,,,,,,,,,11,,,75,0
114576,note_on,2,0,1,,,,,,,,,11,,,74,127
114622,note_on,94,0,5,,,,,,,,,6,,,48,0
114622,note_on,46,0,1,,,,,,,,,11,,,74,0
114624,note_on,2,0,5,,,,,,,,,6,,,52,108
114624,note_on,2,0,1,,,,,,,,,11,,,72,127
114718,note_on,94,0,5,,,,,,,,,6,,,52,0
114720,note_on,2,0,5,,,,,,,,,6,,,50,108
114784,note_on,160,0,1,,,,,,,,,11,,,72,0
114814,note_on,94,0,5,,,,,,,,,6,,,50,0
114816,note_on,2,0,5,,,,,,,,,6,,,49,108
114816,note_on,32,0,1,,,,,,,,,11,,,79,127
114862,note_on,46,0,1,,,,,,,,,11,,,79,0
114864,note_on,2,0,1,,,,,,,,,11,,,82,127
114910,note_on,46,0,1,,,,,,,,,11,,,82,0
114910,note_on,94,0,5,,,,,,,,,6,,,49,0
114912,note_on,2,0,1,,,,,,,,,11,,,81,127
114912,note_on,2,0,5,,,,,,,,,6,,,52,108
114958,note_on,46,0,1,,,,,,,,,11,,,81,0
114960,note_on,2,0,1,,,,,,,,,11,,,79,127
115006,note_on,94,0,5,,,,,,,,,6,,,52,0
115006,note_on,46,0,1,,,,,,,,,11,,,79,0
115008,note_on,2,0,5,,,,,,,,,6,,,55,108
115008,note_on,2,0,1,,,,,,,,,11,,,81,127
115054,note_on,46,0,1,,,,,,,,,11,,,81,0
115056,note_on,2,0,1,,,,,,,,,11,,,82,127
115102,note_on,46,0,1,,,,,,,,,11,,,82,0
115102,note_on,94,0,5,,,,,,,,,6,,,55,0
115104,note_on,2,0,1,,,,,,,,,11,,,73,127
115104,note_on,2,0,5,,,,,,,,,6,,,57,108
115150,note_on,46,0,1,,,,,,,,,11,,,73,0
115152,note_on,2,0,1,,,,,,,,,11,,,82,127
115198,note_on,46,0,1,,,,,,,,,11,,,82,0
115198,note_on,94,0,5,,,,,,,,,6,,,57,0
115200,note_on,2,0,1,,,,,,,,,11,,,81,127
115200,note_on,2,0,5,,,,,,,,,6,,,49,108
115246,note_on,46,0,1,,,,,,,,,11,,,81,0
115248,note_on,2,0,1,,,,,,,,,11,,,79,127
115294,note_on,94,0,5,,,,,,,,,6,,,49,0
115294,note_on,46,0,1,,,,,,,,,11,,,79,0
115296,note_on,2,0,1,,,,,,,,,11,,,77,127
115296,note_on,2,0,5,,,,,,,,,6,,,45,108
115342,note_on,46,0,1,,,,,,,,,11,,,77,0
115344,note_on,2,0,1,,,,,,,,,11,,,76,127
115390,note_on,94,0,5,,,,,,,,,6,,,45,0
115390,note_on,46,0,1,,,,,,,,,11,,,76,0
115392,note_on,2,0,5,,,,,,,,,6,,,50,108
115392,note_on,2,0,1,,,,,,,,,11,,,77,127
115438,note_on,46,0,1,,,,,,,,,11,,,77,0
115440,note_on,2,0,1,,,,,,,,,11,,,76,127
115486,note_on,46,0,1,,,,,,,,,11,,,76,0
115486,note_on,94,0,5,,,,,,,,,6,,,50,0
115488,note_on,2,0,1,,,,,,,,,11,,,74,127
115488,note_on,2,0,5,,,,,,,,,6,,,53,108
115582,note_on,94,0,1,,,,,,,,,11,,,74,0
115582,note_on,94,0,5,,,,,,,,,6,,,53,0
115584,note_on,2,0,5,,,,,,,,,6,,,57,108
115678,note_on,94,0,5,,,,,,,,,6,,,57,0
115680,note_on,2,0,5,,,,,,,,,6,,,50,108
115680,note_on,98,0,1,,,,,,,,,11,,,77,127
115726,note_on,46,0,1,,,,,,,,,11,,,77,0
115728,note_on,2,0,1,,,,,,,,,11,,,74,127
115774,note_on,46,0,1,,,,,,,,,11,,,74,0
115776,note_on,2,0,1,,,,,,,,,11,,,73,127
115822,note_on,46,0,1,,,,,,,,,11,,,73,0
115824,note_on,2,0,1,,,,,,,,,11,,,74,127
115870,note_on,46,0,1,,,,,,,,,11,,,74,0
115872,note_on,2,0,1,,,,,,,,,11,,,77,127
115918,note_on,46,0,1,,,,,,,,,11,,,77,0
115920,note_on,2,0,1,,,,,,,,,11,,,74,127
115936,note_on,256,0,5,,,,,,,,,6,,,50,0
115966,note_on,46,0,1,,,,,,,,,11,,,74,0
115968,note_on,2,0,1,,,,,,,,,11,,,79,127
115968,note_on,32,0,5,,,,,,,,,6,,,46,108
116014,note_on,46,0,1,,,,,,,,,11,,,79,0
116016,note_on,2,0,1,,,,,,,,,11,,,74,127
116062,note_on,46,0,1,,,,,,,,,11,,,74,0
116064,note_on,2,0,1,,,,,,,,,11,,,73,127
116110,note_on,46,0,1,,,,,,,,,11,,,73,0
116112,note_on,2,0,1,,,,,,,,,11,,,74,127
116128,note_on,160,0,5,,,,,,,,,6,,,46,0
116158,note_on,46,0,1,,,,,,,,,11,,,74,0
116160,note_on,2,0,1,,,,,,,,,11,,,79,127
116206,note_on,46,0,1,,,,,,,,,11,,,79,0
116208,note_on,2,0,1,,,,,,,,,11,,,74,127
116254,note_on,46,0,1,,,,,,,,,11,,,74,0
116256,note_on,128,0,5,,,,,,,,,6,,,46,108
116256,note_on,2,0,1,,,,,,,,,11,,,80,127
116302,note_on,46,0,1,,,,,,,,,11,,,80,0
116304,note_on,2,0,1,,,,,,,,,11,,,74,127
116350,note_on,46,0,1,,,,,,,,,11,,,74,0
116352,note_on,2,0,1,,,,,,,,,11,,,73,127
116398,note_on,46,0,1,,,,,,,,,11,,,73,0
116400,note_on,2,0,1,,,,,,,,,11,,,74,127
116446,note_on,46,0,1,,,,,,,,,11,,,74,0
116448,note_on,2,0,1,,,,,,,,,11,,,78,127
116494,note_on,46,0,1,,,,,,,,,11,,,78,0
116496,note_on,2,0,1,,,,,,,,,11,,,74,127
116512,note_on,256,0,5,,,,,,,,,6,,,46,0
116542,note_on,46,0,1,,,,,,,,,11,,,74,0
116544,note_on,2,0,1,,,,,,,,,11,,,81,127
116544,note_on,32,0,5,,,,,,,,,6,,,45,108
116590,note_on,46,0,1,,,,,,,,,11,,,81,0
116592,note_on,2,0,1,,,,,,,,,11,,,74,127
116638,note_on,46,0,1,,,,,,,,,11,,,74,0
116640,note_on,2,0,1,,,,,,,,,11,,,73,127
116686,note_on,46,0,1,,,,,,,,,11,,,73,0
116688,note_on,2,0,1,,,,,,,,,11,,,74,127
116704,note_on,160,0,5,,,,,,,,,6,,,45,0
116734,note_on,46,0,1,,,,,,,,,11,,,74,0
116736,note_on,2,0,1,,,,,,,,,11,,,78,127
116736,note_on,32,0,5,,,,,,,,,6,,,50,108
116782,note_on,46,0,1,,,,,,,,,11,,,78,0
116784,note_on,2,0,1,,,,,,,,,11,,,74,127
116830,note_on,46,0,1,,,,,,,,,11,,,74,0
116830,note_on,94,0,5,,,,,,,,,6,,,50,0
116832,note_on,2,0,1,,,,,,,,,11,,,82,127
116832,note_on,2,0,5,,,,,,,,,6,,,43,108
116862,note_on,30,0,1,,,,,,,,,11,,,82,0
116864,note_on,2,0,1,,,,,,,,,11,,,81,127
116894,note_on,30,0,1,,,,,,,,,11,,,81,0
116896,note_on,2,0,1,,,,,,,,,11,,,79,127
116926,note_on,30,0,1,,,,,,,,,11,,,79,0
116928,note_on,2,0,1,,,,,,,,,11,,,81,127
116958,note_on,30,0,1,,,,,,,,,11,,,81,0
116960,note_on,2,0,1,,,,,,,,,11,,,79,127
116990,note_on,30,0,1,,,,,,,,,11,,,79,0
116992,note_on,2,0,1,,,,,,,,,11,,,77,127
117022,note_on,30,0,1,,,,,,,,,11,,,77,0
117024,note_on,2,0,1,,,,,,,,,11,,,79,127
117054,note_on,30,0,1,,,,,,,,,11,,,79,0
117056,note_on,2,0,1,,,,,,,,,11,,,77,127
117086,note_on,30,0,1,,,,,,,,,11,,,77,0
117088,note_on,2,0,1,,,,,,,,,11,,,76,127
117088,note_on,256,0,5,,,,,,,,,6,,,43,0
117118,note_on,30,0,1,,,,,,,,,11,,,76,0
117120,note_on,2,0,1,,,,,,,,,11,,,77,127
117150,note_on,30,0,1,,,,,,,,,11,,,77,0
117152,note_on,2,0,1,,,,,,,,,11,,,76,127
117182,note_on,30,0,1,,,,,,,,,11,,,76,0
117184,note_on,2,0,1,,,,,,,,,11,,,74,127
117214,note_on,30,0,1,,,,,,,,,11,,,74,0
117216,note_on,2,0,1,,,,,,,,,11,,,76,127
117246,note_on,30,0,1,,,,,,,,,11,,,76,0
117248,note_on,2,0,1,,,,,,,,,11,,,74,127
117278,note_on,30,0,1,,,,,,,,,11,,,74,0
117280,note_on,2,0,1,,,,,,,,,11,,,73,127
117310,note_on,30,0,1,,,,,,,,,11,,,73,0
117312,note_on,2,0,1,,,,,,,,,11,,,74,127
117342,note_on,30,0,1,,,,,,,,,11,,,74,0
117344,note_on,2,0,1,,,,,,,,,11,,,73,127
117374,note_on,30,0,1,,,,,,,,,11,,,73,0
117376,note_on,2,0,1,,,,,,,,,11,,,71,127
117406,note_on,30,0,1,,,,,,,,,11,,,71,0
117408,note_on,2,0,1,,,,,,,,,11,,,73,127
117408,note_on,320,0,5,,,,,,,,,6,,,45,108
117438,note_on,30,0,1,,,,,,,,,11,,,73,0
117440,note_on,2,0,1,,,,,,,,,11,,,71,127
117470,note_on,30,0,1,,,,,,,,,11,,,71,0
117472,note_on,2,0,1,,,,,,,,,11,,,69,127
117502,note_on,30,0,1,,,,,,,,,11,,,69,0
117502,note_on,94,0,5,,,,,,,,,6,,,45,0
117504,note_on,2,0,5,,,,,,,,,6,,,49,108
117504,note_on,2,0,1,,,,,,,,,11,,,79,127
117598,note_on,94,0,5,,,,,,,,,6,,,49,0
117600,note_on,2,0,5,,,,,,,,,6,,,45,108
117664,note_on,160,0,1,,,,,,,,,11,,,79,0
117694,note_on,94,0,5,,,,,,,,,6,,,45,0
117696,note_on,32,0,1,,,,,,,,,11,,,77,127
117696,note_on,2,0,5,,,,,,,,,6,,,50,108
117726,note_on,30,0,1,,,,,,,,,11,,,77,0
117728,note_on,2,0,1,,,,,,,,,11,,,76,127
117758,note_on,30,0,1,,,,,,,,,11,,,76,0
117760,note_on,2,0,1,,,,,,,,,11,,,74,127
117790,note_on,94,0,5,,,,,,,,,6,,,50,0
117790,note_on,30,0,1,,,,,,,,,11,,,74,0
117792,note_on,2,0,1,,,,,,,,,11,,,81,127
117792,note_on,2,0,5,,,,,,,,,6,,,53,108
117886,note_on,94,0,5,,,,,,,,,6,,,53,0
117888,note_on,2,0,5,,,,,,,,,6,,,50,108
117952,note_on,160,0,1,,,,,,,,,11,,,81,0
117982,note_on,94,0,5,,,,,,,,,6,,,50,0
117984,note_on,2,0,5,,,,,,,,,6,,,55,108
117984,note_on,32,0,1,,,,,,,,,11,,,82,127
118078,note_on,94,0,1,,,,,,,,,11,,,82,0
118078,note_on,94,0,5,,,,,,,,,6,,,55,0
118080,note_on,2,0,1,,,,,,,,,11,,,74,127
118080,note_on,2,0,5,,,,,,,,,6,,,57,108
118102,note_on,22,0,1,,,,,,,,,11,,,74,0
118104,note_on,2,0,1,,,,,,,,,11,,,73,127
118126,note_on,22,0,1,,,,,,,,,11,,,73,0
118128,note_on,2,0,1,,,,,,,,,11,,,73,127
118150,note_on,22,0,1,,,,,,,,,11,,,73,0
118152,note_on,2,0,1,,,,,,,,,11,,,74,127
118174,note_on,22,0,1,,,,,,,,,11,,,74,0
118174,note_on,94,0,5,,,,,,,,,6,,,57,0
118176,note_on,2,0,1,,,,,,,,,11,,,73,127
118176,note_on,2,0,5,,,,,,,,,6,,,45,108
118270,note_on,94,0,1,,,,,,,,,11,,,73,0
118270,note_on,94,0,5,,,,,,,,,6,,,45,0
118272,note_on,2,0,1,,,,,,,,,11,,,74,127
118272,note_on,5600,0,3,,,,,,,,,2,,,81,127
118272,note_on,2,0,5,,,,,,,,,6,,,50,108
118272,set_tempo,5760,1,0,600000,,,,,,,,,,,,
118272,note_on,5600,0,4,,,,,,,,,4,,,65,75
118294,note_on,22,0,3,,,,,,,,,2,,,81,0
118296,note_on,2,0,3,,,,,,,,,2,,,79,127
118318,note_on,22,0,3,,,,,,,,,2,,,79,0
118320,note_on,2,0,3,,,,,,,,,2,,,77,127
118342,note_on,22,0,3,,,,,,,,,2,,,77,0
118344,note_on,2,0,3,,,,,,,,,2,,,76,127
118366,note_on,94,0,4,,,,,,,,,4,,,65,0
118366,note_on,22,0,3,,,,,,,,,2,,,76,0
118366,note_on,94,0,5,,,,,,,,,6,,,50,0
118368,note_on,2,0,4,,,,,,,,,4,,,65,75
118368,note_on,2,0,3,,,,,,,,,2,,,77,127
118368,note_on,2,0,5,,,,,,,,,6,,,50,108
118390,note_on,22,0,3,,,,,,,,,2,,,77,0
118392,note_on,2,0,3,,,,,,,,,2,,,76,127
118414,note_on,22,0,3,,,,,,,,,2,,,76,0
118416,note_on,2,0,3,,,,,,,,,2,,,74,127
118432,note_on,160,0,1,,,,,,,,,11,,,74,0
118438,note_on,22,0,3,,,,,,,,,2,,,74,0
118440,note_on,2,0,3,,,,,,,,,2,,,72,127
118462,note_on,94,0,4,,,,,,,,,4,,,65,0
118462,note_on,22,0,3,,,,,,,,,2,,,72,0
118462,note_on,94,0,5,,,,,,,,,6,,,50,0
118464,note_on,2,0,4,,,,,,,,,4,,,65,75
118464,note_on,2,0,5,,,,,,,,,6,,,50,108
118464,note_on,2,0,3,,,,,,,,,2,,,74,127
118486,note_on,22,0,3,,,,,,,,,2,,,74,0
118488,note_on,2,0,3,,,,,,,,,2,,,72,127
118510,note_on,22,0,3,,,,,,,,,2,,,72,0
118512,note_on,2,0,3,,,,,,,,,2,,,70,127
118534,note_on,22,0,3,,,,,,,,,2,,,70,0
118536,note_on,2,0,3,,,,,,,,,2,,,69,127
118558,note_on,22,0,3,,,,,,,,,2,,,69,0
118558,note_on,94,0,4,,,,,,,,,4,,,65,0
118558,note_on,94,0,5,,,,,,,,,6,,,50,0
118560,note_on,2,0,5,,,,,,,,,6,,,55,108
118560,note_on,5888,0,6,,,,,,,,,8,,,43,108
118560,note_on,5888,0,2,,,,,,,,,0,,,86,127
118560,note_on,2,0,3,,,,,,,,,2,,,70,127
118560,note_on,128,0,1,,,,,,,,,11,,,86,127
118560,note_on,2,0,4,,,,,,,,,4,,,62,75
118582,note_on,22,0,1,,,,,,,,,11,,,86,0
118582,note_on,22,0,2,,,,,,,,,0,,,86,0
118584,note_on,2,0,1,,,,,,,,,11,,,84,127
118584,note_on,2,0,2,,,,,,,,,0,,,84,127
118606,note_on,22,0,1,,,,,,,,,11,,,84,0
118606,note_on,22,0,2,,,,,,,,,0,,,84,0
118608,note_on,2,0,1,,,,,,,,,11,,,82,127
118608,note_on,2,0,2,,,,,,,,,0,,,82,127
118630,note_on,22,0,1,,,,,,,,,11,,,82,0
118630,note_on,22,0,2,,,,,,,,,0,,,82,0
118632,note_on,2,0,2,,,,,,,,,0,,,81,127
118632,note_on,2,0,1,,,,,,,,,11,,,81,127
118654,note_on,22,0,2,,,,,,,,,0,,,81,0
118654,note_on,94,0,6,,,,,,,,,8,,,43,0
118654,note_on,94,0,5,,,,,,,,,6,,,55,0
118654,note_on,94,0,4,,,,,,,,,4,,,62,0
118654,note_on,94,0,3,,,,,,,,,2,,,70,0
118654,note_on,22,0,1,,,,,,,,,11,,,81,0
118656,note_on,2,0,6,,,,,,,,,8,,,43,108
118656,note_on,2,0,5,,,,,,,,,6,,,55,108
118656,note_on,2,0,1,,,,,,,,,11,,,82,127
118656,note_on,2,0,3,,,,,,,,,2,,,70,127
118656,note_on,2,0,4,,,,,,,,,4,,,62,75
118656,note_on,2,0,2,,,,,,,,,0,,,82,127
118678,note_on,22,0,1,,,,,,,,,11,,,82,0
118678,note_on,22,0,2,,,,,,,,,0,,,82,0
118680,note_on,2,0,2,,,,,,,,,0,,,81,127
118680,note_on,2,0,1,,,,,,,,,11,,,81,127
118702,note_on,22,0,1,,,,,,,,,11,,,81,0
118702,note_on,22,0,2,,,,,,,,,0,,,81,0
118704,note_on,2,0,2,,,,,,,,,0,,,79,127
118704,note_on,2,0,1,,,,,,,,,11,,,79,127
118726,note_on,22,0,1,,,,,,,,,11,,,79,0
118726,note_on,22,0,2,,,,,,,,,0,,,79,0
118728,note_on,2,0,1,,,,,,,,,11,,,77,127
118728,note_on,2,0,2,,,,,,,,,0,,,77,127
118750,note_on,94,0,4,,,,,,,,,4,,,62,0
118750,note_on,22,0,2,,,,,,,,,0,,,77,0
118750,note_on,94,0,5,,,,,,,,,6,,,55,0
118750,note_on,94,0,6,,,,,,,,,8,,,43,0
118750,note_on,94,0,3,,,,,,,,,2,,,70,0
118750,note_on,22,0,1,,,,,,,,,11,,,77,0
118752,note_on,2,0,3,,,,,,,,,2,,,70,127
118752,note_on,2,0,4,,,,,,,,,4,,,70,75
118752,note_on,2,0,1,,,,,,,,,11,,,79,127
118752,note_on,2,0,5,,,,,,,,,6,,,55,108
118752,note_on,2,0,6,,,,,,,,,8,,,43,108
118752,note_on,2,0,2,,,,,,,,,0,,,79,127
118774,note_on,22,0,1,,,,,,,,,11,,,79,0
118774,note_on,22,0,2,,,,,,,,,0,,,79,0
118776,note_on,2,0,2,,,,,,,,,0,,,77,127
118776,note_on,2,0,1,,,,,,,,,11,,,77,127
118798,note_on,22,0,2,,,,,,,,,0,,,77,0
118798,note_on,22,0,1,,,,,,,,,11,,,77,0
118800,note_on,2,0,2,,,,,,,,,0,,,76,127
118800,note_on,2,0,1,,,,,,,,,11,,,76,127
118822,note_on,22,0,1,,,,,,,,,11,,,76,0
118822,note_on,22,0,2,,,,,,,,,0,,,76,0
118824,note_on,2,0,1,,,,,,,,,11,,,74,127
118824,note_on,2,0,2,,,,,,,,,0,,,74,127
118846,note_on,22,0,2,,,,,,,,,0,,,74,0
118846,note_on,94,0,6,,,,,,,,,8,,,43,0
118846,note_on,94,0,3,,,,,,,,,2,,,70,0
118846,note_on,94,0,4,,,,,,,,,4,,,70,0
118846,note_on,22,0,1,,,,,,,,,11,,,74,0
118846,note_on,94,0,5,,,,,,,,,6,,,55,0
118848,note_on,2,0,4,,,,,,,,,4,,,70,75
118848,note_on,2,0,5,,,,,,,,,6,,,48,108
118848,note_on,2,0,6,,,,,,,,,8,,,36,108
118848,note_on,2,0,3,,,,,,,,,2,,,79,127
118848,note_on,2,0,2,,,,,,,,,0,,,76,127
118848,note_on,2,0,1,,,,,,,,,11,,,76,127
118870,note_on,22,0,3,,,,,,,,,2,,,79,0
118872,note_on,2,0,3,,,,,,,,,2,,,77,127
118894,note_on,22,0,3,,,,,,,,,2,,,77,0
118896,note_on,2,0,3,,,,,,,,,2,,,76,127
118918,note_on,22,0,3,,,,,,,,,2,,,76,0
118920,note_on,2,0,3,,,,,,,,,2,,,74,127
118942,note_on,94,0,2,,,,,,,,,0,,,76,0
118942,note_on,94,0,5,,,,,,,,,6,,,48,0
118942,note_on,22,0,3,,,,,,,,,2,,,74,0
118942,note_on,94,0,6,,,,,,,,,8,,,36,0
118942,note_on,94,0,1,,,,,,,,,11,,,76,0
118942,note_on,94,0,4,,,,,,,,,4,,,70,0
118944,note_on,2,0,4,,,,,,,,,4,,,70,75
118944,note_on,2,0,2,,,,,,,,,0,,,76,127
118944,note_on,2,0,6,,,,,,,,,8,,,36,108
118944,note_on,2,0,5,,,,,,,,,6,,,48,108
118944,note_on,2,0,1,,,,,,,,,11,,,76,127
118944,note_on,2,0,3,,,,,,,,,2,,,76,127
118966,note_on,22,0,3,,,,,,,,,2,,,76,0
118968,note_on,2,0,3,,,,,,,,,2,,,74,127
118990,note_on,22,0,3,,,,,,,,,2,,,74,0
118992,note_on,2,0,3,,,,,,,,,2,,,72,127
119014,note_on,22,0,3,,,,,,,,,2,,,72,0
119016,note_on,2,0,3,,,,,,,,,2,,,70,127
119038,note_on,22,0,3,,,,,,,,,2,,,70,0
119038,note_on,94,0,1,,,,,,,,,11,,,76,0
119038,note_on,94,0,5,,,,,,,,,6,,,48,0
119038,note_on,94,0,6,,,,,,,,,8,,,36,0
119038,note_on,94,0,2,,,,,,,,,0,,,76,0
119038,note_on,94,0,4,,,,,,,,,4,,,70,0
119040,note_on,2,0,4,,,,,,,,,4,,,64,75
119040,note_on,2,0,5,,,,,,,,,6,,,48,108
119040,note_on,2,0,1,,,,,,,,,11,,,76,127
119040,note_on,2,0,3,,,,,,,,,2,,,72,127
119040,note_on,2,0,6,,,,,,,,,8,,,36,108
119040,note_on,2,0,2,,,,,,,,,0,,,76,127
119062,note_on,22,0,3,,,,,,,,,2,,,72,0
119064,note_on,2,0,3,,,,,,,,,2,,,70,127
119086,note_on,22,0,3,,,,,,,,,2,,,70,0
119088,note_on,2,0,3,,,,,,,,,2,,,69,127
119110,note_on,22,0,3,,,,,,,,,2,,,69,0
119112,note_on,2,0,3,,,,,,,,,2,,,67,127
119134,note_on,22,0,3,,,,,,,,,2,,,67,0
119134,note_on,94,0,6,,,,,,,,,8,,,36,0
119134,note_on,94,0,4,,,,,,,,,4,,,64,0
119134,note_on,94,0,2,,,,,,,,,0,,,76,0
119134,note_on,94,0,1,,,,,,,,,11,,,76,0
119134,note_on,94,0,5,,,,,,,,,6,,,48,0
119136,note_on,2,0,6,,,,,,,,,8,,,41,108
119136,note_on,2,0,4,,,,,,,,,4,,,64,75
119136,note_on,2,0,1,,,,,,,,,11,,,84,127
119136,note_on,2,0,3,,,,,,,,,2,,,69,127
119136,note_on,2,0,2,,,,,,,,,0,,,84,127
119136,note_on,2,0,5,,,,,,,,,6,,,53,108
119158,note_on,22,0,2,,,,,,,,,0,,,84,0
119158,note_on,22,0,1,,,,,,,,,11,,,84,0
119160,note_on,2,0,2,,,,,,,,,0,,,82,127
119160,note_on,2,0,1,,,,,,,,,11,,,82,127
119182,note_on,22,0,1,,,,,,,,,11,,,82,0
119182,note_on,22,0,2,,,,,,,,,0,,,82,0
119184,note_on,2,0,1,,,,,,,,,11,,,81,127
119184,note_on,2,0,2,,,,,,,,,0,,,81,127
119206,note_on,22,0,1,,,,,,,,,11,,,81,0
119206,note_on,22,0,2,,,,,,,,,0,,,81,0
119208,note_on,2,0,2,,,,,,,,,0,,,79,127
119208,note_on,2,0,1,,,,,,,,,11,,,79,127
119230,note_on,22,0,2,,,,,,,,,0,,,79,0
119230,note_on,94,0,4,,,,,,,,,4,,,64,0
119230,note_on,22,0,1,,,,,,,,,11,,,79,0
119230,note_on,94,0,6,,,,,,,,,8,,,41,0
119230,note_on,94,0,3,,,,,,,,,2,,,69,0
119230,note_on,94,0,5,,,,,,,,,6,,,53,0
119232,note_on,2,0,1,,,,,,,,,11,,,81,127
119232,note_on,2,0,6,,,,,,,,,8,,,41,108
119232,note_on,2,0,3,,,,,,,,,2,,,69,127
119232,note_on,2,0,5,,,,,,,,,6,,,53,108
119232,note_on,2,0,4,,,,,,,,,4,,,64,75
119232,note_on,2,0,2,,,,,,,,,0,,,81,127
119254,note_on,22,0,1,,,,,,,,,11,,,81,0
119254,note_on,22,0,2,,,,,,,,,0,,,81,0
119256,note_on,2,0,1,,,,,,,,,11,,,79,127
119256,note_on,2,0,2,,,,,,,,,0,,,79,127
119278,note_on,22,0,2,,,,,,,,,0,,,79,0
119278,note_on,22,0,1,,,,,,,,,11,,,79,0
119280,note_on,2,0,2,,,,,,,,,0,,,77,127
119280,note_on,2,0,1,,,,,,,,,11,,,77,127
119302,note_on,22,0,1,,,,,,,,,11,,,77,0
119302,note_on,22,0,2,,,,,,,,,0,,,77,0
119304,note_on,2,0,1,,,,,,,,,11,,,76,127
119304,note_on,2,0,2,,,,,,,,,0,,,76,127
119326,note_on,94,0,3,,,,,,,,,2,,,69,0
119326,note_on,94,0,5,,,,,,,,,6,,,53,0
119326,note_on,22,0,1,,,,,,,,,11,,,76,0
119326,note_on,94,0,6,,,,,,,,,8,,,41,0
119326,note_on,94,0,4,,,,,,,,,4,,,64,0
119326,note_on,22,0,2,,,,,,,,,0,,,76,0
119328,note_on,2,0,2,,,,,,,,,0,,,77,127
119328,note_on,2,0,4,,,,,,,,,4,,,69,75
119328,note_on,2,0,6,,,,,,,,,8,,,41,108
119328,note_on,2,0,3,,,,,,,,,2,,,69,127
119328,note_on,2,0,5,,,,,,,,,6,,,53,108
119328,note_on,2,0,1,,,,,,,,,11,,,77,127
119350,note_on,22,0,2,,,,,,,,,0,,,77,0
119350,note_on,22,0,1,,,,,,,,,11,,,77,0
119352,note_on,2,0,2,,,,,,,,,0,,,76,127
119352,note_on,2,0,1,,,,,,,,,11,,,76,127
119374,note_on,22,0,2,,,,,,,,,0,,,76,0
119374,note_on,22,0,1,,,,,,,,,11,,,76,0
119376,note_on,2,0,2,,,,,,,,,0,,,74,127
119376,note_on,2,0,1,,,,,,,,,11,,,74,127
119398,note_on,22,0,2,,,,,,,,,0,,,74,0
119398,note_on,22,0,1,,,,,,,,,11,,,74,0
119400,note_on,2,0,1,,,,,,,,,11,,,72,127
119400,note_on,2,0,2,,,,,,,,,0,,,72,127
119422,note_on,94,0,3,,,,,,,,,2,,,69,0
119422,note_on,94,0,6,,,,,,,,,8,,,41,0
119422,note_on,22,0,2,,,,,,,,,0,,,72,0
119422,note_on,94,0,5,,,,,,,,,6,,,53,0
119422,note_on,94,0,4,,,,,,,,,4,,,69,0
119422,note_on,22,0,1,,,,,,,,,11,,,72,0
119424,note_on,2,0,4,,,,,,,,,4,,,69,75
119424,note_on,2,0,2,,,,,,,,,0,,,74,127
119424,note_on,2,0,6,,,,,,,,,8,,,34,108
119424,note_on,2,0,3,,,,,,,,,2,,,77,127
119424,note_on,2,0,5,,,,,,,,,6,,,46,108
119424,note_on,2,0,1,,,,,,,,,11,,,74,127
119446,note_on,22,0,3,,,,,,,,,2,,,77,0
119448,note_on,2,0,3,,,,,,,,,2,,,76,127
119470,note_on,22,0,3,,,,,,,,,2,,,76,0
119472,note_on,2,0,3,,,,,,,,,2,,,74,127
119494,note_on,22,0,3,,,,,,,,,2,,,74,0
119496,note_on,2,0,3,,,,,,,,,2,,,72,127
119518,note_on,22,0,3,,,,,,,,,2,,,72,0
119518,note_on,94,0,6,,,,,,,,,8,,,34,0
119518,note_on,94,0,4,,,,,,,,,4,,,69,0
119518,note_on,94,0,2,,,,,,,,,0,,,74,0
119518,note_on,94,0,5,,,,,,,,,6,,,46,0
119518,note_on,94,0,1,,,,,,,,,11,,,74,0
119520,note_on,2,0,4,,,,,,,,,4,,,69,75
119520,note_on,2,0,3,,,,,,,,,2,,,74,127
119520,note_on,2,0,6,,,,,,,,,8,,,34,108
119520,note_on,2,0,5,,,,,,,,,6,,,46,108
119520,note_on,2,0,1,,,,,,,,,11,,,74,127
119520,note_on,2,0,2,,,,,,,,,0,,,74,127
119542,note_on,22,0,3,,,,,,,,,2,,,74,0
119544,note_on,2,0,3,,,,,,,,,2,,,72,127
119566,note_on,22,0,3,,,,,,,,,2,,,72,0
119568,note_on,2,0,3,,,,,,,,,2,,,70,127
119590,note_on,22,0,3,,,,,,,,,2,,,70,0
119592,note_on,2,0,3,,,,,,,,,2,,,69,127
119614,note_on,94,0,5,,,,,,,,,6,,,46,0
119614,note_on,22,0,3,,,,,,,,,2,,,69,0
119614,note_on,94,0,4,,,,,,,,,4,,,69,0
119614,note_on,94,0,6,,,,,,,,,8,,,34,0
119614,note_on,94,0,2,,,,,,,,,0,,,74,0
119614,note_on,94,0,1,,,,,,,,,11,,,74,0
119616,note_on,2,0,3,,,,,,,,,2,,,69,127
119616,note_on,2,0,4,,,,,,,,,4,,,62,75
119616,note_on,2,0,1,,,,,,,,,11,,,74,127
119616,note_on,2,0,6,,,,,,,,,8,,,34,108
119616,note_on,2,0,5,,,,,,,,,6,,,46,108
119616,note_on,2,0,2,,,,,,,,,0,,,74,127
119662,note_on,46,0,3,,,,,,,,,2,,,69,0
119664,note_on,2,0,3,,,,,,,,,2,,,67,127
119686,note_on,22,0,3,,,,,,,,,2,,,67,0
119688,note_on,2,0,3,,,,,,,,,2,,,65,127
119710,note_on,94,0,2,,,,,,,,,0,,,74,0
119710,note_on,94,0,6,,,,,,,,,8,,,34,0
119710,note_on,22,0,3,,,,,,,,,2,,,65,0
119710,note_on,94,0,5,,,,,,,,,6,,,46,0
119710,note_on,94,0,1,,,,,,,,,11,,,74,0
119710,note_on,94,0,4,,,,,,,,,4,,,62,0
119712,note_on,2,0,4,,,,,,,,,4,,,62,75
119712,note_on,2,0,2,,,,,,,,,0,,,82,127
119712,note_on,2,0,5,,,,,,,,,6,,,43,108
119712,note_on,2,0,6,,,,,,,,,8,,,31,108
119712,note_on,2,0,3,,,,,,,,,2,,,67,127
119712,note_on,2,0,1,,,,,,,,,11,,,82,127
119734,note_on,22,0,1,,,,,,,,,11,,,82,0
119734,note_on,22,0,2,,,,,,,,,0,,,82,0
119736,note_on,2,0,2,,,,,,,,,0,,,81,127
119736,note_on,2,0,1,,,,,,,,,11,,,81,127
119758,note_on,22,0,1,,,,,,,,,11,,,81,0
119758,note_on,22,0,2,,,,,,,,,0,,,81,0
119760,note_on,2,0,1,,,,,,,,,11,,,79,127
119760,note_on,2,0,2,,,,,,,,,0,,,79,127
119782,note_on,22,0,2,,,,,,,,,0,,,79,0
119782,note_on,22,0,1,,,,,,,,,11,,,79,0
119784,note_on,2,0,2,,,,,,,,,0,,,77,127
119784,note_on,2,0,1,,,,,,,,,11,,,77,127
119806,note_on,22,0,1,,,,,,,,,11,,,77,0
119806,note_on,94,0,3,,,,,,,,,2,,,67,0
119806,note_on,22,0,2,,,,,,,,,0,,,77,0
119806,note_on,94,0,5,,,,,,,,,6,,,43,0
119806,note_on,94,0,4,,,,,,,,,4,,,62,0
119806,note_on,94,0,6,,,,,,,,,8,,,31,0
119808,note_on,2,0,2,,,,,,,,,0,,,79,127
119808,note_on,2,0,5,,,,,,,,,6,,,43,108
119808,note_on,2,0,3,,,,,,,,,2,,,67,127
119808,note_on,2,0,1,,,,,,,,,11,,,79,127
119808,note_on,2,0,4,,,,,,,,,4,,,62,75
119808,note_on,2,0,6,,,,,,,,,8,,,31,108
119830,note_on,22,0,1,,,,,,,,,11,,,79,0
119830,note_on,22,0,2,,,,,,,,,0,,,79,0
119832,note_on,2,0,2,,,,,,,,,0,,,77,127
119832,note_on,2,0,1,,,,,,,,,11,,,77,127
119854,note_on,22,0,1,,,,,,,,,11,,,77,0
119854,note_on,22,0,2,,,,,,,,,0,,,77,0
119856,note_on,2,0,1,,,,,,,,,11,,,76,127
119856,note_on,2,0,2,,,,,,,,,0,,,76,127
119878,note_on,22,0,1,,,,,,,,,11,,,76,0
119878,note_on,22,0,2,,,,,,,,,0,,,76,0
119880,note_on,2,0,1,,,,,,,,,11,,,74,127
119880,note_on,2,0,2,,,,,,,,,0,,,74,127
119902,note_on,22,0,1,,,,,,,,,11,,,74,0
119902,note_on,94,0,4,,,,,,,,,4,,,62,0
119902,note_on,22,0,2,,,,,,,,,0,,,74,0
119902,note_on,94,0,3,,,,,,,,,2,,,67,0
119902,note_on,94,0,6,,,,,,,,,8,,,31,0
119902,note_on,94,0,5,,,,,,,,,6,,,43,0
119904,note_on,2,0,5,,,,,,,,,6,,,43,108
119904,note_on,2,0,3,,,,,,,,,2,,,79,127
119904,note_on,2,0,2,,,,,,,,,0,,,76,127
119904,note_on,2,0,6,,,,,,,,,8,,,31,108
119904,note_on,2,0,4,,,,,,,,,4,,,71,75
119904,note_on,2,0,1,,,,,,,,,11,,,76,127
119926,note_on,22,0,1,,,,,,,,,11,,,76,0
119926,note_on,22,0,2,,,,,,,,,0,,,76,0
119928,note_on,2,0,1,,,,,,,,,11,,,74,127
119928,note_on,2,0,2,,,,,,,,,0,,,74,127
119950,note_on,22,0,2,,,,,,,,,0,,,74,0
119950,note_on,22,0,1,,,,,,,,,11,,,74,0
119952,note_on,2,0,1,,,,,,,,,11,,,73,127
119952,note_on,2,0,2,,,,,,,,,0,,,73,127
119974,note_on,22,0,1,,,,,,,,,11,,,73,0
119974,note_on,22,0,2,,,,,,,,,0,,,73,0
119976,note_on,2,0,2,,,,,,,,,0,,,71,127
119976,note_on,2,0,1,,,,,,,,,11,,,71,127
119998,note_on,94,0,3,,,,,,,,,2,,,79,0
119998,note_on,22,0,2,,,,,,,,,0,,,71,0
119998,note_on,94,0,5,,,,,,,,,6,,,43,0
119998,note_on,94,0,6,,,,,,,,,8,,,31,0
119998,note_on,94,0,4,,,,,,,,,4,,,71,0
119998,note_on,22,0,1,,,,,,,,,11,,,71,0
120000,note_on,2,0,3,,,,,,,,,2,,,76,127
120000,note_on,2,0,6,,,,,,,,,8,,,33,108
120000,note_on,2,0,2,,,,,,,,,0,,,73,127
120000,note_on,2,0,4,,,,,,,,,4,,,69,75
120000,note_on,2,0,1,,,,,,,,,11,,,73,127
120000,note_on,2,0,5,,,,,,,,,6,,,45,108
120094,note_on,94,0,2,,,,,,,,,0,,,73,0
120094,note_on,94,0,3,,,,,,,,,2,,,76,0
120094,note_on,94,0,1,,,,,,,,,11,,,73,0
120096,note_on,2,0,2,,,,,,,,,0,,,80,127
120096,note_on,2,0,1,,,,,,,,,11,,,80,127
120096,note_on,2,0,3,,,,,,,,,2,,,80,127
120160,note_on,160,0,5,,,,,,,,,6,,,45,0
120160,note_on,160,0,6,,,,,,,,,8,,,33,0
120160,note_on,160,0,4,,,,,,,,,4,,,69,0
120190,note_on,94,0,2,,,,,,,,,0,,,80,0
120190,note_on,94,0,1,,,,,,,,,11,,,80,0
120190,note_on,94,0,3,,,,,,,,,2,,,80,0
120192,note_on,2,0,2,,,,,,,,,0,,,81,127
120192,note_on,2,0,1,,,,,,,,,11,,,81,127
120192,note_on,2,0,3,,,,,,,,,2,,,81,127
120286,note_on,94,0,3,,,,,,,,,2,,,81,0
120286,note_on,94,0,2,,,,,,,,,0,,,81,0
120286,note_on,94,0,1,,,,,,,,,11,,,81,0
120288,note_on,2,0,3,,,,,,,,,2,,,64,127
120288,note_on,128,0,4,,,,,,,,,4,,,64,75
120288,note_on,128,0,6,,,,,,,,,8,,,40,108
120288,note_on,128,0,5,,,,,,,,,6,,,52,108
120288,note_on,2,0,2,,,,,,,,,0,,,64,127
120288,note_on,2,0,1,,,,,,,,,11,,,64,127
120382,note_on,94,0,1,,,,,,,,,11,,,64,0
120382,note_on,94,0,6,,,,,,,,,8,,,40,0
120382,note_on,94,0,5,,,,,,,,,6,,,52,0
120382,note_on,94,0,3,,,,,,,,,2,,,64,0
120382,note_on,94,0,2,,,,,,,,,0,,,64,0
120382,note_on,94,0,4,,,,,,,,,4,,,64,0
120384,note_on,2,0,1,,,,,,,,,11,,,80,127
120384,note_on,2,0,3,,,,,,,,,2,,,80,127
120384,note_on,2,0,2,,,,,,,,,0,,,80,127
120478,note_on,94,0,1,,,,,,,,,11,,,80,0
120478,note_on,94,0,3,,,,,,,,,2,,,80,0
120478,note_on,94,0,2,,,,,,,,,0,,,80,0
120480,note_on,2,0,3,,,,,,,,,2,,,81,127
120480,note_on,2,0,2,,,,,,,,,0,,,81,127
120480,note_on,2,0,1,,,,,,,,,11,,,81,127
120574,note_on,94,0,3,,,,,,,,,2,,,81,0
120574,note_on,94,0,1,,,,,,,,,11,,,81,0
120574,note_on,94,0,2,,,,,,,,,0,,,81,0
120576,note_on,2,0,2,,,,,,,,,0,,,62,127
120576,note_on,194,0,4,,,,,,,,,4,,,62,75
120576,note_on,2,0,3,,,,,,,,,2,,,62,127
120576,note_on,194,0,5,,,,,,,,,6,,,50,108
120576,note_on,194,0,6,,,,,,,,,8,,,38,108
120576,note_on,2,0,1,,,,,,,,,11,,,62,127
120670,note_on,94,0,1,,,,,,,,,11,,,62,0
120670,note_on,94,0,3,,,,,,,,,2,,,62,0
120670,note_on,94,0,2,,,,,,,,,0,,,62,0
120672,note_on,2,0,1,,,,,,,,,11,,,80,127
120672,note_on,2,0,2,,,,,,,,,0,,,80,127
120672,note_on,2,0,3,,,,,,,,,2,,,80,127
120736,note_on,160,0,6,,,,,,,,,8,,,38,0
120736,note_on,160,0,4,,,,,,,,,4,,,62,0
120736,note_on,160,0,5,,,,,,,,,6,,,50,0
120766,note_on,94,0,3,,,,,,,,,2,,,80,0
120766,note_on,94,0,1,,,,,,,,,11,,,80,0
120766,note_on,94,0,2,,,,,,,,,0,,,80,0
120768,note_on,2,0,3,,,,,,,,,2,,,81,127
120768,note_on,2,0,1,,,,,,,,,11,,,81,127
120768,note_on,2,0,2,,,,,,,,,0,,,81,127
120862,note_on,94,0,2,,,,,,,,,0,,,81,0
120862,note_on,94,0,3,,,,,,,,,2,,,81,0
120862,note_on,94,0,1,,,,,,,,,11,,,81,0
120864,note_on,2,0,3,,,,,,,,,2,,,61,127
120864,note_on,2,0,2,,,,,,,,,0,,,61,127
120864,note_on,128,0,4,,,,,,,,,4,,,61,75
120864,note_on,128,0,5,,,,,,,,,6,,,49,108
120864,note_on,128,0,6,,,,,,,,,8,,,37,108
120864,note_on,2,0,1,,,,,,,,,11,,,61,127
120910,note_on,46,0,3,,,,,,,,,2,,,61,0
120910,note_on,46,0,2,,,,,,,,,0,,,61,0
120910,note_on,46,0,1,,,,,,,,,11,,,61,0
120912,note_on,2,0,3,,,,,,,,,2,,,76,127
120912,note_on,2,0,2,,,,,,,,,0,,,76,127
120912,note_on,2,0,1,,,,,,,,,11,,,76,127
120958,note_on,46,0,2,,,,,,,,,0,,,76,0
120958,note_on,94,0,4,,,,,,,,,4,,,61,0
120958,note_on,94,0,6,,,,,,,,,8,,,37,0
120958,note_on,46,0,1,,,,,,,,,11,,,76,0
120958,note_on,94,0,5,,,,,,,,,6,,,49,0
120958,note_on,46,0,3,,,,,,,,,2,,,76,0
120960,note_on,2,0,1,,,,,,,,,11,,,77,127
120960,note_on,2,0,3,,,,,,,,,2,,,77,127
120960,note_on,2,0,2,,,,,,,,,0,,,77,127
121006,note_on,46,0,1,,,,,,,,,11,,,77,0
121006,note_on,46,0,3,,,,,,,,,2,,,77,0
121006,note_on,46,0,2,,,,,,,,,0,,,77,0
121008,note_on,2,0,1,,,,,,,,,11,,,74,127
121008,note_on,50,0,5,,,,,,,,,6,,,50,108
121008,note_on,2,0,3,,,,,,,,,2,,,74,127
121008,note_on,2,0,2,,,,,,,,,0,,,74,127
121008,note_on,50,0,4,,,,,,,,,4,,,65,75
121008,note_on,50,0,6,,,,,,,,,8,,,38,108
121054,note_on,46,0,2,,,,,,,,,0,,,74,0
121054,note_on,46,0,4,,,,,,,,,4,,,65,0
121054,note_on,46,0,5,,,,,,,,,6,,,50,0
121054,note_on,46,0,1,,,,,,,,,11,,,74,0
121054,note_on,46,0,6,,,,,,,,,8,,,38,0
121054,note_on,46,0,3,,,,,,,,,2,,,74,0
121056,note_on,2,0,4,,,,,,,,,4,,,67,75
121056,note_on,2,0,2,,,,,,,,,0,,,76,127
121056,note_on,2,0,5,,,,,,,,,6,,,43,108
121056,note_on,2,0,6,,,,,,,,,8,,,31,108
121056,note_on,2,0,3,,,,,,,,,2,,,76,127
121056,note_on,2,0,1,,,,,,,,,11,,,76,127
121102,note_on,46,0,4,,,,,,,,,4,,,67,0
121102,note_on,46,0,3,,,,,,,,,2,,,76,0
121102,note_on,46,0,5,,,,,,,,,6,,,43,0
121102,note_on,46,0,6,,,,,,,,,8,,,31,0
121102,note_on,46,0,2,,,,,,,,,0,,,76,0
121102,note_on,46,0,1,,,,,,,,,11,,,76,0
121104,note_on,2,0,3,,,,,,,,,2,,,73,127
121104,note_on,2,0,5,,,,,,,,,6,,,45,108
121104,note_on,2,0,1,,,,,,,,,11,,,73,127
121104,note_on,2,0,4,,,,,,,,,4,,,64,75
121104,note_on,2,0,2,,,,,,,,,0,,,73,127
121104,note_on,2,0,6,,,,,,,,,8,,,33,108
121150,note_on,46,0,6,,,,,,,,,8,,,33,0
121150,note_on,46,0,1,,,,,,,,,11,,,73,0
121150,note_on,46,0,5,,,,,,,,,6,,,45,0
121150,note_on,46,0,4,,,,,,,,,4,,,64,0
121150,note_on,46,0,3,,,,,,,,,2,,,73,0
121150,note_on,46,0,2,,,,,,,,,0,,,73,0
121152,note_on,2,0,6,,,,,,,,,8,,,38,108
121152,note_on,2,0,5,,,,,,,,,6,,,50,108
121152,note_on,2,0,3,,,,,,,,,2,,,74,127
121152,note_on,2,0,1,,,,,,,,,11,,,74,127
121152,note_on,2,0,2,,,,,,,,,0,,,74,127
121152,note_on,2,0,4,,,,,,,,,4,,,65,75
121246,note_on,94,0,5,,,,,,,,,6,,,50,0
121246,note_on,94,0,1,,,,,,,,,11,,,74,0
121248,note_on,2,0,1,,,,,,,,,11,,,73,127
121248,note_on,2,0,5,,,,,,,,,6,,,57,108
121312,note_on,160,0,3,,,,,,,,,2,,,74,0
121312,note_on,160,0,6,,,,,,,,,8,,,38,0
121312,note_on,160,0,2,,,,,,,,,0,,,74,0
121312,note_on,160,0,4,,,,,,,,,4,,,65,0
121342,note_on,94,0,1,,,,,,,,,11,,,73,0
121342,note_on,94,0,5,,,,,,,,,6,,,57,0
121344,note_on,2,0,1,,,,,,,,,11,,,74,127
121344,note_on,2,0,5,,,,,,,,,6,,,53,108
121438,note_on,94,0,5,,,,,,,,,6,,,53,0
121440,note_on,2,0,5,,,,,,,,,6,,,58,108
121534,note_on,94,0,5,,,,,,,,,6,,,58,0
121534,note_on,190,0,1,,,,,,,,,11,,,74,0
121536,note_on,2,0,1,,,,,,,,,11,,,73,127
121536,note_on,2,0,5,,,,,,,,,6,,,55,108
121582,note_on,46,0,1,,,,,,,,,11,,,73,0
121584,note_on,2,0,1,,,,,,,,,11,,,70,127
121630,note_on,94,0,5,,,,,,,,,6,,,55,0
121630,note_on,46,0,1,,,,,,,,,11,,,70,0
121632,note_on,2,0,1,,,,,,,,,11,,,69,127
121632,note_on,2,0,5,,,,,,,,,6,,,61,108
121726,note_on,94,0,5,,,,,,,,,6,,,61,0
121726,note_on,94,0,1,,,,,,,,,11,,,69,0
121728,note_on,2,0,5,,,,,,,,,6,,,62,108
121728,note_on,2,0,1,,,,,,,,,11,,,72,127
121750,note_on,22,0,1,,,,,,,,,11,,,72,0
121752,note_on,2,0,1,,,,,,,,,11,,,70,127
121774,note_on,22,0,1,,,,,,,,,11,,,70,0
121776,note_on,2,0,1,,,,,,,,,11,,,72,127
121798,note_on,22,0,1,,,,,,,,,11,,,72,0
121800,note_on,2,0,1,,,,,,,,,11,,,70,127
121822,note_on,22,0,1,,,,,,,,,11,,,70,0
121822,note_on,94,0,5,,,,,,,,,6,,,62,0
121824,note_on,2,0,1,,,,,,,,,11,,,69,127
121824,note_on,2,0,5,,,,,,,,,6,,,50,108
121918,note_on,94,0,1,,,,,,,,,11,,,69,0
121918,note_on,94,0,5,,,,,,,,,6,,,50,0
121920,note_on,2,0,5,,,,,,,,,6,,,60,108
121920,note_on,2,0,1,,,,,,,,,11,,,81,127
122014,note_on,94,0,1,,,,,,,,,11,,,81,0
122016,note_on,2,0,1,,,,,,,,,11,,,78,127
122062,note_on,46,0,1,,,,,,,,,11,,,78,0
122064,note_on,2,0,1,,,,,,,,,11,,,78,127
122110,note_on,190,0,5,,,,,,,,,6,,,60,0
122110,note_on,46,0,1,,,,,,,,,11,,,78,0
122112,note_on,2,0,1,,,,,,,,,11,,,79,127
122112,note_on,2,0,5,,,,,,,,,6,,,58,108
122158,note_on,46,0,1,,,,,,,,,11,,,79,0
122160,note_on,2,0,1,,,,,,,,,11,,,81,127
122206,note_on,46,0,1,,,,,,,,,11,,,81,0
122208,note_on,2,0,1,,,,,,,,,11,,,82,127
122302,note_on,94,0,1,,,,,,,,,11,,,82,0
122304,note_on,2,0,1,,,,,,,,,11,,,76,127
122350,note_on,46,0,1,,,,,,,,,11,,,76,0
122352,note_on,2,0,1,,,,,,,,,11,,,76,127
122398,note_on,286,0,5,,,,,,,,,6,,,58,0
122398,note_on,46,0,1,,,,,,,,,11,,,76,0
122400,note_on,2,0,1,,,,,,,,,11,,,77,127
122400,note_on,2,0,5,,,,,,,,,6,,,57,108
122446,note_on,46,0,1,,,,,,,,,11,,,77,0
122448,note_on,2,0,1,,,,,,,,,11,,,79,127
122494,note_on,46,0,1,,,,,,,,,11,,,79,0
122496,note_on,2,0,1,,,,,,,,,11,,,81,127
122590,note_on,94,0,1,,,,,,,,,11,,,81,0
122592,note_on,2,0,1,,,,,,,,,11,,,74,127
122638,note_on,46,0,1,,,,,,,,,11,,,74,0
122640,note_on,2,0,1,,,,,,,,,11,,,74,127
122686,note_on,46,0,1,,,,,,,,,11,,,74,0
122686,note_on,286,0,5,,,,,,,,,6,,,57,0
122688,note_on,2,0,1,,,,,,,,,11,,,76,127
122688,note_on,2,0,5,,,,,,,,,6,,,55,108
122734,note_on,46,0,1,,,,,,,,,11,,,76,0
122736,note_on,2,0,1,,,,,,,,,11,,,77,127
122782,note_on,46,0,1,,,,,,,,,11,,,77,0
122784,note_on,2,0,1,,,,,,,,,11,,,79,127
122878,note_on,94,0,1,,,,,,,,,11,,,79,0
122880,note_on,2,0,1,,,,,,,,,11,,,74,127
122902,note_on,22,0,1,,,,,,,,,11,,,74,0
122904,note_on,2,0,1,,,,,,,,,11,,,73,127
122926,note_on,22,0,1,,,,,,,,,11,,,73,0
122926,note_on,238,0,5,,,,,,,,,6,,,55,0
122928,note_on,2,0,1,,,,,,,,,11,,,73,127
122928,note_on,2,0,5,,,,,,,,,6,,,55,108
122974,note_on,46,0,1,,,,,,,,,11,,,73,0
122974,note_on,46,0,5,,,,,,,,,6,,,55,0
122976,note_on,2,0,5,,,,,,,,,6,,,54,108
122976,note_on,2,0,1,,,,,,,,,11,,,74,127
123022,note_on,46,0,5,,,,,,,,,6,,,54,0
123024,note_on,2,0,5,,,,,,,,,6,,,50,108
123070,note_on,46,0,5,,,,,,,,,6,,,50,0
123070,note_on,94,0,1,,,,,,,,,11,,,74,0
123072,note_on,2,0,5,,,,,,,,,6,,,52,108
123118,note_on,46,0,5,,,,,,,,,6,,,52,0
123120,note_on,2,0,5,,,,,,,,,6,,,54,108
123166,note_on,46,0,5,,,,,,,,,6,,,54,0
123168,note_on,2,0,5,,,,,,,,,6,,,55,108
123168,note_on,98,0,1,,,,,,,,,11,,,74,127
123262,note_on,94,0,5,,,,,,,,,6,,,55,0
123262,note_on,94,0,1,,,,,,,,,11,,,74,0
123264,note_on,2,0,5,,,,,,,,,6,,,57,108
123264,note_on,2,0,1,,,,,,,,,11,,,72,127
123310,note_on,46,0,1,,,,,,,,,11,,,72,0
123312,note_on,2,0,1,,,,,,,,,11,,,70,127
123358,note_on,46,0,1,,,,,,,,,11,,,70,0
123358,note_on,94,0,5,,,,,,,,,6,,,57,0
123360,note_on,2,0,5,,,,,,,,,6,,,58,108
123360,note_on,2,0,1,,,,,,,,,11,,,69,127
123406,note_on,46,0,1,,,,,,,,,11,,,69,0
123408,note_on,2,0,1,,,,,,,,,11,,,67,127
123454,note_on,94,0,5,,,,,,,,,6,,,58,0
123454,note_on,46,0,1,,,,,,,,,11,,,67,0
123456,note_on,2,0,5,,,,,,,,,6,,,60,108
123456,note_on,2,0,1,,,,,,,,,11,,,75,127
123550,note_on,94,0,1,,,,,,,,,11,,,75,0
123550,note_on,94,0,5,,,,,,,,,6,,,60,0
123552,note_on,2,0,1,,,,,,,,,11,,,72,127
123552,note_on,2,0,5,,,,,,,,,6,,,62,108
123646,note_on,94,0,1,,,,,,,,,11,,,72,0
123646,note_on,94,0,5,,,,,,,,,6,,,62,0
123648,note_on,2,0,1,,,,,,,,,11,,,79,127
123648,note_on,2,0,5,,,,,,,,,6,,,63,108
123742,note_on,94,0,1,,,,,,,,,11,,,79,0
123742,note_on,94,0,5,,,,,,,,,6,,,63,0
123744,note_on,2,0,1,,,,,,,,,11,,,81,127
123744,note_on,2,0,5,,,,,,,,,6,,,54,108
123790,note_on,46,0,1,,,,,,,,,11,,,81,0
123792,note_on,2,0,1,,,,,,,,,11,,,79,127
123838,note_on,46,0,1,,,,,,,,,11,,,79,0
123838,note_on,94,0,5,,,,,,,,,6,,,54,0
123840,note_on,2,0,5,,,,,,,,,6,,,55,108
123840,note_on,2,0,1,,,,,,,,,11,,,78,127
123886,note_on,46,0,1,,,,,,,,,11,,,78,0
123888,note_on,2,0,1,,,,,,,,,11,,,76,127
123934,note_on,94,0,5,,,,,,,,,6,,,55,0
123934,note_on,46,0,1,,,,,,,,,11,,,76,0
123936,note_on,2,0,1,,,,,,,,,11,,,74,127
123936,note_on,2,0,5,,,,,,,,,6,,,57,108
123982,note_on,46,0,1,,,,,,,,,11,,,74,0
123984,note_on,2,0,1,,,,,,,,,11,,,72,127
124030,note_on,94,0,5,,,,,,,,,6,,,57,0
124030,note_on,46,0,1,,,,,,,,,11,,,72,0
124032,note_on,2,0,5,,,,,,,,,6,,,55,108
124032,note_on,2,0,1,,,,,,,,,11,,,70,127
124078,note_on,46,0,1,,,,,,,,,11,,,70,0
124080,note_on,2,0,1,,,,,,,,,11,,,69,127
124126,note_on,94,0,5,,,,,,,,,6,,,55,0
124126,note_on,46,0,1,,,,,,,,,11,,,69,0
124128,note_on,2,0,1,,,,,,,,,11,,,67,127
124128,note_on,2,0,5,,,,,,,,,6,,,50,108
124174,note_on,46,0,1,,,,,,,,,11,,,67,0
124176,note_on,2,0,1,,,,,,,,,11,,,66,127
124222,note_on,46,0,1,,,,,,,,,11,,,66,0
124222,note_on,94,0,5,,,,,,,,,6,,,50,0
124224,note_on,2,0,1,,,,,,,,,11,,,67,127
124224,note_on,2,0,5,,,,,,,,,6,,,43,108
124318,note_on,94,0,5,,,,,,,,,6,,,43,0
124318,note_on,94,0,1,,,,,,,,,11,,,67,0
124320,note_on,2,0,1,,,,,,,,,11,,,74,127
124320,note_on,2,0,5,,,,,,,,,6,,,55,108
124414,note_on,94,0,1,,,,,,,,,11,,,74,0
124414,note_on,94,0,5,,,,,,,,,6,,,55,0
124416,note_on,2,0,1,,,,,,,,,11,,,72,127
124416,note_on,2,0,5,,,,,,,,,6,,,57,108
124462,note_on,46,0,1,,,,,,,,,11,,,72,0
124464,note_on,2,0,1,,,,,,,,,11,,,70,127
124510,note_on,46,0,1,,,,,,,,,11,,,70,0
124510,note_on,94,0,5,,,,,,,,,6,,,57,0
124512,note_on,2,0,5,,,,,,,,,6,,,58,108
124512,note_on,2,0,1,,,,,,,,,11,,,69,127
124558,note_on,46,0,1,,,,,,,,,11,,,69,0
124560,note_on,2,0,1,,,,,,,,,11,,,67,127
124606,note_on,94,0,5,,,,,,,,,6,,,58,0
124606,note_on,46,0,1,,,,,,,,,11,,,67,0
124608,note_on,2,0,5,,,,,,,,,6,,,60,108
124608,note_on,2,0,1,,,,,,,,,11,,,75,127
124702,note_on,94,0,1,,,,,,,,,11,,,75,0
124702,note_on,94,0,5,,,,,,,,,6,,,60,0
124704,note_on,2,0,5,,,,,,,,,6,,,58,108
124704,note_on,2,0,1,,,,,,,,,11,,,74,127
124798,note_on,94,0,1,,,,,,,,,11,,,74,0
124798,note_on,94,0,5,,,,,,,,,6,,,58,0
124800,note_on,2,0,5,,,,,,,,,6,,,57,108
124800,note_on,2,0,1,,,,,,,,,11,,,79,127
124894,note_on,94,0,1,,,,,,,,,11,,,79,0
124894,note_on,94,0,5,,,,,,,,,6,,,57,0
124896,note_on,2,0,1,,,,,,,,,11,,,82,127
124896,note_on,2,0,5,,,,,,,,,6,,,55,108
124942,note_on,46,0,1,,,,,,,,,11,,,82,0
124944,note_on,2,0,1,,,,,,,,,11,,,81,127
124966,note_on,22,0,1,,,,,,,,,11,,,81,0
124968,note_on,2,0,1,,,,,,,,,11,,,79,127
124990,note_on,94,0,5,,,,,,,,,6,,,55,0
124990,note_on,22,0,1,,,,,,,,,11,,,79,0
124992,note_on,2,0,5,,,,,,,,,6,,,51,108
124992,note_on,2,0,1,,,,,,,,,11,,,84,127
125086,note_on,94,0,1,,,,,,,,,11,,,84,0
125088,note_on,2,0,1,,,,,,,,,11,,,79,127
125152,note_on,160,0,5,,,,,,,,,6,,,51,0
125182,note_on,94,0,1,,,,,,,,,11,,,79,0
125184,note_on,2,0,1,,,,,,,,,11,,,81,127
125184,note_on,32,0,5,,,,,,,,,6,,,50,108
125206,note_on,22,0,1,,,,,,,,,11,,,81,0
125208,note_on,2,0,1,,,,,,,,,11,,,79,127
125230,note_on,22,0,1,,,,,,,,,11,,,79,0
125232,note_on,2,0,1,,,,,,,,,11,,,81,127
125254,note_on,22,0,1,,,,,,,,,11,,,81,0
125256,note_on,2,0,1,,,,,,,,,11,,,79,127
125278,note_on,22,0,1,,,,,,,,,11,,,79,0
125280,note_on,2,0,1,,,,,,,,,11,,,78,127
125326,note_on,46,0,1,,,,,,,,,11,,,78,0
125328,note_on,2,0,1,,,,,,,,,11,,,76,127
125344,note_on,160,0,5,,,,,,,,,6,,,50,0
125374,note_on,46,0,1,,,,,,,,,11,,,76,0
125376,note_on,2,0,1,,,,,,,,,11,,,78,127
125376,note_on,32,0,5,,,,,,,,,6,,,38,108
125470,note_on,94,0,1,,,,,,,,,11,,,78,0
125470,note_on,94,0,5,,,,,,,,,6,,,38,0
125472,note_on,4160,0,2,,,,,,,,,0,,,74,127
125472,note_on,4160,0,3,,,,,,,,,2,,,70,127
125472,note_on,4160,0,6,,,,,,,,,8,,,31,108
125472,note_on,4160,0,4,,,,,,,,,4,,,67,75
125472,note_on,2,0,1,,,,,,,,,11,,,74,127
125472,note_on,2,0,5,,,,,,,,,6,,,43,108
125566,note_on,94,0,5,,,,,,,,,6,,,43,0
125566,note_on,94,0,2,,,,,,,,,0,,,74,0
125566,note_on,94,0,1,,,,,,,,,11,,,74,0
125566,note_on,94,0,6,,,,,,,,,8,,,31,0
125566,note_on,94,0,3,,,,,,,,,2,,,70,0
125568,note_on,2,0,3,,,,,,,,,2,,,70,127
125568,note_on,2,0,6,,,,,,,,,8,,,43,108
125568,note_on,2,0,5,,,,,,,,,6,,,55,108
125568,note_on,2,0,1,,,,,,,,,11,,,74,127
125568,note_on,2,0,2,,,,,,,,,0,,,74,127
125632,note_on,160,0,4,,,,,,,,,4,,,67,0
125662,note_on,94,0,3,,,,,,,,,2,,,70,0
125662,note_on,94,0,6,,,,,,,,,8,,,43,0
125662,note_on,94,0,5,,,,,,,,,6,,,55,0
125662,note_on,94,0,1,,,,,,,,,11,,,74,0
125662,note_on,94,0,2,,,,,,,,,0,,,74,0
125664,note_on,32,0,4,,,,,,,,,4,,,67,75
125664,note_on,2,0,3,,,,,,,,,2,,,72,127
125664,note_on,2,0,1,,,,,,,,,11,,,75,127
125664,note_on,2,0,2,,,,,,,,,0,,,75,127
125664,note_on,2,0,5,,,,,,,,,6,,,48,108
125664,note_on,2,0,6,,,,,,,,,8,,,36,108
125758,note_on,94,0,2,,,,,,,,,0,,,75,0
125758,note_on,94,0,3,,,,,,,,,2,,,72,0
125758,note_on,94,0,4,,,,,,,,,4,,,67,0
125758,note_on,94,0,1,,,,,,,,,11,,,75,0
125758,note_on,94,0,5,,,,,,,,,6,,,48,0
125758,note_on,94,0,6,,,,,,,,,8,,,36,0
125760,note_on,2,0,6,,,,,,,,,8,,,31,108
125760,note_on,2,0,3,,,,,,,,,2,,,70,127
125760,note_on,2,0,5,,,,,,,,,6,,,43,108
125760,note_on,2,0,1,,,,,,,,,11,,,74,127
125760,note_on,2,0,2,,,,,,,,,0,,,74,127
125760,note_on,2,0,4,,,,,,,,,4,,,67,75
125854,note_on,94,0,1,,,,,,,,,11,,,74,0
125854,note_on,94,0,6,,,,,,,,,8,,,31,0
125854,note_on,94,0,3,,,,,,,,,2,,,70,0
125854,note_on,94,0,5,,,,,,,,,6,,,43,0
125854,note_on,94,0,2,,,,,,,,,0,,,74,0
125856,note_on,2,0,1,,,,,,,,,11,,,74,127
125856,note_on,2,0,2,,,,,,,,,0,,,74,127
125856,note_on,2,0,3,,,,,,,,,2,,,70,127
125856,note_on,2,0,6,,,,,,,,,8,,,43,108
125856,note_on,2,0,5,,,,,,,,,6,,,55,108
125920,note_on,160,0,4,,,,,,,,,4,,,67,0
125950,note_on,94,0,6,,,,,,,,,8,,,43,0
125950,note_on,94,0,1,,,,,,,,,11,,,74,0
125950,note_on,94,0,5,,,,,,,,,6,,,55,0
125950,note_on,94,0,2,,,,,,,,,0,,,74,0
125950,note_on,94,0,3,,,,,,,,,2,,,70,0
125952,note_on,2,0,6,,,,,,,,,8,,,36,108
125952,note_on,2,0,5,,,,,,,,,6,,,48,108
125952,note_on,32,0,4,,,,,,,,,4,,,67,75
125952,note_on,2,0,2,,,,,,,,,0,,,75,127
125952,note_on,2,0,3,,,,,,,,,2,,,72,127
125952,note_on,2,0,1,,,,,,,,,11,,,75,127
126046,note_on,94,0,6,,,,,,,,,8,,,36,0
126046,note_on,94,0,1,,,,,,,,,11,,,75,0
126046,note_on,94,0,5,,,,,,,,,6,,,48,0
126046,note_on,94,0,3,,,,,,,,,2,,,72,0
126046,note_on,94,0,2,,,,,,,,,0,,,75,0
126046,note_on,94,0,4,,,,,,,,,4,,,67,0
126048,note_on,2,0,1,,,,,,,,,11,,,74,127
126048,note_on,2,0,3,,,,,,,,,2,,,74,127
126048,note_on,2,0,2,,,,,,,,,0,,,74,127
126048,note_on,2,0,5,,,,,,,,,6,,,43,108
126048,note_on,2,0,4,,,,,,,,,4,,,67,75
126048,note_on,2,0,6,,,,,,,,,8,,,31,108
126094,note_on,46,0,1,,,,,,,,,11,,,74,0
126096,note_on,2,0,1,,,,,,,,,11,,,79,127
126142,note_on,94,0,2,,,,,,,,,0,,,74,0
126142,note_on,94,0,5,,,,,,,,,6,,,43,0
126142,note_on,94,0,6,,,,,,,,,8,,,31,0
126142,note_on,94,0,3,,,,,,,,,2,,,74,0
126142,note_on,46,0,1,,,,,,,,,11,,,79,0
126142,note_on,94,0,4,,,,,,,,,4,,,67,0
126144,note_on,2,0,1,,,,,,,,,11,,,82,127
126166,note_on,22,0,1,,,,,,,,,11,,,82,0
126168,note_on,2,0,1,,,,,,,,,11,,,81,127
126190,note_on,22,0,1,,,,,,,,,11,,,81,0
126192,note_on,2,0,1,,,,,,,,,11,,,79,127
126238,note_on,46,0,1,,,,,,,,,11,,,79,0
126240,note_on,2,0,1,,,,,,,,,11,,,81,127
126262,note_on,22,0,1,,,,,,,,,11,,,81,0
126264,note_on,2,0,1,,,,,,,,,11,,,79,127
126286,note_on,22,0,1,,,,,,,,,11,,,79,0
126288,note_on,2,0,1,,,,,,,,,11,,,78,127
126334,note_on,46,0,1,,,,,,,,,11,,,78,0
126336,note_on,194,0,5,,,,,,,,,6,,,43,108
126336,note_on,2,0,1,,,,,,,,,11,,,79,127
126382,note_on,46,0,1,,,,,,,,,11,,,79,0
126384,note_on,2,0,1,,,,,,,,,11,,,75,127
126430,note_on,46,0,1,,,,,,,,,11,,,75,0
126432,note_on,2,0,1,,,,,,,,,11,,,74,127
126454,note_on,22,0,1,,,,,,,,,11,,,74,0
126456,note_on,2,0,1,,,,,,,,,11,,,72,127
126478,note_on,22,0,1,,,,,,,,,11,,,72,0
126480,note_on,2,0,1,,,,,,,,,11,,,70,127
126496,note_on,160,0,5,,,,,,,,,6,,,43,0
126526,note_on,46,0,1,,,,,,,,,11,,,70,0
126528,note_on,2,0,1,,,,,,,,,11,,,72,127
126550,note_on,22,0,1,,,,,,,,,11,,,72,0
126552,note_on,2,0,1,,,,,,,,,11,,,70,127
126574,note_on,22,0,1,,,,,,,,,11,,,70,0
126576,note_on,2,0,1,,,,,,,,,11,,,69,127
126622,note_on,46,0,1,,,,,,,,,11,,,69,0
126624,note_on,128,0,5,,,,,,,,,6,,,55,108
126624,note_on,2,0,1,,,,,,,,,11,,,70,127
126718,note_on,94,0,1,,,,,,,,,11,,,70,0
126720,note_on,2,0,1,,,,,,,,,11,,,73,127
126814,note_on,94,0,1,,,,,,,,,11,,,73,0
126816,note_on,2,0,1,,,,,,,,,11,,,74,127
126880,note_on,256,0,5,,,,,,,,,6,,,55,0
126910,note_on,94,0,1,,,,,,,,,11,,,74,0
126912,note_on,2,0,1,,,,,,,,,11,,,69,127
126912,note_on,32,0,5,,,,,,,,,6,,,53,108
127006,note_on,94,0,1,,,,,,,,,11,,,69,0
127008,note_on,2,0,1,,,,,,,,,11,,,73,127
127072,note_on,160,0,5,,,,,,,,,6,,,53,0
127102,note_on,94,0,1,,,,,,,,,11,,,73,0
127104,note_on,2,0,1,,,,,,,,,11,,,74,127
127198,note_on,94,0,1,,,,,,,,,11,,,74,0
127200,note_on,2,0,1,,,,,,,,,11,,,67,127
127200,note_on,128,0,5,,,,,,,,,6,,,51,108
127294,note_on,94,0,1,,,,,,,,,11,,,67,0
127296,note_on,2,0,1,,,,,,,,,11,,,73,127
127390,note_on,94,0,1,,,,,,,,,11,,,73,0
127392,note_on,2,0,1,,,,,,,,,11,,,74,127
127456,note_on,256,0,5,,,,,,,,,6,,,51,0
127486,note_on,94,0,1,,,,,,,,,11,,,74,0
127488,note_on,32,0,5,,,,,,,,,6,,,50,108
127488,note_on,2,0,1,,,,,,,,,11,,,66,127
127534,note_on,46,0,1,,,,,,,,,11,,,66,0
127536,note_on,2,0,1,,,,,,,,,11,,,67,127
127582,note_on,46,0,1,,,,,,,,,11,,,67,0
127584,note_on,2,0,1,,,,,,,,,11,,,66,127
127630,note_on,46,0,1,,,,,,,,,11,,,66,0
127632,note_on,2,0,1,,,,,,,,,11,,,64,127
127648,note_on,160,0,5,,,,,,,,,6,,,50,0
127678,note_on,46,0,1,,,,,,,,,11,,,64,0
127680,note_on,2,0,1,,,,,,,,,11,,,62,127
127776,note_on,128,0,5,,,,,,,,,6,,,55,108
127822,note_on,142,0,1,,,,,,,,,11,,,62,0
127824,note_on,2,0,1,,,,,,,,,11,,,79,127
127870,note_on,46,0,1,,,,,,,,,11,,,79,0
127870,note_on,94,0,5,,,,,,,,,6,,,55,0
127872,note_on,2,0,1,,,,,,,,,11,,,82,127
127872,note_on,2,0,5,,,,,,,,,6,,,55,108
127918,note_on,46,0,1,,,,,,,,,11,,,82,0
127920,note_on,2,0,1,,,,,,,,,11,,,79,127
127966,note_on,46,0,1,,,,,,,,,11,,,79,0
127966,note_on,94,0,5,,,,,,,,,6,,,55,0
127968,note_on,2,0,5,,,,,,,,,6,,,55,108
127968,note_on,2,0,1,,,,,,,,,11,,,78,127
128014,note_on,46,0,1,,,,,,,,,11,,,78,0
128016,note_on,2,0,1,,,,,,,,,11,,,79,127
128062,note_on,46,0,1,,,,,,,,,11,,,79,0
128062,note_on,94,0,5,,,,,,,,,6,,,55,0
128064,note_on,2,0,5,,,,,,,,,6,,,53,108
128112,note_on,50,0,1,,,,,,,,,11,,,79,127
128158,note_on,46,0,1,,,,,,,,,11,,,79,0
128158,note_on,94,0,5,,,,,,,,,6,,,53,0
128160,note_on,2,0,5,,,,,,,,,6,,,53,108
128160,note_on,2,0,1,,,,,,,,,11,,,82,127
128206,note_on,46,0,1,,,,,,,,,11,,,82,0
128208,note_on,2,0,1,,,,,,,,,11,,,79,127
128254,note_on,46,0,1,,,,,,,,,11,,,79,0
128254,note_on,94,0,5,,,,,,,,,6,,,53,0
128256,note_on,2,0,1,,,,,,,,,11,,,78,127
128256,note_on,2,0,5,,,,,,,,,6,,,53,108
128302,note_on,46,0,1,,,,,,,,,11,,,78,0
128304,note_on,2,0,1,,,,,,,,,11,,,79,127
128350,note_on,94,0,5,,,,,,,,,6,,,53,0
128352,note_on,2,0,5,,,,,,,,,6,,,51,108
128398,note_on,94,0,1,,,,,,,,,11,,,79,0
128400,note_on,2,0,1,,,,,,,,,11,,,79,127
128446,note_on,94,0,5,,,,,,,,,6,,,51,0
128446,note_on,46,0,1,,,,,,,,,11,,,79,0
128448,note_on,2,0,5,,,,,,,,,6,,,51,108
128448,note_on,2,0,1,,,,,,,,,11,,,82,127
128494,note_on,46,0,1,,,,,,,,,11,,,82,0
128496,note_on,2,0,1,,,,,,,,,11,,,79,127
128542,note_on,46,0,1,,,,,,,,,11,,,79,0
128542,note_on,94,0,5,,,,,,,,,6,,,51,0
128544,note_on,2,0,1,,,,,,,,,11,,,78,127
128544,note_on,2,0,5,,,,,,,,,6,,,51,108
128590,note_on,46,0,1,,,,,,,,,11,,,78,0
128592,note_on,2,0,1,,,,,,,,,11,,,79,127
128638,note_on,46,0,1,,,,,,,,,11,,,79,0
128638,note_on,94,0,5,,,,,,,,,6,,,51,0
128640,note_on,2,0,5,,,,,,,,,6,,,50,108
128640,note_on,2,0,1,,,,,,,,,11,,,72,127
128734,note_on,94,0,5,,,,,,,,,6,,,50,0
128736,note_on,2,0,5,,,,,,,,,6,,,50,108
128830,note_on,94,0,5,,,,,,,,,6,,,50,0
128832,note_on,2,0,5,,,,,,,,,6,,,50,108
128926,note_on,94,0,5,,,,,,,,,6,,,50,0
128928,note_on,2,0,5,,,,,,,,,6,,,54,108
128974,note_on,334,0,1,,,,,,,,,11,,,72,0
128976,note_on,2,0,1,,,,,,,,,11,,,72,127
129022,note_on,46,0,1,,,,,,,,,11,,,72,0
129022,note_on,94,0,5,,,,,,,,,6,,,54,0
129024,note_on,2,0,1,,,,,,,,,11,,,75,127
129024,note_on,2,0,5,,,,,,,,,6,,,54,108
129070,note_on,46,0,1,,,,,,,,,11,,,75,0
129072,note_on,2,0,1,,,,,,,,,11,,,72,127
129118,note_on,94,0,5,,,,,,,,,6,,,54,0
129118,note_on,46,0,1,,,,,,,,,11,,,72,0
129120,note_on,2,0,1,,,,,,,,,11,,,71,127
129120,note_on,2,0,5,,,,,,,,,6,,,54,108
129166,note_on,46,0,1,,,,,,,,,11,,,71,0
129168,note_on,2,0,1,,,,,,,,,11,,,72,127
129214,note_on,94,0,5,,,,,,,,,6,,,54,0
129214,note_on,46,0,1,,,,,,,,,11,,,72,0
129216,note_on,2,0,5,,,,,,,,,6,,,57,108
129264,note_on,50,0,1,,,,,,,,,11,,,72,127
129310,note_on,94,0,5,,,,,,,,,6,,,57,0
129310,note_on,46,0,1,,,,,,,,,11,,,72,0
129312,note_on,2,0,5,,,,,,,,,6,,,57,108
129312,note_on,2,0,1,,,,,,,,,11,,,75,127
129358,note_on,46,0,1,,,,,,,,,11,,,75,0
129360,note_on,2,0,1,,,,,,,,,11,,,72,127
129406,note_on,94,0,5,,,,,,,,,6,,,57,0
129406,note_on,46,0,1,,,,,,,,,11,,,72,0
129408,note_on,2,0,1,,,,,,,,,11,,,71,127
129408,note_on,2,0,5,,,,,,,,,6,,,57,108
129454,note_on,46,0,1,,,,,,,,,11,,,71,0
129456,note_on,2,0,1,,,,,,,,,11,,,72,127
129502,note_on,94,0,5,,,,,,,,,6,,,57,0
129504,note_on,2,0,5,,,,,,,,,6,,,54,108
129550,note_on,94,0,1,,,,,,,,,11,,,72,0
129552,note_on,2,0,1,,,,,,,,,11,,,72,127
129598,note_on,94,0,5,,,,,,,,,6,,,54,0
129598,note_on,46,0,1,,,,,,,,,11,,,72,0
129600,note_on,2,0,1,,,,,,,,,11,,,75,127
129600,note_on,2,0,5,,,,,,,,,6,,,54,108
129646,note_on,46,0,1,,,,,,,,,11,,,75,0
129648,note_on,2,0,1,,,,,,,,,11,,,72,127
129694,note_on,46,0,1,,,,,,,,,11,,,72,0
129694,note_on,94,0,5,,,,,,,,,6,,,54,0
129696,note_on,2,0,1,,,,,,,,,11,,,71,127
129696,note_on,2,0,5,,,,,,,,,6,,,54,108
129742,note_on,46,0,1,,,,,,,,,11,,,71,0
129744,note_on,2,0,1,,,,,,,,,11,,,72,127
129790,note_on,46,0,1,,,,,,,,,11,,,72,0
129790,note_on,94,0,5,,,,,,,,,6,,,54,0
129792,note_on,2,0,1,,,,,,,,,11,,,66,127
129792,note_on,2,0,5,,,,,,,,,6,,,50,108
129886,note_on,94,0,5,,,,,,,,,6,,,50,0
129888,note_on,2,0,5,,,,,,,,,6,,,50,108
129952,note_on,160,0,1,,,,,,,,,11,,,66,0
129982,note_on,94,0,5,,,,,,,,,6,,,50,0
129984,note_on,2,0,5,,,,,,,,,6,,,50,108
130078,note_on,94,0,5,,,,,,,,,6,,,50,0
130080,note_on,128,0,1,,,,,,,,,11,,,81,127
130080,note_on,2,0,5,,,,,,,,,6,,,54,108
130126,note_on,46,0,1,,,,,,,,,11,,,81,0
130128,note_on,2,0,1,,,,,,,,,11,,,79,127
130174,note_on,46,0,1,,,,,,,,,11,,,79,0
130174,note_on,94,0,5,,,,,,,,,6,,,54,0
130176,note_on,2,0,5,,,,,,,,,6,,,54,108
130176,note_on,2,0,1,,,,,,,,,11,,,78,127
130222,note_on,46,0,1,,,,,,,,,11,,,78,0
130224,note_on,2,0,1,,,,,,,,,11,,,76,127
130270,note_on,94,0,5,,,,,,,,,6,,,54,0
130270,note_on,46,0,1,,,,,,,,,11,,,76,0
130272,note_on,2,0,5,,,,,,,,,6,,,54,108
130272,note_on,2,0,1,,,,,,,,,11,,,74,127
130318,note_on,46,0,1,,,,,,,,,11,,,74,0
130320,note_on,2,0,1,,,,,,,,,11,,,72,127
130366,note_on,46,0,1,,,,,,,,,11,,,72,0
130366,note_on,94,0,5,,,,,,,,,6,,,54,0
130368,note_on,2,0,5,,,,,,,,,6,,,55,108
130368,note_on,2,0,1,,,,,,,,,11,,,70,127
130414,note_on,46,0,1,,,,,,,,,11,,,70,0
130416,note_on,2,0,1,,,,,,,,,11,,,67,127
130462,note_on,46,0,1,,,,,,,,,11,,,67,0
130462,note_on,94,0,5,,,,,,,,,6,,,55,0
130464,note_on,2,0,1,,,,,,,,,11,,,67,127
130464,note_on,2,0,5,,,,,,,,,6,,,58,108
130510,note_on,46,0,1,,,,,,,,,11,,,67,0
130512,note_on,2,0,1,,,,,,,,,11,,,68,127
130558,note_on,94,0,5,,,,,,,,,6,,,58,0
130558,note_on,46,0,1,,,,,,,,,11,,,68,0
130560,note_on,2,0,5,,,,,,,,,6,,,60,108
130560,note_on,2,0,1,,,,,,,,,11,,,68,127
130606,note_on,46,0,1,,,,,,,,,11,,,68,0
130608,note_on,2,0,1,,,,,,,,,11,,,71,127
130654,note_on,46,0,1,,,,,,,,,11,,,71,0
130654,note_on,94,0,5,,,,,,,,,6,,,60,0
130656,note_on,2,0,1,,,,,,,,,11,,,71,127
130656,note_on,2,0,5,,,,,,,,,6,,,62,108
130702,note_on,46,0,1,,,,,,,,,11,,,71,0
130704,note_on,2,0,1,,,,,,,,,11,,,72,127
130750,note_on,46,0,1,,,,,,,,,11,,,72,0
130750,note_on,94,0,5,,,,,,,,,6,,,62,0
130752,note_on,2,0,5,,,,,,,,,6,,,63,108
130752,note_on,2,0,1,,,,,,,,,11,,,72,127
130798,note_on,46,0,1,,,,,,,,,11,,,72,0
130800,note_on,2,0,1,,,,,,,,,11,,,74,127
130846,note_on,94,0,5,,,,,,,,,6,,,63,0
130846,note_on,46,0,1,,,,,,,,,11,,,74,0
130848,note_on,2,0,5,,,,,,,,,6,,,58,108
130848,note_on,2,0,1,,,,,,,,,11,,,74,127
130894,note_on,46,0,1,,,,,,,,,11,,,74,0
130896,note_on,2,0,1,,,,,,,,,11,,,75,127
130942,note_on,46,0,1,,,,,,,,,11,,,75,0
130942,note_on,94,0,5,,,,,,,,,6,,,58,0
130944,note_on,2,0,5,,,,,,,,,6,,,60,108
130944,note_on,2,0,1,,,,,,,,,11,,,75,127
131038,note_on,94,0,5,,,,,,,,,6,,,60,0
131040,note_on,2,0,5,,,,,,,,,6,,,57,108
131134,note_on,94,0,5,,,,,,,,,6,,,57,0
131136,note_on,2,0,5,,,,,,,,,6,,,55,108
131230,note_on,94,0,5,,,,,,,,,6,,,55,0
131232,note_on,2,0,5,,,,,,,,,6,,,54,108
131278,note_on,334,0,1,,,,,,,,,11,,,75,0
131280,note_on,2,0,1,,,,,,,,,11,,,72,127
131326,note_on,46,0,1,,,,,,,,,11,,,72,0
131326,note_on,94,0,5,,,,,,,,,6,,,54,0
131328,note_on,2,0,5,,,,,,,,,6,,,50,108
131328,note_on,2,0,1,,,,,,,,,11,,,70,127
131374,note_on,46,0,1,,,,,,,,,11,,,70,0
131376,note_on,2,0,1,,,,,,,,,11,,,72,127
131422,note_on,46,0,1,,,,,,,,,11,,,72,0
131422,note_on,94,0,5,,,,,,,,,6,,,50,0
131424,note_on,2,0,1,,,,,,,,,11,,,76,127
131424,note_on,2,0,5,,,,,,,,,6,,,48,108
131470,note_on,46,0,1,,,,,,,,,11,,,76,0
131472,note_on,2,0,1,,,,,,,,,11,,,78,127
131518,note_on,94,0,5,,,,,,,,,6,,,48,0
131518,note_on,46,0,1,,,,,,,,,11,,,78,0
131520,note_on,2,0,5,,,,,,,,,6,,,46,108
131520,note_on,2,0,1,,,,,,,,,11,,,79,127
131614,note_on,94,0,5,,,,,,,,,6,,,46,0
131616,note_on,2,0,5,,,,,,,,,6,,,45,108
131710,note_on,94,0,5,,,,,,,,,6,,,45,0
131712,note_on,2,0,5,,,,,,,,,6,,,43,108
131806,note_on,94,0,5,,,,,,,,,6,,,43,0
131808,note_on,2,0,5,,,,,,,,,6,,,51,108
131902,note_on,382,0,1,,,,,,,,,11,,,79,0
131904,note_on,2,0,1,,,,,,,,,11,,,77,127
131950,note_on,46,0,1,,,,,,,,,11,,,77,0
131952,note_on,2,0,1,,,,,,,,,11,,,75,127
131998,note_on,46,0,1,,,,,,,,,11,,,75,0
132000,note_on,2,0,1,,,,,,,,,11,,,74,127
132046,note_on,46,0,1,,,,,,,,,11,,,74,0
132048,note_on,2,0,1,,,,,,,,,11,,,72,127
132064,note_on,256,0,5,,,,,,,,,6,,,51,0
132094,note_on,46,0,1,,,,,,,,,11,,,72,0
132096,note_on,2,0,1,,,,,,,,,11,,,81,127
132096,note_on,32,0,5,,,,,,,,,6,,,42,108
132190,note_on,94,0,1,,,,,,,,,11,,,81,0
132192,note_on,2,0,1,,,,,,,,,11,,,79,127
132238,note_on,46,0,1,,,,,,,,,11,,,79,0
132240,note_on,2,0,1,,,,,,,,,11,,,78,127
132256,note_on,160,0,5,,,,,,,,,6,,,42,0
132286,note_on,46,0,1,,,,,,,,,11,,,78,0
132288,note_on,2,0,1,,,,,,,,,11,,,75,127
132334,note_on,46,0,1,,,,,,,,,11,,,75,0
132336,note_on,2,0,1,,,,,,,,,11,,,74,127
132382,note_on,46,0,1,,,,,,,,,11,,,74,0
132384,note_on,128,0,5,,,,,,,,,6,,,43,108
132384,note_on,2,0,1,,,,,,,,,11,,,82,127
132478,note_on,94,0,5,,,,,,,,,6,,,43,0
132478,note_on,94,0,1,,,,,,,,,11,,,82,0
132480,note_on,2,0,5,,,,,,,,,6,,,45,108
132480,note_on,2,0,1,,,,,,,,,11,,,81,127
132574,note_on,94,0,1,,,,,,,,,11,,,81,0
132574,note_on,94,0,5,,,,,,,,,6,,,45,0
132576,note_on,2,0,1,,,,,,,,,11,,,79,127
132576,note_on,2,0,5,,,,,,,,,6,,,46,108
132670,note_on,94,0,1,,,,,,,,,11,,,79,0
132670,note_on,94,0,5,,,,,,,,,6,,,46,0
132672,note_on,2,0,1,,,,,,,,,11,,,84,127
132672,note_on,2,0,5,,,,,,,,,6,,,48,108
132718,note_on,46,0,1,,,,,,,,,11,,,84,0
132720,note_on,2,0,1,,,,,,,,,11,,,81,127
132766,note_on,46,0,1,,,,,,,,,11,,,81,0
132766,note_on,94,0,5,,,,,,,,,6,,,48,0
132768,note_on,2,0,1,,,,,,,,,11,,,79,127
132768,note_on,2,0,5,,,,,,,,,6,,,50,108
132790,note_on,22,0,1,,,,,,,,,11,,,79,0
132792,note_on,2,0,1,,,,,,,,,11,,,78,127
132814,note_on,22,0,1,,,,,,,,,11,,,78,0
132816,note_on,2,0,1,,,,,,,,,11,,,78,127
132838,note_on,22,0,1,,,,,,,,,11,,,78,0
132840,note_on,2,0,1,,,,,,,,,11,,,79,127
132862,note_on,94,0,5,,,,,,,,,6,,,50,0
132862,note_on,22,0,1,,,,,,,,,11,,,79,0
132864,note_on,2,0,5,,,,,,,,,6,,,38,108
132864,note_on,2,0,1,,,,,,,,,11,,,78,127
132958,note_on,94,0,1,,,,,,,,,11,,,78,0
132958,note_on,94,0,5,,,,,,,,,6,,,38,0
132960,note_on,2,0,1,,,,,,,,,11,,,79,127
132960,note_on,2,0,5,,,,,,,,,6,,,43,108
133006,note_on,46,0,1,,,,,,,,,11,,,79,0
133008,note_on,2,0,1,,,,,,,,,11,,,78,127
133054,note_on,46,0,1,,,,,,,,,11,,,78,0
133054,note_on,94,0,5,,,,,,,,,6,,,43,0
133056,note_on,2,0,1,,,,,,,,,11,,,75,127
133056,note_on,2,0,5,,,,,,,,,6,,,60,108
133102,note_on,46,0,1,,,,,,,,,11,,,75,0
133104,note_on,2,0,1,,,,,,,,,11,,,74,127
133150,note_on,94,0,5,,,,,,,,,6,,,60,0
133150,note_on,46,0,1,,,,,,,,,11,,,74,0
133152,note_on,2,0,1,,,,,,,,,11,,,72,127
133152,note_on,2,0,5,,,,,,,,,6,,,54,108
133198,note_on,46,0,1,,,,,,,,,11,,,72,0
133200,note_on,2,0,1,,,,,,,,,11,,,81,127
133246,note_on,46,0,1,,,,,,,,,11,,,81,0
133246,note_on,94,0,5,,,,,,,,,6,,,54,0
133248,note_on,2,0,5,,,,,,,,,6,,,55,108
133248,note_on,2,0,1,,,,,,,,,11,,,70,127
133270,note_on,22,0,1,,,,,,,,,11,,,70,0
133272,note_on,2,0,1,,,,,,,,,11,,,74,127
133294,note_on,22,0,1,,,,,,,,,11,,,74,0
133296,note_on,2,0,1,,,,,,,,,11,,,76,127
133318,note_on,22,0,1,,,,,,,,,11,,,76,0
133320,note_on,2,0,1,,,,,,,,,11,,,78,127
133342,note_on,22,0,1,,,,,,,,,11,,,78,0
133344,note_on,2,0,1,,,,,,,,,11,,,79,127
133390,note_on,46,0,1,,,,,,,,,11,,,79,0
133392,note_on,2,0,1,,,,,,,,,11,,,70,127
133408,note_on,160,0,5,,,,,,,,,6,,,55,0
133438,note_on,46,0,1,,,,,,,,,11,,,70,0
133440,note_on,32,0,5,,,,,,,,,6,,,55,108
133440,note_on,2,0,1,,,,,,,,,11,,,69,127
133486,note_on,46,0,1,,,,,,,,,11,,,69,0
133488,note_on,2,0,1,,,,,,,,,11,,,67,127
133534,note_on,46,0,1,,,,,,,,,11,,,67,0
133534,note_on,94,0,5,,,,,,,,,6,,,55,0
133536,note_on,2,0,5,,,,,,,,,6,,,50,108
133536,note_on,2,0,1,,,,,,,,,11,,,62,127
133582,note_on,46,0,1,,,,,,,,,11,,,62,0
133584,note_on,2,0,1,,,,,,,,,11,,,79,127
133630,note_on,46,0,1,,,,,,,,,11,,,79,0
133632,note_on,2,0,1,,,,,,,,,11,,,81,127
133678,note_on,46,0,1,,,,,,,,,11,,,81,0
133680,note_on,2,0,1,,,,,,,,,11,,,79,127
133696,note_on,160,0,5,,,,,,,,,6,,,50,0
133726,note_on,46,0,1,,,,,,,,,11,,,79,0
133728,note_on,2,0,1,,,,,,,,,11,,,62,127
133728,note_on,32,0,5,,,,,,,,,6,,,38,108
133774,note_on,46,0,1,,,,,,,,,11,,,62,0
133776,note_on,2,0,1,,,,,,,,,11,,,78,127
133822,note_on,94,0,5,,,,,,,,,6,,,38,0
133822,note_on,46,0,1,,,,,,,,,11,,,78,0
133824,note_on,7682,0,3,,,,,,,,,2,,,58,127
133824,note_on,7682,0,2,,,,,,,,,0,,,62,127
133824,note_on,7682,0,6,,,,,,,,,8,,,31,108
133824,note_on,2,0,5,,,,,,,,,6,,,43,108
133824,note_on,7682,0,4,,,,,,,,,4,,,55,75
133824,note_on,2,0,1,,,,,,,,,11,,,79,127
133918,note_on,94,0,6,,,,,,,,,8,,,31,0
133918,note_on,94,0,2,,,,,,,,,0,,,62,0
133918,note_on,94,0,3,,,,,,,,,2,,,58,0
133918,note_on,94,0,5,,,,,,,,,6,,,43,0
133918,note_on,94,0,1,,,,,,,,,11,,,79,0
133920,note_on,2,0,1,,,,,,,,,11,,,62,127
133920,note_on,2,0,2,,,,,,,,,0,,,62,127
133920,note_on,2,0,6,,,,,,,,,8,,,43,108
133920,note_on,2,0,3,,,,,,,,,2,,,58,127
133920,note_on,2,0,5,,,,,,,,,6,,,55,108
133984,note_on,160,0,4,,,,,,,,,4,,,55,0
134014,note_on,94,0,5,,,,,,,,,6,,,55,0
134014,note_on,94,0,2,,,,,,,,,0,,,62,0
134014,note_on,94,0,1,,,,,,,,,11,,,62,0
134014,note_on,94,0,3,,,,,,,,,2,,,58,0
134014,note_on,94,0,6,,,,,,,,,8,,,43,0
134016,note_on,2,0,5,,,,,,,,,6,,,43,108
134016,note_on,32,0,4,,,,,,,,,4,,,55,75
134016,note_on,2,0,1,,,,,,,,,11,,,63,127
134016,note_on,2,0,2,,,,,,,,,0,,,63,127
134016,note_on,2,0,6,,,,,,,,,8,,,31,108
134016,note_on,2,0,3,,,,,,,,,2,,,60,127
134110,note_on,94,0,2,,,,,,,,,0,,,63,0
134110,note_on,94,0,4,,,,,,,,,4,,,55,0
134110,note_on,94,0,6,,,,,,,,,8,,,31,0
134110,note_on,94,0,1,,,,,,,,,11,,,63,0
134110,note_on,94,0,3,,,,,,,,,2,,,60,0
134110,note_on,94,0,5,,,,,,,,,6,,,43,0
134112,note_on,2,0,6,,,,,,,,,8,,,31,108
134112,note_on,2,0,3,,,,,,,,,2,,,58,127
134112,note_on,2,0,2,,,,,,,,,0,,,62,127
134112,note_on,2,0,5,,,,,,,,,6,,,43,108
134112,note_on,2,0,1,,,,,,,,,11,,,62,127
134112,note_on,2,0,4,,,,,,,,,4,,,55,75
134206,note_on,94,0,2,,,,,,,,,0,,,62,0
134206,note_on,94,0,5,,,,,,,,,6,,,43,0
134206,note_on,94,0,1,,,,,,,,,11,,,62,0
134206,note_on,94,0,6,,,,,,,,,8,,,31,0
134206,note_on,94,0,3,,,,,,,,,2,,,58,0
134208,note_on,2,0,2,,,,,,,,,0,,,62,127
134208,note_on,2,0,1,,,,,,,,,11,,,62,127
134208,note_on,2,0,3,,,,,,,,,2,,,58,127
134208,note_on,2,0,6,,,,,,,,,8,,,43,108
134208,note_on,2,0,5,,,,,,,,,6,,,55,108
134272,note_on,160,0,4,,,,,,,,,4,,,55,0
134302,note_on,94,0,3,,,,,,,,,2,,,58,0
134302,note_on,94,0,2,,,,,,,,,0,,,62,0
134302,note_on,94,0,6,,,,,,,,,8,,,43,0
134302,note_on,94,0,5,,,,,,,,,6,,,55,0
134302,note_on,94,0,1,,,,,,,,,11,,,62,0
134304,note_on,2,0,2,,,,,,,,,0,,,63,127
134304,note_on,2,0,6,,,,,,,,,8,,,31,108
134304,note_on,2,0,3,,,,,,,,,2,,,60,127
134304,note_on,2,0,1,,,,,,,,,11,,,63,127
134304,note_on,2,0,5,,,,,,,,,6,,,43,108
134304,note_on,32,0,4,,,,,,,,,4,,,55,75
134398,note_on,94,0,3,,,,,,,,,2,,,60,0
134398,note_on,94,0,2,,,,,,,,,0,,,63,0
134398,note_on,94,0,6,,,,,,,,,8,,,31,0
134398,note_on,94,0,1,,,,,,,,,11,,,63,0
134398,note_on,94,0,5,,,,,,,,,6,,,43,0
134398,note_on,94,0,4,,,,,,,,,4,,,55,0
134400,note_on,2,0,3,,,,,,,,,2,,,58,127
134400,note_on,2,0,5,,,,,,,,,6,,,43,108
134400,note_on,2,0,1,,,,,,,,,11,,,62,127
134400,note_on,2,0,2,,,,,,,,,0,,,62,127
134400,note_on,2,0,4,,,,,,,,,4,,,55,75
134400,note_on,2,0,6,,,,,,,,,8,,,31,108
134446,note_on,46,0,3,,,,,,,,,2,,,58,0
134446,note_on,46,0,2,,,,,,,,,0,,,62,0
134446,note_on,46,0,1,,,,,,,,,11,,,62,0
134448,note_on,2,0,2,,,,,,,,,0,,,79,127
134448,note_on,2,0,3,,,,,,,,,2,,,79,127
134448,note_on,2,0,1,,,,,,,,,11,,,79,127
134494,note_on,46,0,3,,,,,,,,,2,,,79,0
134494,note_on,46,0,2,,,,,,,,,0,,,79,0
134494,note_on,46,0,1,,,,,,,,,11,,,79,0
134496,note_on,2,0,3,,,,,,,,,2,,,82,127
134496,note_on,2,0,2,,,,,,,,,0,,,82,127
134496,note_on,2,0,1,,,,,,,,,11,,,82,127
134542,note_on,46,0,2,,,,,,,,,0,,,82,0
134542,note_on,46,0,3,,,,,,,,,2,,,82,0
134542,note_on,142,0,5,,,,,,,,,6,,,43,0
134542,note_on,142,0,4,,,,,,,,,4,,,55,0
134542,note_on,46,0,1,,,,,,,,,11,,,82,0
134542,note_on,142,0,6,,,,,,,,,8,,,31,0
134544,note_on,2,0,4,,,,,,,,,4,,,62,75
134544,note_on,2,0,2,,,,,,,,,0,,,79,127
134544,note_on,2,0,6,,,,,,,,,8,,,34,108
134544,note_on,2,0,1,,,,,,,,,11,,,79,127
134544,note_on,2,0,5,,,,,,,,,6,,,46,108
134544,note_on,2,0,3,,,,,,,,,2,,,79,127
134590,note_on,46,0,3,,,,,,,,,2,,,79,0
134590,note_on,46,0,2,,,,,,,,,0,,,79,0
134590,note_on,46,0,6,,,,,,,,,8,,,34,0
134590,note_on,46,0,5,,,,,,,,,6,,,46,0
134590,note_on,46,0,4,,,,,,,,,4,,,62,0
134590,note_on,46,0,1,,,,,,,,,11,,,79,0
134592,note_on,2,0,5,,,,,,,,,6,,,48,108
134592,note_on,2,0,2,,,,,,,,,0,,,81,127
134592,note_on,2,0,1,,,,,,,,,11,,,81,127
134592,note_on,2,0,3,,,,,,,,,2,,,81,127
134592,note_on,2,0,4,,,,,,,,,4,,,63,75
134592,note_on,2,0,6,,,,,,,,,8,,,36,108
134638,note_on,46,0,4,,,,,,,,,4,,,63,0
134638,note_on,46,0,2,,,,,,,,,0,,,81,0
134638,note_on,46,0,6,,,,,,,,,8,,,36,0
134638,note_on,46,0,3,,,,,,,,,2,,,81,0
134638,note_on,46,0,5,,,,,,,,,6,,,48,0
134638,note_on,46,0,1,,,,,,,,,11,,,81,0
134640,note_on,2,0,2,,,,,,,,,0,,,78,127
134640,note_on,2,0,1,,,,,,,,,11,,,78,127
134640,note_on,2,0,3,,,,,,,,,2,,,78,127
134640,note_on,2,0,5,,,,,,,,,6,,,50,108
134640,note_on,2,0,4,,,,,,,,,4,,,57,75
134640,note_on,2,0,6,,,,,,,,,8,,,38,108
134686,note_on,46,0,6,,,,,,,,,8,,,38,0
134686,note_on,46,0,4,,,,,,,,,4,,,57,0
134686,note_on,46,0,3,,,,,,,,,2,,,78,0
134686,note_on,46,0,2,,,,,,,,,0,,,78,0
134686,note_on,46,0,1,,,,,,,,,11,,,78,0
134686,note_on,46,0,5,,,,,,,,,6,,,50,0
134688,note_on,2,0,4,,,,,,,,,4,,,58,75
134688,note_on,2,0,1,,,,,,,,,11,,,79,127
134688,note_on,2,0,3,,,,,,,,,2,,,67,127
134688,note_on,2,0,2,,,,,,,,,0,,,79,127
134688,note_on,2,0,6,,,,,,,,,8,,,31,108
134688,note_on,2,0,5,,,,,,,,,6,,,43,108
134782,note_on,94,0,6,,,,,,,,,8,,,31,0
134782,note_on,94,0,3,,,,,,,,,2,,,67,0
134782,note_on,94,0,2,,,,,,,,,0,,,79,0
134782,note_on,94,0,1,,,,,,,,,11,,,79,0
134782,note_on,94,0,5,,,,,,,,,6,,,43,0
134784,note_on,2,0,2,,,,,,,,,0,,,62,127
134784,note_on,2,0,6,,,,,,,,,8,,,43,108
134784,note_on,2,0,3,,,,,,,,,2,,,58,127
134784,note_on,2,0,5,,,,,,,,,6,,,55,108
134784,note_on,2,0,1,,,,,,,,,11,,,62,127
134848,note_on,160,0,4,,,,,,,,,4,,,58,0
134878,note_on,94,0,5,,,,,,,,,6,,,55,0
134878,note_on,94,0,2,,,,,,,,,0,,,62,0
134878,note_on,94,0,6,,,,,,,,,8,,,43,0
134878,note_on,94,0,3,,,,,,,,,2,,,58,0
134878,note_on,94,0,1,,,,,,,,,11,,,62,0
134880,note_on,2,0,1,,,,,,,,,11,,,63,127
134880,note_on,32,0,4,,,,,,,,,4,,,55,75
134880,note_on,2,0,2,,,,,,,,,0,,,63,127
134880,note_on,2,0,3,,,,,,,,,2,,,60,127
134880,note_on,2,0,6,,,,,,,,,8,,,31,108
134880,note_on,2,0,5,,,,,,,,,6,,,43,108
134974,note_on,94,0,1,,,,,,,,,11,,,63,0
134974,note_on,94,0,3,,,,,,,,,2,,,60,0
134974,note_on,94,0,2,,,,,,,,,0,,,63,0
134974,note_on,94,0,5,,,,,,,,,6,,,43,0
134974,note_on,94,0,6,,,,,,,,,8,,,31,0
134974,note_on,94,0,4,,,,,,,,,4,,,55,0
134976,note_on,2,0,2,,,,,,,,,0,,,62,127
134976,note_on,2,0,4,,,,,,,,,4,,,55,75
134976,note_on,2,0,6,,,,,,,,,8,,,31,108
134976,note_on,2,0,5,,,,,,,,,6,,,43,108
134976,note_on,2,0,1,,,,,,,,,11,,,62,127
134976,note_on,2,0,3,,,,,,,,,2,,,58,127
135070,note_on,94,0,6,,,,,,,,,8,,,31,0
135070,note_on,94,0,1,,,,,,,,,11,,,62,0
135070,note_on,94,0,2,,,,,,,,,0,,,62,0
135070,note_on,94,0,5,,,,,,,,,6,,,43,0
135070,note_on,94,0,3,,,,,,,,,2,,,58,0
135072,note_on,2,0,3,,,,,,,,,2,,,58,127
135072,note_on,2,0,5,,,,,,,,,6,,,55,108
135072,note_on,2,0,6,,,,,,,,,8,,,43,108
135072,note_on,2,0,1,,,,,,,,,11,,,62,127
135072,note_on,2,0,2,,,,,,,,,0,,,62,127
135136,note_on,160,0,4,,,,,,,,,4,,,55,0
135166,note_on,94,0,5,,,,,,,,,6,,,55,0
135166,note_on,94,0,3,,,,,,,,,2,,,58,0
135166,note_on,94,0,2,,,,,,,,,0,,,62,0
135166,note_on,94,0,6,,,,,,,,,8,,,43,0
135166,note_on,94,0,1,,,,,,,,,11,,,62,0
135168,note_on,2,0,3,,,,,,,,,2,,,60,127
135168,note_on,2,0,5,,,,,,,,,6,,,43,108
135168,note_on,2,0,1,,,,,,,,,11,,,63,127
135168,note_on,32,0,4,,,,,,,,,4,,,55,75
135168,note_on,2,0,2,,,,,,,,,0,,,63,127
135168,note_on,2,0,6,,,,,,,,,8,,,31,108
135262,note_on,94,0,1,,,,,,,,,11,,,63,0
135262,note_on,94,0,5,,,,,,,,,6,,,43,0
135262,note_on,94,0,4,,,,,,,,,4,,,55,0
135262,note_on,94,0,2,,,,,,,,,0,,,63,0
135262,note_on,94,0,6,,,,,,,,,8,,,31,0
135262,note_on,94,0,3,,,,,,,,,2,,,60,0
135264,note_on,2,0,5,,,,,,,,,6,,,43,108
135264,note_on,2,0,4,,,,,,,,,4,,,55,75
135264,note_on,2,0,3,,,,,,,,,2,,,58,127
135264,note_on,2,0,2,,,,,,,,,0,,,62,127
135264,note_on,2,0,6,,,,,,,,,8,,,31,108
135264,note_on,2,0,1,,,,,,,,,11,,,62,127
135310,note_on,46,0,3,,,,,,,,,2,,,58,0
135310,note_on,46,0,1,,,,,,,,,11,,,62,0
135310,note_on,46,0,2,,,,,,,,,0,,,62,0
135312,note_on,2,0,2,,,,,,,,,0,,,79,127
135312,note_on,2,0,1,,,,,,,,,11,,,79,127
135312,note_on,2,0,3,,,,,,,,,2,,,79,127
135358,note_on,94,0,4,,,,,,,,,4,,,55,0
135358,note_on,46,0,3,,,,,,,,,2,,,79,0
135358,note_on,46,0,2,,,,,,,,,0,,,79,0
135358,note_on,94,0,5,,,,,,,,,6,,,43,0
135358,note_on,94,0,6,,,,,,,,,8,,,31,0
135358,note_on,46,0,1,,,,,,,,,11,,,79,0
135360,note_on,2,0,1,,,,,,,,,11,,,82,127
135360,note_on,2,0,2,,,,,,,,,0,,,82,127
135360,note_on,2,0,3,,,,,,,,,2,,,82,127
135406,note_on,46,0,3,,,,,,,,,2,,,82,0
135406,note_on,46,0,1,,,,,,,,,11,,,82,0
135406,note_on,46,0,2,,,,,,,,,0,,,82,0
135408,note_on,50,0,5,,,,,,,,,6,,,46,108
135408,note_on,50,0,6,,,,,,,,,8,,,34,108
135408,note_on,50,0,4,,,,,,,,,4,,,62,75
135408,note_on,2,0,3,,,,,,,,,2,,,79,127
135408,note_on,2,0,1,,,,,,,,,11,,,79,127
135408,note_on,2,0,2,,,,,,,,,0,,,79,127
135454,note_on,46,0,4,,,,,,,,,4,,,62,0
135454,note_on,46,0,1,,,,,,,,,11,,,79,0
135454,note_on,46,0,6,,,,,,,,,8,,,34,0
135454,note_on,46,0,5,,,,,,,,,6,,,46,0
135454,note_on,46,0,2,,,,,,,,,0,,,79,0
135454,note_on,46,0,3,,,,,,,,,2,,,79,0
135456,note_on,2,0,6,,,,,,,,,8,,,36,108
135456,note_on,2,0,3,,,,,,,,,2,,,81,127
135456,note_on,2,0,2,,,,,,,,,0,,,81,127
135456,note_on,2,0,1,,,,,,,,,11,,,81,127
135456,note_on,2,0,4,,,,,,,,,4,,,63,75
135456,note_on,2,0,5,,,,,,,,,6,,,48,108
135502,note_on,46,0,6,,,,,,,,,8,,,36,0
135502,note_on,46,0,4,,,,,,,,,4,,,63,0
135502,note_on,46,0,2,,,,,,,,,0,,,81,0
135502,note_on,46,0,5,,,,,,,,,6,,,48,0
135502,note_on,46,0,3,,,,,,,,,2,,,81,0
135502,note_on,46,0,1,,,,,,,,,11,,,81,0
135504,note_on,2,0,1,,,,,,,,,11,,,78,127
135504,note_on,2,0,4,,,,,,,,,4,,,57,75
135504,end_of_track,0,1,0,,,,,,,,,,,,,
135504,note_on,2,0,3,,,,,,,,,2,,,78,127
135504,set_tempo,17232,1,0,666666,,,,,,,,,,,,
135504,note_on,2,0,6,,,,,,,,,8,,,38,108
135504,note_on,2,0,5,,,,,,,,,6,,,50,108
135504,note_on,2,0,2,,,,,,,,,0,,,78,127
135550,note_on,46,0,4,,,,,,,,,4,,,57,0
135550,note_on,46,0,6,,,,,,,,,8,,,38,0
135550,note_on,46,0,3,,,,,,,,,2,,,78,0
135550,note_on,46,0,2,,,,,,,,,0,,,78,0
135550,note_on,46,0,5,,,,,,,,,6,,,50,0
135550,note_on,46,0,1,,,,,,,,,11,,,78,0
135552,note_on,2,0,4,,,,,,,,,4,,,58,75
135552,note_on,2,0,2,,,,,,,,,0,,,79,127
135552,note_on,2,0,3,,,,,,,,,2,,,79,127
135552,note_on,2,0,1,,,,,,,,,11,,,79,127
135552,note_on,2,0,5,,,,,,,,,6,,,43,108
135552,note_on,2,0,6,,,,,,,,,8,,,31,108
135808,note_on,256,0,5,,,,,,,,,6,,,43,0
135808,note_on,256,0,2,,,,,,,,,0,,,79,0
135808,end_of_track,0,1,2,,,,,,,,,,,,,
135808,end_of_track,0,1,4,,,,,,,,,,,,,
135808,end_of_track,0,1,1,,,,,,,,,,,,,
135808,note_on,256,0,6,,,,,,,,,8,,,31,0
135808,note_on,256,0,1,,,,,,,,,11,,,79,0
135808,note_on,256,0,3,,,,,,,,,2,,,79,0
135808,end_of_track,0,1,3,,,,,,,,,,,,,
135808,end_of_track,0,1,5,,,,,,,,,,,,,
135808,end_of_track,0,1,6,,,,,,,,,,,,,
135808,note_on,256,0,4,,,,,,,,,4,,,58,0
