tick,type,time,meta,track,tempo,key,numerator,denominator,clocks_per_click,notated_32nd_notes_per_beat,port,program,channel,control,value,note,velocity
0,track_name,0,1,0,,,,,,,,,,,,,
0,control_change,0,0,5,,,,,,,,,4,10,64,,
0,midi_port,0,1,6,,,,,,,0,,,,,,
0,track_name,0,1,6,,,,,,,,,,,,,
0,program_change,0,0,6,,,,,,,,6,5,,,,
0,control_change,0,0,6,,,,,,,,,5,7,127,,
0,control_change,0,0,6,,,,,,,,,5,10,64,,
0,track_name,0,1,3,,,,,,,,,,,,,
0,midi_port,0,1,7,,,,,,,0,,,,,,
0,track_name,0,1,7,,,,,,,,,,,,,
0,program_change,0,0,7,,,,,,,,6,5,,,,
0,control_change,0,0,7,,,,,,,,,5,7,127,,
0,control_change,0,0,7,,,,,,,,,5,10,64,,
0,midi_port,0,1,8,,,,,,,0,,,,,,
0,track_name,0,1,8,,,,,,,,,,,,,
0,program_change,0,0,8,,,,,,,,42,7,,,,
0,control_change,0,0,5,,,,,,,,,4,7,127,,
0,control_change,0,0,8,,,,,,,,,7,7,127,,
0,program_change,0,0,5,,,,,,,,41,4,,,,
0,midi_port,0,1,5,,,,,,,0,,,,,,
0,program_change,0,0,3,,,,,,,,40,2,,,,
0,control_change,0,0,3,,,,,,,,,2,7,127,,
0,control_change,0,0,3,,,,,,,,,2,10,64,,
0,note_on,0,0,3,,,,,,,,,2,,,79,92
0,midi_port,0,1,4,,,,,,,0,,,,,,
0,track_name,0,1,4,,,,,,,,,,,,,
0,program_change,0,0,4,,,,,,,,40,3,,,,
0,control_change,0,0,4,,,,,,,,,3,7,127,,
0,control_change,0,0,4,,,,,,,,,3,10,64,,
0,note_on,0,0,4,,,,,,,,,3,,,79,92
0,control_change,0,0,2,,,,,,,,,1,10,64,,
0,control_change,0,0,2,,,,,,,,,1,7,127,,
0,program_change,0,0,2,,,,,,,,70,1,,,,
0,track_name,0,1,2,,,,,,,,,,,,,
0,midi_port,0,1,2,,,,,,,0,,,,,,
0,track_name,0,1,5,,,,,,,,,,,,,
0,control_change,0,0,8,,,,,,,,,7,10,64,,
0,midi_port,0,1,3,,,,,,,0,,,,,,
0,program_change,0,0,1,,,,,,,,68,0,,,,
0,note_on,0,0,1,,,,,,,,,0,,,79,92
0,time_signature,0,1,0,,,12,8,24,8,,,,,,,
0,key_signature,0,1,0,,G,,,,,,,,,,,
0,set_tempo,0,1,0,535714,,,,,,,,,,,,
0,text,0,1,0,,,,,,,,,,,,,
0,end_of_track,0,1,0,,,,,,,,,,,,,
0,midi_port,0,1,1,,,,,,,0,,,,,,
0,track_name,0,1,1,,,,,,,,,,,,,
0,control_change,0,0,1,,,,,,,,,0,7,127,,
0,control_change,0,0,1,,,,,,,,,0,10,64,,
94,note_on,94,0,3,,,,,,,,,2,,,79,0
94,note_on,94,0,1,,,,,,,,,0,,,79,0
94,note_on,94,0,4,,,,,,,,,3,,,79,0
96,note_on,2,0,1,,,,,,,,,0,,,67,92
96,note_on,2,0,3,,,,,,,,,2,,,67,92
96,note_on,2,0,4,,,,,,,,,3,,,67,92
190,note_on,94,0,3,,,,,,,,,2,,,67,0
190,note_on,94,0,1,,,,,,,,,0,,,67,0
190,note_on,94,0,4,,,,,,,,,3,,,67,0
192,note_on,2,0,1,,,,,,,,,0,,,67,92
192,note_on,2,0,4,,,,,,,,,3,,,67,92
192,note_on,2,0,3,,,,,,,,,2,,,67,92
286,note_on,94,0,3,,,,,,,,,2,,,67,0
286,note_on,94,0,1,,,,,,,,,0,,,67,0
286,note_on,94,0,4,,,,,,,,,3,,,67,0
288,note_on,2,0,1,,,,,,,,,0,,,79,92
288,note_on,2,0,3,,,,,,,,,2,,,79,92
288,note_on,2,0,4,,,,,,,,,3,,,79,92
382,note_on,94,0,3,,,,,,,,,2,,,79,0
382,note_on,94,0,4,,,,,,,,,3,,,79,0
382,note_on,94,0,1,,,,,,,,,0,,,79,0
384,note_on,2,0,3,,,,,,,,,2,,,67,92
384,note_on,2,0,4,,,,,,,,,3,,,67,92
384,note_on,2,0,1,,,,,,,,,0,,,67,92
478,note_on,94,0,3,,,,,,,,,2,,,67,0
478,note_on,94,0,4,,,,,,,,,3,,,67,0
478,note_on,94,0,1,,,,,,,,,0,,,67,0
480,note_on,2,0,4,,,,,,,,,3,,,67,92
480,note_on,2,0,3,,,,,,,,,2,,,67,92
480,note_on,2,0,1,,,,,,,,,0,,,67,92
574,note_on,94,0,1,,,,,,,,,0,,,67,0
574,note_on,94,0,4,,,,,,,,,3,,,67,0
574,note_on,94,0,3,,,,,,,,,2,,,67,0
576,note_on,576,0,8,,,,,,,,,7,,,55,92
576,note_on,2,0,3,,,,,,,,,2,,,67,92
576,note_on,0,0,6,,,,,,,,,5,,,67,92
576,note_on,0,0,6,,,,,,,,,5,,,62,92
576,note_on,576,0,6,,,,,,,,,5,,,59,92
576,note_on,2,0,4,,,,,,,,,3,,,67,92
576,note_on,2,0,1,,,,,,,,,0,,,67,92
576,note_on,576,0,2,,,,,,,,,1,,,55,92
576,note_on,576,0,7,,,,,,,,,5,,,55,92
576,note_on,576,0,5,,,,,,,,,4,,,67,92
670,note_on,94,0,8,,,,,,,,,7,,,55,0
670,note_on,94,0,2,,,,,,,,,1,,,55,0
670,note_on,94,0,5,,,,,,,,,4,,,67,0
670,note_on,94,0,7,,,,,,,,,5,,,55,0
672,note_on,2,0,5,,,,,,,,,4,,,55,92
672,note_on,2,0,2,,,,,,,,,1,,,43,92
672,note_on,2,0,7,,,,,,,,,5,,,43,92
672,note_on,2,0,8,,,,,,,,,7,,,43,92
766,note_on,94,0,2,,,,,,,,,1,,,43,0
766,note_on,94,0,7,,,,,,,,,5,,,43,0
766,note_on,94,0,5,,,,,,,,,4,,,55,0
766,note_on,94,0,8,,,,,,,,,7,,,43,0
768,note_on,2,0,7,,,,,,,,,5,,,43,92
768,note_on,2,0,5,,,,,,,,,4,,,55,92
768,note_on,2,0,2,,,,,,,,,1,,,43,92
768,note_on,2,0,8,,,,,,,,,7,,,43,92
832,note_on,256,0,1,,,,,,,,,0,,,67,0
832,note_on,256,0,4,,,,,,,,,3,,,67,0
832,note_on,0,0,6,,,,,,,,,5,,,67,0
832,note_on,0,0,6,,,,,,,,,5,,,62,0
832,note_on,256,0,3,,,,,,,,,2,,,67,0
832,note_on,256,0,6,,,,,,,,,5,,,59,0
862,note_on,94,0,5,,,,,,,,,4,,,55,0
862,note_on,94,0,7,,,,,,,,,5,,,43,0
862,note_on,94,0,2,,,,,,,,,1,,,43,0
862,note_on,94,0,8,,,,,,,,,7,,,43,0
864,note_on,32,0,3,,,,,,,,,2,,,76,92
864,note_on,32,0,4,,,,,,,,,3,,,72,92
864,note_on,2,0,2,,,,,,,,,1,,,55,92
864,note_on,2,0,5,,,,,,,,,4,,,67,92
864,note_on,0,0,6,,,,,,,,,5,,,67,92
864,note_on,2,0,8,,,,,,,,,7,,,55,92
864,note_on,32,0,6,,,,,,,,,5,,,64,92
864,note_on,32,0,1,,,,,,,,,0,,,76,92
864,note_on,2,0,7,,,,,,,,,5,,,55,92
864,note_on,0,0,6,,,,,,,,,5,,,72,92
958,note_on,94,0,7,,,,,,,,,5,,,55,0
958,note_on,94,0,2,,,,,,,,,1,,,55,0
958,note_on,94,0,5,,,,,,,,,4,,,67,0
958,note_on,94,0,8,,,,,,,,,7,,,55,0
960,note_on,2,0,2,,,,,,,,,1,,,43,92
960,note_on,2,0,7,,,,,,,,,5,,,43,92
960,note_on,2,0,8,,,,,,,,,7,,,43,92
960,note_on,2,0,5,,,,,,,,,4,,,55,92
1054,note_on,94,0,7,,,,,,,,,5,,,43,0
1054,note_on,94,0,8,,,,,,,,,7,,,43,0
1054,note_on,94,0,2,,,,,,,,,1,,,43,0
1054,note_on,94,0,5,,,,,,,,,4,,,55,0
1056,note_on,2,0,2,,,,,,,,,1,,,43,92
1056,note_on,2,0,5,,,,,,,,,4,,,55,92
1056,note_on,2,0,7,,,,,,,,,5,,,43,92
1056,note_on,2,0,8,,,,,,,,,7,,,43,92
1120,note_on,256,0,1,,,,,,,,,0,,,76,0
1120,note_on,0,0,6,,,,,,,,,5,,,72,0
1120,note_on,0,0,6,,,,,,,,,5,,,67,0
1120,note_on,256,0,6,,,,,,,,,5,,,64,0
1120,note_on,256,0,4,,,,,,,,,3,,,72,0
1120,note_on,256,0,3,,,,,,,,,2,,,76,0
1150,note_on,94,0,5,,,,,,,,,4,,,55,0
1150,note_on,94,0,8,,,,,,,,,7,,,43,0
1150,note_on,94,0,2,,,,,,,,,1,,,43,0
1150,note_on,94,0,7,,,,,,,,,5,,,43,0
1152,note_on,32,0,6,,,,,,,,,5,,,62,92
1152,note_on,32,0,3,,,,,,,,,2,,,74,92
1152,note_on,0,0,6,,,,,,,,,5,,,67,92
1152,note_on,0,0,6,,,,,,,,,5,,,71,92
1152,note_on,2,0,7,,,,,,,,,5,,,43,92
1152,note_on,32,0,1,,,,,,,,,0,,,74,92
1152,note_on,2,0,5,,,,,,,,,4,,,55,92
1152,note_on,32,0,4,,,,,,,,,3,,,71,92
1152,note_on,2,0,2,,,,,,,,,1,,,43,92
1152,note_on,2,0,8,,,,,,,,,7,,,43,92
1246,note_on,94,0,4,,,,,,,,,3,,,71,0
1246,note_on,94,0,1,,,,,,,,,0,,,74,0
1246,note_on,94,0,3,,,,,,,,,2,,,74,0
1248,note_on,2,0,1,,,,,,,,,0,,,67,92
1248,note_on,2,0,3,,,,,,,,,2,,,67,92
1248,note_on,2,0,4,,,,,,,,,3,,,67,92
1342,note_on,94,0,3,,,,,,,,,2,,,67,0
1342,note_on,94,0,1,,,,,,,,,0,,,67,0
1342,note_on,94,0,4,,,,,,,,,3,,,67,0
1344,note_on,2,0,1,,,,,,,,,0,,,67,92
1344,note_on,2,0,4,,,,,,,,,3,,,67,92
1344,note_on,2,0,3,,,,,,,,,2,,,67,92
1408,note_on,0,0,6,,,,,,,,,5,,,71,0
1408,note_on,256,0,5,,,,,,,,,4,,,55,0
1408,note_on,256,0,6,,,,,,,,,5,,,62,0
1408,note_on,256,0,2,,,,,,,,,1,,,43,0
1408,note_on,0,0,6,,,,,,,,,5,,,67,0
1408,note_on,256,0,7,,,,,,,,,5,,,43,0
1408,note_on,256,0,8,,,,,,,,,7,,,43,0
1438,note_on,94,0,1,,,,,,,,,0,,,67,0
1438,note_on,94,0,3,,,,,,,,,2,,,67,0
1438,note_on,94,0,4,,,,,,,,,3,,,67,0
1440,note_on,0,0,6,,,,,,,,,5,,,67,92
1440,note_on,32,0,2,,,,,,,,,1,,,43,92
1440,note_on,32,0,7,,,,,,,,,5,,,43,92
1440,note_on,0,0,6,,,,,,,,,5,,,71,92
1440,note_on,2,0,4,,,,,,,,,3,,,79,92
1440,note_on,32,0,8,,,,,,,,,7,,,43,92
1440,note_on,2,0,3,,,,,,,,,2,,,79,92
1440,note_on,32,0,5,,,,,,,,,4,,,55,92
1440,note_on,2,0,1,,,,,,,,,0,,,79,92
1440,note_on,32,0,6,,,,,,,,,5,,,62,92
1534,note_on,94,0,3,,,,,,,,,2,,,79,0
1534,note_on,94,0,4,,,,,,,,,3,,,79,0
1534,note_on,94,0,1,,,,,,,,,0,,,79,0
1536,note_on,2,0,3,,,,,,,,,2,,,67,92
1536,note_on,2,0,1,,,,,,,,,0,,,67,92
1536,note_on,2,0,4,,,,,,,,,3,,,67,92
1630,note_on,94,0,4,,,,,,,,,3,,,67,0
1630,note_on,94,0,1,,,,,,,,,0,,,67,0
1630,note_on,94,0,3,,,,,,,,,2,,,67,0
1632,note_on,2,0,1,,,,,,,,,0,,,67,92
1632,note_on,2,0,4,,,,,,,,,3,,,67,92
1632,note_on,2,0,3,,,,,,,,,2,,,67,92
1696,note_on,256,0,6,,,,,,,,,5,,,62,0
1696,note_on,0,0,6,,,,,,,,,5,,,71,0
1696,note_on,256,0,5,,,,,,,,,4,,,55,0
1696,note_on,256,0,2,,,,,,,,,1,,,43,0
1696,note_on,256,0,8,,,,,,,,,7,,,43,0
1696,note_on,0,0,6,,,,,,,,,5,,,67,0
1696,note_on,256,0,7,,,,,,,,,5,,,43,0
1726,note_on,94,0,4,,,,,,,,,3,,,67,0
1726,note_on,94,0,1,,,,,,,,,0,,,67,0
1726,note_on,94,0,3,,,,,,,,,2,,,67,0
1728,note_on,32,0,8,,,,,,,,,7,,,55,92
1728,note_on,32,0,2,,,,,,,,,1,,,55,92
1728,note_on,2,0,1,,,,,,,,,0,,,67,92
1728,note_on,32,0,7,,,,,,,,,5,,,55,92
1728,note_on,32,0,5,,,,,,,,,4,,,67,92
1728,note_on,2,0,3,,,,,,,,,2,,,67,92
1728,note_on,0,0,6,,,,,,,,,5,,,62,92
1728,note_on,0,0,6,,,,,,,,,5,,,67,92
1728,note_on,2,0,4,,,,,,,,,3,,,67,92
1728,note_on,32,0,6,,,,,,,,,5,,,59,92
1822,note_on,94,0,7,,,,,,,,,5,,,55,0
1822,note_on,94,0,8,,,,,,,,,7,,,55,0
1822,note_on,94,0,5,,,,,,,,,4,,,67,0
1822,note_on,94,0,2,,,,,,,,,1,,,55,0
1824,note_on,2,0,7,,,,,,,,,5,,,43,92
1824,note_on,2,0,2,,,,,,,,,1,,,43,92
1824,note_on,2,0,5,,,,,,,,,4,,,55,92
1824,note_on,2,0,8,,,,,,,,,7,,,43,92
1918,note_on,94,0,2,,,,,,,,,1,,,43,0
1918,note_on,94,0,7,,,,,,,,,5,,,43,0
1918,note_on,94,0,5,,,,,,,,,4,,,55,0
1918,note_on,94,0,8,,,,,,,,,7,,,43,0
1920,note_on,2,0,8,,,,,,,,,7,,,43,92
1920,note_on,2,0,5,,,,,,,,,4,,,55,92
1920,note_on,2,0,2,,,,,,,,,1,,,43,92
1920,note_on,2,0,7,,,,,,,,,5,,,43,92
1984,note_on,256,0,4,,,,,,,,,3,,,67,0
1984,note_on,256,0,3,,,,,,,,,2,,,67,0
1984,note_on,0,0,6,,,,,,,,,5,,,67,0
1984,note_on,0,0,6,,,,,,,,,5,,,62,0
1984,note_on,256,0,6,,,,,,,,,5,,,59,0
1984,note_on,256,0,1,,,,,,,,,0,,,67,0
2014,note_on,94,0,5,,,,,,,,,4,,,55,0
2014,note_on,94,0,7,,,,,,,,,5,,,43,0
2014,note_on,94,0,2,,,,,,,,,1,,,43,0
2014,note_on,94,0,8,,,,,,,,,7,,,43,0
2016,note_on,2,0,7,,,,,,,,,5,,,55,92
2016,note_on,0,0,6,,,,,,,,,5,,,72,92
2016,note_on,0,0,6,,,,,,,,,5,,,67,92
2016,note_on,32,0,3,,,,,,,,,2,,,76,92
2016,note_on,2,0,8,,,,,,,,,7,,,55,92
2016,note_on,2,0,2,,,,,,,,,1,,,55,92
2016,note_on,32,0,6,,,,,,,,,5,,,64,92
2016,note_on,32,0,4,,,,,,,,,3,,,72,92
2016,note_on,2,0,5,,,,,,,,,4,,,67,92
2016,note_on,32,0,1,,,,,,,,,0,,,76,92
2110,note_on,94,0,5,,,,,,,,,4,,,67,0
2110,note_on,94,0,2,,,,,,,,,1,,,55,0
2110,note_on,94,0,7,,,,,,,,,5,,,55,0
2110,note_on,94,0,8,,,,,,,,,7,,,55,0
2112,note_on,2,0,2,,,,,,,,,1,,,43,92
2112,note_on,2,0,7,,,,,,,,,5,,,43,92
2112,note_on,2,0,5,,,,,,,,,4,,,55,92
2112,note_on,2,0,8,,,,,,,,,7,,,43,92
2206,note_on,94,0,5,,,,,,,,,4,,,55,0
2206,note_on,94,0,2,,,,,,,,,1,,,43,0
2206,note_on,94,0,8,,,,,,,,,7,,,43,0
2206,note_on,94,0,7,,,,,,,,,5,,,43,0
2208,note_on,2,0,7,,,,,,,,,5,,,43,92
2208,note_on,2,0,2,,,,,,,,,1,,,43,92
2208,note_on,2,0,8,,,,,,,,,7,,,43,92
2208,note_on,2,0,5,,,,,,,,,4,,,55,92
2272,note_on,256,0,3,,,,,,,,,2,,,76,0
2272,note_on,256,0,6,,,,,,,,,5,,,64,0
2272,note_on,0,0,6,,,,,,,,,5,,,67,0
2272,note_on,0,0,6,,,,,,,,,5,,,72,0
2272,note_on,256,0,4,,,,,,,,,3,,,72,0
2272,note_on,256,0,1,,,,,,,,,0,,,76,0
2302,note_on,94,0,2,,,,,,,,,1,,,43,0
2302,note_on,94,0,8,,,,,,,,,7,,,43,0
2302,note_on,94,0,7,,,,,,,,,5,,,43,0
2302,note_on,94,0,5,,,,,,,,,4,,,55,0
2304,note_on,0,0,6,,,,,,,,,5,,,67,92
2304,note_on,32,0,3,,,,,,,,,2,,,74,92
2304,note_on,32,0,1,,,,,,,,,0,,,74,92
2304,note_on,2,0,5,,,,,,,,,4,,,55,92
2304,note_on,0,0,6,,,,,,,,,5,,,71,92
2304,note_on,2,0,7,,,,,,,,,5,,,43,92
2304,note_on,2,0,8,,,,,,,,,7,,,43,92
2304,note_on,32,0,6,,,,,,,,,5,,,62,92
2304,note_on,2,0,2,,,,,,,,,1,,,43,92
2304,note_on,32,0,4,,,,,,,,,3,,,71,92
2398,note_on,94,0,7,,,,,,,,,5,,,43,0
2398,note_on,94,0,5,,,,,,,,,4,,,55,0
2398,note_on,94,0,4,,,,,,,,,3,,,71,0
2398,note_on,94,0,3,,,,,,,,,2,,,74,0
2398,note_on,94,0,8,,,,,,,,,7,,,43,0
2398,note_on,94,0,1,,,,,,,,,0,,,74,0
2398,note_on,94,0,2,,,,,,,,,1,,,43,0
2400,note_on,2,0,7,,,,,,,,,5,,,55,92
2400,note_on,2,0,8,,,,,,,,,7,,,55,92
2400,note_on,2,0,3,,,,,,,,,2,,,79,92
2400,note_on,2,0,2,,,,,,,,,1,,,55,92
2400,note_on,2,0,1,,,,,,,,,0,,,79,92
2400,note_on,2,0,4,,,,,,,,,3,,,74,92
2400,note_on,2,0,5,,,,,,,,,4,,,67,92
2494,note_on,94,0,2,,,,,,,,,1,,,55,0
2494,note_on,94,0,5,,,,,,,,,4,,,67,0
2494,note_on,94,0,4,,,,,,,,,3,,,74,0
2494,note_on,94,0,1,,,,,,,,,0,,,79,0
2494,note_on,94,0,3,,,,,,,,,2,,,79,0
2494,note_on,94,0,8,,,,,,,,,7,,,55,0
2494,note_on,94,0,7,,,,,,,,,5,,,55,0
2496,note_on,2,0,3,,,,,,,,,2,,,83,92
2496,note_on,2,0,7,,,,,,,,,5,,,43,92
2496,note_on,2,0,4,,,,,,,,,3,,,79,92
2496,note_on,2,0,2,,,,,,,,,1,,,43,92
2496,note_on,2,0,8,,,,,,,,,7,,,43,92
2496,note_on,2,0,5,,,,,,,,,4,,,55,92
2496,note_on,2,0,1,,,,,,,,,0,,,83,92
2560,note_on,0,0,6,,,,,,,,,5,,,71,0
2560,note_on,0,0,6,,,,,,,,,5,,,67,0
2560,note_on,256,0,6,,,,,,,,,5,,,62,0
2590,note_on,94,0,4,,,,,,,,,3,,,79,0
2590,note_on,94,0,7,,,,,,,,,5,,,43,0
2590,note_on,94,0,1,,,,,,,,,0,,,83,0
2590,note_on,94,0,8,,,,,,,,,7,,,43,0
2590,note_on,94,0,3,,,,,,,,,2,,,83,0
2590,note_on,94,0,5,,,,,,,,,4,,,55,0
2590,note_on,94,0,2,,,,,,,,,1,,,43,0
2592,note_on,0,0,6,,,,,,,,,5,,,71,92
2592,note_on,2,0,3,,,,,,,,,2,,,74,92
2592,note_on,2,0,4,,,,,,,,,3,,,71,92
2592,note_on,2,0,8,,,,,,,,,7,,,43,92
2592,note_on,0,0,6,,,,,,,,,5,,,67,92
2592,note_on,2,0,7,,,,,,,,,5,,,43,92
2592,note_on,2,0,2,,,,,,,,,1,,,43,92
2592,note_on,2,0,1,,,,,,,,,0,,,74,92
2592,note_on,2,0,5,,,,,,,,,4,,,55,92
2592,note_on,32,0,6,,,,,,,,,5,,,62,92
2686,note_on,94,0,1,,,,,,,,,0,,,74,0
2686,note_on,94,0,4,,,,,,,,,3,,,71,0
2686,note_on,94,0,3,,,,,,,,,2,,,74,0
2688,note_on,2,0,1,,,,,,,,,0,,,79,92
2688,note_on,2,0,4,,,,,,,,,3,,,74,92
2688,note_on,2,0,3,,,,,,,,,2,,,79,92
2752,note_on,160,0,2,,,,,,,,,1,,,43,0
2752,note_on,160,0,8,,,,,,,,,7,,,43,0
2752,note_on,160,0,7,,,,,,,,,5,,,43,0
2752,note_on,160,0,5,,,,,,,,,4,,,55,0
2782,note_on,94,0,3,,,,,,,,,2,,,79,0
2782,note_on,94,0,4,,,,,,,,,3,,,74,0
2782,note_on,94,0,1,,,,,,,,,0,,,79,0
2784,note_on,2,0,3,,,,,,,,,2,,,83,92
2784,note_on,2,0,4,,,,,,,,,3,,,79,92
2784,note_on,2,0,1,,,,,,,,,0,,,83,92
2848,note_on,0,0,6,,,,,,,,,5,,,67,0
2848,note_on,0,0,6,,,,,,,,,5,,,71,0
2848,note_on,256,0,6,,,,,,,,,5,,,62,0
2878,note_on,94,0,4,,,,,,,,,3,,,79,0
2878,note_on,94,0,1,,,,,,,,,0,,,83,0
2878,note_on,94,0,3,,,,,,,,,2,,,83,0
2880,note_on,128,0,5,,,,,,,,,4,,,62,92
2880,note_on,2,0,3,,,,,,,,,2,,,72,92
2880,note_on,128,0,2,,,,,,,,,1,,,50,92
2880,note_on,2,0,1,,,,,,,,,0,,,72,92
2880,note_on,128,0,8,,,,,,,,,7,,,50,92
2880,note_on,0,0,6,,,,,,,,,5,,,69,92
2880,note_on,2,0,4,,,,,,,,,3,,,69,92
2880,note_on,32,0,6,,,,,,,,,5,,,62,92
2880,note_on,0,0,6,,,,,,,,,5,,,66,92
2880,note_on,128,0,7,,,,,,,,,5,,,50,92
2974,note_on,94,0,8,,,,,,,,,7,,,50,0
2974,note_on,94,0,4,,,,,,,,,3,,,69,0
2974,note_on,94,0,5,,,,,,,,,4,,,62,0
2974,note_on,94,0,1,,,,,,,,,0,,,72,0
2974,note_on,94,0,2,,,,,,,,,1,,,50,0
2974,note_on,94,0,3,,,,,,,,,2,,,72,0
2974,note_on,94,0,7,,,,,,,,,5,,,50,0
2976,note_on,2,0,4,,,,,,,,,3,,,72,92
2976,note_on,2,0,8,,,,,,,,,7,,,62,92
2976,note_on,2,0,5,,,,,,,,,4,,,74,92
2976,note_on,2,0,7,,,,,,,,,5,,,62,92
2976,note_on,2,0,3,,,,,,,,,2,,,78,92
2976,note_on,2,0,2,,,,,,,,,1,,,62,92
2976,note_on,2,0,1,,,,,,,,,0,,,78,92
3070,note_on,94,0,2,,,,,,,,,1,,,62,0
3070,note_on,94,0,4,,,,,,,,,3,,,72,0
3070,note_on,94,0,1,,,,,,,,,0,,,78,0
3070,note_on,94,0,8,,,,,,,,,7,,,62,0
3070,note_on,94,0,3,,,,,,,,,2,,,78,0
3070,note_on,94,0,5,,,,,,,,,4,,,74,0
3070,note_on,94,0,7,,,,,,,,,5,,,62,0
3072,note_on,2,0,8,,,,,,,,,7,,,50,92
3072,note_on,2,0,5,,,,,,,,,4,,,62,92
3072,note_on,2,0,1,,,,,,,,,0,,,81,92
3072,note_on,2,0,2,,,,,,,,,1,,,50,92
3072,note_on,2,0,3,,,,,,,,,2,,,81,92
3072,note_on,2,0,4,,,,,,,,,3,,,78,92
3072,note_on,2,0,7,,,,,,,,,5,,,50,92
3136,note_on,0,0,6,,,,,,,,,5,,,66,0
3136,note_on,256,0,6,,,,,,,,,5,,,62,0
3136,note_on,0,0,6,,,,,,,,,5,,,69,0
3166,note_on,94,0,4,,,,,,,,,3,,,78,0
3166,note_on,94,0,2,,,,,,,,,1,,,50,0
3166,note_on,94,0,5,,,,,,,,,4,,,62,0
3166,note_on,94,0,1,,,,,,,,,0,,,81,0
3166,note_on,94,0,8,,,,,,,,,7,,,50,0
3166,note_on,94,0,3,,,,,,,,,2,,,81,0
3166,note_on,94,0,7,,,,,,,,,5,,,50,0
3168,note_on,2,0,3,,,,,,,,,2,,,72,92
3168,note_on,2,0,4,,,,,,,,,3,,,69,92
3168,note_on,0,0,6,,,,,,,,,5,,,69,92
3168,note_on,0,0,6,,,,,,,,,5,,,66,92
3168,note_on,2,0,7,,,,,,,,,5,,,50,92
3168,note_on,2,0,8,,,,,,,,,7,,,50,92
3168,note_on,2,0,5,,,,,,,,,4,,,62,92
3168,note_on,2,0,2,,,,,,,,,1,,,50,92
3168,note_on,2,0,1,,,,,,,,,0,,,72,92
3168,note_on,32,0,6,,,,,,,,,5,,,62,92
3262,note_on,94,0,4,,,,,,,,,3,,,69,0
3262,note_on,94,0,1,,,,,,,,,0,,,72,0
3262,note_on,94,0,3,,,,,,,,,2,,,72,0
3264,note_on,2,0,1,,,,,,,,,0,,,78,92
3264,note_on,2,0,3,,,,,,,,,2,,,78,92
3264,note_on,2,0,4,,,,,,,,,3,,,72,92
3328,note_on,160,0,2,,,,,,,,,1,,,50,0
3328,note_on,160,0,6,,,,,,,,,5,,,62,0
3328,note_on,0,0,6,,,,,,,,,5,,,66,0
3328,note_on,0,0,6,,,,,,,,,5,,,69,0
3328,note_on,160,0,8,,,,,,,,,7,,,50,0
3328,note_on,160,0,7,,,,,,,,,5,,,50,0
3328,note_on,160,0,5,,,,,,,,,4,,,62,0
3358,note_on,94,0,1,,,,,,,,,0,,,78,0
3358,note_on,94,0,3,,,,,,,,,2,,,78,0
3358,note_on,94,0,4,,,,,,,,,3,,,72,0
3360,note_on,2,0,4,,,,,,,,,3,,,78,92
3360,note_on,2,0,1,,,,,,,,,0,,,81,92
3360,note_on,2,0,3,,,,,,,,,2,,,81,92
3454,note_on,94,0,4,,,,,,,,,3,,,78,0
3454,note_on,94,0,3,,,,,,,,,2,,,81,0
3454,note_on,94,0,1,,,,,,,,,0,,,81,0
3456,note_on,0,0,6,,,,,,,,,5,,,67,92
3456,note_on,128,0,8,,,,,,,,,7,,,43,92
3456,note_on,2,0,1,,,,,,,,,0,,,71,92
3456,note_on,128,0,5,,,,,,,,,4,,,55,92
3456,note_on,128,0,2,,,,,,,,,1,,,43,92
3456,note_on,128,0,7,,,,,,,,,5,,,43,92
3456,note_on,2,0,3,,,,,,,,,2,,,71,92
3456,note_on,128,0,6,,,,,,,,,5,,,62,92
3456,note_on,0,0,6,,,,,,,,,5,,,71,92
3456,note_on,2,0,4,,,,,,,,,3,,,67,92
3550,note_on,94,0,1,,,,,,,,,0,,,71,0
3550,note_on,94,0,8,,,,,,,,,7,,,43,0
3550,note_on,94,0,2,,,,,,,,,1,,,43,0
3550,note_on,94,0,4,,,,,,,,,3,,,67,0
3550,note_on,94,0,3,,,,,,,,,2,,,71,0
3550,note_on,94,0,7,,,,,,,,,5,,,43,0
3550,note_on,94,0,5,,,,,,,,,4,,,55,0
3552,note_on,2,0,2,,,,,,,,,1,,,55,92
3552,note_on,2,0,1,,,,,,,,,0,,,74,92
3552,note_on,2,0,5,,,,,,,,,4,,,67,92
3552,note_on,2,0,4,,,,,,,,,3,,,71,92
3552,note_on,2,0,3,,,,,,,,,2,,,74,92
3552,note_on,2,0,7,,,,,,,,,5,,,55,92
3552,note_on,2,0,8,,,,,,,,,7,,,55,92
3646,note_on,94,0,1,,,,,,,,,0,,,74,0
3646,note_on,94,0,2,,,,,,,,,1,,,55,0
3646,note_on,94,0,7,,,,,,,,,5,,,55,0
3646,note_on,94,0,3,,,,,,,,,2,,,74,0
3646,note_on,94,0,4,,,,,,,,,3,,,71,0
3646,note_on,94,0,8,,,,,,,,,7,,,55,0
3646,note_on,94,0,5,,,,,,,,,4,,,67,0
3648,note_on,2,0,5,,,,,,,,,4,,,55,92
3648,note_on,2,0,7,,,,,,,,,5,,,43,92
3648,note_on,2,0,2,,,,,,,,,1,,,43,92
3648,note_on,2,0,8,,,,,,,,,7,,,43,92
3648,note_on,2,0,4,,,,,,,,,3,,,74,92
3648,note_on,2,0,3,,,,,,,,,2,,,79,92
3648,note_on,2,0,1,,,,,,,,,0,,,79,92
3712,note_on,0,0,6,,,,,,,,,5,,,67,0
3712,note_on,256,0,6,,,,,,,,,5,,,62,0
3712,note_on,0,0,6,,,,,,,,,5,,,71,0
3742,note_on,94,0,8,,,,,,,,,7,,,43,0
3742,note_on,94,0,7,,,,,,,,,5,,,43,0
3742,note_on,94,0,3,,,,,,,,,2,,,79,0
3742,note_on,94,0,2,,,,,,,,,1,,,43,0
3742,note_on,94,0,1,,,,,,,,,0,,,79,0
3742,note_on,94,0,4,,,,,,,,,3,,,74,0
3742,note_on,94,0,5,,,,,,,,,4,,,55,0
3744,note_on,2,0,1,,,,,,,,,0,,,71,92
3744,note_on,2,0,3,,,,,,,,,2,,,71,92
3744,note_on,2,0,8,,,,,,,,,7,,,43,92
3744,note_on,2,0,7,,,,,,,,,5,,,43,92
3744,note_on,0,0,6,,,,,,,,,5,,,71,92
3744,note_on,2,0,4,,,,,,,,,3,,,67,92
3744,note_on,2,0,2,,,,,,,,,1,,,43,92
3744,note_on,32,0,6,,,,,,,,,5,,,62,92
3744,note_on,2,0,5,,,,,,,,,4,,,55,92
3744,note_on,0,0,6,,,,,,,,,5,,,67,92
3838,note_on,94,0,3,,,,,,,,,2,,,71,0
3838,note_on,94,0,1,,,,,,,,,0,,,71,0
3838,note_on,94,0,4,,,,,,,,,3,,,67,0
3840,note_on,2,0,3,,,,,,,,,2,,,74,92
3840,note_on,2,0,1,,,,,,,,,0,,,74,92
3840,note_on,2,0,4,,,,,,,,,3,,,71,92
3904,note_on,0,0,6,,,,,,,,,5,,,71,0
3904,note_on,160,0,7,,,,,,,,,5,,,43,0
3904,note_on,160,0,6,,,,,,,,,5,,,62,0
3904,note_on,160,0,2,,,,,,,,,1,,,43,0
3904,note_on,0,0,6,,,,,,,,,5,,,67,0
3904,note_on,160,0,8,,,,,,,,,7,,,43,0
3904,note_on,160,0,5,,,,,,,,,4,,,55,0
3934,note_on,94,0,4,,,,,,,,,3,,,71,0
3934,note_on,94,0,3,,,,,,,,,2,,,74,0
3934,note_on,94,0,1,,,,,,,,,0,,,74,0
3936,note_on,2,0,3,,,,,,,,,2,,,79,92
3936,note_on,2,0,4,,,,,,,,,3,,,74,92
3936,note_on,2,0,1,,,,,,,,,0,,,79,92
4030,note_on,94,0,3,,,,,,,,,2,,,79,0
4030,note_on,94,0,1,,,,,,,,,0,,,79,0
4030,note_on,94,0,4,,,,,,,,,3,,,74,0
4032,note_on,2,0,3,,,,,,,,,2,,,69,92
4032,note_on,128,0,2,,,,,,,,,1,,,62,92
4032,note_on,0,0,6,,,,,,,,,5,,,74,92
4032,note_on,0,0,6,,,,,,,,,5,,,69,92
4032,note_on,128,0,6,,,,,,,,,5,,,66,92
4032,note_on,128,0,8,,,,,,,,,7,,,62,92
4032,note_on,2,0,1,,,,,,,,,0,,,69,92
4032,note_on,2,0,4,,,,,,,,,3,,,66,92
4032,note_on,128,0,5,,,,,,,,,4,,,74,92
4032,note_on,128,0,7,,,,,,,,,5,,,62,92
4126,note_on,94,0,2,,,,,,,,,1,,,62,0
4126,note_on,94,0,7,,,,,,,,,5,,,62,0
4126,note_on,94,0,5,,,,,,,,,4,,,74,0
4126,note_on,94,0,8,,,,,,,,,7,,,62,0
4128,note_on,2,0,8,,,,,,,,,7,,,50,92
4128,note_on,2,0,2,,,,,,,,,1,,,50,92
4128,note_on,2,0,5,,,,,,,,,4,,,62,92
4128,note_on,2,0,7,,,,,,,,,5,,,50,92
4222,note_on,94,0,7,,,,,,,,,5,,,50,0
4222,note_on,94,0,8,,,,,,,,,7,,,50,0
4222,note_on,94,0,2,,,,,,,,,1,,,50,0
4222,note_on,94,0,5,,,,,,,,,4,,,62,0
4224,note_on,2,0,8,,,,,,,,,7,,,50,92
4224,note_on,2,0,7,,,,,,,,,5,,,50,92
4224,note_on,2,0,5,,,,,,,,,4,,,62,92
4224,note_on,2,0,2,,,,,,,,,1,,,50,92
4288,note_on,0,0,6,,,,,,,,,5,,,69,0
4288,note_on,256,0,6,,,,,,,,,5,,,66,0
4288,note_on,256,0,4,,,,,,,,,3,,,66,0
4288,note_on,256,0,3,,,,,,,,,2,,,69,0
4288,note_on,256,0,1,,,,,,,,,0,,,69,0
4288,note_on,0,0,6,,,,,,,,,5,,,74,0
4318,note_on,94,0,2,,,,,,,,,1,,,50,0
4318,note_on,94,0,5,,,,,,,,,4,,,62,0
4318,note_on,94,0,7,,,,,,,,,5,,,50,0
4318,note_on,94,0,8,,,,,,,,,7,,,50,0
4320,note_on,32,0,6,,,,,,,,,5,,,66,92
4320,note_on,0,0,6,,,,,,,,,5,,,69,92
4320,note_on,0,0,6,,,,,,,,,5,,,74,92
4320,note_on,2,0,2,,,,,,,,,1,,,62,92
4320,note_on,2,0,5,,,,,,,,,4,,,74,92
4320,note_on,2,0,8,,,,,,,,,7,,,62,92
4320,note_on,2,0,7,,,,,,,,,5,,,62,92
4414,note_on,94,0,2,,,,,,,,,1,,,62,0
4414,note_on,94,0,7,,,,,,,,,5,,,62,0
4414,note_on,94,0,8,,,,,,,,,7,,,62,0
4414,note_on,94,0,5,,,,,,,,,4,,,74,0
4416,note_on,2,0,7,,,,,,,,,5,,,50,92
4416,note_on,2,0,8,,,,,,,,,7,,,50,92
4416,note_on,2,0,5,,,,,,,,,4,,,62,92
4416,note_on,2,0,2,,,,,,,,,1,,,50,92
4510,note_on,94,0,7,,,,,,,,,5,,,50,0
4510,note_on,94,0,5,,,,,,,,,4,,,62,0
4510,note_on,94,0,8,,,,,,,,,7,,,50,0
4510,note_on,94,0,2,,,,,,,,,1,,,50,0
4512,note_on,224,0,3,,,,,,,,,2,,,86,92
4512,note_on,2,0,8,,,,,,,,,7,,,50,92
4512,note_on,2,0,5,,,,,,,,,4,,,62,92
4512,note_on,2,0,7,,,,,,,,,5,,,50,92
4512,note_on,2,0,2,,,,,,,,,1,,,50,92
4512,note_on,224,0,1,,,,,,,,,0,,,86,92
4576,note_on,256,0,6,,,,,,,,,5,,,66,0
4576,note_on,0,0,6,,,,,,,,,5,,,74,0
4576,note_on,0,0,6,,,,,,,,,5,,,69,0
4606,note_on,94,0,8,,,,,,,,,7,,,50,0
4606,note_on,94,0,7,,,,,,,,,5,,,50,0
4606,note_on,94,0,1,,,,,,,,,0,,,86,0
4606,note_on,94,0,3,,,,,,,,,2,,,86,0
4606,note_on,94,0,5,,,,,,,,,4,,,62,0
4606,note_on,94,0,2,,,,,,,,,1,,,50,0
4608,note_on,2,0,2,,,,,,,,,1,,,50,92
4608,note_on,32,0,6,,,,,,,,,5,,,66,92
4608,note_on,2,0,7,,,,,,,,,5,,,50,92
4608,note_on,2,0,3,,,,,,,,,2,,,86,92
4608,note_on,2,0,5,,,,,,,,,4,,,66,92
4608,note_on,2,0,8,,,,,,,,,7,,,50,92
4608,note_on,0,0,6,,,,,,,,,5,,,74,92
4608,note_on,2,0,1,,,,,,,,,0,,,86,92
4608,note_on,0,0,6,,,,,,,,,5,,,69,92
4656,note_on,48,0,2,,,,,,,,,1,,,50,0
4656,note_on,0,0,2,,,,,,,,,1,,,52,92
4656,note_on,0,0,7,,,,,,,,,5,,,52,92
4656,note_on,48,0,8,,,,,,,,,7,,,50,0
4656,note_on,0,0,8,,,,,,,,,7,,,52,92
4656,note_on,48,0,7,,,,,,,,,5,,,50,0
4656,note_on,48,0,5,,,,,,,,,4,,,66,0
4656,note_on,0,0,5,,,,,,,,,4,,,67,92
4702,note_on,94,0,3,,,,,,,,,2,,,86,0
4702,note_on,94,0,1,,,,,,,,,0,,,86,0
4704,note_on,48,0,2,,,,,,,,,1,,,52,0
4704,note_on,0,0,2,,,,,,,,,1,,,54,92
4704,note_on,0,0,8,,,,,,,,,7,,,54,92
4704,note_on,48,0,7,,,,,,,,,5,,,52,0
4704,note_on,48,0,8,,,,,,,,,7,,,52,0
4704,note_on,48,0,5,,,,,,,,,4,,,67,0
4704,note_on,0,0,5,,,,,,,,,4,,,69,92
4704,note_on,0,0,7,,,,,,,,,5,,,54,92
4704,note_on,2,0,3,,,,,,,,,2,,,74,92
4704,note_on,2,0,1,,,,,,,,,0,,,74,92
4798,note_on,94,0,2,,,,,,,,,1,,,54,0
4798,note_on,94,0,8,,,,,,,,,7,,,54,0
4798,note_on,94,0,3,,,,,,,,,2,,,74,0
4798,note_on,94,0,5,,,,,,,,,4,,,69,0
4798,note_on,94,0,7,,,,,,,,,5,,,54,0
4798,note_on,94,0,1,,,,,,,,,0,,,74,0
4800,note_on,2,0,1,,,,,,,,,0,,,74,92
4800,note_on,2,0,7,,,,,,,,,5,,,50,92
4800,note_on,2,0,8,,,,,,,,,7,,,50,92
4800,note_on,2,0,2,,,,,,,,,1,,,50,92
4800,note_on,2,0,5,,,,,,,,,4,,,66,92
4800,note_on,2,0,3,,,,,,,,,2,,,74,92
4864,note_on,256,0,6,,,,,,,,,5,,,66,0
4864,note_on,0,0,6,,,,,,,,,5,,,74,0
4864,note_on,0,0,6,,,,,,,,,5,,,69,0
4894,note_on,94,0,3,,,,,,,,,2,,,74,0
4894,note_on,94,0,2,,,,,,,,,1,,,50,0
4894,note_on,94,0,1,,,,,,,,,0,,,74,0
4894,note_on,94,0,8,,,,,,,,,7,,,50,0
4894,note_on,94,0,7,,,,,,,,,5,,,50,0
4894,note_on,94,0,5,,,,,,,,,4,,,66,0
4896,note_on,2,0,3,,,,,,,,,2,,,86,92
4896,note_on,2,0,1,,,,,,,,,0,,,86,92
4990,note_on,94,0,3,,,,,,,,,2,,,86,0
4990,note_on,94,0,1,,,,,,,,,0,,,86,0
4992,note_on,2,0,1,,,,,,,,,0,,,74,92
4992,note_on,2,0,3,,,,,,,,,2,,,74,92
5086,note_on,94,0,1,,,,,,,,,0,,,74,0
5086,note_on,94,0,3,,,,,,,,,2,,,74,0
5088,note_on,2,0,1,,,,,,,,,0,,,74,92
5088,note_on,2,0,3,,,,,,,,,2,,,74,92
5088,note_on,800,0,4,,,,,,,,,3,,,86,92
5182,note_on,94,0,3,,,,,,,,,2,,,74,0
5182,note_on,94,0,1,,,,,,,,,0,,,74,0
5182,note_on,94,0,4,,,,,,,,,3,,,86,0
5184,note_on,290,0,8,,,,,,,,,7,,,50,92
5184,note_on,2,0,3,,,,,,,,,2,,,74,92
5184,note_on,290,0,7,,,,,,,,,5,,,50,92
5184,note_on,2,0,1,,,,,,,,,0,,,74,92
5184,note_on,0,0,6,,,,,,,,,5,,,74,92
5184,note_on,290,0,5,,,,,,,,,4,,,66,92
5184,note_on,0,0,6,,,,,,,,,5,,,69,92
5184,note_on,290,0,2,,,,,,,,,1,,,50,92
5184,note_on,2,0,4,,,,,,,,,3,,,86,92
5184,note_on,320,0,6,,,,,,,,,5,,,66,92
5232,note_on,48,0,7,,,,,,,,,5,,,50,0
5232,note_on,48,0,8,,,,,,,,,7,,,50,0
5232,note_on,0,0,5,,,,,,,,,4,,,67,92
5232,note_on,48,0,5,,,,,,,,,4,,,66,0
5232,note_on,0,0,8,,,,,,,,,7,,,52,92
5232,note_on,48,0,2,,,,,,,,,1,,,50,0
5232,note_on,0,0,2,,,,,,,,,1,,,52,92
5232,note_on,0,0,7,,,,,,,,,5,,,52,92
5278,note_on,94,0,4,,,,,,,,,3,,,86,0
5280,note_on,48,0,8,,,,,,,,,7,,,52,0
5280,note_on,48,0,7,,,,,,,,,5,,,52,0
5280,note_on,0,0,7,,,,,,,,,5,,,54,92
5280,note_on,48,0,2,,,,,,,,,1,,,52,0
5280,note_on,2,0,4,,,,,,,,,3,,,74,92
5280,note_on,48,0,5,,,,,,,,,4,,,67,0
5280,note_on,0,0,5,,,,,,,,,4,,,69,92
5280,note_on,0,0,8,,,,,,,,,7,,,54,92
5280,note_on,0,0,2,,,,,,,,,1,,,54,92
5374,note_on,94,0,8,,,,,,,,,7,,,54,0
5374,note_on,94,0,7,,,,,,,,,5,,,54,0
5374,note_on,94,0,2,,,,,,,,,1,,,54,0
5374,note_on,94,0,4,,,,,,,,,3,,,74,0
5374,note_on,94,0,5,,,,,,,,,4,,,69,0
5376,note_on,2,0,5,,,,,,,,,4,,,66,92
5376,note_on,2,0,2,,,,,,,,,1,,,50,92
5376,note_on,2,0,7,,,,,,,,,5,,,50,92
5376,note_on,2,0,8,,,,,,,,,7,,,50,92
5376,note_on,2,0,4,,,,,,,,,3,,,74,92
5440,note_on,0,0,6,,,,,,,,,5,,,69,0
5440,note_on,256,0,6,,,,,,,,,5,,,66,0
5440,note_on,256,0,3,,,,,,,,,2,,,74,0
5440,note_on,0,0,6,,,,,,,,,5,,,74,0
5440,note_on,256,0,1,,,,,,,,,0,,,74,0
5470,note_on,94,0,8,,,,,,,,,7,,,50,0
5470,note_on,94,0,7,,,,,,,,,5,,,50,0
5470,note_on,94,0,5,,,,,,,,,4,,,66,0
5470,note_on,94,0,4,,,,,,,,,3,,,74,0
5470,note_on,94,0,2,,,,,,,,,1,,,50,0
5472,note_on,32,0,3,,,,,,,,,2,,,86,92
5472,note_on,2,0,4,,,,,,,,,3,,,86,92
5472,note_on,32,0,1,,,,,,,,,0,,,86,92
5566,note_on,94,0,4,,,,,,,,,3,,,86,0
5568,note_on,2,0,4,,,,,,,,,3,,,74,92
5662,note_on,94,0,4,,,,,,,,,3,,,74,0
5664,note_on,2,0,4,,,,,,,,,3,,,74,92
5728,note_on,256,0,1,,,,,,,,,0,,,86,0
5728,note_on,256,0,3,,,,,,,,,2,,,86,0
5758,note_on,94,0,4,,,,,,,,,3,,,74,0
5760,note_on,2,0,4,,,,,,,,,3,,,74,92
5760,note_on,290,0,2,,,,,,,,,1,,,50,92
5760,note_on,32,0,3,,,,,,,,,2,,,84,92
5760,note_on,0,0,6,,,,,,,,,5,,,72,92
5760,note_on,290,0,5,,,,,,,,,4,,,66,92
5760,note_on,0,0,6,,,,,,,,,5,,,66,92
5760,note_on,320,0,6,,,,,,,,,5,,,62,92
5760,note_on,290,0,7,,,,,,,,,5,,,50,92
5760,note_on,32,0,1,,,,,,,,,0,,,84,92
5760,note_on,290,0,8,,,,,,,,,7,,,50,92
5808,note_on,0,0,7,,,,,,,,,5,,,52,92
5808,note_on,48,0,7,,,,,,,,,5,,,50,0
5808,note_on,0,0,5,,,,,,,,,4,,,67,92
5808,note_on,48,0,2,,,,,,,,,1,,,50,0
5808,note_on,0,0,2,,,,,,,,,1,,,52,92
5808,note_on,0,0,8,,,,,,,,,7,,,52,92
5808,note_on,48,0,8,,,,,,,,,7,,,50,0
5808,note_on,48,0,5,,,,,,,,,4,,,66,0
5854,note_on,94,0,1,,,,,,,,,0,,,84,0
5854,note_on,94,0,3,,,,,,,,,2,,,84,0
5856,note_on,48,0,7,,,,,,,,,5,,,52,0
5856,note_on,48,0,8,,,,,,,,,7,,,52,0
5856,note_on,2,0,3,,,,,,,,,2,,,74,92
5856,note_on,48,0,5,,,,,,,,,4,,,67,0
5856,note_on,0,0,5,,,,,,,,,4,,,69,92
5856,note_on,0,0,7,,,,,,,,,5,,,54,92
5856,note_on,0,0,8,,,,,,,,,7,,,54,92
5856,note_on,2,0,1,,,,,,,,,0,,,74,92
5856,note_on,48,0,2,,,,,,,,,1,,,52,0
5856,note_on,0,0,2,,,,,,,,,1,,,54,92
5950,note_on,94,0,8,,,,,,,,,7,,,54,0
5950,note_on,94,0,5,,,,,,,,,4,,,69,0
5950,note_on,94,0,1,,,,,,,,,0,,,74,0
5950,note_on,94,0,3,,,,,,,,,2,,,74,0
5950,note_on,94,0,7,,,,,,,,,5,,,54,0
5950,note_on,94,0,2,,,,,,,,,1,,,54,0
5952,note_on,2,0,7,,,,,,,,,5,,,50,92
5952,note_on,2,0,5,,,,,,,,,4,,,66,92
5952,note_on,2,0,3,,,,,,,,,2,,,74,92
5952,note_on,2,0,2,,,,,,,,,1,,,50,92
5952,note_on,2,0,1,,,,,,,,,0,,,74,92
5952,note_on,2,0,8,,,,,,,,,7,,,50,92
6016,note_on,256,0,4,,,,,,,,,3,,,74,0
6016,note_on,0,0,6,,,,,,,,,5,,,72,0
6016,note_on,256,0,6,,,,,,,,,5,,,62,0
6016,note_on,0,0,6,,,,,,,,,5,,,66,0
6046,note_on,94,0,5,,,,,,,,,4,,,66,0
6046,note_on,94,0,1,,,,,,,,,0,,,74,0
6046,note_on,94,0,2,,,,,,,,,1,,,50,0
6046,note_on,94,0,7,,,,,,,,,5,,,50,0
6046,note_on,94,0,3,,,,,,,,,2,,,74,0
6046,note_on,94,0,8,,,,,,,,,7,,,50,0
6048,note_on,2,0,3,,,,,,,,,2,,,84,92
6048,note_on,2,0,1,,,,,,,,,0,,,84,92
6048,note_on,32,0,4,,,,,,,,,3,,,84,92
6142,note_on,94,0,3,,,,,,,,,2,,,84,0
6142,note_on,94,0,1,,,,,,,,,0,,,84,0
6144,note_on,2,0,1,,,,,,,,,0,,,74,92
6144,note_on,2,0,3,,,,,,,,,2,,,74,92
6238,note_on,94,0,3,,,,,,,,,2,,,74,0
6238,note_on,94,0,1,,,,,,,,,0,,,74,0
6240,note_on,2,0,3,,,,,,,,,2,,,74,92
6240,note_on,2,0,1,,,,,,,,,0,,,74,92
6304,note_on,256,0,4,,,,,,,,,3,,,84,0
6334,note_on,94,0,3,,,,,,,,,2,,,74,0
6334,note_on,94,0,1,,,,,,,,,0,,,74,0
6336,note_on,2,0,3,,,,,,,,,2,,,74,92
6336,note_on,290,0,2,,,,,,,,,1,,,50,92
6336,note_on,290,0,5,,,,,,,,,4,,,66,92
6336,note_on,0,0,6,,,,,,,,,5,,,72,92
6336,note_on,2,0,1,,,,,,,,,0,,,74,92
6336,note_on,290,0,8,,,,,,,,,7,,,50,92
6336,note_on,290,0,7,,,,,,,,,5,,,50,92
6336,note_on,320,0,6,,,,,,,,,5,,,62,92
6336,note_on,32,0,4,,,,,,,,,3,,,84,92
6336,note_on,0,0,6,,,,,,,,,5,,,66,92
6384,note_on,0,0,5,,,,,,,,,4,,,67,92
6384,note_on,48,0,5,,,,,,,,,4,,,66,0
6384,note_on,0,0,7,,,,,,,,,5,,,52,92
6384,note_on,48,0,7,,,,,,,,,5,,,50,0
6384,note_on,48,0,2,,,,,,,,,1,,,50,0
6384,note_on,48,0,8,,,,,,,,,7,,,50,0
6384,note_on,0,0,8,,,,,,,,,7,,,52,92
6384,note_on,0,0,2,,,,,,,,,1,,,52,92
6430,note_on,94,0,4,,,,,,,,,3,,,84,0
6432,note_on,0,0,8,,,,,,,,,7,,,54,92
6432,note_on,48,0,2,,,,,,,,,1,,,52,0
6432,note_on,48,0,8,,,,,,,,,7,,,52,0
6432,note_on,48,0,7,,,,,,,,,5,,,52,0
6432,note_on,0,0,7,,,,,,,,,5,,,54,92
6432,note_on,0,0,5,,,,,,,,,4,,,69,92
6432,note_on,48,0,5,,,,,,,,,4,,,67,0
6432,note_on,2,0,4,,,,,,,,,3,,,74,92
6432,note_on,0,0,2,,,,,,,,,1,,,54,92
6526,note_on,94,0,2,,,,,,,,,1,,,54,0
6526,note_on,94,0,5,,,,,,,,,4,,,69,0
6526,note_on,94,0,4,,,,,,,,,3,,,74,0
6526,note_on,94,0,7,,,,,,,,,5,,,54,0
6526,note_on,94,0,8,,,,,,,,,7,,,54,0
6528,note_on,2,0,5,,,,,,,,,4,,,66,92
6528,note_on,2,0,2,,,,,,,,,1,,,50,92
6528,note_on,2,0,8,,,,,,,,,7,,,50,92
6528,note_on,2,0,7,,,,,,,,,5,,,50,92
6528,note_on,2,0,4,,,,,,,,,3,,,74,92
6592,note_on,256,0,3,,,,,,,,,2,,,74,0
6592,note_on,256,0,6,,,,,,,,,5,,,62,0
6592,note_on,256,0,1,,,,,,,,,0,,,74,0
6592,note_on,0,0,6,,,,,,,,,5,,,66,0
6592,note_on,0,0,6,,,,,,,,,5,,,72,0
6622,note_on,94,0,7,,,,,,,,,5,,,50,0
6622,note_on,94,0,8,,,,,,,,,7,,,50,0
6622,note_on,94,0,5,,,,,,,,,4,,,66,0
6622,note_on,94,0,4,,,,,,,,,3,,,74,0
6622,note_on,94,0,2,,,,,,,,,1,,,50,0
6624,note_on,32,0,3,,,,,,,,,2,,,84,92
6624,note_on,2,0,4,,,,,,,,,3,,,84,92
6624,note_on,32,0,1,,,,,,,,,0,,,84,92
6718,note_on,94,0,4,,,,,,,,,3,,,84,0
6720,note_on,2,0,4,,,,,,,,,3,,,74,92
6814,note_on,94,0,4,,,,,,,,,3,,,74,0
6816,note_on,2,0,4,,,,,,,,,3,,,74,92
6880,note_on,256,0,3,,,,,,,,,2,,,84,0
6880,note_on,256,0,1,,,,,,,,,0,,,84,0
6910,note_on,94,0,4,,,,,,,,,3,,,74,0
6912,note_on,2,0,4,,,,,,,,,3,,,74,92
6912,note_on,290,0,5,,,,,,,,,4,,,71,92
6912,note_on,0,0,6,,,,,,,,,5,,,71,92
6912,note_on,290,0,8,,,,,,,,,7,,,55,92
6912,note_on,290,0,7,,,,,,,,,5,,,55,92
6912,note_on,290,0,2,,,,,,,,,1,,,55,92
6912,note_on,0,0,6,,,,,,,,,5,,,67,92
6912,note_on,32,0,3,,,,,,,,,2,,,83,92
6912,note_on,320,0,6,,,,,,,,,5,,,62,92
6912,note_on,32,0,1,,,,,,,,,0,,,83,92
6960,note_on,0,0,5,,,,,,,,,4,,,72,92
6960,note_on,48,0,2,,,,,,,,,1,,,55,0
6960,note_on,0,0,2,,,,,,,,,1,,,57,92
6960,note_on,48,0,7,,,,,,,,,5,,,55,0
6960,note_on,48,0,8,,,,,,,,,7,,,55,0
6960,note_on,48,0,5,,,,,,,,,4,,,71,0
6960,note_on,0,0,8,,,,,,,,,7,,,57,92
6960,note_on,0,0,7,,,,,,,,,5,,,57,92
7006,note_on,94,0,3,,,,,,,,,2,,,83,0
7006,note_on,94,0,1,,,,,,,,,0,,,83,0
7008,note_on,0,0,8,,,,,,,,,7,,,59,92
7008,note_on,48,0,8,,,,,,,,,7,,,57,0
7008,note_on,2,0,3,,,,,,,,,2,,,74,92
7008,note_on,0,0,5,,,,,,,,,4,,,74,92
7008,note_on,48,0,2,,,,,,,,,1,,,57,0
7008,note_on,48,0,5,,,,,,,,,4,,,72,0
7008,note_on,48,0,7,,,,,,,,,5,,,57,0
7008,note_on,0,0,7,,,,,,,,,5,,,59,92
7008,note_on,2,0,1,,,,,,,,,0,,,74,92
7008,note_on,0,0,2,,,,,,,,,1,,,59,92
7102,note_on,94,0,8,,,,,,,,,7,,,59,0
7102,note_on,94,0,3,,,,,,,,,2,,,74,0
7102,note_on,94,0,1,,,,,,,,,0,,,74,0
7102,note_on,94,0,5,,,,,,,,,4,,,74,0
7102,note_on,94,0,7,,,,,,,,,5,,,59,0
7102,note_on,94,0,2,,,,,,,,,1,,,59,0
7104,note_on,2,0,8,,,,,,,,,7,,,55,92
7104,note_on,2,0,2,,,,,,,,,1,,,55,92
7104,note_on,2,0,1,,,,,,,,,0,,,74,92
7104,note_on,2,0,5,,,,,,,,,4,,,71,92
7104,note_on,2,0,3,,,,,,,,,2,,,74,92
7104,note_on,2,0,7,,,,,,,,,5,,,55,92
7168,note_on,256,0,4,,,,,,,,,3,,,74,0
7168,note_on,0,0,6,,,,,,,,,5,,,67,0
7168,note_on,256,0,6,,,,,,,,,5,,,62,0
7168,note_on,0,0,6,,,,,,,,,5,,,71,0
7198,note_on,94,0,8,,,,,,,,,7,,,55,0
7198,note_on,94,0,1,,,,,,,,,0,,,74,0
7198,note_on,94,0,7,,,,,,,,,5,,,55,0
7198,note_on,94,0,3,,,,,,,,,2,,,74,0
7198,note_on,94,0,5,,,,,,,,,4,,,71,0
7198,note_on,94,0,2,,,,,,,,,1,,,55,0
7200,note_on,2,0,3,,,,,,,,,2,,,83,92
7200,note_on,32,0,4,,,,,,,,,3,,,83,92
7200,note_on,2,0,1,,,,,,,,,0,,,83,92
7294,note_on,94,0,1,,,,,,,,,0,,,83,0
7294,note_on,94,0,3,,,,,,,,,2,,,83,0
7296,note_on,2,0,1,,,,,,,,,0,,,74,92
7296,note_on,2,0,3,,,,,,,,,2,,,74,92
7390,note_on,94,0,1,,,,,,,,,0,,,74,0
7390,note_on,94,0,3,,,,,,,,,2,,,74,0
7392,note_on,2,0,1,,,,,,,,,0,,,74,92
7392,note_on,2,0,3,,,,,,,,,2,,,74,92
7456,note_on,256,0,4,,,,,,,,,3,,,83,0
7486,note_on,94,0,1,,,,,,,,,0,,,74,0
7486,note_on,94,0,3,,,,,,,,,2,,,74,0
7488,note_on,2,0,1,,,,,,,,,0,,,74,92
7488,note_on,320,0,6,,,,,,,,,5,,,62,92
7488,note_on,2,0,3,,,,,,,,,2,,,74,92
7488,note_on,0,0,6,,,,,,,,,5,,,67,92
7488,note_on,0,0,6,,,,,,,,,5,,,71,92
7488,note_on,290,0,8,,,,,,,,,7,,,55,92
7488,note_on,290,0,2,,,,,,,,,1,,,55,92
7488,note_on,290,0,5,,,,,,,,,4,,,71,92
7488,note_on,32,0,4,,,,,,,,,3,,,83,92
7488,note_on,290,0,7,,,,,,,,,5,,,55,92
7536,note_on,48,0,8,,,,,,,,,7,,,55,0
7536,note_on,0,0,2,,,,,,,,,1,,,57,92
7536,note_on,48,0,5,,,,,,,,,4,,,71,0
7536,note_on,48,0,7,,,,,,,,,5,,,55,0
7536,note_on,48,0,2,,,,,,,,,1,,,55,0
7536,note_on,0,0,5,,,,,,,,,4,,,72,92
7536,note_on,0,0,8,,,,,,,,,7,,,57,92
7536,note_on,0,0,7,,,,,,,,,5,,,57,92
7582,note_on,94,0,4,,,,,,,,,3,,,83,0
7584,note_on,2,0,4,,,,,,,,,3,,,74,92
7584,note_on,48,0,8,,,,,,,,,7,,,57,0
7584,note_on,48,0,5,,,,,,,,,4,,,72,0
7584,note_on,0,0,5,,,,,,,,,4,,,74,92
7584,note_on,0,0,8,,,,,,,,,7,,,59,92
7584,note_on,0,0,7,,,,,,,,,5,,,59,92
7584,note_on,48,0,2,,,,,,,,,1,,,57,0
7584,note_on,0,0,2,,,,,,,,,1,,,59,92
7584,note_on,48,0,7,,,,,,,,,5,,,57,0
7678,note_on,94,0,8,,,,,,,,,7,,,59,0
7678,note_on,94,0,4,,,,,,,,,3,,,74,0
7678,note_on,94,0,7,,,,,,,,,5,,,59,0
7678,note_on,94,0,2,,,,,,,,,1,,,59,0
7678,note_on,94,0,5,,,,,,,,,4,,,74,0
7680,note_on,2,0,5,,,,,,,,,4,,,71,92
7680,note_on,2,0,8,,,,,,,,,7,,,55,92
7680,note_on,2,0,4,,,,,,,,,3,,,74,92
7680,note_on,2,0,7,,,,,,,,,5,,,55,92
7680,note_on,2,0,2,,,,,,,,,1,,,55,92
7744,note_on,0,0,6,,,,,,,,,5,,,71,0
7744,note_on,0,0,6,,,,,,,,,5,,,67,0
7744,note_on,256,0,3,,,,,,,,,2,,,74,0
7744,note_on,256,0,6,,,,,,,,,5,,,62,0
7744,note_on,256,0,1,,,,,,,,,0,,,74,0
7774,note_on,94,0,4,,,,,,,,,3,,,74,0
7774,note_on,94,0,8,,,,,,,,,7,,,55,0
7774,note_on,94,0,7,,,,,,,,,5,,,55,0
7774,note_on,94,0,2,,,,,,,,,1,,,55,0
7774,note_on,94,0,5,,,,,,,,,4,,,71,0
7776,note_on,32,0,3,,,,,,,,,2,,,83,92
7776,note_on,2,0,4,,,,,,,,,3,,,83,92
7776,note_on,32,0,1,,,,,,,,,0,,,83,92
7870,note_on,94,0,4,,,,,,,,,3,,,83,0
7872,note_on,2,0,4,,,,,,,,,3,,,74,92
7966,note_on,94,0,4,,,,,,,,,3,,,74,0
7968,note_on,2,0,4,,,,,,,,,3,,,74,92
8032,note_on,256,0,3,,,,,,,,,2,,,83,0
8032,note_on,256,0,1,,,,,,,,,0,,,83,0
8062,note_on,94,0,4,,,,,,,,,3,,,74,0
8064,note_on,32,0,3,,,,,,,,,2,,,81,92
8064,note_on,2,0,4,,,,,,,,,3,,,78,92
8064,note_on,320,0,6,,,,,,,,,5,,,62,92
8064,note_on,290,0,8,,,,,,,,,7,,,50,92
8064,note_on,0,0,6,,,,,,,,,5,,,66,92
8064,note_on,0,0,6,,,,,,,,,5,,,69,92
8064,note_on,290,0,2,,,,,,,,,1,,,50,92
8064,note_on,290,0,5,,,,,,,,,4,,,62,92
8064,note_on,290,0,7,,,,,,,,,5,,,50,92
8064,note_on,32,0,1,,,,,,,,,0,,,81,92
8112,note_on,0,0,3,,,,,,,,,2,,,79,92
8112,note_on,48,0,3,,,,,,,,,2,,,81,0
8112,note_on,48,0,1,,,,,,,,,0,,,81,0
8112,note_on,0,0,1,,,,,,,,,0,,,79,92
8112,note_on,48,0,4,,,,,,,,,3,,,78,0
8112,note_on,0,0,4,,,,,,,,,3,,,76,92
8158,note_on,94,0,5,,,,,,,,,4,,,62,0
8160,note_on,48,0,4,,,,,,,,,3,,,76,0
8160,note_on,48,0,3,,,,,,,,,2,,,79,0
8160,note_on,48,0,1,,,,,,,,,0,,,79,0
8160,note_on,0,0,3,,,,,,,,,2,,,78,92
8160,note_on,0,0,1,,,,,,,,,0,,,78,92
8160,note_on,2,0,5,,,,,,,,,4,,,74,92
8160,note_on,0,0,4,,,,,,,,,3,,,74,92
8224,note_on,160,0,2,,,,,,,,,1,,,50,0
8224,note_on,160,0,8,,,,,,,,,7,,,50,0
8224,note_on,160,0,6,,,,,,,,,5,,,62,0
8224,note_on,0,0,6,,,,,,,,,5,,,66,0
8224,note_on,160,0,7,,,,,,,,,5,,,50,0
8224,note_on,0,0,6,,,,,,,,,5,,,69,0
8254,note_on,94,0,5,,,,,,,,,4,,,74,0
8254,note_on,94,0,1,,,,,,,,,0,,,78,0
8254,note_on,94,0,4,,,,,,,,,3,,,74,0
8254,note_on,94,0,3,,,,,,,,,2,,,78,0
8256,note_on,2,0,3,,,,,,,,,2,,,81,92
8256,note_on,2,0,1,,,,,,,,,0,,,81,92
8256,note_on,2,0,4,,,,,,,,,3,,,78,92
8256,note_on,2,0,5,,,,,,,,,4,,,62,92
8350,note_on,94,0,1,,,,,,,,,0,,,81,0
8350,note_on,94,0,3,,,,,,,,,2,,,81,0
8350,note_on,94,0,4,,,,,,,,,3,,,78,0
8350,note_on,94,0,5,,,,,,,,,4,,,62,0
8352,note_on,2,0,4,,,,,,,,,3,,,69,92
8352,note_on,2,0,1,,,,,,,,,0,,,72,92
8352,note_on,2,0,3,,,,,,,,,2,,,72,92
8352,note_on,128,0,2,,,,,,,,,1,,,50,92
8352,note_on,2,0,5,,,,,,,,,4,,,62,92
8352,note_on,0,0,6,,,,,,,,,5,,,72,92
8352,note_on,128,0,7,,,,,,,,,5,,,50,92
8352,note_on,128,0,8,,,,,,,,,7,,,50,92
8352,note_on,128,0,6,,,,,,,,,5,,,62,92
8352,note_on,0,0,6,,,,,,,,,5,,,66,92
8400,note_on,0,0,1,,,,,,,,,0,,,71,92
8400,note_on,0,0,4,,,,,,,,,3,,,67,92
8400,note_on,48,0,4,,,,,,,,,3,,,69,0
8400,note_on,0,0,3,,,,,,,,,2,,,71,92
8400,note_on,48,0,1,,,,,,,,,0,,,72,0
8400,note_on,48,0,3,,,,,,,,,2,,,72,0
8448,note_on,48,0,1,,,,,,,,,0,,,71,0
8448,note_on,0,0,4,,,,,,,,,3,,,66,92
8448,note_on,48,0,4,,,,,,,,,3,,,67,0
8448,note_on,0,0,3,,,,,,,,,2,,,69,92
8448,note_on,0,0,1,,,,,,,,,0,,,69,92
8448,note_on,48,0,3,,,,,,,,,2,,,71,0
8512,note_on,160,0,8,,,,,,,,,7,,,50,0
8512,note_on,160,0,2,,,,,,,,,1,,,50,0
8512,note_on,160,0,6,,,,,,,,,5,,,62,0
8512,note_on,160,0,7,,,,,,,,,5,,,50,0
8512,note_on,160,0,5,,,,,,,,,4,,,62,0
8512,note_on,0,0,6,,,,,,,,,5,,,72,0
8512,note_on,0,0,6,,,,,,,,,5,,,66,0
8542,note_on,94,0,4,,,,,,,,,3,,,66,0
8542,note_on,94,0,3,,,,,,,,,2,,,69,0
8542,note_on,94,0,1,,,,,,,,,0,,,69,0
8544,note_on,2,0,4,,,,,,,,,3,,,69,92
8544,note_on,2,0,1,,,,,,,,,0,,,72,92
8544,note_on,2,0,3,,,,,,,,,2,,,72,92
8638,note_on,94,0,1,,,,,,,,,0,,,72,0
8638,note_on,94,0,3,,,,,,,,,2,,,72,0
8638,note_on,94,0,4,,,,,,,,,3,,,69,0
8640,note_on,2,0,3,,,,,,,,,2,,,81,92
8640,note_on,128,0,6,,,,,,,,,5,,,62,92
8640,note_on,0,0,6,,,,,,,,,5,,,66,92
8640,note_on,128,0,5,,,,,,,,,4,,,62,92
8640,note_on,128,0,7,,,,,,,,,5,,,50,92
8640,note_on,0,0,6,,,,,,,,,5,,,69,92
8640,note_on,128,0,8,,,,,,,,,7,,,50,92
8640,note_on,128,0,2,,,,,,,,,1,,,50,92
8640,note_on,2,0,1,,,,,,,,,0,,,81,92
8640,note_on,2,0,4,,,,,,,,,3,,,78,92
8688,note_on,0,0,1,,,,,,,,,0,,,79,92
8688,note_on,0,0,4,,,,,,,,,3,,,76,92
8688,note_on,0,0,3,,,,,,,,,2,,,79,92
8688,note_on,48,0,3,,,,,,,,,2,,,81,0
8688,note_on,48,0,4,,,,,,,,,3,,,78,0
8688,note_on,48,0,1,,,,,,,,,0,,,81,0
8734,note_on,94,0,5,,,,,,,,,4,,,62,0
8736,note_on,48,0,1,,,,,,,,,0,,,79,0
8736,note_on,0,0,4,,,,,,,,,3,,,74,92
8736,note_on,0,0,1,,,,,,,,,0,,,78,92
8736,note_on,0,0,3,,,,,,,,,2,,,78,92
8736,note_on,48,0,3,,,,,,,,,2,,,79,0
8736,note_on,2,0,5,,,,,,,,,4,,,74,92
8736,note_on,48,0,4,,,,,,,,,3,,,76,0
8800,note_on,160,0,7,,,,,,,,,5,,,50,0
8800,note_on,160,0,6,,,,,,,,,5,,,62,0
8800,note_on,0,0,6,,,,,,,,,5,,,66,0
8800,note_on,160,0,2,,,,,,,,,1,,,50,0
8800,note_on,160,0,8,,,,,,,,,7,,,50,0
8800,note_on,0,0,6,,,,,,,,,5,,,69,0
8830,note_on,94,0,3,,,,,,,,,2,,,78,0
8830,note_on,94,0,4,,,,,,,,,3,,,74,0
8830,note_on,94,0,1,,,,,,,,,0,,,78,0
8830,note_on,94,0,5,,,,,,,,,4,,,74,0
8832,note_on,2,0,3,,,,,,,,,2,,,81,92
8832,note_on,2,0,5,,,,,,,,,4,,,62,92
8832,note_on,2,0,4,,,,,,,,,3,,,78,92
8832,note_on,2,0,1,,,,,,,,,0,,,81,92
8926,note_on,94,0,5,,,,,,,,,4,,,62,0
8926,note_on,94,0,1,,,,,,,,,0,,,81,0
8926,note_on,94,0,4,,,,,,,,,3,,,78,0
8926,note_on,94,0,3,,,,,,,,,2,,,81,0
8928,note_on,2,0,3,,,,,,,,,2,,,72,92
8928,note_on,128,0,2,,,,,,,,,1,,,50,92
8928,note_on,0,0,6,,,,,,,,,5,,,72,92
8928,note_on,128,0,6,,,,,,,,,5,,,62,92
8928,note_on,0,0,6,,,,,,,,,5,,,66,92
8928,note_on,128,0,7,,,,,,,,,5,,,50,92
8928,note_on,128,0,8,,,,,,,,,7,,,50,92
8928,note_on,2,0,1,,,,,,,,,0,,,72,92
8928,note_on,2,0,4,,,,,,,,,3,,,69,92
8928,note_on,2,0,5,,,,,,,,,4,,,62,92
8976,note_on,0,0,1,,,,,,,,,0,,,71,92
8976,note_on,48,0,1,,,,,,,,,0,,,72,0
8976,note_on,48,0,4,,,,,,,,,3,,,69,0
8976,note_on,0,0,3,,,,,,,,,2,,,71,92
8976,note_on,0,0,4,,,,,,,,,3,,,67,92
8976,note_on,48,0,3,,,,,,,,,2,,,72,0
9024,note_on,48,0,3,,,,,,,,,2,,,71,0
9024,note_on,48,0,4,,,,,,,,,3,,,67,0
9024,note_on,0,0,4,,,,,,,,,3,,,66,92
9024,note_on,48,0,1,,,,,,,,,0,,,71,0
9024,note_on,0,0,1,,,,,,,,,0,,,69,92
9024,note_on,0,0,3,,,,,,,,,2,,,69,92
9088,note_on,160,0,2,,,,,,,,,1,,,50,0
9088,note_on,160,0,7,,,,,,,,,5,,,50,0
9088,note_on,160,0,6,,,,,,,,,5,,,62,0
9088,note_on,0,0,6,,,,,,,,,5,,,66,0
9088,note_on,0,0,6,,,,,,,,,5,,,72,0
9088,note_on,160,0,8,,,,,,,,,7,,,50,0
9088,note_on,160,0,5,,,,,,,,,4,,,62,0
9118,note_on,94,0,3,,,,,,,,,2,,,69,0
9118,note_on,94,0,1,,,,,,,,,0,,,69,0
9118,note_on,94,0,4,,,,,,,,,3,,,66,0
9120,note_on,2,0,3,,,,,,,,,2,,,72,92
9120,note_on,2,0,4,,,,,,,,,3,,,69,92
9120,note_on,2,0,1,,,,,,,,,0,,,72,92
9214,note_on,94,0,4,,,,,,,,,3,,,69,0
9214,note_on,94,0,3,,,,,,,,,2,,,72,0
9214,note_on,94,0,1,,,,,,,,,0,,,72,0
9216,note_on,2,0,4,,,,,,,,,3,,,67,92
9216,note_on,2,0,1,,,,,,,,,0,,,71,92
9216,note_on,128,0,5,,,,,,,,,4,,,67,92
9216,note_on,2,0,3,,,,,,,,,2,,,71,92
9216,note_on,128,0,2,,,,,,,,,1,,,55,92
9216,note_on,128,0,7,,,,,,,,,5,,,55,92
9216,note_on,128,0,6,,,,,,,,,5,,,62,92
9216,note_on,0,0,6,,,,,,,,,5,,,67,92
9216,note_on,0,0,6,,,,,,,,,5,,,71,92
9216,note_on,128,0,8,,,,,,,,,7,,,55,92
9310,note_on,94,0,2,,,,,,,,,1,,,55,0
9310,note_on,94,0,3,,,,,,,,,2,,,71,0
9310,note_on,94,0,7,,,,,,,,,5,,,55,0
9310,note_on,94,0,1,,,,,,,,,0,,,71,0
9310,note_on,94,0,8,,,,,,,,,7,,,55,0
9310,note_on,94,0,5,,,,,,,,,4,,,67,0
9310,note_on,94,0,4,,,,,,,,,3,,,67,0
9312,note_on,2,0,7,,,,,,,,,5,,,43,92
9312,note_on,2,0,3,,,,,,,,,2,,,83,92
9312,note_on,2,0,4,,,,,,,,,3,,,79,92
9312,note_on,2,0,2,,,,,,,,,1,,,43,92
9312,note_on,2,0,5,,,,,,,,,4,,,55,92
9312,note_on,2,0,8,,,,,,,,,7,,,43,92
9312,note_on,2,0,1,,,,,,,,,0,,,83,92
9406,note_on,94,0,2,,,,,,,,,1,,,43,0
9406,note_on,94,0,5,,,,,,,,,4,,,55,0
9406,note_on,94,0,7,,,,,,,,,5,,,43,0
9406,note_on,94,0,8,,,,,,,,,7,,,43,0
9408,note_on,2,0,8,,,,,,,,,7,,,43,92
9408,note_on,2,0,2,,,,,,,,,1,,,43,92
9408,note_on,2,0,5,,,,,,,,,4,,,55,92
9408,note_on,2,0,7,,,,,,,,,5,,,43,92
9472,note_on,256,0,6,,,,,,,,,5,,,62,0
9472,note_on,0,0,6,,,,,,,,,5,,,71,0
9472,note_on,0,0,6,,,,,,,,,5,,,67,0
9502,note_on,94,0,2,,,,,,,,,1,,,43,0
9502,note_on,94,0,8,,,,,,,,,7,,,43,0
9502,note_on,94,0,7,,,,,,,,,5,,,43,0
9502,note_on,94,0,5,,,,,,,,,4,,,55,0
9504,note_on,2,0,8,,,,,,,,,7,,,43,92
9504,note_on,2,0,7,,,,,,,,,5,,,43,92
9504,note_on,2,0,5,,,,,,,,,4,,,55,92
9504,note_on,2,0,2,,,,,,,,,1,,,43,92
9504,note_on,32,0,6,,,,,,,,,5,,,62,92
9504,note_on,0,0,6,,,,,,,,,5,,,67,92
9504,note_on,0,0,6,,,,,,,,,5,,,71,92
9598,note_on,286,0,3,,,,,,,,,2,,,83,0
9598,note_on,286,0,1,,,,,,,,,0,,,83,0
9598,note_on,286,0,4,,,,,,,,,3,,,79,0
9600,note_on,2,0,3,,,,,,,,,2,,,81,92
9600,note_on,2,0,4,,,,,,,,,3,,,78,92
9600,note_on,2,0,1,,,,,,,,,0,,,81,92
9664,note_on,160,0,5,,,,,,,,,4,,,55,0
9664,note_on,0,0,6,,,,,,,,,5,,,67,0
9664,note_on,0,0,6,,,,,,,,,5,,,71,0
9664,note_on,160,0,2,,,,,,,,,1,,,43,0
9664,note_on,160,0,8,,,,,,,,,7,,,43,0
9664,note_on,160,0,6,,,,,,,,,5,,,62,0
9664,note_on,160,0,7,,,,,,,,,5,,,43,0
9694,note_on,94,0,1,,,,,,,,,0,,,81,0
9694,note_on,94,0,4,,,,,,,,,3,,,78,0
9694,note_on,94,0,3,,,,,,,,,2,,,81,0
9696,note_on,2,0,1,,,,,,,,,0,,,79,92
9696,note_on,2,0,3,,,,,,,,,2,,,79,92
9696,note_on,2,0,4,,,,,,,,,3,,,76,92
9790,note_on,94,0,1,,,,,,,,,0,,,79,0
9790,note_on,94,0,4,,,,,,,,,3,,,76,0
9790,note_on,94,0,3,,,,,,,,,2,,,79,0
9792,note_on,128,0,7,,,,,,,,,5,,,55,92
9792,note_on,128,0,8,,,,,,,,,7,,,55,92
9792,note_on,2,0,4,,,,,,,,,3,,,71,92
9792,note_on,128,0,5,,,,,,,,,4,,,67,92
9792,note_on,128,0,2,,,,,,,,,1,,,55,92
9792,note_on,128,0,6,,,,,,,,,5,,,62,92
9792,note_on,0,0,6,,,,,,,,,5,,,67,92
9792,note_on,0,0,6,,,,,,,,,5,,,71,92
9792,note_on,2,0,1,,,,,,,,,0,,,74,92
9792,note_on,2,0,3,,,,,,,,,2,,,74,92
9886,note_on,94,0,2,,,,,,,,,1,,,55,0
9886,note_on,94,0,5,,,,,,,,,4,,,67,0
9886,note_on,94,0,6,,,,,,,,,5,,,62,0
9886,note_on,94,0,4,,,,,,,,,3,,,71,0
9886,note_on,0,0,6,,,,,,,,,5,,,67,0
9886,note_on,0,0,6,,,,,,,,,5,,,71,0
9886,note_on,94,0,3,,,,,,,,,2,,,74,0
9886,note_on,94,0,1,,,,,,,,,0,,,74,0
9886,note_on,94,0,7,,,,,,,,,5,,,55,0
9886,note_on,94,0,8,,,,,,,,,7,,,55,0
9888,note_on,2,0,7,,,,,,,,,5,,,43,92
9888,note_on,2,0,1,,,,,,,,,0,,,79,92
9888,note_on,2,0,5,,,,,,,,,4,,,55,92
9888,note_on,0,0,6,,,,,,,,,5,,,72,92
9888,note_on,0,0,6,,,,,,,,,5,,,67,92
9888,note_on,2,0,6,,,,,,,,,5,,,64,92
9888,note_on,2,0,3,,,,,,,,,2,,,79,92
9888,note_on,2,0,4,,,,,,,,,3,,,76,92
9888,note_on,2,0,2,,,,,,,,,1,,,43,92
9888,note_on,2,0,8,,,,,,,,,7,,,43,92
9982,note_on,94,0,7,,,,,,,,,5,,,43,0
9982,note_on,94,0,5,,,,,,,,,4,,,55,0
9982,note_on,94,0,2,,,,,,,,,1,,,43,0
9982,note_on,94,0,8,,,,,,,,,7,,,43,0
9984,note_on,2,0,2,,,,,,,,,1,,,43,92
9984,note_on,2,0,7,,,,,,,,,5,,,43,92
9984,note_on,2,0,8,,,,,,,,,7,,,43,92
9984,note_on,2,0,5,,,,,,,,,4,,,55,92
10048,note_on,0,0,6,,,,,,,,,5,,,67,0
10048,note_on,160,0,6,,,,,,,,,5,,,64,0
10048,note_on,0,0,6,,,,,,,,,5,,,72,0
10078,note_on,94,0,8,,,,,,,,,7,,,43,0
10078,note_on,94,0,2,,,,,,,,,1,,,43,0
10078,note_on,94,0,7,,,,,,,,,5,,,43,0
10078,note_on,94,0,5,,,,,,,,,4,,,55,0
10080,note_on,2,0,7,,,,,,,,,5,,,43,92
10080,note_on,2,0,2,,,,,,,,,1,,,43,92
10080,note_on,2,0,5,,,,,,,,,4,,,55,92
10080,note_on,2,0,8,,,,,,,,,7,,,43,92
10080,note_on,32,0,6,,,,,,,,,5,,,64,92
10080,note_on,0,0,6,,,,,,,,,5,,,67,92
10080,note_on,0,0,6,,,,,,,,,5,,,72,92
10174,note_on,286,0,3,,,,,,,,,2,,,79,0
10174,note_on,286,0,4,,,,,,,,,3,,,76,0
10174,note_on,286,0,1,,,,,,,,,0,,,79,0
10176,note_on,2,0,3,,,,,,,,,2,,,78,92
10176,note_on,2,0,4,,,,,,,,,3,,,74,92
10176,note_on,2,0,1,,,,,,,,,0,,,78,92
10240,note_on,160,0,8,,,,,,,,,7,,,43,0
10240,note_on,160,0,2,,,,,,,,,1,,,43,0
10240,note_on,160,0,6,,,,,,,,,5,,,64,0
10240,note_on,0,0,6,,,,,,,,,5,,,67,0
10240,note_on,0,0,6,,,,,,,,,5,,,72,0
10240,note_on,160,0,7,,,,,,,,,5,,,43,0
10240,note_on,160,0,5,,,,,,,,,4,,,55,0
10270,note_on,94,0,3,,,,,,,,,2,,,78,0
10270,note_on,94,0,1,,,,,,,,,0,,,78,0
10270,note_on,94,0,4,,,,,,,,,3,,,74,0
10272,note_on,2,0,3,,,,,,,,,2,,,76,92
10272,note_on,2,0,1,,,,,,,,,0,,,76,92
10272,note_on,2,0,4,,,,,,,,,3,,,72,92
10366,note_on,94,0,3,,,,,,,,,2,,,76,0
10366,note_on,94,0,4,,,,,,,,,3,,,72,0
10366,note_on,94,0,1,,,,,,,,,0,,,76,0
10368,note_on,2,0,4,,,,,,,,,3,,,71,92
10368,note_on,128,0,5,,,,,,,,,4,,,67,92
10368,note_on,128,0,8,,,,,,,,,7,,,55,92
10368,note_on,128,0,6,,,,,,,,,5,,,62,92
10368,note_on,0,0,6,,,,,,,,,5,,,67,92
10368,note_on,0,0,6,,,,,,,,,5,,,71,92
10368,note_on,2,0,1,,,,,,,,,0,,,74,92
10368,note_on,128,0,7,,,,,,,,,5,,,55,92
10368,note_on,128,0,2,,,,,,,,,1,,,55,92
10368,note_on,2,0,3,,,,,,,,,2,,,74,92
10462,note_on,94,0,4,,,,,,,,,3,,,71,0
10462,note_on,94,0,1,,,,,,,,,0,,,74,0
10462,note_on,94,0,7,,,,,,,,,5,,,55,0
10462,note_on,94,0,2,,,,,,,,,1,,,55,0
10462,note_on,94,0,3,,,,,,,,,2,,,74,0
10462,note_on,94,0,5,,,,,,,,,4,,,67,0
10462,note_on,94,0,8,,,,,,,,,7,,,55,0
10462,note_on,94,0,6,,,,,,,,,5,,,62,0
10462,note_on,0,0,6,,,,,,,,,5,,,67,0
10462,note_on,0,0,6,,,,,,,,,5,,,71,0
10464,note_on,2,0,5,,,,,,,,,4,,,55,92
10464,note_on,2,0,1,,,,,,,,,0,,,76,92
10464,note_on,0,0,6,,,,,,,,,5,,,72,92
10464,note_on,2,0,7,,,,,,,,,5,,,43,92
10464,note_on,2,0,6,,,,,,,,,5,,,64,92
10464,note_on,0,0,6,,,,,,,,,5,,,67,92
10464,note_on,2,0,8,,,,,,,,,7,,,43,92
10464,note_on,2,0,2,,,,,,,,,1,,,43,92
10464,note_on,2,0,3,,,,,,,,,2,,,76,92
10464,note_on,2,0,4,,,,,,,,,3,,,72,92
10558,note_on,94,0,5,,,,,,,,,4,,,55,0
10558,note_on,94,0,8,,,,,,,,,7,,,43,0
10558,note_on,94,0,2,,,,,,,,,1,,,43,0
10558,note_on,94,0,7,,,,,,,,,5,,,43,0
10560,note_on,2,0,7,,,,,,,,,5,,,43,92
10560,note_on,2,0,8,,,,,,,,,7,,,43,92
10560,note_on,2,0,5,,,,,,,,,4,,,55,92
10560,note_on,2,0,2,,,,,,,,,1,,,43,92
10624,note_on,0,0,6,,,,,,,,,5,,,72,0
10624,note_on,0,0,6,,,,,,,,,5,,,67,0
10624,note_on,160,0,6,,,,,,,,,5,,,64,0
10654,note_on,94,0,5,,,,,,,,,4,,,55,0
10654,note_on,94,0,2,,,,,,,,,1,,,43,0
10654,note_on,94,0,7,,,,,,,,,5,,,43,0
10654,note_on,94,0,8,,,,,,,,,7,,,43,0
10656,note_on,2,0,5,,,,,,,,,4,,,55,92
10656,note_on,2,0,7,,,,,,,,,5,,,43,92
10656,note_on,0,0,6,,,,,,,,,5,,,72,92
10656,note_on,0,0,6,,,,,,,,,5,,,67,92
10656,note_on,32,0,6,,,,,,,,,5,,,64,92
10656,note_on,2,0,2,,,,,,,,,1,,,43,92
10656,note_on,2,0,8,,,,,,,,,7,,,43,92
10750,note_on,286,0,4,,,,,,,,,3,,,72,0
10750,note_on,286,0,1,,,,,,,,,0,,,76,0
10750,note_on,286,0,3,,,,,,,,,2,,,76,0
10752,note_on,2,0,3,,,,,,,,,2,,,74,92
10752,note_on,2,0,4,,,,,,,,,3,,,71,92
10752,note_on,2,0,1,,,,,,,,,0,,,74,92
10816,note_on,0,0,6,,,,,,,,,5,,,72,0
10816,note_on,160,0,6,,,,,,,,,5,,,64,0
10816,note_on,160,0,2,,,,,,,,,1,,,43,0
10816,note_on,160,0,8,,,,,,,,,7,,,43,0
10816,note_on,0,0,6,,,,,,,,,5,,,67,0
10816,note_on,160,0,7,,,,,,,,,5,,,43,0
10816,note_on,160,0,5,,,,,,,,,4,,,55,0
10846,note_on,94,0,4,,,,,,,,,3,,,71,0
10846,note_on,94,0,3,,,,,,,,,2,,,74,0
10846,note_on,94,0,1,,,,,,,,,0,,,74,0
10848,note_on,2,0,4,,,,,,,,,3,,,69,92
10848,note_on,2,0,3,,,,,,,,,2,,,72,92
10848,note_on,2,0,1,,,,,,,,,0,,,72,92
10942,note_on,94,0,4,,,,,,,,,3,,,69,0
10942,note_on,94,0,1,,,,,,,,,0,,,72,0
10942,note_on,94,0,3,,,,,,,,,2,,,72,0
10944,note_on,128,0,6,,,,,,,,,5,,,62,92
10944,note_on,0,0,6,,,,,,,,,5,,,67,92
10944,note_on,0,0,6,,,,,,,,,5,,,71,92
10944,note_on,2,0,4,,,,,,,,,3,,,67,92
10944,note_on,128,0,8,,,,,,,,,7,,,55,92
10944,note_on,128,0,5,,,,,,,,,4,,,67,92
10944,note_on,128,0,2,,,,,,,,,1,,,55,92
10944,note_on,2,0,1,,,,,,,,,0,,,71,92
10944,note_on,128,0,7,,,,,,,,,5,,,55,92
10944,note_on,2,0,3,,,,,,,,,2,,,71,92
11038,note_on,94,0,4,,,,,,,,,3,,,67,0
11038,note_on,94,0,2,,,,,,,,,1,,,55,0
11038,note_on,94,0,1,,,,,,,,,0,,,71,0
11038,note_on,94,0,6,,,,,,,,,5,,,62,0
11038,note_on,0,0,6,,,,,,,,,5,,,71,0
11038,note_on,94,0,3,,,,,,,,,2,,,71,0
11038,note_on,94,0,5,,,,,,,,,4,,,67,0
11038,note_on,94,0,7,,,,,,,,,5,,,55,0
11038,note_on,94,0,8,,,,,,,,,7,,,55,0
11038,note_on,0,0,6,,,,,,,,,5,,,67,0
11040,note_on,0,0,6,,,,,,,,,5,,,72,92
11040,note_on,0,0,6,,,,,,,,,5,,,69,92
11040,note_on,2,0,3,,,,,,,,,2,,,72,92
11040,note_on,2,0,5,,,,,,,,,4,,,62,92
11040,note_on,2,0,4,,,,,,,,,3,,,69,92
11040,note_on,2,0,8,,,,,,,,,7,,,50,92
11040,note_on,2,0,7,,,,,,,,,5,,,50,92
11040,note_on,2,0,2,,,,,,,,,1,,,50,92
11040,note_on,2,0,1,,,,,,,,,0,,,72,92
11040,note_on,2,0,6,,,,,,,,,5,,,62,92
11134,note_on,94,0,5,,,,,,,,,4,,,62,0
11134,note_on,94,0,7,,,,,,,,,5,,,50,0
11134,note_on,94,0,2,,,,,,,,,1,,,50,0
11134,note_on,94,0,8,,,,,,,,,7,,,50,0
11136,note_on,2,0,8,,,,,,,,,7,,,50,92
11136,note_on,2,0,7,,,,,,,,,5,,,50,92
11136,note_on,2,0,5,,,,,,,,,4,,,62,92
11136,note_on,2,0,2,,,,,,,,,1,,,50,92
11200,note_on,160,0,6,,,,,,,,,5,,,62,0
11200,note_on,0,0,6,,,,,,,,,5,,,69,0
11200,note_on,0,0,6,,,,,,,,,5,,,72,0
11230,note_on,94,0,2,,,,,,,,,1,,,50,0
11230,note_on,94,0,7,,,,,,,,,5,,,50,0
11230,note_on,94,0,8,,,,,,,,,7,,,50,0
11230,note_on,94,0,5,,,,,,,,,4,,,62,0
11232,note_on,2,0,7,,,,,,,,,5,,,50,92
11232,note_on,32,0,6,,,,,,,,,5,,,62,92
11232,note_on,0,0,6,,,,,,,,,5,,,66,92
11232,note_on,0,0,6,,,,,,,,,5,,,69,92
11232,note_on,2,0,2,,,,,,,,,1,,,50,92
11232,note_on,2,0,8,,,,,,,,,7,,,50,92
11232,note_on,2,0,5,,,,,,,,,4,,,62,92
11326,note_on,286,0,4,,,,,,,,,3,,,69,0
11326,note_on,286,0,3,,,,,,,,,2,,,72,0
11326,note_on,286,0,1,,,,,,,,,0,,,72,0
11328,note_on,2,0,3,,,,,,,,,2,,,71,92
11328,note_on,2,0,1,,,,,,,,,0,,,71,92
11328,note_on,2,0,4,,,,,,,,,3,,,67,92
11392,note_on,160,0,8,,,,,,,,,7,,,50,0
11392,note_on,160,0,7,,,,,,,,,5,,,50,0
11392,note_on,160,0,6,,,,,,,,,5,,,62,0
11392,note_on,0,0,6,,,,,,,,,5,,,66,0
11392,note_on,0,0,6,,,,,,,,,5,,,69,0
11392,note_on,160,0,2,,,,,,,,,1,,,50,0
11392,note_on,160,0,5,,,,,,,,,4,,,62,0
11422,note_on,94,0,4,,,,,,,,,3,,,67,0
11422,note_on,94,0,3,,,,,,,,,2,,,71,0
11422,note_on,94,0,1,,,,,,,,,0,,,71,0
11424,note_on,2,0,3,,,,,,,,,2,,,69,92
11424,note_on,2,0,1,,,,,,,,,0,,,69,92
11424,note_on,2,0,4,,,,,,,,,3,,,66,92
11518,note_on,94,0,4,,,,,,,,,3,,,66,0
11518,note_on,94,0,1,,,,,,,,,0,,,69,0
11518,note_on,94,0,3,,,,,,,,,2,,,69,0
11520,note_on,2,0,3,,,,,,,,,2,,,71,92
11520,note_on,2,0,4,,,,,,,,,3,,,67,92
11520,note_on,128,0,7,,,,,,,,,5,,,43,92
11520,note_on,128,0,6,,,,,,,,,5,,,62,92
11520,note_on,128,0,2,,,,,,,,,1,,,43,92
11520,note_on,2,0,1,,,,,,,,,0,,,71,92
11520,note_on,0,0,6,,,,,,,,,5,,,67,92
11520,note_on,0,0,6,,,,,,,,,5,,,71,92
11520,note_on,128,0,5,,,,,,,,,4,,,62,92
11520,note_on,128,0,8,,,,,,,,,7,,,43,92
11568,note_on,0,0,4,,,,,,,,,3,,,69,92
11568,note_on,48,0,4,,,,,,,,,3,,,67,0
11568,note_on,48,0,3,,,,,,,,,2,,,71,0
11568,note_on,0,0,3,,,,,,,,,2,,,69,92
11568,note_on,0,0,1,,,,,,,,,0,,,69,92
11568,note_on,48,0,1,,,,,,,,,0,,,71,0
11614,note_on,94,0,2,,,,,,,,,1,,,43,0
11614,note_on,94,0,7,,,,,,,,,5,,,43,0
11614,note_on,94,0,8,,,,,,,,,7,,,43,0
11616,note_on,0,0,1,,,,,,,,,0,,,67,92
11616,note_on,2,0,2,,,,,,,,,1,,,55,92
11616,note_on,48,0,1,,,,,,,,,0,,,69,0
11616,note_on,0,0,4,,,,,,,,,3,,,71,92
11616,note_on,0,0,3,,,,,,,,,2,,,67,92
11616,note_on,48,0,3,,,,,,,,,2,,,69,0
11616,note_on,2,0,8,,,,,,,,,7,,,55,92
11616,note_on,48,0,4,,,,,,,,,3,,,69,0
11616,note_on,2,0,7,,,,,,,,,5,,,55,92
11680,note_on,160,0,6,,,,,,,,,5,,,62,0
11680,note_on,0,0,6,,,,,,,,,5,,,67,0
11680,note_on,0,0,6,,,,,,,,,5,,,71,0
11710,note_on,94,0,4,,,,,,,,,3,,,71,0
11710,note_on,94,0,3,,,,,,,,,2,,,67,0
11710,note_on,94,0,2,,,,,,,,,1,,,55,0
11710,note_on,94,0,8,,,,,,,,,7,,,55,0
11710,note_on,94,0,7,,,,,,,,,5,,,55,0
11710,note_on,94,0,1,,,,,,,,,0,,,67,0
11712,note_on,2,0,8,,,,,,,,,7,,,54,92
11712,note_on,2,0,3,,,,,,,,,2,,,72,92
11712,note_on,0,0,6,,,,,,,,,5,,,72,92
11712,note_on,2,0,7,,,,,,,,,5,,,54,92
11712,note_on,32,0,6,,,,,,,,,5,,,62,92
11712,note_on,0,0,6,,,,,,,,,5,,,69,92
11712,note_on,2,0,2,,,,,,,,,1,,,54,92
11712,note_on,2,0,4,,,,,,,,,3,,,69,92
11712,note_on,2,0,1,,,,,,,,,0,,,72,92
11776,note_on,256,0,5,,,,,,,,,4,,,62,0
11806,note_on,94,0,4,,,,,,,,,3,,,69,0
11806,note_on,0,0,6,,,,,,,,,5,,,72,0
11806,note_on,0,0,6,,,,,,,,,5,,,69,0
11806,note_on,94,0,6,,,,,,,,,5,,,62,0
11806,note_on,94,0,3,,,,,,,,,2,,,72,0
11806,note_on,94,0,8,,,,,,,,,7,,,54,0
11806,note_on,94,0,7,,,,,,,,,5,,,54,0
11806,note_on,94,0,2,,,,,,,,,1,,,54,0
11806,note_on,94,0,1,,,,,,,,,0,,,72,0
11808,note_on,2,0,1,,,,,,,,,0,,,71,92
11808,note_on,2,0,3,,,,,,,,,2,,,71,92
11808,note_on,2,0,8,,,,,,,,,7,,,43,92
11808,note_on,2,0,7,,,,,,,,,5,,,43,92
11808,note_on,0,0,6,,,,,,,,,5,,,67,92
11808,note_on,2,0,2,,,,,,,,,1,,,43,92
11808,note_on,2,0,4,,,,,,,,,3,,,67,92
11808,note_on,0,0,6,,,,,,,,,5,,,71,92
11808,note_on,32,0,5,,,,,,,,,4,,,62,92
11808,note_on,2,0,6,,,,,,,,,5,,,62,92
11856,note_on,0,0,4,,,,,,,,,3,,,69,92
11856,note_on,48,0,1,,,,,,,,,0,,,71,0
11856,note_on,0,0,1,,,,,,,,,0,,,69,92
11856,note_on,48,0,3,,,,,,,,,2,,,71,0
11856,note_on,0,0,3,,,,,,,,,2,,,69,92
11856,note_on,48,0,4,,,,,,,,,3,,,67,0
11902,note_on,94,0,8,,,,,,,,,7,,,43,0
11902,note_on,94,0,7,,,,,,,,,5,,,43,0
11902,note_on,94,0,2,,,,,,,,,1,,,43,0
11904,note_on,2,0,2,,,,,,,,,1,,,55,92
11904,note_on,0,0,3,,,,,,,,,2,,,67,92
11904,note_on,48,0,4,,,,,,,,,3,,,69,0
11904,note_on,0,0,4,,,,,,,,,3,,,71,92
11904,note_on,0,0,1,,,,,,,,,0,,,67,92
11904,note_on,48,0,1,,,,,,,,,0,,,69,0
11904,note_on,2,0,7,,,,,,,,,5,,,55,92
11904,note_on,48,0,3,,,,,,,,,2,,,69,0
11904,note_on,2,0,8,,,,,,,,,7,,,55,92
11968,note_on,160,0,6,,,,,,,,,5,,,62,0
11968,note_on,0,0,6,,,,,,,,,5,,,67,0
11968,note_on,0,0,6,,,,,,,,,5,,,71,0
11998,note_on,94,0,7,,,,,,,,,5,,,55,0
11998,note_on,94,0,4,,,,,,,,,3,,,71,0
11998,note_on,94,0,3,,,,,,,,,2,,,67,0
11998,note_on,94,0,1,,,,,,,,,0,,,67,0
11998,note_on,94,0,8,,,,,,,,,7,,,55,0
11998,note_on,94,0,2,,,,,,,,,1,,,55,0
12000,note_on,2,0,8,,,,,,,,,7,,,54,92
12000,note_on,2,0,4,,,,,,,,,3,,,69,92
12000,note_on,2,0,7,,,,,,,,,5,,,54,92
12000,note_on,0,0,6,,,,,,,,,5,,,72,92
12000,note_on,0,0,6,,,,,,,,,5,,,69,92
12000,note_on,2,0,3,,,,,,,,,2,,,72,92
12000,note_on,2,0,1,,,,,,,,,0,,,72,92
12000,note_on,2,0,2,,,,,,,,,1,,,54,92
12000,note_on,32,0,6,,,,,,,,,5,,,62,92
12064,note_on,256,0,5,,,,,,,,,4,,,62,0
12094,note_on,94,0,3,,,,,,,,,2,,,72,0
12094,note_on,94,0,4,,,,,,,,,3,,,69,0
12094,note_on,94,0,8,,,,,,,,,7,,,54,0
12094,note_on,94,0,7,,,,,,,,,5,,,54,0
12094,note_on,94,0,2,,,,,,,,,1,,,54,0
12094,note_on,94,0,1,,,,,,,,,0,,,72,0
12094,note_on,0,0,6,,,,,,,,,5,,,69,0
12094,note_on,0,0,6,,,,,,,,,5,,,72,0
12094,note_on,94,0,6,,,,,,,,,5,,,62,0
12096,note_on,2,0,4,,,,,,,,,3,,,67,92
12096,note_on,0,0,6,,,,,,,,,5,,,67,92
12096,note_on,2,0,1,,,,,,,,,0,,,71,92
12096,note_on,32,0,5,,,,,,,,,4,,,62,92
12096,note_on,2,0,8,,,,,,,,,7,,,43,92
12096,note_on,0,0,6,,,,,,,,,5,,,71,92
12096,note_on,2,0,3,,,,,,,,,2,,,71,92
12096,note_on,2,0,2,,,,,,,,,1,,,43,92
12096,note_on,2,0,7,,,,,,,,,5,,,43,92
12096,note_on,2,0,6,,,,,,,,,5,,,62,92
12144,note_on,48,0,4,,,,,,,,,3,,,67,0
12144,note_on,48,0,1,,,,,,,,,0,,,71,0
12144,note_on,0,0,3,,,,,,,,,2,,,69,92
12144,note_on,48,0,3,,,,,,,,,2,,,71,0
12144,note_on,0,0,4,,,,,,,,,3,,,69,92
12144,note_on,0,0,1,,,,,,,,,0,,,69,92
12190,note_on,94,0,7,,,,,,,,,5,,,43,0
12190,note_on,94,0,8,,,,,,,,,7,,,43,0
12190,note_on,94,0,2,,,,,,,,,1,,,43,0
12192,note_on,0,0,1,,,,,,,,,0,,,67,92
12192,note_on,48,0,1,,,,,,,,,0,,,69,0
12192,note_on,0,0,4,,,,,,,,,3,,,71,92
12192,note_on,48,0,3,,,,,,,,,2,,,69,0
12192,note_on,2,0,8,,,,,,,,,7,,,55,92
12192,note_on,48,0,4,,,,,,,,,3,,,69,0
12192,note_on,2,0,7,,,,,,,,,5,,,55,92
12192,note_on,2,0,2,,,,,,,,,1,,,55,92
12192,note_on,0,0,3,,,,,,,,,2,,,67,92
12286,note_on,94,0,7,,,,,,,,,5,,,55,0
12286,note_on,94,0,2,,,,,,,,,1,,,55,0
12286,note_on,94,0,8,,,,,,,,,7,,,55,0
12286,note_on,94,0,4,,,,,,,,,3,,,71,0
12286,note_on,94,0,3,,,,,,,,,2,,,67,0
12286,note_on,94,0,1,,,,,,,,,0,,,67,0
12288,note_on,2,0,7,,,,,,,,,5,,,43,92
12288,note_on,2,0,1,,,,,,,,,0,,,79,92
12288,note_on,2,0,2,,,,,,,,,1,,,43,92
12288,note_on,2,0,8,,,,,,,,,7,,,43,92
12288,note_on,2,0,3,,,,,,,,,2,,,79,92
12288,note_on,2,0,4,,,,,,,,,3,,,67,92
12352,note_on,0,0,6,,,,,,,,,5,,,71,0
12352,note_on,0,0,6,,,,,,,,,5,,,67,0
12352,note_on,256,0,6,,,,,,,,,5,,,62,0
12352,note_on,256,0,5,,,,,,,,,4,,,62,0
12382,note_on,94,0,3,,,,,,,,,2,,,79,0
12382,note_on,94,0,7,,,,,,,,,5,,,43,0
12382,note_on,94,0,1,,,,,,,,,0,,,79,0
12382,note_on,94,0,4,,,,,,,,,3,,,67,0
12382,note_on,94,0,8,,,,,,,,,7,,,43,0
12382,note_on,94,0,2,,,,,,,,,1,,,43,0
12384,note_on,32,0,6,,,,,,,,,5,,,62,92
12384,note_on,0,0,6,,,,,,,,,5,,,67,92
12384,note_on,2,0,7,,,,,,,,,5,,,43,92
12384,note_on,0,0,6,,,,,,,,,5,,,71,92
12384,note_on,32,0,5,,,,,,,,,4,,,62,92
12384,note_on,2,0,1,,,,,,,,,0,,,71,92
12384,note_on,2,0,3,,,,,,,,,2,,,71,92
12384,note_on,2,0,8,,,,,,,,,7,,,43,92
12384,note_on,2,0,4,,,,,,,,,3,,,67,92
12384,note_on,2,0,2,,,,,,,,,1,,,43,92
12478,note_on,94,0,2,,,,,,,,,1,,,43,0
12478,note_on,94,0,7,,,,,,,,,5,,,43,0
12478,note_on,94,0,4,,,,,,,,,3,,,67,0
12478,note_on,94,0,5,,,,,,,,,4,,,62,0
12478,note_on,94,0,1,,,,,,,,,0,,,71,0
12478,note_on,94,0,6,,,,,,,,,5,,,62,0
12478,note_on,0,0,6,,,,,,,,,5,,,67,0
12478,note_on,0,0,6,,,,,,,,,5,,,71,0
12478,note_on,94,0,8,,,,,,,,,7,,,43,0
12478,note_on,94,0,3,,,,,,,,,2,,,71,0
12480,note_on,2,0,8,,,,,,,,,7,,,48,92
12480,note_on,2,0,4,,,,,,,,,3,,,69,92
12480,note_on,2,0,1,,,,,,,,,0,,,72,92
12480,note_on,0,0,6,,,,,,,,,5,,,69,92
12480,note_on,2,0,5,,,,,,,,,4,,,64,92
12480,note_on,2,0,2,,,,,,,,,1,,,48,92
12480,note_on,2,0,7,,,,,,,,,5,,,48,92
12480,note_on,2,0,6,,,,,,,,,5,,,64,92
12480,note_on,2,0,3,,,,,,,,,2,,,72,92
12574,note_on,94,0,2,,,,,,,,,1,,,48,0
12574,note_on,94,0,8,,,,,,,,,7,,,48,0
12574,note_on,94,0,3,,,,,,,,,2,,,72,0
12574,note_on,94,0,1,,,,,,,,,0,,,72,0
12574,note_on,94,0,5,,,,,,,,,4,,,64,0
12574,note_on,94,0,4,,,,,,,,,3,,,69,0
12574,note_on,94,0,6,,,,,,,,,5,,,64,0
12574,note_on,0,0,6,,,,,,,,,5,,,69,0
12574,note_on,94,0,7,,,,,,,,,5,,,48,0
12576,note_on,2,0,1,,,,,,,,,0,,,69,92
12576,note_on,2,0,3,,,,,,,,,2,,,69,92
12576,note_on,0,0,6,,,,,,,,,5,,,69,92
12576,note_on,0,0,6,,,,,,,,,5,,,66,92
12576,note_on,2,0,6,,,,,,,,,5,,,62,92
12576,note_on,2,0,8,,,,,,,,,7,,,50,92
12576,note_on,2,0,7,,,,,,,,,5,,,50,92
12576,note_on,2,0,2,,,,,,,,,1,,,50,92
12576,note_on,2,0,5,,,,,,,,,4,,,62,92
12576,note_on,2,0,4,,,,,,,,,3,,,66,92
12670,note_on,94,0,6,,,,,,,,,5,,,62,0
12670,note_on,94,0,7,,,,,,,,,5,,,50,0
12670,note_on,0,0,6,,,,,,,,,5,,,66,0
12670,note_on,0,0,6,,,,,,,,,5,,,69,0
12670,note_on,94,0,3,,,,,,,,,2,,,69,0
12670,note_on,94,0,2,,,,,,,,,1,,,50,0
12670,note_on,94,0,8,,,,,,,,,7,,,50,0
12670,note_on,94,0,1,,,,,,,,,0,,,69,0
12670,note_on,94,0,5,,,,,,,,,4,,,62,0
12670,note_on,94,0,4,,,,,,,,,3,,,66,0
12672,note_on,2,0,2,,,,,,,,,1,,,43,92
12672,note_on,2,0,1,,,,,,,,,0,,,67,92
12672,note_on,2,0,5,,,,,,,,,4,,,59,92
12672,note_on,0,0,6,,,,,,,,,5,,,62,92
12672,note_on,2,0,6,,,,,,,,,5,,,59,92
12672,note_on,2,0,4,,,,,,,,,3,,,67,92
12672,note_on,2,0,3,,,,,,,,,2,,,67,92
12672,note_on,2,0,7,,,,,,,,,5,,,43,92
12672,note_on,2,0,8,,,,,,,,,7,,,43,92
12672,note_on,0,0,6,,,,,,,,,5,,,67,92
12928,note_on,256,0,2,,,,,,,,,1,,,43,0
12928,note_on,256,0,7,,,,,,,,,5,,,43,0
12928,note_on,0,0,6,,,,,,,,,5,,,67,0
12928,note_on,256,0,6,,,,,,,,,5,,,59,0
12928,note_on,256,0,4,,,,,,,,,3,,,67,0
12928,note_on,256,0,3,,,,,,,,,2,,,67,0
12928,note_on,256,0,8,,,,,,,,,7,,,43,0
12928,note_on,0,0,6,,,,,,,,,5,,,62,0
12928,note_on,256,0,5,,,,,,,,,4,,,59,0
12928,note_on,256,0,1,,,,,,,,,0,,,67,0
13152,note_on,224,0,1,,,,,,,,,0,,,74,108
13246,note_on,94,0,1,,,,,,,,,0,,,74,0
13248,note_on,2,0,1,,,,,,,,,0,,,79,108
13344,note_on,96,0,1,,,,,,,,,0,,,79,0
13344,note_on,0,0,1,,,,,,,,,0,,,78,108
13440,note_on,0,0,1,,,,,,,,,0,,,79,108
13440,note_on,96,0,1,,,,,,,,,0,,,78,0
13534,note_on,94,0,1,,,,,,,,,0,,,79,0
13536,note_on,2,0,1,,,,,,,,,0,,,79,108
13632,note_on,96,0,1,,,,,,,,,0,,,79,0
13632,note_on,0,0,1,,,,,,,,,0,,,78,108
13728,note_on,96,0,1,,,,,,,,,0,,,78,0
13728,note_on,800,0,2,,,,,,,,,1,,,43,108
13728,note_on,800,0,7,,,,,,,,,5,,,43,60
13728,note_on,800,0,6,,,,,,,,,5,,,62,60
13728,note_on,0,0,6,,,,,,,,,5,,,71,60
13728,note_on,0,0,6,,,,,,,,,5,,,67,60
13728,note_on,0,0,1,,,,,,,,,0,,,79,108
13728,note_on,800,0,8,,,,,,,,,7,,,43,45
13822,note_on,94,0,1,,,,,,,,,0,,,79,0
13822,note_on,94,0,7,,,,,,,,,5,,,43,0
13822,note_on,94,0,2,,,,,,,,,1,,,43,0
13822,note_on,94,0,6,,,,,,,,,5,,,62,0
13822,note_on,94,0,8,,,,,,,,,7,,,43,0
13822,note_on,0,0,6,,,,,,,,,5,,,67,0
13822,note_on,0,0,6,,,,,,,,,5,,,71,0
13824,note_on,2,0,6,,,,,,,,,5,,,62,60
13824,note_on,0,0,6,,,,,,,,,5,,,71,60
13824,note_on,2,0,1,,,,,,,,,0,,,79,108
13824,note_on,2,0,7,,,,,,,,,5,,,55,60
13824,note_on,0,0,6,,,,,,,,,5,,,67,60
13824,note_on,2,0,8,,,,,,,,,7,,,55,45
13824,note_on,2,0,2,,,,,,,,,1,,,55,108
13920,note_on,0,0,2,,,,,,,,,1,,,54,108
13920,note_on,96,0,2,,,,,,,,,1,,,55,0
14014,note_on,94,0,2,,,,,,,,,1,,,54,0
14016,note_on,2,0,2,,,,,,,,,1,,,55,108
14080,note_on,0,0,6,,,,,,,,,5,,,67,0
14080,note_on,256,0,7,,,,,,,,,5,,,55,0
14080,note_on,256,0,8,,,,,,,,,7,,,55,0
14080,note_on,256,0,6,,,,,,,,,5,,,62,0
14080,note_on,0,0,6,,,,,,,,,5,,,71,0
14110,note_on,94,0,2,,,,,,,,,1,,,55,0
14112,note_on,0,0,6,,,,,,,,,5,,,67,60
14112,note_on,0,0,6,,,,,,,,,5,,,71,60
14112,note_on,32,0,6,,,,,,,,,5,,,62,60
14112,note_on,2,0,2,,,,,,,,,1,,,55,108
14112,note_on,32,0,7,,,,,,,,,5,,,55,60
14112,note_on,32,0,8,,,,,,,,,7,,,55,45
14208,note_on,96,0,2,,,,,,,,,1,,,55,0
14208,note_on,0,0,2,,,,,,,,,1,,,54,108
14272,note_on,448,0,1,,,,,,,,,0,,,79,0
14302,note_on,94,0,2,,,,,,,,,1,,,54,0
14304,note_on,32,0,1,,,,,,,,,0,,,83,108
14304,note_on,2,0,2,,,,,,,,,1,,,55,108
14368,note_on,0,0,6,,,,,,,,,5,,,67,0
14368,note_on,256,0,7,,,,,,,,,5,,,55,0
14368,note_on,0,0,6,,,,,,,,,5,,,71,0
14368,note_on,256,0,6,,,,,,,,,5,,,62,0
14368,note_on,256,0,8,,,,,,,,,7,,,55,0
14398,note_on,94,0,1,,,,,,,,,0,,,83,0
14398,note_on,94,0,2,,,,,,,,,1,,,55,0
14400,note_on,32,0,7,,,,,,,,,5,,,50,60
14400,note_on,2,0,2,,,,,,,,,1,,,50,108
14400,note_on,2,0,1,,,,,,,,,0,,,81,108
14400,note_on,32,0,6,,,,,,,,,5,,,62,60
14400,note_on,0,0,6,,,,,,,,,5,,,66,60
14400,note_on,0,0,6,,,,,,,,,5,,,69,60
14400,note_on,32,0,8,,,,,,,,,7,,,50,45
14494,note_on,94,0,1,,,,,,,,,0,,,81,0
14496,note_on,2,0,1,,,,,,,,,0,,,79,108
14590,note_on,94,0,1,,,,,,,,,0,,,79,0
14592,note_on,2,0,1,,,,,,,,,0,,,78,108
14656,note_on,256,0,6,,,,,,,,,5,,,62,0
14656,note_on,0,0,6,,,,,,,,,5,,,66,0
14656,note_on,256,0,8,,,,,,,,,7,,,50,0
14656,note_on,0,0,6,,,,,,,,,5,,,69,0
14656,note_on,256,0,7,,,,,,,,,5,,,50,0
14656,note_on,256,0,2,,,,,,,,,1,,,50,0
14686,note_on,94,0,1,,,,,,,,,0,,,78,0
14688,note_on,32,0,7,,,,,,,,,5,,,54,60
14688,note_on,0,0,6,,,,,,,,,5,,,69,60
14688,note_on,32,0,6,,,,,,,,,5,,,62,60
14688,note_on,2,0,1,,,,,,,,,0,,,76,108
14688,note_on,32,0,2,,,,,,,,,1,,,54,108
14688,note_on,32,0,8,,,,,,,,,7,,,54,45
14688,note_on,0,0,6,,,,,,,,,5,,,72,60
14782,note_on,94,0,1,,,,,,,,,0,,,76,0
14784,note_on,2,0,1,,,,,,,,,0,,,74,108
14878,note_on,94,0,1,,,,,,,,,0,,,74,0
14880,note_on,2,0,1,,,,,,,,,0,,,72,108
14944,note_on,256,0,7,,,,,,,,,5,,,54,0
14944,note_on,256,0,8,,,,,,,,,7,,,54,0
14944,note_on,256,0,2,,,,,,,,,1,,,54,0
14944,note_on,0,0,6,,,,,,,,,5,,,72,0
14944,note_on,256,0,6,,,,,,,,,5,,,62,0
14944,note_on,0,0,6,,,,,,,,,5,,,69,0
14974,note_on,94,0,1,,,,,,,,,0,,,72,0
14976,note_on,2,0,1,,,,,,,,,0,,,72,108
14976,note_on,32,0,2,,,,,,,,,1,,,55,108
14976,note_on,32,0,7,,,,,,,,,5,,,55,60
14976,note_on,32,0,8,,,,,,,,,7,,,55,45
14976,note_on,0,0,6,,,,,,,,,5,,,67,60
14976,note_on,32,0,6,,,,,,,,,5,,,64,60
14976,note_on,0,0,6,,,,,,,,,5,,,72,60
15070,note_on,94,0,2,,,,,,,,,1,,,55,0
15072,note_on,2,0,2,,,,,,,,,1,,,43,108
15136,note_on,160,0,1,,,,,,,,,0,,,72,0
15136,note_on,160,0,6,,,,,,,,,5,,,64,0
15136,note_on,0,0,6,,,,,,,,,5,,,72,0
15136,note_on,0,0,6,,,,,,,,,5,,,67,0
15166,note_on,94,0,2,,,,,,,,,1,,,43,0
15168,note_on,2,0,2,,,,,,,,,1,,,55,108
15168,note_on,32,0,6,,,,,,,,,5,,,62,60
15168,note_on,0,0,6,,,,,,,,,5,,,67,60
15168,note_on,0,0,6,,,,,,,,,5,,,71,60
15168,note_on,32,0,1,,,,,,,,,0,,,71,108
15232,note_on,256,0,8,,,,,,,,,7,,,55,0
15232,note_on,256,0,7,,,,,,,,,5,,,55,0
15262,note_on,94,0,1,,,,,,,,,0,,,71,0
15262,note_on,0,0,6,,,,,,,,,5,,,71,0
15262,note_on,0,0,6,,,,,,,,,5,,,67,0
15262,note_on,94,0,2,,,,,,,,,1,,,55,0
15262,note_on,94,0,6,,,,,,,,,5,,,62,0
15264,note_on,0,0,6,,,,,,,,,5,,,72,60
15264,note_on,2,0,6,,,,,,,,,5,,,64,60
15264,note_on,2,0,2,,,,,,,,,1,,,60,108
15264,note_on,32,0,8,,,,,,,,,7,,,60,45
15264,note_on,32,0,7,,,,,,,,,5,,,60,60
15264,note_on,0,0,6,,,,,,,,,5,,,67,60
15358,note_on,94,0,2,,,,,,,,,1,,,60,0
15360,note_on,2,0,2,,,,,,,,,1,,,43,108
15454,note_on,94,0,2,,,,,,,,,1,,,43,0
15456,note_on,194,0,1,,,,,,,,,0,,,76,108
15456,note_on,2,0,2,,,,,,,,,1,,,60,108
15520,note_on,256,0,6,,,,,,,,,5,,,64,0
15520,note_on,0,0,6,,,,,,,,,5,,,67,0
15520,note_on,0,0,6,,,,,,,,,5,,,72,0
15520,note_on,256,0,8,,,,,,,,,7,,,60,0
15520,note_on,256,0,7,,,,,,,,,5,,,60,0
15550,note_on,94,0,2,,,,,,,,,1,,,60,0
15550,note_on,94,0,1,,,,,,,,,0,,,76,0
15552,note_on,32,0,7,,,,,,,,,5,,,59,60
15552,note_on,2,0,1,,,,,,,,,0,,,74,108
15552,note_on,2,0,2,,,,,,,,,1,,,59,108
15552,note_on,32,0,6,,,,,,,,,5,,,62,60
15552,note_on,32,0,8,,,,,,,,,7,,,59,45
15552,note_on,0,0,6,,,,,,,,,5,,,67,60
15552,note_on,0,0,6,,,,,,,,,5,,,74,60
15646,note_on,94,0,2,,,,,,,,,1,,,59,0
15648,note_on,2,0,2,,,,,,,,,1,,,43,108
15742,note_on,94,0,2,,,,,,,,,1,,,43,0
15744,note_on,2,0,2,,,,,,,,,1,,,59,108
15808,note_on,0,0,6,,,,,,,,,5,,,67,0
15808,note_on,256,0,6,,,,,,,,,5,,,62,0
15808,note_on,0,0,6,,,,,,,,,5,,,74,0
15808,note_on,256,0,8,,,,,,,,,7,,,59,0
15808,note_on,256,0,1,,,,,,,,,0,,,74,0
15808,note_on,256,0,7,,,,,,,,,5,,,59,0
15838,note_on,94,0,2,,,,,,,,,1,,,59,0
15840,note_on,32,0,8,,,,,,,,,7,,,57,45
15840,note_on,32,0,6,,,,,,,,,5,,,60,60
15840,note_on,2,0,2,,,,,,,,,1,,,57,108
15840,note_on,32,0,1,,,,,,,,,0,,,72,108
15840,note_on,0,0,6,,,,,,,,,5,,,66,60
15840,note_on,32,0,7,,,,,,,,,5,,,57,60
15934,note_on,94,0,2,,,,,,,,,1,,,57,0
15936,note_on,2,0,2,,,,,,,,,1,,,43,108
16030,note_on,94,0,2,,,,,,,,,1,,,43,0
16032,note_on,2,0,2,,,,,,,,,1,,,57,108
16096,note_on,256,0,7,,,,,,,,,5,,,57,0
16096,note_on,256,0,6,,,,,,,,,5,,,60,0
16096,note_on,256,0,1,,,,,,,,,0,,,72,0
16096,note_on,0,0,6,,,,,,,,,5,,,66,0
16096,note_on,256,0,8,,,,,,,,,7,,,57,0
16126,note_on,94,0,2,,,,,,,,,1,,,57,0
16128,note_on,32,0,7,,,,,,,,,5,,,55,60
16128,note_on,32,0,6,,,,,,,,,5,,,59,60
16128,note_on,0,0,6,,,,,,,,,5,,,67,60
16128,note_on,2,0,2,,,,,,,,,1,,,55,108
16128,note_on,32,0,8,,,,,,,,,7,,,55,45
16128,note_on,0,0,6,,,,,,,,,5,,,62,60
16128,note_on,32,0,1,,,,,,,,,0,,,71,108
16176,note_on,0,0,1,,,,,,,,,0,,,69,108
16176,note_on,48,0,1,,,,,,,,,0,,,71,0
16222,note_on,94,0,2,,,,,,,,,1,,,55,0
16224,note_on,48,0,1,,,,,,,,,0,,,69,0
16224,note_on,0,0,1,,,,,,,,,0,,,67,108
16224,note_on,2,0,2,,,,,,,,,1,,,43,108
16318,note_on,94,0,2,,,,,,,,,1,,,43,0
16318,note_on,94,0,1,,,,,,,,,0,,,67,0
16320,note_on,2,0,2,,,,,,,,,1,,,55,108
16384,note_on,256,0,7,,,,,,,,,5,,,55,0
16384,note_on,256,0,6,,,,,,,,,5,,,59,0
16384,note_on,256,0,8,,,,,,,,,7,,,55,0
16384,note_on,0,0,6,,,,,,,,,5,,,62,0
16384,note_on,0,0,6,,,,,,,,,5,,,67,0
16414,note_on,94,0,2,,,,,,,,,1,,,55,0
16416,note_on,2,0,2,,,,,,,,,1,,,60,108
16416,note_on,32,0,6,,,,,,,,,5,,,67,60
16416,note_on,32,0,7,,,,,,,,,5,,,60,60
16416,note_on,32,0,8,,,,,,,,,7,,,60,45
16416,note_on,0,0,6,,,,,,,,,5,,,72,60
16416,note_on,0,0,6,,,,,,,,,5,,,76,60
16510,note_on,94,0,2,,,,,,,,,1,,,60,0
16512,note_on,2,0,2,,,,,,,,,1,,,43,108
16606,note_on,94,0,2,,,,,,,,,1,,,43,0
16608,note_on,290,0,1,,,,,,,,,0,,,76,108
16608,note_on,2,0,2,,,,,,,,,1,,,60,108
16672,note_on,256,0,7,,,,,,,,,5,,,60,0
16672,note_on,256,0,6,,,,,,,,,5,,,67,0
16672,note_on,256,0,8,,,,,,,,,7,,,60,0
16672,note_on,0,0,6,,,,,,,,,5,,,72,0
16672,note_on,0,0,6,,,,,,,,,5,,,76,0
16702,note_on,94,0,2,,,,,,,,,1,,,60,0
16702,note_on,94,0,1,,,,,,,,,0,,,76,0
16704,note_on,32,0,6,,,,,,,,,5,,,67,60
16704,note_on,0,0,6,,,,,,,,,5,,,74,60
16704,note_on,32,0,7,,,,,,,,,5,,,59,60
16704,note_on,32,0,8,,,,,,,,,7,,,59,45
16704,note_on,2,0,1,,,,,,,,,0,,,74,108
16704,note_on,2,0,2,,,,,,,,,1,,,59,108
16798,note_on,94,0,2,,,,,,,,,1,,,59,0
16800,note_on,2,0,2,,,,,,,,,1,,,43,108
16894,note_on,94,0,2,,,,,,,,,1,,,43,0
16896,note_on,2,0,2,,,,,,,,,1,,,59,108
16960,note_on,256,0,7,,,,,,,,,5,,,59,0
16960,note_on,256,0,1,,,,,,,,,0,,,74,0
16960,note_on,0,0,6,,,,,,,,,5,,,74,0
16960,note_on,256,0,6,,,,,,,,,5,,,67,0
16960,note_on,256,0,8,,,,,,,,,7,,,59,0
16990,note_on,94,0,2,,,,,,,,,1,,,59,0
16992,note_on,32,0,1,,,,,,,,,0,,,72,108
16992,note_on,32,0,6,,,,,,,,,5,,,60,60
16992,note_on,0,0,6,,,,,,,,,5,,,66,60
16992,note_on,32,0,7,,,,,,,,,5,,,57,60
16992,note_on,2,0,2,,,,,,,,,1,,,57,108
16992,note_on,32,0,8,,,,,,,,,7,,,57,45
17086,note_on,94,0,2,,,,,,,,,1,,,57,0
17088,note_on,2,0,2,,,,,,,,,1,,,43,108
17182,note_on,94,0,2,,,,,,,,,1,,,43,0
17184,note_on,2,0,2,,,,,,,,,1,,,57,108
17248,note_on,0,0,6,,,,,,,,,5,,,66,0
17248,note_on,256,0,6,,,,,,,,,5,,,60,0
17248,note_on,256,0,8,,,,,,,,,7,,,57,0
17248,note_on,256,0,7,,,,,,,,,5,,,57,0
17248,note_on,256,0,1,,,,,,,,,0,,,72,0
17278,note_on,94,0,2,,,,,,,,,1,,,57,0
17280,note_on,32,0,1,,,,,,,,,0,,,71,108
17280,note_on,32,0,8,,,,,,,,,7,,,55,45
17280,note_on,32,0,7,,,,,,,,,5,,,55,60
17280,note_on,2,0,2,,,,,,,,,1,,,55,108
17280,note_on,0,0,6,,,,,,,,,5,,,67,60
17280,note_on,0,0,6,,,,,,,,,5,,,62,60
17280,note_on,32,0,6,,,,,,,,,5,,,59,60
17328,note_on,0,0,1,,,,,,,,,0,,,69,108
17328,note_on,48,0,1,,,,,,,,,0,,,71,0
17374,note_on,94,0,2,,,,,,,,,1,,,55,0
17376,note_on,0,0,1,,,,,,,,,0,,,67,108
17376,note_on,48,0,1,,,,,,,,,0,,,69,0
17376,note_on,2,0,2,,,,,,,,,1,,,43,108
17470,note_on,94,0,2,,,,,,,,,1,,,43,0
17470,note_on,94,0,1,,,,,,,,,0,,,67,0
17472,note_on,2,0,2,,,,,,,,,1,,,55,108
17536,note_on,256,0,8,,,,,,,,,7,,,55,0
17536,note_on,256,0,7,,,,,,,,,5,,,55,0
17536,note_on,256,0,6,,,,,,,,,5,,,59,0
17536,note_on,0,0,6,,,,,,,,,5,,,62,0
17536,note_on,0,0,6,,,,,,,,,5,,,67,0
17566,note_on,94,0,2,,,,,,,,,1,,,55,0
17568,note_on,2,0,2,,,,,,,,,1,,,59,108
17568,note_on,0,0,6,,,,,,,,,5,,,74,60
17568,note_on,32,0,7,,,,,,,,,5,,,59,60
17568,note_on,0,0,6,,,,,,,,,5,,,67,60
17568,note_on,32,0,6,,,,,,,,,5,,,62,60
17568,note_on,32,0,8,,,,,,,,,7,,,59,45
17662,note_on,94,0,2,,,,,,,,,1,,,59,0
17664,note_on,2,0,2,,,,,,,,,1,,,43,108
17758,note_on,94,0,2,,,,,,,,,1,,,43,0
17760,note_on,2,0,2,,,,,,,,,1,,,59,108
17760,note_on,290,0,1,,,,,,,,,0,,,79,108
17824,note_on,0,0,6,,,,,,,,,5,,,67,0
17824,note_on,256,0,8,,,,,,,,,7,,,59,0
17824,note_on,256,0,7,,,,,,,,,5,,,59,0
17824,note_on,0,0,6,,,,,,,,,5,,,74,0
17824,note_on,256,0,6,,,,,,,,,5,,,62,0
17854,note_on,94,0,1,,,,,,,,,0,,,79,0
17854,note_on,94,0,2,,,,,,,,,1,,,59,0
17856,note_on,0,0,6,,,,,,,,,5,,,71,60
17856,note_on,32,0,7,,,,,,,,,5,,,55,60
17856,note_on,2,0,1,,,,,,,,,0,,,76,108
17856,note_on,32,0,6,,,,,,,,,5,,,64,60
17856,note_on,2,0,2,,,,,,,,,1,,,55,108
17856,note_on,32,0,8,,,,,,,,,7,,,55,45
17950,note_on,94,0,2,,,,,,,,,1,,,55,0
17952,note_on,2,0,2,,,,,,,,,1,,,43,108
18046,note_on,94,0,2,,,,,,,,,1,,,43,0
18048,note_on,2,0,2,,,,,,,,,1,,,55,108
18112,note_on,256,0,6,,,,,,,,,5,,,64,0
18112,note_on,0,0,6,,,,,,,,,5,,,71,0
18112,note_on,256,0,7,,,,,,,,,5,,,55,0
18112,note_on,256,0,1,,,,,,,,,0,,,76,0
18112,note_on,256,0,8,,,,,,,,,7,,,55,0
18142,note_on,94,0,2,,,,,,,,,1,,,55,0
18144,note_on,32,0,6,,,,,,,,,5,,,62,60
18144,note_on,32,0,7,,,,,,,,,5,,,56,60
18144,note_on,32,0,1,,,,,,,,,0,,,74,108
18144,note_on,0,0,6,,,,,,,,,5,,,71,60
18144,note_on,32,0,8,,,,,,,,,7,,,56,45
18144,note_on,2,0,2,,,,,,,,,1,,,56,108
18144,note_on,0,0,6,,,,,,,,,5,,,64,60
18238,note_on,94,0,2,,,,,,,,,1,,,56,0
18240,note_on,2,0,2,,,,,,,,,1,,,52,108
18334,note_on,94,0,2,,,,,,,,,1,,,52,0
18336,note_on,2,0,2,,,,,,,,,1,,,56,108
18400,note_on,256,0,8,,,,,,,,,7,,,56,0
18400,note_on,256,0,7,,,,,,,,,5,,,56,0
18400,note_on,0,0,6,,,,,,,,,5,,,64,0
18400,note_on,0,0,6,,,,,,,,,5,,,71,0
18400,note_on,256,0,1,,,,,,,,,0,,,74,0
18400,note_on,256,0,6,,,,,,,,,5,,,62,0
18430,note_on,94,0,2,,,,,,,,,1,,,56,0
18432,note_on,0,0,6,,,,,,,,,5,,,64,60
18432,note_on,0,0,6,,,,,,,,,5,,,69,60
18432,note_on,32,0,7,,,,,,,,,5,,,57,60
18432,note_on,2,0,2,,,,,,,,,1,,,57,108
18432,note_on,32,0,1,,,,,,,,,0,,,73,108
18432,note_on,32,0,6,,,,,,,,,5,,,61,60
18432,note_on,32,0,8,,,,,,,,,7,,,57,45
18480,note_on,0,0,1,,,,,,,,,0,,,71,108
18480,note_on,48,0,1,,,,,,,,,0,,,73,0
18526,note_on,94,0,2,,,,,,,,,1,,,57,0
18528,note_on,2,0,2,,,,,,,,,1,,,45,108
18528,note_on,48,0,1,,,,,,,,,0,,,71,0
18528,note_on,0,0,1,,,,,,,,,0,,,69,108
18622,note_on,94,0,1,,,,,,,,,0,,,69,0
18622,note_on,94,0,2,,,,,,,,,1,,,45,0
18624,note_on,2,0,2,,,,,,,,,1,,,57,108
18688,note_on,256,0,6,,,,,,,,,5,,,61,0
18688,note_on,0,0,6,,,,,,,,,5,,,64,0
18688,note_on,0,0,6,,,,,,,,,5,,,69,0
18688,note_on,256,0,7,,,,,,,,,5,,,57,0
18688,note_on,256,0,8,,,,,,,,,7,,,57,0
18718,note_on,94,0,2,,,,,,,,,1,,,57,0
18720,note_on,32,0,7,,,,,,,,,5,,,61,60
18720,note_on,32,0,6,,,,,,,,,5,,,67,60
18720,note_on,0,0,6,,,,,,,,,5,,,69,60
18720,note_on,0,0,6,,,,,,,,,5,,,76,60
18720,note_on,32,0,8,,,,,,,,,7,,,61,45
18720,note_on,2,0,2,,,,,,,,,1,,,61,108
18814,note_on,94,0,2,,,,,,,,,1,,,61,0
18816,note_on,2,0,2,,,,,,,,,1,,,45,108
18910,note_on,94,0,2,,,,,,,,,1,,,45,0
18912,note_on,290,0,1,,,,,,,,,0,,,76,108
18912,note_on,2,0,2,,,,,,,,,1,,,61,108
18976,note_on,256,0,8,,,,,,,,,7,,,61,0
18976,note_on,0,0,6,,,,,,,,,5,,,76,0
18976,note_on,0,0,6,,,,,,,,,5,,,69,0
18976,note_on,256,0,6,,,,,,,,,5,,,67,0
18976,note_on,256,0,7,,,,,,,,,5,,,61,0
19006,note_on,94,0,1,,,,,,,,,0,,,76,0
19006,note_on,94,0,2,,,,,,,,,1,,,61,0
19008,note_on,2,0,2,,,,,,,,,1,,,62,108
19008,note_on,2,0,1,,,,,,,,,0,,,78,108
19008,note_on,32,0,8,,,,,,,,,7,,,62,45
19008,note_on,0,0,6,,,,,,,,,5,,,69,60
19008,note_on,0,0,6,,,,,,,,,5,,,74,60
19008,note_on,32,0,7,,,,,,,,,5,,,62,60
19008,note_on,32,0,6,,,,,,,,,5,,,66,60
19104,note_on,0,0,1,,,,,,,,,0,,,79,108
19104,note_on,96,0,1,,,,,,,,,0,,,78,0
19168,note_on,160,0,2,,,,,,,,,1,,,62,0
19168,note_on,160,0,8,,,,,,,,,7,,,62,0
19168,note_on,160,0,7,,,,,,,,,5,,,62,0
19168,note_on,0,0,6,,,,,,,,,5,,,74,0
19168,note_on,0,0,6,,,,,,,,,5,,,69,0
19168,note_on,160,0,6,,,,,,,,,5,,,66,0
19200,note_on,96,0,1,,,,,,,,,0,,,79,0
19200,note_on,0,0,1,,,,,,,,,0,,,81,108
19294,note_on,94,0,1,,,,,,,,,0,,,81,0
19296,note_on,0,0,6,,,,,,,,,5,,,74,60
19296,note_on,0,0,6,,,,,,,,,5,,,69,60
19296,note_on,128,0,6,,,,,,,,,5,,,66,60
19296,note_on,128,0,2,,,,,,,,,1,,,50,108
19296,note_on,2,0,1,,,,,,,,,0,,,81,108
19296,note_on,128,0,7,,,,,,,,,5,,,50,60
19296,note_on,128,0,8,,,,,,,,,7,,,50,45
19392,note_on,96,0,1,,,,,,,,,0,,,81,0
19392,note_on,0,0,1,,,,,,,,,0,,,79,108
19456,note_on,160,0,2,,,,,,,,,1,,,50,0
19456,note_on,0,0,6,,,,,,,,,5,,,74,0
19456,note_on,160,0,8,,,,,,,,,7,,,50,0
19456,note_on,160,0,7,,,,,,,,,5,,,50,0
19456,note_on,160,0,6,,,,,,,,,5,,,66,0
19456,note_on,0,0,6,,,,,,,,,5,,,69,0
19488,note_on,0,0,1,,,,,,,,,0,,,78,108
19488,note_on,96,0,1,,,,,,,,,0,,,79,0
19582,note_on,94,0,1,,,,,,,,,0,,,78,0
19584,note_on,0,0,6,,,,,,,,,5,,,76,60
19584,note_on,2,0,1,,,,,,,,,0,,,76,108
19584,note_on,128,0,6,,,,,,,,,5,,,67,60
19584,note_on,0,0,6,,,,,,,,,5,,,69,60
19584,note_on,128,0,8,,,,,,,,,7,,,61,45
19584,note_on,128,0,2,,,,,,,,,1,,,61,108
19584,note_on,128,0,7,,,,,,,,,5,,,61,60
19680,note_on,0,0,1,,,,,,,,,0,,,78,108
19680,note_on,96,0,1,,,,,,,,,0,,,76,0
19744,note_on,160,0,7,,,,,,,,,5,,,61,0
19744,note_on,0,0,6,,,,,,,,,5,,,69,0
19744,note_on,160,0,2,,,,,,,,,1,,,61,0
19744,note_on,160,0,8,,,,,,,,,7,,,61,0
19744,note_on,160,0,6,,,,,,,,,5,,,67,0
19744,note_on,0,0,6,,,,,,,,,5,,,76,0
19776,note_on,0,0,1,,,,,,,,,0,,,79,108
19776,note_on,96,0,1,,,,,,,,,0,,,78,0
19870,note_on,94,0,1,,,,,,,,,0,,,79,0
19872,note_on,128,0,7,,,,,,,,,5,,,49,60
19872,note_on,128,0,6,,,,,,,,,5,,,67,60
19872,note_on,0,0,6,,,,,,,,,5,,,69,60
19872,note_on,0,0,6,,,,,,,,,5,,,76,60
19872,note_on,2,0,1,,,,,,,,,0,,,79,108
19872,note_on,128,0,8,,,,,,,,,7,,,49,45
19872,note_on,128,0,2,,,,,,,,,1,,,49,108
19968,note_on,96,0,1,,,,,,,,,0,,,79,0
19968,note_on,0,0,1,,,,,,,,,0,,,78,108
20032,note_on,160,0,6,,,,,,,,,5,,,67,0
20032,note_on,0,0,6,,,,,,,,,5,,,69,0
20032,note_on,0,0,6,,,,,,,,,5,,,76,0
20032,note_on,160,0,7,,,,,,,,,5,,,49,0
20032,note_on,160,0,2,,,,,,,,,1,,,49,0
20032,note_on,160,0,8,,,,,,,,,7,,,49,0
20064,note_on,96,0,1,,,,,,,,,0,,,78,0
20064,note_on,0,0,1,,,,,,,,,0,,,76,108
20158,note_on,94,0,1,,,,,,,,,0,,,76,0
20160,note_on,128,0,2,,,,,,,,,1,,,59,108
20160,note_on,2,0,1,,,,,,,,,0,,,74,108
20160,note_on,128,0,6,,,,,,,,,5,,,66,60
20160,note_on,0,0,6,,,,,,,,,5,,,71,60
20160,note_on,0,0,6,,,,,,,,,5,,,74,60
20160,note_on,128,0,7,,,,,,,,,5,,,59,60
20160,note_on,128,0,8,,,,,,,,,7,,,59,45
20256,note_on,96,0,1,,,,,,,,,0,,,74,0
20256,note_on,0,0,1,,,,,,,,,0,,,76,108
20320,note_on,160,0,8,,,,,,,,,7,,,59,0
20320,note_on,0,0,6,,,,,,,,,5,,,74,0
20320,note_on,0,0,6,,,,,,,,,5,,,71,0
20320,note_on,160,0,6,,,,,,,,,5,,,66,0
20320,note_on,160,0,2,,,,,,,,,1,,,59,0
20320,note_on,160,0,7,,,,,,,,,5,,,59,0
20352,note_on,0,0,1,,,,,,,,,0,,,78,108
20352,note_on,96,0,1,,,,,,,,,0,,,76,0
20446,note_on,94,0,1,,,,,,,,,0,,,78,0
20448,note_on,128,0,2,,,,,,,,,1,,,47,108
20448,note_on,0,0,6,,,,,,,,,5,,,74,60
20448,note_on,2,0,1,,,,,,,,,0,,,78,108
20448,note_on,128,0,7,,,,,,,,,5,,,47,60
20448,note_on,128,0,6,,,,,,,,,5,,,66,60
20448,note_on,128,0,8,,,,,,,,,7,,,47,45
20448,note_on,0,0,6,,,,,,,,,5,,,71,60
20544,note_on,0,0,1,,,,,,,,,0,,,76,108
20544,note_on,96,0,1,,,,,,,,,0,,,78,0
20608,note_on,160,0,8,,,,,,,,,7,,,47,0
20608,note_on,160,0,7,,,,,,,,,5,,,47,0
20608,note_on,0,0,6,,,,,,,,,5,,,74,0
20608,note_on,160,0,2,,,,,,,,,1,,,47,0
20608,note_on,160,0,6,,,,,,,,,5,,,66,0
20608,note_on,0,0,6,,,,,,,,,5,,,71,0
20640,note_on,0,0,1,,,,,,,,,0,,,74,108
20640,note_on,96,0,1,,,,,,,,,0,,,76,0
20734,note_on,94,0,1,,,,,,,,,0,,,74,0
20736,note_on,128,0,6,,,,,,,,,5,,,66,60
20736,note_on,0,0,6,,,,,,,,,5,,,73,60
20736,note_on,128,0,8,,,,,,,,,7,,,57,45
20736,note_on,2,0,1,,,,,,,,,0,,,73,108
20736,note_on,128,0,7,,,,,,,,,5,,,57,60
20736,note_on,128,0,2,,,,,,,,,1,,,57,108
20832,note_on,96,0,1,,,,,,,,,0,,,73,0
20832,note_on,0,0,1,,,,,,,,,0,,,74,108
20896,note_on,160,0,7,,,,,,,,,5,,,57,0
20896,note_on,0,0,6,,,,,,,,,5,,,73,0
20896,note_on,160,0,2,,,,,,,,,1,,,57,0
20896,note_on,160,0,8,,,,,,,,,7,,,57,0
20896,note_on,160,0,6,,,,,,,,,5,,,66,0
20928,note_on,0,0,1,,,,,,,,,0,,,76,108
20928,note_on,96,0,1,,,,,,,,,0,,,74,0
21022,note_on,94,0,1,,,,,,,,,0,,,76,0
21024,note_on,2,0,1,,,,,,,,,0,,,76,108
21024,note_on,128,0,6,,,,,,,,,5,,,64,60
21024,note_on,0,0,6,,,,,,,,,5,,,67,60
21024,note_on,128,0,2,,,,,,,,,1,,,45,108
21024,note_on,128,0,8,,,,,,,,,7,,,45,45
21024,note_on,128,0,7,,,,,,,,,5,,,45,60
21024,note_on,0,0,6,,,,,,,,,5,,,73,60
21120,note_on,0,0,1,,,,,,,,,0,,,74,108
21120,note_on,96,0,1,,,,,,,,,0,,,76,0
21184,note_on,0,0,6,,,,,,,,,5,,,73,0
21184,note_on,0,0,6,,,,,,,,,5,,,67,0
21184,note_on,160,0,6,,,,,,,,,5,,,64,0
21184,note_on,160,0,8,,,,,,,,,7,,,45,0
21184,note_on,160,0,2,,,,,,,,,1,,,45,0
21184,note_on,160,0,7,,,,,,,,,5,,,45,0
21216,note_on,0,0,1,,,,,,,,,0,,,73,108
21216,note_on,96,0,1,,,,,,,,,0,,,74,0
21310,note_on,94,0,1,,,,,,,,,0,,,73,0
21312,note_on,2,0,1,,,,,,,,,0,,,78,108
21312,note_on,128,0,7,,,,,,,,,5,,,50,60
21312,note_on,128,0,2,,,,,,,,,1,,,50,108
21312,note_on,128,0,8,,,,,,,,,7,,,50,45
21312,note_on,128,0,6,,,,,,,,,5,,,66,60
21312,note_on,0,0,6,,,,,,,,,5,,,69,60
21312,note_on,0,0,6,,,,,,,,,5,,,74,60
21406,note_on,94,0,2,,,,,,,,,1,,,50,0
21408,note_on,2,0,2,,,,,,,,,1,,,38,108
21502,note_on,94,0,2,,,,,,,,,1,,,38,0
21504,note_on,2,0,2,,,,,,,,,1,,,50,108
21568,note_on,0,0,6,,,,,,,,,5,,,74,0
21568,note_on,0,0,6,,,,,,,,,5,,,69,0
21568,note_on,256,0,6,,,,,,,,,5,,,66,0
21568,note_on,256,0,1,,,,,,,,,0,,,78,0
21568,note_on,256,0,8,,,,,,,,,7,,,50,0
21568,note_on,256,0,7,,,,,,,,,5,,,50,0
21598,note_on,94,0,2,,,,,,,,,1,,,50,0
21600,note_on,2,0,2,,,,,,,,,1,,,52,108
21600,note_on,0,0,6,,,,,,,,,5,,,73,60
21600,note_on,32,0,6,,,,,,,,,5,,,67,60
21600,note_on,32,0,8,,,,,,,,,7,,,52,45
21600,note_on,32,0,1,,,,,,,,,0,,,79,108
21600,note_on,32,0,7,,,,,,,,,5,,,52,60
21694,note_on,94,0,2,,,,,,,,,1,,,52,0
21696,note_on,2,0,2,,,,,,,,,1,,,40,108
21790,note_on,94,0,2,,,,,,,,,1,,,40,0
21792,note_on,2,0,2,,,,,,,,,1,,,52,108
21856,note_on,256,0,6,,,,,,,,,5,,,67,0
21856,note_on,256,0,7,,,,,,,,,5,,,52,0
21856,note_on,256,0,8,,,,,,,,,7,,,52,0
21856,note_on,0,0,6,,,,,,,,,5,,,73,0
21856,note_on,256,0,1,,,,,,,,,0,,,79,0
21886,note_on,94,0,2,,,,,,,,,1,,,52,0
21888,note_on,32,0,7,,,,,,,,,5,,,54,60
21888,note_on,32,0,8,,,,,,,,,7,,,54,45
21888,note_on,32,0,6,,,,,,,,,5,,,69,60
21888,note_on,0,0,6,,,,,,,,,5,,,74,60
21888,note_on,32,0,1,,,,,,,,,0,,,81,108
21888,note_on,2,0,2,,,,,,,,,1,,,54,108
21982,note_on,94,0,2,,,,,,,,,1,,,54,0
21984,note_on,2,0,2,,,,,,,,,1,,,42,108
22078,note_on,94,0,2,,,,,,,,,1,,,42,0
22080,note_on,2,0,2,,,,,,,,,1,,,54,108
22144,note_on,0,0,6,,,,,,,,,5,,,74,0
22144,note_on,256,0,6,,,,,,,,,5,,,69,0
22144,note_on,256,0,1,,,,,,,,,0,,,81,0
22144,note_on,256,0,7,,,,,,,,,5,,,54,0
22144,note_on,256,0,8,,,,,,,,,7,,,54,0
22174,note_on,94,0,2,,,,,,,,,1,,,54,0
22176,note_on,32,0,6,,,,,,,,,5,,,67,60
22176,note_on,0,0,6,,,,,,,,,5,,,73,60
22176,note_on,32,0,7,,,,,,,,,5,,,52,60
22176,note_on,32,0,8,,,,,,,,,7,,,52,45
22176,note_on,2,0,2,,,,,,,,,1,,,52,108
22176,note_on,32,0,1,,,,,,,,,0,,,79,108
22270,note_on,94,0,2,,,,,,,,,1,,,52,0
22272,note_on,2,0,2,,,,,,,,,1,,,40,108
22366,note_on,94,0,2,,,,,,,,,1,,,40,0
22368,note_on,2,0,2,,,,,,,,,1,,,52,108
22432,note_on,256,0,8,,,,,,,,,7,,,52,0
22432,note_on,256,0,1,,,,,,,,,0,,,79,0
22432,note_on,0,0,6,,,,,,,,,5,,,73,0
22432,note_on,256,0,6,,,,,,,,,5,,,67,0
22432,note_on,256,0,7,,,,,,,,,5,,,52,0
22462,note_on,94,0,2,,,,,,,,,1,,,52,0
22464,note_on,32,0,6,,,,,,,,,5,,,66,60
22464,note_on,2,0,2,,,,,,,,,1,,,50,108
22464,note_on,32,0,1,,,,,,,,,0,,,78,108
22464,note_on,0,0,6,,,,,,,,,5,,,74,60
22464,note_on,32,0,7,,,,,,,,,5,,,50,60
22464,note_on,32,0,8,,,,,,,,,7,,,50,45
22464,note_on,0,0,6,,,,,,,,,5,,,69,60
22558,note_on,94,0,2,,,,,,,,,1,,,50,0
22560,note_on,96,0,1,,,,,,,,,0,,,78,0
22560,note_on,0,0,1,,,,,,,,,0,,,76,108
22560,note_on,2,0,2,,,,,,,,,1,,,38,108
22654,note_on,94,0,2,,,,,,,,,1,,,38,0
22656,note_on,0,0,1,,,,,,,,,0,,,74,108
22656,note_on,2,0,2,,,,,,,,,1,,,50,108
22656,note_on,96,0,1,,,,,,,,,0,,,76,0
22720,note_on,256,0,8,,,,,,,,,7,,,50,0
22720,note_on,256,0,7,,,,,,,,,5,,,50,0
22720,note_on,0,0,6,,,,,,,,,5,,,74,0
22720,note_on,0,0,6,,,,,,,,,5,,,69,0
22720,note_on,256,0,6,,,,,,,,,5,,,66,0
22750,note_on,94,0,2,,,,,,,,,1,,,50,0
22750,note_on,94,0,1,,,,,,,,,0,,,74,0
22752,note_on,32,0,6,,,,,,,,,5,,,64,60
22752,note_on,2,0,1,,,,,,,,,0,,,76,108
22752,note_on,0,0,6,,,,,,,,,5,,,69,60
22752,note_on,32,0,8,,,,,,,,,7,,,57,45
22752,note_on,0,0,6,,,,,,,,,5,,,73,60
22752,note_on,2,0,2,,,,,,,,,1,,,57,108
22752,note_on,32,0,7,,,,,,,,,5,,,57,60
22846,note_on,94,0,2,,,,,,,,,1,,,57,0
22848,note_on,2,0,2,,,,,,,,,1,,,45,108
22848,note_on,0,0,1,,,,,,,,,0,,,74,108
22848,note_on,96,0,1,,,,,,,,,0,,,76,0
22942,note_on,94,0,2,,,,,,,,,1,,,45,0
22944,note_on,0,0,1,,,,,,,,,0,,,73,108
22944,note_on,96,0,1,,,,,,,,,0,,,74,0
22944,note_on,2,0,2,,,,,,,,,1,,,57,108
23008,note_on,0,0,6,,,,,,,,,5,,,69,0
23008,note_on,0,0,6,,,,,,,,,5,,,73,0
23008,note_on,256,0,8,,,,,,,,,7,,,57,0
23008,note_on,256,0,7,,,,,,,,,5,,,57,0
23008,note_on,256,0,6,,,,,,,,,5,,,64,0
23038,note_on,94,0,1,,,,,,,,,0,,,73,0
23038,note_on,94,0,2,,,,,,,,,1,,,57,0
23040,note_on,32,0,7,,,,,,,,,5,,,50,60
23040,note_on,2,0,2,,,,,,,,,1,,,50,108
23040,note_on,0,0,6,,,,,,,,,5,,,74,60
23040,note_on,0,0,6,,,,,,,,,5,,,69,60
23040,note_on,2,0,1,,,,,,,,,0,,,74,108
23040,note_on,32,0,8,,,,,,,,,7,,,50,45
23040,note_on,32,0,6,,,,,,,,,5,,,66,60
23134,note_on,94,0,2,,,,,,,,,1,,,50,0
23136,note_on,2,0,2,,,,,,,,,1,,,59,108
23230,note_on,94,0,2,,,,,,,,,1,,,59,0
23232,note_on,2,0,2,,,,,,,,,1,,,57,108
23296,note_on,256,0,1,,,,,,,,,0,,,74,0
23296,note_on,0,0,6,,,,,,,,,5,,,69,0
23296,note_on,256,0,6,,,,,,,,,5,,,66,0
23296,note_on,256,0,8,,,,,,,,,7,,,50,0
23296,note_on,0,0,6,,,,,,,,,5,,,74,0
23296,note_on,256,0,7,,,,,,,,,5,,,50,0
23326,note_on,94,0,2,,,,,,,,,1,,,57,0
23328,note_on,2,0,2,,,,,,,,,1,,,55,108
23422,note_on,94,0,2,,,,,,,,,1,,,55,0
23424,note_on,2,0,2,,,,,,,,,1,,,54,108
23518,note_on,94,0,2,,,,,,,,,1,,,54,0
23520,note_on,2,0,2,,,,,,,,,1,,,52,108
23614,note_on,94,0,2,,,,,,,,,1,,,52,0
23616,note_on,0,0,6,,,,,,,,,5,,,74,60
23616,note_on,320,0,6,,,,,,,,,5,,,69,60
23616,note_on,320,0,7,,,,,,,,,5,,,50,60
23616,note_on,320,0,8,,,,,,,,,7,,,50,45
23616,note_on,320,0,1,,,,,,,,,0,,,78,45
23616,note_on,2,0,2,,,,,,,,,1,,,50,45
23710,note_on,94,0,2,,,,,,,,,1,,,50,0
23712,note_on,2,0,2,,,,,,,,,1,,,38,45
23806,note_on,94,0,2,,,,,,,,,1,,,38,0
23808,note_on,2,0,2,,,,,,,,,1,,,50,45
23872,note_on,256,0,1,,,,,,,,,0,,,78,0
23872,note_on,256,0,7,,,,,,,,,5,,,50,0
23872,note_on,0,0,6,,,,,,,,,5,,,74,0
23872,note_on,256,0,6,,,,,,,,,5,,,69,0
23872,note_on,256,0,8,,,,,,,,,7,,,50,0
23902,note_on,94,0,2,,,,,,,,,1,,,50,0
23904,note_on,32,0,6,,,,,,,,,5,,,67,60
23904,note_on,32,0,8,,,,,,,,,7,,,52,45
23904,note_on,32,0,1,,,,,,,,,0,,,79,45
23904,note_on,0,0,6,,,,,,,,,5,,,73,60
23904,note_on,32,0,7,,,,,,,,,5,,,52,60
23904,note_on,2,0,2,,,,,,,,,1,,,52,45
23998,note_on,94,0,2,,,,,,,,,1,,,52,0
24000,note_on,2,0,2,,,,,,,,,1,,,40,45
24094,note_on,94,0,2,,,,,,,,,1,,,40,0
24096,note_on,2,0,2,,,,,,,,,1,,,52,45
24160,note_on,256,0,7,,,,,,,,,5,,,52,0
24160,note_on,256,0,8,,,,,,,,,7,,,52,0
24160,note_on,0,0,6,,,,,,,,,5,,,73,0
24160,note_on,256,0,6,,,,,,,,,5,,,67,0
24160,note_on,256,0,1,,,,,,,,,0,,,79,0
24190,note_on,94,0,2,,,,,,,,,1,,,52,0
24192,note_on,32,0,7,,,,,,,,,5,,,54,60
24192,note_on,0,0,6,,,,,,,,,5,,,74,60
24192,note_on,32,0,6,,,,,,,,,5,,,69,60
24192,note_on,32,0,1,,,,,,,,,0,,,81,45
24192,note_on,2,0,2,,,,,,,,,1,,,54,45
24192,note_on,32,0,8,,,,,,,,,7,,,54,45
24286,note_on,94,0,2,,,,,,,,,1,,,54,0
24288,note_on,2,0,2,,,,,,,,,1,,,42,45
24382,note_on,94,0,2,,,,,,,,,1,,,42,0
24384,note_on,2,0,2,,,,,,,,,1,,,54,45
24448,note_on,256,0,8,,,,,,,,,7,,,54,0
24448,note_on,256,0,7,,,,,,,,,5,,,54,0
24448,note_on,256,0,1,,,,,,,,,0,,,81,0
24448,note_on,256,0,6,,,,,,,,,5,,,69,0
24448,note_on,0,0,6,,,,,,,,,5,,,74,0
24478,note_on,94,0,2,,,,,,,,,1,,,54,0
24480,note_on,0,0,6,,,,,,,,,5,,,73,60
24480,note_on,32,0,6,,,,,,,,,5,,,67,60
24480,note_on,32,0,1,,,,,,,,,0,,,79,45
24480,note_on,32,0,7,,,,,,,,,5,,,52,60
24480,note_on,32,0,8,,,,,,,,,7,,,52,45
24480,note_on,2,0,2,,,,,,,,,1,,,52,45
24574,note_on,94,0,2,,,,,,,,,1,,,52,0
24576,note_on,2,0,2,,,,,,,,,1,,,40,45
24670,note_on,94,0,2,,,,,,,,,1,,,40,0
24672,note_on,2,0,2,,,,,,,,,1,,,52,45
24736,note_on,0,0,6,,,,,,,,,5,,,73,0
24736,note_on,256,0,6,,,,,,,,,5,,,67,0
24736,note_on,256,0,1,,,,,,,,,0,,,79,0
24736,note_on,256,0,7,,,,,,,,,5,,,52,0
24736,note_on,256,0,8,,,,,,,,,7,,,52,0
24766,note_on,94,0,2,,,,,,,,,1,,,52,0
24768,note_on,2,0,2,,,,,,,,,1,,,50,45
24768,note_on,32,0,8,,,,,,,,,7,,,50,45
24768,note_on,32,0,7,,,,,,,,,5,,,50,60
24768,note_on,32,0,1,,,,,,,,,0,,,78,45
24768,note_on,0,0,6,,,,,,,,,5,,,69,60
24768,note_on,0,0,6,,,,,,,,,5,,,74,60
24768,note_on,32,0,6,,,,,,,,,5,,,66,60
24862,note_on,94,0,2,,,,,,,,,1,,,50,0
24864,note_on,2,0,2,,,,,,,,,1,,,38,45
24864,note_on,0,0,1,,,,,,,,,0,,,76,45
24864,note_on,96,0,1,,,,,,,,,0,,,78,0
24958,note_on,94,0,2,,,,,,,,,1,,,38,0
24960,note_on,2,0,2,,,,,,,,,1,,,50,45
24960,note_on,96,0,1,,,,,,,,,0,,,76,0
24960,note_on,0,0,1,,,,,,,,,0,,,74,45
25024,note_on,256,0,8,,,,,,,,,7,,,50,0
25024,note_on,256,0,7,,,,,,,,,5,,,50,0
25024,note_on,0,0,6,,,,,,,,,5,,,74,0
25024,note_on,0,0,6,,,,,,,,,5,,,69,0
25024,note_on,256,0,6,,,,,,,,,5,,,66,0
25054,note_on,94,0,1,,,,,,,,,0,,,74,0
25054,note_on,94,0,2,,,,,,,,,1,,,50,0
25056,note_on,32,0,7,,,,,,,,,5,,,57,60
25056,note_on,32,0,6,,,,,,,,,5,,,64,60
25056,note_on,0,0,6,,,,,,,,,5,,,73,60
25056,note_on,2,0,1,,,,,,,,,0,,,76,45
25056,note_on,32,0,8,,,,,,,,,7,,,57,45
25056,note_on,0,0,6,,,,,,,,,5,,,69,60
25056,note_on,2,0,2,,,,,,,,,1,,,57,45
25150,note_on,94,0,2,,,,,,,,,1,,,57,0
25152,note_on,2,0,2,,,,,,,,,1,,,45,45
25152,note_on,0,0,1,,,,,,,,,0,,,74,45
25152,note_on,96,0,1,,,,,,,,,0,,,76,0
25246,note_on,94,0,2,,,,,,,,,1,,,45,0
25248,note_on,2,0,2,,,,,,,,,1,,,57,45
25248,note_on,96,0,1,,,,,,,,,0,,,74,0
25248,note_on,0,0,1,,,,,,,,,0,,,73,45
25312,note_on,256,0,7,,,,,,,,,5,,,57,0
25312,note_on,0,0,6,,,,,,,,,5,,,73,0
25312,note_on,256,0,8,,,,,,,,,7,,,57,0
25312,note_on,256,0,6,,,,,,,,,5,,,64,0
25312,note_on,0,0,6,,,,,,,,,5,,,69,0
25342,note_on,94,0,2,,,,,,,,,1,,,57,0
25342,note_on,94,0,1,,,,,,,,,0,,,73,0
25344,note_on,32,0,8,,,,,,,,,7,,,50,92
25344,note_on,12416,0,5,,,,,,,,,4,,,66,92
25344,note_on,12416,0,3,,,,,,,,,2,,,86,92
25344,note_on,2,0,2,,,,,,,,,1,,,50,92
25344,note_on,32,0,6,,,,,,,,,5,,,66,92
25344,note_on,2,0,1,,,,,,,,,0,,,74,92
25344,note_on,0,0,6,,,,,,,,,5,,,69,92
25344,note_on,0,0,6,,,,,,,,,5,,,74,92
25344,note_on,32,0,7,,,,,,,,,5,,,50,92
25392,note_on,48,0,7,,,,,,,,,5,,,50,0
25392,note_on,0,0,5,,,,,,,,,4,,,67,92
25392,note_on,48,0,2,,,,,,,,,1,,,50,0
25392,note_on,0,0,8,,,,,,,,,7,,,52,92
25392,note_on,0,0,7,,,,,,,,,5,,,52,92
25392,note_on,48,0,5,,,,,,,,,4,,,66,0
25392,note_on,0,0,2,,,,,,,,,1,,,52,92
25392,note_on,48,0,8,,,,,,,,,7,,,50,0
25438,note_on,94,0,1,,,,,,,,,0,,,74,0
25438,note_on,94,0,3,,,,,,,,,2,,,86,0
25440,note_on,0,0,2,,,,,,,,,1,,,54,92
25440,note_on,48,0,2,,,,,,,,,1,,,52,0
25440,note_on,48,0,5,,,,,,,,,4,,,67,0
25440,note_on,48,0,8,,,,,,,,,7,,,52,0
25440,note_on,0,0,8,,,,,,,,,7,,,54,92
25440,note_on,2,0,3,,,,,,,,,2,,,74,92
25440,note_on,2,0,1,,,,,,,,,0,,,74,92
25440,note_on,48,0,7,,,,,,,,,5,,,52,0
25440,note_on,0,0,7,,,,,,,,,5,,,54,92
25440,note_on,0,0,5,,,,,,,,,4,,,69,92
25534,note_on,94,0,7,,,,,,,,,5,,,54,0
25534,note_on,94,0,8,,,,,,,,,7,,,54,0
25534,note_on,94,0,3,,,,,,,,,2,,,74,0
25534,note_on,94,0,2,,,,,,,,,1,,,54,0
25534,note_on,94,0,1,,,,,,,,,0,,,74,0
25534,note_on,94,0,5,,,,,,,,,4,,,69,0
25536,note_on,2,0,1,,,,,,,,,0,,,74,92
25536,note_on,2,0,3,,,,,,,,,2,,,74,92
25536,note_on,2,0,7,,,,,,,,,5,,,50,92
25536,note_on,2,0,5,,,,,,,,,4,,,66,92
25536,note_on,2,0,8,,,,,,,,,7,,,50,92
25536,note_on,2,0,2,,,,,,,,,1,,,50,92
25600,note_on,256,0,6,,,,,,,,,5,,,66,0
25600,note_on,0,0,6,,,,,,,,,5,,,69,0
25600,note_on,0,0,6,,,,,,,,,5,,,74,0
25630,note_on,94,0,1,,,,,,,,,0,,,74,0
25630,note_on,94,0,2,,,,,,,,,1,,,50,0
25630,note_on,94,0,8,,,,,,,,,7,,,50,0
25630,note_on,94,0,7,,,,,,,,,5,,,50,0
25630,note_on,94,0,3,,,,,,,,,2,,,74,0
25630,note_on,94,0,5,,,,,,,,,4,,,66,0
25632,note_on,2,0,3,,,,,,,,,2,,,86,92
25632,note_on,2,0,1,,,,,,,,,0,,,86,92
25726,note_on,94,0,3,,,,,,,,,2,,,86,0
25726,note_on,94,0,1,,,,,,,,,0,,,86,0
25728,note_on,2,0,1,,,,,,,,,0,,,74,92
25728,note_on,2,0,3,,,,,,,,,2,,,74,92
25822,note_on,94,0,3,,,,,,,,,2,,,74,0
25822,note_on,94,0,1,,,,,,,,,0,,,74,0
25824,note_on,2,0,3,,,,,,,,,2,,,74,92
25824,note_on,2,0,1,,,,,,,,,0,,,74,92
25918,note_on,94,0,1,,,,,,,,,0,,,74,0
25918,note_on,94,0,3,,,,,,,,,2,,,74,0
25920,note_on,290,0,7,,,,,,,,,5,,,50,92
25920,note_on,2,0,1,,,,,,,,,0,,,74,92
25920,note_on,2,0,3,,,,,,,,,2,,,74,92
25920,note_on,290,0,5,,,,,,,,,4,,,66,92
25920,note_on,12992,0,4,,,,,,,,,3,,,86,92
25920,note_on,320,0,6,,,,,,,,,5,,,66,92
25920,note_on,0,0,6,,,,,,,,,5,,,69,92
25920,note_on,0,0,6,,,,,,,,,5,,,74,92
25920,note_on,290,0,2,,,,,,,,,1,,,50,92
25920,note_on,290,0,8,,,,,,,,,7,,,50,92
25968,note_on,0,0,5,,,,,,,,,4,,,67,92
25968,note_on,48,0,5,,,,,,,,,4,,,66,0
25968,note_on,48,0,2,,,,,,,,,1,,,50,0
25968,note_on,0,0,2,,,,,,,,,1,,,52,92
25968,note_on,0,0,8,,,,,,,,,7,,,52,92
25968,note_on,48,0,7,,,,,,,,,5,,,50,0
25968,note_on,0,0,7,,,,,,,,,5,,,52,92
25968,note_on,48,0,8,,,,,,,,,7,,,50,0
26014,note_on,94,0,4,,,,,,,,,3,,,86,0
26016,note_on,0,0,2,,,,,,,,,1,,,54,92
26016,note_on,0,0,5,,,,,,,,,4,,,69,92
26016,note_on,0,0,8,,,,,,,,,7,,,54,92
26016,note_on,48,0,5,,,,,,,,,4,,,67,0
26016,note_on,48,0,2,,,,,,,,,1,,,52,0
26016,note_on,0,0,7,,,,,,,,,5,,,54,92
26016,note_on,48,0,8,,,,,,,,,7,,,52,0
26016,note_on,48,0,7,,,,,,,,,5,,,52,0
26016,note_on,2,0,4,,,,,,,,,3,,,74,92
26110,note_on,94,0,5,,,,,,,,,4,,,69,0
26110,note_on,94,0,7,,,,,,,,,5,,,54,0
26110,note_on,94,0,4,,,,,,,,,3,,,74,0
26110,note_on,94,0,8,,,,,,,,,7,,,54,0
26110,note_on,94,0,2,,,,,,,,,1,,,54,0
26112,note_on,2,0,8,,,,,,,,,7,,,50,92
26112,note_on,2,0,5,,,,,,,,,4,,,66,92
26112,note_on,2,0,4,,,,,,,,,3,,,74,92
26112,note_on,2,0,7,,,,,,,,,5,,,50,92
26112,note_on,2,0,2,,,,,,,,,1,,,50,92
26176,note_on,0,0,6,,,,,,,,,5,,,69,0
26176,note_on,256,0,6,,,,,,,,,5,,,66,0
26176,note_on,256,0,3,,,,,,,,,2,,,74,0
26176,note_on,0,0,6,,,,,,,,,5,,,74,0
26176,note_on,256,0,1,,,,,,,,,0,,,74,0
26206,note_on,94,0,7,,,,,,,,,5,,,50,0
26206,note_on,94,0,5,,,,,,,,,4,,,66,0
26206,note_on,94,0,2,,,,,,,,,1,,,50,0
26206,note_on,94,0,4,,,,,,,,,3,,,74,0
26206,note_on,94,0,8,,,,,,,,,7,,,50,0
26208,note_on,32,0,3,,,,,,,,,2,,,86,92
26208,note_on,32,0,1,,,,,,,,,0,,,86,92
26208,note_on,2,0,4,,,,,,,,,3,,,86,92
26302,note_on,94,0,4,,,,,,,,,3,,,86,0
26304,note_on,2,0,4,,,,,,,,,3,,,74,92
26398,note_on,94,0,4,,,,,,,,,3,,,74,0
26400,note_on,2,0,4,,,,,,,,,3,,,74,92
26464,note_on,256,0,1,,,,,,,,,0,,,86,0
26464,note_on,256,0,3,,,,,,,,,2,,,86,0
26494,note_on,94,0,4,,,,,,,,,3,,,74,0
26496,note_on,2,0,4,,,,,,,,,3,,,74,92
26496,note_on,32,0,3,,,,,,,,,2,,,84,92
26496,note_on,290,0,5,,,,,,,,,4,,,66,92
26496,note_on,32,0,1,,,,,,,,,0,,,84,92
26496,note_on,320,0,6,,,,,,,,,5,,,62,92
26496,note_on,0,0,6,,,,,,,,,5,,,72,92
26496,note_on,0,0,6,,,,,,,,,5,,,69,92
26496,note_on,290,0,2,,,,,,,,,1,,,50,92
26496,note_on,290,0,8,,,,,,,,,7,,,50,92
26496,note_on,290,0,7,,,,,,,,,5,,,50,92
26544,note_on,48,0,8,,,,,,,,,7,,,50,0
26544,note_on,48,0,5,,,,,,,,,4,,,66,0
26544,note_on,0,0,5,,,,,,,,,4,,,67,92
26544,note_on,48,0,7,,,,,,,,,5,,,50,0
26544,note_on,0,0,7,,,,,,,,,5,,,52,92
26544,note_on,0,0,8,,,,,,,,,7,,,52,92
26544,note_on,48,0,2,,,,,,,,,1,,,50,0
26544,note_on,0,0,2,,,,,,,,,1,,,52,92
26590,note_on,94,0,3,,,,,,,,,2,,,84,0
26590,note_on,94,0,1,,,,,,,,,0,,,84,0
26592,note_on,48,0,8,,,,,,,,,7,,,52,0
26592,note_on,0,0,5,,,,,,,,,4,,,69,92
26592,note_on,48,0,5,,,,,,,,,4,,,67,0
26592,note_on,0,0,7,,,,,,,,,5,,,54,92
26592,note_on,2,0,3,,,,,,,,,2,,,74,92
26592,note_on,48,0,2,,,,,,,,,1,,,52,0
26592,note_on,0,0,2,,,,,,,,,1,,,54,92
26592,note_on,2,0,1,,,,,,,,,0,,,74,92
26592,note_on,48,0,7,,,,,,,,,5,,,52,0
26592,note_on,0,0,8,,,,,,,,,7,,,54,92
26686,note_on,94,0,3,,,,,,,,,2,,,74,0
26686,note_on,94,0,1,,,,,,,,,0,,,74,0
26686,note_on,94,0,2,,,,,,,,,1,,,54,0
26686,note_on,94,0,5,,,,,,,,,4,,,69,0
26686,note_on,94,0,7,,,,,,,,,5,,,54,0
26686,note_on,94,0,8,,,,,,,,,7,,,54,0
26688,note_on,2,0,1,,,,,,,,,0,,,74,92
26688,note_on,2,0,5,,,,,,,,,4,,,66,92
26688,note_on,2,0,7,,,,,,,,,5,,,50,92
26688,note_on,2,0,8,,,,,,,,,7,,,50,92
26688,note_on,2,0,2,,,,,,,,,1,,,50,92
26688,note_on,2,0,3,,,,,,,,,2,,,74,92
26752,note_on,256,0,4,,,,,,,,,3,,,74,0
26752,note_on,256,0,6,,,,,,,,,5,,,62,0
26752,note_on,0,0,6,,,,,,,,,5,,,69,0
26752,note_on,0,0,6,,,,,,,,,5,,,72,0
26782,note_on,94,0,2,,,,,,,,,1,,,50,0
26782,note_on,94,0,8,,,,,,,,,7,,,50,0
26782,note_on,94,0,7,,,,,,,,,5,,,50,0
26782,note_on,94,0,1,,,,,,,,,0,,,74,0
26782,note_on,94,0,5,,,,,,,,,4,,,66,0
26782,note_on,94,0,3,,,,,,,,,2,,,74,0
26784,note_on,2,0,1,,,,,,,,,0,,,84,92
26784,note_on,2,0,3,,,,,,,,,2,,,84,92
26784,note_on,32,0,4,,,,,,,,,3,,,84,92
26878,note_on,94,0,1,,,,,,,,,0,,,84,0
26878,note_on,94,0,3,,,,,,,,,2,,,84,0
26880,note_on,2,0,1,,,,,,,,,0,,,74,92
26880,note_on,2,0,3,,,,,,,,,2,,,74,92
26974,note_on,94,0,3,,,,,,,,,2,,,74,0
26974,note_on,94,0,1,,,,,,,,,0,,,74,0
26976,note_on,2,0,3,,,,,,,,,2,,,74,92
26976,note_on,2,0,1,,,,,,,,,0,,,74,92
27040,note_on,256,0,4,,,,,,,,,3,,,84,0
27070,note_on,94,0,3,,,,,,,,,2,,,74,0
27070,note_on,94,0,1,,,,,,,,,0,,,74,0
27072,note_on,2,0,1,,,,,,,,,0,,,74,92
27072,note_on,0,0,6,,,,,,,,,5,,,66,92
27072,note_on,320,0,6,,,,,,,,,5,,,62,92
27072,note_on,290,0,5,,,,,,,,,4,,,66,92
27072,note_on,0,0,6,,,,,,,,,5,,,69,92
27072,note_on,32,0,4,,,,,,,,,3,,,84,92
27072,note_on,290,0,2,,,,,,,,,1,,,50,92
27072,note_on,290,0,8,,,,,,,,,7,,,50,92
27072,note_on,290,0,7,,,,,,,,,5,,,50,92
27072,note_on,2,0,3,,,,,,,,,2,,,74,92
27120,note_on,48,0,7,,,,,,,,,5,,,50,0
27120,note_on,0,0,5,,,,,,,,,4,,,67,92
27120,note_on,48,0,5,,,,,,,,,4,,,66,0
27120,note_on,48,0,2,,,,,,,,,1,,,50,0
27120,note_on,0,0,8,,,,,,,,,7,,,52,92
27120,note_on,48,0,8,,,,,,,,,7,,,50,0
27120,note_on,0,0,7,,,,,,,,,5,,,52,92
27120,note_on,0,0,2,,,,,,,,,1,,,52,92
27166,note_on,94,0,4,,,,,,,,,3,,,84,0
27168,note_on,48,0,2,,,,,,,,,1,,,52,0
27168,note_on,2,0,4,,,,,,,,,3,,,74,92
27168,note_on,48,0,7,,,,,,,,,5,,,52,0
27168,note_on,48,0,8,,,,,,,,,7,,,52,0
27168,note_on,0,0,8,,,,,,,,,7,,,54,92
27168,note_on,0,0,7,,,,,,,,,5,,,54,92
27168,note_on,48,0,5,,,,,,,,,4,,,67,0
27168,note_on,0,0,2,,,,,,,,,1,,,54,92
27168,note_on,0,0,5,,,,,,,,,4,,,69,92
27262,note_on,94,0,7,,,,,,,,,5,,,54,0
27262,note_on,94,0,5,,,,,,,,,4,,,69,0
27262,note_on,94,0,2,,,,,,,,,1,,,54,0
27262,note_on,94,0,8,,,,,,,,,7,,,54,0
27262,note_on,94,0,4,,,,,,,,,3,,,74,0
27264,note_on,2,0,5,,,,,,,,,4,,,66,92
27264,note_on,2,0,2,,,,,,,,,1,,,50,92
27264,note_on,2,0,8,,,,,,,,,7,,,50,92
27264,note_on,2,0,7,,,,,,,,,5,,,50,92
27264,note_on,2,0,4,,,,,,,,,3,,,74,92
27328,note_on,0,0,6,,,,,,,,,5,,,69,0
27328,note_on,0,0,6,,,,,,,,,5,,,66,0
27328,note_on,256,0,6,,,,,,,,,5,,,62,0
27328,note_on,256,0,1,,,,,,,,,0,,,74,0
27328,note_on,256,0,3,,,,,,,,,2,,,74,0
27358,note_on,94,0,7,,,,,,,,,5,,,50,0
27358,note_on,94,0,8,,,,,,,,,7,,,50,0
27358,note_on,94,0,2,,,,,,,,,1,,,50,0
27358,note_on,94,0,4,,,,,,,,,3,,,74,0
27358,note_on,94,0,5,,,,,,,,,4,,,66,0
27360,note_on,2,0,4,,,,,,,,,3,,,84,92
27360,note_on,32,0,3,,,,,,,,,2,,,84,92
27360,note_on,32,0,1,,,,,,,,,0,,,84,92
27454,note_on,94,0,4,,,,,,,,,3,,,84,0
27456,note_on,2,0,4,,,,,,,,,3,,,74,92
27550,note_on,94,0,4,,,,,,,,,3,,,74,0
27552,note_on,2,0,4,,,,,,,,,3,,,74,92
27616,note_on,256,0,1,,,,,,,,,0,,,84,0
27616,note_on,256,0,3,,,,,,,,,2,,,84,0
27646,note_on,94,0,4,,,,,,,,,3,,,74,0
27648,note_on,32,0,3,,,,,,,,,2,,,83,92
27648,note_on,290,0,5,,,,,,,,,4,,,71,92
27648,note_on,290,0,7,,,,,,,,,5,,,55,92
27648,note_on,0,0,6,,,,,,,,,5,,,71,92
27648,note_on,0,0,6,,,,,,,,,5,,,67,92
27648,note_on,320,0,6,,,,,,,,,5,,,64,92
27648,note_on,32,0,1,,,,,,,,,0,,,83,92
27648,note_on,290,0,2,,,,,,,,,1,,,55,92
27648,note_on,290,0,8,,,,,,,,,7,,,55,92
27648,note_on,2,0,4,,,,,,,,,3,,,74,92
27696,note_on,48,0,5,,,,,,,,,4,,,71,0
27696,note_on,0,0,5,,,,,,,,,4,,,72,92
27696,note_on,48,0,2,,,,,,,,,1,,,55,0
27696,note_on,0,0,7,,,,,,,,,5,,,57,92
27696,note_on,48,0,8,,,,,,,,,7,,,55,0
27696,note_on,0,0,8,,,,,,,,,7,,,57,92
27696,note_on,48,0,7,,,,,,,,,5,,,55,0
27696,note_on,0,0,2,,,,,,,,,1,,,57,92
27742,note_on,94,0,1,,,,,,,,,0,,,83,0
27742,note_on,94,0,3,,,,,,,,,2,,,83,0
27744,note_on,0,0,8,,,,,,,,,7,,,59,92
27744,note_on,48,0,2,,,,,,,,,1,,,57,0
27744,note_on,0,0,2,,,,,,,,,1,,,59,92
27744,note_on,0,0,5,,,,,,,,,4,,,74,92
27744,note_on,48,0,5,,,,,,,,,4,,,72,0
27744,note_on,0,0,7,,,,,,,,,5,,,59,92
27744,note_on,2,0,1,,,,,,,,,0,,,74,92
27744,note_on,2,0,3,,,,,,,,,2,,,74,92
27744,note_on,48,0,8,,,,,,,,,7,,,57,0
27744,note_on,48,0,7,,,,,,,,,5,,,57,0
27838,note_on,94,0,2,,,,,,,,,1,,,59,0
27838,note_on,94,0,3,,,,,,,,,2,,,74,0
27838,note_on,94,0,5,,,,,,,,,4,,,74,0
27838,note_on,94,0,1,,,,,,,,,0,,,74,0
27838,note_on,94,0,8,,,,,,,,,7,,,59,0
27838,note_on,94,0,7,,,,,,,,,5,,,59,0
27840,note_on,2,0,2,,,,,,,,,1,,,55,92
27840,note_on,2,0,3,,,,,,,,,2,,,74,92
27840,note_on,2,0,5,,,,,,,,,4,,,71,92
27840,note_on,2,0,8,,,,,,,,,7,,,55,92
27840,note_on,2,0,7,,,,,,,,,5,,,55,92
27840,note_on,2,0,1,,,,,,,,,0,,,74,92
27904,note_on,256,0,4,,,,,,,,,3,,,74,0
27904,note_on,0,0,6,,,,,,,,,5,,,71,0
27904,note_on,0,0,6,,,,,,,,,5,,,67,0
27904,note_on,256,0,6,,,,,,,,,5,,,64,0
27934,note_on,94,0,7,,,,,,,,,5,,,55,0
27934,note_on,94,0,8,,,,,,,,,7,,,55,0
27934,note_on,94,0,5,,,,,,,,,4,,,71,0
27934,note_on,94,0,3,,,,,,,,,2,,,74,0
27934,note_on,94,0,1,,,,,,,,,0,,,74,0
27934,note_on,94,0,2,,,,,,,,,1,,,55,0
27936,note_on,32,0,4,,,,,,,,,3,,,83,92
27936,note_on,2,0,1,,,,,,,,,0,,,83,92
27936,note_on,2,0,3,,,,,,,,,2,,,83,92
28030,note_on,94,0,3,,,,,,,,,2,,,83,0
28030,note_on,94,0,1,,,,,,,,,0,,,83,0
28032,note_on,2,0,3,,,,,,,,,2,,,74,92
28032,note_on,2,0,1,,,,,,,,,0,,,74,92
28126,note_on,94,0,3,,,,,,,,,2,,,74,0
28126,note_on,94,0,1,,,,,,,,,0,,,74,0
28128,note_on,2,0,1,,,,,,,,,0,,,74,92
28128,note_on,2,0,3,,,,,,,,,2,,,74,92
28192,note_on,256,0,4,,,,,,,,,3,,,83,0
28222,note_on,94,0,1,,,,,,,,,0,,,74,0
28222,note_on,94,0,3,,,,,,,,,2,,,74,0
28224,note_on,2,0,1,,,,,,,,,0,,,74,92
28224,note_on,2,0,3,,,,,,,,,2,,,74,92
28224,note_on,290,0,2,,,,,,,,,1,,,55,92
28224,note_on,0,0,6,,,,,,,,,5,,,71,92
28224,note_on,290,0,8,,,,,,,,,7,,,55,92
28224,note_on,290,0,7,,,,,,,,,5,,,55,92
28224,note_on,0,0,6,,,,,,,,,5,,,67,92
28224,note_on,320,0,6,,,,,,,,,5,,,62,92
28224,note_on,32,0,4,,,,,,,,,3,,,83,92
28224,note_on,290,0,5,,,,,,,,,4,,,71,92
28272,note_on,0,0,2,,,,,,,,,1,,,57,92
28272,note_on,48,0,2,,,,,,,,,1,,,55,0
28272,note_on,48,0,7,,,,,,,,,5,,,55,0
28272,note_on,48,0,8,,,,,,,,,7,,,55,0
28272,note_on,0,0,8,,,,,,,,,7,,,57,92
28272,note_on,0,0,7,,,,,,,,,5,,,57,92
28272,note_on,48,0,5,,,,,,,,,4,,,71,0
28272,note_on,0,0,5,,,,,,,,,4,,,72,92
28318,note_on,94,0,4,,,,,,,,,3,,,83,0
28320,note_on,48,0,2,,,,,,,,,1,,,57,0
28320,note_on,0,0,2,,,,,,,,,1,,,59,92
28320,note_on,48,0,5,,,,,,,,,4,,,72,0
28320,note_on,0,0,5,,,,,,,,,4,,,74,92
28320,note_on,0,0,7,,,,,,,,,5,,,59,92
28320,note_on,0,0,8,,,,,,,,,7,,,59,92
28320,note_on,48,0,7,,,,,,,,,5,,,57,0
28320,note_on,48,0,8,,,,,,,,,7,,,57,0
28320,note_on,2,0,4,,,,,,,,,3,,,74,92
28414,note_on,94,0,2,,,,,,,,,1,,,59,0
28414,note_on,94,0,8,,,,,,,,,7,,,59,0
28414,note_on,94,0,7,,,,,,,,,5,,,59,0
28414,note_on,94,0,5,,,,,,,,,4,,,74,0
28414,note_on,94,0,4,,,,,,,,,3,,,74,0
28416,note_on,2,0,5,,,,,,,,,4,,,71,92
28416,note_on,2,0,4,,,,,,,,,3,,,74,92
28416,note_on,2,0,7,,,,,,,,,5,,,55,92
28416,note_on,2,0,8,,,,,,,,,7,,,55,92
28416,note_on,2,0,2,,,,,,,,,1,,,55,92
28480,note_on,0,0,6,,,,,,,,,5,,,67,0
28480,note_on,256,0,3,,,,,,,,,2,,,74,0
28480,note_on,256,0,6,,,,,,,,,5,,,62,0
28480,note_on,256,0,1,,,,,,,,,0,,,74,0
28480,note_on,0,0,6,,,,,,,,,5,,,71,0
28510,note_on,94,0,8,,,,,,,,,7,,,55,0
28510,note_on,94,0,5,,,,,,,,,4,,,71,0
28510,note_on,94,0,7,,,,,,,,,5,,,55,0
28510,note_on,94,0,4,,,,,,,,,3,,,74,0
28510,note_on,94,0,2,,,,,,,,,1,,,55,0
28512,note_on,2,0,4,,,,,,,,,3,,,83,92
28512,note_on,32,0,3,,,,,,,,,2,,,83,92
28512,note_on,32,0,1,,,,,,,,,0,,,83,92
28606,note_on,94,0,4,,,,,,,,,3,,,83,0
28608,note_on,2,0,4,,,,,,,,,3,,,74,92
28702,note_on,94,0,4,,,,,,,,,3,,,74,0
28704,note_on,2,0,4,,,,,,,,,3,,,74,92
28768,note_on,256,0,3,,,,,,,,,2,,,83,0
28768,note_on,256,0,1,,,,,,,,,0,,,83,0
28798,note_on,94,0,4,,,,,,,,,3,,,74,0
28800,note_on,2,0,4,,,,,,,,,3,,,78,92
28800,note_on,32,0,1,,,,,,,,,0,,,81,92
28800,note_on,290,0,5,,,,,,,,,4,,,62,92
28800,note_on,0,0,6,,,,,,,,,5,,,69,92
28800,note_on,0,0,6,,,,,,,,,5,,,66,92
28800,note_on,290,0,7,,,,,,,,,5,,,50,92
28800,note_on,320,0,6,,,,,,,,,5,,,62,92
28800,note_on,290,0,2,,,,,,,,,1,,,50,92
28800,note_on,290,0,8,,,,,,,,,7,,,50,92
28800,note_on,32,0,3,,,,,,,,,2,,,81,92
28848,note_on,48,0,3,,,,,,,,,2,,,81,0
28848,note_on,48,0,4,,,,,,,,,3,,,78,0
28848,note_on,0,0,1,,,,,,,,,0,,,79,92
28848,note_on,0,0,3,,,,,,,,,2,,,79,92
28848,note_on,0,0,4,,,,,,,,,3,,,76,92
28848,note_on,48,0,1,,,,,,,,,0,,,81,0
28894,note_on,94,0,5,,,,,,,,,4,,,62,0
28896,note_on,48,0,4,,,,,,,,,3,,,76,0
28896,note_on,0,0,4,,,,,,,,,3,,,74,92
28896,note_on,48,0,1,,,,,,,,,0,,,79,0
28896,note_on,0,0,1,,,,,,,,,0,,,78,92
28896,note_on,0,0,3,,,,,,,,,2,,,78,92
28896,note_on,48,0,3,,,,,,,,,2,,,79,0
28896,note_on,2,0,5,,,,,,,,,4,,,74,92
28960,note_on,160,0,6,,,,,,,,,5,,,62,0
28960,note_on,0,0,6,,,,,,,,,5,,,69,0
28960,note_on,160,0,2,,,,,,,,,1,,,50,0
28960,note_on,0,0,6,,,,,,,,,5,,,66,0
28960,note_on,160,0,7,,,,,,,,,5,,,50,0
28960,note_on,160,0,8,,,,,,,,,7,,,50,0
28990,note_on,94,0,5,,,,,,,,,4,,,74,0
28990,note_on,94,0,3,,,,,,,,,2,,,78,0
28990,note_on,94,0,4,,,,,,,,,3,,,74,0
28990,note_on,94,0,1,,,,,,,,,0,,,78,0
28992,note_on,2,0,5,,,,,,,,,4,,,62,92
28992,note_on,2,0,3,,,,,,,,,2,,,81,92
28992,note_on,2,0,4,,,,,,,,,3,,,78,92
28992,note_on,2,0,1,,,,,,,,,0,,,81,92
29086,note_on,94,0,5,,,,,,,,,4,,,62,0
29086,note_on,94,0,3,,,,,,,,,2,,,81,0
29086,note_on,94,0,1,,,,,,,,,0,,,81,0
29086,note_on,94,0,4,,,,,,,,,3,,,78,0
29088,note_on,2,0,1,,,,,,,,,0,,,72,92
29088,note_on,2,0,3,,,,,,,,,2,,,72,92
29088,note_on,0,0,6,,,,,,,,,5,,,72,92
29088,note_on,128,0,7,,,,,,,,,5,,,50,92
29088,note_on,0,0,6,,,,,,,,,5,,,66,92
29088,note_on,2,0,4,,,,,,,,,3,,,69,92
29088,note_on,2,0,5,,,,,,,,,4,,,62,92
29088,note_on,128,0,2,,,,,,,,,1,,,50,92
29088,note_on,128,0,6,,,,,,,,,5,,,62,92
29088,note_on,128,0,8,,,,,,,,,7,,,50,92
29136,note_on,48,0,4,,,,,,,,,3,,,69,0
29136,note_on,0,0,4,,,,,,,,,3,,,67,92
29136,note_on,48,0,3,,,,,,,,,2,,,72,0
29136,note_on,0,0,3,,,,,,,,,2,,,71,92
29136,note_on,48,0,1,,,,,,,,,0,,,72,0
29136,note_on,0,0,1,,,,,,,,,0,,,71,92
29184,note_on,48,0,1,,,,,,,,,0,,,71,0
29184,note_on,0,0,1,,,,,,,,,0,,,69,92
29184,note_on,0,0,3,,,,,,,,,2,,,69,92
29184,note_on,0,0,4,,,,,,,,,3,,,66,92
29184,note_on,48,0,4,,,,,,,,,3,,,67,0
29184,note_on,48,0,3,,,,,,,,,2,,,71,0
29248,note_on,160,0,2,,,,,,,,,1,,,50,0
29248,note_on,160,0,7,,,,,,,,,5,,,50,0
29248,note_on,0,0,6,,,,,,,,,5,,,72,0
29248,note_on,0,0,6,,,,,,,,,5,,,66,0
29248,note_on,160,0,6,,,,,,,,,5,,,62,0
29248,note_on,160,0,5,,,,,,,,,4,,,62,0
29248,note_on,160,0,8,,,,,,,,,7,,,50,0
29278,note_on,94,0,4,,,,,,,,,3,,,66,0
29278,note_on,94,0,3,,,,,,,,,2,,,69,0
29278,note_on,94,0,1,,,,,,,,,0,,,69,0
29280,note_on,2,0,1,,,,,,,,,0,,,72,92
29280,note_on,2,0,4,,,,,,,,,3,,,69,92
29280,note_on,2,0,3,,,,,,,,,2,,,72,92
29374,note_on,94,0,4,,,,,,,,,3,,,69,0
29374,note_on,94,0,3,,,,,,,,,2,,,72,0
29374,note_on,94,0,1,,,,,,,,,0,,,72,0
29376,note_on,128,0,8,,,,,,,,,7,,,50,92
29376,note_on,2,0,3,,,,,,,,,2,,,81,92
29376,note_on,128,0,6,,,,,,,,,5,,,62,92
29376,note_on,0,0,6,,,,,,,,,5,,,66,92
29376,note_on,128,0,2,,,,,,,,,1,,,50,92
29376,note_on,0,0,6,,,,,,,,,5,,,69,92
29376,note_on,128,0,7,,,,,,,,,5,,,50,92
29376,note_on,2,0,4,,,,,,,,,3,,,78,92
29376,note_on,128,0,5,,,,,,,,,4,,,62,92
29376,note_on,2,0,1,,,,,,,,,0,,,81,92
29424,note_on,0,0,1,,,,,,,,,0,,,79,92
29424,note_on,48,0,1,,,,,,,,,0,,,81,0
29424,note_on,0,0,4,,,,,,,,,3,,,76,92
29424,note_on,0,0,3,,,,,,,,,2,,,79,92
29424,note_on,48,0,4,,,,,,,,,3,,,78,0
29424,note_on,48,0,3,,,,,,,,,2,,,81,0
29470,note_on,94,0,5,,,,,,,,,4,,,62,0
29472,note_on,0,0,1,,,,,,,,,0,,,78,92
29472,note_on,0,0,3,,,,,,,,,2,,,78,92
29472,note_on,48,0,3,,,,,,,,,2,,,79,0
29472,note_on,2,0,5,,,,,,,,,4,,,74,92
29472,note_on,48,0,4,,,,,,,,,3,,,76,0
29472,note_on,0,0,4,,,,,,,,,3,,,74,92
29472,note_on,48,0,1,,,,,,,,,0,,,79,0
29536,note_on,0,0,6,,,,,,,,,5,,,69,0
29536,note_on,0,0,6,,,,,,,,,5,,,66,0
29536,note_on,160,0,6,,,,,,,,,5,,,62,0
29536,note_on,160,0,2,,,,,,,,,1,,,50,0
29536,note_on,160,0,7,,,,,,,,,5,,,50,0
29536,note_on,160,0,8,,,,,,,,,7,,,50,0
29566,note_on,94,0,5,,,,,,,,,4,,,74,0
29566,note_on,94,0,3,,,,,,,,,2,,,78,0
29566,note_on,94,0,1,,,,,,,,,0,,,78,0
29566,note_on,94,0,4,,,,,,,,,3,,,74,0
29568,note_on,2,0,3,,,,,,,,,2,,,81,92
29568,note_on,2,0,4,,,,,,,,,3,,,78,92
29568,note_on,2,0,5,,,,,,,,,4,,,62,92
29568,note_on,2,0,1,,,,,,,,,0,,,81,92
29662,note_on,94,0,5,,,,,,,,,4,,,62,0
29662,note_on,94,0,1,,,,,,,,,0,,,81,0
29662,note_on,94,0,3,,,,,,,,,2,,,81,0
29662,note_on,94,0,4,,,,,,,,,3,,,78,0
29664,note_on,128,0,7,,,,,,,,,5,,,50,92
29664,note_on,128,0,8,,,,,,,,,7,,,50,92
29664,note_on,128,0,2,,,,,,,,,1,,,50,92
29664,note_on,2,0,5,,,,,,,,,4,,,62,92
29664,note_on,128,0,6,,,,,,,,,5,,,62,92
29664,note_on,2,0,4,,,,,,,,,3,,,69,92
29664,note_on,2,0,3,,,,,,,,,2,,,72,92
29664,note_on,2,0,1,,,,,,,,,0,,,72,92
29664,note_on,0,0,6,,,,,,,,,5,,,66,92
29664,note_on,0,0,6,,,,,,,,,5,,,72,92
29712,note_on,0,0,4,,,,,,,,,3,,,67,92
29712,note_on,48,0,4,,,,,,,,,3,,,69,0
29712,note_on,0,0,1,,,,,,,,,0,,,71,92
29712,note_on,48,0,1,,,,,,,,,0,,,72,0
29712,note_on,0,0,3,,,,,,,,,2,,,71,92
29712,note_on,48,0,3,,,,,,,,,2,,,72,0
29760,note_on,0,0,1,,,,,,,,,0,,,69,92
29760,note_on,0,0,3,,,,,,,,,2,,,69,92
29760,note_on,0,0,4,,,,,,,,,3,,,66,92
29760,note_on,48,0,4,,,,,,,,,3,,,67,0
29760,note_on,48,0,1,,,,,,,,,0,,,71,0
29760,note_on,48,0,3,,,,,,,,,2,,,71,0
29824,note_on,160,0,2,,,,,,,,,1,,,50,0
29824,note_on,160,0,6,,,,,,,,,5,,,62,0
29824,note_on,0,0,6,,,,,,,,,5,,,66,0
29824,note_on,160,0,7,,,,,,,,,5,,,50,0
29824,note_on,160,0,8,,,,,,,,,7,,,50,0
29824,note_on,0,0,6,,,,,,,,,5,,,72,0
29824,note_on,160,0,5,,,,,,,,,4,,,62,0
29854,note_on,94,0,3,,,,,,,,,2,,,69,0
29854,note_on,94,0,1,,,,,,,,,0,,,69,0
29854,note_on,94,0,4,,,,,,,,,3,,,66,0
29856,note_on,2,0,1,,,,,,,,,0,,,72,92
29856,note_on,2,0,4,,,,,,,,,3,,,69,92
29856,note_on,2,0,3,,,,,,,,,2,,,72,92
29950,note_on,94,0,4,,,,,,,,,3,,,69,0
29950,note_on,94,0,1,,,,,,,,,0,,,72,0
29950,note_on,94,0,3,,,,,,,,,2,,,72,0
29952,note_on,128,0,2,,,,,,,,,1,,,43,92
29952,note_on,0,0,6,,,,,,,,,5,,,67,92
29952,note_on,2,0,4,,,,,,,,,3,,,67,92
29952,note_on,128,0,6,,,,,,,,,5,,,62,92
29952,note_on,128,0,7,,,,,,,,,5,,,43,92
29952,note_on,2,0,3,,,,,,,,,2,,,71,92
29952,note_on,128,0,5,,,,,,,,,4,,,62,92
29952,note_on,128,0,8,,,,,,,,,7,,,43,92
29952,note_on,0,0,6,,,,,,,,,5,,,71,92
29952,note_on,2,0,1,,,,,,,,,0,,,71,92
30000,note_on,0,0,4,,,,,,,,,3,,,69,92
30000,note_on,48,0,4,,,,,,,,,3,,,67,0
30000,note_on,48,0,1,,,,,,,,,0,,,71,0
30000,note_on,48,0,3,,,,,,,,,2,,,71,0
30000,note_on,0,0,3,,,,,,,,,2,,,69,92
30000,note_on,0,0,1,,,,,,,,,0,,,69,92
30048,note_on,0,0,4,,,,,,,,,3,,,71,92
30048,note_on,48,0,4,,,,,,,,,3,,,69,0
30048,note_on,48,0,1,,,,,,,,,0,,,69,0
30048,note_on,0,0,1,,,,,,,,,0,,,67,92
30048,note_on,0,0,3,,,,,,,,,2,,,67,92
30048,note_on,48,0,3,,,,,,,,,2,,,69,0
30112,note_on,160,0,8,,,,,,,,,7,,,43,0
30112,note_on,160,0,7,,,,,,,,,5,,,43,0
30112,note_on,160,0,2,,,,,,,,,1,,,43,0
30112,note_on,160,0,6,,,,,,,,,5,,,62,0
30112,note_on,0,0,6,,,,,,,,,5,,,67,0
30112,note_on,160,0,5,,,,,,,,,4,,,62,0
30112,note_on,0,0,6,,,,,,,,,5,,,71,0
30142,note_on,94,0,3,,,,,,,,,2,,,67,0
30142,note_on,94,0,4,,,,,,,,,3,,,71,0
30142,note_on,94,0,1,,,,,,,,,0,,,67,0
30144,note_on,2,0,3,,,,,,,,,2,,,74,92
30144,note_on,2,0,4,,,,,,,,,3,,,71,92
30144,note_on,2,0,1,,,,,,,,,0,,,74,92
30238,note_on,94,0,3,,,,,,,,,2,,,74,0
30238,note_on,94,0,4,,,,,,,,,3,,,71,0
30238,note_on,94,0,1,,,,,,,,,0,,,74,0
30240,note_on,128,0,6,,,,,,,,,5,,,67,92
30240,note_on,0,0,6,,,,,,,,,5,,,71,92
30240,note_on,128,0,7,,,,,,,,,5,,,43,92
30240,note_on,128,0,5,,,,,,,,,4,,,62,92
30240,note_on,0,0,6,,,,,,,,,5,,,74,92
30240,note_on,2,0,3,,,,,,,,,2,,,83,92
30240,note_on,128,0,8,,,,,,,,,7,,,43,92
30240,note_on,2,0,1,,,,,,,,,0,,,83,92
30240,note_on,2,0,4,,,,,,,,,3,,,79,92
30240,note_on,128,0,2,,,,,,,,,1,,,43,92
30288,note_on,48,0,4,,,,,,,,,3,,,79,0
30288,note_on,0,0,3,,,,,,,,,2,,,81,92
30288,note_on,48,0,3,,,,,,,,,2,,,83,0
30288,note_on,48,0,1,,,,,,,,,0,,,83,0
30288,note_on,0,0,4,,,,,,,,,3,,,81,92
30288,note_on,0,0,1,,,,,,,,,0,,,81,92
30336,note_on,0,0,1,,,,,,,,,0,,,79,92
30336,note_on,48,0,1,,,,,,,,,0,,,81,0
30336,note_on,0,0,3,,,,,,,,,2,,,79,92
30336,note_on,48,0,3,,,,,,,,,2,,,81,0
30336,note_on,0,0,4,,,,,,,,,3,,,83,92
30336,note_on,48,0,4,,,,,,,,,3,,,81,0
30400,note_on,160,0,7,,,,,,,,,5,,,43,0
30400,note_on,160,0,8,,,,,,,,,7,,,43,0
30400,note_on,160,0,2,,,,,,,,,1,,,43,0
30400,note_on,0,0,6,,,,,,,,,5,,,74,0
30400,note_on,0,0,6,,,,,,,,,5,,,71,0
30400,note_on,160,0,6,,,,,,,,,5,,,67,0
30400,note_on,160,0,5,,,,,,,,,4,,,62,0
30430,note_on,94,0,4,,,,,,,,,3,,,83,0
30430,note_on,94,0,3,,,,,,,,,2,,,79,0
30430,note_on,94,0,1,,,,,,,,,0,,,79,0
30432,note_on,2,0,4,,,,,,,,,3,,,79,92
30432,note_on,2,0,3,,,,,,,,,2,,,83,92
30432,note_on,2,0,1,,,,,,,,,0,,,83,92
30526,note_on,94,0,1,,,,,,,,,0,,,83,0
30526,note_on,94,0,3,,,,,,,,,2,,,83,0
30526,note_on,94,0,4,,,,,,,,,3,,,79,0
30528,note_on,2,0,1,,,,,,,,,0,,,73,92
30528,note_on,2,0,4,,,,,,,,,3,,,76,92
30528,note_on,0,0,6,,,,,,,,,5,,,73,92
30528,note_on,128,0,7,,,,,,,,,5,,,45,92
30528,note_on,128,0,5,,,,,,,,,4,,,64,92
30528,note_on,128,0,8,,,,,,,,,7,,,45,92
30528,note_on,0,0,6,,,,,,,,,5,,,69,92
30528,note_on,128,0,6,,,,,,,,,5,,,64,92
30528,note_on,128,0,2,,,,,,,,,1,,,45,92
30528,note_on,2,0,3,,,,,,,,,2,,,73,92
30576,note_on,0,0,4,,,,,,,,,3,,,74,92
30576,note_on,48,0,4,,,,,,,,,3,,,76,0
30576,note_on,48,0,3,,,,,,,,,2,,,73,0
30576,note_on,0,0,3,,,,,,,,,2,,,71,92
30576,note_on,0,0,1,,,,,,,,,0,,,71,92
30576,note_on,48,0,1,,,,,,,,,0,,,73,0
30624,note_on,48,0,3,,,,,,,,,2,,,71,0
30624,note_on,0,0,3,,,,,,,,,2,,,69,92
30624,note_on,0,0,1,,,,,,,,,0,,,69,92
30624,note_on,48,0,1,,,,,,,,,0,,,71,0
30624,note_on,48,0,4,,,,,,,,,3,,,74,0
30624,note_on,0,0,4,,,,,,,,,3,,,73,92
30688,note_on,160,0,8,,,,,,,,,7,,,45,0
30688,note_on,160,0,5,,,,,,,,,4,,,64,0
30688,note_on,160,0,6,,,,,,,,,5,,,64,0
30688,note_on,0,0,6,,,,,,,,,5,,,73,0
30688,note_on,0,0,6,,,,,,,,,5,,,69,0
30688,note_on,160,0,7,,,,,,,,,5,,,45,0
30688,note_on,160,0,2,,,,,,,,,1,,,45,0
30718,note_on,94,0,4,,,,,,,,,3,,,73,0
30718,note_on,94,0,1,,,,,,,,,0,,,69,0
30718,note_on,94,0,3,,,,,,,,,2,,,69,0
30720,note_on,2,0,4,,,,,,,,,3,,,73,92
30720,note_on,2,0,1,,,,,,,,,0,,,76,92
30720,note_on,2,0,3,,,,,,,,,2,,,76,92
30814,note_on,94,0,1,,,,,,,,,0,,,76,0
30814,note_on,94,0,3,,,,,,,,,2,,,76,0
30814,note_on,94,0,4,,,,,,,,,3,,,73,0
30816,note_on,2,0,1,,,,,,,,,0,,,79,92
30816,note_on,2,0,3,,,,,,,,,2,,,79,92
30816,note_on,2,0,4,,,,,,,,,3,,,76,92
30816,note_on,128,0,5,,,,,,,,,4,,,61,92
30816,note_on,128,0,2,,,,,,,,,1,,,45,92
30816,note_on,0,0,6,,,,,,,,,5,,,76,92
30816,note_on,128,0,6,,,,,,,,,5,,,67,92
30816,note_on,0,0,6,,,,,,,,,5,,,73,92
30816,note_on,128,0,7,,,,,,,,,5,,,45,92
30816,note_on,128,0,8,,,,,,,,,7,,,45,92
30864,note_on,48,0,3,,,,,,,,,2,,,79,0
30864,note_on,0,0,3,,,,,,,,,2,,,78,92
30864,note_on,48,0,4,,,,,,,,,3,,,76,0
30864,note_on,0,0,1,,,,,,,,,0,,,78,92
30864,note_on,0,0,4,,,,,,,,,3,,,74,92
30864,note_on,48,0,1,,,,,,,,,0,,,79,0
30912,note_on,48,0,1,,,,,,,,,0,,,78,0
30912,note_on,48,0,3,,,,,,,,,2,,,78,0
30912,note_on,0,0,1,,,,,,,,,0,,,76,92
30912,note_on,0,0,3,,,,,,,,,2,,,76,92
30912,note_on,0,0,4,,,,,,,,,3,,,73,92
30912,note_on,48,0,4,,,,,,,,,3,,,74,0
30976,note_on,0,0,6,,,,,,,,,5,,,73,0
30976,note_on,0,0,6,,,,,,,,,5,,,76,0
30976,note_on,160,0,2,,,,,,,,,1,,,45,0
30976,note_on,160,0,6,,,,,,,,,5,,,67,0
30976,note_on,160,0,7,,,,,,,,,5,,,45,0
30976,note_on,160,0,8,,,,,,,,,7,,,45,0
30976,note_on,160,0,5,,,,,,,,,4,,,61,0
31006,note_on,94,0,1,,,,,,,,,0,,,76,0
31006,note_on,94,0,4,,,,,,,,,3,,,73,0
31006,note_on,94,0,3,,,,,,,,,2,,,76,0
31008,note_on,2,0,3,,,,,,,,,2,,,79,92
31008,note_on,2,0,4,,,,,,,,,3,,,76,92
31008,note_on,2,0,1,,,,,,,,,0,,,79,92
31102,note_on,94,0,1,,,,,,,,,0,,,79,0
31102,note_on,94,0,4,,,,,,,,,3,,,76,0
31102,note_on,94,0,3,,,,,,,,,2,,,79,0
31104,note_on,2,0,1,,,,,,,,,0,,,78,92
31104,note_on,0,0,6,,,,,,,,,5,,,69,92
31104,note_on,0,0,6,,,,,,,,,5,,,74,92
31104,note_on,128,0,6,,,,,,,,,5,,,66,92
31104,note_on,128,0,2,,,,,,,,,1,,,50,92
31104,note_on,128,0,5,,,,,,,,,4,,,57,92
31104,note_on,2,0,4,,,,,,,,,3,,,74,92
31104,note_on,2,0,3,,,,,,,,,2,,,78,92
31104,note_on,128,0,8,,,,,,,,,7,,,50,92
31104,note_on,128,0,7,,,,,,,,,5,,,50,92
31152,note_on,48,0,3,,,,,,,,,2,,,78,0
31152,note_on,0,0,4,,,,,,,,,3,,,76,92
31152,note_on,0,0,1,,,,,,,,,0,,,76,92
31152,note_on,48,0,1,,,,,,,,,0,,,78,0
31152,note_on,48,0,4,,,,,,,,,3,,,74,0
31152,note_on,0,0,3,,,,,,,,,2,,,76,92
31198,note_on,94,0,2,,,,,,,,,1,,,50,0
31198,note_on,94,0,8,,,,,,,,,7,,,50,0
31198,note_on,94,0,7,,,,,,,,,5,,,50,0
31200,note_on,0,0,3,,,,,,,,,2,,,74,92
31200,note_on,2,0,8,,,,,,,,,7,,,62,92
31200,note_on,2,0,7,,,,,,,,,5,,,62,92
31200,note_on,48,0,3,,,,,,,,,2,,,76,0
31200,note_on,2,0,2,,,,,,,,,1,,,62,92
31200,note_on,48,0,1,,,,,,,,,0,,,76,0
31200,note_on,0,0,4,,,,,,,,,3,,,78,92
31200,note_on,48,0,4,,,,,,,,,3,,,76,0
31200,note_on,0,0,1,,,,,,,,,0,,,74,92
31264,note_on,160,0,5,,,,,,,,,4,,,57,0
31294,note_on,94,0,7,,,,,,,,,5,,,62,0
31294,note_on,94,0,4,,,,,,,,,3,,,78,0
31294,note_on,94,0,8,,,,,,,,,7,,,62,0
31294,note_on,94,0,3,,,,,,,,,2,,,74,0
31294,note_on,94,0,2,,,,,,,,,1,,,62,0
31294,note_on,94,0,1,,,,,,,,,0,,,74,0
31296,note_on,2,0,4,,,,,,,,,3,,,78,92
31296,note_on,2,0,1,,,,,,,,,0,,,81,92
31296,note_on,2,0,8,,,,,,,,,7,,,50,92
31296,note_on,2,0,2,,,,,,,,,1,,,50,92
31296,note_on,2,0,7,,,,,,,,,5,,,50,92
31296,note_on,32,0,5,,,,,,,,,4,,,69,92
31296,note_on,2,0,3,,,,,,,,,2,,,81,92
31360,note_on,256,0,6,,,,,,,,,5,,,66,0
31360,note_on,0,0,6,,,,,,,,,5,,,69,0
31360,note_on,0,0,6,,,,,,,,,5,,,74,0
31390,note_on,94,0,2,,,,,,,,,1,,,50,0
31390,note_on,94,0,1,,,,,,,,,0,,,81,0
31390,note_on,94,0,5,,,,,,,,,4,,,69,0
31390,note_on,94,0,8,,,,,,,,,7,,,50,0
31390,note_on,94,0,7,,,,,,,,,5,,,50,0
31390,note_on,94,0,4,,,,,,,,,3,,,78,0
31390,note_on,94,0,3,,,,,,,,,2,,,81,0
31392,note_on,2,0,7,,,,,,,,,5,,,50,92
31392,note_on,2,0,5,,,,,,,,,4,,,69,92
31392,note_on,2,0,4,,,,,,,,,3,,,74,92
31392,note_on,0,0,6,,,,,,,,,5,,,69,92
31392,note_on,0,0,6,,,,,,,,,5,,,74,92
31392,note_on,32,0,6,,,,,,,,,5,,,66,92
31392,note_on,2,0,3,,,,,,,,,2,,,78,92
31392,note_on,2,0,2,,,,,,,,,1,,,50,92
31392,note_on,2,0,1,,,,,,,,,0,,,78,92
31392,note_on,2,0,8,,,,,,,,,7,,,50,92
31486,note_on,94,0,8,,,,,,,,,7,,,50,0
31486,note_on,94,0,6,,,,,,,,,5,,,66,0
31486,note_on,0,0,6,,,,,,,,,5,,,69,0
31486,note_on,94,0,4,,,,,,,,,3,,,74,0
31486,note_on,94,0,1,,,,,,,,,0,,,78,0
31486,note_on,94,0,3,,,,,,,,,2,,,78,0
31486,note_on,0,0,6,,,,,,,,,5,,,74,0
31486,note_on,94,0,5,,,,,,,,,4,,,69,0
31486,note_on,94,0,7,,,,,,,,,5,,,50,0
31486,note_on,94,0,2,,,,,,,,,1,,,50,0
31488,note_on,2,0,2,,,,,,,,,1,,,43,92
31488,note_on,2,0,7,,,,,,,,,5,,,43,92
31488,note_on,2,0,8,,,,,,,,,7,,,43,92
31488,note_on,2,0,5,,,,,,,,,4,,,71,92
31488,note_on,2,0,1,,,,,,,,,0,,,79,92
31488,note_on,0,0,6,,,,,,,,,5,,,71,92
31488,note_on,0,0,6,,,,,,,,,5,,,76,92
31488,note_on,2,0,3,,,,,,,,,2,,,79,92
31488,note_on,2,0,6,,,,,,,,,5,,,67,92
31488,note_on,2,0,4,,,,,,,,,3,,,76,92
31582,note_on,94,0,6,,,,,,,,,5,,,67,0
31582,note_on,94,0,5,,,,,,,,,4,,,71,0
31582,note_on,94,0,1,,,,,,,,,0,,,79,0
31582,note_on,94,0,7,,,,,,,,,5,,,43,0
31582,note_on,94,0,2,,,,,,,,,1,,,43,0
31582,note_on,94,0,4,,,,,,,,,3,,,76,0
31582,note_on,94,0,8,,,,,,,,,7,,,43,0
31582,note_on,94,0,3,,,,,,,,,2,,,79,0
31582,note_on,0,0,6,,,,,,,,,5,,,71,0
31582,note_on,0,0,6,,,,,,,,,5,,,76,0
31584,note_on,2,0,7,,,,,,,,,5,,,45,92
31584,note_on,2,0,2,,,,,,,,,1,,,45,92
31584,note_on,2,0,1,,,,,,,,,0,,,76,92
31584,note_on,2,0,8,,,,,,,,,7,,,45,92
31584,note_on,2,0,3,,,,,,,,,2,,,76,92
31584,note_on,2,0,5,,,,,,,,,4,,,69,92
31584,note_on,0,0,6,,,,,,,,,5,,,69,92
31584,note_on,2,0,6,,,,,,,,,5,,,64,92
31584,note_on,2,0,4,,,,,,,,,3,,,73,92
31584,note_on,0,0,6,,,,,,,,,5,,,73,92
31678,note_on,94,0,2,,,,,,,,,1,,,45,0
31678,note_on,94,0,7,,,,,,,,,5,,,45,0
31678,note_on,94,0,6,,,,,,,,,5,,,64,0
31678,note_on,94,0,8,,,,,,,,,7,,,45,0
31678,note_on,0,0,6,,,,,,,,,5,,,69,0
31678,note_on,94,0,4,,,,,,,,,3,,,73,0
31678,note_on,94,0,5,,,,,,,,,4,,,69,0
31678,note_on,0,0,6,,,,,,,,,5,,,73,0
31678,note_on,94,0,1,,,,,,,,,0,,,76,0
31678,note_on,94,0,3,,,,,,,,,2,,,76,0
31680,note_on,2,0,1,,,,,,,,,0,,,78,92
31680,note_on,2,0,6,,,,,,,,,5,,,66,92
31680,note_on,0,0,6,,,,,,,,,5,,,69,92
31680,note_on,2,0,7,,,,,,,,,5,,,50,92
31680,note_on,2,0,8,,,,,,,,,7,,,50,92
31680,note_on,0,0,6,,,,,,,,,5,,,74,92
31680,note_on,2,0,4,,,,,,,,,3,,,74,92
31680,note_on,2,0,2,,,,,,,,,1,,,50,92
31680,note_on,2,0,3,,,,,,,,,2,,,78,92
31680,note_on,2,0,5,,,,,,,,,4,,,57,92
31728,note_on,0,0,1,,,,,,,,,0,,,76,92
31728,note_on,48,0,3,,,,,,,,,2,,,78,0
31728,note_on,48,0,1,,,,,,,,,0,,,78,0
31728,note_on,48,0,4,,,,,,,,,3,,,74,0
31728,note_on,0,0,4,,,,,,,,,3,,,76,92
31728,note_on,0,0,3,,,,,,,,,2,,,76,92
31774,note_on,94,0,2,,,,,,,,,1,,,50,0
31774,note_on,94,0,8,,,,,,,,,7,,,50,0
31774,note_on,94,0,7,,,,,,,,,5,,,50,0
31776,note_on,0,0,3,,,,,,,,,2,,,74,92
31776,note_on,0,0,1,,,,,,,,,0,,,74,92
31776,note_on,2,0,2,,,,,,,,,1,,,62,92
31776,note_on,48,0,3,,,,,,,,,2,,,76,0
31776,note_on,2,0,8,,,,,,,,,7,,,62,92
31776,note_on,48,0,4,,,,,,,,,3,,,76,0
31776,note_on,48,0,1,,,,,,,,,0,,,76,0
31776,note_on,0,0,4,,,,,,,,,3,,,78,92
31776,note_on,2,0,7,,,,,,,,,5,,,62,92
31840,note_on,160,0,5,,,,,,,,,4,,,57,0
31870,note_on,94,0,1,,,,,,,,,0,,,74,0
31870,note_on,94,0,8,,,,,,,,,7,,,62,0
31870,note_on,94,0,4,,,,,,,,,3,,,78,0
31870,note_on,94,0,3,,,,,,,,,2,,,74,0
31870,note_on,94,0,7,,,,,,,,,5,,,62,0
31870,note_on,94,0,2,,,,,,,,,1,,,62,0
31872,note_on,2,0,2,,,,,,,,,1,,,50,92
31872,note_on,2,0,3,,,,,,,,,2,,,81,92
31872,note_on,2,0,1,,,,,,,,,0,,,81,92
31872,note_on,2,0,4,,,,,,,,,3,,,78,92
31872,note_on,32,0,5,,,,,,,,,4,,,69,92
31872,note_on,2,0,8,,,,,,,,,7,,,50,92
31872,note_on,2,0,7,,,,,,,,,5,,,50,92
31936,note_on,256,0,6,,,,,,,,,5,,,66,0
31936,note_on,0,0,6,,,,,,,,,5,,,69,0
31936,note_on,0,0,6,,,,,,,,,5,,,74,0
31966,note_on,94,0,7,,,,,,,,,5,,,50,0
31966,note_on,94,0,5,,,,,,,,,4,,,69,0
31966,note_on,94,0,3,,,,,,,,,2,,,81,0
31966,note_on,94,0,2,,,,,,,,,1,,,50,0
31966,note_on,94,0,8,,,,,,,,,7,,,50,0
31966,note_on,94,0,4,,,,,,,,,3,,,78,0
31966,note_on,94,0,1,,,,,,,,,0,,,81,0
31968,note_on,2,0,3,,,,,,,,,2,,,78,92
31968,note_on,0,0,6,,,,,,,,,5,,,74,92
31968,note_on,2,0,2,,,,,,,,,1,,,50,92
31968,note_on,2,0,5,,,,,,,,,4,,,69,92
31968,note_on,0,0,6,,,,,,,,,5,,,69,92
31968,note_on,2,0,4,,,,,,,,,3,,,74,92
31968,note_on,32,0,6,,,,,,,,,5,,,66,92
31968,note_on,2,0,8,,,,,,,,,7,,,50,92
31968,note_on,2,0,7,,,,,,,,,5,,,50,92
31968,note_on,2,0,1,,,,,,,,,0,,,78,92
32062,note_on,94,0,8,,,,,,,,,7,,,50,0
32062,note_on,0,0,6,,,,,,,,,5,,,69,0
32062,note_on,94,0,6,,,,,,,,,5,,,66,0
32062,note_on,0,0,6,,,,,,,,,5,,,74,0
32062,note_on,94,0,1,,,,,,,,,0,,,78,0
32062,note_on,94,0,3,,,,,,,,,2,,,78,0
32062,note_on,94,0,2,,,,,,,,,1,,,50,0
32062,note_on,94,0,5,,,,,,,,,4,,,69,0
32062,note_on,94,0,7,,,,,,,,,5,,,50,0
32062,note_on,94,0,4,,,,,,,,,3,,,74,0
32064,note_on,0,0,6,,,,,,,,,5,,,76,92
32064,note_on,2,0,6,,,,,,,,,5,,,67,92
32064,note_on,2,0,8,,,,,,,,,7,,,43,92
32064,note_on,2,0,5,,,,,,,,,4,,,71,92
32064,note_on,2,0,7,,,,,,,,,5,,,43,92
32064,note_on,0,0,6,,,,,,,,,5,,,71,92
32064,note_on,2,0,3,,,,,,,,,2,,,79,92
32064,note_on,2,0,4,,,,,,,,,3,,,79,92
32064,note_on,2,0,1,,,,,,,,,0,,,79,92
32064,note_on,2,0,2,,,,,,,,,1,,,43,92
32158,note_on,94,0,4,,,,,,,,,3,,,79,0
32158,note_on,94,0,1,,,,,,,,,0,,,79,0
32158,note_on,94,0,7,,,,,,,,,5,,,43,0
32158,note_on,94,0,6,,,,,,,,,5,,,67,0
32158,note_on,0,0,6,,,,,,,,,5,,,71,0
32158,note_on,0,0,6,,,,,,,,,5,,,76,0
32158,note_on,94,0,3,,,,,,,,,2,,,79,0
32158,note_on,94,0,2,,,,,,,,,1,,,43,0
32158,note_on,94,0,8,,,,,,,,,7,,,43,0
32158,note_on,94,0,5,,,,,,,,,4,,,71,0
32160,note_on,2,0,3,,,,,,,,,2,,,76,92
32160,note_on,2,0,7,,,,,,,,,5,,,45,92
32160,note_on,2,0,4,,,,,,,,,3,,,76,92
32160,note_on,2,0,2,,,,,,,,,1,,,45,92
32160,note_on,0,0,6,,,,,,,,,5,,,69,92
32160,note_on,2,0,8,,,,,,,,,7,,,45,92
32160,note_on,0,0,6,,,,,,,,,5,,,73,92
32160,note_on,2,0,6,,,,,,,,,5,,,64,92
32160,note_on,2,0,1,,,,,,,,,0,,,76,92
32160,note_on,2,0,5,,,,,,,,,4,,,69,92
32254,note_on,94,0,2,,,,,,,,,1,,,45,0
32254,note_on,94,0,5,,,,,,,,,4,,,69,0
32254,note_on,94,0,8,,,,,,,,,7,,,45,0
32254,note_on,94,0,6,,,,,,,,,5,,,64,0
32254,note_on,94,0,3,,,,,,,,,2,,,76,0
32254,note_on,0,0,6,,,,,,,,,5,,,69,0
32254,note_on,94,0,1,,,,,,,,,0,,,76,0
32254,note_on,94,0,7,,,,,,,,,5,,,45,0
32254,note_on,0,0,6,,,,,,,,,5,,,73,0
32254,note_on,94,0,4,,,,,,,,,3,,,76,0
32256,note_on,0,0,6,,,,,,,,,5,,,69,92
32256,note_on,2,0,6,,,,,,,,,5,,,66,92
32256,note_on,2,0,5,,,,,,,,,4,,,66,92
32256,note_on,2,0,7,,,,,,,,,5,,,50,92
32256,note_on,2,0,4,,,,,,,,,3,,,74,92
32256,note_on,2,0,8,,,,,,,,,7,,,50,92
32256,note_on,2,0,2,,,,,,,,,1,,,50,92
32256,note_on,2,0,3,,,,,,,,,2,,,74,92
32256,note_on,2,0,1,,,,,,,,,0,,,74,92
32256,note_on,0,0,6,,,,,,,,,5,,,74,92
32512,note_on,0,0,6,,,,,,,,,5,,,69,0
32512,note_on,0,0,6,,,,,,,,,5,,,74,0
32512,note_on,256,0,6,,,,,,,,,5,,,66,0
32512,note_on,256,0,2,,,,,,,,,1,,,50,0
32512,note_on,256,0,3,,,,,,,,,2,,,74,0
32512,note_on,256,0,5,,,,,,,,,4,,,66,0
32512,note_on,256,0,7,,,,,,,,,5,,,50,0
32512,note_on,256,0,1,,,,,,,,,0,,,74,0
32512,note_on,256,0,8,,,,,,,,,7,,,50,0
32512,note_on,256,0,4,,,,,,,,,3,,,74,0
32544,note_on,32,0,1,,,,,,,,,0,,,81,108
32832,note_on,0,0,6,,,,,,,,,5,,,71,60
32832,note_on,320,0,2,,,,,,,,,1,,,51,108
32832,note_on,320,0,7,,,,,,,,,5,,,51,60
32832,note_on,320,0,8,,,,,,,,,7,,,51,45
32832,note_on,320,0,6,,,,,,,,,5,,,69,60
32832,note_on,0,0,6,,,,,,,,,5,,,78,60
32928,note_on,384,0,1,,,,,,,,,0,,,81,0
32928,note_on,0,0,1,,,,,,,,,0,,,79,108
33024,note_on,0,0,1,,,,,,,,,0,,,78,108
33024,note_on,96,0,1,,,,,,,,,0,,,79,0
33088,note_on,0,0,6,,,,,,,,,5,,,71,0
33088,note_on,0,0,6,,,,,,,,,5,,,78,0
33088,note_on,256,0,8,,,,,,,,,7,,,51,0
33088,note_on,256,0,7,,,,,,,,,5,,,51,0
33088,note_on,256,0,2,,,,,,,,,1,,,51,0
33088,note_on,256,0,6,,,,,,,,,5,,,69,0
33118,note_on,94,0,1,,,,,,,,,0,,,78,0
33120,note_on,32,0,6,,,,,,,,,5,,,67,60
33120,note_on,0,0,6,,,,,,,,,5,,,71,60
33120,note_on,0,0,6,,,,,,,,,5,,,76,60
33120,note_on,2,0,1,,,,,,,,,0,,,79,108
33120,note_on,32,0,8,,,,,,,,,7,,,52,45
33120,note_on,32,0,7,,,,,,,,,5,,,52,60
33120,note_on,32,0,2,,,,,,,,,1,,,52,108
33216,note_on,96,0,1,,,,,,,,,0,,,79,0
33216,note_on,0,0,1,,,,,,,,,0,,,78,108
33312,note_on,96,0,1,,,,,,,,,0,,,78,0
33312,note_on,0,0,1,,,,,,,,,0,,,76,108
33376,note_on,0,0,6,,,,,,,,,5,,,76,0
33376,note_on,256,0,6,,,,,,,,,5,,,67,0
33376,note_on,0,0,6,,,,,,,,,5,,,71,0
33376,note_on,256,0,2,,,,,,,,,1,,,52,0
33376,note_on,256,0,7,,,,,,,,,5,,,52,0
33376,note_on,256,0,8,,,,,,,,,7,,,52,0
33406,note_on,94,0,1,,,,,,,,,0,,,76,0
33408,note_on,2,0,1,,,,,,,,,0,,,75,108
33408,note_on,32,0,7,,,,,,,,,5,,,59,60
33408,note_on,32,0,8,,,,,,,,,7,,,59,45
33408,note_on,32,0,6,,,,,,,,,5,,,66,60
33408,note_on,0,0,6,,,,,,,,,5,,,75,60
33408,note_on,0,0,6,,,,,,,,,5,,,71,60
33408,note_on,32,0,2,,,,,,,,,1,,,59,108
33502,note_on,94,0,2,,,,,,,,,1,,,59,0
33502,note_on,94,0,1,,,,,,,,,0,,,75,0
33504,note_on,2,0,2,,,,,,,,,1,,,47,108
33504,note_on,2,0,1,,,,,,,,,0,,,73,108
33598,note_on,94,0,2,,,,,,,,,1,,,47,0
33598,note_on,94,0,1,,,,,,,,,0,,,73,0
33600,note_on,2,0,2,,,,,,,,,1,,,59,108
33600,note_on,2,0,1,,,,,,,,,0,,,71,108
33664,note_on,256,0,8,,,,,,,,,7,,,59,0
33664,note_on,256,0,7,,,,,,,,,5,,,59,0
33664,note_on,256,0,6,,,,,,,,,5,,,66,0
33664,note_on,0,0,6,,,,,,,,,5,,,71,0
33664,note_on,0,0,6,,,,,,,,,5,,,75,0
33694,note_on,94,0,1,,,,,,,,,0,,,71,0
33694,note_on,94,0,2,,,,,,,,,1,,,59,0
33696,note_on,0,0,6,,,,,,,,,5,,,71,60
33696,note_on,0,0,6,,,,,,,,,5,,,76,60
33696,note_on,32,0,7,,,,,,,,,5,,,59,60
33696,note_on,2,0,1,,,,,,,,,0,,,79,108
33696,note_on,2,0,2,,,,,,,,,1,,,59,108
33696,note_on,32,0,6,,,,,,,,,5,,,67,60
33696,note_on,32,0,8,,,,,,,,,7,,,59,45
33790,note_on,94,0,2,,,,,,,,,1,,,59,0
33792,note_on,2,0,2,,,,,,,,,1,,,47,108
33886,note_on,94,0,2,,,,,,,,,1,,,47,0
33888,note_on,2,0,2,,,,,,,,,1,,,59,108
33952,note_on,256,0,8,,,,,,,,,7,,,59,0
33952,note_on,256,0,1,,,,,,,,,0,,,79,0
33952,note_on,256,0,7,,,,,,,,,5,,,59,0
33952,note_on,256,0,6,,,,,,,,,5,,,67,0
33952,note_on,0,0,6,,,,,,,,,5,,,71,0
33952,note_on,0,0,6,,,,,,,,,5,,,76,0
33982,note_on,94,0,2,,,,,,,,,1,,,59,0
33984,note_on,0,0,6,,,,,,,,,5,,,71,60
33984,note_on,32,0,8,,,,,,,,,7,,,59,45
33984,note_on,2,0,2,,,,,,,,,1,,,59,108
33984,note_on,32,0,7,,,,,,,,,5,,,59,60
33984,note_on,32,0,1,,,,,,,,,0,,,78,108
33984,note_on,32,0,6,,,,,,,,,5,,,66,60
33984,note_on,0,0,6,,,,,,,,,5,,,75,60
34078,note_on,94,0,2,,,,,,,,,1,,,59,0
34078,note_on,94,0,1,,,,,,,,,0,,,78,0
34080,note_on,2,0,2,,,,,,,,,1,,,47,108
34080,note_on,2,0,1,,,,,,,,,0,,,76,108
34174,note_on,94,0,1,,,,,,,,,0,,,76,0
34174,note_on,94,0,2,,,,,,,,,1,,,47,0
34176,note_on,2,0,2,,,,,,,,,1,,,59,108
34176,note_on,2,0,1,,,,,,,,,0,,,75,108
34240,note_on,256,0,7,,,,,,,,,5,,,59,0
34240,note_on,256,0,6,,,,,,,,,5,,,66,0
34240,note_on,0,0,6,,,,,,,,,5,,,75,0
34240,note_on,0,0,6,,,,,,,,,5,,,71,0
34240,note_on,256,0,8,,,,,,,,,7,,,59,0
34270,note_on,94,0,1,,,,,,,,,0,,,75,0
34270,note_on,94,0,2,,,,,,,,,1,,,59,0
34272,note_on,0,0,6,,,,,,,,,5,,,71,60
34272,note_on,0,0,6,,,,,,,,,5,,,78,60
34272,note_on,2,0,1,,,,,,,,,0,,,81,108
34272,note_on,32,0,8,,,,,,,,,7,,,59,45
34272,note_on,32,0,7,,,,,,,,,5,,,59,60
34272,note_on,2,0,2,,,,,,,,,1,,,59,108
34272,note_on,32,0,6,,,,,,,,,5,,,69,60
34366,note_on,94,0,2,,,,,,,,,1,,,59,0
34368,note_on,2,0,2,,,,,,,,,1,,,47,108
34462,note_on,94,0,2,,,,,,,,,1,,,47,0
34464,note_on,2,0,2,,,,,,,,,1,,,59,108
34528,note_on,256,0,6,,,,,,,,,5,,,69,0
34528,note_on,0,0,6,,,,,,,,,5,,,71,0
34528,note_on,256,0,1,,,,,,,,,0,,,81,0
34528,note_on,256,0,8,,,,,,,,,7,,,59,0
34528,note_on,0,0,6,,,,,,,,,5,,,78,0
34528,note_on,256,0,7,,,,,,,,,5,,,59,0
34558,note_on,94,0,2,,,,,,,,,1,,,59,0
34560,note_on,32,0,7,,,,,,,,,5,,,52,60
34560,note_on,32,0,8,,,,,,,,,7,,,52,45
34560,note_on,32,0,6,,,,,,,,,5,,,67,60
34560,note_on,0,0,6,,,,,,,,,5,,,71,60
34560,note_on,0,0,6,,,,,,,,,5,,,76,60
34560,note_on,2,0,2,,,,,,,,,1,,,52,108
34560,note_on,32,0,1,,,,,,,,,0,,,79,108
34654,note_on,94,0,2,,,,,,,,,1,,,52,0
34654,note_on,94,0,1,,,,,,,,,0,,,79,0
34656,note_on,2,0,1,,,,,,,,,0,,,78,108
34656,note_on,2,0,2,,,,,,,,,1,,,40,108
34750,note_on,94,0,2,,,,,,,,,1,,,40,0
34750,note_on,94,0,1,,,,,,,,,0,,,78,0
34752,note_on,2,0,2,,,,,,,,,1,,,52,108
34752,note_on,2,0,1,,,,,,,,,0,,,76,108
34816,note_on,256,0,7,,,,,,,,,5,,,52,0
34816,note_on,256,0,8,,,,,,,,,7,,,52,0
34816,note_on,0,0,6,,,,,,,,,5,,,76,0
34816,note_on,0,0,6,,,,,,,,,5,,,71,0
34816,note_on,256,0,6,,,,,,,,,5,,,67,0
34846,note_on,94,0,1,,,,,,,,,0,,,76,0
34846,note_on,94,0,2,,,,,,,,,1,,,52,0
34848,note_on,32,0,7,,,,,,,,,5,,,52,60
34848,note_on,32,0,8,,,,,,,,,7,,,52,45
34848,note_on,0,0,6,,,,,,,,,5,,,71,60
34848,note_on,2,0,1,,,,,,,,,0,,,83,108
34848,note_on,32,0,6,,,,,,,,,5,,,67,60
34848,note_on,2,0,2,,,,,,,,,1,,,52,108
34848,note_on,0,0,6,,,,,,,,,5,,,76,60
34942,note_on,94,0,2,,,,,,,,,1,,,52,0
34944,note_on,2,0,2,,,,,,,,,1,,,40,108
35038,note_on,94,0,2,,,,,,,,,1,,,40,0
35040,note_on,2,0,2,,,,,,,,,1,,,52,108
35104,note_on,256,0,8,,,,,,,,,7,,,52,0
35104,note_on,0,0,6,,,,,,,,,5,,,76,0
35104,note_on,0,0,6,,,,,,,,,5,,,71,0
35104,note_on,256,0,6,,,,,,,,,5,,,67,0
35104,note_on,256,0,7,,,,,,,,,5,,,52,0
35134,note_on,94,0,2,,,,,,,,,1,,,52,0
35136,note_on,32,0,8,,,,,,,,,7,,,52,45
35136,note_on,32,0,6,,,,,,,,,5,,,67,60
35136,note_on,0,0,6,,,,,,,,,5,,,76,60
35136,note_on,2,0,2,,,,,,,,,1,,,52,108
35136,note_on,0,0,6,,,,,,,,,5,,,71,60
35136,note_on,32,0,7,,,,,,,,,5,,,52,60
35230,note_on,382,0,1,,,,,,,,,0,,,83,0
35230,note_on,94,0,2,,,,,,,,,1,,,52,0
35232,note_on,2,0,1,,,,,,,,,0,,,81,108
35232,note_on,2,0,2,,,,,,,,,1,,,40,108
35326,note_on,94,0,2,,,,,,,,,1,,,40,0
35326,note_on,94,0,1,,,,,,,,,0,,,81,0
35328,note_on,2,0,1,,,,,,,,,0,,,79,108
35328,note_on,2,0,2,,,,,,,,,1,,,52,108
35392,note_on,0,0,6,,,,,,,,,5,,,76,0
35392,note_on,256,0,8,,,,,,,,,7,,,52,0
35392,note_on,0,0,6,,,,,,,,,5,,,71,0
35392,note_on,256,0,6,,,,,,,,,5,,,67,0
35392,note_on,256,0,7,,,,,,,,,5,,,52,0
35422,note_on,94,0,1,,,,,,,,,0,,,79,0
35422,note_on,94,0,2,,,,,,,,,1,,,52,0
35424,note_on,32,0,6,,,,,,,,,5,,,64,60
35424,note_on,0,0,6,,,,,,,,,5,,,67,60
35424,note_on,0,0,6,,,,,,,,,5,,,71,60
35424,note_on,32,0,8,,,,,,,,,7,,,52,45
35424,note_on,32,0,7,,,,,,,,,5,,,52,60
35424,note_on,2,0,2,,,,,,,,,1,,,52,108
35424,note_on,2,0,1,,,,,,,,,0,,,78,108
35518,note_on,94,0,1,,,,,,,,,0,,,78,0
35518,note_on,94,0,2,,,,,,,,,1,,,52,0
35520,note_on,2,0,1,,,,,,,,,0,,,76,108
35520,note_on,2,0,2,,,,,,,,,1,,,40,108
35614,note_on,94,0,1,,,,,,,,,0,,,76,0
35614,note_on,94,0,2,,,,,,,,,1,,,40,0
35616,note_on,2,0,1,,,,,,,,,0,,,74,108
35616,note_on,2,0,2,,,,,,,,,1,,,52,108
35680,note_on,256,0,8,,,,,,,,,7,,,52,0
35680,note_on,256,0,6,,,,,,,,,5,,,64,0
35680,note_on,256,0,7,,,,,,,,,5,,,52,0
35680,note_on,0,0,6,,,,,,,,,5,,,67,0
35680,note_on,0,0,6,,,,,,,,,5,,,71,0
35710,note_on,94,0,1,,,,,,,,,0,,,74,0
35710,note_on,94,0,2,,,,,,,,,1,,,52,0
35712,note_on,0,0,6,,,,,,,,,5,,,69,60
35712,note_on,0,0,6,,,,,,,,,5,,,72,60
35712,note_on,2,0,1,,,,,,,,,0,,,72,108
35712,note_on,32,0,6,,,,,,,,,5,,,64,60
35712,note_on,32,0,7,,,,,,,,,5,,,57,60
35712,note_on,32,0,8,,,,,,,,,7,,,57,45
35712,note_on,2,0,2,,,,,,,,,1,,,57,108
35806,note_on,94,0,2,,,,,,,,,1,,,57,0
35808,note_on,2,0,2,,,,,,,,,1,,,45,108
35902,note_on,94,0,2,,,,,,,,,1,,,45,0
35904,note_on,2,0,2,,,,,,,,,1,,,57,108
35968,note_on,256,0,7,,,,,,,,,5,,,57,0
35968,note_on,0,0,6,,,,,,,,,5,,,69,0
35968,note_on,256,0,1,,,,,,,,,0,,,72,0
35968,note_on,256,0,8,,,,,,,,,7,,,57,0
35968,note_on,256,0,6,,,,,,,,,5,,,64,0
35968,note_on,0,0,6,,,,,,,,,5,,,72,0
35998,note_on,94,0,2,,,,,,,,,1,,,57,0
36000,note_on,32,0,7,,,,,,,,,5,,,57,60
36000,note_on,32,0,8,,,,,,,,,7,,,57,45
36000,note_on,32,0,1,,,,,,,,,0,,,81,108
36000,note_on,0,0,6,,,,,,,,,5,,,72,60
36000,note_on,0,0,6,,,,,,,,,5,,,69,60
36000,note_on,32,0,6,,,,,,,,,5,,,64,60
36000,note_on,2,0,2,,,,,,,,,1,,,57,108
36094,note_on,94,0,2,,,,,,,,,1,,,57,0
36096,note_on,2,0,2,,,,,,,,,1,,,45,108
36190,note_on,94,0,2,,,,,,,,,1,,,45,0
36192,note_on,2,0,2,,,,,,,,,1,,,57,108
36256,note_on,256,0,6,,,,,,,,,5,,,64,0
36256,note_on,0,0,6,,,,,,,,,5,,,69,0
36256,note_on,0,0,6,,,,,,,,,5,,,72,0
36256,note_on,256,0,7,,,,,,,,,5,,,57,0
36256,note_on,256,0,8,,,,,,,,,7,,,57,0
36286,note_on,94,0,2,,,,,,,,,1,,,57,0
36288,note_on,32,0,7,,,,,,,,,5,,,54,60
36288,note_on,32,0,8,,,,,,,,,7,,,54,45
36288,note_on,0,0,6,,,,,,,,,5,,,69,60
36288,note_on,32,0,6,,,,,,,,,5,,,62,60
36288,note_on,0,0,6,,,,,,,,,5,,,72,60
36288,note_on,2,0,2,,,,,,,,,1,,,54,108
36382,note_on,382,0,1,,,,,,,,,0,,,81,0
36382,note_on,94,0,2,,,,,,,,,1,,,54,0
36384,note_on,2,0,1,,,,,,,,,0,,,79,108
36384,note_on,2,0,2,,,,,,,,,1,,,42,108
36478,note_on,94,0,1,,,,,,,,,0,,,79,0
36478,note_on,94,0,2,,,,,,,,,1,,,42,0
36480,note_on,2,0,1,,,,,,,,,0,,,78,108
36480,note_on,2,0,2,,,,,,,,,1,,,54,108
36544,note_on,256,0,7,,,,,,,,,5,,,54,0
36544,note_on,256,0,6,,,,,,,,,5,,,62,0
36544,note_on,0,0,6,,,,,,,,,5,,,72,0
36544,note_on,256,0,8,,,,,,,,,7,,,54,0
36544,note_on,0,0,6,,,,,,,,,5,,,69,0
36574,note_on,94,0,2,,,,,,,,,1,,,54,0
36574,note_on,94,0,1,,,,,,,,,0,,,78,0
36576,note_on,32,0,6,,,,,,,,,5,,,62,60
36576,note_on,2,0,2,,,,,,,,,1,,,54,108
36576,note_on,0,0,6,,,,,,,,,5,,,69,60
36576,note_on,0,0,6,,,,,,,,,5,,,72,60
36576,note_on,2,0,1,,,,,,,,,0,,,76,108
36576,note_on,32,0,7,,,,,,,,,5,,,54,60
36576,note_on,32,0,8,,,,,,,,,7,,,54,45
36670,note_on,94,0,2,,,,,,,,,1,,,54,0
36670,note_on,94,0,1,,,,,,,,,0,,,76,0
36672,note_on,2,0,1,,,,,,,,,0,,,74,108
36672,note_on,2,0,2,,,,,,,,,1,,,42,108
36766,note_on,94,0,1,,,,,,,,,0,,,74,0
36766,note_on,94,0,2,,,,,,,,,1,,,42,0
36768,note_on,2,0,2,,,,,,,,,1,,,54,108
36768,note_on,2,0,1,,,,,,,,,0,,,72,108
36832,note_on,256,0,8,,,,,,,,,7,,,54,0
36832,note_on,256,0,7,,,,,,,,,5,,,54,0
36832,note_on,0,0,6,,,,,,,,,5,,,72,0
36832,note_on,256,0,6,,,,,,,,,5,,,62,0
36832,note_on,0,0,6,,,,,,,,,5,,,69,0
36862,note_on,94,0,2,,,,,,,,,1,,,54,0
36862,note_on,94,0,1,,,,,,,,,0,,,72,0
36864,note_on,2,0,2,,,,,,,,,1,,,55,108
36864,note_on,2,0,1,,,,,,,,,0,,,71,108
36864,note_on,0,0,6,,,,,,,,,5,,,71,60
36864,note_on,0,0,6,,,,,,,,,5,,,67,60
36864,note_on,32,0,7,,,,,,,,,5,,,55,60
36864,note_on,32,0,8,,,,,,,,,7,,,55,45
36864,note_on,32,0,6,,,,,,,,,5,,,62,60
36958,note_on,94,0,2,,,,,,,,,1,,,55,0
36960,note_on,2,0,2,,,,,,,,,1,,,43,108
37054,note_on,94,0,2,,,,,,,,,1,,,43,0
37056,note_on,2,0,2,,,,,,,,,1,,,55,108
37120,note_on,256,0,6,,,,,,,,,5,,,62,0
37120,note_on,0,0,6,,,,,,,,,5,,,67,0
37120,note_on,0,0,6,,,,,,,,,5,,,71,0
37120,note_on,256,0,7,,,,,,,,,5,,,55,0
37120,note_on,256,0,8,,,,,,,,,7,,,55,0
37120,note_on,256,0,1,,,,,,,,,0,,,71,0
37150,note_on,94,0,2,,,,,,,,,1,,,55,0
37152,note_on,2,0,2,,,,,,,,,1,,,55,108
37152,note_on,32,0,6,,,,,,,,,5,,,62,60
37152,note_on,0,0,6,,,,,,,,,5,,,67,60
37152,note_on,0,0,6,,,,,,,,,5,,,71,60
37152,note_on,32,0,1,,,,,,,,,0,,,79,108
37152,note_on,32,0,7,,,,,,,,,5,,,55,60
37152,note_on,32,0,8,,,,,,,,,7,,,55,45
37246,note_on,94,0,2,,,,,,,,,1,,,55,0
37248,note_on,2,0,2,,,,,,,,,1,,,43,108
37342,note_on,94,0,2,,,,,,,,,1,,,43,0
37344,note_on,2,0,2,,,,,,,,,1,,,55,108
37408,note_on,256,0,8,,,,,,,,,7,,,55,0
37408,note_on,256,0,7,,,,,,,,,5,,,55,0
37408,note_on,256,0,6,,,,,,,,,5,,,62,0
37408,note_on,0,0,6,,,,,,,,,5,,,67,0
37408,note_on,0,0,6,,,,,,,,,5,,,71,0
37438,note_on,94,0,2,,,,,,,,,1,,,55,0
37440,note_on,0,0,6,,,,,,,,,5,,,71,60
37440,note_on,0,0,6,,,,,,,,,5,,,67,60
37440,note_on,32,0,8,,,,,,,,,7,,,52,45
37440,note_on,2,0,2,,,,,,,,,1,,,52,108
37440,note_on,32,0,6,,,,,,,,,5,,,64,60
37440,note_on,32,0,7,,,,,,,,,5,,,52,60
37534,note_on,94,0,2,,,,,,,,,1,,,52,0
37534,note_on,382,0,1,,,,,,,,,0,,,79,0
37536,note_on,2,0,2,,,,,,,,,1,,,40,108
37536,note_on,2,0,1,,,,,,,,,0,,,78,108
37630,note_on,94,0,1,,,,,,,,,0,,,78,0
37630,note_on,94,0,2,,,,,,,,,1,,,40,0
37632,note_on,2,0,2,,,,,,,,,1,,,52,108
37632,note_on,2,0,1,,,,,,,,,0,,,76,108
37696,note_on,0,0,6,,,,,,,,,5,,,67,0
37696,note_on,256,0,7,,,,,,,,,5,,,52,0
37696,note_on,256,0,8,,,,,,,,,7,,,52,0
37696,note_on,256,0,6,,,,,,,,,5,,,64,0
37696,note_on,0,0,6,,,,,,,,,5,,,71,0
37726,note_on,94,0,1,,,,,,,,,0,,,76,0
37726,note_on,94,0,2,,,,,,,,,1,,,52,0
37728,note_on,0,0,6,,,,,,,,,5,,,71,60
37728,note_on,0,0,6,,,,,,,,,5,,,67,60
37728,note_on,2,0,2,,,,,,,,,1,,,52,108
37728,note_on,2,0,1,,,,,,,,,0,,,74,108
37728,note_on,32,0,8,,,,,,,,,7,,,52,45
37728,note_on,32,0,7,,,,,,,,,5,,,52,60
37728,note_on,32,0,6,,,,,,,,,5,,,64,60
37822,note_on,94,0,2,,,,,,,,,1,,,52,0
37822,note_on,94,0,1,,,,,,,,,0,,,74,0
37824,note_on,2,0,1,,,,,,,,,0,,,72,108
37824,note_on,2,0,2,,,,,,,,,1,,,40,108
37918,note_on,94,0,1,,,,,,,,,0,,,72,0
37918,note_on,94,0,2,,,,,,,,,1,,,40,0
37920,note_on,2,0,1,,,,,,,,,0,,,71,108
37920,note_on,2,0,2,,,,,,,,,1,,,52,108
37984,note_on,256,0,7,,,,,,,,,5,,,52,0
37984,note_on,256,0,8,,,,,,,,,7,,,52,0
37984,note_on,0,0,6,,,,,,,,,5,,,71,0
37984,note_on,0,0,6,,,,,,,,,5,,,67,0
37984,note_on,256,0,6,,,,,,,,,5,,,64,0
38014,note_on,94,0,1,,,,,,,,,0,,,71,0
38014,note_on,94,0,2,,,,,,,,,1,,,52,0
38016,note_on,32,0,7,,,,,,,,,5,,,54,60
38016,note_on,32,0,8,,,,,,,,,7,,,54,45
38016,note_on,2,0,2,,,,,,,,,1,,,54,108
38016,note_on,32,0,6,,,,,,,,,5,,,60,60
38016,note_on,2,0,1,,,,,,,,,0,,,69,108
38016,note_on,0,0,6,,,,,,,,,5,,,69,60
38016,note_on,0,0,6,,,,,,,,,5,,,66,60
38110,note_on,94,0,2,,,,,,,,,1,,,54,0
38112,note_on,2,0,2,,,,,,,,,1,,,42,108
38206,note_on,94,0,2,,,,,,,,,1,,,42,0
38208,note_on,2,0,2,,,,,,,,,1,,,54,108
38272,note_on,256,0,1,,,,,,,,,0,,,69,0
38272,note_on,256,0,8,,,,,,,,,7,,,54,0
38272,note_on,256,0,6,,,,,,,,,5,,,60,0
38272,note_on,0,0,6,,,,,,,,,5,,,66,0
38272,note_on,0,0,6,,,,,,,,,5,,,69,0
38272,note_on,256,0,7,,,,,,,,,5,,,54,0
38302,note_on,94,0,2,,,,,,,,,1,,,54,0
38304,note_on,32,0,1,,,,,,,,,0,,,78,108
38304,note_on,32,0,8,,,,,,,,,7,,,54,45
38304,note_on,2,0,2,,,,,,,,,1,,,54,108
38304,note_on,0,0,6,,,,,,,,,5,,,69,60
38304,note_on,32,0,7,,,,,,,,,5,,,54,60
38304,note_on,32,0,6,,,,,,,,,5,,,60,60
38304,note_on,0,0,6,,,,,,,,,5,,,66,60
38398,note_on,94,0,2,,,,,,,,,1,,,54,0
38400,note_on,2,0,2,,,,,,,,,1,,,42,108
38494,note_on,94,0,2,,,,,,,,,1,,,42,0
38496,note_on,2,0,2,,,,,,,,,1,,,54,108
38560,note_on,256,0,6,,,,,,,,,5,,,60,0
38560,note_on,256,0,8,,,,,,,,,7,,,54,0
38560,note_on,0,0,6,,,,,,,,,5,,,69,0
38560,note_on,256,0,7,,,,,,,,,5,,,54,0
38560,note_on,0,0,6,,,,,,,,,5,,,66,0
38590,note_on,94,0,2,,,,,,,,,1,,,54,0
38592,note_on,32,0,8,,,,,,,,,7,,,51,45
38592,note_on,32,0,6,,,,,,,,,5,,,59,60
38592,note_on,0,0,6,,,,,,,,,5,,,66,60
38592,note_on,0,0,6,,,,,,,,,5,,,69,60
38592,note_on,32,0,7,,,,,,,,,5,,,51,60
38592,note_on,2,0,2,,,,,,,,,1,,,51,108
38686,note_on,382,0,1,,,,,,,,,0,,,78,0
38686,note_on,94,0,2,,,,,,,,,1,,,51,0
38688,note_on,2,0,2,,,,,,,,,1,,,39,108
38688,note_on,2,0,1,,,,,,,,,0,,,76,108
38782,note_on,94,0,2,,,,,,,,,1,,,39,0
38782,note_on,94,0,1,,,,,,,,,0,,,76,0
38784,note_on,2,0,1,,,,,,,,,0,,,75,108
38784,note_on,2,0,2,,,,,,,,,1,,,51,108
38848,note_on,0,0,6,,,,,,,,,5,,,66,0
38848,note_on,256,0,8,,,,,,,,,7,,,51,0
38848,note_on,256,0,6,,,,,,,,,5,,,59,0
38848,note_on,256,0,7,,,,,,,,,5,,,51,0
38848,note_on,0,0,6,,,,,,,,,5,,,69,0
38878,note_on,94,0,2,,,,,,,,,1,,,51,0
38878,note_on,94,0,1,,,,,,,,,0,,,75,0
38880,note_on,2,0,1,,,,,,,,,0,,,72,108
38880,note_on,2,0,2,,,,,,,,,1,,,51,108
38880,note_on,32,0,8,,,,,,,,,7,,,51,45
38880,note_on,32,0,7,,,,,,,,,5,,,51,60
38880,note_on,0,0,6,,,,,,,,,5,,,66,60
38880,note_on,0,0,6,,,,,,,,,5,,,69,60
38880,note_on,32,0,6,,,,,,,,,5,,,59,60
38974,note_on,94,0,1,,,,,,,,,0,,,72,0
38974,note_on,94,0,2,,,,,,,,,1,,,51,0
38976,note_on,2,0,1,,,,,,,,,0,,,71,108
38976,note_on,2,0,2,,,,,,,,,1,,,39,108
39070,note_on,94,0,2,,,,,,,,,1,,,39,0
39070,note_on,94,0,1,,,,,,,,,0,,,71,0
39072,note_on,2,0,2,,,,,,,,,1,,,51,108
39072,note_on,2,0,1,,,,,,,,,0,,,69,108
39136,note_on,256,0,7,,,,,,,,,5,,,51,0
39136,note_on,0,0,6,,,,,,,,,5,,,69,0
39136,note_on,256,0,8,,,,,,,,,7,,,51,0
39136,note_on,256,0,6,,,,,,,,,5,,,59,0
39136,note_on,0,0,6,,,,,,,,,5,,,66,0
39166,note_on,94,0,2,,,,,,,,,1,,,51,0
39166,note_on,94,0,1,,,,,,,,,0,,,69,0
39168,note_on,32,0,7,,,,,,,,,5,,,52,60
39168,note_on,32,0,6,,,,,,,,,5,,,59,60
39168,note_on,0,0,6,,,,,,,,,5,,,64,60
39168,note_on,2,0,2,,,,,,,,,1,,,52,108
39168,note_on,32,0,8,,,,,,,,,7,,,52,45
39168,note_on,0,0,6,,,,,,,,,5,,,67,60
39168,note_on,2,0,1,,,,,,,,,0,,,67,108
39424,note_on,256,0,1,,,,,,,,,0,,,67,0
39424,note_on,256,0,2,,,,,,,,,1,,,52,0
39424,note_on,256,0,8,,,,,,,,,7,,,52,0
39424,note_on,256,0,7,,,,,,,,,5,,,52,0
39424,note_on,256,0,6,,,,,,,,,5,,,59,0
39424,note_on,0,0,6,,,,,,,,,5,,,67,0
39424,note_on,0,0,6,,,,,,,,,5,,,64,0
39648,note_on,224,0,7,,,,,,,,,5,,,59,60
39648,note_on,224,0,6,,,,,,,,,5,,,63,60
39648,note_on,0,0,6,,,,,,,,,5,,,71,60
39648,note_on,224,0,2,,,,,,,,,1,,,59,108
39648,note_on,224,0,8,,,,,,,,,7,,,59,45
39648,note_on,0,0,6,,,,,,,,,5,,,66,60
39648,note_on,224,0,1,,,,,,,,,0,,,75,108
39742,note_on,94,0,6,,,,,,,,,5,,,63,0
39742,note_on,0,0,6,,,,,,,,,5,,,66,0
39742,note_on,0,0,6,,,,,,,,,5,,,71,0
39742,note_on,94,0,8,,,,,,,,,7,,,59,0
39742,note_on,94,0,7,,,,,,,,,5,,,59,0
39742,note_on,94,0,2,,,,,,,,,1,,,59,0
39742,note_on,94,0,1,,,,,,,,,0,,,75,0
39744,note_on,2,0,1,,,,,,,,,0,,,76,108
39744,note_on,2,0,7,,,,,,,,,5,,,64,60
39744,note_on,2,0,2,,,,,,,,,1,,,64,108
39744,note_on,0,0,6,,,,,,,,,5,,,71,60
39744,note_on,2,0,6,,,,,,,,,5,,,67,60
39744,note_on,2,0,8,,,,,,,,,7,,,64,45
39838,note_on,94,0,2,,,,,,,,,1,,,64,0
39840,note_on,2,0,2,,,,,,,,,1,,,59,108
39840,note_on,96,0,1,,,,,,,,,0,,,76,0
39840,note_on,0,0,1,,,,,,,,,0,,,75,108
39936,note_on,0,0,1,,,,,,,,,0,,,76,108
39936,note_on,96,0,1,,,,,,,,,0,,,75,0
39936,note_on,0,0,2,,,,,,,,,1,,,57,108
39936,note_on,96,0,2,,,,,,,,,1,,,59,0
40000,note_on,0,0,6,,,,,,,,,5,,,71,0
40000,note_on,256,0,8,,,,,,,,,7,,,64,0
40000,note_on,256,0,7,,,,,,,,,5,,,64,0
40000,note_on,256,0,6,,,,,,,,,5,,,67,0
40030,note_on,94,0,1,,,,,,,,,0,,,76,0
40030,note_on,94,0,2,,,,,,,,,1,,,57,0
40032,note_on,2,0,2,,,,,,,,,1,,,55,108
40032,note_on,32,0,6,,,,,,,,,5,,,64,60
40032,note_on,0,0,6,,,,,,,,,5,,,67,60
40032,note_on,0,0,6,,,,,,,,,5,,,71,60
40032,note_on,32,0,7,,,,,,,,,5,,,52,60
40032,note_on,32,0,8,,,,,,,,,7,,,52,45
40128,note_on,96,0,2,,,,,,,,,1,,,55,0
40128,note_on,0,0,2,,,,,,,,,1,,,54,108
40224,note_on,0,0,2,,,,,,,,,1,,,52,108
40224,note_on,194,0,1,,,,,,,,,0,,,71,108
40224,note_on,96,0,2,,,,,,,,,1,,,54,0
40288,note_on,256,0,8,,,,,,,,,7,,,52,0
40288,note_on,256,0,7,,,,,,,,,5,,,52,0
40288,note_on,256,0,6,,,,,,,,,5,,,64,0
40288,note_on,0,0,6,,,,,,,,,5,,,71,0
40288,note_on,0,0,6,,,,,,,,,5,,,67,0
40318,note_on,94,0,1,,,,,,,,,0,,,71,0
40318,note_on,94,0,2,,,,,,,,,1,,,52,0
40320,note_on,0,0,6,,,,,,,,,5,,,76,60
40320,note_on,0,0,6,,,,,,,,,5,,,71,60
40320,note_on,32,0,6,,,,,,,,,5,,,67,60
40320,note_on,2,0,1,,,,,,,,,0,,,79,108
40320,note_on,2,0,2,,,,,,,,,1,,,64,108
40320,note_on,32,0,8,,,,,,,,,7,,,64,45
40320,note_on,32,0,7,,,,,,,,,5,,,64,60
40414,note_on,94,0,2,,,,,,,,,1,,,64,0
40416,note_on,2,0,2,,,,,,,,,1,,,59,108
40416,note_on,0,0,1,,,,,,,,,0,,,78,108
40416,note_on,96,0,1,,,,,,,,,0,,,79,0
40512,note_on,0,0,2,,,,,,,,,1,,,57,108
40512,note_on,96,0,2,,,,,,,,,1,,,59,0
40512,note_on,96,0,1,,,,,,,,,0,,,78,0
40512,note_on,0,0,1,,,,,,,,,0,,,79,108
40576,note_on,256,0,8,,,,,,,,,7,,,64,0
40576,note_on,256,0,6,,,,,,,,,5,,,67,0
40576,note_on,0,0,6,,,,,,,,,5,,,71,0
40576,note_on,256,0,7,,,,,,,,,5,,,64,0
40576,note_on,0,0,6,,,,,,,,,5,,,76,0
40606,note_on,94,0,2,,,,,,,,,1,,,57,0
40606,note_on,94,0,1,,,,,,,,,0,,,79,0
40608,note_on,32,0,6,,,,,,,,,5,,,67,60
40608,note_on,2,0,2,,,,,,,,,1,,,55,108
40608,note_on,0,0,6,,,,,,,,,5,,,71,60
40608,note_on,32,0,7,,,,,,,,,5,,,52,60
40608,note_on,32,0,8,,,,,,,,,7,,,52,45
40608,note_on,0,0,6,,,,,,,,,5,,,76,60
40704,note_on,0,0,2,,,,,,,,,1,,,54,108
40704,note_on,96,0,2,,,,,,,,,1,,,55,0
40800,note_on,194,0,1,,,,,,,,,0,,,76,108
40800,note_on,96,0,2,,,,,,,,,1,,,54,0
40800,note_on,0,0,2,,,,,,,,,1,,,52,108
40864,note_on,256,0,7,,,,,,,,,5,,,52,0
40864,note_on,256,0,8,,,,,,,,,7,,,52,0
40864,note_on,0,0,6,,,,,,,,,5,,,76,0
40864,note_on,0,0,6,,,,,,,,,5,,,71,0
40864,note_on,256,0,6,,,,,,,,,5,,,67,0
40894,note_on,94,0,2,,,,,,,,,1,,,52,0
40894,note_on,94,0,1,,,,,,,,,0,,,76,0
40896,note_on,32,0,6,,,,,,,,,5,,,71,60
40896,note_on,2,0,2,,,,,,,,,1,,,64,108
40896,note_on,32,0,7,,,,,,,,,5,,,59,60
40896,note_on,0,0,6,,,,,,,,,5,,,76,60
40896,note_on,0,0,6,,,,,,,,,5,,,79,60
40896,note_on,32,0,8,,,,,,,,,7,,,59,45
40896,note_on,2,0,1,,,,,,,,,0,,,83,108
40990,note_on,94,0,2,,,,,,,,,1,,,64,0
40992,note_on,0,0,1,,,,,,,,,0,,,81,108
40992,note_on,96,0,1,,,,,,,,,0,,,83,0
40992,note_on,2,0,2,,,,,,,,,1,,,59,108
41088,note_on,96,0,2,,,,,,,,,1,,,59,0
41088,note_on,0,0,2,,,,,,,,,1,,,57,108
41088,note_on,0,0,1,,,,,,,,,0,,,83,108
41088,note_on,96,0,1,,,,,,,,,0,,,81,0
41152,note_on,0,0,6,,,,,,,,,5,,,79,0
41152,note_on,0,0,6,,,,,,,,,5,,,76,0
41152,note_on,256,0,8,,,,,,,,,7,,,59,0
41152,note_on,256,0,6,,,,,,,,,5,,,71,0
41152,note_on,256,0,7,,,,,,,,,5,,,59,0
41182,note_on,94,0,2,,,,,,,,,1,,,57,0
41182,note_on,94,0,1,,,,,,,,,0,,,83,0
41184,note_on,32,0,7,,,,,,,,,5,,,52,60
41184,note_on,0,0,6,,,,,,,,,5,,,71,60
41184,note_on,0,0,6,,,,,,,,,5,,,76,60
41184,note_on,2,0,2,,,,,,,,,1,,,55,108
41184,note_on,32,0,8,,,,,,,,,7,,,52,45
41184,note_on,32,0,6,,,,,,,,,5,,,67,60
41280,note_on,0,0,2,,,,,,,,,1,,,54,108
41280,note_on,96,0,2,,,,,,,,,1,,,55,0
41376,note_on,0,0,2,,,,,,,,,1,,,52,108
41376,note_on,96,0,2,,,,,,,,,1,,,54,0
41376,note_on,194,0,1,,,,,,,,,0,,,76,108
41440,note_on,256,0,8,,,,,,,,,7,,,52,0
41440,note_on,0,0,6,,,,,,,,,5,,,76,0
41440,note_on,0,0,6,,,,,,,,,5,,,71,0
41440,note_on,256,0,6,,,,,,,,,5,,,67,0
41440,note_on,256,0,7,,,,,,,,,5,,,52,0
41470,note_on,94,0,2,,,,,,,,,1,,,52,0
41470,note_on,94,0,1,,,,,,,,,0,,,76,0
41472,note_on,2,0,1,,,,,,,,,0,,,78,108
41472,note_on,32,0,8,,,,,,,,,7,,,45,45
41472,note_on,0,0,6,,,,,,,,,5,,,72,60
41472,note_on,32,0,6,,,,,,,,,5,,,64,60
41472,note_on,32,0,7,,,,,,,,,5,,,45,60
41472,note_on,2,0,2,,,,,,,,,1,,,45,108
41728,note_on,0,0,6,,,,,,,,,5,,,72,0
41728,note_on,256,0,8,,,,,,,,,7,,,45,0
41728,note_on,256,0,2,,,,,,,,,1,,,45,0
41728,note_on,256,0,1,,,,,,,,,0,,,78,0
41728,note_on,256,0,7,,,,,,,,,5,,,45,0
41728,note_on,256,0,6,,,,,,,,,5,,,64,0
41760,note_on,32,0,2,,,,,,,,,1,,,47,108
41760,note_on,32,0,7,,,,,,,,,5,,,47,60
41760,note_on,32,0,8,,,,,,,,,7,,,47,45
41760,note_on,32,0,1,,,,,,,,,0,,,75,108
41760,note_on,0,0,6,,,,,,,,,5,,,71,60
41760,note_on,0,0,6,,,,,,,,,5,,,66,60
41760,note_on,32,0,6,,,,,,,,,5,,,63,60
42016,note_on,256,0,7,,,,,,,,,5,,,47,0
42016,note_on,256,0,8,,,,,,,,,7,,,47,0
42016,note_on,256,0,1,,,,,,,,,0,,,75,0
42016,note_on,0,0,6,,,,,,,,,5,,,71,0
42016,note_on,0,0,6,,,,,,,,,5,,,66,0
42016,note_on,256,0,2,,,,,,,,,1,,,47,0
42016,note_on,256,0,6,,,,,,,,,5,,,63,0
42048,note_on,32,0,7,,,,,,,,,5,,,52,60
42048,note_on,32,0,8,,,,,,,,,7,,,52,45
42048,note_on,32,0,2,,,,,,,,,1,,,52,108
42048,note_on,32,0,1,,,,,,,,,0,,,76,108
42048,note_on,32,0,6,,,,,,,,,5,,,64,60
42048,note_on,0,0,6,,,,,,,,,5,,,67,60
42048,note_on,0,0,6,,,,,,,,,5,,,71,60
42142,note_on,94,0,1,,,,,,,,,0,,,76,0
42144,note_on,2,0,1,,,,,,,,,0,,,71,108
42238,note_on,94,0,1,,,,,,,,,0,,,71,0
42240,note_on,2,0,1,,,,,,,,,0,,,69,108
42304,note_on,0,0,6,,,,,,,,,5,,,67,0
42304,note_on,256,0,7,,,,,,,,,5,,,52,0
42304,note_on,256,0,6,,,,,,,,,5,,,64,0
42304,note_on,256,0,8,,,,,,,,,7,,,52,0
42304,note_on,256,0,2,,,,,,,,,1,,,52,0
42304,note_on,0,0,6,,,,,,,,,5,,,71,0
42334,note_on,94,0,1,,,,,,,,,0,,,69,0
42336,note_on,2,0,1,,,,,,,,,0,,,67,108
42430,note_on,94,0,1,,,,,,,,,0,,,67,0
42432,note_on,2,0,1,,,,,,,,,0,,,66,108
42526,note_on,94,0,1,,,,,,,,,0,,,66,0
42528,note_on,2,0,1,,,,,,,,,0,,,64,108
42622,note_on,94,0,1,,,,,,,,,0,,,64,0
42624,note_on,0,0,6,,,,,,,,,5,,,67,60
42624,note_on,320,0,7,,,,,,,,,5,,,52,60
42624,note_on,2,0,1,,,,,,,,,0,,,76,108
42624,note_on,320,0,8,,,,,,,,,7,,,52,45
42624,note_on,320,0,2,,,,,,,,,1,,,52,108
42624,note_on,320,0,6,,,,,,,,,5,,,64,60
42624,note_on,0,0,6,,,,,,,,,5,,,71,60
42718,note_on,94,0,1,,,,,,,,,0,,,76,0
42720,note_on,2,0,1,,,,,,,,,0,,,71,108
42814,note_on,94,0,1,,,,,,,,,0,,,71,0
42816,note_on,2,0,1,,,,,,,,,0,,,69,108
42880,note_on,256,0,8,,,,,,,,,7,,,52,0
42880,note_on,256,0,7,,,,,,,,,5,,,52,0
42880,note_on,0,0,6,,,,,,,,,5,,,71,0
42880,note_on,256,0,6,,,,,,,,,5,,,64,0
42880,note_on,256,0,2,,,,,,,,,1,,,52,0
42880,note_on,0,0,6,,,,,,,,,5,,,67,0
42910,note_on,94,0,1,,,,,,,,,0,,,69,0
42912,note_on,2,0,1,,,,,,,,,0,,,67,108
43006,note_on,94,0,1,,,,,,,,,0,,,67,0
43008,note_on,2,0,1,,,,,,,,,0,,,66,108
43102,note_on,94,0,1,,,,,,,,,0,,,66,0
43104,note_on,2,0,1,,,,,,,,,0,,,64,108
43198,note_on,94,0,1,,,,,,,,,0,,,64,0
43200,note_on,0,0,6,,,,,,,,,5,,,71,60
43200,note_on,320,0,8,,,,,,,,,7,,,52,45
43200,note_on,320,0,6,,,,,,,,,5,,,67,60
43200,note_on,320,0,2,,,,,,,,,1,,,52,108
43200,note_on,320,0,7,,,,,,,,,5,,,52,60
43200,note_on,0,0,6,,,,,,,,,5,,,76,60
43200,note_on,2,0,1,,,,,,,,,0,,,79,108
43456,note_on,256,0,7,,,,,,,,,5,,,52,0
43456,note_on,256,0,8,,,,,,,,,7,,,52,0
43456,note_on,0,0,6,,,,,,,,,5,,,76,0
43456,note_on,0,0,6,,,,,,,,,5,,,71,0
43456,note_on,256,0,2,,,,,,,,,1,,,52,0
43456,note_on,256,0,1,,,,,,,,,0,,,79,0
43456,note_on,256,0,6,,,,,,,,,5,,,67,0
43488,note_on,32,0,1,,,,,,,,,0,,,78,108
43488,note_on,0,0,6,,,,,,,,,5,,,71,60
43488,note_on,32,0,7,,,,,,,,,5,,,47,60
43488,note_on,32,0,2,,,,,,,,,1,,,47,108
43488,note_on,32,0,8,,,,,,,,,7,,,47,45
43488,note_on,0,0,6,,,,,,,,,5,,,75,60
43488,note_on,32,0,6,,,,,,,,,5,,,66,60
43744,note_on,256,0,1,,,,,,,,,0,,,78,0
43744,note_on,0,0,6,,,,,,,,,5,,,75,0
43744,note_on,256,0,2,,,,,,,,,1,,,47,0
43744,note_on,256,0,6,,,,,,,,,5,,,66,0
43744,note_on,0,0,6,,,,,,,,,5,,,71,0
43744,note_on,256,0,7,,,,,,,,,5,,,47,0
43744,note_on,256,0,8,,,,,,,,,7,,,47,0
43776,note_on,0,0,6,,,,,,,,,5,,,71,92
43776,note_on,32,0,6,,,,,,,,,5,,,67,92
43776,note_on,32,0,8,,,,,,,,,7,,,52,92
43776,note_on,32,0,1,,,,,,,,,0,,,76,92
43776,note_on,11264,0,3,,,,,,,,,2,,,76,92
43776,note_on,11264,0,4,,,,,,,,,3,,,76,92
43776,note_on,11264,0,5,,,,,,,,,4,,,64,92
43776,note_on,32,0,2,,,,,,,,,1,,,52,92
43776,note_on,0,0,6,,,,,,,,,5,,,76,92
43776,note_on,32,0,7,,,,,,,,,5,,,52,92
43870,note_on,94,0,1,,,,,,,,,0,,,76,0
43870,note_on,94,0,3,,,,,,,,,2,,,76,0
43870,note_on,94,0,4,,,,,,,,,3,,,76,0
43872,note_on,2,0,1,,,,,,,,,0,,,64,92
43872,note_on,2,0,3,,,,,,,,,2,,,64,92
43872,note_on,2,0,4,,,,,,,,,3,,,64,92
43966,note_on,94,0,1,,,,,,,,,0,,,64,0
43966,note_on,94,0,3,,,,,,,,,2,,,64,0
43966,note_on,94,0,4,,,,,,,,,3,,,64,0
43968,note_on,2,0,4,,,,,,,,,3,,,64,92
43968,note_on,2,0,1,,,,,,,,,0,,,64,92
43968,note_on,2,0,3,,,,,,,,,2,,,64,92
44032,note_on,256,0,2,,,,,,,,,1,,,52,0
44032,note_on,256,0,6,,,,,,,,,5,,,67,0
44032,note_on,0,0,6,,,,,,,,,5,,,71,0
44032,note_on,0,0,6,,,,,,,,,5,,,76,0
44032,note_on,256,0,8,,,,,,,,,7,,,52,0
44032,note_on,256,0,7,,,,,,,,,5,,,52,0
44032,note_on,256,0,5,,,,,,,,,4,,,64,0
44062,note_on,94,0,4,,,,,,,,,3,,,64,0
44062,note_on,94,0,3,,,,,,,,,2,,,64,0
44062,note_on,94,0,1,,,,,,,,,0,,,64,0
44064,note_on,2,0,3,,,,,,,,,2,,,76,92
44064,note_on,2,0,1,,,,,,,,,0,,,76,92
44064,note_on,2,0,4,,,,,,,,,3,,,76,92
44158,note_on,94,0,4,,,,,,,,,3,,,76,0
44158,note_on,94,0,3,,,,,,,,,2,,,76,0
44158,note_on,94,0,1,,,,,,,,,0,,,76,0
44160,note_on,2,0,1,,,,,,,,,0,,,64,92
44160,note_on,2,0,3,,,,,,,,,2,,,64,92
44160,note_on,2,0,4,,,,,,,,,3,,,64,92
44254,note_on,94,0,3,,,,,,,,,2,,,64,0
44254,note_on,94,0,4,,,,,,,,,3,,,64,0
44254,note_on,94,0,1,,,,,,,,,0,,,64,0
44256,note_on,2,0,3,,,,,,,,,2,,,64,92
44256,note_on,2,0,4,,,,,,,,,3,,,64,92
44256,note_on,2,0,1,,,,,,,,,0,,,64,92
44350,note_on,94,0,1,,,,,,,,,0,,,64,0
44350,note_on,94,0,3,,,,,,,,,2,,,64,0
44350,note_on,94,0,4,,,,,,,,,3,,,64,0
44352,note_on,320,0,2,,,,,,,,,1,,,52,92
44352,note_on,320,0,5,,,,,,,,,4,,,64,92
44352,note_on,320,0,6,,,,,,,,,5,,,64,92
44352,note_on,0,0,6,,,,,,,,,5,,,67,92
44352,note_on,0,0,6,,,,,,,,,5,,,71,92
44352,note_on,2,0,4,,,,,,,,,3,,,64,92
44352,note_on,320,0,8,,,,,,,,,7,,,52,92
44352,note_on,2,0,1,,,,,,,,,0,,,64,92
44352,note_on,2,0,3,,,,,,,,,2,,,64,92
44352,note_on,320,0,7,,,,,,,,,5,,,52,92
44446,note_on,94,0,7,,,,,,,,,5,,,52,0
44446,note_on,94,0,2,,,,,,,,,1,,,52,0
44446,note_on,94,0,5,,,,,,,,,4,,,64,0
44446,note_on,94,0,8,,,,,,,,,7,,,52,0
44448,note_on,2,0,8,,,,,,,,,7,,,40,92
44448,note_on,2,0,7,,,,,,,,,5,,,40,92
44448,note_on,2,0,5,,,,,,,,,4,,,52,92
44448,note_on,2,0,2,,,,,,,,,1,,,40,92
44542,note_on,94,0,7,,,,,,,,,5,,,40,0
44542,note_on,94,0,2,,,,,,,,,1,,,40,0
44542,note_on,94,0,5,,,,,,,,,4,,,52,0
44542,note_on,94,0,8,,,,,,,,,7,,,40,0
44544,note_on,2,0,2,,,,,,,,,1,,,40,92
44544,note_on,2,0,8,,,,,,,,,7,,,40,92
44544,note_on,2,0,7,,,,,,,,,5,,,40,92
44544,note_on,2,0,5,,,,,,,,,4,,,52,92
44608,note_on,0,0,6,,,,,,,,,5,,,71,0
44608,note_on,256,0,6,,,,,,,,,5,,,64,0
44608,note_on,256,0,4,,,,,,,,,3,,,64,0
44608,note_on,256,0,3,,,,,,,,,2,,,64,0
44608,note_on,256,0,1,,,,,,,,,0,,,64,0
44608,note_on,0,0,6,,,,,,,,,5,,,67,0
44638,note_on,94,0,5,,,,,,,,,4,,,52,0
44638,note_on,94,0,8,,,,,,,,,7,,,40,0
44638,note_on,94,0,7,,,,,,,,,5,,,40,0
44638,note_on,94,0,2,,,,,,,,,1,,,40,0
44640,note_on,2,0,5,,,,,,,,,4,,,64,92
44640,note_on,32,0,4,,,,,,,,,3,,,69,92
44640,note_on,2,0,7,,,,,,,,,5,,,52,92
44640,note_on,2,0,2,,,,,,,,,1,,,52,92
44640,note_on,32,0,6,,,,,,,,,5,,,64,92
44640,note_on,0,0,6,,,,,,,,,5,,,69,92
44640,note_on,32,0,1,,,,,,,,,0,,,72,92
44640,note_on,32,0,3,,,,,,,,,2,,,72,92
44640,note_on,0,0,6,,,,,,,,,5,,,72,92
44640,note_on,2,0,8,,,,,,,,,7,,,52,92
44734,note_on,94,0,5,,,,,,,,,4,,,64,0
44734,note_on,94,0,8,,,,,,,,,7,,,52,0
44734,note_on,94,0,7,,,,,,,,,5,,,52,0
44734,note_on,94,0,2,,,,,,,,,1,,,52,0
44736,note_on,2,0,7,,,,,,,,,5,,,40,92
44736,note_on,2,0,8,,,,,,,,,7,,,40,92
44736,note_on,2,0,2,,,,,,,,,1,,,40,92
44736,note_on,2,0,5,,,,,,,,,4,,,52,92
44830,note_on,94,0,7,,,,,,,,,5,,,40,0
44830,note_on,94,0,5,,,,,,,,,4,,,52,0
44830,note_on,94,0,2,,,,,,,,,1,,,40,0
44830,note_on,94,0,8,,,,,,,,,7,,,40,0
44832,note_on,2,0,2,,,,,,,,,1,,,40,92
44832,note_on,2,0,7,,,,,,,,,5,,,40,92
44832,note_on,2,0,5,,,,,,,,,4,,,52,92
44832,note_on,2,0,8,,,,,,,,,7,,,40,92
44896,note_on,256,0,6,,,,,,,,,5,,,64,0
44896,note_on,256,0,1,,,,,,,,,0,,,72,0
44896,note_on,0,0,6,,,,,,,,,5,,,69,0
44896,note_on,256,0,3,,,,,,,,,2,,,72,0
44896,note_on,0,0,6,,,,,,,,,5,,,72,0
44896,note_on,256,0,4,,,,,,,,,3,,,69,0
44926,note_on,94,0,8,,,,,,,,,7,,,40,0
44926,note_on,94,0,2,,,,,,,,,1,,,40,0
44926,note_on,94,0,5,,,,,,,,,4,,,52,0
44926,note_on,94,0,7,,,,,,,,,5,,,40,0
44928,note_on,32,0,1,,,,,,,,,0,,,71,92
44928,note_on,32,0,6,,,,,,,,,5,,,64,92
44928,note_on,0,0,6,,,,,,,,,5,,,67,92
44928,note_on,2,0,2,,,,,,,,,1,,,52,92
44928,note_on,2,0,7,,,,,,,,,5,,,52,92
44928,note_on,2,0,5,,,,,,,,,4,,,64,92
44928,note_on,2,0,8,,,,,,,,,7,,,52,92
44928,note_on,32,0,3,,,,,,,,,2,,,71,92
44928,note_on,32,0,4,,,,,,,,,3,,,67,92
44928,note_on,0,0,6,,,,,,,,,5,,,71,92
45022,note_on,94,0,4,,,,,,,,,3,,,67,0
45022,note_on,94,0,1,,,,,,,,,0,,,71,0
45022,note_on,94,0,3,,,,,,,,,2,,,71,0
45024,note_on,2,0,1,,,,,,,,,0,,,64,92
45024,note_on,2,0,4,,,,,,,,,3,,,64,92
45024,note_on,2,0,3,,,,,,,,,2,,,64,92
45118,note_on,94,0,1,,,,,,,,,0,,,64,0
45118,note_on,94,0,4,,,,,,,,,3,,,64,0
45118,note_on,94,0,3,,,,,,,,,2,,,64,0
45120,note_on,2,0,1,,,,,,,,,0,,,64,92
45120,note_on,2,0,4,,,,,,,,,3,,,64,92
45120,note_on,2,0,3,,,,,,,,,2,,,64,92
45184,note_on,256,0,2,,,,,,,,,1,,,52,0
45184,note_on,0,0,6,,,,,,,,,5,,,71,0
45184,note_on,256,0,5,,,,,,,,,4,,,64,0
45184,note_on,0,0,6,,,,,,,,,5,,,67,0
45184,note_on,256,0,6,,,,,,,,,5,,,64,0
45184,note_on,256,0,7,,,,,,,,,5,,,52,0
45184,note_on,256,0,8,,,,,,,,,7,,,52,0
45214,note_on,94,0,1,,,,,,,,,0,,,64,0
45214,note_on,94,0,4,,,,,,,,,3,,,64,0
45214,note_on,94,0,3,,,,,,,,,2,,,64,0
45216,note_on,32,0,5,,,,,,,,,4,,,64,92
45216,note_on,2,0,4,,,,,,,,,3,,,76,92
45216,note_on,32,0,7,,,,,,,,,5,,,52,92
45216,note_on,0,0,6,,,,,,,,,5,,,71,92
45216,note_on,2,0,1,,,,,,,,,0,,,76,92
45216,note_on,0,0,6,,,,,,,,,5,,,67,92
45216,note_on,32,0,6,,,,,,,,,5,,,64,92
45216,note_on,32,0,2,,,,,,,,,1,,,52,92
45216,note_on,32,0,8,,,,,,,,,7,,,52,92
45216,note_on,2,0,3,,,,,,,,,2,,,76,92
45310,note_on,94,0,4,,,,,,,,,3,,,76,0
45310,note_on,94,0,1,,,,,,,,,0,,,76,0
45310,note_on,94,0,3,,,,,,,,,2,,,76,0
45312,note_on,2,0,1,,,,,,,,,0,,,64,92
45312,note_on,2,0,4,,,,,,,,,3,,,64,92
45312,note_on,2,0,3,,,,,,,,,2,,,64,92
45406,note_on,94,0,3,,,,,,,,,2,,,64,0
45406,note_on,94,0,4,,,,,,,,,3,,,64,0
45406,note_on,94,0,1,,,,,,,,,0,,,64,0
45408,note_on,2,0,1,,,,,,,,,0,,,64,92
45408,note_on,2,0,4,,,,,,,,,3,,,64,92
45408,note_on,2,0,3,,,,,,,,,2,,,64,92
45472,note_on,256,0,8,,,,,,,,,7,,,52,0
45472,note_on,256,0,7,,,,,,,,,5,,,52,0
45472,note_on,256,0,6,,,,,,,,,5,,,64,0
45472,note_on,0,0,6,,,,,,,,,5,,,67,0
45472,note_on,0,0,6,,,,,,,,,5,,,71,0
45472,note_on,256,0,2,,,,,,,,,1,,,52,0
45472,note_on,256,0,5,,,,,,,,,4,,,64,0
45502,note_on,94,0,1,,,,,,,,,0,,,64,0
45502,note_on,94,0,3,,,,,,,,,2,,,64,0
45502,note_on,94,0,4,,,,,,,,,3,,,64,0
45504,note_on,2,0,4,,,,,,,,,3,,,64,92
45504,note_on,32,0,7,,,,,,,,,5,,,52,92
45504,note_on,32,0,5,,,,,,,,,4,,,64,92
45504,note_on,2,0,3,,,,,,,,,2,,,64,92
45504,note_on,0,0,6,,,,,,,,,5,,,67,92
45504,note_on,0,0,6,,,,,,,,,5,,,71,92
45504,note_on,32,0,2,,,,,,,,,1,,,52,92
45504,note_on,2,0,1,,,,,,,,,0,,,64,92
45504,note_on,32,0,6,,,,,,,,,5,,,64,92
45504,note_on,32,0,8,,,,,,,,,7,,,52,92
45598,note_on,94,0,2,,,,,,,,,1,,,52,0
45598,note_on,94,0,5,,,,,,,,,4,,,64,0
45598,note_on,94,0,7,,,,,,,,,5,,,52,0
45598,note_on,94,0,8,,,,,,,,,7,,,52,0
45600,note_on,2,0,2,,,,,,,,,1,,,40,92
45600,note_on,2,0,8,,,,,,,,,7,,,40,92
45600,note_on,2,0,5,,,,,,,,,4,,,52,92
45600,note_on,2,0,7,,,,,,,,,5,,,40,92
45694,note_on,94,0,5,,,,,,,,,4,,,52,0
45694,note_on,94,0,7,,,,,,,,,5,,,40,0
45694,note_on,94,0,8,,,,,,,,,7,,,40,0
45694,note_on,94,0,2,,,,,,,,,1,,,40,0
45696,note_on,2,0,5,,,,,,,,,4,,,52,92
45696,note_on,2,0,7,,,,,,,,,5,,,40,92
45696,note_on,2,0,8,,,,,,,,,7,,,40,92
45696,note_on,2,0,2,,,,,,,,,1,,,40,92
45760,note_on,256,0,6,,,,,,,,,5,,,64,0
45760,note_on,0,0,6,,,,,,,,,5,,,67,0
45760,note_on,0,0,6,,,,,,,,,5,,,71,0
45760,note_on,256,0,3,,,,,,,,,2,,,64,0
45760,note_on,256,0,1,,,,,,,,,0,,,64,0
45760,note_on,256,0,4,,,,,,,,,3,,,64,0
45790,note_on,94,0,7,,,,,,,,,5,,,40,0
45790,note_on,94,0,5,,,,,,,,,4,,,52,0
45790,note_on,94,0,2,,,,,,,,,1,,,40,0
45790,note_on,94,0,8,,,,,,,,,7,,,40,0
45792,note_on,2,0,8,,,,,,,,,7,,,52,92
45792,note_on,2,0,5,,,,,,,,,4,,,64,92
45792,note_on,32,0,4,,,,,,,,,3,,,69,92
45792,note_on,2,0,7,,,,,,,,,5,,,52,92
45792,note_on,0,0,6,,,,,,,,,5,,,72,92
45792,note_on,32,0,3,,,,,,,,,2,,,72,92
45792,note_on,2,0,2,,,,,,,,,1,,,52,92
45792,note_on,0,0,6,,,,,,,,,5,,,69,92
45792,note_on,32,0,6,,,,,,,,,5,,,64,92
45792,note_on,32,0,1,,,,,,,,,0,,,72,92
45886,note_on,94,0,2,,,,,,,,,1,,,52,0
45886,note_on,94,0,7,,,,,,,,,5,,,52,0
45886,note_on,94,0,5,,,,,,,,,4,,,64,0
45886,note_on,94,0,8,,,,,,,,,7,,,52,0
45888,note_on,2,0,7,,,,,,,,,5,,,40,92
45888,note_on,2,0,5,,,,,,,,,4,,,52,92
45888,note_on,2,0,2,,,,,,,,,1,,,40,92
45888,note_on,2,0,8,,,,,,,,,7,,,40,92
45982,note_on,94,0,7,,,,,,,,,5,,,40,0
45982,note_on,94,0,2,,,,,,,,,1,,,40,0
45982,note_on,94,0,8,,,,,,,,,7,,,40,0
45982,note_on,94,0,5,,,,,,,,,4,,,52,0
45984,note_on,2,0,8,,,,,,,,,7,,,40,92
45984,note_on,2,0,7,,,,,,,,,5,,,40,92
45984,note_on,2,0,2,,,,,,,,,1,,,40,92
45984,note_on,2,0,5,,,,,,,,,4,,,52,92
46048,note_on,256,0,3,,,,,,,,,2,,,72,0
46048,note_on,0,0,6,,,,,,,,,5,,,69,0
46048,note_on,256,0,6,,,,,,,,,5,,,64,0
46048,note_on,256,0,1,,,,,,,,,0,,,72,0
46048,note_on,256,0,4,,,,,,,,,3,,,69,0
46048,note_on,0,0,6,,,,,,,,,5,,,72,0
46078,note_on,94,0,2,,,,,,,,,1,,,40,0
46078,note_on,94,0,8,,,,,,,,,7,,,40,0
46078,note_on,94,0,5,,,,,,,,,4,,,52,0
46078,note_on,94,0,7,,,,,,,,,5,,,40,0
46080,note_on,0,0,6,,,,,,,,,5,,,71,92
46080,note_on,2,0,5,,,,,,,,,4,,,52,92
46080,note_on,32,0,3,,,,,,,,,2,,,71,92
46080,note_on,32,0,6,,,,,,,,,5,,,64,92
46080,note_on,32,0,4,,,,,,,,,3,,,67,92
46080,note_on,2,0,7,,,,,,,,,5,,,40,92
46080,note_on,32,0,1,,,,,,,,,0,,,71,92
46080,note_on,0,0,6,,,,,,,,,5,,,67,92
46080,note_on,2,0,8,,,,,,,,,7,,,40,92
46080,note_on,2,0,2,,,,,,,,,1,,,40,92
46174,note_on,94,0,5,,,,,,,,,4,,,52,0
46174,note_on,94,0,4,,,,,,,,,3,,,67,0
46174,note_on,94,0,2,,,,,,,,,1,,,40,0
46174,note_on,94,0,3,,,,,,,,,2,,,71,0
46174,note_on,94,0,1,,,,,,,,,0,,,71,0
46174,note_on,94,0,7,,,,,,,,,5,,,40,0
46174,note_on,94,0,8,,,,,,,,,7,,,40,0
46176,note_on,2,0,3,,,,,,,,,2,,,76,92
46176,note_on,2,0,2,,,,,,,,,1,,,52,92
46176,note_on,2,0,5,,,,,,,,,4,,,64,92
46176,note_on,2,0,1,,,,,,,,,0,,,76,92
46176,note_on,2,0,4,,,,,,,,,3,,,71,92
46176,note_on,2,0,7,,,,,,,,,5,,,52,92
46176,note_on,2,0,8,,,,,,,,,7,,,52,92
46270,note_on,94,0,2,,,,,,,,,1,,,52,0
46270,note_on,94,0,1,,,,,,,,,0,,,76,0
46270,note_on,94,0,4,,,,,,,,,3,,,71,0
46270,note_on,94,0,8,,,,,,,,,7,,,52,0
46270,note_on,94,0,7,,,,,,,,,5,,,52,0
46270,note_on,94,0,5,,,,,,,,,4,,,64,0
46270,note_on,94,0,3,,,,,,,,,2,,,76,0
46272,note_on,2,0,2,,,,,,,,,1,,,40,92
46272,note_on,2,0,3,,,,,,,,,2,,,79,92
46272,note_on,2,0,7,,,,,,,,,5,,,40,92
46272,note_on,2,0,1,,,,,,,,,0,,,79,92
46272,note_on,2,0,4,,,,,,,,,3,,,76,92
46272,note_on,2,0,8,,,,,,,,,7,,,40,92
46272,note_on,2,0,5,,,,,,,,,4,,,52,92
46336,note_on,0,0,6,,,,,,,,,5,,,71,0
46336,note_on,0,0,6,,,,,,,,,5,,,67,0
46336,note_on,256,0,6,,,,,,,,,5,,,64,0
46366,note_on,94,0,1,,,,,,,,,0,,,79,0
46366,note_on,94,0,4,,,,,,,,,3,,,76,0
46366,note_on,94,0,2,,,,,,,,,1,,,40,0
46366,note_on,94,0,8,,,,,,,,,7,,,40,0
46366,note_on,94,0,7,,,,,,,,,5,,,40,0
46366,note_on,94,0,3,,,,,,,,,2,,,79,0
46366,note_on,94,0,5,,,,,,,,,4,,,52,0
46368,note_on,2,0,2,,,,,,,,,1,,,40,92
46368,note_on,2,0,3,,,,,,,,,2,,,71,92
46368,note_on,2,0,7,,,,,,,,,5,,,40,92
46368,note_on,2,0,8,,,,,,,,,7,,,40,92
46368,note_on,2,0,5,,,,,,,,,4,,,52,92
46368,note_on,2,0,4,,,,,,,,,3,,,67,92
46368,note_on,0,0,6,,,,,,,,,5,,,71,92
46368,note_on,0,0,6,,,,,,,,,5,,,67,92
46368,note_on,32,0,6,,,,,,,,,5,,,64,92
46368,note_on,2,0,1,,,,,,,,,0,,,71,92
46462,note_on,94,0,4,,,,,,,,,3,,,67,0
46462,note_on,94,0,3,,,,,,,,,2,,,71,0
46462,note_on,94,0,1,,,,,,,,,0,,,71,0
46464,note_on,2,0,1,,,,,,,,,0,,,76,92
46464,note_on,2,0,3,,,,,,,,,2,,,76,92
46464,note_on,2,0,4,,,,,,,,,3,,,71,92
46528,note_on,160,0,6,,,,,,,,,5,,,64,0
46528,note_on,160,0,2,,,,,,,,,1,,,40,0
46528,note_on,160,0,7,,,,,,,,,5,,,40,0
46528,note_on,160,0,8,,,,,,,,,7,,,40,0
46528,note_on,0,0,6,,,,,,,,,5,,,71,0
46528,note_on,0,0,6,,,,,,,,,5,,,67,0
46528,note_on,160,0,5,,,,,,,,,4,,,52,0
46558,note_on,94,0,1,,,,,,,,,0,,,76,0
46558,note_on,94,0,3,,,,,,,,,2,,,76,0
46558,note_on,94,0,4,,,,,,,,,3,,,71,0
46560,note_on,2,0,4,,,,,,,,,3,,,76,92
46560,note_on,2,0,1,,,,,,,,,0,,,79,92
46560,note_on,2,0,3,,,,,,,,,2,,,79,92
46654,note_on,94,0,4,,,,,,,,,3,,,76,0
46654,note_on,94,0,1,,,,,,,,,0,,,79,0
46654,note_on,94,0,3,,,,,,,,,2,,,79,0
46656,note_on,128,0,8,,,,,,,,,7,,,47,92
46656,note_on,128,0,2,,,,,,,,,1,,,47,92
46656,note_on,2,0,1,,,,,,,,,0,,,69,92
46656,note_on,0,0,6,,,,,,,,,5,,,75,92
46656,note_on,128,0,7,,,,,,,,,5,,,47,92
46656,note_on,128,0,6,,,,,,,,,5,,,69,92
46656,note_on,128,0,5,,,,,,,,,4,,,59,92
46656,note_on,2,0,4,,,,,,,,,3,,,66,92
46656,note_on,0,0,6,,,,,,,,,5,,,71,92
46656,note_on,2,0,3,,,,,,,,,2,,,69,92
46750,note_on,94,0,1,,,,,,,,,0,,,69,0
46750,note_on,94,0,5,,,,,,,,,4,,,59,0
46750,note_on,94,0,7,,,,,,,,,5,,,47,0
46750,note_on,94,0,2,,,,,,,,,1,,,47,0
46750,note_on,94,0,4,,,,,,,,,3,,,66,0
46750,note_on,94,0,8,,,,,,,,,7,,,47,0
46750,note_on,94,0,3,,,,,,,,,2,,,69,0
46752,note_on,2,0,7,,,,,,,,,5,,,59,92
46752,note_on,2,0,3,,,,,,,,,2,,,75,92
46752,note_on,2,0,2,,,,,,,,,1,,,59,92
46752,note_on,2,0,4,,,,,,,,,3,,,69,92
46752,note_on,2,0,8,,,,,,,,,7,,,59,92
46752,note_on,2,0,1,,,,,,,,,0,,,75,92
46752,note_on,2,0,5,,,,,,,,,4,,,71,92
46846,note_on,94,0,4,,,,,,,,,3,,,69,0
46846,note_on,94,0,7,,,,,,,,,5,,,59,0
46846,note_on,94,0,3,,,,,,,,,2,,,75,0
46846,note_on,94,0,8,,,,,,,,,7,,,59,0
46846,note_on,94,0,1,,,,,,,,,0,,,75,0
46846,note_on,94,0,5,,,,,,,,,4,,,71,0
46846,note_on,94,0,2,,,,,,,,,1,,,59,0
46848,note_on,2,0,2,,,,,,,,,1,,,47,92
46848,note_on,2,0,7,,,,,,,,,5,,,47,92
46848,note_on,2,0,1,,,,,,,,,0,,,78,92
46848,note_on,2,0,5,,,,,,,,,4,,,59,92
46848,note_on,2,0,3,,,,,,,,,2,,,78,92
46848,note_on,2,0,8,,,,,,,,,7,,,47,92
46848,note_on,2,0,4,,,,,,,,,3,,,75,92
46912,note_on,0,0,6,,,,,,,,,5,,,71,0
46912,note_on,0,0,6,,,,,,,,,5,,,75,0
46912,note_on,256,0,6,,,,,,,,,5,,,69,0
46942,note_on,94,0,1,,,,,,,,,0,,,78,0
46942,note_on,94,0,4,,,,,,,,,3,,,75,0
46942,note_on,94,0,7,,,,,,,,,5,,,47,0
46942,note_on,94,0,3,,,,,,,,,2,,,78,0
46942,note_on,94,0,2,,,,,,,,,1,,,47,0
46942,note_on,94,0,8,,,,,,,,,7,,,47,0
46942,note_on,94,0,5,,,,,,,,,4,,,59,0
46944,note_on,2,0,3,,,,,,,,,2,,,69,92
46944,note_on,32,0,6,,,,,,,,,5,,,69,92
46944,note_on,2,0,1,,,,,,,,,0,,,69,92
46944,note_on,0,0,6,,,,,,,,,5,,,71,92
46944,note_on,0,0,6,,,,,,,,,5,,,75,92
46944,note_on,2,0,8,,,,,,,,,7,,,47,92
46944,note_on,2,0,4,,,,,,,,,3,,,66,92
46944,note_on,2,0,5,,,,,,,,,4,,,59,92
46944,note_on,2,0,7,,,,,,,,,5,,,47,92
46944,note_on,2,0,2,,,,,,,,,1,,,47,92
47038,note_on,94,0,3,,,,,,,,,2,,,69,0
47038,note_on,94,0,1,,,,,,,,,0,,,69,0
47038,note_on,94,0,4,,,,,,,,,3,,,66,0
47040,note_on,2,0,4,,,,,,,,,3,,,69,92
47040,note_on,2,0,3,,,,,,,,,2,,,75,92
47040,note_on,2,0,1,,,,,,,,,0,,,75,92
47104,note_on,0,0,6,,,,,,,,,5,,,75,0
47104,note_on,160,0,5,,,,,,,,,4,,,59,0
47104,note_on,160,0,7,,,,,,,,,5,,,47,0
47104,note_on,0,0,6,,,,,,,,,5,,,71,0
47104,note_on,160,0,6,,,,,,,,,5,,,69,0
47104,note_on,160,0,8,,,,,,,,,7,,,47,0
47104,note_on,160,0,2,,,,,,,,,1,,,47,0
47134,note_on,94,0,3,,,,,,,,,2,,,75,0
47134,note_on,94,0,1,,,,,,,,,0,,,75,0
47134,note_on,94,0,4,,,,,,,,,3,,,69,0
47136,note_on,2,0,4,,,,,,,,,3,,,75,92
47136,note_on,2,0,3,,,,,,,,,2,,,78,92
47136,note_on,2,0,1,,,,,,,,,0,,,78,92
47230,note_on,94,0,3,,,,,,,,,2,,,78,0
47230,note_on,94,0,4,,,,,,,,,3,,,75,0
47230,note_on,94,0,1,,,,,,,,,0,,,78,0
47232,note_on,2,0,1,,,,,,,,,0,,,67,92
47232,note_on,128,0,8,,,,,,,,,7,,,40,92
47232,note_on,0,0,6,,,,,,,,,5,,,76,92
47232,note_on,128,0,2,,,,,,,,,1,,,40,92
47232,note_on,128,0,6,,,,,,,,,5,,,67,92
47232,note_on,128,0,5,,,,,,,,,4,,,52,92
47232,note_on,128,0,7,,,,,,,,,5,,,40,92
47232,note_on,2,0,3,,,,,,,,,2,,,67,92
47232,note_on,2,0,4,,,,,,,,,3,,,64,92
47232,note_on,0,0,6,,,,,,,,,5,,,71,92
47326,note_on,94,0,1,,,,,,,,,0,,,67,0
47326,note_on,94,0,2,,,,,,,,,1,,,40,0
47326,note_on,94,0,5,,,,,,,,,4,,,52,0
47326,note_on,94,0,8,,,,,,,,,7,,,40,0
47326,note_on,94,0,7,,,,,,,,,5,,,40,0
47326,note_on,94,0,4,,,,,,,,,3,,,64,0
47326,note_on,94,0,3,,,,,,,,,2,,,67,0
47328,note_on,2,0,3,,,,,,,,,2,,,71,92
47328,note_on,2,0,7,,,,,,,,,5,,,52,92
47328,note_on,2,0,2,,,,,,,,,1,,,52,92
47328,note_on,2,0,5,,,,,,,,,4,,,64,92
47328,note_on,2,0,4,,,,,,,,,3,,,67,92
47328,note_on,2,0,1,,,,,,,,,0,,,71,92
47328,note_on,2,0,8,,,,,,,,,7,,,52,92
47422,note_on,94,0,2,,,,,,,,,1,,,52,0
47422,note_on,94,0,1,,,,,,,,,0,,,71,0
47422,note_on,94,0,7,,,,,,,,,5,,,52,0
47422,note_on,94,0,3,,,,,,,,,2,,,71,0
47422,note_on,94,0,4,,,,,,,,,3,,,67,0
47422,note_on,94,0,5,,,,,,,,,4,,,64,0
47422,note_on,94,0,8,,,,,,,,,7,,,52,0
47424,note_on,2,0,3,,,,,,,,,2,,,76,92
47424,note_on,2,0,2,,,,,,,,,1,,,40,92
47424,note_on,2,0,7,,,,,,,,,5,,,40,92
47424,note_on,2,0,4,,,,,,,,,3,,,71,92
47424,note_on,2,0,5,,,,,,,,,4,,,52,92
47424,note_on,2,0,8,,,,,,,,,7,,,40,92
47424,note_on,2,0,1,,,,,,,,,0,,,76,92
47488,note_on,256,0,6,,,,,,,,,5,,,67,0
47488,note_on,0,0,6,,,,,,,,,5,,,71,0
47488,note_on,0,0,6,,,,,,,,,5,,,76,0
47518,note_on,94,0,7,,,,,,,,,5,,,40,0
47518,note_on,94,0,5,,,,,,,,,4,,,52,0
47518,note_on,94,0,3,,,,,,,,,2,,,76,0
47518,note_on,94,0,1,,,,,,,,,0,,,76,0
47518,note_on,94,0,4,,,,,,,,,3,,,71,0
47518,note_on,94,0,2,,,,,,,,,1,,,40,0
47518,note_on,94,0,8,,,,,,,,,7,,,40,0
47520,note_on,2,0,8,,,,,,,,,7,,,40,92
47520,note_on,32,0,6,,,,,,,,,5,,,67,92
47520,note_on,2,0,3,,,,,,,,,2,,,67,92
47520,note_on,2,0,1,,,,,,,,,0,,,67,92
47520,note_on,0,0,6,,,,,,,,,5,,,71,92
47520,note_on,0,0,6,,,,,,,,,5,,,76,92
47520,note_on,2,0,2,,,,,,,,,1,,,40,92
47520,note_on,2,0,4,,,,,,,,,3,,,64,92
47520,note_on,2,0,7,,,,,,,,,5,,,40,92
47520,note_on,2,0,5,,,,,,,,,4,,,52,92
47614,note_on,94,0,1,,,,,,,,,0,,,67,0
47614,note_on,94,0,4,,,,,,,,,3,,,64,0
47614,note_on,94,0,3,,,,,,,,,2,,,67,0
47616,note_on,2,0,3,,,,,,,,,2,,,71,92
47616,note_on,2,0,4,,,,,,,,,3,,,67,92
47616,note_on,2,0,1,,,,,,,,,0,,,71,92
47680,note_on,160,0,2,,,,,,,,,1,,,40,0
47680,note_on,160,0,8,,,,,,,,,7,,,40,0
47680,note_on,160,0,5,,,,,,,,,4,,,52,0
47680,note_on,0,0,6,,,,,,,,,5,,,76,0
47680,note_on,0,0,6,,,,,,,,,5,,,71,0
47680,note_on,160,0,6,,,,,,,,,5,,,67,0
47680,note_on,160,0,7,,,,,,,,,5,,,40,0
47710,note_on,94,0,3,,,,,,,,,2,,,71,0
47710,note_on,94,0,1,,,,,,,,,0,,,71,0
47710,note_on,94,0,4,,,,,,,,,3,,,67,0
47712,note_on,2,0,1,,,,,,,,,0,,,76,92
47712,note_on,2,0,4,,,,,,,,,3,,,71,92
47712,note_on,2,0,3,,,,,,,,,2,,,76,92
47806,note_on,94,0,3,,,,,,,,,2,,,76,0
47806,note_on,94,0,1,,,,,,,,,0,,,76,0
47806,note_on,94,0,4,,,,,,,,,3,,,71,0
47808,note_on,0,0,6,,,,,,,,,5,,,75,92
47808,note_on,128,0,2,,,,,,,,,1,,,59,92
47808,note_on,2,0,4,,,,,,,,,3,,,63,92
47808,note_on,128,0,5,,,,,,,,,4,,,71,92
47808,note_on,128,0,7,,,,,,,,,5,,,59,92
47808,note_on,2,0,1,,,,,,,,,0,,,66,92
47808,note_on,128,0,8,,,,,,,,,7,,,59,92
47808,note_on,128,0,6,,,,,,,,,5,,,66,92
47808,note_on,0,0,6,,,,,,,,,5,,,71,92
47808,note_on,2,0,3,,,,,,,,,2,,,66,92
47902,note_on,94,0,8,,,,,,,,,7,,,59,0
47902,note_on,94,0,5,,,,,,,,,4,,,71,0
47902,note_on,94,0,7,,,,,,,,,5,,,59,0
47902,note_on,94,0,2,,,,,,,,,1,,,59,0
47904,note_on,2,0,5,,,,,,,,,4,,,59,92
47904,note_on,2,0,7,,,,,,,,,5,,,47,92
47904,note_on,2,0,2,,,,,,,,,1,,,47,92
47904,note_on,2,0,8,,,,,,,,,7,,,47,92
47998,note_on,94,0,2,,,,,,,,,1,,,47,0
47998,note_on,94,0,8,,,,,,,,,7,,,47,0
47998,note_on,94,0,5,,,,,,,,,4,,,59,0
47998,note_on,94,0,7,,,,,,,,,5,,,47,0
48000,note_on,2,0,2,,,,,,,,,1,,,47,92
48000,note_on,2,0,8,,,,,,,,,7,,,47,92
48000,note_on,2,0,5,,,,,,,,,4,,,59,92
48000,note_on,2,0,7,,,,,,,,,5,,,47,92
48064,note_on,0,0,6,,,,,,,,,5,,,75,0
48064,note_on,0,0,6,,,,,,,,,5,,,71,0
48064,note_on,256,0,6,,,,,,,,,5,,,66,0
48064,note_on,256,0,4,,,,,,,,,3,,,63,0
48064,note_on,256,0,1,,,,,,,,,0,,,66,0
48064,note_on,256,0,3,,,,,,,,,2,,,66,0
48094,note_on,94,0,5,,,,,,,,,4,,,59,0
48094,note_on,94,0,7,,,,,,,,,5,,,47,0
48094,note_on,94,0,2,,,,,,,,,1,,,47,0
48094,note_on,94,0,8,,,,,,,,,7,,,47,0
48096,note_on,2,0,2,,,,,,,,,1,,,59,92
48096,note_on,0,0,6,,,,,,,,,5,,,75,92
48096,note_on,0,0,6,,,,,,,,,5,,,71,92
48096,note_on,32,0,6,,,,,,,,,5,,,66,92
48096,note_on,2,0,8,,,,,,,,,7,,,59,92
48096,note_on,2,0,5,,,,,,,,,4,,,71,92
48096,note_on,2,0,7,,,,,,,,,5,,,59,92
48190,note_on,94,0,8,,,,,,,,,7,,,59,0
48190,note_on,94,0,5,,,,,,,,,4,,,71,0
48190,note_on,94,0,2,,,,,,,,,1,,,59,0
48190,note_on,94,0,7,,,,,,,,,5,,,59,0
48192,note_on,2,0,5,,,,,,,,,4,,,59,92
48192,note_on,2,0,2,,,,,,,,,1,,,47,92
48192,note_on,2,0,8,,,,,,,,,7,,,47,92
48192,note_on,2,0,7,,,,,,,,,5,,,47,92
48286,note_on,94,0,8,,,,,,,,,7,,,47,0
48286,note_on,94,0,2,,,,,,,,,1,,,47,0
48286,note_on,94,0,7,,,,,,,,,5,,,47,0
48286,note_on,94,0,5,,,,,,,,,4,,,59,0
48288,note_on,224,0,3,,,,,,,,,2,,,83,92
48288,note_on,2,0,5,,,,,,,,,4,,,59,92
48288,note_on,2,0,7,,,,,,,,,5,,,47,92
48288,note_on,2,0,8,,,,,,,,,7,,,47,92
48288,note_on,2,0,2,,,,,,,,,1,,,47,92
48288,note_on,224,0,1,,,,,,,,,0,,,83,92
48352,note_on,256,0,6,,,,,,,,,5,,,66,0
48352,note_on,0,0,6,,,,,,,,,5,,,75,0
48352,note_on,0,0,6,,,,,,,,,5,,,71,0
48382,note_on,94,0,3,,,,,,,,,2,,,83,0
48382,note_on,94,0,8,,,,,,,,,7,,,47,0
48382,note_on,94,0,1,,,,,,,,,0,,,83,0
48382,note_on,94,0,7,,,,,,,,,5,,,47,0
48382,note_on,94,0,2,,,,,,,,,1,,,47,0
48382,note_on,94,0,5,,,,,,,,,4,,,59,0
48384,note_on,32,0,6,,,,,,,,,5,,,66,92
48384,note_on,2,0,7,,,,,,,,,5,,,59,92
48384,note_on,2,0,1,,,,,,,,,0,,,83,92
48384,note_on,2,0,3,,,,,,,,,2,,,83,92
48384,note_on,2,0,2,,,,,,,,,1,,,59,92
48384,note_on,2,0,5,,,,,,,,,4,,,63,92
48384,note_on,2,0,8,,,,,,,,,7,,,59,92
48384,note_on,0,0,6,,,,,,,,,5,,,71,92
48384,note_on,0,0,6,,,,,,,,,5,,,75,92
48432,note_on,0,0,7,,,,,,,,,5,,,61,92
48432,note_on,0,0,5,,,,,,,,,4,,,64,92
48432,note_on,0,0,2,,,,,,,,,1,,,61,92
48432,note_on,48,0,8,,,,,,,,,7,,,59,0
48432,note_on,0,0,8,,,,,,,,,7,,,61,92
48432,note_on,48,0,2,,,,,,,,,1,,,59,0
48432,note_on,48,0,7,,,,,,,,,5,,,59,0
48432,note_on,48,0,5,,,,,,,,,4,,,63,0
48478,note_on,94,0,3,,,,,,,,,2,,,83,0
48478,note_on,94,0,1,,,,,,,,,0,,,83,0
48480,note_on,2,0,3,,,,,,,,,2,,,71,92
48480,note_on,48,0,5,,,,,,,,,4,,,64,0
48480,note_on,0,0,5,,,,,,,,,4,,,66,92
48480,note_on,0,0,7,,,,,,,,,5,,,63,92
48480,note_on,48,0,8,,,,,,,,,7,,,61,0
48480,note_on,48,0,7,,,,,,,,,5,,,61,0
48480,note_on,0,0,8,,,,,,,,,7,,,63,92
48480,note_on,0,0,2,,,,,,,,,1,,,63,92
48480,note_on,48,0,2,,,,,,,,,1,,,61,0
48480,note_on,2,0,1,,,,,,,,,0,,,71,92
48574,note_on,94,0,1,,,,,,,,,0,,,71,0
48574,note_on,94,0,7,,,,,,,,,5,,,63,0
48574,note_on,94,0,5,,,,,,,,,4,,,66,0
48574,note_on,94,0,2,,,,,,,,,1,,,63,0
48574,note_on,94,0,8,,,,,,,,,7,,,63,0
48574,note_on,94,0,3,,,,,,,,,2,,,71,0
48576,note_on,2,0,8,,,,,,,,,7,,,59,92
48576,note_on,2,0,1,,,,,,,,,0,,,71,92
48576,note_on,2,0,5,,,,,,,,,4,,,63,92
48576,note_on,2,0,7,,,,,,,,,5,,,59,92
48576,note_on,2,0,2,,,,,,,,,1,,,59,92
48576,note_on,2,0,3,,,,,,,,,2,,,71,92
48640,note_on,256,0,6,,,,,,,,,5,,,66,0
48640,note_on,0,0,6,,,,,,,,,5,,,71,0
48640,note_on,0,0,6,,,,,,,,,5,,,75,0
48670,note_on,94,0,3,,,,,,,,,2,,,71,0
48670,note_on,94,0,2,,,,,,,,,1,,,59,0
48670,note_on,94,0,7,,,,,,,,,5,,,59,0
48670,note_on,94,0,5,,,,,,,,,4,,,63,0
48670,note_on,94,0,8,,,,,,,,,7,,,59,0
48670,note_on,94,0,1,,,,,,,,,0,,,71,0
48672,note_on,2,0,3,,,,,,,,,2,,,83,92
48672,note_on,2,0,1,,,,,,,,,0,,,83,92
48766,note_on,94,0,3,,,,,,,,,2,,,83,0
48766,note_on,94,0,1,,,,,,,,,0,,,83,0
48768,note_on,2,0,1,,,,,,,,,0,,,71,92
48768,note_on,2,0,3,,,,,,,,,2,,,71,92
48862,note_on,94,0,1,,,,,,,,,0,,,71,0
48862,note_on,94,0,3,,,,,,,,,2,,,71,0
48864,note_on,2,0,3,,,,,,,,,2,,,71,92
48864,note_on,800,0,4,,,,,,,,,3,,,83,92
48864,note_on,2,0,1,,,,,,,,,0,,,71,92
48958,note_on,94,0,1,,,,,,,,,0,,,71,0
48958,note_on,94,0,4,,,,,,,,,3,,,83,0
48958,note_on,94,0,3,,,,,,,,,2,,,71,0
48960,note_on,290,0,7,,,,,,,,,5,,,59,92
48960,note_on,290,0,8,,,,,,,,,7,,,59,92
48960,note_on,0,0,6,,,,,,,,,5,,,75,92
48960,note_on,0,0,6,,,,,,,,,5,,,71,92
48960,note_on,320,0,6,,,,,,,,,5,,,66,92
48960,note_on,2,0,4,,,,,,,,,3,,,83,92
48960,note_on,2,0,1,,,,,,,,,0,,,71,92
48960,note_on,2,0,3,,,,,,,,,2,,,71,92
48960,note_on,290,0,5,,,,,,,,,4,,,63,92
48960,note_on,290,0,2,,,,,,,,,1,,,59,92
49008,note_on,48,0,5,,,,,,,,,4,,,63,0
49008,note_on,0,0,5,,,,,,,,,4,,,64,92
49008,note_on,0,0,2,,,,,,,,,1,,,61,92
49008,note_on,48,0,7,,,,,,,,,5,,,59,0
49008,note_on,0,0,8,,,,,,,,,7,,,61,92
49008,note_on,48,0,8,,,,,,,,,7,,,59,0
49008,note_on,48,0,2,,,,,,,,,1,,,59,0
49008,note_on,0,0,7,,,,,,,,,5,,,61,92
49054,note_on,94,0,4,,,,,,,,,3,,,83,0
49056,note_on,0,0,8,,,,,,,,,7,,,63,92
49056,note_on,2,0,4,,,,,,,,,3,,,71,92
49056,note_on,48,0,5,,,,,,,,,4,,,64,0
49056,note_on,48,0,2,,,,,,,,,1,,,61,0
49056,note_on,0,0,2,,,,,,,,,1,,,63,92
49056,note_on,0,0,5,,,,,,,,,4,,,66,92
49056,note_on,48,0,7,,,,,,,,,5,,,61,0
49056,note_on,0,0,7,,,,,,,,,5,,,63,92
49056,note_on,48,0,8,,,,,,,,,7,,,61,0
49150,note_on,94,0,7,,,,,,,,,5,,,63,0
49150,note_on,94,0,8,,,,,,,,,7,,,63,0
49150,note_on,94,0,4,,,,,,,,,3,,,71,0
49150,note_on,94,0,5,,,,,,,,,4,,,66,0
49150,note_on,94,0,2,,,,,,,,,1,,,63,0
49152,note_on,2,0,5,,,,,,,,,4,,,63,92
49152,note_on,2,0,7,,,,,,,,,5,,,59,92
49152,note_on,2,0,4,,,,,,,,,3,,,71,92
49152,note_on,2,0,8,,,,,,,,,7,,,59,92
49152,note_on,2,0,2,,,,,,,,,1,,,59,92
49216,note_on,256,0,1,,,,,,,,,0,,,71,0
49216,note_on,0,0,6,,,,,,,,,5,,,75,0
49216,note_on,0,0,6,,,,,,,,,5,,,71,0
49216,note_on,256,0,3,,,,,,,,,2,,,71,0
49216,note_on,256,0,6,,,,,,,,,5,,,66,0
49246,note_on,94,0,5,,,,,,,,,4,,,63,0
49246,note_on,94,0,8,,,,,,,,,7,,,59,0
49246,note_on,94,0,2,,,,,,,,,1,,,59,0
49246,note_on,94,0,7,,,,,,,,,5,,,59,0
49246,note_on,94,0,4,,,,,,,,,3,,,71,0
49248,note_on,32,0,3,,,,,,,,,2,,,83,92
49248,note_on,32,0,1,,,,,,,,,0,,,83,92
49248,note_on,2,0,4,,,,,,,,,3,,,83,92
49342,note_on,94,0,4,,,,,,,,,3,,,83,0
49344,note_on,2,0,4,,,,,,,,,3,,,71,92
49438,note_on,94,0,4,,,,,,,,,3,,,71,0
49440,note_on,2,0,4,,,,,,,,,3,,,71,92
49504,note_on,256,0,3,,,,,,,,,2,,,83,0
49504,note_on,256,0,1,,,,,,,,,0,,,83,0
49534,note_on,94,0,4,,,,,,,,,3,,,71,0
49536,note_on,0,0,6,,,,,,,,,5,,,71,92
49536,note_on,290,0,7,,,,,,,,,5,,,59,92
49536,note_on,290,0,8,,,,,,,,,7,,,59,92
49536,note_on,290,0,2,,,,,,,,,1,,,59,92
49536,note_on,32,0,1,,,,,,,,,0,,,81,92
49536,note_on,0,0,6,,,,,,,,,5,,,78,92
49536,note_on,32,0,3,,,,,,,,,2,,,81,92
49536,note_on,320,0,6,,,,,,,,,5,,,69,92
49536,note_on,290,0,5,,,,,,,,,4,,,63,92
49536,note_on,2,0,4,,,,,,,,,3,,,71,92
49584,note_on,0,0,8,,,,,,,,,7,,,61,92
49584,note_on,48,0,2,,,,,,,,,1,,,59,0
49584,note_on,0,0,7,,,,,,,,,5,,,61,92
49584,note_on,48,0,7,,,,,,,,,5,,,59,0
49584,note_on,0,0,5,,,,,,,,,4,,,64,92
49584,note_on,48,0,5,,,,,,,,,4,,,63,0
49584,note_on,48,0,8,,,,,,,,,7,,,59,0
49584,note_on,0,0,2,,,,,,,,,1,,,61,92
49630,note_on,94,0,1,,,,,,,,,0,,,81,0
49630,note_on,94,0,3,,,,,,,,,2,,,81,0
49632,note_on,48,0,5,,,,,,,,,4,,,64,0
49632,note_on,48,0,7,,,,,,,,,5,,,61,0
49632,note_on,0,0,5,,,,,,,,,4,,,66,92
49632,note_on,48,0,2,,,,,,,,,1,,,61,0
49632,note_on,0,0,2,,,,,,,,,1,,,63,92
49632,note_on,2,0,1,,,,,,,,,0,,,71,92
49632,note_on,48,0,8,,,,,,,,,7,,,61,0
49632,note_on,2,0,3,,,,,,,,,2,,,71,92
49632,note_on,0,0,8,,,,,,,,,7,,,63,92
49632,note_on,0,0,7,,,,,,,,,5,,,63,92
49726,note_on,94,0,1,,,,,,,,,0,,,71,0
49726,note_on,94,0,7,,,,,,,,,5,,,63,0
49726,note_on,94,0,8,,,,,,,,,7,,,63,0
49726,note_on,94,0,5,,,,,,,,,4,,,66,0
49726,note_on,94,0,3,,,,,,,,,2,,,71,0
49726,note_on,94,0,2,,,,,,,,,1,,,63,0
49728,note_on,2,0,3,,,,,,,,,2,,,71,92
49728,note_on,2,0,7,,,,,,,,,5,,,59,92
49728,note_on,2,0,8,,,,,,,,,7,,,59,92
49728,note_on,2,0,2,,,,,,,,,1,,,59,92
49728,note_on,2,0,1,,,,,,,,,0,,,71,92
49728,note_on,2,0,5,,,,,,,,,4,,,63,92
49792,note_on,256,0,6,,,,,,,,,5,,,69,0
49792,note_on,0,0,6,,,,,,,,,5,,,71,0
49792,note_on,256,0,4,,,,,,,,,3,,,71,0
49792,note_on,0,0,6,,,,,,,,,5,,,78,0
49822,note_on,94,0,8,,,,,,,,,7,,,59,0
49822,note_on,94,0,2,,,,,,,,,1,,,59,0
49822,note_on,94,0,7,,,,,,,,,5,,,59,0
49822,note_on,94,0,3,,,,,,,,,2,,,71,0
49822,note_on,94,0,1,,,,,,,,,0,,,71,0
49822,note_on,94,0,5,,,,,,,,,4,,,63,0
49824,note_on,32,0,4,,,,,,,,,3,,,81,92
49824,note_on,2,0,3,,,,,,,,,2,,,81,92
49824,note_on,2,0,1,,,,,,,,,0,,,81,92
49918,note_on,94,0,3,,,,,,,,,2,,,81,0
49918,note_on,94,0,1,,,,,,,,,0,,,81,0
49920,note_on,2,0,1,,,,,,,,,0,,,71,92
49920,note_on,2,0,3,,,,,,,,,2,,,71,92
50014,note_on,94,0,3,,,,,,,,,2,,,71,0
50014,note_on,94,0,1,,,,,,,,,0,,,71,0
50016,note_on,2,0,3,,,,,,,,,2,,,71,92
50016,note_on,2,0,1,,,,,,,,,0,,,71,92
50080,note_on,256,0,4,,,,,,,,,3,,,81,0
50110,note_on,94,0,3,,,,,,,,,2,,,71,0
50110,note_on,94,0,1,,,,,,,,,0,,,71,0
50112,note_on,2,0,3,,,,,,,,,2,,,71,92
50112,note_on,290,0,2,,,,,,,,,1,,,59,92
50112,note_on,2,0,1,,,,,,,,,0,,,71,92
50112,note_on,0,0,6,,,,,,,,,5,,,78,92
50112,note_on,290,0,8,,,,,,,,,7,,,59,92
50112,note_on,290,0,7,,,,,,,,,5,,,59,92
50112,note_on,32,0,4,,,,,,,,,3,,,81,92
50112,note_on,290,0,5,,,,,,,,,4,,,63,92
50112,note_on,0,0,6,,,,,,,,,5,,,71,92
50112,note_on,320,0,6,,,,,,,,,5,,,69,92
50160,note_on,0,0,7,,,,,,,,,5,,,61,92
50160,note_on,48,0,7,,,,,,,,,5,,,59,0
50160,note_on,48,0,5,,,,,,,,,4,,,63,0
50160,note_on,0,0,8,,,,,,,,,7,,,61,92
50160,note_on,0,0,5,,,,,,,,,4,,,64,92
50160,note_on,0,0,2,,,,,,,,,1,,,61,92
50160,note_on,48,0,2,,,,,,,,,1,,,59,0
50160,note_on,48,0,8,,,,,,,,,7,,,59,0
50206,note_on,94,0,4,,,,,,,,,3,,,81,0
50208,note_on,0,0,5,,,,,,,,,4,,,66,92
50208,note_on,0,0,2,,,,,,,,,1,,,63,92
50208,note_on,2,0,4,,,,,,,,,3,,,71,92
50208,note_on,48,0,2,,,,,,,,,1,,,61,0
50208,note_on,48,0,5,,,,,,,,,4,,,64,0
50208,note_on,48,0,7,,,,,,,,,5,,,61,0
50208,note_on,0,0,7,,,,,,,,,5,,,63,92
50208,note_on,0,0,8,,,,,,,,,7,,,63,92
50208,note_on,48,0,8,,,,,,,,,7,,,61,0
50302,note_on,94,0,5,,,,,,,,,4,,,66,0
50302,note_on,94,0,7,,,,,,,,,5,,,63,0
50302,note_on,94,0,4,,,,,,,,,3,,,71,0
50302,note_on,94,0,2,,,,,,,,,1,,,63,0
50302,note_on,94,0,8,,,,,,,,,7,,,63,0
50304,note_on,2,0,8,,,,,,,,,7,,,59,92
50304,note_on,2,0,4,,,,,,,,,3,,,71,92
50304,note_on,2,0,7,,,,,,,,,5,,,59,92
50304,note_on,2,0,5,,,,,,,,,4,,,63,92
50304,note_on,2,0,2,,,,,,,,,1,,,59,92
50368,note_on,256,0,1,,,,,,,,,0,,,71,0
50368,note_on,0,0,6,,,,,,,,,5,,,78,0
50368,note_on,256,0,3,,,,,,,,,2,,,71,0
50368,note_on,256,0,6,,,,,,,,,5,,,69,0
50368,note_on,0,0,6,,,,,,,,,5,,,71,0
50398,note_on,94,0,7,,,,,,,,,5,,,59,0
50398,note_on,94,0,2,,,,,,,,,1,,,59,0
50398,note_on,94,0,8,,,,,,,,,7,,,59,0
50398,note_on,94,0,5,,,,,,,,,4,,,63,0
50398,note_on,94,0,4,,,,,,,,,3,,,71,0
50400,note_on,32,0,1,,,,,,,,,0,,,81,92
50400,note_on,2,0,4,,,,,,,,,3,,,81,92
50400,note_on,32,0,3,,,,,,,,,2,,,81,92
50494,note_on,94,0,4,,,,,,,,,3,,,81,0
50496,note_on,2,0,4,,,,,,,,,3,,,71,92
50590,note_on,94,0,4,,,,,,,,,3,,,71,0
50592,note_on,2,0,4,,,,,,,,,3,,,71,92
50656,note_on,256,0,3,,,,,,,,,2,,,81,0
50656,note_on,256,0,1,,,,,,,,,0,,,81,0
50686,note_on,94,0,4,,,,,,,,,3,,,71,0
50688,note_on,290,0,8,,,,,,,,,7,,,52,92
50688,note_on,32,0,1,,,,,,,,,0,,,79,92
50688,note_on,2,0,4,,,,,,,,,3,,,71,92
50688,note_on,290,0,2,,,,,,,,,1,,,52,92
50688,note_on,320,0,6,,,,,,,,,5,,,67,92
50688,note_on,0,0,6,,,,,,,,,5,,,71,92
50688,note_on,290,0,7,,,,,,,,,5,,,52,92
50688,note_on,32,0,3,,,,,,,,,2,,,79,92
50688,note_on,290,0,5,,,,,,,,,4,,,67,92
50688,note_on,0,0,6,,,,,,,,,5,,,76,92
50736,note_on,48,0,5,,,,,,,,,4,,,67,0
50736,note_on,0,0,5,,,,,,,,,4,,,69,92
50736,note_on,0,0,7,,,,,,,,,5,,,54,92
50736,note_on,48,0,7,,,,,,,,,5,,,52,0
50736,note_on,0,0,2,,,,,,,,,1,,,54,92
50736,note_on,48,0,2,,,,,,,,,1,,,52,0
50736,note_on,0,0,8,,,,,,,,,7,,,54,92
50736,note_on,48,0,8,,,,,,,,,7,,,52,0
50782,note_on,94,0,3,,,,,,,,,2,,,79,0
50782,note_on,94,0,1,,,,,,,,,0,,,79,0
50784,note_on,48,0,8,,,,,,,,,7,,,54,0
50784,note_on,48,0,7,,,,,,,,,5,,,54,0
50784,note_on,0,0,7,,,,,,,,,5,,,55,92
50784,note_on,0,0,8,,,,,,,,,7,,,55,92
50784,note_on,48,0,2,,,,,,,,,1,,,54,0
50784,note_on,0,0,2,,,,,,,,,1,,,55,92
50784,note_on,48,0,5,,,,,,,,,4,,,69,0
50784,note_on,0,0,5,,,,,,,,,4,,,71,92
50784,note_on,2,0,1,,,,,,,,,0,,,71,92
50784,note_on,2,0,3,,,,,,,,,2,,,71,92
50878,note_on,94,0,3,,,,,,,,,2,,,71,0
50878,note_on,94,0,7,,,,,,,,,5,,,55,0
50878,note_on,94,0,5,,,,,,,,,4,,,71,0
50878,note_on,94,0,2,,,,,,,,,1,,,55,0
50878,note_on,94,0,1,,,,,,,,,0,,,71,0
50878,note_on,94,0,8,,,,,,,,,7,,,55,0
50880,note_on,2,0,7,,,,,,,,,5,,,52,92
50880,note_on,2,0,5,,,,,,,,,4,,,67,92
50880,note_on,2,0,2,,,,,,,,,1,,,52,92
50880,note_on,2,0,8,,,,,,,,,7,,,52,92
50880,note_on,2,0,1,,,,,,,,,0,,,71,92
50880,note_on,2,0,3,,,,,,,,,2,,,71,92
50944,note_on,0,0,6,,,,,,,,,5,,,71,0
50944,note_on,256,0,6,,,,,,,,,5,,,67,0
50944,note_on,0,0,6,,,,,,,,,5,,,76,0
50944,note_on,256,0,4,,,,,,,,,3,,,71,0
50974,note_on,94,0,8,,,,,,,,,7,,,52,0
50974,note_on,94,0,7,,,,,,,,,5,,,52,0
50974,note_on,94,0,1,,,,,,,,,0,,,71,0
50974,note_on,94,0,5,,,,,,,,,4,,,67,0
50974,note_on,94,0,3,,,,,,,,,2,,,71,0
50974,note_on,94,0,2,,,,,,,,,1,,,52,0
50976,note_on,32,0,4,,,,,,,,,3,,,79,92
50976,note_on,2,0,1,,,,,,,,,0,,,79,92
50976,note_on,2,0,3,,,,,,,,,2,,,79,92
51070,note_on,94,0,1,,,,,,,,,0,,,79,0
51070,note_on,94,0,3,,,,,,,,,2,,,79,0
51072,note_on,2,0,3,,,,,,,,,2,,,71,92
51072,note_on,2,0,1,,,,,,,,,0,,,71,92
51166,note_on,94,0,3,,,,,,,,,2,,,71,0
51166,note_on,94,0,1,,,,,,,,,0,,,71,0
51168,note_on,2,0,3,,,,,,,,,2,,,71,92
51168,note_on,2,0,1,,,,,,,,,0,,,71,92
51232,note_on,256,0,4,,,,,,,,,3,,,79,0
51262,note_on,94,0,1,,,,,,,,,0,,,71,0
51262,note_on,94,0,3,,,,,,,,,2,,,71,0
51264,note_on,290,0,8,,,,,,,,,7,,,52,92
51264,note_on,2,0,1,,,,,,,,,0,,,71,92
51264,note_on,2,0,3,,,,,,,,,2,,,71,92
51264,note_on,32,0,4,,,,,,,,,3,,,79,92
51264,note_on,290,0,7,,,,,,,,,5,,,52,92
51264,note_on,290,0,2,,,,,,,,,1,,,52,92
51264,note_on,0,0,6,,,,,,,,,5,,,76,92
51264,note_on,0,0,6,,,,,,,,,5,,,71,92
51264,note_on,320,0,6,,,,,,,,,5,,,67,92
51264,note_on,290,0,5,,,,,,,,,4,,,67,92
51312,note_on,48,0,8,,,,,,,,,7,,,52,0
51312,note_on,48,0,7,,,,,,,,,5,,,52,0
51312,note_on,0,0,8,,,,,,,,,7,,,54,92
51312,note_on,48,0,5,,,,,,,,,4,,,67,0
51312,note_on,0,0,5,,,,,,,,,4,,,69,92
51312,note_on,0,0,7,,,,,,,,,5,,,54,92
51312,note_on,48,0,2,,,,,,,,,1,,,52,0
51312,note_on,0,0,2,,,,,,,,,1,,,54,92
51358,note_on,94,0,4,,,,,,,,,3,,,79,0
51360,note_on,0,0,8,,,,,,,,,7,,,55,92
51360,note_on,48,0,8,,,,,,,,,7,,,54,0
51360,note_on,48,0,5,,,,,,,,,4,,,69,0
51360,note_on,0,0,5,,,,,,,,,4,,,71,92
51360,note_on,48,0,7,,,,,,,,,5,,,54,0
51360,note_on,0,0,7,,,,,,,,,5,,,55,92
51360,note_on,2,0,4,,,,,,,,,3,,,71,92
51360,note_on,48,0,2,,,,,,,,,1,,,54,0
51360,note_on,0,0,2,,,,,,,,,1,,,55,92
51454,note_on,94,0,5,,,,,,,,,4,,,71,0
51454,note_on,94,0,4,,,,,,,,,3,,,71,0
51454,note_on,94,0,8,,,,,,,,,7,,,55,0
51454,note_on,94,0,7,,,,,,,,,5,,,55,0
51454,note_on,94,0,2,,,,,,,,,1,,,55,0
51456,note_on,2,0,5,,,,,,,,,4,,,67,92
51456,note_on,2,0,4,,,,,,,,,3,,,71,92
51456,note_on,2,0,2,,,,,,,,,1,,,52,92
51456,note_on,2,0,8,,,,,,,,,7,,,52,92
51456,note_on,2,0,7,,,,,,,,,5,,,52,92
51520,note_on,0,0,6,,,,,,,,,5,,,71,0
51520,note_on,0,0,6,,,,,,,,,5,,,76,0
51520,note_on,256,0,3,,,,,,,,,2,,,71,0
51520,note_on,256,0,1,,,,,,,,,0,,,71,0
51520,note_on,256,0,6,,,,,,,,,5,,,67,0
51550,note_on,94,0,2,,,,,,,,,1,,,52,0
51550,note_on,94,0,5,,,,,,,,,4,,,67,0
51550,note_on,94,0,7,,,,,,,,,5,,,52,0
51550,note_on,94,0,8,,,,,,,,,7,,,52,0
51550,note_on,94,0,4,,,,,,,,,3,,,71,0
51552,note_on,32,0,1,,,,,,,,,0,,,79,92
51552,note_on,2,0,4,,,,,,,,,3,,,79,92
51552,note_on,32,0,3,,,,,,,,,2,,,79,92
51646,note_on,94,0,4,,,,,,,,,3,,,79,0
51648,note_on,2,0,4,,,,,,,,,3,,,71,92
51742,note_on,94,0,4,,,,,,,,,3,,,71,0
51744,note_on,2,0,4,,,,,,,,,3,,,71,92
51808,note_on,256,0,3,,,,,,,,,2,,,79,0
51808,note_on,256,0,1,,,,,,,,,0,,,79,0
51838,note_on,94,0,4,,,,,,,,,3,,,71,0
51840,note_on,32,0,3,,,,,,,,,2,,,79,92
51840,note_on,290,0,2,,,,,,,,,1,,,40,92
51840,note_on,2,0,4,,,,,,,,,3,,,76,92
51840,note_on,32,0,1,,,,,,,,,0,,,79,92
51840,note_on,290,0,7,,,,,,,,,5,,,40,92
51840,note_on,320,0,6,,,,,,,,,5,,,67,92
51840,note_on,290,0,8,,,,,,,,,7,,,40,92
51840,note_on,0,0,6,,,,,,,,,5,,,71,92
51840,note_on,0,0,6,,,,,,,,,5,,,76,92
51840,note_on,290,0,5,,,,,,,,,4,,,71,92
51888,note_on,48,0,1,,,,,,,,,0,,,79,0
51888,note_on,0,0,3,,,,,,,,,2,,,78,92
51888,note_on,48,0,3,,,,,,,,,2,,,79,0
51888,note_on,48,0,4,,,,,,,,,3,,,76,0
51888,note_on,0,0,4,,,,,,,,,3,,,78,92
51888,note_on,0,0,1,,,,,,,,,0,,,78,92
51934,note_on,94,0,7,,,,,,,,,5,,,40,0
51934,note_on,94,0,2,,,,,,,,,1,,,40,0
51934,note_on,94,0,8,,,,,,,,,7,,,40,0
51936,note_on,2,0,8,,,,,,,,,7,,,52,92
51936,note_on,48,0,3,,,,,,,,,2,,,78,0
51936,note_on,2,0,2,,,,,,,,,1,,,52,92
51936,note_on,48,0,1,,,,,,,,,0,,,78,0
51936,note_on,2,0,7,,,,,,,,,5,,,52,92
51936,note_on,0,0,4,,,,,,,,,3,,,79,92
51936,note_on,48,0,4,,,,,,,,,3,,,78,0
51936,note_on,0,0,1,,,,,,,,,0,,,76,92
51936,note_on,0,0,3,,,,,,,,,2,,,76,92
52030,note_on,94,0,1,,,,,,,,,0,,,76,0
52030,note_on,94,0,4,,,,,,,,,3,,,79,0
52030,note_on,94,0,2,,,,,,,,,1,,,52,0
52030,note_on,94,0,7,,,,,,,,,5,,,52,0
52030,note_on,94,0,3,,,,,,,,,2,,,76,0
52030,note_on,94,0,8,,,,,,,,,7,,,52,0
52032,note_on,2,0,7,,,,,,,,,5,,,40,92
52032,note_on,2,0,4,,,,,,,,,3,,,76,92
52032,note_on,2,0,2,,,,,,,,,1,,,40,92
52032,note_on,2,0,3,,,,,,,,,2,,,79,92
52032,note_on,2,0,8,,,,,,,,,7,,,40,92
52032,note_on,2,0,1,,,,,,,,,0,,,79,92
52096,note_on,0,0,6,,,,,,,,,5,,,76,0
52096,note_on,256,0,6,,,,,,,,,5,,,67,0
52096,note_on,0,0,6,,,,,,,,,5,,,71,0
52096,note_on,256,0,5,,,,,,,,,4,,,71,0
52126,note_on,94,0,2,,,,,,,,,1,,,40,0
52126,note_on,94,0,1,,,,,,,,,0,,,79,0
52126,note_on,94,0,7,,,,,,,,,5,,,40,0
52126,note_on,94,0,8,,,,,,,,,7,,,40,0
52126,note_on,94,0,4,,,,,,,,,3,,,76,0
52126,note_on,94,0,3,,,,,,,,,2,,,79,0
52128,note_on,2,0,7,,,,,,,,,5,,,47,92
52128,note_on,0,0,6,,,,,,,,,5,,,71,92
52128,note_on,0,0,6,,,,,,,,,5,,,75,92
52128,note_on,32,0,5,,,,,,,,,4,,,71,92
52128,note_on,2,0,8,,,,,,,,,7,,,47,92
52128,note_on,2,0,1,,,,,,,,,0,,,78,92
52128,note_on,2,0,4,,,,,,,,,3,,,75,92
52128,note_on,2,0,2,,,,,,,,,1,,,47,92
52128,note_on,32,0,6,,,,,,,,,5,,,66,92
52128,note_on,2,0,3,,,,,,,,,2,,,78,92
52176,note_on,0,0,4,,,,,,,,,3,,,76,92
52176,note_on,48,0,4,,,,,,,,,3,,,75,0
52176,note_on,0,0,1,,,,,,,,,0,,,76,92
52176,note_on,48,0,1,,,,,,,,,0,,,78,0
52176,note_on,0,0,3,,,,,,,,,2,,,76,92
52176,note_on,48,0,3,,,,,,,,,2,,,78,0
52222,note_on,94,0,2,,,,,,,,,1,,,47,0
52222,note_on,94,0,8,,,,,,,,,7,,,47,0
52222,note_on,94,0,7,,,,,,,,,5,,,47,0
52224,note_on,2,0,8,,,,,,,,,7,,,59,92
52224,note_on,2,0,7,,,,,,,,,5,,,59,92
52224,note_on,0,0,1,,,,,,,,,0,,,75,92
52224,note_on,48,0,1,,,,,,,,,0,,,76,0
52224,note_on,0,0,3,,,,,,,,,2,,,75,92
52224,note_on,0,0,4,,,,,,,,,3,,,78,92
52224,note_on,2,0,2,,,,,,,,,1,,,59,92
52224,note_on,48,0,4,,,,,,,,,3,,,76,0
52224,note_on,48,0,3,,,,,,,,,2,,,76,0
52318,note_on,94,0,3,,,,,,,,,2,,,75,0
52318,note_on,94,0,8,,,,,,,,,7,,,59,0
52318,note_on,94,0,1,,,,,,,,,0,,,75,0
52318,note_on,94,0,7,,,,,,,,,5,,,59,0
52318,note_on,94,0,2,,,,,,,,,1,,,59,0
52318,note_on,94,0,4,,,,,,,,,3,,,78,0
52320,note_on,2,0,4,,,,,,,,,3,,,75,92
52320,note_on,2,0,1,,,,,,,,,0,,,78,92
52320,note_on,2,0,3,,,,,,,,,2,,,78,92
52320,note_on,2,0,8,,,,,,,,,7,,,47,92
52320,note_on,2,0,2,,,,,,,,,1,,,47,92
52320,note_on,2,0,7,,,,,,,,,5,,,47,92
52384,note_on,0,0,6,,,,,,,,,5,,,71,0
52384,note_on,0,0,6,,,,,,,,,5,,,75,0
52384,note_on,256,0,6,,,,,,,,,5,,,66,0
52384,note_on,256,0,5,,,,,,,,,4,,,71,0
52414,note_on,94,0,3,,,,,,,,,2,,,78,0
52414,note_on,94,0,7,,,,,,,,,5,,,47,0
52414,note_on,94,0,8,,,,,,,,,7,,,47,0
52414,note_on,94,0,2,,,,,,,,,1,,,47,0
52414,note_on,94,0,1,,,,,,,,,0,,,78,0
52414,note_on,94,0,4,,,,,,,,,3,,,75,0
52416,note_on,2,0,2,,,,,,,,,1,,,40,92
52416,note_on,2,0,3,,,,,,,,,2,,,79,92
52416,note_on,2,0,7,,,,,,,,,5,,,40,92
52416,note_on,0,0,6,,,,,,,,,5,,,71,92
52416,note_on,32,0,5,,,,,,,,,4,,,71,92
52416,note_on,32,0,6,,,,,,,,,5,,,67,92
52416,note_on,2,0,4,,,,,,,,,3,,,76,92
52416,note_on,2,0,1,,,,,,,,,0,,,79,92
52416,note_on,0,0,6,,,,,,,,,5,,,76,92
52416,note_on,2,0,8,,,,,,,,,7,,,40,92
52464,note_on,48,0,4,,,,,,,,,3,,,76,0
52464,note_on,0,0,1,,,,,,,,,0,,,78,92
52464,note_on,0,0,4,,,,,,,,,3,,,78,92
52464,note_on,48,0,1,,,,,,,,,0,,,79,0
52464,note_on,48,0,3,,,,,,,,,2,,,79,0
52464,note_on,0,0,3,,,,,,,,,2,,,78,92
52510,note_on,94,0,7,,,,,,,,,5,,,40,0
52510,note_on,94,0,8,,,,,,,,,7,,,40,0
52510,note_on,94,0,2,,,,,,,,,1,,,40,0
52512,note_on,0,0,4,,,,,,,,,3,,,79,92
52512,note_on,48,0,4,,,,,,,,,3,,,78,0
52512,note_on,48,0,1,,,,,,,,,0,,,78,0
52512,note_on,0,0,1,,,,,,,,,0,,,76,92
52512,note_on,48,0,3,,,,,,,,,2,,,78,0
52512,note_on,0,0,3,,,,,,,,,2,,,76,92
52512,note_on,2,0,2,,,,,,,,,1,,,52,92
52512,note_on,2,0,8,,,,,,,,,7,,,52,92
52512,note_on,2,0,7,,,,,,,,,5,,,52,92
52606,note_on,94,0,8,,,,,,,,,7,,,52,0
52606,note_on,94,0,1,,,,,,,,,0,,,76,0
52606,note_on,94,0,2,,,,,,,,,1,,,52,0
52606,note_on,94,0,7,,,,,,,,,5,,,52,0
52606,note_on,94,0,4,,,,,,,,,3,,,79,0
52606,note_on,94,0,3,,,,,,,,,2,,,76,0
52608,note_on,2,0,7,,,,,,,,,5,,,40,92
52608,note_on,2,0,2,,,,,,,,,1,,,40,92
52608,note_on,2,0,3,,,,,,,,,2,,,79,92
52608,note_on,2,0,4,,,,,,,,,3,,,76,92
52608,note_on,2,0,1,,,,,,,,,0,,,79,92
52608,note_on,2,0,8,,,,,,,,,7,,,40,92
52672,note_on,0,0,6,,,,,,,,,5,,,71,0
52672,note_on,256,0,6,,,,,,,,,5,,,67,0
52672,note_on,256,0,5,,,,,,,,,4,,,71,0
52672,note_on,0,0,6,,,,,,,,,5,,,76,0
52702,note_on,94,0,7,,,,,,,,,5,,,40,0
52702,note_on,94,0,2,,,,,,,,,1,,,40,0
52702,note_on,94,0,3,,,,,,,,,2,,,79,0
52702,note_on,94,0,8,,,,,,,,,7,,,40,0
52702,note_on,94,0,4,,,,,,,,,3,,,76,0
52702,note_on,94,0,1,,,,,,,,,0,,,79,0
52704,note_on,2,0,7,,,,,,,,,5,,,47,92
52704,note_on,2,0,1,,,,,,,,,0,,,78,92
52704,note_on,0,0,6,,,,,,,,,5,,,71,92
52704,note_on,32,0,6,,,,,,,,,5,,,66,92
52704,note_on,2,0,8,,,,,,,,,7,,,47,92
52704,note_on,32,0,5,,,,,,,,,4,,,71,92
52704,note_on,2,0,4,,,,,,,,,3,,,75,92
52704,note_on,0,0,6,,,,,,,,,5,,,75,92
52704,note_on,2,0,3,,,,,,,,,2,,,78,92
52704,note_on,2,0,2,,,,,,,,,1,,,47,92
52752,note_on,0,0,4,,,,,,,,,3,,,76,92
52752,note_on,48,0,3,,,,,,,,,2,,,78,0
52752,note_on,0,0,3,,,,,,,,,2,,,76,92
52752,note_on,0,0,1,,,,,,,,,0,,,76,92
52752,note_on,48,0,1,,,,,,,,,0,,,78,0
52752,note_on,48,0,4,,,,,,,,,3,,,75,0
52798,note_on,94,0,8,,,,,,,,,7,,,47,0
52798,note_on,94,0,7,,,,,,,,,5,,,47,0
52798,note_on,94,0,2,,,,,,,,,1,,,47,0
52800,note_on,2,0,7,,,,,,,,,5,,,59,92
52800,note_on,48,0,3,,,,,,,,,2,,,76,0
52800,note_on,0,0,4,,,,,,,,,3,,,78,92
52800,note_on,2,0,8,,,,,,,,,7,,,59,92
52800,note_on,0,0,3,,,,,,,,,2,,,75,92
52800,note_on,48,0,4,,,,,,,,,3,,,76,0
52800,note_on,2,0,2,,,,,,,,,1,,,59,92
52800,note_on,48,0,1,,,,,,,,,0,,,76,0
52800,note_on,0,0,1,,,,,,,,,0,,,75,92
52894,note_on,94,0,3,,,,,,,,,2,,,75,0
52894,note_on,94,0,2,,,,,,,,,1,,,59,0
52894,note_on,94,0,7,,,,,,,,,5,,,59,0
52894,note_on,94,0,8,,,,,,,,,7,,,59,0
52894,note_on,94,0,4,,,,,,,,,3,,,78,0
52894,note_on,94,0,1,,,,,,,,,0,,,75,0
52896,note_on,2,0,3,,,,,,,,,2,,,78,92
52896,note_on,2,0,8,,,,,,,,,7,,,47,92
52896,note_on,2,0,2,,,,,,,,,1,,,47,92
52896,note_on,2,0,7,,,,,,,,,5,,,47,92
52896,note_on,2,0,4,,,,,,,,,3,,,75,92
52896,note_on,2,0,1,,,,,,,,,0,,,78,92
52960,note_on,256,0,6,,,,,,,,,5,,,66,0
52960,note_on,256,0,5,,,,,,,,,4,,,71,0
52960,note_on,0,0,6,,,,,,,,,5,,,75,0
52960,note_on,0,0,6,,,,,,,,,5,,,71,0
52990,note_on,94,0,1,,,,,,,,,0,,,78,0
52990,note_on,94,0,2,,,,,,,,,1,,,47,0
52990,note_on,94,0,4,,,,,,,,,3,,,75,0
52990,note_on,94,0,8,,,,,,,,,7,,,47,0
52990,note_on,94,0,7,,,,,,,,,5,,,47,0
52990,note_on,94,0,3,,,,,,,,,2,,,78,0
52992,note_on,0,0,6,,,,,,,,,5,,,71,92
52992,note_on,0,0,6,,,,,,,,,5,,,76,92
52992,note_on,32,0,6,,,,,,,,,5,,,67,92
52992,note_on,2,0,3,,,,,,,,,2,,,76,92
52992,note_on,2,0,7,,,,,,,,,5,,,52,92
52992,note_on,2,0,1,,,,,,,,,0,,,76,108
52992,note_on,2,0,4,,,,,,,,,3,,,76,92
52992,note_on,2,0,2,,,,,,,,,1,,,52,108
52992,note_on,32,0,5,,,,,,,,,4,,,67,92
52992,note_on,2,0,8,,,,,,,,,7,,,52,92
53040,note_on,48,0,1,,,,,,,,,0,,,76,0
53040,note_on,0,0,1,,,,,,,,,0,,,78,108
53088,note_on,0,0,1,,,,,,,,,0,,,79,108
53088,note_on,48,0,1,,,,,,,,,0,,,78,0
53136,note_on,48,0,1,,,,,,,,,0,,,79,0
53136,note_on,0,0,1,,,,,,,,,0,,,78,108
53182,note_on,46,0,1,,,,,,,,,0,,,78,0
53184,note_on,2,0,1,,,,,,,,,0,,,76,108
53248,note_on,256,0,7,,,,,,,,,5,,,52,0
53248,note_on,256,0,5,,,,,,,,,4,,,67,0
53248,note_on,256,0,8,,,,,,,,,7,,,52,0
53248,note_on,256,0,6,,,,,,,,,5,,,67,0
53248,note_on,0,0,6,,,,,,,,,5,,,71,0
53248,note_on,256,0,2,,,,,,,,,1,,,52,0
53248,note_on,0,0,6,,,,,,,,,5,,,76,0
53248,note_on,256,0,4,,,,,,,,,3,,,76,0
53248,note_on,256,0,3,,,,,,,,,2,,,76,0
53278,note_on,94,0,1,,,,,,,,,0,,,76,0
53280,note_on,32,0,7,,,,,,,,,5,,,51,60
53280,note_on,32,0,2,,,,,,,,,1,,,51,108
53280,note_on,32,0,6,,,,,,,,,5,,,66,60
53280,note_on,0,0,6,,,,,,,,,5,,,71,60
53280,note_on,2,0,1,,,,,,,,,0,,,78,108
53280,note_on,32,0,8,,,,,,,,,7,,,51,45
53328,note_on,0,0,1,,,,,,,,,0,,,79,108
53328,note_on,48,0,1,,,,,,,,,0,,,78,0
53376,note_on,0,0,1,,,,,,,,,0,,,81,108
53376,note_on,48,0,1,,,,,,,,,0,,,79,0
53424,note_on,48,0,1,,,,,,,,,0,,,81,0
53424,note_on,0,0,1,,,,,,,,,0,,,79,108
53470,note_on,46,0,1,,,,,,,,,0,,,79,0
53472,note_on,2,0,1,,,,,,,,,0,,,78,108
53536,note_on,0,0,6,,,,,,,,,5,,,71,0
53536,note_on,256,0,7,,,,,,,,,5,,,51,0
53536,note_on,256,0,6,,,,,,,,,5,,,66,0
53536,note_on,256,0,2,,,,,,,,,1,,,51,0
53536,note_on,256,0,8,,,,,,,,,7,,,51,0
53566,note_on,94,0,1,,,,,,,,,0,,,78,0
53568,note_on,32,0,8,,,,,,,,,7,,,52,45
53568,note_on,32,0,7,,,,,,,,,5,,,52,60
53568,note_on,0,0,6,,,,,,,,,5,,,71,60
53568,note_on,32,0,6,,,,,,,,,5,,,67,60
53568,note_on,2,0,1,,,,,,,,,0,,,79,108
53568,note_on,32,0,2,,,,,,,,,1,,,52,108
53616,note_on,0,0,1,,,,,,,,,0,,,81,108
53616,note_on,48,0,1,,,,,,,,,0,,,79,0
53664,note_on,48,0,1,,,,,,,,,0,,,81,0
53664,note_on,0,0,1,,,,,,,,,0,,,83,108
53712,note_on,48,0,1,,,,,,,,,0,,,83,0
53712,note_on,0,0,1,,,,,,,,,0,,,81,108
53758,note_on,46,0,1,,,,,,,,,0,,,81,0
53760,note_on,2,0,1,,,,,,,,,0,,,79,108
53824,note_on,256,0,2,,,,,,,,,1,,,52,0
53824,note_on,256,0,8,,,,,,,,,7,,,52,0
53824,note_on,256,0,7,,,,,,,,,5,,,52,0
53824,note_on,0,0,6,,,,,,,,,5,,,71,0
53824,note_on,256,0,6,,,,,,,,,5,,,67,0
53854,note_on,94,0,1,,,,,,,,,0,,,79,0
53856,note_on,32,0,6,,,,,,,,,5,,,66,60
53856,note_on,32,0,2,,,,,,,,,1,,,51,108
53856,note_on,0,0,6,,,,,,,,,5,,,71,60
53856,note_on,32,0,8,,,,,,,,,7,,,51,45
53856,note_on,32,0,7,,,,,,,,,5,,,51,60
53856,note_on,2,0,1,,,,,,,,,0,,,78,108
53904,note_on,48,0,1,,,,,,,,,0,,,78,0
53904,note_on,0,0,1,,,,,,,,,0,,,79,108
53952,note_on,48,0,1,,,,,,,,,0,,,79,0
53952,note_on,0,0,1,,,,,,,,,0,,,81,108
54000,note_on,48,0,1,,,,,,,,,0,,,81,0
54000,note_on,0,0,1,,,,,,,,,0,,,79,108
54046,note_on,46,0,1,,,,,,,,,0,,,79,0
54048,note_on,2,0,1,,,,,,,,,0,,,78,108
54112,note_on,256,0,8,,,,,,,,,7,,,51,0
54112,note_on,0,0,6,,,,,,,,,5,,,71,0
54112,note_on,256,0,6,,,,,,,,,5,,,66,0
54112,note_on,256,0,7,,,,,,,,,5,,,51,0
54112,note_on,256,0,2,,,,,,,,,1,,,51,0
54142,note_on,94,0,1,,,,,,,,,0,,,78,0
54144,note_on,32,0,7,,,,,,,,,5,,,52,60
54144,note_on,32,0,2,,,,,,,,,1,,,52,108
54144,note_on,32,0,6,,,,,,,,,5,,,67,60
54144,note_on,0,0,6,,,,,,,,,5,,,71,60
54144,note_on,32,0,8,,,,,,,,,7,,,52,45
54144,note_on,2,0,1,,,,,,,,,0,,,79,108
54190,note_on,46,0,1,,,,,,,,,0,,,79,0
54192,note_on,48,0,2,,,,,,,,,1,,,52,0
54192,note_on,0,0,2,,,,,,,,,1,,,54,108
54192,note_on,2,0,1,,,,,,,,,0,,,78,108
54238,note_on,46,0,1,,,,,,,,,0,,,78,0
54240,note_on,0,0,2,,,,,,,,,1,,,55,108
54240,note_on,48,0,2,,,,,,,,,1,,,54,0
54240,note_on,2,0,1,,,,,,,,,0,,,76,108
54288,note_on,0,0,2,,,,,,,,,1,,,54,108
54288,note_on,48,0,2,,,,,,,,,1,,,55,0
54334,note_on,94,0,1,,,,,,,,,0,,,76,0
54334,note_on,46,0,2,,,,,,,,,1,,,54,0
54336,note_on,2,0,2,,,,,,,,,1,,,52,108
54400,note_on,256,0,8,,,,,,,,,7,,,52,0
54400,note_on,256,0,6,,,,,,,,,5,,,67,0
54400,note_on,256,0,7,,,,,,,,,5,,,52,0
54400,note_on,0,0,6,,,,,,,,,5,,,71,0
54430,note_on,94,0,2,,,,,,,,,1,,,52,0
54432,note_on,32,0,6,,,,,,,,,5,,,67,60
54432,note_on,0,0,6,,,,,,,,,5,,,71,60
54432,note_on,32,0,7,,,,,,,,,5,,,52,60
54432,note_on,32,0,8,,,,,,,,,7,,,52,45
54432,note_on,2,0,2,,,,,,,,,1,,,52,108
54480,note_on,0,0,2,,,,,,,,,1,,,54,108
54480,note_on,48,0,2,,,,,,,,,1,,,52,0
54528,note_on,0,0,2,,,,,,,,,1,,,55,108
54528,note_on,48,0,2,,,,,,,,,1,,,54,0
54576,note_on,0,0,2,,,,,,,,,1,,,54,108
54576,note_on,48,0,2,,,,,,,,,1,,,55,0
54622,note_on,46,0,2,,,,,,,,,1,,,54,0
54624,note_on,290,0,1,,,,,,,,,0,,,79,108
54624,note_on,2,0,2,,,,,,,,,1,,,52,108
54688,note_on,0,0,6,,,,,,,,,5,,,71,0
54688,note_on,256,0,6,,,,,,,,,5,,,67,0
54688,note_on,256,0,8,,,,,,,,,7,,,52,0
54688,note_on,256,0,7,,,,,,,,,5,,,52,0
54718,note_on,94,0,1,,,,,,,,,0,,,79,0
54718,note_on,94,0,2,,,,,,,,,1,,,52,0
54720,note_on,2,0,2,,,,,,,,,1,,,51,108
54720,note_on,2,0,1,,,,,,,,,0,,,81,108
54720,note_on,32,0,7,,,,,,,,,5,,,51,60
54720,note_on,0,0,6,,,,,,,,,5,,,71,60
54720,note_on,0,0,6,,,,,,,,,5,,,69,60
54720,note_on,32,0,6,,,,,,,,,5,,,66,60
54720,note_on,32,0,8,,,,,,,,,7,,,51,45
54768,note_on,0,0,2,,,,,,,,,1,,,52,108
54768,note_on,48,0,2,,,,,,,,,1,,,51,0
54816,note_on,48,0,2,,,,,,,,,1,,,52,0
54816,note_on,0,0,2,,,,,,,,,1,,,54,108
54864,note_on,48,0,2,,,,,,,,,1,,,54,0
54864,note_on,0,0,2,,,,,,,,,1,,,52,108
54910,note_on,46,0,2,,,,,,,,,1,,,52,0
54912,note_on,2,0,2,,,,,,,,,1,,,51,108
54976,note_on,256,0,1,,,,,,,,,0,,,81,0
54976,note_on,256,0,8,,,,,,,,,7,,,51,0
54976,note_on,256,0,7,,,,,,,,,5,,,51,0
54976,note_on,0,0,6,,,,,,,,,5,,,71,0
54976,note_on,0,0,6,,,,,,,,,5,,,69,0
54976,note_on,256,0,6,,,,,,,,,5,,,66,0
55006,note_on,94,0,2,,,,,,,,,1,,,51,0
55008,note_on,0,0,6,,,,,,,,,5,,,71,60
55008,note_on,32,0,7,,,,,,,,,5,,,52,60
55008,note_on,32,0,1,,,,,,,,,0,,,79,108
55008,note_on,32,0,6,,,,,,,,,5,,,64,60
55008,note_on,2,0,2,,,,,,,,,1,,,52,108
55008,note_on,32,0,8,,,,,,,,,7,,,52,45
55008,note_on,0,0,6,,,,,,,,,5,,,67,60
55056,note_on,0,0,2,,,,,,,,,1,,,54,108
55056,note_on,48,0,2,,,,,,,,,1,,,52,0
55104,note_on,0,0,2,,,,,,,,,1,,,55,108
55104,note_on,48,0,2,,,,,,,,,1,,,54,0
55152,note_on,48,0,2,,,,,,,,,1,,,55,0
55152,note_on,0,0,2,,,,,,,,,1,,,54,108
55198,note_on,46,0,2,,,,,,,,,1,,,54,0
55200,note_on,2,0,2,,,,,,,,,1,,,52,108
55264,note_on,256,0,1,,,,,,,,,0,,,79,0
55264,note_on,0,0,6,,,,,,,,,5,,,71,0
55264,note_on,0,0,6,,,,,,,,,5,,,67,0
55264,note_on,256,0,7,,,,,,,,,5,,,52,0
55264,note_on,256,0,6,,,,,,,,,5,,,64,0
55264,note_on,256,0,8,,,,,,,,,7,,,52,0
55294,note_on,94,0,2,,,,,,,,,1,,,52,0
55296,note_on,2,0,2,,,,,,,,,1,,,47,108
55296,note_on,32,0,1,,,,,,,,,0,,,78,108
55296,note_on,0,0,6,,,,,,,,,5,,,71,60
55296,note_on,0,0,6,,,,,,,,,5,,,66,60
55296,note_on,32,0,6,,,,,,,,,5,,,63,60
55296,note_on,32,0,8,,,,,,,,,7,,,47,45
55296,note_on,32,0,7,,,,,,,,,5,,,47,60
55344,note_on,0,0,2,,,,,,,,,1,,,49,108
55344,note_on,48,0,2,,,,,,,,,1,,,47,0
55392,note_on,0,0,2,,,,,,,,,1,,,51,108
55392,note_on,48,0,2,,,,,,,,,1,,,49,0
55440,note_on,0,0,2,,,,,,,,,1,,,49,108
55440,note_on,48,0,2,,,,,,,,,1,,,51,0
55486,note_on,46,0,2,,,,,,,,,1,,,49,0
55488,note_on,2,0,2,,,,,,,,,1,,,47,108
55552,note_on,256,0,1,,,,,,,,,0,,,78,0
55552,note_on,256,0,6,,,,,,,,,5,,,63,0
55552,note_on,0,0,6,,,,,,,,,5,,,66,0
55552,note_on,0,0,6,,,,,,,,,5,,,71,0
55552,note_on,256,0,7,,,,,,,,,5,,,47,0
55552,note_on,256,0,8,,,,,,,,,7,,,47,0
55582,note_on,94,0,2,,,,,,,,,1,,,47,0
55584,note_on,0,0,6,,,,,,,,,5,,,67,60
55584,note_on,0,0,6,,,,,,,,,5,,,71,60
55584,note_on,32,0,1,,,,,,,,,0,,,79,108
55584,note_on,32,0,6,,,,,,,,,5,,,64,60
55584,note_on,32,0,7,,,,,,,,,5,,,52,60
55584,note_on,32,0,8,,,,,,,,,7,,,52,45
55584,note_on,2,0,2,,,,,,,,,1,,,52,108
55632,note_on,0,0,2,,,,,,,,,1,,,54,108
55632,note_on,48,0,2,,,,,,,,,1,,,52,0
55680,note_on,0,0,2,,,,,,,,,1,,,55,108
55680,note_on,48,0,2,,,,,,,,,1,,,54,0
55728,note_on,0,0,2,,,,,,,,,1,,,54,108
55728,note_on,48,0,2,,,,,,,,,1,,,55,0
55774,note_on,46,0,2,,,,,,,,,1,,,54,0
55776,note_on,2,0,2,,,,,,,,,1,,,52,108
55840,note_on,256,0,8,,,,,,,,,7,,,52,0
55840,note_on,256,0,6,,,,,,,,,5,,,64,0
55840,note_on,0,0,6,,,,,,,,,5,,,67,0
55840,note_on,0,0,6,,,,,,,,,5,,,71,0
55840,note_on,256,0,1,,,,,,,,,0,,,79,0
55840,note_on,256,0,7,,,,,,,,,5,,,52,0
55870,note_on,94,0,2,,,,,,,,,1,,,52,0
55872,note_on,32,0,7,,,,,,,,,5,,,51,60
55872,note_on,32,0,1,,,,,,,,,0,,,81,108
55872,note_on,32,0,8,,,,,,,,,7,,,51,45
55872,note_on,2,0,2,,,,,,,,,1,,,51,108
55872,note_on,32,0,6,,,,,,,,,5,,,66,60
55872,note_on,0,0,6,,,,,,,,,5,,,69,60
55872,note_on,0,0,6,,,,,,,,,5,,,71,60
55920,note_on,0,0,2,,,,,,,,,1,,,52,108
55920,note_on,48,0,2,,,,,,,,,1,,,51,0
55968,note_on,48,0,2,,,,,,,,,1,,,52,0
55968,note_on,0,0,2,,,,,,,,,1,,,54,108
56016,note_on,0,0,2,,,,,,,,,1,,,52,108
56016,note_on,48,0,2,,,,,,,,,1,,,54,0
56062,note_on,46,0,2,,,,,,,,,1,,,52,0
56064,note_on,2,0,2,,,,,,,,,1,,,51,108
56128,note_on,256,0,8,,,,,,,,,7,,,51,0
56128,note_on,256,0,6,,,,,,,,,5,,,66,0
56128,note_on,0,0,6,,,,,,,,,5,,,69,0
56128,note_on,0,0,6,,,,,,,,,5,,,71,0
56128,note_on,256,0,1,,,,,,,,,0,,,81,0
56128,note_on,256,0,7,,,,,,,,,5,,,51,0
56158,note_on,94,0,2,,,,,,,,,1,,,51,0
56160,note_on,0,0,6,,,,,,,,,5,,,71,60
56160,note_on,0,0,6,,,,,,,,,5,,,67,60
56160,note_on,32,0,7,,,,,,,,,5,,,52,60
56160,note_on,32,0,8,,,,,,,,,7,,,52,45
56160,note_on,32,0,6,,,,,,,,,5,,,64,60
56160,note_on,32,0,1,,,,,,,,,0,,,79,108
56160,note_on,2,0,2,,,,,,,,,1,,,52,108
56208,note_on,0,0,2,,,,,,,,,1,,,54,108
56208,note_on,48,0,2,,,,,,,,,1,,,52,0
56256,note_on,48,0,2,,,,,,,,,1,,,54,0
56256,note_on,0,0,2,,,,,,,,,1,,,55,108
56304,note_on,0,0,2,,,,,,,,,1,,,54,108
56304,note_on,48,0,2,,,,,,,,,1,,,55,0
56350,note_on,46,0,2,,,,,,,,,1,,,54,0
56352,note_on,2,0,2,,,,,,,,,1,,,52,108
56416,note_on,256,0,7,,,,,,,,,5,,,52,0
56416,note_on,256,0,1,,,,,,,,,0,,,79,0
56416,note_on,256,0,8,,,,,,,,,7,,,52,0
56416,note_on,256,0,6,,,,,,,,,5,,,64,0
56416,note_on,0,0,6,,,,,,,,,5,,,67,0
56416,note_on,0,0,6,,,,,,,,,5,,,71,0
56446,note_on,94,0,2,,,,,,,,,1,,,52,0
56448,note_on,32,0,7,,,,,,,,,5,,,47,60
56448,note_on,32,0,6,,,,,,,,,5,,,63,60
56448,note_on,32,0,8,,,,,,,,,7,,,47,45
56448,note_on,2,0,2,,,,,,,,,1,,,47,108
56448,note_on,32,0,1,,,,,,,,,0,,,78,108
56448,note_on,0,0,6,,,,,,,,,5,,,66,60
56448,note_on,0,0,6,,,,,,,,,5,,,71,60
56542,note_on,94,0,2,,,,,,,,,1,,,47,0
56544,note_on,2,0,2,,,,,,,,,1,,,59,108
56640,note_on,0,0,2,,,,,,,,,1,,,57,108
56640,note_on,96,0,2,,,,,,,,,1,,,59,0
56704,note_on,256,0,1,,,,,,,,,0,,,78,0
56704,note_on,256,0,7,,,,,,,,,5,,,47,0
56704,note_on,256,0,6,,,,,,,,,5,,,63,0
56704,note_on,256,0,8,,,,,,,,,7,,,47,0
56704,note_on,0,0,6,,,,,,,,,5,,,71,0
56704,note_on,0,0,6,,,,,,,,,5,,,66,0
56734,note_on,94,0,2,,,,,,,,,1,,,57,0
56736,note_on,32,0,7,,,,,,,,,5,,,52,60
56736,note_on,0,0,6,,,,,,,,,5,,,71,60
56736,note_on,2,0,2,,,,,,,,,1,,,55,108
56736,note_on,32,0,8,,,,,,,,,7,,,52,45
56736,note_on,32,0,6,,,,,,,,,5,,,64,60
56736,note_on,0,0,6,,,,,,,,,5,,,67,60
56832,note_on,96,0,2,,,,,,,,,1,,,55,0
56832,note_on,0,0,2,,,,,,,,,1,,,54,108
56928,note_on,0,0,2,,,,,,,,,1,,,52,108
56928,note_on,96,0,2,,,,,,,,,1,,,54,0
56992,note_on,0,0,6,,,,,,,,,5,,,71,0
56992,note_on,256,0,7,,,,,,,,,5,,,52,0
56992,note_on,256,0,6,,,,,,,,,5,,,64,0
56992,note_on,256,0,8,,,,,,,,,7,,,52,0
56992,note_on,0,0,6,,,,,,,,,5,,,67,0
57022,note_on,94,0,2,,,,,,,,,1,,,52,0
57024,note_on,2,0,2,,,,,,,,,1,,,60,108
57024,note_on,0,0,6,,,,,,,,,5,,,72,60
57024,note_on,0,0,6,,,,,,,,,5,,,69,60
57024,note_on,32,0,8,,,,,,,,,7,,,60,45
57024,note_on,32,0,6,,,,,,,,,5,,,64,60
57024,note_on,32,0,7,,,,,,,,,5,,,60,60
57120,note_on,416,0,1,,,,,,,,,0,,,76,108
57216,note_on,0,0,1,,,,,,,,,0,,,74,108
57216,note_on,96,0,1,,,,,,,,,0,,,76,0
57310,note_on,94,0,1,,,,,,,,,0,,,74,0
57312,note_on,2,0,1,,,,,,,,,0,,,72,108
57408,note_on,96,0,1,,,,,,,,,0,,,72,0
57408,note_on,0,0,1,,,,,,,,,0,,,71,108
57504,note_on,96,0,1,,,,,,,,,0,,,71,0
57504,note_on,0,0,1,,,,,,,,,0,,,69,108
57552,note_on,528,0,2,,,,,,,,,1,,,60,0
57552,note_on,528,0,6,,,,,,,,,5,,,64,0
57552,note_on,0,0,6,,,,,,,,,5,,,69,0
57552,note_on,0,0,6,,,,,,,,,5,,,72,0
57552,note_on,528,0,8,,,,,,,,,7,,,60,0
57552,note_on,528,0,7,,,,,,,,,5,,,60,0
57598,note_on,94,0,1,,,,,,,,,0,,,69,0
57600,note_on,48,0,8,,,,,,,,,7,,,50,45
57600,note_on,48,0,6,,,,,,,,,5,,,62,60
57600,note_on,0,0,6,,,,,,,,,5,,,72,60
57600,note_on,48,0,7,,,,,,,,,5,,,50,60
57600,note_on,0,0,6,,,,,,,,,5,,,66,60
57600,note_on,2,0,1,,,,,,,,,0,,,78,108
57696,note_on,144,0,2,,,,,,,,,1,,,57,108
57792,note_on,96,0,2,,,,,,,,,1,,,57,0
57792,note_on,0,0,2,,,,,,,,,1,,,55,108
57886,note_on,94,0,2,,,,,,,,,1,,,55,0
57888,note_on,2,0,2,,,,,,,,,1,,,54,108
57984,note_on,0,0,2,,,,,,,,,1,,,52,108
57984,note_on,96,0,2,,,,,,,,,1,,,54,0
58080,note_on,0,0,2,,,,,,,,,1,,,50,108
58080,note_on,96,0,2,,,,,,,,,1,,,52,0
58128,note_on,0,0,6,,,,,,,,,5,,,72,0
58128,note_on,0,0,6,,,,,,,,,5,,,66,0
58128,note_on,528,0,6,,,,,,,,,5,,,62,0
58128,note_on,528,0,7,,,,,,,,,5,,,50,0
58128,note_on,528,0,8,,,,,,,,,7,,,50,0
58174,note_on,94,0,2,,,,,,,,,1,,,50,0
58176,note_on,2,0,2,,,,,,,,,1,,,59,108
58176,note_on,48,0,8,,,,,,,,,7,,,59,45
58176,note_on,48,0,6,,,,,,,,,5,,,62,60
58176,note_on,0,0,6,,,,,,,,,5,,,66,60
58176,note_on,48,0,7,,,,,,,,,5,,,59,60
58176,note_on,0,0,6,,,,,,,,,5,,,71,60
58270,note_on,670,0,1,,,,,,,,,0,,,78,0
58272,note_on,2,0,1,,,,,,,,,0,,,74,108
58368,note_on,96,0,1,,,,,,,,,0,,,74,0
58368,note_on,0,0,1,,,,,,,,,0,,,72,108
58462,note_on,94,0,1,,,,,,,,,0,,,72,0
58464,note_on,2,0,1,,,,,,,,,0,,,71,108
58560,note_on,0,0,1,,,,,,,,,0,,,69,108
58560,note_on,96,0,1,,,,,,,,,0,,,71,0
58656,note_on,0,0,1,,,,,,,,,0,,,67,108
58656,note_on,96,0,1,,,,,,,,,0,,,69,0
58704,note_on,528,0,8,,,,,,,,,7,,,59,0
58704,note_on,0,0,6,,,,,,,,,5,,,66,0
58704,note_on,528,0,7,,,,,,,,,5,,,59,0
58704,note_on,0,0,6,,,,,,,,,5,,,71,0
58704,note_on,528,0,6,,,,,,,,,5,,,62,0
58704,note_on,528,0,2,,,,,,,,,1,,,59,0
58750,note_on,94,0,1,,,,,,,,,0,,,67,0
58752,note_on,2,0,1,,,,,,,,,0,,,76,108
58752,note_on,48,0,7,,,,,,,,,5,,,48,60
58752,note_on,0,0,6,,,,,,,,,5,,,71,60
58752,note_on,48,0,6,,,,,,,,,5,,,64,60
58752,note_on,48,0,8,,,,,,,,,7,,,48,45
58848,note_on,144,0,2,,,,,,,,,1,,,55,108
58944,note_on,0,0,2,,,,,,,,,1,,,54,108
58944,note_on,96,0,2,,,,,,,,,1,,,55,0
59038,note_on,94,0,2,,,,,,,,,1,,,54,0
59040,note_on,2,0,2,,,,,,,,,1,,,52,108
59136,note_on,96,0,2,,,,,,,,,1,,,52,0
59136,note_on,0,0,2,,,,,,,,,1,,,50,108
59232,note_on,0,0,2,,,,,,,,,1,,,48,108
59232,note_on,96,0,2,,,,,,,,,1,,,50,0
59280,note_on,528,0,8,,,,,,,,,7,,,48,0
59280,note_on,528,0,7,,,,,,,,,5,,,48,0
59280,note_on,0,0,6,,,,,,,,,5,,,71,0
59280,note_on,528,0,6,,,,,,,,,5,,,64,0
59326,note_on,94,0,2,,,,,,,,,1,,,48,0
59328,note_on,48,0,7,,,,,,,,,5,,,54,60
59328,note_on,0,0,6,,,,,,,,,5,,,69,60
59328,note_on,48,0,6,,,,,,,,,5,,,64,60
59328,note_on,48,0,8,,,,,,,,,7,,,54,45
59328,note_on,2,0,2,,,,,,,,,1,,,57,108
59422,note_on,94,0,2,,,,,,,,,1,,,57,0
59422,note_on,670,0,1,,,,,,,,,0,,,76,0
59424,note_on,2,0,2,,,,,,,,,1,,,57,108
59424,note_on,2,0,1,,,,,,,,,0,,,72,108
59520,note_on,96,0,2,,,,,,,,,1,,,57,0
59520,note_on,96,0,1,,,,,,,,,0,,,72,0
59520,note_on,0,0,2,,,,,,,,,1,,,55,108
59520,note_on,0,0,1,,,,,,,,,0,,,71,108
59584,note_on,256,0,6,,,,,,,,,5,,,64,0
59584,note_on,256,0,7,,,,,,,,,5,,,54,0
59584,note_on,256,0,8,,,,,,,,,7,,,54,0
59584,note_on,0,0,6,,,,,,,,,5,,,69,0
59614,note_on,94,0,2,,,,,,,,,1,,,55,0
59614,note_on,94,0,1,,,,,,,,,0,,,71,0
59616,note_on,32,0,6,,,,,,,,,5,,,63,60
59616,note_on,32,0,8,,,,,,,,,7,,,47,45
59616,note_on,0,0,6,,,,,,,,,5,,,69,60
59616,note_on,2,0,1,,,,,,,,,0,,,69,108
59616,note_on,2,0,2,,,,,,,,,1,,,54,108
59616,note_on,32,0,7,,,,,,,,,5,,,47,60
59712,note_on,96,0,1,,,,,,,,,0,,,69,0
59712,note_on,0,0,1,,,,,,,,,0,,,67,108
59712,note_on,96,0,2,,,,,,,,,1,,,54,0
59712,note_on,0,0,2,,,,,,,,,1,,,52,108
59808,note_on,0,0,2,,,,,,,,,1,,,51,108
59808,note_on,96,0,1,,,,,,,,,0,,,67,0
59808,note_on,0,0,1,,,,,,,,,0,,,66,108
59808,note_on,96,0,2,,,,,,,,,1,,,52,0
59872,note_on,0,0,6,,,,,,,,,5,,,69,0
59872,note_on,256,0,7,,,,,,,,,5,,,47,0
59872,note_on,256,0,6,,,,,,,,,5,,,63,0
59872,note_on,256,0,8,,,,,,,,,7,,,47,0
59902,note_on,94,0,2,,,,,,,,,1,,,51,0
59902,note_on,94,0,1,,,,,,,,,0,,,66,0
59904,note_on,2,0,2,,,,,,,,,1,,,52,108
59904,note_on,32,0,6,,,,,,,,,5,,,59,60
59904,note_on,32,0,8,,,,,,,,,7,,,52,45
59904,note_on,0,0,6,,,,,,,,,5,,,67,60
59904,note_on,32,0,7,,,,,,,,,5,,,52,60
59904,note_on,2,0,1,,,,,,,,,0,,,67,108
59904,note_on,0,0,6,,,,,,,,,5,,,64,60
59998,note_on,94,0,1,,,,,,,,,0,,,67,0
60000,note_on,2,0,1,,,,,,,,,0,,,66,108
60094,note_on,94,0,1,,,,,,,,,0,,,66,0
60096,note_on,2,0,1,,,,,,,,,0,,,64,108
60160,note_on,0,0,6,,,,,,,,,5,,,64,0
60160,note_on,0,0,6,,,,,,,,,5,,,67,0
60160,note_on,256,0,6,,,,,,,,,5,,,59,0
60160,note_on,256,0,2,,,,,,,,,1,,,52,0
60160,note_on,256,0,8,,,,,,,,,7,,,52,0
60160,note_on,256,0,7,,,,,,,,,5,,,52,0
60190,note_on,94,0,1,,,,,,,,,0,,,64,0
60192,note_on,2,0,1,,,,,,,,,0,,,76,108
60384,note_on,224,0,6,,,,,,,,,5,,,71,60
60384,note_on,224,0,2,,,,,,,,,1,,,55,108
60384,note_on,0,0,6,,,,,,,,,5,,,76,60
60384,note_on,224,0,8,,,,,,,,,7,,,55,45
60384,note_on,224,0,7,,,,,,,,,5,,,55,60
60448,note_on,256,0,1,,,,,,,,,0,,,76,0
60478,note_on,94,0,2,,,,,,,,,1,,,55,0
60478,note_on,94,0,8,,,,,,,,,7,,,55,0
60478,note_on,94,0,6,,,,,,,,,5,,,71,0
60478,note_on,0,0,6,,,,,,,,,5,,,76,0
60478,note_on,94,0,7,,,,,,,,,5,,,55,0
60480,note_on,2,0,6,,,,,,,,,5,,,70,60
60480,note_on,2,0,2,,,,,,,,,1,,,54,108
60480,note_on,0,0,6,,,,,,,,,5,,,76,60
60480,note_on,2,0,8,,,,,,,,,7,,,54,45
60480,note_on,32,0,1,,,,,,,,,0,,,76,108
60480,note_on,2,0,7,,,,,,,,,5,,,54,60
60574,note_on,94,0,2,,,,,,,,,1,,,54,0
60576,note_on,0,0,1,,,,,,,,,0,,,79,108
60576,note_on,96,0,1,,,,,,,,,0,,,76,0
60576,note_on,2,0,2,,,,,,,,,1,,,42,108
60670,note_on,94,0,2,,,,,,,,,1,,,42,0
60672,note_on,96,0,1,,,,,,,,,0,,,79,0
60672,note_on,0,0,1,,,,,,,,,0,,,78,108
60672,note_on,2,0,2,,,,,,,,,1,,,54,108
60736,note_on,256,0,8,,,,,,,,,7,,,54,0
60736,note_on,256,0,7,,,,,,,,,5,,,54,0
60736,note_on,256,0,6,,,,,,,,,5,,,70,0
60736,note_on,0,0,6,,,,,,,,,5,,,76,0
60766,note_on,94,0,1,,,,,,,,,0,,,78,0
60766,note_on,94,0,2,,,,,,,,,1,,,54,0
60768,note_on,2,0,2,,,,,,,,,1,,,58,108
60768,note_on,2,0,1,,,,,,,,,0,,,76,108
60768,note_on,32,0,8,,,,,,,,,7,,,58,45
60768,note_on,32,0,7,,,,,,,,,5,,,58,60
60768,note_on,32,0,6,,,,,,,,,5,,,66,60
60768,note_on,0,0,6,,,,,,,,,5,,,73,60
60862,note_on,94,0,2,,,,,,,,,1,,,58,0
60864,note_on,2,0,2,,,,,,,,,1,,,59,108
60958,note_on,94,0,2,,,,,,,,,1,,,59,0
60960,note_on,2,0,2,,,,,,,,,1,,,61,108
61024,note_on,0,0,6,,,,,,,,,5,,,73,0
61024,note_on,256,0,1,,,,,,,,,0,,,76,0
61024,note_on,256,0,6,,,,,,,,,5,,,66,0
61024,note_on,256,0,8,,,,,,,,,7,,,58,0
61024,note_on,256,0,7,,,,,,,,,5,,,58,0
61054,note_on,94,0,2,,,,,,,,,1,,,61,0
61056,note_on,32,0,1,,,,,,,,,0,,,76,108
61056,note_on,32,0,6,,,,,,,,,5,,,70,60
61056,note_on,0,0,6,,,,,,,,,5,,,76,60
61056,note_on,32,0,8,,,,,,,,,7,,,54,45
61056,note_on,2,0,2,,,,,,,,,1,,,54,108
61056,note_on,32,0,7,,,,,,,,,5,,,54,60
61150,note_on,94,0,1,,,,,,,,,0,,,76,0
61150,note_on,94,0,2,,,,,,,,,1,,,54,0
61152,note_on,2,0,1,,,,,,,,,0,,,79,108
61152,note_on,2,0,2,,,,,,,,,1,,,42,108
61246,note_on,94,0,1,,,,,,,,,0,,,79,0
61246,note_on,94,0,2,,,,,,,,,1,,,42,0
61248,note_on,2,0,2,,,,,,,,,1,,,54,108
61248,note_on,2,0,1,,,,,,,,,0,,,78,108
61312,note_on,256,0,8,,,,,,,,,7,,,54,0
61312,note_on,0,0,6,,,,,,,,,5,,,76,0
61312,note_on,256,0,7,,,,,,,,,5,,,54,0
61312,note_on,256,0,6,,,,,,,,,5,,,70,0
61342,note_on,94,0,1,,,,,,,,,0,,,78,0
61342,note_on,94,0,2,,,,,,,,,1,,,54,0
61344,note_on,32,0,8,,,,,,,,,7,,,58,45
61344,note_on,2,0,1,,,,,,,,,0,,,76,108
61344,note_on,2,0,2,,,,,,,,,1,,,58,108
61344,note_on,32,0,6,,,,,,,,,5,,,66,60
61344,note_on,0,0,6,,,,,,,,,5,,,73,60
61344,note_on,32,0,7,,,,,,,,,5,,,58,60
61438,note_on,94,0,2,,,,,,,,,1,,,58,0
61440,note_on,2,0,2,,,,,,,,,1,,,59,108
61534,note_on,94,0,2,,,,,,,,,1,,,59,0
61536,note_on,2,0,2,,,,,,,,,1,,,61,108
61600,note_on,0,0,6,,,,,,,,,5,,,73,0
61600,note_on,256,0,6,,,,,,,,,5,,,66,0
61600,note_on,256,0,1,,,,,,,,,0,,,76,0
61600,note_on,256,0,7,,,,,,,,,5,,,58,0
61600,note_on,256,0,8,,,,,,,,,7,,,58,0
61630,note_on,94,0,2,,,,,,,,,1,,,61,0
61632,note_on,32,0,1,,,,,,,,,0,,,74,108
61632,note_on,2,0,2,,,,,,,,,1,,,59,108
61632,note_on,32,0,6,,,,,,,,,5,,,66,60
61632,note_on,32,0,7,,,,,,,,,5,,,59,60
61632,note_on,0,0,6,,,,,,,,,5,,,74,60
61632,note_on,0,0,6,,,,,,,,,5,,,71,60
61632,note_on,32,0,8,,,,,,,,,7,,,59,45
61726,note_on,94,0,2,,,,,,,,,1,,,59,0
61726,note_on,94,0,1,,,,,,,,,0,,,74,0
61728,note_on,2,0,2,,,,,,,,,1,,,47,108
61728,note_on,2,0,1,,,,,,,,,0,,,78,108
61822,note_on,94,0,2,,,,,,,,,1,,,47,0
61822,note_on,94,0,1,,,,,,,,,0,,,78,0
61824,note_on,2,0,2,,,,,,,,,1,,,59,108
61824,note_on,2,0,1,,,,,,,,,0,,,83,108
61888,note_on,0,0,6,,,,,,,,,5,,,74,0
61888,note_on,0,0,6,,,,,,,,,5,,,71,0
61888,note_on,256,0,6,,,,,,,,,5,,,66,0
61888,note_on,256,0,8,,,,,,,,,7,,,59,0
61888,note_on,256,0,7,,,,,,,,,5,,,59,0
61918,note_on,94,0,1,,,,,,,,,0,,,83,0
61918,note_on,94,0,2,,,,,,,,,1,,,59,0
61920,note_on,0,0,6,,,,,,,,,5,,,66,60
61920,note_on,32,0,6,,,,,,,,,5,,,61,60
61920,note_on,32,0,8,,,,,,,,,7,,,54,45
61920,note_on,32,0,7,,,,,,,,,5,,,54,60
61920,note_on,0,0,6,,,,,,,,,5,,,70,60
61920,note_on,2,0,1,,,,,,,,,0,,,73,108
61920,note_on,2,0,2,,,,,,,,,1,,,54,108
62014,note_on,94,0,2,,,,,,,,,1,,,54,0
62016,note_on,2,0,2,,,,,,,,,1,,,42,108
62110,note_on,94,0,2,,,,,,,,,1,,,42,0
62112,note_on,2,0,2,,,,,,,,,1,,,54,108
62176,note_on,256,0,7,,,,,,,,,5,,,54,0
62176,note_on,256,0,1,,,,,,,,,0,,,73,0
62176,note_on,256,0,6,,,,,,,,,5,,,61,0
62176,note_on,0,0,6,,,,,,,,,5,,,66,0
62176,note_on,0,0,6,,,,,,,,,5,,,70,0
62176,note_on,256,0,8,,,,,,,,,7,,,54,0
62206,note_on,94,0,2,,,,,,,,,1,,,54,0
62208,note_on,0,0,6,,,,,,,,,5,,,71,92
62208,note_on,0,0,6,,,,,,,,,5,,,66,92
62208,note_on,32,0,6,,,,,,,,,5,,,62,92
62208,note_on,8960,0,4,,,,,,,,,3,,,71,92
62208,note_on,8960,0,5,,,,,,,,,4,,,59,92
62208,note_on,32,0,8,,,,,,,,,7,,,47,92
62208,note_on,8960,0,3,,,,,,,,,2,,,71,92
62208,note_on,2,0,2,,,,,,,,,1,,,47,92
62208,note_on,32,0,1,,,,,,,,,0,,,71,92
62208,note_on,32,0,7,,,,,,,,,5,,,47,92
62302,note_on,94,0,5,,,,,,,,,4,,,59,0
62302,note_on,94,0,3,,,,,,,,,2,,,71,0
62302,note_on,94,0,2,,,,,,,,,1,,,47,0
62302,note_on,94,0,1,,,,,,,,,0,,,71,0
62302,note_on,94,0,6,,,,,,,,,5,,,62,0
62302,note_on,94,0,4,,,,,,,,,3,,,71,0
62302,note_on,0,0,6,,,,,,,,,5,,,66,0
62302,note_on,0,0,6,,,,,,,,,5,,,71,0
62302,note_on,94,0,8,,,,,,,,,7,,,47,0
62302,note_on,94,0,7,,,,,,,,,5,,,47,0
62304,note_on,2,0,1,,,,,,,,,0,,,83,92
62304,note_on,2,0,6,,,,,,,,,5,,,64,92
62304,note_on,0,0,6,,,,,,,,,5,,,67,92
62304,note_on,2,0,7,,,,,,,,,5,,,59,92
62304,note_on,2,0,2,,,,,,,,,1,,,59,92
62304,note_on,2,0,8,,,,,,,,,7,,,59,92
62304,note_on,2,0,3,,,,,,,,,2,,,83,92
62304,note_on,2,0,4,,,,,,,,,3,,,79,92
62304,note_on,2,0,5,,,,,,,,,4,,,71,92
62398,note_on,94,0,2,,,,,,,,,1,,,59,0
62398,note_on,94,0,8,,,,,,,,,7,,,59,0
62398,note_on,94,0,5,,,,,,,,,4,,,71,0
62398,note_on,94,0,7,,,,,,,,,5,,,59,0
62400,note_on,2,0,2,,,,,,,,,1,,,47,92
62400,note_on,2,0,7,,,,,,,,,5,,,47,92
62400,note_on,2,0,5,,,,,,,,,4,,,59,92
62400,note_on,2,0,8,,,,,,,,,7,,,47,92
62464,note_on,0,0,6,,,,,,,,,5,,,67,0
62464,note_on,160,0,6,,,,,,,,,5,,,64,0
62494,note_on,94,0,8,,,,,,,,,7,,,47,0
62494,note_on,94,0,7,,,,,,,,,5,,,47,0
62494,note_on,94,0,5,,,,,,,,,4,,,59,0
62494,note_on,94,0,2,,,,,,,,,1,,,47,0
62496,note_on,0,0,6,,,,,,,,,5,,,71,92
62496,note_on,0,0,6,,,,,,,,,5,,,67,92
62496,note_on,32,0,6,,,,,,,,,5,,,64,92
62496,note_on,2,0,2,,,,,,,,,1,,,47,92
62496,note_on,2,0,5,,,,,,,,,4,,,59,92
62496,note_on,2,0,7,,,,,,,,,5,,,47,92
62496,note_on,2,0,8,,,,,,,,,7,,,47,92
62590,note_on,94,0,2,,,,,,,,,1,,,47,0
62590,note_on,286,0,4,,,,,,,,,3,,,79,0
62590,note_on,286,0,3,,,,,,,,,2,,,83,0
62590,note_on,286,0,1,,,,,,,,,0,,,83,0
62590,note_on,94,0,5,,,,,,,,,4,,,59,0
62590,note_on,94,0,8,,,,,,,,,7,,,47,0
62590,note_on,94,0,7,,,,,,,,,5,,,47,0
62592,note_on,2,0,4,,,,,,,,,3,,,78,92
62592,note_on,2,0,5,,,,,,,,,4,,,71,92
62592,note_on,2,0,1,,,,,,,,,0,,,81,92
62592,note_on,2,0,7,,,,,,,,,5,,,59,92
62592,note_on,2,0,2,,,,,,,,,1,,,59,92
62592,note_on,2,0,3,,,,,,,,,2,,,81,92
62592,note_on,2,0,8,,,,,,,,,7,,,59,92
62686,note_on,94,0,2,,,,,,,,,1,,,59,0
62686,note_on,94,0,8,,,,,,,,,7,,,59,0
62686,note_on,94,0,5,,,,,,,,,4,,,71,0
62686,note_on,94,0,4,,,,,,,,,3,,,78,0
62686,note_on,94,0,1,,,,,,,,,0,,,81,0
62686,note_on,94,0,7,,,,,,,,,5,,,59,0
62686,note_on,94,0,3,,,,,,,,,2,,,81,0
62688,note_on,2,0,3,,,,,,,,,2,,,79,92
62688,note_on,2,0,7,,,,,,,,,5,,,47,92
62688,note_on,2,0,1,,,,,,,,,0,,,79,92
62688,note_on,2,0,5,,,,,,,,,4,,,59,92
62688,note_on,2,0,4,,,,,,,,,3,,,76,92
62688,note_on,2,0,2,,,,,,,,,1,,,47,92
62688,note_on,2,0,8,,,,,,,,,7,,,47,92
62752,note_on,256,0,6,,,,,,,,,5,,,64,0
62752,note_on,0,0,6,,,,,,,,,5,,,67,0
62752,note_on,0,0,6,,,,,,,,,5,,,71,0
62782,note_on,94,0,7,,,,,,,,,5,,,47,0
62782,note_on,94,0,1,,,,,,,,,0,,,79,0
62782,note_on,94,0,3,,,,,,,,,2,,,79,0
62782,note_on,94,0,4,,,,,,,,,3,,,76,0
62782,note_on,94,0,5,,,,,,,,,4,,,59,0
62782,note_on,94,0,8,,,,,,,,,7,,,47,0
62782,note_on,94,0,2,,,,,,,,,1,,,47,0
62784,note_on,32,0,6,,,,,,,,,5,,,62,92
62784,note_on,2,0,2,,,,,,,,,1,,,47,92
62784,note_on,2,0,4,,,,,,,,,3,,,74,92
62784,note_on,0,0,6,,,,,,,,,5,,,71,92
62784,note_on,0,0,6,,,,,,,,,5,,,66,92
62784,note_on,2,0,7,,,,,,,,,5,,,47,92
62784,note_on,2,0,3,,,,,,,,,2,,,78,92
62784,note_on,2,0,5,,,,,,,,,4,,,59,92
62784,note_on,2,0,8,,,,,,,,,7,,,47,92
62784,note_on,2,0,1,,,,,,,,,0,,,78,92
62878,note_on,94,0,5,,,,,,,,,4,,,59,0
62878,note_on,94,0,4,,,,,,,,,3,,,74,0
62878,note_on,0,0,6,,,,,,,,,5,,,66,0
62878,note_on,94,0,6,,,,,,,,,5,,,62,0
62878,note_on,94,0,7,,,,,,,,,5,,,47,0
62878,note_on,94,0,8,,,,,,,,,7,,,47,0
62878,note_on,94,0,1,,,,,,,,,0,,,78,0
62878,note_on,94,0,2,,,,,,,,,1,,,47,0
62878,note_on,94,0,3,,,,,,,,,2,,,78,0
62878,note_on,0,0,6,,,,,,,,,5,,,71,0
62880,note_on,2,0,7,,,,,,,,,5,,,59,92
62880,note_on,2,0,4,,,,,,,,,3,,,76,92
62880,note_on,0,0,6,,,,,,,,,5,,,67,92
62880,note_on,2,0,6,,,,,,,,,5,,,64,92
62880,note_on,2,0,5,,,,,,,,,4,,,71,92
62880,note_on,2,0,3,,,,,,,,,2,,,79,92
62880,note_on,2,0,8,,,,,,,,,7,,,59,92
62880,note_on,2,0,2,,,,,,,,,1,,,59,92
62880,note_on,2,0,1,,,,,,,,,0,,,79,92
62974,note_on,94,0,5,,,,,,,,,4,,,71,0
62974,note_on,94,0,8,,,,,,,,,7,,,59,0
62974,note_on,94,0,7,,,,,,,,,5,,,59,0
62974,note_on,94,0,2,,,,,,,,,1,,,59,0
62976,note_on,2,0,7,,,,,,,,,5,,,47,92
62976,note_on,2,0,2,,,,,,,,,1,,,47,92
62976,note_on,2,0,8,,,,,,,,,7,,,47,92
62976,note_on,2,0,5,,,,,,,,,4,,,59,92
63040,note_on,0,0,6,,,,,,,,,5,,,67,0
63040,note_on,160,0,6,,,,,,,,,5,,,64,0
63070,note_on,94,0,2,,,,,,,,,1,,,47,0
63070,note_on,94,0,7,,,,,,,,,5,,,47,0
63070,note_on,94,0,5,,,,,,,,,4,,,59,0
63070,note_on,94,0,8,,,,,,,,,7,,,47,0
63072,note_on,2,0,5,,,,,,,,,4,,,59,92
63072,note_on,2,0,7,,,,,,,,,5,,,47,92
63072,note_on,0,0,6,,,,,,,,,5,,,67,92
63072,note_on,0,0,6,,,,,,,,,5,,,71,92
63072,note_on,2,0,8,,,,,,,,,7,,,47,92
63072,note_on,2,0,2,,,,,,,,,1,,,47,92
63072,note_on,32,0,6,,,,,,,,,5,,,64,92
63166,note_on,94,0,8,,,,,,,,,7,,,47,0
63166,note_on,94,0,7,,,,,,,,,5,,,47,0
63166,note_on,94,0,5,,,,,,,,,4,,,59,0
63166,note_on,286,0,1,,,,,,,,,0,,,79,0
63166,note_on,286,0,3,,,,,,,,,2,,,79,0
63166,note_on,286,0,4,,,,,,,,,3,,,76,0
63166,note_on,94,0,2,,,,,,,,,1,,,47,0
63168,note_on,2,0,8,,,,,,,,,7,,,59,92
63168,note_on,2,0,1,,,,,,,,,0,,,78,92
63168,note_on,2,0,5,,,,,,,,,4,,,71,92
63168,note_on,2,0,3,,,,,,,,,2,,,78,92
63168,note_on,2,0,2,,,,,,,,,1,,,59,92
63168,note_on,2,0,7,,,,,,,,,5,,,59,92
63168,note_on,2,0,4,,,,,,,,,3,,,74,92
63262,note_on,94,0,2,,,,,,,,,1,,,59,0
63262,note_on,94,0,8,,,,,,,,,7,,,59,0
63262,note_on,94,0,4,,,,,,,,,3,,,74,0
63262,note_on,94,0,3,,,,,,,,,2,,,78,0
63262,note_on,94,0,5,,,,,,,,,4,,,71,0
63262,note_on,94,0,7,,,,,,,,,5,,,59,0
63262,note_on,94,0,1,,,,,,,,,0,,,78,0
63264,note_on,2,0,2,,,,,,,,,1,,,47,92
63264,note_on,2,0,4,,,,,,,,,3,,,73,92
63264,note_on,2,0,3,,,,,,,,,2,,,76,92
63264,note_on,2,0,5,,,,,,,,,4,,,59,92
63264,note_on,2,0,8,,,,,,,,,7,,,47,92
63264,note_on,2,0,1,,,,,,,,,0,,,76,92
63264,note_on,2,0,7,,,,,,,,,5,,,47,92
63328,note_on,0,0,6,,,,,,,,,5,,,67,0
63328,note_on,256,0,6,,,,,,,,,5,,,64,0
63328,note_on,0,0,6,,,,,,,,,5,,,71,0
63358,note_on,94,0,7,,,,,,,,,5,,,47,0
63358,note_on,94,0,2,,,,,,,,,1,,,47,0
63358,note_on,94,0,5,,,,,,,,,4,,,59,0
63358,note_on,94,0,4,,,,,,,,,3,,,73,0
63358,note_on,94,0,1,,,,,,,,,0,,,76,0
63358,note_on,94,0,3,,,,,,,,,2,,,76,0
63358,note_on,94,0,8,,,,,,,,,7,,,47,0
63360,note_on,2,0,3,,,,,,,,,2,,,74,92
63360,note_on,2,0,7,,,,,,,,,5,,,47,92
63360,note_on,2,0,2,,,,,,,,,1,,,47,92
63360,note_on,2,0,5,,,,,,,,,4,,,59,92
63360,note_on,0,0,6,,,,,,,,,5,,,71,92
63360,note_on,2,0,1,,,,,,,,,0,,,74,92
63360,note_on,0,0,6,,,,,,,,,5,,,66,92
63360,note_on,32,0,6,,,,,,,,,5,,,62,92
63360,note_on,2,0,8,,,,,,,,,7,,,47,92
63360,note_on,2,0,4,,,,,,,,,3,,,71,92
63454,note_on,94,0,4,,,,,,,,,3,,,71,0
63454,note_on,94,0,6,,,,,,,,,5,,,62,0
63454,note_on,94,0,8,,,,,,,,,7,,,47,0
63454,note_on,94,0,2,,,,,,,,,1,,,47,0
63454,note_on,0,0,6,,,,,,,,,5,,,66,0
63454,note_on,94,0,7,,,,,,,,,5,,,47,0
63454,note_on,94,0,1,,,,,,,,,0,,,74,0
63454,note_on,0,0,6,,,,,,,,,5,,,71,0
63454,note_on,94,0,5,,,,,,,,,4,,,59,0
63454,note_on,94,0,3,,,,,,,,,2,,,74,0
63456,note_on,2,0,2,,,,,,,,,1,,,59,92
63456,note_on,2,0,8,,,,,,,,,7,,,59,92
63456,note_on,0,0,6,,,,,,,,,5,,,67,92
63456,note_on,2,0,6,,,,,,,,,5,,,64,92
63456,note_on,2,0,7,,,,,,,,,5,,,59,92
63456,note_on,2,0,4,,,,,,,,,3,,,79,92
63456,note_on,2,0,1,,,,,,,,,0,,,83,92
63456,note_on,2,0,5,,,,,,,,,4,,,71,92
63456,note_on,2,0,3,,,,,,,,,2,,,83,92
63550,note_on,94,0,8,,,,,,,,,7,,,59,0
63550,note_on,94,0,2,,,,,,,,,1,,,59,0
63550,note_on,94,0,5,,,,,,,,,4,,,71,0
63550,note_on,94,0,7,,,,,,,,,5,,,59,0
63552,note_on,2,0,7,,,,,,,,,5,,,47,92
63552,note_on,2,0,2,,,,,,,,,1,,,47,92
63552,note_on,2,0,8,,,,,,,,,7,,,47,92
63552,note_on,2,0,5,,,,,,,,,4,,,59,92
63616,note_on,160,0,6,,,,,,,,,5,,,64,0
63616,note_on,0,0,6,,,,,,,,,5,,,67,0
63646,note_on,94,0,2,,,,,,,,,1,,,47,0
63646,note_on,94,0,7,,,,,,,,,5,,,47,0
63646,note_on,94,0,8,,,,,,,,,7,,,47,0
63646,note_on,94,0,5,,,,,,,,,4,,,59,0
63648,note_on,0,0,6,,,,,,,,,5,,,67,92
63648,note_on,2,0,8,,,,,,,,,7,,,47,92
63648,note_on,2,0,7,,,,,,,,,5,,,47,92
63648,note_on,0,0,6,,,,,,,,,5,,,71,92
63648,note_on,2,0,5,,,,,,,,,4,,,59,92
63648,note_on,32,0,6,,,,,,,,,5,,,64,92
63648,note_on,2,0,2,,,,,,,,,1,,,47,92
63742,note_on,286,0,3,,,,,,,,,2,,,83,0
63742,note_on,286,0,4,,,,,,,,,3,,,79,0
63742,note_on,94,0,7,,,,,,,,,5,,,47,0
63742,note_on,94,0,5,,,,,,,,,4,,,59,0
63742,note_on,286,0,1,,,,,,,,,0,,,83,0
63742,note_on,94,0,2,,,,,,,,,1,,,47,0
63742,note_on,94,0,8,,,,,,,,,7,,,47,0
63744,note_on,2,0,2,,,,,,,,,1,,,59,92
63744,note_on,2,0,7,,,,,,,,,5,,,59,92
63744,note_on,2,0,3,,,,,,,,,2,,,81,92
63744,note_on,2,0,4,,,,,,,,,3,,,78,92
63744,note_on,2,0,1,,,,,,,,,0,,,81,92
63744,note_on,2,0,8,,,,,,,,,7,,,59,92
63744,note_on,2,0,5,,,,,,,,,4,,,71,92
63838,note_on,94,0,7,,,,,,,,,5,,,59,0
63838,note_on,94,0,2,,,,,,,,,1,,,59,0
63838,note_on,94,0,8,,,,,,,,,7,,,59,0
63838,note_on,94,0,4,,,,,,,,,3,,,78,0
63838,note_on,94,0,3,,,,,,,,,2,,,81,0
63838,note_on,94,0,5,,,,,,,,,4,,,71,0
63838,note_on,94,0,1,,,,,,,,,0,,,81,0
63840,note_on,2,0,3,,,,,,,,,2,,,79,92
63840,note_on,2,0,7,,,,,,,,,5,,,47,92
63840,note_on,2,0,8,,,,,,,,,7,,,47,92
63840,note_on,2,0,2,,,,,,,,,1,,,47,92
63840,note_on,2,0,5,,,,,,,,,4,,,59,92
63840,note_on,2,0,4,,,,,,,,,3,,,76,92
63840,note_on,2,0,1,,,,,,,,,0,,,79,92
63904,note_on,256,0,6,,,,,,,,,5,,,64,0
63904,note_on,0,0,6,,,,,,,,,5,,,71,0
63904,note_on,0,0,6,,,,,,,,,5,,,67,0
63934,note_on,94,0,2,,,,,,,,,1,,,47,0
63934,note_on,94,0,8,,,,,,,,,7,,,47,0
63934,note_on,94,0,3,,,,,,,,,2,,,79,0
63934,note_on,94,0,5,,,,,,,,,4,,,59,0
63934,note_on,94,0,4,,,,,,,,,3,,,76,0
63934,note_on,94,0,7,,,,,,,,,5,,,47,0
63934,note_on,94,0,1,,,,,,,,,0,,,79,0
63936,note_on,2,0,8,,,,,,,,,7,,,47,92
63936,note_on,0,0,6,,,,,,,,,5,,,72,92
63936,note_on,2,0,5,,,,,,,,,4,,,59,92
63936,note_on,2,0,7,,,,,,,,,5,,,47,92
63936,note_on,2,0,2,,,,,,,,,1,,,47,92
63936,note_on,2,0,1,,,,,,,,,0,,,78,92
63936,note_on,0,0,6,,,,,,,,,5,,,66,92
63936,note_on,2,0,3,,,,,,,,,2,,,78,92
63936,note_on,2,0,4,,,,,,,,,3,,,74,92
63936,note_on,32,0,6,,,,,,,,,5,,,62,92
64030,note_on,94,0,3,,,,,,,,,2,,,78,0
64030,note_on,94,0,6,,,,,,,,,5,,,62,0
64030,note_on,0,0,6,,,,,,,,,5,,,66,0
64030,note_on,94,0,4,,,,,,,,,3,,,74,0
64030,note_on,94,0,5,,,,,,,,,4,,,59,0
64030,note_on,94,0,8,,,,,,,,,7,,,47,0
64030,note_on,94,0,7,,,,,,,,,5,,,47,0
64030,note_on,94,0,1,,,,,,,,,0,,,78,0
64030,note_on,0,0,6,,,,,,,,,5,,,72,0
64030,note_on,94,0,2,,,,,,,,,1,,,47,0
64032,note_on,2,0,5,,,,,,,,,4,,,71,92
64032,note_on,2,0,1,,,,,,,,,0,,,79,92
64032,note_on,0,0,6,,,,,,,,,5,,,67,92
64032,note_on,2,0,7,,,,,,,,,5,,,59,92
64032,note_on,2,0,6,,,,,,,,,5,,,64,92
64032,note_on,2,0,8,,,,,,,,,7,,,59,92
64032,note_on,2,0,2,,,,,,,,,1,,,59,92
64032,note_on,2,0,4,,,,,,,,,3,,,76,92
64032,note_on,2,0,3,,,,,,,,,2,,,79,92
64126,note_on,94,0,7,,,,,,,,,5,,,59,0
64126,note_on,94,0,8,,,,,,,,,7,,,59,0
64126,note_on,94,0,2,,,,,,,,,1,,,59,0
64126,note_on,94,0,5,,,,,,,,,4,,,71,0
64128,note_on,2,0,2,,,,,,,,,1,,,47,92
64128,note_on,2,0,7,,,,,,,,,5,,,47,92
64128,note_on,2,0,5,,,,,,,,,4,,,59,92
64128,note_on,2,0,8,,,,,,,,,7,,,47,92
64192,note_on,160,0,6,,,,,,,,,5,,,64,0
64192,note_on,0,0,6,,,,,,,,,5,,,67,0
64222,note_on,94,0,8,,,,,,,,,7,,,47,0
64222,note_on,94,0,2,,,,,,,,,1,,,47,0
64222,note_on,94,0,7,,,,,,,,,5,,,47,0
64222,note_on,94,0,5,,,,,,,,,4,,,59,0
64224,note_on,32,0,6,,,,,,,,,5,,,64,92
64224,note_on,2,0,2,,,,,,,,,1,,,47,92
64224,note_on,0,0,6,,,,,,,,,5,,,67,92
64224,note_on,2,0,7,,,,,,,,,5,,,47,92
64224,note_on,2,0,5,,,,,,,,,4,,,59,92
64224,note_on,2,0,8,,,,,,,,,7,,,47,92
64224,note_on,0,0,6,,,,,,,,,5,,,71,92
64318,note_on,94,0,2,,,,,,,,,1,,,47,0
64318,note_on,286,0,1,,,,,,,,,0,,,79,0
64318,note_on,94,0,5,,,,,,,,,4,,,59,0
64318,note_on,286,0,3,,,,,,,,,2,,,79,0
64318,note_on,94,0,7,,,,,,,,,5,,,47,0
64318,note_on,286,0,4,,,,,,,,,3,,,76,0
64318,note_on,94,0,8,,,,,,,,,7,,,47,0
64320,note_on,2,0,5,,,,,,,,,4,,,71,92
64320,note_on,2,0,2,,,,,,,,,1,,,59,92
64320,note_on,2,0,3,,,,,,,,,2,,,78,92
64320,note_on,2,0,4,,,,,,,,,3,,,74,92
64320,note_on,2,0,7,,,,,,,,,5,,,59,92
64320,note_on,2,0,8,,,,,,,,,7,,,59,92
64320,note_on,2,0,1,,,,,,,,,0,,,78,92
64414,note_on,94,0,3,,,,,,,,,2,,,78,0
64414,note_on,94,0,4,,,,,,,,,3,,,74,0
64414,note_on,94,0,5,,,,,,,,,4,,,71,0
64414,note_on,94,0,8,,,,,,,,,7,,,59,0
64414,note_on,94,0,7,,,,,,,,,5,,,59,0
64414,note_on,94,0,1,,,,,,,,,0,,,78,0
64414,note_on,94,0,2,,,,,,,,,1,,,59,0
64416,note_on,2,0,3,,,,,,,,,2,,,76,92
64416,note_on,2,0,4,,,,,,,,,3,,,73,92
64416,note_on,2,0,8,,,,,,,,,7,,,47,92
64416,note_on,2,0,2,,,,,,,,,1,,,47,92
64416,note_on,2,0,7,,,,,,,,,5,,,47,92
64416,note_on,2,0,5,,,,,,,,,4,,,59,92
64416,note_on,2,0,1,,,,,,,,,0,,,76,92
64480,note_on,0,0,6,,,,,,,,,5,,,67,0
64480,note_on,256,0,6,,,,,,,,,5,,,64,0
64480,note_on,0,0,6,,,,,,,,,5,,,71,0
64510,note_on,94,0,2,,,,,,,,,1,,,47,0
64510,note_on,94,0,8,,,,,,,,,7,,,47,0
64510,note_on,94,0,1,,,,,,,,,0,,,76,0
64510,note_on,94,0,7,,,,,,,,,5,,,47,0
64510,note_on,94,0,3,,,,,,,,,2,,,76,0
64510,note_on,94,0,4,,,,,,,,,3,,,73,0
64510,note_on,94,0,5,,,,,,,,,4,,,59,0
64512,note_on,2,0,5,,,,,,,,,4,,,66,92
64512,note_on,2,0,2,,,,,,,,,1,,,47,92
64512,note_on,2,0,7,,,,,,,,,5,,,47,92
64512,note_on,2,0,3,,,,,,,,,2,,,74,92
64512,note_on,2,0,4,,,,,,,,,3,,,71,92
64512,note_on,32,0,6,,,,,,,,,5,,,62,92
64512,note_on,0,0,6,,,,,,,,,5,,,66,92
64512,note_on,2,0,8,,,,,,,,,7,,,47,92
64512,note_on,0,0,6,,,,,,,,,5,,,71,92
64512,note_on,2,0,1,,,,,,,,,0,,,74,92
64560,note_on,48,0,4,,,,,,,,,3,,,71,0
64560,note_on,0,0,4,,,,,,,,,3,,,73,92
64560,note_on,0,0,3,,,,,,,,,2,,,73,92
64560,note_on,48,0,3,,,,,,,,,2,,,74,0
64560,note_on,0,0,1,,,,,,,,,0,,,73,92
64560,note_on,48,0,1,,,,,,,,,0,,,74,0
64606,note_on,94,0,8,,,,,,,,,7,,,47,0
64606,note_on,94,0,7,,,,,,,,,5,,,47,0
64606,note_on,94,0,2,,,,,,,,,1,,,47,0
64608,note_on,0,0,3,,,,,,,,,2,,,71,92
64608,note_on,2,0,2,,,,,,,,,1,,,59,92
64608,note_on,48,0,3,,,,,,,,,2,,,73,0
64608,note_on,48,0,4,,,,,,,,,3,,,73,0
64608,note_on,0,0,4,,,,,,,,,3,,,74,92
64608,note_on,0,0,1,,,,,,,,,0,,,71,92
64608,note_on,48,0,1,,,,,,,,,0,,,73,0
64608,note_on,2,0,7,,,,,,,,,5,,,59,92
64608,note_on,2,0,8,,,,,,,,,7,,,59,92
64672,note_on,160,0,6,,,,,,,,,5,,,62,0
64672,note_on,0,0,6,,,,,,,,,5,,,66,0
64672,note_on,0,0,6,,,,,,,,,5,,,71,0
64702,note_on,94,0,4,,,,,,,,,3,,,74,0
64702,note_on,94,0,1,,,,,,,,,0,,,71,0
64702,note_on,94,0,3,,,,,,,,,2,,,71,0
64702,note_on,94,0,8,,,,,,,,,7,,,59,0
64702,note_on,94,0,7,,,,,,,,,5,,,59,0
64702,note_on,94,0,2,,,,,,,,,1,,,59,0
64704,note_on,2,0,4,,,,,,,,,3,,,73,92
64704,note_on,2,0,2,,,,,,,,,1,,,58,92
64704,note_on,2,0,3,,,,,,,,,2,,,76,92
64704,note_on,32,0,6,,,,,,,,,5,,,64,92
64704,note_on,2,0,1,,,,,,,,,0,,,76,92
64704,note_on,2,0,7,,,,,,,,,5,,,58,92
64704,note_on,0,0,6,,,,,,,,,5,,,73,92
64704,note_on,0,0,6,,,,,,,,,5,,,66,92
64704,note_on,2,0,8,,,,,,,,,7,,,58,92
64768,note_on,256,0,5,,,,,,,,,4,,,66,0
64798,note_on,0,0,6,,,,,,,,,5,,,73,0
64798,note_on,94,0,3,,,,,,,,,2,,,76,0
64798,note_on,0,0,6,,,,,,,,,5,,,66,0
64798,note_on,94,0,6,,,,,,,,,5,,,64,0
64798,note_on,94,0,8,,,,,,,,,7,,,58,0
64798,note_on,94,0,1,,,,,,,,,0,,,76,0
64798,note_on,94,0,4,,,,,,,,,3,,,73,0
64798,note_on,94,0,7,,,,,,,,,5,,,58,0
64798,note_on,94,0,2,,,,,,,,,1,,,58,0
64800,note_on,2,0,1,,,,,,,,,0,,,74,92
64800,note_on,0,0,6,,,,,,,,,5,,,71,92
64800,note_on,0,0,6,,,,,,,,,5,,,66,92
64800,note_on,2,0,6,,,,,,,,,5,,,62,92
64800,note_on,2,0,7,,,,,,,,,5,,,47,92
64800,note_on,2,0,4,,,,,,,,,3,,,71,92
64800,note_on,2,0,2,,,,,,,,,1,,,47,92
64800,note_on,2,0,3,,,,,,,,,2,,,74,92
64800,note_on,32,0,5,,,,,,,,,4,,,66,92
64800,note_on,2,0,8,,,,,,,,,7,,,47,92
64848,note_on,48,0,1,,,,,,,,,0,,,74,0
64848,note_on,0,0,1,,,,,,,,,0,,,73,92
64848,note_on,48,0,4,,,,,,,,,3,,,71,0
64848,note_on,0,0,4,,,,,,,,,3,,,73,92
64848,note_on,0,0,3,,,,,,,,,2,,,73,92
64848,note_on,48,0,3,,,,,,,,,2,,,74,0
64894,note_on,94,0,8,,,,,,,,,7,,,47,0
64894,note_on,94,0,7,,,,,,,,,5,,,47,0
64894,note_on,94,0,2,,,,,,,,,1,,,47,0
64896,note_on,48,0,1,,,,,,,,,0,,,73,0
64896,note_on,0,0,1,,,,,,,,,0,,,71,92
64896,note_on,0,0,3,,,,,,,,,2,,,71,92
64896,note_on,48,0,3,,,,,,,,,2,,,73,0
64896,note_on,2,0,2,,,,,,,,,1,,,59,92
64896,note_on,48,0,4,,,,,,,,,3,,,73,0
64896,note_on,2,0,8,,,,,,,,,7,,,59,92
64896,note_on,0,0,4,,,,,,,,,3,,,74,92
64896,note_on,2,0,7,,,,,,,,,5,,,59,92
64960,note_on,0,0,6,,,,,,,,,5,,,66,0
64960,note_on,160,0,6,,,,,,,,,5,,,62,0
64960,note_on,0,0,6,,,,,,,,,5,,,71,0
64990,note_on,94,0,7,,,,,,,,,5,,,59,0
64990,note_on,94,0,2,,,,,,,,,1,,,59,0
64990,note_on,94,0,8,,,,,,,,,7,,,59,0
64990,note_on,94,0,3,,,,,,,,,2,,,71,0
64990,note_on,94,0,4,,,,,,,,,3,,,74,0
64990,note_on,94,0,1,,,,,,,,,0,,,71,0
64992,note_on,0,0,6,,,,,,,,,5,,,73,92
64992,note_on,2,0,8,,,,,,,,,7,,,58,92
64992,note_on,2,0,4,,,,,,,,,3,,,73,92
64992,note_on,2,0,7,,,,,,,,,5,,,58,92
64992,note_on,2,0,3,,,,,,,,,2,,,76,92
64992,note_on,0,0,6,,,,,,,,,5,,,66,92
64992,note_on,32,0,6,,,,,,,,,5,,,64,92
64992,note_on,2,0,2,,,,,,,,,1,,,58,92
64992,note_on,2,0,1,,,,,,,,,0,,,76,92
65056,note_on,256,0,5,,,,,,,,,4,,,66,0
65086,note_on,94,0,3,,,,,,,,,2,,,76,0
65086,note_on,94,0,8,,,,,,,,,7,,,58,0
65086,note_on,0,0,6,,,,,,,,,5,,,73,0
65086,note_on,94,0,7,,,,,,,,,5,,,58,0
65086,note_on,94,0,2,,,,,,,,,1,,,58,0
65086,note_on,94,0,4,,,,,,,,,3,,,73,0
65086,note_on,0,0,6,,,,,,,,,5,,,66,0
65086,note_on,94,0,6,,,,,,,,,5,,,64,0
65086,note_on,94,0,1,,,,,,,,,0,,,76,0
65088,note_on,2,0,1,,,,,,,,,0,,,74,92
65088,note_on,2,0,8,,,,,,,,,7,,,47,92
65088,note_on,2,0,2,,,,,,,,,1,,,47,92
65088,note_on,2,0,4,,,,,,,,,3,,,71,92
65088,note_on,0,0,6,,,,,,,,,5,,,71,92
65088,note_on,2,0,7,,,,,,,,,5,,,47,92
65088,note_on,2,0,6,,,,,,,,,5,,,62,92
65088,note_on,0,0,6,,,,,,,,,5,,,66,92
65088,note_on,32,0,5,,,,,,,,,4,,,66,92
65088,note_on,2,0,3,,,,,,,,,2,,,74,92
65136,note_on,48,0,3,,,,,,,,,2,,,74,0
65136,note_on,0,0,3,,,,,,,,,2,,,73,92
65136,note_on,0,0,4,,,,,,,,,3,,,73,92
65136,note_on,48,0,4,,,,,,,,,3,,,71,0
65136,note_on,0,0,1,,,,,,,,,0,,,73,92
65136,note_on,48,0,1,,,,,,,,,0,,,74,0
65182,note_on,94,0,8,,,,,,,,,7,,,47,0
65182,note_on,94,0,2,,,,,,,,,1,,,47,0
65182,note_on,94,0,7,,,,,,,,,5,,,47,0
65184,note_on,0,0,4,,,,,,,,,3,,,74,92
65184,note_on,48,0,4,,,,,,,,,3,,,73,0
65184,note_on,2,0,8,,,,,,,,,7,,,59,92
65184,note_on,2,0,2,,,,,,,,,1,,,59,92
65184,note_on,2,0,7,,,,,,,,,5,,,59,92
65184,note_on,48,0,1,,,,,,,,,0,,,73,0
65184,note_on,0,0,1,,,,,,,,,0,,,71,92
65184,note_on,48,0,3,,,,,,,,,2,,,73,0
65184,note_on,0,0,3,,,,,,,,,2,,,71,92
65248,note_on,160,0,6,,,,,,,,,5,,,62,0
65248,note_on,0,0,6,,,,,,,,,5,,,66,0
65248,note_on,0,0,6,,,,,,,,,5,,,71,0
65278,note_on,94,0,8,,,,,,,,,7,,,59,0
65278,note_on,94,0,1,,,,,,,,,0,,,71,0
65278,note_on,94,0,4,,,,,,,,,3,,,74,0
65278,note_on,94,0,3,,,,,,,,,2,,,71,0
65278,note_on,94,0,7,,,,,,,,,5,,,59,0
65278,note_on,94,0,2,,,,,,,,,1,,,59,0
65280,note_on,0,0,6,,,,,,,,,5,,,66,92
65280,note_on,2,0,8,,,,,,,,,7,,,47,92
65280,note_on,2,0,3,,,,,,,,,2,,,83,92
65280,note_on,0,0,6,,,,,,,,,5,,,71,92
65280,note_on,2,0,4,,,,,,,,,3,,,71,92
65280,note_on,2,0,2,,,,,,,,,1,,,47,92
65280,note_on,2,0,1,,,,,,,,,0,,,83,92
65280,note_on,2,0,7,,,,,,,,,5,,,47,92
65280,note_on,32,0,6,,,,,,,,,5,,,62,92
65344,note_on,256,0,5,,,,,,,,,4,,,66,0
65374,note_on,94,0,6,,,,,,,,,5,,,62,0
65374,note_on,0,0,6,,,,,,,,,5,,,71,0
65374,note_on,0,0,6,,,,,,,,,5,,,66,0
65374,note_on,94,0,8,,,,,,,,,7,,,47,0
65374,note_on,94,0,4,,,,,,,,,3,,,71,0
65374,note_on,94,0,1,,,,,,,,,0,,,83,0
65374,note_on,94,0,2,,,,,,,,,1,,,47,0
65374,note_on,94,0,3,,,,,,,,,2,,,83,0
65374,note_on,94,0,7,,,,,,,,,5,,,47,0
65376,note_on,2,0,8,,,,,,,,,7,,,48,92
65376,note_on,2,0,4,,,,,,,,,3,,,71,92
65376,note_on,0,0,6,,,,,,,,,5,,,71,92
65376,note_on,0,0,6,,,,,,,,,5,,,66,92
65376,note_on,2,0,6,,,,,,,,,5,,,62,92
65376,note_on,2,0,2,,,,,,,,,1,,,47,92
65376,note_on,2,0,7,,,,,,,,,5,,,48,92
65376,note_on,2,0,3,,,,,,,,,2,,,74,92
65376,note_on,2,0,1,,,,,,,,,0,,,74,92
65376,note_on,32,0,5,,,,,,,,,4,,,66,92
65470,note_on,94,0,3,,,,,,,,,2,,,74,0
65470,note_on,94,0,6,,,,,,,,,5,,,62,0
65470,note_on,94,0,8,,,,,,,,,7,,,48,0
65470,note_on,94,0,2,,,,,,,,,1,,,47,0
65470,note_on,0,0,6,,,,,,,,,5,,,66,0
65470,note_on,94,0,5,,,,,,,,,4,,,66,0
65470,note_on,94,0,4,,,,,,,,,3,,,71,0
65470,note_on,94,0,7,,,,,,,,,5,,,48,0
65470,note_on,94,0,1,,,,,,,,,0,,,74,0
65470,note_on,0,0,6,,,,,,,,,5,,,71,0
65472,note_on,2,0,8,,,,,,,,,7,,,52,92
65472,note_on,2,0,7,,,,,,,,,5,,,52,92
65472,note_on,2,0,1,,,,,,,,,0,,,76,92
65472,note_on,2,0,4,,,,,,,,,3,,,73,92
65472,note_on,0,0,6,,,,,,,,,5,,,67,92
65472,note_on,2,0,3,,,,,,,,,2,,,76,92
65472,note_on,0,0,6,,,,,,,,,5,,,73,92
65472,note_on,2,0,2,,,,,,,,,1,,,52,92
65472,note_on,2,0,6,,,,,,,,,5,,,64,92
65472,note_on,2,0,5,,,,,,,,,4,,,67,92
65566,note_on,0,0,6,,,,,,,,,5,,,73,0
65566,note_on,0,0,6,,,,,,,,,5,,,67,0
65566,note_on,94,0,4,,,,,,,,,3,,,73,0
65566,note_on,94,0,1,,,,,,,,,0,,,76,0
65566,note_on,94,0,8,,,,,,,,,7,,,52,0
65566,note_on,94,0,6,,,,,,,,,5,,,64,0
65566,note_on,94,0,3,,,,,,,,,2,,,76,0
65566,note_on,94,0,7,,,,,,,,,5,,,52,0
65566,note_on,94,0,5,,,,,,,,,4,,,67,0
65566,note_on,94,0,2,,,,,,,,,1,,,52,0
65568,note_on,2,0,3,,,,,,,,,2,,,73,92
65568,note_on,0,0,6,,,,,,,,,5,,,70,92
65568,note_on,2,0,8,,,,,,,,,7,,,54,92
65568,note_on,2,0,7,,,,,,,,,5,,,54,92
65568,note_on,2,0,5,,,,,,,,,4,,,66,92
65568,note_on,2,0,2,,,,,,,,,1,,,54,92
65568,note_on,2,0,1,,,,,,,,,0,,,73,92
65568,note_on,0,0,6,,,,,,,,,5,,,66,92
65568,note_on,2,0,6,,,,,,,,,5,,,61,92
65568,note_on,2,0,4,,,,,,,,,3,,,70,92
65662,note_on,0,0,6,,,,,,,,,5,,,70,0
65662,note_on,0,0,6,,,,,,,,,5,,,66,0
65662,note_on,94,0,1,,,,,,,,,0,,,73,0
65662,note_on,94,0,3,,,,,,,,,2,,,73,0
65662,note_on,94,0,6,,,,,,,,,5,,,61,0
65662,note_on,94,0,4,,,,,,,,,3,,,70,0
65662,note_on,94,0,2,,,,,,,,,1,,,54,0
65662,note_on,94,0,7,,,,,,,,,5,,,54,0
65662,note_on,94,0,8,,,,,,,,,7,,,54,0
65662,note_on,94,0,5,,,,,,,,,4,,,66,0
65664,note_on,2,0,6,,,,,,,,,5,,,62,92
65664,note_on,2,0,8,,,,,,,,,7,,,47,92
65664,note_on,2,0,1,,,,,,,,,0,,,71,92
65664,note_on,2,0,5,,,,,,,,,4,,,66,92
65664,note_on,2,0,4,,,,,,,,,3,,,71,92
65664,note_on,0,0,6,,,,,,,,,5,,,71,92
65664,note_on,2,0,2,,,,,,,,,1,,,47,92
65664,note_on,2,0,3,,,,,,,,,2,,,71,92
65664,note_on,2,0,7,,,,,,,,,5,,,47,92
65664,note_on,0,0,6,,,,,,,,,5,,,66,92
65920,note_on,256,0,6,,,,,,,,,5,,,62,0
65920,note_on,256,0,4,,,,,,,,,3,,,71,0
65920,note_on,256,0,8,,,,,,,,,7,,,47,0
65920,note_on,256,0,2,,,,,,,,,1,,,47,0
65920,note_on,256,0,3,,,,,,,,,2,,,71,0
65920,note_on,256,0,1,,,,,,,,,0,,,71,0
65920,note_on,256,0,7,,,,,,,,,5,,,47,0
65920,note_on,0,0,6,,,,,,,,,5,,,71,0
65920,note_on,0,0,6,,,,,,,,,5,,,66,0
65920,note_on,256,0,5,,,,,,,,,4,,,66,0
66144,note_on,224,0,1,,,,,,,,,0,,,74,108
66238,note_on,94,0,1,,,,,,,,,0,,,74,0
66240,note_on,2,0,1,,,,,,,,,0,,,79,108
66336,note_on,96,0,1,,,,,,,,,0,,,79,0
66336,note_on,0,0,1,,,,,,,,,0,,,78,108
66432,note_on,96,0,1,,,,,,,,,0,,,78,0
66432,note_on,0,0,1,,,,,,,,,0,,,79,108
66526,note_on,94,0,1,,,,,,,,,0,,,79,0
66528,note_on,2,0,1,,,,,,,,,0,,,79,108
66624,note_on,96,0,1,,,,,,,,,0,,,79,0
66624,note_on,0,0,1,,,,,,,,,0,,,78,108
66720,note_on,800,0,2,,,,,,,,,1,,,43,108
66720,note_on,800,0,7,,,,,,,,,5,,,43,45
66720,note_on,0,0,6,,,,,,,,,5,,,71,45
66720,note_on,0,0,6,,,,,,,,,5,,,67,45
66720,note_on,0,0,1,,,,,,,,,0,,,79,108
66720,note_on,96,0,1,,,,,,,,,0,,,78,0
66720,note_on,800,0,8,,,,,,,,,7,,,43,45
66720,note_on,800,0,6,,,,,,,,,5,,,62,45
66814,note_on,94,0,1,,,,,,,,,0,,,79,0
66814,note_on,94,0,6,,,,,,,,,5,,,62,0
66814,note_on,0,0,6,,,,,,,,,5,,,71,0
66814,note_on,94,0,2,,,,,,,,,1,,,43,0
66814,note_on,0,0,6,,,,,,,,,5,,,67,0
66814,note_on,94,0,7,,,,,,,,,5,,,43,0
66814,note_on,94,0,8,,,,,,,,,7,,,43,0
66816,note_on,0,0,6,,,,,,,,,5,,,71,45
66816,note_on,2,0,1,,,,,,,,,0,,,79,108
66816,note_on,2,0,7,,,,,,,,,5,,,55,45
66816,note_on,2,0,8,,,,,,,,,7,,,55,45
66816,note_on,2,0,6,,,,,,,,,5,,,62,45
66816,note_on,2,0,2,,,,,,,,,1,,,55,108
66816,note_on,0,0,6,,,,,,,,,5,,,67,45
66912,note_on,0,0,2,,,,,,,,,1,,,54,108
66912,note_on,96,0,2,,,,,,,,,1,,,55,0
67008,note_on,0,0,2,,,,,,,,,1,,,55,108
67008,note_on,96,0,2,,,,,,,,,1,,,54,0
67072,note_on,256,0,6,,,,,,,,,5,,,62,0
67072,note_on,256,0,7,,,,,,,,,5,,,55,0
67072,note_on,256,0,8,,,,,,,,,7,,,55,0
67072,note_on,0,0,6,,,,,,,,,5,,,67,0
67072,note_on,0,0,6,,,,,,,,,5,,,71,0
67102,note_on,94,0,2,,,,,,,,,1,,,55,0
67104,note_on,32,0,6,,,,,,,,,5,,,62,45
67104,note_on,0,0,6,,,,,,,,,5,,,71,45
67104,note_on,32,0,7,,,,,,,,,5,,,55,45
67104,note_on,32,0,8,,,,,,,,,7,,,55,45
67104,note_on,2,0,2,,,,,,,,,1,,,55,108
67104,note_on,0,0,6,,,,,,,,,5,,,67,45
67200,note_on,0,0,2,,,,,,,,,1,,,54,108
67200,note_on,96,0,2,,,,,,,,,1,,,55,0
67264,note_on,448,0,1,,,,,,,,,0,,,79,0
67296,note_on,32,0,1,,,,,,,,,0,,,83,108
67296,note_on,0,0,2,,,,,,,,,1,,,55,108
67296,note_on,96,0,2,,,,,,,,,1,,,54,0
67360,note_on,256,0,6,,,,,,,,,5,,,62,0
67360,note_on,256,0,7,,,,,,,,,5,,,55,0
67360,note_on,0,0,6,,,,,,,,,5,,,67,0
67360,note_on,0,0,6,,,,,,,,,5,,,71,0
67360,note_on,256,0,8,,,,,,,,,7,,,55,0
67390,note_on,94,0,1,,,,,,,,,0,,,83,0
67390,note_on,94,0,2,,,,,,,,,1,,,55,0
67392,note_on,0,0,6,,,,,,,,,5,,,66,45
67392,note_on,0,0,6,,,,,,,,,5,,,69,45
67392,note_on,32,0,6,,,,,,,,,5,,,62,45
67392,note_on,32,0,8,,,,,,,,,7,,,50,45
67392,note_on,2,0,2,,,,,,,,,1,,,50,108
67392,note_on,32,0,7,,,,,,,,,5,,,50,45
67392,note_on,2,0,1,,,,,,,,,0,,,81,108
67488,note_on,96,0,1,,,,,,,,,0,,,81,0
67488,note_on,0,0,1,,,,,,,,,0,,,79,108
67584,note_on,0,0,1,,,,,,,,,0,,,78,108
67584,note_on,96,0,1,,,,,,,,,0,,,79,0
67648,note_on,0,0,6,,,,,,,,,5,,,69,0
67648,note_on,256,0,2,,,,,,,,,1,,,50,0
67648,note_on,256,0,6,,,,,,,,,5,,,62,0
67648,note_on,0,0,6,,,,,,,,,5,,,66,0
67648,note_on,256,0,8,,,,,,,,,7,,,50,0
67648,note_on,256,0,7,,,,,,,,,5,,,50,0
67678,note_on,94,0,1,,,,,,,,,0,,,78,0
67680,note_on,2,0,1,,,,,,,,,0,,,76,108
67680,note_on,32,0,2,,,,,,,,,1,,,54,108
67680,note_on,32,0,8,,,,,,,,,7,,,54,45
67680,note_on,32,0,7,,,,,,,,,5,,,54,45
67680,note_on,32,0,6,,,,,,,,,5,,,62,45
67680,note_on,0,0,6,,,,,,,,,5,,,69,45
67680,note_on,0,0,6,,,,,,,,,5,,,72,45
67774,note_on,94,0,1,,,,,,,,,0,,,76,0
67776,note_on,2,0,1,,,,,,,,,0,,,74,108
67870,note_on,94,0,1,,,,,,,,,0,,,74,0
67872,note_on,2,0,1,,,,,,,,,0,,,72,108
67936,note_on,0,0,6,,,,,,,,,5,,,72,0
67936,note_on,256,0,2,,,,,,,,,1,,,54,0
67936,note_on,0,0,6,,,,,,,,,5,,,69,0
67936,note_on,256,0,6,,,,,,,,,5,,,62,0
67936,note_on,256,0,8,,,,,,,,,7,,,54,0
67936,note_on,256,0,7,,,,,,,,,5,,,54,0
67966,note_on,94,0,1,,,,,,,,,0,,,72,0
67968,note_on,32,0,2,,,,,,,,,1,,,55,108
67968,note_on,32,0,7,,,,,,,,,5,,,55,45
67968,note_on,32,0,8,,,,,,,,,7,,,55,45
67968,note_on,2,0,1,,,,,,,,,0,,,72,108
67968,note_on,32,0,6,,,,,,,,,5,,,62,45
67968,note_on,0,0,6,,,,,,,,,5,,,72,45
67968,note_on,0,0,6,,,,,,,,,5,,,67,45
68062,note_on,94,0,2,,,,,,,,,1,,,55,0
68064,note_on,2,0,2,,,,,,,,,1,,,43,108
68128,note_on,160,0,6,,,,,,,,,5,,,62,0
68128,note_on,160,0,1,,,,,,,,,0,,,72,0
68128,note_on,0,0,6,,,,,,,,,5,,,67,0
68128,note_on,0,0,6,,,,,,,,,5,,,72,0
68158,note_on,94,0,2,,,,,,,,,1,,,43,0
68160,note_on,32,0,1,,,,,,,,,0,,,71,108
68160,note_on,0,0,6,,,,,,,,,5,,,71,45
68160,note_on,32,0,6,,,,,,,,,5,,,62,45
68160,note_on,2,0,2,,,,,,,,,1,,,55,108
68224,note_on,256,0,8,,,,,,,,,7,,,55,0
68224,note_on,256,0,7,,,,,,,,,5,,,55,0
68254,note_on,94,0,1,,,,,,,,,0,,,71,0
68254,note_on,94,0,2,,,,,,,,,1,,,55,0
68254,note_on,0,0,6,,,,,,,,,5,,,71,0
68254,note_on,94,0,6,,,,,,,,,5,,,62,0
68256,note_on,32,0,7,,,,,,,,,5,,,55,45
68256,note_on,2,0,2,,,,,,,,,1,,,55,108
68256,note_on,32,0,8,,,,,,,,,7,,,55,45
68256,note_on,2,0,6,,,,,,,,,5,,,62,45
68256,note_on,0,0,6,,,,,,,,,5,,,67,45
68256,note_on,0,0,6,,,,,,,,,5,,,71,45
68350,note_on,94,0,2,,,,,,,,,1,,,55,0
68352,note_on,2,0,2,,,,,,,,,1,,,43,108
68416,note_on,160,0,6,,,,,,,,,5,,,62,0
68416,note_on,160,0,8,,,,,,,,,7,,,55,0
68416,note_on,160,0,7,,,,,,,,,5,,,55,0
68416,note_on,0,0,6,,,,,,,,,5,,,71,0
68416,note_on,0,0,6,,,,,,,,,5,,,67,0
68446,note_on,94,0,2,,,,,,,,,1,,,43,0
68448,note_on,2,0,2,,,,,,,,,1,,,60,108
68448,note_on,32,0,8,,,,,,,,,7,,,60,45
68448,note_on,0,0,6,,,,,,,,,5,,,72,45
68448,note_on,194,0,1,,,,,,,,,0,,,76,108
68448,note_on,32,0,7,,,,,,,,,5,,,60,45
68448,note_on,32,0,6,,,,,,,,,5,,,64,45
68448,note_on,0,0,6,,,,,,,,,5,,,67,45
68542,note_on,94,0,1,,,,,,,,,0,,,76,0
68542,note_on,94,0,7,,,,,,,,,5,,,60,0
68542,note_on,94,0,8,,,,,,,,,7,,,60,0
68542,note_on,94,0,2,,,,,,,,,1,,,60,0
68542,note_on,0,0,6,,,,,,,,,5,,,72,0
68542,note_on,94,0,6,,,,,,,,,5,,,64,0
68542,note_on,0,0,6,,,,,,,,,5,,,67,0
68544,note_on,2,0,7,,,,,,,,,5,,,59,45
68544,note_on,2,0,1,,,,,,,,,0,,,74,108
68544,note_on,2,0,8,,,,,,,,,7,,,59,45
68544,note_on,0,0,6,,,,,,,,,5,,,74,45
68544,note_on,0,0,6,,,,,,,,,5,,,67,45
68544,note_on,2,0,6,,,,,,,,,5,,,62,45
68544,note_on,2,0,2,,,,,,,,,1,,,59,108
68638,note_on,94,0,2,,,,,,,,,1,,,59,0
68640,note_on,2,0,2,,,,,,,,,1,,,43,108
68734,note_on,94,0,2,,,,,,,,,1,,,43,0
68736,note_on,2,0,2,,,,,,,,,1,,,59,108
68800,note_on,0,0,6,,,,,,,,,5,,,74,0
68800,note_on,256,0,6,,,,,,,,,5,,,62,0
68800,note_on,256,0,8,,,,,,,,,7,,,59,0
68800,note_on,256,0,1,,,,,,,,,0,,,74,0
68800,note_on,256,0,7,,,,,,,,,5,,,59,0
68800,note_on,0,0,6,,,,,,,,,5,,,67,0
68830,note_on,94,0,2,,,,,,,,,1,,,59,0
68832,note_on,0,0,6,,,,,,,,,5,,,66,45
68832,note_on,32,0,6,,,,,,,,,5,,,60,45
68832,note_on,32,0,1,,,,,,,,,0,,,72,108
68832,note_on,32,0,7,,,,,,,,,5,,,57,45
68832,note_on,2,0,2,,,,,,,,,1,,,57,108
68832,note_on,32,0,8,,,,,,,,,7,,,57,45
68926,note_on,94,0,2,,,,,,,,,1,,,57,0
68928,note_on,2,0,2,,,,,,,,,1,,,43,108
69022,note_on,94,0,2,,,,,,,,,1,,,43,0
69024,note_on,2,0,2,,,,,,,,,1,,,57,108
69088,note_on,256,0,8,,,,,,,,,7,,,57,0
69088,note_on,256,0,7,,,,,,,,,5,,,57,0
69088,note_on,256,0,1,,,,,,,,,0,,,72,0
69088,note_on,0,0,6,,,,,,,,,5,,,66,0
69088,note_on,256,0,6,,,,,,,,,5,,,60,0
69118,note_on,94,0,2,,,,,,,,,1,,,57,0
69120,note_on,0,0,6,,,,,,,,,5,,,67,45
69120,note_on,32,0,7,,,,,,,,,5,,,55,45
69120,note_on,32,0,6,,,,,,,,,5,,,59,45
69120,note_on,32,0,1,,,,,,,,,0,,,71,108
69120,note_on,0,0,6,,,,,,,,,5,,,62,45
69120,note_on,32,0,8,,,,,,,,,7,,,55,45
69120,note_on,2,0,2,,,,,,,,,1,,,55,108
69166,note_on,46,0,1,,,,,,,,,0,,,71,0
69168,note_on,2,0,1,,,,,,,,,0,,,69,108
69214,note_on,46,0,1,,,,,,,,,0,,,69,0
69214,note_on,94,0,2,,,,,,,,,1,,,55,0
69216,note_on,2,0,2,,,,,,,,,1,,,43,108
69216,note_on,2,0,1,,,,,,,,,0,,,67,108
69310,note_on,94,0,1,,,,,,,,,0,,,67,0
69310,note_on,94,0,2,,,,,,,,,1,,,43,0
69312,note_on,2,0,2,,,,,,,,,1,,,55,108
69376,note_on,0,0,6,,,,,,,,,5,,,67,0
69376,note_on,256,0,7,,,,,,,,,5,,,55,0
69376,note_on,0,0,6,,,,,,,,,5,,,62,0
69376,note_on,256,0,8,,,,,,,,,7,,,55,0
69376,note_on,256,0,6,,,,,,,,,5,,,59,0
69406,note_on,94,0,2,,,,,,,,,1,,,55,0
69408,note_on,32,0,7,,,,,,,,,5,,,55,45
69408,note_on,0,0,6,,,,,,,,,5,,,71,45
69408,note_on,0,0,6,,,,,,,,,5,,,67,45
69408,note_on,32,0,8,,,,,,,,,7,,,55,45
69408,note_on,2,0,2,,,,,,,,,1,,,55,45
69408,note_on,32,0,6,,,,,,,,,5,,,62,45
69502,note_on,94,0,2,,,,,,,,,1,,,55,0
69504,note_on,2,0,2,,,,,,,,,1,,,43,45
69568,note_on,0,0,6,,,,,,,,,5,,,67,0
69568,note_on,160,0,6,,,,,,,,,5,,,62,0
69568,note_on,160,0,8,,,,,,,,,7,,,55,0
69568,note_on,0,0,6,,,,,,,,,5,,,71,0
69568,note_on,160,0,7,,,,,,,,,5,,,55,0
69598,note_on,94,0,2,,,,,,,,,1,,,43,0
69600,note_on,290,0,1,,,,,,,,,0,,,76,45
69600,note_on,0,0,6,,,,,,,,,5,,,67,45
69600,note_on,32,0,8,,,,,,,,,7,,,60,45
69600,note_on,2,0,2,,,,,,,,,1,,,60,45
69600,note_on,32,0,6,,,,,,,,,5,,,64,45
69600,note_on,32,0,7,,,,,,,,,5,,,60,45
69694,note_on,94,0,6,,,,,,,,,5,,,64,0
69694,note_on,94,0,2,,,,,,,,,1,,,60,0
69694,note_on,94,0,7,,,,,,,,,5,,,60,0
69694,note_on,94,0,1,,,,,,,,,0,,,76,0
69694,note_on,0,0,6,,,,,,,,,5,,,67,0
69694,note_on,94,0,8,,,,,,,,,7,,,60,0
69696,note_on,2,0,1,,,,,,,,,0,,,74,45
69696,note_on,0,0,6,,,,,,,,,5,,,67,45
69696,note_on,2,0,7,,,,,,,,,5,,,59,45
69696,note_on,2,0,2,,,,,,,,,1,,,59,45
69696,note_on,2,0,6,,,,,,,,,5,,,62,45
69696,note_on,2,0,8,,,,,,,,,7,,,59,45
69696,note_on,0,0,6,,,,,,,,,5,,,74,45
69790,note_on,94,0,2,,,,,,,,,1,,,59,0
69792,note_on,2,0,2,,,,,,,,,1,,,43,45
69886,note_on,94,0,2,,,,,,,,,1,,,43,0
69888,note_on,2,0,2,,,,,,,,,1,,,59,45
69952,note_on,0,0,6,,,,,,,,,5,,,74,0
69952,note_on,0,0,6,,,,,,,,,5,,,67,0
69952,note_on,256,0,6,,,,,,,,,5,,,62,0
69952,note_on,256,0,8,,,,,,,,,7,,,59,0
69952,note_on,256,0,1,,,,,,,,,0,,,74,0
69952,note_on,256,0,7,,,,,,,,,5,,,59,0
69982,note_on,94,0,2,,,,,,,,,1,,,59,0
69984,note_on,32,0,1,,,,,,,,,0,,,72,45
69984,note_on,0,0,6,,,,,,,,,5,,,66,45
69984,note_on,32,0,8,,,,,,,,,7,,,57,45
69984,note_on,32,0,6,,,,,,,,,5,,,60,45
69984,note_on,32,0,7,,,,,,,,,5,,,57,45
69984,note_on,2,0,2,,,,,,,,,1,,,57,45
70078,note_on,94,0,2,,,,,,,,,1,,,57,0
70080,note_on,2,0,2,,,,,,,,,1,,,43,45
70174,note_on,94,0,2,,,,,,,,,1,,,43,0
70176,note_on,2,0,2,,,,,,,,,1,,,57,45
70240,note_on,0,0,6,,,,,,,,,5,,,66,0
70240,note_on,256,0,6,,,,,,,,,5,,,60,0
70240,note_on,256,0,1,,,,,,,,,0,,,72,0
70240,note_on,256,0,8,,,,,,,,,7,,,57,0
70240,note_on,256,0,7,,,,,,,,,5,,,57,0
70270,note_on,94,0,2,,,,,,,,,1,,,57,0
70272,note_on,0,0,6,,,,,,,,,5,,,62,45
70272,note_on,0,0,6,,,,,,,,,5,,,67,45
70272,note_on,32,0,1,,,,,,,,,0,,,71,45
70272,note_on,32,0,8,,,,,,,,,7,,,55,45
70272,note_on,32,0,7,,,,,,,,,5,,,55,45
70272,note_on,2,0,2,,,,,,,,,1,,,55,45
70272,note_on,32,0,6,,,,,,,,,5,,,59,45
70318,note_on,46,0,1,,,,,,,,,0,,,71,0
70320,note_on,2,0,1,,,,,,,,,0,,,69,45
70366,note_on,94,0,2,,,,,,,,,1,,,55,0
70366,note_on,46,0,1,,,,,,,,,0,,,69,0
70368,note_on,2,0,2,,,,,,,,,1,,,43,45
70368,note_on,2,0,1,,,,,,,,,0,,,67,45
70462,note_on,94,0,2,,,,,,,,,1,,,43,0
70462,note_on,94,0,1,,,,,,,,,0,,,67,0
70464,note_on,2,0,2,,,,,,,,,1,,,55,45
70528,note_on,256,0,8,,,,,,,,,7,,,55,0
70528,note_on,0,0,6,,,,,,,,,5,,,67,0
70528,note_on,0,0,6,,,,,,,,,5,,,62,0
70528,note_on,256,0,6,,,,,,,,,5,,,59,0
70528,note_on,256,0,7,,,,,,,,,5,,,55,0
70558,note_on,94,0,2,,,,,,,,,1,,,55,0
70560,note_on,2,0,2,,,,,,,,,1,,,55,92
70560,note_on,0,0,6,,,,,,,,,5,,,62,45
70560,note_on,0,0,6,,,,,,,,,5,,,67,45
70560,note_on,32,0,8,,,,,,,,,7,,,55,45
70560,note_on,32,0,6,,,,,,,,,5,,,59,45
70560,note_on,32,0,7,,,,,,,,,5,,,55,45
70654,note_on,94,0,2,,,,,,,,,1,,,55,0
70656,note_on,2,0,2,,,,,,,,,1,,,43,92
70750,note_on,94,0,2,,,,,,,,,1,,,43,0
70752,note_on,290,0,1,,,,,,,,,0,,,74,92
70752,note_on,2,0,2,,,,,,,,,1,,,55,92
70816,note_on,0,0,6,,,,,,,,,5,,,67,0
70816,note_on,256,0,8,,,,,,,,,7,,,55,0
70816,note_on,0,0,6,,,,,,,,,5,,,62,0
70816,note_on,256,0,7,,,,,,,,,5,,,55,0
70816,note_on,256,0,6,,,,,,,,,5,,,59,0
70846,note_on,94,0,2,,,,,,,,,1,,,55,0
70846,note_on,94,0,1,,,,,,,,,0,,,74,0
70848,note_on,2,0,2,,,,,,,,,1,,,59,92
70848,note_on,2,0,1,,,,,,,,,0,,,79,92
70848,note_on,32,0,8,,,,,,,,,7,,,59,45
70848,note_on,32,0,7,,,,,,,,,5,,,59,45
70848,note_on,0,0,6,,,,,,,,,5,,,74,45
70848,note_on,0,0,6,,,,,,,,,5,,,67,45
70848,note_on,32,0,6,,,,,,,,,5,,,62,45
70944,note_on,0,0,1,,,,,,,,,0,,,78,92
70944,note_on,96,0,1,,,,,,,,,0,,,79,0
71040,note_on,96,0,1,,,,,,,,,0,,,78,0
71040,note_on,0,0,1,,,,,,,,,0,,,79,92
71104,note_on,0,0,6,,,,,,,,,5,,,67,0
71104,note_on,256,0,8,,,,,,,,,7,,,59,0
71104,note_on,256,0,6,,,,,,,,,5,,,62,0
71104,note_on,0,0,6,,,,,,,,,5,,,74,0
71104,note_on,256,0,2,,,,,,,,,1,,,59,0
71104,note_on,256,0,7,,,,,,,,,5,,,59,0
71134,note_on,94,0,1,,,,,,,,,0,,,79,0
71136,note_on,2,0,1,,,,,,,,,0,,,77,92
71136,note_on,32,0,2,,,,,,,,,1,,,55,92
71136,note_on,32,0,7,,,,,,,,,5,,,55,45
71136,note_on,0,0,6,,,,,,,,,5,,,67,45
71136,note_on,32,0,6,,,,,,,,,5,,,65,45
71136,note_on,32,0,8,,,,,,,,,7,,,55,45
71136,note_on,0,0,6,,,,,,,,,5,,,71,45
71230,note_on,94,0,1,,,,,,,,,0,,,77,0
71232,note_on,2,0,1,,,,,,,,,0,,,76,92
71326,note_on,94,0,1,,,,,,,,,0,,,76,0
71328,note_on,2,0,1,,,,,,,,,0,,,77,92
71392,note_on,256,0,8,,,,,,,,,7,,,55,0
71392,note_on,256,0,6,,,,,,,,,5,,,65,0
71392,note_on,0,0,6,,,,,,,,,5,,,67,0
71392,note_on,0,0,6,,,,,,,,,5,,,71,0
71392,note_on,256,0,2,,,,,,,,,1,,,55,0
71392,note_on,256,0,7,,,,,,,,,5,,,55,0
71422,note_on,94,0,1,,,,,,,,,0,,,77,0
71424,note_on,2,0,1,,,,,,,,,0,,,76,92
71424,note_on,32,0,7,,,,,,,,,5,,,60,45
71424,note_on,32,0,2,,,,,,,,,1,,,60,92
71424,note_on,0,0,6,,,,,,,,,5,,,72,45
71424,note_on,0,0,6,,,,,,,,,5,,,67,45
71424,note_on,32,0,6,,,,,,,,,5,,,64,45
71424,note_on,32,0,8,,,,,,,,,7,,,60,45
71518,note_on,94,0,1,,,,,,,,,0,,,76,0
71520,note_on,2,0,1,,,,,,,,,0,,,72,92
71584,note_on,160,0,8,,,,,,,,,7,,,60,0
71584,note_on,160,0,2,,,,,,,,,1,,,60,0
71584,note_on,160,0,7,,,,,,,,,5,,,60,0
71584,note_on,0,0,6,,,,,,,,,5,,,72,0
71584,note_on,0,0,6,,,,,,,,,5,,,67,0
71584,note_on,160,0,6,,,,,,,,,5,,,64,0
71614,note_on,94,0,1,,,,,,,,,0,,,72,0
71616,note_on,2,0,1,,,,,,,,,0,,,74,92
71710,note_on,94,0,1,,,,,,,,,0,,,74,0
71712,note_on,0,0,6,,,,,,,,,5,,,72,45
71712,note_on,0,0,6,,,,,,,,,5,,,67,45
71712,note_on,2,0,1,,,,,,,,,0,,,76,92
71712,note_on,128,0,2,,,,,,,,,1,,,48,92
71712,note_on,128,0,7,,,,,,,,,5,,,48,45
71712,note_on,128,0,8,,,,,,,,,7,,,48,45
71712,note_on,128,0,6,,,,,,,,,5,,,64,45
71806,note_on,94,0,1,,,,,,,,,0,,,76,0
71808,note_on,2,0,1,,,,,,,,,0,,,78,92
71872,note_on,160,0,2,,,,,,,,,1,,,48,0
71872,note_on,160,0,7,,,,,,,,,5,,,48,0
71872,note_on,160,0,8,,,,,,,,,7,,,48,0
71872,note_on,0,0,6,,,,,,,,,5,,,72,0
71872,note_on,0,0,6,,,,,,,,,5,,,67,0
71872,note_on,160,0,6,,,,,,,,,5,,,64,0
71902,note_on,94,0,1,,,,,,,,,0,,,78,0
71904,note_on,2,0,1,,,,,,,,,0,,,79,92
71998,note_on,94,0,1,,,,,,,,,0,,,79,0
72000,note_on,128,0,7,,,,,,,,,5,,,61,45
72000,note_on,0,0,6,,,,,,,,,5,,,76,45
72000,note_on,128,0,6,,,,,,,,,5,,,69,45
72000,note_on,2,0,1,,,,,,,,,0,,,81,92
72000,note_on,128,0,8,,,,,,,,,7,,,61,45
72000,note_on,128,0,2,,,,,,,,,1,,,61,92
72096,note_on,96,0,1,,,,,,,,,0,,,81,0
72096,note_on,0,0,1,,,,,,,,,0,,,79,92
72192,note_on,0,0,1,,,,,,,,,0,,,81,92
72192,note_on,96,0,1,,,,,,,,,0,,,79,0
72256,note_on,256,0,7,,,,,,,,,5,,,61,0
72256,note_on,256,0,8,,,,,,,,,7,,,61,0
72256,note_on,0,0,6,,,,,,,,,5,,,76,0
72256,note_on,256,0,6,,,,,,,,,5,,,69,0
72256,note_on,256,0,2,,,,,,,,,1,,,61,0
72286,note_on,94,0,1,,,,,,,,,0,,,81,0
72288,note_on,32,0,6,,,,,,,,,5,,,67,45
72288,note_on,32,0,7,,,,,,,,,5,,,57,45
72288,note_on,32,0,8,,,,,,,,,7,,,57,45
72288,note_on,0,0,6,,,,,,,,,5,,,73,45
72288,note_on,0,0,6,,,,,,,,,5,,,69,45
72288,note_on,2,0,1,,,,,,,,,0,,,79,92
72288,note_on,32,0,2,,,,,,,,,1,,,57,92
72382,note_on,94,0,1,,,,,,,,,0,,,79,0
72384,note_on,2,0,1,,,,,,,,,0,,,78,92
72478,note_on,94,0,1,,,,,,,,,0,,,78,0
72480,note_on,2,0,1,,,,,,,,,0,,,79,92
72544,note_on,256,0,6,,,,,,,,,5,,,67,0
72544,note_on,0,0,6,,,,,,,,,5,,,73,0
72544,note_on,256,0,2,,,,,,,,,1,,,57,0
72544,note_on,0,0,6,,,,,,,,,5,,,69,0
72544,note_on,256,0,7,,,,,,,,,5,,,57,0
72544,note_on,256,0,8,,,,,,,,,7,,,57,0
72574,note_on,94,0,1,,,,,,,,,0,,,79,0
72576,note_on,32,0,8,,,,,,,,,7,,,62,45
72576,note_on,32,0,2,,,,,,,,,1,,,62,92
72576,note_on,32,0,6,,,,,,,,,5,,,66,45
72576,note_on,0,0,6,,,,,,,,,5,,,69,45
72576,note_on,2,0,1,,,,,,,,,0,,,78,92
72576,note_on,0,0,6,,,,,,,,,5,,,74,45
72576,note_on,32,0,7,,,,,,,,,5,,,62,45
72670,note_on,94,0,1,,,,,,,,,0,,,78,0
72672,note_on,2,0,1,,,,,,,,,0,,,74,92
72736,note_on,0,0,6,,,,,,,,,5,,,74,0
72736,note_on,160,0,7,,,,,,,,,5,,,62,0
72736,note_on,160,0,2,,,,,,,,,1,,,62,0
72736,note_on,160,0,6,,,,,,,,,5,,,66,0
72736,note_on,0,0,6,,,,,,,,,5,,,69,0
72736,note_on,160,0,8,,,,,,,,,7,,,62,0
72766,note_on,94,0,1,,,,,,,,,0,,,74,0
72768,note_on,2,0,1,,,,,,,,,0,,,76,92
72862,note_on,94,0,1,,,,,,,,,0,,,76,0
72864,note_on,128,0,6,,,,,,,,,5,,,66,45
72864,note_on,0,0,6,,,,,,,,,5,,,69,45
72864,note_on,2,0,1,,,,,,,,,0,,,78,92
72864,note_on,128,0,2,,,,,,,,,1,,,50,92
72864,note_on,128,0,7,,,,,,,,,5,,,50,45
72864,note_on,0,0,6,,,,,,,,,5,,,74,45
72864,note_on,128,0,8,,,,,,,,,7,,,50,45
72958,note_on,94,0,1,,,,,,,,,0,,,78,0
72960,note_on,2,0,1,,,,,,,,,0,,,79,92
73024,note_on,0,0,6,,,,,,,,,5,,,74,0
73024,note_on,160,0,8,,,,,,,,,7,,,50,0
73024,note_on,160,0,7,,,,,,,,,5,,,50,0
73024,note_on,0,0,6,,,,,,,,,5,,,69,0
73024,note_on,160,0,2,,,,,,,,,1,,,50,0
73024,note_on,160,0,6,,,,,,,,,5,,,66,0
73054,note_on,94,0,1,,,,,,,,,0,,,79,0
73056,note_on,2,0,1,,,,,,,,,0,,,81,92
73150,note_on,94,0,1,,,,,,,,,0,,,81,0
73152,note_on,128,0,2,,,,,,,,,1,,,63,92
73152,note_on,128,0,6,,,,,,,,,5,,,69,45
73152,note_on,0,0,6,,,,,,,,,5,,,71,45
73152,note_on,0,0,6,,,,,,,,,5,,,78,45
73152,note_on,2,0,1,,,,,,,,,0,,,83,92
73152,note_on,128,0,7,,,,,,,,,5,,,63,45
73152,note_on,128,0,8,,,,,,,,,7,,,63,45
73246,note_on,94,0,1,,,,,,,,,0,,,83,0
73248,note_on,2,0,1,,,,,,,,,0,,,81,92
73342,note_on,94,0,1,,,,,,,,,0,,,81,0
73344,note_on,2,0,1,,,,,,,,,0,,,83,92
73408,note_on,256,0,7,,,,,,,,,5,,,63,0
73408,note_on,256,0,2,,,,,,,,,1,,,63,0
73408,note_on,256,0,6,,,,,,,,,5,,,69,0
73408,note_on,256,0,8,,,,,,,,,7,,,63,0
73408,note_on,0,0,6,,,,,,,,,5,,,78,0
73408,note_on,0,0,6,,,,,,,,,5,,,71,0
73438,note_on,94,0,1,,,,,,,,,0,,,83,0
73440,note_on,32,0,7,,,,,,,,,5,,,59,45
73440,note_on,32,0,8,,,,,,,,,7,,,59,45
73440,note_on,32,0,6,,,,,,,,,5,,,69,45
73440,note_on,0,0,6,,,,,,,,,5,,,71,45
73440,note_on,0,0,6,,,,,,,,,5,,,75,45
73440,note_on,2,0,1,,,,,,,,,0,,,81,92
73440,note_on,32,0,2,,,,,,,,,1,,,59,92
73534,note_on,94,0,1,,,,,,,,,0,,,81,0
73536,note_on,2,0,1,,,,,,,,,0,,,79,92
73630,note_on,94,0,1,,,,,,,,,0,,,79,0
73632,note_on,2,0,1,,,,,,,,,0,,,81,92
73696,note_on,256,0,6,,,,,,,,,5,,,69,0
73696,note_on,0,0,6,,,,,,,,,5,,,71,0
73696,note_on,0,0,6,,,,,,,,,5,,,75,0
73696,note_on,256,0,8,,,,,,,,,7,,,59,0
73696,note_on,256,0,7,,,,,,,,,5,,,59,0
73696,note_on,256,0,2,,,,,,,,,1,,,59,0
73726,note_on,94,0,1,,,,,,,,,0,,,81,0
73728,note_on,32,0,8,,,,,,,,,7,,,64,45
73728,note_on,32,0,6,,,,,,,,,5,,,67,45
73728,note_on,32,0,7,,,,,,,,,5,,,64,45
73728,note_on,0,0,6,,,,,,,,,5,,,71,45
73728,note_on,2,0,1,,,,,,,,,0,,,79,92
73728,note_on,32,0,2,,,,,,,,,1,,,64,92
73728,note_on,0,0,6,,,,,,,,,5,,,76,45
73822,note_on,94,0,1,,,,,,,,,0,,,79,0
73824,note_on,2,0,1,,,,,,,,,0,,,76,92
73888,note_on,160,0,2,,,,,,,,,1,,,64,0
73888,note_on,160,0,8,,,,,,,,,7,,,64,0
73888,note_on,160,0,7,,,,,,,,,5,,,64,0
73888,note_on,160,0,6,,,,,,,,,5,,,67,0
73888,note_on,0,0,6,,,,,,,,,5,,,76,0
73888,note_on,0,0,6,,,,,,,,,5,,,71,0
73918,note_on,94,0,1,,,,,,,,,0,,,76,0
73920,note_on,2,0,1,,,,,,,,,0,,,78,92
74014,note_on,94,0,1,,,,,,,,,0,,,78,0
74016,note_on,0,0,6,,,,,,,,,5,,,76,45
74016,note_on,0,0,6,,,,,,,,,5,,,71,45
74016,note_on,128,0,6,,,,,,,,,5,,,67,45
74016,note_on,2,0,1,,,,,,,,,0,,,79,92
74016,note_on,128,0,7,,,,,,,,,5,,,52,45
74016,note_on,128,0,2,,,,,,,,,1,,,52,92
74016,note_on,128,0,8,,,,,,,,,7,,,52,45
74110,note_on,94,0,1,,,,,,,,,0,,,79,0
74112,note_on,2,0,1,,,,,,,,,0,,,81,92
74176,note_on,0,0,6,,,,,,,,,5,,,76,0
74176,note_on,160,0,8,,,,,,,,,7,,,52,0
74176,note_on,160,0,2,,,,,,,,,1,,,52,0
74176,note_on,160,0,6,,,,,,,,,5,,,67,0
74176,note_on,0,0,6,,,,,,,,,5,,,71,0
74176,note_on,160,0,7,,,,,,,,,5,,,52,0
74206,note_on,94,0,1,,,,,,,,,0,,,81,0
74208,note_on,2,0,1,,,,,,,,,0,,,83,92
74302,note_on,94,0,1,,,,,,,,,0,,,83,0
74304,note_on,0,0,6,,,,,,,,,5,,,69,45
74304,note_on,128,0,7,,,,,,,,,5,,,57,45
74304,note_on,128,0,8,,,,,,,,,7,,,57,45
74304,note_on,128,0,2,,,,,,,,,1,,,57,92
74304,note_on,2,0,1,,,,,,,,,0,,,72,92
74304,note_on,128,0,6,,,,,,,,,5,,,64,45
74304,note_on,0,0,6,,,,,,,,,5,,,72,45
74398,note_on,94,0,2,,,,,,,,,1,,,57,0
74400,note_on,2,0,2,,,,,,,,,1,,,60,92
74494,note_on,94,0,2,,,,,,,,,1,,,60,0
74496,note_on,2,0,2,,,,,,,,,1,,,59,92
74590,note_on,94,0,2,,,,,,,,,1,,,59,0
74592,note_on,2,0,2,,,,,,,,,1,,,57,92
74686,note_on,94,0,2,,,,,,,,,1,,,57,0
74688,note_on,2,0,2,,,,,,,,,1,,,54,92
74782,note_on,94,0,2,,,,,,,,,1,,,54,0
74784,note_on,2,0,2,,,,,,,,,1,,,52,92
74832,note_on,528,0,8,,,,,,,,,7,,,57,0
74832,note_on,0,0,6,,,,,,,,,5,,,69,0
74832,note_on,0,0,6,,,,,,,,,5,,,72,0
74832,note_on,528,0,7,,,,,,,,,5,,,57,0
74832,note_on,528,0,6,,,,,,,,,5,,,64,0
74878,note_on,94,0,2,,,,,,,,,1,,,52,0
74880,note_on,2,0,2,,,,,,,,,1,,,50,92
74880,note_on,48,0,6,,,,,,,,,5,,,62,45
74880,note_on,0,0,6,,,,,,,,,5,,,66,45
74880,note_on,0,0,6,,,,,,,,,5,,,72,45
74880,note_on,48,0,7,,,,,,,,,5,,,50,45
74880,note_on,48,0,8,,,,,,,,,7,,,50,45
74974,note_on,670,0,1,,,,,,,,,0,,,72,0
74976,note_on,2,0,1,,,,,,,,,0,,,74,92
75070,note_on,94,0,1,,,,,,,,,0,,,74,0
75072,note_on,2,0,1,,,,,,,,,0,,,76,92
75136,note_on,256,0,2,,,,,,,,,1,,,50,0
75166,note_on,94,0,1,,,,,,,,,0,,,76,0
75168,note_on,2,0,1,,,,,,,,,0,,,78,92
75262,note_on,94,0,1,,,,,,,,,0,,,78,0
75264,note_on,2,0,1,,,,,,,,,0,,,79,92
75358,note_on,94,0,1,,,,,,,,,0,,,79,0
75360,note_on,2,0,1,,,,,,,,,0,,,81,92
75408,note_on,0,0,6,,,,,,,,,5,,,72,0
75408,note_on,0,0,6,,,,,,,,,5,,,66,0
75408,note_on,528,0,6,,,,,,,,,5,,,62,0
75408,note_on,528,0,8,,,,,,,,,7,,,50,0
75408,note_on,528,0,7,,,,,,,,,5,,,50,0
75454,note_on,94,0,1,,,,,,,,,0,,,81,0
75456,note_on,320,0,2,,,,,,,,,1,,,55,92
75456,note_on,2,0,1,,,,,,,,,0,,,71,92
75456,note_on,48,0,8,,,,,,,,,7,,,55,45
75456,note_on,48,0,6,,,,,,,,,5,,,62,45
75456,note_on,0,0,6,,,,,,,,,5,,,67,45
75456,note_on,48,0,7,,,,,,,,,5,,,55,45
75456,note_on,0,0,6,,,,,,,,,5,,,71,45
75550,note_on,94,0,2,,,,,,,,,1,,,55,0
75552,note_on,2,0,2,,,,,,,,,1,,,59,92
75646,note_on,94,0,2,,,,,,,,,1,,,59,0
75648,note_on,2,0,2,,,,,,,,,1,,,57,92
75742,note_on,94,0,2,,,,,,,,,1,,,57,0
75744,note_on,2,0,2,,,,,,,,,1,,,55,92
75838,note_on,94,0,2,,,,,,,,,1,,,55,0
75840,note_on,2,0,2,,,,,,,,,1,,,52,92
75934,note_on,94,0,2,,,,,,,,,1,,,52,0
75936,note_on,2,0,2,,,,,,,,,1,,,50,92
75984,note_on,0,0,6,,,,,,,,,5,,,67,0
75984,note_on,0,0,6,,,,,,,,,5,,,71,0
75984,note_on,528,0,8,,,,,,,,,7,,,55,0
75984,note_on,528,0,6,,,,,,,,,5,,,62,0
75984,note_on,528,0,7,,,,,,,,,5,,,55,0
76030,note_on,94,0,2,,,,,,,,,1,,,50,0
76032,note_on,48,0,6,,,,,,,,,5,,,64,45
76032,note_on,0,0,6,,,,,,,,,5,,,71,45
76032,note_on,2,0,2,,,,,,,,,1,,,48,92
76032,note_on,48,0,8,,,,,,,,,7,,,48,45
76032,note_on,48,0,7,,,,,,,,,5,,,48,45
76126,note_on,670,0,1,,,,,,,,,0,,,71,0
76128,note_on,2,0,1,,,,,,,,,0,,,72,92
76222,note_on,94,0,1,,,,,,,,,0,,,72,0
76224,note_on,2,0,1,,,,,,,,,0,,,74,92
76288,note_on,256,0,7,,,,,,,,,5,,,48,0
76288,note_on,0,0,6,,,,,,,,,5,,,71,0
76288,note_on,256,0,2,,,,,,,,,1,,,48,0
76288,note_on,256,0,6,,,,,,,,,5,,,64,0
76288,note_on,256,0,8,,,,,,,,,7,,,48,0
76318,note_on,94,0,1,,,,,,,,,0,,,74,0
76320,note_on,32,0,2,,,,,,,,,1,,,49,92
76320,note_on,32,0,6,,,,,,,,,5,,,64,45
76320,note_on,0,0,6,,,,,,,,,5,,,67,45
76320,note_on,0,0,6,,,,,,,,,5,,,69,45
76320,note_on,32,0,8,,,,,,,,,7,,,49,45
76320,note_on,2,0,1,,,,,,,,,0,,,76,92
76320,note_on,32,0,7,,,,,,,,,5,,,49,45
76414,note_on,94,0,1,,,,,,,,,0,,,76,0
76416,note_on,2,0,1,,,,,,,,,0,,,78,92
76510,note_on,94,0,1,,,,,,,,,0,,,78,0
76512,note_on,2,0,1,,,,,,,,,0,,,79,92
76576,note_on,256,0,7,,,,,,,,,5,,,49,0
76576,note_on,0,0,6,,,,,,,,,5,,,69,0
76576,note_on,0,0,6,,,,,,,,,5,,,67,0
76576,note_on,256,0,6,,,,,,,,,5,,,64,0
76576,note_on,256,0,2,,,,,,,,,1,,,49,0
76576,note_on,256,0,8,,,,,,,,,7,,,49,0
76606,note_on,94,0,1,,,,,,,,,0,,,79,0
76608,note_on,2,0,1,,,,,,,,,0,,,69,92
76608,note_on,32,0,7,,,,,,,,,5,,,50,45
76608,note_on,0,0,6,,,,,,,,,5,,,69,45
76608,note_on,0,0,6,,,,,,,,,5,,,66,45
76608,note_on,32,0,6,,,,,,,,,5,,,62,45
76608,note_on,32,0,2,,,,,,,,,1,,,50,92
76608,note_on,32,0,8,,,,,,,,,7,,,50,45
76702,note_on,94,0,2,,,,,,,,,1,,,50,0
76704,note_on,2,0,2,,,,,,,,,1,,,45,92
76798,note_on,94,0,2,,,,,,,,,1,,,45,0
76800,note_on,2,0,2,,,,,,,,,1,,,42,92
76864,note_on,256,0,7,,,,,,,,,5,,,50,0
76864,note_on,256,0,6,,,,,,,,,5,,,62,0
76864,note_on,0,0,6,,,,,,,,,5,,,66,0
76864,note_on,0,0,6,,,,,,,,,5,,,69,0
76864,note_on,256,0,1,,,,,,,,,0,,,69,0
76864,note_on,256,0,8,,,,,,,,,7,,,50,0
76894,note_on,94,0,2,,,,,,,,,1,,,42,0
76896,note_on,32,0,6,,,,,,,,,5,,,62,45
76896,note_on,0,0,6,,,,,,,,,5,,,66,45
76896,note_on,0,0,6,,,,,,,,,5,,,69,45
76896,note_on,32,0,8,,,,,,,,,7,,,38,45
76896,note_on,2,0,2,,,,,,,,,1,,,38,92
76896,note_on,32,0,7,,,,,,,,,5,,,38,45
77056,note_on,160,0,7,,,,,,,,,5,,,38,0
77056,note_on,160,0,8,,,,,,,,,7,,,38,0
77056,note_on,0,0,6,,,,,,,,,5,,,69,0
77056,note_on,0,0,6,,,,,,,,,5,,,66,0
77056,note_on,160,0,6,,,,,,,,,5,,,62,0
77056,note_on,160,0,2,,,,,,,,,1,,,38,0
77088,note_on,224,0,1,,,,,,,,,0,,,74,92
77088,note_on,32,0,8,,,,,,,,,7,,,59,45
77088,note_on,32,0,2,,,,,,,,,1,,,59,92
77088,note_on,0,0,6,,,,,,,,,5,,,67,45
77088,note_on,32,0,6,,,,,,,,,5,,,62,45
77088,note_on,32,0,7,,,,,,,,,5,,,59,45
77182,note_on,94,0,8,,,,,,,,,7,,,59,0
77182,note_on,94,0,7,,,,,,,,,5,,,59,0
77182,note_on,94,0,1,,,,,,,,,0,,,74,0
77182,note_on,94,0,6,,,,,,,,,5,,,62,0
77182,note_on,0,0,6,,,,,,,,,5,,,67,0
77182,note_on,94,0,2,,,,,,,,,1,,,59,0
77184,note_on,2,0,1,,,,,,,,,0,,,72,92
77184,note_on,0,0,6,,,,,,,,,5,,,66,45
77184,note_on,2,0,6,,,,,,,,,5,,,60,45
77184,note_on,2,0,8,,,,,,,,,7,,,57,45
77184,note_on,2,0,7,,,,,,,,,5,,,57,45
77184,note_on,2,0,2,,,,,,,,,1,,,57,92
77280,note_on,96,0,2,,,,,,,,,1,,,57,0
77280,note_on,0,0,2,,,,,,,,,1,,,55,92
77376,note_on,96,0,2,,,,,,,,,1,,,55,0
77376,note_on,0,0,2,,,,,,,,,1,,,57,92
77440,note_on,256,0,7,,,,,,,,,5,,,57,0
77440,note_on,256,0,8,,,,,,,,,7,,,57,0
77440,note_on,256,0,6,,,,,,,,,5,,,60,0
77440,note_on,0,0,6,,,,,,,,,5,,,66,0
77440,note_on,256,0,1,,,,,,,,,0,,,72,0
77470,note_on,94,0,2,,,,,,,,,1,,,57,0
77472,note_on,0,0,6,,,,,,,,,5,,,62,45
77472,note_on,32,0,8,,,,,,,,,7,,,55,45
77472,note_on,32,0,6,,,,,,,,,5,,,59,45
77472,note_on,32,0,7,,,,,,,,,5,,,55,45
77472,note_on,2,0,2,,,,,,,,,1,,,55,92
77472,note_on,32,0,1,,,,,,,,,0,,,71,92
77472,note_on,0,0,6,,,,,,,,,5,,,67,45
77568,note_on,0,0,2,,,,,,,,,1,,,54,92
77568,note_on,96,0,2,,,,,,,,,1,,,55,0
77664,note_on,96,0,2,,,,,,,,,1,,,54,0
77664,note_on,0,0,2,,,,,,,,,1,,,55,92
77728,note_on,256,0,1,,,,,,,,,0,,,71,0
77728,note_on,256,0,7,,,,,,,,,5,,,55,0
77728,note_on,0,0,6,,,,,,,,,5,,,67,0
77728,note_on,256,0,8,,,,,,,,,7,,,55,0
77728,note_on,0,0,6,,,,,,,,,5,,,62,0
77728,note_on,256,0,6,,,,,,,,,5,,,59,0
77758,note_on,94,0,2,,,,,,,,,1,,,55,0
77760,note_on,2,0,2,,,,,,,,,1,,,50,92
77760,note_on,32,0,1,,,,,,,,,0,,,69,92
77760,note_on,32,0,8,,,,,,,,,7,,,50,45
77760,note_on,32,0,6,,,,,,,,,5,,,57,45
77760,note_on,0,0,6,,,,,,,,,5,,,62,45
77760,note_on,0,0,6,,,,,,,,,5,,,66,45
77760,note_on,32,0,7,,,,,,,,,5,,,50,45
77854,note_on,94,0,2,,,,,,,,,1,,,50,0
77856,note_on,2,0,2,,,,,,,,,1,,,45,92
77950,note_on,94,0,2,,,,,,,,,1,,,45,0
77952,note_on,2,0,2,,,,,,,,,1,,,42,92
78016,note_on,256,0,6,,,,,,,,,5,,,57,0
78016,note_on,0,0,6,,,,,,,,,5,,,62,0
78016,note_on,0,0,6,,,,,,,,,5,,,66,0
78016,note_on,256,0,1,,,,,,,,,0,,,69,0
78016,note_on,256,0,8,,,,,,,,,7,,,50,0
78016,note_on,256,0,7,,,,,,,,,5,,,50,0
78046,note_on,94,0,2,,,,,,,,,1,,,42,0
78048,note_on,2,0,2,,,,,,,,,1,,,38,92
78048,note_on,32,0,8,,,,,,,,,7,,,38,45
78048,note_on,0,0,6,,,,,,,,,5,,,66,45
78048,note_on,32,0,7,,,,,,,,,5,,,38,45
78048,note_on,32,0,6,,,,,,,,,5,,,57,45
78048,note_on,0,0,6,,,,,,,,,5,,,62,45
78208,note_on,0,0,6,,,,,,,,,5,,,62,0
78208,note_on,160,0,6,,,,,,,,,5,,,57,0
78208,note_on,0,0,6,,,,,,,,,5,,,66,0
78208,note_on,160,0,7,,,,,,,,,5,,,38,0
78208,note_on,160,0,2,,,,,,,,,1,,,38,0
78208,note_on,160,0,8,,,,,,,,,7,,,38,0
78240,note_on,224,0,1,,,,,,,,,0,,,74,45
78240,note_on,32,0,8,,,,,,,,,7,,,59,45
78240,note_on,32,0,6,,,,,,,,,5,,,62,45
78240,note_on,32,0,7,,,,,,,,,5,,,59,45
78240,note_on,32,0,2,,,,,,,,,1,,,59,45
78240,note_on,0,0,6,,,,,,,,,5,,,67,45
78334,note_on,94,0,6,,,,,,,,,5,,,62,0
78334,note_on,0,0,6,,,,,,,,,5,,,67,0
78334,note_on,94,0,1,,,,,,,,,0,,,74,0
78334,note_on,94,0,8,,,,,,,,,7,,,59,0
78334,note_on,94,0,7,,,,,,,,,5,,,59,0
78334,note_on,94,0,2,,,,,,,,,1,,,59,0
78336,note_on,2,0,1,,,,,,,,,0,,,72,45
78336,note_on,2,0,7,,,,,,,,,5,,,57,45
78336,note_on,0,0,6,,,,,,,,,5,,,66,45
78336,note_on,2,0,8,,,,,,,,,7,,,57,45
78336,note_on,2,0,2,,,,,,,,,1,,,57,45
78336,note_on,2,0,6,,,,,,,,,5,,,60,45
78432,note_on,96,0,2,,,,,,,,,1,,,57,0
78432,note_on,0,0,2,,,,,,,,,1,,,55,45
78528,note_on,96,0,2,,,,,,,,,1,,,55,0
78528,note_on,0,0,2,,,,,,,,,1,,,57,45
78592,note_on,256,0,7,,,,,,,,,5,,,57,0
78592,note_on,256,0,6,,,,,,,,,5,,,60,0
78592,note_on,0,0,6,,,,,,,,,5,,,66,0
78592,note_on,256,0,1,,,,,,,,,0,,,72,0
78592,note_on,256,0,8,,,,,,,,,7,,,57,0
78622,note_on,94,0,2,,,,,,,,,1,,,57,0
78624,note_on,32,0,8,,,,,,,,,7,,,55,45
78624,note_on,32,0,7,,,,,,,,,5,,,55,45
78624,note_on,32,0,1,,,,,,,,,0,,,71,45
78624,note_on,2,0,2,,,,,,,,,1,,,55,45
78624,note_on,0,0,6,,,,,,,,,5,,,62,45
78624,note_on,32,0,6,,,,,,,,,5,,,59,45
78624,note_on,0,0,6,,,,,,,,,5,,,67,45
78720,note_on,96,0,2,,,,,,,,,1,,,55,0
78720,note_on,0,0,2,,,,,,,,,1,,,54,45
78816,note_on,96,0,2,,,,,,,,,1,,,54,0
78816,note_on,0,0,2,,,,,,,,,1,,,55,45
78880,note_on,256,0,8,,,,,,,,,7,,,55,0
78880,note_on,0,0,6,,,,,,,,,5,,,67,0
78880,note_on,256,0,6,,,,,,,,,5,,,59,0
78880,note_on,256,0,7,,,,,,,,,5,,,55,0
78880,note_on,256,0,1,,,,,,,,,0,,,71,0
78880,note_on,0,0,6,,,,,,,,,5,,,62,0
78910,note_on,94,0,2,,,,,,,,,1,,,55,0
78912,note_on,2,0,2,,,,,,,,,1,,,50,45
78912,note_on,32,0,6,,,,,,,,,5,,,57,45
78912,note_on,32,0,1,,,,,,,,,0,,,69,45
78912,note_on,0,0,6,,,,,,,,,5,,,62,45
78912,note_on,0,0,6,,,,,,,,,5,,,66,45
78912,note_on,32,0,7,,,,,,,,,5,,,50,45
78912,note_on,32,0,8,,,,,,,,,7,,,50,45
79006,note_on,94,0,2,,,,,,,,,1,,,50,0
79008,note_on,2,0,2,,,,,,,,,1,,,45,45
79102,note_on,94,0,2,,,,,,,,,1,,,45,0
79104,note_on,2,0,2,,,,,,,,,1,,,42,45
79168,note_on,256,0,8,,,,,,,,,7,,,50,0
79168,note_on,0,0,6,,,,,,,,,5,,,62,0
79168,note_on,256,0,1,,,,,,,,,0,,,69,0
79168,note_on,256,0,7,,,,,,,,,5,,,50,0
79168,note_on,0,0,6,,,,,,,,,5,,,66,0
79168,note_on,256,0,6,,,,,,,,,5,,,57,0
79198,note_on,94,0,2,,,,,,,,,1,,,42,0
79200,note_on,32,0,7,,,,,,,,,5,,,38,45
79200,note_on,0,0,6,,,,,,,,,5,,,66,45
79200,note_on,32,0,8,,,,,,,,,7,,,38,45
79200,note_on,0,0,6,,,,,,,,,5,,,62,45
79200,note_on,32,0,6,,,,,,,,,5,,,57,45
79200,note_on,2,0,2,,,,,,,,,1,,,38,45
79360,note_on,160,0,2,,,,,,,,,1,,,38,0
79360,note_on,160,0,8,,,,,,,,,7,,,38,0
79360,note_on,0,0,6,,,,,,,,,5,,,66,0
79360,note_on,0,0,6,,,,,,,,,5,,,62,0
79360,note_on,160,0,6,,,,,,,,,5,,,57,0
79360,note_on,160,0,7,,,,,,,,,5,,,38,0
79392,note_on,0,0,6,,,,,,,,,5,,,74,45
79392,note_on,0,0,6,,,,,,,,,5,,,67,45
79392,note_on,32,0,6,,,,,,,,,5,,,62,45
79392,note_on,224,0,1,,,,,,,,,0,,,74,92
79392,note_on,32,0,7,,,,,,,,,5,,,59,45
79392,note_on,32,0,2,,,,,,,,,1,,,59,92
79392,note_on,32,0,8,,,,,,,,,7,,,59,45
79486,note_on,0,0,6,,,,,,,,,5,,,67,0
79486,note_on,94,0,2,,,,,,,,,1,,,59,0
79486,note_on,0,0,6,,,,,,,,,5,,,74,0
79486,note_on,94,0,1,,,,,,,,,0,,,74,0
79486,note_on,94,0,8,,,,,,,,,7,,,59,0
79486,note_on,94,0,6,,,,,,,,,5,,,62,0
79486,note_on,94,0,7,,,,,,,,,5,,,59,0
79488,note_on,2,0,8,,,,,,,,,7,,,60,45
79488,note_on,2,0,2,,,,,,,,,1,,,60,92
79488,note_on,0,0,6,,,,,,,,,5,,,72,45
79488,note_on,0,0,6,,,,,,,,,5,,,67,45
79488,note_on,2,0,6,,,,,,,,,5,,,64,45
79488,note_on,2,0,1,,,,,,,,,0,,,76,92
79488,note_on,2,0,7,,,,,,,,,5,,,60,45
79584,note_on,0,0,2,,,,,,,,,1,,,59,92
79584,note_on,96,0,2,,,,,,,,,1,,,60,0
79680,note_on,0,0,2,,,,,,,,,1,,,60,92
79680,note_on,96,0,2,,,,,,,,,1,,,59,0
79744,note_on,0,0,6,,,,,,,,,5,,,72,0
79744,note_on,256,0,6,,,,,,,,,5,,,64,0
79744,note_on,0,0,6,,,,,,,,,5,,,67,0
79744,note_on,256,0,7,,,,,,,,,5,,,60,0
79744,note_on,256,0,8,,,,,,,,,7,,,60,0
79774,note_on,94,0,2,,,,,,,,,1,,,60,0
79776,note_on,32,0,7,,,,,,,,,5,,,60,45
79776,note_on,2,0,2,,,,,,,,,1,,,60,92
79776,note_on,32,0,8,,,,,,,,,7,,,60,45
79776,note_on,32,0,6,,,,,,,,,5,,,64,45
79776,note_on,0,0,6,,,,,,,,,5,,,67,45
79776,note_on,0,0,6,,,,,,,,,5,,,72,45
79872,note_on,96,0,2,,,,,,,,,1,,,60,0
79872,note_on,0,0,2,,,,,,,,,1,,,59,92
79968,note_on,96,0,2,,,,,,,,,1,,,59,0
79968,note_on,0,0,2,,,,,,,,,1,,,60,92
80032,note_on,256,0,8,,,,,,,,,7,,,60,0
80032,note_on,0,0,6,,,,,,,,,5,,,67,0
80032,note_on,256,0,6,,,,,,,,,5,,,64,0
80032,note_on,256,0,7,,,,,,,,,5,,,60,0
80032,note_on,0,0,6,,,,,,,,,5,,,72,0
80062,note_on,94,0,2,,,,,,,,,1,,,60,0
80064,note_on,32,0,7,,,,,,,,,5,,,48,45
80064,note_on,0,0,6,,,,,,,,,5,,,72,45
80064,note_on,32,0,6,,,,,,,,,5,,,64,45
80064,note_on,0,0,6,,,,,,,,,5,,,67,45
80064,note_on,32,0,8,,,,,,,,,7,,,48,45
80064,note_on,2,0,2,,,,,,,,,1,,,48,92
80158,note_on,670,0,1,,,,,,,,,0,,,76,0
80160,note_on,2,0,1,,,,,,,,,0,,,79,92
80254,note_on,94,0,1,,,,,,,,,0,,,79,0
80256,note_on,2,0,1,,,,,,,,,0,,,78,92
80320,note_on,256,0,2,,,,,,,,,1,,,48,0
80320,note_on,256,0,7,,,,,,,,,5,,,48,0
80320,note_on,256,0,8,,,,,,,,,7,,,48,0
80320,note_on,0,0,6,,,,,,,,,5,,,67,0
80320,note_on,256,0,6,,,,,,,,,5,,,64,0
80320,note_on,0,0,6,,,,,,,,,5,,,72,0
80350,note_on,94,0,1,,,,,,,,,0,,,78,0
80352,note_on,2,0,1,,,,,,,,,0,,,76,92
80446,note_on,94,0,1,,,,,,,,,0,,,76,0
80448,note_on,2,0,1,,,,,,,,,0,,,74,92
80542,note_on,94,0,1,,,,,,,,,0,,,74,0
80544,note_on,2,0,1,,,,,,,,,0,,,72,92
80638,note_on,94,0,1,,,,,,,,,0,,,72,0
80640,note_on,320,0,6,,,,,,,,,5,,,66,45
80640,note_on,2,0,1,,,,,,,,,0,,,78,92
80640,note_on,320,0,7,,,,,,,,,5,,,62,45
80640,note_on,0,0,6,,,,,,,,,5,,,69,45
80640,note_on,320,0,8,,,,,,,,,7,,,62,45
80640,note_on,320,0,2,,,,,,,,,1,,,62,92
80736,note_on,96,0,2,,,,,,,,,1,,,62,0
80736,note_on,0,0,2,,,,,,,,,1,,,60,92
80832,note_on,96,0,2,,,,,,,,,1,,,60,0
80832,note_on,0,0,2,,,,,,,,,1,,,62,92
80896,note_on,256,0,8,,,,,,,,,7,,,62,0
80896,note_on,0,0,6,,,,,,,,,5,,,69,0
80896,note_on,256,0,6,,,,,,,,,5,,,66,0
80896,note_on,256,0,7,,,,,,,,,5,,,62,0
80926,note_on,94,0,2,,,,,,,,,1,,,62,0
80928,note_on,2,0,2,,,,,,,,,1,,,62,92
80928,note_on,32,0,6,,,,,,,,,5,,,66,45
80928,note_on,32,0,8,,,,,,,,,7,,,62,45
80928,note_on,32,0,7,,,,,,,,,5,,,62,45
80928,note_on,0,0,6,,,,,,,,,5,,,69,45
81024,note_on,96,0,2,,,,,,,,,1,,,62,0
81024,note_on,0,0,2,,,,,,,,,1,,,60,92
81120,note_on,96,0,2,,,,,,,,,1,,,60,0
81120,note_on,0,0,2,,,,,,,,,1,,,62,92
81184,note_on,256,0,8,,,,,,,,,7,,,62,0
81184,note_on,256,0,7,,,,,,,,,5,,,62,0
81184,note_on,256,0,6,,,,,,,,,5,,,66,0
81184,note_on,0,0,6,,,,,,,,,5,,,69,0
81214,note_on,94,0,2,,,,,,,,,1,,,62,0
81216,note_on,2,0,2,,,,,,,,,1,,,50,92
81216,note_on,32,0,8,,,,,,,,,7,,,50,45
81216,note_on,0,0,6,,,,,,,,,5,,,69,45
81216,note_on,32,0,7,,,,,,,,,5,,,50,45
81216,note_on,32,0,6,,,,,,,,,5,,,62,45
81216,note_on,0,0,6,,,,,,,,,5,,,66,45
81310,note_on,670,0,1,,,,,,,,,0,,,78,0
81312,note_on,2,0,1,,,,,,,,,0,,,81,92
81406,note_on,94,0,1,,,,,,,,,0,,,81,0
81408,note_on,2,0,1,,,,,,,,,0,,,79,92
81472,note_on,256,0,6,,,,,,,,,5,,,62,0
81472,note_on,0,0,6,,,,,,,,,5,,,69,0
81472,note_on,0,0,6,,,,,,,,,5,,,66,0
81472,note_on,256,0,7,,,,,,,,,5,,,50,0
81472,note_on,256,0,8,,,,,,,,,7,,,50,0
81472,note_on,256,0,2,,,,,,,,,1,,,50,0
81502,note_on,94,0,1,,,,,,,,,0,,,79,0
81504,note_on,2,0,1,,,,,,,,,0,,,78,92
81598,note_on,94,0,1,,,,,,,,,0,,,78,0
81600,note_on,2,0,1,,,,,,,,,0,,,76,92
81694,note_on,94,0,1,,,,,,,,,0,,,76,0
81696,note_on,2,0,1,,,,,,,,,0,,,74,92
81790,note_on,94,0,1,,,,,,,,,0,,,74,0
81792,note_on,320,0,7,,,,,,,,,5,,,55,45
81792,note_on,320,0,6,,,,,,,,,5,,,62,45
81792,note_on,0,0,6,,,,,,,,,5,,,67,45
81792,note_on,0,0,6,,,,,,,,,5,,,71,45
81792,note_on,320,0,8,,,,,,,,,7,,,55,45
81792,note_on,2,0,1,,,,,,,,,0,,,83,92
81792,note_on,320,0,2,,,,,,,,,1,,,55,92
81886,note_on,94,0,1,,,,,,,,,0,,,83,0
81888,note_on,2,0,1,,,,,,,,,0,,,79,92
81982,note_on,94,0,1,,,,,,,,,0,,,79,0
81984,note_on,2,0,1,,,,,,,,,0,,,78,92
82048,note_on,256,0,2,,,,,,,,,1,,,55,0
82048,note_on,256,0,7,,,,,,,,,5,,,55,0
82048,note_on,256,0,8,,,,,,,,,7,,,55,0
82048,note_on,0,0,6,,,,,,,,,5,,,67,0
82048,note_on,0,0,6,,,,,,,,,5,,,71,0
82048,note_on,256,0,6,,,,,,,,,5,,,62,0
82078,note_on,94,0,1,,,,,,,,,0,,,78,0
82080,note_on,2,0,1,,,,,,,,,0,,,79,92
82240,note_on,160,0,1,,,,,,,,,0,,,79,0
82272,note_on,32,0,1,,,,,,,,,0,,,72,92
82272,note_on,224,0,7,,,,,,,,,5,,,54,45
82272,note_on,0,0,6,,,,,,,,,5,,,72,45
82272,note_on,224,0,8,,,,,,,,,7,,,54,45
82272,note_on,224,0,6,,,,,,,,,5,,,62,45
82272,note_on,0,0,6,,,,,,,,,5,,,69,45
82272,note_on,224,0,2,,,,,,,,,1,,,54,92
82366,note_on,94,0,8,,,,,,,,,7,,,54,0
82366,note_on,0,0,6,,,,,,,,,5,,,69,0
82366,note_on,94,0,2,,,,,,,,,1,,,54,0
82366,note_on,0,0,6,,,,,,,,,5,,,72,0
82366,note_on,94,0,1,,,,,,,,,0,,,72,0
82366,note_on,94,0,6,,,,,,,,,5,,,62,0
82366,note_on,94,0,7,,,,,,,,,5,,,54,0
82368,note_on,2,0,7,,,,,,,,,5,,,55,45
82368,note_on,2,0,8,,,,,,,,,7,,,55,45
82368,note_on,2,0,6,,,,,,,,,5,,,62,45
82368,note_on,0,0,6,,,,,,,,,5,,,67,45
82368,note_on,0,0,6,,,,,,,,,5,,,71,45
82368,note_on,2,0,1,,,,,,,,,0,,,71,92
82368,note_on,2,0,2,,,,,,,,,1,,,55,92
82462,note_on,94,0,2,,,,,,,,,1,,,55,0
82464,note_on,2,0,2,,,,,,,,,1,,,43,92
82558,note_on,94,0,2,,,,,,,,,1,,,43,0
82560,note_on,2,0,2,,,,,,,,,1,,,55,92
82624,note_on,0,0,6,,,,,,,,,5,,,71,0
82624,note_on,0,0,6,,,,,,,,,5,,,67,0
82624,note_on,256,0,6,,,,,,,,,5,,,62,0
82624,note_on,256,0,7,,,,,,,,,5,,,55,0
82624,note_on,256,0,1,,,,,,,,,0,,,71,0
82624,note_on,256,0,8,,,,,,,,,7,,,55,0
82654,note_on,94,0,2,,,,,,,,,1,,,55,0
82656,note_on,32,0,1,,,,,,,,,0,,,69,92
82656,note_on,0,0,6,,,,,,,,,5,,,69,45
82656,note_on,32,0,8,,,,,,,,,7,,,50,45
82656,note_on,2,0,2,,,,,,,,,1,,,50,92
82656,note_on,0,0,6,,,,,,,,,5,,,66,45
82656,note_on,32,0,7,,,,,,,,,5,,,50,45
82656,note_on,32,0,6,,,,,,,,,5,,,62,45
82750,note_on,94,0,2,,,,,,,,,1,,,50,0
82752,note_on,2,0,2,,,,,,,,,1,,,38,92
82846,note_on,94,0,2,,,,,,,,,1,,,38,0
82848,note_on,2,0,2,,,,,,,,,1,,,50,92
82912,note_on,256,0,6,,,,,,,,,5,,,62,0
82912,note_on,256,0,7,,,,,,,,,5,,,50,0
82912,note_on,0,0,6,,,,,,,,,5,,,66,0
82912,note_on,0,0,6,,,,,,,,,5,,,69,0
82912,note_on,256,0,8,,,,,,,,,7,,,50,0
82912,note_on,256,0,1,,,,,,,,,0,,,69,0
82942,note_on,94,0,2,,,,,,,,,1,,,50,0
82944,note_on,32,0,7,,,,,,,,,5,,,43,45
82944,note_on,32,0,1,,,,,,,,,0,,,67,92
82944,note_on,32,0,8,,,,,,,,,7,,,43,45
82944,note_on,0,0,6,,,,,,,,,5,,,62,45
82944,note_on,0,0,6,,,,,,,,,5,,,67,45
82944,note_on,2,0,2,,,,,,,,,1,,,43,92
82944,note_on,32,0,6,,,,,,,,,5,,,59,45
83200,note_on,256,0,1,,,,,,,,,0,,,67,0
83200,note_on,256,0,2,,,,,,,,,1,,,43,0
83200,note_on,256,0,6,,,,,,,,,5,,,59,0
83200,note_on,0,0,6,,,,,,,,,5,,,62,0
83200,note_on,0,0,6,,,,,,,,,5,,,67,0
83200,note_on,256,0,7,,,,,,,,,5,,,43,0
83200,note_on,256,0,8,,,,,,,,,7,,,43,0
83424,note_on,224,0,2,,,,,,,,,1,,,64,92
83424,note_on,224,0,1,,,,,,,,,0,,,79,92
83424,note_on,224,0,8,,,,,,,,,7,,,64,45
83424,note_on,224,0,7,,,,,,,,,5,,,64,45
83424,note_on,224,0,6,,,,,,,,,5,,,67,45
83518,note_on,94,0,6,,,,,,,,,5,,,67,0
83518,note_on,94,0,1,,,,,,,,,0,,,79,0
83518,note_on,94,0,8,,,,,,,,,7,,,64,0
83518,note_on,94,0,7,,,,,,,,,5,,,64,0
83518,note_on,94,0,2,,,,,,,,,1,,,64,0
83520,note_on,2,0,2,,,,,,,,,1,,,62,92
83520,note_on,2,0,6,,,,,,,,,5,,,66,45
83520,note_on,2,0,7,,,,,,,,,5,,,62,45
83520,note_on,2,0,1,,,,,,,,,0,,,78,92
83520,note_on,0,0,6,,,,,,,,,5,,,67,45
83520,note_on,2,0,8,,,,,,,,,7,,,62,45
83616,note_on,0,0,2,,,,,,,,,1,,,60,92
83616,note_on,96,0,1,,,,,,,,,0,,,78,0
83616,note_on,0,0,1,,,,,,,,,0,,,76,92
83616,note_on,96,0,2,,,,,,,,,1,,,62,0
83712,note_on,96,0,1,,,,,,,,,0,,,76,0
83712,note_on,0,0,1,,,,,,,,,0,,,78,92
83712,note_on,96,0,2,,,,,,,,,1,,,60,0
83712,note_on,0,0,2,,,,,,,,,1,,,62,92
83776,note_on,256,0,8,,,,,,,,,7,,,62,0
83776,note_on,0,0,6,,,,,,,,,5,,,67,0
83776,note_on,256,0,6,,,,,,,,,5,,,66,0
83776,note_on,256,0,7,,,,,,,,,5,,,62,0
83806,note_on,94,0,2,,,,,,,,,1,,,62,0
83806,note_on,94,0,1,,,,,,,,,0,,,78,0
83808,note_on,2,0,2,,,,,,,,,1,,,60,92
83808,note_on,0,0,6,,,,,,,,,5,,,67,45
83808,note_on,2,0,1,,,,,,,,,0,,,76,92
83808,note_on,32,0,6,,,,,,,,,5,,,64,45
83808,note_on,32,0,8,,,,,,,,,7,,,60,45
83808,note_on,32,0,7,,,,,,,,,5,,,60,45
83904,note_on,0,0,1,,,,,,,,,0,,,74,92
83904,note_on,96,0,2,,,,,,,,,1,,,60,0
83904,note_on,0,0,2,,,,,,,,,1,,,59,92
83904,note_on,96,0,1,,,,,,,,,0,,,76,0
84000,note_on,96,0,2,,,,,,,,,1,,,59,0
84000,note_on,0,0,1,,,,,,,,,0,,,76,92
84000,note_on,96,0,1,,,,,,,,,0,,,74,0
84000,note_on,0,0,2,,,,,,,,,1,,,60,92
84064,note_on,256,0,6,,,,,,,,,5,,,64,0
84064,note_on,0,0,6,,,,,,,,,5,,,67,0
84064,note_on,256,0,7,,,,,,,,,5,,,60,0
84064,note_on,256,0,8,,,,,,,,,7,,,60,0
84094,note_on,94,0,1,,,,,,,,,0,,,76,0
84094,note_on,94,0,2,,,,,,,,,1,,,60,0
84096,note_on,2,0,2,,,,,,,,,1,,,59,92
84096,note_on,2,0,1,,,,,,,,,0,,,74,92
84096,note_on,32,0,8,,,,,,,,,7,,,59,45
84096,note_on,32,0,7,,,,,,,,,5,,,59,45
84096,note_on,0,0,6,,,,,,,,,5,,,67,45
84096,note_on,32,0,6,,,,,,,,,5,,,62,45
84352,note_on,256,0,1,,,,,,,,,0,,,74,0
84352,note_on,256,0,8,,,,,,,,,7,,,59,0
84352,note_on,256,0,7,,,,,,,,,5,,,59,0
84352,note_on,256,0,6,,,,,,,,,5,,,62,0
84352,note_on,0,0,6,,,,,,,,,5,,,67,0
84352,note_on,256,0,2,,,,,,,,,1,,,59,0
84576,note_on,224,0,1,,,,,,,,,0,,,76,92
84576,note_on,224,0,6,,,,,,,,,5,,,64,45
84576,note_on,0,0,6,,,,,,,,,5,,,67,45
84576,note_on,224,0,7,,,,,,,,,5,,,60,45
84576,note_on,224,0,8,,,,,,,,,7,,,60,45
84576,note_on,224,0,2,,,,,,,,,1,,,60,92
84670,note_on,94,0,2,,,,,,,,,1,,,60,0
84670,note_on,94,0,1,,,,,,,,,0,,,76,0
84670,note_on,94,0,6,,,,,,,,,5,,,64,0
84670,note_on,0,0,6,,,,,,,,,5,,,67,0
84670,note_on,94,0,7,,,,,,,,,5,,,60,0
84670,note_on,94,0,8,,,,,,,,,7,,,60,0
84672,note_on,2,0,1,,,,,,,,,0,,,74,92
84672,note_on,2,0,8,,,,,,,,,7,,,59,45
84672,note_on,2,0,6,,,,,,,,,5,,,62,45
84672,note_on,0,0,6,,,,,,,,,5,,,67,45
84672,note_on,2,0,2,,,,,,,,,1,,,59,92
84672,note_on,2,0,7,,,,,,,,,5,,,59,45
84768,note_on,0,0,2,,,,,,,,,1,,,57,92
84768,note_on,96,0,2,,,,,,,,,1,,,59,0
84768,note_on,96,0,1,,,,,,,,,0,,,74,0
84768,note_on,0,0,1,,,,,,,,,0,,,72,92
84864,note_on,0,0,2,,,,,,,,,1,,,59,92
84864,note_on,96,0,2,,,,,,,,,1,,,57,0
84864,note_on,96,0,1,,,,,,,,,0,,,72,0
84864,note_on,0,0,1,,,,,,,,,0,,,74,92
84928,note_on,256,0,6,,,,,,,,,5,,,62,0
84928,note_on,256,0,7,,,,,,,,,5,,,59,0
84928,note_on,256,0,8,,,,,,,,,7,,,59,0
84928,note_on,0,0,6,,,,,,,,,5,,,67,0
84958,note_on,94,0,1,,,,,,,,,0,,,74,0
84958,note_on,94,0,2,,,,,,,,,1,,,59,0
84960,note_on,32,0,6,,,,,,,,,5,,,60,45
84960,note_on,32,0,8,,,,,,,,,7,,,57,45
84960,note_on,32,0,7,,,,,,,,,5,,,57,45
84960,note_on,0,0,6,,,,,,,,,5,,,66,45
84960,note_on,2,0,1,,,,,,,,,0,,,72,92
84960,note_on,2,0,2,,,,,,,,,1,,,57,92
85056,note_on,0,0,1,,,,,,,,,0,,,71,92
85056,note_on,0,0,2,,,,,,,,,1,,,55,92
85056,note_on,96,0,2,,,,,,,,,1,,,57,0
85056,note_on,96,0,1,,,,,,,,,0,,,72,0
85152,note_on,0,0,2,,,,,,,,,1,,,57,92
85152,note_on,96,0,2,,,,,,,,,1,,,55,0
85152,note_on,96,0,1,,,,,,,,,0,,,71,0
85152,note_on,0,0,1,,,,,,,,,0,,,72,92
85216,note_on,0,0,6,,,,,,,,,5,,,66,0
85216,note_on,256,0,8,,,,,,,,,7,,,57,0
85216,note_on,256,0,6,,,,,,,,,5,,,60,0
85216,note_on,256,0,7,,,,,,,,,5,,,57,0
85246,note_on,94,0,2,,,,,,,,,1,,,57,0
85246,note_on,94,0,1,,,,,,,,,0,,,72,0
85248,note_on,2,0,1,,,,,,,,,0,,,71,92
85248,note_on,32,0,7,,,,,,,,,5,,,55,45
85248,note_on,32,0,8,,,,,,,,,7,,,55,45
85248,note_on,2,0,2,,,,,,,,,1,,,55,92
85248,note_on,0,0,6,,,,,,,,,5,,,62,45
85248,note_on,32,0,6,,,,,,,,,5,,,59,45
85248,note_on,0,0,6,,,,,,,,,5,,,67,45
85504,note_on,256,0,7,,,,,,,,,5,,,55,0
85504,note_on,256,0,1,,,,,,,,,0,,,71,0
85504,note_on,256,0,8,,,,,,,,,7,,,55,0
85504,note_on,0,0,6,,,,,,,,,5,,,62,0
85504,note_on,0,0,6,,,,,,,,,5,,,67,0
85504,note_on,256,0,2,,,,,,,,,1,,,55,0
85504,note_on,256,0,6,,,,,,,,,5,,,59,0
85728,note_on,224,0,8,,,,,,,,,7,,,59,45
85728,note_on,224,0,6,,,,,,,,,5,,,62,45
85728,note_on,0,0,6,,,,,,,,,5,,,67,45
85728,note_on,224,0,1,,,,,,,,,0,,,74,92
85728,note_on,224,0,2,,,,,,,,,1,,,59,92
85728,note_on,224,0,7,,,,,,,,,5,,,59,45
85822,note_on,94,0,7,,,,,,,,,5,,,59,0
85822,note_on,94,0,2,,,,,,,,,1,,,59,0
85822,note_on,0,0,6,,,,,,,,,5,,,67,0
85822,note_on,94,0,1,,,,,,,,,0,,,74,0
85822,note_on,94,0,6,,,,,,,,,5,,,62,0
85822,note_on,94,0,8,,,,,,,,,7,,,59,0
85824,note_on,2,0,8,,,,,,,,,7,,,60,45
85824,note_on,2,0,7,,,,,,,,,5,,,60,45
85824,note_on,2,0,2,,,,,,,,,1,,,60,92
85824,note_on,2,0,1,,,,,,,,,0,,,76,92
85824,note_on,2,0,6,,,,,,,,,5,,,64,45
85824,note_on,0,0,6,,,,,,,,,5,,,67,45
85920,note_on,0,0,2,,,,,,,,,1,,,59,92
85920,note_on,96,0,2,,,,,,,,,1,,,60,0
86016,note_on,0,0,2,,,,,,,,,1,,,60,92
86016,note_on,96,0,2,,,,,,,,,1,,,59,0
86080,note_on,0,0,6,,,,,,,,,5,,,67,0
86080,note_on,256,0,8,,,,,,,,,7,,,60,0
86080,note_on,256,0,7,,,,,,,,,5,,,60,0
86080,note_on,256,0,6,,,,,,,,,5,,,64,0
86110,note_on,94,0,2,,,,,,,,,1,,,60,0
86112,note_on,32,0,6,,,,,,,,,5,,,64,45
86112,note_on,32,0,8,,,,,,,,,7,,,60,45
86112,note_on,2,0,2,,,,,,,,,1,,,60,92
86112,note_on,0,0,6,,,,,,,,,5,,,67,45
86112,note_on,32,0,7,,,,,,,,,5,,,60,45
86208,note_on,96,0,2,,,,,,,,,1,,,60,0
86208,note_on,0,0,2,,,,,,,,,1,,,59,92
86304,note_on,96,0,2,,,,,,,,,1,,,59,0
86304,note_on,0,0,2,,,,,,,,,1,,,60,92
86368,note_on,256,0,7,,,,,,,,,5,,,60,0
86368,note_on,0,0,6,,,,,,,,,5,,,67,0
86368,note_on,256,0,6,,,,,,,,,5,,,64,0
86368,note_on,256,0,8,,,,,,,,,7,,,60,0
86398,note_on,94,0,2,,,,,,,,,1,,,60,0
86400,note_on,2,0,2,,,,,,,,,1,,,48,92
86400,note_on,32,0,8,,,,,,,,,7,,,48,45
86400,note_on,32,0,7,,,,,,,,,5,,,48,45
86400,note_on,0,0,6,,,,,,,,,5,,,67,45
86400,note_on,0,0,6,,,,,,,,,5,,,64,45
86400,note_on,32,0,6,,,,,,,,,5,,,60,45
86494,note_on,670,0,1,,,,,,,,,0,,,76,0
86496,note_on,2,0,1,,,,,,,,,0,,,79,92
86590,note_on,94,0,1,,,,,,,,,0,,,79,0
86592,note_on,2,0,1,,,,,,,,,0,,,78,92
86656,note_on,0,0,6,,,,,,,,,5,,,64,0
86656,note_on,256,0,2,,,,,,,,,1,,,48,0
86656,note_on,0,0,6,,,,,,,,,5,,,67,0
86656,note_on,256,0,8,,,,,,,,,7,,,48,0
86656,note_on,256,0,7,,,,,,,,,5,,,48,0
86656,note_on,256,0,6,,,,,,,,,5,,,60,0
86686,note_on,94,0,1,,,,,,,,,0,,,78,0
86688,note_on,2,0,1,,,,,,,,,0,,,76,92
86782,note_on,94,0,1,,,,,,,,,0,,,76,0
86784,note_on,2,0,1,,,,,,,,,0,,,74,92
86878,note_on,94,0,1,,,,,,,,,0,,,74,0
86880,note_on,2,0,1,,,,,,,,,0,,,72,92
86974,note_on,94,0,1,,,,,,,,,0,,,72,0
86976,note_on,320,0,8,,,,,,,,,7,,,62,45
86976,note_on,0,0,6,,,,,,,,,5,,,69,45
86976,note_on,320,0,6,,,,,,,,,5,,,66,45
86976,note_on,2,0,1,,,,,,,,,0,,,78,92
86976,note_on,320,0,7,,,,,,,,,5,,,62,45
86976,note_on,320,0,2,,,,,,,,,1,,,62,92
87072,note_on,0,0,2,,,,,,,,,1,,,60,92
87072,note_on,96,0,2,,,,,,,,,1,,,62,0
87168,note_on,96,0,2,,,,,,,,,1,,,60,0
87168,note_on,0,0,2,,,,,,,,,1,,,62,92
87232,note_on,256,0,7,,,,,,,,,5,,,62,0
87232,note_on,256,0,6,,,,,,,,,5,,,66,0
87232,note_on,0,0,6,,,,,,,,,5,,,69,0
87232,note_on,256,0,8,,,,,,,,,7,,,62,0
87262,note_on,94,0,2,,,,,,,,,1,,,62,0
87264,note_on,32,0,6,,,,,,,,,5,,,66,45
87264,note_on,0,0,6,,,,,,,,,5,,,69,45
87264,note_on,2,0,2,,,,,,,,,1,,,62,92
87264,note_on,32,0,7,,,,,,,,,5,,,62,45
87264,note_on,32,0,8,,,,,,,,,7,,,62,45
87360,note_on,0,0,2,,,,,,,,,1,,,60,92
87360,note_on,96,0,2,,,,,,,,,1,,,62,0
87456,note_on,0,0,2,,,,,,,,,1,,,62,92
87456,note_on,96,0,2,,,,,,,,,1,,,60,0
87520,note_on,256,0,6,,,,,,,,,5,,,66,0
87520,note_on,0,0,6,,,,,,,,,5,,,69,0
87520,note_on,256,0,8,,,,,,,,,7,,,62,0
87520,note_on,256,0,7,,,,,,,,,5,,,62,0
87550,note_on,94,0,2,,,,,,,,,1,,,62,0
87552,note_on,32,0,8,,,,,,,,,7,,,50,45
87552,note_on,32,0,6,,,,,,,,,5,,,62,45
87552,note_on,0,0,6,,,,,,,,,5,,,66,45
87552,note_on,0,0,6,,,,,,,,,5,,,69,45
87552,note_on,32,0,7,,,,,,,,,5,,,50,45
87552,note_on,2,0,2,,,,,,,,,1,,,50,92
87646,note_on,670,0,1,,,,,,,,,0,,,78,0
87648,note_on,2,0,1,,,,,,,,,0,,,81,92
87742,note_on,94,0,1,,,,,,,,,0,,,81,0
87744,note_on,2,0,1,,,,,,,,,0,,,79,92
87808,note_on,256,0,6,,,,,,,,,5,,,62,0
87808,note_on,256,0,2,,,,,,,,,1,,,50,0
87808,note_on,0,0,6,,,,,,,,,5,,,69,0
87808,note_on,0,0,6,,,,,,,,,5,,,66,0
87808,note_on,256,0,8,,,,,,,,,7,,,50,0
87808,note_on,256,0,7,,,,,,,,,5,,,50,0
87838,note_on,94,0,1,,,,,,,,,0,,,79,0
87840,note_on,2,0,1,,,,,,,,,0,,,78,92
87934,note_on,94,0,1,,,,,,,,,0,,,78,0
87936,note_on,2,0,1,,,,,,,,,0,,,76,92
88030,note_on,94,0,1,,,,,,,,,0,,,76,0
88032,note_on,2,0,1,,,,,,,,,0,,,74,92
88126,note_on,94,0,1,,,,,,,,,0,,,74,0
88128,note_on,320,0,8,,,,,,,,,7,,,43,45
88128,note_on,2,0,1,,,,,,,,,0,,,83,92
88128,note_on,0,0,6,,,,,,,,,5,,,67,45
88128,note_on,320,0,7,,,,,,,,,5,,,43,45
88128,note_on,0,0,6,,,,,,,,,5,,,71,45
88128,note_on,320,0,6,,,,,,,,,5,,,62,45
88128,note_on,320,0,2,,,,,,,,,1,,,43,92
88222,note_on,94,0,2,,,,,,,,,1,,,43,0
88222,note_on,94,0,1,,,,,,,,,0,,,83,0
88224,note_on,2,0,1,,,,,,,,,0,,,79,92
88224,note_on,2,0,2,,,,,,,,,1,,,55,92
88318,note_on,94,0,1,,,,,,,,,0,,,79,0
88318,note_on,94,0,2,,,,,,,,,1,,,55,0
88320,note_on,2,0,1,,,,,,,,,0,,,78,92
88320,note_on,2,0,2,,,,,,,,,1,,,43,92
88384,note_on,256,0,7,,,,,,,,,5,,,43,0
88384,note_on,256,0,6,,,,,,,,,5,,,62,0
88384,note_on,0,0,6,,,,,,,,,5,,,67,0
88384,note_on,0,0,6,,,,,,,,,5,,,71,0
88384,note_on,256,0,8,,,,,,,,,7,,,43,0
88414,note_on,94,0,1,,,,,,,,,0,,,78,0
88414,note_on,94,0,2,,,,,,,,,1,,,43,0
88416,note_on,0,0,6,,,,,,,,,5,,,67,45
88416,note_on,2,0,2,,,,,,,,,1,,,43,92
88416,note_on,32,0,7,,,,,,,,,5,,,43,45
88416,note_on,0,0,6,,,,,,,,,5,,,71,45
88416,note_on,2,0,1,,,,,,,,,0,,,79,92
88416,note_on,32,0,6,,,,,,,,,5,,,62,45
88416,note_on,32,0,8,,,,,,,,,7,,,43,45
88510,note_on,94,0,2,,,,,,,,,1,,,43,0
88512,note_on,2,0,2,,,,,,,,,1,,,55,92
88576,note_on,160,0,1,,,,,,,,,0,,,79,0
88606,note_on,94,0,2,,,,,,,,,1,,,55,0
88608,note_on,2,0,2,,,,,,,,,1,,,43,92
88672,note_on,0,0,6,,,,,,,,,5,,,67,0
88672,note_on,0,0,6,,,,,,,,,5,,,71,0
88672,note_on,256,0,7,,,,,,,,,5,,,43,0
88672,note_on,256,0,6,,,,,,,,,5,,,62,0
88672,note_on,256,0,8,,,,,,,,,7,,,43,0
88702,note_on,94,0,2,,,,,,,,,1,,,43,0
88704,note_on,32,0,7,,,,,,,,,5,,,50,45
88704,note_on,32,0,8,,,,,,,,,7,,,50,45
88704,note_on,2,0,2,,,,,,,,,1,,,50,92
88704,note_on,32,0,6,,,,,,,,,5,,,62,45
88704,note_on,0,0,6,,,,,,,,,5,,,66,45
88704,note_on,0,0,6,,,,,,,,,5,,,69,45
88798,note_on,94,0,2,,,,,,,,,1,,,50,0
88800,note_on,224,0,1,,,,,,,,,0,,,72,92
88800,note_on,2,0,2,,,,,,,,,1,,,62,92
88894,note_on,94,0,2,,,,,,,,,1,,,62,0
88896,note_on,0,0,1,,,,,,,,,0,,,71,92
88896,note_on,2,0,2,,,,,,,,,1,,,50,92
88896,note_on,96,0,1,,,,,,,,,0,,,72,0
88960,note_on,256,0,6,,,,,,,,,5,,,62,0
88960,note_on,0,0,6,,,,,,,,,5,,,66,0
88960,note_on,0,0,6,,,,,,,,,5,,,69,0
88960,note_on,256,0,7,,,,,,,,,5,,,50,0
88960,note_on,256,0,8,,,,,,,,,7,,,50,0
88990,note_on,94,0,2,,,,,,,,,1,,,50,0
88990,note_on,94,0,1,,,,,,,,,0,,,71,0
88992,note_on,2,0,1,,,,,,,,,0,,,72,92
88992,note_on,32,0,7,,,,,,,,,5,,,62,45
88992,note_on,2,0,2,,,,,,,,,1,,,50,92
88992,note_on,32,0,6,,,,,,,,,5,,,66,45
88992,note_on,0,0,6,,,,,,,,,5,,,72,45
88992,note_on,32,0,8,,,,,,,,,7,,,62,45
89086,note_on,94,0,2,,,,,,,,,1,,,50,0
89088,note_on,2,0,2,,,,,,,,,1,,,62,92
89152,note_on,160,0,1,,,,,,,,,0,,,72,0
89182,note_on,94,0,2,,,,,,,,,1,,,62,0
89184,note_on,2,0,2,,,,,,,,,1,,,50,92
89248,note_on,256,0,7,,,,,,,,,5,,,62,0
89248,note_on,0,0,6,,,,,,,,,5,,,72,0
89248,note_on,256,0,6,,,,,,,,,5,,,66,0
89248,note_on,256,0,8,,,,,,,,,7,,,62,0
89278,note_on,94,0,2,,,,,,,,,1,,,50,0
89280,note_on,2,0,2,,,,,,,,,1,,,50,92
89280,note_on,0,0,6,,,,,,,,,5,,,66,45
89280,note_on,32,0,7,,,,,,,,,5,,,50,45
89280,note_on,32,0,6,,,,,,,,,5,,,62,45
89280,note_on,0,0,6,,,,,,,,,5,,,72,45
89280,note_on,32,0,8,,,,,,,,,7,,,50,45
89374,note_on,94,0,2,,,,,,,,,1,,,50,0
89376,note_on,2,0,2,,,,,,,,,1,,,62,92
89376,note_on,224,0,1,,,,,,,,,0,,,78,92
89470,note_on,94,0,2,,,,,,,,,1,,,62,0
89472,note_on,0,0,1,,,,,,,,,0,,,76,92
89472,note_on,2,0,2,,,,,,,,,1,,,50,92
89472,note_on,96,0,1,,,,,,,,,0,,,78,0
89536,note_on,256,0,8,,,,,,,,,7,,,50,0
89536,note_on,256,0,7,,,,,,,,,5,,,50,0
89536,note_on,256,0,6,,,,,,,,,5,,,62,0
89536,note_on,0,0,6,,,,,,,,,5,,,72,0
89536,note_on,0,0,6,,,,,,,,,5,,,66,0
89566,note_on,94,0,2,,,,,,,,,1,,,50,0
89566,note_on,94,0,1,,,,,,,,,0,,,76,0
89568,note_on,32,0,7,,,,,,,,,5,,,62,45
89568,note_on,2,0,1,,,,,,,,,0,,,78,92
89568,note_on,2,0,2,,,,,,,,,1,,,50,92
89568,note_on,32,0,6,,,,,,,,,5,,,66,45
89568,note_on,0,0,6,,,,,,,,,5,,,72,45
89568,note_on,32,0,8,,,,,,,,,7,,,62,45
89662,note_on,94,0,2,,,,,,,,,1,,,50,0
89664,note_on,2,0,2,,,,,,,,,1,,,62,92
89728,note_on,160,0,1,,,,,,,,,0,,,78,0
89758,note_on,94,0,2,,,,,,,,,1,,,62,0
89760,note_on,2,0,2,,,,,,,,,1,,,50,92
89824,note_on,256,0,7,,,,,,,,,5,,,62,0
89824,note_on,256,0,6,,,,,,,,,5,,,66,0
89824,note_on,0,0,6,,,,,,,,,5,,,72,0
89824,note_on,256,0,8,,,,,,,,,7,,,62,0
89854,note_on,94,0,2,,,,,,,,,1,,,50,0
89856,note_on,32,0,8,,,,,,,,,7,,,50,45
89856,note_on,32,0,6,,,,,,,,,5,,,62,45
89856,note_on,0,0,6,,,,,,,,,5,,,66,45
89856,note_on,0,0,6,,,,,,,,,5,,,72,45
89856,note_on,2,0,2,,,,,,,,,1,,,50,92
89856,note_on,32,0,7,,,,,,,,,5,,,50,45
89950,note_on,94,0,2,,,,,,,,,1,,,50,0
89952,note_on,2,0,2,,,,,,,,,1,,,62,92
89952,note_on,224,0,1,,,,,,,,,0,,,81,92
90046,note_on,94,0,2,,,,,,,,,1,,,62,0
90048,note_on,96,0,1,,,,,,,,,0,,,81,0
90048,note_on,0,0,1,,,,,,,,,0,,,79,92
90048,note_on,2,0,2,,,,,,,,,1,,,50,92
90112,note_on,256,0,7,,,,,,,,,5,,,50,0
90112,note_on,0,0,6,,,,,,,,,5,,,66,0
90112,note_on,256,0,6,,,,,,,,,5,,,62,0
90112,note_on,256,0,8,,,,,,,,,7,,,50,0
90112,note_on,0,0,6,,,,,,,,,5,,,72,0
90142,note_on,94,0,1,,,,,,,,,0,,,79,0
90142,note_on,94,0,2,,,,,,,,,1,,,50,0
90144,note_on,2,0,1,,,,,,,,,0,,,81,92
90144,note_on,32,0,7,,,,,,,,,5,,,62,45
90144,note_on,2,0,2,,,,,,,,,1,,,50,92
90144,note_on,32,0,6,,,,,,,,,5,,,66,45
90144,note_on,0,0,6,,,,,,,,,5,,,72,45
90144,note_on,32,0,8,,,,,,,,,7,,,62,45
90238,note_on,94,0,2,,,,,,,,,1,,,50,0
90240,note_on,2,0,2,,,,,,,,,1,,,62,92
90334,note_on,94,0,2,,,,,,,,,1,,,62,0
90336,note_on,2,0,2,,,,,,,,,1,,,50,92
90400,note_on,256,0,7,,,,,,,,,5,,,62,0
90400,note_on,256,0,8,,,,,,,,,7,,,62,0
90400,note_on,0,0,6,,,,,,,,,5,,,72,0
90400,note_on,256,0,6,,,,,,,,,5,,,66,0
90400,note_on,256,0,1,,,,,,,,,0,,,81,0
90430,note_on,94,0,2,,,,,,,,,1,,,50,0
90432,note_on,0,0,6,,,,,,,,,5,,,66,45
90432,note_on,32,0,7,,,,,,,,,5,,,50,45
90432,note_on,32,0,6,,,,,,,,,5,,,62,45
90432,note_on,2,0,2,,,,,,,,,1,,,50,92
90432,note_on,32,0,8,,,,,,,,,7,,,50,45
90432,note_on,0,0,6,,,,,,,,,5,,,72,45
90526,note_on,94,0,2,,,,,,,,,1,,,50,0
90528,note_on,128,0,1,,,,,,,,,0,,,72,92
90528,note_on,2,0,2,,,,,,,,,1,,,62,92
90622,note_on,94,0,1,,,,,,,,,0,,,72,0
90622,note_on,94,0,2,,,,,,,,,1,,,62,0
90624,note_on,2,0,2,,,,,,,,,1,,,50,92
90624,note_on,2,0,1,,,,,,,,,0,,,71,92
90688,note_on,256,0,8,,,,,,,,,7,,,50,0
90688,note_on,256,0,7,,,,,,,,,5,,,50,0
90688,note_on,256,0,6,,,,,,,,,5,,,62,0
90688,note_on,0,0,6,,,,,,,,,5,,,72,0
90688,note_on,0,0,6,,,,,,,,,5,,,66,0
90718,note_on,94,0,2,,,,,,,,,1,,,50,0
90718,note_on,94,0,1,,,,,,,,,0,,,71,0
90720,note_on,32,0,7,,,,,,,,,5,,,62,45
90720,note_on,2,0,2,,,,,,,,,1,,,50,92
90720,note_on,32,0,8,,,,,,,,,7,,,62,45
90720,note_on,32,0,6,,,,,,,,,5,,,66,45
90720,note_on,2,0,1,,,,,,,,,0,,,72,92
90720,note_on,0,0,6,,,,,,,,,5,,,72,45
90814,note_on,94,0,2,,,,,,,,,1,,,50,0
90814,note_on,94,0,1,,,,,,,,,0,,,72,0
90816,note_on,2,0,1,,,,,,,,,0,,,71,92
90816,note_on,2,0,2,,,,,,,,,1,,,62,92
90910,note_on,94,0,1,,,,,,,,,0,,,71,0
90910,note_on,94,0,2,,,,,,,,,1,,,62,0
90912,note_on,2,0,2,,,,,,,,,1,,,50,92
90912,note_on,2,0,1,,,,,,,,,0,,,69,92
90976,note_on,256,0,7,,,,,,,,,5,,,62,0
90976,note_on,256,0,6,,,,,,,,,5,,,66,0
90976,note_on,0,0,6,,,,,,,,,5,,,72,0
90976,note_on,256,0,8,,,,,,,,,7,,,62,0
91006,note_on,94,0,2,,,,,,,,,1,,,50,0
91006,note_on,94,0,1,,,,,,,,,0,,,69,0
91008,note_on,32,0,8,,,,,,,,,7,,,43,45
91008,note_on,2,0,2,,,,,,,,,1,,,43,92
91008,note_on,32,0,7,,,,,,,,,5,,,43,45
91008,note_on,0,0,6,,,,,,,,,5,,,67,45
91008,note_on,0,0,6,,,,,,,,,5,,,71,45
91008,note_on,2,0,1,,,,,,,,,0,,,83,92
91008,note_on,32,0,6,,,,,,,,,5,,,62,45
91102,note_on,94,0,1,,,,,,,,,0,,,83,0
91102,note_on,94,0,2,,,,,,,,,1,,,43,0
91104,note_on,2,0,1,,,,,,,,,0,,,81,92
91104,note_on,2,0,2,,,,,,,,,1,,,55,92
91198,note_on,94,0,1,,,,,,,,,0,,,81,0
91198,note_on,94,0,2,,,,,,,,,1,,,55,0
91200,note_on,2,0,1,,,,,,,,,0,,,79,92
91200,note_on,2,0,2,,,,,,,,,1,,,43,92
91264,note_on,256,0,6,,,,,,,,,5,,,62,0
91264,note_on,0,0,6,,,,,,,,,5,,,67,0
91264,note_on,0,0,6,,,,,,,,,5,,,71,0
91264,note_on,256,0,8,,,,,,,,,7,,,43,0
91264,note_on,256,0,7,,,,,,,,,5,,,43,0
91294,note_on,94,0,1,,,,,,,,,0,,,79,0
91294,note_on,94,0,2,,,,,,,,,1,,,43,0
91296,note_on,0,0,6,,,,,,,,,5,,,62,45
91296,note_on,0,0,6,,,,,,,,,5,,,69,45
91296,note_on,0,0,6,,,,,,,,,5,,,66,45
91296,note_on,32,0,6,,,,,,,,,5,,,60,45
91296,note_on,2,0,1,,,,,,,,,0,,,78,92
91296,note_on,32,0,7,,,,,,,,,5,,,38,45
91296,note_on,2,0,2,,,,,,,,,1,,,38,92
91296,note_on,32,0,8,,,,,,,,,7,,,38,45
91390,note_on,94,0,2,,,,,,,,,1,,,38,0
91392,note_on,2,0,2,,,,,,,,,1,,,50,92
91456,note_on,160,0,1,,,,,,,,,0,,,78,0
91486,note_on,94,0,2,,,,,,,,,1,,,50,0
91488,note_on,2,0,2,,,,,,,,,1,,,38,92
91488,note_on,32,0,1,,,,,,,,,0,,,79,92
91552,note_on,0,0,6,,,,,,,,,5,,,66,0
91552,note_on,0,0,6,,,,,,,,,5,,,69,0
91552,note_on,256,0,8,,,,,,,,,7,,,38,0
91552,note_on,256,0,6,,,,,,,,,5,,,60,0
91552,note_on,0,0,6,,,,,,,,,5,,,62,0
91552,note_on,256,0,7,,,,,,,,,5,,,38,0
91582,note_on,94,0,2,,,,,,,,,1,,,38,0
91582,note_on,94,0,1,,,,,,,,,0,,,79,0
91584,note_on,32,0,6,,,,,,,,,5,,,59,45
91584,note_on,2,0,1,,,,,,,,,0,,,79,92
91584,note_on,0,0,6,,,,,,,,,5,,,62,45
91584,note_on,0,0,6,,,,,,,,,5,,,67,45
91584,note_on,2,0,2,,,,,,,,,1,,,43,92
91584,note_on,32,0,7,,,,,,,,,5,,,43,45
91584,note_on,32,0,8,,,,,,,,,7,,,43,45
92112,note_on,528,0,2,,,,,,,,,1,,,43,0
92112,note_on,528,0,7,,,,,,,,,5,,,43,0
92112,note_on,0,0,6,,,,,,,,,5,,,67,0
92112,note_on,0,0,6,,,,,,,,,5,,,62,0
92112,note_on,528,0,1,,,,,,,,,0,,,79,0
92112,note_on,528,0,8,,,,,,,,,7,,,43,0
92112,note_on,528,0,6,,,,,,,,,5,,,59,0
92160,note_on,26240,0,4,,,,,,,,,3,,,79,92
92160,note_on,48,0,1,,,,,,,,,0,,,79,92
92160,note_on,26240,0,3,,,,,,,,,2,,,79,92
92254,note_on,94,0,4,,,,,,,,,3,,,79,0
92254,note_on,94,0,3,,,,,,,,,2,,,79,0
92254,note_on,94,0,1,,,,,,,,,0,,,79,0
92256,note_on,2,0,3,,,,,,,,,2,,,67,92
92256,note_on,2,0,1,,,,,,,,,0,,,67,92
92256,note_on,2,0,4,,,,,,,,,3,,,67,92
92350,note_on,94,0,4,,,,,,,,,3,,,67,0
92350,note_on,94,0,3,,,,,,,,,2,,,67,0
92350,note_on,94,0,1,,,,,,,,,0,,,67,0
92352,note_on,2,0,1,,,,,,,,,0,,,67,92
92352,note_on,2,0,3,,,,,,,,,2,,,67,92
92352,note_on,2,0,4,,,,,,,,,3,,,67,92
92446,note_on,94,0,3,,,,,,,,,2,,,67,0
92446,note_on,94,0,4,,,,,,,,,3,,,67,0
92446,note_on,94,0,1,,,,,,,,,0,,,67,0
92448,note_on,2,0,1,,,,,,,,,0,,,79,92
92448,note_on,2,0,3,,,,,,,,,2,,,79,92
92448,note_on,2,0,4,,,,,,,,,3,,,79,92
92542,note_on,94,0,4,,,,,,,,,3,,,79,0
92542,note_on,94,0,3,,,,,,,,,2,,,79,0
92542,note_on,94,0,1,,,,,,,,,0,,,79,0
92544,note_on,2,0,3,,,,,,,,,2,,,67,92
92544,note_on,2,0,4,,,,,,,,,3,,,67,92
92544,note_on,2,0,1,,,,,,,,,0,,,67,92
92638,note_on,94,0,1,,,,,,,,,0,,,67,0
92638,note_on,94,0,4,,,,,,,,,3,,,67,0
92638,note_on,94,0,3,,,,,,,,,2,,,67,0
92640,note_on,2,0,4,,,,,,,,,3,,,67,92
92640,note_on,2,0,3,,,,,,,,,2,,,67,92
92640,note_on,2,0,1,,,,,,,,,0,,,67,92
92734,note_on,94,0,4,,,,,,,,,3,,,67,0
92734,note_on,94,0,3,,,,,,,,,2,,,67,0
92734,note_on,94,0,1,,,,,,,,,0,,,67,0
92736,note_on,624,0,2,,,,,,,,,1,,,55,92
92736,note_on,2,0,4,,,,,,,,,3,,,67,92
92736,note_on,2,0,3,,,,,,,,,2,,,67,92
92736,note_on,2,0,1,,,,,,,,,0,,,67,92
92736,note_on,624,0,8,,,,,,,,,7,,,55,92
92736,note_on,0,0,6,,,,,,,,,5,,,67,92
92736,note_on,624,0,6,,,,,,,,,5,,,59,92
92736,note_on,26816,0,5,,,,,,,,,4,,,67,92
92736,note_on,0,0,6,,,,,,,,,5,,,62,92
92736,note_on,624,0,7,,,,,,,,,5,,,55,92
92830,note_on,94,0,7,,,,,,,,,5,,,55,0
92830,note_on,94,0,5,,,,,,,,,4,,,67,0
92830,note_on,94,0,8,,,,,,,,,7,,,55,0
92830,note_on,94,0,2,,,,,,,,,1,,,55,0
92832,note_on,2,0,7,,,,,,,,,5,,,43,92
92832,note_on,2,0,2,,,,,,,,,1,,,43,92
92832,note_on,2,0,5,,,,,,,,,4,,,55,92
92832,note_on,2,0,8,,,,,,,,,7,,,43,92
92926,note_on,94,0,7,,,,,,,,,5,,,43,0
92926,note_on,94,0,8,,,,,,,,,7,,,43,0
92926,note_on,94,0,5,,,,,,,,,4,,,55,0
92926,note_on,94,0,2,,,,,,,,,1,,,43,0
92928,note_on,2,0,2,,,,,,,,,1,,,43,92
92928,note_on,2,0,5,,,,,,,,,4,,,55,92
92928,note_on,2,0,7,,,,,,,,,5,,,43,92
92928,note_on,2,0,8,,,,,,,,,7,,,43,92
92992,note_on,256,0,6,,,,,,,,,5,,,59,0
92992,note_on,0,0,6,,,,,,,,,5,,,67,0
92992,note_on,256,0,4,,,,,,,,,3,,,67,0
92992,note_on,0,0,6,,,,,,,,,5,,,62,0
92992,note_on,256,0,3,,,,,,,,,2,,,67,0
92992,note_on,256,0,1,,,,,,,,,0,,,67,0
93022,note_on,94,0,5,,,,,,,,,4,,,55,0
93022,note_on,94,0,8,,,,,,,,,7,,,43,0
93022,note_on,94,0,2,,,,,,,,,1,,,43,0
93022,note_on,94,0,7,,,,,,,,,5,,,43,0
93024,note_on,2,0,8,,,,,,,,,7,,,55,92
93024,note_on,0,0,6,,,,,,,,,5,,,67,92
93024,note_on,2,0,7,,,,,,,,,5,,,55,92
93024,note_on,0,0,6,,,,,,,,,5,,,72,92
93024,note_on,2,0,2,,,,,,,,,1,,,55,92
93024,note_on,32,0,4,,,,,,,,,3,,,72,92
93024,note_on,32,0,1,,,,,,,,,0,,,76,92
93024,note_on,32,0,3,,,,,,,,,2,,,76,92
93024,note_on,32,0,6,,,,,,,,,5,,,64,92
93024,note_on,2,0,5,,,,,,,,,4,,,67,92
93118,note_on,94,0,7,,,,,,,,,5,,,55,0
93118,note_on,94,0,8,,,,,,,,,7,,,55,0
93118,note_on,94,0,2,,,,,,,,,1,,,55,0
93118,note_on,94,0,5,,,,,,,,,4,,,67,0
93120,note_on,2,0,7,,,,,,,,,5,,,43,92
93120,note_on,2,0,8,,,,,,,,,7,,,43,92
93120,note_on,2,0,5,,,,,,,,,4,,,55,92
93120,note_on,2,0,2,,,,,,,,,1,,,43,92
93214,note_on,94,0,7,,,,,,,,,5,,,43,0
93214,note_on,94,0,5,,,,,,,,,4,,,55,0
93214,note_on,94,0,2,,,,,,,,,1,,,43,0
93214,note_on,94,0,8,,,,,,,,,7,,,43,0
93216,note_on,2,0,5,,,,,,,,,4,,,55,92
93216,note_on,2,0,7,,,,,,,,,5,,,43,92
93216,note_on,2,0,8,,,,,,,,,7,,,43,92
93216,note_on,2,0,2,,,,,,,,,1,,,43,92
93280,note_on,0,0,6,,,,,,,,,5,,,72,0
93280,note_on,256,0,4,,,,,,,,,3,,,72,0
93280,note_on,0,0,6,,,,,,,,,5,,,67,0
93280,note_on,256,0,6,,,,,,,,,5,,,64,0
93280,note_on,256,0,3,,,,,,,,,2,,,76,0
93280,note_on,256,0,1,,,,,,,,,0,,,76,0
93310,note_on,94,0,7,,,,,,,,,5,,,43,0
93310,note_on,94,0,5,,,,,,,,,4,,,55,0
93310,note_on,94,0,8,,,,,,,,,7,,,43,0
93310,note_on,94,0,2,,,,,,,,,1,,,43,0
93312,note_on,0,0,6,,,,,,,,,5,,,71,92
93312,note_on,32,0,1,,,,,,,,,0,,,74,92
93312,note_on,32,0,6,,,,,,,,,5,,,62,92
93312,note_on,32,0,4,,,,,,,,,3,,,71,92
93312,note_on,2,0,5,,,,,,,,,4,,,55,92
93312,note_on,32,0,3,,,,,,,,,2,,,74,92
93312,note_on,2,0,8,,,,,,,,,7,,,43,92
93312,note_on,2,0,7,,,,,,,,,5,,,43,92
93312,note_on,0,0,6,,,,,,,,,5,,,67,92
93312,note_on,2,0,2,,,,,,,,,1,,,43,92
93406,note_on,94,0,1,,,,,,,,,0,,,74,0
93406,note_on,94,0,3,,,,,,,,,2,,,74,0
93406,note_on,94,0,4,,,,,,,,,3,,,71,0
93408,note_on,2,0,4,,,,,,,,,3,,,67,92
93408,note_on,2,0,1,,,,,,,,,0,,,67,92
93408,note_on,2,0,3,,,,,,,,,2,,,67,92
93502,note_on,94,0,4,,,,,,,,,3,,,67,0
93502,note_on,94,0,3,,,,,,,,,2,,,67,0
93502,note_on,94,0,1,,,,,,,,,0,,,67,0
93504,note_on,2,0,4,,,,,,,,,3,,,67,92
93504,note_on,2,0,3,,,,,,,,,2,,,67,92
93504,note_on,2,0,1,,,,,,,,,0,,,67,92
93568,note_on,0,0,6,,,,,,,,,5,,,71,0
93568,note_on,0,0,6,,,,,,,,,5,,,67,0
93568,note_on,256,0,5,,,,,,,,,4,,,55,0
93568,note_on,256,0,7,,,,,,,,,5,,,43,0
93568,note_on,256,0,2,,,,,,,,,1,,,43,0
93568,note_on,256,0,6,,,,,,,,,5,,,62,0
93568,note_on,256,0,8,,,,,,,,,7,,,43,0
93598,note_on,94,0,1,,,,,,,,,0,,,67,0
93598,note_on,94,0,3,,,,,,,,,2,,,67,0
93598,note_on,94,0,4,,,,,,,,,3,,,67,0
93600,note_on,2,0,1,,,,,,,,,0,,,79,92
93600,note_on,2,0,3,,,,,,,,,2,,,79,92
93600,note_on,32,0,5,,,,,,,,,4,,,55,92
93600,note_on,32,0,2,,,,,,,,,1,,,43,92
93600,note_on,32,0,7,,,,,,,,,5,,,43,92
93600,note_on,32,0,8,,,,,,,,,7,,,43,92
93600,note_on,2,0,4,,,,,,,,,3,,,79,92
93600,note_on,0,0,6,,,,,,,,,5,,,71,92
93600,note_on,0,0,6,,,,,,,,,5,,,67,92
93600,note_on,32,0,6,,,,,,,,,5,,,62,92
93694,note_on,94,0,4,,,,,,,,,3,,,79,0
93694,note_on,94,0,3,,,,,,,,,2,,,79,0
93694,note_on,94,0,1,,,,,,,,,0,,,79,0
93696,note_on,2,0,4,,,,,,,,,3,,,67,92
93696,note_on,2,0,3,,,,,,,,,2,,,67,92
93696,note_on,2,0,1,,,,,,,,,0,,,67,92
93790,note_on,94,0,1,,,,,,,,,0,,,67,0
93790,note_on,94,0,3,,,,,,,,,2,,,67,0
93790,note_on,94,0,4,,,,,,,,,3,,,67,0
93792,note_on,2,0,3,,,,,,,,,2,,,67,92
93792,note_on,2,0,4,,,,,,,,,3,,,67,92
93792,note_on,2,0,1,,,,,,,,,0,,,67,92
93856,note_on,256,0,7,,,,,,,,,5,,,43,0
93856,note_on,256,0,5,,,,,,,,,4,,,55,0
93856,note_on,256,0,8,,,,,,,,,7,,,43,0
93856,note_on,0,0,6,,,,,,,,,5,,,71,0
93856,note_on,0,0,6,,,,,,,,,5,,,67,0
93856,note_on,256,0,6,,,,,,,,,5,,,62,0
93856,note_on,256,0,2,,,,,,,,,1,,,43,0
93886,note_on,94,0,4,,,,,,,,,3,,,67,0
93886,note_on,94,0,3,,,,,,,,,2,,,67,0
93886,note_on,94,0,1,,,,,,,,,0,,,67,0
93888,note_on,32,0,8,,,,,,,,,7,,,55,92
93888,note_on,32,0,7,,,,,,,,,5,,,55,92
93888,note_on,2,0,4,,,,,,,,,3,,,67,92
93888,note_on,0,0,6,,,,,,,,,5,,,67,92
93888,note_on,0,0,6,,,,,,,,,5,,,62,92
93888,note_on,32,0,6,,,,,,,,,5,,,59,92
93888,note_on,2,0,3,,,,,,,,,2,,,67,92
93888,note_on,32,0,5,,,,,,,,,4,,,67,92
93888,note_on,2,0,1,,,,,,,,,0,,,67,92
93888,note_on,32,0,2,,,,,,,,,1,,,55,92
93982,note_on,94,0,2,,,,,,,,,1,,,55,0
93982,note_on,94,0,7,,,,,,,,,5,,,55,0
93982,note_on,94,0,5,,,,,,,,,4,,,67,0
93982,note_on,94,0,8,,,,,,,,,7,,,55,0
93984,note_on,2,0,5,,,,,,,,,4,,,55,92
93984,note_on,2,0,7,,,,,,,,,5,,,43,92
93984,note_on,2,0,2,,,,,,,,,1,,,43,92
93984,note_on,2,0,8,,,,,,,,,7,,,43,92
94078,note_on,94,0,8,,,,,,,,,7,,,43,0
94078,note_on,94,0,5,,,,,,,,,4,,,55,0
94078,note_on,94,0,2,,,,,,,,,1,,,43,0
94078,note_on,94,0,7,,,,,,,,,5,,,43,0
94080,note_on,2,0,2,,,,,,,,,1,,,43,92
94080,note_on,2,0,8,,,,,,,,,7,,,43,92
94080,note_on,2,0,7,,,,,,,,,5,,,43,92
94080,note_on,2,0,5,,,,,,,,,4,,,55,92
94144,note_on,256,0,3,,,,,,,,,2,,,67,0
94144,note_on,256,0,4,,,,,,,,,3,,,67,0
94144,note_on,256,0,1,,,,,,,,,0,,,67,0
94144,note_on,256,0,6,,,,,,,,,5,,,59,0
94144,note_on,0,0,6,,,,,,,,,5,,,67,0
94144,note_on,0,0,6,,,,,,,,,5,,,62,0
94174,note_on,94,0,8,,,,,,,,,7,,,43,0
94174,note_on,94,0,7,,,,,,,,,5,,,43,0
94174,note_on,94,0,5,,,,,,,,,4,,,55,0
94174,note_on,94,0,2,,,,,,,,,1,,,43,0
94176,note_on,32,0,4,,,,,,,,,3,,,72,92
94176,note_on,2,0,7,,,,,,,,,5,,,55,92
94176,note_on,2,0,5,,,,,,,,,4,,,67,92
94176,note_on,0,0,6,,,,,,,,,5,,,72,92
94176,note_on,2,0,8,,,,,,,,,7,,,55,92
94176,note_on,32,0,3,,,,,,,,,2,,,76,92
94176,note_on,32,0,6,,,,,,,,,5,,,64,92
94176,note_on,0,0,6,,,,,,,,,5,,,67,92
94176,note_on,32,0,1,,,,,,,,,0,,,76,92
94176,note_on,2,0,2,,,,,,,,,1,,,55,92
94270,note_on,94,0,8,,,,,,,,,7,,,55,0
94270,note_on,94,0,5,,,,,,,,,4,,,67,0
94270,note_on,94,0,7,,,,,,,,,5,,,55,0
94270,note_on,94,0,2,,,,,,,,,1,,,55,0
94272,note_on,2,0,8,,,,,,,,,7,,,43,92
94272,note_on,2,0,7,,,,,,,,,5,,,43,92
94272,note_on,2,0,2,,,,,,,,,1,,,43,92
94272,note_on,2,0,5,,,,,,,,,4,,,55,92
94366,note_on,94,0,5,,,,,,,,,4,,,55,0
94366,note_on,94,0,8,,,,,,,,,7,,,43,0
94366,note_on,94,0,2,,,,,,,,,1,,,43,0
94366,note_on,94,0,7,,,,,,,,,5,,,43,0
94368,note_on,2,0,5,,,,,,,,,4,,,55,92
94368,note_on,2,0,7,,,,,,,,,5,,,43,92
94368,note_on,2,0,8,,,,,,,,,7,,,43,92
94368,note_on,2,0,2,,,,,,,,,1,,,43,92
94432,note_on,256,0,1,,,,,,,,,0,,,76,0
94432,note_on,256,0,6,,,,,,,,,5,,,64,0
94432,note_on,0,0,6,,,,,,,,,5,,,67,0
94432,note_on,0,0,6,,,,,,,,,5,,,72,0
94432,note_on,256,0,4,,,,,,,,,3,,,72,0
94432,note_on,256,0,3,,,,,,,,,2,,,76,0
94462,note_on,94,0,7,,,,,,,,,5,,,43,0
94462,note_on,94,0,8,,,,,,,,,7,,,43,0
94462,note_on,94,0,2,,,,,,,,,1,,,43,0
94462,note_on,94,0,5,,,,,,,,,4,,,55,0
94464,note_on,32,0,4,,,,,,,,,3,,,71,92
94464,note_on,2,0,7,,,,,,,,,5,,,43,92
94464,note_on,32,0,3,,,,,,,,,2,,,74,92
94464,note_on,2,0,8,,,,,,,,,7,,,43,92
94464,note_on,0,0,6,,,,,,,,,5,,,67,92
94464,note_on,2,0,5,,,,,,,,,4,,,55,92
94464,note_on,32,0,6,,,,,,,,,5,,,62,92
94464,note_on,0,0,6,,,,,,,,,5,,,71,92
94464,note_on,2,0,2,,,,,,,,,1,,,43,92
94464,note_on,32,0,1,,,,,,,,,0,,,74,92
94558,note_on,94,0,7,,,,,,,,,5,,,43,0
94558,note_on,94,0,4,,,,,,,,,3,,,71,0
94558,note_on,94,0,8,,,,,,,,,7,,,43,0
94558,note_on,94,0,2,,,,,,,,,1,,,43,0
94558,note_on,94,0,3,,,,,,,,,2,,,74,0
94558,note_on,94,0,1,,,,,,,,,0,,,74,0
94558,note_on,94,0,5,,,,,,,,,4,,,55,0
94560,note_on,2,0,8,,,,,,,,,7,,,55,92
94560,note_on,2,0,3,,,,,,,,,2,,,79,92
94560,note_on,2,0,2,,,,,,,,,1,,,55,92
94560,note_on,2,0,7,,,,,,,,,5,,,55,92
94560,note_on,2,0,5,,,,,,,,,4,,,67,92
94560,note_on,2,0,1,,,,,,,,,0,,,79,92
94560,note_on,2,0,4,,,,,,,,,3,,,74,92
94654,note_on,94,0,8,,,,,,,,,7,,,55,0
94654,note_on,94,0,4,,,,,,,,,3,,,74,0
94654,note_on,94,0,2,,,,,,,,,1,,,55,0
94654,note_on,94,0,3,,,,,,,,,2,,,79,0
94654,note_on,94,0,5,,,,,,,,,4,,,67,0
94654,note_on,94,0,1,,,,,,,,,0,,,79,0
94654,note_on,94,0,7,,,,,,,,,5,,,55,0
94656,note_on,2,0,4,,,,,,,,,3,,,79,92
94656,note_on,2,0,3,,,,,,,,,2,,,83,92
94656,note_on,2,0,5,,,,,,,,,4,,,55,92
94656,note_on,2,0,1,,,,,,,,,0,,,83,92
94656,note_on,2,0,8,,,,,,,,,7,,,43,92
94656,note_on,2,0,7,,,,,,,,,5,,,43,92
94656,note_on,2,0,2,,,,,,,,,1,,,43,92
94720,note_on,256,0,6,,,,,,,,,5,,,62,0
94720,note_on,0,0,6,,,,,,,,,5,,,67,0
94720,note_on,0,0,6,,,,,,,,,5,,,71,0
94750,note_on,94,0,8,,,,,,,,,7,,,43,0
94750,note_on,94,0,5,,,,,,,,,4,,,55,0
94750,note_on,94,0,2,,,,,,,,,1,,,43,0
94750,note_on,94,0,4,,,,,,,,,3,,,79,0
94750,note_on,94,0,3,,,,,,,,,2,,,83,0
94750,note_on,94,0,1,,,,,,,,,0,,,83,0
94750,note_on,94,0,7,,,,,,,,,5,,,43,0
94752,note_on,2,0,2,,,,,,,,,1,,,43,92
94752,note_on,32,0,6,,,,,,,,,5,,,62,92
94752,note_on,2,0,1,,,,,,,,,0,,,74,92
94752,note_on,2,0,4,,,,,,,,,3,,,71,92
94752,note_on,2,0,8,,,,,,,,,7,,,43,92
94752,note_on,2,0,7,,,,,,,,,5,,,43,92
94752,note_on,2,0,5,,,,,,,,,4,,,55,92
94752,note_on,2,0,3,,,,,,,,,2,,,74,92
94752,note_on,0,0,6,,,,,,,,,5,,,71,92
94752,note_on,0,0,6,,,,,,,,,5,,,67,92
94846,note_on,94,0,4,,,,,,,,,3,,,71,0
94846,note_on,94,0,1,,,,,,,,,0,,,74,0
94846,note_on,94,0,3,,,,,,,,,2,,,74,0
94848,note_on,2,0,1,,,,,,,,,0,,,79,92
94848,note_on,2,0,4,,,,,,,,,3,,,74,92
94848,note_on,2,0,3,,,,,,,,,2,,,79,92
94912,note_on,160,0,5,,,,,,,,,4,,,55,0
94912,note_on,0,0,6,,,,,,,,,5,,,71,0
94912,note_on,160,0,6,,,,,,,,,5,,,62,0
94912,note_on,160,0,8,,,,,,,,,7,,,43,0
94912,note_on,0,0,6,,,,,,,,,5,,,67,0
94912,note_on,160,0,2,,,,,,,,,1,,,43,0
94912,note_on,160,0,7,,,,,,,,,5,,,43,0
94942,note_on,94,0,3,,,,,,,,,2,,,79,0
94942,note_on,94,0,1,,,,,,,,,0,,,79,0
94942,note_on,94,0,4,,,,,,,,,3,,,74,0
94944,note_on,2,0,1,,,,,,,,,0,,,83,92
94944,note_on,2,0,4,,,,,,,,,3,,,79,92
94944,note_on,2,0,3,,,,,,,,,2,,,83,92
95038,note_on,94,0,1,,,,,,,,,0,,,83,0
95038,note_on,94,0,4,,,,,,,,,3,,,79,0
95038,note_on,94,0,3,,,,,,,,,2,,,83,0
95040,note_on,128,0,2,,,,,,,,,1,,,50,92
95040,note_on,128,0,5,,,,,,,,,4,,,62,92
95040,note_on,2,0,1,,,,,,,,,0,,,72,92
95040,note_on,128,0,6,,,,,,,,,5,,,62,92
95040,note_on,128,0,7,,,,,,,,,5,,,50,92
95040,note_on,2,0,4,,,,,,,,,3,,,69,92
95040,note_on,0,0,6,,,,,,,,,5,,,69,92
95040,note_on,0,0,6,,,,,,,,,5,,,66,92
95040,note_on,128,0,8,,,,,,,,,7,,,50,92
95040,note_on,2,0,3,,,,,,,,,2,,,72,92
95134,note_on,94,0,2,,,,,,,,,1,,,50,0
95134,note_on,94,0,4,,,,,,,,,3,,,69,0
95134,note_on,94,0,1,,,,,,,,,0,,,72,0
95134,note_on,94,0,5,,,,,,,,,4,,,62,0
95134,note_on,94,0,3,,,,,,,,,2,,,72,0
95134,note_on,94,0,8,,,,,,,,,7,,,50,0
95134,note_on,94,0,7,,,,,,,,,5,,,50,0
95136,note_on,2,0,5,,,,,,,,,4,,,74,92
95136,note_on,2,0,1,,,,,,,,,0,,,78,92
95136,note_on,2,0,8,,,,,,,,,7,,,62,92
95136,note_on,2,0,4,,,,,,,,,3,,,72,92
95136,note_on,2,0,3,,,,,,,,,2,,,78,92
95136,note_on,2,0,7,,,,,,,,,5,,,62,92
95136,note_on,2,0,2,,,,,,,,,1,,,62,92
95230,note_on,94,0,7,,,,,,,,,5,,,62,0
95230,note_on,94,0,4,,,,,,,,,3,,,72,0
95230,note_on,94,0,1,,,,,,,,,0,,,78,0
95230,note_on,94,0,3,,,,,,,,,2,,,78,0
95230,note_on,94,0,8,,,,,,,,,7,,,62,0
95230,note_on,94,0,5,,,,,,,,,4,,,74,0
95230,note_on,94,0,2,,,,,,,,,1,,,62,0
95232,note_on,2,0,3,,,,,,,,,2,,,81,92
95232,note_on,2,0,7,,,,,,,,,5,,,50,92
95232,note_on,2,0,5,,,,,,,,,4,,,62,92
95232,note_on,2,0,4,,,,,,,,,3,,,78,92
95232,note_on,2,0,2,,,,,,,,,1,,,50,92
95232,note_on,2,0,8,,,,,,,,,7,,,50,92
95232,note_on,2,0,1,,,,,,,,,0,,,81,92
95296,note_on,0,0,6,,,,,,,,,5,,,66,0
95296,note_on,256,0,6,,,,,,,,,5,,,62,0
95296,note_on,0,0,6,,,,,,,,,5,,,69,0
95326,note_on,94,0,1,,,,,,,,,0,,,81,0
95326,note_on,94,0,5,,,,,,,,,4,,,62,0
95326,note_on,94,0,3,,,,,,,,,2,,,81,0
95326,note_on,94,0,4,,,,,,,,,3,,,78,0
95326,note_on,94,0,2,,,,,,,,,1,,,50,0
95326,note_on,94,0,7,,,,,,,,,5,,,50,0
95326,note_on,94,0,8,,,,,,,,,7,,,50,0
95328,note_on,2,0,5,,,,,,,,,4,,,62,92
95328,note_on,2,0,2,,,,,,,,,1,,,50,92
95328,note_on,2,0,8,,,,,,,,,7,,,50,92
95328,note_on,0,0,6,,,,,,,,,5,,,66,92
95328,note_on,2,0,3,,,,,,,,,2,,,72,92
95328,note_on,32,0,6,,,,,,,,,5,,,62,92
95328,note_on,2,0,7,,,,,,,,,5,,,50,92
95328,note_on,2,0,4,,,,,,,,,3,,,69,92
95328,note_on,2,0,1,,,,,,,,,0,,,72,92
95328,note_on,0,0,6,,,,,,,,,5,,,69,92
95422,note_on,94,0,4,,,,,,,,,3,,,69,0
95422,note_on,94,0,3,,,,,,,,,2,,,72,0
95422,note_on,94,0,1,,,,,,,,,0,,,72,0
95424,note_on,2,0,1,,,,,,,,,0,,,78,92
95424,note_on,2,0,3,,,,,,,,,2,,,78,92
95424,note_on,2,0,4,,,,,,,,,3,,,72,92
95488,note_on,160,0,7,,,,,,,,,5,,,50,0
95488,note_on,0,0,6,,,,,,,,,5,,,69,0
95488,note_on,160,0,5,,,,,,,,,4,,,62,0
95488,note_on,160,0,2,,,,,,,,,1,,,50,0
95488,note_on,160,0,8,,,,,,,,,7,,,50,0
95488,note_on,160,0,6,,,,,,,,,5,,,62,0
95488,note_on,0,0,6,,,,,,,,,5,,,66,0
95518,note_on,94,0,3,,,,,,,,,2,,,78,0
95518,note_on,94,0,1,,,,,,,,,0,,,78,0
95518,note_on,94,0,4,,,,,,,,,3,,,72,0
95520,note_on,2,0,1,,,,,,,,,0,,,81,92
95520,note_on,2,0,3,,,,,,,,,2,,,81,92
95520,note_on,2,0,4,,,,,,,,,3,,,78,92
95614,note_on,94,0,4,,,,,,,,,3,,,78,0
95614,note_on,94,0,1,,,,,,,,,0,,,81,0
95614,note_on,94,0,3,,,,,,,,,2,,,81,0
95616,note_on,128,0,8,,,,,,,,,7,,,43,92
95616,note_on,128,0,7,,,,,,,,,5,,,43,92
95616,note_on,128,0,5,,,,,,,,,4,,,55,92
95616,note_on,0,0,6,,,,,,,,,5,,,66,92
95616,note_on,2,0,3,,,,,,,,,2,,,71,92
95616,note_on,128,0,2,,,,,,,,,1,,,43,92
95616,note_on,0,0,6,,,,,,,,,5,,,71,92
95616,note_on,2,0,1,,,,,,,,,0,,,71,92
95616,note_on,128,0,6,,,,,,,,,5,,,62,92
95616,note_on,2,0,4,,,,,,,,,3,,,67,92
95710,note_on,94,0,3,,,,,,,,,2,,,71,0
95710,note_on,94,0,5,,,,,,,,,4,,,55,0
95710,note_on,94,0,7,,,,,,,,,5,,,43,0
95710,note_on,94,0,4,,,,,,,,,3,,,67,0
95710,note_on,94,0,8,,,,,,,,,7,,,43,0
95710,note_on,94,0,2,,,,,,,,,1,,,43,0
95710,note_on,94,0,1,,,,,,,,,0,,,71,0
95712,note_on,2,0,4,,,,,,,,,3,,,71,92
95712,note_on,2,0,1,,,,,,,,,0,,,74,92
95712,note_on,2,0,3,,,,,,,,,2,,,74,92
95712,note_on,2,0,2,,,,,,,,,1,,,55,92
95712,note_on,2,0,8,,,,,,,,,7,,,55,92
95712,note_on,2,0,5,,,,,,,,,4,,,67,92
95712,note_on,2,0,7,,,,,,,,,5,,,55,92
95806,note_on,94,0,4,,,,,,,,,3,,,71,0
95806,note_on,94,0,3,,,,,,,,,2,,,74,0
95806,note_on,94,0,7,,,,,,,,,5,,,55,0
95806,note_on,94,0,1,,,,,,,,,0,,,74,0
95806,note_on,94,0,5,,,,,,,,,4,,,67,0
95806,note_on,94,0,2,,,,,,,,,1,,,55,0
95806,note_on,94,0,8,,,,,,,,,7,,,55,0
95808,note_on,2,0,4,,,,,,,,,3,,,74,92
95808,note_on,2,0,2,,,,,,,,,1,,,43,92
95808,note_on,2,0,7,,,,,,,,,5,,,43,92
95808,note_on,2,0,1,,,,,,,,,0,,,79,92
95808,note_on,2,0,5,,,,,,,,,4,,,55,92
95808,note_on,2,0,3,,,,,,,,,2,,,79,92
95808,note_on,2,0,8,,,,,,,,,7,,,43,92
95872,note_on,256,0,6,,,,,,,,,5,,,62,0
95872,note_on,0,0,6,,,,,,,,,5,,,66,0
95872,note_on,0,0,6,,,,,,,,,5,,,71,0
95902,note_on,94,0,3,,,,,,,,,2,,,79,0
95902,note_on,94,0,1,,,,,,,,,0,,,79,0
95902,note_on,94,0,2,,,,,,,,,1,,,43,0
95902,note_on,94,0,7,,,,,,,,,5,,,43,0
95902,note_on,94,0,8,,,,,,,,,7,,,43,0
95902,note_on,94,0,5,,,,,,,,,4,,,55,0
95902,note_on,94,0,4,,,,,,,,,3,,,74,0
95904,note_on,32,0,6,,,,,,,,,5,,,62,92
95904,note_on,2,0,3,,,,,,,,,2,,,71,92
95904,note_on,0,0,6,,,,,,,,,5,,,67,92
95904,note_on,0,0,6,,,,,,,,,5,,,71,92
95904,note_on,2,0,1,,,,,,,,,0,,,71,92
95904,note_on,2,0,2,,,,,,,,,1,,,43,92
95904,note_on,2,0,5,,,,,,,,,4,,,55,92
95904,note_on,2,0,4,,,,,,,,,3,,,67,92
95904,note_on,2,0,7,,,,,,,,,5,,,43,92
95904,note_on,2,0,8,,,,,,,,,7,,,43,92
95998,note_on,94,0,3,,,,,,,,,2,,,71,0
95998,note_on,94,0,1,,,,,,,,,0,,,71,0
95998,note_on,94,0,4,,,,,,,,,3,,,67,0
96000,note_on,2,0,3,,,,,,,,,2,,,74,92
96000,note_on,2,0,1,,,,,,,,,0,,,74,92
96000,note_on,2,0,4,,,,,,,,,3,,,71,92
96064,note_on,0,0,6,,,,,,,,,5,,,71,0
96064,note_on,0,0,6,,,,,,,,,5,,,67,0
96064,note_on,160,0,7,,,,,,,,,5,,,43,0
96064,note_on,160,0,8,,,,,,,,,7,,,43,0
96064,note_on,160,0,5,,,,,,,,,4,,,55,0
96064,note_on,160,0,2,,,,,,,,,1,,,43,0
96064,note_on,160,0,6,,,,,,,,,5,,,62,0
96094,note_on,94,0,1,,,,,,,,,0,,,74,0
96094,note_on,94,0,3,,,,,,,,,2,,,74,0
96094,note_on,94,0,4,,,,,,,,,3,,,71,0
96096,note_on,2,0,3,,,,,,,,,2,,,79,92
96096,note_on,2,0,4,,,,,,,,,3,,,74,92
96096,note_on,2,0,1,,,,,,,,,0,,,79,92
96190,note_on,94,0,3,,,,,,,,,2,,,79,0
96190,note_on,94,0,4,,,,,,,,,3,,,74,0
96190,note_on,94,0,1,,,,,,,,,0,,,79,0
96192,note_on,0,0,6,,,,,,,,,5,,,69,92
96192,note_on,128,0,6,,,,,,,,,5,,,66,92
96192,note_on,2,0,4,,,,,,,,,3,,,66,92
96192,note_on,2,0,1,,,,,,,,,0,,,69,92
96192,note_on,0,0,6,,,,,,,,,5,,,74,92
96192,note_on,128,0,8,,,,,,,,,7,,,62,92
96192,note_on,128,0,7,,,,,,,,,5,,,62,92
96192,note_on,128,0,5,,,,,,,,,4,,,74,92
96192,note_on,128,0,2,,,,,,,,,1,,,62,92
96192,note_on,2,0,3,,,,,,,,,2,,,69,92
96286,note_on,94,0,7,,,,,,,,,5,,,62,0
96286,note_on,94,0,5,,,,,,,,,4,,,74,0
96286,note_on,94,0,8,,,,,,,,,7,,,62,0
96286,note_on,94,0,2,,,,,,,,,1,,,62,0
96288,note_on,2,0,8,,,,,,,,,7,,,50,92
96288,note_on,2,0,2,,,,,,,,,1,,,50,92
96288,note_on,2,0,5,,,,,,,,,4,,,62,92
96288,note_on,2,0,7,,,,,,,,,5,,,50,92
96382,note_on,94,0,5,,,,,,,,,4,,,62,0
96382,note_on,94,0,2,,,,,,,,,1,,,50,0
96382,note_on,94,0,8,,,,,,,,,7,,,50,0
96382,note_on,94,0,7,,,,,,,,,5,,,50,0
96384,note_on,2,0,2,,,,,,,,,1,,,50,92
96384,note_on,2,0,7,,,,,,,,,5,,,50,92
96384,note_on,2,0,5,,,,,,,,,4,,,62,92
96384,note_on,2,0,8,,,,,,,,,7,,,50,92
96448,note_on,0,0,6,,,,,,,,,5,,,69,0
96448,note_on,0,0,6,,,,,,,,,5,,,74,0
96448,note_on,256,0,6,,,,,,,,,5,,,66,0
96448,note_on,256,0,4,,,,,,,,,3,,,66,0
96448,note_on,256,0,1,,,,,,,,,0,,,69,0
96448,note_on,256,0,3,,,,,,,,,2,,,69,0
96478,note_on,94,0,2,,,,,,,,,1,,,50,0
96478,note_on,94,0,5,,,,,,,,,4,,,62,0
96478,note_on,94,0,7,,,,,,,,,5,,,50,0
96478,note_on,94,0,8,,,,,,,,,7,,,50,0
96480,note_on,2,0,8,,,,,,,,,7,,,62,92
96480,note_on,2,0,7,,,,,,,,,5,,,62,92
96480,note_on,0,0,6,,,,,,,,,5,,,74,92
96480,note_on,2,0,5,,,,,,,,,4,,,74,92
96480,note_on,2,0,2,,,,,,,,,1,,,62,92
96480,note_on,32,0,6,,,,,,,,,5,,,66,92
96480,note_on,0,0,6,,,,,,,,,5,,,69,92
96574,note_on,94,0,8,,,,,,,,,7,,,62,0
96574,note_on,94,0,2,,,,,,,,,1,,,62,0
96574,note_on,94,0,7,,,,,,,,,5,,,62,0
96574,note_on,94,0,5,,,,,,,,,4,,,74,0
96576,note_on,2,0,2,,,,,,,,,1,,,50,92
96576,note_on,2,0,8,,,,,,,,,7,,,50,92
96576,note_on,2,0,7,,,,,,,,,5,,,50,92
96576,note_on,2,0,5,,,,,,,,,4,,,62,92
96670,note_on,94,0,7,,,,,,,,,5,,,50,0
96670,note_on,94,0,5,,,,,,,,,4,,,62,0
96670,note_on,94,0,8,,,,,,,,,7,,,50,0
96670,note_on,94,0,2,,,,,,,,,1,,,50,0
96672,note_on,2,0,8,,,,,,,,,7,,,50,92
96672,note_on,224,0,1,,,,,,,,,0,,,86,92
96672,note_on,2,0,5,,,,,,,,,4,,,62,92
96672,note_on,224,0,3,,,,,,,,,2,,,86,92
96672,note_on,2,0,2,,,,,,,,,1,,,50,92
96672,note_on,2,0,7,,,,,,,,,5,,,50,92
96736,note_on,256,0,6,,,,,,,,,5,,,66,0
96736,note_on,0,0,6,,,,,,,,,5,,,74,0
96736,note_on,0,0,6,,,,,,,,,5,,,69,0
96766,note_on,94,0,7,,,,,,,,,5,,,50,0
96766,note_on,94,0,8,,,,,,,,,7,,,50,0
96766,note_on,94,0,5,,,,,,,,,4,,,62,0
96766,note_on,94,0,1,,,,,,,,,0,,,86,0
96766,note_on,94,0,2,,,,,,,,,1,,,50,0
96766,note_on,94,0,3,,,,,,,,,2,,,86,0
96768,note_on,0,0,6,,,,,,,,,5,,,74,92
96768,note_on,32,0,6,,,,,,,,,5,,,66,92
96768,note_on,2,0,7,,,,,,,,,5,,,50,92
96768,note_on,2,0,3,,,,,,,,,2,,,86,92
96768,note_on,2,0,2,,,,,,,,,1,,,50,92
96768,note_on,2,0,8,,,,,,,,,7,,,50,92
96768,note_on,2,0,1,,,,,,,,,0,,,86,92
96768,note_on,2,0,5,,,,,,,,,4,,,66,92
96768,note_on,0,0,6,,,,,,,,,5,,,69,92
96816,note_on,0,0,2,,,,,,,,,1,,,52,92
96816,note_on,48,0,8,,,,,,,,,7,,,50,0
96816,note_on,48,0,5,,,,,,,,,4,,,66,0
96816,note_on,0,0,8,,,,,,,,,7,,,52,92
96816,note_on,48,0,2,,,,,,,,,1,,,50,0
96816,note_on,48,0,7,,,,,,,,,5,,,50,0
96816,note_on,0,0,5,,,,,,,,,4,,,67,92
96816,note_on,0,0,7,,,,,,,,,5,,,52,92
96862,note_on,94,0,1,,,,,,,,,0,,,86,0
96862,note_on,94,0,3,,,,,,,,,2,,,86,0
96864,note_on,0,0,5,,,,,,,,,4,,,69,92
96864,note_on,2,0,3,,,,,,,,,2,,,74,92
96864,note_on,48,0,2,,,,,,,,,1,,,52,0
96864,note_on,48,0,7,,,,,,,,,5,,,52,0
96864,note_on,0,0,8,,,,,,,,,7,,,54,92
96864,note_on,48,0,8,,,,,,,,,7,,,52,0
96864,note_on,2,0,1,,,,,,,,,0,,,74,92
96864,note_on,0,0,7,,,,,,,,,5,,,54,92
96864,note_on,0,0,2,,,,,,,,,1,,,54,92
96864,note_on,48,0,5,,,,,,,,,4,,,67,0
96958,note_on,94,0,1,,,,,,,,,0,,,74,0
96958,note_on,94,0,8,,,,,,,,,7,,,54,0
96958,note_on,94,0,3,,,,,,,,,2,,,74,0
96958,note_on,94,0,7,,,,,,,,,5,,,54,0
96958,note_on,94,0,2,,,,,,,,,1,,,54,0
96958,note_on,94,0,5,,,,,,,,,4,,,69,0
96960,note_on,2,0,8,,,,,,,,,7,,,50,92
96960,note_on,2,0,3,,,,,,,,,2,,,74,92
96960,note_on,2,0,1,,,,,,,,,0,,,74,92
96960,note_on,2,0,7,,,,,,,,,5,,,50,92
96960,note_on,2,0,2,,,,,,,,,1,,,50,92
96960,note_on,2,0,5,,,,,,,,,4,,,66,92
97024,note_on,256,0,6,,,,,,,,,5,,,66,0
97024,note_on,0,0,6,,,,,,,,,5,,,74,0
97024,note_on,0,0,6,,,,,,,,,5,,,69,0
97054,note_on,94,0,5,,,,,,,,,4,,,66,0
97054,note_on,94,0,8,,,,,,,,,7,,,50,0
97054,note_on,94,0,2,,,,,,,,,1,,,50,0
97054,note_on,94,0,3,,,,,,,,,2,,,74,0
97054,note_on,94,0,1,,,,,,,,,0,,,74,0
97054,note_on,94,0,7,,,,,,,,,5,,,50,0
97056,note_on,2,0,3,,,,,,,,,2,,,86,92
97056,note_on,2,0,1,,,,,,,,,0,,,86,92
97150,note_on,94,0,1,,,,,,,,,0,,,86,0
97150,note_on,94,0,3,,,,,,,,,2,,,86,0
97152,note_on,2,0,1,,,,,,,,,0,,,74,92
97152,note_on,2,0,3,,,,,,,,,2,,,74,92
97246,note_on,94,0,1,,,,,,,,,0,,,74,0
97246,note_on,94,0,3,,,,,,,,,2,,,74,0
97248,note_on,2,0,3,,,,,,,,,2,,,74,92
97248,note_on,800,0,4,,,,,,,,,3,,,86,92
97248,note_on,2,0,1,,,,,,,,,0,,,74,92
97342,note_on,94,0,4,,,,,,,,,3,,,86,0
97342,note_on,94,0,3,,,,,,,,,2,,,74,0
97342,note_on,94,0,1,,,,,,,,,0,,,74,0
97344,note_on,290,0,5,,,,,,,,,4,,,66,92
97344,note_on,2,0,4,,,,,,,,,3,,,86,92
97344,note_on,290,0,2,,,,,,,,,1,,,50,92
97344,note_on,290,0,7,,,,,,,,,5,,,50,92
97344,note_on,0,0,6,,,,,,,,,5,,,74,92
97344,note_on,320,0,6,,,,,,,,,5,,,66,92
97344,note_on,0,0,6,,,,,,,,,5,,,69,92
97344,note_on,2,0,3,,,,,,,,,2,,,74,92
97344,note_on,2,0,1,,,,,,,,,0,,,74,92
97344,note_on,290,0,8,,,,,,,,,7,,,50,92
97392,note_on,48,0,2,,,,,,,,,1,,,50,0
97392,note_on,48,0,8,,,,,,,,,7,,,50,0
97392,note_on,0,0,8,,,,,,,,,7,,,52,92
97392,note_on,48,0,7,,,,,,,,,5,,,50,0
97392,note_on,0,0,2,,,,,,,,,1,,,52,92
97392,note_on,48,0,5,,,,,,,,,4,,,66,0
97392,note_on,0,0,7,,,,,,,,,5,,,52,92
97392,note_on,0,0,5,,,,,,,,,4,,,67,92
97438,note_on,94,0,4,,,,,,,,,3,,,86,0
97440,note_on,0,0,8,,,,,,,,,7,,,54,92
97440,note_on,48,0,2,,,,,,,,,1,,,52,0
97440,note_on,0,0,2,,,,,,,,,1,,,54,92
97440,note_on,2,0,4,,,,,,,,,3,,,74,92
97440,note_on,48,0,8,,,,,,,,,7,,,52,0
97440,note_on,48,0,7,,,,,,,,,5,,,52,0
97440,note_on,48,0,5,,,,,,,,,4,,,67,0
97440,note_on,0,0,5,,,,,,,,,4,,,69,92
97440,note_on,0,0,7,,,,,,,,,5,,,54,92
97534,note_on,94,0,2,,,,,,,,,1,,,54,0
97534,note_on,94,0,5,,,,,,,,,4,,,69,0
97534,note_on,94,0,4,,,,,,,,,3,,,74,0
97534,note_on,94,0,7,,,,,,,,,5,,,54,0
97534,note_on,94,0,8,,,,,,,,,7,,,54,0
97536,note_on,2,0,5,,,,,,,,,4,,,66,92
97536,note_on,2,0,2,,,,,,,,,1,,,50,92
97536,note_on,2,0,8,,,,,,,,,7,,,50,92
97536,note_on,2,0,4,,,,,,,,,3,,,74,92
97536,note_on,2,0,7,,,,,,,,,5,,,50,92
97600,note_on,256,0,3,,,,,,,,,2,,,74,0
97600,note_on,0,0,6,,,,,,,,,5,,,69,0
97600,note_on,0,0,6,,,,,,,,,5,,,74,0
97600,note_on,256,0,1,,,,,,,,,0,,,74,0
97600,note_on,256,0,6,,,,,,,,,5,,,66,0
97630,note_on,94,0,7,,,,,,,,,5,,,50,0
97630,note_on,94,0,2,,,,,,,,,1,,,50,0
97630,note_on,94,0,8,,,,,,,,,7,,,50,0
97630,note_on,94,0,4,,,,,,,,,3,,,74,0
97630,note_on,94,0,5,,,,,,,,,4,,,66,0
97632,note_on,32,0,3,,,,,,,,,2,,,86,92
97632,note_on,32,0,1,,,,,,,,,0,,,86,92
97632,note_on,2,0,4,,,,,,,,,3,,,86,92
97726,note_on,94,0,4,,,,,,,,,3,,,86,0
97728,note_on,2,0,4,,,,,,,,,3,,,74,92
97822,note_on,94,0,4,,,,,,,,,3,,,74,0
97824,note_on,2,0,4,,,,,,,,,3,,,74,92
97888,note_on,256,0,1,,,,,,,,,0,,,86,0
97888,note_on,256,0,3,,,,,,,,,2,,,86,0
97918,note_on,94,0,4,,,,,,,,,3,,,74,0
97920,note_on,290,0,7,,,,,,,,,5,,,50,92
97920,note_on,290,0,2,,,,,,,,,1,,,50,92
97920,note_on,290,0,5,,,,,,,,,4,,,66,92
97920,note_on,32,0,1,,,,,,,,,0,,,84,92
97920,note_on,320,0,6,,,,,,,,,5,,,62,92
97920,note_on,0,0,6,,,,,,,,,5,,,66,92
97920,note_on,0,0,6,,,,,,,,,5,,,72,92
97920,note_on,290,0,8,,,,,,,,,7,,,50,92
97920,note_on,2,0,4,,,,,,,,,3,,,74,92
97920,note_on,32,0,3,,,,,,,,,2,,,84,92
97968,note_on,48,0,8,,,,,,,,,7,,,50,0
97968,note_on,0,0,5,,,,,,,,,4,,,67,92
97968,note_on,48,0,2,,,,,,,,,1,,,50,0
97968,note_on,0,0,8,,,,,,,,,7,,,52,92
97968,note_on,0,0,7,,,,,,,,,5,,,52,92
97968,note_on,48,0,7,,,,,,,,,5,,,50,0
97968,note_on,0,0,2,,,,,,,,,1,,,52,92
97968,note_on,48,0,5,,,,,,,,,4,,,66,0
98014,note_on,94,0,1,,,,,,,,,0,,,84,0
98014,note_on,94,0,3,,,,,,,,,2,,,84,0
98016,note_on,48,0,8,,,,,,,,,7,,,52,0
98016,note_on,0,0,7,,,,,,,,,5,,,54,92
98016,note_on,2,0,3,,,,,,,,,2,,,74,92
98016,note_on,2,0,1,,,,,,,,,0,,,74,92
98016,note_on,48,0,7,,,,,,,,,5,,,52,0
98016,note_on,0,0,8,,,,,,,,,7,,,54,92
98016,note_on,0,0,5,,,,,,,,,4,,,69,92
98016,note_on,48,0,2,,,,,,,,,1,,,52,0
98016,note_on,0,0,2,,,,,,,,,1,,,54,92
98016,note_on,48,0,5,,,,,,,,,4,,,67,0
98110,note_on,94,0,1,,,,,,,,,0,,,74,0
98110,note_on,94,0,8,,,,,,,,,7,,,54,0
98110,note_on,94,0,5,,,,,,,,,4,,,69,0
98110,note_on,94,0,3,,,,,,,,,2,,,74,0
98110,note_on,94,0,7,,,,,,,,,5,,,54,0
98110,note_on,94,0,2,,,,,,,,,1,,,54,0
98112,note_on,2,0,2,,,,,,,,,1,,,50,92
98112,note_on,2,0,1,,,,,,,,,0,,,74,92
98112,note_on,2,0,5,,,,,,,,,4,,,66,92
98112,note_on,2,0,7,,,,,,,,,5,,,50,92
98112,note_on,2,0,8,,,,,,,,,7,,,50,92
98112,note_on,2,0,3,,,,,,,,,2,,,74,92
98176,note_on,256,0,4,,,,,,,,,3,,,74,0
98176,note_on,256,0,6,,,,,,,,,5,,,62,0
98176,note_on,0,0,6,,,,,,,,,5,,,66,0
98176,note_on,0,0,6,,,,,,,,,5,,,72,0
98206,note_on,94,0,7,,,,,,,,,5,,,50,0
98206,note_on,94,0,8,,,,,,,,,7,,,50,0
98206,note_on,94,0,2,,,,,,,,,1,,,50,0
98206,note_on,94,0,1,,,,,,,,,0,,,74,0
98206,note_on,94,0,3,,,,,,,,,2,,,74,0
98206,note_on,94,0,5,,,,,,,,,4,,,66,0
98208,note_on,32,0,4,,,,,,,,,3,,,84,92
98208,note_on,2,0,3,,,,,,,,,2,,,84,92
98208,note_on,2,0,1,,,,,,,,,0,,,84,92
98302,note_on,94,0,3,,,,,,,,,2,,,84,0
98302,note_on,94,0,1,,,,,,,,,0,,,84,0
98304,note_on,2,0,1,,,,,,,,,0,,,74,92
98304,note_on,2,0,3,,,,,,,,,2,,,74,92
98398,note_on,94,0,3,,,,,,,,,2,,,74,0
98398,note_on,94,0,1,,,,,,,,,0,,,74,0
98400,note_on,2,0,1,,,,,,,,,0,,,74,92
98400,note_on,2,0,3,,,,,,,,,2,,,74,92
98464,note_on,256,0,4,,,,,,,,,3,,,84,0
98494,note_on,94,0,3,,,,,,,,,2,,,74,0
98494,note_on,94,0,1,,,,,,,,,0,,,74,0
98496,note_on,32,0,4,,,,,,,,,3,,,84,92
98496,note_on,290,0,2,,,,,,,,,1,,,50,92
98496,note_on,320,0,6,,,,,,,,,5,,,62,92
98496,note_on,0,0,6,,,,,,,,,5,,,66,92
98496,note_on,0,0,6,,,,,,,,,5,,,72,92
98496,note_on,290,0,7,,,,,,,,,5,,,50,92
98496,note_on,290,0,8,,,,,,,,,7,,,50,92
98496,note_on,2,0,1,,,,,,,,,0,,,74,92
98496,note_on,2,0,3,,,,,,,,,2,,,74,92
98496,note_on,290,0,5,,,,,,,,,4,,,66,92
98544,note_on,48,0,8,,,,,,,,,7,,,50,0
98544,note_on,0,0,8,,,,,,,,,7,,,52,92
98544,note_on,0,0,5,,,,,,,,,4,,,67,92
98544,note_on,48,0,7,,,,,,,,,5,,,50,0
98544,note_on,48,0,2,,,,,,,,,1,,,50,0
98544,note_on,0,0,2,,,,,,,,,1,,,52,92
98544,note_on,48,0,5,,,,,,,,,4,,,66,0
98544,note_on,0,0,7,,,,,,,,,5,,,52,92
98590,note_on,94,0,4,,,,,,,,,3,,,84,0
98592,note_on,0,0,5,,,,,,,,,4,,,69,92
98592,note_on,48,0,2,,,,,,,,,1,,,52,0
98592,note_on,2,0,4,,,,,,,,,3,,,74,92
98592,note_on,0,0,8,,,,,,,,,7,,,54,92
98592,note_on,48,0,7,,,,,,,,,5,,,52,0
98592,note_on,0,0,7,,,,,,,,,5,,,54,92
98592,note_on,48,0,5,,,,,,,,,4,,,67,0
98592,note_on,0,0,2,,,,,,,,,1,,,54,92
98592,note_on,48,0,8,,,,,,,,,7,,,52,0
98686,note_on,94,0,4,,,,,,,,,3,,,74,0
98686,note_on,94,0,7,,,,,,,,,5,,,54,0
98686,note_on,94,0,8,,,,,,,,,7,,,54,0
98686,note_on,94,0,5,,,,,,,,,4,,,69,0
98686,note_on,94,0,2,,,,,,,,,1,,,54,0
98688,note_on,2,0,5,,,,,,,,,4,,,66,92
98688,note_on,2,0,4,,,,,,,,,3,,,74,92
98688,note_on,2,0,7,,,,,,,,,5,,,50,92
98688,note_on,2,0,2,,,,,,,,,1,,,50,92
98688,note_on,2,0,8,,,,,,,,,7,,,50,92
98752,note_on,256,0,1,,,,,,,,,0,,,74,0
98752,note_on,256,0,6,,,,,,,,,5,,,62,0
98752,note_on,0,0,6,,,,,,,,,5,,,66,0
98752,note_on,256,0,3,,,,,,,,,2,,,74,0
98752,note_on,0,0,6,,,,,,,,,5,,,72,0
98782,note_on,94,0,2,,,,,,,,,1,,,50,0
98782,note_on,94,0,7,,,,,,,,,5,,,50,0
98782,note_on,94,0,8,,,,,,,,,7,,,50,0
98782,note_on,94,0,4,,,,,,,,,3,,,74,0
98782,note_on,94,0,5,,,,,,,,,4,,,66,0
98784,note_on,32,0,1,,,,,,,,,0,,,84,92
98784,note_on,32,0,3,,,,,,,,,2,,,84,92
98784,note_on,2,0,4,,,,,,,,,3,,,84,92
98878,note_on,94,0,4,,,,,,,,,3,,,84,0
98880,note_on,2,0,4,,,,,,,,,3,,,74,92
98974,note_on,94,0,4,,,,,,,,,3,,,74,0
98976,note_on,2,0,4,,,,,,,,,3,,,74,92
99040,note_on,256,0,1,,,,,,,,,0,,,84,0
99040,note_on,256,0,3,,,,,,,,,2,,,84,0
99070,note_on,94,0,4,,,,,,,,,3,,,74,0
99072,note_on,290,0,5,,,,,,,,,4,,,71,92
99072,note_on,290,0,2,,,,,,,,,1,,,55,92
99072,note_on,320,0,6,,,,,,,,,5,,,62,92
99072,note_on,32,0,3,,,,,,,,,2,,,83,92
99072,note_on,0,0,6,,,,,,,,,5,,,67,92
99072,note_on,2,0,4,,,,,,,,,3,,,74,92
99072,note_on,290,0,7,,,,,,,,,5,,,55,92
99072,note_on,290,0,8,,,,,,,,,7,,,55,92
99072,note_on,32,0,1,,,,,,,,,0,,,83,92
99072,note_on,0,0,6,,,,,,,,,5,,,71,92
99120,note_on,48,0,8,,,,,,,,,7,,,55,0
99120,note_on,0,0,8,,,,,,,,,7,,,57,92
99120,note_on,48,0,7,,,,,,,,,5,,,55,0
99120,note_on,48,0,2,,,,,,,,,1,,,55,0
99120,note_on,0,0,7,,,,,,,,,5,,,57,92
99120,note_on,0,0,5,,,,,,,,,4,,,72,92
99120,note_on,48,0,5,,,,,,,,,4,,,71,0
99120,note_on,0,0,2,,,,,,,,,1,,,57,92
99166,note_on,94,0,1,,,,,,,,,0,,,83,0
99166,note_on,94,0,3,,,,,,,,,2,,,83,0
99168,note_on,48,0,2,,,,,,,,,1,,,57,0
99168,note_on,0,0,2,,,,,,,,,1,,,59,92
99168,note_on,48,0,7,,,,,,,,,5,,,57,0
99168,note_on,0,0,7,,,,,,,,,5,,,59,92
99168,note_on,0,0,5,,,,,,,,,4,,,74,92
99168,note_on,2,0,1,,,,,,,,,0,,,74,92
99168,note_on,48,0,8,,,,,,,,,7,,,57,0
99168,note_on,48,0,5,,,,,,,,,4,,,72,0
99168,note_on,0,0,8,,,,,,,,,7,,,59,92
99168,note_on,2,0,3,,,,,,,,,2,,,74,92
99262,note_on,94,0,8,,,,,,,,,7,,,59,0
99262,note_on,94,0,3,,,,,,,,,2,,,74,0
99262,note_on,94,0,7,,,,,,,,,5,,,59,0
99262,note_on,94,0,5,,,,,,,,,4,,,74,0
99262,note_on,94,0,1,,,,,,,,,0,,,74,0
99262,note_on,94,0,2,,,,,,,,,1,,,59,0
99264,note_on,2,0,8,,,,,,,,,7,,,55,92
99264,note_on,2,0,7,,,,,,,,,5,,,55,92
99264,note_on,2,0,3,,,,,,,,,2,,,74,92
99264,note_on,2,0,5,,,,,,,,,4,,,71,92
99264,note_on,2,0,1,,,,,,,,,0,,,74,92
99264,note_on,2,0,2,,,,,,,,,1,,,55,92
99328,note_on,256,0,4,,,,,,,,,3,,,74,0
99328,note_on,256,0,6,,,,,,,,,5,,,62,0
99328,note_on,0,0,6,,,,,,,,,5,,,67,0
99328,note_on,0,0,6,,,,,,,,,5,,,71,0
99358,note_on,94,0,5,,,,,,,,,4,,,71,0
99358,note_on,94,0,3,,,,,,,,,2,,,74,0
99358,note_on,94,0,7,,,,,,,,,5,,,55,0
99358,note_on,94,0,2,,,,,,,,,1,,,55,0
99358,note_on,94,0,8,,,,,,,,,7,,,55,0
99358,note_on,94,0,1,,,,,,,,,0,,,74,0
99360,note_on,2,0,1,,,,,,,,,0,,,83,92
99360,note_on,32,0,4,,,,,,,,,3,,,83,92
99360,note_on,2,0,3,,,,,,,,,2,,,83,92
99454,note_on,94,0,1,,,,,,,,,0,,,83,0
99454,note_on,94,0,3,,,,,,,,,2,,,83,0
99456,note_on,2,0,1,,,,,,,,,0,,,74,92
99456,note_on,2,0,3,,,,,,,,,2,,,74,92
99550,note_on,94,0,3,,,,,,,,,2,,,74,0
99550,note_on,94,0,1,,,,,,,,,0,,,74,0
99552,note_on,2,0,1,,,,,,,,,0,,,74,92
99552,note_on,2,0,3,,,,,,,,,2,,,74,92
99616,note_on,256,0,4,,,,,,,,,3,,,83,0
99646,note_on,94,0,3,,,,,,,,,2,,,74,0
99646,note_on,94,0,1,,,,,,,,,0,,,74,0
99648,note_on,320,0,6,,,,,,,,,5,,,62,92
99648,note_on,32,0,4,,,,,,,,,3,,,83,92
99648,note_on,0,0,6,,,,,,,,,5,,,71,92
99648,note_on,290,0,2,,,,,,,,,1,,,55,92
99648,note_on,290,0,7,,,,,,,,,5,,,55,92
99648,note_on,0,0,6,,,,,,,,,5,,,67,92
99648,note_on,2,0,3,,,,,,,,,2,,,74,92
99648,note_on,290,0,5,,,,,,,,,4,,,71,92
99648,note_on,2,0,1,,,,,,,,,0,,,74,92
99648,note_on,290,0,8,,,,,,,,,7,,,55,92
99696,note_on,48,0,2,,,,,,,,,1,,,55,0
99696,note_on,0,0,2,,,,,,,,,1,,,57,92
99696,note_on,0,0,5,,,,,,,,,4,,,72,92
99696,note_on,0,0,7,,,,,,,,,5,,,57,92
99696,note_on,48,0,7,,,,,,,,,5,,,55,0
99696,note_on,48,0,5,,,,,,,,,4,,,71,0
99696,note_on,0,0,8,,,,,,,,,7,,,57,92
99696,note_on,48,0,8,,,,,,,,,7,,,55,0
99742,note_on,94,0,4,,,,,,,,,3,,,83,0
99744,note_on,48,0,7,,,,,,,,,5,,,57,0
99744,note_on,0,0,5,,,,,,,,,4,,,74,92
99744,note_on,48,0,2,,,,,,,,,1,,,57,0
99744,note_on,0,0,7,,,,,,,,,5,,,59,92
99744,note_on,48,0,5,,,,,,,,,4,,,72,0
99744,note_on,48,0,8,,,,,,,,,7,,,57,0
99744,note_on,0,0,8,,,,,,,,,7,,,59,92
99744,note_on,0,0,2,,,,,,,,,1,,,59,92
99744,note_on,2,0,4,,,,,,,,,3,,,74,92
99838,note_on,94,0,5,,,,,,,,,4,,,74,0
99838,note_on,94,0,4,,,,,,,,,3,,,74,0
99838,note_on,94,0,8,,,,,,,,,7,,,59,0
99838,note_on,94,0,2,,,,,,,,,1,,,59,0
99838,note_on,94,0,7,,,,,,,,,5,,,59,0
99840,note_on,2,0,5,,,,,,,,,4,,,71,92
99840,note_on,2,0,4,,,,,,,,,3,,,74,92
99840,note_on,2,0,2,,,,,,,,,1,,,55,92
99840,note_on,2,0,8,,,,,,,,,7,,,55,92
99840,note_on,2,0,7,,,,,,,,,5,,,55,92
99904,note_on,256,0,6,,,,,,,,,5,,,62,0
99904,note_on,0,0,6,,,,,,,,,5,,,67,0
99904,note_on,256,0,1,,,,,,,,,0,,,74,0
99904,note_on,0,0,6,,,,,,,,,5,,,71,0
99904,note_on,256,0,3,,,,,,,,,2,,,74,0
99934,note_on,94,0,5,,,,,,,,,4,,,71,0
99934,note_on,94,0,4,,,,,,,,,3,,,74,0
99934,note_on,94,0,7,,,,,,,,,5,,,55,0
99934,note_on,94,0,2,,,,,,,,,1,,,55,0
99934,note_on,94,0,8,,,,,,,,,7,,,55,0
99936,note_on,2,0,4,,,,,,,,,3,,,83,92
99936,note_on,32,0,3,,,,,,,,,2,,,83,92
99936,note_on,32,0,1,,,,,,,,,0,,,83,92
100030,note_on,94,0,4,,,,,,,,,3,,,83,0
100032,note_on,2,0,4,,,,,,,,,3,,,74,92
100126,note_on,94,0,4,,,,,,,,,3,,,74,0
100128,note_on,2,0,4,,,,,,,,,3,,,74,92
100192,note_on,256,0,3,,,,,,,,,2,,,83,0
100192,note_on,256,0,1,,,,,,,,,0,,,83,0
100222,note_on,94,0,4,,,,,,,,,3,,,74,0
100224,note_on,320,0,6,,,,,,,,,5,,,62,92
100224,note_on,0,0,6,,,,,,,,,5,,,69,92
100224,note_on,290,0,5,,,,,,,,,4,,,62,92
100224,note_on,32,0,3,,,,,,,,,2,,,81,92
100224,note_on,0,0,6,,,,,,,,,5,,,66,92
100224,note_on,290,0,2,,,,,,,,,1,,,50,92
100224,note_on,32,0,1,,,,,,,,,0,,,81,92
100224,note_on,2,0,4,,,,,,,,,3,,,78,92
100224,note_on,290,0,8,,,,,,,,,7,,,50,92
100224,note_on,290,0,7,,,,,,,,,5,,,50,92
100272,note_on,48,0,1,,,,,,,,,0,,,81,0
100272,note_on,0,0,3,,,,,,,,,2,,,79,92
100272,note_on,0,0,4,,,,,,,,,3,,,76,92
100272,note_on,48,0,4,,,,,,,,,3,,,78,0
100272,note_on,48,0,3,,,,,,,,,2,,,81,0
100272,note_on,0,0,1,,,,,,,,,0,,,79,92
100318,note_on,94,0,5,,,,,,,,,4,,,62,0
100320,note_on,48,0,3,,,,,,,,,2,,,79,0
100320,note_on,0,0,1,,,,,,,,,0,,,78,92
100320,note_on,0,0,3,,,,,,,,,2,,,78,92
100320,note_on,0,0,4,,,,,,,,,3,,,74,92
100320,note_on,48,0,4,,,,,,,,,3,,,76,0
100320,note_on,2,0,5,,,,,,,,,4,,,74,92
100320,note_on,48,0,1,,,,,,,,,0,,,79,0
100384,note_on,160,0,7,,,,,,,,,5,,,50,0
100384,note_on,0,0,6,,,,,,,,,5,,,69,0
100384,note_on,160,0,8,,,,,,,,,7,,,50,0
100384,note_on,160,0,2,,,,,,,,,1,,,50,0
100384,note_on,0,0,6,,,,,,,,,5,,,66,0
100384,note_on,160,0,6,,,,,,,,,5,,,62,0
100414,note_on,94,0,4,,,,,,,,,3,,,74,0
100414,note_on,94,0,1,,,,,,,,,0,,,78,0
100414,note_on,94,0,5,,,,,,,,,4,,,74,0
100414,note_on,94,0,3,,,,,,,,,2,,,78,0
100416,note_on,2,0,3,,,,,,,,,2,,,81,92
100416,note_on,2,0,4,,,,,,,,,3,,,78,92
100416,note_on,2,0,1,,,,,,,,,0,,,81,92
100416,note_on,2,0,5,,,,,,,,,4,,,62,92
100510,note_on,94,0,4,,,,,,,,,3,,,78,0
100510,note_on,94,0,1,,,,,,,,,0,,,81,0
100510,note_on,94,0,5,,,,,,,,,4,,,62,0
100510,note_on,94,0,3,,,,,,,,,2,,,81,0
100512,note_on,2,0,4,,,,,,,,,3,,,69,92
100512,note_on,2,0,1,,,,,,,,,0,,,72,92
100512,note_on,128,0,7,,,,,,,,,5,,,50,92
100512,note_on,128,0,8,,,,,,,,,7,,,50,92
100512,note_on,2,0,3,,,,,,,,,2,,,72,92
100512,note_on,128,0,6,,,,,,,,,5,,,62,92
100512,note_on,0,0,6,,,,,,,,,5,,,66,92
100512,note_on,0,0,6,,,,,,,,,5,,,72,92
100512,note_on,2,0,5,,,,,,,,,4,,,62,92
100512,note_on,128,0,2,,,,,,,,,1,,,50,92
100560,note_on,48,0,1,,,,,,,,,0,,,72,0
100560,note_on,48,0,3,,,,,,,,,2,,,72,0
100560,note_on,0,0,3,,,,,,,,,2,,,71,92
100560,note_on,48,0,4,,,,,,,,,3,,,69,0
100560,note_on,0,0,4,,,,,,,,,3,,,67,92
100560,note_on,0,0,1,,,,,,,,,0,,,71,92
100608,note_on,0,0,1,,,,,,,,,0,,,69,92
100608,note_on,48,0,4,,,,,,,,,3,,,67,0
100608,note_on,48,0,1,,,,,,,,,0,,,71,0
100608,note_on,48,0,3,,,,,,,,,2,,,71,0
100608,note_on,0,0,3,,,,,,,,,2,,,69,92
100608,note_on,0,0,4,,,,,,,,,3,,,66,92
100672,note_on,0,0,6,,,,,,,,,5,,,72,0
100672,note_on,160,0,8,,,,,,,,,7,,,50,0
100672,note_on,160,0,2,,,,,,,,,1,,,50,0
100672,note_on,160,0,7,,,,,,,,,5,,,50,0
100672,note_on,0,0,6,,,,,,,,,5,,,66,0
100672,note_on,160,0,6,,,,,,,,,5,,,62,0
100672,note_on,160,0,5,,,,,,,,,4,,,62,0
100702,note_on,94,0,3,,,,,,,,,2,,,69,0
100702,note_on,94,0,4,,,,,,,,,3,,,66,0
100702,note_on,94,0,1,,,,,,,,,0,,,69,0
100704,note_on,2,0,1,,,,,,,,,0,,,72,92
100704,note_on,2,0,3,,,,,,,,,2,,,72,92
100704,note_on,2,0,4,,,,,,,,,3,,,69,92
100798,note_on,94,0,4,,,,,,,,,3,,,69,0
100798,note_on,94,0,3,,,,,,,,,2,,,72,0
100798,note_on,94,0,1,,,,,,,,,0,,,72,0
100800,note_on,0,0,6,,,,,,,,,5,,,66,92
100800,note_on,2,0,3,,,,,,,,,2,,,81,92
100800,note_on,128,0,5,,,,,,,,,4,,,62,92
100800,note_on,128,0,6,,,,,,,,,5,,,62,92
100800,note_on,0,0,6,,,,,,,,,5,,,69,92
100800,note_on,2,0,4,,,,,,,,,3,,,78,92
100800,note_on,128,0,2,,,,,,,,,1,,,50,92
100800,note_on,2,0,1,,,,,,,,,0,,,81,92
100800,note_on,128,0,8,,,,,,,,,7,,,50,92
100800,note_on,128,0,7,,,,,,,,,5,,,50,92
100848,note_on,0,0,1,,,,,,,,,0,,,79,92
100848,note_on,48,0,1,,,,,,,,,0,,,81,0
100848,note_on,0,0,3,,,,,,,,,2,,,79,92
100848,note_on,48,0,4,,,,,,,,,3,,,78,0
100848,note_on,48,0,3,,,,,,,,,2,,,81,0
100848,note_on,0,0,4,,,,,,,,,3,,,76,92
100894,note_on,94,0,5,,,,,,,,,4,,,62,0
100896,note_on,0,0,1,,,,,,,,,0,,,78,92
100896,note_on,48,0,4,,,,,,,,,3,,,76,0
100896,note_on,2,0,5,,,,,,,,,4,,,74,92
100896,note_on,0,0,4,,,,,,,,,3,,,74,92
100896,note_on,48,0,1,,,,,,,,,0,,,79,0
100896,note_on,0,0,3,,,,,,,,,2,,,78,92
100896,note_on,48,0,3,,,,,,,,,2,,,79,0
100960,note_on,160,0,6,,,,,,,,,5,,,62,0
100960,note_on,0,0,6,,,,,,,,,5,,,66,0
100960,note_on,0,0,6,,,,,,,,,5,,,69,0
100960,note_on,160,0,7,,,,,,,,,5,,,50,0
100960,note_on,160,0,2,,,,,,,,,1,,,50,0
100960,note_on,160,0,8,,,,,,,,,7,,,50,0
100990,note_on,94,0,1,,,,,,,,,0,,,78,0
100990,note_on,94,0,5,,,,,,,,,4,,,74,0
100990,note_on,94,0,4,,,,,,,,,3,,,74,0
100990,note_on,94,0,3,,,,,,,,,2,,,78,0
100992,note_on,2,0,1,,,,,,,,,0,,,81,92
100992,note_on,2,0,3,,,,,,,,,2,,,81,92
100992,note_on,2,0,4,,,,,,,,,3,,,78,92
100992,note_on,2,0,5,,,,,,,,,4,,,62,92
101086,note_on,94,0,1,,,,,,,,,0,,,81,0
101086,note_on,94,0,3,,,,,,,,,2,,,81,0
101086,note_on,94,0,5,,,,,,,,,4,,,62,0
101086,note_on,94,0,4,,,,,,,,,3,,,78,0
101088,note_on,128,0,2,,,,,,,,,1,,,50,92
101088,note_on,2,0,3,,,,,,,,,2,,,72,92
101088,note_on,128,0,8,,,,,,,,,7,,,50,92
101088,note_on,0,0,6,,,,,,,,,5,,,66,92
101088,note_on,128,0,7,,,,,,,,,5,,,50,92
101088,note_on,2,0,4,,,,,,,,,3,,,69,92
101088,note_on,0,0,6,,,,,,,,,5,,,72,92
101088,note_on,2,0,1,,,,,,,,,0,,,72,92
101088,note_on,2,0,5,,,,,,,,,4,,,62,92
101088,note_on,128,0,6,,,,,,,,,5,,,62,92
101136,note_on,48,0,4,,,,,,,,,3,,,69,0
101136,note_on,0,0,4,,,,,,,,,3,,,67,92
101136,note_on,0,0,3,,,,,,,,,2,,,71,92
101136,note_on,0,0,1,,,,,,,,,0,,,71,92
101136,note_on,48,0,1,,,,,,,,,0,,,72,0
101136,note_on,48,0,3,,,,,,,,,2,,,72,0
101184,note_on,0,0,4,,,,,,,,,3,,,66,92
101184,note_on,48,0,4,,,,,,,,,3,,,67,0
101184,note_on,0,0,3,,,,,,,,,2,,,69,92
101184,note_on,48,0,3,,,,,,,,,2,,,71,0
101184,note_on,48,0,1,,,,,,,,,0,,,71,0
101184,note_on,0,0,1,,,,,,,,,0,,,69,92
101248,note_on,160,0,8,,,,,,,,,7,,,50,0
101248,note_on,160,0,5,,,,,,,,,4,,,62,0
101248,note_on,160,0,2,,,,,,,,,1,,,50,0
101248,note_on,0,0,6,,,,,,,,,5,,,72,0
101248,note_on,0,0,6,,,,,,,,,5,,,66,0
101248,note_on,160,0,7,,,,,,,,,5,,,50,0
101248,note_on,160,0,6,,,,,,,,,5,,,62,0
101278,note_on,94,0,1,,,,,,,,,0,,,69,0
101278,note_on,94,0,4,,,,,,,,,3,,,66,0
101278,note_on,94,0,3,,,,,,,,,2,,,69,0
101280,note_on,2,0,4,,,,,,,,,3,,,69,92
101280,note_on,2,0,3,,,,,,,,,2,,,72,92
101280,note_on,2,0,1,,,,,,,,,0,,,72,92
101374,note_on,94,0,1,,,,,,,,,0,,,72,0
101374,note_on,94,0,4,,,,,,,,,3,,,69,0
101374,note_on,94,0,3,,,,,,,,,2,,,72,0
101376,note_on,2,0,4,,,,,,,,,3,,,67,92
101376,note_on,128,0,5,,,,,,,,,4,,,67,92
101376,note_on,0,0,6,,,,,,,,,5,,,71,92
101376,note_on,0,0,6,,,,,,,,,5,,,67,92
101376,note_on,128,0,6,,,,,,,,,5,,,62,92
101376,note_on,128,0,2,,,,,,,,,1,,,55,92
101376,note_on,128,0,8,,,,,,,,,7,,,55,92
101376,note_on,2,0,1,,,,,,,,,0,,,71,92
101376,note_on,2,0,3,,,,,,,,,2,,,71,92
101376,note_on,128,0,7,,,,,,,,,5,,,55,92
101470,note_on,94,0,7,,,,,,,,,5,,,55,0
101470,note_on,94,0,1,,,,,,,,,0,,,71,0
101470,note_on,94,0,8,,,,,,,,,7,,,55,0
101470,note_on,94,0,3,,,,,,,,,2,,,71,0
101470,note_on,94,0,2,,,,,,,,,1,,,55,0
101470,note_on,94,0,4,,,,,,,,,3,,,67,0
101470,note_on,94,0,5,,,,,,,,,4,,,67,0
101472,note_on,2,0,5,,,,,,,,,4,,,55,92
101472,note_on,2,0,8,,,,,,,,,7,,,43,92
101472,note_on,2,0,4,,,,,,,,,3,,,79,92
101472,note_on,2,0,2,,,,,,,,,1,,,43,92
101472,note_on,2,0,3,,,,,,,,,2,,,83,92
101472,note_on,2,0,7,,,,,,,,,5,,,43,92
101472,note_on,2,0,1,,,,,,,,,0,,,83,92
101566,note_on,94,0,5,,,,,,,,,4,,,55,0
101566,note_on,94,0,8,,,,,,,,,7,,,43,0
101566,note_on,94,0,2,,,,,,,,,1,,,43,0
101566,note_on,94,0,7,,,,,,,,,5,,,43,0
101568,note_on,2,0,5,,,,,,,,,4,,,55,92
101568,note_on,2,0,2,,,,,,,,,1,,,43,92
101568,note_on,2,0,8,,,,,,,,,7,,,43,92
101568,note_on,2,0,7,,,,,,,,,5,,,43,92
101632,note_on,0,0,6,,,,,,,,,5,,,67,0
101632,note_on,0,0,6,,,,,,,,,5,,,71,0
101632,note_on,256,0,6,,,,,,,,,5,,,62,0
101662,note_on,94,0,2,,,,,,,,,1,,,43,0
101662,note_on,94,0,8,,,,,,,,,7,,,43,0
101662,note_on,94,0,7,,,,,,,,,5,,,43,0
101662,note_on,94,0,5,,,,,,,,,4,,,55,0
101664,note_on,2,0,8,,,,,,,,,7,,,43,92
101664,note_on,2,0,7,,,,,,,,,5,,,43,92
101664,note_on,0,0,6,,,,,,,,,5,,,71,92
101664,note_on,2,0,5,,,,,,,,,4,,,55,92
101664,note_on,2,0,2,,,,,,,,,1,,,43,92
101664,note_on,32,0,6,,,,,,,,,5,,,62,92
101664,note_on,0,0,6,,,,,,,,,5,,,67,92
101758,note_on,286,0,4,,,,,,,,,3,,,79,0
101758,note_on,286,0,3,,,,,,,,,2,,,83,0
101758,note_on,286,0,1,,,,,,,,,0,,,83,0
101760,note_on,2,0,4,,,,,,,,,3,,,78,92
101760,note_on,2,0,3,,,,,,,,,2,,,81,92
101760,note_on,2,0,1,,,,,,,,,0,,,81,92
101824,note_on,160,0,2,,,,,,,,,1,,,43,0
101824,note_on,160,0,6,,,,,,,,,5,,,62,0
101824,note_on,0,0,6,,,,,,,,,5,,,67,0
101824,note_on,0,0,6,,,,,,,,,5,,,71,0
101824,note_on,160,0,7,,,,,,,,,5,,,43,0
101824,note_on,160,0,5,,,,,,,,,4,,,55,0
101824,note_on,160,0,8,,,,,,,,,7,,,43,0
101854,note_on,94,0,1,,,,,,,,,0,,,81,0
101854,note_on,94,0,3,,,,,,,,,2,,,81,0
101854,note_on,94,0,4,,,,,,,,,3,,,78,0
101856,note_on,2,0,3,,,,,,,,,2,,,79,92
101856,note_on,2,0,1,,,,,,,,,0,,,79,92
101856,note_on,2,0,4,,,,,,,,,3,,,76,92
101950,note_on,94,0,1,,,,,,,,,0,,,79,0
101950,note_on,94,0,4,,,,,,,,,3,,,76,0
101950,note_on,94,0,3,,,,,,,,,2,,,79,0
101952,note_on,128,0,2,,,,,,,,,1,,,55,92
101952,note_on,128,0,5,,,,,,,,,4,,,67,92
101952,note_on,2,0,4,,,,,,,,,3,,,71,92
101952,note_on,0,0,6,,,,,,,,,5,,,67,92
101952,note_on,0,0,6,,,,,,,,,5,,,71,92
101952,note_on,128,0,6,,,,,,,,,5,,,62,92
101952,note_on,2,0,1,,,,,,,,,0,,,74,92
101952,note_on,2,0,3,,,,,,,,,2,,,74,92
101952,note_on,128,0,7,,,,,,,,,5,,,55,92
101952,note_on,128,0,8,,,,,,,,,7,,,55,92
102046,note_on,94,0,8,,,,,,,,,7,,,55,0
102046,note_on,94,0,7,,,,,,,,,5,,,55,0
102046,note_on,94,0,2,,,,,,,,,1,,,55,0
102046,note_on,94,0,6,,,,,,,,,5,,,62,0
102046,note_on,94,0,1,,,,,,,,,0,,,74,0
102046,note_on,0,0,6,,,,,,,,,5,,,67,0
102046,note_on,94,0,3,,,,,,,,,2,,,74,0
102046,note_on,94,0,5,,,,,,,,,4,,,67,0
102046,note_on,94,0,4,,,,,,,,,3,,,71,0
102046,note_on,0,0,6,,,,,,,,,5,,,71,0
102048,note_on,2,0,4,,,,,,,,,3,,,76,92
102048,note_on,0,0,6,,,,,,,,,5,,,72,92
102048,note_on,0,0,6,,,,,,,,,5,,,67,92
102048,note_on,2,0,7,,,,,,,,,5,,,43,92
102048,note_on,2,0,6,,,,,,,,,5,,,64,92
102048,note_on,2,0,2,,,,,,,,,1,,,43,92
102048,note_on,2,0,1,,,,,,,,,0,,,79,92
102048,note_on,2,0,3,,,,,,,,,2,,,79,92
102048,note_on,2,0,8,,,,,,,,,7,,,43,92
102048,note_on,2,0,5,,,,,,,,,4,,,55,92
102142,note_on,94,0,5,,,,,,,,,4,,,55,0
102142,note_on,94,0,2,,,,,,,,,1,,,43,0
102142,note_on,94,0,7,,,,,,,,,5,,,43,0
102142,note_on,94,0,8,,,,,,,,,7,,,43,0
102144,note_on,2,0,8,,,,,,,,,7,,,43,92
102144,note_on,2,0,5,,,,,,,,,4,,,55,92
102144,note_on,2,0,2,,,,,,,,,1,,,43,92
102144,note_on,2,0,7,,,,,,,,,5,,,43,92
102208,note_on,160,0,6,,,,,,,,,5,,,64,0
102208,note_on,0,0,6,,,,,,,,,5,,,67,0
102208,note_on,0,0,6,,,,,,,,,5,,,72,0
102238,note_on,94,0,5,,,,,,,,,4,,,55,0
102238,note_on,94,0,7,,,,,,,,,5,,,43,0
102238,note_on,94,0,8,,,,,,,,,7,,,43,0
102238,note_on,94,0,2,,,,,,,,,1,,,43,0
102240,note_on,2,0,5,,,,,,,,,4,,,55,92
102240,note_on,32,0,6,,,,,,,,,5,,,64,92
102240,note_on,2,0,8,,,,,,,,,7,,,43,92
102240,note_on,0,0,6,,,,,,,,,5,,,72,92
102240,note_on,2,0,7,,,,,,,,,5,,,43,92
102240,note_on,2,0,2,,,,,,,,,1,,,43,92
102240,note_on,0,0,6,,,,,,,,,5,,,67,92
102334,note_on,286,0,4,,,,,,,,,3,,,76,0
102334,note_on,286,0,1,,,,,,,,,0,,,79,0
102334,note_on,286,0,3,,,,,,,,,2,,,79,0
102336,note_on,2,0,1,,,,,,,,,0,,,78,92
102336,note_on,2,0,3,,,,,,,,,2,,,78,92
102336,note_on,2,0,4,,,,,,,,,3,,,74,92
102400,note_on,160,0,7,,,,,,,,,5,,,43,0
102400,note_on,160,0,2,,,,,,,,,1,,,43,0
102400,note_on,160,0,5,,,,,,,,,4,,,55,0
102400,note_on,160,0,8,,,,,,,,,7,,,43,0
102400,note_on,160,0,6,,,,,,,,,5,,,64,0
102400,note_on,0,0,6,,,,,,,,,5,,,67,0
102400,note_on,0,0,6,,,,,,,,,5,,,72,0
102430,note_on,94,0,4,,,,,,,,,3,,,74,0
102430,note_on,94,0,1,,,,,,,,,0,,,78,0
102430,note_on,94,0,3,,,,,,,,,2,,,78,0
102432,note_on,2,0,3,,,,,,,,,2,,,76,92
102432,note_on,2,0,1,,,,,,,,,0,,,76,92
102432,note_on,2,0,4,,,,,,,,,3,,,72,92
102526,note_on,94,0,3,,,,,,,,,2,,,76,0
102526,note_on,94,0,4,,,,,,,,,3,,,72,0
102526,note_on,94,0,1,,,,,,,,,0,,,76,0
102528,note_on,2,0,4,,,,,,,,,3,,,71,92
102528,note_on,2,0,1,,,,,,,,,0,,,74,92
102528,note_on,128,0,7,,,,,,,,,5,,,55,92
102528,note_on,128,0,2,,,,,,,,,1,,,55,92
102528,note_on,128,0,5,,,,,,,,,4,,,67,92
102528,note_on,0,0,6,,,,,,,,,5,,,67,92
102528,note_on,128,0,6,,,,,,,,,5,,,62,92
102528,note_on,2,0,3,,,,,,,,,2,,,74,92
102528,note_on,128,0,8,,,,,,,,,7,,,55,92
102528,note_on,0,0,6,,,,,,,,,5,,,71,92
102622,note_on,94,0,8,,,,,,,,,7,,,55,0
102622,note_on,0,0,6,,,,,,,,,5,,,71,0
102622,note_on,94,0,5,,,,,,,,,4,,,67,0
102622,note_on,0,0,6,,,,,,,,,5,,,67,0
102622,note_on,94,0,6,,,,,,,,,5,,,62,0
102622,note_on,94,0,1,,,,,,,,,0,,,74,0
102622,note_on,94,0,7,,,,,,,,,5,,,55,0
102622,note_on,94,0,3,,,,,,,,,2,,,74,0
102622,note_on,94,0,4,,,,,,,,,3,,,71,0
102622,note_on,94,0,2,,,,,,,,,1,,,55,0
102624,note_on,0,0,6,,,,,,,,,5,,,72,92
102624,note_on,2,0,6,,,,,,,,,5,,,64,92
102624,note_on,0,0,6,,,,,,,,,5,,,67,92
102624,note_on,2,0,3,,,,,,,,,2,,,76,92
102624,note_on,2,0,8,,,,,,,,,7,,,43,92
102624,note_on,2,0,5,,,,,,,,,4,,,55,92
102624,note_on,2,0,2,,,,,,,,,1,,,43,92
102624,note_on,2,0,1,,,,,,,,,0,,,76,92
102624,note_on,2,0,7,,,,,,,,,5,,,43,92
102624,note_on,2,0,4,,,,,,,,,3,,,72,92
102718,note_on,94,0,5,,,,,,,,,4,,,55,0
102718,note_on,94,0,2,,,,,,,,,1,,,43,0
102718,note_on,94,0,7,,,,,,,,,5,,,43,0
102718,note_on,94,0,8,,,,,,,,,7,,,43,0
102720,note_on,2,0,5,,,,,,,,,4,,,55,92
102720,note_on,2,0,2,,,,,,,,,1,,,43,92
102720,note_on,2,0,7,,,,,,,,,5,,,43,92
102720,note_on,2,0,8,,,,,,,,,7,,,43,92
102784,note_on,160,0,6,,,,,,,,,5,,,64,0
102784,note_on,0,0,6,,,,,,,,,5,,,72,0
102784,note_on,0,0,6,,,,,,,,,5,,,67,0
102814,note_on,94,0,5,,,,,,,,,4,,,55,0
102814,note_on,94,0,2,,,,,,,,,1,,,43,0
102814,note_on,94,0,8,,,,,,,,,7,,,43,0
102814,note_on,94,0,7,,,,,,,,,5,,,43,0
102816,note_on,2,0,5,,,,,,,,,4,,,55,92
102816,note_on,32,0,6,,,,,,,,,5,,,64,92
102816,note_on,0,0,6,,,,,,,,,5,,,67,92
102816,note_on,0,0,6,,,,,,,,,5,,,72,92
102816,note_on,2,0,2,,,,,,,,,1,,,43,92
102816,note_on,2,0,8,,,,,,,,,7,,,43,92
102816,note_on,2,0,7,,,,,,,,,5,,,43,92
102910,note_on,286,0,1,,,,,,,,,0,,,76,0
102910,note_on,286,0,3,,,,,,,,,2,,,76,0
102910,note_on,286,0,4,,,,,,,,,3,,,72,0
102912,note_on,2,0,1,,,,,,,,,0,,,74,92
102912,note_on,2,0,3,,,,,,,,,2,,,74,92
102912,note_on,2,0,4,,,,,,,,,3,,,71,92
102976,note_on,160,0,7,,,,,,,,,5,,,43,0
102976,note_on,160,0,2,,,,,,,,,1,,,43,0
102976,note_on,160,0,6,,,,,,,,,5,,,64,0
102976,note_on,0,0,6,,,,,,,,,5,,,67,0
102976,note_on,0,0,6,,,,,,,,,5,,,72,0
102976,note_on,160,0,8,,,,,,,,,7,,,43,0
102976,note_on,160,0,5,,,,,,,,,4,,,55,0
103006,note_on,94,0,4,,,,,,,,,3,,,71,0
103006,note_on,94,0,3,,,,,,,,,2,,,74,0
103006,note_on,94,0,1,,,,,,,,,0,,,74,0
103008,note_on,2,0,3,,,,,,,,,2,,,72,92
103008,note_on,2,0,1,,,,,,,,,0,,,72,92
103008,note_on,2,0,4,,,,,,,,,3,,,69,92
103102,note_on,94,0,3,,,,,,,,,2,,,72,0
103102,note_on,94,0,4,,,,,,,,,3,,,69,0
103102,note_on,94,0,1,,,,,,,,,0,,,72,0
103104,note_on,2,0,1,,,,,,,,,0,,,71,92
103104,note_on,0,0,6,,,,,,,,,5,,,71,92
103104,note_on,2,0,4,,,,,,,,,3,,,67,92
103104,note_on,0,0,6,,,,,,,,,5,,,67,92
103104,note_on,128,0,8,,,,,,,,,7,,,55,92
103104,note_on,128,0,6,,,,,,,,,5,,,62,92
103104,note_on,128,0,5,,,,,,,,,4,,,67,92
103104,note_on,128,0,2,,,,,,,,,1,,,55,92
103104,note_on,128,0,7,,,,,,,,,5,,,55,92
103104,note_on,2,0,3,,,,,,,,,2,,,71,92
103198,note_on,94,0,6,,,,,,,,,5,,,62,0
103198,note_on,0,0,6,,,,,,,,,5,,,67,0
103198,note_on,0,0,6,,,,,,,,,5,,,71,0
103198,note_on,94,0,8,,,,,,,,,7,,,55,0
103198,note_on,94,0,3,,,,,,,,,2,,,71,0
103198,note_on,94,0,1,,,,,,,,,0,,,71,0
103198,note_on,94,0,4,,,,,,,,,3,,,67,0
103198,note_on,94,0,2,,,,,,,,,1,,,55,0
103198,note_on,94,0,5,,,,,,,,,4,,,67,0
103198,note_on,94,0,7,,,,,,,,,5,,,55,0
103200,note_on,2,0,6,,,,,,,,,5,,,62,92
103200,note_on,0,0,6,,,,,,,,,5,,,72,92
103200,note_on,2,0,1,,,,,,,,,0,,,72,92
103200,note_on,2,0,5,,,,,,,,,4,,,62,92
103200,note_on,2,0,3,,,,,,,,,2,,,72,92
103200,note_on,2,0,2,,,,,,,,,1,,,50,92
103200,note_on,0,0,6,,,,,,,,,5,,,69,92
103200,note_on,2,0,7,,,,,,,,,5,,,50,92
103200,note_on,2,0,8,,,,,,,,,7,,,50,92
103200,note_on,2,0,4,,,,,,,,,3,,,69,92
103294,note_on,94,0,2,,,,,,,,,1,,,50,0
103294,note_on,94,0,7,,,,,,,,,5,,,50,0
103294,note_on,94,0,5,,,,,,,,,4,,,62,0
103294,note_on,94,0,8,,,,,,,,,7,,,50,0
103296,note_on,2,0,8,,,,,,,,,7,,,50,92
103296,note_on,2,0,5,,,,,,,,,4,,,62,92
103296,note_on,2,0,2,,,,,,,,,1,,,50,92
103296,note_on,2,0,7,,,,,,,,,5,,,50,92
103360,note_on,0,0,6,,,,,,,,,5,,,72,0
103360,note_on,0,0,6,,,,,,,,,5,,,69,0
103360,note_on,160,0,6,,,,,,,,,5,,,62,0
103390,note_on,94,0,2,,,,,,,,,1,,,50,0
103390,note_on,94,0,7,,,,,,,,,5,,,50,0
103390,note_on,94,0,5,,,,,,,,,4,,,62,0
103390,note_on,94,0,8,,,,,,,,,7,,,50,0
103392,note_on,2,0,8,,,,,,,,,7,,,50,92
103392,note_on,2,0,7,,,,,,,,,5,,,50,92
103392,note_on,0,0,6,,,,,,,,,5,,,69,92
103392,note_on,32,0,6,,,,,,,,,5,,,62,92
103392,note_on,2,0,2,,,,,,,,,1,,,50,92
103392,note_on,2,0,5,,,,,,,,,4,,,62,92
103392,note_on,0,0,6,,,,,,,,,5,,,66,92
103486,note_on,286,0,1,,,,,,,,,0,,,72,0
103486,note_on,286,0,3,,,,,,,,,2,,,72,0
103486,note_on,286,0,4,,,,,,,,,3,,,69,0
103488,note_on,2,0,3,,,,,,,,,2,,,71,92
103488,note_on,2,0,4,,,,,,,,,3,,,67,92
103488,note_on,2,0,1,,,,,,,,,0,,,71,92
103552,note_on,0,0,6,,,,,,,,,5,,,69,0
103552,note_on,160,0,2,,,,,,,,,1,,,50,0
103552,note_on,160,0,6,,,,,,,,,5,,,62,0
103552,note_on,0,0,6,,,,,,,,,5,,,66,0
103552,note_on,160,0,8,,,,,,,,,7,,,50,0
103552,note_on,160,0,5,,,,,,,,,4,,,62,0
103552,note_on,160,0,7,,,,,,,,,5,,,50,0
103582,note_on,94,0,4,,,,,,,,,3,,,67,0
103582,note_on,94,0,1,,,,,,,,,0,,,71,0
103582,note_on,94,0,3,,,,,,,,,2,,,71,0
103584,note_on,2,0,4,,,,,,,,,3,,,66,92
103584,note_on,2,0,1,,,,,,,,,0,,,69,92
103584,note_on,2,0,3,,,,,,,,,2,,,69,92
103678,note_on,94,0,4,,,,,,,,,3,,,66,0
103678,note_on,94,0,1,,,,,,,,,0,,,69,0
103678,note_on,94,0,3,,,,,,,,,2,,,69,0
103680,note_on,128,0,5,,,,,,,,,4,,,62,92
103680,note_on,128,0,7,,,,,,,,,5,,,43,92
103680,note_on,128,0,2,,,,,,,,,1,,,43,92
103680,note_on,2,0,4,,,,,,,,,3,,,67,92
103680,note_on,2,0,3,,,,,,,,,2,,,71,92
103680,note_on,128,0,6,,,,,,,,,5,,,59,92
103680,note_on,0,0,6,,,,,,,,,5,,,62,92
103680,note_on,0,0,6,,,,,,,,,5,,,67,92
103680,note_on,2,0,1,,,,,,,,,0,,,71,92
103680,note_on,128,0,8,,,,,,,,,7,,,43,92
103728,note_on,48,0,3,,,,,,,,,2,,,71,0
103728,note_on,0,0,3,,,,,,,,,2,,,69,92
103728,note_on,48,0,1,,,,,,,,,0,,,71,0
103728,note_on,48,0,4,,,,,,,,,3,,,67,0
103728,note_on,0,0,4,,,,,,,,,3,,,69,92
103728,note_on,0,0,1,,,,,,,,,0,,,69,92
103774,note_on,94,0,7,,,,,,,,,5,,,43,0
103774,note_on,94,0,8,,,,,,,,,7,,,43,0
103774,note_on,94,0,2,,,,,,,,,1,,,43,0
103776,note_on,2,0,7,,,,,,,,,5,,,55,92
103776,note_on,48,0,1,,,,,,,,,0,,,69,0
103776,note_on,0,0,1,,,,,,,,,0,,,67,92
103776,note_on,0,0,4,,,,,,,,,3,,,71,92
103776,note_on,48,0,4,,,,,,,,,3,,,69,0
103776,note_on,0,0,3,,,,,,,,,2,,,67,92
103776,note_on,2,0,2,,,,,,,,,1,,,55,92
103776,note_on,48,0,3,,,,,,,,,2,,,69,0
103776,note_on,2,0,8,,,,,,,,,7,,,55,92
103840,note_on,160,0,6,,,,,,,,,5,,,59,0
103840,note_on,0,0,6,,,,,,,,,5,,,62,0
103840,note_on,0,0,6,,,,,,,,,5,,,67,0
103870,note_on,94,0,3,,,,,,,,,2,,,67,0
103870,note_on,94,0,1,,,,,,,,,0,,,67,0
103870,note_on,94,0,7,,,,,,,,,5,,,55,0
103870,note_on,94,0,2,,,,,,,,,1,,,55,0
103870,note_on,94,0,4,,,,,,,,,3,,,71,0
103870,note_on,94,0,8,,,,,,,,,7,,,55,0
103872,note_on,2,0,3,,,,,,,,,2,,,72,92
103872,note_on,2,0,1,,,,,,,,,0,,,72,92
103872,note_on,0,0,6,,,,,,,,,5,,,69,92
103872,note_on,0,0,6,,,,,,,,,5,,,62,92
103872,note_on,32,0,6,,,,,,,,,5,,,60,92
103872,note_on,2,0,7,,,,,,,,,5,,,54,92
103872,note_on,2,0,8,,,,,,,,,7,,,54,92
103872,note_on,2,0,4,,,,,,,,,3,,,69,92
103872,note_on,2,0,2,,,,,,,,,1,,,54,92
103936,note_on,256,0,5,,,,,,,,,4,,,62,0
103966,note_on,94,0,2,,,,,,,,,1,,,54,0
103966,note_on,0,0,6,,,,,,,,,5,,,69,0
103966,note_on,94,0,1,,,,,,,,,0,,,72,0
103966,note_on,0,0,6,,,,,,,,,5,,,62,0
103966,note_on,94,0,8,,,,,,,,,7,,,54,0
103966,note_on,94,0,6,,,,,,,,,5,,,60,0
103966,note_on,94,0,4,,,,,,,,,3,,,69,0
103966,note_on,94,0,3,,,,,,,,,2,,,72,0
103966,note_on,94,0,7,,,,,,,,,5,,,54,0
103968,note_on,2,0,6,,,,,,,,,5,,,59,92
103968,note_on,32,0,5,,,,,,,,,4,,,62,92
103968,note_on,0,0,6,,,,,,,,,5,,,62,92
103968,note_on,2,0,2,,,,,,,,,1,,,43,92
103968,note_on,2,0,3,,,,,,,,,2,,,71,92
103968,note_on,2,0,4,,,,,,,,,3,,,67,92
103968,note_on,2,0,8,,,,,,,,,7,,,43,92
103968,note_on,2,0,1,,,,,,,,,0,,,71,92
103968,note_on,0,0,6,,,,,,,,,5,,,67,92
103968,note_on,2,0,7,,,,,,,,,5,,,43,92
104016,note_on,48,0,3,,,,,,,,,2,,,71,0
104016,note_on,48,0,1,,,,,,,,,0,,,71,0
104016,note_on,0,0,1,,,,,,,,,0,,,69,92
104016,note_on,0,0,4,,,,,,,,,3,,,69,92
104016,note_on,0,0,3,,,,,,,,,2,,,69,92
104016,note_on,48,0,4,,,,,,,,,3,,,67,0
104062,note_on,94,0,7,,,,,,,,,5,,,43,0
104062,note_on,94,0,8,,,,,,,,,7,,,43,0
104062,note_on,94,0,2,,,,,,,,,1,,,43,0
104064,note_on,0,0,3,,,,,,,,,2,,,67,92
104064,note_on,48,0,3,,,,,,,,,2,,,69,0
104064,note_on,2,0,8,,,,,,,,,7,,,55,92
104064,note_on,0,0,4,,,,,,,,,3,,,71,92
104064,note_on,48,0,1,,,,,,,,,0,,,69,0
104064,note_on,48,0,4,,,,,,,,,3,,,69,0
104064,note_on,0,0,1,,,,,,,,,0,,,67,92
104064,note_on,2,0,7,,,,,,,,,5,,,55,92
104064,note_on,2,0,2,,,,,,,,,1,,,55,92
104128,note_on,0,0,6,,,,,,,,,5,,,67,0
104128,note_on,0,0,6,,,,,,,,,5,,,62,0
104128,note_on,160,0,6,,,,,,,,,5,,,59,0
104158,note_on,94,0,4,,,,,,,,,3,,,71,0
104158,note_on,94,0,2,,,,,,,,,1,,,55,0
104158,note_on,94,0,3,,,,,,,,,2,,,67,0
104158,note_on,94,0,8,,,,,,,,,7,,,55,0
104158,note_on,94,0,1,,,,,,,,,0,,,67,0
104158,note_on,94,0,7,,,,,,,,,5,,,55,0
104160,note_on,2,0,1,,,,,,,,,0,,,72,92
104160,note_on,0,0,6,,,,,,,,,5,,,69,92
104160,note_on,0,0,6,,,,,,,,,5,,,62,92
104160,note_on,32,0,6,,,,,,,,,5,,,60,92
104160,note_on,2,0,3,,,,,,,,,2,,,72,92
104160,note_on,2,0,7,,,,,,,,,5,,,54,92
104160,note_on,2,0,8,,,,,,,,,7,,,54,92
104160,note_on,2,0,2,,,,,,,,,1,,,54,92
104160,note_on,2,0,4,,,,,,,,,3,,,69,92
104224,note_on,256,0,5,,,,,,,,,4,,,62,0
104254,note_on,94,0,8,,,,,,,,,7,,,54,0
104254,note_on,94,0,2,,,,,,,,,1,,,54,0
104254,note_on,94,0,6,,,,,,,,,5,,,60,0
104254,note_on,94,0,3,,,,,,,,,2,,,72,0
104254,note_on,0,0,6,,,,,,,,,5,,,62,0
104254,note_on,94,0,4,,,,,,,,,3,,,69,0
104254,note_on,94,0,1,,,,,,,,,0,,,72,0
104254,note_on,0,0,6,,,,,,,,,5,,,69,0
104254,note_on,94,0,7,,,,,,,,,5,,,54,0
104256,note_on,2,0,6,,,,,,,,,5,,,59,92
104256,note_on,0,0,6,,,,,,,,,5,,,62,92
104256,note_on,0,0,6,,,,,,,,,5,,,67,92
104256,note_on,2,0,1,,,,,,,,,0,,,71,92
104256,note_on,2,0,7,,,,,,,,,5,,,43,92
104256,note_on,2,0,8,,,,,,,,,7,,,43,92
104256,note_on,2,0,3,,,,,,,,,2,,,71,92
104256,note_on,32,0,5,,,,,,,,,4,,,62,92
104256,note_on,2,0,4,,,,,,,,,3,,,67,92
104256,note_on,2,0,2,,,,,,,,,1,,,43,92
104304,note_on,48,0,3,,,,,,,,,2,,,71,0
104304,note_on,0,0,3,,,,,,,,,2,,,69,92
104304,note_on,0,0,1,,,,,,,,,0,,,69,92
104304,note_on,0,0,4,,,,,,,,,3,,,69,92
104304,note_on,48,0,4,,,,,,,,,3,,,67,0
104304,note_on,48,0,1,,,,,,,,,0,,,71,0
104350,note_on,94,0,7,,,,,,,,,5,,,43,0
104350,note_on,94,0,2,,,,,,,,,1,,,43,0
104350,note_on,94,0,8,,,,,,,,,7,,,43,0
104352,note_on,2,0,7,,,,,,,,,5,,,55,92
104352,note_on,48,0,4,,,,,,,,,3,,,69,0
104352,note_on,0,0,4,,,,,,,,,3,,,71,92
104352,note_on,48,0,3,,,,,,,,,2,,,69,0
104352,note_on,48,0,1,,,,,,,,,0,,,69,0
104352,note_on,0,0,1,,,,,,,,,0,,,67,92
104352,note_on,0,0,3,,,,,,,,,2,,,67,92
104352,note_on,2,0,2,,,,,,,,,1,,,55,92
104352,note_on,2,0,8,,,,,,,,,7,,,55,92
104416,note_on,160,0,6,,,,,,,,,5,,,59,0
104416,note_on,0,0,6,,,,,,,,,5,,,67,0
104416,note_on,0,0,6,,,,,,,,,5,,,62,0
104446,note_on,94,0,2,,,,,,,,,1,,,55,0
104446,note_on,94,0,1,,,,,,,,,0,,,67,0
104446,note_on,94,0,4,,,,,,,,,3,,,71,0
104446,note_on,94,0,7,,,,,,,,,5,,,55,0
104446,note_on,94,0,8,,,,,,,,,7,,,55,0
104446,note_on,94,0,3,,,,,,,,,2,,,67,0
104448,note_on,0,0,6,,,,,,,,,5,,,62,92
104448,note_on,2,0,8,,,,,,,,,7,,,43,92
104448,note_on,2,0,1,,,,,,,,,0,,,79,92
104448,note_on,2,0,2,,,,,,,,,1,,,43,92
104448,note_on,2,0,7,,,,,,,,,5,,,43,92
104448,note_on,0,0,6,,,,,,,,,5,,,67,92
104448,note_on,32,0,6,,,,,,,,,5,,,59,92
104448,note_on,2,0,4,,,,,,,,,3,,,67,92
104448,note_on,2,0,3,,,,,,,,,2,,,79,92
104512,note_on,256,0,5,,,,,,,,,4,,,62,0
104542,note_on,94,0,7,,,,,,,,,5,,,43,0
104542,note_on,94,0,6,,,,,,,,,5,,,59,0
104542,note_on,0,0,6,,,,,,,,,5,,,62,0
104542,note_on,94,0,2,,,,,,,,,1,,,43,0
104542,note_on,0,0,6,,,,,,,,,5,,,67,0
104542,note_on,94,0,3,,,,,,,,,2,,,79,0
104542,note_on,94,0,1,,,,,,,,,0,,,79,0
104542,note_on,94,0,4,,,,,,,,,3,,,67,0
104542,note_on,94,0,8,,,,,,,,,7,,,43,0
104544,note_on,2,0,4,,,,,,,,,3,,,67,92
104544,note_on,2,0,8,,,,,,,,,7,,,43,92
104544,note_on,0,0,6,,,,,,,,,5,,,67,92
104544,note_on,0,0,6,,,,,,,,,5,,,62,92
104544,note_on,2,0,6,,,,,,,,,5,,,59,92
104544,note_on,2,0,1,,,,,,,,,0,,,71,92
104544,note_on,2,0,2,,,,,,,,,1,,,43,92
104544,note_on,32,0,5,,,,,,,,,4,,,62,92
104544,note_on,2,0,7,,,,,,,,,5,,,43,92
104544,note_on,2,0,3,,,,,,,,,2,,,71,92
104638,note_on,94,0,8,,,,,,,,,7,,,43,0
104638,note_on,94,0,4,,,,,,,,,3,,,67,0
104638,note_on,94,0,1,,,,,,,,,0,,,71,0
104638,note_on,94,0,3,,,,,,,,,2,,,71,0
104638,note_on,94,0,5,,,,,,,,,4,,,62,0
104638,note_on,94,0,6,,,,,,,,,5,,,59,0
104638,note_on,0,0,6,,,,,,,,,5,,,62,0
104638,note_on,0,0,6,,,,,,,,,5,,,67,0
104638,note_on,94,0,2,,,,,,,,,1,,,43,0
104638,note_on,94,0,7,,,,,,,,,5,,,43,0
104640,note_on,2,0,5,,,,,,,,,4,,,64,92
104640,note_on,2,0,7,,,,,,,,,5,,,48,92
104640,note_on,2,0,6,,,,,,,,,5,,,60,92
104640,note_on,0,0,6,,,,,,,,,5,,,64,92
104640,note_on,0,0,6,,,,,,,,,5,,,69,92
104640,note_on,2,0,8,,,,,,,,,7,,,48,92
104640,note_on,2,0,1,,,,,,,,,0,,,72,92
104640,note_on,2,0,2,,,,,,,,,1,,,48,92
104640,note_on,2,0,4,,,,,,,,,3,,,69,92
104640,note_on,2,0,3,,,,,,,,,2,,,72,92
104734,note_on,94,0,1,,,,,,,,,0,,,72,0
104734,note_on,94,0,4,,,,,,,,,3,,,69,0
104734,note_on,94,0,5,,,,,,,,,4,,,64,0
104734,note_on,0,0,6,,,,,,,,,5,,,69,0
104734,note_on,0,0,6,,,,,,,,,5,,,64,0
104734,note_on,94,0,6,,,,,,,,,5,,,60,0
104734,note_on,94,0,2,,,,,,,,,1,,,48,0
104734,note_on,94,0,8,,,,,,,,,7,,,48,0
104734,note_on,94,0,7,,,,,,,,,5,,,48,0
104734,note_on,94,0,3,,,,,,,,,2,,,72,0
104736,note_on,2,0,1,,,,,,,,,0,,,69,92
104736,note_on,2,0,4,,,,,,,,,3,,,66,92
104736,note_on,2,0,5,,,,,,,,,4,,,62,92
104736,note_on,2,0,7,,,,,,,,,5,,,50,92
104736,note_on,2,0,3,,,,,,,,,2,,,69,92
104736,note_on,2,0,6,,,,,,,,,5,,,57,92
104736,note_on,0,0,6,,,,,,,,,5,,,62,92
104736,note_on,2,0,8,,,,,,,,,7,,,50,92
104736,note_on,0,0,6,,,,,,,,,5,,,66,92
104736,note_on,2,0,2,,,,,,,,,1,,,50,92
104830,note_on,94,0,8,,,,,,,,,7,,,50,0
104830,note_on,94,0,1,,,,,,,,,0,,,69,0
104830,note_on,94,0,2,,,,,,,,,1,,,50,0
104830,note_on,0,0,6,,,,,,,,,5,,,66,0
104830,note_on,94,0,5,,,,,,,,,4,,,62,0
104830,note_on,94,0,6,,,,,,,,,5,,,57,0
104830,note_on,94,0,7,,,,,,,,,5,,,50,0
104830,note_on,94,0,3,,,,,,,,,2,,,69,0
104830,note_on,0,0,6,,,,,,,,,5,,,62,0
104830,note_on,94,0,4,,,,,,,,,3,,,66,0
104832,note_on,2,0,2,,,,,,,,,1,,,43,92
104832,note_on,2,0,7,,,,,,,,,5,,,43,92
104832,note_on,2,0,8,,,,,,,,,7,,,43,92
104832,note_on,2,0,1,,,,,,,,,0,,,67,92
104832,note_on,2,0,4,,,,,,,,,3,,,67,92
104832,note_on,2,0,5,,,,,,,,,4,,,59,92
104832,note_on,2,0,6,,,,,,,,,5,,,59,92
104832,note_on,0,0,6,,,,,,,,,5,,,62,92
104832,note_on,0,0,6,,,,,,,,,5,,,67,92
104832,note_on,2,0,3,,,,,,,,,2,,,67,92
105088,note_on,256,0,1,,,,,,,,,0,,,67,0
105088,end_of_track,0,1,1,,,,,,,,,,,,,
105088,note_on,256,0,7,,,,,,,,,5,,,43,0
105088,end_of_track,0,1,4,,,,,,,,,,,,,
105088,end_of_track,0,1,2,,,,,,,,,,,,,
105088,note_on,256,0,3,,,,,,,,,2,,,67,0
105088,end_of_track,0,1,3,,,,,,,,,,,,,
105088,note_on,256,0,8,,,,,,,,,7,,,43,0
105088,note_on,256,0,4,,,,,,,,,3,,,67,0
105088,end_of_track,0,1,7,,,,,,,,,,,,,
105088,note_on,256,0,5,,,,,,,,,4,,,59,0
105088,end_of_track,0,1,5,,,,,,,,,,,,,
105088,note_on,256,0,6,,,,,,,,,5,,,59,0
105088,note_on,0,0,6,,,,,,,,,5,,,62,0
105088,note_on,0,0,6,,,,,,,,,5,,,67,0
105088,end_of_track,0,1,6,,,,,,,,,,,,,
105088,note_on,256,0,2,,,,,,,,,1,,,43,0
105088,end_of_track,0,1,8,,,,,,,,,,,,,
