tick,type,numerator,denominator,clocks_per_click,notated_32nd_notes_per_beat,time,meta,track,key,tempo,program,channel,note,velocity
0,time_signature,3,4,24,8,0,1,0,,,,,,
0,program_change,,,,,0,0,4,,,68,12,,
0,track_name,,,,,0,1,4,,,,,,
0,track_name,,,,,0,1,6,,,,,,
0,program_change,,,,,0,0,6,,,6,1,,
0,program_change,,,,,0,0,5,,,42,3,,
0,program_change,,,,,0,0,3,,,66,6,,
0,track_name,,,,,0,1,3,,,,,,
0,track_name,,,,,0,1,5,,,,,,
0,track_name,,,,,0,1,2,,,,,,
0,program_change,,,,,0,0,1,,,0,0,,
0,program_change,,,,,0,0,2,,,71,2,,
0,key_signature,,,,,0,1,0,C,,,,,
0,set_tempo,,,,,0,1,0,,923076,,,,
0,track_name,,,,,0,1,1,,,,,,
3072,note_on,,,,,3072,0,4,,,,12,72,127
3072,note_on,,,,,3072,0,6,,,,1,48,114
3072,note_on,,,,,0,0,6,,,,1,52,114
3072,note_on,,,,,0,0,6,,,,1,55,114
3072,note_on,,,,,0,0,6,,,,1,60,114
3072,note_on,,,,,3072,0,5,,,,3,48,114
3584,note_on,,,,,512,0,6,,,,1,64,114
3584,note_on,,,,,0,0,6,,,,1,67,114
3584,note_on,,,,,3584,0,3,,,,6,64,88
3584,note_off,,,,,512,0,4,,,,12,72,0
3584,note_on,,,,,0,0,4,,,,12,67,127
3584,note_on,,,,,3584,0,2,,,,2,67,88
4096,note_on,,,,,0,0,6,,,,1,60,114
4096,note_off,,,,,512,0,4,,,,12,67,0
4096,note_on,,,,,0,0,4,,,,12,67,127
4096,note_off,,,,,512,0,6,,,,1,64,0
4096,note_off,,,,,0,0,6,,,,1,67,0
4096,note_on,,,,,0,0,6,,,,1,64,114
4096,note_on,,,,,0,0,6,,,,1,67,114
4096,note_off,,,,,0,0,6,,,,1,48,0
4096,note_off,,,,,0,0,6,,,,1,52,0
4096,note_off,,,,,0,0,6,,,,1,60,0
4096,note_on,,,,,0,0,6,,,,1,48,114
4096,note_off,,,,,1024,0,5,,,,3,48,0
4096,note_on,,,,,0,0,5,,,,3,48,114
4096,note_on,,,,,0,0,2,,,,2,67,88
4096,note_off,,,,,512,0,2,,,,2,67,0
4096,note_off,,,,,0,0,6,,,,1,55,0
4096,note_off,,,,,512,0,3,,,,6,64,0
4096,note_on,,,,,0,0,3,,,,6,64,88
4608,note_off,,,,,0,0,6,,,,1,48,0
4608,note_off,,,,,0,0,6,,,,1,60,0
4608,note_off,,,,,512,0,6,,,,1,64,0
4608,note_off,,,,,0,0,6,,,,1,67,0
4608,note_on,,,,,0,0,6,,,,1,65,114
4608,note_on,,,,,0,0,2,,,,2,72,88
4608,note_on,,,,,0,0,6,,,,1,67,114
4608,note_on,,,,,0,0,6,,,,1,72,114
4608,note_on,,,,,0,0,3,,,,6,67,88
4608,note_off,,,,,512,0,2,,,,2,67,0
4608,note_on,,,,,0,0,5,,,,3,50,114
4608,note_on,,,,,0,0,4,,,,12,72,127
4608,note_off,,,,,512,0,4,,,,12,67,0
4608,note_on,,,,,0,0,6,,,,1,50,114
4608,note_off,,,,,512,0,5,,,,3,48,0
4608,note_off,,,,,512,0,3,,,,6,64,0
5120,note_off,,,,,512,0,4,,,,12,72,0
5120,note_on,,,,,0,0,6,,,,1,60,114
5120,note_on,,,,,0,0,6,,,,1,52,114
5120,note_on,,,,,0,0,4,,,,12,72,127
5120,note_off,,,,,0,0,6,,,,1,50,0
5120,note_off,,,,,0,0,6,,,,1,72,0
5120,note_off,,,,,512,0,2,,,,2,72,0
5120,note_on,,,,,0,0,2,,,,2,72,88
5120,note_on,,,,,0,0,3,,,,6,67,88
5120,note_off,,,,,512,0,6,,,,1,65,0
5120,note_off,,,,,0,0,6,,,,1,67,0
5120,note_on,,,,,0,0,5,,,,3,52,114
5120,note_off,,,,,512,0,5,,,,3,50,0
5120,note_on,,,,,0,0,6,,,,1,72,114
5120,note_off,,,,,512,0,3,,,,6,67,0
5120,note_on,,,,,0,0,6,,,,1,67,114
5632,note_off,,,,,0,0,6,,,,1,72,0
5632,note_off,,,,,512,0,2,,,,2,72,0
5632,note_on,,,,,0,0,6,,,,1,48,114
5632,note_on,,,,,0,0,5,,,,3,48,114
5632,note_off,,,,,512,0,5,,,,3,52,0
5632,note_off,,,,,0,0,6,,,,1,60,0
5632,note_on,,,,,0,0,6,,,,1,67,114
5632,note_on,,,,,0,0,6,,,,1,76,114
5632,note_off,,,,,0,0,6,,,,1,52,0
5632,note_on,,,,,0,0,4,,,,12,76,127
5632,note_on,,,,,0,0,6,,,,1,72,114
5632,note_off,,,,,512,0,3,,,,6,67,0
5632,note_on,,,,,0,0,2,,,,2,76,88
5632,note_off,,,,,512,0,6,,,,1,67,0
5632,note_off,,,,,512,0,4,,,,12,72,0
5632,note_on,,,,,0,0,3,,,,6,72,88
6144,note_off,,,,,512,0,2,,,,2,76,0
6144,note_off,,,,,512,0,5,,,,3,48,0
6144,note_on,,,,,0,0,5,,,,3,55,114
6144,note_off,,,,,512,0,4,,,,12,76,0
6144,note_on,,,,,0,0,6,,,,1,55,114
6144,note_off,,,,,512,0,3,,,,6,72,0
6144,note_on,,,,,0,0,6,,,,1,62,114
6144,note_off,,,,,512,0,6,,,,1,67,0
6144,note_off,,,,,0,0,6,,,,1,72,0
6144,note_off,,,,,0,0,6,,,,1,76,0
6144,note_off,,,,,0,0,6,,,,1,48,0
6144,note_on,,,,,0,0,6,,,,1,59,114
6656,note_on,,,,,0,0,6,,,,1,74,114
6656,note_on,,,,,512,0,6,,,,1,71,114
6656,note_on,,,,,512,0,4,,,,12,74,127
6656,note_on,,,,,512,0,3,,,,6,71,88
6656,note_on,,,,,512,0,2,,,,2,74,88
7168,note_off,,,,,512,0,3,,,,6,71,0
7168,note_on,,,,,0,0,3,,,,6,71,88
7168,note_on,,,,,0,0,5,,,,3,43,114
7168,note_off,,,,,1024,0,5,,,,3,55,0
7168,note_on,,,,,0,0,6,,,,1,55,114
7168,note_on,,,,,0,0,6,,,,1,43,114
7168,note_on,,,,,0,0,2,,,,2,74,88
7168,note_off,,,,,0,0,6,,,,1,62,0
7168,note_on,,,,,0,0,6,,,,1,74,114
7168,note_off,,,,,512,0,2,,,,2,74,0
7168,note_off,,,,,512,0,4,,,,12,74,0
7168,note_on,,,,,0,0,4,,,,12,74,127
7168,note_off,,,,,512,0,6,,,,1,71,0
7168,note_off,,,,,0,0,6,,,,1,55,0
7168,note_off,,,,,0,0,6,,,,1,74,0
7168,note_off,,,,,0,0,6,,,,1,59,0
7168,note_on,,,,,0,0,6,,,,1,71,114
7168,note_on,,,,,0,0,6,,,,1,64,114
7680,note_on,,,,,0,0,6,,,,1,67,114
7680,note_on,,,,,0,0,6,,,,1,60,114
7680,note_off,,,,,0,0,6,,,,1,55,0
7680,note_on,,,,,0,0,6,,,,1,45,114
7680,note_on,,,,,0,0,3,,,,6,67,88
7680,note_off,,,,,512,0,3,,,,6,71,0
7680,note_off,,,,,0,0,6,,,,1,74,0
7680,note_off,,,,,0,0,6,,,,1,71,0
7680,note_off,,,,,512,0,6,,,,1,64,0
7680,note_off,,,,,0,0,6,,,,1,43,0
7680,note_on,,,,,0,0,6,,,,1,71,114
7680,note_off,,,,,512,0,4,,,,12,74,0
7680,note_on,,,,,0,0,2,,,,2,71,88
7680,note_off,,,,,512,0,2,,,,2,74,0
7680,note_off,,,,,512,0,5,,,,3,43,0
7680,note_on,,,,,0,0,5,,,,3,45,114
7680,note_on,,,,,0,0,4,,,,12,71,127
8192,note_off,,,,,512,0,2,,,,2,71,0
8192,note_off,,,,,512,0,4,,,,12,71,0
8192,note_on,,,,,0,0,4,,,,12,71,127
8192,note_off,,,,,512,0,5,,,,3,45,0
8192,note_on,,,,,0,0,5,,,,3,47,114
8192,note_on,,,,,0,0,2,,,,2,71,88
8192,note_off,,,,,512,0,6,,,,1,60,0
8192,note_off,,,,,0,0,6,,,,1,67,0
8192,note_off,,,,,0,0,6,,,,1,71,0
8192,note_on,,,,,0,0,3,,,,6,67,88
8192,note_on,,,,,0,0,6,,,,1,62,114
8192,note_on,,,,,0,0,6,,,,1,67,114
8192,note_on,,,,,0,0,6,,,,1,71,114
8192,note_off,,,,,0,0,6,,,,1,45,0
8192,note_on,,,,,0,0,6,,,,1,47,114
8192,note_on,,,,,0,0,6,,,,1,55,114
8192,note_off,,,,,512,0,3,,,,6,67,0
8704,note_off,,,,,512,0,6,,,,1,62,0
8704,note_off,,,,,512,0,4,,,,12,71,0
8704,note_on,,,,,0,0,6,,,,1,43,114
8704,note_off,,,,,0,0,6,,,,1,55,0
8704,note_off,,,,,0,0,6,,,,1,47,0
8704,note_on,,,,,0,0,6,,,,1,77,114
8704,note_on,,,,,0,0,6,,,,1,67,114
8704,note_off,,,,,0,0,6,,,,1,71,0
8704,note_off,,,,,0,0,6,,,,1,67,0
8704,note_on,,,,,0,0,4,,,,12,77,127
8704,note_on,,,,,0,0,6,,,,1,74,114
8704,note_on,,,,,0,0,2,,,,2,77,88
8704,note_off,,,,,512,0,2,,,,2,71,0
8704,note_off,,,,,512,0,5,,,,3,47,0
8704,note_on,,,,,0,0,5,,,,3,43,114
8704,note_off,,,,,512,0,3,,,,6,67,0
8704,note_on,,,,,0,0,3,,,,6,74,88
9216,note_off,,,,,512,0,2,,,,2,77,0
9216,note_off,,,,,512,0,3,,,,6,74,0
9216,note_on,,,,,0,0,6,,,,1,60,114
9216,note_on,,,,,0,0,6,,,,1,55,114
9216,note_on,,,,,0,0,5,,,,3,48,114
9216,note_on,,,,,0,0,6,,,,1,48,114
9216,note_off,,,,,512,0,6,,,,1,67,0
9216,note_off,,,,,0,0,6,,,,1,74,0
9216,note_off,,,,,0,0,6,,,,1,77,0
9216,note_on,,,,,0,0,6,,,,1,52,114
9216,note_off,,,,,512,0,5,,,,3,43,0
9216,note_off,,,,,0,0,6,,,,1,43,0
9216,note_off,,,,,512,0,4,,,,12,77,0
9728,note_on,,,,,512,0,2,,,,2,76,88
9728,note_on,,,,,0,0,6,,,,1,76,114
9728,note_on,,,,,512,0,3,,,,6,72,88
9728,note_on,,,,,512,0,6,,,,1,72,114
9728,note_on,,,,,512,0,4,,,,12,76,127
10240,note_off,,,,,0,0,6,,,,1,76,0
10240,note_on,,,,,0,0,6,,,,1,64,114
10240,note_on,,,,,0,0,6,,,,1,72,114
10240,note_on,,,,,0,0,6,,,,1,76,114
10240,note_off,,,,,0,0,6,,,,1,48,0
10240,note_on,,,,,0,0,6,,,,1,48,114
10240,note_off,,,,,0,0,6,,,,1,60,0
10240,note_off,,,,,512,0,6,,,,1,72,0
10240,note_off,,,,,0,0,6,,,,1,55,0
10240,note_off,,,,,1024,0,5,,,,3,48,0
10240,note_on,,,,,0,0,3,,,,6,72,88
10240,note_off,,,,,512,0,4,,,,12,76,0
10240,note_on,,,,,0,0,4,,,,12,76,127
10240,note_off,,,,,512,0,2,,,,2,76,0
10240,note_on,,,,,0,0,2,,,,2,76,88
10240,note_on,,,,,0,0,6,,,,1,60,114
10240,note_off,,,,,0,0,6,,,,1,52,0
10240,note_off,,,,,512,0,3,,,,6,72,0
10240,note_on,,,,,0,0,5,,,,3,48,114
10752,note_off,,,,,512,0,6,,,,1,64,0
10752,note_off,,,,,512,0,3,,,,6,72,0
10752,note_off,,,,,512,0,4,,,,12,76,0
10752,note_on,,,,,0,0,4,,,,12,72,127
10752,note_on,,,,,0,0,3,,,,6,67,88
10752,note_on,,,,,0,0,2,,,,2,72,88
10752,note_on,,,,,0,0,5,,,,3,50,114
10752,note_off,,,,,512,0,2,,,,2,76,0
10752,note_on,,,,,0,0,6,,,,1,50,114
10752,note_off,,,,,0,0,6,,,,1,60,0
10752,note_off,,,,,0,0,6,,,,1,48,0
10752,note_on,,,,,0,0,6,,,,1,72,114
10752,note_on,,,,,0,0,6,,,,1,67,114
10752,note_on,,,,,0,0,6,,,,1,65,114
10752,note_off,,,,,0,0,6,,,,1,76,0
10752,note_off,,,,,0,0,6,,,,1,72,0
10752,note_off,,,,,512,0,5,,,,3,48,0
11264,note_on,,,,,0,0,2,,,,2,72,88
11264,note_off,,,,,512,0,2,,,,2,72,0
11264,note_off,,,,,512,0,3,,,,6,67,0
11264,note_on,,,,,0,0,6,,,,1,60,114
11264,note_on,,,,,0,0,6,,,,1,52,114
11264,note_off,,,,,0,0,6,,,,1,50,0
11264,note_off,,,,,0,0,6,,,,1,72,0
11264,note_off,,,,,0,0,6,,,,1,67,0
11264,note_off,,,,,512,0,6,,,,1,65,0
11264,note_on,,,,,0,0,3,,,,6,67,88
11264,note_on,,,,,0,0,6,,,,1,67,114
11264,note_off,,,,,512,0,5,,,,3,50,0
11264,note_on,,,,,0,0,6,,,,1,72,114
11264,note_on,,,,,0,0,5,,,,3,52,114
11264,note_off,,,,,512,0,4,,,,12,72,0
11264,note_on,,,,,0,0,4,,,,12,72,127
11776,note_on,,,,,0,0,6,,,,1,48,114
11776,note_off,,,,,0,0,6,,,,1,60,0
11776,note_off,,,,,0,0,6,,,,1,52,0
11776,note_on,,,,,0,0,6,,,,1,82,114
11776,note_on,,,,,0,0,6,,,,1,76,114
11776,note_off,,,,,0,0,6,,,,1,72,0
11776,note_off,,,,,512,0,6,,,,1,67,0
11776,note_on,,,,,0,0,4,,,,12,82,127
11776,note_off,,,,,512,0,4,,,,12,72,0
11776,note_off,,,,,512,0,3,,,,6,67,0
11776,note_on,,,,,0,0,6,,,,1,72,114
11776,note_off,,,,,512,0,5,,,,3,52,0
11776,note_on,,,,,0,0,5,,,,3,48,114
11776,note_on,,,,,0,0,2,,,,2,82,88
11776,note_off,,,,,512,0,2,,,,2,72,0
11776,note_on,,,,,0,0,3,,,,6,76,88
12288,note_off,,,,,512,0,3,,,,6,76,0
12288,note_on,,,,,0,0,6,,,,1,60,114
12288,note_on,,,,,0,0,6,,,,1,57,114
12288,note_on,,,,,0,0,6,,,,1,53,114
12288,note_off,,,,,0,0,6,,,,1,48,0
12288,note_off,,,,,0,0,6,,,,1,82,0
12288,note_off,,,,,512,0,6,,,,1,72,0
12288,note_off,,,,,0,0,6,,,,1,76,0
12288,note_on,,,,,0,0,5,,,,3,53,114
12288,note_off,,,,,512,0,2,,,,2,82,0
12288,note_off,,,,,512,0,4,,,,12,82,0
12288,note_off,,,,,512,0,5,,,,3,48,0
12800,note_on,,,,,512,0,3,,,,6,77,88
12800,note_on,,,,,512,0,6,,,,1,77,114
12800,note_on,,,,,0,0,6,,,,1,81,114
12800,note_on,,,,,512,0,4,,,,12,81,127
12800,note_on,,,,,512,0,2,,,,2,81,88
13312,note_on,,,,,0,0,3,,,,6,77,88
13312,note_off,,,,,512,0,3,,,,6,77,0
13312,note_on,,,,,0,0,6,,,,1,57,114
13312,note_on,,,,,0,0,2,,,,2,81,88
13312,note_off,,,,,512,0,2,,,,2,81,0
13312,note_on,,,,,0,0,6,,,,1,53,114
13312,note_on,,,,,0,0,6,,,,1,72,114
13312,note_off,,,,,0,0,6,,,,1,57,0
13312,note_off,,,,,0,0,6,,,,1,53,0
13312,note_off,,,,,1024,0,5,,,,3,53,0
13312,note_on,,,,,0,0,5,,,,3,53,114
13312,note_on,,,,,0,0,4,,,,12,81,127
13312,note_off,,,,,512,0,4,,,,12,81,0
13312,note_off,,,,,512,0,6,,,,1,77,0
13312,note_on,,,,,0,0,6,,,,1,81,114
13312,note_on,,,,,0,0,6,,,,1,77,114
13312,note_off,,,,,0,0,6,,,,1,81,0
13312,note_off,,,,,0,0,6,,,,1,60,0
13824,note_on,,,,,0,0,3,,,,6,72,88
13824,note_off,,,,,512,0,3,,,,6,77,0
13824,note_off,,,,,512,0,5,,,,3,53,0
13824,note_on,,,,,0,0,4,,,,12,77,127
13824,note_off,,,,,512,0,4,,,,12,81,0
13824,note_on,,,,,0,0,2,,,,2,77,88
13824,note_off,,,,,512,0,2,,,,2,81,0
13824,note_on,,,,,0,0,6,,,,1,59,114
13824,note_on,,,,,0,0,6,,,,1,55,114
13824,note_off,,,,,0,0,6,,,,1,57,0
13824,note_off,,,,,0,0,6,,,,1,53,0
13824,note_on,,,,,0,0,6,,,,1,77,114
13824,note_on,,,,,0,0,6,,,,1,72,114
13824,note_on,,,,,0,0,6,,,,1,69,114
13824,note_off,,,,,0,0,6,,,,1,81,0
13824,note_off,,,,,0,0,6,,,,1,77,0
13824,note_off,,,,,512,0,6,,,,1,72,0
13824,note_on,,,,,0,0,5,,,,3,55,114
14336,note_on,,,,,0,0,5,,,,3,57,114
14336,note_off,,,,,512,0,3,,,,6,72,0
14336,note_on,,,,,0,0,3,,,,6,72,88
14336,note_off,,,,,512,0,5,,,,3,55,0
14336,note_on,,,,,0,0,2,,,,2,77,88
14336,note_on,,,,,0,0,6,,,,1,72,114
14336,note_off,,,,,512,0,2,,,,2,77,0
14336,note_on,,,,,0,0,6,,,,1,60,114
14336,note_on,,,,,0,0,4,,,,12,77,127
14336,note_off,,,,,512,0,4,,,,12,77,0
14336,note_off,,,,,512,0,6,,,,1,69,0
14336,note_off,,,,,0,0,6,,,,1,72,0
14336,note_off,,,,,0,0,6,,,,1,77,0
14336,note_on,,,,,0,0,6,,,,1,69,114
14336,note_on,,,,,0,0,6,,,,1,57,114
14336,note_on,,,,,0,0,6,,,,1,77,114
14336,note_off,,,,,0,0,6,,,,1,59,0
14336,note_off,,,,,0,0,6,,,,1,55,0
14848,note_on,,,,,0,0,6,,,,1,72,114
14848,note_off,,,,,512,0,6,,,,1,69,0
14848,note_off,,,,,0,0,6,,,,1,72,0
14848,note_off,,,,,512,0,5,,,,3,57,0
14848,note_on,,,,,0,0,6,,,,1,77,114
14848,note_off,,,,,512,0,4,,,,12,77,0
14848,note_on,,,,,0,0,4,,,,12,84,127
14848,note_on,,,,,0,0,2,,,,2,84,88
14848,note_off,,,,,512,0,2,,,,2,77,0
14848,note_on,,,,,0,0,5,,,,3,53,114
14848,note_on,,,,,0,0,6,,,,1,84,114
14848,note_off,,,,,0,0,6,,,,1,77,0
14848,note_off,,,,,0,0,6,,,,1,60,0
14848,note_on,,,,,0,0,3,,,,6,77,88
14848,note_on,,,,,0,0,6,,,,1,57,114
14848,note_on,,,,,0,0,6,,,,1,53,114
14848,note_off,,,,,512,0,3,,,,6,72,0
14848,note_off,,,,,0,0,6,,,,1,57,0
15360,note_off,,,,,0,0,6,,,,1,53,0
15360,note_off,,,,,0,0,6,,,,1,57,0
15360,note_off,,,,,512,0,2,,,,2,84,0
15360,note_on,,,,,0,0,2,,,,2,83,88
15360,note_on,,,,,0,0,6,,,,1,62,114
15360,note_on,,,,,0,0,4,,,,12,83,127
15360,note_off,,,,,512,0,4,,,,12,84,0
15360,note_on,,,,,0,0,6,,,,1,71,114
15360,note_on,,,,,0,0,6,,,,1,77,114
15360,note_on,,,,,0,0,6,,,,1,83,114
15360,note_on,,,,,0,0,6,,,,1,55,114
15360,note_off,,,,,0,0,6,,,,1,84,0
15360,note_off,,,,,0,0,6,,,,1,77,0
15360,note_off,,,,,512,0,3,,,,6,77,0
15360,note_on,,,,,0,0,3,,,,6,77,88
15360,note_off,,,,,512,0,5,,,,3,53,0
15360,note_on,,,,,0,0,5,,,,3,55,114
15360,note_off,,,,,512,0,6,,,,1,72,0
18432,note_off,,,,,0,0,6,,,,1,83,0
18432,note_on,,,,,0,0,3,,,,6,59,88
18432,note_off,,,,,3072,0,4,,,,12,83,0
18432,note_off,,,,,3072,0,5,,,,3,55,0
18432,note_on,,,,,0,0,5,,,,3,43,114
18432,note_on,,,,,0,0,6,,,,1,50,114
18432,note_on,,,,,0,0,6,,,,1,43,114
18432,note_off,,,,,3072,0,6,,,,1,71,0
18432,note_off,,,,,0,0,6,,,,1,77,0
18432,note_off,,,,,0,0,6,,,,1,62,0
18432,note_off,,,,,0,0,6,,,,1,55,0
18432,note_off,,,,,3072,0,3,,,,6,77,0
18432,note_off,,,,,3072,0,2,,,,2,83,0
18944,note_on,,,,,512,0,4,,,,12,62,127
18944,note_on,,,,,512,0,6,,,,1,62,114
18944,note_on,,,,,512,0,2,,,,2,62,88
19456,note_off,,,,,1024,0,3,,,,6,59,0
19456,note_on,,,,,0,0,5,,,,3,43,114
19456,note_off,,,,,1024,0,5,,,,3,43,0
19456,note_off,,,,,0,0,6,,,,1,50,0
19456,note_on,,,,,0,0,6,,,,1,43,114
19456,note_on,,,,,0,0,6,,,,1,55,114
19456,note_on,,,,,0,0,4,,,,12,62,127
19456,note_on,,,,,0,0,2,,,,2,62,88
19456,note_on,,,,,0,0,3,,,,6,59,88
19456,note_off,,,,,512,0,2,,,,2,62,0
19456,note_off,,,,,0,0,6,,,,1,43,0
19456,note_on,,,,,0,0,6,,,,1,62,114
19456,note_on,,,,,0,0,6,,,,1,59,114
19456,note_off,,,,,512,0,6,,,,1,62,0
19456,note_off,,,,,512,0,4,,,,12,62,0
19968,note_off,,,,,512,0,3,,,,6,59,0
19968,note_on,,,,,0,0,4,,,,12,67,127
19968,note_on,,,,,0,0,5,,,,3,45,114
19968,note_off,,,,,512,0,5,,,,3,43,0
19968,note_on,,,,,0,0,2,,,,2,67,88
19968,note_off,,,,,512,0,6,,,,1,59,0
19968,note_off,,,,,512,0,4,,,,12,62,0
19968,note_off,,,,,512,0,2,,,,2,62,0
19968,note_off,,,,,0,0,6,,,,1,62,0
19968,note_on,,,,,0,0,3,,,,6,62,88
19968,note_on,,,,,0,0,6,,,,1,62,114
19968,note_on,,,,,0,0,6,,,,1,45,114
19968,note_off,,,,,0,0,6,,,,1,55,0
19968,note_on,,,,,0,0,6,,,,1,60,114
19968,note_on,,,,,0,0,6,,,,1,67,114
19968,note_off,,,,,0,0,6,,,,1,43,0
20480,note_off,,,,,0,0,6,,,,1,67,0
20480,note_on,,,,,0,0,6,,,,1,62,114
20480,note_off,,,,,512,0,3,,,,6,62,0
20480,note_on,,,,,0,0,3,,,,6,62,88
20480,note_off,,,,,512,0,6,,,,1,60,0
20480,note_on,,,,,0,0,5,,,,3,47,114
20480,note_off,,,,,512,0,5,,,,3,45,0
20480,note_on,,,,,0,0,6,,,,1,67,114
20480,note_off,,,,,0,0,6,,,,1,45,0
20480,note_on,,,,,0,0,6,,,,1,47,114
20480,note_on,,,,,0,0,6,,,,1,55,114
20480,note_on,,,,,0,0,2,,,,2,67,88
20480,note_off,,,,,512,0,2,,,,2,67,0
20480,note_off,,,,,0,0,6,,,,1,62,0
20480,note_off,,,,,512,0,4,,,,12,67,0
20480,note_on,,,,,0,0,4,,,,12,67,127
20992,note_off,,,,,512,0,6,,,,1,62,0
20992,note_off,,,,,512,0,3,,,,6,62,0
20992,note_on,,,,,0,0,3,,,,6,62,88
20992,note_on,,,,,0,0,5,,,,3,43,114
20992,note_off,,,,,512,0,5,,,,3,47,0
20992,note_off,,,,,0,0,6,,,,1,55,0
20992,note_off,,,,,0,0,6,,,,1,47,0
20992,note_on,,,,,0,0,6,,,,1,71,114
20992,note_on,,,,,0,0,6,,,,1,67,114
20992,note_on,,,,,0,0,6,,,,1,43,114
20992,note_on,,,,,0,0,2,,,,2,71,88
20992,note_off,,,,,512,0,2,,,,2,67,0
20992,note_on,,,,,0,0,6,,,,1,62,114
20992,note_off,,,,,0,0,6,,,,1,67,0
20992,note_off,,,,,512,0,4,,,,12,67,0
20992,note_on,,,,,0,0,4,,,,12,71,127
21504,note_off,,,,,512,0,2,,,,2,71,0
21504,note_on,,,,,0,0,6,,,,1,52,114
21504,note_on,,,,,0,0,6,,,,1,43,114
21504,note_off,,,,,0,0,6,,,,1,43,0
21504,note_off,,,,,0,0,6,,,,1,71,0
21504,note_off,,,,,0,0,6,,,,1,67,0
21504,note_on,,,,,0,0,3,,,,6,60,88
21504,note_on,,,,,0,0,5,,,,3,43,114
21504,note_off,,,,,512,0,5,,,,3,43,0
21504,note_off,,,,,512,0,4,,,,12,71,0
21504,note_off,,,,,512,0,6,,,,1,62,0
21504,note_off,,,,,512,0,3,,,,6,62,0
22016,note_on,,,,,512,0,2,,,,2,64,88
22016,note_on,,,,,512,0,4,,,,12,64,127
22016,note_on,,,,,512,0,6,,,,1,64,114
22528,note_on,,,,,0,0,2,,,,2,64,88
22528,note_off,,,,,512,0,6,,,,1,64,0
22528,note_off,,,,,1024,0,5,,,,3,43,0
22528,note_on,,,,,0,0,5,,,,3,48,114
22528,note_off,,,,,512,0,4,,,,12,64,0
22528,note_off,,,,,512,0,2,,,,2,64,0
22528,note_on,,,,,0,0,3,,,,6,60,88
22528,note_on,,,,,0,0,4,,,,12,64,127
22528,note_on,,,,,0,0,6,,,,1,55,114
22528,note_on,,,,,0,0,6,,,,1,60,114
22528,note_on,,,,,0,0,6,,,,1,64,114
22528,note_off,,,,,1024,0,3,,,,6,60,0
22528,note_off,,,,,0,0,6,,,,1,52,0
22528,note_off,,,,,0,0,6,,,,1,43,0
22528,note_on,,,,,0,0,6,,,,1,48,114
23040,note_off,,,,,0,0,6,,,,1,64,0
23040,note_off,,,,,512,0,4,,,,12,64,0
23040,note_on,,,,,0,0,4,,,,12,67,127
23040,note_off,,,,,512,0,3,,,,6,60,0
23040,note_on,,,,,0,0,6,,,,1,50,114
23040,note_off,,,,,0,0,6,,,,1,55,0
23040,note_off,,,,,512,0,6,,,,1,60,0
23040,note_on,,,,,0,0,6,,,,1,69,114
23040,note_on,,,,,0,0,2,,,,2,67,88
23040,note_off,,,,,512,0,5,,,,3,48,0
23040,note_on,,,,,0,0,5,,,,3,50,114
23040,note_off,,,,,512,0,2,,,,2,64,0
23040,note_on,,,,,0,0,6,,,,1,67,114
23040,note_on,,,,,0,0,6,,,,1,60,114
23040,note_on,,,,,0,0,3,,,,6,60,88
23040,note_off,,,,,0,0,6,,,,1,48,0
23552,note_off,,,,,0,0,6,,,,1,50,0
23552,note_on,,,,,0,0,2,,,,2,67,88
23552,note_on,,,,,0,0,4,,,,12,67,127
23552,note_off,,,,,512,0,4,,,,12,67,0
23552,note_off,,,,,512,0,2,,,,2,67,0
23552,note_on,,,,,0,0,6,,,,1,64,114
23552,note_on,,,,,0,0,6,,,,1,60,114
23552,note_off,,,,,0,0,6,,,,1,69,0
23552,note_off,,,,,0,0,6,,,,1,67,0
23552,note_off,,,,,512,0,6,,,,1,60,0
23552,note_on,,,,,0,0,6,,,,1,55,114
23552,note_off,,,,,512,0,5,,,,3,50,0
23552,note_on,,,,,0,0,5,,,,3,52,114
23552,note_on,,,,,0,0,3,,,,6,64,88
23552,note_off,,,,,512,0,3,,,,6,60,0
23552,note_on,,,,,0,0,6,,,,1,67,114
23552,note_on,,,,,0,0,6,,,,1,52,114
24064,note_off,,,,,512,0,4,,,,12,67,0
24064,note_on,,,,,0,0,4,,,,12,72,127
24064,note_on,,,,,0,0,5,,,,3,48,114
24064,note_on,,,,,0,0,6,,,,1,48,114
24064,note_on,,,,,0,0,3,,,,6,67,88
24064,note_off,,,,,512,0,6,,,,1,60,0
24064,note_off,,,,,0,0,6,,,,1,55,0
24064,note_off,,,,,0,0,6,,,,1,52,0
24064,note_on,,,,,0,0,6,,,,1,72,114
24064,note_on,,,,,0,0,6,,,,1,67,114
24064,note_on,,,,,0,0,6,,,,1,64,114
24064,note_off,,,,,0,0,6,,,,1,67,0
24064,note_off,,,,,512,0,3,,,,6,64,0
24064,note_on,,,,,0,0,2,,,,2,72,88
24064,note_off,,,,,512,0,2,,,,2,67,0
24064,note_off,,,,,512,0,5,,,,3,52,0
24064,note_off,,,,,0,0,6,,,,1,64,0
24576,note_on,,,,,0,0,6,,,,1,43,114
24576,note_on,,,,,0,0,6,,,,1,50,114
24576,note_on,,,,,0,0,5,,,,3,43,114
24576,note_off,,,,,512,0,5,,,,3,48,0
24576,note_off,,,,,0,0,6,,,,1,48,0
24576,note_on,,,,,0,0,3,,,,6,59,88
24576,note_off,,,,,512,0,3,,,,6,67,0
24576,note_off,,,,,0,0,6,,,,1,67,0
24576,note_off,,,,,512,0,6,,,,1,64,0
24576,note_off,,,,,512,0,2,,,,2,72,0
24576,note_off,,,,,512,0,4,,,,12,72,0
24576,note_off,,,,,0,0,6,,,,1,72,0
25088,note_on,,,,,512,0,2,,,,2,62,88
25088,note_on,,,,,512,0,6,,,,1,62,114
25088,note_on,,,,,512,0,4,,,,12,62,127
25600,note_on,,,,,0,0,2,,,,2,62,88
25600,note_off,,,,,512,0,2,,,,2,62,0
25600,note_off,,,,,1024,0,5,,,,3,43,0
25600,note_on,,,,,0,0,5,,,,3,43,114
25600,note_on,,,,,0,0,6,,,,1,55,114
25600,note_off,,,,,0,0,6,,,,1,50,0
25600,note_off,,,,,512,0,4,,,,12,62,0
25600,note_off,,,,,512,0,6,,,,1,62,0
25600,note_on,,,,,0,0,6,,,,1,59,114
25600,note_on,,,,,0,0,6,,,,1,62,114
25600,note_off,,,,,0,0,6,,,,1,43,0
25600,note_off,,,,,1024,0,3,,,,6,59,0
25600,note_on,,,,,0,0,3,,,,6,59,88
25600,note_on,,,,,0,0,6,,,,1,43,114
25600,note_on,,,,,0,0,4,,,,12,62,127
26112,note_on,,,,,0,0,6,,,,1,60,114
26112,note_off,,,,,512,0,4,,,,12,62,0
26112,note_on,,,,,0,0,4,,,,12,67,127
26112,note_off,,,,,512,0,3,,,,6,59,0
26112,note_on,,,,,0,0,2,,,,2,67,88
26112,note_on,,,,,0,0,3,,,,6,62,88
26112,note_off,,,,,512,0,5,,,,3,43,0
26112,note_on,,,,,0,0,5,,,,3,45,114
26112,note_off,,,,,512,0,2,,,,2,62,0
26112,note_off,,,,,0,0,6,,,,1,62,0
26112,note_off,,,,,512,0,6,,,,1,59,0
26112,note_on,,,,,0,0,6,,,,1,62,114
26112,note_on,,,,,0,0,6,,,,1,67,114
26112,note_off,,,,,0,0,6,,,,1,43,0
26112,note_off,,,,,0,0,6,,,,1,55,0
26112,note_on,,,,,0,0,6,,,,1,45,114
26624,note_off,,,,,0,0,6,,,,1,67,0
26624,note_off,,,,,0,0,6,,,,1,45,0
26624,note_off,,,,,512,0,2,,,,2,67,0
26624,note_on,,,,,0,0,2,,,,2,67,88
26624,note_off,,,,,512,0,4,,,,12,67,0
26624,note_on,,,,,0,0,6,,,,1,55,114
26624,note_on,,,,,0,0,3,,,,6,62,88
26624,note_off,,,,,512,0,3,,,,6,62,0
26624,note_on,,,,,0,0,6,,,,1,67,114
26624,note_on,,,,,0,0,4,,,,12,67,127
26624,note_on,,,,,0,0,6,,,,1,47,114
26624,note_off,,,,,0,0,6,,,,1,62,0
26624,note_off,,,,,512,0,6,,,,1,60,0
26624,note_off,,,,,512,0,5,,,,3,45,0
26624,note_on,,,,,0,0,5,,,,3,47,114
26624,note_on,,,,,0,0,6,,,,1,62,114
27136,note_off,,,,,0,0,6,,,,1,67,0
27136,note_off,,,,,512,0,6,,,,1,62,0
27136,note_on,,,,,0,0,6,,,,1,62,114
27136,note_on,,,,,0,0,6,,,,1,67,114
27136,note_on,,,,,0,0,6,,,,1,43,114
27136,note_off,,,,,512,0,3,,,,6,62,0
27136,note_on,,,,,0,0,4,,,,12,71,127
27136,note_off,,,,,512,0,2,,,,2,67,0
27136,note_on,,,,,0,0,2,,,,2,71,88
27136,note_on,,,,,0,0,3,,,,6,62,88
27136,note_on,,,,,0,0,6,,,,1,71,114
27136,note_off,,,,,512,0,5,,,,3,47,0
27136,note_on,,,,,0,0,5,,,,3,43,114
27136,note_off,,,,,0,0,6,,,,1,55,0
27136,note_off,,,,,0,0,6,,,,1,47,0
27136,note_off,,,,,512,0,4,,,,12,67,0
27648,note_off,,,,,0,0,6,,,,1,67,0
27648,note_off,,,,,512,0,2,,,,2,71,0
27648,note_off,,,,,512,0,4,,,,12,71,0
27648,note_on,,,,,0,0,3,,,,6,67,88
27648,note_off,,,,,512,0,3,,,,6,62,0
27648,note_on,,,,,0,0,5,,,,3,43,114
27648,note_off,,,,,512,0,5,,,,3,43,0
27648,note_off,,,,,512,0,6,,,,1,62,0
27648,note_on,,,,,0,0,6,,,,1,52,114
27648,note_off,,,,,0,0,6,,,,1,71,0
27648,note_off,,,,,0,0,6,,,,1,43,0
27648,note_on,,,,,0,0,6,,,,1,60,114
27648,note_on,,,,,0,0,6,,,,1,67,114
27648,note_on,,,,,0,0,6,,,,1,43,114
28160,note_on,,,,,0,0,6,,,,1,48,114
28160,note_on,,,,,0,0,6,,,,1,55,114
28160,note_on,,,,,512,0,2,,,,2,76,88
28160,note_off,,,,,512,0,3,,,,6,67,0
28160,note_on,,,,,0,0,3,,,,6,72,88
28160,note_off,,,,,0,0,6,,,,1,52,0
28160,note_off,,,,,0,0,6,,,,1,43,0
28160,note_off,,,,,0,0,6,,,,1,67,0
28160,note_on,,,,,0,0,6,,,,1,72,114
28160,note_on,,,,,0,0,6,,,,1,64,114
28160,note_on,,,,,512,0,4,,,,12,72,127
28160,note_off,,,,,512,0,6,,,,1,60,0
28160,note_off,,,,,512,0,5,,,,3,43,0
28160,note_on,,,,,0,0,5,,,,3,48,114
28160,note_on,,,,,0,0,6,,,,1,76,114
28672,note_on,,,,,0,0,6,,,,1,69,114
28672,note_on,,,,,0,0,6,,,,1,65,114
28672,note_off,,,,,0,0,6,,,,1,76,0
28672,note_on,,,,,0,0,6,,,,1,74,114
28672,note_on,,,,,0,0,6,,,,1,77,114
28672,note_on,,,,,0,0,3,,,,6,74,88
28672,note_off,,,,,512,0,3,,,,6,72,0
28672,note_off,,,,,0,0,6,,,,1,72,0
28672,note_on,,,,,0,0,4,,,,12,74,127
28672,note_off,,,,,512,0,6,,,,1,64,0
28672,note_off,,,,,0,0,6,,,,1,48,0
28672,note_off,,,,,0,0,6,,,,1,55,0
28672,note_on,,,,,0,0,6,,,,1,41,114
28672,note_on,,,,,0,0,6,,,,1,53,114
28672,note_on,,,,,0,0,2,,,,2,77,88
28672,note_off,,,,,512,0,5,,,,3,48,0
28672,note_on,,,,,0,0,5,,,,3,41,114
28672,note_off,,,,,512,0,4,,,,12,72,0
28672,note_off,,,,,512,0,2,,,,2,76,0
29696,note_off,,,,,1024,0,3,,,,6,74,0
29696,note_on,,,,,0,0,3,,,,6,71,88
29696,note_on,,,,,0,0,2,,,,2,74,88
29696,note_off,,,,,1024,0,2,,,,2,77,0
29696,note_off,,,,,1024,0,5,,,,3,41,0
29696,note_on,,,,,0,0,5,,,,3,43,114
29696,note_off,,,,,0,0,6,,,,1,41,0
29696,note_on,,,,,0,0,6,,,,1,62,114
29696,note_on,,,,,0,0,6,,,,1,71,114
29696,note_on,,,,,0,0,6,,,,1,55,114
29696,note_on,,,,,0,0,6,,,,1,67,114
29696,note_on,,,,,0,0,6,,,,1,74,114
29696,note_off,,,,,0,0,6,,,,1,77,0
29696,note_off,,,,,0,0,6,,,,1,74,0
29696,note_off,,,,,0,0,6,,,,1,69,0
29696,note_off,,,,,1024,0,6,,,,1,65,0
29696,note_off,,,,,1024,0,4,,,,12,74,0
29696,note_on,,,,,0,0,4,,,,12,71,127
29696,note_on,,,,,0,0,6,,,,1,43,114
29696,note_off,,,,,0,0,6,,,,1,53,0
30720,note_on,,,,,0,0,4,,,,12,72,127
30720,note_off,,,,,0,0,6,,,,1,43,0
30720,note_off,,,,,0,0,6,,,,1,55,0
30720,note_on,,,,,0,0,6,,,,1,64,49
30720,note_off,,,,,1024,0,4,,,,12,71,0
30720,note_on,,,,,0,0,6,,,,1,55,49
30720,note_on,,,,,0,0,6,,,,1,48,49
30720,note_off,,,,,0,0,6,,,,1,74,0
30720,note_off,,,,,0,0,6,,,,1,71,0
30720,note_off,,,,,1024,0,3,,,,6,71,0
30720,note_off,,,,,1024,0,6,,,,1,62,0
30720,note_on,,,,,0,0,6,,,,1,72,49
30720,note_off,,,,,1024,0,5,,,,3,43,0
30720,note_on,,,,,0,0,5,,,,3,48,49
30720,note_on,,,,,0,0,2,,,,2,72,49
30720,note_off,,,,,1024,0,2,,,,2,74,0
30720,note_on,,,,,0,0,3,,,,6,67,49
30720,note_off,,,,,0,0,6,,,,1,67,0
30720,note_on,,,,,0,0,6,,,,1,67,49
31232,note_off,,,,,512,0,5,,,,3,48,0
31232,note_on,,,,,0,0,5,,,,3,60,49
31232,note_on,,,,,0,0,6,,,,1,67,49
31232,note_off,,,,,0,0,6,,,,1,67,0
31232,note_off,,,,,0,0,6,,,,1,72,0
31232,note_on,,,,,0,0,6,,,,1,76,49
31232,note_off,,,,,0,0,6,,,,1,48,0
31232,note_off,,,,,0,0,6,,,,1,55,0
31232,note_on,,,,,0,0,6,,,,1,60,49
31232,note_on,,,,,0,0,3,,,,6,67,49
31232,note_off,,,,,512,0,3,,,,6,67,0
31232,note_on,,,,,0,0,2,,,,2,76,49
31232,note_off,,,,,512,0,2,,,,2,72,0
31232,note_off,,,,,512,0,6,,,,1,64,0
31744,note_off,,,,,512,0,5,,,,3,60,0
31744,note_on,,,,,0,0,2,,,,2,76,49
31744,note_off,,,,,512,0,2,,,,2,76,0
31744,note_on,,,,,0,0,5,,,,3,60,49
31744,note_off,,,,,1024,0,4,,,,12,72,0
31744,note_off,,,,,0,0,6,,,,1,76,0
31744,note_off,,,,,512,0,3,,,,6,67,0
31744,note_on,,,,,0,0,3,,,,6,67,49
31744,note_on,,,,,0,0,6,,,,1,67,49
31744,note_on,,,,,0,0,6,,,,1,76,49
31744,note_off,,,,,0,0,6,,,,1,60,0
31744,note_on,,,,,0,0,6,,,,1,60,49
31744,note_off,,,,,512,0,6,,,,1,67,0
32256,note_off,,,,,0,0,6,,,,1,76,0
32256,note_off,,,,,512,0,6,,,,1,67,0
32256,note_on,,,,,0,0,5,,,,3,60,49
32256,note_on,,,,,0,0,6,,,,1,67,49
32256,note_on,,,,,0,0,6,,,,1,76,49
32256,note_on,,,,,0,0,6,,,,1,60,49
32256,note_on,,,,,0,0,2,,,,2,76,49
32256,note_off,,,,,512,0,2,,,,2,76,0
32256,note_on,,,,,512,0,4,,,,12,79,114
32256,note_on,,,,,0,0,3,,,,6,67,49
32256,note_off,,,,,512,0,3,,,,6,67,0
32256,note_off,,,,,0,0,6,,,,1,60,0
32256,note_off,,,,,512,0,5,,,,3,60,0
32512,note_off,,,,,256,0,4,,,,12,79,0
32512,note_on,,,,,0,0,4,,,,12,77,114
32768,note_off,,,,,512,0,5,,,,3,60,0
32768,note_on,,,,,0,0,5,,,,3,60,49
32768,note_on,,,,,0,0,6,,,,1,60,49
32768,note_off,,,,,256,0,4,,,,12,77,0
32768,note_on,,,,,0,0,2,,,,2,76,49
32768,note_off,,,,,512,0,2,,,,2,76,0
32768,note_off,,,,,0,0,6,,,,1,60,0
32768,note_on,,,,,0,0,6,,,,1,76,49
32768,note_on,,,,,0,0,6,,,,1,67,49
32768,note_off,,,,,0,0,6,,,,1,76,0
32768,note_on,,,,,0,0,4,,,,12,77,114
32768,note_off,,,,,512,0,6,,,,1,67,0
32768,note_on,,,,,0,0,3,,,,6,67,49
32768,note_off,,,,,512,0,3,,,,6,67,0
32853,note_on,,,,,0,0,4,,,,12,76,114
32853,note_off,,,,,85,0,4,,,,12,77,0
32939,note_on,,,,,0,0,4,,,,12,77,114
32939,note_off,,,,,86,0,4,,,,12,76,0
33024,note_on,,,,,0,0,4,,,,12,76,114
33024,note_off,,,,,85,0,4,,,,12,77,0
33109,note_on,,,,,0,0,4,,,,12,77,114
33109,note_off,,,,,85,0,4,,,,12,76,0
33195,note_on,,,,,0,0,4,,,,12,76,114
33195,note_off,,,,,86,0,4,,,,12,77,0
33280,note_on,,,,,0,0,3,,,,6,67,49
33280,note_off,,,,,512,0,3,,,,6,67,0
33280,note_off,,,,,85,0,4,,,,12,76,0
33280,note_on,,,,,0,0,6,,,,1,60,49
33280,note_off,,,,,0,0,6,,,,1,60,0
33280,note_on,,,,,0,0,6,,,,1,67,49
33280,note_off,,,,,512,0,5,,,,3,60,0
33280,note_on,,,,,0,0,5,,,,3,60,49
33280,note_off,,,,,0,0,6,,,,1,76,0
33280,note_on,,,,,0,0,2,,,,2,76,49
33280,note_off,,,,,512,0,2,,,,2,76,0
33280,note_on,,,,,0,0,6,,,,1,76,49
33280,note_on,,,,,0,0,4,,,,12,77,114
33280,note_off,,,,,512,0,6,,,,1,67,0
33365,note_off,,,,,85,0,4,,,,12,77,0
33365,note_on,,,,,0,0,4,,,,12,76,114
33451,note_off,,,,,86,0,4,,,,12,76,0
33451,note_on,,,,,0,0,4,,,,12,77,114
33536,note_off,,,,,85,0,4,,,,12,77,0
33536,note_on,,,,,0,0,4,,,,12,76,114
33621,note_off,,,,,85,0,4,,,,12,76,0
33621,note_on,,,,,0,0,4,,,,12,77,114
33707,note_off,,,,,86,0,4,,,,12,77,0
33707,note_on,,,,,0,0,4,,,,12,76,114
33792,note_off,,,,,512,0,5,,,,3,60,0
33792,note_on,,,,,0,0,5,,,,3,67,49
33792,note_on,,,,,0,0,3,,,,6,71,49
33792,note_off,,,,,512,0,3,,,,6,67,0
33792,note_on,,,,,0,0,6,,,,1,67,49
33792,note_on,,,,,0,0,6,,,,1,71,49
33792,note_on,,,,,0,0,6,,,,1,74,49
33792,note_off,,,,,0,0,6,,,,1,76,0
33792,note_off,,,,,512,0,6,,,,1,67,0
33792,note_off,,,,,512,0,2,,,,2,76,0
33792,note_on,,,,,0,0,4,,,,12,74,114
33792,note_on,,,,,0,0,2,,,,2,74,49
33792,note_off,,,,,85,0,4,,,,12,76,0
33792,note_off,,,,,0,0,6,,,,1,60,0
34304,note_on,,,,,0,0,6,,,,1,74,49
34304,note_on,,,,,0,0,3,,,,6,71,49
34304,note_on,,,,,0,0,6,,,,1,55,49
34304,note_off,,,,,0,0,6,,,,1,67,0
34304,note_off,,,,,512,0,2,,,,2,74,0
34304,note_on,,,,,0,0,6,,,,1,71,49
34304,note_off,,,,,0,0,6,,,,1,74,0
34304,note_on,,,,,0,0,5,,,,3,55,49
34304,note_off,,,,,512,0,5,,,,3,67,0
34304,note_off,,,,,512,0,3,,,,6,71,0
34304,note_off,,,,,512,0,6,,,,1,71,0
34304,note_on,,,,,0,0,2,,,,2,74,49
34816,note_off,,,,,512,0,5,,,,3,55,0
34816,note_on,,,,,0,0,5,,,,3,55,49
34816,note_off,,,,,0,0,6,,,,1,55,0
34816,note_on,,,,,0,0,6,,,,1,74,49
34816,note_off,,,,,512,0,2,,,,2,74,0
34816,note_off,,,,,512,0,3,,,,6,71,0
34816,note_on,,,,,0,0,3,,,,6,71,49
34816,note_off,,,,,0,0,6,,,,1,74,0
34816,note_off,,,,,512,0,6,,,,1,71,0
34816,note_off,,,,,1024,0,4,,,,12,74,0
34816,note_on,,,,,0,0,6,,,,1,55,49
34816,note_on,,,,,0,0,2,,,,2,74,49
34816,note_on,,,,,0,0,6,,,,1,71,49
35328,note_off,,,,,512,0,6,,,,1,71,0
35328,note_on,,,,,512,0,4,,,,12,77,114
35328,note_on,,,,,0,0,6,,,,1,71,49
35328,note_on,,,,,0,0,6,,,,1,74,49
35328,note_off,,,,,0,0,6,,,,1,55,0
35328,note_on,,,,,0,0,6,,,,1,55,49
35328,note_on,,,,,0,0,5,,,,3,55,49
35328,note_off,,,,,512,0,5,,,,3,55,0
35328,note_off,,,,,512,0,2,,,,2,74,0
35328,note_off,,,,,512,0,3,,,,6,71,0
35328,note_on,,,,,0,0,3,,,,6,71,49
35328,note_on,,,,,0,0,2,,,,2,74,49
35328,note_off,,,,,0,0,6,,,,1,74,0
35584,note_on,,,,,0,0,4,,,,12,76,114
35584,note_off,,,,,256,0,4,,,,12,77,0
35840,note_on,,,,,0,0,5,,,,3,55,49
35840,note_off,,,,,512,0,5,,,,3,55,0
35840,note_on,,,,,0,0,4,,,,12,76,114
35840,note_off,,,,,256,0,4,,,,12,76,0
35840,note_on,,,,,0,0,2,,,,2,74,49
35840,note_off,,,,,512,0,6,,,,1,71,0
35840,note_off,,,,,0,0,6,,,,1,74,0
35840,note_on,,,,,0,0,6,,,,1,71,49
35840,note_on,,,,,0,0,6,,,,1,74,49
35840,note_off,,,,,0,0,6,,,,1,55,0
35840,note_on,,,,,0,0,6,,,,1,55,49
35840,note_off,,,,,512,0,2,,,,2,74,0
35840,note_off,,,,,512,0,3,,,,6,71,0
35840,note_on,,,,,0,0,3,,,,6,71,49
35925,note_on,,,,,0,0,4,,,,12,74,114
35925,note_off,,,,,85,0,4,,,,12,76,0
36011,note_on,,,,,0,0,4,,,,12,76,114
36011,note_off,,,,,86,0,4,,,,12,74,0
36096,note_off,,,,,85,0,4,,,,12,76,0
36096,note_on,,,,,0,0,4,,,,12,74,114
36181,note_on,,,,,0,0,4,,,,12,76,114
36181,note_off,,,,,85,0,4,,,,12,74,0
36267,note_on,,,,,0,0,4,,,,12,74,114
36267,note_off,,,,,86,0,4,,,,12,76,0
36352,note_off,,,,,0,0,6,,,,1,74,0
36352,note_off,,,,,85,0,4,,,,12,74,0
36352,note_on,,,,,0,0,4,,,,12,76,114
36352,note_off,,,,,512,0,3,,,,6,71,0
36352,note_on,,,,,0,0,3,,,,6,71,49
36352,note_on,,,,,0,0,2,,,,2,74,49
36352,note_off,,,,,512,0,2,,,,2,74,0
36352,note_on,,,,,0,0,5,,,,3,55,49
36352,note_off,,,,,512,0,5,,,,3,55,0
36352,note_off,,,,,512,0,6,,,,1,71,0
36352,note_on,,,,,0,0,6,,,,1,55,49
36352,note_on,,,,,0,0,6,,,,1,71,49
36352,note_on,,,,,0,0,6,,,,1,74,49
36352,note_off,,,,,0,0,6,,,,1,55,0
36437,note_off,,,,,85,0,4,,,,12,76,0
36437,note_on,,,,,0,0,4,,,,12,74,114
36523,note_off,,,,,86,0,4,,,,12,74,0
36523,note_on,,,,,0,0,4,,,,12,76,114
36608,note_off,,,,,85,0,4,,,,12,76,0
36608,note_on,,,,,0,0,4,,,,12,74,114
36693,note_on,,,,,0,0,4,,,,12,76,114
36693,note_off,,,,,85,0,4,,,,12,74,0
36779,note_off,,,,,86,0,4,,,,12,76,0
36779,note_on,,,,,0,0,4,,,,12,74,114
36864,note_on,,,,,0,0,2,,,,2,76,49
36864,note_on,,,,,0,0,6,,,,1,60,49
36864,note_on,,,,,0,0,4,,,,12,72,114
36864,note_off,,,,,512,0,2,,,,2,74,0
36864,note_on,,,,,0,0,3,,,,6,67,49
36864,note_off,,,,,512,0,6,,,,1,71,0
36864,note_off,,,,,85,0,4,,,,12,74,0
36864,note_off,,,,,0,0,6,,,,1,55,0
36864,note_on,,,,,0,0,5,,,,3,60,49
36864,note_off,,,,,512,0,5,,,,3,55,0
36864,note_on,,,,,0,0,6,,,,1,67,49
36864,note_on,,,,,0,0,6,,,,1,76,49
36864,note_off,,,,,512,0,3,,,,6,71,0
36864,note_off,,,,,0,0,6,,,,1,74,0
37376,note_off,,,,,512,0,6,,,,1,67,0
37376,note_on,,,,,0,0,2,,,,2,67,49
37376,note_off,,,,,512,0,2,,,,2,76,0
37376,note_off,,,,,512,0,3,,,,6,67,0
37376,note_on,,,,,0,0,5,,,,3,60,49
37376,note_off,,,,,512,0,5,,,,3,60,0
37376,note_on,,,,,0,0,6,,,,1,60,49
37376,note_off,,,,,0,0,6,,,,1,60,0
37376,note_on,,,,,0,0,6,,,,1,67,49
37376,note_on,,,,,0,0,6,,,,1,64,49
37376,note_off,,,,,0,0,6,,,,1,76,0
37376,note_on,,,,,0,0,3,,,,6,64,49
37888,note_off,,,,,1024,0,4,,,,12,72,0
37888,note_on,,,,,0,0,3,,,,6,64,49
37888,note_on,,,,,0,0,5,,,,3,60,49
37888,note_off,,,,,0,0,6,,,,1,67,0
37888,note_off,,,,,512,0,6,,,,1,64,0
37888,note_off,,,,,0,0,6,,,,1,60,0
37888,note_off,,,,,512,0,3,,,,6,64,0
37888,note_on,,,,,0,0,6,,,,1,60,49
37888,note_on,,,,,0,0,6,,,,1,64,49
37888,note_off,,,,,512,0,5,,,,3,60,0
37888,note_on,,,,,0,0,6,,,,1,67,49
37888,note_off,,,,,512,0,2,,,,2,67,0
37888,note_on,,,,,0,0,2,,,,2,67,49
38400,note_off,,,,,0,0,6,,,,1,60,0
38400,note_on,,,,,0,0,6,,,,1,67,49
38400,note_off,,,,,512,0,6,,,,1,64,0
38400,note_on,,,,,0,0,6,,,,1,60,49
38400,note_off,,,,,512,0,2,,,,2,67,0
38400,note_on,,,,,0,0,3,,,,6,64,49
38400,note_off,,,,,512,0,3,,,,6,64,0
38400,note_on,,,,,0,0,2,,,,2,67,49
38400,note_on,,,,,512,0,4,,,,12,76,114
38400,note_on,,,,,0,0,5,,,,3,60,49
38400,note_off,,,,,512,0,5,,,,3,60,0
38400,note_on,,,,,0,0,6,,,,1,64,49
38400,note_off,,,,,0,0,6,,,,1,67,0
38656,note_off,,,,,256,0,4,,,,12,76,0
38656,note_on,,,,,0,0,4,,,,12,74,114
38912,note_off,,,,,512,0,2,,,,2,67,0
38912,note_off,,,,,512,0,6,,,,1,64,0
38912,note_off,,,,,0,0,6,,,,1,67,0
38912,note_on,,,,,0,0,6,,,,1,64,49
38912,note_off,,,,,0,0,6,,,,1,60,0
38912,note_on,,,,,0,0,6,,,,1,60,49
38912,note_off,,,,,256,0,4,,,,12,74,0
38912,note_on,,,,,0,0,4,,,,12,74,114
38912,note_on,,,,,0,0,2,,,,2,67,49
38912,note_on,,,,,0,0,6,,,,1,67,49
38912,note_on,,,,,0,0,3,,,,6,64,49
38912,note_off,,,,,512,0,3,,,,6,64,0
38912,note_off,,,,,512,0,5,,,,3,60,0
38912,note_on,,,,,0,0,5,,,,3,60,49
38997,note_on,,,,,0,0,4,,,,12,72,114
38997,note_off,,,,,85,0,4,,,,12,74,0
39083,note_on,,,,,0,0,4,,,,12,74,114
39083,note_off,,,,,86,0,4,,,,12,72,0
39168,note_on,,,,,0,0,4,,,,12,72,114
39168,note_off,,,,,85,0,4,,,,12,74,0
39253,note_on,,,,,0,0,4,,,,12,74,114
39253,note_off,,,,,85,0,4,,,,12,72,0
39339,note_off,,,,,86,0,4,,,,12,74,0
39339,note_on,,,,,0,0,4,,,,12,72,114
39424,note_off,,,,,85,0,4,,,,12,72,0
39424,note_on,,,,,0,0,2,,,,2,67,49
39424,note_on,,,,,0,0,4,,,,12,74,114
39424,note_on,,,,,0,0,5,,,,3,60,49
39424,note_off,,,,,512,0,5,,,,3,60,0
39424,note_off,,,,,512,0,2,,,,2,67,0
39424,note_off,,,,,0,0,6,,,,1,60,0
39424,note_on,,,,,0,0,6,,,,1,67,49
39424,note_on,,,,,0,0,6,,,,1,64,49
39424,note_off,,,,,0,0,6,,,,1,67,0
39424,note_off,,,,,512,0,6,,,,1,64,0
39424,note_off,,,,,512,0,3,,,,6,64,0
39424,note_on,,,,,0,0,6,,,,1,60,49
39424,note_on,,,,,0,0,3,,,,6,64,49
39509,note_on,,,,,0,0,4,,,,12,72,114
39509,note_off,,,,,85,0,4,,,,12,74,0
39595,note_on,,,,,0,0,4,,,,12,74,114
39595,note_off,,,,,86,0,4,,,,12,72,0
39680,note_on,,,,,0,0,4,,,,12,72,114
39680,note_off,,,,,85,0,4,,,,12,74,0
39765,note_on,,,,,0,0,4,,,,12,74,114
39765,note_off,,,,,85,0,4,,,,12,72,0
39851,note_on,,,,,0,0,4,,,,12,72,114
39851,note_off,,,,,86,0,4,,,,12,74,0
39936,note_on,,,,,0,0,5,,,,3,55,49
39936,note_off,,,,,85,0,4,,,,12,72,0
39936,note_off,,,,,512,0,6,,,,1,64,0
39936,note_off,,,,,0,0,6,,,,1,67,0
39936,note_off,,,,,512,0,3,,,,6,64,0
39936,note_off,,,,,0,0,6,,,,1,60,0
39936,note_on,,,,,0,0,6,,,,1,55,49
39936,note_on,,,,,0,0,6,,,,1,71,49
39936,note_on,,,,,0,0,6,,,,1,62,49
39936,note_off,,,,,512,0,2,,,,2,67,0
39936,note_on,,,,,0,0,4,,,,12,71,114
39936,note_on,,,,,0,0,3,,,,6,62,49
39936,note_on,,,,,0,0,2,,,,2,71,49
39936,note_off,,,,,512,0,5,,,,3,60,0
40064,note_on,,,,,0,0,4,,,,12,72,114
40064,note_off,,,,,128,0,4,,,,12,71,0
40192,note_off,,,,,128,0,4,,,,12,72,0
40192,note_on,,,,,0,0,4,,,,12,74,114
40448,note_on,,,,,0,0,2,,,,2,71,49
40448,note_off,,,,,512,0,2,,,,2,71,0
40448,note_on,,,,,0,0,6,,,,1,55,49
40448,note_off,,,,,0,0,6,,,,1,55,0
40448,note_on,,,,,0,0,6,,,,1,71,49
40448,note_off,,,,,0,0,6,,,,1,71,0
40448,note_off,,,,,512,0,6,,,,1,62,0
40448,note_on,,,,,0,0,6,,,,1,62,49
40448,note_on,,,,,0,0,3,,,,6,62,49
40448,note_off,,,,,512,0,3,,,,6,62,0
40448,note_off,,,,,512,0,5,,,,3,55,0
40448,note_on,,,,,0,0,5,,,,3,55,49
40960,note_off,,,,,512,0,5,,,,3,55,0
40960,note_off,,,,,768,0,4,,,,12,74,0
40960,note_on,,,,,0,0,4,,,,12,77,114
40960,note_on,,,,,0,0,5,,,,3,55,49
40960,note_on,,,,,0,0,6,,,,1,55,49
40960,note_off,,,,,0,0,6,,,,1,55,0
40960,note_off,,,,,0,0,6,,,,1,71,0
40960,note_on,,,,,0,0,6,,,,1,62,49
40960,note_off,,,,,512,0,6,,,,1,62,0
40960,note_off,,,,,512,0,2,,,,2,71,0
40960,note_off,,,,,512,0,3,,,,6,62,0
40960,note_on,,,,,0,0,3,,,,6,62,49
40960,note_on,,,,,0,0,6,,,,1,71,49
40960,note_on,,,,,0,0,2,,,,2,71,49
41088,note_off,,,,,128,0,4,,,,12,77,0
41088,note_on,,,,,0,0,4,,,,12,79,114
41216,note_on,,,,,0,0,4,,,,12,81,114
41216,note_off,,,,,128,0,4,,,,12,79,0
41472,note_off,,,,,512,0,6,,,,1,62,0
41472,note_on,,,,,0,0,5,,,,3,55,49
41472,note_off,,,,,512,0,5,,,,3,55,0
41472,note_on,,,,,0,0,2,,,,2,71,49
41472,note_off,,,,,512,0,2,,,,2,71,0
41472,note_off,,,,,0,0,6,,,,1,55,0
41472,note_on,,,,,0,0,6,,,,1,71,49
41472,note_on,,,,,0,0,6,,,,1,62,49
41472,note_off,,,,,0,0,6,,,,1,71,0
41472,note_on,,,,,0,0,6,,,,1,55,49
41472,note_on,,,,,0,0,3,,,,6,62,49
41472,note_off,,,,,512,0,3,,,,6,62,0
41984,note_on,,,,,0,0,5,,,,3,55,49
41984,note_off,,,,,512,0,6,,,,1,62,0
41984,note_on,,,,,0,0,6,,,,1,71,49
41984,note_on,,,,,0,0,6,,,,1,62,49
41984,note_off,,,,,0,0,6,,,,1,71,0
41984,note_off,,,,,0,0,6,,,,1,55,0
41984,note_on,,,,,0,0,6,,,,1,55,49
41984,note_off,,,,,512,0,5,,,,3,55,0
41984,note_off,,,,,768,0,4,,,,12,81,0
41984,note_on,,,,,0,0,4,,,,12,74,114
41984,note_off,,,,,512,0,3,,,,6,62,0
41984,note_on,,,,,0,0,3,,,,6,62,49
41984,note_on,,,,,0,0,2,,,,2,71,49
41984,note_off,,,,,512,0,2,,,,2,71,0
42112,note_off,,,,,128,0,4,,,,12,74,0
42112,note_on,,,,,0,0,4,,,,12,76,114
42240,note_off,,,,,128,0,4,,,,12,76,0
42240,note_on,,,,,0,0,4,,,,12,77,114
42496,note_on,,,,,0,0,6,,,,1,55,49
42496,note_off,,,,,512,0,3,,,,6,62,0
42496,note_on,,,,,0,0,3,,,,6,62,49
42496,note_on,,,,,0,0,5,,,,3,55,49
42496,note_off,,,,,512,0,5,,,,3,55,0
42496,note_off,,,,,0,0,6,,,,1,55,0
42496,note_on,,,,,0,0,6,,,,1,71,49
42496,note_on,,,,,0,0,6,,,,1,62,49
42496,note_off,,,,,0,0,6,,,,1,71,0
42496,note_off,,,,,512,0,6,,,,1,62,0
42496,note_off,,,,,512,0,2,,,,2,71,0
42496,note_on,,,,,0,0,2,,,,2,71,49
43008,note_off,,,,,512,0,5,,,,3,55,0
43008,note_on,,,,,0,0,5,,,,3,60,49
43008,note_off,,,,,512,0,2,,,,2,71,0
43008,note_on,,,,,0,0,4,,,,12,76,114
43008,note_off,,,,,768,0,4,,,,12,77,0
43008,note_off,,,,,512,0,6,,,,1,62,0
43008,note_off,,,,,0,0,6,,,,1,71,0
43008,note_on,,,,,0,0,2,,,,2,69,49
43008,note_on,,,,,0,0,6,,,,1,64,49
43008,note_on,,,,,0,0,6,,,,1,69,49
43008,note_off,,,,,0,0,6,,,,1,55,0
43008,note_on,,,,,0,0,6,,,,1,60,49
43008,note_off,,,,,512,0,3,,,,6,62,0
43008,note_on,,,,,0,0,3,,,,6,64,49
43264,note_on,,,,,0,0,4,,,,12,72,114
43264,note_off,,,,,256,0,4,,,,12,76,0
43392,note_on,,,,,0,0,4,,,,12,71,114
43392,note_off,,,,,128,0,4,,,,12,72,0
43520,note_off,,,,,512,0,2,,,,2,69,0
43520,note_on,,,,,0,0,2,,,,2,69,49
43520,note_on,,,,,0,0,4,,,,12,72,114
43520,note_off,,,,,128,0,4,,,,12,71,0
43520,note_on,,,,,0,0,3,,,,6,64,49
43520,note_off,,,,,512,0,3,,,,6,64,0
43520,note_off,,,,,512,0,6,,,,1,64,0
43520,note_on,,,,,0,0,5,,,,3,60,49
43520,note_off,,,,,0,0,6,,,,1,69,0
43520,note_on,,,,,0,0,6,,,,1,64,49
43520,note_on,,,,,0,0,6,,,,1,69,49
43520,note_on,,,,,0,0,6,,,,1,60,49
43520,note_off,,,,,0,0,6,,,,1,60,0
43520,note_off,,,,,512,0,5,,,,3,60,0
43776,note_off,,,,,256,0,4,,,,12,72,0
43776,note_on,,,,,0,0,4,,,,12,76,114
44032,note_off,,,,,0,0,6,,,,1,60,0
44032,note_on,,,,,0,0,6,,,,1,60,49
44032,note_on,,,,,0,0,5,,,,3,60,49
44032,note_off,,,,,512,0,5,,,,3,60,0
44032,note_on,,,,,0,0,6,,,,1,64,49
44032,note_off,,,,,512,0,6,,,,1,64,0
44032,note_on,,,,,0,0,2,,,,2,69,49
44032,note_off,,,,,512,0,2,,,,2,69,0
44032,note_on,,,,,0,0,3,,,,6,64,49
44032,note_off,,,,,512,0,3,,,,6,64,0
44032,note_off,,,,,256,0,4,,,,12,76,0
44032,note_on,,,,,0,0,4,,,,12,76,114
44032,note_on,,,,,0,0,6,,,,1,69,49
44032,note_off,,,,,0,0,6,,,,1,69,0
44288,note_off,,,,,256,0,4,,,,12,76,0
44288,note_on,,,,,0,0,4,,,,12,77,114
44544,note_on,,,,,0,0,2,,,,2,69,49
44544,note_on,,,,,0,0,4,,,,12,79,114
44544,note_off,,,,,256,0,4,,,,12,77,0
44544,note_off,,,,,512,0,5,,,,3,60,0
44544,note_on,,,,,0,0,5,,,,3,60,49
44544,note_off,,,,,512,0,3,,,,6,64,0
44544,note_on,,,,,0,0,3,,,,6,64,49
44544,note_off,,,,,512,0,6,,,,1,64,0
44544,note_off,,,,,0,0,6,,,,1,69,0
44544,note_on,,,,,0,0,6,,,,1,64,49
44544,note_on,,,,,0,0,6,,,,1,69,49
44544,note_off,,,,,0,0,6,,,,1,60,0
44544,note_on,,,,,0,0,6,,,,1,60,49
44544,note_off,,,,,512,0,2,,,,2,69,0
44800,note_on,,,,,0,0,4,,,,12,81,114
44800,note_off,,,,,256,0,4,,,,12,79,0
45056,note_off,,,,,512,0,2,,,,2,69,0
45056,note_on,,,,,0,0,5,,,,3,60,49
45056,note_off,,,,,512,0,3,,,,6,64,0
45056,note_on,,,,,0,0,3,,,,6,64,49
45056,note_off,,,,,512,0,5,,,,3,60,0
45056,note_off,,,,,512,0,6,,,,1,64,0
45056,note_off,,,,,0,0,6,,,,1,69,0
45056,note_on,,,,,0,0,6,,,,1,64,49
45056,note_on,,,,,0,0,6,,,,1,60,49
45056,note_on,,,,,0,0,4,,,,12,83,114
45056,note_off,,,,,256,0,4,,,,12,81,0
45056,note_on,,,,,0,0,2,,,,2,69,49
45056,note_off,,,,,0,0,6,,,,1,60,0
45056,note_on,,,,,0,0,6,,,,1,69,49
45312,note_on,,,,,0,0,4,,,,12,84,114
45312,note_off,,,,,256,0,4,,,,12,83,0
45568,note_off,,,,,0,0,6,,,,1,69,0
45568,note_on,,,,,0,0,6,,,,1,69,49
45568,note_off,,,,,0,0,6,,,,1,60,0
45568,note_on,,,,,0,0,3,,,,6,64,49
45568,note_off,,,,,512,0,3,,,,6,64,0
45568,note_on,,,,,0,0,6,,,,1,60,49
45568,note_on,,,,,0,0,5,,,,3,60,49
45568,note_off,,,,,512,0,5,,,,3,60,0
45568,note_on,,,,,0,0,6,,,,1,64,49
45568,note_off,,,,,512,0,6,,,,1,64,0
45568,note_off,,,,,256,0,4,,,,12,84,0
45568,note_on,,,,,0,0,4,,,,12,76,114
45568,note_on,,,,,0,0,2,,,,2,69,49
45568,note_off,,,,,512,0,2,,,,2,69,0
46080,note_on,,,,,0,0,6,,,,1,74,49
46080,note_on,,,,,0,0,2,,,,2,74,49
46080,note_off,,,,,512,0,6,,,,1,64,0
46080,note_off,,,,,0,0,6,,,,1,69,0
46080,note_off,,,,,0,0,6,,,,1,60,0
46080,note_on,,,,,0,0,6,,,,1,69,49
46080,note_on,,,,,0,0,3,,,,6,69,49
46080,note_on,,,,,0,0,5,,,,3,54,49
46080,note_on,,,,,0,0,4,,,,12,74,114
46080,note_off,,,,,512,0,4,,,,12,76,0
46080,note_off,,,,,512,0,2,,,,2,69,0
46080,note_on,,,,,0,0,6,,,,1,54,49
46080,note_off,,,,,512,0,5,,,,3,60,0
46080,note_off,,,,,512,0,3,,,,6,64,0
46592,note_off,,,,,512,0,4,,,,12,74,0
46592,note_on,,,,,0,0,4,,,,12,74,114
46592,note_on,,,,,0,0,6,,,,1,54,49
46592,note_on,,,,,0,0,3,,,,6,69,49
46592,note_off,,,,,512,0,3,,,,6,69,0
46592,note_off,,,,,512,0,2,,,,2,74,0
46592,note_on,,,,,0,0,5,,,,3,54,49
46592,note_off,,,,,512,0,5,,,,3,54,0
46592,note_on,,,,,0,0,6,,,,1,74,49
46592,note_on,,,,,0,0,6,,,,1,69,49
46592,note_off,,,,,512,0,6,,,,1,69,0
46592,note_off,,,,,0,0,6,,,,1,74,0
46592,note_on,,,,,0,0,2,,,,2,74,49
46592,note_off,,,,,0,0,6,,,,1,54,0
46720,note_on,,,,,0,0,4,,,,12,76,114
46720,note_off,,,,,128,0,4,,,,12,74,0
46848,note_on,,,,,0,0,4,,,,12,78,114
46848,note_off,,,,,128,0,4,,,,12,76,0
46976,note_off,,,,,128,0,4,,,,12,78,0
46976,note_on,,,,,0,0,4,,,,12,79,114
47104,note_on,,,,,0,0,5,,,,3,54,49
47104,note_off,,,,,0,0,6,,,,1,54,0
47104,note_on,,,,,0,0,6,,,,1,69,49
47104,note_off,,,,,128,0,4,,,,12,79,0
47104,note_on,,,,,0,0,4,,,,12,81,114
47104,note_off,,,,,512,0,2,,,,2,74,0
47104,note_on,,,,,0,0,2,,,,2,74,49
47104,note_on,,,,,0,0,6,,,,1,74,49
47104,note_off,,,,,0,0,6,,,,1,74,0
47104,note_off,,,,,512,0,6,,,,1,69,0
47104,note_on,,,,,0,0,6,,,,1,54,49
47104,note_off,,,,,512,0,3,,,,6,69,0
47104,note_on,,,,,0,0,3,,,,6,69,49
47104,note_off,,,,,512,0,5,,,,3,54,0
47360,note_off,,,,,256,0,4,,,,12,81,0
47360,note_on,,,,,0,0,4,,,,12,79,114
47616,note_on,,,,,0,0,6,,,,1,74,49
47616,note_off,,,,,0,0,6,,,,1,74,0
47616,note_on,,,,,0,0,6,,,,1,69,49
47616,note_off,,,,,256,0,4,,,,12,79,0
47616,note_off,,,,,512,0,2,,,,2,74,0
47616,note_on,,,,,0,0,2,,,,2,74,49
47616,note_off,,,,,512,0,5,,,,3,54,0
47616,note_on,,,,,0,0,5,,,,3,54,49
47616,note_off,,,,,512,0,3,,,,6,69,0
47616,note_on,,,,,0,0,3,,,,6,69,49
47616,note_off,,,,,0,0,6,,,,1,54,0
47616,note_on,,,,,0,0,6,,,,1,54,49
47616,note_off,,,,,512,0,6,,,,1,69,0
47616,note_on,,,,,0,0,4,,,,12,78,114
47872,note_off,,,,,256,0,4,,,,12,78,0
47872,note_on,,,,,0,0,4,,,,12,76,114
48128,note_on,,,,,0,0,4,,,,12,74,114
48128,note_on,,,,,0,0,5,,,,3,54,49
48128,note_off,,,,,256,0,4,,,,12,76,0
48128,note_on,,,,,0,0,2,,,,2,74,49
48128,note_off,,,,,512,0,5,,,,3,54,0
48128,note_off,,,,,512,0,3,,,,6,69,0
48128,note_off,,,,,512,0,2,,,,2,74,0
48128,note_on,,,,,0,0,3,,,,6,69,49
48128,note_off,,,,,512,0,6,,,,1,69,0
48128,note_off,,,,,0,0,6,,,,1,74,0
48128,note_on,,,,,0,0,6,,,,1,54,49
48128,note_off,,,,,0,0,6,,,,1,54,0
48128,note_on,,,,,0,0,6,,,,1,69,49
48128,note_on,,,,,0,0,6,,,,1,74,49
48384,note_off,,,,,256,0,4,,,,12,74,0
48384,note_on,,,,,0,0,4,,,,12,72,114
48640,note_off,,,,,512,0,5,,,,3,54,0
48640,note_on,,,,,0,0,5,,,,3,54,49
48640,note_on,,,,,0,0,4,,,,12,71,114
48640,note_off,,,,,256,0,4,,,,12,72,0
48640,note_off,,,,,512,0,2,,,,2,74,0
48640,note_on,,,,,0,0,6,,,,1,74,49
48640,note_on,,,,,0,0,3,,,,6,69,49
48640,note_off,,,,,512,0,3,,,,6,69,0
48640,note_off,,,,,512,0,6,,,,1,69,0
48640,note_off,,,,,0,0,6,,,,1,74,0
48640,note_on,,,,,0,0,6,,,,1,69,49
48640,note_on,,,,,0,0,6,,,,1,54,49
48640,note_off,,,,,0,0,6,,,,1,54,0
48640,note_on,,,,,0,0,2,,,,2,74,49
48896,note_off,,,,,256,0,4,,,,12,71,0
48896,note_on,,,,,0,0,4,,,,12,69,114
49152,note_on,,,,,0,0,3,,,,6,71,49
49152,note_off,,,,,512,0,3,,,,6,69,0
49152,note_off,,,,,512,0,5,,,,3,54,0
49152,note_on,,,,,0,0,5,,,,3,55,49
49152,note_on,,,,,0,0,4,,,,12,71,114
49152,note_off,,,,,512,0,2,,,,2,74,0
49152,note_on,,,,,0,0,2,,,,2,74,49
49152,note_on,,,,,0,0,6,,,,1,55,49
49152,note_on,,,,,0,0,6,,,,1,74,49
49152,note_on,,,,,0,0,6,,,,1,71,49
49152,note_off,,,,,0,0,6,,,,1,54,0
49152,note_off,,,,,0,0,6,,,,1,74,0
49152,note_off,,,,,512,0,6,,,,1,69,0
49152,note_off,,,,,256,0,4,,,,12,69,0
49408,note_off,,,,,256,0,4,,,,12,71,0
49408,note_on,,,,,0,0,4,,,,12,67,114
49664,note_off,,,,,512,0,2,,,,2,74,0
49664,note_on,,,,,0,0,2,,,,2,74,49
49664,note_on,,,,,0,0,6,,,,1,55,49
49664,note_off,,,,,512,0,3,,,,6,71,0
49664,note_on,,,,,0,0,3,,,,6,71,49
49664,note_on,,,,,0,0,6,,,,1,74,49
49664,note_on,,,,,0,0,6,,,,1,71,49
49664,note_off,,,,,0,0,6,,,,1,74,0
49664,note_off,,,,,512,0,6,,,,1,71,0
49664,note_off,,,,,512,0,5,,,,3,55,0
49664,note_on,,,,,0,0,5,,,,3,55,49
49664,note_off,,,,,0,0,6,,,,1,55,0
49920,note_off,,,,,512,0,4,,,,12,67,0
49920,note_on,,,,,0,0,4,,,,12,71,114
50176,note_on,,,,,0,0,2,,,,2,74,49
50176,note_on,,,,,0,0,6,,,,1,55,49
50176,note_off,,,,,0,0,6,,,,1,55,0
50176,note_on,,,,,0,0,6,,,,1,74,49
50176,note_on,,,,,0,0,6,,,,1,71,49
50176,note_off,,,,,512,0,2,,,,2,74,0
50176,note_on,,,,,0,0,5,,,,3,55,49
50176,note_off,,,,,0,0,6,,,,1,74,0
50176,note_off,,,,,512,0,6,,,,1,71,0
50176,note_on,,,,,0,0,4,,,,12,74,114
50176,note_off,,,,,256,0,4,,,,12,71,0
50176,note_off,,,,,512,0,5,,,,3,55,0
50176,note_on,,,,,0,0,3,,,,6,71,49
50176,note_off,,,,,512,0,3,,,,6,71,0
50432,note_on,,,,,0,0,4,,,,12,71,114
50432,note_off,,,,,256,0,4,,,,12,74,0
50688,note_off,,,,,0,0,6,,,,1,74,0
50688,note_off,,,,,512,0,5,,,,3,55,0
50688,note_on,,,,,0,0,6,,,,1,74,49
50688,note_on,,,,,0,0,6,,,,1,55,49
50688,note_off,,,,,0,0,6,,,,1,55,0
50688,note_off,,,,,512,0,6,,,,1,71,0
50688,note_on,,,,,0,0,6,,,,1,71,49
50688,note_on,,,,,0,0,5,,,,3,55,49
50688,note_on,,,,,0,0,3,,,,6,71,49
50688,note_on,,,,,0,0,2,,,,2,74,49
50688,note_off,,,,,512,0,2,,,,2,74,0
50688,note_off,,,,,512,0,3,,,,6,71,0
50944,note_on,,,,,0,0,4,,,,12,74,114
50944,note_off,,,,,512,0,4,,,,12,71,0
51200,note_off,,,,,512,0,3,,,,6,71,0
51200,note_on,,,,,0,0,6,,,,1,71,49
51200,note_on,,,,,0,0,6,,,,1,74,49
51200,note_off,,,,,0,0,6,,,,1,55,0
51200,note_on,,,,,0,0,6,,,,1,55,49
51200,note_off,,,,,512,0,5,,,,3,55,0
51200,note_on,,,,,0,0,5,,,,3,55,49
51200,note_on,,,,,0,0,3,,,,6,71,49
51200,note_off,,,,,512,0,6,,,,1,71,0
51200,note_off,,,,,0,0,6,,,,1,74,0
51200,note_off,,,,,256,0,4,,,,12,74,0
51200,note_on,,,,,0,0,4,,,,12,79,114
51200,note_off,,,,,512,0,2,,,,2,74,0
51200,note_on,,,,,0,0,2,,,,2,74,49
51456,note_off,,,,,256,0,4,,,,12,79,0
51456,note_on,,,,,0,0,4,,,,12,74,114
51712,note_off,,,,,0,0,6,,,,1,55,0
51712,note_on,,,,,0,0,6,,,,1,74,49
51712,note_on,,,,,0,0,2,,,,2,74,49
51712,note_off,,,,,512,0,2,,,,2,74,0
51712,note_on,,,,,0,0,6,,,,1,71,49
51712,note_off,,,,,512,0,5,,,,3,55,0
51712,note_on,,,,,0,0,5,,,,3,55,49
51712,note_on,,,,,0,0,6,,,,1,55,49
51712,note_off,,,,,512,0,6,,,,1,71,0
51712,note_off,,,,,512,0,3,,,,6,71,0
51712,note_off,,,,,0,0,6,,,,1,74,0
51712,note_on,,,,,0,0,3,,,,6,71,49
51968,note_on,,,,,0,0,4,,,,12,79,114
51968,note_off,,,,,512,0,4,,,,12,74,0
52224,note_off,,,,,512,0,2,,,,2,74,0
52224,note_on,,,,,0,0,4,,,,12,76,114
52224,note_off,,,,,256,0,4,,,,12,79,0
52224,note_off,,,,,512,0,3,,,,6,71,0
52224,note_on,,,,,0,0,3,,,,6,67,49
52224,note_on,,,,,0,0,6,,,,1,76,49
52224,note_on,,,,,0,0,6,,,,1,60,49
52224,note_on,,,,,0,0,6,,,,1,67,49
52224,note_on,,,,,0,0,2,,,,2,76,49
52224,note_off,,,,,0,0,6,,,,1,55,0
52224,note_off,,,,,512,0,6,,,,1,71,0
52224,note_on,,,,,0,0,5,,,,3,60,49
52224,note_off,,,,,512,0,5,,,,3,55,0
52224,note_off,,,,,0,0,6,,,,1,74,0
52480,note_off,,,,,256,0,4,,,,12,76,0
52480,note_on,,,,,0,0,4,,,,12,72,114
52736,note_on,,,,,0,0,3,,,,6,67,49
52736,note_on,,,,,0,0,5,,,,3,60,49
52736,note_off,,,,,512,0,5,,,,3,60,0
52736,note_on,,,,,0,0,2,,,,2,76,49
52736,note_off,,,,,512,0,2,,,,2,76,0
52736,note_off,,,,,512,0,3,,,,6,67,0
52736,note_off,,,,,512,0,6,,,,1,67,0
52736,note_off,,,,,0,0,6,,,,1,76,0
52736,note_on,,,,,0,0,6,,,,1,67,49
52736,note_on,,,,,0,0,6,,,,1,76,49
52736,note_off,,,,,0,0,6,,,,1,60,0
52736,note_on,,,,,0,0,6,,,,1,60,49
52992,note_on,,,,,0,0,4,,,,12,76,114
52992,note_off,,,,,512,0,4,,,,12,72,0
53248,note_on,,,,,0,0,6,,,,1,76,49
53248,note_on,,,,,0,0,3,,,,6,69,49
53248,note_off,,,,,512,0,3,,,,6,67,0
53248,note_off,,,,,512,0,6,,,,1,67,0
53248,note_off,,,,,512,0,5,,,,3,60,0
53248,note_on,,,,,0,0,6,,,,1,69,49
53248,note_on,,,,,0,0,6,,,,1,60,49
53248,note_on,,,,,0,0,5,,,,3,60,49
53248,note_off,,,,,0,0,6,,,,1,76,0
53248,note_off,,,,,512,0,2,,,,2,76,0
53248,note_on,,,,,0,0,2,,,,2,76,49
53248,note_off,,,,,256,0,4,,,,12,76,0
53248,note_on,,,,,0,0,4,,,,12,81,114
53248,note_off,,,,,0,0,6,,,,1,60,0
53504,note_off,,,,,256,0,4,,,,12,81,0
53504,note_on,,,,,0,0,4,,,,12,76,114
53760,note_off,,,,,512,0,6,,,,1,69,0
53760,note_off,,,,,0,0,6,,,,1,76,0
53760,note_on,,,,,0,0,6,,,,1,69,49
53760,note_on,,,,,0,0,6,,,,1,76,49
53760,note_on,,,,,0,0,3,,,,6,69,49
53760,note_on,,,,,0,0,5,,,,3,60,49
53760,note_off,,,,,512,0,5,,,,3,60,0
53760,note_off,,,,,512,0,2,,,,2,76,0
53760,note_on,,,,,0,0,6,,,,1,60,49
53760,note_on,,,,,0,0,2,,,,2,76,49
53760,note_off,,,,,512,0,3,,,,6,69,0
53760,note_off,,,,,0,0,6,,,,1,60,0
54016,note_off,,,,,512,0,4,,,,12,76,0
54016,note_on,,,,,0,0,4,,,,12,81,114
54272,note_off,,,,,512,0,6,,,,1,69,0
54272,note_off,,,,,0,0,6,,,,1,76,0
54272,note_off,,,,,0,0,6,,,,1,60,0
54272,note_on,,,,,0,0,6,,,,1,72,49
54272,note_on,,,,,0,0,6,,,,1,60,49
54272,note_on,,,,,0,0,6,,,,1,69,49
54272,note_on,,,,,0,0,4,,,,12,84,114
54272,note_on,,,,,0,0,2,,,,2,72,49
54272,note_off,,,,,512,0,2,,,,2,76,0
54272,note_on,,,,,0,0,5,,,,3,60,49
54272,note_off,,,,,512,0,5,,,,3,60,0
54272,note_on,,,,,0,0,3,,,,6,69,49
54272,note_off,,,,,512,0,3,,,,6,69,0
54272,note_off,,,,,256,0,4,,,,12,81,0
54528,note_off,,,,,256,0,4,,,,12,84,0
54528,note_on,,,,,0,0,4,,,,12,81,114
54784,note_on,,,,,0,0,5,,,,3,60,49
54784,note_off,,,,,512,0,5,,,,3,60,0
54784,note_off,,,,,512,0,3,,,,6,69,0
54784,note_on,,,,,0,0,3,,,,6,69,49
54784,note_off,,,,,512,0,2,,,,2,72,0
54784,note_on,,,,,0,0,2,,,,2,72,49
54784,note_on,,,,,0,0,6,,,,1,72,49
54784,note_on,,,,,0,0,6,,,,1,69,49
54784,note_off,,,,,0,0,6,,,,1,72,0
54784,note_off,,,,,512,0,6,,,,1,69,0
54784,note_off,,,,,0,0,6,,,,1,60,0
54784,note_on,,,,,0,0,6,,,,1,60,49
55040,note_on,,,,,0,0,4,,,,12,84,114
55040,note_off,,,,,512,0,4,,,,12,81,0
55296,note_off,,,,,512,0,6,,,,1,69,0
55296,note_on,,,,,0,0,6,,,,1,69,49
55296,note_on,,,,,0,0,6,,,,1,66,49
55296,note_off,,,,,0,0,6,,,,1,60,0
55296,note_off,,,,,0,0,6,,,,1,72,0
55296,note_on,,,,,0,0,5,,,,3,62,49
55296,note_on,,,,,0,0,6,,,,1,62,49
55296,note_off,,,,,512,0,3,,,,6,69,0
55296,note_on,,,,,0,0,3,,,,6,66,49
55296,note_off,,,,,256,0,4,,,,12,84,0
55296,note_on,,,,,0,0,4,,,,12,78,114
55296,note_off,,,,,512,0,5,,,,3,60,0
55296,note_off,,,,,512,0,2,,,,2,72,0
55296,note_on,,,,,0,0,2,,,,2,69,49
55552,note_on,,,,,0,0,4,,,,12,74,114
55552,note_off,,,,,256,0,4,,,,12,78,0
55808,note_on,,,,,0,0,2,,,,2,69,49
55808,note_off,,,,,512,0,2,,,,2,69,0
55808,note_on,,,,,0,0,6,,,,1,66,49
55808,note_off,,,,,512,0,3,,,,6,66,0
55808,note_off,,,,,0,0,6,,,,1,69,0
55808,note_off,,,,,512,0,6,,,,1,66,0
55808,note_on,,,,,0,0,3,,,,6,66,49
55808,note_on,,,,,0,0,5,,,,3,62,49
55808,note_on,,,,,0,0,6,,,,1,69,49
55808,note_off,,,,,0,0,6,,,,1,62,0
55808,note_on,,,,,0,0,6,,,,1,62,49
55808,note_off,,,,,512,0,5,,,,3,62,0
56064,note_off,,,,,512,0,4,,,,12,74,0
56064,note_on,,,,,0,0,4,,,,12,78,114
56320,note_on,,,,,0,0,6,,,,1,66,49
56320,note_on,,,,,0,0,6,,,,1,69,49
56320,note_on,,,,,0,0,3,,,,6,66,49
56320,note_off,,,,,512,0,3,,,,6,66,0
56320,note_off,,,,,256,0,4,,,,12,78,0
56320,note_on,,,,,0,0,4,,,,12,81,114
56320,note_off,,,,,0,0,6,,,,1,62,0
56320,note_on,,,,,0,0,6,,,,1,62,49
56320,note_off,,,,,0,0,6,,,,1,69,0
56320,note_off,,,,,512,0,2,,,,2,69,0
56320,note_on,,,,,0,0,2,,,,2,69,49
56320,note_on,,,,,0,0,5,,,,3,62,49
56320,note_off,,,,,512,0,5,,,,3,62,0
56320,note_off,,,,,512,0,6,,,,1,66,0
56576,note_on,,,,,0,0,4,,,,12,74,114
56576,note_off,,,,,256,0,4,,,,12,81,0
56832,note_off,,,,,0,0,6,,,,1,69,0
56832,note_off,,,,,512,0,2,,,,2,69,0
56832,note_on,,,,,0,0,2,,,,2,69,49
56832,note_off,,,,,0,0,6,,,,1,62,0
56832,note_off,,,,,512,0,6,,,,1,66,0
56832,note_on,,,,,0,0,3,,,,6,66,49
56832,note_off,,,,,512,0,3,,,,6,66,0
56832,note_off,,,,,512,0,5,,,,3,62,0
56832,note_on,,,,,0,0,5,,,,3,62,49
56832,note_on,,,,,0,0,6,,,,1,69,49
56832,note_on,,,,,0,0,6,,,,1,62,49
56832,note_on,,,,,0,0,6,,,,1,66,49
57088,note_off,,,,,512,0,4,,,,12,74,0
57088,note_on,,,,,0,0,4,,,,12,81,114
57344,note_off,,,,,512,0,6,,,,1,66,0
57344,note_on,,,,,0,0,3,,,,6,66,49
57344,note_off,,,,,512,0,3,,,,6,66,0
57344,note_on,,,,,0,0,5,,,,3,62,49
57344,note_off,,,,,512,0,5,,,,3,62,0
57344,note_on,,,,,0,0,2,,,,2,69,49
57344,note_on,,,,,0,0,4,,,,12,78,114
57344,note_off,,,,,256,0,4,,,,12,81,0
57344,note_off,,,,,512,0,2,,,,2,69,0
57344,note_off,,,,,0,0,6,,,,1,62,0
57344,note_off,,,,,0,0,6,,,,1,69,0
57344,note_on,,,,,0,0,6,,,,1,66,49
57344,note_on,,,,,0,0,6,,,,1,69,49
57344,note_on,,,,,0,0,6,,,,1,62,49
57600,note_off,,,,,256,0,4,,,,12,78,0
57600,note_on,,,,,0,0,4,,,,12,72,114
57856,note_on,,,,,0,0,2,,,,2,69,49
57856,note_off,,,,,512,0,2,,,,2,69,0
57856,note_off,,,,,512,0,6,,,,1,66,0
57856,note_on,,,,,0,0,6,,,,1,69,49
57856,note_off,,,,,0,0,6,,,,1,62,0
57856,note_off,,,,,0,0,6,,,,1,69,0
57856,note_off,,,,,512,0,5,,,,3,62,0
57856,note_on,,,,,0,0,5,,,,3,62,49
57856,note_off,,,,,512,0,3,,,,6,66,0
57856,note_on,,,,,0,0,3,,,,6,66,49
57856,note_on,,,,,0,0,6,,,,1,62,49
57856,note_on,,,,,0,0,6,,,,1,66,49
58112,note_on,,,,,0,0,4,,,,12,81,114
58112,note_off,,,,,512,0,4,,,,12,72,0
58368,note_on,,,,,0,0,6,,,,1,71,49
58368,note_off,,,,,512,0,3,,,,6,66,0
58368,note_on,,,,,0,0,6,,,,1,55,49
58368,note_off,,,,,512,0,2,,,,2,69,0
58368,note_on,,,,,0,0,2,,,,2,71,49
58368,note_off,,,,,512,0,6,,,,1,66,0
58368,note_on,,,,,0,0,3,,,,6,62,49
58368,note_off,,,,,0,0,6,,,,1,69,0
58368,note_on,,,,,0,0,5,,,,3,55,49
58368,note_on,,,,,0,0,6,,,,1,62,49
58368,note_off,,,,,0,0,6,,,,1,62,0
58368,note_off,,,,,256,0,4,,,,12,81,0
58368,note_on,,,,,0,0,4,,,,12,79,114
58368,note_off,,,,,512,0,5,,,,3,62,0
58880,note_off,,,,,0,0,6,,,,1,55,0
58880,note_on,,,,,0,0,6,,,,1,62,49
58880,note_on,,,,,0,0,6,,,,1,71,49
58880,note_on,,,,,0,0,3,,,,6,62,49
58880,note_on,,,,,0,0,6,,,,1,55,49
58880,note_off,,,,,512,0,6,,,,1,62,0
58880,note_off,,,,,512,0,2,,,,2,71,0
58880,note_on,,,,,0,0,2,,,,2,71,49
58880,note_off,,,,,512,0,5,,,,3,55,0
58880,note_on,,,,,0,0,5,,,,3,55,49
58880,note_off,,,,,512,0,3,,,,6,62,0
58880,note_off,,,,,0,0,6,,,,1,71,0
59008,note_off,,,,,640,0,4,,,,12,79,0
59008,note_on,,,,,0,0,4,,,,12,74,114
59136,note_off,,,,,128,0,4,,,,12,74,0
59136,note_on,,,,,0,0,4,,,,12,76,114
59264,note_off,,,,,128,0,4,,,,12,76,0
59264,note_on,,,,,0,0,4,,,,12,78,114
59392,note_off,,,,,512,0,5,,,,3,55,0
59392,note_on,,,,,0,0,5,,,,3,55,49
59392,note_off,,,,,128,0,4,,,,12,78,0
59392,note_off,,,,,0,0,6,,,,1,71,0
59392,note_off,,,,,512,0,2,,,,2,71,0
59392,note_on,,,,,0,0,2,,,,2,71,49
59392,note_off,,,,,512,0,3,,,,6,62,0
59392,note_on,,,,,0,0,3,,,,6,62,49
59392,note_on,,,,,0,0,6,,,,1,62,49
59392,note_on,,,,,0,0,6,,,,1,71,49
59392,note_off,,,,,0,0,6,,,,1,55,0
59392,note_on,,,,,0,0,6,,,,1,55,49
59392,note_off,,,,,512,0,6,,,,1,62,0
59392,note_on,,,,,0,0,4,,,,12,79,114
59904,note_off,,,,,0,0,6,,,,1,71,0
59904,note_off,,,,,512,0,6,,,,1,62,0
59904,note_on,,,,,0,0,2,,,,2,71,49
59904,note_off,,,,,512,0,2,,,,2,71,0
59904,note_off,,,,,512,0,3,,,,6,62,0
59904,note_on,,,,,0,0,6,,,,1,62,49
59904,note_on,,,,,0,0,6,,,,1,71,49
59904,note_off,,,,,512,0,5,,,,3,55,0
59904,note_on,,,,,0,0,3,,,,6,62,49
59904,note_on,,,,,0,0,5,,,,3,55,49
59904,note_on,,,,,0,0,6,,,,1,55,49
59904,note_off,,,,,0,0,6,,,,1,55,0
60032,note_off,,,,,640,0,4,,,,12,79,0
60032,note_on,,,,,0,0,4,,,,12,74,114
60160,note_on,,,,,0,0,4,,,,12,76,114
60160,note_off,,,,,128,0,4,,,,12,74,0
60288,note_off,,,,,128,0,4,,,,12,76,0
60288,note_on,,,,,0,0,4,,,,12,78,114
60416,note_off,,,,,128,0,4,,,,12,78,0
60416,note_off,,,,,512,0,3,,,,6,62,0
60416,note_on,,,,,0,0,3,,,,6,62,49
60416,note_on,,,,,0,0,2,,,,2,71,49
60416,note_off,,,,,512,0,2,,,,2,71,0
60416,note_on,,,,,0,0,5,,,,3,55,49
60416,note_off,,,,,512,0,5,,,,3,55,0
60416,note_off,,,,,512,0,6,,,,1,62,0
60416,note_off,,,,,0,0,6,,,,1,71,0
60416,note_on,,,,,0,0,6,,,,1,62,49
60416,note_on,,,,,0,0,6,,,,1,71,49
60416,note_on,,,,,0,0,4,,,,12,79,114
60416,note_on,,,,,0,0,6,,,,1,55,49
60416,note_off,,,,,0,0,6,,,,1,55,0
60928,note_on,,,,,0,0,2,,,,2,71,49
60928,note_off,,,,,512,0,2,,,,2,71,0
60928,note_off,,,,,512,0,6,,,,1,62,0
60928,note_on,,,,,0,0,6,,,,1,71,49
60928,note_off,,,,,0,0,6,,,,1,55,0
60928,note_on,,,,,0,0,6,,,,1,55,49
60928,note_off,,,,,512,0,5,,,,3,55,0
60928,note_on,,,,,0,0,5,,,,3,55,49
60928,note_on,,,,,0,0,3,,,,6,62,49
60928,note_off,,,,,512,0,3,,,,6,62,0
60928,note_off,,,,,0,0,6,,,,1,71,0
60928,note_on,,,,,0,0,6,,,,1,62,49
61056,note_off,,,,,640,0,4,,,,12,79,0
61056,note_on,,,,,0,0,4,,,,12,74,114
61184,note_off,,,,,128,0,4,,,,12,74,0
61184,note_on,,,,,0,0,4,,,,12,76,114
61312,note_off,,,,,128,0,4,,,,12,76,0
61312,note_on,,,,,0,0,4,,,,12,78,114
61440,note_off,,,,,512,0,6,,,,1,62,0
61440,note_off,,,,,0,0,6,,,,1,71,0
61440,note_off,,,,,0,0,6,,,,1,55,0
61440,note_on,,,,,0,0,6,,,,1,62,49
61440,note_on,,,,,0,0,6,,,,1,71,49
61440,note_on,,,,,0,0,6,,,,1,55,49
61440,note_off,,,,,512,0,5,,,,3,55,0
61440,note_on,,,,,0,0,5,,,,3,55,49
61440,note_on,,,,,0,0,2,,,,2,71,49
61440,note_on,,,,,0,0,3,,,,6,62,49
61440,note_off,,,,,512,0,3,,,,6,62,0
61440,note_off,,,,,512,0,2,,,,2,71,0
61440,note_off,,,,,128,0,4,,,,12,78,0
61440,note_on,,,,,0,0,4,,,,12,79,114
61696,note_off,,,,,256,0,4,,,,12,79,0
61696,note_on,,,,,0,0,4,,,,12,71,114
61952,note_off,,,,,256,0,4,,,,12,71,0
61952,note_on,,,,,0,0,6,,,,1,71,49
61952,note_on,,,,,0,0,6,,,,1,62,49
61952,note_off,,,,,0,0,6,,,,1,71,0
61952,note_off,,,,,512,0,6,,,,1,62,0
61952,note_on,,,,,0,0,4,,,,12,69,114
61952,note_off,,,,,512,0,5,,,,3,55,0
61952,note_on,,,,,0,0,5,,,,3,55,49
61952,note_on,,,,,0,0,6,,,,1,55,49
61952,note_on,,,,,0,0,3,,,,6,62,49
61952,note_off,,,,,512,0,3,,,,6,62,0
61952,note_on,,,,,0,0,2,,,,2,71,49
61952,note_off,,,,,512,0,2,,,,2,71,0
61952,note_off,,,,,0,0,6,,,,1,55,0
62208,note_on,,,,,0,0,4,,,,12,67,114
62208,note_off,,,,,256,0,4,,,,12,69,0
62464,note_on,,,,,0,0,2,,,,2,69,49
62464,note_off,,,,,512,0,2,,,,2,71,0
62464,note_on,,,,,0,0,6,,,,1,66,49
62464,note_off,,,,,512,0,5,,,,3,55,0
62464,note_off,,,,,0,0,6,,,,1,71,0
62464,note_on,,,,,0,0,6,,,,1,69,49
62464,note_off,,,,,0,0,6,,,,1,55,0
62464,note_on,,,,,0,0,6,,,,1,62,49
62464,note_off,,,,,256,0,4,,,,12,67,0
62464,note_on,,,,,0,0,5,,,,3,62,49
62464,note_on,,,,,0,0,3,,,,6,66,49
62464,note_off,,,,,512,0,3,,,,6,62,0
62464,note_on,,,,,0,0,4,,,,12,71,114
62464,note_off,,,,,512,0,6,,,,1,62,0
62549,note_on,,,,,0,0,4,,,,12,69,114
62549,note_off,,,,,85,0,4,,,,12,71,0
62635,note_on,,,,,0,0,4,,,,12,71,114
62635,note_off,,,,,86,0,4,,,,12,69,0
62720,note_on,,,,,0,0,4,,,,12,69,114
62720,note_off,,,,,85,0,4,,,,12,71,0
62805,note_on,,,,,0,0,4,,,,12,71,114
62805,note_off,,,,,85,0,4,,,,12,69,0
62891,note_on,,,,,0,0,4,,,,12,69,114
62891,note_off,,,,,86,0,4,,,,12,71,0
62976,note_off,,,,,0,0,6,,,,1,62,0
62976,note_off,,,,,512,0,3,,,,6,66,0
62976,note_on,,,,,0,0,3,,,,6,66,49
62976,note_on,,,,,0,0,5,,,,3,62,49
62976,note_off,,,,,512,0,5,,,,3,62,0
62976,note_on,,,,,0,0,6,,,,1,62,49
62976,note_off,,,,,85,0,4,,,,12,69,0
62976,note_on,,,,,0,0,6,,,,1,69,49
62976,note_on,,,,,0,0,6,,,,1,66,49
62976,note_off,,,,,0,0,6,,,,1,69,0
62976,note_off,,,,,512,0,6,,,,1,66,0
62976,note_on,,,,,0,0,4,,,,12,71,114
62976,note_off,,,,,512,0,2,,,,2,69,0
62976,note_on,,,,,0,0,2,,,,2,69,49
63061,note_off,,,,,85,0,4,,,,12,71,0
63061,note_on,,,,,0,0,4,,,,12,69,114
63147,note_on,,,,,0,0,4,,,,12,71,114
63147,note_off,,,,,86,0,4,,,,12,69,0
63232,note_on,,,,,0,0,4,,,,12,69,114
63232,note_off,,,,,85,0,4,,,,12,71,0
63317,note_on,,,,,0,0,4,,,,12,71,114
63317,note_off,,,,,85,0,4,,,,12,69,0
63403,note_off,,,,,86,0,4,,,,12,71,0
63403,note_on,,,,,0,0,4,,,,12,69,114
63488,note_off,,,,,0,0,6,,,,1,62,0
63488,note_on,,,,,0,0,6,,,,1,66,49
63488,note_off,,,,,512,0,2,,,,2,69,0
63488,note_off,,,,,512,0,6,,,,1,66,0
63488,note_on,,,,,0,0,4,,,,12,71,114
63488,note_off,,,,,85,0,4,,,,12,69,0
63488,note_on,,,,,0,0,2,,,,2,69,49
63488,note_on,,,,,0,0,6,,,,1,69,49
63488,note_off,,,,,0,0,6,,,,1,69,0
63488,note_on,,,,,0,0,6,,,,1,50,49
63488,note_off,,,,,512,0,3,,,,6,66,0
63488,note_on,,,,,0,0,3,,,,6,66,49
63488,note_off,,,,,512,0,5,,,,3,62,0
63488,note_on,,,,,0,0,5,,,,3,50,49
63573,note_off,,,,,85,0,4,,,,12,71,0
63573,note_on,,,,,0,0,4,,,,12,69,114
63659,note_off,,,,,86,0,4,,,,12,69,0
63659,note_on,,,,,0,0,4,,,,12,71,114
63744,note_off,,,,,85,0,4,,,,12,71,0
63744,note_on,,,,,0,0,4,,,,12,69,114
63829,note_off,,,,,85,0,4,,,,12,69,0
63829,note_on,,,,,0,0,4,,,,12,71,114
63915,note_off,,,,,86,0,4,,,,12,71,0
63915,note_on,,,,,0,0,4,,,,12,69,114
64000,note_off,,,,,512,0,2,,,,2,69,0
64000,note_off,,,,,512,0,3,,,,6,66,0
64000,note_off,,,,,0,0,6,,,,1,69,0
64000,note_on,,,,,0,0,4,,,,12,67,114
64000,note_on,,,,,0,0,5,,,,3,50,49
64000,note_off,,,,,512,0,5,,,,3,50,0
64000,note_on,,,,,0,0,2,,,,2,69,49
64000,note_off,,,,,512,0,6,,,,1,66,0
64000,note_on,,,,,0,0,3,,,,6,66,49
64000,note_on,,,,,0,0,6,,,,1,66,49
64000,note_off,,,,,85,0,4,,,,12,69,0
64000,note_on,,,,,0,0,6,,,,1,50,49
64000,note_on,,,,,0,0,6,,,,1,69,49
64000,note_off,,,,,0,0,6,,,,1,50,0
64512,note_off,,,,,0,0,6,,,,1,50,0
64512,note_on,,,,,0,0,2,,,,2,71,49
64512,note_off,,,,,512,0,6,,,,1,66,0
64512,note_on,,,,,0,0,5,,,,3,55,49
64512,note_on,,,,,0,0,6,,,,1,55,49
64512,note_off,,,,,512,0,5,,,,3,50,0
64512,note_on,,,,,0,0,6,,,,1,71,49
64512,note_off,,,,,0,0,6,,,,1,69,0
64512,note_off,,,,,512,0,2,,,,2,69,0
64512,note_off,,,,,512,0,4,,,,12,67,0
64512,note_on,,,,,0,0,4,,,,12,67,114
64512,note_off,,,,,512,0,3,,,,6,66,0
64512,note_on,,,,,0,0,3,,,,6,62,49
64512,note_on,,,,,0,0,6,,,,1,62,49
65024,note_on,,,,,0,0,6,,,,1,55,49
65024,note_on,,,,,0,0,3,,,,6,62,49
65024,note_on,,,,,0,0,5,,,,3,55,49
65024,note_off,,,,,0,0,6,,,,1,55,0
65024,note_on,,,,,0,0,6,,,,1,71,49
65024,note_on,,,,,0,0,6,,,,1,62,49
65024,note_off,,,,,0,0,6,,,,1,71,0
65024,note_off,,,,,512,0,6,,,,1,62,0
65024,note_on,,,,,0,0,2,,,,2,71,49
65024,note_off,,,,,512,0,3,,,,6,62,0
65024,note_off,,,,,512,0,5,,,,3,55,0
65024,note_off,,,,,512,0,2,,,,2,71,0
65536,note_off,,,,,512,0,6,,,,1,62,0
65536,note_on,,,,,0,0,6,,,,1,71,49
65536,note_off,,,,,0,0,6,,,,1,71,0
65536,note_on,,,,,0,0,5,,,,3,55,49
65536,note_off,,,,,1024,0,4,,,,12,67,0
65536,note_off,,,,,0,0,6,,,,1,55,0
65536,note_on,,,,,0,0,3,,,,6,71,49
65536,note_on,,,,,0,0,6,,,,1,74,49
65536,note_off,,,,,512,0,2,,,,2,71,0
65536,note_on,,,,,0,0,2,,,,2,74,49
65536,note_on,,,,,0,0,6,,,,1,55,49
65536,note_off,,,,,512,0,3,,,,6,62,0
65536,note_off,,,,,512,0,5,,,,3,55,0
66048,note_off,,,,,512,0,2,,,,2,74,0
66048,note_off,,,,,512,0,5,,,,3,55,0
66048,note_on,,,,,0,0,2,,,,2,74,49
66048,note_on,,,,,0,0,5,,,,3,55,49
66048,note_on,,,,,512,0,4,,,,12,74,114
66048,note_off,,,,,512,0,3,,,,6,71,0
66048,note_off,,,,,512,0,6,,,,1,71,0
66048,note_on,,,,,0,0,3,,,,6,71,49
66048,note_off,,,,,0,0,6,,,,1,74,0
66048,note_on,,,,,0,0,6,,,,1,71,49
66048,note_on,,,,,0,0,6,,,,1,74,49
66048,note_off,,,,,0,0,6,,,,1,55,0
66048,note_on,,,,,0,0,6,,,,1,55,49
66560,note_off,,,,,0,0,6,,,,1,74,0
66560,note_on,,,,,0,0,2,,,,2,74,49
66560,note_off,,,,,512,0,2,,,,2,74,0
66560,note_on,,,,,0,0,6,,,,1,71,49
66560,note_off,,,,,0,0,6,,,,1,55,0
66560,note_on,,,,,0,0,6,,,,1,55,49
66560,note_on,,,,,0,0,5,,,,3,55,49
66560,note_off,,,,,512,0,6,,,,1,71,0
66560,note_off,,,,,512,0,5,,,,3,55,0
66560,note_off,,,,,512,0,3,,,,6,71,0
66560,note_on,,,,,0,0,3,,,,6,71,49
66560,note_on,,,,,0,0,6,,,,1,74,49
67072,note_on,,,,,0,0,2,,,,2,74,49
67072,note_off,,,,,512,0,2,,,,2,74,0
67072,note_off,,,,,512,0,5,,,,3,55,0
67072,note_on,,,,,0,0,5,,,,3,55,49
67072,note_off,,,,,512,0,3,,,,6,71,0
67072,note_on,,,,,0,0,3,,,,6,71,49
67072,note_on,,,,,0,0,6,,,,1,74,49
67072,note_on,,,,,0,0,6,,,,1,71,49
67072,note_on,,,,,0,0,6,,,,1,55,49
67072,note_off,,,,,0,0,6,,,,1,55,0
67072,note_off,,,,,0,0,6,,,,1,74,0
67072,note_off,,,,,512,0,6,,,,1,71,0
67200,note_on,,,,,0,0,4,,,,12,72,114
67200,note_off,,,,,1152,0,4,,,,12,74,0
67328,note_off,,,,,128,0,4,,,,12,72,0
67328,note_on,,,,,0,0,4,,,,12,74,114
67456,note_off,,,,,128,0,4,,,,12,74,0
67456,note_on,,,,,0,0,4,,,,12,76,114
67584,note_on,,,,,0,0,3,,,,6,69,49
67584,note_off,,,,,512,0,3,,,,6,71,0
67584,note_off,,,,,512,0,5,,,,3,55,0
67584,note_on,,,,,0,0,5,,,,3,55,49
67584,note_on,,,,,0,0,4,,,,12,72,114
67584,note_off,,,,,128,0,4,,,,12,76,0
67584,note_off,,,,,512,0,6,,,,1,71,0
67584,note_off,,,,,0,0,6,,,,1,74,0
67584,note_off,,,,,0,0,6,,,,1,55,0
67584,note_on,,,,,0,0,6,,,,1,64,49
67584,note_on,,,,,0,0,6,,,,1,69,49
67584,note_off,,,,,512,0,2,,,,2,74,0
67584,note_on,,,,,0,0,2,,,,2,72,49
67584,note_on,,,,,0,0,6,,,,1,55,49
67584,note_on,,,,,0,0,6,,,,1,72,49
68096,note_off,,,,,512,0,3,,,,6,69,0
68096,note_off,,,,,512,0,6,,,,1,64,0
68096,note_off,,,,,512,0,2,,,,2,72,0
68096,note_off,,,,,0,0,6,,,,1,69,0
68096,note_off,,,,,0,0,6,,,,1,72,0
68096,note_on,,,,,0,0,6,,,,1,69,49
68096,note_on,,,,,0,0,6,,,,1,72,49
68096,note_off,,,,,0,0,6,,,,1,55,0
68096,note_on,,,,,0,0,6,,,,1,55,49
68096,note_on,,,,,0,0,3,,,,6,69,49
68096,note_on,,,,,0,0,2,,,,2,72,49
68096,note_on,,,,,0,0,5,,,,3,55,49
68096,note_off,,,,,512,0,5,,,,3,55,0
68608,note_on,,,,,0,0,2,,,,2,72,49
68608,note_on,,,,,0,0,6,,,,1,54,49
68608,note_off,,,,,0,0,6,,,,1,55,0
68608,note_on,,,,,0,0,6,,,,1,72,49
68608,note_on,,,,,0,0,6,,,,1,69,49
68608,note_on,,,,,0,0,6,,,,1,62,49
68608,note_off,,,,,0,0,6,,,,1,72,0
68608,note_off,,,,,512,0,6,,,,1,69,0
68608,note_off,,,,,512,0,2,,,,2,72,0
68608,note_on,,,,,0,0,5,,,,3,54,49
68608,note_off,,,,,1024,0,4,,,,12,72,0
68608,note_off,,,,,512,0,5,,,,3,55,0
68608,note_on,,,,,0,0,3,,,,6,69,49
68608,note_off,,,,,512,0,3,,,,6,69,0
69120,note_on,,,,,0,0,6,,,,1,54,49
69120,note_off,,,,,0,0,6,,,,1,54,0
69120,note_on,,,,,0,0,6,,,,1,72,49
69120,note_on,,,,,0,0,6,,,,1,69,49
69120,note_off,,,,,0,0,6,,,,1,72,0
69120,note_off,,,,,0,0,6,,,,1,69,0
69120,note_off,,,,,512,0,6,,,,1,62,0
69120,note_off,,,,,512,0,3,,,,6,69,0
69120,note_off,,,,,512,0,2,,,,2,72,0
69120,note_on,,,,,0,0,2,,,,2,72,49
69120,note_on,,,,,512,0,4,,,,12,72,114
69120,note_on,,,,,0,0,3,,,,6,69,49
69120,note_off,,,,,512,0,5,,,,3,54,0
69120,note_on,,,,,0,0,5,,,,3,54,49
69632,note_on,,,,,0,0,6,,,,1,50,49
69632,note_off,,,,,0,0,6,,,,1,54,0
69632,note_on,,,,,0,0,6,,,,1,72,49
69632,note_on,,,,,0,0,6,,,,1,69,49
69632,note_on,,,,,0,0,6,,,,1,66,49
69632,note_off,,,,,0,0,6,,,,1,72,0
69632,note_off,,,,,512,0,6,,,,1,69,0
69632,note_off,,,,,512,0,5,,,,3,54,0
69632,note_on,,,,,0,0,5,,,,3,50,49
69632,note_on,,,,,0,0,2,,,,2,72,49
69632,note_on,,,,,0,0,3,,,,6,69,49
69632,note_off,,,,,512,0,2,,,,2,72,0
69632,note_off,,,,,512,0,3,,,,6,69,0
70144,note_off,,,,,512,0,5,,,,3,50,0
70144,note_on,,,,,0,0,6,,,,1,50,49
70144,note_off,,,,,0,0,6,,,,1,50,0
70144,note_on,,,,,0,0,6,,,,1,72,49
70144,note_on,,,,,0,0,6,,,,1,69,49
70144,note_off,,,,,0,0,6,,,,1,72,0
70144,note_off,,,,,0,0,6,,,,1,69,0
70144,note_off,,,,,512,0,6,,,,1,66,0
70144,note_on,,,,,0,0,2,,,,2,72,49
70144,note_on,,,,,0,0,5,,,,3,50,49
70144,note_on,,,,,0,0,3,,,,6,69,49
70144,note_off,,,,,512,0,2,,,,2,72,0
70144,note_off,,,,,512,0,3,,,,6,69,0
70272,note_on,,,,,0,0,4,,,,12,71,114
70272,note_off,,,,,1152,0,4,,,,12,72,0
70400,note_on,,,,,0,0,4,,,,12,72,114
70400,note_off,,,,,128,0,4,,,,12,71,0
70528,note_on,,,,,0,0,4,,,,12,74,114
70528,note_off,,,,,128,0,4,,,,12,72,0
70656,note_off,,,,,512,0,3,,,,6,69,0
70656,note_on,,,,,0,0,3,,,,6,67,49
70656,note_off,,,,,0,0,6,,,,1,72,0
70656,note_on,,,,,0,0,6,,,,1,55,49
70656,note_on,,,,,0,0,4,,,,12,71,114
70656,note_off,,,,,128,0,4,,,,12,74,0
70656,note_off,,,,,0,0,6,,,,1,50,0
70656,note_off,,,,,512,0,5,,,,3,50,0
70656,note_on,,,,,0,0,5,,,,3,55,49
70656,note_off,,,,,512,0,6,,,,1,69,0
70656,note_on,,,,,0,0,6,,,,1,67,49
70656,note_on,,,,,0,0,6,,,,1,71,49
70656,note_off,,,,,512,0,2,,,,2,72,0
70656,note_on,,,,,0,0,2,,,,2,71,49
71168,note_on,,,,,0,0,6,,,,1,55,49
71168,note_off,,,,,0,0,6,,,,1,55,0
71168,note_on,,,,,0,0,6,,,,1,71,49
71168,note_on,,,,,0,0,6,,,,1,67,49
71168,note_off,,,,,0,0,6,,,,1,71,0
71168,note_off,,,,,512,0,3,,,,6,67,0
71168,note_off,,,,,512,0,6,,,,1,67,0
71168,note_on,,,,,0,0,3,,,,6,67,49
71168,note_off,,,,,512,0,5,,,,3,55,0
71168,note_on,,,,,0,0,5,,,,3,55,49
71168,note_on,,,,,0,0,2,,,,2,71,49
71168,note_off,,,,,512,0,2,,,,2,71,0
71680,note_off,,,,,1024,0,4,,,,12,71,0
71680,note_on,,,,,0,0,2,,,,2,71,49
71680,note_on,,,,,0,0,3,,,,6,67,49
71680,note_off,,,,,512,0,2,,,,2,71,0
71680,note_on,,,,,0,0,5,,,,3,55,49
71680,note_off,,,,,0,0,6,,,,1,71,0
71680,note_off,,,,,512,0,3,,,,6,67,0
71680,note_on,,,,,0,0,6,,,,1,67,49
71680,note_on,,,,,0,0,6,,,,1,71,49
71680,note_off,,,,,0,0,6,,,,1,55,0
71680,note_on,,,,,0,0,6,,,,1,55,49
71680,note_off,,,,,512,0,5,,,,3,55,0
71680,note_off,,,,,512,0,6,,,,1,67,0
72192,note_off,,,,,512,0,2,,,,2,71,0
72192,note_off,,,,,512,0,6,,,,1,67,0
72192,note_off,,,,,0,0,6,,,,1,71,0
72192,note_on,,,,,0,0,6,,,,1,67,49
72192,note_on,,,,,0,0,6,,,,1,71,49
72192,note_off,,,,,0,0,6,,,,1,55,0
72192,note_on,,,,,0,0,6,,,,1,55,49
72192,note_on,,,,,0,0,2,,,,2,71,49
72192,note_off,,,,,512,0,3,,,,6,67,0
72192,note_on,,,,,0,0,3,,,,6,67,49
72192,note_on,,,,,512,0,4,,,,12,71,114
72192,note_off,,,,,512,0,5,,,,3,55,0
72192,note_on,,,,,0,0,5,,,,3,55,49
72704,note_off,,,,,0,0,6,,,,1,55,0
72704,note_off,,,,,512,0,6,,,,1,67,0
72704,note_off,,,,,0,0,6,,,,1,71,0
72704,note_on,,,,,0,0,2,,,,2,71,49
72704,note_off,,,,,512,0,2,,,,2,71,0
72704,note_off,,,,,512,0,5,,,,3,55,0
72704,note_on,,,,,0,0,5,,,,3,55,49
72704,note_on,,,,,0,0,6,,,,1,67,49
72704,note_on,,,,,0,0,6,,,,1,71,49
72704,note_on,,,,,0,0,6,,,,1,55,49
72704,note_on,,,,,0,0,3,,,,6,67,49
72704,note_off,,,,,512,0,3,,,,6,67,0
72704,note_off,,,,,512,0,4,,,,12,71,0
72704,note_on,,,,,0,0,4,,,,12,71,114
73216,note_off,,,,,512,0,6,,,,1,67,0
73216,note_off,,,,,0,0,6,,,,1,71,0
73216,note_on,,,,,0,0,6,,,,1,67,49
73216,note_on,,,,,0,0,6,,,,1,71,49
73216,note_off,,,,,0,0,6,,,,1,55,0
73216,note_on,,,,,0,0,2,,,,2,71,49
73216,note_on,,,,,0,0,5,,,,3,55,49
73216,note_off,,,,,512,0,3,,,,6,67,0
73216,note_on,,,,,0,0,3,,,,6,67,49
73216,note_on,,,,,0,0,6,,,,1,55,49
73216,note_off,,,,,512,0,5,,,,3,55,0
73216,note_off,,,,,512,0,2,,,,2,71,0
73344,note_on,,,,,0,0,4,,,,12,69,114
73344,note_off,,,,,640,0,4,,,,12,71,0
73472,note_off,,,,,128,0,4,,,,12,69,0
73472,note_on,,,,,0,0,4,,,,12,71,114
73600,note_off,,,,,128,0,4,,,,12,71,0
73600,note_on,,,,,0,0,4,,,,12,72,114
73728,note_on,,,,,0,0,6,,,,1,69,49
73728,note_on,,,,,0,0,6,,,,1,66,49
73728,note_off,,,,,512,0,5,,,,3,55,0
73728,note_on,,,,,0,0,5,,,,3,62,49
73728,note_on,,,,,0,0,6,,,,1,62,49
73728,note_off,,,,,0,0,6,,,,1,55,0
73728,note_on,,,,,0,0,4,,,,12,69,114
73728,note_off,,,,,512,0,6,,,,1,67,0
73728,note_off,,,,,128,0,4,,,,12,72,0
73728,note_off,,,,,512,0,2,,,,2,71,0
73728,note_on,,,,,0,0,2,,,,2,69,49
73728,note_off,,,,,512,0,3,,,,6,67,0
73728,note_on,,,,,0,0,3,,,,6,66,49
73728,note_off,,,,,0,0,6,,,,1,71,0
74240,note_off,,,,,512,0,3,,,,6,66,0
74240,note_on,,,,,0,0,3,,,,6,66,49
74240,note_off,,,,,512,0,2,,,,2,69,0
74240,note_on,,,,,0,0,2,,,,2,69,49
74240,note_off,,,,,0,0,6,,,,1,62,0
74240,note_on,,,,,0,0,6,,,,1,69,49
74240,note_on,,,,,0,0,6,,,,1,66,49
74240,note_off,,,,,0,0,6,,,,1,69,0
74240,note_off,,,,,512,0,6,,,,1,66,0
74240,note_off,,,,,512,0,5,,,,3,62,0
74240,note_on,,,,,0,0,6,,,,1,62,49
74240,note_on,,,,,0,0,5,,,,3,62,49
74752,note_off,,,,,512,0,2,,,,2,69,0
74752,note_off,,,,,1024,0,4,,,,12,69,0
74752,note_on,,,,,0,0,2,,,,2,69,49
74752,note_on,,,,,0,0,3,,,,6,66,49
74752,note_off,,,,,512,0,3,,,,6,66,0
74752,note_on,,,,,0,0,6,,,,1,69,49
74752,note_on,,,,,0,0,6,,,,1,66,49
74752,note_on,,,,,0,0,5,,,,3,62,49
74752,note_off,,,,,512,0,5,,,,3,62,0
74752,note_off,,,,,512,0,6,,,,1,66,0
74752,note_off,,,,,0,0,6,,,,1,69,0
74752,note_on,,,,,0,0,6,,,,1,62,49
74752,note_off,,,,,0,0,6,,,,1,62,0
75008,note_on,,,,,256,0,4,,,,12,69,114
75264,note_on,,,,,0,0,6,,,,1,69,49
75264,note_on,,,,,0,0,4,,,,12,74,114
75264,note_off,,,,,256,0,4,,,,12,69,0
75264,note_on,,,,,0,0,5,,,,3,62,49
75264,note_off,,,,,512,0,5,,,,3,62,0
75264,note_on,,,,,0,0,3,,,,6,66,49
75264,note_on,,,,,0,0,2,,,,2,69,49
75264,note_off,,,,,512,0,2,,,,2,69,0
75264,note_off,,,,,512,0,3,,,,6,66,0
75264,note_on,,,,,0,0,6,,,,1,62,49
75264,note_off,,,,,512,0,6,,,,1,66,0
75264,note_off,,,,,0,0,6,,,,1,69,0
75264,note_on,,,,,0,0,6,,,,1,66,49
75264,note_off,,,,,0,0,6,,,,1,62,0
75520,note_off,,,,,256,0,4,,,,12,74,0
75520,note_on,,,,,0,0,4,,,,12,76,114
75776,note_off,,,,,256,0,4,,,,12,76,0
75776,note_on,,,,,0,0,6,,,,1,74,49
75776,note_on,,,,,0,0,2,,,,2,74,49
75776,note_off,,,,,512,0,2,,,,2,69,0
75776,note_on,,,,,0,0,4,,,,12,77,114
75776,note_off,,,,,512,0,5,,,,3,62,0
75776,note_off,,,,,512,0,3,,,,6,66,0
75776,note_on,,,,,0,0,3,,,,6,65,49
75776,note_on,,,,,0,0,5,,,,3,62,49
75776,note_on,,,,,0,0,6,,,,1,65,49
75776,note_off,,,,,512,0,6,,,,1,66,0
75776,note_off,,,,,0,0,6,,,,1,69,0
75776,note_on,,,,,0,0,6,,,,1,62,49
75776,note_off,,,,,0,0,6,,,,1,62,0
76032,note_off,,,,,256,0,4,,,,12,77,0
76032,note_on,,,,,0,0,4,,,,12,74,114
76288,note_on,,,,,0,0,5,,,,3,62,49
76288,note_off,,,,,512,0,5,,,,3,62,0
76288,note_off,,,,,512,0,2,,,,2,74,0
76288,note_on,,,,,0,0,2,,,,2,74,49
76288,note_off,,,,,0,0,6,,,,1,62,0
76288,note_on,,,,,0,0,6,,,,1,65,49
76288,note_off,,,,,512,0,6,,,,1,65,0
76288,note_on,,,,,0,0,6,,,,1,62,49
76288,note_on,,,,,0,0,4,,,,12,71,114
76288,note_off,,,,,256,0,4,,,,12,74,0
76288,note_on,,,,,0,0,6,,,,1,74,49
76288,note_off,,,,,0,0,6,,,,1,74,0
76288,note_off,,,,,512,0,3,,,,6,65,0
76288,note_on,,,,,0,0,3,,,,6,65,49
76544,note_on,,,,,0,0,4,,,,12,69,114
76544,note_off,,,,,256,0,4,,,,12,71,0
76800,note_off,,,,,512,0,6,,,,1,65,0
76800,note_on,,,,,0,0,5,,,,3,64,49
76800,note_off,,,,,512,0,5,,,,3,62,0
76800,note_off,,,,,512,0,2,,,,2,74,0
76800,note_off,,,,,0,0,6,,,,1,74,0
76800,note_off,,,,,256,0,4,,,,12,69,0
76800,note_on,,,,,0,0,4,,,,12,68,114
76800,note_on,,,,,0,0,3,,,,6,68,49
76800,note_off,,,,,512,0,3,,,,6,65,0
76800,note_on,,,,,0,0,2,,,,2,71,49
76800,note_off,,,,,0,0,6,,,,1,62,0
76800,note_on,,,,,0,0,6,,,,1,71,49
76800,note_on,,,,,0,0,6,,,,1,64,49
76800,note_on,,,,,0,0,6,,,,1,68,49
77312,note_on,,,,,0,0,3,,,,6,68,49
77312,note_on,,,,,0,0,6,,,,1,64,49
77312,note_off,,,,,0,0,6,,,,1,64,0
77312,note_on,,,,,0,0,6,,,,1,71,49
77312,note_off,,,,,512,0,3,,,,6,68,0
77312,note_on,,,,,0,0,2,,,,2,71,49
77312,note_off,,,,,512,0,5,,,,3,64,0
77312,note_on,,,,,0,0,5,,,,3,64,49
77312,note_off,,,,,0,0,6,,,,1,71,0
77312,note_off,,,,,512,0,6,,,,1,68,0
77312,note_off,,,,,512,0,2,,,,2,71,0
77312,note_on,,,,,0,0,6,,,,1,68,49
77440,note_on,,,,,0,0,4,,,,12,66,114
77440,note_off,,,,,640,0,4,,,,12,68,0
77568,note_on,,,,,0,0,4,,,,12,68,114
77568,note_off,,,,,128,0,4,,,,12,66,0
77696,note_off,,,,,128,0,4,,,,12,68,0
77696,note_on,,,,,0,0,4,,,,12,69,114
77824,note_on,,,,,0,0,6,,,,1,68,49
77824,note_on,,,,,0,0,2,,,,2,71,49
77824,note_on,,,,,0,0,5,,,,3,64,49
77824,note_off,,,,,512,0,5,,,,3,64,0
77824,note_on,,,,,0,0,6,,,,1,64,49
77824,note_off,,,,,512,0,2,,,,2,71,0
77824,note_off,,,,,512,0,6,,,,1,68,0
77824,note_off,,,,,0,0,6,,,,1,64,0
77824,note_off,,,,,512,0,3,,,,6,68,0
77824,note_on,,,,,0,0,3,,,,6,68,49
77824,note_on,,,,,0,0,4,,,,12,71,114
77824,note_off,,,,,128,0,4,,,,12,69,0
77824,note_on,,,,,0,0,6,,,,1,71,49
77824,note_off,,,,,0,0,6,,,,1,71,0
78336,note_off,,,,,512,0,3,,,,6,68,0
78336,note_on,,,,,0,0,2,,,,2,71,49
78336,note_off,,,,,512,0,2,,,,2,71,0
78336,note_on,,,,,0,0,5,,,,3,64,49
78336,note_on,,,,,0,0,3,,,,6,68,49
78336,note_on,,,,,0,0,6,,,,1,64,49
78336,note_off,,,,,512,0,6,,,,1,68,0
78336,note_off,,,,,0,0,6,,,,1,71,0
78336,note_on,,,,,0,0,6,,,,1,68,49
78336,note_on,,,,,0,0,6,,,,1,71,49
78336,note_off,,,,,0,0,6,,,,1,64,0
78336,note_off,,,,,512,0,5,,,,3,64,0
78464,note_on,,,,,0,0,4,,,,12,69,114
78464,note_off,,,,,640,0,4,,,,12,71,0
78592,note_off,,,,,128,0,4,,,,12,69,0
78592,note_on,,,,,0,0,4,,,,12,71,114
78720,note_on,,,,,0,0,4,,,,12,72,114
78720,note_off,,,,,128,0,4,,,,12,71,0
78848,note_on,,,,,0,0,5,,,,3,64,49
78848,note_on,,,,,0,0,4,,,,12,76,114
78848,note_off,,,,,128,0,4,,,,12,72,0
78848,note_off,,,,,512,0,5,,,,3,64,0
78848,note_on,,,,,0,0,6,,,,1,64,49
78848,note_on,,,,,0,0,2,,,,2,71,49
78848,note_off,,,,,512,0,2,,,,2,71,0
78848,note_on,,,,,0,0,6,,,,1,71,49
78848,note_on,,,,,0,0,6,,,,1,68,49
78848,note_off,,,,,0,0,6,,,,1,71,0
78848,note_on,,,,,0,0,3,,,,6,68,49
78848,note_off,,,,,512,0,3,,,,6,68,0
78848,note_off,,,,,512,0,6,,,,1,68,0
78848,note_off,,,,,0,0,6,,,,1,64,0
78933,note_off,,,,,85,0,4,,,,12,76,0
78933,note_on,,,,,0,0,4,,,,12,74,114
79019,note_on,,,,,0,0,4,,,,12,76,114
79019,note_off,,,,,86,0,4,,,,12,74,0
79104,note_off,,,,,85,0,4,,,,12,76,0
79104,note_on,,,,,0,0,4,,,,12,74,114
79189,note_on,,,,,0,0,4,,,,12,76,114
79189,note_off,,,,,85,0,4,,,,12,74,0
79275,note_on,,,,,0,0,4,,,,12,74,114
79275,note_off,,,,,86,0,4,,,,12,76,0
79360,note_on,,,,,0,0,4,,,,12,76,114
79360,note_off,,,,,85,0,4,,,,12,74,0
79360,note_on,,,,,0,0,2,,,,2,71,49
79360,note_off,,,,,512,0,2,,,,2,71,0
79360,note_off,,,,,512,0,5,,,,3,64,0
79360,note_on,,,,,0,0,5,,,,3,64,49
79360,note_off,,,,,0,0,6,,,,1,71,0
79360,note_on,,,,,0,0,6,,,,1,64,49
79360,note_off,,,,,0,0,6,,,,1,64,0
79360,note_on,,,,,0,0,6,,,,1,71,49
79360,note_on,,,,,0,0,6,,,,1,68,49
79360,note_on,,,,,0,0,3,,,,6,68,49
79360,note_off,,,,,512,0,3,,,,6,68,0
79360,note_off,,,,,512,0,6,,,,1,68,0
79445,note_on,,,,,0,0,4,,,,12,74,114
79445,note_off,,,,,85,0,4,,,,12,76,0
79531,note_on,,,,,0,0,4,,,,12,76,114
79531,note_off,,,,,86,0,4,,,,12,74,0
79616,note_on,,,,,0,0,4,,,,12,72,114
79616,note_off,,,,,85,0,4,,,,12,76,0
79744,note_off,,,,,128,0,4,,,,12,72,0
79744,note_on,,,,,0,0,4,,,,12,71,114
79872,note_off,,,,,512,0,3,,,,6,68,0
79872,note_off,,,,,512,0,2,,,,2,71,0
79872,note_off,,,,,512,0,5,,,,3,64,0
79872,note_on,,,,,0,0,6,,,,1,57,49
79872,note_on,,,,,0,0,6,,,,1,72,49
79872,note_off,,,,,128,0,4,,,,12,71,0
79872,note_off,,,,,512,0,6,,,,1,68,0
79872,note_on,,,,,0,0,4,,,,12,72,114
79872,note_on,,,,,0,0,6,,,,1,64,49
79872,note_on,,,,,0,0,5,,,,3,57,49
79872,note_off,,,,,0,0,6,,,,1,64,0
79872,note_off,,,,,0,0,6,,,,1,71,0
79872,note_on,,,,,0,0,2,,,,2,72,49
79872,note_on,,,,,0,0,3,,,,6,64,49
80000,note_off,,,,,128,0,4,,,,12,72,0
80000,note_on,,,,,0,0,4,,,,12,71,114
80128,note_off,,,,,128,0,4,,,,12,71,0
80128,note_on,,,,,0,0,4,,,,12,69,114
80384,note_off,,,,,512,0,6,,,,1,64,0
80384,note_off,,,,,0,0,6,,,,1,72,0
80384,note_on,,,,,0,0,3,,,,6,64,49
80384,note_on,,,,,0,0,6,,,,1,72,49
80384,note_off,,,,,0,0,6,,,,1,57,0
80384,note_off,,,,,512,0,3,,,,6,64,0
80384,note_on,,,,,0,0,5,,,,3,57,49
80384,note_off,,,,,512,0,5,,,,3,57,0
80384,note_on,,,,,0,0,2,,,,2,72,49
80384,note_off,,,,,512,0,2,,,,2,72,0
80384,note_on,,,,,0,0,6,,,,1,64,49
80384,note_on,,,,,0,0,6,,,,1,57,49
80896,note_on,,,,,0,0,2,,,,2,72,49
80896,note_off,,,,,768,0,4,,,,12,69,0
80896,note_off,,,,,512,0,3,,,,6,64,0
80896,note_off,,,,,0,0,6,,,,1,72,0
80896,note_on,,,,,0,0,6,,,,1,64,49
80896,note_on,,,,,0,0,6,,,,1,72,49
80896,note_off,,,,,0,0,6,,,,1,57,0
80896,note_on,,,,,0,0,6,,,,1,57,49
80896,note_off,,,,,512,0,5,,,,3,57,0
80896,note_on,,,,,0,0,5,,,,3,57,49
80896,note_off,,,,,512,0,2,,,,2,72,0
80896,note_off,,,,,512,0,6,,,,1,64,0
80896,note_on,,,,,0,0,3,,,,6,64,49
81152,note_on,,,,,256,0,4,,,,12,69,114
81408,note_off,,,,,0,0,6,,,,1,57,0
81408,note_off,,,,,512,0,6,,,,1,64,0
81408,note_off,,,,,0,0,6,,,,1,72,0
81408,note_on,,,,,0,0,6,,,,1,64,49
81408,note_on,,,,,0,0,6,,,,1,72,49
81408,note_on,,,,,0,0,6,,,,1,57,49
81408,note_off,,,,,512,0,2,,,,2,72,0
81408,note_on,,,,,0,0,2,,,,2,72,49
81408,note_on,,,,,0,0,5,,,,3,57,49
81408,note_off,,,,,512,0,5,,,,3,57,0
81408,note_off,,,,,256,0,4,,,,12,69,0
81408,note_on,,,,,0,0,4,,,,12,69,114
81408,note_off,,,,,512,0,3,,,,6,64,0
81408,note_on,,,,,0,0,3,,,,6,64,49
81664,note_off,,,,,256,0,4,,,,12,69,0
81664,note_on,,,,,0,0,4,,,,12,72,114
81920,note_on,,,,,0,0,4,,,,12,72,114
81920,note_on,,,,,0,0,6,,,,1,72,49
81920,note_off,,,,,0,0,6,,,,1,57,0
81920,note_on,,,,,0,0,6,,,,1,57,49
81920,note_off,,,,,512,0,6,,,,1,64,0
81920,note_off,,,,,512,0,3,,,,6,64,0
81920,note_on,,,,,0,0,3,,,,6,64,49
81920,note_off,,,,,0,0,6,,,,1,72,0
81920,note_on,,,,,0,0,6,,,,1,64,49
81920,note_off,,,,,256,0,4,,,,12,72,0
81920,note_off,,,,,512,0,5,,,,3,57,0
81920,note_on,,,,,0,0,5,,,,3,57,49
81920,note_off,,,,,512,0,2,,,,2,72,0
81920,note_on,,,,,0,0,2,,,,2,72,49
82176,note_off,,,,,256,0,4,,,,12,72,0
82176,note_on,,,,,0,0,4,,,,12,76,114
82432,note_on,,,,,0,0,3,,,,6,64,49
82432,note_off,,,,,512,0,3,,,,6,64,0
82432,note_on,,,,,0,0,6,,,,1,72,49
82432,note_on,,,,,0,0,6,,,,1,64,49
82432,note_off,,,,,512,0,2,,,,2,72,0
82432,note_off,,,,,0,0,6,,,,1,57,0
82432,note_on,,,,,0,0,6,,,,1,57,49
82432,note_on,,,,,0,0,4,,,,12,76,114
82432,note_off,,,,,256,0,4,,,,12,76,0
82432,note_off,,,,,512,0,5,,,,3,57,0
82432,note_on,,,,,0,0,5,,,,3,57,49
82432,note_off,,,,,0,0,6,,,,1,72,0
82432,note_on,,,,,0,0,2,,,,2,72,49
82432,note_off,,,,,512,0,6,,,,1,64,0
82688,note_off,,,,,256,0,4,,,,12,76,0
82688,note_on,,,,,0,0,4,,,,12,77,114
82944,note_off,,,,,512,0,5,,,,3,57,0
82944,note_off,,,,,512,0,6,,,,1,64,0
82944,note_on,,,,,0,0,5,,,,3,55,49
82944,note_on,,,,,0,0,4,,,,12,77,114
82944,note_off,,,,,0,0,6,,,,1,72,0
82944,note_off,,,,,0,0,6,,,,1,57,0
82944,note_on,,,,,0,0,6,,,,1,71,49
82944,note_on,,,,,0,0,6,,,,1,74,49
82944,note_on,,,,,0,0,6,,,,1,55,49
82944,note_off,,,,,256,0,4,,,,12,77,0
82944,note_off,,,,,512,0,2,,,,2,72,0
82944,note_on,,,,,0,0,3,,,,6,71,49
82944,note_off,,,,,512,0,3,,,,6,64,0
82944,note_on,,,,,0,0,2,,,,2,74,49
83200,note_on,,,,,0,0,4,,,,12,79,114
83200,note_off,,,,,256,0,4,,,,12,77,0
83456,note_off,,,,,256,0,4,,,,12,79,0
83456,note_on,,,,,0,0,4,,,,12,81,114
83456,note_off,,,,,512,0,3,,,,6,71,0
83456,note_on,,,,,0,0,2,,,,2,74,49
83456,note_on,,,,,0,0,6,,,,1,55,49
83456,note_off,,,,,512,0,2,,,,2,74,0
83456,note_off,,,,,0,0,6,,,,1,55,0
83456,note_on,,,,,0,0,5,,,,3,55,49
83456,note_on,,,,,0,0,3,,,,6,71,49
83456,note_off,,,,,512,0,6,,,,1,71,0
83456,note_off,,,,,0,0,6,,,,1,74,0
83456,note_on,,,,,0,0,6,,,,1,71,49
83456,note_on,,,,,0,0,6,,,,1,74,49
83456,note_off,,,,,512,0,5,,,,3,55,0
83712,note_on,,,,,0,0,4,,,,12,79,114
83712,note_off,,,,,256,0,4,,,,12,81,0
83968,note_off,,,,,0,0,6,,,,1,55,0
83968,note_on,,,,,0,0,6,,,,1,74,49
83968,note_on,,,,,0,0,6,,,,1,71,49
83968,note_off,,,,,0,0,6,,,,1,74,0
83968,note_off,,,,,512,0,5,,,,3,55,0
83968,note_off,,,,,256,0,4,,,,12,79,0
83968,note_off,,,,,512,0,6,,,,1,71,0
83968,note_on,,,,,0,0,6,,,,1,55,49
83968,note_on,,,,,0,0,4,,,,12,77,114
83968,note_on,,,,,0,0,5,,,,3,55,49
83968,note_off,,,,,512,0,2,,,,2,74,0
83968,note_off,,,,,512,0,3,,,,6,71,0
83968,note_on,,,,,0,0,3,,,,6,71,49
83968,note_on,,,,,0,0,2,,,,2,74,49
84224,note_on,,,,,0,0,4,,,,12,76,114
84224,note_off,,,,,256,0,4,,,,12,77,0
84480,note_on,,,,,0,0,5,,,,3,55,49
84480,note_off,,,,,512,0,5,,,,3,55,0
84480,note_on,,,,,0,0,2,,,,2,74,49
84480,note_off,,,,,512,0,2,,,,2,74,0
84480,note_on,,,,,0,0,6,,,,1,55,49
84480,note_off,,,,,0,0,6,,,,1,55,0
84480,note_on,,,,,0,0,6,,,,1,74,49
84480,note_on,,,,,0,0,6,,,,1,71,49
84480,note_off,,,,,0,0,6,,,,1,74,0
84480,note_on,,,,,0,0,3,,,,6,71,49
84480,note_off,,,,,256,0,4,,,,12,76,0
84480,note_on,,,,,0,0,4,,,,12,74,114
84480,note_off,,,,,512,0,3,,,,6,71,0
84480,note_off,,,,,512,0,6,,,,1,71,0
84736,note_off,,,,,256,0,4,,,,12,74,0
84736,note_on,,,,,0,0,4,,,,12,72,114
84992,note_off,,,,,512,0,3,,,,6,71,0
84992,note_on,,,,,0,0,4,,,,12,71,114
84992,note_off,,,,,256,0,4,,,,12,72,0
84992,note_on,,,,,0,0,2,,,,2,71,49
84992,note_off,,,,,512,0,2,,,,2,74,0
84992,note_on,,,,,0,0,6,,,,1,55,49
84992,note_on,,,,,0,0,6,,,,1,67,49
84992,note_on,,,,,0,0,6,,,,1,71,49
84992,note_off,,,,,512,0,5,,,,3,55,0
84992,note_on,,,,,0,0,5,,,,3,55,49
84992,note_off,,,,,0,0,6,,,,1,74,0
84992,note_off,,,,,512,0,6,,,,1,71,0
84992,note_on,,,,,0,0,3,,,,6,67,49
84992,note_off,,,,,0,0,6,,,,1,55,0
85248,note_off,,,,,256,0,4,,,,12,71,0
85248,note_on,,,,,0,0,4,,,,12,74,114
85504,note_on,,,,,0,0,6,,,,1,71,49
85504,note_off,,,,,0,0,6,,,,1,55,0
85504,note_off,,,,,0,0,6,,,,1,71,0
85504,note_on,,,,,0,0,4,,,,12,76,114
85504,note_on,,,,,0,0,6,,,,1,67,49
85504,note_on,,,,,0,0,6,,,,1,55,49
85504,note_off,,,,,512,0,6,,,,1,67,0
85504,note_off,,,,,256,0,4,,,,12,74,0
85504,note_on,,,,,0,0,5,,,,3,55,49
85504,note_off,,,,,512,0,5,,,,3,55,0
85504,note_on,,,,,0,0,2,,,,2,71,49
85504,note_off,,,,,512,0,2,,,,2,71,0
85504,note_off,,,,,512,0,3,,,,6,67,0
85504,note_on,,,,,0,0,3,,,,6,67,49
85760,note_on,,,,,0,0,4,,,,12,77,114
85760,note_off,,,,,256,0,4,,,,12,76,0
86016,note_on,,,,,0,0,4,,,,12,76,114
86016,note_off,,,,,512,0,6,,,,1,67,0
86016,note_off,,,,,0,0,6,,,,1,71,0
86016,note_off,,,,,0,0,6,,,,1,55,0
86016,note_on,,,,,0,0,6,,,,1,55,49
86016,note_on,,,,,0,0,6,,,,1,72,49
86016,note_off,,,,,256,0,4,,,,12,77,0
86016,note_off,,,,,512,0,5,,,,3,55,0
86016,note_on,,,,,0,0,6,,,,1,64,49
86016,note_on,,,,,0,0,2,,,,2,72,49
86016,note_on,,,,,0,0,3,,,,6,64,49
86016,note_off,,,,,512,0,3,,,,6,67,0
86016,note_on,,,,,0,0,5,,,,3,55,49
86016,note_on,,,,,0,0,6,,,,1,67,49
86016,note_off,,,,,512,0,2,,,,2,71,0
86272,note_off,,,,,256,0,4,,,,12,76,0
86272,note_on,,,,,0,0,4,,,,12,72,114
86528,note_off,,,,,512,0,2,,,,2,72,0
86528,note_off,,,,,512,0,6,,,,1,64,0
86528,note_off,,,,,0,0,6,,,,1,67,0
86528,note_off,,,,,0,0,6,,,,1,72,0
86528,note_on,,,,,0,0,6,,,,1,64,49
86528,note_on,,,,,0,0,6,,,,1,72,49
86528,note_off,,,,,0,0,6,,,,1,55,0
86528,note_on,,,,,0,0,3,,,,6,64,49
86528,note_on,,,,,0,0,2,,,,2,72,49
86528,note_on,,,,,0,0,4,,,,12,74,114
86528,note_off,,,,,256,0,4,,,,12,72,0
86528,note_off,,,,,512,0,5,,,,3,55,0
86528,note_on,,,,,0,0,5,,,,3,55,49
86528,note_on,,,,,0,0,6,,,,1,55,49
86528,note_off,,,,,512,0,3,,,,6,64,0
86613,note_on,,,,,0,0,4,,,,12,72,114
86613,note_off,,,,,85,0,4,,,,12,74,0
86699,note_on,,,,,0,0,4,,,,12,74,114
86699,note_off,,,,,86,0,4,,,,12,72,0
86784,note_off,,,,,85,0,4,,,,12,74,0
86784,note_on,,,,,0,0,4,,,,12,72,114
86869,note_on,,,,,0,0,4,,,,12,74,114
86869,note_off,,,,,85,0,4,,,,12,72,0
86955,note_on,,,,,0,0,4,,,,12,72,114
86955,note_off,,,,,86,0,4,,,,12,74,0
87040,note_off,,,,,0,0,6,,,,1,72,0
87040,note_off,,,,,85,0,4,,,,12,72,0
87040,note_off,,,,,512,0,6,,,,1,64,0
87040,note_off,,,,,512,0,3,,,,6,64,0
87040,note_on,,,,,0,0,3,,,,6,64,49
87040,note_off,,,,,0,0,6,,,,1,55,0
87040,note_on,,,,,0,0,6,,,,1,55,49
87040,note_off,,,,,512,0,5,,,,3,55,0
87040,note_on,,,,,0,0,5,,,,3,55,49
87040,note_off,,,,,512,0,2,,,,2,72,0
87040,note_on,,,,,0,0,2,,,,2,72,49
87040,note_on,,,,,0,0,6,,,,1,72,49
87040,note_on,,,,,0,0,6,,,,1,64,49
87296,note_on,,,,,256,0,4,,,,12,72,114
87424,note_on,,,,,0,0,4,,,,12,74,114
87424,note_off,,,,,128,0,4,,,,12,72,0
87552,note_off,,,,,512,0,3,,,,6,64,0
87552,note_on,,,,,0,0,3,,,,6,64,49
87552,note_off,,,,,128,0,4,,,,12,74,0
87552,note_on,,,,,0,0,4,,,,12,76,114
87552,note_on,,,,,0,0,6,,,,1,72,49
87552,note_on,,,,,0,0,6,,,,1,64,49
87552,note_off,,,,,512,0,2,,,,2,72,0
87552,note_off,,,,,0,0,6,,,,1,72,0
87552,note_off,,,,,512,0,6,,,,1,64,0
87552,note_on,,,,,0,0,2,,,,2,72,49
87552,note_on,,,,,0,0,6,,,,1,55,49
87552,note_on,,,,,0,0,5,,,,3,55,49
87552,note_off,,,,,512,0,5,,,,3,55,0
87552,note_off,,,,,0,0,6,,,,1,55,0
87808,note_on,,,,,0,0,4,,,,12,74,114
87808,note_off,,,,,256,0,4,,,,12,76,0
87936,note_off,,,,,128,0,4,,,,12,74,0
87936,note_on,,,,,0,0,4,,,,12,72,114
88064,note_off,,,,,512,0,6,,,,1,64,0
88064,note_off,,,,,512,0,2,,,,2,72,0
88064,note_on,,,,,0,0,2,,,,2,76,49
88064,note_on,,,,,0,0,3,,,,6,72,49
88064,note_off,,,,,0,0,6,,,,1,72,0
88064,note_on,,,,,0,0,6,,,,1,72,49
88064,note_off,,,,,0,0,6,,,,1,55,0
88064,note_on,,,,,0,0,6,,,,1,76,49
88064,note_off,,,,,512,0,3,,,,6,64,0
88064,note_on,,,,,0,0,6,,,,1,55,49
88064,note_off,,,,,128,0,4,,,,12,72,0
88064,note_on,,,,,0,0,4,,,,12,79,114
88064,note_on,,,,,0,0,5,,,,3,55,49
88064,note_off,,,,,512,0,5,,,,3,55,0
88320,note_off,,,,,256,0,4,,,,12,79,0
88320,note_on,,,,,0,0,4,,,,12,76,114
88576,note_on,,,,,0,0,5,,,,3,55,49
88576,note_off,,,,,512,0,5,,,,3,55,0
88576,note_on,,,,,0,0,4,,,,12,74,114
88576,note_off,,,,,256,0,4,,,,12,76,0
88576,note_off,,,,,512,0,2,,,,2,76,0
88576,note_on,,,,,0,0,2,,,,2,76,49
88576,note_on,,,,,0,0,6,,,,1,72,49
88576,note_on,,,,,0,0,6,,,,1,76,49
88576,note_off,,,,,512,0,3,,,,6,72,0
88576,note_on,,,,,0,0,3,,,,6,72,49
88576,note_off,,,,,512,0,6,,,,1,72,0
88576,note_off,,,,,0,0,6,,,,1,76,0
88576,note_on,,,,,0,0,6,,,,1,55,49
88576,note_off,,,,,0,0,6,,,,1,55,0
88832,note_off,,,,,256,0,4,,,,12,74,0
88832,note_on,,,,,0,0,4,,,,12,72,114
89088,note_off,,,,,512,0,3,,,,6,72,0
89088,note_off,,,,,256,0,4,,,,12,72,0
89088,note_on,,,,,0,0,3,,,,6,71,49
89088,note_on,,,,,0,0,4,,,,12,74,114
89088,note_on,,,,,0,0,2,,,,2,74,49
89088,note_off,,,,,512,0,2,,,,2,76,0
89088,note_on,,,,,0,0,5,,,,3,55,49
89088,note_off,,,,,512,0,6,,,,1,72,0
89088,note_off,,,,,0,0,6,,,,1,76,0
89088,note_off,,,,,0,0,6,,,,1,55,0
89088,note_on,,,,,0,0,6,,,,1,71,49
89088,note_on,,,,,0,0,6,,,,1,74,49
89088,note_on,,,,,0,0,6,,,,1,55,49
89088,note_off,,,,,512,0,5,,,,3,55,0
89344,note_on,,,,,0,0,4,,,,12,71,114
89344,note_off,,,,,256,0,4,,,,12,74,0
89600,note_on,,,,,0,0,5,,,,3,55,49
89600,note_off,,,,,512,0,5,,,,3,55,0
89600,note_off,,,,,512,0,3,,,,6,71,0
89600,note_on,,,,,0,0,3,,,,6,71,49
89600,note_on,,,,,0,0,6,,,,1,74,49
89600,note_off,,,,,0,0,6,,,,1,74,0
89600,note_on,,,,,0,0,6,,,,1,71,49
89600,note_off,,,,,0,0,6,,,,1,55,0
89600,note_off,,,,,512,0,6,,,,1,71,0
89600,note_off,,,,,256,0,4,,,,12,71,0
89600,note_on,,,,,0,0,4,,,,12,72,114
89600,note_on,,,,,0,0,6,,,,1,55,49
89600,note_off,,,,,512,0,2,,,,2,74,0
89600,note_on,,,,,0,0,2,,,,2,74,49
89685,note_off,,,,,85,0,4,,,,12,72,0
89685,note_on,,,,,0,0,4,,,,12,71,114
89771,note_off,,,,,86,0,4,,,,12,71,0
89771,note_on,,,,,0,0,4,,,,12,72,114
89856,note_off,,,,,85,0,4,,,,12,72,0
89856,note_on,,,,,0,0,4,,,,12,71,114
89941,note_on,,,,,0,0,4,,,,12,72,114
89941,note_off,,,,,85,0,4,,,,12,71,0
90027,note_on,,,,,0,0,4,,,,12,71,114
90027,note_off,,,,,86,0,4,,,,12,72,0
90112,note_on,,,,,0,0,6,,,,1,71,49
90112,note_off,,,,,512,0,3,,,,6,71,0
90112,note_off,,,,,512,0,6,,,,1,71,0
90112,note_off,,,,,0,0,6,,,,1,74,0
90112,note_on,,,,,0,0,2,,,,2,74,49
90112,note_on,,,,,0,0,6,,,,1,74,49
90112,note_off,,,,,512,0,2,,,,2,74,0
90112,note_on,,,,,0,0,6,,,,1,55,49
90112,note_off,,,,,85,0,4,,,,12,71,0
90112,note_off,,,,,0,0,6,,,,1,55,0
90112,note_on,,,,,0,0,5,,,,3,55,49
90112,note_off,,,,,512,0,5,,,,3,55,0
90112,note_on,,,,,0,0,3,,,,6,71,49
90368,note_on,,,,,256,0,4,,,,12,71,114
90496,note_off,,,,,128,0,4,,,,12,71,0
90496,note_on,,,,,0,0,4,,,,12,72,114
90624,note_on,,,,,0,0,5,,,,3,55,49
90624,note_off,,,,,512,0,5,,,,3,55,0
90624,note_on,,,,,0,0,3,,,,6,71,49
90624,note_off,,,,,512,0,3,,,,6,71,0
90624,note_on,,,,,0,0,2,,,,2,74,49
90624,note_off,,,,,512,0,2,,,,2,74,0
90624,note_on,,,,,0,0,4,,,,12,74,114
90624,note_off,,,,,0,0,6,,,,1,74,0
90624,note_on,,,,,0,0,6,,,,1,71,49
90624,note_off,,,,,0,0,6,,,,1,55,0
90624,note_on,,,,,0,0,6,,,,1,55,49
90624,note_off,,,,,512,0,6,,,,1,71,0
90624,note_off,,,,,128,0,4,,,,12,72,0
90624,note_on,,,,,0,0,6,,,,1,74,49
90880,note_off,,,,,256,0,4,,,,12,74,0
90880,note_on,,,,,0,0,4,,,,12,72,114
91008,note_on,,,,,0,0,4,,,,12,71,114
91008,note_off,,,,,128,0,4,,,,12,72,0
91136,note_on,,,,,0,0,4,,,,12,79,114
91136,note_on,,,,,0,0,6,,,,1,55,49
91136,note_off,,,,,0,0,6,,,,1,55,0
91136,note_on,,,,,0,0,6,,,,1,71,49
91136,note_on,,,,,0,0,3,,,,6,67,49
91136,note_off,,,,,512,0,3,,,,6,71,0
91136,note_off,,,,,128,0,4,,,,12,71,0
91136,note_off,,,,,512,0,5,,,,3,55,0
91136,note_off,,,,,512,0,2,,,,2,74,0
91136,note_on,,,,,0,0,5,,,,3,55,49
91136,note_on,,,,,0,0,6,,,,1,67,49
91136,note_off,,,,,0,0,6,,,,1,74,0
91136,note_off,,,,,512,0,6,,,,1,71,0
91136,note_on,,,,,0,0,2,,,,2,71,49
91392,note_on,,,,,0,0,4,,,,12,74,114
91392,note_off,,,,,256,0,4,,,,12,79,0
91648,note_on,,,,,0,0,2,,,,2,71,49
91648,note_off,,,,,512,0,6,,,,1,67,0
91648,note_on,,,,,0,0,6,,,,1,55,49
91648,note_off,,,,,256,0,4,,,,12,74,0
91648,note_off,,,,,0,0,6,,,,1,71,0
91648,note_on,,,,,0,0,6,,,,1,67,49
91648,note_on,,,,,0,0,3,,,,6,67,49
91648,note_off,,,,,512,0,5,,,,3,55,0
91648,note_on,,,,,0,0,5,,,,3,55,49
91648,note_on,,,,,0,0,6,,,,1,71,49
91648,note_off,,,,,0,0,6,,,,1,55,0
91648,note_off,,,,,512,0,2,,,,2,71,0
91648,note_on,,,,,0,0,4,,,,12,72,114
91648,note_off,,,,,512,0,3,,,,6,67,0
91904,note_on,,,,,0,0,4,,,,12,71,114
91904,note_off,,,,,256,0,4,,,,12,72,0
92160,note_on,,,,,0,0,3,,,,6,64,49
92160,note_off,,,,,0,0,6,,,,1,55,0
92160,note_on,,,,,0,0,6,,,,1,64,49
92160,note_on,,,,,0,0,6,,,,1,67,49
92160,note_on,,,,,0,0,6,,,,1,60,49
92160,note_on,,,,,0,0,5,,,,3,60,49
92160,note_off,,,,,512,0,5,,,,3,55,0
92160,note_off,,,,,512,0,3,,,,6,67,0
92160,note_off,,,,,512,0,6,,,,1,67,0
92160,note_off,,,,,0,0,6,,,,1,71,0
92160,note_off,,,,,256,0,4,,,,12,71,0
92160,note_on,,,,,0,0,4,,,,12,76,114
92160,note_off,,,,,512,0,2,,,,2,71,0
92160,note_on,,,,,0,0,2,,,,2,67,49
92416,note_off,,,,,256,0,4,,,,12,76,0
92416,note_on,,,,,0,0,4,,,,12,72,114
92672,note_off,,,,,512,0,5,,,,3,60,0
92672,note_on,,,,,0,0,4,,,,12,74,114
92672,note_off,,,,,256,0,4,,,,12,72,0
92672,note_on,,,,,0,0,5,,,,3,60,49
92672,note_off,,,,,0,0,6,,,,1,67,0
92672,note_on,,,,,0,0,2,,,,2,67,49
92672,note_off,,,,,512,0,2,,,,2,67,0
92672,note_on,,,,,0,0,3,,,,6,64,49
92672,note_off,,,,,512,0,3,,,,6,64,0
92672,note_off,,,,,512,0,6,,,,1,64,0
92672,note_off,,,,,0,0,6,,,,1,60,0
92672,note_on,,,,,0,0,6,,,,1,67,49
92672,note_on,,,,,0,0,6,,,,1,64,49
92672,note_on,,,,,0,0,6,,,,1,60,49
92757,note_on,,,,,0,0,4,,,,12,72,114
92757,note_off,,,,,85,0,4,,,,12,74,0
92843,note_off,,,,,86,0,4,,,,12,72,0
92843,note_on,,,,,0,0,4,,,,12,74,114
92928,note_off,,,,,85,0,4,,,,12,74,0
92928,note_on,,,,,0,0,4,,,,12,72,114
93013,note_off,,,,,85,0,4,,,,12,72,0
93013,note_on,,,,,0,0,4,,,,12,74,114
93099,note_off,,,,,86,0,4,,,,12,74,0
93099,note_on,,,,,0,0,4,,,,12,72,114
93184,note_on,,,,,0,0,2,,,,2,67,49
93184,note_on,,,,,0,0,6,,,,1,67,49
93184,note_off,,,,,512,0,2,,,,2,67,0
93184,note_off,,,,,0,0,6,,,,1,60,0
93184,note_on,,,,,0,0,6,,,,1,60,49
93184,note_on,,,,,0,0,3,,,,6,64,49
93184,note_off,,,,,512,0,3,,,,6,64,0
93184,note_off,,,,,0,0,6,,,,1,67,0
93184,note_on,,,,,0,0,6,,,,1,64,49
93184,note_off,,,,,512,0,6,,,,1,64,0
93184,note_off,,,,,85,0,4,,,,12,72,0
93184,note_on,,,,,0,0,4,,,,12,79,114
93184,note_on,,,,,0,0,5,,,,3,60,49
93184,note_off,,,,,512,0,5,,,,3,60,0
93440,note_off,,,,,256,0,4,,,,12,79,0
93440,note_on,,,,,0,0,4,,,,12,72,114
93696,note_off,,,,,0,0,6,,,,1,67,0
93696,note_off,,,,,512,0,3,,,,6,64,0
93696,note_on,,,,,0,0,3,,,,6,64,49
93696,note_on,,,,,0,0,5,,,,3,60,49
93696,note_off,,,,,512,0,5,,,,3,60,0
93696,note_on,,,,,0,0,6,,,,1,64,49
93696,note_on,,,,,0,0,6,,,,1,60,49
93696,note_on,,,,,0,0,6,,,,1,67,49
93696,note_off,,,,,0,0,6,,,,1,60,0
93696,note_on,,,,,0,0,2,,,,2,67,49
93696,note_off,,,,,512,0,2,,,,2,67,0
93696,note_off,,,,,256,0,4,,,,12,72,0
93696,note_on,,,,,0,0,4,,,,12,74,114
93696,note_off,,,,,512,0,6,,,,1,64,0
93781,note_off,,,,,85,0,4,,,,12,74,0
93781,note_on,,,,,0,0,4,,,,12,72,114
93867,note_on,,,,,0,0,4,,,,12,74,114
93867,note_off,,,,,86,0,4,,,,12,72,0
93952,note_on,,,,,0,0,4,,,,12,72,114
93952,note_off,,,,,85,0,4,,,,12,74,0
94037,note_on,,,,,0,0,4,,,,12,74,114
94037,note_off,,,,,85,0,4,,,,12,72,0
94123,note_on,,,,,0,0,4,,,,12,72,114
94123,note_off,,,,,86,0,4,,,,12,74,0
94208,note_off,,,,,512,0,6,,,,1,64,0
94208,note_on,,,,,0,0,4,,,,12,79,114
94208,note_off,,,,,0,0,6,,,,1,60,0
94208,note_on,,,,,0,0,6,,,,1,60,49
94208,note_on,,,,,0,0,2,,,,2,67,49
94208,note_off,,,,,512,0,2,,,,2,67,0
94208,note_on,,,,,0,0,3,,,,6,64,49
94208,note_on,,,,,0,0,6,,,,1,64,49
94208,note_off,,,,,0,0,6,,,,1,67,0
94208,note_on,,,,,0,0,6,,,,1,67,49
94208,note_off,,,,,512,0,5,,,,3,60,0
94208,note_on,,,,,0,0,5,,,,3,60,49
94208,note_off,,,,,512,0,3,,,,6,64,0
94208,note_off,,,,,85,0,4,,,,12,72,0
94464,note_off,,,,,256,0,4,,,,12,79,0
94464,note_on,,,,,0,0,4,,,,12,70,114
94720,note_on,,,,,0,0,5,,,,3,60,49
94720,note_off,,,,,512,0,6,,,,1,64,0
94720,note_on,,,,,0,0,6,,,,1,60,49
94720,note_off,,,,,0,0,6,,,,1,67,0
94720,note_on,,,,,0,0,2,,,,2,67,49
94720,note_off,,,,,512,0,2,,,,2,67,0
94720,note_off,,,,,256,0,4,,,,12,70,0
94720,note_on,,,,,0,0,4,,,,12,72,114
94720,note_off,,,,,0,0,6,,,,1,60,0
94720,note_on,,,,,0,0,6,,,,1,67,49
94720,note_off,,,,,512,0,5,,,,3,60,0
94720,note_on,,,,,0,0,6,,,,1,64,49
94720,note_on,,,,,0,0,3,,,,6,64,49
94720,note_off,,,,,512,0,3,,,,6,64,0
94805,note_on,,,,,0,0,4,,,,12,70,114
94805,note_off,,,,,85,0,4,,,,12,72,0
94891,note_off,,,,,86,0,4,,,,12,70,0
94891,note_on,,,,,0,0,4,,,,12,72,114
94976,note_on,,,,,0,0,4,,,,12,70,114
94976,note_off,,,,,85,0,4,,,,12,72,0
95061,note_off,,,,,85,0,4,,,,12,70,0
95061,note_on,,,,,0,0,4,,,,12,72,114
95147,note_off,,,,,86,0,4,,,,12,72,0
95147,note_on,,,,,0,0,4,,,,12,70,114
95232,note_off,,,,,512,0,3,,,,6,64,0
95232,note_on,,,,,0,0,3,,,,6,60,49
95232,note_off,,,,,512,0,2,,,,2,67,0
95232,note_on,,,,,0,0,2,,,,2,69,49
95232,note_on,,,,,0,0,5,,,,3,53,49
95232,note_off,,,,,0,0,6,,,,1,67,0
95232,note_off,,,,,512,0,6,,,,1,64,0
95232,note_on,,,,,0,0,6,,,,1,60,49
95232,note_on,,,,,0,0,6,,,,1,69,49
95232,note_on,,,,,0,0,4,,,,12,69,114
95232,note_off,,,,,85,0,4,,,,12,70,0
95232,note_on,,,,,0,0,6,,,,1,53,49
95232,note_off,,,,,0,0,6,,,,1,60,0
95232,note_off,,,,,512,0,5,,,,3,60,0
95744,note_on,,,,,0,0,2,,,,2,69,49
95744,note_off,,,,,512,0,2,,,,2,69,0
95744,note_on,,,,,0,0,5,,,,3,53,49
95744,note_off,,,,,512,0,5,,,,3,53,0
95744,note_off,,,,,0,0,6,,,,1,69,0
95744,note_on,,,,,0,0,6,,,,1,60,49
95744,note_off,,,,,512,0,3,,,,6,60,0
95744,note_on,,,,,0,0,3,,,,6,60,49
95744,note_on,,,,,0,0,6,,,,1,53,49
95744,note_off,,,,,0,0,6,,,,1,53,0
95744,note_off,,,,,512,0,6,,,,1,60,0
95744,note_on,,,,,0,0,6,,,,1,69,49
96256,note_off,,,,,0,0,6,,,,1,53,0
96256,note_off,,,,,512,0,5,,,,3,53,0
96256,note_on,,,,,0,0,6,,,,1,69,49
96256,note_on,,,,,0,0,6,,,,1,60,49
96256,note_off,,,,,0,0,6,,,,1,69,0
96256,note_off,,,,,512,0,6,,,,1,60,0
96256,note_on,,,,,0,0,5,,,,3,53,49
96256,note_on,,,,,0,0,6,,,,1,53,49
96256,note_off,,,,,512,0,3,,,,6,60,0
96256,note_on,,,,,0,0,2,,,,2,69,49
96256,note_off,,,,,512,0,2,,,,2,69,0
96256,note_on,,,,,0,0,3,,,,6,60,49
96427,note_off,,,,,1195,0,4,,,,12,69,0
96427,note_on,,,,,0,0,4,,,,12,69,114
96597,note_on,,,,,0,0,4,,,,12,71,114
96597,note_off,,,,,170,0,4,,,,12,69,0
96768,note_off,,,,,512,0,5,,,,3,53,0
96768,note_off,,,,,0,0,6,,,,1,69,0
96768,note_off,,,,,512,0,6,,,,1,60,0
96768,note_off,,,,,0,0,6,,,,1,53,0
96768,note_on,,,,,0,0,6,,,,1,53,49
96768,note_on,,,,,0,0,4,,,,12,72,114
96768,note_off,,,,,171,0,4,,,,12,71,0
96768,note_on,,,,,0,0,6,,,,1,60,49
96768,note_on,,,,,0,0,6,,,,1,69,49
96768,note_on,,,,,0,0,3,,,,6,60,49
96768,note_off,,,,,512,0,3,,,,6,60,0
96768,note_off,,,,,512,0,2,,,,2,69,0
96768,note_on,,,,,0,0,5,,,,3,53,49
96768,note_on,,,,,0,0,2,,,,2,69,49
96939,note_off,,,,,171,0,4,,,,12,72,0
96939,note_on,,,,,0,0,4,,,,12,74,114
97109,note_off,,,,,170,0,4,,,,12,74,0
97109,note_on,,,,,0,0,4,,,,12,76,114
97280,note_on,,,,,0,0,6,,,,1,53,49
97280,note_off,,,,,0,0,6,,,,1,53,0
97280,note_on,,,,,0,0,6,,,,1,69,49
97280,note_off,,,,,512,0,5,,,,3,53,0
97280,note_off,,,,,171,0,4,,,,12,76,0
97280,note_on,,,,,0,0,6,,,,1,60,49
97280,note_on,,,,,0,0,5,,,,3,53,49
97280,note_off,,,,,512,0,6,,,,1,60,0
97280,note_on,,,,,0,0,2,,,,2,69,49
97280,note_off,,,,,0,0,6,,,,1,69,0
97280,note_off,,,,,512,0,2,,,,2,69,0
97280,note_off,,,,,512,0,3,,,,6,60,0
97280,note_on,,,,,0,0,3,,,,6,60,49
97280,note_on,,,,,0,0,4,,,,12,77,114
97451,note_off,,,,,171,0,4,,,,12,77,0
97451,note_on,,,,,0,0,4,,,,12,79,114
97621,note_off,,,,,170,0,4,,,,12,79,0
97621,note_on,,,,,0,0,4,,,,12,81,114
97792,note_on,,,,,0,0,6,,,,1,53,49
97792,note_off,,,,,0,0,6,,,,1,53,0
97792,note_on,,,,,0,0,6,,,,1,69,49
97792,note_on,,,,,0,0,6,,,,1,60,49
97792,note_off,,,,,0,0,6,,,,1,69,0
97792,note_off,,,,,512,0,6,,,,1,60,0
97792,note_on,,,,,0,0,5,,,,3,53,49
97792,note_off,,,,,512,0,5,,,,3,53,0
97792,note_on,,,,,0,0,2,,,,2,69,49
97792,note_on,,,,,0,0,3,,,,6,65,49
97792,note_off,,,,,512,0,2,,,,2,69,0
97792,note_off,,,,,171,0,4,,,,12,81,0
97792,note_on,,,,,0,0,4,,,,12,81,114
97792,note_off,,,,,512,0,3,,,,6,60,0
98304,note_on,,,,,0,0,6,,,,1,55,49
98304,note_on,,,,,0,0,6,,,,1,71,49
98304,note_on,,,,,0,0,6,,,,1,62,49
98304,note_off,,,,,0,0,6,,,,1,53,0
98304,note_off,,,,,0,0,6,,,,1,69,0
98304,note_off,,,,,512,0,6,,,,1,60,0
98304,note_off,,,,,512,0,4,,,,12,81,0
98304,note_off,,,,,512,0,2,,,,2,69,0
98304,note_on,,,,,0,0,2,,,,2,71,49
98304,note_on,,,,,0,0,5,,,,3,55,49
98304,note_on,,,,,0,0,3,,,,6,62,49
98304,note_off,,,,,512,0,3,,,,6,65,0
98304,note_on,,,,,0,0,4,,,,12,71,114
98304,note_off,,,,,512,0,5,,,,3,53,0
98475,note_off,,,,,171,0,4,,,,12,71,0
98475,note_on,,,,,0,0,4,,,,12,69,114
98645,note_off,,,,,170,0,4,,,,12,69,0
98645,note_on,,,,,0,0,4,,,,12,67,114
98816,note_on,,,,,0,0,6,,,,1,71,49
98816,note_on,,,,,0,0,4,,,,12,74,114
98816,note_on,,,,,0,0,5,,,,3,55,49
98816,note_off,,,,,512,0,5,,,,3,55,0
98816,note_on,,,,,0,0,6,,,,1,55,49
98816,note_off,,,,,512,0,6,,,,1,62,0
98816,note_off,,,,,0,0,6,,,,1,71,0
98816,note_on,,,,,0,0,6,,,,1,62,49
98816,note_off,,,,,512,0,2,,,,2,71,0
98816,note_off,,,,,512,0,3,,,,6,62,0
98816,note_on,,,,,0,0,3,,,,6,62,49
98816,note_off,,,,,171,0,4,,,,12,67,0
98816,note_on,,,,,0,0,2,,,,2,71,49
98816,note_off,,,,,0,0,6,,,,1,55,0
98987,note_off,,,,,171,0,4,,,,12,74,0
98987,note_on,,,,,0,0,4,,,,12,72,114
99157,note_off,,,,,170,0,4,,,,12,72,0
99157,note_on,,,,,0,0,4,,,,12,71,114
99328,note_off,,,,,0,0,6,,,,1,71,0
99328,note_on,,,,,0,0,5,,,,3,55,49
99328,note_off,,,,,512,0,5,,,,3,55,0
99328,note_on,,,,,0,0,6,,,,1,55,49
99328,note_off,,,,,0,0,6,,,,1,55,0
99328,note_on,,,,,0,0,6,,,,1,71,49
99328,note_on,,,,,0,0,3,,,,6,62,49
99328,note_off,,,,,512,0,3,,,,6,62,0
99328,note_on,,,,,0,0,6,,,,1,62,49
99328,note_off,,,,,512,0,6,,,,1,62,0
99328,note_off,,,,,171,0,4,,,,12,71,0
99328,note_off,,,,,512,0,2,,,,2,71,0
99328,note_on,,,,,0,0,2,,,,2,71,49
99328,note_on,,,,,0,0,4,,,,12,77,114
99499,note_on,,,,,0,0,4,,,,12,76,114
99499,note_off,,,,,171,0,4,,,,12,77,0
99669,note_on,,,,,0,0,4,,,,12,74,114
99669,note_off,,,,,170,0,4,,,,12,76,0
99840,note_on,,,,,0,0,6,,,,1,71,49
99840,note_on,,,,,0,0,5,,,,3,55,49
99840,note_off,,,,,512,0,5,,,,3,55,0
99840,note_on,,,,,0,0,2,,,,2,71,49
99840,note_on,,,,,0,0,6,,,,1,55,49
99840,note_off,,,,,0,0,6,,,,1,55,0
99840,note_off,,,,,512,0,2,,,,2,71,0
99840,note_on,,,,,0,0,6,,,,1,62,49
99840,note_off,,,,,0,0,6,,,,1,71,0
99840,note_on,,,,,0,0,4,,,,12,74,114
99840,note_on,,,,,0,0,3,,,,6,62,49
99840,note_off,,,,,512,0,3,,,,6,62,0
99840,note_off,,,,,171,0,4,,,,12,74,0
99840,note_off,,,,,512,0,6,,,,1,62,0
100011,note_on,,,,,0,0,4,,,,12,72,114
100011,note_off,,,,,171,0,4,,,,12,74,0
100181,note_on,,,,,0,0,4,,,,12,71,114
100181,note_off,,,,,170,0,4,,,,12,72,0
100352,note_off,,,,,512,0,3,,,,6,62,0
100352,note_off,,,,,0,0,6,,,,1,55,0
100352,note_off,,,,,512,0,2,,,,2,71,0
100352,note_on,,,,,0,0,2,,,,2,71,49
100352,note_on,,,,,0,0,3,,,,6,62,49
100352,note_on,,,,,0,0,6,,,,1,55,49
100352,note_on,,,,,0,0,5,,,,3,55,49
100352,note_off,,,,,512,0,5,,,,3,55,0
100352,note_off,,,,,171,0,4,,,,12,71,0
100352,note_off,,,,,0,0,6,,,,1,71,0
100352,note_on,,,,,0,0,6,,,,1,62,49
100352,note_on,,,,,0,0,6,,,,1,71,49
100352,note_on,,,,,0,0,4,,,,12,71,114
100352,note_off,,,,,512,0,6,,,,1,62,0
100523,note_on,,,,,0,0,4,,,,12,69,114
100523,note_off,,,,,171,0,4,,,,12,71,0
100693,note_on,,,,,0,0,4,,,,12,67,114
100693,note_off,,,,,170,0,4,,,,12,69,0
100864,note_off,,,,,171,0,4,,,,12,67,0
100864,note_on,,,,,0,0,5,,,,3,55,49
100864,note_on,,,,,0,0,3,,,,6,62,49
100864,note_off,,,,,512,0,6,,,,1,62,0
100864,note_off,,,,,0,0,6,,,,1,71,0
100864,note_on,,,,,0,0,6,,,,1,62,49
100864,note_on,,,,,0,0,6,,,,1,71,49
100864,note_off,,,,,0,0,6,,,,1,55,0
100864,note_on,,,,,0,0,6,,,,1,55,49
100864,note_off,,,,,512,0,3,,,,6,62,0
100864,note_on,,,,,0,0,4,,,,12,77,114
100864,note_off,,,,,512,0,5,,,,3,55,0
100864,note_off,,,,,512,0,2,,,,2,71,0
100864,note_on,,,,,0,0,2,,,,2,71,49
101035,note_on,,,,,0,0,4,,,,12,76,114
101035,note_off,,,,,171,0,4,,,,12,77,0
101205,note_on,,,,,0,0,4,,,,12,74,114
101205,note_off,,,,,170,0,4,,,,12,76,0
101376,note_on,,,,,0,0,4,,,,12,76,114
101376,note_off,,,,,512,0,5,,,,3,55,0
101376,note_off,,,,,512,0,6,,,,1,62,0
101376,note_off,,,,,0,0,6,,,,1,71,0
101376,note_off,,,,,0,0,6,,,,1,55,0
101376,note_on,,,,,0,0,3,,,,6,64,49
101376,note_off,,,,,512,0,3,,,,6,62,0
101376,note_on,,,,,0,0,6,,,,1,60,49
101376,note_on,,,,,0,0,6,,,,1,67,49
101376,note_on,,,,,0,0,5,,,,3,60,49
101376,note_on,,,,,0,0,2,,,,2,67,49
101376,note_off,,,,,512,0,2,,,,2,71,0
101376,note_off,,,,,171,0,4,,,,12,74,0
101376,note_on,,,,,0,0,6,,,,1,64,49
101888,note_off,,,,,512,0,6,,,,1,64,0
101888,note_on,,,,,0,0,6,,,,1,67,49
101888,note_off,,,,,512,0,5,,,,3,60,0
101888,note_on,,,,,0,0,3,,,,6,64,49
101888,note_off,,,,,0,0,6,,,,1,60,0
101888,note_off,,,,,512,0,4,,,,12,76,0
101888,note_on,,,,,0,0,6,,,,1,60,49
101888,note_off,,,,,0,0,6,,,,1,67,0
101888,note_off,,,,,512,0,3,,,,6,64,0
101888,note_on,,,,,0,0,2,,,,2,67,49
101888,note_off,,,,,512,0,2,,,,2,67,0
101888,note_on,,,,,0,0,4,,,,12,74,114
101888,note_on,,,,,0,0,5,,,,3,60,49
101888,note_on,,,,,0,0,6,,,,1,64,49
102400,note_off,,,,,0,0,6,,,,1,67,0
102400,note_on,,,,,0,0,6,,,,1,64,49
102400,note_on,,,,,0,0,5,,,,3,60,49
102400,note_off,,,,,512,0,5,,,,3,60,0
102400,note_on,,,,,0,0,2,,,,2,67,49
102400,note_on,,,,,0,0,3,,,,6,64,49
102400,note_off,,,,,512,0,3,,,,6,64,0
102400,note_off,,,,,512,0,2,,,,2,67,0
102400,note_on,,,,,0,0,6,,,,1,67,49
102400,note_off,,,,,0,0,6,,,,1,60,0
102400,note_off,,,,,512,0,6,,,,1,64,0
102400,note_on,,,,,0,0,6,,,,1,60,49
102400,note_on,,,,,0,0,4,,,,12,72,114
102400,note_off,,,,,512,0,4,,,,12,74,0
102912,note_on,,,,,0,0,3,,,,6,64,49
102912,note_off,,,,,512,0,3,,,,6,64,0
102912,note_on,,,,,0,0,2,,,,2,67,49
102912,note_off,,,,,512,0,2,,,,2,67,0
102912,note_on,,,,,0,0,5,,,,3,60,49
102912,note_off,,,,,512,0,6,,,,1,64,0
102912,note_on,,,,,0,0,6,,,,1,60,49
102912,note_off,,,,,0,0,6,,,,1,60,0
102912,note_on,,,,,0,0,6,,,,1,67,49
102912,note_on,,,,,0,0,6,,,,1,64,49
102912,note_off,,,,,0,0,6,,,,1,67,0
102912,note_off,,,,,512,0,5,,,,3,60,0
103424,note_off,,,,,512,0,2,,,,2,67,0
103424,note_on,,,,,0,0,2,,,,2,67,49
103424,note_off,,,,,512,0,3,,,,6,64,0
103424,note_on,,,,,0,0,3,,,,6,64,49
103424,note_off,,,,,512,0,5,,,,3,60,0
103424,note_on,,,,,0,0,5,,,,3,60,49
103424,note_on,,,,,0,0,6,,,,1,60,49
103424,note_off,,,,,512,0,6,,,,1,64,0
103424,note_off,,,,,0,0,6,,,,1,67,0
103424,note_on,,,,,0,0,6,,,,1,64,49
103424,note_on,,,,,0,0,6,,,,1,67,49
103424,note_off,,,,,0,0,6,,,,1,60,0
103936,note_on,,,,,0,0,3,,,,6,64,49
103936,note_off,,,,,0,0,6,,,,1,67,0
103936,note_off,,,,,512,0,6,,,,1,64,0
103936,note_on,,,,,0,0,6,,,,1,64,49
103936,note_on,,,,,0,0,6,,,,1,67,49
103936,note_off,,,,,0,0,6,,,,1,60,0
103936,note_on,,,,,0,0,2,,,,2,67,49
103936,note_off,,,,,512,0,3,,,,6,64,0
103936,note_off,,,,,512,0,2,,,,2,67,0
103936,note_off,,,,,512,0,5,,,,3,60,0
103936,note_on,,,,,0,0,5,,,,3,60,49
103936,note_on,,,,,0,0,6,,,,1,60,49
104448,note_on,,,,,0,0,5,,,,3,60,49
104448,note_off,,,,,512,0,5,,,,3,60,0
104448,note_on,,,,,0,0,6,,,,1,67,49
104448,note_on,,,,,0,0,2,,,,2,76,49
104448,note_off,,,,,0,0,6,,,,1,60,0
104448,note_on,,,,,0,0,6,,,,1,72,49
104448,note_off,,,,,0,0,6,,,,1,67,0
104448,note_off,,,,,512,0,2,,,,2,67,0
104448,note_off,,,,,512,0,6,,,,1,64,0
104448,note_off,,,,,512,0,3,,,,6,64,0
104448,note_on,,,,,0,0,6,,,,1,76,49
104448,note_on,,,,,0,0,6,,,,1,60,49
104448,note_on,,,,,0,0,3,,,,6,67,49
104576,note_off,,,,,2176,0,4,,,,12,72,0
104576,note_on,,,,,0,0,4,,,,12,74,114
104704,note_on,,,,,0,0,4,,,,12,76,114
104704,note_off,,,,,128,0,4,,,,12,74,0
104832,note_off,,,,,128,0,4,,,,12,76,0
104832,note_on,,,,,0,0,4,,,,12,77,114
104960,note_on,,,,,0,0,2,,,,2,76,49
104960,note_off,,,,,128,0,4,,,,12,77,0
104960,note_on,,,,,0,0,4,,,,12,79,114
104960,note_off,,,,,512,0,2,,,,2,76,0
104960,note_on,,,,,0,0,6,,,,1,60,49
104960,note_on,,,,,0,0,5,,,,3,60,49
104960,note_on,,,,,0,0,3,,,,6,67,49
104960,note_off,,,,,512,0,3,,,,6,67,0
104960,note_off,,,,,512,0,6,,,,1,67,0
104960,note_off,,,,,512,0,5,,,,3,60,0
104960,note_off,,,,,0,0,6,,,,1,76,0
104960,note_on,,,,,0,0,6,,,,1,67,49
104960,note_on,,,,,0,0,6,,,,1,72,49
104960,note_on,,,,,0,0,6,,,,1,76,49
104960,note_off,,,,,0,0,6,,,,1,60,0
104960,note_off,,,,,0,0,6,,,,1,72,0
105216,note_on,,,,,0,0,4,,,,12,72,114
105216,note_off,,,,,256,0,4,,,,12,79,0
105472,note_off,,,,,512,0,6,,,,1,67,0
105472,note_on,,,,,0,0,4,,,,12,76,114
105472,note_off,,,,,256,0,4,,,,12,72,0
105472,note_on,,,,,0,0,5,,,,3,55,49
105472,note_off,,,,,512,0,5,,,,3,60,0
105472,note_on,,,,,0,0,3,,,,6,67,49
105472,note_off,,,,,512,0,3,,,,6,67,0
105472,note_on,,,,,0,0,6,,,,1,55,49
105472,note_off,,,,,0,0,6,,,,1,60,0
105472,note_on,,,,,0,0,2,,,,2,74,49
105472,note_off,,,,,512,0,2,,,,2,76,0
105472,note_on,,,,,0,0,6,,,,1,74,49
105472,note_on,,,,,0,0,6,,,,1,72,49
105472,note_on,,,,,0,0,6,,,,1,67,49
105472,note_off,,,,,0,0,6,,,,1,76,0
105472,note_off,,,,,0,0,6,,,,1,72,0
105557,note_off,,,,,85,0,4,,,,12,76,0
105557,note_on,,,,,0,0,4,,,,12,74,114
105643,note_off,,,,,86,0,4,,,,12,74,0
105643,note_on,,,,,0,0,4,,,,12,76,114
105728,note_off,,,,,85,0,4,,,,12,76,0
105728,note_on,,,,,0,0,4,,,,12,74,114
105813,note_on,,,,,0,0,4,,,,12,76,114
105813,note_off,,,,,85,0,4,,,,12,74,0
105899,note_on,,,,,0,0,4,,,,12,74,114
105899,note_off,,,,,86,0,4,,,,12,76,0
105984,note_on,,,,,0,0,5,,,,3,55,49
105984,note_off,,,,,512,0,5,,,,3,55,0
105984,note_on,,,,,0,0,3,,,,6,67,49
105984,note_off,,,,,512,0,3,,,,6,67,0
105984,note_off,,,,,512,0,6,,,,1,67,0
105984,note_off,,,,,0,0,6,,,,1,72,0
105984,note_off,,,,,85,0,4,,,,12,74,0
105984,note_on,,,,,0,0,4,,,,12,76,114
105984,note_on,,,,,0,0,6,,,,1,72,49
105984,note_on,,,,,0,0,6,,,,1,74,49
105984,note_off,,,,,0,0,6,,,,1,55,0
105984,note_on,,,,,0,0,6,,,,1,55,49
105984,note_off,,,,,512,0,2,,,,2,74,0
105984,note_on,,,,,0,0,2,,,,2,74,49
105984,note_off,,,,,0,0,6,,,,1,74,0
105984,note_on,,,,,0,0,6,,,,1,67,49
106069,note_on,,,,,0,0,4,,,,12,74,114
106069,note_off,,,,,85,0,4,,,,12,76,0
106155,note_off,,,,,86,0,4,,,,12,74,0
106155,note_on,,,,,0,0,4,,,,12,76,114
106240,note_off,,,,,85,0,4,,,,12,76,0
106240,note_on,,,,,0,0,4,,,,12,74,114
106325,note_off,,,,,85,0,4,,,,12,74,0
106325,note_on,,,,,0,0,4,,,,12,76,114
106411,note_off,,,,,86,0,4,,,,12,76,0
106411,note_on,,,,,0,0,4,,,,12,74,114
106496,note_off,,,,,512,0,6,,,,1,67,0
106496,note_off,,,,,0,0,6,,,,1,72,0
106496,note_off,,,,,0,0,6,,,,1,74,0
106496,note_on,,,,,0,0,6,,,,1,55,49
106496,note_on,,,,,0,0,6,,,,1,74,49
106496,note_off,,,,,0,0,6,,,,1,55,0
106496,note_on,,,,,0,0,6,,,,1,67,49
106496,note_on,,,,,0,0,6,,,,1,71,49
106496,note_on,,,,,0,0,2,,,,2,74,49
106496,note_off,,,,,512,0,2,,,,2,74,0
106496,note_off,,,,,85,0,4,,,,12,74,0
106496,note_on,,,,,0,0,4,,,,12,76,114
106496,note_on,,,,,0,0,3,,,,6,67,49
106496,note_off,,,,,512,0,3,,,,6,67,0
106496,note_off,,,,,512,0,5,,,,3,55,0
106496,note_on,,,,,0,0,5,,,,3,55,49
106581,note_on,,,,,0,0,4,,,,12,74,114
106581,note_off,,,,,85,0,4,,,,12,76,0
106667,note_off,,,,,86,0,4,,,,12,74,0
106667,note_on,,,,,0,0,4,,,,12,76,114
106752,note_off,,,,,85,0,4,,,,12,76,0
106752,note_on,,,,,0,0,4,,,,12,74,114
106837,note_off,,,,,85,0,4,,,,12,74,0
106837,note_on,,,,,0,0,4,,,,12,76,114
106923,note_off,,,,,86,0,4,,,,12,76,0
106923,note_on,,,,,0,0,4,,,,12,74,114
107008,note_off,,,,,512,0,6,,,,1,67,0
107008,note_off,,,,,512,0,2,,,,2,74,0
107008,note_on,,,,,0,0,2,,,,2,74,49
107008,note_on,,,,,0,0,6,,,,1,67,49
107008,note_on,,,,,0,0,3,,,,6,67,49
107008,note_on,,,,,0,0,6,,,,1,71,49
107008,note_on,,,,,0,0,6,,,,1,74,49
107008,note_off,,,,,0,0,6,,,,1,71,0
107008,note_off,,,,,0,0,6,,,,1,74,0
107008,note_on,,,,,0,0,4,,,,12,72,114
107008,note_off,,,,,512,0,3,,,,6,67,0
107008,note_on,,,,,0,0,6,,,,1,55,49
107008,note_off,,,,,0,0,6,,,,1,55,0
107008,note_off,,,,,512,0,5,,,,3,55,0
107008,note_on,,,,,0,0,5,,,,3,55,49
107008,note_off,,,,,85,0,4,,,,12,74,0
107520,note_on,,,,,0,0,6,,,,1,48,101
107520,note_on,,,,,0,0,6,,,,1,60,101
107520,note_off,,,,,512,0,2,,,,2,74,0
107520,note_on,,,,,0,0,6,,,,1,67,101
107520,note_on,,,,,0,0,6,,,,1,64,101
107520,note_off,,,,,0,0,6,,,,1,55,0
107520,note_off,,,,,0,0,6,,,,1,74,0
107520,note_off,,,,,0,0,6,,,,1,71,0
107520,note_off,,,,,512,0,6,,,,1,67,0
107520,note_on,,,,,0,0,6,,,,1,72,101
107520,note_off,,,,,512,0,3,,,,6,67,0
107520,note_on,,,,,0,0,5,,,,3,48,101
107520,note_on,,,,,0,0,4,,,,12,72,127
107520,note_off,,,,,512,0,4,,,,12,72,0
107520,note_on,,,,,0,0,3,,,,6,67,88
107520,note_off,,,,,512,0,5,,,,3,55,0
107520,note_on,,,,,0,0,2,,,,2,72,88
108032,note_off,,,,,512,0,3,,,,6,67,0
108032,note_on,,,,,0,0,4,,,,12,67,127
108032,note_off,,,,,512,0,4,,,,12,72,0
108032,note_on,,,,,0,0,2,,,,2,67,88
108032,note_off,,,,,512,0,2,,,,2,72,0
108032,note_off,,,,,512,0,6,,,,1,64,0
108032,note_off,,,,,0,0,6,,,,1,67,0
108032,note_off,,,,,0,0,6,,,,1,72,0
108032,note_on,,,,,0,0,6,,,,1,64,101
108032,note_on,,,,,0,0,6,,,,1,67,101
108032,note_on,,,,,0,0,3,,,,6,64,88
108544,note_off,,,,,512,0,2,,,,2,67,0
108544,note_on,,,,,0,0,2,,,,2,67,88
108544,note_off,,,,,512,0,4,,,,12,67,0
108544,note_on,,,,,0,0,4,,,,12,67,127
108544,note_on,,,,,0,0,3,,,,6,64,88
108544,note_off,,,,,512,0,3,,,,6,64,0
108544,note_on,,,,,0,0,5,,,,3,48,101
108544,note_on,,,,,0,0,6,,,,1,48,101
108544,note_off,,,,,0,0,6,,,,1,60,0
108544,note_off,,,,,0,0,6,,,,1,48,0
108544,note_on,,,,,0,0,6,,,,1,67,101
108544,note_on,,,,,0,0,6,,,,1,64,101
108544,note_off,,,,,0,0,6,,,,1,67,0
108544,note_off,,,,,512,0,6,,,,1,64,0
108544,note_on,,,,,0,0,6,,,,1,60,101
108544,note_off,,,,,1024,0,5,,,,3,48,0
109056,note_on,,,,,0,0,3,,,,6,65,88
109056,note_on,,,,,0,0,6,,,,1,65,101
109056,note_on,,,,,0,0,6,,,,1,67,101
109056,note_off,,,,,0,0,6,,,,1,48,0
109056,note_off,,,,,0,0,6,,,,1,60,0
109056,note_on,,,,,0,0,6,,,,1,50,101
109056,note_off,,,,,0,0,6,,,,1,67,0
109056,note_off,,,,,512,0,6,,,,1,64,0
109056,note_on,,,,,0,0,6,,,,1,72,101
109056,note_off,,,,,512,0,2,,,,2,67,0
109056,note_on,,,,,0,0,2,,,,2,72,88
109056,note_on,,,,,0,0,4,,,,12,72,127
109056,note_off,,,,,512,0,4,,,,12,67,0
109056,note_on,,,,,0,0,5,,,,3,50,101
109056,note_off,,,,,512,0,5,,,,3,48,0
109056,note_off,,,,,512,0,3,,,,6,64,0
109568,note_on,,,,,0,0,6,,,,1,67,101
109568,note_off,,,,,0,0,6,,,,1,50,0
109568,note_on,,,,,0,0,6,,,,1,72,101
109568,note_on,,,,,0,0,6,,,,1,52,101
109568,note_off,,,,,512,0,4,,,,12,72,0
109568,note_off,,,,,0,0,6,,,,1,72,0
109568,note_on,,,,,0,0,3,,,,6,67,88
109568,note_off,,,,,512,0,6,,,,1,65,0
109568,note_on,,,,,0,0,4,,,,12,72,127
109568,note_off,,,,,512,0,3,,,,6,65,0
109568,note_on,,,,,0,0,5,,,,3,52,101
109568,note_off,,,,,512,0,2,,,,2,72,0
109568,note_on,,,,,0,0,2,,,,2,72,88
109568,note_off,,,,,512,0,5,,,,3,50,0
109568,note_off,,,,,0,0,6,,,,1,67,0
110080,note_on,,,,,0,0,6,,,,1,60,101
110080,note_on,,,,,0,0,6,,,,1,48,101
110080,note_off,,,,,512,0,4,,,,12,72,0
110080,note_on,,,,,0,0,6,,,,1,76,101
110080,note_on,,,,,0,0,6,,,,1,72,101
110080,note_on,,,,,0,0,6,,,,1,67,101
110080,note_off,,,,,0,0,6,,,,1,72,0
110080,note_off,,,,,512,0,6,,,,1,67,0
110080,note_off,,,,,512,0,2,,,,2,72,0
110080,note_off,,,,,0,0,6,,,,1,52,0
110080,note_on,,,,,0,0,4,,,,12,76,127
110080,note_on,,,,,0,0,2,,,,2,76,88
110080,note_off,,,,,512,0,3,,,,6,67,0
110080,note_off,,,,,512,0,5,,,,3,52,0
110080,note_on,,,,,0,0,5,,,,3,48,101
110080,note_on,,,,,0,0,3,,,,6,67,88
110592,note_off,,,,,512,0,3,,,,6,67,0
110592,note_off,,,,,512,0,5,,,,3,48,0
110592,note_off,,,,,512,0,4,,,,12,76,0
110592,note_on,,,,,0,0,5,,,,3,55,101
110592,note_off,,,,,512,0,2,,,,2,76,0
110592,note_off,,,,,0,0,6,,,,1,76,0
110592,note_off,,,,,0,0,6,,,,1,48,0
110592,note_off,,,,,0,0,6,,,,1,60,0
110592,note_on,,,,,0,0,6,,,,1,55,101
110592,note_on,,,,,0,0,6,,,,1,59,101
110592,note_on,,,,,0,0,6,,,,1,62,101
110592,note_off,,,,,0,0,6,,,,1,72,0
110592,note_off,,,,,512,0,6,,,,1,67,0
111104,note_on,,,,,0,0,6,,,,1,74,101
111104,note_on,,,,,512,0,2,,,,2,74,88
111104,note_on,,,,,512,0,4,,,,12,74,127
111104,note_on,,,,,512,0,3,,,,6,71,88
111104,note_on,,,,,512,0,6,,,,1,71,101
111616,note_off,,,,,1024,0,5,,,,3,55,0
111616,note_on,,,,,0,0,6,,,,1,71,101
111616,note_on,,,,,0,0,6,,,,1,43,101
111616,note_off,,,,,0,0,6,,,,1,62,0
111616,note_off,,,,,0,0,6,,,,1,59,0
111616,note_off,,,,,0,0,6,,,,1,55,0
111616,note_on,,,,,0,0,6,,,,1,74,101
111616,note_off,,,,,512,0,3,,,,6,71,0
111616,note_on,,,,,0,0,6,,,,1,62,101
111616,note_off,,,,,0,0,6,,,,1,74,0
111616,note_on,,,,,0,0,2,,,,2,74,88
111616,note_off,,,,,512,0,6,,,,1,71,0
111616,note_on,,,,,0,0,6,,,,1,55,101
111616,note_on,,,,,0,0,3,,,,6,62,88
111616,note_off,,,,,512,0,2,,,,2,74,0
111616,note_on,,,,,0,0,5,,,,3,43,101
111616,note_on,,,,,0,0,4,,,,12,74,127
111616,note_off,,,,,512,0,4,,,,12,74,0
112128,note_on,,,,,0,0,4,,,,12,71,127
112128,note_off,,,,,512,0,4,,,,12,74,0
112128,note_off,,,,,512,0,2,,,,2,74,0
112128,note_on,,,,,0,0,2,,,,2,71,88
112128,note_off,,,,,512,0,6,,,,1,62,0
112128,note_off,,,,,0,0,6,,,,1,71,0
112128,note_off,,,,,512,0,3,,,,6,62,0
112128,note_on,,,,,0,0,6,,,,1,60,101
112128,note_on,,,,,0,0,6,,,,1,67,101
112128,note_on,,,,,0,0,6,,,,1,71,101
112128,note_off,,,,,0,0,6,,,,1,43,0
112128,note_off,,,,,0,0,6,,,,1,55,0
112128,note_on,,,,,0,0,6,,,,1,45,101
112128,note_on,,,,,0,0,3,,,,6,60,88
112128,note_off,,,,,0,0,6,,,,1,74,0
112128,note_on,,,,,0,0,5,,,,3,45,101
112128,note_off,,,,,512,0,5,,,,3,43,0
112640,note_on,,,,,0,0,2,,,,2,71,88
112640,note_on,,,,,0,0,5,,,,3,47,101
112640,note_off,,,,,512,0,2,,,,2,71,0
112640,note_off,,,,,0,0,6,,,,1,45,0
112640,note_on,,,,,0,0,3,,,,6,62,88
112640,note_on,,,,,0,0,6,,,,1,55,101
112640,note_on,,,,,0,0,6,,,,1,47,101
112640,note_off,,,,,512,0,3,,,,6,60,0
112640,note_off,,,,,512,0,4,,,,12,71,0
112640,note_on,,,,,0,0,4,,,,12,71,127
112640,note_off,,,,,512,0,5,,,,3,45,0
112640,note_off,,,,,512,0,6,,,,1,60,0
112640,note_off,,,,,0,0,6,,,,1,67,0
112640,note_off,,,,,0,0,6,,,,1,71,0
112640,note_on,,,,,0,0,6,,,,1,62,101
112640,note_on,,,,,0,0,6,,,,1,67,101
112640,note_on,,,,,0,0,6,,,,1,71,101
113152,note_off,,,,,512,0,4,,,,12,71,0
113152,note_off,,,,,512,0,3,,,,6,62,0
113152,note_on,,,,,0,0,3,,,,6,67,88
113152,note_on,,,,,0,0,4,,,,12,77,127
113152,note_off,,,,,512,0,2,,,,2,71,0
113152,note_on,,,,,0,0,2,,,,2,77,88
113152,note_off,,,,,512,0,5,,,,3,47,0
113152,note_off,,,,,0,0,6,,,,1,47,0
113152,note_on,,,,,0,0,5,,,,3,43,101
113152,note_on,,,,,0,0,6,,,,1,74,101
113152,note_on,,,,,0,0,6,,,,1,43,101
113152,note_off,,,,,0,0,6,,,,1,55,0
113152,note_on,,,,,0,0,6,,,,1,67,101
113152,note_off,,,,,0,0,6,,,,1,71,0
113152,note_off,,,,,0,0,6,,,,1,67,0
113152,note_off,,,,,512,0,6,,,,1,62,0
113152,note_on,,,,,0,0,6,,,,1,77,101
113664,note_off,,,,,0,0,6,,,,1,43,0
113664,note_on,,,,,0,0,6,,,,1,60,101
113664,note_on,,,,,0,0,6,,,,1,48,101
113664,note_on,,,,,0,0,6,,,,1,76,101
113664,note_on,,,,,0,0,6,,,,1,72,101
113664,note_off,,,,,512,0,6,,,,1,67,0
113664,note_off,,,,,0,0,6,,,,1,77,0
113664,note_on,,,,,0,0,6,,,,1,67,101
113664,note_off,,,,,0,0,6,,,,1,74,0
113664,note_off,,,,,512,0,4,,,,12,77,0
113664,note_off,,,,,512,0,2,,,,2,77,0
113664,note_off,,,,,512,0,3,,,,6,67,0
113664,note_on,,,,,0,0,3,,,,6,72,88
113664,note_on,,,,,0,0,4,,,,12,76,127
113664,note_off,,,,,512,0,5,,,,3,43,0
113664,note_on,,,,,0,0,5,,,,3,48,101
113664,note_on,,,,,0,0,2,,,,2,76,88
114176,note_off,,,,,512,0,6,,,,1,48,0
114176,note_on,,,,,0,0,6,,,,1,60,101
114176,note_off,,,,,0,0,6,,,,1,60,0
114688,note_off,,,,,1024,0,4,,,,12,76,0
114688,note_on,,,,,0,0,4,,,,12,77,127
114688,note_on,,,,,0,0,6,,,,1,74,101
114688,note_off,,,,,0,0,6,,,,1,60,0
114688,note_on,,,,,0,0,6,,,,1,41,101
114688,note_off,,,,,512,0,6,,,,1,67,0
114688,note_on,,,,,0,0,6,,,,1,53,101
114688,note_on,,,,,0,0,3,,,,6,74,88
114688,note_off,,,,,1024,0,3,,,,6,72,0
114688,note_off,,,,,0,0,6,,,,1,72,0
114688,note_off,,,,,0,0,6,,,,1,76,0
114688,note_on,,,,,0,0,6,,,,1,77,101
114688,note_on,,,,,0,0,6,,,,1,69,101
114688,note_on,,,,,0,0,5,,,,3,41,101
114688,note_off,,,,,1024,0,2,,,,2,76,0
114688,note_on,,,,,0,0,2,,,,2,77,88
114688,note_off,,,,,1024,0,5,,,,3,48,0
115200,note_on,,,,,0,0,6,,,,1,53,101
115200,note_off,,,,,0,0,6,,,,1,53,0
115200,note_off,,,,,512,0,6,,,,1,41,0
115712,note_off,,,,,1024,0,2,,,,2,77,0
115712,note_on,,,,,0,0,2,,,,2,74,88
115712,note_off,,,,,1024,0,4,,,,12,77,0
115712,note_on,,,,,0,0,4,,,,12,74,127
115712,note_on,,,,,0,0,6,,,,1,55,101
115712,note_on,,,,,0,0,6,,,,1,43,101
115712,note_off,,,,,0,0,6,,,,1,53,0
115712,note_on,,,,,0,0,6,,,,1,74,101
115712,note_on,,,,,0,0,6,,,,1,67,101
115712,note_on,,,,,0,0,3,,,,6,71,88
115712,note_off,,,,,1024,0,3,,,,6,74,0
115712,note_off,,,,,0,0,6,,,,1,77,0
115712,note_on,,,,,0,0,5,,,,3,43,101
115712,note_off,,,,,1024,0,5,,,,3,41,0
115712,note_off,,,,,0,0,6,,,,1,74,0
115712,note_on,,,,,0,0,6,,,,1,71,101
115712,note_off,,,,,512,0,6,,,,1,69,0
116224,note_on,,,,,0,0,5,,,,3,43,101
116224,note_off,,,,,512,0,6,,,,1,43,0
116224,note_off,,,,,0,0,6,,,,1,55,0
116224,note_on,,,,,0,0,6,,,,1,43,101
116224,note_off,,,,,512,0,5,,,,3,43,0
116736,note_on,,,,,0,0,6,,,,1,67,101
116736,note_on,,,,,0,0,4,,,,12,72,127
116736,note_off,,,,,1024,0,2,,,,2,74,0
116736,note_on,,,,,0,0,2,,,,2,72,88
116736,note_on,,,,,0,0,6,,,,1,48,101
116736,note_on,,,,,0,0,5,,,,3,48,101
116736,note_off,,,,,1024,0,4,,,,12,74,0
116736,note_off,,,,,512,0,5,,,,3,43,0
116736,note_on,,,,,0,0,6,,,,1,36,101
116736,note_on,,,,,0,0,5,,,,3,36,101
116736,note_off,,,,,512,0,6,,,,1,67,0
116736,note_off,,,,,1024,0,3,,,,6,71,0
116736,note_on,,,,,0,0,3,,,,6,67,88
116736,note_on,,,,,0,0,6,,,,1,72,101
116736,note_on,,,,,0,0,6,,,,1,64,101
116736,note_off,,,,,0,0,6,,,,1,43,0
116736,note_off,,,,,0,0,6,,,,1,74,0
116736,note_off,,,,,0,0,6,,,,1,71,0
119808,note_off,,,,,3072,0,6,,,,1,64,0
119808,note_off,,,,,0,0,6,,,,1,67,0
119808,note_off,,,,,0,0,6,,,,1,72,0
119808,note_off,,,,,0,0,6,,,,1,36,0
119808,end_of_track,,,,,119808,1,1,,,,,,
119808,note_off,,,,,3072,0,4,,,,12,72,0
119808,end_of_track,,,,,0,1,4,,,,,,
119808,end_of_track,,,,,0,1,3,,,,,,
119808,note_off,,,,,3072,0,3,,,,6,67,0
119808,note_off,,,,,0,0,6,,,,1,48,0
119808,note_off,,,,,3072,0,5,,,,3,36,0
119808,note_off,,,,,0,0,5,,,,3,48,0
119808,end_of_track,,,,,0,1,5,,,,,,
119808,end_of_track,,,,,0,1,2,,,,,,
119808,note_off,,,,,3072,0,2,,,,2,72,0
119808,end_of_track,,,,,119808,1,0,,,,,,
119808,end_of_track,,,,,0,1,6,,,,,,
