tick,type,numerator,denominator,clocks_per_click,notated_32nd_notes_per_beat,time,meta,track,key,tempo,program,channel,note,velocity
0,time_signature,4,4,24,8,0,1,0,,,,,,
0,track_name,,,,,0,1,5,,,,,,
0,program_change,,,,,0,0,5,,,42,3,,
0,program_change,,,,,0,0,3,,,66,6,,
0,track_name,,,,,0,1,3,,,,,,
0,track_name,,,,,0,1,6,,,,,,
0,program_change,,,,,0,0,6,,,6,1,,
0,program_change,,,,,0,0,4,,,68,12,,
0,program_change,,,,,0,0,2,,,71,2,,
0,track_name,,,,,0,1,2,,,,,,
0,program_change,,,,,0,0,1,,,0,0,,
0,track_name,,,,,0,1,1,,,,,,
0,track_name,,,,,0,1,4,,,,,,
0,set_tempo,,,,,0,1,0,,480000,,,,
0,key_signature,,,,,0,1,0,C,,,,,
4096,note_on,,,,,4096,0,3,,,,6,60,101
4096,note_on,,,,,4096,0,6,,,,1,60,114
4096,note_on,,,,,0,0,6,,,,1,69,114
4096,note_on,,,,,0,0,6,,,,1,45,114
4096,note_on,,,,,4096,0,2,,,,2,69,101
4096,note_on,,,,,4096,0,5,,,,3,45,127
4096,note_on,,,,,4096,0,4,,,,12,69,127
4352,note_on,,,,,0,0,6,,,,1,71,114
4352,note_on,,,,,0,0,2,,,,2,71,101
4352,note_off,,,,,256,0,6,,,,1,60,0
4352,note_on,,,,,0,0,4,,,,12,71,127
4352,note_off,,,,,256,0,4,,,,12,69,0
4352,note_off,,,,,0,0,6,,,,1,69,0
4352,note_off,,,,,256,0,2,,,,2,69,0
4608,note_off,,,,,512,0,3,,,,6,60,0
4608,note_on,,,,,0,0,3,,,,6,64,101
4608,note_off,,,,,256,0,2,,,,2,71,0
4608,note_on,,,,,0,0,2,,,,2,72,101
4608,note_off,,,,,256,0,6,,,,1,71,0
4608,note_on,,,,,0,0,6,,,,1,64,114
4608,note_on,,,,,0,0,6,,,,1,72,114
4608,note_off,,,,,0,0,6,,,,1,45,0
4608,note_on,,,,,0,0,6,,,,1,57,114
4608,note_on,,,,,0,0,4,,,,12,72,127
4608,note_off,,,,,256,0,4,,,,12,71,0
4608,note_off,,,,,512,0,5,,,,3,45,0
4608,note_on,,,,,0,0,5,,,,3,57,127
4864,note_off,,,,,256,0,2,,,,2,72,0
4864,note_on,,,,,0,0,2,,,,2,71,101
4864,note_off,,,,,256,0,6,,,,1,64,0
4864,note_on,,,,,0,0,6,,,,1,71,114
4864,note_on,,,,,0,0,4,,,,12,71,127
4864,note_off,,,,,0,0,6,,,,1,72,0
4864,note_off,,,,,256,0,4,,,,12,72,0
5120,note_on,,,,,0,0,6,,,,1,60,114
5120,note_on,,,,,0,0,2,,,,2,69,101
5120,note_off,,,,,256,0,2,,,,2,71,0
5120,note_off,,,,,512,0,5,,,,3,57,0
5120,note_on,,,,,0,0,4,,,,12,69,127
5120,note_off,,,,,256,0,4,,,,12,71,0
5120,note_on,,,,,0,0,5,,,,3,45,127
5120,note_on,,,,,0,0,3,,,,6,60,101
5120,note_off,,,,,512,0,3,,,,6,64,0
5120,note_on,,,,,0,0,6,,,,1,45,114
5120,note_off,,,,,0,0,6,,,,1,57,0
5120,note_on,,,,,0,0,6,,,,1,69,114
5120,note_off,,,,,256,0,6,,,,1,71,0
5632,note_off,,,,,512,0,4,,,,12,69,0
5632,note_off,,,,,512,0,5,,,,3,45,0
5632,note_on,,,,,0,0,6,,,,1,57,114
5632,note_off,,,,,512,0,6,,,,1,45,0
5632,note_on,,,,,0,0,5,,,,3,57,127
6144,note_on,,,,,0,0,6,,,,1,45,114
6144,note_on,,,,,0,0,6,,,,1,72,114
6144,note_off,,,,,0,0,6,,,,1,57,0
6144,note_off,,,,,512,0,6,,,,1,60,0
6144,note_off,,,,,1024,0,2,,,,2,69,0
6144,note_on,,,,,0,0,6,,,,1,69,114
6144,note_off,,,,,512,0,5,,,,3,57,0
6144,note_on,,,,,0,0,5,,,,3,45,127
6144,note_off,,,,,1024,0,3,,,,6,60,0
6144,note_on,,,,,0,0,3,,,,6,69,101
6144,note_on,,,,,512,0,4,,,,12,72,127
6144,note_on,,,,,0,0,2,,,,2,72,101
6144,note_off,,,,,0,0,6,,,,1,69,0
6400,note_off,,,,,256,0,3,,,,6,69,0
6400,note_on,,,,,0,0,3,,,,6,71,101
6400,note_off,,,,,0,0,6,,,,1,72,0
6400,note_off,,,,,256,0,6,,,,1,69,0
6400,note_on,,,,,0,0,6,,,,1,71,114
6400,note_on,,,,,0,0,6,,,,1,74,114
6400,note_on,,,,,0,0,4,,,,12,74,127
6400,note_off,,,,,256,0,4,,,,12,72,0
6400,note_on,,,,,0,0,2,,,,2,74,101
6400,note_off,,,,,256,0,2,,,,2,72,0
6656,note_on,,,,,0,0,5,,,,3,57,127
6656,note_off,,,,,512,0,5,,,,3,45,0
6656,note_on,,,,,0,0,4,,,,12,76,127
6656,note_off,,,,,256,0,4,,,,12,74,0
6656,note_on,,,,,0,0,6,,,,1,57,114
6656,note_off,,,,,0,0,6,,,,1,45,0
6656,note_on,,,,,0,0,6,,,,1,72,114
6656,note_off,,,,,0,0,6,,,,1,74,0
6656,note_on,,,,,0,0,6,,,,1,76,114
6656,note_on,,,,,0,0,2,,,,2,76,101
6656,note_off,,,,,256,0,6,,,,1,71,0
6656,note_off,,,,,256,0,2,,,,2,74,0
6656,note_off,,,,,256,0,3,,,,6,71,0
6656,note_on,,,,,0,0,3,,,,6,72,101
6912,note_off,,,,,0,0,6,,,,1,76,0
6912,note_on,,,,,0,0,6,,,,1,71,114
6912,note_on,,,,,0,0,6,,,,1,74,114
6912,note_on,,,,,0,0,2,,,,2,74,101
6912,note_off,,,,,256,0,2,,,,2,76,0
6912,note_off,,,,,256,0,3,,,,6,72,0
6912,note_off,,,,,256,0,4,,,,12,76,0
6912,note_on,,,,,0,0,3,,,,6,71,101
6912,note_on,,,,,0,0,4,,,,12,74,127
6912,note_off,,,,,256,0,6,,,,1,72,0
7168,note_on,,,,,0,0,6,,,,1,45,114
7168,note_off,,,,,256,0,4,,,,12,74,0
7168,note_on,,,,,0,0,4,,,,12,72,127
7168,note_off,,,,,0,0,6,,,,1,57,0
7168,note_on,,,,,0,0,6,,,,1,72,114
7168,note_on,,,,,0,0,3,,,,6,69,101
7168,note_off,,,,,256,0,3,,,,6,71,0
7168,note_on,,,,,0,0,5,,,,3,45,127
7168,note_off,,,,,512,0,5,,,,3,57,0
7168,note_on,,,,,0,0,6,,,,1,69,114
7168,note_off,,,,,0,0,6,,,,1,74,0
7168,note_off,,,,,256,0,6,,,,1,71,0
7168,note_off,,,,,256,0,2,,,,2,74,0
7168,note_on,,,,,0,0,2,,,,2,72,101
7680,note_on,,,,,0,0,6,,,,1,57,114
7680,note_on,,,,,0,0,5,,,,3,57,127
7680,note_off,,,,,512,0,6,,,,1,45,0
7680,note_off,,,,,512,0,4,,,,12,72,0
7680,note_off,,,,,512,0,5,,,,3,45,0
8192,note_on,,,,,0,0,6,,,,1,72,114
8192,note_on,,,,,0,0,6,,,,1,45,114
8192,note_off,,,,,1024,0,3,,,,6,69,0
8192,note_on,,,,,0,0,3,,,,6,72,101
8192,note_off,,,,,0,0,6,,,,1,57,0
8192,note_on,,,,,0,0,6,,,,1,81,114
8192,note_off,,,,,512,0,6,,,,1,69,0
8192,note_off,,,,,512,0,5,,,,3,57,0
8192,note_on,,,,,0,0,2,,,,2,81,101
8192,note_off,,,,,1024,0,2,,,,2,72,0
8192,note_on,,,,,512,0,4,,,,12,81,127
8192,note_on,,,,,0,0,5,,,,3,45,127
8192,note_off,,,,,0,0,6,,,,1,72,0
8448,note_on,,,,,0,0,6,,,,1,74,114
8448,note_off,,,,,0,0,6,,,,1,81,0
8448,note_off,,,,,256,0,6,,,,1,72,0
8448,note_off,,,,,256,0,3,,,,6,72,0
8448,note_on,,,,,0,0,3,,,,6,74,101
8704,note_on,,,,,0,0,3,,,,6,72,101
8704,note_off,,,,,256,0,3,,,,6,74,0
8704,note_on,,,,,0,0,5,,,,3,57,127
8704,note_on,,,,,0,0,6,,,,1,57,114
8704,note_off,,,,,512,0,2,,,,2,81,0
8704,note_off,,,,,512,0,5,,,,3,45,0
8704,note_off,,,,,512,0,4,,,,12,81,0
8704,note_on,,,,,0,0,4,,,,12,72,127
8704,note_off,,,,,256,0,6,,,,1,74,0
8704,note_on,,,,,0,0,6,,,,1,72,114
8704,note_on,,,,,0,0,6,,,,1,76,114
8704,note_off,,,,,0,0,6,,,,1,45,0
8704,note_on,,,,,0,0,2,,,,2,76,101
8960,note_on,,,,,0,0,6,,,,1,74,114
8960,note_on,,,,,0,0,6,,,,1,71,114
8960,note_off,,,,,0,0,6,,,,1,76,0
8960,note_off,,,,,256,0,2,,,,2,76,0
8960,note_on,,,,,0,0,2,,,,2,74,101
8960,note_off,,,,,256,0,3,,,,6,72,0
8960,note_on,,,,,0,0,3,,,,6,71,101
8960,note_off,,,,,256,0,6,,,,1,72,0
9216,note_off,,,,,256,0,2,,,,2,74,0
9216,note_on,,,,,0,0,2,,,,2,72,101
9216,note_on,,,,,0,0,6,,,,1,45,114
9216,note_off,,,,,0,0,6,,,,1,57,0
9216,note_off,,,,,512,0,5,,,,3,57,0
9216,note_on,,,,,0,0,5,,,,3,45,127
9216,note_off,,,,,256,0,3,,,,6,71,0
9216,note_off,,,,,256,0,6,,,,1,71,0
9216,note_on,,,,,0,0,6,,,,1,72,114
9216,note_on,,,,,0,0,6,,,,1,69,114
9216,note_off,,,,,0,0,6,,,,1,74,0
9216,note_on,,,,,0,0,4,,,,12,69,127
9216,note_off,,,,,512,0,4,,,,12,72,0
9216,note_on,,,,,0,0,3,,,,6,69,101
9728,note_on,,,,,0,0,2,,,,2,81,101
9728,note_off,,,,,512,0,4,,,,12,69,0
9728,note_off,,,,,512,0,2,,,,2,72,0
9728,note_on,,,,,0,0,4,,,,12,81,127
9728,note_off,,,,,512,0,3,,,,6,69,0
9728,note_on,,,,,0,0,3,,,,6,72,101
9728,note_on,,,,,0,0,6,,,,1,57,114
9728,note_on,,,,,0,0,5,,,,3,57,127
9728,note_off,,,,,512,0,5,,,,3,45,0
9728,note_off,,,,,512,0,6,,,,1,69,0
9728,note_off,,,,,0,0,6,,,,1,45,0
9728,note_on,,,,,0,0,6,,,,1,81,114
9728,note_on,,,,,0,0,6,,,,1,72,114
9728,note_off,,,,,0,0,6,,,,1,72,0
10240,note_off,,,,,0,0,6,,,,1,81,0
10240,note_off,,,,,512,0,3,,,,6,72,0
10240,note_on,,,,,0,0,3,,,,6,76,101
10240,note_on,,,,,0,0,5,,,,3,40,127
10240,note_off,,,,,512,0,4,,,,12,81,0
10240,note_on,,,,,0,0,4,,,,12,80,127
10240,note_off,,,,,512,0,5,,,,3,57,0
10240,note_on,,,,,0,0,2,,,,2,80,101
10240,note_on,,,,,0,0,6,,,,1,76,114
10240,note_on,,,,,0,0,6,,,,1,80,114
10240,note_off,,,,,0,0,6,,,,1,57,0
10240,note_on,,,,,0,0,6,,,,1,40,114
10240,note_off,,,,,512,0,2,,,,2,81,0
10240,note_off,,,,,512,0,6,,,,1,72,0
10368,note_on,,,,,0,0,4,,,,12,81,127
10368,note_off,,,,,0,0,6,,,,1,80,0
10368,note_off,,,,,128,0,6,,,,1,76,0
10368,note_on,,,,,0,0,6,,,,1,81,114
10368,note_on,,,,,0,0,3,,,,6,78,101
10368,note_off,,,,,128,0,3,,,,6,76,0
10368,note_on,,,,,0,0,6,,,,1,78,114
10368,note_on,,,,,0,0,2,,,,2,81,101
10368,note_off,,,,,128,0,2,,,,2,80,0
10368,note_off,,,,,128,0,4,,,,12,80,0
10496,note_on,,,,,0,0,6,,,,1,80,114
10496,note_on,,,,,0,0,6,,,,1,83,114
10496,note_off,,,,,128,0,6,,,,1,78,0
10496,note_off,,,,,0,0,6,,,,1,81,0
10496,note_off,,,,,128,0,3,,,,6,78,0
10496,note_on,,,,,0,0,4,,,,12,83,127
10496,note_off,,,,,128,0,4,,,,12,81,0
10496,note_on,,,,,0,0,2,,,,2,83,101
10496,note_off,,,,,128,0,2,,,,2,81,0
10496,note_on,,,,,0,0,3,,,,6,80,101
10752,note_off,,,,,256,0,6,,,,1,40,0
10752,note_off,,,,,512,0,5,,,,3,40,0
10752,note_on,,,,,0,0,5,,,,3,52,127
10752,note_on,,,,,0,0,6,,,,1,52,114
11264,note_off,,,,,768,0,2,,,,2,83,0
11264,note_off,,,,,512,0,5,,,,3,52,0
11264,note_on,,,,,0,0,5,,,,3,40,127
11264,note_on,,,,,0,0,4,,,,12,74,127
11264,note_off,,,,,768,0,4,,,,12,83,0
11264,note_on,,,,,0,0,6,,,,1,40,114
11264,note_off,,,,,768,0,3,,,,6,80,0
11264,note_off,,,,,512,0,6,,,,1,80,0
11264,note_off,,,,,0,0,6,,,,1,83,0
11264,note_on,,,,,0,0,6,,,,1,71,114
11264,note_on,,,,,0,0,6,,,,1,74,114
11264,note_off,,,,,0,0,6,,,,1,52,0
11264,note_on,,,,,0,0,3,,,,6,71,101
11264,note_on,,,,,0,0,2,,,,2,74,101
11392,note_off,,,,,128,0,6,,,,1,71,0
11392,note_off,,,,,128,0,4,,,,12,74,0
11392,note_off,,,,,128,0,2,,,,2,74,0
11392,note_on,,,,,0,0,4,,,,12,76,127
11392,note_on,,,,,0,0,2,,,,2,76,101
11392,note_off,,,,,0,0,6,,,,1,74,0
11392,note_off,,,,,128,0,3,,,,6,71,0
11392,note_on,,,,,0,0,3,,,,6,72,101
11392,note_on,,,,,0,0,6,,,,1,72,114
11392,note_on,,,,,0,0,6,,,,1,76,114
11520,note_off,,,,,128,0,2,,,,2,76,0
11520,note_off,,,,,128,0,3,,,,6,72,0
11520,note_on,,,,,0,0,3,,,,6,74,101
11520,note_off,,,,,128,0,6,,,,1,72,0
11520,note_off,,,,,0,0,6,,,,1,76,0
11520,note_on,,,,,0,0,6,,,,1,74,114
11520,note_on,,,,,0,0,6,,,,1,77,114
11520,note_off,,,,,128,0,4,,,,12,76,0
11520,note_on,,,,,0,0,4,,,,12,77,127
11520,note_on,,,,,0,0,2,,,,2,77,101
11776,note_on,,,,,0,0,5,,,,3,52,127
11776,note_off,,,,,512,0,5,,,,3,40,0
11776,note_on,,,,,0,0,6,,,,1,52,114
11776,note_off,,,,,256,0,6,,,,1,40,0
12288,note_off,,,,,0,0,6,,,,1,77,0
12288,note_off,,,,,0,0,6,,,,1,52,0
12288,note_on,,,,,0,0,6,,,,1,68,114
12288,note_on,,,,,0,0,6,,,,1,71,114
12288,note_on,,,,,0,0,6,,,,1,40,114
12288,note_off,,,,,512,0,6,,,,1,74,0
12288,note_off,,,,,768,0,3,,,,6,74,0
12288,note_on,,,,,0,0,3,,,,6,68,101
12288,note_on,,,,,0,0,5,,,,3,40,127
12288,note_off,,,,,512,0,5,,,,3,52,0
12288,note_on,,,,,0,0,4,,,,12,71,127
12288,note_off,,,,,768,0,4,,,,12,77,0
12288,note_on,,,,,0,0,2,,,,2,71,101
12288,note_off,,,,,768,0,2,,,,2,77,0
12416,note_off,,,,,128,0,3,,,,6,68,0
12416,note_on,,,,,0,0,3,,,,6,69,101
12416,note_on,,,,,0,0,4,,,,12,72,127
12416,note_off,,,,,128,0,4,,,,12,71,0
12416,note_off,,,,,0,0,6,,,,1,71,0
12416,note_on,,,,,0,0,6,,,,1,69,114
12416,note_on,,,,,0,0,6,,,,1,72,114
12416,note_off,,,,,128,0,6,,,,1,68,0
12416,note_off,,,,,128,0,2,,,,2,71,0
12416,note_on,,,,,0,0,2,,,,2,72,101
12544,note_on,,,,,0,0,6,,,,1,74,114
12544,note_on,,,,,0,0,6,,,,1,71,114
12544,note_off,,,,,0,0,6,,,,1,72,0
12544,note_off,,,,,128,0,6,,,,1,69,0
12544,note_off,,,,,128,0,3,,,,6,69,0
12544,note_on,,,,,0,0,4,,,,12,74,127
12544,note_on,,,,,0,0,3,,,,6,71,101
12544,note_off,,,,,128,0,4,,,,12,72,0
12544,note_on,,,,,0,0,2,,,,2,74,101
12544,note_off,,,,,128,0,2,,,,2,72,0
12800,note_off,,,,,256,0,6,,,,1,40,0
12800,note_on,,,,,0,0,6,,,,1,52,114
12800,note_on,,,,,0,0,5,,,,3,52,127
12800,note_off,,,,,512,0,5,,,,3,40,0
13312,note_off,,,,,768,0,4,,,,12,74,0
13312,note_on,,,,,0,0,3,,,,6,64,101
13312,note_off,,,,,768,0,3,,,,6,71,0
13312,note_on,,,,,0,0,2,,,,2,68,101
13312,note_off,,,,,768,0,2,,,,2,74,0
13312,note_off,,,,,512,0,6,,,,1,71,0
13312,note_off,,,,,0,0,6,,,,1,74,0
13312,note_on,,,,,0,0,5,,,,3,40,127
13312,note_off,,,,,512,0,5,,,,3,52,0
13312,note_on,,,,,0,0,6,,,,1,68,114
13312,note_off,,,,,0,0,6,,,,1,52,0
13312,note_on,,,,,0,0,6,,,,1,40,114
13312,note_on,,,,,0,0,4,,,,12,68,127
13312,note_on,,,,,0,0,6,,,,1,64,114
13440,note_on,,,,,0,0,3,,,,6,66,101
13440,note_off,,,,,128,0,6,,,,1,64,0
13440,note_off,,,,,0,0,6,,,,1,68,0
13440,note_on,,,,,0,0,6,,,,1,66,114
13440,note_on,,,,,0,0,6,,,,1,69,114
13440,note_off,,,,,128,0,3,,,,6,64,0
13440,note_off,,,,,128,0,2,,,,2,68,0
13440,note_on,,,,,0,0,2,,,,2,69,101
13440,note_off,,,,,128,0,4,,,,12,68,0
13440,note_on,,,,,0,0,4,,,,12,69,127
13568,note_on,,,,,0,0,6,,,,1,68,114
13568,note_on,,,,,0,0,6,,,,1,71,114
13568,note_off,,,,,0,0,6,,,,1,69,0
13568,note_off,,,,,128,0,6,,,,1,66,0
13568,note_off,,,,,128,0,3,,,,6,66,0
13568,note_on,,,,,0,0,2,,,,2,71,101
13568,note_on,,,,,0,0,3,,,,6,68,101
13568,note_off,,,,,128,0,2,,,,2,69,0
13568,note_off,,,,,128,0,4,,,,12,69,0
13568,note_on,,,,,0,0,4,,,,12,71,127
13824,note_on,,,,,0,0,5,,,,3,52,127
13824,note_off,,,,,512,0,5,,,,3,40,0
13824,note_on,,,,,0,0,6,,,,1,52,114
13824,note_off,,,,,256,0,6,,,,1,40,0
14336,note_on,,,,,0,0,2,,,,2,72,101
14336,note_off,,,,,768,0,2,,,,2,71,0
14336,note_off,,,,,512,0,5,,,,3,52,0
14336,note_off,,,,,768,0,4,,,,12,71,0
14336,note_on,,,,,0,0,4,,,,12,72,127
14336,note_off,,,,,512,0,6,,,,1,68,0
14336,note_off,,,,,0,0,6,,,,1,71,0
14336,note_on,,,,,0,0,6,,,,1,64,114
14336,note_on,,,,,0,0,6,,,,1,72,114
14336,note_off,,,,,0,0,6,,,,1,52,0
14336,note_on,,,,,0,0,6,,,,1,57,114
14336,note_off,,,,,768,0,3,,,,6,68,0
14336,note_on,,,,,0,0,3,,,,6,64,101
14336,note_on,,,,,0,0,5,,,,3,57,127
14592,note_off,,,,,256,0,6,,,,1,57,0
14592,note_off,,,,,256,0,5,,,,3,57,0
14592,note_on,,,,,0,0,5,,,,3,59,127
14592,note_on,,,,,0,0,6,,,,1,59,114
14848,note_off,,,,,256,0,6,,,,1,64,0
14848,note_off,,,,,0,0,6,,,,1,72,0
14848,note_on,,,,,0,0,6,,,,1,69,114
14848,note_off,,,,,512,0,4,,,,12,72,0
14848,note_on,,,,,0,0,6,,,,1,76,114
14848,note_off,,,,,0,0,6,,,,1,59,0
14848,note_on,,,,,0,0,6,,,,1,60,114
14848,note_on,,,,,0,0,2,,,,2,76,101
14848,note_off,,,,,512,0,2,,,,2,72,0
14848,note_off,,,,,256,0,5,,,,3,59,0
14848,note_on,,,,,0,0,4,,,,12,76,127
14848,note_off,,,,,512,0,3,,,,6,64,0
14848,note_on,,,,,0,0,3,,,,6,69,101
14848,note_on,,,,,0,0,5,,,,3,60,127
15104,note_on,,,,,0,0,6,,,,1,59,114
15104,note_on,,,,,0,0,5,,,,3,59,127
15104,note_off,,,,,256,0,5,,,,3,60,0
15104,note_off,,,,,256,0,6,,,,1,60,0
15360,note_on,,,,,0,0,2,,,,2,81,101
15360,note_on,,,,,0,0,3,,,,6,72,101
15360,note_off,,,,,512,0,4,,,,12,76,0
15360,note_on,,,,,0,0,4,,,,12,81,127
15360,note_off,,,,,512,0,3,,,,6,69,0
15360,note_on,,,,,0,0,6,,,,1,57,114
15360,note_off,,,,,0,0,6,,,,1,59,0
15360,note_off,,,,,512,0,2,,,,2,76,0
15360,note_on,,,,,0,0,5,,,,3,57,127
15360,note_on,,,,,0,0,6,,,,1,72,114
15360,note_off,,,,,256,0,6,,,,1,69,0
15360,note_off,,,,,0,0,6,,,,1,76,0
15360,note_on,,,,,0,0,6,,,,1,81,114
15360,note_off,,,,,256,0,5,,,,3,59,0
15872,note_on,,,,,0,0,2,,,,2,76,101
15872,note_off,,,,,512,0,2,,,,2,81,0
15872,note_on,,,,,0,0,3,,,,6,69,101
15872,note_off,,,,,512,0,3,,,,6,72,0
15872,note_off,,,,,0,0,6,,,,1,81,0
15872,note_on,,,,,0,0,6,,,,1,69,114
15872,note_on,,,,,0,0,6,,,,1,72,114
15872,note_on,,,,,0,0,6,,,,1,76,114
15872,note_off,,,,,512,0,6,,,,1,72,0
16384,note_off,,,,,512,0,6,,,,1,69,0
16384,note_off,,,,,0,0,6,,,,1,76,0
16384,note_off,,,,,0,0,6,,,,1,57,0
16384,note_off,,,,,0,0,6,,,,1,72,0
16384,note_on,,,,,0,0,6,,,,1,76,114
16384,note_off,,,,,1024,0,5,,,,3,57,0
16384,note_on,,,,,0,0,3,,,,6,76,101
16384,note_off,,,,,512,0,3,,,,6,69,0
16384,note_on,,,,,0,0,2,,,,2,81,101
16384,note_off,,,,,512,0,2,,,,2,76,0
16384,note_on,,,,,0,0,6,,,,1,81,114
16384,note_on,,,,,0,0,5,,,,3,45,127
16384,note_off,,,,,1024,0,4,,,,12,81,0
16384,note_on,,,,,0,0,6,,,,1,72,114
16384,note_on,,,,,0,0,6,,,,1,45,114
16640,note_off,,,,,256,0,5,,,,3,45,0
16640,note_on,,,,,0,0,5,,,,3,47,127
16640,note_on,,,,,0,0,6,,,,1,47,114
16640,note_off,,,,,256,0,6,,,,1,45,0
16896,note_off,,,,,256,0,5,,,,3,47,0
16896,note_off,,,,,0,0,6,,,,1,81,0
16896,note_off,,,,,0,0,6,,,,1,76,0
16896,note_on,,,,,0,0,5,,,,3,48,127
16896,note_on,,,,,0,0,6,,,,1,48,114
16896,note_on,,,,,0,0,6,,,,1,69,114
16896,note_on,,,,,0,0,6,,,,1,76,114
16896,note_off,,,,,0,0,6,,,,1,47,0
16896,note_on,,,,,512,0,4,,,,12,76,127
16896,note_on,,,,,0,0,3,,,,6,69,101
16896,note_off,,,,,512,0,2,,,,2,81,0
16896,note_on,,,,,0,0,2,,,,2,76,101
16896,note_off,,,,,256,0,6,,,,1,72,0
16896,note_off,,,,,512,0,3,,,,6,76,0
17152,note_on,,,,,0,0,6,,,,1,47,114
17152,note_off,,,,,256,0,6,,,,1,48,0
17152,note_on,,,,,0,0,5,,,,3,47,127
17152,note_off,,,,,256,0,5,,,,3,48,0
17408,note_off,,,,,512,0,4,,,,12,76,0
17408,note_on,,,,,0,0,6,,,,1,45,114
17408,note_off,,,,,0,0,6,,,,1,47,0
17408,note_on,,,,,0,0,6,,,,1,81,114
17408,note_on,,,,,0,0,6,,,,1,72,114
17408,note_off,,,,,0,0,6,,,,1,76,0
17408,note_off,,,,,256,0,6,,,,1,69,0
17408,note_on,,,,,0,0,5,,,,3,45,127
17408,note_off,,,,,256,0,5,,,,3,47,0
17408,note_off,,,,,512,0,2,,,,2,76,0
17408,note_on,,,,,0,0,3,,,,6,72,101
17408,note_off,,,,,512,0,3,,,,6,69,0
17408,note_on,,,,,0,0,4,,,,12,81,127
17408,note_on,,,,,0,0,2,,,,2,81,101
17920,note_on,,,,,0,0,3,,,,6,72,101
17920,note_off,,,,,512,0,3,,,,6,72,0
17920,note_on,,,,,0,0,6,,,,1,72,114
17920,note_on,,,,,0,0,2,,,,2,76,101
17920,note_off,,,,,512,0,6,,,,1,72,0
17920,note_off,,,,,0,0,6,,,,1,81,0
17920,note_on,,,,,0,0,6,,,,1,69,114
17920,note_on,,,,,0,0,6,,,,1,76,114
17920,note_off,,,,,512,0,2,,,,2,81,0
17920,note_on,,,,,0,0,4,,,,12,76,127
17920,note_off,,,,,512,0,4,,,,12,81,0
18432,note_on,,,,,0,0,5,,,,3,62,127
18432,note_off,,,,,1024,0,5,,,,3,45,0
18432,note_off,,,,,512,0,6,,,,1,69,0
18432,note_off,,,,,0,0,6,,,,1,72,0
18432,note_off,,,,,0,0,6,,,,1,76,0
18432,note_on,,,,,0,0,6,,,,1,74,114
18432,note_on,,,,,0,0,6,,,,1,77,114
18432,note_off,,,,,0,0,6,,,,1,45,0
18432,note_on,,,,,0,0,6,,,,1,62,114
18432,note_on,,,,,0,0,4,,,,12,77,127
18432,note_off,,,,,512,0,4,,,,12,76,0
18432,note_on,,,,,0,0,3,,,,6,74,101
18432,note_off,,,,,512,0,3,,,,6,72,0
18432,note_off,,,,,512,0,2,,,,2,76,0
18432,note_on,,,,,0,0,2,,,,2,77,101
18688,note_off,,,,,0,0,6,,,,1,77,0
18688,note_off,,,,,256,0,3,,,,6,74,0
18688,note_off,,,,,256,0,2,,,,2,77,0
18688,note_on,,,,,0,0,2,,,,2,79,101
18688,note_on,,,,,0,0,3,,,,6,76,101
18688,note_on,,,,,0,0,6,,,,1,76,114
18688,note_off,,,,,256,0,6,,,,1,74,0
18688,note_on,,,,,0,0,4,,,,12,79,127
18688,note_off,,,,,256,0,4,,,,12,77,0
18688,note_on,,,,,0,0,6,,,,1,79,114
18944,note_on,,,,,0,0,3,,,,6,74,101
18944,note_off,,,,,0,0,6,,,,1,62,0
18944,note_on,,,,,0,0,6,,,,1,77,114
18944,note_on,,,,,0,0,6,,,,1,74,114
18944,note_off,,,,,0,0,6,,,,1,79,0
18944,note_off,,,,,512,0,5,,,,3,62,0
18944,note_on,,,,,0,0,5,,,,3,62,127
18944,note_on,,,,,0,0,6,,,,1,62,114
18944,note_off,,,,,256,0,3,,,,6,76,0
18944,note_off,,,,,256,0,6,,,,1,76,0
18944,note_off,,,,,256,0,2,,,,2,79,0
18944,note_on,,,,,0,0,2,,,,2,77,101
18944,note_on,,,,,0,0,4,,,,12,77,127
18944,note_off,,,,,256,0,4,,,,12,79,0
19200,note_off,,,,,256,0,2,,,,2,77,0
19200,note_on,,,,,0,0,4,,,,12,79,127
19200,note_off,,,,,256,0,4,,,,12,77,0
19200,note_off,,,,,256,0,3,,,,6,74,0
19200,note_on,,,,,0,0,3,,,,6,76,101
19200,note_on,,,,,0,0,6,,,,1,79,114
19200,note_on,,,,,0,0,6,,,,1,76,114
19200,note_off,,,,,0,0,6,,,,1,77,0
19200,note_off,,,,,256,0,6,,,,1,74,0
19200,note_on,,,,,0,0,2,,,,2,79,101
19456,note_off,,,,,256,0,3,,,,6,76,0
19456,note_off,,,,,256,0,2,,,,2,79,0
19456,note_on,,,,,0,0,2,,,,2,77,101
19456,note_off,,,,,256,0,4,,,,12,79,0
19456,note_off,,,,,256,0,6,,,,1,76,0
19456,note_off,,,,,0,0,6,,,,1,79,0
19456,note_on,,,,,0,0,6,,,,1,74,114
19456,note_on,,,,,0,0,6,,,,1,77,114
19456,note_off,,,,,0,0,6,,,,1,62,0
19456,note_on,,,,,0,0,6,,,,1,69,114
19456,note_on,,,,,0,0,3,,,,6,74,101
19456,note_on,,,,,0,0,4,,,,12,77,127
19456,note_on,,,,,0,0,6,,,,1,59,114
19456,note_on,,,,,0,0,5,,,,3,59,127
19456,note_off,,,,,512,0,5,,,,3,62,0
19712,note_on,,,,,0,0,4,,,,12,81,127
19712,note_off,,,,,256,0,6,,,,1,74,0
19712,note_on,,,,,0,0,6,,,,1,81,114
19712,note_off,,,,,256,0,3,,,,6,74,0
19712,note_on,,,,,0,0,3,,,,6,77,101
19712,note_off,,,,,256,0,2,,,,2,77,0
19712,note_off,,,,,0,0,6,,,,1,77,0
19712,note_on,,,,,0,0,2,,,,2,81,101
19712,note_on,,,,,0,0,6,,,,1,77,114
19712,note_off,,,,,256,0,4,,,,12,77,0
19968,note_on,,,,,0,0,4,,,,12,79,127
19968,note_off,,,,,256,0,3,,,,6,77,0
19968,note_on,,,,,0,0,3,,,,6,76,101
19968,note_on,,,,,0,0,5,,,,3,59,127
19968,note_off,,,,,512,0,5,,,,3,59,0
19968,note_off,,,,,256,0,6,,,,1,77,0
19968,note_on,,,,,0,0,6,,,,1,79,114
19968,note_off,,,,,256,0,4,,,,12,81,0
19968,note_off,,,,,0,0,6,,,,1,59,0
19968,note_on,,,,,0,0,6,,,,1,76,114
19968,note_off,,,,,256,0,2,,,,2,81,0
19968,note_on,,,,,0,0,2,,,,2,79,101
19968,note_on,,,,,0,0,6,,,,1,59,114
19968,note_off,,,,,0,0,6,,,,1,69,0
19968,note_off,,,,,0,0,6,,,,1,81,0
20224,note_on,,,,,0,0,6,,,,1,77,114
20224,note_on,,,,,0,0,3,,,,6,74,101
20224,note_off,,,,,0,0,6,,,,1,79,0
20224,note_off,,,,,256,0,3,,,,6,76,0
20224,note_off,,,,,256,0,2,,,,2,79,0
20224,note_off,,,,,256,0,6,,,,1,76,0
20224,note_on,,,,,0,0,4,,,,12,77,127
20224,note_off,,,,,256,0,4,,,,12,79,0
20224,note_on,,,,,0,0,2,,,,2,77,101
20224,note_on,,,,,0,0,6,,,,1,74,114
20480,note_off,,,,,256,0,6,,,,1,74,0
20480,note_on,,,,,0,0,6,,,,1,60,114
20480,note_on,,,,,0,0,6,,,,1,76,114
20480,note_on,,,,,0,0,6,,,,1,72,114
20480,note_off,,,,,0,0,6,,,,1,59,0
20480,note_off,,,,,0,0,6,,,,1,77,0
20480,note_on,,,,,0,0,6,,,,1,67,114
20480,note_off,,,,,256,0,3,,,,6,74,0
20480,note_off,,,,,256,0,2,,,,2,77,0
20480,note_on,,,,,0,0,5,,,,3,60,127
20480,note_off,,,,,512,0,5,,,,3,59,0
20480,note_on,,,,,0,0,2,,,,2,76,101
20480,note_on,,,,,0,0,3,,,,6,72,101
20480,note_on,,,,,0,0,4,,,,12,76,127
20480,note_off,,,,,256,0,4,,,,12,77,0
20736,note_off,,,,,256,0,3,,,,6,72,0
20736,note_on,,,,,0,0,6,,,,1,77,114
20736,note_on,,,,,0,0,6,,,,1,74,114
20736,note_off,,,,,0,0,6,,,,1,76,0
20736,note_off,,,,,256,0,6,,,,1,72,0
20736,note_off,,,,,256,0,2,,,,2,76,0
20736,note_on,,,,,0,0,4,,,,12,77,127
20736,note_off,,,,,256,0,4,,,,12,76,0
20736,note_on,,,,,0,0,2,,,,2,77,101
20736,note_on,,,,,0,0,3,,,,6,74,101
20992,note_on,,,,,0,0,6,,,,1,76,114
20992,note_on,,,,,0,0,2,,,,2,76,101
20992,note_off,,,,,256,0,6,,,,1,74,0
20992,note_on,,,,,0,0,5,,,,3,60,127
20992,note_off,,,,,512,0,5,,,,3,60,0
20992,note_off,,,,,0,0,6,,,,1,77,0
20992,note_on,,,,,0,0,6,,,,1,72,114
20992,note_on,,,,,0,0,3,,,,6,72,101
20992,note_off,,,,,256,0,3,,,,6,74,0
20992,note_off,,,,,0,0,6,,,,1,67,0
20992,note_off,,,,,256,0,2,,,,2,77,0
20992,note_on,,,,,0,0,6,,,,1,60,114
20992,note_on,,,,,0,0,4,,,,12,76,127
20992,note_off,,,,,256,0,4,,,,12,77,0
20992,note_off,,,,,0,0,6,,,,1,60,0
21248,note_off,,,,,256,0,6,,,,1,72,0
21248,note_off,,,,,0,0,6,,,,1,76,0
21248,note_off,,,,,256,0,2,,,,2,76,0
21248,note_on,,,,,0,0,6,,,,1,77,114
21248,note_on,,,,,0,0,3,,,,6,74,101
21248,note_on,,,,,0,0,6,,,,1,74,114
21248,note_on,,,,,0,0,4,,,,12,77,127
21248,note_off,,,,,256,0,4,,,,12,76,0
21248,note_on,,,,,0,0,2,,,,2,77,101
21248,note_off,,,,,256,0,3,,,,6,72,0
21504,note_off,,,,,0,0,6,,,,1,77,0
21504,note_off,,,,,256,0,6,,,,1,74,0
21504,note_off,,,,,0,0,6,,,,1,60,0
21504,note_on,,,,,0,0,6,,,,1,76,114
21504,note_on,,,,,0,0,6,,,,1,72,114
21504,note_on,,,,,0,0,6,,,,1,65,114
21504,note_off,,,,,512,0,5,,,,3,60,0
21504,note_on,,,,,0,0,5,,,,3,57,127
21504,note_off,,,,,256,0,2,,,,2,77,0
21504,note_on,,,,,0,0,2,,,,2,76,101
21504,note_on,,,,,0,0,6,,,,1,57,114
21504,note_off,,,,,256,0,4,,,,12,77,0
21504,note_on,,,,,0,0,4,,,,12,76,127
21504,note_off,,,,,256,0,3,,,,6,74,0
21504,note_on,,,,,0,0,3,,,,6,72,101
21760,note_off,,,,,256,0,3,,,,6,72,0
21760,note_on,,,,,0,0,6,,,,1,76,114
21760,note_on,,,,,0,0,6,,,,1,79,114
21760,note_on,,,,,0,0,2,,,,2,79,101
21760,note_off,,,,,256,0,2,,,,2,76,0
21760,note_off,,,,,0,0,6,,,,1,76,0
21760,note_on,,,,,0,0,3,,,,6,76,101
21760,note_off,,,,,256,0,6,,,,1,72,0
21760,note_off,,,,,256,0,4,,,,12,76,0
21760,note_on,,,,,0,0,4,,,,12,79,127
22016,note_on,,,,,0,0,4,,,,12,77,127
22016,note_off,,,,,256,0,6,,,,1,76,0
22016,note_off,,,,,0,0,6,,,,1,79,0
22016,note_on,,,,,0,0,6,,,,1,74,114
22016,note_on,,,,,0,0,6,,,,1,77,114
22016,note_on,,,,,0,0,2,,,,2,77,101
22016,note_off,,,,,256,0,2,,,,2,79,0
22016,note_off,,,,,256,0,4,,,,12,79,0
22016,note_on,,,,,0,0,5,,,,3,57,127
22016,note_off,,,,,0,0,6,,,,1,57,0
22016,note_off,,,,,0,0,6,,,,1,65,0
22016,note_off,,,,,512,0,5,,,,3,57,0
22016,note_off,,,,,256,0,3,,,,6,76,0
22016,note_on,,,,,0,0,3,,,,6,74,101
22016,note_on,,,,,0,0,6,,,,1,57,114
22272,note_on,,,,,0,0,3,,,,6,72,101
22272,note_on,,,,,0,0,4,,,,12,76,127
22272,note_off,,,,,256,0,4,,,,12,77,0
22272,note_on,,,,,0,0,6,,,,1,72,114
22272,note_off,,,,,0,0,6,,,,1,77,0
22272,note_off,,,,,256,0,6,,,,1,74,0
22272,note_on,,,,,0,0,6,,,,1,76,114
22272,note_off,,,,,256,0,3,,,,6,74,0
22272,note_on,,,,,0,0,2,,,,2,76,101
22272,note_off,,,,,256,0,2,,,,2,77,0
22528,note_off,,,,,256,0,6,,,,1,72,0
22528,note_off,,,,,0,0,6,,,,1,76,0
22528,note_on,,,,,0,0,6,,,,1,74,114
22528,note_on,,,,,0,0,6,,,,1,71,114
22528,note_off,,,,,256,0,2,,,,2,76,0
22528,note_on,,,,,0,0,6,,,,1,59,114
22528,note_on,,,,,0,0,4,,,,12,74,127
22528,note_off,,,,,256,0,4,,,,12,76,0
22528,note_off,,,,,512,0,5,,,,3,57,0
22528,note_on,,,,,0,0,5,,,,3,59,127
22528,note_on,,,,,0,0,2,,,,2,74,101
22528,note_off,,,,,0,0,6,,,,1,57,0
22528,note_on,,,,,0,0,3,,,,6,71,101
22528,note_off,,,,,256,0,3,,,,6,72,0
22784,note_on,,,,,0,0,3,,,,6,72,101
22784,note_off,,,,,256,0,3,,,,6,71,0
22784,note_on,,,,,0,0,4,,,,12,76,127
22784,note_on,,,,,0,0,6,,,,1,72,114
22784,note_off,,,,,256,0,2,,,,2,74,0
22784,note_on,,,,,0,0,2,,,,2,76,101
22784,note_off,,,,,0,0,6,,,,1,74,0
22784,note_off,,,,,256,0,6,,,,1,71,0
22784,note_off,,,,,256,0,4,,,,12,74,0
22784,note_on,,,,,0,0,6,,,,1,76,114
23040,note_off,,,,,256,0,6,,,,1,72,0
23040,note_on,,,,,0,0,6,,,,1,71,114
23040,note_on,,,,,0,0,6,,,,1,74,114
23040,note_on,,,,,0,0,2,,,,2,74,101
23040,note_off,,,,,256,0,2,,,,2,76,0
23040,note_on,,,,,0,0,4,,,,12,74,127
23040,note_off,,,,,256,0,4,,,,12,76,0
23040,note_off,,,,,256,0,3,,,,6,72,0
23040,note_on,,,,,0,0,3,,,,6,71,101
23040,note_on,,,,,0,0,5,,,,3,59,127
23040,note_off,,,,,512,0,5,,,,3,59,0
23040,note_off,,,,,0,0,6,,,,1,59,0
23040,note_on,,,,,0,0,6,,,,1,59,114
23040,note_off,,,,,0,0,6,,,,1,76,0
23296,note_on,,,,,0,0,4,,,,12,76,127
23296,note_on,,,,,0,0,6,,,,1,76,114
23296,note_on,,,,,0,0,6,,,,1,72,114
23296,note_off,,,,,0,0,6,,,,1,74,0
23296,note_off,,,,,256,0,6,,,,1,71,0
23296,note_on,,,,,0,0,3,,,,6,72,101
23296,note_off,,,,,256,0,3,,,,6,71,0
23296,note_off,,,,,256,0,4,,,,12,74,0
23296,note_off,,,,,256,0,2,,,,2,74,0
23296,note_on,,,,,0,0,2,,,,2,76,101
23552,note_off,,,,,256,0,2,,,,2,76,0
23552,note_off,,,,,256,0,6,,,,1,72,0
23552,note_on,,,,,0,0,4,,,,12,74,127
23552,note_on,,,,,0,0,6,,,,1,64,114
23552,note_off,,,,,256,0,4,,,,12,76,0
23552,note_on,,,,,0,0,6,,,,1,74,114
23552,note_off,,,,,0,0,6,,,,1,59,0
23552,note_off,,,,,256,0,3,,,,6,72,0
23552,note_off,,,,,0,0,6,,,,1,76,0
23552,note_off,,,,,512,0,5,,,,3,59,0
23552,note_on,,,,,0,0,5,,,,3,56,127
23552,note_on,,,,,0,0,6,,,,1,56,114
23552,note_on,,,,,0,0,2,,,,2,74,101
23552,note_on,,,,,0,0,3,,,,6,71,101
23552,note_on,,,,,0,0,6,,,,1,71,114
23808,note_off,,,,,256,0,6,,,,1,71,0
23808,note_off,,,,,256,0,3,,,,6,71,0
23808,note_off,,,,,0,0,6,,,,1,74,0
23808,note_on,,,,,0,0,2,,,,2,77,101
23808,note_on,,,,,0,0,4,,,,12,77,127
23808,note_off,,,,,256,0,4,,,,12,74,0
23808,note_on,,,,,0,0,3,,,,6,74,101
23808,note_on,,,,,0,0,6,,,,1,74,114
23808,note_off,,,,,256,0,2,,,,2,74,0
23808,note_on,,,,,0,0,6,,,,1,77,114
24064,note_off,,,,,256,0,6,,,,1,74,0
24064,note_on,,,,,0,0,3,,,,6,72,101
24064,note_off,,,,,256,0,3,,,,6,74,0
24064,note_on,,,,,0,0,4,,,,12,76,127
24064,note_off,,,,,256,0,4,,,,12,77,0
24064,note_off,,,,,512,0,5,,,,3,56,0
24064,note_off,,,,,256,0,2,,,,2,77,0
24064,note_on,,,,,0,0,2,,,,2,76,101
24064,note_on,,,,,0,0,6,,,,1,56,114
24064,note_off,,,,,0,0,6,,,,1,64,0
24064,note_off,,,,,0,0,6,,,,1,56,0
24064,note_on,,,,,0,0,6,,,,1,76,114
24064,note_on,,,,,0,0,6,,,,1,72,114
24064,note_off,,,,,0,0,6,,,,1,77,0
24064,note_on,,,,,0,0,5,,,,3,56,127
24320,note_off,,,,,256,0,3,,,,6,72,0
24320,note_on,,,,,0,0,3,,,,6,71,101
24320,note_off,,,,,256,0,2,,,,2,76,0
24320,note_on,,,,,0,0,2,,,,2,74,101
24320,note_off,,,,,256,0,4,,,,12,76,0
24320,note_on,,,,,0,0,4,,,,12,74,127
24320,note_on,,,,,0,0,6,,,,1,74,114
24320,note_on,,,,,0,0,6,,,,1,71,114
24320,note_off,,,,,0,0,6,,,,1,76,0
24320,note_off,,,,,256,0,6,,,,1,72,0
24576,note_on,,,,,0,0,5,,,,3,57,127
24576,note_on,,,,,0,0,4,,,,12,72,127
24576,note_off,,,,,256,0,2,,,,2,74,0
24576,note_off,,,,,512,0,5,,,,3,56,0
24576,note_off,,,,,256,0,4,,,,12,74,0
24576,note_on,,,,,0,0,2,,,,2,72,101
24576,note_on,,,,,0,0,3,,,,6,69,101
24576,note_off,,,,,256,0,6,,,,1,71,0
24576,note_off,,,,,0,0,6,,,,1,74,0
24576,note_on,,,,,0,0,6,,,,1,64,114
24576,note_off,,,,,0,0,6,,,,1,56,0
24576,note_off,,,,,256,0,3,,,,6,71,0
24576,note_on,,,,,0,0,6,,,,1,69,114
24576,note_on,,,,,0,0,6,,,,1,57,114
24576,note_on,,,,,0,0,6,,,,1,72,114
25088,note_on,,,,,0,0,3,,,,6,69,101
25088,note_off,,,,,512,0,3,,,,6,69,0
25088,note_off,,,,,512,0,5,,,,3,57,0
25088,note_on,,,,,0,0,5,,,,3,57,127
25088,note_off,,,,,512,0,4,,,,12,72,0
25088,note_off,,,,,0,0,6,,,,1,57,0
25088,note_on,,,,,0,0,6,,,,1,57,114
25088,note_on,,,,,0,0,6,,,,1,69,114
25088,note_off,,,,,512,0,2,,,,2,72,0
25088,note_off,,,,,0,0,6,,,,1,64,0
25088,note_off,,,,,0,0,6,,,,1,72,0
25088,note_off,,,,,512,0,6,,,,1,69,0
25088,note_on,,,,,0,0,2,,,,2,69,101
25088,note_on,,,,,0,0,4,,,,12,69,127
25600,note_on,,,,,0,0,5,,,,3,60,127
25600,note_off,,,,,512,0,5,,,,3,57,0
25600,note_on,,,,,0,0,3,,,,6,72,101
25600,note_on,,,,,0,0,6,,,,1,60,114
25600,note_off,,,,,512,0,3,,,,6,69,0
25600,note_off,,,,,512,0,6,,,,1,69,0
25600,note_on,,,,,0,0,2,,,,2,72,101
25600,note_on,,,,,0,0,4,,,,12,72,127
25600,note_off,,,,,512,0,4,,,,12,69,0
25600,note_on,,,,,0,0,6,,,,1,72,114
25600,note_off,,,,,512,0,2,,,,2,69,0
25600,note_off,,,,,0,0,6,,,,1,57,0
26112,note_on,,,,,0,0,4,,,,12,71,127
26112,note_off,,,,,512,0,3,,,,6,72,0
26112,note_off,,,,,512,0,4,,,,12,72,0
26112,note_on,,,,,0,0,3,,,,6,71,101
26112,note_on,,,,,0,0,6,,,,1,59,114
26112,note_off,,,,,512,0,5,,,,3,60,0
26112,note_off,,,,,0,0,6,,,,1,60,0
26112,note_on,,,,,0,0,6,,,,1,71,114
26112,note_off,,,,,512,0,2,,,,2,72,0
26112,note_on,,,,,0,0,2,,,,2,71,101
26112,note_off,,,,,512,0,6,,,,1,72,0
26112,note_on,,,,,0,0,5,,,,3,59,127
26368,note_on,,,,,0,0,6,,,,1,57,114
26368,note_on,,,,,0,0,4,,,,12,69,127
26368,note_off,,,,,256,0,4,,,,12,71,0
26368,note_off,,,,,256,0,2,,,,2,71,0
26368,note_on,,,,,0,0,2,,,,2,69,101
26368,note_off,,,,,256,0,6,,,,1,71,0
26368,note_on,,,,,0,0,5,,,,3,57,127
26368,note_off,,,,,0,0,6,,,,1,59,0
26368,note_on,,,,,0,0,6,,,,1,69,114
26368,note_off,,,,,256,0,3,,,,6,71,0
26368,note_on,,,,,0,0,3,,,,6,69,101
26368,note_off,,,,,256,0,5,,,,3,59,0
26624,note_off,,,,,256,0,3,,,,6,69,0
26624,note_on,,,,,0,0,3,,,,6,76,101
26624,note_off,,,,,256,0,6,,,,1,69,0
26624,note_on,,,,,0,0,6,,,,1,76,114
26624,note_off,,,,,0,0,6,,,,1,57,0
26624,note_on,,,,,0,0,6,,,,1,64,114
26624,note_off,,,,,256,0,2,,,,2,69,0
26624,note_on,,,,,0,0,2,,,,2,76,101
26624,note_off,,,,,256,0,5,,,,3,57,0
26624,note_on,,,,,0,0,4,,,,12,76,127
26624,note_off,,,,,256,0,4,,,,12,69,0
26624,note_on,,,,,0,0,5,,,,3,64,127
27136,note_off,,,,,512,0,2,,,,2,76,0
27136,note_on,,,,,0,0,2,,,,2,64,101
27136,note_on,,,,,0,0,5,,,,3,52,127
27136,note_off,,,,,512,0,5,,,,3,64,0
27136,note_on,,,,,0,0,6,,,,1,52,114
27136,note_off,,,,,0,0,6,,,,1,64,0
27136,note_on,,,,,0,0,6,,,,1,64,114
27136,note_off,,,,,512,0,6,,,,1,76,0
27136,note_off,,,,,512,0,3,,,,6,76,0
27136,note_on,,,,,0,0,4,,,,12,64,127
27136,note_off,,,,,512,0,4,,,,12,76,0
27136,note_on,,,,,0,0,3,,,,6,64,101
27648,note_off,,,,,512,0,3,,,,6,64,0
27648,note_off,,,,,512,0,2,,,,2,64,0
27648,note_on,,,,,0,0,3,,,,6,68,101
27648,note_on,,,,,0,0,2,,,,2,68,101
27648,note_on,,,,,0,0,6,,,,1,56,114
27648,note_off,,,,,512,0,5,,,,3,52,0
27648,note_off,,,,,512,0,4,,,,12,64,0
27648,note_off,,,,,512,0,6,,,,1,64,0
27648,note_on,,,,,0,0,6,,,,1,68,114
27648,note_off,,,,,0,0,6,,,,1,52,0
27648,note_on,,,,,0,0,4,,,,12,68,127
27648,note_on,,,,,0,0,5,,,,3,56,127
28160,note_off,,,,,512,0,4,,,,12,68,0
28160,note_on,,,,,0,0,4,,,,12,66,127
28160,note_off,,,,,512,0,2,,,,2,68,0
28160,note_off,,,,,512,0,3,,,,6,68,0
28160,note_on,,,,,0,0,5,,,,3,54,127
28160,note_on,,,,,0,0,2,,,,2,66,101
28160,note_on,,,,,0,0,6,,,,1,54,114
28160,note_off,,,,,0,0,6,,,,1,56,0
28160,note_on,,,,,0,0,6,,,,1,66,114
28160,note_off,,,,,512,0,6,,,,1,68,0
28160,note_on,,,,,0,0,3,,,,6,66,101
28160,note_off,,,,,512,0,5,,,,3,56,0
28416,note_off,,,,,256,0,5,,,,3,54,0
28416,note_on,,,,,0,0,5,,,,3,52,127
28416,note_off,,,,,256,0,2,,,,2,66,0
28416,note_on,,,,,0,0,2,,,,2,64,101
28416,note_off,,,,,256,0,4,,,,12,66,0
28416,note_on,,,,,0,0,4,,,,12,64,127
28416,note_off,,,,,256,0,3,,,,6,66,0
28416,note_on,,,,,0,0,3,,,,6,64,101
28416,note_off,,,,,256,0,6,,,,1,66,0
28416,note_on,,,,,0,0,6,,,,1,52,114
28416,note_off,,,,,0,0,6,,,,1,54,0
28416,note_on,,,,,0,0,6,,,,1,64,114
28672,note_on,,,,,0,0,6,,,,1,57,114
28672,note_on,,,,,0,0,4,,,,12,69,127
28672,note_off,,,,,256,0,4,,,,12,64,0
28672,note_off,,,,,256,0,2,,,,2,64,0
28672,note_on,,,,,0,0,2,,,,2,69,101
28672,note_off,,,,,256,0,3,,,,6,64,0
28672,note_on,,,,,0,0,3,,,,6,69,101
28672,note_on,,,,,0,0,5,,,,3,57,127
28672,note_off,,,,,256,0,5,,,,3,52,0
28672,note_off,,,,,0,0,6,,,,1,52,0
28672,note_on,,,,,0,0,6,,,,1,69,114
28672,note_off,,,,,256,0,6,,,,1,64,0
29184,note_off,,,,,512,0,3,,,,6,69,0
29184,note_on,,,,,0,0,3,,,,6,57,101
29184,note_off,,,,,512,0,6,,,,1,69,0
29184,note_on,,,,,0,0,6,,,,1,57,114
29184,note_off,,,,,512,0,2,,,,2,69,0
29184,note_off,,,,,0,0,6,,,,1,57,0
29184,note_on,,,,,0,0,6,,,,1,45,114
29184,note_off,,,,,512,0,5,,,,3,57,0
29184,note_on,,,,,0,0,5,,,,3,45,127
29184,note_off,,,,,512,0,4,,,,12,69,0
29696,note_off,,,,,512,0,5,,,,3,45,0
29696,note_on,,,,,512,0,2,,,,2,60,101
29696,note_on,,,,,0,0,6,,,,1,48,114
29696,note_on,,,,,0,0,5,,,,3,48,127
29696,note_off,,,,,0,0,6,,,,1,45,0
29696,note_on,,,,,0,0,6,,,,1,60,114
29696,note_off,,,,,512,0,6,,,,1,57,0
29696,note_on,,,,,512,0,4,,,,12,60,127
29696,note_on,,,,,0,0,3,,,,6,60,101
29696,note_off,,,,,512,0,3,,,,6,57,0
30208,note_off,,,,,512,0,4,,,,12,60,0
30208,note_on,,,,,0,0,6,,,,1,47,114
30208,note_on,,,,,0,0,5,,,,3,47,127
30208,note_off,,,,,512,0,5,,,,3,48,0
30208,note_off,,,,,512,0,2,,,,2,60,0
30208,note_on,,,,,0,0,6,,,,1,59,114
30208,note_off,,,,,512,0,6,,,,1,60,0
30208,note_on,,,,,0,0,3,,,,6,59,101
30208,note_off,,,,,512,0,3,,,,6,60,0
30208,note_off,,,,,0,0,6,,,,1,48,0
30464,note_off,,,,,256,0,6,,,,1,59,0
30464,note_on,,,,,0,0,6,,,,1,57,114
30464,note_off,,,,,0,0,6,,,,1,47,0
30464,note_on,,,,,0,0,6,,,,1,45,114
30464,note_off,,,,,256,0,5,,,,3,47,0
30464,note_off,,,,,256,0,3,,,,6,59,0
30464,note_on,,,,,0,0,3,,,,6,57,101
30464,note_on,,,,,0,0,5,,,,3,45,127
30720,note_on,,,,,512,0,2,,,,2,64,101
30720,note_off,,,,,256,0,3,,,,6,57,0
30720,note_off,,,,,256,0,6,,,,1,57,0
30720,note_on,,,,,0,0,6,,,,1,64,114
30720,note_on,,,,,0,0,3,,,,6,64,101
30720,note_on,,,,,0,0,6,,,,1,52,114
30720,note_on,,,,,0,0,5,,,,3,52,127
30720,note_off,,,,,256,0,5,,,,3,45,0
30720,note_off,,,,,0,0,6,,,,1,45,0
30720,note_on,,,,,512,0,4,,,,12,64,127
31744,note_off,,,,,1024,0,2,,,,2,64,0
31744,note_off,,,,,1024,0,5,,,,3,52,0
31744,note_off,,,,,1024,0,3,,,,6,64,0
31744,note_off,,,,,1024,0,4,,,,12,64,0
31744,note_off,,,,,0,0,6,,,,1,52,0
31744,note_off,,,,,1024,0,6,,,,1,64,0
32768,note_on,,,,,1024,0,3,,,,6,71,101
32768,note_on,,,,,1024,0,4,,,,12,77,127
32768,note_on,,,,,1024,0,2,,,,2,74,101
32768,note_on,,,,,0,0,6,,,,1,77,114
32768,note_on,,,,,0,0,6,,,,1,56,114
32768,note_on,,,,,1024,0,5,,,,3,56,127
32768,note_on,,,,,0,0,6,,,,1,74,114
32768,note_on,,,,,1024,0,6,,,,1,71,114
33280,note_off,,,,,0,0,6,,,,1,74,0
33280,note_off,,,,,512,0,4,,,,12,77,0
33280,note_on,,,,,0,0,4,,,,12,76,127
33280,note_on,,,,,0,0,3,,,,6,64,101
33280,note_off,,,,,512,0,3,,,,6,71,0
33280,note_off,,,,,512,0,5,,,,3,56,0
33280,note_on,,,,,0,0,5,,,,3,57,127
33280,note_on,,,,,0,0,2,,,,2,72,101
33280,note_off,,,,,512,0,2,,,,2,74,0
33280,note_off,,,,,512,0,6,,,,1,71,0
33280,note_on,,,,,0,0,6,,,,1,76,114
33280,note_on,,,,,0,0,6,,,,1,57,114
33280,note_off,,,,,0,0,6,,,,1,77,0
33280,note_on,,,,,0,0,6,,,,1,64,114
33280,note_off,,,,,0,0,6,,,,1,56,0
33280,note_on,,,,,0,0,6,,,,1,72,114
33792,note_off,,,,,0,0,6,,,,1,57,0
33792,note_off,,,,,512,0,4,,,,12,76,0
33792,note_off,,,,,512,0,3,,,,6,64,0
33792,note_off,,,,,0,0,6,,,,1,72,0
33792,note_off,,,,,512,0,2,,,,2,72,0
33792,note_off,,,,,512,0,6,,,,1,64,0
33792,note_off,,,,,512,0,5,,,,3,57,0
33792,note_off,,,,,0,0,6,,,,1,76,0
34816,note_on,,,,,1024,0,3,,,,6,68,101
34816,note_on,,,,,1024,0,5,,,,3,52,127
34816,note_on,,,,,0,0,6,,,,1,71,114
34816,note_on,,,,,0,0,6,,,,1,74,114
34816,note_on,,,,,1024,0,6,,,,1,68,114
34816,note_on,,,,,1024,0,2,,,,2,71,101
34816,note_on,,,,,1024,0,4,,,,12,74,127
34816,note_on,,,,,0,0,6,,,,1,52,114
35328,note_off,,,,,0,0,6,,,,1,74,0
35328,note_off,,,,,0,0,6,,,,1,71,0
35328,note_on,,,,,0,0,2,,,,2,72,101
35328,note_on,,,,,0,0,6,,,,1,64,114
35328,note_on,,,,,0,0,4,,,,12,76,127
35328,note_off,,,,,512,0,4,,,,12,74,0
35328,note_off,,,,,512,0,6,,,,1,68,0
35328,note_off,,,,,512,0,2,,,,2,71,0
35328,note_off,,,,,512,0,3,,,,6,68,0
35328,note_on,,,,,0,0,6,,,,1,72,114
35328,note_on,,,,,0,0,3,,,,6,64,101
35328,note_on,,,,,0,0,6,,,,1,76,114
35328,note_off,,,,,512,0,5,,,,3,52,0
35328,note_on,,,,,0,0,5,,,,3,45,127
35328,note_off,,,,,0,0,6,,,,1,52,0
35328,note_on,,,,,0,0,6,,,,1,45,114
35840,note_off,,,,,512,0,4,,,,12,76,0
35840,note_off,,,,,512,0,5,,,,3,45,0
35840,note_off,,,,,512,0,6,,,,1,64,0
35840,note_off,,,,,512,0,3,,,,6,64,0
35840,note_off,,,,,512,0,2,,,,2,72,0
35840,note_off,,,,,0,0,6,,,,1,72,0
35840,note_off,,,,,0,0,6,,,,1,45,0
35840,note_off,,,,,0,0,6,,,,1,76,0
36864,note_on,,,,,0,0,6,,,,1,74,114
36864,note_on,,,,,0,0,6,,,,1,56,114
36864,note_on,,,,,1024,0,5,,,,3,56,127
36864,note_on,,,,,0,0,6,,,,1,71,114
36864,note_on,,,,,1024,0,2,,,,2,71,101
36864,note_on,,,,,1024,0,6,,,,1,64,114
36864,note_on,,,,,1024,0,3,,,,6,64,101
36864,note_on,,,,,1024,0,4,,,,12,74,127
37376,note_off,,,,,0,0,6,,,,1,74,0
37376,note_off,,,,,512,0,6,,,,1,64,0
37376,note_on,,,,,0,0,6,,,,1,72,114
37376,note_off,,,,,0,0,6,,,,1,56,0
37376,note_on,,,,,0,0,6,,,,1,57,114
37376,note_on,,,,,0,0,5,,,,3,57,127
37376,note_off,,,,,512,0,5,,,,3,56,0
37376,note_on,,,,,0,0,6,,,,1,69,114
37376,note_on,,,,,0,0,4,,,,12,72,127
37376,note_off,,,,,512,0,4,,,,12,74,0
37376,note_on,,,,,0,0,3,,,,6,69,101
37376,note_off,,,,,512,0,3,,,,6,64,0
37376,note_off,,,,,512,0,2,,,,2,71,0
37376,note_on,,,,,0,0,2,,,,2,69,101
37376,note_off,,,,,0,0,6,,,,1,71,0
37888,note_off,,,,,0,0,6,,,,1,72,0
37888,note_off,,,,,512,0,6,,,,1,69,0
37888,note_off,,,,,0,0,6,,,,1,57,0
37888,note_off,,,,,512,0,2,,,,2,69,0
37888,note_off,,,,,512,0,4,,,,12,72,0
37888,note_off,,,,,512,0,5,,,,3,57,0
37888,note_off,,,,,512,0,3,,,,6,69,0
38912,note_on,,,,,0,0,6,,,,1,68,114
38912,note_on,,,,,1024,0,6,,,,1,64,114
38912,note_on,,,,,0,0,6,,,,1,71,114
38912,note_on,,,,,0,0,6,,,,1,52,114
38912,note_on,,,,,1024,0,4,,,,12,71,127
38912,note_on,,,,,1024,0,2,,,,2,68,101
38912,note_on,,,,,1024,0,3,,,,6,64,101
38912,note_on,,,,,1024,0,5,,,,3,52,127
39424,note_off,,,,,512,0,6,,,,1,64,0
39424,note_off,,,,,512,0,4,,,,12,71,0
39424,note_off,,,,,0,0,6,,,,1,68,0
39424,note_off,,,,,0,0,6,,,,1,52,0
39424,note_on,,,,,0,0,6,,,,1,45,114
39424,note_on,,,,,0,0,6,,,,1,72,114
39424,note_on,,,,,0,0,6,,,,1,69,114
39424,note_off,,,,,0,0,6,,,,1,71,0
39424,note_on,,,,,0,0,5,,,,3,45,127
39424,note_on,,,,,0,0,3,,,,6,69,101
39424,note_on,,,,,0,0,4,,,,12,72,127
39424,note_off,,,,,512,0,3,,,,6,64,0
39424,note_off,,,,,512,0,5,,,,3,52,0
39424,note_on,,,,,0,0,2,,,,2,69,101
39424,note_off,,,,,512,0,2,,,,2,68,0
39936,note_off,,,,,512,0,5,,,,3,45,0
39936,note_off,,,,,0,0,6,,,,1,72,0
39936,note_off,,,,,512,0,6,,,,1,69,0
39936,note_off,,,,,512,0,2,,,,2,69,0
39936,note_off,,,,,0,0,6,,,,1,45,0
39936,note_off,,,,,512,0,3,,,,6,69,0
39936,note_off,,,,,512,0,4,,,,12,72,0
40960,note_on,,,,,1024,0,4,,,,12,77,127
40960,note_on,,,,,1024,0,5,,,,3,65,127
40960,note_on,,,,,1024,0,2,,,,2,77,101
40960,note_on,,,,,1024,0,6,,,,1,77,114
40960,note_on,,,,,0,0,6,,,,1,65,114
40960,note_on,,,,,1024,0,3,,,,6,77,101
41216,note_on,,,,,0,0,6,,,,1,64,114
41216,note_off,,,,,0,0,6,,,,1,65,0
41216,note_off,,,,,256,0,5,,,,3,65,0
41216,note_on,,,,,0,0,5,,,,3,64,127
41216,note_off,,,,,256,0,2,,,,2,77,0
41216,note_on,,,,,0,0,6,,,,1,76,114
41216,note_off,,,,,256,0,6,,,,1,77,0
41216,note_off,,,,,256,0,3,,,,6,77,0
41216,note_on,,,,,0,0,3,,,,6,76,101
41216,note_on,,,,,0,0,4,,,,12,76,127
41216,note_off,,,,,256,0,4,,,,12,77,0
41216,note_on,,,,,0,0,2,,,,2,76,101
41472,note_on,,,,,0,0,5,,,,3,62,127
41472,note_off,,,,,256,0,5,,,,3,64,0
41472,note_off,,,,,256,0,3,,,,6,76,0
41472,note_on,,,,,0,0,3,,,,6,74,101
41472,note_on,,,,,0,0,2,,,,2,74,101
41472,note_off,,,,,256,0,4,,,,12,76,0
41472,note_off,,,,,256,0,2,,,,2,76,0
41472,note_off,,,,,256,0,6,,,,1,76,0
41472,note_on,,,,,0,0,6,,,,1,74,114
41472,note_off,,,,,0,0,6,,,,1,64,0
41472,note_on,,,,,0,0,6,,,,1,62,114
41472,note_on,,,,,0,0,4,,,,12,74,127
41728,note_off,,,,,256,0,4,,,,12,74,0
41728,note_on,,,,,0,0,4,,,,12,72,127
41728,note_off,,,,,256,0,5,,,,3,62,0
41728,note_on,,,,,0,0,5,,,,3,60,127
41728,note_off,,,,,256,0,6,,,,1,74,0
41728,note_on,,,,,0,0,6,,,,1,72,114
41728,note_off,,,,,0,0,6,,,,1,62,0
41728,note_off,,,,,256,0,3,,,,6,74,0
41728,note_on,,,,,0,0,6,,,,1,60,114
41728,note_on,,,,,0,0,3,,,,6,72,101
41728,note_off,,,,,256,0,2,,,,2,74,0
41728,note_on,,,,,0,0,2,,,,2,72,101
41984,note_off,,,,,256,0,6,,,,1,72,0
41984,note_off,,,,,256,0,4,,,,12,72,0
41984,note_off,,,,,256,0,5,,,,3,60,0
41984,note_on,,,,,0,0,5,,,,3,62,127
41984,note_off,,,,,256,0,2,,,,2,72,0
41984,note_on,,,,,0,0,2,,,,2,74,101
41984,note_on,,,,,0,0,6,,,,1,74,114
41984,note_off,,,,,0,0,6,,,,1,60,0
41984,note_on,,,,,0,0,4,,,,12,74,127
41984,note_on,,,,,0,0,6,,,,1,62,114
41984,note_off,,,,,256,0,3,,,,6,72,0
41984,note_on,,,,,0,0,3,,,,6,74,101
42240,note_off,,,,,256,0,2,,,,2,74,0
42240,note_on,,,,,0,0,3,,,,6,72,101
42240,note_off,,,,,256,0,4,,,,12,74,0
42240,note_off,,,,,256,0,3,,,,6,74,0
42240,note_on,,,,,0,0,4,,,,12,72,127
42240,note_off,,,,,256,0,6,,,,1,74,0
42240,note_on,,,,,0,0,6,,,,1,72,114
42240,note_off,,,,,0,0,6,,,,1,62,0
42240,note_on,,,,,0,0,6,,,,1,60,114
42240,note_on,,,,,0,0,5,,,,3,60,127
42240,note_off,,,,,256,0,5,,,,3,62,0
42240,note_on,,,,,0,0,2,,,,2,72,101
42496,note_on,,,,,0,0,5,,,,3,59,127
42496,note_off,,,,,256,0,5,,,,3,60,0
42496,note_off,,,,,256,0,4,,,,12,72,0
42496,note_on,,,,,0,0,4,,,,12,71,127
42496,note_on,,,,,0,0,2,,,,2,71,101
42496,note_off,,,,,0,0,6,,,,1,60,0
42496,note_on,,,,,0,0,3,,,,6,71,101
42496,note_off,,,,,256,0,2,,,,2,72,0
42496,note_off,,,,,256,0,3,,,,6,72,0
42496,note_off,,,,,256,0,6,,,,1,72,0
42496,note_on,,,,,0,0,6,,,,1,71,114
42496,note_on,,,,,0,0,6,,,,1,59,114
42752,note_off,,,,,256,0,3,,,,6,71,0
42752,note_on,,,,,0,0,6,,,,1,57,114
42752,note_off,,,,,0,0,6,,,,1,59,0
42752,note_on,,,,,0,0,6,,,,1,69,114
42752,note_off,,,,,256,0,4,,,,12,71,0
42752,note_on,,,,,0,0,4,,,,12,69,127
42752,note_off,,,,,256,0,5,,,,3,59,0
42752,note_on,,,,,0,0,5,,,,3,57,127
42752,note_on,,,,,0,0,2,,,,2,69,101
42752,note_off,,,,,256,0,2,,,,2,71,0
42752,note_off,,,,,256,0,6,,,,1,71,0
42752,note_on,,,,,0,0,3,,,,6,69,101
43008,note_on,,,,,0,0,6,,,,1,65,114
43008,note_on,,,,,0,0,3,,,,6,77,101
43008,note_off,,,,,256,0,6,,,,1,69,0
43008,note_on,,,,,0,0,6,,,,1,77,114
43008,note_off,,,,,0,0,6,,,,1,57,0
43008,note_off,,,,,256,0,4,,,,12,69,0
43008,note_on,,,,,0,0,4,,,,12,77,127
43008,note_off,,,,,256,0,3,,,,6,69,0
43008,note_off,,,,,256,0,5,,,,3,57,0
43008,note_off,,,,,256,0,2,,,,2,69,0
43008,note_on,,,,,0,0,2,,,,2,77,101
43008,note_on,,,,,0,0,5,,,,3,65,127
43264,note_off,,,,,256,0,3,,,,6,77,0
43264,note_off,,,,,256,0,2,,,,2,77,0
43264,note_on,,,,,0,0,2,,,,2,76,101
43264,note_on,,,,,0,0,5,,,,3,64,127
43264,note_off,,,,,256,0,6,,,,1,77,0
43264,note_on,,,,,0,0,6,,,,1,76,114
43264,note_off,,,,,0,0,6,,,,1,65,0
43264,note_on,,,,,0,0,6,,,,1,64,114
43264,note_off,,,,,256,0,5,,,,3,65,0
43264,note_off,,,,,256,0,4,,,,12,77,0
43264,note_on,,,,,0,0,4,,,,12,76,127
43264,note_on,,,,,0,0,3,,,,6,76,101
43520,note_on,,,,,0,0,3,,,,6,74,101
43520,note_off,,,,,256,0,2,,,,2,76,0
43520,note_off,,,,,256,0,4,,,,12,76,0
43520,note_off,,,,,256,0,3,,,,6,76,0
43520,note_on,,,,,0,0,5,,,,3,62,127
43520,note_on,,,,,0,0,6,,,,1,62,114
43520,note_on,,,,,0,0,4,,,,12,74,127
43520,note_off,,,,,256,0,6,,,,1,76,0
43520,note_on,,,,,0,0,6,,,,1,74,114
43520,note_off,,,,,0,0,6,,,,1,64,0
43520,note_on,,,,,0,0,2,,,,2,74,101
43520,note_off,,,,,256,0,5,,,,3,64,0
43776,note_off,,,,,256,0,5,,,,3,62,0
43776,note_on,,,,,0,0,4,,,,12,72,127
43776,note_off,,,,,256,0,4,,,,12,74,0
43776,note_off,,,,,256,0,3,,,,6,74,0
43776,note_on,,,,,0,0,3,,,,6,72,101
43776,note_off,,,,,256,0,2,,,,2,74,0
43776,note_off,,,,,256,0,6,,,,1,74,0
43776,note_on,,,,,0,0,6,,,,1,72,114
43776,note_off,,,,,0,0,6,,,,1,62,0
43776,note_on,,,,,0,0,6,,,,1,60,114
43776,note_on,,,,,0,0,2,,,,2,72,101
43776,note_on,,,,,0,0,5,,,,3,60,127
44032,note_off,,,,,256,0,5,,,,3,60,0
44032,note_on,,,,,0,0,5,,,,3,62,127
44032,note_off,,,,,256,0,6,,,,1,72,0
44032,note_on,,,,,0,0,6,,,,1,74,114
44032,note_off,,,,,0,0,6,,,,1,60,0
44032,note_on,,,,,0,0,6,,,,1,62,114
44032,note_off,,,,,256,0,3,,,,6,72,0
44032,note_on,,,,,0,0,3,,,,6,74,101
44032,note_off,,,,,256,0,2,,,,2,72,0
44032,note_on,,,,,0,0,2,,,,2,74,101
44032,note_off,,,,,256,0,4,,,,12,72,0
44032,note_on,,,,,0,0,4,,,,12,74,127
44288,note_on,,,,,0,0,2,,,,2,72,101
44288,note_on,,,,,0,0,6,,,,1,72,114
44288,note_off,,,,,256,0,6,,,,1,74,0
44288,note_off,,,,,256,0,5,,,,3,62,0
44288,note_on,,,,,0,0,5,,,,3,60,127
44288,note_off,,,,,256,0,4,,,,12,74,0
44288,note_on,,,,,0,0,4,,,,12,72,127
44288,note_off,,,,,256,0,2,,,,2,74,0
44288,note_off,,,,,256,0,3,,,,6,74,0
44288,note_on,,,,,0,0,3,,,,6,72,101
44288,note_off,,,,,0,0,6,,,,1,62,0
44288,note_on,,,,,0,0,6,,,,1,60,114
44544,note_on,,,,,0,0,5,,,,3,59,127
44544,note_off,,,,,256,0,5,,,,3,60,0
44544,note_off,,,,,256,0,2,,,,2,72,0
44544,note_on,,,,,0,0,2,,,,2,71,101
44544,note_on,,,,,0,0,6,,,,1,59,114
44544,note_on,,,,,0,0,6,,,,1,71,114
44544,note_off,,,,,0,0,6,,,,1,60,0
44544,note_off,,,,,256,0,4,,,,12,72,0
44544,note_on,,,,,0,0,4,,,,12,71,127
44544,note_off,,,,,256,0,3,,,,6,72,0
44544,note_on,,,,,0,0,3,,,,6,71,101
44544,note_off,,,,,256,0,6,,,,1,72,0
44800,note_off,,,,,256,0,2,,,,2,71,0
44800,note_off,,,,,256,0,6,,,,1,71,0
44800,note_on,,,,,0,0,6,,,,1,69,114
44800,note_off,,,,,0,0,6,,,,1,59,0
44800,note_on,,,,,0,0,6,,,,1,57,114
44800,note_on,,,,,0,0,3,,,,6,69,101
44800,note_on,,,,,0,0,2,,,,2,69,101
44800,note_off,,,,,256,0,3,,,,6,71,0
44800,note_on,,,,,0,0,4,,,,12,69,127
44800,note_off,,,,,256,0,5,,,,3,59,0
44800,note_on,,,,,0,0,5,,,,3,57,127
44800,note_off,,,,,256,0,4,,,,12,71,0
45056,note_off,,,,,256,0,6,,,,1,69,0
45056,note_on,,,,,0,0,4,,,,12,62,127
45056,note_off,,,,,256,0,4,,,,12,69,0
45056,note_off,,,,,0,0,6,,,,1,57,0
45056,note_off,,,,,256,0,5,,,,3,57,0
45056,note_on,,,,,0,0,5,,,,3,50,127
45056,note_off,,,,,256,0,2,,,,2,69,0
45056,note_on,,,,,0,0,2,,,,2,62,101
45056,note_on,,,,,0,0,6,,,,1,62,114
45056,note_on,,,,,0,0,6,,,,1,50,114
45056,note_off,,,,,256,0,3,,,,6,69,0
45056,note_on,,,,,0,0,3,,,,6,62,101
45568,note_off,,,,,512,0,6,,,,1,62,0
45568,note_off,,,,,512,0,4,,,,12,62,0
45568,note_off,,,,,0,0,6,,,,1,50,0
45568,note_off,,,,,512,0,5,,,,3,50,0
45568,note_off,,,,,512,0,3,,,,6,62,0
45568,note_off,,,,,512,0,2,,,,2,62,0
46080,note_on,,,,,512,0,4,,,,12,64,127
46080,note_on,,,,,0,0,6,,,,1,52,114
46080,note_on,,,,,512,0,5,,,,3,52,127
46080,note_on,,,,,512,0,3,,,,6,59,101
46080,note_on,,,,,0,0,6,,,,1,68,114
46080,note_on,,,,,0,0,6,,,,1,64,114
46080,note_on,,,,,512,0,6,,,,1,59,114
46080,note_on,,,,,512,0,2,,,,2,68,101
46592,note_off,,,,,512,0,4,,,,12,64,0
46592,note_off,,,,,512,0,2,,,,2,68,0
46592,note_off,,,,,0,0,6,,,,1,68,0
46592,note_off,,,,,0,0,6,,,,1,64,0
46592,note_off,,,,,512,0,5,,,,3,52,0
46592,note_off,,,,,512,0,6,,,,1,59,0
46592,note_off,,,,,512,0,3,,,,6,59,0
46592,note_off,,,,,0,0,6,,,,1,52,0
47104,note_on,,,,,0,0,6,,,,1,64,114
47104,note_on,,,,,0,0,6,,,,1,69,114
47104,note_on,,,,,0,0,6,,,,1,45,114
47104,note_on,,,,,512,0,6,,,,1,60,114
47104,note_on,,,,,512,0,5,,,,3,45,127
47104,note_on,,,,,512,0,4,,,,12,69,127
47104,note_on,,,,,512,0,2,,,,2,64,101
47104,note_on,,,,,512,0,3,,,,6,60,101
48128,note_off,,,,,1024,0,4,,,,12,69,0
48128,note_off,,,,,0,0,6,,,,1,64,0
48128,note_off,,,,,1024,0,6,,,,1,60,0
48128,note_off,,,,,0,0,6,,,,1,69,0
48128,note_off,,,,,1024,0,3,,,,6,60,0
48128,note_off,,,,,1024,0,2,,,,2,64,0
48128,note_off,,,,,1024,0,5,,,,3,45,0
48128,note_off,,,,,0,0,6,,,,1,45,0
49152,note_on,,,,,1024,0,4,,,,12,69,127
49664,note_on,,,,,1536,0,3,,,,6,64,62
49664,note_on,,,,,1536,0,2,,,,2,72,62
49664,note_on,,,,,0,0,6,,,,1,57,75
49664,note_on,,,,,0,0,6,,,,1,72,75
49664,note_on,,,,,1536,0,6,,,,1,64,75
49664,note_on,,,,,1536,0,5,,,,3,57,101
50176,note_off,,,,,0,0,6,,,,1,57,0
50176,note_on,,,,,0,0,6,,,,1,72,75
50176,note_on,,,,,0,0,6,,,,1,64,75
50176,note_off,,,,,0,0,6,,,,1,72,0
50176,note_on,,,,,0,0,3,,,,6,64,62
50176,note_on,,,,,0,0,6,,,,1,57,75
50176,note_off,,,,,512,0,6,,,,1,64,0
50176,note_on,,,,,0,0,5,,,,3,57,101
50176,note_off,,,,,512,0,5,,,,3,57,0
50176,note_off,,,,,512,0,3,,,,6,64,0
50176,note_on,,,,,0,0,2,,,,2,72,62
50176,note_off,,,,,512,0,2,,,,2,72,0
50688,note_on,,,,,0,0,3,,,,6,64,62
50688,note_on,,,,,0,0,6,,,,1,57,75
50688,note_off,,,,,0,0,6,,,,1,57,0
50688,note_on,,,,,0,0,6,,,,1,72,75
50688,note_off,,,,,512,0,3,,,,6,64,0
50688,note_on,,,,,0,0,6,,,,1,64,75
50688,note_off,,,,,512,0,6,,,,1,64,0
50688,note_off,,,,,512,0,2,,,,2,72,0
50688,note_on,,,,,0,0,5,,,,3,57,101
50688,note_off,,,,,512,0,5,,,,3,57,0
50688,note_off,,,,,0,0,6,,,,1,72,0
50688,note_on,,,,,0,0,2,,,,2,72,62
51200,note_off,,,,,512,0,2,,,,2,72,0
51200,note_on,,,,,0,0,2,,,,2,72,62
51200,note_on,,,,,0,0,3,,,,6,64,62
51200,note_off,,,,,512,0,3,,,,6,64,0
51200,note_off,,,,,0,0,6,,,,1,72,0
51200,note_off,,,,,0,0,6,,,,1,57,0
51200,note_on,,,,,0,0,6,,,,1,72,75
51200,note_on,,,,,0,0,6,,,,1,64,75
51200,note_off,,,,,512,0,6,,,,1,64,0
51200,note_on,,,,,0,0,5,,,,3,57,101
51200,note_on,,,,,0,0,6,,,,1,57,75
51200,note_off,,,,,512,0,5,,,,3,57,0
51712,note_off,,,,,512,0,3,,,,6,64,0
51712,note_on,,,,,0,0,3,,,,6,64,62
51712,note_on,,,,,0,0,2,,,,2,72,62
51712,note_on,,,,,0,0,6,,,,1,64,75
51712,note_off,,,,,512,0,5,,,,3,57,0
51712,note_off,,,,,512,0,2,,,,2,72,0
51712,note_off,,,,,512,0,6,,,,1,64,0
51712,note_off,,,,,0,0,6,,,,1,72,0
51712,note_on,,,,,0,0,5,,,,3,57,101
51712,note_on,,,,,0,0,6,,,,1,72,75
51712,note_on,,,,,0,0,6,,,,1,57,75
51712,note_off,,,,,0,0,6,,,,1,57,0
52224,note_on,,,,,0,0,6,,,,1,57,75
52224,note_off,,,,,0,0,6,,,,1,57,0
52224,note_on,,,,,0,0,6,,,,1,72,75
52224,note_on,,,,,0,0,6,,,,1,64,75
52224,note_off,,,,,512,0,2,,,,2,72,0
52224,note_on,,,,,0,0,3,,,,6,64,62
52224,note_off,,,,,512,0,3,,,,6,64,0
52224,note_off,,,,,0,0,6,,,,1,72,0
52224,note_on,,,,,0,0,2,,,,2,72,62
52224,note_off,,,,,512,0,6,,,,1,64,0
52224,note_on,,,,,0,0,5,,,,3,57,101
52224,note_off,,,,,512,0,5,,,,3,57,0
52480,note_on,,,,,0,0,4,,,,12,72,127
52480,note_off,,,,,3328,0,4,,,,12,69,0
52736,note_off,,,,,512,0,5,,,,3,57,0
52736,note_on,,,,,0,0,3,,,,6,64,62
52736,note_off,,,,,512,0,3,,,,6,64,0
52736,note_on,,,,,0,0,4,,,,12,71,127
52736,note_off,,,,,512,0,2,,,,2,72,0
52736,note_on,,,,,0,0,6,,,,1,72,75
52736,note_off,,,,,0,0,6,,,,1,57,0
52736,note_on,,,,,0,0,6,,,,1,57,75
52736,note_on,,,,,0,0,6,,,,1,64,75
52736,note_off,,,,,0,0,6,,,,1,72,0
52736,note_off,,,,,512,0,6,,,,1,64,0
52736,note_on,,,,,0,0,5,,,,3,57,101
52736,note_on,,,,,0,0,2,,,,2,72,62
52736,note_off,,,,,256,0,4,,,,12,72,0
52992,note_on,,,,,0,0,4,,,,12,69,127
52992,note_off,,,,,256,0,4,,,,12,71,0
53248,note_off,,,,,512,0,3,,,,6,64,0
53248,note_off,,,,,256,0,4,,,,12,69,0
53248,note_on,,,,,0,0,4,,,,12,71,127
53248,note_off,,,,,0,0,6,,,,1,57,0
53248,note_off,,,,,0,0,6,,,,1,72,0
53248,note_off,,,,,512,0,2,,,,2,72,0
53248,note_off,,,,,512,0,6,,,,1,64,0
53248,note_off,,,,,512,0,5,,,,3,57,0
53760,note_on,,,,,512,0,3,,,,6,64,62
53760,note_on,,,,,0,0,6,,,,1,71,75
53760,note_on,,,,,512,0,6,,,,1,64,75
53760,note_on,,,,,512,0,5,,,,3,57,101
53760,note_on,,,,,0,0,6,,,,1,57,75
53760,note_on,,,,,512,0,2,,,,2,71,62
54272,note_off,,,,,512,0,6,,,,1,64,0
54272,note_off,,,,,0,0,6,,,,1,57,0
54272,note_on,,,,,0,0,6,,,,1,57,75
54272,note_on,,,,,0,0,6,,,,1,64,75
54272,note_on,,,,,0,0,6,,,,1,71,75
54272,note_on,,,,,0,0,2,,,,2,71,62
54272,note_off,,,,,512,0,2,,,,2,71,0
54272,note_off,,,,,0,0,6,,,,1,71,0
54272,note_on,,,,,0,0,3,,,,6,64,62
54272,note_off,,,,,512,0,5,,,,3,57,0
54272,note_on,,,,,0,0,5,,,,3,57,101
54272,note_off,,,,,512,0,3,,,,6,64,0
54784,note_on,,,,,0,0,6,,,,1,64,75
54784,note_on,,,,,0,0,6,,,,1,71,75
54784,note_off,,,,,0,0,6,,,,1,57,0
54784,note_on,,,,,0,0,6,,,,1,57,75
54784,note_on,,,,,0,0,2,,,,2,71,62
54784,note_off,,,,,512,0,2,,,,2,71,0
54784,note_off,,,,,512,0,5,,,,3,57,0
54784,note_on,,,,,0,0,5,,,,3,57,101
54784,note_off,,,,,0,0,6,,,,1,71,0
54784,note_off,,,,,512,0,3,,,,6,64,0
54784,note_on,,,,,0,0,3,,,,6,64,62
54784,note_off,,,,,512,0,6,,,,1,64,0
55296,note_on,,,,,0,0,3,,,,6,64,62
55296,note_off,,,,,512,0,3,,,,6,64,0
55296,note_off,,,,,0,0,6,,,,1,57,0
55296,note_off,,,,,512,0,6,,,,1,64,0
55296,note_on,,,,,0,0,6,,,,1,56,75
55296,note_off,,,,,0,0,6,,,,1,71,0
55296,note_on,,,,,0,0,6,,,,1,64,75
55296,note_on,,,,,0,0,5,,,,3,56,101
55296,note_off,,,,,512,0,5,,,,3,57,0
55296,note_on,,,,,0,0,2,,,,2,71,62
55296,note_off,,,,,512,0,2,,,,2,71,0
55296,note_on,,,,,0,0,6,,,,1,71,75
55808,note_off,,,,,512,0,3,,,,6,64,0
55808,note_off,,,,,512,0,2,,,,2,71,0
55808,note_on,,,,,0,0,5,,,,3,56,101
55808,note_off,,,,,0,0,6,,,,1,56,0
55808,note_on,,,,,0,0,6,,,,1,71,75
55808,note_on,,,,,0,0,6,,,,1,64,75
55808,note_off,,,,,0,0,6,,,,1,71,0
55808,note_off,,,,,512,0,5,,,,3,56,0
55808,note_off,,,,,512,0,6,,,,1,64,0
55808,note_on,,,,,0,0,3,,,,6,64,62
55808,note_on,,,,,0,0,6,,,,1,56,75
55808,note_on,,,,,0,0,2,,,,2,71,62
56320,note_off,,,,,512,0,6,,,,1,64,0
56320,note_off,,,,,0,0,6,,,,1,71,0
56320,note_on,,,,,0,0,6,,,,1,64,75
56320,note_on,,,,,0,0,6,,,,1,71,75
56320,note_on,,,,,0,0,6,,,,1,56,75
56320,note_on,,,,,0,0,5,,,,3,56,101
56320,note_off,,,,,512,0,5,,,,3,56,0
56320,note_on,,,,,0,0,3,,,,6,64,62
56320,note_on,,,,,0,0,2,,,,2,71,62
56320,note_off,,,,,512,0,2,,,,2,71,0
56320,note_off,,,,,0,0,6,,,,1,56,0
56320,note_off,,,,,512,0,3,,,,6,64,0
56576,note_on,,,,,0,0,4,,,,12,74,127
56576,note_off,,,,,3328,0,4,,,,12,71,0
56832,note_on,,,,,0,0,5,,,,3,56,101
56832,note_on,,,,,0,0,6,,,,1,56,75
56832,note_off,,,,,0,0,6,,,,1,56,0
56832,note_on,,,,,0,0,3,,,,6,64,62
56832,note_off,,,,,512,0,3,,,,6,64,0
56832,note_on,,,,,0,0,6,,,,1,71,75
56832,note_off,,,,,256,0,4,,,,12,74,0
56832,note_off,,,,,512,0,6,,,,1,64,0
56832,note_off,,,,,0,0,6,,,,1,71,0
56832,note_off,,,,,512,0,2,,,,2,71,0
56832,note_on,,,,,0,0,2,,,,2,71,62
56832,note_on,,,,,0,0,6,,,,1,64,75
56832,note_on,,,,,0,0,4,,,,12,72,127
56832,note_off,,,,,512,0,5,,,,3,56,0
57088,note_on,,,,,0,0,4,,,,12,71,127
57088,note_off,,,,,256,0,4,,,,12,72,0
57344,note_off,,,,,512,0,6,,,,1,64,0
57344,note_off,,,,,0,0,6,,,,1,71,0
57344,note_off,,,,,0,0,6,,,,1,56,0
57344,note_off,,,,,256,0,4,,,,12,71,0
57344,note_off,,,,,512,0,2,,,,2,71,0
57344,note_off,,,,,512,0,3,,,,6,64,0
57344,note_off,,,,,512,0,5,,,,3,56,0
57344,note_on,,,,,0,0,4,,,,12,72,127
57856,note_on,,,,,512,0,6,,,,1,64,75
57856,note_on,,,,,512,0,3,,,,6,64,62
57856,note_on,,,,,512,0,5,,,,3,57,101
57856,note_on,,,,,0,0,6,,,,1,57,75
57856,note_on,,,,,0,0,6,,,,1,72,75
57856,note_on,,,,,512,0,2,,,,2,72,62
58368,note_off,,,,,512,0,2,,,,2,72,0
58368,note_off,,,,,0,0,6,,,,1,72,0
58368,note_on,,,,,0,0,2,,,,2,72,62
58368,note_on,,,,,0,0,5,,,,3,57,101
58368,note_off,,,,,512,0,5,,,,3,57,0
58368,note_on,,,,,0,0,3,,,,6,64,62
58368,note_off,,,,,512,0,6,,,,1,64,0
58368,note_off,,,,,512,0,3,,,,6,64,0
58368,note_on,,,,,0,0,6,,,,1,57,75
58368,note_off,,,,,0,0,6,,,,1,57,0
58368,note_on,,,,,0,0,6,,,,1,72,75
58368,note_on,,,,,0,0,6,,,,1,64,75
58624,note_on,,,,,0,0,4,,,,12,76,127
58624,note_off,,,,,1280,0,4,,,,12,72,0
58880,note_on,,,,,0,0,4,,,,12,74,127
58880,note_off,,,,,512,0,3,,,,6,64,0
58880,note_on,,,,,0,0,3,,,,6,64,62
58880,note_off,,,,,512,0,5,,,,3,57,0
58880,note_on,,,,,0,0,5,,,,3,57,101
58880,note_off,,,,,256,0,4,,,,12,76,0
58880,note_on,,,,,0,0,2,,,,2,72,62
58880,note_off,,,,,512,0,2,,,,2,72,0
58880,note_on,,,,,0,0,6,,,,1,72,75
58880,note_off,,,,,512,0,6,,,,1,64,0
58880,note_off,,,,,0,0,6,,,,1,72,0
58880,note_on,,,,,0,0,6,,,,1,57,75
58880,note_on,,,,,0,0,6,,,,1,64,75
58880,note_off,,,,,0,0,6,,,,1,57,0
59136,note_on,,,,,0,0,4,,,,12,72,127
59136,note_off,,,,,256,0,4,,,,12,74,0
59392,note_off,,,,,0,0,6,,,,1,72,0
59392,note_off,,,,,512,0,6,,,,1,64,0
59392,note_off,,,,,0,0,6,,,,1,57,0
59392,note_on,,,,,0,0,6,,,,1,57,75
59392,note_off,,,,,512,0,5,,,,3,57,0
59392,note_on,,,,,0,0,5,,,,3,57,101
59392,note_off,,,,,512,0,3,,,,6,64,0
59392,note_off,,,,,512,0,2,,,,2,72,0
59392,note_off,,,,,256,0,4,,,,12,72,0
59392,note_on,,,,,0,0,4,,,,12,74,127
59904,note_off,,,,,512,0,5,,,,3,57,0
59904,note_on,,,,,512,0,3,,,,6,65,62
59904,note_off,,,,,0,0,6,,,,1,57,0
59904,note_on,,,,,0,0,6,,,,1,69,75
59904,note_on,,,,,0,0,6,,,,1,57,75
59904,note_on,,,,,512,0,2,,,,2,69,62
59904,note_on,,,,,0,0,5,,,,3,57,101
59904,note_on,,,,,512,0,6,,,,1,65,75
60416,note_on,,,,,0,0,6,,,,1,65,75
60416,note_on,,,,,0,0,3,,,,6,65,62
60416,note_off,,,,,0,0,6,,,,1,69,0
60416,note_off,,,,,512,0,5,,,,3,57,0
60416,note_on,,,,,0,0,5,,,,3,62,101
60416,note_off,,,,,512,0,6,,,,1,65,0
60416,note_off,,,,,512,0,2,,,,2,69,0
60416,note_on,,,,,0,0,2,,,,2,69,62
60416,note_on,,,,,0,0,6,,,,1,62,75
60416,note_off,,,,,0,0,6,,,,1,57,0
60416,note_on,,,,,0,0,6,,,,1,69,75
60416,note_off,,,,,512,0,3,,,,6,65,0
60672,note_on,,,,,0,0,4,,,,12,77,127
60672,note_off,,,,,1280,0,4,,,,12,74,0
60928,note_off,,,,,256,0,4,,,,12,77,0
60928,note_on,,,,,0,0,6,,,,1,69,75
60928,note_off,,,,,0,0,6,,,,1,69,0
60928,note_on,,,,,0,0,6,,,,1,65,75
60928,note_on,,,,,0,0,2,,,,2,69,62
60928,note_off,,,,,512,0,2,,,,2,69,0
60928,note_on,,,,,0,0,3,,,,6,65,62
60928,note_off,,,,,512,0,3,,,,6,65,0
60928,note_on,,,,,0,0,4,,,,12,76,127
60928,note_off,,,,,512,0,6,,,,1,65,0
61184,note_on,,,,,0,0,4,,,,12,74,127
61184,note_off,,,,,256,0,4,,,,12,76,0
61440,note_off,,,,,512,0,6,,,,1,65,0
61440,note_off,,,,,0,0,6,,,,1,69,0
61440,note_off,,,,,0,0,6,,,,1,62,0
61440,note_off,,,,,512,0,2,,,,2,69,0
61440,note_off,,,,,256,0,4,,,,12,74,0
61440,note_on,,,,,0,0,4,,,,12,76,127
61440,note_off,,,,,1024,0,5,,,,3,62,0
61440,note_off,,,,,512,0,3,,,,6,65,0
61952,note_on,,,,,0,0,4,,,,12,69,127
61952,note_off,,,,,512,0,4,,,,12,76,0
61952,note_on,,,,,512,0,2,,,,2,72,62
61952,note_on,,,,,512,0,3,,,,6,64,62
61952,note_on,,,,,0,0,6,,,,1,57,75
61952,note_on,,,,,512,0,6,,,,1,64,75
61952,note_on,,,,,0,0,6,,,,1,72,75
61952,note_on,,,,,512,0,5,,,,3,57,101
62464,note_off,,,,,512,0,6,,,,1,64,0
62464,note_on,,,,,0,0,6,,,,1,64,75
62464,note_off,,,,,0,0,6,,,,1,57,0
62464,note_on,,,,,0,0,6,,,,1,57,75
62464,note_off,,,,,512,0,4,,,,12,69,0
62464,note_on,,,,,0,0,6,,,,1,72,75
62464,note_off,,,,,0,0,6,,,,1,72,0
62464,note_off,,,,,512,0,3,,,,6,64,0
62464,note_on,,,,,0,0,2,,,,2,72,62
62464,note_off,,,,,512,0,2,,,,2,72,0
62464,note_on,,,,,0,0,5,,,,3,57,101
62464,note_off,,,,,512,0,5,,,,3,57,0
62464,note_on,,,,,0,0,3,,,,6,64,62
62976,note_on,,,,,0,0,3,,,,6,64,62
62976,note_on,,,,,0,0,6,,,,1,57,75
62976,note_on,,,,,0,0,6,,,,1,72,75
62976,note_on,,,,,0,0,6,,,,1,64,75
62976,note_off,,,,,0,0,6,,,,1,72,0
62976,note_off,,,,,512,0,6,,,,1,64,0
62976,note_off,,,,,512,0,3,,,,6,64,0
62976,note_off,,,,,0,0,6,,,,1,57,0
62976,note_off,,,,,512,0,5,,,,3,57,0
62976,note_on,,,,,0,0,5,,,,3,57,101
62976,note_on,,,,,512,0,4,,,,12,81,127
62976,note_off,,,,,512,0,2,,,,2,72,0
62976,note_on,,,,,0,0,2,,,,2,72,62
63488,note_off,,,,,512,0,4,,,,12,81,0
63488,note_on,,,,,0,0,3,,,,6,64,62
63488,note_on,,,,,0,0,4,,,,12,77,127
63488,note_off,,,,,512,0,3,,,,6,64,0
63488,note_on,,,,,0,0,6,,,,1,57,75
63488,note_off,,,,,0,0,6,,,,1,57,0
63488,note_off,,,,,512,0,2,,,,2,72,0
63488,note_on,,,,,0,0,6,,,,1,64,75
63488,note_off,,,,,0,0,6,,,,1,72,0
63488,note_off,,,,,512,0,6,,,,1,64,0
63488,note_on,,,,,0,0,2,,,,2,72,62
63488,note_off,,,,,512,0,5,,,,3,57,0
63488,note_on,,,,,0,0,5,,,,3,57,101
63488,note_on,,,,,0,0,6,,,,1,72,75
63616,note_off,,,,,128,0,4,,,,12,77,0
63616,note_on,,,,,0,0,4,,,,12,76,127
63744,note_off,,,,,128,0,4,,,,12,76,0
63744,note_on,,,,,0,0,4,,,,12,77,127
63872,note_on,,,,,0,0,4,,,,12,76,127
63872,note_off,,,,,128,0,4,,,,12,77,0
64000,note_off,,,,,512,0,3,,,,6,64,0
64000,note_on,,,,,0,0,4,,,,12,74,127
64000,note_on,,,,,0,0,6,,,,1,57,75
64000,note_off,,,,,0,0,6,,,,1,57,0
64000,note_on,,,,,0,0,6,,,,1,72,75
64000,note_on,,,,,0,0,6,,,,1,69,75
64000,note_off,,,,,0,0,6,,,,1,72,0
64000,note_off,,,,,512,0,6,,,,1,64,0
64000,note_on,,,,,0,0,3,,,,6,69,62
64000,note_off,,,,,512,0,2,,,,2,72,0
64000,note_on,,,,,0,0,5,,,,3,57,101
64000,note_on,,,,,0,0,2,,,,2,72,62
64000,note_off,,,,,128,0,4,,,,12,76,0
64000,note_off,,,,,512,0,5,,,,3,57,0
64256,note_off,,,,,256,0,4,,,,12,74,0
64256,note_on,,,,,0,0,4,,,,12,72,127
64512,note_off,,,,,512,0,2,,,,2,72,0
64512,note_on,,,,,0,0,4,,,,12,76,127
64512,note_on,,,,,0,0,3,,,,6,71,62
64512,note_off,,,,,512,0,3,,,,6,69,0
64512,note_off,,,,,512,0,5,,,,3,57,0
64512,note_on,,,,,0,0,5,,,,3,62,101
64512,note_on,,,,,0,0,2,,,,2,74,62
64512,note_off,,,,,256,0,4,,,,12,72,0
64512,note_off,,,,,512,0,6,,,,1,69,0
64512,note_off,,,,,0,0,6,,,,1,72,0
64512,note_on,,,,,0,0,6,,,,1,74,75
64512,note_off,,,,,0,0,6,,,,1,57,0
64512,note_on,,,,,0,0,6,,,,1,62,75
64512,note_on,,,,,0,0,6,,,,1,71,75
64640,note_on,,,,,0,0,4,,,,12,74,127
64640,note_off,,,,,128,0,4,,,,12,76,0
64768,note_on,,,,,0,0,4,,,,12,76,127
64768,note_off,,,,,128,0,4,,,,12,74,0
64896,note_on,,,,,0,0,4,,,,12,74,127
64896,note_off,,,,,128,0,4,,,,12,76,0
65024,note_on,,,,,0,0,6,,,,1,64,75
65024,note_off,,,,,0,0,6,,,,1,62,0
65024,note_on,,,,,0,0,6,,,,1,71,75
65024,note_on,,,,,0,0,6,,,,1,68,75
65024,note_off,,,,,0,0,6,,,,1,74,0
65024,note_off,,,,,512,0,6,,,,1,71,0
65024,note_off,,,,,512,0,3,,,,6,71,0
65024,note_off,,,,,512,0,2,,,,2,74,0
65024,note_on,,,,,0,0,4,,,,12,72,127
65024,note_off,,,,,128,0,4,,,,12,74,0
65024,note_on,,,,,0,0,5,,,,3,64,101
65024,note_off,,,,,512,0,5,,,,3,62,0
65024,note_on,,,,,0,0,2,,,,2,71,62
65024,note_on,,,,,0,0,3,,,,6,68,62
65280,note_on,,,,,0,0,4,,,,12,71,127
65280,note_off,,,,,256,0,4,,,,12,72,0
65536,note_off,,,,,512,0,2,,,,2,71,0
65536,note_off,,,,,512,0,5,,,,3,64,0
65536,note_on,,,,,0,0,5,,,,3,57,101
65536,note_on,,,,,0,0,2,,,,2,72,62
65536,note_on,,,,,0,0,6,,,,1,57,75
65536,note_off,,,,,512,0,3,,,,6,68,0
65536,note_off,,,,,256,0,4,,,,12,71,0
65536,note_off,,,,,512,0,6,,,,1,68,0
65536,note_off,,,,,0,0,6,,,,1,71,0
65536,note_off,,,,,0,0,6,,,,1,64,0
65536,note_on,,,,,0,0,6,,,,1,64,75
65536,note_on,,,,,0,0,6,,,,1,72,75
65536,note_on,,,,,0,0,4,,,,12,72,127
65536,note_on,,,,,0,0,3,,,,6,64,62
66048,note_off,,,,,512,0,3,,,,6,64,0
66048,note_on,,,,,0,0,6,,,,1,57,75
66048,note_on,,,,,0,0,5,,,,3,57,101
66048,note_off,,,,,0,0,6,,,,1,57,0
66048,note_on,,,,,0,0,6,,,,1,72,75
66048,note_on,,,,,0,0,6,,,,1,64,75
66048,note_on,,,,,0,0,3,,,,6,64,62
66048,note_off,,,,,512,0,5,,,,3,57,0
66048,note_off,,,,,512,0,6,,,,1,64,0
66048,note_off,,,,,0,0,6,,,,1,72,0
66048,note_off,,,,,512,0,4,,,,12,72,0
66048,note_on,,,,,0,0,4,,,,12,69,127
66048,note_on,,,,,0,0,2,,,,2,72,62
66048,note_off,,,,,512,0,2,,,,2,72,0
66560,note_off,,,,,512,0,6,,,,1,64,0
66560,note_on,,,,,0,0,6,,,,1,57,75
66560,note_off,,,,,0,0,6,,,,1,57,0
66560,note_on,,,,,0,0,6,,,,1,72,75
66560,note_on,,,,,0,0,6,,,,1,64,75
66560,note_off,,,,,0,0,6,,,,1,72,0
66560,note_on,,,,,0,0,2,,,,2,72,62
66560,note_off,,,,,512,0,3,,,,6,64,0
66560,note_on,,,,,0,0,3,,,,6,64,62
66560,note_off,,,,,512,0,5,,,,3,57,0
66560,note_on,,,,,0,0,5,,,,3,57,101
66560,note_off,,,,,512,0,4,,,,12,69,0
66560,note_off,,,,,512,0,2,,,,2,72,0
67072,note_off,,,,,0,0,6,,,,1,57,0
67072,note_on,,,,,0,0,6,,,,1,72,36
67072,note_off,,,,,512,0,5,,,,3,57,0
67072,note_on,,,,,0,0,3,,,,6,64,36
67072,note_off,,,,,512,0,6,,,,1,64,0
67072,note_on,,,,,0,0,2,,,,2,72,36
67072,note_on,,,,,0,0,6,,,,1,57,36
67072,note_on,,,,,0,0,6,,,,1,64,36
67072,note_off,,,,,0,0,6,,,,1,72,0
67072,note_on,,,,,0,0,5,,,,3,57,49
67072,note_off,,,,,512,0,3,,,,6,64,0
67072,note_on,,,,,512,0,4,,,,12,81,62
67072,note_off,,,,,512,0,2,,,,2,72,0
67584,note_on,,,,,0,0,4,,,,12,77,62
67584,note_off,,,,,512,0,4,,,,12,81,0
67584,note_on,,,,,0,0,6,,,,1,72,36
67584,note_on,,,,,0,0,6,,,,1,64,36
67584,note_off,,,,,0,0,6,,,,1,57,0
67584,note_off,,,,,512,0,5,,,,3,57,0
67584,note_off,,,,,0,0,6,,,,1,72,0
67584,note_on,,,,,0,0,5,,,,3,57,49
67584,note_off,,,,,512,0,6,,,,1,64,0
67584,note_off,,,,,512,0,2,,,,2,72,0
67584,note_on,,,,,0,0,2,,,,2,72,36
67584,note_on,,,,,0,0,3,,,,6,64,36
67584,note_off,,,,,512,0,3,,,,6,64,0
67584,note_on,,,,,0,0,6,,,,1,57,36
67712,note_off,,,,,128,0,4,,,,12,77,0
67712,note_on,,,,,0,0,4,,,,12,76,62
67840,note_off,,,,,128,0,4,,,,12,76,0
67840,note_on,,,,,0,0,4,,,,12,77,62
67968,note_on,,,,,0,0,4,,,,12,76,62
67968,note_off,,,,,128,0,4,,,,12,77,0
68096,note_off,,,,,512,0,5,,,,3,57,0
68096,note_off,,,,,512,0,3,,,,6,64,0
68096,note_on,,,,,0,0,3,,,,6,69,36
68096,note_off,,,,,128,0,4,,,,12,76,0
68096,note_on,,,,,0,0,4,,,,12,74,62
68096,note_on,,,,,0,0,6,,,,1,57,36
68096,note_off,,,,,0,0,6,,,,1,57,0
68096,note_on,,,,,0,0,6,,,,1,72,36
68096,note_on,,,,,0,0,6,,,,1,69,36
68096,note_off,,,,,512,0,6,,,,1,64,0
68096,note_on,,,,,0,0,2,,,,2,72,36
68096,note_off,,,,,512,0,2,,,,2,72,0
68096,note_off,,,,,0,0,6,,,,1,72,0
68096,note_on,,,,,0,0,5,,,,3,57,49
68352,note_on,,,,,0,0,4,,,,12,72,62
68352,note_off,,,,,256,0,4,,,,12,74,0
68608,note_off,,,,,512,0,6,,,,1,69,0
68608,note_on,,,,,0,0,6,,,,1,74,36
68608,note_off,,,,,0,0,6,,,,1,57,0
68608,note_on,,,,,0,0,2,,,,2,74,36
68608,note_off,,,,,512,0,2,,,,2,72,0
68608,note_on,,,,,0,0,6,,,,1,62,36
68608,note_on,,,,,0,0,5,,,,3,62,49
68608,note_on,,,,,0,0,6,,,,1,71,36
68608,note_off,,,,,256,0,4,,,,12,72,0
68608,note_on,,,,,0,0,4,,,,12,76,62
68608,note_on,,,,,0,0,3,,,,6,71,36
68608,note_off,,,,,0,0,6,,,,1,72,0
68608,note_off,,,,,512,0,5,,,,3,57,0
68608,note_off,,,,,512,0,3,,,,6,69,0
68736,note_off,,,,,128,0,4,,,,12,76,0
68736,note_on,,,,,0,0,4,,,,12,74,62
68864,note_off,,,,,128,0,4,,,,12,74,0
68864,note_on,,,,,0,0,4,,,,12,76,62
68992,note_off,,,,,128,0,4,,,,12,76,0
68992,note_on,,,,,0,0,4,,,,12,74,62
69120,note_on,,,,,0,0,6,,,,1,68,36
69120,note_off,,,,,0,0,6,,,,1,74,0
69120,note_off,,,,,512,0,6,,,,1,71,0
69120,note_off,,,,,512,0,2,,,,2,74,0
69120,note_on,,,,,0,0,4,,,,12,72,62
69120,note_on,,,,,0,0,6,,,,1,71,36
69120,note_off,,,,,128,0,4,,,,12,74,0
69120,note_on,,,,,0,0,6,,,,1,64,36
69120,note_off,,,,,0,0,6,,,,1,62,0
69120,note_on,,,,,0,0,2,,,,2,71,36
69120,note_on,,,,,0,0,3,,,,6,68,36
69120,note_off,,,,,512,0,3,,,,6,71,0
69120,note_off,,,,,512,0,5,,,,3,62,0
69120,note_on,,,,,0,0,5,,,,3,64,49
69376,note_on,,,,,0,0,4,,,,12,71,62
69376,note_off,,,,,256,0,4,,,,12,72,0
69632,note_off,,,,,512,0,3,,,,6,68,0
69632,note_off,,,,,256,0,4,,,,12,71,0
69632,note_off,,,,,512,0,5,,,,3,64,0
69632,note_on,,,,,0,0,5,,,,3,57,49
69632,note_on,,,,,0,0,6,,,,1,57,36
69632,note_on,,,,,0,0,6,,,,1,72,36
69632,note_on,,,,,0,0,6,,,,1,64,36
69632,note_off,,,,,0,0,6,,,,1,64,0
69632,note_off,,,,,0,0,6,,,,1,71,0
69632,note_on,,,,,0,0,4,,,,12,72,62
69632,note_on,,,,,0,0,3,,,,6,64,36
69632,note_off,,,,,512,0,6,,,,1,68,0
69632,note_off,,,,,512,0,2,,,,2,71,0
69632,note_on,,,,,0,0,2,,,,2,72,36
70144,note_off,,,,,512,0,3,,,,6,64,0
70144,note_on,,,,,0,0,4,,,,12,69,62
70144,note_off,,,,,512,0,4,,,,12,72,0
70144,note_on,,,,,0,0,2,,,,2,72,36
70144,note_on,,,,,0,0,6,,,,1,57,36
70144,note_off,,,,,0,0,6,,,,1,57,0
70144,note_on,,,,,0,0,6,,,,1,72,36
70144,note_on,,,,,0,0,6,,,,1,64,36
70144,note_on,,,,,0,0,3,,,,6,64,36
70144,note_off,,,,,512,0,2,,,,2,72,0
70144,note_off,,,,,512,0,6,,,,1,64,0
70144,note_off,,,,,512,0,5,,,,3,57,0
70144,note_on,,,,,0,0,5,,,,3,57,49
70144,note_off,,,,,0,0,6,,,,1,72,0
70656,note_off,,,,,0,0,6,,,,1,72,0
70656,note_off,,,,,512,0,6,,,,1,64,0
70656,note_on,,,,,0,0,6,,,,1,64,36
70656,note_on,,,,,0,0,6,,,,1,72,36
70656,note_on,,,,,0,0,6,,,,1,57,36
70656,note_on,,,,,0,0,5,,,,3,57,49
70656,note_off,,,,,512,0,4,,,,12,69,0
70656,note_on,,,,,0,0,3,,,,6,64,36
70656,note_off,,,,,512,0,3,,,,6,64,0
70656,note_off,,,,,512,0,5,,,,3,57,0
70656,note_off,,,,,0,0,6,,,,1,57,0
70656,note_off,,,,,512,0,2,,,,2,72,0
70656,note_on,,,,,0,0,2,,,,2,72,36
71168,note_on,,,,,0,0,2,,,,2,72,62
71168,note_on,,,,,0,0,6,,,,1,64,75
71168,note_on,,,,,512,0,4,,,,12,76,127
71168,note_on,,,,,0,0,3,,,,6,64,62
71168,note_off,,,,,512,0,3,,,,6,64,0
71168,note_on,,,,,0,0,6,,,,1,72,75
71168,note_off,,,,,512,0,2,,,,2,72,0
71168,note_off,,,,,0,0,6,,,,1,72,0
71168,note_off,,,,,512,0,6,,,,1,64,0
71168,note_off,,,,,512,0,5,,,,3,57,0
71168,note_on,,,,,0,0,5,,,,3,57,101
71168,note_on,,,,,0,0,6,,,,1,57,75
71168,note_off,,,,,0,0,6,,,,1,57,0
71680,note_off,,,,,512,0,6,,,,1,64,0
71680,note_on,,,,,0,0,4,,,,12,77,127
71680,note_off,,,,,512,0,4,,,,12,76,0
71680,note_off,,,,,0,0,6,,,,1,72,0
71680,note_off,,,,,0,0,6,,,,1,57,0
71680,note_off,,,,,512,0,5,,,,3,57,0
71680,note_off,,,,,512,0,3,,,,6,64,0
71680,note_off,,,,,512,0,2,,,,2,72,0
72192,note_on,,,,,512,0,2,,,,2,69,62
72192,note_on,,,,,512,0,5,,,,3,62,101
72192,note_on,,,,,512,0,3,,,,6,65,62
72192,note_on,,,,,0,0,6,,,,1,62,75
72192,note_on,,,,,0,0,6,,,,1,69,75
72192,note_on,,,,,512,0,6,,,,1,65,75
72704,note_on,,,,,0,0,6,,,,1,62,75
72704,note_off,,,,,0,0,6,,,,1,62,0
72704,note_on,,,,,0,0,6,,,,1,69,75
72704,note_off,,,,,0,0,6,,,,1,69,0
72704,note_off,,,,,512,0,6,,,,1,65,0
72704,note_off,,,,,512,0,2,,,,2,69,0
72704,note_on,,,,,0,0,6,,,,1,65,75
72704,note_on,,,,,0,0,3,,,,6,65,62
72704,note_off,,,,,512,0,3,,,,6,65,0
72704,note_off,,,,,512,0,5,,,,3,62,0
72704,note_on,,,,,0,0,5,,,,3,62,101
72704,note_on,,,,,0,0,2,,,,2,69,62
73216,note_off,,,,,0,0,6,,,,1,62,0
73216,note_off,,,,,512,0,2,,,,2,69,0
73216,note_on,,,,,0,0,2,,,,2,69,62
73216,note_on,,,,,0,0,3,,,,6,65,62
73216,note_off,,,,,512,0,3,,,,6,65,0
73216,note_on,,,,,0,0,5,,,,3,62,101
73216,note_off,,,,,512,0,6,,,,1,65,0
73216,note_off,,,,,0,0,6,,,,1,69,0
73216,note_on,,,,,0,0,6,,,,1,65,75
73216,note_on,,,,,0,0,6,,,,1,69,75
73216,note_on,,,,,0,0,6,,,,1,62,75
73216,note_off,,,,,512,0,5,,,,3,62,0
73728,note_on,,,,,0,0,6,,,,1,62,75
73728,note_on,,,,,0,0,5,,,,3,55,101
73728,note_off,,,,,512,0,2,,,,2,69,0
73728,note_on,,,,,0,0,2,,,,2,71,62
73728,note_off,,,,,512,0,5,,,,3,62,0
73728,note_on,,,,,0,0,3,,,,6,62,62
73728,note_on,,,,,0,0,6,,,,1,71,75
73728,note_on,,,,,0,0,6,,,,1,55,75
73728,note_off,,,,,512,0,6,,,,1,65,0
73728,note_off,,,,,0,0,6,,,,1,69,0
73728,note_off,,,,,0,0,6,,,,1,62,0
73728,note_off,,,,,512,0,3,,,,6,65,0
73984,note_off,,,,,2304,0,4,,,,12,77,0
73984,note_on,,,,,0,0,4,,,,12,79,127
74240,note_off,,,,,256,0,4,,,,12,79,0
74240,note_on,,,,,0,0,4,,,,12,81,127
74496,note_off,,,,,256,0,4,,,,12,81,0
74496,note_on,,,,,0,0,4,,,,12,79,127
74752,note_off,,,,,1024,0,3,,,,6,62,0
74752,note_off,,,,,1024,0,2,,,,2,71,0
74752,note_on,,,,,0,0,4,,,,12,81,127
74752,note_off,,,,,1024,0,5,,,,3,55,0
74752,note_off,,,,,1024,0,6,,,,1,62,0
74752,note_off,,,,,0,0,6,,,,1,71,0
74752,note_off,,,,,0,0,6,,,,1,55,0
74752,note_off,,,,,256,0,4,,,,12,79,0
75008,note_off,,,,,256,0,4,,,,12,81,0
75008,note_on,,,,,0,0,4,,,,12,77,127
75264,note_on,,,,,0,0,4,,,,12,76,127
75264,note_off,,,,,256,0,4,,,,12,77,0
75520,note_on,,,,,0,0,4,,,,12,74,127
75520,note_off,,,,,256,0,4,,,,12,76,0
75776,note_on,,,,,0,0,4,,,,12,76,127
75776,note_off,,,,,256,0,4,,,,12,74,0
76288,note_on,,,,,1536,0,6,,,,1,64,75
76288,note_on,,,,,0,0,6,,,,1,67,75
76288,note_on,,,,,1536,0,3,,,,6,64,62
76288,note_on,,,,,1536,0,2,,,,2,67,62
76288,note_on,,,,,0,0,6,,,,1,60,75
76288,note_on,,,,,1536,0,5,,,,3,60,101
76800,note_on,,,,,0,0,6,,,,1,67,75
76800,note_on,,,,,0,0,6,,,,1,64,75
76800,note_on,,,,,0,0,6,,,,1,60,75
76800,note_off,,,,,0,0,6,,,,1,60,0
76800,note_off,,,,,512,0,2,,,,2,67,0
76800,note_on,,,,,0,0,3,,,,6,64,62
76800,note_on,,,,,0,0,2,,,,2,67,62
76800,note_off,,,,,512,0,5,,,,3,60,0
76800,note_off,,,,,0,0,6,,,,1,67,0
76800,note_off,,,,,512,0,6,,,,1,64,0
76800,note_off,,,,,512,0,3,,,,6,64,0
76800,note_on,,,,,0,0,5,,,,3,60,101
77312,note_on,,,,,0,0,6,,,,1,60,75
77312,note_off,,,,,0,0,6,,,,1,60,0
77312,note_on,,,,,0,0,6,,,,1,67,75
77312,note_on,,,,,0,0,2,,,,2,67,62
77312,note_off,,,,,512,0,2,,,,2,67,0
77312,note_on,,,,,0,0,5,,,,3,60,101
77312,note_off,,,,,512,0,6,,,,1,64,0
77312,note_on,,,,,0,0,6,,,,1,64,75
77312,note_off,,,,,0,0,6,,,,1,67,0
77312,note_on,,,,,0,0,3,,,,6,64,62
77312,note_off,,,,,512,0,3,,,,6,64,0
77312,note_off,,,,,512,0,5,,,,3,60,0
77824,note_on,,,,,0,0,3,,,,6,60,62
77824,note_off,,,,,512,0,3,,,,6,64,0
77824,note_off,,,,,512,0,6,,,,1,64,0
77824,note_off,,,,,0,0,6,,,,1,67,0
77824,note_off,,,,,0,0,6,,,,1,60,0
77824,note_on,,,,,0,0,6,,,,1,60,75
77824,note_off,,,,,512,0,2,,,,2,67,0
77824,note_on,,,,,0,0,6,,,,1,69,75
77824,note_on,,,,,0,0,5,,,,3,53,101
77824,note_off,,,,,512,0,5,,,,3,60,0
77824,note_on,,,,,0,0,6,,,,1,53,75
77824,note_on,,,,,0,0,2,,,,2,69,62
78080,note_off,,,,,2304,0,4,,,,12,76,0
78080,note_on,,,,,0,0,4,,,,12,77,127
78336,note_off,,,,,256,0,4,,,,12,77,0
78336,note_on,,,,,0,0,4,,,,12,79,127
78592,note_on,,,,,0,0,4,,,,12,77,127
78592,note_off,,,,,256,0,4,,,,12,79,0
78848,note_on,,,,,0,0,4,,,,12,79,127
78848,note_off,,,,,1024,0,3,,,,6,60,0
78848,note_off,,,,,256,0,4,,,,12,77,0
78848,note_off,,,,,1024,0,5,,,,3,53,0
78848,note_off,,,,,1024,0,2,,,,2,69,0
78848,note_off,,,,,1024,0,6,,,,1,60,0
78848,note_off,,,,,0,0,6,,,,1,69,0
78848,note_off,,,,,0,0,6,,,,1,53,0
79104,note_on,,,,,0,0,4,,,,12,76,127
79104,note_off,,,,,256,0,4,,,,12,79,0
79360,note_off,,,,,256,0,4,,,,12,76,0
79360,note_on,,,,,0,0,4,,,,12,74,127
79616,note_on,,,,,0,0,4,,,,12,72,127
79616,note_off,,,,,256,0,4,,,,12,74,0
79872,note_on,,,,,0,0,4,,,,12,71,127
79872,note_off,,,,,256,0,4,,,,12,72,0
80128,note_off,,,,,256,0,4,,,,12,71,0
80128,note_on,,,,,0,0,4,,,,12,72,127
80384,note_off,,,,,256,0,4,,,,12,72,0
80384,note_on,,,,,0,0,4,,,,12,74,127
80384,note_on,,,,,1536,0,2,,,,2,74,62
80384,note_on,,,,,0,0,6,,,,1,55,75
80384,note_on,,,,,0,0,6,,,,1,74,75
80384,note_on,,,,,1536,0,6,,,,1,71,75
80384,note_on,,,,,1536,0,3,,,,6,71,62
80384,note_on,,,,,1536,0,5,,,,3,55,101
80640,note_off,,,,,256,0,4,,,,12,74,0
80640,note_on,,,,,0,0,4,,,,12,76,127
80896,note_on,,,,,0,0,5,,,,3,55,101
80896,note_off,,,,,512,0,5,,,,3,55,0
80896,note_off,,,,,256,0,4,,,,12,76,0
80896,note_on,,,,,0,0,6,,,,1,74,75
80896,note_off,,,,,512,0,2,,,,2,74,0
80896,note_on,,,,,0,0,2,,,,2,74,62
80896,note_off,,,,,512,0,3,,,,6,71,0
80896,note_on,,,,,0,0,3,,,,6,71,62
80896,note_off,,,,,512,0,6,,,,1,71,0
80896,note_off,,,,,0,0,6,,,,1,74,0
80896,note_on,,,,,0,0,6,,,,1,71,75
80896,note_off,,,,,0,0,6,,,,1,55,0
80896,note_on,,,,,0,0,6,,,,1,55,75
80896,note_on,,,,,0,0,4,,,,12,79,127
81024,note_off,,,,,128,0,4,,,,12,79,0
81024,note_on,,,,,0,0,4,,,,12,77,127
81152,note_on,,,,,0,0,4,,,,12,79,127
81152,note_off,,,,,128,0,4,,,,12,77,0
81280,note_on,,,,,0,0,4,,,,12,77,127
81280,note_off,,,,,128,0,4,,,,12,79,0
81408,note_on,,,,,0,0,6,,,,1,71,75
81408,note_on,,,,,0,0,6,,,,1,74,75
81408,note_off,,,,,0,0,6,,,,1,55,0
81408,note_on,,,,,0,0,6,,,,1,55,75
81408,note_off,,,,,0,0,6,,,,1,74,0
81408,note_off,,,,,512,0,6,,,,1,71,0
81408,note_off,,,,,512,0,5,,,,3,55,0
81408,note_on,,,,,0,0,2,,,,2,74,62
81408,note_off,,,,,128,0,4,,,,12,77,0
81408,note_on,,,,,0,0,4,,,,12,76,127
81408,note_on,,,,,0,0,5,,,,3,55,101
81408,note_off,,,,,512,0,2,,,,2,74,0
81408,note_off,,,,,512,0,3,,,,6,71,0
81408,note_on,,,,,0,0,3,,,,6,71,62
81664,note_off,,,,,256,0,4,,,,12,76,0
81664,note_on,,,,,0,0,4,,,,12,74,127
81920,note_off,,,,,0,0,6,,,,1,74,0
81920,note_off,,,,,512,0,6,,,,1,71,0
81920,note_off,,,,,256,0,4,,,,12,74,0
81920,note_on,,,,,0,0,4,,,,12,76,127
81920,note_on,,,,,0,0,3,,,,6,67,62
81920,note_off,,,,,0,0,6,,,,1,55,0
81920,note_off,,,,,512,0,5,,,,3,55,0
81920,note_on,,,,,0,0,5,,,,3,60,101
81920,note_on,,,,,0,0,6,,,,1,60,75
81920,note_on,,,,,0,0,6,,,,1,76,75
81920,note_on,,,,,0,0,2,,,,2,76,62
81920,note_off,,,,,512,0,2,,,,2,74,0
81920,note_off,,,,,512,0,3,,,,6,71,0
81920,note_on,,,,,0,0,6,,,,1,67,75
82176,note_on,,,,,0,0,4,,,,12,74,127
82176,note_off,,,,,256,0,4,,,,12,76,0
82432,note_on,,,,,0,0,6,,,,1,64,75
82432,note_on,,,,,0,0,6,,,,1,67,75
82432,note_on,,,,,0,0,6,,,,1,72,75
82432,note_off,,,,,0,0,6,,,,1,76,0
82432,note_off,,,,,512,0,6,,,,1,67,0
82432,note_off,,,,,512,0,5,,,,3,60,0
82432,note_on,,,,,0,0,2,,,,2,72,62
82432,note_on,,,,,0,0,5,,,,3,48,101
82432,note_off,,,,,0,0,6,,,,1,60,0
82432,note_off,,,,,512,0,3,,,,6,67,0
82432,note_on,,,,,0,0,4,,,,12,72,127
82432,note_off,,,,,256,0,4,,,,12,74,0
82432,note_off,,,,,512,0,2,,,,2,76,0
82432,note_on,,,,,0,0,6,,,,1,48,75
82432,note_on,,,,,0,0,3,,,,6,64,62
82944,note_off,,,,,0,0,6,,,,1,72,0
82944,note_on,,,,,0,0,5,,,,3,48,101
82944,note_off,,,,,512,0,5,,,,3,48,0
82944,note_off,,,,,512,0,3,,,,6,64,0
82944,note_on,,,,,0,0,3,,,,6,64,62
82944,note_off,,,,,512,0,6,,,,1,64,0
82944,note_off,,,,,0,0,6,,,,1,67,0
82944,note_on,,,,,0,0,2,,,,2,72,62
82944,note_on,,,,,0,0,6,,,,1,64,75
82944,note_on,,,,,0,0,6,,,,1,67,75
82944,note_on,,,,,0,0,6,,,,1,72,75
82944,note_off,,,,,0,0,6,,,,1,48,0
82944,note_on,,,,,0,0,6,,,,1,48,75
82944,note_off,,,,,512,0,2,,,,2,72,0
82944,note_off,,,,,512,0,4,,,,12,72,0
83456,note_on,,,,,0,0,6,,,,1,36,75
83456,note_off,,,,,512,0,6,,,,1,48,0
83456,note_on,,,,,0,0,5,,,,3,36,101
83456,note_off,,,,,512,0,5,,,,3,48,0
83456,note_on,,,,,512,0,4,,,,12,67,127
83968,note_off,,,,,1024,0,3,,,,6,64,0
83968,note_off,,,,,0,0,6,,,,1,36,0
83968,note_off,,,,,0,0,6,,,,1,72,0
83968,note_off,,,,,0,0,6,,,,1,67,0
83968,note_off,,,,,512,0,6,,,,1,64,0
83968,note_off,,,,,1024,0,2,,,,2,72,0
83968,note_on,,,,,0,0,4,,,,12,69,127
83968,note_off,,,,,512,0,4,,,,12,67,0
83968,note_off,,,,,512,0,5,,,,3,36,0
84480,note_on,,,,,512,0,2,,,,2,69,62
84480,note_on,,,,,512,0,5,,,,3,53,101
84480,note_on,,,,,0,0,6,,,,1,69,75
84480,note_on,,,,,512,0,6,,,,1,60,75
84480,note_on,,,,,0,0,6,,,,1,53,75
84480,note_on,,,,,512,0,3,,,,6,60,62
84992,note_off,,,,,512,0,3,,,,6,60,0
84992,note_off,,,,,512,0,6,,,,1,60,0
84992,note_off,,,,,512,0,2,,,,2,69,0
84992,note_on,,,,,0,0,2,,,,2,69,62
84992,note_on,,,,,0,0,5,,,,3,53,101
84992,note_off,,,,,0,0,6,,,,1,69,0
84992,note_off,,,,,512,0,5,,,,3,53,0
84992,note_on,,,,,0,0,6,,,,1,69,75
84992,note_off,,,,,0,0,6,,,,1,53,0
84992,note_on,,,,,0,0,6,,,,1,53,75
84992,note_on,,,,,0,0,3,,,,6,60,62
84992,note_on,,,,,0,0,6,,,,1,60,75
85504,note_off,,,,,512,0,5,,,,3,53,0
85504,note_on,,,,,0,0,2,,,,2,69,62
85504,note_off,,,,,512,0,2,,,,2,69,0
85504,note_on,,,,,0,0,3,,,,6,60,62
85504,note_off,,,,,512,0,3,,,,6,60,0
85504,note_on,,,,,0,0,6,,,,1,53,75
85504,note_on,,,,,0,0,5,,,,3,53,101
85504,note_off,,,,,0,0,6,,,,1,69,0
85504,note_off,,,,,512,0,6,,,,1,60,0
85504,note_on,,,,,0,0,6,,,,1,60,75
85504,note_on,,,,,0,0,6,,,,1,69,75
85504,note_off,,,,,0,0,6,,,,1,53,0
86016,note_off,,,,,512,0,6,,,,1,60,0
86016,note_on,,,,,0,0,4,,,,12,72,127
86016,note_off,,,,,2048,0,4,,,,12,69,0
86016,note_off,,,,,0,0,6,,,,1,53,0
86016,note_off,,,,,0,0,6,,,,1,69,0
86016,note_off,,,,,512,0,3,,,,6,60,0
86016,note_off,,,,,512,0,2,,,,2,69,0
86016,note_off,,,,,512,0,5,,,,3,53,0
86528,note_on,,,,,512,0,5,,,,3,53,101
86528,note_on,,,,,512,0,2,,,,2,69,62
86528,note_on,,,,,512,0,3,,,,6,60,62
86528,note_on,,,,,512,0,6,,,,1,60,75
86528,note_on,,,,,0,0,6,,,,1,69,75
86528,note_on,,,,,0,0,6,,,,1,53,75
87040,note_off,,,,,512,0,6,,,,1,60,0
87040,note_on,,,,,0,0,5,,,,3,53,101
87040,note_off,,,,,512,0,5,,,,3,53,0
87040,note_on,,,,,0,0,2,,,,2,69,62
87040,note_off,,,,,512,0,2,,,,2,69,0
87040,note_off,,,,,0,0,6,,,,1,69,0
87040,note_on,,,,,0,0,6,,,,1,69,75
87040,note_on,,,,,0,0,6,,,,1,60,75
87040,note_off,,,,,0,0,6,,,,1,53,0
87040,note_on,,,,,0,0,6,,,,1,53,75
87040,note_off,,,,,512,0,3,,,,6,60,0
87040,note_on,,,,,0,0,3,,,,6,60,62
87552,note_off,,,,,0,0,6,,,,1,69,0
87552,note_on,,,,,0,0,6,,,,1,53,75
87552,note_on,,,,,0,0,5,,,,3,53,101
87552,note_on,,,,,0,0,2,,,,2,69,62
87552,note_off,,,,,512,0,6,,,,1,60,0
87552,note_off,,,,,512,0,5,,,,3,53,0
87552,note_on,,,,,0,0,6,,,,1,60,75
87552,note_off,,,,,0,0,6,,,,1,53,0
87552,note_on,,,,,0,0,6,,,,1,69,75
87552,note_off,,,,,512,0,3,,,,6,60,0
87552,note_on,,,,,0,0,3,,,,6,60,62
87552,note_off,,,,,512,0,2,,,,2,69,0
88064,note_off,,,,,512,0,6,,,,1,60,0
88064,note_off,,,,,0,0,6,,,,1,69,0
88064,note_off,,,,,512,0,3,,,,6,60,0
88064,note_off,,,,,2048,0,4,,,,12,72,0
88064,note_on,,,,,0,0,4,,,,12,77,127
88064,note_off,,,,,512,0,5,,,,3,53,0
88064,note_off,,,,,512,0,2,,,,2,69,0
88064,note_off,,,,,0,0,6,,,,1,53,0
88320,note_off,,,,,256,0,4,,,,12,77,0
88320,note_on,,,,,0,0,4,,,,12,76,127
88576,note_on,,,,,512,0,5,,,,3,53,101
88576,note_on,,,,,0,0,6,,,,1,53,75
88576,note_on,,,,,0,0,6,,,,1,69,75
88576,note_on,,,,,512,0,6,,,,1,62,75
88576,note_on,,,,,512,0,2,,,,2,69,62
88576,note_on,,,,,512,0,3,,,,6,62,62
88576,note_on,,,,,0,0,4,,,,12,74,127
88576,note_off,,,,,256,0,4,,,,12,76,0
88832,note_on,,,,,0,0,4,,,,12,72,127
88832,note_off,,,,,256,0,4,,,,12,74,0
89088,note_on,,,,,0,0,2,,,,2,69,62
89088,note_off,,,,,512,0,2,,,,2,69,0
89088,note_off,,,,,256,0,4,,,,12,72,0
89088,note_on,,,,,0,0,4,,,,12,74,127
89088,note_on,,,,,0,0,5,,,,3,53,101
89088,note_off,,,,,512,0,5,,,,3,53,0
89088,note_off,,,,,512,0,6,,,,1,62,0
89088,note_on,,,,,0,0,6,,,,1,62,75
89088,note_off,,,,,0,0,6,,,,1,69,0
89088,note_on,,,,,0,0,3,,,,6,62,62
89088,note_on,,,,,0,0,6,,,,1,69,75
89088,note_off,,,,,0,0,6,,,,1,53,0
89088,note_off,,,,,512,0,3,,,,6,62,0
89088,note_on,,,,,0,0,6,,,,1,53,75
89344,note_on,,,,,0,0,4,,,,12,72,127
89344,note_off,,,,,256,0,4,,,,12,74,0
89600,note_off,,,,,512,0,3,,,,6,62,0
89600,note_on,,,,,0,0,2,,,,2,69,62
89600,note_on,,,,,0,0,4,,,,12,71,127
89600,note_off,,,,,256,0,4,,,,12,72,0
89600,note_off,,,,,512,0,6,,,,1,62,0
89600,note_on,,,,,0,0,5,,,,3,53,101
89600,note_off,,,,,512,0,5,,,,3,53,0
89600,note_off,,,,,0,0,6,,,,1,69,0
89600,note_on,,,,,0,0,6,,,,1,62,75
89600,note_on,,,,,0,0,6,,,,1,69,75
89600,note_off,,,,,0,0,6,,,,1,53,0
89600,note_on,,,,,0,0,3,,,,6,62,62
89600,note_on,,,,,0,0,6,,,,1,53,75
89600,note_off,,,,,512,0,2,,,,2,69,0
89856,note_on,,,,,0,0,4,,,,12,69,127
89856,note_off,,,,,256,0,4,,,,12,71,0
90112,note_off,,,,,512,0,2,,,,2,69,0
90112,note_off,,,,,512,0,6,,,,1,62,0
90112,note_off,,,,,256,0,4,,,,12,69,0
90112,note_off,,,,,512,0,3,,,,6,62,0
90112,note_off,,,,,0,0,6,,,,1,69,0
90112,note_off,,,,,512,0,5,,,,3,53,0
90112,note_off,,,,,0,0,6,,,,1,53,0
90112,note_on,,,,,0,0,4,,,,12,71,127
90624,note_on,,,,,512,0,5,,,,3,55,101
90624,note_on,,,,,0,0,6,,,,1,55,75
90624,note_on,,,,,512,0,6,,,,1,62,75
90624,note_on,,,,,512,0,3,,,,6,62,62
90624,note_on,,,,,512,0,2,,,,2,71,62
90624,note_on,,,,,0,0,6,,,,1,71,75
91136,note_on,,,,,0,0,5,,,,3,55,101
91136,note_on,,,,,0,0,6,,,,1,55,75
91136,note_off,,,,,0,0,6,,,,1,55,0
91136,note_off,,,,,512,0,5,,,,3,55,0
91136,note_on,,,,,0,0,6,,,,1,62,75
91136,note_on,,,,,0,0,6,,,,1,71,75
91136,note_off,,,,,512,0,6,,,,1,62,0
91136,note_off,,,,,512,0,3,,,,6,62,0
91136,note_on,,,,,0,0,3,,,,6,62,62
91136,note_off,,,,,512,0,2,,,,2,71,0
91136,note_on,,,,,0,0,2,,,,2,71,62
91136,note_off,,,,,0,0,6,,,,1,71,0
91648,note_on,,,,,0,0,6,,,,1,55,75
91648,note_off,,,,,0,0,6,,,,1,55,0
91648,note_on,,,,,0,0,6,,,,1,71,75
91648,note_off,,,,,512,0,3,,,,6,62,0
91648,note_on,,,,,0,0,3,,,,6,62,62
91648,note_on,,,,,0,0,2,,,,2,71,62
91648,note_off,,,,,512,0,2,,,,2,71,0
91648,note_on,,,,,0,0,5,,,,3,55,101
91648,note_off,,,,,512,0,5,,,,3,55,0
91648,note_on,,,,,0,0,6,,,,1,62,75
91648,note_off,,,,,0,0,6,,,,1,71,0
91648,note_off,,,,,512,0,6,,,,1,62,0
92160,note_off,,,,,512,0,3,,,,6,62,0
92160,note_on,,,,,0,0,4,,,,12,74,127
92160,note_off,,,,,512,0,2,,,,2,71,0
92160,note_off,,,,,512,0,5,,,,3,55,0
92160,note_off,,,,,512,0,6,,,,1,62,0
92160,note_off,,,,,0,0,6,,,,1,71,0
92160,note_off,,,,,0,0,6,,,,1,55,0
92160,note_off,,,,,2048,0,4,,,,12,71,0
92672,note_on,,,,,512,0,3,,,,6,62,62
92672,note_on,,,,,512,0,5,,,,3,55,101
92672,note_on,,,,,512,0,6,,,,1,62,75
92672,note_on,,,,,0,0,6,,,,1,71,75
92672,note_on,,,,,0,0,6,,,,1,55,75
92672,note_on,,,,,512,0,2,,,,2,71,62
93184,note_off,,,,,512,0,6,,,,1,62,0
93184,note_off,,,,,512,0,3,,,,6,62,0
93184,note_off,,,,,512,0,5,,,,3,55,0
93184,note_off,,,,,0,0,6,,,,1,71,0
93184,note_on,,,,,0,0,5,,,,3,55,101
93184,note_on,,,,,0,0,6,,,,1,55,75
93184,note_off,,,,,0,0,6,,,,1,55,0
93184,note_on,,,,,0,0,6,,,,1,71,75
93184,note_on,,,,,0,0,6,,,,1,62,75
93184,note_off,,,,,512,0,2,,,,2,71,0
93184,note_on,,,,,0,0,2,,,,2,71,62
93184,note_on,,,,,0,0,3,,,,6,62,62
93696,note_on,,,,,0,0,3,,,,6,62,62
93696,note_on,,,,,0,0,5,,,,3,55,101
93696,note_off,,,,,512,0,5,,,,3,55,0
93696,note_off,,,,,512,0,3,,,,6,62,0
93696,note_off,,,,,512,0,6,,,,1,62,0
93696,note_on,,,,,0,0,6,,,,1,71,75
93696,note_on,,,,,0,0,6,,,,1,55,75
93696,note_off,,,,,0,0,6,,,,1,55,0
93696,note_on,,,,,0,0,6,,,,1,62,75
93696,note_off,,,,,512,0,2,,,,2,71,0
93696,note_on,,,,,0,0,2,,,,2,71,62
93696,note_off,,,,,0,0,6,,,,1,71,0
94208,note_off,,,,,512,0,2,,,,2,71,0
94208,note_on,,,,,0,0,4,,,,12,79,127
94208,note_off,,,,,0,0,6,,,,1,55,0
94208,note_off,,,,,512,0,5,,,,3,55,0
94208,note_off,,,,,2048,0,4,,,,12,74,0
94208,note_off,,,,,512,0,3,,,,6,62,0
94208,note_off,,,,,0,0,6,,,,1,71,0
94208,note_off,,,,,512,0,6,,,,1,62,0
94464,note_off,,,,,256,0,4,,,,12,79,0
94464,note_on,,,,,0,0,4,,,,12,77,127
94720,note_on,,,,,512,0,5,,,,3,55,101
94720,note_on,,,,,512,0,6,,,,1,64,75
94720,note_on,,,,,512,0,3,,,,6,64,62
94720,note_off,,,,,256,0,4,,,,12,77,0
94720,note_on,,,,,0,0,6,,,,1,71,75
94720,note_on,,,,,512,0,2,,,,2,71,62
94720,note_on,,,,,0,0,4,,,,12,76,127
94720,note_on,,,,,0,0,6,,,,1,55,75
94976,note_off,,,,,256,0,4,,,,12,76,0
94976,note_on,,,,,0,0,4,,,,12,74,127
95232,note_off,,,,,512,0,5,,,,3,55,0
95232,note_on,,,,,0,0,5,,,,3,55,101
95232,note_off,,,,,0,0,6,,,,1,71,0
95232,note_off,,,,,256,0,4,,,,12,74,0
95232,note_on,,,,,0,0,6,,,,1,64,75
95232,note_on,,,,,0,0,6,,,,1,71,75
95232,note_off,,,,,0,0,6,,,,1,55,0
95232,note_on,,,,,0,0,6,,,,1,55,75
95232,note_off,,,,,512,0,3,,,,6,64,0
95232,note_on,,,,,0,0,3,,,,6,64,62
95232,note_on,,,,,0,0,4,,,,12,76,127
95232,note_off,,,,,512,0,6,,,,1,64,0
95232,note_on,,,,,0,0,2,,,,2,71,62
95232,note_off,,,,,512,0,2,,,,2,71,0
95488,note_off,,,,,256,0,4,,,,12,76,0
95488,note_on,,,,,0,0,4,,,,12,74,127
95744,note_off,,,,,512,0,2,,,,2,71,0
95744,note_off,,,,,256,0,4,,,,12,74,0
95744,note_on,,,,,0,0,4,,,,12,72,127
95744,note_on,,,,,0,0,6,,,,1,55,75
95744,note_off,,,,,0,0,6,,,,1,55,0
95744,note_on,,,,,0,0,6,,,,1,71,75
95744,note_on,,,,,0,0,6,,,,1,64,75
95744,note_off,,,,,0,0,6,,,,1,71,0
95744,note_off,,,,,512,0,6,,,,1,64,0
95744,note_on,,,,,0,0,3,,,,6,64,62
95744,note_off,,,,,512,0,3,,,,6,64,0
95744,note_off,,,,,512,0,5,,,,3,55,0
95744,note_on,,,,,0,0,5,,,,3,55,101
95744,note_on,,,,,0,0,2,,,,2,71,62
96000,note_on,,,,,0,0,4,,,,12,71,127
96000,note_off,,,,,256,0,4,,,,12,72,0
96256,note_off,,,,,512,0,6,,,,1,64,0
96256,note_off,,,,,0,0,6,,,,1,71,0
96256,note_off,,,,,0,0,6,,,,1,55,0
96256,note_off,,,,,512,0,2,,,,2,71,0
96256,note_off,,,,,512,0,5,,,,3,55,0
96256,note_off,,,,,512,0,3,,,,6,64,0
96256,note_off,,,,,256,0,4,,,,12,71,0
96256,note_on,,,,,0,0,4,,,,12,72,127
96768,note_on,,,,,512,0,5,,,,3,57,101
96768,note_on,,,,,512,0,2,,,,2,72,62
96768,note_on,,,,,512,0,3,,,,6,64,62
96768,note_on,,,,,512,0,6,,,,1,64,75
96768,note_on,,,,,0,0,6,,,,1,72,75
96768,note_on,,,,,0,0,6,,,,1,57,75
97280,note_off,,,,,512,0,5,,,,3,57,0
97280,note_on,,,,,0,0,5,,,,3,57,101
97280,note_off,,,,,512,0,3,,,,6,64,0
97280,note_on,,,,,0,0,3,,,,6,64,62
97280,note_on,,,,,0,0,2,,,,2,72,62
97280,note_off,,,,,0,0,6,,,,1,72,0
97280,note_off,,,,,512,0,6,,,,1,64,0
97280,note_on,,,,,0,0,6,,,,1,72,75
97280,note_on,,,,,0,0,6,,,,1,64,75
97280,note_off,,,,,512,0,2,,,,2,72,0
97280,note_off,,,,,0,0,6,,,,1,57,0
97280,note_on,,,,,0,0,6,,,,1,57,75
97792,note_off,,,,,512,0,6,,,,1,64,0
97792,note_off,,,,,512,0,2,,,,2,72,0
97792,note_on,,,,,0,0,2,,,,2,72,62
97792,note_off,,,,,512,0,5,,,,3,57,0
97792,note_on,,,,,0,0,5,,,,3,57,101
97792,note_off,,,,,0,0,6,,,,1,72,0
97792,note_on,,,,,0,0,6,,,,1,64,75
97792,note_on,,,,,0,0,6,,,,1,72,75
97792,note_on,,,,,0,0,3,,,,6,64,62
97792,note_on,,,,,0,0,6,,,,1,57,75
97792,note_off,,,,,0,0,6,,,,1,57,0
97792,note_off,,,,,512,0,3,,,,6,64,0
98304,note_off,,,,,512,0,3,,,,6,64,0
98304,note_on,,,,,0,0,4,,,,12,76,127
98304,note_off,,,,,2048,0,4,,,,12,72,0
98304,note_off,,,,,512,0,2,,,,2,72,0
98304,note_off,,,,,0,0,6,,,,1,72,0
98304,note_off,,,,,0,0,6,,,,1,57,0
98304,note_off,,,,,512,0,6,,,,1,64,0
98304,note_off,,,,,512,0,5,,,,3,57,0
98816,note_on,,,,,0,0,6,,,,1,57,75
98816,note_on,,,,,0,0,6,,,,1,72,75
98816,note_on,,,,,512,0,6,,,,1,64,75
98816,note_on,,,,,512,0,5,,,,3,57,101
98816,note_on,,,,,512,0,3,,,,6,64,62
98816,note_on,,,,,512,0,2,,,,2,72,62
99328,note_on,,,,,0,0,6,,,,1,57,75
99328,note_off,,,,,0,0,6,,,,1,57,0
99328,note_on,,,,,0,0,6,,,,1,72,75
99328,note_on,,,,,0,0,6,,,,1,64,75
99328,note_off,,,,,0,0,6,,,,1,72,0
99328,note_off,,,,,512,0,6,,,,1,64,0
99328,note_off,,,,,512,0,2,,,,2,72,0
99328,note_on,,,,,0,0,5,,,,3,57,101
99328,note_on,,,,,0,0,3,,,,6,64,62
99328,note_off,,,,,512,0,3,,,,6,64,0
99328,note_off,,,,,512,0,5,,,,3,57,0
99328,note_on,,,,,0,0,2,,,,2,72,62
99840,note_off,,,,,512,0,5,,,,3,57,0
99840,note_off,,,,,512,0,3,,,,6,64,0
99840,note_on,,,,,0,0,3,,,,6,64,62
99840,note_on,,,,,0,0,5,,,,3,57,101
99840,note_off,,,,,512,0,6,,,,1,64,0
99840,note_on,,,,,0,0,6,,,,1,64,75
99840,note_off,,,,,0,0,6,,,,1,57,0
99840,note_off,,,,,0,0,6,,,,1,72,0
99840,note_on,,,,,0,0,6,,,,1,72,75
99840,note_off,,,,,512,0,2,,,,2,72,0
99840,note_on,,,,,0,0,2,,,,2,72,62
99840,note_on,,,,,0,0,6,,,,1,57,75
100352,note_off,,,,,512,0,2,,,,2,72,0
100352,note_off,,,,,512,0,3,,,,6,64,0
100352,note_off,,,,,512,0,5,,,,3,57,0
100352,note_off,,,,,2048,0,4,,,,12,76,0
100352,note_on,,,,,0,0,4,,,,12,81,127
100352,note_off,,,,,512,0,6,,,,1,64,0
100352,note_off,,,,,0,0,6,,,,1,72,0
100352,note_off,,,,,0,0,6,,,,1,57,0
100608,note_off,,,,,256,0,4,,,,12,81,0
100608,note_on,,,,,0,0,4,,,,12,79,127
100864,note_on,,,,,512,0,6,,,,1,65,75
100864,note_on,,,,,0,0,6,,,,1,72,75
100864,note_on,,,,,512,0,3,,,,6,65,62
100864,note_on,,,,,512,0,5,,,,3,57,101
100864,note_on,,,,,0,0,6,,,,1,57,75
100864,note_on,,,,,512,0,2,,,,2,72,62
100864,note_off,,,,,256,0,4,,,,12,79,0
100864,note_on,,,,,0,0,4,,,,12,77,127
101120,note_off,,,,,256,0,4,,,,12,77,0
101120,note_on,,,,,0,0,4,,,,12,76,127
101376,note_off,,,,,256,0,4,,,,12,76,0
101376,note_on,,,,,0,0,2,,,,2,72,62
101376,note_on,,,,,0,0,3,,,,6,65,62
101376,note_off,,,,,512,0,3,,,,6,65,0
101376,note_off,,,,,0,0,6,,,,1,72,0
101376,note_on,,,,,0,0,4,,,,12,77,127
101376,note_off,,,,,512,0,2,,,,2,72,0
101376,note_on,,,,,0,0,6,,,,1,65,75
101376,note_off,,,,,512,0,5,,,,3,57,0
101376,note_on,,,,,0,0,6,,,,1,57,75
101376,note_off,,,,,512,0,6,,,,1,65,0
101376,note_off,,,,,0,0,6,,,,1,57,0
101376,note_on,,,,,0,0,5,,,,3,57,101
101376,note_on,,,,,0,0,6,,,,1,72,75
101632,note_on,,,,,0,0,4,,,,12,76,127
101632,note_off,,,,,256,0,4,,,,12,77,0
101888,note_on,,,,,0,0,2,,,,2,72,62
101888,note_off,,,,,512,0,6,,,,1,65,0
101888,note_off,,,,,0,0,6,,,,1,72,0
101888,note_on,,,,,0,0,6,,,,1,69,75
101888,note_off,,,,,0,0,6,,,,1,57,0
101888,note_on,,,,,0,0,6,,,,1,53,75
101888,note_on,,,,,0,0,3,,,,6,69,62
101888,note_on,,,,,0,0,4,,,,12,74,127
101888,note_off,,,,,256,0,4,,,,12,76,0
101888,note_off,,,,,512,0,5,,,,3,57,0
101888,note_on,,,,,0,0,5,,,,3,53,101
101888,note_off,,,,,512,0,2,,,,2,72,0
101888,note_off,,,,,512,0,3,,,,6,65,0
101888,note_on,,,,,0,0,6,,,,1,72,75
102144,note_off,,,,,256,0,4,,,,12,74,0
102144,note_on,,,,,0,0,4,,,,12,72,127
102400,note_off,,,,,512,0,6,,,,1,69,0
102400,note_on,,,,,0,0,4,,,,12,71,127
102400,note_off,,,,,256,0,4,,,,12,72,0
102400,note_off,,,,,0,0,6,,,,1,53,0
102400,note_off,,,,,512,0,3,,,,6,69,0
102400,note_off,,,,,512,0,5,,,,3,53,0
102400,note_off,,,,,0,0,6,,,,1,72,0
102400,note_off,,,,,512,0,2,,,,2,72,0
102912,note_on,,,,,0,0,4,,,,12,67,127
102912,note_on,,,,,0,0,6,,,,1,55,75
102912,note_on,,,,,0,0,6,,,,1,71,75
102912,note_on,,,,,512,0,6,,,,1,62,75
102912,note_off,,,,,512,0,4,,,,12,71,0
102912,note_on,,,,,512,0,5,,,,3,55,101
102912,note_on,,,,,512,0,3,,,,6,62,62
102912,note_on,,,,,512,0,2,,,,2,71,62
103424,note_off,,,,,512,0,2,,,,2,71,0
103424,note_off,,,,,512,0,4,,,,12,67,0
103424,note_on,,,,,0,0,5,,,,3,55,101
103424,note_off,,,,,512,0,5,,,,3,55,0
103424,note_on,,,,,0,0,6,,,,1,71,75
103424,note_on,,,,,0,0,6,,,,1,62,75
103424,note_off,,,,,512,0,6,,,,1,62,0
103424,note_off,,,,,0,0,6,,,,1,71,0
103424,note_on,,,,,0,0,3,,,,6,62,62
103424,note_off,,,,,512,0,3,,,,6,62,0
103424,note_off,,,,,0,0,6,,,,1,55,0
103424,note_on,,,,,0,0,2,,,,2,71,62
103424,note_on,,,,,0,0,6,,,,1,55,75
103936,note_off,,,,,512,0,5,,,,3,55,0
103936,note_on,,,,,0,0,2,,,,2,71,62
103936,note_off,,,,,512,0,2,,,,2,71,0
103936,note_on,,,,,0,0,6,,,,1,71,75
103936,note_off,,,,,0,0,6,,,,1,55,0
103936,note_off,,,,,0,0,6,,,,1,71,0
103936,note_on,,,,,0,0,6,,,,1,55,75
103936,note_off,,,,,512,0,6,,,,1,62,0
103936,note_on,,,,,0,0,6,,,,1,62,75
103936,note_on,,,,,0,0,5,,,,3,55,101
103936,note_on,,,,,512,0,4,,,,12,74,127
103936,note_off,,,,,512,0,3,,,,6,62,0
103936,note_on,,,,,0,0,3,,,,6,62,62
104448,note_off,,,,,0,0,6,,,,1,71,0
104448,note_off,,,,,512,0,6,,,,1,62,0
104448,note_off,,,,,512,0,5,,,,3,55,0
104448,note_off,,,,,512,0,3,,,,6,62,0
104448,note_off,,,,,512,0,2,,,,2,71,0
104448,note_off,,,,,0,0,6,,,,1,55,0
104448,note_on,,,,,0,0,4,,,,12,75,127
104448,note_off,,,,,512,0,4,,,,12,74,0
104704,note_on,,,,,0,0,4,,,,12,74,127
104704,note_off,,,,,256,0,4,,,,12,75,0
104960,note_on,,,,,512,0,6,,,,1,67,75
104960,note_on,,,,,0,0,4,,,,12,72,127
104960,note_off,,,,,256,0,4,,,,12,74,0
104960,note_on,,,,,512,0,5,,,,3,60,101
104960,note_on,,,,,0,0,6,,,,1,60,75
104960,note_on,,,,,0,0,6,,,,1,75,75
104960,note_on,,,,,512,0,2,,,,2,75,62
104960,note_on,,,,,512,0,3,,,,6,67,62
105472,note_on,,,,,0,0,3,,,,6,67,62
105472,note_off,,,,,512,0,3,,,,6,67,0
105472,note_off,,,,,512,0,5,,,,3,60,0
105472,note_off,,,,,512,0,6,,,,1,67,0
105472,note_off,,,,,0,0,6,,,,1,75,0
105472,note_on,,,,,0,0,6,,,,1,67,75
105472,note_on,,,,,0,0,6,,,,1,75,75
105472,note_off,,,,,0,0,6,,,,1,60,0
105472,note_on,,,,,0,0,5,,,,3,60,101
105472,note_on,,,,,0,0,6,,,,1,60,75
105472,note_off,,,,,512,0,2,,,,2,75,0
105472,note_on,,,,,0,0,2,,,,2,75,62
105984,note_off,,,,,512,0,6,,,,1,67,0
105984,note_off,,,,,0,0,6,,,,1,75,0
105984,note_on,,,,,0,0,6,,,,1,67,75
105984,note_on,,,,,0,0,6,,,,1,75,75
105984,note_off,,,,,512,0,3,,,,6,67,0
105984,note_off,,,,,0,0,6,,,,1,60,0
105984,note_on,,,,,0,0,6,,,,1,60,75
105984,note_on,,,,,0,0,3,,,,6,67,62
105984,note_on,,,,,0,0,2,,,,2,75,62
105984,note_off,,,,,512,0,2,,,,2,75,0
105984,note_on,,,,,0,0,5,,,,3,60,101
105984,note_off,,,,,512,0,5,,,,3,60,0
106496,note_on,,,,,0,0,4,,,,12,71,127
106496,note_off,,,,,0,0,6,,,,1,75,0
106496,note_off,,,,,512,0,6,,,,1,67,0
106496,note_off,,,,,512,0,3,,,,6,67,0
106496,note_off,,,,,1536,0,4,,,,12,72,0
106496,note_off,,,,,0,0,6,,,,1,60,0
106496,note_off,,,,,512,0,2,,,,2,75,0
106496,note_off,,,,,512,0,5,,,,3,60,0
106752,note_off,,,,,256,0,4,,,,12,71,0
106752,note_on,,,,,0,0,4,,,,12,69,127
107008,note_on,,,,,0,0,6,,,,1,67,75
107008,note_on,,,,,512,0,6,,,,1,71,75
107008,note_off,,,,,256,0,4,,,,12,69,0
107008,note_on,,,,,512,0,3,,,,6,71,62
107008,note_on,,,,,0,0,6,,,,1,74,75
107008,note_on,,,,,512,0,2,,,,2,74,62
107008,note_on,,,,,512,0,5,,,,3,67,101
107008,note_on,,,,,0,0,4,,,,12,67,127
107520,note_off,,,,,512,0,2,,,,2,74,0
107520,note_on,,,,,0,0,5,,,,3,67,101
107520,note_off,,,,,512,0,3,,,,6,71,0
107520,note_on,,,,,0,0,3,,,,6,71,62
107520,note_off,,,,,512,0,6,,,,1,71,0
107520,note_off,,,,,0,0,6,,,,1,74,0
107520,note_on,,,,,0,0,6,,,,1,71,75
107520,note_on,,,,,0,0,6,,,,1,74,75
107520,note_off,,,,,0,0,6,,,,1,67,0
107520,note_on,,,,,0,0,6,,,,1,67,75
107520,note_on,,,,,0,0,2,,,,2,74,62
107520,note_off,,,,,512,0,5,,,,3,67,0
108032,note_off,,,,,512,0,5,,,,3,67,0
108032,note_on,,,,,0,0,5,,,,3,67,101
108032,note_on,,,,,0,0,3,,,,6,71,62
108032,note_off,,,,,512,0,3,,,,6,71,0
108032,note_off,,,,,512,0,2,,,,2,74,0
108032,note_on,,,,,0,0,2,,,,2,74,62
108032,note_off,,,,,512,0,6,,,,1,71,0
108032,note_on,,,,,0,0,6,,,,1,67,75
108032,note_off,,,,,0,0,6,,,,1,67,0
108032,note_off,,,,,0,0,6,,,,1,74,0
108032,note_on,,,,,0,0,6,,,,1,74,75
108032,note_on,,,,,0,0,6,,,,1,71,75
108544,note_off,,,,,512,0,6,,,,1,71,0
108544,note_off,,,,,1536,0,4,,,,12,67,0
108544,note_off,,,,,0,0,6,,,,1,74,0
108544,note_off,,,,,512,0,5,,,,3,67,0
108544,note_off,,,,,512,0,3,,,,6,71,0
108544,note_off,,,,,0,0,6,,,,1,67,0
108544,note_on,,,,,0,0,4,,,,12,77,127
108544,note_off,,,,,512,0,2,,,,2,74,0
108800,note_on,,,,,0,0,4,,,,12,75,127
108800,note_off,,,,,256,0,4,,,,12,77,0
109056,note_on,,,,,512,0,6,,,,1,71,75
109056,note_on,,,,,0,0,6,,,,1,74,75
109056,note_on,,,,,0,0,6,,,,1,55,75
109056,note_off,,,,,256,0,4,,,,12,75,0
109056,note_on,,,,,512,0,2,,,,2,74,62
109056,note_on,,,,,512,0,3,,,,6,71,62
109056,note_on,,,,,0,0,4,,,,12,74,127
109056,note_on,,,,,512,0,5,,,,3,55,101
109568,note_off,,,,,512,0,5,,,,3,55,0
109568,note_on,,,,,0,0,2,,,,2,74,62
109568,note_off,,,,,512,0,2,,,,2,74,0
109568,note_off,,,,,0,0,6,,,,1,55,0
109568,note_off,,,,,512,0,3,,,,6,71,0
109568,note_on,,,,,0,0,3,,,,6,71,62
109568,note_off,,,,,512,0,6,,,,1,71,0
109568,note_off,,,,,0,0,6,,,,1,74,0
109568,note_on,,,,,0,0,6,,,,1,71,75
109568,note_on,,,,,0,0,6,,,,1,74,75
109568,note_on,,,,,0,0,5,,,,3,55,101
109568,note_on,,,,,0,0,6,,,,1,55,75
110080,note_off,,,,,0,0,6,,,,1,55,0
110080,note_on,,,,,0,0,2,,,,2,74,62
110080,note_on,,,,,0,0,5,,,,3,55,101
110080,note_off,,,,,512,0,5,,,,3,55,0
110080,note_off,,,,,512,0,3,,,,6,71,0
110080,note_on,,,,,0,0,3,,,,6,71,62
110080,note_off,,,,,512,0,2,,,,2,74,0
110080,note_off,,,,,512,0,6,,,,1,71,0
110080,note_off,,,,,0,0,6,,,,1,74,0
110080,note_on,,,,,0,0,6,,,,1,74,75
110080,note_on,,,,,0,0,6,,,,1,55,75
110080,note_on,,,,,0,0,6,,,,1,71,75
110592,note_off,,,,,1536,0,4,,,,12,74,0
110592,note_off,,,,,512,0,6,,,,1,71,0
110592,note_off,,,,,512,0,5,,,,3,55,0
110592,note_off,,,,,0,0,6,,,,1,74,0
110592,note_off,,,,,0,0,6,,,,1,55,0
110592,note_on,,,,,0,0,6,,,,1,67,75
110592,note_on,,,,,0,0,4,,,,12,77,127
110592,note_on,,,,,0,0,6,,,,1,75,75
110592,note_on,,,,,0,0,3,,,,6,67,62
110592,note_off,,,,,512,0,2,,,,2,74,0
110592,note_off,,,,,512,0,3,,,,6,71,0
110592,note_on,,,,,0,0,2,,,,2,75,62
110848,note_on,,,,,0,0,4,,,,12,75,127
110848,note_off,,,,,256,0,4,,,,12,77,0
111104,note_on,,,,,0,0,4,,,,12,74,127
111104,note_off,,,,,256,0,4,,,,12,75,0
111104,note_on,,,,,0,0,6,,,,1,60,75
111104,note_off,,,,,512,0,2,,,,2,75,0
111104,note_on,,,,,0,0,2,,,,2,72,62
111104,note_off,,,,,512,0,6,,,,1,67,0
111104,note_off,,,,,0,0,6,,,,1,75,0
111104,note_on,,,,,0,0,6,,,,1,63,75
111104,note_on,,,,,0,0,6,,,,1,72,75
111104,note_on,,,,,512,0,5,,,,3,60,101
111104,note_off,,,,,512,0,3,,,,6,67,0
111104,note_on,,,,,0,0,3,,,,6,63,62
111360,note_on,,,,,0,0,4,,,,12,72,127
111360,note_off,,,,,256,0,4,,,,12,74,0
111616,note_on,,,,,0,0,4,,,,12,75,127
111616,note_off,,,,,256,0,4,,,,12,72,0
111616,note_on,,,,,0,0,2,,,,2,74,62
111616,note_off,,,,,512,0,2,,,,2,72,0
111616,note_off,,,,,512,0,3,,,,6,63,0
111616,note_on,,,,,0,0,6,,,,1,53,75
111616,note_off,,,,,0,0,6,,,,1,60,0
111616,note_on,,,,,0,0,6,,,,1,74,75
111616,note_on,,,,,0,0,6,,,,1,65,75
111616,note_off,,,,,0,0,6,,,,1,72,0
111616,note_off,,,,,512,0,6,,,,1,63,0
111616,note_off,,,,,512,0,5,,,,3,60,0
111616,note_on,,,,,0,0,5,,,,3,53,101
111616,note_on,,,,,0,0,3,,,,6,65,62
111872,note_off,,,,,256,0,4,,,,12,75,0
111872,note_on,,,,,0,0,4,,,,12,74,127
112128,note_off,,,,,256,0,4,,,,12,74,0
112128,note_off,,,,,512,0,2,,,,2,74,0
112128,note_on,,,,,0,0,4,,,,12,72,127
112128,note_on,,,,,0,0,2,,,,2,71,62
112128,note_off,,,,,0,0,6,,,,1,53,0
112128,note_on,,,,,0,0,6,,,,1,62,75
112128,note_off,,,,,0,0,6,,,,1,74,0
112128,note_off,,,,,512,0,6,,,,1,65,0
112128,note_on,,,,,0,0,5,,,,3,55,101
112128,note_on,,,,,0,0,6,,,,1,71,75
112128,note_off,,,,,512,0,3,,,,6,65,0
112128,note_off,,,,,512,0,5,,,,3,53,0
112128,note_on,,,,,0,0,3,,,,6,62,62
112128,note_on,,,,,0,0,6,,,,1,55,75
112384,note_off,,,,,256,0,4,,,,12,72,0
112384,note_on,,,,,0,0,4,,,,12,71,127
112640,note_off,,,,,512,0,3,,,,6,62,0
112640,note_on,,,,,0,0,3,,,,6,64,101
112640,note_off,,,,,512,0,5,,,,3,55,0
112640,note_on,,,,,0,0,5,,,,3,48,127
112640,note_on,,,,,0,0,2,,,,2,72,114
112640,note_on,,,,,0,0,4,,,,12,72,127
112640,note_off,,,,,0,0,6,,,,1,71,0
112640,note_off,,,,,256,0,4,,,,12,71,0
112640,note_off,,,,,512,0,6,,,,1,62,0
112640,note_on,,,,,0,0,6,,,,1,48,114
112640,note_off,,,,,512,0,2,,,,2,71,0
112640,note_off,,,,,0,0,6,,,,1,55,0
112640,note_on,,,,,0,0,6,,,,1,72,114
112640,note_on,,,,,0,0,6,,,,1,64,114
112896,note_off,,,,,256,0,6,,,,1,64,0
112896,note_on,,,,,0,0,6,,,,1,74,114
112896,note_on,,,,,0,0,4,,,,12,74,127
112896,note_on,,,,,0,0,2,,,,2,74,114
112896,note_off,,,,,256,0,2,,,,2,72,0
112896,note_off,,,,,256,0,4,,,,12,72,0
112896,note_off,,,,,0,0,6,,,,1,72,0
113152,note_on,,,,,0,0,6,,,,1,60,114
113152,note_on,,,,,0,0,6,,,,1,76,114
113152,note_off,,,,,256,0,6,,,,1,74,0
113152,note_on,,,,,0,0,6,,,,1,67,114
113152,note_on,,,,,0,0,4,,,,12,76,127
113152,note_off,,,,,256,0,4,,,,12,74,0
113152,note_off,,,,,0,0,6,,,,1,48,0
113152,note_on,,,,,0,0,2,,,,2,76,114
113152,note_on,,,,,0,0,3,,,,6,67,101
113152,note_off,,,,,512,0,3,,,,6,64,0
113152,note_off,,,,,512,0,5,,,,3,48,0
113152,note_on,,,,,0,0,5,,,,3,60,127
113152,note_off,,,,,256,0,2,,,,2,74,0
113408,note_off,,,,,256,0,2,,,,2,76,0
113408,note_on,,,,,0,0,6,,,,1,74,114
113408,note_off,,,,,256,0,4,,,,12,76,0
113408,note_on,,,,,0,0,4,,,,12,74,127
113408,note_off,,,,,256,0,6,,,,1,67,0
113408,note_off,,,,,0,0,6,,,,1,76,0
113408,note_on,,,,,0,0,2,,,,2,74,114
113664,note_off,,,,,512,0,5,,,,3,60,0
113664,note_on,,,,,0,0,5,,,,3,48,127
113664,note_off,,,,,256,0,4,,,,12,74,0
113664,note_off,,,,,512,0,3,,,,6,67,0
113664,note_on,,,,,0,0,3,,,,6,64,101
113664,note_on,,,,,0,0,6,,,,1,48,114
113664,note_off,,,,,0,0,6,,,,1,60,0
113664,note_on,,,,,0,0,4,,,,12,72,127
113664,note_on,,,,,0,0,6,,,,1,64,114
113664,note_off,,,,,256,0,6,,,,1,74,0
113664,note_on,,,,,0,0,2,,,,2,72,114
113664,note_on,,,,,0,0,6,,,,1,72,114
113664,note_off,,,,,256,0,2,,,,2,74,0
114176,note_on,,,,,0,0,5,,,,3,60,127
114176,note_off,,,,,512,0,5,,,,3,48,0
114176,note_off,,,,,512,0,4,,,,12,72,0
114176,note_off,,,,,512,0,6,,,,1,48,0
114176,note_on,,,,,0,0,6,,,,1,60,114
114688,note_on,,,,,0,0,6,,,,1,76,114
114688,note_off,,,,,512,0,6,,,,1,64,0
114688,note_off,,,,,0,0,6,,,,1,72,0
114688,note_off,,,,,0,0,6,,,,1,60,0
114688,note_off,,,,,1024,0,3,,,,6,64,0
114688,note_on,,,,,0,0,6,,,,1,72,114
114688,note_on,,,,,512,0,4,,,,12,76,127
114688,note_on,,,,,0,0,3,,,,6,72,101
114688,note_off,,,,,1024,0,2,,,,2,72,0
114688,note_on,,,,,0,0,2,,,,2,76,114
114688,note_off,,,,,512,0,5,,,,3,60,0
114688,note_on,,,,,0,0,5,,,,3,48,127
114688,note_on,,,,,0,0,6,,,,1,48,114
114944,note_on,,,,,0,0,3,,,,6,74,101
114944,note_off,,,,,256,0,4,,,,12,76,0
114944,note_on,,,,,0,0,4,,,,12,77,127
114944,note_on,,,,,0,0,6,,,,1,77,114
114944,note_on,,,,,0,0,2,,,,2,77,114
114944,note_on,,,,,0,0,6,,,,1,74,114
114944,note_off,,,,,0,0,6,,,,1,76,0
114944,note_off,,,,,256,0,2,,,,2,76,0
114944,note_off,,,,,256,0,6,,,,1,72,0
114944,note_off,,,,,256,0,3,,,,6,72,0
115200,note_on,,,,,0,0,2,,,,2,79,114
115200,note_off,,,,,256,0,2,,,,2,77,0
115200,note_on,,,,,0,0,3,,,,6,76,101
115200,note_off,,,,,256,0,4,,,,12,77,0
115200,note_on,,,,,0,0,4,,,,12,79,127
115200,note_on,,,,,0,0,5,,,,3,60,127
115200,note_off,,,,,256,0,3,,,,6,74,0
115200,note_off,,,,,0,0,6,,,,1,48,0
115200,note_on,,,,,0,0,6,,,,1,79,114
115200,note_on,,,,,0,0,6,,,,1,76,114
115200,note_off,,,,,0,0,6,,,,1,77,0
115200,note_off,,,,,256,0,6,,,,1,74,0
115200,note_on,,,,,0,0,6,,,,1,60,114
115200,note_off,,,,,512,0,5,,,,3,48,0
115456,note_off,,,,,256,0,6,,,,1,76,0
115456,note_on,,,,,0,0,6,,,,1,74,114
115456,note_on,,,,,0,0,2,,,,2,77,114
115456,note_off,,,,,256,0,2,,,,2,79,0
115456,note_off,,,,,256,0,4,,,,12,79,0
115456,note_on,,,,,0,0,4,,,,12,77,127
115456,note_off,,,,,0,0,6,,,,1,79,0
115456,note_on,,,,,0,0,6,,,,1,77,114
115456,note_off,,,,,256,0,3,,,,6,76,0
115456,note_on,,,,,0,0,3,,,,6,74,101
115712,note_off,,,,,512,0,5,,,,3,60,0
115712,note_off,,,,,0,0,6,,,,1,77,0
115712,note_on,,,,,0,0,6,,,,1,72,114
115712,note_off,,,,,0,0,6,,,,1,60,0
115712,note_on,,,,,0,0,6,,,,1,48,114
115712,note_off,,,,,256,0,2,,,,2,77,0
115712,note_on,,,,,0,0,2,,,,2,76,114
115712,note_off,,,,,256,0,6,,,,1,74,0
115712,note_on,,,,,0,0,5,,,,3,48,127
115712,note_off,,,,,256,0,3,,,,6,74,0
115712,note_on,,,,,0,0,6,,,,1,76,114
115712,note_on,,,,,0,0,3,,,,6,72,101
115712,note_off,,,,,256,0,4,,,,12,77,0
115712,note_on,,,,,0,0,4,,,,12,76,127
116224,note_off,,,,,512,0,4,,,,12,76,0
116224,note_on,,,,,0,0,6,,,,1,60,114
116224,note_on,,,,,0,0,5,,,,3,60,127
116224,note_off,,,,,512,0,5,,,,3,48,0
116224,note_off,,,,,512,0,6,,,,1,48,0
116736,note_on,,,,,0,0,2,,,,2,84,114
116736,note_off,,,,,512,0,5,,,,3,60,0
116736,note_off,,,,,1024,0,3,,,,6,72,0
116736,note_on,,,,,512,0,4,,,,12,84,127
116736,note_on,,,,,0,0,3,,,,6,76,101
116736,note_off,,,,,512,0,6,,,,1,72,0
116736,note_off,,,,,0,0,6,,,,1,76,0
116736,note_on,,,,,0,0,6,,,,1,76,114
116736,note_on,,,,,0,0,6,,,,1,84,114
116736,note_off,,,,,0,0,6,,,,1,60,0
116736,note_on,,,,,0,0,6,,,,1,48,114
116736,note_off,,,,,1024,0,2,,,,2,76,0
116736,note_on,,,,,0,0,5,,,,3,48,127
116992,note_on,,,,,0,0,3,,,,6,77,101
116992,note_off,,,,,0,0,6,,,,1,84,0
116992,note_off,,,,,256,0,3,,,,6,76,0
116992,note_on,,,,,0,0,6,,,,1,77,114
116992,note_off,,,,,256,0,6,,,,1,76,0
117248,note_on,,,,,0,0,3,,,,6,76,101
117248,note_on,,,,,0,0,5,,,,3,60,127
117248,note_on,,,,,0,0,2,,,,2,79,114
117248,note_off,,,,,512,0,2,,,,2,84,0
117248,note_off,,,,,256,0,3,,,,6,77,0
117248,note_on,,,,,0,0,6,,,,1,79,114
117248,note_off,,,,,0,0,6,,,,1,48,0
117248,note_on,,,,,0,0,6,,,,1,76,114
117248,note_off,,,,,256,0,6,,,,1,77,0
117248,note_off,,,,,512,0,4,,,,12,84,0
117248,note_on,,,,,0,0,4,,,,12,76,127
117248,note_on,,,,,0,0,6,,,,1,60,114
117248,note_off,,,,,512,0,5,,,,3,48,0
117504,note_off,,,,,256,0,2,,,,2,79,0
117504,note_on,,,,,0,0,2,,,,2,77,114
117504,note_off,,,,,256,0,3,,,,6,76,0
117504,note_on,,,,,0,0,3,,,,6,74,101
117504,note_off,,,,,0,0,6,,,,1,79,0
117504,note_off,,,,,256,0,6,,,,1,76,0
117504,note_on,,,,,0,0,6,,,,1,74,114
117504,note_on,,,,,0,0,6,,,,1,77,114
117760,note_off,,,,,256,0,6,,,,1,74,0
117760,note_off,,,,,0,0,6,,,,1,77,0
117760,note_on,,,,,0,0,6,,,,1,72,114
117760,note_on,,,,,0,0,6,,,,1,76,114
117760,note_on,,,,,0,0,6,,,,1,48,114
117760,note_off,,,,,512,0,5,,,,3,60,0
117760,note_on,,,,,0,0,3,,,,6,72,101
117760,note_off,,,,,256,0,3,,,,6,74,0
117760,note_off,,,,,512,0,4,,,,12,76,0
117760,note_on,,,,,0,0,4,,,,12,72,127
117760,note_off,,,,,0,0,6,,,,1,60,0
117760,note_on,,,,,0,0,5,,,,3,48,127
117760,note_on,,,,,0,0,2,,,,2,76,114
117760,note_off,,,,,256,0,2,,,,2,77,0
118272,note_off,,,,,512,0,4,,,,12,72,0
118272,note_on,,,,,0,0,4,,,,12,84,127
118272,note_off,,,,,512,0,3,,,,6,72,0
118272,note_on,,,,,0,0,3,,,,6,76,101
118272,note_off,,,,,0,0,6,,,,1,48,0
118272,note_off,,,,,0,0,6,,,,1,76,0
118272,note_on,,,,,0,0,5,,,,3,60,127
118272,note_off,,,,,512,0,6,,,,1,72,0
118272,note_on,,,,,0,0,2,,,,2,84,114
118272,note_off,,,,,512,0,2,,,,2,76,0
118272,note_on,,,,,0,0,6,,,,1,76,114
118272,note_off,,,,,512,0,5,,,,3,48,0
118272,note_on,,,,,0,0,6,,,,1,60,114
118272,note_on,,,,,0,0,6,,,,1,84,114
118784,note_off,,,,,512,0,6,,,,1,76,0
118784,note_on,,,,,0,0,6,,,,1,43,114
118784,note_on,,,,,0,0,6,,,,1,83,114
118784,note_off,,,,,512,0,2,,,,2,84,0
118784,note_on,,,,,0,0,2,,,,2,83,114
118784,note_on,,,,,0,0,6,,,,1,79,114
118784,note_off,,,,,0,0,6,,,,1,60,0
118784,note_off,,,,,512,0,4,,,,12,84,0
118784,note_off,,,,,0,0,6,,,,1,84,0
118784,note_on,,,,,0,0,4,,,,12,83,127
118784,note_off,,,,,512,0,5,,,,3,60,0
118784,note_off,,,,,512,0,3,,,,6,76,0
118784,note_on,,,,,0,0,3,,,,6,79,101
118784,note_on,,,,,0,0,5,,,,3,43,127
118912,note_off,,,,,128,0,3,,,,6,79,0
118912,note_on,,,,,0,0,3,,,,6,81,101
118912,note_off,,,,,128,0,6,,,,1,79,0
118912,note_off,,,,,0,0,6,,,,1,83,0
118912,note_on,,,,,0,0,6,,,,1,81,114
118912,note_on,,,,,0,0,6,,,,1,84,114
118912,note_on,,,,,0,0,4,,,,12,84,127
118912,note_off,,,,,128,0,4,,,,12,83,0
118912,note_on,,,,,0,0,2,,,,2,84,114
118912,note_off,,,,,128,0,2,,,,2,83,0
119040,note_off,,,,,128,0,2,,,,2,84,0
119040,note_on,,,,,0,0,4,,,,12,86,127
119040,note_on,,,,,0,0,6,,,,1,83,114
119040,note_off,,,,,0,0,6,,,,1,84,0
119040,note_off,,,,,128,0,4,,,,12,84,0
119040,note_on,,,,,0,0,6,,,,1,86,114
119040,note_off,,,,,128,0,6,,,,1,81,0
119040,note_on,,,,,0,0,2,,,,2,86,114
119040,note_off,,,,,128,0,3,,,,6,81,0
119040,note_on,,,,,0,0,3,,,,6,83,101
119296,note_on,,,,,0,0,5,,,,3,55,127
119296,note_off,,,,,512,0,5,,,,3,43,0
119296,note_on,,,,,0,0,6,,,,1,55,114
119296,note_off,,,,,256,0,6,,,,1,43,0
119808,note_off,,,,,768,0,4,,,,12,86,0
119808,note_on,,,,,0,0,6,,,,1,43,114
119808,note_off,,,,,0,0,6,,,,1,55,0
119808,note_on,,,,,0,0,6,,,,1,77,114
119808,note_on,,,,,0,0,6,,,,1,74,114
119808,note_off,,,,,0,0,6,,,,1,86,0
119808,note_off,,,,,512,0,6,,,,1,83,0
119808,note_on,,,,,0,0,2,,,,2,77,114
119808,note_on,,,,,0,0,4,,,,12,77,127
119808,note_on,,,,,0,0,3,,,,6,74,101
119808,note_off,,,,,768,0,3,,,,6,83,0
119808,note_off,,,,,512,0,5,,,,3,55,0
119808,note_on,,,,,0,0,5,,,,3,43,127
119808,note_off,,,,,768,0,2,,,,2,86,0
119936,note_on,,,,,0,0,3,,,,6,76,101
119936,note_off,,,,,128,0,3,,,,6,74,0
119936,note_off,,,,,0,0,6,,,,1,77,0
119936,note_off,,,,,128,0,6,,,,1,74,0
119936,note_on,,,,,0,0,6,,,,1,79,114
119936,note_off,,,,,128,0,4,,,,12,77,0
119936,note_on,,,,,0,0,4,,,,12,79,127
119936,note_on,,,,,0,0,6,,,,1,76,114
119936,note_on,,,,,0,0,2,,,,2,79,114
119936,note_off,,,,,128,0,2,,,,2,77,0
120064,note_off,,,,,128,0,4,,,,12,79,0
120064,note_on,,,,,0,0,4,,,,12,81,127
120064,note_on,,,,,0,0,2,,,,2,81,114
120064,note_off,,,,,128,0,2,,,,2,79,0
120064,note_on,,,,,0,0,3,,,,6,77,101
120064,note_on,,,,,0,0,6,,,,1,81,114
120064,note_on,,,,,0,0,6,,,,1,77,114
120064,note_off,,,,,0,0,6,,,,1,79,0
120064,note_off,,,,,128,0,6,,,,1,76,0
120064,note_off,,,,,128,0,3,,,,6,76,0
120320,note_off,,,,,256,0,6,,,,1,43,0
120320,note_on,,,,,0,0,6,,,,1,55,114
120320,note_off,,,,,512,0,5,,,,3,43,0
120320,note_on,,,,,0,0,5,,,,3,55,127
120832,note_off,,,,,512,0,5,,,,3,55,0
120832,note_on,,,,,0,0,3,,,,6,71,101
120832,note_off,,,,,768,0,3,,,,6,77,0
120832,note_off,,,,,768,0,2,,,,2,81,0
120832,note_on,,,,,0,0,2,,,,2,74,114
120832,note_on,,,,,0,0,5,,,,3,43,127
120832,note_off,,,,,0,0,6,,,,1,55,0
120832,note_off,,,,,768,0,4,,,,12,81,0
120832,note_on,,,,,0,0,6,,,,1,74,114
120832,note_on,,,,,0,0,6,,,,1,71,114
120832,note_off,,,,,0,0,6,,,,1,81,0
120832,note_off,,,,,512,0,6,,,,1,77,0
120832,note_on,,,,,0,0,6,,,,1,43,114
120832,note_on,,,,,0,0,4,,,,12,74,127
120960,note_on,,,,,0,0,2,,,,2,76,114
120960,note_off,,,,,128,0,2,,,,2,74,0
120960,note_off,,,,,0,0,6,,,,1,74,0
120960,note_on,,,,,0,0,6,,,,1,72,114
120960,note_on,,,,,0,0,6,,,,1,76,114
120960,note_off,,,,,128,0,3,,,,6,71,0
120960,note_on,,,,,0,0,3,,,,6,72,101
120960,note_on,,,,,0,0,4,,,,12,76,127
120960,note_off,,,,,128,0,6,,,,1,71,0
120960,note_off,,,,,128,0,4,,,,12,74,0
121088,note_on,,,,,0,0,2,,,,2,77,114
121088,note_off,,,,,128,0,2,,,,2,76,0
121088,note_on,,,,,0,0,3,,,,6,74,101
121088,note_off,,,,,128,0,6,,,,1,72,0
121088,note_on,,,,,0,0,4,,,,12,77,127
121088,note_on,,,,,0,0,6,,,,1,74,114
121088,note_on,,,,,0,0,6,,,,1,77,114
121088,note_off,,,,,128,0,3,,,,6,72,0
121088,note_off,,,,,128,0,4,,,,12,76,0
121088,note_off,,,,,0,0,6,,,,1,76,0
121344,note_off,,,,,512,0,5,,,,3,43,0
121344,note_on,,,,,0,0,5,,,,3,55,127
121344,note_on,,,,,0,0,6,,,,1,55,114
121344,note_off,,,,,256,0,6,,,,1,43,0
121856,note_on,,,,,0,0,5,,,,3,43,127
121856,note_off,,,,,768,0,4,,,,12,77,0
121856,note_on,,,,,0,0,4,,,,12,71,127
121856,note_off,,,,,768,0,3,,,,6,74,0
121856,note_on,,,,,0,0,3,,,,6,67,101
121856,note_off,,,,,768,0,2,,,,2,77,0
121856,note_off,,,,,0,0,6,,,,1,55,0
121856,note_off,,,,,512,0,5,,,,3,55,0
121856,note_on,,,,,0,0,2,,,,2,71,114
121856,note_off,,,,,512,0,6,,,,1,74,0
121856,note_off,,,,,0,0,6,,,,1,77,0
121856,note_on,,,,,0,0,6,,,,1,67,114
121856,note_on,,,,,0,0,6,,,,1,71,114
121856,note_on,,,,,0,0,6,,,,1,43,114
121984,note_on,,,,,0,0,6,,,,1,72,114
121984,note_on,,,,,0,0,4,,,,12,72,127
121984,note_off,,,,,128,0,4,,,,12,71,0
121984,note_on,,,,,0,0,6,,,,1,69,114
121984,note_off,,,,,0,0,6,,,,1,71,0
121984,note_off,,,,,128,0,3,,,,6,67,0
121984,note_off,,,,,128,0,2,,,,2,71,0
121984,note_on,,,,,0,0,2,,,,2,72,114
121984,note_on,,,,,0,0,3,,,,6,69,101
121984,note_off,,,,,128,0,6,,,,1,67,0
122112,note_on,,,,,0,0,6,,,,1,74,114
122112,note_on,,,,,0,0,3,,,,6,71,101
122112,note_off,,,,,128,0,6,,,,1,69,0
122112,note_on,,,,,0,0,6,,,,1,71,114
122112,note_off,,,,,128,0,3,,,,6,69,0
122112,note_off,,,,,0,0,6,,,,1,72,0
122112,note_off,,,,,128,0,4,,,,12,72,0
122112,note_off,,,,,128,0,2,,,,2,72,0
122112,note_on,,,,,0,0,2,,,,2,74,114
122112,note_on,,,,,0,0,4,,,,12,74,127
122368,note_off,,,,,256,0,6,,,,1,43,0
122368,note_on,,,,,0,0,6,,,,1,55,114
122368,note_on,,,,,0,0,5,,,,3,55,127
122368,note_off,,,,,512,0,5,,,,3,43,0
122880,note_off,,,,,512,0,6,,,,1,71,0
122880,note_off,,,,,0,0,6,,,,1,74,0
122880,note_off,,,,,768,0,3,,,,6,71,0
122880,note_off,,,,,512,0,5,,,,3,55,0
122880,note_on,,,,,0,0,6,,,,1,76,114
122880,note_off,,,,,0,0,6,,,,1,55,0
122880,note_on,,,,,0,0,5,,,,3,48,127
122880,note_on,,,,,0,0,3,,,,6,72,101
122880,note_on,,,,,0,0,6,,,,1,72,114
122880,note_off,,,,,768,0,4,,,,12,74,0
122880,note_on,,,,,0,0,6,,,,1,48,114
122880,note_on,,,,,0,0,2,,,,2,76,114
122880,note_off,,,,,768,0,2,,,,2,74,0
122880,note_on,,,,,0,0,4,,,,12,76,127
123136,note_off,,,,,256,0,5,,,,3,48,0
123136,note_off,,,,,256,0,6,,,,1,48,0
123136,note_on,,,,,0,0,6,,,,1,50,114
123136,note_on,,,,,0,0,5,,,,3,50,127
123392,note_off,,,,,256,0,6,,,,1,72,0
123392,note_off,,,,,0,0,6,,,,1,76,0
123392,note_on,,,,,0,0,6,,,,1,76,114
123392,note_on,,,,,0,0,5,,,,3,52,127
123392,note_on,,,,,0,0,6,,,,1,79,114
123392,note_off,,,,,0,0,6,,,,1,50,0
123392,note_off,,,,,256,0,5,,,,3,50,0
123392,note_on,,,,,0,0,6,,,,1,52,114
123392,note_off,,,,,512,0,4,,,,12,76,0
123392,note_on,,,,,0,0,2,,,,2,79,114
123392,note_on,,,,,0,0,3,,,,6,76,101
123392,note_off,,,,,512,0,3,,,,6,72,0
123392,note_on,,,,,0,0,4,,,,12,79,127
123392,note_off,,,,,512,0,2,,,,2,76,0
123648,note_off,,,,,256,0,5,,,,3,52,0
123648,note_on,,,,,0,0,5,,,,3,50,127
123648,note_on,,,,,0,0,6,,,,1,50,114
123648,note_off,,,,,256,0,6,,,,1,52,0
123904,note_on,,,,,0,0,6,,,,1,88,114
123904,note_off,,,,,0,0,6,,,,1,50,0
123904,note_on,,,,,0,0,6,,,,1,48,114
123904,note_off,,,,,0,0,6,,,,1,79,0
123904,note_off,,,,,256,0,6,,,,1,76,0
123904,note_off,,,,,512,0,4,,,,12,79,0
123904,note_on,,,,,0,0,3,,,,6,79,101
123904,note_on,,,,,0,0,6,,,,1,79,114
123904,note_off,,,,,512,0,2,,,,2,79,0
123904,note_on,,,,,0,0,2,,,,2,88,114
123904,note_off,,,,,512,0,3,,,,6,76,0
123904,note_on,,,,,0,0,5,,,,3,48,127
123904,note_off,,,,,256,0,5,,,,3,50,0
123904,note_on,,,,,0,0,4,,,,12,84,127
123904,note_on,,,,,0,0,6,,,,1,76,114
124416,note_off,,,,,512,0,2,,,,2,88,0
124416,note_on,,,,,0,0,2,,,,2,79,114
124416,note_on,,,,,0,0,3,,,,6,76,101
124416,note_off,,,,,0,0,6,,,,1,79,0
124416,note_off,,,,,512,0,3,,,,6,79,0
124416,note_off,,,,,0,0,6,,,,1,88,0
124416,note_on,,,,,0,0,6,,,,1,76,114
124416,note_on,,,,,0,0,6,,,,1,79,114
124416,note_off,,,,,512,0,6,,,,1,76,0
124928,note_off,,,,,512,0,2,,,,2,79,0
124928,note_on,,,,,0,0,2,,,,2,88,114
124928,note_off,,,,,1024,0,4,,,,12,84,0
124928,note_on,,,,,0,0,6,,,,1,36,114
124928,note_on,,,,,0,0,6,,,,1,88,114
124928,note_off,,,,,1024,0,5,,,,3,48,0
124928,note_on,,,,,0,0,5,,,,3,36,127
124928,note_off,,,,,512,0,3,,,,6,76,0
124928,note_on,,,,,0,0,3,,,,6,79,101
124928,note_off,,,,,0,0,6,,,,1,48,0
124928,note_off,,,,,512,0,6,,,,1,76,0
124928,note_off,,,,,0,0,6,,,,1,79,0
124928,note_on,,,,,0,0,6,,,,1,79,114
124928,note_on,,,,,0,0,6,,,,1,76,114
125184,note_on,,,,,0,0,6,,,,1,38,114
125184,note_off,,,,,256,0,5,,,,3,36,0
125184,note_on,,,,,0,0,5,,,,3,38,127
125184,note_off,,,,,256,0,6,,,,1,36,0
125440,note_off,,,,,512,0,2,,,,2,88,0
125440,note_on,,,,,0,0,2,,,,2,79,114
125440,note_off,,,,,0,0,6,,,,1,79,0
125440,note_off,,,,,256,0,6,,,,1,76,0
125440,note_on,,,,,0,0,6,,,,1,76,114
125440,note_off,,,,,512,0,3,,,,6,79,0
125440,note_on,,,,,512,0,4,,,,12,79,127
125440,note_off,,,,,0,0,6,,,,1,88,0
125440,note_on,,,,,0,0,6,,,,1,79,114
125440,note_on,,,,,0,0,6,,,,1,40,114
125440,note_off,,,,,0,0,6,,,,1,38,0
125440,note_on,,,,,0,0,5,,,,3,40,127
125440,note_off,,,,,256,0,5,,,,3,38,0
125440,note_on,,,,,0,0,3,,,,6,76,101
125440,note_on,,,,,0,0,6,,,,1,72,114
125696,note_off,,,,,256,0,6,,,,1,40,0
125696,note_on,,,,,0,0,5,,,,3,38,127
125696,note_off,,,,,256,0,5,,,,3,40,0
125696,note_on,,,,,0,0,6,,,,1,38,114
125952,note_off,,,,,256,0,6,,,,1,72,0
125952,note_on,,,,,0,0,6,,,,1,76,114
125952,note_off,,,,,0,0,6,,,,1,38,0
125952,note_on,,,,,0,0,6,,,,1,88,114
125952,note_on,,,,,0,0,6,,,,1,79,114
125952,note_on,,,,,0,0,6,,,,1,36,114
125952,note_off,,,,,0,0,6,,,,1,76,0
125952,note_off,,,,,0,0,6,,,,1,79,0
125952,note_off,,,,,512,0,3,,,,6,76,0
125952,note_on,,,,,0,0,2,,,,2,88,114
125952,note_on,,,,,0,0,3,,,,6,79,101
125952,note_on,,,,,0,0,5,,,,3,36,127
125952,note_off,,,,,512,0,2,,,,2,79,0
125952,note_on,,,,,0,0,4,,,,12,84,127
125952,note_off,,,,,512,0,4,,,,12,79,0
125952,note_off,,,,,256,0,5,,,,3,38,0
126464,note_off,,,,,512,0,5,,,,3,36,0
126464,note_on,,,,,0,0,5,,,,3,48,127
126464,note_on,,,,,0,0,3,,,,6,76,101
126464,note_off,,,,,512,0,3,,,,6,79,0
126464,note_on,,,,,0,0,2,,,,2,79,114
126464,note_off,,,,,512,0,6,,,,1,76,0
126464,note_off,,,,,0,0,6,,,,1,79,0
126464,note_off,,,,,0,0,6,,,,1,88,0
126464,note_on,,,,,0,0,6,,,,1,72,114
126464,note_on,,,,,0,0,6,,,,1,76,114
126464,note_off,,,,,0,0,6,,,,1,36,0
126464,note_on,,,,,0,0,6,,,,1,48,114
126464,note_off,,,,,512,0,2,,,,2,88,0
126464,note_on,,,,,0,0,6,,,,1,79,114
126464,note_off,,,,,512,0,4,,,,12,84,0
126464,note_on,,,,,0,0,4,,,,12,79,127
126976,note_on,,,,,0,0,6,,,,1,77,114
126976,note_on,,,,,0,0,2,,,,2,77,114
126976,note_off,,,,,512,0,2,,,,2,79,0
126976,note_on,,,,,0,0,4,,,,12,81,127
126976,note_on,,,,,0,0,5,,,,3,47,127
126976,note_off,,,,,512,0,6,,,,1,72,0
126976,note_off,,,,,0,0,6,,,,1,76,0
126976,note_off,,,,,0,0,6,,,,1,79,0
126976,note_off,,,,,0,0,6,,,,1,48,0
126976,note_on,,,,,0,0,6,,,,1,74,114
126976,note_on,,,,,0,0,3,,,,6,74,101
126976,note_on,,,,,0,0,6,,,,1,81,114
126976,note_on,,,,,0,0,6,,,,1,47,114
126976,note_off,,,,,512,0,3,,,,6,76,0
126976,note_off,,,,,512,0,5,,,,3,48,0
126976,note_off,,,,,512,0,4,,,,12,79,0
127488,note_off,,,,,0,0,6,,,,1,81,0
127488,note_off,,,,,512,0,3,,,,6,74,0
127488,note_off,,,,,512,0,2,,,,2,77,0
127488,note_on,,,,,0,0,4,,,,12,79,127
127488,note_on,,,,,0,0,3,,,,6,67,101
127488,note_off,,,,,512,0,4,,,,12,81,0
127488,note_on,,,,,0,0,6,,,,1,67,114
127488,note_off,,,,,512,0,5,,,,3,47,0
127488,note_on,,,,,0,0,5,,,,3,48,127
127488,note_on,,,,,0,0,2,,,,2,76,114
127488,note_on,,,,,0,0,6,,,,1,48,114
127488,note_off,,,,,0,0,6,,,,1,77,0
127488,note_off,,,,,512,0,6,,,,1,74,0
127488,note_off,,,,,0,0,6,,,,1,47,0
127488,note_on,,,,,0,0,6,,,,1,76,114
127488,note_on,,,,,0,0,6,,,,1,79,114
128000,note_off,,,,,512,0,2,,,,2,76,0
128000,note_off,,,,,512,0,4,,,,12,79,0
128000,note_off,,,,,0,0,6,,,,1,79,0
128000,note_off,,,,,512,0,3,,,,6,67,0
128000,note_off,,,,,512,0,5,,,,3,48,0
128000,note_off,,,,,512,0,6,,,,1,67,0
128000,note_off,,,,,0,0,6,,,,1,76,0
128000,note_off,,,,,0,0,6,,,,1,48,0
129024,note_on,,,,,1024,0,3,,,,6,71,101
129024,note_on,,,,,1024,0,5,,,,3,43,127
129024,note_on,,,,,0,0,6,,,,1,43,114
129024,note_on,,,,,1024,0,4,,,,12,77,127
129024,note_on,,,,,0,0,6,,,,1,77,114
129024,note_on,,,,,0,0,6,,,,1,74,114
129024,note_on,,,,,1024,0,6,,,,1,71,114
129024,note_on,,,,,1024,0,2,,,,2,74,114
129536,note_on,,,,,0,0,4,,,,12,79,127
129536,note_off,,,,,0,0,6,,,,1,74,0
129536,note_off,,,,,0,0,6,,,,1,77,0
129536,note_on,,,,,0,0,6,,,,1,67,114
129536,note_on,,,,,0,0,6,,,,1,76,114
129536,note_off,,,,,512,0,4,,,,12,77,0
129536,note_on,,,,,0,0,6,,,,1,79,114
129536,note_off,,,,,0,0,6,,,,1,43,0
129536,note_off,,,,,512,0,5,,,,3,43,0
129536,note_on,,,,,0,0,2,,,,2,76,114
129536,note_on,,,,,0,0,5,,,,3,48,127
129536,note_on,,,,,0,0,3,,,,6,67,101
129536,note_off,,,,,512,0,3,,,,6,71,0
129536,note_off,,,,,512,0,6,,,,1,71,0
129536,note_on,,,,,0,0,6,,,,1,48,114
129536,note_off,,,,,512,0,2,,,,2,74,0
130048,note_off,,,,,512,0,2,,,,2,76,0
130048,note_off,,,,,512,0,5,,,,3,48,0
130048,note_off,,,,,0,0,6,,,,1,48,0
130048,note_off,,,,,512,0,3,,,,6,67,0
130048,note_off,,,,,512,0,6,,,,1,67,0
130048,note_off,,,,,0,0,6,,,,1,76,0
130048,note_off,,,,,0,0,6,,,,1,79,0
130048,note_off,,,,,512,0,4,,,,12,79,0
131072,note_on,,,,,1024,0,4,,,,12,77,127
131072,note_on,,,,,1024,0,6,,,,1,71,114
131072,note_on,,,,,1024,0,5,,,,3,43,127
131072,note_on,,,,,1024,0,2,,,,2,74,114
131072,note_on,,,,,0,0,6,,,,1,77,114
131072,note_on,,,,,1024,0,3,,,,6,71,101
131072,note_on,,,,,0,0,6,,,,1,74,114
131072,note_on,,,,,0,0,6,,,,1,43,114
131584,note_on,,,,,0,0,6,,,,1,48,114
131584,note_on,,,,,0,0,4,,,,12,76,127
131584,note_off,,,,,512,0,5,,,,3,43,0
131584,note_off,,,,,0,0,6,,,,1,43,0
131584,note_on,,,,,0,0,5,,,,3,48,127
131584,note_off,,,,,512,0,6,,,,1,71,0
131584,note_off,,,,,0,0,6,,,,1,74,0
131584,note_on,,,,,0,0,6,,,,1,67,114
131584,note_on,,,,,0,0,6,,,,1,72,114
131584,note_off,,,,,512,0,4,,,,12,77,0
131584,note_on,,,,,0,0,6,,,,1,76,114
131584,note_off,,,,,512,0,2,,,,2,74,0
131584,note_off,,,,,0,0,6,,,,1,77,0
131584,note_on,,,,,0,0,2,,,,2,72,114
131584,note_off,,,,,512,0,3,,,,6,71,0
131584,note_on,,,,,0,0,3,,,,6,67,101
132096,note_off,,,,,512,0,2,,,,2,72,0
132096,note_off,,,,,512,0,5,,,,3,48,0
132096,note_off,,,,,512,0,3,,,,6,67,0
132096,note_off,,,,,512,0,4,,,,12,76,0
132096,note_off,,,,,512,0,6,,,,1,67,0
132096,note_off,,,,,0,0,6,,,,1,72,0
132096,note_off,,,,,0,0,6,,,,1,76,0
132096,note_off,,,,,0,0,6,,,,1,48,0
133120,note_on,,,,,1024,0,3,,,,6,71,101
133120,note_on,,,,,1024,0,4,,,,12,74,127
133120,note_on,,,,,1024,0,6,,,,1,67,114
133120,note_on,,,,,0,0,6,,,,1,71,114
133120,note_on,,,,,0,0,6,,,,1,74,114
133120,note_on,,,,,0,0,6,,,,1,43,114
133120,note_on,,,,,1024,0,2,,,,2,71,114
133120,note_on,,,,,1024,0,5,,,,3,43,127
133632,note_off,,,,,512,0,6,,,,1,67,0
133632,note_off,,,,,0,0,6,,,,1,71,0
133632,note_off,,,,,0,0,6,,,,1,74,0
133632,note_on,,,,,0,0,6,,,,1,67,114
133632,note_on,,,,,0,0,6,,,,1,72,114
133632,note_on,,,,,0,0,6,,,,1,76,114
133632,note_off,,,,,0,0,6,,,,1,43,0
133632,note_on,,,,,0,0,6,,,,1,48,114
133632,note_off,,,,,512,0,3,,,,6,71,0
133632,note_on,,,,,0,0,3,,,,6,71,101
133632,note_off,,,,,512,0,5,,,,3,43,0
133632,note_on,,,,,0,0,5,,,,3,48,127
133632,note_off,,,,,512,0,2,,,,2,71,0
133632,note_on,,,,,0,0,2,,,,2,72,114
133632,note_on,,,,,0,0,4,,,,12,76,127
133632,note_off,,,,,512,0,4,,,,12,74,0
134144,note_off,,,,,0,0,6,,,,1,72,0
134144,note_off,,,,,512,0,3,,,,6,71,0
134144,note_off,,,,,512,0,2,,,,2,72,0
134144,note_off,,,,,512,0,4,,,,12,76,0
134144,note_off,,,,,0,0,6,,,,1,76,0
134144,note_off,,,,,0,0,6,,,,1,48,0
134144,note_off,,,,,512,0,5,,,,3,48,0
134144,note_off,,,,,512,0,6,,,,1,67,0
135168,note_on,,,,,1024,0,3,,,,6,72,101
135168,note_on,,,,,1024,0,5,,,,3,60,127
135168,note_on,,,,,0,0,6,,,,1,60,114
135168,note_on,,,,,1024,0,6,,,,1,72,114
135168,note_on,,,,,1024,0,2,,,,2,72,114
135168,note_on,,,,,1024,0,4,,,,12,72,127
135424,note_on,,,,,0,0,6,,,,1,59,114
135424,note_on,,,,,0,0,6,,,,1,71,114
135424,note_off,,,,,256,0,6,,,,1,72,0
135424,note_on,,,,,0,0,2,,,,2,71,114
135424,note_off,,,,,256,0,2,,,,2,72,0
135424,note_off,,,,,0,0,6,,,,1,60,0
135424,note_off,,,,,256,0,3,,,,6,72,0
135424,note_on,,,,,0,0,4,,,,12,71,127
135424,note_on,,,,,0,0,3,,,,6,71,101
135424,note_on,,,,,0,0,5,,,,3,59,127
135424,note_off,,,,,256,0,4,,,,12,72,0
135424,note_off,,,,,256,0,5,,,,3,60,0
135680,note_off,,,,,256,0,2,,,,2,71,0
135680,note_on,,,,,0,0,2,,,,2,69,114
135680,note_off,,,,,256,0,6,,,,1,71,0
135680,note_off,,,,,0,0,6,,,,1,59,0
135680,note_on,,,,,0,0,6,,,,1,69,114
135680,note_on,,,,,0,0,6,,,,1,57,114
135680,note_off,,,,,256,0,3,,,,6,71,0
135680,note_off,,,,,256,0,4,,,,12,71,0
135680,note_on,,,,,0,0,5,,,,3,57,127
135680,note_off,,,,,256,0,5,,,,3,59,0
135680,note_on,,,,,0,0,3,,,,6,69,101
135680,note_on,,,,,0,0,4,,,,12,69,127
135936,note_off,,,,,256,0,6,,,,1,69,0
135936,note_on,,,,,0,0,6,,,,1,67,114
135936,note_off,,,,,0,0,6,,,,1,57,0
135936,note_on,,,,,0,0,6,,,,1,55,114
135936,note_off,,,,,256,0,4,,,,12,69,0
135936,note_on,,,,,0,0,2,,,,2,67,114
135936,note_on,,,,,0,0,4,,,,12,67,127
135936,note_on,,,,,0,0,5,,,,3,55,127
135936,note_off,,,,,256,0,3,,,,6,69,0
135936,note_on,,,,,0,0,3,,,,6,67,101
135936,note_off,,,,,256,0,2,,,,2,69,0
135936,note_off,,,,,256,0,5,,,,3,57,0
136192,note_on,,,,,0,0,5,,,,3,57,127
136192,note_on,,,,,0,0,6,,,,1,57,114
136192,note_off,,,,,0,0,6,,,,1,55,0
136192,note_on,,,,,0,0,6,,,,1,69,114
136192,note_off,,,,,256,0,6,,,,1,67,0
136192,note_off,,,,,256,0,5,,,,3,55,0
136192,note_off,,,,,256,0,3,,,,6,67,0
136192,note_off,,,,,256,0,4,,,,12,67,0
136192,note_on,,,,,0,0,4,,,,12,69,127
136192,note_on,,,,,0,0,2,,,,2,69,114
136192,note_on,,,,,0,0,3,,,,6,69,101
136192,note_off,,,,,256,0,2,,,,2,67,0
136448,note_on,,,,,0,0,5,,,,3,55,127
136448,note_off,,,,,256,0,4,,,,12,69,0
136448,note_on,,,,,0,0,4,,,,12,67,127
136448,note_off,,,,,256,0,3,,,,6,69,0
136448,note_off,,,,,256,0,5,,,,3,57,0
136448,note_off,,,,,256,0,6,,,,1,69,0
136448,note_off,,,,,0,0,6,,,,1,57,0
136448,note_on,,,,,0,0,6,,,,1,67,114
136448,note_on,,,,,0,0,3,,,,6,67,101
136448,note_off,,,,,256,0,2,,,,2,69,0
136448,note_on,,,,,0,0,2,,,,2,67,114
136448,note_on,,,,,0,0,6,,,,1,55,114
136704,note_off,,,,,0,0,6,,,,1,55,0
136704,note_off,,,,,256,0,3,,,,6,67,0
136704,note_on,,,,,0,0,3,,,,6,65,101
136704,note_on,,,,,0,0,5,,,,3,53,127
136704,note_on,,,,,0,0,6,,,,1,65,114
136704,note_on,,,,,0,0,2,,,,2,65,114
136704,note_off,,,,,256,0,2,,,,2,67,0
136704,note_off,,,,,256,0,4,,,,12,67,0
136704,note_on,,,,,0,0,4,,,,12,65,127
136704,note_off,,,,,256,0,5,,,,3,55,0
136704,note_on,,,,,0,0,6,,,,1,53,114
136704,note_off,,,,,256,0,6,,,,1,67,0
136960,note_on,,,,,0,0,2,,,,2,64,114
136960,note_off,,,,,256,0,5,,,,3,53,0
136960,note_on,,,,,0,0,5,,,,3,52,127
136960,note_off,,,,,256,0,3,,,,6,65,0
136960,note_off,,,,,256,0,4,,,,12,65,0
136960,note_on,,,,,0,0,4,,,,12,64,127
136960,note_off,,,,,256,0,2,,,,2,65,0
136960,note_on,,,,,0,0,3,,,,6,64,101
136960,note_off,,,,,256,0,6,,,,1,65,0
136960,note_on,,,,,0,0,6,,,,1,64,114
136960,note_off,,,,,0,0,6,,,,1,53,0
136960,note_on,,,,,0,0,6,,,,1,52,114
137216,note_off,,,,,256,0,3,,,,6,64,0
137216,note_on,,,,,0,0,6,,,,1,60,114
137216,note_off,,,,,0,0,6,,,,1,52,0
137216,note_on,,,,,0,0,6,,,,1,72,114
137216,note_off,,,,,256,0,2,,,,2,64,0
137216,note_on,,,,,0,0,2,,,,2,72,114
137216,note_on,,,,,0,0,3,,,,6,72,101
137216,note_on,,,,,0,0,5,,,,3,60,127
137216,note_off,,,,,256,0,6,,,,1,64,0
137216,note_off,,,,,256,0,5,,,,3,52,0
137216,note_off,,,,,256,0,4,,,,12,64,0
137216,note_on,,,,,0,0,4,,,,12,72,127
137472,note_off,,,,,256,0,2,,,,2,72,0
137472,note_on,,,,,0,0,2,,,,2,71,114
137472,note_off,,,,,256,0,6,,,,1,72,0
137472,note_on,,,,,0,0,6,,,,1,71,114
137472,note_off,,,,,256,0,5,,,,3,60,0
137472,note_on,,,,,0,0,4,,,,12,71,127
137472,note_off,,,,,0,0,6,,,,1,60,0
137472,note_on,,,,,0,0,5,,,,3,59,127
137472,note_off,,,,,256,0,3,,,,6,72,0
137472,note_on,,,,,0,0,3,,,,6,71,101
137472,note_off,,,,,256,0,4,,,,12,72,0
137472,note_on,,,,,0,0,6,,,,1,59,114
137728,note_on,,,,,0,0,6,,,,1,69,114
137728,note_on,,,,,0,0,4,,,,12,69,127
137728,note_off,,,,,256,0,5,,,,3,59,0
137728,note_on,,,,,0,0,5,,,,3,57,127
137728,note_on,,,,,0,0,6,,,,1,57,114
137728,note_off,,,,,256,0,6,,,,1,71,0
137728,note_on,,,,,0,0,2,,,,2,69,114
137728,note_off,,,,,256,0,4,,,,12,71,0
137728,note_off,,,,,256,0,3,,,,6,71,0
137728,note_on,,,,,0,0,3,,,,6,69,101
137728,note_off,,,,,0,0,6,,,,1,59,0
137728,note_off,,,,,256,0,2,,,,2,71,0
137984,note_on,,,,,0,0,4,,,,12,67,127
137984,note_on,,,,,0,0,5,,,,3,55,127
137984,note_off,,,,,256,0,2,,,,2,69,0
137984,note_off,,,,,256,0,5,,,,3,57,0
137984,note_off,,,,,256,0,4,,,,12,69,0
137984,note_on,,,,,0,0,2,,,,2,67,114
137984,note_off,,,,,256,0,3,,,,6,69,0
137984,note_off,,,,,0,0,6,,,,1,57,0
137984,note_on,,,,,0,0,6,,,,1,55,114
137984,note_on,,,,,0,0,6,,,,1,67,114
137984,note_on,,,,,0,0,3,,,,6,67,101
137984,note_off,,,,,256,0,6,,,,1,69,0
138240,note_off,,,,,256,0,3,,,,6,67,0
138240,note_on,,,,,0,0,4,,,,12,69,127
138240,note_off,,,,,256,0,4,,,,12,67,0
138240,note_on,,,,,0,0,5,,,,3,57,127
138240,note_off,,,,,256,0,5,,,,3,55,0
138240,note_off,,,,,0,0,6,,,,1,55,0
138240,note_on,,,,,0,0,6,,,,1,69,114
138240,note_off,,,,,256,0,6,,,,1,67,0
138240,note_off,,,,,256,0,2,,,,2,67,0
138240,note_on,,,,,0,0,2,,,,2,69,114
138240,note_on,,,,,0,0,3,,,,6,69,101
138240,note_on,,,,,0,0,6,,,,1,57,114
138496,note_off,,,,,256,0,2,,,,2,69,0
138496,note_off,,,,,256,0,5,,,,3,57,0
138496,note_on,,,,,0,0,2,,,,2,67,114
138496,note_on,,,,,0,0,5,,,,3,55,127
138496,note_on,,,,,0,0,6,,,,1,67,114
138496,note_off,,,,,0,0,6,,,,1,57,0
138496,note_on,,,,,0,0,6,,,,1,55,114
138496,note_off,,,,,256,0,4,,,,12,69,0
138496,note_on,,,,,0,0,4,,,,12,67,127
138496,note_on,,,,,0,0,3,,,,6,67,101
138496,note_off,,,,,256,0,3,,,,6,69,0
138496,note_off,,,,,256,0,6,,,,1,69,0
138752,note_on,,,,,0,0,6,,,,1,53,114
138752,note_off,,,,,0,0,6,,,,1,55,0
138752,note_on,,,,,0,0,6,,,,1,65,114
138752,note_off,,,,,256,0,6,,,,1,67,0
138752,note_off,,,,,256,0,4,,,,12,67,0
138752,note_on,,,,,0,0,4,,,,12,65,127
138752,note_off,,,,,256,0,2,,,,2,67,0
138752,note_on,,,,,0,0,2,,,,2,65,114
138752,note_off,,,,,256,0,3,,,,6,67,0
138752,note_on,,,,,0,0,3,,,,6,65,101
138752,note_off,,,,,256,0,5,,,,3,55,0
138752,note_on,,,,,0,0,5,,,,3,53,127
139008,note_off,,,,,256,0,3,,,,6,65,0
139008,note_on,,,,,0,0,3,,,,6,64,101
139008,note_on,,,,,0,0,2,,,,2,64,114
139008,note_off,,,,,256,0,2,,,,2,65,0
139008,note_off,,,,,256,0,6,,,,1,65,0
139008,note_on,,,,,0,0,6,,,,1,64,114
139008,note_off,,,,,0,0,6,,,,1,53,0
139008,note_on,,,,,0,0,6,,,,1,52,114
139008,note_on,,,,,0,0,5,,,,3,52,127
139008,note_off,,,,,256,0,5,,,,3,53,0
139008,note_on,,,,,0,0,4,,,,12,64,127
139008,note_off,,,,,256,0,4,,,,12,65,0
139264,note_on,,,,,0,0,6,,,,1,53,114
139264,note_off,,,,,256,0,5,,,,3,52,0
139264,note_on,,,,,0,0,5,,,,3,53,127
139264,note_off,,,,,256,0,2,,,,2,64,0
139264,note_on,,,,,0,0,2,,,,2,65,114
139264,note_on,,,,,0,0,3,,,,6,65,101
139264,note_off,,,,,256,0,3,,,,6,64,0
139264,note_on,,,,,0,0,4,,,,12,65,127
139264,note_off,,,,,256,0,4,,,,12,64,0
139264,note_off,,,,,256,0,6,,,,1,64,0
139264,note_on,,,,,0,0,6,,,,1,65,114
139264,note_off,,,,,0,0,6,,,,1,52,0
139776,note_off,,,,,512,0,4,,,,12,65,0
139776,note_off,,,,,0,0,6,,,,1,53,0
139776,note_off,,,,,512,0,6,,,,1,65,0
139776,note_off,,,,,512,0,2,,,,2,65,0
139776,note_off,,,,,512,0,5,,,,3,53,0
139776,note_off,,,,,512,0,3,,,,6,65,0
140288,note_on,,,,,512,0,6,,,,1,62,114
140288,note_on,,,,,512,0,2,,,,2,71,114
140288,note_on,,,,,512,0,3,,,,6,62,101
140288,note_on,,,,,0,0,6,,,,1,67,114
140288,note_on,,,,,0,0,6,,,,1,71,114
140288,note_on,,,,,512,0,5,,,,3,55,127
140288,note_on,,,,,512,0,4,,,,12,67,127
140288,note_on,,,,,0,0,6,,,,1,55,114
140800,note_off,,,,,512,0,3,,,,6,62,0
140800,note_off,,,,,512,0,2,,,,2,71,0
140800,note_off,,,,,512,0,5,,,,3,55,0
140800,note_off,,,,,512,0,6,,,,1,62,0
140800,note_off,,,,,0,0,6,,,,1,67,0
140800,note_off,,,,,0,0,6,,,,1,71,0
140800,note_off,,,,,0,0,6,,,,1,55,0
140800,note_off,,,,,512,0,4,,,,12,67,0
141312,note_on,,,,,512,0,4,,,,12,60,127
141312,note_on,,,,,0,0,6,,,,1,72,114
141312,note_on,,,,,512,0,3,,,,6,64,101
141312,note_on,,,,,512,0,5,,,,3,48,127
141312,note_on,,,,,512,0,6,,,,1,64,114
141312,note_on,,,,,0,0,6,,,,1,67,114
141312,note_on,,,,,512,0,2,,,,2,72,114
141312,note_on,,,,,0,0,6,,,,1,48,114
142336,note_off,,,,,1024,0,4,,,,12,60,0
142336,note_off,,,,,1024,0,3,,,,6,64,0
142336,note_off,,,,,1024,0,6,,,,1,64,0
142336,note_off,,,,,0,0,6,,,,1,67,0
142336,note_off,,,,,0,0,6,,,,1,72,0
142336,note_off,,,,,0,0,6,,,,1,48,0
142336,note_off,,,,,1024,0,2,,,,2,72,0
142336,note_off,,,,,1024,0,5,,,,3,48,0
142592,note_on,,,,,256,0,4,,,,12,79,127
142848,note_off,,,,,256,0,4,,,,12,79,0
142848,note_on,,,,,0,0,4,,,,12,77,127
143104,note_off,,,,,256,0,4,,,,12,77,0
143104,note_on,,,,,0,0,4,,,,12,79,127
143360,note_on,,,,,1024,0,6,,,,1,64,75
143360,note_on,,,,,0,0,6,,,,1,67,75
143360,note_on,,,,,0,0,6,,,,1,72,75
143360,note_on,,,,,0,0,6,,,,1,48,75
143360,note_on,,,,,1024,0,5,,,,3,48,114
143360,note_on,,,,,1024,0,3,,,,6,67,49
143360,note_on,,,,,0,0,4,,,,12,76,127
143360,note_off,,,,,256,0,4,,,,12,79,0
143360,note_on,,,,,1024,0,2,,,,2,72,49
143616,note_off,,,,,256,0,4,,,,12,76,0
143616,note_on,,,,,0,0,4,,,,12,77,127
143872,note_off,,,,,256,0,4,,,,12,77,0
143872,note_on,,,,,0,0,4,,,,12,74,127
144128,note_off,,,,,256,0,4,,,,12,74,0
144128,note_on,,,,,0,0,4,,,,12,76,127
144384,note_on,,,,,0,0,4,,,,12,72,127
144384,note_off,,,,,1024,0,2,,,,2,72,0
144384,note_off,,,,,256,0,4,,,,12,76,0
144384,note_off,,,,,1024,0,3,,,,6,67,0
144384,note_off,,,,,0,0,6,,,,1,67,0
144384,note_off,,,,,1024,0,6,,,,1,64,0
144384,note_off,,,,,0,0,6,,,,1,72,0
144384,note_off,,,,,0,0,6,,,,1,48,0
144384,note_off,,,,,1024,0,5,,,,3,48,0
144640,note_off,,,,,256,0,4,,,,12,72,0
144640,note_on,,,,,0,0,4,,,,12,76,127
144896,note_off,,,,,256,0,4,,,,12,76,0
144896,note_on,,,,,0,0,4,,,,12,74,127
145152,note_off,,,,,256,0,4,,,,12,74,0
145152,note_on,,,,,0,0,4,,,,12,72,127
145408,note_on,,,,,1024,0,3,,,,6,59,49
145408,note_on,,,,,0,0,4,,,,12,74,127
145408,note_on,,,,,0,0,6,,,,1,43,75
145408,note_on,,,,,0,0,6,,,,1,67,75
145408,note_on,,,,,1024,0,6,,,,1,59,75
145408,note_on,,,,,1024,0,2,,,,2,67,49
145408,note_on,,,,,1024,0,5,,,,3,43,114
145408,note_off,,,,,256,0,4,,,,12,72,0
145920,note_off,,,,,0,0,6,,,,1,67,0
145920,note_off,,,,,512,0,6,,,,1,59,0
145920,note_on,,,,,0,0,6,,,,1,45,75
145920,note_on,,,,,0,0,5,,,,3,45,114
145920,note_off,,,,,512,0,5,,,,3,43,0
145920,note_off,,,,,512,0,3,,,,6,59,0
145920,note_on,,,,,0,0,3,,,,6,60,49
145920,note_on,,,,,0,0,4,,,,12,67,127
145920,note_off,,,,,512,0,4,,,,12,74,0
145920,note_on,,,,,0,0,6,,,,1,60,75
145920,note_off,,,,,0,0,6,,,,1,43,0
146432,note_off,,,,,512,0,6,,,,1,60,0
146432,note_on,,,,,0,0,6,,,,1,47,75
146432,note_off,,,,,0,0,6,,,,1,45,0
146432,note_off,,,,,512,0,5,,,,3,45,0
146432,note_on,,,,,0,0,6,,,,1,62,75
146432,note_on,,,,,0,0,5,,,,3,47,114
146432,note_off,,,,,512,0,3,,,,6,60,0
146432,note_on,,,,,0,0,3,,,,6,62,49
146432,note_off,,,,,512,0,4,,,,12,67,0
146688,note_on,,,,,256,0,4,,,,12,74,127
146944,note_off,,,,,512,0,6,,,,1,62,0
146944,note_off,,,,,512,0,3,,,,6,62,0
146944,note_on,,,,,0,0,3,,,,6,60,49
146944,note_off,,,,,256,0,4,,,,12,74,0
146944,note_on,,,,,0,0,4,,,,12,72,127
146944,note_on,,,,,0,0,6,,,,1,60,75
146944,note_off,,,,,512,0,5,,,,3,47,0
146944,note_on,,,,,0,0,5,,,,3,45,114
146944,note_on,,,,,0,0,2,,,,2,64,49
146944,note_off,,,,,1536,0,2,,,,2,67,0
146944,note_on,,,,,0,0,6,,,,1,64,75
146944,note_off,,,,,0,0,6,,,,1,47,0
146944,note_on,,,,,0,0,6,,,,1,45,75
147200,note_off,,,,,256,0,2,,,,2,64,0
147200,note_off,,,,,256,0,6,,,,1,60,0
147200,note_off,,,,,0,0,6,,,,1,64,0
147200,note_on,,,,,0,0,6,,,,1,66,75
147200,note_on,,,,,0,0,2,,,,2,66,49
147200,note_off,,,,,256,0,4,,,,12,72,0
147200,note_on,,,,,0,0,4,,,,12,74,127
147456,note_off,,,,,256,0,2,,,,2,66,0
147456,note_on,,,,,0,0,6,,,,1,43,75
147456,note_on,,,,,0,0,4,,,,12,71,127
147456,note_on,,,,,0,0,5,,,,3,43,114
147456,note_on,,,,,0,0,6,,,,1,67,75
147456,note_off,,,,,512,0,5,,,,3,45,0
147456,note_on,,,,,0,0,6,,,,1,60,75
147456,note_off,,,,,512,0,3,,,,6,60,0
147456,note_on,,,,,0,0,3,,,,6,64,49
147456,note_off,,,,,256,0,4,,,,12,74,0
147456,note_off,,,,,0,0,6,,,,1,45,0
147456,note_off,,,,,256,0,6,,,,1,66,0
147456,note_on,,,,,0,0,2,,,,2,67,49
147712,note_on,,,,,0,0,4,,,,12,72,127
147712,note_off,,,,,256,0,4,,,,12,71,0
147968,note_on,,,,,0,0,4,,,,12,69,127
147968,note_off,,,,,256,0,4,,,,12,72,0
148224,note_off,,,,,256,0,4,,,,12,69,0
148224,note_on,,,,,0,0,4,,,,12,71,127
148480,note_off,,,,,0,0,6,,,,1,43,0
148480,note_off,,,,,1024,0,2,,,,2,67,0
148480,note_off,,,,,0,0,6,,,,1,67,0
148480,note_off,,,,,1024,0,5,,,,3,43,0
148480,note_on,,,,,0,0,4,,,,12,67,127
148480,note_off,,,,,256,0,4,,,,12,71,0
148480,note_off,,,,,1024,0,3,,,,6,64,0
148480,note_off,,,,,1024,0,6,,,,1,60,0
148736,note_off,,,,,256,0,4,,,,12,67,0
148736,note_on,,,,,0,0,4,,,,12,69,127
148992,note_off,,,,,256,0,4,,,,12,69,0
148992,note_on,,,,,0,0,4,,,,12,65,127
149248,note_on,,,,,0,0,4,,,,12,67,127
149248,note_off,,,,,256,0,4,,,,12,65,0
149504,note_on,,,,,1024,0,6,,,,1,60,75
149504,note_on,,,,,0,0,6,,,,1,64,75
149504,note_on,,,,,0,0,6,,,,1,48,75
149504,note_on,,,,,1024,0,5,,,,3,48,114
149504,note_on,,,,,1024,0,3,,,,6,60,49
149504,note_on,,,,,0,0,4,,,,12,64,127
149504,note_off,,,,,256,0,4,,,,12,67,0
149504,note_on,,,,,1024,0,2,,,,2,64,49
150016,note_off,,,,,512,0,4,,,,12,64,0
150016,note_off,,,,,512,0,6,,,,1,60,0
150016,note_off,,,,,0,0,6,,,,1,64,0
150016,note_on,,,,,0,0,6,,,,1,65,75
150016,note_off,,,,,0,0,6,,,,1,48,0
150016,note_on,,,,,0,0,6,,,,1,50,75
150016,note_on,,,,,0,0,2,,,,2,65,49
150016,note_on,,,,,0,0,4,,,,12,60,127
150016,note_off,,,,,512,0,2,,,,2,64,0
150016,note_on,,,,,0,0,5,,,,3,50,114
150016,note_off,,,,,512,0,5,,,,3,48,0
150528,note_off,,,,,512,0,2,,,,2,65,0
150528,note_on,,,,,0,0,2,,,,2,67,49
150528,note_on,,,,,0,0,5,,,,3,52,114
150528,note_on,,,,,0,0,6,,,,1,52,75
150528,note_off,,,,,0,0,6,,,,1,50,0
150528,note_on,,,,,0,0,6,,,,1,67,75
150528,note_off,,,,,512,0,6,,,,1,65,0
150528,note_off,,,,,512,0,4,,,,12,60,0
150528,note_off,,,,,512,0,5,,,,3,50,0
150784,note_on,,,,,256,0,4,,,,12,79,127
151040,note_on,,,,,0,0,2,,,,2,65,49
151040,note_off,,,,,512,0,2,,,,2,67,0
151040,note_on,,,,,0,0,3,,,,6,57,49
151040,note_off,,,,,1536,0,3,,,,6,60,0
151040,note_off,,,,,512,0,5,,,,3,52,0
151040,note_off,,,,,256,0,4,,,,12,79,0
151040,note_on,,,,,0,0,5,,,,3,50,114
151040,note_off,,,,,512,0,6,,,,1,67,0
151040,note_on,,,,,0,0,6,,,,1,57,75
151040,note_on,,,,,0,0,6,,,,1,65,75
151040,note_off,,,,,0,0,6,,,,1,52,0
151040,note_on,,,,,0,0,6,,,,1,50,75
151040,note_on,,,,,0,0,4,,,,12,77,127
151296,note_off,,,,,256,0,4,,,,12,77,0
151296,note_on,,,,,0,0,6,,,,1,59,75
151296,note_on,,,,,0,0,3,,,,6,59,49
151296,note_off,,,,,256,0,3,,,,6,57,0
151296,note_off,,,,,0,0,6,,,,1,65,0
151296,note_off,,,,,256,0,6,,,,1,57,0
151296,note_on,,,,,0,0,4,,,,12,79,127
151552,note_off,,,,,512,0,2,,,,2,65,0
151552,note_on,,,,,0,0,5,,,,3,49,114
151552,note_on,,,,,0,0,6,,,,1,57,75
151552,note_on,,,,,0,0,6,,,,1,64,75
151552,note_on,,,,,0,0,6,,,,1,69,75
151552,note_on,,,,,0,0,6,,,,1,49,75
151552,note_off,,,,,512,0,5,,,,3,50,0
151552,note_on,,,,,0,0,4,,,,12,76,127
151552,note_off,,,,,256,0,3,,,,6,59,0
151552,note_on,,,,,0,0,3,,,,6,64,49
151552,note_off,,,,,256,0,4,,,,12,79,0
151552,note_off,,,,,0,0,6,,,,1,50,0
151552,note_on,,,,,0,0,2,,,,2,69,49
151552,note_off,,,,,256,0,6,,,,1,59,0
151808,note_off,,,,,256,0,4,,,,12,76,0
151808,note_on,,,,,0,0,4,,,,12,77,127
152064,note_off,,,,,256,0,4,,,,12,77,0
152064,note_on,,,,,0,0,4,,,,12,74,127
152320,note_off,,,,,256,0,4,,,,12,74,0
152320,note_on,,,,,0,0,4,,,,12,76,127
152576,note_off,,,,,1024,0,6,,,,1,57,0
152576,note_off,,,,,1024,0,5,,,,3,49,0
152576,note_off,,,,,1024,0,3,,,,6,64,0
152576,note_off,,,,,0,0,6,,,,1,49,0
152576,note_off,,,,,0,0,6,,,,1,69,0
152576,note_off,,,,,0,0,6,,,,1,64,0
152576,note_off,,,,,256,0,4,,,,12,76,0
152576,note_on,,,,,0,0,4,,,,12,73,127
152576,note_off,,,,,1024,0,2,,,,2,69,0
152832,note_off,,,,,256,0,4,,,,12,73,0
152832,note_on,,,,,0,0,4,,,,12,74,127
153088,note_on,,,,,0,0,4,,,,12,71,127
153088,note_off,,,,,256,0,4,,,,12,74,0
153344,note_on,,,,,0,0,4,,,,12,73,127
153344,note_off,,,,,256,0,4,,,,12,71,0
153600,note_on,,,,,1024,0,3,,,,6,64,49
153600,note_on,,,,,1024,0,6,,,,1,64,75
153600,note_on,,,,,0,0,6,,,,1,69,75
153600,note_on,,,,,1024,0,2,,,,2,69,49
153600,note_on,,,,,0,0,6,,,,1,49,75
153600,note_on,,,,,0,0,4,,,,12,69,127
153600,note_on,,,,,1024,0,5,,,,3,49,114
153600,note_off,,,,,256,0,4,,,,12,73,0
154112,note_on,,,,,0,0,6,,,,1,65,75
154112,note_off,,,,,512,0,3,,,,6,64,0
154112,note_on,,,,,0,0,3,,,,6,65,49
154112,note_off,,,,,0,0,6,,,,1,69,0
154112,note_off,,,,,512,0,6,,,,1,64,0
154112,note_on,,,,,0,0,4,,,,12,82,127
154112,note_off,,,,,512,0,4,,,,12,69,0
154624,note_on,,,,,0,0,4,,,,12,81,127
154624,note_off,,,,,512,0,3,,,,6,65,0
154624,note_off,,,,,512,0,4,,,,12,82,0
154624,note_on,,,,,0,0,6,,,,1,67,75
154624,note_off,,,,,512,0,6,,,,1,65,0
154624,note_on,,,,,0,0,3,,,,6,67,49
154880,note_on,,,,,0,0,4,,,,12,79,127
154880,note_off,,,,,256,0,4,,,,12,81,0
155136,note_on,,,,,0,0,3,,,,6,65,49
155136,note_on,,,,,0,0,6,,,,1,65,75
155136,note_off,,,,,512,0,6,,,,1,67,0
155136,note_off,,,,,512,0,3,,,,6,67,0
155136,note_off,,,,,256,0,4,,,,12,79,0
155136,note_on,,,,,0,0,4,,,,12,77,127
155392,note_on,,,,,0,0,6,,,,1,67,75
155392,note_off,,,,,256,0,4,,,,12,77,0
155392,note_on,,,,,0,0,4,,,,12,76,127
155392,note_off,,,,,256,0,6,,,,1,65,0
155392,note_off,,,,,256,0,3,,,,6,65,0
155392,note_on,,,,,0,0,3,,,,6,67,49
155648,note_on,,,,,0,0,2,,,,2,69,49
155648,note_on,,,,,0,0,6,,,,1,50,75
155648,note_on,,,,,0,0,6,,,,1,69,75
155648,note_on,,,,,0,0,6,,,,1,65,75
155648,note_off,,,,,0,0,6,,,,1,49,0
155648,note_off,,,,,256,0,6,,,,1,67,0
155648,note_on,,,,,0,0,3,,,,6,65,49
155648,note_off,,,,,2048,0,2,,,,2,69,0
155648,note_on,,,,,0,0,4,,,,12,77,127
155648,note_off,,,,,256,0,4,,,,12,76,0
155648,note_off,,,,,2048,0,5,,,,3,49,0
155648,note_on,,,,,0,0,5,,,,3,50,114
155648,note_off,,,,,256,0,3,,,,6,67,0
155904,note_on,,,,,0,0,4,,,,12,76,127
155904,note_off,,,,,256,0,4,,,,12,77,0
156160,note_off,,,,,512,0,3,,,,6,65,0
156160,note_on,,,,,0,0,5,,,,3,52,114
156160,note_on,,,,,0,0,6,,,,1,52,75
156160,note_off,,,,,0,0,6,,,,1,50,0
156160,note_off,,,,,512,0,2,,,,2,69,0
156160,note_on,,,,,0,0,2,,,,2,67,49
156160,note_on,,,,,0,0,4,,,,12,74,127
156160,note_on,,,,,0,0,6,,,,1,62,75
156160,note_on,,,,,0,0,6,,,,1,67,75
156160,note_off,,,,,512,0,6,,,,1,65,0
156160,note_off,,,,,512,0,5,,,,3,50,0
156160,note_off,,,,,256,0,4,,,,12,76,0
156160,note_on,,,,,0,0,3,,,,6,62,49
156160,note_off,,,,,0,0,6,,,,1,69,0
156672,note_on,,,,,0,0,2,,,,2,69,49
156672,note_off,,,,,512,0,2,,,,2,67,0
156672,note_off,,,,,0,0,6,,,,1,52,0
156672,note_off,,,,,512,0,6,,,,1,62,0
156672,note_off,,,,,0,0,6,,,,1,67,0
156672,note_on,,,,,0,0,6,,,,1,53,75
156672,note_on,,,,,0,0,6,,,,1,69,75
156672,note_on,,,,,0,0,5,,,,3,53,114
156672,note_on,,,,,0,0,6,,,,1,65,75
156672,note_off,,,,,512,0,4,,,,12,74,0
156672,note_off,,,,,512,0,5,,,,3,52,0
157184,note_on,,,,,0,0,6,,,,1,52,75
157184,note_on,,,,,0,0,3,,,,6,65,49
157184,note_on,,,,,0,0,5,,,,3,52,114
157184,note_off,,,,,512,0,5,,,,3,53,0
157184,note_off,,,,,512,0,6,,,,1,65,0
157184,note_off,,,,,1024,0,3,,,,6,62,0
157184,note_off,,,,,0,0,6,,,,1,53,0
157184,note_on,,,,,512,0,4,,,,12,69,127
157184,note_on,,,,,0,0,6,,,,1,65,75
157184,note_off,,,,,0,0,6,,,,1,69,0
157696,note_off,,,,,512,0,3,,,,6,65,0
157696,note_off,,,,,512,0,6,,,,1,65,0
157696,note_on,,,,,0,0,6,,,,1,62,101
157696,note_off,,,,,0,0,6,,,,1,52,0
157696,note_on,,,,,0,0,3,,,,6,62,49
157696,note_on,,,,,0,0,6,,,,1,55,101
157696,note_off,,,,,1024,0,2,,,,2,69,0
157696,note_on,,,,,0,0,4,,,,12,70,127
157696,note_off,,,,,512,0,4,,,,12,69,0
157696,note_on,,,,,0,0,2,,,,2,62,101
157696,note_on,,,,,0,0,5,,,,3,55,114
157696,note_off,,,,,512,0,5,,,,3,52,0
157952,note_on,,,,,0,0,6,,,,1,67,101
157952,note_on,,,,,0,0,3,,,,6,67,49
157952,note_off,,,,,256,0,3,,,,6,62,0
157952,note_off,,,,,256,0,2,,,,2,62,0
157952,note_on,,,,,0,0,5,,,,3,58,114
157952,note_on,,,,,0,0,2,,,,2,67,101
157952,note_off,,,,,256,0,5,,,,3,55,0
157952,note_on,,,,,0,0,6,,,,1,58,101
157952,note_off,,,,,0,0,6,,,,1,55,0
157952,note_off,,,,,256,0,6,,,,1,62,0
158208,note_off,,,,,256,0,3,,,,6,67,0
158208,note_on,,,,,0,0,3,,,,6,70,49
158208,note_off,,,,,256,0,5,,,,3,58,0
158208,note_off,,,,,0,0,6,,,,1,58,0
158208,note_on,,,,,0,0,5,,,,3,62,114
158208,note_off,,,,,256,0,2,,,,2,67,0
158208,note_on,,,,,0,0,2,,,,2,70,101
158208,note_off,,,,,256,0,6,,,,1,67,0
158208,note_on,,,,,0,0,6,,,,1,70,101
158208,note_on,,,,,0,0,6,,,,1,62,101
158464,note_on,,,,,0,0,6,,,,1,67,101
158464,note_off,,,,,0,0,6,,,,1,62,0
158464,note_on,,,,,0,0,6,,,,1,58,101
158464,note_off,,,,,256,0,2,,,,2,70,0
158464,note_on,,,,,0,0,2,,,,2,67,101
158464,note_on,,,,,0,0,3,,,,6,67,49
158464,note_off,,,,,256,0,5,,,,3,62,0
158464,note_on,,,,,0,0,5,,,,3,58,114
158464,note_off,,,,,256,0,3,,,,6,70,0
158464,note_off,,,,,256,0,6,,,,1,70,0
158720,note_off,,,,,256,0,6,,,,1,67,0
158720,note_on,,,,,0,0,6,,,,1,62,101
158720,note_off,,,,,0,0,6,,,,1,58,0
158720,note_on,,,,,0,0,6,,,,1,55,101
158720,note_off,,,,,256,0,2,,,,2,67,0
158720,note_off,,,,,256,0,3,,,,6,67,0
158720,note_on,,,,,0,0,5,,,,3,55,114
158720,note_off,,,,,256,0,5,,,,3,58,0
158720,note_on,,,,,0,0,3,,,,6,62,49
158720,note_on,,,,,0,0,2,,,,2,62,101
158976,note_on,,,,,0,0,2,,,,2,67,101
158976,note_off,,,,,256,0,6,,,,1,62,0
158976,note_off,,,,,256,0,3,,,,6,62,0
158976,note_on,,,,,0,0,3,,,,6,67,49
158976,note_on,,,,,0,0,6,,,,1,67,101
158976,note_off,,,,,256,0,2,,,,2,62,0
158976,note_off,,,,,0,0,6,,,,1,55,0
158976,note_on,,,,,0,0,5,,,,3,58,114
158976,note_off,,,,,256,0,5,,,,3,55,0
158976,note_on,,,,,0,0,6,,,,1,58,101
159232,note_on,,,,,0,0,2,,,,2,70,101
159232,note_off,,,,,256,0,6,,,,1,67,0
159232,note_on,,,,,0,0,6,,,,1,70,101
159232,note_off,,,,,256,0,3,,,,6,67,0
159232,note_on,,,,,0,0,3,,,,6,70,49
159232,note_off,,,,,0,0,6,,,,1,58,0
159232,note_on,,,,,0,0,6,,,,1,62,101
159232,note_on,,,,,0,0,5,,,,3,62,114
159232,note_off,,,,,256,0,2,,,,2,67,0
159232,note_off,,,,,256,0,5,,,,3,58,0
159488,note_on,,,,,0,0,6,,,,1,67,101
159488,note_off,,,,,0,0,6,,,,1,62,0
159488,note_off,,,,,256,0,6,,,,1,70,0
159488,note_on,,,,,0,0,6,,,,1,58,101
159488,note_on,,,,,0,0,2,,,,2,67,101
159488,note_on,,,,,0,0,5,,,,3,58,114
159488,note_off,,,,,256,0,2,,,,2,70,0
159488,note_on,,,,,0,0,3,,,,6,67,49
159488,note_off,,,,,256,0,3,,,,6,70,0
159488,note_off,,,,,256,0,5,,,,3,62,0
159744,note_off,,,,,256,0,5,,,,3,58,0
159744,note_on,,,,,0,0,5,,,,3,55,114
159744,note_on,,,,,0,0,2,,,,2,70,101
159744,note_off,,,,,256,0,2,,,,2,67,0
159744,note_off,,,,,256,0,6,,,,1,67,0
159744,note_off,,,,,0,0,6,,,,1,58,0
159744,note_on,,,,,0,0,6,,,,1,62,101
159744,note_on,,,,,0,0,6,,,,1,55,101
159744,note_on,,,,,0,0,6,,,,1,70,101
159744,note_off,,,,,256,0,3,,,,6,67,0
159744,note_on,,,,,0,0,3,,,,6,62,49
160256,note_on,,,,,0,0,4,,,,12,72,127
160256,note_off,,,,,2560,0,4,,,,12,70,0
160384,note_on,,,,,0,0,4,,,,12,74,127
160384,note_off,,,,,128,0,4,,,,12,72,0
160512,note_on,,,,,0,0,4,,,,12,76,127
160512,note_off,,,,,128,0,4,,,,12,74,0
160640,note_on,,,,,0,0,4,,,,12,77,127
160640,note_off,,,,,128,0,4,,,,12,76,0
160768,note_off,,,,,128,0,4,,,,12,77,0
160768,note_off,,,,,1024,0,3,,,,6,62,0
160768,note_off,,,,,1024,0,5,,,,3,55,0
160768,note_off,,,,,1024,0,2,,,,2,70,0
160768,note_off,,,,,1024,0,6,,,,1,62,0
160768,note_off,,,,,0,0,6,,,,1,70,0
160768,note_on,,,,,0,0,4,,,,12,79,127
160768,note_off,,,,,0,0,6,,,,1,55,0
161024,note_on,,,,,0,0,4,,,,12,77,127
161024,note_off,,,,,256,0,4,,,,12,79,0
161280,note_off,,,,,256,0,4,,,,12,77,0
161280,note_on,,,,,0,0,4,,,,12,76,127
161536,note_off,,,,,256,0,4,,,,12,76,0
161536,note_on,,,,,0,0,4,,,,12,74,127
161792,note_on,,,,,1024,0,6,,,,1,64,101
161792,note_on,,,,,0,0,6,,,,1,57,101
161792,note_on,,,,,1024,0,2,,,,2,64,101
161792,note_off,,,,,256,0,4,,,,12,74,0
161792,note_on,,,,,0,0,4,,,,12,73,127
161792,note_on,,,,,1024,0,5,,,,3,57,114
161792,note_on,,,,,1024,0,3,,,,6,64,49
162048,note_off,,,,,0,0,6,,,,1,57,0
162048,note_off,,,,,256,0,3,,,,6,64,0
162048,note_on,,,,,0,0,6,,,,1,61,101
162048,note_on,,,,,0,0,6,,,,1,69,101
162048,note_off,,,,,256,0,6,,,,1,64,0
162048,note_on,,,,,0,0,3,,,,6,69,49
162048,note_on,,,,,0,0,2,,,,2,69,101
162048,note_off,,,,,256,0,2,,,,2,64,0
162048,note_on,,,,,0,0,5,,,,3,61,114
162048,note_off,,,,,256,0,5,,,,3,57,0
162304,note_off,,,,,0,0,6,,,,1,61,0
162304,note_on,,,,,0,0,6,,,,1,64,101
162304,note_on,,,,,0,0,5,,,,3,64,114
162304,note_off,,,,,256,0,6,,,,1,69,0
162304,note_on,,,,,0,0,3,,,,6,73,49
162304,note_off,,,,,256,0,3,,,,6,69,0
162304,note_on,,,,,0,0,2,,,,2,73,101
162304,note_off,,,,,256,0,2,,,,2,69,0
162304,note_on,,,,,0,0,6,,,,1,73,101
162304,note_off,,,,,256,0,5,,,,3,61,0
162560,note_on,,,,,0,0,5,,,,3,61,114
162560,note_off,,,,,256,0,3,,,,6,73,0
162560,note_on,,,,,0,0,3,,,,6,69,49
162560,note_off,,,,,256,0,2,,,,2,73,0
162560,note_on,,,,,0,0,2,,,,2,69,101
162560,note_off,,,,,256,0,5,,,,3,64,0
162560,note_on,,,,,0,0,6,,,,1,61,101
162560,note_off,,,,,0,0,6,,,,1,64,0
162560,note_on,,,,,0,0,6,,,,1,69,101
162560,note_off,,,,,256,0,6,,,,1,73,0
162816,note_on,,,,,0,0,6,,,,1,64,101
162816,note_on,,,,,0,0,2,,,,2,64,101
162816,note_off,,,,,256,0,2,,,,2,69,0
162816,note_off,,,,,256,0,5,,,,3,61,0
162816,note_on,,,,,0,0,6,,,,1,57,101
162816,note_off,,,,,0,0,6,,,,1,61,0
162816,note_on,,,,,0,0,5,,,,3,57,114
162816,note_off,,,,,256,0,6,,,,1,69,0
162816,note_off,,,,,256,0,3,,,,6,69,0
162816,note_on,,,,,0,0,3,,,,6,64,49
163072,note_off,,,,,256,0,6,,,,1,64,0
163072,note_on,,,,,0,0,6,,,,1,61,101
163072,note_off,,,,,0,0,6,,,,1,57,0
163072,note_on,,,,,0,0,6,,,,1,69,101
163072,note_off,,,,,256,0,2,,,,2,64,0
163072,note_on,,,,,0,0,5,,,,3,61,114
163072,note_off,,,,,256,0,5,,,,3,57,0
163072,note_on,,,,,0,0,2,,,,2,69,101
163072,note_off,,,,,256,0,3,,,,6,64,0
163072,note_on,,,,,0,0,3,,,,6,69,49
163328,note_on,,,,,0,0,5,,,,3,64,114
163328,note_off,,,,,256,0,3,,,,6,69,0
163328,note_off,,,,,256,0,6,,,,1,69,0
163328,note_on,,,,,0,0,6,,,,1,73,101
163328,note_off,,,,,0,0,6,,,,1,61,0
163328,note_off,,,,,256,0,5,,,,3,61,0
163328,note_on,,,,,0,0,3,,,,6,73,49
163328,note_on,,,,,0,0,6,,,,1,64,101
163328,note_on,,,,,0,0,2,,,,2,73,101
163328,note_off,,,,,256,0,2,,,,2,69,0
163584,note_off,,,,,256,0,2,,,,2,73,0
163584,note_on,,,,,0,0,2,,,,2,69,101
163584,note_off,,,,,256,0,3,,,,6,73,0
163584,note_off,,,,,256,0,6,,,,1,73,0
163584,note_on,,,,,0,0,6,,,,1,69,101
163584,note_off,,,,,0,0,6,,,,1,64,0
163584,note_off,,,,,256,0,5,,,,3,64,0
163584,note_on,,,,,0,0,6,,,,1,61,101
163584,note_on,,,,,0,0,5,,,,3,61,114
163584,note_on,,,,,0,0,3,,,,6,69,49
163840,note_on,,,,,0,0,6,,,,1,57,101
163840,note_on,,,,,0,0,6,,,,1,73,101
163840,note_off,,,,,256,0,3,,,,6,69,0
163840,note_on,,,,,0,0,3,,,,6,64,49
163840,note_on,,,,,0,0,6,,,,1,64,101
163840,note_off,,,,,256,0,6,,,,1,69,0
163840,note_off,,,,,0,0,6,,,,1,61,0
163840,note_on,,,,,0,0,5,,,,3,57,114
163840,note_off,,,,,256,0,5,,,,3,61,0
163840,note_on,,,,,0,0,2,,,,2,73,101
163840,note_off,,,,,256,0,2,,,,2,69,0
164352,note_on,,,,,0,0,4,,,,12,74,127
164352,note_off,,,,,2560,0,4,,,,12,73,0
164480,note_on,,,,,0,0,4,,,,12,76,127
164480,note_off,,,,,128,0,4,,,,12,74,0
164608,note_on,,,,,0,0,4,,,,12,77,127
164608,note_off,,,,,128,0,4,,,,12,76,0
164736,note_on,,,,,0,0,4,,,,12,79,127
164736,note_off,,,,,128,0,4,,,,12,77,0
164864,note_on,,,,,0,0,4,,,,12,81,127
164864,note_off,,,,,1024,0,5,,,,3,57,0
164864,note_off,,,,,128,0,4,,,,12,79,0
164864,note_off,,,,,1024,0,2,,,,2,73,0
164864,note_off,,,,,1024,0,3,,,,6,64,0
164864,note_off,,,,,1024,0,6,,,,1,64,0
164864,note_off,,,,,0,0,6,,,,1,73,0
164864,note_off,,,,,0,0,6,,,,1,57,0
165120,note_on,,,,,0,0,4,,,,12,79,127
165120,note_off,,,,,256,0,4,,,,12,81,0
165376,note_off,,,,,256,0,4,,,,12,79,0
165376,note_on,,,,,0,0,4,,,,12,77,127
165632,note_on,,,,,0,0,4,,,,12,76,127
165632,note_off,,,,,256,0,4,,,,12,77,0
165888,note_off,,,,,256,0,4,,,,12,76,0
165888,note_on,,,,,1024,0,5,,,,3,62,114
165888,note_on,,,,,0,0,6,,,,1,62,101
165888,note_on,,,,,1024,0,2,,,,2,69,101
165888,note_on,,,,,1024,0,3,,,,6,69,49
165888,note_on,,,,,0,0,4,,,,12,74,127
165888,note_on,,,,,1024,0,6,,,,1,69,101
166144,note_on,,,,,0,0,6,,,,1,65,101
166144,note_off,,,,,0,0,6,,,,1,62,0
166144,note_on,,,,,0,0,6,,,,1,74,101
166144,note_off,,,,,256,0,6,,,,1,69,0
166144,note_off,,,,,256,0,2,,,,2,69,0
166144,note_on,,,,,0,0,2,,,,2,74,101
166144,note_off,,,,,256,0,3,,,,6,69,0
166144,note_on,,,,,0,0,3,,,,6,74,49
166144,note_on,,,,,0,0,5,,,,3,65,114
166144,note_off,,,,,256,0,5,,,,3,62,0
166400,note_on,,,,,0,0,6,,,,1,77,101
166400,note_off,,,,,256,0,3,,,,6,74,0
166400,note_on,,,,,0,0,3,,,,6,77,49
166400,note_on,,,,,0,0,6,,,,1,69,101
166400,note_off,,,,,0,0,6,,,,1,65,0
166400,note_on,,,,,0,0,2,,,,2,77,101
166400,note_off,,,,,256,0,6,,,,1,74,0
166400,note_off,,,,,256,0,5,,,,3,65,0
166400,note_on,,,,,0,0,5,,,,3,69,114
166400,note_off,,,,,256,0,2,,,,2,74,0
166656,note_off,,,,,0,0,6,,,,1,69,0
166656,note_on,,,,,0,0,2,,,,2,74,101
166656,note_off,,,,,256,0,2,,,,2,77,0
166656,note_on,,,,,0,0,6,,,,1,65,101
166656,note_off,,,,,256,0,5,,,,3,69,0
166656,note_off,,,,,256,0,3,,,,6,77,0
166656,note_on,,,,,0,0,6,,,,1,74,101
166656,note_off,,,,,256,0,6,,,,1,77,0
166656,note_on,,,,,0,0,3,,,,6,74,49
166656,note_on,,,,,0,0,5,,,,3,65,114
166912,note_off,,,,,0,0,6,,,,1,65,0
166912,note_off,,,,,256,0,6,,,,1,74,0
166912,note_on,,,,,0,0,6,,,,1,69,101
166912,note_on,,,,,0,0,6,,,,1,62,101
166912,note_off,,,,,256,0,2,,,,2,74,0
166912,note_on,,,,,0,0,5,,,,3,62,114
166912,note_on,,,,,0,0,3,,,,6,69,49
166912,note_on,,,,,0,0,2,,,,2,69,101
166912,note_off,,,,,256,0,3,,,,6,74,0
166912,note_off,,,,,256,0,5,,,,3,65,0
167168,note_off,,,,,256,0,6,,,,1,69,0
167168,note_off,,,,,0,0,6,,,,1,62,0
167168,note_off,,,,,256,0,5,,,,3,62,0
167168,note_on,,,,,0,0,2,,,,2,74,101
167168,note_off,,,,,256,0,2,,,,2,69,0
167168,note_on,,,,,0,0,6,,,,1,65,101
167168,note_on,,,,,0,0,5,,,,3,65,114
167168,note_off,,,,,256,0,3,,,,6,69,0
167168,note_on,,,,,0,0,3,,,,6,74,49
167168,note_on,,,,,0,0,6,,,,1,74,101
167424,note_off,,,,,0,0,6,,,,1,65,0
167424,note_on,,,,,0,0,3,,,,6,77,49
167424,note_on,,,,,0,0,6,,,,1,77,101
167424,note_on,,,,,0,0,6,,,,1,69,101
167424,note_off,,,,,256,0,5,,,,3,65,0
167424,note_off,,,,,256,0,2,,,,2,74,0
167424,note_on,,,,,0,0,2,,,,2,77,101
167424,note_off,,,,,256,0,6,,,,1,74,0
167424,note_off,,,,,256,0,3,,,,6,74,0
167424,note_on,,,,,0,0,5,,,,3,69,114
167680,note_off,,,,,256,0,3,,,,6,77,0
167680,note_on,,,,,0,0,5,,,,3,65,114
167680,note_on,,,,,0,0,3,,,,6,74,49
167680,note_off,,,,,0,0,6,,,,1,69,0
167680,note_on,,,,,0,0,6,,,,1,74,101
167680,note_off,,,,,256,0,6,,,,1,77,0
167680,note_on,,,,,0,0,6,,,,1,65,101
167680,note_off,,,,,256,0,2,,,,2,77,0
167680,note_off,,,,,256,0,5,,,,3,69,0
167680,note_on,,,,,0,0,2,,,,2,74,101
167936,note_off,,,,,256,0,5,,,,3,65,0
167936,note_on,,,,,0,0,5,,,,3,62,114
167936,note_on,,,,,0,0,4,,,,12,74,127
167936,note_on,,,,,0,0,6,,,,1,77,101
167936,note_on,,,,,0,0,6,,,,1,62,101
167936,note_off,,,,,256,0,6,,,,1,74,0
167936,note_on,,,,,0,0,2,,,,2,77,101
167936,note_off,,,,,256,0,2,,,,2,74,0
167936,note_on,,,,,0,0,6,,,,1,69,101
167936,note_on,,,,,0,0,3,,,,6,69,49
167936,note_off,,,,,0,0,6,,,,1,65,0
167936,note_off,,,,,2048,0,4,,,,12,74,0
167936,note_off,,,,,256,0,3,,,,6,74,0
168448,note_off,,,,,512,0,4,,,,12,74,0
168448,note_on,,,,,0,0,4,,,,12,76,127
168576,note_off,,,,,128,0,4,,,,12,76,0
168576,note_on,,,,,0,0,4,,,,12,77,127
168704,note_off,,,,,128,0,4,,,,12,77,0
168704,note_on,,,,,0,0,4,,,,12,79,127
168832,note_off,,,,,128,0,4,,,,12,79,0
168832,note_on,,,,,0,0,4,,,,12,81,127
168960,note_off,,,,,1024,0,5,,,,3,62,0
168960,note_off,,,,,1024,0,6,,,,1,69,0
168960,note_off,,,,,0,0,6,,,,1,77,0
168960,note_off,,,,,0,0,6,,,,1,62,0
168960,note_on,,,,,0,0,4,,,,12,82,127
168960,note_off,,,,,1024,0,3,,,,6,69,0
168960,note_off,,,,,1024,0,2,,,,2,77,0
168960,note_off,,,,,128,0,4,,,,12,81,0
169216,note_on,,,,,0,0,4,,,,12,79,127
169216,note_off,,,,,256,0,4,,,,12,82,0
169472,note_on,,,,,0,0,4,,,,12,76,127
169472,note_off,,,,,256,0,4,,,,12,79,0
169728,note_on,,,,,0,0,4,,,,12,74,127
169728,note_off,,,,,256,0,4,,,,12,76,0
169984,note_on,,,,,0,0,6,,,,1,69,75
169984,note_on,,,,,1024,0,5,,,,3,45,114
169984,note_on,,,,,1024,0,2,,,,2,69,62
169984,note_on,,,,,0,0,4,,,,12,73,127
169984,note_on,,,,,1024,0,6,,,,1,61,75
169984,note_on,,,,,1024,0,3,,,,6,64,49
169984,note_off,,,,,256,0,4,,,,12,74,0
169984,note_on,,,,,0,0,6,,,,1,64,75
169984,note_on,,,,,0,0,6,,,,1,45,75
170496,note_on,,,,,0,0,5,,,,3,45,114
170496,note_on,,,,,0,0,6,,,,1,45,75
170496,note_off,,,,,512,0,6,,,,1,45,0
170496,note_off,,,,,512,0,5,,,,3,45,0
170752,note_on,,,,,0,0,4,,,,12,69,127
170752,note_off,,,,,768,0,4,,,,12,73,0
171008,note_on,,,,,0,0,6,,,,1,64,75
171008,note_on,,,,,0,0,6,,,,1,69,75
171008,note_on,,,,,0,0,6,,,,1,73,75
171008,note_off,,,,,0,0,6,,,,1,64,0
171008,note_off,,,,,512,0,6,,,,1,61,0
171008,note_off,,,,,0,0,6,,,,1,69,0
171008,note_off,,,,,1024,0,3,,,,6,64,0
171008,note_on,,,,,0,0,5,,,,3,45,114
171008,note_off,,,,,0,0,6,,,,1,45,0
171008,note_on,,,,,0,0,6,,,,1,45,75
171008,note_off,,,,,1024,0,2,,,,2,69,0
171008,note_on,,,,,0,0,4,,,,12,76,127
171008,note_off,,,,,256,0,4,,,,12,69,0
171008,note_on,,,,,0,0,3,,,,6,69,49
171008,note_off,,,,,512,0,5,,,,3,45,0
171008,note_on,,,,,0,0,2,,,,2,73,62
171520,note_off,,,,,512,0,5,,,,3,45,0
171520,note_on,,,,,0,0,5,,,,3,45,114
171520,note_off,,,,,512,0,6,,,,1,45,0
171520,note_on,,,,,0,0,6,,,,1,45,75
171776,note_on,,,,,0,0,4,,,,12,73,127
171776,note_off,,,,,768,0,4,,,,12,76,0
172032,note_off,,,,,1024,0,2,,,,2,73,0
172032,note_on,,,,,0,0,5,,,,3,45,114
172032,note_on,,,,,0,0,3,,,,6,73,49
172032,note_off,,,,,1024,0,3,,,,6,69,0
172032,note_on,,,,,0,0,6,,,,1,45,75
172032,note_on,,,,,0,0,6,,,,1,76,75
172032,note_on,,,,,0,0,2,,,,2,76,62
172032,note_off,,,,,512,0,5,,,,3,45,0
172032,note_on,,,,,0,0,4,,,,12,79,127
172032,note_off,,,,,256,0,4,,,,12,73,0
172032,note_on,,,,,0,0,6,,,,1,69,75
172032,note_off,,,,,0,0,6,,,,1,45,0
172032,note_off,,,,,0,0,6,,,,1,73,0
172032,note_off,,,,,0,0,6,,,,1,69,0
172032,note_off,,,,,512,0,6,,,,1,64,0
172032,note_on,,,,,0,0,6,,,,1,73,75
172544,note_off,,,,,512,0,6,,,,1,45,0
172544,note_on,,,,,0,0,6,,,,1,45,75
172544,note_off,,,,,512,0,5,,,,3,45,0
172544,note_on,,,,,0,0,5,,,,3,45,114
172800,note_on,,,,,0,0,4,,,,12,76,127
172800,note_off,,,,,768,0,4,,,,12,79,0
173056,note_off,,,,,1024,0,2,,,,2,76,0
173056,note_off,,,,,0,0,6,,,,1,73,0
173056,note_off,,,,,512,0,6,,,,1,69,0
173056,note_off,,,,,1024,0,3,,,,6,73,0
173056,note_on,,,,,0,0,6,,,,1,70,75
173056,note_on,,,,,0,0,6,,,,1,76,75
173056,note_off,,,,,512,0,5,,,,3,45,0
173056,note_on,,,,,0,0,2,,,,2,76,62
173056,note_on,,,,,0,0,6,,,,1,73,75
173056,note_on,,,,,0,0,5,,,,3,45,114
173056,note_off,,,,,0,0,6,,,,1,76,0
173056,note_on,,,,,0,0,4,,,,12,82,127
173056,note_off,,,,,256,0,4,,,,12,76,0
173056,note_on,,,,,0,0,3,,,,6,73,49
173056,note_off,,,,,0,0,6,,,,1,45,0
173056,note_on,,,,,0,0,6,,,,1,45,75
173568,note_off,,,,,512,0,5,,,,3,45,0
173568,note_on,,,,,0,0,5,,,,3,45,114
173568,note_on,,,,,0,0,6,,,,1,45,75
173568,note_off,,,,,512,0,6,,,,1,45,0
173824,note_off,,,,,768,0,4,,,,12,82,0
173824,note_on,,,,,0,0,4,,,,12,79,127
174080,note_off,,,,,512,0,5,,,,3,45,0
174080,note_on,,,,,0,0,5,,,,3,50,114
174080,note_off,,,,,1024,0,2,,,,2,76,0
174080,note_on,,,,,0,0,2,,,,2,77,62
174080,note_on,,,,,0,0,6,,,,1,50,75
174080,note_on,,,,,0,0,6,,,,1,69,75
174080,note_off,,,,,0,0,6,,,,1,76,0
174080,note_on,,,,,0,0,6,,,,1,74,75
174080,note_on,,,,,0,0,3,,,,6,74,49
174080,note_off,,,,,1024,0,3,,,,6,73,0
174080,note_off,,,,,512,0,6,,,,1,70,0
174080,note_on,,,,,0,0,4,,,,12,77,127
174080,note_off,,,,,256,0,4,,,,12,79,0
174080,note_off,,,,,0,0,6,,,,1,73,0
174080,note_on,,,,,0,0,6,,,,1,77,75
174080,note_off,,,,,0,0,6,,,,1,45,0
174336,note_on,,,,,0,0,4,,,,12,79,127
174336,note_off,,,,,256,0,4,,,,12,77,0
174592,note_on,,,,,0,0,4,,,,12,81,127
174592,note_on,,,,,0,0,5,,,,3,50,114
174592,note_off,,,,,512,0,5,,,,3,50,0
174592,note_on,,,,,0,0,6,,,,1,50,75
174592,note_off,,,,,512,0,6,,,,1,50,0
174592,note_off,,,,,256,0,4,,,,12,79,0
174848,note_on,,,,,0,0,4,,,,12,79,127
174848,note_off,,,,,256,0,4,,,,12,81,0
175104,note_off,,,,,0,0,6,,,,1,50,0
175104,note_on,,,,,0,0,6,,,,1,74,75
175104,note_on,,,,,0,0,6,,,,1,69,75
175104,note_on,,,,,0,0,6,,,,1,65,75
175104,note_off,,,,,512,0,5,,,,3,50,0
175104,note_on,,,,,0,0,5,,,,3,50,114
175104,note_off,,,,,0,0,6,,,,1,77,0
175104,note_on,,,,,0,0,2,,,,2,74,62
175104,note_off,,,,,512,0,6,,,,1,69,0
175104,note_on,,,,,0,0,6,,,,1,50,75
175104,note_off,,,,,1024,0,2,,,,2,77,0
175104,note_on,,,,,0,0,4,,,,12,81,127
175104,note_off,,,,,256,0,4,,,,12,79,0
175104,note_on,,,,,0,0,3,,,,6,69,49
175104,note_off,,,,,1024,0,3,,,,6,74,0
175104,note_off,,,,,0,0,6,,,,1,74,0
175360,note_off,,,,,256,0,4,,,,12,81,0
175360,note_on,,,,,0,0,4,,,,12,77,127
175616,note_on,,,,,0,0,6,,,,1,50,75
175616,note_off,,,,,256,0,4,,,,12,77,0
175616,note_on,,,,,0,0,4,,,,12,76,127
175616,note_off,,,,,512,0,6,,,,1,50,0
175616,note_on,,,,,0,0,5,,,,3,50,114
175616,note_off,,,,,512,0,5,,,,3,50,0
175872,note_on,,,,,0,0,4,,,,12,74,127
175872,note_off,,,,,256,0,4,,,,12,76,0
176128,note_on,,,,,0,0,4,,,,12,76,127
176128,note_on,,,,,0,0,2,,,,2,74,62
176128,note_off,,,,,1024,0,2,,,,2,74,0
176128,note_on,,,,,0,0,6,,,,1,74,75
176128,note_off,,,,,512,0,5,,,,3,50,0
176128,note_off,,,,,512,0,6,,,,1,65,0
176128,note_off,,,,,0,0,6,,,,1,69,0
176128,note_off,,,,,0,0,6,,,,1,74,0
176128,note_off,,,,,0,0,6,,,,1,50,0
176128,note_on,,,,,0,0,6,,,,1,64,75
176128,note_on,,,,,0,0,6,,,,1,69,75
176128,note_on,,,,,0,0,5,,,,3,57,114
176128,note_off,,,,,256,0,4,,,,12,74,0
176128,note_on,,,,,0,0,6,,,,1,57,75
176128,note_off,,,,,1024,0,3,,,,6,69,0
176128,note_on,,,,,0,0,3,,,,6,69,49
176384,note_off,,,,,256,0,4,,,,12,76,0
176384,note_on,,,,,0,0,4,,,,12,77,127
176640,note_on,,,,,0,0,5,,,,3,57,114
176640,note_off,,,,,512,0,5,,,,3,57,0
176640,note_off,,,,,256,0,4,,,,12,77,0
176640,note_on,,,,,0,0,4,,,,12,79,127
176640,note_on,,,,,0,0,2,,,,2,74,62
176640,note_off,,,,,512,0,2,,,,2,74,0
176640,note_off,,,,,0,0,6,,,,1,69,0
176640,note_off,,,,,512,0,6,,,,1,64,0
176640,note_on,,,,,0,0,6,,,,1,57,75
176640,note_off,,,,,0,0,6,,,,1,57,0
176640,note_on,,,,,0,0,6,,,,1,74,75
176640,note_on,,,,,0,0,6,,,,1,69,75
176640,note_on,,,,,0,0,6,,,,1,64,75
176640,note_off,,,,,0,0,6,,,,1,74,0
176640,note_on,,,,,0,0,3,,,,6,69,49
176640,note_off,,,,,512,0,3,,,,6,69,0
176896,note_on,,,,,0,0,4,,,,12,77,127
176896,note_off,,,,,256,0,4,,,,12,79,0
177152,note_off,,,,,256,0,4,,,,12,77,0
177152,note_on,,,,,0,0,4,,,,12,79,127
177152,note_on,,,,,0,0,6,,,,1,45,75
177152,note_on,,,,,0,0,2,,,,2,73,62
177152,note_off,,,,,0,0,6,,,,1,69,0
177152,note_off,,,,,0,0,6,,,,1,57,0
177152,note_on,,,,,0,0,6,,,,1,73,75
177152,note_on,,,,,0,0,6,,,,1,69,75
177152,note_on,,,,,0,0,6,,,,1,64,75
177152,note_on,,,,,0,0,5,,,,3,45,114
177152,note_off,,,,,512,0,5,,,,3,57,0
177152,note_off,,,,,0,0,6,,,,1,74,0
177152,note_off,,,,,512,0,3,,,,6,69,0
177152,note_on,,,,,0,0,3,,,,6,69,49
177152,note_off,,,,,512,0,2,,,,2,74,0
177152,note_off,,,,,512,0,6,,,,1,64,0
177408,note_off,,,,,256,0,4,,,,12,79,0
177408,note_on,,,,,0,0,4,,,,12,76,127
177664,note_off,,,,,512,0,3,,,,6,69,0
177664,note_off,,,,,256,0,4,,,,12,76,0
177664,note_off,,,,,512,0,2,,,,2,73,0
177664,note_on,,,,,0,0,3,,,,6,69,49
177664,note_on,,,,,0,0,5,,,,3,45,114
177664,note_on,,,,,0,0,6,,,,1,64,75
177664,note_on,,,,,0,0,6,,,,1,69,75
177664,note_on,,,,,0,0,6,,,,1,73,75
177664,note_off,,,,,0,0,6,,,,1,45,0
177664,note_on,,,,,0,0,6,,,,1,45,75
177664,note_off,,,,,512,0,5,,,,3,45,0
177664,note_off,,,,,0,0,6,,,,1,73,0
177664,note_off,,,,,0,0,6,,,,1,69,0
177664,note_on,,,,,0,0,2,,,,2,73,62
177664,note_on,,,,,0,0,4,,,,12,74,127
177664,note_off,,,,,512,0,6,,,,1,64,0
177920,note_on,,,,,0,0,4,,,,12,73,127
177920,note_off,,,,,256,0,4,,,,12,74,0
178176,note_off,,,,,256,0,4,,,,12,73,0
178176,note_off,,,,,0,0,6,,,,1,45,0
178176,note_off,,,,,512,0,5,,,,3,45,0
178176,note_on,,,,,0,0,6,,,,1,38,114
178176,note_on,,,,,0,0,5,,,,3,38,127
178176,note_off,,,,,512,0,2,,,,2,73,0
178176,note_on,,,,,0,0,2,,,,2,74,114
178176,note_on,,,,,0,0,6,,,,1,65,114
178176,note_on,,,,,0,0,3,,,,6,65,101
178176,note_off,,,,,512,0,3,,,,6,69,0
178176,note_off,,,,,0,0,6,,,,1,73,0
178176,note_off,,,,,0,0,6,,,,1,69,0
178176,note_off,,,,,512,0,6,,,,1,64,0
178176,note_on,,,,,0,0,4,,,,12,74,127
178176,note_on,,,,,0,0,6,,,,1,74,114
178432,note_on,,,,,0,0,6,,,,1,76,114
178432,note_off,,,,,0,0,6,,,,1,74,0
178432,note_off,,,,,256,0,6,,,,1,65,0
178432,note_on,,,,,0,0,2,,,,2,76,114
178432,note_on,,,,,0,0,4,,,,12,76,127
178432,note_off,,,,,256,0,4,,,,12,74,0
178432,note_off,,,,,256,0,2,,,,2,74,0
178688,note_on,,,,,0,0,2,,,,2,77,114
178688,note_on,,,,,0,0,4,,,,12,77,127
178688,note_on,,,,,0,0,6,,,,1,50,114
178688,note_off,,,,,0,0,6,,,,1,38,0
178688,note_on,,,,,0,0,6,,,,1,77,114
178688,note_on,,,,,0,0,6,,,,1,69,114
178688,note_off,,,,,256,0,4,,,,12,76,0
178688,note_on,,,,,0,0,3,,,,6,69,101
178688,note_off,,,,,512,0,3,,,,6,65,0
178688,note_off,,,,,512,0,5,,,,3,38,0
178688,note_on,,,,,0,0,5,,,,3,50,127
178688,note_off,,,,,256,0,6,,,,1,76,0
178688,note_off,,,,,256,0,2,,,,2,76,0
178944,note_off,,,,,256,0,6,,,,1,69,0
178944,note_off,,,,,0,0,6,,,,1,77,0
178944,note_on,,,,,0,0,6,,,,1,76,114
178944,note_off,,,,,256,0,2,,,,2,77,0
178944,note_on,,,,,0,0,4,,,,12,76,127
178944,note_off,,,,,256,0,4,,,,12,77,0
178944,note_on,,,,,0,0,2,,,,2,76,114
179200,note_off,,,,,256,0,6,,,,1,76,0
179200,note_on,,,,,0,0,6,,,,1,65,114
179200,note_on,,,,,0,0,6,,,,1,74,114
179200,note_off,,,,,0,0,6,,,,1,50,0
179200,note_on,,,,,0,0,6,,,,1,38,114
179200,note_off,,,,,256,0,4,,,,12,76,0
179200,note_on,,,,,0,0,4,,,,12,74,127
179200,note_on,,,,,0,0,2,,,,2,74,114
179200,note_off,,,,,512,0,3,,,,6,69,0
179200,note_on,,,,,0,0,3,,,,6,65,101
179200,note_off,,,,,512,0,5,,,,3,50,0
179200,note_on,,,,,0,0,5,,,,3,38,127
179200,note_off,,,,,256,0,2,,,,2,76,0
179712,note_on,,,,,0,0,5,,,,3,50,127
179712,note_off,,,,,512,0,4,,,,12,74,0
179712,note_on,,,,,0,0,6,,,,1,50,114
179712,note_off,,,,,512,0,5,,,,3,38,0
179712,note_off,,,,,512,0,6,,,,1,38,0
180224,note_off,,,,,0,0,6,,,,1,74,0
180224,note_on,,,,,512,0,4,,,,12,77,127
180224,note_off,,,,,512,0,5,,,,3,50,0
180224,note_off,,,,,512,0,6,,,,1,65,0
180224,note_off,,,,,1024,0,2,,,,2,74,0
180224,note_on,,,,,0,0,2,,,,2,77,114
180224,note_off,,,,,0,0,6,,,,1,50,0
180224,note_on,,,,,0,0,6,,,,1,77,114
180224,note_on,,,,,0,0,6,,,,1,38,114
180224,note_on,,,,,0,0,5,,,,3,38,127
180224,note_off,,,,,1024,0,3,,,,6,65,0
180224,note_on,,,,,0,0,3,,,,6,74,101
180224,note_on,,,,,0,0,6,,,,1,74,114
180480,note_off,,,,,0,0,6,,,,1,77,0
180480,note_on,,,,,0,0,6,,,,1,76,114
180480,note_on,,,,,0,0,6,,,,1,79,114
180480,note_off,,,,,256,0,6,,,,1,74,0
180480,note_on,,,,,0,0,4,,,,12,79,127
180480,note_off,,,,,256,0,4,,,,12,77,0
180480,note_off,,,,,256,0,2,,,,2,77,0
180480,note_on,,,,,0,0,2,,,,2,79,114
180480,note_off,,,,,256,0,3,,,,6,74,0
180480,note_on,,,,,0,0,3,,,,6,76,101
180736,note_on,,,,,0,0,6,,,,1,50,114
180736,note_off,,,,,0,0,6,,,,1,38,0
180736,note_on,,,,,0,0,6,,,,1,81,114
180736,note_on,,,,,0,0,6,,,,1,77,114
180736,note_off,,,,,0,0,6,,,,1,79,0
180736,note_off,,,,,256,0,6,,,,1,76,0
180736,note_off,,,,,256,0,3,,,,6,76,0
180736,note_off,,,,,256,0,4,,,,12,79,0
180736,note_off,,,,,512,0,5,,,,3,38,0
180736,note_on,,,,,0,0,2,,,,2,81,114
180736,note_off,,,,,256,0,2,,,,2,79,0
180736,note_on,,,,,0,0,5,,,,3,50,127
180736,note_on,,,,,0,0,3,,,,6,77,101
180736,note_on,,,,,0,0,4,,,,12,81,127
180992,note_off,,,,,256,0,6,,,,1,77,0
180992,note_off,,,,,256,0,3,,,,6,77,0
180992,note_off,,,,,256,0,4,,,,12,81,0
180992,note_on,,,,,0,0,4,,,,12,79,127
180992,note_on,,,,,0,0,3,,,,6,76,101
180992,note_off,,,,,0,0,6,,,,1,81,0
180992,note_off,,,,,256,0,2,,,,2,81,0
180992,note_on,,,,,0,0,6,,,,1,79,114
180992,note_on,,,,,0,0,6,,,,1,76,114
180992,note_on,,,,,0,0,2,,,,2,79,114
181248,note_off,,,,,256,0,2,,,,2,79,0
181248,note_on,,,,,0,0,6,,,,1,77,114
181248,note_on,,,,,0,0,5,,,,3,38,127
181248,note_on,,,,,0,0,2,,,,2,77,114
181248,note_on,,,,,0,0,4,,,,12,77,127
181248,note_off,,,,,256,0,4,,,,12,79,0
181248,note_off,,,,,512,0,5,,,,3,50,0
181248,note_off,,,,,256,0,3,,,,6,76,0
181248,note_off,,,,,0,0,6,,,,1,50,0
181248,note_on,,,,,0,0,6,,,,1,74,114
181248,note_off,,,,,256,0,6,,,,1,76,0
181248,note_off,,,,,0,0,6,,,,1,79,0
181248,note_on,,,,,0,0,3,,,,6,74,101
181248,note_on,,,,,0,0,6,,,,1,38,114
181760,note_off,,,,,512,0,4,,,,12,77,0
181760,note_off,,,,,512,0,6,,,,1,38,0
181760,note_on,,,,,0,0,6,,,,1,50,114
181760,note_off,,,,,512,0,5,,,,3,38,0
181760,note_on,,,,,0,0,5,,,,3,50,127
182272,note_off,,,,,0,0,6,,,,1,77,0
182272,note_on,,,,,0,0,6,,,,1,77,114
182272,note_off,,,,,0,0,6,,,,1,50,0
182272,note_on,,,,,0,0,6,,,,1,38,114
182272,note_on,,,,,0,0,3,,,,6,77,101
182272,note_off,,,,,1024,0,3,,,,6,74,0
182272,note_on,,,,,0,0,2,,,,2,86,114
182272,note_off,,,,,512,0,6,,,,1,74,0
182272,note_on,,,,,0,0,6,,,,1,86,114
182272,note_off,,,,,1024,0,2,,,,2,77,0
182272,note_on,,,,,0,0,5,,,,3,38,127
182272,note_off,,,,,512,0,5,,,,3,50,0
182272,note_on,,,,,512,0,4,,,,12,86,127
182528,note_off,,,,,256,0,6,,,,1,77,0
182528,note_on,,,,,0,0,6,,,,1,79,114
182528,note_on,,,,,0,0,3,,,,6,79,101
182528,note_off,,,,,256,0,3,,,,6,77,0
182528,note_off,,,,,0,0,6,,,,1,86,0
182784,note_off,,,,,256,0,6,,,,1,79,0
182784,note_on,,,,,0,0,5,,,,3,50,127
182784,note_off,,,,,512,0,5,,,,3,38,0
182784,note_on,,,,,0,0,6,,,,1,77,114
182784,note_on,,,,,0,0,6,,,,1,81,114
182784,note_off,,,,,0,0,6,,,,1,38,0
182784,note_on,,,,,0,0,2,,,,2,81,114
182784,note_off,,,,,512,0,2,,,,2,86,0
182784,note_off,,,,,512,0,4,,,,12,86,0
182784,note_on,,,,,0,0,6,,,,1,50,114
182784,note_off,,,,,256,0,3,,,,6,79,0
182784,note_on,,,,,0,0,3,,,,6,77,101
182784,note_on,,,,,0,0,4,,,,12,77,127
183040,note_on,,,,,0,0,6,,,,1,79,114
183040,note_on,,,,,0,0,6,,,,1,76,114
183040,note_off,,,,,256,0,3,,,,6,77,0
183040,note_on,,,,,0,0,3,,,,6,76,101
183040,note_off,,,,,256,0,2,,,,2,81,0
183040,note_off,,,,,0,0,6,,,,1,81,0
183040,note_off,,,,,256,0,6,,,,1,77,0
183040,note_on,,,,,0,0,2,,,,2,79,114
183296,note_off,,,,,256,0,6,,,,1,76,0
183296,note_off,,,,,0,0,6,,,,1,79,0
183296,note_on,,,,,0,0,6,,,,1,74,114
183296,note_on,,,,,0,0,6,,,,1,77,114
183296,note_off,,,,,512,0,5,,,,3,50,0
183296,note_on,,,,,0,0,6,,,,1,38,114
183296,note_on,,,,,0,0,3,,,,6,74,101
183296,note_off,,,,,256,0,3,,,,6,76,0
183296,note_on,,,,,0,0,5,,,,3,38,127
183296,note_off,,,,,0,0,6,,,,1,50,0
183296,note_on,,,,,0,0,4,,,,12,74,127
183296,note_on,,,,,0,0,2,,,,2,77,114
183296,note_off,,,,,512,0,4,,,,12,77,0
183296,note_off,,,,,256,0,2,,,,2,79,0
183808,note_on,,,,,0,0,6,,,,1,50,114
183808,note_on,,,,,0,0,4,,,,12,77,127
183808,note_off,,,,,512,0,4,,,,12,74,0
183808,note_off,,,,,512,0,6,,,,1,74,0
183808,note_off,,,,,0,0,6,,,,1,77,0
183808,note_on,,,,,0,0,6,,,,1,77,114
183808,note_off,,,,,512,0,2,,,,2,77,0
183808,note_on,,,,,0,0,2,,,,2,77,114
183808,note_off,,,,,512,0,5,,,,3,38,0
183808,note_on,,,,,0,0,5,,,,3,50,127
183808,note_off,,,,,0,0,6,,,,1,38,0
183808,note_off,,,,,512,0,3,,,,6,74,0
183808,note_on,,,,,0,0,6,,,,1,69,114
183808,note_on,,,,,0,0,3,,,,6,69,101
184320,note_off,,,,,512,0,6,,,,1,69,0
184320,note_off,,,,,0,0,6,,,,1,77,0
184320,note_off,,,,,0,0,6,,,,1,50,0
184320,note_on,,,,,0,0,6,,,,1,73,114
184320,note_on,,,,,0,0,6,,,,1,76,114
184320,note_on,,,,,0,0,4,,,,12,76,127
184320,note_on,,,,,0,0,3,,,,6,73,101
184320,note_off,,,,,512,0,3,,,,6,69,0
184320,note_off,,,,,512,0,4,,,,12,77,0
184320,note_on,,,,,0,0,5,,,,3,45,127
184320,note_off,,,,,512,0,5,,,,3,50,0
184320,note_off,,,,,512,0,2,,,,2,77,0
184320,note_on,,,,,0,0,2,,,,2,76,114
184320,note_on,,,,,0,0,6,,,,1,45,114
184448,note_off,,,,,128,0,3,,,,6,73,0
184448,note_off,,,,,128,0,2,,,,2,76,0
184448,note_on,,,,,0,0,2,,,,2,77,114
184448,note_on,,,,,0,0,3,,,,6,74,101
184448,note_off,,,,,0,0,6,,,,1,76,0
184448,note_on,,,,,0,0,6,,,,1,74,114
184448,note_on,,,,,0,0,6,,,,1,77,114
184448,note_off,,,,,128,0,6,,,,1,73,0
184448,note_on,,,,,0,0,4,,,,12,77,127
184448,note_off,,,,,128,0,4,,,,12,76,0
184576,note_on,,,,,0,0,2,,,,2,79,114
184576,note_off,,,,,128,0,2,,,,2,77,0
184576,note_off,,,,,128,0,4,,,,12,77,0
184576,note_on,,,,,0,0,4,,,,12,79,127
184576,note_off,,,,,128,0,3,,,,6,74,0
184576,note_on,,,,,0,0,3,,,,6,76,101
184576,note_off,,,,,128,0,6,,,,1,74,0
184576,note_off,,,,,0,0,6,,,,1,77,0
184576,note_on,,,,,0,0,6,,,,1,76,114
184576,note_on,,,,,0,0,6,,,,1,79,114
184832,note_off,,,,,512,0,5,,,,3,45,0
184832,note_off,,,,,256,0,6,,,,1,45,0
184832,note_on,,,,,0,0,6,,,,1,57,114
184832,note_on,,,,,0,0,5,,,,3,57,127
185344,note_off,,,,,768,0,4,,,,12,79,0
185344,note_on,,,,,0,0,4,,,,12,73,127
185344,note_off,,,,,512,0,6,,,,1,76,0
185344,note_on,,,,,0,0,6,,,,1,69,114
185344,note_on,,,,,0,0,6,,,,1,73,114
185344,note_on,,,,,0,0,5,,,,3,45,127
185344,note_off,,,,,0,0,6,,,,1,79,0
185344,note_off,,,,,768,0,2,,,,2,79,0
185344,note_off,,,,,768,0,3,,,,6,76,0
185344,note_on,,,,,0,0,3,,,,6,69,101
185344,note_on,,,,,0,0,6,,,,1,45,114
185344,note_off,,,,,0,0,6,,,,1,57,0
185344,note_off,,,,,512,0,5,,,,3,57,0
185344,note_on,,,,,0,0,2,,,,2,73,114
185472,note_on,,,,,0,0,2,,,,2,74,114
185472,note_off,,,,,128,0,2,,,,2,73,0
185472,note_off,,,,,128,0,3,,,,6,69,0
185472,note_on,,,,,0,0,3,,,,6,71,101
185472,note_off,,,,,128,0,4,,,,12,73,0
185472,note_off,,,,,128,0,6,,,,1,69,0
185472,note_off,,,,,0,0,6,,,,1,73,0
185472,note_on,,,,,0,0,6,,,,1,71,114
185472,note_on,,,,,0,0,6,,,,1,74,114
185472,note_on,,,,,0,0,4,,,,12,74,127
185600,note_off,,,,,128,0,4,,,,12,74,0
185600,note_off,,,,,128,0,6,,,,1,71,0
185600,note_off,,,,,0,0,6,,,,1,74,0
185600,note_on,,,,,0,0,3,,,,6,73,101
185600,note_on,,,,,0,0,6,,,,1,76,114
185600,note_off,,,,,128,0,3,,,,6,71,0
185600,note_on,,,,,0,0,4,,,,12,76,127
185600,note_on,,,,,0,0,2,,,,2,76,114
185600,note_off,,,,,128,0,2,,,,2,74,0
185600,note_on,,,,,0,0,6,,,,1,73,114
185856,note_on,,,,,0,0,5,,,,3,57,127
185856,note_off,,,,,256,0,6,,,,1,45,0
185856,note_on,,,,,0,0,6,,,,1,57,114
185856,note_off,,,,,512,0,5,,,,3,45,0
186368,note_off,,,,,0,0,6,,,,1,76,0
186368,note_on,,,,,0,0,3,,,,6,69,101
186368,note_on,,,,,0,0,5,,,,3,45,127
186368,note_off,,,,,512,0,5,,,,3,57,0
186368,note_off,,,,,768,0,4,,,,12,76,0
186368,note_on,,,,,0,0,6,,,,1,45,114
186368,note_off,,,,,768,0,3,,,,6,73,0
186368,note_on,,,,,0,0,6,,,,1,73,114
186368,note_on,,,,,0,0,6,,,,1,69,114
186368,note_off,,,,,512,0,6,,,,1,73,0
186368,note_on,,,,,0,0,4,,,,12,69,127
186368,note_off,,,,,768,0,2,,,,2,76,0
186368,note_on,,,,,0,0,2,,,,2,73,114
186368,note_off,,,,,0,0,6,,,,1,57,0
186496,note_on,,,,,0,0,2,,,,2,74,114
186496,note_off,,,,,128,0,3,,,,6,69,0
186496,note_on,,,,,0,0,3,,,,6,71,101
186496,note_on,,,,,0,0,4,,,,12,71,127
186496,note_off,,,,,128,0,4,,,,12,69,0
186496,note_off,,,,,128,0,2,,,,2,73,0
186496,note_on,,,,,0,0,6,,,,1,74,114
186496,note_on,,,,,0,0,6,,,,1,71,114
186496,note_off,,,,,0,0,6,,,,1,73,0
186496,note_off,,,,,128,0,6,,,,1,69,0
186624,note_off,,,,,128,0,3,,,,6,71,0
186624,note_on,,,,,0,0,6,,,,1,76,114
186624,note_on,,,,,0,0,6,,,,1,73,114
186624,note_off,,,,,0,0,6,,,,1,74,0
186624,note_off,,,,,128,0,6,,,,1,71,0
186624,note_on,,,,,0,0,2,,,,2,76,114
186624,note_off,,,,,128,0,2,,,,2,74,0
186624,note_off,,,,,128,0,4,,,,12,71,0
186624,note_on,,,,,0,0,4,,,,12,73,127
186624,note_on,,,,,0,0,3,,,,6,73,101
186880,note_on,,,,,0,0,5,,,,3,57,127
186880,note_off,,,,,512,0,5,,,,3,45,0
186880,note_off,,,,,256,0,6,,,,1,45,0
186880,note_on,,,,,0,0,6,,,,1,57,114
187392,note_off,,,,,768,0,3,,,,6,73,0
187392,note_on,,,,,0,0,4,,,,12,76,127
187392,note_off,,,,,768,0,4,,,,12,73,0
187392,note_on,,,,,0,0,2,,,,2,76,114
187392,note_on,,,,,0,0,6,,,,1,45,114
187392,note_on,,,,,0,0,6,,,,1,73,114
187392,note_on,,,,,0,0,6,,,,1,76,114
187392,note_off,,,,,0,0,6,,,,1,76,0
187392,note_off,,,,,512,0,6,,,,1,73,0
187392,note_on,,,,,0,0,5,,,,3,45,127
187392,note_off,,,,,768,0,2,,,,2,76,0
187392,note_on,,,,,0,0,3,,,,6,73,101
187392,note_off,,,,,0,0,6,,,,1,57,0
187392,note_off,,,,,512,0,5,,,,3,57,0
187520,note_off,,,,,128,0,2,,,,2,76,0
187520,note_off,,,,,128,0,6,,,,1,73,0
187520,note_off,,,,,128,0,3,,,,6,73,0
187520,note_on,,,,,0,0,3,,,,6,74,101
187520,note_on,,,,,0,0,6,,,,1,77,114
187520,note_on,,,,,0,0,6,,,,1,74,114
187520,note_off,,,,,0,0,6,,,,1,76,0
187520,note_on,,,,,0,0,2,,,,2,77,114
187520,note_off,,,,,128,0,4,,,,12,76,0
187520,note_on,,,,,0,0,4,,,,12,77,127
187648,note_on,,,,,0,0,6,,,,1,79,114
187648,note_on,,,,,0,0,6,,,,1,76,114
187648,note_off,,,,,0,0,6,,,,1,77,0
187648,note_off,,,,,128,0,6,,,,1,74,0
187648,note_off,,,,,128,0,2,,,,2,77,0
187648,note_on,,,,,0,0,4,,,,12,79,127
187648,note_on,,,,,0,0,3,,,,6,76,101
187648,note_off,,,,,128,0,3,,,,6,74,0
187648,note_on,,,,,0,0,2,,,,2,79,114
187648,note_off,,,,,128,0,4,,,,12,77,0
187904,note_on,,,,,0,0,5,,,,3,57,127
187904,note_off,,,,,512,0,5,,,,3,45,0
187904,note_off,,,,,256,0,6,,,,1,45,0
187904,note_on,,,,,0,0,6,,,,1,57,114
188416,note_off,,,,,768,0,4,,,,12,79,0
188416,note_on,,,,,0,0,4,,,,12,77,127
188416,note_on,,,,,0,0,3,,,,6,74,101
188416,note_off,,,,,768,0,3,,,,6,76,0
188416,note_off,,,,,512,0,6,,,,1,76,0
188416,note_on,,,,,0,0,6,,,,1,74,114
188416,note_off,,,,,0,0,6,,,,1,57,0
188416,note_on,,,,,0,0,6,,,,1,50,114
188416,note_off,,,,,768,0,2,,,,2,79,0
188416,note_on,,,,,0,0,2,,,,2,77,114
188416,note_on,,,,,0,0,6,,,,1,77,114
188416,note_on,,,,,0,0,5,,,,3,50,127
188416,note_off,,,,,512,0,5,,,,3,57,0
188416,note_off,,,,,0,0,6,,,,1,79,0
188672,note_on,,,,,0,0,4,,,,12,79,127
188672,note_off,,,,,256,0,6,,,,1,74,0
188672,note_off,,,,,0,0,6,,,,1,77,0
188672,note_off,,,,,256,0,2,,,,2,77,0
188672,note_on,,,,,0,0,2,,,,2,79,114
188672,note_on,,,,,0,0,6,,,,1,79,114
188672,note_off,,,,,256,0,3,,,,6,74,0
188672,note_on,,,,,0,0,6,,,,1,76,114
188672,note_on,,,,,0,0,3,,,,6,76,101
188672,note_off,,,,,256,0,4,,,,12,77,0
188928,note_off,,,,,256,0,2,,,,2,79,0
188928,note_on,,,,,0,0,2,,,,2,77,114
188928,note_off,,,,,256,0,3,,,,6,76,0
188928,note_on,,,,,0,0,3,,,,6,74,101
188928,note_on,,,,,0,0,6,,,,1,74,114
188928,note_off,,,,,0,0,6,,,,1,79,0
188928,note_on,,,,,0,0,5,,,,3,62,127
188928,note_off,,,,,512,0,5,,,,3,50,0
188928,note_off,,,,,256,0,6,,,,1,76,0
188928,note_on,,,,,0,0,4,,,,12,77,127
188928,note_on,,,,,0,0,6,,,,1,62,114
188928,note_off,,,,,0,0,6,,,,1,50,0
188928,note_on,,,,,0,0,6,,,,1,77,114
188928,note_off,,,,,256,0,4,,,,12,79,0
189184,note_off,,,,,256,0,2,,,,2,77,0
189184,note_on,,,,,0,0,2,,,,2,79,114
189184,note_on,,,,,0,0,4,,,,12,79,127
189184,note_off,,,,,256,0,4,,,,12,77,0
189184,note_on,,,,,0,0,6,,,,1,76,114
189184,note_off,,,,,256,0,3,,,,6,74,0
189184,note_on,,,,,0,0,3,,,,6,76,101
189184,note_off,,,,,256,0,6,,,,1,74,0
189184,note_on,,,,,0,0,6,,,,1,79,114
189184,note_off,,,,,0,0,6,,,,1,77,0
189440,note_off,,,,,0,0,6,,,,1,62,0
189440,note_on,,,,,0,0,4,,,,12,77,127
189440,note_off,,,,,256,0,4,,,,12,79,0
189440,note_on,,,,,0,0,5,,,,3,47,127
189440,note_off,,,,,512,0,5,,,,3,62,0
189440,note_on,,,,,0,0,6,,,,1,47,114
189440,note_off,,,,,256,0,6,,,,1,76,0
189440,note_off,,,,,0,0,6,,,,1,79,0
189440,note_on,,,,,0,0,6,,,,1,74,114
189440,note_on,,,,,0,0,6,,,,1,77,114
189440,note_on,,,,,0,0,3,,,,6,74,101
189440,note_off,,,,,256,0,3,,,,6,76,0
189440,note_on,,,,,0,0,2,,,,2,77,114
189440,note_off,,,,,256,0,2,,,,2,79,0
189696,note_off,,,,,256,0,4,,,,12,77,0
189696,note_off,,,,,256,0,6,,,,1,74,0
189696,note_on,,,,,0,0,4,,,,12,81,127
189696,note_on,,,,,0,0,6,,,,1,81,114
189696,note_on,,,,,0,0,2,,,,2,81,114
189696,note_off,,,,,256,0,2,,,,2,77,0
189696,note_on,,,,,0,0,3,,,,6,77,101
189696,note_off,,,,,256,0,3,,,,6,74,0
189696,note_off,,,,,0,0,6,,,,1,77,0
189696,note_on,,,,,0,0,6,,,,1,77,114
189952,note_off,,,,,256,0,4,,,,12,81,0
189952,note_off,,,,,256,0,6,,,,1,77,0
189952,note_off,,,,,0,0,6,,,,1,81,0
189952,note_on,,,,,0,0,6,,,,1,55,114
189952,note_off,,,,,0,0,6,,,,1,47,0
189952,note_on,,,,,0,0,4,,,,12,79,127
189952,note_on,,,,,0,0,3,,,,6,76,101
189952,note_on,,,,,0,0,2,,,,2,79,114
189952,note_off,,,,,256,0,2,,,,2,81,0
189952,note_off,,,,,512,0,5,,,,3,47,0
189952,note_on,,,,,0,0,5,,,,3,55,127
189952,note_off,,,,,256,0,3,,,,6,77,0
189952,note_on,,,,,0,0,6,,,,1,79,114
189952,note_on,,,,,0,0,6,,,,1,76,114
190208,note_on,,,,,0,0,3,,,,6,74,101
190208,note_off,,,,,256,0,3,,,,6,76,0
190208,note_on,,,,,0,0,6,,,,1,74,114
190208,note_off,,,,,0,0,6,,,,1,79,0
190208,note_on,,,,,0,0,6,,,,1,77,114
190208,note_off,,,,,256,0,4,,,,12,79,0
190208,note_on,,,,,0,0,4,,,,12,77,127
190208,note_off,,,,,256,0,2,,,,2,79,0
190208,note_on,,,,,0,0,2,,,,2,77,114
190208,note_off,,,,,256,0,6,,,,1,76,0
190464,note_off,,,,,256,0,4,,,,12,77,0
190464,note_on,,,,,0,0,4,,,,12,76,127
190464,note_on,,,,,0,0,5,,,,3,48,127
190464,note_off,,,,,512,0,5,,,,3,55,0
190464,note_off,,,,,256,0,2,,,,2,77,0
190464,note_off,,,,,256,0,3,,,,6,74,0
190464,note_on,,,,,0,0,3,,,,6,72,101
190464,note_on,,,,,0,0,6,,,,1,72,114
190464,note_on,,,,,0,0,2,,,,2,76,114
190464,note_on,,,,,0,0,6,,,,1,48,114
190464,note_off,,,,,0,0,6,,,,1,55,0
190464,note_on,,,,,0,0,6,,,,1,76,114
190464,note_off,,,,,0,0,6,,,,1,77,0
190464,note_off,,,,,256,0,6,,,,1,74,0
190720,note_off,,,,,0,0,6,,,,1,76,0
190720,note_off,,,,,256,0,2,,,,2,76,0
190720,note_on,,,,,0,0,3,,,,6,74,101
190720,note_off,,,,,256,0,3,,,,6,72,0
190720,note_on,,,,,0,0,2,,,,2,77,114
190720,note_on,,,,,0,0,4,,,,12,77,127
190720,note_on,,,,,0,0,6,,,,1,77,114
190720,note_on,,,,,0,0,6,,,,1,74,114
190720,note_off,,,,,256,0,6,,,,1,72,0
190720,note_off,,,,,256,0,4,,,,12,76,0
190976,note_off,,,,,256,0,4,,,,12,77,0
190976,note_on,,,,,0,0,4,,,,12,76,127
190976,note_off,,,,,256,0,6,,,,1,74,0
190976,note_on,,,,,0,0,2,,,,2,76,114
190976,note_off,,,,,256,0,2,,,,2,77,0
190976,note_on,,,,,0,0,6,,,,1,60,114
190976,note_off,,,,,0,0,6,,,,1,48,0
190976,note_on,,,,,0,0,6,,,,1,76,114
190976,note_on,,,,,0,0,6,,,,1,72,114
190976,note_off,,,,,0,0,6,,,,1,77,0
190976,note_on,,,,,0,0,5,,,,3,60,127
190976,note_off,,,,,512,0,5,,,,3,48,0
190976,note_on,,,,,0,0,3,,,,6,72,101
190976,note_off,,,,,256,0,3,,,,6,74,0
191232,note_on,,,,,0,0,2,,,,2,77,114
191232,note_off,,,,,256,0,2,,,,2,76,0
191232,note_off,,,,,256,0,4,,,,12,76,0
191232,note_off,,,,,256,0,3,,,,6,72,0
191232,note_on,,,,,0,0,4,,,,12,77,127
191232,note_on,,,,,0,0,3,,,,6,74,101
191232,note_off,,,,,256,0,6,,,,1,72,0
191232,note_off,,,,,0,0,6,,,,1,76,0
191232,note_on,,,,,0,0,6,,,,1,74,114
191232,note_on,,,,,0,0,6,,,,1,77,114
191488,note_on,,,,,0,0,6,,,,1,76,114
191488,note_off,,,,,256,0,6,,,,1,74,0
191488,note_off,,,,,256,0,3,,,,6,74,0
191488,note_on,,,,,0,0,3,,,,6,72,101
191488,note_off,,,,,512,0,5,,,,3,60,0
191488,note_on,,,,,0,0,5,,,,3,45,127
191488,note_off,,,,,0,0,6,,,,1,77,0
191488,note_off,,,,,256,0,4,,,,12,77,0
191488,note_on,,,,,0,0,4,,,,12,76,127
191488,note_on,,,,,0,0,6,,,,1,72,114
191488,note_off,,,,,0,0,6,,,,1,60,0
191488,note_on,,,,,0,0,6,,,,1,45,114
191488,note_off,,,,,256,0,2,,,,2,77,0
191488,note_on,,,,,0,0,2,,,,2,76,114
191744,note_on,,,,,0,0,6,,,,1,79,114
191744,note_off,,,,,256,0,6,,,,1,72,0
191744,note_on,,,,,0,0,6,,,,1,76,114
191744,note_on,,,,,0,0,2,,,,2,79,114
191744,note_off,,,,,0,0,6,,,,1,76,0
191744,note_off,,,,,256,0,3,,,,6,72,0
191744,note_off,,,,,256,0,4,,,,12,76,0
191744,note_on,,,,,0,0,4,,,,12,79,127
191744,note_on,,,,,0,0,3,,,,6,76,101
191744,note_off,,,,,256,0,2,,,,2,76,0
192000,note_off,,,,,256,0,6,,,,1,76,0
192000,note_on,,,,,0,0,6,,,,1,74,114
192000,note_on,,,,,0,0,6,,,,1,77,114
192000,note_off,,,,,0,0,6,,,,1,45,0
192000,note_on,,,,,0,0,6,,,,1,53,114
192000,note_off,,,,,256,0,3,,,,6,76,0
192000,note_on,,,,,0,0,3,,,,6,74,101
192000,note_off,,,,,0,0,6,,,,1,79,0
192000,note_on,,,,,0,0,5,,,,3,53,127
192000,note_on,,,,,0,0,4,,,,12,77,127
192000,note_off,,,,,256,0,2,,,,2,79,0
192000,note_on,,,,,0,0,2,,,,2,77,114
192000,note_off,,,,,256,0,4,,,,12,79,0
192000,note_off,,,,,512,0,5,,,,3,45,0
192256,note_on,,,,,0,0,6,,,,1,76,114
192256,note_on,,,,,0,0,6,,,,1,72,114
192256,note_on,,,,,0,0,3,,,,6,72,101
192256,note_off,,,,,256,0,3,,,,6,74,0
192256,note_off,,,,,256,0,4,,,,12,77,0
192256,note_on,,,,,0,0,4,,,,12,76,127
192256,note_off,,,,,0,0,6,,,,1,77,0
192256,note_off,,,,,256,0,6,,,,1,74,0
192256,note_on,,,,,0,0,2,,,,2,76,114
192256,note_off,,,,,256,0,2,,,,2,77,0
192512,note_on,,,,,0,0,2,,,,2,74,114
192512,note_on,,,,,0,0,6,,,,1,47,114
192512,note_off,,,,,256,0,2,,,,2,76,0
192512,note_off,,,,,256,0,6,,,,1,72,0
192512,note_off,,,,,0,0,6,,,,1,76,0
192512,note_off,,,,,0,0,6,,,,1,53,0
192512,note_on,,,,,0,0,6,,,,1,71,114
192512,note_on,,,,,0,0,6,,,,1,74,114
192512,note_on,,,,,0,0,5,,,,3,47,127
192512,note_off,,,,,256,0,4,,,,12,76,0
192512,note_off,,,,,512,0,5,,,,3,53,0
192512,note_on,,,,,0,0,4,,,,12,74,127
192512,note_off,,,,,256,0,3,,,,6,72,0
192512,note_on,,,,,0,0,3,,,,6,71,101
192768,note_off,,,,,256,0,6,,,,1,71,0
192768,note_on,,,,,0,0,4,,,,12,76,127
192768,note_on,,,,,0,0,6,,,,1,76,114
192768,note_on,,,,,0,0,6,,,,1,72,114
192768,note_off,,,,,256,0,3,,,,6,71,0
192768,note_off,,,,,256,0,4,,,,12,74,0
192768,note_off,,,,,256,0,2,,,,2,74,0
192768,note_on,,,,,0,0,2,,,,2,76,114
192768,note_off,,,,,0,0,6,,,,1,74,0
192768,note_on,,,,,0,0,3,,,,6,72,101
193024,note_off,,,,,256,0,3,,,,6,72,0
193024,note_off,,,,,256,0,4,,,,12,76,0
193024,note_on,,,,,0,0,2,,,,2,74,114
193024,note_off,,,,,512,0,5,,,,3,47,0
193024,note_on,,,,,0,0,5,,,,3,59,127
193024,note_on,,,,,0,0,4,,,,12,74,127
193024,note_on,,,,,0,0,6,,,,1,59,114
193024,note_on,,,,,0,0,6,,,,1,74,114
193024,note_on,,,,,0,0,6,,,,1,71,114
193024,note_off,,,,,0,0,6,,,,1,76,0
193024,note_off,,,,,256,0,2,,,,2,76,0
193024,note_on,,,,,0,0,3,,,,6,71,101
193024,note_off,,,,,0,0,6,,,,1,47,0
193024,note_off,,,,,256,0,6,,,,1,72,0
193280,note_off,,,,,256,0,4,,,,12,74,0
193280,note_on,,,,,0,0,4,,,,12,76,127
193280,note_on,,,,,0,0,2,,,,2,76,114
193280,note_off,,,,,256,0,2,,,,2,74,0
193280,note_on,,,,,0,0,3,,,,6,72,101
193280,note_off,,,,,256,0,3,,,,6,71,0
193280,note_off,,,,,256,0,6,,,,1,71,0
193280,note_off,,,,,0,0,6,,,,1,74,0
193280,note_on,,,,,0,0,6,,,,1,72,114
193280,note_on,,,,,0,0,6,,,,1,76,114
193536,note_off,,,,,0,0,6,,,,1,59,0
193536,note_off,,,,,256,0,3,,,,6,72,0
193536,note_off,,,,,256,0,4,,,,12,76,0
193536,note_on,,,,,0,0,4,,,,12,74,127
193536,note_off,,,,,256,0,2,,,,2,76,0
193536,note_on,,,,,0,0,2,,,,2,74,114
193536,note_on,,,,,0,0,5,,,,3,44,127
193536,note_off,,,,,512,0,5,,,,3,59,0
193536,note_off,,,,,256,0,6,,,,1,72,0
193536,note_on,,,,,0,0,3,,,,6,71,101
193536,note_off,,,,,0,0,6,,,,1,76,0
193536,note_on,,,,,0,0,6,,,,1,74,114
193536,note_on,,,,,0,0,6,,,,1,44,114
193536,note_on,,,,,0,0,6,,,,1,71,114
193792,note_off,,,,,256,0,2,,,,2,74,0
193792,note_on,,,,,0,0,2,,,,2,77,114
193792,note_off,,,,,256,0,3,,,,6,71,0
193792,note_on,,,,,0,0,4,,,,12,77,127
193792,note_on,,,,,0,0,6,,,,1,77,114
193792,note_on,,,,,0,0,6,,,,1,74,114
193792,note_off,,,,,0,0,6,,,,1,74,0
193792,note_off,,,,,256,0,6,,,,1,71,0
193792,note_on,,,,,0,0,3,,,,6,74,101
193792,note_off,,,,,256,0,4,,,,12,74,0
194048,note_on,,,,,0,0,6,,,,1,76,114
194048,note_on,,,,,0,0,6,,,,1,72,114
194048,note_off,,,,,0,0,6,,,,1,77,0
194048,note_off,,,,,256,0,2,,,,2,77,0
194048,note_on,,,,,0,0,2,,,,2,76,114
194048,note_off,,,,,0,0,6,,,,1,44,0
194048,note_off,,,,,512,0,5,,,,3,44,0
194048,note_on,,,,,0,0,5,,,,3,52,127
194048,note_off,,,,,256,0,6,,,,1,74,0
194048,note_on,,,,,0,0,6,,,,1,52,114
194048,note_off,,,,,256,0,4,,,,12,77,0
194048,note_on,,,,,0,0,4,,,,12,76,127
194048,note_on,,,,,0,0,3,,,,6,72,101
194048,note_off,,,,,256,0,3,,,,6,74,0
194304,note_on,,,,,0,0,3,,,,6,71,101
194304,note_off,,,,,256,0,2,,,,2,76,0
194304,note_on,,,,,0,0,2,,,,2,74,114
194304,note_off,,,,,256,0,3,,,,6,72,0
194304,note_off,,,,,256,0,6,,,,1,72,0
194304,note_off,,,,,0,0,6,,,,1,76,0
194304,note_on,,,,,0,0,6,,,,1,74,114
194304,note_off,,,,,256,0,4,,,,12,76,0
194304,note_on,,,,,0,0,4,,,,12,74,127
194304,note_on,,,,,0,0,6,,,,1,71,114
194560,note_off,,,,,256,0,6,,,,1,71,0
194560,note_on,,,,,0,0,6,,,,1,45,114
194560,note_off,,,,,0,0,6,,,,1,52,0
194560,note_on,,,,,0,0,3,,,,6,69,101
194560,note_off,,,,,256,0,3,,,,6,71,0
194560,note_off,,,,,256,0,4,,,,12,74,0
194560,note_on,,,,,0,0,4,,,,12,73,127
194560,note_on,,,,,0,0,6,,,,1,73,114
194560,note_on,,,,,0,0,6,,,,1,69,114
194560,note_off,,,,,0,0,6,,,,1,74,0
194560,note_off,,,,,512,0,5,,,,3,52,0
194560,note_on,,,,,0,0,5,,,,3,45,127
194560,note_off,,,,,256,0,2,,,,2,74,0
194560,note_on,,,,,0,0,2,,,,2,73,114
195072,note_off,,,,,0,0,6,,,,1,45,0
195072,note_off,,,,,512,0,2,,,,2,73,0
195072,note_on,,,,,0,0,2,,,,2,69,114
195072,note_on,,,,,0,0,6,,,,1,57,114
195072,note_on,,,,,0,0,6,,,,1,69,114
195072,note_on,,,,,0,0,4,,,,12,69,127
195072,note_off,,,,,512,0,6,,,,1,69,0
195072,note_on,,,,,0,0,3,,,,6,69,101
195072,note_off,,,,,512,0,3,,,,6,69,0
195072,note_off,,,,,512,0,4,,,,12,73,0
195072,note_off,,,,,512,0,5,,,,3,45,0
195072,note_on,,,,,0,0,5,,,,3,57,127
195072,note_off,,,,,0,0,6,,,,1,73,0
195584,note_off,,,,,512,0,6,,,,1,69,0
195584,note_on,,,,,0,0,6,,,,1,61,114
195584,note_off,,,,,512,0,5,,,,3,57,0
195584,note_on,,,,,0,0,6,,,,1,73,114
195584,note_off,,,,,0,0,6,,,,1,57,0
195584,note_on,,,,,0,0,3,,,,6,73,101
195584,note_on,,,,,0,0,5,,,,3,61,127
195584,note_off,,,,,512,0,4,,,,12,69,0
195584,note_on,,,,,0,0,4,,,,12,73,127
195584,note_on,,,,,0,0,2,,,,2,73,114
195584,note_off,,,,,512,0,3,,,,6,69,0
195584,note_off,,,,,512,0,2,,,,2,69,0
196096,note_off,,,,,512,0,2,,,,2,73,0
196096,note_off,,,,,512,0,5,,,,3,61,0
196096,note_on,,,,,0,0,5,,,,3,59,127
196096,note_on,,,,,0,0,2,,,,2,71,114
196096,note_off,,,,,512,0,3,,,,6,73,0
196096,note_on,,,,,0,0,3,,,,6,71,101
196096,note_off,,,,,512,0,6,,,,1,73,0
196096,note_on,,,,,0,0,6,,,,1,71,114
196096,note_off,,,,,0,0,6,,,,1,61,0
196096,note_on,,,,,0,0,6,,,,1,59,114
196096,note_on,,,,,0,0,4,,,,12,71,127
196096,note_off,,,,,512,0,4,,,,12,73,0
196352,note_on,,,,,0,0,6,,,,1,69,114
196352,note_off,,,,,256,0,4,,,,12,71,0
196352,note_off,,,,,256,0,5,,,,3,59,0
196352,note_on,,,,,0,0,5,,,,3,57,127
196352,note_on,,,,,0,0,3,,,,6,69,101
196352,note_on,,,,,0,0,4,,,,12,69,127
196352,note_on,,,,,0,0,6,,,,1,57,114
196352,note_off,,,,,0,0,6,,,,1,59,0
196352,note_off,,,,,256,0,6,,,,1,71,0
196352,note_off,,,,,256,0,3,,,,6,71,0
196352,note_on,,,,,0,0,2,,,,2,69,114
196352,note_off,,,,,256,0,2,,,,2,71,0
196608,note_off,,,,,256,0,4,,,,12,69,0
196608,note_on,,,,,0,0,6,,,,1,62,114
196608,note_off,,,,,256,0,6,,,,1,69,0
196608,note_on,,,,,0,0,3,,,,6,74,101
196608,note_off,,,,,256,0,3,,,,6,69,0
196608,note_on,,,,,0,0,5,,,,3,62,127
196608,note_off,,,,,256,0,5,,,,3,57,0
196608,note_off,,,,,0,0,6,,,,1,57,0
196608,note_on,,,,,0,0,6,,,,1,74,114
196608,note_off,,,,,256,0,2,,,,2,69,0
196608,note_on,,,,,0,0,2,,,,2,74,114
196608,note_on,,,,,0,0,4,,,,12,74,127
197120,note_off,,,,,512,0,3,,,,6,74,0
197120,note_on,,,,,0,0,3,,,,6,62,101
197120,note_on,,,,,0,0,4,,,,12,62,127
197120,note_off,,,,,512,0,4,,,,12,74,0
197120,note_off,,,,,0,0,6,,,,1,62,0
197120,note_on,,,,,0,0,6,,,,1,62,114
197120,note_on,,,,,0,0,6,,,,1,50,114
197120,note_off,,,,,512,0,5,,,,3,62,0
197120,note_on,,,,,0,0,5,,,,3,50,127
197120,note_off,,,,,512,0,6,,,,1,74,0
197120,note_off,,,,,512,0,2,,,,2,74,0
197120,note_on,,,,,0,0,2,,,,2,62,114
197632,note_on,,,,,0,0,6,,,,1,65,114
197632,note_off,,,,,512,0,6,,,,1,62,0
197632,note_off,,,,,512,0,5,,,,3,50,0
197632,note_on,,,,,0,0,5,,,,3,53,127
197632,note_off,,,,,512,0,3,,,,6,62,0
197632,note_on,,,,,0,0,3,,,,6,65,101
197632,note_off,,,,,512,0,2,,,,2,62,0
197632,note_on,,,,,0,0,2,,,,2,65,114
197632,note_on,,,,,0,0,4,,,,12,65,127
197632,note_off,,,,,512,0,4,,,,12,62,0
197632,note_on,,,,,0,0,6,,,,1,53,114
197632,note_off,,,,,0,0,6,,,,1,50,0
198144,note_off,,,,,512,0,2,,,,2,65,0
198144,note_on,,,,,0,0,4,,,,12,64,127
198144,note_off,,,,,512,0,4,,,,12,65,0
198144,note_on,,,,,0,0,6,,,,1,52,114
198144,note_off,,,,,512,0,6,,,,1,65,0
198144,note_on,,,,,0,0,2,,,,2,64,114
198144,note_off,,,,,512,0,3,,,,6,65,0
198144,note_on,,,,,0,0,5,,,,3,52,127
198144,note_off,,,,,512,0,5,,,,3,53,0
198144,note_on,,,,,0,0,6,,,,1,64,114
198144,note_off,,,,,0,0,6,,,,1,53,0
198144,note_on,,,,,0,0,3,,,,6,64,101
198400,note_on,,,,,0,0,6,,,,1,50,114
198400,note_off,,,,,256,0,2,,,,2,64,0
198400,note_on,,,,,0,0,2,,,,2,62,114
198400,note_off,,,,,0,0,6,,,,1,52,0
198400,note_on,,,,,0,0,6,,,,1,62,114
198400,note_on,,,,,0,0,3,,,,6,62,101
198400,note_on,,,,,0,0,4,,,,12,62,127
198400,note_off,,,,,256,0,4,,,,12,64,0
198400,note_off,,,,,256,0,3,,,,6,64,0
198400,note_off,,,,,256,0,5,,,,3,52,0
198400,note_on,,,,,0,0,5,,,,3,50,127
198400,note_off,,,,,256,0,6,,,,1,64,0
198656,note_off,,,,,0,0,6,,,,1,50,0
198656,note_on,,,,,0,0,6,,,,1,57,114
198656,note_on,,,,,0,0,6,,,,1,69,114
198656,note_off,,,,,256,0,5,,,,3,50,0
198656,note_off,,,,,256,0,4,,,,12,62,0
198656,note_on,,,,,0,0,4,,,,12,69,127
198656,note_off,,,,,256,0,2,,,,2,62,0
198656,note_on,,,,,0,0,5,,,,3,57,127
198656,note_off,,,,,256,0,3,,,,6,62,0
198656,note_on,,,,,0,0,3,,,,6,69,101
198656,note_on,,,,,0,0,2,,,,2,69,114
198656,note_off,,,,,256,0,6,,,,1,62,0
199168,note_off,,,,,512,0,3,,,,6,69,0
199168,note_off,,,,,512,0,6,,,,1,69,0
199168,note_on,,,,,0,0,6,,,,1,57,114
199168,note_off,,,,,0,0,6,,,,1,57,0
199168,note_on,,,,,0,0,6,,,,1,45,114
199168,note_on,,,,,0,0,3,,,,6,57,101
199168,note_on,,,,,0,0,5,,,,3,45,127
199168,note_off,,,,,512,0,5,,,,3,57,0
199168,note_off,,,,,512,0,4,,,,12,69,0
199168,note_on,,,,,0,0,2,,,,2,57,114
199168,note_off,,,,,512,0,2,,,,2,69,0
199680,note_off,,,,,512,0,5,,,,3,45,0
199680,note_on,,,,,0,0,6,,,,1,49,114
199680,note_off,,,,,0,0,6,,,,1,45,0
199680,note_on,,,,,0,0,6,,,,1,61,114
199680,note_off,,,,,512,0,6,,,,1,57,0
199680,note_on,,,,,0,0,5,,,,3,49,127
199680,note_off,,,,,512,0,3,,,,6,57,0
199680,note_on,,,,,0,0,3,,,,6,61,101
199680,note_on,,,,,0,0,2,,,,2,61,114
199680,note_off,,,,,512,0,2,,,,2,57,0
199680,note_on,,,,,512,0,4,,,,12,61,127
200192,note_off,,,,,512,0,5,,,,3,49,0
200192,note_off,,,,,512,0,3,,,,6,61,0
200192,note_on,,,,,0,0,3,,,,6,59,101
200192,note_on,,,,,0,0,5,,,,3,47,127
200192,note_off,,,,,0,0,6,,,,1,49,0
200192,note_on,,,,,0,0,6,,,,1,47,114
200192,note_off,,,,,512,0,4,,,,12,61,0
200192,note_off,,,,,512,0,2,,,,2,61,0
200192,note_on,,,,,0,0,2,,,,2,59,114
200192,note_on,,,,,0,0,6,,,,1,59,114
200192,note_off,,,,,512,0,6,,,,1,61,0
200448,note_off,,,,,256,0,3,,,,6,59,0
200448,note_off,,,,,256,0,2,,,,2,59,0
200448,note_on,,,,,0,0,2,,,,2,57,114
200448,note_on,,,,,0,0,3,,,,6,57,101
200448,note_off,,,,,256,0,5,,,,3,47,0
200448,note_on,,,,,0,0,5,,,,3,45,127
200448,note_on,,,,,0,0,6,,,,1,45,114
200448,note_off,,,,,0,0,6,,,,1,47,0
200448,note_on,,,,,0,0,6,,,,1,57,114
200448,note_off,,,,,256,0,6,,,,1,59,0
200704,note_on,,,,,0,0,2,,,,2,62,114
200704,note_on,,,,,0,0,6,,,,1,50,114
200704,note_off,,,,,256,0,2,,,,2,57,0
200704,note_on,,,,,0,0,3,,,,6,62,101
200704,note_off,,,,,256,0,6,,,,1,57,0
200704,note_on,,,,,0,0,6,,,,1,62,114
200704,note_off,,,,,0,0,6,,,,1,45,0
200704,note_off,,,,,256,0,3,,,,6,57,0
200704,note_on,,,,,0,0,5,,,,3,50,127
200704,note_off,,,,,256,0,5,,,,3,45,0
200704,note_on,,,,,512,0,4,,,,12,62,127
201216,note_off,,,,,512,0,2,,,,2,62,0
201216,note_on,,,,,0,0,2,,,,2,67,114
201216,note_on,,,,,0,0,5,,,,3,55,127
201216,note_off,,,,,512,0,4,,,,12,62,0
201216,note_on,,,,,0,0,4,,,,12,67,127
201216,note_off,,,,,0,0,6,,,,1,50,0
201216,note_on,,,,,0,0,6,,,,1,67,114
201216,note_off,,,,,512,0,6,,,,1,62,0
201216,note_on,,,,,0,0,3,,,,6,67,101
201216,note_off,,,,,512,0,3,,,,6,62,0
201216,note_on,,,,,0,0,6,,,,1,55,114
201216,note_off,,,,,512,0,5,,,,3,50,0
201728,note_off,,,,,512,0,6,,,,1,67,0
201728,note_off,,,,,0,0,6,,,,1,55,0
201728,note_on,,,,,0,0,6,,,,1,57,114
201728,note_on,,,,,0,0,6,,,,1,69,114
201728,note_on,,,,,0,0,5,,,,3,57,127
201728,note_on,,,,,0,0,4,,,,12,69,127
201728,note_off,,,,,512,0,4,,,,12,67,0
201728,note_off,,,,,512,0,2,,,,2,67,0
201728,note_on,,,,,0,0,2,,,,2,69,114
201728,note_on,,,,,0,0,3,,,,6,69,101
201728,note_off,,,,,512,0,3,,,,6,67,0
201728,note_off,,,,,512,0,5,,,,3,55,0
202240,note_on,,,,,0,0,5,,,,3,45,127
202240,note_off,,,,,512,0,5,,,,3,57,0
202240,note_on,,,,,0,0,2,,,,2,73,114
202240,note_off,,,,,512,0,2,,,,2,69,0
202240,note_off,,,,,512,0,6,,,,1,69,0
202240,note_on,,,,,0,0,6,,,,1,64,114
202240,note_on,,,,,0,0,6,,,,1,69,114
202240,note_on,,,,,0,0,6,,,,1,73,114
202240,note_off,,,,,0,0,6,,,,1,57,0
202240,note_on,,,,,0,0,6,,,,1,45,114
202240,note_on,,,,,0,0,4,,,,12,69,127
202240,note_off,,,,,512,0,4,,,,12,69,0
202240,note_on,,,,,0,0,3,,,,6,69,101
202240,note_off,,,,,512,0,3,,,,6,69,0
202752,note_off,,,,,512,0,4,,,,12,69,0
202752,note_on,,,,,0,0,4,,,,12,62,127
202752,note_off,,,,,0,0,6,,,,1,69,0
202752,note_off,,,,,0,0,6,,,,1,45,0
202752,note_on,,,,,0,0,5,,,,3,50,127
202752,note_off,,,,,512,0,5,,,,3,45,0
202752,note_on,,,,,0,0,6,,,,1,50,114
202752,note_on,,,,,0,0,6,,,,1,74,114
202752,note_on,,,,,0,0,6,,,,1,69,114
202752,note_off,,,,,512,0,6,,,,1,64,0
202752,note_on,,,,,0,0,6,,,,1,65,114
202752,note_on,,,,,0,0,2,,,,2,74,114
202752,note_off,,,,,0,0,6,,,,1,73,0
202752,note_on,,,,,0,0,3,,,,6,69,101
202752,note_off,,,,,512,0,3,,,,6,69,0
202752,note_off,,,,,512,0,2,,,,2,73,0
203776,note_off,,,,,1024,0,5,,,,3,50,0
203776,note_off,,,,,1024,0,2,,,,2,74,0
203776,note_off,,,,,0,0,6,,,,1,74,0
203776,note_off,,,,,0,0,6,,,,1,50,0
203776,note_off,,,,,0,0,6,,,,1,69,0
203776,note_off,,,,,1024,0,4,,,,12,62,0
203776,note_off,,,,,1024,0,6,,,,1,65,0
203776,note_off,,,,,1024,0,3,,,,6,69,0
204288,note_on,,,,,512,0,4,,,,12,76,127
204800,note_on,,,,,0,0,6,,,,1,72,75
204800,note_on,,,,,1024,0,3,,,,6,69,49
204800,note_on,,,,,1024,0,2,,,,2,72,49
204800,note_on,,,,,0,0,6,,,,1,69,75
204800,note_on,,,,,0,0,4,,,,12,69,127
204800,note_on,,,,,1024,0,6,,,,1,64,75
204800,note_off,,,,,512,0,4,,,,12,76,0
204800,note_on,,,,,1024,0,5,,,,3,45,101
204800,note_on,,,,,0,0,6,,,,1,45,75
205056,note_off,,,,,256,0,4,,,,12,69,0
205056,note_on,,,,,0,0,4,,,,12,71,127
205312,note_off,,,,,256,0,4,,,,12,71,0
205312,note_on,,,,,0,0,4,,,,12,72,127
205568,note_off,,,,,256,0,4,,,,12,72,0
205568,note_on,,,,,0,0,4,,,,12,71,127
205824,note_on,,,,,0,0,4,,,,12,69,127
205824,note_off,,,,,1024,0,6,,,,1,64,0
205824,note_off,,,,,256,0,4,,,,12,71,0
205824,note_off,,,,,0,0,6,,,,1,69,0
205824,note_off,,,,,0,0,6,,,,1,72,0
205824,note_off,,,,,0,0,6,,,,1,45,0
205824,note_off,,,,,1024,0,5,,,,3,45,0
205824,note_off,,,,,1024,0,2,,,,2,72,0
205824,note_off,,,,,1024,0,3,,,,6,69,0
206336,note_on,,,,,512,0,3,,,,6,69,49
206336,note_on,,,,,512,0,2,,,,2,72,49
206336,note_on,,,,,512,0,5,,,,3,57,101
206336,note_on,,,,,512,0,6,,,,1,64,75
206336,note_on,,,,,0,0,6,,,,1,69,75
206336,note_on,,,,,0,0,6,,,,1,72,75
206336,note_off,,,,,512,0,4,,,,12,69,0
206336,note_on,,,,,0,0,6,,,,1,57,75
206848,note_off,,,,,512,0,5,,,,3,57,0
206848,note_on,,,,,0,0,5,,,,3,45,101
206848,note_off,,,,,512,0,6,,,,1,64,0
206848,note_off,,,,,0,0,6,,,,1,69,0
206848,note_off,,,,,0,0,6,,,,1,72,0
206848,note_on,,,,,0,0,6,,,,1,45,75
206848,note_on,,,,,0,0,6,,,,1,64,75
206848,note_on,,,,,0,0,2,,,,2,69,49
206848,note_off,,,,,512,0,2,,,,2,72,0
206848,note_on,,,,,0,0,3,,,,6,64,49
206848,note_off,,,,,512,0,3,,,,6,69,0
206848,note_on,,,,,512,0,4,,,,12,72,127
206848,note_on,,,,,0,0,6,,,,1,60,75
206848,note_on,,,,,0,0,6,,,,1,69,75
206848,note_off,,,,,0,0,6,,,,1,57,0
207104,note_off,,,,,256,0,4,,,,12,72,0
207104,note_on,,,,,0,0,4,,,,12,74,127
207360,note_off,,,,,256,0,4,,,,12,74,0
207360,note_on,,,,,0,0,4,,,,12,76,127
207616,note_off,,,,,256,0,4,,,,12,76,0
207616,note_on,,,,,0,0,4,,,,12,74,127
207872,note_off,,,,,1024,0,2,,,,2,69,0
207872,note_off,,,,,0,0,6,,,,1,45,0
207872,note_off,,,,,1024,0,5,,,,3,45,0
207872,note_off,,,,,0,0,6,,,,1,69,0
207872,note_off,,,,,256,0,4,,,,12,74,0
207872,note_off,,,,,1024,0,3,,,,6,64,0
207872,note_on,,,,,0,0,4,,,,12,72,127
207872,note_off,,,,,1024,0,6,,,,1,60,0
207872,note_off,,,,,0,0,6,,,,1,64,0
208384,note_off,,,,,512,0,4,,,,12,72,0
208384,note_on,,,,,512,0,2,,,,2,64,49
208384,note_on,,,,,0,0,6,,,,1,57,75
208384,note_on,,,,,0,0,6,,,,1,64,75
208384,note_on,,,,,512,0,6,,,,1,60,75
208384,note_on,,,,,512,0,5,,,,3,57,101
208384,note_on,,,,,512,0,3,,,,6,60,49
208896,note_off,,,,,512,0,2,,,,2,64,0
208896,note_on,,,,,0,0,2,,,,2,69,49
208896,note_on,,,,,0,0,3,,,,6,60,49
208896,note_on,,,,,512,0,4,,,,12,81,127
208896,note_off,,,,,512,0,3,,,,6,60,0
208896,note_on,,,,,0,0,6,,,,1,69,75
208896,note_on,,,,,0,0,6,,,,1,45,75
208896,note_on,,,,,0,0,5,,,,3,45,101
208896,note_off,,,,,512,0,5,,,,3,57,0
208896,note_on,,,,,0,0,6,,,,1,60,75
208896,note_off,,,,,0,0,6,,,,1,57,0
208896,note_off,,,,,0,0,6,,,,1,64,0
208896,note_off,,,,,512,0,6,,,,1,60,0
209408,note_on,,,,,0,0,4,,,,12,76,127
209408,note_off,,,,,512,0,4,,,,12,81,0
209408,note_on,,,,,0,0,3,,,,6,62,49
209408,note_off,,,,,512,0,3,,,,6,60,0
209408,note_on,,,,,0,0,5,,,,3,47,101
209408,note_off,,,,,512,0,6,,,,1,60,0
209408,note_off,,,,,512,0,5,,,,3,45,0
209408,note_off,,,,,0,0,6,,,,1,69,0
209408,note_on,,,,,0,0,6,,,,1,62,75
209408,note_on,,,,,0,0,6,,,,1,47,75
209408,note_off,,,,,0,0,6,,,,1,45,0
209920,note_on,,,,,0,0,4,,,,12,74,127
209920,note_off,,,,,512,0,4,,,,12,76,0
209920,note_off,,,,,512,0,5,,,,3,47,0
209920,note_on,,,,,0,0,6,,,,1,48,75
209920,note_off,,,,,512,0,3,,,,6,62,0
209920,note_off,,,,,512,0,6,,,,1,62,0
209920,note_on,,,,,0,0,6,,,,1,64,75
209920,note_off,,,,,0,0,6,,,,1,47,0
209920,note_on,,,,,0,0,3,,,,6,64,49
209920,note_on,,,,,0,0,5,,,,3,48,101
210048,note_off,,,,,128,0,4,,,,12,74,0
210048,note_on,,,,,0,0,4,,,,12,72,127
210176,note_on,,,,,0,0,4,,,,12,74,127
210176,note_off,,,,,128,0,4,,,,12,72,0
210304,note_off,,,,,128,0,4,,,,12,74,0
210304,note_on,,,,,0,0,4,,,,12,72,127
210432,note_on,,,,,0,0,5,,,,3,50,101
210432,note_on,,,,,0,0,6,,,,1,50,75
210432,note_off,,,,,0,0,6,,,,1,48,0
210432,note_on,,,,,0,0,6,,,,1,65,75
210432,note_off,,,,,512,0,6,,,,1,64,0
210432,note_on,,,,,0,0,3,,,,6,65,49
210432,note_off,,,,,128,0,4,,,,12,72,0
210432,note_off,,,,,512,0,5,,,,3,48,0
210432,note_on,,,,,0,0,4,,,,12,71,127
210432,note_off,,,,,512,0,3,,,,6,64,0
210688,note_on,,,,,0,0,4,,,,12,69,127
210688,note_off,,,,,256,0,4,,,,12,71,0
210944,note_on,,,,,0,0,5,,,,3,52,101
210944,note_on,,,,,0,0,3,,,,6,59,49
210944,note_off,,,,,2048,0,2,,,,2,69,0
210944,note_off,,,,,512,0,5,,,,3,50,0
210944,note_off,,,,,512,0,3,,,,6,65,0
210944,note_on,,,,,0,0,2,,,,2,68,49
210944,note_off,,,,,256,0,4,,,,12,69,0
210944,note_on,,,,,0,0,4,,,,12,68,127
210944,note_off,,,,,512,0,6,,,,1,65,0
210944,note_on,,,,,0,0,6,,,,1,60,75
210944,note_on,,,,,0,0,6,,,,1,68,75
210944,note_on,,,,,0,0,6,,,,1,52,75
210944,note_off,,,,,0,0,6,,,,1,50,0
211200,note_off,,,,,256,0,6,,,,1,52,0
211200,note_off,,,,,256,0,4,,,,12,68,0
211200,note_on,,,,,0,0,4,,,,12,66,127
211200,note_off,,,,,256,0,5,,,,3,52,0
211200,note_on,,,,,0,0,5,,,,3,54,101
211200,note_on,,,,,0,0,6,,,,1,54,75
211456,note_off,,,,,512,0,3,,,,6,59,0
211456,note_on,,,,,0,0,2,,,,2,71,49
211456,note_off,,,,,256,0,6,,,,1,60,0
211456,note_on,,,,,0,0,4,,,,12,64,127
211456,note_off,,,,,0,0,6,,,,1,68,0
211456,note_on,,,,,0,0,6,,,,1,64,75
211456,note_off,,,,,256,0,4,,,,12,66,0
211456,note_on,,,,,0,0,3,,,,6,64,49
211456,note_off,,,,,0,0,6,,,,1,54,0
211456,note_off,,,,,512,0,2,,,,2,68,0
211456,note_on,,,,,0,0,6,,,,1,56,75
211456,note_off,,,,,256,0,5,,,,3,54,0
211456,note_on,,,,,0,0,5,,,,3,56,101
211456,note_on,,,,,0,0,6,,,,1,71,75
211712,note_on,,,,,0,0,5,,,,3,54,101
211712,note_off,,,,,256,0,6,,,,1,56,0
211712,note_on,,,,,0,0,6,,,,1,54,75
211712,note_off,,,,,256,0,5,,,,3,56,0
211968,note_on,,,,,0,0,5,,,,3,52,101
211968,note_off,,,,,256,0,5,,,,3,54,0
211968,note_off,,,,,0,0,6,,,,1,54,0
211968,note_off,,,,,512,0,4,,,,12,64,0
211968,note_off,,,,,512,0,3,,,,6,64,0
211968,note_on,,,,,0,0,3,,,,6,67,49
211968,note_on,,,,,0,0,6,,,,1,52,75
211968,note_on,,,,,0,0,6,,,,1,76,75
211968,note_on,,,,,0,0,6,,,,1,68,75
211968,note_off,,,,,0,0,6,,,,1,71,0
211968,note_off,,,,,256,0,6,,,,1,64,0
211968,note_on,,,,,0,0,2,,,,2,76,49
211968,note_off,,,,,512,0,2,,,,2,71,0
212480,note_off,,,,,0,0,6,,,,1,52,0
212480,note_off,,,,,0,0,6,,,,1,76,0
212480,note_off,,,,,512,0,6,,,,1,68,0
212480,note_off,,,,,512,0,2,,,,2,76,0
212480,note_on,,,,,512,0,4,,,,12,71,127
212480,note_off,,,,,512,0,3,,,,6,67,0
212480,note_off,,,,,512,0,5,,,,3,52,0
212992,note_off,,,,,512,0,4,,,,12,71,0
212992,note_on,,,,,0,0,6,,,,1,57,75
212992,note_on,,,,,0,0,6,,,,1,76,75
212992,note_on,,,,,0,0,6,,,,1,73,75
212992,note_on,,,,,512,0,6,,,,1,69,75
212992,note_on,,,,,512,0,3,,,,6,73,49
212992,note_on,,,,,512,0,2,,,,2,76,49
212992,note_on,,,,,0,0,4,,,,12,73,127
212992,note_on,,,,,512,0,5,,,,3,57,101
213248,note_off,,,,,256,0,4,,,,12,73,0
213248,note_on,,,,,0,0,4,,,,12,69,127
213504,note_off,,,,,512,0,5,,,,3,57,0
213504,note_off,,,,,0,0,6,,,,1,73,0
213504,note_off,,,,,512,0,6,,,,1,69,0
213504,note_off,,,,,256,0,4,,,,12,69,0
213504,note_on,,,,,0,0,4,,,,12,67,127
213504,note_off,,,,,512,0,3,,,,6,73,0
213504,note_off,,,,,512,0,2,,,,2,76,0
213504,note_off,,,,,0,0,6,,,,1,76,0
213504,note_off,,,,,0,0,6,,,,1,57,0
213760,note_on,,,,,0,0,4,,,,12,69,127
213760,note_off,,,,,256,0,4,,,,12,67,0
214016,note_on,,,,,512,0,2,,,,2,76,49
214016,note_on,,,,,0,0,4,,,,12,73,127
214016,note_off,,,,,256,0,4,,,,12,69,0
214016,note_on,,,,,0,0,6,,,,1,76,75
214016,note_on,,,,,0,0,6,,,,1,73,75
214016,note_on,,,,,512,0,6,,,,1,69,75
214016,note_on,,,,,0,0,6,,,,1,55,75
214016,note_on,,,,,512,0,3,,,,6,73,49
214016,note_on,,,,,512,0,5,,,,3,55,101
214272,note_off,,,,,256,0,4,,,,12,73,0
214272,note_on,,,,,0,0,4,,,,12,69,127
214528,note_off,,,,,0,0,6,,,,1,55,0
214528,note_off,,,,,512,0,5,,,,3,55,0
214528,note_on,,,,,0,0,4,,,,12,67,127
214528,note_off,,,,,512,0,2,,,,2,76,0
214528,note_off,,,,,256,0,4,,,,12,69,0
214528,note_off,,,,,0,0,6,,,,1,76,0
214528,note_off,,,,,0,0,6,,,,1,73,0
214528,note_off,,,,,512,0,6,,,,1,69,0
214528,note_off,,,,,512,0,3,,,,6,73,0
214784,note_off,,,,,256,0,4,,,,12,67,0
214784,note_on,,,,,0,0,4,,,,12,69,127
215040,note_on,,,,,0,0,6,,,,1,53,75
215040,note_on,,,,,0,0,4,,,,12,74,127
215040,note_off,,,,,256,0,4,,,,12,69,0
215040,note_on,,,,,512,0,2,,,,2,77,49
215040,note_on,,,,,512,0,6,,,,1,69,75
215040,note_on,,,,,512,0,3,,,,6,74,49
215040,note_on,,,,,512,0,5,,,,3,53,101
215040,note_on,,,,,0,0,6,,,,1,77,75
215040,note_on,,,,,0,0,6,,,,1,74,75
215296,note_off,,,,,256,0,4,,,,12,74,0
215296,note_on,,,,,0,0,4,,,,12,69,127
215552,note_off,,,,,512,0,3,,,,6,74,0
215552,note_off,,,,,512,0,5,,,,3,53,0
215552,note_off,,,,,512,0,6,,,,1,69,0
215552,note_off,,,,,512,0,2,,,,2,77,0
215552,note_off,,,,,0,0,6,,,,1,74,0
215552,note_on,,,,,0,0,4,,,,12,67,127
215552,note_off,,,,,0,0,6,,,,1,53,0
215552,note_off,,,,,0,0,6,,,,1,77,0
215552,note_off,,,,,256,0,4,,,,12,69,0
215808,note_off,,,,,256,0,4,,,,12,67,0
215808,note_on,,,,,0,0,4,,,,12,69,127
216064,note_on,,,,,512,0,6,,,,1,69,75
216064,note_on,,,,,0,0,6,,,,1,50,75
216064,note_on,,,,,512,0,5,,,,3,50,101
216064,note_on,,,,,512,0,3,,,,6,74,49
216064,note_on,,,,,0,0,4,,,,12,74,127
216064,note_off,,,,,256,0,4,,,,12,69,0
216064,note_on,,,,,0,0,6,,,,1,77,75
216064,note_on,,,,,512,0,2,,,,2,77,49
216064,note_on,,,,,0,0,6,,,,1,74,75
216320,note_on,,,,,0,0,4,,,,12,69,127
216320,note_off,,,,,256,0,4,,,,12,74,0
216576,note_on,,,,,0,0,4,,,,12,67,127
216576,note_off,,,,,512,0,2,,,,2,77,0
216576,note_off,,,,,256,0,4,,,,12,69,0
216576,note_off,,,,,512,0,3,,,,6,74,0
216576,note_off,,,,,512,0,5,,,,3,50,0
216576,note_off,,,,,0,0,6,,,,1,77,0
216576,note_off,,,,,0,0,6,,,,1,74,0
216576,note_off,,,,,512,0,6,,,,1,69,0
216576,note_off,,,,,0,0,6,,,,1,50,0
216832,note_off,,,,,256,0,4,,,,12,67,0
216832,note_on,,,,,0,0,4,,,,12,69,127
217088,note_on,,,,,512,0,6,,,,1,67,75
217088,note_on,,,,,0,0,6,,,,1,71,75
217088,note_on,,,,,512,0,5,,,,3,55,101
217088,note_on,,,,,512,0,3,,,,6,71,49
217088,note_on,,,,,0,0,6,,,,1,55,75
217088,note_on,,,,,512,0,2,,,,2,74,49
217088,note_off,,,,,256,0,4,,,,12,69,0
217088,note_on,,,,,0,0,4,,,,12,71,127
217088,note_on,,,,,0,0,6,,,,1,74,75
217344,note_on,,,,,0,0,4,,,,12,67,127
217344,note_off,,,,,256,0,4,,,,12,71,0
217600,note_off,,,,,512,0,5,,,,3,55,0
217600,note_off,,,,,0,0,6,,,,1,55,0
217600,note_off,,,,,0,0,6,,,,1,74,0
217600,note_on,,,,,0,0,4,,,,12,65,127
217600,note_off,,,,,0,0,6,,,,1,71,0
217600,note_off,,,,,512,0,6,,,,1,67,0
217600,note_off,,,,,512,0,3,,,,6,71,0
217600,note_off,,,,,512,0,2,,,,2,74,0
217600,note_off,,,,,256,0,4,,,,12,67,0
217856,note_on,,,,,0,0,4,,,,12,67,127
217856,note_off,,,,,256,0,4,,,,12,65,0
218112,note_on,,,,,0,0,4,,,,12,71,127
218112,note_off,,,,,256,0,4,,,,12,67,0
218112,note_on,,,,,512,0,6,,,,1,67,75
218112,note_on,,,,,0,0,6,,,,1,71,75
218112,note_on,,,,,0,0,6,,,,1,74,75
218112,note_on,,,,,0,0,6,,,,1,53,75
218112,note_on,,,,,512,0,3,,,,6,71,49
218112,note_on,,,,,512,0,5,,,,3,53,101
218112,note_on,,,,,512,0,2,,,,2,74,49
218368,note_off,,,,,256,0,4,,,,12,71,0
218368,note_on,,,,,0,0,4,,,,12,67,127
218624,note_on,,,,,0,0,4,,,,12,65,127
218624,note_off,,,,,512,0,3,,,,6,71,0
218624,note_off,,,,,256,0,4,,,,12,67,0
218624,note_off,,,,,512,0,6,,,,1,67,0
218624,note_off,,,,,0,0,6,,,,1,71,0
218624,note_off,,,,,0,0,6,,,,1,74,0
218624,note_off,,,,,0,0,6,,,,1,53,0
218624,note_off,,,,,512,0,2,,,,2,74,0
218624,note_off,,,,,512,0,5,,,,3,53,0
218880,note_on,,,,,0,0,4,,,,12,67,127
218880,note_off,,,,,256,0,4,,,,12,65,0
219136,note_on,,,,,512,0,6,,,,1,67,75
219136,note_on,,,,,512,0,5,,,,3,52,101
219136,note_on,,,,,0,0,6,,,,1,72,75
219136,note_on,,,,,512,0,2,,,,2,76,49
219136,note_on,,,,,0,0,6,,,,1,76,75
219136,note_on,,,,,0,0,6,,,,1,52,75
219136,note_on,,,,,0,0,4,,,,12,72,127
219136,note_off,,,,,256,0,4,,,,12,67,0
219136,note_on,,,,,512,0,3,,,,6,72,49
219392,note_on,,,,,0,0,4,,,,12,67,127
219392,note_off,,,,,256,0,4,,,,12,72,0
219648,note_off,,,,,0,0,6,,,,1,72,0
219648,note_off,,,,,0,0,6,,,,1,76,0
219648,note_off,,,,,0,0,6,,,,1,52,0
219648,note_on,,,,,0,0,4,,,,12,65,127
219648,note_off,,,,,512,0,6,,,,1,67,0
219648,note_off,,,,,256,0,4,,,,12,67,0
219648,note_off,,,,,512,0,2,,,,2,76,0
219648,note_off,,,,,512,0,5,,,,3,52,0
219648,note_off,,,,,512,0,3,,,,6,72,0
219904,note_on,,,,,0,0,4,,,,12,67,127
219904,note_off,,,,,256,0,4,,,,12,65,0
220160,note_on,,,,,0,0,6,,,,1,72,75
220160,note_on,,,,,512,0,5,,,,3,48,101
220160,note_on,,,,,0,0,4,,,,12,72,127
220160,note_on,,,,,512,0,2,,,,2,76,49
220160,note_on,,,,,0,0,6,,,,1,48,75
220160,note_off,,,,,256,0,4,,,,12,67,0
220160,note_on,,,,,0,0,6,,,,1,76,75
220160,note_on,,,,,512,0,6,,,,1,67,75
220160,note_on,,,,,512,0,3,,,,6,72,49
220416,note_off,,,,,256,0,4,,,,12,72,0
220416,note_on,,,,,0,0,4,,,,12,67,127
220672,note_off,,,,,0,0,6,,,,1,48,0
220672,note_off,,,,,0,0,6,,,,1,76,0
220672,note_off,,,,,0,0,6,,,,1,72,0
220672,note_off,,,,,512,0,6,,,,1,67,0
220672,note_off,,,,,512,0,3,,,,6,72,0
220672,note_off,,,,,512,0,2,,,,2,76,0
220672,note_off,,,,,256,0,4,,,,12,67,0
220672,note_off,,,,,512,0,5,,,,3,48,0
220672,note_on,,,,,0,0,4,,,,12,65,127
220928,note_on,,,,,0,0,4,,,,12,67,127
220928,note_off,,,,,256,0,4,,,,12,65,0
221184,note_on,,,,,512,0,2,,,,2,72,49
221184,note_on,,,,,512,0,5,,,,3,54,101
221184,note_on,,,,,512,0,6,,,,1,69,75
221184,note_on,,,,,0,0,6,,,,1,72,75
221184,note_on,,,,,0,0,6,,,,1,54,75
221184,note_on,,,,,512,0,3,,,,6,69,49
221184,note_off,,,,,256,0,4,,,,12,67,0
221184,note_on,,,,,0,0,4,,,,12,69,127
221440,note_on,,,,,0,0,4,,,,12,66,127
221440,note_off,,,,,256,0,4,,,,12,69,0
221696,note_on,,,,,0,0,4,,,,12,64,127
221696,note_off,,,,,512,0,3,,,,6,69,0
221696,note_off,,,,,512,0,2,,,,2,72,0
221696,note_off,,,,,0,0,6,,,,1,54,0
221696,note_off,,,,,0,0,6,,,,1,72,0
221696,note_off,,,,,512,0,6,,,,1,69,0
221696,note_off,,,,,256,0,4,,,,12,66,0
221696,note_off,,,,,512,0,5,,,,3,54,0
221952,note_off,,,,,256,0,4,,,,12,64,0
221952,note_on,,,,,0,0,4,,,,12,66,127
222208,note_on,,,,,0,0,6,,,,1,52,75
222208,note_on,,,,,0,0,4,,,,12,69,127
222208,note_on,,,,,512,0,5,,,,3,52,101
222208,note_on,,,,,512,0,6,,,,1,66,75
222208,note_on,,,,,512,0,2,,,,2,72,49
222208,note_on,,,,,0,0,6,,,,1,69,75
222208,note_on,,,,,512,0,3,,,,6,69,49
222208,note_off,,,,,256,0,4,,,,12,66,0
222208,note_on,,,,,0,0,6,,,,1,72,75
222464,note_off,,,,,256,0,4,,,,12,69,0
222464,note_on,,,,,0,0,4,,,,12,66,127
222720,note_off,,,,,512,0,3,,,,6,69,0
222720,note_off,,,,,512,0,6,,,,1,66,0
222720,note_off,,,,,512,0,2,,,,2,72,0
222720,note_off,,,,,0,0,6,,,,1,69,0
222720,note_off,,,,,0,0,6,,,,1,72,0
222720,note_off,,,,,0,0,6,,,,1,52,0
222720,note_off,,,,,512,0,5,,,,3,52,0
222720,note_on,,,,,0,0,4,,,,12,64,127
222720,note_off,,,,,256,0,4,,,,12,66,0
222976,note_off,,,,,256,0,4,,,,12,64,0
222976,note_on,,,,,0,0,4,,,,12,66,127
223232,note_on,,,,,0,0,6,,,,1,51,75
223232,note_on,,,,,0,0,4,,,,12,71,127
223232,note_off,,,,,256,0,4,,,,12,66,0
223232,note_on,,,,,512,0,2,,,,2,71,49
223232,note_on,,,,,512,0,3,,,,6,66,49
223232,note_on,,,,,512,0,5,,,,3,51,101
223232,note_on,,,,,512,0,6,,,,1,66,75
223232,note_on,,,,,0,0,6,,,,1,71,75
223488,note_on,,,,,0,0,4,,,,12,66,127
223488,note_off,,,,,256,0,4,,,,12,71,0
223744,note_off,,,,,512,0,3,,,,6,66,0
223744,note_off,,,,,512,0,5,,,,3,51,0
223744,note_on,,,,,0,0,4,,,,12,64,127
223744,note_off,,,,,0,0,6,,,,1,71,0
223744,note_off,,,,,512,0,2,,,,2,71,0
223744,note_off,,,,,256,0,4,,,,12,66,0
223744,note_off,,,,,512,0,6,,,,1,66,0
223744,note_off,,,,,0,0,6,,,,1,51,0
224000,note_off,,,,,256,0,4,,,,12,64,0
224000,note_on,,,,,0,0,4,,,,12,66,127
224256,note_on,,,,,512,0,2,,,,2,75,49
224256,note_on,,,,,512,0,5,,,,3,47,101
224256,note_on,,,,,0,0,4,,,,12,71,127
224256,note_off,,,,,256,0,4,,,,12,66,0
224256,note_on,,,,,512,0,6,,,,1,66,75
224256,note_on,,,,,0,0,6,,,,1,71,75
224256,note_on,,,,,0,0,6,,,,1,75,75
224256,note_on,,,,,0,0,6,,,,1,47,75
224256,note_on,,,,,512,0,3,,,,6,71,49
224512,note_on,,,,,0,0,4,,,,12,66,127
224512,note_off,,,,,256,0,4,,,,12,71,0
224768,note_on,,,,,0,0,4,,,,12,64,127
224768,note_off,,,,,256,0,4,,,,12,66,0
224768,note_off,,,,,512,0,3,,,,6,71,0
224768,note_off,,,,,512,0,2,,,,2,75,0
224768,note_off,,,,,512,0,5,,,,3,47,0
224768,note_off,,,,,0,0,6,,,,1,47,0
224768,note_off,,,,,0,0,6,,,,1,75,0
224768,note_off,,,,,0,0,6,,,,1,71,0
224768,note_off,,,,,512,0,6,,,,1,66,0
225024,note_off,,,,,256,0,4,,,,12,64,0
225024,note_on,,,,,0,0,4,,,,12,66,127
225280,note_on,,,,,0,0,6,,,,1,68,75
225280,note_on,,,,,0,0,6,,,,1,71,75
225280,note_off,,,,,256,0,4,,,,12,66,0
225280,note_on,,,,,512,0,6,,,,1,64,75
225280,note_on,,,,,0,0,4,,,,12,68,127
225280,note_on,,,,,512,0,2,,,,2,71,49
225280,note_on,,,,,512,0,3,,,,6,68,49
225280,note_on,,,,,512,0,5,,,,3,52,101
225280,note_on,,,,,0,0,6,,,,1,52,75
225536,note_off,,,,,256,0,4,,,,12,68,0
225536,note_on,,,,,0,0,4,,,,12,64,127
225792,note_off,,,,,512,0,3,,,,6,68,0
225792,note_off,,,,,512,0,2,,,,2,71,0
225792,note_on,,,,,0,0,4,,,,12,62,127
225792,note_off,,,,,512,0,6,,,,1,64,0
225792,note_off,,,,,0,0,6,,,,1,71,0
225792,note_off,,,,,256,0,4,,,,12,64,0
225792,note_off,,,,,512,0,5,,,,3,52,0
225792,note_off,,,,,0,0,6,,,,1,68,0
225792,note_off,,,,,0,0,6,,,,1,52,0
226048,note_off,,,,,256,0,4,,,,12,62,0
226048,note_on,,,,,0,0,4,,,,12,64,127
226304,note_off,,,,,256,0,4,,,,12,64,0
226304,note_on,,,,,0,0,4,,,,12,68,127
226304,note_on,,,,,512,0,2,,,,2,71,49
226304,note_on,,,,,0,0,6,,,,1,71,75
226304,note_on,,,,,0,0,6,,,,1,68,75
226304,note_on,,,,,0,0,6,,,,1,50,75
226304,note_on,,,,,512,0,3,,,,6,68,49
226304,note_on,,,,,512,0,5,,,,3,50,101
226304,note_on,,,,,512,0,6,,,,1,64,75
226560,note_on,,,,,0,0,4,,,,12,64,127
226560,note_off,,,,,256,0,4,,,,12,68,0
226816,note_on,,,,,0,0,4,,,,12,62,127
226816,note_off,,,,,256,0,4,,,,12,64,0
226816,note_off,,,,,512,0,3,,,,6,68,0
226816,note_off,,,,,512,0,2,,,,2,71,0
226816,note_off,,,,,0,0,6,,,,1,50,0
226816,note_off,,,,,0,0,6,,,,1,71,0
226816,note_off,,,,,0,0,6,,,,1,68,0
226816,note_off,,,,,512,0,6,,,,1,64,0
226816,note_off,,,,,512,0,5,,,,3,50,0
227072,note_off,,,,,256,0,4,,,,12,62,0
227072,note_on,,,,,0,0,4,,,,12,64,127
227328,note_on,,,,,0,0,6,,,,1,72,75
227328,note_on,,,,,0,0,6,,,,1,69,75
227328,note_on,,,,,512,0,6,,,,1,64,75
227328,note_on,,,,,0,0,6,,,,1,48,75
227328,note_on,,,,,512,0,3,,,,6,69,49
227328,note_off,,,,,256,0,4,,,,12,64,0
227328,note_on,,,,,512,0,5,,,,3,48,101
227328,note_on,,,,,512,0,2,,,,2,72,49
227328,note_on,,,,,0,0,4,,,,12,69,127
227584,note_off,,,,,256,0,4,,,,12,69,0
227584,note_on,,,,,0,0,4,,,,12,71,127
227840,note_off,,,,,0,0,6,,,,1,69,0
227840,note_off,,,,,512,0,6,,,,1,64,0
227840,note_off,,,,,0,0,6,,,,1,48,0
227840,note_on,,,,,0,0,4,,,,12,72,127
227840,note_off,,,,,512,0,2,,,,2,72,0
227840,note_off,,,,,512,0,5,,,,3,48,0
227840,note_off,,,,,512,0,3,,,,6,69,0
227840,note_off,,,,,256,0,4,,,,12,71,0
227840,note_off,,,,,0,0,6,,,,1,72,0
228096,note_off,,,,,256,0,4,,,,12,72,0
228096,note_on,,,,,0,0,4,,,,12,74,127
228352,note_off,,,,,256,0,4,,,,12,74,0
228352,note_on,,,,,512,0,2,,,,2,72,49
228352,note_on,,,,,512,0,5,,,,3,45,101
228352,note_on,,,,,0,0,4,,,,12,76,127
228352,note_on,,,,,512,0,3,,,,6,69,49
228352,note_on,,,,,512,0,6,,,,1,64,75
228352,note_on,,,,,0,0,6,,,,1,69,75
228352,note_on,,,,,0,0,6,,,,1,72,75
228352,note_on,,,,,0,0,6,,,,1,45,75
228864,note_off,,,,,512,0,6,,,,1,64,0
228864,note_off,,,,,512,0,3,,,,6,69,0
228864,note_off,,,,,0,0,6,,,,1,69,0
228864,note_off,,,,,0,0,6,,,,1,72,0
228864,note_off,,,,,0,0,6,,,,1,45,0
228864,note_off,,,,,512,0,2,,,,2,72,0
228864,note_off,,,,,512,0,5,,,,3,45,0
228864,note_off,,,,,512,0,4,,,,12,76,0
229376,note_on,,,,,512,0,5,,,,3,50,101
229376,note_on,,,,,512,0,4,,,,12,77,127
229376,note_on,,,,,512,0,6,,,,1,38,75
229376,note_on,,,,,0,0,6,,,,1,50,75
229888,note_on,,,,,1024,0,2,,,,2,69,49
229888,note_on,,,,,0,0,6,,,,1,69,75
229888,note_on,,,,,0,0,6,,,,1,65,75
229888,note_on,,,,,512,0,6,,,,1,62,75
229888,note_on,,,,,1024,0,3,,,,6,65,49
230400,note_off,,,,,512,0,6,,,,1,62,0
230400,note_off,,,,,0,0,6,,,,1,65,0
230400,note_off,,,,,0,0,6,,,,1,69,0
230400,note_off,,,,,1024,0,5,,,,3,50,0
230400,note_off,,,,,512,0,2,,,,2,69,0
230400,note_on,,,,,0,0,2,,,,2,69,49
230400,note_on,,,,,0,0,6,,,,1,62,75
230400,note_on,,,,,0,0,6,,,,1,65,75
230400,note_on,,,,,0,0,6,,,,1,69,75
230400,note_off,,,,,0,0,6,,,,1,38,0
230400,note_off,,,,,0,0,6,,,,1,50,0
230400,note_on,,,,,0,0,3,,,,6,65,49
230400,note_off,,,,,512,0,3,,,,6,65,0
230912,note_on,,,,,0,0,6,,,,1,69,75
230912,note_on,,,,,0,0,2,,,,2,69,49
230912,note_off,,,,,512,0,2,,,,2,69,0
230912,note_on,,,,,0,0,6,,,,1,65,75
230912,note_off,,,,,512,0,6,,,,1,62,0
230912,note_off,,,,,0,0,6,,,,1,65,0
230912,note_off,,,,,0,0,6,,,,1,69,0
230912,note_on,,,,,0,0,6,,,,1,62,75
230912,note_off,,,,,512,0,3,,,,6,65,0
230912,note_on,,,,,0,0,3,,,,6,65,49
231424,note_off,,,,,512,0,2,,,,2,69,0
231424,note_off,,,,,512,0,6,,,,1,62,0
231424,note_off,,,,,0,0,6,,,,1,65,0
231424,note_off,,,,,0,0,6,,,,1,69,0
231424,note_on,,,,,0,0,6,,,,1,38,75
231424,note_on,,,,,0,0,6,,,,1,50,75
231424,note_on,,,,,1024,0,5,,,,3,50,101
231424,note_off,,,,,512,0,3,,,,6,65,0
231936,note_on,,,,,512,0,2,,,,2,69,49
231936,note_off,,,,,2560,0,4,,,,12,77,0
231936,note_on,,,,,0,0,4,,,,12,81,127
231936,note_on,,,,,512,0,6,,,,1,62,75
231936,note_on,,,,,0,0,6,,,,1,65,75
231936,note_on,,,,,512,0,3,,,,6,65,49
231936,note_on,,,,,0,0,6,,,,1,69,75
232448,note_off,,,,,0,0,6,,,,1,65,0
232448,note_off,,,,,0,0,6,,,,1,69,0
232448,note_on,,,,,0,0,6,,,,1,62,75
232448,note_on,,,,,0,0,6,,,,1,65,75
232448,note_on,,,,,0,0,6,,,,1,69,75
232448,note_off,,,,,0,0,6,,,,1,38,0
232448,note_off,,,,,512,0,6,,,,1,62,0
232448,note_off,,,,,0,0,6,,,,1,50,0
232448,note_off,,,,,512,0,2,,,,2,69,0
232448,note_on,,,,,0,0,3,,,,6,65,49
232448,note_off,,,,,512,0,3,,,,6,65,0
232448,note_off,,,,,1024,0,5,,,,3,50,0
232448,note_on,,,,,0,0,2,,,,2,69,49
232448,note_off,,,,,512,0,4,,,,12,81,0
232448,note_on,,,,,0,0,4,,,,12,79,127
232576,note_off,,,,,128,0,4,,,,12,79,0
232576,note_on,,,,,0,0,4,,,,12,77,127
232704,note_on,,,,,0,0,4,,,,12,79,127
232704,note_off,,,,,128,0,4,,,,12,77,0
232832,note_on,,,,,0,0,4,,,,12,77,127
232832,note_off,,,,,128,0,4,,,,12,79,0
232960,note_on,,,,,0,0,2,,,,2,69,49
232960,note_off,,,,,512,0,6,,,,1,62,0
232960,note_on,,,,,0,0,3,,,,6,65,49
232960,note_off,,,,,512,0,2,,,,2,69,0
232960,note_on,,,,,0,0,4,,,,12,76,127
232960,note_off,,,,,0,0,6,,,,1,65,0
232960,note_off,,,,,0,0,6,,,,1,69,0
232960,note_on,,,,,0,0,6,,,,1,62,75
232960,note_on,,,,,0,0,6,,,,1,65,75
232960,note_on,,,,,0,0,6,,,,1,69,75
232960,note_off,,,,,128,0,4,,,,12,77,0
232960,note_off,,,,,512,0,3,,,,6,65,0
233216,note_off,,,,,256,0,4,,,,12,76,0
233216,note_on,,,,,0,0,4,,,,12,74,127
233472,note_off,,,,,512,0,2,,,,2,69,0
233472,note_on,,,,,0,0,6,,,,1,33,75
233472,note_on,,,,,1024,0,5,,,,3,45,101
233472,note_off,,,,,512,0,6,,,,1,62,0
233472,note_off,,,,,0,0,6,,,,1,65,0
233472,note_off,,,,,0,0,6,,,,1,69,0
233472,note_on,,,,,0,0,6,,,,1,45,75
233472,note_off,,,,,512,0,3,,,,6,65,0
233472,note_on,,,,,0,0,4,,,,12,72,127
233472,note_off,,,,,256,0,4,,,,12,74,0
233728,note_on,,,,,0,0,4,,,,12,71,127
233728,note_off,,,,,256,0,4,,,,12,72,0
233984,note_on,,,,,512,0,2,,,,2,72,49
233984,note_on,,,,,0,0,6,,,,1,72,75
233984,note_on,,,,,512,0,6,,,,1,64,75
233984,note_on,,,,,512,0,3,,,,6,69,49
233984,note_on,,,,,0,0,4,,,,12,69,127
233984,note_off,,,,,256,0,4,,,,12,71,0
233984,note_on,,,,,0,0,6,,,,1,69,75
234496,note_off,,,,,0,0,6,,,,1,45,0
234496,note_off,,,,,512,0,6,,,,1,64,0
234496,note_off,,,,,0,0,6,,,,1,69,0
234496,note_off,,,,,0,0,6,,,,1,72,0
234496,note_off,,,,,512,0,4,,,,12,69,0
234496,note_on,,,,,0,0,6,,,,1,69,75
234496,note_on,,,,,0,0,6,,,,1,72,75
234496,note_off,,,,,0,0,6,,,,1,33,0
234496,note_on,,,,,0,0,6,,,,1,64,75
234496,note_on,,,,,0,0,2,,,,2,72,49
234496,note_off,,,,,1024,0,5,,,,3,45,0
234496,note_on,,,,,0,0,3,,,,6,69,49
234496,note_off,,,,,512,0,2,,,,2,72,0
234496,note_off,,,,,512,0,3,,,,6,69,0
235008,note_off,,,,,512,0,3,,,,6,69,0
235008,note_on,,,,,0,0,3,,,,6,69,49
235008,note_off,,,,,512,0,2,,,,2,72,0
235008,note_on,,,,,0,0,6,,,,1,72,75
235008,note_on,,,,,0,0,6,,,,1,69,75
235008,note_on,,,,,0,0,6,,,,1,64,75
235008,note_off,,,,,0,0,6,,,,1,72,0
235008,note_off,,,,,0,0,6,,,,1,69,0
235008,note_off,,,,,512,0,6,,,,1,64,0
235008,note_on,,,,,0,0,2,,,,2,72,49
235520,note_on,,,,,1024,0,4,,,,12,72,127
235520,note_on,,,,,1024,0,5,,,,3,45,101
235520,note_off,,,,,512,0,3,,,,6,69,0
235520,note_off,,,,,0,0,6,,,,1,69,0
235520,note_off,,,,,512,0,6,,,,1,64,0
235520,note_off,,,,,512,0,2,,,,2,72,0
235520,note_off,,,,,0,0,6,,,,1,72,0
235520,note_on,,,,,0,0,6,,,,1,45,75
235520,note_on,,,,,0,0,6,,,,1,33,75
236032,note_on,,,,,512,0,3,,,,6,69,49
236032,note_on,,,,,0,0,6,,,,1,72,75
236032,note_on,,,,,0,0,6,,,,1,69,75
236032,note_on,,,,,512,0,6,,,,1,64,75
236032,note_on,,,,,512,0,2,,,,2,72,49
236544,note_on,,,,,0,0,6,,,,1,72,75
236544,note_on,,,,,0,0,6,,,,1,69,75
236544,note_off,,,,,0,0,6,,,,1,45,0
236544,note_on,,,,,0,0,6,,,,1,64,75
236544,note_off,,,,,0,0,6,,,,1,72,0
236544,note_off,,,,,0,0,6,,,,1,33,0
236544,note_off,,,,,0,0,6,,,,1,69,0
236544,note_off,,,,,512,0,6,,,,1,64,0
236544,note_on,,,,,0,0,3,,,,6,69,49
236544,note_on,,,,,0,0,2,,,,2,72,49
236544,note_off,,,,,512,0,2,,,,2,72,0
236544,note_off,,,,,1024,0,5,,,,3,45,0
236544,note_off,,,,,512,0,3,,,,6,69,0
237056,note_off,,,,,512,0,6,,,,1,64,0
237056,note_off,,,,,512,0,2,,,,2,72,0
237056,note_on,,,,,0,0,3,,,,6,69,49
237056,note_off,,,,,512,0,3,,,,6,69,0
237056,note_on,,,,,0,0,6,,,,1,72,75
237056,note_on,,,,,0,0,6,,,,1,69,75
237056,note_on,,,,,0,0,6,,,,1,64,75
237056,note_off,,,,,0,0,6,,,,1,72,0
237056,note_off,,,,,0,0,6,,,,1,69,0
237056,note_on,,,,,0,0,2,,,,2,72,49
237568,note_off,,,,,512,0,6,,,,1,64,0
237568,note_on,,,,,1024,0,5,,,,3,45,101
237568,note_off,,,,,0,0,6,,,,1,69,0
237568,note_on,,,,,0,0,6,,,,1,33,75
237568,note_off,,,,,512,0,3,,,,6,69,0
237568,note_off,,,,,0,0,6,,,,1,72,0
237568,note_off,,,,,512,0,2,,,,2,72,0
237568,note_on,,,,,0,0,6,,,,1,45,75
238080,note_on,,,,,512,0,2,,,,2,69,49
238080,note_on,,,,,512,0,3,,,,6,64,49
238080,note_on,,,,,0,0,6,,,,1,69,75
238080,note_on,,,,,0,0,6,,,,1,64,75
238080,note_on,,,,,512,0,6,,,,1,60,75
238080,note_off,,,,,2560,0,4,,,,12,72,0
238080,note_on,,,,,0,0,4,,,,12,76,127
238592,note_off,,,,,512,0,4,,,,12,76,0
238592,note_on,,,,,0,0,4,,,,12,74,127
238592,note_off,,,,,0,0,6,,,,1,45,0
238592,note_off,,,,,0,0,6,,,,1,33,0
238592,note_on,,,,,0,0,6,,,,1,69,75
238592,note_on,,,,,0,0,6,,,,1,64,75
238592,note_off,,,,,1024,0,5,,,,3,45,0
238592,note_on,,,,,0,0,3,,,,6,64,49
238592,note_on,,,,,0,0,6,,,,1,60,75
238592,note_off,,,,,512,0,2,,,,2,69,0
238592,note_on,,,,,0,0,2,,,,2,69,49
238592,note_off,,,,,0,0,6,,,,1,69,0
238592,note_off,,,,,0,0,6,,,,1,64,0
238592,note_off,,,,,512,0,6,,,,1,60,0
238592,note_off,,,,,512,0,3,,,,6,64,0
238720,note_on,,,,,0,0,4,,,,12,72,127
238720,note_off,,,,,128,0,4,,,,12,74,0
238848,note_on,,,,,0,0,4,,,,12,74,127
238848,note_off,,,,,128,0,4,,,,12,72,0
238976,note_off,,,,,128,0,4,,,,12,74,0
238976,note_on,,,,,0,0,4,,,,12,72,127
239104,note_off,,,,,128,0,4,,,,12,72,0
239104,note_on,,,,,0,0,4,,,,12,71,127
239104,note_off,,,,,0,0,6,,,,1,69,0
239104,note_on,,,,,0,0,6,,,,1,69,75
239104,note_on,,,,,0,0,6,,,,1,64,75
239104,note_on,,,,,0,0,6,,,,1,60,75
239104,note_on,,,,,0,0,3,,,,6,64,49
239104,note_off,,,,,512,0,3,,,,6,64,0
239104,note_off,,,,,512,0,2,,,,2,69,0
239104,note_on,,,,,0,0,2,,,,2,69,49
239104,note_off,,,,,0,0,6,,,,1,64,0
239104,note_off,,,,,512,0,6,,,,1,60,0
239360,note_on,,,,,0,0,4,,,,12,69,127
239360,note_off,,,,,256,0,4,,,,12,71,0
239616,note_off,,,,,512,0,6,,,,1,60,0
239616,note_off,,,,,0,0,6,,,,1,64,0
239616,note_on,,,,,0,0,4,,,,12,68,127
239616,note_on,,,,,0,0,6,,,,1,52,75
239616,note_on,,,,,1024,0,5,,,,3,52,101
239616,note_off,,,,,512,0,2,,,,2,69,0
239616,note_off,,,,,0,0,6,,,,1,69,0
239616,note_off,,,,,256,0,4,,,,12,69,0
239616,note_off,,,,,512,0,3,,,,6,64,0
239616,note_on,,,,,0,0,6,,,,1,40,75
239872,note_off,,,,,256,0,4,,,,12,68,0
239872,note_on,,,,,0,0,4,,,,12,66,127
240128,note_on,,,,,512,0,2,,,,2,71,49
240128,note_on,,,,,512,0,6,,,,1,64,75
240128,note_on,,,,,0,0,6,,,,1,68,75
240128,note_on,,,,,512,0,3,,,,6,68,49
240128,note_on,,,,,0,0,4,,,,12,64,127
240128,note_off,,,,,256,0,4,,,,12,66,0
240128,note_on,,,,,0,0,6,,,,1,71,75
240640,note_off,,,,,0,0,6,,,,1,71,0
240640,note_on,,,,,0,0,6,,,,1,64,75
240640,note_on,,,,,0,0,6,,,,1,68,75
240640,note_on,,,,,0,0,6,,,,1,71,75
240640,note_on,,,,,0,0,2,,,,2,71,49
240640,note_off,,,,,512,0,2,,,,2,71,0
240640,note_off,,,,,1024,0,5,,,,3,52,0
240640,note_off,,,,,512,0,4,,,,12,64,0
240640,note_off,,,,,512,0,3,,,,6,68,0
240640,note_on,,,,,0,0,3,,,,6,68,49
240640,note_off,,,,,0,0,6,,,,1,40,0
240640,note_off,,,,,0,0,6,,,,1,52,0
240640,note_off,,,,,0,0,6,,,,1,68,0
240640,note_off,,,,,512,0,6,,,,1,64,0
241152,note_on,,,,,0,0,6,,,,1,64,75
241152,note_off,,,,,512,0,6,,,,1,64,0
241152,note_off,,,,,0,0,6,,,,1,71,0
241152,note_on,,,,,0,0,6,,,,1,71,75
241152,note_on,,,,,0,0,6,,,,1,68,75
241152,note_off,,,,,0,0,6,,,,1,68,0
241152,note_on,,,,,0,0,3,,,,6,68,49
241152,note_on,,,,,512,0,4,,,,12,71,127
241152,note_off,,,,,512,0,3,,,,6,68,0
241152,note_on,,,,,0,0,2,,,,2,71,49
241152,note_off,,,,,512,0,2,,,,2,71,0
241664,note_on,,,,,0,0,4,,,,12,72,127
241664,note_off,,,,,512,0,4,,,,12,71,0
241664,note_off,,,,,0,0,6,,,,1,71,0
241664,note_off,,,,,0,0,6,,,,1,68,0
241664,note_off,,,,,512,0,6,,,,1,64,0
241664,note_off,,,,,512,0,3,,,,6,68,0
241664,note_off,,,,,512,0,2,,,,2,71,0
242176,note_on,,,,,0,0,6,,,,1,57,75
242176,note_on,,,,,512,0,6,,,,1,72,75
242176,note_on,,,,,512,0,3,,,,6,72,49
242176,note_on,,,,,0,0,4,,,,12,76,127
242176,note_off,,,,,512,0,4,,,,12,72,0
242176,note_on,,,,,1536,0,5,,,,3,57,101
242176,note_on,,,,,512,0,2,,,,2,72,49
242688,note_off,,,,,512,0,2,,,,2,72,0
242688,note_on,,,,,0,0,2,,,,2,69,49
242688,note_off,,,,,512,0,3,,,,6,72,0
242688,note_on,,,,,0,0,3,,,,6,69,49
242688,note_off,,,,,512,0,5,,,,3,57,0
242688,note_on,,,,,0,0,5,,,,3,60,101
242688,note_on,,,,,0,0,6,,,,1,60,75
242688,note_off,,,,,512,0,6,,,,1,72,0
242688,note_on,,,,,0,0,6,,,,1,69,75
242688,note_off,,,,,0,0,6,,,,1,57,0
243200,note_on,,,,,0,0,6,,,,1,64,75
243200,note_off,,,,,512,0,6,,,,1,69,0
243200,note_on,,,,,0,0,5,,,,3,57,101
243200,note_off,,,,,512,0,5,,,,3,60,0
243200,note_on,,,,,0,0,3,,,,6,64,49
243200,note_off,,,,,0,0,6,,,,1,60,0
243200,note_on,,,,,0,0,6,,,,1,57,75
243200,note_off,,,,,512,0,3,,,,6,69,0
243200,note_off,,,,,512,0,2,,,,2,69,0
243200,note_off,,,,,1024,0,4,,,,12,76,0
243200,note_on,,,,,0,0,4,,,,12,74,127
243200,note_on,,,,,0,0,2,,,,2,64,49
243456,note_off,,,,,256,0,4,,,,12,74,0
243456,note_on,,,,,0,0,4,,,,12,72,127
243712,note_off,,,,,512,0,5,,,,3,57,0
243712,note_off,,,,,512,0,6,,,,1,64,0
243712,note_off,,,,,512,0,3,,,,6,64,0
243712,note_off,,,,,512,0,2,,,,2,64,0
243712,note_off,,,,,0,0,6,,,,1,57,0
243712,note_off,,,,,256,0,4,,,,12,72,0
243712,note_on,,,,,0,0,4,,,,12,71,127
244224,note_on,,,,,0,0,4,,,,12,74,127
244224,note_on,,,,,0,0,6,,,,1,56,75
244224,note_on,,,,,512,0,3,,,,6,71,49
244224,note_off,,,,,512,0,4,,,,12,71,0
244224,note_on,,,,,512,0,2,,,,2,71,49
244224,note_on,,,,,512,0,6,,,,1,71,75
244224,note_on,,,,,512,0,5,,,,3,56,101
244736,note_on,,,,,0,0,5,,,,3,59,101
244736,note_off,,,,,512,0,5,,,,3,56,0
244736,note_off,,,,,512,0,2,,,,2,71,0
244736,note_off,,,,,512,0,6,,,,1,71,0
244736,note_on,,,,,0,0,6,,,,1,68,75
244736,note_off,,,,,0,0,6,,,,1,56,0
244736,note_on,,,,,0,0,6,,,,1,59,75
244736,note_off,,,,,512,0,3,,,,6,71,0
244736,note_on,,,,,0,0,3,,,,6,68,49
244736,note_on,,,,,0,0,2,,,,2,68,49
245248,note_off,,,,,512,0,5,,,,3,59,0
245248,note_off,,,,,1024,0,4,,,,12,74,0
245248,note_off,,,,,512,0,6,,,,1,68,0
245248,note_on,,,,,0,0,6,,,,1,68,75
245248,note_off,,,,,0,0,6,,,,1,59,0
245248,note_on,,,,,0,0,6,,,,1,52,75
245248,note_off,,,,,512,0,3,,,,6,68,0
245248,note_on,,,,,0,0,3,,,,6,64,49
245248,note_on,,,,,0,0,5,,,,3,52,101
245248,note_on,,,,,0,0,4,,,,12,72,127
245248,note_on,,,,,0,0,2,,,,2,68,49
245248,note_off,,,,,512,0,2,,,,2,68,0
245504,note_off,,,,,256,0,4,,,,12,72,0
245504,note_on,,,,,0,0,4,,,,12,71,127
245760,note_off,,,,,256,0,4,,,,12,71,0
245760,note_on,,,,,0,0,4,,,,12,72,127
245760,note_off,,,,,512,0,5,,,,3,52,0
245760,note_off,,,,,512,0,3,,,,6,64,0
245760,note_off,,,,,512,0,2,,,,2,68,0
245760,note_off,,,,,0,0,6,,,,1,52,0
245760,note_off,,,,,512,0,6,,,,1,68,0
246272,note_on,,,,,512,0,6,,,,1,72,75
246272,note_on,,,,,0,0,4,,,,12,76,127
246272,note_on,,,,,0,0,6,,,,1,57,75
246272,note_on,,,,,512,0,3,,,,6,72,49
246272,note_off,,,,,512,0,4,,,,12,72,0
246272,note_on,,,,,512,0,5,,,,3,57,101
246272,note_on,,,,,512,0,2,,,,2,72,49
246784,note_on,,,,,0,0,5,,,,3,60,101
246784,note_off,,,,,512,0,5,,,,3,57,0
246784,note_on,,,,,0,0,6,,,,1,60,75
246784,note_off,,,,,0,0,6,,,,1,57,0
246784,note_on,,,,,0,0,6,,,,1,69,75
246784,note_off,,,,,512,0,6,,,,1,72,0
246784,note_off,,,,,512,0,2,,,,2,72,0
246784,note_off,,,,,512,0,3,,,,6,72,0
246784,note_on,,,,,0,0,3,,,,6,69,49
246784,note_on,,,,,0,0,2,,,,2,69,49
247296,note_off,,,,,512,0,5,,,,3,60,0
247296,note_on,,,,,0,0,3,,,,6,64,49
247296,note_off,,,,,1024,0,4,,,,12,76,0
247296,note_off,,,,,512,0,2,,,,2,69,0
247296,note_on,,,,,0,0,2,,,,2,64,49
247296,note_on,,,,,0,0,4,,,,12,74,127
247296,note_off,,,,,512,0,6,,,,1,69,0
247296,note_on,,,,,0,0,6,,,,1,64,75
247296,note_off,,,,,0,0,6,,,,1,60,0
247296,note_on,,,,,0,0,6,,,,1,57,75
247296,note_off,,,,,512,0,3,,,,6,69,0
247296,note_on,,,,,0,0,5,,,,3,57,101
247552,note_on,,,,,0,0,4,,,,12,72,127
247552,note_off,,,,,256,0,4,,,,12,74,0
247808,note_on,,,,,0,0,4,,,,12,77,127
247808,note_off,,,,,512,0,6,,,,1,64,0
247808,note_off,,,,,512,0,3,,,,6,64,0
247808,note_off,,,,,512,0,2,,,,2,64,0
247808,note_off,,,,,512,0,5,,,,3,57,0
247808,note_off,,,,,0,0,6,,,,1,57,0
247808,note_off,,,,,256,0,4,,,,12,72,0
248320,note_on,,,,,512,0,2,,,,2,77,49
248320,note_on,,,,,512,0,5,,,,3,62,101
248320,note_on,,,,,0,0,6,,,,1,62,75
248320,note_on,,,,,0,0,4,,,,12,81,127
248320,note_off,,,,,512,0,4,,,,12,77,0
248320,note_on,,,,,512,0,6,,,,1,77,75
248320,note_on,,,,,512,0,3,,,,6,77,49
248832,note_off,,,,,0,0,6,,,,1,62,0
248832,note_off,,,,,512,0,2,,,,2,77,0
248832,note_on,,,,,0,0,3,,,,6,74,49
248832,note_off,,,,,512,0,3,,,,6,77,0
248832,note_on,,,,,0,0,2,,,,2,74,49
248832,note_on,,,,,0,0,5,,,,3,53,101
248832,note_on,,,,,0,0,6,,,,1,53,75
248832,note_off,,,,,512,0,5,,,,3,62,0
248832,note_off,,,,,512,0,6,,,,1,77,0
248832,note_on,,,,,0,0,6,,,,1,74,75
249344,note_on,,,,,0,0,5,,,,3,50,101
249344,note_off,,,,,512,0,5,,,,3,53,0
249344,note_off,,,,,0,0,6,,,,1,53,0
249344,note_on,,,,,0,0,6,,,,1,69,75
249344,note_off,,,,,512,0,6,,,,1,74,0
249344,note_off,,,,,512,0,3,,,,6,74,0
249344,note_on,,,,,0,0,3,,,,6,69,49
249344,note_off,,,,,512,0,2,,,,2,74,0
249344,note_on,,,,,0,0,2,,,,2,69,49
249344,note_off,,,,,1024,0,4,,,,12,81,0
249344,note_on,,,,,0,0,6,,,,1,50,75
249344,note_on,,,,,0,0,4,,,,12,79,127
249600,note_off,,,,,256,0,4,,,,12,79,0
249600,note_on,,,,,0,0,4,,,,12,77,127
249856,note_off,,,,,512,0,6,,,,1,69,0
249856,note_off,,,,,512,0,5,,,,3,50,0
249856,note_off,,,,,512,0,3,,,,6,69,0
249856,note_off,,,,,512,0,2,,,,2,69,0
249856,note_off,,,,,256,0,4,,,,12,77,0
249856,note_on,,,,,0,0,4,,,,12,76,127
249856,note_off,,,,,0,0,6,,,,1,50,0
250368,note_off,,,,,512,0,4,,,,12,76,0
250368,note_on,,,,,512,0,2,,,,2,72,49
250368,note_on,,,,,0,0,4,,,,12,76,127
250368,note_on,,,,,512,0,6,,,,1,72,75
250368,note_on,,,,,0,0,6,,,,1,57,75
250368,note_on,,,,,512,0,3,,,,6,72,49
250368,note_on,,,,,512,0,5,,,,3,57,101
250880,note_on,,,,,0,0,6,,,,1,60,75
250880,note_off,,,,,0,0,6,,,,1,57,0
250880,note_off,,,,,512,0,5,,,,3,57,0
250880,note_on,,,,,0,0,5,,,,3,60,101
250880,note_off,,,,,512,0,3,,,,6,72,0
250880,note_on,,,,,0,0,3,,,,6,69,49
250880,note_off,,,,,512,0,2,,,,2,72,0
250880,note_on,,,,,0,0,2,,,,2,69,49
250880,note_on,,,,,0,0,6,,,,1,69,75
250880,note_off,,,,,512,0,6,,,,1,72,0
251392,note_on,,,,,0,0,6,,,,1,72,75
251392,note_off,,,,,0,0,6,,,,1,60,0
251392,note_on,,,,,0,0,6,,,,1,57,75
251392,note_off,,,,,512,0,3,,,,6,69,0
251392,note_on,,,,,0,0,3,,,,6,72,49
251392,note_on,,,,,0,0,4,,,,12,76,127
251392,note_off,,,,,512,0,6,,,,1,69,0
251392,note_off,,,,,512,0,5,,,,3,60,0
251392,note_on,,,,,0,0,5,,,,3,57,101
251392,note_off,,,,,512,0,2,,,,2,69,0
251392,note_on,,,,,0,0,2,,,,2,72,49
251392,note_off,,,,,1024,0,4,,,,12,76,0
251904,note_off,,,,,512,0,5,,,,3,57,0
251904,note_on,,,,,0,0,5,,,,3,56,101
251904,note_on,,,,,0,0,6,,,,1,71,75
251904,note_off,,,,,512,0,3,,,,6,72,0
251904,note_on,,,,,0,0,3,,,,6,71,49
251904,note_off,,,,,512,0,6,,,,1,72,0
251904,note_off,,,,,512,0,2,,,,2,72,0
251904,note_on,,,,,0,0,2,,,,2,71,49
251904,note_on,,,,,0,0,6,,,,1,56,75
251904,note_off,,,,,0,0,6,,,,1,57,0
252416,note_on,,,,,0,0,5,,,,3,54,101
252416,note_off,,,,,512,0,5,,,,3,56,0
252416,note_off,,,,,0,0,6,,,,1,56,0
252416,note_on,,,,,0,0,6,,,,1,69,75
252416,note_off,,,,,512,0,6,,,,1,71,0
252416,note_off,,,,,512,0,3,,,,6,71,0
252416,note_on,,,,,0,0,6,,,,1,54,75
252416,note_on,,,,,0,0,4,,,,12,74,127
252416,note_off,,,,,1024,0,4,,,,12,76,0
252416,note_off,,,,,512,0,2,,,,2,71,0
252416,note_on,,,,,0,0,2,,,,2,69,49
252416,note_on,,,,,0,0,3,,,,6,69,49
252928,note_off,,,,,512,0,3,,,,6,69,0
252928,note_on,,,,,0,0,3,,,,6,71,49
252928,note_on,,,,,0,0,6,,,,1,56,75
252928,note_on,,,,,0,0,5,,,,3,56,101
252928,note_on,,,,,0,0,6,,,,1,71,75
252928,note_off,,,,,512,0,6,,,,1,69,0
252928,note_off,,,,,512,0,5,,,,3,54,0
252928,note_off,,,,,512,0,2,,,,2,69,0
252928,note_on,,,,,0,0,2,,,,2,71,49
252928,note_off,,,,,0,0,6,,,,1,54,0
253440,note_off,,,,,512,0,6,,,,1,71,0
253440,note_on,,,,,0,0,6,,,,1,64,75
253440,note_on,,,,,0,0,6,,,,1,68,75
253440,note_off,,,,,0,0,6,,,,1,56,0
253440,note_on,,,,,0,0,6,,,,1,54,75
253440,note_on,,,,,0,0,3,,,,6,64,49
253440,note_on,,,,,0,0,2,,,,2,68,49
253440,note_on,,,,,0,0,6,,,,1,59,75
253440,note_off,,,,,512,0,3,,,,6,71,0
253440,note_on,,,,,0,0,5,,,,3,54,101
253440,note_off,,,,,512,0,2,,,,2,71,0
253440,note_on,,,,,0,0,4,,,,12,72,127
253440,note_off,,,,,1024,0,4,,,,12,74,0
253440,note_off,,,,,512,0,5,,,,3,56,0
253696,note_off,,,,,256,0,4,,,,12,72,0
253696,note_on,,,,,0,0,4,,,,12,71,127
253952,note_on,,,,,0,0,2,,,,2,69,49
253952,note_on,,,,,0,0,3,,,,6,64,49
253952,note_off,,,,,512,0,3,,,,6,64,0
253952,note_off,,,,,512,0,2,,,,2,68,0
253952,note_on,,,,,0,0,6,,,,1,57,75
253952,note_on,,,,,0,0,6,,,,1,64,75
253952,note_on,,,,,0,0,6,,,,1,60,75
253952,note_off,,,,,0,0,6,,,,1,54,0
253952,note_off,,,,,0,0,6,,,,1,68,0
253952,note_off,,,,,0,0,6,,,,1,64,0
253952,note_off,,,,,512,0,6,,,,1,59,0
253952,note_on,,,,,0,0,6,,,,1,69,75
253952,note_on,,,,,0,0,4,,,,12,72,127
253952,note_off,,,,,256,0,4,,,,12,71,0
253952,note_off,,,,,512,0,5,,,,3,54,0
253952,note_on,,,,,0,0,5,,,,3,57,101
254208,note_on,,,,,0,0,4,,,,12,69,127
254208,note_off,,,,,256,0,4,,,,12,72,0
254464,note_off,,,,,256,0,4,,,,12,69,0
254464,note_on,,,,,0,0,4,,,,12,71,127
254720,note_on,,,,,0,0,4,,,,12,72,127
254720,note_off,,,,,256,0,4,,,,12,71,0
254976,note_off,,,,,1024,0,5,,,,3,57,0
254976,note_on,,,,,0,0,4,,,,12,74,127
254976,note_off,,,,,256,0,4,,,,12,72,0
254976,note_off,,,,,1024,0,6,,,,1,60,0
254976,note_off,,,,,1024,0,2,,,,2,69,0
254976,note_off,,,,,1024,0,3,,,,6,64,0
254976,note_off,,,,,0,0,6,,,,1,64,0
254976,note_off,,,,,0,0,6,,,,1,69,0
254976,note_off,,,,,0,0,6,,,,1,57,0
255232,note_off,,,,,256,0,4,,,,12,74,0
255232,note_on,,,,,0,0,4,,,,12,76,127
255488,note_on,,,,,512,0,2,,,,2,71,49
255488,note_on,,,,,512,0,5,,,,3,52,101
255488,note_on,,,,,512,0,3,,,,6,68,49
255488,note_on,,,,,512,0,6,,,,1,64,75
255488,note_on,,,,,0,0,6,,,,1,68,75
255488,note_on,,,,,0,0,6,,,,1,71,75
255488,note_off,,,,,256,0,4,,,,12,76,0
255488,note_on,,,,,0,0,4,,,,12,78,127
255488,note_on,,,,,0,0,6,,,,1,52,75
255744,note_off,,,,,256,0,4,,,,12,78,0
255744,note_on,,,,,0,0,4,,,,12,80,127
256000,note_on,,,,,0,0,4,,,,12,81,127
256000,note_off,,,,,512,0,2,,,,2,71,0
256000,note_on,,,,,0,0,2,,,,2,72,49
256000,note_on,,,,,0,0,5,,,,3,45,101
256000,note_off,,,,,0,0,6,,,,1,52,0
256000,note_on,,,,,0,0,6,,,,1,72,75
256000,note_on,,,,,0,0,6,,,,1,69,75
256000,note_on,,,,,0,0,6,,,,1,64,75
256000,note_off,,,,,0,0,6,,,,1,68,0
256000,note_off,,,,,512,0,6,,,,1,64,0
256000,note_off,,,,,512,0,5,,,,3,52,0
256000,note_on,,,,,0,0,6,,,,1,45,75
256000,note_off,,,,,512,0,3,,,,6,68,0
256000,note_on,,,,,0,0,3,,,,6,69,49
256000,note_off,,,,,0,0,6,,,,1,71,0
256000,note_off,,,,,256,0,4,,,,12,80,0
256512,note_off,,,,,0,0,6,,,,1,69,0
256512,note_on,,,,,0,0,4,,,,12,69,127
256512,note_on,,,,,0,0,2,,,,2,69,49
256512,note_off,,,,,512,0,4,,,,12,81,0
256512,note_off,,,,,512,0,2,,,,2,72,0
256512,note_off,,,,,512,0,5,,,,3,45,0
256512,note_off,,,,,0,0,6,,,,1,45,0
256512,note_on,,,,,0,0,6,,,,1,69,75
256512,note_on,,,,,0,0,6,,,,1,53,75
256512,note_off,,,,,0,0,6,,,,1,72,0
256512,note_on,,,,,0,0,6,,,,1,60,75
256512,note_on,,,,,0,0,6,,,,1,65,75
256512,note_off,,,,,512,0,3,,,,6,69,0
256512,note_on,,,,,0,0,3,,,,6,65,49
256512,note_off,,,,,512,0,6,,,,1,64,0
256512,note_on,,,,,0,0,5,,,,3,53,101
257024,note_on,,,,,0,0,6,,,,1,52,75
257024,note_off,,,,,512,0,2,,,,2,69,0
257024,note_on,,,,,0,0,2,,,,2,71,49
257024,note_on,,,,,0,0,4,,,,12,72,127
257024,note_off,,,,,512,0,4,,,,12,69,0
257024,note_on,,,,,0,0,5,,,,3,52,101
257024,note_off,,,,,512,0,5,,,,3,53,0
257024,note_off,,,,,512,0,3,,,,6,65,0
257024,note_on,,,,,0,0,3,,,,6,69,49
257024,note_off,,,,,512,0,6,,,,1,60,0
257024,note_off,,,,,0,0,6,,,,1,65,0
257024,note_off,,,,,0,0,6,,,,1,69,0
257024,note_on,,,,,0,0,6,,,,1,71,75
257024,note_on,,,,,0,0,6,,,,1,69,75
257024,note_off,,,,,0,0,6,,,,1,53,0
257152,note_on,,,,,0,0,4,,,,12,71,127
257152,note_off,,,,,128,0,4,,,,12,72,0
257280,note_on,,,,,0,0,4,,,,12,72,127
257280,note_off,,,,,128,0,4,,,,12,71,0
257408,note_off,,,,,128,0,4,,,,12,72,0
257408,note_on,,,,,0,0,4,,,,12,71,127
257536,note_off,,,,,128,0,4,,,,12,71,0
257536,note_on,,,,,0,0,4,,,,12,72,127
257536,note_on,,,,,0,0,3,,,,6,68,49
257536,note_off,,,,,512,0,3,,,,6,69,0
257536,note_on,,,,,0,0,5,,,,3,40,101
257536,note_off,,,,,0,0,6,,,,1,71,0
257536,note_off,,,,,512,0,5,,,,3,52,0
257536,note_off,,,,,512,0,6,,,,1,69,0
257536,note_on,,,,,0,0,6,,,,1,64,75
257536,note_on,,,,,0,0,6,,,,1,68,75
257536,note_off,,,,,0,0,6,,,,1,52,0
257536,note_on,,,,,0,0,6,,,,1,40,75
257664,note_off,,,,,128,0,4,,,,12,72,0
257664,note_on,,,,,0,0,4,,,,12,71,127
257792,note_off,,,,,128,0,4,,,,12,71,0
257792,note_on,,,,,0,0,4,,,,12,72,127
257920,note_on,,,,,0,0,4,,,,12,71,127
257920,note_off,,,,,128,0,4,,,,12,72,0
258048,note_on,,,,,0,0,5,,,,3,45,101
258048,note_off,,,,,1024,0,2,,,,2,71,0
258048,note_off,,,,,512,0,6,,,,1,64,0
258048,note_off,,,,,0,0,6,,,,1,68,0
258048,note_off,,,,,0,0,6,,,,1,40,0
258048,note_on,,,,,0,0,2,,,,2,72,49
258048,note_on,,,,,0,0,6,,,,1,69,75
258048,note_on,,,,,0,0,6,,,,1,64,75
258048,note_on,,,,,0,0,6,,,,1,45,75
258048,note_off,,,,,128,0,4,,,,12,71,0
258048,note_on,,,,,0,0,4,,,,12,69,127
258048,note_on,,,,,0,0,3,,,,6,69,49
258048,note_off,,,,,512,0,3,,,,6,68,0
258048,note_off,,,,,512,0,5,,,,3,40,0
258048,note_on,,,,,0,0,6,,,,1,72,75
259072,note_off,,,,,1024,0,2,,,,2,72,0
259072,note_off,,,,,1024,0,5,,,,3,45,0
259072,note_off,,,,,0,0,6,,,,1,72,0
259072,note_off,,,,,1024,0,4,,,,12,69,0
259072,note_off,,,,,0,0,6,,,,1,45,0
259072,note_off,,,,,1024,0,3,,,,6,69,0
259072,note_off,,,,,1024,0,6,,,,1,64,0
259072,note_off,,,,,0,0,6,,,,1,69,0
259584,note_on,,,,,512,0,4,,,,12,76,127
259584,note_on,,,,,0,0,6,,,,1,72,75
259584,note_on,,,,,512,0,6,,,,1,69,75
259584,note_on,,,,,512,0,3,,,,6,72,88
259584,note_on,,,,,512,0,2,,,,2,76,88
259584,note_on,,,,,0,0,6,,,,1,76,75
260096,note_on,,,,,0,0,4,,,,12,77,127
260096,note_off,,,,,512,0,4,,,,12,76,0
260096,note_on,,,,,0,0,6,,,,1,74,75
260096,note_on,,,,,0,0,2,,,,2,77,88
260096,note_off,,,,,512,0,2,,,,2,76,0
260096,note_on,,,,,0,0,6,,,,1,77,75
260096,note_on,,,,,0,0,3,,,,6,74,88
260096,note_off,,,,,512,0,3,,,,6,72,0
260096,note_off,,,,,512,0,6,,,,1,69,0
260096,note_off,,,,,0,0,6,,,,1,72,0
260096,note_off,,,,,0,0,6,,,,1,76,0
260096,note_on,,,,,0,0,6,,,,1,69,75
260608,note_off,,,,,512,0,6,,,,1,69,0
260608,note_on,,,,,0,0,6,,,,1,77,75
260608,note_on,,,,,0,0,6,,,,1,74,75
260608,note_on,,,,,0,0,6,,,,1,69,75
260608,note_off,,,,,0,0,6,,,,1,77,0
260608,note_off,,,,,0,0,6,,,,1,74,0
260608,note_off,,,,,512,0,3,,,,6,74,0
260608,note_on,,,,,0,0,3,,,,6,74,88
260608,note_off,,,,,512,0,2,,,,2,77,0
260608,note_on,,,,,0,0,2,,,,2,77,88
261120,note_on,,,,,0,0,6,,,,1,77,75
261120,note_on,,,,,0,0,6,,,,1,74,75
261120,note_on,,,,,0,0,6,,,,1,69,75
261120,note_off,,,,,0,0,6,,,,1,77,0
261120,note_off,,,,,0,0,6,,,,1,74,0
261120,note_off,,,,,512,0,6,,,,1,69,0
261120,note_on,,,,,0,0,2,,,,2,77,88
261120,note_on,,,,,0,0,3,,,,6,74,88
261120,note_off,,,,,512,0,3,,,,6,74,0
261120,note_off,,,,,512,0,2,,,,2,77,0
261632,note_on,,,,,0,0,6,,,,1,74,75
261632,note_off,,,,,512,0,2,,,,2,77,0
261632,note_on,,,,,0,0,2,,,,2,77,88
261632,note_on,,,,,0,0,3,,,,6,74,88
261632,note_off,,,,,512,0,6,,,,1,69,0
261632,note_off,,,,,0,0,6,,,,1,74,0
261632,note_on,,,,,0,0,6,,,,1,69,75
261632,note_on,,,,,0,0,6,,,,1,77,75
261632,note_off,,,,,512,0,3,,,,6,74,0
261632,note_off,,,,,0,0,6,,,,1,77,0
262144,note_off,,,,,2048,0,4,,,,12,77,0
262144,note_off,,,,,512,0,2,,,,2,77,0
262144,note_on,,,,,0,0,2,,,,2,76,88
262144,note_off,,,,,512,0,6,,,,1,69,0
262144,note_off,,,,,0,0,6,,,,1,74,0
262144,note_on,,,,,0,0,6,,,,1,69,75
262144,note_off,,,,,0,0,6,,,,1,77,0
262144,note_on,,,,,0,0,6,,,,1,76,75
262144,note_on,,,,,0,0,3,,,,6,72,88
262144,note_off,,,,,512,0,3,,,,6,74,0
262144,note_on,,,,,0,0,4,,,,12,76,127
262144,note_on,,,,,0,0,6,,,,1,72,75
262656,note_on,,,,,0,0,3,,,,6,72,88
262656,note_off,,,,,512,0,3,,,,6,72,0
262656,note_on,,,,,0,0,2,,,,2,76,88
262656,note_off,,,,,512,0,2,,,,2,76,0
262656,note_on,,,,,0,0,6,,,,1,76,75
262656,note_on,,,,,0,0,6,,,,1,72,75
262656,note_on,,,,,0,0,6,,,,1,69,75
262656,note_off,,,,,0,0,6,,,,1,76,0
262656,note_off,,,,,0,0,6,,,,1,72,0
262656,note_off,,,,,512,0,6,,,,1,69,0
263168,note_on,,,,,0,0,6,,,,1,72,75
263168,note_on,,,,,0,0,2,,,,2,76,88
263168,note_on,,,,,0,0,3,,,,6,72,88
263168,note_off,,,,,512,0,3,,,,6,72,0
263168,note_on,,,,,0,0,6,,,,1,76,75
263168,note_off,,,,,512,0,2,,,,2,76,0
263168,note_off,,,,,512,0,6,,,,1,69,0
263168,note_off,,,,,0,0,6,,,,1,72,0
263168,note_off,,,,,0,0,6,,,,1,76,0
263168,note_on,,,,,0,0,6,,,,1,69,75
263680,note_on,,,,,0,0,2,,,,2,76,88
263680,note_off,,,,,512,0,2,,,,2,76,0
263680,note_off,,,,,0,0,6,,,,1,76,0
263680,note_off,,,,,512,0,3,,,,6,72,0
263680,note_off,,,,,512,0,6,,,,1,69,0
263680,note_on,,,,,0,0,6,,,,1,76,75
263680,note_on,,,,,0,0,6,,,,1,72,75
263680,note_on,,,,,0,0,6,,,,1,69,75
263680,note_off,,,,,0,0,6,,,,1,72,0
263680,note_on,,,,,0,0,3,,,,6,72,88
264192,note_on,,,,,0,0,6,,,,1,71,75
264192,note_on,,,,,0,0,6,,,,1,69,75
264192,note_off,,,,,0,0,6,,,,1,76,0
264192,note_off,,,,,0,0,6,,,,1,72,0
264192,note_off,,,,,512,0,6,,,,1,69,0
264192,note_off,,,,,512,0,3,,,,6,72,0
264192,note_on,,,,,0,0,3,,,,6,71,88
264192,note_off,,,,,2048,0,4,,,,12,76,0
264192,note_on,,,,,0,0,4,,,,12,75,127
264192,note_on,,,,,0,0,6,,,,1,75,75
264192,note_on,,,,,0,0,2,,,,2,75,88
264192,note_off,,,,,512,0,2,,,,2,76,0
264704,note_on,,,,,0,0,6,,,,1,71,75
264704,note_off,,,,,512,0,2,,,,2,75,0
264704,note_on,,,,,0,0,2,,,,2,75,88
264704,note_on,,,,,0,0,3,,,,6,71,88
264704,note_off,,,,,512,0,3,,,,6,71,0
264704,note_off,,,,,0,0,6,,,,1,71,0
264704,note_off,,,,,0,0,6,,,,1,75,0
264704,note_on,,,,,0,0,6,,,,1,69,75
264704,note_on,,,,,0,0,6,,,,1,75,75
264704,note_off,,,,,512,0,6,,,,1,69,0
265216,note_off,,,,,512,0,6,,,,1,69,0
265216,note_off,,,,,0,0,6,,,,1,75,0
265216,note_on,,,,,0,0,2,,,,2,75,88
265216,note_on,,,,,0,0,6,,,,1,69,75
265216,note_off,,,,,512,0,2,,,,2,75,0
265216,note_on,,,,,0,0,6,,,,1,75,75
265216,note_off,,,,,512,0,3,,,,6,71,0
265216,note_on,,,,,0,0,3,,,,6,71,88
265216,note_on,,,,,0,0,6,,,,1,71,75
265216,note_off,,,,,0,0,6,,,,1,71,0
265728,note_on,,,,,0,0,6,,,,1,69,75
265728,note_off,,,,,0,0,6,,,,1,71,0
265728,note_off,,,,,512,0,3,,,,6,71,0
265728,note_off,,,,,512,0,6,,,,1,69,0
265728,note_off,,,,,512,0,2,,,,2,75,0
265728,note_on,,,,,0,0,2,,,,2,75,88
265728,note_on,,,,,0,0,6,,,,1,71,75
265728,note_on,,,,,0,0,6,,,,1,75,75
265728,note_on,,,,,0,0,3,,,,6,71,88
265728,note_off,,,,,0,0,6,,,,1,75,0
266240,note_off,,,,,512,0,6,,,,1,69,0
266240,note_off,,,,,0,0,6,,,,1,71,0
266240,note_off,,,,,0,0,6,,,,1,75,0
266240,note_on,,,,,0,0,6,,,,1,68,75
266240,note_on,,,,,0,0,6,,,,1,71,75
266240,note_on,,,,,0,0,6,,,,1,76,75
266240,note_on,,,,,0,0,2,,,,2,76,88
266240,note_off,,,,,512,0,3,,,,6,71,0
266240,note_off,,,,,512,0,2,,,,2,75,0
266240,note_off,,,,,2048,0,4,,,,12,75,0
266240,note_on,,,,,0,0,4,,,,12,76,127
266240,note_on,,,,,0,0,3,,,,6,71,88
266752,note_off,,,,,512,0,3,,,,6,71,0
266752,note_off,,,,,0,0,6,,,,1,76,0
266752,note_off,,,,,0,0,6,,,,1,71,0
266752,note_off,,,,,512,0,6,,,,1,68,0
266752,note_off,,,,,512,0,2,,,,2,76,0
266752,note_on,,,,,0,0,6,,,,1,76,75
266752,note_on,,,,,0,0,6,,,,1,68,75
266752,note_on,,,,,0,0,4,,,,12,77,127
266752,note_off,,,,,512,0,4,,,,12,76,0
266752,note_on,,,,,0,0,3,,,,6,71,88
266752,note_on,,,,,0,0,2,,,,2,76,88
266752,note_on,,,,,0,0,6,,,,1,71,75
267264,note_on,,,,,0,0,4,,,,12,76,127
267264,note_off,,,,,512,0,4,,,,12,77,0
267264,note_off,,,,,512,0,6,,,,1,68,0
267264,note_on,,,,,0,0,6,,,,1,68,75
267264,note_off,,,,,0,0,6,,,,1,76,0
267264,note_on,,,,,0,0,2,,,,2,76,88
267264,note_off,,,,,512,0,2,,,,2,76,0
267264,note_off,,,,,512,0,3,,,,6,71,0
267264,note_on,,,,,0,0,3,,,,6,71,88
267264,note_off,,,,,0,0,6,,,,1,71,0
267264,note_on,,,,,0,0,6,,,,1,71,75
267264,note_on,,,,,0,0,6,,,,1,76,75
267520,note_off,,,,,256,0,4,,,,12,76,0
267520,note_on,,,,,0,0,4,,,,12,74,127
267776,note_on,,,,,0,0,6,,,,1,68,75
267776,note_on,,,,,0,0,2,,,,2,76,88
267776,note_off,,,,,512,0,2,,,,2,76,0
267776,note_off,,,,,256,0,4,,,,12,74,0
267776,note_on,,,,,0,0,4,,,,12,72,127
267776,note_off,,,,,0,0,6,,,,1,76,0
267776,note_off,,,,,512,0,6,,,,1,68,0
267776,note_off,,,,,512,0,3,,,,6,71,0
267776,note_on,,,,,0,0,6,,,,1,76,75
267776,note_on,,,,,0,0,6,,,,1,71,75
267776,note_off,,,,,0,0,6,,,,1,71,0
267776,note_on,,,,,0,0,3,,,,6,71,88
268032,note_off,,,,,256,0,4,,,,12,72,0
268032,note_on,,,,,0,0,4,,,,12,71,127
268288,note_on,,,,,0,0,2,,,,2,76,88
268288,note_off,,,,,256,0,4,,,,12,71,0
268288,note_on,,,,,0,0,4,,,,12,72,127
268288,note_off,,,,,512,0,2,,,,2,76,0
268288,note_on,,,,,0,0,3,,,,6,72,88
268288,note_off,,,,,512,0,6,,,,1,68,0
268288,note_off,,,,,0,0,6,,,,1,71,0
268288,note_off,,,,,0,0,6,,,,1,76,0
268288,note_on,,,,,0,0,6,,,,1,69,75
268288,note_off,,,,,512,0,3,,,,6,71,0
268288,note_on,,,,,0,0,6,,,,1,72,75
268288,note_on,,,,,0,0,6,,,,1,76,75
268800,note_on,,,,,0,0,3,,,,6,69,88
268800,note_on,,,,,0,0,4,,,,12,71,127
268800,note_off,,,,,512,0,4,,,,12,72,0
268800,note_off,,,,,512,0,6,,,,1,69,0
268800,note_off,,,,,0,0,6,,,,1,72,0
268800,note_off,,,,,0,0,6,,,,1,76,0
268800,note_on,,,,,0,0,6,,,,1,57,75
268800,note_on,,,,,0,0,6,,,,1,69,75
268800,note_off,,,,,512,0,2,,,,2,76,0
268800,note_on,,,,,0,0,2,,,,2,72,88
268800,note_on,,,,,0,0,6,,,,1,72,75
268800,note_off,,,,,512,0,3,,,,6,72,0
269056,note_on,,,,,0,0,4,,,,12,69,127
269056,note_off,,,,,256,0,4,,,,12,71,0
269312,note_on,,,,,0,0,2,,,,2,71,88
269312,note_off,,,,,512,0,2,,,,2,72,0
269312,note_on,,,,,0,0,3,,,,6,69,88
269312,note_off,,,,,512,0,3,,,,6,69,0
269312,note_off,,,,,256,0,4,,,,12,69,0
269312,note_on,,,,,0,0,4,,,,12,72,127
269312,note_off,,,,,0,0,6,,,,1,69,0
269312,note_off,,,,,0,0,6,,,,1,72,0
269312,note_on,,,,,0,0,6,,,,1,64,75
269312,note_on,,,,,0,0,6,,,,1,71,75
269312,note_on,,,,,0,0,6,,,,1,69,75
269312,note_off,,,,,512,0,6,,,,1,57,0
269440,note_off,,,,,128,0,4,,,,12,72,0
269440,note_on,,,,,0,0,4,,,,12,71,127
269568,note_off,,,,,128,0,4,,,,12,71,0
269568,note_on,,,,,0,0,4,,,,12,72,127
269696,note_off,,,,,128,0,4,,,,12,72,0
269696,note_on,,,,,0,0,4,,,,12,71,127
269824,note_off,,,,,512,0,6,,,,1,64,0
269824,note_off,,,,,0,0,6,,,,1,69,0
269824,note_off,,,,,0,0,6,,,,1,71,0
269824,note_on,,,,,0,0,6,,,,1,68,75
269824,note_on,,,,,0,0,3,,,,6,68,88
269824,note_off,,,,,512,0,2,,,,2,71,0
269824,note_off,,,,,512,0,3,,,,6,69,0
269824,note_off,,,,,128,0,4,,,,12,71,0
269824,note_on,,,,,0,0,4,,,,12,72,127
269824,note_on,,,,,0,0,2,,,,2,68,88
269952,note_off,,,,,128,0,4,,,,12,72,0
269952,note_on,,,,,0,0,4,,,,12,71,127
270080,note_off,,,,,128,0,4,,,,12,71,0
270080,note_on,,,,,0,0,4,,,,12,72,127
270208,note_off,,,,,128,0,4,,,,12,72,0
270208,note_on,,,,,0,0,4,,,,12,71,127
270336,note_off,,,,,512,0,3,,,,6,68,0
270336,note_on,,,,,0,0,3,,,,6,60,101
270336,note_on,,,,,11264,0,5,,,,3,45,127
270336,note_on,,,,,0,0,6,,,,1,45,114
270336,note_off,,,,,512,0,2,,,,2,68,0
270336,note_on,,,,,0,0,6,,,,1,60,114
270336,note_on,,,,,0,0,2,,,,2,69,114
270336,note_off,,,,,128,0,4,,,,12,71,0
270336,note_on,,,,,0,0,4,,,,12,69,127
270336,note_on,,,,,0,0,6,,,,1,69,114
270336,note_off,,,,,512,0,6,,,,1,68,0
270592,note_off,,,,,256,0,6,,,,1,60,0
270592,note_off,,,,,0,0,6,,,,1,69,0
270592,note_on,,,,,0,0,6,,,,1,71,114
270592,note_on,,,,,0,0,2,,,,2,71,114
270592,note_off,,,,,256,0,2,,,,2,69,0
270592,note_off,,,,,256,0,4,,,,12,69,0
270592,note_on,,,,,0,0,4,,,,12,71,127
270848,note_on,,,,,0,0,6,,,,1,64,114
270848,note_on,,,,,0,0,6,,,,1,72,114
270848,note_on,,,,,0,0,3,,,,6,64,101
270848,note_off,,,,,256,0,6,,,,1,71,0
270848,note_off,,,,,256,0,4,,,,12,71,0
270848,note_on,,,,,0,0,6,,,,1,57,114
270848,note_on,,,,,0,0,4,,,,12,72,127
270848,note_off,,,,,0,0,6,,,,1,45,0
270848,note_on,,,,,0,0,5,,,,3,57,127
270848,note_off,,,,,512,0,5,,,,3,45,0
270848,note_on,,,,,0,0,2,,,,2,72,114
270848,note_off,,,,,256,0,2,,,,2,71,0
270848,note_off,,,,,512,0,3,,,,6,60,0
271104,note_on,,,,,0,0,2,,,,2,71,114
271104,note_off,,,,,256,0,2,,,,2,72,0
271104,note_off,,,,,256,0,6,,,,1,64,0
271104,note_on,,,,,0,0,6,,,,1,71,114
271104,note_off,,,,,256,0,4,,,,12,72,0
271104,note_on,,,,,0,0,4,,,,12,71,127
271104,note_off,,,,,0,0,6,,,,1,72,0
271360,note_on,,,,,0,0,5,,,,3,45,127
271360,note_off,,,,,512,0,5,,,,3,57,0
271360,note_off,,,,,256,0,4,,,,12,71,0
271360,note_on,,,,,0,0,4,,,,12,69,127
271360,note_off,,,,,512,0,3,,,,6,64,0
271360,note_on,,,,,0,0,3,,,,6,60,101
271360,note_on,,,,,0,0,6,,,,1,60,114
271360,note_off,,,,,0,0,6,,,,1,57,0
271360,note_on,,,,,0,0,6,,,,1,69,114
271360,note_on,,,,,0,0,2,,,,2,69,114
271360,note_off,,,,,256,0,2,,,,2,71,0
271360,note_off,,,,,256,0,6,,,,1,71,0
271360,note_on,,,,,0,0,6,,,,1,45,114
271872,note_off,,,,,512,0,4,,,,12,69,0
271872,note_on,,,,,0,0,6,,,,1,57,114
271872,note_on,,,,,0,0,5,,,,3,57,127
271872,note_off,,,,,512,0,5,,,,3,45,0
271872,note_off,,,,,512,0,6,,,,1,45,0
272384,note_off,,,,,0,0,6,,,,1,69,0
272384,note_off,,,,,512,0,6,,,,1,60,0
272384,note_on,,,,,0,0,6,,,,1,72,114
272384,note_off,,,,,0,0,6,,,,1,57,0
272384,note_on,,,,,0,0,6,,,,1,45,114
272384,note_on,,,,,0,0,6,,,,1,69,114
272384,note_off,,,,,1024,0,3,,,,6,60,0
272384,note_on,,,,,0,0,5,,,,3,45,127
272384,note_off,,,,,512,0,5,,,,3,57,0
272384,note_off,,,,,1024,0,2,,,,2,69,0
272384,note_on,,,,,0,0,2,,,,2,72,114
272384,note_on,,,,,0,0,3,,,,6,69,101
272384,note_on,,,,,512,0,4,,,,12,72,127
272640,note_off,,,,,256,0,2,,,,2,72,0
272640,note_on,,,,,0,0,2,,,,2,74,114
272640,note_on,,,,,0,0,6,,,,1,71,114
272640,note_on,,,,,0,0,4,,,,12,74,127
272640,note_on,,,,,0,0,6,,,,1,74,114
272640,note_off,,,,,256,0,6,,,,1,69,0
272640,note_on,,,,,0,0,3,,,,6,71,101
272640,note_off,,,,,256,0,3,,,,6,69,0
272640,note_off,,,,,0,0,6,,,,1,72,0
272640,note_off,,,,,256,0,4,,,,12,72,0
272896,note_off,,,,,256,0,6,,,,1,71,0
272896,note_on,,,,,0,0,3,,,,6,72,101
272896,note_off,,,,,256,0,3,,,,6,71,0
272896,note_off,,,,,0,0,6,,,,1,74,0
272896,note_off,,,,,512,0,5,,,,3,45,0
272896,note_off,,,,,256,0,2,,,,2,74,0
272896,note_on,,,,,0,0,6,,,,1,72,114
272896,note_on,,,,,0,0,6,,,,1,76,114
272896,note_off,,,,,0,0,6,,,,1,45,0
272896,note_on,,,,,0,0,6,,,,1,57,114
272896,note_on,,,,,0,0,4,,,,12,76,127
272896,note_off,,,,,256,0,4,,,,12,74,0
272896,note_on,,,,,0,0,2,,,,2,76,114
272896,note_on,,,,,0,0,5,,,,3,57,127
273152,note_on,,,,,0,0,6,,,,1,74,114
273152,note_off,,,,,256,0,6,,,,1,72,0
273152,note_off,,,,,0,0,6,,,,1,76,0
273152,note_on,,,,,0,0,6,,,,1,71,114
273152,note_on,,,,,0,0,2,,,,2,74,114
273152,note_off,,,,,256,0,4,,,,12,76,0
273152,note_on,,,,,0,0,3,,,,6,71,101
273152,note_off,,,,,256,0,3,,,,6,72,0
273152,note_on,,,,,0,0,4,,,,12,74,127
273152,note_off,,,,,256,0,2,,,,2,76,0
273408,note_on,,,,,0,0,3,,,,6,69,101
273408,note_off,,,,,256,0,3,,,,6,71,0
273408,note_off,,,,,512,0,5,,,,3,57,0
273408,note_on,,,,,0,0,5,,,,3,45,127
273408,note_on,,,,,0,0,4,,,,12,72,127
273408,note_off,,,,,256,0,4,,,,12,74,0
273408,note_off,,,,,256,0,6,,,,1,71,0
273408,note_off,,,,,256,0,2,,,,2,74,0
273408,note_on,,,,,0,0,6,,,,1,69,114
273408,note_on,,,,,0,0,6,,,,1,72,114
273408,note_off,,,,,0,0,6,,,,1,57,0
273408,note_on,,,,,0,0,6,,,,1,45,114
273408,note_on,,,,,0,0,2,,,,2,72,114
273408,note_off,,,,,0,0,6,,,,1,74,0
273920,note_off,,,,,512,0,5,,,,3,45,0
273920,note_off,,,,,512,0,4,,,,12,72,0
273920,note_on,,,,,0,0,5,,,,3,57,127
273920,note_off,,,,,512,0,6,,,,1,45,0
273920,note_on,,,,,0,0,6,,,,1,57,114
274432,note_off,,,,,0,0,6,,,,1,57,0
274432,note_on,,,,,0,0,6,,,,1,45,114
274432,note_off,,,,,512,0,6,,,,1,69,0
274432,note_on,,,,,512,0,4,,,,12,81,127
274432,note_off,,,,,0,0,6,,,,1,72,0
274432,note_on,,,,,0,0,6,,,,1,72,114
274432,note_on,,,,,0,0,6,,,,1,81,114
274432,note_off,,,,,512,0,5,,,,3,57,0
274432,note_off,,,,,1024,0,2,,,,2,72,0
274432,note_on,,,,,0,0,2,,,,2,81,114
274432,note_on,,,,,0,0,3,,,,6,72,101
274432,note_on,,,,,0,0,5,,,,3,45,127
274432,note_off,,,,,1024,0,3,,,,6,69,0
274688,note_off,,,,,256,0,3,,,,6,72,0
274688,note_off,,,,,256,0,6,,,,1,72,0
274688,note_off,,,,,0,0,6,,,,1,81,0
274688,note_on,,,,,0,0,6,,,,1,74,114
274688,note_on,,,,,0,0,3,,,,6,74,101
274944,note_off,,,,,256,0,6,,,,1,74,0
274944,note_on,,,,,0,0,6,,,,1,76,114
274944,note_off,,,,,0,0,6,,,,1,45,0
274944,note_on,,,,,0,0,6,,,,1,57,114
274944,note_off,,,,,256,0,3,,,,6,74,0
274944,note_on,,,,,0,0,4,,,,12,72,127
274944,note_off,,,,,512,0,4,,,,12,81,0
274944,note_on,,,,,0,0,3,,,,6,72,101
274944,note_off,,,,,512,0,2,,,,2,81,0
274944,note_off,,,,,512,0,5,,,,3,45,0
274944,note_on,,,,,0,0,5,,,,3,57,127
274944,note_on,,,,,0,0,2,,,,2,76,114
274944,note_on,,,,,0,0,6,,,,1,72,114
275200,note_off,,,,,256,0,2,,,,2,76,0
275200,note_on,,,,,0,0,2,,,,2,74,114
275200,note_off,,,,,256,0,3,,,,6,72,0
275200,note_on,,,,,0,0,6,,,,1,74,114
275200,note_on,,,,,0,0,6,,,,1,71,114
275200,note_on,,,,,0,0,3,,,,6,71,101
275200,note_off,,,,,0,0,6,,,,1,76,0
275200,note_off,,,,,256,0,6,,,,1,72,0
275456,note_on,,,,,0,0,6,,,,1,72,114
275456,note_off,,,,,0,0,6,,,,1,57,0
275456,note_on,,,,,0,0,6,,,,1,45,114
275456,note_off,,,,,0,0,6,,,,1,74,0
275456,note_on,,,,,0,0,6,,,,1,69,114
275456,note_off,,,,,256,0,6,,,,1,71,0
275456,note_off,,,,,512,0,4,,,,12,72,0
275456,note_on,,,,,0,0,4,,,,12,69,127
275456,note_off,,,,,256,0,2,,,,2,74,0
275456,note_on,,,,,0,0,2,,,,2,72,114
275456,note_off,,,,,512,0,5,,,,3,57,0
275456,note_off,,,,,256,0,3,,,,6,71,0
275456,note_on,,,,,0,0,3,,,,6,69,101
275456,note_on,,,,,0,0,5,,,,3,45,127
275968,note_off,,,,,512,0,3,,,,6,69,0
275968,note_on,,,,,0,0,6,,,,1,57,114
275968,note_off,,,,,0,0,6,,,,1,45,0
275968,note_off,,,,,512,0,5,,,,3,45,0
275968,note_on,,,,,0,0,5,,,,3,57,127
275968,note_on,,,,,0,0,2,,,,2,81,114
275968,note_off,,,,,512,0,2,,,,2,72,0
275968,note_on,,,,,0,0,4,,,,12,81,127
275968,note_off,,,,,512,0,4,,,,12,69,0
275968,note_off,,,,,512,0,6,,,,1,69,0
275968,note_off,,,,,0,0,6,,,,1,72,0
275968,note_on,,,,,0,0,6,,,,1,72,114
275968,note_on,,,,,0,0,3,,,,6,72,101
275968,note_on,,,,,0,0,6,,,,1,81,114
276480,note_off,,,,,512,0,3,,,,6,72,0
276480,note_on,,,,,0,0,3,,,,6,76,101
276480,note_off,,,,,512,0,4,,,,12,81,0
276480,note_on,,,,,0,0,6,,,,1,40,114
276480,note_on,,,,,0,0,4,,,,12,80,127
276480,note_on,,,,,0,0,6,,,,1,80,114
276480,note_on,,,,,0,0,6,,,,1,76,114
276480,note_off,,,,,0,0,6,,,,1,81,0
276480,note_off,,,,,512,0,6,,,,1,72,0
276480,note_off,,,,,0,0,6,,,,1,57,0
276480,note_off,,,,,512,0,5,,,,3,57,0
276480,note_on,,,,,0,0,5,,,,3,40,127
276480,note_off,,,,,512,0,2,,,,2,81,0
276480,note_on,,,,,0,0,2,,,,2,80,114
276608,note_on,,,,,0,0,6,,,,1,78,114
276608,note_on,,,,,0,0,6,,,,1,81,114
276608,note_off,,,,,128,0,2,,,,2,80,0
276608,note_on,,,,,0,0,2,,,,2,81,114
276608,note_off,,,,,0,0,6,,,,1,80,0
276608,note_off,,,,,128,0,4,,,,12,80,0
276608,note_off,,,,,128,0,6,,,,1,76,0
276608,note_off,,,,,128,0,3,,,,6,76,0
276608,note_on,,,,,0,0,3,,,,6,78,101
276608,note_on,,,,,0,0,4,,,,12,81,127
276736,note_on,,,,,0,0,2,,,,2,83,114
276736,note_off,,,,,128,0,3,,,,6,78,0
276736,note_on,,,,,0,0,3,,,,6,80,101
276736,note_off,,,,,128,0,2,,,,2,81,0
276736,note_off,,,,,128,0,6,,,,1,78,0
276736,note_off,,,,,0,0,6,,,,1,81,0
276736,note_on,,,,,0,0,6,,,,1,80,114
276736,note_on,,,,,0,0,6,,,,1,83,114
276736,note_off,,,,,128,0,4,,,,12,81,0
276736,note_on,,,,,0,0,4,,,,12,83,127
276992,note_on,,,,,0,0,5,,,,3,52,127
276992,note_on,,,,,0,0,6,,,,1,52,114
276992,note_off,,,,,512,0,5,,,,3,40,0
276992,note_off,,,,,256,0,6,,,,1,40,0
277504,note_on,,,,,0,0,6,,,,1,71,114
277504,note_on,,,,,0,0,3,,,,6,71,101
277504,note_off,,,,,512,0,6,,,,1,80,0
277504,note_off,,,,,768,0,3,,,,6,80,0
277504,note_off,,,,,0,0,6,,,,1,52,0
277504,note_on,,,,,0,0,6,,,,1,74,114
277504,note_off,,,,,0,0,6,,,,1,83,0
277504,note_on,,,,,0,0,6,,,,1,40,114
277504,note_off,,,,,768,0,2,,,,2,83,0
277504,note_on,,,,,0,0,2,,,,2,74,114
277504,note_on,,,,,0,0,5,,,,3,40,127
277504,note_off,,,,,512,0,5,,,,3,52,0
277504,note_on,,,,,0,0,4,,,,12,74,127
277504,note_off,,,,,768,0,4,,,,12,83,0
277632,note_on,,,,,0,0,4,,,,12,76,127
277632,note_off,,,,,128,0,6,,,,1,71,0
277632,note_off,,,,,128,0,2,,,,2,74,0
277632,note_off,,,,,128,0,4,,,,12,74,0
277632,note_off,,,,,0,0,6,,,,1,74,0
277632,note_on,,,,,0,0,6,,,,1,72,114
277632,note_on,,,,,0,0,6,,,,1,76,114
277632,note_on,,,,,0,0,2,,,,2,76,114
277632,note_off,,,,,128,0,3,,,,6,71,0
277632,note_on,,,,,0,0,3,,,,6,72,101
277760,note_on,,,,,0,0,4,,,,12,77,127
277760,note_off,,,,,128,0,2,,,,2,76,0
277760,note_off,,,,,128,0,4,,,,12,76,0
277760,note_on,,,,,0,0,6,,,,1,77,114
277760,note_on,,,,,0,0,6,,,,1,74,114
277760,note_off,,,,,0,0,6,,,,1,76,0
277760,note_off,,,,,128,0,6,,,,1,72,0
277760,note_on,,,,,0,0,3,,,,6,74,101
277760,note_on,,,,,0,0,2,,,,2,77,114
277760,note_off,,,,,128,0,3,,,,6,72,0
278016,note_off,,,,,256,0,6,,,,1,40,0
278016,note_off,,,,,512,0,5,,,,3,40,0
278016,note_on,,,,,0,0,5,,,,3,52,127
278016,note_on,,,,,0,0,6,,,,1,52,114
278528,note_on,,,,,0,0,6,,,,1,68,114
278528,note_on,,,,,0,0,6,,,,1,40,114
278528,note_on,,,,,0,0,6,,,,1,71,114
278528,note_off,,,,,0,0,6,,,,1,52,0
278528,note_off,,,,,0,0,6,,,,1,77,0
278528,note_off,,,,,512,0,6,,,,1,74,0
278528,note_off,,,,,768,0,3,,,,6,74,0
278528,note_off,,,,,512,0,5,,,,3,52,0
278528,note_on,,,,,0,0,3,,,,6,68,101
278528,note_on,,,,,0,0,5,,,,3,40,127
278528,note_off,,,,,768,0,4,,,,12,77,0
278528,note_on,,,,,0,0,4,,,,12,71,127
278528,note_off,,,,,768,0,2,,,,2,77,0
278528,note_on,,,,,0,0,2,,,,2,71,114
278656,note_on,,,,,0,0,6,,,,1,69,114
278656,note_on,,,,,0,0,4,,,,12,72,127
278656,note_off,,,,,128,0,3,,,,6,68,0
278656,note_on,,,,,0,0,3,,,,6,69,101
278656,note_on,,,,,0,0,6,,,,1,72,114
278656,note_off,,,,,128,0,6,,,,1,68,0
278656,note_off,,,,,0,0,6,,,,1,71,0
278656,note_off,,,,,128,0,2,,,,2,71,0
278656,note_off,,,,,128,0,4,,,,12,71,0
278656,note_on,,,,,0,0,2,,,,2,72,114
278784,note_off,,,,,128,0,2,,,,2,72,0
278784,note_on,,,,,0,0,2,,,,2,74,114
278784,note_off,,,,,128,0,4,,,,12,72,0
278784,note_on,,,,,0,0,6,,,,1,74,114
278784,note_on,,,,,0,0,6,,,,1,71,114
278784,note_off,,,,,0,0,6,,,,1,72,0
278784,note_on,,,,,0,0,3,,,,6,71,101
278784,note_off,,,,,128,0,3,,,,6,69,0
278784,note_off,,,,,128,0,6,,,,1,69,0
278784,note_on,,,,,0,0,4,,,,12,74,127
279040,note_off,,,,,256,0,6,,,,1,40,0
279040,note_on,,,,,0,0,5,,,,3,52,127
279040,note_on,,,,,0,0,6,,,,1,52,114
279040,note_off,,,,,512,0,5,,,,3,40,0
279552,note_on,,,,,0,0,4,,,,12,68,127
279552,note_on,,,,,0,0,6,,,,1,64,114
279552,note_on,,,,,0,0,6,,,,1,68,114
279552,note_off,,,,,0,0,6,,,,1,52,0
279552,note_on,,,,,0,0,6,,,,1,40,114
279552,note_off,,,,,768,0,2,,,,2,74,0
279552,note_off,,,,,768,0,4,,,,12,74,0
279552,note_off,,,,,512,0,6,,,,1,71,0
279552,note_on,,,,,0,0,2,,,,2,68,114
279552,note_off,,,,,0,0,6,,,,1,74,0
279552,note_off,,,,,768,0,3,,,,6,71,0
279552,note_off,,,,,512,0,5,,,,3,52,0
279552,note_on,,,,,0,0,3,,,,6,64,101
279552,note_on,,,,,0,0,5,,,,3,40,127
279680,note_off,,,,,128,0,2,,,,2,68,0
279680,note_off,,,,,128,0,6,,,,1,64,0
279680,note_off,,,,,0,0,6,,,,1,68,0
279680,note_on,,,,,0,0,6,,,,1,66,114
279680,note_on,,,,,0,0,6,,,,1,69,114
279680,note_off,,,,,128,0,3,,,,6,64,0
279680,note_off,,,,,128,0,4,,,,12,68,0
279680,note_on,,,,,0,0,4,,,,12,69,127
279680,note_on,,,,,0,0,3,,,,6,66,101
279680,note_on,,,,,0,0,2,,,,2,69,114
279808,note_on,,,,,0,0,6,,,,1,68,114
279808,note_off,,,,,0,0,6,,,,1,69,0
279808,note_off,,,,,128,0,6,,,,1,66,0
279808,note_off,,,,,128,0,4,,,,12,69,0
279808,note_on,,,,,0,0,3,,,,6,68,101
279808,note_off,,,,,128,0,3,,,,6,66,0
279808,note_on,,,,,0,0,2,,,,2,71,114
279808,note_off,,,,,128,0,2,,,,2,69,0
279808,note_on,,,,,0,0,4,,,,12,71,127
279808,note_on,,,,,0,0,6,,,,1,71,114
280064,note_off,,,,,512,0,5,,,,3,40,0
280064,note_on,,,,,0,0,6,,,,1,52,114
280064,note_on,,,,,0,0,5,,,,3,52,127
280064,note_off,,,,,256,0,6,,,,1,40,0
280576,note_on,,,,,0,0,2,,,,2,72,114
280576,note_off,,,,,768,0,2,,,,2,71,0
280576,note_on,,,,,0,0,4,,,,12,72,127
280576,note_off,,,,,768,0,4,,,,12,71,0
280576,note_off,,,,,512,0,6,,,,1,68,0
280576,note_off,,,,,0,0,6,,,,1,71,0
280576,note_off,,,,,768,0,3,,,,6,68,0
280576,note_on,,,,,0,0,6,,,,1,57,114
280576,note_off,,,,,512,0,5,,,,3,52,0
280576,note_on,,,,,0,0,5,,,,3,57,127
280576,note_on,,,,,0,0,3,,,,6,64,101
280576,note_off,,,,,0,0,6,,,,1,52,0
280576,note_on,,,,,0,0,6,,,,1,72,114
280576,note_on,,,,,0,0,6,,,,1,64,114
280832,note_on,,,,,0,0,5,,,,3,59,127
280832,note_off,,,,,256,0,6,,,,1,57,0
280832,note_on,,,,,0,0,6,,,,1,59,114
280832,note_off,,,,,256,0,5,,,,3,57,0
281088,note_off,,,,,512,0,4,,,,12,72,0
281088,note_off,,,,,256,0,6,,,,1,64,0
281088,note_off,,,,,0,0,6,,,,1,72,0
281088,note_on,,,,,0,0,6,,,,1,69,114
281088,note_on,,,,,0,0,6,,,,1,76,114
281088,note_off,,,,,0,0,6,,,,1,59,0
281088,note_on,,,,,0,0,6,,,,1,60,114
281088,note_on,,,,,0,0,4,,,,12,76,127
281088,note_off,,,,,512,0,2,,,,2,72,0
281088,note_on,,,,,0,0,3,,,,6,69,101
281088,note_off,,,,,512,0,3,,,,6,64,0
281088,note_off,,,,,256,0,5,,,,3,59,0
281088,note_on,,,,,0,0,5,,,,3,60,127
281088,note_on,,,,,0,0,2,,,,2,76,114
281344,note_on,,,,,0,0,6,,,,1,59,114
281344,note_off,,,,,256,0,6,,,,1,60,0
281344,note_off,,,,,256,0,5,,,,3,60,0
281344,note_on,,,,,0,0,5,,,,3,59,127
281600,note_on,,,,,0,0,4,,,,12,81,127
281600,note_on,,,,,0,0,3,,,,6,72,101
281600,note_off,,,,,512,0,3,,,,6,69,0
281600,note_off,,,,,256,0,5,,,,3,59,0
281600,note_on,,,,,0,0,5,,,,3,57,127
281600,note_off,,,,,0,0,6,,,,1,76,0
281600,note_off,,,,,0,0,6,,,,1,59,0
281600,note_on,,,,,0,0,2,,,,2,81,114
281600,note_off,,,,,512,0,4,,,,12,76,0
281600,note_on,,,,,0,0,6,,,,1,81,114
281600,note_off,,,,,512,0,2,,,,2,76,0
281600,note_off,,,,,256,0,6,,,,1,69,0
281600,note_on,,,,,0,0,6,,,,1,72,114
281600,note_on,,,,,0,0,6,,,,1,57,114
282112,note_off,,,,,0,0,6,,,,1,81,0
282112,note_off,,,,,512,0,6,,,,1,72,0
282112,note_off,,,,,512,0,2,,,,2,81,0
282112,note_on,,,,,0,0,6,,,,1,76,114
282112,note_on,,,,,0,0,6,,,,1,72,114
282112,note_off,,,,,512,0,3,,,,6,72,0
282112,note_on,,,,,0,0,3,,,,6,69,101
282112,note_on,,,,,0,0,6,,,,1,69,114
282112,note_on,,,,,0,0,2,,,,2,76,114
282624,note_off,,,,,0,0,6,,,,1,76,0
282624,note_off,,,,,512,0,3,,,,6,69,0
282624,note_on,,,,,0,0,3,,,,6,76,101
282624,note_on,,,,,0,0,2,,,,2,81,114
282624,note_off,,,,,1024,0,5,,,,3,57,0
282624,note_on,,,,,0,0,5,,,,3,45,127
282624,note_off,,,,,0,0,6,,,,1,57,0
282624,note_off,,,,,1024,0,4,,,,12,81,0
282624,note_off,,,,,512,0,6,,,,1,69,0
282624,note_on,,,,,0,0,6,,,,1,45,114
282624,note_on,,,,,0,0,6,,,,1,81,114
282624,note_on,,,,,0,0,6,,,,1,76,114
282624,note_on,,,,,0,0,6,,,,1,72,114
282624,note_off,,,,,512,0,2,,,,2,76,0
282624,note_off,,,,,0,0,6,,,,1,72,0
282880,note_off,,,,,256,0,5,,,,3,45,0
282880,note_on,,,,,0,0,5,,,,3,47,127
282880,note_on,,,,,0,0,6,,,,1,47,114
282880,note_off,,,,,256,0,6,,,,1,45,0
283136,note_off,,,,,256,0,5,,,,3,47,0
283136,note_on,,,,,0,0,5,,,,3,48,127
283136,note_off,,,,,256,0,6,,,,1,72,0
283136,note_on,,,,,512,0,4,,,,12,76,127
283136,note_on,,,,,0,0,6,,,,1,48,114
283136,note_off,,,,,0,0,6,,,,1,47,0
283136,note_on,,,,,0,0,6,,,,1,69,114
283136,note_off,,,,,0,0,6,,,,1,81,0
283136,note_off,,,,,0,0,6,,,,1,76,0
283136,note_on,,,,,0,0,6,,,,1,76,114
283136,note_off,,,,,512,0,2,,,,2,81,0
283136,note_off,,,,,512,0,3,,,,6,76,0
283136,note_on,,,,,0,0,3,,,,6,69,101
283136,note_on,,,,,0,0,2,,,,2,76,114
283392,note_on,,,,,0,0,6,,,,1,47,114
283392,note_on,,,,,0,0,5,,,,3,47,127
283392,note_off,,,,,256,0,5,,,,3,48,0
283392,note_off,,,,,256,0,6,,,,1,48,0
283648,note_on,,,,,0,0,2,,,,2,81,114
283648,note_off,,,,,512,0,2,,,,2,76,0
283648,note_on,,,,,0,0,6,,,,1,45,114
283648,note_on,,,,,0,0,6,,,,1,81,114
283648,note_on,,,,,0,0,6,,,,1,72,114
283648,note_off,,,,,512,0,3,,,,6,69,0
283648,note_off,,,,,0,0,6,,,,1,76,0
283648,note_off,,,,,0,0,6,,,,1,47,0
283648,note_off,,,,,256,0,5,,,,3,47,0
283648,note_off,,,,,512,0,4,,,,12,76,0
283648,note_on,,,,,0,0,4,,,,12,81,127
283648,note_off,,,,,256,0,6,,,,1,69,0
283648,note_on,,,,,0,0,3,,,,6,72,101
283648,note_on,,,,,0,0,5,,,,3,45,127
284160,note_off,,,,,0,0,6,,,,1,81,0
284160,note_off,,,,,512,0,3,,,,6,72,0
284160,note_off,,,,,512,0,4,,,,12,81,0
284160,note_on,,,,,0,0,3,,,,6,72,101
284160,note_off,,,,,512,0,6,,,,1,72,0
284160,note_on,,,,,0,0,2,,,,2,76,114
284160,note_off,,,,,512,0,2,,,,2,81,0
284160,note_on,,,,,0,0,6,,,,1,76,114
284160,note_on,,,,,0,0,6,,,,1,72,114
284160,note_on,,,,,0,0,6,,,,1,69,114
284160,note_on,,,,,0,0,4,,,,12,76,127
284672,note_off,,,,,1024,0,5,,,,3,45,0
284672,note_on,,,,,0,0,5,,,,3,62,127
284672,note_off,,,,,512,0,2,,,,2,76,0
284672,note_off,,,,,0,0,6,,,,1,72,0
284672,note_on,,,,,0,0,6,,,,1,62,114
284672,note_off,,,,,0,0,6,,,,1,45,0
284672,note_on,,,,,0,0,6,,,,1,77,114
284672,note_on,,,,,0,0,6,,,,1,74,114
284672,note_off,,,,,0,0,6,,,,1,76,0
284672,note_off,,,,,512,0,6,,,,1,69,0
284672,note_on,,,,,0,0,2,,,,2,77,114
284672,note_off,,,,,512,0,3,,,,6,72,0
284672,note_on,,,,,0,0,3,,,,6,74,101
284672,note_off,,,,,512,0,4,,,,12,76,0
284672,note_on,,,,,0,0,4,,,,12,77,127
284928,note_on,,,,,0,0,6,,,,1,76,114
284928,note_on,,,,,0,0,2,,,,2,79,114
284928,note_off,,,,,256,0,2,,,,2,77,0
284928,note_off,,,,,0,0,6,,,,1,77,0
284928,note_on,,,,,0,0,4,,,,12,79,127
284928,note_on,,,,,0,0,6,,,,1,79,114
284928,note_off,,,,,256,0,3,,,,6,74,0
284928,note_on,,,,,0,0,3,,,,6,76,101
284928,note_off,,,,,256,0,6,,,,1,74,0
284928,note_off,,,,,256,0,4,,,,12,77,0
285184,note_off,,,,,256,0,4,,,,12,79,0
285184,note_on,,,,,0,0,5,,,,3,62,127
285184,note_off,,,,,512,0,5,,,,3,62,0
285184,note_off,,,,,256,0,3,,,,6,76,0
285184,note_on,,,,,0,0,3,,,,6,74,101
285184,note_off,,,,,256,0,2,,,,2,79,0
285184,note_on,,,,,0,0,2,,,,2,77,114
285184,note_on,,,,,0,0,6,,,,1,62,114
285184,note_on,,,,,0,0,6,,,,1,77,114
285184,note_on,,,,,0,0,6,,,,1,74,114
285184,note_off,,,,,0,0,6,,,,1,79,0
285184,note_off,,,,,256,0,6,,,,1,76,0
285184,note_on,,,,,0,0,4,,,,12,77,127
285184,note_off,,,,,0,0,6,,,,1,62,0
285440,note_on,,,,,0,0,6,,,,1,79,114
285440,note_off,,,,,256,0,2,,,,2,77,0
285440,note_on,,,,,0,0,2,,,,2,79,114
285440,note_on,,,,,0,0,6,,,,1,76,114
285440,note_on,,,,,0,0,3,,,,6,76,101
285440,note_off,,,,,256,0,6,,,,1,74,0
285440,note_off,,,,,256,0,3,,,,6,74,0
285440,note_on,,,,,0,0,4,,,,12,79,127
285440,note_off,,,,,256,0,4,,,,12,77,0
285440,note_off,,,,,0,0,6,,,,1,77,0
285696,note_on,,,,,0,0,6,,,,1,59,114
285696,note_on,,,,,0,0,4,,,,12,77,127
285696,note_off,,,,,256,0,6,,,,1,76,0
285696,note_off,,,,,0,0,6,,,,1,79,0
285696,note_on,,,,,0,0,6,,,,1,74,114
285696,note_on,,,,,0,0,6,,,,1,77,114
285696,note_off,,,,,0,0,6,,,,1,62,0
285696,note_on,,,,,0,0,6,,,,1,69,114
285696,note_on,,,,,0,0,2,,,,2,77,114
285696,note_off,,,,,256,0,3,,,,6,76,0
285696,note_on,,,,,0,0,3,,,,6,74,101
285696,note_off,,,,,512,0,5,,,,3,62,0
285696,note_on,,,,,0,0,5,,,,3,59,127
285696,note_off,,,,,256,0,2,,,,2,79,0
285696,note_off,,,,,256,0,4,,,,12,79,0
285952,note_on,,,,,0,0,4,,,,12,81,127
285952,note_off,,,,,256,0,3,,,,6,74,0
285952,note_off,,,,,256,0,4,,,,12,77,0
285952,note_on,,,,,0,0,2,,,,2,81,114
285952,note_off,,,,,256,0,6,,,,1,74,0
285952,note_off,,,,,0,0,6,,,,1,77,0
285952,note_on,,,,,0,0,6,,,,1,77,114
285952,note_on,,,,,0,0,6,,,,1,81,114
285952,note_off,,,,,256,0,2,,,,2,77,0
285952,note_on,,,,,0,0,3,,,,6,77,101
286208,note_off,,,,,256,0,2,,,,2,81,0
286208,note_off,,,,,256,0,4,,,,12,81,0
286208,note_on,,,,,0,0,4,,,,12,79,127
286208,note_on,,,,,0,0,3,,,,6,76,101
286208,note_on,,,,,0,0,2,,,,2,79,114
286208,note_off,,,,,0,0,6,,,,1,81,0
286208,note_on,,,,,0,0,6,,,,1,76,114
286208,note_off,,,,,512,0,5,,,,3,59,0
286208,note_on,,,,,0,0,5,,,,3,59,127
286208,note_on,,,,,0,0,6,,,,1,59,114
286208,note_off,,,,,0,0,6,,,,1,69,0
286208,note_off,,,,,0,0,6,,,,1,59,0
286208,note_on,,,,,0,0,6,,,,1,79,114
286208,note_off,,,,,256,0,6,,,,1,77,0
286208,note_off,,,,,256,0,3,,,,6,77,0
286464,note_off,,,,,256,0,3,,,,6,76,0
286464,note_on,,,,,0,0,6,,,,1,74,114
286464,note_off,,,,,0,0,6,,,,1,79,0
286464,note_on,,,,,0,0,3,,,,6,74,101
286464,note_off,,,,,256,0,6,,,,1,76,0
286464,note_on,,,,,0,0,6,,,,1,77,114
286464,note_on,,,,,0,0,4,,,,12,77,127
286464,note_off,,,,,256,0,2,,,,2,79,0
286464,note_on,,,,,0,0,2,,,,2,77,114
286464,note_off,,,,,256,0,4,,,,12,79,0
286720,note_off,,,,,256,0,2,,,,2,77,0
286720,note_on,,,,,0,0,2,,,,2,76,114
286720,note_off,,,,,256,0,3,,,,6,74,0
286720,note_off,,,,,512,0,5,,,,3,59,0
286720,note_on,,,,,0,0,5,,,,3,60,127
286720,note_on,,,,,0,0,6,,,,1,67,114
286720,note_on,,,,,0,0,6,,,,1,60,114
286720,note_on,,,,,0,0,6,,,,1,76,114
286720,note_on,,,,,0,0,6,,,,1,72,114
286720,note_off,,,,,0,0,6,,,,1,59,0
286720,note_off,,,,,0,0,6,,,,1,77,0
286720,note_off,,,,,256,0,6,,,,1,74,0
286720,note_on,,,,,0,0,3,,,,6,72,101
286720,note_off,,,,,256,0,4,,,,12,77,0
286720,note_on,,,,,0,0,4,,,,12,76,127
286976,note_off,,,,,0,0,6,,,,1,76,0
286976,note_off,,,,,256,0,6,,,,1,72,0
286976,note_on,,,,,0,0,2,,,,2,77,114
286976,note_off,,,,,256,0,2,,,,2,76,0
286976,note_on,,,,,0,0,4,,,,12,77,127
286976,note_off,,,,,256,0,4,,,,12,76,0
286976,note_on,,,,,0,0,6,,,,1,74,114
286976,note_off,,,,,256,0,3,,,,6,72,0
286976,note_on,,,,,0,0,3,,,,6,74,101
286976,note_on,,,,,0,0,6,,,,1,77,114
287232,note_off,,,,,0,0,6,,,,1,67,0
287232,note_off,,,,,0,0,6,,,,1,60,0
287232,note_on,,,,,0,0,5,,,,3,60,127
287232,note_on,,,,,0,0,6,,,,1,76,114
287232,note_off,,,,,256,0,4,,,,12,77,0
287232,note_off,,,,,512,0,5,,,,3,60,0
287232,note_off,,,,,256,0,2,,,,2,77,0
287232,note_on,,,,,0,0,2,,,,2,76,114
287232,note_on,,,,,0,0,3,,,,6,72,101
287232,note_off,,,,,256,0,3,,,,6,74,0
287232,note_off,,,,,0,0,6,,,,1,77,0
287232,note_off,,,,,256,0,6,,,,1,74,0
287232,note_on,,,,,0,0,4,,,,12,76,127
287232,note_on,,,,,0,0,6,,,,1,60,114
287232,note_on,,,,,0,0,6,,,,1,72,114
287488,note_off,,,,,256,0,2,,,,2,76,0
287488,note_off,,,,,256,0,3,,,,6,72,0
287488,note_on,,,,,0,0,3,,,,6,74,101
287488,note_off,,,,,256,0,6,,,,1,72,0
287488,note_off,,,,,0,0,6,,,,1,76,0
287488,note_on,,,,,0,0,6,,,,1,74,114
287488,note_on,,,,,0,0,6,,,,1,77,114
287488,note_on,,,,,0,0,2,,,,2,77,114
287488,note_on,,,,,0,0,4,,,,12,77,127
287488,note_off,,,,,256,0,4,,,,12,76,0
287744,note_off,,,,,256,0,2,,,,2,77,0
287744,note_on,,,,,0,0,2,,,,2,76,114
287744,note_off,,,,,256,0,3,,,,6,74,0
287744,note_on,,,,,0,0,3,,,,6,72,101
287744,note_on,,,,,0,0,6,,,,1,65,114
287744,note_on,,,,,0,0,4,,,,12,76,127
287744,note_off,,,,,0,0,6,,,,1,60,0
287744,note_on,,,,,0,0,6,,,,1,76,114
287744,note_on,,,,,0,0,6,,,,1,72,114
287744,note_off,,,,,0,0,6,,,,1,77,0
287744,note_off,,,,,256,0,6,,,,1,74,0
287744,note_on,,,,,0,0,5,,,,3,57,127
287744,note_off,,,,,512,0,5,,,,3,60,0
287744,note_off,,,,,256,0,4,,,,12,77,0
287744,note_on,,,,,0,0,6,,,,1,57,114
288000,note_on,,,,,0,0,3,,,,6,76,101
288000,note_off,,,,,256,0,6,,,,1,72,0
288000,note_off,,,,,0,0,6,,,,1,76,0
288000,note_on,,,,,0,0,6,,,,1,76,114
288000,note_on,,,,,0,0,6,,,,1,79,114
288000,note_off,,,,,256,0,3,,,,6,72,0
288000,note_on,,,,,0,0,2,,,,2,79,114
288000,note_on,,,,,0,0,4,,,,12,79,127
288000,note_off,,,,,256,0,4,,,,12,76,0
288000,note_off,,,,,256,0,2,,,,2,76,0
288256,note_off,,,,,0,0,6,,,,1,65,0
288256,note_off,,,,,256,0,2,,,,2,79,0
288256,note_off,,,,,256,0,4,,,,12,79,0
288256,note_on,,,,,0,0,4,,,,12,77,127
288256,note_off,,,,,512,0,5,,,,3,57,0
288256,note_on,,,,,0,0,5,,,,3,57,127
288256,note_on,,,,,0,0,2,,,,2,77,114
288256,note_on,,,,,0,0,6,,,,1,57,114
288256,note_on,,,,,0,0,6,,,,1,77,114
288256,note_on,,,,,0,0,3,,,,6,74,101
288256,note_off,,,,,256,0,3,,,,6,76,0
288256,note_on,,,,,0,0,6,,,,1,74,114
288256,note_off,,,,,0,0,6,,,,1,79,0
288256,note_off,,,,,256,0,6,,,,1,76,0
288256,note_off,,,,,0,0,6,,,,1,57,0
288512,note_off,,,,,256,0,4,,,,12,77,0
288512,note_on,,,,,0,0,2,,,,2,76,114
288512,note_off,,,,,256,0,6,,,,1,74,0
288512,note_off,,,,,0,0,6,,,,1,77,0
288512,note_on,,,,,0,0,6,,,,1,76,114
288512,note_on,,,,,0,0,3,,,,6,72,101
288512,note_off,,,,,256,0,3,,,,6,74,0
288512,note_on,,,,,0,0,4,,,,12,76,127
288512,note_off,,,,,256,0,2,,,,2,77,0
288512,note_on,,,,,0,0,6,,,,1,72,114
288768,note_on,,,,,0,0,4,,,,12,74,127
288768,note_off,,,,,256,0,6,,,,1,72,0
288768,note_off,,,,,0,0,6,,,,1,76,0
288768,note_on,,,,,0,0,6,,,,1,71,114
288768,note_on,,,,,0,0,6,,,,1,74,114
288768,note_off,,,,,0,0,6,,,,1,57,0
288768,note_on,,,,,0,0,6,,,,1,59,114
288768,note_off,,,,,256,0,4,,,,12,76,0
288768,note_on,,,,,0,0,2,,,,2,74,114
288768,note_on,,,,,0,0,5,,,,3,59,127
288768,note_off,,,,,512,0,5,,,,3,57,0
288768,note_off,,,,,256,0,2,,,,2,76,0
288768,note_off,,,,,256,0,3,,,,6,72,0
288768,note_on,,,,,0,0,3,,,,6,71,101
289024,note_on,,,,,0,0,6,,,,1,76,114
289024,note_on,,,,,0,0,6,,,,1,72,114
289024,note_off,,,,,0,0,6,,,,1,74,0
289024,note_off,,,,,256,0,6,,,,1,71,0
289024,note_off,,,,,256,0,4,,,,12,74,0
289024,note_off,,,,,256,0,3,,,,6,71,0
289024,note_on,,,,,0,0,4,,,,12,76,127
289024,note_off,,,,,256,0,2,,,,2,74,0
289024,note_on,,,,,0,0,2,,,,2,76,114
289024,note_on,,,,,0,0,3,,,,6,72,101
289280,note_off,,,,,256,0,3,,,,6,72,0
289280,note_on,,,,,0,0,6,,,,1,59,114
289280,note_off,,,,,0,0,6,,,,1,59,0
289280,note_on,,,,,0,0,6,,,,1,74,114
289280,note_on,,,,,0,0,6,,,,1,71,114
289280,note_off,,,,,256,0,6,,,,1,72,0
289280,note_off,,,,,0,0,6,,,,1,76,0
289280,note_on,,,,,0,0,2,,,,2,74,114
289280,note_on,,,,,0,0,5,,,,3,59,127
289280,note_off,,,,,512,0,5,,,,3,59,0
289280,note_off,,,,,256,0,2,,,,2,76,0
289280,note_on,,,,,0,0,3,,,,6,71,101
289280,note_on,,,,,0,0,4,,,,12,74,127
289280,note_off,,,,,256,0,4,,,,12,76,0
289536,note_off,,,,,256,0,6,,,,1,71,0
289536,note_off,,,,,0,0,6,,,,1,74,0
289536,note_on,,,,,0,0,6,,,,1,72,114
289536,note_on,,,,,0,0,6,,,,1,76,114
289536,note_off,,,,,256,0,3,,,,6,71,0
289536,note_off,,,,,256,0,4,,,,12,74,0
289536,note_on,,,,,0,0,3,,,,6,72,101
289536,note_on,,,,,0,0,2,,,,2,76,114
289536,note_off,,,,,256,0,2,,,,2,74,0
289536,note_on,,,,,0,0,4,,,,12,76,127
289792,note_off,,,,,256,0,4,,,,12,76,0
289792,note_on,,,,,0,0,4,,,,12,74,127
289792,note_off,,,,,0,0,6,,,,1,76,0
289792,note_on,,,,,0,0,2,,,,2,74,114
289792,note_off,,,,,256,0,2,,,,2,76,0
289792,note_off,,,,,512,0,5,,,,3,59,0
289792,note_on,,,,,0,0,5,,,,3,56,127
289792,note_on,,,,,0,0,6,,,,1,64,114
289792,note_on,,,,,0,0,6,,,,1,56,114
289792,note_off,,,,,0,0,6,,,,1,59,0
289792,note_off,,,,,256,0,6,,,,1,72,0
289792,note_on,,,,,0,0,6,,,,1,71,114
289792,note_off,,,,,256,0,3,,,,6,72,0
289792,note_on,,,,,0,0,3,,,,6,71,101
289792,note_on,,,,,0,0,6,,,,1,74,114
290048,note_off,,,,,256,0,3,,,,6,71,0
290048,note_on,,,,,0,0,2,,,,2,77,114
290048,note_off,,,,,256,0,2,,,,2,74,0
290048,note_on,,,,,0,0,3,,,,6,74,101
290048,note_off,,,,,256,0,4,,,,12,74,0
290048,note_on,,,,,0,0,4,,,,12,77,127
290048,note_on,,,,,0,0,6,,,,1,77,114
290048,note_on,,,,,0,0,6,,,,1,74,114
290048,note_off,,,,,0,0,6,,,,1,74,0
290048,note_off,,,,,256,0,6,,,,1,71,0
290304,note_off,,,,,256,0,3,,,,6,74,0
290304,note_off,,,,,256,0,2,,,,2,77,0
290304,note_on,,,,,0,0,2,,,,2,76,114
290304,note_off,,,,,512,0,5,,,,3,56,0
290304,note_on,,,,,0,0,5,,,,3,56,127
290304,note_on,,,,,0,0,3,,,,6,72,101
290304,note_on,,,,,0,0,4,,,,12,76,127
290304,note_off,,,,,256,0,6,,,,1,74,0
290304,note_off,,,,,0,0,6,,,,1,77,0
290304,note_on,,,,,0,0,6,,,,1,72,114
290304,note_on,,,,,0,0,6,,,,1,76,114
290304,note_off,,,,,0,0,6,,,,1,56,0
290304,note_off,,,,,0,0,6,,,,1,64,0
290304,note_on,,,,,0,0,6,,,,1,56,114
290304,note_off,,,,,256,0,4,,,,12,77,0
290560,note_on,,,,,0,0,6,,,,1,74,114
290560,note_off,,,,,256,0,3,,,,6,72,0
290560,note_off,,,,,256,0,6,,,,1,72,0
290560,note_off,,,,,0,0,6,,,,1,76,0
290560,note_on,,,,,0,0,2,,,,2,74,114
290560,note_on,,,,,0,0,6,,,,1,71,114
290560,note_on,,,,,0,0,4,,,,12,74,127
290560,note_off,,,,,256,0,4,,,,12,76,0
290560,note_off,,,,,256,0,2,,,,2,76,0
290560,note_on,,,,,0,0,3,,,,6,71,101
290816,note_off,,,,,256,0,2,,,,2,74,0
290816,note_on,,,,,0,0,2,,,,2,72,114
290816,note_on,,,,,0,0,4,,,,12,72,127
290816,note_off,,,,,256,0,4,,,,12,74,0
290816,note_on,,,,,0,0,5,,,,3,57,127
290816,note_off,,,,,512,0,5,,,,3,56,0
290816,note_off,,,,,256,0,6,,,,1,71,0
290816,note_off,,,,,0,0,6,,,,1,74,0
290816,note_off,,,,,0,0,6,,,,1,56,0
290816,note_on,,,,,0,0,6,,,,1,69,114
290816,note_on,,,,,0,0,6,,,,1,72,114
290816,note_on,,,,,0,0,3,,,,6,69,101
290816,note_on,,,,,0,0,6,,,,1,57,114
290816,note_on,,,,,0,0,6,,,,1,64,114
290816,note_off,,,,,256,0,3,,,,6,71,0
291328,note_on,,,,,0,0,3,,,,6,69,101
291328,note_off,,,,,512,0,3,,,,6,69,0
291328,note_off,,,,,512,0,6,,,,1,69,0
291328,note_off,,,,,512,0,4,,,,12,72,0
291328,note_on,,,,,0,0,4,,,,12,69,127
291328,note_off,,,,,0,0,6,,,,1,72,0
291328,note_on,,,,,0,0,6,,,,1,57,114
291328,note_off,,,,,512,0,5,,,,3,57,0
291328,note_on,,,,,0,0,5,,,,3,57,127
291328,note_on,,,,,0,0,2,,,,2,69,114
291328,note_off,,,,,512,0,2,,,,2,72,0
291328,note_on,,,,,0,0,6,,,,1,69,114
291328,note_off,,,,,0,0,6,,,,1,57,0
291328,note_off,,,,,0,0,6,,,,1,64,0
291840,note_on,,,,,0,0,5,,,,3,60,127
291840,note_on,,,,,0,0,6,,,,1,60,114
291840,note_off,,,,,512,0,2,,,,2,69,0
291840,note_on,,,,,0,0,6,,,,1,72,114
291840,note_on,,,,,0,0,2,,,,2,72,114
291840,note_off,,,,,512,0,4,,,,12,69,0
291840,note_on,,,,,0,0,4,,,,12,72,127
291840,note_off,,,,,0,0,6,,,,1,57,0
291840,note_off,,,,,512,0,6,,,,1,69,0
291840,note_off,,,,,512,0,5,,,,3,57,0
291840,note_off,,,,,512,0,3,,,,6,69,0
291840,note_on,,,,,0,0,3,,,,6,72,101
292352,note_off,,,,,512,0,2,,,,2,72,0
292352,note_on,,,,,0,0,4,,,,12,71,127
292352,note_off,,,,,512,0,4,,,,12,72,0
292352,note_on,,,,,0,0,2,,,,2,71,114
292352,note_off,,,,,512,0,6,,,,1,72,0
292352,note_on,,,,,0,0,5,,,,3,59,127
292352,note_off,,,,,0,0,6,,,,1,60,0
292352,note_on,,,,,0,0,6,,,,1,59,114
292352,note_on,,,,,0,0,6,,,,1,71,114
292352,note_off,,,,,512,0,5,,,,3,60,0
292352,note_off,,,,,512,0,3,,,,6,72,0
292352,note_on,,,,,0,0,3,,,,6,71,101
292608,note_off,,,,,256,0,5,,,,3,59,0
292608,note_on,,,,,0,0,5,,,,3,57,127
292608,note_on,,,,,0,0,4,,,,12,69,127
292608,note_off,,,,,256,0,4,,,,12,71,0
292608,note_on,,,,,0,0,6,,,,1,69,114
292608,note_off,,,,,256,0,6,,,,1,71,0
292608,note_on,,,,,0,0,2,,,,2,69,114
292608,note_on,,,,,0,0,3,,,,6,69,101
292608,note_on,,,,,0,0,6,,,,1,57,114
292608,note_off,,,,,0,0,6,,,,1,59,0
292608,note_off,,,,,256,0,2,,,,2,71,0
292608,note_off,,,,,256,0,3,,,,6,71,0
292864,note_on,,,,,0,0,5,,,,3,64,127
292864,note_off,,,,,256,0,6,,,,1,69,0
292864,note_off,,,,,256,0,5,,,,3,57,0
292864,note_on,,,,,0,0,6,,,,1,76,114
292864,note_off,,,,,0,0,6,,,,1,57,0
292864,note_off,,,,,256,0,3,,,,6,69,0
292864,note_on,,,,,0,0,4,,,,12,76,127
292864,note_off,,,,,256,0,4,,,,12,69,0
292864,note_off,,,,,256,0,2,,,,2,69,0
292864,note_on,,,,,0,0,3,,,,6,76,101
292864,note_on,,,,,0,0,2,,,,2,76,114
292864,note_on,,,,,0,0,6,,,,1,64,114
293376,note_off,,,,,512,0,3,,,,6,76,0
293376,note_on,,,,,0,0,3,,,,6,64,101
293376,note_on,,,,,0,0,2,,,,2,64,114
293376,note_off,,,,,512,0,2,,,,2,76,0
293376,note_off,,,,,512,0,6,,,,1,76,0
293376,note_on,,,,,0,0,6,,,,1,64,114
293376,note_on,,,,,0,0,4,,,,12,64,127
293376,note_on,,,,,0,0,5,,,,3,52,127
293376,note_off,,,,,512,0,5,,,,3,64,0
293376,note_off,,,,,512,0,4,,,,12,76,0
293376,note_on,,,,,0,0,6,,,,1,52,114
293376,note_off,,,,,0,0,6,,,,1,64,0
293888,note_off,,,,,512,0,6,,,,1,64,0
293888,note_on,,,,,0,0,6,,,,1,68,114
293888,note_off,,,,,0,0,6,,,,1,52,0
293888,note_on,,,,,0,0,5,,,,3,56,127
293888,note_off,,,,,512,0,2,,,,2,64,0
293888,note_on,,,,,0,0,2,,,,2,68,114
293888,note_off,,,,,512,0,5,,,,3,52,0
293888,note_on,,,,,0,0,6,,,,1,56,114
293888,note_on,,,,,0,0,4,,,,12,68,127
293888,note_on,,,,,0,0,3,,,,6,68,101
293888,note_off,,,,,512,0,4,,,,12,64,0
293888,note_off,,,,,512,0,3,,,,6,64,0
294400,note_off,,,,,512,0,5,,,,3,56,0
294400,note_off,,,,,512,0,4,,,,12,68,0
294400,note_on,,,,,0,0,3,,,,6,66,101
294400,note_off,,,,,512,0,3,,,,6,68,0
294400,note_off,,,,,512,0,2,,,,2,68,0
294400,note_on,,,,,0,0,2,,,,2,66,114
294400,note_off,,,,,512,0,6,,,,1,68,0
294400,note_on,,,,,0,0,6,,,,1,54,114
294400,note_off,,,,,0,0,6,,,,1,56,0
294400,note_on,,,,,0,0,6,,,,1,66,114
294400,note_on,,,,,0,0,4,,,,12,66,127
294400,note_on,,,,,0,0,5,,,,3,54,127
294656,note_on,,,,,0,0,4,,,,12,64,127
294656,note_off,,,,,256,0,6,,,,1,66,0
294656,note_off,,,,,256,0,4,,,,12,66,0
294656,note_off,,,,,256,0,5,,,,3,54,0
294656,note_on,,,,,0,0,3,,,,6,64,101
294656,note_off,,,,,256,0,3,,,,6,66,0
294656,note_off,,,,,256,0,2,,,,2,66,0
294656,note_on,,,,,0,0,2,,,,2,64,114
294656,note_on,,,,,0,0,6,,,,1,64,114
294656,note_off,,,,,0,0,6,,,,1,54,0
294656,note_on,,,,,0,0,6,,,,1,52,114
294656,note_on,,,,,0,0,5,,,,3,52,127
294912,note_on,,,,,0,0,3,,,,6,69,101
294912,note_off,,,,,256,0,3,,,,6,64,0
294912,note_off,,,,,256,0,2,,,,2,64,0
294912,note_on,,,,,0,0,2,,,,2,69,114
294912,note_on,,,,,0,0,6,,,,1,69,114
294912,note_on,,,,,0,0,4,,,,12,69,127
294912,note_off,,,,,0,0,6,,,,1,52,0
294912,note_off,,,,,256,0,5,,,,3,52,0
294912,note_on,,,,,0,0,5,,,,3,57,127
294912,note_on,,,,,0,0,6,,,,1,57,114
294912,note_off,,,,,256,0,6,,,,1,64,0
294912,note_off,,,,,256,0,4,,,,12,64,0
295424,note_on,,,,,0,0,3,,,,6,57,101
295424,note_off,,,,,512,0,2,,,,2,69,0
295424,note_off,,,,,512,0,6,,,,1,69,0
295424,note_on,,,,,0,0,6,,,,1,57,114
295424,note_off,,,,,0,0,6,,,,1,57,0
295424,note_on,,,,,0,0,5,,,,3,45,127
295424,note_off,,,,,512,0,5,,,,3,57,0
295424,note_off,,,,,512,0,3,,,,6,69,0
295424,note_off,,,,,512,0,4,,,,12,69,0
295424,note_on,,,,,0,0,6,,,,1,45,114
295936,note_on,,,,,0,0,6,,,,1,60,114
295936,note_off,,,,,0,0,6,,,,1,45,0
295936,note_off,,,,,512,0,6,,,,1,57,0
295936,note_on,,,,,0,0,6,,,,1,48,114
295936,note_on,,,,,512,0,2,,,,2,60,114
295936,note_on,,,,,512,0,4,,,,12,60,127
295936,note_off,,,,,512,0,5,,,,3,45,0
295936,note_on,,,,,0,0,5,,,,3,48,127
295936,note_off,,,,,512,0,3,,,,6,57,0
295936,note_on,,,,,0,0,3,,,,6,60,101
296448,note_on,,,,,0,0,6,,,,1,59,114
296448,note_off,,,,,512,0,4,,,,12,60,0
296448,note_off,,,,,512,0,3,,,,6,60,0
296448,note_on,,,,,0,0,3,,,,6,59,101
296448,note_off,,,,,512,0,2,,,,2,60,0
296448,note_on,,,,,0,0,5,,,,3,47,127
296448,note_off,,,,,512,0,5,,,,3,48,0
296448,note_on,,,,,0,0,6,,,,1,47,114
296448,note_off,,,,,0,0,6,,,,1,48,0
296448,note_off,,,,,512,0,6,,,,1,60,0
296704,note_off,,,,,256,0,3,,,,6,59,0
296704,note_on,,,,,0,0,5,,,,3,45,127
296704,note_off,,,,,256,0,5,,,,3,47,0
296704,note_on,,,,,0,0,3,,,,6,57,101
296704,note_off,,,,,0,0,6,,,,1,47,0
296704,note_on,,,,,0,0,6,,,,1,45,114
296704,note_on,,,,,0,0,6,,,,1,57,114
296704,note_off,,,,,256,0,6,,,,1,59,0
296960,note_on,,,,,0,0,3,,,,6,64,101
296960,note_on,,,,,0,0,6,,,,1,52,114
296960,note_off,,,,,0,0,6,,,,1,45,0
296960,note_on,,,,,512,0,4,,,,12,64,127
296960,note_on,,,,,0,0,6,,,,1,64,114
296960,note_off,,,,,256,0,6,,,,1,57,0
296960,note_on,,,,,512,0,2,,,,2,64,114
296960,note_on,,,,,0,0,5,,,,3,52,127
296960,note_off,,,,,256,0,5,,,,3,45,0
296960,note_off,,,,,256,0,3,,,,6,57,0
297984,note_off,,,,,1024,0,3,,,,6,64,0
297984,note_off,,,,,1024,0,5,,,,3,52,0
297984,note_off,,,,,1024,0,6,,,,1,64,0
297984,note_off,,,,,0,0,6,,,,1,52,0
297984,note_off,,,,,1024,0,4,,,,12,64,0
297984,note_off,,,,,1024,0,2,,,,2,64,0
299008,note_on,,,,,1024,0,6,,,,1,71,114
299008,note_on,,,,,0,0,6,,,,1,56,114
299008,note_on,,,,,1024,0,2,,,,2,74,114
299008,note_on,,,,,0,0,6,,,,1,77,114
299008,note_on,,,,,1024,0,3,,,,6,71,101
299008,note_on,,,,,1024,0,5,,,,3,56,127
299008,note_on,,,,,1024,0,4,,,,12,77,127
299008,note_on,,,,,0,0,6,,,,1,74,114
299520,note_off,,,,,0,0,6,,,,1,74,0
299520,note_off,,,,,512,0,3,,,,6,71,0
299520,note_on,,,,,0,0,3,,,,6,64,101
299520,note_off,,,,,0,0,6,,,,1,77,0
299520,note_on,,,,,0,0,6,,,,1,57,114
299520,note_on,,,,,0,0,6,,,,1,64,114
299520,note_off,,,,,0,0,6,,,,1,56,0
299520,note_off,,,,,512,0,6,,,,1,71,0
299520,note_on,,,,,0,0,6,,,,1,76,114
299520,note_on,,,,,0,0,4,,,,12,76,127
299520,note_off,,,,,512,0,2,,,,2,74,0
299520,note_on,,,,,0,0,2,,,,2,72,114
299520,note_on,,,,,0,0,5,,,,3,57,127
299520,note_off,,,,,512,0,4,,,,12,77,0
299520,note_on,,,,,0,0,6,,,,1,72,114
299520,note_off,,,,,512,0,5,,,,3,56,0
300032,note_off,,,,,512,0,5,,,,3,57,0
300032,note_off,,,,,0,0,6,,,,1,72,0
300032,note_off,,,,,512,0,6,,,,1,64,0
300032,note_off,,,,,0,0,6,,,,1,57,0
300032,note_off,,,,,512,0,3,,,,6,64,0
300032,note_off,,,,,512,0,2,,,,2,72,0
300032,note_off,,,,,512,0,4,,,,12,76,0
300032,note_off,,,,,0,0,6,,,,1,76,0
301056,note_on,,,,,0,0,6,,,,1,74,114
301056,note_on,,,,,0,0,6,,,,1,52,114
301056,note_on,,,,,1024,0,4,,,,12,74,127
301056,note_on,,,,,1024,0,5,,,,3,52,127
301056,note_on,,,,,1024,0,3,,,,6,68,101
301056,note_on,,,,,1024,0,2,,,,2,71,114
301056,note_on,,,,,0,0,6,,,,1,71,114
301056,note_on,,,,,1024,0,6,,,,1,68,114
301568,note_off,,,,,0,0,6,,,,1,74,0
301568,note_off,,,,,0,0,6,,,,1,71,0
301568,note_on,,,,,0,0,6,,,,1,64,114
301568,note_on,,,,,0,0,6,,,,1,72,114
301568,note_on,,,,,0,0,6,,,,1,76,114
301568,note_off,,,,,0,0,6,,,,1,52,0
301568,note_on,,,,,0,0,6,,,,1,45,114
301568,note_off,,,,,512,0,6,,,,1,68,0
301568,note_off,,,,,512,0,4,,,,12,74,0
301568,note_on,,,,,0,0,5,,,,3,45,127
301568,note_on,,,,,0,0,3,,,,6,64,101
301568,note_on,,,,,0,0,2,,,,2,72,114
301568,note_off,,,,,512,0,2,,,,2,71,0
301568,note_off,,,,,512,0,3,,,,6,68,0
301568,note_off,,,,,512,0,5,,,,3,52,0
301568,note_on,,,,,0,0,4,,,,12,76,127
302080,note_off,,,,,512,0,2,,,,2,72,0
302080,note_off,,,,,0,0,6,,,,1,45,0
302080,note_off,,,,,0,0,6,,,,1,76,0
302080,note_off,,,,,0,0,6,,,,1,72,0
302080,note_off,,,,,512,0,5,,,,3,45,0
302080,note_off,,,,,512,0,3,,,,6,64,0
302080,note_off,,,,,512,0,6,,,,1,64,0
302080,note_off,,,,,512,0,4,,,,12,76,0
303104,note_on,,,,,1024,0,4,,,,12,74,127
303104,note_on,,,,,1024,0,2,,,,2,71,114
303104,note_on,,,,,0,0,6,,,,1,71,114
303104,note_on,,,,,0,0,6,,,,1,74,114
303104,note_on,,,,,1024,0,6,,,,1,64,114
303104,note_on,,,,,1024,0,3,,,,6,64,101
303104,note_on,,,,,0,0,6,,,,1,56,114
303104,note_on,,,,,1024,0,5,,,,3,56,127
303616,note_off,,,,,512,0,6,,,,1,64,0
303616,note_on,,,,,0,0,4,,,,12,72,127
303616,note_on,,,,,0,0,5,,,,3,57,127
303616,note_off,,,,,512,0,5,,,,3,56,0
303616,note_off,,,,,512,0,4,,,,12,74,0
303616,note_on,,,,,0,0,6,,,,1,57,114
303616,note_off,,,,,0,0,6,,,,1,71,0
303616,note_off,,,,,0,0,6,,,,1,74,0
303616,note_on,,,,,0,0,6,,,,1,69,114
303616,note_on,,,,,0,0,6,,,,1,72,114
303616,note_off,,,,,512,0,3,,,,6,64,0
303616,note_on,,,,,0,0,2,,,,2,69,114
303616,note_off,,,,,512,0,2,,,,2,71,0
303616,note_off,,,,,0,0,6,,,,1,56,0
303616,note_on,,,,,0,0,3,,,,6,69,101
304128,note_off,,,,,512,0,2,,,,2,69,0
304128,note_off,,,,,512,0,4,,,,12,72,0
304128,note_off,,,,,512,0,3,,,,6,69,0
304128,note_off,,,,,0,0,6,,,,1,57,0
304128,note_off,,,,,0,0,6,,,,1,72,0
304128,note_off,,,,,512,0,6,,,,1,69,0
304128,note_off,,,,,512,0,5,,,,3,57,0
305152,note_on,,,,,1024,0,5,,,,3,52,127
305152,note_on,,,,,0,0,6,,,,1,68,114
305152,note_on,,,,,1024,0,6,,,,1,64,114
305152,note_on,,,,,0,0,6,,,,1,71,114
305152,note_on,,,,,1024,0,4,,,,12,71,127
305152,note_on,,,,,1024,0,3,,,,6,64,101
305152,note_on,,,,,1024,0,2,,,,2,68,114
305152,note_on,,,,,0,0,6,,,,1,52,114
305664,note_off,,,,,0,0,6,,,,1,68,0
305664,note_off,,,,,0,0,6,,,,1,71,0
305664,note_on,,,,,0,0,6,,,,1,69,114
305664,note_on,,,,,0,0,6,,,,1,72,114
305664,note_off,,,,,0,0,6,,,,1,52,0
305664,note_on,,,,,0,0,6,,,,1,45,114
305664,note_off,,,,,512,0,6,,,,1,64,0
305664,note_off,,,,,512,0,4,,,,12,71,0
305664,note_off,,,,,512,0,5,,,,3,52,0
305664,note_on,,,,,0,0,3,,,,6,69,101
305664,note_off,,,,,512,0,3,,,,6,64,0
305664,note_off,,,,,512,0,2,,,,2,68,0
305664,note_on,,,,,0,0,2,,,,2,69,114
305664,note_on,,,,,0,0,4,,,,12,72,127
305664,note_on,,,,,0,0,5,,,,3,45,127
306176,note_off,,,,,512,0,4,,,,12,72,0
306176,note_off,,,,,512,0,3,,,,6,69,0
306176,note_off,,,,,512,0,2,,,,2,69,0
306176,note_off,,,,,0,0,6,,,,1,72,0
306176,note_off,,,,,512,0,6,,,,1,69,0
306176,note_off,,,,,512,0,5,,,,3,45,0
306176,note_off,,,,,0,0,6,,,,1,45,0
307200,note_on,,,,,1024,0,4,,,,12,77,127
307200,note_on,,,,,0,0,6,,,,1,65,114
307200,note_on,,,,,1024,0,2,,,,2,77,114
307200,note_on,,,,,1024,0,3,,,,6,77,101
307200,note_on,,,,,1024,0,6,,,,1,77,114
307200,note_on,,,,,1024,0,5,,,,3,65,127
307456,note_off,,,,,256,0,2,,,,2,77,0
307456,note_off,,,,,256,0,6,,,,1,77,0
307456,note_on,,,,,0,0,6,,,,1,76,114
307456,note_off,,,,,0,0,6,,,,1,65,0
307456,note_on,,,,,0,0,6,,,,1,64,114
307456,note_on,,,,,0,0,2,,,,2,76,114
307456,note_off,,,,,256,0,5,,,,3,65,0
307456,note_on,,,,,0,0,5,,,,3,64,127
307456,note_on,,,,,0,0,3,,,,6,76,101
307456,note_off,,,,,256,0,3,,,,6,77,0
307456,note_off,,,,,256,0,4,,,,12,77,0
307456,note_on,,,,,0,0,4,,,,12,76,127
307712,note_on,,,,,0,0,2,,,,2,74,114
307712,note_off,,,,,256,0,5,,,,3,64,0
307712,note_on,,,,,0,0,5,,,,3,62,127
307712,note_on,,,,,0,0,4,,,,12,74,127
307712,note_off,,,,,256,0,4,,,,12,76,0
307712,note_off,,,,,256,0,3,,,,6,76,0
307712,note_on,,,,,0,0,3,,,,6,74,101
307712,note_on,,,,,0,0,6,,,,1,62,114
307712,note_off,,,,,0,0,6,,,,1,64,0
307712,note_on,,,,,0,0,6,,,,1,74,114
307712,note_off,,,,,256,0,2,,,,2,76,0
307712,note_off,,,,,256,0,6,,,,1,76,0
307968,note_off,,,,,256,0,6,,,,1,74,0
307968,note_on,,,,,0,0,6,,,,1,72,114
307968,note_off,,,,,0,0,6,,,,1,62,0
307968,note_on,,,,,0,0,6,,,,1,60,114
307968,note_off,,,,,256,0,2,,,,2,74,0
307968,note_on,,,,,0,0,2,,,,2,72,114
307968,note_on,,,,,0,0,5,,,,3,60,127
307968,note_on,,,,,0,0,4,,,,12,72,127
307968,note_off,,,,,256,0,4,,,,12,74,0
307968,note_off,,,,,256,0,5,,,,3,62,0
307968,note_off,,,,,256,0,3,,,,6,74,0
307968,note_on,,,,,0,0,3,,,,6,72,101
308224,note_on,,,,,0,0,4,,,,12,74,127
308224,note_off,,,,,256,0,3,,,,6,72,0
308224,note_off,,,,,256,0,2,,,,2,72,0
308224,note_on,,,,,0,0,2,,,,2,74,114
308224,note_on,,,,,0,0,6,,,,1,62,114
308224,note_off,,,,,0,0,6,,,,1,60,0
308224,note_off,,,,,256,0,4,,,,12,72,0
308224,note_off,,,,,256,0,6,,,,1,72,0
308224,note_on,,,,,0,0,5,,,,3,62,127
308224,note_off,,,,,256,0,5,,,,3,60,0
308224,note_on,,,,,0,0,3,,,,6,74,101
308224,note_on,,,,,0,0,6,,,,1,74,114
308480,note_off,,,,,256,0,2,,,,2,74,0
308480,note_on,,,,,0,0,2,,,,2,72,114
308480,note_on,,,,,0,0,6,,,,1,60,114
308480,note_off,,,,,256,0,6,,,,1,74,0
308480,note_on,,,,,0,0,4,,,,12,72,127
308480,note_on,,,,,0,0,6,,,,1,72,114
308480,note_off,,,,,256,0,3,,,,6,74,0
308480,note_on,,,,,0,0,3,,,,6,72,101
308480,note_on,,,,,0,0,5,,,,3,60,127
308480,note_off,,,,,256,0,5,,,,3,62,0
308480,note_off,,,,,256,0,4,,,,12,74,0
308480,note_off,,,,,0,0,6,,,,1,62,0
308736,note_on,,,,,0,0,2,,,,2,71,114
308736,note_on,,,,,0,0,6,,,,1,59,114
308736,note_on,,,,,0,0,3,,,,6,71,101
308736,note_off,,,,,0,0,6,,,,1,60,0
308736,note_on,,,,,0,0,5,,,,3,59,127
308736,note_off,,,,,256,0,5,,,,3,60,0
308736,note_off,,,,,256,0,2,,,,2,72,0
308736,note_on,,,,,0,0,6,,,,1,71,114
308736,note_off,,,,,256,0,6,,,,1,72,0
308736,note_off,,,,,256,0,3,,,,6,72,0
308736,note_off,,,,,256,0,4,,,,12,72,0
308736,note_on,,,,,0,0,4,,,,12,71,127
308992,note_off,,,,,0,0,6,,,,1,59,0
308992,note_off,,,,,256,0,3,,,,6,71,0
308992,note_on,,,,,0,0,3,,,,6,69,101
308992,note_off,,,,,256,0,5,,,,3,59,0
308992,note_on,,,,,0,0,5,,,,3,57,127
308992,note_off,,,,,256,0,6,,,,1,71,0
308992,note_off,,,,,256,0,4,,,,12,71,0
308992,note_on,,,,,0,0,6,,,,1,57,114
308992,note_on,,,,,0,0,4,,,,12,69,127
308992,note_on,,,,,0,0,6,,,,1,69,114
308992,note_off,,,,,256,0,2,,,,2,71,0
308992,note_on,,,,,0,0,2,,,,2,69,114
309248,note_off,,,,,256,0,5,,,,3,57,0
309248,note_on,,,,,0,0,6,,,,1,77,114
309248,note_off,,,,,256,0,3,,,,6,69,0
309248,note_on,,,,,0,0,3,,,,6,77,101
309248,note_off,,,,,0,0,6,,,,1,57,0
309248,note_off,,,,,256,0,6,,,,1,69,0
309248,note_on,,,,,0,0,2,,,,2,77,114
309248,note_off,,,,,256,0,2,,,,2,69,0
309248,note_on,,,,,0,0,6,,,,1,65,114
309248,note_off,,,,,256,0,4,,,,12,69,0
309248,note_on,,,,,0,0,4,,,,12,77,127
309248,note_on,,,,,0,0,5,,,,3,65,127
309504,note_on,,,,,0,0,4,,,,12,76,127
309504,note_off,,,,,256,0,2,,,,2,77,0
309504,note_on,,,,,0,0,3,,,,6,76,101
309504,note_off,,,,,256,0,3,,,,6,77,0
309504,note_off,,,,,256,0,4,,,,12,77,0
309504,note_on,,,,,0,0,2,,,,2,76,114
309504,note_on,,,,,0,0,5,,,,3,64,127
309504,note_off,,,,,0,0,6,,,,1,65,0
309504,note_on,,,,,0,0,6,,,,1,64,114
309504,note_off,,,,,256,0,5,,,,3,65,0
309504,note_on,,,,,0,0,6,,,,1,76,114
309504,note_off,,,,,256,0,6,,,,1,77,0
309760,note_off,,,,,256,0,2,,,,2,76,0
309760,note_off,,,,,256,0,5,,,,3,64,0
309760,note_on,,,,,0,0,5,,,,3,62,127
309760,note_off,,,,,256,0,6,,,,1,76,0
309760,note_off,,,,,256,0,3,,,,6,76,0
309760,note_on,,,,,0,0,4,,,,12,74,127
309760,note_on,,,,,0,0,2,,,,2,74,114
309760,note_off,,,,,256,0,4,,,,12,76,0
309760,note_off,,,,,0,0,6,,,,1,64,0
309760,note_on,,,,,0,0,3,,,,6,74,101
309760,note_on,,,,,0,0,6,,,,1,62,114
309760,note_on,,,,,0,0,6,,,,1,74,114
310016,note_off,,,,,256,0,3,,,,6,74,0
310016,note_off,,,,,256,0,6,,,,1,74,0
310016,note_on,,,,,0,0,4,,,,12,72,127
310016,note_on,,,,,0,0,6,,,,1,72,114
310016,note_off,,,,,0,0,6,,,,1,62,0
310016,note_on,,,,,0,0,6,,,,1,60,114
310016,note_on,,,,,0,0,3,,,,6,72,101
310016,note_off,,,,,256,0,4,,,,12,74,0
310016,note_on,,,,,0,0,2,,,,2,72,114
310016,note_off,,,,,256,0,5,,,,3,62,0
310016,note_on,,,,,0,0,5,,,,3,60,127
310016,note_off,,,,,256,0,2,,,,2,74,0
310272,note_on,,,,,0,0,6,,,,1,62,114
310272,note_off,,,,,256,0,4,,,,12,72,0
310272,note_off,,,,,256,0,2,,,,2,72,0
310272,note_on,,,,,0,0,3,,,,6,74,101
310272,note_off,,,,,256,0,3,,,,6,72,0
310272,note_on,,,,,0,0,2,,,,2,74,114
310272,note_off,,,,,256,0,6,,,,1,72,0
310272,note_on,,,,,0,0,6,,,,1,74,114
310272,note_off,,,,,0,0,6,,,,1,60,0
310272,note_on,,,,,0,0,5,,,,3,62,127
310272,note_off,,,,,256,0,5,,,,3,60,0
310272,note_on,,,,,0,0,4,,,,12,74,127
310528,note_off,,,,,256,0,5,,,,3,62,0
310528,note_on,,,,,0,0,5,,,,3,60,127
310528,note_off,,,,,256,0,6,,,,1,74,0
310528,note_on,,,,,0,0,6,,,,1,72,114
310528,note_off,,,,,0,0,6,,,,1,62,0
310528,note_on,,,,,0,0,6,,,,1,60,114
310528,note_off,,,,,256,0,4,,,,12,74,0
310528,note_on,,,,,0,0,3,,,,6,72,101
310528,note_on,,,,,0,0,2,,,,2,72,114
310528,note_off,,,,,256,0,2,,,,2,74,0
310528,note_off,,,,,256,0,3,,,,6,74,0
310528,note_on,,,,,0,0,4,,,,12,72,127
310784,note_off,,,,,256,0,4,,,,12,72,0
310784,note_on,,,,,0,0,6,,,,1,71,114
310784,note_on,,,,,0,0,2,,,,2,71,114
310784,note_off,,,,,256,0,2,,,,2,72,0
310784,note_off,,,,,256,0,5,,,,3,60,0
310784,note_off,,,,,0,0,6,,,,1,60,0
310784,note_on,,,,,0,0,6,,,,1,59,114
310784,note_off,,,,,256,0,3,,,,6,72,0
310784,note_on,,,,,0,0,3,,,,6,71,101
310784,note_on,,,,,0,0,4,,,,12,71,127
310784,note_on,,,,,0,0,5,,,,3,59,127
310784,note_off,,,,,256,0,6,,,,1,72,0
311040,note_on,,,,,0,0,3,,,,6,69,101
311040,note_off,,,,,256,0,3,,,,6,71,0
311040,note_on,,,,,0,0,6,,,,1,57,114
311040,note_off,,,,,0,0,6,,,,1,59,0
311040,note_on,,,,,0,0,6,,,,1,69,114
311040,note_on,,,,,0,0,2,,,,2,69,114
311040,note_off,,,,,256,0,5,,,,3,59,0
311040,note_off,,,,,256,0,2,,,,2,71,0
311040,note_on,,,,,0,0,4,,,,12,69,127
311040,note_off,,,,,256,0,4,,,,12,71,0
311040,note_on,,,,,0,0,5,,,,3,57,127
311040,note_off,,,,,256,0,6,,,,1,71,0
311296,note_off,,,,,256,0,5,,,,3,57,0
311296,note_on,,,,,0,0,3,,,,6,62,101
311296,note_on,,,,,0,0,6,,,,1,50,114
311296,note_off,,,,,256,0,4,,,,12,69,0
311296,note_on,,,,,0,0,4,,,,12,62,127
311296,note_on,,,,,0,0,6,,,,1,62,114
311296,note_off,,,,,256,0,2,,,,2,69,0
311296,note_on,,,,,0,0,2,,,,2,62,114
311296,note_off,,,,,256,0,3,,,,6,69,0
311296,note_on,,,,,0,0,5,,,,3,50,127
311296,note_off,,,,,0,0,6,,,,1,57,0
311296,note_off,,,,,256,0,6,,,,1,69,0
311808,note_off,,,,,512,0,5,,,,3,50,0
311808,note_off,,,,,0,0,6,,,,1,50,0
311808,note_off,,,,,512,0,4,,,,12,62,0
311808,note_off,,,,,512,0,3,,,,6,62,0
311808,note_off,,,,,512,0,2,,,,2,62,0
311808,note_off,,,,,512,0,6,,,,1,62,0
312320,note_on,,,,,0,0,6,,,,1,68,114
312320,note_on,,,,,0,0,6,,,,1,64,114
312320,note_on,,,,,0,0,6,,,,1,40,114
312320,note_on,,,,,0,0,6,,,,1,52,114
312320,note_on,,,,,512,0,3,,,,6,59,101
312320,note_on,,,,,512,0,5,,,,3,52,127
312320,note_on,,,,,512,0,4,,,,12,64,127
312320,note_on,,,,,512,0,6,,,,1,59,114
312320,note_on,,,,,512,0,2,,,,2,68,114
312363,set_tempo,,,,,0,1,0,,504201,,,,
312363,set_tempo,,,,,0,1,0,,530973,,,,
312363,set_tempo,,,,,0,1,0,,560747,,,,
312363,set_tempo,,,,,0,1,0,,545454,,,,
312363,set_tempo,,,,,312363,1,0,,491803,,,,
312363,set_tempo,,,,,0,1,0,,517241,,,,
312832,note_off,,,,,512,0,6,,,,1,59,0
312832,note_off,,,,,0,0,6,,,,1,64,0
312832,note_off,,,,,0,0,6,,,,1,68,0
312832,note_off,,,,,512,0,5,,,,3,52,0
312832,note_off,,,,,0,0,6,,,,1,40,0
312832,note_off,,,,,512,0,2,,,,2,68,0
312832,note_off,,,,,512,0,3,,,,6,59,0
312832,note_off,,,,,0,0,6,,,,1,52,0
312832,note_off,,,,,512,0,4,,,,12,64,0
313344,note_on,,,,,512,0,6,,,,1,60,114
313344,note_on,,,,,512,0,5,,,,3,45,127
313344,note_on,,,,,0,0,6,,,,1,64,114
313344,note_on,,,,,0,0,6,,,,1,69,114
313344,note_on,,,,,512,0,4,,,,12,69,127
313344,note_on,,,,,0,0,6,,,,1,33,114
313344,note_on,,,,,0,0,6,,,,1,45,114
313344,note_on,,,,,512,0,3,,,,6,57,101
313344,note_on,,,,,512,0,2,,,,2,57,114
313387,set_tempo,,,,,0,1,0,,674157,,,,
313387,set_tempo,,,,,0,1,0,,652173,,,,
313387,set_tempo,,,,,0,1,0,,631578,,,,
313387,set_tempo,,,,,0,1,0,,594059,,,,
313387,set_tempo,,,,,1024,1,0,,576923,,,,
313387,set_tempo,,,,,0,1,0,,612244,,,,
314411,set_tempo,,,,,1024,1,0,,697674,,,,
314411,set_tempo,,,,,0,1,0,,722891,,,,
314411,set_tempo,,,,,0,1,0,,750000,,,,
314411,set_tempo,,,,,0,1,0,,779220,,,,
314411,set_tempo,,,,,0,1,0,,810810,,,,
314411,set_tempo,,,,,0,1,0,,845070,,,,
315435,set_tempo,,,,,1024,1,0,,895522,,,,
315435,set_tempo,,,,,0,1,0,,952380,,,,
315435,set_tempo,,,,,0,1,0,,1016949,,,,
315435,set_tempo,,,,,0,1,0,,1090909,,,,
315435,set_tempo,,,,,0,1,0,,1276595,,,,
315435,set_tempo,,,,,0,1,0,,1176470,,,,
316416,note_off,,,,,3072,0,5,,,,3,45,0
316416,note_off,,,,,3072,0,2,,,,2,57,0
316416,note_off,,,,,3072,0,4,,,,12,69,0
316416,note_off,,,,,3072,0,3,,,,6,57,0
316416,note_off,,,,,3072,0,6,,,,1,60,0
316416,note_off,,,,,0,0,6,,,,1,64,0
316416,note_off,,,,,0,0,6,,,,1,69,0
316416,note_off,,,,,0,0,6,,,,1,33,0
316416,note_off,,,,,0,0,6,,,,1,45,0
316459,set_tempo,,,,,1024,1,0,,1363636,,,,
316459,set_tempo,,,,,0,1,0,,2068965,,,,
316459,set_tempo,,,,,0,1,0,,1875000,,,,
316459,set_tempo,,,,,0,1,0,,1714285,,,,
316459,set_tempo,,,,,0,1,0,,1578947,,,,
316459,set_tempo,,,,,0,1,0,,1463414,,,,
317483,set_tempo,,,,,0,1,0,,5454545,,,,
317483,set_tempo,,,,,0,1,0,,3000000,,,,
317483,set_tempo,,,,,0,1,0,,2608695,,,,
317483,set_tempo,,,,,1024,1,0,,2307692,,,,
317483,set_tempo,,,,,0,1,0,,3529411,,,,
317483,set_tempo,,,,,0,1,0,,4285714,,,,
318507,set_tempo,,,,,0,1,0,,13222784,,,,
318507,set_tempo,,,,,0,1,0,,13222784,,,,
318507,set_tempo,,,,,0,1,0,,13222784,,,,
318507,set_tempo,,,,,0,1,0,,13222784,,,,
318507,set_tempo,,,,,0,1,0,,12000000,,,,
318507,set_tempo,,,,,1024,1,0,,7500000,,,,
319531,end_of_track,,,,,319531,1,1,,,,,,
319531,end_of_track,,,,,3115,1,2,,,,,,
319531,end_of_track,,,,,3115,1,4,,,,,,
319531,end_of_track,,,,,1024,1,0,,,,,,
319531,end_of_track,,,,,3115,1,3,,,,,,
319531,end_of_track,,,,,3115,1,5,,,,,,
319531,end_of_track,,,,,3115,1,6,,,,,,
