tick,type,numerator,denominator,clocks_per_click,notated_32nd_notes_per_beat,time,meta,track,data,tempo,control,value,channel,program,key,note,velocity
0,time_signature,2,4,96,8,0,1,0,,,,,,,,,
0,control_change,,,,,0,0,5,,,7,127,4,,,,
0,control_change,,,,,0,0,5,,,10,64,4,,,,
0,control_change,,,,,0,0,5,,,0,0,4,,,,
0,track_name,,,,,0,1,5,,,,,,,,,
0,note_on,,,,,0,0,4,,,,,3,,,67,92
0,key_signature,,,,,0,1,4,,,,,,,C,,
0,program_change,,,,,0,0,4,,,,,3,40,,,
0,control_change,,,,,0,0,4,,,7,127,3,,,,
0,control_change,,,,,0,0,4,,,10,64,3,,,,
0,control_change,,,,,0,0,4,,,0,0,3,,,,
0,track_name,,,,,0,1,4,,,,,,,,,
0,note_on,,,,,0,0,3,,,,,2,,,67,92
0,key_signature,,,,,0,1,3,,,,,,,C,,
0,program_change,,,,,0,0,3,,,,,2,40,,,
0,control_change,,,,,0,0,3,,,7,127,2,,,,
0,control_change,,,,,0,0,3,,,10,64,2,,,,
0,control_change,,,,,0,0,3,,,0,0,2,,,,
0,track_name,,,,,0,1,3,,,,,,,,,
0,note_on,,,,,0,0,2,,,,,1,,,43,92
0,key_signature,,,,,0,1,2,,,,,,,C,,
0,program_change,,,,,0,0,2,,,,,1,70,,,
0,control_change,,,,,0,0,2,,,7,127,1,,,,
0,control_change,,,,,0,0,2,,,10,64,1,,,,
0,program_change,,,,,0,0,5,,,,,4,41,,,
0,key_signature,,,,,0,1,5,,,,,,,C,,
0,key_signature,,,,,0,1,10,,,,,,,C,,
0,track_name,,,,,0,1,6,,,,,,,,,
0,end_of_track,,,,,0,1,9,,,,,,,,,
0,key_signature,,,,,0,1,9,,,,,,,C,,
0,note_on,,,,,0,0,8,,,,,6,,,43,92
0,key_signature,,,,,0,1,8,,,,,,,C,,
0,program_change,,,,,0,0,8,,,,,6,42,,,
0,control_change,,,,,0,0,8,,,7,127,6,,,,
0,control_change,,,,,0,0,8,,,10,64,6,,,,
0,control_change,,,,,0,0,8,,,0,0,6,,,,
0,track_name,,,,,0,1,8,,,,,,,,,
0,note_on,,,,,0,0,7,,,,,5,,,43,92
0,key_signature,,,,,0,1,7,,,,,,,C,,
0,control_change,,,,,0,0,2,,,0,0,1,,,,
0,program_change,,,,,0,0,7,,,,,5,6,,,
0,control_change,,,,,0,0,7,,,10,64,5,,,,
0,control_change,,,,,0,0,7,,,0,0,5,,,,
0,track_name,,,,,0,1,7,,,,,,,,,
0,note_on,,,,,0,0,6,,,,,5,,,67,92
0,note_on,,,,,0,0,6,,,,,5,,,62,92
0,note_on,,,,,0,0,6,,,,,5,,,59,92
0,key_signature,,,,,0,1,6,,,,,,,C,,
0,program_change,,,,,0,0,6,,,,,5,6,,,
0,control_change,,,,,0,0,6,,,7,127,5,,,,
0,control_change,,,,,0,0,6,,,10,64,5,,,,
0,control_change,,,,,0,0,6,,,0,0,5,,,,
0,control_change,,,,,0,0,7,,,7,127,5,,,,
0,track_name,,,,,0,1,2,,,,,,,,,
0,end_of_track,,,,,0,1,10,,,,,,,,,
0,control_change,,,,,0,0,1,,,0,0,0,,,,
0,sequencer_specific,,,,,0,1,0,"(0, 0, 65)",,,,,,,,
0,set_tempo,,,,,0,1,0,,769230,,,,,,,
0,key_signature,,,,,0,1,1,,,,,,,G,,
0,program_change,,,,,0,0,1,,,,,0,68,,,
0,note_on,,,,,0,0,1,,,,,0,,,67,92
0,end_of_track,,,,,0,1,0,,,,,,,,,
0,track_name,,,,,0,1,1,,,,,,,,,
0,control_change,,,,,0,0,1,,,10,64,0,,,,
0,control_change,,,,,0,0,1,,,7,127,0,,,,
96,note_on,,,,,96,0,5,,,,,4,,,67,92
188,note_off,,,,,92,0,5,,,,,4,,,67,0
192,note_on,,,,,4,0,5,,,,,4,,,62,92
284,note_off,,,,,92,0,5,,,,,4,,,62,0
288,note_on,,,,,4,0,5,,,,,4,,,59,92
320,note_off,,,,,320,0,1,,,,,0,,,67,0
320,note_off,,,,,0,0,6,,,,,5,,,67,0
320,note_off,,,,,320,0,3,,,,,2,,,67,0
320,note_off,,,,,320,0,6,,,,,5,,,59,0
320,note_off,,,,,0,0,6,,,,,5,,,62,0
320,note_off,,,,,320,0,8,,,,,6,,,43,0
320,note_off,,,,,320,0,7,,,,,5,,,43,0
320,note_off,,,,,320,0,2,,,,,1,,,43,0
320,note_off,,,,,320,0,4,,,,,3,,,67,0
380,note_off,,,,,92,0,5,,,,,4,,,59,0
384,note_on,,,,,64,0,4,,,,,3,,,79,92
384,note_on,,,,,0,0,6,,,,,5,,,71,92
384,note_on,,,,,4,0,5,,,,,4,,,55,92
384,note_on,,,,,64,0,1,,,,,0,,,79,92
384,note_on,,,,,64,0,3,,,,,2,,,79,92
384,note_on,,,,,0,0,6,,,,,5,,,67,92
384,note_on,,,,,64,0,6,,,,,5,,,62,92
480,note_on,,,,,160,0,7,,,,,5,,,55,92
480,note_on,,,,,160,0,2,,,,,1,,,55,92
480,note_on,,,,,160,0,8,,,,,6,,,55,92
572,note_off,,,,,92,0,7,,,,,5,,,55,0
572,note_off,,,,,92,0,2,,,,,1,,,55,0
572,note_off,,,,,92,0,8,,,,,6,,,55,0
576,note_on,,,,,4,0,8,,,,,6,,,47,92
576,note_on,,,,,4,0,2,,,,,1,,,47,92
576,note_on,,,,,4,0,7,,,,,5,,,47,92
668,note_off,,,,,92,0,2,,,,,1,,,47,0
668,note_off,,,,,92,0,8,,,,,6,,,47,0
668,note_off,,,,,92,0,7,,,,,5,,,47,0
672,note_on,,,,,4,0,8,,,,,6,,,43,92
672,note_on,,,,,4,0,2,,,,,1,,,43,92
672,note_on,,,,,4,0,7,,,,,5,,,43,92
704,note_off,,,,,320,0,5,,,,,4,,,55,0
704,note_off,,,,,320,0,3,,,,,2,,,79,0
704,note_off,,,,,320,0,4,,,,,3,,,79,0
704,note_off,,,,,320,0,1,,,,,0,,,79,0
704,note_off,,,,,320,0,6,,,,,5,,,62,0
704,note_off,,,,,0,0,6,,,,,5,,,67,0
704,note_off,,,,,0,0,6,,,,,5,,,71,0
764,note_off,,,,,92,0,7,,,,,5,,,43,0
764,note_off,,,,,92,0,2,,,,,1,,,43,0
764,note_off,,,,,92,0,8,,,,,6,,,43,0
768,note_on,,,,,64,0,1,,,,,0,,,78,92
768,note_on,,,,,4,0,2,,,,,1,,,50,92
768,note_on,,,,,4,0,8,,,,,6,,,50,92
768,note_on,,,,,64,0,3,,,,,2,,,78,92
768,note_on,,,,,0,0,6,,,,,5,,,66,92
768,note_on,,,,,64,0,6,,,,,5,,,62,92
768,note_on,,,,,64,0,4,,,,,3,,,78,92
768,note_on,,,,,0,0,6,,,,,5,,,69,92
768,note_on,,,,,4,0,7,,,,,5,,,50,92
860,note_off,,,,,92,0,3,,,,,2,,,78,0
860,note_off,,,,,92,0,1,,,,,0,,,78,0
860,note_off,,,,,92,0,4,,,,,3,,,78,0
864,note_on,,,,,4,0,3,,,,,2,,,81,92
864,note_on,,,,,4,0,1,,,,,0,,,81,92
864,note_on,,,,,4,0,4,,,,,3,,,81,92
864,note_on,,,,,160,0,5,,,,,4,,,74,92
956,note_off,,,,,92,0,1,,,,,0,,,81,0
956,note_off,,,,,92,0,5,,,,,4,,,74,0
956,note_off,,,,,92,0,3,,,,,2,,,81,0
956,note_off,,,,,92,0,4,,,,,3,,,81,0
960,note_on,,,,,4,0,4,,,,,3,,,74,92
960,note_on,,,,,4,0,1,,,,,0,,,74,92
960,note_on,,,,,4,0,3,,,,,2,,,74,92
960,note_on,,,,,4,0,5,,,,,4,,,69,92
1052,note_off,,,,,92,0,5,,,,,4,,,69,0
1056,note_on,,,,,4,0,5,,,,,4,,,66,92
1088,note_off,,,,,0,0,6,,,,,5,,,69,0
1088,note_off,,,,,320,0,2,,,,,1,,,50,0
1088,note_off,,,,,0,0,6,,,,,5,,,66,0
1088,note_off,,,,,320,0,6,,,,,5,,,62,0
1088,note_off,,,,,320,0,8,,,,,6,,,50,0
1088,note_off,,,,,320,0,7,,,,,5,,,50,0
1148,note_off,,,,,92,0,5,,,,,4,,,66,0
1152,note_on,,,,,64,0,6,,,,,5,,,66,92
1152,note_on,,,,,0,0,6,,,,,5,,,74,92
1152,note_on,,,,,4,0,5,,,,,4,,,62,92
1152,note_on,,,,,0,0,6,,,,,5,,,69,92
1248,note_on,,,,,160,0,7,,,,,5,,,62,92
1248,note_on,,,,,160,0,2,,,,,1,,,62,92
1248,note_on,,,,,160,0,8,,,,,6,,,62,92
1280,note_off,,,,,320,0,1,,,,,0,,,74,0
1280,note_off,,,,,320,0,3,,,,,2,,,74,0
1280,note_off,,,,,320,0,4,,,,,3,,,74,0
1340,note_off,,,,,0,0,6,,,,,5,,,69,0
1340,note_off,,,,,188,0,6,,,,,5,,,66,0
1340,note_off,,,,,0,0,6,,,,,5,,,74,0
1340,note_off,,,,,92,0,2,,,,,1,,,62,0
1340,note_off,,,,,92,0,8,,,,,6,,,62,0
1340,note_off,,,,,92,0,7,,,,,5,,,62,0
1344,note_on,,,,,64,0,3,,,,,2,,,72,92
1344,note_on,,,,,64,0,1,,,,,0,,,72,92
1344,note_on,,,,,0,0,6,,,,,5,,,72,92
1344,note_on,,,,,4,0,8,,,,,6,,,54,92
1344,note_on,,,,,4,0,7,,,,,5,,,54,92
1344,note_on,,,,,4,0,2,,,,,1,,,54,92
1344,note_on,,,,,4,0,6,,,,,5,,,62,92
1344,note_on,,,,,64,0,4,,,,,3,,,72,92
1344,note_on,,,,,0,0,6,,,,,5,,,69,92
1436,note_off,,,,,92,0,8,,,,,6,,,54,0
1436,note_off,,,,,92,0,7,,,,,5,,,54,0
1436,note_off,,,,,92,0,2,,,,,1,,,54,0
1440,note_on,,,,,4,0,2,,,,,1,,,50,92
1440,note_on,,,,,4,0,7,,,,,5,,,50,92
1440,note_on,,,,,4,0,8,,,,,6,,,50,92
1472,note_off,,,,,320,0,5,,,,,4,,,62,0
1532,note_off,,,,,0,0,6,,,,,5,,,69,0
1532,note_off,,,,,0,0,6,,,,,5,,,72,0
1532,note_off,,,,,188,0,4,,,,,3,,,72,0
1532,note_off,,,,,188,0,6,,,,,5,,,62,0
1532,note_off,,,,,188,0,1,,,,,0,,,72,0
1532,note_off,,,,,188,0,3,,,,,2,,,72,0
1532,note_off,,,,,92,0,2,,,,,1,,,50,0
1532,note_off,,,,,92,0,7,,,,,5,,,50,0
1532,note_off,,,,,92,0,8,,,,,6,,,50,0
1536,note_on,,,,,4,0,7,,,,,5,,,55,92
1536,note_on,,,,,4,0,2,,,,,1,,,55,92
1536,note_on,,,,,4,0,6,,,,,5,,,62,92
1536,note_on,,,,,0,0,6,,,,,5,,,67,92
1536,note_on,,,,,0,0,6,,,,,5,,,71,92
1536,note_on,,,,,4,0,8,,,,,6,,,55,92
1536,note_on,,,,,4,0,1,,,,,0,,,71,92
1536,note_on,,,,,4,0,3,,,,,2,,,71,92
1536,note_on,,,,,4,0,4,,,,,3,,,71,92
1536,note_on,,,,,64,0,5,,,,,4,,,62,92
1628,note_off,,,,,92,0,3,,,,,2,,,71,0
1628,note_off,,,,,92,0,1,,,,,0,,,71,0
1628,note_off,,,,,92,0,4,,,,,3,,,71,0
1632,note_on,,,,,4,0,3,,,,,2,,,74,92
1632,note_on,,,,,4,0,1,,,,,0,,,74,92
1632,note_on,,,,,4,0,4,,,,,3,,,74,92
1724,note_off,,,,,188,0,5,,,,,4,,,62,0
1724,note_off,,,,,0,0,6,,,,,5,,,67,0
1724,note_off,,,,,188,0,8,,,,,6,,,55,0
1724,note_off,,,,,188,0,6,,,,,5,,,62,0
1724,note_off,,,,,188,0,2,,,,,1,,,55,0
1724,note_off,,,,,0,0,6,,,,,5,,,71,0
1724,note_off,,,,,188,0,7,,,,,5,,,55,0
1724,note_off,,,,,92,0,1,,,,,0,,,74,0
1724,note_off,,,,,92,0,3,,,,,2,,,74,0
1724,note_off,,,,,92,0,4,,,,,3,,,74,0
1728,note_on,,,,,0,0,6,,,,,5,,,66,92
1728,note_on,,,,,4,0,1,,,,,0,,,66,92
1728,note_on,,,,,4,0,2,,,,,1,,,50,92
1728,note_on,,,,,4,0,3,,,,,2,,,66,92
1728,note_on,,,,,0,0,6,,,,,5,,,62,92
1728,note_on,,,,,4,0,4,,,,,3,,,66,92
1728,note_on,,,,,4,0,5,,,,,4,,,62,92
1728,note_on,,,,,4,0,7,,,,,5,,,50,92
1728,note_on,,,,,4,0,8,,,,,6,,,50,92
1728,note_on,,,,,4,0,6,,,,,5,,,57,92
1916,note_off,,,,,188,0,8,,,,,6,,,50,0
1916,note_off,,,,,188,0,2,,,,,1,,,50,0
1916,note_off,,,,,188,0,7,,,,,5,,,50,0
1920,note_on,,,,,4,0,8,,,,,6,,,50,92
1920,note_on,,,,,4,0,2,,,,,1,,,50,92
1920,note_on,,,,,4,0,7,,,,,5,,,50,92
2012,note_off,,,,,284,0,5,,,,,4,,,62,0
2012,note_off,,,,,284,0,1,,,,,0,,,66,0
2012,note_off,,,,,284,0,4,,,,,3,,,66,0
2012,note_off,,,,,284,0,3,,,,,2,,,66,0
2016,note_on,,,,,4,0,1,,,,,0,,,69,92
2016,note_on,,,,,4,0,4,,,,,3,,,69,92
2016,note_on,,,,,4,0,3,,,,,2,,,69,92
2016,note_on,,,,,4,0,5,,,,,4,,,66,92
2048,note_off,,,,,0,0,6,,,,,5,,,62,0
2048,note_off,,,,,320,0,6,,,,,5,,,57,0
2048,note_off,,,,,0,0,6,,,,,5,,,66,0
2108,note_off,,,,,188,0,2,,,,,1,,,50,0
2108,note_off,,,,,92,0,5,,,,,4,,,66,0
2108,note_off,,,,,188,0,8,,,,,6,,,50,0
2108,note_off,,,,,92,0,1,,,,,0,,,69,0
2108,note_off,,,,,92,0,3,,,,,2,,,69,0
2108,note_off,,,,,188,0,7,,,,,5,,,50,0
2108,note_off,,,,,92,0,4,,,,,3,,,69,0
2112,note_on,,,,,4,0,5,,,,,4,,,64,92
2112,note_on,,,,,0,0,6,,,,,5,,,64,92
2112,note_on,,,,,4,0,2,,,,,1,,,50,92
2112,note_on,,,,,4,0,8,,,,,6,,,50,92
2112,note_on,,,,,4,0,7,,,,,5,,,50,92
2112,note_on,,,,,64,0,6,,,,,5,,,59,92
2112,note_on,,,,,4,0,4,,,,,3,,,67,92
2112,note_on,,,,,4,0,1,,,,,0,,,67,92
2112,note_on,,,,,4,0,3,,,,,2,,,67,92
2112,note_on,,,,,0,0,6,,,,,5,,,67,92
2300,note_off,,,,,188,0,7,,,,,5,,,50,0
2300,note_off,,,,,188,0,8,,,,,6,,,50,0
2300,note_off,,,,,188,0,2,,,,,1,,,50,0
2304,note_on,,,,,4,0,2,,,,,1,,,50,92
2304,note_on,,,,,4,0,8,,,,,6,,,50,92
2304,note_on,,,,,4,0,7,,,,,5,,,50,92
2396,note_off,,,,,284,0,5,,,,,4,,,64,0
2396,note_off,,,,,284,0,3,,,,,2,,,67,0
2396,note_off,,,,,284,0,1,,,,,0,,,67,0
2396,note_off,,,,,284,0,4,,,,,3,,,67,0
2400,note_on,,,,,4,0,4,,,,,3,,,71,92
2400,note_on,,,,,4,0,5,,,,,4,,,67,92
2400,note_on,,,,,4,0,1,,,,,0,,,71,92
2400,note_on,,,,,4,0,3,,,,,2,,,71,92
2492,note_off,,,,,92,0,5,,,,,4,,,67,0
2492,note_off,,,,,380,0,6,,,,,5,,,59,0
2492,note_off,,,,,188,0,2,,,,,1,,,50,0
2492,note_off,,,,,188,0,8,,,,,6,,,50,0
2492,note_off,,,,,188,0,7,,,,,5,,,50,0
2492,note_off,,,,,0,0,6,,,,,5,,,67,0
2492,note_off,,,,,92,0,4,,,,,3,,,71,0
2492,note_off,,,,,92,0,1,,,,,0,,,71,0
2492,note_off,,,,,92,0,3,,,,,2,,,71,0
2492,note_off,,,,,0,0,6,,,,,5,,,64,0
2496,note_on,,,,,4,0,4,,,,,3,,,69,92
2496,note_on,,,,,4,0,5,,,,,4,,,66,92
2496,note_on,,,,,4,0,6,,,,,5,,,62,92
2496,note_on,,,,,4,0,8,,,,,6,,,50,92
2496,note_on,,,,,4,0,1,,,,,0,,,69,92
2496,note_on,,,,,0,0,6,,,,,5,,,66,92
2496,note_on,,,,,4,0,3,,,,,2,,,69,92
2496,note_on,,,,,4,0,2,,,,,1,,,50,92
2496,note_on,,,,,4,0,7,,,,,5,,,50,92
2496,note_on,,,,,0,0,6,,,,,5,,,69,92
2684,note_off,,,,,188,0,2,,,,,1,,,50,0
2684,note_off,,,,,188,0,8,,,,,6,,,50,0
2684,note_off,,,,,188,0,7,,,,,5,,,50,0
2688,note_on,,,,,4,0,2,,,,,1,,,50,92
2688,note_on,,,,,4,0,8,,,,,6,,,50,92
2688,note_on,,,,,4,0,7,,,,,5,,,50,92
2780,note_off,,,,,284,0,4,,,,,3,,,69,0
2780,note_off,,,,,284,0,3,,,,,2,,,69,0
2780,note_off,,,,,284,0,1,,,,,0,,,69,0
2780,note_off,,,,,284,0,5,,,,,4,,,66,0
2784,note_on,,,,,4,0,4,,,,,3,,,72,92
2784,note_on,,,,,4,0,1,,,,,0,,,72,92
2784,note_on,,,,,4,0,3,,,,,2,,,72,92
2784,note_on,,,,,4,0,5,,,,,4,,,69,92
2816,note_off,,,,,0,0,6,,,,,5,,,69,0
2816,note_off,,,,,320,0,6,,,,,5,,,62,0
2816,note_off,,,,,0,0,6,,,,,5,,,66,0
2876,note_off,,,,,92,0,4,,,,,3,,,72,0
2876,note_off,,,,,92,0,1,,,,,0,,,72,0
2876,note_off,,,,,92,0,5,,,,,4,,,69,0
2876,note_off,,,,,188,0,7,,,,,5,,,50,0
2876,note_off,,,,,188,0,2,,,,,1,,,50,0
2876,note_off,,,,,188,0,8,,,,,6,,,50,0
2876,note_off,,,,,92,0,3,,,,,2,,,72,0
2880,note_on,,,,,4,0,7,,,,,5,,,50,92
2880,note_on,,,,,4,0,2,,,,,1,,,50,92
2880,note_on,,,,,4,0,4,,,,,3,,,71,92
2880,note_on,,,,,0,0,6,,,,,5,,,71,92
2880,note_on,,,,,0,0,6,,,,,5,,,67,92
2880,note_on,,,,,64,0,6,,,,,5,,,62,92
2880,note_on,,,,,4,0,8,,,,,6,,,50,92
2880,note_on,,,,,4,0,1,,,,,0,,,71,92
2880,note_on,,,,,4,0,3,,,,,2,,,71,92
2880,note_on,,,,,4,0,5,,,,,4,,,67,92
3068,note_off,,,,,188,0,2,,,,,1,,,50,0
3068,note_off,,,,,188,0,8,,,,,6,,,50,0
3068,note_off,,,,,188,0,7,,,,,5,,,50,0
3072,note_on,,,,,4,0,2,,,,,1,,,50,92
3072,note_on,,,,,4,0,7,,,,,5,,,50,92
3072,note_on,,,,,4,0,8,,,,,6,,,50,92
3164,note_off,,,,,284,0,3,,,,,2,,,71,0
3164,note_off,,,,,284,0,4,,,,,3,,,71,0
3164,note_off,,,,,284,0,5,,,,,4,,,67,0
3164,note_off,,,,,284,0,1,,,,,0,,,71,0
3168,note_on,,,,,4,0,4,,,,,3,,,78,92
3168,note_on,,,,,4,0,1,,,,,0,,,78,92
3168,note_on,,,,,4,0,3,,,,,2,,,78,92
3168,note_on,,,,,4,0,5,,,,,4,,,69,92
3260,note_off,,,,,188,0,7,,,,,5,,,50,0
3260,note_off,,,,,92,0,1,,,,,0,,,78,0
3260,note_off,,,,,0,0,6,,,,,5,,,71,0
3260,note_off,,,,,92,0,3,,,,,2,,,78,0
3260,note_off,,,,,92,0,4,,,,,3,,,78,0
3260,note_off,,,,,188,0,2,,,,,1,,,50,0
3260,note_off,,,,,188,0,8,,,,,6,,,50,0
3260,note_off,,,,,0,0,6,,,,,5,,,67,0
3260,note_off,,,,,380,0,6,,,,,5,,,62,0
3260,note_off,,,,,92,0,5,,,,,4,,,69,0
3264,note_on,,,,,4,0,7,,,,,5,,,50,92
3264,note_on,,,,,4,0,3,,,,,2,,,81,92
3264,note_on,,,,,4,0,8,,,,,6,,,50,92
3264,note_on,,,,,4,0,5,,,,,4,,,66,92
3264,note_on,,,,,4,0,2,,,,,1,,,50,92
3264,note_on,,,,,4,0,4,,,,,3,,,81,92
3264,note_on,,,,,4,0,1,,,,,0,,,81,92
3264,note_on,,,,,0,0,6,,,,,5,,,69,92
3264,note_on,,,,,0,0,6,,,,,5,,,66,92
3264,note_on,,,,,4,0,6,,,,,5,,,62,92
3452,note_off,,,,,188,0,8,,,,,6,,,50,0
3452,note_off,,,,,188,0,2,,,,,1,,,50,0
3452,note_off,,,,,188,0,7,,,,,5,,,50,0
3456,note_on,,,,,4,0,2,,,,,1,,,50,92
3456,note_on,,,,,4,0,8,,,,,6,,,50,92
3456,note_on,,,,,4,0,7,,,,,5,,,50,92
3548,note_off,,,,,284,0,5,,,,,4,,,66,0
3552,note_on,,,,,4,0,5,,,,,4,,,66,92
3584,note_off,,,,,0,0,6,,,,,5,,,66,0
3584,note_off,,,,,0,0,6,,,,,5,,,69,0
3584,note_off,,,,,320,0,4,,,,,3,,,81,0
3584,note_off,,,,,320,0,3,,,,,2,,,81,0
3584,note_off,,,,,320,0,6,,,,,5,,,62,0
3584,note_off,,,,,320,0,1,,,,,0,,,81,0
3644,note_off,,,,,188,0,7,,,,,5,,,50,0
3644,note_off,,,,,188,0,8,,,,,6,,,50,0
3644,note_off,,,,,188,0,2,,,,,1,,,50,0
3644,note_off,,,,,92,0,5,,,,,4,,,66,0
3648,note_on,,,,,4,0,2,,,,,1,,,50,92
3648,note_on,,,,,64,0,3,,,,,2,,,72,92
3648,note_on,,,,,4,0,5,,,,,4,,,69,92
3648,note_on,,,,,0,0,6,,,,,5,,,72,92
3648,note_on,,,,,64,0,1,,,,,0,,,72,92
3648,note_on,,,,,64,0,4,,,,,3,,,72,92
3648,note_on,,,,,0,0,6,,,,,5,,,66,92
3648,note_on,,,,,4,0,8,,,,,6,,,50,92
3648,note_on,,,,,64,0,6,,,,,5,,,62,92
3648,note_on,,,,,4,0,7,,,,,5,,,50,92
3740,note_off,,,,,92,0,5,,,,,4,,,69,0
3744,note_on,,,,,4,0,5,,,,,4,,,66,92
3836,note_off,,,,,188,0,7,,,,,5,,,50,0
3836,note_off,,,,,188,0,1,,,,,0,,,72,0
3836,note_off,,,,,188,0,2,,,,,1,,,50,0
3836,note_off,,,,,0,0,6,,,,,5,,,66,0
3836,note_off,,,,,0,0,6,,,,,5,,,72,0
3836,note_off,,,,,188,0,6,,,,,5,,,62,0
3836,note_off,,,,,188,0,4,,,,,3,,,72,0
3836,note_off,,,,,188,0,3,,,,,2,,,72,0
3836,note_off,,,,,92,0,5,,,,,4,,,66,0
3836,note_off,,,,,188,0,8,,,,,6,,,50,0
3840,note_on,,,,,4,0,7,,,,,5,,,43,92
3840,note_on,,,,,4,0,6,,,,,5,,,62,92
3840,note_on,,,,,0,0,6,,,,,5,,,67,92
3840,note_on,,,,,0,0,6,,,,,5,,,71,92
3840,note_on,,,,,4,0,5,,,,,4,,,62,92
3840,note_on,,,,,4,0,3,,,,,2,,,71,92
3840,note_on,,,,,4,0,1,,,,,0,,,71,92
3840,note_on,,,,,4,0,2,,,,,1,,,43,92
3840,note_on,,,,,4,0,4,,,,,3,,,71,92
3840,note_on,,,,,4,0,8,,,,,6,,,43,92
3932,note_off,,,,,92,0,1,,,,,0,,,71,0
3932,note_off,,,,,92,0,8,,,,,6,,,43,0
3932,note_off,,,,,92,0,4,,,,,3,,,71,0
3932,note_off,,,,,92,0,2,,,,,1,,,43,0
3932,note_off,,,,,92,0,3,,,,,2,,,71,0
3932,note_off,,,,,92,0,7,,,,,5,,,43,0
3936,note_on,,,,,4,0,8,,,,,6,,,55,92
3936,note_on,,,,,4,0,4,,,,,3,,,69,92
3936,note_on,,,,,4,0,2,,,,,1,,,55,92
3936,note_on,,,,,4,0,7,,,,,5,,,55,92
3936,note_on,,,,,4,0,1,,,,,0,,,69,92
3936,note_on,,,,,4,0,3,,,,,2,,,69,92
4028,note_off,,,,,92,0,2,,,,,1,,,55,0
4028,note_off,,,,,92,0,8,,,,,6,,,55,0
4028,note_off,,,,,92,0,4,,,,,3,,,69,0
4028,note_off,,,,,92,0,1,,,,,0,,,69,0
4028,note_off,,,,,92,0,3,,,,,2,,,69,0
4028,note_off,,,,,0,0,6,,,,,5,,,71,0
4028,note_off,,,,,0,0,6,,,,,5,,,67,0
4028,note_off,,,,,188,0,6,,,,,5,,,62,0
4028,note_off,,,,,92,0,7,,,,,5,,,55,0
4032,note_on,,,,,4,0,1,,,,,0,,,67,92
4032,note_on,,,,,4,0,6,,,,,5,,,62,92
4032,note_on,,,,,4,0,7,,,,,5,,,47,92
4032,note_on,,,,,4,0,4,,,,,3,,,67,92
4032,note_on,,,,,4,0,8,,,,,6,,,47,92
4032,note_on,,,,,4,0,2,,,,,1,,,47,92
4032,note_on,,,,,4,0,3,,,,,2,,,67,92
4032,note_on,,,,,0,0,6,,,,,5,,,67,92
4124,note_off,,,,,92,0,8,,,,,6,,,47,0
4124,note_off,,,,,92,0,2,,,,,1,,,47,0
4124,note_off,,,,,92,0,7,,,,,5,,,47,0
4128,note_on,,,,,4,0,8,,,,,6,,,43,92
4128,note_on,,,,,4,0,7,,,,,5,,,43,92
4128,note_on,,,,,4,0,2,,,,,1,,,43,92
4160,note_off,,,,,320,0,5,,,,,4,,,62,0
4220,note_off,,,,,92,0,2,,,,,1,,,43,0
4220,note_off,,,,,0,0,6,,,,,5,,,67,0
4220,note_off,,,,,188,0,1,,,,,0,,,67,0
4220,note_off,,,,,188,0,3,,,,,2,,,67,0
4220,note_off,,,,,188,0,4,,,,,3,,,67,0
4220,note_off,,,,,188,0,6,,,,,5,,,62,0
4220,note_off,,,,,92,0,7,,,,,5,,,43,0
4220,note_off,,,,,92,0,8,,,,,6,,,43,0
4224,note_on,,,,,0,0,6,,,,,5,,,71,92
4224,note_on,,,,,4,0,6,,,,,5,,,62,92
4224,note_on,,,,,4,0,7,,,,,5,,,43,92
4224,note_on,,,,,4,0,8,,,,,6,,,43,92
4224,note_on,,,,,4,0,2,,,,,1,,,43,92
4224,note_on,,,,,0,0,6,,,,,5,,,67,92
4412,note_off,,,,,188,0,8,,,,,6,,,43,0
4412,note_off,,,,,0,0,6,,,,,5,,,71,0
4412,note_off,,,,,188,0,2,,,,,1,,,43,0
4412,note_off,,,,,0,0,6,,,,,5,,,67,0
4412,note_off,,,,,188,0,6,,,,,5,,,62,0
4412,note_off,,,,,188,0,7,,,,,5,,,43,0
4416,note_on,,,,,256,0,5,,,,,4,,,62,92
4416,note_on,,,,,4,0,6,,,,,5,,,62,92
4416,note_on,,,,,0,0,6,,,,,5,,,71,92
4416,note_on,,,,,4,0,7,,,,,5,,,55,92
4416,note_on,,,,,4,0,8,,,,,6,,,55,92
4416,note_on,,,,,196,0,1,,,,,0,,,71,92
4416,note_on,,,,,4,0,2,,,,,1,,,55,92
4416,note_on,,,,,196,0,3,,,,,2,,,71,92
4416,note_on,,,,,0,0,6,,,,,5,,,67,92
4508,note_off,,,,,92,0,1,,,,,0,,,71,0
4508,note_off,,,,,92,0,3,,,,,2,,,71,0
4512,note_on,,,,,4,0,3,,,,,2,,,73,92
4512,note_on,,,,,4,0,1,,,,,0,,,73,92
4604,note_off,,,,,188,0,2,,,,,1,,,55,0
4604,note_off,,,,,0,0,6,,,,,5,,,71,0
4604,note_off,,,,,0,0,6,,,,,5,,,67,0
4604,note_off,,,,,188,0,8,,,,,6,,,55,0
4604,note_off,,,,,188,0,6,,,,,5,,,62,0
4604,note_off,,,,,92,0,3,,,,,2,,,73,0
4604,note_off,,,,,188,0,5,,,,,4,,,62,0
4604,note_off,,,,,188,0,7,,,,,5,,,55,0
4604,note_off,,,,,92,0,1,,,,,0,,,73,0
4608,note_on,,,,,4,0,2,,,,,1,,,50,92
4608,note_on,,,,,4,0,5,,,,,4,,,66,92
4608,note_on,,,,,4,0,6,,,,,5,,,62,92
4608,note_on,,,,,4,0,7,,,,,5,,,50,92
4608,note_on,,,,,0,0,6,,,,,5,,,66,92
4608,note_on,,,,,0,0,6,,,,,5,,,69,92
4608,note_on,,,,,4,0,3,,,,,2,,,74,92
4608,note_on,,,,,4,0,1,,,,,0,,,74,92
4608,note_on,,,,,4,0,8,,,,,6,,,50,92
4700,note_off,,,,,92,0,3,,,,,2,,,74,0
4700,note_off,,,,,92,0,1,,,,,0,,,74,0
4704,note_on,,,,,4,0,3,,,,,2,,,69,92
4704,note_on,,,,,4,0,1,,,,,0,,,69,92
4796,note_off,,,,,0,0,6,,,,,5,,,66,0
4796,note_off,,,,,0,0,6,,,,,5,,,69,0
4796,note_off,,,,,188,0,2,,,,,1,,,50,0
4796,note_off,,,,,188,0,5,,,,,4,,,66,0
4796,note_off,,,,,92,0,1,,,,,0,,,69,0
4796,note_off,,,,,188,0,6,,,,,5,,,62,0
4796,note_off,,,,,188,0,8,,,,,6,,,50,0
4796,note_off,,,,,188,0,7,,,,,5,,,50,0
4796,note_off,,,,,92,0,3,,,,,2,,,69,0
4800,note_on,,,,,4,0,8,,,,,6,,,50,92
4800,note_on,,,,,4,0,1,,,,,0,,,74,92
4800,note_on,,,,,4,0,5,,,,,4,,,66,92
4800,note_on,,,,,4,0,7,,,,,5,,,50,92
4800,note_on,,,,,4,0,3,,,,,2,,,74,92
4800,note_on,,,,,4,0,2,,,,,1,,,50,92
4800,note_on,,,,,4,0,6,,,,,5,,,62,92
4800,note_on,,,,,0,0,6,,,,,5,,,66,92
4800,note_on,,,,,0,0,6,,,,,5,,,69,92
4988,note_off,,,,,188,0,8,,,,,6,,,50,0
4988,note_off,,,,,188,0,7,,,,,5,,,50,0
4988,note_off,,,,,188,0,5,,,,,4,,,66,0
4988,note_off,,,,,188,0,2,,,,,1,,,50,0
4992,note_on,,,,,4,0,8,,,,,6,,,50,92
4992,note_on,,,,,4,0,5,,,,,4,,,66,92
4992,note_on,,,,,4,0,7,,,,,5,,,50,92
4992,note_on,,,,,4,0,2,,,,,1,,,50,92
5084,note_off,,,,,284,0,1,,,,,0,,,74,0
5084,note_off,,,,,284,0,3,,,,,2,,,74,0
5088,note_on,,,,,4,0,1,,,,,0,,,78,92
5088,note_on,,,,,4,0,3,,,,,2,,,78,92
5120,note_off,,,,,0,0,6,,,,,5,,,66,0
5120,note_off,,,,,0,0,6,,,,,5,,,69,0
5120,note_off,,,,,320,0,6,,,,,5,,,62,0
5180,note_off,,,,,188,0,8,,,,,6,,,50,0
5180,note_off,,,,,92,0,1,,,,,0,,,78,0
5180,note_off,,,,,188,0,2,,,,,1,,,50,0
5180,note_off,,,,,188,0,7,,,,,5,,,50,0
5180,note_off,,,,,92,0,3,,,,,2,,,78,0
5180,note_off,,,,,188,0,5,,,,,4,,,66,0
5184,note_on,,,,,4,0,5,,,,,4,,,67,92
5184,note_on,,,,,4,0,3,,,,,2,,,76,92
5184,note_on,,,,,4,0,2,,,,,1,,,45,92
5184,note_on,,,,,4,0,7,,,,,5,,,45,92
5184,note_on,,,,,964,0,4,,,,,3,,,73,92
5184,note_on,,,,,64,0,6,,,,,5,,,67,92
5184,note_on,,,,,0,0,6,,,,,5,,,69,92
5184,note_on,,,,,0,0,6,,,,,5,,,73,92
5184,note_on,,,,,4,0,1,,,,,0,,,76,92
5184,note_on,,,,,4,0,8,,,,,6,,,45,92
5276,note_off,,,,,92,0,4,,,,,3,,,73,0
5276,note_off,,,,,92,0,1,,,,,0,,,76,0
5276,note_off,,,,,92,0,3,,,,,2,,,76,0
5280,note_on,,,,,4,0,1,,,,,0,,,79,92
5280,note_on,,,,,4,0,3,,,,,2,,,79,92
5280,note_on,,,,,4,0,4,,,,,3,,,76,92
5372,note_off,,,,,188,0,8,,,,,6,,,45,0
5372,note_off,,,,,92,0,4,,,,,3,,,76,0
5372,note_off,,,,,92,0,3,,,,,2,,,79,0
5372,note_off,,,,,188,0,2,,,,,1,,,45,0
5372,note_off,,,,,188,0,7,,,,,5,,,45,0
5372,note_off,,,,,188,0,6,,,,,5,,,67,0
5372,note_off,,,,,92,0,1,,,,,0,,,79,0
5372,note_off,,,,,188,0,5,,,,,4,,,67,0
5372,note_off,,,,,0,0,6,,,,,5,,,69,0
5372,note_off,,,,,0,0,6,,,,,5,,,73,0
5376,note_on,,,,,4,0,2,,,,,1,,,50,92
5376,note_on,,,,,4,0,7,,,,,5,,,50,92
5376,note_on,,,,,4,0,5,,,,,4,,,69,92
5376,note_on,,,,,4,0,1,,,,,0,,,78,92
5376,note_on,,,,,0,0,6,,,,,5,,,74,92
5376,note_on,,,,,0,0,6,,,,,5,,,69,92
5376,note_on,,,,,4,0,6,,,,,5,,,66,92
5376,note_on,,,,,4,0,8,,,,,6,,,50,92
5376,note_on,,,,,4,0,3,,,,,2,,,78,92
5376,note_on,,,,,4,0,4,,,,,3,,,74,92
5468,note_off,,,,,92,0,1,,,,,0,,,78,0
5468,note_off,,,,,92,0,3,,,,,2,,,78,0
5468,note_off,,,,,92,0,4,,,,,3,,,74,0
5472,note_on,,,,,4,0,3,,,,,2,,,74,92
5472,note_on,,,,,4,0,1,,,,,0,,,74,92
5472,note_on,,,,,4,0,4,,,,,3,,,69,92
5564,note_off,,,,,0,0,6,,,,,5,,,69,0
5564,note_off,,,,,92,0,1,,,,,0,,,74,0
5564,note_off,,,,,92,0,4,,,,,3,,,69,0
5564,note_off,,,,,188,0,8,,,,,6,,,50,0
5564,note_off,,,,,0,0,6,,,,,5,,,74,0
5564,note_off,,,,,188,0,7,,,,,5,,,50,0
5564,note_off,,,,,188,0,6,,,,,5,,,66,0
5564,note_off,,,,,188,0,2,,,,,1,,,50,0
5564,note_off,,,,,188,0,5,,,,,4,,,69,0
5564,note_off,,,,,92,0,3,,,,,2,,,74,0
5568,note_on,,,,,4,0,3,,,,,2,,,78,92
5568,note_on,,,,,4,0,8,,,,,6,,,50,92
5568,note_on,,,,,4,0,4,,,,,3,,,74,92
5568,note_on,,,,,4,0,1,,,,,0,,,78,92
5568,note_on,,,,,4,0,5,,,,,4,,,69,92
5568,note_on,,,,,4,0,6,,,,,5,,,66,92
5568,note_on,,,,,0,0,6,,,,,5,,,74,92
5568,note_on,,,,,0,0,6,,,,,5,,,69,92
5568,note_on,,,,,4,0,2,,,,,1,,,50,92
5568,note_on,,,,,4,0,7,,,,,5,,,50,92
5756,note_off,,,,,188,0,2,,,,,1,,,50,0
5756,note_off,,,,,188,0,7,,,,,5,,,50,0
5756,note_off,,,,,188,0,8,,,,,6,,,50,0
5756,note_off,,,,,188,0,5,,,,,4,,,69,0
5760,note_on,,,,,4,0,7,,,,,5,,,50,92
5760,note_on,,,,,4,0,8,,,,,6,,,50,92
5760,note_on,,,,,4,0,2,,,,,1,,,50,92
5760,note_on,,,,,4,0,5,,,,,4,,,69,92
5852,note_off,,,,,284,0,1,,,,,0,,,78,0
5852,note_off,,,,,284,0,4,,,,,3,,,74,0
5852,note_off,,,,,284,0,3,,,,,2,,,78,0
5856,note_on,,,,,4,0,1,,,,,0,,,81,92
5856,note_on,,,,,4,0,3,,,,,2,,,81,92
5856,note_on,,,,,4,0,4,,,,,3,,,78,92
5888,note_off,,,,,0,0,6,,,,,5,,,69,0
5888,note_off,,,,,0,0,6,,,,,5,,,74,0
5888,note_off,,,,,320,0,6,,,,,5,,,66,0
5948,note_off,,,,,188,0,2,,,,,1,,,50,0
5948,note_off,,,,,188,0,5,,,,,4,,,69,0
5948,note_off,,,,,188,0,7,,,,,5,,,50,0
5948,note_off,,,,,188,0,8,,,,,6,,,50,0
5948,note_off,,,,,92,0,4,,,,,3,,,78,0
5948,note_off,,,,,92,0,3,,,,,2,,,81,0
5948,note_off,,,,,92,0,1,,,,,0,,,81,0
5952,note_on,,,,,0,0,6,,,,,5,,,71,92
5952,note_on,,,,,0,0,6,,,,,5,,,74,92
5952,note_on,,,,,4,0,1,,,,,0,,,79,92
5952,note_on,,,,,4,0,7,,,,,5,,,50,92
5952,note_on,,,,,4,0,2,,,,,1,,,50,92
5952,note_on,,,,,4,0,5,,,,,4,,,69,92
5952,note_on,,,,,4,0,3,,,,,2,,,79,92
5952,note_on,,,,,4,0,4,,,,,3,,,76,92
5952,note_on,,,,,4,0,8,,,,,6,,,50,92
5952,note_on,,,,,64,0,6,,,,,5,,,67,92
6044,note_off,,,,,92,0,3,,,,,2,,,79,0
6044,note_off,,,,,92,0,1,,,,,0,,,79,0
6044,note_off,,,,,92,0,4,,,,,3,,,76,0
6048,note_on,,,,,4,0,1,,,,,0,,,83,92
6048,note_on,,,,,4,0,4,,,,,3,,,79,92
6048,note_on,,,,,4,0,3,,,,,2,,,83,92
6140,note_off,,,,,92,0,4,,,,,3,,,79,0
6140,note_off,,,,,188,0,6,,,,,5,,,67,0
6140,note_off,,,,,0,0,6,,,,,5,,,71,0
6140,note_off,,,,,188,0,5,,,,,4,,,69,0
6140,note_off,,,,,92,0,1,,,,,0,,,83,0
6140,note_off,,,,,92,0,3,,,,,2,,,83,0
6140,note_off,,,,,0,0,6,,,,,5,,,74,0
6140,note_off,,,,,188,0,2,,,,,1,,,50,0
6140,note_off,,,,,188,0,8,,,,,6,,,50,0
6140,note_off,,,,,188,0,7,,,,,5,,,50,0
6144,note_on,,,,,4,0,5,,,,,4,,,69,92
6144,note_on,,,,,4,0,1,,,,,0,,,81,92
6144,note_on,,,,,4,0,8,,,,,6,,,50,92
6144,note_on,,,,,4,0,6,,,,,5,,,66,92
6144,note_on,,,,,0,0,6,,,,,5,,,69,92
6144,note_on,,,,,4,0,7,,,,,5,,,50,92
6144,note_on,,,,,4,0,2,,,,,1,,,50,92
6144,note_on,,,,,0,0,6,,,,,5,,,74,92
6144,note_on,,,,,4,0,3,,,,,2,,,81,92
6144,note_on,,,,,4,0,4,,,,,3,,,78,92
6236,note_off,,,,,92,0,2,,,,,1,,,50,0
6236,note_off,,,,,92,0,8,,,,,6,,,50,0
6236,note_off,,,,,92,0,1,,,,,0,,,81,0
6236,note_off,,,,,92,0,3,,,,,2,,,81,0
6236,note_off,,,,,92,0,4,,,,,3,,,78,0
6236,note_off,,,,,92,0,7,,,,,5,,,50,0
6240,note_on,,,,,4,0,2,,,,,1,,,57,92
6240,note_on,,,,,4,0,4,,,,,3,,,76,92
6240,note_on,,,,,4,0,1,,,,,0,,,73,92
6240,note_on,,,,,4,0,3,,,,,2,,,73,92
6240,note_on,,,,,4,0,7,,,,,5,,,57,92
6240,note_on,,,,,4,0,8,,,,,6,,,57,92
6332,note_off,,,,,92,0,4,,,,,3,,,76,0
6332,note_off,,,,,92,0,3,,,,,2,,,73,0
6332,note_off,,,,,92,0,1,,,,,0,,,73,0
6332,note_off,,,,,92,0,7,,,,,5,,,57,0
6332,note_off,,,,,92,0,2,,,,,1,,,57,0
6332,note_off,,,,,92,0,8,,,,,6,,,57,0
6336,note_on,,,,,4,0,1,,,,,0,,,74,92
6336,note_on,,,,,4,0,7,,,,,5,,,54,92
6336,note_on,,,,,4,0,2,,,,,1,,,54,92
6336,note_on,,,,,4,0,8,,,,,6,,,54,92
6336,note_on,,,,,4,0,3,,,,,2,,,74,92
6336,note_on,,,,,4,0,4,,,,,3,,,78,92
6428,note_off,,,,,92,0,8,,,,,6,,,54,0
6428,note_off,,,,,92,0,2,,,,,1,,,54,0
6428,note_off,,,,,92,0,7,,,,,5,,,54,0
6428,note_off,,,,,92,0,4,,,,,3,,,78,0
6432,note_on,,,,,4,0,4,,,,,3,,,79,92
6432,note_on,,,,,4,0,2,,,,,1,,,52,92
6432,note_on,,,,,4,0,7,,,,,5,,,52,92
6432,note_on,,,,,4,0,8,,,,,6,,,52,92
6464,note_off,,,,,320,0,5,,,,,4,,,69,0
6464,note_off,,,,,0,0,6,,,,,5,,,69,0
6464,note_off,,,,,320,0,6,,,,,5,,,66,0
6464,note_off,,,,,0,0,6,,,,,5,,,74,0
6524,note_off,,,,,92,0,4,,,,,3,,,79,0
6524,note_off,,,,,92,0,2,,,,,1,,,52,0
6524,note_off,,,,,92,0,7,,,,,5,,,52,0
6524,note_off,,,,,92,0,8,,,,,6,,,52,0
6528,note_on,,,,,4,0,8,,,,,6,,,50,92
6528,note_on,,,,,4,0,4,,,,,3,,,81,92
6528,note_on,,,,,4,0,2,,,,,1,,,50,92
6528,note_on,,,,,0,0,6,,,,,5,,,74,92
6528,note_on,,,,,0,0,6,,,,,5,,,69,92
6528,note_on,,,,,64,0,5,,,,,4,,,66,92
6528,note_on,,,,,4,0,7,,,,,5,,,50,92
6528,note_on,,,,,64,0,6,,,,,5,,,66,92
6620,note_off,,,,,284,0,1,,,,,0,,,74,0
6620,note_off,,,,,284,0,3,,,,,2,,,74,0
6620,note_off,,,,,92,0,5,,,,,4,,,66,0
6624,note_on,,,,,4,0,5,,,,,4,,,64,92
6624,note_on,,,,,4,0,1,,,,,0,,,79,92
6624,note_on,,,,,4,0,3,,,,,2,,,79,92
6716,note_off,,,,,92,0,3,,,,,2,,,79,0
6716,note_off,,,,,92,0,5,,,,,4,,,64,0
6716,note_off,,,,,92,0,1,,,,,0,,,79,0
6716,note_off,,,,,188,0,4,,,,,3,,,81,0
6720,note_on,,,,,4,0,3,,,,,2,,,81,92
6720,note_on,,,,,4,0,1,,,,,0,,,81,92
6720,note_on,,,,,4,0,5,,,,,4,,,66,92
6812,note_off,,,,,92,0,5,,,,,4,,,66,0
6812,note_off,,,,,92,0,3,,,,,2,,,81,0
6812,note_off,,,,,92,0,1,,,,,0,,,81,0
6816,note_on,,,,,4,0,3,,,,,2,,,83,92
6816,note_on,,,,,4,0,1,,,,,0,,,83,92
6816,note_on,,,,,4,0,5,,,,,4,,,67,92
6848,note_off,,,,,320,0,2,,,,,1,,,50,0
6848,note_off,,,,,0,0,6,,,,,5,,,74,0
6848,note_off,,,,,0,0,6,,,,,5,,,69,0
6848,note_off,,,,,320,0,6,,,,,5,,,66,0
6848,note_off,,,,,320,0,7,,,,,5,,,50,0
6848,note_off,,,,,320,0,8,,,,,6,,,50,0
6908,note_off,,,,,92,0,3,,,,,2,,,83,0
6908,note_off,,,,,92,0,1,,,,,0,,,83,0
6908,note_off,,,,,92,0,5,,,,,4,,,67,0
6912,note_on,,,,,64,0,6,,,,,5,,,62,92
6912,note_on,,,,,0,0,6,,,,,5,,,66,92
6912,note_on,,,,,196,0,4,,,,,3,,,78,92
6912,note_on,,,,,4,0,1,,,,,0,,,81,92
6912,note_on,,,,,0,0,6,,,,,5,,,69,92
6912,note_on,,,,,4,0,3,,,,,2,,,81,92
6912,note_on,,,,,4,0,5,,,,,4,,,62,92
7004,note_off,,,,,92,0,4,,,,,3,,,78,0
7004,note_off,,,,,92,0,3,,,,,2,,,81,0
7004,note_off,,,,,92,0,1,,,,,0,,,81,0
7008,note_on,,,,,4,0,4,,,,,3,,,76,92
7008,note_on,,,,,4,0,1,,,,,0,,,73,92
7008,note_on,,,,,4,0,3,,,,,2,,,73,92
7008,note_on,,,,,160,0,7,,,,,5,,,57,92
7008,note_on,,,,,160,0,8,,,,,6,,,57,92
7008,note_on,,,,,160,0,2,,,,,1,,,57,92
7100,note_off,,,,,92,0,7,,,,,5,,,57,0
7100,note_off,,,,,92,0,2,,,,,1,,,57,0
7100,note_off,,,,,92,0,1,,,,,0,,,73,0
7100,note_off,,,,,92,0,8,,,,,6,,,57,0
7100,note_off,,,,,92,0,3,,,,,2,,,73,0
7100,note_off,,,,,92,0,4,,,,,3,,,76,0
7100,note_off,,,,,188,0,5,,,,,4,,,62,0
7104,note_on,,,,,4,0,8,,,,,6,,,54,92
7104,note_on,,,,,4,0,1,,,,,0,,,74,92
7104,note_on,,,,,4,0,4,,,,,3,,,78,92
7104,note_on,,,,,4,0,7,,,,,5,,,54,92
7104,note_on,,,,,4,0,5,,,,,4,,,69,92
7104,note_on,,,,,4,0,2,,,,,1,,,54,92
7104,note_on,,,,,4,0,3,,,,,2,,,74,92
7196,note_off,,,,,92,0,7,,,,,5,,,54,0
7196,note_off,,,,,92,0,4,,,,,3,,,78,0
7196,note_off,,,,,92,0,8,,,,,6,,,54,0
7196,note_off,,,,,92,0,2,,,,,1,,,54,0
7200,note_on,,,,,4,0,2,,,,,1,,,52,92
7200,note_on,,,,,4,0,4,,,,,3,,,79,92
7200,note_on,,,,,4,0,7,,,,,5,,,52,92
7200,note_on,,,,,4,0,8,,,,,6,,,52,92
7232,note_off,,,,,320,0,6,,,,,5,,,62,0
7232,note_off,,,,,0,0,6,,,,,5,,,66,0
7232,note_off,,,,,0,0,6,,,,,5,,,69,0
7292,note_off,,,,,92,0,8,,,,,6,,,52,0
7292,note_off,,,,,92,0,2,,,,,1,,,52,0
7292,note_off,,,,,188,0,5,,,,,4,,,69,0
7292,note_off,,,,,92,0,7,,,,,5,,,52,0
7292,note_off,,,,,92,0,4,,,,,3,,,79,0
7296,note_on,,,,,4,0,5,,,,,4,,,66,92
7296,note_on,,,,,4,0,4,,,,,3,,,81,92
7296,note_on,,,,,0,0,6,,,,,5,,,66,92
7296,note_on,,,,,64,0,6,,,,,5,,,62,92
7296,note_on,,,,,0,0,6,,,,,5,,,69,92
7296,note_on,,,,,4,0,8,,,,,6,,,50,92
7296,note_on,,,,,4,0,2,,,,,1,,,50,92
7296,note_on,,,,,4,0,7,,,,,5,,,50,92
7388,note_off,,,,,284,0,1,,,,,0,,,74,0
7388,note_off,,,,,284,0,3,,,,,2,,,74,0
7392,note_on,,,,,4,0,3,,,,,2,,,79,92
7392,note_on,,,,,4,0,1,,,,,0,,,79,92
7484,note_off,,,,,188,0,5,,,,,4,,,66,0
7484,note_off,,,,,0,0,6,,,,,5,,,69,0
7484,note_off,,,,,0,0,6,,,,,5,,,66,0
7484,note_off,,,,,188,0,6,,,,,5,,,62,0
7484,note_off,,,,,92,0,3,,,,,2,,,79,0
7484,note_off,,,,,188,0,2,,,,,1,,,50,0
7484,note_off,,,,,188,0,7,,,,,5,,,50,0
7484,note_off,,,,,188,0,8,,,,,6,,,50,0
7484,note_off,,,,,92,0,1,,,,,0,,,79,0
7484,note_off,,,,,188,0,4,,,,,3,,,81,0
7488,note_on,,,,,4,0,6,,,,,5,,,62,92
7488,note_on,,,,,4,0,1,,,,,0,,,81,92
7488,note_on,,,,,4,0,5,,,,,4,,,67,92
7488,note_on,,,,,4,0,8,,,,,6,,,55,92
7488,note_on,,,,,4,0,2,,,,,1,,,55,92
7488,note_on,,,,,4,0,3,,,,,2,,,81,92
7488,note_on,,,,,4,0,7,,,,,5,,,55,92
7488,note_on,,,,,0,0,6,,,,,5,,,67,92
7488,note_on,,,,,0,0,6,,,,,5,,,71,92
7580,note_off,,,,,92,0,1,,,,,0,,,81,0
7580,note_off,,,,,92,0,3,,,,,2,,,81,0
7584,note_on,,,,,4,0,1,,,,,0,,,83,92
7584,note_on,,,,,4,0,3,,,,,2,,,83,92
7676,note_off,,,,,188,0,6,,,,,5,,,62,0
7676,note_off,,,,,0,0,6,,,,,5,,,67,0
7676,note_off,,,,,188,0,5,,,,,4,,,67,0
7676,note_off,,,,,0,0,6,,,,,5,,,71,0
7676,note_off,,,,,92,0,1,,,,,0,,,83,0
7676,note_off,,,,,188,0,7,,,,,5,,,55,0
7676,note_off,,,,,188,0,8,,,,,6,,,55,0
7676,note_off,,,,,188,0,2,,,,,1,,,55,0
7676,note_off,,,,,92,0,3,,,,,2,,,83,0
7680,note_on,,,,,4,0,5,,,,,4,,,64,92
7680,note_on,,,,,196,0,4,,,,,3,,,81,92
7680,note_on,,,,,4,0,6,,,,,5,,,61,92
7680,note_on,,,,,0,0,6,,,,,5,,,64,92
7680,note_on,,,,,0,0,6,,,,,5,,,69,92
7680,note_on,,,,,4,0,2,,,,,1,,,57,92
7680,note_on,,,,,4,0,1,,,,,0,,,81,92
7680,note_on,,,,,4,0,3,,,,,2,,,81,92
7680,note_on,,,,,4,0,8,,,,,6,,,57,92
7680,note_on,,,,,4,0,7,,,,,5,,,57,92
7772,note_off,,,,,92,0,1,,,,,0,,,81,0
7772,note_off,,,,,92,0,4,,,,,3,,,81,0
7772,note_off,,,,,92,0,3,,,,,2,,,81,0
7776,note_on,,,,,4,0,4,,,,,3,,,73,92
7776,note_on,,,,,4,0,1,,,,,0,,,73,92
7776,note_on,,,,,4,0,3,,,,,2,,,73,92
7868,note_off,,,,,188,0,7,,,,,5,,,57,0
7868,note_off,,,,,92,0,4,,,,,3,,,73,0
7868,note_off,,,,,188,0,2,,,,,1,,,57,0
7868,note_off,,,,,188,0,8,,,,,6,,,57,0
7868,note_off,,,,,92,0,3,,,,,2,,,73,0
7868,note_off,,,,,188,0,6,,,,,5,,,61,0
7868,note_off,,,,,0,0,6,,,,,5,,,64,0
7868,note_off,,,,,0,0,6,,,,,5,,,69,0
7868,note_off,,,,,92,0,1,,,,,0,,,73,0
7872,note_on,,,,,4,0,7,,,,,5,,,59,92
7872,note_on,,,,,4,0,2,,,,,1,,,59,92
7872,note_on,,,,,4,0,3,,,,,2,,,74,92
7872,note_on,,,,,4,0,8,,,,,6,,,59,92
7872,note_on,,,,,4,0,6,,,,,5,,,62,92
7872,note_on,,,,,4,0,4,,,,,3,,,74,92
7872,note_on,,,,,0,0,6,,,,,5,,,68,92
7872,note_on,,,,,4,0,1,,,,,0,,,74,92
7964,note_off,,,,,92,0,4,,,,,3,,,74,0
7964,note_off,,,,,92,0,3,,,,,2,,,74,0
7964,note_off,,,,,92,0,1,,,,,0,,,74,0
7968,note_on,,,,,4,0,3,,,,,2,,,68,92
7968,note_on,,,,,4,0,1,,,,,0,,,68,92
7968,note_on,,,,,4,0,4,,,,,3,,,68,92
8060,note_off,,,,,92,0,1,,,,,0,,,68,0
8060,note_off,,,,,0,0,6,,,,,5,,,68,0
8060,note_off,,,,,188,0,6,,,,,5,,,62,0
8060,note_off,,,,,92,0,3,,,,,2,,,68,0
8060,note_off,,,,,92,0,4,,,,,3,,,68,0
8060,note_off,,,,,188,0,8,,,,,6,,,59,0
8060,note_off,,,,,188,0,7,,,,,5,,,59,0
8060,note_off,,,,,188,0,2,,,,,1,,,59,0
8064,note_on,,,,,4,0,6,,,,,5,,,64,92
8064,note_on,,,,,0,0,6,,,,,5,,,69,92
8064,note_on,,,,,4,0,2,,,,,1,,,61,92
8064,note_on,,,,,4,0,3,,,,,2,,,69,92
8064,note_on,,,,,4,0,8,,,,,6,,,61,92
8064,note_on,,,,,4,0,4,,,,,3,,,69,92
8064,note_on,,,,,4,0,7,,,,,5,,,61,92
8064,note_on,,,,,4,0,1,,,,,0,,,69,92
8156,note_off,,,,,92,0,1,,,,,0,,,69,0
8156,note_off,,,,,92,0,3,,,,,2,,,69,0
8156,note_off,,,,,92,0,4,,,,,3,,,69,0
8160,note_on,,,,,4,0,1,,,,,0,,,64,92
8160,note_on,,,,,4,0,3,,,,,2,,,64,92
8160,note_on,,,,,4,0,4,,,,,3,,,64,92
8192,note_off,,,,,512,0,5,,,,,4,,,64,0
8252,note_off,,,,,188,0,8,,,,,6,,,61,0
8252,note_off,,,,,188,0,7,,,,,5,,,61,0
8252,note_off,,,,,92,0,1,,,,,0,,,64,0
8252,note_off,,,,,188,0,6,,,,,5,,,64,0
8252,note_off,,,,,0,0,6,,,,,5,,,69,0
8252,note_off,,,,,188,0,2,,,,,1,,,61,0
8252,note_off,,,,,92,0,3,,,,,2,,,64,0
8252,note_off,,,,,92,0,4,,,,,3,,,64,0
8256,note_on,,,,,4,0,4,,,,,3,,,66,92
8256,note_on,,,,,4,0,7,,,,,5,,,57,92
8256,note_on,,,,,0,0,6,,,,,5,,,66,92
8256,note_on,,,,,4,0,1,,,,,0,,,66,92
8256,note_on,,,,,4,0,6,,,,,5,,,61,92
8256,note_on,,,,,64,0,5,,,,,4,,,61,92
8256,note_on,,,,,4,0,2,,,,,1,,,57,92
8256,note_on,,,,,4,0,8,,,,,6,,,57,92
8256,note_on,,,,,4,0,3,,,,,2,,,66,92
8348,note_off,,,,,92,0,3,,,,,2,,,66,0
8348,note_off,,,,,92,0,4,,,,,3,,,66,0
8348,note_off,,,,,92,0,1,,,,,0,,,66,0
8352,note_on,,,,,4,0,3,,,,,2,,,61,92
8352,note_on,,,,,4,0,4,,,,,3,,,61,92
8352,note_on,,,,,4,0,1,,,,,0,,,61,92
8444,note_off,,,,,188,0,2,,,,,1,,,57,0
8444,note_off,,,,,188,0,7,,,,,5,,,57,0
8444,note_off,,,,,92,0,4,,,,,3,,,61,0
8444,note_off,,,,,0,0,6,,,,,5,,,66,0
8444,note_off,,,,,188,0,6,,,,,5,,,61,0
8444,note_off,,,,,92,0,3,,,,,2,,,61,0
8444,note_off,,,,,188,0,5,,,,,4,,,61,0
8444,note_off,,,,,188,0,8,,,,,6,,,57,0
8444,note_off,,,,,92,0,1,,,,,0,,,61,0
8448,note_on,,,,,4,0,6,,,,,5,,,57,92
8448,note_on,,,,,0,0,6,,,,,5,,,62,92
8448,note_on,,,,,4,0,5,,,,,4,,,57,92
8448,note_on,,,,,4,0,7,,,,,5,,,50,92
8448,note_on,,,,,0,0,6,,,,,5,,,66,92
8448,note_on,,,,,4,0,8,,,,,6,,,50,92
8448,note_on,,,,,4,0,4,,,,,3,,,62,92
8448,note_on,,,,,4,0,2,,,,,1,,,50,92
8448,note_on,,,,,4,0,1,,,,,0,,,62,92
8448,note_on,,,,,4,0,3,,,,,2,,,62,92
8636,note_off,,,,,188,0,7,,,,,5,,,50,0
8636,note_off,,,,,188,0,8,,,,,6,,,50,0
8636,note_off,,,,,0,0,6,,,,,5,,,62,0
8636,note_off,,,,,188,0,6,,,,,5,,,57,0
8636,note_off,,,,,188,0,1,,,,,0,,,62,0
8636,note_off,,,,,188,0,3,,,,,2,,,62,0
8636,note_off,,,,,188,0,2,,,,,1,,,50,0
8636,note_off,,,,,0,0,6,,,,,5,,,66,0
8636,note_off,,,,,188,0,4,,,,,3,,,62,0
8640,note_on,,,,,4,0,3,,,,,2,,,57,92
8640,note_on,,,,,4,0,4,,,,,3,,,57,92
8640,note_on,,,,,4,0,6,,,,,5,,,62,92
8640,note_on,,,,,4,0,2,,,,,1,,,54,92
8640,note_on,,,,,4,0,8,,,,,6,,,54,92
8640,note_on,,,,,4,0,1,,,,,0,,,69,92
8640,note_on,,,,,0,0,6,,,,,5,,,69,92
8640,note_on,,,,,4,0,7,,,,,5,,,54,92
8768,note_off,,,,,320,0,5,,,,,4,,,57,0
8828,note_off,,,,,188,0,6,,,,,5,,,62,0
8828,note_off,,,,,0,0,6,,,,,5,,,69,0
8828,note_off,,,,,188,0,2,,,,,1,,,54,0
8828,note_off,,,,,188,0,1,,,,,0,,,69,0
8828,note_off,,,,,188,0,3,,,,,2,,,57,0
8828,note_off,,,,,188,0,4,,,,,3,,,57,0
8828,note_off,,,,,188,0,7,,,,,5,,,54,0
8828,note_off,,,,,188,0,8,,,,,6,,,54,0
8832,note_on,,,,,64,0,5,,,,,4,,,61,92
8832,note_on,,,,,4,0,2,,,,,1,,,52,92
8832,note_on,,,,,4,0,8,,,,,6,,,52,92
8832,note_on,,,,,4,0,6,,,,,5,,,61,92
8832,note_on,,,,,4,0,7,,,,,5,,,52,92
8832,note_on,,,,,0,0,6,,,,,5,,,67,92
8896,note_on,,,,,68,0,4,,,,,3,,,79,92
8896,note_on,,,,,68,0,1,,,,,0,,,79,92
8896,note_on,,,,,68,0,3,,,,,2,,,79,92
8960,note_off,,,,,64,0,4,,,,,3,,,79,0
8960,note_off,,,,,64,0,1,,,,,0,,,79,0
8960,note_on,,,,,0,0,1,,,,,0,,,78,92
8960,note_off,,,,,64,0,3,,,,,2,,,79,0
8960,note_on,,,,,0,0,3,,,,,2,,,78,92
8960,note_on,,,,,0,0,4,,,,,3,,,78,92
9020,note_off,,,,,188,0,6,,,,,5,,,61,0
9020,note_off,,,,,188,0,2,,,,,1,,,52,0
9020,note_off,,,,,0,0,6,,,,,5,,,67,0
9020,note_off,,,,,188,0,8,,,,,6,,,52,0
9020,note_off,,,,,188,0,7,,,,,5,,,52,0
9024,note_on,,,,,0,0,6,,,,,5,,,67,92
9024,note_off,,,,,64,0,4,,,,,3,,,78,0
9024,note_on,,,,,0,0,4,,,,,3,,,76,92
9024,note_on,,,,,4,0,8,,,,,6,,,45,92
9024,note_on,,,,,0,0,3,,,,,2,,,76,92
9024,note_off,,,,,64,0,3,,,,,2,,,78,0
9024,note_on,,,,,4,0,7,,,,,5,,,45,92
9024,note_off,,,,,64,0,1,,,,,0,,,78,0
9024,note_on,,,,,0,0,1,,,,,0,,,76,92
9024,note_on,,,,,4,0,6,,,,,5,,,61,92
9024,note_on,,,,,4,0,2,,,,,1,,,45,92
9088,note_off,,,,,64,0,4,,,,,3,,,76,0
9088,note_on,,,,,0,0,4,,,,,3,,,74,92
9088,note_on,,,,,0,0,3,,,,,2,,,74,92
9088,note_off,,,,,64,0,3,,,,,2,,,76,0
9088,note_off,,,,,64,0,1,,,,,0,,,76,0
9088,note_on,,,,,0,0,1,,,,,0,,,74,92
9152,note_off,,,,,64,0,1,,,,,0,,,74,0
9152,note_off,,,,,320,0,5,,,,,4,,,61,0
9152,note_on,,,,,0,0,4,,,,,3,,,73,92
9152,note_off,,,,,64,0,4,,,,,3,,,74,0
9152,note_off,,,,,64,0,3,,,,,2,,,74,0
9152,note_on,,,,,0,0,3,,,,,2,,,73,92
9152,note_on,,,,,0,0,1,,,,,0,,,73,92
9212,note_off,,,,,188,0,8,,,,,6,,,45,0
9212,note_off,,,,,60,0,4,,,,,3,,,73,0
9212,note_off,,,,,188,0,7,,,,,5,,,45,0
9212,note_off,,,,,60,0,1,,,,,0,,,73,0
9212,note_off,,,,,60,0,3,,,,,2,,,73,0
9212,note_off,,,,,188,0,6,,,,,5,,,61,0
9212,note_off,,,,,188,0,2,,,,,1,,,45,0
9212,note_off,,,,,0,0,6,,,,,5,,,67,0
9216,note_on,,,,,64,0,5,,,,,4,,,57,92
9216,note_on,,,,,4,0,6,,,,,5,,,57,92
9216,note_on,,,,,4,0,2,,,,,1,,,50,92
9216,note_on,,,,,0,0,6,,,,,5,,,66,92
9216,note_on,,,,,4,0,8,,,,,6,,,50,92
9216,note_on,,,,,4,0,3,,,,,2,,,74,92
9216,note_on,,,,,4,0,1,,,,,0,,,74,92
9216,note_on,,,,,4,0,7,,,,,5,,,50,92
9216,note_on,,,,,0,0,6,,,,,5,,,62,92
9216,note_on,,,,,4,0,4,,,,,3,,,74,92
9404,note_off,,,,,188,0,8,,,,,6,,,50,0
9404,note_off,,,,,188,0,3,,,,,2,,,74,0
9404,note_off,,,,,188,0,1,,,,,0,,,74,0
9404,note_off,,,,,188,0,7,,,,,5,,,50,0
9404,note_off,,,,,188,0,4,,,,,3,,,74,0
9404,note_off,,,,,188,0,2,,,,,1,,,50,0
9404,note_off,,,,,188,0,6,,,,,5,,,57,0
9404,note_off,,,,,0,0,6,,,,,5,,,62,0
9404,note_off,,,,,0,0,6,,,,,5,,,66,0
9408,note_on,,,,,4,0,6,,,,,5,,,62,92
9408,note_on,,,,,4,0,2,,,,,1,,,54,92
9408,note_on,,,,,0,0,6,,,,,5,,,69,92
9408,note_on,,,,,4,0,4,,,,,3,,,69,92
9408,note_on,,,,,4,0,8,,,,,6,,,54,92
9408,note_on,,,,,4,0,7,,,,,5,,,54,92
9408,note_on,,,,,4,0,3,,,,,2,,,69,92
9408,note_on,,,,,4,0,1,,,,,0,,,69,92
9536,note_off,,,,,320,0,5,,,,,4,,,57,0
9596,note_off,,,,,188,0,8,,,,,6,,,54,0
9596,note_off,,,,,188,0,3,,,,,2,,,69,0
9596,note_off,,,,,188,0,6,,,,,5,,,62,0
9596,note_off,,,,,0,0,6,,,,,5,,,69,0
9596,note_off,,,,,188,0,2,,,,,1,,,54,0
9596,note_off,,,,,188,0,4,,,,,3,,,69,0
9596,note_off,,,,,188,0,1,,,,,0,,,69,0
9596,note_off,,,,,188,0,7,,,,,5,,,54,0
9600,note_on,,,,,4,0,6,,,,,5,,,61,92
9600,note_on,,,,,0,0,6,,,,,5,,,67,92
9600,note_on,,,,,4,0,2,,,,,1,,,52,92
9600,note_on,,,,,64,0,5,,,,,4,,,61,92
9600,note_on,,,,,4,0,8,,,,,6,,,52,92
9600,note_on,,,,,4,0,7,,,,,5,,,52,92
9664,note_on,,,,,68,0,3,,,,,2,,,67,92
9664,note_on,,,,,68,0,1,,,,,0,,,67,92
9664,note_on,,,,,68,0,4,,,,,3,,,67,92
9728,note_off,,,,,64,0,1,,,,,0,,,67,0
9728,note_on,,,,,0,0,1,,,,,0,,,66,92
9728,note_off,,,,,64,0,3,,,,,2,,,67,0
9728,note_on,,,,,0,0,3,,,,,2,,,66,92
9728,note_off,,,,,64,0,4,,,,,3,,,67,0
9728,note_on,,,,,0,0,4,,,,,3,,,66,92
9788,note_off,,,,,188,0,7,,,,,5,,,52,0
9788,note_off,,,,,188,0,6,,,,,5,,,61,0
9788,note_off,,,,,188,0,2,,,,,1,,,52,0
9788,note_off,,,,,0,0,6,,,,,5,,,67,0
9788,note_off,,,,,188,0,8,,,,,6,,,52,0
9792,note_off,,,,,64,0,4,,,,,3,,,66,0
9792,note_on,,,,,4,0,7,,,,,5,,,45,92
9792,note_on,,,,,4,0,8,,,,,6,,,45,92
9792,note_off,,,,,64,0,3,,,,,2,,,66,0
9792,note_on,,,,,0,0,3,,,,,2,,,64,92
9792,note_off,,,,,64,0,1,,,,,0,,,66,0
9792,note_on,,,,,0,0,6,,,,,5,,,67,92
9792,note_on,,,,,0,0,4,,,,,3,,,64,92
9792,note_on,,,,,0,0,1,,,,,0,,,64,92
9792,note_on,,,,,4,0,2,,,,,1,,,45,92
9792,note_on,,,,,4,0,6,,,,,5,,,61,92
9856,note_on,,,,,0,0,1,,,,,0,,,62,92
9856,note_off,,,,,64,0,1,,,,,0,,,64,0
9856,note_on,,,,,0,0,3,,,,,2,,,62,92
9856,note_off,,,,,64,0,3,,,,,2,,,64,0
9856,note_on,,,,,0,0,4,,,,,3,,,62,92
9856,note_off,,,,,64,0,4,,,,,3,,,64,0
9920,note_off,,,,,64,0,1,,,,,0,,,62,0
9920,note_on,,,,,0,0,3,,,,,2,,,61,92
9920,note_off,,,,,64,0,3,,,,,2,,,62,0
9920,note_on,,,,,0,0,4,,,,,3,,,61,92
9920,note_off,,,,,64,0,4,,,,,3,,,62,0
9920,note_on,,,,,0,0,1,,,,,0,,,61,92
9920,note_off,,,,,320,0,5,,,,,4,,,61,0
9980,note_off,,,,,60,0,1,,,,,0,,,61,0
9980,note_off,,,,,188,0,6,,,,,5,,,61,0
9980,note_off,,,,,0,0,6,,,,,5,,,67,0
9980,note_off,,,,,188,0,2,,,,,1,,,45,0
9980,note_off,,,,,60,0,4,,,,,3,,,61,0
9980,note_off,,,,,188,0,8,,,,,6,,,45,0
9980,note_off,,,,,188,0,7,,,,,5,,,45,0
9980,note_off,,,,,60,0,3,,,,,2,,,61,0
9984,note_on,,,,,4,0,1,,,,,0,,,62,92
9984,note_on,,,,,0,0,6,,,,,5,,,62,92
9984,note_on,,,,,0,0,6,,,,,5,,,66,92
9984,note_on,,,,,4,0,2,,,,,1,,,50,92
9984,note_on,,,,,4,0,4,,,,,3,,,62,92
9984,note_on,,,,,4,0,8,,,,,6,,,50,92
9984,note_on,,,,,64,0,5,,,,,4,,,57,92
9984,note_on,,,,,4,0,6,,,,,5,,,57,92
9984,note_on,,,,,4,0,7,,,,,5,,,50,92
9984,note_on,,,,,4,0,3,,,,,2,,,62,92
10172,note_off,,,,,188,0,4,,,,,3,,,62,0
10172,note_off,,,,,0,0,6,,,,,5,,,66,0
10172,note_off,,,,,0,0,6,,,,,5,,,62,0
10172,note_off,,,,,188,0,3,,,,,2,,,62,0
10172,note_off,,,,,188,0,6,,,,,5,,,57,0
10172,note_off,,,,,188,0,7,,,,,5,,,50,0
10172,note_off,,,,,188,0,8,,,,,6,,,50,0
10172,note_off,,,,,188,0,1,,,,,0,,,62,0
10172,note_off,,,,,188,0,2,,,,,1,,,50,0
10176,note_on,,,,,4,0,8,,,,,6,,,52,92
10176,note_on,,,,,4,0,2,,,,,1,,,52,92
10176,note_on,,,,,4,0,3,,,,,2,,,57,92
10176,note_on,,,,,0,0,6,,,,,5,,,69,92
10176,note_on,,,,,4,0,4,,,,,3,,,57,92
10176,note_on,,,,,4,0,7,,,,,5,,,52,92
10176,note_on,,,,,4,0,1,,,,,0,,,69,92
10176,note_on,,,,,4,0,6,,,,,5,,,61,92
10304,note_off,,,,,320,0,5,,,,,4,,,57,0
10364,note_off,,,,,188,0,6,,,,,5,,,61,0
10364,note_off,,,,,188,0,8,,,,,6,,,52,0
10364,note_off,,,,,188,0,7,,,,,5,,,52,0
10364,note_off,,,,,188,0,3,,,,,2,,,57,0
10364,note_off,,,,,188,0,1,,,,,0,,,69,0
10364,note_off,,,,,188,0,4,,,,,3,,,57,0
10364,note_off,,,,,188,0,2,,,,,1,,,52,0
10368,note_on,,,,,4,0,7,,,,,5,,,54,92
10368,note_on,,,,,4,0,2,,,,,1,,,54,92
10368,note_on,,,,,4,0,6,,,,,5,,,62,92
10368,note_on,,,,,4,0,8,,,,,6,,,54,92
10368,note_on,,,,,64,0,5,,,,,4,,,69,92
10432,note_on,,,,,68,0,3,,,,,2,,,78,92
10432,note_on,,,,,68,0,4,,,,,3,,,78,92
10432,note_on,,,,,68,0,1,,,,,0,,,78,92
10496,note_off,,,,,64,0,4,,,,,3,,,78,0
10496,note_on,,,,,0,0,4,,,,,3,,,79,92
10496,note_off,,,,,128,0,6,,,,,5,,,69,0
10496,note_on,,,,,0,0,3,,,,,2,,,79,92
10496,note_off,,,,,64,0,1,,,,,0,,,78,0
10496,note_off,,,,,64,0,3,,,,,2,,,78,0
10496,note_on,,,,,0,0,1,,,,,0,,,79,92
10556,note_off,,,,,188,0,7,,,,,5,,,54,0
10556,note_off,,,,,188,0,8,,,,,6,,,54,0
10556,note_off,,,,,60,0,6,,,,,5,,,62,0
10556,note_off,,,,,188,0,5,,,,,4,,,69,0
10556,note_off,,,,,188,0,2,,,,,1,,,54,0
10560,note_on,,,,,0,0,3,,,,,2,,,81,92
10560,note_off,,,,,64,0,4,,,,,3,,,79,0
10560,note_on,,,,,0,0,4,,,,,3,,,81,92
10560,note_on,,,,,4,0,2,,,,,1,,,52,92
10560,note_on,,,,,0,0,6,,,,,5,,,73,92
10560,note_on,,,,,4,0,5,,,,,4,,,67,92
10560,note_off,,,,,64,0,1,,,,,0,,,79,0
10560,note_on,,,,,0,0,1,,,,,0,,,81,92
10560,note_off,,,,,64,0,3,,,,,2,,,79,0
10560,note_on,,,,,4,0,6,,,,,5,,,67,92
10560,note_on,,,,,4,0,8,,,,,6,,,52,92
10560,note_on,,,,,4,0,7,,,,,5,,,52,92
10624,note_on,,,,,0,0,3,,,,,2,,,83,92
10624,note_off,,,,,64,0,3,,,,,2,,,81,0
10624,note_on,,,,,0,0,4,,,,,3,,,83,92
10624,note_off,,,,,64,0,4,,,,,3,,,81,0
10624,note_off,,,,,64,0,1,,,,,0,,,81,0
10624,note_on,,,,,0,0,1,,,,,0,,,83,92
10688,note_on,,,,,0,0,4,,,,,3,,,85,92
10688,note_on,,,,,0,0,1,,,,,0,,,85,92
10688,note_off,,,,,64,0,3,,,,,2,,,83,0
10688,note_on,,,,,0,0,3,,,,,2,,,85,92
10688,note_off,,,,,64,0,4,,,,,3,,,83,0
10688,note_off,,,,,64,0,1,,,,,0,,,83,0
10748,note_off,,,,,60,0,4,,,,,3,,,85,0
10748,note_off,,,,,60,0,1,,,,,0,,,85,0
10748,note_off,,,,,188,0,8,,,,,6,,,52,0
10748,note_off,,,,,60,0,3,,,,,2,,,85,0
10748,note_off,,,,,188,0,5,,,,,4,,,67,0
10748,note_off,,,,,188,0,7,,,,,5,,,52,0
10748,note_off,,,,,188,0,6,,,,,5,,,67,0
10748,note_off,,,,,0,0,6,,,,,5,,,73,0
10748,note_off,,,,,188,0,2,,,,,1,,,52,0
10752,note_on,,,,,4,0,6,,,,,5,,,66,92
10752,note_on,,,,,0,0,6,,,,,5,,,69,92
10752,note_on,,,,,4,0,4,,,,,3,,,86,92
10752,note_on,,,,,0,0,6,,,,,5,,,74,92
10752,note_on,,,,,4,0,1,,,,,0,,,86,92
10752,note_on,,,,,4,0,8,,,,,6,,,50,92
10752,note_on,,,,,4,0,5,,,,,4,,,66,92
10752,note_on,,,,,4,0,3,,,,,2,,,86,92
10752,note_on,,,,,4,0,2,,,,,1,,,50,92
10752,note_on,,,,,4,0,7,,,,,5,,,50,92
10940,note_off,,,,,188,0,7,,,,,5,,,50,0
10940,note_off,,,,,188,0,2,,,,,1,,,50,0
10940,note_off,,,,,0,0,6,,,,,5,,,74,0
10940,note_off,,,,,188,0,8,,,,,6,,,50,0
10940,note_off,,,,,188,0,6,,,,,5,,,66,0
10940,note_off,,,,,188,0,5,,,,,4,,,66,0
10940,note_off,,,,,188,0,1,,,,,0,,,86,0
10940,note_off,,,,,0,0,6,,,,,5,,,69,0
10940,note_off,,,,,188,0,3,,,,,2,,,86,0
10940,note_off,,,,,188,0,4,,,,,3,,,86,0
10944,note_on,,,,,4,0,5,,,,,4,,,62,92
10944,note_on,,,,,4,0,1,,,,,0,,,74,92
10944,note_on,,,,,4,0,2,,,,,1,,,59,92
10944,note_on,,,,,4,0,4,,,,,3,,,74,92
10944,note_on,,,,,4,0,3,,,,,2,,,74,92
10944,note_on,,,,,4,0,7,,,,,5,,,59,92
10944,note_on,,,,,4,0,6,,,,,5,,,67,92
10944,note_on,,,,,0,0,6,,,,,5,,,74,92
10944,note_on,,,,,4,0,8,,,,,6,,,59,92
11132,note_off,,,,,188,0,2,,,,,1,,,59,0
11132,note_off,,,,,188,0,4,,,,,3,,,74,0
11132,note_off,,,,,188,0,6,,,,,5,,,67,0
11132,note_off,,,,,188,0,3,,,,,2,,,74,0
11132,note_off,,,,,188,0,7,,,,,5,,,59,0
11132,note_off,,,,,188,0,8,,,,,6,,,59,0
11132,note_off,,,,,188,0,1,,,,,0,,,74,0
11136,note_on,,,,,4,0,6,,,,,5,,,64,92
11136,note_on,,,,,4,0,7,,,,,5,,,57,92
11136,note_on,,,,,0,0,6,,,,,5,,,69,92
11136,note_on,,,,,4,0,4,,,,,3,,,76,92
11136,note_on,,,,,4,0,2,,,,,1,,,57,92
11136,note_on,,,,,4,0,3,,,,,2,,,76,92
11136,note_on,,,,,4,0,1,,,,,0,,,76,92
11136,note_on,,,,,4,0,8,,,,,6,,,57,92
11264,note_off,,,,,320,0,5,,,,,4,,,62,0
11324,note_off,,,,,188,0,2,,,,,1,,,57,0
11324,note_off,,,,,188,0,7,,,,,5,,,57,0
11324,note_off,,,,,188,0,6,,,,,5,,,74,0
11324,note_off,,,,,188,0,8,,,,,6,,,57,0
11328,note_on,,,,,4,0,7,,,,,5,,,45,92
11328,note_on,,,,,4,0,8,,,,,6,,,45,92
11328,note_on,,,,,4,0,6,,,,,5,,,73,92
11328,note_on,,,,,4,0,2,,,,,1,,,45,92
11328,note_on,,,,,64,0,5,,,,,4,,,61,92
11456,note_off,,,,,0,0,6,,,,,5,,,69,0
11456,note_off,,,,,128,0,6,,,,,5,,,64,0
11456,note_off,,,,,320,0,4,,,,,3,,,76,0
11456,note_off,,,,,320,0,3,,,,,2,,,76,0
11456,note_off,,,,,320,0,1,,,,,0,,,76,0
11516,note_off,,,,,188,0,2,,,,,1,,,45,0
11516,note_off,,,,,188,0,7,,,,,5,,,45,0
11516,note_off,,,,,188,0,8,,,,,6,,,45,0
11516,note_off,,,,,60,0,6,,,,,5,,,73,0
11516,note_off,,,,,188,0,5,,,,,4,,,61,0
11520,note_on,,,,,4,0,5,,,,,4,,,62,92
11520,note_on,,,,,0,0,6,,,,,5,,,69,92
11520,note_on,,,,,4,0,2,,,,,1,,,50,92
11520,note_on,,,,,0,0,6,,,,,5,,,74,92
11520,note_on,,,,,64,0,4,,,,,3,,,74,92
11520,note_on,,,,,4,0,8,,,,,6,,,50,92
11520,note_on,,,,,64,0,1,,,,,0,,,74,92
11520,note_on,,,,,4,0,6,,,,,5,,,66,92
11520,note_on,,,,,64,0,3,,,,,2,,,74,92
11520,note_on,,,,,4,0,7,,,,,5,,,50,92
11708,note_off,,,,,188,0,4,,,,,3,,,74,0
11708,note_off,,,,,188,0,8,,,,,6,,,50,0
11708,note_off,,,,,188,0,2,,,,,1,,,50,0
11708,note_off,,,,,0,0,6,,,,,5,,,74,0
11708,note_off,,,,,0,0,6,,,,,5,,,69,0
11708,note_off,,,,,188,0,6,,,,,5,,,66,0
11708,note_off,,,,,188,0,7,,,,,5,,,50,0
11708,note_off,,,,,188,0,5,,,,,4,,,62,0
11712,note_on,,,,,0,0,6,,,,,5,,,69,92
11712,note_on,,,,,0,0,6,,,,,5,,,66,92
11712,note_on,,,,,4,0,4,,,,,3,,,69,92
11712,note_on,,,,,4,0,7,,,,,5,,,50,92
11712,note_on,,,,,4,0,5,,,,,4,,,66,92
11712,note_on,,,,,4,0,2,,,,,1,,,50,92
11712,note_on,,,,,4,0,6,,,,,5,,,62,92
11712,note_on,,,,,4,0,8,,,,,6,,,50,92
11804,note_off,,,,,92,0,4,,,,,3,,,69,0
11804,note_off,,,,,92,0,5,,,,,4,,,66,0
11808,note_on,,,,,4,0,5,,,,,4,,,62,92
11808,note_on,,,,,4,0,4,,,,,3,,,66,92
11840,note_off,,,,,320,0,1,,,,,0,,,74,0
11840,note_off,,,,,320,0,3,,,,,2,,,74,0
11900,note_off,,,,,188,0,2,,,,,1,,,50,0
11900,note_off,,,,,92,0,5,,,,,4,,,62,0
11900,note_off,,,,,188,0,7,,,,,5,,,50,0
11900,note_off,,,,,92,0,4,,,,,3,,,66,0
11900,note_off,,,,,188,0,8,,,,,6,,,50,0
11904,note_on,,,,,4,0,2,,,,,1,,,50,92
11904,note_on,,,,,4,0,7,,,,,5,,,50,92
11904,note_on,,,,,4,0,4,,,,,3,,,69,92
11904,note_on,,,,,4,0,8,,,,,6,,,50,92
11904,note_on,,,,,4,0,5,,,,,4,,,66,92
11996,note_off,,,,,92,0,4,,,,,3,,,69,0
11996,note_off,,,,,92,0,5,,,,,4,,,66,0
12000,note_on,,,,,4,0,5,,,,,4,,,62,92
12000,note_on,,,,,4,0,4,,,,,3,,,66,92
12032,note_off,,,,,0,0,6,,,,,5,,,66,0
12032,note_off,,,,,0,0,6,,,,,5,,,69,0
12032,note_off,,,,,320,0,6,,,,,5,,,62,0
12092,note_off,,,,,188,0,2,,,,,1,,,50,0
12092,note_off,,,,,188,0,8,,,,,6,,,50,0
12092,note_off,,,,,92,0,5,,,,,4,,,62,0
12092,note_off,,,,,92,0,4,,,,,3,,,66,0
12092,note_off,,,,,188,0,7,,,,,5,,,50,0
12096,note_on,,,,,4,0,4,,,,,3,,,69,92
12096,note_on,,,,,0,0,6,,,,,5,,,69,92
12096,note_on,,,,,0,0,6,,,,,5,,,66,92
12096,note_on,,,,,64,0,6,,,,,5,,,62,92
12096,note_on,,,,,4,0,2,,,,,1,,,50,92
12096,note_on,,,,,4,0,5,,,,,4,,,66,92
12096,note_on,,,,,256,0,3,,,,,2,,,72,92
12096,note_on,,,,,4,0,8,,,,,6,,,50,92
12096,note_on,,,,,4,0,7,,,,,5,,,50,92
12096,note_on,,,,,256,0,1,,,,,0,,,72,92
12188,note_off,,,,,92,0,5,,,,,4,,,66,0
12188,note_off,,,,,92,0,4,,,,,3,,,69,0
12192,note_on,,,,,4,0,4,,,,,3,,,66,92
12192,note_on,,,,,4,0,5,,,,,4,,,62,92
12284,note_off,,,,,188,0,2,,,,,1,,,50,0
12284,note_off,,,,,188,0,7,,,,,5,,,50,0
12284,note_off,,,,,188,0,1,,,,,0,,,72,0
12284,note_off,,,,,92,0,4,,,,,3,,,66,0
12284,note_off,,,,,188,0,8,,,,,6,,,50,0
12284,note_off,,,,,0,0,6,,,,,5,,,66,0
12284,note_off,,,,,0,0,6,,,,,5,,,69,0
12284,note_off,,,,,92,0,5,,,,,4,,,62,0
12284,note_off,,,,,188,0,6,,,,,5,,,62,0
12284,note_off,,,,,188,0,3,,,,,2,,,72,0
12288,note_on,,,,,4,0,3,,,,,2,,,74,92
12288,note_on,,,,,4,0,4,,,,,3,,,69,92
12288,note_on,,,,,4,0,1,,,,,0,,,74,92
12288,note_on,,,,,4,0,6,,,,,5,,,62,92
12288,note_on,,,,,0,0,6,,,,,5,,,66,92
12288,note_on,,,,,0,0,6,,,,,5,,,72,92
12288,note_on,,,,,4,0,7,,,,,5,,,50,92
12288,note_on,,,,,4,0,8,,,,,6,,,50,92
12288,note_on,,,,,4,0,2,,,,,1,,,50,92
12288,note_on,,,,,4,0,5,,,,,4,,,66,92
12336,note_off,,,,,48,0,1,,,,,0,,,74,0
12336,note_off,,,,,48,0,3,,,,,2,,,74,0
12336,note_on,,,,,0,0,3,,,,,2,,,72,92
12336,note_on,,,,,0,0,1,,,,,0,,,72,92
12380,note_off,,,,,92,0,5,,,,,4,,,66,0
12380,note_off,,,,,92,0,4,,,,,3,,,69,0
12384,note_on,,,,,4,0,4,,,,,3,,,66,92
12384,note_on,,,,,0,0,3,,,,,2,,,71,92
12384,note_off,,,,,48,0,3,,,,,2,,,72,0
12384,note_on,,,,,0,0,1,,,,,0,,,71,92
12384,note_on,,,,,4,0,5,,,,,4,,,62,92
12384,note_off,,,,,48,0,1,,,,,0,,,72,0
12476,note_off,,,,,92,0,4,,,,,3,,,66,0
12476,note_off,,,,,92,0,5,,,,,4,,,62,0
12476,note_off,,,,,188,0,2,,,,,1,,,50,0
12476,note_off,,,,,188,0,8,,,,,6,,,50,0
12476,note_off,,,,,188,0,7,,,,,5,,,50,0
12480,note_on,,,,,4,0,8,,,,,6,,,50,92
12480,note_on,,,,,4,0,4,,,,,3,,,69,92
12480,note_on,,,,,0,0,1,,,,,0,,,72,92
12480,note_on,,,,,4,0,5,,,,,4,,,66,92
12480,note_off,,,,,96,0,3,,,,,2,,,71,0
12480,note_on,,,,,4,0,7,,,,,5,,,50,92
12480,note_on,,,,,4,0,2,,,,,1,,,50,92
12480,note_off,,,,,96,0,1,,,,,0,,,71,0
12480,note_on,,,,,0,0,3,,,,,2,,,72,92
12572,note_off,,,,,92,0,4,,,,,3,,,69,0
12572,note_off,,,,,92,0,5,,,,,4,,,66,0
12576,note_on,,,,,4,0,5,,,,,4,,,62,92
12576,note_on,,,,,4,0,4,,,,,3,,,66,92
12608,note_off,,,,,0,0,6,,,,,5,,,72,0
12608,note_off,,,,,320,0,6,,,,,5,,,62,0
12608,note_off,,,,,0,0,6,,,,,5,,,66,0
12668,note_off,,,,,92,0,4,,,,,3,,,66,0
12668,note_off,,,,,92,0,5,,,,,4,,,62,0
12668,note_off,,,,,188,0,2,,,,,1,,,50,0
12668,note_off,,,,,188,0,7,,,,,5,,,50,0
12668,note_off,,,,,188,0,1,,,,,0,,,72,0
12668,note_off,,,,,188,0,8,,,,,6,,,50,0
12668,note_off,,,,,188,0,3,,,,,2,,,72,0
12672,note_on,,,,,0,0,6,,,,,5,,,66,92
12672,note_on,,,,,0,0,6,,,,,5,,,72,92
12672,note_on,,,,,4,0,1,,,,,0,,,74,92
12672,note_on,,,,,4,0,5,,,,,4,,,66,92
12672,note_on,,,,,4,0,2,,,,,1,,,50,92
12672,note_on,,,,,64,0,6,,,,,5,,,62,92
12672,note_on,,,,,4,0,4,,,,,3,,,69,92
12672,note_on,,,,,4,0,3,,,,,2,,,74,92
12672,note_on,,,,,4,0,7,,,,,5,,,50,92
12672,note_on,,,,,4,0,8,,,,,6,,,50,92
12720,note_off,,,,,48,0,3,,,,,2,,,74,0
12720,note_on,,,,,0,0,3,,,,,2,,,72,92
12720,note_on,,,,,0,0,1,,,,,0,,,72,92
12720,note_off,,,,,48,0,1,,,,,0,,,74,0
12764,note_off,,,,,92,0,4,,,,,3,,,69,0
12764,note_off,,,,,92,0,5,,,,,4,,,66,0
12768,note_off,,,,,48,0,1,,,,,0,,,72,0
12768,note_on,,,,,4,0,4,,,,,3,,,66,92
12768,note_on,,,,,4,0,5,,,,,4,,,62,92
12768,note_on,,,,,0,0,1,,,,,0,,,71,92
12768,note_off,,,,,48,0,3,,,,,2,,,72,0
12768,note_on,,,,,0,0,3,,,,,2,,,71,92
12860,note_off,,,,,92,0,5,,,,,4,,,62,0
12860,note_off,,,,,188,0,2,,,,,1,,,50,0
12860,note_off,,,,,188,0,7,,,,,5,,,50,0
12860,note_off,,,,,92,0,4,,,,,3,,,66,0
12860,note_off,,,,,188,0,8,,,,,6,,,50,0
12864,note_on,,,,,4,0,8,,,,,6,,,50,92
12864,note_off,,,,,96,0,3,,,,,2,,,71,0
12864,note_on,,,,,0,0,3,,,,,2,,,72,92
12864,note_on,,,,,0,0,1,,,,,0,,,72,92
12864,note_off,,,,,96,0,1,,,,,0,,,71,0
12864,note_on,,,,,4,0,4,,,,,3,,,69,92
12864,note_on,,,,,4,0,2,,,,,1,,,50,92
12864,note_on,,,,,4,0,7,,,,,5,,,50,92
12864,note_on,,,,,4,0,5,,,,,4,,,66,92
12956,note_off,,,,,92,0,4,,,,,3,,,69,0
12956,note_off,,,,,92,0,5,,,,,4,,,66,0
12960,note_on,,,,,4,0,5,,,,,4,,,62,92
12960,note_on,,,,,4,0,4,,,,,3,,,66,92
12992,note_off,,,,,0,0,6,,,,,5,,,72,0
12992,note_off,,,,,0,0,6,,,,,5,,,66,0
12992,note_off,,,,,320,0,6,,,,,5,,,62,0
13052,note_off,,,,,188,0,3,,,,,2,,,72,0
13052,note_off,,,,,188,0,2,,,,,1,,,50,0
13052,note_off,,,,,188,0,7,,,,,5,,,50,0
13052,note_off,,,,,188,0,1,,,,,0,,,72,0
13052,note_off,,,,,188,0,8,,,,,6,,,50,0
13052,note_off,,,,,92,0,5,,,,,4,,,62,0
13052,note_off,,,,,92,0,4,,,,,3,,,66,0
13056,note_on,,,,,4,0,2,,,,,1,,,50,92
13056,note_on,,,,,4,0,1,,,,,0,,,72,92
13056,note_on,,,,,4,0,8,,,,,6,,,50,92
13056,note_on,,,,,0,0,6,,,,,5,,,72,92
13056,note_on,,,,,0,0,6,,,,,5,,,66,92
13056,note_on,,,,,4,0,5,,,,,4,,,66,92
13056,note_on,,,,,64,0,6,,,,,5,,,62,92
13056,note_on,,,,,4,0,7,,,,,5,,,50,92
13056,note_on,,,,,4,0,3,,,,,2,,,72,92
13056,note_on,,,,,4,0,4,,,,,3,,,69,92
13120,note_on,,,,,0,0,1,,,,,0,,,74,92
13120,note_off,,,,,64,0,1,,,,,0,,,72,0
13120,note_off,,,,,64,0,3,,,,,2,,,72,0
13120,note_on,,,,,0,0,3,,,,,2,,,74,92
13148,note_off,,,,,92,0,4,,,,,3,,,69,0
13148,note_off,,,,,92,0,5,,,,,4,,,66,0
13152,note_on,,,,,4,0,4,,,,,3,,,66,92
13152,note_on,,,,,4,0,5,,,,,4,,,62,92
13184,note_off,,,,,64,0,3,,,,,2,,,74,0
13184,note_off,,,,,64,0,1,,,,,0,,,74,0
13184,note_on,,,,,0,0,1,,,,,0,,,76,92
13184,note_on,,,,,0,0,3,,,,,2,,,76,92
13244,note_off,,,,,188,0,8,,,,,6,,,50,0
13244,note_off,,,,,188,0,7,,,,,5,,,50,0
13244,note_off,,,,,188,0,2,,,,,1,,,50,0
13244,note_off,,,,,92,0,5,,,,,4,,,62,0
13244,note_off,,,,,92,0,4,,,,,3,,,66,0
13248,note_on,,,,,4,0,2,,,,,1,,,50,92
13248,note_on,,,,,4,0,4,,,,,3,,,69,92
13248,note_on,,,,,0,0,3,,,,,2,,,78,92
13248,note_on,,,,,0,0,1,,,,,0,,,78,92
13248,note_off,,,,,64,0,1,,,,,0,,,76,0
13248,note_off,,,,,64,0,3,,,,,2,,,76,0
13248,note_on,,,,,4,0,7,,,,,5,,,50,92
13248,note_on,,,,,4,0,8,,,,,6,,,50,92
13248,note_on,,,,,4,0,5,,,,,4,,,66,92
13312,note_on,,,,,0,0,1,,,,,0,,,79,92
13312,note_off,,,,,64,0,1,,,,,0,,,78,0
13312,note_off,,,,,64,0,3,,,,,2,,,78,0
13312,note_on,,,,,0,0,3,,,,,2,,,79,92
13340,note_off,,,,,92,0,5,,,,,4,,,66,0
13340,note_off,,,,,92,0,4,,,,,3,,,69,0
13344,note_on,,,,,4,0,5,,,,,4,,,62,92
13344,note_on,,,,,4,0,4,,,,,3,,,66,92
13376,note_off,,,,,320,0,6,,,,,5,,,62,0
13376,note_on,,,,,0,0,3,,,,,2,,,81,92
13376,note_off,,,,,64,0,3,,,,,2,,,79,0
13376,note_on,,,,,0,0,1,,,,,0,,,81,92
13376,note_off,,,,,64,0,1,,,,,0,,,79,0
13376,note_off,,,,,0,0,6,,,,,5,,,72,0
13376,note_off,,,,,0,0,6,,,,,5,,,66,0
13436,note_off,,,,,60,0,1,,,,,0,,,81,0
13436,note_off,,,,,92,0,5,,,,,4,,,62,0
13436,note_off,,,,,188,0,8,,,,,6,,,50,0
13436,note_off,,,,,92,0,4,,,,,3,,,66,0
13436,note_off,,,,,60,0,3,,,,,2,,,81,0
13436,note_off,,,,,188,0,2,,,,,1,,,50,0
13436,note_off,,,,,188,0,7,,,,,5,,,50,0
13440,note_on,,,,,4,0,4,,,,,3,,,69,92
13440,note_on,,,,,4,0,2,,,,,1,,,50,92
13440,note_on,,,,,4,0,5,,,,,4,,,66,92
13440,note_on,,,,,4,0,7,,,,,5,,,50,92
13440,note_on,,,,,0,0,6,,,,,5,,,78,92
13440,note_on,,,,,4,0,8,,,,,6,,,50,92
13440,note_on,,,,,64,0,6,,,,,5,,,69,92
13440,note_on,,,,,4,0,1,,,,,0,,,81,92
13440,note_on,,,,,4,0,3,,,,,2,,,81,92
13440,note_on,,,,,0,0,6,,,,,5,,,72,92
13532,note_off,,,,,92,0,4,,,,,3,,,69,0
13532,note_off,,,,,92,0,5,,,,,4,,,66,0
13536,note_on,,,,,4,0,5,,,,,4,,,62,92
13536,note_on,,,,,4,0,4,,,,,3,,,66,92
13628,note_off,,,,,188,0,8,,,,,6,,,50,0
13628,note_off,,,,,188,0,7,,,,,5,,,50,0
13628,note_off,,,,,92,0,4,,,,,3,,,66,0
13628,note_off,,,,,188,0,3,,,,,2,,,81,0
13628,note_off,,,,,188,0,1,,,,,0,,,81,0
13628,note_off,,,,,188,0,2,,,,,1,,,50,0
13628,note_off,,,,,92,0,5,,,,,4,,,62,0
13632,note_on,,,,,4,0,2,,,,,1,,,50,92
13632,note_on,,,,,4,0,5,,,,,4,,,66,92
13632,note_on,,,,,4,0,8,,,,,6,,,50,92
13632,note_on,,,,,4,0,4,,,,,3,,,69,92
13632,note_on,,,,,4,0,7,,,,,5,,,50,92
13724,note_off,,,,,92,0,4,,,,,3,,,69,0
13724,note_off,,,,,92,0,5,,,,,4,,,66,0
13728,note_on,,,,,4,0,5,,,,,4,,,62,92
13728,note_on,,,,,4,0,4,,,,,3,,,66,92
13760,note_off,,,,,0,0,6,,,,,5,,,72,0
13760,note_off,,,,,0,0,6,,,,,5,,,78,0
13760,note_off,,,,,320,0,6,,,,,5,,,69,0
13820,note_off,,,,,92,0,5,,,,,4,,,62,0
13820,note_off,,,,,188,0,8,,,,,6,,,50,0
13820,note_off,,,,,188,0,2,,,,,1,,,50,0
13820,note_off,,,,,188,0,7,,,,,5,,,50,0
13820,note_off,,,,,92,0,4,,,,,3,,,66,0
13824,note_on,,,,,0,0,6,,,,,5,,,71,92
13824,note_on,,,,,4,0,8,,,,,6,,,55,92
13824,note_on,,,,,64,0,6,,,,,5,,,62,92
13824,note_on,,,,,4,0,7,,,,,5,,,55,92
13824,note_on,,,,,4,0,5,,,,,4,,,62,92
13824,note_on,,,,,0,0,6,,,,,5,,,67,92
13824,note_on,,,,,196,0,3,,,,,2,,,72,92
13824,note_on,,,,,196,0,1,,,,,0,,,72,92
13824,note_on,,,,,4,0,2,,,,,1,,,55,92
13824,note_on,,,,,4,0,4,,,,,3,,,71,92
13872,note_on,,,,,0,0,3,,,,,2,,,71,92
13872,note_off,,,,,48,0,3,,,,,2,,,72,0
13872,note_on,,,,,0,0,1,,,,,0,,,71,92
13872,note_off,,,,,48,0,1,,,,,0,,,72,0
13916,note_off,,,,,92,0,5,,,,,4,,,62,0
13916,note_off,,,,,92,0,4,,,,,3,,,71,0
13920,note_off,,,,,48,0,3,,,,,2,,,71,0
13920,note_off,,,,,48,0,1,,,,,0,,,71,0
13920,note_on,,,,,0,0,1,,,,,0,,,69,92
13920,note_on,,,,,4,0,5,,,,,4,,,59,92
13920,note_on,,,,,4,0,4,,,,,3,,,67,92
13920,note_on,,,,,0,0,3,,,,,2,,,69,92
14012,note_off,,,,,92,0,5,,,,,4,,,59,0
14012,note_off,,,,,188,0,8,,,,,6,,,55,0
14012,note_off,,,,,188,0,2,,,,,1,,,55,0
14012,note_off,,,,,92,0,4,,,,,3,,,67,0
14012,note_off,,,,,188,0,7,,,,,5,,,55,0
14016,note_on,,,,,4,0,4,,,,,3,,,71,92
14016,note_on,,,,,4,0,7,,,,,5,,,55,92
14016,note_on,,,,,4,0,8,,,,,6,,,55,92
14016,note_on,,,,,4,0,2,,,,,1,,,55,92
14016,note_on,,,,,0,0,3,,,,,2,,,71,92
14016,note_off,,,,,96,0,3,,,,,2,,,69,0
14016,note_on,,,,,4,0,5,,,,,4,,,62,92
14016,note_on,,,,,0,0,1,,,,,0,,,71,92
14016,note_off,,,,,96,0,1,,,,,0,,,69,0
14108,note_off,,,,,92,0,5,,,,,4,,,62,0
14108,note_off,,,,,92,0,4,,,,,3,,,71,0
14112,note_on,,,,,4,0,5,,,,,4,,,59,92
14112,note_on,,,,,4,0,4,,,,,3,,,67,92
14144,note_off,,,,,320,0,6,,,,,5,,,62,0
14144,note_off,,,,,0,0,6,,,,,5,,,71,0
14144,note_off,,,,,0,0,6,,,,,5,,,67,0
14204,note_off,,,,,188,0,2,,,,,1,,,55,0
14204,note_off,,,,,92,0,5,,,,,4,,,59,0
14204,note_off,,,,,188,0,8,,,,,6,,,55,0
14204,note_off,,,,,188,0,7,,,,,5,,,55,0
14204,note_off,,,,,188,0,3,,,,,2,,,71,0
14204,note_off,,,,,92,0,4,,,,,3,,,67,0
14204,note_off,,,,,188,0,1,,,,,0,,,71,0
14208,note_on,,,,,0,0,6,,,,,5,,,71,92
14208,note_on,,,,,64,0,6,,,,,5,,,62,92
14208,note_on,,,,,4,0,3,,,,,2,,,72,92
14208,note_on,,,,,4,0,8,,,,,6,,,55,92
14208,note_on,,,,,4,0,2,,,,,1,,,55,92
14208,note_on,,,,,4,0,4,,,,,3,,,71,92
14208,note_on,,,,,4,0,1,,,,,0,,,72,92
14208,note_on,,,,,4,0,7,,,,,5,,,55,92
14208,note_on,,,,,0,0,6,,,,,5,,,67,92
14208,note_on,,,,,4,0,5,,,,,4,,,62,92
14256,note_off,,,,,48,0,3,,,,,2,,,72,0
14256,note_on,,,,,0,0,3,,,,,2,,,71,92
14256,note_off,,,,,48,0,1,,,,,0,,,72,0
14256,note_on,,,,,0,0,1,,,,,0,,,71,92
14300,note_off,,,,,92,0,4,,,,,3,,,71,0
14300,note_off,,,,,92,0,5,,,,,4,,,62,0
14304,note_off,,,,,48,0,3,,,,,2,,,71,0
14304,note_off,,,,,48,0,1,,,,,0,,,71,0
14304,note_on,,,,,4,0,5,,,,,4,,,59,92
14304,note_on,,,,,0,0,3,,,,,2,,,69,92
14304,note_on,,,,,0,0,1,,,,,0,,,69,92
14304,note_on,,,,,4,0,4,,,,,3,,,67,92
14396,note_off,,,,,92,0,5,,,,,4,,,59,0
14396,note_off,,,,,188,0,8,,,,,6,,,55,0
14396,note_off,,,,,92,0,4,,,,,3,,,67,0
14396,note_off,,,,,188,0,2,,,,,1,,,55,0
14396,note_off,,,,,188,0,7,,,,,5,,,55,0
14400,note_on,,,,,4,0,5,,,,,4,,,62,92
14400,note_on,,,,,4,0,4,,,,,3,,,71,92
14400,note_on,,,,,0,0,3,,,,,2,,,71,92
14400,note_off,,,,,96,0,3,,,,,2,,,69,0
14400,note_on,,,,,4,0,2,,,,,1,,,55,92
14400,note_on,,,,,0,0,1,,,,,0,,,71,92
14400,note_off,,,,,96,0,1,,,,,0,,,69,0
14400,note_on,,,,,4,0,8,,,,,6,,,55,92
14400,note_on,,,,,4,0,7,,,,,5,,,55,92
14492,note_off,,,,,92,0,4,,,,,3,,,71,0
14492,note_off,,,,,92,0,5,,,,,4,,,62,0
14496,note_on,,,,,4,0,4,,,,,3,,,67,92
14496,note_on,,,,,4,0,5,,,,,4,,,59,92
14528,note_off,,,,,0,0,6,,,,,5,,,67,0
14528,note_off,,,,,320,0,6,,,,,5,,,62,0
14528,note_off,,,,,0,0,6,,,,,5,,,71,0
14588,note_off,,,,,92,0,5,,,,,4,,,59,0
14588,note_off,,,,,188,0,8,,,,,6,,,55,0
14588,note_off,,,,,188,0,2,,,,,1,,,55,0
14588,note_off,,,,,188,0,1,,,,,0,,,71,0
14588,note_off,,,,,92,0,4,,,,,3,,,67,0
14588,note_off,,,,,188,0,3,,,,,2,,,71,0
14588,note_off,,,,,188,0,7,,,,,5,,,55,0
14592,note_on,,,,,4,0,7,,,,,5,,,55,92
14592,note_on,,,,,0,0,6,,,,,5,,,71,92
14592,note_on,,,,,4,0,4,,,,,3,,,71,92
14592,note_on,,,,,4,0,8,,,,,6,,,55,92
14592,note_on,,,,,0,0,6,,,,,5,,,67,92
14592,note_on,,,,,64,0,6,,,,,5,,,62,92
14592,note_on,,,,,4,0,1,,,,,0,,,71,92
14592,note_on,,,,,4,0,5,,,,,4,,,62,92
14592,note_on,,,,,4,0,3,,,,,2,,,71,92
14592,note_on,,,,,4,0,2,,,,,1,,,55,92
14656,note_on,,,,,0,0,3,,,,,2,,,72,92
14656,note_off,,,,,64,0,3,,,,,2,,,71,0
14656,note_off,,,,,64,0,1,,,,,0,,,71,0
14656,note_on,,,,,0,0,1,,,,,0,,,72,92
14684,note_off,,,,,92,0,4,,,,,3,,,71,0
14684,note_off,,,,,92,0,5,,,,,4,,,62,0
14688,note_on,,,,,4,0,4,,,,,3,,,67,92
14688,note_on,,,,,4,0,5,,,,,4,,,59,92
14720,note_on,,,,,0,0,3,,,,,2,,,74,92
14720,note_off,,,,,64,0,3,,,,,2,,,72,0
14720,note_off,,,,,64,0,1,,,,,0,,,72,0
14720,note_on,,,,,0,0,1,,,,,0,,,74,92
14780,note_off,,,,,188,0,7,,,,,5,,,55,0
14780,note_off,,,,,188,0,2,,,,,1,,,55,0
14780,note_off,,,,,92,0,4,,,,,3,,,67,0
14780,note_off,,,,,188,0,8,,,,,6,,,55,0
14780,note_off,,,,,92,0,5,,,,,4,,,59,0
14784,note_on,,,,,4,0,8,,,,,6,,,55,92
14784,note_off,,,,,64,0,1,,,,,0,,,74,0
14784,note_on,,,,,0,0,1,,,,,0,,,76,92
14784,note_on,,,,,4,0,7,,,,,5,,,55,92
14784,note_on,,,,,0,0,3,,,,,2,,,76,92
14784,note_off,,,,,64,0,3,,,,,2,,,74,0
14784,note_on,,,,,4,0,2,,,,,1,,,55,92
14784,note_on,,,,,4,0,4,,,,,3,,,71,92
14784,note_on,,,,,4,0,5,,,,,4,,,62,92
14848,note_off,,,,,64,0,1,,,,,0,,,76,0
14848,note_on,,,,,0,0,1,,,,,0,,,78,92
14848,note_on,,,,,0,0,3,,,,,2,,,78,92
14848,note_off,,,,,64,0,3,,,,,2,,,76,0
14876,note_off,,,,,92,0,4,,,,,3,,,71,0
14876,note_off,,,,,92,0,5,,,,,4,,,62,0
14880,note_on,,,,,4,0,4,,,,,3,,,67,92
14880,note_on,,,,,4,0,5,,,,,4,,,59,92
14912,note_on,,,,,0,0,1,,,,,0,,,79,92
14912,note_off,,,,,64,0,1,,,,,0,,,78,0
14912,note_on,,,,,0,0,3,,,,,2,,,79,92
14912,note_off,,,,,320,0,6,,,,,5,,,62,0
14912,note_off,,,,,0,0,6,,,,,5,,,67,0
14912,note_off,,,,,0,0,6,,,,,5,,,71,0
14912,note_off,,,,,64,0,3,,,,,2,,,78,0
14972,note_off,,,,,92,0,5,,,,,4,,,59,0
14972,note_off,,,,,60,0,3,,,,,2,,,79,0
14972,note_off,,,,,188,0,8,,,,,6,,,55,0
14972,note_off,,,,,92,0,4,,,,,3,,,67,0
14972,note_off,,,,,60,0,1,,,,,0,,,79,0
14972,note_off,,,,,188,0,7,,,,,5,,,55,0
14972,note_off,,,,,188,0,2,,,,,1,,,55,0
14976,note_on,,,,,4,0,8,,,,,6,,,55,92
14976,note_on,,,,,4,0,1,,,,,0,,,79,92
14976,note_on,,,,,4,0,5,,,,,4,,,62,92
14976,note_on,,,,,0,0,6,,,,,5,,,74,92
14976,note_on,,,,,0,0,6,,,,,5,,,71,92
14976,note_on,,,,,4,0,7,,,,,5,,,55,92
14976,note_on,,,,,4,0,4,,,,,3,,,71,92
14976,note_on,,,,,64,0,6,,,,,5,,,67,92
14976,note_on,,,,,4,0,3,,,,,2,,,79,92
14976,note_on,,,,,4,0,2,,,,,1,,,55,92
15068,note_off,,,,,92,0,4,,,,,3,,,71,0
15068,note_off,,,,,92,0,5,,,,,4,,,62,0
15072,note_on,,,,,4,0,5,,,,,4,,,59,92
15072,note_on,,,,,4,0,4,,,,,3,,,67,92
15164,note_off,,,,,188,0,1,,,,,0,,,79,0
15164,note_off,,,,,188,0,8,,,,,6,,,55,0
15164,note_off,,,,,188,0,7,,,,,5,,,55,0
15164,note_off,,,,,188,0,2,,,,,1,,,55,0
15164,note_off,,,,,92,0,4,,,,,3,,,67,0
15164,note_off,,,,,92,0,5,,,,,4,,,59,0
15164,note_off,,,,,188,0,3,,,,,2,,,79,0
15168,note_on,,,,,4,0,5,,,,,4,,,62,92
15168,note_on,,,,,4,0,2,,,,,1,,,55,92
15168,note_on,,,,,4,0,4,,,,,3,,,71,92
15168,note_on,,,,,4,0,7,,,,,5,,,55,92
15168,note_on,,,,,4,0,8,,,,,6,,,55,92
15260,note_off,,,,,92,0,5,,,,,4,,,62,0
15260,note_off,,,,,92,0,4,,,,,3,,,71,0
15264,note_on,,,,,4,0,4,,,,,3,,,67,92
15264,note_on,,,,,4,0,5,,,,,4,,,59,92
15296,note_off,,,,,0,0,6,,,,,5,,,71,0
15296,note_off,,,,,320,0,6,,,,,5,,,67,0
15296,note_off,,,,,0,0,6,,,,,5,,,74,0
15356,note_off,,,,,92,0,4,,,,,3,,,67,0
15356,note_off,,,,,188,0,8,,,,,6,,,55,0
15356,note_off,,,,,92,0,5,,,,,4,,,59,0
15356,note_off,,,,,188,0,2,,,,,1,,,55,0
15356,note_off,,,,,188,0,7,,,,,5,,,55,0
15360,note_on,,,,,0,0,6,,,,,5,,,66,92
15360,note_on,,,,,64,0,6,,,,,5,,,62,92
15360,note_on,,,,,4,0,8,,,,,6,,,50,92
15360,note_on,,,,,0,0,6,,,,,5,,,69,92
15360,note_on,,,,,4,0,7,,,,,5,,,50,92
15360,note_on,,,,,4,0,4,,,,,3,,,66,92
15360,note_on,,,,,196,0,3,,,,,2,,,69,92
15360,note_on,,,,,4,0,2,,,,,1,,,50,92
15360,note_on,,,,,196,0,1,,,,,0,,,69,92
15360,note_on,,,,,4,0,5,,,,,4,,,62,92
15420,note_off,,,,,60,0,4,,,,,3,,,66,0
15424,note_off,,,,,64,0,3,,,,,2,,,69,0
15424,note_on,,,,,0,0,1,,,,,0,,,71,92
15424,note_on,,,,,4,0,4,,,,,3,,,67,92
15424,note_on,,,,,0,0,3,,,,,2,,,71,92
15424,note_off,,,,,64,0,1,,,,,0,,,69,0
15452,note_off,,,,,92,0,5,,,,,4,,,62,0
15452,note_off,,,,,92,0,8,,,,,6,,,50,0
15452,note_off,,,,,92,0,7,,,,,5,,,50,0
15452,note_off,,,,,92,0,2,,,,,1,,,50,0
15456,note_on,,,,,4,0,7,,,,,5,,,38,92
15456,note_on,,,,,4,0,2,,,,,1,,,38,92
15456,note_on,,,,,4,0,5,,,,,4,,,50,92
15456,note_on,,,,,4,0,8,,,,,6,,,38,92
15484,note_off,,,,,60,0,4,,,,,3,,,67,0
15488,note_on,,,,,0,0,1,,,,,0,,,72,92
15488,note_on,,,,,0,0,3,,,,,2,,,72,92
15488,note_off,,,,,64,0,3,,,,,2,,,71,0
15488,note_on,,,,,4,0,4,,,,,3,,,69,92
15488,note_off,,,,,64,0,1,,,,,0,,,71,0
15548,note_off,,,,,92,0,2,,,,,1,,,38,0
15548,note_off,,,,,60,0,3,,,,,2,,,72,0
15548,note_off,,,,,60,0,4,,,,,3,,,69,0
15548,note_off,,,,,92,0,7,,,,,5,,,38,0
15548,note_off,,,,,92,0,8,,,,,6,,,38,0
15548,note_off,,,,,60,0,1,,,,,0,,,72,0
15548,note_off,,,,,92,0,5,,,,,4,,,50,0
15552,note_on,,,,,4,0,2,,,,,1,,,50,92
15552,note_on,,,,,4,0,7,,,,,5,,,50,92
15552,note_on,,,,,4,0,5,,,,,4,,,62,92
15552,note_on,,,,,4,0,4,,,,,3,,,69,92
15552,note_on,,,,,4,0,1,,,,,0,,,74,92
15552,note_on,,,,,4,0,8,,,,,6,,,50,92
15552,note_on,,,,,4,0,3,,,,,2,,,74,92
15644,note_off,,,,,92,0,8,,,,,6,,,50,0
15644,note_off,,,,,92,0,2,,,,,1,,,50,0
15644,note_off,,,,,92,0,5,,,,,4,,,62,0
15644,note_off,,,,,92,0,7,,,,,5,,,50,0
15648,note_on,,,,,4,0,2,,,,,1,,,38,92
15648,note_on,,,,,4,0,5,,,,,4,,,50,92
15648,note_on,,,,,4,0,8,,,,,6,,,38,92
15648,note_on,,,,,4,0,7,,,,,5,,,38,92
15680,note_off,,,,,320,0,6,,,,,5,,,62,0
15680,note_off,,,,,0,0,6,,,,,5,,,66,0
15680,note_off,,,,,0,0,6,,,,,5,,,69,0
15740,note_off,,,,,92,0,7,,,,,5,,,38,0
15740,note_off,,,,,188,0,4,,,,,3,,,69,0
15740,note_off,,,,,188,0,3,,,,,2,,,74,0
15740,note_off,,,,,92,0,8,,,,,6,,,38,0
15740,note_off,,,,,92,0,2,,,,,1,,,38,0
15740,note_off,,,,,92,0,5,,,,,4,,,50,0
15740,note_off,,,,,188,0,1,,,,,0,,,74,0
15744,note_on,,,,,4,0,8,,,,,6,,,50,92
15744,note_on,,,,,0,0,6,,,,,5,,,69,92
15744,note_on,,,,,4,0,7,,,,,5,,,50,92
15744,note_on,,,,,64,0,6,,,,,5,,,62,92
15744,note_on,,,,,4,0,2,,,,,1,,,50,92
15744,note_on,,,,,4,0,5,,,,,4,,,62,92
15744,note_on,,,,,4,0,4,,,,,3,,,66,92
15744,note_on,,,,,4,0,1,,,,,0,,,69,92
15744,note_on,,,,,0,0,6,,,,,5,,,66,92
15744,note_on,,,,,4,0,3,,,,,2,,,69,92
15804,note_off,,,,,60,0,4,,,,,3,,,66,0
15808,note_on,,,,,4,0,4,,,,,3,,,67,92
15808,note_off,,,,,64,0,1,,,,,0,,,69,0
15808,note_on,,,,,0,0,3,,,,,2,,,71,92
15808,note_on,,,,,0,0,1,,,,,0,,,71,92
15808,note_off,,,,,64,0,3,,,,,2,,,69,0
15836,note_off,,,,,92,0,8,,,,,6,,,50,0
15836,note_off,,,,,92,0,7,,,,,5,,,50,0
15836,note_off,,,,,92,0,2,,,,,1,,,50,0
15836,note_off,,,,,92,0,5,,,,,4,,,62,0
15840,note_on,,,,,4,0,2,,,,,1,,,38,92
15840,note_on,,,,,4,0,8,,,,,6,,,38,92
15840,note_on,,,,,4,0,7,,,,,5,,,38,92
15840,note_on,,,,,4,0,5,,,,,4,,,50,92
15868,note_off,,,,,60,0,4,,,,,3,,,67,0
15872,note_on,,,,,4,0,4,,,,,3,,,69,92
15872,note_on,,,,,0,0,1,,,,,0,,,72,92
15872,note_off,,,,,64,0,1,,,,,0,,,71,0
15872,note_off,,,,,64,0,3,,,,,2,,,71,0
15872,note_on,,,,,0,0,3,,,,,2,,,72,92
15932,note_off,,,,,60,0,4,,,,,3,,,69,0
15932,note_off,,,,,92,0,7,,,,,5,,,38,0
15932,note_off,,,,,60,0,1,,,,,0,,,72,0
15932,note_off,,,,,92,0,5,,,,,4,,,50,0
15932,note_off,,,,,60,0,3,,,,,2,,,72,0
15932,note_off,,,,,92,0,8,,,,,6,,,38,0
15932,note_off,,,,,92,0,2,,,,,1,,,38,0
15936,note_on,,,,,4,0,4,,,,,3,,,69,92
15936,note_on,,,,,4,0,1,,,,,0,,,74,92
15936,note_on,,,,,4,0,5,,,,,4,,,62,92
15936,note_on,,,,,4,0,3,,,,,2,,,74,92
15936,note_on,,,,,4,0,7,,,,,5,,,50,92
15936,note_on,,,,,4,0,8,,,,,6,,,50,92
15936,note_on,,,,,4,0,2,,,,,1,,,50,92
16028,note_off,,,,,92,0,2,,,,,1,,,50,0
16028,note_off,,,,,92,0,5,,,,,4,,,62,0
16028,note_off,,,,,92,0,7,,,,,5,,,50,0
16028,note_off,,,,,92,0,8,,,,,6,,,50,0
16032,note_on,,,,,4,0,2,,,,,1,,,38,92
16032,note_on,,,,,4,0,7,,,,,5,,,38,92
16032,note_on,,,,,4,0,5,,,,,4,,,50,92
16032,note_on,,,,,4,0,8,,,,,6,,,38,92
16064,note_off,,,,,320,0,6,,,,,5,,,62,0
16064,note_off,,,,,0,0,6,,,,,5,,,66,0
16064,note_off,,,,,0,0,6,,,,,5,,,69,0
16124,note_off,,,,,188,0,3,,,,,2,,,74,0
16124,note_off,,,,,188,0,4,,,,,3,,,69,0
16124,note_off,,,,,92,0,8,,,,,6,,,38,0
16124,note_off,,,,,92,0,2,,,,,1,,,38,0
16124,note_off,,,,,188,0,1,,,,,0,,,74,0
16124,note_off,,,,,92,0,7,,,,,5,,,38,0
16124,note_off,,,,,92,0,5,,,,,4,,,50,0
16128,note_on,,,,,4,0,5,,,,,4,,,62,92
16128,note_on,,,,,64,0,6,,,,,5,,,62,92
16128,note_on,,,,,0,0,6,,,,,5,,,66,92
16128,note_on,,,,,4,0,1,,,,,0,,,69,92
16128,note_on,,,,,4,0,3,,,,,2,,,69,92
16128,note_on,,,,,4,0,2,,,,,1,,,50,92
16128,note_on,,,,,0,0,6,,,,,5,,,69,92
16128,note_on,,,,,4,0,7,,,,,5,,,50,92
16128,note_on,,,,,4,0,4,,,,,3,,,66,92
16128,note_on,,,,,4,0,8,,,,,6,,,50,92
16188,note_off,,,,,60,0,4,,,,,3,,,66,0
16192,note_on,,,,,0,0,1,,,,,0,,,71,92
16192,note_off,,,,,64,0,1,,,,,0,,,69,0
16192,note_off,,,,,64,0,3,,,,,2,,,69,0
16192,note_on,,,,,4,0,4,,,,,3,,,67,92
16192,note_on,,,,,0,0,3,,,,,2,,,71,92
16220,note_off,,,,,92,0,8,,,,,6,,,50,0
16220,note_off,,,,,92,0,5,,,,,4,,,62,0
16220,note_off,,,,,92,0,7,,,,,5,,,50,0
16220,note_off,,,,,92,0,2,,,,,1,,,50,0
16224,note_on,,,,,4,0,7,,,,,5,,,38,92
16224,note_on,,,,,4,0,2,,,,,1,,,38,92
16224,note_on,,,,,4,0,8,,,,,6,,,38,92
16224,note_on,,,,,4,0,5,,,,,4,,,50,92
16252,note_off,,,,,60,0,4,,,,,3,,,67,0
16256,note_on,,,,,0,0,3,,,,,2,,,72,92
16256,note_on,,,,,0,0,1,,,,,0,,,72,92
16256,note_off,,,,,64,0,3,,,,,2,,,71,0
16256,note_off,,,,,64,0,1,,,,,0,,,71,0
16256,note_on,,,,,4,0,4,,,,,3,,,69,92
16316,note_off,,,,,92,0,2,,,,,1,,,38,0
16316,note_off,,,,,92,0,5,,,,,4,,,50,0
16316,note_off,,,,,60,0,3,,,,,2,,,72,0
16316,note_off,,,,,60,0,1,,,,,0,,,72,0
16316,note_off,,,,,92,0,7,,,,,5,,,38,0
16316,note_off,,,,,60,0,4,,,,,3,,,69,0
16316,note_off,,,,,92,0,8,,,,,6,,,38,0
16320,note_on,,,,,4,0,5,,,,,4,,,62,92
16320,note_on,,,,,4,0,2,,,,,1,,,50,92
16320,note_on,,,,,4,0,3,,,,,2,,,74,92
16320,note_on,,,,,4,0,8,,,,,6,,,50,92
16320,note_on,,,,,4,0,4,,,,,3,,,69,92
16320,note_on,,,,,4,0,1,,,,,0,,,74,92
16320,note_on,,,,,4,0,7,,,,,5,,,50,92
16412,note_off,,,,,92,0,2,,,,,1,,,50,0
16412,note_off,,,,,92,0,5,,,,,4,,,62,0
16412,note_off,,,,,92,0,8,,,,,6,,,50,0
16412,note_off,,,,,92,0,7,,,,,5,,,50,0
16416,note_on,,,,,4,0,8,,,,,6,,,38,92
16416,note_on,,,,,4,0,7,,,,,5,,,38,92
16416,note_on,,,,,4,0,5,,,,,4,,,50,92
16416,note_on,,,,,4,0,2,,,,,1,,,38,92
16448,note_off,,,,,0,0,6,,,,,5,,,69,0
16448,note_off,,,,,0,0,6,,,,,5,,,66,0
16448,note_off,,,,,320,0,6,,,,,5,,,62,0
16508,note_off,,,,,188,0,1,,,,,0,,,74,0
16508,note_off,,,,,92,0,5,,,,,4,,,50,0
16508,note_off,,,,,92,0,8,,,,,6,,,38,0
16508,note_off,,,,,92,0,7,,,,,5,,,38,0
16508,note_off,,,,,92,0,2,,,,,1,,,38,0
16508,note_off,,,,,188,0,4,,,,,3,,,69,0
16508,note_off,,,,,188,0,3,,,,,2,,,74,0
16512,note_on,,,,,4,0,1,,,,,0,,,78,92
16512,note_on,,,,,4,0,2,,,,,1,,,50,92
16512,note_on,,,,,0,0,6,,,,,5,,,72,92
16512,note_on,,,,,4,0,4,,,,,3,,,74,92
16512,note_on,,,,,4,0,7,,,,,5,,,50,92
16512,note_on,,,,,4,0,8,,,,,6,,,50,92
16512,note_on,,,,,0,0,6,,,,,5,,,78,92
16512,note_on,,,,,64,0,6,,,,,5,,,69,92
16512,note_on,,,,,4,0,5,,,,,4,,,62,92
16512,note_on,,,,,4,0,3,,,,,2,,,78,92
16572,note_off,,,,,60,0,4,,,,,3,,,74,0
16576,note_on,,,,,4,0,4,,,,,3,,,76,92
16576,note_on,,,,,0,0,1,,,,,0,,,79,92
16576,note_off,,,,,64,0,1,,,,,0,,,78,0
16576,note_off,,,,,64,0,3,,,,,2,,,78,0
16576,note_on,,,,,0,0,3,,,,,2,,,79,92
16604,note_off,,,,,92,0,7,,,,,5,,,50,0
16604,note_off,,,,,92,0,2,,,,,1,,,50,0
16604,note_off,,,,,92,0,8,,,,,6,,,50,0
16604,note_off,,,,,92,0,5,,,,,4,,,62,0
16608,note_on,,,,,4,0,5,,,,,4,,,50,92
16608,note_on,,,,,4,0,8,,,,,6,,,38,92
16608,note_on,,,,,4,0,2,,,,,1,,,38,92
16608,note_on,,,,,4,0,7,,,,,5,,,38,92
16636,note_off,,,,,60,0,4,,,,,3,,,76,0
16640,note_on,,,,,4,0,4,,,,,3,,,78,92
16640,note_on,,,,,0,0,1,,,,,0,,,81,92
16640,note_off,,,,,64,0,3,,,,,2,,,79,0
16640,note_on,,,,,0,0,3,,,,,2,,,81,92
16640,note_off,,,,,64,0,1,,,,,0,,,79,0
16700,note_off,,,,,92,0,8,,,,,6,,,38,0
16700,note_off,,,,,92,0,5,,,,,4,,,50,0
16700,note_off,,,,,60,0,4,,,,,3,,,78,0
16700,note_off,,,,,92,0,2,,,,,1,,,38,0
16700,note_off,,,,,92,0,7,,,,,5,,,38,0
16700,note_off,,,,,60,0,3,,,,,2,,,81,0
16700,note_off,,,,,60,0,1,,,,,0,,,81,0
16704,note_on,,,,,4,0,2,,,,,1,,,50,92
16704,note_on,,,,,4,0,3,,,,,2,,,81,92
16704,note_on,,,,,4,0,5,,,,,4,,,62,92
16704,note_on,,,,,4,0,7,,,,,5,,,50,92
16704,note_on,,,,,4,0,4,,,,,3,,,78,92
16704,note_on,,,,,4,0,8,,,,,6,,,50,92
16704,note_on,,,,,4,0,1,,,,,0,,,81,92
16796,note_off,,,,,92,0,8,,,,,6,,,50,0
16796,note_off,,,,,92,0,5,,,,,4,,,62,0
16796,note_off,,,,,92,0,2,,,,,1,,,50,0
16796,note_off,,,,,92,0,7,,,,,5,,,50,0
16800,note_on,,,,,4,0,7,,,,,5,,,38,92
16800,note_on,,,,,4,0,2,,,,,1,,,38,92
16800,note_on,,,,,4,0,8,,,,,6,,,38,92
16800,note_on,,,,,4,0,5,,,,,4,,,50,92
16832,note_off,,,,,320,0,6,,,,,5,,,69,0
16832,note_off,,,,,0,0,6,,,,,5,,,72,0
16832,note_off,,,,,0,0,6,,,,,5,,,78,0
16892,note_off,,,,,188,0,1,,,,,0,,,81,0
16892,note_off,,,,,188,0,3,,,,,2,,,81,0
16892,note_off,,,,,92,0,2,,,,,1,,,38,0
16892,note_off,,,,,92,0,7,,,,,5,,,38,0
16892,note_off,,,,,92,0,8,,,,,6,,,38,0
16892,note_off,,,,,92,0,5,,,,,4,,,50,0
16892,note_off,,,,,188,0,4,,,,,3,,,78,0
16896,note_on,,,,,4,0,5,,,,,4,,,62,92
16896,note_on,,,,,4,0,7,,,,,5,,,55,92
16896,note_on,,,,,4,0,4,,,,,3,,,79,92
16896,note_on,,,,,4,0,1,,,,,0,,,83,92
16896,note_on,,,,,4,0,8,,,,,6,,,55,92
16896,note_on,,,,,4,0,2,,,,,1,,,55,92
16896,note_on,,,,,64,0,6,,,,,5,,,71,92
16896,note_on,,,,,0,0,6,,,,,5,,,74,92
16896,note_on,,,,,0,0,6,,,,,5,,,79,92
16896,note_on,,,,,4,0,3,,,,,2,,,83,92
16988,note_off,,,,,92,0,1,,,,,0,,,83,0
16988,note_off,,,,,92,0,3,,,,,2,,,83,0
16988,note_off,,,,,92,0,4,,,,,3,,,79,0
16992,note_on,,,,,4,0,3,,,,,2,,,79,92
16992,note_on,,,,,4,0,1,,,,,0,,,79,92
16992,note_on,,,,,4,0,4,,,,,3,,,79,92
17084,note_off,,,,,92,0,1,,,,,0,,,79,0
17084,note_off,,,,,0,0,6,,,,,5,,,79,0
17084,note_off,,,,,92,0,4,,,,,3,,,79,0
17084,note_off,,,,,0,0,6,,,,,5,,,74,0
17084,note_off,,,,,188,0,6,,,,,5,,,71,0
17084,note_off,,,,,188,0,2,,,,,1,,,55,0
17084,note_off,,,,,92,0,3,,,,,2,,,79,0
17084,note_off,,,,,188,0,5,,,,,4,,,62,0
17084,note_off,,,,,188,0,8,,,,,6,,,55,0
17084,note_off,,,,,188,0,7,,,,,5,,,55,0
17088,note_on,,,,,4,0,4,,,,,3,,,71,92
17088,note_on,,,,,4,0,5,,,,,4,,,62,92
17088,note_on,,,,,4,0,7,,,,,5,,,43,92
17088,note_on,,,,,4,0,2,,,,,1,,,43,92
17088,note_on,,,,,4,0,3,,,,,2,,,71,92
17088,note_on,,,,,0,0,6,,,,,5,,,79,92
17088,note_on,,,,,0,0,6,,,,,5,,,74,92
17088,note_on,,,,,4,0,6,,,,,5,,,71,92
17088,note_on,,,,,4,0,1,,,,,0,,,71,92
17088,note_on,,,,,4,0,8,,,,,6,,,43,92
17180,note_off,,,,,92,0,4,,,,,3,,,71,0
17180,note_off,,,,,92,0,3,,,,,2,,,71,0
17180,note_off,,,,,92,0,1,,,,,0,,,71,0
17184,note_on,,,,,4,0,1,,,,,0,,,79,92
17184,note_on,,,,,4,0,3,,,,,2,,,79,92
17184,note_on,,,,,4,0,4,,,,,3,,,79,92
17276,note_off,,,,,92,0,4,,,,,3,,,79,0
17276,note_off,,,,,92,0,3,,,,,2,,,79,0
17276,note_off,,,,,188,0,6,,,,,5,,,71,0
17276,note_off,,,,,0,0,6,,,,,5,,,74,0
17276,note_off,,,,,92,0,1,,,,,0,,,79,0
17276,note_off,,,,,188,0,8,,,,,6,,,43,0
17276,note_off,,,,,0,0,6,,,,,5,,,79,0
17276,note_off,,,,,188,0,5,,,,,4,,,62,0
17276,note_off,,,,,188,0,7,,,,,5,,,43,0
17276,note_off,,,,,188,0,2,,,,,1,,,43,0
17280,note_on,,,,,4,0,8,,,,,6,,,50,92
17280,note_on,,,,,4,0,1,,,,,0,,,69,92
17280,note_on,,,,,0,0,6,,,,,5,,,79,92
17280,note_on,,,,,0,0,6,,,,,5,,,74,92
17280,note_on,,,,,4,0,4,,,,,3,,,69,92
17280,note_on,,,,,4,0,6,,,,,5,,,69,92
17280,note_on,,,,,4,0,5,,,,,4,,,62,92
17280,note_on,,,,,4,0,7,,,,,5,,,50,92
17280,note_on,,,,,4,0,2,,,,,1,,,50,92
17280,note_on,,,,,4,0,3,,,,,2,,,69,92
17372,note_off,,,,,92,0,4,,,,,3,,,69,0
17372,note_off,,,,,92,0,3,,,,,2,,,69,0
17372,note_off,,,,,92,0,1,,,,,0,,,69,0
17376,note_on,,,,,4,0,3,,,,,2,,,79,92
17376,note_on,,,,,4,0,4,,,,,3,,,79,92
17376,note_on,,,,,4,0,1,,,,,0,,,79,92
17468,note_off,,,,,92,0,1,,,,,0,,,79,0
17468,note_off,,,,,188,0,6,,,,,5,,,69,0
17468,note_off,,,,,0,0,6,,,,,5,,,74,0
17468,note_off,,,,,92,0,3,,,,,2,,,79,0
17468,note_off,,,,,0,0,6,,,,,5,,,79,0
17468,note_off,,,,,188,0,2,,,,,1,,,50,0
17468,note_off,,,,,188,0,8,,,,,6,,,50,0
17468,note_off,,,,,188,0,7,,,,,5,,,50,0
17468,note_off,,,,,188,0,5,,,,,4,,,62,0
17468,note_off,,,,,92,0,4,,,,,3,,,79,0
17472,note_on,,,,,4,0,2,,,,,1,,,38,92
17472,note_on,,,,,4,0,6,,,,,5,,,69,92
17472,note_on,,,,,0,0,6,,,,,5,,,74,92
17472,note_on,,,,,0,0,6,,,,,5,,,78,92
17472,note_on,,,,,4,0,4,,,,,3,,,62,92
17472,note_on,,,,,4,0,7,,,,,5,,,38,92
17472,note_on,,,,,4,0,8,,,,,6,,,38,92
17472,note_on,,,,,4,0,3,,,,,2,,,62,92
17472,note_on,,,,,4,0,1,,,,,0,,,62,92
17472,note_on,,,,,4,0,5,,,,,4,,,62,92
17564,note_off,,,,,92,0,1,,,,,0,,,62,0
17564,note_off,,,,,92,0,4,,,,,3,,,62,0
17564,note_off,,,,,92,0,3,,,,,2,,,62,0
17568,note_on,,,,,4,0,4,,,,,3,,,78,92
17568,note_on,,,,,4,0,3,,,,,2,,,78,92
17568,note_on,,,,,4,0,1,,,,,0,,,78,92
17660,note_off,,,,,0,0,6,,,,,5,,,74,0
17660,note_off,,,,,188,0,2,,,,,1,,,38,0
17660,note_off,,,,,188,0,5,,,,,4,,,62,0
17660,note_off,,,,,188,0,6,,,,,5,,,69,0
17660,note_off,,,,,92,0,1,,,,,0,,,78,0
17660,note_off,,,,,188,0,7,,,,,5,,,38,0
17660,note_off,,,,,92,0,3,,,,,2,,,78,0
17660,note_off,,,,,92,0,4,,,,,3,,,78,0
17660,note_off,,,,,188,0,8,,,,,6,,,38,0
17660,note_off,,,,,0,0,6,,,,,5,,,78,0
17664,note_on,,,,,4,0,1,,,,,0,,,79,92
17664,note_on,,,,,4,0,8,,,,,6,,,43,45
17664,note_on,,,,,4,0,4,,,,,3,,,79,92
17664,note_on,,,,,0,0,6,,,,,5,,,79,60
17664,note_on,,,,,4,0,5,,,,,4,,,59,92
17664,note_on,,,,,0,0,6,,,,,5,,,71,60
17664,note_on,,,,,4,0,6,,,,,5,,,67,60
17664,note_on,,,,,4,0,2,,,,,1,,,43,92
17664,note_on,,,,,4,0,3,,,,,2,,,79,92
17664,note_on,,,,,4,0,7,,,,,5,,,43,60
17852,note_off,,,,,188,0,1,,,,,0,,,79,0
17856,note_on,,,,,4,0,1,,,,,0,,,67,92
17984,note_off,,,,,320,0,2,,,,,1,,,43,0
17984,note_off,,,,,320,0,4,,,,,3,,,79,0
17984,note_off,,,,,0,0,6,,,,,5,,,71,0
17984,note_off,,,,,320,0,6,,,,,5,,,67,0
17984,note_off,,,,,320,0,7,,,,,5,,,43,0
17984,note_off,,,,,320,0,5,,,,,4,,,59,0
17984,note_off,,,,,0,0,6,,,,,5,,,79,0
17984,note_off,,,,,320,0,8,,,,,6,,,43,0
17984,note_off,,,,,320,0,3,,,,,2,,,79,0
18044,note_off,,,,,188,0,1,,,,,0,,,67,0
18048,note_on,,,,,64,0,7,,,,,5,,,55,60
18048,note_on,,,,,4,0,1,,,,,0,,,74,92
18048,note_on,,,,,64,0,8,,,,,6,,,55,45
18048,note_on,,,,,64,0,6,,,,,5,,,62,60
18048,note_on,,,,,0,0,6,,,,,5,,,67,60
18048,note_on,,,,,0,0,6,,,,,5,,,71,60
18112,note_on,,,,,128,0,2,,,,,1,,,62,108
18176,note_on,,,,,0,0,2,,,,,1,,,60,108
18176,note_off,,,,,64,0,2,,,,,1,,,62,0
18240,note_on,,,,,0,0,2,,,,,1,,,59,108
18240,note_off,,,,,64,0,2,,,,,1,,,60,0
18304,note_on,,,,,0,0,2,,,,,1,,,57,108
18304,note_off,,,,,64,0,2,,,,,1,,,59,0
18368,note_off,,,,,320,0,6,,,,,5,,,62,0
18368,note_off,,,,,0,0,6,,,,,5,,,71,0
18368,note_off,,,,,64,0,2,,,,,1,,,57,0
18368,note_off,,,,,320,0,7,,,,,5,,,55,0
18368,note_on,,,,,0,0,2,,,,,1,,,55,108
18368,note_off,,,,,320,0,8,,,,,6,,,55,0
18368,note_off,,,,,0,0,6,,,,,5,,,67,0
18428,note_off,,,,,60,0,2,,,,,1,,,55,0
18432,note_on,,,,,64,0,7,,,,,5,,,54,60
18432,note_on,,,,,4,0,2,,,,,1,,,54,108
18432,note_on,,,,,64,0,6,,,,,5,,,62,60
18432,note_on,,,,,0,0,6,,,,,5,,,69,60
18432,note_on,,,,,64,0,8,,,,,6,,,54,45
18620,note_off,,,,,188,0,6,,,,,5,,,62,0
18620,note_off,,,,,188,0,8,,,,,6,,,54,0
18620,note_off,,,,,0,0,6,,,,,5,,,69,0
18620,note_off,,,,,188,0,2,,,,,1,,,54,0
18620,note_off,,,,,188,0,7,,,,,5,,,54,0
18620,note_off,,,,,572,0,1,,,,,0,,,74,0
18624,note_on,,,,,4,0,2,,,,,1,,,50,108
18624,note_on,,,,,4,0,7,,,,,5,,,50,60
18624,note_on,,,,,0,0,6,,,,,5,,,66,60
18624,note_on,,,,,4,0,1,,,,,0,,,79,92
18624,note_on,,,,,4,0,6,,,,,5,,,62,60
18624,note_on,,,,,4,0,8,,,,,6,,,50,45
18716,note_off,,,,,92,0,1,,,,,0,,,79,0
18720,note_on,,,,,4,0,1,,,,,0,,,81,92
18812,note_off,,,,,188,0,7,,,,,5,,,50,0
18812,note_off,,,,,188,0,2,,,,,1,,,50,0
18812,note_off,,,,,188,0,8,,,,,6,,,50,0
18812,note_off,,,,,92,0,1,,,,,0,,,81,0
18812,note_off,,,,,0,0,6,,,,,5,,,66,0
18812,note_off,,,,,188,0,6,,,,,5,,,62,0
18816,note_on,,,,,4,0,7,,,,,5,,,55,60
18816,note_on,,,,,0,0,6,,,,,5,,,71,60
18816,note_on,,,,,0,0,6,,,,,5,,,67,60
18816,note_on,,,,,4,0,6,,,,,5,,,62,60
18816,note_on,,,,,4,0,1,,,,,0,,,83,92
18816,note_on,,,,,4,0,8,,,,,6,,,55,45
18880,note_on,,,,,68,0,2,,,,,1,,,55,108
18944,note_off,,,,,64,0,2,,,,,1,,,55,0
18944,note_on,,,,,0,0,2,,,,,1,,,57,108
19004,note_off,,,,,188,0,8,,,,,6,,,55,0
19004,note_off,,,,,188,0,6,,,,,5,,,62,0
19004,note_off,,,,,0,0,6,,,,,5,,,67,0
19004,note_off,,,,,0,0,6,,,,,5,,,71,0
19004,note_off,,,,,188,0,7,,,,,5,,,55,0
19004,note_off,,,,,188,0,1,,,,,0,,,83,0
19008,note_on,,,,,4,0,6,,,,,5,,,62,60
19008,note_on,,,,,0,0,6,,,,,5,,,67,60
19008,note_on,,,,,0,0,6,,,,,5,,,71,60
19008,note_on,,,,,4,0,8,,,,,6,,,55,45
19008,note_on,,,,,0,0,2,,,,,1,,,59,108
19008,note_off,,,,,64,0,2,,,,,1,,,57,0
19008,note_on,,,,,4,0,1,,,,,0,,,79,92
19008,note_on,,,,,4,0,7,,,,,5,,,55,60
19072,note_on,,,,,0,0,2,,,,,1,,,57,108
19072,note_off,,,,,64,0,2,,,,,1,,,59,0
19136,note_off,,,,,64,0,2,,,,,1,,,57,0
19136,note_on,,,,,0,0,2,,,,,1,,,55,108
19196,note_off,,,,,188,0,7,,,,,5,,,55,0
19196,note_off,,,,,188,0,1,,,,,0,,,79,0
19196,note_off,,,,,0,0,6,,,,,5,,,67,0
19196,note_off,,,,,0,0,6,,,,,5,,,71,0
19196,note_off,,,,,188,0,6,,,,,5,,,62,0
19196,note_off,,,,,188,0,8,,,,,6,,,55,0
19196,note_off,,,,,60,0,2,,,,,1,,,55,0
19200,note_on,,,,,4,0,8,,,,,6,,,50,45
19200,note_on,,,,,4,0,2,,,,,1,,,62,108
19200,note_on,,,,,4,0,7,,,,,5,,,50,60
19200,note_on,,,,,0,0,6,,,,,5,,,69,60
19200,note_on,,,,,0,0,6,,,,,5,,,66,60
19200,note_on,,,,,4,0,6,,,,,5,,,62,60
19200,note_on,,,,,4,0,1,,,,,0,,,78,92
19388,note_off,,,,,188,0,2,,,,,1,,,62,0
19388,note_off,,,,,188,0,1,,,,,0,,,78,0
19392,note_on,,,,,4,0,2,,,,,1,,,50,108
19392,note_on,,,,,4,0,1,,,,,0,,,74,92
19520,note_off,,,,,0,0,6,,,,,5,,,66,0
19520,note_off,,,,,320,0,6,,,,,5,,,62,0
19520,note_off,,,,,320,0,8,,,,,6,,,50,0
19520,note_off,,,,,0,0,6,,,,,5,,,69,0
19520,note_off,,,,,320,0,7,,,,,5,,,50,0
19580,note_off,,,,,188,0,1,,,,,0,,,74,0
19580,note_off,,,,,188,0,2,,,,,1,,,50,0
19584,note_on,,,,,64,0,7,,,,,5,,,50,60
19584,note_on,,,,,4,0,1,,,,,0,,,72,92
19584,note_on,,,,,64,0,8,,,,,6,,,50,45
19584,note_on,,,,,64,0,6,,,,,5,,,62,60
19584,note_on,,,,,0,0,6,,,,,5,,,72,60
19584,note_on,,,,,0,0,6,,,,,5,,,66,60
19648,note_on,,,,,68,0,2,,,,,1,,,57,108
19712,note_off,,,,,64,0,2,,,,,1,,,57,0
19712,note_on,,,,,0,0,2,,,,,1,,,55,108
19776,note_off,,,,,64,0,2,,,,,1,,,55,0
19776,note_on,,,,,0,0,2,,,,,1,,,54,108
19840,note_on,,,,,0,0,2,,,,,1,,,52,108
19840,note_off,,,,,64,0,2,,,,,1,,,54,0
19904,note_off,,,,,0,0,6,,,,,5,,,72,0
19904,note_off,,,,,320,0,7,,,,,5,,,50,0
19904,note_on,,,,,0,0,2,,,,,1,,,50,108
19904,note_off,,,,,0,0,6,,,,,5,,,66,0
19904,note_off,,,,,320,0,8,,,,,6,,,50,0
19904,note_off,,,,,64,0,2,,,,,1,,,52,0
19904,note_off,,,,,320,0,6,,,,,5,,,62,0
19964,note_off,,,,,60,0,2,,,,,1,,,50,0
19968,note_on,,,,,0,0,6,,,,,5,,,72,60
19968,note_on,,,,,0,0,6,,,,,5,,,66,60
19968,note_on,,,,,4,0,2,,,,,1,,,62,108
19968,note_on,,,,,64,0,7,,,,,5,,,50,60
19968,note_on,,,,,64,0,8,,,,,6,,,50,45
19968,note_on,,,,,64,0,6,,,,,5,,,62,60
20156,note_off,,,,,572,0,1,,,,,0,,,72,0
20156,note_off,,,,,188,0,2,,,,,1,,,62,0
20160,note_on,,,,,4,0,1,,,,,0,,,78,92
20160,note_on,,,,,4,0,2,,,,,1,,,50,108
20252,note_off,,,,,92,0,1,,,,,0,,,78,0
20256,note_on,,,,,4,0,1,,,,,0,,,79,92
20288,note_off,,,,,320,0,7,,,,,5,,,50,0
20288,note_off,,,,,0,0,6,,,,,5,,,72,0
20288,note_off,,,,,0,0,6,,,,,5,,,66,0
20288,note_off,,,,,320,0,6,,,,,5,,,62,0
20288,note_off,,,,,320,0,8,,,,,6,,,50,0
20348,note_off,,,,,188,0,2,,,,,1,,,50,0
20348,note_off,,,,,92,0,1,,,,,0,,,79,0
20352,note_on,,,,,0,0,6,,,,,5,,,69,60
20352,note_on,,,,,64,0,7,,,,,5,,,50,60
20352,note_on,,,,,64,0,8,,,,,6,,,50,45
20352,note_on,,,,,4,0,1,,,,,0,,,81,92
20352,note_on,,,,,0,0,6,,,,,5,,,66,60
20352,note_on,,,,,64,0,6,,,,,5,,,62,60
20416,note_on,,,,,68,0,2,,,,,1,,,50,108
20480,note_on,,,,,0,0,2,,,,,1,,,52,108
20480,note_off,,,,,64,0,2,,,,,1,,,50,0
20540,note_off,,,,,188,0,1,,,,,0,,,81,0
20544,note_on,,,,,4,0,1,,,,,0,,,78,92
20544,note_off,,,,,64,0,2,,,,,1,,,52,0
20544,note_on,,,,,0,0,2,,,,,1,,,54,108
20608,note_off,,,,,64,0,2,,,,,1,,,54,0
20608,note_on,,,,,0,0,2,,,,,1,,,52,108
20672,note_off,,,,,0,0,6,,,,,5,,,66,0
20672,note_off,,,,,320,0,6,,,,,5,,,62,0
20672,note_off,,,,,0,0,6,,,,,5,,,69,0
20672,note_off,,,,,320,0,8,,,,,6,,,50,0
20672,note_off,,,,,320,0,7,,,,,5,,,50,0
20672,note_off,,,,,64,0,2,,,,,1,,,52,0
20672,note_on,,,,,0,0,2,,,,,1,,,50,108
20732,note_off,,,,,60,0,2,,,,,1,,,50,0
20732,note_off,,,,,188,0,1,,,,,0,,,78,0
20736,note_on,,,,,4,0,2,,,,,1,,,55,108
20736,note_on,,,,,64,0,7,,,,,5,,,55,60
20736,note_on,,,,,64,0,8,,,,,6,,,55,45
20736,note_on,,,,,0,0,6,,,,,5,,,71,60
20736,note_on,,,,,4,0,1,,,,,0,,,79,92
20736,note_on,,,,,0,0,6,,,,,5,,,67,60
20736,note_on,,,,,64,0,6,,,,,5,,,62,60
20832,note_on,,,,,0,0,2,,,,,1,,,54,108
20832,note_off,,,,,96,0,2,,,,,1,,,55,0
20924,note_off,,,,,188,0,1,,,,,0,,,79,0
20928,note_on,,,,,4,0,1,,,,,0,,,74,92
20928,note_on,,,,,0,0,2,,,,,1,,,55,108
20928,note_off,,,,,96,0,2,,,,,1,,,54,0
21020,note_off,,,,,92,0,2,,,,,1,,,55,0
21024,note_on,,,,,4,0,2,,,,,1,,,43,108
21056,note_off,,,,,0,0,6,,,,,5,,,71,0
21056,note_off,,,,,320,0,8,,,,,6,,,55,0
21056,note_off,,,,,0,0,6,,,,,5,,,67,0
21056,note_off,,,,,320,0,7,,,,,5,,,55,0
21056,note_off,,,,,320,0,6,,,,,5,,,62,0
21116,note_off,,,,,188,0,1,,,,,0,,,74,0
21116,note_off,,,,,92,0,2,,,,,1,,,43,0
21120,note_on,,,,,64,0,8,,,,,6,,,55,45
21120,note_on,,,,,4,0,2,,,,,1,,,55,108
21120,note_on,,,,,0,0,6,,,,,5,,,67,60
21120,note_on,,,,,64,0,6,,,,,5,,,62,60
21120,note_on,,,,,64,0,7,,,,,5,,,55,60
21120,note_on,,,,,0,0,6,,,,,5,,,71,60
21216,note_on,,,,,0,0,2,,,,,1,,,54,108
21216,note_off,,,,,96,0,2,,,,,1,,,55,0
21312,note_on,,,,,196,0,1,,,,,0,,,71,92
21312,note_on,,,,,0,0,2,,,,,1,,,55,108
21312,note_off,,,,,96,0,2,,,,,1,,,54,0
21404,note_off,,,,,92,0,2,,,,,1,,,55,0
21408,note_on,,,,,4,0,2,,,,,1,,,43,108
21440,note_off,,,,,0,0,6,,,,,5,,,67,0
21440,note_off,,,,,320,0,6,,,,,5,,,62,0
21440,note_off,,,,,320,0,7,,,,,5,,,55,0
21440,note_off,,,,,0,0,6,,,,,5,,,71,0
21440,note_off,,,,,320,0,8,,,,,6,,,55,0
21500,note_off,,,,,188,0,1,,,,,0,,,71,0
21500,note_off,,,,,92,0,2,,,,,1,,,43,0
21504,note_on,,,,,64,0,8,,,,,6,,,55,45
21504,note_on,,,,,0,0,6,,,,,5,,,67,60
21504,note_on,,,,,4,0,1,,,,,0,,,72,92
21504,note_on,,,,,0,0,6,,,,,5,,,72,60
21504,note_on,,,,,4,0,2,,,,,1,,,55,108
21504,note_on,,,,,64,0,7,,,,,5,,,55,60
21504,note_on,,,,,64,0,6,,,,,5,,,64,60
21600,note_on,,,,,0,0,2,,,,,1,,,54,108
21600,note_off,,,,,96,0,2,,,,,1,,,55,0
21692,note_off,,,,,188,0,6,,,,,5,,,64,0
21692,note_off,,,,,0,0,6,,,,,5,,,67,0
21692,note_off,,,,,0,0,6,,,,,5,,,72,0
21692,note_off,,,,,188,0,1,,,,,0,,,72,0
21696,note_on,,,,,4,0,6,,,,,5,,,62,60
21696,note_on,,,,,4,0,1,,,,,0,,,71,92
21696,note_on,,,,,0,0,6,,,,,5,,,67,60
21696,note_off,,,,,96,0,2,,,,,1,,,54,0
21696,note_on,,,,,0,0,2,,,,,1,,,55,108
21696,note_on,,,,,0,0,6,,,,,5,,,71,60
21788,note_off,,,,,92,0,2,,,,,1,,,55,0
21792,note_on,,,,,4,0,2,,,,,1,,,43,108
21824,note_off,,,,,320,0,7,,,,,5,,,55,0
21824,note_off,,,,,320,0,8,,,,,6,,,55,0
21884,note_off,,,,,92,0,2,,,,,1,,,43,0
21884,note_off,,,,,0,0,6,,,,,5,,,67,0
21884,note_off,,,,,188,0,6,,,,,5,,,62,0
21884,note_off,,,,,0,0,6,,,,,5,,,71,0
21884,note_off,,,,,188,0,1,,,,,0,,,71,0
21888,note_on,,,,,4,0,6,,,,,5,,,62,60
21888,note_on,,,,,0,0,6,,,,,5,,,67,60
21888,note_on,,,,,0,0,6,,,,,5,,,71,60
21888,note_on,,,,,4,0,2,,,,,1,,,55,108
21888,note_on,,,,,64,0,7,,,,,5,,,55,60
21888,note_on,,,,,64,0,8,,,,,6,,,55,45
21984,note_on,,,,,0,0,2,,,,,1,,,54,108
21984,note_off,,,,,96,0,2,,,,,1,,,55,0
22080,note_off,,,,,96,0,2,,,,,1,,,54,0
22080,note_on,,,,,0,0,2,,,,,1,,,55,108
22080,note_on,,,,,196,0,1,,,,,0,,,79,92
22172,note_off,,,,,92,0,2,,,,,1,,,55,0
22176,note_on,,,,,4,0,2,,,,,1,,,43,108
22208,note_off,,,,,320,0,7,,,,,5,,,55,0
22208,note_off,,,,,320,0,8,,,,,6,,,55,0
22208,note_off,,,,,0,0,6,,,,,5,,,71,0
22208,note_off,,,,,0,0,6,,,,,5,,,67,0
22208,note_off,,,,,320,0,6,,,,,5,,,62,0
22268,note_off,,,,,188,0,1,,,,,0,,,79,0
22268,note_off,,,,,92,0,2,,,,,1,,,43,0
22272,note_on,,,,,4,0,2,,,,,1,,,55,108
22272,note_on,,,,,64,0,6,,,,,5,,,64,60
22272,note_on,,,,,0,0,6,,,,,5,,,67,60
22272,note_on,,,,,0,0,6,,,,,5,,,72,60
22272,note_on,,,,,64,0,8,,,,,6,,,55,45
22272,note_on,,,,,64,0,7,,,,,5,,,55,60
22272,note_on,,,,,4,0,1,,,,,0,,,72,92
22368,note_off,,,,,96,0,2,,,,,1,,,55,0
22368,note_on,,,,,0,0,2,,,,,1,,,54,108
22460,note_off,,,,,188,0,1,,,,,0,,,72,0
22460,note_off,,,,,188,0,6,,,,,5,,,64,0
22460,note_off,,,,,0,0,6,,,,,5,,,67,0
22460,note_off,,,,,0,0,6,,,,,5,,,72,0
22464,note_on,,,,,0,0,6,,,,,5,,,71,60
22464,note_on,,,,,4,0,6,,,,,5,,,62,60
22464,note_on,,,,,0,0,6,,,,,5,,,67,60
22464,note_off,,,,,96,0,2,,,,,1,,,54,0
22464,note_on,,,,,0,0,2,,,,,1,,,55,108
22464,note_on,,,,,4,0,1,,,,,0,,,71,92
22556,note_off,,,,,92,0,2,,,,,1,,,55,0
22560,note_on,,,,,4,0,2,,,,,1,,,43,108
22592,note_off,,,,,320,0,7,,,,,5,,,55,0
22592,note_off,,,,,320,0,8,,,,,6,,,55,0
22652,note_off,,,,,188,0,1,,,,,0,,,71,0
22652,note_off,,,,,188,0,6,,,,,5,,,62,0
22652,note_off,,,,,0,0,6,,,,,5,,,71,0
22652,note_off,,,,,0,0,6,,,,,5,,,67,0
22652,note_off,,,,,92,0,2,,,,,1,,,43,0
22656,note_on,,,,,64,0,8,,,,,6,,,55,45
22656,note_on,,,,,64,0,7,,,,,5,,,55,60
22656,note_on,,,,,0,0,6,,,,,5,,,71,60
22656,note_on,,,,,0,0,6,,,,,5,,,67,60
22656,note_on,,,,,4,0,6,,,,,5,,,62,60
22656,note_on,,,,,4,0,2,,,,,1,,,55,108
22752,note_off,,,,,96,0,2,,,,,1,,,55,0
22752,note_on,,,,,0,0,2,,,,,1,,,54,108
22848,note_on,,,,,196,0,1,,,,,0,,,79,92
22848,note_on,,,,,0,0,2,,,,,1,,,55,108
22848,note_off,,,,,96,0,2,,,,,1,,,54,0
22940,note_off,,,,,92,0,2,,,,,1,,,55,0
22944,note_on,,,,,4,0,2,,,,,1,,,43,108
22976,note_off,,,,,0,0,6,,,,,5,,,71,0
22976,note_off,,,,,0,0,6,,,,,5,,,67,0
22976,note_off,,,,,320,0,6,,,,,5,,,62,0
22976,note_off,,,,,320,0,7,,,,,5,,,55,0
22976,note_off,,,,,320,0,8,,,,,6,,,55,0
23036,note_off,,,,,188,0,1,,,,,0,,,79,0
23036,note_off,,,,,92,0,2,,,,,1,,,43,0
23040,note_on,,,,,64,0,7,,,,,5,,,57,60
23040,note_on,,,,,0,0,6,,,,,5,,,72,60
23040,note_on,,,,,4,0,1,,,,,0,,,72,92
23040,note_on,,,,,64,0,6,,,,,5,,,62,60
23040,note_on,,,,,64,0,8,,,,,6,,,57,45
23040,note_on,,,,,4,0,2,,,,,1,,,57,108
23040,note_on,,,,,0,0,6,,,,,5,,,69,60
23136,note_off,,,,,96,0,2,,,,,1,,,57,0
23136,note_on,,,,,0,0,2,,,,,1,,,55,108
23228,note_off,,,,,188,0,7,,,,,5,,,57,0
23228,note_off,,,,,188,0,8,,,,,6,,,57,0
23232,note_off,,,,,96,0,2,,,,,1,,,55,0
23232,note_on,,,,,0,0,2,,,,,1,,,57,108
23232,note_on,,,,,4,0,7,,,,,5,,,54,60
23232,note_on,,,,,4,0,8,,,,,6,,,54,45
23324,note_off,,,,,92,0,2,,,,,1,,,57,0
23328,note_on,,,,,4,0,2,,,,,1,,,54,108
23360,note_off,,,,,320,0,6,,,,,5,,,62,0
23360,note_off,,,,,0,0,6,,,,,5,,,72,0
23360,note_off,,,,,0,0,6,,,,,5,,,69,0
23360,note_off,,,,,320,0,1,,,,,0,,,72,0
23420,note_off,,,,,188,0,8,,,,,6,,,54,0
23420,note_off,,,,,188,0,7,,,,,5,,,54,0
23420,note_off,,,,,92,0,2,,,,,1,,,54,0
23424,note_on,,,,,4,0,8,,,,,6,,,55,45
23424,note_on,,,,,0,0,6,,,,,5,,,71,60
23424,note_on,,,,,0,0,6,,,,,5,,,67,60
23424,note_on,,,,,64,0,6,,,,,5,,,62,60
23424,note_on,,,,,64,0,1,,,,,0,,,71,92
23424,note_on,,,,,4,0,2,,,,,1,,,55,108
23424,note_on,,,,,4,0,7,,,,,5,,,55,60
23520,note_off,,,,,96,0,2,,,,,1,,,55,0
23520,note_on,,,,,0,0,2,,,,,1,,,54,108
23612,note_off,,,,,188,0,8,,,,,6,,,55,0
23612,note_off,,,,,188,0,6,,,,,5,,,62,0
23612,note_off,,,,,188,0,7,,,,,5,,,55,0
23616,note_on,,,,,0,0,2,,,,,1,,,55,108
23616,note_off,,,,,96,0,2,,,,,1,,,54,0
23616,note_on,,,,,4,0,7,,,,,5,,,49,60
23616,note_on,,,,,4,0,6,,,,,5,,,64,60
23616,note_on,,,,,4,0,8,,,,,6,,,49,45
23708,note_off,,,,,92,0,2,,,,,1,,,55,0
23712,note_on,,,,,4,0,2,,,,,1,,,49,108
23744,note_off,,,,,128,0,6,,,,,5,,,67,0
23744,note_off,,,,,0,0,6,,,,,5,,,71,0
23744,note_off,,,,,320,0,1,,,,,0,,,71,0
23804,note_off,,,,,188,0,8,,,,,6,,,49,0
23804,note_off,,,,,188,0,7,,,,,5,,,49,0
23804,note_off,,,,,60,0,6,,,,,5,,,64,0
23804,note_off,,,,,92,0,2,,,,,1,,,49,0
23808,note_on,,,,,0,0,6,,,,,5,,,69,60
23808,note_on,,,,,4,0,6,,,,,5,,,57,60
23808,note_on,,,,,0,0,6,,,,,5,,,66,60
23808,note_on,,,,,4,0,2,,,,,1,,,50,108
23808,note_on,,,,,64,0,1,,,,,0,,,69,92
23808,note_on,,,,,4,0,8,,,,,6,,,50,45
23808,note_on,,,,,4,0,7,,,,,5,,,50,60
23900,note_off,,,,,92,0,2,,,,,1,,,50,0
23904,note_on,,,,,4,0,2,,,,,1,,,62,108
23996,note_off,,,,,92,0,2,,,,,1,,,62,0
24000,note_on,,,,,4,0,2,,,,,1,,,57,108
24092,note_off,,,,,92,0,2,,,,,1,,,57,0
24096,note_on,,,,,4,0,2,,,,,1,,,54,108
24128,note_off,,,,,0,0,6,,,,,5,,,69,0
24128,note_off,,,,,0,0,6,,,,,5,,,66,0
24128,note_off,,,,,320,0,6,,,,,5,,,57,0
24128,note_off,,,,,320,0,8,,,,,6,,,50,0
24128,note_off,,,,,320,0,7,,,,,5,,,50,0
24128,note_off,,,,,320,0,1,,,,,0,,,69,0
24188,note_off,,,,,92,0,2,,,,,1,,,54,0
24192,note_on,,,,,64,0,6,,,,,5,,,62,60
24192,note_on,,,,,0,0,6,,,,,5,,,66,60
24192,note_on,,,,,0,0,6,,,,,5,,,69,60
24192,note_on,,,,,64,0,8,,,,,6,,,50,45
24192,note_on,,,,,64,0,7,,,,,5,,,50,60
24192,note_on,,,,,4,0,2,,,,,1,,,50,108
24380,note_off,,,,,188,0,8,,,,,6,,,50,0
24380,note_off,,,,,188,0,2,,,,,1,,,50,0
24380,note_off,,,,,0,0,6,,,,,5,,,66,0
24380,note_off,,,,,0,0,6,,,,,5,,,69,0
24380,note_off,,,,,188,0,6,,,,,5,,,62,0
24380,note_off,,,,,188,0,7,,,,,5,,,50,0
24384,note_on,,,,,256,0,1,,,,,0,,,74,92
24572,note_off,,,,,188,0,1,,,,,0,,,74,0
24576,note_on,,,,,4,0,1,,,,,0,,,73,92
24668,note_off,,,,,92,0,1,,,,,0,,,73,0
24672,note_on,,,,,4,0,1,,,,,0,,,74,92
24764,note_off,,,,,92,0,1,,,,,0,,,74,0
24768,note_on,,,,,0,0,6,,,,,5,,,69,60
24768,note_on,,,,,388,0,7,,,,,5,,,57,60
24768,note_on,,,,,388,0,6,,,,,5,,,64,60
24768,note_on,,,,,4,0,1,,,,,0,,,76,92
24768,note_on,,,,,0,0,6,,,,,5,,,73,60
24768,note_on,,,,,388,0,2,,,,,1,,,57,108
24768,note_on,,,,,388,0,8,,,,,6,,,57,45
24860,note_off,,,,,92,0,2,,,,,1,,,57,0
24864,note_on,,,,,4,0,2,,,,,1,,,55,108
24956,note_off,,,,,188,0,7,,,,,5,,,57,0
24956,note_off,,,,,0,0,6,,,,,5,,,69,0
24956,note_off,,,,,188,0,6,,,,,5,,,64,0
24956,note_off,,,,,0,0,6,,,,,5,,,73,0
24956,note_off,,,,,188,0,8,,,,,6,,,57,0
24956,note_off,,,,,92,0,2,,,,,1,,,55,0
24960,note_on,,,,,4,0,7,,,,,5,,,57,60
24960,note_on,,,,,4,0,6,,,,,5,,,64,60
24960,note_on,,,,,4,0,8,,,,,6,,,57,45
24960,note_on,,,,,4,0,2,,,,,1,,,57,108
24960,note_on,,,,,0,0,6,,,,,5,,,73,60
24960,note_on,,,,,0,0,6,,,,,5,,,69,60
25052,note_off,,,,,92,0,2,,,,,1,,,57,0
25056,note_on,,,,,4,0,2,,,,,1,,,55,108
25088,note_off,,,,,320,0,1,,,,,0,,,76,0
25148,note_off,,,,,92,0,2,,,,,1,,,55,0
25152,note_on,,,,,4,0,2,,,,,1,,,57,108
25152,note_on,,,,,64,0,1,,,,,0,,,73,92
25244,note_off,,,,,92,0,2,,,,,1,,,57,0
25248,note_on,,,,,4,0,2,,,,,1,,,45,108
25280,note_off,,,,,0,0,6,,,,,5,,,73,0
25280,note_off,,,,,320,0,6,,,,,5,,,64,0
25280,note_off,,,,,0,0,6,,,,,5,,,69,0
25280,note_off,,,,,320,0,8,,,,,6,,,57,0
25280,note_off,,,,,320,0,7,,,,,5,,,57,0
25340,note_off,,,,,188,0,1,,,,,0,,,73,0
25340,note_off,,,,,92,0,2,,,,,1,,,45,0
25344,note_on,,,,,4,0,1,,,,,0,,,74,92
25436,note_off,,,,,92,0,1,,,,,0,,,74,0
25440,note_on,,,,,4,0,1,,,,,0,,,76,92
25532,note_off,,,,,92,0,1,,,,,0,,,76,0
25536,note_on,,,,,0,0,6,,,,,5,,,69,60
25536,note_on,,,,,0,0,6,,,,,5,,,74,60
25536,note_on,,,,,256,0,7,,,,,5,,,62,60
25536,note_on,,,,,256,0,8,,,,,6,,,62,45
25536,note_on,,,,,196,0,2,,,,,1,,,62,108
25536,note_on,,,,,4,0,1,,,,,0,,,78,92
25536,note_on,,,,,256,0,6,,,,,5,,,66,60
25628,note_off,,,,,92,0,2,,,,,1,,,62,0
25632,note_on,,,,,4,0,2,,,,,1,,,61,108
25724,note_off,,,,,92,0,2,,,,,1,,,61,0
25724,note_off,,,,,188,0,6,,,,,5,,,66,0
25724,note_off,,,,,0,0,6,,,,,5,,,69,0
25724,note_off,,,,,0,0,6,,,,,5,,,74,0
25724,note_off,,,,,188,0,7,,,,,5,,,62,0
25724,note_off,,,,,188,0,8,,,,,6,,,62,0
25728,note_on,,,,,4,0,6,,,,,5,,,66,60
25728,note_on,,,,,0,0,6,,,,,5,,,69,60
25728,note_on,,,,,0,0,6,,,,,5,,,74,60
25728,note_on,,,,,4,0,2,,,,,1,,,62,108
25728,note_on,,,,,4,0,7,,,,,5,,,62,60
25728,note_on,,,,,4,0,8,,,,,6,,,62,45
25820,note_off,,,,,92,0,2,,,,,1,,,62,0
25824,note_on,,,,,4,0,2,,,,,1,,,61,108
25856,note_off,,,,,320,0,1,,,,,0,,,78,0
25916,note_off,,,,,92,0,2,,,,,1,,,61,0
25920,note_on,,,,,4,0,2,,,,,1,,,62,108
25920,note_on,,,,,64,0,1,,,,,0,,,74,92
26012,note_off,,,,,92,0,2,,,,,1,,,62,0
26016,note_on,,,,,4,0,2,,,,,1,,,50,108
26048,note_off,,,,,320,0,7,,,,,5,,,62,0
26048,note_off,,,,,320,0,6,,,,,5,,,66,0
26048,note_off,,,,,0,0,6,,,,,5,,,69,0
26048,note_off,,,,,0,0,6,,,,,5,,,74,0
26048,note_off,,,,,320,0,8,,,,,6,,,62,0
26108,note_off,,,,,92,0,2,,,,,1,,,50,0
26108,note_off,,,,,188,0,1,,,,,0,,,74,0
26112,note_on,,,,,4,0,1,,,,,0,,,76,92
26204,note_off,,,,,92,0,1,,,,,0,,,76,0
26208,note_on,,,,,4,0,1,,,,,0,,,78,92
26300,note_off,,,,,92,0,1,,,,,0,,,78,0
26304,note_on,,,,,4,0,1,,,,,0,,,79,92
26304,note_on,,,,,256,0,8,,,,,6,,,57,45
26304,note_on,,,,,0,0,6,,,,,5,,,73,60
26304,note_on,,,,,256,0,6,,,,,5,,,67,60
26304,note_on,,,,,0,0,6,,,,,5,,,69,60
26304,note_on,,,,,196,0,2,,,,,1,,,57,108
26304,note_on,,,,,256,0,7,,,,,5,,,57,60
26396,note_off,,,,,92,0,2,,,,,1,,,57,0
26400,note_on,,,,,4,0,2,,,,,1,,,55,108
26492,note_off,,,,,188,0,7,,,,,5,,,57,0
26492,note_off,,,,,188,0,6,,,,,5,,,67,0
26492,note_off,,,,,0,0,6,,,,,5,,,69,0
26492,note_off,,,,,0,0,6,,,,,5,,,73,0
26492,note_off,,,,,92,0,2,,,,,1,,,55,0
26492,note_off,,,,,188,0,8,,,,,6,,,57,0
26496,note_on,,,,,0,0,6,,,,,5,,,73,60
26496,note_on,,,,,4,0,2,,,,,1,,,57,108
26496,note_on,,,,,0,0,6,,,,,5,,,69,60
26496,note_on,,,,,4,0,8,,,,,6,,,57,45
26496,note_on,,,,,4,0,6,,,,,5,,,67,60
26496,note_on,,,,,4,0,7,,,,,5,,,57,60
26588,note_off,,,,,92,0,2,,,,,1,,,57,0
26592,note_on,,,,,4,0,2,,,,,1,,,55,108
26624,note_off,,,,,320,0,1,,,,,0,,,79,0
26684,note_off,,,,,92,0,2,,,,,1,,,55,0
26688,note_on,,,,,64,0,1,,,,,0,,,76,92
26688,note_on,,,,,4,0,2,,,,,1,,,57,108
26780,note_off,,,,,92,0,2,,,,,1,,,57,0
26784,note_on,,,,,4,0,2,,,,,1,,,45,108
26816,note_off,,,,,320,0,7,,,,,5,,,57,0
26816,note_off,,,,,320,0,6,,,,,5,,,67,0
26816,note_off,,,,,320,0,8,,,,,6,,,57,0
26816,note_off,,,,,0,0,6,,,,,5,,,73,0
26816,note_off,,,,,0,0,6,,,,,5,,,69,0
26876,note_off,,,,,92,0,2,,,,,1,,,45,0
26876,note_off,,,,,188,0,1,,,,,0,,,76,0
26880,note_on,,,,,4,0,1,,,,,0,,,78,92
27068,note_off,,,,,188,0,1,,,,,0,,,78,0
27072,note_on,,,,,256,0,6,,,,,5,,,66,60
27072,note_on,,,,,196,0,2,,,,,1,,,62,108
27072,note_on,,,,,256,0,8,,,,,6,,,62,45
27072,note_on,,,,,0,0,6,,,,,5,,,74,60
27072,note_on,,,,,4,0,1,,,,,0,,,81,92
27072,note_on,,,,,256,0,7,,,,,5,,,62,60
27072,note_on,,,,,0,0,6,,,,,5,,,69,60
27164,note_off,,,,,92,0,2,,,,,1,,,62,0
27168,note_on,,,,,4,0,2,,,,,1,,,61,108
27260,note_off,,,,,92,0,2,,,,,1,,,61,0
27260,note_off,,,,,188,0,6,,,,,5,,,66,0
27260,note_off,,,,,188,0,8,,,,,6,,,62,0
27260,note_off,,,,,188,0,7,,,,,5,,,62,0
27260,note_off,,,,,0,0,6,,,,,5,,,74,0
27260,note_off,,,,,0,0,6,,,,,5,,,69,0
27264,note_on,,,,,0,0,6,,,,,5,,,69,60
27264,note_on,,,,,4,0,6,,,,,5,,,66,60
27264,note_on,,,,,4,0,8,,,,,6,,,62,45
27264,note_on,,,,,0,0,6,,,,,5,,,74,60
27264,note_on,,,,,4,0,7,,,,,5,,,62,60
27264,note_on,,,,,4,0,2,,,,,1,,,62,108
27356,note_off,,,,,92,0,2,,,,,1,,,62,0
27360,note_on,,,,,4,0,2,,,,,1,,,61,108
27392,note_off,,,,,320,0,1,,,,,0,,,81,0
27452,note_off,,,,,92,0,2,,,,,1,,,61,0
27456,note_on,,,,,4,0,2,,,,,1,,,62,108
27456,note_on,,,,,64,0,1,,,,,0,,,78,92
27548,note_off,,,,,92,0,2,,,,,1,,,62,0
27552,note_on,,,,,4,0,2,,,,,1,,,50,108
27584,note_off,,,,,0,0,6,,,,,5,,,74,0
27584,note_off,,,,,320,0,7,,,,,5,,,62,0
27584,note_off,,,,,0,0,6,,,,,5,,,69,0
27584,note_off,,,,,320,0,6,,,,,5,,,66,0
27584,note_off,,,,,320,0,8,,,,,6,,,62,0
27644,note_off,,,,,188,0,1,,,,,0,,,78,0
27644,note_off,,,,,92,0,2,,,,,1,,,50,0
27648,note_on,,,,,4,0,1,,,,,0,,,76,92
27836,note_off,,,,,188,0,1,,,,,0,,,76,0
27840,note_on,,,,,0,0,6,,,,,5,,,76,60
27840,note_on,,,,,196,0,2,,,,,1,,,61,108
27840,note_on,,,,,256,0,8,,,,,6,,,61,45
27840,note_on,,,,,256,0,6,,,,,5,,,67,60
27840,note_on,,,,,256,0,7,,,,,5,,,61,60
27840,note_on,,,,,0,0,6,,,,,5,,,69,60
27840,note_on,,,,,4,0,1,,,,,0,,,81,92
27932,note_off,,,,,92,0,2,,,,,1,,,61,0
27936,note_on,,,,,4,0,2,,,,,1,,,59,108
28028,note_off,,,,,0,0,6,,,,,5,,,69,0
28028,note_off,,,,,0,0,6,,,,,5,,,76,0
28028,note_off,,,,,92,0,2,,,,,1,,,59,0
28028,note_off,,,,,188,0,7,,,,,5,,,61,0
28028,note_off,,,,,188,0,6,,,,,5,,,67,0
28028,note_off,,,,,188,0,8,,,,,6,,,61,0
28032,note_on,,,,,4,0,7,,,,,5,,,61,60
28032,note_on,,,,,0,0,6,,,,,5,,,69,60
28032,note_on,,,,,4,0,8,,,,,6,,,61,45
28032,note_on,,,,,0,0,6,,,,,5,,,76,60
28032,note_on,,,,,4,0,2,,,,,1,,,61,108
28032,note_on,,,,,4,0,6,,,,,5,,,67,60
28124,note_off,,,,,92,0,2,,,,,1,,,61,0
28128,note_on,,,,,4,0,2,,,,,1,,,59,108
28160,note_off,,,,,320,0,1,,,,,0,,,81,0
28220,note_off,,,,,92,0,2,,,,,1,,,59,0
28224,note_on,,,,,4,0,2,,,,,1,,,61,108
28224,note_on,,,,,64,0,1,,,,,0,,,76,92
28316,note_off,,,,,92,0,2,,,,,1,,,61,0
28320,note_on,,,,,4,0,2,,,,,1,,,49,108
28352,note_off,,,,,320,0,7,,,,,5,,,61,0
28352,note_off,,,,,0,0,6,,,,,5,,,69,0
28352,note_off,,,,,320,0,6,,,,,5,,,67,0
28352,note_off,,,,,320,0,8,,,,,6,,,61,0
28352,note_off,,,,,0,0,6,,,,,5,,,76,0
28412,note_off,,,,,92,0,2,,,,,1,,,49,0
28412,note_off,,,,,188,0,1,,,,,0,,,76,0
28416,note_on,,,,,4,0,1,,,,,0,,,74,92
28604,note_off,,,,,188,0,1,,,,,0,,,74,0
28608,note_on,,,,,196,0,2,,,,,1,,,59,108
28608,note_on,,,,,4,0,1,,,,,0,,,81,92
28608,note_on,,,,,256,0,6,,,,,5,,,67,60
28608,note_on,,,,,0,0,6,,,,,5,,,74,60
28608,note_on,,,,,256,0,8,,,,,6,,,59,45
28608,note_on,,,,,256,0,7,,,,,5,,,59,60
28700,note_off,,,,,92,0,2,,,,,1,,,59,0
28704,note_on,,,,,4,0,2,,,,,1,,,57,108
28796,note_off,,,,,188,0,7,,,,,5,,,59,0
28796,note_off,,,,,0,0,6,,,,,5,,,74,0
28796,note_off,,,,,188,0,6,,,,,5,,,67,0
28796,note_off,,,,,188,0,8,,,,,6,,,59,0
28796,note_off,,,,,92,0,2,,,,,1,,,57,0
28800,note_on,,,,,4,0,7,,,,,5,,,59,60
28800,note_on,,,,,4,0,8,,,,,6,,,59,45
28800,note_on,,,,,4,0,2,,,,,1,,,59,108
28800,note_on,,,,,0,0,6,,,,,5,,,74,60
28800,note_on,,,,,4,0,6,,,,,5,,,67,60
28892,note_off,,,,,92,0,2,,,,,1,,,59,0
28896,note_on,,,,,4,0,2,,,,,1,,,57,108
28928,note_off,,,,,320,0,1,,,,,0,,,81,0
28988,note_off,,,,,92,0,2,,,,,1,,,57,0
28992,note_on,,,,,64,0,1,,,,,0,,,74,92
28992,note_on,,,,,4,0,2,,,,,1,,,59,108
29084,note_off,,,,,92,0,2,,,,,1,,,59,0
29088,note_on,,,,,4,0,2,,,,,1,,,47,108
29120,note_off,,,,,320,0,7,,,,,5,,,59,0
29120,note_off,,,,,320,0,8,,,,,6,,,59,0
29120,note_off,,,,,0,0,6,,,,,5,,,74,0
29120,note_off,,,,,320,0,6,,,,,5,,,67,0
29180,note_off,,,,,92,0,2,,,,,1,,,47,0
29180,note_off,,,,,188,0,1,,,,,0,,,74,0
29184,note_on,,,,,4,0,1,,,,,0,,,73,92
29276,note_off,,,,,92,0,1,,,,,0,,,73,0
29280,note_on,,,,,4,0,1,,,,,0,,,71,92
29372,note_off,,,,,92,0,1,,,,,0,,,71,0
29376,note_on,,,,,0,0,6,,,,,5,,,73,60
29376,note_on,,,,,4,0,1,,,,,0,,,69,92
29376,note_on,,,,,0,0,6,,,,,5,,,69,60
29376,note_on,,,,,196,0,2,,,,,1,,,57,108
29376,note_on,,,,,256,0,8,,,,,6,,,57,45
29376,note_on,,,,,256,0,6,,,,,5,,,67,60
29376,note_on,,,,,256,0,7,,,,,5,,,57,60
29468,note_off,,,,,92,0,2,,,,,1,,,57,0
29472,note_on,,,,,4,0,2,,,,,1,,,55,108
29564,note_off,,,,,188,0,8,,,,,6,,,57,0
29564,note_off,,,,,188,0,6,,,,,5,,,67,0
29564,note_off,,,,,92,0,2,,,,,1,,,55,0
29564,note_off,,,,,188,0,1,,,,,0,,,69,0
29564,note_off,,,,,0,0,6,,,,,5,,,69,0
29564,note_off,,,,,0,0,6,,,,,5,,,73,0
29564,note_off,,,,,188,0,7,,,,,5,,,57,0
29568,note_on,,,,,4,0,7,,,,,5,,,57,60
29568,note_on,,,,,4,0,6,,,,,5,,,67,60
29568,note_on,,,,,0,0,6,,,,,5,,,73,60
29568,note_on,,,,,4,0,2,,,,,1,,,57,108
29568,note_on,,,,,4,0,8,,,,,6,,,57,45
29568,note_on,,,,,0,0,6,,,,,5,,,69,60
29660,note_off,,,,,92,0,2,,,,,1,,,57,0
29664,note_on,,,,,4,0,2,,,,,1,,,55,108
29756,note_off,,,,,92,0,2,,,,,1,,,55,0
29760,note_on,,,,,4,0,2,,,,,1,,,57,108
29760,note_on,,,,,196,0,1,,,,,0,,,79,92
29852,note_off,,,,,92,0,2,,,,,1,,,57,0
29856,note_on,,,,,4,0,2,,,,,1,,,45,108
29888,note_off,,,,,320,0,6,,,,,5,,,67,0
29888,note_off,,,,,0,0,6,,,,,5,,,69,0
29888,note_off,,,,,0,0,6,,,,,5,,,73,0
29888,note_off,,,,,320,0,7,,,,,5,,,57,0
29888,note_off,,,,,320,0,8,,,,,6,,,57,0
29948,note_off,,,,,188,0,1,,,,,0,,,79,0
29948,note_off,,,,,92,0,2,,,,,1,,,45,0
29952,note_on,,,,,4,0,2,,,,,1,,,50,108
29952,note_on,,,,,0,0,6,,,,,5,,,74,60
29952,note_on,,,,,4,0,1,,,,,0,,,78,92
29952,note_on,,,,,64,0,6,,,,,5,,,66,60
29952,note_on,,,,,64,0,7,,,,,5,,,50,60
29952,note_on,,,,,0,0,6,,,,,5,,,69,60
29952,note_on,,,,,64,0,8,,,,,6,,,50,45
30140,note_off,,,,,188,0,8,,,,,6,,,50,0
30140,note_off,,,,,188,0,2,,,,,1,,,50,0
30140,note_off,,,,,188,0,6,,,,,5,,,66,0
30140,note_off,,,,,188,0,1,,,,,0,,,78,0
30140,note_off,,,,,188,0,7,,,,,5,,,50,0
30140,note_off,,,,,0,0,6,,,,,5,,,74,0
30140,note_off,,,,,0,0,6,,,,,5,,,69,0
30144,note_on,,,,,4,0,8,,,,,6,,,62,45
30144,note_on,,,,,4,0,2,,,,,1,,,62,108
30144,note_on,,,,,4,0,1,,,,,0,,,76,92
30144,note_on,,,,,0,0,6,,,,,5,,,74,60
30144,note_on,,,,,0,0,6,,,,,5,,,69,60
30144,note_on,,,,,4,0,6,,,,,5,,,66,60
30144,note_on,,,,,4,0,7,,,,,5,,,62,60
30236,note_off,,,,,92,0,1,,,,,0,,,76,0
30240,note_on,,,,,4,0,1,,,,,0,,,74,92
30332,note_off,,,,,92,0,1,,,,,0,,,74,0
30332,note_off,,,,,188,0,2,,,,,1,,,62,0
30332,note_off,,,,,0,0,6,,,,,5,,,74,0
30332,note_off,,,,,0,0,6,,,,,5,,,69,0
30332,note_off,,,,,188,0,6,,,,,5,,,66,0
30332,note_off,,,,,188,0,8,,,,,6,,,62,0
30332,note_off,,,,,188,0,7,,,,,5,,,62,0
30336,note_on,,,,,4,0,7,,,,,5,,,57,60
30336,note_on,,,,,4,0,2,,,,,1,,,57,108
30336,note_on,,,,,0,0,6,,,,,5,,,74,60
30336,note_on,,,,,4,0,6,,,,,5,,,64,60
30336,note_on,,,,,0,0,6,,,,,5,,,69,60
30336,note_on,,,,,4,0,1,,,,,0,,,76,92
30336,note_on,,,,,4,0,8,,,,,6,,,57,45
30524,note_off,,,,,188,0,6,,,,,5,,,74,0
30524,note_off,,,,,188,0,2,,,,,1,,,57,0
30524,note_off,,,,,188,0,7,,,,,5,,,57,0
30524,note_off,,,,,188,0,8,,,,,6,,,57,0
30528,note_on,,,,,4,0,8,,,,,6,,,45,45
30528,note_on,,,,,4,0,6,,,,,5,,,73,60
30528,note_on,,,,,4,0,2,,,,,1,,,45,108
30528,note_on,,,,,4,0,7,,,,,5,,,45,60
30656,note_off,,,,,128,0,6,,,,,5,,,64,0
30656,note_off,,,,,0,0,6,,,,,5,,,69,0
30656,note_off,,,,,320,0,1,,,,,0,,,76,0
30716,note_off,,,,,188,0,8,,,,,6,,,45,0
30716,note_off,,,,,60,0,6,,,,,5,,,73,0
30716,note_off,,,,,188,0,7,,,,,5,,,45,0
30716,note_off,,,,,188,0,2,,,,,1,,,45,0
30720,note_on,,,,,4,0,2,,,,,1,,,50,92
30720,note_on,,,,,4,0,6,,,,,5,,,66,92
30720,note_on,,,,,4,0,7,,,,,5,,,50,92
30720,note_on,,,,,64,0,1,,,,,0,,,74,92
30720,note_on,,,,,12736,0,3,,,,,2,,,62,92
30720,note_on,,,,,4,0,8,,,,,6,,,50,92
30720,note_on,,,,,12736,0,4,,,,,3,,,62,92
30720,note_on,,,,,0,0,6,,,,,5,,,69,92
30720,note_on,,,,,0,0,6,,,,,5,,,74,92
30816,note_on,,,,,12832,0,5,,,,,4,,,74,92
30908,note_off,,,,,92,0,5,,,,,4,,,74,0
30912,note_on,,,,,4,0,5,,,,,4,,,69,92
31004,note_off,,,,,92,0,5,,,,,4,,,69,0
31008,note_on,,,,,4,0,5,,,,,4,,,66,92
31040,note_off,,,,,320,0,3,,,,,2,,,62,0
31040,note_off,,,,,320,0,2,,,,,1,,,50,0
31040,note_off,,,,,320,0,8,,,,,6,,,50,0
31040,note_off,,,,,320,0,4,,,,,3,,,62,0
31040,note_off,,,,,320,0,6,,,,,5,,,66,0
31040,note_off,,,,,0,0,6,,,,,5,,,69,0
31040,note_off,,,,,0,0,6,,,,,5,,,74,0
31040,note_off,,,,,320,0,1,,,,,0,,,74,0
31040,note_off,,,,,320,0,7,,,,,5,,,50,0
31100,note_off,,,,,92,0,5,,,,,4,,,66,0
31104,note_on,,,,,64,0,4,,,,,3,,,74,92
31104,note_on,,,,,64,0,1,,,,,0,,,74,92
31104,note_on,,,,,4,0,5,,,,,4,,,62,92
31104,note_on,,,,,64,0,6,,,,,5,,,66,92
31104,note_on,,,,,64,0,3,,,,,2,,,74,92
31104,note_on,,,,,0,0,6,,,,,5,,,69,92
31104,note_on,,,,,0,0,6,,,,,5,,,74,92
31200,note_on,,,,,160,0,8,,,,,6,,,62,92
31200,note_on,,,,,160,0,2,,,,,1,,,62,92
31200,note_on,,,,,160,0,7,,,,,5,,,62,92
31292,note_off,,,,,92,0,2,,,,,1,,,62,0
31292,note_off,,,,,92,0,7,,,,,5,,,62,0
31292,note_off,,,,,92,0,8,,,,,6,,,62,0
31296,note_on,,,,,4,0,2,,,,,1,,,54,92
31296,note_on,,,,,4,0,7,,,,,5,,,54,92
31296,note_on,,,,,4,0,8,,,,,6,,,54,92
31388,note_off,,,,,92,0,2,,,,,1,,,54,0
31388,note_off,,,,,92,0,8,,,,,6,,,54,0
31388,note_off,,,,,92,0,7,,,,,5,,,54,0
31392,note_on,,,,,4,0,8,,,,,6,,,50,92
31392,note_on,,,,,4,0,7,,,,,5,,,50,92
31392,note_on,,,,,4,0,2,,,,,1,,,50,92
31424,note_off,,,,,320,0,6,,,,,5,,,66,0
31424,note_off,,,,,0,0,6,,,,,5,,,69,0
31424,note_off,,,,,0,0,6,,,,,5,,,74,0
31424,note_off,,,,,320,0,4,,,,,3,,,74,0
31424,note_off,,,,,320,0,1,,,,,0,,,74,0
31424,note_off,,,,,320,0,5,,,,,4,,,62,0
31424,note_off,,,,,320,0,3,,,,,2,,,74,0
31484,note_off,,,,,92,0,2,,,,,1,,,50,0
31484,note_off,,,,,92,0,8,,,,,6,,,50,0
31484,note_off,,,,,92,0,7,,,,,5,,,50,0
31488,note_on,,,,,4,0,2,,,,,1,,,57,92
31488,note_on,,,,,4,0,8,,,,,6,,,57,92
31488,note_on,,,,,64,0,1,,,,,0,,,73,92
31488,note_on,,,,,64,0,6,,,,,5,,,64,92
31488,note_on,,,,,64,0,4,,,,,3,,,73,92
31488,note_on,,,,,0,0,6,,,,,5,,,73,92
31488,note_on,,,,,4,0,7,,,,,5,,,57,92
31488,note_on,,,,,64,0,3,,,,,2,,,73,92
31488,note_on,,,,,0,0,6,,,,,5,,,69,92
31580,note_off,,,,,92,0,1,,,,,0,,,73,0
31580,note_off,,,,,92,0,3,,,,,2,,,73,0
31580,note_off,,,,,92,0,4,,,,,3,,,73,0
31584,note_on,,,,,4,0,3,,,,,2,,,76,92
31584,note_on,,,,,160,0,5,,,,,4,,,69,92
31584,note_on,,,,,4,0,4,,,,,3,,,76,92
31584,note_on,,,,,4,0,1,,,,,0,,,76,92
31676,note_off,,,,,92,0,5,,,,,4,,,69,0
31676,note_off,,,,,92,0,3,,,,,2,,,76,0
31676,note_off,,,,,92,0,4,,,,,3,,,76,0
31676,note_off,,,,,92,0,1,,,,,0,,,76,0
31680,note_on,,,,,4,0,4,,,,,3,,,69,92
31680,note_on,,,,,4,0,1,,,,,0,,,69,92
31680,note_on,,,,,4,0,5,,,,,4,,,64,92
31680,note_on,,,,,4,0,3,,,,,2,,,69,92
31772,note_off,,,,,92,0,5,,,,,4,,,64,0
31776,note_on,,,,,4,0,5,,,,,4,,,61,92
31808,note_off,,,,,320,0,6,,,,,5,,,64,0
31808,note_off,,,,,320,0,2,,,,,1,,,57,0
31808,note_off,,,,,320,0,8,,,,,6,,,57,0
31808,note_off,,,,,320,0,7,,,,,5,,,57,0
31808,note_off,,,,,0,0,6,,,,,5,,,73,0
31808,note_off,,,,,0,0,6,,,,,5,,,69,0
31868,note_off,,,,,92,0,5,,,,,4,,,61,0
31872,note_on,,,,,0,0,6,,,,,5,,,69,92
31872,note_on,,,,,4,0,5,,,,,4,,,57,92
31872,note_on,,,,,0,0,6,,,,,5,,,73,92
31872,note_on,,,,,64,0,6,,,,,5,,,64,92
31968,note_on,,,,,160,0,8,,,,,6,,,57,92
31968,note_on,,,,,160,0,2,,,,,1,,,57,92
31968,note_on,,,,,160,0,7,,,,,5,,,57,92
32000,note_off,,,,,320,0,3,,,,,2,,,69,0
32000,note_off,,,,,320,0,1,,,,,0,,,69,0
32000,note_off,,,,,320,0,4,,,,,3,,,69,0
32060,note_off,,,,,92,0,2,,,,,1,,,57,0
32060,note_off,,,,,92,0,8,,,,,6,,,57,0
32060,note_off,,,,,92,0,7,,,,,5,,,57,0
32064,note_on,,,,,4,0,7,,,,,5,,,49,92
32064,note_on,,,,,64,0,3,,,,,2,,,67,92
32064,note_on,,,,,4,0,8,,,,,6,,,49,92
32064,note_on,,,,,64,0,4,,,,,3,,,67,92
32064,note_on,,,,,4,0,2,,,,,1,,,49,92
32064,note_on,,,,,64,0,1,,,,,0,,,67,92
32156,note_off,,,,,92,0,8,,,,,6,,,49,0
32156,note_off,,,,,92,0,7,,,,,5,,,49,0
32156,note_off,,,,,92,0,2,,,,,1,,,49,0
32160,note_on,,,,,4,0,8,,,,,6,,,45,92
32160,note_on,,,,,4,0,2,,,,,1,,,45,92
32160,note_on,,,,,4,0,7,,,,,5,,,45,92
32192,note_off,,,,,320,0,6,,,,,5,,,64,0
32192,note_off,,,,,0,0,6,,,,,5,,,69,0
32192,note_off,,,,,320,0,5,,,,,4,,,57,0
32192,note_off,,,,,0,0,6,,,,,5,,,73,0
32252,note_off,,,,,188,0,4,,,,,3,,,67,0
32252,note_off,,,,,92,0,7,,,,,5,,,45,0
32252,note_off,,,,,188,0,3,,,,,2,,,67,0
32252,note_off,,,,,92,0,2,,,,,1,,,45,0
32252,note_off,,,,,188,0,1,,,,,0,,,67,0
32252,note_off,,,,,92,0,8,,,,,6,,,45,0
32256,note_on,,,,,0,0,6,,,,,5,,,74,92
32256,note_on,,,,,4,0,8,,,,,6,,,50,92
32256,note_on,,,,,4,0,2,,,,,1,,,50,92
32256,note_on,,,,,64,0,5,,,,,4,,,57,92
32256,note_on,,,,,64,0,6,,,,,5,,,66,92
32256,note_on,,,,,4,0,4,,,,,3,,,66,92
32256,note_on,,,,,0,0,6,,,,,5,,,69,92
32256,note_on,,,,,4,0,1,,,,,0,,,66,92
32256,note_on,,,,,4,0,7,,,,,5,,,50,92
32256,note_on,,,,,4,0,3,,,,,2,,,66,92
32348,note_off,,,,,92,0,4,,,,,3,,,66,0
32348,note_off,,,,,92,0,3,,,,,2,,,66,0
32348,note_off,,,,,92,0,1,,,,,0,,,66,0
32352,note_on,,,,,4,0,3,,,,,2,,,69,92
32352,note_on,,,,,4,0,1,,,,,0,,,69,92
32352,note_on,,,,,4,0,4,,,,,3,,,69,92
32444,note_off,,,,,0,0,6,,,,,5,,,74,0
32444,note_off,,,,,92,0,1,,,,,0,,,69,0
32444,note_off,,,,,188,0,6,,,,,5,,,66,0
32444,note_off,,,,,188,0,5,,,,,4,,,57,0
32444,note_off,,,,,188,0,8,,,,,6,,,50,0
32444,note_off,,,,,92,0,4,,,,,3,,,69,0
32444,note_off,,,,,188,0,7,,,,,5,,,50,0
32444,note_off,,,,,92,0,3,,,,,2,,,69,0
32444,note_off,,,,,0,0,6,,,,,5,,,69,0
32444,note_off,,,,,188,0,2,,,,,1,,,50,0
32448,note_on,,,,,4,0,2,,,,,1,,,50,92
32448,note_on,,,,,4,0,4,,,,,3,,,62,92
32448,note_on,,,,,4,0,1,,,,,0,,,62,92
32448,note_on,,,,,4,0,8,,,,,6,,,50,92
32448,note_on,,,,,4,0,5,,,,,4,,,57,92
32448,note_on,,,,,4,0,3,,,,,2,,,62,92
32448,note_on,,,,,0,0,6,,,,,5,,,74,92
32448,note_on,,,,,0,0,6,,,,,5,,,69,92
32448,note_on,,,,,4,0,7,,,,,5,,,50,92
32448,note_on,,,,,4,0,6,,,,,5,,,66,92
32636,note_off,,,,,188,0,1,,,,,0,,,62,0
32636,note_off,,,,,188,0,4,,,,,3,,,62,0
32636,note_off,,,,,188,0,2,,,,,1,,,50,0
32636,note_off,,,,,188,0,3,,,,,2,,,62,0
32636,note_off,,,,,188,0,7,,,,,5,,,50,0
32636,note_off,,,,,188,0,8,,,,,6,,,50,0
32636,note_off,,,,,188,0,5,,,,,4,,,57,0
32640,note_on,,,,,4,0,2,,,,,1,,,50,92
32640,note_on,,,,,4,0,7,,,,,5,,,50,92
32640,note_on,,,,,4,0,8,,,,,6,,,50,92
32640,note_on,,,,,4,0,5,,,,,4,,,57,92
32704,note_on,,,,,68,0,1,,,,,0,,,81,92
32704,note_on,,,,,68,0,3,,,,,2,,,81,92
32704,note_on,,,,,68,0,4,,,,,3,,,81,92
32768,note_off,,,,,64,0,1,,,,,0,,,81,0
32768,note_on,,,,,0,0,1,,,,,0,,,79,92
32768,note_off,,,,,64,0,4,,,,,3,,,81,0
32768,note_off,,,,,0,0,6,,,,,5,,,74,0
32768,note_on,,,,,0,0,4,,,,,3,,,79,92
32768,note_off,,,,,0,0,6,,,,,5,,,69,0
32768,note_off,,,,,320,0,6,,,,,5,,,66,0
32768,note_on,,,,,0,0,3,,,,,2,,,79,92
32768,note_off,,,,,64,0,3,,,,,2,,,81,0
32828,note_off,,,,,188,0,2,,,,,1,,,50,0
32828,note_off,,,,,188,0,5,,,,,4,,,57,0
32828,note_off,,,,,188,0,7,,,,,5,,,50,0
32828,note_off,,,,,188,0,8,,,,,6,,,50,0
32832,note_off,,,,,64,0,4,,,,,3,,,79,0
32832,note_on,,,,,64,0,6,,,,,5,,,66,92
32832,note_off,,,,,64,0,1,,,,,0,,,79,0
32832,note_on,,,,,4,0,7,,,,,5,,,50,92
32832,note_on,,,,,0,0,1,,,,,0,,,78,92
32832,note_on,,,,,0,0,6,,,,,5,,,69,92
32832,note_on,,,,,0,0,3,,,,,2,,,78,92
32832,note_off,,,,,64,0,3,,,,,2,,,79,0
32832,note_on,,,,,4,0,2,,,,,1,,,50,92
32832,note_on,,,,,4,0,5,,,,,4,,,57,92
32832,note_on,,,,,4,0,8,,,,,6,,,50,92
32832,note_on,,,,,0,0,4,,,,,3,,,78,92
32832,note_on,,,,,0,0,6,,,,,5,,,74,92
32896,note_on,,,,,0,0,3,,,,,2,,,76,92
32896,note_on,,,,,0,0,1,,,,,0,,,76,92
32896,note_off,,,,,64,0,1,,,,,0,,,78,0
32896,note_on,,,,,0,0,4,,,,,3,,,76,92
32896,note_off,,,,,64,0,4,,,,,3,,,78,0
32896,note_off,,,,,64,0,3,,,,,2,,,78,0
32960,note_off,,,,,64,0,1,,,,,0,,,76,0
32960,note_on,,,,,0,0,4,,,,,3,,,74,92
32960,note_on,,,,,0,0,1,,,,,0,,,74,92
32960,note_on,,,,,0,0,3,,,,,2,,,74,92
32960,note_off,,,,,64,0,3,,,,,2,,,76,0
32960,note_off,,,,,64,0,4,,,,,3,,,76,0
33020,note_off,,,,,188,0,2,,,,,1,,,50,0
33020,note_off,,,,,188,0,5,,,,,4,,,57,0
33020,note_off,,,,,0,0,6,,,,,5,,,69,0
33020,note_off,,,,,60,0,4,,,,,3,,,74,0
33020,note_off,,,,,188,0,6,,,,,5,,,66,0
33020,note_off,,,,,60,0,3,,,,,2,,,74,0
33020,note_off,,,,,188,0,8,,,,,6,,,50,0
33020,note_off,,,,,60,0,1,,,,,0,,,74,0
33020,note_off,,,,,0,0,6,,,,,5,,,74,0
33020,note_off,,,,,188,0,7,,,,,5,,,50,0
33024,note_on,,,,,0,0,6,,,,,5,,,69,92
33024,note_on,,,,,4,0,6,,,,,5,,,64,92
33024,note_on,,,,,4,0,4,,,,,3,,,76,92
33024,note_on,,,,,4,0,1,,,,,0,,,76,92
33024,note_on,,,,,4,0,5,,,,,4,,,61,92
33024,note_on,,,,,4,0,2,,,,,1,,,45,92
33024,note_on,,,,,4,0,3,,,,,2,,,76,92
33024,note_on,,,,,4,0,8,,,,,6,,,45,92
33024,note_on,,,,,4,0,7,,,,,5,,,45,92
33024,note_on,,,,,0,0,6,,,,,5,,,73,92
33212,note_off,,,,,188,0,1,,,,,0,,,76,0
33212,note_off,,,,,188,0,7,,,,,5,,,45,0
33212,note_off,,,,,188,0,2,,,,,1,,,45,0
33212,note_off,,,,,0,0,6,,,,,5,,,69,0
33212,note_off,,,,,188,0,5,,,,,4,,,61,0
33212,note_off,,,,,188,0,4,,,,,3,,,76,0
33212,note_off,,,,,188,0,6,,,,,5,,,64,0
33212,note_off,,,,,188,0,8,,,,,6,,,45,0
33212,note_off,,,,,188,0,3,,,,,2,,,76,0
33212,note_off,,,,,0,0,6,,,,,5,,,73,0
33216,note_on,,,,,4,0,2,,,,,1,,,45,92
33216,note_on,,,,,4,0,3,,,,,2,,,69,92
33216,note_on,,,,,0,0,6,,,,,5,,,73,92
33216,note_on,,,,,0,0,6,,,,,5,,,69,92
33216,note_on,,,,,4,0,4,,,,,3,,,69,92
33216,note_on,,,,,4,0,1,,,,,0,,,69,92
33216,note_on,,,,,4,0,8,,,,,6,,,45,92
33216,note_on,,,,,4,0,7,,,,,5,,,45,92
33216,note_on,,,,,4,0,5,,,,,4,,,61,92
33216,note_on,,,,,4,0,6,,,,,5,,,64,92
33404,note_off,,,,,188,0,2,,,,,1,,,45,0
33404,note_off,,,,,188,0,8,,,,,6,,,45,0
33404,note_off,,,,,188,0,3,,,,,2,,,69,0
33404,note_off,,,,,188,0,5,,,,,4,,,61,0
33404,note_off,,,,,188,0,7,,,,,5,,,45,0
33404,note_off,,,,,188,0,1,,,,,0,,,69,0
33404,note_off,,,,,188,0,4,,,,,3,,,69,0
33408,note_on,,,,,4,0,5,,,,,4,,,61,92
33408,note_on,,,,,4,0,2,,,,,1,,,45,92
33408,note_on,,,,,4,0,8,,,,,6,,,45,92
33408,note_on,,,,,4,0,7,,,,,5,,,45,92
33472,note_on,,,,,68,0,1,,,,,0,,,81,92
33472,note_on,,,,,68,0,4,,,,,3,,,81,92
33472,note_on,,,,,68,0,3,,,,,2,,,81,92
33536,note_off,,,,,0,0,6,,,,,5,,,73,0
33536,note_off,,,,,0,0,6,,,,,5,,,69,0
33536,note_off,,,,,320,0,6,,,,,5,,,64,0
33536,note_off,,,,,64,0,3,,,,,2,,,81,0
33536,note_off,,,,,64,0,4,,,,,3,,,81,0
33536,note_on,,,,,0,0,1,,,,,0,,,79,92
33536,note_on,,,,,0,0,3,,,,,2,,,79,92
33536,note_off,,,,,64,0,1,,,,,0,,,81,0
33536,note_on,,,,,0,0,4,,,,,3,,,79,92
33596,note_off,,,,,188,0,2,,,,,1,,,45,0
33596,note_off,,,,,188,0,5,,,,,4,,,61,0
33596,note_off,,,,,188,0,7,,,,,5,,,45,0
33596,note_off,,,,,188,0,8,,,,,6,,,45,0
33600,note_off,,,,,64,0,4,,,,,3,,,79,0
33600,note_on,,,,,0,0,4,,,,,3,,,78,92
33600,note_on,,,,,0,0,1,,,,,0,,,78,92
33600,note_off,,,,,64,0,1,,,,,0,,,79,0
33600,note_on,,,,,4,0,2,,,,,1,,,50,92
33600,note_on,,,,,4,0,5,,,,,4,,,57,92
33600,note_on,,,,,0,0,6,,,,,5,,,74,92
33600,note_on,,,,,0,0,3,,,,,2,,,78,92
33600,note_on,,,,,4,0,7,,,,,5,,,50,92
33600,note_on,,,,,4,0,8,,,,,6,,,50,92
33600,note_off,,,,,64,0,3,,,,,2,,,79,0
33600,note_on,,,,,64,0,6,,,,,5,,,66,92
33600,note_on,,,,,0,0,6,,,,,5,,,69,92
33664,note_off,,,,,64,0,4,,,,,3,,,78,0
33664,note_on,,,,,0,0,4,,,,,3,,,76,92
33664,note_on,,,,,0,0,1,,,,,0,,,76,92
33664,note_off,,,,,64,0,1,,,,,0,,,78,0
33664,note_on,,,,,0,0,3,,,,,2,,,76,92
33664,note_off,,,,,64,0,3,,,,,2,,,78,0
33728,note_off,,,,,64,0,1,,,,,0,,,76,0
33728,note_on,,,,,0,0,1,,,,,0,,,74,92
33728,note_on,,,,,0,0,4,,,,,3,,,74,92
33728,note_off,,,,,64,0,4,,,,,3,,,76,0
33728,note_on,,,,,0,0,3,,,,,2,,,74,92
33728,note_off,,,,,64,0,3,,,,,2,,,76,0
33788,note_off,,,,,60,0,3,,,,,2,,,74,0
33788,note_off,,,,,188,0,8,,,,,6,,,50,0
33788,note_off,,,,,188,0,6,,,,,5,,,66,0
33788,note_off,,,,,0,0,6,,,,,5,,,74,0
33788,note_off,,,,,60,0,4,,,,,3,,,74,0
33788,note_off,,,,,0,0,6,,,,,5,,,69,0
33788,note_off,,,,,188,0,5,,,,,4,,,57,0
33788,note_off,,,,,60,0,1,,,,,0,,,74,0
33788,note_off,,,,,188,0,2,,,,,1,,,50,0
33788,note_off,,,,,188,0,7,,,,,5,,,50,0
33792,note_on,,,,,4,0,5,,,,,4,,,57,92
33792,note_on,,,,,4,0,4,,,,,3,,,76,92
33792,note_on,,,,,4,0,6,,,,,5,,,64,92
33792,note_on,,,,,4,0,3,,,,,2,,,76,92
33792,note_on,,,,,0,0,6,,,,,5,,,69,92
33792,note_on,,,,,4,0,7,,,,,5,,,45,92
33792,note_on,,,,,0,0,6,,,,,5,,,73,92
33792,note_on,,,,,4,0,2,,,,,1,,,45,92
33792,note_on,,,,,4,0,1,,,,,0,,,76,92
33792,note_on,,,,,4,0,8,,,,,6,,,45,92
33884,note_off,,,,,92,0,4,,,,,3,,,76,0
33888,note_on,,,,,4,0,4,,,,,3,,,73,92
33980,note_off,,,,,188,0,6,,,,,5,,,64,0
33980,note_off,,,,,0,0,6,,,,,5,,,69,0
33980,note_off,,,,,0,0,6,,,,,5,,,73,0
33980,note_off,,,,,188,0,7,,,,,5,,,45,0
33980,note_off,,,,,188,0,5,,,,,4,,,57,0
33980,note_off,,,,,188,0,3,,,,,2,,,76,0
33980,note_off,,,,,188,0,2,,,,,1,,,45,0
33980,note_off,,,,,188,0,1,,,,,0,,,76,0
33980,note_off,,,,,188,0,8,,,,,6,,,45,0
33980,note_off,,,,,92,0,4,,,,,3,,,73,0
33984,note_on,,,,,4,0,4,,,,,3,,,76,92
33984,note_on,,,,,4,0,5,,,,,4,,,73,92
33984,note_on,,,,,0,0,6,,,,,5,,,73,92
33984,note_on,,,,,4,0,6,,,,,5,,,64,92
33984,note_on,,,,,4,0,8,,,,,6,,,45,92
33984,note_on,,,,,4,0,1,,,,,0,,,69,92
33984,note_on,,,,,4,0,3,,,,,2,,,69,92
33984,note_on,,,,,4,0,2,,,,,1,,,45,92
33984,note_on,,,,,4,0,7,,,,,5,,,45,92
33984,note_on,,,,,0,0,6,,,,,5,,,69,92
34076,note_off,,,,,92,0,5,,,,,4,,,73,0
34076,note_off,,,,,92,0,4,,,,,3,,,76,0
34080,note_on,,,,,4,0,5,,,,,4,,,69,92
34080,note_on,,,,,4,0,4,,,,,3,,,73,92
34172,note_off,,,,,92,0,5,,,,,4,,,69,0
34172,note_off,,,,,188,0,1,,,,,0,,,69,0
34172,note_off,,,,,188,0,2,,,,,1,,,45,0
34172,note_off,,,,,188,0,8,,,,,6,,,45,0
34172,note_off,,,,,188,0,7,,,,,5,,,45,0
34172,note_off,,,,,188,0,3,,,,,2,,,69,0
34172,note_off,,,,,92,0,4,,,,,3,,,73,0
34176,note_on,,,,,4,0,7,,,,,5,,,45,92
34176,note_on,,,,,4,0,5,,,,,4,,,73,92
34176,note_on,,,,,4,0,4,,,,,3,,,76,92
34176,note_on,,,,,4,0,2,,,,,1,,,45,92
34176,note_on,,,,,4,0,8,,,,,6,,,45,92
34268,note_off,,,,,92,0,5,,,,,4,,,73,0
34268,note_off,,,,,92,0,4,,,,,3,,,76,0
34272,note_on,,,,,4,0,5,,,,,4,,,69,92
34272,note_on,,,,,4,0,4,,,,,3,,,73,92
34304,note_off,,,,,320,0,6,,,,,5,,,64,0
34304,note_off,,,,,0,0,6,,,,,5,,,69,0
34304,note_off,,,,,0,0,6,,,,,5,,,73,0
34364,note_off,,,,,92,0,5,,,,,4,,,69,0
34364,note_off,,,,,92,0,4,,,,,3,,,73,0
34364,note_off,,,,,188,0,2,,,,,1,,,45,0
34364,note_off,,,,,188,0,7,,,,,5,,,45,0
34364,note_off,,,,,188,0,8,,,,,6,,,45,0
34368,note_on,,,,,196,0,3,,,,,2,,,79,92
34368,note_on,,,,,196,0,1,,,,,0,,,79,92
34368,note_on,,,,,4,0,7,,,,,5,,,45,92
34368,note_on,,,,,4,0,8,,,,,6,,,45,92
34368,note_on,,,,,4,0,2,,,,,1,,,45,92
34368,note_on,,,,,0,0,6,,,,,5,,,73,92
34368,note_on,,,,,0,0,6,,,,,5,,,69,92
34368,note_on,,,,,64,0,6,,,,,5,,,67,92
34368,note_on,,,,,4,0,5,,,,,4,,,73,92
34368,note_on,,,,,4,0,4,,,,,3,,,76,92
34460,note_off,,,,,92,0,5,,,,,4,,,73,0
34460,note_off,,,,,92,0,4,,,,,3,,,76,0
34464,note_on,,,,,4,0,5,,,,,4,,,69,92
34464,note_on,,,,,4,0,4,,,,,3,,,73,92
34556,note_off,,,,,188,0,8,,,,,6,,,45,0
34556,note_off,,,,,188,0,2,,,,,1,,,45,0
34556,note_off,,,,,0,0,6,,,,,5,,,73,0
34556,note_off,,,,,0,0,6,,,,,5,,,69,0
34556,note_off,,,,,188,0,6,,,,,5,,,67,0
34556,note_off,,,,,188,0,3,,,,,2,,,79,0
34556,note_off,,,,,188,0,1,,,,,0,,,79,0
34556,note_off,,,,,188,0,7,,,,,5,,,45,0
34556,note_off,,,,,92,0,5,,,,,4,,,69,0
34556,note_off,,,,,92,0,4,,,,,3,,,73,0
34560,note_on,,,,,0,0,6,,,,,5,,,73,92
34560,note_on,,,,,0,0,6,,,,,5,,,69,92
34560,note_on,,,,,4,0,6,,,,,5,,,67,92
34560,note_on,,,,,4,0,3,,,,,2,,,81,92
34560,note_on,,,,,4,0,4,,,,,3,,,76,92
34560,note_on,,,,,4,0,7,,,,,5,,,45,92
34560,note_on,,,,,4,0,8,,,,,6,,,45,92
34560,note_on,,,,,4,0,5,,,,,4,,,73,92
34560,note_on,,,,,4,0,2,,,,,1,,,45,92
34560,note_on,,,,,4,0,1,,,,,0,,,81,92
34608,note_off,,,,,48,0,1,,,,,0,,,81,0
34608,note_on,,,,,0,0,1,,,,,0,,,79,92
34608,note_off,,,,,48,0,3,,,,,2,,,81,0
34608,note_on,,,,,0,0,3,,,,,2,,,79,92
34652,note_off,,,,,92,0,4,,,,,3,,,76,0
34652,note_off,,,,,92,0,5,,,,,4,,,73,0
34656,note_off,,,,,48,0,3,,,,,2,,,79,0
34656,note_on,,,,,0,0,3,,,,,2,,,78,92
34656,note_on,,,,,4,0,4,,,,,3,,,73,92
34656,note_off,,,,,48,0,1,,,,,0,,,79,0
34656,note_on,,,,,0,0,1,,,,,0,,,78,92
34656,note_on,,,,,4,0,5,,,,,4,,,69,92
34748,note_off,,,,,188,0,7,,,,,5,,,45,0
34748,note_off,,,,,92,0,4,,,,,3,,,73,0
34748,note_off,,,,,188,0,2,,,,,1,,,45,0
34748,note_off,,,,,188,0,8,,,,,6,,,45,0
34748,note_off,,,,,92,0,5,,,,,4,,,69,0
34752,note_off,,,,,96,0,1,,,,,0,,,78,0
34752,note_on,,,,,0,0,3,,,,,2,,,79,92
34752,note_off,,,,,96,0,3,,,,,2,,,78,0
34752,note_on,,,,,4,0,2,,,,,1,,,45,92
34752,note_on,,,,,4,0,8,,,,,6,,,45,92
34752,note_on,,,,,4,0,5,,,,,4,,,73,92
34752,note_on,,,,,4,0,7,,,,,5,,,45,92
34752,note_on,,,,,0,0,1,,,,,0,,,79,92
34752,note_on,,,,,4,0,4,,,,,3,,,76,92
34844,note_off,,,,,92,0,5,,,,,4,,,73,0
34844,note_off,,,,,92,0,4,,,,,3,,,76,0
34848,note_on,,,,,4,0,5,,,,,4,,,69,92
34848,note_on,,,,,4,0,4,,,,,3,,,73,92
34880,note_off,,,,,0,0,6,,,,,5,,,73,0
34880,note_off,,,,,0,0,6,,,,,5,,,69,0
34880,note_off,,,,,320,0,6,,,,,5,,,67,0
34940,note_off,,,,,188,0,2,,,,,1,,,45,0
34940,note_off,,,,,188,0,1,,,,,0,,,79,0
34940,note_off,,,,,92,0,4,,,,,3,,,73,0
34940,note_off,,,,,188,0,7,,,,,5,,,45,0
34940,note_off,,,,,188,0,3,,,,,2,,,79,0
34940,note_off,,,,,92,0,5,,,,,4,,,69,0
34940,note_off,,,,,188,0,8,,,,,6,,,45,0
34944,note_on,,,,,4,0,5,,,,,4,,,73,92
34944,note_on,,,,,4,0,8,,,,,6,,,45,92
34944,note_on,,,,,4,0,4,,,,,3,,,76,92
34944,note_on,,,,,4,0,2,,,,,1,,,45,92
34944,note_on,,,,,4,0,1,,,,,0,,,81,92
34944,note_on,,,,,4,0,3,,,,,2,,,81,92
34944,note_on,,,,,0,0,6,,,,,5,,,73,92
34944,note_on,,,,,64,0,6,,,,,5,,,67,92
34944,note_on,,,,,0,0,6,,,,,5,,,69,92
34944,note_on,,,,,4,0,7,,,,,5,,,45,92
34992,note_off,,,,,48,0,1,,,,,0,,,81,0
34992,note_on,,,,,0,0,1,,,,,0,,,79,92
34992,note_on,,,,,0,0,3,,,,,2,,,79,92
34992,note_off,,,,,48,0,3,,,,,2,,,81,0
35036,note_off,,,,,92,0,5,,,,,4,,,73,0
35036,note_off,,,,,92,0,4,,,,,3,,,76,0
35040,note_on,,,,,0,0,3,,,,,2,,,78,92
35040,note_off,,,,,48,0,1,,,,,0,,,79,0
35040,note_on,,,,,4,0,5,,,,,4,,,69,92
35040,note_on,,,,,0,0,1,,,,,0,,,78,92
35040,note_off,,,,,48,0,3,,,,,2,,,79,0
35040,note_on,,,,,4,0,4,,,,,3,,,73,92
35132,note_off,,,,,188,0,8,,,,,6,,,45,0
35132,note_off,,,,,92,0,4,,,,,3,,,73,0
35132,note_off,,,,,92,0,5,,,,,4,,,69,0
35132,note_off,,,,,188,0,7,,,,,5,,,45,0
35132,note_off,,,,,188,0,2,,,,,1,,,45,0
35136,note_on,,,,,4,0,4,,,,,3,,,76,92
35136,note_on,,,,,4,0,8,,,,,6,,,45,92
35136,note_off,,,,,96,0,1,,,,,0,,,78,0
35136,note_on,,,,,4,0,2,,,,,1,,,45,92
35136,note_on,,,,,0,0,1,,,,,0,,,79,92
35136,note_on,,,,,0,0,3,,,,,2,,,79,92
35136,note_on,,,,,4,0,5,,,,,4,,,73,92
35136,note_on,,,,,4,0,7,,,,,5,,,45,92
35136,note_off,,,,,96,0,3,,,,,2,,,78,0
35228,note_off,,,,,92,0,4,,,,,3,,,76,0
35228,note_off,,,,,92,0,5,,,,,4,,,73,0
35232,note_on,,,,,4,0,4,,,,,3,,,73,92
35232,note_on,,,,,4,0,5,,,,,4,,,69,92
35264,note_off,,,,,0,0,6,,,,,5,,,73,0
35264,note_off,,,,,0,0,6,,,,,5,,,69,0
35264,note_off,,,,,320,0,6,,,,,5,,,67,0
35324,note_off,,,,,92,0,4,,,,,3,,,73,0
35324,note_off,,,,,188,0,7,,,,,5,,,45,0
35324,note_off,,,,,188,0,1,,,,,0,,,79,0
35324,note_off,,,,,188,0,8,,,,,6,,,45,0
35324,note_off,,,,,92,0,5,,,,,4,,,69,0
35324,note_off,,,,,188,0,2,,,,,1,,,45,0
35324,note_off,,,,,188,0,3,,,,,2,,,79,0
35328,note_on,,,,,4,0,5,,,,,4,,,73,92
35328,note_on,,,,,4,0,7,,,,,5,,,45,92
35328,note_on,,,,,4,0,1,,,,,0,,,67,92
35328,note_on,,,,,64,0,6,,,,,5,,,67,92
35328,note_on,,,,,0,0,6,,,,,5,,,73,92
35328,note_on,,,,,0,0,6,,,,,5,,,69,92
35328,note_on,,,,,4,0,2,,,,,1,,,45,92
35328,note_on,,,,,4,0,8,,,,,6,,,45,92
35328,note_on,,,,,4,0,3,,,,,2,,,67,92
35328,note_on,,,,,4,0,4,,,,,3,,,76,92
35392,note_off,,,,,64,0,3,,,,,2,,,67,0
35392,note_on,,,,,0,0,1,,,,,0,,,69,92
35392,note_off,,,,,64,0,1,,,,,0,,,67,0
35392,note_on,,,,,0,0,3,,,,,2,,,69,92
35420,note_off,,,,,92,0,4,,,,,3,,,76,0
35420,note_off,,,,,92,0,5,,,,,4,,,73,0
35424,note_on,,,,,4,0,5,,,,,4,,,69,92
35424,note_on,,,,,4,0,4,,,,,3,,,73,92
35456,note_on,,,,,0,0,1,,,,,0,,,71,92
35456,note_off,,,,,64,0,3,,,,,2,,,69,0
35456,note_off,,,,,64,0,1,,,,,0,,,69,0
35456,note_on,,,,,0,0,3,,,,,2,,,71,92
35516,note_off,,,,,92,0,4,,,,,3,,,73,0
35516,note_off,,,,,188,0,7,,,,,5,,,45,0
35516,note_off,,,,,92,0,5,,,,,4,,,69,0
35516,note_off,,,,,188,0,8,,,,,6,,,45,0
35516,note_off,,,,,188,0,2,,,,,1,,,45,0
35520,note_on,,,,,0,0,1,,,,,0,,,73,92
35520,note_on,,,,,4,0,4,,,,,3,,,76,92
35520,note_on,,,,,0,0,3,,,,,2,,,73,92
35520,note_on,,,,,4,0,7,,,,,5,,,45,92
35520,note_on,,,,,4,0,8,,,,,6,,,45,92
35520,note_on,,,,,4,0,5,,,,,4,,,73,92
35520,note_off,,,,,64,0,3,,,,,2,,,71,0
35520,note_off,,,,,64,0,1,,,,,0,,,71,0
35520,note_on,,,,,4,0,2,,,,,1,,,45,92
35584,note_on,,,,,0,0,3,,,,,2,,,74,92
35584,note_off,,,,,64,0,3,,,,,2,,,73,0
35584,note_on,,,,,0,0,1,,,,,0,,,74,92
35584,note_off,,,,,64,0,1,,,,,0,,,73,0
35612,note_off,,,,,92,0,5,,,,,4,,,73,0
35612,note_off,,,,,92,0,4,,,,,3,,,76,0
35616,note_on,,,,,4,0,5,,,,,4,,,69,92
35616,note_on,,,,,4,0,4,,,,,3,,,73,92
35648,note_off,,,,,320,0,6,,,,,5,,,67,0
35648,note_off,,,,,0,0,6,,,,,5,,,69,0
35648,note_on,,,,,0,0,1,,,,,0,,,76,92
35648,note_off,,,,,64,0,1,,,,,0,,,74,0
35648,note_on,,,,,0,0,3,,,,,2,,,76,92
35648,note_off,,,,,64,0,3,,,,,2,,,74,0
35648,note_off,,,,,0,0,6,,,,,5,,,73,0
35708,note_off,,,,,60,0,3,,,,,2,,,76,0
35708,note_off,,,,,60,0,1,,,,,0,,,76,0
35708,note_off,,,,,188,0,2,,,,,1,,,45,0
35708,note_off,,,,,188,0,8,,,,,6,,,45,0
35708,note_off,,,,,92,0,4,,,,,3,,,73,0
35708,note_off,,,,,188,0,7,,,,,5,,,45,0
35708,note_off,,,,,92,0,5,,,,,4,,,69,0
35712,note_on,,,,,64,0,6,,,,,5,,,67,92
35712,note_on,,,,,0,0,6,,,,,5,,,69,92
35712,note_on,,,,,4,0,7,,,,,5,,,45,92
35712,note_on,,,,,4,0,8,,,,,6,,,45,92
35712,note_on,,,,,0,0,6,,,,,5,,,73,92
35712,note_on,,,,,4,0,4,,,,,3,,,76,92
35712,note_on,,,,,4,0,5,,,,,4,,,73,92
35712,note_on,,,,,4,0,2,,,,,1,,,45,92
35712,note_on,,,,,4,0,3,,,,,2,,,76,92
35712,note_on,,,,,4,0,1,,,,,0,,,76,92
35804,note_off,,,,,92,0,5,,,,,4,,,73,0
35804,note_off,,,,,92,0,4,,,,,3,,,76,0
35808,note_on,,,,,4,0,5,,,,,4,,,69,92
35808,note_on,,,,,4,0,4,,,,,3,,,73,92
35900,note_off,,,,,92,0,4,,,,,3,,,73,0
35900,note_off,,,,,0,0,6,,,,,5,,,69,0
35900,note_off,,,,,0,0,6,,,,,5,,,73,0
35900,note_off,,,,,188,0,6,,,,,5,,,67,0
35900,note_off,,,,,188,0,3,,,,,2,,,76,0
35900,note_off,,,,,188,0,2,,,,,1,,,45,0
35900,note_off,,,,,188,0,8,,,,,6,,,45,0
35900,note_off,,,,,188,0,7,,,,,5,,,45,0
35900,note_off,,,,,92,0,5,,,,,4,,,69,0
35900,note_off,,,,,188,0,1,,,,,0,,,76,0
35904,note_on,,,,,4,0,2,,,,,1,,,45,92
35904,note_on,,,,,4,0,7,,,,,5,,,45,92
35904,note_on,,,,,0,0,6,,,,,5,,,69,92
35904,note_on,,,,,4,0,4,,,,,3,,,76,92
35904,note_on,,,,,4,0,5,,,,,4,,,73,92
35904,note_on,,,,,4,0,6,,,,,5,,,64,92
35904,note_on,,,,,0,0,6,,,,,5,,,67,92
35904,note_on,,,,,4,0,8,,,,,6,,,45,92
35996,note_off,,,,,92,0,4,,,,,3,,,76,0
35996,note_off,,,,,92,0,5,,,,,4,,,73,0
36000,note_on,,,,,4,0,4,,,,,3,,,73,92
36000,note_on,,,,,4,0,5,,,,,4,,,69,92
36092,note_off,,,,,188,0,2,,,,,1,,,45,0
36092,note_off,,,,,188,0,7,,,,,5,,,45,0
36092,note_off,,,,,92,0,4,,,,,3,,,73,0
36092,note_off,,,,,0,0,6,,,,,5,,,69,0
36092,note_off,,,,,0,0,6,,,,,5,,,67,0
36092,note_off,,,,,188,0,6,,,,,5,,,64,0
36092,note_off,,,,,188,0,8,,,,,6,,,45,0
36092,note_off,,,,,92,0,5,,,,,4,,,69,0
36096,note_on,,,,,0,0,6,,,,,5,,,66,92
36096,note_on,,,,,4,0,5,,,,,4,,,69,92
36096,note_on,,,,,4,0,7,,,,,5,,,50,92
36096,note_on,,,,,4,0,2,,,,,1,,,50,92
36096,note_on,,,,,4,0,8,,,,,6,,,50,92
36096,note_on,,,,,4,0,4,,,,,3,,,78,92
36096,note_on,,,,,196,0,3,,,,,2,,,67,92
36096,note_on,,,,,4,0,6,,,,,5,,,62,92
36096,note_on,,,,,196,0,1,,,,,0,,,67,92
36096,note_on,,,,,0,0,6,,,,,5,,,69,92
36144,note_on,,,,,0,0,3,,,,,2,,,66,92
36144,note_on,,,,,0,0,1,,,,,0,,,66,92
36144,note_off,,,,,48,0,3,,,,,2,,,67,0
36144,note_off,,,,,48,0,1,,,,,0,,,67,0
36188,note_off,,,,,92,0,4,,,,,3,,,78,0
36188,note_off,,,,,92,0,5,,,,,4,,,69,0
36192,note_on,,,,,4,0,4,,,,,3,,,74,92
36192,note_on,,,,,0,0,1,,,,,0,,,64,92
36192,note_off,,,,,48,0,3,,,,,2,,,66,0
36192,note_on,,,,,0,0,3,,,,,2,,,64,92
36192,note_on,,,,,4,0,5,,,,,4,,,66,92
36192,note_off,,,,,48,0,1,,,,,0,,,66,0
36284,note_off,,,,,92,0,4,,,,,3,,,74,0
36284,note_off,,,,,92,0,5,,,,,4,,,66,0
36284,note_off,,,,,188,0,8,,,,,6,,,50,0
36284,note_off,,,,,188,0,2,,,,,1,,,50,0
36284,note_off,,,,,188,0,7,,,,,5,,,50,0
36288,note_on,,,,,0,0,3,,,,,2,,,66,92
36288,note_on,,,,,4,0,4,,,,,3,,,78,92
36288,note_on,,,,,4,0,2,,,,,1,,,50,92
36288,note_on,,,,,4,0,7,,,,,5,,,50,92
36288,note_off,,,,,96,0,3,,,,,2,,,64,0
36288,note_on,,,,,4,0,5,,,,,4,,,69,92
36288,note_on,,,,,4,0,8,,,,,6,,,50,92
36288,note_on,,,,,0,0,1,,,,,0,,,66,92
36288,note_off,,,,,96,0,1,,,,,0,,,64,0
36380,note_off,,,,,92,0,5,,,,,4,,,69,0
36380,note_off,,,,,92,0,4,,,,,3,,,78,0
36384,note_on,,,,,4,0,4,,,,,3,,,74,92
36384,note_on,,,,,4,0,5,,,,,4,,,66,92
36416,note_off,,,,,320,0,6,,,,,5,,,62,0
36416,note_off,,,,,0,0,6,,,,,5,,,66,0
36416,note_off,,,,,0,0,6,,,,,5,,,69,0
36476,note_off,,,,,188,0,8,,,,,6,,,50,0
36476,note_off,,,,,92,0,4,,,,,3,,,74,0
36476,note_off,,,,,188,0,2,,,,,1,,,50,0
36476,note_off,,,,,188,0,1,,,,,0,,,66,0
36476,note_off,,,,,188,0,3,,,,,2,,,66,0
36476,note_off,,,,,188,0,7,,,,,5,,,50,0
36476,note_off,,,,,92,0,5,,,,,4,,,66,0
36480,note_on,,,,,4,0,5,,,,,4,,,69,92
36480,note_on,,,,,4,0,1,,,,,0,,,67,92
36480,note_on,,,,,4,0,2,,,,,1,,,50,92
36480,note_on,,,,,4,0,3,,,,,2,,,67,92
36480,note_on,,,,,4,0,4,,,,,3,,,78,92
36480,note_on,,,,,0,0,6,,,,,5,,,69,92
36480,note_on,,,,,4,0,8,,,,,6,,,50,92
36480,note_on,,,,,0,0,6,,,,,5,,,66,92
36480,note_on,,,,,64,0,6,,,,,5,,,62,92
36480,note_on,,,,,4,0,7,,,,,5,,,50,92
36528,note_off,,,,,48,0,3,,,,,2,,,67,0
36528,note_on,,,,,0,0,3,,,,,2,,,66,92
36528,note_off,,,,,48,0,1,,,,,0,,,67,0
36528,note_on,,,,,0,0,1,,,,,0,,,66,92
36572,note_off,,,,,92,0,4,,,,,3,,,78,0
36572,note_off,,,,,92,0,5,,,,,4,,,69,0
36576,note_on,,,,,4,0,5,,,,,4,,,66,92
36576,note_on,,,,,0,0,3,,,,,2,,,64,92
36576,note_off,,,,,48,0,3,,,,,2,,,66,0
36576,note_on,,,,,4,0,4,,,,,3,,,74,92
36576,note_on,,,,,0,0,1,,,,,0,,,64,92
36576,note_off,,,,,48,0,1,,,,,0,,,66,0
36668,note_off,,,,,188,0,7,,,,,5,,,50,0
36668,note_off,,,,,188,0,2,,,,,1,,,50,0
36668,note_off,,,,,92,0,5,,,,,4,,,66,0
36668,note_off,,,,,92,0,4,,,,,3,,,74,0
36668,note_off,,,,,188,0,8,,,,,6,,,50,0
36672,note_off,,,,,96,0,1,,,,,0,,,64,0
36672,note_on,,,,,0,0,1,,,,,0,,,66,92
36672,note_on,,,,,4,0,8,,,,,6,,,50,92
36672,note_on,,,,,4,0,5,,,,,4,,,69,92
36672,note_off,,,,,96,0,3,,,,,2,,,64,0
36672,note_on,,,,,0,0,3,,,,,2,,,66,92
36672,note_on,,,,,4,0,7,,,,,5,,,50,92
36672,note_on,,,,,4,0,4,,,,,3,,,78,92
36672,note_on,,,,,4,0,2,,,,,1,,,50,92
36764,note_off,,,,,92,0,4,,,,,3,,,78,0
36764,note_off,,,,,92,0,5,,,,,4,,,69,0
36768,note_on,,,,,4,0,4,,,,,3,,,74,92
36768,note_on,,,,,4,0,5,,,,,4,,,66,92
36800,note_off,,,,,0,0,6,,,,,5,,,69,0
36800,note_off,,,,,0,0,6,,,,,5,,,66,0
36800,note_off,,,,,320,0,6,,,,,5,,,62,0
36860,note_off,,,,,92,0,5,,,,,4,,,66,0
36860,note_off,,,,,92,0,4,,,,,3,,,74,0
36860,note_off,,,,,188,0,2,,,,,1,,,50,0
36860,note_off,,,,,188,0,1,,,,,0,,,66,0
36860,note_off,,,,,188,0,8,,,,,6,,,50,0
36860,note_off,,,,,188,0,3,,,,,2,,,66,0
36860,note_off,,,,,188,0,7,,,,,5,,,50,0
36864,note_on,,,,,4,0,4,,,,,3,,,78,92
36864,note_on,,,,,64,0,6,,,,,5,,,62,92
36864,note_on,,,,,4,0,2,,,,,1,,,50,92
36864,note_on,,,,,0,0,6,,,,,5,,,66,92
36864,note_on,,,,,4,0,5,,,,,4,,,69,92
36864,note_on,,,,,0,0,6,,,,,5,,,69,92
36864,note_on,,,,,4,0,7,,,,,5,,,50,92
36864,note_on,,,,,4,0,1,,,,,0,,,66,92
36864,note_on,,,,,4,0,8,,,,,6,,,50,92
36864,note_on,,,,,4,0,3,,,,,2,,,66,92
36928,note_off,,,,,64,0,1,,,,,0,,,66,0
36928,note_on,,,,,0,0,1,,,,,0,,,67,92
36928,note_off,,,,,64,0,3,,,,,2,,,66,0
36928,note_on,,,,,0,0,3,,,,,2,,,67,92
36956,note_off,,,,,92,0,4,,,,,3,,,78,0
36956,note_off,,,,,92,0,5,,,,,4,,,69,0
36960,note_on,,,,,4,0,5,,,,,4,,,66,92
36960,note_on,,,,,4,0,4,,,,,3,,,74,92
36992,note_on,,,,,0,0,1,,,,,0,,,69,92
36992,note_off,,,,,64,0,3,,,,,2,,,67,0
36992,note_on,,,,,0,0,3,,,,,2,,,69,92
36992,note_off,,,,,64,0,1,,,,,0,,,67,0
37052,note_off,,,,,188,0,7,,,,,5,,,50,0
37052,note_off,,,,,188,0,2,,,,,1,,,50,0
37052,note_off,,,,,92,0,4,,,,,3,,,74,0
37052,note_off,,,,,188,0,8,,,,,6,,,50,0
37052,note_off,,,,,92,0,5,,,,,4,,,66,0
37056,note_on,,,,,4,0,5,,,,,4,,,69,92
37056,note_on,,,,,4,0,2,,,,,1,,,50,92
37056,note_on,,,,,4,0,7,,,,,5,,,50,92
37056,note_on,,,,,0,0,1,,,,,0,,,71,92
37056,note_off,,,,,64,0,1,,,,,0,,,69,0
37056,note_on,,,,,4,0,4,,,,,3,,,78,92
37056,note_off,,,,,64,0,3,,,,,2,,,69,0
37056,note_on,,,,,0,0,3,,,,,2,,,71,92
37056,note_on,,,,,4,0,8,,,,,6,,,50,92
37120,note_on,,,,,0,0,1,,,,,0,,,73,92
37120,note_on,,,,,0,0,3,,,,,2,,,73,92
37120,note_off,,,,,64,0,1,,,,,0,,,71,0
37120,note_off,,,,,64,0,3,,,,,2,,,71,0
37148,note_off,,,,,92,0,5,,,,,4,,,69,0
37148,note_off,,,,,92,0,4,,,,,3,,,78,0
37152,note_on,,,,,4,0,5,,,,,4,,,66,92
37152,note_on,,,,,4,0,4,,,,,3,,,74,92
37184,note_off,,,,,64,0,3,,,,,2,,,73,0
37184,note_on,,,,,0,0,3,,,,,2,,,74,92
37184,note_off,,,,,320,0,6,,,,,5,,,62,0
37184,note_off,,,,,0,0,6,,,,,5,,,66,0
37184,note_off,,,,,0,0,6,,,,,5,,,69,0
37184,note_on,,,,,0,0,1,,,,,0,,,74,92
37184,note_off,,,,,64,0,1,,,,,0,,,73,0
37244,note_off,,,,,188,0,7,,,,,5,,,50,0
37244,note_off,,,,,60,0,1,,,,,0,,,74,0
37244,note_off,,,,,188,0,2,,,,,1,,,50,0
37244,note_off,,,,,92,0,5,,,,,4,,,66,0
37244,note_off,,,,,60,0,3,,,,,2,,,74,0
37244,note_off,,,,,92,0,4,,,,,3,,,74,0
37244,note_off,,,,,188,0,8,,,,,6,,,50,0
37248,note_on,,,,,4,0,4,,,,,3,,,78,92
37248,note_on,,,,,4,0,8,,,,,6,,,50,92
37248,note_on,,,,,64,0,6,,,,,5,,,62,92
37248,note_on,,,,,4,0,7,,,,,5,,,50,92
37248,note_on,,,,,0,0,6,,,,,5,,,66,92
37248,note_on,,,,,4,0,2,,,,,1,,,50,92
37248,note_on,,,,,0,0,6,,,,,5,,,69,92
37248,note_on,,,,,4,0,5,,,,,4,,,69,92
37248,note_on,,,,,4,0,1,,,,,0,,,74,92
37248,note_on,,,,,4,0,3,,,,,2,,,74,92
37340,note_off,,,,,92,0,5,,,,,4,,,69,0
37340,note_off,,,,,92,0,4,,,,,3,,,78,0
37344,note_on,,,,,4,0,4,,,,,3,,,74,92
37344,note_on,,,,,4,0,5,,,,,4,,,66,92
37436,note_off,,,,,188,0,1,,,,,0,,,74,0
37436,note_off,,,,,188,0,2,,,,,1,,,50,0
37436,note_off,,,,,0,0,6,,,,,5,,,66,0
37436,note_off,,,,,188,0,7,,,,,5,,,50,0
37436,note_off,,,,,188,0,3,,,,,2,,,74,0
37436,note_off,,,,,188,0,8,,,,,6,,,50,0
37436,note_off,,,,,188,0,6,,,,,5,,,62,0
37436,note_off,,,,,0,0,6,,,,,5,,,69,0
37436,note_off,,,,,92,0,4,,,,,3,,,74,0
37436,note_off,,,,,92,0,5,,,,,4,,,66,0
37440,note_on,,,,,4,0,8,,,,,6,,,50,92
37440,note_on,,,,,4,0,4,,,,,3,,,78,92
37440,note_on,,,,,0,0,6,,,,,5,,,69,92
37440,note_on,,,,,4,0,6,,,,,5,,,66,92
37440,note_on,,,,,4,0,5,,,,,4,,,69,92
37440,note_on,,,,,4,0,2,,,,,1,,,50,92
37440,note_on,,,,,4,0,7,,,,,5,,,50,92
37440,note_on,,,,,0,0,6,,,,,5,,,74,92
37532,note_off,,,,,92,0,4,,,,,3,,,78,0
37532,note_off,,,,,92,0,5,,,,,4,,,69,0
37536,note_on,,,,,4,0,4,,,,,3,,,74,92
37536,note_on,,,,,4,0,5,,,,,4,,,66,92
37628,note_off,,,,,92,0,5,,,,,4,,,66,0
37628,note_off,,,,,92,0,4,,,,,3,,,74,0
37628,note_off,,,,,188,0,7,,,,,5,,,50,0
37628,note_off,,,,,188,0,2,,,,,1,,,50,0
37628,note_off,,,,,188,0,8,,,,,6,,,50,0
37628,note_off,,,,,0,0,6,,,,,5,,,74,0
37628,note_off,,,,,0,0,6,,,,,5,,,69,0
37628,note_off,,,,,188,0,6,,,,,5,,,66,0
37632,note_on,,,,,0,0,6,,,,,5,,,69,92
37632,note_on,,,,,4,0,5,,,,,4,,,69,92
37632,note_on,,,,,4,0,7,,,,,5,,,45,92
37632,note_on,,,,,0,0,6,,,,,5,,,73,92
37632,note_on,,,,,4,0,6,,,,,5,,,67,92
37632,note_on,,,,,4,0,2,,,,,1,,,45,92
37632,note_on,,,,,4,0,4,,,,,3,,,73,92
37632,note_on,,,,,196,0,3,,,,,2,,,76,92
37632,note_on,,,,,196,0,1,,,,,0,,,76,92
37632,note_on,,,,,4,0,8,,,,,6,,,45,92
37696,note_off,,,,,64,0,1,,,,,0,,,76,0
37696,note_on,,,,,0,0,1,,,,,0,,,78,92
37696,note_off,,,,,64,0,3,,,,,2,,,76,0
37696,note_on,,,,,0,0,3,,,,,2,,,78,92
37696,note_off,,,,,64,0,4,,,,,3,,,73,0
37696,note_on,,,,,0,0,4,,,,,3,,,74,92
37760,note_off,,,,,64,0,4,,,,,3,,,74,0
37760,note_off,,,,,64,0,3,,,,,2,,,78,0
37760,note_on,,,,,0,0,3,,,,,2,,,79,92
37760,note_on,,,,,0,0,4,,,,,3,,,76,92
37760,note_on,,,,,0,0,1,,,,,0,,,79,92
37760,note_off,,,,,64,0,1,,,,,0,,,78,0
37820,note_off,,,,,188,0,2,,,,,1,,,45,0
37820,note_off,,,,,60,0,3,,,,,2,,,79,0
37820,note_off,,,,,60,0,4,,,,,3,,,76,0
37820,note_off,,,,,188,0,8,,,,,6,,,45,0
37820,note_off,,,,,60,0,1,,,,,0,,,79,0
37820,note_off,,,,,188,0,7,,,,,5,,,45,0
37820,note_off,,,,,188,0,5,,,,,4,,,69,0
37824,note_on,,,,,4,0,5,,,,,4,,,69,92
37824,note_on,,,,,4,0,7,,,,,5,,,45,92
37824,note_on,,,,,4,0,2,,,,,1,,,45,92
37824,note_on,,,,,4,0,4,,,,,3,,,76,92
37824,note_on,,,,,4,0,1,,,,,0,,,79,92
37824,note_on,,,,,4,0,8,,,,,6,,,45,92
37824,note_on,,,,,4,0,3,,,,,2,,,79,92
37952,note_off,,,,,0,0,6,,,,,5,,,69,0
37952,note_off,,,,,320,0,6,,,,,5,,,67,0
37952,note_off,,,,,0,0,6,,,,,5,,,73,0
38012,note_off,,,,,188,0,4,,,,,3,,,76,0
38012,note_off,,,,,188,0,3,,,,,2,,,79,0
38012,note_off,,,,,188,0,2,,,,,1,,,45,0
38012,note_off,,,,,188,0,5,,,,,4,,,69,0
38012,note_off,,,,,188,0,7,,,,,5,,,45,0
38012,note_off,,,,,188,0,8,,,,,6,,,45,0
38012,note_off,,,,,188,0,1,,,,,0,,,79,0
38016,note_on,,,,,0,0,6,,,,,5,,,69,92
38016,note_on,,,,,4,0,4,,,,,3,,,73,92
38016,note_on,,,,,4,0,3,,,,,2,,,76,92
38016,note_on,,,,,4,0,8,,,,,6,,,45,92
38016,note_on,,,,,4,0,7,,,,,5,,,45,92
38016,note_on,,,,,64,0,6,,,,,5,,,67,92
38016,note_on,,,,,4,0,5,,,,,4,,,69,92
38016,note_on,,,,,4,0,1,,,,,0,,,76,92
38016,note_on,,,,,0,0,6,,,,,5,,,73,92
38016,note_on,,,,,4,0,2,,,,,1,,,45,92
38080,note_off,,,,,64,0,1,,,,,0,,,76,0
38080,note_off,,,,,64,0,3,,,,,2,,,76,0
38080,note_off,,,,,64,0,4,,,,,3,,,73,0
38080,note_on,,,,,0,0,1,,,,,0,,,78,92
38080,note_on,,,,,0,0,3,,,,,2,,,78,92
38080,note_on,,,,,0,0,4,,,,,3,,,74,92
38144,note_off,,,,,64,0,3,,,,,2,,,78,0
38144,note_on,,,,,0,0,3,,,,,2,,,79,92
38144,note_on,,,,,0,0,4,,,,,3,,,76,92
38144,note_off,,,,,64,0,1,,,,,0,,,78,0
38144,note_on,,,,,0,0,1,,,,,0,,,79,92
38144,note_off,,,,,64,0,4,,,,,3,,,74,0
38204,note_off,,,,,60,0,3,,,,,2,,,79,0
38204,note_off,,,,,188,0,2,,,,,1,,,45,0
38204,note_off,,,,,60,0,1,,,,,0,,,79,0
38204,note_off,,,,,188,0,7,,,,,5,,,45,0
38204,note_off,,,,,188,0,5,,,,,4,,,69,0
38204,note_off,,,,,60,0,4,,,,,3,,,76,0
38204,note_off,,,,,188,0,8,,,,,6,,,45,0
38208,note_on,,,,,4,0,4,,,,,3,,,76,92
38208,note_on,,,,,4,0,5,,,,,4,,,69,92
38208,note_on,,,,,4,0,8,,,,,6,,,45,92
38208,note_on,,,,,4,0,3,,,,,2,,,79,92
38208,note_on,,,,,4,0,7,,,,,5,,,45,92
38208,note_on,,,,,4,0,1,,,,,0,,,79,92
38208,note_on,,,,,4,0,2,,,,,1,,,45,92
38336,note_off,,,,,0,0,6,,,,,5,,,73,0
38336,note_off,,,,,0,0,6,,,,,5,,,69,0
38336,note_off,,,,,320,0,6,,,,,5,,,67,0
38396,note_off,,,,,188,0,3,,,,,2,,,79,0
38396,note_off,,,,,188,0,2,,,,,1,,,45,0
38396,note_off,,,,,188,0,4,,,,,3,,,76,0
38396,note_off,,,,,188,0,8,,,,,6,,,45,0
38396,note_off,,,,,188,0,7,,,,,5,,,45,0
38396,note_off,,,,,188,0,5,,,,,4,,,69,0
38396,note_off,,,,,188,0,1,,,,,0,,,79,0
38400,note_on,,,,,64,0,6,,,,,5,,,66,92
38400,note_on,,,,,4,0,3,,,,,2,,,78,92
38400,note_on,,,,,4,0,5,,,,,4,,,69,92
38400,note_on,,,,,4,0,7,,,,,5,,,50,92
38400,note_on,,,,,0,0,6,,,,,5,,,69,92
38400,note_on,,,,,0,0,6,,,,,5,,,74,92
38400,note_on,,,,,4,0,8,,,,,6,,,50,92
38400,note_on,,,,,4,0,1,,,,,0,,,78,92
38400,note_on,,,,,4,0,4,,,,,3,,,74,92
38400,note_on,,,,,4,0,2,,,,,1,,,50,92
38492,note_off,,,,,92,0,3,,,,,2,,,78,0
38492,note_off,,,,,92,0,1,,,,,0,,,78,0
38492,note_off,,,,,92,0,4,,,,,3,,,74,0
38496,note_on,,,,,4,0,1,,,,,0,,,86,92
38496,note_on,,,,,4,0,4,,,,,3,,,81,92
38496,note_on,,,,,4,0,3,,,,,2,,,86,92
38588,note_off,,,,,0,0,6,,,,,5,,,69,0
38588,note_off,,,,,188,0,7,,,,,5,,,50,0
38588,note_off,,,,,188,0,2,,,,,1,,,50,0
38588,note_off,,,,,188,0,6,,,,,5,,,66,0
38588,note_off,,,,,0,0,6,,,,,5,,,74,0
38588,note_off,,,,,92,0,1,,,,,0,,,86,0
38588,note_off,,,,,188,0,8,,,,,6,,,50,0
38588,note_off,,,,,92,0,4,,,,,3,,,81,0
38588,note_off,,,,,188,0,5,,,,,4,,,69,0
38588,note_off,,,,,92,0,3,,,,,2,,,86,0
38592,note_on,,,,,4,0,1,,,,,0,,,78,92
38592,note_on,,,,,4,0,3,,,,,2,,,78,92
38592,note_on,,,,,4,0,5,,,,,4,,,69,92
38592,note_on,,,,,4,0,7,,,,,5,,,50,92
38592,note_on,,,,,4,0,6,,,,,5,,,66,92
38592,note_on,,,,,0,0,6,,,,,5,,,69,92
38592,note_on,,,,,4,0,2,,,,,1,,,50,92
38592,note_on,,,,,4,0,8,,,,,6,,,50,92
38592,note_on,,,,,4,0,4,,,,,3,,,74,92
38592,note_on,,,,,0,0,6,,,,,5,,,74,92
38684,note_off,,,,,92,0,1,,,,,0,,,78,0
38684,note_off,,,,,92,0,3,,,,,2,,,78,0
38684,note_off,,,,,92,0,4,,,,,3,,,74,0
38688,note_on,,,,,4,0,1,,,,,0,,,86,92
38688,note_on,,,,,4,0,4,,,,,3,,,81,92
38688,note_on,,,,,4,0,3,,,,,2,,,86,92
38780,note_off,,,,,188,0,8,,,,,6,,,50,0
38780,note_off,,,,,92,0,1,,,,,0,,,86,0
38780,note_off,,,,,92,0,4,,,,,3,,,81,0
38780,note_off,,,,,0,0,6,,,,,5,,,74,0
38780,note_off,,,,,0,0,6,,,,,5,,,69,0
38780,note_off,,,,,92,0,3,,,,,2,,,86,0
38780,note_off,,,,,188,0,5,,,,,4,,,69,0
38780,note_off,,,,,188,0,6,,,,,5,,,66,0
38780,note_off,,,,,188,0,2,,,,,1,,,50,0
38780,note_off,,,,,188,0,7,,,,,5,,,50,0
38784,note_on,,,,,4,0,2,,,,,1,,,57,92
38784,note_on,,,,,4,0,4,,,,,3,,,74,92
38784,note_on,,,,,0,0,6,,,,,5,,,69,92
38784,note_on,,,,,4,0,7,,,,,5,,,57,92
38784,note_on,,,,,4,0,8,,,,,6,,,57,92
38784,note_on,,,,,4,0,3,,,,,2,,,76,92
38784,note_on,,,,,4,0,5,,,,,4,,,69,92
38784,note_on,,,,,0,0,6,,,,,5,,,74,92
38784,note_on,,,,,4,0,1,,,,,0,,,76,92
38784,note_on,,,,,4,0,6,,,,,5,,,64,92
38876,note_off,,,,,92,0,4,,,,,3,,,74,0
38876,note_off,,,,,92,0,1,,,,,0,,,76,0
38876,note_off,,,,,92,0,3,,,,,2,,,76,0
38880,note_on,,,,,4,0,1,,,,,0,,,86,92
38880,note_on,,,,,4,0,3,,,,,2,,,86,92
38880,note_on,,,,,4,0,4,,,,,3,,,81,92
38972,note_off,,,,,188,0,2,,,,,1,,,57,0
38972,note_off,,,,,188,0,8,,,,,6,,,57,0
38972,note_off,,,,,92,0,3,,,,,2,,,86,0
38972,note_off,,,,,0,0,6,,,,,5,,,69,0
38972,note_off,,,,,0,0,6,,,,,5,,,74,0
38972,note_off,,,,,92,0,1,,,,,0,,,86,0
38972,note_off,,,,,188,0,6,,,,,5,,,64,0
38972,note_off,,,,,92,0,4,,,,,3,,,81,0
38972,note_off,,,,,188,0,5,,,,,4,,,69,0
38972,note_off,,,,,188,0,7,,,,,5,,,57,0
38976,note_on,,,,,4,0,1,,,,,0,,,76,92
38976,note_on,,,,,0,0,6,,,,,5,,,73,92
38976,note_on,,,,,0,0,6,,,,,5,,,69,92
38976,note_on,,,,,4,0,6,,,,,5,,,64,92
38976,note_on,,,,,4,0,3,,,,,2,,,76,92
38976,note_on,,,,,4,0,2,,,,,1,,,45,92
38976,note_on,,,,,4,0,7,,,,,5,,,45,92
38976,note_on,,,,,4,0,4,,,,,3,,,73,92
38976,note_on,,,,,4,0,5,,,,,4,,,69,92
38976,note_on,,,,,4,0,8,,,,,6,,,45,92
39068,note_off,,,,,92,0,3,,,,,2,,,76,0
39068,note_off,,,,,92,0,1,,,,,0,,,76,0
39068,note_off,,,,,92,0,4,,,,,3,,,73,0
39072,note_on,,,,,4,0,1,,,,,0,,,85,92
39072,note_on,,,,,4,0,3,,,,,2,,,85,92
39072,note_on,,,,,4,0,4,,,,,3,,,81,92
39164,note_off,,,,,92,0,4,,,,,3,,,81,0
39164,note_off,,,,,92,0,1,,,,,0,,,85,0
39164,note_off,,,,,0,0,6,,,,,5,,,73,0
39164,note_off,,,,,0,0,6,,,,,5,,,69,0
39164,note_off,,,,,188,0,7,,,,,5,,,45,0
39164,note_off,,,,,188,0,6,,,,,5,,,64,0
39164,note_off,,,,,188,0,5,,,,,4,,,69,0
39164,note_off,,,,,188,0,8,,,,,6,,,45,0
39164,note_off,,,,,92,0,3,,,,,2,,,85,0
39164,note_off,,,,,188,0,2,,,,,1,,,45,0
39168,note_on,,,,,4,0,8,,,,,6,,,50,92
39168,note_on,,,,,4,0,6,,,,,5,,,66,60
39168,note_on,,,,,0,0,6,,,,,5,,,69,60
39168,note_on,,,,,0,0,6,,,,,5,,,74,60
39168,note_on,,,,,4,0,1,,,,,0,,,86,92
39168,note_on,,,,,4,0,3,,,,,2,,,86,92
39168,note_on,,,,,4,0,2,,,,,1,,,50,108
39168,note_on,,,,,4,0,4,,,,,3,,,78,92
39168,note_on,,,,,4,0,5,,,,,4,,,69,92
39168,note_on,,,,,4,0,7,,,,,5,,,50,92
39260,note_off,,,,,92,0,2,,,,,1,,,50,0
39264,note_on,,,,,4,0,2,,,,,1,,,57,108
39360,note_off,,,,,96,0,2,,,,,1,,,57,0
39360,note_on,,,,,0,0,2,,,,,1,,,55,108
39456,note_on,,,,,0,0,2,,,,,1,,,57,108
39456,note_off,,,,,96,0,2,,,,,1,,,55,0
39488,note_off,,,,,320,0,1,,,,,0,,,86,0
39488,note_off,,,,,0,0,6,,,,,5,,,74,0
39488,note_off,,,,,0,0,6,,,,,5,,,69,0
39488,note_off,,,,,320,0,8,,,,,6,,,50,0
39488,note_off,,,,,320,0,7,,,,,5,,,50,0
39488,note_off,,,,,320,0,4,,,,,3,,,78,0
39488,note_off,,,,,320,0,3,,,,,2,,,86,0
39488,note_off,,,,,320,0,6,,,,,5,,,66,0
39488,note_off,,,,,320,0,5,,,,,4,,,69,0
39548,note_off,,,,,92,0,2,,,,,1,,,57,0
39552,note_on,,,,,64,0,1,,,,,0,,,74,108
39552,note_on,,,,,64,0,6,,,,,5,,,69,60
39552,note_on,,,,,0,0,6,,,,,5,,,74,60
39552,note_on,,,,,64,0,7,,,,,5,,,54,60
39552,note_on,,,,,64,0,8,,,,,6,,,54,45
39552,note_on,,,,,4,0,2,,,,,1,,,54,108
39644,note_off,,,,,92,0,2,,,,,1,,,54,0
39648,note_on,,,,,4,0,2,,,,,1,,,55,108
39740,note_off,,,,,188,0,7,,,,,5,,,54,0
39740,note_off,,,,,188,0,8,,,,,6,,,54,0
39740,note_off,,,,,188,0,6,,,,,5,,,69,0
39740,note_off,,,,,92,0,2,,,,,1,,,55,0
39744,note_on,,,,,4,0,7,,,,,5,,,52,60
39744,note_on,,,,,4,0,8,,,,,6,,,52,45
39744,note_on,,,,,4,0,2,,,,,1,,,52,108
39744,note_on,,,,,4,0,6,,,,,5,,,67,60
39836,note_off,,,,,92,0,2,,,,,1,,,52,0
39840,note_on,,,,,4,0,2,,,,,1,,,54,108
39872,note_off,,,,,128,0,6,,,,,5,,,74,0
39932,note_off,,,,,60,0,6,,,,,5,,,67,0
39932,note_off,,,,,188,0,8,,,,,6,,,52,0
39932,note_off,,,,,188,0,7,,,,,5,,,52,0
39932,note_off,,,,,92,0,2,,,,,1,,,54,0
39936,note_on,,,,,4,0,7,,,,,5,,,50,60
39936,note_on,,,,,4,0,2,,,,,1,,,50,108
39936,note_on,,,,,4,0,8,,,,,6,,,50,45
39936,note_on,,,,,0,0,6,,,,,5,,,74,60
39936,note_on,,,,,0,0,6,,,,,5,,,69,60
39936,note_on,,,,,4,0,6,,,,,5,,,66,60
40028,note_off,,,,,476,0,1,,,,,0,,,74,0
40032,note_on,,,,,4,0,1,,,,,0,,,73,108
40124,note_off,,,,,92,0,1,,,,,0,,,73,0
40128,note_on,,,,,4,0,1,,,,,0,,,71,108
40220,note_off,,,,,92,0,1,,,,,0,,,71,0
40224,note_on,,,,,4,0,1,,,,,0,,,69,108
40256,note_off,,,,,0,0,6,,,,,5,,,69,0
40256,note_off,,,,,320,0,2,,,,,1,,,50,0
40256,note_off,,,,,320,0,7,,,,,5,,,50,0
40256,note_off,,,,,320,0,8,,,,,6,,,50,0
40256,note_off,,,,,320,0,6,,,,,5,,,66,0
40256,note_off,,,,,0,0,6,,,,,5,,,74,0
40316,note_off,,,,,92,0,1,,,,,0,,,69,0
40320,note_on,,,,,4,0,1,,,,,0,,,81,108
40412,note_off,,,,,92,0,1,,,,,0,,,81,0
40416,note_on,,,,,4,0,1,,,,,0,,,79,108
40508,note_off,,,,,92,0,1,,,,,0,,,79,0
40512,note_on,,,,,4,0,1,,,,,0,,,78,108
40604,note_off,,,,,92,0,1,,,,,0,,,78,0
40608,note_on,,,,,4,0,1,,,,,0,,,76,108
40700,note_off,,,,,92,0,1,,,,,0,,,76,0
40704,note_on,,,,,448,0,2,,,,,1,,,50,108
40704,note_on,,,,,448,0,7,,,,,5,,,50,60
40704,note_on,,,,,448,0,8,,,,,6,,,50,45
40704,note_on,,,,,0,0,6,,,,,5,,,74,60
40704,note_on,,,,,4,0,1,,,,,0,,,78,108
40704,note_on,,,,,448,0,6,,,,,5,,,66,60
40704,note_on,,,,,0,0,6,,,,,5,,,69,60
40796,note_off,,,,,92,0,2,,,,,1,,,50,0
40800,note_on,,,,,4,0,2,,,,,1,,,57,108
40892,note_off,,,,,188,0,1,,,,,0,,,78,0
40892,note_off,,,,,188,0,6,,,,,5,,,66,0
40892,note_off,,,,,0,0,6,,,,,5,,,74,0
40892,note_off,,,,,0,0,6,,,,,5,,,69,0
40896,note_on,,,,,4,0,6,,,,,5,,,64,60
40896,note_on,,,,,0,0,6,,,,,5,,,73,60
40896,note_on,,,,,4,0,1,,,,,0,,,73,108
40896,note_off,,,,,96,0,2,,,,,1,,,57,0
40896,note_on,,,,,0,0,2,,,,,1,,,55,108
40992,note_off,,,,,96,0,2,,,,,1,,,55,0
40992,note_on,,,,,0,0,2,,,,,1,,,57,108
41024,note_off,,,,,320,0,7,,,,,5,,,50,0
41024,note_off,,,,,320,0,8,,,,,6,,,50,0
41084,note_off,,,,,92,0,2,,,,,1,,,57,0
41084,note_off,,,,,188,0,1,,,,,0,,,73,0
41084,note_off,,,,,188,0,6,,,,,5,,,64,0
41084,note_off,,,,,0,0,6,,,,,5,,,73,0
41088,note_on,,,,,4,0,1,,,,,0,,,74,108
41088,note_on,,,,,64,0,7,,,,,5,,,54,60
41088,note_on,,,,,4,0,6,,,,,5,,,69,60
41088,note_on,,,,,0,0,6,,,,,5,,,74,60
41088,note_on,,,,,4,0,2,,,,,1,,,54,108
41088,note_on,,,,,64,0,8,,,,,6,,,54,45
41180,note_off,,,,,92,0,2,,,,,1,,,54,0
41184,note_on,,,,,4,0,2,,,,,1,,,55,108
41276,note_off,,,,,188,0,8,,,,,6,,,54,0
41276,note_off,,,,,188,0,6,,,,,5,,,69,0
41276,note_off,,,,,92,0,2,,,,,1,,,55,0
41276,note_off,,,,,188,0,7,,,,,5,,,54,0
41280,note_on,,,,,4,0,6,,,,,5,,,67,60
41280,note_on,,,,,4,0,7,,,,,5,,,52,60
41280,note_on,,,,,4,0,8,,,,,6,,,52,45
41280,note_on,,,,,4,0,2,,,,,1,,,52,108
41372,note_off,,,,,92,0,2,,,,,1,,,52,0
41376,note_on,,,,,4,0,2,,,,,1,,,54,108
41408,note_off,,,,,128,0,6,,,,,5,,,74,0
41468,note_off,,,,,188,0,7,,,,,5,,,52,0
41468,note_off,,,,,60,0,6,,,,,5,,,67,0
41468,note_off,,,,,188,0,8,,,,,6,,,52,0
41468,note_off,,,,,92,0,2,,,,,1,,,54,0
41472,note_on,,,,,0,0,6,,,,,5,,,74,60
41472,note_on,,,,,4,0,2,,,,,1,,,50,108
41472,note_on,,,,,4,0,6,,,,,5,,,66,60
41472,note_on,,,,,4,0,7,,,,,5,,,50,60
41472,note_on,,,,,4,0,8,,,,,6,,,50,45
41472,note_on,,,,,0,0,6,,,,,5,,,69,60
41564,note_off,,,,,476,0,1,,,,,0,,,74,0
41568,note_on,,,,,4,0,1,,,,,0,,,73,108
41660,note_off,,,,,92,0,1,,,,,0,,,73,0
41664,note_on,,,,,4,0,1,,,,,0,,,71,108
41756,note_off,,,,,92,0,1,,,,,0,,,71,0
41760,note_on,,,,,4,0,1,,,,,0,,,69,108
41792,note_off,,,,,320,0,7,,,,,5,,,50,0
41792,note_off,,,,,320,0,8,,,,,6,,,50,0
41792,note_off,,,,,0,0,6,,,,,5,,,69,0
41792,note_off,,,,,320,0,2,,,,,1,,,50,0
41792,note_off,,,,,0,0,6,,,,,5,,,74,0
41792,note_off,,,,,320,0,6,,,,,5,,,66,0
41852,note_off,,,,,92,0,1,,,,,0,,,69,0
41856,note_on,,,,,4,0,1,,,,,0,,,81,108
41948,note_off,,,,,92,0,1,,,,,0,,,81,0
41952,note_on,,,,,4,0,1,,,,,0,,,79,108
42044,note_off,,,,,92,0,1,,,,,0,,,79,0
42048,note_on,,,,,4,0,1,,,,,0,,,78,108
42140,note_off,,,,,92,0,1,,,,,0,,,78,0
42144,note_on,,,,,4,0,1,,,,,0,,,76,108
42236,note_off,,,,,92,0,1,,,,,0,,,76,0
42240,note_on,,,,,4,0,1,,,,,0,,,78,108
42240,note_on,,,,,448,0,2,,,,,1,,,50,108
42240,note_on,,,,,448,0,7,,,,,5,,,50,60
42240,note_on,,,,,448,0,8,,,,,6,,,50,45
42240,note_on,,,,,0,0,6,,,,,5,,,69,60
42240,note_on,,,,,448,0,6,,,,,5,,,62,60
42240,note_on,,,,,0,0,6,,,,,5,,,66,60
42428,note_off,,,,,188,0,1,,,,,0,,,78,0
42432,note_on,,,,,4,0,1,,,,,0,,,75,108
42560,note_off,,,,,320,0,7,,,,,5,,,50,0
42560,note_off,,,,,320,0,6,,,,,5,,,62,0
42560,note_off,,,,,320,0,8,,,,,6,,,50,0
42560,note_off,,,,,0,0,6,,,,,5,,,69,0
42560,note_off,,,,,320,0,2,,,,,1,,,50,0
42560,note_off,,,,,0,0,6,,,,,5,,,66,0
42624,note_on,,,,,0,0,6,,,,,5,,,69,60
42624,note_on,,,,,64,0,6,,,,,5,,,63,60
42624,note_on,,,,,64,0,8,,,,,6,,,54,45
42624,note_on,,,,,0,0,6,,,,,5,,,72,60
42624,note_on,,,,,64,0,2,,,,,1,,,54,108
42624,note_on,,,,,64,0,7,,,,,5,,,54,60
42752,note_off,,,,,320,0,1,,,,,0,,,75,0
42816,note_on,,,,,64,0,1,,,,,0,,,74,108
42944,note_off,,,,,320,0,7,,,,,5,,,54,0
42944,note_off,,,,,320,0,6,,,,,5,,,63,0
42944,note_off,,,,,320,0,2,,,,,1,,,54,0
42944,note_off,,,,,0,0,6,,,,,5,,,72,0
42944,note_off,,,,,0,0,6,,,,,5,,,69,0
42944,note_off,,,,,320,0,8,,,,,6,,,54,0
43008,note_on,,,,,64,0,2,,,,,1,,,54,108
43008,note_on,,,,,0,0,6,,,,,5,,,69,60
43008,note_on,,,,,64,0,6,,,,,5,,,62,60
43008,note_on,,,,,64,0,7,,,,,5,,,54,60
43008,note_on,,,,,64,0,8,,,,,6,,,54,45
43008,note_on,,,,,0,0,6,,,,,5,,,72,60
43196,note_off,,,,,380,0,1,,,,,0,,,74,0
43200,note_on,,,,,4,0,1,,,,,0,,,72,108
43328,note_off,,,,,320,0,8,,,,,6,,,54,0
43328,note_off,,,,,320,0,2,,,,,1,,,54,0
43328,note_off,,,,,320,0,7,,,,,5,,,54,0
43328,note_off,,,,,320,0,6,,,,,5,,,62,0
43328,note_off,,,,,0,0,6,,,,,5,,,69,0
43328,note_off,,,,,0,0,6,,,,,5,,,72,0
43392,note_on,,,,,64,0,2,,,,,1,,,54,108
43392,note_on,,,,,64,0,6,,,,,5,,,62,60
43392,note_on,,,,,0,0,6,,,,,5,,,69,60
43392,note_on,,,,,64,0,8,,,,,6,,,54,45
43392,note_on,,,,,64,0,7,,,,,5,,,54,60
43520,note_off,,,,,320,0,1,,,,,0,,,72,0
43584,note_on,,,,,64,0,1,,,,,0,,,70,108
43676,note_off,,,,,92,0,1,,,,,0,,,70,0
43680,note_on,,,,,4,0,1,,,,,0,,,69,108
43712,note_off,,,,,320,0,7,,,,,5,,,54,0
43712,note_off,,,,,320,0,8,,,,,6,,,54,0
43712,note_off,,,,,320,0,6,,,,,5,,,62,0
43712,note_off,,,,,320,0,2,,,,,1,,,54,0
43712,note_off,,,,,0,0,6,,,,,5,,,69,0
43772,note_off,,,,,92,0,1,,,,,0,,,69,0
43776,note_on,,,,,64,0,6,,,,,5,,,62,60
43776,note_on,,,,,64,0,7,,,,,5,,,55,60
43776,note_on,,,,,4,0,1,,,,,0,,,70,108
43776,note_on,,,,,64,0,2,,,,,1,,,55,108
43776,note_on,,,,,64,0,8,,,,,6,,,55,45
43776,note_on,,,,,0,0,6,,,,,5,,,67,60
43776,note_on,,,,,0,0,6,,,,,5,,,70,60
43868,note_off,,,,,92,0,2,,,,,1,,,55,0
43868,note_off,,,,,92,0,1,,,,,0,,,70,0
43872,note_on,,,,,4,0,1,,,,,0,,,69,108
43872,note_on,,,,,4,0,2,,,,,1,,,57,108
43964,note_off,,,,,92,0,1,,,,,0,,,69,0
43964,note_off,,,,,92,0,2,,,,,1,,,57,0
43968,note_on,,,,,4,0,2,,,,,1,,,58,108
43968,note_on,,,,,4,0,1,,,,,0,,,67,108
44060,note_off,,,,,92,0,2,,,,,1,,,58,0
44064,note_on,,,,,4,0,2,,,,,1,,,60,108
44096,note_off,,,,,320,0,7,,,,,5,,,55,0
44096,note_off,,,,,0,0,6,,,,,5,,,70,0
44096,note_off,,,,,320,0,8,,,,,6,,,55,0
44096,note_off,,,,,0,0,6,,,,,5,,,67,0
44096,note_off,,,,,320,0,6,,,,,5,,,62,0
44156,note_off,,,,,188,0,1,,,,,0,,,67,0
44156,note_off,,,,,92,0,2,,,,,1,,,60,0
44160,note_on,,,,,4,0,2,,,,,1,,,62,108
44252,note_off,,,,,92,0,2,,,,,1,,,62,0
44256,note_on,,,,,4,0,2,,,,,1,,,60,108
44348,note_off,,,,,92,0,2,,,,,1,,,60,0
44352,note_on,,,,,4,0,2,,,,,1,,,58,108
44352,note_on,,,,,196,0,1,,,,,0,,,79,108
44444,note_off,,,,,92,0,2,,,,,1,,,58,0
44448,note_on,,,,,4,0,2,,,,,1,,,57,108
44540,note_off,,,,,92,0,2,,,,,1,,,57,0
44544,note_on,,,,,0,0,6,,,,,5,,,71,60
44544,note_on,,,,,448,0,6,,,,,5,,,67,60
44544,note_on,,,,,448,0,8,,,,,6,,,55,45
44544,note_on,,,,,448,0,7,,,,,5,,,55,60
44544,note_on,,,,,0,0,6,,,,,5,,,74,60
44544,note_on,,,,,4,0,2,,,,,1,,,55,108
44732,note_off,,,,,380,0,1,,,,,0,,,79,0
44736,note_on,,,,,4,0,1,,,,,0,,,77,108
44864,note_off,,,,,320,0,6,,,,,5,,,67,0
44864,note_off,,,,,0,0,6,,,,,5,,,71,0
44864,note_off,,,,,0,0,6,,,,,5,,,74,0
44864,note_off,,,,,320,0,7,,,,,5,,,55,0
44864,note_off,,,,,320,0,8,,,,,6,,,55,0
44864,note_off,,,,,320,0,2,,,,,1,,,55,0
44928,note_on,,,,,64,0,2,,,,,1,,,56,108
44928,note_on,,,,,64,0,6,,,,,5,,,65,60
44928,note_on,,,,,64,0,7,,,,,5,,,56,60
44928,note_on,,,,,0,0,6,,,,,5,,,71,60
44928,note_on,,,,,0,0,6,,,,,5,,,74,60
44928,note_on,,,,,64,0,8,,,,,6,,,56,45
45056,note_off,,,,,320,0,1,,,,,0,,,77,0
45120,note_on,,,,,64,0,1,,,,,0,,,76,108
45248,note_off,,,,,320,0,6,,,,,5,,,65,0
45248,note_off,,,,,0,0,6,,,,,5,,,71,0
45248,note_off,,,,,0,0,6,,,,,5,,,74,0
45248,note_off,,,,,320,0,2,,,,,1,,,56,0
45248,note_off,,,,,320,0,8,,,,,6,,,56,0
45248,note_off,,,,,320,0,7,,,,,5,,,56,0
45312,note_on,,,,,64,0,8,,,,,6,,,56,45
45312,note_on,,,,,64,0,6,,,,,5,,,64,60
45312,note_on,,,,,0,0,6,,,,,5,,,71,60
45312,note_on,,,,,64,0,7,,,,,5,,,56,60
45312,note_on,,,,,64,0,2,,,,,1,,,56,108
45500,note_off,,,,,380,0,1,,,,,0,,,76,0
45504,note_on,,,,,4,0,1,,,,,0,,,74,108
45632,note_off,,,,,320,0,7,,,,,5,,,56,0
45632,note_off,,,,,320,0,2,,,,,1,,,56,0
45632,note_off,,,,,320,0,8,,,,,6,,,56,0
45632,note_off,,,,,320,0,6,,,,,5,,,64,0
45632,note_off,,,,,0,0,6,,,,,5,,,71,0
45696,note_on,,,,,64,0,2,,,,,1,,,56,108
45696,note_on,,,,,64,0,7,,,,,5,,,56,60
45696,note_on,,,,,0,0,6,,,,,5,,,74,60
45696,note_on,,,,,64,0,6,,,,,5,,,64,60
45696,note_on,,,,,0,0,6,,,,,5,,,71,60
45696,note_on,,,,,64,0,8,,,,,6,,,56,45
45824,note_off,,,,,320,0,1,,,,,0,,,74,0
45888,note_on,,,,,64,0,1,,,,,0,,,72,108
45980,note_off,,,,,92,0,1,,,,,0,,,72,0
45984,note_on,,,,,4,0,1,,,,,0,,,71,108
46016,note_off,,,,,320,0,2,,,,,1,,,56,0
46016,note_off,,,,,0,0,6,,,,,5,,,74,0
46016,note_off,,,,,0,0,6,,,,,5,,,71,0
46016,note_off,,,,,320,0,6,,,,,5,,,64,0
46016,note_off,,,,,320,0,7,,,,,5,,,56,0
46016,note_off,,,,,320,0,8,,,,,6,,,56,0
46076,note_off,,,,,92,0,1,,,,,0,,,71,0
46080,note_on,,,,,64,0,7,,,,,5,,,57,60
46080,note_on,,,,,0,0,6,,,,,5,,,72,60
46080,note_on,,,,,64,0,2,,,,,1,,,57,108
46080,note_on,,,,,64,0,8,,,,,6,,,57,45
46080,note_on,,,,,4,0,1,,,,,0,,,72,108
46080,note_on,,,,,64,0,6,,,,,5,,,64,60
46080,note_on,,,,,0,0,6,,,,,5,,,69,60
46172,note_off,,,,,92,0,2,,,,,1,,,57,0
46172,note_off,,,,,92,0,1,,,,,0,,,72,0
46176,note_on,,,,,4,0,1,,,,,0,,,71,108
46176,note_on,,,,,4,0,2,,,,,1,,,59,108
46268,note_off,,,,,92,0,2,,,,,1,,,59,0
46268,note_off,,,,,92,0,1,,,,,0,,,71,0
46272,note_on,,,,,4,0,1,,,,,0,,,69,108
46272,note_on,,,,,4,0,2,,,,,1,,,60,108
46364,note_off,,,,,92,0,2,,,,,1,,,60,0
46368,note_on,,,,,4,0,2,,,,,1,,,62,108
46400,note_off,,,,,320,0,7,,,,,5,,,57,0
46400,note_off,,,,,320,0,6,,,,,5,,,64,0
46400,note_off,,,,,0,0,6,,,,,5,,,69,0
46400,note_off,,,,,0,0,6,,,,,5,,,72,0
46400,note_off,,,,,320,0,8,,,,,6,,,57,0
46460,note_off,,,,,188,0,1,,,,,0,,,69,0
46460,note_off,,,,,92,0,2,,,,,1,,,62,0
46464,note_on,,,,,4,0,2,,,,,1,,,64,108
46556,note_off,,,,,92,0,2,,,,,1,,,64,0
46560,note_on,,,,,4,0,2,,,,,1,,,62,108
46652,note_off,,,,,92,0,2,,,,,1,,,62,0
46656,note_on,,,,,4,0,2,,,,,1,,,60,108
46656,note_on,,,,,196,0,1,,,,,0,,,81,108
46748,note_off,,,,,92,0,2,,,,,1,,,60,0
46752,note_on,,,,,4,0,2,,,,,1,,,59,108
46844,note_off,,,,,92,0,2,,,,,1,,,59,0
46848,note_on,,,,,448,0,7,,,,,5,,,57,60
46848,note_on,,,,,4,0,2,,,,,1,,,57,108
46848,note_on,,,,,448,0,8,,,,,6,,,57,45
46848,note_on,,,,,448,0,6,,,,,5,,,64,60
46848,note_on,,,,,0,0,6,,,,,5,,,69,60
46848,note_on,,,,,0,0,6,,,,,5,,,72,60
47036,note_off,,,,,380,0,1,,,,,0,,,81,0
47040,note_on,,,,,4,0,1,,,,,0,,,81,108
47168,note_off,,,,,320,0,7,,,,,5,,,57,0
47168,note_off,,,,,320,0,2,,,,,1,,,57,0
47168,note_off,,,,,320,0,8,,,,,6,,,57,0
47168,note_off,,,,,320,0,6,,,,,5,,,64,0
47168,note_off,,,,,0,0,6,,,,,5,,,69,0
47168,note_off,,,,,0,0,6,,,,,5,,,72,0
47232,note_on,,,,,64,0,8,,,,,6,,,57,45
47232,note_on,,,,,64,0,6,,,,,5,,,65,60
47232,note_on,,,,,0,0,6,,,,,5,,,72,60
47232,note_on,,,,,64,0,2,,,,,1,,,57,108
47232,note_on,,,,,64,0,7,,,,,5,,,57,60
47360,note_off,,,,,320,0,1,,,,,0,,,81,0
47424,note_on,,,,,64,0,1,,,,,0,,,77,108
47552,note_off,,,,,320,0,6,,,,,5,,,65,0
47552,note_off,,,,,0,0,6,,,,,5,,,72,0
47552,note_off,,,,,320,0,2,,,,,1,,,57,0
47552,note_off,,,,,320,0,8,,,,,6,,,57,0
47552,note_off,,,,,320,0,7,,,,,5,,,57,0
47616,note_on,,,,,0,0,6,,,,,5,,,69,60
47616,note_on,,,,,0,0,6,,,,,5,,,72,60
47616,note_on,,,,,64,0,2,,,,,1,,,57,108
47616,note_on,,,,,64,0,8,,,,,6,,,57,45
47616,note_on,,,,,64,0,7,,,,,5,,,57,60
47616,note_on,,,,,64,0,6,,,,,5,,,64,60
47744,note_off,,,,,320,0,1,,,,,0,,,77,0
47808,note_on,,,,,64,0,1,,,,,0,,,76,108
47936,note_off,,,,,0,0,6,,,,,5,,,72,0
47936,note_off,,,,,320,0,7,,,,,5,,,57,0
47936,note_off,,,,,320,0,2,,,,,1,,,57,0
47936,note_off,,,,,320,0,6,,,,,5,,,64,0
47936,note_off,,,,,320,0,8,,,,,6,,,57,0
47936,note_off,,,,,0,0,6,,,,,5,,,69,0
48000,note_on,,,,,64,0,2,,,,,1,,,57,108
48000,note_on,,,,,64,0,8,,,,,6,,,57,45
48000,note_on,,,,,64,0,7,,,,,5,,,57,60
48000,note_on,,,,,64,0,6,,,,,5,,,66,60
48000,note_on,,,,,0,0,6,,,,,5,,,72,60
48128,note_off,,,,,320,0,1,,,,,0,,,76,0
48192,note_on,,,,,64,0,1,,,,,0,,,78,108
48320,note_off,,,,,320,0,2,,,,,1,,,57,0
48320,note_off,,,,,320,0,8,,,,,6,,,57,0
48320,note_off,,,,,320,0,6,,,,,5,,,66,0
48320,note_off,,,,,0,0,6,,,,,5,,,72,0
48320,note_off,,,,,320,0,7,,,,,5,,,57,0
48380,note_off,,,,,188,0,1,,,,,0,,,78,0
48384,note_on,,,,,64,0,6,,,,,5,,,63,60
48384,note_on,,,,,64,0,2,,,,,1,,,59,108
48384,note_on,,,,,4,0,1,,,,,0,,,75,108
48384,note_on,,,,,64,0,8,,,,,6,,,59,45
48384,note_on,,,,,64,0,7,,,,,5,,,59,60
48384,note_on,,,,,0,0,6,,,,,5,,,71,60
48384,note_on,,,,,0,0,6,,,,,5,,,66,60
48476,note_off,,,,,92,0,1,,,,,0,,,75,0
48476,note_off,,,,,92,0,2,,,,,1,,,59,0
48480,note_on,,,,,4,0,1,,,,,0,,,73,108
48480,note_on,,,,,4,0,2,,,,,1,,,57,108
48572,note_off,,,,,92,0,2,,,,,1,,,57,0
48572,note_off,,,,,92,0,1,,,,,0,,,73,0
48576,note_on,,,,,4,0,2,,,,,1,,,59,108
48576,note_on,,,,,4,0,1,,,,,0,,,71,108
48668,note_off,,,,,92,0,2,,,,,1,,,59,0
48672,note_on,,,,,4,0,2,,,,,1,,,60,108
48704,note_off,,,,,320,0,8,,,,,6,,,59,0
48704,note_off,,,,,320,0,6,,,,,5,,,63,0
48704,note_off,,,,,0,0,6,,,,,5,,,66,0
48704,note_off,,,,,320,0,7,,,,,5,,,59,0
48704,note_off,,,,,0,0,6,,,,,5,,,71,0
48764,note_off,,,,,188,0,1,,,,,0,,,71,0
48764,note_off,,,,,92,0,2,,,,,1,,,60,0
48768,note_on,,,,,4,0,2,,,,,1,,,59,108
48860,note_off,,,,,92,0,2,,,,,1,,,59,0
48864,note_on,,,,,4,0,2,,,,,1,,,57,108
48956,note_off,,,,,92,0,2,,,,,1,,,57,0
48960,note_on,,,,,196,0,1,,,,,0,,,71,108
48960,note_on,,,,,4,0,2,,,,,1,,,55,108
49052,note_off,,,,,92,0,2,,,,,1,,,55,0
49056,note_on,,,,,4,0,2,,,,,1,,,54,108
49148,note_off,,,,,92,0,2,,,,,1,,,54,0
49148,note_off,,,,,188,0,1,,,,,0,,,71,0
49152,note_on,,,,,448,0,7,,,,,5,,,52,60
49152,note_on,,,,,448,0,8,,,,,6,,,52,45
49152,note_on,,,,,0,0,6,,,,,5,,,67,60
49152,note_on,,,,,4,0,2,,,,,1,,,52,108
49152,note_on,,,,,4,0,1,,,,,0,,,72,108
49152,note_on,,,,,0,0,6,,,,,5,,,72,60
49152,note_on,,,,,448,0,6,,,,,5,,,64,60
49248,note_on,,,,,0,0,1,,,,,0,,,71,108
49248,note_off,,,,,96,0,1,,,,,0,,,72,0
49340,note_off,,,,,92,0,1,,,,,0,,,71,0
49344,note_on,,,,,4,0,1,,,,,0,,,72,108
49440,note_off,,,,,96,0,1,,,,,0,,,72,0
49440,note_on,,,,,0,0,1,,,,,0,,,71,108
49472,note_off,,,,,320,0,8,,,,,6,,,52,0
49472,note_off,,,,,0,0,6,,,,,5,,,72,0
49472,note_off,,,,,0,0,6,,,,,5,,,67,0
49472,note_off,,,,,320,0,6,,,,,5,,,64,0
49472,note_off,,,,,320,0,2,,,,,1,,,52,0
49472,note_off,,,,,320,0,7,,,,,5,,,52,0
49532,note_off,,,,,92,0,1,,,,,0,,,71,0
49536,note_on,,,,,64,0,2,,,,,1,,,52,108
49536,note_on,,,,,64,0,6,,,,,5,,,64,60
49536,note_on,,,,,4,0,1,,,,,0,,,76,108
49536,note_on,,,,,0,0,6,,,,,5,,,72,60
49536,note_on,,,,,0,0,6,,,,,5,,,67,60
49536,note_on,,,,,64,0,8,,,,,6,,,52,45
49536,note_on,,,,,64,0,7,,,,,5,,,52,60
49724,note_off,,,,,188,0,1,,,,,0,,,76,0
49724,note_off,,,,,188,0,6,,,,,5,,,72,0
49728,note_on,,,,,4,0,1,,,,,0,,,71,108
49728,note_on,,,,,4,0,6,,,,,5,,,71,60
49856,note_off,,,,,0,0,6,,,,,5,,,67,0
49856,note_off,,,,,320,0,8,,,,,6,,,52,0
49856,note_off,,,,,128,0,6,,,,,5,,,64,0
49856,note_off,,,,,320,0,7,,,,,5,,,52,0
49856,note_off,,,,,320,0,2,,,,,1,,,52,0
49916,note_off,,,,,188,0,1,,,,,0,,,71,0
49916,note_off,,,,,60,0,6,,,,,5,,,71,0
49920,note_on,,,,,4,0,6,,,,,5,,,64,60
49920,note_on,,,,,64,0,2,,,,,1,,,52,108
49920,note_on,,,,,64,0,7,,,,,5,,,52,60
49920,note_on,,,,,0,0,6,,,,,5,,,67,60
49920,note_on,,,,,0,0,6,,,,,5,,,72,60
49920,note_on,,,,,64,0,8,,,,,6,,,52,45
49920,note_on,,,,,4,0,1,,,,,0,,,72,108
50012,note_off,,,,,92,0,2,,,,,1,,,52,0
50016,note_on,,,,,4,0,2,,,,,1,,,54,108
50108,note_off,,,,,188,0,1,,,,,0,,,72,0
50108,note_off,,,,,92,0,2,,,,,1,,,54,0
50108,note_off,,,,,188,0,6,,,,,5,,,72,0
50112,note_on,,,,,4,0,1,,,,,0,,,71,108
50112,note_on,,,,,4,0,6,,,,,5,,,71,60
50112,note_on,,,,,4,0,2,,,,,1,,,55,108
50204,note_off,,,,,92,0,2,,,,,1,,,55,0
50208,note_on,,,,,4,0,2,,,,,1,,,57,108
50240,note_off,,,,,320,0,8,,,,,6,,,52,0
50240,note_off,,,,,128,0,6,,,,,5,,,64,0
50240,note_off,,,,,0,0,6,,,,,5,,,67,0
50240,note_off,,,,,320,0,7,,,,,5,,,52,0
50300,note_off,,,,,188,0,1,,,,,0,,,71,0
50300,note_off,,,,,60,0,6,,,,,5,,,71,0
50300,note_off,,,,,92,0,2,,,,,1,,,57,0
50304,note_on,,,,,4,0,2,,,,,1,,,59,108
50396,note_off,,,,,92,0,2,,,,,1,,,59,0
50400,note_on,,,,,4,0,2,,,,,1,,,57,108
50492,note_off,,,,,92,0,2,,,,,1,,,57,0
50496,note_on,,,,,196,0,1,,,,,0,,,71,108
50496,note_on,,,,,4,0,2,,,,,1,,,55,108
50588,note_off,,,,,92,0,2,,,,,1,,,55,0
50592,note_on,,,,,4,0,2,,,,,1,,,54,108
50684,note_off,,,,,188,0,1,,,,,0,,,71,0
50684,note_off,,,,,92,0,2,,,,,1,,,54,0
50688,note_on,,,,,4,0,1,,,,,0,,,72,108
50688,note_on,,,,,448,0,7,,,,,5,,,52,60
50688,note_on,,,,,0,0,6,,,,,5,,,72,60
50688,note_on,,,,,0,0,6,,,,,5,,,67,60
50688,note_on,,,,,448,0,8,,,,,6,,,52,45
50688,note_on,,,,,4,0,2,,,,,1,,,52,108
50688,note_on,,,,,388,0,6,,,,,5,,,64,60
50784,note_on,,,,,0,0,1,,,,,0,,,71,108
50784,note_off,,,,,96,0,1,,,,,0,,,72,0
50876,note_off,,,,,92,0,1,,,,,0,,,71,0
50880,note_on,,,,,4,0,1,,,,,0,,,72,108
50976,note_on,,,,,0,0,1,,,,,0,,,71,108
50976,note_off,,,,,96,0,1,,,,,0,,,72,0
51008,note_off,,,,,320,0,8,,,,,6,,,52,0
51008,note_off,,,,,320,0,2,,,,,1,,,52,0
51008,note_off,,,,,0,0,6,,,,,5,,,72,0
51008,note_off,,,,,320,0,7,,,,,5,,,52,0
51008,note_off,,,,,320,0,6,,,,,5,,,64,0
51008,note_off,,,,,0,0,6,,,,,5,,,67,0
51068,note_off,,,,,92,0,1,,,,,0,,,71,0
51072,note_on,,,,,64,0,8,,,,,6,,,51,45
51072,note_on,,,,,4,0,1,,,,,0,,,81,108
51072,note_on,,,,,0,0,6,,,,,5,,,72,60
51072,note_on,,,,,64,0,2,,,,,1,,,51,108
51072,note_on,,,,,64,0,7,,,,,5,,,51,60
51072,note_on,,,,,64,0,6,,,,,5,,,66,60
51072,note_on,,,,,0,0,6,,,,,5,,,69,60
51260,note_off,,,,,188,0,1,,,,,0,,,81,0
51264,note_on,,,,,4,0,1,,,,,0,,,78,108
51392,note_off,,,,,0,0,6,,,,,5,,,69,0
51392,note_off,,,,,320,0,7,,,,,5,,,51,0
51392,note_off,,,,,320,0,8,,,,,6,,,51,0
51392,note_off,,,,,0,0,6,,,,,5,,,72,0
51392,note_off,,,,,320,0,6,,,,,5,,,66,0
51392,note_off,,,,,320,0,2,,,,,1,,,51,0
51452,note_off,,,,,188,0,1,,,,,0,,,78,0
51456,note_on,,,,,64,0,8,,,,,6,,,52,45
51456,note_on,,,,,4,0,1,,,,,0,,,79,108
51456,note_on,,,,,64,0,2,,,,,1,,,52,108
51456,note_on,,,,,64,0,6,,,,,5,,,67,60
51456,note_on,,,,,0,0,6,,,,,5,,,71,60
51456,note_on,,,,,64,0,7,,,,,5,,,52,60
51548,note_off,,,,,92,0,1,,,,,0,,,79,0
51552,note_on,,,,,4,0,1,,,,,0,,,78,108
51644,note_off,,,,,92,0,1,,,,,0,,,78,0
51648,note_on,,,,,4,0,1,,,,,0,,,76,108
51776,note_off,,,,,320,0,2,,,,,1,,,52,0
51776,note_off,,,,,320,0,6,,,,,5,,,67,0
51776,note_off,,,,,320,0,8,,,,,6,,,52,0
51776,note_off,,,,,320,0,7,,,,,5,,,52,0
51776,note_off,,,,,0,0,6,,,,,5,,,71,0
51840,note_on,,,,,64,0,7,,,,,5,,,52,60
51840,note_on,,,,,64,0,8,,,,,6,,,52,45
51840,note_on,,,,,0,0,6,,,,,5,,,71,60
51840,note_on,,,,,0,0,6,,,,,5,,,76,60
51840,note_on,,,,,64,0,6,,,,,5,,,67,60
51840,note_on,,,,,64,0,2,,,,,1,,,52,108
51932,note_off,,,,,284,0,1,,,,,0,,,76,0
51936,note_on,,,,,4,0,1,,,,,0,,,79,108
52028,note_off,,,,,92,0,1,,,,,0,,,79,0
52032,note_on,,,,,4,0,1,,,,,0,,,78,108
52124,note_off,,,,,92,0,1,,,,,0,,,78,0
52128,note_on,,,,,4,0,1,,,,,0,,,76,108
52160,note_off,,,,,320,0,2,,,,,1,,,52,0
52160,note_off,,,,,320,0,6,,,,,5,,,67,0
52160,note_off,,,,,0,0,6,,,,,5,,,71,0
52160,note_off,,,,,320,0,7,,,,,5,,,52,0
52160,note_off,,,,,320,0,8,,,,,6,,,52,0
52160,note_off,,,,,0,0,6,,,,,5,,,76,0
52220,note_off,,,,,92,0,1,,,,,0,,,76,0
52224,note_on,,,,,64,0,8,,,,,6,,,51,45
52224,note_on,,,,,64,0,7,,,,,5,,,51,60
52224,note_on,,,,,64,0,6,,,,,5,,,66,60
52224,note_on,,,,,0,0,6,,,,,5,,,71,60
52224,note_on,,,,,4,0,1,,,,,0,,,78,108
52224,note_on,,,,,64,0,2,,,,,1,,,51,108
52316,note_off,,,,,92,0,1,,,,,0,,,78,0
52320,note_on,,,,,4,0,1,,,,,0,,,79,108
52412,note_off,,,,,92,0,1,,,,,0,,,79,0
52416,note_on,,,,,4,0,1,,,,,0,,,81,108
52544,note_off,,,,,320,0,7,,,,,5,,,51,0
52544,note_off,,,,,320,0,6,,,,,5,,,66,0
52544,note_off,,,,,320,0,8,,,,,6,,,51,0
52544,note_off,,,,,320,0,2,,,,,1,,,51,0
52544,note_off,,,,,0,0,6,,,,,5,,,71,0
52608,note_on,,,,,64,0,6,,,,,5,,,66,60
52608,note_on,,,,,64,0,8,,,,,6,,,47,45
52608,note_on,,,,,0,0,6,,,,,5,,,71,60
52608,note_on,,,,,0,0,6,,,,,5,,,75,60
52608,note_on,,,,,64,0,2,,,,,1,,,47,108
52608,note_on,,,,,64,0,7,,,,,5,,,47,60
52700,note_off,,,,,284,0,1,,,,,0,,,81,0
52704,note_on,,,,,4,0,1,,,,,0,,,78,108
52796,note_off,,,,,92,0,1,,,,,0,,,78,0
52800,note_on,,,,,4,0,1,,,,,0,,,76,108
52892,note_off,,,,,92,0,1,,,,,0,,,76,0
52896,note_on,,,,,4,0,1,,,,,0,,,75,108
52928,note_off,,,,,320,0,6,,,,,5,,,66,0
52928,note_off,,,,,0,0,6,,,,,5,,,71,0
52928,note_off,,,,,0,0,6,,,,,5,,,75,0
52928,note_off,,,,,320,0,7,,,,,5,,,47,0
52928,note_off,,,,,320,0,8,,,,,6,,,47,0
52928,note_off,,,,,320,0,2,,,,,1,,,47,0
52988,note_off,,,,,92,0,1,,,,,0,,,75,0
52992,note_on,,,,,0,0,6,,,,,5,,,71,60
52992,note_on,,,,,0,0,6,,,,,5,,,76,60
52992,note_on,,,,,64,0,2,,,,,1,,,52,108
52992,note_on,,,,,4,0,1,,,,,0,,,76,108
52992,note_on,,,,,64,0,8,,,,,6,,,52,45
52992,note_on,,,,,64,0,7,,,,,5,,,52,60
52992,note_on,,,,,64,0,6,,,,,5,,,67,60
53180,note_off,,,,,188,0,1,,,,,0,,,76,0
53180,note_off,,,,,188,0,7,,,,,5,,,52,0
53180,note_off,,,,,188,0,2,,,,,1,,,52,0
53180,note_off,,,,,188,0,6,,,,,5,,,67,0
53180,note_off,,,,,0,0,6,,,,,5,,,71,0
53180,note_off,,,,,0,0,6,,,,,5,,,76,0
53180,note_off,,,,,188,0,8,,,,,6,,,52,0
53184,note_on,,,,,4,0,6,,,,,5,,,64,60
53184,note_on,,,,,4,0,7,,,,,5,,,57,60
53184,note_on,,,,,4,0,1,,,,,0,,,74,108
53184,note_on,,,,,4,0,8,,,,,6,,,57,45
53184,note_on,,,,,0,0,6,,,,,5,,,72,60
53184,note_on,,,,,4,0,2,,,,,1,,,57,108
53184,note_on,,,,,0,0,6,,,,,5,,,69,60
53276,note_off,,,,,92,0,1,,,,,0,,,74,0
53280,note_on,,,,,4,0,1,,,,,0,,,72,108
53372,note_off,,,,,92,0,1,,,,,0,,,72,0
53372,note_off,,,,,188,0,2,,,,,1,,,57,0
53372,note_off,,,,,188,0,8,,,,,6,,,57,0
53372,note_off,,,,,188,0,7,,,,,5,,,57,0
53372,note_off,,,,,188,0,6,,,,,5,,,64,0
53372,note_off,,,,,0,0,6,,,,,5,,,69,0
53372,note_off,,,,,0,0,6,,,,,5,,,72,0
53376,note_on,,,,,4,0,1,,,,,0,,,71,108
53376,note_on,,,,,4,0,2,,,,,1,,,51,108
53376,note_on,,,,,4,0,8,,,,,6,,,51,45
53376,note_on,,,,,0,0,6,,,,,5,,,71,60
53376,note_on,,,,,4,0,7,,,,,5,,,51,60
53376,note_on,,,,,4,0,6,,,,,5,,,66,60
53564,note_off,,,,,188,0,1,,,,,0,,,71,0
53564,note_off,,,,,188,0,6,,,,,5,,,66,0
53564,note_off,,,,,0,0,6,,,,,5,,,71,0
53564,note_off,,,,,188,0,8,,,,,6,,,51,0
53564,note_off,,,,,188,0,2,,,,,1,,,51,0
53564,note_off,,,,,188,0,7,,,,,5,,,51,0
53568,note_on,,,,,4,0,8,,,,,6,,,47,45
53568,note_on,,,,,4,0,2,,,,,1,,,47,108
53568,note_on,,,,,4,0,7,,,,,5,,,47,60
53568,note_on,,,,,0,0,6,,,,,5,,,71,60
53568,note_on,,,,,0,0,6,,,,,5,,,69,60
53568,note_on,,,,,4,0,6,,,,,5,,,66,60
53568,note_on,,,,,4,0,1,,,,,0,,,81,108
53756,note_off,,,,,188,0,2,,,,,1,,,47,0
53756,note_off,,,,,188,0,8,,,,,6,,,47,0
53756,note_off,,,,,188,0,1,,,,,0,,,81,0
53756,note_off,,,,,0,0,6,,,,,5,,,71,0
53756,note_off,,,,,0,0,6,,,,,5,,,69,0
53756,note_off,,,,,188,0,6,,,,,5,,,66,0
53756,note_off,,,,,188,0,7,,,,,5,,,47,0
53760,note_on,,,,,4,0,6,,,,,5,,,64,60
53760,note_on,,,,,0,0,6,,,,,5,,,67,60
53760,note_on,,,,,0,0,6,,,,,5,,,71,60
53760,note_on,,,,,4,0,8,,,,,6,,,52,45
53760,note_on,,,,,4,0,7,,,,,5,,,52,60
53760,note_on,,,,,4,0,2,,,,,1,,,52,108
53760,note_on,,,,,4,0,1,,,,,0,,,79,108
53948,note_off,,,,,0,0,6,,,,,5,,,71,0
53948,note_off,,,,,188,0,7,,,,,5,,,52,0
53948,note_off,,,,,188,0,6,,,,,5,,,64,0
53948,note_off,,,,,188,0,8,,,,,6,,,52,0
53948,note_off,,,,,188,0,1,,,,,0,,,79,0
53948,note_off,,,,,188,0,2,,,,,1,,,52,0
53948,note_off,,,,,0,0,6,,,,,5,,,67,0
53952,note_on,,,,,0,0,6,,,,,5,,,76,60
53952,note_on,,,,,0,0,6,,,,,5,,,71,60
53952,note_on,,,,,4,0,1,,,,,0,,,78,108
53952,note_on,,,,,4,0,7,,,,,5,,,55,60
53952,note_on,,,,,4,0,2,,,,,1,,,55,108
53952,note_on,,,,,4,0,8,,,,,6,,,55,45
53952,note_on,,,,,4,0,6,,,,,5,,,64,60
54044,note_off,,,,,92,0,1,,,,,0,,,78,0
54048,note_on,,,,,4,0,1,,,,,0,,,76,108
54140,note_off,,,,,92,0,1,,,,,0,,,76,0
54140,note_off,,,,,188,0,8,,,,,6,,,55,0
54140,note_off,,,,,188,0,7,,,,,5,,,55,0
54140,note_off,,,,,0,0,6,,,,,5,,,76,0
54140,note_off,,,,,0,0,6,,,,,5,,,71,0
54140,note_off,,,,,188,0,2,,,,,1,,,55,0
54140,note_off,,,,,188,0,6,,,,,5,,,64,0
54144,note_on,,,,,4,0,8,,,,,6,,,57,45
54144,note_on,,,,,0,0,6,,,,,5,,,66,60
54144,note_on,,,,,0,0,6,,,,,5,,,72,60
54144,note_on,,,,,4,0,7,,,,,5,,,57,60
54144,note_on,,,,,4,0,1,,,,,0,,,78,108
54144,note_on,,,,,4,0,6,,,,,5,,,64,60
54144,note_on,,,,,4,0,2,,,,,1,,,57,108
54332,note_off,,,,,188,0,6,,,,,5,,,64,0
54332,note_off,,,,,188,0,1,,,,,0,,,78,0
54332,note_off,,,,,0,0,6,,,,,5,,,66,0
54332,note_off,,,,,188,0,8,,,,,6,,,57,0
54332,note_off,,,,,0,0,6,,,,,5,,,72,0
54332,note_off,,,,,188,0,7,,,,,5,,,57,0
54332,note_off,,,,,188,0,2,,,,,1,,,57,0
54336,note_on,,,,,0,0,6,,,,,5,,,66,60
54336,note_on,,,,,0,0,6,,,,,5,,,71,60
54336,note_on,,,,,4,0,7,,,,,5,,,59,60
54336,note_on,,,,,4,0,2,,,,,1,,,59,108
54336,note_on,,,,,4,0,8,,,,,6,,,59,45
54336,note_on,,,,,4,0,6,,,,,5,,,64,60
54336,note_on,,,,,4,0,1,,,,,0,,,76,108
54428,note_off,,,,,92,0,6,,,,,5,,,64,0
54428,note_off,,,,,92,0,1,,,,,0,,,76,0
54432,note_on,,,,,4,0,1,,,,,0,,,75,108
54432,note_on,,,,,4,0,6,,,,,5,,,63,60
54524,note_off,,,,,92,0,1,,,,,0,,,75,0
54524,note_off,,,,,188,0,2,,,,,1,,,59,0
54524,note_off,,,,,0,0,6,,,,,5,,,71,0
54524,note_off,,,,,0,0,6,,,,,5,,,63,0
54524,note_off,,,,,188,0,7,,,,,5,,,59,0
54524,note_off,,,,,92,0,6,,,,,5,,,66,0
54524,note_off,,,,,188,0,8,,,,,6,,,59,0
54528,note_on,,,,,4,0,8,,,,,6,,,52,92
54528,note_on,,,,,0,0,6,,,,,5,,,71,92
54528,note_on,,,,,4,0,6,,,,,5,,,64,92
54528,note_on,,,,,4,0,7,,,,,5,,,52,92
54528,note_on,,,,,4,0,1,,,,,0,,,76,92
54528,note_on,,,,,0,0,6,,,,,5,,,67,92
54528,note_on,,,,,15040,0,5,,,,,4,,,71,92
54528,note_on,,,,,4,0,2,,,,,1,,,52,92
54528,note_on,,,,,15040,0,3,,,,,2,,,76,92
54620,note_off,,,,,92,0,3,,,,,2,,,76,0
54624,note_on,,,,,4,0,3,,,,,2,,,71,92
54716,note_off,,,,,188,0,2,,,,,1,,,52,0
54716,note_off,,,,,92,0,3,,,,,2,,,71,0
54716,note_off,,,,,188,0,7,,,,,5,,,52,0
54716,note_off,,,,,188,0,6,,,,,5,,,64,0
54716,note_off,,,,,0,0,6,,,,,5,,,67,0
54716,note_off,,,,,0,0,6,,,,,5,,,71,0
54716,note_off,,,,,188,0,8,,,,,6,,,52,0
54716,note_off,,,,,188,0,5,,,,,4,,,71,0
54720,note_on,,,,,4,0,8,,,,,6,,,52,92
54720,note_on,,,,,4,0,5,,,,,4,,,71,92
54720,note_on,,,,,0,0,6,,,,,5,,,67,92
54720,note_on,,,,,4,0,2,,,,,1,,,52,92
54720,note_on,,,,,4,0,3,,,,,2,,,76,92
54720,note_on,,,,,0,0,6,,,,,5,,,71,92
54720,note_on,,,,,4,0,6,,,,,5,,,64,92
54720,note_on,,,,,4,0,7,,,,,5,,,52,92
54908,note_off,,,,,188,0,5,,,,,4,,,71,0
54908,note_off,,,,,188,0,2,,,,,1,,,52,0
54908,note_off,,,,,188,0,7,,,,,5,,,52,0
54908,note_off,,,,,188,0,8,,,,,6,,,52,0
54912,note_on,,,,,4,0,8,,,,,6,,,52,92
54912,note_on,,,,,4,0,5,,,,,4,,,71,92
54912,note_on,,,,,4,0,7,,,,,5,,,52,92
54912,note_on,,,,,4,0,2,,,,,1,,,52,92
55004,note_off,,,,,284,0,3,,,,,2,,,76,0
55004,note_off,,,,,476,0,1,,,,,0,,,76,0
55008,note_on,,,,,4,0,3,,,,,2,,,79,92
55008,note_on,,,,,4,0,1,,,,,0,,,79,92
55040,note_off,,,,,0,0,6,,,,,5,,,71,0
55040,note_off,,,,,0,0,6,,,,,5,,,67,0
55040,note_off,,,,,320,0,6,,,,,5,,,64,0
55100,note_off,,,,,92,0,3,,,,,2,,,79,0
55100,note_off,,,,,188,0,7,,,,,5,,,52,0
55100,note_off,,,,,92,0,1,,,,,0,,,79,0
55100,note_off,,,,,188,0,2,,,,,1,,,52,0
55100,note_off,,,,,188,0,5,,,,,4,,,71,0
55100,note_off,,,,,188,0,8,,,,,6,,,52,0
55104,note_on,,,,,4,0,1,,,,,0,,,78,92
55104,note_on,,,,,4,0,8,,,,,6,,,47,92
55104,note_on,,,,,0,0,6,,,,,5,,,75,92
55104,note_on,,,,,4,0,5,,,,,4,,,71,92
55104,note_on,,,,,0,0,6,,,,,5,,,71,92
55104,note_on,,,,,64,0,6,,,,,5,,,66,92
55104,note_on,,,,,4,0,2,,,,,1,,,47,92
55104,note_on,,,,,4,0,7,,,,,5,,,47,92
55104,note_on,,,,,4,0,3,,,,,2,,,78,92
55196,note_off,,,,,92,0,1,,,,,0,,,78,0
55196,note_off,,,,,92,0,3,,,,,2,,,78,0
55200,note_on,,,,,4,0,3,,,,,2,,,81,92
55200,note_on,,,,,4,0,1,,,,,0,,,81,92
55292,note_off,,,,,188,0,8,,,,,6,,,47,0
55292,note_off,,,,,92,0,1,,,,,0,,,81,0
55292,note_off,,,,,0,0,6,,,,,5,,,71,0
55292,note_off,,,,,0,0,6,,,,,5,,,75,0
55292,note_off,,,,,92,0,3,,,,,2,,,81,0
55292,note_off,,,,,188,0,5,,,,,4,,,71,0
55292,note_off,,,,,188,0,2,,,,,1,,,47,0
55292,note_off,,,,,188,0,7,,,,,5,,,47,0
55292,note_off,,,,,188,0,6,,,,,5,,,66,0
55296,note_on,,,,,4,0,3,,,,,2,,,79,92
55296,note_on,,,,,15808,0,4,,,,,3,,,76,92
55296,note_on,,,,,4,0,1,,,,,0,,,79,92
55296,note_on,,,,,4,0,5,,,,,4,,,71,92
55296,note_on,,,,,4,0,7,,,,,5,,,52,92
55296,note_on,,,,,4,0,2,,,,,1,,,52,92
55296,note_on,,,,,4,0,8,,,,,6,,,52,92
55296,note_on,,,,,4,0,6,,,,,5,,,67,92
55296,note_on,,,,,0,0,6,,,,,5,,,71,92
55296,note_on,,,,,0,0,6,,,,,5,,,76,92
55388,note_off,,,,,92,0,1,,,,,0,,,79,0
55388,note_off,,,,,92,0,4,,,,,3,,,76,0
55388,note_off,,,,,92,0,3,,,,,2,,,79,0
55392,note_on,,,,,4,0,1,,,,,0,,,76,92
55392,note_on,,,,,4,0,4,,,,,3,,,71,92
55392,note_on,,,,,4,0,3,,,,,2,,,76,92
55484,note_off,,,,,92,0,3,,,,,2,,,76,0
55484,note_off,,,,,92,0,1,,,,,0,,,76,0
55484,note_off,,,,,188,0,8,,,,,6,,,52,0
55484,note_off,,,,,188,0,2,,,,,1,,,52,0
55484,note_off,,,,,92,0,4,,,,,3,,,71,0
55484,note_off,,,,,188,0,5,,,,,4,,,71,0
55484,note_off,,,,,188,0,7,,,,,5,,,52,0
55484,note_off,,,,,188,0,6,,,,,5,,,67,0
55484,note_off,,,,,0,0,6,,,,,5,,,71,0
55484,note_off,,,,,0,0,6,,,,,5,,,76,0
55488,note_on,,,,,4,0,2,,,,,1,,,52,92
55488,note_on,,,,,4,0,3,,,,,2,,,79,92
55488,note_on,,,,,4,0,7,,,,,5,,,52,92
55488,note_on,,,,,0,0,6,,,,,5,,,71,92
55488,note_on,,,,,4,0,6,,,,,5,,,67,92
55488,note_on,,,,,4,0,1,,,,,0,,,79,92
55488,note_on,,,,,4,0,4,,,,,3,,,76,92
55488,note_on,,,,,0,0,6,,,,,5,,,76,92
55488,note_on,,,,,4,0,5,,,,,4,,,71,92
55488,note_on,,,,,4,0,8,,,,,6,,,52,92
55676,note_off,,,,,188,0,8,,,,,6,,,52,0
55676,note_off,,,,,188,0,7,,,,,5,,,52,0
55676,note_off,,,,,188,0,2,,,,,1,,,52,0
55676,note_off,,,,,188,0,5,,,,,4,,,71,0
55680,note_on,,,,,4,0,5,,,,,4,,,71,92
55680,note_on,,,,,4,0,7,,,,,5,,,52,92
55680,note_on,,,,,4,0,2,,,,,1,,,52,92
55680,note_on,,,,,4,0,8,,,,,6,,,52,92
55772,note_off,,,,,284,0,4,,,,,3,,,76,0
55772,note_off,,,,,284,0,3,,,,,2,,,79,0
55772,note_off,,,,,284,0,1,,,,,0,,,79,0
55776,note_on,,,,,4,0,1,,,,,0,,,83,92
55776,note_on,,,,,4,0,4,,,,,3,,,79,92
55776,note_on,,,,,4,0,3,,,,,2,,,83,92
55808,note_off,,,,,0,0,6,,,,,5,,,71,0
55808,note_off,,,,,0,0,6,,,,,5,,,76,0
55808,note_off,,,,,320,0,6,,,,,5,,,67,0
55868,note_off,,,,,188,0,2,,,,,1,,,52,0
55868,note_off,,,,,188,0,8,,,,,6,,,52,0
55868,note_off,,,,,92,0,3,,,,,2,,,83,0
55868,note_off,,,,,188,0,7,,,,,5,,,52,0
55868,note_off,,,,,92,0,1,,,,,0,,,83,0
55868,note_off,,,,,188,0,5,,,,,4,,,71,0
55868,note_off,,,,,92,0,4,,,,,3,,,79,0
55872,note_on,,,,,4,0,7,,,,,5,,,47,92
55872,note_on,,,,,4,0,3,,,,,2,,,81,92
55872,note_on,,,,,4,0,4,,,,,3,,,78,92
55872,note_on,,,,,0,0,6,,,,,5,,,71,92
55872,note_on,,,,,4,0,5,,,,,4,,,71,92
55872,note_on,,,,,64,0,6,,,,,5,,,66,92
55872,note_on,,,,,4,0,1,,,,,0,,,81,92
55872,note_on,,,,,4,0,2,,,,,1,,,47,92
55872,note_on,,,,,0,0,6,,,,,5,,,75,92
55872,note_on,,,,,4,0,8,,,,,6,,,47,92
55964,note_off,,,,,92,0,4,,,,,3,,,78,0
55964,note_off,,,,,92,0,3,,,,,2,,,81,0
55964,note_off,,,,,92,0,1,,,,,0,,,81,0
55968,note_on,,,,,4,0,1,,,,,0,,,84,92
55968,note_on,,,,,4,0,3,,,,,2,,,84,92
55968,note_on,,,,,4,0,4,,,,,3,,,81,92
56060,note_off,,,,,188,0,8,,,,,6,,,47,0
56060,note_off,,,,,92,0,3,,,,,2,,,84,0
56060,note_off,,,,,188,0,5,,,,,4,,,71,0
56060,note_off,,,,,188,0,2,,,,,1,,,47,0
56060,note_off,,,,,92,0,4,,,,,3,,,81,0
56060,note_off,,,,,92,0,1,,,,,0,,,84,0
56060,note_off,,,,,188,0,7,,,,,5,,,47,0
56060,note_off,,,,,188,0,6,,,,,5,,,66,0
56060,note_off,,,,,0,0,6,,,,,5,,,71,0
56060,note_off,,,,,0,0,6,,,,,5,,,75,0
56064,note_on,,,,,4,0,7,,,,,5,,,52,92
56064,note_on,,,,,4,0,5,,,,,4,,,71,92
56064,note_on,,,,,4,0,2,,,,,1,,,52,92
56064,note_on,,,,,4,0,4,,,,,3,,,79,92
56064,note_on,,,,,4,0,8,,,,,6,,,52,92
56064,note_on,,,,,4,0,3,,,,,2,,,83,92
56064,note_on,,,,,4,0,1,,,,,0,,,83,92
56064,note_on,,,,,0,0,6,,,,,5,,,76,92
56064,note_on,,,,,0,0,6,,,,,5,,,71,92
56064,note_on,,,,,4,0,6,,,,,5,,,67,92
56156,note_off,,,,,92,0,1,,,,,0,,,83,0
56156,note_off,,,,,92,0,4,,,,,3,,,79,0
56156,note_off,,,,,92,0,3,,,,,2,,,83,0
56160,note_on,,,,,4,0,4,,,,,3,,,78,92
56160,note_on,,,,,4,0,1,,,,,0,,,81,92
56160,note_on,,,,,4,0,3,,,,,2,,,81,92
56252,note_off,,,,,188,0,8,,,,,6,,,52,0
56252,note_off,,,,,188,0,2,,,,,1,,,52,0
56252,note_off,,,,,92,0,1,,,,,0,,,81,0
56252,note_off,,,,,188,0,6,,,,,5,,,67,0
56252,note_off,,,,,188,0,7,,,,,5,,,52,0
56252,note_off,,,,,92,0,4,,,,,3,,,78,0
56252,note_off,,,,,188,0,5,,,,,4,,,71,0
56252,note_off,,,,,0,0,6,,,,,5,,,71,0
56252,note_off,,,,,92,0,3,,,,,2,,,81,0
56252,note_off,,,,,0,0,6,,,,,5,,,76,0
56256,note_on,,,,,4,0,7,,,,,5,,,52,92
56256,note_on,,,,,4,0,2,,,,,1,,,52,92
56256,note_on,,,,,0,0,6,,,,,5,,,76,92
56256,note_on,,,,,0,0,6,,,,,5,,,71,92
56256,note_on,,,,,4,0,5,,,,,4,,,71,92
56256,note_on,,,,,4,0,8,,,,,6,,,52,92
56256,note_on,,,,,4,0,1,,,,,0,,,79,92
56256,note_on,,,,,4,0,3,,,,,2,,,79,92
56256,note_on,,,,,4,0,4,,,,,3,,,76,92
56256,note_on,,,,,4,0,6,,,,,5,,,67,92
56444,note_off,,,,,188,0,5,,,,,4,,,71,0
56444,note_off,,,,,188,0,2,,,,,1,,,52,0
56444,note_off,,,,,188,0,7,,,,,5,,,52,0
56444,note_off,,,,,188,0,8,,,,,6,,,52,0
56448,note_on,,,,,4,0,2,,,,,1,,,52,92
56448,note_on,,,,,4,0,8,,,,,6,,,52,92
56448,note_on,,,,,4,0,7,,,,,5,,,52,92
56448,note_on,,,,,4,0,5,,,,,4,,,71,92
56576,note_off,,,,,320,0,1,,,,,0,,,79,0
56576,note_off,,,,,320,0,4,,,,,3,,,76,0
56576,note_off,,,,,320,0,3,,,,,2,,,79,0
56576,note_off,,,,,0,0,6,,,,,5,,,76,0
56576,note_off,,,,,0,0,6,,,,,5,,,71,0
56576,note_off,,,,,320,0,6,,,,,5,,,67,0
56636,note_off,,,,,188,0,7,,,,,5,,,52,0
56636,note_off,,,,,188,0,5,,,,,4,,,71,0
56636,note_off,,,,,188,0,2,,,,,1,,,52,0
56636,note_off,,,,,188,0,8,,,,,6,,,52,0
56640,note_on,,,,,4,0,5,,,,,4,,,71,92
56640,note_on,,,,,64,0,4,,,,,3,,,79,92
56640,note_on,,,,,64,0,1,,,,,0,,,83,92
56640,note_on,,,,,64,0,3,,,,,2,,,83,92
56640,note_on,,,,,4,0,8,,,,,6,,,52,92
56640,note_on,,,,,4,0,7,,,,,5,,,52,92
56640,note_on,,,,,64,0,6,,,,,5,,,67,92
56640,note_on,,,,,0,0,6,,,,,5,,,71,92
56640,note_on,,,,,0,0,6,,,,,5,,,76,92
56640,note_on,,,,,4,0,2,,,,,1,,,52,92
56828,note_off,,,,,188,0,4,,,,,3,,,79,0
56828,note_off,,,,,188,0,3,,,,,2,,,83,0
56828,note_off,,,,,0,0,6,,,,,5,,,71,0
56828,note_off,,,,,188,0,7,,,,,5,,,52,0
56828,note_off,,,,,188,0,5,,,,,4,,,71,0
56828,note_off,,,,,188,0,8,,,,,6,,,52,0
56828,note_off,,,,,188,0,1,,,,,0,,,83,0
56828,note_off,,,,,188,0,2,,,,,1,,,52,0
56828,note_off,,,,,188,0,6,,,,,5,,,67,0
56828,note_off,,,,,0,0,6,,,,,5,,,76,0
56832,note_on,,,,,4,0,5,,,,,4,,,66,92
56832,note_on,,,,,4,0,2,,,,,1,,,54,92
56832,note_on,,,,,4,0,1,,,,,0,,,81,92
56832,note_on,,,,,4,0,7,,,,,5,,,54,92
56832,note_on,,,,,4,0,3,,,,,2,,,81,92
56832,note_on,,,,,4,0,8,,,,,6,,,54,92
56832,note_on,,,,,4,0,6,,,,,5,,,69,92
56832,note_on,,,,,0,0,6,,,,,5,,,75,92
56832,note_on,,,,,4,0,4,,,,,3,,,78,92
56924,note_off,,,,,92,0,1,,,,,0,,,81,0
56924,note_off,,,,,92,0,4,,,,,3,,,78,0
56924,note_off,,,,,92,0,3,,,,,2,,,81,0
56928,note_on,,,,,4,0,1,,,,,0,,,79,92
56928,note_on,,,,,4,0,4,,,,,3,,,76,92
56928,note_on,,,,,4,0,3,,,,,2,,,79,92
57020,note_off,,,,,188,0,5,,,,,4,,,66,0
57020,note_off,,,,,188,0,8,,,,,6,,,54,0
57020,note_off,,,,,92,0,4,,,,,3,,,76,0
57020,note_off,,,,,188,0,6,,,,,5,,,69,0
57020,note_off,,,,,188,0,7,,,,,5,,,54,0
57020,note_off,,,,,188,0,2,,,,,1,,,54,0
57020,note_off,,,,,92,0,3,,,,,2,,,79,0
57020,note_off,,,,,92,0,1,,,,,0,,,79,0
57020,note_off,,,,,0,0,6,,,,,5,,,75,0
57024,note_on,,,,,4,0,6,,,,,5,,,66,92
57024,note_on,,,,,0,0,6,,,,,5,,,75,92
57024,note_on,,,,,4,0,2,,,,,1,,,47,92
57024,note_on,,,,,4,0,7,,,,,5,,,47,92
57024,note_on,,,,,4,0,4,,,,,3,,,75,92
57024,note_on,,,,,4,0,3,,,,,2,,,78,92
57024,note_on,,,,,4,0,8,,,,,6,,,47,92
57024,note_on,,,,,4,0,1,,,,,0,,,78,92
57024,note_on,,,,,4,0,5,,,,,4,,,66,92
57024,note_on,,,,,0,0,6,,,,,5,,,71,92
57212,note_off,,,,,188,0,8,,,,,6,,,47,0
57212,note_off,,,,,188,0,2,,,,,1,,,47,0
57212,note_off,,,,,188,0,7,,,,,5,,,47,0
57212,note_off,,,,,188,0,5,,,,,4,,,66,0
57216,note_on,,,,,4,0,8,,,,,6,,,47,92
57216,note_on,,,,,4,0,2,,,,,1,,,47,92
57216,note_on,,,,,4,0,7,,,,,5,,,47,92
57216,note_on,,,,,4,0,5,,,,,4,,,66,92
57344,note_off,,,,,320,0,4,,,,,3,,,75,0
57344,note_off,,,,,320,0,3,,,,,2,,,78,0
57344,note_off,,,,,0,0,6,,,,,5,,,75,0
57344,note_off,,,,,320,0,6,,,,,5,,,66,0
57344,note_off,,,,,320,0,1,,,,,0,,,78,0
57344,note_off,,,,,0,0,6,,,,,5,,,71,0
57404,note_off,,,,,188,0,2,,,,,1,,,47,0
57404,note_off,,,,,188,0,5,,,,,4,,,66,0
57404,note_off,,,,,188,0,7,,,,,5,,,47,0
57404,note_off,,,,,188,0,8,,,,,6,,,47,0
57408,note_on,,,,,64,0,4,,,,,3,,,78,92
57408,note_on,,,,,0,0,6,,,,,5,,,75,92
57408,note_on,,,,,4,0,7,,,,,5,,,47,92
57408,note_on,,,,,0,0,6,,,,,5,,,71,92
57408,note_on,,,,,4,0,2,,,,,1,,,47,92
57408,note_on,,,,,64,0,1,,,,,0,,,81,92
57408,note_on,,,,,64,0,3,,,,,2,,,81,92
57408,note_on,,,,,64,0,6,,,,,5,,,69,92
57408,note_on,,,,,4,0,8,,,,,6,,,47,92
57408,note_on,,,,,4,0,5,,,,,4,,,63,92
57596,note_off,,,,,188,0,1,,,,,0,,,81,0
57596,note_off,,,,,188,0,3,,,,,2,,,81,0
57596,note_off,,,,,188,0,6,,,,,5,,,69,0
57596,note_off,,,,,0,0,6,,,,,5,,,71,0
57596,note_off,,,,,0,0,6,,,,,5,,,75,0
57596,note_off,,,,,188,0,4,,,,,3,,,78,0
57596,note_off,,,,,188,0,2,,,,,1,,,47,0
57596,note_off,,,,,188,0,7,,,,,5,,,47,0
57596,note_off,,,,,188,0,5,,,,,4,,,63,0
57596,note_off,,,,,188,0,8,,,,,6,,,47,0
57600,note_on,,,,,4,0,2,,,,,1,,,52,92
57600,note_on,,,,,4,0,7,,,,,5,,,52,92
57600,note_on,,,,,4,0,5,,,,,4,,,59,92
57600,note_on,,,,,4,0,4,,,,,3,,,76,92
57600,note_on,,,,,4,0,1,,,,,0,,,79,92
57600,note_on,,,,,4,0,6,,,,,5,,,67,92
57600,note_on,,,,,4,0,8,,,,,6,,,52,92
57600,note_on,,,,,4,0,3,,,,,2,,,79,92
57600,note_on,,,,,0,0,6,,,,,5,,,71,92
57600,note_on,,,,,0,0,6,,,,,5,,,76,92
57692,note_off,,,,,92,0,3,,,,,2,,,79,0
57692,note_off,,,,,92,0,4,,,,,3,,,76,0
57692,note_off,,,,,92,0,1,,,,,0,,,79,0
57696,note_on,,,,,4,0,3,,,,,2,,,76,92
57696,note_on,,,,,4,0,4,,,,,3,,,71,92
57696,note_on,,,,,4,0,1,,,,,0,,,76,92
57788,note_off,,,,,92,0,3,,,,,2,,,76,0
57788,note_off,,,,,188,0,7,,,,,5,,,52,0
57788,note_off,,,,,188,0,2,,,,,1,,,52,0
57788,note_off,,,,,92,0,1,,,,,0,,,76,0
57788,note_off,,,,,92,0,4,,,,,3,,,71,0
57788,note_off,,,,,188,0,5,,,,,4,,,59,0
57788,note_off,,,,,188,0,8,,,,,6,,,52,0
57792,note_on,,,,,4,0,1,,,,,0,,,79,92
57792,note_on,,,,,4,0,8,,,,,6,,,52,92
57792,note_on,,,,,4,0,7,,,,,5,,,52,92
57792,note_on,,,,,4,0,2,,,,,1,,,52,92
57792,note_on,,,,,4,0,4,,,,,3,,,76,92
57792,note_on,,,,,4,0,5,,,,,4,,,59,92
57792,note_on,,,,,4,0,3,,,,,2,,,79,92
57884,note_off,,,,,92,0,4,,,,,3,,,76,0
57884,note_off,,,,,92,0,3,,,,,2,,,79,0
57884,note_off,,,,,92,0,1,,,,,0,,,79,0
57888,note_on,,,,,4,0,1,,,,,0,,,76,92
57888,note_on,,,,,4,0,4,,,,,3,,,71,92
57888,note_on,,,,,4,0,3,,,,,2,,,76,92
57920,note_off,,,,,0,0,6,,,,,5,,,71,0
57920,note_off,,,,,320,0,6,,,,,5,,,67,0
57920,note_off,,,,,0,0,6,,,,,5,,,76,0
57980,note_off,,,,,188,0,2,,,,,1,,,52,0
57980,note_off,,,,,188,0,8,,,,,6,,,52,0
57980,note_off,,,,,188,0,7,,,,,5,,,52,0
57980,note_off,,,,,188,0,5,,,,,4,,,59,0
57980,note_off,,,,,92,0,1,,,,,0,,,76,0
57980,note_off,,,,,92,0,4,,,,,3,,,71,0
57980,note_off,,,,,92,0,3,,,,,2,,,76,0
57984,note_on,,,,,4,0,1,,,,,0,,,79,92
57984,note_on,,,,,4,0,5,,,,,4,,,59,92
57984,note_on,,,,,64,0,6,,,,,5,,,67,92
57984,note_on,,,,,0,0,6,,,,,5,,,76,92
57984,note_on,,,,,0,0,6,,,,,5,,,71,92
57984,note_on,,,,,4,0,3,,,,,2,,,79,92
57984,note_on,,,,,4,0,8,,,,,6,,,52,92
57984,note_on,,,,,4,0,2,,,,,1,,,52,92
57984,note_on,,,,,4,0,7,,,,,5,,,52,92
57984,note_on,,,,,4,0,4,,,,,3,,,76,92
58076,note_off,,,,,92,0,4,,,,,3,,,76,0
58076,note_off,,,,,92,0,1,,,,,0,,,79,0
58076,note_off,,,,,92,0,3,,,,,2,,,79,0
58080,note_on,,,,,4,0,4,,,,,3,,,71,92
58080,note_on,,,,,4,0,3,,,,,2,,,76,92
58080,note_on,,,,,4,0,1,,,,,0,,,76,92
58172,note_off,,,,,188,0,2,,,,,1,,,52,0
58172,note_off,,,,,188,0,7,,,,,5,,,52,0
58172,note_off,,,,,92,0,4,,,,,3,,,71,0
58172,note_off,,,,,188,0,5,,,,,4,,,59,0
58172,note_off,,,,,92,0,1,,,,,0,,,76,0
58172,note_off,,,,,188,0,8,,,,,6,,,52,0
58172,note_off,,,,,92,0,3,,,,,2,,,76,0
58176,note_on,,,,,4,0,5,,,,,4,,,59,92
58176,note_on,,,,,4,0,1,,,,,0,,,79,92
58176,note_on,,,,,4,0,2,,,,,1,,,52,92
58176,note_on,,,,,4,0,8,,,,,6,,,52,92
58176,note_on,,,,,4,0,7,,,,,5,,,52,92
58176,note_on,,,,,4,0,4,,,,,3,,,76,92
58176,note_on,,,,,4,0,3,,,,,2,,,79,92
58268,note_off,,,,,92,0,4,,,,,3,,,76,0
58268,note_off,,,,,92,0,1,,,,,0,,,79,0
58268,note_off,,,,,92,0,3,,,,,2,,,79,0
58272,note_on,,,,,4,0,3,,,,,2,,,76,92
58272,note_on,,,,,4,0,4,,,,,3,,,71,92
58272,note_on,,,,,4,0,1,,,,,0,,,76,92
58304,note_off,,,,,0,0,6,,,,,5,,,76,0
58304,note_off,,,,,320,0,6,,,,,5,,,67,0
58304,note_off,,,,,0,0,6,,,,,5,,,71,0
58364,note_off,,,,,188,0,7,,,,,5,,,52,0
58364,note_off,,,,,92,0,4,,,,,3,,,71,0
58364,note_off,,,,,92,0,3,,,,,2,,,76,0
58364,note_off,,,,,188,0,5,,,,,4,,,59,0
58364,note_off,,,,,92,0,1,,,,,0,,,76,0
58364,note_off,,,,,188,0,2,,,,,1,,,52,0
58364,note_off,,,,,188,0,8,,,,,6,,,52,0
58368,note_on,,,,,64,0,6,,,,,5,,,66,92
58368,note_on,,,,,0,0,6,,,,,5,,,71,92
58368,note_on,,,,,0,0,6,,,,,5,,,75,92
58368,note_on,,,,,4,0,2,,,,,1,,,59,92
58368,note_on,,,,,4,0,7,,,,,5,,,59,92
58368,note_on,,,,,4,0,3,,,,,2,,,78,92
58368,note_on,,,,,4,0,4,,,,,3,,,75,92
58368,note_on,,,,,4,0,5,,,,,4,,,59,92
58368,note_on,,,,,4,0,1,,,,,0,,,78,92
58368,note_on,,,,,4,0,8,,,,,6,,,59,92
58460,note_off,,,,,92,0,3,,,,,2,,,78,0
58460,note_off,,,,,92,0,1,,,,,0,,,78,0
58460,note_off,,,,,92,0,4,,,,,3,,,75,0
58464,note_on,,,,,4,0,4,,,,,3,,,71,92
58464,note_on,,,,,4,0,1,,,,,0,,,75,92
58464,note_on,,,,,4,0,3,,,,,2,,,75,92
58556,note_off,,,,,92,0,4,,,,,3,,,71,0
58556,note_off,,,,,188,0,7,,,,,5,,,59,0
58556,note_off,,,,,92,0,3,,,,,2,,,75,0
58556,note_off,,,,,188,0,8,,,,,6,,,59,0
58556,note_off,,,,,188,0,5,,,,,4,,,59,0
58556,note_off,,,,,188,0,2,,,,,1,,,59,0
58556,note_off,,,,,92,0,1,,,,,0,,,75,0
58560,note_on,,,,,4,0,1,,,,,0,,,78,92
58560,note_on,,,,,4,0,8,,,,,6,,,47,92
58560,note_on,,,,,4,0,4,,,,,3,,,75,92
58560,note_on,,,,,4,0,7,,,,,5,,,47,92
58560,note_on,,,,,4,0,5,,,,,4,,,59,92
58560,note_on,,,,,4,0,2,,,,,1,,,47,92
58560,note_on,,,,,4,0,3,,,,,2,,,78,92
58652,note_off,,,,,92,0,1,,,,,0,,,78,0
58652,note_off,,,,,92,0,4,,,,,3,,,75,0
58652,note_off,,,,,92,0,3,,,,,2,,,78,0
58656,note_on,,,,,4,0,4,,,,,3,,,71,92
58656,note_on,,,,,4,0,1,,,,,0,,,75,92
58656,note_on,,,,,4,0,3,,,,,2,,,75,92
58688,note_off,,,,,0,0,6,,,,,5,,,75,0
58688,note_off,,,,,0,0,6,,,,,5,,,71,0
58688,note_off,,,,,320,0,6,,,,,5,,,66,0
58748,note_off,,,,,188,0,5,,,,,4,,,59,0
58748,note_off,,,,,92,0,4,,,,,3,,,71,0
58748,note_off,,,,,188,0,8,,,,,6,,,47,0
58748,note_off,,,,,188,0,7,,,,,5,,,47,0
58748,note_off,,,,,92,0,1,,,,,0,,,75,0
58748,note_off,,,,,188,0,2,,,,,1,,,47,0
58748,note_off,,,,,92,0,3,,,,,2,,,75,0
58752,note_on,,,,,4,0,7,,,,,5,,,47,92
58752,note_on,,,,,4,0,8,,,,,6,,,47,92
58752,note_on,,,,,4,0,5,,,,,4,,,59,92
58752,note_on,,,,,4,0,4,,,,,3,,,75,92
58752,note_on,,,,,0,0,6,,,,,5,,,71,92
58752,note_on,,,,,4,0,3,,,,,2,,,78,92
58752,note_on,,,,,4,0,2,,,,,1,,,47,92
58752,note_on,,,,,0,0,6,,,,,5,,,75,92
58752,note_on,,,,,64,0,6,,,,,5,,,66,92
58752,note_on,,,,,4,0,1,,,,,0,,,78,92
58844,note_off,,,,,92,0,4,,,,,3,,,75,0
58844,note_off,,,,,92,0,1,,,,,0,,,78,0
58844,note_off,,,,,92,0,3,,,,,2,,,78,0
58848,note_on,,,,,4,0,1,,,,,0,,,75,92
58848,note_on,,,,,4,0,4,,,,,3,,,71,92
58848,note_on,,,,,4,0,3,,,,,2,,,75,92
58940,note_off,,,,,92,0,1,,,,,0,,,75,0
58940,note_off,,,,,92,0,3,,,,,2,,,75,0
58940,note_off,,,,,188,0,7,,,,,5,,,47,0
58940,note_off,,,,,188,0,5,,,,,4,,,59,0
58940,note_off,,,,,188,0,2,,,,,1,,,47,0
58940,note_off,,,,,188,0,8,,,,,6,,,47,0
58940,note_off,,,,,92,0,4,,,,,3,,,71,0
58944,note_on,,,,,4,0,8,,,,,6,,,47,92
58944,note_on,,,,,4,0,2,,,,,1,,,47,92
58944,note_on,,,,,4,0,3,,,,,2,,,78,92
58944,note_on,,,,,4,0,1,,,,,0,,,78,92
58944,note_on,,,,,4,0,5,,,,,4,,,59,92
58944,note_on,,,,,4,0,7,,,,,5,,,47,92
58944,note_on,,,,,4,0,4,,,,,3,,,75,92
59036,note_off,,,,,92,0,1,,,,,0,,,78,0
59036,note_off,,,,,92,0,3,,,,,2,,,78,0
59036,note_off,,,,,92,0,4,,,,,3,,,75,0
59040,note_on,,,,,4,0,3,,,,,2,,,75,92
59040,note_on,,,,,4,0,4,,,,,3,,,71,92
59040,note_on,,,,,4,0,1,,,,,0,,,75,92
59072,note_off,,,,,320,0,6,,,,,5,,,66,0
59072,note_off,,,,,0,0,6,,,,,5,,,71,0
59072,note_off,,,,,0,0,6,,,,,5,,,75,0
59132,note_off,,,,,92,0,1,,,,,0,,,75,0
59132,note_off,,,,,188,0,5,,,,,4,,,59,0
59132,note_off,,,,,92,0,3,,,,,2,,,75,0
59132,note_off,,,,,188,0,7,,,,,5,,,47,0
59132,note_off,,,,,188,0,2,,,,,1,,,47,0
59132,note_off,,,,,188,0,8,,,,,6,,,47,0
59132,note_off,,,,,92,0,4,,,,,3,,,71,0
59136,note_on,,,,,0,0,6,,,,,5,,,71,92
59136,note_on,,,,,4,0,7,,,,,5,,,52,92
59136,note_on,,,,,4,0,8,,,,,6,,,52,92
59136,note_on,,,,,4,0,4,,,,,3,,,67,92
59136,note_on,,,,,4,0,2,,,,,1,,,52,108
59136,note_on,,,,,4,0,1,,,,,0,,,76,92
59136,note_on,,,,,4,0,5,,,,,4,,,59,92
59136,note_on,,,,,4,0,3,,,,,2,,,76,92
59136,note_on,,,,,64,0,6,,,,,5,,,67,92
59136,note_on,,,,,0,0,6,,,,,5,,,76,92
59228,note_off,,,,,92,0,2,,,,,1,,,52,0
59232,note_on,,,,,4,0,2,,,,,1,,,55,108
59324,note_off,,,,,92,0,2,,,,,1,,,55,0
59324,note_off,,,,,188,0,1,,,,,0,,,76,0
59328,note_on,,,,,4,0,2,,,,,1,,,54,108
59328,note_on,,,,,4,0,1,,,,,0,,,71,108
59420,note_off,,,,,92,0,2,,,,,1,,,54,0
59424,note_on,,,,,4,0,2,,,,,1,,,55,108
59456,note_off,,,,,320,0,8,,,,,6,,,52,0
59456,note_off,,,,,0,0,6,,,,,5,,,76,0
59456,note_off,,,,,320,0,3,,,,,2,,,76,0
59456,note_off,,,,,0,0,6,,,,,5,,,71,0
59456,note_off,,,,,320,0,6,,,,,5,,,67,0
59456,note_off,,,,,320,0,7,,,,,5,,,52,0
59456,note_off,,,,,320,0,4,,,,,3,,,67,0
59456,note_off,,,,,320,0,5,,,,,4,,,59,0
59516,note_off,,,,,188,0,1,,,,,0,,,71,0
59516,note_off,,,,,92,0,2,,,,,1,,,55,0
59520,note_on,,,,,0,0,6,,,,,5,,,71,60
59520,note_on,,,,,64,0,8,,,,,6,,,52,45
59520,note_on,,,,,64,0,6,,,,,5,,,64,60
59520,note_on,,,,,4,0,1,,,,,0,,,76,108
59520,note_on,,,,,0,0,6,,,,,5,,,67,60
59520,note_on,,,,,64,0,7,,,,,5,,,52,60
59520,note_on,,,,,4,0,2,,,,,1,,,52,108
59612,note_off,,,,,92,0,2,,,,,1,,,52,0
59616,note_on,,,,,4,0,2,,,,,1,,,55,108
59708,note_off,,,,,92,0,2,,,,,1,,,55,0
59708,note_off,,,,,188,0,1,,,,,0,,,76,0
59712,note_on,,,,,4,0,2,,,,,1,,,54,108
59712,note_on,,,,,4,0,1,,,,,0,,,76,108
59804,note_off,,,,,92,0,2,,,,,1,,,54,0
59808,note_on,,,,,4,0,2,,,,,1,,,52,108
59840,note_off,,,,,320,0,8,,,,,6,,,52,0
59840,note_off,,,,,0,0,6,,,,,5,,,67,0
59840,note_off,,,,,0,0,6,,,,,5,,,71,0
59840,note_off,,,,,320,0,7,,,,,5,,,52,0
59840,note_off,,,,,320,0,6,,,,,5,,,64,0
59900,note_off,,,,,188,0,1,,,,,0,,,76,0
59900,note_off,,,,,92,0,2,,,,,1,,,52,0
59904,note_on,,,,,64,0,6,,,,,5,,,64,60
59904,note_on,,,,,4,0,1,,,,,0,,,76,108
59904,note_on,,,,,64,0,8,,,,,6,,,59,45
59904,note_on,,,,,0,0,6,,,,,5,,,71,60
59904,note_on,,,,,4,0,2,,,,,1,,,59,108
59904,note_on,,,,,64,0,7,,,,,5,,,59,60
59904,note_on,,,,,0,0,6,,,,,5,,,66,60
60092,note_off,,,,,188,0,1,,,,,0,,,76,0
60092,note_off,,,,,188,0,2,,,,,1,,,59,0
60092,note_off,,,,,188,0,6,,,,,5,,,64,0
60092,note_off,,,,,188,0,8,,,,,6,,,59,0
60092,note_off,,,,,188,0,7,,,,,5,,,59,0
60096,note_on,,,,,4,0,8,,,,,6,,,47,45
60096,note_on,,,,,4,0,7,,,,,5,,,47,60
60096,note_on,,,,,4,0,2,,,,,1,,,47,108
60096,note_on,,,,,4,0,1,,,,,0,,,75,108
60096,note_on,,,,,4,0,6,,,,,5,,,63,60
60192,note_off,,,,,96,0,1,,,,,0,,,75,0
60192,note_on,,,,,0,0,1,,,,,0,,,73,108
60224,note_off,,,,,128,0,6,,,,,5,,,66,0
60224,note_off,,,,,0,0,6,,,,,5,,,71,0
60284,note_off,,,,,60,0,6,,,,,5,,,63,0
60284,note_off,,,,,188,0,2,,,,,1,,,47,0
60284,note_off,,,,,92,0,1,,,,,0,,,73,0
60284,note_off,,,,,188,0,7,,,,,5,,,47,0
60284,note_off,,,,,188,0,8,,,,,6,,,47,0
60288,note_on,,,,,4,0,1,,,,,0,,,75,108
60480,note_on,,,,,196,0,8,,,,,6,,,59,45
60480,note_on,,,,,196,0,6,,,,,5,,,63,60
60480,note_on,,,,,0,0,6,,,,,5,,,66,60
60480,note_on,,,,,0,0,6,,,,,5,,,71,60
60480,note_on,,,,,196,0,2,,,,,1,,,59,108
60480,note_on,,,,,196,0,7,,,,,5,,,59,60
60608,note_off,,,,,320,0,1,,,,,0,,,75,0
60668,note_off,,,,,188,0,8,,,,,6,,,59,0
60668,note_off,,,,,0,0,6,,,,,5,,,71,0
60668,note_off,,,,,0,0,6,,,,,5,,,66,0
60668,note_off,,,,,188,0,6,,,,,5,,,63,0
60668,note_off,,,,,188,0,7,,,,,5,,,59,0
60668,note_off,,,,,188,0,2,,,,,1,,,59,0
60672,note_on,,,,,0,0,6,,,,,5,,,71,60
60672,note_on,,,,,4,0,8,,,,,6,,,47,45
60672,note_on,,,,,4,0,2,,,,,1,,,47,108
60672,note_on,,,,,4,0,7,,,,,5,,,47,60
60672,note_on,,,,,4,0,6,,,,,5,,,63,60
60672,note_on,,,,,0,0,6,,,,,5,,,66,60
60764,note_off,,,,,92,0,2,,,,,1,,,47,0
60768,note_on,,,,,4,0,2,,,,,1,,,51,108
60864,note_on,,,,,256,0,1,,,,,0,,,71,108
60864,note_off,,,,,96,0,2,,,,,1,,,51,0
60864,note_on,,,,,0,0,2,,,,,1,,,49,108
60960,note_on,,,,,0,0,2,,,,,1,,,51,108
60960,note_off,,,,,96,0,2,,,,,1,,,49,0
60992,note_off,,,,,320,0,8,,,,,6,,,47,0
60992,note_off,,,,,320,0,6,,,,,5,,,63,0
60992,note_off,,,,,0,0,6,,,,,5,,,66,0
60992,note_off,,,,,0,0,6,,,,,5,,,71,0
60992,note_off,,,,,320,0,7,,,,,5,,,47,0
61052,note_off,,,,,188,0,1,,,,,0,,,71,0
61052,note_off,,,,,92,0,2,,,,,1,,,51,0
61056,note_on,,,,,4,0,2,,,,,1,,,47,108
61056,note_on,,,,,64,0,7,,,,,5,,,47,60
61056,note_on,,,,,0,0,6,,,,,5,,,71,60
61056,note_on,,,,,0,0,6,,,,,5,,,66,60
61056,note_on,,,,,4,0,1,,,,,0,,,78,108
61056,note_on,,,,,64,0,6,,,,,5,,,63,60
61056,note_on,,,,,64,0,8,,,,,6,,,47,45
61148,note_off,,,,,92,0,2,,,,,1,,,47,0
61152,note_on,,,,,4,0,2,,,,,1,,,51,108
61244,note_off,,,,,188,0,1,,,,,0,,,78,0
61244,note_off,,,,,92,0,2,,,,,1,,,51,0
61248,note_on,,,,,4,0,2,,,,,1,,,49,108
61248,note_on,,,,,4,0,1,,,,,0,,,78,108
61340,note_off,,,,,92,0,2,,,,,1,,,49,0
61344,note_on,,,,,4,0,2,,,,,1,,,47,108
61376,note_off,,,,,0,0,6,,,,,5,,,71,0
61376,note_off,,,,,320,0,8,,,,,6,,,47,0
61376,note_off,,,,,0,0,6,,,,,5,,,66,0
61376,note_off,,,,,320,0,6,,,,,5,,,63,0
61376,note_off,,,,,320,0,7,,,,,5,,,47,0
61436,note_off,,,,,188,0,1,,,,,0,,,78,0
61436,note_off,,,,,92,0,2,,,,,1,,,47,0
61440,note_on,,,,,0,0,6,,,,,5,,,69,60
61440,note_on,,,,,64,0,8,,,,,6,,,52,45
61440,note_on,,,,,64,0,7,,,,,5,,,52,60
61440,note_on,,,,,64,0,6,,,,,5,,,66,60
61440,note_on,,,,,4,0,1,,,,,0,,,78,108
61440,note_on,,,,,0,0,6,,,,,5,,,71,60
61440,note_on,,,,,4,0,2,,,,,1,,,52,108
61628,note_off,,,,,188,0,7,,,,,5,,,52,0
61628,note_off,,,,,188,0,2,,,,,1,,,52,0
61628,note_off,,,,,188,0,1,,,,,0,,,78,0
61628,note_off,,,,,188,0,8,,,,,6,,,52,0
61632,note_on,,,,,4,0,7,,,,,5,,,40,60
61632,note_on,,,,,4,0,1,,,,,0,,,76,108
61632,note_on,,,,,4,0,8,,,,,6,,,40,45
61632,note_on,,,,,4,0,2,,,,,1,,,40,108
61728,note_on,,,,,0,0,1,,,,,0,,,75,108
61728,note_off,,,,,96,0,1,,,,,0,,,76,0
61760,note_off,,,,,0,0,6,,,,,5,,,69,0
61760,note_off,,,,,0,0,6,,,,,5,,,71,0
61760,note_off,,,,,320,0,6,,,,,5,,,66,0
61820,note_off,,,,,188,0,7,,,,,5,,,40,0
61820,note_off,,,,,92,0,1,,,,,0,,,75,0
61820,note_off,,,,,188,0,2,,,,,1,,,40,0
61820,note_off,,,,,188,0,8,,,,,6,,,40,0
61824,note_on,,,,,4,0,1,,,,,0,,,76,108
61824,note_on,,,,,0,0,6,,,,,5,,,67,60
61824,note_on,,,,,64,0,6,,,,,5,,,64,60
61824,note_on,,,,,0,0,6,,,,,5,,,71,60
62012,note_off,,,,,188,0,6,,,,,5,,,64,0
62012,note_off,,,,,0,0,6,,,,,5,,,71,0
62012,note_off,,,,,0,0,6,,,,,5,,,67,0
62016,note_on,,,,,196,0,8,,,,,6,,,52,45
62016,note_on,,,,,4,0,6,,,,,5,,,64,60
62016,note_on,,,,,0,0,6,,,,,5,,,67,60
62016,note_on,,,,,0,0,6,,,,,5,,,71,60
62016,note_on,,,,,196,0,2,,,,,1,,,64,108
62016,note_on,,,,,196,0,7,,,,,5,,,52,60
62144,note_off,,,,,320,0,1,,,,,0,,,76,0
62204,note_off,,,,,188,0,6,,,,,5,,,64,0
62204,note_off,,,,,0,0,6,,,,,5,,,67,0
62204,note_off,,,,,0,0,6,,,,,5,,,71,0
62204,note_off,,,,,188,0,7,,,,,5,,,52,0
62204,note_off,,,,,188,0,2,,,,,1,,,64,0
62204,note_off,,,,,188,0,8,,,,,6,,,52,0
62208,note_on,,,,,0,0,6,,,,,5,,,71,60
62208,note_on,,,,,0,0,6,,,,,5,,,67,60
62208,note_on,,,,,4,0,6,,,,,5,,,64,60
62208,note_on,,,,,4,0,2,,,,,1,,,52,108
62208,note_on,,,,,4,0,8,,,,,6,,,52,45
62208,note_on,,,,,4,0,7,,,,,5,,,52,60
62300,note_off,,,,,92,0,2,,,,,1,,,52,0
62304,note_on,,,,,4,0,2,,,,,1,,,55,108
62400,note_on,,,,,0,0,2,,,,,1,,,54,108
62400,note_off,,,,,96,0,2,,,,,1,,,55,0
62400,note_on,,,,,256,0,1,,,,,0,,,71,108
62496,note_on,,,,,0,0,2,,,,,1,,,55,108
62496,note_off,,,,,96,0,2,,,,,1,,,54,0
62528,note_off,,,,,320,0,7,,,,,5,,,52,0
62528,note_off,,,,,0,0,6,,,,,5,,,67,0
62528,note_off,,,,,0,0,6,,,,,5,,,71,0
62528,note_off,,,,,320,0,6,,,,,5,,,64,0
62528,note_off,,,,,320,0,8,,,,,6,,,52,0
62588,note_off,,,,,188,0,1,,,,,0,,,71,0
62588,note_off,,,,,92,0,2,,,,,1,,,55,0
62592,note_on,,,,,64,0,7,,,,,5,,,52,60
62592,note_on,,,,,4,0,1,,,,,0,,,79,108
62592,note_on,,,,,4,0,2,,,,,1,,,52,108
62592,note_on,,,,,64,0,6,,,,,5,,,64,60
62592,note_on,,,,,0,0,6,,,,,5,,,67,60
62592,note_on,,,,,0,0,6,,,,,5,,,71,60
62592,note_on,,,,,64,0,8,,,,,6,,,52,45
62684,note_off,,,,,92,0,2,,,,,1,,,52,0
62688,note_on,,,,,4,0,2,,,,,1,,,55,108
62780,note_off,,,,,92,0,2,,,,,1,,,55,0
62780,note_off,,,,,188,0,1,,,,,0,,,79,0
62784,note_on,,,,,4,0,2,,,,,1,,,54,108
62784,note_on,,,,,4,0,1,,,,,0,,,79,108
62876,note_off,,,,,92,0,2,,,,,1,,,54,0
62880,note_on,,,,,4,0,2,,,,,1,,,52,108
62912,note_off,,,,,320,0,7,,,,,5,,,52,0
62912,note_off,,,,,320,0,8,,,,,6,,,52,0
62912,note_off,,,,,320,0,6,,,,,5,,,64,0
62912,note_off,,,,,0,0,6,,,,,5,,,67,0
62912,note_off,,,,,0,0,6,,,,,5,,,71,0
62972,note_off,,,,,92,0,2,,,,,1,,,52,0
62972,note_off,,,,,188,0,1,,,,,0,,,79,0
62976,note_on,,,,,4,0,2,,,,,1,,,59,108
62976,note_on,,,,,64,0,8,,,,,6,,,59,45
62976,note_on,,,,,64,0,7,,,,,5,,,59,60
62976,note_on,,,,,64,0,6,,,,,5,,,64,60
62976,note_on,,,,,0,0,6,,,,,5,,,67,60
62976,note_on,,,,,4,0,1,,,,,0,,,79,108
62976,note_on,,,,,0,0,6,,,,,5,,,71,60
63164,note_off,,,,,188,0,8,,,,,6,,,59,0
63164,note_off,,,,,188,0,7,,,,,5,,,59,0
63164,note_off,,,,,188,0,6,,,,,5,,,64,0
63164,note_off,,,,,188,0,1,,,,,0,,,79,0
63164,note_off,,,,,0,0,6,,,,,5,,,67,0
63164,note_off,,,,,188,0,2,,,,,1,,,59,0
63168,note_on,,,,,4,0,6,,,,,5,,,63,60
63168,note_on,,,,,0,0,6,,,,,5,,,66,60
63168,note_on,,,,,4,0,1,,,,,0,,,78,108
63168,note_on,,,,,4,0,7,,,,,5,,,47,60
63168,note_on,,,,,4,0,8,,,,,6,,,47,45
63168,note_on,,,,,4,0,2,,,,,1,,,47,108
63260,note_off,,,,,92,0,1,,,,,0,,,78,0
63264,note_on,,,,,4,0,1,,,,,0,,,76,108
63296,note_off,,,,,128,0,6,,,,,5,,,71,0
63356,note_off,,,,,188,0,2,,,,,1,,,47,0
63356,note_off,,,,,92,0,1,,,,,0,,,76,0
63356,note_off,,,,,188,0,8,,,,,6,,,47,0
63356,note_off,,,,,60,0,6,,,,,5,,,63,0
63356,note_off,,,,,0,0,6,,,,,5,,,66,0
63356,note_off,,,,,188,0,7,,,,,5,,,47,0
63360,note_on,,,,,0,0,6,,,,,5,,,66,60
63360,note_on,,,,,0,0,6,,,,,5,,,71,60
63360,note_on,,,,,4,0,6,,,,,5,,,63,60
63360,note_on,,,,,4,0,1,,,,,0,,,78,108
63552,note_on,,,,,196,0,2,,,,,1,,,59,108
63552,note_on,,,,,196,0,7,,,,,5,,,59,60
63552,note_on,,,,,196,0,8,,,,,6,,,59,45
63680,note_off,,,,,320,0,6,,,,,5,,,63,0
63680,note_off,,,,,0,0,6,,,,,5,,,66,0
63680,note_off,,,,,320,0,1,,,,,0,,,78,0
63680,note_off,,,,,0,0,6,,,,,5,,,71,0
63740,note_off,,,,,188,0,7,,,,,5,,,59,0
63740,note_off,,,,,188,0,2,,,,,1,,,59,0
63740,note_off,,,,,188,0,8,,,,,6,,,59,0
63744,note_on,,,,,4,0,8,,,,,6,,,47,45
63744,note_on,,,,,4,0,7,,,,,5,,,47,60
63744,note_on,,,,,0,0,6,,,,,5,,,66,60
63744,note_on,,,,,0,0,6,,,,,5,,,71,60
63744,note_on,,,,,4,0,2,,,,,1,,,47,108
63744,note_on,,,,,64,0,6,,,,,5,,,63,60
63836,note_off,,,,,92,0,2,,,,,1,,,47,0
63840,note_on,,,,,4,0,2,,,,,1,,,51,108
63936,note_on,,,,,256,0,1,,,,,0,,,71,108
63936,note_off,,,,,96,0,2,,,,,1,,,51,0
63936,note_on,,,,,0,0,2,,,,,1,,,49,108
64032,note_on,,,,,0,0,2,,,,,1,,,51,108
64032,note_off,,,,,96,0,2,,,,,1,,,49,0
64064,note_off,,,,,320,0,8,,,,,6,,,47,0
64064,note_off,,,,,0,0,6,,,,,5,,,71,0
64064,note_off,,,,,0,0,6,,,,,5,,,66,0
64064,note_off,,,,,320,0,6,,,,,5,,,63,0
64064,note_off,,,,,320,0,7,,,,,5,,,47,0
64124,note_off,,,,,92,0,2,,,,,1,,,51,0
64124,note_off,,,,,188,0,1,,,,,0,,,71,0
64128,note_on,,,,,64,0,8,,,,,6,,,47,45
64128,note_on,,,,,4,0,1,,,,,0,,,81,108
64128,note_on,,,,,0,0,6,,,,,5,,,71,60
64128,note_on,,,,,0,0,6,,,,,5,,,69,60
64128,note_on,,,,,64,0,6,,,,,5,,,66,60
64128,note_on,,,,,4,0,2,,,,,1,,,47,108
64128,note_on,,,,,64,0,7,,,,,5,,,47,60
64220,note_off,,,,,92,0,2,,,,,1,,,47,0
64224,note_on,,,,,4,0,2,,,,,1,,,51,108
64316,note_off,,,,,92,0,2,,,,,1,,,51,0
64316,note_off,,,,,188,0,1,,,,,0,,,81,0
64320,note_on,,,,,4,0,1,,,,,0,,,81,108
64320,note_on,,,,,4,0,2,,,,,1,,,49,108
64412,note_off,,,,,92,0,2,,,,,1,,,49,0
64416,note_on,,,,,4,0,2,,,,,1,,,47,108
64448,note_off,,,,,320,0,8,,,,,6,,,47,0
64448,note_off,,,,,0,0,6,,,,,5,,,71,0
64448,note_off,,,,,0,0,6,,,,,5,,,69,0
64448,note_off,,,,,320,0,6,,,,,5,,,66,0
64448,note_off,,,,,320,0,7,,,,,5,,,47,0
64508,note_off,,,,,92,0,2,,,,,1,,,47,0
64508,note_off,,,,,188,0,1,,,,,0,,,81,0
64512,note_on,,,,,4,0,2,,,,,1,,,52,108
64512,note_on,,,,,4,0,1,,,,,0,,,81,108
64512,note_on,,,,,0,0,6,,,,,5,,,69,60
64512,note_on,,,,,64,0,7,,,,,5,,,52,60
64512,note_on,,,,,0,0,6,,,,,5,,,71,60
64512,note_on,,,,,64,0,6,,,,,5,,,66,60
64512,note_on,,,,,64,0,8,,,,,6,,,52,45
64700,note_off,,,,,188,0,7,,,,,5,,,52,0
64700,note_off,,,,,188,0,2,,,,,1,,,52,0
64700,note_off,,,,,188,0,8,,,,,6,,,52,0
64700,note_off,,,,,188,0,6,,,,,5,,,66,0
64700,note_off,,,,,0,0,6,,,,,5,,,69,0
64700,note_off,,,,,188,0,1,,,,,0,,,81,0
64704,note_on,,,,,0,0,6,,,,,5,,,67,60
64704,note_on,,,,,4,0,1,,,,,0,,,79,108
64704,note_on,,,,,4,0,8,,,,,6,,,40,45
64704,note_on,,,,,4,0,2,,,,,1,,,40,108
64704,note_on,,,,,4,0,6,,,,,5,,,64,60
64704,note_on,,,,,4,0,7,,,,,5,,,40,60
64796,note_off,,,,,92,0,1,,,,,0,,,79,0
64800,note_on,,,,,4,0,1,,,,,0,,,78,108
64832,note_off,,,,,128,0,6,,,,,5,,,71,0
64892,note_off,,,,,60,0,6,,,,,5,,,64,0
64892,note_off,,,,,188,0,7,,,,,5,,,40,0
64892,note_off,,,,,188,0,8,,,,,6,,,40,0
64892,note_off,,,,,0,0,6,,,,,5,,,67,0
64892,note_off,,,,,92,0,1,,,,,0,,,78,0
64892,note_off,,,,,188,0,2,,,,,1,,,40,0
64896,note_on,,,,,0,0,6,,,,,5,,,67,60
64896,note_on,,,,,4,0,6,,,,,5,,,64,60
64896,note_on,,,,,4,0,2,,,,,1,,,64,108
64896,note_on,,,,,0,0,6,,,,,5,,,71,60
64896,note_on,,,,,4,0,1,,,,,0,,,79,108
65084,note_off,,,,,188,0,1,,,,,0,,,79,0
65084,note_off,,,,,188,0,6,,,,,5,,,64,0
65084,note_off,,,,,0,0,6,,,,,5,,,67,0
65084,note_off,,,,,0,0,6,,,,,5,,,71,0
65088,note_on,,,,,0,0,6,,,,,5,,,76,60
65088,note_on,,,,,0,0,6,,,,,5,,,71,60
65088,note_on,,,,,4,0,6,,,,,5,,,67,60
65088,note_on,,,,,4,0,1,,,,,0,,,78,108
65088,note_on,,,,,196,0,8,,,,,6,,,52,45
65088,note_on,,,,,196,0,7,,,,,5,,,52,60
65180,note_off,,,,,92,0,1,,,,,0,,,78,0
65184,note_on,,,,,4,0,1,,,,,0,,,76,108
65276,note_off,,,,,188,0,8,,,,,6,,,52,0
65276,note_off,,,,,0,0,6,,,,,5,,,71,0
65276,note_off,,,,,92,0,1,,,,,0,,,76,0
65276,note_off,,,,,0,0,6,,,,,5,,,76,0
65276,note_off,,,,,188,0,6,,,,,5,,,67,0
65276,note_off,,,,,188,0,7,,,,,5,,,52,0
65280,note_on,,,,,4,0,1,,,,,0,,,78,108
65280,note_on,,,,,0,0,6,,,,,5,,,76,60
65280,note_on,,,,,0,0,6,,,,,5,,,71,60
65280,note_on,,,,,4,0,6,,,,,5,,,66,60
65280,note_on,,,,,4,0,8,,,,,6,,,59,45
65280,note_on,,,,,4,0,7,,,,,5,,,59,60
65372,note_off,,,,,476,0,2,,,,,1,,,64,0
65376,note_on,,,,,4,0,2,,,,,1,,,64,108
65468,note_off,,,,,188,0,6,,,,,5,,,76,0
65468,note_off,,,,,92,0,2,,,,,1,,,64,0
65472,note_on,,,,,4,0,2,,,,,1,,,62,108
65472,note_on,,,,,4,0,6,,,,,5,,,74,60
65564,note_off,,,,,92,0,2,,,,,1,,,62,0
65568,note_on,,,,,4,0,2,,,,,1,,,60,108
65600,note_off,,,,,320,0,7,,,,,5,,,59,0
65600,note_off,,,,,320,0,8,,,,,6,,,59,0
65600,note_off,,,,,128,0,6,,,,,5,,,66,0
65600,note_off,,,,,0,0,6,,,,,5,,,71,0
65660,note_off,,,,,60,0,6,,,,,5,,,74,0
65660,note_off,,,,,92,0,2,,,,,1,,,60,0
65664,note_on,,,,,4,0,2,,,,,1,,,62,108
65756,note_off,,,,,476,0,1,,,,,0,,,78,0
65760,note_on,,,,,4,0,1,,,,,0,,,79,108
65852,note_off,,,,,92,0,1,,,,,0,,,79,0
65856,note_on,,,,,256,0,8,,,,,6,,,55,45
65856,note_on,,,,,4,0,1,,,,,0,,,81,108
65856,note_on,,,,,0,0,6,,,,,5,,,67,60
65856,note_on,,,,,0,0,6,,,,,5,,,71,60
65856,note_on,,,,,196,0,6,,,,,5,,,64,60
65856,note_on,,,,,256,0,7,,,,,5,,,55,60
65948,note_off,,,,,92,0,1,,,,,0,,,81,0
65952,note_on,,,,,4,0,1,,,,,0,,,83,108
66044,note_off,,,,,188,0,8,,,,,6,,,55,0
66044,note_off,,,,,92,0,1,,,,,0,,,83,0
66044,note_off,,,,,188,0,7,,,,,5,,,55,0
66044,note_off,,,,,188,0,6,,,,,5,,,64,0
66044,note_off,,,,,0,0,6,,,,,5,,,71,0
66044,note_off,,,,,0,0,6,,,,,5,,,67,0
66048,note_on,,,,,4,0,8,,,,,6,,,60,45
66048,note_on,,,,,0,0,6,,,,,5,,,67,60
66048,note_on,,,,,0,0,6,,,,,5,,,74,60
66048,note_on,,,,,4,0,7,,,,,5,,,60,60
66048,note_on,,,,,4,0,6,,,,,5,,,64,60
66048,note_on,,,,,4,0,1,,,,,0,,,76,108
66140,note_off,,,,,476,0,2,,,,,1,,,62,0
66144,note_on,,,,,4,0,2,,,,,1,,,62,108
66236,note_off,,,,,188,0,6,,,,,5,,,74,0
66236,note_off,,,,,92,0,2,,,,,1,,,62,0
66240,note_on,,,,,4,0,6,,,,,5,,,72,60
66240,note_on,,,,,4,0,2,,,,,1,,,60,108
66332,note_off,,,,,92,0,2,,,,,1,,,60,0
66336,note_on,,,,,4,0,2,,,,,1,,,59,108
66368,note_off,,,,,128,0,6,,,,,5,,,64,0
66368,note_off,,,,,320,0,8,,,,,6,,,60,0
66368,note_off,,,,,320,0,7,,,,,5,,,60,0
66368,note_off,,,,,0,0,6,,,,,5,,,67,0
66428,note_off,,,,,60,0,6,,,,,5,,,72,0
66428,note_off,,,,,92,0,2,,,,,1,,,59,0
66432,note_on,,,,,4,0,2,,,,,1,,,60,108
66524,note_off,,,,,476,0,1,,,,,0,,,76,0
66528,note_on,,,,,4,0,1,,,,,0,,,78,108
66620,note_off,,,,,92,0,1,,,,,0,,,78,0
66624,note_on,,,,,4,0,1,,,,,0,,,79,108
66624,note_on,,,,,196,0,6,,,,,5,,,64,60
66624,note_on,,,,,256,0,7,,,,,5,,,54,60
66624,note_on,,,,,256,0,8,,,,,6,,,54,45
66624,note_on,,,,,0,0,6,,,,,5,,,69,60
66624,note_on,,,,,0,0,6,,,,,5,,,72,60
66716,note_off,,,,,92,0,1,,,,,0,,,79,0
66720,note_on,,,,,4,0,1,,,,,0,,,81,108
66812,note_off,,,,,188,0,7,,,,,5,,,54,0
66812,note_off,,,,,188,0,8,,,,,6,,,54,0
66812,note_off,,,,,92,0,1,,,,,0,,,81,0
66812,note_off,,,,,0,0,6,,,,,5,,,72,0
66812,note_off,,,,,0,0,6,,,,,5,,,69,0
66812,note_off,,,,,188,0,6,,,,,5,,,64,0
66816,note_on,,,,,0,0,6,,,,,5,,,72,60
66816,note_on,,,,,0,0,6,,,,,5,,,66,60
66816,note_on,,,,,4,0,8,,,,,6,,,59,45
66816,note_on,,,,,4,0,7,,,,,5,,,59,60
66816,note_on,,,,,4,0,6,,,,,5,,,62,60
66816,note_on,,,,,4,0,1,,,,,0,,,74,108
66908,note_off,,,,,476,0,2,,,,,1,,,60,0
66912,note_on,,,,,4,0,2,,,,,1,,,60,108
67004,note_off,,,,,92,0,2,,,,,1,,,60,0
67004,note_off,,,,,188,0,6,,,,,5,,,72,0
67008,note_on,,,,,4,0,2,,,,,1,,,59,108
67008,note_on,,,,,4,0,6,,,,,5,,,71,60
67100,note_off,,,,,92,0,2,,,,,1,,,59,0
67104,note_on,,,,,4,0,2,,,,,1,,,57,108
67136,note_off,,,,,320,0,7,,,,,5,,,59,0
67136,note_off,,,,,0,0,6,,,,,5,,,66,0
67136,note_off,,,,,128,0,6,,,,,5,,,62,0
67136,note_off,,,,,320,0,8,,,,,6,,,59,0
67196,note_off,,,,,60,0,6,,,,,5,,,71,0
67196,note_off,,,,,92,0,2,,,,,1,,,57,0
67200,note_on,,,,,4,0,2,,,,,1,,,59,108
67292,note_off,,,,,476,0,1,,,,,0,,,74,0
67296,note_on,,,,,4,0,1,,,,,0,,,76,108
67388,note_off,,,,,92,0,1,,,,,0,,,76,0
67392,note_on,,,,,0,0,6,,,,,5,,,67,60
67392,note_on,,,,,0,0,6,,,,,5,,,71,60
67392,note_on,,,,,4,0,1,,,,,0,,,78,108
67392,note_on,,,,,256,0,8,,,,,6,,,52,45
67392,note_on,,,,,256,0,7,,,,,5,,,52,60
67392,note_on,,,,,196,0,6,,,,,5,,,64,60
67484,note_off,,,,,92,0,1,,,,,0,,,78,0
67488,note_on,,,,,4,0,1,,,,,0,,,79,108
67520,note_off,,,,,320,0,2,,,,,1,,,59,0
67580,note_off,,,,,188,0,6,,,,,5,,,64,0
67580,note_off,,,,,0,0,6,,,,,5,,,67,0
67580,note_off,,,,,0,0,6,,,,,5,,,71,0
67580,note_off,,,,,188,0,7,,,,,5,,,52,0
67580,note_off,,,,,188,0,8,,,,,6,,,52,0
67580,note_off,,,,,92,0,1,,,,,0,,,79,0
67584,note_on,,,,,4,0,7,,,,,5,,,55,60
67584,note_on,,,,,0,0,6,,,,,5,,,71,60
67584,note_on,,,,,4,0,1,,,,,0,,,71,108
67584,note_on,,,,,4,0,6,,,,,5,,,64,60
67584,note_on,,,,,64,0,2,,,,,1,,,55,108
67584,note_on,,,,,4,0,8,,,,,6,,,55,45
67772,note_off,,,,,188,0,1,,,,,0,,,71,0
67776,note_on,,,,,4,0,1,,,,,0,,,69,108
67868,note_off,,,,,92,0,1,,,,,0,,,69,0
67872,note_on,,,,,4,0,1,,,,,0,,,67,108
67964,note_off,,,,,92,0,1,,,,,0,,,67,0
67968,note_on,,,,,4,0,1,,,,,0,,,71,108
68096,note_off,,,,,512,0,7,,,,,5,,,55,0
68096,note_off,,,,,0,0,6,,,,,5,,,71,0
68096,note_off,,,,,512,0,2,,,,,1,,,55,0
68096,note_off,,,,,512,0,6,,,,,5,,,64,0
68096,note_off,,,,,512,0,8,,,,,6,,,55,0
68156,note_off,,,,,188,0,1,,,,,0,,,71,0
68160,note_on,,,,,64,0,7,,,,,5,,,52,60
68160,note_on,,,,,4,0,1,,,,,0,,,73,108
68160,note_on,,,,,0,0,6,,,,,5,,,73,60
68160,note_on,,,,,64,0,6,,,,,5,,,67,60
68160,note_on,,,,,64,0,8,,,,,6,,,52,45
68160,note_on,,,,,64,0,2,,,,,1,,,55,108
68348,note_off,,,,,188,0,6,,,,,5,,,67,0
68348,note_off,,,,,0,0,6,,,,,5,,,73,0
68348,note_off,,,,,188,0,2,,,,,1,,,55,0
68348,note_off,,,,,188,0,7,,,,,5,,,52,0
68348,note_off,,,,,188,0,8,,,,,6,,,52,0
68348,note_off,,,,,188,0,1,,,,,0,,,73,0
68352,note_on,,,,,4,0,1,,,,,0,,,74,108
68352,note_on,,,,,4,0,8,,,,,6,,,47,45
68352,note_on,,,,,0,0,6,,,,,5,,,71,60
68352,note_on,,,,,0,0,6,,,,,5,,,74,60
68352,note_on,,,,,4,0,2,,,,,1,,,54,108
68352,note_on,,,,,4,0,7,,,,,5,,,47,60
68352,note_on,,,,,4,0,6,,,,,5,,,66,60
68540,note_off,,,,,188,0,2,,,,,1,,,54,0
68544,note_on,,,,,4,0,2,,,,,1,,,52,108
68636,note_off,,,,,92,0,2,,,,,1,,,52,0
68640,note_on,,,,,4,0,2,,,,,1,,,50,108
68672,note_off,,,,,0,0,6,,,,,5,,,74,0
68672,note_off,,,,,0,0,6,,,,,5,,,71,0
68672,note_off,,,,,320,0,7,,,,,5,,,47,0
68672,note_off,,,,,320,0,6,,,,,5,,,66,0
68672,note_off,,,,,320,0,8,,,,,6,,,47,0
68732,note_off,,,,,92,0,2,,,,,1,,,50,0
68736,note_on,,,,,4,0,2,,,,,1,,,54,108
68924,note_off,,,,,188,0,2,,,,,1,,,54,0
68928,note_on,,,,,256,0,7,,,,,5,,,56,60
68928,note_on,,,,,0,0,6,,,,,5,,,74,60
68928,note_on,,,,,256,0,8,,,,,6,,,56,45
68928,note_on,,,,,0,0,6,,,,,5,,,71,60
68928,note_on,,,,,4,0,2,,,,,1,,,56,108
68928,note_on,,,,,256,0,6,,,,,5,,,64,60
69024,note_off,,,,,672,0,1,,,,,0,,,74,0
69116,note_off,,,,,0,0,6,,,,,5,,,71,0
69116,note_off,,,,,188,0,6,,,,,5,,,64,0
69116,note_off,,,,,0,0,6,,,,,5,,,74,0
69116,note_off,,,,,188,0,8,,,,,6,,,56,0
69116,note_off,,,,,188,0,2,,,,,1,,,56,0
69116,note_off,,,,,188,0,7,,,,,5,,,56,0
69120,note_on,,,,,0,0,6,,,,,5,,,69,60
69120,note_on,,,,,4,0,2,,,,,1,,,57,108
69120,note_on,,,,,96,0,1,,,,,0,,,72,108
69120,note_on,,,,,0,0,6,,,,,5,,,72,60
69120,note_on,,,,,4,0,6,,,,,5,,,64,60
69120,note_on,,,,,4,0,7,,,,,5,,,57,60
69120,note_on,,,,,4,0,8,,,,,6,,,57,45
69308,note_off,,,,,188,0,1,,,,,0,,,72,0
69312,note_on,,,,,4,0,1,,,,,0,,,71,108
69404,note_off,,,,,92,0,1,,,,,0,,,71,0
69408,note_on,,,,,4,0,1,,,,,0,,,69,108
69440,note_off,,,,,320,0,8,,,,,6,,,57,0
69440,note_off,,,,,0,0,6,,,,,5,,,72,0
69440,note_off,,,,,0,0,6,,,,,5,,,69,0
69440,note_off,,,,,320,0,6,,,,,5,,,64,0
69440,note_off,,,,,320,0,7,,,,,5,,,57,0
69500,note_off,,,,,92,0,1,,,,,0,,,69,0
69504,note_on,,,,,4,0,1,,,,,0,,,73,108
69692,note_off,,,,,188,0,1,,,,,0,,,73,0
69696,note_on,,,,,256,0,8,,,,,6,,,54,45
69696,note_on,,,,,256,0,7,,,,,5,,,54,60
69696,note_on,,,,,4,0,1,,,,,0,,,75,108
69696,note_on,,,,,0,0,6,,,,,5,,,75,60
69696,note_on,,,,,256,0,6,,,,,5,,,69,60
69792,note_off,,,,,672,0,2,,,,,1,,,57,0
69884,note_off,,,,,0,0,6,,,,,5,,,75,0
69884,note_off,,,,,188,0,6,,,,,5,,,69,0
69884,note_off,,,,,188,0,1,,,,,0,,,75,0
69884,note_off,,,,,188,0,8,,,,,6,,,54,0
69884,note_off,,,,,188,0,7,,,,,5,,,54,0
69888,note_on,,,,,96,0,2,,,,,1,,,55,108
69888,note_on,,,,,4,0,7,,,,,5,,,52,60
69888,note_on,,,,,4,0,6,,,,,5,,,67,60
69888,note_on,,,,,0,0,6,,,,,5,,,71,60
69888,note_on,,,,,0,0,6,,,,,5,,,76,60
69888,note_on,,,,,4,0,1,,,,,0,,,76,108
69888,note_on,,,,,4,0,8,,,,,6,,,52,45
70076,note_off,,,,,188,0,2,,,,,1,,,55,0
70080,note_on,,,,,4,0,2,,,,,1,,,54,108
70172,note_off,,,,,92,0,2,,,,,1,,,54,0
70176,note_on,,,,,4,0,2,,,,,1,,,52,108
70208,note_off,,,,,0,0,6,,,,,5,,,76,0
70208,note_off,,,,,320,0,7,,,,,5,,,52,0
70208,note_off,,,,,320,0,6,,,,,5,,,67,0
70208,note_off,,,,,0,0,6,,,,,5,,,71,0
70208,note_off,,,,,320,0,8,,,,,6,,,52,0
70268,note_off,,,,,92,0,2,,,,,1,,,52,0
70272,note_on,,,,,4,0,2,,,,,1,,,55,108
70460,note_off,,,,,188,0,2,,,,,1,,,55,0
70464,note_on,,,,,4,0,2,,,,,1,,,57,108
70560,note_off,,,,,672,0,1,,,,,0,,,76,0
70652,note_off,,,,,188,0,2,,,,,1,,,57,0
70656,note_on,,,,,448,0,6,,,,,5,,,66,60
70656,note_on,,,,,96,0,1,,,,,0,,,75,108
70656,note_on,,,,,448,0,7,,,,,5,,,59,60
70656,note_on,,,,,0,0,6,,,,,5,,,75,60
70656,note_on,,,,,0,0,6,,,,,5,,,71,60
70656,note_on,,,,,4,0,2,,,,,1,,,59,108
70656,note_on,,,,,448,0,8,,,,,6,,,59,45
70844,note_off,,,,,188,0,1,,,,,0,,,75,0
70848,note_on,,,,,4,0,1,,,,,0,,,73,108
70940,note_off,,,,,92,0,1,,,,,0,,,73,0
70944,note_on,,,,,4,0,1,,,,,0,,,71,108
70976,note_off,,,,,0,0,6,,,,,5,,,75,0
70976,note_off,,,,,0,0,6,,,,,5,,,71,0
70976,note_off,,,,,320,0,6,,,,,5,,,66,0
70976,note_off,,,,,320,0,7,,,,,5,,,59,0
70976,note_off,,,,,320,0,8,,,,,6,,,59,0
71036,note_off,,,,,92,0,1,,,,,0,,,71,0
71040,note_on,,,,,4,0,1,,,,,0,,,75,108
71132,note_off,,,,,476,0,2,,,,,1,,,59,0
71136,note_on,,,,,4,0,2,,,,,1,,,57,108
71228,note_off,,,,,92,0,2,,,,,1,,,57,0
71228,note_off,,,,,188,0,1,,,,,0,,,75,0
71232,note_on,,,,,256,0,8,,,,,6,,,47,45
71232,note_on,,,,,256,0,7,,,,,5,,,47,60
71232,note_on,,,,,0,0,6,,,,,5,,,71,60
71232,note_on,,,,,4,0,1,,,,,0,,,78,108
71232,note_on,,,,,4,0,2,,,,,1,,,55,108
71232,note_on,,,,,0,0,6,,,,,5,,,75,60
71232,note_on,,,,,256,0,6,,,,,5,,,66,60
71324,note_off,,,,,92,0,2,,,,,1,,,55,0
71328,note_on,,,,,4,0,2,,,,,1,,,54,108
71420,note_off,,,,,188,0,6,,,,,5,,,66,0
71420,note_off,,,,,188,0,7,,,,,5,,,47,0
71420,note_off,,,,,0,0,6,,,,,5,,,71,0
71420,note_off,,,,,0,0,6,,,,,5,,,75,0
71420,note_off,,,,,188,0,8,,,,,6,,,47,0
71420,note_off,,,,,92,0,2,,,,,1,,,54,0
71420,note_off,,,,,188,0,1,,,,,0,,,78,0
71424,note_on,,,,,4,0,7,,,,,5,,,52,60
71424,note_on,,,,,4,0,8,,,,,6,,,52,45
71424,note_on,,,,,4,0,6,,,,,5,,,67,60
71424,note_on,,,,,4,0,1,,,,,0,,,79,108
71424,note_on,,,,,0,0,6,,,,,5,,,71,60
71424,note_on,,,,,0,0,6,,,,,5,,,76,60
71424,note_on,,,,,4,0,2,,,,,1,,,52,108
71612,note_off,,,,,188,0,2,,,,,1,,,52,0
71616,note_on,,,,,4,0,2,,,,,1,,,54,108
71708,note_off,,,,,92,0,2,,,,,1,,,54,0
71712,note_on,,,,,4,0,2,,,,,1,,,55,108
71804,note_off,,,,,92,0,2,,,,,1,,,55,0
71808,note_on,,,,,4,0,2,,,,,1,,,54,108
71996,note_off,,,,,188,0,2,,,,,1,,,54,0
72000,note_on,,,,,4,0,2,,,,,1,,,52,108
72096,note_off,,,,,0,0,6,,,,,5,,,76,0
72096,note_off,,,,,0,0,6,,,,,5,,,71,0
72096,note_off,,,,,672,0,6,,,,,5,,,67,0
72096,note_off,,,,,672,0,1,,,,,0,,,79,0
72096,note_off,,,,,672,0,7,,,,,5,,,52,0
72096,note_off,,,,,672,0,8,,,,,6,,,52,0
72188,note_off,,,,,188,0,2,,,,,1,,,52,0
72192,note_on,,,,,96,0,6,,,,,5,,,66,60
72192,note_on,,,,,96,0,8,,,,,6,,,57,45
72192,note_on,,,,,0,0,6,,,,,5,,,72,60
72192,note_on,,,,,96,0,1,,,,,0,,,78,108
72192,note_on,,,,,96,0,7,,,,,5,,,57,60
72192,note_on,,,,,4,0,2,,,,,1,,,57,108
72284,note_off,,,,,92,0,1,,,,,0,,,78,0
72288,note_on,,,,,4,0,1,,,,,0,,,79,108
72380,note_off,,,,,92,0,1,,,,,0,,,79,0
72384,note_on,,,,,4,0,1,,,,,0,,,81,108
72476,note_off,,,,,92,0,1,,,,,0,,,81,0
72480,note_on,,,,,4,0,1,,,,,0,,,79,108
72512,note_off,,,,,320,0,6,,,,,5,,,66,0
72512,note_off,,,,,320,0,8,,,,,6,,,57,0
72512,note_off,,,,,320,0,2,,,,,1,,,57,0
72512,note_off,,,,,0,0,6,,,,,5,,,72,0
72512,note_off,,,,,320,0,7,,,,,5,,,57,0
72572,note_off,,,,,92,0,1,,,,,0,,,79,0
72576,note_on,,,,,64,0,6,,,,,5,,,62,60
72576,note_on,,,,,4,0,1,,,,,0,,,78,108
72576,note_on,,,,,64,0,7,,,,,5,,,50,60
72576,note_on,,,,,64,0,8,,,,,6,,,50,45
72576,note_on,,,,,64,0,2,,,,,1,,,50,108
72576,note_on,,,,,0,0,6,,,,,5,,,72,60
72576,note_on,,,,,0,0,6,,,,,5,,,66,60
72668,note_off,,,,,92,0,1,,,,,0,,,78,0
72672,note_on,,,,,4,0,1,,,,,0,,,76,108
72764,note_off,,,,,92,0,1,,,,,0,,,76,0
72768,note_on,,,,,4,0,1,,,,,0,,,74,108
72860,note_off,,,,,92,0,1,,,,,0,,,74,0
72864,note_on,,,,,4,0,1,,,,,0,,,72,108
72896,note_off,,,,,0,0,6,,,,,5,,,66,0
72896,note_off,,,,,0,0,6,,,,,5,,,72,0
72896,note_off,,,,,320,0,8,,,,,6,,,50,0
72896,note_off,,,,,320,0,7,,,,,5,,,50,0
72896,note_off,,,,,320,0,6,,,,,5,,,62,0
72896,note_off,,,,,320,0,2,,,,,1,,,50,0
72956,note_off,,,,,92,0,1,,,,,0,,,72,0
72960,note_on,,,,,64,0,7,,,,,5,,,55,60
72960,note_on,,,,,64,0,2,,,,,1,,,55,108
72960,note_on,,,,,4,0,1,,,,,0,,,71,108
72960,note_on,,,,,0,0,6,,,,,5,,,67,60
72960,note_on,,,,,64,0,6,,,,,5,,,62,60
72960,note_on,,,,,64,0,8,,,,,6,,,55,45
72960,note_on,,,,,0,0,6,,,,,5,,,71,60
73052,note_off,,,,,92,0,2,,,,,1,,,55,0
73056,note_on,,,,,4,0,2,,,,,1,,,62,108
73148,note_off,,,,,188,0,1,,,,,0,,,71,0
73148,note_off,,,,,92,0,2,,,,,1,,,62,0
73152,note_on,,,,,4,0,1,,,,,0,,,67,108
73152,note_on,,,,,4,0,2,,,,,1,,,59,108
73244,note_off,,,,,92,0,2,,,,,1,,,59,0
73248,note_on,,,,,4,0,2,,,,,1,,,62,108
73280,note_off,,,,,320,0,6,,,,,5,,,62,0
73280,note_off,,,,,0,0,6,,,,,5,,,67,0
73280,note_off,,,,,0,0,6,,,,,5,,,71,0
73280,note_off,,,,,320,0,8,,,,,6,,,55,0
73280,note_off,,,,,320,0,7,,,,,5,,,55,0
73340,note_off,,,,,188,0,1,,,,,0,,,67,0
73340,note_off,,,,,92,0,2,,,,,1,,,62,0
73344,note_on,,,,,64,0,6,,,,,5,,,62,60
73344,note_on,,,,,4,0,2,,,,,1,,,55,108
73344,note_on,,,,,64,0,7,,,,,5,,,55,60
73344,note_on,,,,,64,0,8,,,,,6,,,55,45
73344,note_on,,,,,0,0,6,,,,,5,,,67,60
73344,note_on,,,,,0,0,6,,,,,5,,,71,60
73436,note_off,,,,,92,0,2,,,,,1,,,55,0
73440,note_on,,,,,4,0,2,,,,,1,,,62,108
73532,note_off,,,,,92,0,2,,,,,1,,,62,0
73532,note_off,,,,,188,0,6,,,,,5,,,62,0
73532,note_off,,,,,0,0,6,,,,,5,,,67,0
73532,note_off,,,,,0,0,6,,,,,5,,,71,0
73532,note_off,,,,,188,0,8,,,,,6,,,55,0
73532,note_off,,,,,188,0,7,,,,,5,,,55,0
73536,note_on,,,,,196,0,1,,,,,0,,,81,108
73536,note_on,,,,,4,0,7,,,,,5,,,54,60
73536,note_on,,,,,4,0,6,,,,,5,,,62,60
73536,note_on,,,,,4,0,2,,,,,1,,,54,108
73536,note_on,,,,,4,0,8,,,,,6,,,54,45
73536,note_on,,,,,0,0,6,,,,,5,,,69,60
73628,note_off,,,,,92,0,2,,,,,1,,,54,0
73632,note_on,,,,,4,0,2,,,,,1,,,62,108
73724,note_off,,,,,188,0,7,,,,,5,,,54,0
73724,note_off,,,,,92,0,2,,,,,1,,,62,0
73724,note_off,,,,,188,0,6,,,,,5,,,62,0
73724,note_off,,,,,0,0,6,,,,,5,,,69,0
73724,note_off,,,,,188,0,8,,,,,6,,,54,0
73724,note_off,,,,,188,0,1,,,,,0,,,81,0
73728,note_on,,,,,4,0,2,,,,,1,,,52,108
73728,note_on,,,,,4,0,6,,,,,5,,,59,60
73728,note_on,,,,,0,0,6,,,,,5,,,64,60
73728,note_on,,,,,0,0,6,,,,,5,,,67,60
73728,note_on,,,,,4,0,1,,,,,0,,,79,108
73728,note_on,,,,,4,0,8,,,,,6,,,52,45
73728,note_on,,,,,4,0,7,,,,,5,,,52,60
73820,note_off,,,,,92,0,2,,,,,1,,,52,0
73820,note_off,,,,,92,0,1,,,,,0,,,79,0
73824,note_on,,,,,4,0,2,,,,,1,,,55,108
73824,note_on,,,,,4,0,1,,,,,0,,,78,108
73916,note_off,,,,,92,0,2,,,,,1,,,55,0
73916,note_off,,,,,92,0,1,,,,,0,,,78,0
73920,note_on,,,,,4,0,1,,,,,0,,,79,108
73920,note_on,,,,,4,0,2,,,,,1,,,52,108
74012,note_off,,,,,92,0,2,,,,,1,,,52,0
74016,note_on,,,,,4,0,2,,,,,1,,,55,108
74048,note_off,,,,,0,0,6,,,,,5,,,67,0
74048,note_off,,,,,0,0,6,,,,,5,,,64,0
74048,note_off,,,,,320,0,6,,,,,5,,,59,0
74048,note_off,,,,,320,0,8,,,,,6,,,52,0
74048,note_off,,,,,320,0,7,,,,,5,,,52,0
74108,note_off,,,,,188,0,1,,,,,0,,,79,0
74108,note_off,,,,,92,0,2,,,,,1,,,55,0
74112,note_on,,,,,64,0,7,,,,,5,,,48,60
74112,note_on,,,,,4,0,2,,,,,1,,,48,108
74112,note_on,,,,,0,0,6,,,,,5,,,67,60
74112,note_on,,,,,64,0,6,,,,,5,,,64,60
74112,note_on,,,,,64,0,8,,,,,6,,,48,45
74204,note_off,,,,,92,0,2,,,,,1,,,48,0
74208,note_on,,,,,4,0,2,,,,,1,,,55,108
74300,note_off,,,,,92,0,2,,,,,1,,,55,0
74300,note_off,,,,,188,0,7,,,,,5,,,48,0
74300,note_off,,,,,188,0,6,,,,,5,,,64,0
74300,note_off,,,,,0,0,6,,,,,5,,,67,0
74300,note_off,,,,,188,0,8,,,,,6,,,48,0
74304,note_on,,,,,4,0,2,,,,,1,,,47,108
74304,note_on,,,,,0,0,6,,,,,5,,,67,60
74304,note_on,,,,,4,0,6,,,,,5,,,62,60
74304,note_on,,,,,196,0,1,,,,,0,,,74,108
74304,note_on,,,,,4,0,7,,,,,5,,,47,60
74304,note_on,,,,,4,0,8,,,,,6,,,47,45
74396,note_off,,,,,92,0,2,,,,,1,,,47,0
74400,note_on,,,,,4,0,2,,,,,1,,,55,108
74492,note_off,,,,,92,0,2,,,,,1,,,55,0
74492,note_off,,,,,188,0,7,,,,,5,,,47,0
74492,note_off,,,,,188,0,6,,,,,5,,,62,0
74492,note_off,,,,,0,0,6,,,,,5,,,67,0
74492,note_off,,,,,188,0,8,,,,,6,,,47,0
74492,note_off,,,,,188,0,1,,,,,0,,,74,0
74496,note_on,,,,,4,0,1,,,,,0,,,72,108
74496,note_on,,,,,4,0,7,,,,,5,,,45,60
74496,note_on,,,,,4,0,8,,,,,6,,,45,45
74496,note_on,,,,,4,0,2,,,,,1,,,45,108
74496,note_on,,,,,0,0,6,,,,,5,,,72,60
74496,note_on,,,,,0,0,6,,,,,5,,,69,60
74496,note_on,,,,,4,0,6,,,,,5,,,64,60
74588,note_off,,,,,92,0,1,,,,,0,,,72,0
74588,note_off,,,,,92,0,2,,,,,1,,,45,0
74592,note_on,,,,,4,0,2,,,,,1,,,60,108
74592,note_on,,,,,4,0,1,,,,,0,,,71,108
74684,note_off,,,,,92,0,1,,,,,0,,,71,0
74684,note_off,,,,,92,0,2,,,,,1,,,60,0
74688,note_on,,,,,4,0,1,,,,,0,,,72,108
74688,note_on,,,,,4,0,2,,,,,1,,,57,108
74780,note_off,,,,,92,0,2,,,,,1,,,57,0
74784,note_on,,,,,4,0,2,,,,,1,,,60,108
74816,note_off,,,,,0,0,6,,,,,5,,,69,0
74816,note_off,,,,,320,0,8,,,,,6,,,45,0
74816,note_off,,,,,0,0,6,,,,,5,,,72,0
74816,note_off,,,,,320,0,6,,,,,5,,,64,0
74816,note_off,,,,,320,0,7,,,,,5,,,45,0
74876,note_off,,,,,188,0,1,,,,,0,,,72,0
74876,note_off,,,,,92,0,2,,,,,1,,,60,0
74880,note_on,,,,,0,0,6,,,,,5,,,72,60
74880,note_on,,,,,64,0,7,,,,,5,,,54,60
74880,note_on,,,,,64,0,6,,,,,5,,,69,60
74880,note_on,,,,,4,0,2,,,,,1,,,54,108
74880,note_on,,,,,64,0,8,,,,,6,,,54,45
74972,note_off,,,,,92,0,2,,,,,1,,,54,0
74976,note_on,,,,,4,0,2,,,,,1,,,60,108
75068,note_off,,,,,92,0,2,,,,,1,,,60,0
75068,note_off,,,,,188,0,6,,,,,5,,,69,0
75068,note_off,,,,,188,0,8,,,,,6,,,54,0
75068,note_off,,,,,0,0,6,,,,,5,,,72,0
75068,note_off,,,,,188,0,7,,,,,5,,,54,0
75072,note_on,,,,,196,0,1,,,,,0,,,79,108
75072,note_on,,,,,4,0,7,,,,,5,,,52,60
75072,note_on,,,,,4,0,6,,,,,5,,,67,60
75072,note_on,,,,,0,0,6,,,,,5,,,72,60
75072,note_on,,,,,4,0,8,,,,,6,,,52,45
75072,note_on,,,,,4,0,2,,,,,1,,,52,108
75164,note_off,,,,,92,0,2,,,,,1,,,52,0
75168,note_on,,,,,4,0,2,,,,,1,,,60,108
75260,note_off,,,,,188,0,6,,,,,5,,,67,0
75260,note_off,,,,,188,0,1,,,,,0,,,79,0
75260,note_off,,,,,0,0,6,,,,,5,,,72,0
75260,note_off,,,,,188,0,7,,,,,5,,,52,0
75260,note_off,,,,,188,0,8,,,,,6,,,52,0
75260,note_off,,,,,92,0,2,,,,,1,,,60,0
75264,note_on,,,,,4,0,1,,,,,0,,,78,108
75264,note_on,,,,,4,0,6,,,,,5,,,66,60
75264,note_on,,,,,0,0,6,,,,,5,,,69,60
75264,note_on,,,,,0,0,6,,,,,5,,,72,60
75264,note_on,,,,,4,0,8,,,,,6,,,50,45
75264,note_on,,,,,4,0,2,,,,,1,,,50,108
75264,note_on,,,,,4,0,7,,,,,5,,,50,60
75356,note_off,,,,,92,0,2,,,,,1,,,50,0
75356,note_off,,,,,92,0,1,,,,,0,,,78,0
75360,note_on,,,,,4,0,2,,,,,1,,,54,108
75360,note_on,,,,,4,0,1,,,,,0,,,76,108
75452,note_off,,,,,92,0,2,,,,,1,,,54,0
75452,note_off,,,,,92,0,1,,,,,0,,,76,0
75456,note_on,,,,,4,0,1,,,,,0,,,78,108
75456,note_on,,,,,4,0,2,,,,,1,,,50,108
75548,note_off,,,,,92,0,2,,,,,1,,,50,0
75552,note_on,,,,,4,0,2,,,,,1,,,54,108
75584,note_off,,,,,320,0,8,,,,,6,,,50,0
75584,note_off,,,,,0,0,6,,,,,5,,,72,0
75584,note_off,,,,,320,0,7,,,,,5,,,50,0
75584,note_off,,,,,320,0,6,,,,,5,,,66,0
75584,note_off,,,,,0,0,6,,,,,5,,,69,0
75644,note_off,,,,,188,0,1,,,,,0,,,78,0
75644,note_off,,,,,92,0,2,,,,,1,,,54,0
75648,note_on,,,,,64,0,8,,,,,6,,,47,45
75648,note_on,,,,,0,0,6,,,,,5,,,74,60
75648,note_on,,,,,64,0,6,,,,,5,,,67,60
75648,note_on,,,,,4,0,2,,,,,1,,,47,108
75648,note_on,,,,,64,0,7,,,,,5,,,47,60
75740,note_off,,,,,92,0,2,,,,,1,,,47,0
75744,note_on,,,,,4,0,2,,,,,1,,,54,108
75836,note_off,,,,,92,0,2,,,,,1,,,54,0
75836,note_off,,,,,188,0,6,,,,,5,,,67,0
75836,note_off,,,,,0,0,6,,,,,5,,,74,0
75836,note_off,,,,,188,0,8,,,,,6,,,47,0
75836,note_off,,,,,188,0,7,,,,,5,,,47,0
75840,note_on,,,,,4,0,2,,,,,1,,,45,108
75840,note_on,,,,,4,0,6,,,,,5,,,60,60
75840,note_on,,,,,4,0,8,,,,,6,,,45,45
75840,note_on,,,,,0,0,6,,,,,5,,,66,60
75840,note_on,,,,,196,0,1,,,,,0,,,72,108
75840,note_on,,,,,4,0,7,,,,,5,,,45,60
75932,note_off,,,,,92,0,2,,,,,1,,,45,0
75936,note_on,,,,,4,0,2,,,,,1,,,54,108
76028,note_off,,,,,188,0,7,,,,,5,,,45,0
76028,note_off,,,,,0,0,6,,,,,5,,,66,0
76028,note_off,,,,,188,0,6,,,,,5,,,60,0
76028,note_off,,,,,188,0,8,,,,,6,,,45,0
76028,note_off,,,,,188,0,1,,,,,0,,,72,0
76028,note_off,,,,,92,0,2,,,,,1,,,54,0
76032,note_on,,,,,16576,0,4,,,,,3,,,71,92
76032,note_on,,,,,4,0,7,,,,,5,,,43,92
76032,note_on,,,,,0,0,6,,,,,5,,,67,92
76032,note_on,,,,,0,0,6,,,,,5,,,62,92
76032,note_on,,,,,4,0,6,,,,,5,,,59,92
76032,note_on,,,,,4,0,2,,,,,1,,,43,92
76032,note_on,,,,,4,0,8,,,,,6,,,43,92
76032,note_on,,,,,16576,0,5,,,,,4,,,62,92
76032,note_on,,,,,16576,0,3,,,,,2,,,71,92
76032,note_on,,,,,4,0,1,,,,,0,,,71,92
76124,note_off,,,,,92,0,1,,,,,0,,,71,0
76124,note_off,,,,,92,0,3,,,,,2,,,71,0
76124,note_off,,,,,92,0,4,,,,,3,,,71,0
76128,note_on,,,,,4,0,1,,,,,0,,,74,92
76128,note_on,,,,,4,0,3,,,,,2,,,74,92
76128,note_on,,,,,4,0,4,,,,,3,,,74,92
76220,note_off,,,,,92,0,3,,,,,2,,,74,0
76220,note_off,,,,,188,0,5,,,,,4,,,62,0
76220,note_off,,,,,0,0,6,,,,,5,,,67,0
76220,note_off,,,,,0,0,6,,,,,5,,,62,0
76220,note_off,,,,,188,0,6,,,,,5,,,59,0
76220,note_off,,,,,188,0,7,,,,,5,,,43,0
76220,note_off,,,,,92,0,4,,,,,3,,,74,0
76220,note_off,,,,,188,0,8,,,,,6,,,43,0
76220,note_off,,,,,92,0,1,,,,,0,,,74,0
76220,note_off,,,,,188,0,2,,,,,1,,,43,0
76224,note_on,,,,,4,0,3,,,,,2,,,66,92
76224,note_on,,,,,4,0,1,,,,,0,,,66,92
76224,note_on,,,,,4,0,2,,,,,1,,,50,92
76224,note_on,,,,,4,0,4,,,,,3,,,66,92
76224,note_on,,,,,0,0,6,,,,,5,,,62,92
76224,note_on,,,,,0,0,6,,,,,5,,,66,92
76224,note_on,,,,,4,0,7,,,,,5,,,50,92
76224,note_on,,,,,4,0,8,,,,,6,,,50,92
76224,note_on,,,,,4,0,6,,,,,5,,,57,92
76224,note_on,,,,,4,0,5,,,,,4,,,62,92
76412,note_off,,,,,188,0,2,,,,,1,,,50,0
76412,note_off,,,,,188,0,8,,,,,6,,,50,0
76412,note_off,,,,,188,0,7,,,,,5,,,50,0
76416,note_on,,,,,4,0,8,,,,,6,,,50,92
76416,note_on,,,,,4,0,7,,,,,5,,,50,92
76416,note_on,,,,,4,0,2,,,,,1,,,50,92
76508,note_off,,,,,284,0,5,,,,,4,,,62,0
76508,note_off,,,,,284,0,3,,,,,2,,,66,0
76508,note_off,,,,,284,0,1,,,,,0,,,66,0
76508,note_off,,,,,284,0,4,,,,,3,,,66,0
76512,note_on,,,,,4,0,3,,,,,2,,,69,92
76512,note_on,,,,,4,0,1,,,,,0,,,69,92
76512,note_on,,,,,4,0,5,,,,,4,,,66,92
76512,note_on,,,,,4,0,4,,,,,3,,,69,92
76544,note_off,,,,,320,0,6,,,,,5,,,57,0
76544,note_off,,,,,0,0,6,,,,,5,,,62,0
76544,note_off,,,,,0,0,6,,,,,5,,,66,0
76604,note_off,,,,,92,0,5,,,,,4,,,66,0
76604,note_off,,,,,92,0,4,,,,,3,,,69,0
76604,note_off,,,,,188,0,8,,,,,6,,,50,0
76604,note_off,,,,,92,0,1,,,,,0,,,69,0
76604,note_off,,,,,188,0,7,,,,,5,,,50,0
76604,note_off,,,,,92,0,3,,,,,2,,,69,0
76604,note_off,,,,,188,0,2,,,,,1,,,50,0
76608,note_on,,,,,4,0,5,,,,,4,,,64,92
76608,note_on,,,,,4,0,4,,,,,3,,,67,92
76608,note_on,,,,,4,0,7,,,,,5,,,50,92
76608,note_on,,,,,4,0,1,,,,,0,,,67,92
76608,note_on,,,,,0,0,6,,,,,5,,,64,92
76608,note_on,,,,,64,0,6,,,,,5,,,59,92
76608,note_on,,,,,4,0,3,,,,,2,,,67,92
76608,note_on,,,,,4,0,8,,,,,6,,,50,92
76608,note_on,,,,,4,0,2,,,,,1,,,50,92
76608,note_on,,,,,0,0,6,,,,,5,,,67,92
76796,note_off,,,,,188,0,8,,,,,6,,,50,0
76796,note_off,,,,,188,0,2,,,,,1,,,50,0
76796,note_off,,,,,188,0,7,,,,,5,,,50,0
76800,note_on,,,,,4,0,7,,,,,5,,,50,92
76800,note_on,,,,,4,0,2,,,,,1,,,50,92
76800,note_on,,,,,4,0,8,,,,,6,,,50,92
76892,note_off,,,,,284,0,5,,,,,4,,,64,0
76892,note_off,,,,,284,0,4,,,,,3,,,67,0
76892,note_off,,,,,284,0,3,,,,,2,,,67,0
76892,note_off,,,,,284,0,1,,,,,0,,,67,0
76896,note_on,,,,,4,0,5,,,,,4,,,67,92
76896,note_on,,,,,4,0,4,,,,,3,,,71,92
76896,note_on,,,,,4,0,1,,,,,0,,,71,92
76896,note_on,,,,,4,0,3,,,,,2,,,71,92
76988,note_off,,,,,92,0,4,,,,,3,,,71,0
76988,note_off,,,,,92,0,1,,,,,0,,,71,0
76988,note_off,,,,,92,0,3,,,,,2,,,71,0
76988,note_off,,,,,0,0,6,,,,,5,,,67,0
76988,note_off,,,,,188,0,8,,,,,6,,,50,0
76988,note_off,,,,,0,0,6,,,,,5,,,64,0
76988,note_off,,,,,188,0,7,,,,,5,,,50,0
76988,note_off,,,,,380,0,6,,,,,5,,,59,0
76988,note_off,,,,,92,0,5,,,,,4,,,67,0
76988,note_off,,,,,188,0,2,,,,,1,,,50,0
76992,note_on,,,,,4,0,6,,,,,5,,,62,92
76992,note_on,,,,,4,0,4,,,,,3,,,69,92
76992,note_on,,,,,4,0,1,,,,,0,,,69,92
76992,note_on,,,,,4,0,8,,,,,6,,,50,92
76992,note_on,,,,,0,0,6,,,,,5,,,66,92
76992,note_on,,,,,4,0,2,,,,,1,,,50,92
76992,note_on,,,,,4,0,3,,,,,2,,,69,92
76992,note_on,,,,,0,0,6,,,,,5,,,69,92
76992,note_on,,,,,4,0,7,,,,,5,,,50,92
76992,note_on,,,,,4,0,5,,,,,4,,,66,92
77180,note_off,,,,,188,0,7,,,,,5,,,50,0
77180,note_off,,,,,188,0,2,,,,,1,,,50,0
77180,note_off,,,,,188,0,8,,,,,6,,,50,0
77184,note_on,,,,,4,0,8,,,,,6,,,50,92
77184,note_on,,,,,4,0,7,,,,,5,,,50,92
77184,note_on,,,,,4,0,2,,,,,1,,,50,92
77276,note_off,,,,,284,0,5,,,,,4,,,66,0
77276,note_off,,,,,284,0,4,,,,,3,,,69,0
77276,note_off,,,,,284,0,3,,,,,2,,,69,0
77276,note_off,,,,,284,0,1,,,,,0,,,69,0
77280,note_on,,,,,4,0,5,,,,,4,,,69,92
77280,note_on,,,,,4,0,1,,,,,0,,,72,92
77280,note_on,,,,,4,0,4,,,,,3,,,72,92
77280,note_on,,,,,4,0,3,,,,,2,,,72,92
77312,note_off,,,,,0,0,6,,,,,5,,,69,0
77312,note_off,,,,,0,0,6,,,,,5,,,66,0
77312,note_off,,,,,320,0,6,,,,,5,,,62,0
77372,note_off,,,,,92,0,5,,,,,4,,,69,0
77372,note_off,,,,,92,0,1,,,,,0,,,72,0
77372,note_off,,,,,188,0,8,,,,,6,,,50,0
77372,note_off,,,,,92,0,3,,,,,2,,,72,0
77372,note_off,,,,,188,0,2,,,,,1,,,50,0
77372,note_off,,,,,92,0,4,,,,,3,,,72,0
77372,note_off,,,,,188,0,7,,,,,5,,,50,0
77376,note_on,,,,,4,0,2,,,,,1,,,50,92
77376,note_on,,,,,0,0,6,,,,,5,,,71,92
77376,note_on,,,,,4,0,3,,,,,2,,,71,92
77376,note_on,,,,,4,0,7,,,,,5,,,50,92
77376,note_on,,,,,0,0,6,,,,,5,,,67,92
77376,note_on,,,,,4,0,8,,,,,6,,,50,92
77376,note_on,,,,,4,0,1,,,,,0,,,71,92
77376,note_on,,,,,64,0,6,,,,,5,,,62,92
77376,note_on,,,,,4,0,4,,,,,3,,,71,92
77376,note_on,,,,,4,0,5,,,,,4,,,67,92
77564,note_off,,,,,188,0,8,,,,,6,,,50,0
77564,note_off,,,,,188,0,2,,,,,1,,,50,0
77564,note_off,,,,,188,0,7,,,,,5,,,50,0
77568,note_on,,,,,4,0,7,,,,,5,,,50,92
77568,note_on,,,,,4,0,8,,,,,6,,,50,92
77568,note_on,,,,,4,0,2,,,,,1,,,50,92
77660,note_off,,,,,284,0,3,,,,,2,,,71,0
77660,note_off,,,,,284,0,4,,,,,3,,,71,0
77660,note_off,,,,,284,0,1,,,,,0,,,71,0
77660,note_off,,,,,284,0,5,,,,,4,,,67,0
77664,note_on,,,,,4,0,1,,,,,0,,,78,92
77664,note_on,,,,,4,0,5,,,,,4,,,69,92
77664,note_on,,,,,4,0,3,,,,,2,,,78,92
77664,note_on,,,,,4,0,4,,,,,3,,,78,92
77756,note_off,,,,,92,0,3,,,,,2,,,78,0
77756,note_off,,,,,188,0,8,,,,,6,,,50,0
77756,note_off,,,,,0,0,6,,,,,5,,,71,0
77756,note_off,,,,,92,0,5,,,,,4,,,69,0
77756,note_off,,,,,188,0,7,,,,,5,,,50,0
77756,note_off,,,,,92,0,4,,,,,3,,,78,0
77756,note_off,,,,,92,0,1,,,,,0,,,78,0
77756,note_off,,,,,0,0,6,,,,,5,,,67,0
77756,note_off,,,,,380,0,6,,,,,5,,,62,0
77756,note_off,,,,,188,0,2,,,,,1,,,50,0
77760,note_on,,,,,4,0,7,,,,,5,,,50,92
77760,note_on,,,,,4,0,5,,,,,4,,,66,92
77760,note_on,,,,,4,0,3,,,,,2,,,81,92
77760,note_on,,,,,4,0,2,,,,,1,,,50,92
77760,note_on,,,,,4,0,8,,,,,6,,,50,92
77760,note_on,,,,,4,0,1,,,,,0,,,81,92
77760,note_on,,,,,4,0,6,,,,,5,,,62,92
77760,note_on,,,,,0,0,6,,,,,5,,,66,92
77760,note_on,,,,,0,0,6,,,,,5,,,69,92
77760,note_on,,,,,4,0,4,,,,,3,,,81,92
77948,note_off,,,,,188,0,7,,,,,5,,,50,0
77948,note_off,,,,,188,0,2,,,,,1,,,50,0
77948,note_off,,,,,188,0,8,,,,,6,,,50,0
77952,note_on,,,,,4,0,7,,,,,5,,,50,92
77952,note_on,,,,,4,0,2,,,,,1,,,50,92
77952,note_on,,,,,4,0,8,,,,,6,,,50,92
78044,note_off,,,,,284,0,5,,,,,4,,,66,0
78048,note_on,,,,,4,0,5,,,,,4,,,66,92
78080,note_off,,,,,320,0,4,,,,,3,,,81,0
78080,note_off,,,,,320,0,3,,,,,2,,,81,0
78080,note_off,,,,,0,0,6,,,,,5,,,69,0
78080,note_off,,,,,0,0,6,,,,,5,,,66,0
78080,note_off,,,,,320,0,6,,,,,5,,,62,0
78080,note_off,,,,,320,0,1,,,,,0,,,81,0
78140,note_off,,,,,188,0,8,,,,,6,,,50,0
78140,note_off,,,,,188,0,2,,,,,1,,,50,0
78140,note_off,,,,,92,0,5,,,,,4,,,66,0
78140,note_off,,,,,188,0,7,,,,,5,,,50,0
78144,note_on,,,,,0,0,6,,,,,5,,,74,92
78144,note_on,,,,,0,0,6,,,,,5,,,66,92
78144,note_on,,,,,64,0,6,,,,,5,,,62,92
78144,note_on,,,,,64,0,3,,,,,2,,,72,92
78144,note_on,,,,,64,0,4,,,,,3,,,69,92
78144,note_on,,,,,4,0,8,,,,,6,,,50,92
78144,note_on,,,,,64,0,1,,,,,0,,,72,92
78144,note_on,,,,,4,0,5,,,,,4,,,69,92
78144,note_on,,,,,4,0,7,,,,,5,,,50,92
78144,note_on,,,,,4,0,2,,,,,1,,,50,92
78236,note_off,,,,,92,0,5,,,,,4,,,69,0
78240,note_on,,,,,4,0,5,,,,,4,,,66,92
78332,note_off,,,,,92,0,5,,,,,4,,,66,0
78332,note_off,,,,,188,0,6,,,,,5,,,62,0
78332,note_off,,,,,188,0,1,,,,,0,,,72,0
78332,note_off,,,,,188,0,3,,,,,2,,,72,0
78332,note_off,,,,,188,0,8,,,,,6,,,50,0
78332,note_off,,,,,0,0,6,,,,,5,,,66,0
78332,note_off,,,,,188,0,4,,,,,3,,,69,0
78332,note_off,,,,,0,0,6,,,,,5,,,74,0
78332,note_off,,,,,188,0,7,,,,,5,,,50,0
78332,note_off,,,,,188,0,2,,,,,1,,,50,0
78336,note_on,,,,,4,0,2,,,,,1,,,50,92
78336,note_on,,,,,4,0,8,,,,,6,,,50,92
78336,note_on,,,,,4,0,7,,,,,5,,,50,92
78336,note_on,,,,,4,0,4,,,,,3,,,69,92
78336,note_on,,,,,4,0,5,,,,,4,,,66,92
78336,note_on,,,,,4,0,6,,,,,5,,,62,92
78336,note_on,,,,,0,0,6,,,,,5,,,66,92
78336,note_on,,,,,0,0,6,,,,,5,,,72,92
78336,note_on,,,,,4,0,3,,,,,2,,,74,92
78336,note_on,,,,,4,0,1,,,,,0,,,74,92
78384,note_on,,,,,0,0,3,,,,,2,,,72,92
78384,note_off,,,,,48,0,1,,,,,0,,,74,0
78384,note_on,,,,,0,0,1,,,,,0,,,72,92
78384,note_off,,,,,48,0,3,,,,,2,,,74,0
78428,note_off,,,,,92,0,5,,,,,4,,,66,0
78428,note_off,,,,,92,0,4,,,,,3,,,69,0
78432,note_on,,,,,4,0,4,,,,,3,,,66,92
78432,note_on,,,,,4,0,5,,,,,4,,,62,92
78432,note_on,,,,,0,0,3,,,,,2,,,71,92
78432,note_off,,,,,48,0,3,,,,,2,,,72,0
78432,note_off,,,,,48,0,1,,,,,0,,,72,0
78432,note_on,,,,,0,0,1,,,,,0,,,71,92
78524,note_off,,,,,92,0,5,,,,,4,,,62,0
78524,note_off,,,,,92,0,4,,,,,3,,,66,0
78524,note_off,,,,,188,0,2,,,,,1,,,50,0
78524,note_off,,,,,188,0,8,,,,,6,,,50,0
78524,note_off,,,,,188,0,7,,,,,5,,,50,0
78528,note_on,,,,,4,0,8,,,,,6,,,50,92
78528,note_on,,,,,0,0,1,,,,,0,,,72,92
78528,note_off,,,,,96,0,1,,,,,0,,,71,0
78528,note_on,,,,,4,0,4,,,,,3,,,69,92
78528,note_on,,,,,4,0,5,,,,,4,,,66,92
78528,note_on,,,,,0,0,3,,,,,2,,,72,92
78528,note_off,,,,,96,0,3,,,,,2,,,71,0
78528,note_on,,,,,4,0,2,,,,,1,,,50,92
78528,note_on,,,,,4,0,7,,,,,5,,,50,92
78620,note_off,,,,,92,0,4,,,,,3,,,69,0
78620,note_off,,,,,92,0,5,,,,,4,,,66,0
78624,note_on,,,,,4,0,4,,,,,3,,,66,92
78624,note_on,,,,,4,0,5,,,,,4,,,62,92
78656,note_off,,,,,0,0,6,,,,,5,,,72,0
78656,note_off,,,,,0,0,6,,,,,5,,,66,0
78656,note_off,,,,,320,0,6,,,,,5,,,62,0
78716,note_off,,,,,188,0,8,,,,,6,,,50,0
78716,note_off,,,,,92,0,4,,,,,3,,,66,0
78716,note_off,,,,,188,0,2,,,,,1,,,50,0
78716,note_off,,,,,188,0,1,,,,,0,,,72,0
78716,note_off,,,,,188,0,7,,,,,5,,,50,0
78716,note_off,,,,,188,0,3,,,,,2,,,72,0
78716,note_off,,,,,92,0,5,,,,,4,,,62,0
78720,note_on,,,,,4,0,1,,,,,0,,,74,92
78720,note_on,,,,,4,0,2,,,,,1,,,50,92
78720,note_on,,,,,64,0,6,,,,,5,,,62,92
78720,note_on,,,,,4,0,4,,,,,3,,,69,92
78720,note_on,,,,,0,0,6,,,,,5,,,72,92
78720,note_on,,,,,4,0,7,,,,,5,,,50,92
78720,note_on,,,,,4,0,8,,,,,6,,,50,92
78720,note_on,,,,,4,0,5,,,,,4,,,66,92
78720,note_on,,,,,4,0,3,,,,,2,,,74,92
78720,note_on,,,,,0,0,6,,,,,5,,,66,92
78768,note_on,,,,,0,0,1,,,,,0,,,72,92
78768,note_off,,,,,48,0,3,,,,,2,,,74,0
78768,note_on,,,,,0,0,3,,,,,2,,,72,92
78768,note_off,,,,,48,0,1,,,,,0,,,74,0
78812,note_off,,,,,92,0,4,,,,,3,,,69,0
78812,note_off,,,,,92,0,5,,,,,4,,,66,0
78816,note_on,,,,,4,0,5,,,,,4,,,62,92
78816,note_on,,,,,0,0,1,,,,,0,,,71,92
78816,note_off,,,,,48,0,1,,,,,0,,,72,0
78816,note_on,,,,,4,0,4,,,,,3,,,66,92
78816,note_on,,,,,0,0,3,,,,,2,,,71,92
78816,note_off,,,,,48,0,3,,,,,2,,,72,0
78908,note_off,,,,,92,0,5,,,,,4,,,62,0
78908,note_off,,,,,92,0,4,,,,,3,,,66,0
78908,note_off,,,,,188,0,8,,,,,6,,,50,0
78908,note_off,,,,,188,0,2,,,,,1,,,50,0
78908,note_off,,,,,188,0,7,,,,,5,,,50,0
78912,note_on,,,,,0,0,3,,,,,2,,,72,92
78912,note_on,,,,,4,0,8,,,,,6,,,50,92
78912,note_on,,,,,4,0,2,,,,,1,,,50,92
78912,note_on,,,,,4,0,7,,,,,5,,,50,92
78912,note_off,,,,,96,0,1,,,,,0,,,71,0
78912,note_on,,,,,0,0,1,,,,,0,,,72,92
78912,note_on,,,,,4,0,4,,,,,3,,,69,92
78912,note_off,,,,,96,0,3,,,,,2,,,71,0
78912,note_on,,,,,4,0,5,,,,,4,,,66,92
79004,note_off,,,,,92,0,4,,,,,3,,,69,0
79004,note_off,,,,,92,0,5,,,,,4,,,66,0
79008,note_on,,,,,4,0,5,,,,,4,,,62,92
79008,note_on,,,,,4,0,4,,,,,3,,,66,92
79040,note_off,,,,,0,0,6,,,,,5,,,66,0
79040,note_off,,,,,320,0,6,,,,,5,,,62,0
79040,note_off,,,,,0,0,6,,,,,5,,,72,0
79100,note_off,,,,,188,0,3,,,,,2,,,72,0
79100,note_off,,,,,92,0,5,,,,,4,,,62,0
79100,note_off,,,,,188,0,8,,,,,6,,,50,0
79100,note_off,,,,,188,0,2,,,,,1,,,50,0
79100,note_off,,,,,188,0,7,,,,,5,,,50,0
79100,note_off,,,,,188,0,1,,,,,0,,,72,0
79100,note_off,,,,,92,0,4,,,,,3,,,66,0
79104,note_on,,,,,4,0,4,,,,,3,,,69,92
79104,note_on,,,,,4,0,8,,,,,6,,,50,92
79104,note_on,,,,,4,0,5,,,,,4,,,66,92
79104,note_on,,,,,4,0,2,,,,,1,,,50,92
79104,note_on,,,,,4,0,1,,,,,0,,,72,92
79104,note_on,,,,,0,0,6,,,,,5,,,72,92
79104,note_on,,,,,0,0,6,,,,,5,,,66,92
79104,note_on,,,,,64,0,6,,,,,5,,,62,92
79104,note_on,,,,,4,0,3,,,,,2,,,72,92
79104,note_on,,,,,4,0,7,,,,,5,,,50,92
79168,note_off,,,,,64,0,1,,,,,0,,,72,0
79168,note_on,,,,,0,0,1,,,,,0,,,74,92
79168,note_on,,,,,0,0,3,,,,,2,,,74,92
79168,note_off,,,,,64,0,3,,,,,2,,,72,0
79196,note_off,,,,,92,0,5,,,,,4,,,66,0
79196,note_off,,,,,92,0,4,,,,,3,,,69,0
79200,note_on,,,,,4,0,4,,,,,3,,,66,92
79200,note_on,,,,,4,0,5,,,,,4,,,62,92
79232,note_off,,,,,64,0,1,,,,,0,,,74,0
79232,note_on,,,,,0,0,1,,,,,0,,,76,92
79232,note_off,,,,,64,0,3,,,,,2,,,74,0
79232,note_on,,,,,0,0,3,,,,,2,,,76,92
79292,note_off,,,,,188,0,2,,,,,1,,,50,0
79292,note_off,,,,,188,0,7,,,,,5,,,50,0
79292,note_off,,,,,92,0,5,,,,,4,,,62,0
79292,note_off,,,,,92,0,4,,,,,3,,,66,0
79292,note_off,,,,,188,0,8,,,,,6,,,50,0
79296,note_on,,,,,4,0,8,,,,,6,,,50,92
79296,note_on,,,,,4,0,4,,,,,3,,,69,92
79296,note_on,,,,,0,0,3,,,,,2,,,78,92
79296,note_off,,,,,64,0,3,,,,,2,,,76,0
79296,note_on,,,,,4,0,5,,,,,4,,,66,92
79296,note_off,,,,,64,0,1,,,,,0,,,76,0
79296,note_on,,,,,0,0,1,,,,,0,,,78,92
79296,note_on,,,,,4,0,2,,,,,1,,,50,92
79296,note_on,,,,,4,0,7,,,,,5,,,50,92
79360,note_on,,,,,0,0,3,,,,,2,,,79,92
79360,note_off,,,,,64,0,3,,,,,2,,,78,0
79360,note_off,,,,,64,0,1,,,,,0,,,78,0
79360,note_on,,,,,0,0,1,,,,,0,,,79,92
79388,note_off,,,,,92,0,4,,,,,3,,,69,0
79388,note_off,,,,,92,0,5,,,,,4,,,66,0
79392,note_on,,,,,4,0,5,,,,,4,,,62,92
79392,note_on,,,,,4,0,4,,,,,3,,,66,92
79424,note_off,,,,,64,0,1,,,,,0,,,79,0
79424,note_on,,,,,0,0,1,,,,,0,,,81,92
79424,note_off,,,,,320,0,6,,,,,5,,,62,0
79424,note_on,,,,,0,0,3,,,,,2,,,81,92
79424,note_off,,,,,64,0,3,,,,,2,,,79,0
79424,note_off,,,,,0,0,6,,,,,5,,,72,0
79424,note_off,,,,,0,0,6,,,,,5,,,66,0
79484,note_off,,,,,60,0,3,,,,,2,,,81,0
79484,note_off,,,,,92,0,5,,,,,4,,,62,0
79484,note_off,,,,,92,0,4,,,,,3,,,66,0
79484,note_off,,,,,188,0,7,,,,,5,,,50,0
79484,note_off,,,,,188,0,8,,,,,6,,,50,0
79484,note_off,,,,,188,0,2,,,,,1,,,50,0
79484,note_off,,,,,60,0,1,,,,,0,,,81,0
79488,note_on,,,,,4,0,5,,,,,4,,,66,92
79488,note_on,,,,,4,0,4,,,,,3,,,69,92
79488,note_on,,,,,4,0,8,,,,,6,,,50,92
79488,note_on,,,,,4,0,3,,,,,2,,,81,92
79488,note_on,,,,,64,0,6,,,,,5,,,62,92
79488,note_on,,,,,4,0,1,,,,,0,,,81,92
79488,note_on,,,,,0,0,6,,,,,5,,,66,92
79488,note_on,,,,,0,0,6,,,,,5,,,72,92
79488,note_on,,,,,4,0,7,,,,,5,,,50,92
79488,note_on,,,,,4,0,2,,,,,1,,,50,92
79580,note_off,,,,,92,0,4,,,,,3,,,69,0
79580,note_off,,,,,92,0,5,,,,,4,,,66,0
79584,note_on,,,,,4,0,4,,,,,3,,,66,92
79584,note_on,,,,,4,0,5,,,,,4,,,62,92
79676,note_off,,,,,0,0,6,,,,,5,,,72,0
79676,note_off,,,,,92,0,5,,,,,4,,,62,0
79676,note_off,,,,,188,0,8,,,,,6,,,50,0
79676,note_off,,,,,188,0,2,,,,,1,,,50,0
79676,note_off,,,,,0,0,6,,,,,5,,,66,0
79676,note_off,,,,,188,0,7,,,,,5,,,50,0
79676,note_off,,,,,188,0,6,,,,,5,,,62,0
79676,note_off,,,,,188,0,1,,,,,0,,,81,0
79676,note_off,,,,,188,0,3,,,,,2,,,81,0
79676,note_off,,,,,92,0,4,,,,,3,,,66,0
79680,note_on,,,,,4,0,5,,,,,4,,,66,92
79680,note_on,,,,,0,0,6,,,,,5,,,69,92
79680,note_on,,,,,4,0,6,,,,,5,,,62,92
79680,note_on,,,,,4,0,2,,,,,1,,,50,92
79680,note_on,,,,,4,0,8,,,,,6,,,50,92
79680,note_on,,,,,4,0,7,,,,,5,,,50,92
79680,note_on,,,,,0,0,6,,,,,5,,,66,92
79680,note_on,,,,,4,0,4,,,,,3,,,69,92
79772,note_off,,,,,92,0,4,,,,,3,,,69,0
79772,note_off,,,,,92,0,5,,,,,4,,,66,0
79776,note_on,,,,,4,0,4,,,,,3,,,66,92
79776,note_on,,,,,4,0,5,,,,,4,,,62,92
79868,note_off,,,,,92,0,5,,,,,4,,,62,0
79868,note_off,,,,,188,0,2,,,,,1,,,50,0
79868,note_off,,,,,0,0,6,,,,,5,,,66,0
79868,note_off,,,,,188,0,6,,,,,5,,,62,0
79868,note_off,,,,,92,0,4,,,,,3,,,66,0
79868,note_off,,,,,0,0,6,,,,,5,,,69,0
79868,note_off,,,,,188,0,7,,,,,5,,,50,0
79868,note_off,,,,,188,0,8,,,,,6,,,50,0
79872,note_on,,,,,4,0,5,,,,,4,,,62,92
79872,note_on,,,,,4,0,7,,,,,5,,,55,92
79872,note_on,,,,,4,0,4,,,,,3,,,71,92
79872,note_on,,,,,0,0,6,,,,,5,,,71,92
79872,note_on,,,,,4,0,2,,,,,1,,,55,92
79872,note_on,,,,,196,0,1,,,,,0,,,72,92
79872,note_on,,,,,4,0,6,,,,,5,,,62,92
79872,note_on,,,,,0,0,6,,,,,5,,,67,92
79872,note_on,,,,,196,0,3,,,,,2,,,72,92
79872,note_on,,,,,4,0,8,,,,,6,,,55,92
79920,note_off,,,,,48,0,1,,,,,0,,,72,0
79920,note_on,,,,,0,0,1,,,,,0,,,71,92
79920,note_on,,,,,0,0,3,,,,,2,,,71,92
79920,note_off,,,,,48,0,3,,,,,2,,,72,0
79964,note_off,,,,,92,0,5,,,,,4,,,62,0
79964,note_off,,,,,92,0,4,,,,,3,,,71,0
79968,note_off,,,,,48,0,3,,,,,2,,,71,0
79968,note_off,,,,,48,0,1,,,,,0,,,71,0
79968,note_on,,,,,4,0,5,,,,,4,,,59,92
79968,note_on,,,,,0,0,3,,,,,2,,,69,92
79968,note_on,,,,,4,0,4,,,,,3,,,67,92
79968,note_on,,,,,0,0,1,,,,,0,,,69,92
80060,note_off,,,,,188,0,2,,,,,1,,,55,0
80060,note_off,,,,,188,0,8,,,,,6,,,55,0
80060,note_off,,,,,188,0,7,,,,,5,,,55,0
80060,note_off,,,,,92,0,5,,,,,4,,,59,0
80060,note_off,,,,,92,0,4,,,,,3,,,67,0
80064,note_on,,,,,4,0,5,,,,,4,,,62,92
80064,note_on,,,,,0,0,3,,,,,2,,,71,92
80064,note_off,,,,,96,0,3,,,,,2,,,69,0
80064,note_on,,,,,4,0,7,,,,,5,,,55,92
80064,note_on,,,,,4,0,8,,,,,6,,,55,92
80064,note_on,,,,,0,0,1,,,,,0,,,71,92
80064,note_off,,,,,96,0,1,,,,,0,,,69,0
80064,note_on,,,,,4,0,4,,,,,3,,,71,92
80064,note_on,,,,,4,0,2,,,,,1,,,55,92
80156,note_off,,,,,92,0,5,,,,,4,,,62,0
80156,note_off,,,,,92,0,4,,,,,3,,,71,0
80160,note_on,,,,,4,0,5,,,,,4,,,59,92
80160,note_on,,,,,4,0,4,,,,,3,,,67,92
80192,note_off,,,,,0,0,6,,,,,5,,,67,0
80192,note_off,,,,,320,0,6,,,,,5,,,62,0
80192,note_off,,,,,0,0,6,,,,,5,,,71,0
80252,note_off,,,,,188,0,2,,,,,1,,,55,0
80252,note_off,,,,,188,0,3,,,,,2,,,71,0
80252,note_off,,,,,188,0,1,,,,,0,,,71,0
80252,note_off,,,,,92,0,4,,,,,3,,,67,0
80252,note_off,,,,,188,0,7,,,,,5,,,55,0
80252,note_off,,,,,92,0,5,,,,,4,,,59,0
80252,note_off,,,,,188,0,8,,,,,6,,,55,0
80256,note_on,,,,,4,0,2,,,,,1,,,55,92
80256,note_on,,,,,4,0,3,,,,,2,,,72,92
80256,note_on,,,,,4,0,7,,,,,5,,,55,92
80256,note_on,,,,,4,0,8,,,,,6,,,55,92
80256,note_on,,,,,4,0,5,,,,,4,,,62,92
80256,note_on,,,,,0,0,6,,,,,5,,,71,92
80256,note_on,,,,,0,0,6,,,,,5,,,67,92
80256,note_on,,,,,4,0,1,,,,,0,,,72,92
80256,note_on,,,,,64,0,6,,,,,5,,,62,92
80256,note_on,,,,,4,0,4,,,,,3,,,71,92
80304,note_on,,,,,0,0,3,,,,,2,,,71,92
80304,note_off,,,,,48,0,3,,,,,2,,,72,0
80304,note_on,,,,,0,0,1,,,,,0,,,71,92
80304,note_off,,,,,48,0,1,,,,,0,,,72,0
80348,note_off,,,,,92,0,4,,,,,3,,,71,0
80348,note_off,,,,,92,0,5,,,,,4,,,62,0
80352,note_on,,,,,4,0,5,,,,,4,,,59,92
80352,note_off,,,,,48,0,1,,,,,0,,,71,0
80352,note_on,,,,,0,0,1,,,,,0,,,69,92
80352,note_off,,,,,48,0,3,,,,,2,,,71,0
80352,note_on,,,,,0,0,3,,,,,2,,,69,92
80352,note_on,,,,,4,0,4,,,,,3,,,67,92
80444,note_off,,,,,188,0,7,,,,,5,,,55,0
80444,note_off,,,,,92,0,5,,,,,4,,,59,0
80444,note_off,,,,,92,0,4,,,,,3,,,67,0
80444,note_off,,,,,188,0,2,,,,,1,,,55,0
80444,note_off,,,,,188,0,8,,,,,6,,,55,0
80448,note_on,,,,,0,0,3,,,,,2,,,71,92
80448,note_on,,,,,4,0,7,,,,,5,,,55,92
80448,note_off,,,,,96,0,3,,,,,2,,,69,0
80448,note_on,,,,,4,0,2,,,,,1,,,55,92
80448,note_on,,,,,4,0,8,,,,,6,,,55,92
80448,note_off,,,,,96,0,1,,,,,0,,,69,0
80448,note_on,,,,,0,0,1,,,,,0,,,71,92
80448,note_on,,,,,4,0,5,,,,,4,,,62,92
80448,note_on,,,,,4,0,4,,,,,3,,,71,92
80540,note_off,,,,,92,0,4,,,,,3,,,71,0
80540,note_off,,,,,92,0,5,,,,,4,,,62,0
80544,note_on,,,,,4,0,4,,,,,3,,,67,92
80544,note_on,,,,,4,0,5,,,,,4,,,59,92
80576,note_off,,,,,320,0,6,,,,,5,,,62,0
80576,note_off,,,,,0,0,6,,,,,5,,,67,0
80576,note_off,,,,,0,0,6,,,,,5,,,71,0
80636,note_off,,,,,92,0,4,,,,,3,,,67,0
80636,note_off,,,,,188,0,1,,,,,0,,,71,0
80636,note_off,,,,,188,0,2,,,,,1,,,55,0
80636,note_off,,,,,188,0,8,,,,,6,,,55,0
80636,note_off,,,,,188,0,7,,,,,5,,,55,0
80636,note_off,,,,,92,0,5,,,,,4,,,59,0
80636,note_off,,,,,188,0,3,,,,,2,,,71,0
80640,note_on,,,,,4,0,1,,,,,0,,,71,92
80640,note_on,,,,,4,0,8,,,,,6,,,55,92
80640,note_on,,,,,0,0,6,,,,,5,,,71,92
80640,note_on,,,,,4,0,4,,,,,3,,,71,92
80640,note_on,,,,,4,0,7,,,,,5,,,55,92
80640,note_on,,,,,4,0,5,,,,,4,,,62,92
80640,note_on,,,,,0,0,6,,,,,5,,,67,92
80640,note_on,,,,,64,0,6,,,,,5,,,62,92
80640,note_on,,,,,4,0,3,,,,,2,,,71,92
80640,note_on,,,,,4,0,2,,,,,1,,,55,92
80704,note_on,,,,,0,0,3,,,,,2,,,72,92
80704,note_on,,,,,0,0,1,,,,,0,,,72,92
80704,note_off,,,,,64,0,3,,,,,2,,,71,0
80704,note_off,,,,,64,0,1,,,,,0,,,71,0
80732,note_off,,,,,92,0,4,,,,,3,,,71,0
80732,note_off,,,,,92,0,5,,,,,4,,,62,0
80736,note_on,,,,,4,0,4,,,,,3,,,67,92
80736,note_on,,,,,4,0,5,,,,,4,,,59,92
80768,note_on,,,,,0,0,3,,,,,2,,,74,92
80768,note_on,,,,,0,0,1,,,,,0,,,74,92
80768,note_off,,,,,64,0,3,,,,,2,,,72,0
80768,note_off,,,,,64,0,1,,,,,0,,,72,0
80828,note_off,,,,,92,0,5,,,,,4,,,59,0
80828,note_off,,,,,188,0,2,,,,,1,,,55,0
80828,note_off,,,,,92,0,4,,,,,3,,,67,0
80828,note_off,,,,,188,0,8,,,,,6,,,55,0
80828,note_off,,,,,188,0,7,,,,,5,,,55,0
80832,note_on,,,,,4,0,2,,,,,1,,,55,92
80832,note_on,,,,,4,0,4,,,,,3,,,71,92
80832,note_on,,,,,4,0,8,,,,,6,,,55,92
80832,note_on,,,,,0,0,3,,,,,2,,,76,92
80832,note_off,,,,,64,0,3,,,,,2,,,74,0
80832,note_on,,,,,4,0,7,,,,,5,,,55,92
80832,note_on,,,,,4,0,5,,,,,4,,,62,92
80832,note_off,,,,,64,0,1,,,,,0,,,74,0
80832,note_on,,,,,0,0,1,,,,,0,,,76,92
80896,note_on,,,,,0,0,1,,,,,0,,,78,92
80896,note_off,,,,,64,0,3,,,,,2,,,76,0
80896,note_off,,,,,64,0,1,,,,,0,,,76,0
80896,note_on,,,,,0,0,3,,,,,2,,,78,92
80924,note_off,,,,,92,0,5,,,,,4,,,62,0
80924,note_off,,,,,92,0,4,,,,,3,,,71,0
80928,note_on,,,,,4,0,4,,,,,3,,,67,92
80928,note_on,,,,,4,0,5,,,,,4,,,59,92
80960,note_on,,,,,0,0,1,,,,,0,,,79,92
80960,note_off,,,,,64,0,1,,,,,0,,,78,0
80960,note_off,,,,,0,0,6,,,,,5,,,71,0
80960,note_on,,,,,0,0,3,,,,,2,,,79,92
80960,note_off,,,,,64,0,3,,,,,2,,,78,0
80960,note_off,,,,,0,0,6,,,,,5,,,67,0
80960,note_off,,,,,320,0,6,,,,,5,,,62,0
81020,note_off,,,,,188,0,7,,,,,5,,,55,0
81020,note_off,,,,,188,0,8,,,,,6,,,55,0
81020,note_off,,,,,92,0,5,,,,,4,,,59,0
81020,note_off,,,,,60,0,1,,,,,0,,,79,0
81020,note_off,,,,,188,0,2,,,,,1,,,55,0
81020,note_off,,,,,92,0,4,,,,,3,,,67,0
81020,note_off,,,,,60,0,3,,,,,2,,,79,0
81024,note_on,,,,,4,0,5,,,,,4,,,62,92
81024,note_on,,,,,4,0,7,,,,,5,,,55,92
81024,note_on,,,,,4,0,4,,,,,3,,,71,92
81024,note_on,,,,,4,0,2,,,,,1,,,55,92
81024,note_on,,,,,0,0,6,,,,,5,,,67,92
81024,note_on,,,,,64,0,6,,,,,5,,,62,92
81024,note_on,,,,,4,0,1,,,,,0,,,79,92
81024,note_on,,,,,0,0,6,,,,,5,,,71,92
81024,note_on,,,,,4,0,8,,,,,6,,,55,92
81024,note_on,,,,,4,0,3,,,,,2,,,79,92
81116,note_off,,,,,92,0,4,,,,,3,,,71,0
81116,note_off,,,,,92,0,5,,,,,4,,,62,0
81120,note_on,,,,,4,0,4,,,,,3,,,67,92
81120,note_on,,,,,4,0,5,,,,,4,,,59,92
81212,note_off,,,,,0,0,6,,,,,5,,,67,0
81212,note_off,,,,,92,0,4,,,,,3,,,67,0
81212,note_off,,,,,188,0,2,,,,,1,,,55,0
81212,note_off,,,,,188,0,1,,,,,0,,,79,0
81212,note_off,,,,,188,0,3,,,,,2,,,79,0
81212,note_off,,,,,188,0,6,,,,,5,,,62,0
81212,note_off,,,,,188,0,8,,,,,6,,,55,0
81212,note_off,,,,,92,0,5,,,,,4,,,59,0
81212,note_off,,,,,0,0,6,,,,,5,,,71,0
81212,note_off,,,,,188,0,7,,,,,5,,,55,0
81216,note_on,,,,,4,0,6,,,,,5,,,59,92
81216,note_on,,,,,4,0,2,,,,,1,,,55,92
81216,note_on,,,,,0,0,6,,,,,5,,,62,92
81216,note_on,,,,,4,0,5,,,,,4,,,62,92
81216,note_on,,,,,0,0,6,,,,,5,,,67,92
81216,note_on,,,,,4,0,8,,,,,6,,,55,92
81216,note_on,,,,,4,0,4,,,,,3,,,71,92
81216,note_on,,,,,4,0,7,,,,,5,,,55,92
81308,note_off,,,,,92,0,4,,,,,3,,,71,0
81308,note_off,,,,,92,0,5,,,,,4,,,62,0
81312,note_on,,,,,4,0,4,,,,,3,,,67,92
81312,note_on,,,,,4,0,5,,,,,4,,,59,92
81404,note_off,,,,,188,0,7,,,,,5,,,55,0
81404,note_off,,,,,188,0,8,,,,,6,,,55,0
81404,note_off,,,,,0,0,6,,,,,5,,,62,0
81404,note_off,,,,,0,0,6,,,,,5,,,67,0
81404,note_off,,,,,92,0,5,,,,,4,,,59,0
81404,note_off,,,,,188,0,6,,,,,5,,,59,0
81404,note_off,,,,,92,0,4,,,,,3,,,67,0
81404,note_off,,,,,188,0,2,,,,,1,,,55,0
81408,note_on,,,,,0,0,6,,,,,5,,,69,92
81408,note_on,,,,,196,0,3,,,,,2,,,69,92
81408,note_on,,,,,196,0,1,,,,,0,,,69,92
81408,note_on,,,,,4,0,4,,,,,3,,,66,92
81408,note_on,,,,,4,0,2,,,,,1,,,50,92
81408,note_on,,,,,4,0,7,,,,,5,,,50,92
81408,note_on,,,,,4,0,5,,,,,4,,,62,92
81408,note_on,,,,,4,0,6,,,,,5,,,62,92
81408,note_on,,,,,0,0,6,,,,,5,,,66,92
81408,note_on,,,,,4,0,8,,,,,6,,,50,92
81472,note_off,,,,,64,0,4,,,,,3,,,66,0
81472,note_on,,,,,0,0,4,,,,,3,,,67,92
81472,note_on,,,,,0,0,1,,,,,0,,,71,92
81472,note_off,,,,,64,0,1,,,,,0,,,69,0
81472,note_on,,,,,0,0,3,,,,,2,,,71,92
81472,note_off,,,,,64,0,3,,,,,2,,,69,0
81500,note_off,,,,,92,0,7,,,,,5,,,50,0
81500,note_off,,,,,92,0,2,,,,,1,,,50,0
81500,note_off,,,,,92,0,8,,,,,6,,,50,0
81500,note_off,,,,,92,0,5,,,,,4,,,62,0
81504,note_on,,,,,4,0,7,,,,,5,,,62,92
81504,note_on,,,,,4,0,2,,,,,1,,,38,92
81504,note_on,,,,,4,0,5,,,,,4,,,50,92
81504,note_on,,,,,4,0,8,,,,,6,,,62,92
81536,note_on,,,,,0,0,3,,,,,2,,,72,92
81536,note_on,,,,,0,0,4,,,,,3,,,69,92
81536,note_off,,,,,64,0,3,,,,,2,,,71,0
81536,note_off,,,,,64,0,4,,,,,3,,,67,0
81536,note_off,,,,,64,0,1,,,,,0,,,71,0
81536,note_on,,,,,0,0,1,,,,,0,,,72,92
81596,note_off,,,,,92,0,5,,,,,4,,,50,0
81596,note_off,,,,,92,0,7,,,,,5,,,62,0
81596,note_off,,,,,92,0,8,,,,,6,,,62,0
81596,note_off,,,,,92,0,2,,,,,1,,,38,0
81596,note_off,,,,,60,0,1,,,,,0,,,72,0
81596,note_off,,,,,60,0,4,,,,,3,,,69,0
81596,note_off,,,,,60,0,3,,,,,2,,,72,0
81600,note_on,,,,,4,0,3,,,,,2,,,72,92
81600,note_on,,,,,4,0,7,,,,,5,,,50,92
81600,note_on,,,,,4,0,2,,,,,1,,,50,92
81600,note_on,,,,,4,0,5,,,,,4,,,62,92
81600,note_on,,,,,4,0,1,,,,,0,,,72,92
81600,note_on,,,,,4,0,8,,,,,6,,,50,92
81600,note_on,,,,,4,0,4,,,,,3,,,69,92
81692,note_off,,,,,92,0,8,,,,,6,,,50,0
81692,note_off,,,,,92,0,2,,,,,1,,,50,0
81692,note_off,,,,,92,0,5,,,,,4,,,62,0
81692,note_off,,,,,92,0,7,,,,,5,,,50,0
81696,note_on,,,,,4,0,2,,,,,1,,,38,92
81696,note_on,,,,,4,0,8,,,,,6,,,62,92
81696,note_on,,,,,4,0,5,,,,,4,,,50,92
81696,note_on,,,,,4,0,7,,,,,5,,,62,92
81728,note_off,,,,,320,0,6,,,,,5,,,62,0
81728,note_off,,,,,0,0,6,,,,,5,,,69,0
81728,note_off,,,,,0,0,6,,,,,5,,,66,0
81788,note_off,,,,,92,0,7,,,,,5,,,62,0
81788,note_off,,,,,188,0,1,,,,,0,,,72,0
81788,note_off,,,,,188,0,4,,,,,3,,,69,0
81788,note_off,,,,,92,0,5,,,,,4,,,50,0
81788,note_off,,,,,92,0,2,,,,,1,,,38,0
81788,note_off,,,,,188,0,3,,,,,2,,,72,0
81788,note_off,,,,,92,0,8,,,,,6,,,62,0
81792,note_on,,,,,4,0,4,,,,,3,,,66,92
81792,note_on,,,,,64,0,6,,,,,5,,,62,92
81792,note_on,,,,,0,0,6,,,,,5,,,69,92
81792,note_on,,,,,4,0,3,,,,,2,,,69,92
81792,note_on,,,,,4,0,1,,,,,0,,,69,92
81792,note_on,,,,,0,0,6,,,,,5,,,66,92
81792,note_on,,,,,4,0,8,,,,,6,,,50,92
81792,note_on,,,,,4,0,5,,,,,4,,,62,92
81792,note_on,,,,,4,0,7,,,,,5,,,50,92
81792,note_on,,,,,4,0,2,,,,,1,,,50,92
81856,note_on,,,,,0,0,1,,,,,0,,,71,92
81856,note_off,,,,,64,0,1,,,,,0,,,69,0
81856,note_off,,,,,64,0,4,,,,,3,,,66,0
81856,note_on,,,,,0,0,4,,,,,3,,,67,92
81856,note_on,,,,,0,0,3,,,,,2,,,71,92
81856,note_off,,,,,64,0,3,,,,,2,,,69,0
81884,note_off,,,,,92,0,7,,,,,5,,,50,0
81884,note_off,,,,,92,0,8,,,,,6,,,50,0
81884,note_off,,,,,92,0,2,,,,,1,,,50,0
81884,note_off,,,,,92,0,5,,,,,4,,,62,0
81888,note_on,,,,,4,0,2,,,,,1,,,38,92
81888,note_on,,,,,4,0,7,,,,,5,,,62,92
81888,note_on,,,,,4,0,5,,,,,4,,,50,92
81888,note_on,,,,,4,0,8,,,,,6,,,62,92
81920,note_off,,,,,64,0,1,,,,,0,,,71,0
81920,note_off,,,,,64,0,3,,,,,2,,,71,0
81920,note_on,,,,,0,0,4,,,,,3,,,69,92
81920,note_on,,,,,0,0,3,,,,,2,,,72,92
81920,note_on,,,,,0,0,1,,,,,0,,,72,92
81920,note_off,,,,,64,0,4,,,,,3,,,67,0
81980,note_off,,,,,92,0,5,,,,,4,,,50,0
81980,note_off,,,,,92,0,8,,,,,6,,,62,0
81980,note_off,,,,,60,0,1,,,,,0,,,72,0
81980,note_off,,,,,60,0,3,,,,,2,,,72,0
81980,note_off,,,,,92,0,7,,,,,5,,,62,0
81980,note_off,,,,,92,0,2,,,,,1,,,38,0
81980,note_off,,,,,60,0,4,,,,,3,,,69,0
81984,note_on,,,,,4,0,8,,,,,6,,,50,92
81984,note_on,,,,,4,0,7,,,,,5,,,50,92
81984,note_on,,,,,4,0,2,,,,,1,,,50,92
81984,note_on,,,,,4,0,5,,,,,4,,,62,92
81984,note_on,,,,,4,0,4,,,,,3,,,69,92
81984,note_on,,,,,4,0,3,,,,,2,,,72,92
81984,note_on,,,,,4,0,1,,,,,0,,,72,92
82076,note_off,,,,,92,0,5,,,,,4,,,62,0
82076,note_off,,,,,92,0,2,,,,,1,,,50,0
82076,note_off,,,,,92,0,8,,,,,6,,,50,0
82076,note_off,,,,,92,0,7,,,,,5,,,50,0
82080,note_on,,,,,4,0,8,,,,,6,,,62,92
82080,note_on,,,,,4,0,5,,,,,4,,,50,92
82080,note_on,,,,,4,0,2,,,,,1,,,38,92
82080,note_on,,,,,4,0,7,,,,,5,,,62,92
82112,note_off,,,,,320,0,6,,,,,5,,,62,0
82112,note_off,,,,,0,0,6,,,,,5,,,66,0
82112,note_off,,,,,0,0,6,,,,,5,,,69,0
82172,note_off,,,,,92,0,5,,,,,4,,,50,0
82172,note_off,,,,,92,0,2,,,,,1,,,38,0
82172,note_off,,,,,188,0,4,,,,,3,,,69,0
82172,note_off,,,,,92,0,8,,,,,6,,,62,0
82172,note_off,,,,,92,0,7,,,,,5,,,62,0
82172,note_off,,,,,188,0,3,,,,,2,,,72,0
82172,note_off,,,,,188,0,1,,,,,0,,,72,0
82176,note_on,,,,,4,0,8,,,,,6,,,50,92
82176,note_on,,,,,4,0,3,,,,,2,,,69,92
82176,note_on,,,,,64,0,6,,,,,5,,,62,92
82176,note_on,,,,,4,0,4,,,,,3,,,66,92
82176,note_on,,,,,4,0,5,,,,,4,,,62,92
82176,note_on,,,,,0,0,6,,,,,5,,,66,92
82176,note_on,,,,,4,0,7,,,,,5,,,50,92
82176,note_on,,,,,4,0,2,,,,,1,,,50,92
82176,note_on,,,,,0,0,6,,,,,5,,,69,92
82176,note_on,,,,,4,0,1,,,,,0,,,69,92
82240,note_off,,,,,64,0,1,,,,,0,,,69,0
82240,note_on,,,,,0,0,1,,,,,0,,,71,92
82240,note_on,,,,,0,0,4,,,,,3,,,67,92
82240,note_off,,,,,64,0,4,,,,,3,,,66,0
82240,note_on,,,,,0,0,3,,,,,2,,,71,92
82240,note_off,,,,,64,0,3,,,,,2,,,69,0
82268,note_off,,,,,92,0,2,,,,,1,,,50,0
82268,note_off,,,,,92,0,7,,,,,5,,,50,0
82268,note_off,,,,,92,0,8,,,,,6,,,50,0
82268,note_off,,,,,92,0,5,,,,,4,,,62,0
82272,note_on,,,,,4,0,5,,,,,4,,,50,92
82272,note_on,,,,,4,0,2,,,,,1,,,38,92
82272,note_on,,,,,4,0,7,,,,,5,,,62,92
82272,note_on,,,,,4,0,8,,,,,6,,,62,92
82304,note_on,,,,,0,0,3,,,,,2,,,72,92
82304,note_off,,,,,64,0,4,,,,,3,,,67,0
82304,note_on,,,,,0,0,4,,,,,3,,,69,92
82304,note_on,,,,,0,0,1,,,,,0,,,72,92
82304,note_off,,,,,64,0,1,,,,,0,,,71,0
82304,note_off,,,,,64,0,3,,,,,2,,,71,0
82364,note_off,,,,,92,0,5,,,,,4,,,50,0
82364,note_off,,,,,92,0,8,,,,,6,,,62,0
82364,note_off,,,,,60,0,1,,,,,0,,,72,0
82364,note_off,,,,,92,0,2,,,,,1,,,38,0
82364,note_off,,,,,92,0,7,,,,,5,,,62,0
82364,note_off,,,,,60,0,3,,,,,2,,,72,0
82364,note_off,,,,,60,0,4,,,,,3,,,69,0
82368,note_on,,,,,4,0,3,,,,,2,,,72,92
82368,note_on,,,,,4,0,1,,,,,0,,,72,92
82368,note_on,,,,,4,0,5,,,,,4,,,62,92
82368,note_on,,,,,4,0,4,,,,,3,,,69,92
82368,note_on,,,,,4,0,8,,,,,6,,,50,92
82368,note_on,,,,,4,0,7,,,,,5,,,50,92
82368,note_on,,,,,4,0,2,,,,,1,,,50,92
82460,note_off,,,,,92,0,8,,,,,6,,,50,0
82460,note_off,,,,,92,0,5,,,,,4,,,62,0
82460,note_off,,,,,92,0,2,,,,,1,,,50,0
82460,note_off,,,,,92,0,7,,,,,5,,,50,0
82464,note_on,,,,,4,0,7,,,,,5,,,62,92
82464,note_on,,,,,4,0,2,,,,,1,,,38,92
82464,note_on,,,,,4,0,8,,,,,6,,,62,92
82464,note_on,,,,,4,0,5,,,,,4,,,50,92
82496,note_off,,,,,320,0,6,,,,,5,,,62,0
82496,note_off,,,,,0,0,6,,,,,5,,,66,0
82496,note_off,,,,,0,0,6,,,,,5,,,69,0
82556,note_off,,,,,188,0,4,,,,,3,,,69,0
82556,note_off,,,,,188,0,1,,,,,0,,,72,0
82556,note_off,,,,,92,0,7,,,,,5,,,62,0
82556,note_off,,,,,188,0,3,,,,,2,,,72,0
82556,note_off,,,,,92,0,5,,,,,4,,,50,0
82556,note_off,,,,,92,0,2,,,,,1,,,38,0
82556,note_off,,,,,92,0,8,,,,,6,,,62,0
82560,note_on,,,,,4,0,3,,,,,2,,,78,92
82560,note_on,,,,,4,0,8,,,,,6,,,50,92
82560,note_on,,,,,4,0,2,,,,,1,,,50,92
82560,note_on,,,,,0,0,6,,,,,5,,,66,92
82560,note_on,,,,,64,0,6,,,,,5,,,62,92
82560,note_on,,,,,4,0,5,,,,,4,,,62,92
82560,note_on,,,,,4,0,7,,,,,5,,,50,92
82560,note_on,,,,,0,0,6,,,,,5,,,69,92
82560,note_on,,,,,4,0,4,,,,,3,,,74,92
82560,note_on,,,,,4,0,1,,,,,0,,,78,92
82624,note_on,,,,,0,0,3,,,,,2,,,79,92
82624,note_off,,,,,64,0,3,,,,,2,,,78,0
82624,note_on,,,,,0,0,4,,,,,3,,,76,92
82624,note_off,,,,,64,0,1,,,,,0,,,78,0
82624,note_off,,,,,64,0,4,,,,,3,,,74,0
82624,note_on,,,,,0,0,1,,,,,0,,,79,92
82652,note_off,,,,,92,0,2,,,,,1,,,50,0
82652,note_off,,,,,92,0,8,,,,,6,,,50,0
82652,note_off,,,,,92,0,7,,,,,5,,,50,0
82652,note_off,,,,,92,0,5,,,,,4,,,62,0
82656,note_on,,,,,4,0,8,,,,,6,,,62,92
82656,note_on,,,,,4,0,7,,,,,5,,,62,92
82656,note_on,,,,,4,0,5,,,,,4,,,50,92
82656,note_on,,,,,4,0,2,,,,,1,,,38,92
82688,note_on,,,,,0,0,3,,,,,2,,,81,92
82688,note_off,,,,,64,0,1,,,,,0,,,79,0
82688,note_on,,,,,0,0,4,,,,,3,,,78,92
82688,note_off,,,,,64,0,4,,,,,3,,,76,0
82688,note_off,,,,,64,0,3,,,,,2,,,79,0
82688,note_on,,,,,0,0,1,,,,,0,,,81,92
82748,note_off,,,,,60,0,3,,,,,2,,,81,0
82748,note_off,,,,,188,0,6,,,,,5,,,62,0
82748,note_off,,,,,0,0,6,,,,,5,,,69,0
82748,note_off,,,,,92,0,7,,,,,5,,,62,0
82748,note_off,,,,,92,0,5,,,,,4,,,50,0
82748,note_off,,,,,92,0,8,,,,,6,,,62,0
82748,note_off,,,,,0,0,6,,,,,5,,,66,0
82748,note_off,,,,,92,0,2,,,,,1,,,38,0
82748,note_off,,,,,60,0,4,,,,,3,,,78,0
82748,note_off,,,,,60,0,1,,,,,0,,,81,0
82752,note_on,,,,,4,0,1,,,,,0,,,81,92
82752,note_on,,,,,4,0,6,,,,,5,,,62,92
82752,note_on,,,,,0,0,6,,,,,5,,,66,92
82752,note_on,,,,,0,0,6,,,,,5,,,72,92
82752,note_on,,,,,4,0,8,,,,,6,,,50,92
82752,note_on,,,,,4,0,4,,,,,3,,,78,92
82752,note_on,,,,,4,0,3,,,,,2,,,81,92
82752,note_on,,,,,4,0,7,,,,,5,,,50,92
82752,note_on,,,,,4,0,2,,,,,1,,,50,92
82752,note_on,,,,,4,0,5,,,,,4,,,62,92
82844,note_off,,,,,92,0,2,,,,,1,,,50,0
82844,note_off,,,,,92,0,8,,,,,6,,,50,0
82844,note_off,,,,,92,0,7,,,,,5,,,50,0
82844,note_off,,,,,92,0,5,,,,,4,,,62,0
82848,note_on,,,,,4,0,8,,,,,6,,,62,92
82848,note_on,,,,,4,0,7,,,,,5,,,62,92
82848,note_on,,,,,4,0,5,,,,,4,,,50,92
82848,note_on,,,,,4,0,2,,,,,1,,,38,92
82940,note_off,,,,,188,0,6,,,,,5,,,62,0
82940,note_off,,,,,92,0,2,,,,,1,,,38,0
82940,note_off,,,,,188,0,4,,,,,3,,,78,0
82940,note_off,,,,,0,0,6,,,,,5,,,72,0
82940,note_off,,,,,92,0,5,,,,,4,,,50,0
82940,note_off,,,,,92,0,8,,,,,6,,,62,0
82940,note_off,,,,,0,0,6,,,,,5,,,66,0
82940,note_off,,,,,188,0,1,,,,,0,,,81,0
82940,note_off,,,,,188,0,3,,,,,2,,,81,0
82940,note_off,,,,,92,0,7,,,,,5,,,62,0
82944,note_on,,,,,4,0,7,,,,,5,,,55,92
82944,note_on,,,,,4,0,1,,,,,0,,,83,92
82944,note_on,,,,,4,0,3,,,,,2,,,83,92
82944,note_on,,,,,4,0,4,,,,,3,,,79,92
82944,note_on,,,,,4,0,2,,,,,1,,,55,92
82944,note_on,,,,,4,0,5,,,,,4,,,62,92
82944,note_on,,,,,0,0,6,,,,,5,,,71,92
82944,note_on,,,,,0,0,6,,,,,5,,,67,92
82944,note_on,,,,,4,0,6,,,,,5,,,62,92
82944,note_on,,,,,4,0,8,,,,,6,,,55,92
83132,note_off,,,,,188,0,3,,,,,2,,,83,0
83132,note_off,,,,,188,0,1,,,,,0,,,83,0
83132,note_off,,,,,0,0,6,,,,,5,,,67,0
83132,note_off,,,,,188,0,4,,,,,3,,,79,0
83132,note_off,,,,,0,0,6,,,,,5,,,71,0
83132,note_off,,,,,188,0,6,,,,,5,,,62,0
83132,note_off,,,,,188,0,7,,,,,5,,,55,0
83132,note_off,,,,,188,0,5,,,,,4,,,62,0
83132,note_off,,,,,188,0,2,,,,,1,,,55,0
83132,note_off,,,,,188,0,8,,,,,6,,,55,0
83136,note_on,,,,,4,0,8,,,,,6,,,43,92
83136,note_on,,,,,4,0,4,,,,,3,,,76,92
83136,note_on,,,,,0,0,6,,,,,5,,,62,92
83136,note_on,,,,,4,0,7,,,,,5,,,43,92
83136,note_on,,,,,4,0,5,,,,,4,,,59,92
83136,note_on,,,,,4,0,3,,,,,2,,,79,92
83136,note_on,,,,,0,0,6,,,,,5,,,67,92
83136,note_on,,,,,4,0,6,,,,,5,,,59,92
83136,note_on,,,,,4,0,1,,,,,0,,,79,92
83136,note_on,,,,,4,0,2,,,,,1,,,43,92
83324,note_off,,,,,0,0,6,,,,,5,,,62,0
83324,note_off,,,,,188,0,8,,,,,6,,,43,0
83324,note_off,,,,,188,0,6,,,,,5,,,59,0
83324,note_off,,,,,188,0,7,,,,,5,,,43,0
83324,note_off,,,,,188,0,3,,,,,2,,,79,0
83324,note_off,,,,,188,0,5,,,,,4,,,59,0
83324,note_off,,,,,188,0,4,,,,,3,,,76,0
83324,note_off,,,,,0,0,6,,,,,5,,,67,0
83324,note_off,,,,,188,0,1,,,,,0,,,79,0
83324,note_off,,,,,188,0,2,,,,,1,,,43,0
83520,note_on,,,,,196,0,2,,,,,1,,,55,108
83520,note_on,,,,,196,0,8,,,,,6,,,55,45
83520,note_on,,,,,196,0,6,,,,,5,,,62,60
83520,note_on,,,,,0,0,6,,,,,5,,,67,60
83520,note_on,,,,,0,0,6,,,,,5,,,71,60
83520,note_on,,,,,196,0,1,,,,,0,,,74,108
83520,note_on,,,,,196,0,7,,,,,5,,,55,60
83708,note_off,,,,,188,0,8,,,,,6,,,55,0
83708,note_off,,,,,188,0,7,,,,,5,,,55,0
83708,note_off,,,,,0,0,6,,,,,5,,,67,0
83708,note_off,,,,,0,0,6,,,,,5,,,71,0
83708,note_off,,,,,188,0,6,,,,,5,,,62,0
83708,note_off,,,,,188,0,1,,,,,0,,,74,0
83708,note_off,,,,,188,0,2,,,,,1,,,55,0
83712,note_on,,,,,4,0,6,,,,,5,,,62,60
83712,note_on,,,,,4,0,2,,,,,1,,,55,108
83712,note_on,,,,,4,0,7,,,,,5,,,55,60
83712,note_on,,,,,4,0,1,,,,,0,,,74,108
83712,note_on,,,,,4,0,8,,,,,6,,,55,45
83712,note_on,,,,,0,0,6,,,,,5,,,67,60
83712,note_on,,,,,0,0,6,,,,,5,,,71,60
83804,note_off,,,,,92,0,2,,,,,1,,,55,0
83808,note_on,,,,,4,0,2,,,,,1,,,57,108
83900,note_off,,,,,92,0,2,,,,,1,,,57,0
83904,note_on,,,,,4,0,2,,,,,1,,,59,108
83996,note_off,,,,,92,0,2,,,,,1,,,59,0
84000,note_on,,,,,4,0,2,,,,,1,,,60,108
84032,note_off,,,,,320,0,6,,,,,5,,,62,0
84032,note_off,,,,,320,0,7,,,,,5,,,55,0
84032,note_off,,,,,0,0,6,,,,,5,,,67,0
84032,note_off,,,,,320,0,8,,,,,6,,,55,0
84032,note_off,,,,,0,0,6,,,,,5,,,71,0
84092,note_off,,,,,92,0,2,,,,,1,,,60,0
84096,note_on,,,,,4,0,2,,,,,1,,,62,108
84188,note_off,,,,,92,0,2,,,,,1,,,62,0
84192,note_on,,,,,4,0,2,,,,,1,,,60,108
84224,note_off,,,,,512,0,1,,,,,0,,,74,0
84284,note_off,,,,,92,0,2,,,,,1,,,60,0
84288,note_on,,,,,64,0,1,,,,,0,,,79,108
84288,note_on,,,,,256,0,7,,,,,5,,,55,60
84288,note_on,,,,,256,0,6,,,,,5,,,62,60
84288,note_on,,,,,0,0,6,,,,,5,,,67,60
84288,note_on,,,,,0,0,6,,,,,5,,,71,60
84288,note_on,,,,,256,0,8,,,,,6,,,55,45
84288,note_on,,,,,4,0,2,,,,,1,,,59,108
84380,note_off,,,,,92,0,2,,,,,1,,,59,0
84380,note_off,,,,,92,0,1,,,,,0,,,79,0
84384,note_on,,,,,4,0,1,,,,,0,,,83,108
84384,note_on,,,,,4,0,2,,,,,1,,,57,108
84476,note_off,,,,,188,0,7,,,,,5,,,55,0
84476,note_off,,,,,92,0,1,,,,,0,,,83,0
84476,note_off,,,,,0,0,6,,,,,5,,,67,0
84476,note_off,,,,,92,0,2,,,,,1,,,57,0
84476,note_off,,,,,0,0,6,,,,,5,,,71,0
84476,note_off,,,,,188,0,6,,,,,5,,,62,0
84476,note_off,,,,,188,0,8,,,,,6,,,55,0
84480,note_on,,,,,4,0,7,,,,,5,,,55,60
84480,note_on,,,,,4,0,2,,,,,1,,,55,108
84480,note_on,,,,,0,0,6,,,,,5,,,71,60
84480,note_on,,,,,0,0,6,,,,,5,,,67,60
84480,note_on,,,,,4,0,8,,,,,6,,,55,45
84480,note_on,,,,,4,0,1,,,,,0,,,74,108
84480,note_on,,,,,4,0,6,,,,,5,,,62,60
84572,note_off,,,,,92,0,2,,,,,1,,,55,0
84576,note_on,,,,,4,0,2,,,,,1,,,57,108
84668,note_off,,,,,92,0,2,,,,,1,,,57,0
84672,note_on,,,,,4,0,2,,,,,1,,,59,108
84764,note_off,,,,,92,0,2,,,,,1,,,59,0
84768,note_on,,,,,4,0,2,,,,,1,,,60,108
84800,note_off,,,,,320,0,7,,,,,5,,,55,0
84800,note_off,,,,,0,0,6,,,,,5,,,71,0
84800,note_off,,,,,0,0,6,,,,,5,,,67,0
84800,note_off,,,,,320,0,6,,,,,5,,,62,0
84800,note_off,,,,,320,0,8,,,,,6,,,55,0
84860,note_off,,,,,92,0,2,,,,,1,,,60,0
84864,note_on,,,,,4,0,2,,,,,1,,,62,108
84956,note_off,,,,,92,0,2,,,,,1,,,62,0
84960,note_on,,,,,4,0,2,,,,,1,,,60,108
84992,note_off,,,,,512,0,1,,,,,0,,,74,0
85052,note_off,,,,,92,0,2,,,,,1,,,60,0
85056,note_on,,,,,256,0,8,,,,,6,,,55,45
85056,note_on,,,,,4,0,2,,,,,1,,,59,108
85056,note_on,,,,,256,0,7,,,,,5,,,55,60
85056,note_on,,,,,0,0,6,,,,,5,,,71,60
85056,note_on,,,,,0,0,6,,,,,5,,,67,60
85056,note_on,,,,,256,0,6,,,,,5,,,62,60
85056,note_on,,,,,64,0,1,,,,,0,,,79,108
85148,note_off,,,,,92,0,1,,,,,0,,,79,0
85148,note_off,,,,,92,0,2,,,,,1,,,59,0
85152,note_on,,,,,4,0,2,,,,,1,,,57,108
85152,note_on,,,,,4,0,1,,,,,0,,,83,108
85244,note_off,,,,,188,0,6,,,,,5,,,62,0
85244,note_off,,,,,92,0,1,,,,,0,,,83,0
85244,note_off,,,,,188,0,7,,,,,5,,,55,0
85244,note_off,,,,,188,0,8,,,,,6,,,55,0
85244,note_off,,,,,92,0,2,,,,,1,,,57,0
85244,note_off,,,,,0,0,6,,,,,5,,,67,0
85244,note_off,,,,,0,0,6,,,,,5,,,71,0
85248,note_on,,,,,4,0,8,,,,,6,,,54,45
85248,note_on,,,,,4,0,6,,,,,5,,,62,60
85248,note_on,,,,,4,0,2,,,,,1,,,54,108
85248,note_on,,,,,0,0,6,,,,,5,,,69,60
85248,note_on,,,,,4,0,7,,,,,5,,,54,60
85248,note_on,,,,,4,0,1,,,,,0,,,72,108
85248,note_on,,,,,0,0,6,,,,,5,,,72,60
85340,note_off,,,,,92,0,2,,,,,1,,,54,0
85344,note_on,,,,,4,0,2,,,,,1,,,55,108
85436,note_off,,,,,92,0,2,,,,,1,,,55,0
85440,note_on,,,,,4,0,2,,,,,1,,,57,108
85532,note_off,,,,,92,0,2,,,,,1,,,57,0
85536,note_on,,,,,4,0,2,,,,,1,,,59,108
85568,note_off,,,,,320,0,7,,,,,5,,,54,0
85568,note_off,,,,,320,0,8,,,,,6,,,54,0
85568,note_off,,,,,320,0,6,,,,,5,,,62,0
85568,note_off,,,,,0,0,6,,,,,5,,,69,0
85568,note_off,,,,,0,0,6,,,,,5,,,72,0
85628,note_off,,,,,92,0,2,,,,,1,,,59,0
85632,note_on,,,,,4,0,2,,,,,1,,,60,108
85724,note_off,,,,,92,0,2,,,,,1,,,60,0
85728,note_on,,,,,4,0,2,,,,,1,,,59,108
85760,note_off,,,,,512,0,1,,,,,0,,,72,0
85820,note_off,,,,,92,0,2,,,,,1,,,59,0
85824,note_on,,,,,0,0,6,,,,,5,,,69,60
85824,note_on,,,,,256,0,6,,,,,5,,,62,60
85824,note_on,,,,,256,0,7,,,,,5,,,54,60
85824,note_on,,,,,64,0,1,,,,,0,,,78,108
85824,note_on,,,,,0,0,6,,,,,5,,,72,60
85824,note_on,,,,,4,0,2,,,,,1,,,57,108
85824,note_on,,,,,256,0,8,,,,,6,,,54,45
85916,note_off,,,,,92,0,1,,,,,0,,,78,0
85916,note_off,,,,,92,0,2,,,,,1,,,57,0
85920,note_on,,,,,4,0,2,,,,,1,,,55,108
85920,note_on,,,,,4,0,1,,,,,0,,,81,108
86012,note_off,,,,,188,0,7,,,,,5,,,54,0
86012,note_off,,,,,92,0,2,,,,,1,,,55,0
86012,note_off,,,,,92,0,1,,,,,0,,,81,0
86012,note_off,,,,,0,0,6,,,,,5,,,69,0
86012,note_off,,,,,188,0,6,,,,,5,,,62,0
86012,note_off,,,,,0,0,6,,,,,5,,,72,0
86012,note_off,,,,,188,0,8,,,,,6,,,54,0
86016,note_on,,,,,4,0,2,,,,,1,,,54,108
86016,note_on,,,,,4,0,8,,,,,6,,,54,45
86016,note_on,,,,,4,0,1,,,,,0,,,72,108
86016,note_on,,,,,4,0,6,,,,,5,,,62,60
86016,note_on,,,,,0,0,6,,,,,5,,,69,60
86016,note_on,,,,,0,0,6,,,,,5,,,72,60
86016,note_on,,,,,4,0,7,,,,,5,,,54,60
86108,note_off,,,,,92,0,2,,,,,1,,,54,0
86112,note_on,,,,,4,0,2,,,,,1,,,55,108
86204,note_off,,,,,92,0,2,,,,,1,,,55,0
86208,note_on,,,,,4,0,2,,,,,1,,,57,108
86300,note_off,,,,,92,0,2,,,,,1,,,57,0
86304,note_on,,,,,4,0,2,,,,,1,,,59,108
86336,note_off,,,,,320,0,7,,,,,5,,,54,0
86336,note_off,,,,,0,0,6,,,,,5,,,72,0
86336,note_off,,,,,0,0,6,,,,,5,,,69,0
86336,note_off,,,,,320,0,8,,,,,6,,,54,0
86336,note_off,,,,,320,0,6,,,,,5,,,62,0
86396,note_off,,,,,92,0,2,,,,,1,,,59,0
86400,note_on,,,,,4,0,2,,,,,1,,,60,108
86492,note_off,,,,,92,0,2,,,,,1,,,60,0
86496,note_on,,,,,4,0,2,,,,,1,,,57,108
86528,note_off,,,,,512,0,1,,,,,0,,,72,0
86588,note_off,,,,,92,0,2,,,,,1,,,57,0
86592,note_on,,,,,256,0,8,,,,,6,,,50,45
86592,note_on,,,,,0,0,6,,,,,5,,,69,60
86592,note_on,,,,,4,0,2,,,,,1,,,55,108
86592,note_on,,,,,256,0,6,,,,,5,,,62,60
86592,note_on,,,,,0,0,6,,,,,5,,,66,60
86592,note_on,,,,,256,0,7,,,,,5,,,50,60
86592,note_on,,,,,64,0,1,,,,,0,,,78,108
86684,note_off,,,,,92,0,2,,,,,1,,,55,0
86684,note_off,,,,,92,0,1,,,,,0,,,78,0
86688,note_on,,,,,4,0,1,,,,,0,,,81,108
86688,note_on,,,,,4,0,2,,,,,1,,,54,108
86780,note_off,,,,,188,0,7,,,,,5,,,50,0
86780,note_off,,,,,188,0,8,,,,,6,,,50,0
86780,note_off,,,,,92,0,1,,,,,0,,,81,0
86780,note_off,,,,,92,0,2,,,,,1,,,54,0
86780,note_off,,,,,0,0,6,,,,,5,,,69,0
86780,note_off,,,,,0,0,6,,,,,5,,,66,0
86780,note_off,,,,,188,0,6,,,,,5,,,62,0
86784,note_on,,,,,0,0,6,,,,,5,,,67,60
86784,note_on,,,,,4,0,2,,,,,1,,,55,108
86784,note_on,,,,,0,0,6,,,,,5,,,71,60
86784,note_on,,,,,4,0,8,,,,,6,,,55,45
86784,note_on,,,,,4,0,7,,,,,5,,,55,60
86784,note_on,,,,,4,0,1,,,,,0,,,71,108
86784,note_on,,,,,4,0,6,,,,,5,,,62,60
86876,note_off,,,,,92,0,2,,,,,1,,,55,0
86876,note_off,,,,,92,0,1,,,,,0,,,71,0
86880,note_on,,,,,4,0,1,,,,,0,,,69,108
86880,note_on,,,,,4,0,2,,,,,1,,,57,108
86972,note_off,,,,,92,0,2,,,,,1,,,57,0
86972,note_off,,,,,92,0,1,,,,,0,,,69,0
86976,note_on,,,,,4,0,1,,,,,0,,,67,108
86976,note_on,,,,,4,0,2,,,,,1,,,59,108
87068,note_off,,,,,92,0,2,,,,,1,,,59,0
87072,note_on,,,,,4,0,2,,,,,1,,,60,108
87104,note_off,,,,,0,0,6,,,,,5,,,71,0
87104,note_off,,,,,320,0,6,,,,,5,,,62,0
87104,note_off,,,,,0,0,6,,,,,5,,,67,0
87104,note_off,,,,,320,0,7,,,,,5,,,55,0
87104,note_off,,,,,320,0,8,,,,,6,,,55,0
87164,note_off,,,,,92,0,2,,,,,1,,,60,0
87164,note_off,,,,,188,0,1,,,,,0,,,67,0
87168,note_on,,,,,4,0,2,,,,,1,,,62,108
87260,note_off,,,,,92,0,2,,,,,1,,,62,0
87264,note_on,,,,,4,0,2,,,,,1,,,60,108
87356,note_off,,,,,92,0,2,,,,,1,,,60,0
87360,note_on,,,,,196,0,1,,,,,0,,,77,108
87360,note_on,,,,,0,0,6,,,,,5,,,71,60
87360,note_on,,,,,0,0,6,,,,,5,,,67,60
87360,note_on,,,,,256,0,6,,,,,5,,,65,60
87360,note_on,,,,,256,0,7,,,,,5,,,55,60
87360,note_on,,,,,4,0,2,,,,,1,,,59,108
87360,note_on,,,,,256,0,8,,,,,6,,,55,45
87452,note_off,,,,,92,0,2,,,,,1,,,59,0
87456,note_on,,,,,4,0,2,,,,,1,,,57,108
87548,note_off,,,,,188,0,8,,,,,6,,,55,0
87548,note_off,,,,,92,0,2,,,,,1,,,57,0
87548,note_off,,,,,188,0,6,,,,,5,,,65,0
87548,note_off,,,,,0,0,6,,,,,5,,,67,0
87548,note_off,,,,,0,0,6,,,,,5,,,71,0
87548,note_off,,,,,188,0,7,,,,,5,,,55,0
87552,note_on,,,,,0,0,6,,,,,5,,,67,60
87552,note_on,,,,,4,0,7,,,,,5,,,55,60
87552,note_on,,,,,4,0,2,,,,,1,,,55,108
87552,note_on,,,,,4,0,6,,,,,5,,,65,60
87552,note_on,,,,,192,0,1,,,,,0,,,77,108
87552,note_on,,,,,4,0,8,,,,,6,,,55,45
87552,note_on,,,,,0,0,6,,,,,5,,,71,60
87644,note_off,,,,,92,0,2,,,,,1,,,55,0
87648,note_on,,,,,4,0,2,,,,,1,,,57,108
87740,note_off,,,,,92,0,2,,,,,1,,,57,0
87744,note_on,,,,,4,0,2,,,,,1,,,59,108
87836,note_off,,,,,92,0,2,,,,,1,,,59,0
87840,note_on,,,,,4,0,2,,,,,1,,,60,108
87872,note_off,,,,,0,0,6,,,,,5,,,67,0
87872,note_off,,,,,0,0,6,,,,,5,,,71,0
87872,note_off,,,,,320,0,7,,,,,5,,,55,0
87872,note_off,,,,,320,0,8,,,,,6,,,55,0
87872,note_off,,,,,320,0,6,,,,,5,,,65,0
87932,note_off,,,,,92,0,2,,,,,1,,,60,0
87936,note_on,,,,,4,0,2,,,,,1,,,62,108
88028,note_off,,,,,92,0,2,,,,,1,,,62,0
88028,note_off,,,,,476,0,1,,,,,0,,,77,0
88032,note_on,,,,,4,0,2,,,,,1,,,59,108
88032,note_on,,,,,4,0,1,,,,,0,,,74,108
88124,note_off,,,,,92,0,2,,,,,1,,,59,0
88124,note_off,,,,,92,0,1,,,,,0,,,74,0
88128,note_on,,,,,256,0,8,,,,,6,,,55,45
88128,note_on,,,,,4,0,2,,,,,1,,,57,108
88128,note_on,,,,,4,0,1,,,,,0,,,72,108
88128,note_on,,,,,256,0,7,,,,,5,,,55,60
88128,note_on,,,,,256,0,6,,,,,5,,,65,60
88128,note_on,,,,,0,0,6,,,,,5,,,67,60
88128,note_on,,,,,0,0,6,,,,,5,,,71,60
88220,note_off,,,,,92,0,2,,,,,1,,,57,0
88220,note_off,,,,,92,0,1,,,,,0,,,72,0
88224,note_on,,,,,4,0,1,,,,,0,,,71,108
88224,note_on,,,,,4,0,2,,,,,1,,,55,108
88316,note_off,,,,,0,0,6,,,,,5,,,71,0
88316,note_off,,,,,188,0,7,,,,,5,,,55,0
88316,note_off,,,,,92,0,1,,,,,0,,,71,0
88316,note_off,,,,,0,0,6,,,,,5,,,67,0
88316,note_off,,,,,92,0,2,,,,,1,,,55,0
88316,note_off,,,,,188,0,6,,,,,5,,,65,0
88316,note_off,,,,,188,0,8,,,,,6,,,55,0
88320,note_on,,,,,4,0,6,,,,,5,,,65,60
88320,note_on,,,,,4,0,1,,,,,0,,,77,108
88320,note_on,,,,,0,0,6,,,,,5,,,67,60
88320,note_on,,,,,4,0,7,,,,,5,,,43,60
88320,note_on,,,,,4,0,8,,,,,6,,,43,45
88320,note_on,,,,,0,0,6,,,,,5,,,71,60
88320,note_on,,,,,4,0,2,,,,,1,,,43,108
88412,note_off,,,,,92,0,2,,,,,1,,,43,0
88416,note_on,,,,,4,0,2,,,,,1,,,55,108
88508,note_off,,,,,92,0,2,,,,,1,,,55,0
88512,note_on,,,,,4,0,2,,,,,1,,,59,108
88576,note_off,,,,,256,0,1,,,,,0,,,77,64
88604,note_off,,,,,92,0,2,,,,,1,,,59,0
88608,note_on,,,,,4,0,2,,,,,1,,,60,108
88640,note_off,,,,,0,0,6,,,,,5,,,71,0
88640,note_off,,,,,320,0,6,,,,,5,,,65,0
88640,note_off,,,,,320,0,7,,,,,5,,,43,0
88640,note_off,,,,,320,0,8,,,,,6,,,43,0
88640,note_off,,,,,0,0,6,,,,,5,,,67,0
88700,note_off,,,,,92,0,2,,,,,1,,,60,0
88704,note_on,,,,,4,0,2,,,,,1,,,62,108
88796,note_off,,,,,220,0,1,,,,,0,,,77,0
88796,note_off,,,,,92,0,2,,,,,1,,,62,0
88800,note_on,,,,,4,0,2,,,,,1,,,59,108
88800,note_on,,,,,4,0,1,,,,,0,,,74,108
88892,note_off,,,,,92,0,1,,,,,0,,,74,0
88892,note_off,,,,,92,0,2,,,,,1,,,59,0
88896,note_on,,,,,256,0,6,,,,,5,,,65,60
88896,note_on,,,,,4,0,1,,,,,0,,,72,108
88896,note_on,,,,,0,0,6,,,,,5,,,67,60
88896,note_on,,,,,0,0,6,,,,,5,,,71,60
88896,note_on,,,,,4,0,2,,,,,1,,,57,108
88896,note_on,,,,,256,0,7,,,,,5,,,55,60
88896,note_on,,,,,256,0,8,,,,,6,,,55,45
88988,note_off,,,,,92,0,1,,,,,0,,,72,0
88988,note_off,,,,,92,0,2,,,,,1,,,57,0
88992,note_on,,,,,4,0,1,,,,,0,,,71,108
88992,note_on,,,,,4,0,2,,,,,1,,,55,108
89084,note_off,,,,,188,0,6,,,,,5,,,65,0
89084,note_off,,,,,0,0,6,,,,,5,,,71,0
89084,note_off,,,,,188,0,7,,,,,5,,,55,0
89084,note_off,,,,,92,0,1,,,,,0,,,71,0
89084,note_off,,,,,92,0,2,,,,,1,,,55,0
89084,note_off,,,,,0,0,6,,,,,5,,,67,0
89084,note_off,,,,,188,0,8,,,,,6,,,55,0
89088,note_on,,,,,4,0,8,,,,,6,,,48,45
89088,note_on,,,,,4,0,2,,,,,1,,,48,108
89088,note_on,,,,,0,0,6,,,,,5,,,72,60
89088,note_on,,,,,0,0,6,,,,,5,,,67,60
89088,note_on,,,,,4,0,7,,,,,5,,,48,60
89088,note_on,,,,,4,0,6,,,,,5,,,64,60
89088,note_on,,,,,4,0,1,,,,,0,,,76,108
89180,note_off,,,,,92,0,2,,,,,1,,,48,0
89180,note_off,,,,,92,0,1,,,,,0,,,76,0
89184,note_on,,,,,4,0,2,,,,,1,,,50,108
89184,note_on,,,,,4,0,1,,,,,0,,,74,108
89276,note_off,,,,,92,0,2,,,,,1,,,50,0
89276,note_off,,,,,92,0,1,,,,,0,,,74,0
89280,note_on,,,,,4,0,1,,,,,0,,,72,108
89280,note_on,,,,,4,0,2,,,,,1,,,52,108
89372,note_off,,,,,92,0,2,,,,,1,,,52,0
89376,note_on,,,,,4,0,2,,,,,1,,,53,108
89408,note_off,,,,,0,0,6,,,,,5,,,72,0
89408,note_off,,,,,320,0,7,,,,,5,,,48,0
89408,note_off,,,,,320,0,8,,,,,6,,,48,0
89408,note_off,,,,,320,0,6,,,,,5,,,64,0
89408,note_off,,,,,0,0,6,,,,,5,,,67,0
89468,note_off,,,,,188,0,1,,,,,0,,,72,0
89468,note_off,,,,,92,0,2,,,,,1,,,53,0
89472,note_on,,,,,4,0,2,,,,,1,,,55,108
89564,note_off,,,,,92,0,2,,,,,1,,,55,0
89568,note_on,,,,,4,0,2,,,,,1,,,52,108
89660,note_off,,,,,92,0,2,,,,,1,,,52,0
89664,note_on,,,,,0,0,6,,,,,5,,,72,60
89664,note_on,,,,,0,0,6,,,,,5,,,67,60
89664,note_on,,,,,256,0,6,,,,,5,,,64,60
89664,note_on,,,,,256,0,7,,,,,5,,,48,60
89664,note_on,,,,,256,0,8,,,,,6,,,48,45
89664,note_on,,,,,196,0,1,,,,,0,,,79,108
89664,note_on,,,,,4,0,2,,,,,1,,,50,108
89756,note_off,,,,,92,0,2,,,,,1,,,50,0
89760,note_on,,,,,4,0,2,,,,,1,,,48,108
89852,note_off,,,,,0,0,6,,,,,5,,,67,0
89852,note_off,,,,,0,0,6,,,,,5,,,72,0
89852,note_off,,,,,92,0,2,,,,,1,,,48,0
89852,note_off,,,,,188,0,7,,,,,5,,,48,0
89852,note_off,,,,,188,0,8,,,,,6,,,48,0
89852,note_off,,,,,188,0,1,,,,,0,,,79,0
89852,note_off,,,,,188,0,6,,,,,5,,,64,0
89856,note_on,,,,,4,0,6,,,,,5,,,64,60
89856,note_on,,,,,0,0,6,,,,,5,,,69,60
89856,note_on,,,,,0,0,6,,,,,5,,,73,60
89856,note_on,,,,,4,0,7,,,,,5,,,57,60
89856,note_on,,,,,4,0,1,,,,,0,,,81,108
89856,note_on,,,,,4,0,8,,,,,6,,,57,45
89856,note_on,,,,,4,0,2,,,,,1,,,57,108
89948,note_off,,,,,92,0,2,,,,,1,,,57,0
89952,note_on,,,,,4,0,2,,,,,1,,,59,108
90044,note_off,,,,,92,0,2,,,,,1,,,59,0
90048,note_on,,,,,4,0,2,,,,,1,,,61,108
90140,note_off,,,,,92,0,2,,,,,1,,,61,0
90144,note_on,,,,,4,0,2,,,,,1,,,62,108
90176,note_off,,,,,320,0,6,,,,,5,,,64,0
90176,note_off,,,,,0,0,6,,,,,5,,,69,0
90176,note_off,,,,,0,0,6,,,,,5,,,73,0
90176,note_off,,,,,320,0,7,,,,,5,,,57,0
90176,note_off,,,,,320,0,8,,,,,6,,,57,0
90236,note_off,,,,,92,0,2,,,,,1,,,62,0
90240,note_on,,,,,4,0,2,,,,,1,,,64,108
90332,note_off,,,,,92,0,2,,,,,1,,,64,0
90332,note_off,,,,,476,0,1,,,,,0,,,81,0
90336,note_on,,,,,4,0,2,,,,,1,,,61,108
90336,note_on,,,,,4,0,1,,,,,0,,,76,108
90428,note_off,,,,,92,0,1,,,,,0,,,76,0
90428,note_off,,,,,92,0,2,,,,,1,,,61,0
90432,note_on,,,,,256,0,8,,,,,6,,,57,45
90432,note_on,,,,,0,0,6,,,,,5,,,73,60
90432,note_on,,,,,0,0,6,,,,,5,,,69,60
90432,note_on,,,,,256,0,6,,,,,5,,,64,60
90432,note_on,,,,,256,0,7,,,,,5,,,57,60
90432,note_on,,,,,4,0,2,,,,,1,,,59,108
90432,note_on,,,,,4,0,1,,,,,0,,,74,108
90524,note_off,,,,,92,0,2,,,,,1,,,59,0
90524,note_off,,,,,92,0,1,,,,,0,,,74,0
90528,note_on,,,,,4,0,2,,,,,1,,,57,108
90528,note_on,,,,,4,0,1,,,,,0,,,73,108
90620,note_off,,,,,0,0,6,,,,,5,,,69,0
90620,note_off,,,,,0,0,6,,,,,5,,,73,0
90620,note_off,,,,,188,0,6,,,,,5,,,64,0
90620,note_off,,,,,188,0,7,,,,,5,,,57,0
90620,note_off,,,,,92,0,1,,,,,0,,,73,0
90620,note_off,,,,,92,0,2,,,,,1,,,57,0
90620,note_off,,,,,188,0,8,,,,,6,,,57,0
90624,note_on,,,,,4,0,1,,,,,0,,,79,108
90624,note_on,,,,,0,0,6,,,,,5,,,69,60
90624,note_on,,,,,4,0,6,,,,,5,,,67,60
90624,note_on,,,,,4,0,2,,,,,1,,,45,108
90624,note_on,,,,,4,0,7,,,,,5,,,45,60
90624,note_on,,,,,0,0,6,,,,,5,,,72,60
90624,note_on,,,,,4,0,8,,,,,6,,,45,45
90716,note_off,,,,,92,0,2,,,,,1,,,45,0
90720,note_on,,,,,4,0,2,,,,,1,,,57,108
90812,note_off,,,,,92,0,2,,,,,1,,,57,0
90816,note_on,,,,,4,0,2,,,,,1,,,61,108
90908,note_off,,,,,92,0,2,,,,,1,,,61,0
90912,note_on,,,,,4,0,2,,,,,1,,,62,108
90944,note_off,,,,,320,0,7,,,,,5,,,45,0
90944,note_off,,,,,0,0,6,,,,,5,,,72,0
90944,note_off,,,,,320,0,8,,,,,6,,,45,0
90944,note_off,,,,,320,0,6,,,,,5,,,67,0
90944,note_off,,,,,0,0,6,,,,,5,,,69,0
91004,note_off,,,,,92,0,2,,,,,1,,,62,0
91008,note_on,,,,,4,0,2,,,,,1,,,64,108
91100,note_off,,,,,476,0,1,,,,,0,,,79,0
91100,note_off,,,,,92,0,2,,,,,1,,,64,0
91104,note_on,,,,,4,0,2,,,,,1,,,61,108
91104,note_on,,,,,4,0,1,,,,,0,,,76,108
91196,note_off,,,,,92,0,2,,,,,1,,,61,0
91196,note_off,,,,,92,0,1,,,,,0,,,76,0
91200,note_on,,,,,256,0,6,,,,,5,,,67,60
91200,note_on,,,,,256,0,8,,,,,6,,,57,45
91200,note_on,,,,,256,0,7,,,,,5,,,57,60
91200,note_on,,,,,0,0,6,,,,,5,,,72,60
91200,note_on,,,,,0,0,6,,,,,5,,,69,60
91200,note_on,,,,,4,0,2,,,,,1,,,59,108
91200,note_on,,,,,4,0,1,,,,,0,,,74,108
91292,note_off,,,,,92,0,1,,,,,0,,,74,0
91292,note_off,,,,,92,0,2,,,,,1,,,59,0
91296,note_on,,,,,4,0,2,,,,,1,,,57,108
91296,note_on,,,,,4,0,1,,,,,0,,,73,108
91388,note_off,,,,,92,0,2,,,,,1,,,57,0
91388,note_off,,,,,92,0,1,,,,,0,,,73,0
91388,note_off,,,,,0,0,6,,,,,5,,,69,0
91388,note_off,,,,,188,0,6,,,,,5,,,67,0
91388,note_off,,,,,0,0,6,,,,,5,,,72,0
91388,note_off,,,,,188,0,7,,,,,5,,,57,0
91388,note_off,,,,,188,0,8,,,,,6,,,57,0
91392,note_on,,,,,4,0,2,,,,,1,,,50,108
91392,note_on,,,,,4,0,1,,,,,0,,,78,108
91392,note_on,,,,,0,0,6,,,,,5,,,69,60
91392,note_on,,,,,4,0,7,,,,,5,,,50,60
91392,note_on,,,,,0,0,6,,,,,5,,,74,60
91392,note_on,,,,,4,0,6,,,,,5,,,66,60
91392,note_on,,,,,4,0,8,,,,,6,,,50,45
91484,note_off,,,,,92,0,2,,,,,1,,,50,0
91484,note_off,,,,,92,0,1,,,,,0,,,78,0
91488,note_on,,,,,4,0,2,,,,,1,,,57,108
91488,note_on,,,,,4,0,1,,,,,0,,,76,108
91580,note_off,,,,,92,0,1,,,,,0,,,76,0
91584,note_on,,,,,4,0,1,,,,,0,,,74,108
91584,note_off,,,,,96,0,2,,,,,1,,,57,0
91584,note_on,,,,,0,0,2,,,,,1,,,55,108
91680,note_on,,,,,0,0,2,,,,,1,,,57,108
91680,note_off,,,,,96,0,2,,,,,1,,,55,0
91712,note_off,,,,,320,0,8,,,,,6,,,50,0
91712,note_off,,,,,0,0,6,,,,,5,,,74,0
91712,note_off,,,,,0,0,6,,,,,5,,,69,0
91712,note_off,,,,,320,0,6,,,,,5,,,66,0
91712,note_off,,,,,320,0,7,,,,,5,,,50,0
91772,note_off,,,,,92,0,2,,,,,1,,,57,0
91772,note_off,,,,,188,0,1,,,,,0,,,74,0
91776,note_on,,,,,0,0,6,,,,,5,,,69,60
91776,note_on,,,,,64,0,8,,,,,6,,,50,45
91776,note_on,,,,,64,0,7,,,,,5,,,50,60
91776,note_on,,,,,4,0,2,,,,,1,,,50,108
91776,note_on,,,,,64,0,6,,,,,5,,,66,60
91776,note_on,,,,,0,0,6,,,,,5,,,74,60
91868,note_off,,,,,92,0,2,,,,,1,,,50,0
91872,note_on,,,,,4,0,2,,,,,1,,,57,108
91968,note_off,,,,,96,0,2,,,,,1,,,57,0
91968,note_on,,,,,196,0,1,,,,,0,,,74,108
91968,note_on,,,,,0,0,2,,,,,1,,,55,108
92064,note_off,,,,,96,0,2,,,,,1,,,55,0
92064,note_on,,,,,0,0,2,,,,,1,,,57,108
92096,note_off,,,,,320,0,7,,,,,5,,,50,0
92096,note_off,,,,,320,0,8,,,,,6,,,50,0
92096,note_off,,,,,0,0,6,,,,,5,,,74,0
92096,note_off,,,,,0,0,6,,,,,5,,,69,0
92096,note_off,,,,,320,0,6,,,,,5,,,66,0
92156,note_off,,,,,92,0,2,,,,,1,,,57,0
92156,note_off,,,,,188,0,1,,,,,0,,,74,0
92160,note_on,,,,,4,0,2,,,,,1,,,50,108
92160,note_on,,,,,64,0,8,,,,,6,,,50,45
92160,note_on,,,,,4,0,1,,,,,0,,,72,108
92160,note_on,,,,,64,0,7,,,,,5,,,50,60
92160,note_on,,,,,64,0,6,,,,,5,,,66,60
92160,note_on,,,,,0,0,6,,,,,5,,,69,60
92160,note_on,,,,,0,0,6,,,,,5,,,74,60
92252,note_off,,,,,92,0,1,,,,,0,,,72,0
92252,note_off,,,,,92,0,2,,,,,1,,,50,0
92256,note_on,,,,,4,0,1,,,,,0,,,78,108
92256,note_on,,,,,4,0,2,,,,,1,,,57,108
92348,note_off,,,,,92,0,1,,,,,0,,,78,0
92352,note_on,,,,,0,0,2,,,,,1,,,55,108
92352,note_on,,,,,4,0,1,,,,,0,,,81,108
92352,note_off,,,,,96,0,2,,,,,1,,,57,0
92448,note_on,,,,,0,0,2,,,,,1,,,57,108
92448,note_off,,,,,96,0,2,,,,,1,,,55,0
92480,note_off,,,,,320,0,8,,,,,6,,,50,0
92480,note_off,,,,,320,0,7,,,,,5,,,50,0
92480,note_off,,,,,0,0,6,,,,,5,,,74,0
92480,note_off,,,,,0,0,6,,,,,5,,,69,0
92480,note_off,,,,,320,0,6,,,,,5,,,66,0
92540,note_off,,,,,92,0,2,,,,,1,,,57,0
92544,note_on,,,,,0,0,6,,,,,5,,,72,60
92544,note_on,,,,,0,0,6,,,,,5,,,66,60
92544,note_on,,,,,64,0,6,,,,,5,,,62,60
92544,note_on,,,,,64,0,8,,,,,6,,,50,45
92544,note_on,,,,,64,0,7,,,,,5,,,50,60
92544,note_on,,,,,4,0,2,,,,,1,,,50,108
92636,note_off,,,,,92,0,2,,,,,1,,,50,0
92640,note_on,,,,,4,0,2,,,,,1,,,57,108
92672,note_off,,,,,320,0,1,,,,,0,,,81,0
92736,note_on,,,,,0,0,2,,,,,1,,,55,108
92736,note_off,,,,,96,0,2,,,,,1,,,57,0
92736,note_on,,,,,64,0,1,,,,,0,,,72,108
92832,note_off,,,,,96,0,2,,,,,1,,,55,0
92832,note_on,,,,,0,0,2,,,,,1,,,57,108
92864,note_off,,,,,320,0,6,,,,,5,,,62,0
92864,note_off,,,,,0,0,6,,,,,5,,,72,0
92864,note_off,,,,,320,0,7,,,,,5,,,50,0
92864,note_off,,,,,0,0,6,,,,,5,,,66,0
92864,note_off,,,,,320,0,8,,,,,6,,,50,0
92924,note_off,,,,,188,0,1,,,,,0,,,72,0
92924,note_off,,,,,92,0,2,,,,,1,,,57,0
92928,note_on,,,,,64,0,8,,,,,6,,,43,45
92928,note_on,,,,,64,0,7,,,,,5,,,43,60
92928,note_on,,,,,4,0,2,,,,,1,,,43,108
92928,note_on,,,,,64,0,6,,,,,5,,,62,60
92928,note_on,,,,,4,0,1,,,,,0,,,71,108
92928,note_on,,,,,0,0,6,,,,,5,,,67,60
92928,note_on,,,,,0,0,6,,,,,5,,,71,60
93020,note_off,,,,,92,0,2,,,,,1,,,43,0
93020,note_off,,,,,92,0,1,,,,,0,,,71,0
93024,note_on,,,,,4,0,2,,,,,1,,,55,108
93024,note_on,,,,,4,0,1,,,,,0,,,74,108
93116,note_off,,,,,92,0,1,,,,,0,,,74,0
93120,note_on,,,,,4,0,1,,,,,0,,,79,108
93120,note_off,,,,,96,0,2,,,,,1,,,55,0
93120,note_on,,,,,0,0,2,,,,,1,,,54,108
93216,note_on,,,,,0,0,2,,,,,1,,,55,108
93216,note_off,,,,,96,0,2,,,,,1,,,54,0
93248,note_off,,,,,0,0,6,,,,,5,,,67,0
93248,note_off,,,,,0,0,6,,,,,5,,,71,0
93248,note_off,,,,,320,0,7,,,,,5,,,43,0
93248,note_off,,,,,320,0,8,,,,,6,,,43,0
93248,note_off,,,,,320,0,6,,,,,5,,,62,0
93308,note_off,,,,,92,0,2,,,,,1,,,55,0
93312,note_on,,,,,64,0,8,,,,,6,,,43,45
93312,note_on,,,,,64,0,6,,,,,5,,,62,60
93312,note_on,,,,,0,0,6,,,,,5,,,67,60
93312,note_on,,,,,0,0,6,,,,,5,,,71,60
93312,note_on,,,,,64,0,7,,,,,5,,,43,60
93312,note_on,,,,,4,0,2,,,,,1,,,43,108
93404,note_off,,,,,92,0,2,,,,,1,,,43,0
93408,note_on,,,,,4,0,2,,,,,1,,,55,108
93440,note_off,,,,,320,0,1,,,,,0,,,79,0
93504,note_off,,,,,96,0,2,,,,,1,,,55,0
93504,note_on,,,,,0,0,2,,,,,1,,,54,108
93504,note_on,,,,,64,0,1,,,,,0,,,71,108
93600,note_off,,,,,96,0,2,,,,,1,,,54,0
93600,note_on,,,,,0,0,2,,,,,1,,,55,108
93632,note_off,,,,,320,0,7,,,,,5,,,43,0
93632,note_off,,,,,320,0,8,,,,,6,,,43,0
93632,note_off,,,,,320,0,6,,,,,5,,,62,0
93632,note_off,,,,,0,0,6,,,,,5,,,67,0
93632,note_off,,,,,0,0,6,,,,,5,,,71,0
93692,note_off,,,,,92,0,2,,,,,1,,,55,0
93692,note_off,,,,,188,0,1,,,,,0,,,71,0
93696,note_on,,,,,64,0,8,,,,,6,,,50,45
93696,note_on,,,,,4,0,2,,,,,1,,,50,108
93696,note_on,,,,,64,0,7,,,,,5,,,50,60
93696,note_on,,,,,4,0,1,,,,,0,,,69,108
93696,note_on,,,,,64,0,6,,,,,5,,,62,60
93696,note_on,,,,,0,0,6,,,,,5,,,66,60
93696,note_on,,,,,0,0,6,,,,,5,,,69,60
93788,note_off,,,,,92,0,2,,,,,1,,,50,0
93788,note_off,,,,,92,0,1,,,,,0,,,69,0
93792,note_on,,,,,4,0,1,,,,,0,,,74,108
93792,note_on,,,,,4,0,2,,,,,1,,,57,108
93884,note_off,,,,,92,0,1,,,,,0,,,74,0
93888,note_on,,,,,4,0,1,,,,,0,,,78,108
93888,note_off,,,,,96,0,2,,,,,1,,,57,0
93888,note_on,,,,,0,0,2,,,,,1,,,55,108
93984,note_on,,,,,0,0,2,,,,,1,,,57,108
93984,note_off,,,,,96,0,2,,,,,1,,,55,0
94016,note_off,,,,,0,0,6,,,,,5,,,66,0
94016,note_off,,,,,320,0,7,,,,,5,,,50,0
94016,note_off,,,,,0,0,6,,,,,5,,,69,0
94016,note_off,,,,,320,0,6,,,,,5,,,62,0
94016,note_off,,,,,320,0,8,,,,,6,,,50,0
94076,note_off,,,,,92,0,2,,,,,1,,,57,0
94080,note_on,,,,,64,0,6,,,,,5,,,62,60
94080,note_on,,,,,0,0,6,,,,,5,,,69,60
94080,note_on,,,,,64,0,8,,,,,6,,,50,45
94080,note_on,,,,,4,0,2,,,,,1,,,50,108
94080,note_on,,,,,0,0,6,,,,,5,,,66,60
94080,note_on,,,,,64,0,7,,,,,5,,,50,60
94172,note_off,,,,,92,0,2,,,,,1,,,50,0
94176,note_on,,,,,4,0,2,,,,,1,,,57,108
94208,note_off,,,,,320,0,1,,,,,0,,,78,0
94272,note_off,,,,,96,0,2,,,,,1,,,57,0
94272,note_on,,,,,64,0,1,,,,,0,,,69,108
94272,note_on,,,,,0,0,2,,,,,1,,,55,108
94368,note_off,,,,,96,0,2,,,,,1,,,55,0
94368,note_on,,,,,0,0,2,,,,,1,,,57,108
94400,note_off,,,,,0,0,6,,,,,5,,,69,0
94400,note_off,,,,,320,0,8,,,,,6,,,50,0
94400,note_off,,,,,0,0,6,,,,,5,,,66,0
94400,note_off,,,,,320,0,6,,,,,5,,,62,0
94400,note_off,,,,,320,0,7,,,,,5,,,50,0
94460,note_off,,,,,188,0,1,,,,,0,,,69,0
94460,note_off,,,,,92,0,2,,,,,1,,,57,0
94464,note_on,,,,,64,0,6,,,,,5,,,67,60
94464,note_on,,,,,0,0,6,,,,,5,,,73,60
94464,note_on,,,,,64,0,8,,,,,6,,,52,45
94464,note_on,,,,,4,0,1,,,,,0,,,67,108
94464,note_on,,,,,64,0,7,,,,,5,,,52,60
94464,note_on,,,,,4,0,2,,,,,1,,,52,108
94556,note_off,,,,,92,0,1,,,,,0,,,67,0
94556,note_off,,,,,92,0,2,,,,,1,,,52,0
94560,note_on,,,,,4,0,1,,,,,0,,,73,108
94560,note_on,,,,,4,0,2,,,,,1,,,57,108
94652,note_off,,,,,92,0,1,,,,,0,,,73,0
94656,note_on,,,,,0,0,2,,,,,1,,,55,108
94656,note_off,,,,,96,0,2,,,,,1,,,57,0
94656,note_on,,,,,4,0,1,,,,,0,,,76,108
94752,note_off,,,,,96,0,2,,,,,1,,,55,0
94752,note_on,,,,,0,0,2,,,,,1,,,57,108
94784,note_off,,,,,320,0,8,,,,,6,,,52,0
94784,note_off,,,,,320,0,7,,,,,5,,,52,0
94784,note_off,,,,,320,0,6,,,,,5,,,67,0
94784,note_off,,,,,0,0,6,,,,,5,,,73,0
94844,note_off,,,,,92,0,2,,,,,1,,,57,0
94848,note_on,,,,,64,0,8,,,,,6,,,49,45
94848,note_on,,,,,0,0,6,,,,,5,,,76,60
94848,note_on,,,,,64,0,7,,,,,5,,,49,60
94848,note_on,,,,,64,0,6,,,,,5,,,67,60
94848,note_on,,,,,4,0,2,,,,,1,,,49,108
94848,note_on,,,,,0,0,6,,,,,5,,,69,60
94940,note_off,,,,,92,0,2,,,,,1,,,49,0
94944,note_on,,,,,4,0,2,,,,,1,,,52,108
94976,note_off,,,,,320,0,1,,,,,0,,,76,0
95040,note_on,,,,,0,0,2,,,,,1,,,50,108
95040,note_off,,,,,96,0,2,,,,,1,,,52,0
95040,note_on,,,,,64,0,1,,,,,0,,,67,108
95136,note_on,,,,,0,0,2,,,,,1,,,49,108
95136,note_off,,,,,96,0,2,,,,,1,,,50,0
95168,note_off,,,,,320,0,6,,,,,5,,,67,0
95168,note_off,,,,,320,0,7,,,,,5,,,49,0
95168,note_off,,,,,320,0,8,,,,,6,,,49,0
95168,note_off,,,,,0,0,6,,,,,5,,,69,0
95168,note_off,,,,,0,0,6,,,,,5,,,76,0
95228,note_off,,,,,92,0,2,,,,,1,,,49,0
95228,note_off,,,,,188,0,1,,,,,0,,,67,0
95232,note_on,,,,,4,0,1,,,,,0,,,66,108
95232,note_on,,,,,64,0,7,,,,,5,,,50,60
95232,note_on,,,,,64,0,8,,,,,6,,,50,45
95232,note_on,,,,,4,0,2,,,,,1,,,50,108
95232,note_on,,,,,0,0,6,,,,,5,,,74,60
95232,note_on,,,,,64,0,6,,,,,5,,,66,60
95232,note_on,,,,,0,0,6,,,,,5,,,69,60
95324,note_off,,,,,92,0,1,,,,,0,,,66,0
95328,note_on,,,,,4,0,1,,,,,0,,,64,108
95420,note_off,,,,,92,0,1,,,,,0,,,64,0
95424,note_on,,,,,4,0,1,,,,,0,,,62,108
95516,note_off,,,,,92,0,1,,,,,0,,,62,0
95520,note_on,,,,,4,0,1,,,,,0,,,64,108
95552,note_off,,,,,320,0,2,,,,,1,,,50,0
95552,note_off,,,,,320,0,8,,,,,6,,,50,0
95552,note_off,,,,,320,0,7,,,,,5,,,50,0
95552,note_off,,,,,320,0,6,,,,,5,,,66,0
95552,note_off,,,,,0,0,6,,,,,5,,,74,0
95552,note_off,,,,,0,0,6,,,,,5,,,69,0
95612,note_off,,,,,92,0,1,,,,,0,,,64,0
95616,note_on,,,,,4,0,1,,,,,0,,,66,108
95708,note_off,,,,,92,0,1,,,,,0,,,66,0
95712,note_on,,,,,4,0,1,,,,,0,,,67,108
95804,note_off,,,,,92,0,1,,,,,0,,,67,0
95808,note_on,,,,,4,0,1,,,,,0,,,69,108
95900,note_off,,,,,92,0,1,,,,,0,,,69,0
95904,note_on,,,,,4,0,1,,,,,0,,,71,108
95996,note_off,,,,,92,0,1,,,,,0,,,71,0
96000,note_on,,,,,4,0,1,,,,,0,,,72,108
96000,note_on,,,,,0,0,6,,,,,5,,,72,60
96000,note_on,,,,,0,0,6,,,,,5,,,66,60
96000,note_on,,,,,448,0,6,,,,,5,,,62,60
96000,note_on,,,,,448,0,7,,,,,5,,,50,60
96000,note_on,,,,,448,0,2,,,,,1,,,50,108
96000,note_on,,,,,448,0,8,,,,,6,,,50,45
96092,note_off,,,,,92,0,1,,,,,0,,,72,0
96096,note_on,,,,,4,0,1,,,,,0,,,71,108
96188,note_off,,,,,92,0,1,,,,,0,,,71,0
96192,note_on,,,,,4,0,1,,,,,0,,,69,108
96284,note_off,,,,,92,0,1,,,,,0,,,69,0
96288,note_on,,,,,4,0,1,,,,,0,,,71,108
96320,note_off,,,,,0,0,6,,,,,5,,,72,0
96320,note_off,,,,,320,0,6,,,,,5,,,62,0
96320,note_off,,,,,320,0,8,,,,,6,,,50,0
96320,note_off,,,,,320,0,7,,,,,5,,,50,0
96320,note_off,,,,,0,0,6,,,,,5,,,66,0
96320,note_off,,,,,320,0,2,,,,,1,,,50,0
96380,note_off,,,,,92,0,1,,,,,0,,,71,0
96384,note_on,,,,,4,0,1,,,,,0,,,72,108
96476,note_off,,,,,92,0,1,,,,,0,,,72,0
96480,note_on,,,,,4,0,1,,,,,0,,,74,108
96572,note_off,,,,,92,0,1,,,,,0,,,74,0
96576,note_on,,,,,4,0,1,,,,,0,,,76,108
96668,note_off,,,,,92,0,1,,,,,0,,,76,0
96672,note_on,,,,,4,0,1,,,,,0,,,74,108
96764,note_off,,,,,92,0,1,,,,,0,,,74,0
96768,note_on,,,,,0,0,6,,,,,5,,,67,60
96768,note_on,,,,,0,0,6,,,,,5,,,71,60
96768,note_on,,,,,448,0,7,,,,,5,,,43,60
96768,note_on,,,,,448,0,2,,,,,1,,,43,108
96768,note_on,,,,,4,0,1,,,,,0,,,71,108
96768,note_on,,,,,448,0,8,,,,,6,,,43,45
96768,note_on,,,,,448,0,6,,,,,5,,,62,60
96860,note_off,,,,,92,0,2,,,,,1,,,43,0
96864,note_on,,,,,4,0,2,,,,,1,,,55,108
96956,note_off,,,,,188,0,1,,,,,0,,,71,0
96960,note_off,,,,,96,0,2,,,,,1,,,55,0
96960,note_on,,,,,0,0,2,,,,,1,,,54,108
96960,note_on,,,,,4,0,1,,,,,0,,,69,108
97052,note_off,,,,,92,0,1,,,,,0,,,69,0
97056,note_on,,,,,4,0,1,,,,,0,,,67,108
97056,note_on,,,,,0,0,2,,,,,1,,,55,108
97056,note_off,,,,,96,0,2,,,,,1,,,54,0
97088,note_off,,,,,320,0,6,,,,,5,,,62,0
97088,note_off,,,,,0,0,6,,,,,5,,,67,0
97088,note_off,,,,,0,0,6,,,,,5,,,71,0
97088,note_off,,,,,320,0,7,,,,,5,,,43,0
97088,note_off,,,,,320,0,8,,,,,6,,,43,0
97148,note_off,,,,,92,0,1,,,,,0,,,67,0
97148,note_off,,,,,92,0,2,,,,,1,,,55,0
97152,note_on,,,,,64,0,7,,,,,5,,,43,60
97152,note_on,,,,,64,0,8,,,,,6,,,43,45
97152,note_on,,,,,4,0,2,,,,,1,,,43,108
97152,note_on,,,,,64,0,6,,,,,5,,,64,60
97152,note_on,,,,,0,0,6,,,,,5,,,67,60
97152,note_on,,,,,0,0,6,,,,,5,,,72,60
97152,note_on,,,,,4,0,1,,,,,0,,,76,108
97244,note_off,,,,,92,0,2,,,,,1,,,43,0
97248,note_on,,,,,4,0,2,,,,,1,,,55,108
97344,note_on,,,,,0,0,2,,,,,1,,,54,108
97344,note_off,,,,,96,0,2,,,,,1,,,55,0
97440,note_on,,,,,0,0,2,,,,,1,,,55,108
97440,note_off,,,,,96,0,2,,,,,1,,,54,0
97472,note_off,,,,,320,0,6,,,,,5,,,64,0
97472,note_off,,,,,320,0,7,,,,,5,,,43,0
97472,note_off,,,,,0,0,6,,,,,5,,,67,0
97472,note_off,,,,,0,0,6,,,,,5,,,72,0
97472,note_off,,,,,320,0,1,,,,,0,,,76,0
97472,note_off,,,,,320,0,8,,,,,6,,,43,0
97532,note_off,,,,,92,0,2,,,,,1,,,55,0
97536,note_on,,,,,64,0,1,,,,,0,,,74,108
97536,note_on,,,,,64,0,7,,,,,5,,,43,60
97536,note_on,,,,,4,0,2,,,,,1,,,43,108
97536,note_on,,,,,0,0,6,,,,,5,,,71,60
97536,note_on,,,,,0,0,6,,,,,5,,,67,60
97536,note_on,,,,,64,0,6,,,,,5,,,62,60
97536,note_on,,,,,64,0,8,,,,,6,,,43,45
97628,note_off,,,,,92,0,2,,,,,1,,,43,0
97632,note_on,,,,,4,0,2,,,,,1,,,55,108
97728,note_on,,,,,0,0,2,,,,,1,,,54,108
97728,note_off,,,,,96,0,2,,,,,1,,,55,0
97824,note_off,,,,,96,0,2,,,,,1,,,54,0
97824,note_on,,,,,0,0,2,,,,,1,,,55,108
97856,note_off,,,,,320,0,1,,,,,0,,,74,0
97856,note_off,,,,,320,0,7,,,,,5,,,43,0
97856,note_off,,,,,0,0,6,,,,,5,,,71,0
97856,note_off,,,,,0,0,6,,,,,5,,,67,0
97856,note_off,,,,,320,0,6,,,,,5,,,62,0
97856,note_off,,,,,320,0,8,,,,,6,,,43,0
97916,note_off,,,,,92,0,2,,,,,1,,,55,0
97920,note_on,,,,,64,0,8,,,,,6,,,43,45
97920,note_on,,,,,64,0,6,,,,,5,,,60,60
97920,note_on,,,,,64,0,7,,,,,5,,,43,60
97920,note_on,,,,,0,0,6,,,,,5,,,66,60
97920,note_on,,,,,0,0,6,,,,,5,,,69,60
97920,note_on,,,,,4,0,2,,,,,1,,,43,108
97920,note_on,,,,,64,0,1,,,,,0,,,72,108
98012,note_off,,,,,92,0,2,,,,,1,,,43,0
98016,note_on,,,,,4,0,2,,,,,1,,,55,108
98112,note_off,,,,,96,0,2,,,,,1,,,55,0
98112,note_on,,,,,0,0,2,,,,,1,,,54,108
98208,note_on,,,,,0,0,2,,,,,1,,,55,108
98208,note_off,,,,,96,0,2,,,,,1,,,54,0
98240,note_off,,,,,0,0,6,,,,,5,,,66,0
98240,note_off,,,,,320,0,1,,,,,0,,,72,0
98240,note_off,,,,,320,0,7,,,,,5,,,43,0
98240,note_off,,,,,320,0,8,,,,,6,,,43,0
98240,note_off,,,,,320,0,6,,,,,5,,,60,0
98240,note_off,,,,,0,0,6,,,,,5,,,69,0
98300,note_off,,,,,92,0,2,,,,,1,,,55,0
98304,note_on,,,,,64,0,8,,,,,6,,,43,45
98304,note_on,,,,,64,0,1,,,,,0,,,71,108
98304,note_on,,,,,64,0,7,,,,,5,,,43,60
98304,note_on,,,,,0,0,6,,,,,5,,,67,60
98304,note_on,,,,,64,0,6,,,,,5,,,59,60
98304,note_on,,,,,0,0,6,,,,,5,,,62,60
98304,note_on,,,,,4,0,2,,,,,1,,,43,108
98396,note_off,,,,,92,0,1,,,,,0,,,71,0
98400,note_on,,,,,4,0,1,,,,,0,,,79,108
98492,note_off,,,,,0,0,6,,,,,5,,,62,0
98492,note_off,,,,,0,0,6,,,,,5,,,67,0
98492,note_off,,,,,188,0,2,,,,,1,,,43,0
98492,note_off,,,,,188,0,7,,,,,5,,,43,0
98492,note_off,,,,,188,0,6,,,,,5,,,59,0
98492,note_off,,,,,188,0,8,,,,,6,,,43,0
98492,note_off,,,,,92,0,1,,,,,0,,,79,0
98496,note_on,,,,,4,0,7,,,,,5,,,55,60
98496,note_on,,,,,4,0,6,,,,,5,,,59,60
98496,note_on,,,,,4,0,2,,,,,1,,,55,108
98496,note_on,,,,,0,0,6,,,,,5,,,62,60
98496,note_on,,,,,4,0,1,,,,,0,,,78,108
98496,note_on,,,,,0,0,6,,,,,5,,,67,60
98496,note_on,,,,,4,0,8,,,,,6,,,55,45
98588,note_off,,,,,92,0,1,,,,,0,,,78,0
98592,note_on,,,,,4,0,1,,,,,0,,,79,108
98684,note_off,,,,,188,0,2,,,,,1,,,55,0
98684,note_off,,,,,188,0,8,,,,,6,,,55,0
98684,note_off,,,,,92,0,1,,,,,0,,,79,0
98684,note_off,,,,,188,0,6,,,,,5,,,59,0
98684,note_off,,,,,188,0,7,,,,,5,,,55,0
98684,note_off,,,,,0,0,6,,,,,5,,,62,0
98684,note_off,,,,,0,0,6,,,,,5,,,67,0
98688,note_on,,,,,4,0,1,,,,,0,,,69,108
98688,note_on,,,,,4,0,6,,,,,5,,,57,60
98688,note_on,,,,,4,0,7,,,,,5,,,50,60
98688,note_on,,,,,0,0,6,,,,,5,,,62,60
98688,note_on,,,,,0,0,6,,,,,5,,,67,60
98688,note_on,,,,,4,0,8,,,,,6,,,50,45
98688,note_on,,,,,4,0,2,,,,,1,,,50,108
98876,note_off,,,,,188,0,2,,,,,1,,,50,0
98876,note_off,,,,,0,0,6,,,,,5,,,67,0
98876,note_off,,,,,188,0,7,,,,,5,,,50,0
98876,note_off,,,,,188,0,8,,,,,6,,,50,0
98876,note_off,,,,,188,0,6,,,,,5,,,62,0
98880,note_on,,,,,4,0,7,,,,,5,,,38,60
98880,note_on,,,,,4,0,2,,,,,1,,,38,108
98880,note_on,,,,,4,0,8,,,,,6,,,38,45
98880,note_on,,,,,4,0,6,,,,,5,,,66,60
99008,note_off,,,,,128,0,6,,,,,5,,,57,0
99008,note_off,,,,,320,0,1,,,,,0,,,69,0
99068,note_off,,,,,188,0,7,,,,,5,,,38,0
99068,note_off,,,,,188,0,2,,,,,1,,,38,0
99068,note_off,,,,,60,0,6,,,,,5,,,66,0
99068,note_off,,,,,188,0,8,,,,,6,,,38,0
99072,note_on,,,,,4,0,7,,,,,5,,,43,92
99072,note_on,,,,,4,0,6,,,,,5,,,59,92
99072,note_on,,,,,64,0,1,,,,,0,,,67,92
99072,note_on,,,,,15748,0,4,,,,,3,,,67,92
99072,note_on,,,,,0,0,6,,,,,5,,,62,92
99072,note_on,,,,,15748,0,3,,,,,2,,,67,92
99072,note_on,,,,,4,0,8,,,,,6,,,43,92
99072,note_on,,,,,4,0,2,,,,,1,,,43,92
99072,note_on,,,,,0,0,6,,,,,5,,,67,92
99168,note_on,,,,,15844,0,5,,,,,4,,,67,92
99260,note_off,,,,,92,0,5,,,,,4,,,67,0
99264,note_on,,,,,4,0,5,,,,,4,,,62,92
99356,note_off,,,,,92,0,5,,,,,4,,,62,0
99360,note_on,,,,,4,0,5,,,,,4,,,59,92
99392,note_off,,,,,320,0,7,,,,,5,,,43,0
99392,note_off,,,,,320,0,6,,,,,5,,,59,0
99392,note_off,,,,,320,0,3,,,,,2,,,67,0
99392,note_off,,,,,320,0,4,,,,,3,,,67,0
99392,note_off,,,,,0,0,6,,,,,5,,,67,0
99392,note_off,,,,,0,0,6,,,,,5,,,62,0
99392,note_off,,,,,320,0,2,,,,,1,,,43,0
99392,note_off,,,,,320,0,8,,,,,6,,,43,0
99392,note_off,,,,,320,0,1,,,,,0,,,67,0
99452,note_off,,,,,92,0,5,,,,,4,,,59,0
99456,note_on,,,,,64,0,3,,,,,2,,,79,92
99456,note_on,,,,,64,0,6,,,,,5,,,67,92
99456,note_on,,,,,0,0,6,,,,,5,,,71,92
99456,note_on,,,,,0,0,6,,,,,5,,,74,92
99456,note_on,,,,,64,0,4,,,,,3,,,79,92
99456,note_on,,,,,4,0,5,,,,,4,,,55,92
99456,note_on,,,,,64,0,1,,,,,0,,,79,92
99552,note_on,,,,,160,0,2,,,,,1,,,55,92
99552,note_on,,,,,160,0,7,,,,,5,,,55,92
99552,note_on,,,,,160,0,8,,,,,6,,,55,92
99644,note_off,,,,,92,0,7,,,,,5,,,55,0
99644,note_off,,,,,92,0,2,,,,,1,,,55,0
99644,note_off,,,,,92,0,8,,,,,6,,,55,0
99648,note_on,,,,,4,0,8,,,,,6,,,47,92
99648,note_on,,,,,4,0,7,,,,,5,,,47,92
99648,note_on,,,,,4,0,2,,,,,1,,,47,92
99740,note_off,,,,,92,0,8,,,,,6,,,47,0
99740,note_off,,,,,92,0,7,,,,,5,,,47,0
99740,note_off,,,,,92,0,2,,,,,1,,,47,0
99744,note_on,,,,,4,0,7,,,,,5,,,43,92
99744,note_on,,,,,4,0,2,,,,,1,,,43,92
99744,note_on,,,,,4,0,8,,,,,6,,,43,92
99776,note_off,,,,,0,0,6,,,,,5,,,71,0
99776,note_off,,,,,320,0,4,,,,,3,,,79,0
99776,note_off,,,,,0,0,6,,,,,5,,,74,0
99776,note_off,,,,,320,0,3,,,,,2,,,79,0
99776,note_off,,,,,320,0,6,,,,,5,,,67,0
99776,note_off,,,,,320,0,1,,,,,0,,,79,0
99776,note_off,,,,,320,0,5,,,,,4,,,55,0
99836,note_off,,,,,92,0,8,,,,,6,,,43,0
99836,note_off,,,,,92,0,7,,,,,5,,,43,0
99836,note_off,,,,,92,0,2,,,,,1,,,43,0
99840,note_on,,,,,4,0,2,,,,,1,,,50,92
99840,note_on,,,,,64,0,6,,,,,5,,,66,92
99840,note_on,,,,,0,0,6,,,,,5,,,69,92
99840,note_on,,,,,0,0,6,,,,,5,,,74,92
99840,note_on,,,,,64,0,3,,,,,2,,,78,92
99840,note_on,,,,,64,0,1,,,,,0,,,78,92
99840,note_on,,,,,64,0,4,,,,,3,,,78,92
99840,note_on,,,,,4,0,8,,,,,6,,,50,92
99840,note_on,,,,,4,0,7,,,,,5,,,50,92
99932,note_off,,,,,92,0,1,,,,,0,,,78,0
99932,note_off,,,,,92,0,4,,,,,3,,,78,0
99932,note_off,,,,,92,0,3,,,,,2,,,78,0
99936,note_on,,,,,160,0,5,,,,,4,,,74,92
99936,note_on,,,,,4,0,1,,,,,0,,,81,92
99936,note_on,,,,,4,0,4,,,,,3,,,81,92
99936,note_on,,,,,4,0,3,,,,,2,,,81,92
100028,note_off,,,,,92,0,5,,,,,4,,,74,0
100028,note_off,,,,,92,0,4,,,,,3,,,81,0
100028,note_off,,,,,92,0,1,,,,,0,,,81,0
100028,note_off,,,,,92,0,3,,,,,2,,,81,0
100032,note_on,,,,,4,0,5,,,,,4,,,69,92
100032,note_on,,,,,4,0,4,,,,,3,,,74,92
100032,note_on,,,,,4,0,1,,,,,0,,,74,92
100032,note_on,,,,,4,0,3,,,,,2,,,74,92
100124,note_off,,,,,92,0,5,,,,,4,,,69,0
100128,note_on,,,,,4,0,5,,,,,4,,,66,92
100160,note_off,,,,,0,0,6,,,,,5,,,74,0
100160,note_off,,,,,0,0,6,,,,,5,,,69,0
100160,note_off,,,,,320,0,6,,,,,5,,,66,0
100160,note_off,,,,,320,0,2,,,,,1,,,50,0
100160,note_off,,,,,320,0,8,,,,,6,,,50,0
100160,note_off,,,,,320,0,7,,,,,5,,,50,0
100220,note_off,,,,,92,0,5,,,,,4,,,66,0
100224,note_on,,,,,64,0,6,,,,,5,,,66,92
100224,note_on,,,,,0,0,6,,,,,5,,,74,92
100224,note_on,,,,,4,0,5,,,,,4,,,62,92
100224,note_on,,,,,0,0,6,,,,,5,,,69,92
100320,note_on,,,,,160,0,2,,,,,1,,,62,92
100320,note_on,,,,,160,0,8,,,,,6,,,62,92
100320,note_on,,,,,160,0,7,,,,,5,,,62,92
100352,note_off,,,,,320,0,4,,,,,3,,,74,0
100352,note_off,,,,,320,0,1,,,,,0,,,74,0
100352,note_off,,,,,320,0,3,,,,,2,,,74,0
100412,note_off,,,,,92,0,7,,,,,5,,,62,0
100412,note_off,,,,,92,0,8,,,,,6,,,62,0
100412,note_off,,,,,92,0,2,,,,,1,,,62,0
100416,note_on,,,,,4,0,7,,,,,5,,,54,92
100416,note_on,,,,,4,0,8,,,,,6,,,54,92
100416,note_on,,,,,64,0,4,,,,,3,,,72,92
100416,note_on,,,,,4,0,2,,,,,1,,,54,92
100416,note_on,,,,,64,0,3,,,,,2,,,72,92
100416,note_on,,,,,64,0,1,,,,,0,,,72,92
100508,note_off,,,,,92,0,2,,,,,1,,,54,0
100508,note_off,,,,,92,0,8,,,,,6,,,54,0
100508,note_off,,,,,92,0,7,,,,,5,,,54,0
100512,note_on,,,,,4,0,7,,,,,5,,,50,92
100512,note_on,,,,,4,0,2,,,,,1,,,50,92
100512,note_on,,,,,4,0,8,,,,,6,,,50,92
100544,note_off,,,,,320,0,5,,,,,4,,,62,0
100544,note_off,,,,,0,0,6,,,,,5,,,69,0
100544,note_off,,,,,320,0,6,,,,,5,,,66,0
100544,note_off,,,,,0,0,6,,,,,5,,,74,0
100604,note_off,,,,,92,0,7,,,,,5,,,50,0
100604,note_off,,,,,92,0,2,,,,,1,,,50,0
100604,note_off,,,,,188,0,4,,,,,3,,,72,0
100604,note_off,,,,,188,0,3,,,,,2,,,72,0
100604,note_off,,,,,188,0,1,,,,,0,,,72,0
100604,note_off,,,,,92,0,8,,,,,6,,,50,0
100608,note_on,,,,,64,0,5,,,,,4,,,62,92
100608,note_on,,,,,0,0,6,,,,,5,,,67,92
100608,note_on,,,,,0,0,6,,,,,5,,,71,92
100608,note_on,,,,,4,0,4,,,,,3,,,71,92
100608,note_on,,,,,4,0,2,,,,,1,,,55,92
100608,note_on,,,,,4,0,8,,,,,6,,,55,92
100608,note_on,,,,,64,0,6,,,,,5,,,62,92
100608,note_on,,,,,4,0,1,,,,,0,,,71,92
100608,note_on,,,,,4,0,7,,,,,5,,,55,92
100608,note_on,,,,,4,0,3,,,,,2,,,71,92
100700,note_off,,,,,92,0,4,,,,,3,,,71,0
100700,note_off,,,,,92,0,3,,,,,2,,,71,0
100700,note_off,,,,,92,0,1,,,,,0,,,71,0
100704,note_on,,,,,4,0,3,,,,,2,,,74,92
100704,note_on,,,,,4,0,4,,,,,3,,,74,92
100704,note_on,,,,,4,0,1,,,,,0,,,74,92
100796,note_off,,,,,92,0,4,,,,,3,,,74,0
100796,note_off,,,,,188,0,6,,,,,5,,,62,0
100796,note_off,,,,,0,0,6,,,,,5,,,67,0
100796,note_off,,,,,0,0,6,,,,,5,,,71,0
100796,note_off,,,,,92,0,1,,,,,0,,,74,0
100796,note_off,,,,,92,0,3,,,,,2,,,74,0
100796,note_off,,,,,188,0,8,,,,,6,,,55,0
100796,note_off,,,,,188,0,2,,,,,1,,,55,0
100796,note_off,,,,,188,0,7,,,,,5,,,55,0
100796,note_off,,,,,188,0,5,,,,,4,,,62,0
100800,note_on,,,,,4,0,5,,,,,4,,,62,92
100800,note_on,,,,,4,0,4,,,,,3,,,66,92
100800,note_on,,,,,4,0,3,,,,,2,,,66,92
100800,note_on,,,,,4,0,7,,,,,5,,,50,92
100800,note_on,,,,,4,0,1,,,,,0,,,66,92
100800,note_on,,,,,4,0,8,,,,,6,,,50,92
100800,note_on,,,,,0,0,6,,,,,5,,,62,92
100800,note_on,,,,,4,0,2,,,,,1,,,50,92
100800,note_on,,,,,4,0,6,,,,,5,,,57,92
100800,note_on,,,,,0,0,6,,,,,5,,,66,92
100988,note_off,,,,,188,0,8,,,,,6,,,50,0
100988,note_off,,,,,188,0,2,,,,,1,,,50,0
100988,note_off,,,,,188,0,7,,,,,5,,,50,0
100992,note_on,,,,,4,0,8,,,,,6,,,50,92
100992,note_on,,,,,4,0,2,,,,,1,,,50,92
100992,note_on,,,,,4,0,7,,,,,5,,,50,92
101084,note_off,,,,,284,0,5,,,,,4,,,62,0
101084,note_off,,,,,284,0,3,,,,,2,,,66,0
101084,note_off,,,,,284,0,1,,,,,0,,,66,0
101084,note_off,,,,,284,0,4,,,,,3,,,66,0
101088,note_on,,,,,4,0,4,,,,,3,,,69,92
101088,note_on,,,,,4,0,5,,,,,4,,,66,92
101088,note_on,,,,,4,0,3,,,,,2,,,69,92
101088,note_on,,,,,4,0,1,,,,,0,,,69,92
101120,note_off,,,,,320,0,6,,,,,5,,,57,0
101120,note_off,,,,,0,0,6,,,,,5,,,66,0
101120,note_off,,,,,0,0,6,,,,,5,,,62,0
101180,note_off,,,,,188,0,7,,,,,5,,,50,0
101180,note_off,,,,,188,0,8,,,,,6,,,50,0
101180,note_off,,,,,92,0,5,,,,,4,,,66,0
101180,note_off,,,,,92,0,1,,,,,0,,,69,0
101180,note_off,,,,,92,0,3,,,,,2,,,69,0
101180,note_off,,,,,92,0,4,,,,,3,,,69,0
101180,note_off,,,,,188,0,2,,,,,1,,,50,0
101184,note_on,,,,,4,0,5,,,,,4,,,64,92
101184,note_on,,,,,4,0,7,,,,,5,,,50,92
101184,note_on,,,,,4,0,8,,,,,6,,,50,92
101184,note_on,,,,,0,0,6,,,,,5,,,67,92
101184,note_on,,,,,0,0,6,,,,,5,,,64,92
101184,note_on,,,,,64,0,6,,,,,5,,,59,92
101184,note_on,,,,,4,0,3,,,,,2,,,67,92
101184,note_on,,,,,4,0,2,,,,,1,,,50,92
101184,note_on,,,,,4,0,4,,,,,3,,,67,92
101184,note_on,,,,,4,0,1,,,,,0,,,67,92
101372,note_off,,,,,188,0,2,,,,,1,,,50,0
101372,note_off,,,,,188,0,7,,,,,5,,,50,0
101372,note_off,,,,,188,0,8,,,,,6,,,50,0
101376,note_on,,,,,4,0,2,,,,,1,,,50,92
101376,note_on,,,,,4,0,7,,,,,5,,,50,92
101376,note_on,,,,,4,0,8,,,,,6,,,50,92
101468,note_off,,,,,284,0,4,,,,,3,,,67,0
101468,note_off,,,,,284,0,1,,,,,0,,,67,0
101468,note_off,,,,,284,0,3,,,,,2,,,67,0
101468,note_off,,,,,284,0,5,,,,,4,,,64,0
101472,note_on,,,,,4,0,5,,,,,4,,,67,92
101472,note_on,,,,,4,0,3,,,,,2,,,71,92
101472,note_on,,,,,4,0,4,,,,,3,,,71,92
101472,note_on,,,,,4,0,1,,,,,0,,,71,92
101564,note_off,,,,,188,0,7,,,,,5,,,50,0
101564,note_off,,,,,92,0,5,,,,,4,,,67,0
101564,note_off,,,,,0,0,6,,,,,5,,,64,0
101564,note_off,,,,,188,0,2,,,,,1,,,50,0
101564,note_off,,,,,0,0,6,,,,,5,,,67,0
101564,note_off,,,,,380,0,6,,,,,5,,,59,0
101564,note_off,,,,,92,0,1,,,,,0,,,71,0
101564,note_off,,,,,92,0,3,,,,,2,,,71,0
101564,note_off,,,,,92,0,4,,,,,3,,,71,0
101564,note_off,,,,,188,0,8,,,,,6,,,50,0
101568,note_on,,,,,4,0,2,,,,,1,,,50,92
101568,note_on,,,,,0,0,6,,,,,5,,,66,92
101568,note_on,,,,,4,0,3,,,,,2,,,69,92
101568,note_on,,,,,4,0,5,,,,,4,,,66,92
101568,note_on,,,,,4,0,1,,,,,0,,,69,92
101568,note_on,,,,,4,0,8,,,,,6,,,50,92
101568,note_on,,,,,4,0,6,,,,,5,,,62,92
101568,note_on,,,,,0,0,6,,,,,5,,,69,92
101568,note_on,,,,,4,0,4,,,,,3,,,69,92
101568,note_on,,,,,4,0,7,,,,,5,,,50,92
101756,note_off,,,,,188,0,7,,,,,5,,,50,0
101756,note_off,,,,,188,0,2,,,,,1,,,50,0
101756,note_off,,,,,188,0,8,,,,,6,,,50,0
101760,note_on,,,,,4,0,2,,,,,1,,,50,92
101760,note_on,,,,,4,0,7,,,,,5,,,50,92
101760,note_on,,,,,4,0,8,,,,,6,,,50,92
101852,note_off,,,,,284,0,3,,,,,2,,,69,0
101852,note_off,,,,,284,0,4,,,,,3,,,69,0
101852,note_off,,,,,284,0,1,,,,,0,,,69,0
101852,note_off,,,,,284,0,5,,,,,4,,,66,0
101856,note_on,,,,,4,0,1,,,,,0,,,72,92
101856,note_on,,,,,4,0,5,,,,,4,,,69,92
101856,note_on,,,,,4,0,4,,,,,3,,,72,92
101856,note_on,,,,,4,0,3,,,,,2,,,72,92
101888,note_off,,,,,0,0,6,,,,,5,,,69,0
101888,note_off,,,,,320,0,6,,,,,5,,,62,0
101888,note_off,,,,,0,0,6,,,,,5,,,66,0
101948,note_off,,,,,92,0,5,,,,,4,,,69,0
101948,note_off,,,,,92,0,3,,,,,2,,,72,0
101948,note_off,,,,,188,0,7,,,,,5,,,50,0
101948,note_off,,,,,92,0,1,,,,,0,,,72,0
101948,note_off,,,,,188,0,8,,,,,6,,,50,0
101948,note_off,,,,,92,0,4,,,,,3,,,72,0
101948,note_off,,,,,188,0,2,,,,,1,,,50,0
101952,note_on,,,,,4,0,7,,,,,5,,,50,92
101952,note_on,,,,,4,0,2,,,,,1,,,50,92
101952,note_on,,,,,0,0,6,,,,,5,,,67,92
101952,note_on,,,,,64,0,6,,,,,5,,,62,92
101952,note_on,,,,,0,0,6,,,,,5,,,71,92
101952,note_on,,,,,4,0,4,,,,,3,,,71,92
101952,note_on,,,,,4,0,8,,,,,6,,,50,92
101952,note_on,,,,,4,0,3,,,,,2,,,71,92
101952,note_on,,,,,4,0,1,,,,,0,,,71,92
101952,note_on,,,,,4,0,5,,,,,4,,,67,92
102140,note_off,,,,,188,0,2,,,,,1,,,50,0
102140,note_off,,,,,188,0,8,,,,,6,,,50,0
102140,note_off,,,,,188,0,7,,,,,5,,,50,0
102144,note_on,,,,,4,0,7,,,,,5,,,50,92
102144,note_on,,,,,4,0,2,,,,,1,,,50,92
102144,note_on,,,,,4,0,8,,,,,6,,,50,92
102236,note_off,,,,,284,0,3,,,,,2,,,71,0
102236,note_off,,,,,284,0,1,,,,,0,,,71,0
102236,note_off,,,,,284,0,5,,,,,4,,,67,0
102236,note_off,,,,,284,0,4,,,,,3,,,71,0
102240,note_on,,,,,4,0,3,,,,,2,,,78,92
102240,note_on,,,,,4,0,5,,,,,4,,,69,92
102240,note_on,,,,,4,0,4,,,,,3,,,78,92
102240,note_on,,,,,4,0,1,,,,,0,,,78,92
102332,note_off,,,,,92,0,5,,,,,4,,,69,0
102332,note_off,,,,,188,0,8,,,,,6,,,50,0
102332,note_off,,,,,188,0,2,,,,,1,,,50,0
102332,note_off,,,,,0,0,6,,,,,5,,,71,0
102332,note_off,,,,,0,0,6,,,,,5,,,67,0
102332,note_off,,,,,380,0,6,,,,,5,,,62,0
102332,note_off,,,,,92,0,3,,,,,2,,,78,0
102332,note_off,,,,,188,0,7,,,,,5,,,50,0
102332,note_off,,,,,92,0,4,,,,,3,,,78,0
102332,note_off,,,,,92,0,1,,,,,0,,,78,0
102336,note_on,,,,,4,0,8,,,,,6,,,50,92
102336,note_on,,,,,4,0,4,,,,,3,,,81,92
102336,note_on,,,,,4,0,5,,,,,4,,,66,92
102336,note_on,,,,,4,0,2,,,,,1,,,50,92
102336,note_on,,,,,0,0,6,,,,,5,,,66,92
102336,note_on,,,,,0,0,6,,,,,5,,,72,92
102336,note_on,,,,,4,0,7,,,,,5,,,50,92
102336,note_on,,,,,4,0,1,,,,,0,,,81,92
102336,note_on,,,,,4,0,3,,,,,2,,,81,92
102336,note_on,,,,,4,0,6,,,,,5,,,62,92
102524,note_off,,,,,188,0,8,,,,,6,,,50,0
102524,note_off,,,,,188,0,2,,,,,1,,,50,0
102524,note_off,,,,,188,0,7,,,,,5,,,50,0
102528,note_on,,,,,4,0,7,,,,,5,,,50,92
102528,note_on,,,,,4,0,8,,,,,6,,,50,92
102528,note_on,,,,,4,0,2,,,,,1,,,50,92
102620,note_off,,,,,284,0,5,,,,,4,,,66,0
102624,note_on,,,,,4,0,5,,,,,4,,,66,92
102656,note_off,,,,,320,0,1,,,,,0,,,81,0
102656,note_off,,,,,0,0,6,,,,,5,,,66,0
102656,note_off,,,,,0,0,6,,,,,5,,,72,0
102656,note_off,,,,,320,0,4,,,,,3,,,81,0
102656,note_off,,,,,320,0,6,,,,,5,,,62,0
102656,note_off,,,,,320,0,3,,,,,2,,,81,0
102716,note_off,,,,,92,0,5,,,,,4,,,66,0
102716,note_off,,,,,188,0,7,,,,,5,,,50,0
102716,note_off,,,,,188,0,8,,,,,6,,,50,0
102716,note_off,,,,,188,0,2,,,,,1,,,50,0
102720,note_on,,,,,0,0,6,,,,,5,,,72,92
102720,note_on,,,,,0,0,6,,,,,5,,,66,92
102720,note_on,,,,,64,0,6,,,,,5,,,62,92
102720,note_on,,,,,64,0,1,,,,,0,,,72,92
102720,note_on,,,,,4,0,5,,,,,4,,,69,92
102720,note_on,,,,,4,0,7,,,,,5,,,50,92
102720,note_on,,,,,4,0,2,,,,,1,,,50,92
102720,note_on,,,,,4,0,8,,,,,6,,,50,92
102720,note_on,,,,,64,0,3,,,,,2,,,72,92
102720,note_on,,,,,64,0,4,,,,,3,,,72,92
102812,note_off,,,,,92,0,5,,,,,4,,,69,0
102816,note_on,,,,,4,0,5,,,,,4,,,66,92
102908,note_off,,,,,188,0,2,,,,,1,,,50,0
102908,note_off,,,,,92,0,5,,,,,4,,,66,0
102908,note_off,,,,,188,0,1,,,,,0,,,72,0
102908,note_off,,,,,188,0,3,,,,,2,,,72,0
102908,note_off,,,,,188,0,7,,,,,5,,,50,0
102908,note_off,,,,,0,0,6,,,,,5,,,66,0
102908,note_off,,,,,188,0,8,,,,,6,,,50,0
102908,note_off,,,,,188,0,4,,,,,3,,,72,0
102908,note_off,,,,,188,0,6,,,,,5,,,62,0
102908,note_off,,,,,0,0,6,,,,,5,,,72,0
102912,note_on,,,,,4,0,2,,,,,1,,,43,92
102912,note_on,,,,,4,0,4,,,,,3,,,71,92
102912,note_on,,,,,4,0,1,,,,,0,,,71,92
102912,note_on,,,,,4,0,5,,,,,4,,,62,92
102912,note_on,,,,,0,0,6,,,,,5,,,71,92
102912,note_on,,,,,0,0,6,,,,,5,,,67,92
102912,note_on,,,,,4,0,3,,,,,2,,,71,92
102912,note_on,,,,,4,0,7,,,,,5,,,43,92
102912,note_on,,,,,4,0,8,,,,,6,,,43,92
102912,note_on,,,,,4,0,6,,,,,5,,,62,92
103004,note_off,,,,,92,0,4,,,,,3,,,71,0
103004,note_off,,,,,92,0,2,,,,,1,,,43,0
103004,note_off,,,,,92,0,3,,,,,2,,,71,0
103004,note_off,,,,,92,0,8,,,,,6,,,43,0
103004,note_off,,,,,92,0,7,,,,,5,,,43,0
103004,note_off,,,,,92,0,1,,,,,0,,,71,0
103008,note_on,,,,,4,0,7,,,,,5,,,55,92
103008,note_on,,,,,4,0,2,,,,,1,,,55,92
103008,note_on,,,,,4,0,8,,,,,6,,,55,92
103008,note_on,,,,,4,0,4,,,,,3,,,69,92
103008,note_on,,,,,4,0,3,,,,,2,,,69,92
103008,note_on,,,,,4,0,1,,,,,0,,,69,92
103100,note_off,,,,,92,0,1,,,,,0,,,69,0
103100,note_off,,,,,92,0,8,,,,,6,,,55,0
103100,note_off,,,,,92,0,2,,,,,1,,,55,0
103100,note_off,,,,,188,0,6,,,,,5,,,62,0
103100,note_off,,,,,92,0,3,,,,,2,,,69,0
103100,note_off,,,,,0,0,6,,,,,5,,,67,0
103100,note_off,,,,,92,0,7,,,,,5,,,55,0
103100,note_off,,,,,0,0,6,,,,,5,,,71,0
103100,note_off,,,,,92,0,4,,,,,3,,,69,0
103104,note_on,,,,,4,0,2,,,,,1,,,47,92
103104,note_on,,,,,4,0,3,,,,,2,,,67,92
103104,note_on,,,,,4,0,6,,,,,5,,,62,92
103104,note_on,,,,,4,0,1,,,,,0,,,67,92
103104,note_on,,,,,4,0,7,,,,,5,,,47,92
103104,note_on,,,,,0,0,6,,,,,5,,,67,92
103104,note_on,,,,,4,0,4,,,,,3,,,67,92
103104,note_on,,,,,4,0,8,,,,,6,,,47,92
103196,note_off,,,,,92,0,2,,,,,1,,,47,0
103196,note_off,,,,,92,0,7,,,,,5,,,47,0
103196,note_off,,,,,92,0,8,,,,,6,,,47,0
103200,note_on,,,,,4,0,2,,,,,1,,,43,92
103200,note_on,,,,,4,0,8,,,,,6,,,43,92
103200,note_on,,,,,4,0,7,,,,,5,,,43,92
103232,note_off,,,,,320,0,5,,,,,4,,,62,0
103292,note_off,,,,,188,0,4,,,,,3,,,67,0
103292,note_off,,,,,188,0,3,,,,,2,,,67,0
103292,note_off,,,,,92,0,2,,,,,1,,,43,0
103292,note_off,,,,,0,0,6,,,,,5,,,67,0
103292,note_off,,,,,188,0,1,,,,,0,,,67,0
103292,note_off,,,,,92,0,7,,,,,5,,,43,0
103292,note_off,,,,,188,0,6,,,,,5,,,62,0
103292,note_off,,,,,92,0,8,,,,,6,,,43,0
103296,note_on,,,,,4,0,6,,,,,5,,,62,92
103296,note_on,,,,,0,0,6,,,,,5,,,67,92
103296,note_on,,,,,0,0,6,,,,,5,,,71,92
103296,note_on,,,,,4,0,8,,,,,6,,,43,92
103296,note_on,,,,,4,0,2,,,,,1,,,43,92
103296,note_on,,,,,4,0,7,,,,,5,,,43,92
103484,note_off,,,,,188,0,7,,,,,5,,,43,0
103484,note_off,,,,,188,0,8,,,,,6,,,43,0
103484,note_off,,,,,188,0,6,,,,,5,,,62,0
103484,note_off,,,,,0,0,6,,,,,5,,,71,0
103484,note_off,,,,,188,0,2,,,,,1,,,43,0
103484,note_off,,,,,0,0,6,,,,,5,,,67,0
103488,note_on,,,,,0,0,6,,,,,5,,,67,92
103488,note_on,,,,,4,0,8,,,,,6,,,55,92
103488,note_on,,,,,4,0,2,,,,,1,,,55,92
103488,note_on,,,,,256,0,5,,,,,4,,,62,92
103488,note_on,,,,,0,0,6,,,,,5,,,71,92
103488,note_on,,,,,4,0,6,,,,,5,,,62,92
103488,note_on,,,,,196,0,3,,,,,2,,,71,92
103488,note_on,,,,,4,0,7,,,,,5,,,55,92
103488,note_on,,,,,196,0,1,,,,,0,,,71,92
103580,note_off,,,,,92,0,3,,,,,2,,,71,0
103580,note_off,,,,,92,0,1,,,,,0,,,71,0
103584,note_on,,,,,4,0,3,,,,,2,,,73,92
103584,note_on,,,,,4,0,1,,,,,0,,,73,92
103676,note_off,,,,,188,0,7,,,,,5,,,55,0
103676,note_off,,,,,92,0,3,,,,,2,,,73,0
103676,note_off,,,,,0,0,6,,,,,5,,,67,0
103676,note_off,,,,,188,0,8,,,,,6,,,55,0
103676,note_off,,,,,188,0,5,,,,,4,,,62,0
103676,note_off,,,,,0,0,6,,,,,5,,,71,0
103676,note_off,,,,,188,0,2,,,,,1,,,55,0
103676,note_off,,,,,188,0,6,,,,,5,,,62,0
103676,note_off,,,,,92,0,1,,,,,0,,,73,0
103680,note_on,,,,,4,0,6,,,,,5,,,62,92
103680,note_on,,,,,4,0,5,,,,,4,,,66,92
103680,note_on,,,,,4,0,1,,,,,0,,,74,92
103680,note_on,,,,,0,0,6,,,,,5,,,66,92
103680,note_on,,,,,0,0,6,,,,,5,,,69,92
103680,note_on,,,,,4,0,3,,,,,2,,,74,92
103680,note_on,,,,,4,0,8,,,,,6,,,50,92
103680,note_on,,,,,4,0,2,,,,,1,,,50,92
103680,note_on,,,,,4,0,7,,,,,5,,,50,92
103772,note_off,,,,,92,0,3,,,,,2,,,74,0
103772,note_off,,,,,92,0,1,,,,,0,,,74,0
103776,note_on,,,,,4,0,3,,,,,2,,,69,92
103776,note_on,,,,,4,0,1,,,,,0,,,69,92
103868,note_off,,,,,188,0,2,,,,,1,,,50,0
103868,note_off,,,,,188,0,7,,,,,5,,,50,0
103868,note_off,,,,,92,0,1,,,,,0,,,69,0
103868,note_off,,,,,0,0,6,,,,,5,,,69,0
103868,note_off,,,,,188,0,8,,,,,6,,,50,0
103868,note_off,,,,,0,0,6,,,,,5,,,66,0
103868,note_off,,,,,188,0,6,,,,,5,,,62,0
103868,note_off,,,,,188,0,5,,,,,4,,,66,0
103868,note_off,,,,,92,0,3,,,,,2,,,69,0
103872,note_on,,,,,4,0,6,,,,,5,,,62,92
103872,note_on,,,,,4,0,7,,,,,5,,,50,92
103872,note_on,,,,,0,0,6,,,,,5,,,66,92
103872,note_on,,,,,0,0,6,,,,,5,,,69,92
103872,note_on,,,,,4,0,8,,,,,6,,,50,92
103872,note_on,,,,,4,0,2,,,,,1,,,50,92
103872,note_on,,,,,4,0,3,,,,,2,,,74,92
103872,note_on,,,,,4,0,1,,,,,0,,,74,92
103872,note_on,,,,,4,0,5,,,,,4,,,66,92
104060,note_off,,,,,188,0,8,,,,,6,,,50,0
104060,note_off,,,,,188,0,7,,,,,5,,,50,0
104060,note_off,,,,,188,0,2,,,,,1,,,50,0
104060,note_off,,,,,188,0,5,,,,,4,,,66,0
104064,note_on,,,,,4,0,8,,,,,6,,,50,92
104064,note_on,,,,,4,0,7,,,,,5,,,50,92
104064,note_on,,,,,4,0,5,,,,,4,,,66,92
104064,note_on,,,,,4,0,2,,,,,1,,,50,92
104156,note_off,,,,,284,0,3,,,,,2,,,74,0
104156,note_off,,,,,284,0,1,,,,,0,,,74,0
104160,note_on,,,,,4,0,3,,,,,2,,,78,92
104160,note_on,,,,,4,0,1,,,,,0,,,78,92
104192,note_off,,,,,0,0,6,,,,,5,,,69,0
104192,note_off,,,,,0,0,6,,,,,5,,,66,0
104192,note_off,,,,,320,0,6,,,,,5,,,62,0
104252,note_off,,,,,188,0,2,,,,,1,,,50,0
104252,note_off,,,,,188,0,5,,,,,4,,,66,0
104252,note_off,,,,,92,0,1,,,,,0,,,78,0
104252,note_off,,,,,188,0,7,,,,,5,,,50,0
104252,note_off,,,,,188,0,8,,,,,6,,,50,0
104252,note_off,,,,,92,0,3,,,,,2,,,78,0
104256,note_on,,,,,4,0,8,,,,,6,,,45,92
104256,note_on,,,,,4,0,3,,,,,2,,,76,92
104256,note_on,,,,,964,0,4,,,,,3,,,73,92
104256,note_on,,,,,4,0,2,,,,,1,,,45,92
104256,note_on,,,,,4,0,7,,,,,5,,,45,92
104256,note_on,,,,,4,0,5,,,,,4,,,67,92
104256,note_on,,,,,0,0,6,,,,,5,,,69,92
104256,note_on,,,,,4,0,1,,,,,0,,,76,92
104256,note_on,,,,,0,0,6,,,,,5,,,73,92
104256,note_on,,,,,64,0,6,,,,,5,,,67,92
104348,note_off,,,,,92,0,3,,,,,2,,,76,0
104348,note_off,,,,,92,0,4,,,,,3,,,73,0
104348,note_off,,,,,92,0,1,,,,,0,,,76,0
104352,note_on,,,,,4,0,3,,,,,2,,,79,92
104352,note_on,,,,,4,0,4,,,,,3,,,76,92
104352,note_on,,,,,4,0,1,,,,,0,,,79,92
104444,note_off,,,,,188,0,8,,,,,6,,,45,0
104444,note_off,,,,,0,0,6,,,,,5,,,73,0
104444,note_off,,,,,92,0,1,,,,,0,,,79,0
104444,note_off,,,,,188,0,7,,,,,5,,,45,0
104444,note_off,,,,,188,0,6,,,,,5,,,67,0
104444,note_off,,,,,92,0,4,,,,,3,,,76,0
104444,note_off,,,,,0,0,6,,,,,5,,,69,0
104444,note_off,,,,,188,0,5,,,,,4,,,67,0
104444,note_off,,,,,188,0,2,,,,,1,,,45,0
104444,note_off,,,,,92,0,3,,,,,2,,,79,0
104448,note_on,,,,,4,0,8,,,,,6,,,50,92
104448,note_on,,,,,4,0,5,,,,,4,,,69,92
104448,note_on,,,,,0,0,6,,,,,5,,,69,92
104448,note_on,,,,,0,0,6,,,,,5,,,74,92
104448,note_on,,,,,4,0,4,,,,,3,,,74,92
104448,note_on,,,,,4,0,7,,,,,5,,,50,92
104448,note_on,,,,,4,0,2,,,,,1,,,50,92
104448,note_on,,,,,4,0,1,,,,,0,,,78,92
104448,note_on,,,,,4,0,3,,,,,2,,,78,92
104448,note_on,,,,,4,0,6,,,,,5,,,66,92
104540,note_off,,,,,92,0,1,,,,,0,,,78,0
104540,note_off,,,,,92,0,4,,,,,3,,,74,0
104540,note_off,,,,,92,0,3,,,,,2,,,78,0
104544,note_on,,,,,4,0,4,,,,,3,,,69,92
104544,note_on,,,,,4,0,3,,,,,2,,,74,92
104544,note_on,,,,,4,0,1,,,,,0,,,74,92
104636,note_off,,,,,188,0,6,,,,,5,,,66,0
104636,note_off,,,,,92,0,3,,,,,2,,,74,0
104636,note_off,,,,,188,0,2,,,,,1,,,50,0
104636,note_off,,,,,92,0,1,,,,,0,,,74,0
104636,note_off,,,,,0,0,6,,,,,5,,,69,0
104636,note_off,,,,,188,0,7,,,,,5,,,50,0
104636,note_off,,,,,0,0,6,,,,,5,,,74,0
104636,note_off,,,,,188,0,8,,,,,6,,,50,0
104636,note_off,,,,,92,0,4,,,,,3,,,69,0
104636,note_off,,,,,188,0,5,,,,,4,,,69,0
104640,note_on,,,,,4,0,5,,,,,4,,,69,92
104640,note_on,,,,,4,0,7,,,,,5,,,50,92
104640,note_on,,,,,0,0,6,,,,,5,,,74,92
104640,note_on,,,,,4,0,2,,,,,1,,,50,92
104640,note_on,,,,,4,0,1,,,,,0,,,78,92
104640,note_on,,,,,4,0,8,,,,,6,,,50,92
104640,note_on,,,,,4,0,6,,,,,5,,,66,92
104640,note_on,,,,,4,0,4,,,,,3,,,74,92
104640,note_on,,,,,4,0,3,,,,,2,,,78,92
104640,note_on,,,,,0,0,6,,,,,5,,,69,92
104828,note_off,,,,,188,0,8,,,,,6,,,50,0
104828,note_off,,,,,188,0,2,,,,,1,,,50,0
104828,note_off,,,,,188,0,5,,,,,4,,,69,0
104828,note_off,,,,,188,0,7,,,,,5,,,50,0
104832,note_on,,,,,4,0,8,,,,,6,,,50,92
104832,note_on,,,,,4,0,7,,,,,5,,,50,92
104832,note_on,,,,,4,0,5,,,,,4,,,69,92
104832,note_on,,,,,4,0,2,,,,,1,,,50,92
104924,note_off,,,,,284,0,3,,,,,2,,,78,0
104924,note_off,,,,,284,0,1,,,,,0,,,78,0
104924,note_off,,,,,284,0,4,,,,,3,,,74,0
104928,note_on,,,,,4,0,4,,,,,3,,,78,92
104928,note_on,,,,,4,0,3,,,,,2,,,81,92
104928,note_on,,,,,4,0,1,,,,,0,,,81,92
104960,note_off,,,,,320,0,6,,,,,5,,,66,0
104960,note_off,,,,,0,0,6,,,,,5,,,69,0
104960,note_off,,,,,0,0,6,,,,,5,,,74,0
105020,note_off,,,,,92,0,1,,,,,0,,,81,0
105020,note_off,,,,,92,0,4,,,,,3,,,78,0
105020,note_off,,,,,92,0,3,,,,,2,,,81,0
105020,note_off,,,,,188,0,2,,,,,1,,,50,0
105020,note_off,,,,,188,0,7,,,,,5,,,50,0
105020,note_off,,,,,188,0,5,,,,,4,,,69,0
105020,note_off,,,,,188,0,8,,,,,6,,,50,0
105024,note_on,,,,,4,0,5,,,,,4,,,69,92
105024,note_on,,,,,4,0,1,,,,,0,,,79,92
105024,note_on,,,,,4,0,7,,,,,5,,,50,92
105024,note_on,,,,,0,0,6,,,,,5,,,74,92
105024,note_on,,,,,4,0,8,,,,,6,,,50,92
105024,note_on,,,,,4,0,3,,,,,2,,,79,92
105024,note_on,,,,,64,0,6,,,,,5,,,67,92
105024,note_on,,,,,0,0,6,,,,,5,,,71,92
105024,note_on,,,,,4,0,4,,,,,3,,,76,92
105024,note_on,,,,,4,0,2,,,,,1,,,50,92
105116,note_off,,,,,92,0,3,,,,,2,,,79,0
105116,note_off,,,,,92,0,4,,,,,3,,,76,0
105116,note_off,,,,,92,0,1,,,,,0,,,79,0
105120,note_on,,,,,4,0,1,,,,,0,,,83,92
105120,note_on,,,,,4,0,4,,,,,3,,,79,92
105120,note_on,,,,,4,0,3,,,,,2,,,83,92
105212,note_off,,,,,92,0,4,,,,,3,,,79,0
105212,note_off,,,,,188,0,5,,,,,4,,,69,0
105212,note_off,,,,,188,0,6,,,,,5,,,67,0
105212,note_off,,,,,0,0,6,,,,,5,,,71,0
105212,note_off,,,,,0,0,6,,,,,5,,,74,0
105212,note_off,,,,,188,0,2,,,,,1,,,50,0
105212,note_off,,,,,92,0,1,,,,,0,,,83,0
105212,note_off,,,,,188,0,7,,,,,5,,,50,0
105212,note_off,,,,,92,0,3,,,,,2,,,83,0
105212,note_off,,,,,188,0,8,,,,,6,,,50,0
105216,note_on,,,,,4,0,2,,,,,1,,,50,92
105216,note_on,,,,,4,0,7,,,,,5,,,50,92
105216,note_on,,,,,4,0,4,,,,,3,,,78,92
105216,note_on,,,,,4,0,3,,,,,2,,,81,92
105216,note_on,,,,,4,0,5,,,,,4,,,69,92
105216,note_on,,,,,4,0,8,,,,,6,,,50,92
105216,note_on,,,,,4,0,6,,,,,5,,,66,92
105216,note_on,,,,,0,0,6,,,,,5,,,69,92
105216,note_on,,,,,0,0,6,,,,,5,,,74,92
105216,note_on,,,,,4,0,1,,,,,0,,,81,92
105308,note_off,,,,,92,0,3,,,,,2,,,81,0
105308,note_off,,,,,92,0,7,,,,,5,,,50,0
105308,note_off,,,,,92,0,4,,,,,3,,,78,0
105308,note_off,,,,,92,0,1,,,,,0,,,81,0
105308,note_off,,,,,92,0,8,,,,,6,,,50,0
105308,note_off,,,,,92,0,2,,,,,1,,,50,0
105312,note_on,,,,,4,0,4,,,,,3,,,76,92
105312,note_on,,,,,4,0,7,,,,,5,,,57,92
105312,note_on,,,,,4,0,3,,,,,2,,,73,92
105312,note_on,,,,,4,0,1,,,,,0,,,73,92
105312,note_on,,,,,4,0,8,,,,,6,,,57,92
105312,note_on,,,,,4,0,2,,,,,1,,,57,92
105404,note_off,,,,,92,0,7,,,,,5,,,57,0
105404,note_off,,,,,92,0,1,,,,,0,,,73,0
105404,note_off,,,,,92,0,3,,,,,2,,,73,0
105404,note_off,,,,,92,0,8,,,,,6,,,57,0
105404,note_off,,,,,92,0,4,,,,,3,,,76,0
105404,note_off,,,,,92,0,2,,,,,1,,,57,0
105408,note_on,,,,,4,0,7,,,,,5,,,54,92
105408,note_on,,,,,4,0,1,,,,,0,,,74,92
105408,note_on,,,,,4,0,8,,,,,6,,,54,92
105408,note_on,,,,,4,0,3,,,,,2,,,74,92
105408,note_on,,,,,4,0,4,,,,,3,,,78,92
105408,note_on,,,,,4,0,2,,,,,1,,,54,92
105500,note_off,,,,,92,0,8,,,,,6,,,54,0
105500,note_off,,,,,92,0,4,,,,,3,,,78,0
105500,note_off,,,,,92,0,7,,,,,5,,,54,0
105500,note_off,,,,,92,0,2,,,,,1,,,54,0
105504,note_on,,,,,4,0,7,,,,,5,,,52,92
105504,note_on,,,,,4,0,2,,,,,1,,,52,92
105504,note_on,,,,,4,0,8,,,,,6,,,52,92
105504,note_on,,,,,4,0,4,,,,,3,,,79,92
105536,note_off,,,,,0,0,6,,,,,5,,,69,0
105536,note_off,,,,,320,0,5,,,,,4,,,69,0
105536,note_off,,,,,320,0,6,,,,,5,,,66,0
105536,note_off,,,,,0,0,6,,,,,5,,,74,0
105596,note_off,,,,,92,0,7,,,,,5,,,52,0
105596,note_off,,,,,92,0,8,,,,,6,,,52,0
105596,note_off,,,,,92,0,2,,,,,1,,,52,0
105596,note_off,,,,,92,0,4,,,,,3,,,79,0
105600,note_on,,,,,64,0,5,,,,,4,,,66,92
105600,note_on,,,,,0,0,6,,,,,5,,,74,92
105600,note_on,,,,,0,0,6,,,,,5,,,69,92
105600,note_on,,,,,64,0,6,,,,,5,,,66,92
105600,note_on,,,,,4,0,2,,,,,1,,,50,92
105600,note_on,,,,,4,0,7,,,,,5,,,50,92
105600,note_on,,,,,4,0,8,,,,,6,,,50,92
105600,note_on,,,,,4,0,4,,,,,3,,,81,92
105692,note_off,,,,,284,0,1,,,,,0,,,74,0
105692,note_off,,,,,284,0,3,,,,,2,,,74,0
105692,note_off,,,,,92,0,5,,,,,4,,,66,0
105696,note_on,,,,,4,0,1,,,,,0,,,79,92
105696,note_on,,,,,4,0,5,,,,,4,,,64,92
105696,note_on,,,,,4,0,3,,,,,2,,,79,92
105788,note_off,,,,,92,0,1,,,,,0,,,79,0
105788,note_off,,,,,188,0,4,,,,,3,,,81,0
105788,note_off,,,,,92,0,5,,,,,4,,,64,0
105788,note_off,,,,,92,0,3,,,,,2,,,79,0
105792,note_on,,,,,4,0,1,,,,,0,,,81,92
105792,note_on,,,,,4,0,5,,,,,4,,,66,92
105792,note_on,,,,,4,0,3,,,,,2,,,81,92
105884,note_off,,,,,92,0,1,,,,,0,,,81,0
105884,note_off,,,,,92,0,5,,,,,4,,,66,0
105884,note_off,,,,,92,0,3,,,,,2,,,81,0
105888,note_on,,,,,4,0,5,,,,,4,,,67,92
105888,note_on,,,,,4,0,3,,,,,2,,,83,92
105888,note_on,,,,,4,0,1,,,,,0,,,83,92
105920,note_off,,,,,320,0,2,,,,,1,,,50,0
105920,note_off,,,,,320,0,7,,,,,5,,,50,0
105920,note_off,,,,,0,0,6,,,,,5,,,74,0
105920,note_off,,,,,320,0,6,,,,,5,,,66,0
105920,note_off,,,,,0,0,6,,,,,5,,,69,0
105920,note_off,,,,,320,0,8,,,,,6,,,50,0
105980,note_off,,,,,92,0,3,,,,,2,,,83,0
105980,note_off,,,,,92,0,1,,,,,0,,,83,0
105980,note_off,,,,,92,0,5,,,,,4,,,67,0
105984,note_on,,,,,0,0,6,,,,,5,,,69,92
105984,note_on,,,,,196,0,4,,,,,3,,,78,92
105984,note_on,,,,,64,0,6,,,,,5,,,66,92
105984,note_on,,,,,0,0,6,,,,,5,,,74,92
105984,note_on,,,,,4,0,3,,,,,2,,,81,92
105984,note_on,,,,,4,0,1,,,,,0,,,81,92
105984,note_on,,,,,4,0,5,,,,,4,,,62,92
106076,note_off,,,,,92,0,4,,,,,3,,,78,0
106076,note_off,,,,,92,0,3,,,,,2,,,81,0
106076,note_off,,,,,92,0,1,,,,,0,,,81,0
106080,note_on,,,,,4,0,3,,,,,2,,,73,92
106080,note_on,,,,,160,0,7,,,,,5,,,57,92
106080,note_on,,,,,160,0,2,,,,,1,,,57,92
106080,note_on,,,,,4,0,1,,,,,0,,,73,92
106080,note_on,,,,,160,0,8,,,,,6,,,57,92
106080,note_on,,,,,4,0,4,,,,,3,,,76,92
106172,note_off,,,,,188,0,5,,,,,4,,,62,0
106172,note_off,,,,,92,0,1,,,,,0,,,73,0
106172,note_off,,,,,92,0,7,,,,,5,,,57,0
106172,note_off,,,,,92,0,3,,,,,2,,,73,0
106172,note_off,,,,,92,0,2,,,,,1,,,57,0
106172,note_off,,,,,92,0,8,,,,,6,,,57,0
106172,note_off,,,,,92,0,4,,,,,3,,,76,0
106176,note_on,,,,,4,0,7,,,,,5,,,54,92
106176,note_on,,,,,4,0,3,,,,,2,,,74,92
106176,note_on,,,,,4,0,5,,,,,4,,,69,92
106176,note_on,,,,,4,0,2,,,,,1,,,54,92
106176,note_on,,,,,4,0,1,,,,,0,,,74,92
106176,note_on,,,,,4,0,4,,,,,3,,,78,92
106176,note_on,,,,,4,0,8,,,,,6,,,54,92
106268,note_off,,,,,92,0,8,,,,,6,,,54,0
106268,note_off,,,,,92,0,4,,,,,3,,,78,0
106268,note_off,,,,,92,0,7,,,,,5,,,54,0
106268,note_off,,,,,92,0,2,,,,,1,,,54,0
106272,note_on,,,,,4,0,8,,,,,6,,,52,92
106272,note_on,,,,,4,0,7,,,,,5,,,52,92
106272,note_on,,,,,4,0,4,,,,,3,,,79,92
106272,note_on,,,,,4,0,2,,,,,1,,,52,92
106304,note_off,,,,,0,0,6,,,,,5,,,74,0
106304,note_off,,,,,320,0,6,,,,,5,,,66,0
106304,note_off,,,,,0,0,6,,,,,5,,,69,0
106364,note_off,,,,,188,0,5,,,,,4,,,69,0
106364,note_off,,,,,92,0,4,,,,,3,,,79,0
106364,note_off,,,,,92,0,8,,,,,6,,,52,0
106364,note_off,,,,,92,0,7,,,,,5,,,52,0
106364,note_off,,,,,92,0,2,,,,,1,,,52,0
106368,note_on,,,,,0,0,6,,,,,5,,,69,92
106368,note_on,,,,,4,0,4,,,,,3,,,81,92
106368,note_on,,,,,4,0,5,,,,,4,,,66,92
106368,note_on,,,,,64,0,6,,,,,5,,,66,92
106368,note_on,,,,,4,0,2,,,,,1,,,50,92
106368,note_on,,,,,4,0,7,,,,,5,,,50,92
106368,note_on,,,,,4,0,8,,,,,6,,,50,92
106368,note_on,,,,,0,0,6,,,,,5,,,74,92
106460,note_off,,,,,284,0,1,,,,,0,,,74,0
106460,note_off,,,,,284,0,3,,,,,2,,,74,0
106464,note_on,,,,,4,0,1,,,,,0,,,79,92
106464,note_on,,,,,4,0,3,,,,,2,,,79,92
106556,note_off,,,,,92,0,1,,,,,0,,,79,0
106556,note_off,,,,,188,0,7,,,,,5,,,50,0
106556,note_off,,,,,188,0,4,,,,,3,,,81,0
106556,note_off,,,,,188,0,5,,,,,4,,,66,0
106556,note_off,,,,,188,0,8,,,,,6,,,50,0
106556,note_off,,,,,188,0,6,,,,,5,,,66,0
106556,note_off,,,,,0,0,6,,,,,5,,,69,0
106556,note_off,,,,,0,0,6,,,,,5,,,74,0
106556,note_off,,,,,92,0,3,,,,,2,,,79,0
106556,note_off,,,,,188,0,2,,,,,1,,,50,0
106560,note_on,,,,,4,0,1,,,,,0,,,81,92
106560,note_on,,,,,4,0,3,,,,,2,,,81,92
106560,note_on,,,,,4,0,2,,,,,1,,,55,92
106560,note_on,,,,,4,0,7,,,,,5,,,55,92
106560,note_on,,,,,0,0,6,,,,,5,,,71,92
106560,note_on,,,,,0,0,6,,,,,5,,,74,92
106560,note_on,,,,,4,0,6,,,,,5,,,67,92
106560,note_on,,,,,4,0,5,,,,,4,,,67,92
106560,note_on,,,,,4,0,8,,,,,6,,,55,92
106652,note_off,,,,,92,0,1,,,,,0,,,81,0
106652,note_off,,,,,92,0,3,,,,,2,,,81,0
106656,note_on,,,,,4,0,1,,,,,0,,,83,92
106656,note_on,,,,,4,0,3,,,,,2,,,83,92
106748,note_off,,,,,188,0,8,,,,,6,,,55,0
106748,note_off,,,,,92,0,1,,,,,0,,,83,0
106748,note_off,,,,,0,0,6,,,,,5,,,74,0
106748,note_off,,,,,0,0,6,,,,,5,,,71,0
106748,note_off,,,,,188,0,6,,,,,5,,,67,0
106748,note_off,,,,,188,0,7,,,,,5,,,55,0
106748,note_off,,,,,188,0,5,,,,,4,,,67,0
106748,note_off,,,,,92,0,3,,,,,2,,,83,0
106748,note_off,,,,,188,0,2,,,,,1,,,55,0
106752,note_on,,,,,4,0,8,,,,,6,,,57,92
106752,note_on,,,,,0,0,6,,,,,5,,,69,92
106752,note_on,,,,,4,0,6,,,,,5,,,64,92
106752,note_on,,,,,4,0,3,,,,,2,,,81,92
106752,note_on,,,,,4,0,2,,,,,1,,,57,92
106752,note_on,,,,,4,0,5,,,,,4,,,64,92
106752,note_on,,,,,4,0,1,,,,,0,,,81,92
106752,note_on,,,,,4,0,7,,,,,5,,,57,92
106752,note_on,,,,,196,0,4,,,,,3,,,81,92
106752,note_on,,,,,0,0,6,,,,,5,,,73,92
106844,note_off,,,,,92,0,4,,,,,3,,,81,0
106844,note_off,,,,,92,0,3,,,,,2,,,81,0
106844,note_off,,,,,92,0,1,,,,,0,,,81,0
106848,note_on,,,,,4,0,3,,,,,2,,,73,92
106848,note_on,,,,,4,0,1,,,,,0,,,73,92
106848,note_on,,,,,4,0,4,,,,,3,,,73,92
106940,note_off,,,,,92,0,4,,,,,3,,,73,0
106940,note_off,,,,,188,0,7,,,,,5,,,57,0
106940,note_off,,,,,92,0,3,,,,,2,,,73,0
106940,note_off,,,,,188,0,6,,,,,5,,,64,0
106940,note_off,,,,,92,0,1,,,,,0,,,73,0
106940,note_off,,,,,188,0,2,,,,,1,,,57,0
106940,note_off,,,,,0,0,6,,,,,5,,,73,0
106940,note_off,,,,,0,0,6,,,,,5,,,69,0
106940,note_off,,,,,188,0,8,,,,,6,,,57,0
106944,note_on,,,,,4,0,8,,,,,6,,,59,92
106944,note_on,,,,,4,0,3,,,,,2,,,74,92
106944,note_on,,,,,0,0,6,,,,,5,,,74,92
106944,note_on,,,,,4,0,2,,,,,1,,,59,92
106944,note_on,,,,,4,0,6,,,,,5,,,68,92
106944,note_on,,,,,4,0,1,,,,,0,,,74,92
106944,note_on,,,,,4,0,4,,,,,3,,,74,92
106944,note_on,,,,,4,0,7,,,,,5,,,59,92
107036,note_off,,,,,92,0,1,,,,,0,,,74,0
107036,note_off,,,,,92,0,3,,,,,2,,,74,0
107036,note_off,,,,,92,0,4,,,,,3,,,74,0
107040,note_on,,,,,4,0,4,,,,,3,,,68,92
107040,note_on,,,,,4,0,1,,,,,0,,,68,92
107040,note_on,,,,,4,0,3,,,,,2,,,68,92
107132,note_off,,,,,188,0,7,,,,,5,,,59,0
107132,note_off,,,,,188,0,8,,,,,6,,,59,0
107132,note_off,,,,,0,0,6,,,,,5,,,74,0
107132,note_off,,,,,92,0,1,,,,,0,,,68,0
107132,note_off,,,,,188,0,2,,,,,1,,,59,0
107132,note_off,,,,,92,0,3,,,,,2,,,68,0
107132,note_off,,,,,92,0,4,,,,,3,,,68,0
107132,note_off,,,,,188,0,6,,,,,5,,,68,0
107136,note_on,,,,,4,0,6,,,,,5,,,64,92
107136,note_on,,,,,4,0,4,,,,,3,,,69,92
107136,note_on,,,,,0,0,6,,,,,5,,,73,92
107136,note_on,,,,,4,0,8,,,,,6,,,61,92
107136,note_on,,,,,4,0,3,,,,,2,,,69,92
107136,note_on,,,,,4,0,2,,,,,1,,,61,92
107136,note_on,,,,,4,0,1,,,,,0,,,69,92
107136,note_on,,,,,4,0,7,,,,,5,,,61,92
107136,note_on,,,,,0,0,6,,,,,5,,,69,92
107228,note_off,,,,,92,0,4,,,,,3,,,69,0
107228,note_off,,,,,92,0,1,,,,,0,,,69,0
107228,note_off,,,,,92,0,3,,,,,2,,,69,0
107232,note_on,,,,,4,0,4,,,,,3,,,64,92
107232,note_on,,,,,4,0,3,,,,,2,,,64,92
107232,note_on,,,,,4,0,1,,,,,0,,,64,92
107264,note_off,,,,,512,0,5,,,,,4,,,64,0
107324,note_off,,,,,0,0,6,,,,,5,,,69,0
107324,note_off,,,,,188,0,6,,,,,5,,,64,0
107324,note_off,,,,,0,0,6,,,,,5,,,73,0
107324,note_off,,,,,92,0,3,,,,,2,,,64,0
107324,note_off,,,,,188,0,8,,,,,6,,,61,0
107324,note_off,,,,,92,0,1,,,,,0,,,64,0
107324,note_off,,,,,188,0,2,,,,,1,,,61,0
107324,note_off,,,,,188,0,7,,,,,5,,,61,0
107324,note_off,,,,,92,0,4,,,,,3,,,64,0
107328,note_on,,,,,4,0,2,,,,,1,,,57,92
107328,note_on,,,,,4,0,3,,,,,2,,,66,92
107328,note_on,,,,,4,0,7,,,,,5,,,57,92
107328,note_on,,,,,4,0,6,,,,,5,,,64,92
107328,note_on,,,,,0,0,6,,,,,5,,,69,92
107328,note_on,,,,,0,0,6,,,,,5,,,73,92
107328,note_on,,,,,4,0,1,,,,,0,,,66,92
107328,note_on,,,,,4,0,4,,,,,3,,,66,92
107328,note_on,,,,,64,0,5,,,,,4,,,61,92
107328,note_on,,,,,4,0,8,,,,,6,,,57,92
107420,note_off,,,,,92,0,1,,,,,0,,,66,0
107420,note_off,,,,,92,0,4,,,,,3,,,66,0
107420,note_off,,,,,92,0,3,,,,,2,,,66,0
107424,note_on,,,,,4,0,1,,,,,0,,,61,92
107424,note_on,,,,,4,0,4,,,,,3,,,61,92
107424,note_on,,,,,4,0,3,,,,,2,,,61,92
107516,note_off,,,,,188,0,2,,,,,1,,,57,0
107516,note_off,,,,,92,0,3,,,,,2,,,61,0
107516,note_off,,,,,188,0,5,,,,,4,,,61,0
107516,note_off,,,,,188,0,7,,,,,5,,,57,0
107516,note_off,,,,,188,0,6,,,,,5,,,64,0
107516,note_off,,,,,0,0,6,,,,,5,,,69,0
107516,note_off,,,,,188,0,8,,,,,6,,,57,0
107516,note_off,,,,,92,0,1,,,,,0,,,61,0
107516,note_off,,,,,0,0,6,,,,,5,,,73,0
107516,note_off,,,,,92,0,4,,,,,3,,,61,0
107520,note_on,,,,,4,0,3,,,,,2,,,62,92
107520,note_on,,,,,4,0,5,,,,,4,,,57,92
107520,note_on,,,,,4,0,7,,,,,5,,,50,92
107520,note_on,,,,,4,0,1,,,,,0,,,62,92
107520,note_on,,,,,4,0,2,,,,,1,,,50,92
107520,note_on,,,,,4,0,8,,,,,6,,,50,92
107520,note_on,,,,,0,0,6,,,,,5,,,74,92
107520,note_on,,,,,4,0,6,,,,,5,,,66,92
107520,note_on,,,,,0,0,6,,,,,5,,,69,92
107520,note_on,,,,,4,0,4,,,,,3,,,62,92
107708,note_off,,,,,188,0,7,,,,,5,,,50,0
107708,note_off,,,,,188,0,8,,,,,6,,,50,0
107708,note_off,,,,,188,0,2,,,,,1,,,50,0
107708,note_off,,,,,188,0,3,,,,,2,,,62,0
107708,note_off,,,,,188,0,6,,,,,5,,,66,0
107708,note_off,,,,,0,0,6,,,,,5,,,69,0
107708,note_off,,,,,0,0,6,,,,,5,,,74,0
107708,note_off,,,,,188,0,4,,,,,3,,,62,0
107708,note_off,,,,,188,0,1,,,,,0,,,62,0
107712,note_on,,,,,4,0,7,,,,,5,,,54,92
107712,note_on,,,,,4,0,1,,,,,0,,,69,92
107712,note_on,,,,,4,0,4,,,,,3,,,57,92
107712,note_on,,,,,4,0,6,,,,,5,,,62,92
107712,note_on,,,,,4,0,8,,,,,6,,,54,92
107712,note_on,,,,,4,0,3,,,,,2,,,57,92
107712,note_on,,,,,0,0,6,,,,,5,,,69,92
107712,note_on,,,,,4,0,2,,,,,1,,,54,92
107840,note_off,,,,,320,0,5,,,,,4,,,57,0
107900,note_off,,,,,188,0,4,,,,,3,,,57,0
107900,note_off,,,,,188,0,3,,,,,2,,,57,0
107900,note_off,,,,,188,0,7,,,,,5,,,54,0
107900,note_off,,,,,188,0,8,,,,,6,,,54,0
107900,note_off,,,,,188,0,6,,,,,5,,,62,0
107900,note_off,,,,,188,0,2,,,,,1,,,54,0
107900,note_off,,,,,0,0,6,,,,,5,,,69,0
107900,note_off,,,,,188,0,1,,,,,0,,,69,0
107904,note_on,,,,,4,0,2,,,,,1,,,52,92
107904,note_on,,,,,4,0,8,,,,,6,,,52,92
107904,note_on,,,,,64,0,5,,,,,4,,,61,92
107904,note_on,,,,,0,0,6,,,,,5,,,73,92
107904,note_on,,,,,4,0,6,,,,,5,,,67,92
107904,note_on,,,,,4,0,7,,,,,5,,,52,92
107968,note_on,,,,,68,0,3,,,,,2,,,79,92
107968,note_on,,,,,68,0,1,,,,,0,,,79,92
107968,note_on,,,,,68,0,4,,,,,3,,,79,92
108032,note_off,,,,,64,0,3,,,,,2,,,79,0
108032,note_off,,,,,64,0,1,,,,,0,,,79,0
108032,note_on,,,,,0,0,1,,,,,0,,,78,92
108032,note_on,,,,,0,0,3,,,,,2,,,78,92
108032,note_off,,,,,64,0,4,,,,,3,,,79,0
108032,note_on,,,,,0,0,4,,,,,3,,,78,92
108092,note_off,,,,,188,0,7,,,,,5,,,52,0
108092,note_off,,,,,188,0,8,,,,,6,,,52,0
108092,note_off,,,,,188,0,2,,,,,1,,,52,0
108096,note_on,,,,,4,0,7,,,,,5,,,45,92
108096,note_on,,,,,4,0,2,,,,,1,,,45,92
108096,note_on,,,,,4,0,8,,,,,6,,,45,92
108096,note_off,,,,,64,0,4,,,,,3,,,78,0
108096,note_on,,,,,0,0,4,,,,,3,,,76,92
108096,note_on,,,,,0,0,1,,,,,0,,,76,92
108096,note_off,,,,,64,0,3,,,,,2,,,78,0
108096,note_on,,,,,0,0,3,,,,,2,,,76,92
108096,note_off,,,,,64,0,1,,,,,0,,,78,0
108160,note_on,,,,,0,0,3,,,,,2,,,74,92
108160,note_on,,,,,0,0,4,,,,,3,,,74,92
108160,note_off,,,,,64,0,4,,,,,3,,,76,0
108160,note_on,,,,,0,0,1,,,,,0,,,74,92
108160,note_off,,,,,64,0,1,,,,,0,,,76,0
108160,note_off,,,,,64,0,3,,,,,2,,,76,0
108224,note_off,,,,,320,0,6,,,,,5,,,67,0
108224,note_on,,,,,0,0,4,,,,,3,,,73,92
108224,note_off,,,,,64,0,3,,,,,2,,,74,0
108224,note_on,,,,,0,0,3,,,,,2,,,73,92
108224,note_off,,,,,320,0,5,,,,,4,,,61,0
108224,note_on,,,,,0,0,1,,,,,0,,,73,92
108224,note_off,,,,,64,0,1,,,,,0,,,74,0
108224,note_off,,,,,64,0,4,,,,,3,,,74,0
108224,note_off,,,,,0,0,6,,,,,5,,,73,0
108284,note_off,,,,,188,0,8,,,,,6,,,45,0
108284,note_off,,,,,188,0,7,,,,,5,,,45,0
108284,note_off,,,,,60,0,3,,,,,2,,,73,0
108284,note_off,,,,,60,0,1,,,,,0,,,73,0
108284,note_off,,,,,60,0,4,,,,,3,,,73,0
108284,note_off,,,,,188,0,2,,,,,1,,,45,0
108288,note_on,,,,,64,0,5,,,,,4,,,57,92
108288,note_on,,,,,64,0,6,,,,,5,,,66,92
108288,note_on,,,,,0,0,6,,,,,5,,,74,92
108288,note_on,,,,,0,0,6,,,,,5,,,69,92
108288,note_on,,,,,4,0,3,,,,,2,,,74,92
108288,note_on,,,,,4,0,1,,,,,0,,,74,92
108288,note_on,,,,,4,0,8,,,,,6,,,50,92
108288,note_on,,,,,4,0,4,,,,,3,,,74,92
108288,note_on,,,,,4,0,2,,,,,1,,,50,92
108288,note_on,,,,,4,0,7,,,,,5,,,50,92
108476,note_off,,,,,0,0,6,,,,,5,,,74,0
108476,note_off,,,,,188,0,8,,,,,6,,,50,0
108476,note_off,,,,,188,0,1,,,,,0,,,74,0
108476,note_off,,,,,188,0,2,,,,,1,,,50,0
108476,note_off,,,,,188,0,3,,,,,2,,,74,0
108476,note_off,,,,,188,0,7,,,,,5,,,50,0
108476,note_off,,,,,188,0,6,,,,,5,,,66,0
108476,note_off,,,,,0,0,6,,,,,5,,,69,0
108476,note_off,,,,,188,0,4,,,,,3,,,74,0
108480,note_on,,,,,4,0,1,,,,,0,,,69,92
108480,note_on,,,,,4,0,2,,,,,1,,,54,92
108480,note_on,,,,,4,0,3,,,,,2,,,69,92
108480,note_on,,,,,0,0,6,,,,,5,,,69,92
108480,note_on,,,,,4,0,4,,,,,3,,,69,92
108480,note_on,,,,,4,0,6,,,,,5,,,62,92
108480,note_on,,,,,4,0,7,,,,,5,,,54,92
108480,note_on,,,,,4,0,8,,,,,6,,,54,92
108608,note_off,,,,,320,0,5,,,,,4,,,57,0
108668,note_off,,,,,188,0,7,,,,,5,,,54,0
108668,note_off,,,,,188,0,3,,,,,2,,,69,0
108668,note_off,,,,,188,0,2,,,,,1,,,54,0
108668,note_off,,,,,188,0,6,,,,,5,,,62,0
108668,note_off,,,,,0,0,6,,,,,5,,,69,0
108668,note_off,,,,,188,0,1,,,,,0,,,69,0
108668,note_off,,,,,188,0,8,,,,,6,,,54,0
108668,note_off,,,,,188,0,4,,,,,3,,,69,0
108672,note_on,,,,,64,0,5,,,,,4,,,61,92
108672,note_on,,,,,4,0,7,,,,,5,,,52,92
108672,note_on,,,,,4,0,6,,,,,5,,,67,92
108672,note_on,,,,,4,0,8,,,,,6,,,52,92
108672,note_on,,,,,4,0,2,,,,,1,,,52,92
108672,note_on,,,,,0,0,6,,,,,5,,,73,92
108736,note_on,,,,,68,0,3,,,,,2,,,67,92
108736,note_on,,,,,68,0,1,,,,,0,,,67,92
108736,note_on,,,,,68,0,4,,,,,3,,,67,92
108800,note_off,,,,,64,0,1,,,,,0,,,67,0
108800,note_on,,,,,0,0,3,,,,,2,,,66,92
108800,note_off,,,,,64,0,4,,,,,3,,,67,0
108800,note_on,,,,,0,0,4,,,,,3,,,66,92
108800,note_on,,,,,0,0,1,,,,,0,,,66,92
108800,note_off,,,,,64,0,3,,,,,2,,,67,0
108860,note_off,,,,,188,0,7,,,,,5,,,52,0
108860,note_off,,,,,188,0,8,,,,,6,,,52,0
108860,note_off,,,,,188,0,2,,,,,1,,,52,0
108864,note_off,,,,,64,0,4,,,,,3,,,66,0
108864,note_off,,,,,64,0,3,,,,,2,,,66,0
108864,note_on,,,,,4,0,2,,,,,1,,,45,92
108864,note_on,,,,,0,0,1,,,,,0,,,64,92
108864,note_off,,,,,64,0,1,,,,,0,,,66,0
108864,note_on,,,,,4,0,8,,,,,6,,,45,92
108864,note_on,,,,,0,0,3,,,,,2,,,64,92
108864,note_on,,,,,0,0,4,,,,,3,,,64,92
108864,note_on,,,,,4,0,7,,,,,5,,,45,92
108928,note_on,,,,,0,0,1,,,,,0,,,62,92
108928,note_on,,,,,0,0,4,,,,,3,,,62,92
108928,note_off,,,,,64,0,1,,,,,0,,,64,0
108928,note_on,,,,,0,0,3,,,,,2,,,62,92
108928,note_off,,,,,64,0,3,,,,,2,,,64,0
108928,note_off,,,,,64,0,4,,,,,3,,,64,0
108992,note_on,,,,,0,0,1,,,,,0,,,61,92
108992,note_off,,,,,64,0,1,,,,,0,,,62,0
108992,note_off,,,,,320,0,6,,,,,5,,,67,0
108992,note_off,,,,,320,0,5,,,,,4,,,61,0
108992,note_on,,,,,0,0,4,,,,,3,,,61,92
108992,note_off,,,,,64,0,4,,,,,3,,,62,0
108992,note_off,,,,,64,0,3,,,,,2,,,62,0
108992,note_off,,,,,0,0,6,,,,,5,,,73,0
108992,note_on,,,,,0,0,3,,,,,2,,,61,92
109052,note_off,,,,,188,0,7,,,,,5,,,45,0
109052,note_off,,,,,188,0,8,,,,,6,,,45,0
109052,note_off,,,,,60,0,3,,,,,2,,,61,0
109052,note_off,,,,,60,0,4,,,,,3,,,61,0
109052,note_off,,,,,188,0,2,,,,,1,,,45,0
109052,note_off,,,,,60,0,1,,,,,0,,,61,0
109056,note_on,,,,,4,0,2,,,,,1,,,50,92
109056,note_on,,,,,4,0,7,,,,,5,,,50,92
109056,note_on,,,,,4,0,4,,,,,3,,,62,92
109056,note_on,,,,,4,0,1,,,,,0,,,62,92
109056,note_on,,,,,4,0,3,,,,,2,,,62,92
109056,note_on,,,,,0,0,6,,,,,5,,,69,92
109056,note_on,,,,,64,0,6,,,,,5,,,66,92
109056,note_on,,,,,4,0,8,,,,,6,,,50,92
109056,note_on,,,,,64,0,5,,,,,4,,,57,92
109056,note_on,,,,,0,0,6,,,,,5,,,74,92
109244,note_off,,,,,188,0,3,,,,,2,,,62,0
109244,note_off,,,,,0,0,6,,,,,5,,,74,0
109244,note_off,,,,,188,0,8,,,,,6,,,50,0
109244,note_off,,,,,188,0,6,,,,,5,,,66,0
109244,note_off,,,,,188,0,4,,,,,3,,,62,0
109244,note_off,,,,,188,0,7,,,,,5,,,50,0
109244,note_off,,,,,0,0,6,,,,,5,,,69,0
109244,note_off,,,,,188,0,1,,,,,0,,,62,0
109244,note_off,,,,,188,0,2,,,,,1,,,50,0
109248,note_on,,,,,4,0,4,,,,,3,,,57,92
109248,note_on,,,,,0,0,6,,,,,5,,,73,92
109248,note_on,,,,,4,0,1,,,,,0,,,69,92
109248,note_on,,,,,4,0,2,,,,,1,,,52,92
109248,note_on,,,,,4,0,6,,,,,5,,,67,92
109248,note_on,,,,,4,0,7,,,,,5,,,52,92
109248,note_on,,,,,4,0,3,,,,,2,,,57,92
109248,note_on,,,,,4,0,8,,,,,6,,,52,92
109376,note_off,,,,,320,0,5,,,,,4,,,57,0
109436,note_off,,,,,188,0,7,,,,,5,,,52,0
109436,note_off,,,,,0,0,6,,,,,5,,,73,0
109436,note_off,,,,,188,0,2,,,,,1,,,52,0
109436,note_off,,,,,188,0,1,,,,,0,,,69,0
109436,note_off,,,,,188,0,6,,,,,5,,,67,0
109436,note_off,,,,,188,0,3,,,,,2,,,57,0
109436,note_off,,,,,188,0,4,,,,,3,,,57,0
109436,note_off,,,,,188,0,8,,,,,6,,,52,0
109440,note_on,,,,,4,0,6,,,,,5,,,69,92
109440,note_on,,,,,0,0,6,,,,,5,,,74,92
109440,note_on,,,,,64,0,5,,,,,4,,,69,92
109440,note_on,,,,,4,0,7,,,,,5,,,54,92
109440,note_on,,,,,4,0,8,,,,,6,,,54,92
109440,note_on,,,,,4,0,2,,,,,1,,,54,92
109504,note_on,,,,,68,0,3,,,,,2,,,78,92
109504,note_on,,,,,68,0,4,,,,,3,,,78,92
109504,note_on,,,,,68,0,1,,,,,0,,,78,92
109568,note_off,,,,,64,0,3,,,,,2,,,78,0
109568,note_on,,,,,0,0,3,,,,,2,,,79,92
109568,note_off,,,,,64,0,4,,,,,3,,,78,0
109568,note_on,,,,,0,0,1,,,,,0,,,79,92
109568,note_off,,,,,64,0,1,,,,,0,,,78,0
109568,note_on,,,,,0,0,4,,,,,3,,,79,92
109628,note_off,,,,,188,0,6,,,,,5,,,69,0
109628,note_off,,,,,0,0,6,,,,,5,,,74,0
109628,note_off,,,,,188,0,8,,,,,6,,,54,0
109628,note_off,,,,,188,0,2,,,,,1,,,54,0
109628,note_off,,,,,188,0,7,,,,,5,,,54,0
109628,note_off,,,,,188,0,5,,,,,4,,,69,0
109632,note_on,,,,,0,0,4,,,,,3,,,81,92
109632,note_off,,,,,64,0,4,,,,,3,,,79,0
109632,note_on,,,,,4,0,8,,,,,6,,,52,92
109632,note_on,,,,,4,0,7,,,,,5,,,52,92
109632,note_off,,,,,64,0,3,,,,,2,,,79,0
109632,note_on,,,,,0,0,1,,,,,0,,,81,92
109632,note_off,,,,,64,0,1,,,,,0,,,79,0
109632,note_on,,,,,4,0,2,,,,,1,,,52,92
109632,note_on,,,,,0,0,6,,,,,5,,,73,92
109632,note_on,,,,,4,0,6,,,,,5,,,67,92
109632,note_on,,,,,0,0,3,,,,,2,,,81,92
109632,note_on,,,,,4,0,5,,,,,4,,,67,92
109696,note_off,,,,,64,0,1,,,,,0,,,81,0
109696,note_on,,,,,0,0,1,,,,,0,,,83,92
109696,note_off,,,,,64,0,3,,,,,2,,,81,0
109696,note_on,,,,,0,0,3,,,,,2,,,83,92
109696,note_on,,,,,0,0,4,,,,,3,,,83,92
109696,note_off,,,,,64,0,4,,,,,3,,,81,0
109760,note_on,,,,,0,0,3,,,,,2,,,85,92
109760,note_off,,,,,64,0,3,,,,,2,,,83,0
109760,note_off,,,,,64,0,1,,,,,0,,,83,0
109760,note_on,,,,,0,0,1,,,,,0,,,85,92
109760,note_on,,,,,0,0,4,,,,,3,,,85,92
109760,note_off,,,,,64,0,4,,,,,3,,,83,0
109820,note_off,,,,,188,0,5,,,,,4,,,67,0
109820,note_off,,,,,60,0,1,,,,,0,,,85,0
109820,note_off,,,,,60,0,3,,,,,2,,,85,0
109820,note_off,,,,,188,0,2,,,,,1,,,52,0
109820,note_off,,,,,60,0,4,,,,,3,,,85,0
109820,note_off,,,,,188,0,8,,,,,6,,,52,0
109820,note_off,,,,,0,0,6,,,,,5,,,73,0
109820,note_off,,,,,188,0,6,,,,,5,,,67,0
109820,note_off,,,,,188,0,7,,,,,5,,,52,0
109824,note_on,,,,,0,0,6,,,,,5,,,69,92
109824,note_on,,,,,0,0,6,,,,,5,,,74,92
109824,note_on,,,,,4,0,8,,,,,6,,,50,92
109824,note_on,,,,,4,0,7,,,,,5,,,50,92
109824,note_on,,,,,4,0,3,,,,,2,,,86,92
109824,note_on,,,,,4,0,1,,,,,0,,,86,92
109824,note_on,,,,,4,0,6,,,,,5,,,66,92
109824,note_on,,,,,4,0,5,,,,,4,,,66,92
109824,note_on,,,,,4,0,2,,,,,1,,,50,92
109824,note_on,,,,,4,0,4,,,,,3,,,86,92
110012,note_off,,,,,188,0,8,,,,,6,,,50,0
110012,note_off,,,,,0,0,6,,,,,5,,,69,0
110012,note_off,,,,,188,0,6,,,,,5,,,66,0
110012,note_off,,,,,188,0,2,,,,,1,,,50,0
110012,note_off,,,,,188,0,4,,,,,3,,,86,0
110012,note_off,,,,,188,0,7,,,,,5,,,50,0
110012,note_off,,,,,188,0,3,,,,,2,,,86,0
110012,note_off,,,,,0,0,6,,,,,5,,,74,0
110012,note_off,,,,,188,0,1,,,,,0,,,86,0
110012,note_off,,,,,188,0,5,,,,,4,,,66,0
110016,note_on,,,,,4,0,3,,,,,2,,,74,92
110016,note_on,,,,,0,0,6,,,,,5,,,74,92
110016,note_on,,,,,4,0,8,,,,,6,,,59,92
110016,note_on,,,,,4,0,4,,,,,3,,,74,92
110016,note_on,,,,,4,0,7,,,,,5,,,59,92
110016,note_on,,,,,4,0,1,,,,,0,,,74,92
110016,note_on,,,,,4,0,6,,,,,5,,,67,92
110016,note_on,,,,,4,0,5,,,,,4,,,62,92
110016,note_on,,,,,4,0,2,,,,,1,,,59,92
110204,note_off,,,,,188,0,6,,,,,5,,,67,0
110204,note_off,,,,,0,0,6,,,,,5,,,74,0
110204,note_off,,,,,188,0,7,,,,,5,,,59,0
110204,note_off,,,,,188,0,3,,,,,2,,,74,0
110204,note_off,,,,,188,0,2,,,,,1,,,59,0
110204,note_off,,,,,188,0,1,,,,,0,,,74,0
110204,note_off,,,,,188,0,8,,,,,6,,,59,0
110204,note_off,,,,,188,0,4,,,,,3,,,74,0
110208,note_on,,,,,4,0,7,,,,,5,,,57,92
110208,note_on,,,,,4,0,3,,,,,2,,,76,92
110208,note_on,,,,,4,0,1,,,,,0,,,76,92
110208,note_on,,,,,0,0,6,,,,,5,,,74,92
110208,note_on,,,,,0,0,6,,,,,5,,,69,92
110208,note_on,,,,,4,0,6,,,,,5,,,64,92
110208,note_on,,,,,4,0,8,,,,,6,,,57,92
110208,note_on,,,,,4,0,4,,,,,3,,,76,92
110208,note_on,,,,,4,0,2,,,,,1,,,57,92
110336,note_off,,,,,320,0,5,,,,,4,,,62,0
110396,note_off,,,,,188,0,7,,,,,5,,,57,0
110396,note_off,,,,,188,0,8,,,,,6,,,57,0
110396,note_off,,,,,188,0,2,,,,,1,,,57,0
110396,note_off,,,,,188,0,6,,,,,5,,,74,0
110400,note_on,,,,,4,0,6,,,,,5,,,73,92
110400,note_on,,,,,4,0,8,,,,,6,,,45,92
110400,note_on,,,,,64,0,5,,,,,4,,,61,92
110400,note_on,,,,,4,0,2,,,,,1,,,45,92
110400,note_on,,,,,4,0,7,,,,,5,,,45,92
110528,note_off,,,,,320,0,1,,,,,0,,,76,0
110528,note_off,,,,,128,0,6,,,,,5,,,64,0
110528,note_off,,,,,0,0,6,,,,,5,,,69,0
110528,note_off,,,,,320,0,3,,,,,2,,,76,0
110528,note_off,,,,,320,0,4,,,,,3,,,76,0
110588,note_off,,,,,188,0,5,,,,,4,,,61,0
110588,note_off,,,,,188,0,8,,,,,6,,,45,0
110588,note_off,,,,,188,0,2,,,,,1,,,45,0
110588,note_off,,,,,188,0,7,,,,,5,,,45,0
110588,note_off,,,,,60,0,6,,,,,5,,,73,0
110592,note_on,,,,,4,0,2,,,,,1,,,50,92
110592,note_on,,,,,0,0,6,,,,,5,,,69,92
110592,note_on,,,,,4,0,7,,,,,5,,,50,92
110592,note_on,,,,,64,0,4,,,,,3,,,74,92
110592,note_on,,,,,0,0,6,,,,,5,,,74,92
110592,note_on,,,,,4,0,6,,,,,5,,,66,92
110592,note_on,,,,,4,0,5,,,,,4,,,62,92
110592,note_on,,,,,64,0,3,,,,,2,,,74,92
110592,note_on,,,,,64,0,1,,,,,0,,,74,92
110592,note_on,,,,,4,0,8,,,,,6,,,50,92
110780,note_off,,,,,188,0,7,,,,,5,,,50,0
110780,note_off,,,,,188,0,4,,,,,3,,,74,0
110780,note_off,,,,,188,0,2,,,,,1,,,50,0
110780,note_off,,,,,188,0,5,,,,,4,,,62,0
110780,note_off,,,,,188,0,8,,,,,6,,,50,0
110784,note_on,,,,,4,0,8,,,,,6,,,50,92
110784,note_on,,,,,4,0,4,,,,,3,,,69,92
110784,note_on,,,,,4,0,2,,,,,1,,,50,92
110784,note_on,,,,,4,0,5,,,,,4,,,66,92
110784,note_on,,,,,4,0,7,,,,,5,,,50,92
110876,note_off,,,,,92,0,5,,,,,4,,,66,0
110876,note_off,,,,,92,0,4,,,,,3,,,69,0
110880,note_on,,,,,4,0,4,,,,,3,,,66,92
110880,note_on,,,,,4,0,5,,,,,4,,,62,92
110912,note_off,,,,,0,0,6,,,,,5,,,74,0
110912,note_off,,,,,0,0,6,,,,,5,,,69,0
110912,note_off,,,,,320,0,1,,,,,0,,,74,0
110912,note_off,,,,,320,0,3,,,,,2,,,74,0
110912,note_off,,,,,320,0,6,,,,,5,,,66,0
110972,note_off,,,,,188,0,7,,,,,5,,,50,0
110972,note_off,,,,,92,0,4,,,,,3,,,66,0
110972,note_off,,,,,188,0,2,,,,,1,,,50,0
110972,note_off,,,,,92,0,5,,,,,4,,,62,0
110972,note_off,,,,,188,0,8,,,,,6,,,50,0
110976,note_on,,,,,4,0,4,,,,,3,,,69,92
110976,note_on,,,,,4,0,7,,,,,5,,,50,92
110976,note_on,,,,,0,0,6,,,,,5,,,66,92
110976,note_on,,,,,4,0,5,,,,,4,,,66,92
110976,note_on,,,,,4,0,8,,,,,6,,,50,92
110976,note_on,,,,,4,0,2,,,,,1,,,50,92
110976,note_on,,,,,64,0,6,,,,,5,,,62,92
110976,note_on,,,,,0,0,6,,,,,5,,,69,92
111068,note_off,,,,,92,0,4,,,,,3,,,69,0
111068,note_off,,,,,92,0,5,,,,,4,,,66,0
111072,note_on,,,,,4,0,4,,,,,3,,,66,92
111072,note_on,,,,,4,0,5,,,,,4,,,62,92
111164,note_off,,,,,92,0,4,,,,,3,,,66,0
111164,note_off,,,,,188,0,2,,,,,1,,,50,0
111164,note_off,,,,,188,0,8,,,,,6,,,50,0
111164,note_off,,,,,92,0,5,,,,,4,,,62,0
111164,note_off,,,,,188,0,7,,,,,5,,,50,0
111168,note_on,,,,,4,0,4,,,,,3,,,69,92
111168,note_on,,,,,256,0,3,,,,,2,,,72,92
111168,note_on,,,,,4,0,8,,,,,6,,,50,92
111168,note_on,,,,,4,0,7,,,,,5,,,50,92
111168,note_on,,,,,256,0,1,,,,,0,,,72,92
111168,note_on,,,,,4,0,2,,,,,1,,,50,92
111168,note_on,,,,,4,0,5,,,,,4,,,66,92
111260,note_off,,,,,92,0,5,,,,,4,,,66,0
111260,note_off,,,,,92,0,4,,,,,3,,,69,0
111264,note_on,,,,,4,0,5,,,,,4,,,62,92
111264,note_on,,,,,4,0,4,,,,,3,,,66,92
111296,note_off,,,,,320,0,6,,,,,5,,,62,0
111296,note_off,,,,,0,0,6,,,,,5,,,66,0
111296,note_off,,,,,0,0,6,,,,,5,,,69,0
111356,note_off,,,,,188,0,3,,,,,2,,,72,0
111356,note_off,,,,,188,0,8,,,,,6,,,50,0
111356,note_off,,,,,188,0,7,,,,,5,,,50,0
111356,note_off,,,,,92,0,5,,,,,4,,,62,0
111356,note_off,,,,,188,0,2,,,,,1,,,50,0
111356,note_off,,,,,92,0,4,,,,,3,,,66,0
111356,note_off,,,,,188,0,1,,,,,0,,,72,0
111360,note_on,,,,,0,0,6,,,,,5,,,72,92
111360,note_on,,,,,4,0,2,,,,,1,,,50,92
111360,note_on,,,,,4,0,3,,,,,2,,,74,92
111360,note_on,,,,,64,0,6,,,,,5,,,62,92
111360,note_on,,,,,0,0,6,,,,,5,,,66,92
111360,note_on,,,,,4,0,8,,,,,6,,,50,92
111360,note_on,,,,,4,0,5,,,,,4,,,66,92
111360,note_on,,,,,4,0,1,,,,,0,,,74,92
111360,note_on,,,,,4,0,4,,,,,3,,,69,92
111360,note_on,,,,,4,0,7,,,,,5,,,50,92
111408,note_off,,,,,48,0,1,,,,,0,,,74,0
111408,note_off,,,,,48,0,3,,,,,2,,,74,0
111408,note_on,,,,,0,0,3,,,,,2,,,72,92
111408,note_on,,,,,0,0,1,,,,,0,,,72,92
111452,note_off,,,,,92,0,5,,,,,4,,,66,0
111452,note_off,,,,,92,0,4,,,,,3,,,69,0
111456,note_on,,,,,0,0,1,,,,,0,,,71,92
111456,note_off,,,,,48,0,3,,,,,2,,,72,0
111456,note_on,,,,,0,0,3,,,,,2,,,71,92
111456,note_on,,,,,4,0,5,,,,,4,,,62,92
111456,note_on,,,,,4,0,4,,,,,3,,,66,92
111456,note_off,,,,,48,0,1,,,,,0,,,72,0
111548,note_off,,,,,188,0,2,,,,,1,,,50,0
111548,note_off,,,,,92,0,4,,,,,3,,,66,0
111548,note_off,,,,,188,0,8,,,,,6,,,50,0
111548,note_off,,,,,92,0,5,,,,,4,,,62,0
111548,note_off,,,,,188,0,7,,,,,5,,,50,0
111552,note_on,,,,,0,0,1,,,,,0,,,72,92
111552,note_on,,,,,0,0,3,,,,,2,,,72,92
111552,note_on,,,,,4,0,8,,,,,6,,,50,92
111552,note_on,,,,,4,0,4,,,,,3,,,69,92
111552,note_on,,,,,4,0,2,,,,,1,,,50,92
111552,note_off,,,,,96,0,3,,,,,2,,,71,0
111552,note_off,,,,,96,0,1,,,,,0,,,71,0
111552,note_on,,,,,4,0,7,,,,,5,,,50,92
111552,note_on,,,,,4,0,5,,,,,4,,,66,92
111644,note_off,,,,,92,0,5,,,,,4,,,66,0
111644,note_off,,,,,92,0,4,,,,,3,,,69,0
111648,note_on,,,,,4,0,4,,,,,3,,,66,92
111648,note_on,,,,,4,0,5,,,,,4,,,62,92
111680,note_off,,,,,320,0,6,,,,,5,,,62,0
111680,note_off,,,,,0,0,6,,,,,5,,,66,0
111680,note_off,,,,,0,0,6,,,,,5,,,72,0
111740,note_off,,,,,188,0,1,,,,,0,,,72,0
111740,note_off,,,,,188,0,7,,,,,5,,,50,0
111740,note_off,,,,,188,0,2,,,,,1,,,50,0
111740,note_off,,,,,92,0,5,,,,,4,,,62,0
111740,note_off,,,,,92,0,4,,,,,3,,,66,0
111740,note_off,,,,,188,0,8,,,,,6,,,50,0
111740,note_off,,,,,188,0,3,,,,,2,,,72,0
111744,note_on,,,,,4,0,1,,,,,0,,,74,92
111744,note_on,,,,,4,0,8,,,,,6,,,50,92
111744,note_on,,,,,4,0,2,,,,,1,,,50,92
111744,note_on,,,,,4,0,5,,,,,4,,,66,92
111744,note_on,,,,,4,0,3,,,,,2,,,74,92
111744,note_on,,,,,64,0,6,,,,,5,,,62,92
111744,note_on,,,,,0,0,6,,,,,5,,,66,92
111744,note_on,,,,,4,0,4,,,,,3,,,69,92
111744,note_on,,,,,4,0,7,,,,,5,,,50,92
111744,note_on,,,,,0,0,6,,,,,5,,,72,92
111792,note_off,,,,,48,0,1,,,,,0,,,74,0
111792,note_on,,,,,0,0,1,,,,,0,,,72,92
111792,note_off,,,,,48,0,3,,,,,2,,,74,0
111792,note_on,,,,,0,0,3,,,,,2,,,72,92
111836,note_off,,,,,92,0,5,,,,,4,,,66,0
111836,note_off,,,,,92,0,4,,,,,3,,,69,0
111840,note_off,,,,,48,0,3,,,,,2,,,72,0
111840,note_on,,,,,4,0,5,,,,,4,,,62,92
111840,note_on,,,,,4,0,4,,,,,3,,,66,92
111840,note_off,,,,,48,0,1,,,,,0,,,72,0
111840,note_on,,,,,0,0,1,,,,,0,,,71,92
111840,note_on,,,,,0,0,3,,,,,2,,,71,92
111932,note_off,,,,,188,0,2,,,,,1,,,50,0
111932,note_off,,,,,92,0,5,,,,,4,,,62,0
111932,note_off,,,,,188,0,7,,,,,5,,,50,0
111932,note_off,,,,,188,0,8,,,,,6,,,50,0
111932,note_off,,,,,92,0,4,,,,,3,,,66,0
111936,note_on,,,,,0,0,1,,,,,0,,,72,92
111936,note_on,,,,,4,0,5,,,,,4,,,66,92
111936,note_off,,,,,96,0,1,,,,,0,,,71,0
111936,note_on,,,,,4,0,4,,,,,3,,,69,92
111936,note_on,,,,,4,0,8,,,,,6,,,50,92
111936,note_on,,,,,4,0,7,,,,,5,,,50,92
111936,note_off,,,,,96,0,3,,,,,2,,,71,0
111936,note_on,,,,,0,0,3,,,,,2,,,72,92
111936,note_on,,,,,4,0,2,,,,,1,,,50,92
112028,note_off,,,,,92,0,5,,,,,4,,,66,0
112028,note_off,,,,,92,0,4,,,,,3,,,69,0
112032,note_on,,,,,4,0,4,,,,,3,,,66,92
112032,note_on,,,,,4,0,5,,,,,4,,,62,92
112064,note_off,,,,,320,0,6,,,,,5,,,62,0
112064,note_off,,,,,0,0,6,,,,,5,,,66,0
112064,note_off,,,,,0,0,6,,,,,5,,,72,0
112124,note_off,,,,,188,0,8,,,,,6,,,50,0
112124,note_off,,,,,188,0,3,,,,,2,,,72,0
112124,note_off,,,,,188,0,2,,,,,1,,,50,0
112124,note_off,,,,,188,0,7,,,,,5,,,50,0
112124,note_off,,,,,92,0,5,,,,,4,,,62,0
112124,note_off,,,,,188,0,1,,,,,0,,,72,0
112124,note_off,,,,,92,0,4,,,,,3,,,66,0
112128,note_on,,,,,4,0,1,,,,,0,,,72,92
112128,note_on,,,,,4,0,2,,,,,1,,,50,92
112128,note_on,,,,,4,0,7,,,,,5,,,50,92
112128,note_on,,,,,4,0,5,,,,,4,,,66,92
112128,note_on,,,,,64,0,6,,,,,5,,,62,92
112128,note_on,,,,,0,0,6,,,,,5,,,66,92
112128,note_on,,,,,0,0,6,,,,,5,,,72,92
112128,note_on,,,,,4,0,4,,,,,3,,,69,92
112128,note_on,,,,,4,0,8,,,,,6,,,50,92
112128,note_on,,,,,4,0,3,,,,,2,,,72,92
112192,note_off,,,,,64,0,1,,,,,0,,,72,0
112192,note_on,,,,,0,0,1,,,,,0,,,74,92
112192,note_on,,,,,0,0,3,,,,,2,,,74,92
112192,note_off,,,,,64,0,3,,,,,2,,,72,0
112220,note_off,,,,,92,0,4,,,,,3,,,69,0
112220,note_off,,,,,92,0,5,,,,,4,,,66,0
112224,note_on,,,,,4,0,4,,,,,3,,,66,92
112224,note_on,,,,,4,0,5,,,,,4,,,62,92
112256,note_off,,,,,64,0,3,,,,,2,,,74,0
112256,note_on,,,,,0,0,3,,,,,2,,,76,92
112256,note_off,,,,,64,0,1,,,,,0,,,74,0
112256,note_on,,,,,0,0,1,,,,,0,,,76,92
112316,note_off,,,,,188,0,2,,,,,1,,,50,0
112316,note_off,,,,,188,0,7,,,,,5,,,50,0
112316,note_off,,,,,188,0,8,,,,,6,,,50,0
112316,note_off,,,,,92,0,4,,,,,3,,,66,0
112316,note_off,,,,,92,0,5,,,,,4,,,62,0
112320,note_on,,,,,0,0,1,,,,,0,,,78,92
112320,note_off,,,,,64,0,1,,,,,0,,,76,0
112320,note_on,,,,,4,0,5,,,,,4,,,66,92
112320,note_on,,,,,4,0,4,,,,,3,,,69,92
112320,note_on,,,,,4,0,7,,,,,5,,,50,92
112320,note_on,,,,,4,0,2,,,,,1,,,50,92
112320,note_on,,,,,0,0,3,,,,,2,,,78,92
112320,note_off,,,,,64,0,3,,,,,2,,,76,0
112320,note_on,,,,,4,0,8,,,,,6,,,50,92
112384,note_on,,,,,0,0,3,,,,,2,,,79,92
112384,note_off,,,,,64,0,3,,,,,2,,,78,0
112384,note_on,,,,,0,0,1,,,,,0,,,79,92
112384,note_off,,,,,64,0,1,,,,,0,,,78,0
112412,note_off,,,,,92,0,4,,,,,3,,,69,0
112412,note_off,,,,,92,0,5,,,,,4,,,66,0
112416,note_on,,,,,4,0,4,,,,,3,,,66,92
112416,note_on,,,,,4,0,5,,,,,4,,,62,92
112448,note_off,,,,,0,0,6,,,,,5,,,72,0
112448,note_off,,,,,0,0,6,,,,,5,,,66,0
112448,note_on,,,,,0,0,1,,,,,0,,,81,92
112448,note_off,,,,,64,0,1,,,,,0,,,79,0
112448,note_off,,,,,320,0,6,,,,,5,,,62,0
112448,note_on,,,,,0,0,3,,,,,2,,,81,92
112448,note_off,,,,,64,0,3,,,,,2,,,79,0
112508,note_off,,,,,60,0,1,,,,,0,,,81,0
112508,note_off,,,,,188,0,8,,,,,6,,,50,0
112508,note_off,,,,,92,0,5,,,,,4,,,62,0
112508,note_off,,,,,60,0,3,,,,,2,,,81,0
112508,note_off,,,,,188,0,7,,,,,5,,,50,0
112508,note_off,,,,,92,0,4,,,,,3,,,66,0
112508,note_off,,,,,188,0,2,,,,,1,,,50,0
112512,note_on,,,,,4,0,1,,,,,0,,,81,92
112512,note_on,,,,,4,0,4,,,,,3,,,69,92
112512,note_on,,,,,4,0,7,,,,,5,,,50,92
112512,note_on,,,,,4,0,2,,,,,1,,,50,92
112512,note_on,,,,,4,0,3,,,,,2,,,81,92
112512,note_on,,,,,4,0,5,,,,,4,,,66,92
112512,note_on,,,,,0,0,6,,,,,5,,,72,92
112512,note_on,,,,,0,0,6,,,,,5,,,66,92
112512,note_on,,,,,64,0,6,,,,,5,,,62,92
112512,note_on,,,,,4,0,8,,,,,6,,,50,92
112604,note_off,,,,,92,0,5,,,,,4,,,66,0
112604,note_off,,,,,92,0,4,,,,,3,,,69,0
112608,note_on,,,,,4,0,4,,,,,3,,,66,92
112608,note_on,,,,,4,0,5,,,,,4,,,62,92
112700,note_off,,,,,188,0,1,,,,,0,,,81,0
112700,note_off,,,,,188,0,6,,,,,5,,,62,0
112700,note_off,,,,,0,0,6,,,,,5,,,66,0
112700,note_off,,,,,0,0,6,,,,,5,,,72,0
112700,note_off,,,,,188,0,2,,,,,1,,,50,0
112700,note_off,,,,,188,0,7,,,,,5,,,50,0
112700,note_off,,,,,188,0,8,,,,,6,,,50,0
112700,note_off,,,,,92,0,5,,,,,4,,,62,0
112700,note_off,,,,,92,0,4,,,,,3,,,66,0
112700,note_off,,,,,188,0,3,,,,,2,,,81,0
112704,note_on,,,,,4,0,2,,,,,1,,,50,92
112704,note_on,,,,,4,0,7,,,,,5,,,50,92
112704,note_on,,,,,4,0,4,,,,,3,,,69,92
112704,note_on,,,,,0,0,6,,,,,5,,,69,92
112704,note_on,,,,,0,0,6,,,,,5,,,66,92
112704,note_on,,,,,4,0,6,,,,,5,,,62,92
112704,note_on,,,,,4,0,8,,,,,6,,,50,92
112704,note_on,,,,,4,0,5,,,,,4,,,66,92
112796,note_off,,,,,92,0,5,,,,,4,,,66,0
112796,note_off,,,,,92,0,4,,,,,3,,,69,0
112800,note_on,,,,,4,0,4,,,,,3,,,66,92
112800,note_on,,,,,4,0,5,,,,,4,,,62,92
112892,note_off,,,,,188,0,8,,,,,6,,,50,0
112892,note_off,,,,,92,0,5,,,,,4,,,62,0
112892,note_off,,,,,188,0,2,,,,,1,,,50,0
112892,note_off,,,,,92,0,4,,,,,3,,,66,0
112892,note_off,,,,,188,0,7,,,,,5,,,50,0
112892,note_off,,,,,188,0,6,,,,,5,,,62,0
112892,note_off,,,,,0,0,6,,,,,5,,,66,0
112892,note_off,,,,,0,0,6,,,,,5,,,69,0
112896,note_on,,,,,0,0,6,,,,,5,,,71,92
112896,note_on,,,,,0,0,6,,,,,5,,,67,92
112896,note_on,,,,,4,0,2,,,,,1,,,55,92
112896,note_on,,,,,4,0,4,,,,,3,,,71,92
112896,note_on,,,,,4,0,8,,,,,6,,,55,92
112896,note_on,,,,,196,0,1,,,,,0,,,72,92
112896,note_on,,,,,4,0,6,,,,,5,,,62,92
112896,note_on,,,,,4,0,7,,,,,5,,,55,92
112896,note_on,,,,,4,0,5,,,,,4,,,62,92
112896,note_on,,,,,196,0,3,,,,,2,,,72,92
112944,note_off,,,,,48,0,3,,,,,2,,,72,0
112944,note_on,,,,,0,0,3,,,,,2,,,71,92
112944,note_off,,,,,48,0,1,,,,,0,,,72,0
112944,note_on,,,,,0,0,1,,,,,0,,,71,92
112988,note_off,,,,,92,0,5,,,,,4,,,62,0
112988,note_off,,,,,92,0,4,,,,,3,,,71,0
112992,note_on,,,,,4,0,4,,,,,3,,,67,92
112992,note_on,,,,,4,0,5,,,,,4,,,59,92
112992,note_on,,,,,0,0,1,,,,,0,,,69,92
112992,note_on,,,,,0,0,3,,,,,2,,,69,92
112992,note_off,,,,,48,0,3,,,,,2,,,71,0
112992,note_off,,,,,48,0,1,,,,,0,,,71,0
113084,note_off,,,,,188,0,7,,,,,5,,,55,0
113084,note_off,,,,,188,0,2,,,,,1,,,55,0
113084,note_off,,,,,188,0,8,,,,,6,,,55,0
113084,note_off,,,,,92,0,5,,,,,4,,,59,0
113084,note_off,,,,,92,0,4,,,,,3,,,67,0
113088,note_on,,,,,4,0,2,,,,,1,,,55,92
113088,note_on,,,,,0,0,3,,,,,2,,,71,92
113088,note_on,,,,,4,0,5,,,,,4,,,62,92
113088,note_off,,,,,96,0,3,,,,,2,,,69,0
113088,note_on,,,,,4,0,4,,,,,3,,,71,92
113088,note_on,,,,,0,0,1,,,,,0,,,71,92
113088,note_off,,,,,96,0,1,,,,,0,,,69,0
113088,note_on,,,,,4,0,7,,,,,5,,,55,92
113088,note_on,,,,,4,0,8,,,,,6,,,55,92
113180,note_off,,,,,92,0,4,,,,,3,,,71,0
113180,note_off,,,,,92,0,5,,,,,4,,,62,0
113184,note_on,,,,,4,0,4,,,,,3,,,67,92
113184,note_on,,,,,4,0,5,,,,,4,,,59,92
113216,note_off,,,,,0,0,6,,,,,5,,,71,0
113216,note_off,,,,,320,0,6,,,,,5,,,62,0
113216,note_off,,,,,0,0,6,,,,,5,,,67,0
113276,note_off,,,,,188,0,3,,,,,2,,,71,0
113276,note_off,,,,,188,0,1,,,,,0,,,71,0
113276,note_off,,,,,188,0,2,,,,,1,,,55,0
113276,note_off,,,,,92,0,4,,,,,3,,,67,0
113276,note_off,,,,,92,0,5,,,,,4,,,59,0
113276,note_off,,,,,188,0,8,,,,,6,,,55,0
113276,note_off,,,,,188,0,7,,,,,5,,,55,0
113280,note_on,,,,,0,0,6,,,,,5,,,71,92
113280,note_on,,,,,0,0,6,,,,,5,,,67,92
113280,note_on,,,,,64,0,6,,,,,5,,,62,92
113280,note_on,,,,,4,0,3,,,,,2,,,72,92
113280,note_on,,,,,4,0,1,,,,,0,,,72,92
113280,note_on,,,,,4,0,8,,,,,6,,,55,92
113280,note_on,,,,,4,0,4,,,,,3,,,71,92
113280,note_on,,,,,4,0,2,,,,,1,,,55,92
113280,note_on,,,,,4,0,7,,,,,5,,,55,92
113280,note_on,,,,,4,0,5,,,,,4,,,62,92
113328,note_on,,,,,0,0,1,,,,,0,,,71,92
113328,note_off,,,,,48,0,1,,,,,0,,,72,0
113328,note_on,,,,,0,0,3,,,,,2,,,71,92
113328,note_off,,,,,48,0,3,,,,,2,,,72,0
113372,note_off,,,,,92,0,4,,,,,3,,,71,0
113372,note_off,,,,,92,0,5,,,,,4,,,62,0
113376,note_off,,,,,48,0,3,,,,,2,,,71,0
113376,note_on,,,,,0,0,3,,,,,2,,,69,92
113376,note_on,,,,,4,0,5,,,,,4,,,59,92
113376,note_on,,,,,4,0,4,,,,,3,,,67,92
113376,note_on,,,,,0,0,1,,,,,0,,,69,92
113376,note_off,,,,,48,0,1,,,,,0,,,71,0
113468,note_off,,,,,92,0,4,,,,,3,,,67,0
113468,note_off,,,,,188,0,7,,,,,5,,,55,0
113468,note_off,,,,,188,0,2,,,,,1,,,55,0
113468,note_off,,,,,188,0,8,,,,,6,,,55,0
113468,note_off,,,,,92,0,5,,,,,4,,,59,0
113472,note_on,,,,,0,0,1,,,,,0,,,71,92
113472,note_off,,,,,96,0,1,,,,,0,,,69,0
113472,note_on,,,,,4,0,8,,,,,6,,,55,92
113472,note_on,,,,,0,0,3,,,,,2,,,71,92
113472,note_on,,,,,4,0,2,,,,,1,,,55,92
113472,note_on,,,,,4,0,7,,,,,5,,,55,92
113472,note_on,,,,,4,0,5,,,,,4,,,62,92
113472,note_on,,,,,4,0,4,,,,,3,,,71,92
113472,note_off,,,,,96,0,3,,,,,2,,,69,0
113564,note_off,,,,,92,0,5,,,,,4,,,62,0
113564,note_off,,,,,92,0,4,,,,,3,,,71,0
113568,note_on,,,,,4,0,5,,,,,4,,,59,92
113568,note_on,,,,,4,0,4,,,,,3,,,67,92
113600,note_off,,,,,0,0,6,,,,,5,,,67,0
113600,note_off,,,,,0,0,6,,,,,5,,,71,0
113600,note_off,,,,,320,0,6,,,,,5,,,62,0
113660,note_off,,,,,92,0,5,,,,,4,,,59,0
113660,note_off,,,,,188,0,8,,,,,6,,,55,0
113660,note_off,,,,,92,0,4,,,,,3,,,67,0
113660,note_off,,,,,188,0,7,,,,,5,,,55,0
113660,note_off,,,,,188,0,3,,,,,2,,,71,0
113660,note_off,,,,,188,0,2,,,,,1,,,55,0
113660,note_off,,,,,188,0,1,,,,,0,,,71,0
113664,note_on,,,,,0,0,6,,,,,5,,,71,92
113664,note_on,,,,,4,0,5,,,,,4,,,62,92
113664,note_on,,,,,4,0,4,,,,,3,,,71,92
113664,note_on,,,,,64,0,6,,,,,5,,,62,92
113664,note_on,,,,,4,0,3,,,,,2,,,71,92
113664,note_on,,,,,0,0,6,,,,,5,,,67,92
113664,note_on,,,,,4,0,2,,,,,1,,,55,92
113664,note_on,,,,,4,0,7,,,,,5,,,55,92
113664,note_on,,,,,4,0,8,,,,,6,,,55,92
113664,note_on,,,,,4,0,1,,,,,0,,,71,92
113728,note_off,,,,,64,0,3,,,,,2,,,71,0
113728,note_off,,,,,64,0,1,,,,,0,,,71,0
113728,note_on,,,,,0,0,3,,,,,2,,,72,92
113728,note_on,,,,,0,0,1,,,,,0,,,72,92
113756,note_off,,,,,92,0,5,,,,,4,,,62,0
113756,note_off,,,,,92,0,4,,,,,3,,,71,0
113760,note_on,,,,,4,0,5,,,,,4,,,59,92
113760,note_on,,,,,4,0,4,,,,,3,,,67,92
113792,note_off,,,,,64,0,1,,,,,0,,,72,0
113792,note_off,,,,,64,0,3,,,,,2,,,72,0
113792,note_on,,,,,0,0,1,,,,,0,,,74,92
113792,note_on,,,,,0,0,3,,,,,2,,,74,92
113852,note_off,,,,,188,0,7,,,,,5,,,55,0
113852,note_off,,,,,188,0,2,,,,,1,,,55,0
113852,note_off,,,,,92,0,4,,,,,3,,,67,0
113852,note_off,,,,,92,0,5,,,,,4,,,59,0
113852,note_off,,,,,188,0,8,,,,,6,,,55,0
113856,note_on,,,,,4,0,7,,,,,5,,,55,92
113856,note_on,,,,,4,0,2,,,,,1,,,55,92
113856,note_off,,,,,64,0,3,,,,,2,,,74,0
113856,note_on,,,,,4,0,5,,,,,4,,,62,92
113856,note_off,,,,,64,0,1,,,,,0,,,74,0
113856,note_on,,,,,0,0,1,,,,,0,,,76,92
113856,note_on,,,,,4,0,8,,,,,6,,,55,92
113856,note_on,,,,,4,0,4,,,,,3,,,71,92
113856,note_on,,,,,0,0,3,,,,,2,,,76,92
113920,note_off,,,,,64,0,3,,,,,2,,,76,0
113920,note_on,,,,,0,0,3,,,,,2,,,78,92
113920,note_off,,,,,64,0,1,,,,,0,,,76,0
113920,note_on,,,,,0,0,1,,,,,0,,,78,92
113948,note_off,,,,,92,0,4,,,,,3,,,71,0
113948,note_off,,,,,92,0,5,,,,,4,,,62,0
113952,note_on,,,,,4,0,4,,,,,3,,,67,92
113952,note_on,,,,,4,0,5,,,,,4,,,59,92
113984,note_on,,,,,0,0,1,,,,,0,,,79,92
113984,note_off,,,,,64,0,1,,,,,0,,,78,0
113984,note_on,,,,,0,0,3,,,,,2,,,79,92
113984,note_off,,,,,64,0,3,,,,,2,,,78,0
113984,note_off,,,,,320,0,6,,,,,5,,,62,0
113984,note_off,,,,,0,0,6,,,,,5,,,67,0
113984,note_off,,,,,0,0,6,,,,,5,,,71,0
114044,note_off,,,,,92,0,4,,,,,3,,,67,0
114044,note_off,,,,,188,0,7,,,,,5,,,55,0
114044,note_off,,,,,188,0,2,,,,,1,,,55,0
114044,note_off,,,,,60,0,3,,,,,2,,,79,0
114044,note_off,,,,,92,0,5,,,,,4,,,59,0
114044,note_off,,,,,60,0,1,,,,,0,,,79,0
114044,note_off,,,,,188,0,8,,,,,6,,,55,0
114048,note_on,,,,,4,0,5,,,,,4,,,62,92
114048,note_on,,,,,0,0,6,,,,,5,,,71,92
114048,note_on,,,,,0,0,6,,,,,5,,,67,92
114048,note_on,,,,,64,0,6,,,,,5,,,62,92
114048,note_on,,,,,4,0,4,,,,,3,,,71,92
114048,note_on,,,,,4,0,8,,,,,6,,,55,92
114048,note_on,,,,,4,0,2,,,,,1,,,55,92
114048,note_on,,,,,4,0,1,,,,,0,,,79,92
114048,note_on,,,,,4,0,7,,,,,5,,,55,92
114048,note_on,,,,,4,0,3,,,,,2,,,79,92
114140,note_off,,,,,92,0,5,,,,,4,,,62,0
114140,note_off,,,,,92,0,4,,,,,3,,,71,0
114144,note_on,,,,,4,0,4,,,,,3,,,67,92
114144,note_on,,,,,4,0,5,,,,,4,,,59,92
114236,note_off,,,,,92,0,4,,,,,3,,,67,0
114236,note_off,,,,,188,0,2,,,,,1,,,55,0
114236,note_off,,,,,188,0,7,,,,,5,,,55,0
114236,note_off,,,,,188,0,6,,,,,5,,,62,0
114236,note_off,,,,,92,0,5,,,,,4,,,59,0
114236,note_off,,,,,0,0,6,,,,,5,,,71,0
114236,note_off,,,,,188,0,1,,,,,0,,,79,0
114236,note_off,,,,,0,0,6,,,,,5,,,67,0
114236,note_off,,,,,188,0,8,,,,,6,,,55,0
114236,note_off,,,,,188,0,3,,,,,2,,,79,0
114240,note_on,,,,,4,0,8,,,,,6,,,55,92
114240,note_on,,,,,4,0,7,,,,,5,,,55,92
114240,note_on,,,,,4,0,4,,,,,3,,,71,92
114240,note_on,,,,,0,0,6,,,,,5,,,67,92
114240,note_on,,,,,4,0,5,,,,,4,,,62,92
114240,note_on,,,,,0,0,6,,,,,5,,,62,92
114240,note_on,,,,,4,0,6,,,,,5,,,59,92
114240,note_on,,,,,4,0,2,,,,,1,,,55,92
114332,note_off,,,,,92,0,5,,,,,4,,,62,0
114332,note_off,,,,,92,0,4,,,,,3,,,71,0
114336,note_on,,,,,4,0,5,,,,,4,,,59,92
114336,note_on,,,,,4,0,4,,,,,3,,,67,92
114428,note_off,,,,,188,0,8,,,,,6,,,55,0
114428,note_off,,,,,92,0,5,,,,,4,,,59,0
114428,note_off,,,,,188,0,2,,,,,1,,,55,0
114428,note_off,,,,,188,0,7,,,,,5,,,55,0
114428,note_off,,,,,188,0,6,,,,,5,,,59,0
114428,note_off,,,,,0,0,6,,,,,5,,,62,0
114428,note_off,,,,,92,0,4,,,,,3,,,67,0
114428,note_off,,,,,0,0,6,,,,,5,,,67,0
114432,note_on,,,,,4,0,7,,,,,5,,,50,92
114432,note_on,,,,,0,0,6,,,,,5,,,69,92
114432,note_on,,,,,0,0,6,,,,,5,,,66,92
114432,note_on,,,,,196,0,1,,,,,0,,,69,92
114432,note_on,,,,,4,0,2,,,,,1,,,50,92
114432,note_on,,,,,4,0,5,,,,,4,,,62,92
114432,note_on,,,,,4,0,6,,,,,5,,,62,92
114432,note_on,,,,,4,0,4,,,,,3,,,66,92
114432,note_on,,,,,196,0,3,,,,,2,,,69,92
114432,note_on,,,,,4,0,8,,,,,6,,,50,92
114496,note_on,,,,,0,0,1,,,,,0,,,71,92
114496,note_off,,,,,64,0,1,,,,,0,,,69,0
114496,note_off,,,,,64,0,4,,,,,3,,,66,0
114496,note_on,,,,,0,0,4,,,,,3,,,67,92
114496,note_off,,,,,64,0,3,,,,,2,,,69,0
114496,note_on,,,,,0,0,3,,,,,2,,,71,92
114524,note_off,,,,,92,0,8,,,,,6,,,50,0
114524,note_off,,,,,92,0,2,,,,,1,,,50,0
114524,note_off,,,,,92,0,7,,,,,5,,,50,0
114524,note_off,,,,,92,0,5,,,,,4,,,62,0
114528,note_on,,,,,4,0,8,,,,,6,,,38,92
114528,note_on,,,,,4,0,2,,,,,1,,,38,92
114528,note_on,,,,,4,0,7,,,,,5,,,38,92
114528,note_on,,,,,4,0,5,,,,,4,,,50,92
114560,note_on,,,,,0,0,4,,,,,3,,,69,92
114560,note_off,,,,,64,0,4,,,,,3,,,67,0
114560,note_off,,,,,64,0,3,,,,,2,,,71,0
114560,note_on,,,,,0,0,3,,,,,2,,,72,92
114560,note_off,,,,,64,0,1,,,,,0,,,71,0
114560,note_on,,,,,0,0,1,,,,,0,,,72,92
114620,note_off,,,,,60,0,3,,,,,2,,,72,0
114620,note_off,,,,,60,0,4,,,,,3,,,69,0
114620,note_off,,,,,92,0,2,,,,,1,,,38,0
114620,note_off,,,,,60,0,1,,,,,0,,,72,0
114620,note_off,,,,,92,0,8,,,,,6,,,38,0
114620,note_off,,,,,92,0,5,,,,,4,,,50,0
114620,note_off,,,,,92,0,7,,,,,5,,,38,0
114624,note_on,,,,,4,0,4,,,,,3,,,69,92
114624,note_on,,,,,4,0,7,,,,,5,,,50,92
114624,note_on,,,,,4,0,3,,,,,2,,,72,92
114624,note_on,,,,,4,0,1,,,,,0,,,72,92
114624,note_on,,,,,4,0,8,,,,,6,,,50,92
114624,note_on,,,,,4,0,2,,,,,1,,,50,92
114624,note_on,,,,,4,0,5,,,,,4,,,62,92
114716,note_off,,,,,92,0,8,,,,,6,,,50,0
114716,note_off,,,,,92,0,5,,,,,4,,,62,0
114716,note_off,,,,,92,0,2,,,,,1,,,50,0
114716,note_off,,,,,92,0,7,,,,,5,,,50,0
114720,note_on,,,,,4,0,8,,,,,6,,,38,92
114720,note_on,,,,,4,0,7,,,,,5,,,38,92
114720,note_on,,,,,4,0,5,,,,,4,,,50,92
114720,note_on,,,,,4,0,2,,,,,1,,,38,92
114752,note_off,,,,,320,0,6,,,,,5,,,62,0
114752,note_off,,,,,0,0,6,,,,,5,,,66,0
114752,note_off,,,,,0,0,6,,,,,5,,,69,0
114812,note_off,,,,,188,0,4,,,,,3,,,69,0
114812,note_off,,,,,92,0,8,,,,,6,,,38,0
114812,note_off,,,,,92,0,7,,,,,5,,,38,0
114812,note_off,,,,,92,0,2,,,,,1,,,38,0
114812,note_off,,,,,92,0,5,,,,,4,,,50,0
114812,note_off,,,,,188,0,3,,,,,2,,,72,0
114812,note_off,,,,,188,0,1,,,,,0,,,72,0
114816,note_on,,,,,4,0,1,,,,,0,,,69,92
114816,note_on,,,,,0,0,6,,,,,5,,,66,92
114816,note_on,,,,,64,0,6,,,,,5,,,62,92
114816,note_on,,,,,4,0,5,,,,,4,,,62,92
114816,note_on,,,,,4,0,3,,,,,2,,,69,92
114816,note_on,,,,,4,0,7,,,,,5,,,50,92
114816,note_on,,,,,4,0,4,,,,,3,,,66,92
114816,note_on,,,,,4,0,8,,,,,6,,,50,92
114816,note_on,,,,,0,0,6,,,,,5,,,69,92
114816,note_on,,,,,4,0,2,,,,,1,,,50,92
114880,note_on,,,,,0,0,1,,,,,0,,,71,92
114880,note_off,,,,,64,0,3,,,,,2,,,69,0
114880,note_off,,,,,64,0,1,,,,,0,,,69,0
114880,note_off,,,,,64,0,4,,,,,3,,,66,0
114880,note_on,,,,,0,0,4,,,,,3,,,67,92
114880,note_on,,,,,0,0,3,,,,,2,,,71,92
114908,note_off,,,,,92,0,5,,,,,4,,,62,0
114908,note_off,,,,,92,0,8,,,,,6,,,50,0
114908,note_off,,,,,92,0,2,,,,,1,,,50,0
114908,note_off,,,,,92,0,7,,,,,5,,,50,0
114912,note_on,,,,,4,0,8,,,,,6,,,38,92
114912,note_on,,,,,4,0,7,,,,,5,,,38,92
114912,note_on,,,,,4,0,2,,,,,1,,,38,92
114912,note_on,,,,,4,0,5,,,,,4,,,50,92
114944,note_off,,,,,64,0,3,,,,,2,,,71,0
114944,note_off,,,,,64,0,4,,,,,3,,,67,0
114944,note_on,,,,,0,0,4,,,,,3,,,69,92
114944,note_on,,,,,0,0,3,,,,,2,,,72,92
114944,note_off,,,,,64,0,1,,,,,0,,,71,0
114944,note_on,,,,,0,0,1,,,,,0,,,72,92
115004,note_off,,,,,92,0,7,,,,,5,,,38,0
115004,note_off,,,,,92,0,5,,,,,4,,,50,0
115004,note_off,,,,,92,0,8,,,,,6,,,38,0
115004,note_off,,,,,60,0,4,,,,,3,,,69,0
115004,note_off,,,,,60,0,3,,,,,2,,,72,0
115004,note_off,,,,,60,0,1,,,,,0,,,72,0
115004,note_off,,,,,92,0,2,,,,,1,,,38,0
115008,note_on,,,,,4,0,2,,,,,1,,,50,92
115008,note_on,,,,,4,0,4,,,,,3,,,69,92
115008,note_on,,,,,4,0,5,,,,,4,,,62,92
115008,note_on,,,,,4,0,8,,,,,6,,,50,92
115008,note_on,,,,,4,0,1,,,,,0,,,72,92
115008,note_on,,,,,4,0,3,,,,,2,,,72,92
115008,note_on,,,,,4,0,7,,,,,5,,,50,92
115100,note_off,,,,,92,0,5,,,,,4,,,62,0
115100,note_off,,,,,92,0,2,,,,,1,,,50,0
115100,note_off,,,,,92,0,7,,,,,5,,,50,0
115100,note_off,,,,,92,0,8,,,,,6,,,50,0
115104,note_on,,,,,4,0,8,,,,,6,,,38,92
115104,note_on,,,,,4,0,2,,,,,1,,,38,92
115104,note_on,,,,,4,0,5,,,,,4,,,50,92
115104,note_on,,,,,4,0,7,,,,,5,,,38,92
115136,note_off,,,,,0,0,6,,,,,5,,,66,0
115136,note_off,,,,,320,0,6,,,,,5,,,62,0
115136,note_off,,,,,0,0,6,,,,,5,,,69,0
115196,note_off,,,,,92,0,8,,,,,6,,,38,0
115196,note_off,,,,,188,0,3,,,,,2,,,72,0
115196,note_off,,,,,188,0,4,,,,,3,,,69,0
115196,note_off,,,,,92,0,2,,,,,1,,,38,0
115196,note_off,,,,,92,0,7,,,,,5,,,38,0
115196,note_off,,,,,92,0,5,,,,,4,,,50,0
115196,note_off,,,,,188,0,1,,,,,0,,,72,0
115200,note_on,,,,,4,0,1,,,,,0,,,69,92
115200,note_on,,,,,4,0,8,,,,,6,,,50,92
115200,note_on,,,,,64,0,6,,,,,5,,,62,92
115200,note_on,,,,,4,0,2,,,,,1,,,50,92
115200,note_on,,,,,4,0,7,,,,,5,,,50,92
115200,note_on,,,,,4,0,4,,,,,3,,,66,92
115200,note_on,,,,,0,0,6,,,,,5,,,69,92
115200,note_on,,,,,4,0,5,,,,,4,,,62,92
115200,note_on,,,,,4,0,3,,,,,2,,,69,92
115200,note_on,,,,,0,0,6,,,,,5,,,66,92
115264,note_off,,,,,64,0,3,,,,,2,,,69,0
115264,note_on,,,,,0,0,3,,,,,2,,,71,92
115264,note_off,,,,,64,0,4,,,,,3,,,66,0
115264,note_on,,,,,0,0,4,,,,,3,,,67,92
115264,note_off,,,,,64,0,1,,,,,0,,,69,0
115264,note_on,,,,,0,0,1,,,,,0,,,71,92
115292,note_off,,,,,92,0,2,,,,,1,,,50,0
115292,note_off,,,,,92,0,8,,,,,6,,,50,0
115292,note_off,,,,,92,0,5,,,,,4,,,62,0
115292,note_off,,,,,92,0,7,,,,,5,,,50,0
115296,note_on,,,,,4,0,2,,,,,1,,,38,92
115296,note_on,,,,,4,0,8,,,,,6,,,38,92
115296,note_on,,,,,4,0,7,,,,,5,,,38,92
115296,note_on,,,,,4,0,5,,,,,4,,,50,92
115328,note_on,,,,,0,0,1,,,,,0,,,72,92
115328,note_on,,,,,0,0,3,,,,,2,,,72,92
115328,note_off,,,,,64,0,3,,,,,2,,,71,0
115328,note_off,,,,,64,0,1,,,,,0,,,71,0
115328,note_on,,,,,0,0,4,,,,,3,,,69,92
115328,note_off,,,,,64,0,4,,,,,3,,,67,0
115388,note_off,,,,,92,0,8,,,,,6,,,38,0
115388,note_off,,,,,60,0,4,,,,,3,,,69,0
115388,note_off,,,,,92,0,2,,,,,1,,,38,0
115388,note_off,,,,,60,0,1,,,,,0,,,72,0
115388,note_off,,,,,92,0,7,,,,,5,,,38,0
115388,note_off,,,,,60,0,3,,,,,2,,,72,0
115388,note_off,,,,,92,0,5,,,,,4,,,50,0
115392,note_on,,,,,4,0,7,,,,,5,,,50,92
115392,note_on,,,,,4,0,8,,,,,6,,,50,92
115392,note_on,,,,,4,0,5,,,,,4,,,62,92
115392,note_on,,,,,4,0,4,,,,,3,,,69,92
115392,note_on,,,,,4,0,3,,,,,2,,,72,92
115392,note_on,,,,,4,0,2,,,,,1,,,50,92
115392,note_on,,,,,4,0,1,,,,,0,,,72,92
115484,note_off,,,,,92,0,5,,,,,4,,,62,0
115484,note_off,,,,,92,0,2,,,,,1,,,50,0
115484,note_off,,,,,92,0,8,,,,,6,,,50,0
115484,note_off,,,,,92,0,7,,,,,5,,,50,0
115488,note_on,,,,,4,0,5,,,,,4,,,50,92
115488,note_on,,,,,4,0,7,,,,,5,,,38,92
115488,note_on,,,,,4,0,8,,,,,6,,,38,92
115488,note_on,,,,,4,0,2,,,,,1,,,38,92
115520,note_off,,,,,0,0,6,,,,,5,,,69,0
115520,note_off,,,,,0,0,6,,,,,5,,,66,0
115520,note_off,,,,,320,0,6,,,,,5,,,62,0
115580,note_off,,,,,188,0,1,,,,,0,,,72,0
115580,note_off,,,,,92,0,5,,,,,4,,,50,0
115580,note_off,,,,,92,0,7,,,,,5,,,38,0
115580,note_off,,,,,188,0,3,,,,,2,,,72,0
115580,note_off,,,,,92,0,8,,,,,6,,,38,0
115580,note_off,,,,,92,0,2,,,,,1,,,38,0
115580,note_off,,,,,188,0,4,,,,,3,,,69,0
115584,note_on,,,,,0,0,6,,,,,5,,,66,92
115584,note_on,,,,,0,0,6,,,,,5,,,69,92
115584,note_on,,,,,4,0,3,,,,,2,,,78,92
115584,note_on,,,,,4,0,2,,,,,1,,,50,92
115584,note_on,,,,,64,0,6,,,,,5,,,62,92
115584,note_on,,,,,4,0,4,,,,,3,,,74,92
115584,note_on,,,,,4,0,8,,,,,6,,,50,92
115584,note_on,,,,,4,0,1,,,,,0,,,78,92
115584,note_on,,,,,4,0,7,,,,,5,,,50,92
115584,note_on,,,,,4,0,5,,,,,4,,,62,92
115648,note_on,,,,,0,0,4,,,,,3,,,76,92
115648,note_on,,,,,0,0,3,,,,,2,,,79,92
115648,note_off,,,,,64,0,3,,,,,2,,,78,0
115648,note_off,,,,,64,0,1,,,,,0,,,78,0
115648,note_on,,,,,0,0,1,,,,,0,,,79,92
115648,note_off,,,,,64,0,4,,,,,3,,,74,0
115676,note_off,,,,,92,0,8,,,,,6,,,50,0
115676,note_off,,,,,92,0,2,,,,,1,,,50,0
115676,note_off,,,,,92,0,7,,,,,5,,,50,0
115676,note_off,,,,,92,0,5,,,,,4,,,62,0
115680,note_on,,,,,4,0,5,,,,,4,,,50,92
115680,note_on,,,,,4,0,8,,,,,6,,,38,92
115680,note_on,,,,,4,0,2,,,,,1,,,38,92
115680,note_on,,,,,4,0,7,,,,,5,,,38,92
115712,note_off,,,,,64,0,3,,,,,2,,,79,0
115712,note_on,,,,,0,0,4,,,,,3,,,78,92
115712,note_off,,,,,64,0,4,,,,,3,,,76,0
115712,note_on,,,,,0,0,3,,,,,2,,,81,92
115712,note_on,,,,,0,0,1,,,,,0,,,81,92
115712,note_off,,,,,64,0,1,,,,,0,,,79,0
115772,note_off,,,,,0,0,6,,,,,5,,,69,0
115772,note_off,,,,,92,0,7,,,,,5,,,38,0
115772,note_off,,,,,92,0,8,,,,,6,,,38,0
115772,note_off,,,,,92,0,2,,,,,1,,,38,0
115772,note_off,,,,,0,0,6,,,,,5,,,66,0
115772,note_off,,,,,188,0,6,,,,,5,,,62,0
115772,note_off,,,,,60,0,4,,,,,3,,,78,0
115772,note_off,,,,,60,0,1,,,,,0,,,81,0
115772,note_off,,,,,60,0,3,,,,,2,,,81,0
115772,note_off,,,,,92,0,5,,,,,4,,,50,0
115776,note_on,,,,,4,0,7,,,,,5,,,50,92
115776,note_on,,,,,4,0,5,,,,,4,,,62,92
115776,note_on,,,,,4,0,4,,,,,3,,,78,92
115776,note_on,,,,,4,0,2,,,,,1,,,50,92
115776,note_on,,,,,0,0,6,,,,,5,,,72,92
115776,note_on,,,,,0,0,6,,,,,5,,,66,92
115776,note_on,,,,,4,0,6,,,,,5,,,62,92
115776,note_on,,,,,4,0,3,,,,,2,,,81,92
115776,note_on,,,,,4,0,8,,,,,6,,,50,92
115776,note_on,,,,,4,0,1,,,,,0,,,81,92
115868,note_off,,,,,92,0,5,,,,,4,,,62,0
115868,note_off,,,,,92,0,2,,,,,1,,,50,0
115868,note_off,,,,,92,0,7,,,,,5,,,50,0
115868,note_off,,,,,92,0,8,,,,,6,,,50,0
115872,note_on,,,,,4,0,7,,,,,5,,,38,92
115872,note_on,,,,,4,0,2,,,,,1,,,38,92
115872,note_on,,,,,4,0,8,,,,,6,,,38,92
115872,note_on,,,,,4,0,5,,,,,4,,,50,92
115964,note_off,,,,,188,0,1,,,,,0,,,81,0
115964,note_off,,,,,188,0,4,,,,,3,,,78,0
115964,note_off,,,,,92,0,2,,,,,1,,,38,0
115964,note_off,,,,,92,0,7,,,,,5,,,38,0
115964,note_off,,,,,92,0,8,,,,,6,,,38,0
115964,note_off,,,,,92,0,5,,,,,4,,,50,0
115964,note_off,,,,,0,0,6,,,,,5,,,72,0
115964,note_off,,,,,0,0,6,,,,,5,,,66,0
115964,note_off,,,,,188,0,6,,,,,5,,,62,0
115964,note_off,,,,,188,0,3,,,,,2,,,81,0
115968,note_on,,,,,0,0,6,,,,,5,,,67,92
115968,note_on,,,,,0,0,6,,,,,5,,,71,92
115968,note_on,,,,,4,0,3,,,,,2,,,83,92
115968,note_on,,,,,4,0,1,,,,,0,,,83,92
115968,note_on,,,,,4,0,4,,,,,3,,,79,92
115968,note_on,,,,,4,0,5,,,,,4,,,62,92
115968,note_on,,,,,4,0,6,,,,,5,,,62,92
115968,note_on,,,,,4,0,2,,,,,1,,,55,92
115968,note_on,,,,,4,0,8,,,,,6,,,55,92
115968,note_on,,,,,4,0,7,,,,,5,,,55,92
116060,note_off,,,,,92,0,1,,,,,0,,,83,0
116060,note_off,,,,,92,0,4,,,,,3,,,79,0
116060,note_off,,,,,92,0,3,,,,,2,,,83,0
116064,note_on,,,,,4,0,3,,,,,2,,,79,92
116064,note_on,,,,,4,0,4,,,,,3,,,79,92
116064,note_on,,,,,4,0,1,,,,,0,,,79,92
116156,note_off,,,,,92,0,3,,,,,2,,,79,0
116156,note_off,,,,,188,0,8,,,,,6,,,55,0
116156,note_off,,,,,188,0,7,,,,,5,,,55,0
116156,note_off,,,,,0,0,6,,,,,5,,,71,0
116156,note_off,,,,,188,0,6,,,,,5,,,62,0
116156,note_off,,,,,0,0,6,,,,,5,,,67,0
116156,note_off,,,,,188,0,2,,,,,1,,,55,0
116156,note_off,,,,,92,0,4,,,,,3,,,79,0
116156,note_off,,,,,92,0,1,,,,,0,,,79,0
116156,note_off,,,,,188,0,5,,,,,4,,,62,0
116160,note_on,,,,,4,0,1,,,,,0,,,71,92
116160,note_on,,,,,4,0,6,,,,,5,,,62,92
116160,note_on,,,,,0,0,6,,,,,5,,,67,92
116160,note_on,,,,,0,0,6,,,,,5,,,71,92
116160,note_on,,,,,4,0,3,,,,,2,,,71,92
116160,note_on,,,,,4,0,8,,,,,6,,,43,92
116160,note_on,,,,,4,0,2,,,,,1,,,43,92
116160,note_on,,,,,4,0,5,,,,,4,,,62,92
116160,note_on,,,,,4,0,4,,,,,3,,,71,92
116160,note_on,,,,,4,0,7,,,,,5,,,43,92
116252,note_off,,,,,92,0,4,,,,,3,,,71,0
116252,note_off,,,,,92,0,1,,,,,0,,,71,0
116252,note_off,,,,,92,0,3,,,,,2,,,71,0
116256,note_on,,,,,4,0,3,,,,,2,,,79,92
116256,note_on,,,,,4,0,4,,,,,3,,,79,92
116256,note_on,,,,,4,0,1,,,,,0,,,79,92
116348,note_off,,,,,188,0,2,,,,,1,,,43,0
116348,note_off,,,,,92,0,4,,,,,3,,,79,0
116348,note_off,,,,,92,0,1,,,,,0,,,79,0
116348,note_off,,,,,188,0,5,,,,,4,,,62,0
116348,note_off,,,,,188,0,7,,,,,5,,,43,0
116348,note_off,,,,,188,0,8,,,,,6,,,43,0
116348,note_off,,,,,188,0,6,,,,,5,,,62,0
116348,note_off,,,,,0,0,6,,,,,5,,,67,0
116348,note_off,,,,,0,0,6,,,,,5,,,71,0
116348,note_off,,,,,92,0,3,,,,,2,,,79,0
116352,note_on,,,,,4,0,2,,,,,1,,,50,92
116352,note_on,,,,,4,0,7,,,,,5,,,50,92
116352,note_on,,,,,4,0,4,,,,,3,,,69,92
116352,note_on,,,,,4,0,3,,,,,2,,,69,92
116352,note_on,,,,,4,0,8,,,,,6,,,50,92
116352,note_on,,,,,0,0,6,,,,,5,,,67,92
116352,note_on,,,,,4,0,6,,,,,5,,,62,92
116352,note_on,,,,,4,0,1,,,,,0,,,69,92
116352,note_on,,,,,4,0,5,,,,,4,,,62,92
116352,note_on,,,,,0,0,6,,,,,5,,,69,92
116444,note_off,,,,,92,0,4,,,,,3,,,69,0
116444,note_off,,,,,92,0,1,,,,,0,,,69,0
116444,note_off,,,,,92,0,3,,,,,2,,,69,0
116448,note_on,,,,,4,0,3,,,,,2,,,79,92
116448,note_on,,,,,4,0,4,,,,,3,,,79,92
116448,note_on,,,,,4,0,1,,,,,0,,,79,92
116540,note_off,,,,,0,0,6,,,,,5,,,67,0
116540,note_off,,,,,92,0,4,,,,,3,,,79,0
116540,note_off,,,,,188,0,7,,,,,5,,,50,0
116540,note_off,,,,,188,0,5,,,,,4,,,62,0
116540,note_off,,,,,188,0,8,,,,,6,,,50,0
116540,note_off,,,,,92,0,3,,,,,2,,,79,0
116540,note_off,,,,,188,0,6,,,,,5,,,62,0
116540,note_off,,,,,92,0,1,,,,,0,,,79,0
116540,note_off,,,,,188,0,2,,,,,1,,,50,0
116540,note_off,,,,,0,0,6,,,,,5,,,69,0
116544,note_on,,,,,4,0,2,,,,,1,,,38,92
116544,note_on,,,,,4,0,3,,,,,2,,,62,92
116544,note_on,,,,,4,0,7,,,,,5,,,38,92
116544,note_on,,,,,4,0,5,,,,,4,,,62,92
116544,note_on,,,,,4,0,1,,,,,0,,,62,92
116544,note_on,,,,,0,0,6,,,,,5,,,69,92
116544,note_on,,,,,4,0,4,,,,,3,,,62,92
116544,note_on,,,,,4,0,6,,,,,5,,,62,92
116544,note_on,,,,,0,0,6,,,,,5,,,66,92
116544,note_on,,,,,4,0,8,,,,,6,,,38,92
116636,note_off,,,,,92,0,1,,,,,0,,,62,0
116636,note_off,,,,,92,0,3,,,,,2,,,62,0
116636,note_off,,,,,92,0,4,,,,,3,,,62,0
116640,note_on,,,,,4,0,1,,,,,0,,,78,92
116640,note_on,,,,,4,0,3,,,,,2,,,78,92
116640,note_on,,,,,4,0,4,,,,,3,,,78,92
116732,note_off,,,,,188,0,5,,,,,4,,,62,0
116732,note_off,,,,,188,0,6,,,,,5,,,62,0
116732,note_off,,,,,0,0,6,,,,,5,,,66,0
116732,note_off,,,,,92,0,3,,,,,2,,,78,0
116732,note_off,,,,,0,0,6,,,,,5,,,69,0
116732,note_off,,,,,188,0,8,,,,,6,,,38,0
116732,note_off,,,,,92,0,4,,,,,3,,,78,0
116732,note_off,,,,,92,0,1,,,,,0,,,78,0
116732,note_off,,,,,188,0,2,,,,,1,,,38,0
116732,note_off,,,,,188,0,7,,,,,5,,,38,0
116736,note_on,,,,,4,0,7,,,,,5,,,43,92
116736,note_on,,,,,4,0,4,,,,,3,,,67,92
116736,note_on,,,,,4,0,2,,,,,1,,,43,92
116736,note_on,,,,,0,0,6,,,,,5,,,71,92
116736,note_on,,,,,4,0,8,,,,,6,,,43,92
116736,note_on,,,,,4,0,1,,,,,0,,,79,92
116736,note_on,,,,,4,0,6,,,,,5,,,62,92
116736,note_on,,,,,0,0,6,,,,,5,,,67,92
116736,note_on,,,,,4,0,5,,,,,4,,,59,92
116736,note_on,,,,,4,0,3,,,,,2,,,79,92
117056,note_off,,,,,320,0,8,,,,,6,,,43,0
117056,end_of_track,,,,,0,1,8,,,,,,,,,
117056,end_of_track,,,,,0,1,2,,,,,,,,,
117056,end_of_track,,,,,0,1,4,,,,,,,,,
117056,end_of_track,,,,,0,1,7,,,,,,,,,
117056,note_off,,,,,320,0,7,,,,,5,,,43,0
117056,note_off,,,,,320,0,5,,,,,4,,,59,0
117056,end_of_track,,,,,0,1,5,,,,,,,,,
117056,end_of_track,,,,,0,1,3,,,,,,,,,
117056,note_off,,,,,320,0,3,,,,,2,,,79,0
117056,end_of_track,,,,,0,1,1,,,,,,,,,
117056,note_off,,,,,320,0,1,,,,,0,,,79,0
117056,end_of_track,,,,,0,1,6,,,,,,,,,
117056,note_off,,,,,0,0,6,,,,,5,,,71,0
117056,note_off,,,,,0,0,6,,,,,5,,,67,0
117056,note_off,,,,,320,0,6,,,,,5,,,62,0
117056,note_off,,,,,320,0,4,,,,,3,,,67,0
117056,note_off,,,,,320,0,2,,,,,1,,,43,0
